500 0 20 0           
7 Unknown 11 ACIS 5.0 NT 24 Fri Mar 26 15:33:44 1999 
-1 9.9999999999999995e-007 1e-010 
body $-1 $20 $-1 $21 #
body $-1 $22 $-1 $23 #
body $-1 $24 $-1 $25 #
body $-1 $26 $-1 $27 #
body $-1 $28 $-1 $29 #
body $-1 $30 $-1 $31 #
body $-1 $32 $-1 $33 #
body $-1 $34 $-1 $35 #
body $-1 $36 $-1 $37 #
body $-1 $38 $-1 $39 #
body $-1 $40 $-1 $41 #
body $-1 $42 $-1 $43 #
body $-1 $44 $-1 $45 #
body $-1 $46 $-1 $47 #
body $-1 $48 $-1 $49 #
body $-1 $50 $-1 $51 #
body $-1 $52 $-1 $53 #
body $-1 $54 $-1 $55 #
body $-1 $56 $-1 $57 #
body $-1 $58 $-1 $59 #
lump $-1 $-1 $60 $0 #
transform $-1 1 0 0 0 1 0 0 0 1 62.097842341380044 36.668750318281447 9.2822845054480805 1 rotate no_reflect no_shear #
lump $-1 $-1 $61 $1 #
transform $-1 1 0 0 0 1 0 0 0 1 62.097842341380044 36.668750318281447 9.2822845054480805 1 rotate no_reflect no_shear #
lump $-1 $-1 $62 $2 #
transform $-1 1 0 0 0 1 0 0 0 1 62.097842341380044 36.668750318281447 9.2822845054480805 1 rotate no_reflect no_shear #
lump $-1 $-1 $63 $3 #
transform $-1 1 0 0 0 1 0 0 0 1 62.097842341380044 36.668750318281447 9.2822845054480805 1 rotate no_reflect no_shear #
lump $-1 $-1 $64 $4 #
transform $-1 1 0 0 0 1 0 0 0 1 62.097842341380044 36.668750318281447 9.2822845054480805 1 rotate no_reflect no_shear #
lump $-1 $-1 $65 $5 #
transform $-1 1 0 0 0 1 0 0 0 1 62.097842341380044 36.668750318281447 9.2822845054480805 1 rotate no_reflect no_shear #
lump $-1 $-1 $66 $6 #
transform $-1 1 0 0 0 1 0 0 0 1 62.097842341380044 36.668750318281447 9.2822845054480805 1 rotate no_reflect no_shear #
lump $-1 $-1 $67 $7 #
transform $-1 1 0 0 0 1 0 0 0 1 62.097842341380044 36.668750318281447 9.2822845054480805 1 rotate no_reflect no_shear #
lump $-1 $-1 $68 $8 #
transform $-1 1 0 0 0 1 0 0 0 1 62.097842341380044 36.668750318281447 9.2822845054480805 1 rotate no_reflect no_shear #
lump $-1 $-1 $69 $9 #
transform $-1 1 0 0 0 1 0 0 0 1 62.097842341380044 36.668750318281447 9.2822845054480805 1 rotate no_reflect no_shear #
lump $-1 $-1 $70 $10 #
transform $-1 1 0 0 0 1 0 0 0 1 62.097842341380044 36.668750318281447 9.2822845054480805 1 rotate no_reflect no_shear #
lump $-1 $-1 $71 $11 #
transform $-1 1 0 0 0 1 0 0 0 1 62.097842341380044 36.668750318281447 9.2822845054480805 1 rotate no_reflect no_shear #
lump $-1 $-1 $72 $12 #
transform $-1 1 0 0 0 1 0 0 0 1 62.097842341380044 36.668750318281447 9.2822845054480805 1 rotate no_reflect no_shear #
lump $-1 $-1 $73 $13 #
transform $-1 1 0 0 0 1 0 0 0 1 62.097842341380044 36.668750318281447 9.2822845054480805 1 rotate no_reflect no_shear #
lump $-1 $-1 $74 $14 #
transform $-1 1 0 0 0 1 0 0 0 1 62.097842341380044 36.668750318281447 9.2822845054480805 1 rotate no_reflect no_shear #
lump $-1 $-1 $75 $15 #
transform $-1 1 0 0 0 1 0 0 0 1 62.097842341380044 36.668750318281447 9.2822845054480805 1 rotate no_reflect no_shear #
lump $-1 $-1 $76 $16 #
transform $-1 1 0 0 0 1 0 0 0 1 62.097842341380044 36.668750318281447 9.2822845054480805 1 rotate no_reflect no_shear #
lump $-1 $-1 $77 $17 #
transform $-1 1 0 0 0 1 0 0 0 1 62.097842341380044 36.668750318281447 9.2822845054480805 1 rotate no_reflect no_shear #
lump $-1 $-1 $78 $18 #
transform $-1 1 0 0 0 1 0 0 0 1 62.097842341380044 36.668750318281447 9.2822845054480805 1 rotate no_reflect no_shear #
lump $-1 $-1 $79 $19 #
transform $-1 1 0 0 0 1 0 0 0 1 62.097842341380044 36.668750318281447 9.2822845054480805 1 rotate no_reflect no_shear #
shell $-1 $-1 $-1 $80 $-1 $20 #
shell $-1 $-1 $-1 $81 $-1 $22 #
shell $-1 $-1 $-1 $82 $-1 $24 #
shell $-1 $-1 $-1 $83 $-1 $26 #
shell $-1 $-1 $-1 $84 $-1 $28 #
shell $-1 $-1 $-1 $85 $-1 $30 #
shell $-1 $-1 $-1 $86 $-1 $32 #
shell $-1 $-1 $-1 $87 $-1 $34 #
shell $-1 $-1 $-1 $88 $-1 $36 #
shell $-1 $-1 $-1 $89 $-1 $38 #
shell $-1 $-1 $-1 $90 $-1 $40 #
shell $-1 $-1 $-1 $91 $-1 $42 #
shell $-1 $-1 $-1 $92 $-1 $44 #
shell $-1 $-1 $-1 $93 $-1 $46 #
shell $-1 $-1 $-1 $94 $-1 $48 #
shell $-1 $-1 $-1 $95 $-1 $50 #
shell $-1 $-1 $-1 $96 $-1 $52 #
shell $-1 $-1 $-1 $97 $-1 $54 #
shell $-1 $-1 $-1 $98 $-1 $56 #
shell $-1 $-1 $-1 $99 $-1 $58 #
face $-1 $100 $101 $60 $-1 $102 forward single #
face $-1 $103 $104 $61 $-1 $105 reversed single #
face $-1 $106 $107 $62 $-1 $108 reversed single #
face $-1 $109 $110 $63 $-1 $111 forward single #
face $-1 $112 $113 $64 $-1 $114 reversed single #
face $-1 $115 $116 $65 $-1 $117 forward single #
face $-1 $118 $119 $66 $-1 $120 forward single #
face $-1 $121 $122 $67 $-1 $123 forward single #
face $-1 $124 $125 $68 $-1 $126 reversed single #
face $-1 $127 $128 $69 $-1 $129 forward single #
face $-1 $130 $131 $70 $-1 $132 forward single #
face $-1 $133 $134 $71 $-1 $135 forward single #
face $-1 $136 $137 $72 $-1 $138 reversed single #
face $-1 $139 $140 $73 $-1 $141 forward single #
face $-1 $142 $143 $74 $-1 $144 forward single #
face $-1 $145 $146 $75 $-1 $147 forward single #
face $-1 $148 $149 $76 $-1 $150 reversed single #
face $-1 $151 $152 $77 $-1 $153 forward single #
face $-1 $154 $155 $78 $-1 $156 forward single #
face $-1 $157 $158 $79 $-1 $159 forward single #
face $-1 $160 $161 $60 $-1 $162 reversed single #
loop $-1 $-1 $163 $80 #
plane-surface $-1 0 0 9.2822845054480805 0 0 1 1 0 0 forward_v I I I I #
face $-1 $164 $165 $61 $-1 $166 reversed single #
loop $-1 $-1 $167 $81 #
plane-surface $-1 -60.221924002089672 -25.640199744805344 0 0 -1 0 0 0 -1 forward_v I I I I #
face $-1 $168 $169 $62 $-1 $170 reversed single #
loop $-1 $-1 $171 $82 #
plane-surface $-1 98.615292416878049 0.54495718485069133 177.58257903121961 0 -1 0 -0.83867057594974714 0 -0.54463902268945019 forward_v I I I I #
face $-1 $172 $173 $63 $-1 $174 forward single #
loop $-1 $175 $176 $83 #
cone-surface $-1 60.32587505046687 -3.2630444005503136 7.1193554723354788 -0.83867057594974714 0 -0.54463902268945019 0.2723195113447251 0 -0.41933528797487357 1 I I 0 1 0.5 forward I I I I #
face $-1 $177 $178 $64 $-1 $179 reversed single #
loop $-1 $-1 $180 $84 #
plane-surface $-1 -136.8406721403523 -22.99446791433877 100.43157647048646 0 1 0 -0.6018150307709319 0 0.79863550430605224 forward_v I I I I #
face $-1 $181 $182 $65 $-1 $183 forward single #
loop $-1 $184 $185 $85 #
cone-surface $-1 -56.253314994838313 -21.355233095393384 4.5849069602098682 0.6018150307709319 0 -0.79863550430605224 0.39931775215302612 0 0.30090751538546595 1 I I 0 1 0.5 forward I I I I #
face $-1 $186 $187 $66 $-1 $188 forward single #
loop $-1 $189 $190 $86 #
cone-surface $-1 -56.253314994838313 -18.89638086697531 4.5849069602098682 0.6018150307709319 0 -0.79863550430605224 0.39931775215302612 0 0.30090751538546595 1 I I 0 1 0.5 forward I I I I #
face $-1 $191 $192 $67 $-1 $193 forward single #
loop $-1 $194 $195 $87 #
cone-surface $-1 -56.253314994838313 -16.437528638557236 4.5849069602098682 0.6018150307709319 0 -0.79863550430605224 0.39931775215302612 0 0.30090751538546595 1 I I 0 1 0.5 forward I I I I #
face $-1 $196 $197 $68 $-1 $198 reversed single #
loop $-1 $-1 $199 $88 #
plane-surface $-1 -136.8406721403523 -6.7206971451965227 100.43157647048646 0 1 0 -0.6018150307709319 0 0.79863550430605224 forward_v I I I I #
face $-1 $200 $201 $69 $-1 $202 forward single #
loop $-1 $203 $204 $89 #
cone-surface $-1 -56.253314994838313 -5.0814623262511418 4.5849069602098682 0.6018150307709319 0 -0.79863550430605224 0.39931775215302612 0 0.30090751538546595 1 I I 0 1 0.5 forward I I I I #
face $-1 $205 $206 $70 $-1 $207 forward single #
loop $-1 $208 $209 $90 #
cone-surface $-1 -56.253314994838313 -2.6226100978330678 4.5849069602098682 0.6018150307709319 0 -0.79863550430605224 0.39931775215302612 0 0.30090751538546595 1 I I 0 1 0.5 forward I I I I #
face $-1 $210 $211 $71 $-1 $212 forward single #
loop $-1 $213 $214 $91 #
cone-surface $-1 -56.253314994838313 -0.16375786941499371 4.5849069602098682 0.6018150307709319 0 -0.79863550430605224 0.39931775215302612 0 0.30090751538546595 1 I I 0 1 0.5 forward I I I I #
face $-1 $215 $216 $72 $-1 $217 reversed single #
loop $-1 $-1 $218 $92 #
plane-surface $-1 -136.8406721403523 9.553073623945723 100.43157647048646 0 1 0 -0.6018150307709319 0 0.79863550430605224 forward_v I I I I #
face $-1 $219 $220 $73 $-1 $221 forward single #
loop $-1 $222 $223 $93 #
cone-surface $-1 -56.253314994838313 11.192308442891097 4.5849069602098682 0.6018150307709319 0 -0.79863550430605224 0.39931775215302612 0 0.30090751538546595 1 I I 0 1 0.5 forward I I I I #
face $-1 $224 $225 $74 $-1 $226 forward single #
loop $-1 $227 $228 $94 #
cone-surface $-1 -56.253314994838313 13.651160671309178 4.5849069602098682 0.6018150307709319 0 -0.79863550430605224 0.39931775215302612 0 0.30090751538546595 1 I I 0 1 0.5 forward I I I I #
face $-1 $229 $230 $75 $-1 $231 forward single #
loop $-1 $232 $233 $95 #
cone-surface $-1 -56.253314994838313 16.110012899727245 4.5849069602098682 0.6018150307709319 0 -0.79863550430605224 0.39931775215302612 0 0.30090751538546595 1 I I 0 1 0.5 forward I I I I #
face $-1 $234 $235 $76 $-1 $236 reversed single #
loop $-1 $-1 $237 $96 #
plane-surface $-1 -136.8406721403523 25.826844393087967 100.43157647048646 0 1 0 -0.6018150307709319 0 0.79863550430605224 forward_v I I I I #
face $-1 $238 $239 $77 $-1 $240 forward single #
loop $-1 $241 $242 $97 #
cone-surface $-1 -56.253314994838313 27.466079212033343 4.5849069602098682 0.6018150307709319 0 -0.79863550430605224 0.39931775215302612 0 0.30090751538546595 1 I I 0 1 0.5 forward I I I I #
face $-1 $243 $244 $78 $-1 $245 forward single #
loop $-1 $246 $247 $98 #
cone-surface $-1 -56.253314994838313 29.924931440451424 4.5849069602098682 0.6018150307709319 0 -0.79863550430605224 0.39931775215302612 0 0.30090751538546595 1 I I 0 1 0.5 forward I I I I #
face $-1 $248 $249 $79 $-1 $250 forward single #
loop $-1 $251 $252 $99 #
cone-surface $-1 -56.253314994838313 32.383783668869491 4.5849069602098682 0.6018150307709319 0 -0.79863550430605224 0.39931775215302612 0 0.30090751538546595 1 I I 0 1 0.5 forward I I I I #
face $-1 $253 $254 $60 $-1 $255 reversed single #
loop $-1 $-1 $256 $100 #
plane-surface $-1 0 0 -9.2822845054480805 0 0 1 1 0 0 forward_v I I I I #
coedge $-1 $257 $258 $259 $260 forward $101 $-1 #
face $-1 $261 $262 $61 $-1 $263 forward single #
loop $-1 $-1 $264 $103 #
plane-surface $-1 -58.3460056627993 -31.154475031543395 0 -1 0 0 0 0 1 forward_v I I I I #
coedge $-1 $265 $266 $267 $268 forward $104 $-1 #
face $-1 $269 $270 $62 $-1 $271 reversed single #
loop $-1 $-1 $272 $106 #
plane-surface $-1 -5.5439739864855397 -3.2630444005503065 109.94076270335404 0.83867057594974714 0 0.54463902268945019 0.54463902268945019 0 -0.83867057594974714 forward_v I I I I #
coedge $-1 $273 $274 $275 $276 reversed $107 $-1 #
face $-1 $-1 $277 $63 $-1 $278 forward single #
loop $-1 $279 $280 $109 #
cone-surface $-1 59.480959300392797 -3.2630444005503136 6.5706607862793422 -0.83867057594974714 0 -0.54463902268945019 0.13615975567236255 0 -0.20966764398743679 1 I I -0.70710678118654746 0.70710678118654746 0.25 forward I I I I #
loop $-1 $-1 $281 $83 #
coedge $-1 $176 $176 $282 $283 reversed $110 $-1 #
face $-1 $284 $285 $64 $-1 $286 reversed single #
loop $-1 $-1 $287 $112 #
plane-surface $-1 -62.097842341380073 -18.896380866975313 1.2444932012349028 -0.6018150307709319 0 0.79863550430605224 0.79863550430605224 0 0.6018150307709319 forward_v I I I I #
coedge $-1 $288 $289 $290 $291 reversed $113 $-1 #
face $-1 $-1 $292 $65 $-1 $293 forward single #
loop $-1 $294 $295 $115 #
cone-surface $-1 -55.591588448506762 -21.355233095393384 3.7067661910017389 0.6018150307709319 0 -0.79863550430605224 0.19965887607651306 0 0.15045375769273298 1 I I -0.70710678118654746 0.70710678118654746 0.25 forward I I I I #
loop $-1 $-1 $296 $85 #
coedge $-1 $185 $185 $297 $298 reversed $116 $-1 #
face $-1 $-1 $299 $66 $-1 $300 forward single #
loop $-1 $301 $302 $118 #
cone-surface $-1 -55.591588448506762 -18.89638086697531 3.7067661910017389 0.6018150307709319 0 -0.79863550430605224 0.19965887607651306 0 0.15045375769273298 1 I I -0.70710678118654746 0.70710678118654746 0.25 forward I I I I #
loop $-1 $-1 $303 $86 #
coedge $-1 $190 $190 $304 $305 reversed $119 $-1 #
face $-1 $-1 $306 $67 $-1 $307 forward single #
loop $-1 $308 $309 $121 #
cone-surface $-1 -55.591588448506762 -16.437528638557236 3.7067661910017389 0.6018150307709319 0 -0.79863550430605224 0.19965887607651306 0 0.15045375769273298 1 I I -0.70710678118654746 0.70710678118654746 0.25 forward I I I I #
loop $-1 $-1 $310 $87 #
coedge $-1 $195 $195 $311 $312 reversed $122 $-1 #
face $-1 $313 $314 $68 $-1 $315 reversed single #
loop $-1 $-1 $316 $124 #
plane-surface $-1 -62.097842341380073 -2.6226100978330678 1.2444932012349028 -0.6018150307709319 0 0.79863550430605224 0.79863550430605224 0 0.6018150307709319 forward_v I I I I #
coedge $-1 $317 $318 $319 $320 reversed $125 $-1 #
face $-1 $-1 $321 $69 $-1 $322 forward single #
loop $-1 $323 $324 $127 #
cone-surface $-1 -55.591588448506762 -5.0814623262511418 3.7067661910017389 0.6018150307709319 0 -0.79863550430605224 0.19965887607651306 0 0.15045375769273298 1 I I -0.70710678118654746 0.70710678118654746 0.25 forward I I I I #
loop $-1 $-1 $325 $89 #
coedge $-1 $204 $204 $326 $327 reversed $128 $-1 #
face $-1 $-1 $328 $70 $-1 $329 forward single #
loop $-1 $330 $331 $130 #
cone-surface $-1 -55.591588448506762 -2.6226100978330678 3.7067661910017389 0.6018150307709319 0 -0.79863550430605224 0.19965887607651306 0 0.15045375769273298 1 I I -0.70710678118654746 0.70710678118654746 0.25 forward I I I I #
loop $-1 $-1 $332 $90 #
coedge $-1 $209 $209 $333 $334 reversed $131 $-1 #
face $-1 $-1 $335 $71 $-1 $336 forward single #
loop $-1 $337 $338 $133 #
cone-surface $-1 -55.591588448506762 -0.16375786941499371 3.7067661910017389 0.6018150307709319 0 -0.79863550430605224 0.19965887607651306 0 0.15045375769273298 1 I I -0.70710678118654746 0.70710678118654746 0.25 forward I I I I #
loop $-1 $-1 $339 $91 #
coedge $-1 $214 $214 $340 $341 reversed $134 $-1 #
face $-1 $342 $343 $72 $-1 $344 reversed single #
loop $-1 $-1 $345 $136 #
plane-surface $-1 -62.097842341380073 13.651160671309178 1.2444932012349028 -0.6018150307709319 0 0.79863550430605224 0.79863550430605224 0 0.6018150307709319 forward_v I I I I #
coedge $-1 $346 $347 $348 $349 reversed $137 $-1 #
face $-1 $-1 $350 $73 $-1 $351 forward single #
loop $-1 $352 $353 $139 #
cone-surface $-1 -55.591588448506762 11.192308442891097 3.7067661910017389 0.6018150307709319 0 -0.79863550430605224 0.19965887607651306 0 0.15045375769273298 1 I I -0.70710678118654746 0.70710678118654746 0.25 forward I I I I #
loop $-1 $-1 $354 $93 #
coedge $-1 $223 $223 $355 $356 reversed $140 $-1 #
face $-1 $-1 $357 $74 $-1 $358 forward single #
loop $-1 $359 $360 $142 #
cone-surface $-1 -55.591588448506762 13.651160671309178 3.7067661910017389 0.6018150307709319 0 -0.79863550430605224 0.19965887607651306 0 0.15045375769273298 1 I I -0.70710678118654746 0.70710678118654746 0.25 forward I I I I #
loop $-1 $-1 $361 $94 #
coedge $-1 $228 $228 $362 $363 reversed $143 $-1 #
face $-1 $-1 $364 $75 $-1 $365 forward single #
loop $-1 $366 $367 $145 #
cone-surface $-1 -55.591588448506762 16.110012899727245 3.7067661910017389 0.6018150307709319 0 -0.79863550430605224 0.19965887607651306 0 0.15045375769273298 1 I I -0.70710678118654746 0.70710678118654746 0.25 forward I I I I #
loop $-1 $-1 $368 $95 #
coedge $-1 $233 $233 $369 $370 reversed $146 $-1 #
face $-1 $371 $372 $76 $-1 $373 reversed single #
loop $-1 $-1 $374 $148 #
plane-surface $-1 -62.097842341380073 29.924931440451424 1.2444932012349028 -0.6018150307709319 0 0.79863550430605224 0.79863550430605224 0 0.6018150307709319 forward_v I I I I #
coedge $-1 $375 $376 $377 $378 reversed $149 $-1 #
face $-1 $-1 $379 $77 $-1 $380 forward single #
loop $-1 $381 $382 $151 #
cone-surface $-1 -55.591588448506762 27.466079212033343 3.7067661910017389 0.6018150307709319 0 -0.79863550430605224 0.19965887607651306 0 0.15045375769273298 1 I I -0.70710678118654746 0.70710678118654746 0.25 forward I I I I #
loop $-1 $-1 $383 $97 #
coedge $-1 $242 $242 $384 $385 reversed $152 $-1 #
face $-1 $-1 $386 $78 $-1 $387 forward single #
loop $-1 $388 $389 $154 #
cone-surface $-1 -55.591588448506762 29.924931440451424 3.7067661910017389 0.6018150307709319 0 -0.79863550430605224 0.19965887607651306 0 0.15045375769273298 1 I I -0.70710678118654746 0.70710678118654746 0.25 forward I I I I #
loop $-1 $-1 $390 $98 #
coedge $-1 $247 $247 $391 $392 reversed $155 $-1 #
face $-1 $-1 $393 $79 $-1 $394 forward single #
loop $-1 $395 $396 $157 #
cone-surface $-1 -55.591588448506762 32.383783668869491 3.7067661910017389 0.6018150307709319 0 -0.79863550430605224 0.19965887607651306 0 0.15045375769273298 1 I I -0.70710678118654746 0.70710678118654746 0.25 forward I I I I #
loop $-1 $-1 $397 $99 #
coedge $-1 $252 $252 $398 $399 reversed $158 $-1 #
face $-1 $400 $401 $60 $-1 $402 reversed single #
loop $-1 $-1 $403 $160 #
plane-surface $-1 0 -36.668750318281447 0 0 1 0 0 0 1 forward_v I I I I #
coedge $-1 $404 $405 $406 $407 forward $161 $-1 #
coedge $-1 $408 $163 $409 $410 forward $101 $-1 #
coedge $-1 $163 $408 $411 $412 forward $101 $-1 #
coedge $-1 $413 $414 $163 $260 reversed $415 $-1 #
edge $-1 $416 -36.668750318281447 $417 36.668750318281447 $259 $418 forward 7 unknown #
face $-1 $419 $420 $61 $-1 $421 reversed single #
loop $-1 $-1 $422 $164 #
plane-surface $-1 0 0 9.2822845054480805 0 0 1 1 0 0 forward_v I I I I #
coedge $-1 $423 $424 $425 $426 reversed $165 $-1 #
coedge $-1 $427 $167 $428 $429 reversed $104 $-1 #
coedge $-1 $167 $427 $430 $431 reversed $104 $-1 #
coedge $-1 $424 $423 $167 $268 reversed $165 $-1 #
edge $-1 $432 -9.2822845054480805 $433 9.2822845054480805 $267 $434 forward 7 unknown #
face $-1 $435 $436 $62 $-1 $437 reversed single #
loop $-1 $-1 $438 $168 #
plane-surface $-1 98.615292416878049 -7.0710459859513044 177.58257903121961 0 1 0 0.83867057594974714 0 0.54463902268945019 forward_v I I I I #
coedge $-1 $439 $440 $441 $442 reversed $169 $-1 #
coedge $-1 $274 $171 $443 $444 reversed $107 $-1 #
coedge $-1 $171 $273 $439 $445 reversed $107 $-1 #
coedge $-1 $441 $446 $171 $276 forward $447 $-1 #
edge $-1 $448 -12.79019613294102 $449 -10.516757763287927 $275 $450 forward 7 unknown #
loop $-1 $-1 $282 $172 #
plane-surface $-1 -5.5439739864855397 -3.2630444005503065 109.94076270335404 0.83867057594974714 0 0.54463902268945019 0.54463902268945019 0 -0.83867057594974714 forward_v I I I I #
loop $-1 $-1 $451 $109 #
coedge $-1 $280 $280 $281 $452 reversed $173 $-1 #
coedge $-1 $281 $281 $280 $452 forward $175 $-1 #
coedge $-1 $282 $282 $176 $283 forward $277 $-1 #
edge $-1 $453 0 $453 6.2831853071796004 $282 $454 forward 7 unknown #
face $-1 $455 $456 $64 $-1 $457 reversed single #
loop $-1 $-1 $458 $177 #
plane-surface $-1 -136.8406721403523 -14.798293819611859 100.43157647048646 0 -1 0 0.6018150307709319 0 -0.79863550430605224 forward_v I I I I #
coedge $-1 $459 $460 $461 $462 reversed $178 $-1 #
coedge $-1 $289 $180 $463 $464 reversed $113 $-1 #
coedge $-1 $180 $288 $459 $465 reversed $113 $-1 #
coedge $-1 $461 $466 $180 $291 forward $467 $-1 #
edge $-1 $468 6.3224937287961041 $469 16.98900284460187 $290 $470 forward 7 unknown #
loop $-1 $-1 $297 $181 #
plane-surface $-1 -62.097842341380073 -18.896380866975313 1.2444932012349028 -0.6018150307709319 0 0.79863550430605224 0.79863550430605224 0 0.6018150307709319 forward_v I I I I #
loop $-1 $-1 $471 $115 #
coedge $-1 $295 $295 $296 $472 reversed $182 $-1 #
coedge $-1 $296 $296 $295 $472 forward $184 $-1 #
coedge $-1 $297 $297 $185 $298 forward $292 $-1 #
edge $-1 $473 0 $473 6.2831853071796004 $297 $474 forward 7 unknown #
loop $-1 $-1 $304 $186 #
plane-surface $-1 -62.097842341380073 -18.896380866975313 1.2444932012349028 -0.6018150307709319 0 0.79863550430605224 0.79863550430605224 0 0.6018150307709319 forward_v I I I I #
loop $-1 $-1 $475 $118 #
coedge $-1 $302 $302 $303 $476 reversed $187 $-1 #
coedge $-1 $303 $303 $302 $476 forward $189 $-1 #
coedge $-1 $304 $304 $190 $305 forward $299 $-1 #
edge $-1 $477 0 $477 6.2831853071796004 $304 $478 forward 7 unknown #
loop $-1 $-1 $311 $191 #
plane-surface $-1 -62.097842341380073 -18.896380866975313 1.2444932012349028 -0.6018150307709319 0 0.79863550430605224 0.79863550430605224 0 0.6018150307709319 forward_v I I I I #
loop $-1 $-1 $479 $121 #
coedge $-1 $309 $309 $310 $480 reversed $192 $-1 #
coedge $-1 $310 $310 $309 $480 forward $194 $-1 #
coedge $-1 $311 $311 $195 $312 forward $306 $-1 #
edge $-1 $481 0 $481 6.2831853071796004 $311 $482 forward 7 unknown #
face $-1 $483 $484 $68 $-1 $485 forward single #
loop $-1 $-1 $486 $196 #
plane-surface $-1 -136.8406721403523 1.4754769495303872 100.43157647048646 0 -1 0 0.6018150307709319 0 -0.79863550430605224 forward_v I I I I #
coedge $-1 $487 $488 $489 $490 reversed $197 $-1 #
coedge $-1 $318 $199 $491 $492 reversed $125 $-1 #
coedge $-1 $199 $317 $487 $493 reversed $125 $-1 #
coedge $-1 $489 $494 $199 $320 forward $484 $-1 #
edge $-1 $495 6.3224937287961041 $496 16.98900284460187 $319 $497 forward 7 unknown #
loop $-1 $-1 $326 $200 #
plane-surface $-1 -62.097842341380073 -2.6226100978330678 1.2444932012349028 -0.6018150307709319 0 0.79863550430605224 0.79863550430605224 0 0.6018150307709319 forward_v I I I I #
loop $-1 $-1 $498 $127 #
coedge $-1 $324 $324 $325 $499 reversed $201 $-1 #
coedge $-1 $325 $325 $324 $499 forward $203 $-1 #
coedge $-1 $326 $326 $204 $327 forward $321 $-1 #
edge $-1 $500 0 $500 6.2831853071796004 $326 $501 forward 7 unknown #
loop $-1 $-1 $333 $205 #
plane-surface $-1 -62.097842341380073 -2.6226100978330678 1.2444932012349028 -0.6018150307709319 0 0.79863550430605224 0.79863550430605224 0 0.6018150307709319 forward_v I I I I #
loop $-1 $-1 $502 $130 #
coedge $-1 $331 $331 $332 $503 reversed $206 $-1 #
coedge $-1 $332 $332 $331 $503 forward $208 $-1 #
coedge $-1 $333 $333 $209 $334 forward $328 $-1 #
edge $-1 $504 0 $504 6.2831853071796004 $333 $505 forward 7 unknown #
loop $-1 $-1 $340 $210 #
plane-surface $-1 -62.097842341380073 -2.6226100978330678 1.2444932012349028 -0.6018150307709319 0 0.79863550430605224 0.79863550430605224 0 0.6018150307709319 forward_v I I I I #
loop $-1 $-1 $506 $133 #
coedge $-1 $338 $338 $339 $507 reversed $211 $-1 #
coedge $-1 $339 $339 $338 $507 forward $213 $-1 #
coedge $-1 $340 $340 $214 $341 forward $335 $-1 #
edge $-1 $508 0 $508 6.2831853071796004 $340 $509 forward 7 unknown #
face $-1 $510 $511 $72 $-1 $512 forward single #
loop $-1 $-1 $513 $215 #
plane-surface $-1 -136.8406721403523 17.749247718672635 100.43157647048646 0 -1 0 0.6018150307709319 0 -0.79863550430605224 forward_v I I I I #
coedge $-1 $514 $515 $516 $517 reversed $216 $-1 #
coedge $-1 $347 $218 $518 $519 reversed $137 $-1 #
coedge $-1 $218 $346 $514 $520 reversed $137 $-1 #
coedge $-1 $516 $521 $218 $349 forward $511 $-1 #
edge $-1 $522 6.3224937287961041 $523 16.98900284460187 $348 $524 forward 7 unknown #
loop $-1 $-1 $355 $219 #
plane-surface $-1 -62.097842341380073 13.651160671309178 1.2444932012349028 -0.6018150307709319 0 0.79863550430605224 0.79863550430605224 0 0.6018150307709319 forward_v I I I I #
loop $-1 $-1 $525 $139 #
coedge $-1 $353 $353 $354 $526 reversed $220 $-1 #
coedge $-1 $354 $354 $353 $526 forward $222 $-1 #
coedge $-1 $355 $355 $223 $356 forward $350 $-1 #
edge $-1 $527 0 $527 6.2831853071796004 $355 $528 forward 7 unknown #
loop $-1 $-1 $362 $224 #
plane-surface $-1 -62.097842341380073 13.651160671309178 1.2444932012349028 -0.6018150307709319 0 0.79863550430605224 0.79863550430605224 0 0.6018150307709319 forward_v I I I I #
loop $-1 $-1 $529 $142 #
coedge $-1 $360 $360 $361 $530 reversed $225 $-1 #
coedge $-1 $361 $361 $360 $530 forward $227 $-1 #
coedge $-1 $362 $362 $228 $363 forward $357 $-1 #
edge $-1 $531 0 $531 6.2831853071796004 $362 $532 forward 7 unknown #
loop $-1 $-1 $369 $229 #
plane-surface $-1 -62.097842341380073 13.651160671309178 1.2444932012349028 -0.6018150307709319 0 0.79863550430605224 0.79863550430605224 0 0.6018150307709319 forward_v I I I I #
loop $-1 $-1 $533 $145 #
coedge $-1 $367 $367 $368 $534 reversed $230 $-1 #
coedge $-1 $368 $368 $367 $534 forward $232 $-1 #
coedge $-1 $369 $369 $233 $370 forward $364 $-1 #
edge $-1 $535 0 $535 6.2831853071796004 $369 $536 forward 7 unknown #
face $-1 $537 $538 $76 $-1 $539 forward single #
loop $-1 $-1 $540 $234 #
plane-surface $-1 -136.8406721403523 34.02301848781488 100.43157647048646 0 -1 0 0.6018150307709319 0 -0.79863550430605224 forward_v I I I I #
coedge $-1 $541 $542 $543 $544 reversed $235 $-1 #
coedge $-1 $376 $237 $545 $546 reversed $149 $-1 #
coedge $-1 $237 $375 $541 $547 reversed $149 $-1 #
coedge $-1 $543 $548 $237 $378 forward $538 $-1 #
edge $-1 $549 6.3224937287961041 $550 16.98900284460187 $377 $551 forward 7 unknown #
loop $-1 $-1 $384 $238 #
plane-surface $-1 -62.097842341380073 29.924931440451424 1.2444932012349028 -0.6018150307709319 0 0.79863550430605224 0.79863550430605224 0 0.6018150307709319 forward_v I I I I #
loop $-1 $-1 $552 $151 #
coedge $-1 $382 $382 $383 $553 reversed $239 $-1 #
coedge $-1 $383 $383 $382 $553 forward $241 $-1 #
coedge $-1 $384 $384 $242 $385 forward $379 $-1 #
edge $-1 $554 0 $554 6.2831853071796004 $384 $555 forward 7 unknown #
loop $-1 $-1 $391 $243 #
plane-surface $-1 -62.097842341380073 29.924931440451424 1.2444932012349028 -0.6018150307709319 0 0.79863550430605224 0.79863550430605224 0 0.6018150307709319 forward_v I I I I #
loop $-1 $-1 $556 $154 #
coedge $-1 $389 $389 $390 $557 reversed $244 $-1 #
coedge $-1 $390 $390 $389 $557 forward $246 $-1 #
coedge $-1 $391 $391 $247 $392 forward $386 $-1 #
edge $-1 $558 0 $558 6.2831853071796004 $391 $559 forward 7 unknown #
loop $-1 $-1 $398 $248 #
plane-surface $-1 -62.097842341380073 29.924931440451424 1.2444932012349028 -0.6018150307709319 0 0.79863550430605224 0.79863550430605224 0 0.6018150307709319 forward_v I I I I #
loop $-1 $-1 $560 $157 #
coedge $-1 $396 $396 $397 $561 reversed $249 $-1 #
coedge $-1 $397 $397 $396 $561 forward $251 $-1 #
coedge $-1 $398 $398 $252 $399 forward $393 $-1 #
edge $-1 $562 0 $562 6.2831853071796004 $398 $563 forward 7 unknown #
face $-1 $564 $565 $60 $-1 $566 reversed single #
loop $-1 $-1 $567 $253 #
plane-surface $-1 -62.097842341380044 0 0 1 0 0 0 0 -1 forward_v I I I I #
coedge $-1 $568 $411 $569 $570 forward $254 $-1 #
coedge $-1 $571 $256 $568 $572 forward $161 $-1 #
coedge $-1 $256 $571 $573 $574 forward $161 $-1 #
coedge $-1 $414 $413 $256 $407 reversed $415 $-1 #
edge $-1 $575 -36.668750318281447 $576 36.668750318281447 $406 $577 forward 7 unknown #
coedge $-1 $258 $257 $578 $579 forward $101 $-1 #
coedge $-1 $580 $581 $257 $410 reversed $565 $-1 #
edge $-1 $417 -62.097842341380044 $582 62.097842341380044 $409 $583 forward 7 unknown #
coedge $-1 $403 $584 $258 $412 reversed $254 $-1 #
edge $-1 $585 -62.097842341380044 $416 62.097842341380044 $411 $586 forward 7 unknown #
coedge $-1 $406 $259 $584 $587 forward $415 $-1 #
coedge $-1 $259 $406 $580 $588 reversed $415 $-1 #
loop $-1 $-1 $413 $564 #
vertex $-1 $260 $589 #
vertex $-1 $260 $590 #
straight-curve $-1 62.097842341380044 0 9.2822845054480805 0 1 0 I I #
face $-1 $591 $592 $61 $-1 $593 reversed single #
loop $-1 $-1 $594 $261 #
plane-surface $-1 -62.097842341380044 0 0 1 0 0 0 0 -1 forward_v I I I I #
coedge $-1 $430 $595 $424 $596 forward $262 $-1 #
coedge $-1 $267 $264 $597 $598 reversed $165 $-1 #
coedge $-1 $264 $267 $422 $596 reversed $165 $-1 #
coedge $-1 $599 $600 $264 $426 forward $601 $-1 #
edge $-1 $602 -9.2822845054480805 $603 9.2822845054480805 $425 $604 forward 7 unknown #
coedge $-1 $266 $265 $594 $605 reversed $104 $-1 #
coedge $-1 $597 $606 $265 $429 forward $592 $-1 #
edge $-1 $607 -31.986880340335208 $433 -28.235043661754464 $428 $608 forward 7 unknown #
coedge $-1 $609 $422 $266 $431 forward $262 $-1 #
edge $-1 $432 28.235043661754464 $610 31.986880340335208 $430 $611 forward 7 unknown #
vertex $-1 $431 $612 #
vertex $-1 $429 $613 #
straight-curve $-1 -58.3460056627993 -25.640199744805344 0 0 0 -1 I I #
face $-1 $-1 $447 $62 $-1 $614 forward single #
loop $-1 $-1 $615 $269 #
plane-surface $-1 62.097842341380044 0 0 -1 0 0 0 0 1 forward_v I I I I #
coedge $-1 $616 $617 $618 $619 reversed $270 $-1 #
coedge $-1 $620 $272 $274 $445 forward $169 $-1 #
coedge $-1 $272 $620 $616 $621 forward $169 $-1 #
coedge $-1 $618 $275 $272 $442 forward $447 $-1 #
edge $-1 $449 -2.1764793851258446 $622 5.4395237856761511 $441 $623 forward 7 unknown #
coedge $-1 $624 $625 $273 $444 forward $436 $-1 #
edge $-1 $626 -83.009793215619368 $448 -79.509005010161729 $443 $627 forward 7 unknown #
edge $-1 $449 120.02147337041831 $626 124.19568468276012 $274 $628 forward 7 unknown #
coedge $-1 $275 $618 $624 $629 forward $447 $-1 #
loop $-1 $-1 $618 $435 #
vertex $-1 $444 $630 #
vertex $-1 $276 $631 #
straight-curve $-1 49.307646208439024 0.54495718485069133 9.2822845054480752 -1 0 0 I I #
coedge $-1 $451 $451 $-1 $632 reversed $279 $-1 #
edge $-1 $633 0 $633 6.2831853071796004 $280 $634 forward 7 unknown #
vertex $-1 $283 $635 #
ellipse-curve $-1 60.961123156553491 -3.2630444005503136 7.5318904027192453 0.83867057594974714 0 0.54463902268945019 0.2723195113447251 0 -0.41933528797487357 1 I I #
face $-1 $-1 $467 $64 $-1 $636 forward single #
loop $-1 $-1 $637 $284 #
plane-surface $-1 -62.097842341380044 0 0 1 0 0 0 0 -1 forward_v I I I I #
coedge $-1 $638 $639 $640 $641 reversed $285 $-1 #
coedge $-1 $642 $287 $289 $465 forward $178 $-1 #
coedge $-1 $287 $642 $638 $643 forward $178 $-1 #
coedge $-1 $640 $290 $287 $462 forward $467 $-1 #
edge $-1 $469 -13.546277480851113 $644 -5.3501033861242018 $461 $645 forward 7 unknown #
coedge $-1 $646 $647 $288 $464 forward $456 $-1 #
edge $-1 $648 -48.971295034008307 $468 -40.933503729795149 $463 $649 forward 7 unknown #
edge $-1 $469 -13.355916507962046 $648 -3.5527045195756588e-014 $289 $650 forward 7 unknown #
coedge $-1 $290 $640 $646 $651 forward $467 $-1 #
loop $-1 $-1 $640 $455 #
vertex $-1 $464 $652 #
vertex $-1 $291 $653 #
straight-curve $-1 -68.420336070176148 -22.99446791433877 9.2822845054480823 1 0 0 I I #
coedge $-1 $471 $471 $-1 $654 reversed $294 $-1 #
edge $-1 $655 0 $655 6.2831853071796004 $295 $656 forward 7 unknown #
vertex $-1 $298 $657 #
ellipse-curve $-1 -56.764587783477147 -21.355233095393384 5.2633888533415094 -0.6018150307709319 0 0.79863550430605224 0.39931775215302612 0 0.30090751538546595 1 I I #
coedge $-1 $475 $475 $-1 $658 reversed $301 $-1 #
edge $-1 $659 0 $659 6.2831853071796004 $302 $660 forward 7 unknown #
vertex $-1 $305 $661 #
ellipse-curve $-1 -56.764587783477147 -18.89638086697531 5.2633888533415094 -0.6018150307709319 0 0.79863550430605224 0.39931775215302612 0 0.30090751538546595 1 I I #
coedge $-1 $479 $479 $-1 $662 reversed $308 $-1 #
edge $-1 $663 0 $663 6.2831853071796004 $309 $664 forward 7 unknown #
vertex $-1 $312 $665 #
ellipse-curve $-1 -56.764587783477147 -16.437528638557236 5.2633888533415094 -0.6018150307709319 0 0.79863550430605224 0.39931775215302612 0 0.30090751538546595 1 I I #
face $-1 $-1 $666 $68 $-1 $667 reversed single #
loop $-1 $-1 $319 $313 #
plane-surface $-1 0 0 9.2822845054480805 0 0 1 1 0 0 forward_v I I I I #
coedge $-1 $668 $669 $670 $671 reversed $314 $-1 #
coedge $-1 $672 $316 $318 $493 forward $197 $-1 #
coedge $-1 $316 $672 $668 $673 forward $197 $-1 #
coedge $-1 $670 $319 $316 $490 forward $484 $-1 #
edge $-1 $496 -5.4093920962799888 $674 2.7867819984469211 $489 $675 forward 7 unknown #
coedge $-1 $676 $677 $317 $492 forward $666 $-1 #
edge $-1 $678 -48.971295034008307 $495 -40.933503729795149 $491 $679 forward 7 unknown #
edge $-1 $496 -13.355916507962046 $678 -3.5527045195756588e-014 $318 $680 forward 7 unknown #
coedge $-1 $319 $670 $676 $681 forward $484 $-1 #
vertex $-1 $492 $682 #
vertex $-1 $320 $683 #
straight-curve $-1 -68.420336070176148 -6.7206971451965227 9.2822845054480823 1 0 0 I I #
coedge $-1 $498 $498 $-1 $684 reversed $323 $-1 #
edge $-1 $685 0 $685 6.2831853071796004 $324 $686 forward 7 unknown #
vertex $-1 $327 $687 #
ellipse-curve $-1 -56.764587783477147 -5.0814623262511418 5.2633888533415094 -0.6018150307709319 0 0.79863550430605224 0.39931775215302612 0 0.30090751538546595 1 I I #
coedge $-1 $502 $502 $-1 $688 reversed $330 $-1 #
edge $-1 $689 0 $689 6.2831853071796004 $331 $690 forward 7 unknown #
vertex $-1 $334 $691 #
ellipse-curve $-1 -56.764587783477147 -2.6226100978330678 5.2633888533415094 -0.6018150307709319 0 0.79863550430605224 0.39931775215302612 0 0.30090751538546595 1 I I #
coedge $-1 $506 $506 $-1 $692 reversed $337 $-1 #
edge $-1 $693 0 $693 6.2831853071796004 $338 $694 forward 7 unknown #
vertex $-1 $341 $695 #
ellipse-curve $-1 -56.764587783477147 -0.16375786941499371 5.2633888533415094 -0.6018150307709319 0 0.79863550430605224 0.39931775215302612 0 0.30090751538546595 1 I I #
face $-1 $-1 $696 $72 $-1 $697 reversed single #
loop $-1 $-1 $348 $342 #
plane-surface $-1 0 0 9.2822845054480805 0 0 1 1 0 0 forward_v I I I I #
coedge $-1 $698 $699 $700 $701 reversed $343 $-1 #
coedge $-1 $702 $345 $347 $520 forward $216 $-1 #
coedge $-1 $345 $702 $698 $703 forward $216 $-1 #
coedge $-1 $700 $348 $345 $517 forward $511 $-1 #
edge $-1 $523 2.727493288291134 $704 10.923667383018046 $516 $705 forward 7 unknown #
coedge $-1 $706 $707 $346 $519 forward $696 $-1 #
edge $-1 $708 -48.971295034008307 $522 -40.933503729795149 $518 $709 forward 7 unknown #
edge $-1 $523 -13.355916507962046 $708 -3.5527045195756588e-014 $347 $710 forward 7 unknown #
coedge $-1 $348 $700 $706 $711 forward $511 $-1 #
vertex $-1 $349 $712 #
vertex $-1 $349 $713 #
straight-curve $-1 -68.420336070176148 9.553073623945723 9.2822845054480823 1 0 0 I I #
coedge $-1 $525 $525 $-1 $714 reversed $352 $-1 #
edge $-1 $715 0 $715 6.2831853071796004 $353 $716 forward 7 unknown #
vertex $-1 $356 $717 #
ellipse-curve $-1 -56.764587783477147 11.192308442891097 5.2633888533415094 -0.6018150307709319 0 0.79863550430605224 0.39931775215302612 0 0.30090751538546595 1 I I #
coedge $-1 $529 $529 $-1 $718 reversed $359 $-1 #
edge $-1 $719 0 $719 6.2831853071796004 $360 $720 forward 7 unknown #
vertex $-1 $363 $721 #
ellipse-curve $-1 -56.764587783477147 13.651160671309178 5.2633888533415094 -0.6018150307709319 0 0.79863550430605224 0.39931775215302612 0 0.30090751538546595 1 I I #
coedge $-1 $533 $533 $-1 $722 reversed $366 $-1 #
edge $-1 $723 0 $723 6.2831853071796004 $367 $724 forward 7 unknown #
vertex $-1 $370 $725 #
ellipse-curve $-1 -56.764587783477147 16.110012899727245 5.2633888533415094 -0.6018150307709319 0 0.79863550430605224 0.39931775215302612 0 0.30090751538546595 1 I I #
face $-1 $-1 $726 $76 $-1 $727 reversed single #
loop $-1 $-1 $377 $371 #
plane-surface $-1 0 0 9.2822845054480805 0 0 1 1 0 0 forward_v I I I I #
coedge $-1 $728 $729 $730 $731 reversed $372 $-1 #
coedge $-1 $732 $374 $376 $547 forward $235 $-1 #
coedge $-1 $374 $732 $728 $733 forward $235 $-1 #
coedge $-1 $730 $377 $374 $544 forward $538 $-1 #
edge $-1 $550 10.864378672862255 $734 19.060552767589169 $543 $735 forward 7 unknown #
coedge $-1 $736 $737 $375 $546 forward $726 $-1 #
edge $-1 $738 -48.971295034008307 $549 -40.933503729795149 $545 $739 forward 7 unknown #
edge $-1 $550 -13.355916507962046 $738 -3.5527045195756588e-014 $376 $740 forward 7 unknown #
coedge $-1 $377 $730 $736 $741 forward $538 $-1 #
vertex $-1 $378 $742 #
vertex $-1 $378 $743 #
straight-curve $-1 -68.420336070176148 25.826844393087967 9.2822845054480823 1 0 0 I I #
coedge $-1 $552 $552 $-1 $744 reversed $381 $-1 #
edge $-1 $745 0 $745 6.2831853071796004 $382 $746 forward 7 unknown #
vertex $-1 $385 $747 #
ellipse-curve $-1 -56.764587783477147 27.466079212033343 5.2633888533415094 -0.6018150307709319 0 0.79863550430605224 0.39931775215302612 0 0.30090751538546595 1 I I #
coedge $-1 $556 $556 $-1 $748 reversed $388 $-1 #
edge $-1 $749 0 $749 6.2831853071796004 $389 $750 forward 7 unknown #
vertex $-1 $392 $751 #
ellipse-curve $-1 -56.764587783477147 29.924931440451424 5.2633888533415094 -0.6018150307709319 0 0.79863550430605224 0.39931775215302612 0 0.30090751538546595 1 I I #
coedge $-1 $560 $560 $-1 $752 reversed $395 $-1 #
edge $-1 $753 0 $753 6.2831853071796004 $396 $754 forward 7 unknown #
vertex $-1 $399 $755 #
ellipse-curve $-1 -56.764587783477147 32.383783668869491 5.2633888533415094 -0.6018150307709319 0 0.79863550430605224 0.39931775215302612 0 0.30090751538546595 1 I I #
face $-1 $-1 $415 $60 $-1 $756 reversed single #
loop $-1 $-1 $580 $400 #
plane-surface $-1 0 36.668750318281447 0 0 -1 0 0 0 -1 forward_v I I I I #
coedge $-1 $757 $578 $581 $758 forward $401 $-1 #
coedge $-1 $584 $403 $404 $572 reversed $254 $-1 #
coedge $-1 $578 $757 $403 $570 reversed $401 $-1 #
edge $-1 $585 -9.2822845054480805 $759 9.2822845054480805 $569 $760 forward 7 unknown #
coedge $-1 $405 $404 $757 $761 forward $161 $-1 #
edge $-1 $576 -62.097842341380044 $759 62.097842341380044 $568 $762 forward 7 unknown #
coedge $-1 $581 $580 $405 $574 reversed $565 $-1 #
edge $-1 $763 -62.097842341380044 $575 62.097842341380044 $573 $764 forward 7 unknown #
vertex $-1 $407 $765 #
vertex $-1 $587 $766 #
straight-curve $-1 62.097842341380044 0 -9.2822845054480805 0 -1 0 I I #
coedge $-1 $567 $569 $408 $579 reversed $401 $-1 #
edge $-1 $582 -36.668750318281447 $585 36.668750318281447 $578 $767 forward 7 unknown #
coedge $-1 $573 $409 $414 $588 forward $565 $-1 #
coedge $-1 $409 $573 $567 $758 reversed $565 $-1 #
vertex $-1 $410 $768 #
straight-curve $-1 0 36.668750318281447 9.2822845054480805 -1 0 0 I I #
coedge $-1 $411 $568 $413 $587 reversed $254 $-1 #
vertex $-1 $579 $769 #
straight-curve $-1 0 -36.668750318281447 9.2822845054480805 1 0 0 I I #
edge $-1 $416 -9.2822845054480805 $576 9.2822845054480805 $413 $770 forward 7 unknown #
edge $-1 $417 -9.2822845054480805 $575 9.2822845054480805 $414 $771 forward 7 unknown #
point $-1 62.097842341380044 -36.668750318281447 9.2822845054480805 #
point $-1 62.097842341380044 36.668750318281447 9.2822845054480805 #
face $-1 $-1 $601 $61 $-1 $772 reversed single #
loop $-1 $-1 $597 $419 #
plane-surface $-1 0 0 -9.2822845054480805 0 0 1 1 0 0 forward_v I I I I #
coedge $-1 $773 $774 $427 $605 forward $420 $-1 #
coedge $-1 $422 $609 $599 $775 forward $262 $-1 #
edge $-1 $603 -21.091512802509747 $432 -10.062962229033646 $422 $776 forward 7 unknown #
coedge $-1 $777 $428 $423 $598 forward $592 $-1 #
edge $-1 $433 10.062962229033646 $602 21.091512802509747 $597 $778 forward 7 unknown #
coedge $-1 $779 $425 $595 $775 reversed $601 $-1 #
coedge $-1 $425 $779 $777 $780 reversed $601 $-1 #
loop $-1 $-1 $425 $591 #
vertex $-1 $780 $781 #
vertex $-1 $426 $782 #
straight-curve $-1 -58.3460056627993 -36.668750318281447 0 0 0 1 I I #
edge $-1 $610 -9.2822845054480805 $607 9.2822845054480805 $594 $783 forward 7 unknown #
coedge $-1 $428 $777 $773 $784 forward $592 $-1 #
vertex $-1 $429 $785 #
straight-curve $-1 -30.110962001044836 -25.640199744805344 -9.2822845054480805 1 0 0 I I #
coedge $-1 $595 $430 $774 $786 forward $262 $-1 #
vertex $-1 $786 $787 #
straight-curve $-1 -30.110962001044836 -25.640199744805344 9.2822845054480805 -1 0 0 I I #
point $-1 -58.3460056627993 -25.640199744805344 9.2822845054480805 #
point $-1 -58.3460056627993 -25.640199744805344 -9.2822845054480805 #
plane-surface $-1 0 0 9.2822845054480805 0 0 1 1 0 0 forward_v I I I I #
coedge $-1 $625 $624 $617 $788 forward $436 $-1 #
coedge $-1 $617 $438 $440 $621 reversed $270 $-1 #
coedge $-1 $438 $616 $615 $788 reversed $270 $-1 #
coedge $-1 $446 $441 $438 $619 forward $447 $-1 #
edge $-1 $622 10.516757763287927 $789 12.79019613294102 $618 $790 forward 7 unknown #
coedge $-1 $440 $439 $625 $791 reversed $169 $-1 #
edge $-1 $792 -124.19568468276012 $622 -120.02147337041831 $616 $793 forward 7 unknown #
vertex $-1 $442 $794 #
straight-curve $-1 59.824403971726952 -1.6315222002751533 9.2822845054480752 0 -1 0 I I #
coedge $-1 $615 $443 $446 $629 reversed $436 $-1 #
coedge $-1 $443 $615 $620 $791 forward $436 $-1 #
vertex $-1 $444 $795 #
straight-curve $-1 62.097842341380044 0.54495718485069133 88.791289515609805 0 0 1 I I #
straight-curve $-1 -5.5439739864855397 0.54495718485069133 109.94076270335404 0.54463902268945019 0 -0.83867057594974714 I I #
edge $-1 $789 -7.0710459859513044 $448 0.54495718485069133 $624 $796 forward 7 unknown #
point $-1 62.097842341380044 0.54495718485069133 9.2822845054480805 #
point $-1 59.824403971726952 0.54495718485069133 9.2822845054480752 #
edge $-1 $797 1 $797 0 $451 $-1 forward 7 unknown #
vertex $-1 $452 $798 #
ellipse-curve $-1 59.690626944380234 -3.2630444005503136 6.7068205419517044 0.83867057594974714 0 0.54463902268945019 0.2723195113447251 0 -0.41933528797487357 1 I I #
point $-1 61.233442667898231 -3.2630444005503136 7.1125551147443797 #
plane-surface $-1 0 0 9.2822845054480805 0 0 1 1 0 0 forward_v I I I I #
coedge $-1 $647 $646 $639 $799 forward $456 $-1 #
coedge $-1 $639 $458 $460 $643 reversed $285 $-1 #
coedge $-1 $458 $638 $637 $799 reversed $285 $-1 #
coedge $-1 $466 $461 $458 $641 forward $467 $-1 #
edge $-1 $644 -16.98900284460187 $800 -6.3224937287961041 $640 $801 forward 7 unknown #
coedge $-1 $460 $459 $647 $802 reversed $178 $-1 #
edge $-1 $803 3.5527045195756588e-014 $644 13.355916507962046 $638 $804 forward 7 unknown #
vertex $-1 $462 $805 #
straight-curve $-1 -51.431333225574271 -9.4481904334876567 9.2822845054480805 0 1 0 I I #
coedge $-1 $637 $463 $466 $651 reversed $456 $-1 #
coedge $-1 $463 $637 $642 $802 forward $456 $-1 #
vertex $-1 $464 $806 #
straight-curve $-1 -62.097842341380044 -22.99446791433877 50.215788235243231 0 0 1 I I #
straight-curve $-1 -62.097842341380073 -22.99446791433877 1.2444932012349028 -0.79863550430605224 0 -0.6018150307709319 I I #
edge $-1 $800 14.798293819611859 $468 22.99446791433877 $646 $807 forward 7 unknown #
point $-1 -62.097842341380044 -22.99446791433877 9.2822845054480805 #
point $-1 -51.431333225574278 -22.99446791433877 9.2822845054480805 #
edge $-1 $808 1 $808 0 $471 $-1 forward 7 unknown #
vertex $-1 $472 $809 #
ellipse-curve $-1 -55.742042206199493 -21.355233095393384 3.9064250670782519 -0.6018150307709319 0 0.79863550430605224 0.39931775215302612 0 0.30090751538546595 1 I I #
point $-1 -56.365270031324101 -21.355233095393384 5.56429636872695 #
edge $-1 $810 1 $810 0 $475 $-1 forward 7 unknown #
vertex $-1 $476 $811 #
ellipse-curve $-1 -55.742042206199493 -18.89638086697531 3.9064250670782519 -0.6018150307709319 0 0.79863550430605224 0.39931775215302612 0 0.30090751538546595 1 I I #
point $-1 -56.365270031324101 -18.89638086697531 5.56429636872695 #
edge $-1 $812 1 $812 0 $479 $-1 forward 7 unknown #
vertex $-1 $480 $813 #
ellipse-curve $-1 -55.742042206199493 -16.437528638557236 3.9064250670782519 -0.6018150307709319 0 0.79863550430605224 0.39931775215302612 0 0.30090751538546595 1 I I #
point $-1 -56.365270031324101 -16.437528638557236 5.56429636872695 #
loop $-1 $-1 $491 $483 #
plane-surface $-1 -62.097842341380044 0 0 1 0 0 0 0 -1 forward_v I I I I #
coedge $-1 $669 $486 $488 $673 reversed $314 $-1 #
coedge $-1 $486 $668 $814 $815 reversed $314 $-1 #
coedge $-1 $494 $489 $486 $671 forward $484 $-1 #
edge $-1 $674 -16.98900284460187 $816 -6.3224937287961041 $670 $817 forward 7 unknown #
coedge $-1 $488 $487 $677 $818 reversed $197 $-1 #
edge $-1 $819 3.5527045195756588e-014 $674 13.355916507962046 $668 $820 forward 7 unknown #
vertex $-1 $490 $821 #
straight-curve $-1 -51.431333225574271 -1.3113050489165339 9.2822845054480805 0 1 0 I I #
coedge $-1 $814 $491 $494 $681 reversed $666 $-1 #
coedge $-1 $491 $814 $672 $818 forward $666 $-1 #
vertex $-1 $492 $822 #
straight-curve $-1 -62.097842341380044 -6.7206971451965227 50.215788235243231 0 0 1 I I #
straight-curve $-1 -62.097842341380073 -6.7206971451965227 1.2444932012349028 -0.79863550430605224 0 -0.6018150307709319 I I #
edge $-1 $816 -1.4754769495303872 $495 6.7206971451965227 $676 $823 forward 7 unknown #
point $-1 -62.097842341380044 -6.7206971451965227 9.2822845054480805 #
point $-1 -51.431333225574278 -6.7206971451965227 9.2822845054480805 #
edge $-1 $824 1 $824 0 $498 $-1 forward 7 unknown #
vertex $-1 $499 $825 #
ellipse-curve $-1 -55.742042206199493 -5.0814623262511418 3.9064250670782519 -0.6018150307709319 0 0.79863550430605224 0.39931775215302612 0 0.30090751538546595 1 I I #
point $-1 -56.365270031324101 -5.0814623262511418 5.56429636872695 #
edge $-1 $826 1 $826 0 $502 $-1 forward 7 unknown #
vertex $-1 $503 $827 #
ellipse-curve $-1 -55.742042206199493 -2.6226100978330678 3.9064250670782519 -0.6018150307709319 0 0.79863550430605224 0.39931775215302612 0 0.30090751538546595 1 I I #
point $-1 -56.365270031324101 -2.6226100978330678 5.56429636872695 #
edge $-1 $828 1 $828 0 $506 $-1 forward 7 unknown #
vertex $-1 $507 $829 #
ellipse-curve $-1 -55.742042206199493 -0.16375786941499371 3.9064250670782519 -0.6018150307709319 0 0.79863550430605224 0.39931775215302612 0 0.30090751538546595 1 I I #
point $-1 -56.365270031324101 -0.16375786941499371 5.56429636872695 #
loop $-1 $-1 $518 $510 #
plane-surface $-1 -62.097842341380044 0 0 1 0 0 0 0 -1 forward_v I I I I #
coedge $-1 $699 $513 $515 $703 reversed $343 $-1 #
coedge $-1 $513 $698 $830 $831 reversed $343 $-1 #
coedge $-1 $521 $516 $513 $701 forward $511 $-1 #
edge $-1 $704 -16.98900284460187 $832 -6.3224937287961041 $700 $833 forward 7 unknown #
coedge $-1 $515 $514 $707 $834 reversed $216 $-1 #
edge $-1 $835 3.5527045195756588e-014 $704 13.355916507962046 $698 $836 forward 7 unknown #
vertex $-1 $517 $837 #
straight-curve $-1 -51.431333225574271 6.825580335654589 9.2822845054480805 0 1 0 I I #
coedge $-1 $830 $518 $521 $711 reversed $696 $-1 #
coedge $-1 $518 $830 $702 $834 forward $696 $-1 #
vertex $-1 $519 $838 #
straight-curve $-1 -62.097842341380044 9.553073623945723 50.215788235243231 0 0 1 I I #
straight-curve $-1 -62.097842341380073 9.553073623945723 1.2444932012349028 -0.79863550430605224 0 -0.6018150307709319 I I #
edge $-1 $832 -17.749247718672635 $522 -9.553073623945723 $706 $839 forward 7 unknown #
point $-1 -62.097842341380044 9.553073623945723 9.2822845054480805 #
point $-1 -51.431333225574278 9.553073623945723 9.2822845054480805 #
edge $-1 $840 1 $840 0 $525 $-1 forward 7 unknown #
vertex $-1 $526 $841 #
ellipse-curve $-1 -55.742042206199493 11.192308442891097 3.9064250670782519 -0.6018150307709319 0 0.79863550430605224 0.39931775215302612 0 0.30090751538546595 1 I I #
point $-1 -56.365270031324101 11.192308442891097 5.56429636872695 #
edge $-1 $842 1 $842 0 $529 $-1 forward 7 unknown #
vertex $-1 $530 $843 #
ellipse-curve $-1 -55.742042206199493 13.651160671309178 3.9064250670782519 -0.6018150307709319 0 0.79863550430605224 0.39931775215302612 0 0.30090751538546595 1 I I #
point $-1 -56.365270031324101 13.651160671309178 5.56429636872695 #
edge $-1 $844 1 $844 0 $533 $-1 forward 7 unknown #
vertex $-1 $534 $845 #
ellipse-curve $-1 -55.742042206199493 16.110012899727245 3.9064250670782519 -0.6018150307709319 0 0.79863550430605224 0.39931775215302612 0 0.30090751538546595 1 I I #
point $-1 -56.365270031324101 16.110012899727245 5.56429636872695 #
loop $-1 $-1 $545 $537 #
plane-surface $-1 -62.097842341380044 0 0 1 0 0 0 0 -1 forward_v I I I I #
coedge $-1 $729 $540 $542 $733 reversed $372 $-1 #
coedge $-1 $540 $728 $846 $847 reversed $372 $-1 #
coedge $-1 $548 $543 $540 $731 forward $538 $-1 #
edge $-1 $734 -16.98900284460187 $848 -6.3224937287961041 $730 $849 forward 7 unknown #
coedge $-1 $542 $541 $737 $850 reversed $235 $-1 #
edge $-1 $851 3.5527045195756588e-014 $734 13.355916507962046 $728 $852 forward 7 unknown #
vertex $-1 $544 $853 #
straight-curve $-1 -51.431333225574271 14.962465720225712 9.2822845054480805 0 1 0 I I #
coedge $-1 $846 $545 $548 $741 reversed $726 $-1 #
coedge $-1 $545 $846 $732 $850 forward $726 $-1 #
vertex $-1 $546 $854 #
straight-curve $-1 -62.097842341380044 25.826844393087967 50.215788235243231 0 0 1 I I #
straight-curve $-1 -62.097842341380073 25.826844393087967 1.2444932012349028 -0.79863550430605224 0 -0.6018150307709319 I I #
edge $-1 $848 -34.02301848781488 $549 -25.826844393087967 $736 $855 forward 7 unknown #
point $-1 -62.097842341380044 25.826844393087967 9.2822845054480805 #
point $-1 -51.431333225574278 25.826844393087967 9.2822845054480805 #
edge $-1 $856 1 $856 0 $552 $-1 forward 7 unknown #
vertex $-1 $553 $857 #
ellipse-curve $-1 -55.742042206199493 27.466079212033343 3.9064250670782519 -0.6018150307709319 0 0.79863550430605224 0.39931775215302612 0 0.30090751538546595 1 I I #
point $-1 -56.365270031324101 27.466079212033343 5.56429636872695 #
edge $-1 $858 1 $858 0 $556 $-1 forward 7 unknown #
vertex $-1 $557 $859 #
ellipse-curve $-1 -55.742042206199493 29.924931440451424 3.9064250670782519 -0.6018150307709319 0 0.79863550430605224 0.39931775215302612 0 0.30090751538546595 1 I I #
point $-1 -56.365270031324101 29.924931440451424 5.56429636872695 #
edge $-1 $860 1 $860 0 $560 $-1 forward 7 unknown #
vertex $-1 $561 $861 #
ellipse-curve $-1 -55.742042206199493 32.383783668869491 3.9064250670782519 -0.6018150307709319 0 0.79863550430605224 0.39931775215302612 0 0.30090751538546595 1 I I #
point $-1 -56.365270031324101 32.383783668869491 5.56429636872695 #
plane-surface $-1 62.097842341380044 0 0 -1 0 0 0 0 1 forward_v I I I I #
coedge $-1 $569 $567 $571 $761 reversed $401 $-1 #
edge $-1 $582 -9.2822845054480805 $763 9.2822845054480805 $581 $862 forward 7 unknown #
vertex $-1 $761 $863 #
straight-curve $-1 -62.097842341380044 -36.668750318281447 0 0 0 -1 I I #
edge $-1 $759 -36.668750318281447 $763 36.668750318281447 $757 $864 forward 7 unknown #
straight-curve $-1 0 -36.668750318281447 -9.2822845054480805 -1 0 0 I I #
vertex $-1 $574 $865 #
straight-curve $-1 0 36.668750318281447 -9.2822845054480805 1 0 0 I I #
point $-1 62.097842341380044 36.668750318281447 -9.2822845054480805 #
point $-1 62.097842341380044 -36.668750318281447 -9.2822845054480805 #
straight-curve $-1 -62.097842341380044 0 9.2822845054480805 0 -1 0 I I #
point $-1 -62.097842341380044 36.668750318281447 9.2822845054480805 #
point $-1 -62.097842341380044 -36.668750318281447 9.2822845054480805 #
straight-curve $-1 62.097842341380044 -36.668750318281447 0 0 0 -1 I I #
straight-curve $-1 62.097842341380044 36.668750318281447 0 0 0 -1 I I #
plane-surface $-1 0 -36.668750318281447 0 0 1 0 0 0 1 forward_v I I I I #
coedge $-1 $866 $594 $606 $784 reversed $420 $-1 #
coedge $-1 $594 $866 $609 $786 reversed $420 $-1 #
edge $-1 $867 -62.097842341380044 $603 -58.3460056627993 $599 $868 forward 7 unknown #
straight-curve $-1 -58.3460056627993 -15.577237515771698 9.2822845054480805 0 1 0 I I #
coedge $-1 $606 $597 $600 $780 forward $592 $-1 #
straight-curve $-1 -58.3460056627993 -15.577237515771698 -9.2822845054480805 0 -1 0 I I #
coedge $-1 $600 $599 $866 $869 forward $601 $-1 #
edge $-1 $602 58.3460056627993 $870 62.097842341380044 $600 $871 forward 7 unknown #
point $-1 -58.3460056627993 -36.668750318281447 -9.2822845054480805 #
point $-1 -58.3460056627993 -36.668750318281447 9.2822845054480805 #
straight-curve $-1 -62.097842341380044 -25.640199744805344 0 0 0 -1 I I #
edge $-1 $870 -36.668750318281447 $607 -25.640199744805344 $773 $872 forward 7 unknown #
point $-1 -62.097842341380044 -25.640199744805344 -9.2822845054480805 #
edge $-1 $610 25.640199744805344 $867 36.668750318281447 $774 $873 forward 7 unknown #
point $-1 -62.097842341380044 -25.640199744805344 9.2822845054480805 #
edge $-1 $789 79.509005010161729 $792 83.009793215619368 $615 $874 forward 7 unknown #
vertex $-1 $629 $875 #
straight-curve $-1 49.307646208439024 -7.0710459859513044 9.2822845054480752 1 0 0 I I #
edge $-1 $792 -5.4395237856761511 $626 2.1764793851258446 $625 $876 forward 7 unknown #
vertex $-1 $791 $877 #
straight-curve $-1 -5.5439739864855397 -7.0710459859513044 109.94076270335404 -0.54463902268945019 0 0.83867057594974714 I I #
point $-1 59.824403971726952 -7.0710459859513044 9.2822845054480752 #
point $-1 62.097842341380044 0.54495718485069133 5.7814962999904367 #
straight-curve $-1 62.097842341380044 0 9.2822845054480805 0 1 0 I I #
vertex $-1 $632 $878 #
point $-1 59.962946455724961 -3.2630444005503136 6.2874852539768309 #
edge $-1 $800 40.933503729795149 $803 48.971295034008307 $637 $879 forward 7 unknown #
vertex $-1 $651 $880 #
straight-curve $-1 -68.420336070176148 -14.798293819611859 9.2822845054480823 -1 0 0 I I #
edge $-1 $803 5.3501033861242018 $648 13.546277480851113 $647 $881 forward 7 unknown #
vertex $-1 $802 $882 #
straight-curve $-1 -62.097842341380073 -14.798293819611859 1.2444932012349028 0.79863550430605224 0 0.6018150307709319 I I #
point $-1 -51.431333225574278 -14.798293819611859 9.2822845054480805 #
point $-1 -62.097842341380044 -22.99446791433877 1.2444932012349241 #
straight-curve $-1 -62.097842341380044 0 9.2822845054480805 0 -1 0 I I #
vertex $-1 $654 $883 #
point $-1 -55.342724454046468 -21.355233095393384 4.2073325824637182 #
vertex $-1 $658 $884 #
point $-1 -55.342724454046468 -18.89638086697531 4.2073325824637182 #
vertex $-1 $662 $885 #
point $-1 -55.342724454046468 -16.437528638557236 4.2073325824637182 #
coedge $-1 $677 $676 $669 $815 forward $666 $-1 #
edge $-1 $816 40.933503729795149 $819 48.971295034008307 $814 $886 forward 7 unknown #
vertex $-1 $681 $887 #
straight-curve $-1 -68.420336070176148 1.4754769495303872 9.2822845054480823 -1 0 0 I I #
edge $-1 $819 -2.7867819984469211 $678 5.4093920962799888 $677 $888 forward 7 unknown #
vertex $-1 $818 $889 #
straight-curve $-1 -62.097842341380073 1.4754769495303872 1.2444932012349028 0.79863550430605224 0 0.6018150307709319 I I #
point $-1 -51.431333225574278 1.4754769495303872 9.2822845054480805 #
point $-1 -62.097842341380044 -6.7206971451965227 1.2444932012349241 #
straight-curve $-1 -62.097842341380044 0 9.2822845054480805 0 -1 0 I I #
vertex $-1 $684 $890 #
point $-1 -55.342724454046468 -5.0814623262511418 4.2073325824637182 #
vertex $-1 $688 $891 #
point $-1 -55.342724454046468 -2.6226100978330678 4.2073325824637182 #
vertex $-1 $692 $892 #
point $-1 -55.342724454046468 -0.16375786941499371 4.2073325824637182 #
coedge $-1 $707 $706 $699 $831 forward $696 $-1 #
edge $-1 $832 40.933503729795149 $835 48.971295034008307 $830 $893 forward 7 unknown #
vertex $-1 $711 $894 #
straight-curve $-1 -68.420336070176148 17.749247718672635 9.2822845054480823 -1 0 0 I I #
edge $-1 $835 -10.923667383018046 $708 -2.727493288291134 $707 $895 forward 7 unknown #
vertex $-1 $834 $896 #
straight-curve $-1 -62.097842341380073 17.749247718672635 1.2444932012349028 0.79863550430605224 0 0.6018150307709319 I I #
point $-1 -51.431333225574278 17.749247718672635 9.2822845054480805 #
point $-1 -62.097842341380044 9.553073623945723 1.2444932012349241 #
straight-curve $-1 -62.097842341380044 0 9.2822845054480805 0 -1 0 I I #
vertex $-1 $714 $897 #
point $-1 -55.342724454046468 11.192308442891097 4.2073325824637182 #
vertex $-1 $718 $898 #
point $-1 -55.342724454046468 13.651160671309178 4.2073325824637182 #
vertex $-1 $722 $899 #
point $-1 -55.342724454046468 16.110012899727245 4.2073325824637182 #
coedge $-1 $737 $736 $729 $847 forward $726 $-1 #
edge $-1 $848 40.933503729795149 $851 48.971295034008307 $846 $900 forward 7 unknown #
vertex $-1 $741 $901 #
straight-curve $-1 -68.420336070176148 34.02301848781488 9.2822845054480823 -1 0 0 I I #
edge $-1 $851 -19.060552767589169 $738 -10.864378672862255 $737 $902 forward 7 unknown #
vertex $-1 $850 $903 #
straight-curve $-1 -62.097842341380073 34.02301848781488 1.2444932012349028 0.79863550430605224 0 0.6018150307709319 I I #
point $-1 -51.431333225574278 34.02301848781488 9.2822845054480805 #
point $-1 -62.097842341380044 25.826844393087967 1.2444932012349241 #
straight-curve $-1 -62.097842341380044 0 9.2822845054480805 0 -1 0 I I #
vertex $-1 $744 $904 #
point $-1 -55.342724454046468 27.466079212033343 4.2073325824637182 #
vertex $-1 $748 $905 #
point $-1 -55.342724454046468 29.924931440451424 4.2073325824637182 #
vertex $-1 $752 $906 #
point $-1 -55.342724454046468 32.383783668869491 4.2073325824637182 #
straight-curve $-1 -62.097842341380044 36.668750318281447 0 0 0 -1 I I #
point $-1 -62.097842341380044 -36.668750318281447 -9.2822845054480805 #
straight-curve $-1 -62.097842341380044 0 -9.2822845054480805 0 1 0 I I #
point $-1 -62.097842341380044 36.668750318281447 -9.2822845054480805 #
coedge $-1 $774 $773 $779 $869 reversed $420 $-1 #
vertex $-1 $786 $907 #
straight-curve $-1 0 -36.668750318281447 9.2822845054480805 1 0 0 I I #
edge $-1 $867 -9.2822845054480805 $870 9.2822845054480805 $866 $908 forward 7 unknown #
vertex $-1 $784 $909 #
straight-curve $-1 0 -36.668750318281447 -9.2822845054480805 -1 0 0 I I #
straight-curve $-1 -62.097842341380044 0 -9.2822845054480805 0 1 0 I I #
straight-curve $-1 -62.097842341380044 0 9.2822845054480805 0 -1 0 I I #
straight-curve $-1 62.097842341380044 -7.0710459859513044 88.791289515609805 0 0 -1 I I #
point $-1 62.097842341380044 -7.0710459859513044 9.2822845054480805 #
straight-curve $-1 62.097842341380044 -1.6315222002751533 5.7814962999904225 0 1 0 I I #
point $-1 62.097842341380044 -7.0710459859513044 5.7814962999904367 #
point $-1 59.27129165640536 -3.2630444005503136 6.4345010306069801 #
straight-curve $-1 -62.097842341380044 -14.798293819611859 50.215788235243231 0 0 -1 I I #
point $-1 -62.097842341380044 -14.798293819611859 9.2822845054480805 #
straight-curve $-1 -62.097842341380044 -9.4481904334876567 1.2444932012349263 0 -1 0 I I #
point $-1 -62.097842341380044 -14.798293819611859 1.2444932012349241 #
point $-1 -55.441134690814032 -21.355233095393384 3.5071073149252259 #
point $-1 -55.441134690814032 -18.89638086697531 3.5071073149252259 #
point $-1 -55.441134690814032 -16.437528638557236 3.5071073149252259 #
straight-curve $-1 -62.097842341380044 1.4754769495303872 50.215788235243231 0 0 -1 I I #
point $-1 -62.097842341380044 1.4754769495303872 9.2822845054480805 #
straight-curve $-1 -62.097842341380044 -1.3113050489165339 1.2444932012349263 0 -1 0 I I #
point $-1 -62.097842341380044 1.4754769495303872 1.2444932012349241 #
point $-1 -55.441134690814032 -5.0814623262511418 3.5071073149252259 #
point $-1 -55.441134690814032 -2.6226100978330678 3.5071073149252259 #
point $-1 -55.441134690814032 -0.16375786941499371 3.5071073149252259 #
straight-curve $-1 -62.097842341380044 17.749247718672635 50.215788235243231 0 0 -1 I I #
point $-1 -62.097842341380044 17.749247718672635 9.2822845054480805 #
straight-curve $-1 -62.097842341380044 6.825580335654589 1.2444932012349263 0 -1 0 I I #
point $-1 -62.097842341380044 17.749247718672635 1.2444932012349241 #
point $-1 -55.441134690814032 11.192308442891097 3.5071073149252259 #
point $-1 -55.441134690814032 13.651160671309178 3.5071073149252259 #
point $-1 -55.441134690814032 16.110012899727245 3.5071073149252259 #
straight-curve $-1 -62.097842341380044 34.02301848781488 50.215788235243231 0 0 -1 I I #
point $-1 -62.097842341380044 34.02301848781488 9.2822845054480805 #
straight-curve $-1 -62.097842341380044 14.962465720225712 1.2444932012349263 0 -1 0 I I #
point $-1 -62.097842341380044 34.02301848781488 1.2444932012349241 #
point $-1 -55.441134690814032 27.466079212033343 3.5071073149252259 #
point $-1 -55.441134690814032 29.924931440451424 3.5071073149252259 #
point $-1 -55.441134690814032 32.383783668869491 3.5071073149252259 #
point $-1 -62.097842341380044 -36.668750318281447 9.2822845054480805 #
straight-curve $-1 -62.097842341380044 -36.668750318281447 0 0 0 -1 I I #
point $-1 -62.097842341380044 -36.668750318281447 -9.2822845054480805 #
End-of-ACIS-data 