500 0 6 0           
7 Unknown 11 ACIS 5.0 NT 24 Thu Mar 25 15:37:09 1999 
-1 9.9999999999999995e-007 1e-010 
body $-1 $6 $-1 $7 #
body $-1 $8 $-1 $9 #
body $-1 $10 $-1 $11 #
body $-1 $12 $-1 $13 #
body $-1 $14 $-1 $15 #
body $-1 $16 $-1 $17 #
lump $-1 $-1 $18 $0 #
transform $-1 1 0 0 0 1 0 0 0 1 57.979064302499467 34.881572503460582 13.995849065584206 1 rotate no_reflect no_shear #
lump $-1 $-1 $19 $1 #
transform $-1 1 0 0 0 1 0 0 0 1 57.979064302499467 34.881572503460582 13.995849065584206 1 rotate no_reflect no_shear #
lump $-1 $-1 $20 $2 #
transform $-1 1 0 0 0 1 0 0 0 1 57.979064302499467 34.881572503460582 13.995849065584206 1 rotate no_reflect no_shear #
lump $-1 $-1 $21 $3 #
transform $-1 1 0 0 0 1 0 0 0 1 57.979064302499467 34.881572503460582 13.995849065584206 1 rotate no_reflect no_shear #
lump $-1 $-1 $22 $4 #
transform $-1 1 0 0 0 1 0 0 0 1 57.979064302499467 34.881572503460582 13.995849065584206 1 rotate no_reflect no_shear #
lump $-1 $-1 $23 $5 #
transform $-1 1 0 0 0 1 0 0 0 1 57.979064302499467 34.881572503460582 13.995849065584206 1 rotate no_reflect no_shear #
shell $-1 $-1 $-1 $24 $-1 $6 #
shell $-1 $-1 $-1 $25 $-1 $8 #
shell $-1 $-1 $-1 $26 $-1 $10 #
shell $-1 $-1 $-1 $27 $-1 $12 #
shell $-1 $-1 $-1 $28 $-1 $14 #
shell $-1 $-1 $-1 $29 $-1 $16 #
face $-1 $30 $31 $18 $-1 $32 forward single #
face $-1 $33 $34 $19 $-1 $35 forward single #
face $-1 $36 $37 $20 $-1 $38 reversed single #
face $-1 $39 $40 $21 $-1 $41 forward single #
face $-1 $42 $43 $22 $-1 $44 reversed single #
face $-1 $45 $46 $23 $-1 $47 forward single #
face $-1 $48 $49 $18 $-1 $50 reversed single #
loop $-1 $-1 $51 $24 #
plane-surface $-1 0 0 13.995849065584206 0 0 1 1 0 0 forward_v I I I I #
face $-1 $52 $53 $19 $-1 $54 reversed single #
loop $-1 $-1 $55 $25 #
plane-surface $-1 -57.979064302499467 0 0 1 0 0 0 0 -1 forward_v I I I I #
face $-1 $56 $57 $20 $-1 $58 reversed single #
loop $-1 $-1 $59 $26 #
plane-surface $-1 -44.508118307586862 48.951592743438958 138.86535317101087 1 0 0 0 -0.6018150307709319 -0.79863550430605224 forward_v I I I I #
face $-1 $60 $61 $21 $-1 $62 forward single #
loop $-1 $63 $64 $27 #
cone-surface $-1 -30.920989622710447 25.478937354957583 5.2180732840552171 0 -0.6018150307709319 -0.79863550430605224 3 0 0 1 I I 0 1 3 forward I I I I #
face $-1 $65 $66 $22 $-1 $67 reversed single #
loop $-1 $-1 $68 $28 #
plane-surface $-1 -17.333860937834032 -104.6669172380177 96.880843911993594 -1 0 0 0 -0.6018150307709319 0.79863550430605224 forward_v I I I I #
face $-1 $69 $70 $23 $-1 $71 forward single #
loop $-1 $72 $73 $29 #
cone-surface $-1 -30.920989622710447 -25.478937354957587 5.2180732840552153 0 0.6018150307709319 -0.79863550430605224 3 0 0 1 I I 0 1 3 forward I I I I #
face $-1 $74 $75 $18 $-1 $76 reversed single #
loop $-1 $-1 $77 $30 #
plane-surface $-1 0 0 -13.995849065584206 0 0 1 1 0 0 forward_v I I I I #
coedge $-1 $78 $79 $80 $81 forward $31 $-1 #
face $-1 $82 $83 $19 $-1 $84 forward single #
loop $-1 $-1 $85 $33 #
plane-surface $-1 0 34.881572503460582 0 0 -1 0 0 0 -1 forward_v I I I I #
coedge $-1 $86 $87 $88 $89 forward $34 $-1 #
face $-1 $90 $91 $20 $-1 $92 reversed single #
loop $-1 $-1 $93 $36 #
plane-surface $-1 -30.920989622710447 -20.833751991118156 46.257074654171475 0 0.6018150307709319 0.79863550430605224 1 0 0 forward_v I I I I #
coedge $-1 $94 $95 $96 $97 reversed $37 $-1 #
face $-1 $-1 $98 $21 $-1 $99 forward single #
loop $-1 $100 $101 $39 #
cone-surface $-1 -30.920989622710447 21.625196154237486 0.10398608128214448 0 -0.6018150307709319 -0.79863550430605224 1.5 0 0 1 I I -0.70710678118654757 0.70710678118654757 1.5 forward I I I I #
loop $-1 $-1 $102 $27 #
coedge $-1 $64 $64 $103 $104 reversed $40 $-1 #
face $-1 $105 $106 $22 $-1 $107 reversed single #
loop $-1 $-1 $108 $42 #
plane-surface $-1 -30.920989622710447 -34.881572503460589 4.2725653951542029 0 -0.6018150307709319 0.79863550430605224 1 0 0 forward_v I I I I #
coedge $-1 $109 $110 $111 $112 reversed $43 $-1 #
face $-1 $-1 $113 $23 $-1 $114 forward single #
loop $-1 $115 $116 $45 #
cone-surface $-1 -30.920989622710447 -21.625196154237489 0.10398608128214271 0 0.6018150307709319 -0.79863550430605224 1.5 0 0 1 I I -0.70710678118654757 0.70710678118654757 1.5 forward I I I I #
loop $-1 $-1 $117 $29 #
coedge $-1 $73 $73 $118 $119 reversed $46 $-1 #
face $-1 $120 $121 $18 $-1 $122 reversed single #
loop $-1 $-1 $123 $48 #
plane-surface $-1 0 -34.881572503460582 0 0 1 0 0 0 1 forward_v I I I I #
coedge $-1 $124 $125 $126 $127 forward $49 $-1 #
coedge $-1 $128 $51 $129 $130 forward $31 $-1 #
coedge $-1 $51 $128 $131 $132 forward $31 $-1 #
coedge $-1 $133 $134 $51 $81 reversed $135 $-1 #
edge $-1 $136 -34.881572503460582 $137 34.881572503460582 $80 $138 forward 7 unknown #
face $-1 $139 $140 $19 $-1 $141 reversed single #
loop $-1 $-1 $88 $52 #
plane-surface $-1 -64.714537299955765 0 -6.7685419974486134 0 0 1 1 0 0 forward_v I I I I #
coedge $-1 $142 $143 $87 $144 forward $53 $-1 #
coedge $-1 $145 $55 $146 $147 reversed $34 $-1 #
coedge $-1 $55 $145 $85 $144 reversed $34 $-1 #
coedge $-1 $148 $149 $55 $89 reversed $83 $-1 #
edge $-1 $150 -34.881572503460582 $151 34.881572503460582 $88 $152 forward 7 unknown #
face $-1 $153 $154 $20 $-1 $155 forward single #
loop $-1 $-1 $156 $56 #
plane-surface $-1 -17.333860937834032 48.951592743438958 138.86535317101087 -1 0 0 0 0.6018150307709319 0.79863550430605224 forward_v I I I I #
coedge $-1 $157 $158 $159 $160 reversed $57 $-1 #
coedge $-1 $95 $59 $161 $162 reversed $37 $-1 #
coedge $-1 $59 $94 $157 $163 reversed $37 $-1 #
coedge $-1 $159 $164 $59 $97 forward $154 $-1 #
edge $-1 $165 -10.405776131741103 $166 2.4974568561374788 $96 $167 forward 7 unknown #
loop $-1 $-1 $103 $60 #
plane-surface $-1 -30.920989622710447 -20.833751991118156 46.257074654171475 0 0.6018150307709319 0.79863550430605224 1 0 0 forward_v I I I I #
loop $-1 $-1 $168 $39 #
coedge $-1 $101 $101 $102 $169 reversed $61 $-1 #
coedge $-1 $102 $102 $101 $169 forward $63 $-1 #
coedge $-1 $103 $103 $64 $104 forward $98 $-1 #
edge $-1 $170 4.7960990111047352e-016 $170 6.2831853071796013 $103 $171 forward 7 unknown #
face $-1 $172 $173 $22 $-1 $174 reversed single #
loop $-1 $-1 $175 $65 #
plane-surface $-1 -44.508118307586862 -104.6669172380177 96.880843911993594 1 0 0 0 0.6018150307709319 -0.79863550430605224 forward_v I I I I #
coedge $-1 $176 $177 $178 $179 reversed $66 $-1 #
coedge $-1 $110 $68 $180 $181 reversed $43 $-1 #
coedge $-1 $68 $109 $176 $182 reversed $43 $-1 #
coedge $-1 $178 $183 $68 $112 forward $184 $-1 #
edge $-1 $185 17.45188611554827 $186 30.355119103426873 $111 $187 forward 7 unknown #
loop $-1 $-1 $118 $69 #
plane-surface $-1 -30.920989622710447 -34.881572503460589 4.2725653951542029 0 -0.6018150307709319 0.79863550430605224 1 0 0 forward_v I I I I #
loop $-1 $-1 $188 $45 #
coedge $-1 $116 $116 $117 $189 reversed $70 $-1 #
coedge $-1 $117 $117 $116 $189 forward $72 $-1 #
coedge $-1 $118 $118 $73 $119 forward $113 $-1 #
edge $-1 $190 7.1269216397587805e-016 $190 6.2831853071796013 $118 $191 forward 7 unknown #
face $-1 $192 $193 $18 $-1 $194 reversed single #
loop $-1 $-1 $195 $74 #
plane-surface $-1 -57.979064302499467 0 0 1 0 0 0 0 -1 forward_v I I I I #
coedge $-1 $196 $131 $195 $197 forward $75 $-1 #
coedge $-1 $198 $77 $196 $199 forward $49 $-1 #
coedge $-1 $77 $198 $200 $201 forward $49 $-1 #
coedge $-1 $134 $133 $77 $127 reversed $135 $-1 #
edge $-1 $202 -34.881572503460582 $203 34.881572503460582 $126 $204 forward 7 unknown #
coedge $-1 $79 $78 $205 $206 forward $31 $-1 #
coedge $-1 $207 $208 $78 $130 reversed $193 $-1 #
edge $-1 $137 -57.979064302499467 $209 57.979064302499467 $129 $210 forward 7 unknown #
coedge $-1 $123 $211 $79 $132 reversed $75 $-1 #
edge $-1 $212 -57.979064302499467 $136 57.979064302499467 $131 $213 forward 7 unknown #
coedge $-1 $126 $80 $211 $214 forward $135 $-1 #
coedge $-1 $80 $126 $207 $215 reversed $135 $-1 #
loop $-1 $-1 $133 $192 #
vertex $-1 $81 $216 #
vertex $-1 $81 $217 #
straight-curve $-1 57.979064302499467 0 13.995849065584206 0 1 0 I I #
face $-1 $218 $219 $19 $-1 $220 reversed single #
loop $-1 $-1 $221 $82 #
plane-surface $-1 -64.714537299955765 0 -12.459056806895683 0 0 1 1 0 0 forward_v I I I I #
coedge $-1 $222 $85 $223 $224 reversed $53 $-1 #
coedge $-1 $85 $222 $148 $225 reversed $53 $-1 #
edge $-1 $150 6.7685419974486134 $226 12.459056806895683 $85 $227 forward 7 unknown #
coedge $-1 $87 $86 $221 $228 forward $34 $-1 #
coedge $-1 $229 $230 $86 $147 forward $231 $-1 #
edge $-1 $232 -12.459056806895683 $151 -6.7685419974486134 $146 $233 forward 7 unknown #
coedge $-1 $234 $88 $143 $225 forward $83 $-1 #
coedge $-1 $88 $234 $229 $235 forward $83 $-1 #
vertex $-1 $144 $236 #
vertex $-1 $235 $237 #
straight-curve $-1 -57.979064302499467 0 -6.7685419974486134 0 -1 0 I I #
face $-1 $-1 $238 $20 $-1 $239 reversed single #
loop $-1 $-1 $96 $90 #
plane-surface $-1 0 0 13.995849065584206 0 0 1 1 0 0 forward_v I I I I #
coedge $-1 $240 $241 $242 $243 reversed $91 $-1 #
coedge $-1 $244 $93 $95 $163 forward $57 $-1 #
coedge $-1 $93 $244 $240 $245 forward $57 $-1 #
coedge $-1 $242 $96 $93 $160 forward $154 $-1 #
edge $-1 $166 -29.047623496231637 $246 -1.8733661264788086 $159 $247 forward 7 unknown #
coedge $-1 $248 $249 $94 $162 forward $238 $-1 #
edge $-1 $250 -65.160111190351202 $165 -55.436827519921223 $161 $251 forward 7 unknown #
edge $-1 $166 53.60654676115395 $250 69.763145006921178 $95 $252 forward 7 unknown #
coedge $-1 $96 $242 $248 $253 forward $154 $-1 #
vertex $-1 $162 $254 #
vertex $-1 $97 $255 #
straight-curve $-1 -44.508118307586862 24.475796371719479 13.99584906558421 0 -1 0 I I #
coedge $-1 $168 $168 $-1 $256 reversed $100 $-1 #
edge $-1 $257 0 $257 6.2831853071796004 $101 $258 forward 7 unknown #
vertex $-1 $104 $259 #
ellipse-curve $-1 -30.920989622710447 28.429956009521288 9.1342072303692188 0 0.6018150307709319 0.79863550430605224 3 0 0 1 I I #
face $-1 $-1 $184 $22 $-1 $260 forward single #
loop $-1 $-1 $261 $105 #
plane-surface $-1 0 -34.881572503460582 0 0 1 0 0 0 1 forward_v I I I I #
coedge $-1 $262 $263 $264 $265 reversed $106 $-1 #
coedge $-1 $266 $108 $110 $182 forward $66 $-1 #
coedge $-1 $108 $266 $262 $267 forward $66 $-1 #
coedge $-1 $264 $111 $108 $179 forward $184 $-1 #
edge $-1 $186 1.8733661264788086 $268 29.047623496231637 $178 $269 forward 7 unknown #
coedge $-1 $270 $271 $109 $181 forward $173 $-1 #
edge $-1 $272 -44.167856560842587 $185 -34.444572890412587 $180 $273 forward 7 unknown #
edge $-1 $186 -16.156598245767256 $272 -8.8817612989391469e-015 $110 $274 forward 7 unknown #
coedge $-1 $111 $264 $270 $275 forward $184 $-1 #
loop $-1 $-1 $264 $172 #
vertex $-1 $181 $276 #
vertex $-1 $112 $277 #
straight-curve $-1 -17.333860937834032 -52.333458619008852 13.995849065584203 0 1 0 I I #
coedge $-1 $188 $188 $-1 $278 reversed $115 $-1 #
edge $-1 $279 0 $279 6.2831853071796004 $116 $280 forward 7 unknown #
vertex $-1 $119 $281 #
ellipse-curve $-1 -30.920989622710447 -28.429956009521284 9.1342072303692063 0 -0.6018150307709319 0.79863550430605224 3 0 0 1 I I #
face $-1 $-1 $135 $18 $-1 $282 reversed single #
loop $-1 $-1 $207 $120 #
plane-surface $-1 0 34.881572503460582 0 0 -1 0 0 0 -1 forward_v I I I I #
coedge $-1 $205 $283 $123 $197 reversed $121 $-1 #
coedge $-1 $211 $123 $124 $199 reversed $75 $-1 #
edge $-1 $212 -13.995849065584206 $284 13.995849065584206 $195 $285 forward 7 unknown #
coedge $-1 $125 $124 $283 $286 forward $49 $-1 #
edge $-1 $203 -57.979064302499467 $284 57.979064302499467 $196 $287 forward 7 unknown #
coedge $-1 $208 $207 $125 $201 reversed $193 $-1 #
edge $-1 $288 -57.979064302499467 $202 57.979064302499467 $200 $289 forward 7 unknown #
vertex $-1 $127 $290 #
vertex $-1 $214 $291 #
straight-curve $-1 57.979064302499467 0 -13.995849065584206 0 -1 0 I I #
coedge $-1 $292 $195 $128 $206 reversed $121 $-1 #
edge $-1 $209 -34.881572503460582 $212 34.881572503460582 $205 $293 forward 7 unknown #
coedge $-1 $200 $129 $134 $215 forward $193 $-1 #
coedge $-1 $129 $200 $292 $294 reversed $193 $-1 #
vertex $-1 $130 $295 #
straight-curve $-1 0 34.881572503460582 13.995849065584206 -1 0 0 I I #
coedge $-1 $131 $196 $133 $214 reversed $75 $-1 #
vertex $-1 $206 $296 #
straight-curve $-1 0 -34.881572503460582 13.995849065584206 1 0 0 I I #
edge $-1 $136 -13.995849065584206 $203 13.995849065584206 $133 $297 forward 7 unknown #
edge $-1 $137 -13.995849065584206 $202 13.995849065584206 $134 $298 forward 7 unknown #
point $-1 57.979064302499467 -34.881572503460582 13.995849065584206 #
point $-1 57.979064302499467 34.881572503460582 13.995849065584206 #
face $-1 $-1 $231 $19 $-1 $299 reversed single #
loop $-1 $-1 $300 $139 #
plane-surface $-1 -71.450010297412064 0 -9.6137994021721482 1 0 0 0 0 -1 forward_v I I I I #
coedge $-1 $301 $223 $145 $228 reversed $140 $-1 #
coedge $-1 $143 $142 $300 $302 reversed $53 $-1 #
coedge $-1 $221 $303 $142 $224 forward $140 $-1 #
edge $-1 $304 -6.7354729974562986 $226 6.7354729974562986 $142 $305 forward 7 unknown #
edge $-1 $150 -6.7354729974562986 $306 6.7354729974562986 $143 $307 forward 7 unknown #
vertex $-1 $144 $308 #
straight-curve $-1 -57.979064302499467 34.881572503460582 0 0 0 -1 I I #
edge $-1 $232 -34.881572503460582 $226 34.881572503460582 $221 $309 forward 7 unknown #
coedge $-1 $310 $146 $149 $235 reversed $231 $-1 #
coedge $-1 $146 $310 $301 $311 reversed $231 $-1 #
loop $-1 $-1 $146 $218 #
vertex $-1 $147 $312 #
straight-curve $-1 -57.979064302499467 -34.881572503460582 0 0 0 1 I I #
coedge $-1 $149 $148 $313 $314 forward $83 $-1 #
edge $-1 $315 -6.7354729974562986 $151 6.7354729974562986 $229 $316 forward 7 unknown #
point $-1 -57.979064302499467 34.881572503460582 -6.7685419974486134 #
point $-1 -57.979064302499467 -34.881572503460582 -6.7685419974486134 #
loop $-1 $-1 $161 $153 #
plane-surface $-1 0 34.881572503460582 0 0 -1 0 0 0 -1 forward_v I I I I #
coedge $-1 $241 $156 $158 $245 reversed $91 $-1 #
coedge $-1 $156 $240 $317 $318 reversed $91 $-1 #
coedge $-1 $164 $159 $156 $243 forward $154 $-1 #
edge $-1 $246 -2.4974568561374788 $319 10.405776131741103 $242 $320 forward 7 unknown #
coedge $-1 $158 $157 $249 $321 reversed $57 $-1 #
edge $-1 $322 -69.763145006921178 $246 -53.60654676115395 $240 $323 forward 7 unknown #
vertex $-1 $160 $324 #
straight-curve $-1 -15.460494811355224 21.978339515582007 13.99584906558421 1 0 0 I I #
coedge $-1 $317 $161 $164 $253 reversed $238 $-1 #
coedge $-1 $161 $317 $244 $321 forward $238 $-1 #
vertex $-1 $162 $325 #
straight-curve $-1 -44.508118307586862 34.881572503460582 69.432676585505433 0 0 1 I I #
straight-curve $-1 -44.508118307586862 -20.833751991118156 46.257074654171475 0 0.79863550430605224 -0.6018150307709319 I I #
edge $-1 $319 17.333860937834032 $165 44.508118307586862 $248 $326 forward 7 unknown #
point $-1 -44.508118307586862 34.881572503460582 13.995849065584206 #
point $-1 -44.508118307586862 21.978339515582 13.99584906558421 #
edge $-1 $327 1 $327 0 $168 $-1 forward 7 unknown #
vertex $-1 $169 $328 #
ellipse-curve $-1 -30.920989622710447 22.527918700393883 1.3019393377412229 0 0.6018150307709319 0.79863550430605224 3 0 0 1 I I #
point $-1 -27.920989622710447 28.429956009521284 9.1342072303692117 #
plane-surface $-1 0 0 13.995849065584206 0 0 1 1 0 0 forward_v I I I I #
coedge $-1 $271 $270 $263 $329 forward $173 $-1 #
coedge $-1 $263 $175 $177 $267 reversed $106 $-1 #
coedge $-1 $175 $262 $261 $329 reversed $106 $-1 #
coedge $-1 $183 $178 $175 $265 forward $184 $-1 #
edge $-1 $268 -30.355119103426873 $330 -17.45188611554827 $264 $331 forward 7 unknown #
coedge $-1 $177 $176 $271 $332 reversed $66 $-1 #
edge $-1 $333 8.8817612989391469e-015 $268 16.156598245767256 $262 $334 forward 7 unknown #
vertex $-1 $179 $335 #
straight-curve $-1 -15.460494811355224 -21.978339515581983 13.995849065584206 -1 0 0 I I #
coedge $-1 $261 $180 $183 $275 reversed $173 $-1 #
coedge $-1 $180 $261 $266 $332 forward $173 $-1 #
vertex $-1 $181 $336 #
straight-curve $-1 -17.333860937834032 -34.881572503460582 48.440421955996797 0 0 1 I I #
straight-curve $-1 -17.333860937834032 -34.881572503460589 4.2725653951542029 0 -0.79863550430605224 -0.6018150307709319 I I #
edge $-1 $330 -44.508118307586862 $185 -17.333860937834032 $270 $337 forward 7 unknown #
point $-1 -17.333860937834032 -34.881572503460582 13.995849065584206 #
point $-1 -17.333860937834032 -21.978339515581979 13.995849065584206 #
edge $-1 $338 1 $338 0 $188 $-1 forward 7 unknown #
vertex $-1 $189 $339 #
ellipse-curve $-1 -30.920989622710447 -22.527918700393887 1.3019393377412212 0 -0.6018150307709319 0.79863550430605224 3 0 0 1 I I #
point $-1 -27.920989622710447 -28.429956009521284 9.1342072303692099 #
plane-surface $-1 57.979064302499467 0 0 -1 0 0 0 0 1 forward_v I I I I #
coedge $-1 $195 $292 $198 $286 reversed $121 $-1 #
vertex $-1 $286 $340 #
straight-curve $-1 -57.979064302499467 -34.881572503460582 0 0 0 -1 I I #
edge $-1 $284 -34.881572503460582 $288 34.881572503460582 $283 $341 forward 7 unknown #
straight-curve $-1 0 -34.881572503460582 -13.995849065584206 -1 0 0 I I #
vertex $-1 $201 $342 #
straight-curve $-1 0 34.881572503460582 -13.995849065584206 1 0 0 I I #
point $-1 57.979064302499467 34.881572503460582 -13.995849065584206 #
point $-1 57.979064302499467 -34.881572503460582 -13.995849065584206 #
coedge $-1 $283 $205 $208 $294 forward $121 $-1 #
straight-curve $-1 -57.979064302499467 0 13.995849065584206 0 -1 0 I I #
edge $-1 $209 -13.995849065584206 $288 13.995849065584206 $208 $343 forward 7 unknown #
point $-1 -57.979064302499467 34.881572503460582 13.995849065584206 #
point $-1 -57.979064302499467 -34.881572503460582 13.995849065584206 #
straight-curve $-1 57.979064302499467 -34.881572503460582 0 0 0 -1 I I #
straight-curve $-1 57.979064302499467 34.881572503460582 0 0 0 -1 I I #
plane-surface $-1 0 -34.881572503460582 0 0 1 0 0 0 1 forward_v I I I I #
coedge $-1 $344 $313 $222 $302 forward $219 $-1 #
coedge $-1 $303 $221 $230 $311 forward $140 $-1 #
edge $-1 $306 -2.8452574047235348 $304 2.8452574047235348 $222 $345 forward 7 unknown #
coedge $-1 $223 $301 $344 $346 forward $140 $-1 #
vertex $-1 $224 $347 #
straight-curve $-1 -64.714537299955765 34.881572503460582 -12.459056806895683 1 0 0 I I #
vertex $-1 $225 $348 #
straight-curve $-1 -64.714537299955765 34.881572503460582 -6.7685419974486134 -1 0 0 I I #
point $-1 -57.979064302499467 34.881572503460582 -12.459056806895683 #
straight-curve $-1 -57.979064302499467 0 -12.459056806895683 0 1 0 I I #
coedge $-1 $230 $229 $349 $350 forward $231 $-1 #
edge $-1 $232 -6.7354729974562986 $351 6.7354729974562986 $230 $352 forward 7 unknown #
point $-1 -57.979064302499467 -34.881572503460582 -12.459056806895683 #
coedge $-1 $300 $349 $234 $314 reversed $219 $-1 #
edge $-1 $306 -34.881572503460582 $315 34.881572503460582 $313 $353 forward 7 unknown #
vertex $-1 $314 $354 #
straight-curve $-1 -64.714537299955765 -34.881572503460582 -6.7685419974486134 1 0 0 I I #
coedge $-1 $249 $248 $241 $318 forward $238 $-1 #
edge $-1 $319 55.436827519921223 $322 65.160111190351202 $317 $355 forward 7 unknown #
vertex $-1 $253 $356 #
straight-curve $-1 -17.333860937834032 24.475796371719479 13.99584906558421 0 1 0 I I #
edge $-1 $322 1.8733661264788086 $250 29.047623496231637 $249 $357 forward 7 unknown #
vertex $-1 $321 $358 #
straight-curve $-1 -17.333860937834032 -20.833751991118156 46.257074654171475 0 -0.79863550430605224 0.6018150307709319 I I #
point $-1 -17.333860937834032 21.978339515582 13.99584906558421 #
point $-1 -44.508118307586862 34.881572503460575 4.2725653951542313 #
straight-curve $-1 0 34.881572503460582 13.995849065584206 -1 0 0 I I #
vertex $-1 $256 $359 #
point $-1 -27.920989622710447 22.527918700393883 1.3019393377412229 #
edge $-1 $330 34.444572890412587 $333 44.167856560842587 $261 $360 forward 7 unknown #
vertex $-1 $275 $361 #
straight-curve $-1 -44.508118307586862 -52.333458619008852 13.995849065584203 0 -1 0 I I #
edge $-1 $333 -29.047623496231637 $272 -1.8733661264788086 $271 $362 forward 7 unknown #
vertex $-1 $332 $363 #
straight-curve $-1 -44.508118307586862 -34.881572503460589 4.2725653951542029 0 0.79863550430605224 0.6018150307709319 I I #
point $-1 -44.508118307586862 -21.978339515581979 13.995849065584206 #
point $-1 -17.333860937834032 -34.881572503460582 4.2725653951542082 #
straight-curve $-1 0 -34.881572503460582 13.995849065584206 1 0 0 I I #
vertex $-1 $278 $364 #
point $-1 -27.920989622710447 -22.527918700393887 1.3019393377412212 #
point $-1 -57.979064302499467 -34.881572503460582 -13.995849065584206 #
straight-curve $-1 -57.979064302499467 0 -13.995849065584206 0 1 0 I I #
point $-1 -57.979064302499467 34.881572503460582 -13.995849065584206 #
straight-curve $-1 -57.979064302499467 34.881572503460582 0 0 0 -1 I I #
coedge $-1 $349 $300 $303 $346 reversed $219 $-1 #
straight-curve $-1 -71.450010297412064 34.881572503460582 -9.6137994021721482 0 0 -1 I I #
edge $-1 $351 -34.881572503460582 $304 34.881572503460582 $344 $365 forward 7 unknown #
point $-1 -71.450010297412064 34.881572503460582 -12.459056806895683 #
point $-1 -71.450010297412064 34.881572503460582 -6.7685419974486134 #
coedge $-1 $313 $344 $310 $350 reversed $219 $-1 #
edge $-1 $315 -2.8452574047235348 $351 2.8452574047235348 $349 $366 forward 7 unknown #
vertex $-1 $346 $367 #
straight-curve $-1 -64.714537299955765 -34.881572503460582 -12.459056806895683 -1 0 0 I I #
straight-curve $-1 -71.450010297412064 0 -6.7685419974486134 0 -1 0 I I #
point $-1 -71.450010297412064 -34.881572503460582 -6.7685419974486134 #
straight-curve $-1 -17.333860937834032 34.881572503460582 69.432676585505433 0 0 -1 I I #
point $-1 -17.333860937834032 34.881572503460582 13.995849065584206 #
straight-curve $-1 -15.460494811355224 34.881572503460582 4.2725653951542313 -1 0 0 I I #
point $-1 -17.333860937834032 34.881572503460575 4.2725653951542313 #
point $-1 -30.920989622710447 20.722473608081089 -1.093967175176934 #
straight-curve $-1 -44.508118307586862 -34.881572503460582 48.440421955996797 0 0 -1 I I #
point $-1 -44.508118307586862 -34.881572503460582 13.995849065584206 #
straight-curve $-1 -15.460494811355224 -34.881572503460582 4.2725653951542117 1 0 0 I I #
point $-1 -44.508118307586862 -34.881572503460582 4.2725653951542082 #
point $-1 -30.920989622710447 -20.722473608081092 -1.0939671751769358 #
straight-curve $-1 -71.450010297412064 0 -12.459056806895683 0 1 0 I I #
straight-curve $-1 -71.450010297412064 -34.881572503460582 -9.6137994021721482 0 0 -1 I I #
point $-1 -71.450010297412064 -34.881572503460582 -12.459056806895683 #
End-of-ACIS-data 