500 0 10 0           
7 Unknown 11 ACIS 5.0 NT 24 Fri Mar 26 20:23:13 1999 
-1 9.9999999999999995e-007 1e-010 
body $-1 $10 $-1 $11 #
body $-1 $12 $-1 $13 #
body $-1 $14 $-1 $15 #
body $-1 $16 $-1 $17 #
body $-1 $18 $-1 $19 #
body $-1 $20 $-1 $21 #
body $-1 $22 $-1 $23 #
body $-1 $24 $-1 $25 #
body $-1 $26 $-1 $27 #
body $-1 $28 $-1 $29 #
lump $-1 $-1 $30 $0 #
transform $-1 1 0 0 0 1 0 0 0 1 77.468184453871274 46.419441120767829 18.628267495270748 1 rotate no_reflect no_shear #
lump $-1 $-1 $31 $1 #
transform $-1 1 0 0 0 1 0 0 0 1 77.468184453871274 46.419441120767829 18.628267495270748 1 rotate no_reflect no_shear #
lump $-1 $-1 $32 $2 #
transform $-1 1 0 0 0 1 0 0 0 1 77.468184453871274 46.419441120767829 18.628267495270748 1 rotate no_reflect no_shear #
lump $-1 $-1 $33 $3 #
transform $-1 1 0 0 0 1 0 0 0 1 77.468184453871274 46.419441120767829 18.628267495270748 1 rotate no_reflect no_shear #
lump $-1 $-1 $34 $4 #
transform $-1 1 0 0 0 1 0 0 0 1 77.468184453871274 46.419441120767829 18.628267495270748 1 rotate no_reflect no_shear #
lump $-1 $-1 $35 $5 #
transform $-1 1 0 0 0 1 0 0 0 1 77.468184453871274 46.419441120767829 18.628267495270748 1 rotate no_reflect no_shear #
lump $-1 $-1 $36 $6 #
transform $-1 1 0 0 0 1 0 0 0 1 77.468184453871274 46.419441120767829 18.628267495270748 1 rotate no_reflect no_shear #
lump $-1 $-1 $37 $7 #
transform $-1 1 0 0 0 1 0 0 0 1 77.468184453871274 46.419441120767829 18.628267495270748 1 rotate no_reflect no_shear #
lump $-1 $-1 $38 $8 #
transform $-1 1 0 0 0 1 0 0 0 1 77.468184453871274 46.419441120767829 18.628267495270748 1 rotate no_reflect no_shear #
lump $-1 $-1 $39 $9 #
transform $-1 1 0 0 0 1 0 0 0 1 77.468184453871274 46.419441120767829 18.628267495270748 1 rotate no_reflect no_shear #
shell $-1 $-1 $-1 $40 $-1 $10 #
shell $-1 $-1 $-1 $41 $-1 $12 #
shell $-1 $-1 $-1 $42 $-1 $14 #
shell $-1 $-1 $-1 $43 $-1 $16 #
shell $-1 $-1 $-1 $44 $-1 $18 #
shell $-1 $-1 $-1 $45 $-1 $20 #
shell $-1 $-1 $-1 $46 $-1 $22 #
shell $-1 $-1 $-1 $47 $-1 $24 #
shell $-1 $-1 $-1 $48 $-1 $26 #
shell $-1 $-1 $-1 $49 $-1 $28 #
face $-1 $50 $51 $30 $-1 $52 forward single #
face $-1 $53 $54 $31 $-1 $55 forward single #
face $-1 $56 $57 $32 $-1 $58 reversed single #
face $-1 $59 $60 $33 $-1 $61 forward single #
face $-1 $62 $63 $34 $-1 $64 reversed single #
face $-1 $65 $66 $35 $-1 $67 forward single #
face $-1 $68 $69 $36 $-1 $70 reversed single #
face $-1 $71 $72 $37 $-1 $73 forward single #
face $-1 $74 $75 $38 $-1 $76 reversed single #
face $-1 $77 $78 $39 $-1 $79 forward single #
face $-1 $80 $81 $30 $-1 $82 reversed single #
loop $-1 $-1 $83 $40 #
plane-surface $-1 0 0 18.628267495270748 0 0 1 1 0 0 forward_v I I I I #
face $-1 $84 $85 $31 $-1 $86 reversed single #
loop $-1 $-1 $87 $41 #
plane-surface $-1 0 -37.49383639842064 -4.9546729247242354 0 0 1 1 0 0 forward_v I I I I #
face $-1 $88 $89 $32 $-1 $90 reversed single #
loop $-1 $-1 $91 $42 #
plane-surface $-1 -74.68003536464451 131.41027347599641 163.35387994590894 1 0 0 0 -0.85716730853699208 -0.51503806187062418 forward_v I I I I #
face $-1 $92 $93 $33 $-1 $94 forward single #
loop $-1 $95 $96 $43 #
cone-surface $-1 -62.325660292848539 36.172094147386773 7.7903007994726039 0 -0.85716730853699208 -0.51503806187062418 4 0 0 1 I I 0 1 4 forward I I I I #
face $-1 $97 $98 $34 $-1 $99 reversed single #
loop $-1 $-1 $100 $44 #
plane-surface $-1 -35.945943137708873 131.41027347599641 163.35387994590894 1 0 0 0 -0.85716730853699208 -0.51503806187062418 forward_v I I I I #
face $-1 $101 $102 $35 $-1 $103 forward single #
loop $-1 $104 $105 $45 #
cone-surface $-1 -23.591568065912909 36.172094147386773 7.7903007994726039 0 -0.85716730853699208 -0.51503806187062418 4 0 0 1 I I 0 1 4 forward I I I I #
face $-1 $106 $107 $36 $-1 $108 reversed single #
loop $-1 $-1 $109 $46 #
plane-surface $-1 2.7881490892267689 131.41027347599641 163.35387994590894 1 0 0 0 -0.85716730853699208 -0.51503806187062418 forward_v I I I I #
face $-1 $110 $111 $37 $-1 $112 forward single #
loop $-1 $113 $114 $47 #
cone-surface $-1 15.142524161022735 36.172094147386773 7.7903007994726039 0 -0.85716730853699208 -0.51503806187062418 4 0 0 1 I I 0 1 4 forward I I I I #
face $-1 $115 $116 $38 $-1 $117 reversed single #
loop $-1 $-1 $118 $48 #
plane-surface $-1 41.522241316162415 131.41027347599641 163.35387994590894 1 0 0 0 -0.85716730853699208 -0.51503806187062418 forward_v I I I I #
face $-1 $119 $120 $39 $-1 $121 forward single #
loop $-1 $122 $123 $49 #
cone-surface $-1 53.876616387958379 36.172094147386773 7.7903007994726039 0 -0.85716730853699208 -0.51503806187062418 4 0 0 1 I I 0 1 4 forward I I I I #
face $-1 $124 $125 $30 $-1 $126 reversed single #
loop $-1 $-1 $127 $50 #
plane-surface $-1 0 0 -18.628267495270748 0 0 1 1 0 0 forward_v I I I I #
coedge $-1 $128 $129 $130 $131 forward $51 $-1 #
face $-1 $132 $133 $31 $-1 $134 reversed single #
loop $-1 $-1 $135 $53 #
plane-surface $-1 0 -37.49383639842064 -14.171648833224452 0 0 1 1 0 0 forward_v I I I I #
coedge $-1 $136 $137 $138 $139 reversed $54 $-1 #
face $-1 $140 $141 $32 $-1 $142 reversed single #
loop $-1 $-1 $143 $56 #
plane-surface $-1 -62.325660292848546 -1.396116855147767 83.555752790393186 0 0.85716730853699208 0.51503806187062418 1 0 0 forward_v I I I I #
coedge $-1 $144 $145 $146 $147 reversed $57 $-1 #
face $-1 $-1 $148 $33 $-1 $149 forward single #
loop $-1 $150 $151 $59 #
cone-surface $-1 -62.325660292848539 28.612007713865523 3.2477427416519191 0 -0.85716730853699208 -0.51503806187062418 2 0 0 1 I I -0.70710678118654746 0.70710678118654746 2 forward I I I I #
loop $-1 $-1 $152 $43 #
coedge $-1 $96 $96 $153 $154 reversed $60 $-1 #
face $-1 $155 $156 $34 $-1 $157 reversed single #
loop $-1 $-1 $158 $62 #
plane-surface $-1 -23.591568065912909 -1.396116855147767 83.555752790393186 0 0.85716730853699208 0.51503806187062418 1 0 0 forward_v I I I I #
coedge $-1 $159 $160 $161 $162 reversed $63 $-1 #
face $-1 $-1 $163 $35 $-1 $164 forward single #
loop $-1 $165 $166 $65 #
cone-surface $-1 -23.591568065912909 28.612007713865523 3.2477427416519191 0 -0.85716730853699208 -0.51503806187062418 2 0 0 1 I I -0.70710678118654746 0.70710678118654746 2 forward I I I I #
loop $-1 $-1 $167 $45 #
coedge $-1 $105 $105 $168 $169 reversed $66 $-1 #
face $-1 $170 $171 $36 $-1 $172 reversed single #
loop $-1 $-1 $173 $68 #
plane-surface $-1 15.142524161022735 -1.396116855147767 83.555752790393186 0 0.85716730853699208 0.51503806187062418 1 0 0 forward_v I I I I #
coedge $-1 $174 $175 $176 $177 reversed $69 $-1 #
face $-1 $-1 $178 $37 $-1 $179 forward single #
loop $-1 $180 $181 $71 #
cone-surface $-1 15.142524161022735 28.612007713865523 3.2477427416519191 0 -0.85716730853699208 -0.51503806187062418 2 0 0 1 I I -0.70710678118654746 0.70710678118654746 2 forward I I I I #
loop $-1 $-1 $182 $47 #
coedge $-1 $114 $114 $183 $184 reversed $72 $-1 #
face $-1 $185 $186 $38 $-1 $187 reversed single #
loop $-1 $-1 $188 $74 #
plane-surface $-1 53.876616387958379 -1.396116855147767 83.555752790393186 0 0.85716730853699208 0.51503806187062418 1 0 0 forward_v I I I I #
coedge $-1 $189 $190 $191 $192 reversed $75 $-1 #
face $-1 $-1 $193 $39 $-1 $194 forward single #
loop $-1 $195 $196 $77 #
cone-surface $-1 53.876616387958379 28.612007713865523 3.2477427416519191 0 -0.85716730853699208 -0.51503806187062418 2 0 0 1 I I -0.70710678118654746 0.70710678118654746 2 forward I I I I #
loop $-1 $-1 $197 $49 #
coedge $-1 $123 $123 $198 $199 reversed $78 $-1 #
face $-1 $200 $201 $30 $-1 $202 reversed single #
loop $-1 $-1 $203 $80 #
plane-surface $-1 0 -46.419441120767829 0 0 1 0 0 0 1 forward_v I I I I #
coedge $-1 $204 $205 $206 $207 forward $81 $-1 #
coedge $-1 $208 $83 $209 $210 forward $51 $-1 #
coedge $-1 $83 $208 $211 $212 forward $51 $-1 #
coedge $-1 $213 $214 $83 $131 reversed $215 $-1 #
edge $-1 $216 -46.419441120767829 $217 46.419441120767829 $130 $218 forward 7 unknown #
face $-1 $219 $220 $31 $-1 $221 reversed single #
loop $-1 $-1 $222 $84 #
plane-surface $-1 0 -28.568231676073452 -9.5631608789743439 0 -1 0 0 0 -1 forward_v I I I I #
coedge $-1 $223 $224 $225 $226 reversed $85 $-1 #
coedge $-1 $227 $87 $228 $229 forward $54 $-1 #
coedge $-1 $87 $227 $230 $231 reversed $54 $-1 #
coedge $-1 $232 $233 $87 $139 forward $234 $-1 #
edge $-1 $235 9.8213134768631321 $236 27.672522921557508 $138 $237 forward 7 unknown #
face $-1 $238 $239 $32 $-1 $240 reversed single #
loop $-1 $-1 $241 $88 #
plane-surface $-1 -49.971285221052582 131.41027347599641 163.35387994590894 -1 0 0 0 0.85716730853699208 0.51503806187062418 forward_v I I I I #
coedge $-1 $242 $243 $244 $245 reversed $89 $-1 #
coedge $-1 $145 $91 $246 $247 reversed $57 $-1 #
coedge $-1 $91 $144 $242 $248 reversed $57 $-1 #
coedge $-1 $244 $249 $91 $147 forward $250 $-1 #
edge $-1 $251 19.285695617230374 $252 28.08888593109792 $146 $253 forward 7 unknown #
loop $-1 $-1 $153 $92 #
plane-surface $-1 -62.325660292848546 -1.396116855147767 83.555752790393186 0 0.85716730853699208 0.51503806187062418 1 0 0 forward_v I I I I #
loop $-1 $-1 $254 $59 #
coedge $-1 $151 $151 $152 $255 reversed $93 $-1 #
coedge $-1 $152 $152 $151 $255 forward $95 $-1 #
coedge $-1 $153 $153 $96 $154 forward $148 $-1 #
edge $-1 $256 -8.0062881963514372e-017 $256 6.2831853071796004 $153 $257 forward 7 unknown #
face $-1 $258 $259 $34 $-1 $260 forward single #
loop $-1 $-1 $261 $97 #
plane-surface $-1 -11.237192994116944 131.41027347599641 163.35387994590894 -1 0 0 0 0.85716730853699208 0.51503806187062418 forward_v I I I I #
coedge $-1 $262 $263 $264 $265 reversed $98 $-1 #
coedge $-1 $160 $100 $266 $267 reversed $63 $-1 #
coedge $-1 $100 $159 $262 $268 reversed $63 $-1 #
coedge $-1 $264 $269 $100 $162 forward $259 $-1 #
edge $-1 $270 19.285695617230374 $271 28.08888593109792 $161 $272 forward 7 unknown #
loop $-1 $-1 $168 $101 #
plane-surface $-1 -23.591568065912909 -1.396116855147767 83.555752790393186 0 0.85716730853699208 0.51503806187062418 1 0 0 forward_v I I I I #
loop $-1 $-1 $273 $65 #
coedge $-1 $166 $166 $167 $274 reversed $102 $-1 #
coedge $-1 $167 $167 $166 $274 forward $104 $-1 #
coedge $-1 $168 $168 $105 $169 forward $163 $-1 #
edge $-1 $275 -8.0062881963514372e-017 $275 6.2831853071796004 $168 $276 forward 7 unknown #
face $-1 $277 $278 $36 $-1 $279 forward single #
loop $-1 $-1 $280 $106 #
plane-surface $-1 27.496899232818699 131.41027347599641 163.35387994590894 -1 0 0 0 0.85716730853699208 0.51503806187062418 forward_v I I I I #
coedge $-1 $281 $282 $283 $284 reversed $107 $-1 #
coedge $-1 $175 $109 $285 $286 reversed $69 $-1 #
coedge $-1 $109 $174 $281 $287 reversed $69 $-1 #
coedge $-1 $283 $288 $109 $177 forward $278 $-1 #
edge $-1 $289 19.285695617230374 $290 28.08888593109792 $176 $291 forward 7 unknown #
loop $-1 $-1 $183 $110 #
plane-surface $-1 15.142524161022735 -1.396116855147767 83.555752790393186 0 0.85716730853699208 0.51503806187062418 1 0 0 forward_v I I I I #
loop $-1 $-1 $292 $71 #
coedge $-1 $181 $181 $182 $293 reversed $111 $-1 #
coedge $-1 $182 $182 $181 $293 forward $113 $-1 #
coedge $-1 $183 $183 $114 $184 forward $178 $-1 #
edge $-1 $294 -8.0062881963514372e-017 $294 6.2831853071796004 $183 $295 forward 7 unknown #
face $-1 $296 $297 $38 $-1 $298 forward single #
loop $-1 $-1 $299 $115 #
plane-surface $-1 66.23099145975435 131.41027347599641 163.35387994590894 -1 0 0 0 0.85716730853699208 0.51503806187062418 forward_v I I I I #
coedge $-1 $300 $301 $302 $303 reversed $116 $-1 #
coedge $-1 $190 $118 $304 $305 reversed $75 $-1 #
coedge $-1 $118 $189 $300 $306 reversed $75 $-1 #
coedge $-1 $302 $307 $118 $192 forward $297 $-1 #
edge $-1 $308 19.285695617230374 $309 28.08888593109792 $191 $310 forward 7 unknown #
loop $-1 $-1 $198 $119 #
plane-surface $-1 53.876616387958379 -1.396116855147767 83.555752790393186 0 0.85716730853699208 0.51503806187062418 1 0 0 forward_v I I I I #
loop $-1 $-1 $311 $77 #
coedge $-1 $196 $196 $197 $312 reversed $120 $-1 #
coedge $-1 $197 $197 $196 $312 forward $122 $-1 #
coedge $-1 $198 $198 $123 $199 forward $193 $-1 #
edge $-1 $313 -8.0062881963514372e-017 $313 6.2831853071796004 $198 $314 forward 7 unknown #
face $-1 $315 $316 $30 $-1 $317 reversed single #
loop $-1 $-1 $318 $124 #
plane-surface $-1 -77.468184453871274 0 0 1 0 0 0 0 -1 forward_v I I I I #
coedge $-1 $319 $211 $320 $321 forward $125 $-1 #
coedge $-1 $322 $127 $319 $323 forward $81 $-1 #
coedge $-1 $127 $322 $324 $325 forward $81 $-1 #
coedge $-1 $214 $213 $127 $207 reversed $215 $-1 #
edge $-1 $326 -46.419441120767829 $327 46.419441120767829 $206 $328 forward 7 unknown #
coedge $-1 $129 $128 $329 $330 forward $51 $-1 #
coedge $-1 $331 $332 $128 $210 reversed $316 $-1 #
edge $-1 $217 -77.468184453871274 $333 77.468184453871274 $209 $334 forward 7 unknown #
coedge $-1 $203 $335 $129 $212 reversed $125 $-1 #
edge $-1 $336 -77.468184453871274 $216 77.468184453871274 $211 $337 forward 7 unknown #
coedge $-1 $206 $130 $335 $338 forward $215 $-1 #
coedge $-1 $130 $206 $331 $339 reversed $215 $-1 #
loop $-1 $-1 $213 $315 #
vertex $-1 $131 $340 #
vertex $-1 $131 $341 #
straight-curve $-1 77.468184453871274 0 18.628267495270748 0 1 0 I I #
face $-1 $342 $343 $31 $-1 $344 reversed single #
loop $-1 $-1 $345 $132 #
plane-surface $-1 -77.468184453871274 0 0 1 0 0 0 0 -1 forward_v I I I I #
coedge $-1 $346 $228 $233 $347 reversed $133 $-1 #
coedge $-1 $348 $135 $349 $350 reversed $85 $-1 #
coedge $-1 $135 $348 $346 $351 forward $85 $-1 #
coedge $-1 $233 $232 $135 $226 forward $234 $-1 #
edge $-1 $352 -27.672522921557508 $353 -9.8213134768631321 $225 $354 forward 7 unknown #
coedge $-1 $137 $136 $345 $355 reversed $54 $-1 #
coedge $-1 $222 $356 $136 $229 reversed $133 $-1 #
edge $-1 $235 -77.468184453871274 $357 77.468184453871274 $228 $358 forward 7 unknown #
coedge $-1 $359 $360 $137 $231 forward $343 $-1 #
edge $-1 $236 -77.468184453871274 $361 77.468184453871274 $230 $362 forward 7 unknown #
coedge $-1 $225 $138 $360 $363 forward $234 $-1 #
coedge $-1 $138 $225 $222 $347 forward $234 $-1 #
loop $-1 $-1 $138 $342 #
vertex $-1 $139 $364 #
vertex $-1 $363 $365 #
straight-curve $-1 77.468184453871274 -18.74691819921032 -4.9546729247242354 0 -1 0 I I #
face $-1 $-1 $250 $32 $-1 $366 forward single #
loop $-1 $-1 $367 $140 #
plane-surface $-1 0 46.419441120767829 0 0 -1 0 0 0 -1 forward_v I I I I #
coedge $-1 $368 $369 $370 $371 reversed $141 $-1 #
coedge $-1 $372 $143 $145 $248 forward $89 $-1 #
coedge $-1 $143 $372 $368 $373 forward $89 $-1 #
coedge $-1 $370 $146 $143 $245 forward $250 $-1 #
edge $-1 $252 -43.517205218220241 $374 -18.808455074628309 $244 $375 forward 7 unknown #
coedge $-1 $376 $377 $144 $247 forward $239 $-1 #
edge $-1 $378 -77.699642001121077 $251 -63.048672477683724 $246 $379 forward 7 unknown #
edge $-1 $252 75.746572050140699 $378 92.838882241535586 $145 $380 forward 7 unknown #
coedge $-1 $146 $370 $376 $381 forward $250 $-1 #
loop $-1 $-1 $370 $238 #
vertex $-1 $247 $382 #
vertex $-1 $147 $383 #
straight-curve $-1 -74.68003536464451 65.705136737998203 18.628267495270748 0 -1 0 I I #
coedge $-1 $254 $254 $-1 $384 reversed $150 $-1 #
edge $-1 $385 0 $385 6.2831853071796004 $151 $386 forward 7 unknown #
vertex $-1 $154 $387 #
ellipse-curve $-1 -62.325660292848539 42.017845963834056 11.302782733552053 0 0.85716730853699208 0.51503806187062418 4 0 0 1 I I #
face $-1 $-1 $388 $34 $-1 $389 reversed single #
loop $-1 $-1 $161 $155 #
plane-surface $-1 0 0 18.628267495270748 0 0 1 1 0 0 forward_v I I I I #
coedge $-1 $390 $391 $392 $393 reversed $156 $-1 #
coedge $-1 $394 $158 $160 $268 forward $98 $-1 #
coedge $-1 $158 $394 $390 $395 forward $98 $-1 #
coedge $-1 $392 $161 $158 $265 forward $259 $-1 #
edge $-1 $271 -24.150159104752419 $396 0.558591038839511 $264 $397 forward 7 unknown #
coedge $-1 $398 $399 $159 $267 forward $388 $-1 #
edge $-1 $400 -77.699642001121077 $270 -63.048672477683724 $266 $401 forward 7 unknown #
edge $-1 $271 75.746572050140699 $400 92.838882241535586 $160 $402 forward 7 unknown #
coedge $-1 $161 $392 $398 $403 forward $259 $-1 #
vertex $-1 $162 $404 #
vertex $-1 $162 $405 #
straight-curve $-1 -35.945943137708873 65.705136737998203 18.628267495270748 0 -1 0 I I #
coedge $-1 $273 $273 $-1 $406 reversed $165 $-1 #
edge $-1 $407 0 $407 6.2831853071796004 $166 $408 forward 7 unknown #
vertex $-1 $169 $409 #
ellipse-curve $-1 -23.591568065912909 42.017845963834056 11.302782733552053 0 0.85716730853699208 0.51503806187062418 4 0 0 1 I I #
face $-1 $-1 $410 $36 $-1 $411 reversed single #
loop $-1 $-1 $176 $170 #
plane-surface $-1 0 0 18.628267495270748 0 0 1 1 0 0 forward_v I I I I #
coedge $-1 $412 $413 $414 $415 reversed $171 $-1 #
coedge $-1 $416 $173 $175 $287 forward $107 $-1 #
coedge $-1 $173 $416 $412 $417 forward $107 $-1 #
coedge $-1 $414 $176 $173 $284 forward $278 $-1 #
edge $-1 $290 -4.7831129912845984 $418 19.925637152307331 $283 $419 forward 7 unknown #
coedge $-1 $420 $421 $174 $286 forward $410 $-1 #
edge $-1 $422 -77.699642001121077 $289 -63.048672477683724 $285 $423 forward 7 unknown #
edge $-1 $290 75.746572050140699 $422 92.838882241535586 $175 $424 forward 7 unknown #
coedge $-1 $176 $414 $420 $425 forward $278 $-1 #
vertex $-1 $177 $426 #
vertex $-1 $177 $427 #
straight-curve $-1 2.7881490892267689 65.705136737998203 18.628267495270748 0 -1 0 I I #
coedge $-1 $292 $292 $-1 $428 reversed $180 $-1 #
edge $-1 $429 0 $429 6.2831853071796004 $181 $430 forward 7 unknown #
vertex $-1 $184 $431 #
ellipse-curve $-1 15.142524161022735 42.017845963834056 11.302782733552053 0 0.85716730853699208 0.51503806187062418 4 0 0 1 I I #
face $-1 $-1 $432 $38 $-1 $433 reversed single #
loop $-1 $-1 $191 $185 #
plane-surface $-1 0 0 18.628267495270748 0 0 1 1 0 0 forward_v I I I I #
coedge $-1 $434 $435 $436 $437 reversed $186 $-1 #
coedge $-1 $438 $188 $190 $306 forward $116 $-1 #
coedge $-1 $188 $438 $434 $439 forward $116 $-1 #
coedge $-1 $436 $191 $188 $303 forward $297 $-1 #
edge $-1 $309 14.583933122183225 $440 39.29268326577516 $302 $441 forward 7 unknown #
coedge $-1 $442 $443 $189 $305 forward $432 $-1 #
edge $-1 $444 -77.699642001121077 $308 -63.048672477683724 $304 $445 forward 7 unknown #
edge $-1 $309 75.746572050140699 $444 92.838882241535586 $190 $446 forward 7 unknown #
coedge $-1 $191 $436 $442 $447 forward $297 $-1 #
vertex $-1 $192 $448 #
vertex $-1 $192 $449 #
straight-curve $-1 41.522241316162415 65.705136737998203 18.628267495270748 0 -1 0 I I #
coedge $-1 $311 $311 $-1 $450 reversed $195 $-1 #
edge $-1 $451 0 $451 6.2831853071796004 $196 $452 forward 7 unknown #
vertex $-1 $199 $453 #
ellipse-curve $-1 53.876616387958379 42.017845963834056 11.302782733552053 0 0.85716730853699208 0.51503806187062418 4 0 0 1 I I #
face $-1 $-1 $215 $30 $-1 $454 reversed single #
loop $-1 $-1 $331 $200 #
plane-surface $-1 0 46.419441120767829 0 0 -1 0 0 0 -1 forward_v I I I I #
coedge $-1 $455 $329 $332 $456 forward $201 $-1 #
coedge $-1 $335 $203 $204 $323 reversed $125 $-1 #
coedge $-1 $329 $455 $203 $321 reversed $201 $-1 #
edge $-1 $336 -18.628267495270748 $457 18.628267495270748 $320 $458 forward 7 unknown #
coedge $-1 $205 $204 $455 $459 forward $81 $-1 #
edge $-1 $327 -77.468184453871274 $457 77.468184453871274 $319 $460 forward 7 unknown #
coedge $-1 $332 $331 $205 $325 reversed $316 $-1 #
edge $-1 $461 -77.468184453871274 $326 77.468184453871274 $324 $462 forward 7 unknown #
vertex $-1 $207 $463 #
vertex $-1 $338 $464 #
straight-curve $-1 77.468184453871274 0 -18.628267495270748 0 -1 0 I I #
coedge $-1 $318 $320 $208 $330 reversed $201 $-1 #
edge $-1 $333 -46.419441120767829 $336 46.419441120767829 $329 $465 forward 7 unknown #
coedge $-1 $324 $209 $214 $339 forward $316 $-1 #
coedge $-1 $209 $324 $318 $456 reversed $316 $-1 #
vertex $-1 $210 $466 #
straight-curve $-1 0 46.419441120767829 18.628267495270748 -1 0 0 I I #
coedge $-1 $211 $319 $213 $338 reversed $125 $-1 #
vertex $-1 $330 $467 #
straight-curve $-1 0 -46.419441120767829 18.628267495270748 1 0 0 I I #
edge $-1 $216 -18.628267495270748 $327 18.628267495270748 $213 $468 forward 7 unknown #
edge $-1 $217 -18.628267495270748 $326 18.628267495270748 $214 $469 forward 7 unknown #
point $-1 77.468184453871274 -46.419441120767829 18.628267495270748 #
point $-1 77.468184453871274 46.419441120767829 18.628267495270748 #
face $-1 $-1 $234 $31 $-1 $470 reversed single #
loop $-1 $-1 $230 $219 #
plane-surface $-1 0 -46.419441120767829 0 0 1 0 0 0 1 forward_v I I I I #
coedge $-1 $471 $472 $227 $355 forward $220 $-1 #
coedge $-1 $356 $222 $224 $351 reversed $133 $-1 #
edge $-1 $353 -9.3900683937372804 $235 -0.17309248523706344 $233 $473 forward 7 unknown #
coedge $-1 $224 $223 $474 $475 reversed $85 $-1 #
coedge $-1 $360 $359 $223 $350 forward $343 $-1 #
edge $-1 $476 -77.468184453871274 $352 77.468184453871274 $349 $477 forward 7 unknown #
edge $-1 $478 -77.468184453871274 $353 77.468184453871274 $346 $479 forward 7 unknown #
vertex $-1 $350 $480 #
vertex $-1 $226 $481 #
straight-curve $-1 77.468184453871274 -18.74691819921032 -14.171648833224452 0 1 0 I I #
edge $-1 $361 -27.672522921557508 $357 -9.8213134768631321 $345 $482 forward 7 unknown #
coedge $-1 $228 $346 $471 $483 reversed $133 $-1 #
vertex $-1 $355 $484 #
straight-curve $-1 0 -28.568231676073452 -4.9546729247242354 -1 0 0 I I #
coedge $-1 $349 $230 $472 $485 forward $343 $-1 #
coedge $-1 $230 $349 $232 $363 reversed $343 $-1 #
vertex $-1 $485 $486 #
straight-curve $-1 0 -46.419441120767829 -4.9546729247242354 -1 0 0 I I #
edge $-1 $236 4.9546729247242354 $352 14.171648833224452 $232 $487 forward 7 unknown #
point $-1 77.468184453871274 -28.568231676073452 -4.9546729247242354 #
point $-1 77.468184453871274 -46.419441120767829 -4.9546729247242354 #
plane-surface $-1 0 0 18.628267495270748 0 0 1 1 0 0 forward_v I I I I #
coedge $-1 $377 $376 $369 $488 forward $239 $-1 #
coedge $-1 $369 $241 $243 $373 reversed $141 $-1 #
coedge $-1 $241 $368 $367 $488 reversed $141 $-1 #
coedge $-1 $249 $244 $241 $371 forward $250 $-1 #
edge $-1 $374 -28.08888593109792 $489 -19.285695617230374 $370 $490 forward 7 unknown #
coedge $-1 $243 $242 $377 $491 reversed $89 $-1 #
edge $-1 $492 -92.838882241535586 $374 -75.746572050140699 $368 $493 forward 7 unknown #
vertex $-1 $245 $494 #
straight-curve $-1 -31.162830146424273 37.616250806900283 18.628267495270748 1 0 0 I I #
coedge $-1 $367 $246 $249 $381 reversed $239 $-1 #
coedge $-1 $246 $367 $372 $491 forward $239 $-1 #
vertex $-1 $247 $495 #
straight-curve $-1 -74.68003536464451 46.419441120767829 81.676939972954472 0 0 1 I I #
straight-curve $-1 -74.68003536464451 -1.396116855147767 83.555752790393186 0 0.51503806187062418 -0.85716730853699208 I I #
edge $-1 $489 49.971285221052582 $251 74.68003536464451 $376 $496 forward 7 unknown #
point $-1 -74.68003536464451 46.419441120767829 18.628267495270748 #
point $-1 -74.68003536464451 37.616250806900283 18.628267495270748 #
edge $-1 $497 1 $497 0 $254 $-1 forward 7 unknown #
vertex $-1 $255 $498 #
ellipse-curve $-1 -62.325660292848539 30.326342330939507 4.2778188653931677 0 0.85716730853699208 0.51503806187062418 4 0 0 1 I I #
point $-1 -58.325660292848539 42.017845963834034 11.302782733552041 #
loop $-1 $-1 $266 $258 #
plane-surface $-1 0 46.419441120767829 0 0 -1 0 0 0 -1 forward_v I I I I #
coedge $-1 $391 $261 $263 $395 reversed $156 $-1 #
coedge $-1 $261 $390 $499 $500 reversed $156 $-1 #
coedge $-1 $269 $264 $261 $393 forward $259 $-1 #
edge $-1 $396 -28.08888593109792 $501 -19.285695617230374 $392 $502 forward 7 unknown #
coedge $-1 $263 $262 $399 $503 reversed $98 $-1 #
edge $-1 $504 -92.838882241535586 $396 -75.746572050140699 $390 $505 forward 7 unknown #
vertex $-1 $265 $506 #
straight-curve $-1 -11.795784032956455 37.616250806900283 18.628267495270748 1 0 0 I I #
coedge $-1 $499 $266 $269 $403 reversed $388 $-1 #
coedge $-1 $266 $499 $394 $503 forward $388 $-1 #
vertex $-1 $267 $507 #
straight-curve $-1 -35.945943137708873 46.419441120767829 81.676939972954472 0 0 1 I I #
straight-curve $-1 -35.945943137708873 -1.396116855147767 83.555752790393186 0 0.51503806187062418 -0.85716730853699208 I I #
edge $-1 $501 11.237192994116944 $270 35.945943137708873 $398 $508 forward 7 unknown #
point $-1 -35.945943137708873 46.419441120767829 18.628267495270748 #
point $-1 -35.945943137708873 37.616250806900283 18.628267495270748 #
edge $-1 $509 1 $509 0 $273 $-1 forward 7 unknown #
vertex $-1 $274 $510 #
ellipse-curve $-1 -23.591568065912909 30.326342330939507 4.2778188653931677 0 0.85716730853699208 0.51503806187062418 4 0 0 1 I I #
point $-1 -19.591568065912909 42.017845963834034 11.302782733552041 #
loop $-1 $-1 $285 $277 #
plane-surface $-1 0 46.419441120767829 0 0 -1 0 0 0 -1 forward_v I I I I #
coedge $-1 $413 $280 $282 $417 reversed $171 $-1 #
coedge $-1 $280 $412 $511 $512 reversed $171 $-1 #
coedge $-1 $288 $283 $280 $415 forward $278 $-1 #
edge $-1 $418 -28.08888593109792 $513 -19.285695617230374 $414 $514 forward 7 unknown #
coedge $-1 $282 $281 $421 $515 reversed $107 $-1 #
edge $-1 $516 -92.838882241535586 $418 -75.746572050140699 $412 $517 forward 7 unknown #
vertex $-1 $284 $518 #
straight-curve $-1 7.5712620805113673 37.616250806900283 18.628267495270748 1 0 0 I I #
coedge $-1 $511 $285 $288 $425 reversed $410 $-1 #
coedge $-1 $285 $511 $416 $515 forward $410 $-1 #
vertex $-1 $286 $519 #
straight-curve $-1 2.7881490892267689 46.419441120767829 81.676939972954472 0 0 1 I I #
straight-curve $-1 2.7881490892267689 -1.396116855147767 83.555752790393186 0 0.51503806187062418 -0.85716730853699208 I I #
edge $-1 $513 -27.496899232818699 $289 -2.7881490892267689 $420 $520 forward 7 unknown #
point $-1 2.7881490892267689 46.419441120767829 18.628267495270748 #
point $-1 2.7881490892267689 37.616250806900283 18.628267495270748 #
edge $-1 $521 1 $521 0 $292 $-1 forward 7 unknown #
vertex $-1 $293 $522 #
ellipse-curve $-1 15.142524161022735 30.326342330939507 4.2778188653931677 0 0.85716730853699208 0.51503806187062418 4 0 0 1 I I #
point $-1 19.142524161022735 42.017845963834034 11.302782733552041 #
loop $-1 $-1 $304 $296 #
plane-surface $-1 0 46.419441120767829 0 0 -1 0 0 0 -1 forward_v I I I I #
coedge $-1 $435 $299 $301 $439 reversed $186 $-1 #
coedge $-1 $299 $434 $523 $524 reversed $186 $-1 #
coedge $-1 $307 $302 $299 $437 forward $297 $-1 #
edge $-1 $440 -28.08888593109792 $525 -19.285695617230374 $436 $526 forward 7 unknown #
coedge $-1 $301 $300 $443 $527 reversed $116 $-1 #
edge $-1 $528 -92.838882241535586 $440 -75.746572050140699 $434 $529 forward 7 unknown #
vertex $-1 $303 $530 #
straight-curve $-1 26.938308193979189 37.616250806900283 18.628267495270748 1 0 0 I I #
coedge $-1 $523 $304 $307 $447 reversed $432 $-1 #
coedge $-1 $304 $523 $438 $527 forward $432 $-1 #
vertex $-1 $305 $531 #
straight-curve $-1 41.522241316162415 46.419441120767829 81.676939972954472 0 0 1 I I #
straight-curve $-1 41.522241316162415 -1.396116855147767 83.555752790393186 0 0.51503806187062418 -0.85716730853699208 I I #
edge $-1 $525 -66.23099145975435 $308 -41.522241316162415 $442 $532 forward 7 unknown #
point $-1 41.522241316162415 46.419441120767829 18.628267495270748 #
point $-1 41.522241316162415 37.616250806900283 18.628267495270748 #
edge $-1 $533 1 $533 0 $311 $-1 forward 7 unknown #
vertex $-1 $312 $534 #
ellipse-curve $-1 53.876616387958379 30.326342330939507 4.2778188653931677 0 0.85716730853699208 0.51503806187062418 4 0 0 1 I I #
point $-1 57.876616387958379 42.017845963834034 11.302782733552041 #
plane-surface $-1 77.468184453871274 0 0 -1 0 0 0 0 1 forward_v I I I I #
coedge $-1 $320 $318 $322 $459 reversed $201 $-1 #
edge $-1 $333 -18.628267495270748 $461 18.628267495270748 $332 $535 forward 7 unknown #
vertex $-1 $459 $536 #
straight-curve $-1 -77.468184453871274 -46.419441120767829 0 0 0 -1 I I #
edge $-1 $457 -46.419441120767829 $461 46.419441120767829 $455 $537 forward 7 unknown #
straight-curve $-1 0 -46.419441120767829 -18.628267495270748 -1 0 0 I I #
vertex $-1 $325 $538 #
straight-curve $-1 0 46.419441120767829 -18.628267495270748 1 0 0 I I #
point $-1 77.468184453871274 46.419441120767829 -18.628267495270748 #
point $-1 77.468184453871274 -46.419441120767829 -18.628267495270748 #
straight-curve $-1 -77.468184453871274 0 18.628267495270748 0 -1 0 I I #
point $-1 -77.468184453871274 46.419441120767829 18.628267495270748 #
point $-1 -77.468184453871274 -46.419441120767829 18.628267495270748 #
straight-curve $-1 77.468184453871274 -46.419441120767829 0 0 0 -1 I I #
straight-curve $-1 77.468184453871274 46.419441120767829 0 0 0 -1 I I #
plane-surface $-1 77.468184453871274 0 0 -1 0 0 0 0 1 forward_v I I I I #
coedge $-1 $474 $345 $356 $483 forward $220 $-1 #
coedge $-1 $345 $474 $359 $485 reversed $220 $-1 #
straight-curve $-1 77.468184453871274 -28.568231676073452 -4.7815804394871719 0 0 1 I I #
coedge $-1 $472 $471 $348 $475 forward $220 $-1 #
edge $-1 $478 9.8213134768631321 $476 27.672522921557508 $474 $539 forward 7 unknown #
vertex $-1 $350 $540 #
straight-curve $-1 0 -46.419441120767829 -14.171648833224452 1 0 0 I I #
vertex $-1 $475 $541 #
straight-curve $-1 0 -28.568231676073452 -14.171648833224452 1 0 0 I I #
point $-1 77.468184453871274 -46.419441120767829 -14.171648833224452 #
point $-1 77.468184453871274 -28.568231676073452 -14.171648833224452 #
straight-curve $-1 -77.468184453871274 -18.74691819921032 -4.9546729247242354 0 1 0 I I #
edge $-1 $357 0.17309248523706344 $478 9.3900683937372804 $471 $542 forward 7 unknown #
point $-1 -77.468184453871274 -28.568231676073452 -4.9546729247242354 #
edge $-1 $361 4.9546729247242354 $476 14.171648833224452 $472 $543 forward 7 unknown #
point $-1 -77.468184453871274 -46.419441120767829 -4.9546729247242354 #
straight-curve $-1 77.468184453871274 -46.419441120767829 0 0 0 -1 I I #
edge $-1 $489 63.048672477683724 $492 77.699642001121077 $367 $544 forward 7 unknown #
vertex $-1 $381 $545 #
straight-curve $-1 -49.971285221052582 65.705136737998203 18.628267495270748 0 1 0 I I #
edge $-1 $492 18.808455074628309 $378 43.517205218220241 $377 $546 forward 7 unknown #
vertex $-1 $491 $547 #
straight-curve $-1 -49.971285221052582 -1.396116855147767 83.555752790393186 0 -0.51503806187062418 0.85716730853699208 I I #
point $-1 -49.971285221052582 37.616250806900283 18.628267495270748 #
point $-1 -74.68003536464451 46.419441120767829 3.9772979718333943 #
straight-curve $-1 0 46.419441120767829 18.628267495270748 -1 0 0 I I #
vertex $-1 $384 $548 #
point $-1 -58.325660292848539 30.326342330939507 4.2778188653931677 #
coedge $-1 $399 $398 $391 $500 forward $388 $-1 #
edge $-1 $501 63.048672477683724 $504 77.699642001121077 $499 $549 forward 7 unknown #
vertex $-1 $403 $550 #
straight-curve $-1 -11.237192994116944 65.705136737998203 18.628267495270748 0 1 0 I I #
edge $-1 $504 -0.558591038839511 $400 24.150159104752419 $399 $551 forward 7 unknown #
vertex $-1 $503 $552 #
straight-curve $-1 -11.237192994116944 -1.396116855147767 83.555752790393186 0 -0.51503806187062418 0.85716730853699208 I I #
point $-1 -11.237192994116944 37.616250806900283 18.628267495270748 #
point $-1 -35.945943137708873 46.419441120767829 3.9772979718333943 #
straight-curve $-1 0 46.419441120767829 18.628267495270748 -1 0 0 I I #
vertex $-1 $406 $553 #
point $-1 -19.591568065912909 30.326342330939507 4.2778188653931677 #
coedge $-1 $421 $420 $413 $512 forward $410 $-1 #
edge $-1 $513 63.048672477683724 $516 77.699642001121077 $511 $554 forward 7 unknown #
vertex $-1 $425 $555 #
straight-curve $-1 27.496899232818699 65.705136737998203 18.628267495270748 0 1 0 I I #
edge $-1 $516 -19.925637152307331 $422 4.7831129912845984 $421 $556 forward 7 unknown #
vertex $-1 $515 $557 #
straight-curve $-1 27.496899232818699 -1.396116855147767 83.555752790393186 0 -0.51503806187062418 0.85716730853699208 I I #
point $-1 27.496899232818699 37.616250806900283 18.628267495270748 #
point $-1 2.7881490892267689 46.419441120767829 3.9772979718333943 #
straight-curve $-1 0 46.419441120767829 18.628267495270748 -1 0 0 I I #
vertex $-1 $428 $558 #
point $-1 19.142524161022735 30.326342330939507 4.2778188653931677 #
coedge $-1 $443 $442 $435 $524 forward $432 $-1 #
edge $-1 $525 63.048672477683724 $528 77.699642001121077 $523 $559 forward 7 unknown #
vertex $-1 $447 $560 #
straight-curve $-1 66.23099145975435 65.705136737998203 18.628267495270748 0 1 0 I I #
edge $-1 $528 -39.29268326577516 $444 -14.583933122183225 $443 $561 forward 7 unknown #
vertex $-1 $527 $562 #
straight-curve $-1 66.23099145975435 -1.396116855147767 83.555752790393186 0 -0.51503806187062418 0.85716730853699208 I I #
point $-1 66.23099145975435 37.616250806900283 18.628267495270748 #
point $-1 41.522241316162415 46.419441120767829 3.9772979718333943 #
straight-curve $-1 0 46.419441120767829 18.628267495270748 -1 0 0 I I #
vertex $-1 $450 $563 #
point $-1 57.876616387958379 30.326342330939507 4.2778188653931677 #
straight-curve $-1 -77.468184453871274 46.419441120767829 0 0 0 -1 I I #
point $-1 -77.468184453871274 -46.419441120767829 -18.628267495270748 #
straight-curve $-1 -77.468184453871274 0 -18.628267495270748 0 1 0 I I #
point $-1 -77.468184453871274 46.419441120767829 -18.628267495270748 #
straight-curve $-1 -77.468184453871274 -18.74691819921032 -14.171648833224452 0 -1 0 I I #
point $-1 -77.468184453871274 -46.419441120767829 -14.171648833224452 #
point $-1 -77.468184453871274 -28.568231676073452 -14.171648833224452 #
straight-curve $-1 -77.468184453871274 -28.568231676073452 -4.7815804394871719 0 0 -1 I I #
straight-curve $-1 -77.468184453871274 -46.419441120767829 0 0 0 -1 I I #
straight-curve $-1 -49.971285221052582 46.419441120767829 81.676939972954472 0 0 -1 I I #
point $-1 -49.971285221052582 46.419441120767829 18.628267495270748 #
straight-curve $-1 -31.162830146424273 46.419441120767829 3.977297971833373 -1 0 0 I I #
point $-1 -49.971285221052582 46.419441120767829 3.9772979718333943 #
point $-1 -62.325660292848539 26.897673096791539 2.2176666179106705 #
straight-curve $-1 -11.237192994116944 46.419441120767829 81.676939972954472 0 0 -1 I I #
point $-1 -11.237192994116944 46.419441120767829 18.628267495270748 #
straight-curve $-1 -11.795784032956455 46.419441120767829 3.977297971833373 -1 0 0 I I #
point $-1 -11.237192994116944 46.419441120767829 3.9772979718333943 #
point $-1 -23.591568065912909 26.897673096791539 2.2176666179106705 #
straight-curve $-1 27.496899232818699 46.419441120767829 81.676939972954472 0 0 -1 I I #
point $-1 27.496899232818699 46.419441120767829 18.628267495270748 #
straight-curve $-1 7.5712620805113673 46.419441120767829 3.977297971833373 -1 0 0 I I #
point $-1 27.496899232818699 46.419441120767829 3.9772979718333943 #
point $-1 15.142524161022735 26.897673096791539 2.2176666179106705 #
straight-curve $-1 66.23099145975435 46.419441120767829 81.676939972954472 0 0 -1 I I #
point $-1 66.23099145975435 46.419441120767829 18.628267495270748 #
straight-curve $-1 26.938308193979189 46.419441120767829 3.977297971833373 -1 0 0 I I #
point $-1 66.23099145975435 46.419441120767829 3.9772979718333943 #
point $-1 53.876616387958379 26.897673096791539 2.2176666179106705 #
End-of-ACIS-data 