500 0 9 0           
7 Unknown 11 ACIS 5.0 NT 24 Fri Mar 26 18:28:13 1999 
-1 9.9999999999999995e-007 1e-010 
body $-1 $9 $-1 $10 #
body $-1 $11 $-1 $12 #
body $-1 $13 $-1 $14 #
body $-1 $15 $-1 $16 #
body $-1 $17 $-1 $18 #
body $-1 $19 $-1 $20 #
body $-1 $21 $-1 $22 #
body $-1 $23 $-1 $24 #
body $-1 $25 $-1 $26 #
lump $-1 $-1 $27 $0 #
transform $-1 1 0 0 0 1 0 0 0 1 50.703451643421737 25.427702855790642 8.7710714153918552 1 rotate no_reflect no_shear #
lump $-1 $-1 $28 $1 #
transform $-1 1 0 0 0 1 0 0 0 1 50.703451643421737 25.427702855790642 8.7710714153918552 1 rotate no_reflect no_shear #
lump $-1 $-1 $29 $2 #
transform $-1 1 0 0 0 1 0 0 0 1 50.703451643421737 25.427702855790642 8.7710714153918552 1 rotate no_reflect no_shear #
lump $-1 $-1 $30 $3 #
transform $-1 1 0 0 0 1 0 0 0 1 50.703451643421737 25.427702855790642 8.7710714153918552 1 rotate no_reflect no_shear #
lump $-1 $-1 $31 $4 #
transform $-1 1 0 0 0 1 0 0 0 1 50.703451643421737 25.427702855790642 8.7710714153918552 1 rotate no_reflect no_shear #
lump $-1 $-1 $32 $5 #
transform $-1 1 0 0 0 1 0 0 0 1 50.703451643421737 25.427702855790642 8.7710714153918552 1 rotate no_reflect no_shear #
lump $-1 $-1 $33 $6 #
transform $-1 1 0 0 0 1 0 0 0 1 50.703451643421737 25.427702855790642 8.7710714153918552 1 rotate no_reflect no_shear #
lump $-1 $-1 $34 $7 #
transform $-1 1 0 0 0 1 0 0 0 1 50.703451643421737 25.427702855790642 8.7710714153918552 1 rotate no_reflect no_shear #
lump $-1 $-1 $35 $8 #
transform $-1 1 0 0 0 1 0 0 0 1 50.703451643421737 25.427702855790642 8.7710714153918552 1 rotate no_reflect no_shear #
shell $-1 $-1 $-1 $36 $-1 $9 #
shell $-1 $-1 $-1 $37 $-1 $11 #
shell $-1 $-1 $-1 $38 $-1 $13 #
shell $-1 $-1 $-1 $39 $-1 $15 #
shell $-1 $-1 $-1 $40 $-1 $17 #
shell $-1 $-1 $-1 $41 $-1 $19 #
shell $-1 $-1 $-1 $42 $-1 $21 #
shell $-1 $-1 $-1 $43 $-1 $23 #
shell $-1 $-1 $-1 $44 $-1 $25 #
face $-1 $45 $46 $27 $-1 $47 reversed single #
face $-1 $48 $49 $28 $-1 $50 forward single #
face $-1 $51 $52 $29 $-1 $53 forward single #
face $-1 $54 $55 $30 $-1 $56 reversed single #
face $-1 $57 $58 $31 $-1 $59 forward single #
face $-1 $60 $61 $32 $-1 $62 forward single #
face $-1 $63 $64 $33 $-1 $65 reversed single #
face $-1 $66 $67 $34 $-1 $68 forward single #
face $-1 $69 $70 $35 $-1 $71 forward single #
face $-1 $72 $73 $27 $-1 $74 forward single #
loop $-1 $-1 $75 $36 #
plane-surface $-1 0 25.427702855790642 0 0 -1 0 0 0 -1 forward_v I I I I #
face $-1 $76 $77 $28 $-1 $78 reversed single #
loop $-1 $-1 $79 $37 #
plane-surface $-1 0 -21.102585206786937 -4.3131817966396699 0 0 1 1 0 0 forward_v I I I I #
face $-1 $80 $81 $29 $-1 $82 reversed single #
loop $-1 $-1 $83 $38 #
plane-surface $-1 0 25.427702855790642 0 0 -1 0 0 0 -1 forward_v I I I I #
face $-1 $84 $85 $30 $-1 $86 reversed single #
loop $-1 $-1 $87 $39 #
plane-surface $-1 -102.93186858962926 -0.39514841846445847 91.138044872897225 0 1 0 -0.51503808176128008 0 0.85716729658548041 forward_v I I I I #
face $-1 $88 $89 $31 $-1 $90 forward single #
loop $-1 $91 $92 $40 #
cone-surface $-1 -46.654947254828009 1.8185658630730295 6.0646339231073494 0.51503808176128008 0 -0.85716729658548041 0.4285836482927402 0 0.25751904088064004 1 I I 0 1 0.5 forward I I I I #
face $-1 $93 $94 $32 $-1 $95 forward single #
loop $-1 $96 $97 $41 #
cone-surface $-1 -46.654947254828009 5.1391372853792632 6.0646339231073494 0.51503808176128008 0 -0.85716729658548041 0.4285836482927402 0 0.25751904088064004 1 I I 0 1 0.5 forward I I I I #
face $-1 $98 $99 $33 $-1 $100 reversed single #
loop $-1 $-1 $101 $42 #
plane-surface $-1 18.442993104742548 -7.8468685538398155 142.45511760676254 0 -1 0 -0.52991927123019833 0 -0.84804809178421925 forward_v I I I I #
face $-1 $102 $103 $34 $-1 $104 forward single #
loop $-1 $105 $106 $43 #
cone-surface $-1 45.176139790617562 -14.225867842370828 4.6488209878066877 -0.52991927123019833 0 -0.84804809178421925 0.84804809178421925 0 -0.52991927123019833 1 I I 0 1 1 forward I I I I #
face $-1 $107 $108 $35 $-1 $109 forward single #
loop $-1 $110 $111 $44 #
cone-surface $-1 45.176139790617562 -10.39846826925222 4.6488209878066877 -0.52991927123019833 0 -0.84804809178421925 0.84804809178421925 0 -0.52991927123019833 1 I I 0 1 1 forward I I I I #
face $-1 $112 $113 $27 $-1 $114 reversed single #
loop $-1 $-1 $115 $45 #
plane-surface $-1 0 0 8.7710714153918552 0 0 1 1 0 0 forward_v I I I I #
coedge $-1 $116 $117 $118 $119 reversed $46 $-1 #
face $-1 $120 $121 $28 $-1 $122 reversed single #
loop $-1 $-1 $123 $48 #
plane-surface $-1 0 -16.777467557783233 -6.5421266060157626 0 -1 0 0 0 -1 forward_v I I I I #
coedge $-1 $124 $125 $126 $127 reversed $49 $-1 #
face $-1 $128 $129 $29 $-1 $130 reversed single #
loop $-1 $-1 $131 $51 #
plane-surface $-1 0 0 -8.7710714153918552 0 0 1 1 0 0 forward_v I I I I #
coedge $-1 $132 $133 $134 $135 forward $52 $-1 #
face $-1 $136 $137 $30 $-1 $138 reversed single #
loop $-1 $-1 $139 $54 #
plane-surface $-1 -50.703451643421751 3.4788515742261481 4.2153637274083309 -0.51503808176128008 0 0.85716729658548041 0.85716729658548041 0 0.51503808176128008 forward_v I I I I #
coedge $-1 $140 $141 $142 $143 reversed $55 $-1 #
face $-1 $-1 $144 $31 $-1 $145 forward single #
loop $-1 $146 $147 $57 #
cone-surface $-1 -46.268668693507053 1.8185658630730295 5.4217584506682392 0.51503808176128008 0 -0.85716729658548041 0.2142918241463701 0 0.12875952044032002 1 I I -0.70710678118654746 0.70710678118654746 0.25 forward I I I I #
loop $-1 $-1 $148 $40 #
coedge $-1 $92 $92 $149 $150 reversed $58 $-1 #
face $-1 $-1 $151 $32 $-1 $152 forward single #
loop $-1 $153 $154 $60 #
cone-surface $-1 -46.268668693507053 5.1391372853792632 5.4217584506682392 0.51503808176128008 0 -0.85716729658548041 0.2142918241463701 0 0.12875952044032002 1 I I -0.70710678118654746 0.70710678118654746 0.25 forward I I I I #
loop $-1 $-1 $155 $41 #
coedge $-1 $97 $97 $156 $157 reversed $61 $-1 #
face $-1 $158 $159 $33 $-1 $160 reversed single #
loop $-1 $-1 $161 $63 #
plane-surface $-1 -35.294479182732751 -12.312168055811524 56.457186780608069 0.52991927123019833 0 0.84804809178421925 0.84804809178421925 0 -0.52991927123019833 forward_v I I I I #
coedge $-1 $162 $163 $164 $165 reversed $64 $-1 #
face $-1 $-1 $166 $34 $-1 $167 forward single #
loop $-1 $168 $169 $66 #
cone-surface $-1 44.225965928421211 -14.225867842370828 3.1282249754589522 -0.52991927123019833 0 -0.84804809178421925 0.42402404589210962 0 -0.26495963561509916 1 I I -0.70710678118654746 0.70710678118654746 0.5 forward I I I I #
loop $-1 $-1 $170 $43 #
coedge $-1 $106 $106 $171 $172 reversed $67 $-1 #
face $-1 $-1 $173 $35 $-1 $174 forward single #
loop $-1 $175 $176 $69 #
cone-surface $-1 44.225965928421211 -10.39846826925222 3.1282249754589522 -0.52991927123019833 0 -0.84804809178421925 0.42402404589210962 0 -0.26495963561509916 1 I I -0.70710678118654746 0.70710678118654746 0.5 forward I I I I #
loop $-1 $-1 $177 $44 #
coedge $-1 $111 $111 $178 $179 reversed $70 $-1 #
face $-1 $180 $181 $27 $-1 $182 reversed single #
loop $-1 $-1 $183 $72 #
plane-surface $-1 0 0 -8.7710714153918552 0 0 1 1 0 0 forward_v I I I I #
coedge $-1 $184 $185 $186 $187 forward $73 $-1 #
coedge $-1 $188 $75 $189 $190 reversed $46 $-1 #
coedge $-1 $75 $188 $191 $192 forward $46 $-1 #
coedge $-1 $183 $193 $75 $119 forward $113 $-1 #
edge $-1 $194 -50.703451643421737 $195 50.703451643421737 $75 $196 forward 7 unknown #
face $-1 $197 $198 $28 $-1 $199 reversed single #
loop $-1 $-1 $200 $76 #
plane-surface $-1 0 0 -8.7710714153918552 0 0 1 1 0 0 forward_v I I I I #
coedge $-1 $201 $202 $203 $204 reversed $77 $-1 #
coedge $-1 $205 $79 $202 $206 forward $49 $-1 #
coedge $-1 $79 $205 $207 $208 reversed $49 $-1 #
coedge $-1 $209 $203 $79 $127 forward $198 $-1 #
edge $-1 $210 6.226174954389764 $211 14.876410252397173 $126 $212 forward 7 unknown #
face $-1 $213 $214 $29 $-1 $215 reversed single #
loop $-1 $-1 $216 $80 #
plane-surface $-1 -36.295788382325682 29.905639031697852 0 1 0 0 0 0 -1 forward_v I I I I #
coedge $-1 $217 $218 $133 $219 forward $81 $-1 #
coedge $-1 $220 $83 $221 $222 reversed $52 $-1 #
coedge $-1 $83 $220 $131 $219 reversed $52 $-1 #
coedge $-1 $223 $224 $83 $135 reversed $225 $-1 #
edge $-1 $226 -8.7710714153918552 $227 8.7710714153918552 $134 $228 forward 7 unknown #
face $-1 $229 $230 $30 $-1 $231 forward single #
loop $-1 $-1 $232 $84 #
plane-surface $-1 -102.93186858962926 7.3528515669167547 91.138044872897225 0 -1 0 0.51503808176128008 0 -0.85716729658548041 forward_v I I I I #
coedge $-1 $233 $234 $235 $236 reversed $85 $-1 #
coedge $-1 $141 $87 $237 $238 reversed $55 $-1 #
coedge $-1 $87 $140 $233 $239 reversed $55 $-1 #
coedge $-1 $235 $240 $87 $143 forward $230 $-1 #
edge $-1 $241 0.76248265139289373 $242 8.3444533468190372 $142 $243 forward 7 unknown #
loop $-1 $-1 $149 $88 #
plane-surface $-1 -50.703451643421751 3.4788515742261481 4.2153637274083309 -0.51503808176128008 0 0.85716729658548041 0.85716729658548041 0 0.51503808176128008 forward_v I I I I #
loop $-1 $-1 $244 $57 #
coedge $-1 $147 $147 $148 $245 reversed $89 $-1 #
coedge $-1 $148 $148 $147 $245 forward $91 $-1 #
coedge $-1 $149 $149 $92 $150 forward $144 $-1 #
edge $-1 $246 0 $246 6.2831853071796004 $149 $247 forward 7 unknown #
loop $-1 $-1 $156 $93 #
plane-surface $-1 -50.703451643421751 3.4788515742261481 4.2153637274083309 -0.51503808176128008 0 0.85716729658548041 0.85716729658548041 0 0.51503808176128008 forward_v I I I I #
loop $-1 $-1 $248 $60 #
coedge $-1 $154 $154 $155 $249 reversed $94 $-1 #
coedge $-1 $155 $155 $154 $249 forward $96 $-1 #
coedge $-1 $156 $156 $97 $157 forward $151 $-1 #
edge $-1 $250 0 $250 6.2831853071796004 $156 $251 forward 7 unknown #
face $-1 $252 $253 $33 $-1 $254 reversed single #
loop $-1 $-1 $255 $98 #
plane-surface $-1 18.442993104742548 -16.777467557783233 142.45511760676254 0 1 0 0.52991927123019833 0 0.84804809178421925 forward_v I I I I #
coedge $-1 $256 $257 $258 $259 reversed $99 $-1 #
coedge $-1 $163 $101 $260 $261 reversed $64 $-1 #
coedge $-1 $101 $162 $256 $262 reversed $64 $-1 #
coedge $-1 $258 $263 $101 $165 forward $264 $-1 #
edge $-1 $265 -41.481955091050466 $266 -31.797759838604616 $164 $267 forward 7 unknown #
loop $-1 $-1 $171 $102 #
plane-surface $-1 -35.294479182732751 -12.312168055811524 56.457186780608069 0.52991927123019833 0 0.84804809178421925 0.84804809178421925 0 -0.52991927123019833 forward_v I I I I #
loop $-1 $-1 $268 $66 #
coedge $-1 $169 $169 $170 $269 reversed $103 $-1 #
coedge $-1 $170 $170 $169 $269 forward $105 $-1 #
coedge $-1 $171 $171 $106 $172 forward $166 $-1 #
edge $-1 $270 0 $270 6.2831853071796004 $171 $271 forward 7 unknown #
loop $-1 $-1 $178 $107 #
plane-surface $-1 -35.294479182732751 -12.312168055811524 56.457186780608069 0.52991927123019833 0 0.84804809178421925 0.84804809178421925 0 -0.52991927123019833 forward_v I I I I #
loop $-1 $-1 $272 $69 #
coedge $-1 $176 $176 $177 $273 reversed $108 $-1 #
coedge $-1 $177 $177 $176 $273 forward $110 $-1 #
coedge $-1 $178 $178 $111 $179 forward $173 $-1 #
edge $-1 $274 0 $274 6.2831853071796004 $178 $275 forward 7 unknown #
face $-1 $276 $277 $27 $-1 $278 reversed single #
loop $-1 $-1 $279 $112 #
plane-surface $-1 0 -25.427702855790642 0 0 1 0 0 0 1 forward_v I I I I #
coedge $-1 $280 $118 $281 $282 forward $113 $-1 #
coedge $-1 $283 $115 $188 $284 forward $73 $-1 #
coedge $-1 $115 $283 $285 $286 forward $73 $-1 #
coedge $-1 $287 $191 $115 $187 reversed $288 $-1 #
edge $-1 $289 -25.427702855790642 $290 25.427702855790642 $186 $291 forward 7 unknown #
coedge $-1 $117 $116 $184 $284 reversed $46 $-1 #
coedge $-1 $292 $293 $116 $190 forward $277 $-1 #
edge $-1 $294 -8.7710714153918552 $194 8.7710714153918552 $116 $295 forward 7 unknown #
coedge $-1 $186 $281 $117 $192 reversed $288 $-1 #
edge $-1 $290 -8.7710714153918552 $195 8.7710714153918552 $191 $296 forward 7 unknown #
coedge $-1 $118 $280 $292 $297 forward $113 $-1 #
vertex $-1 $119 $298 #
vertex $-1 $282 $299 #
straight-curve $-1 0 25.427702855790642 -8.7710714153918552 1 0 0 I I #
face $-1 $300 $301 $28 $-1 $302 reversed single #
loop $-1 $-1 $203 $120 #
plane-surface $-1 50.703451643421737 0 0 -1 0 0 0 0 1 forward_v I I I I #
coedge $-1 $303 $304 $201 $305 forward $121 $-1 #
coedge $-1 $306 $123 $200 $305 reversed $77 $-1 #
coedge $-1 $123 $306 $124 $206 reversed $77 $-1 #
coedge $-1 $126 $307 $123 $204 forward $198 $-1 #
edge $-1 $308 -5.5000081123839735 $210 -1.0421184936317887 $203 $309 forward 7 unknown #
coedge $-1 $125 $124 $310 $311 reversed $49 $-1 #
edge $-1 $210 -50.703451643421737 $312 50.703451643421737 $202 $313 forward 7 unknown #
coedge $-1 $314 $315 $125 $208 forward $301 $-1 #
edge $-1 $211 -50.703451643421737 $316 50.703451643421737 $207 $317 forward 7 unknown #
coedge $-1 $307 $126 $315 $318 forward $198 $-1 #
vertex $-1 $127 $319 #
vertex $-1 $318 $320 #
straight-curve $-1 50.703451643421737 -10.551292603393469 -4.3131817966396699 0 -1 0 I I #
face $-1 $321 $225 $29 $-1 $322 reversed single #
loop $-1 $-1 $323 $128 #
plane-surface $-1 -34.728548597481854 34.383575207605062 0 0 -1 0 0 0 -1 forward_v I I I I #
coedge $-1 $324 $325 $326 $327 forward $129 $-1 #
coedge $-1 $328 $131 $324 $329 forward $81 $-1 #
coedge $-1 $131 $328 $223 $330 forward $81 $-1 #
edge $-1 $226 33.161308812638026 $331 36.295788382325682 $131 $332 forward 7 unknown #
coedge $-1 $133 $132 $333 $334 forward $52 $-1 #
coedge $-1 $335 $336 $132 $222 forward $337 $-1 #
edge $-1 $338 -36.295788382325682 $227 -33.161308812638026 $221 $339 forward 7 unknown #
coedge $-1 $340 $134 $218 $330 reversed $225 $-1 #
coedge $-1 $134 $340 $335 $341 reversed $225 $-1 #
loop $-1 $-1 $134 $213 #
vertex $-1 $219 $342 #
vertex $-1 $341 $343 #
straight-curve $-1 -33.161308812638026 25.427702855790642 0 0 0 1 I I #
face $-1 $-1 $344 $30 $-1 $345 reversed single #
loop $-1 $-1 $142 $136 #
plane-surface $-1 0 0 8.7710714153918552 0 0 1 1 0 0 forward_v I I I I #
coedge $-1 $346 $347 $348 $349 reversed $137 $-1 #
coedge $-1 $350 $139 $141 $239 forward $85 $-1 #
coedge $-1 $139 $350 $346 $351 forward $85 $-1 #
coedge $-1 $348 $142 $139 $236 forward $230 $-1 #
edge $-1 $242 -2.1345742055775325 $352 5.6134257798036806 $235 $353 forward 7 unknown #
coedge $-1 $354 $355 $140 $238 forward $344 $-1 #
edge $-1 $356 -41.353658709040275 $241 -36.797951021056761 $237 $357 forward 7 unknown #
edge $-1 $242 -8.8453802724729247 $356 -1.6755537013839907e-014 $141 $358 forward 7 unknown #
coedge $-1 $142 $348 $354 $359 forward $230 $-1 #
vertex $-1 $238 $360 #
vertex $-1 $143 $361 #
straight-curve $-1 -51.46593429481463 -0.39514841846445847 8.7710714153918587 1 0 0 I I #
coedge $-1 $244 $244 $-1 $362 reversed $146 $-1 #
edge $-1 $363 0 $363 6.2831853071796004 $147 $364 forward 7 unknown #
vertex $-1 $150 $365 #
ellipse-curve $-1 -46.912466295708654 1.8185658630730295 6.4932175714001019 -0.51503808176128008 0 0.85716729658548041 0.4285836482927402 0 0.25751904088064004 1 I I #
coedge $-1 $248 $248 $-1 $366 reversed $153 $-1 #
edge $-1 $367 0 $367 6.2831853071796004 $154 $368 forward 7 unknown #
vertex $-1 $157 $369 #
ellipse-curve $-1 -46.912466295708654 5.1391372853792632 6.4932175714001019 -0.51503808176128008 0 0.85716729658548041 0.4285836482927402 0 0.25751904088064004 1 I I #
face $-1 $-1 $264 $33 $-1 $370 forward single #
loop $-1 $-1 $371 $158 #
plane-surface $-1 50.703451643421737 0 0 -1 0 0 0 0 1 forward_v I I I I #
coedge $-1 $372 $373 $374 $375 reversed $159 $-1 #
coedge $-1 $376 $161 $163 $262 forward $99 $-1 #
coedge $-1 $161 $376 $372 $377 forward $99 $-1 #
coedge $-1 $374 $164 $161 $259 forward $264 $-1 #
edge $-1 $266 1.6907845259340535 $378 10.62138352987747 $258 $379 forward 7 unknown #
coedge $-1 $380 $381 $162 $261 forward $253 $-1 #
edge $-1 $382 -68.507844310248515 $265 -62.456487387989412 $260 $383 forward 7 unknown #
edge $-1 $266 89.987509332343635 $382 101.40690328684349 $163 $384 forward 7 unknown #
coedge $-1 $164 $374 $380 $385 forward $264 $-1 #
loop $-1 $-1 $374 $252 #
vertex $-1 $261 $386 #
vertex $-1 $165 $387 #
straight-curve $-1 9.2214965523712742 -7.8468685538398155 8.7710714153918587 -1 0 0 I I #
coedge $-1 $268 $268 $-1 $388 reversed $168 $-1 #
edge $-1 $389 0 $389 6.2831853071796004 $169 $390 forward 7 unknown #
vertex $-1 $172 $391 #
ellipse-curve $-1 45.861354017198813 -14.225867842370828 5.7453929542623126 0.52991927123019833 0 0.84804809178421925 0.84804809178421925 0 -0.52991927123019833 1 I I #
coedge $-1 $272 $272 $-1 $392 reversed $175 $-1 #
edge $-1 $393 0 $393 6.2831853071796004 $176 $394 forward 7 unknown #
vertex $-1 $179 $395 #
ellipse-curve $-1 45.861354017198813 -10.39846826925222 5.7453929542623126 0.52991927123019833 0 0.84804809178421925 0.84804809178421925 0 -0.52991927123019833 1 I I #
face $-1 $-1 $288 $27 $-1 $396 reversed single #
loop $-1 $-1 $189 $180 #
plane-surface $-1 -50.703451643421737 0 0 1 0 0 0 0 -1 forward_v I I I I #
coedge $-1 $397 $285 $398 $399 forward $181 $-1 #
coedge $-1 $193 $183 $397 $400 forward $113 $-1 #
coedge $-1 $191 $287 $183 $282 reversed $288 $-1 #
edge $-1 $195 -25.427702855790642 $401 25.427702855790642 $281 $402 forward 7 unknown #
coedge $-1 $185 $184 $293 $403 forward $73 $-1 #
edge $-1 $290 -50.703451643421737 $294 50.703451643421737 $188 $404 forward 7 unknown #
coedge $-1 $279 $405 $185 $286 reversed $181 $-1 #
edge $-1 $406 -50.703451643421737 $289 50.703451643421737 $285 $407 forward 7 unknown #
coedge $-1 $281 $186 $405 $408 forward $288 $-1 #
loop $-1 $-1 $287 $276 #
vertex $-1 $187 $409 #
vertex $-1 $187 $410 #
straight-curve $-1 50.703451643421737 0 8.7710714153918552 0 1 0 I I #
coedge $-1 $398 $189 $193 $297 reversed $277 $-1 #
coedge $-1 $189 $398 $283 $403 reversed $277 $-1 #
vertex $-1 $284 $411 #
straight-curve $-1 -50.703451643421737 25.427702855790642 0 0 0 -1 I I #
straight-curve $-1 50.703451643421737 25.427702855790642 0 0 0 -1 I I #
edge $-1 $412 -25.427702855790642 $194 25.427702855790642 $292 $413 forward 7 unknown #
point $-1 -50.703451643421737 25.427702855790642 -8.7710714153918552 #
point $-1 50.703451643421737 25.427702855790642 -8.7710714153918552 #
face $-1 $-1 $414 $28 $-1 $415 reversed single #
loop $-1 $-1 $207 $197 #
plane-surface $-1 0 -25.427702855790642 0 0 1 0 0 0 1 forward_v I I I I #
coedge $-1 $416 $200 $307 $417 forward $121 $-1 #
coedge $-1 $200 $416 $418 $419 forward $121 $-1 #
edge $-1 $420 -50.703451643421737 $308 50.703451643421737 $200 $421 forward 7 unknown #
coedge $-1 $202 $201 $422 $423 reversed $77 $-1 #
coedge $-1 $203 $209 $303 $417 reversed $198 $-1 #
vertex $-1 $417 $424 #
straight-curve $-1 50.703451643421737 -16.777467557783233 -3.2710633030078813 0 0 1 I I #
coedge $-1 $422 $425 $205 $311 forward $414 $-1 #
edge $-1 $316 -14.876410252397173 $312 -6.226174954389764 $310 $426 forward 7 unknown #
vertex $-1 $311 $427 #
straight-curve $-1 0 -16.777467557783233 -4.3131817966396699 -1 0 0 I I #
coedge $-1 $428 $207 $425 $429 forward $301 $-1 #
coedge $-1 $207 $428 $209 $318 reversed $301 $-1 #
vertex $-1 $429 $430 #
straight-curve $-1 0 -25.427702855790642 -4.3131817966396699 -1 0 0 I I #
edge $-1 $211 4.3131817966396699 $431 8.7710714153918552 $209 $432 forward 7 unknown #
point $-1 50.703451643421737 -16.777467557783233 -4.3131817966396699 #
point $-1 50.703451643421737 -25.427702855790642 -4.3131817966396699 #
face $-1 $-1 $337 $29 $-1 $433 forward single #
plane-surface $-1 -33.161308812638026 29.905639031697852 0 -1 0 0 0 0 1 forward_v I I I I #
coedge $-1 $434 $435 $340 $436 forward $214 $-1 #
coedge $-1 $333 $216 $217 $329 reversed $129 $-1 #
coedge $-1 $216 $333 $336 $437 reversed $129 $-1 #
coedge $-1 $435 $434 $216 $327 reversed $214 $-1 #
edge $-1 $438 -8.7710714153918552 $439 8.7710714153918552 $326 $440 forward 7 unknown #
coedge $-1 $218 $217 $434 $441 forward $81 $-1 #
edge $-1 $331 -4.4779361759072103 $439 4.4779361759072103 $324 $442 forward 7 unknown #
edge $-1 $443 -4.4779361759072103 $226 4.4779361759072103 $223 $444 forward 7 unknown #
vertex $-1 $329 $445 #
straight-curve $-1 0 25.427702855790642 -8.7710714153918552 -1 0 0 I I #
coedge $-1 $325 $324 $220 $334 reversed $129 $-1 #
edge $-1 $338 -8.7710714153918552 $331 8.7710714153918552 $333 $446 forward 7 unknown #
coedge $-1 $447 $221 $224 $341 forward $337 $-1 #
coedge $-1 $221 $447 $325 $437 forward $337 $-1 #
loop $-1 $-1 $221 $321 #
vertex $-1 $222 $448 #
straight-curve $-1 0 25.427702855790642 8.7710714153918552 1 0 0 I I #
coedge $-1 $224 $223 $323 $436 reversed $225 $-1 #
edge $-1 $227 -4.4779361759072103 $449 4.4779361759072103 $224 $450 forward 7 unknown #
point $-1 -33.161308812638026 25.427702855790642 -8.7710714153918552 #
point $-1 -33.161308812638026 25.427702855790642 8.7710714153918552 #
loop $-1 $-1 $237 $229 #
plane-surface $-1 -50.703451643421737 0 0 1 0 0 0 0 -1 forward_v I I I I #
coedge $-1 $347 $232 $234 $351 reversed $137 $-1 #
coedge $-1 $232 $346 $451 $452 reversed $137 $-1 #
coedge $-1 $240 $235 $232 $349 forward $230 $-1 #
edge $-1 $352 -8.3444533468190372 $453 -0.76248265139289373 $348 $454 forward 7 unknown #
coedge $-1 $234 $233 $355 $455 reversed $85 $-1 #
edge $-1 $456 1.6755537013839907e-014 $352 8.8453802724729247 $346 $457 forward 7 unknown #
vertex $-1 $236 $458 #
straight-curve $-1 -43.121480947995593 1.7394257871130741 8.7710714153918552 0 1 0 I I #
coedge $-1 $451 $237 $240 $359 reversed $344 $-1 #
coedge $-1 $237 $451 $350 $455 forward $344 $-1 #
vertex $-1 $238 $459 #
straight-curve $-1 -50.703451643421737 -0.39514841846445847 45.569022436448613 0 0 1 I I #
straight-curve $-1 -50.703451643421751 -0.39514841846445847 4.2153637274083309 -0.85716729658548041 0 -0.51503808176128008 I I #
edge $-1 $453 -7.3528515669167547 $241 0.39514841846445847 $354 $460 forward 7 unknown #
point $-1 -50.703451643421737 -0.39514841846445847 8.7710714153918552 #
point $-1 -43.121480947995593 -0.39514841846445847 8.7710714153918552 #
edge $-1 $461 1 $461 0 $244 $-1 forward 7 unknown #
vertex $-1 $245 $462 #
ellipse-curve $-1 -46.397428213947371 1.8185658630730295 5.6360502748146093 -0.51503808176128008 0 0.85716729658548041 0.4285836482927402 0 0.25751904088064004 1 I I #
point $-1 -46.483882647415911 1.8185658630730295 6.75073661228073 #
edge $-1 $463 1 $463 0 $248 $-1 forward 7 unknown #
vertex $-1 $249 $464 #
ellipse-curve $-1 -46.397428213947371 5.1391372853792632 5.6360502748146093 -0.51503808176128008 0 0.85716729658548041 0.4285836482927402 0 0.25751904088064004 1 I I #
point $-1 -46.483882647415911 5.1391372853792632 6.75073661228073 #
plane-surface $-1 0 0 8.7710714153918552 0 0 1 1 0 0 forward_v I I I I #
coedge $-1 $381 $380 $373 $465 forward $253 $-1 #
coedge $-1 $373 $255 $257 $377 reversed $159 $-1 #
coedge $-1 $255 $372 $371 $465 reversed $159 $-1 #
coedge $-1 $263 $258 $255 $375 forward $264 $-1 #
edge $-1 $378 31.797759838604616 $466 41.481955091050466 $374 $467 forward 7 unknown #
coedge $-1 $257 $256 $381 $468 reversed $99 $-1 #
edge $-1 $469 -101.40690328684349 $378 -89.987509332343635 $372 $470 forward 7 unknown #
vertex $-1 $259 $471 #
straight-curve $-1 41.019256390975912 -6.156084027905762 8.7710714153918445 0 -1 0 I I #
coedge $-1 $371 $260 $263 $385 reversed $253 $-1 #
coedge $-1 $260 $371 $376 $468 forward $253 $-1 #
vertex $-1 $261 $472 #
straight-curve $-1 50.703451643421737 -7.8468685538398155 71.227558803381271 0 0 1 I I #
straight-curve $-1 -35.294479182732751 -7.8468685538398155 56.457186780608069 0.84804809178421925 0 -0.52991927123019833 I I #
edge $-1 $466 -16.777467557783233 $265 -7.8468685538398155 $380 $473 forward 7 unknown #
point $-1 50.703451643421737 -7.8468685538398155 8.7710714153918552 #
point $-1 41.01925639097589 -7.8468685538398155 8.7710714153918587 #
edge $-1 $474 1 $474 0 $268 $-1 forward 7 unknown #
vertex $-1 $269 $475 #
ellipse-curve $-1 44.49092556403631 -14.225867842370828 3.552249021351062 0.52991927123019833 0 0.84804809178421925 0.84804809178421925 0 -0.52991927123019833 1 I I #
point $-1 46.709402108983035 -14.225867842370828 5.2154736830321147 #
edge $-1 $476 1 $476 0 $272 $-1 forward 7 unknown #
vertex $-1 $273 $477 #
ellipse-curve $-1 44.49092556403631 -10.39846826925222 3.552249021351062 0.52991927123019833 0 0.84804809178421925 0.84804809178421925 0 -0.52991927123019833 1 I I #
point $-1 46.709402108983035 -10.39846826925222 5.2154736830321147 #
plane-surface $-1 50.703451643421737 0 0 -1 0 0 0 0 1 forward_v I I I I #
coedge $-1 $405 $279 $280 $400 reversed $181 $-1 #
coedge $-1 $293 $292 $279 $399 reversed $277 $-1 #
edge $-1 $406 -8.7710714153918552 $412 8.7710714153918552 $398 $478 forward 7 unknown #
edge $-1 $401 -50.703451643421737 $412 50.703451643421737 $397 $479 forward 7 unknown #
vertex $-1 $408 $480 #
straight-curve $-1 50.703451643421737 0 -8.7710714153918552 0 -1 0 I I #
edge $-1 $294 -25.427702855790642 $406 25.427702855790642 $293 $481 forward 7 unknown #
straight-curve $-1 0 25.427702855790642 8.7710714153918552 -1 0 0 I I #
coedge $-1 $285 $397 $287 $408 reversed $181 $-1 #
vertex $-1 $403 $482 #
straight-curve $-1 0 -25.427702855790642 8.7710714153918552 1 0 0 I I #
edge $-1 $289 -8.7710714153918552 $401 8.7710714153918552 $287 $483 forward 7 unknown #
point $-1 50.703451643421737 -25.427702855790642 8.7710714153918552 #
point $-1 50.703451643421737 25.427702855790642 8.7710714153918552 #
point $-1 -50.703451643421737 25.427702855790642 8.7710714153918552 #
vertex $-1 $297 $484 #
straight-curve $-1 -50.703451643421737 0 -8.7710714153918552 0 1 0 I I #
loop $-1 $-1 $422 $300 #
plane-surface $-1 -50.703451643421737 0 0 1 0 0 0 0 -1 forward_v I I I I #
coedge $-1 $304 $303 $428 $485 forward $121 $-1 #
edge $-1 $308 16.777467557783233 $431 25.427702855790642 $307 $486 forward 7 unknown #
coedge $-1 $425 $422 $304 $419 reversed $414 $-1 #
edge $-1 $487 -25.427702855790642 $420 -16.777467557783233 $418 $488 forward 7 unknown #
vertex $-1 $423 $489 #
straight-curve $-1 0 -16.777467557783233 -8.7710714153918552 1 0 0 I I #
coedge $-1 $418 $310 $306 $423 forward $414 $-1 #
edge $-1 $312 1.0421184936317887 $420 5.5000081123839735 $422 $490 forward 7 unknown #
point $-1 50.703451643421737 -16.777467557783233 -8.7710714153918552 #
coedge $-1 $310 $418 $314 $429 reversed $414 $-1 #
straight-curve $-1 -50.703451643421737 -10.551292603393469 -4.3131817966396699 0 1 0 I I #
point $-1 -50.703451643421737 -16.777467557783233 -4.3131817966396699 #
coedge $-1 $315 $314 $416 $485 reversed $301 $-1 #
edge $-1 $316 4.3131817966396699 $487 8.7710714153918552 $425 $491 forward 7 unknown #
point $-1 -50.703451643421737 -25.427702855790642 -4.3131817966396699 #
vertex $-1 $318 $492 #
straight-curve $-1 50.703451643421737 -25.427702855790642 0 0 0 -1 I I #
plane-surface $-1 0 0 8.7710714153918552 0 0 1 1 0 0 forward_v I I I I #
coedge $-1 $326 $323 $328 $441 reversed $214 $-1 #
coedge $-1 $323 $326 $447 $493 reversed $214 $-1 #
edge $-1 $449 -8.7710714153918552 $443 8.7710714153918552 $340 $494 forward 7 unknown #
edge $-1 $438 -4.4779361759072103 $338 4.4779361759072103 $325 $495 forward 7 unknown #
vertex $-1 $493 $496 #
vertex $-1 $441 $497 #
straight-curve $-1 -36.295788382325682 34.383575207605062 0 0 0 -1 I I #
edge $-1 $439 -1.567239784843828 $443 1.567239784843828 $434 $498 forward 7 unknown #
straight-curve $-1 -36.295788382325682 29.905639031697852 -8.7710714153918552 0 1 0 I I #
vertex $-1 $330 $499 #
straight-curve $-1 -33.161308812638026 29.905639031697852 -8.7710714153918552 0 -1 0 I I #
point $-1 -36.295788382325682 25.427702855790642 -8.7710714153918552 #
straight-curve $-1 -36.295788382325682 25.427702855790642 0 0 0 -1 I I #
coedge $-1 $336 $335 $435 $493 forward $337 $-1 #
point $-1 -36.295788382325682 25.427702855790642 8.7710714153918552 #
vertex $-1 $341 $500 #
straight-curve $-1 -33.161308812638026 29.905639031697852 8.7710714153918552 0 1 0 I I #
coedge $-1 $355 $354 $347 $452 forward $344 $-1 #
edge $-1 $453 36.797951021056761 $456 41.353658709040275 $451 $501 forward 7 unknown #
vertex $-1 $359 $502 #
straight-curve $-1 -51.46593429481463 7.3528515669167547 8.7710714153918587 -1 0 0 I I #
edge $-1 $456 -5.6134257798036806 $356 2.1345742055775325 $355 $503 forward 7 unknown #
vertex $-1 $455 $504 #
straight-curve $-1 -50.703451643421751 7.3528515669167547 4.2153637274083309 0.85716729658548041 0 0.51503808176128008 I I #
point $-1 -43.121480947995593 7.3528515669167547 8.7710714153918552 #
point $-1 -50.703451643421737 -0.39514841846445847 4.2153637274083398 #
straight-curve $-1 -50.703451643421737 0 8.7710714153918552 0 -1 0 I I #
vertex $-1 $362 $505 #
point $-1 -45.968844565654635 1.8185658630730295 5.8935693156952498 #
vertex $-1 $366 $506 #
point $-1 -45.968844565654635 5.1391372853792632 5.8935693156952498 #
edge $-1 $466 62.456487387989412 $469 68.507844310248515 $371 $507 forward 7 unknown #
vertex $-1 $385 $508 #
straight-curve $-1 9.2214965523712742 -16.777467557783233 8.7710714153918587 1 0 0 I I #
edge $-1 $469 -10.62138352987747 $382 -1.6907845259340535 $381 $509 forward 7 unknown #
vertex $-1 $468 $510 #
straight-curve $-1 -35.294479182732751 -16.777467557783233 56.457186780608069 -0.84804809178421925 0 0.52991927123019833 I I #
point $-1 41.01925639097589 -16.777467557783233 8.7710714153918587 #
point $-1 50.703451643421737 -7.8468685538398155 2.7197144931327628 #
straight-curve $-1 50.703451643421737 0 8.7710714153918552 0 1 0 I I #
vertex $-1 $388 $511 #
point $-1 45.338973655820531 -14.225867842370828 3.0223297501208632 #
vertex $-1 $392 $512 #
point $-1 45.338973655820531 -10.39846826925222 3.0223297501208632 #
straight-curve $-1 -50.703451643421737 -25.427702855790642 0 0 0 -1 I I #
straight-curve $-1 0 -25.427702855790642 -8.7710714153918552 -1 0 0 I I #
point $-1 50.703451643421737 -25.427702855790642 -8.7710714153918552 #
straight-curve $-1 -50.703451643421737 0 8.7710714153918552 0 -1 0 I I #
point $-1 -50.703451643421737 -25.427702855790642 8.7710714153918552 #
straight-curve $-1 50.703451643421737 -25.427702855790642 0 0 0 -1 I I #
point $-1 -50.703451643421737 -25.427702855790642 -8.7710714153918552 #
edge $-1 $431 -50.703451643421737 $487 50.703451643421737 $428 $513 forward 7 unknown #
straight-curve $-1 50.703451643421737 0 -8.7710714153918552 0 -1 0 I I #
vertex $-1 $419 $514 #
straight-curve $-1 -50.703451643421737 0 -8.7710714153918552 0 1 0 I I #
point $-1 -50.703451643421737 -16.777467557783233 -8.7710714153918552 #
straight-curve $-1 -50.703451643421737 -16.777467557783233 -3.2710633030078813 0 0 -1 I I #
straight-curve $-1 -50.703451643421737 -25.427702855790642 0 0 0 -1 I I #
point $-1 50.703451643421737 -25.427702855790642 -8.7710714153918552 #
edge $-1 $449 -1.567239784843828 $438 1.567239784843828 $435 $515 forward 7 unknown #
straight-curve $-1 -33.161308812638026 34.383575207605062 0 0 0 -1 I I #
straight-curve $-1 -36.295788382325682 29.905639031697852 8.7710714153918552 0 -1 0 I I #
point $-1 -36.295788382325682 34.383575207605062 8.7710714153918552 #
point $-1 -36.295788382325682 34.383575207605062 -8.7710714153918552 #
straight-curve $-1 -34.728548597481854 34.383575207605062 -8.7710714153918552 1 0 0 I I #
point $-1 -33.161308812638026 34.383575207605062 -8.7710714153918552 #
point $-1 -33.161308812638026 34.383575207605062 8.7710714153918552 #
straight-curve $-1 -50.703451643421737 7.3528515669167547 45.569022436448613 0 0 -1 I I #
point $-1 -50.703451643421737 7.3528515669167547 8.7710714153918552 #
straight-curve $-1 -50.703451643421737 1.7394257871130741 4.2153637274083389 0 -1 0 I I #
point $-1 -50.703451643421737 7.3528515669167547 4.2153637274083398 #
point $-1 -46.139909173066734 1.8185658630730295 5.2074666265218692 #
point $-1 -46.139909173066734 5.1391372853792632 5.2074666265218692 #
straight-curve $-1 50.703451643421737 -16.777467557783233 71.227558803381271 0 0 -1 I I #
point $-1 50.703451643421737 -16.777467557783233 8.7710714153918552 #
straight-curve $-1 50.703451643421737 -6.156084027905762 2.7197144931327593 0 1 0 I I #
point $-1 50.703451643421737 -16.777467557783233 2.7197144931327628 #
point $-1 43.961006292806111 -14.225867842370828 2.7042009295668423 #
point $-1 43.961006292806111 -10.39846826925222 2.7042009295668423 #
straight-curve $-1 0 -25.427702855790642 -8.7710714153918552 -1 0 0 I I #
point $-1 -50.703451643421737 -25.427702855790642 -8.7710714153918552 #
straight-curve $-1 -34.728548597481854 34.383575207605062 8.7710714153918552 -1 0 0 I I #
End-of-ACIS-data 