500 0 15 0           
7 Unknown 11 ACIS 5.0 NT 24 Thu Mar 25 19:49:13 1999 
-1 9.9999999999999995e-007 1e-010 
body $-1 $15 $-1 $16 #
body $-1 $17 $-1 $18 #
body $-1 $19 $-1 $20 #
body $-1 $21 $-1 $22 #
body $-1 $23 $-1 $24 #
body $-1 $25 $-1 $26 #
body $-1 $27 $-1 $28 #
body $-1 $29 $-1 $30 #
body $-1 $31 $-1 $32 #
body $-1 $33 $-1 $34 #
body $-1 $35 $-1 $36 #
body $-1 $37 $-1 $38 #
body $-1 $39 $-1 $40 #
body $-1 $41 $-1 $42 #
body $-1 $43 $-1 $44 #
lump $-1 $-1 $45 $0 #
transform $-1 1 0 0 0 1 0 0 0 1 59.963988158818324 26.933194852363926 5.7888244693363271 1 rotate no_reflect no_shear #
lump $-1 $-1 $46 $1 #
transform $-1 1 0 0 0 1 0 0 0 1 59.963988158818324 26.933194852363926 5.7888244693363271 1 rotate no_reflect no_shear #
lump $-1 $-1 $47 $2 #
transform $-1 1 0 0 0 1 0 0 0 1 59.963988158818324 26.933194852363926 5.7888244693363271 1 rotate no_reflect no_shear #
lump $-1 $-1 $48 $3 #
transform $-1 1 0 0 0 1 0 0 0 1 59.963988158818324 26.933194852363926 5.7888244693363271 1 rotate no_reflect no_shear #
lump $-1 $-1 $49 $4 #
transform $-1 1 0 0 0 1 0 0 0 1 59.963988158818324 26.933194852363926 5.7888244693363271 1 rotate no_reflect no_shear #
lump $-1 $-1 $50 $5 #
transform $-1 1 0 0 0 1 0 0 0 1 59.963988158818324 26.933194852363926 5.7888244693363271 1 rotate no_reflect no_shear #
lump $-1 $-1 $51 $6 #
transform $-1 1 0 0 0 1 0 0 0 1 59.963988158818324 26.933194852363926 5.7888244693363271 1 rotate no_reflect no_shear #
lump $-1 $-1 $52 $7 #
transform $-1 1 0 0 0 1 0 0 0 1 59.963988158818324 26.933194852363926 5.7888244693363271 1 rotate no_reflect no_shear #
lump $-1 $-1 $53 $8 #
transform $-1 1 0 0 0 1 0 0 0 1 59.963988158818324 26.933194852363926 5.7888244693363271 1 rotate no_reflect no_shear #
lump $-1 $-1 $54 $9 #
transform $-1 1 0 0 0 1 0 0 0 1 59.963988158818324 26.933194852363926 5.7888244693363271 1 rotate no_reflect no_shear #
lump $-1 $-1 $55 $10 #
transform $-1 1 0 0 0 1 0 0 0 1 59.963988158818324 26.933194852363926 5.7888244693363271 1 rotate no_reflect no_shear #
lump $-1 $-1 $56 $11 #
transform $-1 1 0 0 0 1 0 0 0 1 59.963988158818324 26.933194852363926 5.7888244693363271 1 rotate no_reflect no_shear #
lump $-1 $-1 $57 $12 #
transform $-1 1 0 0 0 1 0 0 0 1 59.963988158818324 26.933194852363926 5.7888244693363271 1 rotate no_reflect no_shear #
lump $-1 $-1 $58 $13 #
transform $-1 1 0 0 0 1 0 0 0 1 59.963988158818324 26.933194852363926 5.7888244693363271 1 rotate no_reflect no_shear #
lump $-1 $-1 $59 $14 #
transform $-1 1 0 0 0 1 0 0 0 1 59.963988158818324 26.933194852363926 5.7888244693363271 1 rotate no_reflect no_shear #
shell $-1 $-1 $-1 $60 $-1 $15 #
shell $-1 $-1 $-1 $61 $-1 $17 #
shell $-1 $-1 $-1 $62 $-1 $19 #
shell $-1 $-1 $-1 $63 $-1 $21 #
shell $-1 $-1 $-1 $64 $-1 $23 #
shell $-1 $-1 $-1 $65 $-1 $25 #
shell $-1 $-1 $-1 $66 $-1 $27 #
shell $-1 $-1 $-1 $67 $-1 $29 #
shell $-1 $-1 $-1 $68 $-1 $31 #
shell $-1 $-1 $-1 $69 $-1 $33 #
shell $-1 $-1 $-1 $70 $-1 $35 #
shell $-1 $-1 $-1 $71 $-1 $37 #
shell $-1 $-1 $-1 $72 $-1 $39 #
shell $-1 $-1 $-1 $73 $-1 $41 #
shell $-1 $-1 $-1 $74 $-1 $43 #
face $-1 $75 $76 $45 $-1 $77 reversed single #
face $-1 $78 $79 $46 $-1 $80 forward single #
face $-1 $81 $82 $47 $-1 $83 forward single #
face $-1 $84 $85 $48 $-1 $86 reversed single #
face $-1 $87 $88 $49 $-1 $89 forward single #
face $-1 $90 $91 $50 $-1 $92 forward single #
face $-1 $93 $94 $51 $-1 $95 reversed single #
face $-1 $96 $97 $52 $-1 $98 forward single #
face $-1 $99 $100 $53 $-1 $101 forward single #
face $-1 $102 $103 $54 $-1 $104 reversed single #
face $-1 $105 $106 $55 $-1 $107 forward single #
face $-1 $108 $109 $56 $-1 $110 forward single #
face $-1 $111 $112 $57 $-1 $113 reversed single #
face $-1 $114 $115 $58 $-1 $116 forward single #
face $-1 $117 $118 $59 $-1 $119 forward single #
face $-1 $120 $121 $45 $-1 $122 reversed single #
loop $-1 $-1 $123 $60 #
plane-surface $-1 0 26.933194852363926 0 0 -1 0 0 0 -1 forward_v I I I I #
face $-1 $124 $125 $46 $-1 $126 reversed single #
loop $-1 $-1 $127 $61 #
plane-surface $-1 0 -26.933194852363926 0 0 1 0 0 0 1 forward_v I I I I #
face $-1 $128 $129 $47 $-1 $130 reversed single #
loop $-1 $-1 $131 $62 #
plane-surface $-1 0 26.933194852363926 0 0 -1 0 0 0 -1 forward_v I I I I #
face $-1 $132 $133 $48 $-1 $134 reversed single #
loop $-1 $-1 $135 $63 #
plane-surface $-1 68.840365772583425 -13.237926679445007 170.71480787460416 0 -1 0 -0.74314483375859142 0 -0.66913059716165679 forward_v I I I I #
face $-1 $136 $137 $49 $-1 $138 forward single #
loop $-1 $139 $140 $64 #
cone-surface $-1 57.272505728326287 -17.62271633177107 2.9447112964288449 -0.74314483375859142 0 -0.66913059716165679 0.3345652985808284 0 -0.37157241687929571 1 I I 0 1 0.5 forward I I I I #
face $-1 $141 $142 $50 $-1 $143 forward single #
loop $-1 $144 $145 $65 #
cone-surface $-1 57.272505728326287 -14.991842540375433 2.9447112964288449 -0.74314483375859142 0 -0.66913059716165679 0.3345652985808284 0 -0.37157241687929571 1 I I 0 1 0.5 forward I I I I #
face $-1 $146 $147 $51 $-1 $148 reversed single #
loop $-1 $-1 $149 $66 #
plane-surface $-1 68.840365772583425 -2.3664070553961709 170.71480787460416 0 -1 0 -0.74314483375859142 0 -0.66913059716165679 forward_v I I I I #
face $-1 $150 $151 $52 $-1 $152 forward single #
loop $-1 $153 $154 $67 #
cone-surface $-1 57.272505728326287 -6.7511967077222366 2.9447112964288449 -0.74314483375859142 0 -0.66913059716165679 0.3345652985808284 0 -0.37157241687929571 1 I I 0 1 0.5 forward I I I I #
face $-1 $155 $156 $53 $-1 $157 forward single #
loop $-1 $158 $159 $68 #
cone-surface $-1 57.272505728326287 -4.1203229163266002 2.9447112964288449 -0.74314483375859142 0 -0.66913059716165679 0.3345652985808284 0 -0.37157241687929571 1 I I 0 1 0.5 forward I I I I #
face $-1 $160 $161 $54 $-1 $162 reversed single #
loop $-1 $-1 $163 $69 #
plane-surface $-1 68.840365772583425 8.5051125686526667 170.71480787460416 0 -1 0 -0.74314483375859142 0 -0.66913059716165679 forward_v I I I I #
face $-1 $164 $165 $55 $-1 $166 forward single #
loop $-1 $167 $168 $70 #
cone-surface $-1 57.272505728326287 4.1203229163266002 2.9447112964288449 -0.74314483375859142 0 -0.66913059716165679 0.3345652985808284 0 -0.37157241687929571 1 I I 0 1 0.5 forward I I I I #
face $-1 $169 $170 $56 $-1 $171 forward single #
loop $-1 $172 $173 $71 #
cone-surface $-1 57.272505728326287 6.7511967077222366 2.9447112964288449 -0.74314483375859142 0 -0.66913059716165679 0.3345652985808284 0 -0.37157241687929571 1 I I 0 1 0.5 forward I I I I #
face $-1 $174 $175 $57 $-1 $176 reversed single #
loop $-1 $-1 $177 $72 #
plane-surface $-1 68.840365772583425 19.376632192701503 170.71480787460416 0 -1 0 -0.74314483375859142 0 -0.66913059716165679 forward_v I I I I #
face $-1 $178 $179 $58 $-1 $180 forward single #
loop $-1 $181 $182 $73 #
cone-surface $-1 57.272505728326287 14.991842540375437 2.9447112964288449 -0.74314483375859142 0 -0.66913059716165679 0.3345652985808284 0 -0.37157241687929571 1 I I 0 1 0.5 forward I I I I #
face $-1 $183 $184 $59 $-1 $185 forward single #
loop $-1 $186 $187 $74 #
cone-surface $-1 57.272505728326287 17.622716331771073 2.9447112964288449 -0.74314483375859142 0 -0.66913059716165679 0.3345652985808284 0 -0.37157241687929571 1 I I 0 1 0.5 forward I I I I #
face $-1 $188 $189 $45 $-1 $190 forward single #
loop $-1 $-1 $191 $75 #
plane-surface $-1 0 -26.933194852363926 0 0 1 0 0 0 1 forward_v I I I I #
coedge $-1 $192 $193 $194 $195 reversed $76 $-1 #
face $-1 $196 $197 $46 $-1 $198 reversed single #
loop $-1 $-1 $199 $78 #
plane-surface $-1 0 0 -5.7888244693363271 0 0 1 1 0 0 forward_v I I I I #
coedge $-1 $200 $201 $202 $203 forward $79 $-1 #
face $-1 $204 $205 $47 $-1 $206 reversed single #
loop $-1 $-1 $207 $81 #
plane-surface $-1 0 0 -5.7888244693363271 0 0 1 1 0 0 forward_v I I I I #
coedge $-1 $208 $209 $210 $211 forward $82 $-1 #
face $-1 $212 $213 $48 $-1 $214 reversed single #
loop $-1 $-1 $215 $84 #
plane-surface $-1 -20.283490250990951 -16.307279436073252 90.467329464794915 0.74314483375859142 0 0.66913059716165679 0.66913059716165679 0 -0.74314483375859142 forward_v I I I I #
coedge $-1 $216 $217 $218 $219 reversed $85 $-1 #
face $-1 $-1 $220 $49 $-1 $221 forward single #
loop $-1 $222 $223 $87 #
cone-surface $-1 56.396543061604689 -17.62271633177107 2.1559909882888268 -0.74314483375859142 0 -0.66913059716165679 0.1672826492904142 0 -0.18578620843964785 1 I I -0.70710678118654746 0.70710678118654746 0.25 forward I I I I #
loop $-1 $-1 $224 $64 #
coedge $-1 $140 $140 $225 $226 reversed $88 $-1 #
face $-1 $-1 $227 $50 $-1 $228 forward single #
loop $-1 $229 $230 $90 #
cone-surface $-1 56.396543061604689 -14.991842540375433 2.1559909882888268 -0.74314483375859142 0 -0.66913059716165679 0.1672826492904142 0 -0.18578620843964785 1 I I -0.70710678118654746 0.70710678118654746 0.25 forward I I I I #
loop $-1 $-1 $231 $65 #
coedge $-1 $145 $145 $232 $233 reversed $91 $-1 #
face $-1 $234 $235 $51 $-1 $236 reversed single #
loop $-1 $-1 $237 $93 #
plane-surface $-1 -20.283490250990951 -5.4357598120244148 90.467329464794915 0.74314483375859142 0 0.66913059716165679 0.66913059716165679 0 -0.74314483375859142 forward_v I I I I #
coedge $-1 $238 $239 $240 $241 reversed $94 $-1 #
face $-1 $-1 $242 $52 $-1 $243 forward single #
loop $-1 $244 $245 $96 #
cone-surface $-1 56.396543061604689 -6.7511967077222366 2.1559909882888268 -0.74314483375859142 0 -0.66913059716165679 0.1672826492904142 0 -0.18578620843964785 1 I I -0.70710678118654746 0.70710678118654746 0.25 forward I I I I #
loop $-1 $-1 $246 $67 #
coedge $-1 $154 $154 $247 $248 reversed $97 $-1 #
face $-1 $-1 $249 $53 $-1 $250 forward single #
loop $-1 $251 $252 $99 #
cone-surface $-1 56.396543061604689 -4.1203229163266002 2.1559909882888268 -0.74314483375859142 0 -0.66913059716165679 0.1672826492904142 0 -0.18578620843964785 1 I I -0.70710678118654746 0.70710678118654746 0.25 forward I I I I #
loop $-1 $-1 $253 $68 #
coedge $-1 $159 $159 $254 $255 reversed $100 $-1 #
face $-1 $256 $257 $54 $-1 $258 reversed single #
loop $-1 $-1 $259 $102 #
plane-surface $-1 -20.283490250990951 5.4357598120244219 90.467329464794915 0.74314483375859142 0 0.66913059716165679 0.66913059716165679 0 -0.74314483375859142 forward_v I I I I #
coedge $-1 $260 $261 $262 $263 reversed $103 $-1 #
face $-1 $-1 $264 $55 $-1 $265 forward single #
loop $-1 $266 $267 $105 #
cone-surface $-1 56.396543061604689 4.1203229163266002 2.1559909882888268 -0.74314483375859142 0 -0.66913059716165679 0.1672826492904142 0 -0.18578620843964785 1 I I -0.70710678118654746 0.70710678118654746 0.25 forward I I I I #
loop $-1 $-1 $268 $70 #
coedge $-1 $168 $168 $269 $270 reversed $106 $-1 #
face $-1 $-1 $271 $56 $-1 $272 forward single #
loop $-1 $273 $274 $108 #
cone-surface $-1 56.396543061604689 6.7511967077222366 2.1559909882888268 -0.74314483375859142 0 -0.66913059716165679 0.1672826492904142 0 -0.18578620843964785 1 I I -0.70710678118654746 0.70710678118654746 0.25 forward I I I I #
loop $-1 $-1 $275 $71 #
coedge $-1 $173 $173 $276 $277 reversed $109 $-1 #
face $-1 $278 $279 $57 $-1 $280 reversed single #
loop $-1 $-1 $281 $111 #
plane-surface $-1 -20.283490250990951 16.307279436073259 90.467329464794915 0.74314483375859142 0 0.66913059716165679 0.66913059716165679 0 -0.74314483375859142 forward_v I I I I #
coedge $-1 $282 $283 $284 $285 reversed $112 $-1 #
face $-1 $-1 $286 $58 $-1 $287 forward single #
loop $-1 $288 $289 $114 #
cone-surface $-1 56.396543061604689 14.991842540375437 2.1559909882888268 -0.74314483375859142 0 -0.66913059716165679 0.1672826492904142 0 -0.18578620843964785 1 I I -0.70710678118654746 0.70710678118654746 0.25 forward I I I I #
loop $-1 $-1 $290 $73 #
coedge $-1 $182 $182 $291 $292 reversed $115 $-1 #
face $-1 $-1 $293 $59 $-1 $294 forward single #
loop $-1 $295 $296 $117 #
cone-surface $-1 56.396543061604689 17.622716331771073 2.1559909882888268 -0.74314483375859142 0 -0.66913059716165679 0.1672826492904142 0 -0.18578620843964785 1 I I -0.70710678118654746 0.70710678118654746 0.25 forward I I I I #
loop $-1 $-1 $297 $74 #
coedge $-1 $187 $187 $298 $299 reversed $118 $-1 #
face $-1 $300 $301 $45 $-1 $302 reversed single #
loop $-1 $-1 $303 $120 #
plane-surface $-1 0 0 5.7888244693363271 0 0 1 1 0 0 forward_v I I I I #
coedge $-1 $304 $305 $306 $307 reversed $121 $-1 #
coedge $-1 $308 $123 $309 $310 reversed $76 $-1 #
coedge $-1 $123 $308 $311 $312 forward $76 $-1 #
coedge $-1 $313 $314 $123 $195 forward $301 $-1 #
edge $-1 $315 -59.963988158818324 $316 59.963988158818324 $123 $317 forward 7 unknown #
face $-1 $318 $319 $46 $-1 $320 reversed single #
loop $-1 $-1 $321 $124 #
plane-surface $-1 -52.955937030591414 -32.451394825252358 0 0 1 0 0 0 1 forward_v I I I I #
coedge $-1 $322 $323 $201 $324 forward $125 $-1 #
coedge $-1 $325 $127 $326 $327 reversed $79 $-1 #
coedge $-1 $127 $325 $199 $324 reversed $79 $-1 #
coedge $-1 $328 $329 $127 $203 reversed $319 $-1 #
edge $-1 $330 -5.7888244693363271 $331 5.7888244693363271 $202 $332 forward 7 unknown #
face $-1 $333 $334 $47 $-1 $335 reversed single #
loop $-1 $-1 $336 $128 #
plane-surface $-1 -54.455937030591414 29.692294838808138 0 1 0 0 0 0 -1 forward_v I I I I #
coedge $-1 $337 $338 $209 $339 forward $129 $-1 #
coedge $-1 $340 $131 $341 $342 reversed $82 $-1 #
coedge $-1 $131 $340 $207 $339 reversed $82 $-1 #
coedge $-1 $343 $344 $131 $211 reversed $345 $-1 #
edge $-1 $346 -5.7888244693363271 $347 5.7888244693363271 $210 $348 forward 7 unknown #
face $-1 $349 $350 $48 $-1 $351 forward single #
loop $-1 $-1 $352 $132 #
plane-surface $-1 68.840365772583425 -19.376632192701496 170.71480787460416 0 1 0 0.74314483375859142 0 0.66913059716165679 forward_v I I I I #
coedge $-1 $353 $354 $355 $356 reversed $133 $-1 #
coedge $-1 $217 $135 $357 $358 reversed $85 $-1 #
coedge $-1 $135 $216 $353 $359 reversed $85 $-1 #
coedge $-1 $355 $360 $135 $219 forward $350 $-1 #
edge $-1 $361 -25.543805272526612 $362 -21.541193328106374 $218 $363 forward 7 unknown #
loop $-1 $-1 $225 $136 #
plane-surface $-1 -20.283490250990951 -16.307279436073252 90.467329464794915 0.74314483375859142 0 0.66913059716165679 0.66913059716165679 0 -0.74314483375859142 forward_v I I I I #
loop $-1 $-1 $364 $87 #
coedge $-1 $223 $223 $224 $365 reversed $137 $-1 #
coedge $-1 $224 $224 $223 $365 forward $139 $-1 #
coedge $-1 $225 $225 $140 $226 forward $220 $-1 #
edge $-1 $366 0 $366 6.2831853071796004 $225 $367 forward 7 unknown #
loop $-1 $-1 $232 $141 #
plane-surface $-1 -20.283490250990951 -16.307279436073252 90.467329464794915 0.74314483375859142 0 0.66913059716165679 0.66913059716165679 0 -0.74314483375859142 forward_v I I I I #
loop $-1 $-1 $368 $90 #
coedge $-1 $230 $230 $231 $369 reversed $142 $-1 #
coedge $-1 $231 $231 $230 $369 forward $144 $-1 #
coedge $-1 $232 $232 $145 $233 forward $227 $-1 #
edge $-1 $370 0 $370 6.2831853071796004 $232 $371 forward 7 unknown #
face $-1 $372 $373 $51 $-1 $374 reversed single #
loop $-1 $-1 $375 $146 #
plane-surface $-1 68.840365772583425 -8.5051125686526596 170.71480787460416 0 1 0 0.74314483375859142 0 0.66913059716165679 forward_v I I I I #
coedge $-1 $376 $377 $378 $379 reversed $147 $-1 #
coedge $-1 $239 $149 $380 $381 reversed $94 $-1 #
coedge $-1 $149 $238 $376 $382 reversed $94 $-1 #
coedge $-1 $378 $383 $149 $241 forward $384 $-1 #
edge $-1 $385 -25.543805272526612 $386 -21.541193328106374 $240 $387 forward 7 unknown #
loop $-1 $-1 $247 $150 #
plane-surface $-1 -20.283490250990951 -5.4357598120244148 90.467329464794915 0.74314483375859142 0 0.66913059716165679 0.66913059716165679 0 -0.74314483375859142 forward_v I I I I #
loop $-1 $-1 $388 $96 #
coedge $-1 $245 $245 $246 $389 reversed $151 $-1 #
coedge $-1 $246 $246 $245 $389 forward $153 $-1 #
coedge $-1 $247 $247 $154 $248 forward $242 $-1 #
edge $-1 $390 0 $390 6.2831853071796004 $247 $391 forward 7 unknown #
loop $-1 $-1 $254 $155 #
plane-surface $-1 -20.283490250990951 -5.4357598120244148 90.467329464794915 0.74314483375859142 0 0.66913059716165679 0.66913059716165679 0 -0.74314483375859142 forward_v I I I I #
loop $-1 $-1 $392 $99 #
coedge $-1 $252 $252 $253 $393 reversed $156 $-1 #
coedge $-1 $253 $253 $252 $393 forward $158 $-1 #
coedge $-1 $254 $254 $159 $255 forward $249 $-1 #
edge $-1 $394 0 $394 6.2831853071796004 $254 $395 forward 7 unknown #
face $-1 $396 $397 $54 $-1 $398 reversed single #
loop $-1 $-1 $399 $160 #
plane-surface $-1 68.840365772583425 2.366407055396178 170.71480787460416 0 1 0 0.74314483375859142 0 0.66913059716165679 forward_v I I I I #
coedge $-1 $400 $401 $402 $403 reversed $161 $-1 #
coedge $-1 $261 $163 $404 $405 reversed $103 $-1 #
coedge $-1 $163 $260 $400 $406 reversed $103 $-1 #
coedge $-1 $402 $407 $163 $263 forward $408 $-1 #
edge $-1 $409 -25.543805272526612 $410 -21.541193328106374 $262 $411 forward 7 unknown #
loop $-1 $-1 $269 $164 #
plane-surface $-1 -20.283490250990951 5.4357598120244219 90.467329464794915 0.74314483375859142 0 0.66913059716165679 0.66913059716165679 0 -0.74314483375859142 forward_v I I I I #
loop $-1 $-1 $412 $105 #
coedge $-1 $267 $267 $268 $413 reversed $165 $-1 #
coedge $-1 $268 $268 $267 $413 forward $167 $-1 #
coedge $-1 $269 $269 $168 $270 forward $264 $-1 #
edge $-1 $414 0 $414 6.2831853071796004 $269 $415 forward 7 unknown #
loop $-1 $-1 $276 $169 #
plane-surface $-1 -20.283490250990951 5.4357598120244219 90.467329464794915 0.74314483375859142 0 0.66913059716165679 0.66913059716165679 0 -0.74314483375859142 forward_v I I I I #
loop $-1 $-1 $416 $108 #
coedge $-1 $274 $274 $275 $417 reversed $170 $-1 #
coedge $-1 $275 $275 $274 $417 forward $172 $-1 #
coedge $-1 $276 $276 $173 $277 forward $271 $-1 #
edge $-1 $418 0 $418 6.2831853071796004 $276 $419 forward 7 unknown #
face $-1 $420 $421 $57 $-1 $422 reversed single #
loop $-1 $-1 $423 $174 #
plane-surface $-1 68.840365772583425 13.237926679445014 170.71480787460416 0 1 0 0.74314483375859142 0 0.66913059716165679 forward_v I I I I #
coedge $-1 $424 $425 $426 $427 reversed $175 $-1 #
coedge $-1 $283 $177 $428 $429 reversed $112 $-1 #
coedge $-1 $177 $282 $424 $430 reversed $112 $-1 #
coedge $-1 $426 $431 $177 $285 forward $432 $-1 #
edge $-1 $433 -25.543805272526612 $434 -21.541193328106374 $284 $435 forward 7 unknown #
loop $-1 $-1 $291 $178 #
plane-surface $-1 -20.283490250990951 16.307279436073259 90.467329464794915 0.74314483375859142 0 0.66913059716165679 0.66913059716165679 0 -0.74314483375859142 forward_v I I I I #
loop $-1 $-1 $436 $114 #
coedge $-1 $289 $289 $290 $437 reversed $179 $-1 #
coedge $-1 $290 $290 $289 $437 forward $181 $-1 #
coedge $-1 $291 $291 $182 $292 forward $286 $-1 #
edge $-1 $438 0 $438 6.2831853071796004 $291 $439 forward 7 unknown #
loop $-1 $-1 $298 $183 #
plane-surface $-1 -20.283490250990951 16.307279436073259 90.467329464794915 0.74314483375859142 0 0.66913059716165679 0.66913059716165679 0 -0.74314483375859142 forward_v I I I I #
loop $-1 $-1 $440 $117 #
coedge $-1 $296 $296 $297 $441 reversed $184 $-1 #
coedge $-1 $297 $297 $296 $441 forward $186 $-1 #
coedge $-1 $298 $298 $187 $299 forward $293 $-1 #
edge $-1 $442 0 $442 6.2831853071796004 $298 $443 forward 7 unknown #
face $-1 $444 $445 $45 $-1 $446 reversed single #
loop $-1 $-1 $313 $188 #
plane-surface $-1 0 0 -5.7888244693363271 0 0 1 1 0 0 forward_v I I I I #
coedge $-1 $447 $448 $449 $450 forward $189 $-1 #
coedge $-1 $451 $191 $452 $453 reversed $121 $-1 #
coedge $-1 $191 $451 $454 $455 forward $121 $-1 #
coedge $-1 $314 $313 $191 $307 forward $301 $-1 #
edge $-1 $456 -59.963988158818324 $457 59.963988158818324 $191 $458 forward 7 unknown #
coedge $-1 $193 $192 $447 $459 reversed $76 $-1 #
coedge $-1 $460 $461 $192 $310 forward $445 $-1 #
edge $-1 $462 -5.7888244693363271 $315 5.7888244693363271 $192 $463 forward 7 unknown #
coedge $-1 $449 $464 $193 $312 reversed $465 $-1 #
edge $-1 $466 -5.7888244693363271 $316 5.7888244693363271 $311 $467 forward 7 unknown #
coedge $-1 $306 $194 $464 $468 forward $301 $-1 #
coedge $-1 $194 $306 $460 $469 forward $301 $-1 #
vertex $-1 $195 $470 #
vertex $-1 $468 $471 #
straight-curve $-1 0 26.933194852363926 -5.7888244693363271 1 0 0 I I #
face $-1 $472 $473 $46 $-1 $474 reversed single #
loop $-1 $-1 $202 $196 #
plane-surface $-1 -54.455937030591414 -29.692294838808142 0 1 0 0 0 0 -1 forward_v I I I I #
coedge $-1 $475 $476 $477 $478 forward $197 $-1 #
coedge $-1 $479 $199 $480 $481 forward $125 $-1 #
coedge $-1 $199 $479 $328 $482 forward $125 $-1 #
edge $-1 $330 -54.455937030591414 $483 -51.455937030591414 $199 $484 forward 7 unknown #
coedge $-1 $201 $200 $485 $486 forward $79 $-1 #
coedge $-1 $487 $488 $200 $327 forward $489 $-1 #
edge $-1 $490 51.455937030591414 $331 54.455937030591414 $326 $491 forward 7 unknown #
coedge $-1 $477 $202 $323 $482 reversed $319 $-1 #
coedge $-1 $202 $477 $487 $492 reversed $319 $-1 #
vertex $-1 $324 $493 #
vertex $-1 $492 $494 #
straight-curve $-1 -54.455937030591414 -26.933194852363926 0 0 0 1 I I #
face $-1 $495 $345 $47 $-1 $496 reversed single #
loop $-1 $-1 $497 $204 #
plane-surface $-1 -52.955937030591414 32.451394825252351 0 0 -1 0 0 0 -1 forward_v I I I I #
coedge $-1 $498 $499 $500 $501 forward $205 $-1 #
coedge $-1 $502 $207 $498 $503 forward $129 $-1 #
coedge $-1 $207 $502 $343 $504 forward $129 $-1 #
edge $-1 $346 51.455937030591414 $505 54.455937030591414 $207 $506 forward 7 unknown #
coedge $-1 $209 $208 $507 $508 forward $82 $-1 #
coedge $-1 $509 $510 $208 $342 forward $511 $-1 #
edge $-1 $512 -54.455937030591414 $347 -51.455937030591414 $341 $513 forward 7 unknown #
coedge $-1 $514 $210 $338 $504 reversed $345 $-1 #
coedge $-1 $210 $514 $509 $515 reversed $345 $-1 #
loop $-1 $-1 $210 $333 #
vertex $-1 $339 $516 #
vertex $-1 $515 $517 #
straight-curve $-1 -51.455937030591414 26.933194852363926 0 0 0 1 I I #
face $-1 $-1 $518 $48 $-1 $519 reversed single #
loop $-1 $-1 $218 $212 #
plane-surface $-1 0 0 5.7888244693363271 0 0 1 1 0 0 forward_v I I I I #
coedge $-1 $520 $521 $522 $523 reversed $213 $-1 #
coedge $-1 $524 $215 $217 $359 forward $133 $-1 #
coedge $-1 $215 $524 $520 $525 forward $133 $-1 #
coedge $-1 $522 $218 $215 $356 forward $350 $-1 #
edge $-1 $362 5.084286961408381 $526 11.222992474664871 $355 $527 forward 7 unknown #
coedge $-1 $528 $529 $216 $358 forward $518 $-1 #
edge $-1 $530 -84.013930496081571 $361 -79.568579467965748 $357 $531 forward 7 unknown #
edge $-1 $362 113.94616654627268 $530 119.92797631763668 $217 $532 forward 7 unknown #
coedge $-1 $218 $522 $528 $533 forward $350 $-1 #
vertex $-1 $219 $534 #
vertex $-1 $219 $535 #
straight-curve $-1 34.420182886291713 -13.237926679445007 5.7888244693363333 -1 0 0 I I #
coedge $-1 $364 $364 $-1 $536 reversed $222 $-1 #
edge $-1 $537 0 $537 6.2831853071796004 $223 $538 forward 7 unknown #
vertex $-1 $226 $539 #
ellipse-curve $-1 57.962682186608205 -17.62271633177107 3.5661489552784214 0.74314483375859142 0 0.66913059716165679 0.3345652985808284 0 -0.37157241687929571 1 I I #
coedge $-1 $368 $368 $-1 $540 reversed $229 $-1 #
edge $-1 $541 0 $541 6.2831853071796004 $230 $542 forward 7 unknown #
vertex $-1 $233 $543 #
ellipse-curve $-1 57.962682186608205 -14.991842540375433 3.5661489552784214 0.74314483375859142 0 0.66913059716165679 0.3345652985808284 0 -0.37157241687929571 1 I I #
face $-1 $-1 $384 $51 $-1 $544 forward single #
loop $-1 $-1 $545 $234 #
plane-surface $-1 59.963988158818324 0 0 -1 0 0 0 0 1 forward_v I I I I #
coedge $-1 $546 $547 $548 $549 reversed $235 $-1 #
coedge $-1 $550 $237 $239 $382 forward $147 $-1 #
coedge $-1 $237 $550 $546 $551 forward $147 $-1 #
coedge $-1 $548 $240 $237 $379 forward $384 $-1 #
edge $-1 $386 -0.3514728506160365 $552 5.7872326626404522 $378 $553 forward 7 unknown #
coedge $-1 $554 $555 $238 $381 forward $373 $-1 #
edge $-1 $556 -84.013930496081571 $385 -79.568579467965748 $380 $557 forward 7 unknown #
edge $-1 $386 113.94616654627268 $556 119.92797631763668 $239 $558 forward 7 unknown #
coedge $-1 $240 $548 $554 $559 forward $384 $-1 #
loop $-1 $-1 $548 $372 #
vertex $-1 $381 $560 #
vertex $-1 $241 $561 #
straight-curve $-1 34.420182886291713 -2.3664070553961709 5.7888244693363333 -1 0 0 I I #
coedge $-1 $388 $388 $-1 $562 reversed $244 $-1 #
edge $-1 $563 0 $563 6.2831853071796004 $245 $564 forward 7 unknown #
vertex $-1 $248 $565 #
ellipse-curve $-1 57.962682186608205 -6.7511967077222366 3.5661489552784214 0.74314483375859142 0 0.66913059716165679 0.3345652985808284 0 -0.37157241687929571 1 I I #
coedge $-1 $392 $392 $-1 $566 reversed $251 $-1 #
edge $-1 $567 0 $567 6.2831853071796004 $252 $568 forward 7 unknown #
vertex $-1 $255 $569 #
ellipse-curve $-1 57.962682186608205 -4.1203229163266002 3.5661489552784214 0.74314483375859142 0 0.66913059716165679 0.3345652985808284 0 -0.37157241687929571 1 I I #
face $-1 $-1 $408 $54 $-1 $570 forward single #
loop $-1 $-1 $571 $256 #
plane-surface $-1 59.963988158818324 0 0 -1 0 0 0 0 1 forward_v I I I I #
coedge $-1 $572 $573 $574 $575 reversed $257 $-1 #
coedge $-1 $576 $259 $261 $406 forward $161 $-1 #
coedge $-1 $259 $576 $572 $577 forward $161 $-1 #
coedge $-1 $574 $262 $259 $403 forward $408 $-1 #
edge $-1 $410 -5.7872326626404558 $578 0.35147285061603295 $402 $579 forward 7 unknown #
coedge $-1 $580 $581 $260 $405 forward $397 $-1 #
edge $-1 $582 -84.013930496081571 $409 -79.568579467965748 $404 $583 forward 7 unknown #
edge $-1 $410 113.94616654627268 $582 119.92797631763668 $261 $584 forward 7 unknown #
coedge $-1 $262 $574 $580 $585 forward $408 $-1 #
loop $-1 $-1 $574 $396 #
vertex $-1 $405 $586 #
vertex $-1 $263 $587 #
straight-curve $-1 34.420182886291713 8.5051125686526667 5.7888244693363333 -1 0 0 I I #
coedge $-1 $412 $412 $-1 $588 reversed $266 $-1 #
edge $-1 $589 0 $589 6.2831853071796004 $267 $590 forward 7 unknown #
vertex $-1 $270 $591 #
ellipse-curve $-1 57.962682186608205 4.1203229163266002 3.5661489552784214 0.74314483375859142 0 0.66913059716165679 0.3345652985808284 0 -0.37157241687929571 1 I I #
coedge $-1 $416 $416 $-1 $592 reversed $273 $-1 #
edge $-1 $593 0 $593 6.2831853071796004 $274 $594 forward 7 unknown #
vertex $-1 $277 $595 #
ellipse-curve $-1 57.962682186608205 6.7511967077222366 3.5661489552784214 0.74314483375859142 0 0.66913059716165679 0.3345652985808284 0 -0.37157241687929571 1 I I #
face $-1 $-1 $432 $57 $-1 $596 forward single #
loop $-1 $-1 $597 $278 #
plane-surface $-1 59.963988158818324 0 0 -1 0 0 0 0 1 forward_v I I I I #
coedge $-1 $598 $599 $600 $601 reversed $279 $-1 #
coedge $-1 $602 $281 $283 $430 forward $175 $-1 #
coedge $-1 $281 $602 $598 $603 forward $175 $-1 #
coedge $-1 $600 $284 $281 $427 forward $432 $-1 #
edge $-1 $434 -11.222992474664874 $604 -5.0842869614083845 $426 $605 forward 7 unknown #
coedge $-1 $606 $607 $282 $429 forward $421 $-1 #
edge $-1 $608 -84.013930496081571 $433 -79.568579467965748 $428 $609 forward 7 unknown #
edge $-1 $434 113.94616654627268 $608 119.92797631763668 $283 $610 forward 7 unknown #
coedge $-1 $284 $600 $606 $611 forward $432 $-1 #
loop $-1 $-1 $600 $420 #
vertex $-1 $429 $612 #
vertex $-1 $285 $613 #
straight-curve $-1 34.420182886291713 19.376632192701503 5.7888244693363333 -1 0 0 I I #
coedge $-1 $436 $436 $-1 $614 reversed $288 $-1 #
edge $-1 $615 0 $615 6.2831853071796004 $289 $616 forward 7 unknown #
vertex $-1 $292 $617 #
ellipse-curve $-1 57.962682186608205 14.991842540375437 3.5661489552784214 0.74314483375859142 0 0.66913059716165679 0.3345652985808284 0 -0.37157241687929571 1 I I #
coedge $-1 $440 $440 $-1 $618 reversed $295 $-1 #
edge $-1 $619 0 $619 6.2831853071796004 $296 $620 forward 7 unknown #
vertex $-1 $299 $621 #
ellipse-curve $-1 57.962682186608205 17.622716331771073 3.5661489552784214 0.74314483375859142 0 0.66913059716165679 0.3345652985808284 0 -0.37157241687929571 1 I I #
face $-1 $-1 $465 $45 $-1 $622 reversed single #
loop $-1 $-1 $309 $300 #
plane-surface $-1 -59.963988158818324 0 0 1 0 0 0 0 -1 forward_v I I I I #
coedge $-1 $623 $303 $308 $459 forward $189 $-1 #
coedge $-1 $303 $623 $451 $624 forward $189 $-1 #
coedge $-1 $452 $311 $303 $450 reversed $465 $-1 #
edge $-1 $625 -26.933194852363926 $466 26.933194852363926 $449 $626 forward 7 unknown #
coedge $-1 $305 $304 $448 $624 reversed $121 $-1 #
coedge $-1 $464 $449 $304 $453 forward $465 $-1 #
edge $-1 $625 -5.7888244693363271 $456 5.7888244693363271 $452 $627 forward 7 unknown #
coedge $-1 $461 $460 $305 $455 reversed $445 $-1 #
edge $-1 $628 -5.7888244693363271 $457 5.7888244693363271 $454 $629 forward 7 unknown #
vertex $-1 $453 $630 #
vertex $-1 $469 $631 #
straight-curve $-1 0 -26.933194852363926 -5.7888244693363271 -1 0 0 I I #
edge $-1 $466 -59.963988158818324 $462 59.963988158818324 $308 $632 forward 7 unknown #
coedge $-1 $454 $309 $314 $469 reversed $445 $-1 #
coedge $-1 $309 $454 $623 $633 reversed $445 $-1 #
vertex $-1 $459 $634 #
straight-curve $-1 -59.963988158818324 26.933194852363926 0 0 0 -1 I I #
coedge $-1 $311 $452 $313 $468 reversed $465 $-1 #
loop $-1 $-1 $452 $444 #
vertex $-1 $450 $635 #
straight-curve $-1 59.963988158818324 26.933194852363926 0 0 0 -1 I I #
edge $-1 $316 -26.933194852363926 $456 26.933194852363926 $464 $636 forward 7 unknown #
edge $-1 $457 -26.933194852363926 $315 26.933194852363926 $460 $637 forward 7 unknown #
point $-1 -59.963988158818324 26.933194852363926 -5.7888244693363271 #
point $-1 59.963988158818324 26.933194852363926 -5.7888244693363271 #
face $-1 $-1 $489 $46 $-1 $638 forward single #
loop $-1 $-1 $639 $318 #
plane-surface $-1 -51.455937030591414 -29.692294838808142 0 -1 0 0 0 0 1 forward_v I I I I #
coedge $-1 $640 $321 $479 $641 reversed $197 $-1 #
coedge $-1 $321 $640 $642 $643 reversed $197 $-1 #
coedge $-1 $329 $328 $321 $478 reversed $319 $-1 #
edge $-1 $644 -5.7888244693363271 $645 5.7888244693363271 $477 $646 forward 7 unknown #
coedge $-1 $323 $322 $475 $641 forward $125 $-1 #
coedge $-1 $485 $639 $322 $481 reversed $473 $-1 #
edge $-1 $483 -2.7590999864442161 $647 2.7590999864442161 $480 $648 forward 7 unknown #
edge $-1 $645 -2.7590999864442161 $330 2.7590999864442161 $328 $649 forward 7 unknown #
vertex $-1 $481 $650 #
straight-curve $-1 0 -26.933194852363926 -5.7888244693363271 1 0 0 I I #
coedge $-1 $651 $480 $325 $486 reversed $473 $-1 #
edge $-1 $490 -5.7888244693363271 $483 5.7888244693363271 $485 $652 forward 7 unknown #
coedge $-1 $642 $326 $329 $492 forward $489 $-1 #
coedge $-1 $326 $642 $651 $653 forward $489 $-1 #
loop $-1 $-1 $326 $472 #
vertex $-1 $327 $654 #
straight-curve $-1 0 -26.933194852363926 5.7888244693363271 -1 0 0 I I #
edge $-1 $331 -2.7590999864442161 $644 2.7590999864442161 $329 $655 forward 7 unknown #
point $-1 -54.455937030591414 -26.933194852363926 -5.7888244693363271 #
point $-1 -54.455937030591414 -26.933194852363926 5.7888244693363271 #
face $-1 $-1 $511 $47 $-1 $656 forward single #
plane-surface $-1 -51.455937030591414 29.692294838808138 0 -1 0 0 0 0 1 forward_v I I I I #
coedge $-1 $657 $658 $514 $659 forward $334 $-1 #
coedge $-1 $507 $336 $337 $503 reversed $205 $-1 #
coedge $-1 $336 $507 $510 $660 reversed $205 $-1 #
coedge $-1 $658 $657 $336 $501 reversed $334 $-1 #
edge $-1 $661 -5.7888244693363271 $662 5.7888244693363271 $500 $663 forward 7 unknown #
coedge $-1 $338 $337 $657 $664 forward $129 $-1 #
edge $-1 $505 -2.7590999864442161 $662 2.7590999864442125 $498 $665 forward 7 unknown #
edge $-1 $666 -2.7590999864442125 $346 2.7590999864442161 $343 $667 forward 7 unknown #
vertex $-1 $503 $668 #
straight-curve $-1 0 26.933194852363926 -5.7888244693363271 -1 0 0 I I #
coedge $-1 $499 $498 $340 $508 reversed $205 $-1 #
edge $-1 $512 -5.7888244693363271 $505 5.7888244693363271 $507 $669 forward 7 unknown #
coedge $-1 $670 $341 $344 $515 forward $511 $-1 #
coedge $-1 $341 $670 $499 $660 forward $511 $-1 #
loop $-1 $-1 $341 $495 #
vertex $-1 $342 $671 #
straight-curve $-1 0 26.933194852363926 5.7888244693363271 1 0 0 I I #
coedge $-1 $344 $343 $497 $659 reversed $345 $-1 #
edge $-1 $347 -2.7590999864442161 $672 2.7590999864442125 $344 $673 forward 7 unknown #
point $-1 -51.455937030591414 26.933194852363922 -5.7888244693363271 #
point $-1 -51.455937030591414 26.933194852363922 5.7888244693363271 #
loop $-1 $-1 $357 $349 #
plane-surface $-1 59.963988158818324 0 0 -1 0 0 0 0 1 forward_v I I I I #
coedge $-1 $521 $352 $354 $525 reversed $213 $-1 #
coedge $-1 $352 $520 $674 $675 reversed $213 $-1 #
coedge $-1 $360 $355 $352 $523 forward $350 $-1 #
edge $-1 $526 21.541193328106374 $676 25.543805272526612 $522 $677 forward 7 unknown #
coedge $-1 $354 $353 $529 $678 reversed $133 $-1 #
edge $-1 $679 -119.92797631763668 $526 -113.94616654627268 $520 $680 forward 7 unknown #
vertex $-1 $356 $681 #
straight-curve $-1 55.961376214398086 -8.1536397180366258 5.7888244693363333 0 -1 0 I I #
coedge $-1 $674 $357 $360 $533 reversed $518 $-1 #
coedge $-1 $357 $674 $524 $678 forward $518 $-1 #
vertex $-1 $358 $682 #
straight-curve $-1 59.963988158818324 -13.237926679445007 85.357403937302081 0 0 1 I I #
straight-curve $-1 -20.283490250990951 -13.237926679445007 90.467329464794915 0.66913059716165679 0 -0.74314483375859142 I I #
edge $-1 $676 -19.376632192701496 $361 -13.237926679445007 $528 $683 forward 7 unknown #
point $-1 59.963988158818324 -13.237926679445007 5.7888244693363271 #
point $-1 55.961376214398086 -13.237926679445007 5.7888244693363333 #
edge $-1 $684 1 $684 0 $364 $-1 forward 7 unknown #
vertex $-1 $365 $685 #
ellipse-curve $-1 56.582329270044333 -17.62271633177107 2.3232736375792409 0.74314483375859142 0 0.66913059716165679 0.3345652985808284 0 -0.37157241687929571 1 I I #
point $-1 58.297247485189061 -17.62271633177107 3.1945765383991525 #
edge $-1 $686 1 $686 0 $368 $-1 forward 7 unknown #
vertex $-1 $369 $687 #
ellipse-curve $-1 56.582329270044333 -14.991842540375433 2.3232736375792409 0.74314483375859142 0 0.66913059716165679 0.3345652985808284 0 -0.37157241687929571 1 I I #
point $-1 58.297247485189061 -14.991842540375433 3.1945765383991525 #
plane-surface $-1 0 0 5.7888244693363271 0 0 1 1 0 0 forward_v I I I I #
coedge $-1 $555 $554 $547 $688 forward $373 $-1 #
coedge $-1 $547 $375 $377 $551 reversed $235 $-1 #
coedge $-1 $375 $546 $545 $688 reversed $235 $-1 #
coedge $-1 $383 $378 $375 $549 forward $384 $-1 #
edge $-1 $552 21.541193328106374 $689 25.543805272526612 $548 $690 forward 7 unknown #
coedge $-1 $377 $376 $555 $691 reversed $147 $-1 #
edge $-1 $692 -119.92797631763668 $552 -113.94616654627268 $546 $693 forward 7 unknown #
vertex $-1 $379 $694 #
straight-curve $-1 55.961376214398086 -2.7178799060122074 5.7888244693363333 0 -1 0 I I #
coedge $-1 $545 $380 $383 $559 reversed $373 $-1 #
coedge $-1 $380 $545 $550 $691 forward $373 $-1 #
vertex $-1 $381 $695 #
straight-curve $-1 59.963988158818324 -2.3664070553961709 85.357403937302081 0 0 1 I I #
straight-curve $-1 -20.283490250990951 -2.3664070553961709 90.467329464794915 0.66913059716165679 0 -0.74314483375859142 I I #
edge $-1 $689 -8.5051125686526596 $385 -2.3664070553961709 $554 $696 forward 7 unknown #
point $-1 59.963988158818324 -2.3664070553961709 5.7888244693363271 #
point $-1 55.961376214398086 -2.3664070553961709 5.7888244693363333 #
edge $-1 $697 1 $697 0 $388 $-1 forward 7 unknown #
vertex $-1 $389 $698 #
ellipse-curve $-1 56.582329270044333 -6.7511967077222366 2.3232736375792409 0.74314483375859142 0 0.66913059716165679 0.3345652985808284 0 -0.37157241687929571 1 I I #
point $-1 58.297247485189061 -6.7511967077222366 3.1945765383991525 #
edge $-1 $699 1 $699 0 $392 $-1 forward 7 unknown #
vertex $-1 $393 $700 #
ellipse-curve $-1 56.582329270044333 -4.1203229163266002 2.3232736375792409 0.74314483375859142 0 0.66913059716165679 0.3345652985808284 0 -0.37157241687929571 1 I I #
point $-1 58.297247485189061 -4.1203229163266002 3.1945765383991525 #
plane-surface $-1 0 0 5.7888244693363271 0 0 1 1 0 0 forward_v I I I I #
coedge $-1 $581 $580 $573 $701 forward $397 $-1 #
coedge $-1 $573 $399 $401 $577 reversed $257 $-1 #
coedge $-1 $399 $572 $571 $701 reversed $257 $-1 #
coedge $-1 $407 $402 $399 $575 forward $408 $-1 #
edge $-1 $578 21.541193328106374 $702 25.543805272526612 $574 $703 forward 7 unknown #
coedge $-1 $401 $400 $581 $704 reversed $161 $-1 #
edge $-1 $705 -119.92797631763668 $578 -113.94616654627268 $572 $706 forward 7 unknown #
vertex $-1 $403 $707 #
straight-curve $-1 55.961376214398086 2.717879906012211 5.7888244693363333 0 -1 0 I I #
coedge $-1 $571 $404 $407 $585 reversed $397 $-1 #
coedge $-1 $404 $571 $576 $704 forward $397 $-1 #
vertex $-1 $405 $708 #
straight-curve $-1 59.963988158818324 8.5051125686526667 85.357403937302081 0 0 1 I I #
straight-curve $-1 -20.283490250990951 8.5051125686526667 90.467329464794915 0.66913059716165679 0 -0.74314483375859142 I I #
edge $-1 $702 2.366407055396178 $409 8.5051125686526667 $580 $709 forward 7 unknown #
point $-1 59.963988158818324 8.5051125686526667 5.7888244693363271 #
point $-1 55.961376214398086 8.5051125686526667 5.7888244693363333 #
edge $-1 $710 1 $710 0 $412 $-1 forward 7 unknown #
vertex $-1 $413 $711 #
ellipse-curve $-1 56.582329270044333 4.1203229163266002 2.3232736375792409 0.74314483375859142 0 0.66913059716165679 0.3345652985808284 0 -0.37157241687929571 1 I I #
point $-1 58.297247485189061 4.1203229163266002 3.1945765383991525 #
edge $-1 $712 1 $712 0 $416 $-1 forward 7 unknown #
vertex $-1 $417 $713 #
ellipse-curve $-1 56.582329270044333 6.7511967077222366 2.3232736375792409 0.74314483375859142 0 0.66913059716165679 0.3345652985808284 0 -0.37157241687929571 1 I I #
point $-1 58.297247485189061 6.7511967077222366 3.1945765383991525 #
plane-surface $-1 0 0 5.7888244693363271 0 0 1 1 0 0 forward_v I I I I #
coedge $-1 $607 $606 $599 $714 forward $421 $-1 #
coedge $-1 $599 $423 $425 $603 reversed $279 $-1 #
coedge $-1 $423 $598 $597 $714 reversed $279 $-1 #
coedge $-1 $431 $426 $423 $601 forward $432 $-1 #
edge $-1 $604 21.541193328106374 $715 25.543805272526612 $600 $716 forward 7 unknown #
coedge $-1 $425 $424 $607 $717 reversed $175 $-1 #
edge $-1 $718 -119.92797631763668 $604 -113.94616654627268 $598 $719 forward 7 unknown #
vertex $-1 $427 $720 #
straight-curve $-1 55.961376214398086 8.1536397180366293 5.7888244693363333 0 -1 0 I I #
coedge $-1 $597 $428 $431 $611 reversed $421 $-1 #
coedge $-1 $428 $597 $602 $717 forward $421 $-1 #
vertex $-1 $429 $721 #
straight-curve $-1 59.963988158818324 19.376632192701503 85.357403937302081 0 0 1 I I #
straight-curve $-1 -20.283490250990951 19.376632192701503 90.467329464794915 0.66913059716165679 0 -0.74314483375859142 I I #
edge $-1 $715 13.237926679445014 $433 19.376632192701503 $606 $722 forward 7 unknown #
point $-1 59.963988158818324 19.376632192701503 5.7888244693363271 #
point $-1 55.961376214398086 19.376632192701503 5.7888244693363333 #
edge $-1 $723 1 $723 0 $436 $-1 forward 7 unknown #
vertex $-1 $437 $724 #
ellipse-curve $-1 56.582329270044333 14.991842540375437 2.3232736375792409 0.74314483375859142 0 0.66913059716165679 0.3345652985808284 0 -0.37157241687929571 1 I I #
point $-1 58.297247485189061 14.991842540375437 3.1945765383991525 #
edge $-1 $725 1 $725 0 $440 $-1 forward 7 unknown #
vertex $-1 $441 $726 #
ellipse-curve $-1 56.582329270044333 17.622716331771073 2.3232736375792409 0.74314483375859142 0 0.66913059716165679 0.3345652985808284 0 -0.37157241687929571 1 I I #
point $-1 58.297247485189061 17.622716331771073 3.1945765383991525 #
plane-surface $-1 59.963988158818324 0 0 -1 0 0 0 0 1 forward_v I I I I #
coedge $-1 $448 $447 $461 $633 forward $189 $-1 #
edge $-1 $628 -59.963988158818324 $625 59.963988158818324 $451 $727 forward 7 unknown #
vertex $-1 $450 $728 #
straight-curve $-1 59.963988158818324 0 5.7888244693363271 0 1 0 I I #
straight-curve $-1 59.963988158818324 -26.933194852363926 0 0 0 -1 I I #
vertex $-1 $633 $729 #
straight-curve $-1 -59.963988158818324 -26.933194852363926 0 0 0 -1 I I #
point $-1 59.963988158818324 -26.933194852363926 -5.7888244693363271 #
point $-1 -59.963988158818324 -26.933194852363926 -5.7888244693363271 #
straight-curve $-1 0 26.933194852363926 5.7888244693363271 -1 0 0 I I #
edge $-1 $462 -26.933194852363926 $628 26.933194852363926 $461 $730 forward 7 unknown #
point $-1 -59.963988158818324 26.933194852363926 5.7888244693363271 #
point $-1 59.963988158818324 26.933194852363926 5.7888244693363271 #
straight-curve $-1 59.963988158818324 0 -5.7888244693363271 0 -1 0 I I #
straight-curve $-1 -59.963988158818324 0 -5.7888244693363271 0 1 0 I I #
plane-surface $-1 0 0 5.7888244693363271 0 0 1 1 0 0 forward_v I I I I #
coedge $-1 $480 $651 $640 $731 forward $473 $-1 #
coedge $-1 $476 $475 $639 $731 reversed $197 $-1 #
edge $-1 $647 -1.5 $645 1.5 $475 $732 forward 7 unknown #
coedge $-1 $488 $487 $476 $643 forward $489 $-1 #
edge $-1 $644 -1.5 $733 1.5 $476 $734 forward 7 unknown #
vertex $-1 $492 $735 #
vertex $-1 $482 $736 #
straight-curve $-1 -54.455937030591414 -32.451394825252358 0 0 0 -1 I I #
vertex $-1 $731 $737 #
straight-curve $-1 -51.455937030591414 -29.692294838808142 -5.7888244693363271 0 -1 0 I I #
straight-curve $-1 -54.455937030591414 -29.692294838808142 -5.7888244693363271 0 1 0 I I #
point $-1 -51.455937030591414 -26.933194852363926 -5.7888244693363271 #
coedge $-1 $639 $485 $488 $653 reversed $473 $-1 #
straight-curve $-1 -51.455937030591414 -26.933194852363926 0 0 0 -1 I I #
edge $-1 $733 -2.7590999864442161 $490 2.7590999864442161 $651 $738 forward 7 unknown #
point $-1 -51.455937030591414 -26.933194852363926 5.7888244693363271 #
straight-curve $-1 -54.455937030591414 -29.692294838808142 5.7888244693363271 0 -1 0 I I #
plane-surface $-1 0 0 5.7888244693363271 0 0 1 1 0 0 forward_v I I I I #
coedge $-1 $500 $497 $502 $664 reversed $334 $-1 #
coedge $-1 $497 $500 $670 $739 reversed $334 $-1 #
edge $-1 $672 -5.7888244693363271 $666 5.7888244693363271 $514 $740 forward 7 unknown #
edge $-1 $661 -2.7590999864442125 $512 2.7590999864442161 $499 $741 forward 7 unknown #
vertex $-1 $739 $742 #
vertex $-1 $664 $743 #
straight-curve $-1 -54.455937030591414 32.451394825252351 0 0 0 -1 I I #
edge $-1 $662 -1.5 $666 1.5 $657 $744 forward 7 unknown #
straight-curve $-1 -54.455937030591414 29.692294838808138 -5.7888244693363271 0 1 0 I I #
vertex $-1 $504 $745 #
straight-curve $-1 -51.455937030591414 29.692294838808138 -5.7888244693363271 0 -1 0 I I #
point $-1 -54.455937030591414 26.933194852363922 -5.7888244693363271 #
straight-curve $-1 -54.455937030591414 26.933194852363926 0 0 0 -1 I I #
coedge $-1 $510 $509 $658 $739 forward $511 $-1 #
point $-1 -54.455937030591414 26.933194852363922 5.7888244693363271 #
vertex $-1 $515 $746 #
straight-curve $-1 -51.455937030591414 29.692294838808138 5.7888244693363271 0 1 0 I I #
coedge $-1 $529 $528 $521 $675 forward $518 $-1 #
edge $-1 $676 79.568579467965748 $679 84.013930496081571 $674 $747 forward 7 unknown #
vertex $-1 $533 $748 #
straight-curve $-1 34.420182886291713 -19.376632192701496 5.7888244693363333 1 0 0 I I #
edge $-1 $679 -11.222992474664871 $530 -5.084286961408381 $529 $749 forward 7 unknown #
vertex $-1 $678 $750 #
straight-curve $-1 -20.283490250990951 -19.376632192701496 90.467329464794915 -0.66913059716165679 0 0.74314483375859142 I I #
point $-1 55.961376214398086 -19.376632192701496 5.7888244693363333 #
point $-1 59.963988158818324 -13.237926679445007 1.3434734412205103 #
straight-curve $-1 59.963988158818324 0 5.7888244693363271 0 1 0 I I #
vertex $-1 $536 $751 #
point $-1 56.916894568625167 -17.62271633177107 1.9517012206999453 #
vertex $-1 $540 $752 #
point $-1 56.916894568625167 -14.991842540375433 1.9517012206999453 #
edge $-1 $689 79.568579467965748 $692 84.013930496081571 $545 $753 forward 7 unknown #
vertex $-1 $559 $754 #
straight-curve $-1 34.420182886291713 -8.5051125686526596 5.7888244693363333 1 0 0 I I #
edge $-1 $692 -5.7872326626404522 $556 0.3514728506160365 $555 $755 forward 7 unknown #
vertex $-1 $691 $756 #
straight-curve $-1 -20.283490250990951 -8.5051125686526596 90.467329464794915 -0.66913059716165679 0 0.74314483375859142 I I #
point $-1 55.961376214398086 -8.5051125686526596 5.7888244693363333 #
point $-1 59.963988158818324 -2.3664070553961709 1.3434734412205103 #
straight-curve $-1 59.963988158818324 0 5.7888244693363271 0 1 0 I I #
vertex $-1 $562 $757 #
point $-1 56.916894568625167 -6.7511967077222366 1.9517012206999453 #
vertex $-1 $566 $758 #
point $-1 56.916894568625167 -4.1203229163266002 1.9517012206999453 #
edge $-1 $702 79.568579467965748 $705 84.013930496081571 $571 $759 forward 7 unknown #
vertex $-1 $585 $760 #
straight-curve $-1 34.420182886291713 2.366407055396178 5.7888244693363333 1 0 0 I I #
edge $-1 $705 -0.35147285061603295 $582 5.7872326626404558 $581 $761 forward 7 unknown #
vertex $-1 $704 $762 #
straight-curve $-1 -20.283490250990951 2.366407055396178 90.467329464794915 -0.66913059716165679 0 0.74314483375859142 I I #
point $-1 55.961376214398086 2.366407055396178 5.7888244693363333 #
point $-1 59.963988158818324 8.5051125686526667 1.3434734412205103 #
straight-curve $-1 59.963988158818324 0 5.7888244693363271 0 1 0 I I #
vertex $-1 $588 $763 #
point $-1 56.916894568625167 4.1203229163266002 1.9517012206999453 #
vertex $-1 $592 $764 #
point $-1 56.916894568625167 6.7511967077222366 1.9517012206999453 #
edge $-1 $715 79.568579467965748 $718 84.013930496081571 $597 $765 forward 7 unknown #
vertex $-1 $611 $766 #
straight-curve $-1 34.420182886291713 13.237926679445014 5.7888244693363333 1 0 0 I I #
edge $-1 $718 5.0842869614083845 $608 11.222992474664874 $607 $767 forward 7 unknown #
vertex $-1 $717 $768 #
straight-curve $-1 -20.283490250990951 13.237926679445014 90.467329464794915 -0.66913059716165679 0 0.74314483375859142 I I #
point $-1 55.961376214398086 13.237926679445014 5.7888244693363333 #
point $-1 59.963988158818324 19.376632192701503 1.3434734412205103 #
straight-curve $-1 59.963988158818324 0 5.7888244693363271 0 1 0 I I #
vertex $-1 $614 $769 #
point $-1 56.916894568625167 14.991842540375437 1.9517012206999453 #
vertex $-1 $618 $770 #
point $-1 56.916894568625167 17.622716331771073 1.9517012206999453 #
straight-curve $-1 0 -26.933194852363926 5.7888244693363271 1 0 0 I I #
point $-1 59.963988158818324 -26.933194852363926 5.7888244693363271 #
point $-1 -59.963988158818324 -26.933194852363926 5.7888244693363271 #
straight-curve $-1 -59.963988158818324 0 5.7888244693363271 0 -1 0 I I #
edge $-1 $733 -5.7888244693363271 $647 5.7888244693363271 $639 $771 forward 7 unknown #
straight-curve $-1 -52.955937030591414 -32.451394825252358 -5.7888244693363271 -1 0 0 I I #
vertex $-1 $653 $772 #
straight-curve $-1 -52.955937030591414 -32.451394825252358 5.7888244693363271 1 0 0 I I #
point $-1 -54.455937030591414 -32.451394825252358 5.7888244693363271 #
point $-1 -54.455937030591414 -32.451394825252358 -5.7888244693363271 #
point $-1 -51.455937030591414 -32.451394825252358 -5.7888244693363271 #
straight-curve $-1 -51.455937030591414 -29.692294838808142 5.7888244693363271 0 1 0 I I #
edge $-1 $672 -1.5 $661 1.5 $658 $773 forward 7 unknown #
straight-curve $-1 -51.455937030591414 32.451394825252351 0 0 0 -1 I I #
straight-curve $-1 -54.455937030591414 29.692294838808138 5.7888244693363271 0 -1 0 I I #
point $-1 -54.455937030591414 32.451394825252351 5.7888244693363271 #
point $-1 -54.455937030591414 32.451394825252351 -5.7888244693363271 #
straight-curve $-1 -52.955937030591414 32.451394825252351 -5.7888244693363271 1 0 0 I I #
point $-1 -51.455937030591414 32.451394825252351 -5.7888244693363271 #
point $-1 -51.455937030591414 32.451394825252351 5.7888244693363271 #
straight-curve $-1 59.963988158818324 -19.376632192701496 85.357403937302081 0 0 -1 I I #
point $-1 59.963988158818324 -19.376632192701496 5.7888244693363271 #
straight-curve $-1 59.963988158818324 -8.1536397180366258 1.3434734412205032 0 1 0 I I #
point $-1 59.963988158818324 -19.376632192701496 1.3434734412205103 #
point $-1 56.210756853165044 -17.62271633177107 1.9887083389984126 #
point $-1 56.210756853165044 -14.991842540375433 1.9887083389984126 #
straight-curve $-1 59.963988158818324 -8.5051125686526596 85.357403937302081 0 0 -1 I I #
point $-1 59.963988158818324 -8.5051125686526596 5.7888244693363271 #
straight-curve $-1 59.963988158818324 -2.7178799060122074 1.3434734412205032 0 1 0 I I #
point $-1 59.963988158818324 -8.5051125686526596 1.3434734412205103 #
point $-1 56.210756853165044 -6.7511967077222366 1.9887083389984126 #
point $-1 56.210756853165044 -4.1203229163266002 1.9887083389984126 #
straight-curve $-1 59.963988158818324 2.366407055396178 85.357403937302081 0 0 -1 I I #
point $-1 59.963988158818324 2.366407055396178 5.7888244693363271 #
straight-curve $-1 59.963988158818324 2.717879906012211 1.3434734412205032 0 1 0 I I #
point $-1 59.963988158818324 2.366407055396178 1.3434734412205103 #
point $-1 56.210756853165044 4.1203229163266002 1.9887083389984126 #
point $-1 56.210756853165044 6.7511967077222366 1.9887083389984126 #
straight-curve $-1 59.963988158818324 13.237926679445014 85.357403937302081 0 0 -1 I I #
point $-1 59.963988158818324 13.237926679445014 5.7888244693363271 #
straight-curve $-1 59.963988158818324 8.1536397180366293 1.3434734412205032 0 1 0 I I #
point $-1 59.963988158818324 13.237926679445014 1.3434734412205103 #
point $-1 56.210756853165044 14.991842540375437 1.9887083389984126 #
point $-1 56.210756853165044 17.622716331771073 1.9887083389984126 #
straight-curve $-1 -51.455937030591414 -32.451394825252358 0 0 0 -1 I I #
point $-1 -51.455937030591414 -32.451394825252358 5.7888244693363271 #
straight-curve $-1 -52.955937030591414 32.451394825252351 5.7888244693363271 -1 0 0 I I #
End-of-ACIS-data 