500 0 11 0           
7 Unknown 11 ACIS 5.0 NT 24 Thu Mar 25 23:24:08 1999 
-1 9.9999999999999995e-007 1e-010 
body $-1 $11 $-1 $12 #
body $-1 $13 $-1 $14 #
body $-1 $15 $-1 $16 #
body $-1 $17 $-1 $18 #
body $-1 $19 $-1 $20 #
body $-1 $21 $-1 $22 #
body $-1 $23 $-1 $24 #
body $-1 $25 $-1 $26 #
body $-1 $27 $-1 $28 #
body $-1 $29 $-1 $30 #
body $-1 $31 $-1 $32 #
lump $-1 $-1 $33 $0 #
transform $-1 1 0 0 0 1 0 0 0 1 43.955198828089237 26.820760211460719 6.0716071968917564 1 rotate no_reflect no_shear #
lump $-1 $-1 $34 $1 #
transform $-1 1 0 0 0 1 0 0 0 1 43.955198828089237 26.820760211460719 6.0716071968917564 1 rotate no_reflect no_shear #
lump $-1 $-1 $35 $2 #
transform $-1 1 0 0 0 1 0 0 0 1 43.955198828089237 26.820760211460719 6.0716071968917564 1 rotate no_reflect no_shear #
lump $-1 $-1 $36 $3 #
transform $-1 1 0 0 0 1 0 0 0 1 43.955198828089237 26.820760211460719 6.0716071968917564 1 rotate no_reflect no_shear #
lump $-1 $-1 $37 $4 #
transform $-1 1 0 0 0 1 0 0 0 1 43.955198828089237 26.820760211460719 6.0716071968917564 1 rotate no_reflect no_shear #
lump $-1 $-1 $38 $5 #
transform $-1 1 0 0 0 1 0 0 0 1 43.955198828089237 26.820760211460719 6.0716071968917564 1 rotate no_reflect no_shear #
lump $-1 $-1 $39 $6 #
transform $-1 1 0 0 0 1 0 0 0 1 43.955198828089237 26.820760211460719 6.0716071968917564 1 rotate no_reflect no_shear #
lump $-1 $-1 $40 $7 #
transform $-1 1 0 0 0 1 0 0 0 1 43.955198828089237 26.820760211460719 6.0716071968917564 1 rotate no_reflect no_shear #
lump $-1 $-1 $41 $8 #
transform $-1 1 0 0 0 1 0 0 0 1 43.955198828089237 26.820760211460719 6.0716071968917564 1 rotate no_reflect no_shear #
lump $-1 $-1 $42 $9 #
transform $-1 1 0 0 0 1 0 0 0 1 43.955198828089237 26.820760211460719 6.0716071968917564 1 rotate no_reflect no_shear #
lump $-1 $-1 $43 $10 #
transform $-1 1 0 0 0 1 0 0 0 1 43.955198828089237 26.820760211460719 6.0716071968917564 1 rotate no_reflect no_shear #
shell $-1 $-1 $-1 $44 $-1 $11 #
shell $-1 $-1 $-1 $45 $-1 $13 #
shell $-1 $-1 $-1 $46 $-1 $15 #
shell $-1 $-1 $-1 $47 $-1 $17 #
shell $-1 $-1 $-1 $48 $-1 $19 #
shell $-1 $-1 $-1 $49 $-1 $21 #
shell $-1 $-1 $-1 $50 $-1 $23 #
shell $-1 $-1 $-1 $51 $-1 $25 #
shell $-1 $-1 $-1 $52 $-1 $27 #
shell $-1 $-1 $-1 $53 $-1 $29 #
shell $-1 $-1 $-1 $54 $-1 $31 #
face $-1 $55 $56 $33 $-1 $57 forward single #
face $-1 $58 $59 $34 $-1 $60 reversed single #
face $-1 $61 $62 $35 $-1 $63 forward single #
face $-1 $64 $65 $36 $-1 $66 forward single #
face $-1 $67 $68 $37 $-1 $69 reversed single #
face $-1 $70 $71 $38 $-1 $72 forward single #
face $-1 $73 $74 $39 $-1 $75 forward single #
face $-1 $76 $77 $40 $-1 $78 reversed single #
face $-1 $79 $80 $41 $-1 $81 forward single #
face $-1 $82 $83 $42 $-1 $84 reversed single #
face $-1 $85 $86 $43 $-1 $87 forward single #
face $-1 $88 $89 $33 $-1 $90 reversed single #
loop $-1 $-1 $91 $44 #
plane-surface $-1 0 0 6.0716071968917564 0 0 1 1 0 0 forward_v I I I I #
face $-1 $92 $93 $34 $-1 $94 reversed single #
loop $-1 $-1 $95 $45 #
plane-surface $-1 -19.30020504345887 31.508795744364523 105.43863703190395 1 0 0 0 -0.55919291073839883 -0.82903756765294845 forward_v I I I I #
face $-1 $96 $97 $35 $-1 $98 forward single #
loop $-1 $99 $100 $46 #
cone-surface $-1 -13.78586074532776 22.761958176440817 2.1566231788248915 0 -0.55919291073839883 -0.82903756765294845 1.5 0 0 1 I I 0 1 1.5 forward I I I I #
face $-1 $101 $102 $36 $-1 $103 forward single #
loop $-1 $104 $105 $47 #
cone-surface $-1 -5.5143442981311068 22.761958176440817 2.1566231788248915 0 -0.55919291073839883 -0.82903756765294845 1.5 0 0 1 I I 0 1 1.5 forward I I I I #
face $-1 $106 $107 $37 $-1 $108 reversed single #
loop $-1 $-1 $109 $48 #
plane-surface $-1 -9.6501025217294369 -17.650075405164035 32.557614787622285 0 0.55919291073839883 0.82903756765294845 1 0 0 forward_v I I I I #
face $-1 $110 $111 $38 $-1 $112 forward single #
loop $-1 $113 $114 $49 #
cone-surface $-1 5.5143442981310997 22.761958176440817 2.1566231788248915 0 -0.55919291073839883 -0.82903756765294845 1.5 0 0 1 I I 0 1 1.5 forward I I I I #
face $-1 $115 $116 $39 $-1 $117 forward single #
loop $-1 $118 $119 $50 #
cone-surface $-1 13.785860745327753 22.761958176440817 2.1566231788248915 0 -0.55919291073839883 -0.82903756765294845 1.5 0 0 1 I I 0 1 1.5 forward I I I I #
face $-1 $120 $121 $40 $-1 $122 reversed single #
loop $-1 $-1 $123 $51 #
plane-surface $-1 -19.562456396850457 -103.70892713433555 44.003514325550519 -1 0 0 0 -0.87461971476443456 0.48480960649040278 forward_v I I I I #
face $-1 $124 $125 $41 $-1 $126 forward single #
loop $-1 $127 $128 $52 #
cone-surface $-1 -25.249789886991451 -24.887150546847082 3.3760390981381039 0 0.87461971476443456 -0.48480960649040278 1 0 0 1 I I 0 1 1 forward I I I I #
face $-1 $129 $130 $42 $-1 $131 reversed single #
loop $-1 $-1 $132 $53 #
plane-surface $-1 24.39274243123878 -103.70892713433555 44.003514325550519 -1 0 0 0 -0.87461971476443456 0.48480960649040278 forward_v I I I I #
face $-1 $133 $134 $43 $-1 $135 forward single #
loop $-1 $136 $137 $54 #
cone-surface $-1 18.705408941097787 -24.887150546847082 3.3760390981381039 0 0.87461971476443456 -0.48480960649040278 1 0 0 1 I I 0 1 1 forward I I I I #
face $-1 $138 $139 $33 $-1 $140 reversed single #
loop $-1 $-1 $141 $55 #
plane-surface $-1 0 0 -6.0716071968917564 0 0 1 1 0 0 forward_v I I I I #
coedge $-1 $142 $143 $144 $145 forward $56 $-1 #
face $-1 $146 $147 $34 $-1 $148 reversed single #
loop $-1 $-1 $149 $58 #
plane-surface $-1 -9.6501025217294369 -17.650075405164035 32.557614787622285 0 0.55919291073839883 0.82903756765294845 1 0 0 forward_v I I I I #
coedge $-1 $150 $151 $152 $153 reversed $59 $-1 #
face $-1 $-1 $154 $35 $-1 $155 forward single #
loop $-1 $156 $157 $61 #
cone-surface $-1 -13.78586074532776 20.885619105069079 -0.62516383948360321 0 -0.55919291073839883 -0.82903756765294845 0.75 0 0 1 I I -0.70710678118654757 0.70710678118654757 0.75 forward I I I I #
loop $-1 $-1 $158 $46 #
coedge $-1 $100 $100 $159 $160 reversed $62 $-1 #
face $-1 $-1 $161 $36 $-1 $162 forward single #
loop $-1 $163 $164 $64 #
cone-surface $-1 -5.5143442981311068 20.885619105069079 -0.62516383948360321 0 -0.55919291073839883 -0.82903756765294845 0.75 0 0 1 I I -0.70710678118654757 0.70710678118654757 0.75 forward I I I I #
loop $-1 $-1 $165 $47 #
coedge $-1 $105 $105 $166 $167 reversed $65 $-1 #
face $-1 $168 $169 $37 $-1 $170 forward single #
loop $-1 $-1 $171 $67 #
plane-surface $-1 19.300205043458856 31.508795744364523 105.43863703190395 -1 0 0 0 0.55919291073839883 0.82903756765294845 forward_v I I I I #
coedge $-1 $172 $173 $174 $175 reversed $68 $-1 #
face $-1 $-1 $176 $38 $-1 $177 forward single #
loop $-1 $178 $179 $70 #
cone-surface $-1 5.5143442981310997 20.885619105069079 -0.62516383948360321 0 -0.55919291073839883 -0.82903756765294845 0.75 0 0 1 I I -0.70710678118654757 0.70710678118654757 0.75 forward I I I I #
loop $-1 $-1 $180 $49 #
coedge $-1 $114 $114 $181 $182 reversed $71 $-1 #
face $-1 $-1 $183 $39 $-1 $184 forward single #
loop $-1 $185 $186 $73 #
cone-surface $-1 13.785860745327753 20.885619105069079 -0.62516383948360321 0 -0.55919291073839883 -0.82903756765294845 0.75 0 0 1 I I -0.70710678118654757 0.70710678118654757 0.75 forward I I I I #
loop $-1 $-1 $187 $50 #
coedge $-1 $119 $119 $188 $189 reversed $74 $-1 #
face $-1 $190 $191 $40 $-1 $192 reversed single #
loop $-1 $-1 $193 $76 #
plane-surface $-1 -25.249789886991451 -26.820760211460723 1.3837090314438072 0 -0.87461971476443456 0.48480960649040278 1 0 0 forward_v I I I I #
coedge $-1 $194 $195 $196 $197 reversed $77 $-1 #
face $-1 $-1 $198 $41 $-1 $199 forward single #
loop $-1 $200 $201 $79 #
cone-surface $-1 -25.249789886991451 -23.815503169356926 2.7820152788632253 0 0.87461971476443456 -0.48480960649040278 0.5 0 0 1 I I -0.70710678118654746 0.70710678118654746 0.5 forward I I I I #
loop $-1 $-1 $202 $52 #
coedge $-1 $128 $128 $203 $204 reversed $80 $-1 #
face $-1 $205 $206 $42 $-1 $207 reversed single #
loop $-1 $-1 $208 $82 #
plane-surface $-1 18.705408941097787 -26.820760211460723 1.3837090314438072 0 -0.87461971476443456 0.48480960649040278 1 0 0 forward_v I I I I #
coedge $-1 $209 $210 $211 $212 reversed $83 $-1 #
face $-1 $-1 $213 $43 $-1 $214 forward single #
loop $-1 $215 $216 $85 #
cone-surface $-1 18.705408941097787 -23.815503169356926 2.7820152788632253 0 0.87461971476443456 -0.48480960649040278 0.5 0 0 1 I I -0.70710678118654746 0.70710678118654746 0.5 forward I I I I #
loop $-1 $-1 $217 $54 #
coedge $-1 $137 $137 $218 $219 reversed $86 $-1 #
face $-1 $220 $221 $33 $-1 $222 reversed single #
loop $-1 $-1 $223 $88 #
plane-surface $-1 0 -26.820760211460719 0 0 1 0 0 0 1 forward_v I I I I #
coedge $-1 $224 $225 $226 $227 forward $89 $-1 #
coedge $-1 $228 $91 $229 $230 forward $56 $-1 #
coedge $-1 $91 $228 $231 $232 forward $56 $-1 #
coedge $-1 $233 $234 $91 $145 reversed $235 $-1 #
edge $-1 $236 -26.820760211460719 $237 26.820760211460719 $144 $238 forward 7 unknown #
face $-1 $239 $240 $34 $-1 $241 reversed single #
loop $-1 $-1 $242 $92 #
plane-surface $-1 -3.5527136788005009e-015 31.508795744364523 105.43863703190395 -1 0 0 0 0.55919291073839883 0.82903756765294845 forward_v I I I I #
coedge $-1 $243 $244 $245 $246 reversed $93 $-1 #
coedge $-1 $151 $95 $247 $248 reversed $59 $-1 #
coedge $-1 $95 $150 $243 $249 reversed $59 $-1 #
coedge $-1 $245 $250 $95 $153 forward $251 $-1 #
edge $-1 $252 -11.066362339278458 $253 -5.8626470458744908 $152 $254 forward 7 unknown #
loop $-1 $-1 $159 $96 #
plane-surface $-1 -9.6501025217294369 -17.650075405164035 32.557614787622285 0 0.55919291073839883 0.82903756765294845 1 0 0 forward_v I I I I #
loop $-1 $-1 $255 $61 #
coedge $-1 $157 $157 $158 $256 reversed $97 $-1 #
coedge $-1 $158 $158 $157 $256 forward $99 $-1 #
coedge $-1 $159 $159 $100 $160 forward $154 $-1 #
edge $-1 $257 -4.0039941270357637e-016 $257 6.2831853071796004 $159 $258 forward 7 unknown #
loop $-1 $-1 $166 $101 #
plane-surface $-1 -9.6501025217294369 -17.650075405164035 32.557614787622285 0 0.55919291073839883 0.82903756765294845 1 0 0 forward_v I I I I #
loop $-1 $-1 $259 $64 #
coedge $-1 $164 $164 $165 $260 reversed $102 $-1 #
coedge $-1 $165 $165 $164 $260 forward $104 $-1 #
coedge $-1 $166 $166 $105 $167 forward $161 $-1 #
edge $-1 $261 -4.0039941270357637e-016 $261 6.2831853071796004 $166 $262 forward 7 unknown #
face $-1 $263 $264 $37 $-1 $265 forward single #
loop $-1 $-1 $266 $106 #
plane-surface $-1 0 0 6.0716071968917564 0 0 1 1 0 0 forward_v I I I I #
coedge $-1 $267 $268 $269 $270 reversed $107 $-1 #
coedge $-1 $271 $109 $272 $273 reversed $68 $-1 #
coedge $-1 $109 $271 $266 $274 reversed $68 $-1 #
coedge $-1 $275 $276 $109 $175 forward $264 $-1 #
edge $-1 $277 -53.641520422921445 $278 -47.364705599998558 $174 $279 forward 7 unknown #
loop $-1 $-1 $181 $110 #
plane-surface $-1 -9.6501025217294369 -17.650075405164035 32.557614787622285 0 0.55919291073839883 0.82903756765294845 1 0 0 forward_v I I I I #
loop $-1 $-1 $280 $70 #
coedge $-1 $179 $179 $180 $281 reversed $111 $-1 #
coedge $-1 $180 $180 $179 $281 forward $113 $-1 #
coedge $-1 $181 $181 $114 $182 forward $176 $-1 #
edge $-1 $282 -4.0039941270357637e-016 $282 6.2831853071796004 $181 $283 forward 7 unknown #
loop $-1 $-1 $188 $115 #
plane-surface $-1 -9.6501025217294369 -17.650075405164035 32.557614787622285 0 0.55919291073839883 0.82903756765294845 1 0 0 forward_v I I I I #
loop $-1 $-1 $284 $73 #
coedge $-1 $186 $186 $187 $285 reversed $116 $-1 #
coedge $-1 $187 $187 $186 $285 forward $118 $-1 #
coedge $-1 $188 $188 $119 $189 forward $183 $-1 #
edge $-1 $286 -4.0039941270357637e-016 $286 6.2831853071796004 $188 $287 forward 7 unknown #
face $-1 $288 $289 $40 $-1 $290 reversed single #
loop $-1 $-1 $291 $120 #
plane-surface $-1 -30.937123377132444 -103.70892713433555 44.003514325550519 1 0 0 0 0.87461971476443456 -0.48480960649040278 forward_v I I I I #
coedge $-1 $292 $293 $294 $295 reversed $121 $-1 #
coedge $-1 $195 $123 $296 $297 reversed $77 $-1 #
coedge $-1 $123 $194 $292 $298 reversed $77 $-1 #
coedge $-1 $294 $299 $123 $197 forward $300 $-1 #
edge $-1 $301 25.033703355707058 $302 27.632247644718454 $196 $303 forward 7 unknown #
loop $-1 $-1 $203 $124 #
plane-surface $-1 -25.249789886991451 -26.820760211460723 1.3837090314438072 0 -0.87461971476443456 0.48480960649040278 1 0 0 forward_v I I I I #
loop $-1 $-1 $304 $79 #
coedge $-1 $201 $201 $202 $305 reversed $125 $-1 #
coedge $-1 $202 $202 $201 $305 forward $127 $-1 #
coedge $-1 $203 $203 $128 $204 forward $198 $-1 #
edge $-1 $306 1.6875300839624263e-016 $306 6.2831853071796004 $203 $307 forward 7 unknown #
face $-1 $308 $309 $42 $-1 $310 reversed single #
loop $-1 $-1 $311 $129 #
plane-surface $-1 13.018075450956793 -103.70892713433555 44.003514325550519 1 0 0 0 0.87461971476443456 -0.48480960649040278 forward_v I I I I #
coedge $-1 $312 $313 $314 $315 reversed $130 $-1 #
coedge $-1 $210 $132 $316 $317 reversed $83 $-1 #
coedge $-1 $132 $209 $312 $318 reversed $83 $-1 #
coedge $-1 $314 $319 $132 $212 forward $320 $-1 #
edge $-1 $321 25.033703355707058 $322 27.632247644718454 $211 $323 forward 7 unknown #
loop $-1 $-1 $218 $133 #
plane-surface $-1 18.705408941097787 -26.820760211460723 1.3837090314438072 0 -0.87461971476443456 0.48480960649040278 1 0 0 forward_v I I I I #
loop $-1 $-1 $324 $85 #
coedge $-1 $216 $216 $217 $325 reversed $134 $-1 #
coedge $-1 $217 $217 $216 $325 forward $136 $-1 #
coedge $-1 $218 $218 $137 $219 forward $213 $-1 #
edge $-1 $326 1.6875300839624263e-016 $326 6.2831853071796004 $218 $327 forward 7 unknown #
face $-1 $328 $329 $33 $-1 $330 reversed single #
loop $-1 $-1 $331 $138 #
plane-surface $-1 -43.955198828089237 0 0 1 0 0 0 0 -1 forward_v I I I I #
coedge $-1 $332 $231 $333 $334 forward $139 $-1 #
coedge $-1 $335 $141 $332 $336 forward $89 $-1 #
coedge $-1 $141 $335 $337 $338 forward $89 $-1 #
coedge $-1 $234 $233 $141 $227 reversed $235 $-1 #
edge $-1 $339 -26.820760211460719 $340 26.820760211460719 $226 $341 forward 7 unknown #
coedge $-1 $143 $142 $342 $343 forward $56 $-1 #
coedge $-1 $344 $345 $142 $230 reversed $329 $-1 #
edge $-1 $237 -43.955198828089237 $346 43.955198828089237 $229 $347 forward 7 unknown #
coedge $-1 $223 $348 $143 $232 reversed $139 $-1 #
edge $-1 $349 -43.955198828089237 $236 43.955198828089237 $231 $350 forward 7 unknown #
coedge $-1 $226 $144 $348 $351 forward $235 $-1 #
coedge $-1 $144 $226 $344 $352 reversed $235 $-1 #
loop $-1 $-1 $233 $328 #
vertex $-1 $145 $353 #
vertex $-1 $145 $354 #
straight-curve $-1 43.955198828089237 0 6.0716071968917564 0 1 0 I I #
face $-1 $-1 $251 $34 $-1 $355 forward single #
loop $-1 $-1 $356 $146 #
plane-surface $-1 0 26.820760211460719 0 0 -1 0 0 0 -1 forward_v I I I I #
coedge $-1 $357 $358 $359 $360 reversed $147 $-1 #
coedge $-1 $361 $149 $151 $249 forward $93 $-1 #
coedge $-1 $149 $361 $357 $362 forward $93 $-1 #
coedge $-1 $359 $152 $149 $246 forward $251 $-1 #
edge $-1 $253 -14.475153782594152 $363 4.8250512608647149 $245 $364 forward 7 unknown #
coedge $-1 $365 $366 $150 $248 forward $240 $-1 #
edge $-1 $367 -50.157661670056399 $252 -46.647711319060221 $247 $368 forward 7 unknown #
edge $-1 $253 47.364705599998558 $367 53.641520422921445 $151 $369 forward 7 unknown #
coedge $-1 $152 $359 $365 $370 forward $251 $-1 #
loop $-1 $-1 $359 $239 #
vertex $-1 $248 $371 #
vertex $-1 $153 $372 #
straight-curve $-1 -19.30020504345887 15.754397872182262 6.0716071968917547 0 -1 0 I I #
coedge $-1 $255 $255 $-1 $373 reversed $156 $-1 #
edge $-1 $374 0 $374 6.2831853071796004 $157 $375 forward 7 unknown #
vertex $-1 $160 $376 #
ellipse-curve $-1 -13.78586074532776 24.218902564758746 4.3166320213936586 0 0.55919291073839883 0.82903756765294845 1.5 0 0 1 I I #
coedge $-1 $259 $259 $-1 $377 reversed $163 $-1 #
edge $-1 $378 0 $378 6.2831853071796004 $164 $379 forward 7 unknown #
vertex $-1 $167 $380 #
ellipse-curve $-1 -5.5143442981311068 24.218902564758746 4.3166320213936586 0 0.55919291073839883 0.82903756765294845 1.5 0 0 1 I I #
face $-1 $-1 $381 $37 $-1 $382 reversed single #
loop $-1 $-1 $275 $168 #
plane-surface $-1 -3.5527136788005009e-015 31.508795744364523 105.43863703190395 -1 0 0 0 0.55919291073839883 0.82903756765294845 forward_v I I I I #
coedge $-1 $269 $383 $173 $274 forward $169 $-1 #
coedge $-1 $268 $171 $271 $384 reversed $107 $-1 #
coedge $-1 $171 $267 $385 $386 reversed $107 $-1 #
coedge $-1 $387 $266 $171 $270 forward $169 $-1 #
edge $-1 $388 5.8626470458744908 $389 11.066362339278458 $269 $390 forward 7 unknown #
coedge $-1 $173 $172 $267 $384 forward $68 $-1 #
coedge $-1 $391 $385 $172 $273 forward $381 $-1 #
edge $-1 $392 -24.125256304323575 $277 -4.8250512608647149 $272 $393 forward 7 unknown #
edge $-1 $278 4.8250512608647149 $388 24.125256304323575 $266 $394 forward 7 unknown #
coedge $-1 $276 $174 $383 $395 reversed $264 $-1 #
coedge $-1 $174 $275 $391 $396 reversed $264 $-1 #
vertex $-1 $273 $397 #
vertex $-1 $274 $398 #
straight-curve $-1 -3.5527136788005009e-015 -17.650075405164035 32.557614787622285 0 -0.82903756765294845 0.55919291073839883 I I #
coedge $-1 $280 $280 $-1 $399 reversed $178 $-1 #
edge $-1 $400 0 $400 6.2831853071796004 $179 $401 forward 7 unknown #
vertex $-1 $182 $402 #
ellipse-curve $-1 5.5143442981310997 24.218902564758746 4.3166320213936586 0 0.55919291073839883 0.82903756765294845 1.5 0 0 1 I I #
coedge $-1 $284 $284 $-1 $403 reversed $185 $-1 #
edge $-1 $404 0 $404 6.2831853071796004 $186 $405 forward 7 unknown #
vertex $-1 $189 $406 #
ellipse-curve $-1 13.785860745327753 24.218902564758746 4.3166320213936586 0 0.55919291073839883 0.82903756765294845 1.5 0 0 1 I I #
face $-1 $-1 $300 $40 $-1 $407 forward single #
loop $-1 $-1 $408 $190 #
plane-surface $-1 0 -26.820760211460719 0 0 1 0 0 0 1 forward_v I I I I #
coedge $-1 $409 $410 $411 $412 reversed $191 $-1 #
coedge $-1 $413 $193 $195 $298 forward $121 $-1 #
coedge $-1 $193 $413 $409 $414 forward $121 $-1 #
coedge $-1 $411 $196 $193 $295 forward $300 $-1 #
edge $-1 $302 6.9375614533547321 $415 18.312228433636719 $294 $416 forward 7 unknown #
coedge $-1 $417 $418 $194 $297 forward $289 $-1 #
edge $-1 $419 -20.618048131331445 $301 -15.930149965883503 $296 $420 forward 7 unknown #
edge $-1 $302 -5.3599273905123015 $419 -7.3543228023032035e-015 $195 $421 forward 7 unknown #
coedge $-1 $196 $411 $417 $422 forward $300 $-1 #
loop $-1 $-1 $411 $288 #
vertex $-1 $297 $423 #
vertex $-1 $197 $424 #
straight-curve $-1 -19.562456396850457 -51.854463567167777 6.0716071968917547 0 1 0 I I #
coedge $-1 $304 $304 $-1 $425 reversed $200 $-1 #
edge $-1 $426 0 $426 6.2831853071796004 $201 $427 forward 7 unknown #
vertex $-1 $204 $428 #
ellipse-curve $-1 -25.249789886991451 -25.521488066955023 3.7276581141677827 0 -0.87461971476443456 0.48480960649040278 1 0 0 1 I I #
face $-1 $-1 $320 $42 $-1 $429 forward single #
loop $-1 $-1 $430 $205 #
plane-surface $-1 0 -26.820760211460719 0 0 1 0 0 0 1 forward_v I I I I #
coedge $-1 $431 $432 $433 $434 reversed $206 $-1 #
coedge $-1 $435 $208 $210 $318 forward $130 $-1 #
coedge $-1 $208 $435 $431 $436 forward $130 $-1 #
coedge $-1 $433 $211 $208 $315 forward $320 $-1 #
edge $-1 $322 -15.040037960689887 $437 -3.6653709804079 $314 $438 forward 7 unknown #
coedge $-1 $439 $440 $209 $317 forward $309 $-1 #
edge $-1 $441 -20.618048131331445 $321 -15.930149965883503 $316 $442 forward 7 unknown #
edge $-1 $322 -5.3599273905123015 $441 -7.3543228023032035e-015 $210 $443 forward 7 unknown #
coedge $-1 $211 $433 $439 $444 forward $320 $-1 #
loop $-1 $-1 $433 $308 #
vertex $-1 $317 $445 #
vertex $-1 $212 $446 #
straight-curve $-1 24.39274243123878 -51.854463567167777 6.0716071968917547 0 1 0 I I #
coedge $-1 $324 $324 $-1 $447 reversed $215 $-1 #
edge $-1 $448 0 $448 6.2831853071796004 $216 $449 forward 7 unknown #
vertex $-1 $219 $450 #
ellipse-curve $-1 18.705408941097787 -25.521488066955023 3.7276581141677827 0 -0.87461971476443456 0.48480960649040278 1 0 0 1 I I #
face $-1 $-1 $235 $33 $-1 $451 reversed single #
loop $-1 $-1 $344 $220 #
plane-surface $-1 0 26.820760211460719 0 0 -1 0 0 0 -1 forward_v I I I I #
coedge $-1 $452 $342 $345 $453 forward $221 $-1 #
coedge $-1 $348 $223 $224 $336 reversed $139 $-1 #
coedge $-1 $342 $452 $223 $334 reversed $221 $-1 #
edge $-1 $349 -6.0716071968917564 $454 6.0716071968917564 $333 $455 forward 7 unknown #
coedge $-1 $225 $224 $452 $456 forward $89 $-1 #
edge $-1 $340 -43.955198828089237 $454 43.955198828089237 $332 $457 forward 7 unknown #
coedge $-1 $345 $344 $225 $338 reversed $329 $-1 #
edge $-1 $458 -43.955198828089237 $339 43.955198828089237 $337 $459 forward 7 unknown #
vertex $-1 $227 $460 #
vertex $-1 $351 $461 #
straight-curve $-1 43.955198828089237 0 -6.0716071968917564 0 -1 0 I I #
coedge $-1 $331 $333 $228 $343 reversed $221 $-1 #
edge $-1 $346 -26.820760211460719 $349 26.820760211460719 $342 $462 forward 7 unknown #
coedge $-1 $337 $229 $234 $352 forward $329 $-1 #
coedge $-1 $229 $337 $331 $453 reversed $329 $-1 #
vertex $-1 $230 $463 #
straight-curve $-1 0 26.820760211460719 6.0716071968917564 -1 0 0 I I #
coedge $-1 $231 $332 $233 $351 reversed $139 $-1 #
vertex $-1 $343 $464 #
straight-curve $-1 0 -26.820760211460719 6.0716071968917564 1 0 0 I I #
edge $-1 $236 -6.0716071968917564 $340 6.0716071968917564 $233 $465 forward 7 unknown #
edge $-1 $237 -6.0716071968917564 $339 6.0716071968917564 $234 $466 forward 7 unknown #
point $-1 43.955198828089237 -26.820760211460719 6.0716071968917564 #
point $-1 43.955198828089237 26.820760211460719 6.0716071968917564 #
plane-surface $-1 0 0 6.0716071968917564 0 0 1 1 0 0 forward_v I I I I #
coedge $-1 $366 $365 $358 $467 forward $240 $-1 #
coedge $-1 $358 $242 $244 $362 reversed $147 $-1 #
coedge $-1 $242 $357 $356 $467 reversed $147 $-1 #
coedge $-1 $250 $245 $242 $360 forward $251 $-1 #
edge $-1 $363 5.8626470458744908 $468 11.066362339278458 $359 $469 forward 7 unknown #
coedge $-1 $244 $243 $366 $470 reversed $93 $-1 #
edge $-1 $471 -53.641520422921445 $363 -47.364705599998558 $357 $472 forward 7 unknown #
vertex $-1 $246 $473 #
straight-curve $-1 -4.8250512608647185 21.617044918056749 6.0716071968917582 1 0 0 I I #
coedge $-1 $356 $247 $250 $370 reversed $240 $-1 #
coedge $-1 $247 $356 $361 $470 forward $240 $-1 #
vertex $-1 $248 $474 #
straight-curve $-1 -19.30020504345887 26.820760211460719 52.719318515951976 0 0 1 I I #
straight-curve $-1 -19.30020504345887 -17.650075405164035 32.557614787622285 0 0.82903756765294845 -0.55919291073839883 I I #
edge $-1 $468 3.5527136788005009e-015 $252 19.30020504345887 $365 $475 forward 7 unknown #
point $-1 -19.30020504345887 26.820760211460719 6.0716071968917564 #
point $-1 -19.30020504345887 21.617044918056752 6.0716071968917547 #
edge $-1 $476 1 $476 0 $255 $-1 forward 7 unknown #
vertex $-1 $256 $477 #
ellipse-curve $-1 -13.78586074532776 21.305013788122878 -0.0033856637438918202 0 0.55919291073839883 0.82903756765294845 1.5 0 0 1 I I #
point $-1 -12.28586074532776 24.218902564758757 4.3166320213936755 #
edge $-1 $478 1 $478 0 $259 $-1 forward 7 unknown #
vertex $-1 $260 $479 #
ellipse-curve $-1 -5.5143442981311068 21.305013788122878 -0.0033856637438918202 0 0.55919291073839883 0.82903756765294845 1.5 0 0 1 I I #
point $-1 -4.0143442981311068 24.218902564758757 4.3166320213936755 #
loop $-1 $-1 $272 $263 #
plane-surface $-1 0 26.820760211460719 0 0 -1 0 0 0 -1 forward_v I I I I #
coedge $-1 $266 $387 $275 $395 forward $169 $-1 #
edge $-1 $392 -53.641520422921445 $388 -47.364705599998558 $267 $480 forward 7 unknown #
coedge $-1 $272 $481 $268 $386 forward $381 $-1 #
edge $-1 $389 46.647711319060221 $392 50.157661670056399 $385 $482 forward 7 unknown #
coedge $-1 $383 $269 $481 $483 forward $169 $-1 #
vertex $-1 $270 $484 #
vertex $-1 $483 $485 #
straight-curve $-1 19.300205043458856 15.754397872182262 6.0716071968917547 0 1 0 I I #
coedge $-1 $481 $272 $276 $396 forward $381 $-1 #
vertex $-1 $386 $486 #
straight-curve $-1 -4.8250512608647185 26.820760211460723 2.5616568458955751 -1 0 0 I I #
straight-curve $-1 -4.8250512608647185 21.617044918056749 6.0716071968917582 1 0 0 I I #
edge $-1 $487 -11.066362339278458 $278 -5.8626470458744908 $383 $488 forward 7 unknown #
edge $-1 $277 -50.157661670056399 $487 -46.647711319060221 $391 $489 forward 7 unknown #
point $-1 -3.5527136788005009e-015 26.820760211460719 2.5616568458955769 #
point $-1 -3.5527136788005009e-015 21.617044918056752 6.0716071968917547 #
edge $-1 $490 1 $490 0 $280 $-1 forward 7 unknown #
vertex $-1 $281 $491 #
ellipse-curve $-1 5.5143442981310997 21.305013788122878 -0.0033856637438918202 0 0.55919291073839883 0.82903756765294845 1.5 0 0 1 I I #
point $-1 7.0143442981310997 24.218902564758757 4.3166320213936755 #
edge $-1 $492 1 $492 0 $284 $-1 forward 7 unknown #
vertex $-1 $285 $493 #
ellipse-curve $-1 13.785860745327753 21.305013788122878 -0.0033856637438918202 0 0.55919291073839883 0.82903756765294845 1.5 0 0 1 I I #
point $-1 15.285860745327753 24.218902564758757 4.3166320213936755 #
plane-surface $-1 0 0 6.0716071968917564 0 0 1 1 0 0 forward_v I I I I #
coedge $-1 $418 $417 $410 $494 forward $289 $-1 #
coedge $-1 $410 $291 $293 $414 reversed $191 $-1 #
coedge $-1 $291 $409 $408 $494 reversed $191 $-1 #
coedge $-1 $299 $294 $291 $412 forward $300 $-1 #
edge $-1 $415 -27.632247644718454 $495 -25.033703355707058 $411 $496 forward 7 unknown #
coedge $-1 $293 $292 $418 $497 reversed $121 $-1 #
edge $-1 $498 7.3543228023032035e-015 $415 5.3599273905123015 $409 $499 forward 7 unknown #
vertex $-1 $295 $500 #
straight-curve $-1 -12.624894943495725 -24.222215922449323 6.0716071968917564 -1 0 0 I I #
coedge $-1 $408 $296 $299 $422 reversed $289 $-1 #
coedge $-1 $296 $408 $413 $497 forward $289 $-1 #
vertex $-1 $297 $501 #
straight-curve $-1 -19.562456396850457 -26.820760211460723 22.00175716277526 0 0 1 I I #
straight-curve $-1 -19.562456396850457 -26.820760211460723 1.3837090314438072 0 -0.48480960649040278 -0.87461971476443456 I I #
edge $-1 $495 -30.937123377132444 $301 -19.562456396850457 $417 $502 forward 7 unknown #
point $-1 -19.562456396850457 -26.820760211460719 6.0716071968917564 #
point $-1 -19.562456396850457 -24.222215922449323 6.0716071968917564 #
edge $-1 $503 1 $503 0 $304 $-1 forward 7 unknown #
vertex $-1 $305 $504 #
ellipse-curve $-1 -25.249789886991451 -24.252813026739144 3.0244200821084268 0 -0.87461971476443456 0.48480960649040278 1 0 0 1 I I #
point $-1 -24.249789886991451 -25.521488066955019 3.7276581141677809 #
plane-surface $-1 0 0 6.0716071968917564 0 0 1 1 0 0 forward_v I I I I #
coedge $-1 $440 $439 $432 $505 forward $309 $-1 #
coedge $-1 $432 $311 $313 $436 reversed $206 $-1 #
coedge $-1 $311 $431 $430 $505 reversed $206 $-1 #
coedge $-1 $319 $314 $311 $434 forward $320 $-1 #
edge $-1 $437 -27.632247644718454 $506 -25.033703355707058 $433 $507 forward 7 unknown #
coedge $-1 $313 $312 $440 $508 reversed $130 $-1 #
edge $-1 $509 7.3543228023032035e-015 $437 5.3599273905123015 $431 $510 forward 7 unknown #
vertex $-1 $315 $511 #
straight-curve $-1 9.3527044705488933 -24.222215922449323 6.0716071968917564 -1 0 0 I I #
coedge $-1 $430 $316 $319 $444 reversed $309 $-1 #
coedge $-1 $316 $430 $435 $508 forward $309 $-1 #
vertex $-1 $317 $512 #
straight-curve $-1 24.39274243123878 -26.820760211460723 22.00175716277526 0 0 1 I I #
straight-curve $-1 24.39274243123878 -26.820760211460723 1.3837090314438072 0 -0.48480960649040278 -0.87461971476443456 I I #
edge $-1 $506 13.018075450956793 $321 24.39274243123878 $439 $513 forward 7 unknown #
point $-1 24.39274243123878 -26.820760211460719 6.0716071968917564 #
point $-1 24.39274243123878 -24.222215922449323 6.0716071968917564 #
edge $-1 $514 1 $514 0 $324 $-1 forward 7 unknown #
vertex $-1 $325 $515 #
ellipse-curve $-1 18.705408941097787 -24.252813026739144 3.0244200821084268 0 -0.87461971476443456 0.48480960649040278 1 0 0 1 I I #
point $-1 19.705408941097787 -25.521488066955019 3.7276581141677809 #
plane-surface $-1 43.955198828089237 0 0 -1 0 0 0 0 1 forward_v I I I I #
coedge $-1 $333 $331 $335 $456 reversed $221 $-1 #
edge $-1 $346 -6.0716071968917564 $458 6.0716071968917564 $345 $516 forward 7 unknown #
vertex $-1 $456 $517 #
straight-curve $-1 -43.955198828089237 -26.820760211460719 0 0 0 -1 I I #
edge $-1 $454 -26.820760211460719 $458 26.820760211460719 $452 $518 forward 7 unknown #
straight-curve $-1 0 -26.820760211460719 -6.0716071968917564 -1 0 0 I I #
vertex $-1 $338 $519 #
straight-curve $-1 0 26.820760211460719 -6.0716071968917564 1 0 0 I I #
point $-1 43.955198828089237 26.820760211460719 -6.0716071968917564 #
point $-1 43.955198828089237 -26.820760211460719 -6.0716071968917564 #
straight-curve $-1 -43.955198828089237 0 6.0716071968917564 0 -1 0 I I #
point $-1 -43.955198828089237 26.820760211460719 6.0716071968917564 #
point $-1 -43.955198828089237 -26.820760211460719 6.0716071968917564 #
straight-curve $-1 43.955198828089237 -26.820760211460719 0 0 0 -1 I I #
straight-curve $-1 43.955198828089237 26.820760211460719 0 0 0 -1 I I #
edge $-1 $468 46.647711319060221 $471 50.157661670056399 $356 $520 forward 7 unknown #
vertex $-1 $370 $521 #
straight-curve $-1 -3.5527136788005009e-015 15.754397872182262 6.0716071968917547 0 1 0 I I #
edge $-1 $471 -4.8250512608647149 $367 14.475153782594152 $366 $522 forward 7 unknown #
vertex $-1 $470 $523 #
straight-curve $-1 -3.5527136788005009e-015 -17.650075405164035 32.557614787622285 0 -0.82903756765294845 0.55919291073839883 I I #
point $-1 -3.5527136788005009e-015 21.617044918056752 6.0716071968917547 #
point $-1 -19.30020504345887 26.820760211460719 2.5616568458955769 #
straight-curve $-1 0 26.820760211460719 6.0716071968917564 -1 0 0 I I #
vertex $-1 $373 $524 #
point $-1 -12.28586074532776 21.305013788122878 -0.0033856637438918202 #
vertex $-1 $377 $525 #
point $-1 -4.0143442981311068 21.305013788122878 -0.0033856637438918202 #
straight-curve $-1 19.300205043458856 -17.650075405164035 32.557614787622285 0 -0.82903756765294845 0.55919291073839883 I I #
coedge $-1 $385 $391 $387 $483 reversed $381 $-1 #
straight-curve $-1 19.300205043458856 26.820760211460719 52.719318515951976 0 0 -1 I I #
edge $-1 $389 -19.300205043458856 $487 3.5527136788005009e-015 $481 $526 forward 7 unknown #
point $-1 19.300205043458856 21.617044918056752 6.0716071968917547 #
point $-1 19.300205043458856 26.820760211460719 6.0716071968917564 #
point $-1 19.300205043458856 26.820760211460719 2.5616568458955769 #
vertex $-1 $396 $527 #
straight-curve $-1 -3.5527136788005009e-015 15.754397872182262 6.0716071968917547 0 -1 0 I I #
straight-curve $-1 -3.5527136788005009e-015 26.820760211460719 52.719318515951976 0 0 1 I I #
vertex $-1 $399 $528 #
point $-1 7.0143442981310997 21.305013788122878 -0.0033856637438918202 #
vertex $-1 $403 $529 #
point $-1 15.285860745327753 21.305013788122878 -0.0033856637438918202 #
edge $-1 $495 15.930149965883503 $498 20.618048131331445 $408 $530 forward 7 unknown #
vertex $-1 $422 $531 #
straight-curve $-1 -30.937123377132444 -51.854463567167777 6.0716071968917547 0 -1 0 I I #
edge $-1 $498 -18.312228433636719 $419 -6.9375614533547321 $418 $532 forward 7 unknown #
vertex $-1 $497 $533 #
straight-curve $-1 -30.937123377132444 -26.820760211460723 1.3837090314438072 0 0.48480960649040278 0.87461971476443456 I I #
point $-1 -30.937123377132444 -24.222215922449323 6.0716071968917564 #
point $-1 -19.562456396850457 -26.820760211460719 1.3837090314438136 #
straight-curve $-1 0 -26.820760211460719 6.0716071968917564 1 0 0 I I #
vertex $-1 $425 $534 #
point $-1 -24.249789886991451 -24.252813026739144 3.0244200821084268 #
edge $-1 $506 15.930149965883503 $509 20.618048131331445 $430 $535 forward 7 unknown #
vertex $-1 $444 $536 #
straight-curve $-1 13.018075450956793 -51.854463567167777 6.0716071968917547 0 -1 0 I I #
edge $-1 $509 3.6653709804079 $441 15.040037960689887 $440 $537 forward 7 unknown #
vertex $-1 $508 $538 #
straight-curve $-1 13.018075450956793 -26.820760211460723 1.3837090314438072 0 0.48480960649040278 0.87461971476443456 I I #
point $-1 13.018075450956793 -24.222215922449323 6.0716071968917564 #
point $-1 24.39274243123878 -26.820760211460719 1.3837090314438136 #
straight-curve $-1 0 -26.820760211460719 6.0716071968917564 1 0 0 I I #
vertex $-1 $447 $539 #
point $-1 19.705408941097787 -24.252813026739144 3.0244200821084268 #
straight-curve $-1 -43.955198828089237 26.820760211460719 0 0 0 -1 I I #
point $-1 -43.955198828089237 -26.820760211460719 -6.0716071968917564 #
straight-curve $-1 -43.955198828089237 0 -6.0716071968917564 0 1 0 I I #
point $-1 -43.955198828089237 26.820760211460719 -6.0716071968917564 #
straight-curve $-1 -3.5527136788005009e-015 26.820760211460719 52.719318515951976 0 0 -1 I I #
point $-1 -3.5527136788005009e-015 26.820760211460719 6.0716071968917564 #
straight-curve $-1 -4.8250512608647185 26.820760211460723 2.5616568458955751 -1 0 0 I I #
point $-1 -3.5527136788005009e-015 26.820760211460719 2.5616568458955769 #
point $-1 -13.78586074532776 20.46622442201528 -1.2469420152233146 #
point $-1 -5.5143442981311068 20.46622442201528 -1.2469420152233146 #
straight-curve $-1 0 26.820760211460719 6.0716071968917564 -1 0 0 I I #
point $-1 -3.5527136788005009e-015 26.820760211460719 6.0716071968917564 #
point $-1 5.5143442981310997 20.46622442201528 -1.2469420152233146 #
point $-1 13.785860745327753 20.46622442201528 -1.2469420152233146 #
straight-curve $-1 -30.937123377132444 -26.820760211460723 22.00175716277526 0 0 -1 I I #
point $-1 -30.937123377132444 -26.820760211460719 6.0716071968917564 #
straight-curve $-1 -12.624894943495725 -26.820760211460719 1.3837090314438156 1 0 0 I I #
point $-1 -30.937123377132444 -26.820760211460719 1.3837090314438136 #
point $-1 -25.249789886991451 -23.378193311974709 2.5396104756180238 #
straight-curve $-1 13.018075450956793 -26.820760211460723 22.00175716277526 0 0 -1 I I #
point $-1 13.018075450956793 -26.820760211460719 6.0716071968917564 #
straight-curve $-1 9.3527044705488933 -26.820760211460719 1.3837090314438156 1 0 0 I I #
point $-1 13.018075450956793 -26.820760211460719 1.3837090314438136 #
point $-1 18.705408941097787 -23.378193311974709 2.5396104756180238 #
End-of-ACIS-data 