500 0 7 0           
7 Unknown 11 ACIS 5.0 NT 24 Thu Mar 25 15:46:39 1999 
-1 9.9999999999999995e-007 1e-010 
body $-1 $7 $-1 $8 #
body $-1 $9 $-1 $10 #
body $-1 $11 $-1 $12 #
body $-1 $13 $-1 $14 #
body $-1 $15 $-1 $16 #
body $-1 $17 $-1 $18 #
body $-1 $19 $-1 $20 #
lump $-1 $-1 $21 $0 #
transform $-1 1 0 0 0 1 0 0 0 1 55.08468886379589 37.743275003067517 11.434483371317208 1 rotate no_reflect no_shear #
lump $-1 $-1 $22 $1 #
transform $-1 1 0 0 0 1 0 0 0 1 55.08468886379589 37.743275003067517 11.434483371317208 1 rotate no_reflect no_shear #
lump $-1 $-1 $23 $2 #
transform $-1 1 0 0 0 1 0 0 0 1 55.08468886379589 37.743275003067517 11.434483371317208 1 rotate no_reflect no_shear #
lump $-1 $-1 $24 $3 #
transform $-1 1 0 0 0 1 0 0 0 1 55.08468886379589 37.743275003067517 11.434483371317208 1 rotate no_reflect no_shear #
lump $-1 $-1 $25 $4 #
transform $-1 1 0 0 0 1 0 0 0 1 55.08468886379589 37.743275003067517 11.434483371317208 1 rotate no_reflect no_shear #
lump $-1 $-1 $26 $5 #
transform $-1 1 0 0 0 1 0 0 0 1 55.08468886379589 37.743275003067517 11.434483371317208 1 rotate no_reflect no_shear #
lump $-1 $-1 $27 $6 #
transform $-1 1 0 0 0 1 0 0 0 1 55.08468886379589 37.743275003067517 11.434483371317208 1 rotate no_reflect no_shear #
shell $-1 $-1 $-1 $28 $-1 $7 #
shell $-1 $-1 $-1 $29 $-1 $9 #
shell $-1 $-1 $-1 $30 $-1 $11 #
shell $-1 $-1 $-1 $31 $-1 $13 #
shell $-1 $-1 $-1 $32 $-1 $15 #
shell $-1 $-1 $-1 $33 $-1 $17 #
shell $-1 $-1 $-1 $34 $-1 $19 #
face $-1 $35 $36 $21 $-1 $37 forward single #
face $-1 $38 $39 $22 $-1 $40 reversed single #
face $-1 $41 $42 $23 $-1 $43 reversed single #
face $-1 $44 $45 $24 $-1 $46 reversed single #
face $-1 $47 $48 $25 $-1 $49 forward single #
face $-1 $50 $51 $26 $-1 $52 forward single #
face $-1 $53 $54 $27 $-1 $55 forward single #
face $-1 $56 $57 $21 $-1 $58 reversed single #
loop $-1 $-1 $59 $28 #
plane-surface $-1 0 0 11.434483371317208 0 0 1 1 0 0 forward_v I I I I #
face $-1 $60 $61 $22 $-1 $62 reversed single #
loop $-1 $-1 $63 $29 #
plane-surface $-1 -51.021456870623688 0 6.883093472371872 0 0 1 1 0 0 forward_v I I I I #
face $-1 $64 $65 $23 $-1 $66 reversed single #
loop $-1 $-1 $67 $30 #
plane-surface $-1 51.021456870623695 0 6.883093472371872 0 0 1 1 0 0 forward_v I I I I #
face $-1 $68 $69 $24 $-1 $70 reversed single #
loop $-1 $-1 $71 $31 #
plane-surface $-1 -12.822223306314754 41.429309923028491 137.34831420382423 1 0 0 0 -0.5877852598018023 -0.80901698891910034 forward_v I I I I #
face $-1 $72 $73 $25 $-1 $74 forward single #
loop $-1 $75 $76 $32 #
cone-surface $-1 -8.3268334895910741 31.464078663287758 6.1840031734627674 0 -0.5877852598018023 -0.80901698891910034 1 0 0 1 I I 0 1 1 forward I I I I #
face $-1 $77 $78 $26 $-1 $79 forward single #
loop $-1 $80 $81 $33 #
cone-surface $-1 -1.5837487645055504 31.464078663287758 6.1840031734627674 0 -0.5877852598018023 -0.80901698891910034 1 0 0 1 I I 0 1 1 forward I I I I #
face $-1 $82 $83 $27 $-1 $84 forward single #
loop $-1 $85 $86 $34 #
cone-surface $-1 5.1593359605799733 31.464078663287758 6.1840031734627674 0 -0.5877852598018023 -0.80901698891910034 1 0 0 1 I I 0 1 1 forward I I I I #
face $-1 $87 $88 $21 $-1 $89 reversed single #
loop $-1 $-1 $90 $35 #
plane-surface $-1 0 0 -11.434483371317208 0 0 1 1 0 0 forward_v I I I I #
coedge $-1 $91 $92 $93 $94 forward $36 $-1 #
face $-1 $95 $96 $22 $-1 $97 reversed single #
loop $-1 $-1 $98 $38 #
plane-surface $-1 -46.958224877451485 0 9.1587884218445392 -1 0 0 0 0 1 forward_v I I I I #
coedge $-1 $99 $100 $101 $102 forward $39 $-1 #
face $-1 $103 $104 $23 $-1 $105 forward single #
loop $-1 $-1 $106 $41 #
plane-surface $-1 46.958224877451492 0 9.1587884218445392 1 0 0 0 0 -1 forward_v I I I I #
coedge $-1 $107 $108 $109 $110 reversed $42 $-1 #
face $-1 $111 $112 $24 $-1 $113 reversed single #
loop $-1 $-1 $114 $44 #
plane-surface $-1 -1.5837487645055432 -23.326626386786934 48.219415963556926 0 0.5877852598018023 0.80901698891910034 1 0 0 forward_v I I I I #
coedge $-1 $115 $116 $117 $118 reversed $45 $-1 #
face $-1 $-1 $119 $25 $-1 $120 forward single #
loop $-1 $121 $122 $47 #
cone-surface $-1 -8.3268334895910741 30.110882799815094 4.3214888884778357 0 -0.5877852598018023 -0.80901698891910034 0.5 0 0 1 I I -0.70710678118654746 0.70710678118654746 0.5 forward I I I I #
loop $-1 $-1 $123 $32 #
coedge $-1 $76 $76 $124 $125 reversed $48 $-1 #
face $-1 $-1 $126 $26 $-1 $127 forward single #
loop $-1 $128 $129 $50 #
cone-surface $-1 -1.5837487645055504 30.110882799815094 4.3214888884778357 0 -0.5877852598018023 -0.80901698891910034 0.5 0 0 1 I I -0.70710678118654746 0.70710678118654746 0.5 forward I I I I #
loop $-1 $-1 $130 $33 #
coedge $-1 $81 $81 $131 $132 reversed $51 $-1 #
face $-1 $-1 $133 $27 $-1 $134 forward single #
loop $-1 $135 $136 $53 #
cone-surface $-1 5.1593359605799733 30.110882799815094 4.3214888884778357 0 -0.5877852598018023 -0.80901698891910034 0.5 0 0 1 I I -0.70710678118654746 0.70710678118654746 0.5 forward I I I I #
loop $-1 $-1 $137 $34 #
coedge $-1 $86 $86 $138 $139 reversed $54 $-1 #
face $-1 $140 $141 $21 $-1 $142 reversed single #
loop $-1 $-1 $143 $56 #
plane-surface $-1 0 -37.743275003067517 0 0 1 0 0 0 1 forward_v I I I I #
coedge $-1 $144 $145 $146 $147 forward $57 $-1 #
coedge $-1 $148 $59 $149 $150 forward $36 $-1 #
coedge $-1 $59 $148 $151 $152 forward $36 $-1 #
coedge $-1 $153 $154 $59 $94 reversed $155 $-1 #
edge $-1 $156 -37.743275003067517 $157 37.743275003067517 $93 $158 forward 7 unknown #
face $-1 $159 $160 $22 $-1 $161 reversed single #
loop $-1 $-1 $162 $60 #
plane-surface $-1 0 37.743275003067517 0 0 -1 0 0 0 -1 forward_v I I I I #
coedge $-1 $101 $163 $164 $165 reversed $61 $-1 #
coedge $-1 $166 $63 $167 $168 reversed $39 $-1 #
coedge $-1 $63 $166 $169 $170 reversed $39 $-1 #
coedge $-1 $171 $98 $63 $102 reversed $61 $-1 #
edge $-1 $172 -37.743275003067517 $173 37.743275003067517 $101 $174 forward 7 unknown #
face $-1 $175 $176 $23 $-1 $177 reversed single #
loop $-1 $-1 $178 $64 #
plane-surface $-1 0 0 11.434483371317208 0 0 1 1 0 0 forward_v I I I I #
coedge $-1 $179 $180 $181 $182 reversed $65 $-1 #
coedge $-1 $183 $67 $184 $185 reversed $42 $-1 #
coedge $-1 $67 $183 $186 $187 reversed $42 $-1 #
coedge $-1 $188 $189 $67 $110 forward $190 $-1 #
edge $-1 $191 -37.743275003067517 $192 37.743275003067517 $109 $193 forward 7 unknown #
face $-1 $194 $195 $24 $-1 $196 reversed single #
loop $-1 $-1 $197 $68 #
plane-surface $-1 9.6547257773036677 41.429309923028491 137.34831420382423 -1 0 0 0 0.5877852598018023 0.80901698891910034 forward_v I I I I #
coedge $-1 $198 $199 $200 $201 reversed $69 $-1 #
coedge $-1 $116 $71 $202 $203 reversed $45 $-1 #
coedge $-1 $71 $115 $198 $204 reversed $45 $-1 #
coedge $-1 $200 $205 $71 $118 forward $206 $-1 #
edge $-1 $207 -17.028620041553271 $208 -6.5888338291373039 $117 $209 forward 7 unknown #
loop $-1 $-1 $124 $72 #
plane-surface $-1 -1.5837487645055432 -23.326626386786934 48.219415963556926 0 0.5877852598018023 0.80901698891910034 1 0 0 forward_v I I I I #
loop $-1 $-1 $210 $47 #
coedge $-1 $122 $122 $123 $211 reversed $73 $-1 #
coedge $-1 $123 $123 $122 $211 forward $75 $-1 #
coedge $-1 $124 $124 $76 $125 forward $119 $-1 #
edge $-1 $212 -2.6218337777050549e-015 $212 6.2831853071795978 $124 $213 forward 7 unknown #
loop $-1 $-1 $131 $77 #
plane-surface $-1 -1.5837487645055432 -23.326626386786934 48.219415963556926 0 0.5877852598018023 0.80901698891910034 1 0 0 forward_v I I I I #
loop $-1 $-1 $214 $50 #
coedge $-1 $129 $129 $130 $215 reversed $78 $-1 #
coedge $-1 $130 $130 $129 $215 forward $80 $-1 #
coedge $-1 $131 $131 $81 $132 forward $126 $-1 #
edge $-1 $216 -2.6218337777050549e-015 $216 6.2831853071795978 $131 $217 forward 7 unknown #
loop $-1 $-1 $138 $82 #
plane-surface $-1 -1.5837487645055432 -23.326626386786934 48.219415963556926 0 0.5877852598018023 0.80901698891910034 1 0 0 forward_v I I I I #
loop $-1 $-1 $218 $53 #
coedge $-1 $136 $136 $137 $219 reversed $83 $-1 #
coedge $-1 $137 $137 $136 $219 forward $85 $-1 #
coedge $-1 $138 $138 $86 $139 forward $133 $-1 #
edge $-1 $220 -2.6218337777050549e-015 $220 6.2831853071795978 $138 $221 forward 7 unknown #
face $-1 $222 $223 $21 $-1 $224 reversed single #
loop $-1 $-1 $225 $87 #
plane-surface $-1 -55.08468886379589 0 0 1 0 0 0 0 -1 forward_v I I I I #
coedge $-1 $226 $151 $227 $228 forward $88 $-1 #
coedge $-1 $229 $90 $226 $230 forward $57 $-1 #
coedge $-1 $90 $229 $231 $232 forward $57 $-1 #
coedge $-1 $154 $153 $90 $147 reversed $155 $-1 #
edge $-1 $233 -37.743275003067517 $234 37.743275003067517 $146 $235 forward 7 unknown #
coedge $-1 $92 $91 $236 $237 forward $36 $-1 #
coedge $-1 $238 $239 $91 $150 reversed $223 $-1 #
edge $-1 $157 -55.08468886379589 $240 55.08468886379589 $149 $241 forward 7 unknown #
coedge $-1 $143 $242 $92 $152 reversed $88 $-1 #
edge $-1 $243 -55.08468886379589 $156 55.08468886379589 $151 $244 forward 7 unknown #
coedge $-1 $146 $93 $242 $245 forward $155 $-1 #
coedge $-1 $93 $146 $238 $246 reversed $155 $-1 #
loop $-1 $-1 $153 $222 #
vertex $-1 $94 $247 #
vertex $-1 $94 $248 #
straight-curve $-1 55.08468886379589 0 11.434483371317208 0 1 0 I I #
face $-1 $249 $250 $22 $-1 $251 forward single #
loop $-1 $-1 $252 $95 #
plane-surface $-1 -55.08468886379589 0 0 1 0 0 0 0 -1 forward_v I I I I #
coedge $-1 $169 $253 $171 $254 forward $96 $-1 #
coedge $-1 $98 $171 $255 $256 reversed $61 $-1 #
coedge $-1 $257 $167 $98 $165 forward $258 $-1 #
edge $-1 $173 2.3036992614496024 $259 6.8550891603949369 $164 $260 forward 7 unknown #
coedge $-1 $100 $99 $252 $261 reversed $39 $-1 #
coedge $-1 $164 $262 $99 $168 forward $258 $-1 #
edge $-1 $263 -29.573960428484046 $173 -21.447496442139641 $167 $264 forward 7 unknown #
coedge $-1 $265 $162 $100 $170 forward $96 $-1 #
edge $-1 $172 21.447496442139641 $266 29.573960428484046 $169 $267 forward 7 unknown #
coedge $-1 $163 $101 $162 $254 reversed $61 $-1 #
vertex $-1 $170 $268 #
vertex $-1 $168 $269 #
straight-curve $-1 -46.958224877451485 0 6.883093472371872 0 -1 0 I I #
face $-1 $270 $271 $23 $-1 $272 reversed single #
loop $-1 $-1 $273 $103 #
plane-surface $-1 0 -37.743275003067517 0 0 1 0 0 0 1 forward_v I I I I #
coedge $-1 $274 $275 $180 $276 forward $104 $-1 #
coedge $-1 $277 $106 $183 $278 reversed $65 $-1 #
coedge $-1 $106 $277 $178 $276 reversed $65 $-1 #
coedge $-1 $279 $186 $106 $182 forward $271 $-1 #
edge $-1 $280 2.3036992614496024 $281 6.8550891603949369 $181 $282 forward 7 unknown #
coedge $-1 $108 $107 $179 $278 forward $42 $-1 #
coedge $-1 $283 $273 $107 $185 forward $176 $-1 #
edge $-1 $284 21.447496442139645 $191 29.57396042848405 $184 $285 forward 7 unknown #
coedge $-1 $181 $286 $108 $187 forward $271 $-1 #
edge $-1 $192 -29.57396042848405 $280 -21.447496442139645 $186 $287 forward 7 unknown #
coedge $-1 $288 $109 $286 $289 reversed $190 $-1 #
coedge $-1 $109 $288 $283 $290 forward $190 $-1 #
loop $-1 $-1 $109 $270 #
vertex $-1 $185 $291 #
vertex $-1 $110 $292 #
straight-curve $-1 55.08468886379589 0 6.883093472371872 0 1 0 I I #
face $-1 $-1 $206 $24 $-1 $293 forward single #
loop $-1 $-1 $294 $111 #
plane-surface $-1 0 37.743275003067517 0 0 -1 0 0 0 -1 forward_v I I I I #
coedge $-1 $295 $296 $297 $298 reversed $112 $-1 #
coedge $-1 $299 $114 $116 $204 forward $69 $-1 #
coedge $-1 $114 $299 $295 $300 forward $69 $-1 #
coedge $-1 $297 $117 $114 $201 forward $206 $-1 #
edge $-1 $208 -12.030348924061983 $301 10.446600159556439 $200 $302 forward 7 unknown #
coedge $-1 $303 $304 $115 $203 forward $195 $-1 #
edge $-1 $305 -64.824622545252993 $207 -57.239673730594909 $202 $306 forward 7 unknown #
edge $-1 $208 62.582264489999929 $305 75.486550006135019 $116 $307 forward 7 unknown #
coedge $-1 $117 $297 $303 $308 forward $206 $-1 #
loop $-1 $-1 $297 $194 #
vertex $-1 $203 $309 #
vertex $-1 $118 $310 #
straight-curve $-1 -12.822223306314754 20.714654961514245 11.434483371317206 0 -1 0 I I #
coedge $-1 $210 $210 $-1 $311 reversed $121 $-1 #
edge $-1 $312 0 $312 6.2831853071796004 $122 $313 forward 7 unknown #
vertex $-1 $125 $314 #
ellipse-curve $-1 -8.3268334895910741 32.523381896859533 7.6420089639881645 0 0.5877852598018023 0.80901698891910034 1 0 0 1 I I #
coedge $-1 $214 $214 $-1 $315 reversed $128 $-1 #
edge $-1 $316 0 $316 6.2831853071796004 $129 $317 forward 7 unknown #
vertex $-1 $132 $318 #
ellipse-curve $-1 -1.5837487645055504 32.523381896859533 7.6420089639881645 0 0.5877852598018023 0.80901698891910034 1 0 0 1 I I #
coedge $-1 $218 $218 $-1 $319 reversed $135 $-1 #
edge $-1 $320 0 $320 6.2831853071796004 $136 $321 forward 7 unknown #
vertex $-1 $139 $322 #
ellipse-curve $-1 5.1593359605799733 32.523381896859533 7.6420089639881645 0 0.5877852598018023 0.80901698891910034 1 0 0 1 I I #
face $-1 $-1 $155 $21 $-1 $323 reversed single #
loop $-1 $-1 $238 $140 #
plane-surface $-1 0 37.743275003067517 0 0 -1 0 0 0 -1 forward_v I I I I #
coedge $-1 $324 $236 $239 $325 forward $141 $-1 #
coedge $-1 $242 $143 $144 $230 reversed $88 $-1 #
coedge $-1 $236 $324 $143 $228 reversed $141 $-1 #
edge $-1 $243 -11.434483371317208 $326 11.434483371317208 $227 $327 forward 7 unknown #
coedge $-1 $145 $144 $324 $328 forward $57 $-1 #
edge $-1 $234 -55.08468886379589 $326 55.08468886379589 $226 $329 forward 7 unknown #
coedge $-1 $239 $238 $145 $232 reversed $223 $-1 #
edge $-1 $330 -55.08468886379589 $233 55.08468886379589 $231 $331 forward 7 unknown #
vertex $-1 $147 $332 #
vertex $-1 $245 $333 #
straight-curve $-1 55.08468886379589 0 -11.434483371317208 0 -1 0 I I #
coedge $-1 $225 $227 $148 $237 reversed $141 $-1 #
edge $-1 $240 -37.743275003067517 $243 37.743275003067517 $236 $334 forward 7 unknown #
coedge $-1 $231 $149 $154 $246 forward $223 $-1 #
coedge $-1 $149 $231 $225 $325 reversed $223 $-1 #
vertex $-1 $150 $335 #
straight-curve $-1 0 37.743275003067517 11.434483371317208 -1 0 0 I I #
coedge $-1 $151 $226 $153 $245 reversed $88 $-1 #
vertex $-1 $237 $336 #
straight-curve $-1 0 -37.743275003067517 11.434483371317208 1 0 0 I I #
edge $-1 $156 -11.434483371317208 $234 11.434483371317208 $153 $337 forward 7 unknown #
edge $-1 $157 -11.434483371317208 $233 11.434483371317208 $154 $338 forward 7 unknown #
point $-1 55.08468886379589 -37.743275003067517 11.434483371317208 #
point $-1 55.08468886379589 37.743275003067517 11.434483371317208 #
face $-1 $-1 $258 $22 $-1 $339 reversed single #
loop $-1 $-1 $255 $159 #
plane-surface $-1 0 0 11.434483371317208 0 0 1 1 0 0 forward_v I I I I #
coedge $-1 $340 $341 $166 $261 forward $160 $-1 #
coedge $-1 $162 $265 $342 $343 reversed $96 $-1 #
edge $-1 $344 -6.8550891603949369 $172 -2.3036992614496024 $162 $345 forward 7 unknown #
coedge $-1 $342 $346 $163 $256 forward $250 $-1 #
edge $-1 $259 -37.743275003067517 $344 37.743275003067517 $255 $347 forward 7 unknown #
coedge $-1 $262 $164 $346 $348 reversed $258 $-1 #
loop $-1 $-1 $164 $249 #
vertex $-1 $165 $349 #
straight-curve $-1 -46.958224877451485 -37.743275003067517 4.5793942109222696 0 0 1 I I #
edge $-1 $266 -37.743275003067517 $263 37.743275003067517 $252 $350 forward 7 unknown #
coedge $-1 $167 $257 $340 $351 forward $258 $-1 #
vertex $-1 $261 $352 #
straight-curve $-1 -25.510728435311844 -37.743275003067517 6.883093472371872 1 0 0 I I #
coedge $-1 $253 $169 $341 $353 reversed $96 $-1 #
vertex $-1 $261 $354 #
straight-curve $-1 -25.510728435311844 37.743275003067517 6.883093472371872 -1 0 0 I I #
point $-1 -46.958224877451485 37.743275003067517 6.883093472371872 #
point $-1 -46.958224877451485 -37.743275003067517 6.883093472371872 #
face $-1 $-1 $190 $23 $-1 $355 reversed single #
loop $-1 $-1 $181 $175 #
plane-surface $-1 0 37.743275003067517 0 0 -1 0 0 0 -1 forward_v I I I I #
coedge $-1 $184 $356 $277 $357 forward $176 $-1 #
coedge $-1 $358 $178 $356 $359 forward $104 $-1 #
coedge $-1 $178 $358 $279 $360 forward $104 $-1 #
edge $-1 $281 -37.743275003067517 $361 37.743275003067517 $178 $362 forward 7 unknown #
coedge $-1 $180 $179 $273 $357 reversed $65 $-1 #
edge $-1 $284 -37.743275003067517 $280 37.743275003067517 $179 $363 forward 7 unknown #
coedge $-1 $286 $181 $275 $360 reversed $271 $-1 #
vertex $-1 $187 $364 #
vertex $-1 $182 $365 #
straight-curve $-1 46.958224877451492 37.743275003067517 4.5793942109222696 0 0 1 I I #
coedge $-1 $356 $184 $189 $290 reversed $176 $-1 #
vertex $-1 $185 $366 #
straight-curve $-1 25.510728435311847 -37.743275003067517 6.883093472371872 1 0 0 I I #
coedge $-1 $186 $279 $188 $289 forward $271 $-1 #
straight-curve $-1 25.510728435311847 37.743275003067517 6.883093472371872 -1 0 0 I I #
coedge $-1 $189 $188 $358 $367 reversed $190 $-1 #
edge $-1 $368 -11.434483371317208 $192 -6.883093472371872 $188 $369 forward 7 unknown #
edge $-1 $370 -11.434483371317208 $191 -6.883093472371872 $189 $371 forward 7 unknown #
point $-1 55.084688863795897 -37.743275003067517 6.883093472371872 #
point $-1 55.084688863795897 37.743275003067517 6.883093472371872 #
plane-surface $-1 0 0 11.434483371317208 0 0 1 1 0 0 forward_v I I I I #
coedge $-1 $304 $303 $296 $372 forward $195 $-1 #
coedge $-1 $296 $197 $199 $300 reversed $112 $-1 #
coedge $-1 $197 $295 $294 $372 reversed $112 $-1 #
coedge $-1 $205 $200 $197 $298 forward $206 $-1 #
edge $-1 $301 6.5888338291373039 $373 17.028620041553271 $297 $374 forward 7 unknown #
coedge $-1 $199 $198 $304 $375 reversed $69 $-1 #
edge $-1 $376 -75.486550006135019 $301 -62.582264489999929 $295 $377 forward 7 unknown #
vertex $-1 $201 $378 #
straight-curve $-1 -0.79187438225277162 27.303488790651546 11.434483371317206 1 0 0 I I #
coedge $-1 $294 $202 $205 $308 reversed $195 $-1 #
coedge $-1 $202 $294 $299 $375 forward $195 $-1 #
vertex $-1 $203 $379 #
straight-curve $-1 -12.822223306314754 37.743275003067517 68.674157101912115 0 0 1 I I #
straight-curve $-1 -12.822223306314754 -23.326626386786934 48.219415963556926 0 0.80901698891910034 -0.5877852598018023 I I #
edge $-1 $373 -9.6547257773036677 $207 12.822223306314754 $303 $380 forward 7 unknown #
point $-1 -12.822223306314754 37.743275003067517 11.434483371317208 #
point $-1 -12.822223306314754 27.303488790651549 11.434483371317206 #
edge $-1 $381 1 $381 0 $210 $-1 forward 7 unknown #
vertex $-1 $211 $382 #
ellipse-curve $-1 -8.3268334895910741 30.404775429715997 4.7259973829373862 0 0.5877852598018023 0.80901698891910034 1 0 0 1 I I #
point $-1 -7.3268334895910741 32.523381896859519 7.6420089639881494 #
edge $-1 $383 1 $383 0 $214 $-1 forward 7 unknown #
vertex $-1 $215 $384 #
ellipse-curve $-1 -1.5837487645055504 30.404775429715997 4.7259973829373862 0 0.5877852598018023 0.80901698891910034 1 0 0 1 I I #
point $-1 -0.58374876450555035 32.523381896859519 7.6420089639881494 #
edge $-1 $385 1 $385 0 $218 $-1 forward 7 unknown #
vertex $-1 $219 $386 #
ellipse-curve $-1 5.1593359605799733 30.404775429715997 4.7259973829373862 0 0.5877852598018023 0.80901698891910034 1 0 0 1 I I #
point $-1 6.1593359605799733 32.523381896859519 7.6420089639881494 #
plane-surface $-1 55.08468886379589 0 0 -1 0 0 0 0 1 forward_v I I I I #
coedge $-1 $227 $225 $229 $328 reversed $141 $-1 #
edge $-1 $240 -11.434483371317208 $330 11.434483371317208 $239 $387 forward 7 unknown #
vertex $-1 $328 $388 #
straight-curve $-1 -55.08468886379589 -37.743275003067517 0 0 0 -1 I I #
edge $-1 $326 -37.743275003067517 $330 37.743275003067517 $324 $389 forward 7 unknown #
straight-curve $-1 0 -37.743275003067517 -11.434483371317208 -1 0 0 I I #
vertex $-1 $232 $390 #
straight-curve $-1 0 37.743275003067517 -11.434483371317208 1 0 0 I I #
point $-1 55.08468886379589 37.743275003067517 -11.434483371317208 #
point $-1 55.08468886379589 -37.743275003067517 -11.434483371317208 #
straight-curve $-1 -55.08468886379589 0 11.434483371317208 0 -1 0 I I #
point $-1 -55.08468886379589 37.743275003067517 11.434483371317208 #
point $-1 -55.08468886379589 -37.743275003067517 11.434483371317208 #
straight-curve $-1 55.08468886379589 -37.743275003067517 0 0 0 -1 I I #
straight-curve $-1 55.08468886379589 37.743275003067517 0 0 0 -1 I I #
plane-surface $-1 0 -37.743275003067517 0 0 1 0 0 0 1 forward_v I I I I #
coedge $-1 $391 $252 $262 $351 reversed $160 $-1 #
coedge $-1 $252 $391 $265 $353 forward $160 $-1 #
coedge $-1 $392 $255 $253 $343 forward $250 $-1 #
edge $-1 $344 46.958224877451485 $393 55.08468886379589 $253 $394 forward 7 unknown #
vertex $-1 $343 $395 #
straight-curve $-1 -46.958224877451485 37.743275003067517 4.5793942109222696 0 0 -1 I I #
coedge $-1 $255 $392 $257 $348 forward $250 $-1 #
straight-curve $-1 -46.958224877451485 0 11.434483371317208 0 1 0 I I #
edge $-1 $396 -55.08468886379589 $259 -46.958224877451485 $257 $397 forward 7 unknown #
point $-1 -46.958224877451485 -37.743275003067517 11.434483371317206 #
straight-curve $-1 -55.08468886379589 0 6.883093472371872 0 -1 0 I I #
edge $-1 $396 -11.434483371317208 $263 -6.883093472371872 $340 $398 forward 7 unknown #
point $-1 -55.08468886379589 -37.743275003067517 6.883093472371872 #
edge $-1 $393 -11.434483371317208 $266 -6.883093472371872 $265 $399 forward 7 unknown #
point $-1 -55.08468886379589 37.743275003067517 6.883093472371872 #
plane-surface $-1 55.08468886379589 0 0 -1 0 0 0 0 1 forward_v I I I I #
coedge $-1 $273 $283 $274 $359 reversed $176 $-1 #
edge $-1 $361 -6.8550891603949369 $284 -2.3036992614496024 $273 $400 forward 7 unknown #
coedge $-1 $275 $274 $288 $367 forward $104 $-1 #
edge $-1 $361 46.958224877451492 $370 55.08468886379589 $356 $401 forward 7 unknown #
edge $-1 $368 -55.08468886379589 $281 -46.958224877451492 $279 $402 forward 7 unknown #
vertex $-1 $359 $403 #
straight-curve $-1 46.958224877451492 0 11.434483371317208 0 -1 0 I I #
straight-curve $-1 46.958224877451492 0 6.883093472371872 0 1 0 I I #
point $-1 46.958224877451492 37.743275003067517 6.883093472371872 #
point $-1 46.958224877451492 37.743275003067517 11.434483371317206 #
point $-1 46.958224877451492 -37.743275003067517 6.883093472371872 #
edge $-1 $370 -37.743275003067517 $368 37.743275003067517 $288 $404 forward 7 unknown #
vertex $-1 $367 $405 #
straight-curve $-1 55.08468886379589 37.743275003067517 0 0 0 -1 I I #
vertex $-1 $367 $406 #
straight-curve $-1 55.08468886379589 -37.743275003067517 0 0 0 -1 I I #
edge $-1 $373 57.239673730594909 $376 64.824622545252993 $294 $407 forward 7 unknown #
vertex $-1 $308 $408 #
straight-curve $-1 9.6547257773036677 20.714654961514245 11.434483371317206 0 1 0 I I #
edge $-1 $376 -10.446600159556439 $305 12.030348924061983 $304 $409 forward 7 unknown #
vertex $-1 $375 $410 #
straight-curve $-1 9.6547257773036677 -23.326626386786934 48.219415963556926 0 -0.80901698891910034 0.5877852598018023 I I #
point $-1 9.6547257773036677 27.303488790651549 11.434483371317206 #
point $-1 -12.822223306314754 37.743275003067517 3.8495345566591155 #
straight-curve $-1 0 37.743275003067517 11.434483371317208 -1 0 0 I I #
vertex $-1 $311 $411 #
point $-1 -7.3268334895910741 30.404775429715997 4.7259973829373862 #
vertex $-1 $315 $412 #
point $-1 -0.58374876450555035 30.404775429715997 4.7259973829373862 #
vertex $-1 $319 $413 #
point $-1 6.1593359605799733 30.404775429715997 4.7259973829373862 #
straight-curve $-1 -55.08468886379589 37.743275003067517 0 0 0 -1 I I #
point $-1 -55.08468886379589 -37.743275003067517 -11.434483371317208 #
straight-curve $-1 -55.08468886379589 0 -11.434483371317208 0 1 0 I I #
point $-1 -55.08468886379589 37.743275003067517 -11.434483371317208 #
coedge $-1 $341 $340 $392 $414 reversed $160 $-1 #
coedge $-1 $346 $342 $391 $414 forward $250 $-1 #
vertex $-1 $343 $415 #
straight-curve $-1 0 37.743275003067517 11.434483371317208 -1 0 0 I I #
point $-1 -46.958224877451485 37.743275003067517 11.434483371317206 #
vertex $-1 $414 $416 #
straight-curve $-1 0 -37.743275003067517 11.434483371317208 1 0 0 I I #
straight-curve $-1 -55.08468886379589 -37.743275003067517 0 0 0 -1 I I #
straight-curve $-1 -55.08468886379589 37.743275003067517 0 0 0 -1 I I #
straight-curve $-1 46.958224877451492 -37.743275003067517 4.5793942109222696 0 0 -1 I I #
straight-curve $-1 0 -37.743275003067517 11.434483371317208 1 0 0 I I #
straight-curve $-1 0 37.743275003067517 11.434483371317208 -1 0 0 I I #
point $-1 46.958224877451492 -37.743275003067517 11.434483371317206 #
straight-curve $-1 55.08468886379589 0 11.434483371317208 0 1 0 I I #
point $-1 55.08468886379589 37.743275003067517 11.434483371317208 #
point $-1 55.08468886379589 -37.743275003067517 11.434483371317208 #
straight-curve $-1 9.6547257773036677 37.743275003067517 68.674157101912115 0 0 -1 I I #
point $-1 9.6547257773036677 37.743275003067517 11.434483371317208 #
straight-curve $-1 -0.79187438225277162 37.743275003067524 3.8495345566591119 -1 0 0 I I #
point $-1 9.6547257773036677 37.743275003067517 3.8495345566591155 #
point $-1 -8.3268334895910741 29.816990169914192 3.9169803940182857 #
point $-1 -1.5837487645055504 29.816990169914192 3.9169803940182857 #
point $-1 5.1593359605799733 29.816990169914192 3.9169803940182857 #
edge $-1 $393 -37.743275003067517 $396 37.743275003067517 $391 $417 forward 7 unknown #
point $-1 -55.08468886379589 37.743275003067517 11.434483371317208 #
point $-1 -55.08468886379589 -37.743275003067517 11.434483371317208 #
straight-curve $-1 -55.08468886379589 0 11.434483371317208 0 -1 0 I I #
End-of-ACIS-data 