500 0 5 0           
7 Unknown 11 ACIS 5.0 NT 24 Fri Mar 26 00:53:12 1999 
-1 9.9999999999999995e-007 1e-010 
body $-1 $5 $-1 $6 #
body $-1 $7 $-1 $8 #
body $-1 $9 $-1 $10 #
body $-1 $11 $-1 $12 #
body $-1 $13 $-1 $14 #
lump $-1 $-1 $15 $0 #
transform $-1 1 0 0 0 1 0 0 0 1 54.922330393383589 36.690704674768135 16.208205850300644 1 rotate no_reflect no_shear #
lump $-1 $-1 $16 $1 #
transform $-1 1 0 0 0 1 0 0 0 1 54.922330393383589 36.690704674768135 16.208205850300644 1 rotate no_reflect no_shear #
lump $-1 $-1 $17 $2 #
transform $-1 1 0 0 0 1 0 0 0 1 54.922330393383589 36.690704674768135 16.208205850300644 1 rotate no_reflect no_shear #
lump $-1 $-1 $18 $3 #
transform $-1 1 0 0 0 1 0 0 0 1 54.922330393383589 36.690704674768135 16.208205850300644 1 rotate no_reflect no_shear #
lump $-1 $-1 $19 $4 #
transform $-1 1 0 0 0 1 0 0 0 1 54.922330393383589 36.690704674768135 16.208205850300644 1 rotate no_reflect no_shear #
shell $-1 $-1 $-1 $20 $-1 $5 #
shell $-1 $-1 $-1 $21 $-1 $7 #
shell $-1 $-1 $-1 $22 $-1 $9 #
shell $-1 $-1 $-1 $23 $-1 $11 #
shell $-1 $-1 $-1 $24 $-1 $13 #
face $-1 $25 $26 $15 $-1 $27 reversed single #
face $-1 $28 $29 $16 $-1 $30 forward single #
face $-1 $31 $32 $17 $-1 $33 reversed single #
face $-1 $34 $35 $18 $-1 $36 forward single #
face $-1 $37 $38 $19 $-1 $39 forward single #
face $-1 $40 $41 $15 $-1 $42 forward single #
loop $-1 $-1 $43 $20 #
plane-surface $-1 0 -36.690704674768135 0 0 1 0 0 0 1 forward_v I I I I #
face $-1 $44 $45 $16 $-1 $46 forward single #
loop $-1 $-1 $47 $21 #
plane-surface $-1 0 -36.690704674768135 0 0 1 0 0 0 1 forward_v I I I I #
face $-1 $48 $49 $17 $-1 $50 reversed single #
loop $-1 $-1 $51 $22 #
plane-surface $-1 22.985348098713587 95.128268544202399 129.41732295026475 1 0 0 0 -0.86602541151947299 -0.49999998660252726 forward_v I I I I #
face $-1 $52 $53 $18 $-1 $54 forward single #
loop $-1 $55 $56 $23 #
cone-surface $-1 32.110200182905018 33.647970602609007 12.697023497551461 0 -0.86602541151947299 -0.49999998660252726 1.5 0 0 1 I I 0 1 1.5 forward I I I I #
face $-1 $57 $58 $19 $-1 $59 forward single #
loop $-1 $60 $61 $24 #
cone-surface $-1 45.797478309192172 33.647970602609007 12.697023497551461 0 -0.86602541151947299 -0.49999998660252726 1.5 0 0 1 I I 0 1 1.5 forward I I I I #
face $-1 $62 $63 $15 $-1 $64 reversed single #
loop $-1 $-1 $65 $25 #
plane-surface $-1 0 0 16.208205850300644 0 0 1 1 0 0 forward_v I I I I #
coedge $-1 $66 $67 $68 $69 reversed $26 $-1 #
face $-1 $70 $71 $16 $-1 $72 reversed single #
loop $-1 $-1 $73 $28 #
plane-surface $-1 0 0 16.208205850300644 0 0 1 1 0 0 forward_v I I I I #
coedge $-1 $74 $75 $76 $77 forward $29 $-1 #
face $-1 $78 $79 $17 $-1 $80 forward single #
loop $-1 $-1 $81 $31 #
plane-surface $-1 38.953839246048588 9.8312543173051381e-007 74.494994028522001 0 0.86602541151947299 0.49999998660252726 1 0 0 forward_v I I I I #
coedge $-1 $82 $83 $84 $85 reversed $32 $-1 #
face $-1 $-1 $86 $18 $-1 $87 forward single #
loop $-1 $88 $89 $34 #
cone-surface $-1 32.110200182905018 31.475123496317956 11.442529680645215 0 -0.86602541151947299 -0.49999998660252726 0.75 0 0 1 I I -0.70710678118654757 0.70710678118654757 0.75 forward I I I I #
loop $-1 $-1 $90 $23 #
coedge $-1 $56 $56 $91 $92 reversed $35 $-1 #
face $-1 $-1 $93 $19 $-1 $94 forward single #
loop $-1 $95 $96 $37 #
cone-surface $-1 45.797478309192172 31.475123496317956 11.442529680645215 0 -0.86602541151947299 -0.49999998660252726 0.75 0 0 1 I I -0.70710678118654757 0.70710678118654757 0.75 forward I I I I #
loop $-1 $-1 $97 $24 #
coedge $-1 $61 $61 $98 $99 reversed $38 $-1 #
face $-1 $100 $101 $15 $-1 $102 reversed single #
loop $-1 $-1 $103 $40 #
plane-surface $-1 0 0 -16.208205850300644 0 0 1 1 0 0 forward_v I I I I #
coedge $-1 $104 $105 $106 $107 forward $41 $-1 #
coedge $-1 $108 $43 $109 $110 reversed $26 $-1 #
coedge $-1 $43 $108 $111 $112 forward $26 $-1 #
coedge $-1 $113 $103 $43 $69 forward $63 $-1 #
edge $-1 $114 -54.922330393383589 $115 54.922330393383589 $43 $116 forward 7 unknown #
face $-1 $117 $118 $16 $-1 $119 reversed single #
loop $-1 $-1 $120 $44 #
plane-surface $-1 -54.922330393383589 0 0 1 0 0 0 0 -1 forward_v I I I I #
coedge $-1 $121 $122 $75 $123 forward $45 $-1 #
coedge $-1 $124 $47 $125 $126 reversed $29 $-1 #
coedge $-1 $47 $124 $73 $123 reversed $29 $-1 #
coedge $-1 $127 $128 $47 $77 reversed $129 $-1 #
edge $-1 $130 -16.208205850300644 $131 16.208205850300644 $76 $132 forward 7 unknown #
face $-1 $133 $134 $17 $-1 $135 reversed single #
loop $-1 $-1 $84 $48 #
plane-surface $-1 0 0 16.208205850300644 0 0 1 1 0 0 forward_v I I I I #
coedge $-1 $136 $137 $138 $139 reversed $49 $-1 #
coedge $-1 $83 $51 $140 $141 reversed $32 $-1 #
coedge $-1 $51 $82 $136 $142 reversed $32 $-1 #
coedge $-1 $138 $143 $51 $85 forward $79 $-1 #
edge $-1 $144 10.873429597333065 $145 13.912241646348463 $84 $146 forward 7 unknown #
loop $-1 $-1 $91 $52 #
plane-surface $-1 38.953839246048588 9.8312543173051381e-007 74.494994028522001 0 0.86602541151947299 0.49999998660252726 1 0 0 forward_v I I I I #
loop $-1 $-1 $147 $34 #
coedge $-1 $89 $89 $90 $148 reversed $53 $-1 #
coedge $-1 $90 $90 $89 $148 forward $55 $-1 #
coedge $-1 $91 $91 $56 $92 forward $86 $-1 #
edge $-1 $149 -7.3633592741354528e-017 $149 6.2831853071796004 $91 $150 forward 7 unknown #
loop $-1 $-1 $98 $57 #
plane-surface $-1 38.953839246048588 9.8312543173051381e-007 74.494994028522001 0 0.86602541151947299 0.49999998660252726 1 0 0 forward_v I I I I #
loop $-1 $-1 $151 $37 #
coedge $-1 $96 $96 $97 $152 reversed $58 $-1 #
coedge $-1 $97 $97 $96 $152 forward $60 $-1 #
coedge $-1 $98 $98 $61 $99 forward $93 $-1 #
edge $-1 $153 -7.3633592741354528e-017 $153 6.2831853071796004 $98 $154 forward 7 unknown #
face $-1 $155 $156 $15 $-1 $157 reversed single #
loop $-1 $-1 $158 $62 #
plane-surface $-1 -54.922330393383589 0 0 1 0 0 0 0 -1 forward_v I I I I #
coedge $-1 $68 $159 $160 $161 forward $63 $-1 #
coedge $-1 $162 $65 $163 $164 forward $41 $-1 #
coedge $-1 $65 $162 $108 $165 forward $41 $-1 #
coedge $-1 $109 $166 $65 $107 reversed $167 $-1 #
edge $-1 $168 -36.690704674768135 $169 36.690704674768135 $106 $170 forward 7 unknown #
coedge $-1 $67 $66 $105 $165 reversed $26 $-1 #
coedge $-1 $160 $106 $66 $110 forward $167 $-1 #
edge $-1 $168 -16.208205850300644 $114 16.208205850300644 $109 $171 forward 7 unknown #
coedge $-1 $172 $173 $67 $112 reversed $101 $-1 #
edge $-1 $174 -16.208205850300644 $115 16.208205850300644 $111 $175 forward 7 unknown #
coedge $-1 $159 $68 $173 $176 forward $63 $-1 #
vertex $-1 $110 $177 #
vertex $-1 $176 $178 #
straight-curve $-1 0 -36.690704674768135 -16.208205850300644 -1 0 0 I I #
face $-1 $179 $129 $16 $-1 $180 reversed single #
loop $-1 $-1 $181 $70 #
plane-surface $-1 -50.48309142113947 -57.655576477453131 0 0 1 0 0 0 1 forward_v I I I I #
coedge $-1 $182 $183 $124 $184 forward $71 $-1 #
coedge $-1 $185 $73 $183 $186 forward $45 $-1 #
coedge $-1 $73 $185 $127 $187 forward $45 $-1 #
edge $-1 $130 46.04385244889535 $188 54.922330393383589 $73 $189 forward 7 unknown #
coedge $-1 $75 $74 $120 $184 reversed $29 $-1 #
coedge $-1 $190 $191 $74 $126 forward $192 $-1 #
edge $-1 $193 -54.922330393383589 $131 -46.04385244889535 $125 $194 forward 7 unknown #
coedge $-1 $195 $76 $122 $187 reversed $129 $-1 #
coedge $-1 $76 $195 $190 $196 reversed $129 $-1 #
loop $-1 $-1 $195 $117 #
vertex $-1 $123 $197 #
vertex $-1 $196 $198 #
straight-curve $-1 -46.04385244889535 -36.690704674768135 0 0 0 -1 I I #
face $-1 $-1 $199 $17 $-1 $200 reversed single #
loop $-1 $-1 $201 $78 #
plane-surface $-1 54.922330393383589 0 0 -1 0 0 0 0 1 forward_v I I I I #
coedge $-1 $202 $81 $83 $142 forward $49 $-1 #
coedge $-1 $81 $202 $201 $203 reversed $49 $-1 #
coedge $-1 $204 $84 $81 $139 forward $79 $-1 #
edge $-1 $145 3.5084284756892927 $205 35.445410770359295 $138 $206 forward 7 unknown #
coedge $-1 $207 $208 $82 $141 forward $199 $-1 #
edge $-1 $209 -53.763832676421423 $144 -48.50045562483173 $140 $210 forward 7 unknown #
edge $-1 $145 67.303785088655857 $209 73.38140934953627 $83 $211 forward 7 unknown #
coedge $-1 $84 $204 $207 $212 forward $79 $-1 #
vertex $-1 $141 $213 #
vertex $-1 $85 $214 #
straight-curve $-1 22.985348098713587 47.564134272101199 16.208205850300644 0 -1 0 I I #
coedge $-1 $147 $147 $-1 $215 reversed $88 $-1 #
edge $-1 $216 0 $216 6.2831853071796004 $89 $217 forward 7 unknown #
vertex $-1 $92 $218 #
ellipse-curve $-1 32.110200182905018 35.171298650260432 13.576517324505799 0 0.86602541151947299 0.49999998660252726 1.5 0 0 1 I I #
coedge $-1 $151 $151 $-1 $219 reversed $95 $-1 #
edge $-1 $220 0 $220 6.2831853071796004 $96 $221 forward 7 unknown #
vertex $-1 $99 $222 #
ellipse-curve $-1 45.797478309192172 35.171298650260432 13.576517324505799 0 0.86602541151947299 0.49999998660252726 1.5 0 0 1 I I #
face $-1 $-1 $167 $15 $-1 $223 reversed single #
loop $-1 $-1 $224 $100 #
plane-surface $-1 0 36.690704674768135 0 0 -1 0 0 0 -1 forward_v I I I I #
coedge $-1 $173 $172 $225 $226 forward $101 $-1 #
coedge $-1 $103 $113 $227 $228 forward $63 $-1 #
coedge $-1 $166 $109 $103 $161 reversed $167 $-1 #
edge $-1 $229 -36.690704674768135 $114 36.690704674768135 $160 $230 forward 7 unknown #
coedge $-1 $105 $104 $172 $231 forward $41 $-1 #
coedge $-1 $224 $225 $104 $164 reversed $156 $-1 #
edge $-1 $169 -54.922330393383589 $232 54.922330393383589 $163 $233 forward 7 unknown #
edge $-1 $174 -54.922330393383589 $168 54.922330393383589 $108 $234 forward 7 unknown #
coedge $-1 $106 $160 $224 $235 reversed $167 $-1 #
loop $-1 $-1 $109 $155 #
vertex $-1 $107 $236 #
vertex $-1 $107 $237 #
straight-curve $-1 54.922330393383589 0 16.208205850300644 0 1 0 I I #
straight-curve $-1 54.922330393383589 -36.690704674768135 0 0 0 -1 I I #
coedge $-1 $158 $111 $162 $231 reversed $101 $-1 #
coedge $-1 $111 $158 $113 $176 reversed $101 $-1 #
vertex $-1 $231 $238 #
straight-curve $-1 -54.922330393383589 -36.690704674768135 0 0 0 -1 I I #
edge $-1 $115 -36.690704674768135 $239 36.690704674768135 $173 $240 forward 7 unknown #
point $-1 54.922330393383589 -36.690704674768135 -16.208205850300644 #
point $-1 -54.922330393383589 -36.690704674768135 -16.208205850300644 #
face $-1 $-1 $192 $16 $-1 $241 reversed single #
plane-surface $-1 -46.04385244889535 -47.173140576110633 0 -1 0 0 0 0 1 forward_v I I I I #
coedge $-1 $242 $243 $244 $245 forward $118 $-1 #
coedge $-1 $244 $120 $191 $246 reversed $71 $-1 #
coedge $-1 $120 $244 $121 $186 reversed $71 $-1 #
edge $-1 $188 -16.208205850300644 $193 16.208205850300644 $120 $247 forward 7 unknown #
coedge $-1 $122 $121 $243 $248 forward $45 $-1 #
edge $-1 $188 36.690704674768135 $249 57.655576477453131 $183 $250 forward 7 unknown #
edge $-1 $251 -10.482435901342498 $130 10.482435901342498 $127 $252 forward 7 unknown #
vertex $-1 $186 $253 #
straight-curve $-1 0 -36.690704674768135 16.208205850300644 -1 0 0 I I #
coedge $-1 $254 $125 $128 $196 forward $192 $-1 #
coedge $-1 $125 $254 $182 $246 forward $192 $-1 #
loop $-1 $-1 $125 $179 #
vertex $-1 $184 $255 #
straight-curve $-1 0 -36.690704674768135 -16.208205850300644 1 0 0 I I #
coedge $-1 $128 $127 $256 $257 forward $129 $-1 #
edge $-1 $131 -10.482435901342498 $258 10.482435901342498 $128 $259 forward 7 unknown #
point $-1 -46.04385244889535 -36.690704674768135 16.208205850300644 #
point $-1 -46.04385244889535 -36.690704674768135 -16.208205850300644 #
loop $-1 $-1 $140 $133 #
plane-surface $-1 0 36.690704674768135 0 0 -1 0 0 0 -1 forward_v I I I I #
coedge $-1 $260 $261 $137 $203 forward $134 $-1 #
coedge $-1 $137 $136 $208 $262 reversed $49 $-1 #
edge $-1 $205 35.046506404591483 $263 41.124130665471895 $201 $264 forward 7 unknown #
coedge $-1 $143 $138 $261 $265 forward $79 $-1 #
vertex $-1 $265 $266 #
straight-curve $-1 19.476919623024294 33.651892625752723 16.208205850300651 1 0 0 I I #
coedge $-1 $267 $140 $143 $212 reversed $199 $-1 #
coedge $-1 $140 $267 $202 $262 forward $199 $-1 #
vertex $-1 $141 $268 #
straight-curve $-1 22.985348098713587 36.690704674768135 64.708661475132374 0 0 1 I I #
straight-curve $-1 22.985348098713587 9.8312543173051381e-007 74.494994028522001 0 0.49999998660252726 -0.86602541151947299 I I #
edge $-1 $269 -54.922330393383589 $144 -22.985348098713587 $207 $270 forward 7 unknown #
point $-1 22.985348098713587 36.690704674768135 16.208205850300644 #
point $-1 22.985348098713587 33.651892625752737 16.208205850300644 #
edge $-1 $271 1 $271 0 $147 $-1 forward 7 unknown #
vertex $-1 $148 $272 #
ellipse-curve $-1 32.110200182905018 32.12464255495756 11.817529670597111 0 0.86602541151947299 0.49999998660252726 1.5 0 0 1 I I #
point $-1 33.610200182905018 35.171298650260454 13.576517324505812 #
edge $-1 $273 1 $273 0 $151 $-1 forward 7 unknown #
vertex $-1 $152 $274 #
ellipse-curve $-1 45.797478309192172 32.12464255495756 11.817529670597111 0 0.86602541151947299 0.49999998660252726 1.5 0 0 1 I I #
point $-1 47.297478309192172 35.171298650260454 13.576517324505812 #
plane-surface $-1 54.922330393383589 0 0 -1 0 0 0 0 1 forward_v I I I I #
coedge $-1 $227 $163 $166 $235 forward $156 $-1 #
coedge $-1 $163 $227 $158 $226 reversed $156 $-1 #
edge $-1 $232 -16.208205850300644 $239 16.208205850300644 $225 $275 forward 7 unknown #
coedge $-1 $225 $224 $159 $228 reversed $156 $-1 #
edge $-1 $239 -54.922330393383589 $229 54.922330393383589 $227 $276 forward 7 unknown #
vertex $-1 $161 $277 #
straight-curve $-1 54.922330393383589 0 -16.208205850300644 0 -1 0 I I #
edge $-1 $232 -36.690704674768135 $174 36.690704674768135 $172 $278 forward 7 unknown #
vertex $-1 $164 $279 #
straight-curve $-1 0 36.690704674768135 16.208205850300644 -1 0 0 I I #
straight-curve $-1 0 -36.690704674768135 16.208205850300644 1 0 0 I I #
edge $-1 $169 -16.208205850300644 $229 16.208205850300644 $166 $280 forward 7 unknown #
point $-1 54.922330393383589 -36.690704674768135 16.208205850300644 #
point $-1 54.922330393383589 36.690704674768135 16.208205850300644 #
point $-1 -54.922330393383589 -36.690704674768135 16.208205850300644 #
vertex $-1 $228 $281 #
straight-curve $-1 -54.922330393383589 0 -16.208205850300644 0 1 0 I I #
plane-surface $-1 0 0 -16.208205850300644 0 0 1 1 0 0 forward_v I I I I #
coedge $-1 $256 $181 $254 $282 reversed $118 $-1 #
coedge $-1 $181 $256 $185 $248 reversed $118 $-1 #
coedge $-1 $183 $182 $181 $245 reversed $71 $-1 #
edge $-1 $249 -16.208205850300644 $283 16.208205850300644 $244 $284 forward 7 unknown #
edge $-1 $283 -57.655576477453131 $193 -36.690704674768135 $182 $285 forward 7 unknown #
straight-curve $-1 -54.922330393383589 -36.690704674768135 0 0 0 -1 I I #
edge $-1 $249 -4.4392389722441195 $251 4.4392389722441195 $243 $286 forward 7 unknown #
vertex $-1 $186 $287 #
straight-curve $-1 -54.922330393383589 0 16.208205850300644 0 -1 0 I I #
vertex $-1 $187 $288 #
straight-curve $-1 -46.04385244889535 -47.173140576110633 16.208205850300644 0 1 0 I I #
point $-1 -54.922330393383589 -36.690704674768135 16.208205850300644 #
coedge $-1 $191 $190 $242 $282 forward $192 $-1 #
point $-1 -54.922330393383589 -36.690704674768135 -16.208205850300644 #
coedge $-1 $243 $242 $195 $257 reversed $118 $-1 #
edge $-1 $251 -16.208205850300644 $258 16.208205850300644 $195 $289 forward 7 unknown #
vertex $-1 $257 $290 #
straight-curve $-1 -46.04385244889535 -47.173140576110633 -16.208205850300644 0 -1 0 I I #
coedge $-1 $261 $201 $267 $291 reversed $134 $-1 #
coedge $-1 $201 $260 $204 $265 reversed $134 $-1 #
edge $-1 $263 -35.445410770359295 $209 -3.5084284756892927 $208 $292 forward 7 unknown #
vertex $-1 $203 $293 #
straight-curve $-1 54.922330393383589 16.128639892991604 46.559370981656826 0 0.49999998660252726 -0.86602541151947299 I I #
edge $-1 $205 33.651892625752737 $269 36.690704674768135 $261 $294 forward 7 unknown #
point $-1 54.922330393383589 33.651892625752737 16.208205850300644 #
coedge $-1 $208 $207 $260 $291 forward $199 $-1 #
point $-1 22.985348098713587 36.690704674768135 10.944828798710951 #
vertex $-1 $265 $295 #
straight-curve $-1 0 36.690704674768135 16.208205850300644 -1 0 0 I I #
vertex $-1 $215 $296 #
point $-1 33.610200182905018 32.12464255495756 11.817529670597111 #
vertex $-1 $219 $297 #
point $-1 47.297478309192172 32.12464255495756 11.817529670597111 #
straight-curve $-1 -54.922330393383589 36.690704674768135 0 0 0 -1 I I #
straight-curve $-1 0 36.690704674768135 -16.208205850300644 1 0 0 I I #
point $-1 54.922330393383589 36.690704674768135 -16.208205850300644 #
straight-curve $-1 -54.922330393383589 0 16.208205850300644 0 -1 0 I I #
point $-1 -54.922330393383589 36.690704674768135 16.208205850300644 #
straight-curve $-1 54.922330393383589 36.690704674768135 0 0 0 -1 I I #
point $-1 -54.922330393383589 36.690704674768135 -16.208205850300644 #
edge $-1 $258 -4.4392389722441195 $283 4.4392389722441195 $242 $298 forward 7 unknown #
vertex $-1 $246 $299 #
straight-curve $-1 -54.922330393383589 -57.655576477453131 0 0 0 -1 I I #
straight-curve $-1 -54.922330393383589 0 -16.208205850300644 0 1 0 I I #
straight-curve $-1 -50.48309142113947 -57.655576477453131 16.208205850300644 1 0 0 I I #
point $-1 -54.922330393383589 -57.655576477453131 16.208205850300644 #
point $-1 -46.04385244889535 -57.655576477453131 16.208205850300644 #
straight-curve $-1 -46.04385244889535 -57.655576477453131 0 0 0 -1 I I #
point $-1 -46.04385244889535 -57.655576477453131 -16.208205850300644 #
edge $-1 $269 -16.208205850300644 $263 -10.944828798710951 $260 $300 forward 7 unknown #
straight-curve $-1 19.476919623024294 36.690704674768135 10.944828798710947 -1 0 0 I I #
point $-1 54.922330393383589 36.690704674768135 10.944828798710951 #
straight-curve $-1 54.922330393383589 0 16.208205850300644 0 1 0 I I #
point $-1 54.922330393383589 36.690704674768135 16.208205850300644 #
point $-1 32.110200182905018 30.825604437678351 11.06752969069332 #
point $-1 45.797478309192172 30.825604437678351 11.06752969069332 #
straight-curve $-1 -50.48309142113947 -57.655576477453131 -16.208205850300644 -1 0 0 I I #
point $-1 -54.922330393383589 -57.655576477453131 -16.208205850300644 #
straight-curve $-1 54.922330393383589 36.690704674768135 0 0 0 -1 I I #
End-of-ACIS-data 