500 0 7 0           
7 Unknown 11 ACIS 5.0 NT 24 Thu Mar 25 21:19:38 1999 
-1 9.9999999999999995e-007 1e-010 
body $-1 $7 $-1 $8 #
body $-1 $9 $-1 $10 #
body $-1 $11 $-1 $12 #
body $-1 $13 $-1 $14 #
body $-1 $15 $-1 $16 #
body $-1 $17 $-1 $18 #
body $-1 $19 $-1 $20 #
lump $-1 $-1 $21 $0 #
transform $-1 1 0 0 0 1 0 0 0 1 68.517715994750816 29.889382020245023 13.594756733204861 1 rotate no_reflect no_shear #
lump $-1 $-1 $22 $1 #
transform $-1 1 0 0 0 1 0 0 0 1 68.517715994750816 29.889382020245023 13.594756733204861 1 rotate no_reflect no_shear #
lump $-1 $-1 $23 $2 #
transform $-1 1 0 0 0 1 0 0 0 1 68.517715994750816 29.889382020245023 13.594756733204861 1 rotate no_reflect no_shear #
lump $-1 $-1 $24 $3 #
transform $-1 1 0 0 0 1 0 0 0 1 68.517715994750816 29.889382020245023 13.594756733204861 1 rotate no_reflect no_shear #
lump $-1 $-1 $25 $4 #
transform $-1 1 0 0 0 1 0 0 0 1 68.517715994750816 29.889382020245023 13.594756733204861 1 rotate no_reflect no_shear #
lump $-1 $-1 $26 $5 #
transform $-1 1 0 0 0 1 0 0 0 1 68.517715994750816 29.889382020245023 13.594756733204861 1 rotate no_reflect no_shear #
lump $-1 $-1 $27 $6 #
transform $-1 1 0 0 0 1 0 0 0 1 68.517715994750816 29.889382020245023 13.594756733204861 1 rotate no_reflect no_shear #
shell $-1 $-1 $-1 $28 $-1 $7 #
shell $-1 $-1 $-1 $29 $-1 $9 #
shell $-1 $-1 $-1 $30 $-1 $11 #
shell $-1 $-1 $-1 $31 $-1 $13 #
shell $-1 $-1 $-1 $32 $-1 $15 #
shell $-1 $-1 $-1 $33 $-1 $17 #
shell $-1 $-1 $-1 $34 $-1 $19 #
face $-1 $35 $36 $21 $-1 $37 forward single #
face $-1 $38 $39 $22 $-1 $40 reversed single #
face $-1 $41 $42 $23 $-1 $43 reversed single #
face $-1 $44 $45 $24 $-1 $46 forward single #
face $-1 $47 $48 $25 $-1 $49 forward single #
face $-1 $50 $51 $26 $-1 $52 reversed single #
face $-1 $53 $54 $27 $-1 $55 forward single #
face $-1 $56 $57 $21 $-1 $58 reversed single #
loop $-1 $-1 $59 $28 #
plane-surface $-1 0 0 13.594756733204861 0 0 1 1 0 0 forward_v I I I I #
face $-1 $60 $61 $22 $-1 $62 reversed single #
loop $-1 $-1 $63 $29 #
plane-surface $-1 0 -22.564058098802789 5.9679683447710214 0 0 1 1 0 0 forward_v I I I I #
face $-1 $64 $65 $23 $-1 $66 reversed single #
loop $-1 $-1 $67 $30 #
plane-surface $-1 -175.01424967591066 7.7778656084274083 95.717790473805721 0 1 0 -0.77714596973225614 0 0.62932038083071107 forward_v I I I I #
face $-1 $68 $69 $24 $-1 $70 forward single #
loop $-1 $71 $72 $31 #
cone-surface $-1 -65.469439967692239 11.161085320569512 10.417818404179151 0.77714596973225614 0 -0.62932038083071107 0.62932038083071107 0 0.77714596973225614 1 I I 0 1 1 forward I I I I #
face $-1 $73 $74 $25 $-1 $75 forward single #
loop $-1 $76 $77 $32 #
cone-surface $-1 -65.469439967692239 16.235914888782673 10.417818404179151 0.77714596973225614 0 -0.62932038083071107 0.62932038083071107 0 0.77714596973225614 1 I I 0 1 1 forward I I I I #
face $-1 $78 $79 $26 $-1 $80 reversed single #
loop $-1 $-1 $81 $33 #
plane-surface $-1 98.834306005845448 10.619948238972841 192.25142625928046 0 -1 0 -0.80901700255871778 0 -0.5877852410284794 forward_v I I I I #
face $-1 $82 $83 $27 $-1 $84 forward single #
loop $-1 $85 $86 $34 #
cone-surface $-1 61.900047330826965 5.1199817361381506 5.7757558002896303 -0.80901700255871778 0 -0.5877852410284794 0.8816778615427191 0 -1.2135255038380768 1 I I 0 1 1.5 forward I I I I #
face $-1 $87 $88 $21 $-1 $89 reversed single #
loop $-1 $-1 $90 $35 #
plane-surface $-1 0 0 -13.594756733204861 0 0 1 1 0 0 forward_v I I I I #
coedge $-1 $91 $92 $93 $94 forward $36 $-1 #
face $-1 $95 $96 $22 $-1 $97 reversed single #
loop $-1 $-1 $98 $38 #
plane-surface $-1 0 -15.238734177360556 9.7813625389879419 0 -1 0 0 0 -1 forward_v I I I I #
coedge $-1 $99 $100 $101 $102 reversed $39 $-1 #
face $-1 $103 $104 $23 $-1 $105 reversed single #
loop $-1 $-1 $106 $41 #
plane-surface $-1 -68.517715994750787 13.6985001046761 9.4786002268715492 -0.77714596973225614 0 0.62932038083071107 0.62932038083071107 0 0.77714596973225614 forward_v I I I I #
coedge $-1 $107 $108 $109 $110 reversed $42 $-1 #
face $-1 $-1 $111 $24 $-1 $112 forward single #
loop $-1 $113 $114 $44 #
cone-surface $-1 -63.699189819438487 11.161085320569512 8.9842981379047337 0.77714596973225614 0 -0.62932038083071107 0.31466019041535553 0 0.38857298486612807 1 I I -0.70710678118654746 0.70710678118654746 0.5 forward I I I I #
loop $-1 $-1 $115 $31 #
coedge $-1 $72 $72 $116 $117 reversed $45 $-1 #
face $-1 $-1 $118 $25 $-1 $119 forward single #
loop $-1 $120 $121 $47 #
cone-surface $-1 -63.699189819438487 16.235914888782673 8.9842981379047337 0.77714596973225614 0 -0.62932038083071107 0.31466019041535553 0 0.38857298486612807 1 I I -0.70710678118654746 0.70710678118654746 0.5 forward I I I I #
loop $-1 $-1 $122 $32 #
coedge $-1 $77 $77 $123 $124 reversed $48 $-1 #
face $-1 $125 $126 $26 $-1 $127 reversed single #
loop $-1 $-1 $128 $50 #
plane-surface $-1 -12.029688426640192 5.1199817361381506 111.70402183788946 0.80901700255871778 0 0.5877852410284794 0.5877852410284794 0 -0.80901700255871778 forward_v I I I I #
coedge $-1 $129 $130 $131 $132 reversed $51 $-1 #
face $-1 $-1 $133 $27 $-1 $134 forward single #
loop $-1 $135 $136 $53 #
cone-surface $-1 59.309042424243643 5.1199817361381506 3.8932806005035587 -0.80901700255871778 0 -0.5877852410284794 0.44083893077135955 0 -0.60676275191903839 1 I I -0.70710678118654757 0.70710678118654757 0.75 forward I I I I #
loop $-1 $-1 $137 $34 #
coedge $-1 $86 $86 $138 $139 reversed $54 $-1 #
face $-1 $140 $141 $21 $-1 $142 reversed single #
loop $-1 $-1 $143 $56 #
plane-surface $-1 0 -29.889382020245023 0 0 1 0 0 0 1 forward_v I I I I #
coedge $-1 $144 $145 $146 $147 forward $57 $-1 #
coedge $-1 $148 $59 $149 $150 forward $36 $-1 #
coedge $-1 $59 $148 $151 $152 forward $36 $-1 #
coedge $-1 $153 $154 $59 $94 reversed $155 $-1 #
edge $-1 $156 -29.889382020245023 $157 29.889382020245023 $93 $158 forward 7 unknown #
face $-1 $159 $160 $22 $-1 $161 reversed single #
loop $-1 $-1 $162 $60 #
plane-surface $-1 -68.517715994750816 0 0 1 0 0 0 0 -1 forward_v I I I I #
coedge $-1 $163 $164 $165 $166 reversed $61 $-1 #
coedge $-1 $167 $63 $168 $169 reversed $39 $-1 #
coedge $-1 $63 $167 $163 $170 forward $39 $-1 #
coedge $-1 $165 $171 $63 $102 forward $172 $-1 #
edge $-1 $173 -18.607352970843628 $174 -3.956705127959161 $101 $175 forward 7 unknown #
face $-1 $176 $177 $23 $-1 $178 forward single #
loop $-1 $-1 $179 $64 #
plane-surface $-1 -175.01424967591066 19.619134600924792 95.717790473805721 0 -1 0 0.77714596973225614 0 -0.62932038083071107 forward_v I I I I #
coedge $-1 $180 $181 $182 $183 reversed $65 $-1 #
coedge $-1 $108 $67 $184 $185 reversed $42 $-1 #
coedge $-1 $67 $107 $180 $186 reversed $42 $-1 #
coedge $-1 $182 $187 $67 $110 forward $177 $-1 #
edge $-1 $188 18.989408843204515 $189 22.322606570546469 $109 $190 forward 7 unknown #
loop $-1 $-1 $116 $68 #
plane-surface $-1 -68.517715994750787 13.6985001046761 9.4786002268715492 -0.77714596973225614 0 0.62932038083071107 0.62932038083071107 0 0.77714596973225614 forward_v I I I I #
loop $-1 $-1 $191 $44 #
coedge $-1 $114 $114 $115 $192 reversed $69 $-1 #
coedge $-1 $115 $115 $114 $192 forward $71 $-1 #
coedge $-1 $116 $116 $72 $117 forward $111 $-1 #
edge $-1 $193 0 $193 6.2831853071796004 $116 $194 forward 7 unknown #
loop $-1 $-1 $123 $73 #
plane-surface $-1 -68.517715994750787 13.6985001046761 9.4786002268715492 -0.77714596973225614 0 0.62932038083071107 0.62932038083071107 0 0.77714596973225614 forward_v I I I I #
loop $-1 $-1 $195 $47 #
coedge $-1 $121 $121 $122 $196 reversed $74 $-1 #
coedge $-1 $122 $122 $121 $196 forward $76 $-1 #
coedge $-1 $123 $123 $77 $124 forward $118 $-1 #
edge $-1 $197 0 $197 6.2831853071796004 $123 $198 forward 7 unknown #
face $-1 $199 $200 $26 $-1 $201 reversed single #
loop $-1 $-1 $202 $78 #
plane-surface $-1 98.834306005845448 -0.37998476669653947 192.25142625928046 0 1 0 0.80901700255871778 0 0.5877852410284794 forward_v I I I I #
coedge $-1 $203 $204 $205 $206 reversed $79 $-1 #
coedge $-1 $130 $81 $207 $208 reversed $51 $-1 #
coedge $-1 $81 $129 $203 $209 reversed $51 $-1 #
coedge $-1 $205 $210 $81 $132 forward $211 $-1 #
edge $-1 $212 -19.100562991828092 $213 -9.833709973308963 $131 $214 forward 7 unknown #
loop $-1 $-1 $138 $82 #
plane-surface $-1 -12.029688426640192 5.1199817361381506 111.70402183788946 0.80901700255871778 0 0.5877852410284794 0.5877852410284794 0 -0.80901700255871778 forward_v I I I I #
loop $-1 $-1 $215 $53 #
coedge $-1 $136 $136 $137 $216 reversed $83 $-1 #
coedge $-1 $137 $137 $136 $216 forward $85 $-1 #
coedge $-1 $138 $138 $86 $139 forward $133 $-1 #
edge $-1 $217 0 $217 6.2831853071796004 $138 $218 forward 7 unknown #
face $-1 $219 $220 $21 $-1 $221 reversed single #
loop $-1 $-1 $222 $87 #
plane-surface $-1 -68.517715994750816 0 0 1 0 0 0 0 -1 forward_v I I I I #
coedge $-1 $223 $151 $224 $225 forward $88 $-1 #
coedge $-1 $226 $90 $223 $227 forward $57 $-1 #
coedge $-1 $90 $226 $228 $229 forward $57 $-1 #
coedge $-1 $154 $153 $90 $147 reversed $155 $-1 #
edge $-1 $230 -29.889382020245023 $231 29.889382020245023 $146 $232 forward 7 unknown #
coedge $-1 $92 $91 $233 $234 forward $36 $-1 #
coedge $-1 $235 $236 $91 $150 reversed $220 $-1 #
edge $-1 $157 -68.517715994750816 $237 68.517715994750816 $149 $238 forward 7 unknown #
coedge $-1 $143 $239 $92 $152 reversed $88 $-1 #
edge $-1 $240 -68.517715994750816 $156 68.517715994750816 $151 $241 forward 7 unknown #
coedge $-1 $146 $93 $239 $242 forward $155 $-1 #
coedge $-1 $93 $146 $235 $243 reversed $155 $-1 #
loop $-1 $-1 $153 $219 #
vertex $-1 $94 $244 #
vertex $-1 $94 $245 #
straight-curve $-1 68.517715994750816 0 13.594756733204861 0 1 0 I I #
face $-1 $246 $247 $22 $-1 $248 forward single #
loop $-1 $-1 $168 $95 #
plane-surface $-1 0 -29.889382020245023 0 0 1 0 0 0 1 forward_v I I I I #
coedge $-1 $249 $250 $251 $252 forward $96 $-1 #
coedge $-1 $251 $98 $100 $170 reversed $61 $-1 #
coedge $-1 $98 $251 $253 $254 reversed $61 $-1 #
coedge $-1 $255 $101 $98 $166 forward $172 $-1 #
edge $-1 $174 1.0772870752770505 $256 8.7040754637108915 $165 $257 forward 7 unknown #
coedge $-1 $100 $99 $249 $258 reversed $39 $-1 #
coedge $-1 $259 $260 $99 $169 forward $160 $-1 #
edge $-1 $261 -68.517715994750816 $173 68.517715994750816 $168 $262 forward 7 unknown #
edge $-1 $263 -68.517715994750816 $174 68.517715994750816 $163 $264 forward 7 unknown #
coedge $-1 $101 $255 $259 $265 forward $172 $-1 #
loop $-1 $-1 $165 $246 #
vertex $-1 $169 $266 #
vertex $-1 $102 $267 #
straight-curve $-1 68.517715994750816 -11.282029049401395 5.9679683447710214 0 1 0 I I #
face $-1 $-1 $268 $23 $-1 $269 reversed single #
loop $-1 $-1 $109 $103 #
plane-surface $-1 0 0 13.594756733204861 0 0 1 1 0 0 forward_v I I I I #
coedge $-1 $270 $271 $272 $273 reversed $104 $-1 #
coedge $-1 $274 $106 $108 $186 forward $65 $-1 #
coedge $-1 $106 $274 $270 $275 forward $65 $-1 #
coedge $-1 $272 $109 $106 $183 forward $177 $-1 #
edge $-1 $189 0.92861555608935831 $276 12.769884548586742 $182 $277 forward 7 unknown #
coedge $-1 $278 $279 $107 $185 forward $268 $-1 #
edge $-1 $280 -38.380295010031347 $188 -34.264138503698 $184 $281 forward 7 unknown #
edge $-1 $189 -5.2965037028390185 $280 4.5496132173526324e-014 $108 $282 forward 7 unknown #
coedge $-1 $109 $272 $278 $283 forward $177 $-1 #
vertex $-1 $185 $284 #
vertex $-1 $110 $285 #
straight-curve $-1 -87.507124837955331 7.7778656084274083 13.594756733204861 1 0 0 I I #
coedge $-1 $191 $191 $-1 $286 reversed $113 $-1 #
edge $-1 $287 0 $287 6.2831853071796004 $114 $288 forward 7 unknown #
vertex $-1 $117 $289 #
ellipse-curve $-1 -66.851117131079832 11.161085320569512 11.536678480038193 -0.77714596973225614 0 0.62932038083071107 0.62932038083071107 0 0.77714596973225614 1 I I #
coedge $-1 $195 $195 $-1 $290 reversed $120 $-1 #
edge $-1 $291 0 $291 6.2831853071796004 $121 $292 forward 7 unknown #
vertex $-1 $124 $293 #
ellipse-curve $-1 -66.851117131079832 16.235914888782673 11.536678480038193 -0.77714596973225614 0 0.62932038083071107 0.62932038083071107 0 0.77714596973225614 1 I I #
face $-1 $-1 $211 $26 $-1 $294 forward single #
loop $-1 $-1 $295 $125 #
plane-surface $-1 68.517715994750816 0 0 -1 0 0 0 0 1 forward_v I I I I #
coedge $-1 $296 $297 $298 $299 reversed $126 $-1 #
coedge $-1 $300 $128 $130 $209 forward $79 $-1 #
coedge $-1 $128 $300 $296 $301 forward $79 $-1 #
coedge $-1 $298 $131 $128 $206 forward $211 $-1 #
edge $-1 $213 -8.0599573709037653 $302 2.9399756347656147 $205 $303 forward 7 unknown #
coedge $-1 $304 $305 $129 $208 forward $200 $-1 #
edge $-1 $306 -95.285685724236416 $212 -82.530956396435371 $207 $307 forward 7 unknown #
edge $-1 $213 121.2697196652105 $306 137.03543198950163 $130 $308 forward 7 unknown #
coedge $-1 $131 $298 $304 $309 forward $211 $-1 #
loop $-1 $-1 $298 $199 #
vertex $-1 $208 $310 #
vertex $-1 $132 $311 #
straight-curve $-1 49.417153002922724 10.619948238972841 13.594756733204861 -1 0 0 I I #
coedge $-1 $215 $215 $-1 $312 reversed $135 $-1 #
edge $-1 $313 0 $313 6.2831853071796004 $136 $314 forward 7 unknown #
vertex $-1 $139 $315 #
ellipse-curve $-1 63.884289485491252 5.1199817361381506 7.2173920693043465 0.80901700255871778 0 0.5877852410284794 0.8816778615427191 0 -1.2135255038380768 1 I I #
face $-1 $-1 $155 $21 $-1 $316 reversed single #
loop $-1 $-1 $235 $140 #
plane-surface $-1 0 29.889382020245023 0 0 -1 0 0 0 -1 forward_v I I I I #
coedge $-1 $317 $233 $236 $318 forward $141 $-1 #
coedge $-1 $239 $143 $144 $227 reversed $88 $-1 #
coedge $-1 $233 $317 $143 $225 reversed $141 $-1 #
edge $-1 $240 -13.594756733204861 $319 13.594756733204861 $224 $320 forward 7 unknown #
coedge $-1 $145 $144 $317 $321 forward $57 $-1 #
edge $-1 $231 -68.517715994750816 $319 68.517715994750816 $223 $322 forward 7 unknown #
coedge $-1 $236 $235 $145 $229 reversed $220 $-1 #
edge $-1 $323 -68.517715994750816 $230 68.517715994750816 $228 $324 forward 7 unknown #
vertex $-1 $147 $325 #
vertex $-1 $242 $326 #
straight-curve $-1 68.517715994750816 0 -13.594756733204861 0 -1 0 I I #
coedge $-1 $222 $224 $148 $234 reversed $141 $-1 #
edge $-1 $237 -29.889382020245023 $240 29.889382020245023 $233 $327 forward 7 unknown #
coedge $-1 $228 $149 $154 $243 forward $220 $-1 #
coedge $-1 $149 $228 $222 $318 reversed $220 $-1 #
vertex $-1 $150 $328 #
straight-curve $-1 0 29.889382020245023 13.594756733204861 -1 0 0 I I #
coedge $-1 $151 $223 $153 $242 reversed $88 $-1 #
vertex $-1 $234 $329 #
straight-curve $-1 0 -29.889382020245023 13.594756733204861 1 0 0 I I #
edge $-1 $156 -13.594756733204861 $231 13.594756733204861 $153 $330 forward 7 unknown #
edge $-1 $157 -13.594756733204861 $230 13.594756733204861 $154 $331 forward 7 unknown #
point $-1 68.517715994750816 -29.889382020245023 13.594756733204861 #
point $-1 68.517715994750816 29.889382020245023 13.594756733204861 #
face $-1 $-1 $172 $22 $-1 $332 reversed single #
loop $-1 $-1 $253 $159 #
plane-surface $-1 0 0 13.594756733204861 0 0 1 1 0 0 forward_v I I I I #
coedge $-1 $333 $162 $167 $258 forward $96 $-1 #
coedge $-1 $162 $333 $334 $335 reversed $96 $-1 #
coedge $-1 $164 $163 $162 $252 reversed $61 $-1 #
edge $-1 $336 -8.7040754637108915 $263 -1.0772870752770505 $162 $337 forward 7 unknown #
coedge $-1 $334 $338 $164 $254 forward $247 $-1 #
edge $-1 $256 -68.517715994750816 $336 68.517715994750816 $253 $339 forward 7 unknown #
coedge $-1 $171 $165 $338 $340 reversed $172 $-1 #
vertex $-1 $166 $341 #
straight-curve $-1 68.517715994750816 -15.238734177360556 4.890681269493971 0 0 1 I I #
edge $-1 $263 3.956705127959161 $261 18.607352970843628 $249 $342 forward 7 unknown #
coedge $-1 $343 $168 $171 $265 reversed $160 $-1 #
coedge $-1 $168 $343 $333 $344 forward $160 $-1 #
vertex $-1 $169 $345 #
straight-curve $-1 0 -29.889382020245023 5.9679683447710214 1 0 0 I I #
vertex $-1 $258 $346 #
straight-curve $-1 0 -15.238734177360556 5.9679683447710214 1 0 0 I I #
edge $-1 $347 -13.594756733204861 $173 -5.9679683447710214 $171 $348 forward 7 unknown #
point $-1 68.517715994750816 -29.889382020245023 5.9679683447710214 #
point $-1 68.517715994750816 -15.238734177360556 5.9679683447710214 #
loop $-1 $-1 $184 $176 #
plane-surface $-1 -68.517715994750816 0 0 1 0 0 0 0 -1 forward_v I I I I #
coedge $-1 $271 $179 $181 $275 reversed $104 $-1 #
coedge $-1 $179 $270 $349 $350 reversed $104 $-1 #
coedge $-1 $187 $182 $179 $273 forward $177 $-1 #
edge $-1 $276 -22.322606570546469 $351 -18.989408843204515 $272 $352 forward 7 unknown #
coedge $-1 $181 $180 $279 $353 reversed $65 $-1 #
edge $-1 $354 -4.5496132173526324e-014 $276 5.2965037028390185 $270 $355 forward 7 unknown #
vertex $-1 $183 $356 #
straight-curve $-1 -65.184518267408876 6.84925005233805 13.594756733204859 0 1 0 I I #
coedge $-1 $349 $184 $187 $283 reversed $268 $-1 #
coedge $-1 $184 $349 $274 $353 forward $268 $-1 #
vertex $-1 $185 $357 #
straight-curve $-1 -68.517715994750816 7.7778656084274083 47.85889523690286 0 0 1 I I #
straight-curve $-1 -68.517715994750787 7.7778656084274083 9.4786002268715492 -0.62932038083071107 0 -0.77714596973225614 I I #
edge $-1 $351 -19.619134600924792 $188 -7.7778656084274083 $278 $358 forward 7 unknown #
point $-1 -68.517715994750816 7.7778656084274083 13.594756733204861 #
point $-1 -65.184518267408862 7.7778656084274083 13.594756733204861 #
edge $-1 $359 1 $359 0 $191 $-1 forward 7 unknown #
vertex $-1 $192 $360 #
ellipse-curve $-1 -64.087762804304617 11.161085320569512 9.2989583283200901 -0.77714596973225614 0 0.62932038083071107 0.62932038083071107 0 0.77714596973225614 1 I I #
point $-1 -66.221796750249155 11.161085320569512 12.31382444977047 #
edge $-1 $361 1 $361 0 $195 $-1 forward 7 unknown #
vertex $-1 $196 $362 #
ellipse-curve $-1 -64.087762804304617 16.235914888782673 9.2989583283200901 -0.77714596973225614 0 0.62932038083071107 0.62932038083071107 0 0.77714596973225614 1 I I #
point $-1 -66.221796750249155 16.235914888782673 12.31382444977047 #
plane-surface $-1 0 0 13.594756733204861 0 0 1 1 0 0 forward_v I I I I #
coedge $-1 $305 $304 $297 $363 forward $200 $-1 #
coedge $-1 $297 $202 $204 $301 reversed $126 $-1 #
coedge $-1 $202 $296 $295 $363 reversed $126 $-1 #
coedge $-1 $210 $205 $202 $299 forward $211 $-1 #
edge $-1 $302 9.833709973308963 $364 19.100562991828092 $298 $365 forward 7 unknown #
coedge $-1 $204 $203 $305 $366 reversed $79 $-1 #
edge $-1 $367 -137.03543198950163 $302 -121.2697196652105 $296 $368 forward 7 unknown #
vertex $-1 $206 $369 #
straight-curve $-1 59.250862976231687 2.5599908680690753 13.594756733204868 0 -1 0 I I #
coedge $-1 $295 $207 $210 $309 reversed $200 $-1 #
coedge $-1 $207 $295 $300 $366 forward $200 $-1 #
vertex $-1 $208 $370 #
straight-curve $-1 68.517715994750816 10.619948238972841 96.125713129640232 0 0 1 I I #
straight-curve $-1 -12.029688426640192 10.619948238972841 111.70402183788946 0.5877852410284794 0 -0.80901700255871778 I I #
edge $-1 $364 -0.37998476669653947 $212 10.619948238972841 $304 $371 forward 7 unknown #
point $-1 68.517715994750816 10.619948238972841 13.594756733204861 #
point $-1 59.250862976231687 10.619948238972841 13.594756733204861 #
edge $-1 $372 1 $372 0 $215 $-1 forward 7 unknown #
vertex $-1 $216 $373 #
ellipse-curve $-1 59.915805176162678 5.1199817361381506 4.3341195312749186 0.80901700255871778 0 0.5877852410284794 0.8816778615427191 0 -1.2135255038380768 1 I I #
point $-1 64.765967347033964 5.1199817361381506 6.0038665654662644 #
plane-surface $-1 68.517715994750816 0 0 -1 0 0 0 0 1 forward_v I I I I #
coedge $-1 $224 $222 $226 $321 reversed $141 $-1 #
edge $-1 $237 -13.594756733204861 $323 13.594756733204861 $236 $374 forward 7 unknown #
vertex $-1 $321 $375 #
straight-curve $-1 -68.517715994750816 -29.889382020245023 0 0 0 -1 I I #
edge $-1 $319 -29.889382020245023 $323 29.889382020245023 $317 $376 forward 7 unknown #
straight-curve $-1 0 -29.889382020245023 -13.594756733204861 -1 0 0 I I #
vertex $-1 $229 $377 #
straight-curve $-1 0 29.889382020245023 -13.594756733204861 1 0 0 I I #
point $-1 68.517715994750816 29.889382020245023 -13.594756733204861 #
point $-1 68.517715994750816 -29.889382020245023 -13.594756733204861 #
straight-curve $-1 -68.517715994750816 0 13.594756733204861 0 -1 0 I I #
point $-1 -68.517715994750816 29.889382020245023 13.594756733204861 #
point $-1 -68.517715994750816 -29.889382020245023 13.594756733204861 #
straight-curve $-1 68.517715994750816 -29.889382020245023 0 0 0 -1 I I #
straight-curve $-1 68.517715994750816 29.889382020245023 0 0 0 -1 I I #
plane-surface $-1 68.517715994750816 0 0 -1 0 0 0 0 1 forward_v I I I I #
coedge $-1 $250 $249 $260 $344 reversed $96 $-1 #
coedge $-1 $378 $253 $250 $335 forward $247 $-1 #
edge $-1 $336 15.238734177360556 $379 29.889382020245023 $250 $380 forward 7 unknown #
vertex $-1 $335 $381 #
straight-curve $-1 -68.517715994750816 -15.238734177360556 4.890681269493971 0 0 -1 I I #
coedge $-1 $253 $378 $255 $340 forward $247 $-1 #
straight-curve $-1 0 -15.238734177360556 13.594756733204861 -1 0 0 I I #
edge $-1 $347 -29.889382020245023 $256 -15.238734177360556 $255 $382 forward 7 unknown #
point $-1 68.517715994750816 -15.238734177360556 13.594756733204862 #
straight-curve $-1 -68.517715994750816 -11.282029049401395 5.9679683447710214 0 -1 0 I I #
coedge $-1 $260 $259 $378 $383 reversed $160 $-1 #
edge $-1 $379 -13.594756733204861 $261 -5.9679683447710214 $333 $384 forward 7 unknown #
point $-1 -68.517715994750816 -29.889382020245023 5.9679683447710214 #
point $-1 -68.517715994750816 -15.238734177360556 5.9679683447710214 #
vertex $-1 $340 $385 #
straight-curve $-1 68.517715994750816 -29.889382020245023 0 0 0 -1 I I #
coedge $-1 $279 $278 $271 $350 forward $268 $-1 #
edge $-1 $351 34.264138503698 $354 38.380295010031347 $349 $386 forward 7 unknown #
vertex $-1 $283 $387 #
straight-curve $-1 -87.507124837955331 19.619134600924792 13.594756733204861 -1 0 0 I I #
edge $-1 $354 -12.769884548586742 $280 -0.92861555608935831 $279 $388 forward 7 unknown #
vertex $-1 $353 $389 #
straight-curve $-1 -68.517715994750787 19.619134600924792 9.4786002268715492 0.62932038083071107 0 0.77714596973225614 I I #
point $-1 -65.184518267408862 19.619134600924792 13.594756733204861 #
point $-1 -68.517715994750816 7.7778656084274083 9.4786002268715137 #
straight-curve $-1 -68.517715994750816 0 13.594756733204861 0 -1 0 I I #
vertex $-1 $286 $390 #
point $-1 -63.458442423473905 11.161085320569512 10.076104298052346 #
vertex $-1 $290 $391 #
point $-1 -63.458442423473905 16.235914888782673 10.076104298052346 #
edge $-1 $364 82.530956396435371 $367 95.285685724236416 $295 $392 forward 7 unknown #
vertex $-1 $309 $393 #
straight-curve $-1 49.417153002922724 -0.37998476669653947 13.594756733204861 1 0 0 I I #
edge $-1 $367 -2.9399756347656147 $306 8.0599573709037653 $305 $394 forward 7 unknown #
vertex $-1 $366 $395 #
straight-curve $-1 -12.029688426640192 -0.37998476669653947 111.70402183788946 -0.5877852410284794 0 0.80901700255871778 I I #
point $-1 59.250862976231687 -0.37998476669653947 13.594756733204861 #
point $-1 68.517715994750816 10.619948238972841 0.84002740540381637 #
straight-curve $-1 68.517715994750816 0 13.594756733204861 0 1 0 I I #
vertex $-1 $312 $396 #
point $-1 60.797483037705398 5.1199817361381506 3.1205940274368418 #
straight-curve $-1 -68.517715994750816 29.889382020245023 0 0 0 -1 I I #
point $-1 -68.517715994750816 -29.889382020245023 -13.594756733204861 #
straight-curve $-1 -68.517715994750816 0 -13.594756733204861 0 1 0 I I #
point $-1 -68.517715994750816 29.889382020245023 -13.594756733204861 #
coedge $-1 $338 $334 $343 $383 forward $247 $-1 #
vertex $-1 $335 $397 #
straight-curve $-1 -68.517715994750816 0 13.594756733204861 0 -1 0 I I #
point $-1 -68.517715994750816 -15.238734177360556 13.594756733204862 #
straight-curve $-1 68.517715994750816 0 13.594756733204861 0 1 0 I I #
edge $-1 $379 -68.517715994750816 $347 68.517715994750816 $343 $398 forward 7 unknown #
straight-curve $-1 -68.517715994750816 -29.889382020245023 0 0 0 -1 I I #
point $-1 68.517715994750816 -29.889382020245023 13.594756733204861 #
straight-curve $-1 -68.517715994750816 19.619134600924792 47.85889523690286 0 0 -1 I I #
point $-1 -68.517715994750816 19.619134600924792 13.594756733204861 #
straight-curve $-1 -68.517715994750816 6.84925005233805 9.4786002268715208 0 -1 0 I I #
point $-1 -68.517715994750816 19.619134600924792 9.4786002268715137 #
point $-1 -63.310616834572357 11.161085320569512 8.6696379474893774 #
point $-1 -63.310616834572357 16.235914888782673 8.6696379474893774 #
straight-curve $-1 68.517715994750816 -0.37998476669653947 96.125713129640232 0 0 -1 I I #
point $-1 68.517715994750816 -0.37998476669653947 13.594756733204861 #
straight-curve $-1 68.517715994750816 2.5599908680690753 0.84002740540383058 0 1 0 I I #
point $-1 68.517715994750816 -0.37998476669653947 0.84002740540381637 #
point $-1 58.702279672324607 5.1199817361381506 3.4524416697321993 #
point $-1 -68.517715994750816 -29.889382020245023 13.594756733204861 #
straight-curve $-1 0 -29.889382020245023 13.594756733204861 1 0 0 I I #
End-of-ACIS-data 