500 0 5 0           
7 Unknown 11 ACIS 5.0 NT 24 Thu Mar 25 15:44:57 1999 
-1 9.9999999999999995e-007 1e-010 
body $-1 $5 $-1 $6 #
body $-1 $7 $-1 $8 #
body $-1 $9 $-1 $10 #
body $-1 $11 $-1 $12 #
body $-1 $13 $-1 $14 #
lump $-1 $-1 $15 $0 #
transform $-1 1 0 0 0 1 0 0 0 1 76.623432111575667 43.660647560411945 19.897593616126944 1 rotate no_reflect no_shear #
lump $-1 $-1 $16 $1 #
transform $-1 1 0 0 0 1 0 0 0 1 76.623432111575667 43.660647560411945 19.897593616126944 1 rotate no_reflect no_shear #
lump $-1 $-1 $17 $2 #
transform $-1 1 0 0 0 1 0 0 0 1 76.623432111575667 43.660647560411945 19.897593616126944 1 rotate no_reflect no_shear #
lump $-1 $-1 $18 $3 #
transform $-1 1 0 0 0 1 0 0 0 1 76.623432111575667 43.660647560411945 19.897593616126944 1 rotate no_reflect no_shear #
lump $-1 $-1 $19 $4 #
transform $-1 1 0 0 0 1 0 0 0 1 76.623432111575667 43.660647560411945 19.897593616126944 1 rotate no_reflect no_shear #
shell $-1 $-1 $-1 $20 $-1 $5 #
shell $-1 $-1 $-1 $21 $-1 $7 #
shell $-1 $-1 $-1 $22 $-1 $9 #
shell $-1 $-1 $-1 $23 $-1 $11 #
shell $-1 $-1 $-1 $24 $-1 $13 #
face $-1 $25 $26 $15 $-1 $27 forward single #
face $-1 $28 $29 $16 $-1 $30 reversed single #
face $-1 $31 $32 $17 $-1 $33 forward single #
face $-1 $34 $35 $18 $-1 $36 reversed single #
face $-1 $37 $38 $19 $-1 $39 reversed single #
face $-1 $40 $41 $15 $-1 $42 reversed single #
loop $-1 $-1 $43 $20 #
plane-surface $-1 0 0 19.897593616126944 0 0 1 1 0 0 forward_v I I I I #
face $-1 $44 $45 $16 $-1 $46 forward single #
loop $-1 $-1 $47 $21 #
plane-surface $-1 -69.689709460285314 0 11.35138703839189 0 0 1 1 0 0 forward_v I I I I #
face $-1 $48 $49 $17 $-1 $50 forward single #
loop $-1 $-1 $51 $22 #
plane-surface $-1 8.9354124616179575 66.149027302939785 183.17418247673029 1 0 0 0 -0.6018150307709319 -0.79863550430605224 forward_v I I I I #
face $-1 $52 $53 $18 $-1 $54 reversed single #
loop $-1 $55 $56 $23 #
cone-surface $-1 12.928862602056313 34.743556905237163 12.50229065225529 0 -0.6018150307709319 -0.79863550430605224 1.5 0 0 1 I I 0 1 1.5 forward I I I I #
face $-1 $57 $58 $19 $-1 $59 reversed single #
loop $-1 $60 $61 $24 #
cone-surface $-1 18.919037812713853 34.743556905237163 12.50229065225529 0 -0.6018150307709319 -0.79863550430605224 1.5 0 0 1 I I 0 1 1.5 forward I I I I #
face $-1 $62 $63 $15 $-1 $64 reversed single #
loop $-1 $-1 $65 $25 #
plane-surface $-1 0 0 -19.897593616126944 0 0 1 1 0 0 forward_v I I I I #
coedge $-1 $66 $67 $68 $69 forward $26 $-1 #
face $-1 $70 $71 $16 $-1 $72 forward single #
loop $-1 $-1 $73 $28 #
plane-surface $-1 -69.689709460285314 0 -0.37026125324599057 0 0 1 1 0 0 forward_v I I I I #
coedge $-1 $74 $75 $76 $77 reversed $29 $-1 #
face $-1 $78 $79 $17 $-1 $80 forward single #
loop $-1 $-1 $81 $31 #
plane-surface $-1 15.92395020738509 -26.077239005064854 60.785795784552718 0 0.6018150307709319 0.79863550430605224 1 0 0 forward_v I I I I #
coedge $-1 $82 $83 $84 $85 reversed $32 $-1 #
face $-1 $86 $87 $18 $-1 $88 forward single #
loop $-1 $89 $90 $34 #
cone-surface $-1 12.928862602056313 33.113810321732387 10.33954393098934 0 -0.6018150307709319 -0.79863550430605224 0.75 0 0 1 I I -0.70710678118654757 0.70710678118654757 0.75 forward I I I I #
loop $-1 $-1 $91 $23 #
coedge $-1 $56 $56 $92 $93 reversed $35 $-1 #
face $-1 $94 $95 $19 $-1 $96 reversed single #
loop $-1 $97 $98 $37 #
cone-surface $-1 18.919037812713853 33.113810321732387 10.33954393098934 0 -0.6018150307709319 -0.79863550430605224 0.75 0 0 1 I I -0.70710678118654757 0.70710678118654757 0.75 forward I I I I #
loop $-1 $-1 $99 $24 #
coedge $-1 $61 $61 $100 $101 reversed $38 $-1 #
face $-1 $102 $103 $15 $-1 $104 reversed single #
loop $-1 $-1 $105 $40 #
plane-surface $-1 0 -43.660647560411945 0 0 1 0 0 0 1 forward_v I I I I #
coedge $-1 $106 $107 $108 $109 forward $41 $-1 #
coedge $-1 $110 $43 $111 $112 forward $26 $-1 #
coedge $-1 $43 $110 $113 $114 forward $26 $-1 #
coedge $-1 $115 $116 $43 $69 reversed $117 $-1 #
edge $-1 $118 -43.660647560411945 $119 43.660647560411945 $68 $120 forward 7 unknown #
face $-1 $121 $122 $16 $-1 $123 reversed single #
loop $-1 $-1 $124 $44 #
plane-surface $-1 -62.755986808994969 0 5.4905628925729495 -1 0 0 0 0 1 forward_v I I I I #
coedge $-1 $125 $126 $127 $128 reversed $45 $-1 #
coedge $-1 $129 $47 $130 $131 reversed $29 $-1 #
coedge $-1 $47 $129 $132 $133 reversed $29 $-1 #
coedge $-1 $134 $124 $47 $77 forward $71 $-1 #
edge $-1 $135 -43.660647560411945 $136 43.660647560411945 $76 $137 forward 7 unknown #
face $-1 $138 $139 $17 $-1 $140 forward single #
loop $-1 $-1 $141 $48 #
plane-surface $-1 22.912487953152223 66.149027302939785 183.17418247673029 -1 0 0 0 0.6018150307709319 0.79863550430605224 forward_v I I I I #
coedge $-1 $142 $143 $144 $145 reversed $49 $-1 #
coedge $-1 $83 $51 $143 $146 forward $32 $-1 #
coedge $-1 $51 $82 $147 $148 reversed $32 $-1 #
coedge $-1 $149 $144 $51 $85 forward $139 $-1 #
edge $-1 $150 -4.8912767805543638 $151 10.586133908942053 $84 $152 forward 7 unknown #
face $-1 $153 $154 $18 $-1 $155 forward single #
loop $-1 $-1 $156 $52 #
plane-surface $-1 8.9354124616179575 66.149027302939785 183.17418247673029 1 0 0 0 -0.6018150307709319 -0.79863550430605224 forward_v I I I I #
loop $-1 $-1 $157 $34 #
coedge $-1 $90 $90 $91 $158 forward $53 $-1 #
coedge $-1 $91 $91 $90 $158 reversed $55 $-1 #
coedge $-1 $92 $92 $56 $93 forward $154 $-1 #
edge $-1 $159 3.7830977073651311e-015 $159 6.283185307179604 $92 $160 forward 7 unknown #
face $-1 $161 $162 $19 $-1 $163 reversed single #
loop $-1 $164 $165 $57 #
cone-surface $-1 12.928862602056313 34.743556905237163 12.50229065225529 0 -0.6018150307709319 -0.79863550430605224 1.5 0 0 1 I I 0 1 1.5 forward I I I I #
loop $-1 $-1 $166 $37 #
coedge $-1 $98 $98 $99 $167 forward $58 $-1 #
coedge $-1 $99 $99 $98 $167 reversed $60 $-1 #
coedge $-1 $100 $100 $61 $101 forward $168 $-1 #
edge $-1 $169 3.7830977073651311e-015 $169 6.283185307179604 $100 $170 forward 7 unknown #
face $-1 $171 $172 $15 $-1 $173 reversed single #
loop $-1 $-1 $174 $62 #
plane-surface $-1 -76.623432111575667 0 0 1 0 0 0 0 -1 forward_v I I I I #
coedge $-1 $175 $113 $176 $177 forward $63 $-1 #
coedge $-1 $178 $65 $175 $179 forward $41 $-1 #
coedge $-1 $65 $178 $180 $181 forward $41 $-1 #
coedge $-1 $116 $115 $65 $109 reversed $117 $-1 #
edge $-1 $182 -43.660647560411945 $183 43.660647560411945 $108 $184 forward 7 unknown #
coedge $-1 $67 $66 $185 $186 forward $26 $-1 #
coedge $-1 $187 $188 $66 $112 reversed $172 $-1 #
edge $-1 $119 -76.623432111575667 $189 76.623432111575667 $111 $190 forward 7 unknown #
coedge $-1 $105 $191 $67 $114 reversed $63 $-1 #
edge $-1 $192 -76.623432111575667 $118 76.623432111575667 $113 $193 forward 7 unknown #
coedge $-1 $108 $68 $191 $194 forward $117 $-1 #
coedge $-1 $68 $108 $187 $195 reversed $117 $-1 #
loop $-1 $-1 $115 $171 #
vertex $-1 $69 $196 #
vertex $-1 $69 $197 #
straight-curve $-1 76.623432111575667 0 19.897593616126944 0 1 0 I I #
face $-1 $198 $199 $16 $-1 $123 reversed single #
loop $-1 $-1 $200 $70 #
plane-surface $-1 -76.623432111575667 0 0 1 0 0 0 0 -1 forward_v I I I I #
coedge $-1 $76 $127 $201 $202 reversed $71 $-1 #
coedge $-1 $203 $73 $204 $205 reversed $45 $-1 #
coedge $-1 $73 $203 $206 $207 reversed $45 $-1 #
coedge $-1 $124 $134 $73 $128 forward $71 $-1 #
edge $-1 $208 -43.660647560411945 $209 43.660647560411945 $127 $210 forward 7 unknown #
coedge $-1 $75 $74 $211 $212 reversed $29 $-1 #
coedge $-1 $201 $213 $74 $131 forward $214 $-1 #
edge $-1 $215 -41.77857738143301 $135 -27.911132078852312 $130 $216 forward 7 unknown #
coedge $-1 $217 $218 $75 $133 forward $219 $-1 #
edge $-1 $136 27.911132078852312 $220 41.77857738143301 $132 $221 forward 7 unknown #
coedge $-1 $127 $76 $218 $222 reversed $71 $-1 #
vertex $-1 $131 $223 #
vertex $-1 $133 $224 #
straight-curve $-1 -62.755986808994969 0 11.35138703839189 0 1 0 I I #
face $-1 $225 $226 $17 $-1 $227 reversed single #
loop $-1 $-1 $228 $78 #
plane-surface $-1 0 0 19.897593616126944 0 0 1 1 0 0 forward_v I I I I #
coedge $-1 $229 $230 $228 $231 reversed $79 $-1 #
coedge $-1 $232 $81 $230 $233 reversed $49 $-1 #
coedge $-1 $81 $232 $82 $146 reversed $49 $-1 #
coedge $-1 $84 $228 $81 $145 forward $139 $-1 #
edge $-1 $234 -14.950512849459678 $150 -0.97343735792541253 $144 $235 forward 7 unknown #
edge $-1 $150 67.941477161259229 $236 87.321295120823891 $82 $237 forward 7 unknown #
coedge $-1 $238 $239 $83 $148 forward $240 $-1 #
edge $-1 $151 71.689497622238207 $236 83.352563363908672 $147 $241 forward 7 unknown #
coedge $-1 $242 $84 $239 $243 forward $139 $-1 #
vertex $-1 $145 $244 #
vertex $-1 $243 $245 #
straight-curve $-1 8.9354124616179575 33.074513651469893 19.89759361612694 0 1 0 I I #
face $-1 $246 $247 $18 $-1 $248 forward single #
loop $-1 $249 $92 $86 #
plane-surface $-1 15.92395020738509 -26.077239005064854 60.785795784552718 0 0.6018150307709319 0.79863550430605224 1 0 0 forward_v I I I I #
coedge $-1 $250 $251 $252 $253 reversed $87 $-1 #
coedge $-1 $157 $157 $-1 $254 forward $89 $-1 #
edge $-1 $255 0 $255 6.2831853071796004 $90 $256 forward 7 unknown #
vertex $-1 $93 $257 #
ellipse-curve $-1 12.928862602056313 35.921942215663741 14.066060745291704 0 -0.6018150307709319 -0.79863550430605224 1.5 0 0 1 I I #
face $-1 $258 $259 $19 $-1 $260 forward single #
loop $-1 $261 $262 $94 #
cone-surface $-1 12.928862602056313 33.113810321732387 10.33954393098934 0 -0.6018150307709319 -0.79863550430605224 0.75 0 0 1 I I -0.70710678118654757 0.70710678118654757 0.75 forward I I I I #
loop $-1 $-1 $263 $57 #
coedge $-1 $165 $165 $264 $265 reversed $95 $-1 #
coedge $-1 $166 $166 $-1 $266 forward $97 $-1 #
edge $-1 $267 0 $267 6.2831853071796004 $98 $268 forward 7 unknown #
loop $-1 $269 $100 $258 #
vertex $-1 $101 $270 #
ellipse-curve $-1 18.919037812713853 35.921942215663741 14.066060745291704 0 -0.6018150307709319 -0.79863550430605224 1.5 0 0 1 I I #
face $-1 $-1 $117 $15 $-1 $271 reversed single #
loop $-1 $-1 $187 $102 #
plane-surface $-1 0 43.660647560411945 0 0 -1 0 0 0 -1 forward_v I I I I #
coedge $-1 $272 $185 $188 $273 forward $103 $-1 #
coedge $-1 $191 $105 $106 $179 reversed $63 $-1 #
coedge $-1 $185 $272 $105 $177 reversed $103 $-1 #
edge $-1 $192 -19.897593616126944 $274 19.897593616126944 $176 $275 forward 7 unknown #
coedge $-1 $107 $106 $272 $276 forward $41 $-1 #
edge $-1 $183 -76.623432111575667 $274 76.623432111575667 $175 $277 forward 7 unknown #
coedge $-1 $188 $187 $107 $181 reversed $172 $-1 #
edge $-1 $278 -76.623432111575667 $182 76.623432111575667 $180 $279 forward 7 unknown #
vertex $-1 $109 $280 #
vertex $-1 $194 $281 #
straight-curve $-1 76.623432111575667 0 -19.897593616126944 0 -1 0 I I #
coedge $-1 $174 $176 $110 $186 reversed $103 $-1 #
edge $-1 $189 -43.660647560411945 $192 43.660647560411945 $185 $282 forward 7 unknown #
coedge $-1 $180 $111 $116 $195 forward $172 $-1 #
coedge $-1 $111 $180 $174 $273 reversed $172 $-1 #
vertex $-1 $112 $283 #
straight-curve $-1 0 43.660647560411945 19.897593616126944 -1 0 0 I I #
coedge $-1 $113 $175 $115 $194 reversed $63 $-1 #
vertex $-1 $186 $284 #
straight-curve $-1 0 -43.660647560411945 19.897593616126944 1 0 0 I I #
edge $-1 $118 -19.897593616126944 $183 19.897593616126944 $115 $285 forward 7 unknown #
edge $-1 $119 -19.897593616126944 $182 19.897593616126944 $116 $286 forward 7 unknown #
point $-1 76.623432111575667 -43.660647560411945 19.897593616126944 #
point $-1 76.623432111575667 43.660647560411945 19.897593616126944 #
face $-1 $287 $214 $16 $-1 $288 reversed single #
loop $-1 $-1 $211 $121 #
coedge $-1 $289 $290 $203 $291 forward $122 $-1 #
coedge $-1 $206 $130 $124 $202 forward $214 $-1 #
edge $-1 $135 -8.6061055921054148 $209 3.1155426995324653 $201 $292 forward 7 unknown #
coedge $-1 $126 $125 $200 $291 reversed $45 $-1 #
coedge $-1 $218 $293 $125 $205 forward $219 $-1 #
edge $-1 $294 -41.77857738143301 $208 -27.911132078852312 $204 $295 forward 7 unknown #
coedge $-1 $296 $201 $126 $207 forward $214 $-1 #
edge $-1 $209 27.911132078852312 $297 41.77857738143301 $206 $298 forward 7 unknown #
vertex $-1 $205 $299 #
vertex $-1 $207 $300 #
straight-curve $-1 -62.755986808994969 0 -0.37026125324599057 0 -1 0 I I #
coedge $-1 $301 $302 $129 $212 forward $199 $-1 #
edge $-1 $220 -43.660647560411945 $215 43.660647560411945 $211 $303 forward 7 unknown #
coedge $-1 $130 $304 $301 $305 forward $214 $-1 #
loop $-1 $-1 $130 $198 #
vertex $-1 $131 $306 #
straight-curve $-1 -34.844854730142657 -43.660647560411945 11.35138703839189 1 0 0 I I #
coedge $-1 $307 $132 $302 $308 reversed $219 $-1 #
coedge $-1 $132 $204 $134 $222 forward $219 $-1 #
loop $-1 $-1 $132 $309 #
vertex $-1 $212 $310 #
straight-curve $-1 -34.844854730142657 43.660647560411945 11.35138703839189 -1 0 0 I I #
edge $-1 $208 -3.1155426995324653 $136 8.6061055921054148 $218 $311 forward 7 unknown #
point $-1 -62.755986808994969 -43.660647560411945 11.35138703839189 #
point $-1 -62.755986808994969 43.660647560411945 11.35138703839189 #
face $-1 $312 $313 $17 $-1 $314 forward single #
loop $-1 $-1 $315 $138 #
plane-surface $-1 -69.689709460285314 0 11.35138703839189 0 0 1 1 0 0 forward_v I I I I #
coedge $-1 $144 $316 $141 $231 forward $139 $-1 #
coedge $-1 $230 $141 $317 $318 reversed $79 $-1 #
coedge $-1 $141 $229 $142 $233 forward $79 $-1 #
edge $-1 $319 -10.586133908942053 $234 4.8912767805543638 $228 $320 forward 7 unknown #
coedge $-1 $143 $142 $238 $321 reversed $49 $-1 #
edge $-1 $322 -87.321295120823891 $234 -67.941477161259229 $230 $323 forward 7 unknown #
vertex $-1 $145 $324 #
straight-curve $-1 7.961975103692545 28.183236870915522 19.897593616126944 -1 0 0 I I #
vertex $-1 $321 $325 #
straight-curve $-1 8.9354124616179575 -26.077239005064854 60.785795784552718 0 0.79863550430605224 -0.6018150307709319 I I #
coedge $-1 $317 $147 $232 $321 forward $240 $-1 #
coedge $-1 $147 $326 $149 $243 reversed $240 $-1 #
loop $-1 $-1 $317 $327 #
straight-curve $-1 8.9354124616179575 43.660647560411945 91.587091238365147 0 0 -1 I I #
coedge $-1 $328 $149 $329 $330 forward $139 $-1 #
edge $-1 $151 -8.9354124616179575 $331 76.623432111575667 $239 $332 forward 7 unknown #
point $-1 8.9354124616179575 28.183236870915529 19.89759361612694 #
point $-1 8.9354124616179575 43.660647560411945 19.897593616126944 #
face $-1 $333 $334 $18 $-1 $335 forward single #
loop $-1 $-1 $336 $153 #
plane-surface $-1 22.912487953152223 66.149027302939785 183.17418247673029 -1 0 0 0 0.6018150307709319 0.79863550430605224 forward_v I I I I #
loop $-1 $-1 $337 $86 #
coedge $-1 $251 $156 $338 $339 forward $87 $-1 #
coedge $-1 $156 $250 $340 $341 reversed $87 $-1 #
coedge $-1 $342 $343 $156 $253 forward $334 $-1 #
edge $-1 $344 -4.8912767805543638 $345 10.586133908942053 $252 $346 forward 7 unknown #
edge $-1 $347 1 $347 0 $157 $-1 forward 7 unknown #
vertex $-1 $158 $348 #
ellipse-curve $-1 12.928862602056313 33.565171594810586 10.93852055921888 0 0.6018150307709319 0.79863550430605224 1.5 0 0 1 I I #
point $-1 14.428862602056313 35.921942215663734 14.066060745291704 #
face $-1 $349 $168 $19 $-1 $350 forward single #
loop $-1 $-1 $351 $161 #
plane-surface $-1 8.9354124616179575 66.149027302939785 183.17418247673029 1 0 0 0 -0.6018150307709319 -0.79863550430605224 forward_v I I I I #
loop $-1 $-1 $352 $94 #
coedge $-1 $262 $262 $263 $353 forward $162 $-1 #
coedge $-1 $263 $263 $262 $353 reversed $164 $-1 #
coedge $-1 $264 $264 $165 $265 forward $269 $-1 #
edge $-1 $354 3.7830977073651311e-015 $354 6.283185307179604 $264 $355 forward 7 unknown #
edge $-1 $356 1 $356 0 $166 $-1 forward 7 unknown #
vertex $-1 $167 $357 #
ellipse-curve $-1 18.919037812713853 33.565171594810586 10.93852055921888 0 0.6018150307709319 0.79863550430605224 1.5 0 0 1 I I #
loop $-1 $358 $264 $258 #
point $-1 20.419037812713853 35.921942215663734 14.066060745291704 #
plane-surface $-1 76.623432111575667 0 0 -1 0 0 0 0 1 forward_v I I I I #
coedge $-1 $176 $174 $178 $276 reversed $103 $-1 #
edge $-1 $189 -19.897593616126944 $278 19.897593616126944 $188 $359 forward 7 unknown #
vertex $-1 $276 $360 #
straight-curve $-1 -76.623432111575667 -43.660647560411945 0 0 0 -1 I I #
edge $-1 $274 -43.660647560411945 $278 43.660647560411945 $272 $361 forward 7 unknown #
straight-curve $-1 0 -43.660647560411945 -19.897593616126944 -1 0 0 I I #
vertex $-1 $181 $362 #
straight-curve $-1 0 43.660647560411945 -19.897593616126944 1 0 0 I I #
point $-1 76.623432111575667 43.660647560411945 -19.897593616126944 #
point $-1 76.623432111575667 -43.660647560411945 -19.897593616126944 #
straight-curve $-1 -76.623432111575667 0 19.897593616126944 0 -1 0 I I #
point $-1 -76.623432111575667 43.660647560411945 19.897593616126944 #
point $-1 -76.623432111575667 -43.660647560411945 19.897593616126944 #
straight-curve $-1 76.623432111575667 -43.660647560411945 0 0 0 -1 I I #
straight-curve $-1 76.623432111575667 43.660647560411945 0 0 0 -1 I I #
face $-1 $363 $364 $16 $-1 $365 forward single #
plane-surface $-1 0 -43.660647560411945 0 0 1 0 0 0 1 forward_v I I I I #
coedge $-1 $366 $200 $293 $367 forward $122 $-1 #
coedge $-1 $200 $366 $296 $368 reversed $122 $-1 #
edge $-1 $297 -43.660647560411945 $294 43.660647560411945 $200 $369 forward 7 unknown #
straight-curve $-1 -62.755986808994969 -43.660647560411945 2.7452814462864747 0 0 -1 I I #
coedge $-1 $204 $370 $289 $367 reversed $219 $-1 #
vertex $-1 $367 $371 #
straight-curve $-1 -34.844854730142657 43.660647560411945 -0.37026125324599057 1 0 0 I I #
coedge $-1 $372 $206 $290 $368 forward $214 $-1 #
vertex $-1 $368 $373 #
straight-curve $-1 -34.844854730142657 -43.660647560411945 -0.37026125324599057 -1 0 0 I I #
point $-1 -62.755986808994969 43.660647560411945 -0.37026125324599057 #
point $-1 -62.755986808994969 -43.660647560411945 -0.37026125324599057 #
coedge $-1 $374 $211 $213 $305 reversed $199 $-1 #
coedge $-1 $211 $374 $217 $308 forward $199 $-1 #
straight-curve $-1 -76.623432111575667 0 11.35138703839189 0 -1 0 I I #
coedge $-1 $213 $375 $376 $377 reversed $214 $-1 #
edge $-1 $378 -19.897593616126944 $215 -11.35138703839189 $301 $379 forward 7 unknown #
point $-1 -76.623432111575667 -43.660647560411945 11.35138703839189 #
coedge $-1 $380 $217 $381 $382 reversed $219 $-1 #
edge $-1 $383 -19.897593616126944 $220 -11.35138703839189 $217 $384 forward 7 unknown #
face $-1 $385 $219 $16 $-1 $386 reversed single #
point $-1 -76.623432111575667 43.660647560411945 11.35138703839189 #
straight-curve $-1 -62.755986808994969 43.660647560411945 2.7452814462864747 0 0 1 I I #
face $-1 $387 $388 $17 $-1 $389 forward single #
loop $-1 $-1 $390 $225 #
plane-surface $-1 -69.689709460285314 0 -0.37026125324599057 0 0 1 1 0 0 forward_v I I I I #
coedge $-1 $391 $392 $393 $394 reversed $226 $-1 #
coedge $-1 $228 $395 $396 $397 forward $139 $-1 #
coedge $-1 $396 $238 $229 $318 forward $240 $-1 #
edge $-1 $322 -83.352563363908672 $319 -71.689497622238207 $317 $398 forward 7 unknown #
vertex $-1 $318 $399 #
straight-curve $-1 22.912487953152223 33.074513651469893 19.89759361612694 0 -1 0 I I #
edge $-1 $236 0.97343735792541253 $322 14.950512849459678 $238 $400 forward 7 unknown #
vertex $-1 $321 $401 #
straight-curve $-1 22.912487953152223 -26.077239005064854 60.785795784552718 0 -0.79863550430605224 0.6018150307709319 I I #
point $-1 22.912487953152223 28.183236870915529 19.89759361612694 #
point $-1 8.9354124616179575 43.660647560411945 8.2345278744564681 #
coedge $-1 $239 $402 $403 $404 reversed $240 $-1 #
face $-1 $405 $240 $17 $-1 $406 reversed single #
coedge $-1 $395 $242 $407 $408 forward $139 $-1 #
coedge $-1 $403 $409 $242 $330 reversed $410 $-1 #
edge $-1 $331 -43.660647560411945 $411 43.660647560411945 $329 $412 forward 7 unknown #
vertex $-1 $243 $413 #
straight-curve $-1 0 43.660647560411945 19.897593616126944 -1 0 0 I I #
face $-1 $414 $415 $18 $-1 $416 reversed single #
loop $-1 $-1 $417 $246 #
plane-surface $-1 0 0 19.897593616126944 0 0 1 1 0 0 forward_v I I I I #
coedge $-1 $418 $419 $417 $420 reversed $247 $-1 #
coedge $-1 $421 $338 $343 $422 reversed $249 $-1 #
coedge $-1 $337 $423 $250 $339 reversed $249 $-1 #
edge $-1 $344 67.941477161259229 $424 87.321295120823891 $250 $425 forward 7 unknown #
coedge $-1 $426 $427 $251 $341 forward $428 $-1 #
edge $-1 $345 71.689497622238207 $424 83.352563363908672 $340 $429 forward 7 unknown #
coedge $-1 $430 $252 $427 $431 forward $334 $-1 #
coedge $-1 $252 $417 $337 $422 forward $334 $-1 #
vertex $-1 $422 $432 #
vertex $-1 $431 $433 #
straight-curve $-1 8.9354124616179575 33.074513651469893 19.89759361612694 0 1 0 I I #
vertex $-1 $254 $434 #
point $-1 14.428862602056313 33.565171594810586 10.93852055921888 #
face $-1 $435 $436 $19 $-1 $437 forward single #
plane-surface $-1 15.92395020738509 -26.077239005064854 60.785795784552718 0 0.6018150307709319 0.79863550430605224 1 0 0 forward_v I I I I #
coedge $-1 $438 $439 $440 $441 reversed $259 $-1 #
coedge $-1 $352 $352 $-1 $442 forward $261 $-1 #
edge $-1 $443 0 $443 6.2831853071796004 $262 $444 forward 7 unknown #
vertex $-1 $265 $445 #
ellipse-curve $-1 12.928862602056313 35.921942215663741 14.066060745291704 0 -0.6018150307709319 -0.79863550430605224 1.5 0 0 1 I I #
vertex $-1 $266 $446 #
point $-1 20.419037812713853 33.565171594810586 10.93852055921888 #
loop $-1 $-1 $447 $258 #
straight-curve $-1 -76.623432111575667 43.660647560411945 0 0 0 -1 I I #
point $-1 -76.623432111575667 -43.660647560411945 -19.897593616126944 #
straight-curve $-1 -76.623432111575667 0 -19.897593616126944 0 1 0 I I #
point $-1 -76.623432111575667 43.660647560411945 -19.897593616126944 #
face $-1 $309 $448 $16 $-1 $449 reversed single #
loop $-1 $-1 $450 $287 #
plane-surface $-1 0 0 19.897593616126944 0 0 1 1 0 0 forward_v I I I I #
coedge $-1 $290 $289 $451 $452 reversed $122 $-1 #
edge $-1 $294 0.37026125324599057 $453 19.897593616126944 $293 $384 forward 7 unknown #
edge $-1 $297 0.37026125324599057 $454 19.897593616126944 $290 $379 forward 7 unknown #
straight-curve $-1 -76.623432111575667 0 -0.37026125324599057 0 1 0 I I #
coedge $-1 $293 $380 $455 $456 reversed $219 $-1 #
point $-1 -76.623432111575667 43.660647560411945 -0.37026125324599057 #
coedge $-1 $375 $296 $457 $458 reversed $214 $-1 #
point $-1 -76.623432111575667 -43.660647560411945 -0.37026125324599057 #
coedge $-1 $302 $301 $459 $460 reversed $199 $-1 #
coedge $-1 $304 $372 $461 $462 reversed $214 $-1 #
coedge $-1 $450 $459 $304 $377 forward $364 $-1 #
edge $-1 $378 -76.623432111575667 $463 76.623432111575667 $304 $464 forward 7 unknown #
vertex $-1 $460 $465 #
straight-curve $-1 -76.623432111575667 -43.660647560411945 0 0 0 -1 I I #
coedge $-1 $370 $307 $466 $467 forward $219 $-1 #
coedge $-1 $459 $450 $307 $382 forward $364 $-1 #
edge $-1 $468 -76.623432111575667 $383 76.623432111575667 $307 $469 forward 7 unknown #
vertex $-1 $382 $470 #
straight-curve $-1 -76.623432111575667 43.660647560411945 0 0 0 -1 I I #
face $-1 $-1 $471 $16 $-1 $472 reversed single #
plane-surface $-1 0 43.660647560411945 0 0 -1 0 0 0 -1 forward_v I I I I #
face $-1 $473 $474 $17 $-1 $475 reversed single #
loop $-1 $-1 $476 $312 #
plane-surface $-1 -62.755986808994969 0 5.4905628925729495 -1 0 0 0 0 1 forward_v I I I I #
coedge $-1 $477 $478 $479 $480 reversed $313 $-1 #
coedge $-1 $481 $315 $482 $483 reversed $226 $-1 #
coedge $-1 $315 $481 $402 $484 reversed $226 $-1 #
coedge $-1 $485 $476 $315 $394 forward $388 $-1 #
edge $-1 $486 -43.660647560411945 $487 43.660647560411945 $393 $488 forward 7 unknown #
coedge $-1 $316 $328 $489 $490 forward $139 $-1 #
coedge $-1 $491 $317 $316 $397 reversed $240 $-1 #
edge $-1 $492 -76.623432111575667 $319 -22.912487953152223 $396 $332 forward 7 unknown #
straight-curve $-1 22.912487953152223 43.660647560411945 91.587091238365147 0 0 1 I I #
point $-1 22.912487953152223 43.660647560411945 19.897593616126944 #
straight-curve $-1 7.961975103692545 43.660647560411945 8.2345278744564681 1 0 0 I I #
point $-1 22.912487953152223 43.660647560411945 8.2345278744564681 #
coedge $-1 $326 $493 $392 $484 forward $240 $-1 #
coedge $-1 $494 $329 $326 $404 forward $410 $-1 #
edge $-1 $331 -19.897593616126944 $495 -11.35138703839189 $326 $496 forward 7 unknown #
face $-1 $-1 $497 $17 $-1 $498 reversed single #
plane-surface $-1 0 43.660647560411945 0 0 -1 0 0 0 -1 forward_v I I I I #
coedge $-1 $499 $500 $328 $408 reversed $501 $-1 #
edge $-1 $411 -76.623432111575667 $502 76.623432111575667 $407 $503 forward 7 unknown #
coedge $-1 $329 $494 $499 $504 reversed $410 $-1 #
loop $-1 $-1 $494 $473 #
vertex $-1 $330 $505 #
straight-curve $-1 -76.623432111575667 0 19.897593616126944 0 -1 0 I I #
point $-1 -76.623432111575667 43.660647560411945 19.897593616126944 #
face $-1 $506 $507 $18 $-1 $508 forward single #
loop $-1 $-1 $509 $333 #
plane-surface $-1 -69.689709460285314 0 11.35138703839189 0 0 1 1 0 0 forward_v I I I I #
coedge $-1 $343 $510 $336 $420 forward $334 $-1 #
coedge $-1 $419 $336 $511 $512 reversed $247 $-1 #
coedge $-1 $336 $418 $421 $513 forward $247 $-1 #
edge $-1 $514 -10.586133908942053 $515 4.8912767805543638 $417 $516 forward 7 unknown #
coedge $-1 $423 $337 $419 $513 reversed $249 $-1 #
edge $-1 $515 -14.950512849459678 $344 -0.97343735792541253 $343 $517 forward 7 unknown #
coedge $-1 $338 $421 $426 $518 reversed $249 $-1 #
vertex $-1 $518 $519 #
straight-curve $-1 8.9354124616179575 -26.077239005064854 60.785795784552718 0 0.79863550430605224 -0.6018150307709319 I I #
coedge $-1 $511 $340 $423 $518 forward $428 $-1 #
coedge $-1 $340 $520 $342 $431 reversed $428 $-1 #
loop $-1 $-1 $511 $521 #
straight-curve $-1 8.9354124616179575 43.660647560411945 91.587091238365147 0 0 -1 I I #
coedge $-1 $522 $342 $523 $524 forward $334 $-1 #
edge $-1 $345 -8.9354124616179575 $525 76.623432111575667 $427 $526 forward 7 unknown #
point $-1 8.9354124616179575 28.183236870915529 19.89759361612694 #
point $-1 8.9354124616179575 43.660647560411945 19.897593616126944 #
point $-1 12.928862602056313 32.662449048654189 9.7405673027597999 #
face $-1 $527 $528 $19 $-1 $529 forward single #
loop $-1 $-1 $530 $349 #
plane-surface $-1 22.912487953152223 66.149027302939785 183.17418247673029 -1 0 0 0 0.6018150307709319 0.79863550430605224 forward_v I I I I #
coedge $-1 $439 $351 $531 $532 forward $259 $-1 #
coedge $-1 $351 $438 $533 $534 reversed $259 $-1 #
coedge $-1 $535 $536 $351 $441 forward $528 $-1 #
edge $-1 $537 -4.8912767805543638 $538 10.586133908942053 $440 $539 forward 7 unknown #
edge $-1 $540 1 $540 0 $352 $-1 forward 7 unknown #
vertex $-1 $353 $541 #
ellipse-curve $-1 12.928862602056313 33.565171594810586 10.93852055921888 0 0.6018150307709319 0.79863550430605224 1.5 0 0 1 I I #
point $-1 14.428862602056313 35.921942215663734 14.066060745291704 #
point $-1 18.919037812713853 32.662449048654189 9.7405673027597999 #
coedge $-1 $542 $531 $536 $543 reversed $358 $-1 #
loop $-1 $-1 $544 $363 #
plane-surface $-1 0 0 -19.897593616126944 0 0 1 1 0 0 forward_v I I I I #
coedge $-1 $381 $376 $545 $546 forward $364 $-1 #
coedge $-1 $455 $457 $366 $452 forward $448 $-1 #
edge $-1 $454 -43.660647560411945 $453 43.660647560411945 $366 $547 forward 7 unknown #
vertex $-1 $456 $548 #
vertex $-1 $452 $549 #
coedge $-1 $544 $451 $370 $456 forward $448 $-1 #
edge $-1 $453 -76.623432111575667 $550 76.623432111575667 $370 $551 forward 7 unknown #
coedge $-1 $451 $544 $372 $458 forward $448 $-1 #
edge $-1 $552 -76.623432111575667 $454 76.623432111575667 $372 $553 forward 7 unknown #
coedge $-1 $376 $381 $374 $460 forward $364 $-1 #
edge $-1 $383 -43.660647560411945 $378 43.660647560411945 $374 $554 forward 7 unknown #
coedge $-1 $555 $545 $375 $462 forward $471 $-1 #
edge $-1 $463 -19.897593616126944 $552 19.897593616126944 $461 $556 forward 7 unknown #
vertex $-1 $546 $557 #
straight-curve $-1 0 -43.660647560411945 19.897593616126944 1 0 0 I I #
point $-1 -76.623432111575667 -43.660647560411945 19.897593616126944 #
coedge $-1 $545 $555 $380 $467 reversed $471 $-1 #
edge $-1 $468 -19.897593616126944 $550 19.897593616126944 $466 $558 forward 7 unknown #
vertex $-1 $546 $559 #
straight-curve $-1 0 43.660647560411945 19.897593616126944 -1 0 0 I I #
point $-1 -76.623432111575667 43.660647560411945 19.897593616126944 #
loop $-1 $-1 $461 $385 #
plane-surface $-1 76.623432111575667 0 0 -1 0 0 0 0 1 forward_v I I I I #
face $-1 $560 $410 $17 $-1 $475 reversed single #
loop $-1 $-1 $561 $387 #
plane-surface $-1 -76.623432111575667 0 0 1 0 0 0 0 -1 forward_v I I I I #
coedge $-1 $393 $479 $562 $563 reversed $388 $-1 #
coedge $-1 $564 $390 $565 $566 reversed $313 $-1 #
coedge $-1 $390 $564 $567 $568 reversed $313 $-1 #
coedge $-1 $476 $485 $390 $480 forward $388 $-1 #
edge $-1 $569 -43.660647560411945 $570 43.660647560411945 $479 $571 forward 7 unknown #
coedge $-1 $392 $391 $494 $572 reversed $226 $-1 #
coedge $-1 $562 $499 $391 $483 forward $501 $-1 #
edge $-1 $573 -41.77857738143301 $486 -27.911132078852312 $482 $574 forward 7 unknown #
edge $-1 $487 27.911132078852312 $495 41.77857738143301 $402 $575 forward 7 unknown #
coedge $-1 $479 $393 $493 $576 reversed $388 $-1 #
vertex $-1 $483 $577 #
vertex $-1 $484 $578 #
straight-curve $-1 -62.755986808994969 0 11.35138703839189 0 1 0 I I #
coedge $-1 $579 $580 $395 $490 reversed $497 $-1 #
edge $-1 $502 -43.660647560411945 $492 43.660647560411945 $489 $581 forward 7 unknown #
coedge $-1 $582 $396 $580 $583 forward $240 $-1 #
vertex $-1 $490 $584 #
coedge $-1 $402 $565 $485 $576 forward $240 $-1 #
coedge $-1 $409 $403 $481 $572 forward $410 $-1 #
vertex $-1 $572 $585 #
straight-curve $-1 -76.623432111575667 43.660647560411945 0 0 0 -1 I I #
loop $-1 $-1 $579 $405 #
plane-surface $-1 76.623432111575667 0 0 -1 0 0 0 0 1 forward_v I I I I #
coedge $-1 $482 $407 $409 $504 forward $501 $-1 #
coedge $-1 $407 $586 $579 $587 reversed $501 $-1 #
loop $-1 $-1 $482 $560 #
vertex $-1 $490 $588 #
straight-curve $-1 0 -43.660647560411945 19.897593616126944 1 0 0 I I #
edge $-1 $411 -19.897593616126944 $573 -11.35138703839189 $409 $589 forward 7 unknown #
point $-1 -76.623432111575667 -43.660647560411945 19.897593616126944 #
face $-1 $590 $591 $18 $-1 $592 forward single #
loop $-1 $-1 $593 $414 #
plane-surface $-1 -69.689709460285314 0 -0.37026125324599057 0 0 1 1 0 0 forward_v I I I I #
coedge $-1 $594 $595 $596 $597 reversed $415 $-1 #
coedge $-1 $417 $598 $599 $600 forward $334 $-1 #
coedge $-1 $599 $426 $418 $512 forward $428 $-1 #
edge $-1 $601 -83.352563363908672 $514 -71.689497622238207 $511 $602 forward 7 unknown #
edge $-1 $601 -87.321295120823891 $515 -67.941477161259229 $419 $603 forward 7 unknown #
vertex $-1 $512 $604 #
vertex $-1 $422 $605 #
straight-curve $-1 22.912487953152223 33.074513651469893 19.89759361612694 0 -1 0 I I #
straight-curve $-1 7.961975103692545 28.183236870915522 19.897593616126944 -1 0 0 I I #
edge $-1 $424 0.97343735792541253 $601 14.950512849459678 $426 $606 forward 7 unknown #
point $-1 8.9354124616179575 43.660647560411945 8.2345278744564681 #
coedge $-1 $427 $607 $608 $609 reversed $428 $-1 #
face $-1 $610 $428 $18 $-1 $611 reversed single #
coedge $-1 $598 $430 $612 $613 forward $334 $-1 #
coedge $-1 $608 $614 $430 $524 reversed $615 $-1 #
edge $-1 $525 -43.660647560411945 $616 43.660647560411945 $523 $617 forward 7 unknown #
vertex $-1 $431 $618 #
straight-curve $-1 0 43.660647560411945 19.897593616126944 -1 0 0 I I #
face $-1 $619 $620 $19 $-1 $621 reversed single #
loop $-1 $-1 $622 $435 #
plane-surface $-1 0 0 19.897593616126944 0 0 1 1 0 0 forward_v I I I I #
coedge $-1 $623 $624 $622 $625 reversed $436 $-1 #
coedge $-1 $447 $626 $438 $532 reversed $358 $-1 #
edge $-1 $537 67.941477161259229 $627 87.321295120823891 $438 $628 forward 7 unknown #
coedge $-1 $629 $630 $439 $534 forward $631 $-1 #
edge $-1 $538 71.689497622238207 $627 83.352563363908672 $533 $632 forward 7 unknown #
coedge $-1 $633 $440 $630 $634 forward $528 $-1 #
coedge $-1 $440 $622 $447 $543 forward $528 $-1 #
vertex $-1 $543 $635 #
vertex $-1 $634 $636 #
straight-curve $-1 8.9354124616179575 33.074513651469893 19.89759361612694 0 1 0 I I #
vertex $-1 $442 $637 #
point $-1 14.428862602056313 33.565171594810586 10.93852055921888 #
coedge $-1 $626 $447 $624 $638 reversed $358 $-1 #
edge $-1 $639 -14.950512849459678 $537 -0.97343735792541253 $536 $640 forward 7 unknown #
coedge $-1 $457 $455 $555 $641 forward $448 $-1 #
coedge $-1 $461 $466 $450 $546 reversed $471 $-1 #
edge $-1 $463 -43.660647560411945 $468 43.660647560411945 $545 $642 forward 7 unknown #
straight-curve $-1 -76.623432111575667 0 -19.897593616126944 0 1 0 I I #
point $-1 -76.623432111575667 43.660647560411945 -19.897593616126944 #
point $-1 -76.623432111575667 -43.660647560411945 -19.897593616126944 #
vertex $-1 $641 $643 #
straight-curve $-1 0 43.660647560411945 -19.897593616126944 1 0 0 I I #
vertex $-1 $462 $644 #
straight-curve $-1 0 -43.660647560411945 -19.897593616126944 -1 0 0 I I #
straight-curve $-1 -76.623432111575667 0 19.897593616126944 0 -1 0 I I #
coedge $-1 $466 $461 $544 $641 reversed $471 $-1 #
straight-curve $-1 76.623432111575667 -43.660647560411945 0 0 0 -1 I I #
point $-1 76.623432111575667 -43.660647560411945 19.897593616126944 #
straight-curve $-1 76.623432111575667 43.660647560411945 0 0 0 -1 I I #
point $-1 76.623432111575667 43.660647560411945 19.897593616126944 #
face $-1 $645 $501 $17 $-1 $646 reversed single #
coedge $-1 $647 $648 $564 $649 forward $474 $-1 #
coedge $-1 $567 $482 $476 $563 forward $501 $-1 #
edge $-1 $486 -8.6061055921054148 $570 3.1155426995324653 $562 $650 forward 7 unknown #
coedge $-1 $478 $477 $561 $649 reversed $313 $-1 #
coedge $-1 $493 $651 $477 $566 forward $240 $-1 #
edge $-1 $652 -41.77857738143301 $569 -27.911132078852312 $565 $653 forward 7 unknown #
coedge $-1 $654 $562 $478 $568 forward $501 $-1 #
edge $-1 $570 27.911132078852312 $655 41.77857738143301 $567 $656 forward 7 unknown #
vertex $-1 $566 $657 #
vertex $-1 $568 $658 #
straight-curve $-1 -62.755986808994969 0 -0.37026125324599057 0 -1 0 I I #
edge $-1 $495 -43.660647560411945 $573 43.660647560411945 $494 $659 forward 7 unknown #
vertex $-1 $483 $660 #
straight-curve $-1 -34.844854730142657 -43.660647560411945 11.35138703839189 1 0 0 I I #
straight-curve $-1 -34.844854730142657 43.660647560411945 11.35138703839189 -1 0 0 I I #
edge $-1 $569 -3.1155426995324653 $487 8.6061055921054148 $493 $661 forward 7 unknown #
point $-1 -62.755986808994969 -43.660647560411945 11.35138703839189 #
point $-1 -62.755986808994969 43.660647560411945 11.35138703839189 #
coedge $-1 $662 $489 $500 $587 forward $497 $-1 #
coedge $-1 $489 $662 $491 $583 reversed $497 $-1 #
straight-curve $-1 76.623432111575667 0 19.897593616126944 0 1 0 I I #
coedge $-1 $651 $491 $663 $664 reversed $240 $-1 #
edge $-1 $492 -19.897593616126944 $665 19.897593616126944 $580 $666 forward 7 unknown #
point $-1 76.623432111575667 43.660647560411945 19.897593616126944 #
point $-1 -76.623432111575667 43.660647560411945 11.35138703839189 #
coedge $-1 $500 $654 $667 $668 reversed $501 $-1 #
edge $-1 $502 -19.897593616126944 $669 19.897593616126944 $579 $670 forward 7 unknown #
point $-1 76.623432111575667 -43.660647560411945 19.897593616126944 #
straight-curve $-1 -76.623432111575667 -43.660647560411945 0 0 0 -1 I I #
face $-1 $671 $672 $18 $-1 $673 reversed single #
loop $-1 $-1 $674 $506 #
plane-surface $-1 -62.755986808994969 0 5.4905628925729495 -1 0 0 0 0 1 forward_v I I I I #
coedge $-1 $675 $676 $677 $678 reversed $507 $-1 #
coedge $-1 $679 $509 $680 $681 reversed $415 $-1 #
coedge $-1 $509 $679 $607 $682 reversed $415 $-1 #
coedge $-1 $683 $674 $509 $597 forward $591 $-1 #
edge $-1 $684 -43.660647560411945 $685 43.660647560411945 $596 $686 forward 7 unknown #
coedge $-1 $510 $522 $687 $688 forward $334 $-1 #
coedge $-1 $689 $511 $510 $600 reversed $428 $-1 #
edge $-1 $690 -76.623432111575667 $514 -22.912487953152223 $599 $526 forward 7 unknown #
vertex $-1 $518 $691 #
straight-curve $-1 22.912487953152223 43.660647560411945 91.587091238365147 0 0 1 I I #
straight-curve $-1 22.912487953152223 -26.077239005064854 60.785795784552718 0 -0.79863550430605224 0.6018150307709319 I I #
point $-1 22.912487953152223 43.660647560411945 19.897593616126944 #
point $-1 22.912487953152223 28.183236870915529 19.89759361612694 #
straight-curve $-1 7.961975103692545 43.660647560411945 8.2345278744564681 1 0 0 I I #
coedge $-1 $520 $692 $595 $682 forward $428 $-1 #
coedge $-1 $693 $523 $520 $609 forward $615 $-1 #
edge $-1 $525 -19.897593616126944 $694 -11.35138703839189 $520 $695 forward 7 unknown #
face $-1 $-1 $696 $18 $-1 $697 reversed single #
plane-surface $-1 0 43.660647560411945 0 0 -1 0 0 0 -1 forward_v I I I I #
coedge $-1 $698 $699 $522 $613 reversed $700 $-1 #
edge $-1 $616 -76.623432111575667 $701 76.623432111575667 $612 $702 forward 7 unknown #
coedge $-1 $523 $693 $698 $703 reversed $615 $-1 #
loop $-1 $-1 $693 $671 #
vertex $-1 $524 $704 #
straight-curve $-1 -76.623432111575667 0 19.897593616126944 0 -1 0 I I #
point $-1 -76.623432111575667 43.660647560411945 19.897593616126944 #
face $-1 $705 $706 $19 $-1 $707 forward single #
loop $-1 $-1 $708 $527 #
plane-surface $-1 -69.689709460285314 0 11.35138703839189 0 0 1 1 0 0 forward_v I I I I #
coedge $-1 $536 $709 $530 $625 forward $528 $-1 #
coedge $-1 $624 $530 $710 $711 reversed $436 $-1 #
coedge $-1 $530 $623 $542 $638 forward $436 $-1 #
edge $-1 $712 -10.586133908942053 $639 4.8912767805543638 $622 $713 forward 7 unknown #
coedge $-1 $531 $542 $629 $714 reversed $358 $-1 #
vertex $-1 $714 $715 #
straight-curve $-1 8.9354124616179575 -26.077239005064854 60.785795784552718 0 0.79863550430605224 -0.6018150307709319 I I #
coedge $-1 $710 $533 $626 $714 forward $631 $-1 #
coedge $-1 $533 $716 $535 $634 reversed $631 $-1 #
loop $-1 $-1 $710 $717 #
straight-curve $-1 8.9354124616179575 43.660647560411945 91.587091238365147 0 0 -1 I I #
coedge $-1 $718 $535 $719 $720 forward $528 $-1 #
edge $-1 $538 -8.9354124616179575 $721 76.623432111575667 $630 $722 forward 7 unknown #
point $-1 8.9354124616179575 28.183236870915529 19.89759361612694 #
point $-1 8.9354124616179575 43.660647560411945 19.897593616126944 #
point $-1 12.928862602056313 32.662449048654189 9.7405673027597999 #
edge $-1 $723 -87.321295120823891 $639 -67.941477161259229 $624 $724 forward 7 unknown #
vertex $-1 $543 $725 #
straight-curve $-1 7.961975103692545 28.183236870915522 19.897593616126944 -1 0 0 I I #
edge $-1 $550 -43.660647560411945 $552 43.660647560411945 $555 $726 forward 7 unknown #
straight-curve $-1 76.623432111575667 0 19.897593616126944 0 1 0 I I #
point $-1 76.623432111575667 43.660647560411945 -19.897593616126944 #
point $-1 76.623432111575667 -43.660647560411945 -19.897593616126944 #
face $-1 $327 $727 $17 $-1 $728 reversed single #
plane-surface $-1 0 -43.660647560411945 0 0 1 0 0 0 1 forward_v I I I I #
coedge $-1 $729 $561 $651 $730 forward $474 $-1 #
coedge $-1 $561 $729 $654 $731 reversed $474 $-1 #
edge $-1 $655 -43.660647560411945 $652 43.660647560411945 $561 $732 forward 7 unknown #
straight-curve $-1 -62.755986808994969 -43.660647560411945 2.7452814462864747 0 0 -1 I I #
coedge $-1 $565 $582 $647 $730 reversed $240 $-1 #
vertex $-1 $730 $733 #
straight-curve $-1 -34.844854730142657 43.660647560411945 -0.37026125324599057 1 0 0 I I #
coedge $-1 $586 $567 $648 $731 forward $501 $-1 #
vertex $-1 $731 $734 #
straight-curve $-1 -34.844854730142657 -43.660647560411945 -0.37026125324599057 -1 0 0 I I #
point $-1 -62.755986808994969 43.660647560411945 -0.37026125324599057 #
point $-1 -62.755986808994969 -43.660647560411945 -0.37026125324599057 #
straight-curve $-1 -76.623432111575667 0 11.35138703839189 0 -1 0 I I #
point $-1 -76.623432111575667 -43.660647560411945 11.35138703839189 #
straight-curve $-1 -62.755986808994969 43.660647560411945 2.7452814462864747 0 0 1 I I #
coedge $-1 $580 $579 $735 $736 reversed $497 $-1 #
coedge $-1 $735 $737 $582 $664 forward $727 $-1 #
edge $-1 $738 -76.623432111575667 $665 76.623432111575667 $582 $739 forward 7 unknown #
vertex $-1 $736 $740 #
straight-curve $-1 76.623432111575667 43.660647560411945 0 0 0 -1 I I #
coedge $-1 $737 $735 $586 $668 forward $727 $-1 #
edge $-1 $669 -76.623432111575667 $741 76.623432111575667 $586 $742 forward 7 unknown #
vertex $-1 $587 $743 #
straight-curve $-1 76.623432111575667 -43.660647560411945 0 0 0 -1 I I #
face $-1 $744 $615 $18 $-1 $673 reversed single #
loop $-1 $-1 $745 $590 #
plane-surface $-1 -76.623432111575667 0 0 1 0 0 0 0 -1 forward_v I I I I #
coedge $-1 $596 $677 $746 $747 reversed $591 $-1 #
coedge $-1 $748 $593 $749 $750 reversed $507 $-1 #
coedge $-1 $593 $748 $751 $752 reversed $507 $-1 #
coedge $-1 $674 $683 $593 $678 forward $591 $-1 #
edge $-1 $753 -43.660647560411945 $754 43.660647560411945 $677 $755 forward 7 unknown #
coedge $-1 $595 $594 $693 $756 reversed $415 $-1 #
coedge $-1 $746 $698 $594 $681 forward $700 $-1 #
edge $-1 $757 -41.77857738143301 $684 -27.911132078852312 $680 $758 forward 7 unknown #
edge $-1 $685 27.911132078852312 $694 41.77857738143301 $607 $759 forward 7 unknown #
coedge $-1 $677 $596 $692 $760 reversed $591 $-1 #
vertex $-1 $681 $761 #
vertex $-1 $682 $762 #
straight-curve $-1 -62.755986808994969 0 11.35138703839189 0 1 0 I I #
coedge $-1 $763 $764 $598 $688 reversed $696 $-1 #
edge $-1 $701 -43.660647560411945 $690 43.660647560411945 $687 $765 forward 7 unknown #
coedge $-1 $766 $599 $764 $767 forward $428 $-1 #
vertex $-1 $688 $768 #
point $-1 22.912487953152223 43.660647560411945 8.2345278744564681 #
coedge $-1 $607 $749 $683 $760 forward $428 $-1 #
coedge $-1 $614 $608 $679 $756 forward $615 $-1 #
vertex $-1 $756 $769 #
straight-curve $-1 -76.623432111575667 43.660647560411945 0 0 0 -1 I I #
loop $-1 $-1 $763 $610 #
plane-surface $-1 76.623432111575667 0 0 -1 0 0 0 0 1 forward_v I I I I #
coedge $-1 $680 $612 $614 $703 forward $700 $-1 #
coedge $-1 $612 $770 $763 $771 reversed $700 $-1 #
loop $-1 $-1 $680 $744 #
vertex $-1 $688 $772 #
straight-curve $-1 0 -43.660647560411945 19.897593616126944 1 0 0 I I #
edge $-1 $616 -19.897593616126944 $757 -11.35138703839189 $614 $773 forward 7 unknown #
point $-1 -76.623432111575667 -43.660647560411945 19.897593616126944 #
face $-1 $774 $775 $19 $-1 $776 forward single #
loop $-1 $-1 $777 $619 #
plane-surface $-1 -69.689709460285314 0 -0.37026125324599057 0 0 1 1 0 0 forward_v I I I I #
coedge $-1 $778 $779 $780 $781 reversed $620 $-1 #
coedge $-1 $622 $782 $783 $784 forward $528 $-1 #
coedge $-1 $783 $629 $623 $711 forward $631 $-1 #
edge $-1 $723 -83.352563363908672 $712 -71.689497622238207 $710 $785 forward 7 unknown #
vertex $-1 $711 $786 #
straight-curve $-1 22.912487953152223 33.074513651469893 19.89759361612694 0 -1 0 I I #
edge $-1 $627 0.97343735792541253 $723 14.950512849459678 $629 $787 forward 7 unknown #
point $-1 8.9354124616179575 43.660647560411945 8.2345278744564681 #
coedge $-1 $630 $788 $789 $790 reversed $631 $-1 #
face $-1 $791 $631 $19 $-1 $792 reversed single #
coedge $-1 $782 $633 $793 $794 forward $528 $-1 #
coedge $-1 $789 $795 $633 $720 reversed $796 $-1 #
edge $-1 $721 -43.660647560411945 $797 43.660647560411945 $719 $798 forward 7 unknown #
vertex $-1 $634 $799 #
straight-curve $-1 0 43.660647560411945 19.897593616126944 -1 0 0 I I #
vertex $-1 $714 $800 #
straight-curve $-1 22.912487953152223 -26.077239005064854 60.785795784552718 0 -0.79863550430605224 0.6018150307709319 I I #
point $-1 22.912487953152223 28.183236870915529 19.89759361612694 #
straight-curve $-1 76.623432111575667 0 -19.897593616126944 0 -1 0 I I #
loop $-1 $-1 $735 $645 #
plane-surface $-1 0 0 -19.897593616126944 0 0 1 1 0 0 forward_v I I I I #
coedge $-1 $648 $647 $737 $801 reversed $474 $-1 #
edge $-1 $652 0.37026125324599057 $738 19.897593616126944 $651 $496 forward 7 unknown #
edge $-1 $655 0.37026125324599057 $741 19.897593616126944 $648 $589 forward 7 unknown #
straight-curve $-1 -76.623432111575667 0 -0.37026125324599057 0 1 0 I I #
point $-1 -76.623432111575667 43.660647560411945 -0.37026125324599057 #
point $-1 -76.623432111575667 -43.660647560411945 -0.37026125324599057 #
coedge $-1 $667 $663 $662 $736 forward $727 $-1 #
edge $-1 $665 -43.660647560411945 $669 43.660647560411945 $662 $802 forward 7 unknown #
coedge $-1 $663 $667 $729 $801 forward $727 $-1 #
vertex $-1 $664 $803 #
straight-curve $-1 0 43.660647560411945 -19.897593616126944 1 0 0 I I #
point $-1 76.623432111575667 43.660647560411945 -19.897593616126944 #
vertex $-1 $801 $804 #
straight-curve $-1 0 -43.660647560411945 -19.897593616126944 -1 0 0 I I #
point $-1 76.623432111575667 -43.660647560411945 -19.897593616126944 #
face $-1 $805 $700 $18 $-1 $806 reversed single #
coedge $-1 $807 $808 $748 $809 forward $672 $-1 #
coedge $-1 $751 $680 $674 $747 forward $700 $-1 #
edge $-1 $684 -8.6061055921054148 $754 3.1155426995324653 $746 $810 forward 7 unknown #
coedge $-1 $676 $675 $745 $809 reversed $507 $-1 #
coedge $-1 $692 $811 $675 $750 forward $428 $-1 #
edge $-1 $812 -41.77857738143301 $753 -27.911132078852312 $749 $813 forward 7 unknown #
coedge $-1 $814 $746 $676 $752 forward $700 $-1 #
edge $-1 $754 27.911132078852312 $815 41.77857738143301 $751 $816 forward 7 unknown #
vertex $-1 $750 $817 #
vertex $-1 $752 $818 #
straight-curve $-1 -62.755986808994969 0 -0.37026125324599057 0 -1 0 I I #
edge $-1 $694 -43.660647560411945 $757 43.660647560411945 $693 $819 forward 7 unknown #
vertex $-1 $681 $820 #
straight-curve $-1 -34.844854730142657 -43.660647560411945 11.35138703839189 1 0 0 I I #
straight-curve $-1 -34.844854730142657 43.660647560411945 11.35138703839189 -1 0 0 I I #
edge $-1 $753 -3.1155426995324653 $685 8.6061055921054148 $692 $821 forward 7 unknown #
point $-1 -62.755986808994969 -43.660647560411945 11.35138703839189 #
point $-1 -62.755986808994969 43.660647560411945 11.35138703839189 #
coedge $-1 $822 $687 $699 $771 forward $696 $-1 #
coedge $-1 $687 $822 $689 $767 reversed $696 $-1 #
straight-curve $-1 76.623432111575667 0 19.897593616126944 0 1 0 I I #
coedge $-1 $811 $689 $823 $824 reversed $428 $-1 #
edge $-1 $690 -19.897593616126944 $825 19.897593616126944 $764 $826 forward 7 unknown #
point $-1 76.623432111575667 43.660647560411945 19.897593616126944 #
point $-1 -76.623432111575667 43.660647560411945 11.35138703839189 #
coedge $-1 $699 $814 $827 $828 reversed $700 $-1 #
edge $-1 $701 -19.897593616126944 $829 19.897593616126944 $763 $830 forward 7 unknown #
point $-1 76.623432111575667 -43.660647560411945 19.897593616126944 #
straight-curve $-1 -76.623432111575667 -43.660647560411945 0 0 0 -1 I I #
face $-1 $831 $832 $19 $-1 $833 reversed single #
loop $-1 $-1 $834 $705 #
plane-surface $-1 -62.755986808994969 0 5.4905628925729495 -1 0 0 0 0 1 forward_v I I I I #
coedge $-1 $835 $836 $837 $838 reversed $706 $-1 #
coedge $-1 $839 $708 $840 $841 reversed $620 $-1 #
coedge $-1 $708 $839 $788 $842 reversed $620 $-1 #
coedge $-1 $843 $834 $708 $781 forward $775 $-1 #
edge $-1 $844 -43.660647560411945 $845 43.660647560411945 $780 $846 forward 7 unknown #
coedge $-1 $709 $718 $847 $848 forward $528 $-1 #
coedge $-1 $849 $710 $709 $784 reversed $631 $-1 #
edge $-1 $850 -76.623432111575667 $712 -22.912487953152223 $783 $722 forward 7 unknown #
straight-curve $-1 22.912487953152223 43.660647560411945 91.587091238365147 0 0 1 I I #
point $-1 22.912487953152223 43.660647560411945 19.897593616126944 #
straight-curve $-1 7.961975103692545 43.660647560411945 8.2345278744564681 1 0 0 I I #
coedge $-1 $716 $851 $779 $842 forward $631 $-1 #
coedge $-1 $852 $719 $716 $790 forward $796 $-1 #
edge $-1 $721 -19.897593616126944 $853 -11.35138703839189 $716 $854 forward 7 unknown #
face $-1 $-1 $855 $19 $-1 $856 reversed single #
plane-surface $-1 0 43.660647560411945 0 0 -1 0 0 0 -1 forward_v I I I I #
coedge $-1 $857 $858 $718 $794 reversed $859 $-1 #
edge $-1 $797 -76.623432111575667 $860 76.623432111575667 $793 $861 forward 7 unknown #
coedge $-1 $719 $852 $857 $862 reversed $796 $-1 #
loop $-1 $-1 $852 $831 #
vertex $-1 $720 $863 #
straight-curve $-1 -76.623432111575667 0 19.897593616126944 0 -1 0 I I #
point $-1 -76.623432111575667 43.660647560411945 19.897593616126944 #
point $-1 22.912487953152223 43.660647560411945 8.2345278744564681 #
edge $-1 $741 -43.660647560411945 $738 43.660647560411945 $729 $864 forward 7 unknown #
straight-curve $-1 76.623432111575667 0 -19.897593616126944 0 -1 0 I I #
point $-1 -76.623432111575667 43.660647560411945 -19.897593616126944 #
point $-1 -76.623432111575667 -43.660647560411945 -19.897593616126944 #
face $-1 $521 $865 $18 $-1 $866 reversed single #
plane-surface $-1 0 -43.660647560411945 0 0 1 0 0 0 1 forward_v I I I I #
coedge $-1 $867 $745 $811 $868 forward $672 $-1 #
coedge $-1 $745 $867 $814 $869 reversed $672 $-1 #
edge $-1 $815 -43.660647560411945 $812 43.660647560411945 $745 $870 forward 7 unknown #
straight-curve $-1 -62.755986808994969 -43.660647560411945 2.7452814462864747 0 0 -1 I I #
coedge $-1 $749 $766 $807 $868 reversed $428 $-1 #
vertex $-1 $868 $871 #
straight-curve $-1 -34.844854730142657 43.660647560411945 -0.37026125324599057 1 0 0 I I #
coedge $-1 $770 $751 $808 $869 forward $700 $-1 #
vertex $-1 $869 $872 #
straight-curve $-1 -34.844854730142657 -43.660647560411945 -0.37026125324599057 -1 0 0 I I #
point $-1 -62.755986808994969 43.660647560411945 -0.37026125324599057 #
point $-1 -62.755986808994969 -43.660647560411945 -0.37026125324599057 #
straight-curve $-1 -76.623432111575667 0 11.35138703839189 0 -1 0 I I #
point $-1 -76.623432111575667 -43.660647560411945 11.35138703839189 #
straight-curve $-1 -62.755986808994969 43.660647560411945 2.7452814462864747 0 0 1 I I #
coedge $-1 $764 $763 $873 $874 reversed $696 $-1 #
coedge $-1 $873 $875 $766 $824 forward $865 $-1 #
edge $-1 $876 -76.623432111575667 $825 76.623432111575667 $766 $877 forward 7 unknown #
vertex $-1 $874 $878 #
straight-curve $-1 76.623432111575667 43.660647560411945 0 0 0 -1 I I #
coedge $-1 $875 $873 $770 $828 forward $865 $-1 #
edge $-1 $829 -76.623432111575667 $879 76.623432111575667 $770 $880 forward 7 unknown #
vertex $-1 $771 $881 #
straight-curve $-1 76.623432111575667 -43.660647560411945 0 0 0 -1 I I #
face $-1 $882 $796 $19 $-1 $833 reversed single #
loop $-1 $-1 $883 $774 #
plane-surface $-1 -76.623432111575667 0 0 1 0 0 0 0 -1 forward_v I I I I #
coedge $-1 $780 $837 $884 $885 reversed $775 $-1 #
coedge $-1 $886 $777 $887 $888 reversed $706 $-1 #
coedge $-1 $777 $886 $889 $890 reversed $706 $-1 #
coedge $-1 $834 $843 $777 $838 forward $775 $-1 #
edge $-1 $891 -43.660647560411945 $892 43.660647560411945 $837 $893 forward 7 unknown #
coedge $-1 $779 $778 $852 $894 reversed $620 $-1 #
coedge $-1 $884 $857 $778 $841 forward $859 $-1 #
edge $-1 $895 -41.77857738143301 $844 -27.911132078852312 $840 $896 forward 7 unknown #
edge $-1 $845 27.911132078852312 $853 41.77857738143301 $788 $897 forward 7 unknown #
coedge $-1 $837 $780 $851 $898 reversed $775 $-1 #
vertex $-1 $841 $899 #
vertex $-1 $842 $900 #
straight-curve $-1 -62.755986808994969 0 11.35138703839189 0 1 0 I I #
coedge $-1 $901 $902 $782 $848 reversed $855 $-1 #
edge $-1 $860 -43.660647560411945 $850 43.660647560411945 $847 $903 forward 7 unknown #
coedge $-1 $904 $783 $902 $905 forward $631 $-1 #
vertex $-1 $848 $906 #
coedge $-1 $788 $887 $843 $898 forward $631 $-1 #
coedge $-1 $795 $789 $839 $894 forward $796 $-1 #
vertex $-1 $894 $907 #
straight-curve $-1 -76.623432111575667 43.660647560411945 0 0 0 -1 I I #
loop $-1 $-1 $901 $791 #
plane-surface $-1 76.623432111575667 0 0 -1 0 0 0 0 1 forward_v I I I I #
coedge $-1 $840 $793 $795 $862 forward $859 $-1 #
coedge $-1 $793 $908 $901 $909 reversed $859 $-1 #
loop $-1 $-1 $840 $882 #
vertex $-1 $848 $910 #
straight-curve $-1 0 -43.660647560411945 19.897593616126944 1 0 0 I I #
edge $-1 $797 -19.897593616126944 $895 -11.35138703839189 $795 $911 forward 7 unknown #
point $-1 -76.623432111575667 -43.660647560411945 19.897593616126944 #
straight-curve $-1 -76.623432111575667 0 -19.897593616126944 0 1 0 I I #
loop $-1 $-1 $873 $805 #
plane-surface $-1 0 0 -19.897593616126944 0 0 1 1 0 0 forward_v I I I I #
coedge $-1 $808 $807 $875 $912 reversed $672 $-1 #
edge $-1 $812 0.37026125324599057 $876 19.897593616126944 $811 $695 forward 7 unknown #
edge $-1 $815 0.37026125324599057 $879 19.897593616126944 $808 $773 forward 7 unknown #
straight-curve $-1 -76.623432111575667 0 -0.37026125324599057 0 1 0 I I #
point $-1 -76.623432111575667 43.660647560411945 -0.37026125324599057 #
point $-1 -76.623432111575667 -43.660647560411945 -0.37026125324599057 #
coedge $-1 $827 $823 $822 $874 forward $865 $-1 #
edge $-1 $825 -43.660647560411945 $829 43.660647560411945 $822 $913 forward 7 unknown #
coedge $-1 $823 $827 $867 $912 forward $865 $-1 #
vertex $-1 $824 $914 #
straight-curve $-1 0 43.660647560411945 -19.897593616126944 1 0 0 I I #
point $-1 76.623432111575667 43.660647560411945 -19.897593616126944 #
vertex $-1 $912 $915 #
straight-curve $-1 0 -43.660647560411945 -19.897593616126944 -1 0 0 I I #
point $-1 76.623432111575667 -43.660647560411945 -19.897593616126944 #
face $-1 $916 $859 $19 $-1 $917 reversed single #
coedge $-1 $918 $919 $886 $920 forward $832 $-1 #
coedge $-1 $889 $840 $834 $885 forward $859 $-1 #
edge $-1 $844 -8.6061055921054148 $892 3.1155426995324653 $884 $921 forward 7 unknown #
coedge $-1 $836 $835 $883 $920 reversed $706 $-1 #
coedge $-1 $851 $922 $835 $888 forward $631 $-1 #
edge $-1 $923 -41.77857738143301 $891 -27.911132078852312 $887 $924 forward 7 unknown #
coedge $-1 $925 $884 $836 $890 forward $859 $-1 #
edge $-1 $892 27.911132078852312 $926 41.77857738143301 $889 $927 forward 7 unknown #
vertex $-1 $888 $928 #
vertex $-1 $890 $929 #
straight-curve $-1 -62.755986808994969 0 -0.37026125324599057 0 -1 0 I I #
edge $-1 $853 -43.660647560411945 $895 43.660647560411945 $852 $930 forward 7 unknown #
vertex $-1 $841 $931 #
straight-curve $-1 -34.844854730142657 -43.660647560411945 11.35138703839189 1 0 0 I I #
straight-curve $-1 -34.844854730142657 43.660647560411945 11.35138703839189 -1 0 0 I I #
edge $-1 $891 -3.1155426995324653 $845 8.6061055921054148 $851 $932 forward 7 unknown #
point $-1 -62.755986808994969 -43.660647560411945 11.35138703839189 #
point $-1 -62.755986808994969 43.660647560411945 11.35138703839189 #
coedge $-1 $933 $847 $858 $909 forward $855 $-1 #
coedge $-1 $847 $933 $849 $905 reversed $855 $-1 #
straight-curve $-1 76.623432111575667 0 19.897593616126944 0 1 0 I I #
coedge $-1 $922 $849 $934 $935 reversed $631 $-1 #
edge $-1 $850 -19.897593616126944 $936 19.897593616126944 $902 $937 forward 7 unknown #
point $-1 76.623432111575667 43.660647560411945 19.897593616126944 #
point $-1 -76.623432111575667 43.660647560411945 11.35138703839189 #
coedge $-1 $858 $925 $938 $939 reversed $859 $-1 #
edge $-1 $860 -19.897593616126944 $940 19.897593616126944 $901 $941 forward 7 unknown #
point $-1 76.623432111575667 -43.660647560411945 19.897593616126944 #
straight-curve $-1 -76.623432111575667 -43.660647560411945 0 0 0 -1 I I #
edge $-1 $879 -43.660647560411945 $876 43.660647560411945 $867 $942 forward 7 unknown #
straight-curve $-1 76.623432111575667 0 -19.897593616126944 0 -1 0 I I #
point $-1 -76.623432111575667 43.660647560411945 -19.897593616126944 #
point $-1 -76.623432111575667 -43.660647560411945 -19.897593616126944 #
face $-1 $717 $943 $19 $-1 $944 reversed single #
plane-surface $-1 0 -43.660647560411945 0 0 1 0 0 0 1 forward_v I I I I #
coedge $-1 $945 $883 $922 $946 forward $832 $-1 #
coedge $-1 $883 $945 $925 $947 reversed $832 $-1 #
edge $-1 $926 -43.660647560411945 $923 43.660647560411945 $883 $948 forward 7 unknown #
straight-curve $-1 -62.755986808994969 -43.660647560411945 2.7452814462864747 0 0 -1 I I #
coedge $-1 $887 $904 $918 $946 reversed $631 $-1 #
vertex $-1 $946 $949 #
straight-curve $-1 -34.844854730142657 43.660647560411945 -0.37026125324599057 1 0 0 I I #
coedge $-1 $908 $889 $919 $947 forward $859 $-1 #
vertex $-1 $947 $950 #
straight-curve $-1 -34.844854730142657 -43.660647560411945 -0.37026125324599057 -1 0 0 I I #
point $-1 -62.755986808994969 43.660647560411945 -0.37026125324599057 #
point $-1 -62.755986808994969 -43.660647560411945 -0.37026125324599057 #
straight-curve $-1 -76.623432111575667 0 11.35138703839189 0 -1 0 I I #
point $-1 -76.623432111575667 -43.660647560411945 11.35138703839189 #
straight-curve $-1 -62.755986808994969 43.660647560411945 2.7452814462864747 0 0 1 I I #
coedge $-1 $902 $901 $951 $952 reversed $855 $-1 #
coedge $-1 $951 $953 $904 $935 forward $943 $-1 #
edge $-1 $954 -76.623432111575667 $936 76.623432111575667 $904 $955 forward 7 unknown #
vertex $-1 $952 $956 #
straight-curve $-1 76.623432111575667 43.660647560411945 0 0 0 -1 I I #
coedge $-1 $953 $951 $908 $939 forward $943 $-1 #
edge $-1 $940 -76.623432111575667 $957 76.623432111575667 $908 $958 forward 7 unknown #
vertex $-1 $909 $959 #
straight-curve $-1 76.623432111575667 -43.660647560411945 0 0 0 -1 I I #
straight-curve $-1 -76.623432111575667 0 -19.897593616126944 0 1 0 I I #
loop $-1 $-1 $951 $916 #
plane-surface $-1 0 0 -19.897593616126944 0 0 1 1 0 0 forward_v I I I I #
coedge $-1 $919 $918 $953 $960 reversed $832 $-1 #
edge $-1 $923 0.37026125324599057 $954 19.897593616126944 $922 $854 forward 7 unknown #
edge $-1 $926 0.37026125324599057 $957 19.897593616126944 $919 $911 forward 7 unknown #
straight-curve $-1 -76.623432111575667 0 -0.37026125324599057 0 1 0 I I #
point $-1 -76.623432111575667 43.660647560411945 -0.37026125324599057 #
point $-1 -76.623432111575667 -43.660647560411945 -0.37026125324599057 #
coedge $-1 $938 $934 $933 $952 forward $943 $-1 #
edge $-1 $936 -43.660647560411945 $940 43.660647560411945 $933 $961 forward 7 unknown #
coedge $-1 $934 $938 $945 $960 forward $943 $-1 #
vertex $-1 $935 $962 #
straight-curve $-1 0 43.660647560411945 -19.897593616126944 1 0 0 I I #
point $-1 76.623432111575667 43.660647560411945 -19.897593616126944 #
vertex $-1 $960 $963 #
straight-curve $-1 0 -43.660647560411945 -19.897593616126944 -1 0 0 I I #
point $-1 76.623432111575667 -43.660647560411945 -19.897593616126944 #
edge $-1 $957 -43.660647560411945 $954 43.660647560411945 $945 $964 forward 7 unknown #
straight-curve $-1 76.623432111575667 0 -19.897593616126944 0 -1 0 I I #
point $-1 -76.623432111575667 43.660647560411945 -19.897593616126944 #
point $-1 -76.623432111575667 -43.660647560411945 -19.897593616126944 #
straight-curve $-1 -76.623432111575667 0 -19.897593616126944 0 1 0 I I #
End-of-ACIS-data 