500 0 17 0           
7 Unknown 11 ACIS 5.0 NT 24 Fri Mar 26 02:59:14 1999 
-1 9.9999999999999995e-007 1e-010 
body $-1 $17 $-1 $18 #
body $-1 $19 $-1 $20 #
body $-1 $21 $-1 $22 #
body $-1 $23 $-1 $24 #
body $-1 $25 $-1 $26 #
body $-1 $27 $-1 $28 #
body $-1 $29 $-1 $30 #
body $-1 $31 $-1 $32 #
body $-1 $33 $-1 $34 #
body $-1 $35 $-1 $36 #
body $-1 $37 $-1 $38 #
body $-1 $39 $-1 $40 #
body $-1 $41 $-1 $42 #
body $-1 $43 $-1 $44 #
body $-1 $45 $-1 $46 #
body $-1 $47 $-1 $48 #
body $-1 $49 $-1 $50 #
lump $-1 $-1 $51 $0 #
transform $-1 1 0 0 0 1 0 0 0 1 41.040070802941983 24.517832025999038 5.8757646275387634 1 rotate no_reflect no_shear #
lump $-1 $-1 $52 $1 #
transform $-1 1 0 0 0 1 0 0 0 1 41.040070802941983 24.517832025999038 5.8757646275387634 1 rotate no_reflect no_shear #
lump $-1 $-1 $53 $2 #
transform $-1 1 0 0 0 1 0 0 0 1 41.040070802941983 24.517832025999038 5.8757646275387634 1 rotate no_reflect no_shear #
lump $-1 $-1 $54 $3 #
transform $-1 1 0 0 0 1 0 0 0 1 41.040070802941983 24.517832025999038 5.8757646275387634 1 rotate no_reflect no_shear #
lump $-1 $-1 $55 $4 #
transform $-1 1 0 0 0 1 0 0 0 1 41.040070802941983 24.517832025999038 5.8757646275387634 1 rotate no_reflect no_shear #
lump $-1 $-1 $56 $5 #
transform $-1 1 0 0 0 1 0 0 0 1 41.040070802941983 24.517832025999038 5.8757646275387634 1 rotate no_reflect no_shear #
lump $-1 $-1 $57 $6 #
transform $-1 1 0 0 0 1 0 0 0 1 41.040070802941983 24.517832025999038 5.8757646275387634 1 rotate no_reflect no_shear #
lump $-1 $-1 $58 $7 #
transform $-1 1 0 0 0 1 0 0 0 1 41.040070802941983 24.517832025999038 5.8757646275387634 1 rotate no_reflect no_shear #
lump $-1 $-1 $59 $8 #
transform $-1 1 0 0 0 1 0 0 0 1 41.040070802941983 24.517832025999038 5.8757646275387634 1 rotate no_reflect no_shear #
lump $-1 $-1 $60 $9 #
transform $-1 1 0 0 0 1 0 0 0 1 41.040070802941983 24.517832025999038 5.8757646275387634 1 rotate no_reflect no_shear #
lump $-1 $-1 $61 $10 #
transform $-1 1 0 0 0 1 0 0 0 1 41.040070802941983 24.517832025999038 5.8757646275387634 1 rotate no_reflect no_shear #
lump $-1 $-1 $62 $11 #
transform $-1 1 0 0 0 1 0 0 0 1 41.040070802941983 24.517832025999038 5.8757646275387634 1 rotate no_reflect no_shear #
lump $-1 $-1 $63 $12 #
transform $-1 1 0 0 0 1 0 0 0 1 41.040070802941983 24.517832025999038 5.8757646275387634 1 rotate no_reflect no_shear #
lump $-1 $-1 $64 $13 #
transform $-1 1 0 0 0 1 0 0 0 1 41.040070802941983 24.517832025999038 5.8757646275387634 1 rotate no_reflect no_shear #
lump $-1 $-1 $65 $14 #
transform $-1 1 0 0 0 1 0 0 0 1 41.040070802941983 24.517832025999038 5.8757646275387634 1 rotate no_reflect no_shear #
lump $-1 $-1 $66 $15 #
transform $-1 1 0 0 0 1 0 0 0 1 41.040070802941983 24.517832025999038 5.8757646275387634 1 rotate no_reflect no_shear #
lump $-1 $-1 $67 $16 #
transform $-1 1 0 0 0 1 0 0 0 1 41.040070802941983 24.517832025999038 5.8757646275387634 1 rotate no_reflect no_shear #
shell $-1 $-1 $-1 $68 $-1 $17 #
shell $-1 $-1 $-1 $69 $-1 $19 #
shell $-1 $-1 $-1 $70 $-1 $21 #
shell $-1 $-1 $-1 $71 $-1 $23 #
shell $-1 $-1 $-1 $72 $-1 $25 #
shell $-1 $-1 $-1 $73 $-1 $27 #
shell $-1 $-1 $-1 $74 $-1 $29 #
shell $-1 $-1 $-1 $75 $-1 $31 #
shell $-1 $-1 $-1 $76 $-1 $33 #
shell $-1 $-1 $-1 $77 $-1 $35 #
shell $-1 $-1 $-1 $78 $-1 $37 #
shell $-1 $-1 $-1 $79 $-1 $39 #
shell $-1 $-1 $-1 $80 $-1 $41 #
shell $-1 $-1 $-1 $81 $-1 $43 #
shell $-1 $-1 $-1 $82 $-1 $45 #
shell $-1 $-1 $-1 $83 $-1 $47 #
shell $-1 $-1 $-1 $84 $-1 $49 #
face $-1 $85 $86 $51 $-1 $87 forward single #
face $-1 $88 $89 $52 $-1 $90 forward single #
face $-1 $91 $92 $53 $-1 $93 reversed single #
face $-1 $94 $95 $54 $-1 $96 forward single #
face $-1 $97 $98 $55 $-1 $99 forward single #
face $-1 $100 $101 $56 $-1 $102 reversed single #
face $-1 $103 $104 $57 $-1 $105 forward single #
face $-1 $106 $107 $58 $-1 $108 forward single #
face $-1 $109 $110 $59 $-1 $111 reversed single #
face $-1 $112 $113 $60 $-1 $114 forward single #
face $-1 $115 $116 $61 $-1 $117 forward single #
face $-1 $118 $119 $62 $-1 $120 reversed single #
face $-1 $121 $122 $63 $-1 $123 forward single #
face $-1 $124 $125 $64 $-1 $126 forward single #
face $-1 $127 $128 $65 $-1 $129 reversed single #
face $-1 $130 $131 $66 $-1 $132 forward single #
face $-1 $133 $134 $67 $-1 $135 forward single #
face $-1 $136 $137 $51 $-1 $138 reversed single #
loop $-1 $-1 $139 $68 #
plane-surface $-1 0 0 5.8757646275387634 0 0 1 1 0 0 forward_v I I I I #
face $-1 $140 $141 $52 $-1 $142 reversed single #
loop $-1 $-1 $143 $69 #
plane-surface $-1 -41.040070802941983 0 0 1 0 0 0 0 -1 forward_v I I I I #
face $-1 $144 $145 $53 $-1 $146 reversed single #
loop $-1 $-1 $147 $70 #
plane-surface $-1 -15.627053242055077 -65.557903378774242 72.55256989303048 -1 0 0 0 -0.50000000669873634 0.8660253999169214 forward_v I I I I #
face $-1 $148 $149 $54 $-1 $150 forward single #
loop $-1 $151 $152 $71 #
cone-surface $-1 -22.321586961816507 -19.915063738417679 2.3102181982192116 0 0.50000000669873634 -0.8660253999169214 1 0 0 1 I I 0 1 1 forward I I I I #
face $-1 $153 $154 $55 $-1 $155 forward single #
loop $-1 $156 $157 $72 #
cone-surface $-1 -18.304866729959649 -19.915063738417679 2.3102181982192116 0 0.50000000669873634 -0.8660253999169214 1 0 0 1 I I 0 1 1 forward I I I I #
face $-1 $158 $159 $56 $-1 $160 reversed single #
loop $-1 $-1 $161 $73 #
plane-surface $-1 0.089756726055160385 -65.557903378774242 72.55256989303048 -1 0 0 0 -0.50000000669873634 0.8660253999169214 forward_v I I I I #
face $-1 $162 $163 $57 $-1 $164 forward single #
loop $-1 $165 $166 $74 #
cone-surface $-1 -6.6047769937062668 -19.915063738417679 2.3102181982192116 0 0.50000000669873634 -0.8660253999169214 1 0 0 1 I I 0 1 1 forward I I I I #
face $-1 $167 $168 $58 $-1 $169 forward single #
loop $-1 $170 $171 $75 #
cone-surface $-1 -2.5880567618494084 -19.915063738417679 2.3102181982192116 0 0.50000000669873634 -0.8660253999169214 1 0 0 1 I I 0 1 1 forward I I I I #
face $-1 $172 $173 $59 $-1 $174 reversed single #
loop $-1 $-1 $175 $76 #
plane-surface $-1 15.806566694165401 -65.557903378774242 72.55256989303048 -1 0 0 0 -0.50000000669873634 0.8660253999169214 forward_v I I I I #
face $-1 $176 $177 $60 $-1 $178 forward single #
loop $-1 $179 $180 $77 #
cone-surface $-1 9.1120329744039736 -19.915063738417679 2.3102181982192116 0 0.50000000669873634 -0.8660253999169214 1 0 0 1 I I 0 1 1 forward I I I I #
face $-1 $181 $182 $61 $-1 $183 forward single #
loop $-1 $184 $185 $78 #
cone-surface $-1 13.128753206260832 -19.915063738417679 2.3102181982192116 0 0.50000000669873634 -0.8660253999169214 1 0 0 1 I I 0 1 1 forward I I I I #
face $-1 $186 $187 $62 $-1 $188 reversed single #
loop $-1 $-1 $189 $79 #
plane-surface $-1 31.523376662275641 -65.557903378774242 72.55256989303048 -1 0 0 0 -0.50000000669873634 0.8660253999169214 forward_v I I I I #
face $-1 $190 $191 $63 $-1 $192 forward single #
loop $-1 $193 $194 $80 #
cone-surface $-1 24.828842942514214 -19.915063738417679 2.3102181982192116 0 0.50000000669873634 -0.8660253999169214 1 0 0 1 I I 0 1 1 forward I I I I #
face $-1 $195 $196 $64 $-1 $197 forward single #
loop $-1 $198 $199 $81 #
cone-surface $-1 28.84556317437108 -19.915063738417679 2.3102181982192116 0 0.50000000669873634 -0.8660253999169214 1 0 0 1 I I 0 1 1 forward I I I I #
face $-1 $200 $201 $65 $-1 $202 reversed single #
loop $-1 $-1 $203 $82 #
plane-surface $-1 9.5484849459761811 55.87535227265613 91.071169761217504 1 0 0 0 -0.7660444514056185 -0.64278759981090561 forward_v I I I I #
face $-1 $204 $205 $66 $-1 $206 forward single #
loop $-1 $207 $208 $83 #
cone-surface $-1 15.584769310326216 21.760142073437446 2.8030419152217694 0 -0.7660444514056185 -0.64278759981090561 1 0 0 1 I I 0 1 1 forward I I I I #
face $-1 $209 $210 $67 $-1 $211 forward single #
loop $-1 $212 $213 $84 #
cone-surface $-1 24.639195856851273 21.760142073437446 2.8030419152217694 0 -0.7660444514056185 -0.64278759981090561 1 0 0 1 I I 0 1 1 forward I I I I #
face $-1 $214 $215 $51 $-1 $216 reversed single #
loop $-1 $-1 $217 $85 #
plane-surface $-1 0 0 -5.8757646275387634 0 0 1 1 0 0 forward_v I I I I #
coedge $-1 $218 $219 $220 $221 forward $86 $-1 #
face $-1 $222 $223 $52 $-1 $224 forward single #
loop $-1 $-1 $225 $88 #
plane-surface $-1 0 24.517832025999038 0 0 -1 0 0 0 -1 forward_v I I I I #
coedge $-1 $226 $227 $228 $229 forward $89 $-1 #
face $-1 $230 $231 $53 $-1 $232 reversed single #
loop $-1 $-1 $233 $91 #
plane-surface $-1 -20.313226845888078 -24.517832025999034 1.4690824335572756 0 -0.50000000669873634 0.8660253999169214 1 0 0 forward_v I I I I #
coedge $-1 $234 $235 $236 $237 reversed $92 $-1 #
face $-1 $-1 $238 $54 $-1 $239 forward single #
loop $-1 $240 $241 $94 #
cone-surface $-1 -22.321586961816507 -18.878594105707791 0.51500016593194253 0 0.50000000669873634 -0.8660253999169214 0.5 0 0 1 I I -0.70710678118654779 0.70710678118654713 0.5 forward I I I I #
loop $-1 $-1 $242 $71 #
coedge $-1 $152 $152 $243 $244 reversed $95 $-1 #
face $-1 $-1 $245 $55 $-1 $246 forward single #
loop $-1 $247 $248 $97 #
cone-surface $-1 -18.304866729959649 -18.878594105707791 0.51500016593194253 0 0.50000000669873634 -0.8660253999169214 0.5 0 0 1 I I -0.70710678118654779 0.70710678118654713 0.5 forward I I I I #
loop $-1 $-1 $249 $72 #
coedge $-1 $157 $157 $250 $251 reversed $98 $-1 #
face $-1 $252 $253 $56 $-1 $254 reversed single #
loop $-1 $-1 $255 $100 #
plane-surface $-1 -4.5964168777778411 -24.517832025999034 1.4690824335572756 0 -0.50000000669873634 0.8660253999169214 1 0 0 forward_v I I I I #
coedge $-1 $256 $257 $258 $259 reversed $101 $-1 #
face $-1 $-1 $260 $57 $-1 $261 forward single #
loop $-1 $262 $263 $103 #
cone-surface $-1 -6.6047769937062668 -18.878594105707791 0.51500016593194253 0 0.50000000669873634 -0.8660253999169214 0.5 0 0 1 I I -0.70710678118654779 0.70710678118654713 0.5 forward I I I I #
loop $-1 $-1 $264 $74 #
coedge $-1 $166 $166 $265 $266 reversed $104 $-1 #
face $-1 $-1 $267 $58 $-1 $268 forward single #
loop $-1 $269 $270 $106 #
cone-surface $-1 -2.5880567618494084 -18.878594105707791 0.51500016593194253 0 0.50000000669873634 -0.8660253999169214 0.5 0 0 1 I I -0.70710678118654779 0.70710678118654713 0.5 forward I I I I #
loop $-1 $-1 $271 $75 #
coedge $-1 $171 $171 $272 $273 reversed $107 $-1 #
face $-1 $274 $275 $59 $-1 $276 reversed single #
loop $-1 $-1 $277 $109 #
plane-surface $-1 11.120393090332399 -24.517832025999034 1.4690824335572756 0 -0.50000000669873634 0.8660253999169214 1 0 0 forward_v I I I I #
coedge $-1 $278 $279 $280 $281 reversed $110 $-1 #
face $-1 $-1 $282 $60 $-1 $283 forward single #
loop $-1 $284 $285 $112 #
cone-surface $-1 9.1120329744039736 -18.878594105707791 0.51500016593194253 0 0.50000000669873634 -0.8660253999169214 0.5 0 0 1 I I -0.70710678118654779 0.70710678118654713 0.5 forward I I I I #
loop $-1 $-1 $286 $77 #
coedge $-1 $180 $180 $287 $288 reversed $113 $-1 #
face $-1 $-1 $289 $61 $-1 $290 forward single #
loop $-1 $291 $292 $115 #
cone-surface $-1 13.128753206260832 -18.878594105707791 0.51500016593194253 0 0.50000000669873634 -0.8660253999169214 0.5 0 0 1 I I -0.70710678118654779 0.70710678118654713 0.5 forward I I I I #
loop $-1 $-1 $293 $78 #
coedge $-1 $185 $185 $294 $295 reversed $116 $-1 #
face $-1 $296 $297 $62 $-1 $298 reversed single #
loop $-1 $-1 $299 $118 #
plane-surface $-1 26.83720305844264 -24.517832025999034 1.4690824335572756 0 -0.50000000669873634 0.8660253999169214 1 0 0 forward_v I I I I #
coedge $-1 $300 $301 $302 $303 reversed $119 $-1 #
face $-1 $-1 $304 $63 $-1 $305 forward single #
loop $-1 $306 $307 $121 #
cone-surface $-1 24.828842942514214 -18.878594105707791 0.51500016593194253 0 0.50000000669873634 -0.8660253999169214 0.5 0 0 1 I I -0.70710678118654779 0.70710678118654713 0.5 forward I I I I #
loop $-1 $-1 $308 $80 #
coedge $-1 $194 $194 $309 $310 reversed $122 $-1 #
face $-1 $-1 $311 $64 $-1 $312 forward single #
loop $-1 $313 $314 $124 #
cone-surface $-1 28.84556317437108 -18.878594105707791 0.51500016593194253 0 0.50000000669873634 -0.8660253999169214 0.5 0 0 1 I I -0.70710678118654779 0.70710678118654713 0.5 forward I I I I #
loop $-1 $-1 $315 $81 #
coedge $-1 $199 $199 $316 $317 reversed $125 $-1 #
face $-1 $318 $319 $65 $-1 $320 reversed single #
loop $-1 $-1 $321 $127 #
plane-surface $-1 20.111982583588755 -7.0016847751187328 38.311072546232097 0 0.7660444514056185 0.64278759981090561 1 0 0 forward_v I I I I #
coedge $-1 $322 $323 $324 $325 reversed $128 $-1 #
face $-1 $-1 $326 $66 $-1 $327 forward single #
loop $-1 $328 $329 $130 #
cone-surface $-1 15.584769310326216 20.770961196163089 1.9730206276641917 0 -0.7660444514056185 -0.64278759981090561 0.5 0 0 1 I I -0.70710678118654746 0.70710678118654746 0.5 forward I I I I #
loop $-1 $-1 $330 $83 #
coedge $-1 $208 $208 $331 $332 reversed $131 $-1 #
face $-1 $-1 $333 $67 $-1 $334 forward single #
loop $-1 $335 $336 $133 #
cone-surface $-1 24.639195856851273 20.770961196163089 1.9730206276641917 0 -0.7660444514056185 -0.64278759981090561 0.5 0 0 1 I I -0.70710678118654746 0.70710678118654746 0.5 forward I I I I #
loop $-1 $-1 $337 $84 #
coedge $-1 $213 $213 $338 $339 reversed $134 $-1 #
face $-1 $340 $341 $51 $-1 $342 reversed single #
loop $-1 $-1 $343 $136 #
plane-surface $-1 0 -24.517832025999038 0 0 1 0 0 0 1 forward_v I I I I #
coedge $-1 $344 $345 $346 $347 forward $137 $-1 #
coedge $-1 $348 $139 $349 $350 forward $86 $-1 #
coedge $-1 $139 $348 $351 $352 forward $86 $-1 #
coedge $-1 $353 $354 $139 $221 reversed $355 $-1 #
edge $-1 $356 -24.517832025999038 $357 24.517832025999038 $220 $358 forward 7 unknown #
face $-1 $359 $360 $52 $-1 $361 reversed single #
loop $-1 $-1 $228 $140 #
plane-surface $-1 -44.302058909219255 0 -2.8757646275387634 0 0 1 1 0 0 forward_v I I I I #
coedge $-1 $362 $363 $227 $364 forward $141 $-1 #
coedge $-1 $365 $143 $366 $367 reversed $89 $-1 #
coedge $-1 $143 $365 $225 $364 reversed $89 $-1 #
coedge $-1 $368 $369 $143 $229 reversed $223 $-1 #
edge $-1 $370 -24.517832025999038 $371 24.517832025999038 $228 $372 forward 7 unknown #
face $-1 $373 $374 $53 $-1 $375 reversed single #
loop $-1 $-1 $376 $144 #
plane-surface $-1 -24.99940044972108 -65.557903378774242 72.55256989303048 1 0 0 0 0.50000000669873634 -0.8660253999169214 forward_v I I I I #
coedge $-1 $377 $378 $379 $380 reversed $145 $-1 #
coedge $-1 $235 $147 $381 $382 reversed $92 $-1 #
coedge $-1 $147 $234 $377 $383 reversed $92 $-1 #
coedge $-1 $379 $384 $147 $237 forward $385 $-1 #
edge $-1 $386 8.261119663388083 $387 15.893716979829762 $236 $388 forward 7 unknown #
loop $-1 $-1 $243 $148 #
plane-surface $-1 -20.313226845888078 -24.517832025999034 1.4690824335572756 0 -0.50000000669873634 0.8660253999169214 1 0 0 forward_v I I I I #
loop $-1 $-1 $389 $94 #
coedge $-1 $241 $241 $242 $390 reversed $149 $-1 #
coedge $-1 $242 $242 $241 $390 forward $151 $-1 #
coedge $-1 $243 $243 $152 $244 forward $238 $-1 #
edge $-1 $391 -1.7444726370743141e-015 $391 6.2831853071795987 $243 $392 forward 7 unknown #
loop $-1 $-1 $250 $153 #
plane-surface $-1 -20.313226845888078 -24.517832025999034 1.4690824335572756 0 -0.50000000669873634 0.8660253999169214 1 0 0 forward_v I I I I #
loop $-1 $-1 $393 $97 #
coedge $-1 $248 $248 $249 $394 reversed $154 $-1 #
coedge $-1 $249 $249 $248 $394 forward $156 $-1 #
coedge $-1 $250 $250 $157 $251 forward $245 $-1 #
edge $-1 $395 -1.7444726370743141e-015 $395 6.2831853071795987 $250 $396 forward 7 unknown #
face $-1 $397 $398 $56 $-1 $399 reversed single #
loop $-1 $-1 $400 $158 #
plane-surface $-1 -9.2825904816108427 -65.557903378774242 72.55256989303048 1 0 0 0 0.50000000669873634 -0.8660253999169214 forward_v I I I I #
coedge $-1 $401 $402 $403 $404 reversed $159 $-1 #
coedge $-1 $257 $161 $405 $406 reversed $101 $-1 #
coedge $-1 $161 $256 $401 $407 reversed $101 $-1 #
coedge $-1 $403 $408 $161 $259 forward $409 $-1 #
edge $-1 $410 8.261119663388083 $411 15.893716979829762 $258 $412 forward 7 unknown #
loop $-1 $-1 $265 $162 #
plane-surface $-1 -4.5964168777778411 -24.517832025999034 1.4690824335572756 0 -0.50000000669873634 0.8660253999169214 1 0 0 forward_v I I I I #
loop $-1 $-1 $413 $103 #
coedge $-1 $263 $263 $264 $414 reversed $163 $-1 #
coedge $-1 $264 $264 $263 $414 forward $165 $-1 #
coedge $-1 $265 $265 $166 $266 forward $260 $-1 #
edge $-1 $415 -1.7444726370743141e-015 $415 6.2831853071795987 $265 $416 forward 7 unknown #
loop $-1 $-1 $272 $167 #
plane-surface $-1 -4.5964168777778411 -24.517832025999034 1.4690824335572756 0 -0.50000000669873634 0.8660253999169214 1 0 0 forward_v I I I I #
loop $-1 $-1 $417 $106 #
coedge $-1 $270 $270 $271 $418 reversed $168 $-1 #
coedge $-1 $271 $271 $270 $418 forward $170 $-1 #
coedge $-1 $272 $272 $171 $273 forward $267 $-1 #
edge $-1 $419 -1.7444726370743141e-015 $419 6.2831853071795987 $272 $420 forward 7 unknown #
face $-1 $421 $422 $59 $-1 $423 reversed single #
loop $-1 $-1 $424 $172 #
plane-surface $-1 6.4342194864993978 -65.557903378774242 72.55256989303048 1 0 0 0 0.50000000669873634 -0.8660253999169214 forward_v I I I I #
coedge $-1 $425 $426 $427 $428 reversed $173 $-1 #
coedge $-1 $279 $175 $429 $430 reversed $110 $-1 #
coedge $-1 $175 $278 $425 $431 reversed $110 $-1 #
coedge $-1 $427 $432 $175 $281 forward $433 $-1 #
edge $-1 $434 8.261119663388083 $435 15.893716979829762 $280 $436 forward 7 unknown #
loop $-1 $-1 $287 $176 #
plane-surface $-1 11.120393090332399 -24.517832025999034 1.4690824335572756 0 -0.50000000669873634 0.8660253999169214 1 0 0 forward_v I I I I #
loop $-1 $-1 $437 $112 #
coedge $-1 $285 $285 $286 $438 reversed $177 $-1 #
coedge $-1 $286 $286 $285 $438 forward $179 $-1 #
coedge $-1 $287 $287 $180 $288 forward $282 $-1 #
edge $-1 $439 -1.7444726370743141e-015 $439 6.2831853071795987 $287 $440 forward 7 unknown #
loop $-1 $-1 $294 $181 #
plane-surface $-1 11.120393090332399 -24.517832025999034 1.4690824335572756 0 -0.50000000669873634 0.8660253999169214 1 0 0 forward_v I I I I #
loop $-1 $-1 $441 $115 #
coedge $-1 $292 $292 $293 $442 reversed $182 $-1 #
coedge $-1 $293 $293 $292 $442 forward $184 $-1 #
coedge $-1 $294 $294 $185 $295 forward $289 $-1 #
edge $-1 $443 -1.7444726370743141e-015 $443 6.2831853071795987 $294 $444 forward 7 unknown #
face $-1 $445 $446 $62 $-1 $447 reversed single #
loop $-1 $-1 $448 $186 #
plane-surface $-1 22.151029454609638 -65.557903378774242 72.55256989303048 1 0 0 0 0.50000000669873634 -0.8660253999169214 forward_v I I I I #
coedge $-1 $449 $450 $451 $452 reversed $187 $-1 #
coedge $-1 $301 $189 $453 $454 reversed $119 $-1 #
coedge $-1 $189 $300 $449 $455 reversed $119 $-1 #
coedge $-1 $451 $456 $189 $303 forward $457 $-1 #
edge $-1 $458 8.261119663388083 $459 15.893716979829762 $302 $460 forward 7 unknown #
loop $-1 $-1 $309 $190 #
plane-surface $-1 26.83720305844264 -24.517832025999034 1.4690824335572756 0 -0.50000000669873634 0.8660253999169214 1 0 0 forward_v I I I I #
loop $-1 $-1 $461 $121 #
coedge $-1 $307 $307 $308 $462 reversed $191 $-1 #
coedge $-1 $308 $308 $307 $462 forward $193 $-1 #
coedge $-1 $309 $309 $194 $310 forward $304 $-1 #
edge $-1 $463 -1.7444726370743141e-015 $463 6.2831853071795987 $309 $464 forward 7 unknown #
loop $-1 $-1 $316 $195 #
plane-surface $-1 26.83720305844264 -24.517832025999034 1.4690824335572756 0 -0.50000000669873634 0.8660253999169214 1 0 0 forward_v I I I I #
loop $-1 $-1 $465 $124 #
coedge $-1 $314 $314 $315 $466 reversed $196 $-1 #
coedge $-1 $315 $315 $314 $466 forward $198 $-1 #
coedge $-1 $316 $316 $199 $317 forward $311 $-1 #
edge $-1 $467 -1.7444726370743141e-015 $467 6.2831853071795987 $316 $468 forward 7 unknown #
face $-1 $469 $470 $65 $-1 $471 forward single #
loop $-1 $-1 $472 $200 #
plane-surface $-1 30.67548022120133 55.87535227265613 91.071169761217504 -1 0 0 0 0.7660444514056185 0.64278759981090561 forward_v I I I I #
coedge $-1 $473 $474 $475 $476 reversed $201 $-1 #
coedge $-1 $323 $203 $477 $478 reversed $128 $-1 #
coedge $-1 $203 $322 $473 $479 reversed $128 $-1 #
coedge $-1 $475 $480 $203 $325 forward $470 $-1 #
edge $-1 $481 3.4198441103290271 $482 7.7229067123091433 $324 $483 forward 7 unknown #
loop $-1 $-1 $331 $204 #
plane-surface $-1 20.111982583588755 -7.0016847751187328 38.311072546232097 0 0.7660444514056185 0.64278759981090561 1 0 0 forward_v I I I I #
loop $-1 $-1 $484 $130 #
coedge $-1 $329 $329 $330 $485 reversed $205 $-1 #
coedge $-1 $330 $330 $329 $485 forward $207 $-1 #
coedge $-1 $331 $331 $208 $332 forward $326 $-1 #
edge $-1 $486 1.6503355406817785e-015 $486 6.2831853071796022 $331 $487 forward 7 unknown #
loop $-1 $-1 $338 $209 #
plane-surface $-1 20.111982583588755 -7.0016847751187328 38.311072546232097 0 0.7660444514056185 0.64278759981090561 1 0 0 forward_v I I I I #
loop $-1 $-1 $488 $133 #
coedge $-1 $336 $336 $337 $489 reversed $210 $-1 #
coedge $-1 $337 $337 $336 $489 forward $212 $-1 #
coedge $-1 $338 $338 $213 $339 forward $333 $-1 #
edge $-1 $490 1.6503355406817785e-015 $490 6.2831853071796022 $338 $491 forward 7 unknown #
face $-1 $492 $493 $51 $-1 $494 reversed single #
loop $-1 $-1 $495 $214 #
plane-surface $-1 -41.040070802941983 0 0 1 0 0 0 0 -1 forward_v I I I I #
coedge $-1 $496 $351 $495 $497 forward $215 $-1 #
coedge $-1 $498 $217 $496 $499 forward $137 $-1 #
coedge $-1 $217 $498 $500 $501 forward $137 $-1 #
coedge $-1 $354 $353 $217 $347 reversed $355 $-1 #
edge $-1 $502 -24.517832025999038 $503 24.517832025999038 $346 $504 forward 7 unknown #
coedge $-1 $219 $218 $505 $506 forward $86 $-1 #
coedge $-1 $507 $508 $218 $350 reversed $493 $-1 #
edge $-1 $357 -41.040070802941983 $509 41.040070802941983 $349 $510 forward 7 unknown #
coedge $-1 $343 $511 $219 $352 reversed $215 $-1 #
edge $-1 $512 -41.040070802941983 $356 41.040070802941983 $351 $513 forward 7 unknown #
coedge $-1 $346 $220 $511 $514 forward $355 $-1 #
coedge $-1 $220 $346 $507 $515 reversed $355 $-1 #
loop $-1 $-1 $353 $492 #
vertex $-1 $221 $516 #
vertex $-1 $221 $517 #
straight-curve $-1 41.040070802941983 0 5.8757646275387634 0 1 0 I I #
face $-1 $518 $519 $52 $-1 $520 reversed single #
loop $-1 $-1 $521 $222 #
plane-surface $-1 -47.564047015496527 0 -4.3757646275387634 1 0 0 0 0 -1 forward_v I I I I #
coedge $-1 $522 $225 $523 $524 reversed $141 $-1 #
coedge $-1 $225 $522 $368 $525 reversed $141 $-1 #
edge $-1 $370 2.8757646275387634 $526 5.8757646275387634 $225 $527 forward 7 unknown #
coedge $-1 $227 $226 $528 $529 reversed $89 $-1 #
coedge $-1 $530 $531 $226 $367 forward $532 $-1 #
edge $-1 $533 -5.8757646275387634 $371 -2.8757646275387634 $366 $534 forward 7 unknown #
coedge $-1 $535 $228 $363 $525 forward $223 $-1 #
coedge $-1 $228 $535 $530 $536 forward $223 $-1 #
vertex $-1 $364 $537 #
vertex $-1 $536 $538 #
straight-curve $-1 -41.040070802941983 0 -2.8757646275387634 0 -1 0 I I #
face $-1 $-1 $385 $53 $-1 $539 forward single #
loop $-1 $-1 $540 $230 #
plane-surface $-1 0 -24.517832025999038 0 0 1 0 0 0 1 forward_v I I I I #
coedge $-1 $541 $542 $543 $544 reversed $231 $-1 #
coedge $-1 $545 $233 $235 $383 forward $145 $-1 #
coedge $-1 $233 $545 $541 $546 forward $145 $-1 #
coedge $-1 $543 $236 $233 $380 forward $385 $-1 #
edge $-1 $387 5.4704398191110375 $547 14.842787026777041 $379 $548 forward 7 unknown #
coedge $-1 $549 $550 $234 $382 forward $374 $-1 #
edge $-1 $551 -34.807202512957964 $386 -30.400520318976476 $381 $552 forward 7 unknown #
edge $-1 $387 -8.8133642698861685 $551 4.0759410200229262e-015 $235 $553 forward 7 unknown #
coedge $-1 $236 $543 $549 $554 forward $385 $-1 #
loop $-1 $-1 $543 $373 #
vertex $-1 $382 $555 #
vertex $-1 $237 $556 #
straight-curve $-1 -15.627053242055077 -32.778951689387121 5.8757646275387643 0 1 0 I I #
coedge $-1 $389 $389 $-1 $557 reversed $240 $-1 #
edge $-1 $558 0 $558 6.2831853071796004 $241 $559 forward 7 unknown #
vertex $-1 $244 $560 #
ellipse-curve $-1 -22.321586961816507 -20.7015333677782 3.6724235305480182 0 -0.50000000669873634 0.8660253999169214 1 0 0 1 I I #
coedge $-1 $393 $393 $-1 $561 reversed $247 $-1 #
edge $-1 $562 0 $562 6.2831853071796004 $248 $563 forward 7 unknown #
vertex $-1 $251 $564 #
ellipse-curve $-1 -18.304866729959649 -20.7015333677782 3.6724235305480182 0 -0.50000000669873634 0.8660253999169214 1 0 0 1 I I #
face $-1 $-1 $409 $56 $-1 $565 forward single #
loop $-1 $-1 $566 $252 #
plane-surface $-1 0 -24.517832025999038 0 0 1 0 0 0 1 forward_v I I I I #
coedge $-1 $567 $568 $569 $570 reversed $253 $-1 #
coedge $-1 $571 $255 $257 $407 forward $159 $-1 #
coedge $-1 $255 $571 $567 $572 forward $159 $-1 #
coedge $-1 $569 $258 $255 $404 forward $409 $-1 #
edge $-1 $411 -2.387965164944081 $573 6.9843820427219221 $403 $574 forward 7 unknown #
coedge $-1 $575 $576 $256 $406 forward $398 $-1 #
edge $-1 $577 -34.807202512957964 $410 -30.400520318976476 $405 $578 forward 7 unknown #
edge $-1 $411 -8.8133642698861685 $577 4.0759410200229262e-015 $257 $579 forward 7 unknown #
coedge $-1 $258 $569 $575 $580 forward $409 $-1 #
loop $-1 $-1 $569 $397 #
vertex $-1 $406 $581 #
vertex $-1 $259 $582 #
straight-curve $-1 0.089756726055160385 -32.778951689387121 5.8757646275387643 0 1 0 I I #
coedge $-1 $413 $413 $-1 $583 reversed $262 $-1 #
edge $-1 $584 0 $584 6.2831853071796004 $263 $585 forward 7 unknown #
vertex $-1 $266 $586 #
ellipse-curve $-1 -6.6047769937062668 -20.7015333677782 3.6724235305480182 0 -0.50000000669873634 0.8660253999169214 1 0 0 1 I I #
coedge $-1 $417 $417 $-1 $587 reversed $269 $-1 #
edge $-1 $588 0 $588 6.2831853071796004 $270 $589 forward 7 unknown #
vertex $-1 $273 $590 #
ellipse-curve $-1 -2.5880567618494084 -20.7015333677782 3.6724235305480182 0 -0.50000000669873634 0.8660253999169214 1 0 0 1 I I #
face $-1 $-1 $433 $59 $-1 $591 forward single #
loop $-1 $-1 $592 $274 #
plane-surface $-1 0 -24.517832025999038 0 0 1 0 0 0 1 forward_v I I I I #
coedge $-1 $593 $594 $595 $596 reversed $275 $-1 #
coedge $-1 $597 $277 $279 $431 forward $173 $-1 #
coedge $-1 $277 $597 $593 $598 forward $173 $-1 #
coedge $-1 $595 $280 $277 $428 forward $433 $-1 #
edge $-1 $435 -10.246370148999201 $599 -0.87402294133319813 $427 $600 forward 7 unknown #
coedge $-1 $601 $602 $278 $430 forward $422 $-1 #
edge $-1 $603 -34.807202512957964 $434 -30.400520318976476 $429 $604 forward 7 unknown #
edge $-1 $435 -8.8133642698861685 $603 4.0759410200229262e-015 $279 $605 forward 7 unknown #
coedge $-1 $280 $595 $601 $606 forward $433 $-1 #
loop $-1 $-1 $595 $421 #
vertex $-1 $430 $607 #
vertex $-1 $281 $608 #
straight-curve $-1 15.806566694165401 -32.778951689387121 5.8757646275387643 0 1 0 I I #
coedge $-1 $437 $437 $-1 $609 reversed $284 $-1 #
edge $-1 $610 0 $610 6.2831853071796004 $285 $611 forward 7 unknown #
vertex $-1 $288 $612 #
ellipse-curve $-1 9.1120329744039736 -20.7015333677782 3.6724235305480182 0 -0.50000000669873634 0.8660253999169214 1 0 0 1 I I #
coedge $-1 $441 $441 $-1 $613 reversed $291 $-1 #
edge $-1 $614 0 $614 6.2831853071796004 $292 $615 forward 7 unknown #
vertex $-1 $295 $616 #
ellipse-curve $-1 13.128753206260832 -20.7015333677782 3.6724235305480182 0 -0.50000000669873634 0.8660253999169214 1 0 0 1 I I #
face $-1 $-1 $457 $62 $-1 $617 forward single #
loop $-1 $-1 $618 $296 #
plane-surface $-1 0 -24.517832025999038 0 0 1 0 0 0 1 forward_v I I I I #
coedge $-1 $619 $620 $621 $622 reversed $297 $-1 #
coedge $-1 $623 $299 $301 $455 forward $187 $-1 #
coedge $-1 $299 $623 $619 $624 forward $187 $-1 #
coedge $-1 $621 $302 $299 $452 forward $457 $-1 #
edge $-1 $459 -18.104775133054321 $625 -8.7324279253883184 $451 $626 forward 7 unknown #
coedge $-1 $627 $628 $300 $454 forward $446 $-1 #
edge $-1 $629 -34.807202512957964 $458 -30.400520318976476 $453 $630 forward 7 unknown #
edge $-1 $459 -8.8133642698861685 $629 4.0759410200229262e-015 $301 $631 forward 7 unknown #
coedge $-1 $302 $621 $627 $632 forward $457 $-1 #
loop $-1 $-1 $621 $445 #
vertex $-1 $454 $633 #
vertex $-1 $303 $634 #
straight-curve $-1 31.523376662275641 -32.778951689387121 5.8757646275387643 0 1 0 I I #
coedge $-1 $461 $461 $-1 $635 reversed $306 $-1 #
edge $-1 $636 0 $636 6.2831853071796004 $307 $637 forward 7 unknown #
vertex $-1 $310 $638 #
ellipse-curve $-1 24.828842942514214 -20.7015333677782 3.6724235305480182 0 -0.50000000669873634 0.8660253999169214 1 0 0 1 I I #
coedge $-1 $465 $465 $-1 $639 reversed $313 $-1 #
edge $-1 $640 0 $640 6.2831853071796004 $314 $641 forward 7 unknown #
vertex $-1 $317 $642 #
ellipse-curve $-1 28.84556317437108 -20.7015333677782 3.6724235305480182 0 -0.50000000669873634 0.8660253999169214 1 0 0 1 I I #
face $-1 $-1 $643 $65 $-1 $644 reversed single #
loop $-1 $-1 $324 $318 #
plane-surface $-1 0 0 5.8757646275387634 0 0 1 1 0 0 forward_v I I I I #
coedge $-1 $645 $646 $647 $648 reversed $319 $-1 #
coedge $-1 $649 $321 $323 $479 forward $201 $-1 #
coedge $-1 $321 $649 $645 $650 forward $201 $-1 #
coedge $-1 $647 $324 $321 $476 forward $470 $-1 #
edge $-1 $482 -0.50750634581819654 $651 20.619488929406952 $475 $652 forward 7 unknown #
coedge $-1 $653 $654 $322 $478 forward $643 $-1 #
edge $-1 $655 -44.788010702399752 $481 -39.659820253069988 $477 $656 forward 7 unknown #
edge $-1 $482 42.341286930774892 $655 49.035664051998118 $323 $657 forward 7 unknown #
coedge $-1 $324 $647 $653 $658 forward $470 $-1 #
vertex $-1 $478 $659 #
vertex $-1 $325 $660 #
straight-curve $-1 9.5484849459761811 27.937676136328065 5.8757646275387643 0 -1 0 I I #
coedge $-1 $484 $484 $-1 $661 reversed $328 $-1 #
edge $-1 $662 0 $662 6.2831853071796004 $329 $663 forward 7 unknown #
vertex $-1 $332 $664 #
ellipse-curve $-1 15.584769310326216 22.36630072500898 3.3116694028738838 0 0.7660444514056185 0.64278759981090561 1 0 0 1 I I #
coedge $-1 $488 $488 $-1 $665 reversed $335 $-1 #
edge $-1 $666 0 $666 6.2831853071796004 $336 $667 forward 7 unknown #
vertex $-1 $339 $668 #
ellipse-curve $-1 24.639195856851273 22.36630072500898 3.3116694028738838 0 0.7660444514056185 0.64278759981090561 1 0 0 1 I I #
face $-1 $-1 $355 $51 $-1 $669 reversed single #
loop $-1 $-1 $507 $340 #
plane-surface $-1 0 24.517832025999038 0 0 -1 0 0 0 -1 forward_v I I I I #
coedge $-1 $505 $670 $343 $497 reversed $341 $-1 #
coedge $-1 $511 $343 $344 $499 reversed $215 $-1 #
edge $-1 $512 -5.8757646275387634 $671 5.8757646275387634 $495 $672 forward 7 unknown #
coedge $-1 $345 $344 $670 $673 forward $137 $-1 #
edge $-1 $503 -41.040070802941983 $671 41.040070802941983 $496 $674 forward 7 unknown #
coedge $-1 $508 $507 $345 $501 reversed $493 $-1 #
edge $-1 $675 -41.040070802941983 $502 41.040070802941983 $500 $676 forward 7 unknown #
vertex $-1 $347 $677 #
vertex $-1 $514 $678 #
straight-curve $-1 41.040070802941983 0 -5.8757646275387634 0 -1 0 I I #
coedge $-1 $679 $495 $348 $506 reversed $341 $-1 #
edge $-1 $509 -24.517832025999038 $512 24.517832025999038 $505 $680 forward 7 unknown #
coedge $-1 $500 $349 $354 $515 forward $493 $-1 #
coedge $-1 $349 $500 $679 $681 reversed $493 $-1 #
vertex $-1 $350 $682 #
straight-curve $-1 0 24.517832025999038 5.8757646275387634 -1 0 0 I I #
coedge $-1 $351 $496 $353 $514 reversed $215 $-1 #
vertex $-1 $506 $683 #
straight-curve $-1 0 -24.517832025999038 5.8757646275387634 1 0 0 I I #
edge $-1 $356 -5.8757646275387634 $503 5.8757646275387634 $353 $684 forward 7 unknown #
edge $-1 $357 -5.8757646275387634 $502 5.8757646275387634 $354 $685 forward 7 unknown #
point $-1 41.040070802941983 -24.517832025999038 5.8757646275387634 #
point $-1 41.040070802941983 24.517832025999038 5.8757646275387634 #
face $-1 $-1 $532 $52 $-1 $686 reversed single #
loop $-1 $-1 $528 $359 #
plane-surface $-1 0 0 -5.8757646275387634 0 0 1 1 0 0 forward_v I I I I #
coedge $-1 $687 $688 $522 $689 forward $360 $-1 #
coedge $-1 $363 $362 $521 $689 reversed $141 $-1 #
coedge $-1 $528 $690 $362 $524 forward $519 $-1 #
edge $-1 $691 -47.564047015496527 $526 -41.040070802941983 $362 $692 forward 7 unknown #
edge $-1 $370 -3.261988106277272 $693 3.261988106277272 $363 $694 forward 7 unknown #
vertex $-1 $364 $695 #
straight-curve $-1 -41.040070802941983 24.517832025999038 0 0 0 -1 I I #
coedge $-1 $696 $523 $365 $529 forward $519 $-1 #
edge $-1 $526 -24.517832025999038 $533 24.517832025999038 $528 $697 forward 7 unknown #
coedge $-1 $698 $366 $369 $536 reversed $532 $-1 #
coedge $-1 $366 $698 $696 $699 reversed $532 $-1 #
loop $-1 $-1 $366 $518 #
vertex $-1 $699 $700 #
straight-curve $-1 -41.040070802941983 -24.517832025999038 0 0 0 1 I I #
coedge $-1 $369 $368 $688 $701 forward $223 $-1 #
edge $-1 $702 -3.261988106277272 $371 3.261988106277272 $530 $703 forward 7 unknown #
point $-1 -41.040070802941983 24.517832025999038 -2.8757646275387634 #
point $-1 -41.040070802941983 -24.517832025999038 -2.8757646275387634 #
plane-surface $-1 0 0 5.8757646275387634 0 0 1 1 0 0 forward_v I I I I #
coedge $-1 $550 $549 $542 $704 forward $374 $-1 #
coedge $-1 $542 $376 $378 $546 reversed $231 $-1 #
coedge $-1 $376 $541 $540 $704 reversed $231 $-1 #
coedge $-1 $384 $379 $376 $544 forward $385 $-1 #
edge $-1 $547 -15.893716979829762 $705 -8.261119663388083 $543 $706 forward 7 unknown #
coedge $-1 $378 $377 $550 $707 reversed $145 $-1 #
edge $-1 $708 -4.0759410200229262e-015 $547 8.8133642698861685 $541 $709 forward 7 unknown #
vertex $-1 $380 $710 #
straight-curve $-1 -10.156613422944039 -16.885234709557359 5.8757646275387634 -1 0 0 I I #
coedge $-1 $540 $381 $384 $554 reversed $374 $-1 #
coedge $-1 $381 $540 $545 $707 forward $374 $-1 #
vertex $-1 $382 $711 #
straight-curve $-1 -15.627053242055077 -24.517832025999038 36.27628494651524 0 0 1 I I #
straight-curve $-1 -15.627053242055077 -24.517832025999034 1.4690824335572756 0 -0.8660253999169214 -0.50000000669873634 I I #
edge $-1 $705 -24.99940044972108 $386 -15.627053242055077 $549 $712 forward 7 unknown #
point $-1 -15.627053242055077 -24.517832025999038 5.8757646275387634 #
point $-1 -15.627053242055077 -16.885234709557359 5.8757646275387634 #
edge $-1 $713 1 $713 0 $389 $-1 forward 7 unknown #
vertex $-1 $390 $714 #
ellipse-curve $-1 -22.321586961816507 -19.128594109057158 0.94801286589040279 0 -0.50000000669873634 0.8660253999169214 1 0 0 1 I I #
point $-1 -21.321586961816507 -20.701533367778204 3.6724235305480208 #
edge $-1 $715 1 $715 0 $393 $-1 forward 7 unknown #
vertex $-1 $394 $716 #
ellipse-curve $-1 -18.304866729959649 -19.128594109057158 0.94801286589040279 0 -0.50000000669873634 0.8660253999169214 1 0 0 1 I I #
point $-1 -17.304866729959649 -20.701533367778204 3.6724235305480208 #
plane-surface $-1 0 0 5.8757646275387634 0 0 1 1 0 0 forward_v I I I I #
coedge $-1 $576 $575 $568 $717 forward $398 $-1 #
coedge $-1 $568 $400 $402 $572 reversed $253 $-1 #
coedge $-1 $400 $567 $566 $717 reversed $253 $-1 #
coedge $-1 $408 $403 $400 $570 forward $409 $-1 #
edge $-1 $573 -15.893716979829762 $718 -8.261119663388083 $569 $719 forward 7 unknown #
coedge $-1 $402 $401 $576 $720 reversed $159 $-1 #
edge $-1 $721 -4.0759410200229262e-015 $573 8.8133642698861685 $567 $722 forward 7 unknown #
vertex $-1 $404 $723 #
straight-curve $-1 -2.2982084388889206 -16.885234709557359 5.8757646275387634 -1 0 0 I I #
coedge $-1 $566 $405 $408 $580 reversed $398 $-1 #
coedge $-1 $405 $566 $571 $720 forward $398 $-1 #
vertex $-1 $406 $724 #
straight-curve $-1 0.089756726055160385 -24.517832025999038 36.27628494651524 0 0 1 I I #
straight-curve $-1 0.089756726055160385 -24.517832025999034 1.4690824335572756 0 -0.8660253999169214 -0.50000000669873634 I I #
edge $-1 $718 -9.2825904816108427 $410 0.089756726055160385 $575 $725 forward 7 unknown #
point $-1 0.089756726055160385 -24.517832025999038 5.8757646275387634 #
point $-1 0.089756726055160385 -16.885234709557359 5.8757646275387634 #
edge $-1 $726 1 $726 0 $413 $-1 forward 7 unknown #
vertex $-1 $414 $727 #
ellipse-curve $-1 -6.6047769937062668 -19.128594109057158 0.94801286589040279 0 -0.50000000669873634 0.8660253999169214 1 0 0 1 I I #
point $-1 -5.6047769937062668 -20.701533367778204 3.6724235305480208 #
edge $-1 $728 1 $728 0 $417 $-1 forward 7 unknown #
vertex $-1 $418 $729 #
ellipse-curve $-1 -2.5880567618494084 -19.128594109057158 0.94801286589040279 0 -0.50000000669873634 0.8660253999169214 1 0 0 1 I I #
point $-1 -1.5880567618494084 -20.701533367778204 3.6724235305480208 #
plane-surface $-1 0 0 5.8757646275387634 0 0 1 1 0 0 forward_v I I I I #
coedge $-1 $602 $601 $594 $730 forward $422 $-1 #
coedge $-1 $594 $424 $426 $598 reversed $275 $-1 #
coedge $-1 $424 $593 $592 $730 reversed $275 $-1 #
coedge $-1 $432 $427 $424 $596 forward $433 $-1 #
edge $-1 $599 -15.893716979829762 $731 -8.261119663388083 $595 $732 forward 7 unknown #
coedge $-1 $426 $425 $602 $733 reversed $173 $-1 #
edge $-1 $734 -4.0759410200229262e-015 $599 8.8133642698861685 $593 $735 forward 7 unknown #
vertex $-1 $428 $736 #
straight-curve $-1 5.5601965451661997 -16.885234709557359 5.8757646275387634 -1 0 0 I I #
coedge $-1 $592 $429 $432 $606 reversed $422 $-1 #
coedge $-1 $429 $592 $597 $733 forward $422 $-1 #
vertex $-1 $430 $737 #
straight-curve $-1 15.806566694165401 -24.517832025999038 36.27628494651524 0 0 1 I I #
straight-curve $-1 15.806566694165401 -24.517832025999034 1.4690824335572756 0 -0.8660253999169214 -0.50000000669873634 I I #
edge $-1 $731 6.4342194864993978 $434 15.806566694165401 $601 $738 forward 7 unknown #
point $-1 15.806566694165401 -24.517832025999038 5.8757646275387634 #
point $-1 15.806566694165401 -16.885234709557359 5.8757646275387634 #
edge $-1 $739 1 $739 0 $437 $-1 forward 7 unknown #
vertex $-1 $438 $740 #
ellipse-curve $-1 9.1120329744039736 -19.128594109057158 0.94801286589040279 0 -0.50000000669873634 0.8660253999169214 1 0 0 1 I I #
point $-1 10.112032974403974 -20.701533367778204 3.6724235305480208 #
edge $-1 $741 1 $741 0 $441 $-1 forward 7 unknown #
vertex $-1 $442 $742 #
ellipse-curve $-1 13.128753206260832 -19.128594109057158 0.94801286589040279 0 -0.50000000669873634 0.8660253999169214 1 0 0 1 I I #
point $-1 14.128753206260832 -20.701533367778204 3.6724235305480208 #
plane-surface $-1 0 0 5.8757646275387634 0 0 1 1 0 0 forward_v I I I I #
coedge $-1 $628 $627 $620 $743 forward $446 $-1 #
coedge $-1 $620 $448 $450 $624 reversed $297 $-1 #
coedge $-1 $448 $619 $618 $743 reversed $297 $-1 #
coedge $-1 $456 $451 $448 $622 forward $457 $-1 #
edge $-1 $625 -15.893716979829762 $744 -8.261119663388083 $621 $745 forward 7 unknown #
coedge $-1 $450 $449 $628 $746 reversed $187 $-1 #
edge $-1 $747 -4.0759410200229262e-015 $625 8.8133642698861685 $619 $748 forward 7 unknown #
vertex $-1 $452 $749 #
straight-curve $-1 13.41860152922132 -16.885234709557359 5.8757646275387634 -1 0 0 I I #
coedge $-1 $618 $453 $456 $632 reversed $446 $-1 #
coedge $-1 $453 $618 $623 $746 forward $446 $-1 #
vertex $-1 $454 $750 #
straight-curve $-1 31.523376662275641 -24.517832025999038 36.27628494651524 0 0 1 I I #
straight-curve $-1 31.523376662275641 -24.517832025999034 1.4690824335572756 0 -0.8660253999169214 -0.50000000669873634 I I #
edge $-1 $744 22.151029454609638 $458 31.523376662275641 $627 $751 forward 7 unknown #
point $-1 31.523376662275641 -24.517832025999038 5.8757646275387634 #
point $-1 31.523376662275641 -16.885234709557359 5.8757646275387634 #
edge $-1 $752 1 $752 0 $461 $-1 forward 7 unknown #
vertex $-1 $462 $753 #
ellipse-curve $-1 24.828842942514214 -19.128594109057158 0.94801286589040279 0 -0.50000000669873634 0.8660253999169214 1 0 0 1 I I #
point $-1 25.828842942514214 -20.701533367778204 3.6724235305480208 #
edge $-1 $754 1 $754 0 $465 $-1 forward 7 unknown #
vertex $-1 $466 $755 #
ellipse-curve $-1 28.84556317437108 -19.128594109057158 0.94801286589040279 0 -0.50000000669873634 0.8660253999169214 1 0 0 1 I I #
point $-1 29.84556317437108 -20.701533367778204 3.6724235305480208 #
loop $-1 $-1 $477 $469 #
plane-surface $-1 0 24.517832025999038 0 0 -1 0 0 0 -1 forward_v I I I I #
coedge $-1 $646 $472 $474 $650 reversed $319 $-1 #
coedge $-1 $472 $645 $756 $757 reversed $319 $-1 #
coedge $-1 $480 $475 $472 $648 forward $470 $-1 #
edge $-1 $651 -7.7229067123091433 $758 -3.4198441103290271 $647 $759 forward 7 unknown #
coedge $-1 $474 $473 $654 $760 reversed $201 $-1 #
edge $-1 $761 -49.035664051998118 $651 -42.341286930774892 $645 $762 forward 7 unknown #
vertex $-1 $476 $763 #
straight-curve $-1 10.055991291794378 20.214769424018922 5.8757646275387643 1 0 0 I I #
coedge $-1 $756 $477 $480 $658 reversed $643 $-1 #
coedge $-1 $477 $756 $649 $760 forward $643 $-1 #
vertex $-1 $478 $764 #
straight-curve $-1 9.5484849459761811 24.517832025999038 45.535584880608752 0 0 1 I I #
straight-curve $-1 9.5484849459761811 -7.0016847751187328 38.311072546232097 0 0.64278759981090561 -0.7660444514056185 I I #
edge $-1 $758 -30.67548022120133 $481 -9.5484849459761811 $653 $765 forward 7 unknown #
point $-1 9.5484849459761811 24.517832025999038 5.8757646275387634 #
point $-1 9.5484849459761811 20.214769424018922 5.8757646275387643 #
edge $-1 $766 1 $766 0 $484 $-1 forward 7 unknown #
vertex $-1 $485 $767 #
ellipse-curve $-1 15.584769310326216 21.153983421865899 2.2944144275696443 0 0.7660444514056185 0.64278759981090561 1 0 0 1 I I #
point $-1 16.584769310326216 22.366300725008994 3.3116694028738936 #
edge $-1 $768 1 $768 0 $488 $-1 forward 7 unknown #
vertex $-1 $489 $769 #
ellipse-curve $-1 24.639195856851273 21.153983421865899 2.2944144275696443 0 0.7660444514056185 0.64278759981090561 1 0 0 1 I I #
point $-1 25.639195856851273 22.366300725008994 3.3116694028738936 #
plane-surface $-1 41.040070802941983 0 0 -1 0 0 0 0 1 forward_v I I I I #
coedge $-1 $495 $679 $498 $673 reversed $341 $-1 #
vertex $-1 $673 $770 #
straight-curve $-1 -41.040070802941983 -24.517832025999038 0 0 0 -1 I I #
edge $-1 $671 -24.517832025999038 $675 24.517832025999038 $670 $771 forward 7 unknown #
straight-curve $-1 0 -24.517832025999038 -5.8757646275387634 -1 0 0 I I #
vertex $-1 $501 $772 #
straight-curve $-1 0 24.517832025999038 -5.8757646275387634 1 0 0 I I #
point $-1 41.040070802941983 24.517832025999038 -5.8757646275387634 #
point $-1 41.040070802941983 -24.517832025999038 -5.8757646275387634 #
coedge $-1 $670 $505 $508 $681 forward $341 $-1 #
straight-curve $-1 -41.040070802941983 0 5.8757646275387634 0 -1 0 I I #
edge $-1 $509 -5.8757646275387634 $675 5.8757646275387634 $508 $773 forward 7 unknown #
point $-1 -41.040070802941983 24.517832025999038 5.8757646275387634 #
point $-1 -41.040070802941983 -24.517832025999038 5.8757646275387634 #
straight-curve $-1 41.040070802941983 -24.517832025999038 0 0 0 -1 I I #
straight-curve $-1 41.040070802941983 24.517832025999038 0 0 0 -1 I I #
plane-surface $-1 0 -24.517832025999038 0 0 1 0 0 0 1 forward_v I I I I #
coedge $-1 $774 $521 $690 $775 reversed $360 $-1 #
coedge $-1 $521 $774 $535 $701 reversed $360 $-1 #
edge $-1 $693 -1.5 $691 1.5 $522 $776 forward 7 unknown #
coedge $-1 $523 $696 $687 $775 forward $519 $-1 #
vertex $-1 $524 $777 #
straight-curve $-1 0 24.517832025999038 -5.8757646275387634 1 0 0 I I #
vertex $-1 $525 $778 #
straight-curve $-1 -44.302058909219255 24.517832025999038 -2.8757646275387634 -1 0 0 I I #
point $-1 -41.040070802941983 24.517832025999038 -5.8757646275387634 #
coedge $-1 $690 $528 $531 $699 forward $519 $-1 #
straight-curve $-1 -41.040070802941983 0 -5.8757646275387634 0 -1 0 I I #
coedge $-1 $531 $530 $774 $779 forward $532 $-1 #
edge $-1 $533 -3.261988106277272 $780 3.261988106277272 $531 $781 forward 7 unknown #
point $-1 -41.040070802941983 -24.517832025999038 -5.8757646275387634 #
edge $-1 $693 -24.517832025999038 $702 24.517832025999038 $688 $782 forward 7 unknown #
vertex $-1 $701 $783 #
straight-curve $-1 -44.302058909219255 -24.517832025999038 -2.8757646275387634 1 0 0 I I #
edge $-1 $705 30.400520318976476 $708 34.807202512957964 $540 $784 forward 7 unknown #
vertex $-1 $554 $785 #
straight-curve $-1 -24.99940044972108 -32.778951689387121 5.8757646275387643 0 -1 0 I I #
edge $-1 $708 -14.842787026777041 $551 -5.4704398191110375 $550 $786 forward 7 unknown #
vertex $-1 $707 $787 #
straight-curve $-1 -24.99940044972108 -24.517832025999034 1.4690824335572756 0 0.8660253999169214 0.50000000669873634 I I #
point $-1 -24.99940044972108 -16.885234709557359 5.8757646275387634 #
point $-1 -15.627053242055077 -24.517832025999038 1.4690824335572736 #
straight-curve $-1 0 -24.517832025999038 5.8757646275387634 1 0 0 I I #
vertex $-1 $557 $788 #
point $-1 -21.321586961816507 -19.128594109057158 0.94801286589040279 #
vertex $-1 $561 $789 #
point $-1 -17.304866729959649 -19.128594109057158 0.94801286589040279 #
edge $-1 $718 30.400520318976476 $721 34.807202512957964 $566 $790 forward 7 unknown #
vertex $-1 $580 $791 #
straight-curve $-1 -9.2825904816108427 -32.778951689387121 5.8757646275387643 0 -1 0 I I #
edge $-1 $721 -6.9843820427219221 $577 2.387965164944081 $576 $792 forward 7 unknown #
vertex $-1 $720 $793 #
straight-curve $-1 -9.2825904816108427 -24.517832025999034 1.4690824335572756 0 0.8660253999169214 0.50000000669873634 I I #
point $-1 -9.2825904816108427 -16.885234709557359 5.8757646275387634 #
point $-1 0.089756726055160385 -24.517832025999038 1.4690824335572736 #
straight-curve $-1 0 -24.517832025999038 5.8757646275387634 1 0 0 I I #
vertex $-1 $583 $794 #
point $-1 -5.6047769937062668 -19.128594109057158 0.94801286589040279 #
vertex $-1 $587 $795 #
point $-1 -1.5880567618494084 -19.128594109057158 0.94801286589040279 #
edge $-1 $731 30.400520318976476 $734 34.807202512957964 $592 $796 forward 7 unknown #
vertex $-1 $606 $797 #
straight-curve $-1 6.4342194864993978 -32.778951689387121 5.8757646275387643 0 -1 0 I I #
edge $-1 $734 0.87402294133319813 $603 10.246370148999201 $602 $798 forward 7 unknown #
vertex $-1 $733 $799 #
straight-curve $-1 6.4342194864993978 -24.517832025999034 1.4690824335572756 0 0.8660253999169214 0.50000000669873634 I I #
point $-1 6.4342194864993978 -16.885234709557359 5.8757646275387634 #
point $-1 15.806566694165401 -24.517832025999038 1.4690824335572736 #
straight-curve $-1 0 -24.517832025999038 5.8757646275387634 1 0 0 I I #
vertex $-1 $609 $800 #
point $-1 10.112032974403974 -19.128594109057158 0.94801286589040279 #
vertex $-1 $613 $801 #
point $-1 14.128753206260832 -19.128594109057158 0.94801286589040279 #
edge $-1 $744 30.400520318976476 $747 34.807202512957964 $618 $802 forward 7 unknown #
vertex $-1 $632 $803 #
straight-curve $-1 22.151029454609638 -32.778951689387121 5.8757646275387643 0 -1 0 I I #
edge $-1 $747 8.7324279253883184 $629 18.104775133054321 $628 $804 forward 7 unknown #
vertex $-1 $746 $805 #
straight-curve $-1 22.151029454609638 -24.517832025999034 1.4690824335572756 0 0.8660253999169214 0.50000000669873634 I I #
point $-1 22.151029454609638 -16.885234709557359 5.8757646275387634 #
point $-1 31.523376662275641 -24.517832025999038 1.4690824335572736 #
straight-curve $-1 0 -24.517832025999038 5.8757646275387634 1 0 0 I I #
vertex $-1 $635 $806 #
point $-1 25.828842942514214 -19.128594109057158 0.94801286589040279 #
vertex $-1 $639 $807 #
point $-1 29.84556317437108 -19.128594109057158 0.94801286589040279 #
coedge $-1 $654 $653 $646 $757 forward $643 $-1 #
edge $-1 $758 39.659820253069988 $761 44.788010702399752 $756 $808 forward 7 unknown #
vertex $-1 $658 $809 #
straight-curve $-1 30.67548022120133 27.937676136328065 5.8757646275387643 0 1 0 I I #
edge $-1 $761 -20.619488929406952 $655 0.50750634581819654 $654 $810 forward 7 unknown #
vertex $-1 $760 $811 #
straight-curve $-1 30.67548022120133 -7.0016847751187328 38.311072546232097 0 -0.64278759981090561 0.7660444514056185 I I #
point $-1 30.67548022120133 20.214769424018922 5.8757646275387643 #
point $-1 9.5484849459761811 24.517832025999034 0.74757417820899974 #
straight-curve $-1 0 24.517832025999038 5.8757646275387634 -1 0 0 I I #
vertex $-1 $661 $812 #
point $-1 16.584769310326216 21.153983421865899 2.2944144275696443 #
vertex $-1 $665 $813 #
point $-1 25.639195856851273 21.153983421865899 2.2944144275696443 #
point $-1 -41.040070802941983 -24.517832025999038 -5.8757646275387634 #
straight-curve $-1 -41.040070802941983 0 -5.8757646275387634 0 1 0 I I #
point $-1 -41.040070802941983 24.517832025999038 -5.8757646275387634 #
straight-curve $-1 -41.040070802941983 24.517832025999038 0 0 0 -1 I I #
coedge $-1 $688 $687 $698 $779 reversed $360 $-1 #
edge $-1 $780 -24.517832025999038 $691 24.517832025999038 $687 $814 forward 7 unknown #
straight-curve $-1 -47.564047015496527 24.517832025999038 -4.3757646275387634 0 0 -1 I I #
point $-1 -47.564047015496527 24.517832025999038 -5.8757646275387634 #
point $-1 -47.564047015496527 24.517832025999038 -2.8757646275387634 #
edge $-1 $702 -1.5 $780 1.5 $774 $815 forward 7 unknown #
vertex $-1 $775 $816 #
straight-curve $-1 -44.302058909219255 -24.517832025999038 -5.8757646275387634 -1 0 0 I I #
straight-curve $-1 -47.564047015496527 0 -2.8757646275387634 0 -1 0 I I #
point $-1 -47.564047015496527 -24.517832025999038 -2.8757646275387634 #
straight-curve $-1 -24.99940044972108 -24.517832025999038 36.27628494651524 0 0 -1 I I #
point $-1 -24.99940044972108 -24.517832025999038 5.8757646275387634 #
straight-curve $-1 -10.156613422944039 -24.517832025999038 1.4690824335572716 1 0 0 I I #
point $-1 -24.99940044972108 -24.517832025999038 1.4690824335572736 #
point $-1 -22.321586961816507 -18.628594102358424 0.081987465973482221 #
point $-1 -18.304866729959649 -18.628594102358424 0.081987465973482221 #
straight-curve $-1 -9.2825904816108427 -24.517832025999038 36.27628494651524 0 0 -1 I I #
point $-1 -9.2825904816108427 -24.517832025999038 5.8757646275387634 #
straight-curve $-1 -2.2982084388889206 -24.517832025999038 1.4690824335572716 1 0 0 I I #
point $-1 -9.2825904816108427 -24.517832025999038 1.4690824335572736 #
point $-1 -6.6047769937062668 -18.628594102358424 0.081987465973482221 #
point $-1 -2.5880567618494084 -18.628594102358424 0.081987465973482221 #
straight-curve $-1 6.4342194864993978 -24.517832025999038 36.27628494651524 0 0 -1 I I #
point $-1 6.4342194864993978 -24.517832025999038 5.8757646275387634 #
straight-curve $-1 5.5601965451661997 -24.517832025999038 1.4690824335572716 1 0 0 I I #
point $-1 6.4342194864993978 -24.517832025999038 1.4690824335572736 #
point $-1 9.1120329744039736 -18.628594102358424 0.081987465973482221 #
point $-1 13.128753206260832 -18.628594102358424 0.081987465973482221 #
straight-curve $-1 22.151029454609638 -24.517832025999038 36.27628494651524 0 0 -1 I I #
point $-1 22.151029454609638 -24.517832025999038 5.8757646275387634 #
straight-curve $-1 13.41860152922132 -24.517832025999038 1.4690824335572716 1 0 0 I I #
point $-1 22.151029454609638 -24.517832025999038 1.4690824335572736 #
point $-1 24.828842942514214 -18.628594102358424 0.081987465973482221 #
point $-1 28.84556317437108 -18.628594102358424 0.081987465973482221 #
straight-curve $-1 30.67548022120133 24.517832025999038 45.535584880608752 0 0 -1 I I #
point $-1 30.67548022120133 24.517832025999038 5.8757646275387634 #
straight-curve $-1 10.055991291794378 24.517832025999038 0.74757417820899619 -1 0 0 I I #
point $-1 30.67548022120133 24.517832025999034 0.74757417820899974 #
point $-1 15.584769310326216 20.387938970460279 1.6516268277587389 #
point $-1 24.639195856851273 20.387938970460279 1.6516268277587389 #
straight-curve $-1 -47.564047015496527 0 -5.8757646275387634 0 1 0 I I #
straight-curve $-1 -47.564047015496527 -24.517832025999038 -4.3757646275387634 0 0 -1 I I #
point $-1 -47.564047015496527 -24.517832025999038 -5.8757646275387634 #
End-of-ACIS-data 