500 0 11 0           
7 Unknown 11 ACIS 5.0 NT 24 Fri Mar 26 17:33:42 1999 
-1 9.9999999999999995e-007 1e-010 
body $-1 $11 $-1 $12 #
body $-1 $13 $-1 $14 #
body $-1 $15 $-1 $16 #
body $-1 $17 $-1 $18 #
body $-1 $19 $-1 $20 #
body $-1 $21 $-1 $22 #
body $-1 $23 $-1 $24 #
body $-1 $25 $-1 $26 #
body $-1 $27 $-1 $28 #
body $-1 $29 $-1 $30 #
body $-1 $31 $-1 $32 #
lump $-1 $-1 $33 $0 #
transform $-1 1 0 0 0 1 0 0 0 1 62.11127048554949 32.808065113189812 11.18680226742293 1 rotate no_reflect no_shear #
lump $-1 $-1 $34 $1 #
transform $-1 1 0 0 0 1 0 0 0 1 62.11127048554949 32.808065113189812 11.18680226742293 1 rotate no_reflect no_shear #
lump $-1 $-1 $35 $2 #
transform $-1 1 0 0 0 1 0 0 0 1 62.11127048554949 32.808065113189812 11.18680226742293 1 rotate no_reflect no_shear #
lump $-1 $-1 $36 $3 #
transform $-1 1 0 0 0 1 0 0 0 1 62.11127048554949 32.808065113189812 11.18680226742293 1 rotate no_reflect no_shear #
lump $-1 $-1 $37 $4 #
transform $-1 1 0 0 0 1 0 0 0 1 62.11127048554949 32.808065113189812 11.18680226742293 1 rotate no_reflect no_shear #
lump $-1 $-1 $38 $5 #
transform $-1 1 0 0 0 1 0 0 0 1 62.11127048554949 32.808065113189812 11.18680226742293 1 rotate no_reflect no_shear #
lump $-1 $-1 $39 $6 #
transform $-1 1 0 0 0 1 0 0 0 1 62.11127048554949 32.808065113189812 11.18680226742293 1 rotate no_reflect no_shear #
lump $-1 $-1 $40 $7 #
transform $-1 1 0 0 0 1 0 0 0 1 62.11127048554949 32.808065113189812 11.18680226742293 1 rotate no_reflect no_shear #
lump $-1 $-1 $41 $8 #
transform $-1 1 0 0 0 1 0 0 0 1 62.11127048554949 32.808065113189812 11.18680226742293 1 rotate no_reflect no_shear #
lump $-1 $-1 $42 $9 #
transform $-1 1 0 0 0 1 0 0 0 1 62.11127048554949 32.808065113189812 11.18680226742293 1 rotate no_reflect no_shear #
lump $-1 $-1 $43 $10 #
transform $-1 1 0 0 0 1 0 0 0 1 62.11127048554949 32.808065113189812 11.18680226742293 1 rotate no_reflect no_shear #
shell $-1 $-1 $-1 $44 $-1 $11 #
shell $-1 $-1 $-1 $45 $-1 $13 #
shell $-1 $-1 $-1 $46 $-1 $15 #
shell $-1 $-1 $-1 $47 $-1 $17 #
shell $-1 $-1 $-1 $48 $-1 $19 #
shell $-1 $-1 $-1 $49 $-1 $21 #
shell $-1 $-1 $-1 $50 $-1 $23 #
shell $-1 $-1 $-1 $51 $-1 $25 #
shell $-1 $-1 $-1 $52 $-1 $27 #
shell $-1 $-1 $-1 $53 $-1 $29 #
shell $-1 $-1 $-1 $54 $-1 $31 #
face $-1 $55 $56 $33 $-1 $57 forward single #
face $-1 $58 $59 $34 $-1 $60 forward single #
face $-1 $61 $62 $35 $-1 $63 reversed single #
face $-1 $64 $65 $36 $-1 $66 forward single #
face $-1 $67 $68 $37 $-1 $69 forward single #
face $-1 $70 $71 $38 $-1 $72 reversed single #
face $-1 $73 $74 $39 $-1 $75 forward single #
face $-1 $76 $77 $40 $-1 $78 forward single #
face $-1 $79 $80 $41 $-1 $81 reversed single #
face $-1 $82 $83 $42 $-1 $84 forward single #
face $-1 $85 $86 $43 $-1 $87 forward single #
face $-1 $88 $89 $33 $-1 $90 reversed single #
loop $-1 $-1 $91 $44 #
plane-surface $-1 0 0 11.18680226742293 0 0 1 1 0 0 forward_v I I I I #
face $-1 $92 $93 $34 $-1 $94 reversed single #
loop $-1 $-1 $95 $45 #
plane-surface $-1 0 -32.808065113189812 0 0 1 0 0 0 1 forward_v I I I I #
face $-1 $96 $97 $35 $-1 $98 reversed single #
loop $-1 $-1 $99 $46 #
plane-surface $-1 59.045282543803516 0.51967401508348132 176.42222930871137 0 -1 0 -0.69465837861970381 0 -0.71933979245794832 forward_v I I I I #
face $-1 $100 $101 $36 $-1 $102 forward single #
loop $-1 $103 $104 $47 #
cone-surface $-1 56.223734157903827 -3.772287316876124 5.4667026704095516 -0.69465837861970381 0 -0.71933979245794832 0.35966989622897416 0 -0.3473291893098519 1 I I 0 1 0.5 forward I I I I #
face $-1 $105 $106 $37 $-1 $107 forward single #
loop $-1 $108 $109 $48 #
cone-surface $-1 56.223734157903827 -1.1971105177003594 5.4667026704095516 -0.69465837861970381 0 -0.71933979245794832 0.35966989622897416 0 -0.3473291893098519 1 I I 0 1 0.5 forward I I I I #
face $-1 $110 $111 $38 $-1 $112 reversed single #
loop $-1 $-1 $113 $49 #
plane-surface $-1 59.045282543803516 26.848461517511467 176.42222930871137 0 -1 0 -0.69465837861970381 0 -0.71933979245794832 forward_v I I I I #
face $-1 $114 $115 $39 $-1 $116 forward single #
loop $-1 $117 $118 $50 #
cone-surface $-1 56.223734157903827 22.556500185551869 5.4667026704095516 -0.69465837861970381 0 -0.71933979245794832 0.35966989622897416 0 -0.3473291893098519 1 I I 0 1 0.5 forward I I I I #
face $-1 $119 $120 $40 $-1 $121 forward single #
loop $-1 $122 $123 $51 #
cone-surface $-1 56.223734157903827 25.131676984727633 5.4667026704095516 -0.69465837861970381 0 -0.71933979245794832 0.35966989622897416 0 -0.3473291893098519 1 I I 0 1 0.5 forward I I I I #
face $-1 $124 $125 $41 $-1 $126 reversed single #
loop $-1 $-1 $127 $52 #
plane-surface $-1 -157.27125873596697 -1.7041696911681363 83.185192533630669 0 1 0 -0.7660444514056185 0 0.64278759981090561 forward_v I I I I #
face $-1 $128 $129 $42 $-1 $130 forward single #
loop $-1 $131 $132 $53 #
cone-surface $-1 -56.932881645515344 1.6522138830986748 5.6801170689215184 0.7660444514056185 0 -0.64278759981090561 0.96418139971635841 0 1.1490666771084277 1 I I 0 1 1.5 forward I I I I #
face $-1 $133 $134 $43 $-1 $135 forward single #
loop $-1 $136 $137 $54 #
cone-surface $-1 -56.932881645515344 6.6867892444988968 5.6801170689215184 0.7660444514056185 0 -0.64278759981090561 0.96418139971635841 0 1.1490666771084277 1 I I 0 1 1.5 forward I I I I #
face $-1 $138 $139 $33 $-1 $140 reversed single #
loop $-1 $-1 $141 $55 #
plane-surface $-1 0 0 -11.18680226742293 0 0 1 1 0 0 forward_v I I I I #
coedge $-1 $142 $143 $144 $145 forward $56 $-1 #
face $-1 $146 $147 $34 $-1 $148 forward single #
loop $-1 $-1 $149 $58 #
plane-surface $-1 -62.11127048554949 0 0 1 0 0 0 0 -1 forward_v I I I I #
coedge $-1 $150 $151 $152 $153 forward $59 $-1 #
face $-1 $154 $155 $35 $-1 $156 reversed single #
loop $-1 $-1 $157 $61 #
plane-surface $-1 -27.246946355199832 -2.4846989172882417 87.064012467962044 0.69465837861970381 0 0.71933979245794832 0.71933979245794832 0 -0.69465837861970381 forward_v I I I I #
coedge $-1 $158 $159 $160 $161 reversed $62 $-1 #
face $-1 $-1 $162 $36 $-1 $163 forward single #
loop $-1 $164 $165 $64 #
cone-surface $-1 55.555066903652779 -3.772287316876124 4.7742774745137986 -0.69465837861970381 0 -0.71933979245794832 0.17983494811448708 0 -0.17366459465492595 1 I I -0.70710678118654746 0.70710678118654746 0.25 forward I I I I #
loop $-1 $-1 $166 $47 #
coedge $-1 $104 $104 $167 $168 reversed $65 $-1 #
face $-1 $-1 $169 $37 $-1 $170 forward single #
loop $-1 $171 $172 $67 #
cone-surface $-1 55.555066903652779 -1.1971105177003594 4.7742774745137986 -0.69465837861970381 0 -0.71933979245794832 0.17983494811448708 0 -0.17366459465492595 1 I I -0.70710678118654746 0.70710678118654746 0.25 forward I I I I #
loop $-1 $-1 $173 $48 #
coedge $-1 $109 $109 $174 $175 reversed $68 $-1 #
face $-1 $176 $177 $38 $-1 $178 reversed single #
loop $-1 $-1 $179 $70 #
plane-surface $-1 -27.246946355199832 23.844088585139744 87.064012467962044 0.69465837861970381 0 0.71933979245794832 0.71933979245794832 0 -0.69465837861970381 forward_v I I I I #
coedge $-1 $180 $181 $182 $183 reversed $71 $-1 #
face $-1 $-1 $184 $39 $-1 $185 forward single #
loop $-1 $186 $187 $73 #
cone-surface $-1 55.555066903652779 22.556500185551869 4.7742774745137986 -0.69465837861970381 0 -0.71933979245794832 0.17983494811448708 0 -0.17366459465492595 1 I I -0.70710678118654746 0.70710678118654746 0.25 forward I I I I #
loop $-1 $-1 $188 $50 #
coedge $-1 $118 $118 $189 $190 reversed $74 $-1 #
face $-1 $-1 $191 $40 $-1 $192 forward single #
loop $-1 $193 $194 $76 #
cone-surface $-1 55.555066903652779 25.131676984727633 4.7742774745137986 -0.69465837861970381 0 -0.71933979245794832 0.17983494811448708 0 -0.17366459465492595 1 I I -0.70710678118654746 0.70710678118654746 0.25 forward I I I I #
loop $-1 $-1 $195 $51 #
coedge $-1 $123 $123 $196 $197 reversed $77 $-1 #
face $-1 $198 $199 $41 $-1 $200 reversed single #
loop $-1 $-1 $201 $79 #
plane-surface $-1 -62.111270485549497 4.1695015637987893 3.3364835804060817 -0.7660444514056185 0 0.64278759981090561 0.64278759981090561 0 0.7660444514056185 forward_v I I I I #
coedge $-1 $202 $203 $204 $205 reversed $80 $-1 #
face $-1 $-1 $206 $42 $-1 $207 forward single #
loop $-1 $208 $209 $82 #
cone-surface $-1 -54.47355913814657 1.6522138830986748 3.6165005140703546 0.7660444514056185 0 -0.64278759981090561 0.48209069985817921 0 0.57453333855421385 1 I I -0.70710678118654757 0.70710678118654757 0.75 forward I I I I #
loop $-1 $-1 $210 $53 #
coedge $-1 $132 $132 $211 $212 reversed $83 $-1 #
face $-1 $-1 $213 $43 $-1 $214 forward single #
loop $-1 $215 $216 $85 #
cone-surface $-1 -54.47355913814657 6.6867892444988968 3.6165005140703546 0.7660444514056185 0 -0.64278759981090561 0.48209069985817921 0 0.57453333855421385 1 I I -0.70710678118654757 0.70710678118654757 0.75 forward I I I I #
loop $-1 $-1 $217 $54 #
coedge $-1 $137 $137 $218 $219 reversed $86 $-1 #
face $-1 $220 $221 $33 $-1 $222 reversed single #
loop $-1 $-1 $223 $88 #
plane-surface $-1 0 -32.808065113189812 0 0 1 0 0 0 1 forward_v I I I I #
coedge $-1 $224 $225 $226 $227 forward $89 $-1 #
coedge $-1 $228 $91 $229 $230 forward $56 $-1 #
coedge $-1 $91 $228 $231 $232 forward $56 $-1 #
coedge $-1 $233 $234 $91 $145 reversed $235 $-1 #
edge $-1 $236 -32.808065113189812 $237 32.808065113189812 $144 $238 forward 7 unknown #
face $-1 $239 $240 $34 $-1 $241 reversed single #
loop $-1 $-1 $242 $92 #
plane-surface $-1 0 -39.287342723951632 9.4496543483164537 0 0 1 1 0 0 forward_v I I I I #
coedge $-1 $243 $244 $151 $245 forward $93 $-1 #
coedge $-1 $246 $95 $247 $248 reversed $59 $-1 #
coedge $-1 $95 $246 $149 $245 reversed $59 $-1 #
coedge $-1 $249 $242 $95 $153 reversed $147 $-1 #
edge $-1 $250 -62.11127048554949 $251 62.11127048554949 $152 $252 forward 7 unknown #
face $-1 $253 $254 $35 $-1 $255 reversed single #
loop $-1 $-1 $256 $96 #
plane-surface $-1 59.045282543803516 -5.4890718496599646 176.42222930871137 0 1 0 0.69465837861970381 0 0.71933979245794832 forward_v I I I I #
coedge $-1 $257 $258 $259 $260 reversed $97 $-1 #
coedge $-1 $159 $99 $261 $262 reversed $62 $-1 #
coedge $-1 $99 $158 $257 $263 reversed $62 $-1 #
coedge $-1 $259 $264 $99 $161 forward $265 $-1 #
edge $-1 $266 -32.588629213647735 $267 -21.803561877548656 $160 $268 forward 7 unknown #
loop $-1 $-1 $167 $100 #
plane-surface $-1 -27.246946355199832 -2.4846989172882417 87.064012467962044 0.69465837861970381 0 0.71933979245794832 0.71933979245794832 0 -0.69465837861970381 forward_v I I I I #
loop $-1 $-1 $269 $64 #
coedge $-1 $165 $165 $166 $270 reversed $101 $-1 #
coedge $-1 $166 $166 $165 $270 forward $103 $-1 #
coedge $-1 $167 $167 $104 $168 forward $162 $-1 #
edge $-1 $271 0 $271 6.2831853071796004 $167 $272 forward 7 unknown #
loop $-1 $-1 $174 $105 #
plane-surface $-1 -27.246946355199832 -2.4846989172882417 87.064012467962044 0.69465837861970381 0 0.71933979245794832 0.71933979245794832 0 -0.69465837861970381 forward_v I I I I #
loop $-1 $-1 $273 $67 #
coedge $-1 $172 $172 $173 $274 reversed $106 $-1 #
coedge $-1 $173 $173 $172 $274 forward $108 $-1 #
coedge $-1 $174 $174 $109 $175 forward $169 $-1 #
edge $-1 $275 0 $275 6.2831853071796004 $174 $276 forward 7 unknown #
face $-1 $277 $278 $38 $-1 $279 reversed single #
loop $-1 $-1 $280 $110 #
plane-surface $-1 59.045282543803516 20.839715652768021 176.42222930871137 0 1 0 0.69465837861970381 0 0.71933979245794832 forward_v I I I I #
coedge $-1 $281 $282 $283 $284 reversed $111 $-1 #
coedge $-1 $181 $113 $285 $286 reversed $71 $-1 #
coedge $-1 $113 $180 $281 $287 reversed $71 $-1 #
coedge $-1 $283 $288 $113 $183 forward $289 $-1 #
edge $-1 $290 -32.588629213647735 $291 -21.803561877548656 $182 $292 forward 7 unknown #
loop $-1 $-1 $189 $114 #
plane-surface $-1 -27.246946355199832 23.844088585139744 87.064012467962044 0.69465837861970381 0 0.71933979245794832 0.71933979245794832 0 -0.69465837861970381 forward_v I I I I #
loop $-1 $-1 $293 $73 #
coedge $-1 $187 $187 $188 $294 reversed $115 $-1 #
coedge $-1 $188 $188 $187 $294 forward $117 $-1 #
coedge $-1 $189 $189 $118 $190 forward $184 $-1 #
edge $-1 $295 0 $295 6.2831853071796004 $189 $296 forward 7 unknown #
loop $-1 $-1 $196 $119 #
plane-surface $-1 -27.246946355199832 23.844088585139744 87.064012467962044 0.69465837861970381 0 0.71933979245794832 0.71933979245794832 0 -0.69465837861970381 forward_v I I I I #
loop $-1 $-1 $297 $76 #
coedge $-1 $194 $194 $195 $298 reversed $120 $-1 #
coedge $-1 $195 $195 $194 $298 forward $122 $-1 #
coedge $-1 $196 $196 $123 $197 forward $191 $-1 #
edge $-1 $299 0 $299 6.2831853071796004 $196 $300 forward 7 unknown #
face $-1 $301 $302 $41 $-1 $303 forward single #
loop $-1 $-1 $304 $124 #
plane-surface $-1 -157.27125873596697 10.043172818765715 83.185192533630669 0 -1 0 0.7660444514056185 0 -0.64278759981090561 forward_v I I I I #
coedge $-1 $305 $306 $307 $308 reversed $125 $-1 #
coedge $-1 $203 $127 $309 $310 reversed $80 $-1 #
coedge $-1 $127 $202 $305 $311 reversed $80 $-1 #
coedge $-1 $307 $312 $127 $205 forward $302 $-1 #
edge $-1 $313 16.524358882433994 $314 23.11155822487315 $204 $315 forward 7 unknown #
loop $-1 $-1 $211 $128 #
plane-surface $-1 -62.111270485549497 4.1695015637987893 3.3364835804060817 -0.7660444514056185 0 0.64278759981090561 0.64278759981090561 0 0.7660444514056185 forward_v I I I I #
loop $-1 $-1 $316 $82 #
coedge $-1 $209 $209 $210 $317 reversed $129 $-1 #
coedge $-1 $210 $210 $209 $317 forward $131 $-1 #
coedge $-1 $211 $211 $132 $212 forward $206 $-1 #
edge $-1 $318 0 $318 6.2831853071796004 $211 $319 forward 7 unknown #
loop $-1 $-1 $218 $133 #
plane-surface $-1 -62.111270485549497 4.1695015637987893 3.3364835804060817 -0.7660444514056185 0 0.64278759981090561 0.64278759981090561 0 0.7660444514056185 forward_v I I I I #
loop $-1 $-1 $320 $85 #
coedge $-1 $216 $216 $217 $321 reversed $134 $-1 #
coedge $-1 $217 $217 $216 $321 forward $136 $-1 #
coedge $-1 $218 $218 $137 $219 forward $213 $-1 #
edge $-1 $322 0 $322 6.2831853071796004 $218 $323 forward 7 unknown #
face $-1 $324 $325 $33 $-1 $326 reversed single #
loop $-1 $-1 $327 $138 #
plane-surface $-1 -62.11127048554949 0 0 1 0 0 0 0 -1 forward_v I I I I #
coedge $-1 $328 $231 $329 $330 forward $139 $-1 #
coedge $-1 $331 $141 $328 $332 forward $89 $-1 #
coedge $-1 $141 $331 $333 $334 forward $89 $-1 #
coedge $-1 $234 $233 $141 $227 reversed $235 $-1 #
edge $-1 $335 -32.808065113189812 $336 32.808065113189812 $226 $337 forward 7 unknown #
coedge $-1 $143 $142 $338 $339 forward $56 $-1 #
coedge $-1 $340 $341 $142 $230 reversed $325 $-1 #
edge $-1 $237 -62.11127048554949 $342 62.11127048554949 $229 $343 forward 7 unknown #
coedge $-1 $223 $344 $143 $232 reversed $139 $-1 #
edge $-1 $345 -62.11127048554949 $236 62.11127048554949 $231 $346 forward 7 unknown #
coedge $-1 $226 $144 $344 $347 forward $235 $-1 #
coedge $-1 $144 $226 $340 $348 reversed $235 $-1 #
loop $-1 $-1 $233 $324 #
vertex $-1 $145 $349 #
vertex $-1 $145 $350 #
straight-curve $-1 62.11127048554949 0 11.18680226742293 0 1 0 I I #
face $-1 $351 $352 $34 $-1 $353 reversed single #
loop $-1 $-1 $354 $146 #
plane-surface $-1 0 -39.287342723951632 4.6334606294366294 0 0 1 1 0 0 forward_v I I I I #
coedge $-1 $152 $355 $356 $357 forward $147 $-1 #
coedge $-1 $358 $149 $359 $360 reversed $93 $-1 #
coedge $-1 $149 $358 $249 $361 reversed $93 $-1 #
edge $-1 $250 -9.4496543483164537 $362 -4.6334606294366294 $149 $363 forward 7 unknown #
coedge $-1 $151 $150 $364 $365 forward $59 $-1 #
coedge $-1 $356 $366 $150 $248 forward $367 $-1 #
edge $-1 $368 4.6334606294366294 $251 9.4496543483164537 $247 $369 forward 7 unknown #
coedge $-1 $355 $152 $244 $361 forward $147 $-1 #
vertex $-1 $245 $370 #
vertex $-1 $357 $371 #
straight-curve $-1 0 -32.808065113189812 9.4496543483164537 1 0 0 I I #
face $-1 $-1 $265 $35 $-1 $372 forward single #
loop $-1 $-1 $373 $154 #
plane-surface $-1 62.11127048554949 0 0 -1 0 0 0 0 1 forward_v I I I I #
coedge $-1 $374 $375 $376 $377 reversed $155 $-1 #
coedge $-1 $378 $157 $159 $263 forward $97 $-1 #
coedge $-1 $157 $378 $374 $379 forward $97 $-1 #
coedge $-1 $376 $160 $157 $260 forward $265 $-1 #
edge $-1 $267 -1.7620234737276022 $380 4.2467223910158438 $259 $381 forward 7 unknown #
coedge $-1 $382 $383 $158 $262 forward $254 $-1 #
edge $-1 $384 -87.439331085396987 $266 -77.024312386932749 $261 $385 forward 7 unknown #
edge $-1 $267 109.2295328695354 $384 124.22254097109897 $159 $386 forward 7 unknown #
coedge $-1 $160 $376 $382 $387 forward $265 $-1 #
loop $-1 $-1 $376 $253 #
vertex $-1 $262 $388 #
vertex $-1 $161 $389 #
straight-curve $-1 29.522641271901758 0.51967401508348132 11.186802267422934 -1 0 0 I I #
coedge $-1 $269 $269 $-1 $390 reversed $164 $-1 #
edge $-1 $391 0 $391 6.2831853071796004 $165 $392 forward 7 unknown #
vertex $-1 $168 $393 #
ellipse-curve $-1 56.718736817499952 -3.772287316876124 5.9792929181908239 0.69465837861970381 0 0.71933979245794832 0.35966989622897416 0 -0.3473291893098519 1 I I #
coedge $-1 $273 $273 $-1 $394 reversed $171 $-1 #
edge $-1 $395 0 $395 6.2831853071796004 $172 $396 forward 7 unknown #
vertex $-1 $175 $397 #
ellipse-curve $-1 56.718736817499952 -1.1971105177003594 5.9792929181908239 0.69465837861970381 0 0.71933979245794832 0.35966989622897416 0 -0.3473291893098519 1 I I #
face $-1 $-1 $289 $38 $-1 $398 forward single #
loop $-1 $-1 $399 $176 #
plane-surface $-1 62.11127048554949 0 0 -1 0 0 0 0 1 forward_v I I I I #
coedge $-1 $400 $401 $402 $403 reversed $177 $-1 #
coedge $-1 $404 $179 $181 $287 forward $111 $-1 #
coedge $-1 $179 $404 $400 $405 forward $111 $-1 #
coedge $-1 $402 $182 $179 $284 forward $289 $-1 #
edge $-1 $291 -14.926417224941595 $406 -8.917671360198149 $283 $407 forward 7 unknown #
coedge $-1 $408 $409 $180 $286 forward $278 $-1 #
edge $-1 $410 -87.439331085396987 $290 -77.024312386932749 $285 $411 forward 7 unknown #
edge $-1 $291 109.2295328695354 $410 124.22254097109897 $181 $412 forward 7 unknown #
coedge $-1 $182 $402 $408 $413 forward $289 $-1 #
loop $-1 $-1 $402 $277 #
vertex $-1 $286 $414 #
vertex $-1 $183 $415 #
straight-curve $-1 29.522641271901758 26.848461517511467 11.186802267422934 -1 0 0 I I #
coedge $-1 $293 $293 $-1 $416 reversed $186 $-1 #
edge $-1 $417 0 $417 6.2831853071796004 $187 $418 forward 7 unknown #
vertex $-1 $190 $419 #
ellipse-curve $-1 56.718736817499952 22.556500185551869 5.9792929181908239 0.69465837861970381 0 0.71933979245794832 0.35966989622897416 0 -0.3473291893098519 1 I I #
coedge $-1 $297 $297 $-1 $420 reversed $193 $-1 #
edge $-1 $421 0 $421 6.2831853071796004 $194 $422 forward 7 unknown #
vertex $-1 $197 $423 #
ellipse-curve $-1 56.718736817499952 25.131676984727633 5.9792929181908239 0.69465837861970381 0 0.71933979245794832 0.35966989622897416 0 -0.3473291893098519 1 I I #
face $-1 $-1 $424 $41 $-1 $425 reversed single #
loop $-1 $-1 $204 $198 #
plane-surface $-1 0 0 11.18680226742293 0 0 1 1 0 0 forward_v I I I I #
coedge $-1 $426 $427 $428 $429 reversed $199 $-1 #
coedge $-1 $430 $201 $203 $311 forward $125 $-1 #
coedge $-1 $201 $430 $426 $431 forward $125 $-1 #
coedge $-1 $428 $204 $201 $308 forward $302 $-1 #
edge $-1 $314 -3.788920473067531 $432 7.9584220368663203 $307 $433 forward 7 unknown #
coedge $-1 $434 $435 $202 $310 forward $424 $-1 #
edge $-1 $436 -38.256112686409246 $313 -30.405793999392404 $309 $437 forward 7 unknown #
edge $-1 $314 -10.247863126757546 $436 -1.1030930024383267e-014 $203 $438 forward 7 unknown #
coedge $-1 $204 $428 $434 $439 forward $302 $-1 #
vertex $-1 $205 $440 #
vertex $-1 $205 $441 #
straight-curve $-1 -78.635629367983483 -1.7041696911681363 11.186802267422934 1 0 0 I I #
coedge $-1 $316 $316 $-1 $442 reversed $208 $-1 #
edge $-1 $443 0 $443 6.2831853071796004 $209 $444 forward 7 unknown #
vertex $-1 $212 $445 #
ellipse-curve $-1 -58.817670814329915 1.6522138830986748 7.2616429239145095 -0.7660444514056185 0 0.64278759981090561 0.96418139971635841 0 1.1490666771084277 1 I I #
coedge $-1 $320 $320 $-1 $446 reversed $215 $-1 #
edge $-1 $447 0 $447 6.2831853071796004 $216 $448 forward 7 unknown #
vertex $-1 $219 $449 #
ellipse-curve $-1 -58.817670814329915 6.6867892444988968 7.2616429239145095 -0.7660444514056185 0 0.64278759981090561 0.96418139971635841 0 1.1490666771084277 1 I I #
face $-1 $-1 $235 $33 $-1 $450 reversed single #
loop $-1 $-1 $340 $220 #
plane-surface $-1 0 32.808065113189812 0 0 -1 0 0 0 -1 forward_v I I I I #
coedge $-1 $451 $338 $341 $452 forward $221 $-1 #
coedge $-1 $344 $223 $224 $332 reversed $139 $-1 #
coedge $-1 $338 $451 $223 $330 reversed $221 $-1 #
edge $-1 $345 -11.18680226742293 $453 11.18680226742293 $329 $454 forward 7 unknown #
coedge $-1 $225 $224 $451 $455 forward $89 $-1 #
edge $-1 $336 -62.11127048554949 $453 62.11127048554949 $328 $456 forward 7 unknown #
coedge $-1 $341 $340 $225 $334 reversed $325 $-1 #
edge $-1 $457 -62.11127048554949 $335 62.11127048554949 $333 $458 forward 7 unknown #
vertex $-1 $227 $459 #
vertex $-1 $347 $460 #
straight-curve $-1 62.11127048554949 0 -11.18680226742293 0 -1 0 I I #
coedge $-1 $327 $329 $228 $339 reversed $221 $-1 #
edge $-1 $342 -32.808065113189812 $345 32.808065113189812 $338 $461 forward 7 unknown #
coedge $-1 $333 $229 $234 $348 forward $325 $-1 #
coedge $-1 $229 $333 $327 $452 reversed $325 $-1 #
vertex $-1 $230 $462 #
straight-curve $-1 0 32.808065113189812 11.18680226742293 -1 0 0 I I #
coedge $-1 $231 $328 $233 $347 reversed $139 $-1 #
vertex $-1 $339 $463 #
straight-curve $-1 0 -32.808065113189812 11.18680226742293 1 0 0 I I #
edge $-1 $236 -11.18680226742293 $336 11.18680226742293 $233 $464 forward 7 unknown #
edge $-1 $237 -11.18680226742293 $335 11.18680226742293 $234 $465 forward 7 unknown #
point $-1 62.11127048554949 -32.808065113189812 11.18680226742293 #
point $-1 62.11127048554949 32.808065113189812 11.18680226742293 #
face $-1 $-1 $367 $34 $-1 $466 reversed single #
loop $-1 $-1 $467 $239 #
plane-surface $-1 0 -45.766620334713451 7.041557488876542 0 1 0 0 0 1 forward_v I I I I #
coedge $-1 $468 $364 $366 $469 forward $240 $-1 #
coedge $-1 $242 $249 $470 $471 forward $147 $-1 #
coedge $-1 $472 $247 $242 $357 reversed $367 $-1 #
edge $-1 $473 -6.4792776107618195 $251 6.4792776107618195 $356 $474 forward 7 unknown #
coedge $-1 $244 $243 $467 $475 reversed $93 $-1 #
coedge $-1 $364 $468 $243 $360 forward $240 $-1 #
edge $-1 $476 -6.4792776107618195 $362 6.4792776107618195 $243 $477 forward 7 unknown #
edge $-1 $250 -6.4792776107618195 $478 6.4792776107618195 $244 $479 forward 7 unknown #
vertex $-1 $245 $480 #
straight-curve $-1 -62.11127048554949 -32.808065113189812 0 0 0 -1 I I #
coedge $-1 $354 $359 $246 $365 reversed $240 $-1 #
edge $-1 $368 -62.11127048554949 $362 62.11127048554949 $364 $481 forward 7 unknown #
coedge $-1 $247 $472 $354 $469 reversed $367 $-1 #
loop $-1 $-1 $247 $351 #
vertex $-1 $248 $482 #
straight-curve $-1 62.11127048554949 -32.808065113189812 0 0 0 1 I I #
point $-1 -62.11127048554949 -32.808065113189812 9.4496543483164537 #
point $-1 62.11127048554949 -32.808065113189812 9.4496543483164537 #
plane-surface $-1 0 0 11.18680226742293 0 0 1 1 0 0 forward_v I I I I #
coedge $-1 $383 $382 $375 $483 forward $254 $-1 #
coedge $-1 $375 $256 $258 $379 reversed $155 $-1 #
coedge $-1 $256 $374 $373 $483 reversed $155 $-1 #
coedge $-1 $264 $259 $256 $377 forward $265 $-1 #
edge $-1 $380 21.803561877548656 $484 32.588629213647735 $376 $485 forward 7 unknown #
coedge $-1 $258 $257 $383 $486 reversed $97 $-1 #
edge $-1 $487 -124.22254097109897 $380 -109.2295328695354 $374 $488 forward 7 unknown #
vertex $-1 $260 $489 #
straight-curve $-1 51.326203149450407 -1.2423494586441208 11.186802267422934 0 -1 0 I I #
coedge $-1 $373 $261 $264 $387 reversed $254 $-1 #
coedge $-1 $261 $373 $378 $486 forward $254 $-1 #
vertex $-1 $262 $490 #
straight-curve $-1 62.11127048554949 0.51967401508348132 88.211114654355683 0 0 1 I I #
straight-curve $-1 -27.246946355199832 0.51967401508348132 87.064012467962044 0.71933979245794832 0 -0.69465837861970381 I I #
edge $-1 $484 -5.4890718496599646 $266 0.51967401508348132 $382 $491 forward 7 unknown #
point $-1 62.11127048554949 0.51967401508348132 11.18680226742293 #
point $-1 51.326203149450414 0.51967401508348132 11.186802267422934 #
edge $-1 $492 1 $492 0 $269 $-1 forward 7 unknown #
vertex $-1 $270 $493 #
ellipse-curve $-1 55.728731498307702 -3.772287316876124 4.9541124226282856 0.69465837861970381 0 0.71933979245794832 0.35966989622897416 0 -0.3473291893098519 1 I I #
point $-1 57.078406713728924 -3.772287316876124 5.6319637288809661 #
edge $-1 $494 1 $494 0 $273 $-1 forward 7 unknown #
vertex $-1 $274 $495 #
ellipse-curve $-1 55.728731498307702 -1.1971105177003594 4.9541124226282856 0.69465837861970381 0 0.71933979245794832 0.35966989622897416 0 -0.3473291893098519 1 I I #
point $-1 57.078406713728924 -1.1971105177003594 5.6319637288809661 #
plane-surface $-1 0 0 11.18680226742293 0 0 1 1 0 0 forward_v I I I I #
coedge $-1 $409 $408 $401 $496 forward $278 $-1 #
coedge $-1 $401 $280 $282 $405 reversed $177 $-1 #
coedge $-1 $280 $400 $399 $496 reversed $177 $-1 #
coedge $-1 $288 $283 $280 $403 forward $289 $-1 #
edge $-1 $406 21.803561877548656 $497 32.588629213647735 $402 $498 forward 7 unknown #
coedge $-1 $282 $281 $409 $499 reversed $111 $-1 #
edge $-1 $500 -124.22254097109897 $406 -109.2295328695354 $400 $501 forward 7 unknown #
vertex $-1 $284 $502 #
straight-curve $-1 51.326203149450407 11.922044292569872 11.186802267422934 0 -1 0 I I #
coedge $-1 $399 $285 $288 $413 reversed $278 $-1 #
coedge $-1 $285 $399 $404 $499 forward $278 $-1 #
vertex $-1 $286 $503 #
straight-curve $-1 62.11127048554949 26.848461517511467 88.211114654355683 0 0 1 I I #
straight-curve $-1 -27.246946355199832 26.848461517511467 87.064012467962044 0.71933979245794832 0 -0.69465837861970381 I I #
edge $-1 $497 20.839715652768021 $290 26.848461517511467 $408 $504 forward 7 unknown #
point $-1 62.11127048554949 26.848461517511467 11.18680226742293 #
point $-1 51.326203149450414 26.848461517511467 11.186802267422934 #
edge $-1 $505 1 $505 0 $293 $-1 forward 7 unknown #
vertex $-1 $294 $506 #
ellipse-curve $-1 55.728731498307702 22.556500185551869 4.9541124226282856 0.69465837861970381 0 0.71933979245794832 0.35966989622897416 0 -0.3473291893098519 1 I I #
point $-1 57.078406713728924 22.556500185551869 5.6319637288809661 #
edge $-1 $507 1 $507 0 $297 $-1 forward 7 unknown #
vertex $-1 $298 $508 #
ellipse-curve $-1 55.728731498307702 25.131676984727633 4.9541124226282856 0.69465837861970381 0 0.71933979245794832 0.35966989622897416 0 -0.3473291893098519 1 I I #
point $-1 57.078406713728924 25.131676984727633 5.6319637288809661 #
loop $-1 $-1 $309 $301 #
plane-surface $-1 -62.11127048554949 0 0 1 0 0 0 0 -1 forward_v I I I I #
coedge $-1 $427 $304 $306 $431 reversed $199 $-1 #
coedge $-1 $304 $426 $509 $510 reversed $199 $-1 #
coedge $-1 $312 $307 $304 $429 forward $302 $-1 #
edge $-1 $432 -23.11155822487315 $511 -16.524358882433994 $428 $512 forward 7 unknown #
coedge $-1 $306 $305 $435 $513 reversed $125 $-1 #
edge $-1 $514 1.1030930024383267e-014 $432 10.247863126757546 $426 $515 forward 7 unknown #
vertex $-1 $308 $516 #
straight-curve $-1 -55.524071143110334 2.0847507818993947 11.18680226742293 0 1 0 I I #
coedge $-1 $509 $309 $312 $439 reversed $424 $-1 #
coedge $-1 $309 $509 $430 $513 forward $424 $-1 #
vertex $-1 $310 $517 #
straight-curve $-1 -62.11127048554949 -1.7041696911681363 41.592596266815335 0 0 1 I I #
straight-curve $-1 -62.111270485549497 -1.7041696911681363 3.3364835804060817 -0.64278759981090561 0 -0.7660444514056185 I I #
edge $-1 $511 -10.043172818765715 $313 1.7041696911681363 $434 $518 forward 7 unknown #
point $-1 -62.11127048554949 -1.7041696911681363 11.18680226742293 #
point $-1 -55.524071143110334 -1.7041696911681363 11.18680226742293 #
edge $-1 $519 1 $519 0 $316 $-1 forward 7 unknown #
vertex $-1 $317 $520 #
ellipse-curve $-1 -55.048092476700781 1.6522138830986748 4.0985912139285334 -0.7660444514056185 0 0.64278759981090561 0.96418139971635841 0 1.1490666771084277 1 I I #
point $-1 -57.853489414613549 1.6522138830986748 8.4107096010229299 #
edge $-1 $521 1 $521 0 $320 $-1 forward 7 unknown #
vertex $-1 $321 $522 #
ellipse-curve $-1 -55.048092476700781 6.6867892444988968 4.0985912139285334 -0.7660444514056185 0 0.64278759981090561 0.96418139971635841 0 1.1490666771084277 1 I I #
point $-1 -57.853489414613549 6.6867892444988968 8.4107096010229299 #
plane-surface $-1 62.11127048554949 0 0 -1 0 0 0 0 1 forward_v I I I I #
coedge $-1 $329 $327 $331 $455 reversed $221 $-1 #
edge $-1 $342 -11.18680226742293 $457 11.18680226742293 $341 $523 forward 7 unknown #
vertex $-1 $455 $524 #
straight-curve $-1 -62.11127048554949 -32.808065113189812 0 0 0 -1 I I #
edge $-1 $453 -32.808065113189812 $457 32.808065113189812 $451 $525 forward 7 unknown #
straight-curve $-1 0 -32.808065113189812 -11.18680226742293 -1 0 0 I I #
vertex $-1 $334 $526 #
straight-curve $-1 0 32.808065113189812 -11.18680226742293 1 0 0 I I #
point $-1 62.11127048554949 32.808065113189812 -11.18680226742293 #
point $-1 62.11127048554949 -32.808065113189812 -11.18680226742293 #
straight-curve $-1 -62.11127048554949 0 11.18680226742293 0 -1 0 I I #
point $-1 -62.11127048554949 32.808065113189812 11.18680226742293 #
point $-1 -62.11127048554949 -32.808065113189812 11.18680226742293 #
straight-curve $-1 62.11127048554949 -32.808065113189812 0 0 0 -1 I I #
straight-curve $-1 62.11127048554949 32.808065113189812 0 0 0 -1 I I #
plane-surface $-1 62.11127048554949 0 0 -1 0 0 0 0 1 forward_v I I I I #
coedge $-1 $527 $470 $358 $475 forward $352 $-1 #
coedge $-1 $359 $354 $527 $528 forward $240 $-1 #
edge $-1 $368 -6.4792776107618195 $529 6.4792776107618195 $366 $530 forward 7 unknown #
coedge $-1 $467 $531 $355 $471 reversed $352 $-1 #
edge $-1 $478 -62.11127048554949 $473 62.11127048554949 $470 $532 forward 7 unknown #
coedge $-1 $366 $356 $531 $533 forward $367 $-1 #
vertex $-1 $357 $534 #
straight-curve $-1 62.11127048554949 -39.287342723951632 9.4496543483164537 0 1 0 I I #
edge $-1 $478 -2.4080968594399117 $476 2.4080968594399126 $358 $535 forward 7 unknown #
vertex $-1 $360 $536 #
straight-curve $-1 -62.11127048554949 -39.287342723951632 4.6334606294366294 0 1 0 I I #
vertex $-1 $361 $537 #
straight-curve $-1 -62.11127048554949 -39.287342723951632 9.4496543483164537 0 -1 0 I I #
point $-1 -62.11127048554949 -32.808065113189812 4.6334606294366294 #
straight-curve $-1 0 -32.808065113189812 4.6334606294366294 -1 0 0 I I #
point $-1 62.11127048554949 -32.808065113189812 4.6334606294366294 #
edge $-1 $484 77.024312386932749 $487 87.439331085396987 $373 $538 forward 7 unknown #
vertex $-1 $387 $539 #
straight-curve $-1 29.522641271901758 -5.4890718496599646 11.186802267422934 1 0 0 I I #
edge $-1 $487 -4.2467223910158438 $384 1.7620234737276022 $383 $540 forward 7 unknown #
vertex $-1 $486 $541 #
straight-curve $-1 -27.246946355199832 -5.4890718496599646 87.064012467962044 -0.71933979245794832 0 0.69465837861970381 I I #
point $-1 51.326203149450414 -5.4890718496599646 11.186802267422934 #
point $-1 62.11127048554949 0.51967401508348132 0.77178356895869626 #
straight-curve $-1 62.11127048554949 0 11.18680226742293 0 1 0 I I #
vertex $-1 $390 $542 #
point $-1 56.088401394536682 -3.772287316876124 4.606783233318434 #
vertex $-1 $394 $543 #
point $-1 56.088401394536682 -1.1971105177003594 4.606783233318434 #
edge $-1 $497 77.024312386932749 $500 87.439331085396987 $399 $544 forward 7 unknown #
vertex $-1 $413 $545 #
straight-curve $-1 29.522641271901758 20.839715652768021 11.186802267422934 1 0 0 I I #
edge $-1 $500 8.917671360198149 $410 14.926417224941595 $409 $546 forward 7 unknown #
vertex $-1 $499 $547 #
straight-curve $-1 -27.246946355199832 20.839715652768021 87.064012467962044 -0.71933979245794832 0 0.69465837861970381 I I #
point $-1 51.326203149450414 20.839715652768021 11.186802267422934 #
point $-1 62.11127048554949 26.848461517511467 0.77178356895869626 #
straight-curve $-1 62.11127048554949 0 11.18680226742293 0 1 0 I I #
vertex $-1 $416 $548 #
point $-1 56.088401394536682 22.556500185551869 4.606783233318434 #
vertex $-1 $420 $549 #
point $-1 56.088401394536682 25.131676984727633 4.606783233318434 #
coedge $-1 $435 $434 $427 $510 forward $424 $-1 #
edge $-1 $511 30.405793999392404 $514 38.256112686409246 $509 $550 forward 7 unknown #
vertex $-1 $439 $551 #
straight-curve $-1 -78.635629367983483 10.043172818765715 11.186802267422934 -1 0 0 I I #
edge $-1 $514 -7.9584220368663203 $436 3.788920473067531 $435 $552 forward 7 unknown #
vertex $-1 $513 $553 #
straight-curve $-1 -62.111270485549497 10.043172818765715 3.3364835804060817 0.64278759981090561 0 0.7660444514056185 I I #
point $-1 -55.524071143110334 10.043172818765715 11.18680226742293 #
point $-1 -62.11127048554949 -1.7041696911681363 3.3364835804060902 #
straight-curve $-1 -62.11127048554949 0 11.18680226742293 0 -1 0 I I #
vertex $-1 $442 $554 #
point $-1 -54.083911076984428 1.6522138830986748 5.2476578910369618 #
vertex $-1 $446 $555 #
point $-1 -54.083911076984428 6.6867892444988968 5.2476578910369618 #
straight-curve $-1 -62.11127048554949 32.808065113189812 0 0 0 -1 I I #
point $-1 -62.11127048554949 -32.808065113189812 -11.18680226742293 #
straight-curve $-1 -62.11127048554949 0 -11.18680226742293 0 1 0 I I #
point $-1 -62.11127048554949 32.808065113189812 -11.18680226742293 #
coedge $-1 $531 $467 $468 $528 reversed $352 $-1 #
edge $-1 $529 -62.11127048554949 $476 62.11127048554949 $527 $556 forward 7 unknown #
vertex $-1 $533 $557 #
straight-curve $-1 62.11127048554949 -39.287342723951632 4.6334606294366294 0 -1 0 I I #
coedge $-1 $470 $527 $472 $533 reversed $352 $-1 #
straight-curve $-1 0 -45.766620334713451 9.4496543483164537 1 0 0 I I #
edge $-1 $473 -2.4080968594399117 $529 2.4080968594399126 $472 $558 forward 7 unknown #
point $-1 62.11127048554949 -45.766620334713451 9.4496543483164537 #
straight-curve $-1 -62.11127048554949 -45.766620334713451 7.041557488876542 0 0 -1 I I #
point $-1 -62.11127048554949 -45.766620334713451 4.6334606294366294 #
point $-1 -62.11127048554949 -45.766620334713451 9.4496543483164537 #
straight-curve $-1 62.11127048554949 -5.4890718496599646 88.211114654355683 0 0 -1 I I #
point $-1 62.11127048554949 -5.4890718496599646 11.18680226742293 #
straight-curve $-1 62.111270485549497 -1.2423494586441208 0.77178356895870337 0 1 0 I I #
point $-1 62.11127048554949 -5.4890718496599646 0.77178356895869626 #
point $-1 55.381402308997856 -3.772287316876124 4.5944425263993116 #
point $-1 55.381402308997856 -1.1971105177003594 4.5944425263993116 #
straight-curve $-1 62.11127048554949 20.839715652768021 88.211114654355683 0 0 -1 I I #
point $-1 62.11127048554949 20.839715652768021 11.18680226742293 #
straight-curve $-1 62.111270485549497 11.922044292569872 0.77178356895870337 0 1 0 I I #
point $-1 62.11127048554949 20.839715652768021 0.77178356895869626 #
point $-1 55.381402308997856 22.556500185551869 4.5944425263993116 #
point $-1 55.381402308997856 25.131676984727633 4.5944425263993116 #
straight-curve $-1 -62.11127048554949 10.043172818765715 41.592596266815335 0 0 -1 I I #
point $-1 -62.11127048554949 10.043172818765715 11.18680226742293 #
straight-curve $-1 -62.11127048554949 2.0847507818993947 3.3364835804060973 0 -1 0 I I #
point $-1 -62.11127048554949 10.043172818765715 3.3364835804060902 #
point $-1 -53.899025799592359 1.6522138830986748 3.1344098142121752 #
point $-1 -53.899025799592359 6.6867892444988968 3.1344098142121752 #
straight-curve $-1 0 -45.766620334713451 4.6334606294366294 -1 0 0 I I #
point $-1 62.11127048554949 -45.766620334713451 4.6334606294366294 #
straight-curve $-1 62.11127048554949 -45.766620334713451 7.041557488876542 0 0 -1 I I #
End-of-ACIS-data 