500 0 11 0           
7 Unknown 11 ACIS 5.0 NT 24 Fri Mar 26 19:10:53 1999 
-1 9.9999999999999995e-007 1e-010 
body $-1 $11 $-1 $12 #
body $-1 $13 $-1 $14 #
body $-1 $15 $-1 $16 #
body $-1 $17 $-1 $18 #
body $-1 $19 $-1 $20 #
body $-1 $21 $-1 $22 #
body $-1 $23 $-1 $24 #
body $-1 $25 $-1 $26 #
body $-1 $27 $-1 $28 #
body $-1 $29 $-1 $30 #
body $-1 $31 $-1 $32 #
lump $-1 $-1 $33 $0 #
transform $-1 1 0 0 0 1 0 0 0 1 45.778984954374828 19.587012401649488 4.3546088425408556 1 rotate no_reflect no_shear #
lump $-1 $-1 $34 $1 #
transform $-1 1 0 0 0 1 0 0 0 1 45.778984954374828 19.587012401649488 4.3546088425408556 1 rotate no_reflect no_shear #
lump $-1 $-1 $35 $2 #
transform $-1 1 0 0 0 1 0 0 0 1 45.778984954374828 19.587012401649488 4.3546088425408556 1 rotate no_reflect no_shear #
lump $-1 $-1 $36 $3 #
transform $-1 1 0 0 0 1 0 0 0 1 45.778984954374828 19.587012401649488 4.3546088425408556 1 rotate no_reflect no_shear #
lump $-1 $-1 $37 $4 #
transform $-1 1 0 0 0 1 0 0 0 1 45.778984954374828 19.587012401649488 4.3546088425408556 1 rotate no_reflect no_shear #
lump $-1 $-1 $38 $5 #
transform $-1 1 0 0 0 1 0 0 0 1 45.778984954374828 19.587012401649488 4.3546088425408556 1 rotate no_reflect no_shear #
lump $-1 $-1 $39 $6 #
transform $-1 1 0 0 0 1 0 0 0 1 45.778984954374828 19.587012401649488 4.3546088425408556 1 rotate no_reflect no_shear #
lump $-1 $-1 $40 $7 #
transform $-1 1 0 0 0 1 0 0 0 1 45.778984954374828 19.587012401649488 4.3546088425408556 1 rotate no_reflect no_shear #
lump $-1 $-1 $41 $8 #
transform $-1 1 0 0 0 1 0 0 0 1 45.778984954374828 19.587012401649488 4.3546088425408556 1 rotate no_reflect no_shear #
lump $-1 $-1 $42 $9 #
transform $-1 1 0 0 0 1 0 0 0 1 45.778984954374828 19.587012401649488 4.3546088425408556 1 rotate no_reflect no_shear #
lump $-1 $-1 $43 $10 #
transform $-1 1 0 0 0 1 0 0 0 1 45.778984954374828 19.587012401649488 4.3546088425408556 1 rotate no_reflect no_shear #
shell $-1 $-1 $-1 $44 $-1 $11 #
shell $-1 $-1 $-1 $45 $-1 $13 #
shell $-1 $-1 $-1 $46 $-1 $15 #
shell $-1 $-1 $-1 $47 $-1 $17 #
shell $-1 $-1 $-1 $48 $-1 $19 #
shell $-1 $-1 $-1 $49 $-1 $21 #
shell $-1 $-1 $-1 $50 $-1 $23 #
shell $-1 $-1 $-1 $51 $-1 $25 #
shell $-1 $-1 $-1 $52 $-1 $27 #
shell $-1 $-1 $-1 $53 $-1 $29 #
shell $-1 $-1 $-1 $54 $-1 $31 #
face $-1 $55 $56 $33 $-1 $57 forward single #
face $-1 $58 $59 $34 $-1 $60 reversed single #
face $-1 $61 $62 $35 $-1 $63 reversed single #
face $-1 $64 $65 $36 $-1 $66 forward single #
face $-1 $67 $68 $37 $-1 $69 reversed single #
face $-1 $70 $71 $38 $-1 $72 forward single #
face $-1 $73 $74 $39 $-1 $75 reversed single #
face $-1 $76 $77 $40 $-1 $78 forward single #
face $-1 $79 $80 $41 $-1 $81 reversed single #
face $-1 $82 $83 $42 $-1 $84 forward single #
face $-1 $85 $86 $43 $-1 $87 forward single #
face $-1 $88 $89 $33 $-1 $90 reversed single #
loop $-1 $-1 $91 $44 #
plane-surface $-1 0 0 4.3546088425408556 0 0 1 1 0 0 forward_v I I I I #
face $-1 $92 $93 $34 $-1 $94 reversed single #
loop $-1 $-1 $95 $45 #
plane-surface $-1 0 -16.784060714446095 1.3546088425408556 0 0 1 1 0 0 forward_v I I I I #
face $-1 $96 $97 $35 $-1 $98 reversed single #
loop $-1 $-1 $99 $46 #
plane-surface $-1 -124.25948359616868 -9.1493785827748404 47.665032067946342 0 1 0 -0.85716730853699208 0 0.51503806187062418 forward_v I I I I #
face $-1 $100 $101 $36 $-1 $102 forward single #
loop $-1 $103 $104 $47 #
cone-surface $-1 -43.734885165892791 -5.970556900193408 1.8978436933615463 0.85716730853699208 0 -0.51503806187062418 0.51503806187062418 0 0.85716730853699208 1 I I 0 1 1 forward I I I I #
face $-1 $105 $106 $37 $-1 $107 reversed single #
loop $-1 $-1 $108 $48 #
plane-surface $-1 -124.25948359616868 -0.37586999537804289 47.665032067946342 0 1 0 -0.85716730853699208 0 0.51503806187062418 forward_v I I I I #
face $-1 $109 $110 $38 $-1 $111 forward single #
loop $-1 $112 $113 $49 #
cone-surface $-1 -43.734885165892791 2.8029516872033895 1.8978436933615463 0.85716730853699208 0 -0.51503806187062418 0.51503806187062418 0 0.85716730853699208 1 I I 0 1 1 forward I I I I #
face $-1 $114 $115 $39 $-1 $116 reversed single #
loop $-1 $-1 $117 $50 #
plane-surface $-1 -124.25948359616868 8.3976385920187546 47.665032067946342 0 1 0 -0.85716730853699208 0 0.51503806187062418 forward_v I I I I #
face $-1 $118 $119 $40 $-1 $120 forward single #
loop $-1 $121 $122 $51 #
cone-surface $-1 -43.734885165892791 11.576460274600187 1.8978436933615463 0.85716730853699208 0 -0.51503806187062418 0.51503806187062418 0 0.85716730853699208 1 I I 0 1 1 forward I I I I #
face $-1 $123 $124 $41 $-1 $125 reversed single #
loop $-1 $-1 $126 $52 #
plane-surface $-1 70.485416881645364 -4.9095549900944597 127.29699666129765 0 -1 0 -0.82903758062907751 0 -0.55919289150049634 forward_v I I I I #
face $-1 $127 $128 $42 $-1 $129 forward single #
loop $-1 $130 $131 $53 #
cone-surface $-1 42.82410329444162 -11.38923644520035 1.2275159418408306 -0.82903758062907751 0 -0.55919289150049634 0.55919289150049634 0 -0.82903758062907751 1 I I 0 1 1 forward I I I I #
face $-1 $132 $133 $43 $-1 $134 forward single #
loop $-1 $135 $136 $54 #
cone-surface $-1 42.82410329444162 -7.5014275721368158 1.2275159418408306 -0.82903758062907751 0 -0.55919289150049634 0.55919289150049634 0 -0.82903758062907751 1 I I 0 1 1 forward I I I I #
face $-1 $137 $138 $33 $-1 $139 reversed single #
loop $-1 $-1 $140 $55 #
plane-surface $-1 0 0 -4.3546088425408556 0 0 1 1 0 0 forward_v I I I I #
coedge $-1 $141 $142 $143 $144 forward $56 $-1 #
face $-1 $145 $146 $34 $-1 $147 reversed single #
loop $-1 $-1 $148 $58 #
plane-surface $-1 0 -13.981109027242704 2.8546088425408556 0 -1 0 0 0 -1 forward_v I I I I #
coedge $-1 $149 $150 $151 $152 reversed $59 $-1 #
face $-1 $153 $154 $35 $-1 $155 reversed single #
loop $-1 $-1 $156 $61 #
plane-surface $-1 -45.77898495437482 -5.970556900193408 0.50919269733498851 -0.85716730853699208 0 0.51503806187062418 0.51503806187062418 0 0.85716730853699208 forward_v I I I I #
coedge $-1 $157 $158 $159 $160 reversed $62 $-1 #
face $-1 $-1 $161 $36 $-1 $162 forward single #
loop $-1 $163 $164 $64 #
cone-surface $-1 -42.417481246047302 -5.970556900193408 1.1062675858498556 0.85716730853699208 0 -0.51503806187062418 0.25751903093531209 0 0.42858365426849604 1 I I -0.70710678118654746 0.70710678118654746 0.5 forward I I I I #
loop $-1 $-1 $165 $47 #
coedge $-1 $104 $104 $166 $167 reversed $65 $-1 #
face $-1 $168 $169 $37 $-1 $170 reversed single #
loop $-1 $-1 $171 $67 #
plane-surface $-1 -45.77898495437482 2.8029516872033895 0.50919269733498851 -0.85716730853699208 0 0.51503806187062418 0.51503806187062418 0 0.85716730853699208 forward_v I I I I #
coedge $-1 $172 $173 $174 $175 reversed $68 $-1 #
face $-1 $-1 $176 $38 $-1 $177 forward single #
loop $-1 $178 $179 $70 #
cone-surface $-1 -42.417481246047302 2.8029516872033895 1.1062675858498556 0.85716730853699208 0 -0.51503806187062418 0.25751903093531209 0 0.42858365426849604 1 I I -0.70710678118654746 0.70710678118654746 0.5 forward I I I I #
loop $-1 $-1 $180 $49 #
coedge $-1 $113 $113 $181 $182 reversed $71 $-1 #
face $-1 $183 $184 $39 $-1 $185 reversed single #
loop $-1 $-1 $186 $73 #
plane-surface $-1 -45.77898495437482 11.576460274600187 0.50919269733498851 -0.85716730853699208 0 0.51503806187062418 0.51503806187062418 0 0.85716730853699208 forward_v I I I I #
coedge $-1 $187 $188 $189 $190 reversed $74 $-1 #
face $-1 $-1 $191 $40 $-1 $192 forward single #
loop $-1 $193 $194 $76 #
cone-surface $-1 -42.417481246047302 11.576460274600187 1.1062675858498556 0.85716730853699208 0 -0.51503806187062418 0.25751903093531209 0 0.42858365426849604 1 I I -0.70710678118654746 0.70710678118654746 0.5 forward I I I I #
loop $-1 $-1 $195 $51 #
coedge $-1 $122 $122 $196 $197 reversed $77 $-1 #
face $-1 $198 $199 $41 $-1 $200 forward single #
loop $-1 $-1 $201 $79 #
plane-surface $-1 -5.4195809788143237 -9.4453320086685828 76.098430728108497 0.82903758062907751 0 0.55919289150049634 0.55919289150049634 0 -0.82903758062907751 forward_v I I I I #
coedge $-1 $202 $203 $204 $205 reversed $80 $-1 #
face $-1 $-1 $206 $42 $-1 $207 forward single #
loop $-1 $208 $209 $82 #
cone-surface $-1 40.858077118057672 -11.38923644520035 -0.098585417163405964 -0.82903758062907751 0 -0.55919289150049634 0.27959644575024817 0 -0.41451879031453875 1 I I -0.70710678118654746 0.70710678118654746 0.5 forward I I I I #
loop $-1 $-1 $210 $53 #
coedge $-1 $131 $131 $211 $212 reversed $83 $-1 #
face $-1 $-1 $213 $43 $-1 $214 forward single #
loop $-1 $215 $216 $85 #
cone-surface $-1 40.858077118057672 -7.5014275721368158 -0.098585417163405964 -0.82903758062907751 0 -0.55919289150049634 0.27959644575024817 0 -0.41451879031453875 1 I I -0.70710678118654746 0.70710678118654746 0.5 forward I I I I #
loop $-1 $-1 $217 $54 #
coedge $-1 $136 $136 $218 $219 reversed $86 $-1 #
face $-1 $220 $221 $33 $-1 $222 reversed single #
loop $-1 $-1 $223 $88 #
plane-surface $-1 0 -19.587012401649488 0 0 1 0 0 0 1 forward_v I I I I #
coedge $-1 $224 $225 $226 $227 forward $89 $-1 #
coedge $-1 $228 $91 $229 $230 forward $56 $-1 #
coedge $-1 $91 $228 $231 $232 forward $56 $-1 #
coedge $-1 $233 $234 $91 $144 reversed $235 $-1 #
edge $-1 $236 -19.587012401649488 $237 19.587012401649488 $143 $238 forward 7 unknown #
face $-1 $239 $240 $34 $-1 $241 reversed single #
loop $-1 $-1 $242 $92 #
plane-surface $-1 -45.778984954374828 0 0 1 0 0 0 0 -1 forward_v I I I I #
coedge $-1 $243 $244 $150 $245 reversed $93 $-1 #
coedge $-1 $246 $95 $247 $248 reversed $59 $-1 #
coedge $-1 $95 $246 $148 $245 forward $59 $-1 #
coedge $-1 $249 $250 $95 $152 forward $251 $-1 #
edge $-1 $252 -11.194982044426441 $253 -5.5890786700196564 $151 $254 forward 7 unknown #
face $-1 $255 $256 $35 $-1 $257 forward single #
loop $-1 $-1 $258 $96 #
plane-surface $-1 -124.25948359616868 -2.7917352176119756 47.665032067946342 0 -1 0 0.85716730853699208 0 -0.51503806187062418 forward_v I I I I #
coedge $-1 $259 $260 $261 $262 reversed $97 $-1 #
coedge $-1 $158 $99 $263 $264 reversed $62 $-1 #
coedge $-1 $99 $157 $259 $265 reversed $62 $-1 #
coedge $-1 $261 $266 $99 $160 forward $256 $-1 #
edge $-1 $267 16.350756843709512 $268 18.661315889519614 $159 $269 forward 7 unknown #
loop $-1 $-1 $166 $100 #
plane-surface $-1 -45.77898495437482 -5.970556900193408 0.50919269733498851 -0.85716730853699208 0 0.51503806187062418 0.51503806187062418 0 0.85716730853699208 forward_v I I I I #
loop $-1 $-1 $270 $64 #
coedge $-1 $164 $164 $165 $271 reversed $101 $-1 #
coedge $-1 $165 $165 $164 $271 forward $103 $-1 #
coedge $-1 $166 $166 $104 $167 forward $161 $-1 #
edge $-1 $272 0 $272 6.2831853071796004 $166 $273 forward 7 unknown #
face $-1 $274 $275 $37 $-1 $276 forward single #
loop $-1 $-1 $277 $105 #
plane-surface $-1 -124.25948359616868 5.9817733697848219 47.665032067946342 0 -1 0 0.85716730853699208 0 -0.51503806187062418 forward_v I I I I #
coedge $-1 $278 $279 $280 $281 reversed $106 $-1 #
coedge $-1 $173 $108 $282 $283 reversed $68 $-1 #
coedge $-1 $108 $172 $278 $284 reversed $68 $-1 #
coedge $-1 $280 $285 $108 $175 forward $275 $-1 #
edge $-1 $286 16.350756843709512 $287 18.661315889519614 $174 $288 forward 7 unknown #
loop $-1 $-1 $181 $109 #
plane-surface $-1 -45.77898495437482 2.8029516872033895 0.50919269733498851 -0.85716730853699208 0 0.51503806187062418 0.51503806187062418 0 0.85716730853699208 forward_v I I I I #
loop $-1 $-1 $289 $70 #
coedge $-1 $179 $179 $180 $290 reversed $110 $-1 #
coedge $-1 $180 $180 $179 $290 forward $112 $-1 #
coedge $-1 $181 $181 $113 $182 forward $176 $-1 #
edge $-1 $291 0 $291 6.2831853071796004 $181 $292 forward 7 unknown #
face $-1 $293 $294 $39 $-1 $295 forward single #
loop $-1 $-1 $296 $114 #
plane-surface $-1 -124.25948359616868 14.755281957181619 47.665032067946342 0 -1 0 0.85716730853699208 0 -0.51503806187062418 forward_v I I I I #
coedge $-1 $297 $298 $299 $300 reversed $115 $-1 #
coedge $-1 $188 $117 $301 $302 reversed $74 $-1 #
coedge $-1 $117 $187 $297 $303 reversed $74 $-1 #
coedge $-1 $299 $304 $117 $190 forward $294 $-1 #
edge $-1 $305 16.350756843709512 $306 18.661315889519614 $189 $307 forward 7 unknown #
loop $-1 $-1 $196 $118 #
plane-surface $-1 -45.77898495437482 11.576460274600187 0.50919269733498851 -0.85716730853699208 0 0.51503806187062418 0.51503806187062418 0 0.85716730853699208 forward_v I I I I #
loop $-1 $-1 $308 $76 #
coedge $-1 $194 $194 $195 $309 reversed $119 $-1 #
coedge $-1 $195 $195 $194 $309 forward $121 $-1 #
coedge $-1 $196 $196 $122 $197 forward $191 $-1 #
edge $-1 $310 0 $310 6.2831853071796004 $196 $311 forward 7 unknown #
face $-1 $312 $313 $41 $-1 $314 forward single #
loop $-1 $-1 $315 $123 #
plane-surface $-1 0 -13.981109027242704 2.8546088425408556 0 -1 0 0 0 -1 forward_v I I I I #
coedge $-1 $316 $317 $318 $319 reversed $124 $-1 #
coedge $-1 $203 $126 $320 $321 reversed $80 $-1 #
coedge $-1 $126 $202 $316 $322 reversed $80 $-1 #
coedge $-1 $318 $323 $126 $205 forward $313 $-1 #
edge $-1 $324 -10.536276513552146 $325 -7.7295279658245306 $204 $326 forward 7 unknown #
loop $-1 $-1 $211 $127 #
plane-surface $-1 -5.4195809788143237 -9.4453320086685828 76.098430728108497 0.82903758062907751 0 0.55919289150049634 0.55919289150049634 0 -0.82903758062907751 forward_v I I I I #
loop $-1 $-1 $327 $82 #
coedge $-1 $209 $209 $210 $328 reversed $128 $-1 #
coedge $-1 $210 $210 $209 $328 forward $130 $-1 #
coedge $-1 $211 $211 $131 $212 forward $206 $-1 #
edge $-1 $329 0 $329 6.2831853071796004 $211 $330 forward 7 unknown #
loop $-1 $-1 $218 $132 #
plane-surface $-1 -5.4195809788143237 -9.4453320086685828 76.098430728108497 0.82903758062907751 0 0.55919289150049634 0.55919289150049634 0 -0.82903758062907751 forward_v I I I I #
loop $-1 $-1 $331 $85 #
coedge $-1 $216 $216 $217 $332 reversed $133 $-1 #
coedge $-1 $217 $217 $216 $332 forward $135 $-1 #
coedge $-1 $218 $218 $136 $219 forward $213 $-1 #
edge $-1 $333 0 $333 6.2831853071796004 $218 $334 forward 7 unknown #
face $-1 $335 $336 $33 $-1 $337 reversed single #
loop $-1 $-1 $338 $137 #
plane-surface $-1 -45.778984954374828 0 0 1 0 0 0 0 -1 forward_v I I I I #
coedge $-1 $339 $231 $340 $341 forward $138 $-1 #
coedge $-1 $342 $140 $339 $343 forward $89 $-1 #
coedge $-1 $140 $342 $344 $345 forward $89 $-1 #
coedge $-1 $234 $233 $140 $227 reversed $235 $-1 #
edge $-1 $346 -19.587012401649488 $347 19.587012401649488 $226 $348 forward 7 unknown #
coedge $-1 $142 $141 $349 $350 forward $56 $-1 #
coedge $-1 $351 $352 $141 $230 reversed $336 $-1 #
edge $-1 $237 -45.778984954374828 $353 45.778984954374828 $229 $354 forward 7 unknown #
coedge $-1 $223 $355 $142 $232 reversed $138 $-1 #
edge $-1 $356 -45.778984954374828 $236 45.778984954374828 $231 $357 forward 7 unknown #
coedge $-1 $226 $143 $355 $358 forward $235 $-1 #
coedge $-1 $143 $226 $351 $359 reversed $235 $-1 #
loop $-1 $-1 $233 $335 #
vertex $-1 $144 $360 #
vertex $-1 $144 $361 #
straight-curve $-1 45.778984954374828 0 4.3546088425408556 0 1 0 I I #
face $-1 $362 $363 $34 $-1 $364 forward single #
loop $-1 $-1 $247 $145 #
plane-surface $-1 0 -19.587012401649488 0 0 1 0 0 0 1 forward_v I I I I #
coedge $-1 $365 $366 $243 $367 forward $146 $-1 #
coedge $-1 $368 $148 $242 $367 reversed $93 $-1 #
coedge $-1 $148 $368 $249 $369 reversed $93 $-1 #
edge $-1 $370 -45.778984954374828 $253 45.778984954374828 $148 $371 forward 7 unknown #
coedge $-1 $150 $149 $365 $372 reversed $59 $-1 #
coedge $-1 $373 $374 $149 $248 forward $240 $-1 #
edge $-1 $375 -45.778984954374828 $252 45.778984954374828 $247 $376 forward 7 unknown #
coedge $-1 $377 $151 $244 $369 forward $251 $-1 #
coedge $-1 $151 $377 $373 $378 forward $251 $-1 #
loop $-1 $-1 $249 $362 #
vertex $-1 $248 $379 #
vertex $-1 $152 $380 #
straight-curve $-1 45.778984954374828 -8.3920303572230477 1.3546088425408556 0 1 0 I I #
face $-1 $-1 $381 $35 $-1 $382 reversed single #
loop $-1 $-1 $159 $153 #
plane-surface $-1 0 0 4.3546088425408556 0 0 1 1 0 0 forward_v I I I I #
coedge $-1 $383 $384 $385 $386 reversed $154 $-1 #
coedge $-1 $387 $156 $158 $265 forward $97 $-1 #
coedge $-1 $156 $387 $383 $388 forward $97 $-1 #
coedge $-1 $385 $159 $156 $262 forward $256 $-1 #
edge $-1 $268 -6.1641001326781364 $389 0.19354323248472838 $261 $390 forward 7 unknown #
coedge $-1 $391 $392 $157 $264 forward $381 $-1 #
edge $-1 $393 -23.323323336638193 $267 -19.477907191432315 $263 $394 forward 7 unknown #
edge $-1 $268 -4.4861908601824796 $393 1.3842187171284396e-014 $158 $395 forward 7 unknown #
coedge $-1 $159 $385 $391 $396 forward $256 $-1 #
vertex $-1 $264 $397 #
vertex $-1 $160 $398 #
straight-curve $-1 -62.129741798084339 -9.1493785827748404 4.3546088425408556 1 0 0 I I #
coedge $-1 $270 $270 $-1 $399 reversed $163 $-1 #
edge $-1 $400 0 $400 6.2831853071796004 $164 $401 forward 7 unknown #
vertex $-1 $167 $402 #
ellipse-curve $-1 -44.623705431469773 -5.970556900193408 2.4319007699379194 -0.85716730853699208 0 0.51503806187062418 0.51503806187062418 0 0.85716730853699208 1 I I #
face $-1 $-1 $403 $37 $-1 $404 reversed single #
loop $-1 $-1 $174 $168 #
plane-surface $-1 0 0 4.3546088425408556 0 0 1 1 0 0 forward_v I I I I #
coedge $-1 $405 $406 $407 $408 reversed $169 $-1 #
coedge $-1 $409 $171 $173 $284 forward $106 $-1 #
coedge $-1 $171 $409 $405 $410 forward $106 $-1 #
coedge $-1 $407 $174 $171 $281 forward $275 $-1 #
edge $-1 $287 -1.7773458389797376 $411 4.5802975261831271 $280 $412 forward 7 unknown #
coedge $-1 $413 $414 $172 $283 forward $403 $-1 #
edge $-1 $415 -23.323323336638193 $286 -19.477907191432315 $282 $416 forward 7 unknown #
edge $-1 $287 -4.4861908601824796 $415 1.3842187171284396e-014 $173 $417 forward 7 unknown #
coedge $-1 $174 $407 $413 $418 forward $275 $-1 #
vertex $-1 $175 $419 #
vertex $-1 $175 $420 #
straight-curve $-1 -62.129741798084339 -0.37586999537804289 4.3546088425408556 1 0 0 I I #
coedge $-1 $289 $289 $-1 $421 reversed $178 $-1 #
edge $-1 $422 0 $422 6.2831853071796004 $179 $423 forward 7 unknown #
vertex $-1 $182 $424 #
ellipse-curve $-1 -44.623705431469773 2.8029516872033895 2.4319007699379194 -0.85716730853699208 0 0.51503806187062418 0.51503806187062418 0 0.85716730853699208 1 I I #
face $-1 $-1 $425 $39 $-1 $426 reversed single #
loop $-1 $-1 $189 $183 #
plane-surface $-1 0 0 4.3546088425408556 0 0 1 1 0 0 forward_v I I I I #
coedge $-1 $427 $428 $429 $430 reversed $184 $-1 #
coedge $-1 $431 $186 $188 $303 forward $115 $-1 #
coedge $-1 $186 $431 $427 $432 forward $115 $-1 #
coedge $-1 $429 $189 $186 $300 forward $294 $-1 #
edge $-1 $306 2.6094084547186611 $433 8.9670518198815259 $299 $434 forward 7 unknown #
coedge $-1 $435 $436 $187 $302 forward $425 $-1 #
edge $-1 $437 -23.323323336638193 $305 -19.477907191432315 $301 $438 forward 7 unknown #
edge $-1 $306 -4.4861908601824796 $437 1.3842187171284396e-014 $188 $439 forward 7 unknown #
coedge $-1 $189 $429 $435 $440 forward $294 $-1 #
vertex $-1 $190 $441 #
vertex $-1 $190 $442 #
straight-curve $-1 -62.129741798084339 8.3976385920187546 4.3546088425408556 1 0 0 I I #
coedge $-1 $308 $308 $-1 $443 reversed $193 $-1 #
edge $-1 $444 0 $444 6.2831853071796004 $194 $445 forward 7 unknown #
vertex $-1 $197 $446 #
ellipse-curve $-1 -44.623705431469773 11.576460274600187 2.4319007699379194 -0.85716730853699208 0 0.51503806187062418 0.51503806187062418 0 0.85716730853699208 1 I I #
face $-1 $-1 $447 $41 $-1 $448 reversed single #
loop $-1 $-1 $318 $198 #
plane-surface $-1 0 0 4.3546088425408556 0 0 1 1 0 0 forward_v I I I I #
coedge $-1 $449 $450 $317 $451 reversed $199 $-1 #
coedge $-1 $452 $201 $203 $322 forward $124 $-1 #
coedge $-1 $201 $452 $315 $451 forward $124 $-1 #
coedge $-1 $453 $204 $201 $319 forward $313 $-1 #
edge $-1 $325 0.18688898576016832 $454 9.2584430229084145 $318 $455 forward 7 unknown #
coedge $-1 $456 $457 $202 $321 forward $447 $-1 #
edge $-1 $458 -63.455065463000018 $324 -59.293889488107972 $320 $459 forward 7 unknown #
edge $-1 $325 86.538684809834677 $458 91.557969908749655 $203 $460 forward 7 unknown #
coedge $-1 $204 $453 $456 $461 forward $313 $-1 #
vertex $-1 $321 $462 #
vertex $-1 $205 $463 #
straight-curve $-1 35.242708440822682 -4.9095549900944597 4.3546088425408556 -1 0 0 I I #
coedge $-1 $327 $327 $-1 $464 reversed $208 $-1 #
edge $-1 $465 0 $465 6.2831853071796004 $209 $466 forward 7 unknown #
vertex $-1 $212 $467 #
ellipse-curve $-1 44.375610680511024 -11.38923644520035 2.2740208550948169 0.82903758062907751 0 0.55919289150049634 0.55919289150049634 0 -0.82903758062907751 1 I I #
coedge $-1 $331 $331 $-1 $468 reversed $215 $-1 #
edge $-1 $469 0 $469 6.2831853071796004 $216 $470 forward 7 unknown #
vertex $-1 $219 $471 #
ellipse-curve $-1 44.375610680511024 -7.5014275721368158 2.2740208550948169 0.82903758062907751 0 0.55919289150049634 0.55919289150049634 0 -0.82903758062907751 1 I I #
face $-1 $-1 $235 $33 $-1 $472 reversed single #
loop $-1 $-1 $351 $220 #
plane-surface $-1 0 19.587012401649488 0 0 -1 0 0 0 -1 forward_v I I I I #
coedge $-1 $473 $349 $352 $474 forward $221 $-1 #
coedge $-1 $355 $223 $224 $343 reversed $138 $-1 #
coedge $-1 $349 $473 $223 $341 reversed $221 $-1 #
edge $-1 $356 -4.3546088425408556 $475 4.3546088425408556 $340 $476 forward 7 unknown #
coedge $-1 $225 $224 $473 $477 forward $89 $-1 #
edge $-1 $347 -45.778984954374828 $475 45.778984954374828 $339 $478 forward 7 unknown #
coedge $-1 $352 $351 $225 $345 reversed $336 $-1 #
edge $-1 $479 -45.778984954374828 $346 45.778984954374828 $344 $480 forward 7 unknown #
vertex $-1 $227 $481 #
vertex $-1 $358 $482 #
straight-curve $-1 45.778984954374828 0 -4.3546088425408556 0 -1 0 I I #
coedge $-1 $338 $340 $228 $350 reversed $221 $-1 #
edge $-1 $353 -19.587012401649488 $356 19.587012401649488 $349 $483 forward 7 unknown #
coedge $-1 $344 $229 $234 $359 forward $336 $-1 #
coedge $-1 $229 $344 $338 $474 reversed $336 $-1 #
vertex $-1 $230 $484 #
straight-curve $-1 0 19.587012401649488 4.3546088425408556 -1 0 0 I I #
coedge $-1 $231 $339 $233 $358 reversed $138 $-1 #
vertex $-1 $350 $485 #
straight-curve $-1 0 -19.587012401649488 4.3546088425408556 1 0 0 I I #
edge $-1 $236 -4.3546088425408556 $347 4.3546088425408556 $233 $486 forward 7 unknown #
edge $-1 $237 -4.3546088425408556 $346 4.3546088425408556 $234 $487 forward 7 unknown #
point $-1 45.778984954374828 -19.587012401649488 4.3546088425408556 #
point $-1 45.778984954374828 19.587012401649488 4.3546088425408556 #
face $-1 $-1 $251 $34 $-1 $488 reversed single #
loop $-1 $-1 $489 $239 #
plane-surface $-1 0 0 4.3546088425408556 0 0 1 1 0 0 forward_v I I I I #
coedge $-1 $490 $242 $246 $372 forward $146 $-1 #
coedge $-1 $242 $490 $491 $492 reversed $146 $-1 #
edge $-1 $493 -2.9273044212704278 $370 0.072695578729572219 $242 $494 forward 7 unknown #
coedge $-1 $244 $243 $489 $495 reversed $93 $-1 #
edge $-1 $253 -0.072695578729572219 $496 2.9273044212704278 $249 $497 forward 7 unknown #
vertex $-1 $372 $498 #
straight-curve $-1 0 -13.981109027242704 1.3546088425408556 1 0 0 I I #
edge $-1 $370 5.5890786700196564 $375 11.194982044426441 $365 $499 forward 7 unknown #
coedge $-1 $500 $247 $250 $378 reversed $240 $-1 #
coedge $-1 $247 $500 $490 $501 forward $240 $-1 #
vertex $-1 $248 $502 #
straight-curve $-1 0 -19.587012401649488 1.3546088425408556 1 0 0 I I #
coedge $-1 $250 $249 $503 $504 reversed $251 $-1 #
edge $-1 $505 -4.3546088425408556 $252 -1.3546088425408556 $250 $506 forward 7 unknown #
point $-1 45.778984954374828 -19.587012401649488 1.3546088425408556 #
point $-1 45.778984954374828 -13.981109027242704 1.3546088425408556 #
loop $-1 $-1 $263 $255 #
plane-surface $-1 -45.778984954374828 0 0 1 0 0 0 0 -1 forward_v I I I I #
coedge $-1 $384 $258 $260 $388 reversed $154 $-1 #
coedge $-1 $258 $383 $507 $508 reversed $154 $-1 #
coedge $-1 $266 $261 $258 $386 forward $256 $-1 #
edge $-1 $389 -18.661315889519614 $509 -16.350756843709512 $385 $510 forward 7 unknown #
coedge $-1 $260 $259 $392 $511 reversed $97 $-1 #
edge $-1 $512 -1.3842187171284396e-014 $389 4.4861908601824796 $383 $513 forward 7 unknown #
vertex $-1 $262 $514 #
straight-curve $-1 -43.468425908564726 -2.985278450096704 4.3546088425408556 0 1 0 I I #
coedge $-1 $507 $263 $266 $396 reversed $381 $-1 #
coedge $-1 $263 $507 $387 $511 forward $381 $-1 #
vertex $-1 $264 $515 #
straight-curve $-1 -45.778984954374828 -9.1493785827748404 23.832516033973171 0 0 1 I I #
straight-curve $-1 -45.77898495437482 -9.1493785827748404 0.50919269733498851 -0.51503806187062418 0 -0.85716730853699208 I I #
edge $-1 $509 2.7917352176119756 $267 9.1493785827748404 $391 $516 forward 7 unknown #
point $-1 -45.778984954374828 -9.1493785827748404 4.3546088425408556 #
point $-1 -43.468425908564726 -9.1493785827748404 4.3546088425408556 #
edge $-1 $517 1 $517 0 $270 $-1 forward 7 unknown #
vertex $-1 $271 $518 #
ellipse-curve $-1 -42.846064900315795 -5.970556900193408 1.3637866167851678 -0.85716730853699208 0 0.51503806187062418 0.51503806187062418 0 0.85716730853699208 1 I I #
point $-1 -44.108667369599161 -5.970556900193408 3.2890680784749167 #
loop $-1 $-1 $282 $274 #
plane-surface $-1 -45.778984954374828 0 0 1 0 0 0 0 -1 forward_v I I I I #
coedge $-1 $406 $277 $279 $410 reversed $169 $-1 #
coedge $-1 $277 $405 $519 $520 reversed $169 $-1 #
coedge $-1 $285 $280 $277 $408 forward $275 $-1 #
edge $-1 $411 -18.661315889519614 $521 -16.350756843709512 $407 $522 forward 7 unknown #
coedge $-1 $279 $278 $414 $523 reversed $106 $-1 #
edge $-1 $524 -1.3842187171284396e-014 $411 4.4861908601824796 $405 $525 forward 7 unknown #
vertex $-1 $281 $526 #
straight-curve $-1 -43.468425908564726 1.4014758436016947 4.3546088425408556 0 1 0 I I #
coedge $-1 $519 $282 $285 $418 reversed $403 $-1 #
coedge $-1 $282 $519 $409 $523 forward $403 $-1 #
vertex $-1 $283 $527 #
straight-curve $-1 -45.778984954374828 -0.37586999537804289 23.832516033973171 0 0 1 I I #
straight-curve $-1 -45.77898495437482 -0.37586999537804289 0.50919269733498851 -0.51503806187062418 0 -0.85716730853699208 I I #
edge $-1 $521 -5.9817733697848219 $286 0.37586999537804289 $413 $528 forward 7 unknown #
point $-1 -45.778984954374828 -0.37586999537804289 4.3546088425408556 #
point $-1 -43.468425908564726 -0.37586999537804289 4.3546088425408556 #
edge $-1 $529 1 $529 0 $289 $-1 forward 7 unknown #
vertex $-1 $290 $530 #
ellipse-curve $-1 -42.846064900315795 2.8029516872033895 1.3637866167851678 -0.85716730853699208 0 0.51503806187062418 0.51503806187062418 0 0.85716730853699208 1 I I #
point $-1 -44.108667369599161 2.8029516872033895 3.2890680784749167 #
loop $-1 $-1 $301 $293 #
plane-surface $-1 -45.778984954374828 0 0 1 0 0 0 0 -1 forward_v I I I I #
coedge $-1 $428 $296 $298 $432 reversed $184 $-1 #
coedge $-1 $296 $427 $531 $532 reversed $184 $-1 #
coedge $-1 $304 $299 $296 $430 forward $294 $-1 #
edge $-1 $433 -18.661315889519614 $533 -16.350756843709512 $429 $534 forward 7 unknown #
coedge $-1 $298 $297 $436 $535 reversed $115 $-1 #
edge $-1 $536 -1.3842187171284396e-014 $433 4.4861908601824796 $427 $537 forward 7 unknown #
vertex $-1 $300 $538 #
straight-curve $-1 -43.468425908564726 5.7882301373000935 4.3546088425408556 0 1 0 I I #
coedge $-1 $531 $301 $304 $440 reversed $425 $-1 #
coedge $-1 $301 $531 $431 $535 forward $425 $-1 #
vertex $-1 $302 $539 #
straight-curve $-1 -45.778984954374828 8.3976385920187546 23.832516033973171 0 0 1 I I #
straight-curve $-1 -45.77898495437482 8.3976385920187546 0.50919269733498851 -0.51503806187062418 0 -0.85716730853699208 I I #
edge $-1 $533 -14.755281957181619 $305 -8.3976385920187546 $435 $540 forward 7 unknown #
point $-1 -45.778984954374828 8.3976385920187546 4.3546088425408556 #
point $-1 -43.468425908564726 8.3976385920187546 4.3546088425408556 #
edge $-1 $541 1 $541 0 $308 $-1 forward 7 unknown #
vertex $-1 $309 $542 #
ellipse-curve $-1 -42.846064900315795 11.576460274600187 1.3637866167851678 -0.85716730853699208 0 0.51503806187062418 0.51503806187062418 0 0.85716730853699208 1 I I #
point $-1 -44.108667369599161 11.576460274600187 3.2890680784749167 #
loop $-1 $-1 $320 $312 #
plane-surface $-1 45.778984954374828 0 0 -1 0 0 0 0 1 forward_v I I I I #
coedge $-1 $450 $315 $543 $544 reversed $199 $-1 #
coedge $-1 $315 $449 $453 $545 reversed $199 $-1 #
edge $-1 $546 -91.557969908749655 $454 -86.538684809834677 $315 $547 forward 7 unknown #
coedge $-1 $317 $316 $457 $548 reversed $124 $-1 #
coedge $-1 $323 $318 $450 $545 forward $313 $-1 #
vertex $-1 $545 $549 #
straight-curve $-1 42.972236406647212 -4.7226660043342914 4.3546088425408556 0 -1 0 I I #
coedge $-1 $543 $320 $323 $461 reversed $447 $-1 #
coedge $-1 $320 $543 $452 $548 forward $447 $-1 #
vertex $-1 $321 $550 #
straight-curve $-1 45.778984954374828 -4.9095549900944597 63.648498330648827 0 0 1 I I #
straight-curve $-1 -5.4195809788143237 -4.9095549900944597 76.098430728108497 0.55919289150049634 0 -0.82903758062907751 I I #
edge $-1 $551 -13.981109027242704 $324 -4.9095549900944597 $456 $552 forward 7 unknown #
point $-1 45.778984954374828 -4.9095549900944597 4.3546088425408556 #
point $-1 42.972236406647212 -4.9095549900944597 4.3546088425408556 #
edge $-1 $553 1 $553 0 $327 $-1 forward 7 unknown #
vertex $-1 $328 $554 #
ellipse-curve $-1 41.27259590837221 -11.38923644520035 0.1810110285868422 0.82903758062907751 0 0.55919289150049634 0.55919289150049634 0 -0.82903758062907751 1 I I #
point $-1 44.934803572011525 -11.38923644520035 1.4449832744657416 #
edge $-1 $555 1 $555 0 $331 $-1 forward 7 unknown #
vertex $-1 $332 $556 #
ellipse-curve $-1 41.27259590837221 -7.5014275721368158 0.1810110285868422 0.82903758062907751 0 0.55919289150049634 0.55919289150049634 0 -0.82903758062907751 1 I I #
point $-1 44.934803572011525 -7.5014275721368158 1.4449832744657416 #
plane-surface $-1 45.778984954374828 0 0 -1 0 0 0 0 1 forward_v I I I I #
coedge $-1 $340 $338 $342 $477 reversed $221 $-1 #
edge $-1 $353 -4.3546088425408556 $479 4.3546088425408556 $352 $557 forward 7 unknown #
vertex $-1 $477 $558 #
straight-curve $-1 -45.778984954374828 -19.587012401649488 0 0 0 -1 I I #
edge $-1 $475 -19.587012401649488 $479 19.587012401649488 $473 $559 forward 7 unknown #
straight-curve $-1 0 -19.587012401649488 -4.3546088425408556 -1 0 0 I I #
vertex $-1 $345 $560 #
straight-curve $-1 0 19.587012401649488 -4.3546088425408556 1 0 0 I I #
point $-1 45.778984954374828 19.587012401649488 -4.3546088425408556 #
point $-1 45.778984954374828 -19.587012401649488 -4.3546088425408556 #
straight-curve $-1 -45.778984954374828 0 4.3546088425408556 0 -1 0 I I #
point $-1 -45.778984954374828 19.587012401649488 4.3546088425408556 #
point $-1 -45.778984954374828 -19.587012401649488 4.3546088425408556 #
straight-curve $-1 45.778984954374828 -19.587012401649488 0 0 0 -1 I I #
straight-curve $-1 45.778984954374828 19.587012401649488 0 0 0 -1 I I #
plane-surface $-1 45.778984954374828 0 0 -1 0 0 0 0 1 forward_v I I I I #
coedge $-1 $491 $503 $368 $495 forward $363 $-1 #
coedge $-1 $366 $365 $374 $501 reversed $146 $-1 #
coedge $-1 $561 $489 $366 $492 forward $363 $-1 #
edge $-1 $493 13.981109027242704 $562 19.587012401649488 $366 $563 forward 7 unknown #
vertex $-1 $492 $564 #
straight-curve $-1 -45.778984954374828 -13.981109027242704 1.4273044212704278 0 0 -1 I I #
edge $-1 $496 -45.778984954374828 $493 45.778984954374828 $489 $565 forward 7 unknown #
vertex $-1 $369 $566 #
straight-curve $-1 45.778984954374828 -13.981109027242704 1.4273044212704278 0 0 1 I I #
point $-1 -45.778984954374828 -13.981109027242704 1.3546088425408556 #
straight-curve $-1 -45.778984954374828 -8.3920303572230477 1.3546088425408556 0 -1 0 I I #
coedge $-1 $374 $373 $561 $567 reversed $240 $-1 #
edge $-1 $562 -4.3546088425408556 $375 -1.3546088425408556 $490 $568 forward 7 unknown #
point $-1 -45.778984954374828 -19.587012401649488 1.3546088425408556 #
coedge $-1 $489 $561 $377 $504 forward $363 $-1 #
edge $-1 $505 -19.587012401649488 $496 -13.981109027242704 $377 $569 forward 7 unknown #
vertex $-1 $504 $570 #
straight-curve $-1 45.778984954374828 -19.587012401649488 0 0 0 -1 I I #
coedge $-1 $392 $391 $384 $508 forward $381 $-1 #
edge $-1 $509 19.477907191432315 $512 23.323323336638193 $507 $571 forward 7 unknown #
vertex $-1 $396 $572 #
straight-curve $-1 -62.129741798084339 -2.7917352176119756 4.3546088425408556 -1 0 0 I I #
edge $-1 $512 -0.19354323248472838 $393 6.1641001326781364 $392 $573 forward 7 unknown #
vertex $-1 $511 $574 #
straight-curve $-1 -45.77898495437482 -2.7917352176119756 0.50919269733498851 0.51503806187062418 0 0.85716730853699208 I I #
point $-1 -43.468425908564726 -2.7917352176119756 4.3546088425408556 #
point $-1 -45.778984954374828 -9.1493785827748404 0.50919269733497663 #
straight-curve $-1 -45.778984954374828 0 4.3546088425408556 0 -1 0 I I #
vertex $-1 $399 $575 #
point $-1 -42.331026838445176 -5.970556900193408 2.22095392532216 #
coedge $-1 $414 $413 $406 $520 forward $403 $-1 #
edge $-1 $521 19.477907191432315 $524 23.323323336638193 $519 $576 forward 7 unknown #
vertex $-1 $418 $577 #
straight-curve $-1 -62.129741798084339 5.9817733697848219 4.3546088425408556 -1 0 0 I I #
edge $-1 $524 -4.5802975261831271 $415 1.7773458389797376 $414 $578 forward 7 unknown #
vertex $-1 $523 $579 #
straight-curve $-1 -45.77898495437482 5.9817733697848219 0.50919269733498851 0.51503806187062418 0 0.85716730853699208 I I #
point $-1 -43.468425908564726 5.9817733697848219 4.3546088425408556 #
point $-1 -45.778984954374828 -0.37586999537804289 0.50919269733497663 #
straight-curve $-1 -45.778984954374828 0 4.3546088425408556 0 -1 0 I I #
vertex $-1 $421 $580 #
point $-1 -42.331026838445176 2.8029516872033895 2.22095392532216 #
coedge $-1 $436 $435 $428 $532 forward $425 $-1 #
edge $-1 $533 19.477907191432315 $536 23.323323336638193 $531 $581 forward 7 unknown #
vertex $-1 $440 $582 #
straight-curve $-1 -62.129741798084339 14.755281957181619 4.3546088425408556 -1 0 0 I I #
edge $-1 $536 -8.9670518198815259 $437 -2.6094084547186611 $436 $583 forward 7 unknown #
vertex $-1 $535 $584 #
straight-curve $-1 -45.77898495437482 14.755281957181619 0.50919269733498851 0.51503806187062418 0 0.85716730853699208 I I #
point $-1 -43.468425908564726 14.755281957181619 4.3546088425408556 #
point $-1 -45.778984954374828 8.3976385920187546 0.50919269733497663 #
straight-curve $-1 -45.778984954374828 0 4.3546088425408556 0 -1 0 I I #
vertex $-1 $443 $585 #
point $-1 -42.331026838445176 11.576460274600187 2.22095392532216 #
coedge $-1 $457 $456 $449 $544 forward $447 $-1 #
edge $-1 $551 59.293889488107972 $546 63.455065463000018 $543 $586 forward 7 unknown #
edge $-1 $454 42.972236406647212 $551 45.778984954374828 $453 $587 forward 7 unknown #
vertex $-1 $544 $588 #
straight-curve $-1 -5.4195809788143237 -13.981109027242706 76.098430728108497 -0.55919289150049634 0 0.82903758062907751 I I #
edge $-1 $546 -9.2584430229084145 $458 -0.18688898576016832 $457 $589 forward 7 unknown #
point $-1 42.972236406647212 -13.981109027242706 4.3546088425408556 #
point $-1 45.778984954374828 -4.9095549900944597 0.19343286764880929 #
vertex $-1 $461 $590 #
straight-curve $-1 45.778984954374828 0 4.3546088425408556 0 1 0 I I #
vertex $-1 $464 $591 #
point $-1 41.831788799872704 -11.38923644520035 -0.64802655204223525 #
vertex $-1 $468 $592 #
point $-1 41.831788799872704 -7.5014275721368158 -0.64802655204223525 #
straight-curve $-1 -45.778984954374828 19.587012401649488 0 0 0 -1 I I #
point $-1 -45.778984954374828 -19.587012401649488 -4.3546088425408556 #
straight-curve $-1 -45.778984954374828 0 -4.3546088425408556 0 1 0 I I #
point $-1 -45.778984954374828 19.587012401649488 -4.3546088425408556 #
coedge $-1 $503 $491 $500 $567 forward $363 $-1 #
vertex $-1 $492 $593 #
straight-curve $-1 -45.778984954374828 0 4.3546088425408556 0 -1 0 I I #
point $-1 -45.778984954374828 -13.981109027242704 4.3546088425408556 #
straight-curve $-1 0 -13.981109027242704 4.3546088425408556 -1 0 0 I I #
point $-1 45.778984954374828 -13.981109027242704 4.3546088425408556 #
edge $-1 $562 -45.778984954374828 $505 45.778984954374828 $500 $594 forward 7 unknown #
straight-curve $-1 -45.778984954374828 -19.587012401649488 0 0 0 -1 I I #
straight-curve $-1 45.778984954374828 0 4.3546088425408556 0 1 0 I I #
point $-1 45.778984954374828 -19.587012401649488 4.3546088425408556 #
straight-curve $-1 -45.778984954374828 -2.7917352176119756 23.832516033973171 0 0 -1 I I #
point $-1 -45.778984954374828 -2.7917352176119756 4.3546088425408556 #
straight-curve $-1 -45.778984954374828 -2.985278450096704 0.50919269733496764 0 -1 0 I I #
point $-1 -45.778984954374828 -2.7917352176119756 0.50919269733497663 #
point $-1 -41.988897591778809 -5.970556900193408 0.84874855491454348 #
straight-curve $-1 -45.778984954374828 5.9817733697848219 23.832516033973171 0 0 -1 I I #
point $-1 -45.778984954374828 5.9817733697848219 4.3546088425408556 #
straight-curve $-1 -45.778984954374828 1.4014758436016947 0.50919269733496764 0 -1 0 I I #
point $-1 -45.778984954374828 5.9817733697848219 0.50919269733497663 #
point $-1 -41.988897591778809 2.8029516872033895 0.84874855491454348 #
straight-curve $-1 -45.778984954374828 14.755281957181619 23.832516033973171 0 0 -1 I I #
point $-1 -45.778984954374828 14.755281957181619 4.3546088425408556 #
straight-curve $-1 -45.778984954374828 5.7882301373000935 0.50919269733496764 0 -1 0 I I #
point $-1 -45.778984954374828 14.755281957181619 0.50919269733497663 #
point $-1 -41.988897591778809 11.576460274600187 0.84874855491454348 #
straight-curve $-1 45.778984954374828 -13.981109027242706 63.648498330648827 0 0 -1 I I #
straight-curve $-1 0 -13.981109027242704 4.3546088425408556 1 0 0 I I #
point $-1 45.778984954374828 -13.981109027242706 0.19343286764880929 #
straight-curve $-1 45.778984954374835 -4.7226660043342914 0.19343286764880219 0 1 0 I I #
point $-1 45.778984954374828 -13.981109027242704 4.3546088425408556 #
point $-1 40.443558327743133 -11.38923644520035 -0.37818186291365413 #
point $-1 40.443558327743133 -7.5014275721368158 -0.37818186291365413 #
point $-1 -45.778984954374828 -19.587012401649488 4.3546088425408556 #
straight-curve $-1 0 -19.587012401649488 4.3546088425408556 1 0 0 I I #
End-of-ACIS-data 