500 0 14 0           
7 Unknown 11 ACIS 5.0 NT 24 Fri Mar 26 02:25:54 1999 
-1 9.9999999999999995e-007 1e-010 
body $-1 $14 $-1 $15 #
body $-1 $16 $-1 $17 #
body $-1 $18 $-1 $19 #
body $-1 $20 $-1 $21 #
body $-1 $22 $-1 $23 #
body $-1 $24 $-1 $25 #
body $-1 $26 $-1 $27 #
body $-1 $28 $-1 $29 #
body $-1 $30 $-1 $31 #
body $-1 $32 $-1 $33 #
body $-1 $34 $-1 $35 #
body $-1 $36 $-1 $37 #
body $-1 $38 $-1 $39 #
body $-1 $40 $-1 $41 #
lump $-1 $-1 $42 $0 #
transform $-1 1 0 0 0 1 0 0 0 1 55.721915341654714 30.184588919426162 11.135973390004182 1 rotate no_reflect no_shear #
lump $-1 $-1 $43 $1 #
transform $-1 1 0 0 0 1 0 0 0 1 55.721915341654714 30.184588919426162 11.135973390004182 1 rotate no_reflect no_shear #
lump $-1 $-1 $44 $2 #
transform $-1 1 0 0 0 1 0 0 0 1 55.721915341654714 30.184588919426162 11.135973390004182 1 rotate no_reflect no_shear #
lump $-1 $-1 $45 $3 #
transform $-1 1 0 0 0 1 0 0 0 1 55.721915341654714 30.184588919426162 11.135973390004182 1 rotate no_reflect no_shear #
lump $-1 $-1 $46 $4 #
transform $-1 1 0 0 0 1 0 0 0 1 55.721915341654714 30.184588919426162 11.135973390004182 1 rotate no_reflect no_shear #
lump $-1 $-1 $47 $5 #
transform $-1 1 0 0 0 1 0 0 0 1 55.721915341654714 30.184588919426162 11.135973390004182 1 rotate no_reflect no_shear #
lump $-1 $-1 $48 $6 #
transform $-1 1 0 0 0 1 0 0 0 1 55.721915341654714 30.184588919426162 11.135973390004182 1 rotate no_reflect no_shear #
lump $-1 $-1 $49 $7 #
transform $-1 1 0 0 0 1 0 0 0 1 55.721915341654714 30.184588919426162 11.135973390004182 1 rotate no_reflect no_shear #
lump $-1 $-1 $50 $8 #
transform $-1 1 0 0 0 1 0 0 0 1 55.721915341654714 30.184588919426162 11.135973390004182 1 rotate no_reflect no_shear #
lump $-1 $-1 $51 $9 #
transform $-1 1 0 0 0 1 0 0 0 1 55.721915341654714 30.184588919426162 11.135973390004182 1 rotate no_reflect no_shear #
lump $-1 $-1 $52 $10 #
transform $-1 1 0 0 0 1 0 0 0 1 55.721915341654714 30.184588919426162 11.135973390004182 1 rotate no_reflect no_shear #
lump $-1 $-1 $53 $11 #
transform $-1 1 0 0 0 1 0 0 0 1 55.721915341654714 30.184588919426162 11.135973390004182 1 rotate no_reflect no_shear #
lump $-1 $-1 $54 $12 #
transform $-1 1 0 0 0 1 0 0 0 1 55.721915341654714 30.184588919426162 11.135973390004182 1 rotate no_reflect no_shear #
lump $-1 $-1 $55 $13 #
transform $-1 1 0 0 0 1 0 0 0 1 55.721915341654714 30.184588919426162 11.135973390004182 1 rotate no_reflect no_shear #
shell $-1 $-1 $-1 $56 $-1 $14 #
shell $-1 $-1 $-1 $57 $-1 $16 #
shell $-1 $-1 $-1 $58 $-1 $18 #
shell $-1 $-1 $-1 $59 $-1 $20 #
shell $-1 $-1 $-1 $60 $-1 $22 #
shell $-1 $-1 $-1 $61 $-1 $24 #
shell $-1 $-1 $-1 $62 $-1 $26 #
shell $-1 $-1 $-1 $63 $-1 $28 #
shell $-1 $-1 $-1 $64 $-1 $30 #
shell $-1 $-1 $-1 $65 $-1 $32 #
shell $-1 $-1 $-1 $66 $-1 $34 #
shell $-1 $-1 $-1 $67 $-1 $36 #
shell $-1 $-1 $-1 $68 $-1 $38 #
shell $-1 $-1 $-1 $69 $-1 $40 #
face $-1 $70 $71 $42 $-1 $72 forward single #
face $-1 $73 $74 $43 $-1 $75 forward single #
face $-1 $76 $77 $44 $-1 $78 reversed single #
face $-1 $79 $80 $45 $-1 $81 forward single #
face $-1 $82 $83 $46 $-1 $84 forward single #
face $-1 $85 $86 $47 $-1 $87 reversed single #
face $-1 $88 $89 $48 $-1 $90 forward single #
face $-1 $91 $92 $49 $-1 $93 forward single #
face $-1 $94 $95 $50 $-1 $96 reversed single #
face $-1 $97 $98 $51 $-1 $99 forward single #
face $-1 $100 $101 $52 $-1 $102 forward single #
face $-1 $103 $104 $53 $-1 $105 reversed single #
face $-1 $106 $107 $54 $-1 $108 forward single #
face $-1 $109 $110 $55 $-1 $111 forward single #
face $-1 $112 $113 $42 $-1 $114 reversed single #
loop $-1 $-1 $115 $56 #
plane-surface $-1 0 0 11.135973390004182 0 0 1 1 0 0 forward_v I I I I #
face $-1 $116 $117 $43 $-1 $118 reversed single #
loop $-1 $-1 $119 $57 #
plane-surface $-1 0 -23.239152971583586 -8.1359733900041817 0 0 1 1 0 0 forward_v I I I I #
face $-1 $120 $121 $44 $-1 $122 reversed single #
loop $-1 $-1 $123 $58 #
plane-surface $-1 -42.515190501706236 82.856512895404578 123.320677212937 -1 0 0 0 0.79863551827123203 0.60181501223851219 forward_v I I I I #
face $-1 $124 $125 $45 $-1 $126 forward single #
loop $-1 $127 $128 $59 #
cone-surface $-1 -51.948565387383724 28.568574804136571 9.2490607801648199 0 -0.79863551827123203 -0.60181501223851219 0.5 0 0 1 I I 0 1 0.5 forward I I I I #
face $-1 $129 $130 $46 $-1 $131 forward single #
loop $-1 $132 $133 $60 #
cone-surface $-1 -46.288540455977227 28.568574804136571 9.2490607801648199 0 -0.79863551827123203 -0.60181501223851219 0.5 0 0 1 I I 0 1 0.5 forward I I I I #
face $-1 $134 $135 $47 $-1 $136 reversed single #
loop $-1 $-1 $137 $61 #
plane-surface $-1 -14.654232830878883 82.856512895404578 123.320677212937 -1 0 0 0 0.79863551827123203 0.60181501223851219 forward_v I I I I #
face $-1 $138 $139 $48 $-1 $140 forward single #
loop $-1 $141 $142 $62 #
cone-surface $-1 -24.087607716556363 28.568574804136571 9.2490607801648199 0 -0.79863551827123203 -0.60181501223851219 0.5 0 0 1 I I 0 1 0.5 forward I I I I #
face $-1 $143 $144 $49 $-1 $145 forward single #
loop $-1 $146 $147 $63 #
cone-surface $-1 -18.427582785149873 28.568574804136571 9.2490607801648199 0 -0.79863551827123203 -0.60181501223851219 0.5 0 0 1 I I 0 1 0.5 forward I I I I #
face $-1 $148 $149 $50 $-1 $150 reversed single #
loop $-1 $-1 $151 $64 #
plane-surface $-1 13.206724839948478 82.856512895404578 123.320677212937 -1 0 0 0 0.79863551827123203 0.60181501223851219 forward_v I I I I #
face $-1 $152 $153 $51 $-1 $154 forward single #
loop $-1 $155 $156 $65 #
cone-surface $-1 3.7733499542709907 28.568574804136571 9.2490607801648199 0 -0.79863551827123203 -0.60181501223851219 0.5 0 0 1 I I 0 1 0.5 forward I I I I #
face $-1 $157 $158 $52 $-1 $159 forward single #
loop $-1 $160 $161 $66 #
cone-surface $-1 9.4333748856774875 28.568574804136571 9.2490607801648199 0 -0.79863551827123203 -0.60181501223851219 0.5 0 0 1 I I 0 1 0.5 forward I I I I #
face $-1 $162 $163 $53 $-1 $164 reversed single #
loop $-1 $-1 $165 $67 #
plane-surface $-1 41.067682510775839 82.856512895404578 123.320677212937 -1 0 0 0 0.79863551827123203 0.60181501223851219 forward_v I I I I #
face $-1 $166 $167 $54 $-1 $168 forward single #
loop $-1 $169 $170 $68 #
cone-surface $-1 31.634307625098351 28.568574804136571 9.2490607801648199 0 -0.79863551827123203 -0.60181501223851219 0.5 0 0 1 I I 0 1 0.5 forward I I I I #
face $-1 $171 $172 $55 $-1 $173 forward single #
loop $-1 $174 $175 $69 #
cone-surface $-1 37.294332556504848 28.568574804136571 9.2490607801648199 0 -0.79863551827123203 -0.60181501223851219 0.5 0 0 1 I I 0 1 0.5 forward I I I I #
face $-1 $176 $177 $42 $-1 $178 reversed single #
loop $-1 $-1 $179 $70 #
plane-surface $-1 0 0 -11.135973390004182 0 0 1 1 0 0 forward_v I I I I #
coedge $-1 $180 $181 $182 $183 forward $71 $-1 #
face $-1 $184 $185 $43 $-1 $186 reversed single #
loop $-1 $-1 $187 $73 #
plane-surface $-1 0 -16.29371702374101 -9.6359733900041817 0 -1 0 0 0 -1 forward_v I I I I #
coedge $-1 $188 $189 $190 $191 reversed $74 $-1 #
face $-1 $192 $193 $44 $-1 $194 reversed single #
loop $-1 $-1 $195 $76 #
plane-surface $-1 -49.118552921680475 -6.1464885804916776 56.252106886354454 0 0.79863551827123203 0.60181501223851219 1 0 0 forward_v I I I I #
coedge $-1 $196 $197 $198 $199 reversed $77 $-1 #
face $-1 $-1 $200 $45 $-1 $201 forward single #
loop $-1 $202 $203 $79 #
cone-surface $-1 -51.948565387383724 27.91971848196679 8.7601124845606861 0 -0.79863551827123203 -0.60181501223851219 0.25 0 0 1 I I -0.70710678118654746 0.70710678118654746 0.25 forward I I I I #
loop $-1 $-1 $204 $59 #
coedge $-1 $128 $128 $205 $206 reversed $80 $-1 #
face $-1 $-1 $207 $46 $-1 $208 forward single #
loop $-1 $209 $210 $82 #
cone-surface $-1 -46.288540455977227 27.91971848196679 8.7601124845606861 0 -0.79863551827123203 -0.60181501223851219 0.25 0 0 1 I I -0.70710678118654746 0.70710678118654746 0.25 forward I I I I #
loop $-1 $-1 $211 $60 #
coedge $-1 $133 $133 $212 $213 reversed $83 $-1 #
face $-1 $214 $215 $47 $-1 $216 reversed single #
loop $-1 $-1 $217 $85 #
plane-surface $-1 -21.257595250853122 -6.1464885804916776 56.252106886354454 0 0.79863551827123203 0.60181501223851219 1 0 0 forward_v I I I I #
coedge $-1 $218 $219 $220 $221 reversed $86 $-1 #
face $-1 $-1 $222 $48 $-1 $223 forward single #
loop $-1 $224 $225 $88 #
cone-surface $-1 -24.087607716556363 27.91971848196679 8.7601124845606861 0 -0.79863551827123203 -0.60181501223851219 0.25 0 0 1 I I -0.70710678118654746 0.70710678118654746 0.25 forward I I I I #
loop $-1 $-1 $226 $62 #
coedge $-1 $142 $142 $227 $228 reversed $89 $-1 #
face $-1 $-1 $229 $49 $-1 $230 forward single #
loop $-1 $231 $232 $91 #
cone-surface $-1 -18.427582785149873 27.91971848196679 8.7601124845606861 0 -0.79863551827123203 -0.60181501223851219 0.25 0 0 1 I I -0.70710678118654746 0.70710678118654746 0.25 forward I I I I #
loop $-1 $-1 $233 $63 #
coedge $-1 $147 $147 $234 $235 reversed $92 $-1 #
face $-1 $236 $237 $50 $-1 $238 reversed single #
loop $-1 $-1 $239 $94 #
plane-surface $-1 6.6033624199742391 -6.1464885804916776 56.252106886354454 0 0.79863551827123203 0.60181501223851219 1 0 0 forward_v I I I I #
coedge $-1 $240 $241 $242 $243 reversed $95 $-1 #
face $-1 $-1 $244 $51 $-1 $245 forward single #
loop $-1 $246 $247 $97 #
cone-surface $-1 3.7733499542709907 27.91971848196679 8.7601124845606861 0 -0.79863551827123203 -0.60181501223851219 0.25 0 0 1 I I -0.70710678118654746 0.70710678118654746 0.25 forward I I I I #
loop $-1 $-1 $248 $65 #
coedge $-1 $156 $156 $249 $250 reversed $98 $-1 #
face $-1 $-1 $251 $52 $-1 $252 forward single #
loop $-1 $253 $254 $100 #
cone-surface $-1 9.4333748856774875 27.91971848196679 8.7601124845606861 0 -0.79863551827123203 -0.60181501223851219 0.25 0 0 1 I I -0.70710678118654746 0.70710678118654746 0.25 forward I I I I #
loop $-1 $-1 $255 $66 #
coedge $-1 $161 $161 $256 $257 reversed $101 $-1 #
face $-1 $258 $259 $53 $-1 $260 reversed single #
loop $-1 $-1 $261 $103 #
plane-surface $-1 34.4643200908016 -6.1464885804916776 56.252106886354454 0 0.79863551827123203 0.60181501223851219 1 0 0 forward_v I I I I #
coedge $-1 $262 $263 $264 $265 reversed $104 $-1 #
face $-1 $-1 $266 $54 $-1 $267 forward single #
loop $-1 $268 $269 $106 #
cone-surface $-1 31.634307625098351 27.91971848196679 8.7601124845606861 0 -0.79863551827123203 -0.60181501223851219 0.25 0 0 1 I I -0.70710678118654746 0.70710678118654746 0.25 forward I I I I #
loop $-1 $-1 $270 $68 #
coedge $-1 $170 $170 $271 $272 reversed $107 $-1 #
face $-1 $-1 $273 $55 $-1 $274 forward single #
loop $-1 $275 $276 $109 #
cone-surface $-1 37.294332556504848 27.91971848196679 8.7601124845606861 0 -0.79863551827123203 -0.60181501223851219 0.25 0 0 1 I I -0.70710678118654746 0.70710678118654746 0.25 forward I I I I #
loop $-1 $-1 $277 $69 #
coedge $-1 $175 $175 $278 $279 reversed $110 $-1 #
face $-1 $280 $281 $42 $-1 $282 reversed single #
loop $-1 $-1 $283 $112 #
plane-surface $-1 0 -30.184588919426162 0 0 1 0 0 0 1 forward_v I I I I #
coedge $-1 $284 $285 $286 $287 forward $113 $-1 #
coedge $-1 $288 $115 $289 $290 forward $71 $-1 #
coedge $-1 $115 $288 $291 $292 forward $71 $-1 #
coedge $-1 $293 $294 $115 $183 reversed $295 $-1 #
edge $-1 $296 -30.184588919426162 $297 30.184588919426162 $182 $298 forward 7 unknown #
face $-1 $299 $300 $43 $-1 $301 reversed single #
loop $-1 $-1 $302 $116 #
plane-surface $-1 0 0 -11.135973390004182 0 0 1 1 0 0 forward_v I I I I #
coedge $-1 $303 $304 $305 $306 reversed $117 $-1 #
coedge $-1 $307 $119 $304 $308 forward $74 $-1 #
coedge $-1 $119 $307 $309 $310 reversed $74 $-1 #
coedge $-1 $311 $305 $119 $191 forward $300 $-1 #
edge $-1 $312 4.6741405379492171 $313 18.565012433634369 $190 $314 forward 7 unknown #
face $-1 $315 $316 $44 $-1 $317 forward single #
loop $-1 $-1 $198 $120 #
plane-surface $-1 0 30.184588919426162 0 0 -1 0 0 0 -1 forward_v I I I I #
coedge $-1 $318 $319 $320 $321 reversed $121 $-1 #
coedge $-1 $197 $123 $322 $323 reversed $77 $-1 #
coedge $-1 $123 $196 $318 $324 reversed $77 $-1 #
coedge $-1 $320 $325 $123 $199 forward $193 $-1 #
edge $-1 $326 50.524365216464318 $327 53.621201351054054 $198 $328 forward 7 unknown #
loop $-1 $-1 $205 $124 #
plane-surface $-1 -49.118552921680475 -6.1464885804916776 56.252106886354454 0 0.79863551827123203 0.60181501223851219 1 0 0 forward_v I I I I #
loop $-1 $-1 $329 $79 #
coedge $-1 $203 $203 $204 $330 reversed $125 $-1 #
coedge $-1 $204 $204 $203 $330 forward $127 $-1 #
coedge $-1 $205 $205 $128 $206 forward $200 $-1 #
edge $-1 $331 -1.358158094167149e-015 $331 6.2831853071795987 $205 $332 forward 7 unknown #
loop $-1 $-1 $212 $129 #
plane-surface $-1 -49.118552921680475 -6.1464885804916776 56.252106886354454 0 0.79863551827123203 0.60181501223851219 1 0 0 forward_v I I I I #
loop $-1 $-1 $333 $82 #
coedge $-1 $210 $210 $211 $334 reversed $130 $-1 #
coedge $-1 $211 $211 $210 $334 forward $132 $-1 #
coedge $-1 $212 $212 $133 $213 forward $207 $-1 #
edge $-1 $335 -1.358158094167149e-015 $335 6.2831853071795987 $212 $336 forward 7 unknown #
face $-1 $337 $338 $47 $-1 $339 forward single #
loop $-1 $-1 $340 $134 #
plane-surface $-1 -27.860957670827361 82.856512895404578 123.320677212937 1 0 0 0 -0.79863551827123203 -0.60181501223851219 forward_v I I I I #
coedge $-1 $341 $342 $343 $344 reversed $135 $-1 #
coedge $-1 $219 $137 $345 $346 reversed $86 $-1 #
coedge $-1 $137 $218 $341 $347 reversed $86 $-1 #
coedge $-1 $343 $348 $137 $221 forward $349 $-1 #
edge $-1 $350 50.524365216464318 $351 53.621201351054054 $220 $352 forward 7 unknown #
loop $-1 $-1 $227 $138 #
plane-surface $-1 -21.257595250853122 -6.1464885804916776 56.252106886354454 0 0.79863551827123203 0.60181501223851219 1 0 0 forward_v I I I I #
loop $-1 $-1 $353 $88 #
coedge $-1 $225 $225 $226 $354 reversed $139 $-1 #
coedge $-1 $226 $226 $225 $354 forward $141 $-1 #
coedge $-1 $227 $227 $142 $228 forward $222 $-1 #
edge $-1 $355 -1.358158094167149e-015 $355 6.2831853071795987 $227 $356 forward 7 unknown #
loop $-1 $-1 $234 $143 #
plane-surface $-1 -21.257595250853122 -6.1464885804916776 56.252106886354454 0 0.79863551827123203 0.60181501223851219 1 0 0 forward_v I I I I #
loop $-1 $-1 $357 $91 #
coedge $-1 $232 $232 $233 $358 reversed $144 $-1 #
coedge $-1 $233 $233 $232 $358 forward $146 $-1 #
coedge $-1 $234 $234 $147 $235 forward $229 $-1 #
edge $-1 $359 -1.358158094167149e-015 $359 6.2831853071795987 $234 $360 forward 7 unknown #
face $-1 $361 $362 $50 $-1 $363 forward single #
loop $-1 $-1 $364 $148 #
plane-surface $-1 0 82.856512895404578 123.320677212937 1 0 0 0 -0.79863551827123203 -0.60181501223851219 forward_v I I I I #
coedge $-1 $365 $366 $367 $368 reversed $149 $-1 #
coedge $-1 $241 $151 $369 $370 reversed $95 $-1 #
coedge $-1 $151 $240 $365 $371 reversed $95 $-1 #
coedge $-1 $367 $372 $151 $243 forward $373 $-1 #
edge $-1 $374 50.524365216464318 $375 53.621201351054054 $242 $376 forward 7 unknown #
loop $-1 $-1 $249 $152 #
plane-surface $-1 6.6033624199742391 -6.1464885804916776 56.252106886354454 0 0.79863551827123203 0.60181501223851219 1 0 0 forward_v I I I I #
loop $-1 $-1 $377 $97 #
coedge $-1 $247 $247 $248 $378 reversed $153 $-1 #
coedge $-1 $248 $248 $247 $378 forward $155 $-1 #
coedge $-1 $249 $249 $156 $250 forward $244 $-1 #
edge $-1 $379 -1.358158094167149e-015 $379 6.2831853071795987 $249 $380 forward 7 unknown #
loop $-1 $-1 $256 $157 #
plane-surface $-1 6.6033624199742391 -6.1464885804916776 56.252106886354454 0 0.79863551827123203 0.60181501223851219 1 0 0 forward_v I I I I #
loop $-1 $-1 $381 $100 #
coedge $-1 $254 $254 $255 $382 reversed $158 $-1 #
coedge $-1 $255 $255 $254 $382 forward $160 $-1 #
coedge $-1 $256 $256 $161 $257 forward $251 $-1 #
edge $-1 $383 -1.358158094167149e-015 $383 6.2831853071795987 $256 $384 forward 7 unknown #
face $-1 $385 $386 $53 $-1 $387 forward single #
loop $-1 $-1 $388 $162 #
plane-surface $-1 27.860957670827361 82.856512895404578 123.320677212937 1 0 0 0 -0.79863551827123203 -0.60181501223851219 forward_v I I I I #
coedge $-1 $389 $390 $391 $392 reversed $163 $-1 #
coedge $-1 $263 $165 $393 $394 reversed $104 $-1 #
coedge $-1 $165 $262 $389 $395 reversed $104 $-1 #
coedge $-1 $391 $396 $165 $265 forward $397 $-1 #
edge $-1 $398 50.524365216464318 $399 53.621201351054054 $264 $400 forward 7 unknown #
loop $-1 $-1 $271 $166 #
plane-surface $-1 34.4643200908016 -6.1464885804916776 56.252106886354454 0 0.79863551827123203 0.60181501223851219 1 0 0 forward_v I I I I #
loop $-1 $-1 $401 $106 #
coedge $-1 $269 $269 $270 $402 reversed $167 $-1 #
coedge $-1 $270 $270 $269 $402 forward $169 $-1 #
coedge $-1 $271 $271 $170 $272 forward $266 $-1 #
edge $-1 $403 -1.358158094167149e-015 $403 6.2831853071795987 $271 $404 forward 7 unknown #
loop $-1 $-1 $278 $171 #
plane-surface $-1 34.4643200908016 -6.1464885804916776 56.252106886354454 0 0.79863551827123203 0.60181501223851219 1 0 0 forward_v I I I I #
loop $-1 $-1 $405 $109 #
coedge $-1 $276 $276 $277 $406 reversed $172 $-1 #
coedge $-1 $277 $277 $276 $406 forward $174 $-1 #
coedge $-1 $278 $278 $175 $279 forward $273 $-1 #
edge $-1 $407 -1.358158094167149e-015 $407 6.2831853071795987 $278 $408 forward 7 unknown #
face $-1 $409 $410 $42 $-1 $411 reversed single #
loop $-1 $-1 $412 $176 #
plane-surface $-1 -55.721915341654714 0 0 1 0 0 0 0 -1 forward_v I I I I #
coedge $-1 $413 $291 $414 $415 forward $177 $-1 #
coedge $-1 $416 $179 $413 $417 forward $113 $-1 #
coedge $-1 $179 $416 $418 $419 forward $113 $-1 #
coedge $-1 $294 $293 $179 $287 reversed $295 $-1 #
edge $-1 $420 -30.184588919426162 $421 30.184588919426162 $286 $422 forward 7 unknown #
coedge $-1 $181 $180 $423 $424 forward $71 $-1 #
coedge $-1 $425 $426 $180 $290 reversed $410 $-1 #
edge $-1 $297 -55.721915341654714 $427 55.721915341654714 $289 $428 forward 7 unknown #
coedge $-1 $283 $429 $181 $292 reversed $177 $-1 #
edge $-1 $430 -55.721915341654714 $296 55.721915341654714 $291 $431 forward 7 unknown #
coedge $-1 $286 $182 $429 $432 forward $295 $-1 #
coedge $-1 $182 $286 $425 $433 reversed $295 $-1 #
loop $-1 $-1 $293 $409 #
vertex $-1 $183 $434 #
vertex $-1 $183 $435 #
straight-curve $-1 55.721915341654714 0 11.135973390004182 0 1 0 I I #
face $-1 $436 $437 $43 $-1 $438 reversed single #
loop $-1 $-1 $305 $184 #
plane-surface $-1 55.721915341654714 0 0 -1 0 0 0 0 1 forward_v I I I I #
coedge $-1 $439 $440 $303 $441 forward $185 $-1 #
coedge $-1 $442 $187 $302 $441 reversed $117 $-1 #
coedge $-1 $187 $442 $188 $308 reversed $117 $-1 #
coedge $-1 $190 $443 $187 $306 forward $300 $-1 #
edge $-1 $444 -6.3179866950020909 $312 -3.3179866950020909 $305 $445 forward 7 unknown #
coedge $-1 $189 $188 $446 $447 reversed $74 $-1 #
edge $-1 $312 -55.721915341654714 $448 55.721915341654714 $304 $449 forward 7 unknown #
coedge $-1 $450 $451 $189 $310 forward $437 $-1 #
edge $-1 $313 -55.721915341654714 $452 55.721915341654714 $309 $453 forward 7 unknown #
coedge $-1 $443 $190 $451 $454 forward $300 $-1 #
vertex $-1 $191 $455 #
vertex $-1 $454 $456 #
straight-curve $-1 55.721915341654714 -11.619576485791793 -8.1359733900041817 0 -1 0 I I #
face $-1 $-1 $457 $44 $-1 $458 reversed single #
loop $-1 $-1 $322 $192 #
plane-surface $-1 0 0 11.135973390004182 0 0 1 1 0 0 forward_v I I I I #
coedge $-1 $459 $195 $197 $324 forward $121 $-1 #
coedge $-1 $195 $459 $460 $461 reversed $121 $-1 #
coedge $-1 $462 $198 $195 $321 forward $193 $-1 #
edge $-1 $327 17.955914040865999 $463 31.162638880814477 $320 $464 forward 7 unknown #
coedge $-1 $465 $466 $196 $323 forward $316 $-1 #
edge $-1 $467 -13.577300873651375 $326 -11.243667528276127 $322 $468 forward 7 unknown #
edge $-1 $327 -60.36917783885233 $467 -56.491518927195969 $197 $469 forward 7 unknown #
coedge $-1 $198 $462 $465 $470 reversed $193 $-1 #
vertex $-1 $470 $471 #
vertex $-1 $199 $472 #
straight-curve $-1 -42.515190501706236 30.184588919426162 61.6603386064685 0 0 -1 I I #
coedge $-1 $329 $329 $-1 $473 reversed $202 $-1 #
edge $-1 $474 0 $474 6.2831853071796004 $203 $475 forward 7 unknown #
vertex $-1 $206 $476 #
ellipse-curve $-1 -51.948565387383724 29.017772246738531 9.5875553227093153 0 0.79863551827123203 0.60181501223851219 0.5 0 0 1 I I #
coedge $-1 $333 $333 $-1 $477 reversed $209 $-1 #
edge $-1 $478 0 $478 6.2831853071796004 $210 $479 forward 7 unknown #
vertex $-1 $213 $480 #
ellipse-curve $-1 -46.288540455977227 29.017772246738531 9.5875553227093153 0 0.79863551827123203 0.60181501223851219 0.5 0 0 1 I I #
face $-1 $-1 $349 $47 $-1 $481 reversed single #
loop $-1 $-1 $482 $214 #
plane-surface $-1 0 0 11.135973390004182 0 0 1 1 0 0 forward_v I I I I #
coedge $-1 $483 $484 $485 $486 reversed $215 $-1 #
coedge $-1 $487 $217 $219 $347 forward $135 $-1 #
coedge $-1 $217 $487 $483 $488 forward $135 $-1 #
coedge $-1 $485 $220 $217 $344 forward $349 $-1 #
edge $-1 $351 4.0254352054523217 $489 17.2321600454008 $343 $490 forward 7 unknown #
coedge $-1 $491 $492 $218 $346 forward $338 $-1 #
edge $-1 $493 -13.577300873651375 $350 -11.243667528276127 $345 $494 forward 7 unknown #
edge $-1 $351 -60.36917783885233 $493 -56.491518927195969 $219 $495 forward 7 unknown #
coedge $-1 $220 $485 $491 $496 reversed $349 $-1 #
loop $-1 $-1 $485 $337 #
vertex $-1 $496 $497 #
vertex $-1 $221 $498 #
straight-curve $-1 -14.654232830878883 30.184588919426162 61.6603386064685 0 0 -1 I I #
coedge $-1 $353 $353 $-1 $499 reversed $224 $-1 #
edge $-1 $500 0 $500 6.2831853071796004 $225 $501 forward 7 unknown #
vertex $-1 $228 $502 #
ellipse-curve $-1 -24.087607716556363 29.017772246738531 9.5875553227093153 0 0.79863551827123203 0.60181501223851219 0.5 0 0 1 I I #
coedge $-1 $357 $357 $-1 $503 reversed $231 $-1 #
edge $-1 $504 0 $504 6.2831853071796004 $232 $505 forward 7 unknown #
vertex $-1 $235 $506 #
ellipse-curve $-1 -18.427582785149873 29.017772246738531 9.5875553227093153 0 0.79863551827123203 0.60181501223851219 0.5 0 0 1 I I #
face $-1 $-1 $373 $50 $-1 $507 reversed single #
loop $-1 $-1 $508 $236 #
plane-surface $-1 0 0 11.135973390004182 0 0 1 1 0 0 forward_v I I I I #
coedge $-1 $509 $510 $511 $512 reversed $237 $-1 #
coedge $-1 $513 $239 $241 $371 forward $149 $-1 #
coedge $-1 $239 $513 $509 $514 forward $149 $-1 #
coedge $-1 $511 $242 $239 $368 forward $373 $-1 #
edge $-1 $375 -9.9050436299613587 $515 3.3016812099871196 $367 $516 forward 7 unknown #
coedge $-1 $517 $518 $240 $370 forward $362 $-1 #
edge $-1 $519 -13.577300873651375 $374 -11.243667528276127 $369 $520 forward 7 unknown #
edge $-1 $375 -60.36917783885233 $519 -56.491518927195969 $241 $521 forward 7 unknown #
coedge $-1 $242 $511 $517 $522 reversed $373 $-1 #
loop $-1 $-1 $511 $361 #
vertex $-1 $522 $523 #
vertex $-1 $243 $524 #
straight-curve $-1 13.206724839948478 30.184588919426162 61.6603386064685 0 0 -1 I I #
coedge $-1 $377 $377 $-1 $525 reversed $246 $-1 #
edge $-1 $526 0 $526 6.2831853071796004 $247 $527 forward 7 unknown #
vertex $-1 $250 $528 #
ellipse-curve $-1 3.7733499542709907 29.017772246738531 9.5875553227093153 0 0.79863551827123203 0.60181501223851219 0.5 0 0 1 I I #
coedge $-1 $381 $381 $-1 $529 reversed $253 $-1 #
edge $-1 $530 0 $530 6.2831853071796004 $254 $531 forward 7 unknown #
vertex $-1 $257 $532 #
ellipse-curve $-1 9.4333748856774875 29.017772246738531 9.5875553227093153 0 0.79863551827123203 0.60181501223851219 0.5 0 0 1 I I #
face $-1 $-1 $397 $53 $-1 $533 reversed single #
loop $-1 $-1 $534 $258 #
plane-surface $-1 0 0 11.135973390004182 0 0 1 1 0 0 forward_v I I I I #
coedge $-1 $535 $536 $537 $538 reversed $259 $-1 #
coedge $-1 $539 $261 $263 $395 forward $163 $-1 #
coedge $-1 $261 $539 $535 $540 forward $163 $-1 #
coedge $-1 $537 $264 $261 $392 forward $397 $-1 #
edge $-1 $399 -23.835522465375039 $541 -10.628797625426561 $391 $542 forward 7 unknown #
coedge $-1 $543 $544 $262 $394 forward $386 $-1 #
edge $-1 $545 -13.577300873651375 $398 -11.243667528276127 $393 $546 forward 7 unknown #
edge $-1 $399 -60.36917783885233 $545 -56.491518927195969 $263 $547 forward 7 unknown #
coedge $-1 $264 $537 $543 $548 reversed $397 $-1 #
loop $-1 $-1 $537 $385 #
vertex $-1 $548 $549 #
vertex $-1 $265 $550 #
straight-curve $-1 41.067682510775839 30.184588919426162 61.6603386064685 0 0 -1 I I #
coedge $-1 $401 $401 $-1 $551 reversed $268 $-1 #
edge $-1 $552 0 $552 6.2831853071796004 $269 $553 forward 7 unknown #
vertex $-1 $272 $554 #
ellipse-curve $-1 31.634307625098351 29.017772246738531 9.5875553227093153 0 0.79863551827123203 0.60181501223851219 0.5 0 0 1 I I #
coedge $-1 $405 $405 $-1 $555 reversed $275 $-1 #
edge $-1 $556 0 $556 6.2831853071796004 $276 $557 forward 7 unknown #
vertex $-1 $279 $558 #
ellipse-curve $-1 37.294332556504848 29.017772246738531 9.5875553227093153 0 0.79863551827123203 0.60181501223851219 0.5 0 0 1 I I #
face $-1 $-1 $295 $42 $-1 $559 reversed single #
loop $-1 $-1 $425 $280 #
plane-surface $-1 0 30.184588919426162 0 0 -1 0 0 0 -1 forward_v I I I I #
coedge $-1 $560 $423 $426 $561 forward $281 $-1 #
coedge $-1 $429 $283 $284 $417 reversed $177 $-1 #
coedge $-1 $423 $560 $283 $415 reversed $281 $-1 #
edge $-1 $430 -11.135973390004182 $562 11.135973390004182 $414 $563 forward 7 unknown #
coedge $-1 $285 $284 $560 $564 forward $113 $-1 #
edge $-1 $421 -55.721915341654714 $562 55.721915341654714 $413 $565 forward 7 unknown #
coedge $-1 $426 $425 $285 $419 reversed $410 $-1 #
edge $-1 $566 -55.721915341654714 $420 55.721915341654714 $418 $567 forward 7 unknown #
vertex $-1 $287 $568 #
vertex $-1 $432 $569 #
straight-curve $-1 55.721915341654714 0 -11.135973390004182 0 -1 0 I I #
coedge $-1 $412 $414 $288 $424 reversed $281 $-1 #
edge $-1 $427 -30.184588919426162 $430 30.184588919426162 $423 $570 forward 7 unknown #
coedge $-1 $418 $289 $294 $433 forward $410 $-1 #
coedge $-1 $289 $418 $412 $561 reversed $410 $-1 #
vertex $-1 $290 $571 #
straight-curve $-1 0 30.184588919426162 11.135973390004182 -1 0 0 I I #
coedge $-1 $291 $413 $293 $432 reversed $177 $-1 #
vertex $-1 $424 $572 #
straight-curve $-1 0 -30.184588919426162 11.135973390004182 1 0 0 I I #
edge $-1 $296 -11.135973390004182 $421 11.135973390004182 $293 $573 forward 7 unknown #
edge $-1 $297 -11.135973390004182 $420 11.135973390004182 $294 $574 forward 7 unknown #
point $-1 55.721915341654714 -30.184588919426162 11.135973390004182 #
point $-1 55.721915341654714 30.184588919426162 11.135973390004182 #
face $-1 $-1 $575 $43 $-1 $576 reversed single #
loop $-1 $-1 $309 $299 #
plane-surface $-1 0 -30.184588919426162 0 0 1 0 0 0 1 forward_v I I I I #
coedge $-1 $577 $302 $443 $578 forward $185 $-1 #
coedge $-1 $302 $577 $579 $580 forward $185 $-1 #
edge $-1 $581 -55.721915341654714 $444 55.721915341654714 $302 $582 forward 7 unknown #
coedge $-1 $304 $303 $583 $584 reversed $117 $-1 #
coedge $-1 $305 $311 $439 $578 reversed $300 $-1 #
vertex $-1 $578 $585 #
straight-curve $-1 55.721915341654714 -16.29371702374101 -4.8179866950020909 0 0 1 I I #
coedge $-1 $583 $586 $307 $447 forward $575 $-1 #
edge $-1 $452 -18.565012433634369 $448 -4.6741405379492171 $446 $587 forward 7 unknown #
vertex $-1 $447 $588 #
straight-curve $-1 0 -16.29371702374101 -8.1359733900041817 -1 0 0 I I #
coedge $-1 $589 $309 $586 $590 forward $437 $-1 #
coedge $-1 $309 $589 $311 $454 reversed $437 $-1 #
vertex $-1 $590 $591 #
straight-curve $-1 0 -30.184588919426162 -8.1359733900041817 -1 0 0 I I #
edge $-1 $313 8.1359733900041817 $592 11.135973390004182 $311 $593 forward 7 unknown #
point $-1 55.721915341654714 -16.29371702374101 -8.1359733900041817 #
point $-1 55.721915341654714 -30.184588919426162 -8.1359733900041817 #
loop $-1 $-1 $460 $315 #
plane-surface $-1 -55.721915341654714 0 0 1 0 0 0 0 -1 forward_v I I I I #
coedge $-1 $319 $318 $466 $594 reversed $121 $-1 #
coedge $-1 $595 $596 $319 $461 forward $457 $-1 #
edge $-1 $463 -36.057188020189884 $597 -32.179529108533522 $460 $598 forward 7 unknown #
coedge $-1 $325 $320 $596 $599 reversed $193 $-1 #
vertex $-1 $321 $600 #
straight-curve $-1 -24.559276460840238 30.184588919426162 8.0391372554144453 -1 0 0 I I #
coedge $-1 $601 $322 $325 $470 forward $316 $-1 #
coedge $-1 $322 $601 $459 $594 forward $316 $-1 #
vertex $-1 $323 $602 #
straight-curve $-1 -42.515190501706236 41.428256447702289 11.135973390004182 0 1 0 I I #
straight-curve $-1 -42.515190501706236 -6.1464885804916776 56.252106886354454 0 -0.60181501223851219 0.79863551827123203 I I #
edge $-1 $326 42.515190501706236 $603 55.721915341654714 $325 $604 forward 7 unknown #
point $-1 -42.515190501706236 30.184588919426162 11.135973390004182 #
point $-1 -42.515190501706236 30.184588919426162 8.0391372554144453 #
edge $-1 $605 1 $605 0 $329 $-1 forward 7 unknown #
vertex $-1 $330 $606 #
ellipse-curve $-1 -51.948565387383724 28.119377361534596 8.9105662376203139 0 0.79863551827123203 0.60181501223851219 0.5 0 0 1 I I #
point $-1 -51.448565387383724 29.017772246738541 9.5875553227093242 #
edge $-1 $607 1 $607 0 $333 $-1 forward 7 unknown #
vertex $-1 $334 $608 #
ellipse-curve $-1 -46.288540455977227 28.119377361534596 8.9105662376203139 0 0.79863551827123203 0.60181501223851219 0.5 0 0 1 I I #
point $-1 -45.788540455977227 29.017772246738541 9.5875553227093242 #
plane-surface $-1 0 30.184588919426162 0 0 -1 0 0 0 -1 forward_v I I I I #
coedge $-1 $492 $491 $484 $609 forward $338 $-1 #
coedge $-1 $484 $340 $342 $488 reversed $215 $-1 #
coedge $-1 $340 $483 $482 $609 reversed $215 $-1 #
coedge $-1 $348 $343 $340 $486 forward $349 $-1 #
edge $-1 $489 -53.621201351054054 $610 -50.524365216464318 $485 $611 forward 7 unknown #
coedge $-1 $342 $341 $492 $612 reversed $135 $-1 #
edge $-1 $613 56.491518927195969 $489 60.36917783885233 $483 $614 forward 7 unknown #
vertex $-1 $344 $615 #
straight-curve $-1 -10.628797625426561 30.184588919426162 8.0391372554144453 -1 0 0 I I #
coedge $-1 $482 $345 $348 $496 forward $338 $-1 #
coedge $-1 $345 $482 $487 $612 forward $338 $-1 #
vertex $-1 $346 $616 #
straight-curve $-1 -14.654232830878883 41.428256447702289 11.135973390004182 0 1 0 I I #
straight-curve $-1 -14.654232830878883 -6.1464885804916776 56.252106886354454 0 -0.60181501223851219 0.79863551827123203 I I #
edge $-1 $350 14.654232830878883 $610 27.860957670827361 $348 $617 forward 7 unknown #
point $-1 -14.654232830878883 30.184588919426162 11.135973390004182 #
point $-1 -14.654232830878883 30.184588919426162 8.0391372554144453 #
edge $-1 $618 1 $618 0 $353 $-1 forward 7 unknown #
vertex $-1 $354 $619 #
ellipse-curve $-1 -24.087607716556363 28.119377361534596 8.9105662376203139 0 0.79863551827123203 0.60181501223851219 0.5 0 0 1 I I #
point $-1 -23.587607716556363 29.017772246738541 9.5875553227093242 #
edge $-1 $620 1 $620 0 $357 $-1 forward 7 unknown #
vertex $-1 $358 $621 #
ellipse-curve $-1 -18.427582785149873 28.119377361534596 8.9105662376203139 0 0.79863551827123203 0.60181501223851219 0.5 0 0 1 I I #
point $-1 -17.927582785149873 29.017772246738541 9.5875553227093242 #
plane-surface $-1 0 30.184588919426162 0 0 -1 0 0 0 -1 forward_v I I I I #
coedge $-1 $518 $517 $510 $622 forward $362 $-1 #
coedge $-1 $510 $364 $366 $514 reversed $237 $-1 #
coedge $-1 $364 $509 $508 $622 reversed $237 $-1 #
coedge $-1 $372 $367 $364 $512 forward $373 $-1 #
edge $-1 $515 -53.621201351054054 $623 -50.524365216464318 $511 $624 forward 7 unknown #
coedge $-1 $366 $365 $518 $625 reversed $149 $-1 #
edge $-1 $626 56.491518927195969 $515 60.36917783885233 $509 $627 forward 7 unknown #
vertex $-1 $368 $628 #
straight-curve $-1 3.3016812099871196 30.184588919426162 8.0391372554144453 -1 0 0 I I #
coedge $-1 $508 $369 $372 $522 forward $362 $-1 #
coedge $-1 $369 $508 $513 $625 forward $362 $-1 #
vertex $-1 $370 $629 #
straight-curve $-1 13.206724839948478 41.428256447702289 11.135973390004182 0 1 0 I I #
straight-curve $-1 13.206724839948478 -6.1464885804916776 56.252106886354454 0 -0.60181501223851219 0.79863551827123203 I I #
edge $-1 $374 -13.206724839948478 $623 0 $372 $630 forward 7 unknown #
point $-1 13.206724839948478 30.184588919426162 11.135973390004182 #
point $-1 13.206724839948478 30.184588919426162 8.0391372554144453 #
edge $-1 $631 1 $631 0 $377 $-1 forward 7 unknown #
vertex $-1 $378 $632 #
ellipse-curve $-1 3.7733499542709907 28.119377361534596 8.9105662376203139 0 0.79863551827123203 0.60181501223851219 0.5 0 0 1 I I #
point $-1 4.2733499542709907 29.017772246738541 9.5875553227093242 #
edge $-1 $633 1 $633 0 $381 $-1 forward 7 unknown #
vertex $-1 $382 $634 #
ellipse-curve $-1 9.4333748856774875 28.119377361534596 8.9105662376203139 0 0.79863551827123203 0.60181501223851219 0.5 0 0 1 I I #
point $-1 9.9333748856774875 29.017772246738541 9.5875553227093242 #
plane-surface $-1 0 30.184588919426162 0 0 -1 0 0 0 -1 forward_v I I I I #
coedge $-1 $544 $543 $536 $635 forward $386 $-1 #
coedge $-1 $536 $388 $390 $540 reversed $259 $-1 #
coedge $-1 $388 $535 $534 $635 reversed $259 $-1 #
coedge $-1 $396 $391 $388 $538 forward $397 $-1 #
edge $-1 $541 -53.621201351054054 $636 -50.524365216464318 $537 $637 forward 7 unknown #
coedge $-1 $390 $389 $544 $638 reversed $163 $-1 #
edge $-1 $639 56.491518927195969 $541 60.36917783885233 $535 $640 forward 7 unknown #
vertex $-1 $392 $641 #
straight-curve $-1 17.2321600454008 30.184588919426162 8.0391372554144453 -1 0 0 I I #
coedge $-1 $534 $393 $396 $548 forward $386 $-1 #
coedge $-1 $393 $534 $539 $638 forward $386 $-1 #
vertex $-1 $394 $642 #
straight-curve $-1 41.067682510775839 41.428256447702289 11.135973390004182 0 1 0 I I #
straight-curve $-1 41.067682510775839 -6.1464885804916776 56.252106886354454 0 -0.60181501223851219 0.79863551827123203 I I #
edge $-1 $398 -41.067682510775839 $636 -27.860957670827361 $396 $643 forward 7 unknown #
point $-1 41.067682510775839 30.184588919426162 11.135973390004182 #
point $-1 41.067682510775839 30.184588919426162 8.0391372554144453 #
edge $-1 $644 1 $644 0 $401 $-1 forward 7 unknown #
vertex $-1 $402 $645 #
ellipse-curve $-1 31.634307625098351 28.119377361534596 8.9105662376203139 0 0.79863551827123203 0.60181501223851219 0.5 0 0 1 I I #
point $-1 32.134307625098351 29.017772246738541 9.5875553227093242 #
edge $-1 $646 1 $646 0 $405 $-1 forward 7 unknown #
vertex $-1 $406 $647 #
ellipse-curve $-1 37.294332556504848 28.119377361534596 8.9105662376203139 0 0.79863551827123203 0.60181501223851219 0.5 0 0 1 I I #
point $-1 37.794332556504848 29.017772246738541 9.5875553227093242 #
plane-surface $-1 55.721915341654714 0 0 -1 0 0 0 0 1 forward_v I I I I #
coedge $-1 $414 $412 $416 $564 reversed $281 $-1 #
edge $-1 $427 -11.135973390004182 $566 11.135973390004182 $426 $648 forward 7 unknown #
vertex $-1 $564 $649 #
straight-curve $-1 -55.721915341654714 -30.184588919426162 0 0 0 -1 I I #
edge $-1 $562 -30.184588919426162 $566 30.184588919426162 $560 $650 forward 7 unknown #
straight-curve $-1 0 -30.184588919426162 -11.135973390004182 -1 0 0 I I #
vertex $-1 $419 $651 #
straight-curve $-1 0 30.184588919426162 -11.135973390004182 1 0 0 I I #
point $-1 55.721915341654714 30.184588919426162 -11.135973390004182 #
point $-1 55.721915341654714 -30.184588919426162 -11.135973390004182 #
straight-curve $-1 -55.721915341654714 0 11.135973390004182 0 -1 0 I I #
point $-1 -55.721915341654714 30.184588919426162 11.135973390004182 #
point $-1 -55.721915341654714 -30.184588919426162 11.135973390004182 #
straight-curve $-1 55.721915341654714 -30.184588919426162 0 0 0 -1 I I #
straight-curve $-1 55.721915341654714 30.184588919426162 0 0 0 -1 I I #
loop $-1 $-1 $583 $436 #
plane-surface $-1 -55.721915341654714 0 0 1 0 0 0 0 -1 forward_v I I I I #
coedge $-1 $440 $439 $589 $652 forward $185 $-1 #
edge $-1 $444 16.29371702374101 $592 30.184588919426162 $443 $653 forward 7 unknown #
coedge $-1 $586 $583 $440 $580 reversed $575 $-1 #
edge $-1 $654 -30.184588919426162 $581 -16.29371702374101 $579 $655 forward 7 unknown #
vertex $-1 $584 $656 #
straight-curve $-1 0 -16.29371702374101 -11.135973390004182 1 0 0 I I #
coedge $-1 $579 $446 $442 $584 forward $575 $-1 #
edge $-1 $448 3.3179866950020909 $581 6.3179866950020909 $583 $657 forward 7 unknown #
point $-1 55.721915341654714 -16.29371702374101 -11.135973390004182 #
coedge $-1 $446 $579 $450 $590 reversed $575 $-1 #
straight-curve $-1 -55.721915341654714 -11.619576485791793 -8.1359733900041817 0 1 0 I I #
point $-1 -55.721915341654714 -16.29371702374101 -8.1359733900041817 #
coedge $-1 $451 $450 $577 $652 reversed $437 $-1 #
edge $-1 $452 8.1359733900041817 $654 11.135973390004182 $586 $658 forward 7 unknown #
point $-1 -55.721915341654714 -30.184588919426162 -8.1359733900041817 #
vertex $-1 $454 $659 #
straight-curve $-1 55.721915341654714 -30.184588919426162 0 0 0 -1 I I #
edge $-1 $597 -31.162638880814477 $467 -17.955914040865999 $466 $660 forward 7 unknown #
coedge $-1 $596 $460 $601 $661 reversed $457 $-1 #
coedge $-1 $460 $595 $462 $599 forward $457 $-1 #
vertex $-1 $461 $662 #
straight-curve $-1 -55.721915341654714 8.4848318697692502 36.835688297322051 0 -0.60181501223851219 0.79863551827123203 I I #
edge $-1 $603 -11.135973390004182 $463 -8.0391372554144418 $462 $663 forward 7 unknown #
point $-1 -55.721915341654714 30.184588919426162 8.0391372554144418 #
coedge $-1 $466 $465 $595 $661 forward $316 $-1 #
point $-1 -42.515190501706236 27.850955574050914 11.135973390004182 #
vertex $-1 $470 $664 #
straight-curve $-1 0 30.184588919426162 11.135973390004182 -1 0 0 I I #
vertex $-1 $473 $665 #
point $-1 -51.448565387383724 28.119377361534596 8.9105662376203139 #
vertex $-1 $477 $666 #
point $-1 -45.788540455977227 28.119377361534596 8.9105662376203139 #
edge $-1 $610 11.243667528276127 $613 13.577300873651375 $482 $667 forward 7 unknown #
vertex $-1 $609 $668 #
straight-curve $-1 -27.860957670827361 30.184588919426162 61.6603386064685 0 0 1 I I #
edge $-1 $613 -17.2321600454008 $493 -4.0254352054523217 $492 $669 forward 7 unknown #
vertex $-1 $612 $670 #
straight-curve $-1 -27.860957670827361 -6.1464885804916776 56.252106886354454 0 0.60181501223851219 -0.79863551827123203 I I #
point $-1 -27.860957670827361 30.184588919426162 8.0391372554144453 #
point $-1 -14.654232830878883 27.850955574050914 11.135973390004182 #
straight-curve $-1 0 30.184588919426162 11.135973390004182 -1 0 0 I I #
vertex $-1 $499 $671 #
point $-1 -23.587607716556363 28.119377361534596 8.9105662376203139 #
vertex $-1 $503 $672 #
point $-1 -17.927582785149873 28.119377361534596 8.9105662376203139 #
edge $-1 $623 11.243667528276127 $626 13.577300873651375 $508 $673 forward 7 unknown #
vertex $-1 $512 $674 #
straight-curve $-1 0 30.184588919426162 61.6603386064685 0 0 1 I I #
edge $-1 $626 -3.3016812099871196 $519 9.9050436299613587 $518 $675 forward 7 unknown #
vertex $-1 $625 $676 #
straight-curve $-1 0 -6.1464885804916776 56.252106886354454 0 0.60181501223851219 -0.79863551827123203 I I #
point $-1 0 30.184588919426162 8.0391372554144453 #
point $-1 13.206724839948478 27.850955574050914 11.135973390004182 #
straight-curve $-1 0 30.184588919426162 11.135973390004182 -1 0 0 I I #
vertex $-1 $525 $677 #
point $-1 4.2733499542709907 28.119377361534596 8.9105662376203139 #
vertex $-1 $529 $678 #
point $-1 9.9333748856774875 28.119377361534596 8.9105662376203139 #
edge $-1 $636 11.243667528276127 $639 13.577300873651375 $534 $679 forward 7 unknown #
vertex $-1 $538 $680 #
straight-curve $-1 27.860957670827361 30.184588919426162 61.6603386064685 0 0 1 I I #
edge $-1 $639 10.628797625426561 $545 23.835522465375039 $544 $681 forward 7 unknown #
vertex $-1 $638 $682 #
straight-curve $-1 27.860957670827361 -6.1464885804916776 56.252106886354454 0 0.60181501223851219 -0.79863551827123203 I I #
point $-1 27.860957670827361 30.184588919426162 8.0391372554144453 #
point $-1 41.067682510775839 27.850955574050914 11.135973390004182 #
straight-curve $-1 0 30.184588919426162 11.135973390004182 -1 0 0 I I #
vertex $-1 $551 $683 #
point $-1 32.134307625098351 28.119377361534596 8.9105662376203139 #
vertex $-1 $555 $684 #
point $-1 37.794332556504848 28.119377361534596 8.9105662376203139 #
straight-curve $-1 -55.721915341654714 30.184588919426162 0 0 0 -1 I I #
point $-1 -55.721915341654714 -30.184588919426162 -11.135973390004182 #
straight-curve $-1 -55.721915341654714 0 -11.135973390004182 0 1 0 I I #
point $-1 -55.721915341654714 30.184588919426162 -11.135973390004182 #
edge $-1 $592 -55.721915341654714 $654 55.721915341654714 $589 $685 forward 7 unknown #
straight-curve $-1 55.721915341654714 0 -11.135973390004182 0 -1 0 I I #
vertex $-1 $580 $686 #
straight-curve $-1 -55.721915341654714 0 -11.135973390004182 0 1 0 I I #
point $-1 -55.721915341654714 -16.29371702374101 -11.135973390004182 #
straight-curve $-1 -55.721915341654714 -16.29371702374101 -4.8179866950020909 0 0 -1 I I #
straight-curve $-1 -55.721915341654714 -30.184588919426162 0 0 0 -1 I I #
point $-1 55.721915341654714 -30.184588919426162 -11.135973390004182 #
straight-curve $-1 -24.559276460840238 27.850955574050907 11.135973390004185 1 0 0 I I #
edge $-1 $603 -30.184588919426162 $597 -27.850955574050914 $595 $687 forward 7 unknown #
point $-1 -55.721915341654714 27.850955574050914 11.135973390004182 #
straight-curve $-1 -55.721915341654714 30.184588919426162 0 0 0 -1 I I #
point $-1 -55.721915341654714 30.184588919426162 11.135973390004182 #
point $-1 -51.948565387383724 27.720059602398983 8.6096587315010584 #
point $-1 -46.288540455977227 27.720059602398983 8.6096587315010584 #
straight-curve $-1 -27.860957670827361 41.428256447702289 11.135973390004182 0 -1 0 I I #
point $-1 -27.860957670827361 30.184588919426162 11.135973390004182 #
straight-curve $-1 -10.628797625426561 27.850955574050907 11.135973390004185 1 0 0 I I #
point $-1 -27.860957670827361 27.850955574050914 11.135973390004182 #
point $-1 -24.087607716556363 27.720059602398983 8.6096587315010584 #
point $-1 -18.427582785149873 27.720059602398983 8.6096587315010584 #
straight-curve $-1 0 41.428256447702289 11.135973390004182 0 -1 0 I I #
point $-1 0 30.184588919426162 11.135973390004182 #
straight-curve $-1 3.3016812099871196 27.850955574050907 11.135973390004185 1 0 0 I I #
point $-1 0 27.850955574050914 11.135973390004182 #
point $-1 3.7733499542709907 27.720059602398983 8.6096587315010584 #
point $-1 9.4333748856774875 27.720059602398983 8.6096587315010584 #
straight-curve $-1 27.860957670827361 41.428256447702289 11.135973390004182 0 -1 0 I I #
point $-1 27.860957670827361 30.184588919426162 11.135973390004182 #
straight-curve $-1 17.2321600454008 27.850955574050907 11.135973390004185 1 0 0 I I #
point $-1 27.860957670827361 27.850955574050914 11.135973390004182 #
point $-1 31.634307625098351 27.720059602398983 8.6096587315010584 #
point $-1 37.294332556504848 27.720059602398983 8.6096587315010584 #
straight-curve $-1 0 -30.184588919426162 -11.135973390004182 -1 0 0 I I #
point $-1 -55.721915341654714 -30.184588919426162 -11.135973390004182 #
straight-curve $-1 -55.721915341654714 0 11.135973390004182 0 -1 0 I I #
End-of-ACIS-data 