500 0 10 0           
7 Unknown 11 ACIS 5.0 NT 24 Fri Mar 26 16:43:17 1999 
-1 9.9999999999999995e-007 1e-010 
body $-1 $10 $-1 $11 #
body $-1 $12 $-1 $13 #
body $-1 $14 $-1 $15 #
body $-1 $16 $-1 $17 #
body $-1 $18 $-1 $19 #
body $-1 $20 $-1 $21 #
body $-1 $22 $-1 $23 #
body $-1 $24 $-1 $25 #
body $-1 $26 $-1 $27 #
body $-1 $28 $-1 $29 #
lump $-1 $-1 $30 $0 #
transform $-1 1 0 0 0 1 0 0 0 1 64.933622241889708 33.065277685386228 9.33914726555623 1 rotate no_reflect no_shear #
lump $-1 $-1 $31 $1 #
transform $-1 1 0 0 0 1 0 0 0 1 64.933622241889708 5.0266113960182546 2.2125807725622644 1 rotate no_reflect no_shear #
lump $-1 $-1 $32 $2 #
transform $-1 0.68199835119979291 0 0.73135370988377701 0 1 0 -0.73135370988377701 0 0.68199835119979291 -94.97889104559556 13.956284658581485 104.17363891741907 1 rotate no_reflect no_shear #
lump $-1 $-1 $33 $3 #
transform $-1 0.68199835119979291 0 0.73135370988377701 0 -1 0 0.73135370988377701 0 -0.68199835119979291 3.0141600184369359 11.614447538654499 15.667102421918271 1 rotate no_reflect no_shear #
lump $-1 $-1 $34 $4 #
transform $-1 0.68199835119979291 0 0.73135370988377701 0 -1 0 0.73135370988377701 0 -0.68199835119979291 3.0141600184369359 13.956284658581485 15.667102421918271 1 rotate no_reflect no_shear #
lump $-1 $-1 $35 $5 #
transform $-1 0.68199835119979291 0 0.73135370988377701 0 -1 0 0.73135370988377701 0 -0.68199835119979291 3.0141600184369359 16.29812177850847 15.667102421918271 1 rotate no_reflect no_shear #
lump $-1 $-1 $36 $6 #
transform $-1 0.49999998660252726 0 -0.86602541151947299 0 1 0 0.86602541151947299 0 0.49999998660252726 177.40195782874764 19.951727220722205 191.00537615986531 1 rotate no_reflect no_shear #
lump $-1 $-1 $37 $7 #
transform $-1 0.49999998660252726 0 -0.86602541151947299 0 -1 0 -0.86602541151947299 0 -0.49999998660252726 125.0051396645656 19.951727220722205 14.179532804694986 1 rotate no_reflect no_shear #
lump $-1 $-1 $38 $8 #
transform $-1 0.49999998660252726 0 -0.86602541151947299 0 1 0 0.86602541151947299 0 0.49999998660252726 177.40195782874764 56.232050942086772 191.00537615986531 1 rotate no_reflect no_shear #
lump $-1 $-1 $39 $9 #
transform $-1 0.49999998660252726 0 -0.86602541151947299 0 -1 0 -0.86602541151947299 0 -0.49999998660252726 125.0051396645656 56.232050942086772 14.179532804694986 1 rotate no_reflect no_shear #
shell $-1 $-1 $-1 $40 $-1 $10 #
shell $-1 $-1 $-1 $41 $-1 $12 #
shell $-1 $-1 $-1 $42 $-1 $14 #
shell $-1 $-1 $-1 $43 $-1 $16 #
shell $-1 $-1 $-1 $44 $-1 $18 #
shell $-1 $-1 $-1 $45 $-1 $20 #
shell $-1 $-1 $-1 $46 $-1 $22 #
shell $-1 $-1 $-1 $47 $-1 $24 #
shell $-1 $-1 $-1 $48 $-1 $26 #
shell $-1 $-1 $-1 $49 $-1 $28 #
face $-1 $50 $51 $30 $-1 $52 forward single #
face $-1 $53 $54 $31 $-1 $55 forward single #
face $-1 $56 $57 $32 $-1 $58 forward single #
face $-1 $59 $60 $33 $-1 $61 forward single #
face $-1 $62 $63 $34 $-1 $64 forward single #
face $-1 $65 $66 $35 $-1 $67 forward single #
face $-1 $68 $69 $36 $-1 $70 forward single #
face $-1 $71 $72 $37 $-1 $73 forward single #
face $-1 $74 $75 $38 $-1 $76 forward single #
face $-1 $77 $78 $39 $-1 $79 forward single #
face $-1 $80 $81 $30 $-1 $82 reversed single #
loop $-1 $-1 $83 $40 #
plane-surface $-1 0 0 9.33914726555623 0 0 1 1 0 0 forward_v I I I I #
face $-1 $84 $85 $31 $-1 $86 reversed single #
loop $-1 $-1 $87 $41 #
plane-surface $-1 0 0 1.7125807725622644 0 0 1 1 0 0 forward_v I I I I #
face $-1 $88 $89 $32 $-1 $90 reversed single #
loop $-1 $-1 $91 $42 #
plane-surface $-1 0 0 129.86724448377942 0 0 1 1 0 0 forward_v I I I I #
face $-1 $92 $93 $33 $-1 $94 forward single #
loop $-1 $95 $96 $43 #
cone-surface $-1 0 0 -1.2058244575334918 0 0 1 0.5 0 0 1 I I 0 1 0.5 forward I I I I #
face $-1 $97 $98 $34 $-1 $99 forward single #
loop $-1 $100 $101 $44 #
cone-surface $-1 0 0 -1.2058244575334918 0 0 1 0.5 0 0 1 I I 0 1 0.5 forward I I I I #
face $-1 $102 $103 $35 $-1 $104 forward single #
loop $-1 $105 $106 $45 #
cone-surface $-1 0 0 -1.2058244575334918 0 0 1 0.5 0 0 1 I I 0 1 0.5 forward I I I I #
face $-1 $107 $108 $36 $-1 $109 reversed single #
loop $-1 $-1 $110 $46 #
plane-surface $-1 0 0 129.86724448377942 0 0 1 1 0 0 forward_v I I I I #
face $-1 $111 $112 $37 $-1 $113 forward single #
loop $-1 $114 $115 $47 #
cone-surface $-1 0 0 -2.2113254188665419 0 0 1 1 0 0 1 I I 0 1 1 forward I I I I #
face $-1 $116 $117 $38 $-1 $118 reversed single #
loop $-1 $-1 $119 $48 #
plane-surface $-1 0 0 129.86724448377942 0 0 1 1 0 0 forward_v I I I I #
face $-1 $120 $121 $39 $-1 $122 forward single #
loop $-1 $123 $124 $49 #
cone-surface $-1 0 0 -2.2113254188665419 0 0 1 1 0 0 1 I I 0 1 1 forward I I I I #
face $-1 $125 $126 $30 $-1 $127 reversed single #
loop $-1 $-1 $128 $50 #
plane-surface $-1 0 0 -9.33914726555623 0 0 1 1 0 0 forward_v I I I I #
coedge $-1 $129 $130 $131 $132 forward $51 $-1 #
face $-1 $133 $134 $31 $-1 $135 reversed single #
loop $-1 $-1 $136 $53 #
plane-surface $-1 0 0 -1.7125807725622644 0 0 1 1 0 0 forward_v I I I I #
coedge $-1 $137 $138 $139 $140 forward $54 $-1 #
face $-1 $141 $142 $32 $-1 $143 reversed single #
loop $-1 $-1 $144 $56 #
plane-surface $-1 0 0 -129.86724448377942 0 0 1 1 0 0 forward_v I I I I #
coedge $-1 $145 $146 $147 $148 forward $57 $-1 #
face $-1 $-1 $149 $33 $-1 $150 forward single #
loop $-1 $-1 $151 $59 #
plane-surface $-1 0 0 -2.1616489150669862 0 0 -1 -1 0 0 forward_v I I I I #
loop $-1 $-1 $152 $43 #
coedge $-1 $96 $96 $151 $153 reversed $60 $-1 #
face $-1 $-1 $154 $34 $-1 $155 forward single #
loop $-1 $-1 $156 $62 #
plane-surface $-1 0 0 -2.1616489150669862 0 0 -1 -1 0 0 forward_v I I I I #
loop $-1 $-1 $157 $44 #
coedge $-1 $101 $101 $156 $158 reversed $63 $-1 #
face $-1 $-1 $159 $35 $-1 $160 forward single #
loop $-1 $-1 $161 $65 #
plane-surface $-1 0 0 -2.1616489150669862 0 0 -1 -1 0 0 forward_v I I I I #
loop $-1 $-1 $162 $45 #
coedge $-1 $106 $106 $161 $163 reversed $66 $-1 #
face $-1 $164 $165 $36 $-1 $166 reversed single #
loop $-1 $-1 $167 $68 #
plane-surface $-1 0 0 -129.86724448377942 0 0 1 1 0 0 forward_v I I I I #
coedge $-1 $168 $169 $170 $171 forward $69 $-1 #
face $-1 $-1 $172 $37 $-1 $173 forward single #
loop $-1 $-1 $174 $71 #
plane-surface $-1 0 0 -3.9226508377330846 0 0 -1 -1 0 0 forward_v I I I I #
loop $-1 $-1 $175 $47 #
coedge $-1 $115 $115 $174 $176 reversed $72 $-1 #
face $-1 $177 $178 $38 $-1 $179 reversed single #
loop $-1 $-1 $180 $74 #
plane-surface $-1 0 0 -129.86724448377942 0 0 1 1 0 0 forward_v I I I I #
coedge $-1 $181 $182 $183 $184 forward $75 $-1 #
face $-1 $-1 $185 $39 $-1 $186 forward single #
loop $-1 $-1 $187 $77 #
plane-surface $-1 0 0 -3.9226508377330846 0 0 -1 -1 0 0 forward_v I I I I #
loop $-1 $-1 $188 $49 #
coedge $-1 $124 $124 $187 $189 reversed $78 $-1 #
face $-1 $190 $191 $30 $-1 $192 reversed single #
loop $-1 $-1 $193 $80 #
plane-surface $-1 0 -33.065277685386228 0 0 1 0 0 0 1 forward_v I I I I #
coedge $-1 $194 $195 $196 $197 forward $81 $-1 #
coedge $-1 $198 $83 $199 $200 forward $51 $-1 #
coedge $-1 $83 $198 $201 $202 forward $51 $-1 #
coedge $-1 $203 $204 $83 $132 reversed $205 $-1 #
edge $-1 $206 -33.065277685386228 $207 33.065277685386228 $131 $208 forward 7 unknown #
face $-1 $209 $210 $31 $-1 $211 reversed single #
loop $-1 $-1 $212 $84 #
plane-surface $-1 0 -5.0266113960182546 0 0 1 0 0 0 1 forward_v I I I I #
coedge $-1 $213 $214 $215 $216 forward $85 $-1 #
coedge $-1 $217 $87 $218 $219 forward $54 $-1 #
coedge $-1 $87 $217 $220 $221 forward $54 $-1 #
coedge $-1 $222 $223 $87 $140 reversed $224 $-1 #
edge $-1 $225 -5.0266113960182546 $226 5.0266113960182546 $139 $227 forward 7 unknown #
face $-1 $228 $229 $32 $-1 $230 reversed single #
loop $-1 $-1 $231 $88 #
plane-surface $-1 0 -3.9030618665449763 0 0 1 0 0 0 1 forward_v I I I I #
coedge $-1 $232 $233 $234 $235 forward $89 $-1 #
coedge $-1 $236 $91 $237 $238 forward $57 $-1 #
coedge $-1 $91 $236 $239 $240 forward $57 $-1 #
coedge $-1 $241 $242 $91 $148 reversed $243 $-1 #
edge $-1 $244 -3.9030618665449763 $245 3.9030618665449763 $147 $246 forward 7 unknown #
loop $-1 $247 $248 $92 #
cone-surface $-1 0 0 0 0 0 1 0.25 0 0 1 I I -0.70710678118654879 0.70710678118654635 0.25 forward I I I I #
coedge $-1 $151 $151 $96 $153 forward $93 $-1 #
coedge $-1 $152 $152 $248 $249 forward $95 $-1 #
edge $-1 $250 0 $250 6.2831853071796004 $151 $251 forward 7 unknown #
loop $-1 $252 $253 $97 #
cone-surface $-1 0 0 0 0 0 1 0.25 0 0 1 I I -0.70710678118654879 0.70710678118654635 0.25 forward I I I I #
coedge $-1 $156 $156 $101 $158 forward $98 $-1 #
coedge $-1 $157 $157 $253 $254 forward $100 $-1 #
edge $-1 $255 0 $255 6.2831853071796004 $156 $256 forward 7 unknown #
loop $-1 $257 $258 $102 #
cone-surface $-1 0 0 0 0 0 1 0.25 0 0 1 I I -0.70710678118654879 0.70710678118654635 0.25 forward I I I I #
coedge $-1 $161 $161 $106 $163 forward $103 $-1 #
coedge $-1 $162 $162 $258 $259 forward $105 $-1 #
edge $-1 $260 0 $260 6.2831853071796004 $161 $261 forward 7 unknown #
face $-1 $262 $263 $36 $-1 $264 reversed single #
loop $-1 $-1 $265 $107 #
plane-surface $-1 0 -6.3656382764883634 0 0 1 0 0 0 1 forward_v I I I I #
coedge $-1 $266 $267 $268 $269 forward $108 $-1 #
coedge $-1 $270 $110 $271 $272 forward $69 $-1 #
coedge $-1 $110 $270 $273 $274 forward $69 $-1 #
coedge $-1 $275 $276 $110 $171 reversed $277 $-1 #
edge $-1 $278 -6.3656382764883634 $279 6.3656382764883634 $170 $280 forward 7 unknown #
loop $-1 $281 $282 $111 #
cone-surface $-1 0 0 0 0 0 1 0.5 0 0 1 I I -0.70710678118654746 0.70710678118654746 0.5 forward I I I I #
coedge $-1 $174 $174 $115 $176 forward $112 $-1 #
coedge $-1 $175 $175 $282 $283 forward $114 $-1 #
edge $-1 $284 0 $284 6.2831853071796004 $174 $285 forward 7 unknown #
face $-1 $286 $287 $38 $-1 $288 reversed single #
loop $-1 $-1 $289 $116 #
plane-surface $-1 0 -6.3656382764883634 0 0 1 0 0 0 1 forward_v I I I I #
coedge $-1 $290 $291 $292 $293 forward $117 $-1 #
coedge $-1 $294 $119 $295 $296 forward $75 $-1 #
coedge $-1 $119 $294 $297 $298 forward $75 $-1 #
coedge $-1 $299 $300 $119 $184 reversed $301 $-1 #
edge $-1 $302 -6.3656382764883634 $303 6.3656382764883634 $183 $304 forward 7 unknown #
loop $-1 $305 $306 $120 #
cone-surface $-1 0 0 0 0 0 1 0.5 0 0 1 I I -0.70710678118654746 0.70710678118654746 0.5 forward I I I I #
coedge $-1 $187 $187 $124 $189 forward $121 $-1 #
coedge $-1 $188 $188 $306 $307 forward $123 $-1 #
edge $-1 $308 0 $308 6.2831853071796004 $187 $309 forward 7 unknown #
face $-1 $310 $311 $30 $-1 $312 reversed single #
loop $-1 $-1 $313 $125 #
plane-surface $-1 -64.933622241889708 0 0 1 0 0 0 0 -1 forward_v I I I I #
coedge $-1 $314 $201 $315 $316 forward $126 $-1 #
coedge $-1 $317 $128 $314 $318 forward $81 $-1 #
coedge $-1 $128 $317 $319 $320 forward $81 $-1 #
coedge $-1 $204 $203 $128 $197 reversed $205 $-1 #
edge $-1 $321 -33.065277685386228 $322 33.065277685386228 $196 $323 forward 7 unknown #
coedge $-1 $130 $129 $324 $325 forward $51 $-1 #
coedge $-1 $326 $327 $129 $200 reversed $311 $-1 #
edge $-1 $207 -64.933622241889708 $328 64.933622241889708 $199 $329 forward 7 unknown #
coedge $-1 $193 $330 $130 $202 reversed $126 $-1 #
edge $-1 $331 -64.933622241889708 $206 64.933622241889708 $201 $332 forward 7 unknown #
coedge $-1 $196 $131 $330 $333 forward $205 $-1 #
coedge $-1 $131 $196 $326 $334 reversed $205 $-1 #
loop $-1 $-1 $203 $310 #
vertex $-1 $132 $335 #
vertex $-1 $132 $336 #
straight-curve $-1 64.933622241889708 0 9.33914726555623 0 1 0 I I #
face $-1 $337 $338 $31 $-1 $339 reversed single #
loop $-1 $-1 $340 $133 #
plane-surface $-1 -64.933622241889708 0 0 1 0 0 0 0 -1 forward_v I I I I #
coedge $-1 $341 $220 $342 $343 forward $134 $-1 #
coedge $-1 $344 $136 $341 $345 forward $85 $-1 #
coedge $-1 $136 $344 $346 $347 forward $85 $-1 #
coedge $-1 $223 $222 $136 $216 reversed $224 $-1 #
edge $-1 $348 -5.0266113960182546 $349 5.0266113960182546 $215 $350 forward 7 unknown #
coedge $-1 $138 $137 $351 $352 forward $54 $-1 #
coedge $-1 $353 $354 $137 $219 reversed $338 $-1 #
edge $-1 $226 -64.933622241889708 $355 64.933622241889708 $218 $356 forward 7 unknown #
coedge $-1 $212 $357 $138 $221 reversed $134 $-1 #
edge $-1 $358 -64.933622241889708 $225 64.933622241889708 $220 $359 forward 7 unknown #
coedge $-1 $215 $139 $357 $360 forward $224 $-1 #
coedge $-1 $139 $215 $353 $361 reversed $224 $-1 #
loop $-1 $-1 $222 $337 #
vertex $-1 $140 $362 #
vertex $-1 $140 $363 #
straight-curve $-1 64.933622241889708 0 1.7125807725622644 0 1 0 I I #
face $-1 $364 $365 $32 $-1 $366 reversed single #
loop $-1 $-1 $367 $141 #
plane-surface $-1 -259.73448896755883 0 0 1 0 0 0 0 -1 forward_v I I I I #
coedge $-1 $368 $239 $369 $370 forward $142 $-1 #
coedge $-1 $371 $144 $368 $372 forward $89 $-1 #
coedge $-1 $144 $371 $373 $374 forward $89 $-1 #
coedge $-1 $242 $241 $144 $235 reversed $243 $-1 #
edge $-1 $375 -3.9030618665449763 $376 3.9030618665449763 $234 $377 forward 7 unknown #
coedge $-1 $146 $145 $378 $379 forward $57 $-1 #
coedge $-1 $380 $381 $145 $238 reversed $365 $-1 #
edge $-1 $245 -259.73448896755883 $382 259.73448896755883 $237 $383 forward 7 unknown #
coedge $-1 $231 $384 $146 $240 reversed $142 $-1 #
edge $-1 $385 -259.73448896755883 $244 259.73448896755883 $239 $386 forward 7 unknown #
coedge $-1 $234 $147 $384 $387 forward $243 $-1 #
coedge $-1 $147 $234 $380 $388 reversed $243 $-1 #
loop $-1 $-1 $241 $364 #
vertex $-1 $148 $389 #
vertex $-1 $148 $390 #
straight-curve $-1 259.73448896755883 0 129.86724448377942 0 1 0 I I #
loop $-1 $-1 $391 $92 #
coedge $-1 $248 $248 $152 $249 reversed $149 $-1 #
edge $-1 $392 0 $392 6.2831853071796004 $248 $393 forward 7 unknown #
vertex $-1 $153 $394 #
ellipse-curve $-1 0 0 -2.1616489150669862 0 0 -1 0.5 0 0 1 I I #
loop $-1 $-1 $395 $97 #
coedge $-1 $253 $253 $157 $254 reversed $154 $-1 #
edge $-1 $396 0 $396 6.2831853071796004 $253 $397 forward 7 unknown #
vertex $-1 $158 $398 #
ellipse-curve $-1 0 0 -2.1616489150669862 0 0 -1 0.5 0 0 1 I I #
loop $-1 $-1 $399 $102 #
coedge $-1 $258 $258 $162 $259 reversed $159 $-1 #
edge $-1 $400 0 $400 6.2831853071796004 $258 $401 forward 7 unknown #
vertex $-1 $163 $402 #
ellipse-curve $-1 0 0 -2.1616489150669862 0 0 -1 0.5 0 0 1 I I #
face $-1 $403 $404 $36 $-1 $405 reversed single #
loop $-1 $-1 $406 $164 #
plane-surface $-1 -259.73448896755883 0 0 1 0 0 0 0 -1 forward_v I I I I #
coedge $-1 $407 $273 $408 $409 forward $165 $-1 #
coedge $-1 $410 $167 $407 $411 forward $108 $-1 #
coedge $-1 $167 $410 $412 $413 forward $108 $-1 #
coedge $-1 $276 $275 $167 $269 reversed $277 $-1 #
edge $-1 $414 -6.3656382764883634 $415 6.3656382764883634 $268 $416 forward 7 unknown #
coedge $-1 $169 $168 $417 $418 forward $69 $-1 #
coedge $-1 $419 $420 $168 $272 reversed $404 $-1 #
edge $-1 $279 -259.73448896755883 $421 259.73448896755883 $271 $422 forward 7 unknown #
coedge $-1 $265 $423 $169 $274 reversed $165 $-1 #
edge $-1 $424 -259.73448896755883 $278 259.73448896755883 $273 $425 forward 7 unknown #
coedge $-1 $268 $170 $423 $426 forward $277 $-1 #
coedge $-1 $170 $268 $419 $427 reversed $277 $-1 #
loop $-1 $-1 $275 $403 #
vertex $-1 $171 $428 #
vertex $-1 $171 $429 #
straight-curve $-1 259.73448896755883 0 129.86724448377942 0 1 0 I I #
loop $-1 $-1 $430 $111 #
coedge $-1 $282 $282 $175 $283 reversed $172 $-1 #
edge $-1 $431 0 $431 6.2831853071796004 $282 $432 forward 7 unknown #
vertex $-1 $176 $433 #
ellipse-curve $-1 0 0 -3.9226508377330846 0 0 -1 1 0 0 1 I I #
face $-1 $434 $435 $38 $-1 $436 reversed single #
loop $-1 $-1 $437 $177 #
plane-surface $-1 -259.73448896755883 0 0 1 0 0 0 0 -1 forward_v I I I I #
coedge $-1 $438 $297 $439 $440 forward $178 $-1 #
coedge $-1 $441 $180 $438 $442 forward $117 $-1 #
coedge $-1 $180 $441 $443 $444 forward $117 $-1 #
coedge $-1 $300 $299 $180 $293 reversed $301 $-1 #
edge $-1 $445 -6.3656382764883634 $446 6.3656382764883634 $292 $447 forward 7 unknown #
coedge $-1 $182 $181 $448 $449 forward $75 $-1 #
coedge $-1 $450 $451 $181 $296 reversed $435 $-1 #
edge $-1 $303 -259.73448896755883 $452 259.73448896755883 $295 $453 forward 7 unknown #
coedge $-1 $289 $454 $182 $298 reversed $178 $-1 #
edge $-1 $455 -259.73448896755883 $302 259.73448896755883 $297 $456 forward 7 unknown #
coedge $-1 $292 $183 $454 $457 forward $301 $-1 #
coedge $-1 $183 $292 $450 $458 reversed $301 $-1 #
loop $-1 $-1 $299 $434 #
vertex $-1 $184 $459 #
vertex $-1 $184 $460 #
straight-curve $-1 259.73448896755883 0 129.86724448377942 0 1 0 I I #
loop $-1 $-1 $461 $120 #
coedge $-1 $306 $306 $188 $307 reversed $185 $-1 #
edge $-1 $462 0 $462 6.2831853071796004 $306 $463 forward 7 unknown #
vertex $-1 $189 $464 #
ellipse-curve $-1 0 0 -3.9226508377330846 0 0 -1 1 0 0 1 I I #
face $-1 $-1 $205 $30 $-1 $465 reversed single #
loop $-1 $-1 $326 $190 #
plane-surface $-1 0 33.065277685386228 0 0 -1 0 0 0 -1 forward_v I I I I #
coedge $-1 $466 $324 $327 $467 forward $191 $-1 #
coedge $-1 $330 $193 $194 $318 reversed $126 $-1 #
coedge $-1 $324 $466 $193 $316 reversed $191 $-1 #
edge $-1 $331 -9.33914726555623 $468 9.33914726555623 $315 $469 forward 7 unknown #
coedge $-1 $195 $194 $466 $470 forward $81 $-1 #
edge $-1 $322 -64.933622241889708 $468 64.933622241889708 $314 $471 forward 7 unknown #
coedge $-1 $327 $326 $195 $320 reversed $311 $-1 #
edge $-1 $472 -64.933622241889708 $321 64.933622241889708 $319 $473 forward 7 unknown #
vertex $-1 $197 $474 #
vertex $-1 $333 $475 #
straight-curve $-1 64.933622241889708 0 -9.33914726555623 0 -1 0 I I #
coedge $-1 $313 $315 $198 $325 reversed $191 $-1 #
edge $-1 $328 -33.065277685386228 $331 33.065277685386228 $324 $476 forward 7 unknown #
coedge $-1 $319 $199 $204 $334 forward $311 $-1 #
coedge $-1 $199 $319 $313 $467 reversed $311 $-1 #
vertex $-1 $200 $477 #
straight-curve $-1 0 33.065277685386228 9.33914726555623 -1 0 0 I I #
coedge $-1 $201 $314 $203 $333 reversed $126 $-1 #
vertex $-1 $325 $478 #
straight-curve $-1 0 -33.065277685386228 9.33914726555623 1 0 0 I I #
edge $-1 $206 -9.33914726555623 $322 9.33914726555623 $203 $479 forward 7 unknown #
edge $-1 $207 -9.33914726555623 $321 9.33914726555623 $204 $480 forward 7 unknown #
point $-1 64.933622241889708 -33.065277685386228 9.33914726555623 #
point $-1 64.933622241889708 33.065277685386228 9.33914726555623 #
face $-1 $-1 $224 $31 $-1 $481 reversed single #
loop $-1 $-1 $353 $209 #
plane-surface $-1 0 5.0266113960182546 0 0 -1 0 0 0 -1 forward_v I I I I #
coedge $-1 $482 $351 $354 $483 forward $210 $-1 #
coedge $-1 $357 $212 $213 $345 reversed $134 $-1 #
coedge $-1 $351 $482 $212 $343 reversed $210 $-1 #
edge $-1 $358 -1.7125807725622644 $484 1.7125807725622644 $342 $485 forward 7 unknown #
coedge $-1 $214 $213 $482 $486 forward $85 $-1 #
edge $-1 $349 -64.933622241889708 $484 64.933622241889708 $341 $487 forward 7 unknown #
coedge $-1 $354 $353 $214 $347 reversed $338 $-1 #
edge $-1 $488 -64.933622241889708 $348 64.933622241889708 $346 $489 forward 7 unknown #
vertex $-1 $216 $490 #
vertex $-1 $360 $491 #
straight-curve $-1 64.933622241889708 0 -1.7125807725622644 0 -1 0 I I #
coedge $-1 $340 $342 $217 $352 reversed $210 $-1 #
edge $-1 $355 -5.0266113960182546 $358 5.0266113960182546 $351 $492 forward 7 unknown #
coedge $-1 $346 $218 $223 $361 forward $338 $-1 #
coedge $-1 $218 $346 $340 $483 reversed $338 $-1 #
vertex $-1 $219 $493 #
straight-curve $-1 0 5.0266113960182546 1.7125807725622644 -1 0 0 I I #
coedge $-1 $220 $341 $222 $360 reversed $134 $-1 #
vertex $-1 $352 $494 #
straight-curve $-1 0 -5.0266113960182546 1.7125807725622644 1 0 0 I I #
edge $-1 $225 -1.7125807725622644 $349 1.7125807725622644 $222 $495 forward 7 unknown #
edge $-1 $226 -1.7125807725622644 $348 1.7125807725622644 $223 $496 forward 7 unknown #
point $-1 64.933622241889708 -5.0266113960182546 1.7125807725622644 #
point $-1 64.933622241889708 5.0266113960182546 1.7125807725622644 #
face $-1 $-1 $243 $32 $-1 $497 reversed single #
loop $-1 $-1 $380 $228 #
plane-surface $-1 0 3.9030618665449763 0 0 -1 0 0 0 -1 forward_v I I I I #
coedge $-1 $498 $378 $381 $499 forward $229 $-1 #
coedge $-1 $384 $231 $232 $372 reversed $142 $-1 #
coedge $-1 $378 $498 $231 $370 reversed $229 $-1 #
edge $-1 $385 -129.86724448377942 $500 129.86724448377942 $369 $501 forward 7 unknown #
coedge $-1 $233 $232 $498 $502 forward $89 $-1 #
edge $-1 $376 -259.73448896755883 $500 259.73448896755883 $368 $503 forward 7 unknown #
coedge $-1 $381 $380 $233 $374 reversed $365 $-1 #
edge $-1 $504 -259.73448896755883 $375 259.73448896755883 $373 $505 forward 7 unknown #
vertex $-1 $235 $506 #
vertex $-1 $387 $507 #
straight-curve $-1 259.73448896755883 0 -129.86724448377942 0 -1 0 I I #
coedge $-1 $367 $369 $236 $379 reversed $229 $-1 #
edge $-1 $382 -3.9030618665449763 $385 3.9030618665449763 $378 $508 forward 7 unknown #
coedge $-1 $373 $237 $242 $388 forward $365 $-1 #
coedge $-1 $237 $373 $367 $499 reversed $365 $-1 #
vertex $-1 $238 $509 #
straight-curve $-1 0 3.9030618665449763 129.86724448377942 -1 0 0 I I #
coedge $-1 $239 $368 $241 $387 reversed $142 $-1 #
vertex $-1 $379 $510 #
straight-curve $-1 0 -3.9030618665449763 129.86724448377942 1 0 0 I I #
edge $-1 $244 -129.86724448377942 $376 129.86724448377942 $241 $511 forward 7 unknown #
edge $-1 $245 -129.86724448377942 $375 129.86724448377942 $242 $512 forward 7 unknown #
point $-1 259.73448896755883 -3.9030618665449763 129.86724448377942 #
point $-1 259.73448896755883 3.9030618665449763 129.86724448377942 #
coedge $-1 $391 $391 $-1 $513 reversed $247 $-1 #
vertex $-1 $249 $514 #
ellipse-curve $-1 0 0 -0.24999999999999911 0 0 -1 0.5 0 0 1 I I #
point $-1 0.5 0 -2.1616489150669862 #
coedge $-1 $395 $395 $-1 $515 reversed $252 $-1 #
vertex $-1 $254 $516 #
ellipse-curve $-1 0 0 -0.24999999999999911 0 0 -1 0.5 0 0 1 I I #
point $-1 0.5 0 -2.1616489150669862 #
coedge $-1 $399 $399 $-1 $517 reversed $257 $-1 #
vertex $-1 $259 $518 #
ellipse-curve $-1 0 0 -0.24999999999999911 0 0 -1 0.5 0 0 1 I I #
point $-1 0.5 0 -2.1616489150669862 #
face $-1 $-1 $277 $36 $-1 $519 reversed single #
loop $-1 $-1 $419 $262 #
plane-surface $-1 0 6.3656382764883634 0 0 -1 0 0 0 -1 forward_v I I I I #
coedge $-1 $520 $417 $420 $521 forward $263 $-1 #
coedge $-1 $423 $265 $266 $411 reversed $165 $-1 #
coedge $-1 $417 $520 $265 $409 reversed $263 $-1 #
edge $-1 $424 -129.86724448377942 $522 129.86724448377942 $408 $523 forward 7 unknown #
coedge $-1 $267 $266 $520 $524 forward $108 $-1 #
edge $-1 $415 -259.73448896755883 $522 259.73448896755883 $407 $525 forward 7 unknown #
coedge $-1 $420 $419 $267 $413 reversed $404 $-1 #
edge $-1 $526 -259.73448896755883 $414 259.73448896755883 $412 $527 forward 7 unknown #
vertex $-1 $269 $528 #
vertex $-1 $426 $529 #
straight-curve $-1 259.73448896755883 0 -129.86724448377942 0 -1 0 I I #
coedge $-1 $406 $408 $270 $418 reversed $263 $-1 #
edge $-1 $421 -6.3656382764883634 $424 6.3656382764883634 $417 $530 forward 7 unknown #
coedge $-1 $412 $271 $276 $427 forward $404 $-1 #
coedge $-1 $271 $412 $406 $521 reversed $404 $-1 #
vertex $-1 $272 $531 #
straight-curve $-1 0 6.3656382764883634 129.86724448377942 -1 0 0 I I #
coedge $-1 $273 $407 $275 $426 reversed $165 $-1 #
vertex $-1 $418 $532 #
straight-curve $-1 0 -6.3656382764883634 129.86724448377942 1 0 0 I I #
edge $-1 $278 -129.86724448377942 $415 129.86724448377942 $275 $533 forward 7 unknown #
edge $-1 $279 -129.86724448377942 $414 129.86724448377942 $276 $534 forward 7 unknown #
point $-1 259.73448896755883 -6.3656382764883634 129.86724448377942 #
point $-1 259.73448896755883 6.3656382764883634 129.86724448377942 #
coedge $-1 $430 $430 $-1 $535 reversed $281 $-1 #
vertex $-1 $283 $536 #
ellipse-curve $-1 0 0 -0.5 0 0 -1 1 0 0 1 I I #
point $-1 1 0 -3.9226508377330846 #
face $-1 $-1 $301 $38 $-1 $537 reversed single #
loop $-1 $-1 $450 $286 #
plane-surface $-1 0 6.3656382764883634 0 0 -1 0 0 0 -1 forward_v I I I I #
coedge $-1 $538 $448 $451 $539 forward $287 $-1 #
coedge $-1 $454 $289 $290 $442 reversed $178 $-1 #
coedge $-1 $448 $538 $289 $440 reversed $287 $-1 #
edge $-1 $455 -129.86724448377942 $540 129.86724448377942 $439 $541 forward 7 unknown #
coedge $-1 $291 $290 $538 $542 forward $117 $-1 #
edge $-1 $446 -259.73448896755883 $540 259.73448896755883 $438 $543 forward 7 unknown #
coedge $-1 $451 $450 $291 $444 reversed $435 $-1 #
edge $-1 $544 -259.73448896755883 $445 259.73448896755883 $443 $545 forward 7 unknown #
vertex $-1 $293 $546 #
vertex $-1 $457 $547 #
straight-curve $-1 259.73448896755883 0 -129.86724448377942 0 -1 0 I I #
coedge $-1 $437 $439 $294 $449 reversed $287 $-1 #
edge $-1 $452 -6.3656382764883634 $455 6.3656382764883634 $448 $548 forward 7 unknown #
coedge $-1 $443 $295 $300 $458 forward $435 $-1 #
coedge $-1 $295 $443 $437 $539 reversed $435 $-1 #
vertex $-1 $296 $549 #
straight-curve $-1 0 6.3656382764883634 129.86724448377942 -1 0 0 I I #
coedge $-1 $297 $438 $299 $457 reversed $178 $-1 #
vertex $-1 $449 $550 #
straight-curve $-1 0 -6.3656382764883634 129.86724448377942 1 0 0 I I #
edge $-1 $302 -129.86724448377942 $446 129.86724448377942 $299 $551 forward 7 unknown #
edge $-1 $303 -129.86724448377942 $445 129.86724448377942 $300 $552 forward 7 unknown #
point $-1 259.73448896755883 -6.3656382764883634 129.86724448377942 #
point $-1 259.73448896755883 6.3656382764883634 129.86724448377942 #
coedge $-1 $461 $461 $-1 $553 reversed $305 $-1 #
vertex $-1 $307 $554 #
ellipse-curve $-1 0 0 -0.5 0 0 -1 1 0 0 1 I I #
point $-1 1 0 -3.9226508377330846 #
plane-surface $-1 64.933622241889708 0 0 -1 0 0 0 0 1 forward_v I I I I #
coedge $-1 $315 $313 $317 $470 reversed $191 $-1 #
edge $-1 $328 -9.33914726555623 $472 9.33914726555623 $327 $555 forward 7 unknown #
vertex $-1 $470 $556 #
straight-curve $-1 -64.933622241889708 -33.065277685386228 0 0 0 -1 I I #
edge $-1 $468 -33.065277685386228 $472 33.065277685386228 $466 $557 forward 7 unknown #
straight-curve $-1 0 -33.065277685386228 -9.33914726555623 -1 0 0 I I #
vertex $-1 $320 $558 #
straight-curve $-1 0 33.065277685386228 -9.33914726555623 1 0 0 I I #
point $-1 64.933622241889708 33.065277685386228 -9.33914726555623 #
point $-1 64.933622241889708 -33.065277685386228 -9.33914726555623 #
straight-curve $-1 -64.933622241889708 0 9.33914726555623 0 -1 0 I I #
point $-1 -64.933622241889708 33.065277685386228 9.33914726555623 #
point $-1 -64.933622241889708 -33.065277685386228 9.33914726555623 #
straight-curve $-1 64.933622241889708 -33.065277685386228 0 0 0 -1 I I #
straight-curve $-1 64.933622241889708 33.065277685386228 0 0 0 -1 I I #
plane-surface $-1 64.933622241889708 0 0 -1 0 0 0 0 1 forward_v I I I I #
coedge $-1 $342 $340 $344 $486 reversed $210 $-1 #
edge $-1 $355 -1.7125807725622644 $488 1.7125807725622644 $354 $559 forward 7 unknown #
vertex $-1 $486 $560 #
straight-curve $-1 -64.933622241889708 -5.0266113960182546 0 0 0 -1 I I #
edge $-1 $484 -5.0266113960182546 $488 5.0266113960182546 $482 $561 forward 7 unknown #
straight-curve $-1 0 -5.0266113960182546 -1.7125807725622644 -1 0 0 I I #
vertex $-1 $347 $562 #
straight-curve $-1 0 5.0266113960182546 -1.7125807725622644 1 0 0 I I #
point $-1 64.933622241889708 5.0266113960182546 -1.7125807725622644 #
point $-1 64.933622241889708 -5.0266113960182546 -1.7125807725622644 #
straight-curve $-1 -64.933622241889708 0 1.7125807725622644 0 -1 0 I I #
point $-1 -64.933622241889708 5.0266113960182546 1.7125807725622644 #
point $-1 -64.933622241889708 -5.0266113960182546 1.7125807725622644 #
straight-curve $-1 64.933622241889708 -5.0266113960182546 0 0 0 -1 I I #
straight-curve $-1 64.933622241889708 5.0266113960182546 0 0 0 -1 I I #
plane-surface $-1 259.73448896755883 0 0 -1 0 0 0 0 1 forward_v I I I I #
coedge $-1 $369 $367 $371 $502 reversed $229 $-1 #
edge $-1 $382 -129.86724448377942 $504 129.86724448377942 $381 $563 forward 7 unknown #
vertex $-1 $502 $564 #
straight-curve $-1 -259.73448896755883 -3.9030618665449763 0 0 0 -1 I I #
edge $-1 $500 -3.9030618665449763 $504 3.9030618665449763 $498 $565 forward 7 unknown #
straight-curve $-1 0 -3.9030618665449763 -129.86724448377942 -1 0 0 I I #
vertex $-1 $374 $566 #
straight-curve $-1 0 3.9030618665449763 -129.86724448377942 1 0 0 I I #
point $-1 259.73448896755883 3.9030618665449763 -129.86724448377942 #
point $-1 259.73448896755883 -3.9030618665449763 -129.86724448377942 #
straight-curve $-1 -259.73448896755883 0 129.86724448377942 0 -1 0 I I #
point $-1 -259.73448896755883 3.9030618665449763 129.86724448377942 #
point $-1 -259.73448896755883 -3.9030618665449763 129.86724448377942 #
straight-curve $-1 259.73448896755883 -3.9030618665449763 0 0 0 -1 I I #
straight-curve $-1 259.73448896755883 3.9030618665449763 0 0 0 -1 I I #
edge $-1 $567 1 $567 0 $391 $-1 forward 7 unknown #
point $-1 0.5 0 -0.24999999999999911 #
edge $-1 $568 1 $568 0 $395 $-1 forward 7 unknown #
point $-1 0.5 0 -0.24999999999999911 #
edge $-1 $569 1 $569 0 $399 $-1 forward 7 unknown #
point $-1 0.5 0 -0.24999999999999911 #
plane-surface $-1 259.73448896755883 0 0 -1 0 0 0 0 1 forward_v I I I I #
coedge $-1 $408 $406 $410 $524 reversed $263 $-1 #
edge $-1 $421 -129.86724448377942 $526 129.86724448377942 $420 $570 forward 7 unknown #
vertex $-1 $524 $571 #
straight-curve $-1 -259.73448896755883 -6.3656382764883634 0 0 0 -1 I I #
edge $-1 $522 -6.3656382764883634 $526 6.3656382764883634 $520 $572 forward 7 unknown #
straight-curve $-1 0 -6.3656382764883634 -129.86724448377942 -1 0 0 I I #
vertex $-1 $413 $573 #
straight-curve $-1 0 6.3656382764883634 -129.86724448377942 1 0 0 I I #
point $-1 259.73448896755883 6.3656382764883634 -129.86724448377942 #
point $-1 259.73448896755883 -6.3656382764883634 -129.86724448377942 #
straight-curve $-1 -259.73448896755883 0 129.86724448377942 0 -1 0 I I #
point $-1 -259.73448896755883 6.3656382764883634 129.86724448377942 #
point $-1 -259.73448896755883 -6.3656382764883634 129.86724448377942 #
straight-curve $-1 259.73448896755883 -6.3656382764883634 0 0 0 -1 I I #
straight-curve $-1 259.73448896755883 6.3656382764883634 0 0 0 -1 I I #
edge $-1 $574 1 $574 0 $430 $-1 forward 7 unknown #
point $-1 1 0 -0.5 #
plane-surface $-1 259.73448896755883 0 0 -1 0 0 0 0 1 forward_v I I I I #
coedge $-1 $439 $437 $441 $542 reversed $287 $-1 #
edge $-1 $452 -129.86724448377942 $544 129.86724448377942 $451 $575 forward 7 unknown #
vertex $-1 $542 $576 #
straight-curve $-1 -259.73448896755883 -6.3656382764883634 0 0 0 -1 I I #
edge $-1 $540 -6.3656382764883634 $544 6.3656382764883634 $538 $577 forward 7 unknown #
straight-curve $-1 0 -6.3656382764883634 -129.86724448377942 -1 0 0 I I #
vertex $-1 $444 $578 #
straight-curve $-1 0 6.3656382764883634 -129.86724448377942 1 0 0 I I #
point $-1 259.73448896755883 6.3656382764883634 -129.86724448377942 #
point $-1 259.73448896755883 -6.3656382764883634 -129.86724448377942 #
straight-curve $-1 -259.73448896755883 0 129.86724448377942 0 -1 0 I I #
point $-1 -259.73448896755883 6.3656382764883634 129.86724448377942 #
point $-1 -259.73448896755883 -6.3656382764883634 129.86724448377942 #
straight-curve $-1 259.73448896755883 -6.3656382764883634 0 0 0 -1 I I #
straight-curve $-1 259.73448896755883 6.3656382764883634 0 0 0 -1 I I #
edge $-1 $579 1 $579 0 $461 $-1 forward 7 unknown #
point $-1 1 0 -0.5 #
straight-curve $-1 -64.933622241889708 33.065277685386228 0 0 0 -1 I I #
point $-1 -64.933622241889708 -33.065277685386228 -9.33914726555623 #
straight-curve $-1 -64.933622241889708 0 -9.33914726555623 0 1 0 I I #
point $-1 -64.933622241889708 33.065277685386228 -9.33914726555623 #
straight-curve $-1 -64.933622241889708 5.0266113960182546 0 0 0 -1 I I #
point $-1 -64.933622241889708 -5.0266113960182546 -1.7125807725622644 #
straight-curve $-1 -64.933622241889708 0 -1.7125807725622644 0 1 0 I I #
point $-1 -64.933622241889708 5.0266113960182546 -1.7125807725622644 #
straight-curve $-1 -259.73448896755883 3.9030618665449763 0 0 0 -1 I I #
point $-1 -259.73448896755883 -3.9030618665449763 -129.86724448377942 #
straight-curve $-1 -259.73448896755883 0 -129.86724448377942 0 1 0 I I #
point $-1 -259.73448896755883 3.9030618665449763 -129.86724448377942 #
vertex $-1 $513 $580 #
vertex $-1 $515 $581 #
vertex $-1 $517 $582 #
straight-curve $-1 -259.73448896755883 6.3656382764883634 0 0 0 -1 I I #
point $-1 -259.73448896755883 -6.3656382764883634 -129.86724448377942 #
straight-curve $-1 -259.73448896755883 0 -129.86724448377942 0 1 0 I I #
point $-1 -259.73448896755883 6.3656382764883634 -129.86724448377942 #
vertex $-1 $535 $583 #
straight-curve $-1 -259.73448896755883 6.3656382764883634 0 0 0 -1 I I #
point $-1 -259.73448896755883 -6.3656382764883634 -129.86724448377942 #
straight-curve $-1 -259.73448896755883 0 -129.86724448377942 0 1 0 I I #
point $-1 -259.73448896755883 6.3656382764883634 -129.86724448377942 #
vertex $-1 $553 $584 #
point $-1 0 0 0.24999999999999911 #
point $-1 0 0 0.24999999999999911 #
point $-1 0 0 0.24999999999999911 #
point $-1 0 0 0.5 #
point $-1 0 0 0.5 #
End-of-ACIS-data 