500 0 9 0           
7 Unknown 11 ACIS 5.0 NT 24 Thu Mar 25 15:14:58 1999 
-1 9.9999999999999995e-007 1e-010 
body $-1 $9 $-1 $10 #
body $-1 $11 $-1 $12 #
body $-1 $13 $-1 $14 #
body $-1 $15 $-1 $16 #
body $-1 $17 $-1 $18 #
body $-1 $19 $-1 $20 #
body $-1 $21 $-1 $22 #
body $-1 $23 $-1 $24 #
body $-1 $25 $-1 $26 #
lump $-1 $-1 $27 $0 #
transform $-1 1 0 0 0 1 0 0 0 1 79.99633777886288 51.199413964146871 21.03118235216003 1 rotate no_reflect no_shear #
lump $-1 $-1 $28 $1 #
transform $-1 1 0 0 0 1 0 0 0 1 79.99633777886288 51.199413964146871 21.03118235216003 1 rotate no_reflect no_shear #
lump $-1 $-1 $29 $2 #
transform $-1 1 0 0 0 1 0 0 0 1 79.99633777886288 51.199413964146871 21.03118235216003 1 rotate no_reflect no_shear #
lump $-1 $-1 $30 $3 #
transform $-1 1 0 0 0 1 0 0 0 1 79.99633777886288 51.199413964146871 21.03118235216003 1 rotate no_reflect no_shear #
lump $-1 $-1 $31 $4 #
transform $-1 1 0 0 0 1 0 0 0 1 79.99633777886288 51.199413964146871 21.03118235216003 1 rotate no_reflect no_shear #
lump $-1 $-1 $32 $5 #
transform $-1 1 0 0 0 1 0 0 0 1 79.99633777886288 51.199413964146871 21.03118235216003 1 rotate no_reflect no_shear #
lump $-1 $-1 $33 $6 #
transform $-1 1 0 0 0 1 0 0 0 1 79.99633777886288 51.199413964146871 21.03118235216003 1 rotate no_reflect no_shear #
lump $-1 $-1 $34 $7 #
transform $-1 1 0 0 0 1 0 0 0 1 79.99633777886288 51.199413964146871 21.03118235216003 1 rotate no_reflect no_shear #
lump $-1 $-1 $35 $8 #
transform $-1 1 0 0 0 1 0 0 0 1 79.99633777886288 51.199413964146871 21.03118235216003 1 rotate no_reflect no_shear #
shell $-1 $-1 $-1 $36 $-1 $9 #
shell $-1 $-1 $-1 $37 $-1 $11 #
shell $-1 $-1 $-1 $38 $-1 $13 #
shell $-1 $-1 $-1 $39 $-1 $15 #
shell $-1 $-1 $-1 $40 $-1 $17 #
shell $-1 $-1 $-1 $41 $-1 $19 #
shell $-1 $-1 $-1 $42 $-1 $21 #
shell $-1 $-1 $-1 $43 $-1 $23 #
shell $-1 $-1 $-1 $44 $-1 $25 #
face $-1 $45 $46 $27 $-1 $47 forward single #
face $-1 $48 $49 $28 $-1 $50 forward single #
face $-1 $51 $52 $29 $-1 $53 reversed single #
face $-1 $54 $55 $30 $-1 $56 forward single #
face $-1 $57 $58 $31 $-1 $59 reversed single #
face $-1 $60 $61 $32 $-1 $62 forward single #
face $-1 $63 $64 $33 $-1 $65 reversed single #
face $-1 $66 $67 $34 $-1 $68 forward single #
face $-1 $69 $70 $35 $-1 $71 forward single #
face $-1 $72 $73 $27 $-1 $74 reversed single #
loop $-1 $-1 $75 $36 #
plane-surface $-1 0 0 21.03118235216003 0 0 1 1 0 0 forward_v I I I I #
face $-1 $76 $77 $28 $-1 $78 reversed single #
loop $-1 $-1 $79 $37 #
plane-surface $-1 -67.029494168286746 0 -14.029346105945431 0 0 1 1 0 0 forward_v I I I I #
face $-1 $80 $81 $29 $-1 $82 reversed single #
loop $-1 $-1 $83 $38 #
plane-surface $-1 -13.068224452694906 123.52418889973812 186.23626691246074 1 0 0 0 -0.81915205242281985 -0.57357642473473569 forward_v I I I I #
face $-1 $84 $85 $30 $-1 $86 forward single #
loop $-1 $87 $88 $39 #
cone-surface $-1 -0.050690421059385926 45.932747197071102 14.68193606456901 0 -0.81915205242281985 -0.57357642473473569 1 0 0 1 I I 0 1 1 forward I I I I #
face $-1 $89 $90 $31 $-1 $91 reversed single #
loop $-1 $-1 $92 $40 #
plane-surface $-1 53.961269715591826 123.52418889973812 186.23626691246074 1 0 0 0 -0.81915205242281985 -0.57357642473473569 forward_v I I I I #
face $-1 $93 $94 $32 $-1 $95 forward single #
loop $-1 $96 $97 $41 #
cone-surface $-1 66.978803747227346 45.932747197071102 14.68193606456901 0 -0.81915205242281985 -0.57357642473473569 1 0 0 1 I I 0 1 1 forward I I I I #
face $-1 $98 $99 $33 $-1 $100 reversed single #
loop $-1 $-1 $101 $42 #
plane-surface $-1 64.315073291853537 -51.199413964146885 5.5600777149640095 0 -0.62932039886446345 0.77714595512881146 1 0 0 forward_v I I I I #
face $-1 $102 $103 $34 $-1 $104 forward single #
loop $-1 $105 $106 $43 #
cone-surface $-1 57.594531368849516 -40.22437851133548 11.539082609560381 0 0.62932039886446345 -0.77714595512881146 1.5 0 0 1 I I 0 1 1.5 forward I I I I #
face $-1 $107 $108 $35 $-1 $109 forward single #
loop $-1 $110 $111 $44 #
cone-surface $-1 71.035615214857529 -40.22437851133548 11.539082609560381 0 0.62932039886446345 -0.77714595512881146 1.5 0 0 1 I I 0 1 1.5 forward I I I I #
face $-1 $112 $113 $27 $-1 $114 reversed single #
loop $-1 $-1 $115 $45 #
plane-surface $-1 0 0 -21.03118235216003 0 0 1 1 0 0 forward_v I I I I #
coedge $-1 $116 $117 $118 $119 forward $46 $-1 #
face $-1 $120 $121 $28 $-1 $122 reversed single #
loop $-1 $-1 $123 $48 #
plane-surface $-1 -54.062650557710612 0 -17.53026422905273 -1 0 0 0 0 1 forward_v I I I I #
coedge $-1 $124 $125 $126 $127 forward $49 $-1 #
face $-1 $128 $129 $29 $-1 $130 reversed single #
loop $-1 $-1 $131 $51 #
plane-surface $-1 -0.050690421059385926 -7.5341396559912681 94.468240082315859 0 0.81915205242281985 0.57357642473473569 1 0 0 forward_v I I I I #
coedge $-1 $132 $133 $134 $135 reversed $52 $-1 #
face $-1 $-1 $136 $30 $-1 $137 forward single #
loop $-1 $138 $139 $54 #
cone-surface $-1 -0.050690421059385926 43.912691286551379 13.267477731109189 0 -0.81915205242281985 -0.57357642473473569 0.5 0 0 1 I I -0.70710678118654746 0.70710678118654746 0.5 forward I I I I #
loop $-1 $-1 $140 $39 #
coedge $-1 $88 $88 $141 $142 reversed $55 $-1 #
face $-1 $143 $144 $31 $-1 $145 forward single #
loop $-1 $-1 $146 $57 #
plane-surface $-1 66.978803747227346 -7.5341396559912681 94.468240082315859 0 0.81915205242281985 0.57357642473473569 1 0 0 forward_v I I I I #
coedge $-1 $147 $148 $149 $150 reversed $58 $-1 #
face $-1 $-1 $151 $32 $-1 $152 forward single #
loop $-1 $153 $154 $60 #
cone-surface $-1 66.978803747227346 43.912691286551379 13.267477731109189 0 -0.81915205242281985 -0.57357642473473569 0.5 0 0 1 I I -0.70710678118654746 0.70710678118654746 0.5 forward I I I I #
loop $-1 $-1 $155 $41 #
coedge $-1 $97 $97 $156 $157 reversed $61 $-1 #
face $-1 $158 $159 $33 $-1 $160 forward single #
loop $-1 $-1 $161 $63 #
plane-surface $-1 48.633808804844179 -151.88606836152755 129.89773837488684 1 0 0 0 0.62932039886446345 -0.77714595512881146 forward_v I I I I #
coedge $-1 $162 $163 $164 $165 reversed $64 $-1 #
face $-1 $-1 $166 $34 $-1 $167 forward single #
loop $-1 $168 $169 $66 #
cone-surface $-1 57.594531368849516 -38.329964125435211 9.1996757192121486 0 0.62932039886446345 -0.77714595512881146 0.75 0 0 1 I I -0.70710678118654757 0.70710678118654757 0.75 forward I I I I #
loop $-1 $-1 $170 $43 #
coedge $-1 $106 $106 $171 $172 reversed $67 $-1 #
face $-1 $-1 $173 $35 $-1 $174 forward single #
loop $-1 $175 $176 $69 #
cone-surface $-1 71.035615214857529 -38.329964125435211 9.1996757192121486 0 0.62932039886446345 -0.77714595512881146 0.75 0 0 1 I I -0.70710678118654757 0.70710678118654757 0.75 forward I I I I #
loop $-1 $-1 $177 $44 #
coedge $-1 $111 $111 $178 $179 reversed $70 $-1 #
face $-1 $180 $181 $27 $-1 $182 reversed single #
loop $-1 $-1 $183 $72 #
plane-surface $-1 0 -51.199413964146871 0 0 1 0 0 0 1 forward_v I I I I #
coedge $-1 $184 $185 $186 $187 forward $73 $-1 #
coedge $-1 $188 $75 $189 $190 forward $46 $-1 #
coedge $-1 $75 $188 $191 $192 forward $46 $-1 #
coedge $-1 $193 $194 $75 $119 reversed $195 $-1 #
edge $-1 $196 -51.199413964146871 $197 51.199413964146871 $118 $198 forward 7 unknown #
face $-1 $199 $200 $28 $-1 $201 reversed single #
loop $-1 $-1 $202 $76 #
plane-surface $-1 0 0 -21.03118235216003 0 0 1 1 0 0 forward_v I I I I #
coedge $-1 $203 $126 $204 $205 reversed $77 $-1 #
coedge $-1 $206 $79 $207 $208 reversed $49 $-1 #
coedge $-1 $79 $206 $209 $210 reversed $49 $-1 #
coedge $-1 $123 $211 $79 $127 reversed $77 $-1 #
edge $-1 $212 -51.199413964146871 $213 51.199413964146871 $126 $214 forward 7 unknown #
face $-1 $215 $216 $29 $-1 $217 reversed single #
loop $-1 $-1 $218 $80 #
plane-surface $-1 12.966843610576134 123.52418889973812 186.23626691246074 -1 0 0 0 0.81915205242281985 0.57357642473473569 forward_v I I I I #
coedge $-1 $219 $220 $221 $222 reversed $81 $-1 #
coedge $-1 $133 $83 $223 $224 reversed $52 $-1 #
coedge $-1 $83 $132 $219 $225 reversed $52 $-1 #
coedge $-1 $221 $226 $83 $135 forward $227 $-1 #
edge $-1 $228 10.56268048572219 $229 17.875054251257133 $134 $230 forward 7 unknown #
loop $-1 $-1 $141 $84 #
plane-surface $-1 -0.050690421059385926 -7.5341396559912681 94.468240082315859 0 0.81915205242281985 0.57357642473473569 1 0 0 forward_v I I I I #
loop $-1 $-1 $231 $54 #
coedge $-1 $139 $139 $140 $232 reversed $85 $-1 #
coedge $-1 $140 $140 $139 $232 forward $87 $-1 #
coedge $-1 $141 $141 $88 $142 forward $136 $-1 #
edge $-1 $233 -8.6944029751476711e-016 $233 6.2831853071795996 $141 $234 forward 7 unknown #
face $-1 $235 $236 $31 $-1 $237 reversed single #
loop $-1 $-1 $149 $89 #
plane-surface $-1 0 0 21.03118235216003 0 0 1 1 0 0 forward_v I I I I #
coedge $-1 $238 $239 $240 $241 reversed $90 $-1 #
coedge $-1 $148 $92 $242 $243 reversed $58 $-1 #
coedge $-1 $92 $147 $238 $244 reversed $58 $-1 #
coedge $-1 $240 $245 $92 $150 forward $144 $-1 #
edge $-1 $246 10.56268048572219 $247 17.875054251257133 $149 $248 forward 7 unknown #
loop $-1 $-1 $156 $93 #
plane-surface $-1 66.978803747227346 -7.5341396559912681 94.468240082315859 0 0.81915205242281985 0.57357642473473569 1 0 0 forward_v I I I I #
loop $-1 $-1 $249 $60 #
coedge $-1 $154 $154 $155 $250 reversed $94 $-1 #
coedge $-1 $155 $155 $154 $250 forward $96 $-1 #
coedge $-1 $156 $156 $97 $157 forward $151 $-1 #
edge $-1 $251 -8.6944029751476711e-016 $251 6.2831853071795996 $156 $252 forward 7 unknown #
face $-1 $253 $254 $33 $-1 $255 reversed single #
loop $-1 $-1 $164 $98 #
plane-surface $-1 0 0 21.03118235216003 0 0 1 1 0 0 forward_v I I I I #
coedge $-1 $256 $257 $258 $259 reversed $99 $-1 #
coedge $-1 $260 $101 $261 $262 reversed $64 $-1 #
coedge $-1 $101 $260 $256 $263 forward $64 $-1 #
coedge $-1 $258 $264 $101 $165 forward $159 $-1 #
edge $-1 $265 -47.838801132936126 $266 -16.476272158917411 $164 $267 forward 7 unknown #
loop $-1 $-1 $171 $102 #
plane-surface $-1 64.315073291853537 -51.199413964146885 5.5600777149640095 0 -0.62932039886446345 0.77714595512881146 1 0 0 forward_v I I I I #
loop $-1 $-1 $268 $66 #
coedge $-1 $169 $169 $170 $269 reversed $103 $-1 #
coedge $-1 $170 $170 $169 $269 forward $105 $-1 #
coedge $-1 $171 $171 $106 $172 forward $166 $-1 #
edge $-1 $270 2.1007275032665698e-015 $270 6.2831853071796022 $171 $271 forward 7 unknown #
loop $-1 $-1 $178 $107 #
plane-surface $-1 64.315073291853537 -51.199413964146885 5.5600777149640095 0 -0.62932039886446345 0.77714595512881146 1 0 0 forward_v I I I I #
loop $-1 $-1 $272 $69 #
coedge $-1 $176 $176 $177 $273 reversed $108 $-1 #
coedge $-1 $177 $177 $176 $273 forward $110 $-1 #
coedge $-1 $178 $178 $111 $179 forward $173 $-1 #
edge $-1 $274 2.1007275032665698e-015 $274 6.2831853071796022 $178 $275 forward 7 unknown #
face $-1 $276 $277 $27 $-1 $278 reversed single #
loop $-1 $-1 $279 $112 #
plane-surface $-1 -79.99633777886288 0 0 1 0 0 0 0 -1 forward_v I I I I #
coedge $-1 $280 $191 $281 $282 forward $113 $-1 #
coedge $-1 $283 $115 $280 $284 forward $73 $-1 #
coedge $-1 $115 $283 $285 $286 forward $73 $-1 #
coedge $-1 $194 $193 $115 $187 reversed $195 $-1 #
edge $-1 $287 -51.199413964146871 $288 51.199413964146871 $186 $289 forward 7 unknown #
coedge $-1 $117 $116 $290 $291 forward $46 $-1 #
coedge $-1 $292 $293 $116 $190 reversed $277 $-1 #
edge $-1 $197 -79.99633777886288 $294 79.99633777886288 $189 $295 forward 7 unknown #
coedge $-1 $183 $296 $117 $192 reversed $113 $-1 #
edge $-1 $297 -79.99633777886288 $196 79.99633777886288 $191 $298 forward 7 unknown #
coedge $-1 $186 $118 $296 $299 forward $195 $-1 #
coedge $-1 $118 $186 $292 $300 reversed $195 $-1 #
loop $-1 $-1 $193 $276 #
vertex $-1 $119 $301 #
vertex $-1 $119 $302 #
straight-curve $-1 79.99633777886288 0 21.03118235216003 0 1 0 I I #
face $-1 $303 $304 $28 $-1 $305 reversed single #
loop $-1 $-1 $204 $120 #
plane-surface $-1 0 -51.199413964146871 0 0 1 0 0 0 1 forward_v I I I I #
coedge $-1 $306 $307 $203 $308 forward $121 $-1 #
coedge $-1 $211 $123 $202 $308 reversed $77 $-1 #
coedge $-1 $209 $309 $123 $205 forward $200 $-1 #
edge $-1 $310 -12.266050237633666 $212 -5.2642139914190658 $204 $311 forward 7 unknown #
coedge $-1 $125 $124 $312 $313 reversed $49 $-1 #
coedge $-1 $314 $315 $124 $208 forward $316 $-1 #
edge $-1 $317 -46.481590694719507 $213 -20.547903473567239 $207 $318 forward 7 unknown #
coedge $-1 $319 $204 $125 $210 forward $200 $-1 #
edge $-1 $212 20.547903473567239 $320 46.481590694719507 $209 $321 forward 7 unknown #
coedge $-1 $126 $203 $314 $322 reversed $77 $-1 #
vertex $-1 $210 $323 #
vertex $-1 $208 $324 #
straight-curve $-1 -54.062650557710612 0 -14.029346105945431 0 1 0 I I #
face $-1 $-1 $227 $29 $-1 $325 forward single #
loop $-1 $-1 $326 $128 #
plane-surface $-1 0 51.199413964146871 0 0 -1 0 0 0 -1 forward_v I I I I #
coedge $-1 $327 $328 $329 $330 reversed $129 $-1 #
coedge $-1 $331 $131 $133 $225 forward $81 $-1 #
coedge $-1 $131 $331 $327 $332 forward $81 $-1 #
coedge $-1 $329 $134 $131 $222 forward $227 $-1 #
edge $-1 $229 -13.042879242165213 $333 12.992188821105827 $221 $334 forward 7 unknown #
coedge $-1 $335 $336 $132 $224 forward $216 $-1 #
edge $-1 $337 -82.53010343706751 $228 -72.086951104070337 $223 $338 forward 7 unknown #
edge $-1 $229 89.650093060195374 $337 102.39882792829378 $133 $339 forward 7 unknown #
coedge $-1 $134 $329 $335 $340 forward $227 $-1 #
loop $-1 $-1 $329 $215 #
vertex $-1 $224 $341 #
vertex $-1 $135 $342 #
straight-curve $-1 -13.068224452694906 61.76209444986906 21.03118235216003 0 -1 0 I I #
coedge $-1 $231 $231 $-1 $343 reversed $138 $-1 #
edge $-1 $344 0 $344 6.2831853071796004 $139 $345 forward 7 unknown #
vertex $-1 $142 $346 #
ellipse-curve $-1 -0.050690421059385926 47.543227081379392 15.809606185661448 0 0.81915205242281985 0.57357642473473569 1 0 0 1 I I #
face $-1 $-1 $347 $31 $-1 $348 reversed single #
loop $-1 $-1 $349 $143 #
plane-surface $-1 79.99633777886288 0 0 -1 0 0 0 0 1 forward_v I I I I #
coedge $-1 $350 $146 $148 $244 forward $90 $-1 #
coedge $-1 $146 $350 $349 $351 reversed $90 $-1 #
coedge $-1 $352 $149 $146 $241 forward $144 $-1 #
edge $-1 $247 20.471867841978153 $353 46.506935905249193 $240 $354 forward 7 unknown #
coedge $-1 $355 $356 $147 $243 forward $347 $-1 #
edge $-1 $357 -82.53010343706751 $246 -72.086951104070337 $242 $358 forward 7 unknown #
edge $-1 $247 89.650093060195374 $357 102.39882792829378 $148 $359 forward 7 unknown #
coedge $-1 $149 $352 $355 $360 forward $144 $-1 #
vertex $-1 $243 $361 #
vertex $-1 $150 $362 #
straight-curve $-1 53.961269715591826 61.76209444986906 21.03118235216003 0 -1 0 I I #
coedge $-1 $249 $249 $-1 $363 reversed $153 $-1 #
edge $-1 $364 0 $364 6.2831853071796004 $154 $365 forward 7 unknown #
vertex $-1 $157 $366 #
ellipse-curve $-1 66.978803747227346 47.543227081379392 15.809606185661448 0 0.81915205242281985 0.57357642473473569 1 0 0 1 I I #
face $-1 $-1 $367 $33 $-1 $368 reversed single #
loop $-1 $-1 $369 $158 #
plane-surface $-1 0 -51.199413964146871 0 0 1 0 0 0 1 forward_v I I I I #
coedge $-1 $257 $161 $163 $263 reversed $99 $-1 #
coedge $-1 $161 $256 $370 $371 reversed $99 $-1 #
coedge $-1 $372 $164 $161 $259 forward $159 $-1 #
edge $-1 $266 -43.8488429487358 $373 -24.743620216616904 $258 $374 forward 7 unknown #
coedge $-1 $163 $162 $369 $375 reversed $64 $-1 #
coedge $-1 $376 $377 $162 $262 forward $367 $-1 #
edge $-1 $378 -18.145173570951869 $265 6.4386547383033941 $261 $379 forward 7 unknown #
edge $-1 $380 1.8310242626372826e-014 $266 24.583828309255281 $256 $381 forward 7 unknown #
coedge $-1 $164 $372 $376 $382 forward $159 $-1 #
vertex $-1 $262 $383 #
vertex $-1 $165 $384 #
straight-curve $-1 32.157536645926768 -32.094191232027981 21.03118235216003 -1 0 0 I I #
coedge $-1 $268 $268 $-1 $385 reversed $168 $-1 #
edge $-1 $386 0 $386 6.2831853071796004 $169 $387 forward 7 unknown #
vertex $-1 $172 $388 #
ellipse-curve $-1 57.594531368849516 -41.646802598087419 13.295630033562029 0 -0.62932039886446345 0.77714595512881146 1.5 0 0 1 I I #
coedge $-1 $272 $272 $-1 $389 reversed $175 $-1 #
edge $-1 $390 0 $390 6.2831853071796004 $176 $391 forward 7 unknown #
vertex $-1 $179 $392 #
ellipse-curve $-1 71.035615214857529 -41.646802598087419 13.295630033562029 0 -0.62932039886446345 0.77714595512881146 1.5 0 0 1 I I #
face $-1 $-1 $195 $27 $-1 $393 reversed single #
loop $-1 $-1 $292 $180 #
plane-surface $-1 0 51.199413964146871 0 0 -1 0 0 0 -1 forward_v I I I I #
coedge $-1 $394 $290 $293 $395 forward $181 $-1 #
coedge $-1 $296 $183 $184 $284 reversed $113 $-1 #
coedge $-1 $290 $394 $183 $282 reversed $181 $-1 #
edge $-1 $297 -21.03118235216003 $396 21.03118235216003 $281 $397 forward 7 unknown #
coedge $-1 $185 $184 $394 $398 forward $73 $-1 #
edge $-1 $288 -79.99633777886288 $396 79.99633777886288 $280 $399 forward 7 unknown #
coedge $-1 $293 $292 $185 $286 reversed $277 $-1 #
edge $-1 $400 -79.99633777886288 $287 79.99633777886288 $285 $401 forward 7 unknown #
vertex $-1 $187 $402 #
vertex $-1 $299 $403 #
straight-curve $-1 79.99633777886288 0 -21.03118235216003 0 -1 0 I I #
coedge $-1 $279 $281 $188 $291 reversed $181 $-1 #
edge $-1 $294 -51.199413964146871 $297 51.199413964146871 $290 $404 forward 7 unknown #
coedge $-1 $285 $189 $194 $300 forward $277 $-1 #
coedge $-1 $189 $285 $279 $395 reversed $277 $-1 #
vertex $-1 $190 $405 #
straight-curve $-1 0 51.199413964146871 21.03118235216003 -1 0 0 I I #
coedge $-1 $191 $280 $193 $299 reversed $113 $-1 #
vertex $-1 $291 $406 #
straight-curve $-1 0 -51.199413964146871 21.03118235216003 1 0 0 I I #
edge $-1 $196 -21.03118235216003 $288 21.03118235216003 $193 $407 forward 7 unknown #
edge $-1 $197 -21.03118235216003 $287 21.03118235216003 $194 $408 forward 7 unknown #
point $-1 79.99633777886288 -51.199413964146871 21.03118235216003 #
point $-1 79.99633777886288 51.199413964146871 21.03118235216003 #
face $-1 $-1 $316 $28 $-1 $409 reversed single #
loop $-1 $-1 $312 $199 #
plane-surface $-1 -79.99633777886288 0 0 1 0 0 0 0 -1 forward_v I I I I #
coedge $-1 $410 $202 $309 $411 forward $121 $-1 #
coedge $-1 $202 $410 $412 $413 forward $121 $-1 #
edge $-1 $414 -51.199413964146871 $310 51.199413964146871 $202 $415 forward 7 unknown #
coedge $-1 $204 $319 $306 $411 reversed $200 $-1 #
vertex $-1 $411 $416 #
straight-curve $-1 -54.062650557710612 -51.199413964146871 -8.7651321145263648 0 0 1 I I #
coedge $-1 $417 $418 $206 $313 forward $304 $-1 #
edge $-1 $320 -51.199413964146871 $317 51.199413964146871 $312 $419 forward 7 unknown #
coedge $-1 $412 $207 $211 $322 forward $316 $-1 #
coedge $-1 $207 $412 $417 $420 reversed $316 $-1 #
loop $-1 $-1 $314 $303 #
vertex $-1 $420 $421 #
straight-curve $-1 -33.514747084143373 51.199413964146871 -14.029346105945431 1 0 0 I I #
coedge $-1 $309 $209 $418 $422 forward $200 $-1 #
vertex $-1 $422 $423 #
straight-curve $-1 -33.514747084143373 -51.199413964146871 -14.029346105945431 -1 0 0 I I #
edge $-1 $213 5.2642139914190658 $414 12.266050237633666 $314 $424 forward 7 unknown #
point $-1 -54.062650557710612 -51.199413964146871 -14.029346105945431 #
point $-1 -54.062650557710612 51.199413964146871 -14.029346105945431 #
plane-surface $-1 0 0 21.03118235216003 0 0 1 1 0 0 forward_v I I I I #
coedge $-1 $336 $335 $328 $425 forward $216 $-1 #
coedge $-1 $328 $218 $220 $332 reversed $129 $-1 #
coedge $-1 $218 $327 $326 $425 reversed $129 $-1 #
coedge $-1 $226 $221 $218 $330 forward $227 $-1 #
edge $-1 $333 -17.875054251257133 $426 -10.56268048572219 $329 $427 forward 7 unknown #
coedge $-1 $220 $219 $336 $428 reversed $81 $-1 #
edge $-1 $429 -102.39882792829378 $333 -89.650093060195374 $327 $430 forward 7 unknown #
vertex $-1 $222 $431 #
straight-curve $-1 -0.025345210529692963 43.887040198611928 21.03118235216003 1 0 0 I I #
coedge $-1 $326 $223 $226 $340 reversed $216 $-1 #
coedge $-1 $223 $326 $331 $428 forward $216 $-1 #
vertex $-1 $224 $432 #
straight-curve $-1 -13.068224452694906 51.199413964146871 93.118133456230368 0 0 1 I I #
straight-curve $-1 -13.068224452694906 -7.5341396559912681 94.468240082315859 0 0.57357642473473569 -0.81915205242281985 I I #
edge $-1 $426 -12.966843610576134 $228 13.068224452694906 $335 $433 forward 7 unknown #
point $-1 -13.068224452694906 51.199413964146871 21.03118235216003 #
point $-1 -13.068224452694906 43.887040198611928 21.03118235216003 #
edge $-1 $434 1 $434 0 $231 $-1 forward 7 unknown #
vertex $-1 $232 $435 #
ellipse-curve $-1 -0.050690421059385926 44.32226731276279 13.554265943476556 0 0.81915205242281985 0.57357642473473569 1 0 0 1 I I #
point $-1 0.94930957894061407 47.543227081379413 15.809606185661464 #
loop $-1 $-1 $242 $235 #
plane-surface $-1 0 51.199413964146871 0 0 -1 0 0 0 -1 forward_v I I I I #
coedge $-1 $436 $437 $239 $351 forward $236 $-1 #
coedge $-1 $239 $238 $356 $438 reversed $90 $-1 #
edge $-1 $353 48.797464240427175 $439 61.546199108525585 $349 $440 forward 7 unknown #
coedge $-1 $245 $240 $437 $441 forward $144 $-1 #
vertex $-1 $441 $442 #
straight-curve $-1 33.489401873613673 43.887040198611928 21.03118235216003 1 0 0 I I #
coedge $-1 $443 $242 $245 $360 reversed $347 $-1 #
coedge $-1 $242 $443 $350 $438 forward $347 $-1 #
vertex $-1 $243 $444 #
straight-curve $-1 53.961269715591826 51.199413964146871 93.118133456230368 0 0 1 I I #
straight-curve $-1 53.961269715591826 -7.5341396559912681 94.468240082315859 0 0.57357642473473569 -0.81915205242281985 I I #
edge $-1 $445 -79.99633777886288 $246 -53.961269715591826 $355 $446 forward 7 unknown #
point $-1 53.961269715591826 51.199413964146871 21.03118235216003 #
point $-1 53.961269715591826 43.887040198611928 21.03118235216003 #
edge $-1 $447 1 $447 0 $249 $-1 forward 7 unknown #
vertex $-1 $250 $448 #
ellipse-curve $-1 66.978803747227346 44.32226731276279 13.554265943476556 0 0.81915205242281985 0.57357642473473569 1 0 0 1 I I #
point $-1 67.978803747227346 47.543227081379413 15.809606185661464 #
loop $-1 $-1 $261 $253 #
plane-surface $-1 79.99633777886288 0 0 -1 0 0 0 0 1 forward_v I I I I #
coedge $-1 $449 $370 $260 $375 forward $254 $-1 #
coedge $-1 $369 $450 $257 $371 forward $254 $-1 #
edge $-1 $373 43.917686835283391 $380 59.388791472479397 $370 $451 forward 7 unknown #
coedge $-1 $264 $258 $450 $452 forward $159 $-1 #
vertex $-1 $452 $453 #
straight-curve $-1 48.633808804844179 -75.943034180763775 21.03118235216003 0 -1 0 I I #
edge $-1 $380 16.476272158917411 $378 47.838801132936126 $369 $454 forward 7 unknown #
coedge $-1 $377 $261 $264 $382 reversed $367 $-1 #
coedge $-1 $261 $376 $449 $455 forward $367 $-1 #
vertex $-1 $375 $456 #
straight-curve $-1 79.99633777886288 -37.097965718371412 16.97920558410037 0 0.77714595512881146 0.62932039886446345 I I #
vertex $-1 $375 $457 #
straight-curve $-1 48.633808804844179 -51.199413964146885 5.5600777149640095 0 0.77714595512881146 0.62932039886446345 I I #
edge $-1 $458 -51.199413964146871 $265 -32.094191232027974 $376 $459 forward 7 unknown #
point $-1 79.996337778862895 -32.094191232027974 21.03118235216003 #
point $-1 48.633808804844179 -32.094191232027974 21.03118235216003 #
edge $-1 $460 1 $460 0 $268 $-1 forward 7 unknown #
vertex $-1 $269 $461 #
ellipse-curve $-1 57.594531368849516 -38.801954424583556 9.782535185558757 0 -0.62932039886446345 0.77714595512881146 1.5 0 0 1 I I #
point $-1 59.094531368849516 -41.646802598087397 13.295630033562007 #
edge $-1 $462 1 $462 0 $272 $-1 forward 7 unknown #
vertex $-1 $273 $463 #
ellipse-curve $-1 71.035615214857529 -38.801954424583556 9.782535185558757 0 -0.62932039886446345 0.77714595512881146 1.5 0 0 1 I I #
point $-1 72.535615214857529 -41.646802598087397 13.295630033562007 #
plane-surface $-1 79.99633777886288 0 0 -1 0 0 0 0 1 forward_v I I I I #
coedge $-1 $281 $279 $283 $398 reversed $181 $-1 #
edge $-1 $294 -21.03118235216003 $400 21.03118235216003 $293 $464 forward 7 unknown #
vertex $-1 $398 $465 #
straight-curve $-1 -79.99633777886288 -51.199413964146871 0 0 0 -1 I I #
edge $-1 $396 -51.199413964146871 $400 51.199413964146871 $394 $466 forward 7 unknown #
straight-curve $-1 0 -51.199413964146871 -21.03118235216003 -1 0 0 I I #
vertex $-1 $286 $467 #
straight-curve $-1 0 51.199413964146871 -21.03118235216003 1 0 0 I I #
point $-1 79.99633777886288 51.199413964146871 -21.03118235216003 #
point $-1 79.99633777886288 -51.199413964146871 -21.03118235216003 #
straight-curve $-1 -79.99633777886288 0 21.03118235216003 0 -1 0 I I #
point $-1 -79.99633777886288 51.199413964146871 21.03118235216003 #
point $-1 -79.99633777886288 -51.199413964146871 21.03118235216003 #
straight-curve $-1 79.99633777886288 -51.199413964146871 0 0 0 -1 I I #
straight-curve $-1 79.99633777886288 51.199413964146871 0 0 0 -1 I I #
plane-surface $-1 0 51.199413964146871 0 0 -1 0 0 0 -1 forward_v I I I I #
coedge $-1 $307 $306 $468 $469 forward $121 $-1 #
edge $-1 $310 54.062650557710612 $470 79.99633777886288 $309 $471 forward 7 unknown #
coedge $-1 $315 $314 $307 $413 reversed $316 $-1 #
edge $-1 $472 -79.99633777886288 $414 -54.062650557710612 $412 $473 forward 7 unknown #
vertex $-1 $322 $474 #
straight-curve $-1 -54.062650557710612 0 -21.03118235216003 0 -1 0 I I #
point $-1 -54.062650557710612 -51.199413964146871 -21.03118235216003 #
coedge $-1 $468 $312 $315 $420 forward $304 $-1 #
coedge $-1 $312 $468 $319 $422 reversed $304 $-1 #
straight-curve $-1 -79.99633777886288 0 -14.029346105945431 0 1 0 I I #
edge $-1 $317 14.029346105945431 $472 21.03118235216003 $315 $475 forward 7 unknown #
point $-1 -79.99633777886288 51.199413964146871 -14.029346105945431 #
edge $-1 $320 14.029346105945431 $470 21.03118235216003 $418 $476 forward 7 unknown #
point $-1 -79.99633777886288 -51.199413964146871 -14.029346105945431 #
straight-curve $-1 -54.062650557710612 51.199413964146871 -8.7651321145263648 0 0 -1 I I #
edge $-1 $426 72.086951104070337 $429 82.53010343706751 $326 $477 forward 7 unknown #
vertex $-1 $340 $478 #
straight-curve $-1 12.966843610576134 61.76209444986906 21.03118235216003 0 1 0 I I #
edge $-1 $429 -12.992188821105827 $337 13.042879242165213 $336 $479 forward 7 unknown #
vertex $-1 $428 $480 #
straight-curve $-1 12.966843610576134 -7.5341396559912681 94.468240082315859 0 -0.57357642473473569 0.81915205242281985 I I #
point $-1 12.966843610576134 43.887040198611928 21.03118235216003 #
point $-1 -13.068224452694906 51.199413964146878 10.588030019162858 #
straight-curve $-1 0 51.199413964146871 21.03118235216003 -1 0 0 I I #
vertex $-1 $343 $481 #
point $-1 0.94930957894061407 44.32226731276279 13.554265943476556 #
coedge $-1 $437 $349 $443 $482 reversed $236 $-1 #
coedge $-1 $349 $436 $352 $441 reversed $236 $-1 #
edge $-1 $439 -46.506935905249193 $357 -20.471867841978153 $356 $483 forward 7 unknown #
vertex $-1 $351 $484 #
straight-curve $-1 79.99633777886288 15.897965123466598 61.003725337735105 0 0.57357642473473569 -0.81915205242281985 I I #
edge $-1 $353 43.887040198611928 $445 51.199413964146871 $437 $485 forward 7 unknown #
point $-1 79.996337778862866 43.887040198611928 21.03118235216003 #
coedge $-1 $356 $355 $436 $482 forward $347 $-1 #
point $-1 53.961269715591826 51.199413964146878 10.588030019162858 #
vertex $-1 $441 $486 #
straight-curve $-1 0 51.199413964146871 21.03118235216003 -1 0 0 I I #
vertex $-1 $363 $487 #
point $-1 67.978803747227346 44.32226731276279 13.554265943476556 #
coedge $-1 $450 $369 $377 $455 reversed $254 $-1 #
coedge $-1 $370 $449 $372 $452 reversed $254 $-1 #
straight-curve $-1 48.633808804844179 -51.199413964146871 64.948869187443421 0 0 -1 I I #
edge $-1 $373 48.633808804844179 $458 79.99633777886288 $450 $488 forward 7 unknown #
point $-1 48.633808804844179 -51.199413964146871 21.03118235216003 #
straight-curve $-1 32.157536645926768 -51.199413964146871 5.5600777149640201 1 0 0 I I #
edge $-1 $458 -21.03118235216003 $378 -5.560077714964021 $377 $489 forward 7 unknown #
point $-1 79.996337778862895 -51.199413964146871 5.560077714964021 #
point $-1 48.633808804844179 -51.199413964146871 5.560077714964021 #
vertex $-1 $382 $490 #
straight-curve $-1 79.99633777886288 0 21.03118235216003 0 1 0 I I #
vertex $-1 $385 $491 #
point $-1 59.094531368849516 -38.801954424583556 9.782535185558757 #
vertex $-1 $389 $492 #
point $-1 72.535615214857529 -38.801954424583556 9.782535185558757 #
straight-curve $-1 -79.99633777886288 51.199413964146871 0 0 0 -1 I I #
point $-1 -79.99633777886288 -51.199413964146871 -21.03118235216003 #
straight-curve $-1 -79.99633777886288 0 -21.03118235216003 0 1 0 I I #
point $-1 -79.99633777886288 51.199413964146871 -21.03118235216003 #
coedge $-1 $418 $417 $410 $469 reversed $304 $-1 #
edge $-1 $470 -51.199413964146871 $472 51.199413964146871 $468 $493 forward 7 unknown #
vertex $-1 $469 $494 #
straight-curve $-1 0 -51.199413964146871 -21.03118235216003 -1 0 0 I I #
vertex $-1 $413 $495 #
straight-curve $-1 0 51.199413964146871 -21.03118235216003 1 0 0 I I #
point $-1 -54.062650557710612 51.199413964146871 -21.03118235216003 #
straight-curve $-1 -79.99633777886288 51.199413964146871 0 0 0 -1 I I #
straight-curve $-1 -79.99633777886288 -51.199413964146871 0 0 0 -1 I I #
straight-curve $-1 12.966843610576134 51.199413964146871 93.118133456230368 0 0 -1 I I #
point $-1 12.966843610576134 51.199413964146871 21.03118235216003 #
straight-curve $-1 -0.025345210529692963 51.199413964146871 10.588030019162844 -1 0 0 I I #
point $-1 12.966843610576134 51.199413964146878 10.588030019162858 #
point $-1 -0.050690421059385926 43.503115260339968 12.980689518741821 #
edge $-1 $445 -21.03118235216003 $439 -10.588030019162858 $436 $496 forward 7 unknown #
straight-curve $-1 33.489401873613673 51.199413964146871 10.588030019162844 -1 0 0 I I #
point $-1 79.996337778862866 51.199413964146878 10.588030019162858 #
straight-curve $-1 79.99633777886288 0 21.03118235216003 0 1 0 I I #
point $-1 79.99633777886288 51.199413964146871 21.03118235216003 #
point $-1 66.978803747227346 43.503115260339968 12.980689518741821 #
straight-curve $-1 0 -51.199413964146871 21.03118235216003 1 0 0 I I #
straight-curve $-1 79.99633777886288 -51.199413964146871 0 0 0 -1 I I #
point $-1 79.99633777886288 -51.199413964146871 21.03118235216003 #
point $-1 57.594531368849516 -37.857973826286866 8.6168162528655401 #
point $-1 71.035615214857529 -37.857973826286866 8.6168162528655401 #
straight-curve $-1 -79.99633777886288 0 -21.03118235216003 0 1 0 I I #
point $-1 -79.99633777886288 -51.199413964146871 -21.03118235216003 #
point $-1 -79.99633777886288 51.199413964146871 -21.03118235216003 #
straight-curve $-1 79.99633777886288 51.199413964146871 0 0 0 -1 I I #
End-of-ACIS-data 