500 0 5 0           
7 Unknown 11 ACIS 5.0 NT 24 Thu Mar 25 21:22:17 1999 
-1 9.9999999999999995e-007 1e-010 
body $-1 $5 $-1 $6 #
body $-1 $7 $-1 $8 #
body $-1 $9 $-1 $10 #
body $-1 $11 $-1 $12 #
body $-1 $13 $-1 $14 #
lump $-1 $-1 $15 $0 #
transform $-1 1 0 0 0 1 0 0 0 1 50.506912442396313 25.798031317053699 7.4351111955848372 1 rotate no_reflect no_shear #
lump $-1 $-1 $16 $1 #
transform $-1 1 0 0 0 1 0 0 0 1 50.506912442396313 25.798031317053699 7.4351111955848372 1 rotate no_reflect no_shear #
lump $-1 $-1 $17 $2 #
transform $-1 1 0 0 0 1 0 0 0 1 50.506912442396313 25.798031317053699 7.4351111955848372 1 rotate no_reflect no_shear #
lump $-1 $-1 $18 $3 #
transform $-1 1 0 0 0 1 0 0 0 1 50.506912442396313 25.798031317053699 7.4351111955848372 1 rotate no_reflect no_shear #
lump $-1 $-1 $19 $4 #
transform $-1 1 0 0 0 1 0 0 0 1 50.506912442396313 25.798031317053699 7.4351111955848372 1 rotate no_reflect no_shear #
shell $-1 $-1 $-1 $20 $-1 $5 #
shell $-1 $-1 $-1 $21 $-1 $7 #
shell $-1 $-1 $-1 $22 $-1 $9 #
shell $-1 $-1 $-1 $23 $-1 $11 #
shell $-1 $-1 $-1 $24 $-1 $13 #
face $-1 $25 $26 $15 $-1 $27 forward single #
face $-1 $28 $29 $16 $-1 $30 forward single #
face $-1 $31 $32 $17 $-1 $33 reversed single #
face $-1 $34 $35 $18 $-1 $36 forward single #
face $-1 $37 $38 $19 $-1 $39 forward single #
face $-1 $40 $41 $15 $-1 $42 reversed single #
loop $-1 $-1 $43 $20 #
plane-surface $-1 0 0 7.4351111955848372 0 0 1 1 0 0 forward_v I I I I #
face $-1 $44 $45 $16 $-1 $46 reversed single #
loop $-1 $-1 $47 $21 #
plane-surface $-1 0 -25.798031317053699 0 0 1 0 0 0 1 forward_v I I I I #
face $-1 $48 $49 $17 $-1 $50 reversed single #
loop $-1 $-1 $51 $22 #
plane-surface $-1 -35.687009480005386 37.542005232310473 113.99950632726713 -1 0 0 0 0.54463904215088732 0.83867056331134215 forward_v I I I I #
face $-1 $52 $53 $18 $-1 $54 forward single #
loop $-1 $55 $56 $23 #
cone-surface $-1 -46.272654453141762 19.303542323712712 1.7222749880828681 0 -0.54463904215088732 -0.83867056331134215 2 0 0 1 I I 0 1 2 forward I I I I #
face $-1 $57 $58 $19 $-1 $59 forward single #
loop $-1 $60 $61 $24 #
cone-surface $-1 -39.921267469259931 19.303542323712712 1.7222749880828681 0 -0.54463904215088732 -0.83867056331134215 2 0 0 1 I I 0 1 2 forward I I I I #
face $-1 $62 $63 $15 $-1 $64 reversed single #
loop $-1 $-1 $65 $25 #
plane-surface $-1 0 0 -7.4351111955848372 0 0 1 1 0 0 forward_v I I I I #
coedge $-1 $66 $67 $68 $69 forward $26 $-1 #
face $-1 $70 $71 $16 $-1 $72 reversed single #
loop $-1 $-1 $73 $28 #
plane-surface $-1 0 0 -7.4351111955848372 0 0 1 1 0 0 forward_v I I I I #
coedge $-1 $74 $75 $76 $77 forward $29 $-1 #
face $-1 $78 $79 $17 $-1 $80 forward single #
loop $-1 $-1 $81 $31 #
plane-surface $-1 -43.09696096120085 -17.474067596940451 29.282184908904824 0 0.54463904215088732 0.83867056331134215 1 0 0 forward_v I I I I #
coedge $-1 $82 $83 $84 $85 reversed $32 $-1 #
face $-1 $-1 $86 $18 $-1 $87 forward single #
loop $-1 $88 $89 $34 #
cone-surface $-1 -46.272654453141762 17.079692372038963 -1.7021535734917164 0 -0.54463904215088732 -0.83867056331134215 1 0 0 1 I I -0.70710678118654746 0.70710678118654746 1 forward I I I I #
loop $-1 $-1 $90 $23 #
coedge $-1 $56 $56 $91 $92 reversed $35 $-1 #
face $-1 $-1 $93 $19 $-1 $94 forward single #
loop $-1 $95 $96 $37 #
cone-surface $-1 -39.921267469259931 17.079692372038963 -1.7021535734917164 0 -0.54463904215088732 -0.83867056331134215 1 0 0 1 I I -0.70710678118654746 0.70710678118654746 1 forward I I I I #
loop $-1 $-1 $97 $24 #
coedge $-1 $61 $61 $98 $99 reversed $38 $-1 #
face $-1 $100 $101 $15 $-1 $102 reversed single #
loop $-1 $-1 $103 $40 #
plane-surface $-1 0 -25.798031317053699 0 0 1 0 0 0 1 forward_v I I I I #
coedge $-1 $104 $105 $106 $107 forward $41 $-1 #
coedge $-1 $108 $43 $109 $110 forward $26 $-1 #
coedge $-1 $43 $108 $111 $112 forward $26 $-1 #
coedge $-1 $113 $114 $43 $69 reversed $115 $-1 #
edge $-1 $116 -25.798031317053699 $117 25.798031317053699 $68 $118 forward 7 unknown #
face $-1 $119 $120 $16 $-1 $121 forward single #
loop $-1 $-1 $122 $44 #
plane-surface $-1 50.506912442396313 0 0 -1 0 0 0 0 1 forward_v I I I I #
coedge $-1 $123 $124 $125 $126 forward $45 $-1 #
coedge $-1 $125 $47 $122 $127 reversed $29 $-1 #
coedge $-1 $47 $125 $128 $129 reversed $29 $-1 #
coedge $-1 $130 $131 $47 $77 reversed $120 $-1 #
edge $-1 $132 -50.506912442396313 $133 50.506912442396313 $76 $134 forward 7 unknown #
face $-1 $135 $136 $17 $-1 $137 reversed single #
loop $-1 $-1 $138 $48 #
plane-surface $-1 0 0 7.4351111955848372 0 0 1 1 0 0 forward_v I I I I #
coedge $-1 $139 $140 $141 $142 reversed $49 $-1 #
coedge $-1 $83 $51 $143 $144 reversed $32 $-1 #
coedge $-1 $51 $82 $139 $145 reversed $32 $-1 #
coedge $-1 $141 $146 $51 $85 forward $136 $-1 #
edge $-1 $147 49.564641968048726 $148 55.818798386526183 $84 $149 forward 7 unknown #
loop $-1 $-1 $91 $52 #
plane-surface $-1 -43.09696096120085 -17.474067596940451 29.282184908904824 0 0.54463904215088732 0.83867056331134215 1 0 0 forward_v I I I I #
loop $-1 $-1 $150 $34 #
coedge $-1 $89 $89 $90 $151 reversed $53 $-1 #
coedge $-1 $90 $90 $89 $151 forward $55 $-1 #
coedge $-1 $91 $91 $56 $92 forward $86 $-1 #
edge $-1 $152 -1.451209931293695e-015 $152 6.2831853071795987 $91 $153 forward 7 unknown #
loop $-1 $-1 $98 $57 #
plane-surface $-1 -43.09696096120085 -17.474067596940451 29.282184908904824 0 0.54463904215088732 0.83867056331134215 1 0 0 forward_v I I I I #
loop $-1 $-1 $154 $37 #
coedge $-1 $96 $96 $97 $155 reversed $58 $-1 #
coedge $-1 $97 $97 $96 $155 forward $60 $-1 #
coedge $-1 $98 $98 $61 $99 forward $93 $-1 #
edge $-1 $156 -1.451209931293695e-015 $156 6.2831853071795987 $98 $157 forward 7 unknown #
face $-1 $158 $159 $15 $-1 $160 reversed single #
loop $-1 $-1 $161 $62 #
plane-surface $-1 -50.506912442396313 0 0 1 0 0 0 0 -1 forward_v I I I I #
coedge $-1 $111 $162 $113 $163 reversed $63 $-1 #
coedge $-1 $164 $65 $162 $165 forward $41 $-1 #
coedge $-1 $65 $164 $166 $167 forward $41 $-1 #
coedge $-1 $114 $113 $65 $107 reversed $115 $-1 #
edge $-1 $168 -25.798031317053699 $169 25.798031317053699 $106 $170 forward 7 unknown #
coedge $-1 $67 $66 $171 $172 forward $26 $-1 #
coedge $-1 $173 $174 $66 $110 reversed $159 $-1 #
edge $-1 $117 -50.506912442396313 $175 50.506912442396313 $109 $176 forward 7 unknown #
coedge $-1 $177 $103 $67 $112 reversed $63 $-1 #
edge $-1 $178 -50.506912442396313 $116 50.506912442396313 $111 $179 forward 7 unknown #
coedge $-1 $106 $68 $103 $163 forward $115 $-1 #
coedge $-1 $68 $106 $173 $180 reversed $115 $-1 #
loop $-1 $-1 $113 $158 #
vertex $-1 $69 $181 #
vertex $-1 $69 $182 #
straight-curve $-1 50.506912442396313 0 7.4351111955848372 0 1 0 I I #
face $-1 $183 $184 $16 $-1 $185 reversed single #
loop $-1 $-1 $131 $70 #
plane-surface $-1 0 -29.495970674028882 -3.227909720875016 0 0 1 1 0 0 forward_v I I I I #
coedge $-1 $186 $187 $74 $127 forward $71 $-1 #
coedge $-1 $188 $73 $187 $189 forward $45 $-1 #
coedge $-1 $73 $188 $190 $191 forward $45 $-1 #
coedge $-1 $75 $74 $73 $126 reversed $29 $-1 #
edge $-1 $192 -50.506912442396313 $193 50.506912442396313 $73 $194 forward 7 unknown #
edge $-1 $193 -7.4351111955848372 $133 -3.227909720875016 $122 $195 forward 7 unknown #
coedge $-1 $190 $196 $75 $129 forward $197 $-1 #
edge $-1 $132 3.227909720875016 $192 7.4351111955848372 $128 $198 forward 7 unknown #
coedge $-1 $199 $76 $196 $200 forward $120 $-1 #
coedge $-1 $76 $199 $186 $201 forward $120 $-1 #
vertex $-1 $129 $202 #
vertex $-1 $201 $203 #
straight-curve $-1 0 -25.798031317053699 -3.227909720875016 1 0 0 I I #
face $-1 $-1 $204 $17 $-1 $205 reversed single #
loop $-1 $-1 $84 $78 #
plane-surface $-1 0 25.798031317053699 0 0 -1 0 0 0 -1 forward_v I I I I #
coedge $-1 $143 $206 $207 $208 forward $79 $-1 #
coedge $-1 $207 $81 $83 $145 forward $49 $-1 #
coedge $-1 $81 $207 $209 $210 reversed $49 $-1 #
coedge $-1 $211 $84 $81 $142 forward $136 $-1 #
edge $-1 $148 14.138528999404961 $212 28.958431961795888 $141 $213 forward 7 unknown #
coedge $-1 $214 $138 $82 $144 forward $79 $-1 #
edge $-1 $215 -2.6035274667378019 $147 7.0270287008984624 $143 $216 forward 7 unknown #
edge $-1 $148 -51.596062634107398 $215 -40.112940906772991 $83 $217 forward 7 unknown #
coedge $-1 $84 $211 $214 $218 reversed $136 $-1 #
vertex $-1 $218 $219 #
vertex $-1 $85 $220 #
straight-curve $-1 -35.687009480005386 25.798031317053699 56.999753163633564 0 0 -1 I I #
coedge $-1 $150 $150 $-1 $221 reversed $88 $-1 #
edge $-1 $222 0 $222 6.2831853071796004 $89 $223 forward 7 unknown #
vertex $-1 $92 $224 #
ellipse-curve $-1 -46.272654453141762 20.98275323323557 4.3080329863461051 0 0.54463904215088732 0.83867056331134215 2 0 0 1 I I #
coedge $-1 $154 $154 $-1 $225 reversed $95 $-1 #
edge $-1 $226 0 $226 6.2831853071796004 $96 $227 forward 7 unknown #
vertex $-1 $99 $228 #
ellipse-curve $-1 -39.921267469259931 20.98275323323557 4.3080329863461051 0 0.54463904215088732 0.83867056331134215 2 0 0 1 I I #
face $-1 $-1 $115 $15 $-1 $229 reversed single #
loop $-1 $-1 $173 $100 #
plane-surface $-1 0 25.798031317053699 0 0 -1 0 0 0 -1 forward_v I I I I #
coedge $-1 $230 $171 $174 $231 forward $101 $-1 #
coedge $-1 $103 $177 $104 $165 reversed $63 $-1 #
edge $-1 $116 -7.4351111955848372 $169 7.4351111955848372 $113 $232 forward 7 unknown #
coedge $-1 $105 $104 $230 $233 forward $41 $-1 #
edge $-1 $169 -50.506912442396313 $234 50.506912442396313 $162 $235 forward 7 unknown #
coedge $-1 $174 $173 $105 $167 reversed $159 $-1 #
edge $-1 $236 -50.506912442396313 $168 50.506912442396313 $166 $237 forward 7 unknown #
vertex $-1 $107 $238 #
vertex $-1 $163 $239 #
straight-curve $-1 50.506912442396313 0 -7.4351111955848372 0 -1 0 I I #
coedge $-1 $161 $240 $108 $172 reversed $101 $-1 #
edge $-1 $175 -25.798031317053699 $178 25.798031317053699 $171 $241 forward 7 unknown #
coedge $-1 $166 $109 $114 $180 forward $159 $-1 #
coedge $-1 $109 $166 $161 $231 reversed $159 $-1 #
vertex $-1 $110 $242 #
straight-curve $-1 0 25.798031317053699 7.4351111955848372 -1 0 0 I I #
coedge $-1 $162 $111 $240 $243 forward $63 $-1 #
vertex $-1 $172 $244 #
straight-curve $-1 0 -25.798031317053699 7.4351111955848372 1 0 0 I I #
edge $-1 $117 -7.4351111955848372 $168 7.4351111955848372 $114 $245 forward 7 unknown #
point $-1 50.506912442396313 -25.798031317053699 7.4351111955848372 #
point $-1 50.506912442396313 25.798031317053699 7.4351111955848372 #
face $-1 $-1 $197 $16 $-1 $246 reversed single #
loop $-1 $-1 $247 $119 #
plane-surface $-1 0 -33.193910031004066 -5.3315104582299266 0 1 0 0 0 1 forward_v I I I I #
coedge $-1 $248 $122 $131 $201 reversed $71 $-1 #
coedge $-1 $122 $248 $123 $189 reversed $71 $-1 #
coedge $-1 $124 $123 $249 $250 forward $45 $-1 #
edge $-1 $193 25.798031317053699 $251 33.193910031004066 $187 $252 forward 7 unknown #
coedge $-1 $253 $128 $124 $191 reversed $197 $-1 #
edge $-1 $254 -33.193910031004066 $192 -25.798031317053699 $190 $255 forward 7 unknown #
vertex $-1 $129 $256 #
vertex $-1 $189 $257 #
straight-curve $-1 0 -25.798031317053699 -7.4351111955848372 1 0 0 I I #
straight-curve $-1 50.506912442396313 -25.798031317053699 0 0 0 1 I I #
coedge $-1 $128 $253 $130 $200 reversed $197 $-1 #
loop $-1 $-1 $128 $183 #
straight-curve $-1 -50.506912442396313 -25.798031317053699 0 0 0 -1 I I #
coedge $-1 $131 $130 $258 $259 forward $120 $-1 #
edge $-1 $132 -3.6979393569751835 $260 3.6979393569751835 $196 $261 forward 7 unknown #
edge $-1 $262 -3.6979393569751835 $133 3.6979393569751835 $186 $263 forward 7 unknown #
point $-1 -50.506912442396313 -25.798031317053699 -3.227909720875016 #
point $-1 50.506912442396313 -25.798031317053699 -3.227909720875016 #
loop $-1 $-1 $209 $135 #
plane-surface $-1 -50.506912442396313 0 0 1 0 0 0 0 -1 forward_v I I I I #
coedge $-1 $138 $214 $264 $265 forward $79 $-1 #
coedge $-1 $140 $139 $138 $208 reversed $49 $-1 #
edge $-1 $266 -28.958431961795888 $215 -14.138528999404961 $138 $267 forward 7 unknown #
coedge $-1 $264 $268 $140 $210 forward $204 $-1 #
edge $-1 $212 -36.294459006238597 $266 -24.811337278904183 $209 $269 forward 7 unknown #
coedge $-1 $146 $141 $268 $270 reversed $136 $-1 #
vertex $-1 $142 $271 #
straight-curve $-1 -21.548480480600425 25.798031317053699 1.1809547771073827 -1 0 0 I I #
coedge $-1 $206 $143 $146 $218 forward $79 $-1 #
vertex $-1 $144 $272 #
straight-curve $-1 -35.687009480005386 18.771002616155236 7.4351111955848381 0 1 0 I I #
straight-curve $-1 -35.687009480005386 -17.474067596940451 29.282184908904824 0 -0.83867056331134215 0.54463904215088732 I I #
edge $-1 $147 35.687009480005386 $273 50.506912442396313 $146 $274 forward 7 unknown #
point $-1 -35.687009480005386 25.798031317053699 7.4351111955848372 #
point $-1 -35.687009480005386 25.798031317053699 1.1809547771073809 #
edge $-1 $275 1 $275 0 $150 $-1 forward 7 unknown #
vertex $-1 $151 $276 #
ellipse-curve $-1 -46.272654453141762 17.62433141418985 -0.86348301018037421 0 0.54463904215088732 0.83867056331134215 2 0 0 1 I I #
point $-1 -44.272654453141762 20.98275323323557 4.3080329863461104 #
edge $-1 $277 1 $277 0 $154 $-1 forward 7 unknown #
vertex $-1 $155 $278 #
ellipse-curve $-1 -39.921267469259931 17.62433141418985 -0.86348301018037421 0 0.54463904215088732 0.83867056331134215 2 0 0 1 I I #
point $-1 -37.921267469259931 20.98275323323557 4.3080329863461104 #
plane-surface $-1 50.506912442396313 0 0 -1 0 0 0 0 1 forward_v I I I I #
coedge $-1 $240 $161 $164 $233 reversed $101 $-1 #
edge $-1 $175 -7.4351111955848372 $236 7.4351111955848372 $174 $279 forward 7 unknown #
straight-curve $-1 50.506912442396313 -25.798031317053699 0 0 0 -1 I I #
edge $-1 $234 -25.798031317053699 $236 25.798031317053699 $230 $280 forward 7 unknown #
vertex $-1 $233 $281 #
straight-curve $-1 0 -25.798031317053699 -7.4351111955848372 -1 0 0 I I #
vertex $-1 $167 $282 #
straight-curve $-1 0 25.798031317053699 -7.4351111955848372 1 0 0 I I #
point $-1 50.506912442396313 25.798031317053699 -7.4351111955848372 #
point $-1 50.506912442396313 -25.798031317053699 -7.4351111955848372 #
coedge $-1 $171 $230 $177 $243 reversed $101 $-1 #
straight-curve $-1 -50.506912442396313 0 7.4351111955848372 0 -1 0 I I #
point $-1 -50.506912442396313 25.798031317053699 7.4351111955848372 #
edge $-1 $178 -7.4351111955848372 $234 7.4351111955848372 $240 $283 forward 7 unknown #
point $-1 -50.506912442396313 -25.798031317053699 7.4351111955848372 #
straight-curve $-1 50.506912442396313 25.798031317053699 0 0 0 -1 I I #
plane-surface $-1 -50.506912442396313 0 0 1 0 0 0 0 -1 forward_v I I I I #
coedge $-1 $249 $258 $253 $284 forward $184 $-1 #
coedge $-1 $187 $186 $285 $286 forward $71 $-1 #
coedge $-1 $285 $247 $188 $250 reversed $184 $-1 #
edge $-1 $251 -50.506912442396313 $254 50.506912442396313 $249 $287 forward 7 unknown #
vertex $-1 $286 $288 #
straight-curve $-1 50.506912442396313 0 -7.4351111955848372 0 -1 0 I I #
coedge $-1 $196 $190 $247 $284 reversed $197 $-1 #
vertex $-1 $191 $289 #
straight-curve $-1 -50.506912442396313 0 -7.4351111955848372 0 1 0 I I #
point $-1 -50.506912442396313 -25.798031317053699 -7.4351111955848372 #
point $-1 50.506912442396313 -25.798031317053699 -7.4351111955848372 #
coedge $-1 $247 $285 $199 $259 reversed $184 $-1 #
edge $-1 $260 -50.506912442396313 $262 50.506912442396313 $258 $290 forward 7 unknown #
vertex $-1 $200 $291 #
straight-curve $-1 -50.506912442396313 -29.495970674028882 -3.227909720875016 0 -1 0 I I #
vertex $-1 $201 $292 #
straight-curve $-1 50.506912442396313 -29.495970674028882 -3.227909720875016 0 1 0 I I #
coedge $-1 $268 $209 $206 $265 reversed $204 $-1 #
edge $-1 $273 -25.798031317053699 $266 -16.167475149417434 $264 $293 forward 7 unknown #
vertex $-1 $210 $294 #
straight-curve $-1 -21.548480480600425 16.167475149417431 7.4351111955848364 1 0 0 I I #
coedge $-1 $209 $264 $211 $270 forward $204 $-1 #
straight-curve $-1 -50.506912442396313 -4.6410630627888425 20.948334165649815 0 -0.83867056331134215 0.54463904215088732 I I #
edge $-1 $273 -7.4351111955848372 $212 -1.1809547771073812 $211 $295 forward 7 unknown #
point $-1 -50.506912442396313 25.798031317053699 1.1809547771073812 #
point $-1 -35.687009480005386 16.167475149417434 7.4351111955848381 #
vertex $-1 $218 $296 #
straight-curve $-1 0 25.798031317053699 7.4351111955848372 -1 0 0 I I #
vertex $-1 $221 $297 #
point $-1 -44.272654453141762 17.62433141418985 -0.86348301018037421 #
vertex $-1 $225 $298 #
point $-1 -37.921267469259931 17.62433141418985 -0.86348301018037421 #
straight-curve $-1 -50.506912442396313 25.798031317053699 0 0 0 -1 I I #
straight-curve $-1 -50.506912442396313 0 -7.4351111955848372 0 1 0 I I #
point $-1 -50.506912442396313 -25.798031317053699 -7.4351111955848372 #
point $-1 -50.506912442396313 25.798031317053699 -7.4351111955848372 #
straight-curve $-1 -50.506912442396313 -25.798031317053699 0 0 0 -1 I I #
edge $-1 $260 -2.1036007373549106 $254 2.1036007373549106 $253 $299 forward 7 unknown #
coedge $-1 $258 $249 $248 $286 reversed $184 $-1 #
edge $-1 $262 -2.1036007373549106 $251 2.1036007373549106 $248 $300 forward 7 unknown #
straight-curve $-1 0 -33.193910031004066 -7.4351111955848372 -1 0 0 I I #
point $-1 50.506912442396313 -33.193910031004066 -7.4351111955848372 #
point $-1 -50.506912442396313 -33.193910031004066 -7.4351111955848372 #
straight-curve $-1 0 -33.193910031004066 -3.227909720875016 1 0 0 I I #
point $-1 -50.506912442396313 -33.193910031004066 -3.227909720875016 #
point $-1 50.506912442396313 -33.193910031004066 -3.227909720875016 #
straight-curve $-1 -50.506912442396313 0 7.4351111955848372 0 -1 0 I I #
point $-1 -50.506912442396313 16.167475149417434 7.4351111955848381 #
straight-curve $-1 -50.506912442396313 25.798031317053699 0 0 0 -1 I I #
point $-1 -50.506912442396313 25.798031317053699 7.4351111955848372 #
point $-1 -46.272654453141762 16.535053329888076 -2.5408241368030584 #
point $-1 -39.921267469259931 16.535053329888076 -2.5408241368030584 #
straight-curve $-1 -50.506912442396313 -33.193910031004066 -5.3315104582299266 0 0 -1 I I #
straight-curve $-1 50.506912442396313 -33.193910031004066 -5.3315104582299266 0 0 -1 I I #
End-of-ACIS-data 