500 0 6 0           
7 Unknown 11 ACIS 5.0 NT 24 Fri Mar 26 14:21:09 1999 
-1 9.9999999999999995e-007 1e-010 
body $-1 $6 $-1 $7 #
body $-1 $8 $-1 $9 #
body $-1 $10 $-1 $11 #
body $-1 $12 $-1 $13 #
body $-1 $14 $-1 $15 #
body $-1 $16 $-1 $17 #
lump $-1 $-1 $18 $0 #
transform $-1 1 0 0 0 1 0 0 0 1 67.908566545609915 35.985923880265553 11.932671856936837 1 rotate no_reflect no_shear #
lump $-1 $-1 $19 $1 #
transform $-1 1 0 0 0 1 0 0 0 1 67.908566545609915 35.985923880265553 11.932671856936837 1 rotate no_reflect no_shear #
lump $-1 $-1 $20 $2 #
transform $-1 1 0 0 0 1 0 0 0 1 67.908566545609915 35.985923880265553 11.932671856936837 1 rotate no_reflect no_shear #
lump $-1 $-1 $21 $3 #
transform $-1 1 0 0 0 1 0 0 0 1 67.908566545609915 35.985923880265553 11.932671856936837 1 rotate no_reflect no_shear #
lump $-1 $-1 $22 $4 #
transform $-1 1 0 0 0 1 0 0 0 1 67.908566545609915 35.985923880265553 11.932671856936837 1 rotate no_reflect no_shear #
lump $-1 $-1 $23 $5 #
transform $-1 1 0 0 0 1 0 0 0 1 67.908566545609915 35.985923880265553 11.932671856936837 1 rotate no_reflect no_shear #
shell $-1 $-1 $-1 $24 $-1 $6 #
shell $-1 $-1 $-1 $25 $-1 $8 #
shell $-1 $-1 $-1 $26 $-1 $10 #
shell $-1 $-1 $-1 $27 $-1 $12 #
shell $-1 $-1 $-1 $28 $-1 $14 #
shell $-1 $-1 $-1 $29 $-1 $16 #
face $-1 $30 $31 $18 $-1 $32 forward single #
face $-1 $33 $34 $19 $-1 $35 forward single #
face $-1 $36 $37 $20 $-1 $38 forward single #
face $-1 $39 $40 $21 $-1 $41 reversed single #
face $-1 $42 $43 $22 $-1 $44 forward single #
face $-1 $45 $46 $23 $-1 $47 forward single #
face $-1 $48 $49 $18 $-1 $50 reversed single #
loop $-1 $-1 $51 $24 #
plane-surface $-1 0 0 11.932671856936837 0 0 1 1 0 0 forward_v I I I I #
face $-1 $52 $53 $19 $-1 $54 reversed single #
loop $-1 $-1 $55 $25 #
plane-surface $-1 -61.011950531524278 0 0.90684018465305449 0 0 1 1 0 0 forward_v I I I I #
face $-1 $56 $57 $20 $-1 $58 reversed single #
loop $-1 $-1 $59 $26 #
plane-surface $-1 63.89519461408409 0 -6.8422676774075999 0 0 1 1 0 0 forward_v I I I I #
face $-1 $60 $61 $21 $-1 $62 reversed single #
loop $-1 $-1 $63 $27 #
plane-surface $-1 3.7937473047602133 52.266536254810255 157.18690439087595 -1 0 0 0 0.55919291073839883 0.82903756765294845 forward_v I I I I #
face $-1 $64 $65 $22 $-1 $66 forward single #
loop $-1 $67 $68 $28 #
cone-surface $-1 -8.5346688409461535 28.483435603963343 5.3557889135002457 0 -0.55919291073839883 -0.82903756765294845 2 0 0 1 I I 0 1 2 forward I I I I #
face $-1 $69 $70 $23 $-1 $71 forward single #
loop $-1 $72 $73 $29 #
cone-surface $-1 -1.137619153522337 28.483435603963343 5.3557889135002457 0 -0.55919291073839883 -0.82903756765294845 2 0 0 1 I I 0 1 2 forward I I I I #
face $-1 $74 $75 $18 $-1 $76 reversed single #
loop $-1 $-1 $77 $30 #
plane-surface $-1 0 0 -11.932671856936837 0 0 1 1 0 0 forward_v I I I I #
coedge $-1 $78 $79 $80 $81 forward $31 $-1 #
face $-1 $82 $83 $19 $-1 $84 reversed single #
loop $-1 $-1 $85 $33 #
plane-surface $-1 -61.011950531524278 0 -2.0931598153469455 0 0 1 1 0 0 forward_v I I I I #
coedge $-1 $86 $87 $88 $89 forward $34 $-1 #
face $-1 $90 $91 $20 $-1 $92 reversed single #
loop $-1 $-1 $93 $36 #
plane-surface $-1 59.881822682558266 0 -9.3874697671722185 1 0 0 0 0 -1 forward_v I I I I #
coedge $-1 $94 $95 $96 $97 reversed $37 $-1 #
face $-1 $98 $99 $21 $-1 $100 reversed single #
loop $-1 $-1 $101 $39 #
plane-surface $-1 -4.8361439972342453 -23.681441726613464 44.589398727334284 0 0.55919291073839883 0.82903756765294845 1 0 0 forward_v I I I I #
coedge $-1 $102 $103 $104 $105 reversed $40 $-1 #
face $-1 $-1 $106 $22 $-1 $107 forward single #
loop $-1 $108 $109 $42 #
cone-surface $-1 -8.5346688409461535 26.047643369407488 1.7445784874281198 0 -0.55919291073839883 -0.82903756765294845 1 0 0 1 I I -0.70710678118654746 0.70710678118654746 1 forward I I I I #
loop $-1 $-1 $110 $28 #
coedge $-1 $68 $68 $111 $112 reversed $43 $-1 #
face $-1 $-1 $113 $23 $-1 $114 forward single #
loop $-1 $115 $116 $45 #
cone-surface $-1 -1.137619153522337 26.047643369407488 1.7445784874281198 0 -0.55919291073839883 -0.82903756765294845 1 0 0 1 I I -0.70710678118654746 0.70710678118654746 1 forward I I I I #
loop $-1 $-1 $117 $29 #
coedge $-1 $73 $73 $118 $119 reversed $46 $-1 #
face $-1 $120 $121 $18 $-1 $122 reversed single #
loop $-1 $-1 $123 $48 #
plane-surface $-1 0 -35.985923880265553 0 0 1 0 0 0 1 forward_v I I I I #
coedge $-1 $124 $125 $126 $127 forward $49 $-1 #
coedge $-1 $128 $51 $129 $130 forward $31 $-1 #
coedge $-1 $51 $128 $131 $132 forward $31 $-1 #
coedge $-1 $133 $134 $51 $81 reversed $135 $-1 #
edge $-1 $136 -35.985923880265553 $137 35.985923880265553 $80 $138 forward 7 unknown #
face $-1 $139 $140 $19 $-1 $141 reversed single #
loop $-1 $-1 $142 $52 #
plane-surface $-1 -54.11533451743864 0 -0.59315981534694551 -1 0 0 0 0 1 forward_v I I I I #
coedge $-1 $143 $144 $145 $146 forward $53 $-1 #
coedge $-1 $147 $55 $148 $149 reversed $34 $-1 #
coedge $-1 $55 $147 $150 $151 reversed $34 $-1 #
coedge $-1 $142 $152 $55 $89 reversed $83 $-1 #
edge $-1 $153 -35.985923880265553 $154 35.985923880265553 $88 $155 forward 7 unknown #
face $-1 $156 $157 $20 $-1 $158 reversed single #
loop $-1 $-1 $159 $56 #
plane-surface $-1 0 -35.985923880265553 0 0 1 0 0 0 1 forward_v I I I I #
coedge $-1 $160 $161 $162 $163 reversed $57 $-1 #
coedge $-1 $164 $59 $165 $166 reversed $37 $-1 #
coedge $-1 $59 $164 $159 $167 reversed $37 $-1 #
coedge $-1 $168 $169 $59 $97 forward $170 $-1 #
edge $-1 $171 -35.985923880265553 $172 35.985923880265553 $96 $173 forward 7 unknown #
face $-1 $174 $175 $21 $-1 $176 reversed single #
loop $-1 $-1 $177 $60 #
plane-surface $-1 -13.466035299228704 52.266536254810255 157.18690439087595 1 0 0 0 -0.55919291073839883 -0.82903756765294845 forward_v I I I I #
coedge $-1 $178 $179 $180 $181 reversed $61 $-1 #
coedge $-1 $103 $63 $182 $183 reversed $40 $-1 #
coedge $-1 $63 $102 $178 $184 reversed $40 $-1 #
coedge $-1 $180 $185 $63 $105 forward $175 $-1 #
edge $-1 $186 66.660780338501141 $187 74.250200508535983 $104 $188 forward 7 unknown #
loop $-1 $-1 $111 $64 #
plane-surface $-1 -4.8361439972342453 -23.681441726613464 44.589398727334284 0 0.55919291073839883 0.82903756765294845 1 0 0 forward_v I I I I #
loop $-1 $-1 $189 $42 #
coedge $-1 $109 $109 $110 $190 reversed $65 $-1 #
coedge $-1 $110 $110 $109 $190 forward $67 $-1 #
coedge $-1 $111 $111 $68 $112 forward $106 $-1 #
edge $-1 $191 -5.4863109741125414e-016 $191 6.2831853071795996 $111 $192 forward 7 unknown #
loop $-1 $-1 $118 $69 #
plane-surface $-1 -4.8361439972342453 -23.681441726613464 44.589398727334284 0 0.55919291073839883 0.82903756765294845 1 0 0 forward_v I I I I #
loop $-1 $-1 $193 $45 #
coedge $-1 $116 $116 $117 $194 reversed $70 $-1 #
coedge $-1 $117 $117 $116 $194 forward $72 $-1 #
coedge $-1 $118 $118 $73 $119 forward $113 $-1 #
edge $-1 $195 -5.4863109741125414e-016 $195 6.2831853071795996 $118 $196 forward 7 unknown #
face $-1 $197 $198 $18 $-1 $199 reversed single #
loop $-1 $-1 $200 $74 #
plane-surface $-1 -67.908566545609915 0 0 1 0 0 0 0 -1 forward_v I I I I #
coedge $-1 $201 $131 $202 $203 forward $75 $-1 #
coedge $-1 $204 $77 $201 $205 forward $49 $-1 #
coedge $-1 $77 $204 $206 $207 forward $49 $-1 #
coedge $-1 $134 $133 $77 $127 reversed $135 $-1 #
edge $-1 $208 -35.985923880265553 $209 35.985923880265553 $126 $210 forward 7 unknown #
coedge $-1 $79 $78 $211 $212 forward $31 $-1 #
coedge $-1 $213 $214 $78 $130 reversed $198 $-1 #
edge $-1 $137 -67.908566545609915 $215 67.908566545609915 $129 $216 forward 7 unknown #
coedge $-1 $123 $217 $79 $132 reversed $75 $-1 #
edge $-1 $218 -67.908566545609915 $136 67.908566545609915 $131 $219 forward 7 unknown #
coedge $-1 $126 $80 $217 $220 forward $135 $-1 #
coedge $-1 $80 $126 $213 $221 reversed $135 $-1 #
loop $-1 $-1 $133 $197 #
vertex $-1 $81 $222 #
vertex $-1 $81 $223 #
straight-curve $-1 67.908566545609915 0 11.932671856936837 0 1 0 I I #
face $-1 $224 $225 $19 $-1 $226 reversed single #
loop $-1 $-1 $227 $82 #
plane-surface $-1 0 -35.985923880265553 0 0 1 0 0 0 1 forward_v I I I I #
coedge $-1 $145 $88 $228 $229 reversed $83 $-1 #
coedge $-1 $230 $85 $227 $231 reversed $53 $-1 #
coedge $-1 $85 $230 $232 $233 reversed $53 $-1 #
coedge $-1 $152 $142 $85 $146 reversed $83 $-1 #
edge $-1 $234 -35.985923880265553 $235 35.985923880265553 $145 $236 forward 7 unknown #
coedge $-1 $87 $86 $237 $238 reversed $34 $-1 #
coedge $-1 $239 $240 $86 $149 forward $241 $-1 #
edge $-1 $242 -37.402591279847776 $154 -23.609359251676501 $148 $243 forward 7 unknown #
coedge $-1 $244 $228 $87 $151 forward $140 $-1 #
edge $-1 $153 23.609359251676501 $245 37.402591279847776 $150 $246 forward 7 unknown #
coedge $-1 $88 $145 $239 $247 reversed $83 $-1 #
vertex $-1 $151 $248 #
vertex $-1 $149 $249 #
straight-curve $-1 -54.11533451743864 0 0.90684018465305449 0 1 0 I I #
face $-1 $250 $251 $20 $-1 $252 reversed single #
loop $-1 $-1 $253 $90 #
plane-surface $-1 0 0 -11.932671856936837 0 0 1 1 0 0 forward_v I I I I #
coedge $-1 $254 $255 $95 $167 forward $91 $-1 #
coedge $-1 $256 $93 $253 $257 reversed $57 $-1 #
coedge $-1 $93 $256 $164 $258 reversed $57 $-1 #
coedge $-1 $165 $259 $93 $163 forward $251 $-1 #
edge $-1 $260 -7.2389369733507278 $261 -2.1485327938214906 $162 $262 forward 7 unknown #
coedge $-1 $95 $94 $161 $258 forward $37 $-1 #
coedge $-1 $263 $162 $94 $166 forward $251 $-1 #
edge $-1 $261 27.93422537551622 $171 35.96096923856787 $165 $264 forward 7 unknown #
edge $-1 $172 -35.96096923856787 $265 -27.93422537551622 $159 $266 forward 7 unknown #
coedge $-1 $267 $96 $255 $268 forward $170 $-1 #
coedge $-1 $96 $267 $263 $269 reversed $170 $-1 #
loop $-1 $-1 $96 $250 #
vertex $-1 $269 $270 #
vertex $-1 $268 $271 #
straight-curve $-1 67.908566545609915 0 -6.8422676774075999 0 -1 0 I I #
face $-1 $-1 $272 $21 $-1 $273 forward single #
loop $-1 $-1 $104 $98 #
plane-surface $-1 0 35.985923880265553 0 0 -1 0 0 0 -1 forward_v I I I I #
coedge $-1 $274 $275 $276 $277 reversed $99 $-1 #
coedge $-1 $278 $101 $103 $184 forward $61 $-1 #
coedge $-1 $101 $278 $274 $279 forward $61 $-1 #
coedge $-1 $276 $104 $101 $181 forward $175 $-1 #
edge $-1 $187 -6.2118193033773359 $280 11.047963300611581 $180 $281 forward 7 unknown #
coedge $-1 $282 $283 $102 $183 forward $272 $-1 #
edge $-1 $284 -1.3991221521091184 $186 9.8526557528604251 $182 $285 forward 7 unknown #
edge $-1 $187 -71.971847760531091 $284 -58.39975121872547 $103 $286 forward 7 unknown #
coedge $-1 $104 $276 $282 $287 reversed $175 $-1 #
vertex $-1 $287 $288 #
vertex $-1 $105 $289 #
straight-curve $-1 3.7937473047602133 35.985923880265553 78.593452195437976 0 0 -1 I I #
coedge $-1 $189 $189 $-1 $290 reversed $108 $-1 #
edge $-1 $291 0 $291 6.2831853071796004 $109 $292 forward 7 unknown #
vertex $-1 $112 $293 #
ellipse-curve $-1 -8.5346688409461535 30.360034927780788 8.1379617719194055 0 0.55919291073839883 0.82903756765294845 2 0 0 1 I I #
coedge $-1 $193 $193 $-1 $294 reversed $115 $-1 #
edge $-1 $295 0 $295 6.2831853071796004 $116 $296 forward 7 unknown #
vertex $-1 $119 $297 #
ellipse-curve $-1 -1.137619153522337 30.360034927780788 8.1379617719194055 0 0.55919291073839883 0.82903756765294845 2 0 0 1 I I #
face $-1 $-1 $135 $18 $-1 $298 reversed single #
loop $-1 $-1 $213 $120 #
plane-surface $-1 0 35.985923880265553 0 0 -1 0 0 0 -1 forward_v I I I I #
coedge $-1 $299 $211 $214 $300 forward $121 $-1 #
coedge $-1 $217 $123 $124 $205 reversed $75 $-1 #
coedge $-1 $211 $299 $123 $203 reversed $121 $-1 #
edge $-1 $218 -11.932671856936837 $301 11.932671856936837 $202 $302 forward 7 unknown #
coedge $-1 $125 $124 $299 $303 forward $49 $-1 #
edge $-1 $209 -67.908566545609915 $301 67.908566545609915 $201 $304 forward 7 unknown #
coedge $-1 $214 $213 $125 $207 reversed $198 $-1 #
edge $-1 $305 -67.908566545609915 $208 67.908566545609915 $206 $306 forward 7 unknown #
vertex $-1 $127 $307 #
vertex $-1 $220 $308 #
straight-curve $-1 67.908566545609915 0 -11.932671856936837 0 -1 0 I I #
coedge $-1 $200 $202 $128 $212 reversed $121 $-1 #
edge $-1 $215 -35.985923880265553 $218 35.985923880265553 $211 $309 forward 7 unknown #
coedge $-1 $206 $129 $134 $221 forward $198 $-1 #
coedge $-1 $129 $206 $200 $300 reversed $198 $-1 #
vertex $-1 $130 $310 #
straight-curve $-1 0 35.985923880265553 11.932671856936837 -1 0 0 I I #
coedge $-1 $131 $201 $133 $220 reversed $75 $-1 #
vertex $-1 $212 $311 #
straight-curve $-1 0 -35.985923880265553 11.932671856936837 1 0 0 I I #
edge $-1 $136 -11.932671856936837 $209 11.932671856936837 $133 $312 forward 7 unknown #
edge $-1 $137 -11.932671856936837 $208 11.932671856936837 $134 $313 forward 7 unknown #
point $-1 67.908566545609915 -35.985923880265553 11.932671856936837 #
point $-1 67.908566545609915 35.985923880265553 11.932671856936837 #
face $-1 $-1 $241 $19 $-1 $314 reversed single #
loop $-1 $-1 $315 $139 #
plane-surface $-1 -67.908566545609915 0 0 1 0 0 0 0 -1 forward_v I I I I #
coedge $-1 $228 $244 $143 $231 forward $140 $-1 #
coedge $-1 $150 $227 $142 $229 forward $140 $-1 #
edge $-1 $235 -1.7965799076734728 $153 1.2034200923265272 $228 $316 forward 7 unknown #
coedge $-1 $144 $143 $315 $317 reversed $53 $-1 #
edge $-1 $318 -37.402591279847776 $235 -23.609359251676501 $227 $319 forward 7 unknown #
coedge $-1 $240 $239 $144 $233 forward $241 $-1 #
edge $-1 $234 23.609359251676501 $320 37.402591279847776 $232 $321 forward 7 unknown #
vertex $-1 $233 $322 #
vertex $-1 $231 $323 #
straight-curve $-1 -54.11533451743864 0 -2.0931598153469455 0 -1 0 I I #
coedge $-1 $324 $325 $147 $238 forward $225 $-1 #
edge $-1 $245 -35.985923880265553 $242 35.985923880265553 $237 $326 forward 7 unknown #
coedge $-1 $232 $148 $152 $247 forward $241 $-1 #
coedge $-1 $148 $232 $324 $327 reversed $241 $-1 #
loop $-1 $-1 $232 $224 #
vertex $-1 $327 $328 #
straight-curve $-1 -30.505975265762139 35.985923880265553 0.90684018465305449 1 0 0 I I #
coedge $-1 $227 $150 $325 $329 forward $140 $-1 #
vertex $-1 $329 $330 #
straight-curve $-1 -30.505975265762139 -35.985923880265553 0.90684018465305449 -1 0 0 I I #
edge $-1 $154 -1.2034200923265272 $234 1.7965799076734728 $239 $331 forward 7 unknown #
point $-1 -54.11533451743864 -35.985923880265553 0.90684018465305449 #
point $-1 -54.11533451743864 35.985923880265553 0.90684018465305449 #
face $-1 $-1 $170 $20 $-1 $332 reversed single #
loop $-1 $-1 $165 $156 #
plane-surface $-1 0 35.985923880265553 0 0 -1 0 0 0 -1 forward_v I I I I #
coedge $-1 $333 $334 $160 $257 forward $157 $-1 #
coedge $-1 $335 $159 $256 $336 forward $91 $-1 #
coedge $-1 $159 $335 $168 $268 reversed $91 $-1 #
coedge $-1 $161 $160 $254 $336 reversed $57 $-1 #
edge $-1 $337 -35.985923880265553 $260 35.985923880265553 $253 $338 forward 7 unknown #
edge $-1 $261 -35.985923880265553 $265 35.985923880265553 $161 $339 forward 7 unknown #
coedge $-1 $162 $263 $333 $340 reversed $251 $-1 #
vertex $-1 $340 $341 #
vertex $-1 $166 $342 #
straight-curve $-1 59.881822682558266 35.985923880265553 -4.6937348835861092 0 0 1 I I #
coedge $-1 $259 $165 $169 $269 forward $251 $-1 #
straight-curve $-1 31.947597307042045 35.985923880265553 -6.8422676774075999 1 0 0 I I #
vertex $-1 $167 $343 #
straight-curve $-1 31.947597307042045 -35.985923880265553 -6.8422676774075999 -1 0 0 I I #
coedge $-1 $169 $168 $344 $345 reversed $170 $-1 #
edge $-1 $172 6.8422676774075999 $346 11.932671856936837 $168 $347 forward 7 unknown #
edge $-1 $171 6.8422676774075999 $348 11.932671856936837 $169 $349 forward 7 unknown #
point $-1 67.908566545609915 35.985923880265553 -6.8422676774075999 #
point $-1 67.908566545609915 -35.985923880265553 -6.8422676774075999 #
loop $-1 $-1 $182 $174 #
plane-surface $-1 0 0 11.932671856936837 0 0 1 1 0 0 forward_v I I I I #
coedge $-1 $275 $177 $179 $279 reversed $99 $-1 #
coedge $-1 $177 $274 $350 $351 reversed $99 $-1 #
coedge $-1 $185 $180 $177 $277 forward $175 $-1 #
edge $-1 $280 -74.250200508535983 $352 -66.660780338501141 $276 $353 forward 7 unknown #
coedge $-1 $179 $178 $283 $354 reversed $61 $-1 #
edge $-1 $355 58.39975121872547 $280 71.971847760531091 $274 $356 forward 7 unknown #
vertex $-1 $181 $357 #
straight-curve $-1 -2.4180719986171226 35.985923880265553 4.3432516869019828 -1 0 0 I I #
coedge $-1 $350 $182 $185 $287 forward $272 $-1 #
coedge $-1 $182 $350 $278 $354 forward $272 $-1 #
vertex $-1 $183 $358 #
straight-curve $-1 3.7937473047602133 26.133268127405128 11.932671856936835 0 1 0 I I #
straight-curve $-1 3.7937473047602133 -23.681441726613464 44.589398727334284 0 -0.82903756765294845 0.55919291073839883 I I #
edge $-1 $186 -3.7937473047602133 $352 13.466035299228704 $185 $359 forward 7 unknown #
point $-1 3.7937473047602133 35.985923880265553 11.932671856936837 #
point $-1 3.7937473047602133 35.985923880265545 4.3432516869019864 #
edge $-1 $360 1 $360 0 $189 $-1 forward 7 unknown #
vertex $-1 $190 $361 #
ellipse-curve $-1 -8.5346688409461535 26.606836280145888 2.5736160550810681 0 0.55919291073839883 0.82903756765294845 2 0 0 1 I I #
point $-1 -6.5346688409461535 30.360034927780799 8.1379617719194233 #
edge $-1 $362 1 $362 0 $193 $-1 forward 7 unknown #
vertex $-1 $194 $363 #
ellipse-curve $-1 -1.137619153522337 26.606836280145888 2.5736160550810681 0 0.55919291073839883 0.82903756765294845 2 0 0 1 I I #
point $-1 0.862380846477663 30.360034927780799 8.1379617719194233 #
plane-surface $-1 67.908566545609915 0 0 -1 0 0 0 0 1 forward_v I I I I #
coedge $-1 $202 $200 $204 $303 reversed $121 $-1 #
edge $-1 $215 -11.932671856936837 $305 11.932671856936837 $214 $364 forward 7 unknown #
vertex $-1 $303 $365 #
straight-curve $-1 -67.908566545609915 -35.985923880265553 0 0 0 -1 I I #
edge $-1 $301 -35.985923880265553 $305 35.985923880265553 $299 $366 forward 7 unknown #
straight-curve $-1 0 -35.985923880265553 -11.932671856936837 -1 0 0 I I #
vertex $-1 $207 $367 #
straight-curve $-1 0 35.985923880265553 -11.932671856936837 1 0 0 I I #
point $-1 67.908566545609915 35.985923880265553 -11.932671856936837 #
point $-1 67.908566545609915 -35.985923880265553 -11.932671856936837 #
straight-curve $-1 -67.908566545609915 0 11.932671856936837 0 -1 0 I I #
point $-1 -67.908566545609915 35.985923880265553 11.932671856936837 #
point $-1 -67.908566545609915 -35.985923880265553 11.932671856936837 #
straight-curve $-1 67.908566545609915 -35.985923880265553 0 0 0 -1 I I #
straight-curve $-1 67.908566545609915 35.985923880265553 0 0 0 -1 I I #
plane-surface $-1 0 35.985923880265553 0 0 -1 0 0 0 -1 forward_v I I I I #
coedge $-1 $325 $324 $230 $317 forward $225 $-1 #
straight-curve $-1 -54.11533451743864 -35.985923880265553 -0.29657990767347275 0 0 1 I I #
edge $-1 $320 -35.985923880265553 $318 35.985923880265553 $315 $368 forward 7 unknown #
vertex $-1 $231 $369 #
straight-curve $-1 -30.505975265762139 -35.985923880265553 -2.0931598153469455 1 0 0 I I #
vertex $-1 $233 $370 #
straight-curve $-1 -30.505975265762139 35.985923880265553 -2.0931598153469455 -1 0 0 I I #
point $-1 -54.11533451743864 35.985923880265553 -2.0931598153469455 #
point $-1 -54.11533451743864 -35.985923880265553 -2.0931598153469455 #
coedge $-1 $315 $237 $240 $327 forward $225 $-1 #
coedge $-1 $237 $315 $244 $329 reversed $225 $-1 #
straight-curve $-1 -67.908566545609915 0 0.90684018465305449 0 1 0 I I #
edge $-1 $242 -0.90684018465305449 $320 2.0931598153469455 $240 $371 forward 7 unknown #
point $-1 -67.908566545609915 35.985923880265553 0.90684018465305449 #
edge $-1 $245 -0.90684018465305449 $318 2.0931598153469455 $325 $372 forward 7 unknown #
point $-1 -67.908566545609915 -35.985923880265553 0.90684018465305449 #
straight-curve $-1 -54.11533451743864 35.985923880265553 -0.29657990767347275 0 0 -1 I I #
plane-surface $-1 67.908566545609915 0 0 -1 0 0 0 0 1 forward_v I I I I #
coedge $-1 $344 $253 $259 $340 forward $157 $-1 #
coedge $-1 $253 $344 $335 $373 forward $157 $-1 #
coedge $-1 $255 $254 $334 $373 reversed $91 $-1 #
edge $-1 $265 2.1485327938214906 $337 7.2389369733507278 $254 $374 forward 7 unknown #
vertex $-1 $257 $375 #
straight-curve $-1 59.881822682558266 0 -11.932671856936837 0 1 0 I I #
straight-curve $-1 59.881822682558266 0 -6.8422676774075999 0 -1 0 I I #
edge $-1 $260 59.881822682558266 $348 67.908566545609915 $259 $376 forward 7 unknown #
point $-1 59.881822682558266 35.985923880265553 -11.932671856936837 #
point $-1 59.881822682558266 35.985923880265553 -6.8422676774075999 #
point $-1 59.881822682558266 -35.985923880265553 -6.8422676774075999 #
coedge $-1 $334 $333 $267 $345 forward $157 $-1 #
edge $-1 $348 -35.985923880265553 $346 35.985923880265553 $267 $377 forward 7 unknown #
vertex $-1 $268 $378 #
straight-curve $-1 67.908566545609915 -35.985923880265553 0 0 0 -1 I I #
vertex $-1 $345 $379 #
straight-curve $-1 67.908566545609915 35.985923880265553 0 0 0 -1 I I #
coedge $-1 $283 $282 $275 $351 forward $272 $-1 #
edge $-1 $352 -9.8526557528604251 $355 1.3991221521091184 $350 $380 forward 7 unknown #
vertex $-1 $351 $381 #
straight-curve $-1 -13.466035299228704 35.985923880265553 78.593452195437976 0 0 1 I I #
edge $-1 $355 -11.047963300611581 $284 6.2118193033773359 $283 $382 forward 7 unknown #
vertex $-1 $354 $383 #
straight-curve $-1 -13.466035299228704 -23.681441726613464 44.589398727334284 0 0.82903756765294845 -0.55919291073839883 I I #
point $-1 -13.466035299228704 35.985923880265545 4.3432516869019864 #
point $-1 3.7937473047602133 24.734145975296009 11.932671856936835 #
straight-curve $-1 0 35.985923880265553 11.932671856936837 -1 0 0 I I #
vertex $-1 $290 $384 #
point $-1 -6.5346688409461535 26.606836280145888 2.5736160550810681 #
vertex $-1 $294 $385 #
point $-1 0.862380846477663 26.606836280145888 2.5736160550810681 #
straight-curve $-1 -67.908566545609915 35.985923880265553 0 0 0 -1 I I #
point $-1 -67.908566545609915 -35.985923880265553 -11.932671856936837 #
straight-curve $-1 -67.908566545609915 0 -11.932671856936837 0 1 0 I I #
point $-1 -67.908566545609915 35.985923880265553 -11.932671856936837 #
straight-curve $-1 -67.908566545609915 0 -2.0931598153469455 0 -1 0 I I #
point $-1 -67.908566545609915 -35.985923880265553 -2.0931598153469455 #
point $-1 -67.908566545609915 35.985923880265553 -2.0931598153469455 #
straight-curve $-1 -67.908566545609915 35.985923880265553 0 0 0 -1 I I #
straight-curve $-1 -67.908566545609915 -35.985923880265553 0 0 0 -1 I I #
edge $-1 $346 -67.908566545609915 $337 -59.881822682558266 $335 $386 forward 7 unknown #
straight-curve $-1 59.881822682558266 -35.985923880265553 -4.6937348835861092 0 0 -1 I I #
point $-1 59.881822682558266 -35.985923880265553 -11.932671856936837 #
straight-curve $-1 0 35.985923880265553 -11.932671856936837 1 0 0 I I #
straight-curve $-1 67.908566545609915 0 -11.932671856936837 0 -1 0 I I #
point $-1 67.908566545609915 -35.985923880265553 -11.932671856936837 #
point $-1 67.908566545609915 35.985923880265553 -11.932671856936837 #
straight-curve $-1 -13.466035299228704 26.133268127405128 11.932671856936835 0 -1 0 I I #
point $-1 -13.466035299228704 35.985923880265553 11.932671856936837 #
straight-curve $-1 -2.4180719986171226 24.734145975296016 11.932671856936835 1 0 0 I I #
point $-1 -13.466035299228704 24.734145975296009 11.932671856936835 #
point $-1 -8.5346688409461535 25.488450458669089 0.91554091977517138 #
point $-1 -1.137619153522337 25.488450458669089 0.91554091977517138 #
straight-curve $-1 0 -35.985923880265553 -11.932671856936837 -1 0 0 I I #
End-of-ACIS-data 