500 0 7 0           
7 Unknown 11 ACIS 5.0 NT 24 Thu Mar 25 23:33:10 1999 
-1 9.9999999999999995e-007 1e-010 
body $-1 $7 $-1 $8 #
body $-1 $9 $-1 $10 #
body $-1 $11 $-1 $12 #
body $-1 $13 $-1 $14 #
body $-1 $15 $-1 $16 #
body $-1 $17 $-1 $18 #
body $-1 $19 $-1 $20 #
lump $-1 $-1 $21 $0 #
transform $-1 1 0 0 0 1 0 0 0 1 46.162297433393356 23.548449173212578 5.7219274719138538 1 rotate no_reflect no_shear #
lump $-1 $-1 $22 $1 #
transform $-1 1 0 0 0 1 0 0 0 1 46.162297433393356 23.548449173212578 5.7219274719138538 1 rotate no_reflect no_shear #
lump $-1 $-1 $23 $2 #
transform $-1 1 0 0 0 1 0 0 0 1 46.162297433393356 23.548449173212578 5.7219274719138538 1 rotate no_reflect no_shear #
lump $-1 $-1 $24 $3 #
transform $-1 1 0 0 0 1 0 0 0 1 46.162297433393356 23.548449173212578 5.7219274719138538 1 rotate no_reflect no_shear #
lump $-1 $-1 $25 $4 #
transform $-1 1 0 0 0 1 0 0 0 1 46.162297433393356 23.548449173212578 5.7219274719138538 1 rotate no_reflect no_shear #
lump $-1 $-1 $26 $5 #
transform $-1 1 0 0 0 1 0 0 0 1 46.162297433393356 23.548449173212578 5.7219274719138538 1 rotate no_reflect no_shear #
lump $-1 $-1 $27 $6 #
transform $-1 1 0 0 0 1 0 0 0 1 46.162297433393356 23.548449173212578 5.7219274719138538 1 rotate no_reflect no_shear #
shell $-1 $-1 $-1 $28 $-1 $7 #
shell $-1 $-1 $-1 $29 $-1 $9 #
shell $-1 $-1 $-1 $30 $-1 $11 #
shell $-1 $-1 $-1 $31 $-1 $13 #
shell $-1 $-1 $-1 $32 $-1 $15 #
shell $-1 $-1 $-1 $33 $-1 $17 #
shell $-1 $-1 $-1 $34 $-1 $19 #
face $-1 $35 $36 $21 $-1 $37 forward single #
face $-1 $38 $39 $22 $-1 $40 reversed single #
face $-1 $41 $42 $23 $-1 $43 forward single #
face $-1 $44 $45 $24 $-1 $46 forward single #
face $-1 $47 $48 $25 $-1 $49 reversed single #
face $-1 $50 $51 $26 $-1 $52 forward single #
face $-1 $53 $54 $27 $-1 $55 forward single #
face $-1 $56 $57 $21 $-1 $58 reversed single #
loop $-1 $-1 $59 $28 #
plane-surface $-1 0 0 5.7219274719138538 0 0 1 1 0 0 forward_v I I I I #
face $-1 $60 $61 $22 $-1 $62 reversed single #
loop $-1 $-1 $63 $29 #
plane-surface $-1 -112.57505383186918 -7.3953687990484855 64.828343953150224 0 1 0 -0.71933980857756763 0 0.69465836192734942 forward_v I I I I #
face $-1 $64 $65 $23 $-1 $66 forward single #
loop $-1 $67 $68 $30 #
cone-surface $-1 -42.423062476751973 -4.0408021628388227 1.941445310941263 0.71933980857756763 0 -0.69465836192734942 0.69465836192734942 0 0.71933980857756763 1 I I 0 1 1 forward I I I I #
face $-1 $69 $70 $24 $-1 $71 forward single #
loop $-1 $72 $73 $31 #
cone-surface $-1 -42.423062476751973 0.99104779147567612 1.941445310941263 0.71933980857756763 0 -0.69465836192734942 0.69465836192734942 0 0.71933980857756763 1 I I 0 1 1 forward I I I I #
face $-1 $74 $75 $25 $-1 $76 reversed single #
loop $-1 $-1 $77 $32 #
plane-surface $-1 -31.267622551026101 -20.377641215405816 52.989474037445802 0.54463904215088732 0 0.83867056331134215 0.83867056331134215 0 -0.54463904215088732 forward_v I I I I #
face $-1 $78 $79 $26 $-1 $80 forward single #
loop $-1 $81 $82 $33 #
cone-surface $-1 43.380860622240995 -21.736558911608714 3.5066581356383235 -0.54463904215088732 0 -0.83867056331134215 0.41933528165567108 0 -0.27231952107544366 1 I I 0 1 0.5 forward I I I I #
face $-1 $83 $84 $27 $-1 $85 forward single #
loop $-1 $86 $87 $34 #
cone-surface $-1 43.380860622240995 -19.018723519202922 3.5066581356383235 -0.54463904215088732 0 -0.83867056331134215 0.41933528165567108 0 -0.27231952107544366 1 I I 0 1 0.5 forward I I I I #
face $-1 $88 $89 $21 $-1 $90 reversed single #
loop $-1 $-1 $91 $35 #
plane-surface $-1 0 0 -5.7219274719138538 0 0 1 1 0 0 forward_v I I I I #
coedge $-1 $92 $93 $94 $95 forward $36 $-1 #
face $-1 $96 $97 $22 $-1 $98 reversed single #
loop $-1 $-1 $99 $38 #
plane-surface $-1 -46.162297433393348 -1.5248771856815715 0.69429211738199115 -0.71933980857756763 0 0.69465836192734942 0.69465836192734942 0 0.71933980857756763 forward_v I I I I #
coedge $-1 $100 $101 $102 $103 reversed $39 $-1 #
face $-1 $-1 $104 $23 $-1 $105 forward single #
loop $-1 $106 $107 $41 #
cone-surface $-1 -40.751723071050279 -4.0408021628388227 0.32745164627092471 0.71933980857756763 0 -0.69465836192734942 0.34732918096367471 0 0.35966990428878381 1 I I -0.70710678118654746 0.70710678118654746 0.5 forward I I I I #
loop $-1 $-1 $108 $30 #
coedge $-1 $68 $68 $109 $110 reversed $42 $-1 #
face $-1 $-1 $111 $24 $-1 $112 forward single #
loop $-1 $113 $114 $44 #
cone-surface $-1 -40.751723071050279 0.99104779147567612 0.32745164627092471 0.71933980857756763 0 -0.69465836192734942 0.34732918096367471 0 0.35966990428878381 1 I I -0.70710678118654746 0.70710678118654746 0.5 forward I I I I #
loop $-1 $-1 $115 $31 #
coedge $-1 $73 $73 $116 $117 reversed $45 $-1 #
face $-1 $118 $119 $25 $-1 $120 reversed single #
loop $-1 $-1 $121 $47 #
plane-surface $-1 19.015956364189343 -17.206833257599055 130.41939402186526 0 -1 0 -0.54463904215088732 0 -0.83867056331134215 forward_v I I I I #
coedge $-1 $122 $123 $124 $125 reversed $48 $-1 #
face $-1 $-1 $126 $26 $-1 $127 forward single #
loop $-1 $128 $129 $50 #
cone-surface $-1 42.785405279799697 -21.736558911608714 2.589737333376708 -0.54463904215088732 0 -0.83867056331134215 0.20966764082783554 0 -0.13615976053772183 1 I I -0.70710678118654746 0.70710678118654746 0.25 forward I I I I #
loop $-1 $-1 $130 $33 #
coedge $-1 $82 $82 $131 $132 reversed $51 $-1 #
face $-1 $-1 $133 $27 $-1 $134 forward single #
loop $-1 $135 $136 $53 #
cone-surface $-1 42.785405279799697 -19.018723519202922 2.589737333376708 -0.54463904215088732 0 -0.83867056331134215 0.20966764082783554 0 -0.13615976053772183 1 I I -0.70710678118654746 0.70710678118654746 0.25 forward I I I I #
loop $-1 $-1 $137 $34 #
coedge $-1 $87 $87 $138 $139 reversed $54 $-1 #
face $-1 $140 $141 $21 $-1 $142 reversed single #
loop $-1 $-1 $143 $56 #
plane-surface $-1 0 -23.548449173212578 0 0 1 0 0 0 1 forward_v I I I I #
coedge $-1 $144 $145 $146 $147 forward $57 $-1 #
coedge $-1 $148 $59 $149 $150 forward $36 $-1 #
coedge $-1 $59 $148 $151 $152 forward $36 $-1 #
coedge $-1 $153 $154 $59 $95 reversed $155 $-1 #
edge $-1 $156 -23.548449173212578 $157 23.548449173212578 $94 $158 forward 7 unknown #
face $-1 $159 $160 $22 $-1 $161 reversed single #
loop $-1 $-1 $162 $60 #
plane-surface $-1 -112.57505383186918 4.3456144276853426 64.828343953150224 0 -1 0 0.71933980857756763 0 -0.69465836192734942 forward_v I I I I #
coedge $-1 $163 $164 $165 $166 reversed $61 $-1 #
coedge $-1 $101 $63 $167 $168 reversed $39 $-1 #
coedge $-1 $63 $100 $163 $169 reversed $39 $-1 #
coedge $-1 $165 $170 $63 $103 forward $171 $-1 #
edge $-1 $172 10.125229482541236 $173 14.980360392998193 $102 $174 forward 7 unknown #
loop $-1 $-1 $109 $64 #
plane-surface $-1 -46.162297433393348 -1.5248771856815715 0.69429211738199115 -0.71933980857756763 0 0.69465836192734942 0.69465836192734942 0 0.71933980857756763 forward_v I I I I #
loop $-1 $-1 $175 $41 #
coedge $-1 $107 $107 $108 $176 reversed $65 $-1 #
coedge $-1 $108 $108 $107 $176 forward $67 $-1 #
coedge $-1 $109 $109 $68 $110 forward $104 $-1 #
edge $-1 $177 0 $177 6.2831853071796004 $109 $178 forward 7 unknown #
loop $-1 $-1 $116 $69 #
plane-surface $-1 -46.162297433393348 -1.5248771856815715 0.69429211738199115 -0.71933980857756763 0 0.69465836192734942 0.69465836192734942 0 0.71933980857756763 forward_v I I I I #
loop $-1 $-1 $179 $44 #
coedge $-1 $114 $114 $115 $180 reversed $70 $-1 #
coedge $-1 $115 $115 $114 $180 forward $72 $-1 #
coedge $-1 $116 $116 $73 $117 forward $111 $-1 #
edge $-1 $181 0 $181 6.2831853071796004 $116 $182 forward 7 unknown #
face $-1 $183 $184 $25 $-1 $185 forward single #
loop $-1 $-1 $124 $74 #
plane-surface $-1 46.162297433393356 0 0 -1 0 0 0 0 1 forward_v I I I I #
coedge $-1 $186 $187 $188 $189 reversed $75 $-1 #
coedge $-1 $190 $77 $191 $192 reversed $48 $-1 #
coedge $-1 $77 $190 $186 $193 forward $48 $-1 #
coedge $-1 $188 $194 $77 $125 forward $119 $-1 #
edge $-1 $195 -13.35962856550967 $196 -7.0180126498961464 $124 $197 forward 7 unknown #
loop $-1 $-1 $131 $78 #
plane-surface $-1 -31.267622551026101 -20.377641215405816 52.989474037445802 0.54463904215088732 0 0.83867056331134215 0.83867056331134215 0 -0.54463904215088732 forward_v I I I I #
loop $-1 $-1 $198 $50 #
coedge $-1 $129 $129 $130 $199 reversed $79 $-1 #
coedge $-1 $130 $130 $129 $199 forward $81 $-1 #
coedge $-1 $131 $131 $82 $132 forward $126 $-1 #
edge $-1 $200 0 $200 6.2831853071796004 $131 $201 forward 7 unknown #
loop $-1 $-1 $138 $83 #
plane-surface $-1 -31.267622551026101 -20.377641215405816 52.989474037445802 0.54463904215088732 0 0.83867056331134215 0.83867056331134215 0 -0.54463904215088732 forward_v I I I I #
loop $-1 $-1 $202 $53 #
coedge $-1 $136 $136 $137 $203 reversed $84 $-1 #
coedge $-1 $137 $137 $136 $203 forward $86 $-1 #
coedge $-1 $138 $138 $87 $139 forward $133 $-1 #
edge $-1 $204 0 $204 6.2831853071796004 $138 $205 forward 7 unknown #
face $-1 $206 $207 $21 $-1 $208 reversed single #
loop $-1 $-1 $209 $88 #
plane-surface $-1 -46.162297433393356 0 0 1 0 0 0 0 -1 forward_v I I I I #
coedge $-1 $210 $151 $211 $212 forward $89 $-1 #
coedge $-1 $213 $91 $210 $214 forward $57 $-1 #
coedge $-1 $91 $213 $215 $216 forward $57 $-1 #
coedge $-1 $154 $153 $91 $147 reversed $155 $-1 #
edge $-1 $217 -23.548449173212578 $218 23.548449173212578 $146 $219 forward 7 unknown #
coedge $-1 $93 $92 $220 $221 forward $36 $-1 #
coedge $-1 $222 $223 $92 $150 reversed $207 $-1 #
edge $-1 $157 -46.162297433393356 $224 46.162297433393356 $149 $225 forward 7 unknown #
coedge $-1 $143 $226 $93 $152 reversed $89 $-1 #
edge $-1 $227 -46.162297433393356 $156 46.162297433393356 $151 $228 forward 7 unknown #
coedge $-1 $146 $94 $226 $229 forward $155 $-1 #
coedge $-1 $94 $146 $222 $230 reversed $155 $-1 #
loop $-1 $-1 $153 $206 #
vertex $-1 $95 $231 #
vertex $-1 $95 $232 #
straight-curve $-1 46.162297433393356 0 5.7219274719138538 0 1 0 I I #
face $-1 $-1 $171 $22 $-1 $233 forward single #
loop $-1 $-1 $234 $96 #
plane-surface $-1 -46.162297433393356 0 0 1 0 0 0 0 -1 forward_v I I I I #
coedge $-1 $235 $236 $237 $238 reversed $97 $-1 #
coedge $-1 $239 $99 $101 $169 forward $61 $-1 #
coedge $-1 $99 $239 $235 $240 forward $61 $-1 #
coedge $-1 $237 $102 $99 $166 forward $171 $-1 #
edge $-1 $173 -6.6329302062076998 $241 5.1080530205261283 $165 $242 forward 7 unknown #
coedge $-1 $243 $244 $100 $168 forward $160 $-1 #
edge $-1 $245 -31.719879859193128 $172 -26.692244504661257 $167 $246 forward 7 unknown #
edge $-1 $173 -6.9892355387276268 $245 1.0206786807905858e-014 $101 $247 forward 7 unknown #
coedge $-1 $102 $237 $243 $248 forward $171 $-1 #
loop $-1 $-1 $237 $159 #
vertex $-1 $168 $249 #
vertex $-1 $103 $250 #
straight-curve $-1 -56.287526915934592 -7.3953687990484855 5.7219274719138546 1 0 0 I I #
coedge $-1 $175 $175 $-1 $251 reversed $106 $-1 #
edge $-1 $252 0 $252 6.2831853071796004 $107 $253 forward 7 unknown #
vertex $-1 $110 $254 #
ellipse-curve $-1 -43.734731978164874 -4.0408021628388227 3.2081097946479207 -0.71933980857756763 0 0.69465836192734942 0.69465836192734942 0 0.71933980857756763 1 I I #
coedge $-1 $179 $179 $-1 $255 reversed $113 $-1 #
edge $-1 $256 0 $256 6.2831853071796004 $114 $257 forward 7 unknown #
vertex $-1 $117 $258 #
ellipse-curve $-1 -43.734731978164874 0.99104779147567612 3.2081097946479207 -0.71933980857756763 0 0.69465836192734942 0.69465836192734942 0 0.71933980857756763 1 I I #
face $-1 $-1 $259 $25 $-1 $260 reversed single #
loop $-1 $-1 $261 $118 #
plane-surface $-1 0 0 5.7219274719138538 0 0 1 1 0 0 forward_v I I I I #
coedge $-1 $187 $121 $123 $193 reversed $75 $-1 #
coedge $-1 $121 $186 $261 $262 reversed $75 $-1 #
coedge $-1 $263 $124 $121 $189 forward $119 $-1 #
edge $-1 $196 -62.50380188870227 $264 -59.487769539018778 $188 $265 forward 7 unknown #
coedge $-1 $123 $122 $266 $267 reversed $48 $-1 #
coedge $-1 $268 $269 $122 $192 forward $259 $-1 #
edge $-1 $270 59.245237410059218 $195 64.782909365732067 $191 $271 forward 7 unknown #
edge $-1 $272 86.786922911113862 $196 92.324594866786697 $186 $273 forward 7 unknown #
coedge $-1 $124 $263 $268 $274 forward $119 $-1 #
vertex $-1 $192 $275 #
vertex $-1 $125 $276 #
straight-curve $-1 46.162297433393356 -10.188820607702908 2.7058951222303627 0 1 0 I I #
coedge $-1 $198 $198 $-1 $277 reversed $128 $-1 #
edge $-1 $278 0 $278 6.2831853071796004 $129 $279 forward 7 unknown #
vertex $-1 $132 $280 #
ellipse-curve $-1 43.84015620414457 -21.736558911608714 4.2139112970721069 0.54463904215088732 0 0.83867056331134215 0.41933528165567108 0 -0.27231952107544366 1 I I #
coedge $-1 $202 $202 $-1 $281 reversed $135 $-1 #
edge $-1 $282 0 $282 6.2831853071796004 $136 $283 forward 7 unknown #
vertex $-1 $139 $284 #
ellipse-curve $-1 43.84015620414457 -19.018723519202922 4.2139112970721069 0.54463904215088732 0 0.83867056331134215 0.41933528165567108 0 -0.27231952107544366 1 I I #
face $-1 $-1 $155 $21 $-1 $285 reversed single #
loop $-1 $-1 $222 $140 #
plane-surface $-1 0 23.548449173212578 0 0 -1 0 0 0 -1 forward_v I I I I #
coedge $-1 $286 $220 $223 $287 forward $141 $-1 #
coedge $-1 $226 $143 $144 $214 reversed $89 $-1 #
coedge $-1 $220 $286 $143 $212 reversed $141 $-1 #
edge $-1 $227 -5.7219274719138538 $288 5.7219274719138538 $211 $289 forward 7 unknown #
coedge $-1 $145 $144 $286 $290 forward $57 $-1 #
edge $-1 $218 -46.162297433393356 $288 46.162297433393356 $210 $291 forward 7 unknown #
coedge $-1 $223 $222 $145 $216 reversed $207 $-1 #
edge $-1 $292 -46.162297433393356 $217 46.162297433393356 $215 $293 forward 7 unknown #
vertex $-1 $147 $294 #
vertex $-1 $229 $295 #
straight-curve $-1 46.162297433393356 0 -5.7219274719138538 0 -1 0 I I #
coedge $-1 $209 $211 $148 $221 reversed $141 $-1 #
edge $-1 $224 -23.548449173212578 $227 23.548449173212578 $220 $296 forward 7 unknown #
coedge $-1 $215 $149 $154 $230 forward $207 $-1 #
coedge $-1 $149 $215 $209 $287 reversed $207 $-1 #
vertex $-1 $150 $297 #
straight-curve $-1 0 23.548449173212578 5.7219274719138538 -1 0 0 I I #
coedge $-1 $151 $210 $153 $229 reversed $89 $-1 #
vertex $-1 $221 $298 #
straight-curve $-1 0 -23.548449173212578 5.7219274719138538 1 0 0 I I #
edge $-1 $156 -5.7219274719138538 $218 5.7219274719138538 $153 $299 forward 7 unknown #
edge $-1 $157 -5.7219274719138538 $217 5.7219274719138538 $154 $300 forward 7 unknown #
point $-1 46.162297433393356 -23.548449173212578 5.7219274719138538 #
point $-1 46.162297433393356 23.548449173212578 5.7219274719138538 #
plane-surface $-1 0 0 5.7219274719138538 0 0 1 1 0 0 forward_v I I I I #
coedge $-1 $244 $243 $236 $301 forward $160 $-1 #
coedge $-1 $236 $162 $164 $240 reversed $97 $-1 #
coedge $-1 $162 $235 $234 $301 reversed $97 $-1 #
coedge $-1 $170 $165 $162 $238 forward $171 $-1 #
edge $-1 $241 -14.980360392998193 $302 -10.125229482541236 $237 $303 forward 7 unknown #
coedge $-1 $164 $163 $244 $304 reversed $61 $-1 #
edge $-1 $305 -1.0206786807905858e-014 $241 6.9892355387276268 $235 $306 forward 7 unknown #
vertex $-1 $166 $307 #
straight-curve $-1 -41.307166522936399 -0.76243859284078574 5.7219274719138546 0 1 0 I I #
coedge $-1 $234 $167 $170 $248 reversed $160 $-1 #
coedge $-1 $167 $234 $239 $304 forward $160 $-1 #
vertex $-1 $168 $308 #
straight-curve $-1 -46.162297433393356 -7.3953687990484855 32.414171976575112 0 0 1 I I #
straight-curve $-1 -46.162297433393348 -7.3953687990484855 0.69429211738199115 -0.69465836192734942 0 -0.71933980857756763 I I #
edge $-1 $302 -4.3456144276853426 $172 7.3953687990484855 $243 $309 forward 7 unknown #
point $-1 -46.162297433393356 -7.3953687990484855 5.7219274719138538 #
point $-1 -41.307166522936399 -7.3953687990484855 5.7219274719138538 #
edge $-1 $310 1 $310 0 $175 $-1 forward 7 unknown #
vertex $-1 $176 $311 #
ellipse-curve $-1 -41.111392975339065 -4.0408021628388227 0.67478082723459942 -0.71933980857756763 0 0.69465836192734942 0.69465836192734942 0 0.71933980857756763 1 I I #
point $-1 -43.040073616237535 -4.0408021628388227 3.9274496032254946 #
edge $-1 $312 1 $312 0 $179 $-1 forward 7 unknown #
vertex $-1 $180 $313 #
ellipse-curve $-1 -41.111392975339065 0.99104779147567612 0.67478082723459942 -0.71933980857756763 0 0.69465836192734942 0.69465836192734942 0 0.71933980857756763 1 I I #
point $-1 -43.040073616237535 0.99104779147567612 3.9274496032254946 #
loop $-1 $-1 $191 $183 #
plane-surface $-1 0 -23.548449173212578 0 0 1 0 0 0 1 forward_v I I I I #
coedge $-1 $266 $314 $187 $262 forward $184 $-1 #
edge $-1 $264 -36.654319251298688 $272 -32.010036792801117 $261 $315 forward 7 unknown #
coedge $-1 $194 $188 $314 $316 reversed $119 $-1 #
vertex $-1 $189 $317 #
straight-curve $-1 46.162297433393356 -17.206833257599055 65.209697010932629 0 0 1 I I #
coedge $-1 $318 $261 $190 $267 forward $184 $-1 #
edge $-1 $272 7.0180126498961464 $270 13.35962856550967 $266 $319 forward 7 unknown #
coedge $-1 $269 $191 $194 $274 reversed $259 $-1 #
coedge $-1 $191 $268 $318 $320 reversed $259 $-1 #
vertex $-1 $320 $321 #
straight-curve $-1 -8.1692216573127805 -23.548449173212578 37.989196826930424 0.83867056331134215 0 -0.54463904215088732 I I #
vertex $-1 $267 $322 #
straight-curve $-1 -31.267622551026101 -17.206833257599055 52.989474037445802 0.83867056331134215 0 -0.54463904215088732 I I #
edge $-1 $323 -5.7219274719138538 $195 -2.705895122230364 $194 $324 forward 7 unknown #
point $-1 46.162297433393356 -23.548449173212578 2.705895122230364 #
point $-1 46.162297433393356 -17.206833257599055 2.7058951222303591 #
edge $-1 $325 1 $325 0 $198 $-1 forward 7 unknown #
vertex $-1 $199 $326 #
ellipse-curve $-1 42.92156504033742 -21.736558911608714 2.7994049742045437 0.54463904215088732 0 0.83867056331134215 0.41933528165567108 0 -0.27231952107544366 1 I I #
point $-1 44.25949148580024 -21.736558911608714 3.9415917759966597 #
edge $-1 $327 1 $327 0 $202 $-1 forward 7 unknown #
vertex $-1 $203 $328 #
ellipse-curve $-1 42.92156504033742 -19.018723519202922 2.7994049742045437 0.54463904215088732 0 0.83867056331134215 0.41933528165567108 0 -0.27231952107544366 1 I I #
point $-1 44.25949148580024 -19.018723519202922 3.9415917759966597 #
plane-surface $-1 46.162297433393356 0 0 -1 0 0 0 0 1 forward_v I I I I #
coedge $-1 $211 $209 $213 $290 reversed $141 $-1 #
edge $-1 $224 -5.7219274719138538 $292 5.7219274719138538 $223 $329 forward 7 unknown #
vertex $-1 $290 $330 #
straight-curve $-1 -46.162297433393356 -23.548449173212578 0 0 0 -1 I I #
edge $-1 $288 -23.548449173212578 $292 23.548449173212578 $286 $331 forward 7 unknown #
straight-curve $-1 0 -23.548449173212578 -5.7219274719138538 -1 0 0 I I #
vertex $-1 $216 $332 #
straight-curve $-1 0 23.548449173212578 -5.7219274719138538 1 0 0 I I #
point $-1 46.162297433393356 23.548449173212578 -5.7219274719138538 #
point $-1 46.162297433393356 -23.548449173212578 -5.7219274719138538 #
straight-curve $-1 -46.162297433393356 0 5.7219274719138538 0 -1 0 I I #
point $-1 -46.162297433393356 23.548449173212578 5.7219274719138538 #
point $-1 -46.162297433393356 -23.548449173212578 5.7219274719138538 #
straight-curve $-1 46.162297433393356 -23.548449173212578 0 0 0 -1 I I #
straight-curve $-1 46.162297433393356 23.548449173212578 0 0 0 -1 I I #
edge $-1 $302 26.692244504661257 $305 31.719879859193128 $234 $333 forward 7 unknown #
vertex $-1 $248 $334 #
straight-curve $-1 -56.287526915934592 4.3456144276853426 5.7219274719138546 -1 0 0 I I #
edge $-1 $305 -5.1080530205261283 $245 6.6329302062076998 $244 $335 forward 7 unknown #
vertex $-1 $304 $336 #
straight-curve $-1 -46.162297433393348 4.3456144276853426 0.69429211738199115 0.69465836192734942 0 0.71933980857756763 I I #
point $-1 -41.307166522936399 4.3456144276853426 5.7219274719138538 #
point $-1 -46.162297433393356 -7.3953687990484855 0.69429211738198382 #
straight-curve $-1 -46.162297433393356 0 5.7219274719138538 0 -1 0 I I #
vertex $-1 $251 $337 #
point $-1 -40.416734613411712 -4.0408021628388227 1.3941206358121669 #
vertex $-1 $255 $338 #
point $-1 -40.416734613411712 0.99104779147567612 1.3941206358121669 #
coedge $-1 $261 $318 $263 $316 forward $184 $-1 #
straight-curve $-1 9.5079781820946714 -17.206833257599055 5.7219274719138511 -1 0 0 I I #
edge $-1 $323 -23.548449173212578 $264 -17.206833257599055 $263 $339 forward 7 unknown #
point $-1 46.162297433393356 -17.206833257599055 5.7219274719138538 #
coedge $-1 $314 $266 $269 $320 forward $184 $-1 #
straight-curve $-1 41.518014974895799 -10.188820607702908 5.7219274719138511 0 -1 0 I I #
edge $-1 $270 41.518014974895785 $323 46.162297433393356 $269 $340 forward 7 unknown #
point $-1 41.518014974895785 -23.548449173212578 5.7219274719138511 #
point $-1 41.518014974895785 -17.206833257599055 5.7219274719138511 #
vertex $-1 $316 $341 #
straight-curve $-1 46.162297433393356 -23.548449173212578 0 0 0 -1 I I #
vertex $-1 $277 $342 #
point $-1 43.34090032199309 -21.736558911608714 2.5270854531291 #
vertex $-1 $281 $343 #
point $-1 43.34090032199309 -19.018723519202922 2.5270854531291 #
straight-curve $-1 -46.162297433393356 23.548449173212578 0 0 0 -1 I I #
point $-1 -46.162297433393356 -23.548449173212578 -5.7219274719138538 #
straight-curve $-1 -46.162297433393356 0 -5.7219274719138538 0 1 0 I I #
point $-1 -46.162297433393356 23.548449173212578 -5.7219274719138538 #
straight-curve $-1 -46.162297433393356 4.3456144276853426 32.414171976575112 0 0 -1 I I #
point $-1 -46.162297433393356 4.3456144276853426 5.7219274719138538 #
straight-curve $-1 -46.162297433393356 -0.76243859284078574 0.69429211738198204 0 -1 0 I I #
point $-1 -46.162297433393356 4.3456144276853426 0.69429211738198382 #
point $-1 -40.392053166761492 -4.0408021628388227 -0.019877534692749999 #
point $-1 -40.392053166761492 0.99104779147567612 -0.019877534692749999 #
straight-curve $-1 46.162297433393356 0 5.7219274719138538 0 1 0 I I #
straight-curve $-1 0 -23.548449173212578 5.7219274719138538 1 0 0 I I #
point $-1 46.162297433393356 -23.548449173212578 5.7219274719138538 #
point $-1 42.649245519261974 -21.736558911608714 2.3800696925488722 #
point $-1 42.649245519261974 -19.018723519202922 2.3800696925488722 #
End-of-ACIS-data 