500 0 6 0           
7 Unknown 11 ACIS 5.0 NT 24 Fri Mar 26 00:44:50 1999 
-1 9.9999999999999995e-007 1e-010 
body $-1 $6 $-1 $7 #
body $-1 $8 $-1 $9 #
body $-1 $10 $-1 $11 #
body $-1 $12 $-1 $13 #
body $-1 $14 $-1 $15 #
body $-1 $16 $-1 $17 #
lump $-1 $-1 $18 $0 #
transform $-1 1 0 0 0 1 0 0 0 1 77.873470259712519 38.691947159131125 10.680758093318671 1 rotate no_reflect no_shear #
lump $-1 $-1 $19 $1 #
transform $-1 1 0 0 0 1 0 0 0 1 77.873470259712519 38.691947159131125 10.680758093318671 1 rotate no_reflect no_shear #
lump $-1 $-1 $20 $2 #
transform $-1 1 0 0 0 1 0 0 0 1 77.873470259712519 38.691947159131125 10.680758093318671 1 rotate no_reflect no_shear #
lump $-1 $-1 $21 $3 #
transform $-1 1 0 0 0 1 0 0 0 1 77.873470259712519 38.691947159131125 10.680758093318671 1 rotate no_reflect no_shear #
lump $-1 $-1 $22 $4 #
transform $-1 1 0 0 0 1 0 0 0 1 77.873470259712519 38.691947159131125 10.680758093318671 1 rotate no_reflect no_shear #
lump $-1 $-1 $23 $5 #
transform $-1 1 0 0 0 1 0 0 0 1 77.873470259712519 38.691947159131125 10.680758093318671 1 rotate no_reflect no_shear #
shell $-1 $-1 $-1 $24 $-1 $6 #
shell $-1 $-1 $-1 $25 $-1 $8 #
shell $-1 $-1 $-1 $26 $-1 $10 #
shell $-1 $-1 $-1 $27 $-1 $12 #
shell $-1 $-1 $-1 $28 $-1 $14 #
shell $-1 $-1 $-1 $29 $-1 $16 #
face $-1 $30 $31 $18 $-1 $32 forward single #
face $-1 $33 $34 $19 $-1 $35 forward single #
face $-1 $36 $37 $20 $-1 $38 reversed single #
face $-1 $39 $40 $21 $-1 $41 forward single #
face $-1 $42 $43 $22 $-1 $44 reversed single #
face $-1 $45 $46 $23 $-1 $47 forward single #
face $-1 $48 $49 $18 $-1 $50 reversed single #
loop $-1 $-1 $51 $24 #
plane-surface $-1 0 0 10.680758093318671 0 0 1 1 0 0 forward_v I I I I #
face $-1 $52 $53 $19 $-1 $54 reversed single #
loop $-1 $-1 $55 $25 #
plane-surface $-1 0 -38.691947159131125 0 0 1 0 0 0 1 forward_v I I I I #
face $-1 $56 $57 $20 $-1 $58 reversed single #
loop $-1 $-1 $59 $26 #
plane-surface $-1 -188.00318932784157 15.749154763670937 115.12137713444 0 1 0 -0.70710678939079041 0 0.70710677298230451 forward_v I I I I #
face $-1 $60 $61 $21 $-1 $62 forward single #
loop $-1 $63 $64 $27 #
cone-surface $-1 -72.582846130624219 22.649464511702341 5.3901339549837566 0.70710678939079041 0 -0.70710677298230451 1.414213545964609 0 1.4142135787815808 1 I I 0 1 2 forward I I I I #
face $-1 $65 $66 $22 $-1 $67 reversed single #
loop $-1 $-1 $68 $28 #
plane-surface $-1 28.325879767370594 -5.6624594241237176 215.02112850621847 0 -1 0 -0.52991927123019833 0 -0.84804809178421925 forward_v I I I I #
face $-1 $69 $70 $23 $-1 $71 forward single #
loop $-1 $72 $73 $29 #
cone-surface $-1 68.264336097584732 -12.983508895843386 3.322016104601115 -0.52991927123019833 0 -0.84804809178421925 1.2720721376763289 0 -0.79487890684529749 1 I I 0 1 1.5 forward I I I I #
face $-1 $74 $75 $18 $-1 $76 reversed single #
loop $-1 $-1 $77 $30 #
plane-surface $-1 0 0 -10.680758093318671 0 0 1 1 0 0 forward_v I I I I #
coedge $-1 $78 $79 $80 $81 forward $31 $-1 #
face $-1 $82 $83 $19 $-1 $84 reversed single #
loop $-1 $-1 $85 $33 #
plane-surface $-1 0 0 -10.680758093318671 0 0 1 1 0 0 forward_v I I I I #
coedge $-1 $86 $87 $88 $89 forward $34 $-1 #
face $-1 $90 $91 $20 $-1 $92 reversed single #
loop $-1 $-1 $93 $36 #
plane-surface $-1 -77.873470259712519 22.649464511702341 4.9916606218824313 -0.70710678939079041 0 0.70710677298230451 0.70710677298230451 0 0.70710678939079041 forward_v I I I I #
coedge $-1 $94 $95 $96 $97 reversed $37 $-1 #
face $-1 $-1 $98 $21 $-1 $99 forward single #
loop $-1 $100 $101 $39 #
cone-surface $-1 -69.429663881855205 22.649464511702341 2.2369517793846665 0.70710678939079041 0 -0.70710677298230451 0.70710677298230451 0 0.70710678939079041 1 I I -0.70710678118654746 0.70710678118654746 1 forward I I I I #
loop $-1 $-1 $102 $27 #
coedge $-1 $64 $64 $103 $104 reversed $40 $-1 #
face $-1 $105 $106 $22 $-1 $107 reversed single #
loop $-1 $-1 $108 $42 #
plane-surface $-1 -54.207425449016171 -12.983508895843386 82.940232797489784 0.52991927123019833 0 0.84804809178421925 0.84804809178421925 0 -0.52991927123019833 forward_v I I I I #
coedge $-1 $109 $110 $111 $112 reversed $43 $-1 #
face $-1 $-1 $113 $23 $-1 $114 forward single #
loop $-1 $115 $116 $45 #
cone-surface $-1 66.478545188211996 -12.983508895843386 0.46415330315322656 -0.52991927123019833 0 -0.84804809178421925 0.63603606883816444 0 -0.39743945342264875 1 I I -0.70710678118654757 0.70710678118654757 0.75 forward I I I I #
loop $-1 $-1 $117 $29 #
coedge $-1 $73 $73 $118 $119 reversed $46 $-1 #
face $-1 $120 $121 $18 $-1 $122 reversed single #
loop $-1 $-1 $123 $48 #
plane-surface $-1 0 -38.691947159131125 0 0 1 0 0 0 1 forward_v I I I I #
coedge $-1 $124 $125 $126 $127 forward $49 $-1 #
coedge $-1 $128 $51 $129 $130 forward $31 $-1 #
coedge $-1 $51 $128 $131 $132 forward $31 $-1 #
coedge $-1 $133 $134 $51 $81 reversed $135 $-1 #
edge $-1 $136 -38.691947159131125 $137 38.691947159131125 $80 $138 forward 7 unknown #
face $-1 $139 $140 $19 $-1 $141 forward single #
loop $-1 $-1 $142 $52 #
plane-surface $-1 77.873470259712519 0 0 -1 0 0 0 0 1 forward_v I I I I #
coedge $-1 $143 $144 $145 $146 forward $53 $-1 #
coedge $-1 $145 $55 $142 $147 reversed $34 $-1 #
coedge $-1 $55 $145 $148 $149 reversed $34 $-1 #
coedge $-1 $150 $151 $55 $89 reversed $140 $-1 #
edge $-1 $152 -77.873470259712519 $153 77.873470259712519 $88 $154 forward 7 unknown #
face $-1 $155 $156 $20 $-1 $157 forward single #
loop $-1 $-1 $158 $56 #
plane-surface $-1 -188.00318932784157 29.549774259733745 115.12137713444 0 -1 0 0.70710678939079041 0 -0.70710677298230451 forward_v I I I I #
coedge $-1 $159 $160 $161 $162 reversed $57 $-1 #
coedge $-1 $95 $59 $163 $164 reversed $37 $-1 #
coedge $-1 $59 $94 $159 $165 reversed $37 $-1 #
coedge $-1 $161 $166 $59 $97 forward $156 $-1 #
edge $-1 $167 16.128124404208265 $168 21.817221743628409 $96 $169 forward 7 unknown #
loop $-1 $-1 $103 $60 #
plane-surface $-1 -77.873470259712519 22.649464511702341 4.9916606218824313 -0.70710678939079041 0 0.70710677298230451 0.70710677298230451 0 0.70710678939079041 forward_v I I I I #
loop $-1 $-1 $170 $39 #
coedge $-1 $101 $101 $102 $171 reversed $61 $-1 #
coedge $-1 $102 $102 $101 $171 forward $63 $-1 #
coedge $-1 $103 $103 $64 $104 forward $98 $-1 #
edge $-1 $172 0 $172 6.2831853071796004 $103 $173 forward 7 unknown #
face $-1 $174 $175 $22 $-1 $176 reversed single #
loop $-1 $-1 $177 $65 #
plane-surface $-1 28.325879767370594 -20.304558367563054 215.02112850621847 0 1 0 0.52991927123019833 0 0.84804809178421925 forward_v I I I I #
coedge $-1 $178 $179 $180 $181 reversed $66 $-1 #
coedge $-1 $110 $68 $182 $183 reversed $43 $-1 #
coedge $-1 $68 $109 $178 $184 reversed $43 $-1 #
coedge $-1 $180 $185 $68 $112 forward $186 $-1 #
edge $-1 $187 -63.710530376027222 $188 -47.268964963671891 $111 $189 forward 7 unknown #
loop $-1 $-1 $118 $69 #
plane-surface $-1 -54.207425449016171 -12.983508895843386 82.940232797489784 0.52991927123019833 0 0.84804809178421925 0.84804809178421925 0 -0.52991927123019833 forward_v I I I I #
loop $-1 $-1 $190 $45 #
coedge $-1 $116 $116 $117 $191 reversed $70 $-1 #
coedge $-1 $117 $117 $116 $191 forward $72 $-1 #
coedge $-1 $118 $118 $73 $119 forward $113 $-1 #
edge $-1 $192 0 $192 6.2831853071796004 $118 $193 forward 7 unknown #
face $-1 $194 $195 $18 $-1 $196 reversed single #
loop $-1 $-1 $197 $74 #
plane-surface $-1 -77.873470259712519 0 0 1 0 0 0 0 -1 forward_v I I I I #
coedge $-1 $131 $198 $133 $199 reversed $75 $-1 #
coedge $-1 $200 $77 $198 $201 forward $49 $-1 #
coedge $-1 $77 $200 $202 $203 forward $49 $-1 #
coedge $-1 $134 $133 $77 $127 reversed $135 $-1 #
edge $-1 $204 -38.691947159131125 $205 38.691947159131125 $126 $206 forward 7 unknown #
coedge $-1 $79 $78 $207 $208 forward $31 $-1 #
coedge $-1 $209 $210 $78 $130 reversed $195 $-1 #
edge $-1 $137 -77.873470259712519 $211 77.873470259712519 $129 $212 forward 7 unknown #
coedge $-1 $213 $123 $79 $132 reversed $75 $-1 #
edge $-1 $214 -77.873470259712519 $136 77.873470259712519 $131 $215 forward 7 unknown #
coedge $-1 $126 $80 $123 $199 forward $135 $-1 #
coedge $-1 $80 $126 $209 $216 reversed $135 $-1 #
loop $-1 $-1 $133 $194 #
vertex $-1 $81 $217 #
vertex $-1 $81 $218 #
straight-curve $-1 77.873470259712519 0 10.680758093318671 0 1 0 I I #
face $-1 $219 $220 $19 $-1 $221 reversed single #
loop $-1 $-1 $151 $82 #
plane-surface $-1 0 -44.930084228588925 -4.4987808130358893 0 0 1 1 0 0 forward_v I I I I #
coedge $-1 $222 $223 $86 $147 forward $83 $-1 #
coedge $-1 $224 $85 $223 $225 forward $53 $-1 #
coedge $-1 $85 $224 $226 $227 forward $53 $-1 #
coedge $-1 $87 $86 $85 $146 reversed $34 $-1 #
edge $-1 $228 -77.873470259712519 $229 77.873470259712519 $85 $230 forward 7 unknown #
edge $-1 $229 -10.680758093318671 $153 -4.4987808130358893 $142 $231 forward 7 unknown #
coedge $-1 $226 $232 $87 $149 forward $233 $-1 #
edge $-1 $152 4.4987808130358893 $228 10.680758093318671 $148 $234 forward 7 unknown #
coedge $-1 $235 $88 $232 $236 forward $140 $-1 #
coedge $-1 $88 $235 $222 $237 forward $140 $-1 #
vertex $-1 $149 $238 #
vertex $-1 $237 $239 #
straight-curve $-1 0 -38.691947159131125 -4.4987808130358893 1 0 0 I I #
face $-1 $-1 $240 $20 $-1 $241 reversed single #
loop $-1 $-1 $96 $90 #
plane-surface $-1 0 0 10.680758093318671 0 0 1 1 0 0 forward_v I I I I #
coedge $-1 $242 $243 $244 $245 reversed $91 $-1 #
coedge $-1 $246 $93 $95 $165 forward $57 $-1 #
coedge $-1 $93 $246 $242 $247 forward $57 $-1 #
coedge $-1 $244 $96 $93 $162 forward $156 $-1 #
edge $-1 $168 4.4244225078197665 $248 18.225042003882574 $161 $249 forward 7 unknown #
coedge $-1 $250 $251 $94 $164 forward $240 $-1 #
edge $-1 $252 -52.569027945337567 $167 -46.879930473901325 $163 $253 forward 7 unknown #
edge $-1 $168 -8.0455987084181384 $252 0 $95 $254 forward 7 unknown #
coedge $-1 $96 $244 $250 $255 forward $156 $-1 #
vertex $-1 $164 $256 #
vertex $-1 $97 $257 #
straight-curve $-1 -94.001594663920784 15.749154763670937 10.680758093318673 1 0 0 I I #
coedge $-1 $170 $170 $-1 $258 reversed $100 $-1 #
edge $-1 $259 0 $259 6.2831853071796004 $101 $260 forward 7 unknown #
vertex $-1 $104 $261 #
ellipse-curve $-1 -75.02892159000244 22.649464511702341 7.8362093576005503 -0.70710678939079041 0 0.70710677298230451 1.414213545964609 0 1.4142135787815808 1 I I #
face $-1 $-1 $186 $22 $-1 $262 forward single #
loop $-1 $-1 $263 $105 #
plane-surface $-1 77.873470259712519 0 0 -1 0 0 0 0 1 forward_v I I I I #
coedge $-1 $264 $265 $266 $267 reversed $106 $-1 #
coedge $-1 $268 $108 $110 $184 forward $66 $-1 #
coedge $-1 $108 $268 $264 $269 forward $66 $-1 #
coedge $-1 $266 $111 $108 $181 forward $186 $-1 #
edge $-1 $188 -0.82929502379797526 $270 13.812803919641361 $180 $271 forward 7 unknown #
coedge $-1 $272 $273 $109 $183 forward $175 $-1 #
edge $-1 $274 -107.10363667200622 $187 -96.829806159790564 $182 $275 forward 7 unknown #
edge $-1 $188 136.35940156775578 $274 155.74694051942504 $110 $276 forward 7 unknown #
coedge $-1 $111 $266 $272 $277 forward $186 $-1 #
loop $-1 $-1 $266 $174 #
vertex $-1 $183 $278 #
vertex $-1 $112 $279 #
straight-curve $-1 14.162939883685297 -5.6624594241237176 10.680758093318673 -1 0 0 I I #
coedge $-1 $190 $190 $-1 $280 reversed $115 $-1 #
edge $-1 $281 0 $281 6.2831853071796004 $116 $282 forward 7 unknown #
vertex $-1 $119 $283 #
ellipse-curve $-1 69.652687553534832 -12.983508895843386 5.5438428372108532 0.52991927123019833 0 0.84804809178421925 1.2720721376763289 0 -0.79487890684529749 1 I I #
face $-1 $-1 $135 $18 $-1 $284 reversed single #
loop $-1 $-1 $209 $120 #
plane-surface $-1 0 38.691947159131125 0 0 -1 0 0 0 -1 forward_v I I I I #
coedge $-1 $285 $207 $210 $286 forward $121 $-1 #
coedge $-1 $123 $213 $124 $201 reversed $75 $-1 #
edge $-1 $136 -10.680758093318671 $205 10.680758093318671 $133 $287 forward 7 unknown #
coedge $-1 $125 $124 $285 $288 forward $49 $-1 #
edge $-1 $205 -77.873470259712519 $289 77.873470259712519 $198 $290 forward 7 unknown #
coedge $-1 $210 $209 $125 $203 reversed $195 $-1 #
edge $-1 $291 -77.873470259712519 $204 77.873470259712519 $202 $292 forward 7 unknown #
vertex $-1 $127 $293 #
vertex $-1 $199 $294 #
straight-curve $-1 77.873470259712519 0 -10.680758093318671 0 -1 0 I I #
coedge $-1 $197 $295 $128 $208 reversed $121 $-1 #
edge $-1 $211 -38.691947159131125 $214 38.691947159131125 $207 $296 forward 7 unknown #
coedge $-1 $202 $129 $134 $216 forward $195 $-1 #
coedge $-1 $129 $202 $197 $286 reversed $195 $-1 #
vertex $-1 $130 $297 #
straight-curve $-1 0 38.691947159131125 10.680758093318671 -1 0 0 I I #
coedge $-1 $198 $131 $295 $298 forward $75 $-1 #
vertex $-1 $208 $299 #
straight-curve $-1 0 -38.691947159131125 10.680758093318671 1 0 0 I I #
edge $-1 $137 -10.680758093318671 $204 10.680758093318671 $134 $300 forward 7 unknown #
point $-1 77.873470259712519 -38.691947159131125 10.680758093318671 #
point $-1 77.873470259712519 38.691947159131125 10.680758093318671 #
face $-1 $-1 $233 $19 $-1 $301 reversed single #
loop $-1 $-1 $302 $139 #
plane-surface $-1 0 -51.168221298046731 -7.5897694531772801 0 1 0 0 0 1 forward_v I I I I #
coedge $-1 $303 $142 $151 $237 reversed $83 $-1 #
coedge $-1 $142 $303 $143 $225 reversed $83 $-1 #
coedge $-1 $144 $143 $304 $305 forward $53 $-1 #
edge $-1 $229 38.691947159131125 $306 51.168221298046731 $223 $307 forward 7 unknown #
coedge $-1 $308 $148 $144 $227 reversed $233 $-1 #
edge $-1 $309 -51.168221298046731 $228 -38.691947159131125 $226 $310 forward 7 unknown #
vertex $-1 $149 $311 #
vertex $-1 $225 $312 #
straight-curve $-1 0 -38.691947159131125 -10.680758093318671 1 0 0 I I #
straight-curve $-1 77.873470259712519 -38.691947159131125 0 0 0 1 I I #
coedge $-1 $148 $308 $150 $236 reversed $233 $-1 #
loop $-1 $-1 $148 $219 #
straight-curve $-1 -77.873470259712519 -38.691947159131125 0 0 0 -1 I I #
coedge $-1 $151 $150 $313 $314 forward $140 $-1 #
edge $-1 $152 -6.2381370694578067 $315 6.2381370694578067 $232 $316 forward 7 unknown #
edge $-1 $317 -6.2381370694578067 $153 6.2381370694578067 $222 $318 forward 7 unknown #
point $-1 -77.873470259712519 -38.691947159131118 -4.4987808130358893 #
point $-1 77.873470259712519 -38.691947159131118 -4.4987808130358893 #
loop $-1 $-1 $163 $155 #
plane-surface $-1 -77.873470259712519 0 0 1 0 0 0 0 -1 forward_v I I I I #
coedge $-1 $243 $158 $160 $247 reversed $91 $-1 #
coedge $-1 $158 $242 $319 $320 reversed $91 $-1 #
coedge $-1 $166 $161 $158 $245 forward $156 $-1 #
edge $-1 $248 -21.817221743628409 $321 -16.128124404208265 $244 $322 forward 7 unknown #
coedge $-1 $160 $159 $251 $323 reversed $57 $-1 #
edge $-1 $324 0 $248 8.0455987084181384 $242 $325 forward 7 unknown #
vertex $-1 $162 $326 #
straight-curve $-1 -72.184372920292375 11.32473225585117 10.680758093318669 0 1 0 I I #
coedge $-1 $319 $163 $166 $255 reversed $240 $-1 #
coedge $-1 $163 $319 $246 $323 forward $240 $-1 #
vertex $-1 $164 $327 #
straight-curve $-1 -77.873470259712519 15.749154763670937 57.560688567219998 0 0 1 I I #
straight-curve $-1 -77.873470259712519 15.749154763670937 4.9916606218824313 -0.70710677298230451 0 -0.70710678939079041 I I #
edge $-1 $321 -29.549774259733745 $167 -15.749154763670937 $250 $328 forward 7 unknown #
point $-1 -77.873470259712519 15.749154763670937 10.680758093318671 #
point $-1 -72.184372920292375 15.749154763670937 10.680758093318671 #
edge $-1 $329 1 $329 0 $170 $-1 forward 7 unknown #
vertex $-1 $171 $330 #
ellipse-curve $-1 -70.136770671245998 22.649464511702341 2.9440585523669709 -0.70710678939079041 0 0.70710677298230451 1.414213545964609 0 1.4142135787815808 1 I I #
point $-1 -73.614708044037826 22.649464511702341 9.2504229363821224 #
plane-surface $-1 0 0 10.680758093318671 0 0 1 1 0 0 forward_v I I I I #
coedge $-1 $273 $272 $265 $331 forward $175 $-1 #
coedge $-1 $265 $177 $179 $269 reversed $106 $-1 #
coedge $-1 $177 $264 $263 $331 reversed $106 $-1 #
coedge $-1 $185 $180 $177 $267 forward $186 $-1 #
edge $-1 $270 47.268964963671891 $332 63.710530376027222 $266 $333 forward 7 unknown #
coedge $-1 $179 $178 $273 $334 reversed $66 $-1 #
edge $-1 $335 -155.74694051942504 $270 -136.35940156775578 $264 $336 forward 7 unknown #
vertex $-1 $181 $337 #
straight-curve $-1 61.43190484735721 -6.4917544479216929 10.680758093318666 0 -1 0 I I #
coedge $-1 $263 $182 $185 $277 reversed $175 $-1 #
coedge $-1 $182 $263 $268 $334 forward $175 $-1 #
vertex $-1 $183 $338 #
straight-curve $-1 77.873470259712519 -5.6624594241237176 107.51056425310924 0 0 1 I I #
straight-curve $-1 -54.207425449016171 -5.6624594241237176 82.940232797489784 0.84804809178421925 0 -0.52991927123019833 I I #
edge $-1 $332 -20.304558367563054 $187 -5.6624594241237176 $272 $339 forward 7 unknown #
point $-1 77.873470259712519 -5.6624594241237176 10.680758093318671 #
point $-1 61.431904847357188 -5.6624594241237176 10.680758093318673 #
edge $-1 $340 1 $340 0 $190 $-1 forward 7 unknown #
vertex $-1 $191 $341 #
ellipse-curve $-1 66.875984641634645 -12.983508895843386 1.1001893719913909 0.52991927123019833 0 0.84804809178421925 1.2720721376763289 0 -0.79487890684529749 1 I I #
point $-1 70.92475969121115 -12.983508895843386 4.7489639303655418 #
plane-surface $-1 77.873470259712519 0 0 -1 0 0 0 0 1 forward_v I I I I #
coedge $-1 $295 $197 $200 $288 reversed $121 $-1 #
edge $-1 $211 -10.680758093318671 $291 10.680758093318671 $210 $342 forward 7 unknown #
straight-curve $-1 77.873470259712519 -38.691947159131125 0 0 0 -1 I I #
edge $-1 $289 -38.691947159131125 $291 38.691947159131125 $285 $343 forward 7 unknown #
vertex $-1 $288 $344 #
straight-curve $-1 0 -38.691947159131125 -10.680758093318671 -1 0 0 I I #
vertex $-1 $203 $345 #
straight-curve $-1 0 38.691947159131125 -10.680758093318671 1 0 0 I I #
point $-1 77.873470259712519 38.691947159131125 -10.680758093318671 #
point $-1 77.873470259712519 -38.691947159131125 -10.680758093318671 #
coedge $-1 $207 $285 $213 $298 reversed $121 $-1 #
straight-curve $-1 -77.873470259712519 0 10.680758093318671 0 -1 0 I I #
point $-1 -77.873470259712519 38.691947159131125 10.680758093318671 #
edge $-1 $214 -10.680758093318671 $289 10.680758093318671 $295 $346 forward 7 unknown #
point $-1 -77.873470259712519 -38.691947159131125 10.680758093318671 #
straight-curve $-1 77.873470259712519 38.691947159131125 0 0 0 -1 I I #
plane-surface $-1 -77.873470259712519 0 0 1 0 0 0 0 -1 forward_v I I I I #
coedge $-1 $304 $313 $308 $347 forward $220 $-1 #
coedge $-1 $223 $222 $348 $349 forward $83 $-1 #
coedge $-1 $348 $302 $224 $305 reversed $220 $-1 #
edge $-1 $306 -77.873470259712519 $309 77.873470259712519 $304 $350 forward 7 unknown #
vertex $-1 $349 $351 #
straight-curve $-1 77.873470259712519 0 -10.680758093318671 0 -1 0 I I #
coedge $-1 $232 $226 $302 $347 reversed $233 $-1 #
vertex $-1 $227 $352 #
straight-curve $-1 -77.873470259712519 0 -10.680758093318671 0 1 0 I I #
point $-1 -77.873470259712519 -38.691947159131125 -10.680758093318671 #
point $-1 77.873470259712519 -38.691947159131125 -10.680758093318671 #
coedge $-1 $302 $348 $235 $314 reversed $220 $-1 #
edge $-1 $315 -77.873470259712519 $317 77.873470259712519 $313 $353 forward 7 unknown #
vertex $-1 $236 $354 #
straight-curve $-1 -77.873470259712519 -44.930084228588925 -4.4987808130358893 0 -1 0 I I #
vertex $-1 $237 $355 #
straight-curve $-1 77.873470259712519 -44.930084228588925 -4.4987808130358893 0 1 0 I I #
coedge $-1 $251 $250 $243 $320 forward $240 $-1 #
edge $-1 $321 46.879930473901325 $324 52.569027945337567 $319 $356 forward 7 unknown #
vertex $-1 $255 $357 #
straight-curve $-1 -94.001594663920784 29.549774259733745 10.680758093318673 -1 0 0 I I #
edge $-1 $324 -18.225042003882574 $252 -4.4244225078197665 $251 $358 forward 7 unknown #
vertex $-1 $323 $359 #
straight-curve $-1 -77.873470259712519 29.549774259733745 4.9916606218824313 0.70710677298230451 0 0.70710678939079041 I I #
point $-1 -72.184372920292375 29.549774259733745 10.680758093318671 #
point $-1 -77.873470259712519 15.749154763670937 4.9916606218824313 #
straight-curve $-1 -77.873470259712519 0 10.680758093318671 0 -1 0 I I #
vertex $-1 $258 $360 #
point $-1 -68.722557125281384 22.649464511702341 4.3582721311485519 #
edge $-1 $332 96.829806159790564 $335 107.10363667200622 $263 $361 forward 7 unknown #
vertex $-1 $277 $362 #
straight-curve $-1 14.162939883685297 -20.304558367563054 10.680758093318673 1 0 0 I I #
edge $-1 $335 -13.812803919641361 $274 0.82929502379797526 $273 $363 forward 7 unknown #
vertex $-1 $334 $364 #
straight-curve $-1 -54.207425449016171 -20.304558367563054 82.940232797489784 -0.84804809178421925 0 0.52991927123019833 I I #
point $-1 61.431904847357188 -20.304558367563054 10.680758093318673 #
point $-1 77.873470259712519 -5.6624594241237176 0.40692758110301952 #
straight-curve $-1 77.873470259712519 0 10.680758093318671 0 1 0 I I #
vertex $-1 $280 $365 #
point $-1 68.148056779310977 -12.983508895843386 0.3053104651460935 #
straight-curve $-1 -77.873470259712519 38.691947159131125 0 0 0 -1 I I #
straight-curve $-1 -77.873470259712519 0 -10.680758093318671 0 1 0 I I #
point $-1 -77.873470259712519 -38.691947159131125 -10.680758093318671 #
point $-1 -77.873470259712519 38.691947159131125 -10.680758093318671 #
straight-curve $-1 -77.873470259712519 -38.691947159131125 0 0 0 -1 I I #
edge $-1 $315 -3.0909886401413909 $309 3.0909886401413909 $308 $366 forward 7 unknown #
coedge $-1 $313 $304 $303 $349 reversed $220 $-1 #
edge $-1 $317 -3.0909886401413909 $306 3.0909886401413909 $303 $367 forward 7 unknown #
straight-curve $-1 0 -51.168221298046731 -10.680758093318671 -1 0 0 I I #
point $-1 77.873470259712519 -51.168221298046731 -10.680758093318671 #
point $-1 -77.873470259712519 -51.168221298046731 -10.680758093318671 #
straight-curve $-1 0 -51.168221298046731 -4.4987808130358893 1 0 0 I I #
point $-1 -77.873470259712519 -51.168221298046731 -4.4987808130358893 #
point $-1 77.873470259712519 -51.168221298046731 -4.4987808130358893 #
straight-curve $-1 -77.873470259712519 29.549774259733745 57.560688567219998 0 0 -1 I I #
point $-1 -77.873470259712519 29.549774259733745 10.680758093318671 #
straight-curve $-1 -77.873470259712519 11.32473225585117 4.9916606218824313 0 -1 0 I I #
point $-1 -77.873470259712519 29.549774259733745 4.9916606218824313 #
point $-1 -68.722557092464413 22.649464511702341 1.5298450064023621 #
straight-curve $-1 77.873470259712519 -20.304558367563054 107.51056425310924 0 0 -1 I I #
point $-1 77.873470259712519 -20.304558367563054 10.680758093318671 #
straight-curve $-1 77.873470259712533 -6.4917544479216929 0.40692758110302663 0 1 0 I I #
point $-1 77.873470259712519 -20.304558367563054 0.40692758110301952 #
point $-1 66.081105734789347 -12.983508895843386 -0.17188276568493788 #
straight-curve $-1 -77.873470259712519 -51.168221298046731 -7.5897694531772801 0 0 -1 I I #
straight-curve $-1 77.873470259712519 -51.168221298046731 -7.5897694531772801 0 0 -1 I I #
End-of-ACIS-data 