500 0 5 0           
7 Unknown 11 ACIS 5.0 NT 24 Fri Mar 26 00:20:28 1999 
-1 9.9999999999999995e-007 1e-010 
body $-1 $5 $-1 $6 #
body $-1 $7 $-1 $8 #
body $-1 $9 $-1 $10 #
body $-1 $11 $-1 $12 #
body $-1 $13 $-1 $14 #
lump $-1 $-1 $15 $0 #
transform $-1 1 0 0 0 1 0 0 0 1 60.868556779686884 24.392005534919662 9.0786468429448295 1 rotate no_reflect no_shear #
lump $-1 $-1 $16 $1 #
transform $-1 1 0 0 0 1 0 0 0 1 60.868556779686884 24.392005534919662 9.0786468429448295 1 rotate no_reflect no_shear #
lump $-1 $-1 $17 $2 #
transform $-1 1 0 0 0 1 0 0 0 1 60.868556779686884 24.392005534919662 9.0786468429448295 1 rotate no_reflect no_shear #
lump $-1 $-1 $18 $3 #
transform $-1 1 0 0 0 1 0 0 0 1 60.868556779686884 24.392005534919662 9.0786468429448295 1 rotate no_reflect no_shear #
lump $-1 $-1 $19 $4 #
transform $-1 1 0 0 0 1 0 0 0 1 60.868556779686884 24.392005534919662 9.0786468429448295 1 rotate no_reflect no_shear #
shell $-1 $-1 $-1 $20 $-1 $5 #
shell $-1 $-1 $-1 $21 $-1 $7 #
shell $-1 $-1 $-1 $22 $-1 $9 #
shell $-1 $-1 $-1 $23 $-1 $11 #
shell $-1 $-1 $-1 $24 $-1 $13 #
face $-1 $25 $26 $15 $-1 $27 forward single #
face $-1 $28 $29 $16 $-1 $30 forward single #
face $-1 $31 $32 $17 $-1 $33 reversed single #
face $-1 $34 $35 $18 $-1 $36 forward single #
face $-1 $37 $38 $19 $-1 $39 reversed single #
face $-1 $40 $41 $15 $-1 $42 reversed single #
loop $-1 $-1 $43 $20 #
plane-surface $-1 0 0 9.0786468429448295 0 0 1 1 0 0 forward_v I I I I #
face $-1 $44 $45 $16 $-1 $46 forward single #
loop $-1 $-1 $47 $21 #
plane-surface $-1 60.868558777208591 10.660722236883132 173.47847929668492 0 1 0 0.70710678939079041 0 0.70710677298230451 forward_v I I I I #
face $-1 $48 $49 $17 $-1 $50 reversed single #
loop $-1 $51 $52 $22 #
cone-surface $-1 55.428126017677542 17.526363885901397 3.6382160270529234 -0.70710678939079041 0 -0.70710677298230451 1.414213545964609 0 -1.4142135787815808 1 I I 0 1 2 forward I I I I #
face $-1 $53 $54 $18 $-1 $55 forward single #
loop $-1 $-1 $56 $23 #
plane-surface $-1 -146.94969629835771 10.660722236883132 87.397339778014057 0 1 0 -0.70710678939079041 0 0.70710677298230451 forward_v I I I I #
face $-1 $57 $58 $19 $-1 $59 reversed single #
loop $-1 $60 $61 $24 #
cone-surface $-1 -55.428126017677542 17.526363885901397 3.638216027052918 0.70710678939079041 0 -0.70710677298230451 1.414213545964609 0 1.4142135787815808 1 I I 0 1 2 forward I I I I #
face $-1 $62 $63 $15 $-1 $64 reversed single #
loop $-1 $-1 $65 $25 #
plane-surface $-1 0 0 -9.0786468429448295 0 0 1 1 0 0 forward_v I I I I #
coedge $-1 $66 $67 $68 $69 forward $26 $-1 #
face $-1 $70 $71 $16 $-1 $72 reversed single #
loop $-1 $-1 $73 $28 #
plane-surface $-1 -25.212580741462247 17.526363885901397 87.397341775535793 0.70710678939079041 0 0.70710677298230451 0.70710677298230451 0 -0.70710678939079041 forward_v I I I I #
coedge $-1 $74 $75 $76 $77 reversed $29 $-1 #
face $-1 $78 $79 $17 $-1 $80 forward single #
loop $-1 $81 $82 $31 #
cone-surface $-1 53.161810669253185 17.526363885901397 1.3719007312186502 -0.70710678939079041 0 -0.70710677298230451 0.70710677298230451 0 -0.70710678939079041 1 I I -0.70710678118654746 0.70710678118654746 1 forward I I I I #
loop $-1 $-1 $83 $22 #
coedge $-1 $52 $52 $84 $85 reversed $32 $-1 #
face $-1 $86 $87 $18 $-1 $88 forward single #
loop $-1 $-1 $89 $34 #
plane-surface $-1 -60.86855677968687 17.526363885901397 1.3162022568649263 -0.70710678939079041 0 0.70710677298230451 0.70710677298230451 0 0.70710678939079041 forward_v I I I I #
coedge $-1 $90 $91 $92 $93 reversed $35 $-1 #
face $-1 $94 $95 $19 $-1 $96 forward single #
loop $-1 $97 $98 $37 #
cone-surface $-1 -53.161810669253185 17.526363885901397 1.3719007312186449 0.70710678939079041 0 -0.70710677298230451 0.70710677298230451 0 0.70710678939079041 1 I I -0.70710678118654746 0.70710678118654746 1 forward I I I I #
loop $-1 $-1 $99 $24 #
coedge $-1 $61 $61 $100 $101 reversed $38 $-1 #
face $-1 $102 $103 $15 $-1 $104 reversed single #
loop $-1 $-1 $105 $40 #
plane-surface $-1 0 -24.392005534919662 0 0 1 0 0 0 1 forward_v I I I I #
coedge $-1 $106 $107 $108 $109 forward $41 $-1 #
coedge $-1 $110 $43 $111 $112 forward $26 $-1 #
coedge $-1 $43 $110 $113 $114 forward $26 $-1 #
coedge $-1 $115 $116 $43 $69 reversed $117 $-1 #
edge $-1 $118 -24.392005534919662 $119 24.392005534919662 $68 $120 forward 7 unknown #
face $-1 $121 $122 $16 $-1 $123 forward single #
loop $-1 $-1 $124 $44 #
plane-surface $-1 60.868556779686884 0 0 -1 0 0 0 0 1 forward_v I I I I #
coedge $-1 $125 $126 $124 $127 reversed $45 $-1 #
coedge $-1 $75 $47 $126 $128 forward $29 $-1 #
coedge $-1 $47 $74 $129 $130 reversed $29 $-1 #
coedge $-1 $131 $124 $47 $77 forward $71 $-1 #
edge $-1 $132 -85.423037391477521 $133 -77.660592805397627 $76 $134 forward 7 unknown #
face $-1 $135 $136 $17 $-1 $137 forward single #
loop $-1 $-1 $138 $48 #
plane-surface $-1 60.868558777208591 10.660722236883132 173.47847929668492 0 1 0 0.70710678939079041 0 0.70710677298230451 forward_v I I I I #
loop $-1 $-1 $139 $31 #
coedge $-1 $82 $82 $83 $140 forward $49 $-1 #
coedge $-1 $83 $83 $82 $140 reversed $51 $-1 #
coedge $-1 $84 $84 $52 $85 forward $136 $-1 #
edge $-1 $141 0 $141 6.2831853071796004 $84 $142 forward 7 unknown #
face $-1 $143 $144 $18 $-1 $145 reversed single #
loop $-1 $-1 $146 $53 #
plane-surface $-1 0 0 9.0786468429448295 0 0 1 1 0 0 forward_v I I I I #
coedge $-1 $147 $148 $146 $149 reversed $54 $-1 #
coedge $-1 $91 $56 $148 $150 forward $35 $-1 #
coedge $-1 $56 $90 $151 $152 reversed $35 $-1 #
coedge $-1 $153 $146 $56 $93 forward $87 $-1 #
edge $-1 $154 -20.368735775443561 $155 -12.60629136949197 $92 $156 forward 7 unknown #
face $-1 $157 $158 $19 $-1 $159 forward single #
loop $-1 $-1 $160 $57 #
plane-surface $-1 -146.94969629835771 10.660722236883132 87.397339778014057 0 1 0 -0.70710678939079041 0 0.70710677298230451 forward_v I I I I #
loop $-1 $-1 $161 $37 #
coedge $-1 $98 $98 $99 $162 forward $58 $-1 #
coedge $-1 $99 $99 $98 $162 reversed $60 $-1 #
coedge $-1 $100 $100 $61 $101 forward $158 $-1 #
edge $-1 $163 0 $163 6.2831853071796004 $100 $164 forward 7 unknown #
face $-1 $165 $166 $15 $-1 $167 reversed single #
loop $-1 $-1 $168 $62 #
plane-surface $-1 -60.868556779686884 0 0 1 0 0 0 0 -1 forward_v I I I I #
coedge $-1 $169 $113 $170 $171 forward $63 $-1 #
coedge $-1 $172 $65 $169 $173 forward $41 $-1 #
coedge $-1 $65 $172 $174 $175 forward $41 $-1 #
coedge $-1 $116 $115 $65 $109 reversed $117 $-1 #
edge $-1 $176 -24.392005534919662 $177 24.392005534919662 $108 $178 forward 7 unknown #
coedge $-1 $67 $66 $179 $180 forward $26 $-1 #
coedge $-1 $181 $182 $66 $112 reversed $166 $-1 #
edge $-1 $119 -60.868556779686884 $183 60.868556779686884 $111 $184 forward 7 unknown #
coedge $-1 $105 $185 $67 $114 reversed $63 $-1 #
edge $-1 $186 -60.868556779686884 $118 60.868556779686884 $113 $187 forward 7 unknown #
coedge $-1 $108 $68 $185 $188 forward $117 $-1 #
coedge $-1 $68 $108 $181 $189 reversed $117 $-1 #
loop $-1 $-1 $115 $165 #
vertex $-1 $69 $190 #
vertex $-1 $69 $191 #
straight-curve $-1 60.868556779686884 0 9.0786468429448295 0 1 0 I I #
face $-1 $192 $193 $16 $-1 $194 reversed single #
loop $-1 $-1 $129 $70 #
plane-surface $-1 0 0 9.0786468429448295 0 0 1 1 0 0 forward_v I I I I #
coedge $-1 $76 $195 $73 $127 forward $71 $-1 #
coedge $-1 $196 $73 $197 $198 reversed $45 $-1 #
coedge $-1 $73 $196 $74 $128 reversed $45 $-1 #
edge $-1 $199 -15.628823591968963 $132 -1.8975402939324333 $124 $200 forward 7 unknown #
edge $-1 $132 -121.73711355937381 $201 -110.75935927593999 $74 $202 forward 7 unknown #
coedge $-1 $203 $204 $75 $130 forward $122 $-1 #
edge $-1 $133 -30.434277391082588 $201 -22.671832985131033 $129 $205 forward 7 unknown #
coedge $-1 $206 $76 $204 $207 reversed $71 $-1 #
vertex $-1 $127 $208 #
vertex $-1 $130 $209 #
straight-curve $-1 60.868556779686884 10.660722236883132 86.739239648342462 0 0 1 I I #
face $-1 $210 $211 $17 $-1 $212 reversed single #
loop $-1 $213 $84 $78 #
plane-surface $-1 -25.212580741462247 17.526363885901397 87.397341775535793 0.70710678939079041 0 0.70710677298230451 0.70710677298230451 0 -0.70710678939079041 forward_v I I I I #
coedge $-1 $214 $215 $216 $217 reversed $79 $-1 #
coedge $-1 $139 $139 $-1 $218 forward $81 $-1 #
edge $-1 $219 0 $219 6.2831853071796004 $82 $220 forward 7 unknown #
vertex $-1 $85 $221 #
ellipse-curve $-1 56.987334576711106 17.526363885901397 5.197424549904893 -0.70710678939079041 0 -0.70710677298230451 1.414213545964609 0 -1.4142135787815808 1 I I #
face $-1 $222 $223 $18 $-1 $224 reversed single #
loop $-1 $-1 $151 $86 #
plane-surface $-1 -60.868556779686884 0 0 1 0 0 0 0 -1 forward_v I I I I #
coedge $-1 $92 $225 $89 $149 forward $87 $-1 #
coedge $-1 $226 $89 $227 $228 reversed $54 $-1 #
coedge $-1 $89 $226 $90 $150 reversed $54 $-1 #
edge $-1 $229 -15.628823591968963 $154 -1.8975402939324333 $146 $230 forward 7 unknown #
edge $-1 $154 -10.977754283433848 $231 2.0097183471152325e-014 $90 $232 forward 7 unknown #
coedge $-1 $233 $234 $91 $152 forward $144 $-1 #
edge $-1 $155 34.620023046062201 $231 42.382467632142117 $151 $235 forward 7 unknown #
coedge $-1 $236 $92 $234 $237 forward $87 $-1 #
vertex $-1 $149 $238 #
vertex $-1 $237 $239 #
straight-curve $-1 -73.474848149178854 10.660722236883132 9.0786468429448277 -1 0 0 I I #
face $-1 $240 $241 $19 $-1 $242 forward single #
loop $-1 $243 $100 $94 #
plane-surface $-1 -60.86855677968687 17.526363885901397 1.3162022568649263 -0.70710678939079041 0 0.70710677298230451 0.70710677298230451 0 0.70710678939079041 forward_v I I I I #
coedge $-1 $244 $245 $246 $247 reversed $95 $-1 #
coedge $-1 $161 $161 $-1 $248 forward $97 $-1 #
edge $-1 $249 0 $249 6.2831853071796004 $98 $250 forward 7 unknown #
vertex $-1 $101 $251 #
ellipse-curve $-1 -56.987334576711092 17.526363885901397 5.1974245499048699 0.70710678939079041 0 -0.70710677298230451 1.414213545964609 0 1.4142135787815808 1 I I #
face $-1 $-1 $117 $15 $-1 $252 reversed single #
loop $-1 $-1 $181 $102 #
plane-surface $-1 0 24.392005534919662 0 0 -1 0 0 0 -1 forward_v I I I I #
coedge $-1 $253 $179 $182 $254 forward $103 $-1 #
coedge $-1 $185 $105 $106 $173 reversed $63 $-1 #
coedge $-1 $179 $253 $105 $171 reversed $103 $-1 #
edge $-1 $186 -9.0786468429448295 $255 9.0786468429448295 $170 $256 forward 7 unknown #
coedge $-1 $107 $106 $253 $257 forward $41 $-1 #
edge $-1 $177 -60.868556779686884 $255 60.868556779686884 $169 $258 forward 7 unknown #
coedge $-1 $182 $181 $107 $175 reversed $166 $-1 #
edge $-1 $259 -60.868556779686884 $176 60.868556779686884 $174 $260 forward 7 unknown #
vertex $-1 $109 $261 #
vertex $-1 $188 $262 #
straight-curve $-1 60.868556779686884 0 -9.0786468429448295 0 -1 0 I I #
coedge $-1 $168 $170 $110 $180 reversed $103 $-1 #
edge $-1 $183 -24.392005534919662 $186 24.392005534919662 $179 $263 forward 7 unknown #
coedge $-1 $174 $111 $116 $189 forward $166 $-1 #
coedge $-1 $111 $174 $168 $254 reversed $166 $-1 #
vertex $-1 $112 $264 #
straight-curve $-1 0 24.392005534919662 9.0786468429448295 -1 0 0 I I #
coedge $-1 $113 $169 $115 $188 reversed $63 $-1 #
vertex $-1 $180 $265 #
straight-curve $-1 0 -24.392005534919662 9.0786468429448295 1 0 0 I I #
edge $-1 $118 -9.0786468429448295 $177 9.0786468429448295 $115 $266 forward 7 unknown #
edge $-1 $119 -9.0786468429448295 $176 9.0786468429448295 $116 $267 forward 7 unknown #
point $-1 60.868556779686884 -24.392005534919662 9.0786468429448295 #
point $-1 60.868556779686884 24.392005534919662 9.0786468429448295 #
face $-1 $268 $269 $16 $-1 $270 reversed single #
loop $-1 $-1 $271 $121 #
plane-surface $-1 0 0 -9.0786468429448295 0 0 1 1 0 0 forward_v I I I I #
coedge $-1 $124 $272 $273 $274 reversed $71 $-1 #
coedge $-1 $126 $125 $203 $275 reversed $45 $-1 #
coedge $-1 $273 $276 $125 $198 forward $277 $-1 #
edge $-1 $278 70.945739100520015 $199 81.923493383953826 $197 $279 forward 7 unknown #
vertex $-1 $274 $280 #
straight-curve $-1 60.868556779686884 8.7631819429506983 1.3162022568649618 0 -1 0 I I #
vertex $-1 $275 $281 #
straight-curve $-1 -25.212580741462247 10.660722236883132 87.397341775535793 -0.70710677298230451 0 0.70710678939079041 I I #
coedge $-1 $282 $129 $196 $275 forward $122 $-1 #
coedge $-1 $129 $283 $131 $207 forward $122 $-1 #
straight-curve $-1 30.434279388604295 10.660722236883132 9.0786468429448348 -1 0 0 I I #
coedge $-1 $272 $131 $284 $285 forward $71 $-1 #
edge $-1 $286 -24.392005534919662 $133 10.660722236883132 $131 $287 forward 7 unknown #
point $-1 60.868556779686884 10.660722236883132 1.3162022568649405 #
point $-1 60.868556779686884 10.660722236883132 9.0786468429448295 #
face $-1 $288 $289 $17 $-1 $290 forward single #
loop $-1 $-1 $291 $135 #
plane-surface $-1 60.868556779686884 0 0 -1 0 0 0 0 1 forward_v I I I I #
loop $-1 $-1 $292 $78 #
coedge $-1 $215 $138 $293 $294 forward $79 $-1 #
coedge $-1 $138 $214 $295 $296 reversed $79 $-1 #
coedge $-1 $297 $291 $138 $217 forward $211 $-1 #
edge $-1 $298 -85.423037391477521 $299 -77.660592805397627 $216 $300 forward 7 unknown #
edge $-1 $301 1 $301 0 $139 $-1 forward 7 unknown #
vertex $-1 $140 $302 #
ellipse-curve $-1 53.868917458643978 17.526363885901397 2.0790075042009546 0.70710678939079041 0 0.70710677298230451 1.414213545964609 0 -1.4142135787815808 1 I I #
point $-1 58.401548122675713 17.526363885901397 3.7832109711233111 #
face $-1 $303 $304 $18 $-1 $305 reversed single #
loop $-1 $306 $307 $143 #
cone-surface $-1 55.428126017677542 17.526363885901397 3.6382160270529234 -0.70710678939079041 0 -0.70710677298230451 1.414213545964609 0 -1.4142135787815808 1 I I 0 1 2 forward I I I I #
coedge $-1 $146 $308 $309 $310 forward $87 $-1 #
coedge $-1 $148 $147 $233 $311 reversed $54 $-1 #
coedge $-1 $309 $312 $147 $228 forward $313 $-1 #
edge $-1 $314 -21.054936604266963 $229 -10.077182320833099 $227 $315 forward 7 unknown #
vertex $-1 $228 $316 #
straight-curve $-1 -53.106112373735293 8.7631819429506983 9.0786468429448295 0 -1 0 I I #
vertex $-1 $311 $317 #
straight-curve $-1 -60.86855677968687 10.660722236883132 1.3162022568649263 -0.70710677298230451 0 -0.70710678939079041 I I #
coedge $-1 $318 $151 $226 $311 forward $144 $-1 #
coedge $-1 $151 $319 $153 $237 reversed $144 $-1 #
straight-curve $-1 -60.868556779686884 10.660722236883132 43.698669889007029 0 0 -1 I I #
coedge $-1 $320 $153 $321 $322 forward $87 $-1 #
edge $-1 $155 -10.660722236883132 $323 24.392005534919662 $234 $324 forward 7 unknown #
point $-1 -53.106112373735293 10.660722236883132 9.0786468429448277 #
point $-1 -60.868556779686884 10.660722236883132 9.0786468429448295 #
face $-1 $325 $326 $19 $-1 $327 reversed single #
loop $-1 $-1 $328 $157 #
plane-surface $-1 0 0 9.0786468429448295 0 0 1 1 0 0 forward_v I I I I #
loop $-1 $-1 $329 $94 #
coedge $-1 $245 $160 $330 $331 forward $95 $-1 #
coedge $-1 $160 $244 $332 $333 reversed $95 $-1 #
coedge $-1 $334 $328 $160 $247 forward $241 $-1 #
edge $-1 $335 -20.368735775443561 $336 -12.60629136949197 $246 $337 forward 7 unknown #
edge $-1 $338 1 $338 0 $161 $-1 forward 7 unknown #
vertex $-1 $162 $339 #
ellipse-curve $-1 -53.868917458643978 17.526363885901397 2.0790075042009493 -0.70710678939079041 0 0.70710677298230451 1.414213545964609 0 1.4142135787815808 1 I I #
point $-1 -55.573121030746492 17.526363885901397 6.6116381286864678 #
plane-surface $-1 60.868556779686884 0 0 -1 0 0 0 0 1 forward_v I I I I #
coedge $-1 $170 $168 $172 $257 reversed $103 $-1 #
edge $-1 $183 -9.0786468429448295 $259 9.0786468429448295 $182 $340 forward 7 unknown #
vertex $-1 $257 $341 #
straight-curve $-1 -60.868556779686884 -24.392005534919662 0 0 0 -1 I I #
edge $-1 $255 -24.392005534919662 $259 24.392005534919662 $253 $342 forward 7 unknown #
straight-curve $-1 0 -24.392005534919662 -9.0786468429448295 -1 0 0 I I #
vertex $-1 $175 $343 #
straight-curve $-1 0 24.392005534919662 -9.0786468429448295 1 0 0 I I #
point $-1 60.868556779686884 24.392005534919662 -9.0786468429448295 #
point $-1 60.868556779686884 -24.392005534919662 -9.0786468429448295 #
straight-curve $-1 -60.868556779686884 0 9.0786468429448295 0 -1 0 I I #
point $-1 -60.868556779686884 24.392005534919662 9.0786468429448295 #
point $-1 -60.868556779686884 -24.392005534919662 9.0786468429448295 #
straight-curve $-1 60.868556779686884 -24.392005534919662 0 0 0 -1 I I #
straight-curve $-1 60.868556779686884 24.392005534919662 0 0 0 -1 I I #
face $-1 $344 $345 $16 $-1 $346 reversed single #
loop $-1 $-1 $347 $192 #
plane-surface $-1 0 -24.392005534919662 0 0 1 0 0 0 1 forward_v I I I I #
coedge $-1 $348 $349 $272 $350 forward $193 $-1 #
coedge $-1 $195 $206 $271 $350 reversed $71 $-1 #
coedge $-1 $351 $197 $195 $274 forward $277 $-1 #
edge $-1 $199 -1.3162022568649574 $352 9.0786468429448295 $195 $353 forward 7 unknown #
edge $-1 $201 1.8975402939324333 $278 15.628823591968963 $203 $354 forward 7 unknown #
coedge $-1 $197 $355 $282 $356 reversed $277 $-1 #
loop $-1 $-1 $197 $344 #
vertex $-1 $356 $357 #
straight-curve $-1 2.9398997415221224 24.392005534919662 59.2448606392702 0.70710677298230462 0 -0.70710678939079052 I I #
point $-1 60.868556779686884 24.392005534919662 1.3162022568649574 #
point $-1 53.106112373735328 10.660722236883132 9.0786468429448348 #
coedge $-1 $358 $203 $276 $356 forward $122 $-1 #
coedge $-1 $204 $358 $359 $360 forward $122 $-1 #
coedge $-1 $359 $361 $206 $285 reversed $269 $-1 #
edge $-1 $286 -9.0786468429448295 $362 9.0786468429448295 $206 $363 forward 7 unknown #
vertex $-1 $207 $364 #
straight-curve $-1 60.868556779686884 0 9.0786468429448295 0 1 0 I I #
face $-1 $365 $366 $17 $-1 $367 reversed single #
loop $-1 $-1 $295 $210 #
plane-surface $-1 0 0 9.0786468429448295 0 0 1 1 0 0 forward_v I I I I #
coedge $-1 $216 $368 $292 $369 forward $211 $-1 #
coedge $-1 $370 $293 $291 $369 reversed $213 $-1 #
coedge $-1 $292 $371 $214 $294 reversed $213 $-1 #
edge $-1 $298 -121.73711355937381 $372 -110.75935927593999 $214 $373 forward 7 unknown #
coedge $-1 $374 $375 $215 $296 forward $289 $-1 #
edge $-1 $299 -30.434277391082588 $372 -22.671832985131033 $295 $376 forward 7 unknown #
coedge $-1 $377 $216 $375 $378 reversed $211 $-1 #
vertex $-1 $369 $379 #
vertex $-1 $296 $380 #
straight-curve $-1 60.868556779686884 10.660722236883132 86.739239648342462 0 0 1 I I #
vertex $-1 $218 $381 #
point $-1 55.283131004608585 17.526363885901397 0.66479392541937388 #
face $-1 $382 $383 $18 $-1 $384 forward single #
loop $-1 $385 $386 $222 #
cone-surface $-1 53.161810669253185 17.526363885901397 1.3719007312186502 -0.70710678939079041 0 -0.70710677298230451 0.70710677298230451 0 -0.70710678939079041 1 I I -0.70710678118654746 0.70710678118654746 1 forward I I I I #
loop $-1 $-1 $387 $143 #
coedge $-1 $307 $307 $388 $389 reversed $223 $-1 #
coedge $-1 $225 $390 $391 $392 forward $87 $-1 #
coedge $-1 $393 $227 $225 $310 reversed $313 $-1 #
edge $-1 $394 -53.106112373735328 $229 53.106112373735293 $309 $395 forward 7 unknown #
edge $-1 $231 1.8975402939324333 $314 15.628823591968963 $233 $396 forward 7 unknown #
coedge $-1 $227 $397 $318 $398 reversed $313 $-1 #
loop $-1 $-1 $227 $399 #
vertex $-1 $398 $400 #
straight-curve $-1 -45.98046850209667 24.392005534919662 16.204290879934753 0.70710677298230462 0 0.70710678939079052 I I #
point $-1 -53.106112373735293 24.392005534919662 9.0786468429448277 #
point $-1 -60.868556779686884 10.660722236883132 1.3162022568649121 #
coedge $-1 $401 $233 $312 $398 forward $144 $-1 #
coedge $-1 $234 $401 $402 $403 reversed $144 $-1 #
coedge $-1 $390 $236 $404 $405 forward $87 $-1 #
coedge $-1 $402 $406 $236 $322 reversed $407 $-1 #
edge $-1 $323 -60.868556779686884 $408 60.868556779686884 $321 $409 forward 7 unknown #
vertex $-1 $237 $410 #
straight-curve $-1 -60.868556779686884 0 9.0786468429448295 0 -1 0 I I #
face $-1 $411 $412 $19 $-1 $413 reversed single #
loop $-1 $-1 $332 $240 #
plane-surface $-1 -60.868556779686884 0 0 1 0 0 0 0 -1 forward_v I I I I #
coedge $-1 $246 $414 $329 $415 forward $241 $-1 #
coedge $-1 $416 $330 $328 $415 reversed $243 $-1 #
coedge $-1 $329 $417 $244 $331 reversed $243 $-1 #
edge $-1 $335 -10.977754283433848 $418 2.0097183471152325e-014 $244 $419 forward 7 unknown #
coedge $-1 $420 $421 $245 $333 forward $326 $-1 #
edge $-1 $336 34.620023046062201 $418 42.382467632142117 $332 $422 forward 7 unknown #
coedge $-1 $423 $246 $421 $424 forward $241 $-1 #
vertex $-1 $415 $425 #
vertex $-1 $424 $426 #
straight-curve $-1 -73.474848149178854 10.660722236883132 9.0786468429448277 -1 0 0 I I #
vertex $-1 $248 $427 #
point $-1 -52.454703912679363 17.526363885901397 3.4932210829825303 #
straight-curve $-1 -60.868556779686884 24.392005534919662 0 0 0 -1 I I #
point $-1 -60.868556779686884 -24.392005534919662 -9.0786468429448295 #
straight-curve $-1 -60.868556779686884 0 -9.0786468429448295 0 1 0 I I #
point $-1 -60.868556779686884 24.392005534919662 -9.0786468429448295 #
face $-1 $-1 $277 $16 $-1 $428 reversed single #
loop $-1 $-1 $429 $268 #
plane-surface $-1 -60.868556779686884 0 0 1 0 0 0 0 -1 forward_v I I I I #
coedge $-1 $361 $359 $430 $431 forward $269 $-1 #
coedge $-1 $432 $271 $361 $433 forward $193 $-1 #
coedge $-1 $271 $432 $351 $434 forward $193 $-1 #
edge $-1 $352 -24.392005534919662 $362 24.392005534919662 $272 $435 forward 7 unknown #
coedge $-1 $355 $273 $349 $434 reversed $277 $-1 #
vertex $-1 $350 $436 #
straight-curve $-1 60.868556779686884 24.392005534919662 0 0 0 -1 I I #
straight-curve $-1 53.106112373735343 8.7631819429506983 9.0786468429448135 0 1 0 I I #
coedge $-1 $276 $351 $429 $437 reversed $277 $-1 #
edge $-1 $278 -53.106112373735328 $438 60.868556779686884 $276 $439 forward 7 unknown #
point $-1 53.106112373735328 24.392005534919662 9.0786468429448348 #
coedge $-1 $283 $282 $440 $441 forward $122 $-1 #
coedge $-1 $347 $284 $283 $360 reversed $269 $-1 #
edge $-1 $442 -60.868556779686884 $286 60.868556779686884 $359 $443 forward 7 unknown #
coedge $-1 $284 $347 $348 $433 reversed $269 $-1 #
vertex $-1 $285 $444 #
straight-curve $-1 60.868556779686884 -24.392005534919662 0 0 0 -1 I I #
point $-1 60.868556779686884 -24.392005534919662 9.0786468429448295 #
face $-1 $445 $446 $17 $-1 $447 reversed single #
loop $-1 $-1 $448 $288 #
plane-surface $-1 0 0 -9.0786468429448295 0 0 1 1 0 0 forward_v I I I I #
coedge $-1 $291 $449 $450 $451 reversed $211 $-1 #
edge $-1 $452 -15.628823591968963 $298 -1.8975402939324333 $291 $453 forward 7 unknown #
coedge $-1 $371 $292 $454 $455 reversed $213 $-1 #
coedge $-1 $293 $370 $374 $456 reversed $213 $-1 #
vertex $-1 $456 $457 #
straight-curve $-1 -25.212580741462247 10.660722236883132 87.397341775535793 -0.70710677298230451 0 0.70710678939079041 I I #
coedge $-1 $458 $295 $371 $456 forward $289 $-1 #
coedge $-1 $295 $459 $297 $378 forward $289 $-1 #
straight-curve $-1 30.434279388604295 10.660722236883132 9.0786468429448348 -1 0 0 I I #
coedge $-1 $449 $297 $460 $461 forward $211 $-1 #
edge $-1 $462 -24.392005534919662 $299 10.660722236883132 $297 $463 forward 7 unknown #
point $-1 60.868556779686884 10.660722236883132 1.3162022568649405 #
point $-1 60.868556779686884 10.660722236883132 9.0786468429448295 #
point $-1 52.454703879862393 17.526363885901397 0.66479395823634568 #
face $-1 $464 $465 $18 $-1 $466 forward single #
loop $-1 $-1 $467 $303 #
plane-surface $-1 60.868558777208591 10.660722236883132 173.47847929668492 0 1 0 0.70710678939079041 0 0.70710677298230451 forward_v I I I I #
loop $-1 $-1 $468 $222 #
coedge $-1 $386 $386 $387 $469 forward $304 $-1 #
coedge $-1 $387 $387 $386 $469 reversed $306 $-1 #
coedge $-1 $388 $388 $307 $389 forward $465 $-1 #
edge $-1 $470 0 $470 6.2831853071796004 $388 $471 forward 7 unknown #
coedge $-1 $308 $320 $472 $473 forward $87 $-1 #
coedge $-1 $474 $475 $308 $392 reversed $476 $-1 #
edge $-1 $477 1.8975402939324333 $394 15.628823591968963 $308 $478 forward 7 unknown #
coedge $-1 $479 $309 $475 $480 forward $313 $-1 #
vertex $-1 $310 $481 #
straight-curve $-1 0 24.392005534919662 9.0786468429448295 -1 0 0 I I #
straight-curve $-1 -60.868556779686884 8.7631819429506983 1.3162022568649085 0 1 0 I I #
coedge $-1 $312 $479 $482 $483 reversed $313 $-1 #
edge $-1 $314 -1.3162022568649121 $484 9.0786468429448295 $312 $485 forward 7 unknown #
face $-1 $-1 $313 $18 $-1 $486 reversed single #
point $-1 -60.868556779686884 24.392005534919662 1.3162022568649121 #
coedge $-1 $319 $318 $487 $488 reversed $144 $-1 #
coedge $-1 $489 $321 $319 $403 forward $407 $-1 #
edge $-1 $323 -9.0786468429448295 $490 9.0786468429448295 $319 $491 forward 7 unknown #
coedge $-1 $492 $493 $320 $405 reversed $494 $-1 #
edge $-1 $408 -24.392005534919662 $495 10.660722236883132 $404 $496 forward 7 unknown #
coedge $-1 $321 $489 $492 $497 reversed $407 $-1 #
loop $-1 $-1 $402 $498 #
vertex $-1 $405 $499 #
straight-curve $-1 0 -24.392005534919662 9.0786468429448295 1 0 0 I I #
point $-1 -60.868556779686884 -24.392005534919662 9.0786468429448295 #
face $-1 $500 $501 $19 $-1 $502 reversed single #
loop $-1 $503 $504 $325 #
cone-surface $-1 55.428126017677542 17.526363885901397 3.6382160270529234 -0.70710678939079041 0 -0.70710677298230451 1.414213545964609 0 -1.4142135787815808 1 I I 0 1 2 forward I I I I #
coedge $-1 $328 $505 $506 $507 forward $241 $-1 #
edge $-1 $508 -15.628823591968963 $335 -1.8975402939324333 $328 $509 forward 7 unknown #
coedge $-1 $417 $329 $510 $511 reversed $243 $-1 #
coedge $-1 $330 $416 $420 $512 reversed $243 $-1 #
vertex $-1 $512 $513 #
straight-curve $-1 -60.86855677968687 10.660722236883132 1.3162022568649263 -0.70710677298230451 0 -0.70710678939079041 I I #
coedge $-1 $514 $332 $417 $512 forward $326 $-1 #
coedge $-1 $332 $515 $334 $424 reversed $326 $-1 #
straight-curve $-1 -60.868556779686884 10.660722236883132 43.698669889007029 0 0 -1 I I #
coedge $-1 $516 $334 $517 $518 forward $241 $-1 #
edge $-1 $336 -10.660722236883132 $519 24.392005534919662 $421 $520 forward 7 unknown #
point $-1 -53.106112373735293 10.660722236883132 9.0786468429448277 #
point $-1 -60.868556779686884 10.660722236883132 9.0786468429448295 #
point $-1 -52.454703879862393 17.526363885901397 0.66479395823634035 #
plane-surface $-1 0 24.392005534919662 0 0 -1 0 0 0 -1 forward_v I I I I #
coedge $-1 $521 $440 $355 $437 forward $345 $-1 #
coedge $-1 $440 $521 $347 $431 reversed $345 $-1 #
edge $-1 $442 -9.0786468429448295 $522 9.0786468429448295 $430 $523 forward 7 unknown #
coedge $-1 $349 $348 $521 $524 forward $193 $-1 #
edge $-1 $362 -60.868556779686884 $522 60.868556779686884 $361 $525 forward 7 unknown #
edge $-1 $526 -60.868556779686884 $352 60.868556779686884 $351 $527 forward 7 unknown #
straight-curve $-1 60.868556779686884 0 -9.0786468429448295 0 -1 0 I I #
point $-1 60.868556779686884 24.392005534919662 -9.0786468429448295 #
edge $-1 $438 -9.0786468429448295 $526 9.0786468429448295 $355 $528 forward 7 unknown #
vertex $-1 $356 $529 #
straight-curve $-1 0 24.392005534919662 9.0786468429448295 -1 0 0 I I #
coedge $-1 $429 $430 $358 $441 reversed $345 $-1 #
edge $-1 $438 -24.392005534919662 $442 24.392005534919662 $440 $530 forward 7 unknown #
vertex $-1 $441 $531 #
straight-curve $-1 0 -24.392005534919662 9.0786468429448295 1 0 0 I I #
point $-1 60.868556779686884 -24.392005534919662 -9.0786468429448295 #
face $-1 $532 $533 $17 $-1 $534 reversed single #
loop $-1 $-1 $535 $365 #
plane-surface $-1 0 -24.392005534919662 0 0 1 0 0 0 1 forward_v I I I I #
coedge $-1 $536 $537 $449 $538 forward $366 $-1 #
coedge $-1 $368 $377 $448 $538 reversed $211 $-1 #
coedge $-1 $539 $454 $368 $451 forward $540 $-1 #
edge $-1 $452 -1.3162022568649574 $541 9.0786468429448295 $368 $542 forward 7 unknown #
vertex $-1 $451 $543 #
straight-curve $-1 60.868556779686884 8.7631819429506983 1.3162022568649618 0 -1 0 I I #
coedge $-1 $450 $544 $370 $455 forward $540 $-1 #
edge $-1 $545 70.945739100520015 $452 81.923493383953826 $454 $546 forward 7 unknown #
edge $-1 $372 1.8975402939324333 $545 15.628823591968963 $374 $547 forward 7 unknown #
point $-1 53.106112373735328 10.660722236883132 9.0786468429448348 #
coedge $-1 $548 $374 $544 $549 forward $289 $-1 #
coedge $-1 $375 $548 $550 $551 forward $289 $-1 #
coedge $-1 $550 $552 $377 $461 reversed $446 $-1 #
edge $-1 $462 -9.0786468429448295 $553 9.0786468429448295 $377 $554 forward 7 unknown #
vertex $-1 $378 $555 #
straight-curve $-1 60.868556779686884 0 9.0786468429448295 0 1 0 I I #
face $-1 $556 $494 $18 $-1 $557 reversed single #
loop $-1 $476 $388 $382 #
plane-surface $-1 -25.212580741462247 17.526363885901397 87.397341775535793 0.70710678939079041 0 0.70710677298230451 0.70710677298230451 0 -0.70710678939079041 forward_v I I I I #
coedge $-1 $558 $472 $493 $559 reversed $383 $-1 #
coedge $-1 $468 $468 $-1 $560 forward $385 $-1 #
edge $-1 $561 0 $561 6.2831853071796004 $386 $562 forward 7 unknown #
vertex $-1 $389 $563 #
ellipse-curve $-1 56.987334576711106 17.526363885901397 5.197424549904893 -0.70710678939079041 0 -0.70710677298230451 1.414213545964609 0 -1.4142135787815808 1 I I #
coedge $-1 $467 $558 $390 $473 reversed $383 $-1 #
edge $-1 $495 -30.434277391082588 $477 -22.671832985131033 $390 $564 forward 7 unknown #
coedge $-1 $565 $391 $558 $566 reversed $476 $-1 #
coedge $-1 $391 $565 $393 $480 reversed $476 $-1 #
loop $-1 $-1 $565 $382 #
vertex $-1 $392 $567 #
straight-curve $-1 53.106112373735343 8.7631819429506983 9.0786468429448135 0 1 0 I I #
coedge $-1 $397 $393 $568 $569 forward $313 $-1 #
edge $-1 $394 70.945739100520015 $570 81.923493383953826 $393 $571 forward 7 unknown #
point $-1 53.106112373735328 24.392005534919662 9.0786468429448348 #
coedge $-1 $572 $487 $397 $483 forward $573 $-1 #
edge $-1 $484 -60.868556779686884 $574 60.868556779686884 $397 $575 forward 7 unknown #
vertex $-1 $483 $576 #
straight-curve $-1 -60.868556779686884 24.392005534919662 0 0 0 -1 I I #
plane-surface $-1 0 24.392005534919662 0 0 -1 0 0 0 -1 forward_v I I I I #
coedge $-1 $482 $577 $401 $488 forward $573 $-1 #
edge $-1 $490 -24.392005534919662 $484 24.392005534919662 $401 $578 forward 7 unknown #
coedge $-1 $406 $402 $577 $579 reversed $407 $-1 #
vertex $-1 $488 $580 #
straight-curve $-1 -60.868556779686884 -24.392005534919662 0 0 0 -1 I I #
coedge $-1 $581 $404 $406 $497 forward $494 $-1 #
coedge $-1 $404 $582 $467 $559 forward $494 $-1 #
loop $-1 $-1 $582 $464 #
vertex $-1 $473 $583 #
straight-curve $-1 60.868556779686884 0 9.0786468429448295 0 1 0 I I #
edge $-1 $408 -9.0786468429448295 $584 9.0786468429448295 $492 $585 forward 7 unknown #
face $-1 $399 $407 $18 $-1 $586 reversed single #
point $-1 60.868556779686884 -24.392005534919662 9.0786468429448295 #
face $-1 $587 $588 $19 $-1 $589 forward single #
loop $-1 $590 $591 $411 #
cone-surface $-1 53.161810669253185 17.526363885901397 1.3719007312186502 -0.70710678939079041 0 -0.70710677298230451 0.70710677298230451 0 -0.70710678939079041 1 I I -0.70710678118654746 0.70710678118654746 1 forward I I I I #
loop $-1 $-1 $592 $325 #
coedge $-1 $504 $504 $593 $594 reversed $412 $-1 #
coedge $-1 $414 $595 $596 $597 forward $241 $-1 #
coedge $-1 $598 $510 $414 $507 reversed $599 $-1 #
edge $-1 $600 -53.106112373735328 $508 53.106112373735293 $506 $601 forward 7 unknown #
vertex $-1 $511 $602 #
straight-curve $-1 -53.106112373735293 8.7631819429506983 9.0786468429448295 0 -1 0 I I #
coedge $-1 $506 $603 $416 $511 forward $599 $-1 #
edge $-1 $604 -21.054936604266963 $508 -10.077182320833099 $510 $605 forward 7 unknown #
edge $-1 $418 1.8975402939324333 $604 15.628823591968963 $420 $606 forward 7 unknown #
point $-1 -60.868556779686884 10.660722236883132 1.3162022568649121 #
coedge $-1 $607 $420 $603 $608 forward $326 $-1 #
coedge $-1 $421 $607 $609 $610 reversed $326 $-1 #
coedge $-1 $595 $423 $611 $612 forward $241 $-1 #
coedge $-1 $609 $613 $423 $518 reversed $614 $-1 #
edge $-1 $519 -60.868556779686884 $615 60.868556779686884 $517 $616 forward 7 unknown #
vertex $-1 $424 $617 #
straight-curve $-1 -60.868556779686884 0 9.0786468429448295 0 -1 0 I I #
coedge $-1 $430 $429 $432 $524 reversed $345 $-1 #
vertex $-1 $524 $618 #
straight-curve $-1 -60.868556779686884 -24.392005534919662 0 0 0 -1 I I #
edge $-1 $522 -24.392005534919662 $526 24.392005534919662 $521 $619 forward 7 unknown #
straight-curve $-1 0 -24.392005534919662 -9.0786468429448295 -1 0 0 I I #
vertex $-1 $434 $620 #
straight-curve $-1 0 24.392005534919662 -9.0786468429448295 1 0 0 I I #
straight-curve $-1 -60.868556779686884 24.392005534919662 0 0 0 -1 I I #
point $-1 -60.868556779686884 24.392005534919662 9.0786468429448295 #
straight-curve $-1 -60.868556779686884 0 9.0786468429448295 0 -1 0 I I #
point $-1 -60.868556779686884 -24.392005534919662 9.0786468429448295 #
face $-1 $-1 $540 $17 $-1 $621 reversed single #
loop $-1 $-1 $622 $445 #
plane-surface $-1 -60.868556779686884 0 0 1 0 0 0 0 -1 forward_v I I I I #
coedge $-1 $552 $550 $623 $624 forward $446 $-1 #
coedge $-1 $625 $448 $552 $626 forward $366 $-1 #
coedge $-1 $448 $625 $539 $627 forward $366 $-1 #
edge $-1 $541 -24.392005534919662 $553 24.392005534919662 $449 $628 forward 7 unknown #
coedge $-1 $629 $450 $537 $627 reversed $540 $-1 #
loop $-1 $-1 $454 $532 #
vertex $-1 $538 $630 #
straight-curve $-1 60.868556779686884 24.392005534919662 0 0 0 -1 I I #
point $-1 60.868556779686884 24.392005534919662 1.3162022568649574 #
coedge $-1 $454 $629 $458 $549 reversed $540 $-1 #
vertex $-1 $549 $631 #
straight-curve $-1 2.9398997415221224 24.392005534919662 59.2448606392702 0.70710677298230462 0 -0.70710678939079052 I I #
straight-curve $-1 53.106112373735343 8.7631819429506983 9.0786468429448135 0 1 0 I I #
coedge $-1 $459 $458 $632 $633 forward $289 $-1 #
edge $-1 $545 -53.106112373735328 $634 60.868556779686884 $544 $635 forward 7 unknown #
coedge $-1 $535 $460 $459 $551 reversed $446 $-1 #
edge $-1 $636 -60.868556779686884 $462 60.868556779686884 $550 $637 forward 7 unknown #
coedge $-1 $460 $535 $536 $626 reversed $446 $-1 #
vertex $-1 $461 $638 #
straight-curve $-1 60.868556779686884 -24.392005534919662 0 0 0 -1 I I #
point $-1 60.868556779686884 -24.392005534919662 9.0786468429448295 #
face $-1 $498 $573 $18 $-1 $639 reversed single #
plane-surface $-1 60.868556779686884 0 0 -1 0 0 0 0 1 forward_v I I I I #
coedge $-1 $472 $467 $474 $566 forward $383 $-1 #
edge $-1 $640 -85.423037391477521 $495 -77.660592805397627 $493 $641 forward 7 unknown #
edge $-1 $642 1 $642 0 $468 $-1 forward 7 unknown #
vertex $-1 $469 $643 #
ellipse-curve $-1 53.868917458643978 17.526363885901397 2.0790075042009546 0.70710678939079041 0 0.70710677298230451 1.414213545964609 0 -1.4142135787815808 1 I I #
point $-1 58.401548122675713 17.526363885901397 3.7832109711233111 #
straight-curve $-1 30.434279388604295 10.660722236883132 9.0786468429448348 -1 0 0 I I #
coedge $-1 $475 $474 $582 $644 reversed $476 $-1 #
edge $-1 $640 -121.73711355937381 $477 -110.75935927593999 $558 $645 forward 7 unknown #
point $-1 53.106112373735328 10.660722236883132 9.0786468429448348 #
coedge $-1 $582 $581 $479 $569 reversed $494 $-1 #
edge $-1 $570 -1.3162022568649574 $574 9.0786468429448295 $568 $646 forward 7 unknown #
vertex $-1 $569 $647 #
straight-curve $-1 2.9398997415221224 24.392005534919662 59.2448606392702 0.70710677298230462 0 -0.70710678939079052 I I #
coedge $-1 $577 $482 $581 $648 forward $573 $-1 #
loop $-1 $-1 $572 $556 #
vertex $-1 $648 $649 #
straight-curve $-1 0 24.392005534919662 -9.0786468429448295 1 0 0 I I #
point $-1 -60.868556779686884 24.392005534919662 -9.0786468429448295 #
coedge $-1 $487 $572 $489 $579 forward $573 $-1 #
straight-curve $-1 -60.868556779686884 0 -9.0786468429448295 0 1 0 I I #
edge $-1 $584 -60.868556779686884 $490 60.868556779686884 $489 $650 forward 7 unknown #
point $-1 -60.868556779686884 -24.392005534919662 -9.0786468429448295 #
coedge $-1 $568 $492 $572 $648 reversed $494 $-1 #
coedge $-1 $493 $568 $565 $644 forward $494 $-1 #
point $-1 60.868556779686884 10.660722236883132 9.0786468429448295 #
vertex $-1 $497 $651 #
straight-curve $-1 60.868556779686884 -24.392005534919662 0 0 0 -1 I I #
plane-surface $-1 0 -24.392005534919662 0 0 1 0 0 0 1 forward_v I I I I #
face $-1 $652 $653 $19 $-1 $654 forward single #
loop $-1 $-1 $655 $500 #
plane-surface $-1 60.868558777208591 10.660722236883132 173.47847929668492 0 1 0 0.70710678939079041 0 0.70710677298230451 forward_v I I I I #
loop $-1 $-1 $656 $411 #
coedge $-1 $591 $591 $592 $657 forward $501 $-1 #
coedge $-1 $592 $592 $591 $657 reversed $503 $-1 #
coedge $-1 $593 $593 $504 $594 forward $653 $-1 #
edge $-1 $658 0 $658 6.2831853071796004 $593 $659 forward 7 unknown #
coedge $-1 $505 $516 $660 $661 forward $241 $-1 #
coedge $-1 $662 $663 $505 $597 reversed $664 $-1 #
edge $-1 $665 1.8975402939324333 $600 15.628823591968963 $505 $666 forward 7 unknown #
coedge $-1 $667 $506 $663 $668 forward $599 $-1 #
loop $-1 $-1 $510 $669 #
vertex $-1 $507 $670 #
straight-curve $-1 0 24.392005534919662 9.0786468429448295 -1 0 0 I I #
point $-1 -53.106112373735293 24.392005534919662 9.0786468429448277 #
coedge $-1 $510 $671 $514 $608 reversed $599 $-1 #
vertex $-1 $608 $672 #
straight-curve $-1 -45.98046850209667 24.392005534919662 16.204290879934753 0.70710677298230462 0 0.70710678939079052 I I #
straight-curve $-1 -60.868556779686884 8.7631819429506983 1.3162022568649085 0 1 0 I I #
coedge $-1 $515 $514 $673 $674 reversed $326 $-1 #
edge $-1 $604 -1.3162022568649121 $675 9.0786468429448295 $603 $676 forward 7 unknown #
coedge $-1 $677 $517 $515 $610 forward $614 $-1 #
edge $-1 $519 -9.0786468429448295 $678 9.0786468429448295 $515 $679 forward 7 unknown #
coedge $-1 $680 $681 $516 $612 reversed $682 $-1 #
edge $-1 $615 -24.392005534919662 $683 10.660722236883132 $611 $684 forward 7 unknown #
coedge $-1 $517 $677 $680 $685 reversed $614 $-1 #
loop $-1 $-1 $609 $686 #
vertex $-1 $612 $687 #
straight-curve $-1 0 -24.392005534919662 9.0786468429448295 1 0 0 I I #
point $-1 -60.868556779686884 -24.392005534919662 9.0786468429448295 #
point $-1 -60.868556779686884 -24.392005534919662 -9.0786468429448295 #
straight-curve $-1 -60.868556779686884 0 -9.0786468429448295 0 1 0 I I #
point $-1 -60.868556779686884 24.392005534919662 -9.0786468429448295 #
plane-surface $-1 0 24.392005534919662 0 0 -1 0 0 0 -1 forward_v I I I I #
coedge $-1 $688 $632 $629 $689 forward $533 $-1 #
coedge $-1 $632 $688 $535 $624 reversed $533 $-1 #
edge $-1 $636 -9.0786468429448295 $690 9.0786468429448295 $623 $691 forward 7 unknown #
coedge $-1 $537 $536 $688 $692 forward $366 $-1 #
edge $-1 $553 -60.868556779686884 $690 60.868556779686884 $552 $693 forward 7 unknown #
edge $-1 $694 -60.868556779686884 $541 60.868556779686884 $539 $695 forward 7 unknown #
straight-curve $-1 60.868556779686884 0 -9.0786468429448295 0 -1 0 I I #
coedge $-1 $544 $539 $622 $689 reversed $540 $-1 #
point $-1 60.868556779686884 24.392005534919662 -9.0786468429448295 #
point $-1 53.106112373735328 24.392005534919662 9.0786468429448348 #
coedge $-1 $622 $623 $548 $633 reversed $533 $-1 #
edge $-1 $634 -24.392005534919662 $636 24.392005534919662 $632 $696 forward 7 unknown #
vertex $-1 $549 $697 #
straight-curve $-1 0 24.392005534919662 9.0786468429448295 -1 0 0 I I #
vertex $-1 $633 $698 #
straight-curve $-1 0 -24.392005534919662 9.0786468429448295 1 0 0 I I #
point $-1 60.868556779686884 -24.392005534919662 -9.0786468429448295 #
plane-surface $-1 0 0 -9.0786468429448295 0 0 1 1 0 0 forward_v I I I I #
vertex $-1 $644 $699 #
straight-curve $-1 60.868556779686884 10.660722236883132 86.739239648342462 0 0 1 I I #
vertex $-1 $560 $700 #
point $-1 55.283131004608585 17.526363885901397 0.66479392541937388 #
edge $-1 $570 -15.628823591968963 $640 -1.8975402939324333 $582 $701 forward 7 unknown #
straight-curve $-1 -25.212580741462247 10.660722236883132 87.397341775535793 -0.70710677298230451 0 0.70710678939079041 I I #
straight-curve $-1 60.868556779686884 24.392005534919662 0 0 0 -1 I I #
point $-1 60.868556779686884 24.392005534919662 1.3162022568649574 #
edge $-1 $574 -24.392005534919662 $584 24.392005534919662 $581 $702 forward 7 unknown #
point $-1 60.868556779686884 24.392005534919662 -9.0786468429448295 #
straight-curve $-1 0 -24.392005534919662 -9.0786468429448295 -1 0 0 I I #
point $-1 60.868556779686884 -24.392005534919662 -9.0786468429448295 #
face $-1 $703 $682 $19 $-1 $704 reversed single #
loop $-1 $664 $593 $587 #
plane-surface $-1 -25.212580741462247 17.526363885901397 87.397341775535793 0.70710678939079041 0 0.70710677298230451 0.70710677298230451 0 -0.70710678939079041 forward_v I I I I #
coedge $-1 $705 $660 $681 $706 reversed $588 $-1 #
coedge $-1 $656 $656 $-1 $707 forward $590 $-1 #
edge $-1 $708 0 $708 6.2831853071796004 $591 $709 forward 7 unknown #
vertex $-1 $594 $710 #
ellipse-curve $-1 56.987334576711106 17.526363885901397 5.197424549904893 -0.70710678939079041 0 -0.70710677298230451 1.414213545964609 0 -1.4142135787815808 1 I I #
coedge $-1 $655 $705 $595 $661 reversed $588 $-1 #
edge $-1 $683 -30.434277391082588 $665 -22.671832985131033 $595 $711 forward 7 unknown #
coedge $-1 $712 $596 $705 $713 reversed $664 $-1 #
coedge $-1 $596 $712 $598 $668 reversed $664 $-1 #
loop $-1 $-1 $712 $587 #
vertex $-1 $597 $714 #
straight-curve $-1 53.106112373735343 8.7631819429506983 9.0786468429448135 0 1 0 I I #
coedge $-1 $671 $598 $715 $716 forward $599 $-1 #
edge $-1 $600 70.945739100520015 $717 81.923493383953826 $598 $718 forward 7 unknown #
face $-1 $-1 $599 $19 $-1 $719 reversed single #
point $-1 53.106112373735328 24.392005534919662 9.0786468429448348 #
coedge $-1 $603 $667 $720 $721 reversed $599 $-1 #
point $-1 -60.868556779686884 24.392005534919662 1.3162022568649121 #
coedge $-1 $720 $722 $607 $674 forward $723 $-1 #
edge $-1 $678 -24.392005534919662 $675 24.392005534919662 $607 $724 forward 7 unknown #
vertex $-1 $721 $725 #
straight-curve $-1 -60.868556779686884 24.392005534919662 0 0 0 -1 I I #
coedge $-1 $613 $609 $722 $726 reversed $614 $-1 #
vertex $-1 $674 $727 #
straight-curve $-1 -60.868556779686884 -24.392005534919662 0 0 0 -1 I I #
coedge $-1 $728 $611 $613 $685 forward $682 $-1 #
coedge $-1 $611 $729 $655 $706 forward $682 $-1 #
loop $-1 $-1 $729 $652 #
vertex $-1 $661 $730 #
straight-curve $-1 60.868556779686884 0 9.0786468429448295 0 1 0 I I #
edge $-1 $615 -9.0786468429448295 $731 9.0786468429448295 $680 $732 forward 7 unknown #
face $-1 $669 $614 $19 $-1 $733 reversed single #
point $-1 60.868556779686884 -24.392005534919662 9.0786468429448295 #
coedge $-1 $623 $622 $625 $692 reversed $533 $-1 #
edge $-1 $634 -9.0786468429448295 $694 9.0786468429448295 $629 $734 forward 7 unknown #
vertex $-1 $692 $735 #
straight-curve $-1 -60.868556779686884 -24.392005534919662 0 0 0 -1 I I #
edge $-1 $690 -24.392005534919662 $694 24.392005534919662 $688 $736 forward 7 unknown #
straight-curve $-1 0 -24.392005534919662 -9.0786468429448295 -1 0 0 I I #
vertex $-1 $627 $737 #
straight-curve $-1 0 24.392005534919662 -9.0786468429448295 1 0 0 I I #
straight-curve $-1 -60.868556779686884 0 9.0786468429448295 0 -1 0 I I #
point $-1 -60.868556779686884 24.392005534919662 9.0786468429448295 #
point $-1 -60.868556779686884 -24.392005534919662 9.0786468429448295 #
point $-1 60.868556779686884 10.660722236883132 1.3162022568649405 #
point $-1 52.454703879862393 17.526363885901397 0.66479395823634568 #
straight-curve $-1 60.868556779686884 8.7631819429506983 1.3162022568649618 0 -1 0 I I #
straight-curve $-1 60.868556779686884 0 -9.0786468429448295 0 -1 0 I I #
face $-1 $686 $723 $19 $-1 $738 reversed single #
plane-surface $-1 60.868556779686884 0 0 -1 0 0 0 0 1 forward_v I I I I #
coedge $-1 $660 $655 $662 $713 forward $588 $-1 #
edge $-1 $739 -85.423037391477521 $683 -77.660592805397627 $681 $740 forward 7 unknown #
edge $-1 $741 1 $741 0 $656 $-1 forward 7 unknown #
vertex $-1 $657 $742 #
ellipse-curve $-1 53.868917458643978 17.526363885901397 2.0790075042009546 0.70710678939079041 0 0.70710677298230451 1.414213545964609 0 -1.4142135787815808 1 I I #
point $-1 58.401548122675713 17.526363885901397 3.7832109711233111 #
straight-curve $-1 30.434279388604295 10.660722236883132 9.0786468429448348 -1 0 0 I I #
coedge $-1 $663 $662 $729 $743 reversed $664 $-1 #
edge $-1 $739 -121.73711355937381 $665 -110.75935927593999 $705 $744 forward 7 unknown #
point $-1 53.106112373735328 10.660722236883132 9.0786468429448348 #
coedge $-1 $729 $728 $667 $716 reversed $682 $-1 #
edge $-1 $717 -1.3162022568649574 $745 9.0786468429448295 $715 $746 forward 7 unknown #
vertex $-1 $716 $747 #
straight-curve $-1 2.9398997415221224 24.392005534919662 59.2448606392702 0.70710677298230462 0 -0.70710678939079052 I I #
plane-surface $-1 0 24.392005534919662 0 0 -1 0 0 0 -1 forward_v I I I I #
coedge $-1 $748 $673 $671 $721 forward $723 $-1 #
edge $-1 $675 -60.868556779686884 $745 60.868556779686884 $671 $749 forward 7 unknown #
coedge $-1 $673 $748 $677 $726 forward $723 $-1 #
loop $-1 $-1 $748 $703 #
straight-curve $-1 -60.868556779686884 0 -9.0786468429448295 0 1 0 I I #
point $-1 -60.868556779686884 24.392005534919662 -9.0786468429448295 #
edge $-1 $731 -60.868556779686884 $678 60.868556779686884 $677 $750 forward 7 unknown #
point $-1 -60.868556779686884 -24.392005534919662 -9.0786468429448295 #
coedge $-1 $715 $680 $748 $751 reversed $682 $-1 #
coedge $-1 $681 $715 $712 $743 forward $682 $-1 #
point $-1 60.868556779686884 10.660722236883132 9.0786468429448295 #
vertex $-1 $685 $752 #
straight-curve $-1 60.868556779686884 -24.392005534919662 0 0 0 -1 I I #
plane-surface $-1 0 -24.392005534919662 0 0 1 0 0 0 1 forward_v I I I I #
straight-curve $-1 -60.868556779686884 24.392005534919662 0 0 0 -1 I I #
point $-1 -60.868556779686884 -24.392005534919662 -9.0786468429448295 #
straight-curve $-1 -60.868556779686884 0 -9.0786468429448295 0 1 0 I I #
point $-1 -60.868556779686884 24.392005534919662 -9.0786468429448295 #
plane-surface $-1 0 0 -9.0786468429448295 0 0 1 1 0 0 forward_v I I I I #
vertex $-1 $743 $753 #
straight-curve $-1 60.868556779686884 10.660722236883132 86.739239648342462 0 0 1 I I #
vertex $-1 $707 $754 #
point $-1 55.283131004608585 17.526363885901397 0.66479392541937388 #
edge $-1 $717 -15.628823591968963 $739 -1.8975402939324333 $729 $755 forward 7 unknown #
straight-curve $-1 -25.212580741462247 10.660722236883132 87.397341775535793 -0.70710677298230451 0 0.70710678939079041 I I #
vertex $-1 $751 $756 #
straight-curve $-1 60.868556779686884 24.392005534919662 0 0 0 -1 I I #
point $-1 60.868556779686884 24.392005534919662 1.3162022568649574 #
coedge $-1 $722 $720 $728 $751 forward $723 $-1 #
straight-curve $-1 0 24.392005534919662 -9.0786468429448295 1 0 0 I I #
straight-curve $-1 0 -24.392005534919662 -9.0786468429448295 -1 0 0 I I #
edge $-1 $745 -24.392005534919662 $731 24.392005534919662 $728 $757 forward 7 unknown #
point $-1 60.868556779686884 -24.392005534919662 -9.0786468429448295 #
point $-1 60.868556779686884 10.660722236883132 1.3162022568649405 #
point $-1 52.454703879862393 17.526363885901397 0.66479395823634568 #
straight-curve $-1 60.868556779686884 8.7631819429506983 1.3162022568649618 0 -1 0 I I #
point $-1 60.868556779686884 24.392005534919662 -9.0786468429448295 #
straight-curve $-1 60.868556779686884 0 -9.0786468429448295 0 -1 0 I I #
End-of-ACIS-data 