500 0 16 0           
7 Unknown 11 ACIS 5.0 NT 24 Thu Mar 25 21:41:34 1999 
-1 9.9999999999999995e-007 1e-010 
body $-1 $16 $-1 $17 #
body $-1 $18 $-1 $19 #
body $-1 $20 $-1 $21 #
body $-1 $22 $-1 $23 #
body $-1 $24 $-1 $25 #
body $-1 $26 $-1 $27 #
body $-1 $28 $-1 $29 #
body $-1 $30 $-1 $31 #
body $-1 $32 $-1 $33 #
body $-1 $34 $-1 $35 #
body $-1 $36 $-1 $37 #
body $-1 $38 $-1 $39 #
body $-1 $40 $-1 $41 #
body $-1 $42 $-1 $43 #
body $-1 $44 $-1 $45 #
body $-1 $46 $-1 $47 #
lump $-1 $-1 $48 $0 #
transform $-1 1 0 0 0 1 0 0 0 1 67.569200720236822 40.419237232498851 17.062624444443919 1 rotate no_reflect no_shear #
lump $-1 $-1 $49 $1 #
transform $-1 1 0 0 0 1 0 0 0 1 67.569200720236822 40.419237232498851 17.062624444443919 1 rotate no_reflect no_shear #
lump $-1 $-1 $50 $2 #
transform $-1 1 0 0 0 1 0 0 0 1 67.569200720236822 40.419237232498851 17.062624444443919 1 rotate no_reflect no_shear #
lump $-1 $-1 $51 $3 #
transform $-1 1 0 0 0 1 0 0 0 1 67.569200720236822 40.419237232498851 17.062624444443919 1 rotate no_reflect no_shear #
lump $-1 $-1 $52 $4 #
transform $-1 1 0 0 0 1 0 0 0 1 67.569200720236822 40.419237232498851 17.062624444443919 1 rotate no_reflect no_shear #
lump $-1 $-1 $53 $5 #
transform $-1 1 0 0 0 1 0 0 0 1 67.569200720236822 40.419237232498851 17.062624444443919 1 rotate no_reflect no_shear #
lump $-1 $-1 $54 $6 #
transform $-1 1 0 0 0 1 0 0 0 1 67.569200720236822 40.419237232498851 17.062624444443919 1 rotate no_reflect no_shear #
lump $-1 $-1 $55 $7 #
transform $-1 1 0 0 0 1 0 0 0 1 67.569200720236822 40.419237232498851 17.062624444443919 1 rotate no_reflect no_shear #
lump $-1 $-1 $56 $8 #
transform $-1 1 0 0 0 1 0 0 0 1 67.569200720236822 40.419237232498851 17.062624444443919 1 rotate no_reflect no_shear #
lump $-1 $-1 $57 $9 #
transform $-1 1 0 0 0 1 0 0 0 1 67.569200720236822 40.419237232498851 17.062624444443919 1 rotate no_reflect no_shear #
lump $-1 $-1 $58 $10 #
transform $-1 1 0 0 0 1 0 0 0 1 67.569200720236822 40.419237232498851 17.062624444443919 1 rotate no_reflect no_shear #
lump $-1 $-1 $59 $11 #
transform $-1 1 0 0 0 1 0 0 0 1 67.569200720236822 40.419237232498851 17.062624444443919 1 rotate no_reflect no_shear #
lump $-1 $-1 $60 $12 #
transform $-1 1 0 0 0 1 0 0 0 1 67.569200720236822 40.419237232498851 17.062624444443919 1 rotate no_reflect no_shear #
lump $-1 $-1 $61 $13 #
transform $-1 1 0 0 0 1 0 0 0 1 67.569200720236822 40.419237232498851 17.062624444443919 1 rotate no_reflect no_shear #
lump $-1 $-1 $62 $14 #
transform $-1 1 0 0 0 1 0 0 0 1 67.569200720236822 40.419237232498851 17.062624444443919 1 rotate no_reflect no_shear #
lump $-1 $-1 $63 $15 #
transform $-1 1 0 0 0 1 0 0 0 1 67.569200720236822 40.419237232498851 17.062624444443919 1 rotate no_reflect no_shear #
shell $-1 $-1 $-1 $64 $-1 $16 #
shell $-1 $-1 $-1 $65 $-1 $18 #
shell $-1 $-1 $-1 $66 $-1 $20 #
shell $-1 $-1 $-1 $67 $-1 $22 #
shell $-1 $-1 $-1 $68 $-1 $24 #
shell $-1 $-1 $-1 $69 $-1 $26 #
shell $-1 $-1 $-1 $70 $-1 $28 #
shell $-1 $-1 $-1 $71 $-1 $30 #
shell $-1 $-1 $-1 $72 $-1 $32 #
shell $-1 $-1 $-1 $73 $-1 $34 #
shell $-1 $-1 $-1 $74 $-1 $36 #
shell $-1 $-1 $-1 $75 $-1 $38 #
shell $-1 $-1 $-1 $76 $-1 $40 #
shell $-1 $-1 $-1 $77 $-1 $42 #
shell $-1 $-1 $-1 $78 $-1 $44 #
shell $-1 $-1 $-1 $79 $-1 $46 #
face $-1 $80 $81 $48 $-1 $82 forward single #
face $-1 $83 $84 $49 $-1 $85 forward single #
face $-1 $86 $87 $50 $-1 $88 reversed single #
face $-1 $89 $90 $51 $-1 $91 forward single #
face $-1 $92 $93 $52 $-1 $94 forward single #
face $-1 $95 $96 $53 $-1 $97 reversed single #
face $-1 $98 $99 $54 $-1 $100 forward single #
face $-1 $101 $102 $55 $-1 $103 forward single #
face $-1 $104 $105 $56 $-1 $106 reversed single #
face $-1 $107 $108 $57 $-1 $109 forward single #
face $-1 $110 $111 $58 $-1 $112 forward single #
face $-1 $113 $114 $59 $-1 $115 reversed single #
face $-1 $116 $117 $60 $-1 $118 forward single #
face $-1 $119 $120 $61 $-1 $121 forward single #
face $-1 $122 $123 $62 $-1 $124 reversed single #
face $-1 $125 $126 $63 $-1 $127 forward single #
face $-1 $128 $129 $48 $-1 $130 reversed single #
loop $-1 $-1 $131 $64 #
plane-surface $-1 0 0 17.062624444443919 0 0 1 1 0 0 forward_v I I I I #
face $-1 $132 $133 $49 $-1 $134 reversed single #
loop $-1 $-1 $135 $65 #
plane-surface $-1 0 -30.980950733531685 -12.076465989128259 0 0 1 1 0 0 forward_v I I I I #
face $-1 $136 $137 $50 $-1 $138 reversed single #
loop $-1 $-1 $139 $66 #
plane-surface $-1 37.672298499413273 -10.75521740230816 191.89714150539146 0 -1 0 -0.5877852598018023 0 -0.80901698891910034 forward_v I I I I #
face $-1 $140 $141 $51 $-1 $142 forward single #
loop $-1 $143 $144 $67 #
cone-surface $-1 57.650200928322676 -15.534107630130581 9.6386833443090172 -0.5877852598018023 0 -0.80901698891910034 0.40450849445955017 0 -0.29389262990090115 1 I I 0 1 0.5 forward I I I I #
face $-1 $145 $146 $52 $-1 $147 forward single #
loop $-1 $148 $149 $68 #
cone-surface $-1 57.650200928322676 -12.666773493437127 9.6386833443090172 -0.5877852598018023 0 -0.80901698891910034 0.40450849445955017 0 -0.29389262990090115 1 I I 0 1 0.5 forward I I I I #
face $-1 $150 $151 $53 $-1 $152 reversed single #
loop $-1 $-1 $153 $69 #
plane-surface $-1 37.672298499413273 4.9372673048591853 191.89714150539146 0 -1 0 -0.5877852598018023 0 -0.80901698891910034 forward_v I I I I #
face $-1 $154 $155 $54 $-1 $156 forward single #
loop $-1 $157 $158 $70 #
cone-surface $-1 57.650200928322676 0.15837707703676784 9.6386833443090172 -0.5877852598018023 0 -0.80901698891910034 0.40450849445955017 0 -0.29389262990090115 1 I I 0 1 0.5 forward I I I I #
face $-1 $159 $160 $55 $-1 $161 forward single #
loop $-1 $162 $163 $71 #
cone-surface $-1 57.650200928322676 3.0257112137302187 9.6386833443090172 -0.5877852598018023 0 -0.80901698891910034 0.40450849445955017 0 -0.29389262990090115 1 I I 0 1 0.5 forward I I I I #
face $-1 $164 $165 $56 $-1 $166 reversed single #
loop $-1 $-1 $167 $72 #
plane-surface $-1 37.672298499413273 20.629752012026529 191.89714150539146 0 -1 0 -0.5877852598018023 0 -0.80901698891910034 forward_v I I I I #
face $-1 $168 $169 $57 $-1 $170 forward single #
loop $-1 $171 $172 $73 #
cone-surface $-1 57.650200928322676 15.850861784204113 9.6386833443090172 -0.5877852598018023 0 -0.80901698891910034 0.40450849445955017 0 -0.29389262990090115 1 I I 0 1 0.5 forward I I I I #
face $-1 $173 $174 $58 $-1 $175 forward single #
loop $-1 $176 $177 $74 #
cone-surface $-1 57.650200928322676 18.718195920897564 9.6386833443090172 -0.5877852598018023 0 -0.80901698891910034 0.40450849445955017 0 -0.29389262990090115 1 I I 0 1 0.5 forward I I I I #
face $-1 $178 $179 $59 $-1 $180 reversed single #
loop $-1 $-1 $181 $75 #
plane-surface $-1 37.672298499413273 36.322236719193874 191.89714150539146 0 -1 0 -0.5877852598018023 0 -0.80901698891910034 forward_v I I I I #
face $-1 $182 $183 $60 $-1 $184 forward single #
loop $-1 $185 $186 $76 #
cone-surface $-1 57.650200928322676 31.543346491371459 9.6386833443090172 -0.5877852598018023 0 -0.80901698891910034 0.40450849445955017 0 -0.29389262990090115 1 I I 0 1 0.5 forward I I I I #
face $-1 $187 $188 $61 $-1 $189 forward single #
loop $-1 $190 $191 $77 #
cone-surface $-1 57.650200928322676 34.410680628064917 9.6386833443090172 -0.5877852598018023 0 -0.80901698891910034 0.40450849445955017 0 -0.29389262990090115 1 I I 0 1 0.5 forward I I I I #
face $-1 $192 $193 $62 $-1 $194 reversed single #
loop $-1 $-1 $195 $78 #
plane-surface $-1 -171.09122331553672 27.204467616046962 94.089083822734921 0 1 0 -0.7660444514056185 0 0.64278759981090561 forward_v I I I I #
face $-1 $196 $197 $63 $-1 $198 forward single #
loop $-1 $199 $200 $79 #
cone-surface $-1 -60.548064461674898 33.811852424272907 9.715478680385413 0.7660444514056185 0 -0.64278759981090561 1.2855751996218112 0 1.532088902811237 1 I I 0 1 2 forward I I I I #
face $-1 $201 $202 $48 $-1 $203 reversed single #
loop $-1 $-1 $204 $80 #
plane-surface $-1 0 0 -17.062624444443919 0 0 1 1 0 0 forward_v I I I I #
coedge $-1 $205 $206 $207 $208 forward $81 $-1 #
face $-1 $209 $210 $49 $-1 $211 reversed single #
loop $-1 $-1 $212 $83 #
plane-surface $-1 0 -21.542664234564519 -14.569545216786089 0 -1 0 0 0 -1 forward_v I I I I #
coedge $-1 $213 $214 $215 $216 reversed $84 $-1 #
face $-1 $217 $218 $50 $-1 $219 reversed single #
loop $-1 $-1 $220 $86 #
plane-surface $-1 -41.760061900475776 -14.100440561783856 82.567878884678862 0.5877852598018023 0 0.80901698891910034 0.80901698891910034 0 -0.5877852598018023 forward_v I I I I #
coedge $-1 $221 $222 $223 $224 reversed $87 $-1 #
face $-1 $-1 $225 $51 $-1 $226 forward single #
loop $-1 $227 $228 $89 #
cone-surface $-1 57.168763058051042 -15.534107630130581 8.9760409767713938 -0.5877852598018023 0 -0.80901698891910034 0.20225424722977509 0 -0.14694631495045057 1 I I -0.70710678118654746 0.70710678118654746 0.25 forward I I I I #
loop $-1 $-1 $229 $67 #
coedge $-1 $144 $144 $230 $231 reversed $90 $-1 #
face $-1 $-1 $232 $52 $-1 $233 forward single #
loop $-1 $234 $235 $92 #
cone-surface $-1 57.168763058051042 -12.666773493437127 8.9760409767713938 -0.5877852598018023 0 -0.80901698891910034 0.20225424722977509 0 -0.14694631495045057 1 I I -0.70710678118654746 0.70710678118654746 0.25 forward I I I I #
loop $-1 $-1 $236 $68 #
coedge $-1 $149 $149 $237 $238 reversed $93 $-1 #
face $-1 $239 $240 $53 $-1 $241 reversed single #
loop $-1 $-1 $242 $95 #
plane-surface $-1 -41.760061900475776 1.5920441453834897 82.567878884678862 0.5877852598018023 0 0.80901698891910034 0.80901698891910034 0 -0.5877852598018023 forward_v I I I I #
coedge $-1 $243 $244 $245 $246 reversed $96 $-1 #
face $-1 $-1 $247 $54 $-1 $248 forward single #
loop $-1 $249 $250 $98 #
cone-surface $-1 57.168763058051042 0.15837707703676784 8.9760409767713938 -0.5877852598018023 0 -0.80901698891910034 0.20225424722977509 0 -0.14694631495045057 1 I I -0.70710678118654746 0.70710678118654746 0.25 forward I I I I #
loop $-1 $-1 $251 $70 #
coedge $-1 $158 $158 $252 $253 reversed $99 $-1 #
face $-1 $-1 $254 $55 $-1 $255 forward single #
loop $-1 $256 $257 $101 #
cone-surface $-1 57.168763058051042 3.0257112137302187 8.9760409767713938 -0.5877852598018023 0 -0.80901698891910034 0.20225424722977509 0 -0.14694631495045057 1 I I -0.70710678118654746 0.70710678118654746 0.25 forward I I I I #
loop $-1 $-1 $258 $71 #
coedge $-1 $163 $163 $259 $260 reversed $102 $-1 #
face $-1 $261 $262 $56 $-1 $263 reversed single #
loop $-1 $-1 $264 $104 #
plane-surface $-1 -41.760061900475776 17.284528852550835 82.567878884678862 0.5877852598018023 0 0.80901698891910034 0.80901698891910034 0 -0.5877852598018023 forward_v I I I I #
coedge $-1 $265 $266 $267 $268 reversed $105 $-1 #
face $-1 $-1 $269 $57 $-1 $270 forward single #
loop $-1 $271 $272 $107 #
cone-surface $-1 57.168763058051042 15.850861784204113 8.9760409767713938 -0.5877852598018023 0 -0.80901698891910034 0.20225424722977509 0 -0.14694631495045057 1 I I -0.70710678118654746 0.70710678118654746 0.25 forward I I I I #
loop $-1 $-1 $273 $73 #
coedge $-1 $172 $172 $274 $275 reversed $108 $-1 #
face $-1 $-1 $276 $58 $-1 $277 forward single #
loop $-1 $278 $279 $110 #
cone-surface $-1 57.168763058051042 18.718195920897564 8.9760409767713938 -0.5877852598018023 0 -0.80901698891910034 0.20225424722977509 0 -0.14694631495045057 1 I I -0.70710678118654746 0.70710678118654746 0.25 forward I I I I #
loop $-1 $-1 $280 $74 #
coedge $-1 $177 $177 $281 $282 reversed $111 $-1 #
face $-1 $283 $284 $59 $-1 $285 reversed single #
loop $-1 $-1 $286 $113 #
plane-surface $-1 -41.760061900475776 32.977013559718181 82.567878884678862 0.5877852598018023 0 0.80901698891910034 0.80901698891910034 0 -0.5877852598018023 forward_v I I I I #
coedge $-1 $287 $288 $289 $290 reversed $114 $-1 #
face $-1 $-1 $291 $60 $-1 $292 forward single #
loop $-1 $293 $294 $116 #
cone-surface $-1 57.168763058051042 31.543346491371459 8.9760409767713938 -0.5877852598018023 0 -0.80901698891910034 0.20225424722977509 0 -0.14694631495045057 1 I I -0.70710678118654746 0.70710678118654746 0.25 forward I I I I #
loop $-1 $-1 $295 $76 #
coedge $-1 $186 $186 $296 $297 reversed $117 $-1 #
face $-1 $-1 $298 $61 $-1 $299 forward single #
loop $-1 $300 $301 $119 #
cone-surface $-1 57.168763058051042 34.410680628064917 8.9760409767713938 -0.5877852598018023 0 -0.80901698891910034 0.20225424722977509 0 -0.14694631495045057 1 I I -0.70710678118654746 0.70710678118654746 0.25 forward I I I I #
loop $-1 $-1 $302 $77 #
coedge $-1 $191 $191 $303 $304 reversed $120 $-1 #
face $-1 $305 $306 $62 $-1 $307 reversed single #
loop $-1 $-1 $308 $122 #
plane-surface $-1 -67.56920072023685 33.811852424272907 7.2237951185302336 -0.7660444514056185 0 0.64278759981090561 0.64278759981090561 0 0.7660444514056185 forward_v I I I I #
coedge $-1 $309 $310 $311 $312 reversed $123 $-1 #
face $-1 $-1 $313 $63 $-1 $314 forward single #
loop $-1 $315 $316 $125 #
cone-surface $-1 -56.88876267292973 33.811852424272907 6.6449599794728442 0.7660444514056185 0 -0.64278759981090561 0.64278759981090561 0 0.7660444514056185 1 I I -0.70710678118654724 0.70710678118654791 1 forward I I I I #
loop $-1 $-1 $317 $79 #
coedge $-1 $200 $200 $318 $319 reversed $126 $-1 #
face $-1 $320 $321 $48 $-1 $322 reversed single #
loop $-1 $-1 $323 $128 #
plane-surface $-1 0 -40.419237232498851 0 0 1 0 0 0 1 forward_v I I I I #
coedge $-1 $324 $325 $326 $327 forward $129 $-1 #
coedge $-1 $328 $131 $329 $330 forward $81 $-1 #
coedge $-1 $131 $328 $331 $332 forward $81 $-1 #
coedge $-1 $333 $334 $131 $208 reversed $335 $-1 #
edge $-1 $336 -40.419237232498851 $337 40.419237232498851 $207 $338 forward 7 unknown #
face $-1 $339 $340 $49 $-1 $341 reversed single #
loop $-1 $-1 $342 $132 #
plane-surface $-1 0 0 -17.062624444443919 0 0 1 1 0 0 forward_v I I I I #
coedge $-1 $343 $344 $345 $346 reversed $133 $-1 #
coedge $-1 $347 $135 $344 $348 forward $84 $-1 #
coedge $-1 $135 $347 $349 $350 reversed $84 $-1 #
coedge $-1 $351 $345 $135 $216 forward $340 $-1 #
edge $-1 $352 6.0521888677986766 $353 24.928761865733009 $215 $354 forward 7 unknown #
face $-1 $355 $356 $50 $-1 $357 reversed single #
loop $-1 $-1 $358 $136 #
plane-surface $-1 37.672298499413273 -17.44566372125955 191.89714150539146 0 1 0 0.5877852598018023 0 0.80901698891910034 forward_v I I I I #
coedge $-1 $359 $360 $361 $362 reversed $137 $-1 #
coedge $-1 $222 $139 $363 $364 reversed $87 $-1 #
coedge $-1 $139 $221 $359 $365 reversed $87 $-1 #
coedge $-1 $361 $366 $139 $224 forward $367 $-1 #
edge $-1 $368 -48.733051470530185 $369 -29.564034997344251 $223 $370 forward 7 unknown #
loop $-1 $-1 $230 $140 #
plane-surface $-1 -41.760061900475776 -14.100440561783856 82.567878884678862 0.5877852598018023 0 0.80901698891910034 0.80901698891910034 0 -0.5877852598018023 forward_v I I I I #
loop $-1 $-1 $371 $89 #
coedge $-1 $228 $228 $229 $372 reversed $141 $-1 #
coedge $-1 $229 $229 $228 $372 forward $143 $-1 #
coedge $-1 $230 $230 $144 $231 forward $225 $-1 #
edge $-1 $373 0 $373 6.2831853071796004 $230 $374 forward 7 unknown #
loop $-1 $-1 $237 $145 #
plane-surface $-1 -41.760061900475776 -14.100440561783856 82.567878884678862 0.5877852598018023 0 0.80901698891910034 0.80901698891910034 0 -0.5877852598018023 forward_v I I I I #
loop $-1 $-1 $375 $92 #
coedge $-1 $235 $235 $236 $376 reversed $146 $-1 #
coedge $-1 $236 $236 $235 $376 forward $148 $-1 #
coedge $-1 $237 $237 $149 $238 forward $232 $-1 #
edge $-1 $377 0 $377 6.2831853071796004 $237 $378 forward 7 unknown #
face $-1 $379 $380 $53 $-1 $381 reversed single #
loop $-1 $-1 $382 $150 #
plane-surface $-1 37.672298499413273 -1.7531790140922059 191.89714150539146 0 1 0 0.5877852598018023 0 0.80901698891910034 forward_v I I I I #
coedge $-1 $383 $384 $385 $386 reversed $151 $-1 #
coedge $-1 $244 $153 $387 $388 reversed $96 $-1 #
coedge $-1 $153 $243 $383 $389 reversed $96 $-1 #
coedge $-1 $385 $390 $153 $246 forward $391 $-1 #
edge $-1 $392 -48.733051470530185 $393 -29.564034997344251 $245 $394 forward 7 unknown #
loop $-1 $-1 $252 $154 #
plane-surface $-1 -41.760061900475776 1.5920441453834897 82.567878884678862 0.5877852598018023 0 0.80901698891910034 0.80901698891910034 0 -0.5877852598018023 forward_v I I I I #
loop $-1 $-1 $395 $98 #
coedge $-1 $250 $250 $251 $396 reversed $155 $-1 #
coedge $-1 $251 $251 $250 $396 forward $157 $-1 #
coedge $-1 $252 $252 $158 $253 forward $247 $-1 #
edge $-1 $397 0 $397 6.2831853071796004 $252 $398 forward 7 unknown #
loop $-1 $-1 $259 $159 #
plane-surface $-1 -41.760061900475776 1.5920441453834897 82.567878884678862 0.5877852598018023 0 0.80901698891910034 0.80901698891910034 0 -0.5877852598018023 forward_v I I I I #
loop $-1 $-1 $399 $101 #
coedge $-1 $257 $257 $258 $400 reversed $160 $-1 #
coedge $-1 $258 $258 $257 $400 forward $162 $-1 #
coedge $-1 $259 $259 $163 $260 forward $254 $-1 #
edge $-1 $401 0 $401 6.2831853071796004 $259 $402 forward 7 unknown #
face $-1 $403 $404 $56 $-1 $405 reversed single #
loop $-1 $-1 $406 $164 #
plane-surface $-1 37.672298499413273 13.93930569307514 191.89714150539146 0 1 0 0.5877852598018023 0 0.80901698891910034 forward_v I I I I #
coedge $-1 $407 $408 $409 $410 reversed $165 $-1 #
coedge $-1 $266 $167 $411 $412 reversed $105 $-1 #
coedge $-1 $167 $265 $407 $413 reversed $105 $-1 #
coedge $-1 $409 $414 $167 $268 forward $415 $-1 #
edge $-1 $416 -48.733051470530185 $417 -29.564034997344251 $267 $418 forward 7 unknown #
loop $-1 $-1 $274 $168 #
plane-surface $-1 -41.760061900475776 17.284528852550835 82.567878884678862 0.5877852598018023 0 0.80901698891910034 0.80901698891910034 0 -0.5877852598018023 forward_v I I I I #
loop $-1 $-1 $419 $107 #
coedge $-1 $272 $272 $273 $420 reversed $169 $-1 #
coedge $-1 $273 $273 $272 $420 forward $171 $-1 #
coedge $-1 $274 $274 $172 $275 forward $269 $-1 #
edge $-1 $421 0 $421 6.2831853071796004 $274 $422 forward 7 unknown #
loop $-1 $-1 $281 $173 #
plane-surface $-1 -41.760061900475776 17.284528852550835 82.567878884678862 0.5877852598018023 0 0.80901698891910034 0.80901698891910034 0 -0.5877852598018023 forward_v I I I I #
loop $-1 $-1 $423 $110 #
coedge $-1 $279 $279 $280 $424 reversed $174 $-1 #
coedge $-1 $280 $280 $279 $424 forward $176 $-1 #
coedge $-1 $281 $281 $177 $282 forward $276 $-1 #
edge $-1 $425 0 $425 6.2831853071796004 $281 $426 forward 7 unknown #
face $-1 $427 $428 $59 $-1 $429 reversed single #
loop $-1 $-1 $430 $178 #
plane-surface $-1 37.672298499413273 29.631790400242487 191.89714150539146 0 1 0 0.5877852598018023 0 0.80901698891910034 forward_v I I I I #
coedge $-1 $431 $432 $433 $434 reversed $179 $-1 #
coedge $-1 $288 $181 $435 $436 reversed $114 $-1 #
coedge $-1 $181 $287 $431 $437 reversed $114 $-1 #
coedge $-1 $433 $438 $181 $290 forward $439 $-1 #
edge $-1 $440 -48.733051470530185 $441 -29.564034997344251 $289 $442 forward 7 unknown #
loop $-1 $-1 $296 $182 #
plane-surface $-1 -41.760061900475776 32.977013559718181 82.567878884678862 0.5877852598018023 0 0.80901698891910034 0.80901698891910034 0 -0.5877852598018023 forward_v I I I I #
loop $-1 $-1 $443 $116 #
coedge $-1 $294 $294 $295 $444 reversed $183 $-1 #
coedge $-1 $295 $295 $294 $444 forward $185 $-1 #
coedge $-1 $296 $296 $186 $297 forward $291 $-1 #
edge $-1 $445 0 $445 6.2831853071796004 $296 $446 forward 7 unknown #
loop $-1 $-1 $303 $187 #
plane-surface $-1 -41.760061900475776 32.977013559718181 82.567878884678862 0.5877852598018023 0 0.80901698891910034 0.80901698891910034 0 -0.5877852598018023 forward_v I I I I #
loop $-1 $-1 $447 $119 #
coedge $-1 $301 $301 $302 $448 reversed $188 $-1 #
coedge $-1 $302 $302 $301 $448 forward $190 $-1 #
coedge $-1 $303 $303 $191 $304 forward $298 $-1 #
edge $-1 $449 0 $449 6.2831853071796004 $303 $450 forward 7 unknown #
face $-1 $451 $452 $62 $-1 $453 reversed single #
loop $-1 $-1 $454 $192 #
plane-surface $-1 0 40.419237232498851 0 0 -1 0 0 0 -1 forward_v I I I I #
coedge $-1 $455 $456 $457 $458 reversed $193 $-1 #
coedge $-1 $310 $195 $459 $460 reversed $123 $-1 #
coedge $-1 $195 $309 $455 $461 reversed $123 $-1 #
coedge $-1 $457 $462 $195 $312 forward $463 $-1 #
edge $-1 $464 17.97641093753154 $465 26.232168779976249 $311 $466 forward 7 unknown #
loop $-1 $-1 $318 $196 #
plane-surface $-1 -67.56920072023685 33.811852424272907 7.2237951185302336 -0.7660444514056185 0 0.64278759981090561 0.64278759981090561 0 0.7660444514056185 forward_v I I I I #
loop $-1 $-1 $467 $125 #
coedge $-1 $316 $316 $317 $468 reversed $197 $-1 #
coedge $-1 $317 $317 $316 $468 forward $199 $-1 #
coedge $-1 $318 $318 $200 $319 forward $313 $-1 #
edge $-1 $469 0 $469 6.2831853071796004 $318 $470 forward 7 unknown #
face $-1 $471 $472 $48 $-1 $473 reversed single #
loop $-1 $-1 $474 $201 #
plane-surface $-1 -67.569200720236822 0 0 1 0 0 0 0 -1 forward_v I I I I #
coedge $-1 $475 $331 $476 $477 forward $202 $-1 #
coedge $-1 $478 $204 $475 $479 forward $129 $-1 #
coedge $-1 $204 $478 $480 $481 forward $129 $-1 #
coedge $-1 $334 $333 $204 $327 reversed $335 $-1 #
edge $-1 $482 -40.419237232498851 $483 40.419237232498851 $326 $484 forward 7 unknown #
coedge $-1 $206 $205 $485 $486 forward $81 $-1 #
coedge $-1 $487 $488 $205 $330 reversed $472 $-1 #
edge $-1 $337 -67.569200720236822 $489 67.569200720236822 $329 $490 forward 7 unknown #
coedge $-1 $323 $491 $206 $332 reversed $202 $-1 #
edge $-1 $492 -67.569200720236822 $336 67.569200720236822 $331 $493 forward 7 unknown #
coedge $-1 $326 $207 $491 $494 forward $335 $-1 #
coedge $-1 $207 $326 $487 $495 reversed $335 $-1 #
loop $-1 $-1 $333 $471 #
vertex $-1 $208 $496 #
vertex $-1 $208 $497 #
straight-curve $-1 67.569200720236822 0 17.062624444443919 0 1 0 I I #
face $-1 $498 $499 $49 $-1 $500 reversed single #
loop $-1 $-1 $345 $209 #
plane-surface $-1 67.569200720236822 0 0 -1 0 0 0 0 1 forward_v I I I I #
coedge $-1 $501 $502 $343 $503 forward $210 $-1 #
coedge $-1 $504 $212 $342 $503 reversed $133 $-1 #
coedge $-1 $212 $504 $213 $348 reversed $133 $-1 #
coedge $-1 $215 $505 $212 $346 forward $340 $-1 #
edge $-1 $506 -9.7778518360508748 $352 -4.7916933807352144 $345 $507 forward 7 unknown #
coedge $-1 $214 $213 $508 $509 reversed $84 $-1 #
edge $-1 $352 -67.569200720236822 $510 67.569200720236822 $344 $511 forward 7 unknown #
coedge $-1 $512 $513 $214 $350 forward $499 $-1 #
edge $-1 $353 -67.569200720236822 $514 67.569200720236822 $349 $515 forward 7 unknown #
coedge $-1 $505 $215 $513 $516 forward $340 $-1 #
vertex $-1 $216 $517 #
vertex $-1 $516 $518 #
straight-curve $-1 67.569200720236822 -15.490475366765843 -12.076465989128259 0 -1 0 I I #
face $-1 $-1 $367 $50 $-1 $519 forward single #
loop $-1 $-1 $520 $217 #
plane-surface $-1 67.569200720236822 0 0 -1 0 0 0 0 1 forward_v I I I I #
coedge $-1 $521 $522 $523 $524 reversed $218 $-1 #
coedge $-1 $525 $220 $222 $365 forward $137 $-1 #
coedge $-1 $220 $525 $521 $526 forward $137 $-1 #
coedge $-1 $523 $223 $220 $362 forward $367 $-1 #
edge $-1 $369 3.7049971214162323 $527 10.395443440367622 $361 $528 forward 7 unknown #
coedge $-1 $529 $530 $221 $364 forward $356 $-1 #
edge $-1 $531 -92.813052267905917 $368 -78.885946308251818 $363 $532 forward 7 unknown #
edge $-1 $369 111.44419385801359 $531 135.13840144047361 $222 $533 forward 7 unknown #
coedge $-1 $223 $523 $529 $534 forward $367 $-1 #
loop $-1 $-1 $523 $355 #
vertex $-1 $364 $535 #
vertex $-1 $224 $536 #
straight-curve $-1 18.836149249706637 -10.75521740230816 17.062624444443927 -1 0 0 I I #
coedge $-1 $371 $371 $-1 $537 reversed $227 $-1 #
edge $-1 $538 0 $538 6.2831853071796004 $228 $539 forward 7 unknown #
vertex $-1 $231 $540 #
ellipse-curve $-1 57.984692483643862 -15.534107630130581 10.099071464616863 0.5877852598018023 0 0.80901698891910034 0.40450849445955017 0 -0.29389262990090115 1 I I #
coedge $-1 $375 $375 $-1 $541 reversed $234 $-1 #
edge $-1 $542 0 $542 6.2831853071796004 $235 $543 forward 7 unknown #
vertex $-1 $238 $544 #
ellipse-curve $-1 57.984692483643862 -12.666773493437127 10.099071464616863 0.5877852598018023 0 0.80901698891910034 0.40450849445955017 0 -0.29389262990090115 1 I I #
face $-1 $-1 $391 $53 $-1 $545 forward single #
loop $-1 $-1 $546 $239 #
plane-surface $-1 67.569200720236822 0 0 -1 0 0 0 0 1 forward_v I I I I #
coedge $-1 $547 $548 $549 $550 reversed $240 $-1 #
coedge $-1 $551 $242 $244 $389 forward $151 $-1 #
coedge $-1 $242 $551 $547 $552 forward $151 $-1 #
coedge $-1 $549 $245 $242 $386 forward $391 $-1 #
edge $-1 $393 -4.1412452321674404 $553 2.5492010867839507 $385 $554 forward 7 unknown #
coedge $-1 $555 $556 $243 $388 forward $380 $-1 #
edge $-1 $557 -92.813052267905917 $392 -78.885946308251818 $387 $558 forward 7 unknown #
edge $-1 $393 111.44419385801359 $557 135.13840144047361 $244 $559 forward 7 unknown #
coedge $-1 $245 $549 $555 $560 forward $391 $-1 #
loop $-1 $-1 $549 $379 #
vertex $-1 $388 $561 #
vertex $-1 $246 $562 #
straight-curve $-1 18.836149249706637 4.9372673048591853 17.062624444443927 -1 0 0 I I #
coedge $-1 $395 $395 $-1 $563 reversed $249 $-1 #
edge $-1 $564 0 $564 6.2831853071796004 $250 $565 forward 7 unknown #
vertex $-1 $253 $566 #
ellipse-curve $-1 57.984692483643862 0.15837707703676784 10.099071464616863 0.5877852598018023 0 0.80901698891910034 0.40450849445955017 0 -0.29389262990090115 1 I I #
coedge $-1 $399 $399 $-1 $567 reversed $256 $-1 #
edge $-1 $568 0 $568 6.2831853071796004 $257 $569 forward 7 unknown #
vertex $-1 $260 $570 #
ellipse-curve $-1 57.984692483643862 3.0257112137302187 10.099071464616863 0.5877852598018023 0 0.80901698891910034 0.40450849445955017 0 -0.29389262990090115 1 I I #
face $-1 $-1 $415 $56 $-1 $571 forward single #
loop $-1 $-1 $572 $261 #
plane-surface $-1 67.569200720236822 0 0 -1 0 0 0 0 1 forward_v I I I I #
coedge $-1 $573 $574 $575 $576 reversed $262 $-1 #
coedge $-1 $577 $264 $266 $413 forward $165 $-1 #
coedge $-1 $264 $577 $573 $578 forward $165 $-1 #
coedge $-1 $575 $267 $264 $410 forward $415 $-1 #
edge $-1 $417 -11.987487585751111 $579 -5.297041266799722 $409 $580 forward 7 unknown #
coedge $-1 $581 $582 $265 $412 forward $404 $-1 #
edge $-1 $583 -92.813052267905917 $416 -78.885946308251818 $411 $584 forward 7 unknown #
edge $-1 $417 111.44419385801359 $583 135.13840144047361 $266 $585 forward 7 unknown #
coedge $-1 $267 $575 $581 $586 forward $415 $-1 #
loop $-1 $-1 $575 $403 #
vertex $-1 $412 $587 #
vertex $-1 $268 $588 #
straight-curve $-1 18.836149249706637 20.629752012026529 17.062624444443927 -1 0 0 I I #
coedge $-1 $419 $419 $-1 $589 reversed $271 $-1 #
edge $-1 $590 0 $590 6.2831853071796004 $272 $591 forward 7 unknown #
vertex $-1 $275 $592 #
ellipse-curve $-1 57.984692483643862 15.850861784204113 10.099071464616863 0.5877852598018023 0 0.80901698891910034 0.40450849445955017 0 -0.29389262990090115 1 I I #
coedge $-1 $423 $423 $-1 $593 reversed $278 $-1 #
edge $-1 $594 0 $594 6.2831853071796004 $279 $595 forward 7 unknown #
vertex $-1 $282 $596 #
ellipse-curve $-1 57.984692483643862 18.718195920897564 10.099071464616863 0.5877852598018023 0 0.80901698891910034 0.40450849445955017 0 -0.29389262990090115 1 I I #
face $-1 $-1 $439 $59 $-1 $597 forward single #
loop $-1 $-1 $598 $283 #
plane-surface $-1 67.569200720236822 0 0 -1 0 0 0 0 1 forward_v I I I I #
coedge $-1 $599 $600 $601 $602 reversed $284 $-1 #
coedge $-1 $603 $286 $288 $437 forward $179 $-1 #
coedge $-1 $286 $603 $599 $604 forward $179 $-1 #
coedge $-1 $601 $289 $286 $434 forward $439 $-1 #
edge $-1 $441 -19.833729939334784 $605 -13.143283620383396 $433 $606 forward 7 unknown #
coedge $-1 $607 $608 $287 $436 forward $428 $-1 #
edge $-1 $609 -92.813052267905917 $440 -78.885946308251818 $435 $610 forward 7 unknown #
edge $-1 $441 111.44419385801359 $609 135.13840144047361 $288 $611 forward 7 unknown #
coedge $-1 $289 $601 $607 $612 forward $439 $-1 #
loop $-1 $-1 $601 $427 #
vertex $-1 $436 $613 #
vertex $-1 $290 $614 #
straight-curve $-1 18.836149249706637 36.322236719193874 17.062624444443927 -1 0 0 I I #
coedge $-1 $443 $443 $-1 $615 reversed $293 $-1 #
edge $-1 $616 0 $616 6.2831853071796004 $294 $617 forward 7 unknown #
vertex $-1 $297 $618 #
ellipse-curve $-1 57.984692483643862 31.543346491371459 10.099071464616863 0.5877852598018023 0 0.80901698891910034 0.40450849445955017 0 -0.29389262990090115 1 I I #
coedge $-1 $447 $447 $-1 $619 reversed $300 $-1 #
edge $-1 $620 0 $620 6.2831853071796004 $301 $621 forward 7 unknown #
vertex $-1 $304 $622 #
ellipse-curve $-1 57.984692483643862 34.410680628064917 10.099071464616863 0.5877852598018023 0 0.80901698891910034 0.40450849445955017 0 -0.29389262990090115 1 I I #
face $-1 $-1 $463 $62 $-1 $623 forward single #
loop $-1 $-1 $624 $305 #
plane-surface $-1 -67.569200720236822 0 0 1 0 0 0 0 -1 forward_v I I I I #
coedge $-1 $625 $626 $456 $627 forward $306 $-1 #
coedge $-1 $628 $308 $310 $461 forward $193 $-1 #
coedge $-1 $308 $628 $454 $627 reversed $193 $-1 #
coedge $-1 $629 $311 $308 $458 forward $463 $-1 #
edge $-1 $465 10.298541403910509 $630 23.513311020362398 $457 $631 forward 7 unknown #
coedge $-1 $632 $624 $309 $460 forward $452 $-1 #
edge $-1 $633 -39.820746792837191 $464 -29.981917466923541 $459 $634 forward 7 unknown #
edge $-1 $465 -12.843679381608178 $633 -4.4123720097533069e-014 $310 $635 forward 7 unknown #
coedge $-1 $311 $629 $632 $636 forward $463 $-1 #
loop $-1 $-1 $457 $451 #
vertex $-1 $460 $637 #
vertex $-1 $312 $638 #
straight-curve $-1 -85.545611657768362 27.204467616046962 17.062624444443919 1 0 0 I I #
coedge $-1 $467 $467 $-1 $639 reversed $315 $-1 #
edge $-1 $640 0 $640 6.2831853071796004 $316 $641 forward 7 unknown #
vertex $-1 $319 $642 #
ellipse-curve $-1 -63.441321799014467 33.811852424272907 12.143209781487094 -0.7660444514056185 0 0.64278759981090561 1.2855751996218112 0 1.532088902811237 1 I I #
face $-1 $-1 $335 $48 $-1 $643 reversed single #
loop $-1 $-1 $487 $320 #
plane-surface $-1 0 40.419237232498851 0 0 -1 0 0 0 -1 forward_v I I I I #
coedge $-1 $644 $485 $488 $645 forward $321 $-1 #
coedge $-1 $491 $323 $324 $479 reversed $202 $-1 #
coedge $-1 $485 $644 $323 $477 reversed $321 $-1 #
edge $-1 $492 -17.062624444443919 $646 17.062624444443919 $476 $647 forward 7 unknown #
coedge $-1 $325 $324 $644 $648 forward $129 $-1 #
edge $-1 $483 -67.569200720236822 $646 67.569200720236822 $475 $649 forward 7 unknown #
coedge $-1 $488 $487 $325 $481 reversed $472 $-1 #
edge $-1 $650 -67.569200720236822 $482 67.569200720236822 $480 $651 forward 7 unknown #
vertex $-1 $327 $652 #
vertex $-1 $494 $653 #
straight-curve $-1 67.569200720236822 0 -17.062624444443919 0 -1 0 I I #
coedge $-1 $474 $476 $328 $486 reversed $321 $-1 #
edge $-1 $489 -40.419237232498851 $492 40.419237232498851 $485 $654 forward 7 unknown #
coedge $-1 $480 $329 $334 $495 forward $472 $-1 #
coedge $-1 $329 $480 $474 $645 reversed $472 $-1 #
vertex $-1 $330 $655 #
straight-curve $-1 0 40.419237232498851 17.062624444443919 -1 0 0 I I #
coedge $-1 $331 $475 $333 $494 reversed $202 $-1 #
vertex $-1 $486 $656 #
straight-curve $-1 0 -40.419237232498851 17.062624444443919 1 0 0 I I #
edge $-1 $336 -17.062624444443919 $483 17.062624444443919 $333 $657 forward 7 unknown #
edge $-1 $337 -17.062624444443919 $482 17.062624444443919 $334 $658 forward 7 unknown #
point $-1 67.569200720236822 -40.419237232498851 17.062624444443919 #
point $-1 67.569200720236822 40.419237232498851 17.062624444443919 #
face $-1 $-1 $659 $49 $-1 $660 reversed single #
loop $-1 $-1 $349 $339 #
plane-surface $-1 0 -40.419237232498851 0 0 1 0 0 0 1 forward_v I I I I #
coedge $-1 $661 $342 $505 $662 forward $210 $-1 #
coedge $-1 $342 $661 $663 $664 forward $210 $-1 #
edge $-1 $665 -67.569200720236822 $506 67.569200720236822 $342 $666 forward 7 unknown #
coedge $-1 $344 $343 $667 $668 reversed $133 $-1 #
coedge $-1 $345 $351 $501 $662 reversed $340 $-1 #
vertex $-1 $662 $669 #
straight-curve $-1 67.569200720236822 -21.542664234564519 -7.2847726083930446 0 0 1 I I #
coedge $-1 $667 $670 $347 $509 forward $659 $-1 #
edge $-1 $514 -24.928761865733009 $510 -6.0521888677986766 $508 $671 forward 7 unknown #
vertex $-1 $509 $672 #
straight-curve $-1 0 -21.542664234564519 -12.076465989128259 -1 0 0 I I #
coedge $-1 $673 $349 $670 $674 forward $499 $-1 #
coedge $-1 $349 $673 $351 $516 reversed $499 $-1 #
vertex $-1 $674 $675 #
straight-curve $-1 0 -40.419237232498851 -12.076465989128259 -1 0 0 I I #
edge $-1 $353 12.076465989128259 $676 17.062624444443919 $351 $677 forward 7 unknown #
point $-1 67.569200720236822 -21.542664234564519 -12.076465989128259 #
point $-1 67.569200720236822 -40.419237232498851 -12.076465989128259 #
plane-surface $-1 0 0 17.062624444443919 0 0 1 1 0 0 forward_v I I I I #
coedge $-1 $530 $529 $522 $678 forward $356 $-1 #
coedge $-1 $522 $358 $360 $526 reversed $218 $-1 #
coedge $-1 $358 $521 $520 $678 reversed $218 $-1 #
coedge $-1 $366 $361 $358 $524 forward $367 $-1 #
edge $-1 $527 29.564034997344251 $679 48.733051470530185 $523 $680 forward 7 unknown #
coedge $-1 $360 $359 $530 $681 reversed $137 $-1 #
edge $-1 $682 -135.13840144047361 $527 -111.44419385801359 $521 $683 forward 7 unknown #
vertex $-1 $362 $684 #
straight-curve $-1 48.400184247050888 -7.0502202808919279 17.062624444443919 0 -1 0 I I #
coedge $-1 $520 $363 $366 $534 reversed $356 $-1 #
coedge $-1 $363 $520 $525 $681 forward $356 $-1 #
vertex $-1 $364 $685 #
straight-curve $-1 67.569200720236822 -10.75521740230816 95.94857075269573 0 0 1 I I #
straight-curve $-1 -41.760061900475776 -10.75521740230816 82.567878884678862 0.80901698891910034 0 -0.5877852598018023 I I #
edge $-1 $679 -17.44566372125955 $368 -10.75521740230816 $529 $686 forward 7 unknown #
point $-1 67.569200720236822 -10.75521740230816 17.062624444443919 #
point $-1 48.400184247050888 -10.75521740230816 17.062624444443912 #
edge $-1 $687 1 $687 0 $371 $-1 forward 7 unknown #
vertex $-1 $372 $688 #
ellipse-curve $-1 57.315709373001489 -15.534107630130581 9.1782952240011682 0.5877852598018023 0 0.80901698891910034 0.40450849445955017 0 -0.29389262990090115 1 I I #
point $-1 58.38920097810341 -15.534107630130581 9.8051788347159636 #
edge $-1 $689 1 $689 0 $375 $-1 forward 7 unknown #
vertex $-1 $376 $690 #
ellipse-curve $-1 57.315709373001489 -12.666773493437127 9.1782952240011682 0.5877852598018023 0 0.80901698891910034 0.40450849445955017 0 -0.29389262990090115 1 I I #
point $-1 58.38920097810341 -12.666773493437127 9.8051788347159636 #
plane-surface $-1 0 0 17.062624444443919 0 0 1 1 0 0 forward_v I I I I #
coedge $-1 $556 $555 $548 $691 forward $380 $-1 #
coedge $-1 $548 $382 $384 $552 reversed $240 $-1 #
coedge $-1 $382 $547 $546 $691 reversed $240 $-1 #
coedge $-1 $390 $385 $382 $550 forward $391 $-1 #
edge $-1 $553 29.564034997344251 $692 48.733051470530185 $549 $693 forward 7 unknown #
coedge $-1 $384 $383 $556 $694 reversed $151 $-1 #
edge $-1 $695 -135.13840144047361 $553 -111.44419385801359 $547 $696 forward 7 unknown #
vertex $-1 $386 $697 #
straight-curve $-1 48.400184247050888 0.79602207269174485 17.062624444443919 0 -1 0 I I #
coedge $-1 $546 $387 $390 $560 reversed $380 $-1 #
coedge $-1 $387 $546 $551 $694 forward $380 $-1 #
vertex $-1 $388 $698 #
straight-curve $-1 67.569200720236822 4.9372673048591853 95.94857075269573 0 0 1 I I #
straight-curve $-1 -41.760061900475776 4.9372673048591853 82.567878884678862 0.80901698891910034 0 -0.5877852598018023 I I #
edge $-1 $692 -1.7531790140922059 $392 4.9372673048591853 $555 $699 forward 7 unknown #
point $-1 67.569200720236822 4.9372673048591853 17.062624444443919 #
point $-1 48.400184247050888 4.9372673048591853 17.062624444443912 #
edge $-1 $700 1 $700 0 $395 $-1 forward 7 unknown #
vertex $-1 $396 $701 #
ellipse-curve $-1 57.315709373001489 0.15837707703676784 9.1782952240011682 0.5877852598018023 0 0.80901698891910034 0.40450849445955017 0 -0.29389262990090115 1 I I #
point $-1 58.38920097810341 0.15837707703676784 9.8051788347159636 #
edge $-1 $702 1 $702 0 $399 $-1 forward 7 unknown #
vertex $-1 $400 $703 #
ellipse-curve $-1 57.315709373001489 3.0257112137302187 9.1782952240011682 0.5877852598018023 0 0.80901698891910034 0.40450849445955017 0 -0.29389262990090115 1 I I #
point $-1 58.38920097810341 3.0257112137302187 9.8051788347159636 #
plane-surface $-1 0 0 17.062624444443919 0 0 1 1 0 0 forward_v I I I I #
coedge $-1 $582 $581 $574 $704 forward $404 $-1 #
coedge $-1 $574 $406 $408 $578 reversed $262 $-1 #
coedge $-1 $406 $573 $572 $704 reversed $262 $-1 #
coedge $-1 $414 $409 $406 $576 forward $415 $-1 #
edge $-1 $579 29.564034997344251 $705 48.733051470530185 $575 $706 forward 7 unknown #
coedge $-1 $408 $407 $582 $707 reversed $165 $-1 #
edge $-1 $708 -135.13840144047361 $579 -111.44419385801359 $573 $709 forward 7 unknown #
vertex $-1 $410 $710 #
straight-curve $-1 48.400184247050888 8.6422644262754176 17.062624444443919 0 -1 0 I I #
coedge $-1 $572 $411 $414 $586 reversed $404 $-1 #
coedge $-1 $411 $572 $577 $707 forward $404 $-1 #
vertex $-1 $412 $711 #
straight-curve $-1 67.569200720236822 20.629752012026529 95.94857075269573 0 0 1 I I #
straight-curve $-1 -41.760061900475776 20.629752012026529 82.567878884678862 0.80901698891910034 0 -0.5877852598018023 I I #
edge $-1 $705 13.93930569307514 $416 20.629752012026529 $581 $712 forward 7 unknown #
point $-1 67.569200720236822 20.629752012026529 17.062624444443919 #
point $-1 48.400184247050888 20.629752012026529 17.062624444443912 #
edge $-1 $713 1 $713 0 $419 $-1 forward 7 unknown #
vertex $-1 $420 $714 #
ellipse-curve $-1 57.315709373001489 15.850861784204113 9.1782952240011682 0.5877852598018023 0 0.80901698891910034 0.40450849445955017 0 -0.29389262990090115 1 I I #
point $-1 58.38920097810341 15.850861784204113 9.8051788347159636 #
edge $-1 $715 1 $715 0 $423 $-1 forward 7 unknown #
vertex $-1 $424 $716 #
ellipse-curve $-1 57.315709373001489 18.718195920897564 9.1782952240011682 0.5877852598018023 0 0.80901698891910034 0.40450849445955017 0 -0.29389262990090115 1 I I #
point $-1 58.38920097810341 18.718195920897564 9.8051788347159636 #
plane-surface $-1 0 0 17.062624444443919 0 0 1 1 0 0 forward_v I I I I #
coedge $-1 $608 $607 $600 $717 forward $428 $-1 #
coedge $-1 $600 $430 $432 $604 reversed $284 $-1 #
coedge $-1 $430 $599 $598 $717 reversed $284 $-1 #
coedge $-1 $438 $433 $430 $602 forward $439 $-1 #
edge $-1 $605 29.564034997344251 $718 48.733051470530185 $601 $719 forward 7 unknown #
coedge $-1 $432 $431 $608 $720 reversed $179 $-1 #
edge $-1 $721 -135.13840144047361 $605 -111.44419385801359 $599 $722 forward 7 unknown #
vertex $-1 $434 $723 #
straight-curve $-1 48.400184247050888 16.48850677985909 17.062624444443919 0 -1 0 I I #
coedge $-1 $598 $435 $438 $612 reversed $428 $-1 #
coedge $-1 $435 $598 $603 $720 forward $428 $-1 #
vertex $-1 $436 $724 #
straight-curve $-1 67.569200720236822 36.322236719193874 95.94857075269573 0 0 1 I I #
straight-curve $-1 -41.760061900475776 36.322236719193874 82.567878884678862 0.80901698891910034 0 -0.5877852598018023 I I #
edge $-1 $718 29.631790400242487 $440 36.322236719193874 $607 $725 forward 7 unknown #
point $-1 67.569200720236822 36.322236719193874 17.062624444443919 #
point $-1 48.400184247050888 36.322236719193874 17.062624444443912 #
edge $-1 $726 1 $726 0 $443 $-1 forward 7 unknown #
vertex $-1 $444 $727 #
ellipse-curve $-1 57.315709373001489 31.543346491371459 9.1782952240011682 0.5877852598018023 0 0.80901698891910034 0.40450849445955017 0 -0.29389262990090115 1 I I #
point $-1 58.38920097810341 31.543346491371459 9.8051788347159636 #
edge $-1 $728 1 $728 0 $447 $-1 forward 7 unknown #
vertex $-1 $448 $729 #
ellipse-curve $-1 57.315709373001489 34.410680628064917 9.1782952240011682 0.5877852598018023 0 0.80901698891910034 0.40450849445955017 0 -0.29389262990090115 1 I I #
point $-1 58.38920097810341 34.410680628064917 9.8051788347159636 #
plane-surface $-1 0 0 17.062624444443919 0 0 1 1 0 0 forward_v I I I I #
coedge $-1 $459 $730 $628 $731 forward $452 $-1 #
coedge $-1 $626 $454 $730 $732 reversed $306 $-1 #
coedge $-1 $454 $625 $629 $733 reversed $306 $-1 #
edge $-1 $630 6.105768710122466 $734 18.949448091730599 $454 $735 forward 7 unknown #
coedge $-1 $456 $455 $624 $731 reversed $193 $-1 #
coedge $-1 $462 $457 $626 $733 forward $463 $-1 #
vertex $-1 $733 $736 #
straight-curve $-1 -59.313442877792113 16.905926212136453 17.062624444443919 0 1 0 I I #
coedge $-1 $730 $459 $462 $636 reversed $452 $-1 #
vertex $-1 $460 $737 #
straight-curve $-1 -67.569200720236822 27.204467616046962 47.04454191136746 0 0 1 I I #
straight-curve $-1 -67.56920072023685 27.204467616046962 7.2237951185302336 -0.64278759981090561 0 -0.7660444514056185 I I #
edge $-1 $738 -40.419237232498851 $464 -27.204467616046962 $632 $739 forward 7 unknown #
point $-1 -67.569200720236822 27.204467616046962 17.062624444443919 #
point $-1 -59.313442877792113 27.204467616046962 17.062624444443919 #
edge $-1 $740 1 $740 0 $467 $-1 forward 7 unknown #
vertex $-1 $468 $741 #
ellipse-curve $-1 -57.654807124335349 33.811852424272907 7.2877475792837503 -0.7660444514056185 0 0.64278759981090561 1.2855751996218112 0 1.532088902811237 1 I I #
point $-1 -62.155746599392643 33.811852424272907 13.675298684298316 #
plane-surface $-1 67.569200720236822 0 0 -1 0 0 0 0 1 forward_v I I I I #
coedge $-1 $476 $474 $478 $648 reversed $321 $-1 #
edge $-1 $489 -17.062624444443919 $650 17.062624444443919 $488 $742 forward 7 unknown #
vertex $-1 $648 $743 #
straight-curve $-1 -67.569200720236822 -40.419237232498851 0 0 0 -1 I I #
edge $-1 $646 -40.419237232498851 $650 40.419237232498851 $644 $744 forward 7 unknown #
straight-curve $-1 0 -40.419237232498851 -17.062624444443919 -1 0 0 I I #
vertex $-1 $481 $745 #
straight-curve $-1 0 40.419237232498851 -17.062624444443919 1 0 0 I I #
point $-1 67.569200720236822 40.419237232498851 -17.062624444443919 #
point $-1 67.569200720236822 -40.419237232498851 -17.062624444443919 #
straight-curve $-1 -67.569200720236822 0 17.062624444443919 0 -1 0 I I #
point $-1 -67.569200720236822 40.419237232498851 17.062624444443919 #
point $-1 -67.569200720236822 -40.419237232498851 17.062624444443919 #
straight-curve $-1 67.569200720236822 -40.419237232498851 0 0 0 -1 I I #
straight-curve $-1 67.569200720236822 40.419237232498851 0 0 0 -1 I I #
loop $-1 $-1 $667 $498 #
plane-surface $-1 -67.569200720236822 0 0 1 0 0 0 0 -1 forward_v I I I I #
coedge $-1 $502 $501 $673 $746 forward $210 $-1 #
edge $-1 $506 21.542664234564519 $676 40.419237232498851 $505 $747 forward 7 unknown #
coedge $-1 $670 $667 $502 $664 reversed $659 $-1 #
edge $-1 $748 -40.419237232498851 $665 -21.542664234564519 $663 $749 forward 7 unknown #
vertex $-1 $668 $750 #
straight-curve $-1 0 -21.542664234564519 -17.062624444443919 1 0 0 I I #
coedge $-1 $663 $508 $504 $668 forward $659 $-1 #
edge $-1 $510 4.7916933807352144 $665 9.7778518360508748 $667 $751 forward 7 unknown #
point $-1 67.569200720236822 -21.542664234564519 -17.062624444443919 #
coedge $-1 $508 $663 $512 $674 reversed $659 $-1 #
straight-curve $-1 -67.569200720236822 -15.490475366765843 -12.076465989128259 0 1 0 I I #
point $-1 -67.569200720236822 -21.542664234564519 -12.076465989128259 #
coedge $-1 $513 $512 $661 $746 reversed $499 $-1 #
edge $-1 $514 12.076465989128259 $748 17.062624444443919 $670 $752 forward 7 unknown #
point $-1 -67.569200720236822 -40.419237232498851 -12.076465989128259 #
vertex $-1 $516 $753 #
straight-curve $-1 67.569200720236822 -40.419237232498851 0 0 0 -1 I I #
edge $-1 $679 78.885946308251818 $682 92.813052267905917 $520 $754 forward 7 unknown #
vertex $-1 $534 $755 #
straight-curve $-1 18.836149249706637 -17.44566372125955 17.062624444443927 1 0 0 I I #
edge $-1 $682 -10.395443440367622 $531 -3.7049971214162323 $530 $756 forward 7 unknown #
vertex $-1 $681 $757 #
straight-curve $-1 -41.760061900475776 -17.44566372125955 82.567878884678862 -0.80901698891910034 0 0.5877852598018023 I I #
point $-1 48.400184247050888 -17.44566372125955 17.062624444443912 #
point $-1 67.569200720236822 -10.75521740230816 3.135518484789813 #
straight-curve $-1 67.569200720236822 0 17.062624444443919 0 1 0 I I #
vertex $-1 $537 $758 #
point $-1 57.720217867461045 -15.534107630130581 8.8844025941002673 #
vertex $-1 $541 $759 #
point $-1 57.720217867461045 -12.666773493437127 8.8844025941002673 #
edge $-1 $692 78.885946308251818 $695 92.813052267905917 $546 $760 forward 7 unknown #
vertex $-1 $560 $761 #
straight-curve $-1 18.836149249706637 -1.7531790140922059 17.062624444443927 1 0 0 I I #
edge $-1 $695 -2.5492010867839507 $557 4.1412452321674404 $556 $762 forward 7 unknown #
vertex $-1 $694 $763 #
straight-curve $-1 -41.760061900475776 -1.7531790140922059 82.567878884678862 -0.80901698891910034 0 0.5877852598018023 I I #
point $-1 48.400184247050888 -1.7531790140922059 17.062624444443912 #
point $-1 67.569200720236822 4.9372673048591853 3.135518484789813 #
straight-curve $-1 67.569200720236822 0 17.062624444443919 0 1 0 I I #
vertex $-1 $563 $764 #
point $-1 57.720217867461045 0.15837707703676784 8.8844025941002673 #
vertex $-1 $567 $765 #
point $-1 57.720217867461045 3.0257112137302187 8.8844025941002673 #
edge $-1 $705 78.885946308251818 $708 92.813052267905917 $572 $766 forward 7 unknown #
vertex $-1 $586 $767 #
straight-curve $-1 18.836149249706637 13.93930569307514 17.062624444443927 1 0 0 I I #
edge $-1 $708 5.297041266799722 $583 11.987487585751111 $582 $768 forward 7 unknown #
vertex $-1 $707 $769 #
straight-curve $-1 -41.760061900475776 13.93930569307514 82.567878884678862 -0.80901698891910034 0 0.5877852598018023 I I #
point $-1 48.400184247050888 13.93930569307514 17.062624444443912 #
point $-1 67.569200720236822 20.629752012026529 3.135518484789813 #
straight-curve $-1 67.569200720236822 0 17.062624444443919 0 1 0 I I #
vertex $-1 $589 $770 #
point $-1 57.720217867461045 15.850861784204113 8.8844025941002673 #
vertex $-1 $593 $771 #
point $-1 57.720217867461045 18.718195920897564 8.8844025941002673 #
edge $-1 $718 78.885946308251818 $721 92.813052267905917 $598 $772 forward 7 unknown #
vertex $-1 $612 $773 #
straight-curve $-1 18.836149249706637 29.631790400242487 17.062624444443927 1 0 0 I I #
edge $-1 $721 13.143283620383396 $609 19.833729939334784 $608 $774 forward 7 unknown #
vertex $-1 $720 $775 #
straight-curve $-1 -41.760061900475776 29.631790400242487 82.567878884678862 -0.80901698891910034 0 0.5877852598018023 I I #
point $-1 48.400184247050888 29.631790400242487 17.062624444443912 #
point $-1 67.569200720236822 36.322236719193874 3.135518484789813 #
straight-curve $-1 67.569200720236822 0 17.062624444443919 0 1 0 I I #
vertex $-1 $615 $776 #
point $-1 57.720217867461045 31.543346491371459 8.8844025941002673 #
vertex $-1 $619 $777 #
point $-1 57.720217867461045 34.410680628064917 8.8844025941002673 #
coedge $-1 $624 $632 $625 $732 forward $452 $-1 #
edge $-1 $734 -23.513311020362398 $633 -10.298541403910509 $624 $778 forward 7 unknown #
edge $-1 $738 -17.062624444443919 $734 -7.2237951185302673 $625 $779 forward 7 unknown #
edge $-1 $630 59.313442877792113 $738 67.569200720236822 $626 $780 forward 7 unknown #
vertex $-1 $627 $781 #
straight-curve $-1 -55.388730463611964 40.419237232498851 21.739914686399274 -0.64278759981090572 0 -0.76604445140561861 I I #
point $-1 -59.313442877792113 40.419237232498851 17.062624444443919 #
point $-1 -67.569200720236822 27.204467616046962 7.2237951185302673 #
vertex $-1 $733 $782 #
straight-curve $-1 -67.569200720236822 0 17.062624444443919 0 -1 0 I I #
vertex $-1 $639 $783 #
point $-1 -56.369231924713539 33.811852424272907 8.8198364820949884 #
straight-curve $-1 -67.569200720236822 40.419237232498851 0 0 0 -1 I I #
point $-1 -67.569200720236822 -40.419237232498851 -17.062624444443919 #
straight-curve $-1 -67.569200720236822 0 -17.062624444443919 0 1 0 I I #
point $-1 -67.569200720236822 40.419237232498851 -17.062624444443919 #
edge $-1 $676 -67.569200720236822 $748 67.569200720236822 $673 $784 forward 7 unknown #
straight-curve $-1 67.569200720236822 0 -17.062624444443919 0 -1 0 I I #
vertex $-1 $664 $785 #
straight-curve $-1 -67.569200720236822 0 -17.062624444443919 0 1 0 I I #
point $-1 -67.569200720236822 -21.542664234564519 -17.062624444443919 #
straight-curve $-1 -67.569200720236822 -21.542664234564519 -7.2847726083930446 0 0 -1 I I #
straight-curve $-1 -67.569200720236822 -40.419237232498851 0 0 0 -1 I I #
point $-1 67.569200720236822 -40.419237232498851 -17.062624444443919 #
straight-curve $-1 67.569200720236822 -17.44566372125955 95.94857075269573 0 0 -1 I I #
point $-1 67.569200720236822 -17.44566372125955 17.062624444443919 #
straight-curve $-1 67.569200720236836 -7.0502202808919279 3.1355184847898059 0 1 0 I I #
point $-1 67.569200720236822 -17.44566372125955 3.135518484789813 #
point $-1 57.021816743100594 -15.534107630130581 8.7737867295416194 #
point $-1 57.021816743100594 -12.666773493437127 8.7737867295416194 #
straight-curve $-1 67.569200720236822 -1.7531790140922059 95.94857075269573 0 0 -1 I I #
point $-1 67.569200720236822 -1.7531790140922059 17.062624444443919 #
straight-curve $-1 67.569200720236836 0.79602207269174485 3.1355184847898059 0 1 0 I I #
point $-1 67.569200720236822 -1.7531790140922059 3.135518484789813 #
point $-1 57.021816743100594 0.15837707703676784 8.7737867295416194 #
point $-1 57.021816743100594 3.0257112137302187 8.7737867295416194 #
straight-curve $-1 67.569200720236822 13.93930569307514 95.94857075269573 0 0 -1 I I #
point $-1 67.569200720236822 13.93930569307514 17.062624444443919 #
straight-curve $-1 67.569200720236836 8.6422644262754176 3.1355184847898059 0 1 0 I I #
point $-1 67.569200720236822 13.93930569307514 3.135518484789813 #
point $-1 57.021816743100594 15.850861784204113 8.7737867295416194 #
point $-1 57.021816743100594 18.718195920897564 8.7737867295416194 #
straight-curve $-1 67.569200720236822 29.631790400242487 95.94857075269573 0 0 -1 I I #
point $-1 67.569200720236822 29.631790400242487 17.062624444443919 #
straight-curve $-1 67.569200720236836 16.48850677985909 3.1355184847898059 0 1 0 I I #
point $-1 67.569200720236822 29.631790400242487 3.135518484789813 #
point $-1 57.021816743100594 31.543346491371459 8.7737867295416194 #
point $-1 57.021816743100594 34.410680628064917 8.7737867295416194 #
straight-curve $-1 -67.569200720236822 16.905926212136453 7.2237951185302691 0 -1 0 I I #
straight-curve $-1 -67.569200720236822 40.419237232498851 0 0 0 -1 I I #
straight-curve $-1 0 40.419237232498851 17.062624444443919 -1 0 0 I I #
point $-1 -67.569200720236822 40.419237232498851 7.2237951185302673 #
point $-1 -67.569200720236822 40.419237232498851 17.062624444443919 #
point $-1 -56.12271822152411 33.811852424272907 6.0021723796619382 #
straight-curve $-1 0 -40.419237232498851 -17.062624444443919 -1 0 0 I I #
point $-1 -67.569200720236822 -40.419237232498851 -17.062624444443919 #
End-of-ACIS-data 