500 0 5 0           
7 Unknown 11 ACIS 5.0 NT 24 Fri Mar 26 18:51:59 1999 
-1 9.9999999999999995e-007 1e-010 
body $-1 $5 $-1 $6 #
body $-1 $7 $-1 $8 #
body $-1 $9 $-1 $10 #
body $-1 $11 $-1 $12 #
body $-1 $13 $-1 $14 #
lump $-1 $-1 $15 $0 #
transform $-1 1 0 0 0 1 0 0 0 1 59.255958738975188 26.693844628620649 12.547988831620781 1 rotate no_reflect no_shear #
lump $-1 $-1 $16 $1 #
transform $-1 1 0 0 0 1 0 0 0 1 59.255958738975188 26.693844628620649 12.547988831620781 1 rotate no_reflect no_shear #
lump $-1 $-1 $17 $2 #
transform $-1 1 0 0 0 1 0 0 0 1 59.255958738975188 26.693844628620649 12.547988831620781 1 rotate no_reflect no_shear #
lump $-1 $-1 $18 $3 #
transform $-1 1 0 0 0 1 0 0 0 1 59.255958738975188 26.693844628620649 12.547988831620781 1 rotate no_reflect no_shear #
lump $-1 $-1 $19 $4 #
transform $-1 1 0 0 0 1 0 0 0 1 59.255958738975188 26.693844628620649 12.547988831620781 1 rotate no_reflect no_shear #
shell $-1 $-1 $-1 $20 $-1 $5 #
shell $-1 $-1 $-1 $21 $-1 $7 #
shell $-1 $-1 $-1 $22 $-1 $9 #
shell $-1 $-1 $-1 $23 $-1 $11 #
shell $-1 $-1 $-1 $24 $-1 $13 #
face $-1 $25 $26 $15 $-1 $27 forward single #
face $-1 $28 $29 $16 $-1 $30 reversed single #
face $-1 $31 $32 $17 $-1 $33 reversed single #
face $-1 $34 $35 $18 $-1 $36 forward single #
face $-1 $37 $38 $19 $-1 $39 forward single #
face $-1 $40 $41 $15 $-1 $42 reversed single #
loop $-1 $-1 $43 $20 #
plane-surface $-1 0 0 12.547988831620781 0 0 1 1 0 0 forward_v I I I I #
face $-1 $44 $45 $16 $-1 $46 reversed single #
loop $-1 $-1 $47 $21 #
plane-surface $-1 -56.336570547872526 -18.099527294959163 0 0 -1 0 0 0 -1 forward_v I I I I #
face $-1 $48 $49 $17 $-1 $50 reversed single #
loop $-1 $-1 $51 $22 #
plane-surface $-1 5.8689531149007621 61.974495387396217 133.2647681662645 1 0 0 0 -0.64278761758704617 -0.76604443648966558 forward_v I I I I #
face $-1 $52 $53 $18 $-1 $54 forward single #
loop $-1 $55 $56 $23 #
cone-surface $-1 12.037882602042608 23.042669041342744 9.118261619497968 0 -0.64278761758704617 -0.76604443648966558 1.5 0 0 1 I I 0 1 1.5 forward I I I I #
face $-1 $57 $58 $19 $-1 $59 forward single #
loop $-1 $60 $61 $24 #
cone-surface $-1 21.291276832755393 23.042669041342744 9.118261619497968 0 -0.64278761758704617 -0.76604443648966558 1.5 0 0 1 I I 0 1 1.5 forward I I I I #
face $-1 $62 $63 $15 $-1 $64 reversed single #
loop $-1 $-1 $65 $25 #
plane-surface $-1 0 0 -12.547988831620781 0 0 1 1 0 0 forward_v I I I I #
coedge $-1 $66 $67 $68 $69 forward $26 $-1 #
face $-1 $70 $71 $16 $-1 $72 forward single #
loop $-1 $-1 $73 $28 #
plane-surface $-1 -53.417182356769864 -22.396685961789906 0 -1 0 0 0 0 1 forward_v I I I I #
coedge $-1 $74 $75 $76 $77 forward $29 $-1 #
face $-1 $78 $79 $17 $-1 $80 reversed single #
loop $-1 $-1 $81 $31 #
plane-surface $-1 16.664579717399015 -14.203497703928136 42.479373124558251 0 0.64278761758704617 0.76604443648966558 1 0 0 forward_v I I I I #
coedge $-1 $82 $83 $84 $85 reversed $32 $-1 #
face $-1 $-1 $86 $18 $-1 $87 forward single #
loop $-1 $88 $89 $34 #
cone-surface $-1 12.037882602042608 21.522656899497964 7.3067817266090067 0 -0.64278761758704617 -0.76604443648966558 0.75 0 0 1 I I -0.70710678118654757 0.70710678118654757 0.75 forward I I I I #
loop $-1 $-1 $90 $23 #
coedge $-1 $56 $56 $91 $92 reversed $35 $-1 #
face $-1 $-1 $93 $19 $-1 $94 forward single #
loop $-1 $95 $96 $37 #
cone-surface $-1 21.291276832755393 21.522656899497964 7.3067817266090067 0 -0.64278761758704617 -0.76604443648966558 0.75 0 0 1 I I -0.70710678118654757 0.70710678118654757 0.75 forward I I I I #
loop $-1 $-1 $97 $24 #
coedge $-1 $61 $61 $98 $99 reversed $38 $-1 #
face $-1 $100 $101 $15 $-1 $102 reversed single #
loop $-1 $-1 $103 $40 #
plane-surface $-1 0 -26.693844628620649 0 0 1 0 0 0 1 forward_v I I I I #
coedge $-1 $104 $105 $106 $107 forward $41 $-1 #
coedge $-1 $108 $43 $109 $110 forward $26 $-1 #
coedge $-1 $43 $108 $111 $112 forward $26 $-1 #
coedge $-1 $113 $114 $43 $69 reversed $115 $-1 #
edge $-1 $116 -26.693844628620649 $117 26.693844628620649 $68 $118 forward 7 unknown #
face $-1 $119 $120 $16 $-1 $121 reversed single #
loop $-1 $-1 $122 $44 #
plane-surface $-1 0 0 12.547988831620781 0 0 1 1 0 0 forward_v I I I I #
coedge $-1 $123 $124 $125 $126 reversed $45 $-1 #
coedge $-1 $127 $47 $128 $129 reversed $29 $-1 #
coedge $-1 $47 $127 $130 $131 reversed $29 $-1 #
coedge $-1 $124 $123 $47 $77 reversed $45 $-1 #
edge $-1 $132 -12.547988831620781 $133 12.547988831620781 $76 $134 forward 7 unknown #
face $-1 $135 $136 $17 $-1 $137 reversed single #
loop $-1 $-1 $138 $48 #
plane-surface $-1 27.460206319897267 61.974495387396217 133.2647681662645 -1 0 0 0 0.64278761758704617 0.76604443648966558 forward_v I I I I #
coedge $-1 $139 $140 $141 $142 reversed $49 $-1 #
coedge $-1 $83 $51 $143 $144 reversed $32 $-1 #
coedge $-1 $51 $82 $139 $145 reversed $32 $-1 #
coedge $-1 $141 $146 $51 $85 forward $147 $-1 #
edge $-1 $148 4.2934030650774595 $149 9.5199113823242882 $84 $150 forward 7 unknown #
loop $-1 $-1 $91 $52 #
plane-surface $-1 16.664579717399015 -14.203497703928136 42.479373124558251 0 0.64278761758704617 0.76604443648966558 1 0 0 forward_v I I I I #
loop $-1 $-1 $151 $34 #
coedge $-1 $89 $89 $90 $152 reversed $53 $-1 #
coedge $-1 $90 $90 $89 $152 forward $55 $-1 #
coedge $-1 $91 $91 $56 $92 forward $86 $-1 #
edge $-1 $153 -1.9917095705512357e-015 $153 6.2831853071795987 $91 $154 forward 7 unknown #
loop $-1 $-1 $98 $57 #
plane-surface $-1 16.664579717399015 -14.203497703928136 42.479373124558251 0 0.64278761758704617 0.76604443648966558 1 0 0 forward_v I I I I #
loop $-1 $-1 $155 $37 #
coedge $-1 $96 $96 $97 $156 reversed $58 $-1 #
coedge $-1 $97 $97 $96 $156 forward $60 $-1 #
coedge $-1 $98 $98 $61 $99 forward $93 $-1 #
edge $-1 $157 -1.9917095705512357e-015 $157 6.2831853071795987 $98 $158 forward 7 unknown #
face $-1 $159 $160 $15 $-1 $161 reversed single #
loop $-1 $-1 $162 $62 #
plane-surface $-1 -59.255958738975188 0 0 1 0 0 0 0 -1 forward_v I I I I #
coedge $-1 $163 $111 $164 $165 forward $63 $-1 #
coedge $-1 $166 $65 $163 $167 forward $41 $-1 #
coedge $-1 $65 $166 $168 $169 forward $41 $-1 #
coedge $-1 $114 $113 $65 $107 reversed $115 $-1 #
edge $-1 $170 -26.693844628620649 $171 26.693844628620649 $106 $172 forward 7 unknown #
coedge $-1 $67 $66 $173 $174 forward $26 $-1 #
coedge $-1 $175 $176 $66 $110 reversed $160 $-1 #
edge $-1 $117 -59.255958738975188 $177 59.255958738975188 $109 $178 forward 7 unknown #
coedge $-1 $103 $179 $67 $112 reversed $63 $-1 #
edge $-1 $180 -59.255958738975188 $116 59.255958738975188 $111 $181 forward 7 unknown #
coedge $-1 $106 $68 $179 $182 forward $115 $-1 #
coedge $-1 $68 $106 $175 $183 reversed $115 $-1 #
loop $-1 $-1 $113 $159 #
vertex $-1 $69 $184 #
vertex $-1 $69 $185 #
straight-curve $-1 59.255958738975188 0 12.547988831620781 0 1 0 I I #
face $-1 $186 $187 $16 $-1 $188 reversed single #
loop $-1 $-1 $189 $70 #
plane-surface $-1 -59.255958738975188 0 0 1 0 0 0 0 -1 forward_v I I I I #
coedge $-1 $130 $190 $124 $191 forward $71 $-1 #
coedge $-1 $76 $73 $192 $193 reversed $45 $-1 #
coedge $-1 $73 $76 $122 $191 reversed $45 $-1 #
coedge $-1 $194 $195 $73 $126 forward $196 $-1 #
edge $-1 $197 -12.547988831620781 $198 12.547988831620781 $125 $199 forward 7 unknown #
coedge $-1 $75 $74 $189 $200 reversed $29 $-1 #
coedge $-1 $192 $201 $74 $129 forward $187 $-1 #
edge $-1 $202 -31.087673465038925 $133 -25.248897082833601 $128 $203 forward 7 unknown #
coedge $-1 $204 $122 $75 $131 forward $71 $-1 #
edge $-1 $132 25.248897082833601 $205 31.087673465038925 $130 $206 forward 7 unknown #
vertex $-1 $131 $207 #
vertex $-1 $129 $208 #
straight-curve $-1 -53.417182356769864 -18.099527294959163 0 0 0 -1 I I #
face $-1 $-1 $147 $17 $-1 $209 forward single #
loop $-1 $-1 $210 $78 #
plane-surface $-1 0 26.693844628620649 0 0 -1 0 0 0 -1 forward_v I I I I #
coedge $-1 $211 $212 $213 $214 reversed $79 $-1 #
coedge $-1 $215 $81 $83 $145 forward $49 $-1 #
coedge $-1 $81 $215 $211 $216 forward $49 $-1 #
coedge $-1 $213 $84 $81 $142 forward $147 $-1 #
edge $-1 $149 -2.4633367437987452 $217 19.12791646119776 $141 $218 forward 7 unknown #
coedge $-1 $219 $220 $82 $144 forward $136 $-1 #
edge $-1 $221 -58.469956544713675 $148 -54.084395251511467 $143 $222 forward 7 unknown #
edge $-1 $149 46.564967143107992 $221 53.387689257241306 $83 $223 forward 7 unknown #
coedge $-1 $84 $213 $219 $224 forward $147 $-1 #
loop $-1 $-1 $213 $135 #
vertex $-1 $144 $225 #
vertex $-1 $85 $226 #
straight-curve $-1 5.8689531149007621 30.987247693698109 12.547988831620785 0 -1 0 I I #
coedge $-1 $151 $151 $-1 $227 reversed $88 $-1 #
edge $-1 $228 0 $228 6.2831853071796004 $89 $229 forward 7 unknown #
vertex $-1 $92 $230 #
ellipse-curve $-1 12.037882602042608 24.080590469997233 10.355208185019674 0 0.64278761758704617 0.76604443648966558 1.5 0 0 1 I I #
coedge $-1 $155 $155 $-1 $231 reversed $95 $-1 #
edge $-1 $232 0 $232 6.2831853071796004 $96 $233 forward 7 unknown #
vertex $-1 $99 $234 #
ellipse-curve $-1 21.291276832755393 24.080590469997233 10.355208185019674 0 0.64278761758704617 0.76604443648966558 1.5 0 0 1 I I #
face $-1 $-1 $115 $15 $-1 $235 reversed single #
loop $-1 $-1 $175 $100 #
plane-surface $-1 0 26.693844628620649 0 0 -1 0 0 0 -1 forward_v I I I I #
coedge $-1 $236 $173 $176 $237 forward $101 $-1 #
coedge $-1 $179 $103 $104 $167 reversed $63 $-1 #
coedge $-1 $173 $236 $103 $165 reversed $101 $-1 #
edge $-1 $180 -12.547988831620781 $238 12.547988831620781 $164 $239 forward 7 unknown #
coedge $-1 $105 $104 $236 $240 forward $41 $-1 #
edge $-1 $171 -59.255958738975188 $238 59.255958738975188 $163 $241 forward 7 unknown #
coedge $-1 $176 $175 $105 $169 reversed $160 $-1 #
edge $-1 $242 -59.255958738975188 $170 59.255958738975188 $168 $243 forward 7 unknown #
vertex $-1 $107 $244 #
vertex $-1 $182 $245 #
straight-curve $-1 59.255958738975188 0 -12.547988831620781 0 -1 0 I I #
coedge $-1 $162 $164 $108 $174 reversed $101 $-1 #
edge $-1 $177 -26.693844628620649 $180 26.693844628620649 $173 $246 forward 7 unknown #
coedge $-1 $168 $109 $114 $183 forward $160 $-1 #
coedge $-1 $109 $168 $162 $237 reversed $160 $-1 #
vertex $-1 $110 $247 #
straight-curve $-1 0 26.693844628620649 12.547988831620781 -1 0 0 I I #
coedge $-1 $111 $163 $113 $182 reversed $63 $-1 #
vertex $-1 $174 $248 #
straight-curve $-1 0 -26.693844628620649 12.547988831620781 1 0 0 I I #
edge $-1 $116 -12.547988831620781 $171 12.547988831620781 $113 $249 forward 7 unknown #
edge $-1 $117 -12.547988831620781 $170 12.547988831620781 $114 $250 forward 7 unknown #
point $-1 59.255958738975188 -26.693844628620649 12.547988831620781 #
point $-1 59.255958738975188 26.693844628620649 12.547988831620781 #
face $-1 $-1 $196 $16 $-1 $251 reversed single #
loop $-1 $-1 $192 $119 #
plane-surface $-1 0 0 -12.547988831620781 0 0 1 1 0 0 forward_v I I I I #
coedge $-1 $252 $253 $127 $200 forward $120 $-1 #
coedge $-1 $122 $204 $194 $254 forward $71 $-1 #
edge $-1 $198 -15.495501647725696 $132 -6.90118431406421 $122 $255 forward 7 unknown #
coedge $-1 $256 $128 $123 $193 forward $187 $-1 #
edge $-1 $133 6.90118431406421 $197 15.495501647725696 $192 $257 forward 7 unknown #
coedge $-1 $258 $125 $190 $254 reversed $196 $-1 #
coedge $-1 $125 $258 $256 $259 reversed $196 $-1 #
loop $-1 $-1 $125 $186 #
vertex $-1 $259 $260 #
vertex $-1 $126 $261 #
straight-curve $-1 -53.417182356769864 -26.693844628620649 0 0 0 1 I I #
edge $-1 $205 -12.547988831620781 $202 12.547988831620781 $189 $262 forward 7 unknown #
coedge $-1 $128 $256 $252 $263 forward $187 $-1 #
vertex $-1 $129 $264 #
straight-curve $-1 -28.168285273936263 -18.099527294959163 -12.547988831620781 1 0 0 I I #
coedge $-1 $190 $130 $253 $265 forward $71 $-1 #
vertex $-1 $265 $266 #
straight-curve $-1 -28.168285273936263 -18.099527294959163 12.547988831620781 -1 0 0 I I #
point $-1 -53.417182356769864 -18.099527294959163 12.547988831620781 #
point $-1 -53.417182356769864 -18.099527294959163 -12.547988831620781 #
plane-surface $-1 0 0 12.547988831620781 0 0 1 1 0 0 forward_v I I I I #
coedge $-1 $220 $219 $212 $267 forward $136 $-1 #
coedge $-1 $212 $138 $140 $216 reversed $79 $-1 #
coedge $-1 $138 $211 $210 $267 reversed $79 $-1 #
coedge $-1 $146 $141 $138 $214 forward $147 $-1 #
edge $-1 $217 -9.5199113823242882 $268 -4.2934030650774595 $213 $269 forward 7 unknown #
coedge $-1 $140 $139 $220 $270 reversed $49 $-1 #
edge $-1 $271 -53.387689257241306 $217 -46.564967143107992 $211 $272 forward 7 unknown #
vertex $-1 $142 $273 #
straight-curve $-1 8.3322898586995073 21.467336311373817 12.547988831620785 1 0 0 I I #
coedge $-1 $210 $143 $146 $224 reversed $136 $-1 #
coedge $-1 $143 $210 $215 $270 forward $136 $-1 #
vertex $-1 $144 $274 #
straight-curve $-1 5.8689531149007621 26.693844628620649 66.632384083132251 0 0 1 I I #
straight-curve $-1 5.8689531149007621 -14.203497703928136 42.479373124558251 0 0.76604443648966558 -0.64278761758704617 I I #
edge $-1 $268 -27.460206319897267 $148 -5.8689531149007621 $219 $275 forward 7 unknown #
point $-1 5.8689531149007621 26.693844628620649 12.547988831620781 #
point $-1 5.8689531149007621 21.46733631137382 12.547988831620781 #
edge $-1 $276 1 $276 0 $151 $-1 forward 7 unknown #
vertex $-1 $152 $277 #
ellipse-curve $-1 12.037882602042608 22.004747612688249 7.8813150539762562 0 0.64278761758704617 0.76604443648966558 1.5 0 0 1 I I #
point $-1 13.537882602042608 24.080590469997237 10.355208185019682 #
edge $-1 $278 1 $278 0 $155 $-1 forward 7 unknown #
vertex $-1 $156 $279 #
ellipse-curve $-1 21.291276832755393 22.004747612688249 7.8813150539762562 0 0.64278761758704617 0.76604443648966558 1.5 0 0 1 I I #
point $-1 22.791276832755393 24.080590469997237 10.355208185019682 #
plane-surface $-1 59.255958738975188 0 0 -1 0 0 0 0 1 forward_v I I I I #
coedge $-1 $164 $162 $166 $240 reversed $101 $-1 #
edge $-1 $177 -12.547988831620781 $242 12.547988831620781 $176 $280 forward 7 unknown #
vertex $-1 $240 $281 #
straight-curve $-1 -59.255958738975188 -26.693844628620649 0 0 0 -1 I I #
edge $-1 $238 -26.693844628620649 $242 26.693844628620649 $236 $282 forward 7 unknown #
straight-curve $-1 0 -26.693844628620649 -12.547988831620781 -1 0 0 I I #
vertex $-1 $169 $283 #
straight-curve $-1 0 26.693844628620649 -12.547988831620781 1 0 0 I I #
point $-1 59.255958738975188 26.693844628620649 -12.547988831620781 #
point $-1 59.255958738975188 -26.693844628620649 -12.547988831620781 #
straight-curve $-1 -59.255958738975188 0 12.547988831620781 0 -1 0 I I #
point $-1 -59.255958738975188 26.693844628620649 12.547988831620781 #
point $-1 -59.255958738975188 -26.693844628620649 12.547988831620781 #
straight-curve $-1 59.255958738975188 -26.693844628620649 0 0 0 -1 I I #
straight-curve $-1 59.255958738975188 26.693844628620649 0 0 0 -1 I I #
plane-surface $-1 0 -26.693844628620649 0 0 1 0 0 0 1 forward_v I I I I #
coedge $-1 $284 $189 $201 $263 reversed $120 $-1 #
coedge $-1 $189 $284 $204 $265 reversed $120 $-1 #
edge $-1 $285 -59.255958738975188 $198 -53.417182356769864 $194 $286 forward 7 unknown #
straight-curve $-1 -53.417182356769864 -11.198342980894953 12.547988831620781 0 1 0 I I #
coedge $-1 $201 $192 $195 $259 forward $187 $-1 #
straight-curve $-1 -53.417182356769864 -11.198342980894953 -12.547988831620781 0 -1 0 I I #
coedge $-1 $195 $194 $284 $287 forward $196 $-1 #
edge $-1 $197 53.417182356769864 $288 59.255958738975188 $195 $289 forward 7 unknown #
point $-1 -53.417182356769864 -26.693844628620649 -12.547988831620781 #
point $-1 -53.417182356769864 -26.693844628620649 12.547988831620781 #
straight-curve $-1 -59.255958738975188 -18.099527294959163 0 0 0 -1 I I #
edge $-1 $288 -26.693844628620649 $202 -18.099527294959163 $252 $290 forward 7 unknown #
point $-1 -59.255958738975188 -18.099527294959163 -12.547988831620781 #
edge $-1 $205 18.099527294959163 $285 26.693844628620649 $253 $291 forward 7 unknown #
point $-1 -59.255958738975188 -18.099527294959163 12.547988831620781 #
edge $-1 $268 54.084395251511467 $271 58.469956544713675 $210 $292 forward 7 unknown #
vertex $-1 $224 $293 #
straight-curve $-1 27.460206319897267 30.987247693698109 12.547988831620785 0 1 0 I I #
edge $-1 $271 -19.12791646119776 $221 2.4633367437987452 $220 $294 forward 7 unknown #
vertex $-1 $270 $295 #
straight-curve $-1 27.460206319897267 -14.203497703928136 42.479373124558251 0 -0.76604443648966558 0.64278761758704617 I I #
point $-1 27.460206319897267 21.46733631137382 12.547988831620781 #
point $-1 5.8689531149007621 26.693844628620653 8.1624275384185765 #
straight-curve $-1 0 26.693844628620649 12.547988831620781 -1 0 0 I I #
vertex $-1 $227 $296 #
point $-1 13.537882602042608 22.004747612688249 7.8813150539762562 #
vertex $-1 $231 $297 #
point $-1 22.791276832755393 22.004747612688249 7.8813150539762562 #
straight-curve $-1 -59.255958738975188 26.693844628620649 0 0 0 -1 I I #
point $-1 -59.255958738975188 -26.693844628620649 -12.547988831620781 #
straight-curve $-1 -59.255958738975188 0 -12.547988831620781 0 1 0 I I #
point $-1 -59.255958738975188 26.693844628620649 -12.547988831620781 #
coedge $-1 $253 $252 $258 $287 reversed $120 $-1 #
vertex $-1 $265 $298 #
straight-curve $-1 0 -26.693844628620649 12.547988831620781 1 0 0 I I #
edge $-1 $285 -12.547988831620781 $288 12.547988831620781 $284 $299 forward 7 unknown #
vertex $-1 $263 $300 #
straight-curve $-1 0 -26.693844628620649 -12.547988831620781 -1 0 0 I I #
straight-curve $-1 -59.255958738975188 0 -12.547988831620781 0 1 0 I I #
straight-curve $-1 -59.255958738975188 0 12.547988831620781 0 -1 0 I I #
straight-curve $-1 27.460206319897267 26.693844628620649 66.632384083132251 0 0 -1 I I #
point $-1 27.460206319897267 26.693844628620649 12.547988831620781 #
straight-curve $-1 8.3322898586995073 26.693844628620646 8.1624275384185747 -1 0 0 I I #
point $-1 27.460206319897267 26.693844628620653 8.1624275384185765 #
point $-1 12.037882602042608 21.040566186307679 6.7322483992417572 #
point $-1 21.291276832755393 21.040566186307679 6.7322483992417572 #
point $-1 -59.255958738975188 -26.693844628620649 12.547988831620781 #
straight-curve $-1 -59.255958738975188 -26.693844628620649 0 0 0 -1 I I #
point $-1 -59.255958738975188 -26.693844628620649 -12.547988831620781 #
End-of-ACIS-data 