500 0 5 0           
7 Unknown 11 ACIS 5.0 NT 24 Thu Mar 25 22:59:39 1999 
-1 9.9999999999999995e-007 1e-010 
body $-1 $5 $-1 $6 #
body $-1 $7 $-1 $8 #
body $-1 $9 $-1 $10 #
body $-1 $11 $-1 $12 #
body $-1 $13 $-1 $14 #
lump $-1 $-1 $15 $0 #
transform $-1 1 0 0 0 1 0 0 0 1 78.358104190191341 54.438161169078391 12.822963937842884 1 rotate no_reflect no_shear #
lump $-1 $-1 $16 $1 #
transform $-1 1 0 0 0 1 0 0 0 1 78.358104190191341 54.438161169078391 12.822963937842884 1 rotate no_reflect no_shear #
lump $-1 $-1 $17 $2 #
transform $-1 1 0 0 0 1 0 0 0 1 78.358104190191341 54.438161169078391 12.822963937842884 1 rotate no_reflect no_shear #
lump $-1 $-1 $18 $3 #
transform $-1 1 0 0 0 1 0 0 0 1 78.358104190191341 54.438161169078391 12.822963937842884 1 rotate no_reflect no_shear #
lump $-1 $-1 $19 $4 #
transform $-1 1 0 0 0 1 0 0 0 1 78.358104190191341 54.438161169078391 12.822963937842884 1 rotate no_reflect no_shear #
shell $-1 $-1 $-1 $20 $-1 $5 #
shell $-1 $-1 $-1 $21 $-1 $7 #
shell $-1 $-1 $-1 $22 $-1 $9 #
shell $-1 $-1 $-1 $23 $-1 $11 #
shell $-1 $-1 $-1 $24 $-1 $13 #
face $-1 $25 $26 $15 $-1 $27 forward single #
face $-1 $28 $29 $16 $-1 $30 reversed single #
face $-1 $31 $32 $17 $-1 $33 forward single #
face $-1 $34 $35 $18 $-1 $36 reversed single #
face $-1 $37 $38 $19 $-1 $39 reversed single #
face $-1 $40 $41 $15 $-1 $42 reversed single #
loop $-1 $-1 $43 $20 #
plane-surface $-1 0 0 12.822963937842884 0 0 1 1 0 0 forward_v I I I I #
face $-1 $44 $45 $16 $-1 $46 forward single #
loop $-1 $-1 $47 $21 #
plane-surface $-1 -71.909296427013743 0 -2.5232901870540037 0 0 1 1 0 0 forward_v I I I I #
face $-1 $48 $49 $17 $-1 $50 forward single #
loop $-1 $-1 $51 $22 #
plane-surface $-1 24.943897127409109 -142.07275389319003 135.75828551677739 1 0 0 0 0.55919291073839883 -0.82903756765294845 forward_v I I I I #
face $-1 $52 $53 $18 $-1 $54 reversed single #
loop $-1 $55 $56 $23 #
cone-surface $-1 31.644090787056086 -48.088550405395431 7.5952266810369666 0 0.55919291073839883 -0.82903756765294845 3 0 0 1 I I 0 1 3 forward I I I I #
face $-1 $57 $58 $19 $-1 $59 reversed single #
loop $-1 $60 $61 $24 #
cone-surface $-1 41.694381276526542 -48.088550405395431 7.5952266810369666 0 0.55919291073839883 -0.82903756765294845 3 0 0 1 I I 0 1 3 forward I I I I #
face $-1 $62 $63 $15 $-1 $64 reversed single #
loop $-1 $-1 $65 $25 #
plane-surface $-1 0 0 -12.822963937842884 0 0 1 1 0 0 forward_v I I I I #
coedge $-1 $66 $67 $68 $69 forward $26 $-1 #
face $-1 $70 $71 $16 $-1 $72 forward single #
loop $-1 $-1 $73 $28 #
plane-surface $-1 -71.909296427013743 0 -9.238724183641164 0 0 1 1 0 0 forward_v I I I I #
coedge $-1 $74 $75 $76 $77 reversed $29 $-1 #
face $-1 $78 $79 $17 $-1 $80 forward single #
loop $-1 $-1 $81 $31 #
plane-surface $-1 36.669236031791314 -54.438161169078384 5.8346613093123096 0 -0.55919291073839883 0.82903756765294845 1 0 0 forward_v I I I I #
coedge $-1 $82 $83 $84 $85 reversed $32 $-1 #
face $-1 $86 $87 $18 $-1 $88 forward single #
loop $-1 $89 $90 $34 #
cone-surface $-1 31.644090787056086 -46.080442534254445 4.618084387016923 0 0.55919291073839883 -0.82903756765294845 1.5 0 0 1 I I -0.70710678118654757 0.70710678118654757 1.5 forward I I I I #
loop $-1 $-1 $91 $23 #
coedge $-1 $56 $56 $92 $93 reversed $35 $-1 #
face $-1 $94 $95 $19 $-1 $96 reversed single #
loop $-1 $97 $98 $37 #
cone-surface $-1 41.694381276526542 -46.080442534254445 4.618084387016923 0 0.55919291073839883 -0.82903756765294845 1.5 0 0 1 I I -0.70710678118654757 0.70710678118654757 1.5 forward I I I I #
loop $-1 $-1 $99 $24 #
coedge $-1 $61 $61 $100 $101 reversed $38 $-1 #
face $-1 $102 $103 $15 $-1 $104 reversed single #
loop $-1 $-1 $105 $40 #
plane-surface $-1 0 -54.438161169078391 0 0 1 0 0 0 1 forward_v I I I I #
coedge $-1 $106 $107 $108 $109 forward $41 $-1 #
coedge $-1 $110 $43 $111 $112 forward $26 $-1 #
coedge $-1 $43 $110 $113 $114 forward $26 $-1 #
coedge $-1 $115 $116 $43 $69 reversed $117 $-1 #
edge $-1 $118 -54.438161169078391 $119 54.438161169078391 $68 $120 forward 7 unknown #
face $-1 $121 $122 $16 $-1 $123 reversed single #
loop $-1 $-1 $124 $44 #
plane-surface $-1 -65.460488663836145 0 -5.8810071853475838 -1 0 0 0 0 1 forward_v I I I I #
coedge $-1 $125 $126 $127 $128 reversed $45 $-1 #
coedge $-1 $129 $47 $130 $131 reversed $29 $-1 #
coedge $-1 $47 $129 $132 $133 reversed $29 $-1 #
coedge $-1 $134 $124 $47 $77 forward $71 $-1 #
edge $-1 $135 -54.438161169078391 $136 54.438161169078391 $76 $137 forward 7 unknown #
face $-1 $138 $139 $17 $-1 $140 reversed single #
loop $-1 $-1 $141 $48 #
plane-surface $-1 48.39457493617352 -142.07275389319003 135.75828551677739 -1 0 0 0 -0.55919291073839883 0.82903756765294845 forward_v I I I I #
coedge $-1 $142 $143 $144 $145 reversed $49 $-1 #
coedge $-1 $83 $51 $143 $146 forward $32 $-1 #
coedge $-1 $51 $82 $147 $148 reversed $32 $-1 #
coedge $-1 $149 $144 $51 $85 forward $139 $-1 #
edge $-1 $150 -62.044481449076393 $151 -55.05617882054581 $84 $152 forward 7 unknown #
face $-1 $153 $154 $18 $-1 $155 forward single #
loop $-1 $-1 $156 $52 #
plane-surface $-1 24.943897127409109 -142.07275389319003 135.75828551677739 1 0 0 0 0.55919291073839883 -0.82903756765294845 forward_v I I I I #
loop $-1 $-1 $157 $34 #
coedge $-1 $90 $90 $91 $158 forward $53 $-1 #
coedge $-1 $91 $91 $90 $158 reversed $55 $-1 #
coedge $-1 $92 $92 $56 $93 forward $154 $-1 #
edge $-1 $159 1.3244348687123848e-015 $159 6.2831853071796013 $92 $160 forward 7 unknown #
face $-1 $161 $162 $19 $-1 $163 reversed single #
loop $-1 $164 $165 $57 #
cone-surface $-1 31.644090787056086 -48.088550405395431 7.5952266810369666 0 0.55919291073839883 -0.82903756765294845 3 0 0 1 I I 0 1 3 forward I I I I #
loop $-1 $-1 $166 $37 #
coedge $-1 $98 $98 $99 $167 forward $58 $-1 #
coedge $-1 $99 $99 $98 $167 reversed $60 $-1 #
coedge $-1 $100 $100 $61 $101 forward $168 $-1 #
edge $-1 $169 1.3244348687123848e-015 $169 6.2831853071796013 $100 $170 forward 7 unknown #
face $-1 $171 $172 $15 $-1 $173 reversed single #
loop $-1 $-1 $174 $62 #
plane-surface $-1 -78.358104190191341 0 0 1 0 0 0 0 -1 forward_v I I I I #
coedge $-1 $175 $113 $176 $177 forward $63 $-1 #
coedge $-1 $178 $65 $175 $179 forward $41 $-1 #
coedge $-1 $65 $178 $180 $181 forward $41 $-1 #
coedge $-1 $116 $115 $65 $109 reversed $117 $-1 #
edge $-1 $182 -54.438161169078391 $183 54.438161169078391 $108 $184 forward 7 unknown #
coedge $-1 $67 $66 $185 $186 forward $26 $-1 #
coedge $-1 $187 $188 $66 $112 reversed $172 $-1 #
edge $-1 $119 -78.358104190191341 $189 78.358104190191341 $111 $190 forward 7 unknown #
coedge $-1 $105 $191 $67 $114 reversed $63 $-1 #
edge $-1 $192 -78.358104190191341 $118 78.358104190191341 $113 $193 forward 7 unknown #
coedge $-1 $108 $68 $191 $194 forward $117 $-1 #
coedge $-1 $68 $108 $187 $195 reversed $117 $-1 #
loop $-1 $-1 $115 $171 #
vertex $-1 $69 $196 #
vertex $-1 $69 $197 #
straight-curve $-1 78.358104190191341 0 12.822963937842884 0 1 0 I I #
face $-1 $198 $199 $16 $-1 $123 reversed single #
loop $-1 $-1 $200 $70 #
plane-surface $-1 -78.358104190191341 0 0 1 0 0 0 0 -1 forward_v I I I I #
coedge $-1 $76 $127 $201 $202 reversed $71 $-1 #
coedge $-1 $203 $73 $204 $205 reversed $45 $-1 #
coedge $-1 $73 $203 $206 $207 reversed $45 $-1 #
coedge $-1 $124 $134 $73 $128 forward $71 $-1 #
edge $-1 $208 -54.438161169078391 $209 54.438161169078391 $127 $210 forward 7 unknown #
coedge $-1 $75 $74 $211 $212 reversed $29 $-1 #
coedge $-1 $201 $213 $74 $131 forward $214 $-1 #
edge $-1 $215 -42.403455976684469 $135 -29.505840450329273 $130 $216 forward 7 unknown #
coedge $-1 $217 $218 $75 $133 forward $219 $-1 #
edge $-1 $136 29.505840450329273 $220 42.403455976684469 $132 $221 forward 7 unknown #
coedge $-1 $127 $76 $218 $222 reversed $71 $-1 #
vertex $-1 $131 $223 #
vertex $-1 $133 $224 #
straight-curve $-1 -65.460488663836145 0 -2.5232901870540037 0 1 0 I I #
face $-1 $225 $226 $17 $-1 $227 reversed single #
loop $-1 $-1 $228 $78 #
plane-surface $-1 0 -54.438161169078391 0 0 1 0 0 0 1 forward_v I I I I #
coedge $-1 $229 $230 $228 $231 reversed $79 $-1 #
coedge $-1 $232 $81 $230 $233 reversed $49 $-1 #
coedge $-1 $81 $232 $82 $146 reversed $49 $-1 #
coedge $-1 $84 $228 $81 $145 forward $139 $-1 #
edge $-1 $234 -30.059956920277862 $150 -6.6092791115134517 $144 $235 forward 7 unknown #
edge $-1 $150 -8.3739815925159718e-015 $236 12.49712307565329 $82 $237 forward 7 unknown #
coedge $-1 $238 $239 $83 $148 forward $240 $-1 #
edge $-1 $151 16.598215777516621 $236 26.958800294815767 $147 $241 forward 7 unknown #
coedge $-1 $242 $84 $239 $243 reversed $139 $-1 #
vertex $-1 $145 $244 #
vertex $-1 $148 $245 #
straight-curve $-1 24.943897127409109 -54.438161169078391 67.879142758388696 0 0 1 I I #
face $-1 $246 $247 $18 $-1 $248 forward single #
loop $-1 $249 $92 $86 #
plane-surface $-1 36.669236031791314 -54.438161169078384 5.8346613093123096 0 -0.55919291073839883 0.82903756765294845 1 0 0 forward_v I I I I #
coedge $-1 $250 $251 $252 $253 reversed $87 $-1 #
coedge $-1 $157 $157 $-1 $254 forward $89 $-1 #
edge $-1 $255 0 $255 6.2831853071796004 $90 $256 forward 7 unknown #
vertex $-1 $93 $257 #
ellipse-curve $-1 31.644090787056086 -49.257868910428819 9.3288126235775941 0 0.55919291073839883 -0.82903756765294845 3 0 0 1 I I #
face $-1 $258 $259 $19 $-1 $260 forward single #
loop $-1 $261 $262 $94 #
cone-surface $-1 31.644090787056086 -46.080442534254445 4.618084387016923 0 0.55919291073839883 -0.82903756765294845 1.5 0 0 1 I I -0.70710678118654757 0.70710678118654757 1.5 forward I I I I #
loop $-1 $-1 $263 $57 #
coedge $-1 $165 $165 $264 $265 reversed $95 $-1 #
coedge $-1 $166 $166 $-1 $266 forward $97 $-1 #
edge $-1 $267 0 $267 6.2831853071796004 $98 $268 forward 7 unknown #
loop $-1 $269 $100 $258 #
vertex $-1 $101 $270 #
ellipse-curve $-1 41.694381276526542 -49.257868910428819 9.3288126235775941 0 0.55919291073839883 -0.82903756765294845 3 0 0 1 I I #
face $-1 $-1 $117 $15 $-1 $271 reversed single #
loop $-1 $-1 $187 $102 #
plane-surface $-1 0 54.438161169078391 0 0 -1 0 0 0 -1 forward_v I I I I #
coedge $-1 $272 $185 $188 $273 forward $103 $-1 #
coedge $-1 $191 $105 $106 $179 reversed $63 $-1 #
coedge $-1 $185 $272 $105 $177 reversed $103 $-1 #
edge $-1 $192 -12.822963937842884 $274 12.822963937842884 $176 $275 forward 7 unknown #
coedge $-1 $107 $106 $272 $276 forward $41 $-1 #
edge $-1 $183 -78.358104190191341 $274 78.358104190191341 $175 $277 forward 7 unknown #
coedge $-1 $188 $187 $107 $181 reversed $172 $-1 #
edge $-1 $278 -78.358104190191341 $182 78.358104190191341 $180 $279 forward 7 unknown #
vertex $-1 $109 $280 #
vertex $-1 $194 $281 #
straight-curve $-1 78.358104190191341 0 -12.822963937842884 0 -1 0 I I #
coedge $-1 $174 $176 $110 $186 reversed $103 $-1 #
edge $-1 $189 -54.438161169078391 $192 54.438161169078391 $185 $282 forward 7 unknown #
coedge $-1 $180 $111 $116 $195 forward $172 $-1 #
coedge $-1 $111 $180 $174 $273 reversed $172 $-1 #
vertex $-1 $112 $283 #
straight-curve $-1 0 54.438161169078391 12.822963937842884 -1 0 0 I I #
coedge $-1 $113 $175 $115 $194 reversed $63 $-1 #
vertex $-1 $186 $284 #
straight-curve $-1 0 -54.438161169078391 12.822963937842884 1 0 0 I I #
edge $-1 $118 -12.822963937842884 $183 12.822963937842884 $115 $285 forward 7 unknown #
edge $-1 $119 -12.822963937842884 $182 12.822963937842884 $116 $286 forward 7 unknown #
point $-1 78.358104190191341 -54.438161169078391 12.822963937842884 #
point $-1 78.358104190191341 54.438161169078391 12.822963937842884 #
face $-1 $287 $214 $16 $-1 $288 reversed single #
loop $-1 $-1 $211 $121 #
coedge $-1 $289 $290 $203 $291 forward $122 $-1 #
coedge $-1 $206 $130 $124 $202 forward $214 $-1 #
edge $-1 $135 -0.41721340561978826 $209 6.2982205909673716 $201 $292 forward 7 unknown #
coedge $-1 $126 $125 $200 $291 reversed $45 $-1 #
coedge $-1 $218 $293 $125 $205 forward $219 $-1 #
edge $-1 $294 -42.403455976684469 $208 -29.505840450329273 $204 $295 forward 7 unknown #
coedge $-1 $296 $201 $126 $207 forward $214 $-1 #
edge $-1 $209 29.505840450329273 $297 42.403455976684469 $206 $298 forward 7 unknown #
vertex $-1 $205 $299 #
vertex $-1 $207 $300 #
straight-curve $-1 -65.460488663836145 0 -9.238724183641164 0 -1 0 I I #
coedge $-1 $301 $302 $129 $212 forward $199 $-1 #
edge $-1 $220 -54.438161169078391 $215 54.438161169078391 $211 $303 forward 7 unknown #
coedge $-1 $130 $304 $301 $305 forward $214 $-1 #
loop $-1 $-1 $130 $198 #
vertex $-1 $131 $306 #
straight-curve $-1 -35.954648213506871 -54.438161169078391 -2.5232901870540037 1 0 0 I I #
coedge $-1 $307 $132 $302 $308 reversed $219 $-1 #
coedge $-1 $132 $204 $134 $222 forward $219 $-1 #
loop $-1 $-1 $132 $309 #
vertex $-1 $212 $310 #
straight-curve $-1 -35.954648213506871 54.438161169078391 -2.5232901870540037 -1 0 0 I I #
edge $-1 $208 -6.2982205909673716 $136 0.41721340561978826 $218 $311 forward 7 unknown #
point $-1 -65.460488663836145 -54.438161169078391 -2.5232901870540037 #
point $-1 -65.460488663836145 54.438161169078391 -2.5232901870540037 #
face $-1 $312 $313 $17 $-1 $314 forward single #
loop $-1 $-1 $315 $138 #
plane-surface $-1 -71.909296427013743 0 -2.5232901870540037 0 0 1 1 0 0 forward_v I I I I #
coedge $-1 $144 $316 $141 $231 forward $139 $-1 #
coedge $-1 $230 $141 $317 $318 reversed $79 $-1 #
coedge $-1 $141 $229 $142 $233 forward $79 $-1 #
edge $-1 $319 55.05617882054581 $234 62.044481449076393 $228 $320 forward 7 unknown #
coedge $-1 $143 $142 $238 $321 reversed $49 $-1 #
edge $-1 $322 -12.49712307565329 $234 8.3739815925159718e-015 $230 $323 forward 7 unknown #
vertex $-1 $145 $324 #
straight-curve $-1 18.334618015895657 -54.438161169078391 5.8346613093123034 -1 0 0 I I #
vertex $-1 $321 $325 #
straight-curve $-1 24.943897127409109 -54.438161169078384 5.8346613093123096 0 0.82903756765294845 0.55919291073839883 I I #
coedge $-1 $317 $147 $232 $321 forward $240 $-1 #
coedge $-1 $147 $326 $149 $243 forward $240 $-1 #
loop $-1 $-1 $317 $327 #
straight-curve $-1 24.943897127409109 -71.036376946595013 12.822963937842886 0 1 0 I I #
coedge $-1 $328 $149 $329 $330 forward $139 $-1 #
edge $-1 $331 -78.358104190191341 $151 24.943897127409109 $149 $332 forward 7 unknown #
point $-1 24.943897127409109 -54.438161169078391 5.8346613093123052 #
point $-1 24.943897127409109 -54.438161169078391 12.822963937842884 #
face $-1 $333 $334 $18 $-1 $335 reversed single #
loop $-1 $-1 $336 $153 #
plane-surface $-1 48.39457493617352 -142.07275389319003 135.75828551677739 -1 0 0 0 -0.55919291073839883 0.82903756765294845 forward_v I I I I #
loop $-1 $-1 $337 $86 #
coedge $-1 $251 $156 $338 $339 forward $87 $-1 #
coedge $-1 $156 $250 $340 $341 reversed $87 $-1 #
coedge $-1 $342 $343 $156 $253 forward $334 $-1 #
edge $-1 $344 -62.044481449076393 $345 -55.05617882054581 $252 $346 forward 7 unknown #
edge $-1 $347 1 $347 0 $157 $-1 forward 7 unknown #
vertex $-1 $158 $348 #
ellipse-curve $-1 31.644090787056086 -46.919231900362043 5.8616407384963463 0 -0.55919291073839883 0.82903756765294845 3 0 0 1 I I #
point $-1 34.644090787056086 -49.257868910428819 9.328812623577587 #
face $-1 $349 $168 $19 $-1 $350 forward single #
loop $-1 $-1 $351 $161 #
plane-surface $-1 24.943897127409109 -142.07275389319003 135.75828551677739 1 0 0 0 0.55919291073839883 -0.82903756765294845 forward_v I I I I #
loop $-1 $-1 $352 $94 #
coedge $-1 $262 $262 $263 $353 forward $162 $-1 #
coedge $-1 $263 $263 $262 $353 reversed $164 $-1 #
coedge $-1 $264 $264 $165 $265 forward $269 $-1 #
edge $-1 $354 1.3244348687123848e-015 $354 6.2831853071796013 $264 $355 forward 7 unknown #
edge $-1 $356 1 $356 0 $166 $-1 forward 7 unknown #
vertex $-1 $167 $357 #
ellipse-curve $-1 41.694381276526542 -46.919231900362043 5.8616407384963463 0 -0.55919291073839883 0.82903756765294845 3 0 0 1 I I #
loop $-1 $358 $264 $258 #
point $-1 44.694381276526542 -49.257868910428819 9.328812623577587 #
plane-surface $-1 78.358104190191341 0 0 -1 0 0 0 0 1 forward_v I I I I #
coedge $-1 $176 $174 $178 $276 reversed $103 $-1 #
edge $-1 $189 -12.822963937842884 $278 12.822963937842884 $188 $359 forward 7 unknown #
vertex $-1 $276 $360 #
straight-curve $-1 -78.358104190191341 -54.438161169078391 0 0 0 -1 I I #
edge $-1 $274 -54.438161169078391 $278 54.438161169078391 $272 $361 forward 7 unknown #
straight-curve $-1 0 -54.438161169078391 -12.822963937842884 -1 0 0 I I #
vertex $-1 $181 $362 #
straight-curve $-1 0 54.438161169078391 -12.822963937842884 1 0 0 I I #
point $-1 78.358104190191341 54.438161169078391 -12.822963937842884 #
point $-1 78.358104190191341 -54.438161169078391 -12.822963937842884 #
straight-curve $-1 -78.358104190191341 0 12.822963937842884 0 -1 0 I I #
point $-1 -78.358104190191341 54.438161169078391 12.822963937842884 #
point $-1 -78.358104190191341 -54.438161169078391 12.822963937842884 #
straight-curve $-1 78.358104190191341 -54.438161169078391 0 0 0 -1 I I #
straight-curve $-1 78.358104190191341 54.438161169078391 0 0 0 -1 I I #
face $-1 $363 $364 $16 $-1 $365 forward single #
plane-surface $-1 0 -54.438161169078391 0 0 1 0 0 0 1 forward_v I I I I #
coedge $-1 $366 $200 $293 $367 forward $122 $-1 #
coedge $-1 $200 $366 $296 $368 reversed $122 $-1 #
edge $-1 $297 -54.438161169078391 $294 54.438161169078391 $200 $369 forward 7 unknown #
straight-curve $-1 -65.460488663836145 -54.438161169078391 -2.9405035926737919 0 0 -1 I I #
coedge $-1 $204 $370 $289 $367 reversed $219 $-1 #
vertex $-1 $367 $371 #
straight-curve $-1 -35.954648213506871 54.438161169078391 -9.238724183641164 1 0 0 I I #
coedge $-1 $372 $206 $290 $368 forward $214 $-1 #
vertex $-1 $368 $373 #
straight-curve $-1 -35.954648213506871 -54.438161169078391 -9.238724183641164 -1 0 0 I I #
point $-1 -65.460488663836145 54.438161169078391 -9.238724183641164 #
point $-1 -65.460488663836145 -54.438161169078391 -9.238724183641164 #
coedge $-1 $374 $211 $213 $305 reversed $199 $-1 #
coedge $-1 $211 $374 $217 $308 forward $199 $-1 #
straight-curve $-1 -78.358104190191341 0 -2.5232901870540037 0 -1 0 I I #
coedge $-1 $213 $375 $376 $377 reversed $214 $-1 #
edge $-1 $378 -12.822963937842884 $215 2.5232901870540037 $301 $379 forward 7 unknown #
point $-1 -78.358104190191341 -54.438161169078391 -2.5232901870540037 #
coedge $-1 $380 $217 $381 $382 reversed $219 $-1 #
edge $-1 $383 -12.822963937842884 $220 2.5232901870540037 $217 $384 forward 7 unknown #
face $-1 $385 $219 $16 $-1 $386 reversed single #
point $-1 -78.358104190191341 54.438161169078391 -2.5232901870540037 #
straight-curve $-1 -65.460488663836145 54.438161169078391 -2.9405035926737919 0 0 1 I I #
face $-1 $387 $388 $17 $-1 $389 forward single #
loop $-1 $-1 $390 $225 #
plane-surface $-1 -71.909296427013743 0 -9.238724183641164 0 0 1 1 0 0 forward_v I I I I #
coedge $-1 $391 $392 $393 $394 reversed $226 $-1 #
coedge $-1 $228 $395 $396 $397 reversed $139 $-1 #
coedge $-1 $396 $238 $229 $318 forward $240 $-1 #
edge $-1 $322 -26.958800294815767 $319 -16.598215777516621 $317 $398 forward 7 unknown #
vertex $-1 $397 $399 #
straight-curve $-1 48.39457493617352 -54.438161169078391 67.879142758388696 0 0 -1 I I #
edge $-1 $236 6.6092791115134517 $322 30.059956920277862 $238 $400 forward 7 unknown #
vertex $-1 $321 $401 #
straight-curve $-1 48.39457493617352 -54.438161169078384 5.8346613093123096 0 -0.82903756765294845 -0.55919291073839883 I I #
point $-1 48.39457493617352 -54.438161169078391 5.8346613093123052 #
point $-1 24.943897127409109 -44.077576651779246 12.822963937842884 #
coedge $-1 $239 $402 $403 $404 forward $240 $-1 #
face $-1 $405 $240 $17 $-1 $406 forward single #
coedge $-1 $407 $242 $391 $408 forward $139 $-1 #
coedge $-1 $403 $409 $242 $330 reversed $410 $-1 #
edge $-1 $331 -12.822963937842884 $411 2.5232901870540037 $329 $412 forward 7 unknown #
vertex $-1 $404 $413 #
straight-curve $-1 0 -54.438161169078391 12.822963937842884 1 0 0 I I #
face $-1 $414 $415 $18 $-1 $416 reversed single #
loop $-1 $-1 $417 $246 #
plane-surface $-1 0 -54.438161169078391 0 0 1 0 0 0 1 forward_v I I I I #
coedge $-1 $418 $419 $417 $420 reversed $247 $-1 #
coedge $-1 $421 $338 $343 $422 reversed $249 $-1 #
coedge $-1 $337 $423 $250 $339 reversed $249 $-1 #
edge $-1 $344 -8.3739815925159718e-015 $424 12.49712307565329 $250 $425 forward 7 unknown #
coedge $-1 $426 $427 $251 $341 forward $428 $-1 #
edge $-1 $345 16.598215777516621 $424 26.958800294815767 $340 $429 forward 7 unknown #
coedge $-1 $430 $252 $427 $431 reversed $334 $-1 #
coedge $-1 $252 $417 $337 $422 forward $334 $-1 #
vertex $-1 $422 $432 #
vertex $-1 $341 $433 #
straight-curve $-1 24.943897127409109 -54.438161169078391 67.879142758388696 0 0 1 I I #
vertex $-1 $254 $434 #
point $-1 34.644090787056086 -46.919231900362043 5.8616407384963463 #
face $-1 $435 $436 $19 $-1 $437 forward single #
plane-surface $-1 36.669236031791314 -54.438161169078384 5.8346613093123096 0 -0.55919291073839883 0.82903756765294845 1 0 0 forward_v I I I I #
coedge $-1 $438 $439 $440 $441 reversed $259 $-1 #
coedge $-1 $352 $352 $-1 $442 forward $261 $-1 #
edge $-1 $443 0 $443 6.2831853071796004 $262 $444 forward 7 unknown #
vertex $-1 $265 $445 #
ellipse-curve $-1 31.644090787056086 -49.257868910428819 9.3288126235775941 0 0.55919291073839883 -0.82903756765294845 3 0 0 1 I I #
vertex $-1 $266 $446 #
point $-1 44.694381276526542 -46.919231900362043 5.8616407384963463 #
loop $-1 $-1 $447 $258 #
straight-curve $-1 -78.358104190191341 54.438161169078391 0 0 0 -1 I I #
point $-1 -78.358104190191341 -54.438161169078391 -12.822963937842884 #
straight-curve $-1 -78.358104190191341 0 -12.822963937842884 0 1 0 I I #
point $-1 -78.358104190191341 54.438161169078391 -12.822963937842884 #
face $-1 $309 $448 $16 $-1 $449 reversed single #
loop $-1 $-1 $450 $287 #
plane-surface $-1 0 0 12.822963937842884 0 0 1 1 0 0 forward_v I I I I #
coedge $-1 $290 $289 $451 $452 reversed $122 $-1 #
edge $-1 $294 9.238724183641164 $453 12.822963937842884 $293 $384 forward 7 unknown #
edge $-1 $297 9.238724183641164 $454 12.822963937842884 $290 $379 forward 7 unknown #
straight-curve $-1 -78.358104190191341 0 -9.238724183641164 0 1 0 I I #
coedge $-1 $293 $380 $455 $456 reversed $219 $-1 #
point $-1 -78.358104190191341 54.438161169078391 -9.238724183641164 #
coedge $-1 $375 $296 $457 $458 reversed $214 $-1 #
point $-1 -78.358104190191341 -54.438161169078391 -9.238724183641164 #
coedge $-1 $302 $301 $459 $460 reversed $199 $-1 #
coedge $-1 $304 $372 $461 $462 reversed $214 $-1 #
coedge $-1 $450 $459 $304 $377 forward $364 $-1 #
edge $-1 $378 -78.358104190191341 $463 78.358104190191341 $304 $464 forward 7 unknown #
vertex $-1 $460 $465 #
straight-curve $-1 -78.358104190191341 -54.438161169078391 0 0 0 -1 I I #
coedge $-1 $370 $307 $466 $467 forward $219 $-1 #
coedge $-1 $459 $450 $307 $382 forward $364 $-1 #
edge $-1 $468 -78.358104190191341 $383 78.358104190191341 $307 $469 forward 7 unknown #
vertex $-1 $382 $470 #
straight-curve $-1 -78.358104190191341 54.438161169078391 0 0 0 -1 I I #
face $-1 $-1 $471 $16 $-1 $472 reversed single #
plane-surface $-1 0 54.438161169078391 0 0 -1 0 0 0 -1 forward_v I I I I #
face $-1 $473 $474 $17 $-1 $475 reversed single #
loop $-1 $-1 $476 $312 #
plane-surface $-1 -65.460488663836145 0 -5.8810071853475838 -1 0 0 0 0 1 forward_v I I I I #
coedge $-1 $477 $478 $479 $480 reversed $313 $-1 #
coedge $-1 $481 $315 $328 $408 reversed $226 $-1 #
coedge $-1 $315 $481 $482 $483 reversed $226 $-1 #
coedge $-1 $484 $476 $315 $394 forward $388 $-1 #
edge $-1 $485 -54.438161169078391 $486 54.438161169078391 $393 $487 forward 7 unknown #
coedge $-1 $316 $488 $489 $490 reversed $139 $-1 #
coedge $-1 $491 $317 $316 $397 forward $240 $-1 #
edge $-1 $319 48.39457493617352 $492 78.358104190191341 $316 $332 forward 7 unknown #
straight-curve $-1 48.39457493617352 -71.036376946595013 12.822963937842886 0 -1 0 I I #
point $-1 48.39457493617352 -54.438161169078391 12.822963937842884 #
straight-curve $-1 18.334618015895657 -44.077576651779246 12.822963937842884 1 0 0 I I #
point $-1 48.39457493617352 -44.077576651779246 12.822963937842884 #
coedge $-1 $326 $491 $493 $494 forward $240 $-1 #
coedge $-1 $495 $329 $326 $404 reversed $410 $-1 #
edge $-1 $496 -54.438161169078391 $331 54.438161169078391 $403 $497 forward 7 unknown #
face $-1 $498 $499 $17 $-1 $500 reversed single #
plane-surface $-1 0 0 12.822963937842884 0 0 1 1 0 0 forward_v I I I I #
coedge $-1 $501 $328 $476 $502 forward $139 $-1 #
edge $-1 $411 -42.403455976684469 $485 -29.505840450329273 $328 $503 forward 7 unknown #
coedge $-1 $329 $495 $481 $504 forward $410 $-1 #
loop $-1 $-1 $409 $473 #
vertex $-1 $408 $505 #
straight-curve $-1 -78.358104190191341 -54.438161169078391 0 0 0 -1 I I #
point $-1 -78.358104190191341 -54.438161169078391 12.822963937842884 #
face $-1 $506 $507 $18 $-1 $508 forward single #
loop $-1 $-1 $509 $333 #
plane-surface $-1 -71.909296427013743 0 -2.5232901870540037 0 0 1 1 0 0 forward_v I I I I #
coedge $-1 $343 $510 $336 $420 forward $334 $-1 #
coedge $-1 $419 $336 $511 $512 reversed $247 $-1 #
coedge $-1 $336 $418 $421 $513 forward $247 $-1 #
edge $-1 $514 55.05617882054581 $515 62.044481449076393 $417 $516 forward 7 unknown #
coedge $-1 $423 $337 $419 $513 reversed $249 $-1 #
edge $-1 $515 -30.059956920277862 $344 -6.6092791115134517 $343 $517 forward 7 unknown #
coedge $-1 $338 $421 $426 $518 reversed $249 $-1 #
vertex $-1 $518 $519 #
straight-curve $-1 24.943897127409109 -54.438161169078384 5.8346613093123096 0 0.82903756765294845 0.55919291073839883 I I #
coedge $-1 $511 $340 $423 $518 forward $428 $-1 #
coedge $-1 $340 $520 $342 $431 forward $428 $-1 #
loop $-1 $-1 $511 $521 #
straight-curve $-1 24.943897127409109 -71.036376946595013 12.822963937842886 0 1 0 I I #
coedge $-1 $522 $342 $523 $524 forward $334 $-1 #
edge $-1 $525 -78.358104190191341 $345 24.943897127409109 $342 $526 forward 7 unknown #
point $-1 24.943897127409109 -54.438161169078391 5.8346613093123052 #
point $-1 24.943897127409109 -54.438161169078391 12.822963937842884 #
point $-1 31.644090787056086 -45.241653168146847 3.3745280355375002 #
face $-1 $527 $528 $19 $-1 $529 reversed single #
loop $-1 $-1 $530 $349 #
plane-surface $-1 48.39457493617352 -142.07275389319003 135.75828551677739 -1 0 0 0 -0.55919291073839883 0.82903756765294845 forward_v I I I I #
coedge $-1 $439 $351 $531 $532 forward $259 $-1 #
coedge $-1 $351 $438 $533 $534 reversed $259 $-1 #
coedge $-1 $535 $536 $351 $441 forward $528 $-1 #
edge $-1 $537 -62.044481449076393 $538 -55.05617882054581 $440 $539 forward 7 unknown #
edge $-1 $540 1 $540 0 $352 $-1 forward 7 unknown #
vertex $-1 $353 $541 #
ellipse-curve $-1 31.644090787056086 -46.919231900362043 5.8616407384963463 0 -0.55919291073839883 0.82903756765294845 3 0 0 1 I I #
point $-1 34.644090787056086 -49.257868910428819 9.328812623577587 #
point $-1 41.694381276526542 -45.241653168146847 3.3745280355375002 #
coedge $-1 $542 $531 $536 $543 reversed $358 $-1 #
loop $-1 $-1 $544 $363 #
plane-surface $-1 0 0 -12.822963937842884 0 0 1 1 0 0 forward_v I I I I #
coedge $-1 $381 $376 $545 $546 forward $364 $-1 #
coedge $-1 $455 $457 $366 $452 forward $448 $-1 #
edge $-1 $454 -54.438161169078391 $453 54.438161169078391 $366 $547 forward 7 unknown #
vertex $-1 $456 $548 #
vertex $-1 $452 $549 #
coedge $-1 $544 $451 $370 $456 forward $448 $-1 #
edge $-1 $453 -78.358104190191341 $550 78.358104190191341 $370 $551 forward 7 unknown #
coedge $-1 $451 $544 $372 $458 forward $448 $-1 #
edge $-1 $552 -78.358104190191341 $454 78.358104190191341 $372 $553 forward 7 unknown #
coedge $-1 $376 $381 $374 $460 forward $364 $-1 #
edge $-1 $383 -54.438161169078391 $378 54.438161169078391 $374 $554 forward 7 unknown #
coedge $-1 $555 $545 $375 $462 forward $471 $-1 #
edge $-1 $463 -12.822963937842884 $552 12.822963937842884 $461 $556 forward 7 unknown #
vertex $-1 $546 $557 #
straight-curve $-1 0 -54.438161169078391 12.822963937842884 1 0 0 I I #
point $-1 -78.358104190191341 -54.438161169078391 12.822963937842884 #
coedge $-1 $545 $555 $380 $467 reversed $471 $-1 #
edge $-1 $468 -12.822963937842884 $550 12.822963937842884 $466 $558 forward 7 unknown #
vertex $-1 $546 $559 #
straight-curve $-1 0 54.438161169078391 12.822963937842884 -1 0 0 I I #
point $-1 -78.358104190191341 54.438161169078391 12.822963937842884 #
loop $-1 $-1 $461 $385 #
plane-surface $-1 78.358104190191341 0 0 -1 0 0 0 0 1 forward_v I I I I #
face $-1 $327 $410 $17 $-1 $475 reversed single #
loop $-1 $-1 $560 $387 #
plane-surface $-1 -78.358104190191341 0 0 1 0 0 0 0 -1 forward_v I I I I #
coedge $-1 $393 $479 $407 $502 reversed $388 $-1 #
coedge $-1 $561 $390 $562 $563 reversed $313 $-1 #
coedge $-1 $390 $561 $501 $564 reversed $313 $-1 #
coedge $-1 $476 $484 $390 $480 forward $388 $-1 #
edge $-1 $565 -54.438161169078391 $566 54.438161169078391 $479 $567 forward 7 unknown #
coedge $-1 $392 $391 $409 $504 reversed $226 $-1 #
coedge $-1 $568 $569 $392 $483 forward $570 $-1 #
edge $-1 $486 29.505840450329273 $571 42.403455976684469 $482 $572 forward 7 unknown #
coedge $-1 $479 $393 $569 $573 reversed $388 $-1 #
vertex $-1 $408 $574 #
vertex $-1 $483 $575 #
straight-curve $-1 -65.460488663836145 0 -2.5232901870540037 0 1 0 I I #
coedge $-1 $395 $576 $577 $578 reversed $139 $-1 #
coedge $-1 $579 $580 $395 $490 forward $581 $-1 #
edge $-1 $492 -12.822963937842884 $582 12.822963937842884 $489 $583 forward 7 unknown #
coedge $-1 $402 $396 $580 $584 forward $240 $-1 #
vertex $-1 $584 $585 #
coedge $-1 $586 $568 $402 $494 reversed $570 $-1 #
edge $-1 $587 -78.358104190191341 $496 78.358104190191341 $493 $588 forward 7 unknown #
coedge $-1 $409 $403 $568 $589 forward $410 $-1 #
vertex $-1 $494 $590 #
straight-curve $-1 -78.358104190191341 0 12.822963937842884 0 -1 0 I I #
face $-1 $591 $570 $17 $-1 $592 reversed single #
loop $-1 $-1 $593 $405 #
plane-surface $-1 0 0 -12.822963937842884 0 0 1 1 0 0 forward_v I I I I #
coedge $-1 $576 $407 $478 $564 forward $139 $-1 #
edge $-1 $485 -0.41721340561978826 $566 6.2982205909673716 $407 $594 forward 7 unknown #
straight-curve $-1 -35.954648213506871 -54.438161169078391 -2.5232901870540037 1 0 0 I I #
edge $-1 $571 -54.438161169078391 $411 54.438161169078391 $409 $595 forward 7 unknown #
point $-1 -78.358104190191341 -54.438161169078391 -2.5232901870540037 #
face $-1 $596 $597 $18 $-1 $598 forward single #
loop $-1 $-1 $599 $414 #
plane-surface $-1 -71.909296427013743 0 -9.238724183641164 0 0 1 1 0 0 forward_v I I I I #
coedge $-1 $600 $601 $602 $603 reversed $415 $-1 #
coedge $-1 $417 $604 $605 $606 reversed $334 $-1 #
coedge $-1 $605 $426 $418 $512 forward $428 $-1 #
edge $-1 $607 -26.958800294815767 $514 -16.598215777516621 $511 $608 forward 7 unknown #
edge $-1 $607 -12.49712307565329 $515 8.3739815925159718e-015 $419 $609 forward 7 unknown #
vertex $-1 $606 $610 #
vertex $-1 $422 $611 #
straight-curve $-1 48.39457493617352 -54.438161169078391 67.879142758388696 0 0 -1 I I #
straight-curve $-1 18.334618015895657 -54.438161169078391 5.8346613093123034 -1 0 0 I I #
edge $-1 $424 6.6092791115134517 $607 30.059956920277862 $426 $612 forward 7 unknown #
point $-1 24.943897127409109 -44.077576651779246 12.822963937842884 #
coedge $-1 $427 $613 $614 $615 forward $428 $-1 #
face $-1 $616 $428 $18 $-1 $617 forward single #
coedge $-1 $618 $430 $600 $619 forward $334 $-1 #
coedge $-1 $614 $620 $430 $524 reversed $621 $-1 #
edge $-1 $525 -12.822963937842884 $622 2.5232901870540037 $523 $623 forward 7 unknown #
vertex $-1 $615 $624 #
straight-curve $-1 0 -54.438161169078391 12.822963937842884 1 0 0 I I #
face $-1 $625 $626 $19 $-1 $627 reversed single #
loop $-1 $-1 $628 $435 #
plane-surface $-1 0 -54.438161169078391 0 0 1 0 0 0 1 forward_v I I I I #
coedge $-1 $629 $630 $628 $631 reversed $436 $-1 #
coedge $-1 $447 $632 $438 $532 reversed $358 $-1 #
edge $-1 $537 -8.3739815925159718e-015 $633 12.49712307565329 $438 $634 forward 7 unknown #
coedge $-1 $635 $636 $439 $534 forward $637 $-1 #
edge $-1 $538 16.598215777516621 $633 26.958800294815767 $533 $638 forward 7 unknown #
coedge $-1 $639 $440 $636 $640 reversed $528 $-1 #
coedge $-1 $440 $628 $447 $543 forward $528 $-1 #
vertex $-1 $543 $641 #
vertex $-1 $534 $642 #
straight-curve $-1 24.943897127409109 -54.438161169078391 67.879142758388696 0 0 1 I I #
vertex $-1 $442 $643 #
point $-1 34.644090787056086 -46.919231900362043 5.8616407384963463 #
coedge $-1 $632 $447 $630 $644 reversed $358 $-1 #
edge $-1 $645 -30.059956920277862 $537 -6.6092791115134517 $536 $646 forward 7 unknown #
coedge $-1 $457 $455 $555 $647 forward $448 $-1 #
coedge $-1 $461 $466 $450 $546 reversed $471 $-1 #
edge $-1 $463 -54.438161169078391 $468 54.438161169078391 $545 $648 forward 7 unknown #
straight-curve $-1 -78.358104190191341 0 -12.822963937842884 0 1 0 I I #
point $-1 -78.358104190191341 54.438161169078391 -12.822963937842884 #
point $-1 -78.358104190191341 -54.438161169078391 -12.822963937842884 #
vertex $-1 $647 $649 #
straight-curve $-1 0 54.438161169078391 -12.822963937842884 1 0 0 I I #
vertex $-1 $462 $650 #
straight-curve $-1 0 -54.438161169078391 -12.822963937842884 -1 0 0 I I #
straight-curve $-1 -78.358104190191341 0 12.822963937842884 0 -1 0 I I #
coedge $-1 $466 $461 $544 $647 reversed $471 $-1 #
straight-curve $-1 78.358104190191341 -54.438161169078391 0 0 0 -1 I I #
point $-1 78.358104190191341 -54.438161169078391 12.822963937842884 #
straight-curve $-1 78.358104190191341 54.438161169078391 0 0 0 -1 I I #
point $-1 78.358104190191341 54.438161169078391 12.822963937842884 #
coedge $-1 $651 $652 $561 $653 forward $474 $-1 #
coedge $-1 $478 $477 $560 $653 reversed $313 $-1 #
coedge $-1 $569 $654 $477 $563 forward $570 $-1 #
edge $-1 $655 -42.403455976684469 $565 -29.505840450329273 $562 $656 forward 7 unknown #
edge $-1 $566 29.505840450329273 $657 42.403455976684469 $501 $658 forward 7 unknown #
vertex $-1 $563 $659 #
vertex $-1 $564 $660 #
straight-curve $-1 -65.460488663836145 0 -9.238724183641164 0 -1 0 I I #
coedge $-1 $493 $482 $495 $589 reversed $570 $-1 #
coedge $-1 $482 $562 $484 $573 forward $570 $-1 #
loop $-1 $-1 $482 $498 #
vertex $-1 $504 $661 #
straight-curve $-1 -35.954648213506871 54.438161169078391 -2.5232901870540037 -1 0 0 I I #
edge $-1 $565 -6.2982205909673716 $486 0.41721340561978826 $569 $662 forward 7 unknown #
point $-1 -65.460488663836145 -54.438161169078391 -2.5232901870540037 #
point $-1 -65.460488663836145 54.438161169078391 -2.5232901870540037 #
coedge $-1 $488 $501 $652 $663 forward $139 $-1 #
coedge $-1 $664 $593 $488 $578 forward $499 $-1 #
edge $-1 $582 -78.358104190191341 $665 78.358104190191341 $488 $666 forward 7 unknown #
coedge $-1 $667 $489 $593 $668 reversed $581 $-1 #
coedge $-1 $489 $667 $491 $584 reversed $581 $-1 #
loop $-1 $-1 $489 $591 #
vertex $-1 $490 $669 #
straight-curve $-1 78.358104190191341 -54.438161169078391 0 0 0 -1 I I #
edge $-1 $492 -54.438161169078391 $587 54.438161169078391 $580 $670 forward 7 unknown #
point $-1 78.358104190191341 -54.438161169078391 12.822963937842884 #
coedge $-1 $671 $493 $667 $672 forward $570 $-1 #
vertex $-1 $584 $673 #
straight-curve $-1 0 54.438161169078391 12.822963937842884 -1 0 0 I I #
edge $-1 $496 -12.822963937842884 $571 2.5232901870540037 $568 $674 forward 7 unknown #
point $-1 -78.358104190191341 54.438161169078391 12.822963937842884 #
face $-1 $-1 $581 $17 $-1 $675 reversed single #
plane-surface $-1 0 54.438161169078391 0 0 -1 0 0 0 -1 forward_v I I I I #
coedge $-1 $577 $676 $579 $668 forward $499 $-1 #
straight-curve $-1 -65.460488663836145 -54.438161169078391 -2.9405035926737919 0 0 -1 I I #
straight-curve $-1 -78.358104190191341 0 -2.5232901870540037 0 -1 0 I I #
face $-1 $677 $678 $18 $-1 $679 reversed single #
loop $-1 $-1 $680 $506 #
plane-surface $-1 -65.460488663836145 0 -5.8810071853475838 -1 0 0 0 0 1 forward_v I I I I #
coedge $-1 $681 $682 $683 $684 reversed $507 $-1 #
coedge $-1 $685 $509 $522 $619 reversed $415 $-1 #
coedge $-1 $509 $685 $686 $687 reversed $415 $-1 #
coedge $-1 $688 $680 $509 $603 forward $597 $-1 #
edge $-1 $689 -54.438161169078391 $690 54.438161169078391 $602 $691 forward 7 unknown #
coedge $-1 $510 $692 $693 $694 reversed $334 $-1 #
coedge $-1 $695 $511 $510 $606 forward $428 $-1 #
edge $-1 $514 48.39457493617352 $696 78.358104190191341 $510 $526 forward 7 unknown #
vertex $-1 $518 $697 #
straight-curve $-1 48.39457493617352 -71.036376946595013 12.822963937842886 0 -1 0 I I #
straight-curve $-1 48.39457493617352 -54.438161169078384 5.8346613093123096 0 -0.82903756765294845 -0.55919291073839883 I I #
point $-1 48.39457493617352 -54.438161169078391 12.822963937842884 #
point $-1 48.39457493617352 -54.438161169078391 5.8346613093123052 #
straight-curve $-1 18.334618015895657 -44.077576651779246 12.822963937842884 1 0 0 I I #
coedge $-1 $520 $695 $698 $699 forward $428 $-1 #
coedge $-1 $700 $523 $520 $615 reversed $621 $-1 #
edge $-1 $701 -54.438161169078391 $525 54.438161169078391 $614 $702 forward 7 unknown #
face $-1 $703 $704 $18 $-1 $705 reversed single #
plane-surface $-1 0 0 12.822963937842884 0 0 1 1 0 0 forward_v I I I I #
coedge $-1 $706 $522 $680 $707 forward $334 $-1 #
edge $-1 $622 -42.403455976684469 $689 -29.505840450329273 $522 $708 forward 7 unknown #
coedge $-1 $523 $700 $685 $709 forward $621 $-1 #
loop $-1 $-1 $620 $677 #
vertex $-1 $619 $710 #
straight-curve $-1 -78.358104190191341 -54.438161169078391 0 0 0 -1 I I #
point $-1 -78.358104190191341 -54.438161169078391 12.822963937842884 #
face $-1 $711 $712 $19 $-1 $713 forward single #
loop $-1 $-1 $714 $527 #
plane-surface $-1 -71.909296427013743 0 -2.5232901870540037 0 0 1 1 0 0 forward_v I I I I #
coedge $-1 $536 $715 $530 $631 forward $528 $-1 #
coedge $-1 $630 $530 $716 $717 reversed $436 $-1 #
coedge $-1 $530 $629 $542 $644 forward $436 $-1 #
edge $-1 $718 55.05617882054581 $645 62.044481449076393 $628 $719 forward 7 unknown #
coedge $-1 $531 $542 $635 $720 reversed $358 $-1 #
vertex $-1 $720 $721 #
straight-curve $-1 24.943897127409109 -54.438161169078384 5.8346613093123096 0 0.82903756765294845 0.55919291073839883 I I #
coedge $-1 $716 $533 $632 $720 forward $637 $-1 #
coedge $-1 $533 $722 $535 $640 forward $637 $-1 #
loop $-1 $-1 $716 $723 #
straight-curve $-1 24.943897127409109 -71.036376946595013 12.822963937842886 0 1 0 I I #
coedge $-1 $724 $535 $725 $726 forward $528 $-1 #
edge $-1 $727 -78.358104190191341 $538 24.943897127409109 $535 $728 forward 7 unknown #
point $-1 24.943897127409109 -54.438161169078391 5.8346613093123052 #
point $-1 24.943897127409109 -54.438161169078391 12.822963937842884 #
point $-1 31.644090787056086 -45.241653168146847 3.3745280355375002 #
edge $-1 $729 -12.49712307565329 $645 8.3739815925159718e-015 $630 $730 forward 7 unknown #
vertex $-1 $543 $731 #
straight-curve $-1 18.334618015895657 -54.438161169078391 5.8346613093123034 -1 0 0 I I #
edge $-1 $550 -54.438161169078391 $552 54.438161169078391 $555 $732 forward 7 unknown #
straight-curve $-1 78.358104190191341 0 12.822963937842884 0 1 0 I I #
point $-1 78.358104190191341 54.438161169078391 -12.822963937842884 #
point $-1 78.358104190191341 -54.438161169078391 -12.822963937842884 #
coedge $-1 $733 $560 $654 $734 forward $474 $-1 #
coedge $-1 $560 $733 $576 $663 reversed $474 $-1 #
edge $-1 $657 -54.438161169078391 $655 54.438161169078391 $560 $735 forward 7 unknown #
coedge $-1 $562 $671 $651 $734 reversed $570 $-1 #
vertex $-1 $734 $736 #
straight-curve $-1 -35.954648213506871 54.438161169078391 -9.238724183641164 1 0 0 I I #
vertex $-1 $663 $737 #
straight-curve $-1 -35.954648213506871 -54.438161169078391 -9.238724183641164 -1 0 0 I I #
point $-1 -65.460488663836145 54.438161169078391 -9.238724183641164 #
point $-1 -65.460488663836145 -54.438161169078391 -9.238724183641164 #
point $-1 -78.358104190191341 54.438161169078391 -2.5232901870540037 #
straight-curve $-1 -65.460488663836145 54.438161169078391 -2.9405035926737919 0 0 1 I I #
edge $-1 $657 9.238724183641164 $665 12.822963937842884 $652 $412 forward 7 unknown #
coedge $-1 $676 $577 $733 $738 forward $499 $-1 #
vertex $-1 $738 $739 #
straight-curve $-1 0 -54.438161169078391 -12.822963937842884 -1 0 0 I I #
coedge $-1 $580 $579 $586 $672 reversed $581 $-1 #
edge $-1 $740 -54.438161169078391 $582 54.438161169078391 $579 $741 forward 7 unknown #
point $-1 78.358104190191341 -54.438161169078391 -12.822963937842884 #
straight-curve $-1 78.358104190191341 0 12.822963937842884 0 1 0 I I #
coedge $-1 $654 $586 $676 $742 reversed $570 $-1 #
edge $-1 $587 -12.822963937842884 $740 12.822963937842884 $667 $743 forward 7 unknown #
point $-1 78.358104190191341 54.438161169078391 12.822963937842884 #
straight-curve $-1 -78.358104190191341 54.438161169078391 0 0 0 -1 I I #
plane-surface $-1 78.358104190191341 0 0 -1 0 0 0 0 1 forward_v I I I I #
coedge $-1 $593 $664 $671 $742 forward $499 $-1 #
face $-1 $521 $621 $18 $-1 $679 reversed single #
loop $-1 $-1 $744 $596 #
plane-surface $-1 -78.358104190191341 0 0 1 0 0 0 0 -1 forward_v I I I I #
coedge $-1 $602 $683 $618 $707 reversed $597 $-1 #
coedge $-1 $745 $599 $746 $747 reversed $507 $-1 #
coedge $-1 $599 $745 $706 $748 reversed $507 $-1 #
coedge $-1 $680 $688 $599 $684 forward $597 $-1 #
edge $-1 $749 -54.438161169078391 $750 54.438161169078391 $683 $751 forward 7 unknown #
coedge $-1 $601 $600 $620 $709 reversed $415 $-1 #
coedge $-1 $752 $753 $601 $687 forward $754 $-1 #
edge $-1 $690 29.505840450329273 $755 42.403455976684469 $686 $756 forward 7 unknown #
coedge $-1 $683 $602 $753 $757 reversed $597 $-1 #
vertex $-1 $619 $758 #
vertex $-1 $687 $759 #
straight-curve $-1 -65.460488663836145 0 -2.5232901870540037 0 1 0 I I #
coedge $-1 $604 $760 $761 $762 reversed $334 $-1 #
coedge $-1 $763 $764 $604 $694 forward $765 $-1 #
edge $-1 $696 -12.822963937842884 $766 12.822963937842884 $693 $767 forward 7 unknown #
coedge $-1 $613 $605 $764 $768 forward $428 $-1 #
vertex $-1 $768 $769 #
point $-1 48.39457493617352 -44.077576651779246 12.822963937842884 #
coedge $-1 $770 $752 $613 $699 reversed $754 $-1 #
edge $-1 $771 -78.358104190191341 $701 78.358104190191341 $698 $772 forward 7 unknown #
coedge $-1 $620 $614 $752 $773 forward $621 $-1 #
vertex $-1 $699 $774 #
straight-curve $-1 -78.358104190191341 0 12.822963937842884 0 -1 0 I I #
face $-1 $775 $754 $18 $-1 $776 reversed single #
loop $-1 $-1 $777 $616 #
plane-surface $-1 0 0 -12.822963937842884 0 0 1 1 0 0 forward_v I I I I #
coedge $-1 $760 $618 $682 $748 forward $334 $-1 #
edge $-1 $689 -0.41721340561978826 $750 6.2982205909673716 $618 $778 forward 7 unknown #
straight-curve $-1 -35.954648213506871 -54.438161169078391 -2.5232901870540037 1 0 0 I I #
edge $-1 $755 -54.438161169078391 $622 54.438161169078391 $620 $779 forward 7 unknown #
point $-1 -78.358104190191341 -54.438161169078391 -2.5232901870540037 #
face $-1 $780 $781 $19 $-1 $782 forward single #
loop $-1 $-1 $783 $625 #
plane-surface $-1 -71.909296427013743 0 -9.238724183641164 0 0 1 1 0 0 forward_v I I I I #
coedge $-1 $784 $785 $786 $787 reversed $626 $-1 #
coedge $-1 $628 $788 $789 $790 reversed $528 $-1 #
coedge $-1 $789 $635 $629 $717 forward $637 $-1 #
edge $-1 $729 -26.958800294815767 $718 -16.598215777516621 $716 $791 forward 7 unknown #
vertex $-1 $790 $792 #
straight-curve $-1 48.39457493617352 -54.438161169078391 67.879142758388696 0 0 -1 I I #
edge $-1 $633 6.6092791115134517 $729 30.059956920277862 $635 $793 forward 7 unknown #
point $-1 24.943897127409109 -44.077576651779246 12.822963937842884 #
coedge $-1 $636 $794 $795 $796 forward $637 $-1 #
face $-1 $797 $637 $19 $-1 $798 forward single #
coedge $-1 $799 $639 $784 $800 forward $528 $-1 #
coedge $-1 $795 $801 $639 $726 reversed $802 $-1 #
edge $-1 $727 -12.822963937842884 $803 2.5232901870540037 $725 $804 forward 7 unknown #
vertex $-1 $796 $805 #
straight-curve $-1 0 -54.438161169078391 12.822963937842884 1 0 0 I I #
vertex $-1 $720 $806 #
straight-curve $-1 48.39457493617352 -54.438161169078384 5.8346613093123096 0 -0.82903756765294845 -0.55919291073839883 I I #
point $-1 48.39457493617352 -54.438161169078391 5.8346613093123052 #
straight-curve $-1 78.358104190191341 0 -12.822963937842884 0 -1 0 I I #
coedge $-1 $652 $651 $664 $738 reversed $474 $-1 #
edge $-1 $655 9.238724183641164 $807 12.822963937842884 $654 $674 forward 7 unknown #
straight-curve $-1 -78.358104190191341 0 -9.238724183641164 0 1 0 I I #
point $-1 -78.358104190191341 54.438161169078391 -9.238724183641164 #
point $-1 -78.358104190191341 -54.438161169078391 -9.238724183641164 #
edge $-1 $665 -54.438161169078391 $807 54.438161169078391 $733 $808 forward 7 unknown #
point $-1 -78.358104190191341 -54.438161169078391 -12.822963937842884 #
vertex $-1 $668 $809 #
straight-curve $-1 78.358104190191341 0 -12.822963937842884 0 -1 0 I I #
edge $-1 $807 -78.358104190191341 $740 78.358104190191341 $671 $810 forward 7 unknown #
straight-curve $-1 78.358104190191341 54.438161169078391 0 0 0 -1 I I #
coedge $-1 $811 $812 $745 $813 forward $678 $-1 #
coedge $-1 $682 $681 $744 $813 reversed $507 $-1 #
coedge $-1 $753 $814 $681 $747 forward $754 $-1 #
edge $-1 $815 -42.403455976684469 $749 -29.505840450329273 $746 $816 forward 7 unknown #
edge $-1 $750 29.505840450329273 $817 42.403455976684469 $706 $818 forward 7 unknown #
vertex $-1 $747 $819 #
vertex $-1 $748 $820 #
straight-curve $-1 -65.460488663836145 0 -9.238724183641164 0 -1 0 I I #
coedge $-1 $698 $686 $700 $773 reversed $754 $-1 #
coedge $-1 $686 $746 $688 $757 forward $754 $-1 #
loop $-1 $-1 $686 $703 #
vertex $-1 $709 $821 #
straight-curve $-1 -35.954648213506871 54.438161169078391 -2.5232901870540037 -1 0 0 I I #
edge $-1 $749 -6.2982205909673716 $690 0.41721340561978826 $753 $822 forward 7 unknown #
point $-1 -65.460488663836145 -54.438161169078391 -2.5232901870540037 #
point $-1 -65.460488663836145 54.438161169078391 -2.5232901870540037 #
coedge $-1 $692 $706 $812 $823 forward $334 $-1 #
coedge $-1 $824 $777 $692 $762 forward $704 $-1 #
edge $-1 $766 -78.358104190191341 $825 78.358104190191341 $692 $826 forward 7 unknown #
coedge $-1 $827 $693 $777 $828 reversed $765 $-1 #
coedge $-1 $693 $827 $695 $768 reversed $765 $-1 #
loop $-1 $-1 $693 $775 #
vertex $-1 $694 $829 #
straight-curve $-1 78.358104190191341 -54.438161169078391 0 0 0 -1 I I #
edge $-1 $696 -54.438161169078391 $771 54.438161169078391 $764 $830 forward 7 unknown #
point $-1 78.358104190191341 -54.438161169078391 12.822963937842884 #
coedge $-1 $831 $698 $827 $832 forward $754 $-1 #
vertex $-1 $768 $833 #
straight-curve $-1 0 54.438161169078391 12.822963937842884 -1 0 0 I I #
edge $-1 $701 -12.822963937842884 $755 2.5232901870540037 $752 $834 forward 7 unknown #
point $-1 -78.358104190191341 54.438161169078391 12.822963937842884 #
face $-1 $-1 $765 $18 $-1 $835 reversed single #
plane-surface $-1 0 54.438161169078391 0 0 -1 0 0 0 -1 forward_v I I I I #
coedge $-1 $761 $836 $763 $828 forward $704 $-1 #
straight-curve $-1 -65.460488663836145 -54.438161169078391 -2.9405035926737919 0 0 -1 I I #
straight-curve $-1 -78.358104190191341 0 -2.5232901870540037 0 -1 0 I I #
face $-1 $837 $838 $19 $-1 $839 reversed single #
loop $-1 $-1 $840 $711 #
plane-surface $-1 -65.460488663836145 0 -5.8810071853475838 -1 0 0 0 0 1 forward_v I I I I #
coedge $-1 $841 $842 $843 $844 reversed $712 $-1 #
coedge $-1 $845 $714 $724 $800 reversed $626 $-1 #
coedge $-1 $714 $845 $846 $847 reversed $626 $-1 #
coedge $-1 $848 $840 $714 $787 forward $781 $-1 #
edge $-1 $849 -54.438161169078391 $850 54.438161169078391 $786 $851 forward 7 unknown #
coedge $-1 $715 $852 $853 $854 reversed $528 $-1 #
coedge $-1 $855 $716 $715 $790 forward $637 $-1 #
edge $-1 $718 48.39457493617352 $856 78.358104190191341 $715 $728 forward 7 unknown #
straight-curve $-1 48.39457493617352 -71.036376946595013 12.822963937842886 0 -1 0 I I #
point $-1 48.39457493617352 -54.438161169078391 12.822963937842884 #
straight-curve $-1 18.334618015895657 -44.077576651779246 12.822963937842884 1 0 0 I I #
coedge $-1 $722 $855 $857 $858 forward $637 $-1 #
coedge $-1 $859 $725 $722 $796 reversed $802 $-1 #
edge $-1 $860 -54.438161169078391 $727 54.438161169078391 $795 $861 forward 7 unknown #
face $-1 $862 $863 $19 $-1 $864 reversed single #
plane-surface $-1 0 0 12.822963937842884 0 0 1 1 0 0 forward_v I I I I #
coedge $-1 $865 $724 $840 $866 forward $528 $-1 #
edge $-1 $803 -42.403455976684469 $849 -29.505840450329273 $724 $867 forward 7 unknown #
coedge $-1 $725 $859 $845 $868 forward $802 $-1 #
loop $-1 $-1 $801 $837 #
vertex $-1 $800 $869 #
straight-curve $-1 -78.358104190191341 -54.438161169078391 0 0 0 -1 I I #
point $-1 -78.358104190191341 -54.438161169078391 12.822963937842884 #
point $-1 48.39457493617352 -44.077576651779246 12.822963937842884 #
vertex $-1 $742 $870 #
straight-curve $-1 -78.358104190191341 0 -12.822963937842884 0 1 0 I I #
point $-1 78.358104190191341 54.438161169078391 -12.822963937842884 #
straight-curve $-1 0 54.438161169078391 -12.822963937842884 1 0 0 I I #
coedge $-1 $871 $744 $814 $872 forward $678 $-1 #
coedge $-1 $744 $871 $760 $823 reversed $678 $-1 #
edge $-1 $817 -54.438161169078391 $815 54.438161169078391 $744 $873 forward 7 unknown #
coedge $-1 $746 $831 $811 $872 reversed $754 $-1 #
vertex $-1 $872 $874 #
straight-curve $-1 -35.954648213506871 54.438161169078391 -9.238724183641164 1 0 0 I I #
vertex $-1 $823 $875 #
straight-curve $-1 -35.954648213506871 -54.438161169078391 -9.238724183641164 -1 0 0 I I #
point $-1 -65.460488663836145 54.438161169078391 -9.238724183641164 #
point $-1 -65.460488663836145 -54.438161169078391 -9.238724183641164 #
point $-1 -78.358104190191341 54.438161169078391 -2.5232901870540037 #
straight-curve $-1 -65.460488663836145 54.438161169078391 -2.9405035926737919 0 0 1 I I #
edge $-1 $817 9.238724183641164 $825 12.822963937842884 $812 $623 forward 7 unknown #
coedge $-1 $836 $761 $871 $876 forward $704 $-1 #
vertex $-1 $876 $877 #
straight-curve $-1 0 -54.438161169078391 -12.822963937842884 -1 0 0 I I #
coedge $-1 $764 $763 $770 $832 reversed $765 $-1 #
edge $-1 $878 -54.438161169078391 $766 54.438161169078391 $763 $879 forward 7 unknown #
point $-1 78.358104190191341 -54.438161169078391 -12.822963937842884 #
straight-curve $-1 78.358104190191341 0 12.822963937842884 0 1 0 I I #
coedge $-1 $814 $770 $836 $880 reversed $754 $-1 #
edge $-1 $771 -12.822963937842884 $878 12.822963937842884 $827 $881 forward 7 unknown #
point $-1 78.358104190191341 54.438161169078391 12.822963937842884 #
straight-curve $-1 -78.358104190191341 54.438161169078391 0 0 0 -1 I I #
plane-surface $-1 78.358104190191341 0 0 -1 0 0 0 0 1 forward_v I I I I #
coedge $-1 $777 $824 $831 $880 forward $704 $-1 #
face $-1 $723 $802 $19 $-1 $839 reversed single #
loop $-1 $-1 $882 $780 #
plane-surface $-1 -78.358104190191341 0 0 1 0 0 0 0 -1 forward_v I I I I #
coedge $-1 $786 $843 $799 $866 reversed $781 $-1 #
coedge $-1 $883 $783 $884 $885 reversed $712 $-1 #
coedge $-1 $783 $883 $865 $886 reversed $712 $-1 #
coedge $-1 $840 $848 $783 $844 forward $781 $-1 #
edge $-1 $887 -54.438161169078391 $888 54.438161169078391 $843 $889 forward 7 unknown #
coedge $-1 $785 $784 $801 $868 reversed $626 $-1 #
coedge $-1 $890 $891 $785 $847 forward $892 $-1 #
edge $-1 $850 29.505840450329273 $893 42.403455976684469 $846 $894 forward 7 unknown #
coedge $-1 $843 $786 $891 $895 reversed $781 $-1 #
vertex $-1 $800 $896 #
vertex $-1 $847 $897 #
straight-curve $-1 -65.460488663836145 0 -2.5232901870540037 0 1 0 I I #
coedge $-1 $788 $898 $899 $900 reversed $528 $-1 #
coedge $-1 $901 $902 $788 $854 forward $903 $-1 #
edge $-1 $856 -12.822963937842884 $904 12.822963937842884 $853 $905 forward 7 unknown #
coedge $-1 $794 $789 $902 $906 forward $637 $-1 #
vertex $-1 $906 $907 #
coedge $-1 $908 $890 $794 $858 reversed $892 $-1 #
edge $-1 $909 -78.358104190191341 $860 78.358104190191341 $857 $910 forward 7 unknown #
coedge $-1 $801 $795 $890 $911 forward $802 $-1 #
vertex $-1 $858 $912 #
straight-curve $-1 -78.358104190191341 0 12.822963937842884 0 -1 0 I I #
face $-1 $913 $892 $19 $-1 $914 reversed single #
loop $-1 $-1 $915 $797 #
plane-surface $-1 0 0 -12.822963937842884 0 0 1 1 0 0 forward_v I I I I #
coedge $-1 $898 $799 $842 $886 forward $528 $-1 #
edge $-1 $849 -0.41721340561978826 $888 6.2982205909673716 $799 $916 forward 7 unknown #
straight-curve $-1 -35.954648213506871 -54.438161169078391 -2.5232901870540037 1 0 0 I I #
edge $-1 $893 -54.438161169078391 $803 54.438161169078391 $801 $917 forward 7 unknown #
point $-1 -78.358104190191341 -54.438161169078391 -2.5232901870540037 #
point $-1 -78.358104190191341 54.438161169078391 -12.822963937842884 #
coedge $-1 $812 $811 $824 $876 reversed $678 $-1 #
edge $-1 $815 9.238724183641164 $918 12.822963937842884 $814 $834 forward 7 unknown #
straight-curve $-1 -78.358104190191341 0 -9.238724183641164 0 1 0 I I #
point $-1 -78.358104190191341 54.438161169078391 -9.238724183641164 #
point $-1 -78.358104190191341 -54.438161169078391 -9.238724183641164 #
edge $-1 $825 -54.438161169078391 $918 54.438161169078391 $871 $919 forward 7 unknown #
point $-1 -78.358104190191341 -54.438161169078391 -12.822963937842884 #
vertex $-1 $828 $920 #
straight-curve $-1 78.358104190191341 0 -12.822963937842884 0 -1 0 I I #
edge $-1 $918 -78.358104190191341 $878 78.358104190191341 $831 $921 forward 7 unknown #
straight-curve $-1 78.358104190191341 54.438161169078391 0 0 0 -1 I I #
coedge $-1 $922 $923 $883 $924 forward $838 $-1 #
coedge $-1 $842 $841 $882 $924 reversed $712 $-1 #
coedge $-1 $891 $925 $841 $885 forward $892 $-1 #
edge $-1 $926 -42.403455976684469 $887 -29.505840450329273 $884 $927 forward 7 unknown #
edge $-1 $888 29.505840450329273 $928 42.403455976684469 $865 $929 forward 7 unknown #
vertex $-1 $885 $930 #
vertex $-1 $886 $931 #
straight-curve $-1 -65.460488663836145 0 -9.238724183641164 0 -1 0 I I #
coedge $-1 $857 $846 $859 $911 reversed $892 $-1 #
coedge $-1 $846 $884 $848 $895 forward $892 $-1 #
loop $-1 $-1 $846 $862 #
vertex $-1 $868 $932 #
straight-curve $-1 -35.954648213506871 54.438161169078391 -2.5232901870540037 -1 0 0 I I #
edge $-1 $887 -6.2982205909673716 $850 0.41721340561978826 $891 $933 forward 7 unknown #
point $-1 -65.460488663836145 -54.438161169078391 -2.5232901870540037 #
point $-1 -65.460488663836145 54.438161169078391 -2.5232901870540037 #
coedge $-1 $852 $865 $923 $934 forward $528 $-1 #
coedge $-1 $935 $915 $852 $900 forward $863 $-1 #
edge $-1 $904 -78.358104190191341 $936 78.358104190191341 $852 $937 forward 7 unknown #
coedge $-1 $938 $853 $915 $939 reversed $903 $-1 #
coedge $-1 $853 $938 $855 $906 reversed $903 $-1 #
loop $-1 $-1 $853 $913 #
vertex $-1 $854 $940 #
straight-curve $-1 78.358104190191341 -54.438161169078391 0 0 0 -1 I I #
edge $-1 $856 -54.438161169078391 $909 54.438161169078391 $902 $941 forward 7 unknown #
point $-1 78.358104190191341 -54.438161169078391 12.822963937842884 #
coedge $-1 $942 $857 $938 $943 forward $892 $-1 #
vertex $-1 $906 $944 #
straight-curve $-1 0 54.438161169078391 12.822963937842884 -1 0 0 I I #
edge $-1 $860 -12.822963937842884 $893 2.5232901870540037 $890 $945 forward 7 unknown #
point $-1 -78.358104190191341 54.438161169078391 12.822963937842884 #
face $-1 $-1 $903 $19 $-1 $946 reversed single #
plane-surface $-1 0 54.438161169078391 0 0 -1 0 0 0 -1 forward_v I I I I #
coedge $-1 $899 $947 $901 $939 forward $863 $-1 #
straight-curve $-1 -65.460488663836145 -54.438161169078391 -2.9405035926737919 0 0 -1 I I #
straight-curve $-1 -78.358104190191341 0 -2.5232901870540037 0 -1 0 I I #
vertex $-1 $880 $948 #
straight-curve $-1 -78.358104190191341 0 -12.822963937842884 0 1 0 I I #
point $-1 78.358104190191341 54.438161169078391 -12.822963937842884 #
straight-curve $-1 0 54.438161169078391 -12.822963937842884 1 0 0 I I #
coedge $-1 $949 $882 $925 $950 forward $838 $-1 #
coedge $-1 $882 $949 $898 $934 reversed $838 $-1 #
edge $-1 $928 -54.438161169078391 $926 54.438161169078391 $882 $951 forward 7 unknown #
coedge $-1 $884 $942 $922 $950 reversed $892 $-1 #
vertex $-1 $950 $952 #
straight-curve $-1 -35.954648213506871 54.438161169078391 -9.238724183641164 1 0 0 I I #
vertex $-1 $934 $953 #
straight-curve $-1 -35.954648213506871 -54.438161169078391 -9.238724183641164 -1 0 0 I I #
point $-1 -65.460488663836145 54.438161169078391 -9.238724183641164 #
point $-1 -65.460488663836145 -54.438161169078391 -9.238724183641164 #
point $-1 -78.358104190191341 54.438161169078391 -2.5232901870540037 #
straight-curve $-1 -65.460488663836145 54.438161169078391 -2.9405035926737919 0 0 1 I I #
edge $-1 $928 9.238724183641164 $936 12.822963937842884 $923 $804 forward 7 unknown #
coedge $-1 $947 $899 $949 $954 forward $863 $-1 #
vertex $-1 $954 $955 #
straight-curve $-1 0 -54.438161169078391 -12.822963937842884 -1 0 0 I I #
coedge $-1 $902 $901 $908 $943 reversed $903 $-1 #
edge $-1 $956 -54.438161169078391 $904 54.438161169078391 $901 $957 forward 7 unknown #
point $-1 78.358104190191341 -54.438161169078391 -12.822963937842884 #
straight-curve $-1 78.358104190191341 0 12.822963937842884 0 1 0 I I #
coedge $-1 $925 $908 $947 $958 reversed $892 $-1 #
edge $-1 $909 -12.822963937842884 $956 12.822963937842884 $938 $959 forward 7 unknown #
point $-1 78.358104190191341 54.438161169078391 12.822963937842884 #
straight-curve $-1 -78.358104190191341 54.438161169078391 0 0 0 -1 I I #
plane-surface $-1 78.358104190191341 0 0 -1 0 0 0 0 1 forward_v I I I I #
coedge $-1 $915 $935 $942 $958 forward $863 $-1 #
point $-1 -78.358104190191341 54.438161169078391 -12.822963937842884 #
coedge $-1 $923 $922 $935 $954 reversed $838 $-1 #
edge $-1 $926 9.238724183641164 $960 12.822963937842884 $925 $945 forward 7 unknown #
straight-curve $-1 -78.358104190191341 0 -9.238724183641164 0 1 0 I I #
point $-1 -78.358104190191341 54.438161169078391 -9.238724183641164 #
point $-1 -78.358104190191341 -54.438161169078391 -9.238724183641164 #
edge $-1 $936 -54.438161169078391 $960 54.438161169078391 $949 $961 forward 7 unknown #
point $-1 -78.358104190191341 -54.438161169078391 -12.822963937842884 #
vertex $-1 $939 $962 #
straight-curve $-1 78.358104190191341 0 -12.822963937842884 0 -1 0 I I #
edge $-1 $960 -78.358104190191341 $956 78.358104190191341 $942 $963 forward 7 unknown #
straight-curve $-1 78.358104190191341 54.438161169078391 0 0 0 -1 I I #
vertex $-1 $958 $964 #
straight-curve $-1 -78.358104190191341 0 -12.822963937842884 0 1 0 I I #
point $-1 78.358104190191341 54.438161169078391 -12.822963937842884 #
straight-curve $-1 0 54.438161169078391 -12.822963937842884 1 0 0 I I #
point $-1 -78.358104190191341 54.438161169078391 -12.822963937842884 #
End-of-ACIS-data 