500 0 9 0           
7 Unknown 11 ACIS 5.0 NT 24 Fri Mar 26 17:44:08 1999 
-1 9.9999999999999995e-007 1e-010 
body $-1 $9 $-1 $10 #
body $-1 $11 $-1 $12 #
body $-1 $13 $-1 $14 #
body $-1 $15 $-1 $16 #
body $-1 $17 $-1 $18 #
body $-1 $19 $-1 $20 #
body $-1 $21 $-1 $22 #
body $-1 $23 $-1 $24 #
body $-1 $25 $-1 $26 #
lump $-1 $-1 $27 $0 #
transform $-1 1 0 0 0 1 0 0 0 1 67.928098391674553 41.349133509643892 17.262099124682507 1 rotate no_reflect no_shear #
lump $-1 $-1 $28 $1 #
transform $-1 1 0 0 0 1 0 0 0 1 67.928098391674553 41.349133509643892 17.262099124682507 1 rotate no_reflect no_shear #
lump $-1 $-1 $29 $2 #
transform $-1 1 0 0 0 1 0 0 0 1 67.928098391674553 41.349133509643892 17.262099124682507 1 rotate no_reflect no_shear #
lump $-1 $-1 $30 $3 #
transform $-1 1 0 0 0 1 0 0 0 1 67.928098391674553 41.349133509643892 17.262099124682507 1 rotate no_reflect no_shear #
lump $-1 $-1 $31 $4 #
transform $-1 1 0 0 0 1 0 0 0 1 67.928098391674553 41.349133509643892 17.262099124682507 1 rotate no_reflect no_shear #
lump $-1 $-1 $32 $5 #
transform $-1 1 0 0 0 1 0 0 0 1 67.928098391674553 41.349133509643892 17.262099124682507 1 rotate no_reflect no_shear #
lump $-1 $-1 $33 $6 #
transform $-1 1 0 0 0 1 0 0 0 1 67.928098391674553 41.349133509643892 17.262099124682507 1 rotate no_reflect no_shear #
lump $-1 $-1 $34 $7 #
transform $-1 1 0 0 0 1 0 0 0 1 67.928098391674553 41.349133509643892 17.262099124682507 1 rotate no_reflect no_shear #
lump $-1 $-1 $35 $8 #
transform $-1 1 0 0 0 1 0 0 0 1 67.928098391674553 41.349133509643892 17.262099124682507 1 rotate no_reflect no_shear #
shell $-1 $-1 $-1 $36 $-1 $9 #
shell $-1 $-1 $-1 $37 $-1 $11 #
shell $-1 $-1 $-1 $38 $-1 $13 #
shell $-1 $-1 $-1 $39 $-1 $15 #
shell $-1 $-1 $-1 $40 $-1 $17 #
shell $-1 $-1 $-1 $41 $-1 $19 #
shell $-1 $-1 $-1 $42 $-1 $21 #
shell $-1 $-1 $-1 $43 $-1 $23 #
shell $-1 $-1 $-1 $44 $-1 $25 #
face $-1 $45 $46 $27 $-1 $47 forward single #
face $-1 $48 $49 $28 $-1 $50 forward single #
face $-1 $51 $52 $29 $-1 $53 forward single #
face $-1 $54 $55 $30 $-1 $56 reversed single #
face $-1 $57 $58 $31 $-1 $59 forward single #
face $-1 $60 $61 $32 $-1 $62 forward single #
face $-1 $63 $64 $33 $-1 $65 reversed single #
face $-1 $66 $67 $34 $-1 $68 forward single #
face $-1 $69 $70 $35 $-1 $71 forward single #
face $-1 $72 $73 $27 $-1 $74 reversed single #
loop $-1 $-1 $75 $36 #
plane-surface $-1 0 0 17.262099124682507 0 0 1 1 0 0 forward_v I I I I #
face $-1 $76 $77 $28 $-1 $78 reversed single #
loop $-1 $-1 $79 $37 #
plane-surface $-1 0 -41.349133509643892 0 0 1 0 0 0 1 forward_v I I I I #
face $-1 $80 $81 $29 $-1 $82 reversed single #
loop $-1 $-1 $83 $38 #
plane-surface $-1 0 41.349133509643892 0 0 -1 0 0 0 -1 forward_v I I I I #
face $-1 $84 $85 $30 $-1 $86 reversed single #
loop $-1 $-1 $87 $39 #
plane-surface $-1 -170.46007276275282 4.5875334208765715 90.569951994753168 0 1 0 -0.75470958851134928 0 0.65605901945558964 forward_v I I I I #
face $-1 $88 $89 $31 $-1 $90 forward single #
loop $-1 $91 $92 $40 #
cone-surface $-1 -60.673890114851069 6.5503896372991619 9.0231544256652239 0.75470958851134928 0 -0.65605901945558964 0.32802950972779482 0 0.37735479425567464 1 I I 0 1 0.5 forward I I I I #
face $-1 $93 $94 $32 $-1 $95 forward single #
loop $-1 $96 $97 $41 #
cone-surface $-1 -60.673890114851069 9.4946739619330458 9.0231544256652239 0.75470958851134928 0 -0.65605901945558964 0.32802950972779482 0 0.37735479425567464 1 I I 0 1 0.5 forward I I I I #
face $-1 $98 $99 $33 $-1 $100 reversed single #
loop $-1 $-1 $101 $42 #
plane-surface $-1 81.330389514103189 11.457530178355636 193.10192636583145 0 -1 0 -0.75470958851134928 0 -0.65605901945558964 forward_v I I I I #
face $-1 $102 $103 $34 $-1 $104 forward single #
loop $-1 $105 $106 $43 #
cone-surface $-1 60.673890114851062 6.5503896372991619 9.0231544256652203 -0.75470958851134928 0 -0.65605901945558964 0.32802950972779482 0 -0.37735479425567464 1 I I 0 1 0.5 forward I I I I #
face $-1 $107 $108 $35 $-1 $109 forward single #
loop $-1 $110 $111 $44 #
cone-surface $-1 60.673890114851062 9.4946739619330458 9.0231544256652203 -0.75470958851134928 0 -0.65605901945558964 0.32802950972779482 0 -0.37735479425567464 1 I I 0 1 0.5 forward I I I I #
face $-1 $112 $113 $27 $-1 $114 reversed single #
loop $-1 $-1 $115 $45 #
plane-surface $-1 0 0 -17.262099124682507 0 0 1 1 0 0 forward_v I I I I #
coedge $-1 $116 $117 $118 $119 forward $46 $-1 #
face $-1 $120 $121 $28 $-1 $122 forward single #
loop $-1 $-1 $123 $48 #
plane-surface $-1 -67.928098391674553 0 0 1 0 0 0 0 -1 forward_v I I I I #
coedge $-1 $124 $125 $126 $127 forward $49 $-1 #
face $-1 $128 $129 $29 $-1 $130 forward single #
loop $-1 $-1 $131 $51 #
plane-surface $-1 67.928098391674553 0 0 -1 0 0 0 0 1 forward_v I I I I #
coedge $-1 $132 $133 $134 $135 forward $52 $-1 #
face $-1 $136 $137 $30 $-1 $138 reversed single #
loop $-1 $-1 $139 $54 #
plane-surface $-1 -67.928098391674524 8.0225317996161039 1.4402687461035271 -0.75470958851134928 0 0.65605901945558964 0.65605901945558964 0 0.75470958851134928 forward_v I I I I #
coedge $-1 $140 $141 $142 $143 reversed $55 $-1 #
face $-1 $-1 $144 $31 $-1 $145 forward single #
loop $-1 $146 $147 $57 #
cone-surface $-1 -60.107857923467556 6.5503896372991619 8.5311101610735314 0.75470958851134928 0 -0.65605901945558964 0.16401475486389741 0 0.18867739712783732 1 I I -0.70710678118654746 0.70710678118654746 0.25 forward I I I I #
loop $-1 $-1 $148 $40 #
coedge $-1 $92 $92 $149 $150 reversed $58 $-1 #
face $-1 $-1 $151 $32 $-1 $152 forward single #
loop $-1 $153 $154 $60 #
cone-surface $-1 -60.107857923467556 9.4946739619330458 8.5311101610735314 0.75470958851134928 0 -0.65605901945558964 0.16401475486389741 0 0.18867739712783732 1 I I -0.70710678118654746 0.70710678118654746 0.25 forward I I I I #
loop $-1 $-1 $155 $41 #
coedge $-1 $97 $97 $156 $157 reversed $61 $-1 #
face $-1 $158 $159 $33 $-1 $160 reversed single #
loop $-1 $-1 $161 $63 #
plane-surface $-1 -21.201584856975103 8.0225317996161039 103.9722431171818 0.75470958851134928 0 0.65605901945558964 0.65605901945558964 0 -0.75470958851134928 forward_v I I I I #
coedge $-1 $162 $163 $164 $165 reversed $64 $-1 #
face $-1 $-1 $166 $34 $-1 $167 forward single #
loop $-1 $168 $169 $66 #
cone-surface $-1 60.107857923467549 6.5503896372991619 8.5311101610735278 -0.75470958851134928 0 -0.65605901945558964 0.16401475486389741 0 -0.18867739712783732 1 I I -0.70710678118654746 0.70710678118654746 0.25 forward I I I I #
loop $-1 $-1 $170 $43 #
coedge $-1 $106 $106 $171 $172 reversed $67 $-1 #
face $-1 $-1 $173 $35 $-1 $174 forward single #
loop $-1 $175 $176 $69 #
cone-surface $-1 60.107857923467549 9.4946739619330458 8.5311101610735278 -0.75470958851134928 0 -0.65605901945558964 0.16401475486389741 0 -0.18867739712783732 1 I I -0.70710678118654746 0.70710678118654746 0.25 forward I I I I #
loop $-1 $-1 $177 $44 #
coedge $-1 $111 $111 $178 $179 reversed $70 $-1 #
face $-1 $180 $181 $27 $-1 $182 reversed single #
loop $-1 $-1 $183 $72 #
plane-surface $-1 0 -41.349133509643892 0 0 1 0 0 0 1 forward_v I I I I #
coedge $-1 $184 $185 $186 $187 forward $73 $-1 #
coedge $-1 $188 $75 $189 $190 forward $46 $-1 #
coedge $-1 $75 $188 $191 $192 forward $46 $-1 #
coedge $-1 $193 $194 $75 $119 reversed $195 $-1 #
edge $-1 $196 -41.349133509643892 $197 41.349133509643892 $118 $198 forward 7 unknown #
face $-1 $199 $200 $28 $-1 $201 reversed single #
loop $-1 $-1 $202 $76 #
plane-surface $-1 0 -48.647118296812856 -12.39375435864692 0 0 1 1 0 0 forward_v I I I I #
coedge $-1 $203 $204 $125 $205 forward $77 $-1 #
coedge $-1 $206 $79 $207 $208 reversed $49 $-1 #
coedge $-1 $79 $206 $123 $205 reversed $49 $-1 #
coedge $-1 $209 $202 $79 $127 reversed $121 $-1 #
edge $-1 $210 -67.928098391674553 $211 67.928098391674553 $126 $212 forward 7 unknown #
face $-1 $213 $214 $29 $-1 $215 reversed single #
loop $-1 $-1 $216 $80 #
plane-surface $-1 0 48.647118296812849 -12.39375435864692 0 0 1 1 0 0 forward_v I I I I #
coedge $-1 $217 $218 $133 $219 forward $81 $-1 #
coedge $-1 $220 $83 $221 $222 reversed $52 $-1 #
coedge $-1 $83 $220 $131 $219 reversed $52 $-1 #
coedge $-1 $216 $223 $83 $135 reversed $129 $-1 #
edge $-1 $224 -67.928098391674553 $225 67.928098391674553 $134 $226 forward 7 unknown #
face $-1 $227 $228 $30 $-1 $229 reversed single #
loop $-1 $-1 $230 $84 #
plane-surface $-1 -170.46007276275282 11.457530178355636 90.569951994753168 0 -1 0 0.75470958851134928 0 -0.65605901945558964 forward_v I I I I #
coedge $-1 $231 $232 $233 $234 reversed $85 $-1 #
coedge $-1 $141 $87 $235 $236 reversed $55 $-1 #
coedge $-1 $87 $140 $231 $237 reversed $55 $-1 #
coedge $-1 $233 $238 $87 $143 forward $239 $-1 #
edge $-1 $240 17.301937989701855 $241 31.055644954837511 $142 $242 forward 7 unknown #
loop $-1 $-1 $149 $88 #
plane-surface $-1 -67.928098391674524 8.0225317996161039 1.4402687461035271 -0.75470958851134928 0 0.65605901945558964 0.65605901945558964 0 0.75470958851134928 forward_v I I I I #
loop $-1 $-1 $243 $57 #
coedge $-1 $147 $147 $148 $244 reversed $89 $-1 #
coedge $-1 $148 $148 $147 $244 forward $91 $-1 #
coedge $-1 $149 $149 $92 $150 forward $144 $-1 #
edge $-1 $245 0 $245 6.2831853071796004 $149 $246 forward 7 unknown #
loop $-1 $-1 $156 $93 #
plane-surface $-1 -67.928098391674524 8.0225317996161039 1.4402687461035271 -0.75470958851134928 0 0.65605901945558964 0.65605901945558964 0 0.75470958851134928 forward_v I I I I #
loop $-1 $-1 $247 $60 #
coedge $-1 $154 $154 $155 $248 reversed $94 $-1 #
coedge $-1 $155 $155 $154 $248 forward $96 $-1 #
coedge $-1 $156 $156 $97 $157 forward $151 $-1 #
edge $-1 $249 0 $249 6.2831853071796004 $156 $250 forward 7 unknown #
face $-1 $251 $252 $33 $-1 $253 forward single #
loop $-1 $-1 $254 $98 #
plane-surface $-1 81.330389514103189 4.5875334208765715 193.10192636583145 0 1 0 0.75470958851134928 0 0.65605901945558964 forward_v I I I I #
coedge $-1 $255 $256 $257 $258 reversed $99 $-1 #
coedge $-1 $163 $101 $259 $260 reversed $64 $-1 #
coedge $-1 $101 $162 $255 $261 reversed $64 $-1 #
coedge $-1 $257 $262 $101 $165 forward $252 $-1 #
edge $-1 $263 -27.262903634622958 $264 -13.509196669487309 $164 $265 forward 7 unknown #
loop $-1 $-1 $171 $102 #
plane-surface $-1 -21.201584856975103 8.0225317996161039 103.9722431171818 0.75470958851134928 0 0.65605901945558964 0.65605901945558964 0 -0.75470958851134928 forward_v I I I I #
loop $-1 $-1 $266 $66 #
coedge $-1 $169 $169 $170 $267 reversed $103 $-1 #
coedge $-1 $170 $170 $169 $267 forward $105 $-1 #
coedge $-1 $171 $171 $106 $172 forward $166 $-1 #
edge $-1 $268 0 $268 6.2831853071796004 $171 $269 forward 7 unknown #
loop $-1 $-1 $178 $107 #
plane-surface $-1 -21.201584856975103 8.0225317996161039 103.9722431171818 0.75470958851134928 0 0.65605901945558964 0.65605901945558964 0 -0.75470958851134928 forward_v I I I I #
loop $-1 $-1 $270 $69 #
coedge $-1 $176 $176 $177 $271 reversed $108 $-1 #
coedge $-1 $177 $177 $176 $271 forward $110 $-1 #
coedge $-1 $178 $178 $111 $179 forward $173 $-1 #
edge $-1 $272 0 $272 6.2831853071796004 $178 $273 forward 7 unknown #
face $-1 $274 $275 $27 $-1 $276 reversed single #
loop $-1 $-1 $277 $112 #
plane-surface $-1 -67.928098391674553 0 0 1 0 0 0 0 -1 forward_v I I I I #
coedge $-1 $278 $191 $279 $280 forward $113 $-1 #
coedge $-1 $281 $115 $278 $282 forward $73 $-1 #
coedge $-1 $115 $281 $283 $284 forward $73 $-1 #
coedge $-1 $194 $193 $115 $187 reversed $195 $-1 #
edge $-1 $285 -41.349133509643892 $286 41.349133509643892 $186 $287 forward 7 unknown #
coedge $-1 $117 $116 $288 $289 forward $46 $-1 #
coedge $-1 $290 $291 $116 $190 reversed $275 $-1 #
edge $-1 $197 -67.928098391674553 $292 67.928098391674553 $189 $293 forward 7 unknown #
coedge $-1 $183 $294 $117 $192 reversed $113 $-1 #
edge $-1 $295 -67.928098391674553 $196 67.928098391674553 $191 $296 forward 7 unknown #
coedge $-1 $186 $118 $294 $297 forward $195 $-1 #
coedge $-1 $118 $186 $290 $298 reversed $195 $-1 #
loop $-1 $-1 $193 $274 #
vertex $-1 $119 $299 #
vertex $-1 $119 $300 #
straight-curve $-1 67.928098391674553 0 17.262099124682507 0 1 0 I I #
face $-1 $301 $302 $28 $-1 $303 reversed single #
loop $-1 $-1 $304 $120 #
plane-surface $-1 0 -48.647118296812856 -16.313141701638738 0 0 1 1 0 0 forward_v I I I I #
coedge $-1 $126 $305 $306 $307 forward $121 $-1 #
coedge $-1 $308 $123 $309 $310 reversed $77 $-1 #
coedge $-1 $123 $308 $209 $311 reversed $77 $-1 #
edge $-1 $210 12.39375435864692 $312 16.313141701638738 $123 $313 forward 7 unknown #
coedge $-1 $125 $124 $314 $315 forward $49 $-1 #
coedge $-1 $306 $316 $124 $208 forward $317 $-1 #
edge $-1 $318 -16.313141701638738 $211 -12.39375435864692 $207 $319 forward 7 unknown #
coedge $-1 $305 $126 $204 $311 forward $121 $-1 #
vertex $-1 $205 $320 #
vertex $-1 $307 $321 #
straight-curve $-1 0 -41.349133509643892 -12.39375435864692 1 0 0 I I #
face $-1 $322 $323 $29 $-1 $324 reversed single #
loop $-1 $-1 $325 $128 #
plane-surface $-1 0 48.647118296812849 -16.313141701638738 0 0 1 1 0 0 forward_v I I I I #
coedge $-1 $326 $134 $218 $327 forward $129 $-1 #
coedge $-1 $328 $131 $325 $329 reversed $81 $-1 #
coedge $-1 $131 $328 $216 $327 reversed $81 $-1 #
edge $-1 $224 12.39375435864692 $330 16.313141701638738 $131 $331 forward 7 unknown #
coedge $-1 $133 $132 $332 $333 forward $52 $-1 #
coedge $-1 $334 $335 $132 $222 forward $336 $-1 #
edge $-1 $337 -16.313141701638738 $225 -12.39375435864692 $221 $338 forward 7 unknown #
coedge $-1 $134 $326 $334 $339 forward $129 $-1 #
vertex $-1 $219 $340 #
vertex $-1 $339 $341 #
straight-curve $-1 0 41.349133509643892 -12.39375435864692 -1 0 0 I I #
face $-1 $-1 $239 $30 $-1 $342 forward single #
loop $-1 $-1 $343 $136 #
plane-surface $-1 -67.928098391674553 0 0 1 0 0 0 0 -1 forward_v I I I I #
coedge $-1 $344 $345 $346 $347 reversed $137 $-1 #
coedge $-1 $348 $139 $141 $237 forward $85 $-1 #
coedge $-1 $139 $348 $344 $349 forward $85 $-1 #
coedge $-1 $346 $142 $139 $234 forward $239 $-1 #
edge $-1 $241 0.57626752106851953 $350 7.4462642785475843 $233 $351 forward 7 unknown #
coedge $-1 $352 $353 $140 $236 forward $228 $-1 #
edge $-1 $354 -43.844707251273093 $240 -28.022876872694077 $235 $355 forward 7 unknown #
edge $-1 $241 -20.964130599940109 $354 4.328046010504047e-014 $141 $356 forward 7 unknown #
coedge $-1 $142 $346 $352 $357 forward $239 $-1 #
loop $-1 $-1 $346 $227 #
vertex $-1 $236 $358 #
vertex $-1 $143 $359 #
straight-curve $-1 -85.230036381376408 4.5875334208765715 17.262099124682507 1 0 0 I I #
coedge $-1 $243 $243 $-1 $360 reversed $146 $-1 #
edge $-1 $361 0 $361 6.2831853071796004 $147 $362 forward 7 unknown #
vertex $-1 $150 $363 #
ellipse-curve $-1 -61.051244909106721 6.5503896372991619 9.3511839353930011 -0.75470958851134928 0 0.65605901945558964 0.32802950972779482 0 0.37735479425567464 1 I I #
coedge $-1 $247 $247 $-1 $364 reversed $153 $-1 #
edge $-1 $365 0 $365 6.2831853071796004 $154 $366 forward 7 unknown #
vertex $-1 $157 $367 #
ellipse-curve $-1 -61.051244909106721 9.4946739619330458 9.3511839353930011 -0.75470958851134928 0 0.65605901945558964 0.32802950972779482 0 0.37735479425567464 1 I I #
face $-1 $-1 $368 $33 $-1 $369 reversed single #
loop $-1 $-1 $164 $158 #
plane-surface $-1 0 0 17.262099124682507 0 0 1 1 0 0 forward_v I I I I #
coedge $-1 $370 $371 $372 $373 reversed $159 $-1 #
coedge $-1 $374 $161 $163 $261 forward $99 $-1 #
coedge $-1 $161 $374 $370 $375 forward $99 $-1 #
coedge $-1 $372 $164 $161 $258 forward $252 $-1 #
edge $-1 $264 -7.4462642785475843 $376 -0.57626752106851953 $257 $377 forward 7 unknown #
coedge $-1 $378 $379 $162 $260 forward $368 $-1 #
edge $-1 $380 -95.110694436812224 $263 -79.288864058233216 $259 $381 forward 7 unknown #
edge $-1 $264 114.892066183409 $380 135.85619678334913 $163 $382 forward 7 unknown #
coedge $-1 $164 $372 $378 $383 forward $252 $-1 #
vertex $-1 $260 $384 #
vertex $-1 $165 $385 #
straight-curve $-1 40.665194757051594 11.457530178355636 17.262099124682507 -1 0 0 I I #
coedge $-1 $266 $266 $-1 $386 reversed $168 $-1 #
edge $-1 $387 0 $387 6.2831853071796004 $169 $388 forward 7 unknown #
vertex $-1 $172 $389 #
ellipse-curve $-1 61.051244909106721 6.5503896372991619 9.3511839353930011 0.75470958851134928 0 0.65605901945558964 0.32802950972779482 0 -0.37735479425567464 1 I I #
coedge $-1 $270 $270 $-1 $390 reversed $175 $-1 #
edge $-1 $391 0 $391 6.2831853071796004 $176 $392 forward 7 unknown #
vertex $-1 $179 $393 #
ellipse-curve $-1 61.051244909106721 9.4946739619330458 9.3511839353930011 0.75470958851134928 0 0.65605901945558964 0.32802950972779482 0 -0.37735479425567464 1 I I #
face $-1 $-1 $195 $27 $-1 $394 reversed single #
loop $-1 $-1 $291 $180 #
plane-surface $-1 0 41.349133509643892 0 0 -1 0 0 0 -1 forward_v I I I I #
coedge $-1 $395 $288 $291 $396 forward $181 $-1 #
coedge $-1 $294 $183 $184 $282 reversed $113 $-1 #
coedge $-1 $288 $395 $183 $280 reversed $181 $-1 #
edge $-1 $295 -17.262099124682507 $397 17.262099124682507 $279 $398 forward 7 unknown #
coedge $-1 $185 $184 $395 $399 forward $73 $-1 #
edge $-1 $286 -67.928098391674553 $397 67.928098391674553 $278 $400 forward 7 unknown #
coedge $-1 $291 $290 $185 $284 reversed $275 $-1 #
edge $-1 $401 -67.928098391674553 $285 67.928098391674553 $283 $402 forward 7 unknown #
vertex $-1 $187 $403 #
vertex $-1 $297 $404 #
straight-curve $-1 67.928098391674553 0 -17.262099124682507 0 -1 0 I I #
coedge $-1 $277 $279 $188 $289 reversed $181 $-1 #
edge $-1 $292 -41.349133509643892 $295 41.349133509643892 $288 $405 forward 7 unknown #
coedge $-1 $283 $189 $194 $298 forward $275 $-1 #
coedge $-1 $189 $283 $277 $396 reversed $275 $-1 #
vertex $-1 $190 $406 #
straight-curve $-1 0 41.349133509643892 17.262099124682507 -1 0 0 I I #
coedge $-1 $191 $278 $193 $297 reversed $113 $-1 #
vertex $-1 $289 $407 #
straight-curve $-1 0 -41.349133509643892 17.262099124682507 1 0 0 I I #
edge $-1 $196 -17.262099124682507 $286 17.262099124682507 $193 $408 forward 7 unknown #
edge $-1 $197 -17.262099124682507 $285 17.262099124682507 $194 $409 forward 7 unknown #
point $-1 67.928098391674553 -41.349133509643892 17.262099124682507 #
point $-1 67.928098391674553 41.349133509643892 17.262099124682507 #
face $-1 $-1 $317 $28 $-1 $410 reversed single #
loop $-1 $-1 $411 $199 #
plane-surface $-1 0 -55.94510308398182 -14.353448030142829 0 1 0 0 0 1 forward_v I I I I #
coedge $-1 $412 $314 $316 $413 forward $200 $-1 #
coedge $-1 $202 $209 $414 $415 forward $121 $-1 #
coedge $-1 $416 $207 $202 $307 reversed $317 $-1 #
edge $-1 $417 -7.2979847871689643 $211 7.2979847871689643 $306 $418 forward 7 unknown #
coedge $-1 $204 $203 $411 $419 reversed $77 $-1 #
coedge $-1 $314 $412 $203 $310 forward $200 $-1 #
edge $-1 $420 -7.2979847871689643 $312 7.2979847871689643 $203 $421 forward 7 unknown #
edge $-1 $210 -7.2979847871689643 $422 7.2979847871689643 $204 $423 forward 7 unknown #
vertex $-1 $205 $424 #
straight-curve $-1 -67.928098391674553 -41.349133509643892 0 0 0 -1 I I #
coedge $-1 $304 $309 $206 $315 reversed $200 $-1 #
edge $-1 $318 -67.928098391674553 $312 67.928098391674553 $314 $425 forward 7 unknown #
coedge $-1 $207 $416 $304 $413 reversed $317 $-1 #
loop $-1 $-1 $207 $301 #
vertex $-1 $208 $426 #
straight-curve $-1 67.928098391674553 -41.349133509643892 0 0 0 1 I I #
point $-1 -67.928098391674553 -41.349133509643892 -12.39375435864692 #
point $-1 67.928098391674553 -41.349133509643892 -12.39375435864692 #
face $-1 $-1 $336 $29 $-1 $427 reversed single #
loop $-1 $-1 $428 $213 #
plane-surface $-1 0 55.945103083981813 -14.353448030142829 0 -1 0 0 0 -1 forward_v I I I I #
coedge $-1 $332 $429 $217 $329 forward $214 $-1 #
coedge $-1 $223 $216 $430 $431 forward $129 $-1 #
edge $-1 $224 -7.2979847871689643 $432 7.2979847871689643 $218 $433 forward 7 unknown #
coedge $-1 $218 $217 $428 $434 reversed $81 $-1 #
edge $-1 $435 -7.2979847871689643 $330 7.2979847871689643 $217 $436 forward 7 unknown #
vertex $-1 $219 $437 #
straight-curve $-1 67.928098391674553 41.349133509643892 0 0 0 -1 I I #
coedge $-1 $438 $325 $220 $333 reversed $214 $-1 #
edge $-1 $337 -67.928098391674553 $330 67.928098391674553 $332 $439 forward 7 unknown #
coedge $-1 $440 $221 $223 $339 reversed $336 $-1 #
coedge $-1 $221 $440 $438 $441 reversed $336 $-1 #
loop $-1 $-1 $221 $322 #
vertex $-1 $222 $442 #
straight-curve $-1 -67.928098391674553 41.349133509643892 0 0 0 1 I I #
edge $-1 $443 -7.2979847871689643 $225 7.2979847871689643 $334 $444 forward 7 unknown #
point $-1 67.928098391674553 41.349133509643885 -12.39375435864692 #
point $-1 -67.928098391674553 41.349133509643885 -12.39375435864692 #
plane-surface $-1 0 0 17.262099124682507 0 0 1 1 0 0 forward_v I I I I #
coedge $-1 $353 $352 $345 $445 forward $228 $-1 #
coedge $-1 $345 $230 $232 $349 reversed $137 $-1 #
coedge $-1 $230 $344 $343 $445 reversed $137 $-1 #
coedge $-1 $238 $233 $230 $347 forward $239 $-1 #
edge $-1 $350 -31.055644954837511 $446 -17.301937989701855 $346 $447 forward 7 unknown #
coedge $-1 $232 $231 $353 $448 reversed $85 $-1 #
edge $-1 $449 -4.328046010504047e-014 $350 20.964130599940109 $344 $450 forward 7 unknown #
vertex $-1 $234 $451 #
straight-curve $-1 -54.174391426538897 4.0112658998080519 17.262099124682507 0 1 0 I I #
coedge $-1 $343 $235 $238 $357 reversed $228 $-1 #
coedge $-1 $235 $343 $348 $448 forward $228 $-1 #
vertex $-1 $236 $452 #
straight-curve $-1 -67.928098391674553 4.5875334208765715 45.284975997376584 0 0 1 I I #
straight-curve $-1 -67.928098391674524 4.5875334208765715 1.4402687461035271 -0.65605901945558964 0 -0.75470958851134928 I I #
edge $-1 $446 -11.457530178355636 $240 -4.5875334208765715 $352 $453 forward 7 unknown #
point $-1 -67.928098391674553 4.5875334208765715 17.262099124682507 #
point $-1 -54.174391426538897 4.5875334208765715 17.262099124682507 #
edge $-1 $454 1 $454 0 $243 $-1 forward 7 unknown #
vertex $-1 $244 $455 #
ellipse-curve $-1 -60.296535320595396 6.5503896372991619 8.6951249159374289 -0.75470958851134928 0 0.65605901945558964 0.32802950972779482 0 0.37735479425567464 1 I I #
point $-1 -60.723215399378951 6.5503896372991619 9.7285387296486938 #
edge $-1 $456 1 $456 0 $247 $-1 forward 7 unknown #
vertex $-1 $248 $457 #
ellipse-curve $-1 -60.296535320595396 9.4946739619330458 8.6951249159374289 -0.75470958851134928 0 0.65605901945558964 0.32802950972779482 0 0.37735479425567464 1 I I #
point $-1 -60.723215399378951 9.4946739619330458 9.7285387296486938 #
loop $-1 $-1 $259 $251 #
plane-surface $-1 67.928098391674553 0 0 -1 0 0 0 0 1 forward_v I I I I #
coedge $-1 $371 $254 $256 $375 reversed $159 $-1 #
coedge $-1 $254 $370 $458 $459 reversed $159 $-1 #
coedge $-1 $262 $257 $254 $373 forward $252 $-1 #
edge $-1 $376 13.509196669487309 $460 27.262903634622958 $372 $461 forward 7 unknown #
coedge $-1 $256 $255 $379 $462 reversed $99 $-1 #
edge $-1 $463 -135.85619678334913 $376 -114.892066183409 $370 $464 forward 7 unknown #
vertex $-1 $258 $465 #
straight-curve $-1 54.174391426538904 4.0112658998080519 17.262099124682493 0 -1 0 I I #
coedge $-1 $458 $259 $262 $383 reversed $368 $-1 #
coedge $-1 $259 $458 $374 $462 forward $368 $-1 #
vertex $-1 $260 $466 #
straight-curve $-1 67.928098391674553 11.457530178355636 96.550963182915723 0 0 1 I I #
straight-curve $-1 -21.201584856975103 11.457530178355636 103.9722431171818 0.65605901945558964 0 -0.75470958851134928 I I #
edge $-1 $460 4.5875334208765715 $263 11.457530178355636 $378 $467 forward 7 unknown #
point $-1 67.928098391674553 11.457530178355636 17.262099124682507 #
point $-1 54.174391426538904 11.457530178355636 17.262099124682507 #
edge $-1 $468 1 $468 0 $266 $-1 forward 7 unknown #
vertex $-1 $267 $469 #
ellipse-curve $-1 60.296535320595389 6.5503896372991619 8.6951249159374253 0.75470958851134928 0 0.65605901945558964 0.32802950972779482 0 -0.37735479425567464 1 I I #
point $-1 61.379274418834527 6.5503896372991619 8.9738291411373403 #
edge $-1 $470 1 $470 0 $270 $-1 forward 7 unknown #
vertex $-1 $271 $471 #
ellipse-curve $-1 60.296535320595389 9.4946739619330458 8.6951249159374253 0.75470958851134928 0 0.65605901945558964 0.32802950972779482 0 -0.37735479425567464 1 I I #
point $-1 61.379274418834527 9.4946739619330458 8.9738291411373403 #
plane-surface $-1 67.928098391674553 0 0 -1 0 0 0 0 1 forward_v I I I I #
coedge $-1 $279 $277 $281 $399 reversed $181 $-1 #
edge $-1 $292 -17.262099124682507 $401 17.262099124682507 $291 $472 forward 7 unknown #
vertex $-1 $399 $473 #
straight-curve $-1 -67.928098391674553 -41.349133509643892 0 0 0 -1 I I #
edge $-1 $397 -41.349133509643892 $401 41.349133509643892 $395 $474 forward 7 unknown #
straight-curve $-1 0 -41.349133509643892 -17.262099124682507 -1 0 0 I I #
vertex $-1 $284 $475 #
straight-curve $-1 0 41.349133509643892 -17.262099124682507 1 0 0 I I #
point $-1 67.928098391674553 41.349133509643892 -17.262099124682507 #
point $-1 67.928098391674553 -41.349133509643892 -17.262099124682507 #
straight-curve $-1 -67.928098391674553 0 17.262099124682507 0 -1 0 I I #
point $-1 -67.928098391674553 41.349133509643892 17.262099124682507 #
point $-1 -67.928098391674553 -41.349133509643892 17.262099124682507 #
straight-curve $-1 67.928098391674553 -41.349133509643892 0 0 0 -1 I I #
straight-curve $-1 67.928098391674553 41.349133509643892 0 0 0 -1 I I #
plane-surface $-1 67.928098391674553 0 0 -1 0 0 0 0 1 forward_v I I I I #
coedge $-1 $476 $414 $308 $419 forward $302 $-1 #
coedge $-1 $309 $304 $476 $477 forward $200 $-1 #
edge $-1 $318 -7.2979847871689643 $478 7.2979847871689643 $316 $479 forward 7 unknown #
coedge $-1 $411 $480 $305 $415 reversed $302 $-1 #
edge $-1 $422 -67.928098391674553 $417 67.928098391674553 $414 $481 forward 7 unknown #
coedge $-1 $316 $306 $480 $482 forward $317 $-1 #
vertex $-1 $307 $483 #
straight-curve $-1 67.928098391674553 -48.647118296812856 -12.39375435864692 0 1 0 I I #
edge $-1 $422 -1.9596936714959092 $420 1.9596936714959092 $308 $484 forward 7 unknown #
vertex $-1 $310 $485 #
straight-curve $-1 -67.928098391674553 -48.647118296812856 -16.313141701638738 0 1 0 I I #
vertex $-1 $311 $486 #
straight-curve $-1 -67.928098391674553 -48.647118296812856 -12.39375435864692 0 -1 0 I I #
point $-1 -67.928098391674553 -41.349133509643892 -16.313141701638738 #
straight-curve $-1 0 -41.349133509643892 -16.313141701638738 -1 0 0 I I #
point $-1 67.928098391674553 -41.349133509643892 -16.313141701638738 #
plane-surface $-1 -67.928098391674553 0 0 1 0 0 0 0 -1 forward_v I I I I #
coedge $-1 $487 $430 $328 $434 forward $323 $-1 #
coedge $-1 $325 $438 $487 $488 forward $214 $-1 #
coedge $-1 $428 $489 $326 $431 reversed $323 $-1 #
edge $-1 $432 -67.928098391674553 $443 67.928098391674553 $430 $490 forward 7 unknown #
vertex $-1 $327 $491 #
straight-curve $-1 67.928098391674553 48.647118296812849 -12.39375435864692 0 1 0 I I #
edge $-1 $432 -1.9596936714959092 $435 1.9596936714959092 $328 $492 forward 7 unknown #
vertex $-1 $329 $493 #
straight-curve $-1 67.928098391674553 48.647118296812849 -16.313141701638738 0 -1 0 I I #
point $-1 67.928098391674553 41.349133509643885 -16.313141701638738 #
coedge $-1 $429 $332 $335 $441 forward $214 $-1 #
straight-curve $-1 0 41.349133509643892 -16.313141701638738 1 0 0 I I #
coedge $-1 $335 $334 $489 $494 forward $336 $-1 #
edge $-1 $337 -7.2979847871689643 $495 7.2979847871689643 $335 $496 forward 7 unknown #
point $-1 -67.928098391674553 41.349133509643885 -16.313141701638738 #
vertex $-1 $431 $497 #
straight-curve $-1 -67.928098391674553 48.647118296812849 -12.39375435864692 0 -1 0 I I #
edge $-1 $446 28.022876872694077 $449 43.844707251273093 $343 $498 forward 7 unknown #
vertex $-1 $357 $499 #
straight-curve $-1 -85.230036381376408 11.457530178355636 17.262099124682507 -1 0 0 I I #
edge $-1 $449 -7.4462642785475843 $354 -0.57626752106851953 $353 $500 forward 7 unknown #
vertex $-1 $448 $501 #
straight-curve $-1 -67.928098391674524 11.457530178355636 1.4402687461035271 0.65605901945558964 0 0.75470958851134928 I I #
point $-1 -54.174391426538897 11.457530178355636 17.262099124682507 #
point $-1 -67.928098391674553 4.5875334208765715 1.4402687461034944 #
straight-curve $-1 -67.928098391674553 0 17.262099124682507 0 -1 0 I I #
vertex $-1 $360 $502 #
point $-1 -59.968505810867597 6.5503896372991619 9.0724797101931038 #
vertex $-1 $364 $503 #
point $-1 -59.968505810867597 9.4946739619330458 9.0724797101931038 #
coedge $-1 $379 $378 $371 $459 forward $368 $-1 #
edge $-1 $460 79.288864058233216 $463 95.110694436812224 $458 $504 forward 7 unknown #
vertex $-1 $383 $505 #
straight-curve $-1 40.665194757051594 4.5875334208765715 17.262099124682507 1 0 0 I I #
edge $-1 $463 0.57626752106851953 $380 7.4462642785475843 $379 $506 forward 7 unknown #
vertex $-1 $462 $507 #
straight-curve $-1 -21.201584856975103 4.5875334208765715 103.9722431171818 -0.65605901945558964 0 0.75470958851134928 I I #
point $-1 54.174391426538904 4.5875334208765715 17.262099124682507 #
point $-1 67.928098391674553 11.457530178355636 1.4402687461034986 #
straight-curve $-1 67.928098391674553 0 17.262099124682507 0 1 0 I I #
vertex $-1 $386 $508 #
point $-1 60.62456483032318 6.5503896372991619 8.3177701216817503 #
vertex $-1 $390 $509 #
point $-1 60.62456483032318 9.4946739619330458 8.3177701216817503 #
straight-curve $-1 -67.928098391674553 41.349133509643892 0 0 0 -1 I I #
point $-1 -67.928098391674553 -41.349133509643892 -17.262099124682507 #
straight-curve $-1 -67.928098391674553 0 -17.262099124682507 0 1 0 I I #
point $-1 -67.928098391674553 41.349133509643892 -17.262099124682507 #
coedge $-1 $480 $411 $412 $477 reversed $302 $-1 #
edge $-1 $478 -67.928098391674553 $420 67.928098391674553 $476 $510 forward 7 unknown #
vertex $-1 $482 $511 #
straight-curve $-1 67.928098391674553 -48.647118296812856 -16.313141701638738 0 -1 0 I I #
coedge $-1 $414 $476 $416 $482 reversed $302 $-1 #
straight-curve $-1 0 -55.94510308398182 -12.39375435864692 1 0 0 I I #
edge $-1 $417 -1.9596936714959092 $478 1.9596936714959092 $416 $512 forward 7 unknown #
point $-1 67.928098391674553 -55.94510308398182 -12.39375435864692 #
straight-curve $-1 -67.928098391674553 -55.94510308398182 -14.353448030142829 0 0 -1 I I #
point $-1 -67.928098391674553 -55.94510308398182 -16.313141701638738 #
point $-1 -67.928098391674553 -55.94510308398182 -12.39375435864692 #
coedge $-1 $489 $428 $429 $488 reversed $323 $-1 #
edge $-1 $495 -67.928098391674553 $435 67.928098391674553 $487 $513 forward 7 unknown #
coedge $-1 $430 $487 $440 $494 reversed $323 $-1 #
straight-curve $-1 0 55.945103083981813 -12.39375435864692 -1 0 0 I I #
point $-1 67.928098391674553 55.945103083981813 -12.39375435864692 #
straight-curve $-1 67.928098391674553 55.945103083981813 -14.353448030142829 0 0 -1 I I #
point $-1 67.928098391674553 55.945103083981813 -16.313141701638738 #
edge $-1 $443 -1.9596936714959092 $495 1.9596936714959092 $489 $514 forward 7 unknown #
vertex $-1 $488 $515 #
straight-curve $-1 -67.928098391674553 48.647118296812849 -16.313141701638738 0 1 0 I I #
point $-1 -67.928098391674553 55.945103083981813 -12.39375435864692 #
straight-curve $-1 -67.928098391674553 11.457530178355636 45.284975997376584 0 0 -1 I I #
point $-1 -67.928098391674553 11.457530178355636 17.262099124682507 #
straight-curve $-1 -67.928098391674553 4.0112658998080519 1.4402687461035004 0 -1 0 I I #
point $-1 -67.928098391674553 11.457530178355636 1.4402687461034944 #
point $-1 -59.919180526339716 6.5503896372991619 8.3670954062096339 #
point $-1 -59.919180526339716 9.4946739619330458 8.3670954062096339 #
straight-curve $-1 67.928098391674553 4.5875334208765715 96.550963182915723 0 0 -1 I I #
point $-1 67.928098391674553 4.5875334208765715 17.262099124682507 #
straight-curve $-1 67.928098391674553 4.0112658998080519 1.4402687461034915 0 1 0 I I #
point $-1 67.928098391674553 4.5875334208765715 1.4402687461034986 #
point $-1 59.919180526339709 6.5503896372991619 8.3670954062096303 #
point $-1 59.919180526339709 9.4946739619330458 8.3670954062096303 #
straight-curve $-1 0 -55.94510308398182 -16.313141701638738 -1 0 0 I I #
point $-1 67.928098391674553 -55.94510308398182 -16.313141701638738 #
straight-curve $-1 67.928098391674553 -55.94510308398182 -14.353448030142829 0 0 -1 I I #
straight-curve $-1 0 55.945103083981813 -16.313141701638738 1 0 0 I I #
straight-curve $-1 -67.928098391674553 55.945103083981813 -14.353448030142829 0 0 -1 I I #
point $-1 -67.928098391674553 55.945103083981813 -16.313141701638738 #
End-of-ACIS-data 