500 0 6 0           
7 Unknown 11 ACIS 5.0 NT 24 Thu Mar 25 23:08:57 1999 
-1 9.9999999999999995e-007 1e-010 
body $-1 $6 $-1 $7 #
body $-1 $8 $-1 $9 #
body $-1 $10 $-1 $11 #
body $-1 $12 $-1 $13 #
body $-1 $14 $-1 $15 #
body $-1 $16 $-1 $17 #
lump $-1 $-1 $18 $0 #
transform $-1 1 0 0 0 1 0 0 0 1 57.087923825800345 36.269395178941124 17.301875148214563 1 rotate no_reflect no_shear #
lump $-1 $-1 $19 $1 #
transform $-1 1 0 0 0 1 0 0 0 1 57.087923825800345 36.269395178941124 17.301875148214563 1 rotate no_reflect no_shear #
lump $-1 $-1 $20 $2 #
transform $-1 1 0 0 0 1 0 0 0 1 57.087923825800345 36.269395178941124 17.301875148214563 1 rotate no_reflect no_shear #
lump $-1 $-1 $21 $3 #
transform $-1 1 0 0 0 1 0 0 0 1 57.087923825800345 36.269395178941124 17.301875148214563 1 rotate no_reflect no_shear #
lump $-1 $-1 $22 $4 #
transform $-1 1 0 0 0 1 0 0 0 1 57.087923825800345 36.269395178941124 17.301875148214563 1 rotate no_reflect no_shear #
lump $-1 $-1 $23 $5 #
transform $-1 1 0 0 0 1 0 0 0 1 57.087923825800345 36.269395178941124 17.301875148214563 1 rotate no_reflect no_shear #
shell $-1 $-1 $-1 $24 $-1 $6 #
shell $-1 $-1 $-1 $25 $-1 $8 #
shell $-1 $-1 $-1 $26 $-1 $10 #
shell $-1 $-1 $-1 $27 $-1 $12 #
shell $-1 $-1 $-1 $28 $-1 $14 #
shell $-1 $-1 $-1 $29 $-1 $16 #
face $-1 $30 $31 $18 $-1 $32 forward single #
face $-1 $33 $34 $19 $-1 $35 forward single #
face $-1 $36 $37 $20 $-1 $38 reversed single #
face $-1 $39 $40 $21 $-1 $41 forward single #
face $-1 $42 $43 $22 $-1 $44 forward single #
face $-1 $45 $46 $23 $-1 $47 forward single #
face $-1 $48 $49 $18 $-1 $50 reversed single #
loop $-1 $-1 $51 $24 #
plane-surface $-1 0 0 17.301875148214563 0 0 1 1 0 0 forward_v I I I I #
face $-1 $52 $53 $19 $-1 $54 reversed single #
loop $-1 $-1 $55 $25 #
plane-surface $-1 0 -36.269395178941124 0 0 1 0 0 0 1 forward_v I I I I #
face $-1 $56 $57 $20 $-1 $58 reversed single #
loop $-1 $-1 $59 $26 #
plane-surface $-1 -37.610624947513642 74.849274503328388 138.50259271423602 1 0 0 0 -0.75470958851134928 -0.65605901945558964 forward_v I I I I #
face $-1 $60 $61 $21 $-1 $62 forward single #
loop $-1 $63 $64 $27 #
cone-surface $-1 -32.476109167962889 31.919558415593947 12.488146666424409 0 -0.75470958851134928 -0.65605901945558964 1.5 0 0 1 I I 0 1 1.5 forward I I I I #
face $-1 $65 $66 $22 $-1 $67 forward single #
loop $-1 $68 $69 $28 #
cone-surface $-1 -24.774335498636745 31.919558415593947 12.488146666424409 0 -0.75470958851134928 -0.65605901945558964 1.5 0 0 1 I I 0 1 1.5 forward I I I I #
face $-1 $70 $71 $23 $-1 $72 forward single #
loop $-1 $73 $74 $29 #
cone-surface $-1 -17.072561829310608 31.919558415593947 12.488146666424409 0 -0.75470958851134928 -0.65605901945558964 1.5 0 0 1 I I 0 1 1.5 forward I I I I #
face $-1 $75 $76 $18 $-1 $77 reversed single #
loop $-1 $-1 $78 $30 #
plane-surface $-1 0 0 -17.301875148214563 0 0 1 1 0 0 forward_v I I I I #
coedge $-1 $79 $80 $81 $82 forward $31 $-1 #
face $-1 $83 $84 $19 $-1 $85 reversed single #
loop $-1 $-1 $86 $33 #
plane-surface $-1 0 0 -17.301875148214563 0 0 1 1 0 0 forward_v I I I I #
coedge $-1 $87 $88 $89 $90 forward $34 $-1 #
face $-1 $91 $92 $20 $-1 $93 reversed single #
loop $-1 $-1 $94 $36 #
plane-surface $-1 -24.774335498636745 -11.320332495745674 63.596498058416074 0 0.75470958851134928 0.65605901945558964 1 0 0 forward_v I I I I #
coedge $-1 $95 $96 $97 $98 reversed $37 $-1 #
face $-1 $-1 $99 $21 $-1 $100 forward single #
loop $-1 $101 $102 $39 #
cone-surface $-1 -32.476109167962889 30.676902947612007 11.407922775995992 0 -0.75470958851134928 -0.65605901945558964 0.75 0 0 1 I I -0.70710678118654757 0.70710678118654757 0.75 forward I I I I #
loop $-1 $-1 $103 $27 #
coedge $-1 $64 $64 $104 $105 reversed $40 $-1 #
face $-1 $-1 $106 $22 $-1 $107 forward single #
loop $-1 $108 $109 $42 #
cone-surface $-1 -24.774335498636745 30.676902947612007 11.407922775995992 0 -0.75470958851134928 -0.65605901945558964 0.75 0 0 1 I I -0.70710678118654757 0.70710678118654757 0.75 forward I I I I #
loop $-1 $-1 $110 $28 #
coedge $-1 $69 $69 $111 $112 reversed $43 $-1 #
face $-1 $-1 $113 $23 $-1 $114 forward single #
loop $-1 $115 $116 $45 #
cone-surface $-1 -17.072561829310608 30.676902947612007 11.407922775995992 0 -0.75470958851134928 -0.65605901945558964 0.75 0 0 1 I I -0.70710678118654757 0.70710678118654757 0.75 forward I I I I #
loop $-1 $-1 $117 $29 #
coedge $-1 $74 $74 $118 $119 reversed $46 $-1 #
face $-1 $120 $121 $18 $-1 $122 reversed single #
loop $-1 $-1 $123 $48 #
plane-surface $-1 0 -36.269395178941124 0 0 1 0 0 0 1 forward_v I I I I #
coedge $-1 $124 $125 $126 $127 forward $49 $-1 #
coedge $-1 $128 $51 $129 $130 forward $31 $-1 #
coedge $-1 $51 $128 $131 $132 forward $31 $-1 #
coedge $-1 $133 $134 $51 $82 reversed $135 $-1 #
edge $-1 $136 -36.269395178941124 $137 36.269395178941124 $81 $138 forward 7 unknown #
face $-1 $139 $140 $19 $-1 $141 forward single #
loop $-1 $-1 $142 $52 #
plane-surface $-1 57.087923825800345 0 0 -1 0 0 0 0 1 forward_v I I I I #
coedge $-1 $143 $144 $145 $146 forward $53 $-1 #
coedge $-1 $145 $55 $142 $147 reversed $34 $-1 #
coedge $-1 $55 $145 $148 $149 reversed $34 $-1 #
coedge $-1 $150 $151 $55 $90 reversed $140 $-1 #
edge $-1 $152 -57.087923825800345 $153 57.087923825800345 $89 $154 forward 7 unknown #
face $-1 $155 $156 $20 $-1 $157 forward single #
loop $-1 $-1 $158 $56 #
plane-surface $-1 -11.938046049759851 74.849274503328388 138.50259271423602 -1 0 0 0 0.75470958851134928 0.65605901945558964 forward_v I I I I #
coedge $-1 $159 $160 $161 $162 reversed $57 $-1 #
coedge $-1 $96 $59 $163 $164 reversed $37 $-1 #
coedge $-1 $59 $95 $159 $165 reversed $37 $-1 #
coedge $-1 $161 $166 $59 $98 forward $156 $-1 #
edge $-1 $167 1.1552420727230697 $168 8.501669046220556 $97 $169 forward 7 unknown #
loop $-1 $-1 $104 $60 #
plane-surface $-1 -24.774335498636745 -11.320332495745674 63.596498058416074 0 0.75470958851134928 0.65605901945558964 1 0 0 forward_v I I I I #
loop $-1 $-1 $170 $39 #
coedge $-1 $102 $102 $103 $171 reversed $61 $-1 #
coedge $-1 $103 $103 $102 $171 forward $63 $-1 #
coedge $-1 $104 $104 $64 $105 forward $99 $-1 #
edge $-1 $172 4.6730296814113435e-016 $172 6.2831853071796013 $104 $173 forward 7 unknown #
loop $-1 $-1 $111 $65 #
plane-surface $-1 -24.774335498636745 -11.320332495745674 63.596498058416074 0 0.75470958851134928 0.65605901945558964 1 0 0 forward_v I I I I #
loop $-1 $-1 $174 $42 #
coedge $-1 $109 $109 $110 $175 reversed $66 $-1 #
coedge $-1 $110 $110 $109 $175 forward $68 $-1 #
coedge $-1 $111 $111 $69 $112 forward $106 $-1 #
edge $-1 $176 4.6730296814113435e-016 $176 6.2831853071796013 $111 $177 forward 7 unknown #
loop $-1 $-1 $118 $70 #
plane-surface $-1 -24.774335498636745 -11.320332495745674 63.596498058416074 0 0.75470958851134928 0.65605901945558964 1 0 0 forward_v I I I I #
loop $-1 $-1 $178 $45 #
coedge $-1 $116 $116 $117 $179 reversed $71 $-1 #
coedge $-1 $117 $117 $116 $179 forward $73 $-1 #
coedge $-1 $118 $118 $74 $119 forward $113 $-1 #
edge $-1 $180 4.6730296814113435e-016 $180 6.2831853071796013 $118 $181 forward 7 unknown #
face $-1 $182 $183 $18 $-1 $184 reversed single #
loop $-1 $-1 $185 $75 #
plane-surface $-1 -57.087923825800345 0 0 1 0 0 0 0 -1 forward_v I I I I #
coedge $-1 $131 $186 $133 $187 reversed $76 $-1 #
coedge $-1 $188 $78 $186 $189 forward $49 $-1 #
coedge $-1 $78 $188 $190 $191 forward $49 $-1 #
coedge $-1 $134 $133 $78 $127 reversed $135 $-1 #
edge $-1 $192 -36.269395178941124 $193 36.269395178941124 $126 $194 forward 7 unknown #
coedge $-1 $80 $79 $195 $196 forward $31 $-1 #
coedge $-1 $197 $198 $79 $130 reversed $183 $-1 #
edge $-1 $137 -57.087923825800345 $199 57.087923825800345 $129 $200 forward 7 unknown #
coedge $-1 $201 $123 $80 $132 reversed $76 $-1 #
edge $-1 $202 -57.087923825800345 $136 57.087923825800345 $131 $203 forward 7 unknown #
coedge $-1 $126 $81 $123 $187 forward $135 $-1 #
coedge $-1 $81 $126 $197 $204 reversed $135 $-1 #
loop $-1 $-1 $133 $182 #
vertex $-1 $82 $205 #
vertex $-1 $82 $206 #
straight-curve $-1 57.087923825800345 0 17.301875148214563 0 1 0 I I #
face $-1 $207 $208 $19 $-1 $209 reversed single #
loop $-1 $-1 $151 $83 #
plane-surface $-1 0 -45.630751432265633 -12.792415199461793 0 0 1 1 0 0 forward_v I I I I #
coedge $-1 $210 $211 $87 $147 forward $84 $-1 #
coedge $-1 $212 $86 $211 $213 forward $53 $-1 #
coedge $-1 $86 $212 $214 $215 forward $53 $-1 #
coedge $-1 $88 $87 $86 $146 reversed $34 $-1 #
edge $-1 $216 -57.087923825800345 $217 57.087923825800345 $86 $218 forward 7 unknown #
edge $-1 $217 -17.301875148214563 $153 -12.792415199461793 $142 $219 forward 7 unknown #
coedge $-1 $214 $220 $88 $149 forward $221 $-1 #
edge $-1 $152 12.792415199461793 $216 17.301875148214563 $148 $222 forward 7 unknown #
coedge $-1 $223 $89 $220 $224 forward $140 $-1 #
coedge $-1 $89 $223 $210 $225 forward $140 $-1 #
vertex $-1 $149 $226 #
vertex $-1 $225 $227 #
straight-curve $-1 0 -36.269395178941124 -12.792415199461793 1 0 0 I I #
face $-1 $-1 $228 $20 $-1 $229 reversed single #
loop $-1 $-1 $97 $91 #
plane-surface $-1 0 0 17.301875148214563 0 0 1 1 0 0 forward_v I I I I #
coedge $-1 $230 $231 $232 $233 reversed $92 $-1 #
coedge $-1 $234 $94 $96 $165 forward $57 $-1 #
coedge $-1 $94 $234 $230 $235 forward $57 $-1 #
coedge $-1 $232 $97 $94 $162 forward $156 $-1 #
edge $-1 $168 -25.22345719819527 $236 0.44912169955852121 $161 $237 forward 7 unknown #
coedge $-1 $238 $239 $95 $164 forward $228 $-1 #
edge $-1 $240 -60.400518920810264 $167 -51.949421208903445 $163 $241 forward 7 unknown #
edge $-1 $168 61.340976204524985 $240 72.538790357882249 $96 $242 forward 7 unknown #
coedge $-1 $97 $232 $238 $243 forward $156 $-1 #
vertex $-1 $164 $244 #
vertex $-1 $98 $245 #
straight-curve $-1 -37.610624947513642 37.424637251664194 17.301875148214563 0 -1 0 I I #
coedge $-1 $170 $170 $-1 $246 reversed $101 $-1 #
edge $-1 $247 0 $247 6.2831853071796004 $102 $248 forward 7 unknown #
vertex $-1 $105 $249 #
ellipse-curve $-1 -32.476109167962889 32.596181692192388 13.076326292261141 0 0.75470958851134928 0.65605901945558964 1.5 0 0 1 I I #
coedge $-1 $174 $174 $-1 $250 reversed $108 $-1 #
edge $-1 $251 0 $251 6.2831853071796004 $109 $252 forward 7 unknown #
vertex $-1 $112 $253 #
ellipse-curve $-1 -24.774335498636745 32.596181692192388 13.076326292261141 0 0.75470958851134928 0.65605901945558964 1.5 0 0 1 I I #
coedge $-1 $178 $178 $-1 $254 reversed $115 $-1 #
edge $-1 $255 0 $255 6.2831853071796004 $116 $256 forward 7 unknown #
vertex $-1 $119 $257 #
ellipse-curve $-1 -17.072561829310608 32.596181692192388 13.076326292261141 0 0.75470958851134928 0.65605901945558964 1.5 0 0 1 I I #
face $-1 $-1 $135 $18 $-1 $258 reversed single #
loop $-1 $-1 $197 $120 #
plane-surface $-1 0 36.269395178941124 0 0 -1 0 0 0 -1 forward_v I I I I #
coedge $-1 $259 $195 $198 $260 forward $121 $-1 #
coedge $-1 $123 $201 $124 $189 reversed $76 $-1 #
edge $-1 $136 -17.301875148214563 $193 17.301875148214563 $133 $261 forward 7 unknown #
coedge $-1 $125 $124 $259 $262 forward $49 $-1 #
edge $-1 $193 -57.087923825800345 $263 57.087923825800345 $186 $264 forward 7 unknown #
coedge $-1 $198 $197 $125 $191 reversed $183 $-1 #
edge $-1 $265 -57.087923825800345 $192 57.087923825800345 $190 $266 forward 7 unknown #
vertex $-1 $127 $267 #
vertex $-1 $187 $268 #
straight-curve $-1 57.087923825800345 0 -17.301875148214563 0 -1 0 I I #
coedge $-1 $185 $269 $128 $196 reversed $121 $-1 #
edge $-1 $199 -36.269395178941124 $202 36.269395178941124 $195 $270 forward 7 unknown #
coedge $-1 $190 $129 $134 $204 forward $183 $-1 #
coedge $-1 $129 $190 $185 $260 reversed $183 $-1 #
vertex $-1 $130 $271 #
straight-curve $-1 0 36.269395178941124 17.301875148214563 -1 0 0 I I #
coedge $-1 $186 $131 $269 $272 forward $76 $-1 #
vertex $-1 $196 $273 #
straight-curve $-1 0 -36.269395178941124 17.301875148214563 1 0 0 I I #
edge $-1 $137 -17.301875148214563 $192 17.301875148214563 $134 $274 forward 7 unknown #
point $-1 57.087923825800345 -36.269395178941124 17.301875148214563 #
point $-1 57.087923825800345 36.269395178941124 17.301875148214563 #
face $-1 $-1 $221 $19 $-1 $275 reversed single #
loop $-1 $-1 $276 $139 #
plane-surface $-1 0 -54.992107685590142 -15.047145173838178 0 1 0 0 0 1 forward_v I I I I #
coedge $-1 $277 $142 $151 $225 reversed $84 $-1 #
coedge $-1 $142 $277 $143 $213 reversed $84 $-1 #
coedge $-1 $144 $143 $278 $279 forward $53 $-1 #
edge $-1 $217 36.269395178941124 $280 54.992107685590142 $211 $281 forward 7 unknown #
coedge $-1 $282 $148 $144 $215 reversed $221 $-1 #
edge $-1 $283 -54.992107685590142 $216 -36.269395178941124 $214 $284 forward 7 unknown #
vertex $-1 $149 $285 #
vertex $-1 $213 $286 #
straight-curve $-1 0 -36.269395178941124 -17.301875148214563 1 0 0 I I #
straight-curve $-1 57.087923825800345 -36.269395178941124 0 0 0 1 I I #
coedge $-1 $148 $282 $150 $224 reversed $221 $-1 #
loop $-1 $-1 $148 $207 #
straight-curve $-1 -57.087923825800345 -36.269395178941124 0 0 0 -1 I I #
coedge $-1 $151 $150 $287 $288 forward $140 $-1 #
edge $-1 $152 -9.3613562533245087 $289 9.3613562533245087 $220 $290 forward 7 unknown #
edge $-1 $291 -9.3613562533245087 $153 9.3613562533245087 $210 $292 forward 7 unknown #
point $-1 -57.087923825800345 -36.269395178941124 -12.792415199461793 #
point $-1 57.087923825800345 -36.269395178941124 -12.792415199461793 #
loop $-1 $-1 $163 $155 #
plane-surface $-1 0 36.269395178941124 0 0 -1 0 0 0 -1 forward_v I I I I #
coedge $-1 $231 $158 $160 $235 reversed $92 $-1 #
coedge $-1 $158 $230 $293 $294 reversed $92 $-1 #
coedge $-1 $166 $161 $158 $233 forward $156 $-1 #
edge $-1 $236 -8.501669046220556 $295 -1.1552420727230697 $232 $296 forward 7 unknown #
coedge $-1 $160 $159 $239 $297 reversed $57 $-1 #
edge $-1 $298 -72.538790357882249 $236 -61.340976204524985 $230 $299 forward 7 unknown #
vertex $-1 $162 $300 #
straight-curve $-1 -12.387167749318373 28.922968205443638 17.30187514821456 1 0 0 I I #
coedge $-1 $293 $163 $166 $243 reversed $228 $-1 #
coedge $-1 $163 $293 $234 $297 forward $228 $-1 #
vertex $-1 $164 $301 #
straight-curve $-1 -37.610624947513642 36.269395178941124 69.251296357118008 0 0 1 I I #
straight-curve $-1 -37.610624947513642 -11.320332495745674 63.596498058416074 0 0.65605901945558964 -0.75470958851134928 I I #
edge $-1 $295 11.938046049759851 $167 37.610624947513642 $238 $302 forward 7 unknown #
point $-1 -37.610624947513642 36.269395178941124 17.301875148214563 #
point $-1 -37.610624947513642 28.922968205443638 17.301875148214563 #
edge $-1 $303 1 $303 0 $170 $-1 forward 7 unknown #
vertex $-1 $171 $304 #
ellipse-curve $-1 -32.476109167962889 31.24293513899552 11.899967040587685 0 0.75470958851134928 0.65605901945558964 1.5 0 0 1 I I #
point $-1 -30.976109167962889 32.596181692192381 13.076326292261134 #
edge $-1 $305 1 $305 0 $174 $-1 forward 7 unknown #
vertex $-1 $175 $306 #
ellipse-curve $-1 -24.774335498636745 31.24293513899552 11.899967040587685 0 0.75470958851134928 0.65605901945558964 1.5 0 0 1 I I #
point $-1 -23.274335498636745 32.596181692192381 13.076326292261134 #
edge $-1 $307 1 $307 0 $178 $-1 forward 7 unknown #
vertex $-1 $179 $308 #
ellipse-curve $-1 -17.072561829310608 31.24293513899552 11.899967040587685 0 0.75470958851134928 0.65605901945558964 1.5 0 0 1 I I #
point $-1 -15.572561829310608 32.596181692192381 13.076326292261134 #
plane-surface $-1 57.087923825800345 0 0 -1 0 0 0 0 1 forward_v I I I I #
coedge $-1 $269 $185 $188 $262 reversed $121 $-1 #
edge $-1 $199 -17.301875148214563 $265 17.301875148214563 $198 $309 forward 7 unknown #
straight-curve $-1 57.087923825800345 -36.269395178941124 0 0 0 -1 I I #
edge $-1 $263 -36.269395178941124 $265 36.269395178941124 $259 $310 forward 7 unknown #
vertex $-1 $262 $311 #
straight-curve $-1 0 -36.269395178941124 -17.301875148214563 -1 0 0 I I #
vertex $-1 $191 $312 #
straight-curve $-1 0 36.269395178941124 -17.301875148214563 1 0 0 I I #
point $-1 57.087923825800345 36.269395178941124 -17.301875148214563 #
point $-1 57.087923825800345 -36.269395178941124 -17.301875148214563 #
coedge $-1 $195 $259 $201 $272 reversed $121 $-1 #
straight-curve $-1 -57.087923825800345 0 17.301875148214563 0 -1 0 I I #
point $-1 -57.087923825800345 36.269395178941124 17.301875148214563 #
edge $-1 $202 -17.301875148214563 $263 17.301875148214563 $269 $313 forward 7 unknown #
point $-1 -57.087923825800345 -36.269395178941124 17.301875148214563 #
straight-curve $-1 57.087923825800345 36.269395178941124 0 0 0 -1 I I #
plane-surface $-1 -57.087923825800345 0 0 1 0 0 0 0 -1 forward_v I I I I #
coedge $-1 $278 $287 $282 $314 forward $208 $-1 #
coedge $-1 $211 $210 $315 $316 forward $84 $-1 #
coedge $-1 $315 $276 $212 $279 reversed $208 $-1 #
edge $-1 $280 -57.087923825800345 $283 57.087923825800345 $278 $317 forward 7 unknown #
vertex $-1 $316 $318 #
straight-curve $-1 57.087923825800345 0 -17.301875148214563 0 -1 0 I I #
coedge $-1 $220 $214 $276 $314 reversed $221 $-1 #
vertex $-1 $215 $319 #
straight-curve $-1 -57.087923825800345 0 -17.301875148214563 0 1 0 I I #
point $-1 -57.087923825800345 -36.269395178941124 -17.301875148214563 #
point $-1 57.087923825800345 -36.269395178941124 -17.301875148214563 #
coedge $-1 $276 $315 $223 $288 reversed $208 $-1 #
edge $-1 $289 -57.087923825800345 $291 57.087923825800345 $287 $320 forward 7 unknown #
vertex $-1 $224 $321 #
straight-curve $-1 -57.087923825800345 -45.630751432265633 -12.792415199461793 0 -1 0 I I #
vertex $-1 $225 $322 #
straight-curve $-1 57.087923825800345 -45.630751432265633 -12.792415199461793 0 1 0 I I #
coedge $-1 $239 $238 $231 $294 forward $228 $-1 #
edge $-1 $295 51.949421208903445 $298 60.400518920810264 $293 $323 forward 7 unknown #
vertex $-1 $243 $324 #
straight-curve $-1 -11.938046049759851 37.424637251664194 17.301875148214563 0 1 0 I I #
edge $-1 $298 -0.44912169955852121 $240 25.22345719819527 $239 $325 forward 7 unknown #
vertex $-1 $297 $326 #
straight-curve $-1 -11.938046049759851 -11.320332495745674 63.596498058416074 0 -0.65605901945558964 0.75470958851134928 I I #
point $-1 -11.938046049759851 28.922968205443638 17.301875148214563 #
point $-1 -37.610624947513642 36.269395178941124 8.8507774363077445 #
straight-curve $-1 0 36.269395178941124 17.301875148214563 -1 0 0 I I #
vertex $-1 $246 $327 #
point $-1 -30.976109167962889 31.24293513899552 11.899967040587685 #
vertex $-1 $250 $328 #
point $-1 -23.274335498636745 31.24293513899552 11.899967040587685 #
vertex $-1 $254 $329 #
point $-1 -15.572561829310608 31.24293513899552 11.899967040587685 #
straight-curve $-1 -57.087923825800345 36.269395178941124 0 0 0 -1 I I #
straight-curve $-1 -57.087923825800345 0 -17.301875148214563 0 1 0 I I #
point $-1 -57.087923825800345 -36.269395178941124 -17.301875148214563 #
point $-1 -57.087923825800345 36.269395178941124 -17.301875148214563 #
straight-curve $-1 -57.087923825800345 -36.269395178941124 0 0 0 -1 I I #
edge $-1 $289 -2.2547299743763851 $283 2.2547299743763851 $282 $330 forward 7 unknown #
coedge $-1 $287 $278 $277 $316 reversed $208 $-1 #
edge $-1 $291 -2.2547299743763851 $280 2.2547299743763851 $277 $331 forward 7 unknown #
straight-curve $-1 0 -54.992107685590142 -17.301875148214563 -1 0 0 I I #
point $-1 57.087923825800345 -54.992107685590142 -17.301875148214563 #
point $-1 -57.087923825800345 -54.992107685590142 -17.301875148214563 #
straight-curve $-1 0 -54.992107685590142 -12.792415199461793 1 0 0 I I #
point $-1 -57.087923825800345 -54.992107685590142 -12.792415199461793 #
point $-1 57.087923825800345 -54.992107685590142 -12.792415199461793 #
straight-curve $-1 -11.938046049759851 36.269395178941124 69.251296357118008 0 0 -1 I I #
point $-1 -11.938046049759851 36.269395178941124 17.301875148214563 #
straight-curve $-1 -12.387167749318373 36.269395178941124 8.8507774363077409 -1 0 0 I I #
point $-1 -11.938046049759851 36.269395178941124 8.8507774363077445 #
point $-1 -32.476109167962889 30.110870756228493 10.9158785114043 #
point $-1 -24.774335498636745 30.110870756228493 10.9158785114043 #
point $-1 -17.072561829310608 30.110870756228493 10.9158785114043 #
straight-curve $-1 -57.087923825800345 -54.992107685590142 -15.047145173838178 0 0 -1 I I #
straight-curve $-1 57.087923825800345 -54.992107685590142 -15.047145173838178 0 0 -1 I I #
End-of-ACIS-data 