500 0 10 0           
7 Unknown 11 ACIS 5.0 NT 24 Fri Mar 26 16:46:46 1999 
-1 9.9999999999999995e-007 1e-010 
body $-1 $10 $-1 $11 #
body $-1 $12 $-1 $13 #
body $-1 $14 $-1 $15 #
body $-1 $16 $-1 $17 #
body $-1 $18 $-1 $19 #
body $-1 $20 $-1 $21 #
body $-1 $22 $-1 $23 #
body $-1 $24 $-1 $25 #
body $-1 $26 $-1 $27 #
body $-1 $28 $-1 $29 #
lump $-1 $-1 $30 $0 #
transform $-1 1 0 0 0 1 0 0 0 1 73.322550126651805 42.664563050623528 12.443776637312205 1 rotate no_reflect no_shear #
lump $-1 $-1 $31 $1 #
transform $-1 1 0 0 0 1 0 0 0 1 73.322550126651805 42.664563050623528 12.443776637312205 1 rotate no_reflect no_shear #
lump $-1 $-1 $32 $2 #
transform $-1 1 0 0 0 1 0 0 0 1 73.322550126651805 42.664563050623528 12.443776637312205 1 rotate no_reflect no_shear #
lump $-1 $-1 $33 $3 #
transform $-1 1 0 0 0 1 0 0 0 1 73.322550126651805 42.664563050623528 12.443776637312205 1 rotate no_reflect no_shear #
lump $-1 $-1 $34 $4 #
transform $-1 1 0 0 0 1 0 0 0 1 73.322550126651805 42.664563050623528 12.443776637312205 1 rotate no_reflect no_shear #
lump $-1 $-1 $35 $5 #
transform $-1 1 0 0 0 1 0 0 0 1 73.322550126651805 42.664563050623528 12.443776637312205 1 rotate no_reflect no_shear #
lump $-1 $-1 $36 $6 #
transform $-1 1 0 0 0 1 0 0 0 1 73.322550126651805 42.664563050623528 12.443776637312205 1 rotate no_reflect no_shear #
lump $-1 $-1 $37 $7 #
transform $-1 1 0 0 0 1 0 0 0 1 73.322550126651805 42.664563050623528 12.443776637312205 1 rotate no_reflect no_shear #
lump $-1 $-1 $38 $8 #
transform $-1 1 0 0 0 1 0 0 0 1 73.322550126651805 42.664563050623528 12.443776637312205 1 rotate no_reflect no_shear #
lump $-1 $-1 $39 $9 #
transform $-1 1 0 0 0 1 0 0 0 1 73.322550126651805 42.664563050623528 12.443776637312205 1 rotate no_reflect no_shear #
shell $-1 $-1 $-1 $40 $-1 $10 #
shell $-1 $-1 $-1 $41 $-1 $12 #
shell $-1 $-1 $-1 $42 $-1 $14 #
shell $-1 $-1 $-1 $43 $-1 $16 #
shell $-1 $-1 $-1 $44 $-1 $18 #
shell $-1 $-1 $-1 $45 $-1 $20 #
shell $-1 $-1 $-1 $46 $-1 $22 #
shell $-1 $-1 $-1 $47 $-1 $24 #
shell $-1 $-1 $-1 $48 $-1 $26 #
shell $-1 $-1 $-1 $49 $-1 $28 #
face $-1 $50 $51 $30 $-1 $52 forward single #
face $-1 $53 $54 $31 $-1 $55 forward single #
face $-1 $56 $57 $32 $-1 $58 reversed single #
face $-1 $59 $60 $33 $-1 $61 forward single #
face $-1 $62 $63 $34 $-1 $64 forward single #
face $-1 $65 $66 $35 $-1 $67 forward single #
face $-1 $68 $69 $36 $-1 $70 reversed single #
face $-1 $71 $72 $37 $-1 $73 forward single #
face $-1 $74 $75 $38 $-1 $76 forward single #
face $-1 $77 $78 $39 $-1 $79 forward single #
face $-1 $80 $81 $30 $-1 $82 reversed single #
loop $-1 $-1 $83 $40 #
plane-surface $-1 0 0 12.443776637312205 0 0 1 1 0 0 forward_v I I I I #
face $-1 $84 $85 $31 $-1 $86 reversed single #
loop $-1 $-1 $87 $41 #
plane-surface $-1 -67.430131178382567 0 -8.8480807860777482 0 0 1 1 0 0 forward_v I I I I #
face $-1 $88 $89 $32 $-1 $90 reversed single #
loop $-1 $-1 $91 $42 #
plane-surface $-1 10.942953845296564 -144.53281062510732 113.1935263981247 1 0 0 0 0.69465837861970381 -0.71933979245794832 forward_v I I I I #
face $-1 $92 $93 $33 $-1 $94 forward single #
loop $-1 $95 $96 $43 #
cone-surface $-1 16.089514826364123 -39.214566249565522 9.0425302018023874 0 0.69465837861970381 -0.71933979245794832 1 0 0 1 I I 0 1 1 forward I I I I #
face $-1 $97 $98 $34 $-1 $99 forward single #
loop $-1 $100 $101 $44 #
cone-surface $-1 23.809356297965451 -39.214566249565522 9.0425302018023874 0 0.69465837861970381 -0.71933979245794832 1 0 0 1 I I 0 1 1 forward I I I I #
face $-1 $102 $103 $35 $-1 $104 forward single #
loop $-1 $105 $106 $45 #
cone-surface $-1 31.529197769566778 -39.214566249565522 9.0425302018023874 0 0.69465837861970381 -0.71933979245794832 1 0 0 1 I I 0 1 1 forward I I I I #
face $-1 $107 $108 $36 $-1 $109 reversed single #
loop $-1 $-1 $110 $46 #
plane-surface $-1 10.942953845296564 83.152174764818156 172.46811878465323 1 0 0 0 -0.69465837861970381 -0.71933979245794832 forward_v I I I I #
face $-1 $111 $112 $37 $-1 $113 forward single #
loop $-1 $114 $115 $47 #
cone-surface $-1 16.089514826364123 39.214566249565522 9.042530201802391 0 -0.69465837861970381 -0.71933979245794832 1 0 0 1 I I 0 1 1 forward I I I I #
face $-1 $116 $117 $38 $-1 $118 forward single #
loop $-1 $119 $120 $48 #
cone-surface $-1 23.809356297965451 39.214566249565522 9.042530201802391 0 -0.69465837861970381 -0.71933979245794832 1 0 0 1 I I 0 1 1 forward I I I I #
face $-1 $121 $122 $39 $-1 $123 forward single #
loop $-1 $124 $125 $49 #
cone-surface $-1 31.529197769566778 39.214566249565522 9.042530201802391 0 -0.69465837861970381 -0.71933979245794832 1 0 0 1 I I 0 1 1 forward I I I I #
face $-1 $126 $127 $30 $-1 $128 reversed single #
loop $-1 $-1 $129 $50 #
plane-surface $-1 0 0 -12.443776637312205 0 0 1 1 0 0 forward_v I I I I #
coedge $-1 $130 $131 $132 $133 forward $51 $-1 #
face $-1 $134 $135 $31 $-1 $136 reversed single #
loop $-1 $-1 $137 $53 #
plane-surface $-1 -61.537712230113335 0 -10.645928711694976 -1 0 0 0 0 1 forward_v I I I I #
coedge $-1 $138 $139 $140 $141 forward $54 $-1 #
face $-1 $142 $143 $32 $-1 $144 reversed single #
loop $-1 $-1 $145 $56 #
plane-surface $-1 23.809356297965451 -42.664563050623514 7.7058704169382537 0 -0.69465837861970381 0.71933979245794832 1 0 0 forward_v I I I I #
coedge $-1 $146 $147 $148 $149 reversed $57 $-1 #
face $-1 $-1 $150 $33 $-1 $151 forward single #
loop $-1 $152 $153 $59 #
cone-surface $-1 16.089514826364123 -37.87036296105083 7.6505669802505629 0 0.69465837861970381 -0.71933979245794832 0.5 0 0 1 I I -0.70710678118654746 0.70710678118654746 0.5 forward I I I I #
loop $-1 $-1 $154 $43 #
coedge $-1 $96 $96 $155 $156 reversed $60 $-1 #
face $-1 $-1 $157 $34 $-1 $158 forward single #
loop $-1 $159 $160 $62 #
cone-surface $-1 23.809356297965451 -37.87036296105083 7.6505669802505629 0 0.69465837861970381 -0.71933979245794832 0.5 0 0 1 I I -0.70710678118654746 0.70710678118654746 0.5 forward I I I I #
loop $-1 $-1 $161 $44 #
coedge $-1 $101 $101 $162 $163 reversed $63 $-1 #
face $-1 $-1 $164 $35 $-1 $165 forward single #
loop $-1 $166 $167 $65 #
cone-surface $-1 31.529197769566778 -37.87036296105083 7.6505669802505629 0 0.69465837861970381 -0.71933979245794832 0.5 0 0 1 I I -0.70710678118654746 0.70710678118654746 0.5 forward I I I I #
loop $-1 $-1 $168 $45 #
coedge $-1 $106 $106 $169 $170 reversed $66 $-1 #
face $-1 $171 $172 $36 $-1 $173 reversed single #
loop $-1 $-1 $174 $68 #
plane-surface $-1 23.809356297965451 -18.716072809665647 66.980462803466779 0 0.69465837861970381 0.71933979245794832 1 0 0 forward_v I I I I #
coedge $-1 $175 $176 $177 $178 reversed $69 $-1 #
face $-1 $-1 $179 $37 $-1 $180 forward single #
loop $-1 $181 $182 $71 #
cone-surface $-1 16.089514826364123 37.87036296105083 7.6505669802505665 0 -0.69465837861970381 -0.71933979245794832 0.5 0 0 1 I I -0.70710678118654746 0.70710678118654746 0.5 forward I I I I #
loop $-1 $-1 $183 $47 #
coedge $-1 $115 $115 $184 $185 reversed $72 $-1 #
face $-1 $-1 $186 $38 $-1 $187 forward single #
loop $-1 $188 $189 $74 #
cone-surface $-1 23.809356297965451 37.87036296105083 7.6505669802505665 0 -0.69465837861970381 -0.71933979245794832 0.5 0 0 1 I I -0.70710678118654746 0.70710678118654746 0.5 forward I I I I #
loop $-1 $-1 $190 $48 #
coedge $-1 $120 $120 $191 $192 reversed $75 $-1 #
face $-1 $-1 $193 $39 $-1 $194 forward single #
loop $-1 $195 $196 $77 #
cone-surface $-1 31.529197769566778 37.87036296105083 7.6505669802505665 0 -0.69465837861970381 -0.71933979245794832 0.5 0 0 1 I I -0.70710678118654746 0.70710678118654746 0.5 forward I I I I #
loop $-1 $-1 $197 $49 #
coedge $-1 $125 $125 $198 $199 reversed $78 $-1 #
face $-1 $200 $201 $30 $-1 $202 reversed single #
loop $-1 $-1 $203 $80 #
plane-surface $-1 0 -42.664563050623528 0 0 1 0 0 0 1 forward_v I I I I #
coedge $-1 $204 $205 $206 $207 forward $81 $-1 #
coedge $-1 $208 $83 $209 $210 forward $51 $-1 #
coedge $-1 $83 $208 $211 $212 forward $51 $-1 #
coedge $-1 $213 $214 $83 $133 reversed $215 $-1 #
edge $-1 $216 -42.664563050623528 $217 42.664563050623528 $132 $218 forward 7 unknown #
face $-1 $219 $220 $31 $-1 $221 reversed single #
loop $-1 $-1 $222 $84 #
plane-surface $-1 0 0 -12.443776637312205 0 0 1 1 0 0 forward_v I I I I #
coedge $-1 $223 $140 $224 $225 reversed $85 $-1 #
coedge $-1 $226 $87 $227 $228 reversed $54 $-1 #
coedge $-1 $87 $226 $229 $230 reversed $54 $-1 #
coedge $-1 $137 $231 $87 $141 reversed $85 $-1 #
edge $-1 $232 -42.664563050623528 $233 42.664563050623528 $140 $234 forward 7 unknown #
face $-1 $235 $236 $32 $-1 $237 forward single #
loop $-1 $-1 $238 $88 #
plane-surface $-1 36.675758750634337 -144.53281062510732 113.1935263981247 -1 0 0 0 -0.69465837861970381 0.71933979245794832 forward_v I I I I #
coedge $-1 $239 $240 $241 $242 reversed $89 $-1 #
coedge $-1 $147 $91 $243 $244 reversed $57 $-1 #
coedge $-1 $91 $146 $239 $245 reversed $57 $-1 #
coedge $-1 $241 $246 $91 $149 forward $247 $-1 #
edge $-1 $248 44.152986561750147 $249 48.890892782124112 $148 $250 forward 7 unknown #
loop $-1 $-1 $155 $92 #
plane-surface $-1 23.809356297965451 -42.664563050623514 7.7058704169382537 0 -0.69465837861970381 0.71933979245794832 1 0 0 forward_v I I I I #
loop $-1 $-1 $251 $59 #
coedge $-1 $153 $153 $154 $252 reversed $93 $-1 #
coedge $-1 $154 $154 $153 $252 forward $95 $-1 #
coedge $-1 $155 $155 $96 $156 forward $150 $-1 #
edge $-1 $253 8.8321717568673142e-016 $253 6.2831853071796013 $155 $254 forward 7 unknown #
loop $-1 $-1 $162 $97 #
plane-surface $-1 23.809356297965451 -42.664563050623514 7.7058704169382537 0 -0.69465837861970381 0.71933979245794832 1 0 0 forward_v I I I I #
loop $-1 $-1 $255 $62 #
coedge $-1 $160 $160 $161 $256 reversed $98 $-1 #
coedge $-1 $161 $161 $160 $256 forward $100 $-1 #
coedge $-1 $162 $162 $101 $163 forward $157 $-1 #
edge $-1 $257 8.8321717568673142e-016 $257 6.2831853071796013 $162 $258 forward 7 unknown #
loop $-1 $-1 $169 $102 #
plane-surface $-1 23.809356297965451 -42.664563050623514 7.7058704169382537 0 -0.69465837861970381 0.71933979245794832 1 0 0 forward_v I I I I #
loop $-1 $-1 $259 $65 #
coedge $-1 $167 $167 $168 $260 reversed $103 $-1 #
coedge $-1 $168 $168 $167 $260 forward $105 $-1 #
coedge $-1 $169 $169 $106 $170 forward $164 $-1 #
edge $-1 $261 8.8321717568673142e-016 $261 6.2831853071796013 $169 $262 forward 7 unknown #
face $-1 $263 $264 $36 $-1 $265 reversed single #
loop $-1 $-1 $266 $107 #
plane-surface $-1 36.675758750634337 83.152174764818156 172.46811878465323 -1 0 0 0 0.69465837861970381 0.71933979245794832 forward_v I I I I #
coedge $-1 $267 $268 $269 $270 reversed $108 $-1 #
coedge $-1 $176 $110 $271 $272 reversed $69 $-1 #
coedge $-1 $110 $175 $267 $273 reversed $69 $-1 #
coedge $-1 $269 $274 $110 $178 forward $275 $-1 #
edge $-1 $276 -1.0884756682144499 $277 3.8177697354919076 $177 $278 forward 7 unknown #
loop $-1 $-1 $184 $111 #
plane-surface $-1 23.809356297965451 -18.716072809665647 66.980462803466779 0 0.69465837861970381 0.71933979245794832 1 0 0 forward_v I I I I #
loop $-1 $-1 $279 $71 #
coedge $-1 $182 $182 $183 $280 reversed $112 $-1 #
coedge $-1 $183 $183 $182 $280 forward $114 $-1 #
coedge $-1 $184 $184 $115 $185 forward $179 $-1 #
edge $-1 $281 -1.9418063444839964e-015 $281 6.2831853071795987 $184 $282 forward 7 unknown #
loop $-1 $-1 $191 $116 #
plane-surface $-1 23.809356297965451 -18.716072809665647 66.980462803466779 0 0.69465837861970381 0.71933979245794832 1 0 0 forward_v I I I I #
loop $-1 $-1 $283 $74 #
coedge $-1 $189 $189 $190 $284 reversed $117 $-1 #
coedge $-1 $190 $190 $189 $284 forward $119 $-1 #
coedge $-1 $191 $191 $120 $192 forward $186 $-1 #
edge $-1 $285 -1.9418063444839964e-015 $285 6.2831853071795987 $191 $286 forward 7 unknown #
loop $-1 $-1 $198 $121 #
plane-surface $-1 23.809356297965451 -18.716072809665647 66.980462803466779 0 0.69465837861970381 0.71933979245794832 1 0 0 forward_v I I I I #
loop $-1 $-1 $287 $77 #
coedge $-1 $196 $196 $197 $288 reversed $122 $-1 #
coedge $-1 $197 $197 $196 $288 forward $124 $-1 #
coedge $-1 $198 $198 $125 $199 forward $193 $-1 #
edge $-1 $289 -1.9418063444839964e-015 $289 6.2831853071795987 $198 $290 forward 7 unknown #
face $-1 $291 $292 $30 $-1 $293 reversed single #
loop $-1 $-1 $294 $126 #
plane-surface $-1 -73.322550126651805 0 0 1 0 0 0 0 -1 forward_v I I I I #
coedge $-1 $295 $211 $296 $297 forward $127 $-1 #
coedge $-1 $298 $129 $295 $299 forward $81 $-1 #
coedge $-1 $129 $298 $300 $301 forward $81 $-1 #
coedge $-1 $214 $213 $129 $207 reversed $215 $-1 #
edge $-1 $302 -42.664563050623528 $303 42.664563050623528 $206 $304 forward 7 unknown #
coedge $-1 $131 $130 $305 $306 forward $51 $-1 #
coedge $-1 $307 $308 $130 $210 reversed $292 $-1 #
edge $-1 $217 -73.322550126651805 $309 73.322550126651805 $209 $310 forward 7 unknown #
coedge $-1 $203 $311 $131 $212 reversed $127 $-1 #
edge $-1 $312 -73.322550126651805 $216 73.322550126651805 $211 $313 forward 7 unknown #
coedge $-1 $206 $132 $311 $314 forward $215 $-1 #
coedge $-1 $132 $206 $307 $315 reversed $215 $-1 #
loop $-1 $-1 $213 $291 #
vertex $-1 $133 $316 #
vertex $-1 $133 $317 #
straight-curve $-1 73.322550126651805 0 12.443776637312205 0 1 0 I I #
face $-1 $318 $319 $31 $-1 $320 reversed single #
loop $-1 $-1 $224 $134 #
plane-surface $-1 0 -42.664563050623528 0 0 1 0 0 0 1 forward_v I I I I #
coedge $-1 $321 $322 $223 $323 forward $135 $-1 #
coedge $-1 $231 $137 $222 $323 reversed $85 $-1 #
coedge $-1 $229 $324 $137 $225 forward $220 $-1 #
edge $-1 $325 -7.1208122814647163 $232 -3.52511643023026 $224 $326 forward 7 unknown #
coedge $-1 $139 $138 $327 $328 reversed $54 $-1 #
coedge $-1 $329 $330 $138 $228 forward $331 $-1 #
edge $-1 $332 -39.607484537460522 $233 -27.822646640922052 $227 $333 forward 7 unknown #
coedge $-1 $334 $224 $139 $230 forward $220 $-1 #
edge $-1 $232 27.822646640922052 $335 39.607484537460522 $229 $336 forward 7 unknown #
coedge $-1 $140 $223 $329 $337 reversed $85 $-1 #
vertex $-1 $230 $338 #
vertex $-1 $228 $339 #
straight-curve $-1 -61.537712230113335 0 -8.8480807860777482 0 1 0 I I #
face $-1 $-1 $247 $32 $-1 $340 reversed single #
loop $-1 $-1 $341 $142 #
plane-surface $-1 0 0 12.443776637312205 0 0 1 1 0 0 forward_v I I I I #
coedge $-1 $342 $343 $344 $345 reversed $143 $-1 #
coedge $-1 $346 $145 $147 $245 forward $89 $-1 #
coedge $-1 $145 $346 $342 $347 forward $89 $-1 #
coedge $-1 $344 $148 $145 $242 forward $247 $-1 #
edge $-1 $249 -0.96172430368616091 $348 24.771080601651612 $241 $349 forward 7 unknown #
coedge $-1 $350 $351 $146 $244 forward $236 $-1 #
edge $-1 $352 -34.508087665636481 $248 -29.60184226193013 $243 $353 forward 7 unknown #
edge $-1 $249 -1.9477141995791963e-014 $352 6.8204838035470567 $147 $354 forward 7 unknown #
coedge $-1 $148 $344 $350 $355 reversed $247 $-1 #
loop $-1 $-1 $344 $235 #
vertex $-1 $355 $356 #
vertex $-1 $149 $357 #
straight-curve $-1 10.942953845296564 -42.664563050623528 56.596763199062352 0 0 -1 I I #
coedge $-1 $251 $251 $-1 $358 reversed $152 $-1 #
edge $-1 $359 0 $359 6.2831853071796004 $153 $360 forward 7 unknown #
vertex $-1 $156 $361 #
ellipse-curve $-1 16.089514826364123 -40.211440348770346 10.074823527125224 0 -0.69465837861970381 0.71933979245794832 1 0 0 1 I I #
coedge $-1 $255 $255 $-1 $362 reversed $159 $-1 #
edge $-1 $363 0 $363 6.2831853071796004 $160 $364 forward 7 unknown #
vertex $-1 $163 $365 #
ellipse-curve $-1 23.809356297965451 -40.211440348770346 10.074823527125224 0 -0.69465837861970381 0.71933979245794832 1 0 0 1 I I #
coedge $-1 $259 $259 $-1 $366 reversed $166 $-1 #
edge $-1 $367 0 $367 6.2831853071796004 $167 $368 forward 7 unknown #
vertex $-1 $170 $369 #
ellipse-curve $-1 31.529197769566778 -40.211440348770346 10.074823527125224 0 -0.69465837861970381 0.71933979245794832 1 0 0 1 I I #
face $-1 $-1 $275 $36 $-1 $370 forward single #
loop $-1 $-1 $371 $171 #
plane-surface $-1 0 42.664563050623528 0 0 -1 0 0 0 -1 forward_v I I I I #
coedge $-1 $372 $373 $374 $375 reversed $172 $-1 #
coedge $-1 $376 $174 $176 $273 forward $108 $-1 #
coedge $-1 $174 $376 $372 $377 forward $108 $-1 #
coedge $-1 $374 $177 $174 $270 forward $275 $-1 #
edge $-1 $277 -0.96172430368616091 $378 24.771080601651612 $269 $379 forward 7 unknown #
coedge $-1 $380 $381 $175 $272 forward $264 $-1 #
edge $-1 $382 -78.528188975388389 $276 -73.790282755014402 $271 $383 forward 7 unknown #
edge $-1 $277 78.508642297699993 $382 85.329126101247084 $176 $384 forward 7 unknown #
coedge $-1 $177 $374 $380 $385 forward $275 $-1 #
loop $-1 $-1 $374 $263 #
vertex $-1 $272 $386 #
vertex $-1 $178 $387 #
straight-curve $-1 10.942953845296564 41.576087382409078 12.443776637312197 0 -1 0 I I #
coedge $-1 $279 $279 $-1 $388 reversed $181 $-1 #
edge $-1 $389 0 $389 6.2831853071796004 $182 $390 forward 7 unknown #
vertex $-1 $185 $391 #
ellipse-curve $-1 16.089514826364123 40.211440348770338 10.074823527125218 0 0.69465837861970381 0.71933979245794832 1 0 0 1 I I #
coedge $-1 $283 $283 $-1 $392 reversed $188 $-1 #
edge $-1 $393 0 $393 6.2831853071796004 $189 $394 forward 7 unknown #
vertex $-1 $192 $395 #
ellipse-curve $-1 23.809356297965451 40.211440348770338 10.074823527125218 0 0.69465837861970381 0.71933979245794832 1 0 0 1 I I #
coedge $-1 $287 $287 $-1 $396 reversed $195 $-1 #
edge $-1 $397 0 $397 6.2831853071796004 $196 $398 forward 7 unknown #
vertex $-1 $199 $399 #
ellipse-curve $-1 31.529197769566778 40.211440348770338 10.074823527125218 0 0.69465837861970381 0.71933979245794832 1 0 0 1 I I #
face $-1 $-1 $215 $30 $-1 $400 reversed single #
loop $-1 $-1 $307 $200 #
plane-surface $-1 0 42.664563050623528 0 0 -1 0 0 0 -1 forward_v I I I I #
coedge $-1 $401 $305 $308 $402 forward $201 $-1 #
coedge $-1 $311 $203 $204 $299 reversed $127 $-1 #
coedge $-1 $305 $401 $203 $297 reversed $201 $-1 #
edge $-1 $312 -12.443776637312205 $403 12.443776637312205 $296 $404 forward 7 unknown #
coedge $-1 $205 $204 $401 $405 forward $81 $-1 #
edge $-1 $303 -73.322550126651805 $403 73.322550126651805 $295 $406 forward 7 unknown #
coedge $-1 $308 $307 $205 $301 reversed $292 $-1 #
edge $-1 $407 -73.322550126651805 $302 73.322550126651805 $300 $408 forward 7 unknown #
vertex $-1 $207 $409 #
vertex $-1 $314 $410 #
straight-curve $-1 73.322550126651805 0 -12.443776637312205 0 -1 0 I I #
coedge $-1 $294 $296 $208 $306 reversed $201 $-1 #
edge $-1 $309 -42.664563050623528 $312 42.664563050623528 $305 $411 forward 7 unknown #
coedge $-1 $300 $209 $214 $315 forward $292 $-1 #
coedge $-1 $209 $300 $294 $402 reversed $292 $-1 #
vertex $-1 $210 $412 #
straight-curve $-1 0 42.664563050623528 12.443776637312205 -1 0 0 I I #
coedge $-1 $211 $295 $213 $314 reversed $127 $-1 #
vertex $-1 $306 $413 #
straight-curve $-1 0 -42.664563050623528 12.443776637312205 1 0 0 I I #
edge $-1 $216 -12.443776637312205 $303 12.443776637312205 $213 $414 forward 7 unknown #
edge $-1 $217 -12.443776637312205 $302 12.443776637312205 $214 $415 forward 7 unknown #
point $-1 73.322550126651805 -42.664563050623528 12.443776637312205 #
point $-1 73.322550126651805 42.664563050623528 12.443776637312205 #
face $-1 $-1 $331 $31 $-1 $416 reversed single #
loop $-1 $-1 $327 $219 #
plane-surface $-1 -73.322550126651805 0 0 1 0 0 0 0 -1 forward_v I I I I #
coedge $-1 $417 $222 $324 $418 forward $135 $-1 #
coedge $-1 $222 $417 $419 $420 forward $135 $-1 #
edge $-1 $421 -42.664563050623528 $325 42.664563050623528 $222 $422 forward 7 unknown #
coedge $-1 $224 $334 $321 $418 reversed $220 $-1 #
vertex $-1 $418 $423 #
straight-curve $-1 -61.537712230113335 -42.664563050623528 -5.3229643558474882 0 0 1 I I #
coedge $-1 $424 $425 $226 $328 forward $319 $-1 #
edge $-1 $335 -42.664563050623528 $332 42.664563050623528 $327 $426 forward 7 unknown #
coedge $-1 $419 $227 $231 $337 forward $331 $-1 #
coedge $-1 $227 $419 $424 $427 reversed $331 $-1 #
loop $-1 $-1 $329 $318 #
vertex $-1 $427 $428 #
straight-curve $-1 -33.715065589191283 42.664563050623528 -8.8480807860777482 1 0 0 I I #
coedge $-1 $324 $229 $425 $429 forward $220 $-1 #
vertex $-1 $429 $430 #
straight-curve $-1 -33.715065589191283 -42.664563050623528 -8.8480807860777482 -1 0 0 I I #
edge $-1 $233 3.52511643023026 $421 7.1208122814647163 $329 $431 forward 7 unknown #
point $-1 -61.537712230113335 -42.664563050623528 -8.8480807860777482 #
point $-1 -61.537712230113335 42.664563050623528 -8.8480807860777482 #
plane-surface $-1 0 -42.664563050623528 0 0 1 0 0 0 1 forward_v I I I I #
coedge $-1 $351 $350 $343 $432 forward $236 $-1 #
coedge $-1 $343 $238 $240 $347 reversed $143 $-1 #
coedge $-1 $238 $342 $341 $432 reversed $143 $-1 #
coedge $-1 $246 $241 $238 $345 forward $247 $-1 #
edge $-1 $348 -48.890892782124112 $433 -44.152986561750147 $344 $434 forward 7 unknown #
coedge $-1 $240 $239 $351 $435 reversed $89 $-1 #
edge $-1 $436 -6.8204838035470567 $348 1.9477141995791963e-014 $342 $437 forward 7 unknown #
vertex $-1 $242 $438 #
straight-curve $-1 11.904678148982725 -42.664563050623528 7.7058704169382395 1 0 0 I I #
coedge $-1 $341 $243 $246 $355 forward $236 $-1 #
coedge $-1 $243 $341 $346 $435 forward $236 $-1 #
vertex $-1 $244 $439 #
straight-curve $-1 10.942953845296564 -72.266405312553658 12.443776637312205 0 -1 0 I I #
straight-curve $-1 10.942953845296564 -42.664563050623514 7.7058704169382537 0 0.71933979245794832 0.69465837861970381 I I #
edge $-1 $248 10.942953845296564 $433 36.675758750634337 $246 $440 forward 7 unknown #
point $-1 10.942953845296564 -42.664563050623528 12.443776637312205 #
point $-1 10.942953845296564 -42.664563050623528 7.7058704169382404 #
edge $-1 $441 1 $441 0 $251 $-1 forward 7 unknown #
vertex $-1 $252 $442 #
ellipse-curve $-1 16.089514826364123 -38.217692150360683 8.0102368764795369 0 -0.69465837861970381 0.71933979245794832 1 0 0 1 I I #
point $-1 17.089514826364123 -40.21144034877036 10.07482352712524 #
edge $-1 $443 1 $443 0 $255 $-1 forward 7 unknown #
vertex $-1 $256 $444 #
ellipse-curve $-1 23.809356297965451 -38.217692150360683 8.0102368764795369 0 -0.69465837861970381 0.71933979245794832 1 0 0 1 I I #
point $-1 24.809356297965451 -40.21144034877036 10.07482352712524 #
edge $-1 $445 1 $445 0 $259 $-1 forward 7 unknown #
vertex $-1 $260 $446 #
ellipse-curve $-1 31.529197769566778 -38.217692150360683 8.0102368764795369 0 -0.69465837861970381 0.71933979245794832 1 0 0 1 I I #
point $-1 32.529197769566778 -40.21144034877036 10.07482352712524 #
plane-surface $-1 0 0 12.443776637312205 0 0 1 1 0 0 forward_v I I I I #
coedge $-1 $381 $380 $373 $447 forward $264 $-1 #
coedge $-1 $373 $266 $268 $377 reversed $172 $-1 #
coedge $-1 $266 $372 $371 $447 reversed $172 $-1 #
coedge $-1 $274 $269 $266 $375 forward $275 $-1 #
edge $-1 $378 -3.8177697354919076 $448 1.0884756682144499 $374 $449 forward 7 unknown #
coedge $-1 $268 $267 $381 $450 reversed $108 $-1 #
edge $-1 $451 -85.329126101247084 $378 -78.508642297699993 $372 $452 forward 7 unknown #
vertex $-1 $270 $453 #
straight-curve $-1 11.904678148982725 37.758317646917178 12.443776637312205 1 0 0 I I #
coedge $-1 $371 $271 $274 $385 reversed $264 $-1 #
coedge $-1 $271 $371 $376 $450 forward $264 $-1 #
vertex $-1 $272 $454 #
straight-curve $-1 10.942953845296564 42.664563050623528 86.234059392326614 0 0 1 I I #
straight-curve $-1 10.942953845296564 -18.716072809665647 66.980462803466779 0 0.71933979245794832 -0.69465837861970381 I I #
edge $-1 $448 -36.675758750634337 $276 -10.942953845296564 $380 $455 forward 7 unknown #
point $-1 10.942953845296564 42.664563050623528 12.443776637312205 #
point $-1 10.942953845296564 37.75831764691717 12.443776637312205 #
edge $-1 $456 1 $456 0 $279 $-1 forward 7 unknown #
vertex $-1 $280 $457 #
ellipse-curve $-1 16.089514826364123 38.217692150360683 8.0102368764795404 0 0.69465837861970381 0.71933979245794832 1 0 0 1 I I #
point $-1 17.089514826364123 40.21144034877036 10.074823527125243 #
edge $-1 $458 1 $458 0 $283 $-1 forward 7 unknown #
vertex $-1 $284 $459 #
ellipse-curve $-1 23.809356297965451 38.217692150360683 8.0102368764795404 0 0.69465837861970381 0.71933979245794832 1 0 0 1 I I #
point $-1 24.809356297965451 40.21144034877036 10.074823527125243 #
edge $-1 $460 1 $460 0 $287 $-1 forward 7 unknown #
vertex $-1 $288 $461 #
ellipse-curve $-1 31.529197769566778 38.217692150360683 8.0102368764795404 0 0.69465837861970381 0.71933979245794832 1 0 0 1 I I #
point $-1 32.529197769566778 40.21144034877036 10.074823527125243 #
plane-surface $-1 73.322550126651805 0 0 -1 0 0 0 0 1 forward_v I I I I #
coedge $-1 $296 $294 $298 $405 reversed $201 $-1 #
edge $-1 $309 -12.443776637312205 $407 12.443776637312205 $308 $462 forward 7 unknown #
vertex $-1 $405 $463 #
straight-curve $-1 -73.322550126651805 -42.664563050623528 0 0 0 -1 I I #
edge $-1 $403 -42.664563050623528 $407 42.664563050623528 $401 $464 forward 7 unknown #
straight-curve $-1 0 -42.664563050623528 -12.443776637312205 -1 0 0 I I #
vertex $-1 $301 $465 #
straight-curve $-1 0 42.664563050623528 -12.443776637312205 1 0 0 I I #
point $-1 73.322550126651805 42.664563050623528 -12.443776637312205 #
point $-1 73.322550126651805 -42.664563050623528 -12.443776637312205 #
straight-curve $-1 -73.322550126651805 0 12.443776637312205 0 -1 0 I I #
point $-1 -73.322550126651805 42.664563050623528 12.443776637312205 #
point $-1 -73.322550126651805 -42.664563050623528 12.443776637312205 #
straight-curve $-1 73.322550126651805 -42.664563050623528 0 0 0 -1 I I #
straight-curve $-1 73.322550126651805 42.664563050623528 0 0 0 -1 I I #
plane-surface $-1 0 42.664563050623528 0 0 -1 0 0 0 -1 forward_v I I I I #
coedge $-1 $322 $321 $466 $467 forward $135 $-1 #
edge $-1 $325 61.537712230113335 $468 73.322550126651805 $324 $469 forward 7 unknown #
coedge $-1 $330 $329 $322 $420 reversed $331 $-1 #
edge $-1 $470 -73.322550126651805 $421 -61.537712230113335 $419 $471 forward 7 unknown #
vertex $-1 $337 $472 #
straight-curve $-1 -61.537712230113335 0 -12.443776637312205 0 -1 0 I I #
point $-1 -61.537712230113335 -42.664563050623528 -12.443776637312205 #
coedge $-1 $466 $327 $330 $427 forward $319 $-1 #
coedge $-1 $327 $466 $334 $429 reversed $319 $-1 #
straight-curve $-1 -73.322550126651805 0 -8.8480807860777482 0 1 0 I I #
edge $-1 $332 8.8480807860777482 $470 12.443776637312205 $330 $473 forward 7 unknown #
point $-1 -73.322550126651805 42.664563050623528 -8.8480807860777482 #
edge $-1 $335 8.8480807860777482 $468 12.443776637312205 $425 $474 forward 7 unknown #
point $-1 -73.322550126651805 -42.664563050623528 -8.8480807860777482 #
straight-curve $-1 -61.537712230113335 42.664563050623528 -5.3229643558474882 0 0 -1 I I #
edge $-1 $433 29.60184226193013 $436 34.508087665636481 $341 $475 forward 7 unknown #
vertex $-1 $345 $476 #
straight-curve $-1 36.675758750634337 -42.664563050623528 56.596763199062352 0 0 1 I I #
edge $-1 $436 -24.771080601651612 $352 0.96172430368616091 $351 $477 forward 7 unknown #
vertex $-1 $435 $478 #
straight-curve $-1 36.675758750634337 -42.664563050623514 7.7058704169382537 0 -0.71933979245794832 -0.69465837861970381 I I #
point $-1 36.675758750634337 -42.664563050623528 7.7058704169382404 #
point $-1 10.942953845296564 -37.758317646917178 12.443776637312205 #
straight-curve $-1 0 -42.664563050623528 12.443776637312205 1 0 0 I I #
vertex $-1 $358 $479 #
point $-1 17.089514826364123 -38.217692150360683 8.0102368764795369 #
vertex $-1 $362 $480 #
point $-1 24.809356297965451 -38.217692150360683 8.0102368764795369 #
vertex $-1 $366 $481 #
point $-1 32.529197769566778 -38.217692150360683 8.0102368764795369 #
edge $-1 $448 73.790282755014402 $451 78.528188975388389 $371 $482 forward 7 unknown #
vertex $-1 $385 $483 #
straight-curve $-1 36.675758750634337 41.576087382409078 12.443776637312197 0 1 0 I I #
edge $-1 $451 -24.771080601651612 $382 0.96172430368616091 $381 $484 forward 7 unknown #
vertex $-1 $450 $485 #
straight-curve $-1 36.675758750634337 -18.716072809665647 66.980462803466779 0 -0.71933979245794832 0.69465837861970381 I I #
point $-1 36.675758750634337 37.75831764691717 12.443776637312205 #
point $-1 10.942953845296564 42.664563050623535 7.7058704169382324 #
straight-curve $-1 0 42.664563050623528 12.443776637312205 -1 0 0 I I #
vertex $-1 $388 $486 #
point $-1 17.089514826364123 38.217692150360683 8.0102368764795404 #
vertex $-1 $392 $487 #
point $-1 24.809356297965451 38.217692150360683 8.0102368764795404 #
vertex $-1 $396 $488 #
point $-1 32.529197769566778 38.217692150360683 8.0102368764795404 #
straight-curve $-1 -73.322550126651805 42.664563050623528 0 0 0 -1 I I #
point $-1 -73.322550126651805 -42.664563050623528 -12.443776637312205 #
straight-curve $-1 -73.322550126651805 0 -12.443776637312205 0 1 0 I I #
point $-1 -73.322550126651805 42.664563050623528 -12.443776637312205 #
coedge $-1 $425 $424 $417 $467 reversed $319 $-1 #
edge $-1 $468 -42.664563050623528 $470 42.664563050623528 $466 $489 forward 7 unknown #
vertex $-1 $467 $490 #
straight-curve $-1 0 -42.664563050623528 -12.443776637312205 -1 0 0 I I #
vertex $-1 $420 $491 #
straight-curve $-1 0 42.664563050623528 -12.443776637312205 1 0 0 I I #
point $-1 -61.537712230113335 42.664563050623528 -12.443776637312205 #
straight-curve $-1 -73.322550126651805 42.664563050623528 0 0 0 -1 I I #
straight-curve $-1 -73.322550126651805 -42.664563050623528 0 0 0 -1 I I #
straight-curve $-1 36.675758750634337 -72.266405312553658 12.443776637312205 0 1 0 I I #
point $-1 36.675758750634337 -42.664563050623528 12.443776637312205 #
straight-curve $-1 11.904678148982725 -37.75831764691717 12.443776637312205 -1 0 0 I I #
point $-1 36.675758750634337 -37.758317646917178 12.443776637312205 #
point $-1 16.089514826364123 -37.523033771740977 7.290897084021589 #
point $-1 23.809356297965451 -37.523033771740977 7.290897084021589 #
point $-1 31.529197769566778 -37.523033771740977 7.290897084021589 #
straight-curve $-1 36.675758750634337 42.664563050623528 86.234059392326614 0 0 -1 I I #
point $-1 36.675758750634337 42.664563050623528 12.443776637312205 #
straight-curve $-1 11.904678148982725 42.664563050623528 7.7058704169382324 -1 0 0 I I #
point $-1 36.675758750634337 42.664563050623535 7.7058704169382324 #
point $-1 16.089514826364123 37.523033771740977 7.2908970840215925 #
point $-1 23.809356297965451 37.523033771740977 7.2908970840215925 #
point $-1 31.529197769566778 37.523033771740977 7.2908970840215925 #
straight-curve $-1 -73.322550126651805 0 -12.443776637312205 0 1 0 I I #
point $-1 -73.322550126651805 -42.664563050623528 -12.443776637312205 #
point $-1 -73.322550126651805 42.664563050623528 -12.443776637312205 #
End-of-ACIS-data 