500 0 13 0           
7 Unknown 11 ACIS 5.0 NT 24 Fri Mar 26 01:12:18 1999 
-1 9.9999999999999995e-007 1e-010 
body $-1 $13 $-1 $14 #
body $-1 $15 $-1 $16 #
body $-1 $17 $-1 $18 #
body $-1 $19 $-1 $20 #
body $-1 $21 $-1 $22 #
body $-1 $23 $-1 $24 #
body $-1 $25 $-1 $26 #
body $-1 $27 $-1 $28 #
body $-1 $29 $-1 $30 #
body $-1 $31 $-1 $32 #
body $-1 $33 $-1 $34 #
body $-1 $35 $-1 $36 #
body $-1 $37 $-1 $38 #
lump $-1 $-1 $39 $0 #
transform $-1 1 0 0 0 1 0 0 0 1 54.076357310708943 26.929091854053226 6.8727657841087346 1 rotate no_reflect no_shear #
lump $-1 $-1 $40 $1 #
transform $-1 1 0 0 0 1 0 0 0 1 54.076357310708943 26.929091854053226 6.8727657841087346 1 rotate no_reflect no_shear #
lump $-1 $-1 $41 $2 #
transform $-1 1 0 0 0 1 0 0 0 1 54.076357310708943 26.929091854053226 6.8727657841087346 1 rotate no_reflect no_shear #
lump $-1 $-1 $42 $3 #
transform $-1 1 0 0 0 1 0 0 0 1 54.076357310708943 26.929091854053226 6.8727657841087346 1 rotate no_reflect no_shear #
lump $-1 $-1 $43 $4 #
transform $-1 1 0 0 0 1 0 0 0 1 54.076357310708943 26.929091854053226 6.8727657841087346 1 rotate no_reflect no_shear #
lump $-1 $-1 $44 $5 #
transform $-1 1 0 0 0 1 0 0 0 1 54.076357310708943 26.929091854053226 6.8727657841087346 1 rotate no_reflect no_shear #
lump $-1 $-1 $45 $6 #
transform $-1 1 0 0 0 1 0 0 0 1 54.076357310708943 26.929091854053226 6.8727657841087346 1 rotate no_reflect no_shear #
lump $-1 $-1 $46 $7 #
transform $-1 1 0 0 0 1 0 0 0 1 54.076357310708943 26.929091854053226 6.8727657841087346 1 rotate no_reflect no_shear #
lump $-1 $-1 $47 $8 #
transform $-1 1 0 0 0 1 0 0 0 1 54.076357310708943 26.929091854053226 6.8727657841087346 1 rotate no_reflect no_shear #
lump $-1 $-1 $48 $9 #
transform $-1 1 0 0 0 1 0 0 0 1 54.076357310708943 26.929091854053226 6.8727657841087346 1 rotate no_reflect no_shear #
lump $-1 $-1 $49 $10 #
transform $-1 1 0 0 0 1 0 0 0 1 54.076357310708943 26.929091854053226 6.8727657841087346 1 rotate no_reflect no_shear #
lump $-1 $-1 $50 $11 #
transform $-1 1 0 0 0 1 0 0 0 1 54.076357310708943 26.929091854053226 6.8727657841087346 1 rotate no_reflect no_shear #
lump $-1 $-1 $51 $12 #
transform $-1 1 0 0 0 1 0 0 0 1 54.076357310708943 26.929091854053226 6.8727657841087346 1 rotate no_reflect no_shear #
shell $-1 $-1 $-1 $52 $-1 $13 #
shell $-1 $-1 $-1 $53 $-1 $15 #
shell $-1 $-1 $-1 $54 $-1 $17 #
shell $-1 $-1 $-1 $55 $-1 $19 #
shell $-1 $-1 $-1 $56 $-1 $21 #
shell $-1 $-1 $-1 $57 $-1 $23 #
shell $-1 $-1 $-1 $58 $-1 $25 #
shell $-1 $-1 $-1 $59 $-1 $27 #
shell $-1 $-1 $-1 $60 $-1 $29 #
shell $-1 $-1 $-1 $61 $-1 $31 #
shell $-1 $-1 $-1 $62 $-1 $33 #
shell $-1 $-1 $-1 $63 $-1 $35 #
shell $-1 $-1 $-1 $64 $-1 $37 #
face $-1 $65 $66 $39 $-1 $67 forward single #
face $-1 $68 $69 $40 $-1 $70 forward single #
face $-1 $71 $72 $41 $-1 $73 forward single #
face $-1 $74 $75 $42 $-1 $76 reversed single #
face $-1 $77 $78 $43 $-1 $79 forward single #
face $-1 $80 $81 $44 $-1 $82 reversed single #
face $-1 $83 $84 $45 $-1 $85 forward single #
face $-1 $86 $87 $46 $-1 $88 reversed single #
face $-1 $89 $90 $47 $-1 $91 forward single #
face $-1 $92 $93 $48 $-1 $94 forward single #
face $-1 $95 $96 $49 $-1 $97 reversed single #
face $-1 $98 $99 $50 $-1 $100 forward single #
face $-1 $101 $102 $51 $-1 $103 forward single #
face $-1 $104 $105 $39 $-1 $106 reversed single #
loop $-1 $-1 $107 $52 #
plane-surface $-1 0 0 6.8727657841087346 0 0 1 1 0 0 forward_v I I I I #
face $-1 $108 $109 $40 $-1 $110 reversed single #
loop $-1 $-1 $111 $53 #
plane-surface $-1 0 -24.599615011096006 3.9458982103041844 0 0 1 1 0 0 forward_v I I I I #
face $-1 $112 $113 $41 $-1 $114 reversed single #
loop $-1 $-1 $115 $54 #
plane-surface $-1 0 24.599615011096006 3.9458982103041844 0 0 1 1 0 0 forward_v I I I I #
face $-1 $116 $117 $42 $-1 $118 reversed single #
loop $-1 $-1 $119 $55 #
plane-surface $-1 27.516690026707622 -15.283100016020601 153.46655129706241 0 1 0 0.57357644374324357 0 0.81915203911291934 forward_v I I I I #
face $-1 $120 $121 $43 $-1 $122 forward single #
loop $-1 $123 $124 $56 #
cone-surface $-1 50.077637109021936 -11.677241161715591 3.2586702374277379 -0.57357644374324357 0 -0.81915203911291934 1.228728058669379 0 -0.86036466561486535 1 I I 0 1 1.5 forward I I I I #
face $-1 $125 $126 $44 $-1 $127 reversed single #
loop $-1 $-1 $128 $57 #
plane-surface $-1 27.516690026707622 6.987038152118183 153.46655129706241 0 1 0 0.57357644374324357 0 0.81915203911291934 forward_v I I I I #
face $-1 $129 $130 $45 $-1 $131 forward single #
loop $-1 $132 $133 $58 #
cone-surface $-1 50.077637109021936 10.592897006423193 3.2586702374277379 -0.57357644374324357 0 -0.81915203911291934 1.228728058669379 0 -0.86036466561486535 1 I I 0 1 1.5 forward I I I I #
face $-1 $134 $135 $46 $-1 $136 reversed single #
loop $-1 $-1 $137 $59 #
plane-surface $-1 -147.73935649767049 -9.138371351348983 56.485680197471737 0 -1 0 0.86602541151947299 0 -0.49999998660252726 forward_v I I I I #
face $-1 $138 $139 $47 $-1 $140 forward single #
loop $-1 $141 $142 $60 #
cone-surface $-1 -52.104820922488855 -14.365940710620722 4.2466848910403154 0.86602541151947299 0 -0.49999998660252726 0.49999998660252726 0 0.86602541151947299 1 I I 0 1 1 forward I I I I #
face $-1 $143 $144 $48 $-1 $145 forward single #
loop $-1 $146 $147 $61 #
cone-surface $-1 -52.104820922488855 -11.22939909505768 4.2466848910403154 0.86602541151947299 0 -0.49999998660252726 0.49999998660252726 0 0.86602541151947299 1 I I 0 1 1 forward I I I I #
face $-1 $148 $149 $49 $-1 $150 reversed single #
loop $-1 $-1 $151 $62 #
plane-surface $-1 -147.73935649767049 16.45696845432942 56.485680197471737 0 -1 0 0.86602541151947299 0 -0.49999998660252726 forward_v I I I I #
face $-1 $152 $153 $50 $-1 $154 forward single #
loop $-1 $155 $156 $63 #
cone-surface $-1 -52.104820922488855 11.22939909505768 4.2466848910403154 0.86602541151947299 0 -0.49999998660252726 0.49999998660252726 0 0.86602541151947299 1 I I 0 1 1 forward I I I I #
face $-1 $157 $158 $51 $-1 $159 forward single #
loop $-1 $160 $161 $64 #
cone-surface $-1 -52.104820922488855 14.36594071062072 4.2466848910403154 0.86602541151947299 0 -0.49999998660252726 0.49999998660252726 0 0.86602541151947299 1 I I 0 1 1 forward I I I I #
face $-1 $162 $163 $39 $-1 $164 reversed single #
loop $-1 $-1 $165 $65 #
plane-surface $-1 0 0 -6.8727657841087346 0 0 1 1 0 0 forward_v I I I I #
coedge $-1 $166 $167 $168 $169 forward $66 $-1 #
face $-1 $170 $171 $40 $-1 $172 reversed single #
loop $-1 $-1 $173 $68 #
plane-surface $-1 0 -24.599615011096006 0.31262621514172473 0 0 1 1 0 0 forward_v I I I I #
coedge $-1 $174 $175 $176 $177 reversed $69 $-1 #
face $-1 $178 $179 $41 $-1 $180 reversed single #
loop $-1 $-1 $181 $71 #
plane-surface $-1 0 24.599615011096006 0.31262621514172473 0 0 1 1 0 0 forward_v I I I I #
coedge $-1 $182 $183 $184 $185 reversed $72 $-1 #
face $-1 $186 $187 $42 $-1 $188 reversed single #
loop $-1 $-1 $189 $74 #
plane-surface $-1 -34.517159407023151 -11.677241161715591 64.873034579330309 0.57357644374324357 0 0.81915203911291934 0.81915203911291934 0 -0.57357644374324357 forward_v I I I I #
coedge $-1 $190 $191 $192 $193 reversed $75 $-1 #
face $-1 $-1 $194 $43 $-1 $195 forward single #
loop $-1 $196 $197 $77 #
cone-surface $-1 48.529009593667098 -11.677241161715591 1.0470009806666472 -0.57357644374324357 0 -0.81915203911291934 0.61436402933468948 0 -0.43018233280743268 1 I I -0.70710678118654757 0.70710678118654757 0.75 forward I I I I #
loop $-1 $-1 $198 $56 #
coedge $-1 $124 $124 $199 $200 reversed $78 $-1 #
face $-1 $201 $202 $44 $-1 $203 reversed single #
loop $-1 $-1 $204 $80 #
plane-surface $-1 -34.517159407023151 10.592897006423193 64.873034579330309 0.57357644374324357 0 0.81915203911291934 0.81915203911291934 0 -0.57357644374324357 forward_v I I I I #
coedge $-1 $205 $206 $207 $208 reversed $81 $-1 #
face $-1 $-1 $209 $45 $-1 $210 forward single #
loop $-1 $211 $212 $83 #
cone-surface $-1 48.529009593667098 10.592897006423193 1.0470009806666472 -0.57357644374324357 0 -0.81915203911291934 0.61436402933468948 0 -0.43018233280743268 1 I I -0.70710678118654757 0.70710678118654757 0.75 forward I I I I #
loop $-1 $-1 $213 $58 #
coedge $-1 $133 $133 $214 $215 reversed $84 $-1 #
face $-1 $216 $217 $46 $-1 $218 reversed single #
loop $-1 $-1 $219 $86 #
plane-surface $-1 -54.076357310708943 -12.7976699028392 2.4093243357358389 -0.86602541151947299 0 0.49999998660252726 0.49999998660252726 0 0.86602541151947299 forward_v I I I I #
coedge $-1 $220 $221 $222 $223 reversed $87 $-1 #
face $-1 $-1 $224 $47 $-1 $225 forward single #
loop $-1 $226 $227 $89 #
cone-surface $-1 -50.988756343340974 -14.365940710620722 3.6023247288570754 0.86602541151947299 0 -0.49999998660252726 0.24999999330126363 0 0.43301270575973649 1 I I -0.70710678118654746 0.70710678118654746 0.5 forward I I I I #
loop $-1 $-1 $228 $60 #
coedge $-1 $142 $142 $229 $230 reversed $90 $-1 #
face $-1 $-1 $231 $48 $-1 $232 forward single #
loop $-1 $233 $234 $92 #
cone-surface $-1 -50.988756343340974 -11.22939909505768 3.6023247288570754 0.86602541151947299 0 -0.49999998660252726 0.24999999330126363 0 0.43301270575973649 1 I I -0.70710678118654746 0.70710678118654746 0.5 forward I I I I #
loop $-1 $-1 $235 $61 #
coedge $-1 $147 $147 $236 $237 reversed $93 $-1 #
face $-1 $238 $239 $49 $-1 $240 reversed single #
loop $-1 $-1 $241 $95 #
plane-surface $-1 -54.076357310708943 12.797669902839203 2.4093243357358389 -0.86602541151947299 0 0.49999998660252726 0.49999998660252726 0 0.86602541151947299 forward_v I I I I #
coedge $-1 $242 $243 $244 $245 reversed $96 $-1 #
face $-1 $-1 $246 $50 $-1 $247 forward single #
loop $-1 $248 $249 $98 #
cone-surface $-1 -50.988756343340974 11.22939909505768 3.6023247288570754 0.86602541151947299 0 -0.49999998660252726 0.24999999330126363 0 0.43301270575973649 1 I I -0.70710678118654746 0.70710678118654746 0.5 forward I I I I #
loop $-1 $-1 $250 $63 #
coedge $-1 $156 $156 $251 $252 reversed $99 $-1 #
face $-1 $-1 $253 $51 $-1 $254 forward single #
loop $-1 $255 $256 $101 #
cone-surface $-1 -50.988756343340974 14.36594071062072 3.6023247288570754 0.86602541151947299 0 -0.49999998660252726 0.24999999330126363 0 0.43301270575973649 1 I I -0.70710678118654746 0.70710678118654746 0.5 forward I I I I #
loop $-1 $-1 $257 $64 #
coedge $-1 $161 $161 $258 $259 reversed $102 $-1 #
face $-1 $260 $261 $39 $-1 $262 reversed single #
loop $-1 $-1 $263 $104 #
plane-surface $-1 0 -26.929091854053226 0 0 1 0 0 0 1 forward_v I I I I #
coedge $-1 $264 $265 $266 $267 forward $105 $-1 #
coedge $-1 $268 $107 $269 $270 forward $66 $-1 #
coedge $-1 $107 $268 $271 $272 forward $66 $-1 #
coedge $-1 $273 $274 $107 $169 reversed $275 $-1 #
edge $-1 $276 -26.929091854053226 $277 26.929091854053226 $168 $278 forward 7 unknown #
face $-1 $279 $280 $40 $-1 $281 reversed single #
loop $-1 $-1 $282 $108 #
plane-surface $-1 0 -22.270138168138786 2.1292622127229546 0 -1 0 0 0 -1 forward_v I I I I #
coedge $-1 $283 $284 $285 $286 reversed $109 $-1 #
coedge $-1 $287 $111 $288 $289 forward $69 $-1 #
coedge $-1 $111 $287 $290 $291 reversed $69 $-1 #
coedge $-1 $292 $293 $111 $177 forward $294 $-1 #
edge $-1 $295 9.9703306625907828 $296 14.629284348505223 $176 $297 forward 7 unknown #
face $-1 $298 $299 $41 $-1 $300 reversed single #
loop $-1 $-1 $301 $112 #
plane-surface $-1 0 22.270138168138786 2.1292622127229546 0 1 0 0 0 1 forward_v I I I I #
coedge $-1 $302 $303 $304 $305 reversed $113 $-1 #
coedge $-1 $306 $115 $307 $308 reversed $72 $-1 #
coedge $-1 $115 $306 $309 $310 forward $72 $-1 #
coedge $-1 $311 $312 $115 $185 forward $299 $-1 #
edge $-1 $313 -14.629284348505223 $314 -9.9703306625907828 $184 $315 forward 7 unknown #
face $-1 $316 $317 $42 $-1 $318 forward single #
loop $-1 $-1 $319 $116 #
plane-surface $-1 27.516690026707622 -8.0713823074105804 153.46655129706241 0 -1 0 -0.57357644374324357 0 -0.81915203911291934 forward_v I I I I #
coedge $-1 $320 $321 $322 $323 reversed $117 $-1 #
coedge $-1 $191 $119 $324 $325 reversed $75 $-1 #
coedge $-1 $119 $190 $320 $326 reversed $75 $-1 #
coedge $-1 $322 $327 $119 $193 forward $328 $-1 #
edge $-1 $329 69.860509864422468 $330 73.894090502931647 $192 $331 forward 7 unknown #
loop $-1 $-1 $199 $120 #
plane-surface $-1 -34.517159407023151 -11.677241161715591 64.873034579330309 0.57357644374324357 0 0.81915203911291934 0.81915203911291934 0 -0.57357644374324357 forward_v I I I I #
loop $-1 $-1 $332 $77 #
coedge $-1 $197 $197 $198 $333 reversed $121 $-1 #
coedge $-1 $198 $198 $197 $333 forward $123 $-1 #
coedge $-1 $199 $199 $124 $200 forward $194 $-1 #
edge $-1 $334 0 $334 6.2831853071796004 $199 $335 forward 7 unknown #
face $-1 $336 $337 $44 $-1 $338 reversed single #
loop $-1 $-1 $339 $125 #
plane-surface $-1 27.516690026707622 14.198755860728204 153.46655129706241 0 -1 0 -0.57357644374324357 0 -0.81915203911291934 forward_v I I I I #
coedge $-1 $340 $341 $342 $343 reversed $126 $-1 #
coedge $-1 $206 $128 $344 $345 reversed $81 $-1 #
coedge $-1 $128 $205 $340 $346 reversed $81 $-1 #
coedge $-1 $342 $347 $128 $208 forward $337 $-1 #
edge $-1 $348 69.860509864422468 $349 73.894090502931647 $207 $350 forward 7 unknown #
loop $-1 $-1 $214 $129 #
plane-surface $-1 -34.517159407023151 10.592897006423193 64.873034579330309 0.57357644374324357 0 0.81915203911291934 0.81915203911291934 0 -0.57357644374324357 forward_v I I I I #
loop $-1 $-1 $351 $83 #
coedge $-1 $212 $212 $213 $352 reversed $130 $-1 #
coedge $-1 $213 $213 $212 $352 forward $132 $-1 #
coedge $-1 $214 $214 $133 $215 forward $209 $-1 #
edge $-1 $353 0 $353 6.2831853071796004 $214 $354 forward 7 unknown #
face $-1 $355 $356 $46 $-1 $357 reversed single #
loop $-1 $-1 $358 $134 #
plane-surface $-1 -147.73935649767049 -16.456968454329417 56.485680197471737 0 1 0 -0.86602541151947299 0 0.49999998660252726 forward_v I I I I #
coedge $-1 $359 $360 $361 $362 reversed $135 $-1 #
coedge $-1 $221 $137 $363 $364 reversed $87 $-1 #
coedge $-1 $137 $220 $359 $365 reversed $87 $-1 #
coedge $-1 $361 $366 $137 $223 forward $356 $-1 #
edge $-1 $367 21.370074314627132 $368 25.83351576300003 $222 $369 forward 7 unknown #
loop $-1 $-1 $229 $138 #
plane-surface $-1 -54.076357310708943 -12.7976699028392 2.4093243357358389 -0.86602541151947299 0 0.49999998660252726 0.49999998660252726 0 0.86602541151947299 forward_v I I I I #
loop $-1 $-1 $370 $89 #
coedge $-1 $227 $227 $228 $371 reversed $139 $-1 #
coedge $-1 $228 $228 $227 $371 forward $141 $-1 #
coedge $-1 $229 $229 $142 $230 forward $224 $-1 #
edge $-1 $372 0 $372 6.2831853071796004 $229 $373 forward 7 unknown #
loop $-1 $-1 $236 $143 #
plane-surface $-1 -54.076357310708943 -12.7976699028392 2.4093243357358389 -0.86602541151947299 0 0.49999998660252726 0.49999998660252726 0 0.86602541151947299 forward_v I I I I #
loop $-1 $-1 $374 $92 #
coedge $-1 $234 $234 $235 $375 reversed $144 $-1 #
coedge $-1 $235 $235 $234 $375 forward $146 $-1 #
coedge $-1 $236 $236 $147 $237 forward $231 $-1 #
edge $-1 $376 0 $376 6.2831853071796004 $236 $377 forward 7 unknown #
face $-1 $378 $379 $49 $-1 $380 reversed single #
loop $-1 $-1 $381 $148 #
plane-surface $-1 -147.73935649767049 9.1383713513489866 56.485680197471737 0 1 0 -0.86602541151947299 0 0.49999998660252726 forward_v I I I I #
coedge $-1 $382 $383 $384 $385 reversed $149 $-1 #
coedge $-1 $243 $151 $386 $387 reversed $96 $-1 #
coedge $-1 $151 $242 $382 $388 reversed $96 $-1 #
coedge $-1 $384 $389 $151 $245 forward $379 $-1 #
edge $-1 $390 21.370074314627132 $391 25.83351576300003 $244 $392 forward 7 unknown #
loop $-1 $-1 $251 $152 #
plane-surface $-1 -54.076357310708943 12.797669902839203 2.4093243357358389 -0.86602541151947299 0 0.49999998660252726 0.49999998660252726 0 0.86602541151947299 forward_v I I I I #
loop $-1 $-1 $393 $98 #
coedge $-1 $249 $249 $250 $394 reversed $153 $-1 #
coedge $-1 $250 $250 $249 $394 forward $155 $-1 #
coedge $-1 $251 $251 $156 $252 forward $246 $-1 #
edge $-1 $395 0 $395 6.2831853071796004 $251 $396 forward 7 unknown #
loop $-1 $-1 $258 $157 #
plane-surface $-1 -54.076357310708943 12.797669902839203 2.4093243357358389 -0.86602541151947299 0 0.49999998660252726 0.49999998660252726 0 0.86602541151947299 forward_v I I I I #
loop $-1 $-1 $397 $101 #
coedge $-1 $256 $256 $257 $398 reversed $158 $-1 #
coedge $-1 $257 $257 $256 $398 forward $160 $-1 #
coedge $-1 $258 $258 $161 $259 forward $253 $-1 #
edge $-1 $399 0 $399 6.2831853071796004 $258 $400 forward 7 unknown #
face $-1 $401 $402 $39 $-1 $403 reversed single #
loop $-1 $-1 $404 $162 #
plane-surface $-1 -54.076357310708943 0 0 1 0 0 0 0 -1 forward_v I I I I #
coedge $-1 $405 $271 $406 $407 forward $163 $-1 #
coedge $-1 $408 $165 $405 $409 forward $105 $-1 #
coedge $-1 $165 $408 $410 $411 forward $105 $-1 #
coedge $-1 $274 $273 $165 $267 reversed $275 $-1 #
edge $-1 $412 -26.929091854053226 $413 26.929091854053226 $266 $414 forward 7 unknown #
coedge $-1 $167 $166 $415 $416 forward $66 $-1 #
coedge $-1 $417 $418 $166 $270 reversed $402 $-1 #
edge $-1 $277 -54.076357310708943 $419 54.076357310708943 $269 $420 forward 7 unknown #
coedge $-1 $263 $421 $167 $272 reversed $163 $-1 #
edge $-1 $422 -54.076357310708943 $276 54.076357310708943 $271 $423 forward 7 unknown #
coedge $-1 $266 $168 $421 $424 forward $275 $-1 #
coedge $-1 $168 $266 $417 $425 reversed $275 $-1 #
loop $-1 $-1 $273 $401 #
vertex $-1 $169 $426 #
vertex $-1 $169 $427 #
straight-curve $-1 54.076357310708943 0 6.8727657841087346 0 1 0 I I #
face $-1 $428 $429 $40 $-1 $430 reversed single #
loop $-1 $-1 $431 $170 #
plane-surface $-1 -54.076357310708943 0 0 1 0 0 0 0 -1 forward_v I I I I #
coedge $-1 $432 $288 $293 $433 reversed $171 $-1 #
coedge $-1 $434 $173 $435 $436 reversed $109 $-1 #
coedge $-1 $173 $434 $432 $437 forward $109 $-1 #
coedge $-1 $293 $292 $173 $286 forward $294 $-1 #
edge $-1 $438 -14.629284348505223 $439 -9.9703306625907828 $285 $440 forward 7 unknown #
coedge $-1 $175 $174 $431 $441 reversed $69 $-1 #
coedge $-1 $282 $442 $174 $289 reversed $171 $-1 #
edge $-1 $295 -54.076357310708943 $443 54.076357310708943 $288 $444 forward 7 unknown #
coedge $-1 $445 $446 $175 $291 forward $429 $-1 #
edge $-1 $296 -54.076357310708943 $447 54.076357310708943 $290 $448 forward 7 unknown #
coedge $-1 $285 $176 $446 $449 forward $294 $-1 #
coedge $-1 $176 $285 $282 $433 forward $294 $-1 #
loop $-1 $-1 $176 $428 #
vertex $-1 $177 $450 #
vertex $-1 $449 $451 #
straight-curve $-1 54.076357310708943 -12.299807505548003 3.9458982103041844 0 -1 0 I I #
face $-1 $452 $453 $41 $-1 $454 reversed single #
loop $-1 $-1 $184 $178 #
plane-surface $-1 54.076357310708943 0 0 -1 0 0 0 0 1 forward_v I I I I #
coedge $-1 $455 $309 $456 $457 reversed $179 $-1 #
coedge $-1 $458 $181 $455 $459 forward $113 $-1 #
coedge $-1 $181 $458 $460 $461 reversed $113 $-1 #
coedge $-1 $312 $311 $181 $305 forward $299 $-1 #
edge $-1 $462 9.9703306625907828 $463 14.629284348505223 $304 $464 forward 7 unknown #
coedge $-1 $183 $182 $465 $466 reversed $72 $-1 #
coedge $-1 $467 $468 $182 $308 forward $469 $-1 #
edge $-1 $470 -54.076357310708943 $313 54.076357310708943 $307 $471 forward 7 unknown #
coedge $-1 $301 $472 $183 $310 reversed $179 $-1 #
edge $-1 $473 -54.076357310708943 $314 54.076357310708943 $309 $474 forward 7 unknown #
coedge $-1 $304 $184 $472 $475 forward $299 $-1 #
coedge $-1 $184 $304 $467 $476 reversed $299 $-1 #
vertex $-1 $476 $477 #
vertex $-1 $185 $478 #
straight-curve $-1 54.076357310708943 12.299807505548003 3.9458982103041844 0 -1 0 I I #
face $-1 $-1 $328 $42 $-1 $479 reversed single #
loop $-1 $-1 $480 $186 #
plane-surface $-1 0 0 6.8727657841087346 0 0 1 1 0 0 forward_v I I I I #
coedge $-1 $481 $482 $483 $484 reversed $187 $-1 #
coedge $-1 $485 $189 $191 $326 forward $117 $-1 #
coedge $-1 $189 $485 $481 $486 forward $117 $-1 #
coedge $-1 $483 $192 $189 $323 forward $328 $-1 #
edge $-1 $330 -9.4444794351628047 $487 -2.232761726552785 $322 $488 forward 7 unknown #
coedge $-1 $489 $490 $190 $325 forward $317 $-1 #
edge $-1 $491 34.557462259075919 $329 40.318012297355132 $324 $492 forward 7 unknown #
edge $-1 $330 -108.15271462141786 $491 -101.12038147296174 $191 $493 forward 7 unknown #
coedge $-1 $192 $483 $489 $494 reversed $328 $-1 #
loop $-1 $-1 $483 $316 #
vertex $-1 $494 $495 #
vertex $-1 $193 $496 #
straight-curve $-1 54.076357310708943 -15.283100016020601 76.733275648531205 0 0 -1 I I #
coedge $-1 $332 $332 $-1 $497 reversed $196 $-1 #
edge $-1 $498 0 $498 6.2831853071796004 $197 $499 forward 7 unknown #
vertex $-1 $200 $500 #
ellipse-curve $-1 51.196082291569347 -11.677241161715591 4.8559754648541453 0.57357644374324357 0 0.81915203911291934 1.228728058669379 0 -0.86036466561486535 1 I I #
face $-1 $-1 $501 $44 $-1 $502 forward single #
loop $-1 $-1 $207 $201 #
plane-surface $-1 54.076357310708943 0 0 -1 0 0 0 0 1 forward_v I I I I #
coedge $-1 $503 $504 $505 $506 reversed $202 $-1 #
coedge $-1 $507 $204 $206 $346 forward $126 $-1 #
coedge $-1 $204 $507 $503 $508 forward $126 $-1 #
coedge $-1 $505 $207 $204 $343 forward $337 $-1 #
edge $-1 $349 1.6905896489065864 $509 8.902307357516607 $342 $510 forward 7 unknown #
coedge $-1 $511 $512 $205 $345 forward $501 $-1 #
edge $-1 $513 34.557462259075919 $348 40.318012297355132 $344 $514 forward 7 unknown #
edge $-1 $349 -108.15271462141786 $513 -101.12038147296174 $206 $515 forward 7 unknown #
coedge $-1 $207 $505 $511 $516 reversed $337 $-1 #
vertex $-1 $516 $517 #
vertex $-1 $208 $518 #
straight-curve $-1 54.076357310708943 6.987038152118183 76.733275648531205 0 0 -1 I I #
coedge $-1 $351 $351 $-1 $519 reversed $211 $-1 #
edge $-1 $520 0 $520 6.2831853071796004 $212 $521 forward 7 unknown #
vertex $-1 $215 $522 #
ellipse-curve $-1 51.196082291569347 10.592897006423193 4.8559754648541453 0.57357644374324357 0 0.81915203911291934 1.228728058669379 0 -0.86036466561486535 1 I I #
face $-1 $-1 $523 $46 $-1 $524 forward single #
loop $-1 $-1 $222 $216 #
plane-surface $-1 -54.076357310708943 0 0 1 0 0 0 0 -1 forward_v I I I I #
coedge $-1 $525 $526 $527 $528 reversed $217 $-1 #
coedge $-1 $529 $219 $221 $365 forward $135 $-1 #
coedge $-1 $219 $529 $525 $530 forward $135 $-1 #
coedge $-1 $527 $222 $219 $362 forward $356 $-1 #
edge $-1 $368 2.7395363999293831 $531 10.058133502909817 $361 $532 forward 7 unknown #
coedge $-1 $533 $534 $220 $364 forward $523 $-1 #
edge $-1 $535 -22.3702899677902 $367 -19.7933209381263 $363 $536 forward 7 unknown #
edge $-1 $368 0 $535 5.1539381974272871 $221 $537 forward 7 unknown #
coedge $-1 $222 $527 $533 $538 reversed $356 $-1 #
vertex $-1 $538 $539 #
vertex $-1 $223 $540 #
straight-curve $-1 -54.076357310708943 -9.138371351348983 28.242840098735869 0 0 -1 I I #
coedge $-1 $370 $370 $-1 $541 reversed $226 $-1 #
edge $-1 $542 0 $542 6.2831853071796004 $227 $543 forward 7 unknown #
vertex $-1 $230 $544 #
ellipse-curve $-1 -52.787872795876993 -14.365940710620722 4.6410450599222894 -0.86602541151947299 0 0.49999998660252726 0.49999998660252726 0 0.86602541151947299 1 I I #
coedge $-1 $374 $374 $-1 $545 reversed $233 $-1 #
edge $-1 $546 0 $546 6.2831853071796004 $234 $547 forward 7 unknown #
vertex $-1 $237 $548 #
ellipse-curve $-1 -52.787872795876993 -11.22939909505768 4.6410450599222894 -0.86602541151947299 0 0.49999998660252726 0.49999998660252726 0 0.86602541151947299 1 I I #
face $-1 $-1 $549 $49 $-1 $550 forward single #
loop $-1 $-1 $244 $238 #
plane-surface $-1 -54.076357310708943 0 0 1 0 0 0 0 -1 forward_v I I I I #
coedge $-1 $551 $552 $553 $554 reversed $239 $-1 #
coedge $-1 $555 $241 $243 $388 forward $149 $-1 #
coedge $-1 $241 $555 $551 $556 forward $149 $-1 #
coedge $-1 $553 $244 $241 $385 forward $379 $-1 #
edge $-1 $391 -10.058133502909818 $557 -2.7395363999293849 $384 $558 forward 7 unknown #
coedge $-1 $559 $560 $242 $387 forward $549 $-1 #
edge $-1 $561 -22.3702899677902 $390 -19.7933209381263 $386 $562 forward 7 unknown #
edge $-1 $391 0 $561 5.1539381974272871 $243 $563 forward 7 unknown #
coedge $-1 $244 $553 $559 $564 reversed $379 $-1 #
vertex $-1 $564 $565 #
vertex $-1 $245 $566 #
straight-curve $-1 -54.076357310708943 16.45696845432942 28.242840098735869 0 0 -1 I I #
coedge $-1 $393 $393 $-1 $567 reversed $248 $-1 #
edge $-1 $568 0 $568 6.2831853071796004 $249 $569 forward 7 unknown #
vertex $-1 $252 $570 #
ellipse-curve $-1 -52.787872795876993 11.22939909505768 4.6410450599222894 -0.86602541151947299 0 0.49999998660252726 0.49999998660252726 0 0.86602541151947299 1 I I #
coedge $-1 $397 $397 $-1 $571 reversed $255 $-1 #
edge $-1 $572 0 $572 6.2831853071796004 $256 $573 forward 7 unknown #
vertex $-1 $259 $574 #
ellipse-curve $-1 -52.787872795876993 14.36594071062072 4.6410450599222894 -0.86602541151947299 0 0.49999998660252726 0.49999998660252726 0 0.86602541151947299 1 I I #
face $-1 $-1 $275 $39 $-1 $575 reversed single #
loop $-1 $-1 $417 $260 #
plane-surface $-1 0 26.929091854053226 0 0 -1 0 0 0 -1 forward_v I I I I #
coedge $-1 $576 $415 $418 $577 forward $261 $-1 #
coedge $-1 $421 $263 $264 $409 reversed $163 $-1 #
coedge $-1 $415 $576 $263 $407 reversed $261 $-1 #
edge $-1 $422 -6.8727657841087346 $578 6.8727657841087346 $406 $579 forward 7 unknown #
coedge $-1 $265 $264 $576 $580 forward $105 $-1 #
edge $-1 $413 -54.076357310708943 $578 54.076357310708943 $405 $581 forward 7 unknown #
coedge $-1 $418 $417 $265 $411 reversed $402 $-1 #
edge $-1 $582 -54.076357310708943 $412 54.076357310708943 $410 $583 forward 7 unknown #
vertex $-1 $267 $584 #
vertex $-1 $424 $585 #
straight-curve $-1 54.076357310708943 0 -6.8727657841087346 0 -1 0 I I #
coedge $-1 $404 $406 $268 $416 reversed $261 $-1 #
edge $-1 $419 -26.929091854053226 $422 26.929091854053226 $415 $586 forward 7 unknown #
coedge $-1 $410 $269 $274 $425 forward $402 $-1 #
coedge $-1 $269 $410 $404 $577 reversed $402 $-1 #
vertex $-1 $270 $587 #
straight-curve $-1 0 26.929091854053226 6.8727657841087346 -1 0 0 I I #
coedge $-1 $271 $405 $273 $424 reversed $163 $-1 #
vertex $-1 $416 $588 #
straight-curve $-1 0 -26.929091854053226 6.8727657841087346 1 0 0 I I #
edge $-1 $276 -6.8727657841087346 $413 6.8727657841087346 $273 $589 forward 7 unknown #
edge $-1 $277 -6.8727657841087346 $412 6.8727657841087346 $274 $590 forward 7 unknown #
point $-1 54.076357310708943 -26.929091854053226 6.8727657841087346 #
point $-1 54.076357310708943 26.929091854053226 6.8727657841087346 #
face $-1 $-1 $294 $40 $-1 $591 reversed single #
loop $-1 $-1 $290 $279 #
plane-surface $-1 0 -26.929091854053226 0 0 1 0 0 0 1 forward_v I I I I #
coedge $-1 $592 $593 $287 $441 forward $280 $-1 #
coedge $-1 $442 $282 $284 $437 reversed $171 $-1 #
edge $-1 $439 -0.75200489121975256 $295 2.8812671039427071 $293 $594 forward 7 unknown #
coedge $-1 $284 $283 $595 $596 reversed $109 $-1 #
coedge $-1 $446 $445 $283 $436 forward $429 $-1 #
edge $-1 $597 -54.076357310708943 $438 54.076357310708943 $435 $598 forward 7 unknown #
edge $-1 $599 -54.076357310708943 $439 54.076357310708943 $432 $600 forward 7 unknown #
vertex $-1 $436 $601 #
vertex $-1 $286 $602 #
straight-curve $-1 54.076357310708943 -12.299807505548003 0.31262621514172473 0 1 0 I I #
edge $-1 $447 -14.629284348505223 $443 -9.9703306625907828 $431 $603 forward 7 unknown #
coedge $-1 $288 $432 $592 $604 reversed $171 $-1 #
vertex $-1 $441 $605 #
straight-curve $-1 0 -22.270138168138786 3.9458982103041844 -1 0 0 I I #
coedge $-1 $435 $290 $593 $606 forward $429 $-1 #
coedge $-1 $290 $435 $292 $449 reversed $429 $-1 #
vertex $-1 $606 $607 #
straight-curve $-1 0 -26.929091854053226 3.9458982103041844 -1 0 0 I I #
edge $-1 $296 -3.9458982103041844 $438 -0.31262621514172473 $292 $608 forward 7 unknown #
point $-1 54.076357310708943 -22.270138168138786 3.9458982103041844 #
point $-1 54.076357310708943 -26.929091854053226 3.9458982103041844 #
face $-1 $-1 $469 $41 $-1 $609 reversed single #
loop $-1 $-1 $465 $298 #
plane-surface $-1 -54.076357310708943 0 0 1 0 0 0 0 -1 forward_v I I I I #
coedge $-1 $472 $301 $302 $459 reversed $179 $-1 #
coedge $-1 $465 $610 $301 $457 forward $453 $-1 #
edge $-1 $611 -0.75200489121975256 $473 2.8812671039427071 $456 $612 forward 7 unknown #
coedge $-1 $303 $302 $610 $613 reversed $113 $-1 #
edge $-1 $462 -54.076357310708943 $611 54.076357310708943 $455 $614 forward 7 unknown #
coedge $-1 $468 $467 $303 $461 forward $469 $-1 #
edge $-1 $463 -54.076357310708943 $615 54.076357310708943 $460 $616 forward 7 unknown #
vertex $-1 $305 $617 #
vertex $-1 $461 $618 #
straight-curve $-1 54.076357310708943 12.299807505548003 0.31262621514172473 0 1 0 I I #
coedge $-1 $619 $456 $306 $466 forward $453 $-1 #
edge $-1 $473 9.9703306625907828 $470 14.629284348505223 $465 $620 forward 7 unknown #
coedge $-1 $460 $307 $312 $476 forward $469 $-1 #
coedge $-1 $307 $460 $619 $621 reversed $469 $-1 #
loop $-1 $-1 $307 $452 #
vertex $-1 $621 $622 #
straight-curve $-1 0 26.929091854053226 3.9458982103041844 1 0 0 I I #
coedge $-1 $309 $455 $311 $475 reversed $179 $-1 #
vertex $-1 $466 $623 #
straight-curve $-1 0 22.270138168138786 3.9458982103041844 1 0 0 I I #
edge $-1 $314 -2.8812671039427071 $462 0.75200489121975256 $311 $624 forward 7 unknown #
edge $-1 $313 -3.9458982103041844 $463 -0.31262621514172473 $312 $625 forward 7 unknown #
point $-1 54.076357310708943 26.929091854053226 3.9458982103041844 #
point $-1 54.076357310708943 22.270138168138786 3.9458982103041844 #
plane-surface $-1 54.076357310708943 0 0 -1 0 0 0 0 1 forward_v I I I I #
coedge $-1 $490 $489 $482 $626 forward $317 $-1 #
coedge $-1 $482 $319 $321 $486 reversed $187 $-1 #
coedge $-1 $319 $481 $480 $626 reversed $187 $-1 #
coedge $-1 $327 $322 $319 $484 forward $328 $-1 #
edge $-1 $487 -73.894090502931647 $627 -69.860509864422468 $483 $628 forward 7 unknown #
coedge $-1 $321 $320 $490 $629 reversed $117 $-1 #
edge $-1 $630 101.12038147296174 $487 108.15271462141786 $481 $631 forward 7 unknown #
vertex $-1 $323 $632 #
straight-curve $-1 54.076357310708943 -5.8386205808577953 2.8391851455995507 0 1 0 I I #
coedge $-1 $480 $324 $327 $494 forward $317 $-1 #
coedge $-1 $324 $480 $485 $629 forward $317 $-1 #
vertex $-1 $325 $633 #
straight-curve $-1 13.758345013353811 -15.283100016020601 6.8727657841087364 1 0 0 I I #
straight-curve $-1 -34.517159407023151 -15.283100016020601 64.873034579330309 -0.81915203911291934 0 0.57357644374324357 I I #
edge $-1 $329 -15.283100016020601 $627 -8.0713823074105804 $327 $634 forward 7 unknown #
point $-1 54.076357310708943 -15.283100016020601 6.8727657841087346 #
point $-1 54.076357310708936 -15.283100016020601 2.8391851455995507 #
edge $-1 $635 1 $635 0 $332 $-1 forward 7 unknown #
vertex $-1 $333 $636 #
ellipse-curve $-1 48.959191926474531 -11.677241161715591 1.6613650100013366 0.57357644374324357 0 0.81915203911291934 1.228728058669379 0 -0.86036466561486535 1 I I #
point $-1 52.424810350238722 -11.677241161715591 3.9956107992392731 #
loop $-1 $-1 $344 $336 #
plane-surface $-1 0 0 6.8727657841087346 0 0 1 1 0 0 forward_v I I I I #
coedge $-1 $504 $339 $341 $508 reversed $202 $-1 #
coedge $-1 $339 $503 $637 $638 reversed $202 $-1 #
coedge $-1 $347 $342 $339 $506 forward $337 $-1 #
edge $-1 $509 -73.894090502931647 $639 -69.860509864422468 $505 $640 forward 7 unknown #
coedge $-1 $341 $340 $512 $641 reversed $126 $-1 #
edge $-1 $642 101.12038147296174 $509 108.15271462141786 $503 $643 forward 7 unknown #
vertex $-1 $343 $644 #
straight-curve $-1 54.076357310708943 5.2964485032115967 2.8391851455995507 0 1 0 I I #
coedge $-1 $637 $344 $347 $516 forward $501 $-1 #
coedge $-1 $344 $637 $507 $641 forward $501 $-1 #
vertex $-1 $345 $645 #
straight-curve $-1 13.758345013353811 6.987038152118183 6.8727657841087364 1 0 0 I I #
straight-curve $-1 -34.517159407023151 6.987038152118183 64.873034579330309 -0.81915203911291934 0 0.57357644374324357 I I #
edge $-1 $348 6.987038152118183 $639 14.198755860728204 $347 $646 forward 7 unknown #
point $-1 54.076357310708943 6.987038152118183 6.8727657841087346 #
point $-1 54.076357310708936 6.987038152118183 2.8391851455995507 #
edge $-1 $647 1 $647 0 $351 $-1 forward 7 unknown #
vertex $-1 $352 $648 #
ellipse-curve $-1 48.959191926474531 10.592897006423193 1.6613650100013366 0.57357644374324357 0 0.81915203911291934 1.228728058669379 0 -0.86036466561486535 1 I I #
point $-1 52.424810350238722 10.592897006423193 3.9956107992392731 #
loop $-1 $-1 $363 $355 #
plane-surface $-1 0 0 6.8727657841087346 0 0 1 1 0 0 forward_v I I I I #
coedge $-1 $526 $358 $360 $530 reversed $217 $-1 #
coedge $-1 $358 $525 $649 $650 reversed $217 $-1 #
coedge $-1 $366 $361 $358 $528 forward $356 $-1 #
edge $-1 $531 -25.83351576300003 $651 -21.370074314627132 $527 $652 forward 7 unknown #
coedge $-1 $360 $359 $534 $653 reversed $135 $-1 #
edge $-1 $654 -5.1539381974272871 $531 0 $525 $655 forward 7 unknown #
vertex $-1 $362 $656 #
straight-curve $-1 -54.076357310708943 -6.3988349514195999 2.409324335735842 0 -1 0 I I #
coedge $-1 $649 $363 $366 $538 forward $523 $-1 #
coedge $-1 $363 $649 $529 $653 forward $523 $-1 #
vertex $-1 $364 $657 #
straight-curve $-1 -73.869678248835243 -9.138371351348983 6.8727657841087364 -1 0 0 I I #
straight-curve $-1 -54.076357310708943 -9.138371351348983 2.4093243357358389 0.49999998660252726 0 0.86602541151947299 I I #
edge $-1 $367 9.138371351348983 $651 16.456968454329417 $366 $658 forward 7 unknown #
point $-1 -54.076357310708943 -9.138371351348983 6.8727657841087346 #
point $-1 -54.076357310708943 -9.138371351348983 2.4093243357358389 #
edge $-1 $659 1 $659 0 $370 $-1 forward 7 unknown #
vertex $-1 $371 $660 #
ellipse-curve $-1 -51.42176904910071 -14.365940710620722 3.8523247221583392 -0.86602541151947299 0 0.49999998660252726 0.49999998660252726 0 0.86602541151947299 1 I I #
point $-1 -52.287872809274468 -14.365940710620722 5.5070704714417644 #
edge $-1 $661 1 $661 0 $374 $-1 forward 7 unknown #
vertex $-1 $375 $662 #
ellipse-curve $-1 -51.42176904910071 -11.22939909505768 3.8523247221583392 -0.86602541151947299 0 0.49999998660252726 0.49999998660252726 0 0.86602541151947299 1 I I #
point $-1 -52.287872809274468 -11.22939909505768 5.5070704714417644 #
loop $-1 $-1 $386 $378 #
plane-surface $-1 0 0 6.8727657841087346 0 0 1 1 0 0 forward_v I I I I #
coedge $-1 $552 $381 $383 $556 reversed $239 $-1 #
coedge $-1 $381 $551 $663 $664 reversed $239 $-1 #
coedge $-1 $389 $384 $381 $554 forward $379 $-1 #
edge $-1 $557 -25.83351576300003 $665 -21.370074314627132 $553 $666 forward 7 unknown #
coedge $-1 $383 $382 $560 $667 reversed $149 $-1 #
edge $-1 $668 -5.1539381974272871 $557 0 $551 $669 forward 7 unknown #
vertex $-1 $385 $670 #
straight-curve $-1 -54.076357310708943 6.3988349514196017 2.409324335735842 0 -1 0 I I #
coedge $-1 $663 $386 $389 $564 forward $549 $-1 #
coedge $-1 $386 $663 $555 $667 forward $549 $-1 #
vertex $-1 $387 $671 #
straight-curve $-1 -73.869678248835243 16.45696845432942 6.8727657841087364 -1 0 0 I I #
straight-curve $-1 -54.076357310708943 16.45696845432942 2.4093243357358389 0.49999998660252726 0 0.86602541151947299 I I #
edge $-1 $390 -16.45696845432942 $665 -9.1383713513489866 $389 $672 forward 7 unknown #
point $-1 -54.076357310708943 16.45696845432942 6.8727657841087346 #
point $-1 -54.076357310708943 16.45696845432942 2.4093243357358389 #
edge $-1 $673 1 $673 0 $393 $-1 forward 7 unknown #
vertex $-1 $394 $674 #
ellipse-curve $-1 -51.42176904910071 11.22939909505768 3.8523247221583392 -0.86602541151947299 0 0.49999998660252726 0.49999998660252726 0 0.86602541151947299 1 I I #
point $-1 -52.287872809274468 11.22939909505768 5.5070704714417644 #
edge $-1 $675 1 $675 0 $397 $-1 forward 7 unknown #
vertex $-1 $398 $676 #
ellipse-curve $-1 -51.42176904910071 14.36594071062072 3.8523247221583392 -0.86602541151947299 0 0.49999998660252726 0.49999998660252726 0 0.86602541151947299 1 I I #
point $-1 -52.287872809274468 14.36594071062072 5.5070704714417644 #
plane-surface $-1 54.076357310708943 0 0 -1 0 0 0 0 1 forward_v I I I I #
coedge $-1 $406 $404 $408 $580 reversed $261 $-1 #
edge $-1 $419 -6.8727657841087346 $582 6.8727657841087346 $418 $677 forward 7 unknown #
vertex $-1 $580 $678 #
straight-curve $-1 -54.076357310708943 -26.929091854053226 0 0 0 -1 I I #
edge $-1 $578 -26.929091854053226 $582 26.929091854053226 $576 $679 forward 7 unknown #
straight-curve $-1 0 -26.929091854053226 -6.8727657841087346 -1 0 0 I I #
vertex $-1 $411 $680 #
straight-curve $-1 0 26.929091854053226 -6.8727657841087346 1 0 0 I I #
point $-1 54.076357310708943 26.929091854053226 -6.8727657841087346 #
point $-1 54.076357310708943 -26.929091854053226 -6.8727657841087346 #
straight-curve $-1 -54.076357310708943 0 6.8727657841087346 0 -1 0 I I #
point $-1 -54.076357310708943 26.929091854053226 6.8727657841087346 #
point $-1 -54.076357310708943 -26.929091854053226 6.8727657841087346 #
straight-curve $-1 54.076357310708943 -26.929091854053226 0 0 0 -1 I I #
straight-curve $-1 54.076357310708943 26.929091854053226 0 0 0 -1 I I #
plane-surface $-1 54.076357310708943 0 0 -1 0 0 0 0 1 forward_v I I I I #
coedge $-1 $595 $431 $442 $604 forward $280 $-1 #
coedge $-1 $431 $595 $445 $606 reversed $280 $-1 #
straight-curve $-1 54.076357310708943 -22.270138168138786 1.0646311063614773 0 0 1 I I #
coedge $-1 $593 $592 $434 $596 forward $280 $-1 #
edge $-1 $599 9.9703306625907828 $597 14.629284348505223 $595 $681 forward 7 unknown #
vertex $-1 $436 $682 #
straight-curve $-1 0 -26.929091854053226 0.31262621514172473 1 0 0 I I #
vertex $-1 $596 $683 #
straight-curve $-1 0 -22.270138168138786 0.31262621514172473 1 0 0 I I #
point $-1 54.076357310708943 -26.929091854053226 0.31262621514172473 #
point $-1 54.076357310708943 -22.270138168138786 0.31262621514172473 #
straight-curve $-1 -54.076357310708943 -12.299807505548003 3.9458982103041844 0 1 0 I I #
edge $-1 $443 -2.8812671039427071 $599 0.75200489121975256 $592 $684 forward 7 unknown #
point $-1 -54.076357310708943 -22.270138168138786 3.9458982103041844 #
edge $-1 $447 -3.9458982103041844 $597 -0.31262621514172473 $593 $685 forward 7 unknown #
point $-1 -54.076357310708943 -26.929091854053226 3.9458982103041844 #
straight-curve $-1 54.076357310708943 -26.929091854053226 0 0 0 -1 I I #
plane-surface $-1 0 26.929091854053226 0 0 -1 0 0 0 -1 forward_v I I I I #
coedge $-1 $456 $619 $458 $613 forward $453 $-1 #
vertex $-1 $613 $686 #
straight-curve $-1 -54.076357310708943 22.270138168138786 1.0646311063614773 0 0 1 I I #
edge $-1 $615 -14.629284348505223 $611 -9.9703306625907828 $610 $687 forward 7 unknown #
straight-curve $-1 0 22.270138168138786 0.31262621514172473 -1 0 0 I I #
vertex $-1 $461 $688 #
straight-curve $-1 0 26.929091854053226 0.31262621514172473 -1 0 0 I I #
point $-1 54.076357310708943 22.270138168138786 0.31262621514172473 #
point $-1 54.076357310708943 26.929091854053226 0.31262621514172473 #
coedge $-1 $610 $465 $468 $621 forward $453 $-1 #
straight-curve $-1 -54.076357310708943 12.299807505548003 3.9458982103041844 0 1 0 I I #
edge $-1 $470 -3.9458982103041844 $615 -0.31262621514172473 $468 $689 forward 7 unknown #
point $-1 -54.076357310708943 26.929091854053226 3.9458982103041844 #
point $-1 -54.076357310708943 22.270138168138786 3.9458982103041844 #
straight-curve $-1 54.076357310708943 22.270138168138786 1.0646311063614773 0 0 -1 I I #
straight-curve $-1 54.076357310708943 26.929091854053226 0 0 0 -1 I I #
edge $-1 $627 -40.318012297355132 $630 -34.557462259075919 $480 $690 forward 7 unknown #
vertex $-1 $626 $691 #
straight-curve $-1 54.076357310708943 -8.0713823074105804 76.733275648531205 0 0 1 I I #
edge $-1 $630 2.232761726552785 $491 9.4444794351628047 $490 $692 forward 7 unknown #
vertex $-1 $629 $693 #
straight-curve $-1 -34.517159407023151 -8.0713823074105804 64.873034579330309 0.81915203911291934 0 -0.57357644374324357 I I #
point $-1 54.076357310708936 -8.0713823074105804 2.8391851455995507 #
point $-1 48.31580727242973 -15.283100016020601 6.8727657841087435 #
straight-curve $-1 54.076357310708943 0 6.8727657841087346 0 1 0 I I #
vertex $-1 $497 $694 #
point $-1 50.187919985143907 -11.677241161715591 0.80100034438647127 #
coedge $-1 $512 $511 $504 $638 forward $501 $-1 #
edge $-1 $639 -40.318012297355132 $642 -34.557462259075919 $637 $695 forward 7 unknown #
vertex $-1 $638 $696 #
straight-curve $-1 54.076357310708943 14.198755860728204 76.733275648531205 0 0 1 I I #
edge $-1 $642 -8.902307357516607 $513 -1.6905896489065864 $512 $697 forward 7 unknown #
vertex $-1 $641 $698 #
straight-curve $-1 -34.517159407023151 14.198755860728204 64.873034579330309 0.81915203911291934 0 -0.57357644374324357 I I #
point $-1 54.076357310708936 14.198755860728204 2.8391851455995507 #
point $-1 48.31580727242973 6.987038152118183 6.8727657841087435 #
straight-curve $-1 54.076357310708943 0 6.8727657841087346 0 1 0 I I #
vertex $-1 $519 $699 #
point $-1 50.187919985143907 10.592897006423193 0.80100034438647127 #
coedge $-1 $534 $533 $526 $650 forward $523 $-1 #
edge $-1 $651 19.7933209381263 $654 22.3702899677902 $649 $700 forward 7 unknown #
vertex $-1 $650 $701 #
straight-curve $-1 -54.076357310708943 -16.456968454329417 28.242840098735869 0 0 1 I I #
edge $-1 $654 -10.058133502909817 $535 -2.7395363999293831 $534 $702 forward 7 unknown #
vertex $-1 $653 $703 #
straight-curve $-1 -54.076357310708943 -16.456968454329417 2.4093243357358389 -0.49999998660252726 0 -0.86602541151947299 I I #
point $-1 -54.076357310708943 -16.456968454329417 2.4093243357358389 #
point $-1 -51.499388281045043 -9.138371351348983 6.8727657841087346 #
straight-curve $-1 -54.076357310708943 0 6.8727657841087346 0 -1 0 I I #
vertex $-1 $541 $704 #
point $-1 -50.921769062498186 -14.365940710620722 4.718350133677812 #
vertex $-1 $545 $705 #
point $-1 -50.921769062498186 -11.22939909505768 4.718350133677812 #
coedge $-1 $560 $559 $552 $664 forward $549 $-1 #
edge $-1 $665 19.7933209381263 $668 22.3702899677902 $663 $706 forward 7 unknown #
vertex $-1 $664 $707 #
straight-curve $-1 -54.076357310708943 9.1383713513489866 28.242840098735869 0 0 1 I I #
edge $-1 $668 2.7395363999293849 $561 10.058133502909818 $560 $708 forward 7 unknown #
vertex $-1 $667 $709 #
straight-curve $-1 -54.076357310708943 9.1383713513489866 2.4093243357358389 -0.49999998660252726 0 -0.86602541151947299 I I #
point $-1 -54.076357310708943 9.1383713513489866 2.4093243357358389 #
point $-1 -51.499388281045043 16.45696845432942 6.8727657841087346 #
straight-curve $-1 -54.076357310708943 0 6.8727657841087346 0 -1 0 I I #
vertex $-1 $567 $710 #
point $-1 -50.921769062498186 11.22939909505768 4.718350133677812 #
vertex $-1 $571 $711 #
point $-1 -50.921769062498186 14.36594071062072 4.718350133677812 #
straight-curve $-1 -54.076357310708943 26.929091854053226 0 0 0 -1 I I #
point $-1 -54.076357310708943 -26.929091854053226 -6.8727657841087346 #
straight-curve $-1 -54.076357310708943 0 -6.8727657841087346 0 1 0 I I #
point $-1 -54.076357310708943 26.929091854053226 -6.8727657841087346 #
straight-curve $-1 -54.076357310708943 -12.299807505548003 0.31262621514172473 0 -1 0 I I #
point $-1 -54.076357310708943 -26.929091854053226 0.31262621514172473 #
point $-1 -54.076357310708943 -22.270138168138786 0.31262621514172473 #
straight-curve $-1 -54.076357310708943 -22.270138168138786 1.0646311063614773 0 0 -1 I I #
straight-curve $-1 -54.076357310708943 -26.929091854053226 0 0 0 -1 I I #
point $-1 -54.076357310708943 22.270138168138786 0.31262621514172473 #
straight-curve $-1 -54.076357310708943 12.299807505548003 0.31262621514172473 0 -1 0 I I #
point $-1 -54.076357310708943 26.929091854053226 0.31262621514172473 #
straight-curve $-1 -54.076357310708943 26.929091854053226 0 0 0 -1 I I #
straight-curve $-1 13.758345013353811 -8.0713823074105804 6.8727657841087364 -1 0 0 I I #
point $-1 54.076357310708943 -8.0713823074105804 6.8727657841087346 #
straight-curve $-1 48.315807272429723 -5.8386205808577953 6.8727657841087435 0 -1 0 I I #
point $-1 48.31580727242973 -8.0713823074105804 6.8727657841087435 #
point $-1 48.098827260859665 -11.677241161715591 0.43263695133195768 #
straight-curve $-1 13.758345013353811 14.198755860728204 6.8727657841087364 -1 0 0 I I #
point $-1 54.076357310708943 14.198755860728204 6.8727657841087346 #
straight-curve $-1 48.315807272429723 5.2964485032115967 6.8727657841087435 0 -1 0 I I #
point $-1 48.31580727242973 14.198755860728204 6.8727657841087435 #
point $-1 48.098827260859665 10.592897006423193 0.43263695133195768 #
straight-curve $-1 -73.869678248835243 -16.456968454329417 6.8727657841087364 1 0 0 I I #
point $-1 -54.076357310708943 -16.456968454329417 6.8727657841087346 #
straight-curve $-1 -51.499388281045043 -6.3988349514195999 6.8727657841087346 0 1 0 I I #
point $-1 -51.499388281045043 -16.456968454329417 6.8727657841087346 #
point $-1 -50.555743637581237 -14.365940710620722 3.3523247355558117 #
point $-1 -50.555743637581237 -11.22939909505768 3.3523247355558117 #
straight-curve $-1 -73.869678248835243 9.1383713513489866 6.8727657841087364 1 0 0 I I #
point $-1 -54.076357310708943 9.1383713513489866 6.8727657841087346 #
straight-curve $-1 -51.499388281045043 6.3988349514196017 6.8727657841087346 0 1 0 I I #
point $-1 -51.499388281045043 9.1383713513489866 6.8727657841087346 #
point $-1 -50.555743637581237 11.22939909505768 3.3523247355558117 #
point $-1 -50.555743637581237 14.36594071062072 3.3523247355558117 #
End-of-ACIS-data 