500 0 14 0           
7 Unknown 11 ACIS 5.0 NT 24 Thu Mar 25 21:16:54 1999 
-1 9.9999999999999995e-007 1e-010 
body $-1 $14 $-1 $15 #
body $-1 $16 $-1 $17 #
body $-1 $18 $-1 $19 #
body $-1 $20 $-1 $21 #
body $-1 $22 $-1 $23 #
body $-1 $24 $-1 $25 #
body $-1 $26 $-1 $27 #
body $-1 $28 $-1 $29 #
body $-1 $30 $-1 $31 #
body $-1 $32 $-1 $33 #
body $-1 $34 $-1 $35 #
body $-1 $36 $-1 $37 #
body $-1 $38 $-1 $39 #
body $-1 $40 $-1 $41 #
lump $-1 $-1 $42 $0 #
transform $-1 1 0 0 0 1 0 0 0 1 43.310647907956174 18.1137562180066 8.4890369765488067 1 rotate no_reflect no_shear #
lump $-1 $-1 $43 $1 #
transform $-1 1 0 0 0 1 0 0 0 1 43.310647907956174 18.1137562180066 8.4890369765488067 1 rotate no_reflect no_shear #
lump $-1 $-1 $44 $2 #
transform $-1 1 0 0 0 1 0 0 0 1 43.310647907956174 18.1137562180066 8.4890369765488067 1 rotate no_reflect no_shear #
lump $-1 $-1 $45 $3 #
transform $-1 1 0 0 0 1 0 0 0 1 43.310647907956174 18.1137562180066 8.4890369765488067 1 rotate no_reflect no_shear #
lump $-1 $-1 $46 $4 #
transform $-1 1 0 0 0 1 0 0 0 1 43.310647907956174 18.1137562180066 8.4890369765488067 1 rotate no_reflect no_shear #
lump $-1 $-1 $47 $5 #
transform $-1 1 0 0 0 1 0 0 0 1 43.310647907956174 18.1137562180066 8.4890369765488067 1 rotate no_reflect no_shear #
lump $-1 $-1 $48 $6 #
transform $-1 1 0 0 0 1 0 0 0 1 43.310647907956174 18.1137562180066 8.4890369765488067 1 rotate no_reflect no_shear #
lump $-1 $-1 $49 $7 #
transform $-1 1 0 0 0 1 0 0 0 1 43.310647907956174 18.1137562180066 8.4890369765488067 1 rotate no_reflect no_shear #
lump $-1 $-1 $50 $8 #
transform $-1 1 0 0 0 1 0 0 0 1 43.310647907956174 18.1137562180066 8.4890369765488067 1 rotate no_reflect no_shear #
lump $-1 $-1 $51 $9 #
transform $-1 1 0 0 0 1 0 0 0 1 43.310647907956174 18.1137562180066 8.4890369765488067 1 rotate no_reflect no_shear #
lump $-1 $-1 $52 $10 #
transform $-1 1 0 0 0 1 0 0 0 1 43.310647907956174 18.1137562180066 8.4890369765488067 1 rotate no_reflect no_shear #
lump $-1 $-1 $53 $11 #
transform $-1 1 0 0 0 1 0 0 0 1 43.310647907956174 18.1137562180066 8.4890369765488067 1 rotate no_reflect no_shear #
lump $-1 $-1 $54 $12 #
transform $-1 1 0 0 0 1 0 0 0 1 43.310647907956174 18.1137562180066 8.4890369765488067 1 rotate no_reflect no_shear #
lump $-1 $-1 $55 $13 #
transform $-1 1 0 0 0 1 0 0 0 1 43.310647907956174 18.1137562180066 8.4890369765488067 1 rotate no_reflect no_shear #
shell $-1 $-1 $-1 $56 $-1 $14 #
shell $-1 $-1 $-1 $57 $-1 $16 #
shell $-1 $-1 $-1 $58 $-1 $18 #
shell $-1 $-1 $-1 $59 $-1 $20 #
shell $-1 $-1 $-1 $60 $-1 $22 #
shell $-1 $-1 $-1 $61 $-1 $24 #
shell $-1 $-1 $-1 $62 $-1 $26 #
shell $-1 $-1 $-1 $63 $-1 $28 #
shell $-1 $-1 $-1 $64 $-1 $30 #
shell $-1 $-1 $-1 $65 $-1 $32 #
shell $-1 $-1 $-1 $66 $-1 $34 #
shell $-1 $-1 $-1 $67 $-1 $36 #
shell $-1 $-1 $-1 $68 $-1 $38 #
shell $-1 $-1 $-1 $69 $-1 $40 #
face $-1 $70 $71 $42 $-1 $72 forward single #
face $-1 $73 $74 $43 $-1 $75 forward single #
face $-1 $76 $77 $44 $-1 $78 reversed single #
face $-1 $79 $80 $45 $-1 $81 forward single #
face $-1 $82 $83 $46 $-1 $84 forward single #
face $-1 $85 $86 $47 $-1 $87 reversed single #
face $-1 $88 $89 $48 $-1 $90 forward single #
face $-1 $91 $92 $49 $-1 $93 forward single #
face $-1 $94 $95 $50 $-1 $96 reversed single #
face $-1 $97 $98 $51 $-1 $99 forward single #
face $-1 $100 $101 $52 $-1 $102 forward single #
face $-1 $103 $104 $53 $-1 $105 reversed single #
face $-1 $106 $107 $54 $-1 $108 forward single #
face $-1 $109 $110 $55 $-1 $111 forward single #
face $-1 $112 $113 $42 $-1 $114 reversed single #
loop $-1 $-1 $115 $56 #
plane-surface $-1 0 0 8.4890369765488067 0 0 1 1 0 0 forward_v I I I I #
face $-1 $116 $117 $43 $-1 $118 reversed single #
loop $-1 $-1 $119 $57 #
plane-surface $-1 -38.310530774888122 0 -3.8119965231159139 0 0 1 1 0 0 forward_v I I I I #
face $-1 $120 $121 $44 $-1 $122 reversed single #
loop $-1 $-1 $123 $58 #
plane-surface $-1 -5.4332970786653796 -90.76048826945123 47.522255867630065 1 0 0 0 0.83867057594974714 -0.54463902268945019 forward_v I I I I #
face $-1 $124 $125 $45 $-1 $126 forward single #
loop $-1 $127 $128 $59 #
cone-surface $-1 -2.4523215895986823 -13.799091395746283 3.3323119140754489 0 0.83867057594974714 -0.54463902268945019 1 0 0 1 I I 0 1 1 forward I I I I #
face $-1 $129 $130 $46 $-1 $131 forward single #
loop $-1 $132 $133 $60 #
cone-surface $-1 2.0191416440013583 -13.799091395746283 3.3323119140754489 0 0.83867057594974714 -0.54463902268945019 1 0 0 1 I I 0 1 1 forward I I I I #
face $-1 $134 $135 $47 $-1 $136 reversed single #
loop $-1 $-1 $137 $61 #
plane-surface $-1 32.877233696222746 -90.76048826945123 47.522255867630065 1 0 0 0 0.83867057594974714 -0.54463902268945019 forward_v I I I I #
face $-1 $138 $139 $48 $-1 $140 forward single #
loop $-1 $141 $142 $62 #
cone-surface $-1 35.858209185289432 -13.799091395746283 3.3323119140754489 0 0.83867057594974714 -0.54463902268945019 1 0 0 1 I I 0 1 1 forward I I I I #
face $-1 $143 $144 $49 $-1 $145 forward single #
loop $-1 $146 $147 $63 #
cone-surface $-1 40.32967241888948 -13.799091395746283 3.3323119140754489 0 0.83867057594974714 -0.54463902268945019 1 0 0 1 I I 0 1 1 forward I I I I #
face $-1 $148 $149 $50 $-1 $150 reversed single #
loop $-1 $-1 $151 $64 #
plane-surface $-1 -13.819827345344429 42.895482505955925 90.672789957799964 1 0 0 0 -0.61566148304635926 -0.78801074757464917 forward_v I I I I #
face $-1 $152 $153 $51 $-1 $154 forward single #
loop $-1 $155 $156 $65 #
cone-surface $-1 -8.4427003515122934 11.701651421102651 2.9557539099162207 0 -0.61566148304635926 -0.78801074757464917 1 0 0 1 I I 0 1 1 forward I I I I #
face $-1 $157 $158 $52 $-1 $159 forward single #
loop $-1 $160 $161 $66 #
cone-surface $-1 -0.37700986076409038 11.701651421102651 2.9557539099162207 0 -0.61566148304635926 -0.78801074757464917 1 0 0 1 I I 0 1 1 forward I I I I #
face $-1 $162 $163 $53 $-1 $164 reversed single #
loop $-1 $-1 $165 $67 #
plane-surface $-1 -4.4098551061381883 -10.433912939466062 22.414277886018041 0 0.61566148304635926 0.78801074757464917 1 0 0 forward_v I I I I #
face $-1 $166 $167 $54 $-1 $168 forward single #
loop $-1 $169 $170 $68 #
cone-surface $-1 10.37724412690018 11.701651421102651 2.9557539099162207 0 -0.61566148304635926 -0.78801074757464917 1 0 0 1 I I 0 1 1 forward I I I I #
face $-1 $171 $172 $55 $-1 $173 forward single #
loop $-1 $174 $175 $69 #
cone-surface $-1 18.442934617648383 11.701651421102651 2.9557539099162207 0 -0.61566148304635926 -0.78801074757464917 1 0 0 1 I I 0 1 1 forward I I I I #
face $-1 $176 $177 $42 $-1 $178 reversed single #
loop $-1 $-1 $179 $70 #
plane-surface $-1 0 0 -8.4890369765488067 0 0 1 1 0 0 forward_v I I I I #
coedge $-1 $180 $181 $182 $183 forward $71 $-1 #
face $-1 $184 $185 $43 $-1 $186 reversed single #
loop $-1 $-1 $187 $73 #
plane-surface $-1 -33.31041364182007 0 -6.1505167498323603 -1 0 0 0 0 1 forward_v I I I I #
coedge $-1 $188 $189 $190 $191 forward $74 $-1 #
face $-1 $192 $193 $44 $-1 $194 reversed single #
loop $-1 $-1 $195 $76 #
plane-surface $-1 -0.21658997279866554 -18.1137562180066 0.34491797035780536 0 -0.83867057594974714 0.54463902268945019 1 0 0 forward_v I I I I #
coedge $-1 $196 $197 $198 $199 reversed $77 $-1 #
face $-1 $-1 $200 $45 $-1 $201 forward single #
loop $-1 $202 $203 $79 #
cone-surface $-1 -2.4523215895986823 -11.709517561689538 1.975326843352871 0 0.83867057594974714 -0.54463902268945019 0.5 0 0 1 I I -0.70710678118654746 0.70710678118654746 0.5 forward I I I I #
loop $-1 $-1 $204 $59 #
coedge $-1 $128 $128 $205 $206 reversed $80 $-1 #
face $-1 $-1 $207 $46 $-1 $208 forward single #
loop $-1 $209 $210 $82 #
cone-surface $-1 2.0191416440013583 -11.709517561689538 1.975326843352871 0 0.83867057594974714 -0.54463902268945019 0.5 0 0 1 I I -0.70710678118654746 0.70710678118654746 0.5 forward I I I I #
loop $-1 $-1 $211 $60 #
coedge $-1 $133 $133 $212 $213 reversed $83 $-1 #
face $-1 $214 $215 $47 $-1 $216 reversed single #
loop $-1 $-1 $217 $85 #
plane-surface $-1 38.093940802089456 -18.1137562180066 0.34491797035780536 0 -0.83867057594974714 0.54463902268945019 1 0 0 forward_v I I I I #
coedge $-1 $218 $219 $220 $221 reversed $86 $-1 #
face $-1 $-1 $222 $48 $-1 $223 forward single #
loop $-1 $224 $225 $88 #
cone-surface $-1 35.858209185289432 -11.709517561689538 1.975326843352871 0 0.83867057594974714 -0.54463902268945019 0.5 0 0 1 I I -0.70710678118654746 0.70710678118654746 0.5 forward I I I I #
loop $-1 $-1 $226 $62 #
coedge $-1 $142 $142 $227 $228 reversed $89 $-1 #
face $-1 $-1 $229 $49 $-1 $230 forward single #
loop $-1 $231 $232 $91 #
cone-surface $-1 40.32967241888948 -11.709517561689538 1.975326843352871 0 0.83867057594974714 -0.54463902268945019 0.5 0 0 1 I I -0.70710678118654746 0.70710678118654746 0.5 forward I I I I #
loop $-1 $-1 $233 $63 #
coedge $-1 $147 $147 $234 $235 reversed $92 $-1 #
face $-1 $236 $237 $50 $-1 $238 reversed single #
loop $-1 $-1 $239 $94 #
plane-surface $-1 -4.4098551061381883 -10.433912939466062 22.414277886018041 0 0.61566148304635926 0.78801074757464917 1 0 0 forward_v I I I I #
coedge $-1 $240 $241 $242 $243 reversed $95 $-1 #
face $-1 $-1 $244 $51 $-1 $245 forward single #
loop $-1 $246 $247 $97 #
cone-surface $-1 -8.4427003515122934 10.343802852213393 1.217787031479844 0 -0.61566148304635926 -0.78801074757464917 0.5 0 0 1 I I -0.70710678118654746 0.70710678118654746 0.5 forward I I I I #
loop $-1 $-1 $248 $65 #
coedge $-1 $156 $156 $249 $250 reversed $98 $-1 #
face $-1 $-1 $251 $52 $-1 $252 forward single #
loop $-1 $253 $254 $100 #
cone-surface $-1 -0.37700986076409038 10.343802852213393 1.217787031479844 0 -0.61566148304635926 -0.78801074757464917 0.5 0 0 1 I I -0.70710678118654746 0.70710678118654746 0.5 forward I I I I #
loop $-1 $-1 $255 $66 #
coedge $-1 $161 $161 $256 $257 reversed $101 $-1 #
face $-1 $258 $259 $53 $-1 $260 reversed single #
loop $-1 $-1 $261 $103 #
plane-surface $-1 23.820061611480526 42.895482505955925 90.672789957799964 -1 0 0 0 0.61566148304635926 0.78801074757464917 forward_v I I I I #
coedge $-1 $262 $263 $264 $265 reversed $104 $-1 #
face $-1 $-1 $266 $54 $-1 $267 forward single #
loop $-1 $268 $269 $106 #
cone-surface $-1 10.37724412690018 10.343802852213393 1.217787031479844 0 -0.61566148304635926 -0.78801074757464917 0.5 0 0 1 I I -0.70710678118654746 0.70710678118654746 0.5 forward I I I I #
loop $-1 $-1 $270 $68 #
coedge $-1 $170 $170 $271 $272 reversed $107 $-1 #
face $-1 $-1 $273 $55 $-1 $274 forward single #
loop $-1 $275 $276 $109 #
cone-surface $-1 18.442934617648383 10.343802852213393 1.217787031479844 0 -0.61566148304635926 -0.78801074757464917 0.5 0 0 1 I I -0.70710678118654746 0.70710678118654746 0.5 forward I I I I #
loop $-1 $-1 $277 $69 #
coedge $-1 $175 $175 $278 $279 reversed $110 $-1 #
face $-1 $280 $281 $42 $-1 $282 reversed single #
loop $-1 $-1 $283 $112 #
plane-surface $-1 0 -18.1137562180066 0 0 1 0 0 0 1 forward_v I I I I #
coedge $-1 $284 $285 $286 $287 forward $113 $-1 #
coedge $-1 $288 $115 $289 $290 forward $71 $-1 #
coedge $-1 $115 $288 $291 $292 forward $71 $-1 #
coedge $-1 $293 $294 $115 $183 reversed $295 $-1 #
edge $-1 $296 -18.1137562180066 $297 18.1137562180066 $182 $298 forward 7 unknown #
face $-1 $299 $300 $43 $-1 $301 reversed single #
loop $-1 $-1 $302 $116 #
plane-surface $-1 0 0 -8.4890369765488067 0 0 1 1 0 0 forward_v I I I I #
coedge $-1 $303 $190 $304 $305 reversed $117 $-1 #
coedge $-1 $306 $119 $307 $308 reversed $74 $-1 #
coedge $-1 $119 $306 $309 $310 reversed $74 $-1 #
coedge $-1 $187 $311 $119 $191 reversed $117 $-1 #
edge $-1 $312 -18.1137562180066 $313 18.1137562180066 $190 $314 forward 7 unknown #
face $-1 $315 $316 $44 $-1 $317 forward single #
loop $-1 $-1 $318 $120 #
plane-surface $-1 5.0001171330680485 -90.76048826945123 47.522255867630065 -1 0 0 0 -0.83867057594974714 0.54463902268945019 forward_v I I I I #
coedge $-1 $319 $320 $321 $322 reversed $121 $-1 #
coedge $-1 $197 $123 $323 $324 reversed $77 $-1 #
coedge $-1 $123 $196 $319 $325 reversed $77 $-1 #
coedge $-1 $321 $326 $123 $199 forward $327 $-1 #
edge $-1 $328 15.272090957266226 $329 23.416209963457227 $198 $330 forward 7 unknown #
loop $-1 $-1 $205 $124 #
plane-surface $-1 -0.21658997279866554 -18.1137562180066 0.34491797035780536 0 -0.83867057594974714 0.54463902268945019 1 0 0 forward_v I I I I #
loop $-1 $-1 $331 $79 #
coedge $-1 $203 $203 $204 $332 reversed $125 $-1 #
coedge $-1 $204 $204 $203 $332 forward $127 $-1 #
coedge $-1 $205 $205 $128 $206 forward $200 $-1 #
edge $-1 $333 1.1900573991213057e-015 $333 6.2831853071796013 $205 $334 forward 7 unknown #
loop $-1 $-1 $212 $129 #
plane-surface $-1 -0.21658997279866554 -18.1137562180066 0.34491797035780536 0 -0.83867057594974714 0.54463902268945019 1 0 0 forward_v I I I I #
loop $-1 $-1 $335 $82 #
coedge $-1 $210 $210 $211 $336 reversed $130 $-1 #
coedge $-1 $211 $211 $210 $336 forward $132 $-1 #
coedge $-1 $212 $212 $133 $213 forward $207 $-1 #
edge $-1 $337 1.1900573991213057e-015 $337 6.2831853071796013 $212 $338 forward 7 unknown #
face $-1 $339 $340 $47 $-1 $341 forward single #
loop $-1 $-1 $220 $134 #
plane-surface $-1 0 -18.1137562180066 0 0 1 0 0 0 1 forward_v I I I I #
coedge $-1 $342 $343 $344 $345 reversed $135 $-1 #
coedge $-1 $219 $137 $346 $347 reversed $86 $-1 #
coedge $-1 $137 $218 $342 $348 reversed $86 $-1 #
coedge $-1 $344 $349 $137 $221 forward $215 $-1 #
edge $-1 $350 15.272090957266226 $351 23.416209963457227 $220 $352 forward 7 unknown #
loop $-1 $-1 $227 $138 #
plane-surface $-1 38.093940802089456 -18.1137562180066 0.34491797035780536 0 -0.83867057594974714 0.54463902268945019 1 0 0 forward_v I I I I #
loop $-1 $-1 $353 $88 #
coedge $-1 $225 $225 $226 $354 reversed $139 $-1 #
coedge $-1 $226 $226 $225 $354 forward $141 $-1 #
coedge $-1 $227 $227 $142 $228 forward $222 $-1 #
edge $-1 $355 1.1900573991213057e-015 $355 6.2831853071796013 $227 $356 forward 7 unknown #
loop $-1 $-1 $234 $143 #
plane-surface $-1 38.093940802089456 -18.1137562180066 0.34491797035780536 0 -0.83867057594974714 0.54463902268945019 1 0 0 forward_v I I I I #
loop $-1 $-1 $357 $91 #
coedge $-1 $232 $232 $233 $358 reversed $144 $-1 #
coedge $-1 $233 $233 $232 $358 forward $146 $-1 #
coedge $-1 $234 $234 $147 $235 forward $229 $-1 #
edge $-1 $359 1.1900573991213057e-015 $359 6.2831853071796013 $234 $360 forward 7 unknown #
face $-1 $361 $362 $50 $-1 $363 reversed single #
loop $-1 $-1 $364 $148 #
plane-surface $-1 5.0001171330680521 42.895482505955925 90.672789957799964 -1 0 0 0 0.61566148304635926 0.78801074757464917 forward_v I I I I #
coedge $-1 $365 $366 $367 $368 reversed $149 $-1 #
coedge $-1 $241 $151 $369 $370 reversed $95 $-1 #
coedge $-1 $151 $240 $365 $371 reversed $95 $-1 #
coedge $-1 $367 $372 $151 $243 forward $373 $-1 #
edge $-1 $374 3.3339850349713629 $375 14.058158974047107 $242 $376 forward 7 unknown #
loop $-1 $-1 $249 $152 #
plane-surface $-1 -4.4098551061381883 -10.433912939466062 22.414277886018041 0 0.61566148304635926 0.78801074757464917 1 0 0 forward_v I I I I #
loop $-1 $-1 $377 $97 #
coedge $-1 $247 $247 $248 $378 reversed $153 $-1 #
coedge $-1 $248 $248 $247 $378 forward $155 $-1 #
coedge $-1 $249 $249 $156 $250 forward $244 $-1 #
edge $-1 $379 -1.3342979344366212e-015 $379 6.2831853071795987 $249 $380 forward 7 unknown #
loop $-1 $-1 $256 $157 #
plane-surface $-1 -4.4098551061381883 -10.433912939466062 22.414277886018041 0 0.61566148304635926 0.78801074757464917 1 0 0 forward_v I I I I #
loop $-1 $-1 $381 $100 #
coedge $-1 $254 $254 $255 $382 reversed $158 $-1 #
coedge $-1 $255 $255 $254 $382 forward $160 $-1 #
coedge $-1 $256 $256 $161 $257 forward $251 $-1 #
edge $-1 $383 -1.3342979344366212e-015 $383 6.2831853071795987 $256 $384 forward 7 unknown #
face $-1 $385 $386 $53 $-1 $387 forward single #
loop $-1 $-1 $388 $162 #
plane-surface $-1 0 18.1137562180066 0 0 -1 0 0 0 -1 forward_v I I I I #
coedge $-1 $389 $390 $391 $392 reversed $163 $-1 #
coedge $-1 $393 $165 $394 $395 reversed $104 $-1 #
coedge $-1 $165 $393 $396 $397 reversed $104 $-1 #
coedge $-1 $398 $399 $165 $265 forward $386 $-1 #
edge $-1 $400 -36.2275124360132 $401 -22.6183402615438 $264 $402 forward 7 unknown #
loop $-1 $-1 $271 $166 #
plane-surface $-1 -4.4098551061381883 -10.433912939466062 22.414277886018041 0 0.61566148304635926 0.78801074757464917 1 0 0 forward_v I I I I #
loop $-1 $-1 $403 $106 #
coedge $-1 $269 $269 $270 $404 reversed $167 $-1 #
coedge $-1 $270 $270 $269 $404 forward $169 $-1 #
coedge $-1 $271 $271 $170 $272 forward $266 $-1 #
edge $-1 $405 -1.3342979344366212e-015 $405 6.2831853071795987 $271 $406 forward 7 unknown #
loop $-1 $-1 $278 $171 #
plane-surface $-1 -4.4098551061381883 -10.433912939466062 22.414277886018041 0 0.61566148304635926 0.78801074757464917 1 0 0 forward_v I I I I #
loop $-1 $-1 $407 $109 #
coedge $-1 $276 $276 $277 $408 reversed $172 $-1 #
coedge $-1 $277 $277 $276 $408 forward $174 $-1 #
coedge $-1 $278 $278 $175 $279 forward $273 $-1 #
edge $-1 $409 -1.3342979344366212e-015 $409 6.2831853071795987 $278 $410 forward 7 unknown #
face $-1 $411 $412 $42 $-1 $413 reversed single #
loop $-1 $-1 $414 $176 #
plane-surface $-1 -43.310647907956174 0 0 1 0 0 0 0 -1 forward_v I I I I #
coedge $-1 $415 $291 $416 $417 forward $177 $-1 #
coedge $-1 $418 $179 $415 $419 forward $113 $-1 #
coedge $-1 $179 $418 $420 $421 forward $113 $-1 #
coedge $-1 $294 $293 $179 $287 reversed $295 $-1 #
edge $-1 $422 -18.1137562180066 $423 18.1137562180066 $286 $424 forward 7 unknown #
coedge $-1 $181 $180 $425 $426 forward $71 $-1 #
coedge $-1 $427 $428 $180 $290 reversed $412 $-1 #
edge $-1 $297 -43.310647907956174 $429 43.310647907956174 $289 $430 forward 7 unknown #
coedge $-1 $283 $431 $181 $292 reversed $177 $-1 #
edge $-1 $432 -43.310647907956174 $296 43.310647907956174 $291 $433 forward 7 unknown #
coedge $-1 $286 $182 $431 $434 forward $295 $-1 #
coedge $-1 $182 $286 $427 $435 reversed $295 $-1 #
loop $-1 $-1 $293 $411 #
vertex $-1 $183 $436 #
vertex $-1 $183 $437 #
straight-curve $-1 43.310647907956174 0 8.4890369765488067 0 1 0 I I #
face $-1 $438 $439 $43 $-1 $440 reversed single #
loop $-1 $-1 $304 $184 #
plane-surface $-1 0 -18.1137562180066 0 0 1 0 0 0 1 forward_v I I I I #
coedge $-1 $441 $442 $303 $443 forward $185 $-1 #
coedge $-1 $311 $187 $302 $443 reversed $117 $-1 #
coedge $-1 $309 $444 $187 $305 forward $300 $-1 #
edge $-1 $445 -5.413778601632627 $312 -0.73673814819973371 $304 $446 forward 7 unknown #
coedge $-1 $189 $188 $447 $448 reversed $74 $-1 #
coedge $-1 $449 $450 $188 $308 forward $451 $-1 #
edge $-1 $452 -24.155382520512113 $313 -14.155148254376009 $307 $453 forward 7 unknown #
coedge $-1 $454 $304 $189 $310 forward $300 $-1 #
edge $-1 $312 14.155148254376009 $455 24.155382520512113 $309 $456 forward 7 unknown #
coedge $-1 $190 $303 $449 $457 reversed $117 $-1 #
vertex $-1 $310 $458 #
vertex $-1 $308 $459 #
straight-curve $-1 -33.31041364182007 0 -3.8119965231159139 0 1 0 I I #
face $-1 $-1 $327 $44 $-1 $460 reversed single #
loop $-1 $-1 $461 $192 #
plane-surface $-1 0 0 8.4890369765488067 0 0 1 1 0 0 forward_v I I I I #
coedge $-1 $462 $463 $464 $465 reversed $193 $-1 #
coedge $-1 $466 $195 $197 $325 forward $121 $-1 #
coedge $-1 $195 $466 $462 $467 forward $121 $-1 #
coedge $-1 $464 $198 $195 $322 forward $327 $-1 #
edge $-1 $329 -5.3250020922660468 $468 5.1084121194673813 $321 $469 forward 7 unknown #
coedge $-1 $470 $471 $196 $324 forward $316 $-1 #
edge $-1 $472 -32.555340469075901 $328 -27.266487916719015 $323 $473 forward 7 unknown #
edge $-1 $329 0 $472 9.7107484627897502 $197 $474 forward 7 unknown #
coedge $-1 $198 $464 $470 $475 reversed $327 $-1 #
loop $-1 $-1 $464 $315 #
vertex $-1 $475 $476 #
vertex $-1 $199 $477 #
straight-curve $-1 -5.4332970786653796 -18.1137562180066 23.761127933815033 0 0 -1 I I #
coedge $-1 $331 $331 $-1 $478 reversed $202 $-1 #
edge $-1 $479 0 $479 6.2831853071796004 $203 $480 forward 7 unknown #
vertex $-1 $206 $481 #
ellipse-curve $-1 -2.4523215895986823 -15.469329941828157 4.4169774734533034 0 -0.83867057594974714 0.54463902268945019 1 0 0 1 I I #
coedge $-1 $335 $335 $-1 $482 reversed $209 $-1 #
edge $-1 $483 0 $483 6.2831853071796004 $210 $484 forward 7 unknown #
vertex $-1 $213 $485 #
ellipse-curve $-1 2.0191416440013583 -15.469329941828157 4.4169774734533034 0 -0.83867057594974714 0.54463902268945019 1 0 0 1 I I #
face $-1 $-1 $486 $47 $-1 $487 reversed single #
loop $-1 $-1 $346 $214 #
plane-surface $-1 0 0 8.4890369765488067 0 0 1 1 0 0 forward_v I I I I #
coedge $-1 $488 $217 $219 $348 forward $135 $-1 #
coedge $-1 $217 $488 $489 $490 reversed $135 $-1 #
coedge $-1 $491 $220 $217 $345 forward $215 $-1 #
edge $-1 $351 13.830263295178018 $492 24.263677506911439 $344 $493 forward 7 unknown #
coedge $-1 $494 $495 $218 $347 forward $340 $-1 #
edge $-1 $496 -32.555340469075901 $350 -27.266487916719015 $346 $497 forward 7 unknown #
edge $-1 $351 0 $496 9.7107484627897502 $219 $498 forward 7 unknown #
coedge $-1 $220 $491 $494 $499 reversed $215 $-1 #
vertex $-1 $499 $500 #
vertex $-1 $221 $501 #
straight-curve $-1 32.877233696222746 -18.1137562180066 23.761127933815033 0 0 -1 I I #
coedge $-1 $353 $353 $-1 $502 reversed $224 $-1 #
edge $-1 $503 0 $503 6.2831853071796004 $225 $504 forward 7 unknown #
vertex $-1 $228 $505 #
ellipse-curve $-1 35.858209185289432 -15.469329941828157 4.4169774734533034 0 -0.83867057594974714 0.54463902268945019 1 0 0 1 I I #
coedge $-1 $357 $357 $-1 $506 reversed $231 $-1 #
edge $-1 $507 0 $507 6.2831853071796004 $232 $508 forward 7 unknown #
vertex $-1 $235 $509 #
ellipse-curve $-1 40.32967241888948 -15.469329941828157 4.4169774734533034 0 -0.83867057594974714 0.54463902268945019 1 0 0 1 I I #
face $-1 $-1 $373 $50 $-1 $510 forward single #
loop $-1 $-1 $511 $236 #
plane-surface $-1 0 18.1137562180066 0 0 -1 0 0 0 -1 forward_v I I I I #
coedge $-1 $512 $513 $514 $515 reversed $237 $-1 #
coedge $-1 $516 $239 $241 $371 forward $149 $-1 #
coedge $-1 $239 $516 $512 $517 forward $149 $-1 #
coedge $-1 $514 $242 $239 $368 forward $373 $-1 #
edge $-1 $375 -11.614899792275335 $518 7.2050446861371462 $367 $519 forward 7 unknown #
coedge $-1 $520 $521 $240 $370 forward $362 $-1 #
edge $-1 $522 -45.226001126318252 $374 -36.847358002351172 $369 $523 forward 7 unknown #
edge $-1 $375 22.6183402615438 $522 36.2275124360132 $241 $524 forward 7 unknown #
coedge $-1 $242 $514 $520 $525 forward $373 $-1 #
loop $-1 $-1 $514 $361 #
vertex $-1 $370 $526 #
vertex $-1 $243 $527 #
straight-curve $-1 -13.819827345344429 21.447741252977963 8.4890369765488032 0 -1 0 I I #
coedge $-1 $377 $377 $-1 $528 reversed $246 $-1 #
edge $-1 $529 0 $529 6.2831853071796004 $247 $530 forward 7 unknown #
vertex $-1 $250 $531 #
ellipse-curve $-1 -8.4427003515122934 12.751669248468726 4.2997154145652683 0 0.61566148304635926 0.78801074757464917 1 0 0 1 I I #
coedge $-1 $381 $381 $-1 $532 reversed $253 $-1 #
edge $-1 $533 0 $533 6.2831853071796004 $254 $534 forward 7 unknown #
vertex $-1 $257 $535 #
ellipse-curve $-1 -0.37700986076409038 12.751669248468726 4.2997154145652683 0 0.61566148304635926 0.78801074757464917 1 0 0 1 I I #
face $-1 $-1 $536 $53 $-1 $537 forward single #
loop $-1 $-1 $398 $258 #
plane-surface $-1 5.0001171330680521 42.895482505955925 90.672789957799964 -1 0 0 0 0.61566148304635926 0.78801074757464917 forward_v I I I I #
coedge $-1 $394 $538 $390 $539 forward $259 $-1 #
coedge $-1 $390 $261 $393 $540 reversed $163 $-1 #
coedge $-1 $261 $389 $388 $539 reversed $163 $-1 #
coedge $-1 $541 $396 $261 $392 forward $536 $-1 #
edge $-1 $542 -14.058158974047107 $543 -3.3339850349713629 $391 $544 forward 7 unknown #
coedge $-1 $263 $262 $389 $540 forward $104 $-1 #
coedge $-1 $545 $388 $262 $395 forward $259 $-1 #
edge $-1 $546 -26.02498916454962 $400 -7.2050446861371462 $394 $547 forward 7 unknown #
coedge $-1 $391 $548 $263 $397 forward $536 $-1 #
edge $-1 $401 7.2050446861371462 $542 26.02498916454962 $396 $549 forward 7 unknown #
coedge $-1 $399 $264 $548 $550 reversed $386 $-1 #
coedge $-1 $264 $398 $545 $551 reversed $386 $-1 #
vertex $-1 $395 $552 #
vertex $-1 $397 $553 #
straight-curve $-1 5.0001171330680521 -10.433912939466062 22.414277886018041 0 -0.78801074757464917 0.61566148304635926 I I #
coedge $-1 $403 $403 $-1 $554 reversed $268 $-1 #
edge $-1 $555 0 $555 6.2831853071796004 $269 $556 forward 7 unknown #
vertex $-1 $272 $557 #
ellipse-curve $-1 10.37724412690018 12.751669248468726 4.2997154145652683 0 0.61566148304635926 0.78801074757464917 1 0 0 1 I I #
coedge $-1 $407 $407 $-1 $558 reversed $275 $-1 #
edge $-1 $559 0 $559 6.2831853071796004 $276 $560 forward 7 unknown #
vertex $-1 $279 $561 #
ellipse-curve $-1 18.442934617648383 12.751669248468726 4.2997154145652683 0 0.61566148304635926 0.78801074757464917 1 0 0 1 I I #
face $-1 $-1 $295 $42 $-1 $562 reversed single #
loop $-1 $-1 $427 $280 #
plane-surface $-1 0 18.1137562180066 0 0 -1 0 0 0 -1 forward_v I I I I #
coedge $-1 $563 $425 $428 $564 forward $281 $-1 #
coedge $-1 $431 $283 $284 $419 reversed $177 $-1 #
coedge $-1 $425 $563 $283 $417 reversed $281 $-1 #
edge $-1 $432 -8.4890369765488067 $565 8.4890369765488067 $416 $566 forward 7 unknown #
coedge $-1 $285 $284 $563 $567 forward $113 $-1 #
edge $-1 $423 -43.310647907956174 $565 43.310647907956174 $415 $568 forward 7 unknown #
coedge $-1 $428 $427 $285 $421 reversed $412 $-1 #
edge $-1 $569 -43.310647907956174 $422 43.310647907956174 $420 $570 forward 7 unknown #
vertex $-1 $287 $571 #
vertex $-1 $434 $572 #
straight-curve $-1 43.310647907956174 0 -8.4890369765488067 0 -1 0 I I #
coedge $-1 $414 $416 $288 $426 reversed $281 $-1 #
edge $-1 $429 -18.1137562180066 $432 18.1137562180066 $425 $573 forward 7 unknown #
coedge $-1 $420 $289 $294 $435 forward $412 $-1 #
coedge $-1 $289 $420 $414 $564 reversed $412 $-1 #
vertex $-1 $290 $574 #
straight-curve $-1 0 18.1137562180066 8.4890369765488067 -1 0 0 I I #
coedge $-1 $291 $415 $293 $434 reversed $177 $-1 #
vertex $-1 $426 $575 #
straight-curve $-1 0 -18.1137562180066 8.4890369765488067 1 0 0 I I #
edge $-1 $296 -8.4890369765488067 $423 8.4890369765488067 $293 $576 forward 7 unknown #
edge $-1 $297 -8.4890369765488067 $422 8.4890369765488067 $294 $577 forward 7 unknown #
point $-1 43.310647907956174 -18.1137562180066 8.4890369765488067 #
point $-1 43.310647907956174 18.1137562180066 8.4890369765488067 #
face $-1 $-1 $451 $43 $-1 $578 reversed single #
loop $-1 $-1 $447 $299 #
plane-surface $-1 -43.310647907956174 0 0 1 0 0 0 0 -1 forward_v I I I I #
coedge $-1 $579 $302 $444 $580 forward $185 $-1 #
coedge $-1 $302 $579 $581 $582 forward $185 $-1 #
edge $-1 $583 -18.1137562180066 $445 18.1137562180066 $302 $584 forward 7 unknown #
coedge $-1 $304 $454 $441 $580 reversed $300 $-1 #
vertex $-1 $580 $585 #
straight-curve $-1 -33.31041364182007 -18.1137562180066 -3.0752583749161801 0 0 1 I I #
coedge $-1 $586 $587 $306 $448 forward $439 $-1 #
edge $-1 $455 -18.1137562180066 $452 18.1137562180066 $447 $588 forward 7 unknown #
coedge $-1 $581 $307 $311 $457 forward $451 $-1 #
coedge $-1 $307 $581 $586 $589 reversed $451 $-1 #
loop $-1 $-1 $449 $438 #
vertex $-1 $589 $590 #
straight-curve $-1 -19.155265387444061 18.1137562180066 -3.8119965231159139 1 0 0 I I #
coedge $-1 $444 $309 $587 $591 forward $300 $-1 #
vertex $-1 $591 $592 #
straight-curve $-1 -19.155265387444061 -18.1137562180066 -3.8119965231159139 -1 0 0 I I #
edge $-1 $313 0.73673814819973371 $583 5.413778601632627 $449 $593 forward 7 unknown #
point $-1 -33.31041364182007 -18.1137562180066 -3.8119965231159139 #
point $-1 -33.31041364182007 18.1137562180066 -3.8119965231159139 #
plane-surface $-1 0 -18.1137562180066 0 0 1 0 0 0 1 forward_v I I I I #
coedge $-1 $471 $470 $463 $594 forward $316 $-1 #
coedge $-1 $463 $318 $320 $467 reversed $193 $-1 #
coedge $-1 $318 $462 $461 $594 reversed $193 $-1 #
coedge $-1 $326 $321 $318 $465 forward $327 $-1 #
edge $-1 $468 -23.416209963457227 $595 -15.272090957266226 $464 $596 forward 7 unknown #
coedge $-1 $320 $319 $471 $597 reversed $121 $-1 #
edge $-1 $598 -9.7107484627897502 $468 0 $462 $599 forward 7 unknown #
vertex $-1 $322 $600 #
straight-curve $-1 -0.10829498639933277 -18.1137562180066 0.34491797035780403 1 0 0 I I #
coedge $-1 $461 $323 $326 $475 forward $316 $-1 #
coedge $-1 $323 $461 $466 $597 forward $316 $-1 #
vertex $-1 $324 $601 #
straight-curve $-1 -5.4332970786653796 -45.380244134725615 8.4890369765488067 0 -1 0 I I #
straight-curve $-1 -5.4332970786653796 -18.1137562180066 0.34491797035780536 0 0.54463902268945019 0.83867057594974714 I I #
edge $-1 $328 -5.4332970786653796 $595 5.0001171330680485 $326 $602 forward 7 unknown #
point $-1 -5.4332970786653796 -18.1137562180066 8.4890369765488067 #
point $-1 -5.4332970786653796 -18.1137562180066 0.34491797035780536 #
edge $-1 $603 1 $603 0 $331 $-1 forward 7 unknown #
vertex $-1 $332 $604 #
ellipse-curve $-1 -2.4523215895986823 -12.128852849664412 2.2476463546975962 0 -0.83867057594974714 0.54463902268945019 1 0 0 1 I I #
point $-1 -1.4523215895986823 -15.469329941828153 4.4169774734533025 #
edge $-1 $605 1 $605 0 $335 $-1 forward 7 unknown #
vertex $-1 $336 $606 #
ellipse-curve $-1 2.0191416440013583 -12.128852849664412 2.2476463546975962 0 -0.83867057594974714 0.54463902268945019 1 0 0 1 I I #
point $-1 3.0191416440013583 -15.469329941828153 4.4169774734533025 #
loop $-1 $-1 $489 $339 #
plane-surface $-1 43.310647907956174 0 0 -1 0 0 0 0 1 forward_v I I I I #
coedge $-1 $343 $342 $495 $607 reversed $135 $-1 #
coedge $-1 $608 $609 $343 $490 forward $486 $-1 #
edge $-1 $492 -4.7880929654773334 $610 4.9226554973124159 $489 $611 forward 7 unknown #
coedge $-1 $349 $344 $609 $612 reversed $215 $-1 #
vertex $-1 $345 $613 #
straight-curve $-1 19.046970401044728 -18.1137562180066 0.34491797035780403 1 0 0 I I #
coedge $-1 $614 $346 $349 $499 forward $340 $-1 #
coedge $-1 $346 $614 $488 $607 forward $340 $-1 #
vertex $-1 $347 $615 #
straight-curve $-1 32.877233696222746 -45.380244134725615 8.4890369765488067 0 -1 0 I I #
straight-curve $-1 32.877233696222746 -18.1137562180066 0.34491797035780536 0 0.54463902268945019 0.83867057594974714 I I #
edge $-1 $350 32.877233696222746 $616 43.310647907956174 $349 $617 forward 7 unknown #
point $-1 32.877233696222746 -18.1137562180066 8.4890369765488067 #
point $-1 32.877233696222746 -18.1137562180066 0.34491797035780536 #
edge $-1 $618 1 $618 0 $353 $-1 forward 7 unknown #
vertex $-1 $354 $619 #
ellipse-curve $-1 35.858209185289432 -12.128852849664412 2.2476463546975962 0 -0.83867057594974714 0.54463902268945019 1 0 0 1 I I #
point $-1 36.858209185289432 -15.469329941828153 4.4169774734533025 #
edge $-1 $620 1 $620 0 $357 $-1 forward 7 unknown #
vertex $-1 $358 $621 #
ellipse-curve $-1 40.32967241888948 -12.128852849664412 2.2476463546975962 0 -0.83867057594974714 0.54463902268945019 1 0 0 1 I I #
point $-1 41.32967241888948 -15.469329941828153 4.4169774734533025 #
plane-surface $-1 0 0 8.4890369765488067 0 0 1 1 0 0 forward_v I I I I #
coedge $-1 $521 $520 $513 $622 forward $362 $-1 #
coedge $-1 $513 $364 $366 $517 reversed $237 $-1 #
coedge $-1 $364 $512 $511 $622 reversed $237 $-1 #
coedge $-1 $372 $367 $364 $515 forward $373 $-1 #
edge $-1 $518 -14.058158974047107 $623 -3.3339850349713629 $514 $624 forward 7 unknown #
coedge $-1 $366 $365 $521 $625 reversed $149 $-1 #
edge $-1 $626 -36.2275124360132 $518 -22.6183402615438 $512 $627 forward 7 unknown #
vertex $-1 $368 $628 #
straight-curve $-1 -2.2049275530690942 7.3895822789308534 8.4890369765488067 1 0 0 I I #
coedge $-1 $511 $369 $372 $525 reversed $362 $-1 #
coedge $-1 $369 $511 $516 $625 forward $362 $-1 #
vertex $-1 $370 $629 #
straight-curve $-1 -13.819827345344429 18.1137562180066 45.336394978899982 0 0 1 I I #
straight-curve $-1 -13.819827345344429 -10.433912939466062 22.414277886018041 0 0.78801074757464917 -0.61566148304635926 I I #
edge $-1 $623 -5.0001171330680521 $374 13.819827345344429 $520 $630 forward 7 unknown #
point $-1 -13.819827345344429 18.1137562180066 8.4890369765488067 #
point $-1 -13.819827345344429 7.3895822789308561 8.4890369765488067 #
edge $-1 $631 1 $631 0 $377 $-1 forward 7 unknown #
vertex $-1 $378 $632 #
ellipse-curve $-1 -8.4427003515122934 10.651633593736573 1.6117924052671686 0 0.61566148304635926 0.78801074757464917 1 0 0 1 I I #
point $-1 -7.4427003515122934 12.751669248468728 4.2997154145652727 #
edge $-1 $633 1 $633 0 $381 $-1 forward 7 unknown #
vertex $-1 $382 $634 #
ellipse-curve $-1 -0.37700986076409038 10.651633593736573 1.6117924052671686 0 0.61566148304635926 0.78801074757464917 1 0 0 1 I I #
point $-1 0.62299013923590962 12.751669248468728 4.2997154145652727 #
loop $-1 $-1 $391 $385 #
plane-surface $-1 0 0 8.4890369765488067 0 0 1 1 0 0 forward_v I I I I #
coedge $-1 $388 $545 $541 $635 reversed $259 $-1 #
edge $-1 $543 36.847358002351172 $546 45.226001126318252 $388 $636 forward 7 unknown #
edge $-1 $546 -36.2275124360132 $542 -22.6183402615438 $389 $637 forward 7 unknown #
coedge $-1 $548 $391 $538 $635 forward $536 $-1 #
vertex $-1 $392 $638 #
vertex $-1 $635 $639 #
straight-curve $-1 23.820061611480526 21.447741252977963 8.4890369765488032 0 1 0 I I #
coedge $-1 $538 $394 $399 $551 forward $259 $-1 #
vertex $-1 $539 $640 #
straight-curve $-1 -2.2049275530690942 18.1137562180066 0.11039385258173162 -1 0 0 I I #
coedge $-1 $396 $541 $398 $550 forward $536 $-1 #
straight-curve $-1 -2.2049275530690942 7.3895822789308534 8.4890369765488067 1 0 0 I I #
edge $-1 $641 3.3339850349713629 $401 14.058158974047107 $548 $642 forward 7 unknown #
edge $-1 $400 -45.226001126318252 $641 -36.847358002351172 $545 $643 forward 7 unknown #
point $-1 5.0001171330680521 18.1137562180066 0.11039385258172985 #
point $-1 5.0001171330680521 7.3895822789308561 8.4890369765488067 #
edge $-1 $644 1 $644 0 $403 $-1 forward 7 unknown #
vertex $-1 $404 $645 #
ellipse-curve $-1 10.37724412690018 10.651633593736573 1.6117924052671686 0 0.61566148304635926 0.78801074757464917 1 0 0 1 I I #
point $-1 11.37724412690018 12.751669248468728 4.2997154145652727 #
edge $-1 $646 1 $646 0 $407 $-1 forward 7 unknown #
vertex $-1 $408 $647 #
ellipse-curve $-1 18.442934617648383 10.651633593736573 1.6117924052671686 0 0.61566148304635926 0.78801074757464917 1 0 0 1 I I #
point $-1 19.442934617648383 12.751669248468728 4.2997154145652727 #
plane-surface $-1 43.310647907956174 0 0 -1 0 0 0 0 1 forward_v I I I I #
coedge $-1 $416 $414 $418 $567 reversed $281 $-1 #
edge $-1 $429 -8.4890369765488067 $569 8.4890369765488067 $428 $648 forward 7 unknown #
vertex $-1 $567 $649 #
straight-curve $-1 -43.310647907956174 -18.1137562180066 0 0 0 -1 I I #
edge $-1 $565 -18.1137562180066 $569 18.1137562180066 $563 $650 forward 7 unknown #
straight-curve $-1 0 -18.1137562180066 -8.4890369765488067 -1 0 0 I I #
vertex $-1 $421 $651 #
straight-curve $-1 0 18.1137562180066 -8.4890369765488067 1 0 0 I I #
point $-1 43.310647907956174 18.1137562180066 -8.4890369765488067 #
point $-1 43.310647907956174 -18.1137562180066 -8.4890369765488067 #
straight-curve $-1 -43.310647907956174 0 8.4890369765488067 0 -1 0 I I #
point $-1 -43.310647907956174 18.1137562180066 8.4890369765488067 #
point $-1 -43.310647907956174 -18.1137562180066 8.4890369765488067 #
straight-curve $-1 43.310647907956174 -18.1137562180066 0 0 0 -1 I I #
straight-curve $-1 43.310647907956174 18.1137562180066 0 0 0 -1 I I #
plane-surface $-1 0 18.1137562180066 0 0 -1 0 0 0 -1 forward_v I I I I #
coedge $-1 $442 $441 $652 $653 forward $185 $-1 #
edge $-1 $445 33.31041364182007 $654 43.310647907956174 $444 $655 forward 7 unknown #
coedge $-1 $450 $449 $442 $582 reversed $451 $-1 #
edge $-1 $656 -43.310647907956174 $583 -33.31041364182007 $581 $657 forward 7 unknown #
vertex $-1 $457 $658 #
straight-curve $-1 -33.31041364182007 0 -8.4890369765488067 0 -1 0 I I #
point $-1 -33.31041364182007 -18.1137562180066 -8.4890369765488067 #
coedge $-1 $652 $447 $450 $589 forward $439 $-1 #
coedge $-1 $447 $652 $454 $591 reversed $439 $-1 #
straight-curve $-1 -43.310647907956174 0 -3.8119965231159139 0 1 0 I I #
edge $-1 $452 3.8119965231159139 $656 8.4890369765488067 $450 $659 forward 7 unknown #
point $-1 -43.310647907956174 18.1137562180066 -3.8119965231159139 #
edge $-1 $455 3.8119965231159139 $654 8.4890369765488067 $587 $660 forward 7 unknown #
point $-1 -43.310647907956174 -18.1137562180066 -3.8119965231159139 #
straight-curve $-1 -33.31041364182007 18.1137562180066 -3.0752583749161801 0 0 -1 I I #
edge $-1 $595 27.266487916719015 $598 32.555340469075901 $461 $661 forward 7 unknown #
vertex $-1 $465 $662 #
straight-curve $-1 5.0001171330680485 -18.1137562180066 23.761127933815033 0 0 1 I I #
edge $-1 $598 -5.1084121194673813 $472 5.3250020922660468 $471 $663 forward 7 unknown #
vertex $-1 $597 $664 #
straight-curve $-1 5.0001171330680485 -18.1137562180066 0.34491797035780536 0 -0.54463902268945019 -0.83867057594974714 I I #
point $-1 5.0001171330680485 -18.1137562180066 0.34491797035780536 #
point $-1 -5.4332970786653796 -12.82490366564971 8.4890369765488067 #
straight-curve $-1 0 -18.1137562180066 8.4890369765488067 1 0 0 I I #
vertex $-1 $478 $665 #
point $-1 -1.4523215895986823 -12.128852849664412 2.2476463546975962 #
vertex $-1 $482 $666 #
point $-1 3.0191416440013583 -12.128852849664412 2.2476463546975962 #
edge $-1 $610 -24.263677506911439 $496 -13.830263295178018 $495 $667 forward 7 unknown #
coedge $-1 $609 $489 $614 $668 reversed $486 $-1 #
coedge $-1 $489 $608 $491 $612 forward $486 $-1 #
vertex $-1 $490 $669 #
straight-curve $-1 43.310647907956174 -15.505973944742795 4.3605506554156142 0 0.54463902268945019 0.83867057594974714 I I #
edge $-1 $616 -8.4890369765488067 $492 -0.34491797035780536 $609 $670 forward 7 unknown #
point $-1 43.310647907956167 -18.1137562180066 0.34491797035780536 #
coedge $-1 $495 $494 $608 $668 forward $340 $-1 #
point $-1 32.877233696222746 -12.82490366564971 8.4890369765488067 #
vertex $-1 $668 $671 #
straight-curve $-1 0 -18.1137562180066 8.4890369765488067 1 0 0 I I #
vertex $-1 $502 $672 #
point $-1 36.858209185289432 -12.128852849664412 2.2476463546975962 #
vertex $-1 $506 $673 #
point $-1 41.32967241888948 -12.128852849664412 2.2476463546975962 #
edge $-1 $623 36.847358002351172 $626 45.226001126318252 $511 $674 forward 7 unknown #
vertex $-1 $525 $675 #
straight-curve $-1 5.0001171330680521 21.447741252977963 8.4890369765488032 0 1 0 I I #
edge $-1 $626 -7.2050446861371462 $522 11.614899792275335 $521 $676 forward 7 unknown #
vertex $-1 $625 $677 #
straight-curve $-1 5.0001171330680521 -10.433912939466062 22.414277886018041 0 -0.78801074757464917 0.61566148304635926 I I #
point $-1 5.0001171330680521 7.3895822789308561 8.4890369765488067 #
point $-1 -13.819827345344429 18.1137562180066 0.11039385258172985 #
straight-curve $-1 0 18.1137562180066 8.4890369765488067 -1 0 0 I I #
vertex $-1 $528 $678 #
point $-1 -7.4427003515122934 10.651633593736573 1.6117924052671686 #
vertex $-1 $532 $679 #
point $-1 0.62299013923590962 10.651633593736573 1.6117924052671686 #
edge $-1 $543 -23.820061611480526 $641 -5.0001171330680521 $538 $680 forward 7 unknown #
straight-curve $-1 23.820061611480526 18.1137562180066 45.336394978899982 0 0 -1 I I #
straight-curve $-1 23.820061611480526 -10.433912939466062 22.414277886018041 0 -0.78801074757464917 0.61566148304635926 I I #
point $-1 23.820061611480526 7.3895822789308561 8.4890369765488067 #
point $-1 23.820061611480526 18.1137562180066 8.4890369765488067 #
point $-1 23.820061611480526 18.1137562180066 0.11039385258172985 #
vertex $-1 $551 $681 #
straight-curve $-1 5.0001171330680521 21.447741252977963 8.4890369765488032 0 -1 0 I I #
straight-curve $-1 5.0001171330680521 18.1137562180066 45.336394978899982 0 0 1 I I #
vertex $-1 $554 $682 #
point $-1 11.37724412690018 10.651633593736573 1.6117924052671686 #
vertex $-1 $558 $683 #
point $-1 19.442934617648383 10.651633593736573 1.6117924052671686 #
straight-curve $-1 -43.310647907956174 18.1137562180066 0 0 0 -1 I I #
point $-1 -43.310647907956174 -18.1137562180066 -8.4890369765488067 #
straight-curve $-1 -43.310647907956174 0 -8.4890369765488067 0 1 0 I I #
point $-1 -43.310647907956174 18.1137562180066 -8.4890369765488067 #
coedge $-1 $587 $586 $579 $653 reversed $439 $-1 #
edge $-1 $654 -18.1137562180066 $656 18.1137562180066 $652 $684 forward 7 unknown #
vertex $-1 $653 $685 #
straight-curve $-1 0 -18.1137562180066 -8.4890369765488067 -1 0 0 I I #
vertex $-1 $582 $686 #
straight-curve $-1 0 18.1137562180066 -8.4890369765488067 1 0 0 I I #
point $-1 -33.31041364182007 18.1137562180066 -8.4890369765488067 #
straight-curve $-1 -43.310647907956174 18.1137562180066 0 0 0 -1 I I #
straight-curve $-1 -43.310647907956174 -18.1137562180066 0 0 0 -1 I I #
straight-curve $-1 5.0001171330680485 -45.380244134725615 8.4890369765488067 0 1 0 I I #
point $-1 5.0001171330680485 -18.1137562180066 8.4890369765488067 #
straight-curve $-1 -0.10829498639933277 -12.82490366564971 8.4890369765488067 -1 0 0 I I #
point $-1 5.0001171330680485 -12.82490366564971 8.4890369765488067 #
point $-1 -2.4523215895986823 -11.290182273714663 1.7030073320081458 #
point $-1 2.0191416440013583 -11.290182273714663 1.7030073320081458 #
straight-curve $-1 19.046970401044728 -12.82490366564971 8.4890369765488067 -1 0 0 I I #
edge $-1 $616 -18.1137562180066 $610 -12.82490366564971 $608 $687 forward 7 unknown #
point $-1 43.310647907956167 -12.82490366564971 8.4890369765488067 #
straight-curve $-1 43.310647907956174 -18.1137562180066 0 0 0 -1 I I #
point $-1 43.310647907956174 -18.1137562180066 8.4890369765488067 #
point $-1 35.858209185289432 -11.290182273714663 1.7030073320081458 #
point $-1 40.32967241888948 -11.290182273714663 1.7030073320081458 #
straight-curve $-1 5.0001171330680521 18.1137562180066 45.336394978899982 0 0 -1 I I #
point $-1 5.0001171330680521 18.1137562180066 8.4890369765488067 #
straight-curve $-1 -2.2049275530690942 18.1137562180066 0.11039385258173162 -1 0 0 I I #
point $-1 5.0001171330680521 18.1137562180066 0.11039385258172985 #
point $-1 -8.4427003515122934 10.035972110690214 0.82378165769251943 #
point $-1 -0.37700986076409038 10.035972110690214 0.82378165769251943 #
straight-curve $-1 0 18.1137562180066 8.4890369765488067 -1 0 0 I I #
point $-1 5.0001171330680521 18.1137562180066 8.4890369765488067 #
point $-1 10.37724412690018 10.035972110690214 0.82378165769251943 #
point $-1 18.442934617648383 10.035972110690214 0.82378165769251943 #
straight-curve $-1 -43.310647907956174 0 -8.4890369765488067 0 1 0 I I #
point $-1 -43.310647907956174 -18.1137562180066 -8.4890369765488067 #
point $-1 -43.310647907956174 18.1137562180066 -8.4890369765488067 #
straight-curve $-1 43.310647907956174 0 8.4890369765488067 0 1 0 I I #
End-of-ACIS-data 