500 0 4 0           
7 Unknown 11 ACIS 5.0 NT 24 Fri Mar 26 17:34:37 1999 
-1 9.9999999999999995e-007 1e-010 
body $-1 $4 $-1 $5 #
body $-1 $6 $-1 $7 #
body $-1 $8 $-1 $9 #
body $-1 $10 $-1 $11 #
lump $-1 $-1 $12 $0 #
transform $-1 1 0 0 0 1 0 0 0 1 72.955107272560809 39.722872535187371 8.6384852171769833 1 rotate no_reflect no_shear #
lump $-1 $-1 $13 $1 #
transform $-1 1 0 0 0 1 0 0 0 1 72.955107272560809 39.722872535187371 8.6384852171769833 1 rotate no_reflect no_shear #
lump $-1 $-1 $14 $2 #
transform $-1 1 0 0 0 1 0 0 0 1 72.955107272560809 39.722872535187371 8.6384852171769833 1 rotate no_reflect no_shear #
lump $-1 $-1 $15 $3 #
transform $-1 1 0 0 0 1 0 0 0 1 72.955107272560809 39.722872535187371 8.6384852171769833 1 rotate no_reflect no_shear #
shell $-1 $-1 $-1 $16 $-1 $4 #
shell $-1 $-1 $-1 $17 $-1 $6 #
shell $-1 $-1 $-1 $18 $-1 $8 #
shell $-1 $-1 $-1 $19 $-1 $10 #
face $-1 $20 $21 $12 $-1 $22 forward single #
face $-1 $23 $24 $13 $-1 $25 reversed single #
face $-1 $26 $27 $14 $-1 $28 forward single #
face $-1 $29 $30 $15 $-1 $31 reversed single #
face $-1 $32 $33 $12 $-1 $34 reversed single #
loop $-1 $-1 $35 $16 #
plane-surface $-1 0 0 8.6384852171769833 0 0 1 1 0 0 forward_v I I I I #
face $-1 $36 $37 $13 $-1 $38 reversed single #
loop $-1 $-1 $39 $17 #
plane-surface $-1 -59.616816104574809 -49.71228533984479 0 0 1 0 0 0 1 forward_v I I I I #
face $-1 $40 $41 $14 $-1 $42 forward single #
loop $-1 $-1 $43 $18 #
plane-surface $-1 58.560986353303889 30.265870591000052 207.24781555875632 0 -1 0 -0.6560590369687036 0 -0.75470957328743171 forward_v I I I I #
face $-1 $44 $45 $15 $-1 $46 reversed single #
loop $-1 $47 $48 $19 #
cone-surface $-1 67.473346501753355 25.778987711167993 3.502347504933998 -0.6560590369687036 0 -0.75470957328743171 1.1320643599311475 0 -0.9840885554530554 1 I I 0 1 1.5 forward I I I I #
face $-1 $49 $50 $12 $-1 $51 reversed single #
loop $-1 $-1 $52 $20 #
plane-surface $-1 0 0 -8.6384852171769833 0 0 1 1 0 0 forward_v I I I I #
coedge $-1 $53 $54 $55 $56 forward $21 $-1 #
face $-1 $57 $58 $13 $-1 $59 reversed single #
loop $-1 $-1 $60 $23 #
plane-surface $-1 -61.116816104574809 -44.71757893751608 0 1 0 0 0 0 -1 forward_v I I I I #
coedge $-1 $61 $62 $63 $64 forward $24 $-1 #
face $-1 $65 $66 $14 $-1 $67 forward single #
loop $-1 $-1 $68 $26 #
plane-surface $-1 -37.164728485065524 25.778987711167993 97.127979801129968 0.6560590369687036 0 0.75470957328743171 0.75470957328743171 0 -0.6560590369687036 forward_v I I I I #
coedge $-1 $69 $70 $71 $72 reversed $27 $-1 #
face $-1 $73 $74 $15 $-1 $75 forward single #
loop $-1 $76 $77 $29 #
cone-surface $-1 65.661700948543142 25.778987711167993 1.4182877399336409 -0.6560590369687036 0 -0.75470957328743171 0.56603217996557376 0 -0.4920442777265277 1 I I -0.70710678118654757 0.70710678118654757 0.75 forward I I I I #
loop $-1 $-1 $78 $19 #
coedge $-1 $48 $48 $79 $80 reversed $30 $-1 #
face $-1 $81 $82 $12 $-1 $83 reversed single #
loop $-1 $-1 $84 $32 #
plane-surface $-1 0 -39.722872535187371 0 0 1 0 0 0 1 forward_v I I I I #
coedge $-1 $85 $86 $87 $88 forward $33 $-1 #
coedge $-1 $89 $35 $90 $91 forward $21 $-1 #
coedge $-1 $35 $89 $92 $93 forward $21 $-1 #
coedge $-1 $94 $95 $35 $56 reversed $96 $-1 #
edge $-1 $97 -39.722872535187371 $98 39.722872535187371 $55 $99 forward 7 unknown #
face $-1 $100 $101 $13 $-1 $102 reversed single #
loop $-1 $-1 $103 $36 #
plane-surface $-1 -58.116816104574809 -44.71757893751608 0 -1 0 0 0 0 1 forward_v I I I I #
coedge $-1 $104 $105 $106 $107 reversed $37 $-1 #
coedge $-1 $108 $39 $109 $110 reversed $24 $-1 #
coedge $-1 $39 $108 $111 $112 reversed $24 $-1 #
coedge $-1 $105 $104 $39 $64 reversed $37 $-1 #
edge $-1 $113 -8.6384852171769833 $114 8.6384852171769833 $63 $115 forward 7 unknown #
face $-1 $116 $117 $14 $-1 $118 forward single #
loop $-1 $-1 $119 $40 #
plane-surface $-1 58.560986353303889 21.292104831335934 207.24781555875632 0 1 0 0.6560590369687036 0 0.75470957328743171 forward_v I I I I #
coedge $-1 $120 $121 $122 $123 reversed $41 $-1 #
coedge $-1 $70 $43 $121 $124 forward $27 $-1 #
coedge $-1 $43 $69 $125 $126 reversed $27 $-1 #
coedge $-1 $127 $122 $43 $72 forward $117 $-1 #
edge $-1 $128 35.350295105261381 $129 43.674614095908865 $71 $130 forward 7 unknown #
face $-1 $131 $132 $15 $-1 $133 forward single #
loop $-1 $-1 $134 $44 #
plane-surface $-1 58.560986353303889 30.265870591000052 207.24781555875632 0 -1 0 -0.6560590369687036 0 -0.75470957328743171 forward_v I I I I #
loop $-1 $-1 $135 $29 #
coedge $-1 $77 $77 $78 $136 forward $45 $-1 #
coedge $-1 $78 $78 $77 $136 reversed $47 $-1 #
coedge $-1 $79 $79 $48 $80 forward $132 $-1 #
edge $-1 $137 0 $137 6.2831853071796004 $79 $138 forward 7 unknown #
face $-1 $139 $140 $12 $-1 $141 reversed single #
loop $-1 $-1 $142 $49 #
plane-surface $-1 -72.955107272560809 0 0 1 0 0 0 0 -1 forward_v I I I I #
coedge $-1 $143 $92 $144 $145 forward $50 $-1 #
coedge $-1 $146 $52 $143 $147 forward $33 $-1 #
coedge $-1 $52 $146 $148 $149 forward $33 $-1 #
coedge $-1 $95 $94 $52 $88 reversed $96 $-1 #
edge $-1 $150 -39.722872535187371 $151 39.722872535187371 $87 $152 forward 7 unknown #
coedge $-1 $54 $53 $153 $154 forward $21 $-1 #
coedge $-1 $155 $156 $53 $91 reversed $140 $-1 #
edge $-1 $98 -72.955107272560809 $157 72.955107272560809 $90 $158 forward 7 unknown #
coedge $-1 $84 $159 $54 $93 reversed $50 $-1 #
edge $-1 $160 -72.955107272560809 $97 72.955107272560809 $92 $161 forward 7 unknown #
coedge $-1 $87 $55 $159 $162 forward $96 $-1 #
coedge $-1 $55 $87 $155 $163 reversed $96 $-1 #
loop $-1 $-1 $94 $139 #
vertex $-1 $56 $164 #
vertex $-1 $56 $165 #
straight-curve $-1 72.955107272560809 0 8.6384852171769833 0 1 0 I I #
face $-1 $166 $167 $13 $-1 $102 reversed single #
loop $-1 $-1 $106 $57 #
plane-surface $-1 0 -39.722872535187371 0 0 1 0 0 0 1 forward_v I I I I #
coedge $-1 $168 $169 $108 $170 forward $58 $-1 #
coedge $-1 $63 $60 $171 $172 reversed $37 $-1 #
coedge $-1 $60 $63 $173 $174 reversed $37 $-1 #
coedge $-1 $175 $176 $60 $107 forward $101 $-1 #
edge $-1 $177 -8.6384852171769833 $178 8.6384852171769833 $106 $179 forward 7 unknown #
coedge $-1 $62 $61 $103 $170 reversed $24 $-1 #
coedge $-1 $171 $180 $61 $110 forward $181 $-1 #
edge $-1 $182 -1.5 $114 1.5 $61 $183 forward 7 unknown #
coedge $-1 $184 $173 $62 $112 forward $185 $-1 #
edge $-1 $113 -1.5 $186 1.5 $62 $187 forward 7 unknown #
vertex $-1 $174 $188 #
vertex $-1 $172 $189 #
straight-curve $-1 -61.116816104574809 -49.71228533984479 0 0 0 -1 I I #
face $-1 $190 $191 $14 $-1 $192 reversed single #
loop $-1 $-1 $193 $65 #
plane-surface $-1 0 0 8.6384852171769833 0 0 1 1 0 0 forward_v I I I I #
coedge $-1 $194 $195 $193 $196 reversed $66 $-1 #
coedge $-1 $197 $68 $195 $198 reversed $41 $-1 #
coedge $-1 $68 $197 $69 $124 reversed $41 $-1 #
coedge $-1 $71 $193 $68 $123 forward $117 $-1 #
edge $-1 $199 8.4026109757519372 $128 17.376376735416056 $122 $200 forward 7 unknown #
edge $-1 $128 134.88038362037571 $201 145.91021454512162 $69 $202 forward 7 unknown #
coedge $-1 $203 $204 $70 $126 forward $205 $-1 #
edge $-1 $129 94.98542256220118 $201 102.22164281661759 $125 $206 forward 7 unknown #
coedge $-1 $207 $71 $204 $208 forward $117 $-1 #
vertex $-1 $123 $209 #
vertex $-1 $208 $210 #
straight-curve $-1 29.280493176651945 30.265870591000052 8.6384852171769779 1 0 0 I I #
face $-1 $211 $212 $15 $-1 $213 forward single #
loop $-1 $214 $79 $73 #
plane-surface $-1 -37.164728485065524 25.778987711167993 97.127979801129968 0.6560590369687036 0 0.75470957328743171 0.75470957328743171 0 -0.6560590369687036 forward_v I I I I #
coedge $-1 $215 $216 $217 $218 reversed $74 $-1 #
coedge $-1 $135 $135 $-1 $219 forward $76 $-1 #
edge $-1 $220 0 $220 6.2831853071796004 $77 $221 forward 7 unknown #
vertex $-1 $80 $222 #
ellipse-curve $-1 68.792947777237046 25.778987711167993 5.0203750899687858 -0.6560590369687036 0 -0.75470957328743171 1.1320643599311475 0 -0.9840885554530554 1 I I #
face $-1 $-1 $96 $12 $-1 $223 reversed single #
loop $-1 $-1 $155 $81 #
plane-surface $-1 0 39.722872535187371 0 0 -1 0 0 0 -1 forward_v I I I I #
coedge $-1 $224 $153 $156 $225 forward $82 $-1 #
coedge $-1 $159 $84 $85 $147 reversed $50 $-1 #
coedge $-1 $153 $224 $84 $145 reversed $82 $-1 #
edge $-1 $160 -8.6384852171769833 $226 8.6384852171769833 $144 $227 forward 7 unknown #
coedge $-1 $86 $85 $224 $228 forward $33 $-1 #
edge $-1 $151 -72.955107272560809 $226 72.955107272560809 $143 $229 forward 7 unknown #
coedge $-1 $156 $155 $86 $149 reversed $140 $-1 #
edge $-1 $230 -72.955107272560809 $150 72.955107272560809 $148 $231 forward 7 unknown #
vertex $-1 $88 $232 #
vertex $-1 $162 $233 #
straight-curve $-1 72.955107272560809 0 -8.6384852171769833 0 -1 0 I I #
coedge $-1 $142 $144 $89 $154 reversed $82 $-1 #
edge $-1 $157 -39.722872535187371 $160 39.722872535187371 $153 $234 forward 7 unknown #
coedge $-1 $148 $90 $95 $163 forward $140 $-1 #
coedge $-1 $90 $148 $142 $225 reversed $140 $-1 #
vertex $-1 $91 $235 #
straight-curve $-1 0 39.722872535187371 8.6384852171769833 -1 0 0 I I #
coedge $-1 $92 $143 $94 $162 reversed $50 $-1 #
vertex $-1 $154 $236 #
straight-curve $-1 0 -39.722872535187371 8.6384852171769833 1 0 0 I I #
edge $-1 $97 -8.6384852171769833 $151 8.6384852171769833 $94 $237 forward 7 unknown #
edge $-1 $98 -8.6384852171769833 $150 8.6384852171769833 $95 $238 forward 7 unknown #
point $-1 72.955107272560809 -39.722872535187371 8.6384852171769833 #
point $-1 72.955107272560809 39.722872535187371 8.6384852171769833 #
face $-1 $239 $185 $13 $-1 $240 forward single #
loop $-1 $-1 $241 $100 #
coedge $-1 $242 $103 $180 $243 reversed $58 $-1 #
coedge $-1 $103 $242 $184 $244 reversed $58 $-1 #
edge $-1 $186 -8.6384852171769833 $182 8.6384852171769833 $103 $245 forward 7 unknown #
coedge $-1 $246 $109 $104 $172 forward $181 $-1 #
edge $-1 $114 -4.9947064023287098 $177 4.9947064023287098 $104 $247 forward 7 unknown #
coedge $-1 $111 $248 $105 $174 forward $185 $-1 #
edge $-1 $178 -4.9947064023287098 $113 4.9947064023287098 $105 $249 forward 7 unknown #
coedge $-1 $250 $106 $248 $251 reversed $101 $-1 #
coedge $-1 $106 $250 $246 $252 reversed $101 $-1 #
vertex $-1 $252 $253 #
vertex $-1 $174 $254 #
straight-curve $-1 -61.116816104574809 -39.722872535187371 0 0 0 1 I I #
coedge $-1 $109 $255 $168 $243 forward $181 $-1 #
loop $-1 $-1 $256 $239 #
vertex $-1 $170 $257 #
straight-curve $-1 -59.616816104574809 -49.71228533984479 -8.6384852171769833 -1 0 0 I I #
coedge $-1 $258 $111 $169 $244 forward $185 $-1 #
loop $-1 $-1 $259 $166 #
vertex $-1 $244 $260 #
straight-curve $-1 -59.616816104574809 -49.71228533984479 8.6384852171769833 1 0 0 I I #
point $-1 -61.116816104574809 -49.71228533984479 8.6384852171769833 #
point $-1 -61.116816104574809 -49.71228533984479 -8.6384852171769833 #
face $-1 $261 $262 $14 $-1 $263 reversed single #
loop $-1 $-1 $264 $116 #
plane-surface $-1 -59.616816104574809 -49.71228533984479 0 0 1 0 0 0 1 forward_v I I I I #
coedge $-1 $122 $265 $119 $196 forward $117 $-1 #
coedge $-1 $195 $119 $266 $267 reversed $66 $-1 #
coedge $-1 $119 $194 $120 $198 forward $66 $-1 #
edge $-1 $268 -43.674614095908865 $199 -35.350295105261381 $193 $269 forward 7 unknown #
coedge $-1 $121 $120 $203 $270 reversed $41 $-1 #
edge $-1 $271 -145.91021454512162 $199 -134.88038362037571 $195 $272 forward 7 unknown #
vertex $-1 $123 $273 #
straight-curve $-1 64.630788281913311 12.889493855583996 8.638485217176985 0 1 0 I I #
vertex $-1 $270 $274 #
straight-curve $-1 -37.164728485065524 30.265870591000052 97.127979801129968 0.75470957328743171 0 -0.6560590369687036 I I #
coedge $-1 $266 $125 $197 $270 forward $205 $-1 #
coedge $-1 $125 $275 $127 $208 reversed $205 $-1 #
loop $-1 $-1 $266 $276 #
straight-curve $-1 72.955107272560809 30.265870591000052 103.62390777937816 0 0 -1 I I #
coedge $-1 $277 $127 $278 $279 forward $117 $-1 #
edge $-1 $129 30.265870591000052 $280 39.722872535187371 $204 $281 forward 7 unknown #
point $-1 64.630788281913325 30.265870591000052 8.6384852171769779 #
point $-1 72.955107272560809 30.265870591000052 8.6384852171769833 #
face $-1 $282 $283 $15 $-1 $284 forward single #
loop $-1 $-1 $285 $131 #
plane-surface $-1 58.560986353303889 21.292104831335934 207.24781555875632 0 1 0 0.6560590369687036 0 0.75470957328743171 forward_v I I I I #
loop $-1 $-1 $286 $73 #
coedge $-1 $216 $134 $287 $288 forward $74 $-1 #
coedge $-1 $134 $215 $289 $290 reversed $74 $-1 #
coedge $-1 $291 $292 $134 $218 forward $283 $-1 #
edge $-1 $293 35.350295105261381 $294 43.674614095908865 $217 $295 forward 7 unknown #
edge $-1 $296 1 $296 0 $135 $-1 forward 7 unknown #
vertex $-1 $136 $297 #
ellipse-curve $-1 66.153745226269663 25.778987711167993 1.9843199198992147 0.6560590369687036 0 0.75470957328743171 1.1320643599311475 0 -0.9840885554530554 1 I I #
point $-1 69.925012137168196 25.778987711167993 4.0362865345157255 #
plane-surface $-1 72.955107272560809 0 0 -1 0 0 0 0 1 forward_v I I I I #
coedge $-1 $144 $142 $146 $228 reversed $82 $-1 #
edge $-1 $157 -8.6384852171769833 $230 8.6384852171769833 $156 $298 forward 7 unknown #
vertex $-1 $228 $299 #
straight-curve $-1 -72.955107272560809 -39.722872535187371 0 0 0 -1 I I #
edge $-1 $226 -39.722872535187371 $230 39.722872535187371 $224 $300 forward 7 unknown #
straight-curve $-1 0 -39.722872535187371 -8.6384852171769833 -1 0 0 I I #
vertex $-1 $149 $301 #
straight-curve $-1 0 39.722872535187371 -8.6384852171769833 1 0 0 I I #
point $-1 72.955107272560809 39.722872535187371 -8.6384852171769833 #
point $-1 72.955107272560809 -39.722872535187371 -8.6384852171769833 #
straight-curve $-1 -72.955107272560809 0 8.6384852171769833 0 -1 0 I I #
point $-1 -72.955107272560809 39.722872535187371 8.6384852171769833 #
point $-1 -72.955107272560809 -39.722872535187371 8.6384852171769833 #
straight-curve $-1 72.955107272560809 -39.722872535187371 0 0 0 -1 I I #
straight-curve $-1 72.955107272560809 39.722872535187371 0 0 0 -1 I I #
face $-1 $302 $181 $13 $-1 $303 reversed single #
plane-surface $-1 0 0 8.6384852171769833 0 0 1 1 0 0 forward_v I I I I #
coedge $-1 $304 $305 $242 $306 forward $167 $-1 #
coedge $-1 $169 $168 $241 $306 reversed $58 $-1 #
edge $-1 $307 -4.9947064023287098 $182 4.9947064023287098 $168 $308 forward 7 unknown #
edge $-1 $186 -4.9947064023287098 $309 4.9947064023287098 $169 $310 forward 7 unknown #
straight-curve $-1 -58.116816104574809 -49.71228533984479 0 0 0 -1 I I #
coedge $-1 $311 $171 $176 $252 forward $181 $-1 #
straight-curve $-1 -61.116816104574809 -44.71757893751608 -8.6384852171769833 0 1 0 I I #
coedge $-1 $173 $312 $175 $251 forward $185 $-1 #
straight-curve $-1 -61.116816104574809 -44.71757893751608 8.6384852171769833 0 -1 0 I I #
coedge $-1 $176 $175 $313 $314 forward $101 $-1 #
edge $-1 $315 -72.955107272560809 $178 -61.116816104574809 $175 $316 forward 7 unknown #
edge $-1 $177 61.116816104574809 $317 72.955107272560809 $176 $318 forward 7 unknown #
point $-1 -61.116816104574809 -39.722872535187371 -8.6384852171769833 #
point $-1 -61.116816104574809 -39.722872535187371 8.6384852171769833 #
coedge $-1 $180 $256 $304 $319 forward $181 $-1 #
coedge $-1 $255 $320 $321 $322 forward $181 $-1 #
point $-1 -58.116816104574809 -49.71228533984479 -8.6384852171769833 #
coedge $-1 $259 $184 $305 $323 forward $185 $-1 #
coedge $-1 $324 $258 $325 $326 forward $185 $-1 #
point $-1 -58.116816104574809 -49.71228533984479 8.6384852171769833 #
face $-1 $327 $328 $14 $-1 $329 reversed single #
loop $-1 $-1 $330 $190 #
plane-surface $-1 -61.116816104574809 -44.71757893751608 0 1 0 0 0 0 -1 forward_v I I I I #
coedge $-1 $331 $332 $333 $334 forward $191 $-1 #
coedge $-1 $193 $335 $336 $337 forward $117 $-1 #
coedge $-1 $336 $203 $194 $267 forward $205 $-1 #
edge $-1 $271 -102.22164281661759 $268 -94.98542256220118 $266 $338 forward 7 unknown #
vertex $-1 $267 $339 #
straight-curve $-1 29.280493176651945 21.292104831335934 8.6384852171769779 -1 0 0 I I #
edge $-1 $201 -17.376376735416056 $271 -8.4026109757519372 $203 $340 forward 7 unknown #
vertex $-1 $270 $341 #
straight-curve $-1 -37.164728485065524 21.292104831335934 97.127979801129968 -0.75470957328743171 0 0.6560590369687036 I I #
point $-1 64.630788281913325 21.292104831335934 8.6384852171769779 #
point $-1 72.955107272560809 30.265870591000052 1.4022649627605688 #
coedge $-1 $204 $342 $343 $344 reversed $205 $-1 #
face $-1 $-1 $205 $14 $-1 $345 reversed single #
coedge $-1 $346 $207 $347 $348 forward $117 $-1 #
coedge $-1 $343 $349 $207 $279 reversed $350 $-1 #
edge $-1 $280 -72.955107272560809 $351 72.955107272560809 $278 $352 forward 7 unknown #
vertex $-1 $208 $353 #
straight-curve $-1 72.955107272560809 0 8.6384852171769833 0 1 0 I I #
face $-1 $354 $355 $15 $-1 $356 reversed single #
loop $-1 $-1 $357 $211 #
plane-surface $-1 0 0 8.6384852171769833 0 0 1 1 0 0 forward_v I I I I #
coedge $-1 $358 $359 $357 $360 reversed $212 $-1 #
coedge $-1 $361 $287 $292 $362 reversed $214 $-1 #
coedge $-1 $286 $363 $215 $288 reversed $214 $-1 #
edge $-1 $293 134.88038362037571 $364 145.91021454512162 $215 $365 forward 7 unknown #
coedge $-1 $366 $367 $216 $290 forward $368 $-1 #
edge $-1 $294 94.98542256220118 $364 102.22164281661759 $289 $369 forward 7 unknown #
coedge $-1 $370 $217 $367 $371 forward $283 $-1 #
coedge $-1 $217 $357 $286 $362 forward $283 $-1 #
vertex $-1 $362 $372 #
vertex $-1 $371 $373 #
straight-curve $-1 29.280493176651945 30.265870591000052 8.6384852171769779 1 0 0 I I #
vertex $-1 $219 $374 #
point $-1 67.285809586200813 25.778987711167993 1.0002313644461593 #
straight-curve $-1 -72.955107272560809 39.722872535187371 0 0 0 -1 I I #
point $-1 -72.955107272560809 -39.722872535187371 -8.6384852171769833 #
straight-curve $-1 -72.955107272560809 0 -8.6384852171769833 0 1 0 I I #
point $-1 -72.955107272560809 39.722872535187371 -8.6384852171769833 #
face $-1 $375 $376 $13 $-1 $377 reversed single #
plane-surface $-1 0 0 -8.6384852171769833 0 0 1 1 0 0 forward_v I I I I #
coedge $-1 $378 $241 $255 $319 reversed $167 $-1 #
coedge $-1 $241 $378 $258 $323 reversed $167 $-1 #
edge $-1 $309 -8.6384852171769833 $307 8.6384852171769833 $241 $379 forward 7 unknown #
vertex $-1 $243 $380 #
straight-curve $-1 -58.116816104574809 -44.71757893751608 -8.6384852171769833 0 -1 0 I I #
vertex $-1 $323 $381 #
straight-curve $-1 -58.116816104574809 -44.71757893751608 8.6384852171769833 0 1 0 I I #
coedge $-1 $320 $246 $382 $383 forward $181 $-1 #
coedge $-1 $248 $324 $384 $385 forward $185 $-1 #
coedge $-1 $384 $382 $250 $314 reversed $376 $-1 #
edge $-1 $315 -8.6384852171769833 $317 8.6384852171769833 $313 $386 forward 7 unknown #
vertex $-1 $385 $387 #
straight-curve $-1 0 -39.722872535187371 8.6384852171769833 1 0 0 I I #
vertex $-1 $383 $388 #
straight-curve $-1 0 -39.722872535187371 -8.6384852171769833 -1 0 0 I I #
edge $-1 $389 -72.955107272560809 $307 58.116816104574809 $304 $318 forward 7 unknown #
coedge $-1 $256 $311 $390 $391 forward $181 $-1 #
coedge $-1 $392 $393 $256 $322 reversed $394 $-1 #
edge $-1 $395 -39.722872535187371 $389 39.722872535187371 $321 $396 forward 7 unknown #
edge $-1 $309 -58.116816104574809 $397 72.955107272560809 $305 $316 forward 7 unknown #
coedge $-1 $312 $259 $398 $399 forward $185 $-1 #
coedge $-1 $393 $392 $259 $326 reversed $394 $-1 #
edge $-1 $397 -39.722872535187371 $400 39.722872535187371 $325 $401 forward 7 unknown #
face $-1 $402 $403 $14 $-1 $404 reversed single #
loop $-1 $-1 $405 $261 #
plane-surface $-1 -58.116816104574809 -44.71757893751608 0 -1 0 0 0 0 1 forward_v I I I I #
coedge $-1 $406 $407 $408 $409 reversed $262 $-1 #
coedge $-1 $410 $264 $411 $412 reversed $191 $-1 #
coedge $-1 $264 $410 $413 $414 reversed $191 $-1 #
coedge $-1 $407 $406 $264 $334 reversed $262 $-1 #
edge $-1 $415 -8.6384852171769833 $416 8.6384852171769833 $333 $417 forward 7 unknown #
coedge $-1 $265 $418 $419 $420 forward $117 $-1 #
coedge $-1 $421 $266 $265 $337 reversed $205 $-1 #
edge $-1 $422 -39.722872535187371 $268 21.292104831335934 $336 $281 forward 7 unknown #
straight-curve $-1 72.955107272560809 21.292104831335934 103.62390777937816 0 0 1 I I #
point $-1 72.955107272560809 21.292104831335934 8.6384852171769833 #
straight-curve $-1 72.955107272560795 12.889493855583996 1.4022649627605617 0 -1 0 I I #
point $-1 72.955107272560809 21.292104831335934 1.4022649627605688 #
coedge $-1 $275 $421 $423 $424 reversed $205 $-1 #
coedge $-1 $425 $278 $275 $344 forward $350 $-1 #
edge $-1 $280 -8.6384852171769833 $426 8.6384852171769833 $275 $427 forward 7 unknown #
plane-surface $-1 72.955107272560809 0 0 -1 0 0 0 0 1 forward_v I I I I #
coedge $-1 $428 $277 $429 $430 forward $117 $-1 #
coedge $-1 $431 $432 $277 $348 reversed $433 $-1 #
edge $-1 $351 -39.722872535187371 $434 39.722872535187371 $347 $435 forward 7 unknown #
coedge $-1 $278 $425 $431 $436 reversed $350 $-1 #
loop $-1 $-1 $343 $437 #
vertex $-1 $279 $438 #
straight-curve $-1 0 39.722872535187371 8.6384852171769833 -1 0 0 I I #
point $-1 72.955107272560809 39.722872535187371 8.6384852171769833 #
face $-1 $439 $440 $15 $-1 $441 reversed single #
loop $-1 $-1 $442 $282 #
plane-surface $-1 -59.616816104574809 -49.71228533984479 0 0 1 0 0 0 1 forward_v I I I I #
coedge $-1 $292 $443 $285 $360 forward $283 $-1 #
coedge $-1 $359 $285 $444 $445 reversed $212 $-1 #
coedge $-1 $285 $358 $361 $446 forward $212 $-1 #
edge $-1 $447 -43.674614095908865 $448 -35.350295105261381 $357 $449 forward 7 unknown #
coedge $-1 $363 $286 $359 $446 reversed $214 $-1 #
edge $-1 $448 8.4026109757519372 $293 17.376376735416056 $292 $450 forward 7 unknown #
coedge $-1 $287 $361 $366 $451 reversed $214 $-1 #
vertex $-1 $451 $452 #
straight-curve $-1 -37.164728485065524 30.265870591000052 97.127979801129968 0.75470957328743171 0 -0.6560590369687036 I I #
coedge $-1 $444 $289 $363 $451 forward $368 $-1 #
coedge $-1 $289 $453 $291 $371 reversed $368 $-1 #
loop $-1 $-1 $444 $454 #
straight-curve $-1 72.955107272560809 30.265870591000052 103.62390777937816 0 0 -1 I I #
coedge $-1 $455 $291 $456 $457 forward $283 $-1 #
edge $-1 $294 30.265870591000052 $458 39.722872535187371 $367 $459 forward 7 unknown #
point $-1 64.630788281913325 30.265870591000052 8.6384852171769779 #
point $-1 72.955107272560809 30.265870591000052 8.6384852171769833 #
point $-1 65.169656670816622 25.778987711167993 0.85225555996806712 #
face $-1 $460 $461 $13 $-1 $462 reversed single #
loop $-1 $-1 $463 $302 #
plane-surface $-1 -72.955107272560809 0 0 1 0 0 0 0 -1 forward_v I I I I #
coedge $-1 $305 $304 $393 $464 reversed $167 $-1 #
straight-curve $-1 -58.116816104574809 -39.722872535187371 0 0 0 -1 I I #
point $-1 -58.116816104574809 -39.722872535187371 -8.6384852171769833 #
point $-1 -58.116816104574809 -39.722872535187371 8.6384852171769833 #
coedge $-1 $313 $463 $311 $383 reversed $376 $-1 #
edge $-1 $317 -39.722872535187371 $465 39.722872535187371 $382 $466 forward 7 unknown #
coedge $-1 $463 $313 $312 $385 reversed $376 $-1 #
edge $-1 $467 -39.722872535187371 $315 39.722872535187371 $384 $468 forward 7 unknown #
straight-curve $-1 -72.955107272560809 -39.722872535187371 0 0 0 -1 I I #
point $-1 -72.955107272560809 -39.722872535187371 8.6384852171769833 #
point $-1 -72.955107272560809 -39.722872535187371 -8.6384852171769833 #
vertex $-1 $464 $469 #
coedge $-1 $470 $471 $320 $391 reversed $461 $-1 #
edge $-1 $465 -72.955107272560809 $395 72.955107272560809 $390 $472 forward 7 unknown #
coedge $-1 $325 $321 $471 $473 reversed $394 $-1 #
coedge $-1 $321 $325 $378 $464 forward $394 $-1 #
loop $-1 $-1 $393 $460 #
vertex $-1 $322 $474 #
straight-curve $-1 72.955107272560809 0 -8.6384852171769833 0 -1 0 I I #
vertex $-1 $326 $475 #
coedge $-1 $471 $470 $324 $399 reversed $461 $-1 #
edge $-1 $400 -72.955107272560809 $467 72.955107272560809 $398 $476 forward 7 unknown #
vertex $-1 $326 $477 #
straight-curve $-1 72.955107272560809 0 8.6384852171769833 0 1 0 I I #
face $-1 $478 $479 $14 $-1 $404 reversed single #
loop $-1 $-1 $408 $327 #
plane-surface $-1 0 -39.722872535187371 0 0 1 0 0 0 1 forward_v I I I I #
coedge $-1 $480 $481 $410 $482 forward $328 $-1 #
coedge $-1 $333 $330 $483 $484 reversed $262 $-1 #
coedge $-1 $330 $333 $428 $485 reversed $262 $-1 #
coedge $-1 $429 $486 $330 $409 forward $403 $-1 #
edge $-1 $487 -8.6384852171769833 $488 8.6384852171769833 $408 $489 forward 7 unknown #
coedge $-1 $332 $331 $405 $482 reversed $191 $-1 #
coedge $-1 $483 $490 $331 $412 forward $491 $-1 #
edge $-1 $492 -1.5 $416 1.5 $331 $493 forward 7 unknown #
coedge $-1 $418 $428 $332 $414 forward $117 $-1 #
edge $-1 $415 -1.5 $494 1.5 $332 $495 forward 7 unknown #
vertex $-1 $485 $496 #
vertex $-1 $484 $497 #
straight-curve $-1 -61.116816104574809 -49.71228533984479 0 0 0 -1 I I #
coedge $-1 $335 $413 $481 $498 forward $117 $-1 #
coedge $-1 $499 $500 $335 $420 reversed $479 $-1 #
edge $-1 $501 -58.116816104574809 $422 72.955107272560809 $419 $502 forward 7 unknown #
coedge $-1 $342 $336 $500 $503 forward $205 $-1 #
vertex $-1 $337 $504 #
coedge $-1 $505 $506 $342 $424 forward $491 $-1 #
edge $-1 $426 -39.722872535187371 $507 39.722872535187371 $342 $508 forward 7 unknown #
coedge $-1 $349 $343 $506 $509 reversed $350 $-1 #
vertex $-1 $424 $510 #
straight-curve $-1 72.955107272560809 39.722872535187371 0 0 0 -1 I I #
coedge $-1 $413 $346 $407 $485 forward $117 $-1 #
coedge $-1 $511 $408 $346 $430 reversed $403 $-1 #
edge $-1 $434 -72.955107272560809 $488 -61.116816104574809 $429 $502 forward 7 unknown #
coedge $-1 $512 $347 $349 $436 forward $433 $-1 #
coedge $-1 $347 $512 $511 $513 reversed $433 $-1 #
loop $-1 $-1 $431 $514 #
vertex $-1 $348 $515 #
straight-curve $-1 -72.955107272560809 0 8.6384852171769833 0 -1 0 I I #
edge $-1 $351 -8.6384852171769833 $516 8.6384852171769833 $349 $517 forward 7 unknown #
face $-1 $276 $350 $14 $-1 $518 reversed single #
point $-1 -72.955107272560809 39.722872535187371 8.6384852171769833 #
face $-1 $519 $520 $15 $-1 $521 reversed single #
loop $-1 $-1 $522 $354 #
plane-surface $-1 -61.116816104574809 -44.71757893751608 0 1 0 0 0 0 -1 forward_v I I I I #
coedge $-1 $523 $524 $525 $526 forward $355 $-1 #
coedge $-1 $357 $527 $528 $529 forward $283 $-1 #
coedge $-1 $528 $366 $358 $445 forward $368 $-1 #
edge $-1 $530 -102.22164281661759 $447 -94.98542256220118 $444 $531 forward 7 unknown #
edge $-1 $530 -145.91021454512162 $448 -134.88038362037571 $359 $532 forward 7 unknown #
vertex $-1 $445 $533 #
vertex $-1 $362 $534 #
straight-curve $-1 29.280493176651945 21.292104831335934 8.6384852171769779 -1 0 0 I I #
straight-curve $-1 64.630788281913311 12.889493855583996 8.638485217176985 0 1 0 I I #
edge $-1 $364 -17.376376735416056 $530 -8.4026109757519372 $366 $535 forward 7 unknown #
point $-1 72.955107272560809 30.265870591000052 1.4022649627605688 #
coedge $-1 $367 $536 $537 $538 reversed $368 $-1 #
face $-1 $-1 $368 $15 $-1 $539 reversed single #
coedge $-1 $540 $370 $541 $542 forward $283 $-1 #
coedge $-1 $537 $543 $370 $457 reversed $544 $-1 #
edge $-1 $458 -72.955107272560809 $545 72.955107272560809 $456 $546 forward 7 unknown #
vertex $-1 $371 $547 #
straight-curve $-1 72.955107272560809 0 8.6384852171769833 0 1 0 I I #
face $-1 $-1 $394 $13 $-1 $548 reversed single #
loop $-1 $-1 $471 $375 #
plane-surface $-1 0 39.722872535187371 0 0 -1 0 0 0 -1 forward_v I I I I #
coedge $-1 $382 $384 $470 $549 forward $376 $-1 #
edge $-1 $397 -8.6384852171769833 $389 8.6384852171769833 $393 $550 forward 7 unknown #
vertex $-1 $391 $551 #
straight-curve $-1 -72.955107272560809 0 -8.6384852171769833 0 1 0 I I #
vertex $-1 $399 $552 #
straight-curve $-1 -72.955107272560809 0 8.6384852171769833 0 -1 0 I I #
point $-1 72.955107272560809 -39.722872535187371 -8.6384852171769833 #
coedge $-1 $398 $390 $463 $549 reversed $461 $-1 #
coedge $-1 $390 $398 $392 $473 forward $461 $-1 #
straight-curve $-1 0 39.722872535187371 -8.6384852171769833 1 0 0 I I #
edge $-1 $400 -8.6384852171769833 $395 8.6384852171769833 $392 $553 forward 7 unknown #
point $-1 72.955107272560809 39.722872535187371 -8.6384852171769833 #
point $-1 72.955107272560809 -39.722872535187371 8.6384852171769833 #
straight-curve $-1 0 39.722872535187371 8.6384852171769833 -1 0 0 I I #
point $-1 72.955107272560809 39.722872535187371 8.6384852171769833 #
face $-1 $514 $491 $14 $-1 $554 reversed single #
loop $-1 $-1 $499 $402 #
coedge $-1 $555 $405 $490 $556 reversed $328 $-1 #
coedge $-1 $405 $555 $418 $498 reversed $328 $-1 #
edge $-1 $494 -8.6384852171769833 $492 8.6384852171769833 $405 $557 forward 7 unknown #
coedge $-1 $558 $411 $406 $484 forward $491 $-1 #
edge $-1 $416 -4.9947064023287098 $487 4.9947064023287098 $406 $559 forward 7 unknown #
edge $-1 $488 -4.9947064023287098 $415 4.9947064023287098 $407 $560 forward 7 unknown #
coedge $-1 $408 $511 $558 $561 reversed $403 $-1 #
vertex $-1 $561 $562 #
vertex $-1 $485 $563 #
straight-curve $-1 -61.116816104574809 -39.722872535187371 0 0 0 1 I I #
coedge $-1 $411 $505 $480 $556 forward $491 $-1 #
loop $-1 $-1 $423 $478 #
vertex $-1 $482 $564 #
straight-curve $-1 -59.616816104574809 -49.71228533984479 -8.6384852171769833 -1 0 0 I I #
vertex $-1 $498 $565 #
straight-curve $-1 -59.616816104574809 -49.71228533984479 8.6384852171769833 1 0 0 I I #
point $-1 -61.116816104574809 -49.71228533984479 8.6384852171769833 #
point $-1 -61.116816104574809 -49.71228533984479 -8.6384852171769833 #
edge $-1 $494 -4.9947064023287098 $501 4.9947064023287098 $481 $566 forward 7 unknown #
coedge $-1 $567 $419 $555 $568 forward $479 $-1 #
coedge $-1 $419 $567 $421 $503 reversed $479 $-1 #
vertex $-1 $420 $569 #
straight-curve $-1 0 -39.722872535187371 8.6384852171769833 1 0 0 I I #
edge $-1 $422 -8.6384852171769833 $507 8.6384852171769833 $421 $570 forward 7 unknown #
point $-1 72.955107272560809 -39.722872535187371 8.6384852171769833 #
coedge $-1 $490 $423 $567 $571 forward $491 $-1 #
coedge $-1 $423 $572 $425 $509 forward $491 $-1 #
vertex $-1 $503 $573 #
straight-curve $-1 72.955107272560809 0 -8.6384852171769833 0 -1 0 I I #
edge $-1 $516 -72.955107272560809 $426 72.955107272560809 $425 $574 forward 7 unknown #
point $-1 72.955107272560809 39.722872535187371 -8.6384852171769833 #
coedge $-1 $486 $429 $432 $513 forward $403 $-1 #
coedge $-1 $432 $431 $572 $575 reversed $433 $-1 #
edge $-1 $434 -8.6384852171769833 $576 8.6384852171769833 $432 $577 forward 7 unknown #
face $-1 $437 $433 $14 $-1 $578 reversed single #
point $-1 -72.955107272560809 -39.722872535187371 8.6384852171769833 #
vertex $-1 $509 $579 #
straight-curve $-1 -72.955107272560809 39.722872535187371 0 0 0 -1 I I #
plane-surface $-1 0 39.722872535187371 0 0 -1 0 0 0 -1 forward_v I I I I #
face $-1 $580 $581 $15 $-1 $582 reversed single #
loop $-1 $-1 $583 $439 #
plane-surface $-1 -58.116816104574809 -44.71757893751608 0 -1 0 0 0 0 1 forward_v I I I I #
coedge $-1 $584 $585 $586 $587 reversed $440 $-1 #
coedge $-1 $588 $442 $589 $590 reversed $355 $-1 #
coedge $-1 $442 $588 $591 $592 reversed $355 $-1 #
coedge $-1 $585 $584 $442 $526 reversed $440 $-1 #
edge $-1 $593 -8.6384852171769833 $594 8.6384852171769833 $525 $595 forward 7 unknown #
coedge $-1 $443 $596 $597 $598 forward $283 $-1 #
coedge $-1 $599 $444 $443 $529 reversed $368 $-1 #
edge $-1 $600 -39.722872535187371 $447 21.292104831335934 $528 $459 forward 7 unknown #
vertex $-1 $451 $601 #
straight-curve $-1 72.955107272560809 21.292104831335934 103.62390777937816 0 0 1 I I #
straight-curve $-1 -37.164728485065524 21.292104831335934 97.127979801129968 -0.75470957328743171 0 0.6560590369687036 I I #
point $-1 72.955107272560809 21.292104831335934 8.6384852171769833 #
point $-1 64.630788281913325 21.292104831335934 8.6384852171769779 #
straight-curve $-1 72.955107272560795 12.889493855583996 1.4022649627605617 0 -1 0 I I #
coedge $-1 $453 $599 $602 $603 reversed $368 $-1 #
coedge $-1 $604 $456 $453 $538 forward $544 $-1 #
edge $-1 $458 -8.6384852171769833 $605 8.6384852171769833 $453 $606 forward 7 unknown #
plane-surface $-1 72.955107272560809 0 0 -1 0 0 0 0 1 forward_v I I I I #
coedge $-1 $607 $455 $608 $609 forward $283 $-1 #
coedge $-1 $610 $611 $455 $542 reversed $612 $-1 #
edge $-1 $545 -39.722872535187371 $613 39.722872535187371 $541 $614 forward 7 unknown #
coedge $-1 $456 $604 $610 $615 reversed $544 $-1 #
loop $-1 $-1 $537 $616 #
vertex $-1 $457 $617 #
straight-curve $-1 0 39.722872535187371 8.6384852171769833 -1 0 0 I I #
point $-1 72.955107272560809 39.722872535187371 8.6384852171769833 #
plane-surface $-1 72.955107272560809 0 0 -1 0 0 0 0 1 forward_v I I I I #
edge $-1 $467 -8.6384852171769833 $465 8.6384852171769833 $470 $618 forward 7 unknown #
straight-curve $-1 72.955107272560809 -39.722872535187371 0 0 0 -1 I I #
point $-1 -72.955107272560809 39.722872535187371 -8.6384852171769833 #
point $-1 -72.955107272560809 39.722872535187371 8.6384852171769833 #
straight-curve $-1 72.955107272560809 39.722872535187371 0 0 0 -1 I I #
plane-surface $-1 0 0 -8.6384852171769833 0 0 1 1 0 0 forward_v I I I I #
coedge $-1 $481 $480 $499 $568 reversed $328 $-1 #
edge $-1 $619 -4.9947064023287098 $492 4.9947064023287098 $480 $620 forward 7 unknown #
straight-curve $-1 -58.116816104574809 -49.71228533984479 0 0 0 -1 I I #
coedge $-1 $572 $483 $486 $561 forward $491 $-1 #
straight-curve $-1 -61.116816104574809 -44.71757893751608 -8.6384852171769833 0 1 0 I I #
straight-curve $-1 -61.116816104574809 -44.71757893751608 8.6384852171769833 0 -1 0 I I #
edge $-1 $487 61.116816104574809 $576 72.955107272560809 $486 $621 forward 7 unknown #
point $-1 -61.116816104574809 -39.722872535187371 -8.6384852171769833 #
point $-1 -61.116816104574809 -39.722872535187371 8.6384852171769833 #
point $-1 -58.116816104574809 -49.71228533984479 -8.6384852171769833 #
point $-1 -58.116816104574809 -49.71228533984479 8.6384852171769833 #
straight-curve $-1 -58.116816104574809 -44.71757893751608 8.6384852171769833 0 1 0 I I #
coedge $-1 $500 $499 $505 $571 reversed $479 $-1 #
edge $-1 $501 -8.6384852171769833 $619 8.6384852171769833 $499 $622 forward 7 unknown #
point $-1 -58.116816104574809 -39.722872535187371 8.6384852171769833 #
straight-curve $-1 72.955107272560809 -39.722872535187371 0 0 0 -1 I I #
edge $-1 $507 -72.955107272560809 $619 58.116816104574809 $567 $621 forward 7 unknown #
coedge $-1 $506 $558 $512 $575 forward $491 $-1 #
point $-1 72.955107272560809 -39.722872535187371 -8.6384852171769833 #
straight-curve $-1 0 39.722872535187371 -8.6384852171769833 1 0 0 I I #
edge $-1 $576 -39.722872535187371 $516 39.722872535187371 $512 $623 forward 7 unknown #
vertex $-1 $575 $624 #
straight-curve $-1 -72.955107272560809 -39.722872535187371 0 0 0 -1 I I #
plane-surface $-1 -72.955107272560809 0 0 1 0 0 0 0 -1 forward_v I I I I #
point $-1 -72.955107272560809 39.722872535187371 -8.6384852171769833 #
face $-1 $625 $626 $15 $-1 $582 reversed single #
loop $-1 $-1 $586 $519 #
plane-surface $-1 0 -39.722872535187371 0 0 1 0 0 0 1 forward_v I I I I #
coedge $-1 $627 $628 $588 $629 forward $520 $-1 #
coedge $-1 $525 $522 $630 $631 reversed $440 $-1 #
coedge $-1 $522 $525 $607 $632 reversed $440 $-1 #
coedge $-1 $608 $633 $522 $587 forward $581 $-1 #
edge $-1 $634 -8.6384852171769833 $635 8.6384852171769833 $586 $636 forward 7 unknown #
coedge $-1 $524 $523 $583 $629 reversed $355 $-1 #
coedge $-1 $630 $637 $523 $590 forward $638 $-1 #
edge $-1 $639 -1.5 $594 1.5 $523 $640 forward 7 unknown #
coedge $-1 $596 $607 $524 $592 forward $283 $-1 #
edge $-1 $593 -1.5 $641 1.5 $524 $642 forward 7 unknown #
vertex $-1 $632 $643 #
vertex $-1 $631 $644 #
straight-curve $-1 -61.116816104574809 -49.71228533984479 0 0 0 -1 I I #
coedge $-1 $527 $591 $628 $645 forward $283 $-1 #
coedge $-1 $646 $647 $527 $598 reversed $626 $-1 #
edge $-1 $648 -58.116816104574809 $600 72.955107272560809 $597 $649 forward 7 unknown #
coedge $-1 $536 $528 $647 $650 forward $368 $-1 #
vertex $-1 $529 $651 #
point $-1 72.955107272560809 21.292104831335934 1.4022649627605688 #
coedge $-1 $652 $653 $536 $603 forward $638 $-1 #
edge $-1 $605 -39.722872535187371 $654 39.722872535187371 $536 $655 forward 7 unknown #
coedge $-1 $543 $537 $653 $656 reversed $544 $-1 #
vertex $-1 $603 $657 #
straight-curve $-1 72.955107272560809 39.722872535187371 0 0 0 -1 I I #
coedge $-1 $591 $540 $585 $632 forward $283 $-1 #
coedge $-1 $658 $586 $540 $609 reversed $581 $-1 #
edge $-1 $613 -72.955107272560809 $635 -61.116816104574809 $608 $649 forward 7 unknown #
coedge $-1 $659 $541 $543 $615 forward $612 $-1 #
coedge $-1 $541 $659 $658 $660 reversed $612 $-1 #
loop $-1 $-1 $610 $661 #
vertex $-1 $542 $662 #
straight-curve $-1 -72.955107272560809 0 8.6384852171769833 0 -1 0 I I #
edge $-1 $545 -8.6384852171769833 $663 8.6384852171769833 $543 $664 forward 7 unknown #
face $-1 $454 $544 $15 $-1 $665 reversed single #
point $-1 -72.955107272560809 39.722872535187371 8.6384852171769833 #
straight-curve $-1 -72.955107272560809 39.722872535187371 0 0 0 -1 I I #
vertex $-1 $556 $666 #
straight-curve $-1 -58.116816104574809 -44.71757893751608 -8.6384852171769833 0 -1 0 I I #
straight-curve $-1 0 -39.722872535187371 -8.6384852171769833 -1 0 0 I I #
straight-curve $-1 -58.116816104574809 -39.722872535187371 0 0 0 -1 I I #
straight-curve $-1 -72.955107272560809 0 -8.6384852171769833 0 1 0 I I #
point $-1 -72.955107272560809 -39.722872535187371 -8.6384852171769833 #
face $-1 $661 $638 $15 $-1 $667 reversed single #
loop $-1 $-1 $646 $580 #
coedge $-1 $668 $583 $637 $669 reversed $520 $-1 #
coedge $-1 $583 $668 $596 $645 reversed $520 $-1 #
edge $-1 $641 -8.6384852171769833 $639 8.6384852171769833 $583 $670 forward 7 unknown #
coedge $-1 $671 $589 $584 $631 forward $638 $-1 #
edge $-1 $594 -4.9947064023287098 $634 4.9947064023287098 $584 $672 forward 7 unknown #
edge $-1 $635 -4.9947064023287098 $593 4.9947064023287098 $585 $673 forward 7 unknown #
coedge $-1 $586 $658 $671 $674 reversed $581 $-1 #
vertex $-1 $674 $675 #
vertex $-1 $632 $676 #
straight-curve $-1 -61.116816104574809 -39.722872535187371 0 0 0 1 I I #
coedge $-1 $589 $652 $627 $669 forward $638 $-1 #
loop $-1 $-1 $602 $625 #
vertex $-1 $629 $677 #
straight-curve $-1 -59.616816104574809 -49.71228533984479 -8.6384852171769833 -1 0 0 I I #
vertex $-1 $645 $678 #
straight-curve $-1 -59.616816104574809 -49.71228533984479 8.6384852171769833 1 0 0 I I #
point $-1 -61.116816104574809 -49.71228533984479 8.6384852171769833 #
point $-1 -61.116816104574809 -49.71228533984479 -8.6384852171769833 #
edge $-1 $641 -4.9947064023287098 $648 4.9947064023287098 $628 $679 forward 7 unknown #
coedge $-1 $680 $597 $668 $681 forward $626 $-1 #
coedge $-1 $597 $680 $599 $650 reversed $626 $-1 #
vertex $-1 $598 $682 #
straight-curve $-1 0 -39.722872535187371 8.6384852171769833 1 0 0 I I #
edge $-1 $600 -8.6384852171769833 $654 8.6384852171769833 $599 $683 forward 7 unknown #
point $-1 72.955107272560809 -39.722872535187371 8.6384852171769833 #
coedge $-1 $637 $602 $680 $684 forward $638 $-1 #
coedge $-1 $602 $685 $604 $656 forward $638 $-1 #
vertex $-1 $650 $686 #
straight-curve $-1 72.955107272560809 0 -8.6384852171769833 0 -1 0 I I #
edge $-1 $663 -72.955107272560809 $605 72.955107272560809 $604 $687 forward 7 unknown #
point $-1 72.955107272560809 39.722872535187371 -8.6384852171769833 #
coedge $-1 $633 $608 $611 $660 forward $581 $-1 #
coedge $-1 $611 $610 $685 $688 reversed $612 $-1 #
edge $-1 $613 -8.6384852171769833 $689 8.6384852171769833 $611 $690 forward 7 unknown #
face $-1 $616 $612 $15 $-1 $691 reversed single #
point $-1 -72.955107272560809 -39.722872535187371 8.6384852171769833 #
vertex $-1 $656 $692 #
straight-curve $-1 -72.955107272560809 39.722872535187371 0 0 0 -1 I I #
plane-surface $-1 0 39.722872535187371 0 0 -1 0 0 0 -1 forward_v I I I I #
point $-1 -58.116816104574809 -39.722872535187371 -8.6384852171769833 #
plane-surface $-1 0 0 -8.6384852171769833 0 0 1 1 0 0 forward_v I I I I #
coedge $-1 $628 $627 $646 $681 reversed $520 $-1 #
edge $-1 $693 -4.9947064023287098 $639 4.9947064023287098 $627 $694 forward 7 unknown #
straight-curve $-1 -58.116816104574809 -49.71228533984479 0 0 0 -1 I I #
coedge $-1 $685 $630 $633 $674 forward $638 $-1 #
straight-curve $-1 -61.116816104574809 -44.71757893751608 -8.6384852171769833 0 1 0 I I #
straight-curve $-1 -61.116816104574809 -44.71757893751608 8.6384852171769833 0 -1 0 I I #
edge $-1 $634 61.116816104574809 $689 72.955107272560809 $633 $695 forward 7 unknown #
point $-1 -61.116816104574809 -39.722872535187371 -8.6384852171769833 #
point $-1 -61.116816104574809 -39.722872535187371 8.6384852171769833 #
point $-1 -58.116816104574809 -49.71228533984479 -8.6384852171769833 #
point $-1 -58.116816104574809 -49.71228533984479 8.6384852171769833 #
straight-curve $-1 -58.116816104574809 -44.71757893751608 8.6384852171769833 0 1 0 I I #
coedge $-1 $647 $646 $652 $684 reversed $626 $-1 #
edge $-1 $648 -8.6384852171769833 $693 8.6384852171769833 $646 $696 forward 7 unknown #
point $-1 -58.116816104574809 -39.722872535187371 8.6384852171769833 #
straight-curve $-1 72.955107272560809 -39.722872535187371 0 0 0 -1 I I #
edge $-1 $654 -72.955107272560809 $693 58.116816104574809 $680 $695 forward 7 unknown #
coedge $-1 $653 $671 $659 $688 forward $638 $-1 #
point $-1 72.955107272560809 -39.722872535187371 -8.6384852171769833 #
straight-curve $-1 0 39.722872535187371 -8.6384852171769833 1 0 0 I I #
edge $-1 $689 -39.722872535187371 $663 39.722872535187371 $659 $697 forward 7 unknown #
vertex $-1 $688 $698 #
straight-curve $-1 -72.955107272560809 -39.722872535187371 0 0 0 -1 I I #
plane-surface $-1 -72.955107272560809 0 0 1 0 0 0 0 -1 forward_v I I I I #
point $-1 -72.955107272560809 39.722872535187371 -8.6384852171769833 #
vertex $-1 $669 $699 #
straight-curve $-1 -58.116816104574809 -44.71757893751608 -8.6384852171769833 0 -1 0 I I #
straight-curve $-1 0 -39.722872535187371 -8.6384852171769833 -1 0 0 I I #
straight-curve $-1 -58.116816104574809 -39.722872535187371 0 0 0 -1 I I #
straight-curve $-1 -72.955107272560809 0 -8.6384852171769833 0 1 0 I I #
point $-1 -72.955107272560809 -39.722872535187371 -8.6384852171769833 #
point $-1 -58.116816104574809 -39.722872535187371 -8.6384852171769833 #
End-of-ACIS-data 