500 0 7 0           
7 Unknown 11 ACIS 5.0 NT 24 Fri Mar 26 01:02:01 1999 
-1 9.9999999999999995e-007 1e-010 
body $-1 $7 $-1 $8 #
body $-1 $9 $-1 $10 #
body $-1 $11 $-1 $12 #
body $-1 $13 $-1 $14 #
body $-1 $15 $-1 $16 #
body $-1 $17 $-1 $18 #
body $-1 $19 $-1 $20 #
lump $-1 $-1 $21 $0 #
transform $-1 1 0 0 0 1 0 0 0 1 67.077242347483747 41.760378687099795 15.568348701136394 1 rotate no_reflect no_shear #
lump $-1 $-1 $22 $1 #
transform $-1 1 0 0 0 1 0 0 0 1 67.077242347483747 41.760378687099795 15.568348701136394 1 rotate no_reflect no_shear #
lump $-1 $-1 $23 $2 #
transform $-1 1 0 0 0 1 0 0 0 1 67.077242347483747 41.760378687099795 15.568348701136394 1 rotate no_reflect no_shear #
lump $-1 $-1 $24 $3 #
transform $-1 1 0 0 0 1 0 0 0 1 67.077242347483747 41.760378687099795 15.568348701136394 1 rotate no_reflect no_shear #
lump $-1 $-1 $25 $4 #
transform $-1 1 0 0 0 1 0 0 0 1 67.077242347483747 41.760378687099795 15.568348701136394 1 rotate no_reflect no_shear #
lump $-1 $-1 $26 $5 #
transform $-1 1 0 0 0 1 0 0 0 1 67.077242347483747 41.760378687099795 15.568348701136394 1 rotate no_reflect no_shear #
lump $-1 $-1 $27 $6 #
transform $-1 1 0 0 0 1 0 0 0 1 67.077242347483747 41.760378687099795 15.568348701136394 1 rotate no_reflect no_shear #
shell $-1 $-1 $-1 $28 $-1 $7 #
shell $-1 $-1 $-1 $29 $-1 $9 #
shell $-1 $-1 $-1 $30 $-1 $11 #
shell $-1 $-1 $-1 $31 $-1 $13 #
shell $-1 $-1 $-1 $32 $-1 $15 #
shell $-1 $-1 $-1 $33 $-1 $17 #
shell $-1 $-1 $-1 $34 $-1 $19 #
face $-1 $35 $36 $21 $-1 $37 forward single #
face $-1 $38 $39 $22 $-1 $40 forward single #
face $-1 $41 $42 $23 $-1 $43 forward single #
face $-1 $44 $45 $24 $-1 $46 reversed single #
face $-1 $47 $48 $25 $-1 $49 forward single #
face $-1 $50 $51 $26 $-1 $52 forward single #
face $-1 $53 $54 $27 $-1 $55 forward single #
face $-1 $56 $57 $21 $-1 $58 reversed single #
loop $-1 $-1 $59 $28 #
plane-surface $-1 0 0 15.568348701136394 0 0 1 1 0 0 forward_v I I I I #
face $-1 $60 $61 $22 $-1 $62 reversed single #
loop $-1 $-1 $63 $29 #
plane-surface $-1 -59.381022729163064 0 -11.36455721464344 0 0 1 1 0 0 forward_v I I I I #
face $-1 $64 $65 $23 $-1 $66 reversed single #
loop $-1 $-1 $67 $30 #
plane-surface $-1 59.381022729163064 0 -11.36455721464344 0 0 1 1 0 0 forward_v I I I I #
face $-1 $68 $69 $24 $-1 $70 reversed single #
loop $-1 $-1 $71 $31 #
plane-surface $-1 11.841181379418742 -144.52867731885959 95.782513515578586 1 0 0 0 0.7660444514056185 -0.64278759981090561 forward_v I I I I #
face $-1 $72 $73 $25 $-1 $74 forward single #
loop $-1 $75 $76 $32 #
cone-surface $-1 14.239941753540407 -37.966094494512021 11.494067791382484 0 0.7660444514056185 -0.64278759981090561 1 0 0 1 I I 0 1 1 forward I I I I #
face $-1 $77 $78 $26 $-1 $79 forward single #
loop $-1 $80 $81 $33 #
cone-surface $-1 17.838082314722911 -37.966094494512021 11.494067791382484 0 0.7660444514056185 -0.64278759981090561 1 0 0 1 I I 0 1 1 forward I I I I #
face $-1 $82 $83 $27 $-1 $84 forward single #
loop $-1 $85 $86 $34 #
cone-surface $-1 21.436222875905415 -37.966094494512021 11.494067791382484 0 0.7660444514056185 -0.64278759981090561 1 0 0 1 I I 0 1 1 forward I I I I #
face $-1 $87 $88 $21 $-1 $89 reversed single #
loop $-1 $-1 $90 $35 #
plane-surface $-1 0 0 -15.568348701136394 0 0 1 1 0 0 forward_v I I I I #
coedge $-1 $91 $92 $93 $94 forward $36 $-1 #
face $-1 $95 $96 $22 $-1 $97 reversed single #
loop $-1 $-1 $98 $38 #
plane-surface $-1 -51.684803110842381 0 -13.466452957889917 -1 0 0 0 0 1 forward_v I I I I #
coedge $-1 $99 $100 $101 $102 forward $39 $-1 #
face $-1 $103 $104 $23 $-1 $105 reversed single #
loop $-1 $-1 $106 $41 #
plane-surface $-1 51.684803110842381 0 -13.466452957889917 1 0 0 0 0 -1 forward_v I I I I #
coedge $-1 $107 $108 $109 $110 reversed $42 $-1 #
face $-1 $111 $112 $24 $-1 $113 reversed single #
loop $-1 $-1 $114 $44 #
plane-surface $-1 17.838082314722911 -41.760378687099774 9.5496742946315578 0 -0.7660444514056185 0.64278759981090561 1 0 0 forward_v I I I I #
coedge $-1 $115 $116 $117 $118 reversed $45 $-1 #
face $-1 $-1 $119 $25 $-1 $120 forward single #
loop $-1 $121 $122 $47 #
cone-surface $-1 14.239941753540407 -36.313921747447573 10.107730284975531 0 0.7660444514056185 -0.64278759981090561 0.5 0 0 1 I I -0.70710678118654746 0.70710678118654746 0.5 forward I I I I #
loop $-1 $-1 $123 $32 #
coedge $-1 $76 $76 $124 $125 reversed $48 $-1 #
face $-1 $-1 $126 $26 $-1 $127 forward single #
loop $-1 $128 $129 $50 #
cone-surface $-1 17.838082314722911 -36.313921747447573 10.107730284975531 0 0.7660444514056185 -0.64278759981090561 0.5 0 0 1 I I -0.70710678118654746 0.70710678118654746 0.5 forward I I I I #
loop $-1 $-1 $130 $33 #
coedge $-1 $81 $81 $131 $132 reversed $51 $-1 #
face $-1 $-1 $133 $27 $-1 $134 forward single #
loop $-1 $135 $136 $53 #
cone-surface $-1 21.436222875905415 -36.313921747447573 10.107730284975531 0 0.7660444514056185 -0.64278759981090561 0.5 0 0 1 I I -0.70710678118654746 0.70710678118654746 0.5 forward I I I I #
loop $-1 $-1 $137 $34 #
coedge $-1 $86 $86 $138 $139 reversed $54 $-1 #
face $-1 $140 $141 $21 $-1 $142 reversed single #
loop $-1 $-1 $143 $56 #
plane-surface $-1 0 -41.760378687099795 0 0 1 0 0 0 1 forward_v I I I I #
coedge $-1 $144 $145 $146 $147 forward $57 $-1 #
coedge $-1 $148 $59 $149 $150 forward $36 $-1 #
coedge $-1 $59 $148 $151 $152 forward $36 $-1 #
coedge $-1 $153 $154 $59 $94 reversed $155 $-1 #
edge $-1 $156 -41.760378687099795 $157 41.760378687099795 $93 $158 forward 7 unknown #
face $-1 $159 $160 $22 $-1 $161 reversed single #
loop $-1 $-1 $162 $60 #
plane-surface $-1 0 0 -15.568348701136394 0 0 1 1 0 0 forward_v I I I I #
coedge $-1 $163 $101 $164 $165 reversed $61 $-1 #
coedge $-1 $166 $63 $167 $168 reversed $39 $-1 #
coedge $-1 $63 $166 $169 $170 reversed $39 $-1 #
coedge $-1 $98 $171 $63 $102 reversed $61 $-1 #
edge $-1 $172 -41.760378687099795 $173 41.760378687099795 $101 $174 forward 7 unknown #
face $-1 $175 $176 $23 $-1 $177 reversed single #
loop $-1 $-1 $178 $64 #
plane-surface $-1 0 -41.760378687099795 0 0 1 0 0 0 1 forward_v I I I I #
coedge $-1 $179 $180 $181 $182 reversed $65 $-1 #
coedge $-1 $183 $67 $184 $185 reversed $42 $-1 #
coedge $-1 $67 $183 $178 $186 reversed $42 $-1 #
coedge $-1 $187 $188 $67 $110 forward $189 $-1 #
edge $-1 $190 -41.760378687099795 $191 41.760378687099795 $109 $192 forward 7 unknown #
face $-1 $193 $194 $24 $-1 $195 forward single #
loop $-1 $-1 $196 $68 #
plane-surface $-1 23.834983250027079 -144.52867731885959 95.782513515578586 -1 0 0 0 -0.7660444514056185 0.64278759981090561 forward_v I I I I #
coedge $-1 $197 $198 $199 $200 reversed $69 $-1 #
coedge $-1 $116 $71 $201 $202 reversed $45 $-1 #
coedge $-1 $71 $115 $197 $203 reversed $45 $-1 #
coedge $-1 $199 $204 $71 $118 forward $205 $-1 #
edge $-1 $206 32.322908056652899 $207 38.341582463157764 $117 $208 forward 7 unknown #
loop $-1 $-1 $124 $72 #
plane-surface $-1 17.838082314722911 -41.760378687099774 9.5496742946315578 0 -0.7660444514056185 0.64278759981090561 1 0 0 forward_v I I I I #
loop $-1 $-1 $209 $47 #
coedge $-1 $122 $122 $123 $210 reversed $73 $-1 #
coedge $-1 $123 $123 $122 $210 forward $75 $-1 #
coedge $-1 $124 $124 $76 $125 forward $119 $-1 #
edge $-1 $211 -9.4158785079447446e-017 $211 6.2831853071796004 $124 $212 forward 7 unknown #
loop $-1 $-1 $131 $77 #
plane-surface $-1 17.838082314722911 -41.760378687099774 9.5496742946315578 0 -0.7660444514056185 0.64278759981090561 1 0 0 forward_v I I I I #
loop $-1 $-1 $213 $50 #
coedge $-1 $129 $129 $130 $214 reversed $78 $-1 #
coedge $-1 $130 $130 $129 $214 forward $80 $-1 #
coedge $-1 $131 $131 $81 $132 forward $126 $-1 #
edge $-1 $215 -9.4158785079447446e-017 $215 6.2831853071796004 $131 $216 forward 7 unknown #
loop $-1 $-1 $138 $82 #
plane-surface $-1 17.838082314722911 -41.760378687099774 9.5496742946315578 0 -0.7660444514056185 0.64278759981090561 1 0 0 forward_v I I I I #
loop $-1 $-1 $217 $53 #
coedge $-1 $136 $136 $137 $218 reversed $83 $-1 #
coedge $-1 $137 $137 $136 $218 forward $85 $-1 #
coedge $-1 $138 $138 $86 $139 forward $133 $-1 #
edge $-1 $219 -9.4158785079447446e-017 $219 6.2831853071796004 $138 $220 forward 7 unknown #
face $-1 $221 $222 $21 $-1 $223 reversed single #
loop $-1 $-1 $224 $87 #
plane-surface $-1 -67.077242347483747 0 0 1 0 0 0 0 -1 forward_v I I I I #
coedge $-1 $225 $151 $226 $227 forward $88 $-1 #
coedge $-1 $228 $90 $225 $229 forward $57 $-1 #
coedge $-1 $90 $228 $230 $231 forward $57 $-1 #
coedge $-1 $154 $153 $90 $147 reversed $155 $-1 #
edge $-1 $232 -41.760378687099795 $233 41.760378687099795 $146 $234 forward 7 unknown #
coedge $-1 $92 $91 $235 $236 forward $36 $-1 #
coedge $-1 $237 $238 $91 $150 reversed $222 $-1 #
edge $-1 $157 -67.077242347483747 $239 67.077242347483747 $149 $240 forward 7 unknown #
coedge $-1 $143 $241 $92 $152 reversed $88 $-1 #
edge $-1 $242 -67.077242347483747 $156 67.077242347483747 $151 $243 forward 7 unknown #
coedge $-1 $146 $93 $241 $244 forward $155 $-1 #
coedge $-1 $93 $146 $237 $245 reversed $155 $-1 #
loop $-1 $-1 $153 $221 #
vertex $-1 $94 $246 #
vertex $-1 $94 $247 #
straight-curve $-1 67.077242347483747 0 15.568348701136394 0 1 0 I I #
face $-1 $248 $249 $22 $-1 $250 reversed single #
loop $-1 $-1 $164 $95 #
plane-surface $-1 0 -41.760378687099795 0 0 1 0 0 0 1 forward_v I I I I #
coedge $-1 $251 $252 $163 $253 forward $96 $-1 #
coedge $-1 $171 $98 $162 $253 reversed $61 $-1 #
coedge $-1 $169 $254 $98 $165 forward $160 $-1 #
edge $-1 $255 -8.8351222221914352 $172 -4.6313307356984819 $164 $256 forward 7 unknown #
coedge $-1 $100 $99 $257 $258 reversed $39 $-1 #
coedge $-1 $259 $260 $99 $168 forward $261 $-1 #
edge $-1 $262 -37.386730982902215 $173 -21.994291746260849 $167 $263 forward 7 unknown #
coedge $-1 $264 $164 $100 $170 forward $160 $-1 #
edge $-1 $172 21.994291746260849 $265 37.386730982902215 $169 $266 forward 7 unknown #
coedge $-1 $101 $163 $259 $267 reversed $61 $-1 #
vertex $-1 $170 $268 #
vertex $-1 $168 $269 #
straight-curve $-1 -51.684803110842381 0 -11.36455721464344 0 1 0 I I #
face $-1 $270 $271 $23 $-1 $272 reversed single #
loop $-1 $-1 $273 $103 #
plane-surface $-1 0 0 -15.568348701136394 0 0 1 1 0 0 forward_v I I I I #
coedge $-1 $274 $275 $108 $186 forward $104 $-1 #
coedge $-1 $276 $106 $273 $277 reversed $65 $-1 #
coedge $-1 $106 $276 $183 $278 reversed $65 $-1 #
coedge $-1 $184 $279 $106 $182 forward $271 $-1 #
edge $-1 $280 -8.8351222221914352 $281 -4.6313307356984819 $181 $282 forward 7 unknown #
coedge $-1 $108 $107 $180 $278 forward $42 $-1 #
coedge $-1 $283 $181 $107 $185 forward $271 $-1 #
edge $-1 $281 21.994291746260849 $190 37.386730982902215 $184 $284 forward 7 unknown #
edge $-1 $191 -37.386730982902215 $285 -21.994291746260849 $178 $286 forward 7 unknown #
coedge $-1 $287 $109 $275 $288 forward $189 $-1 #
coedge $-1 $109 $287 $283 $289 reversed $189 $-1 #
loop $-1 $-1 $109 $270 #
vertex $-1 $289 $290 #
vertex $-1 $288 $291 #
straight-curve $-1 67.077242347483747 0 -11.36455721464344 0 -1 0 I I #
face $-1 $-1 $205 $24 $-1 $292 reversed single #
loop $-1 $-1 $293 $111 #
plane-surface $-1 0 0 15.568348701136394 0 0 1 1 0 0 forward_v I I I I #
coedge $-1 $294 $295 $296 $297 reversed $112 $-1 #
coedge $-1 $298 $114 $116 $203 forward $69 $-1 #
coedge $-1 $114 $298 $294 $299 forward $69 $-1 #
coedge $-1 $296 $117 $114 $200 forward $205 $-1 #
edge $-1 $207 2.922140222057287 $300 14.915942092665624 $199 $301 forward 7 unknown #
coedge $-1 $302 $303 $115 $202 forward $194 $-1 #
edge $-1 $304 -35.55422731478231 $206 -30.503959972330001 $201 $305 forward 7 unknown #
edge $-1 $207 -3.2752597998015054e-014 $304 7.8568213573783421 $116 $306 forward 7 unknown #
coedge $-1 $117 $296 $302 $307 reversed $205 $-1 #
loop $-1 $-1 $296 $193 #
vertex $-1 $307 $308 #
vertex $-1 $118 $309 #
straight-curve $-1 11.841181379418742 -41.760378687099795 47.891256757789293 0 0 -1 I I #
coedge $-1 $209 $209 $-1 $310 reversed $121 $-1 #
edge $-1 $311 0 $311 6.2831853071796004 $122 $312 forward 7 unknown #
vertex $-1 $125 $313 #
ellipse-curve $-1 14.239941753540407 -39.235245015873637 12.559011497883967 0 -0.7660444514056185 0.64278759981090561 1 0 0 1 I I #
coedge $-1 $213 $213 $-1 $314 reversed $128 $-1 #
edge $-1 $315 0 $315 6.2831853071796004 $129 $316 forward 7 unknown #
vertex $-1 $132 $317 #
ellipse-curve $-1 17.838082314722911 -39.235245015873637 12.559011497883967 0 -0.7660444514056185 0.64278759981090561 1 0 0 1 I I #
coedge $-1 $217 $217 $-1 $318 reversed $135 $-1 #
edge $-1 $319 0 $319 6.2831853071796004 $136 $320 forward 7 unknown #
vertex $-1 $139 $321 #
ellipse-curve $-1 21.436222875905415 -39.235245015873637 12.559011497883967 0 -0.7660444514056185 0.64278759981090561 1 0 0 1 I I #
face $-1 $-1 $155 $21 $-1 $322 reversed single #
loop $-1 $-1 $237 $140 #
plane-surface $-1 0 41.760378687099795 0 0 -1 0 0 0 -1 forward_v I I I I #
coedge $-1 $323 $235 $238 $324 forward $141 $-1 #
coedge $-1 $241 $143 $144 $229 reversed $88 $-1 #
coedge $-1 $235 $323 $143 $227 reversed $141 $-1 #
edge $-1 $242 -15.568348701136394 $325 15.568348701136394 $226 $326 forward 7 unknown #
coedge $-1 $145 $144 $323 $327 forward $57 $-1 #
edge $-1 $233 -67.077242347483747 $325 67.077242347483747 $225 $328 forward 7 unknown #
coedge $-1 $238 $237 $145 $231 reversed $222 $-1 #
edge $-1 $329 -67.077242347483747 $232 67.077242347483747 $230 $330 forward 7 unknown #
vertex $-1 $147 $331 #
vertex $-1 $244 $332 #
straight-curve $-1 67.077242347483747 0 -15.568348701136394 0 -1 0 I I #
coedge $-1 $224 $226 $148 $236 reversed $141 $-1 #
edge $-1 $239 -41.760378687099795 $242 41.760378687099795 $235 $333 forward 7 unknown #
coedge $-1 $230 $149 $154 $245 forward $222 $-1 #
coedge $-1 $149 $230 $224 $324 reversed $222 $-1 #
vertex $-1 $150 $334 #
straight-curve $-1 0 41.760378687099795 15.568348701136394 -1 0 0 I I #
coedge $-1 $151 $225 $153 $244 reversed $88 $-1 #
vertex $-1 $236 $335 #
straight-curve $-1 0 -41.760378687099795 15.568348701136394 1 0 0 I I #
edge $-1 $156 -15.568348701136394 $233 15.568348701136394 $153 $336 forward 7 unknown #
edge $-1 $157 -15.568348701136394 $232 15.568348701136394 $154 $337 forward 7 unknown #
point $-1 67.077242347483747 -41.760378687099795 15.568348701136394 #
point $-1 67.077242347483747 41.760378687099795 15.568348701136394 #
face $-1 $-1 $261 $22 $-1 $338 reversed single #
loop $-1 $-1 $257 $159 #
plane-surface $-1 -67.077242347483747 0 0 1 0 0 0 0 -1 forward_v I I I I #
coedge $-1 $339 $162 $254 $340 forward $96 $-1 #
coedge $-1 $162 $339 $341 $342 forward $96 $-1 #
edge $-1 $343 -41.760378687099795 $255 41.760378687099795 $162 $344 forward 7 unknown #
coedge $-1 $164 $264 $251 $340 reversed $160 $-1 #
vertex $-1 $340 $345 #
straight-curve $-1 -51.684803110842381 -41.760378687099795 -6.7332264789449585 0 0 1 I I #
coedge $-1 $346 $347 $166 $258 forward $249 $-1 #
edge $-1 $265 -41.760378687099795 $262 41.760378687099795 $257 $348 forward 7 unknown #
coedge $-1 $341 $167 $171 $267 forward $261 $-1 #
coedge $-1 $167 $341 $346 $349 reversed $261 $-1 #
loop $-1 $-1 $259 $248 #
vertex $-1 $349 $350 #
straight-curve $-1 -29.690511364581532 41.760378687099795 -11.36455721464344 1 0 0 I I #
coedge $-1 $254 $169 $347 $351 forward $160 $-1 #
vertex $-1 $351 $352 #
straight-curve $-1 -29.690511364581532 -41.760378687099795 -11.36455721464344 -1 0 0 I I #
edge $-1 $173 4.6313307356984819 $343 8.8351222221914352 $259 $353 forward 7 unknown #
point $-1 -51.684803110842381 -41.760378687099795 -11.36455721464344 #
point $-1 -51.684803110842381 41.760378687099795 -11.36455721464344 #
face $-1 $-1 $189 $23 $-1 $354 reversed single #
loop $-1 $-1 $184 $175 #
plane-surface $-1 0 41.760378687099795 0 0 -1 0 0 0 -1 forward_v I I I I #
coedge $-1 $355 $356 $179 $277 forward $176 $-1 #
coedge $-1 $357 $178 $276 $358 forward $104 $-1 #
coedge $-1 $178 $357 $187 $288 reversed $104 $-1 #
coedge $-1 $180 $179 $274 $358 reversed $65 $-1 #
edge $-1 $359 -41.760378687099795 $280 41.760378687099795 $273 $360 forward 7 unknown #
edge $-1 $281 -41.760378687099795 $285 41.760378687099795 $180 $361 forward 7 unknown #
coedge $-1 $181 $283 $355 $362 reversed $271 $-1 #
vertex $-1 $362 $363 #
vertex $-1 $185 $364 #
straight-curve $-1 51.684803110842381 41.760378687099795 -6.7332264789449585 0 0 1 I I #
coedge $-1 $279 $184 $188 $289 forward $271 $-1 #
straight-curve $-1 29.690511364581532 41.760378687099795 -11.36455721464344 1 0 0 I I #
vertex $-1 $186 $365 #
straight-curve $-1 29.690511364581532 -41.760378687099795 -11.36455721464344 -1 0 0 I I #
coedge $-1 $188 $187 $366 $367 reversed $189 $-1 #
edge $-1 $191 11.36455721464344 $368 15.568348701136394 $187 $369 forward 7 unknown #
edge $-1 $190 11.36455721464344 $370 15.568348701136394 $188 $371 forward 7 unknown #
point $-1 67.077242347483747 41.760378687099795 -11.36455721464344 #
point $-1 67.077242347483747 -41.760378687099795 -11.36455721464344 #
plane-surface $-1 0 -41.760378687099795 0 0 1 0 0 0 1 forward_v I I I I #
coedge $-1 $303 $302 $295 $372 forward $194 $-1 #
coedge $-1 $295 $196 $198 $299 reversed $112 $-1 #
coedge $-1 $196 $294 $293 $372 reversed $112 $-1 #
coedge $-1 $204 $199 $196 $297 forward $205 $-1 #
edge $-1 $300 -38.341582463157764 $373 -32.322908056652899 $296 $374 forward 7 unknown #
coedge $-1 $198 $197 $303 $375 reversed $69 $-1 #
edge $-1 $376 -7.8568213573783421 $300 3.2752597998015054e-014 $294 $377 forward 7 unknown #
vertex $-1 $200 $378 #
straight-curve $-1 8.9190411573614554 -41.760378687099795 9.5496742946315401 1 0 0 I I #
coedge $-1 $293 $201 $204 $307 forward $194 $-1 #
coedge $-1 $201 $293 $298 $375 forward $194 $-1 #
vertex $-1 $202 $379 #
straight-curve $-1 11.841181379418742 -72.264338659429797 15.568348701136394 0 -1 0 I I #
straight-curve $-1 11.841181379418742 -41.760378687099774 9.5496742946315578 0 0.64278759981090561 0.7660444514056185 I I #
edge $-1 $206 11.841181379418742 $373 23.834983250027079 $204 $380 forward 7 unknown #
point $-1 11.841181379418742 -41.760378687099795 15.568348701136394 #
point $-1 11.841181379418742 -41.760378687099795 9.5496742946315329 #
edge $-1 $381 1 $381 0 $209 $-1 forward 7 unknown #
vertex $-1 $210 $382 #
ellipse-curve $-1 14.239941753540407 -36.696943973150383 10.429124084880984 0 -0.7660444514056185 0.64278759981090561 1 0 0 1 I I #
point $-1 15.239941753540407 -39.235245015873659 12.559011497883985 #
edge $-1 $383 1 $383 0 $213 $-1 forward 7 unknown #
vertex $-1 $214 $384 #
ellipse-curve $-1 17.838082314722911 -36.696943973150383 10.429124084880984 0 -0.7660444514056185 0.64278759981090561 1 0 0 1 I I #
point $-1 18.838082314722911 -39.235245015873659 12.559011497883985 #
edge $-1 $385 1 $385 0 $217 $-1 forward 7 unknown #
vertex $-1 $218 $386 #
ellipse-curve $-1 21.436222875905415 -36.696943973150383 10.429124084880984 0 -0.7660444514056185 0.64278759981090561 1 0 0 1 I I #
point $-1 22.436222875905415 -39.235245015873659 12.559011497883985 #
plane-surface $-1 67.077242347483747 0 0 -1 0 0 0 0 1 forward_v I I I I #
coedge $-1 $226 $224 $228 $327 reversed $141 $-1 #
edge $-1 $239 -15.568348701136394 $329 15.568348701136394 $238 $387 forward 7 unknown #
vertex $-1 $327 $388 #
straight-curve $-1 -67.077242347483747 -41.760378687099795 0 0 0 -1 I I #
edge $-1 $325 -41.760378687099795 $329 41.760378687099795 $323 $389 forward 7 unknown #
straight-curve $-1 0 -41.760378687099795 -15.568348701136394 -1 0 0 I I #
vertex $-1 $231 $390 #
straight-curve $-1 0 41.760378687099795 -15.568348701136394 1 0 0 I I #
point $-1 67.077242347483747 41.760378687099795 -15.568348701136394 #
point $-1 67.077242347483747 -41.760378687099795 -15.568348701136394 #
straight-curve $-1 -67.077242347483747 0 15.568348701136394 0 -1 0 I I #
point $-1 -67.077242347483747 41.760378687099795 15.568348701136394 #
point $-1 -67.077242347483747 -41.760378687099795 15.568348701136394 #
straight-curve $-1 67.077242347483747 -41.760378687099795 0 0 0 -1 I I #
straight-curve $-1 67.077242347483747 41.760378687099795 0 0 0 -1 I I #
plane-surface $-1 0 41.760378687099795 0 0 -1 0 0 0 -1 forward_v I I I I #
coedge $-1 $252 $251 $391 $392 forward $96 $-1 #
edge $-1 $255 51.684803110842381 $393 67.077242347483747 $254 $394 forward 7 unknown #
coedge $-1 $260 $259 $252 $342 reversed $261 $-1 #
edge $-1 $395 -67.077242347483747 $343 -51.684803110842381 $341 $396 forward 7 unknown #
vertex $-1 $267 $397 #
straight-curve $-1 -51.684803110842381 0 -15.568348701136394 0 -1 0 I I #
point $-1 -51.684803110842381 -41.760378687099795 -15.568348701136394 #
coedge $-1 $391 $257 $260 $349 forward $249 $-1 #
coedge $-1 $257 $391 $264 $351 reversed $249 $-1 #
straight-curve $-1 -67.077242347483747 0 -11.36455721464344 0 1 0 I I #
edge $-1 $262 11.36455721464344 $395 15.568348701136394 $260 $398 forward 7 unknown #
point $-1 -67.077242347483747 41.760378687099795 -11.36455721464344 #
edge $-1 $265 11.36455721464344 $393 15.568348701136394 $347 $399 forward 7 unknown #
point $-1 -67.077242347483747 -41.760378687099795 -11.36455721464344 #
straight-curve $-1 -51.684803110842381 41.760378687099795 -6.7332264789449585 0 0 -1 I I #
plane-surface $-1 67.077242347483747 0 0 -1 0 0 0 0 1 forward_v I I I I #
coedge $-1 $366 $273 $279 $362 forward $176 $-1 #
coedge $-1 $273 $366 $357 $400 forward $176 $-1 #
coedge $-1 $275 $274 $356 $400 reversed $104 $-1 #
edge $-1 $285 4.6313307356984819 $359 8.8351222221914352 $274 $401 forward 7 unknown #
vertex $-1 $277 $402 #
straight-curve $-1 51.684803110842381 0 -15.568348701136394 0 1 0 I I #
straight-curve $-1 51.684803110842381 0 -11.36455721464344 0 -1 0 I I #
edge $-1 $280 51.684803110842381 $370 67.077242347483747 $279 $403 forward 7 unknown #
point $-1 51.684803110842381 41.760378687099795 -15.568348701136394 #
point $-1 51.684803110842381 41.760378687099795 -11.36455721464344 #
point $-1 51.684803110842381 -41.760378687099795 -11.36455721464344 #
coedge $-1 $356 $355 $287 $367 forward $176 $-1 #
edge $-1 $370 -41.760378687099795 $368 41.760378687099795 $287 $404 forward 7 unknown #
vertex $-1 $288 $405 #
straight-curve $-1 67.077242347483747 -41.760378687099795 0 0 0 -1 I I #
vertex $-1 $367 $406 #
straight-curve $-1 67.077242347483747 41.760378687099795 0 0 0 -1 I I #
edge $-1 $373 30.503959972330001 $376 35.55422731478231 $293 $407 forward 7 unknown #
vertex $-1 $372 $408 #
straight-curve $-1 23.834983250027079 -41.760378687099795 47.891256757789293 0 0 1 I I #
edge $-1 $376 -14.915942092665624 $304 -2.922140222057287 $303 $409 forward 7 unknown #
vertex $-1 $375 $410 #
straight-curve $-1 23.834983250027079 -41.760378687099774 9.5496742946315578 0 -0.64278759981090561 -0.7660444514056185 I I #
point $-1 23.834983250027079 -41.760378687099795 9.5496742946315329 #
point $-1 11.841181379418742 -36.710111344647487 15.568348701136394 #
straight-curve $-1 0 -41.760378687099795 15.568348701136394 1 0 0 I I #
vertex $-1 $310 $411 #
point $-1 15.239941753540407 -36.696943973150383 10.429124084880984 #
vertex $-1 $314 $412 #
point $-1 18.838082314722911 -36.696943973150383 10.429124084880984 #
vertex $-1 $318 $413 #
point $-1 22.436222875905415 -36.696943973150383 10.429124084880984 #
straight-curve $-1 -67.077242347483747 41.760378687099795 0 0 0 -1 I I #
point $-1 -67.077242347483747 -41.760378687099795 -15.568348701136394 #
straight-curve $-1 -67.077242347483747 0 -15.568348701136394 0 1 0 I I #
point $-1 -67.077242347483747 41.760378687099795 -15.568348701136394 #
coedge $-1 $347 $346 $339 $392 reversed $249 $-1 #
edge $-1 $393 -41.760378687099795 $395 41.760378687099795 $391 $414 forward 7 unknown #
vertex $-1 $392 $415 #
straight-curve $-1 0 -41.760378687099795 -15.568348701136394 -1 0 0 I I #
vertex $-1 $342 $416 #
straight-curve $-1 0 41.760378687099795 -15.568348701136394 1 0 0 I I #
point $-1 -51.684803110842381 41.760378687099795 -15.568348701136394 #
straight-curve $-1 -67.077242347483747 41.760378687099795 0 0 0 -1 I I #
straight-curve $-1 -67.077242347483747 -41.760378687099795 0 0 0 -1 I I #
edge $-1 $368 -67.077242347483747 $359 -51.684803110842381 $357 $417 forward 7 unknown #
straight-curve $-1 51.684803110842381 -41.760378687099795 -6.7332264789449585 0 0 -1 I I #
point $-1 51.684803110842381 -41.760378687099795 -15.568348701136394 #
straight-curve $-1 0 41.760378687099795 -15.568348701136394 1 0 0 I I #
straight-curve $-1 67.077242347483747 0 -15.568348701136394 0 -1 0 I I #
point $-1 67.077242347483747 -41.760378687099795 -15.568348701136394 #
point $-1 67.077242347483747 41.760378687099795 -15.568348701136394 #
straight-curve $-1 23.834983250027079 -72.264338659429797 15.568348701136394 0 1 0 I I #
point $-1 23.834983250027079 -41.760378687099795 15.568348701136394 #
straight-curve $-1 8.9190411573614554 -36.710111344647487 15.568348701136394 -1 0 0 I I #
point $-1 23.834983250027079 -36.710111344647487 15.568348701136394 #
point $-1 14.239941753540407 -35.930899521744763 9.7863364850700787 #
point $-1 17.838082314722911 -35.930899521744763 9.7863364850700787 #
point $-1 21.436222875905415 -35.930899521744763 9.7863364850700787 #
straight-curve $-1 -67.077242347483747 0 -15.568348701136394 0 1 0 I I #
point $-1 -67.077242347483747 -41.760378687099795 -15.568348701136394 #
point $-1 -67.077242347483747 41.760378687099795 -15.568348701136394 #
straight-curve $-1 0 -41.760378687099795 -15.568348701136394 -1 0 0 I I #
End-of-ACIS-data 