500 0 7 0           
7 Unknown 11 ACIS 5.0 NT 24 Fri Mar 26 15:33:50 1999 
-1 9.9999999999999995e-007 1e-010 
body $-1 $7 $-1 $8 #
body $-1 $9 $-1 $10 #
body $-1 $11 $-1 $12 #
body $-1 $13 $-1 $14 #
body $-1 $15 $-1 $16 #
body $-1 $17 $-1 $18 #
body $-1 $19 $-1 $20 #
lump $-1 $-1 $21 $0 #
transform $-1 1 0 0 0 1 0 0 0 1 73.375041962950533 45.271417839795475 10.403846266586136 1 rotate no_reflect no_shear #
lump $-1 $-1 $22 $1 #
transform $-1 1 0 0 0 1 0 0 0 1 73.375041962950533 45.271417839795475 10.403846266586136 1 rotate no_reflect no_shear #
lump $-1 $-1 $23 $2 #
transform $-1 1 0 0 0 1 0 0 0 1 73.375041962950533 45.271417839795475 10.403846266586136 1 rotate no_reflect no_shear #
lump $-1 $-1 $24 $3 #
transform $-1 1 0 0 0 1 0 0 0 1 73.375041962950533 45.271417839795475 10.403846266586136 1 rotate no_reflect no_shear #
lump $-1 $-1 $25 $4 #
transform $-1 1 0 0 0 1 0 0 0 1 73.375041962950533 45.271417839795475 10.403846266586136 1 rotate no_reflect no_shear #
lump $-1 $-1 $26 $5 #
transform $-1 1 0 0 0 1 0 0 0 1 73.375041962950533 45.271417839795475 10.403846266586136 1 rotate no_reflect no_shear #
lump $-1 $-1 $27 $6 #
transform $-1 1 0 0 0 1 0 0 0 1 73.375041962950533 45.271417839795475 10.403846266586136 1 rotate no_reflect no_shear #
shell $-1 $-1 $-1 $28 $-1 $7 #
shell $-1 $-1 $-1 $29 $-1 $9 #
shell $-1 $-1 $-1 $30 $-1 $11 #
shell $-1 $-1 $-1 $31 $-1 $13 #
shell $-1 $-1 $-1 $32 $-1 $15 #
shell $-1 $-1 $-1 $33 $-1 $17 #
shell $-1 $-1 $-1 $34 $-1 $19 #
face $-1 $35 $36 $21 $-1 $37 forward single #
face $-1 $38 $39 $22 $-1 $40 forward single #
face $-1 $41 $42 $23 $-1 $43 reversed single #
face $-1 $44 $45 $24 $-1 $46 forward single #
face $-1 $47 $48 $25 $-1 $49 forward single #
face $-1 $50 $51 $26 $-1 $52 reversed single #
face $-1 $53 $54 $27 $-1 $55 forward single #
face $-1 $56 $57 $21 $-1 $58 reversed single #
loop $-1 $-1 $59 $28 #
plane-surface $-1 0 0 10.403846266586136 0 0 1 1 0 0 forward_v I I I I #
face $-1 $60 $61 $22 $-1 $62 reversed single #
loop $-1 $-1 $63 $29 #
plane-surface $-1 0 -45.271417839795475 0 0 1 0 0 0 1 forward_v I I I I #
face $-1 $64 $65 $23 $-1 $66 reversed single #
loop $-1 $-1 $67 $30 #
plane-surface $-1 -189.01568740058565 -4.8965753157690308 94.387079719158123 0 1 0 -0.78801076186113728 0 0.61566146476048833 forward_v I I I I #
face $-1 $68 $69 $24 $-1 $70 forward single #
loop $-1 $71 $72 $31 #
cone-surface $-1 -70.454138993523685 1.736821579752295 6.8818808107056864 0.78801076186113728 0 -0.61566146476048833 0.61566146476048833 0 0.78801076186113728 1 I I 0 1 1 forward I I I I #
face $-1 $73 $74 $25 $-1 $75 forward single #
loop $-1 $76 $77 $32 #
cone-surface $-1 -70.454138993523685 11.686916923034289 6.8818808107056864 0.78801076186113728 0 -0.61566146476048833 0.61566146476048833 0 0.78801076186113728 1 I I 0 1 1 forward I I I I #
face $-1 $78 $79 $26 $-1 $80 reversed single #
loop $-1 $-1 $81 $33 #
plane-surface $-1 26.689610847400033 -12.218010302074957 208.71210998492057 0 -1 0 -0.52991927123019833 0 -0.84804809178421925 forward_v I I I I #
face $-1 $82 $83 $27 $-1 $84 forward single #
loop $-1 $85 $86 $34 #
cone-surface $-1 69.449255109856921 -23.44995422357351 7.1720449183537029 -0.52991927123019833 0 -0.84804809178421925 0.84804809178421925 0 -0.52991927123019833 1 I I 0 1 1 forward I I I I #
face $-1 $87 $88 $21 $-1 $89 reversed single #
loop $-1 $-1 $90 $35 #
plane-surface $-1 0 0 -10.403846266586136 0 0 1 1 0 0 forward_v I I I I #
coedge $-1 $91 $92 $93 $94 forward $36 $-1 #
face $-1 $95 $96 $22 $-1 $97 forward single #
loop $-1 $-1 $98 $38 #
plane-surface $-1 -73.375041962950533 0 0 1 0 0 0 0 -1 forward_v I I I I #
coedge $-1 $99 $100 $101 $102 forward $39 $-1 #
face $-1 $103 $104 $23 $-1 $105 reversed single #
loop $-1 $-1 $106 $41 #
plane-surface $-1 -73.375041962950519 6.7118692513932956 4.0387080956132735 -0.78801076186113728 0 0.61566146476048833 0.61566146476048833 0 0.78801076186113728 forward_v I I I I #
coedge $-1 $107 $108 $109 $110 reversed $42 $-1 #
face $-1 $-1 $111 $24 $-1 $112 forward single #
loop $-1 $113 $114 $44 #
cone-surface $-1 -69.625726056305425 1.736821579752295 6.2346537079314146 0.78801076186113728 0 -0.61566146476048833 0.30783073238024417 0 0.39400538093056864 1 I I -0.70710678118654746 0.70710678118654746 0.5 forward I I I I #
loop $-1 $-1 $115 $31 #
coedge $-1 $72 $72 $116 $117 reversed $45 $-1 #
face $-1 $-1 $118 $25 $-1 $119 forward single #
loop $-1 $120 $121 $47 #
cone-surface $-1 -69.625726056305425 11.686916923034289 6.2346537079314146 0.78801076186113728 0 -0.61566146476048833 0.30783073238024417 0 0.39400538093056864 1 I I -0.70710678118654746 0.70710678118654746 0.5 forward I I I I #
loop $-1 $-1 $122 $32 #
coedge $-1 $77 $77 $123 $124 reversed $48 $-1 #
face $-1 $125 $126 $26 $-1 $127 reversed single #
loop $-1 $-1 $128 $50 #
plane-surface $-1 -51.076086679583909 -23.449954223573506 84.260981342386145 0.52991927123019833 0 0.84804809178421925 0.84804809178421925 0 -0.52991927123019833 forward_v I I I I #
coedge $-1 $129 $130 $131 $132 reversed $51 $-1 #
face $-1 $-1 $133 $27 $-1 $134 forward single #
loop $-1 $135 $136 $53 #
cone-surface $-1 68.386012288500254 -23.44995422357351 5.470500749821106 -0.52991927123019833 0 -0.84804809178421925 0.42402404589210962 0 -0.26495963561509916 1 I I -0.70710678118654746 0.70710678118654746 0.5 forward I I I I #
loop $-1 $-1 $137 $34 #
coedge $-1 $86 $86 $138 $139 reversed $54 $-1 #
face $-1 $140 $141 $21 $-1 $142 reversed single #
loop $-1 $-1 $143 $56 #
plane-surface $-1 0 -45.271417839795475 0 0 1 0 0 0 1 forward_v I I I I #
coedge $-1 $144 $145 $146 $147 forward $57 $-1 #
coedge $-1 $148 $59 $149 $150 forward $36 $-1 #
coedge $-1 $59 $148 $151 $152 forward $36 $-1 #
coedge $-1 $153 $154 $59 $94 reversed $155 $-1 #
edge $-1 $156 -45.271417839795475 $157 45.271417839795475 $93 $158 forward 7 unknown #
face $-1 $159 $160 $22 $-1 $161 reversed single #
loop $-1 $-1 $162 $60 #
plane-surface $-1 0 -50.566177687157186 -4.9681551684056053 0 0 1 1 0 0 forward_v I I I I #
coedge $-1 $163 $164 $100 $165 forward $61 $-1 #
coedge $-1 $166 $63 $167 $168 reversed $39 $-1 #
coedge $-1 $63 $166 $98 $165 reversed $39 $-1 #
coedge $-1 $169 $162 $63 $102 reversed $96 $-1 #
edge $-1 $170 -73.375041962950533 $171 73.375041962950533 $101 $172 forward 7 unknown #
face $-1 $173 $174 $23 $-1 $175 forward single #
loop $-1 $-1 $176 $64 #
plane-surface $-1 -189.01568740058565 18.320313818555622 94.387079719158123 0 -1 0 0.78801076186113728 0 -0.61566146476048833 forward_v I I I I #
coedge $-1 $177 $178 $179 $180 reversed $65 $-1 #
coedge $-1 $108 $67 $181 $182 reversed $42 $-1 #
coedge $-1 $67 $107 $177 $183 reversed $42 $-1 #
coedge $-1 $179 $184 $67 $110 forward $174 $-1 #
edge $-1 $185 21.132801737342291 $186 26.105792563620653 $109 $187 forward 7 unknown #
loop $-1 $-1 $116 $68 #
plane-surface $-1 -73.375041962950519 6.7118692513932956 4.0387080956132735 -0.78801076186113728 0 0.61566146476048833 0.61566146476048833 0 0.78801076186113728 forward_v I I I I #
loop $-1 $-1 $188 $44 #
coedge $-1 $114 $114 $115 $189 reversed $69 $-1 #
coedge $-1 $115 $115 $114 $189 forward $71 $-1 #
coedge $-1 $116 $116 $72 $117 forward $111 $-1 #
edge $-1 $190 0 $190 6.2831853071796004 $116 $191 forward 7 unknown #
loop $-1 $-1 $123 $73 #
plane-surface $-1 -73.375041962950519 6.7118692513932956 4.0387080956132735 -0.78801076186113728 0 0.61566146476048833 0.61566146476048833 0 0.78801076186113728 forward_v I I I I #
loop $-1 $-1 $192 $47 #
coedge $-1 $121 $121 $122 $193 reversed $74 $-1 #
coedge $-1 $122 $122 $121 $193 forward $76 $-1 #
coedge $-1 $123 $123 $77 $124 forward $118 $-1 #
edge $-1 $194 0 $194 6.2831853071796004 $123 $195 forward 7 unknown #
face $-1 $196 $197 $26 $-1 $198 reversed single #
loop $-1 $-1 $199 $78 #
plane-surface $-1 26.689610847400033 -34.681898145072054 208.71210998492057 0 1 0 0.52991927123019833 0 0.84804809178421925 forward_v I I I I #
coedge $-1 $200 $201 $202 $203 reversed $79 $-1 #
coedge $-1 $130 $81 $204 $205 reversed $51 $-1 #
coedge $-1 $81 $129 $200 $206 reversed $51 $-1 #
coedge $-1 $202 $207 $81 $132 forward $208 $-1 #
edge $-1 $209 -60.030236539250517 $210 -53.775229204546342 $131 $211 forward 7 unknown #
loop $-1 $-1 $138 $82 #
plane-surface $-1 -51.076086679583909 -23.449954223573506 84.260981342386145 0.52991927123019833 0 0.84804809178421925 0.84804809178421925 0 -0.52991927123019833 forward_v I I I I #
loop $-1 $-1 $212 $53 #
coedge $-1 $136 $136 $137 $213 reversed $83 $-1 #
coedge $-1 $137 $137 $136 $213 forward $85 $-1 #
coedge $-1 $138 $138 $86 $139 forward $133 $-1 #
edge $-1 $214 0 $214 6.2831853071796004 $138 $215 forward 7 unknown #
face $-1 $216 $217 $21 $-1 $218 reversed single #
loop $-1 $-1 $219 $87 #
plane-surface $-1 -73.375041962950533 0 0 1 0 0 0 0 -1 forward_v I I I I #
coedge $-1 $220 $151 $221 $222 forward $88 $-1 #
coedge $-1 $223 $90 $220 $224 forward $57 $-1 #
coedge $-1 $90 $223 $225 $226 forward $57 $-1 #
coedge $-1 $154 $153 $90 $147 reversed $155 $-1 #
edge $-1 $227 -45.271417839795475 $228 45.271417839795475 $146 $229 forward 7 unknown #
coedge $-1 $92 $91 $230 $231 forward $36 $-1 #
coedge $-1 $232 $233 $91 $150 reversed $217 $-1 #
edge $-1 $157 -73.375041962950533 $234 73.375041962950533 $149 $235 forward 7 unknown #
coedge $-1 $143 $236 $92 $152 reversed $88 $-1 #
edge $-1 $237 -73.375041962950533 $156 73.375041962950533 $151 $238 forward 7 unknown #
coedge $-1 $146 $93 $236 $239 forward $155 $-1 #
coedge $-1 $93 $146 $232 $240 reversed $155 $-1 #
loop $-1 $-1 $153 $216 #
vertex $-1 $94 $241 #
vertex $-1 $94 $242 #
straight-curve $-1 73.375041962950533 0 10.403846266586136 0 1 0 I I #
face $-1 $243 $244 $22 $-1 $245 reversed single #
loop $-1 $-1 $246 $95 #
plane-surface $-1 0 -50.566177687157186 -9.903846266586136 0 0 1 1 0 0 forward_v I I I I #
coedge $-1 $101 $247 $248 $249 forward $96 $-1 #
coedge $-1 $250 $98 $251 $252 reversed $61 $-1 #
coedge $-1 $98 $250 $169 $253 reversed $61 $-1 #
edge $-1 $170 4.9681551684056053 $254 9.903846266586136 $98 $255 forward 7 unknown #
coedge $-1 $100 $99 $256 $257 forward $39 $-1 #
coedge $-1 $248 $258 $99 $168 forward $259 $-1 #
edge $-1 $260 -9.903846266586136 $171 -4.9681551684056053 $167 $261 forward 7 unknown #
coedge $-1 $247 $101 $164 $253 forward $96 $-1 #
vertex $-1 $165 $262 #
vertex $-1 $249 $263 #
straight-curve $-1 0 -45.271417839795475 -4.9681551684056053 1 0 0 I I #
face $-1 $-1 $264 $23 $-1 $265 reversed single #
loop $-1 $-1 $109 $103 #
plane-surface $-1 0 0 10.403846266586136 0 0 1 1 0 0 forward_v I I I I #
coedge $-1 $266 $267 $268 $269 reversed $104 $-1 #
coedge $-1 $270 $106 $108 $183 forward $65 $-1 #
coedge $-1 $106 $270 $266 $271 forward $65 $-1 #
coedge $-1 $268 $109 $106 $180 forward $174 $-1 #
edge $-1 $186 -8.2525099414656786 $272 14.964379192858974 $179 $273 forward 7 unknown #
coedge $-1 $274 $275 $107 $182 forward $264 $-1 #
edge $-1 $276 -43.154831763965802 $185 -36.789693592992926 $181 $277 forward 7 unknown #
edge $-1 $186 -8.0774761958067298 $276 2.274695869299009e-014 $108 $278 forward 7 unknown #
coedge $-1 $109 $268 $274 $279 forward $174 $-1 #
vertex $-1 $182 $280 #
vertex $-1 $110 $281 #
straight-curve $-1 -94.507843700292824 -4.8965753157690308 10.403846266586136 1 0 0 I I #
coedge $-1 $188 $188 $-1 $282 reversed $113 $-1 #
edge $-1 $283 0 $283 6.2831853071796004 $114 $284 forward 7 unknown #
vertex $-1 $117 $285 #
ellipse-curve $-1 -70.888546549811352 1.736821579752295 7.2212771810996967 -0.78801076186113728 0 0.61566146476048833 0.61566146476048833 0 0.78801076186113728 1 I I #
coedge $-1 $192 $192 $-1 $286 reversed $120 $-1 #
edge $-1 $287 0 $287 6.2831853071796004 $121 $288 forward 7 unknown #
vertex $-1 $124 $289 #
ellipse-curve $-1 -70.888546549811352 11.686916923034289 7.2212771810996967 -0.78801076186113728 0 0.61566146476048833 0.61566146476048833 0 0.78801076186113728 1 I I #
face $-1 $-1 $208 $26 $-1 $290 forward single #
loop $-1 $-1 $291 $125 #
plane-surface $-1 73.375041962950533 0 0 -1 0 0 0 0 1 forward_v I I I I #
coedge $-1 $292 $293 $294 $295 reversed $126 $-1 #
coedge $-1 $296 $128 $130 $206 forward $79 $-1 #
coedge $-1 $128 $296 $292 $297 forward $79 $-1 #
coedge $-1 $294 $131 $128 $203 forward $208 $-1 #
edge $-1 $210 0.49303319028820347 $298 22.956921033285301 $202 $299 forward 7 unknown #
coedge $-1 $300 $301 $129 $205 forward $197 $-1 #
edge $-1 $302 -97.860771177058098 $209 -93.952208725874158 $204 $303 forward 7 unknown #
edge $-1 $210 139.37431432591981 $302 146.75008392590109 $130 $304 forward 7 unknown #
coedge $-1 $131 $294 $300 $305 forward $208 $-1 #
loop $-1 $-1 $294 $196 #
vertex $-1 $205 $306 #
vertex $-1 $132 $307 #
straight-curve $-1 13.344805423700016 -12.218010302074957 10.403846266586129 -1 0 0 I I #
coedge $-1 $212 $212 $-1 $308 reversed $135 $-1 #
edge $-1 $309 0 $309 6.2831853071796004 $136 $310 forward 7 unknown #
vertex $-1 $139 $311 #
ellipse-curve $-1 70.24753829559846 -23.44995422357351 8.4495650409941536 0.52991927123019833 0 0.84804809178421925 0.84804809178421925 0 -0.52991927123019833 1 I I #
face $-1 $-1 $155 $21 $-1 $312 reversed single #
loop $-1 $-1 $232 $140 #
plane-surface $-1 0 45.271417839795475 0 0 -1 0 0 0 -1 forward_v I I I I #
coedge $-1 $313 $230 $233 $314 forward $141 $-1 #
coedge $-1 $236 $143 $144 $224 reversed $88 $-1 #
coedge $-1 $230 $313 $143 $222 reversed $141 $-1 #
edge $-1 $237 -10.403846266586136 $315 10.403846266586136 $221 $316 forward 7 unknown #
coedge $-1 $145 $144 $313 $317 forward $57 $-1 #
edge $-1 $228 -73.375041962950533 $315 73.375041962950533 $220 $318 forward 7 unknown #
coedge $-1 $233 $232 $145 $226 reversed $217 $-1 #
edge $-1 $319 -73.375041962950533 $227 73.375041962950533 $225 $320 forward 7 unknown #
vertex $-1 $147 $321 #
vertex $-1 $239 $322 #
straight-curve $-1 73.375041962950533 0 -10.403846266586136 0 -1 0 I I #
coedge $-1 $219 $221 $148 $231 reversed $141 $-1 #
edge $-1 $234 -45.271417839795475 $237 45.271417839795475 $230 $323 forward 7 unknown #
coedge $-1 $225 $149 $154 $240 forward $217 $-1 #
coedge $-1 $149 $225 $219 $314 reversed $217 $-1 #
vertex $-1 $150 $324 #
straight-curve $-1 0 45.271417839795475 10.403846266586136 -1 0 0 I I #
coedge $-1 $151 $220 $153 $239 reversed $88 $-1 #
vertex $-1 $231 $325 #
straight-curve $-1 0 -45.271417839795475 10.403846266586136 1 0 0 I I #
edge $-1 $156 -10.403846266586136 $228 10.403846266586136 $153 $326 forward 7 unknown #
edge $-1 $157 -10.403846266586136 $227 10.403846266586136 $154 $327 forward 7 unknown #
point $-1 73.375041962950533 -45.271417839795475 10.403846266586136 #
point $-1 73.375041962950533 45.271417839795475 10.403846266586136 #
face $-1 $-1 $259 $22 $-1 $328 reversed single #
loop $-1 $-1 $329 $159 #
plane-surface $-1 0 -55.860937534518897 -7.4360007174958707 0 1 0 0 0 1 forward_v I I I I #
coedge $-1 $330 $256 $258 $331 forward $160 $-1 #
coedge $-1 $162 $169 $332 $333 forward $96 $-1 #
coedge $-1 $334 $167 $162 $249 reversed $259 $-1 #
edge $-1 $335 -5.2947598473617106 $171 5.2947598473617106 $248 $336 forward 7 unknown #
coedge $-1 $164 $163 $329 $337 reversed $61 $-1 #
coedge $-1 $256 $330 $163 $252 forward $160 $-1 #
edge $-1 $338 -5.2947598473617106 $254 5.2947598473617106 $163 $339 forward 7 unknown #
edge $-1 $170 -5.2947598473617106 $340 5.2947598473617106 $164 $341 forward 7 unknown #
vertex $-1 $165 $342 #
straight-curve $-1 -73.375041962950533 -45.271417839795475 0 0 0 -1 I I #
coedge $-1 $246 $251 $166 $257 reversed $160 $-1 #
edge $-1 $260 -73.375041962950533 $254 73.375041962950533 $256 $343 forward 7 unknown #
coedge $-1 $167 $334 $246 $331 reversed $259 $-1 #
loop $-1 $-1 $167 $243 #
vertex $-1 $168 $344 #
straight-curve $-1 73.375041962950533 -45.271417839795475 0 0 0 1 I I #
point $-1 -73.375041962950533 -45.271417839795475 -4.9681551684056053 #
point $-1 73.375041962950533 -45.271417839795475 -4.9681551684056053 #
loop $-1 $-1 $181 $173 #
plane-surface $-1 -73.375041962950533 0 0 1 0 0 0 0 -1 forward_v I I I I #
coedge $-1 $267 $176 $178 $271 reversed $104 $-1 #
coedge $-1 $176 $266 $345 $346 reversed $104 $-1 #
coedge $-1 $184 $179 $176 $269 forward $174 $-1 #
edge $-1 $272 -26.105792563620653 $347 -21.132801737342291 $268 $348 forward 7 unknown #
coedge $-1 $178 $177 $275 $349 reversed $65 $-1 #
edge $-1 $350 -2.274695869299009e-014 $272 8.0774761958067298 $266 $351 forward 7 unknown #
vertex $-1 $180 $352 #
straight-curve $-1 -68.402051136672185 3.3559346256966478 10.403846266586136 0 1 0 I I #
coedge $-1 $345 $181 $184 $279 reversed $264 $-1 #
coedge $-1 $181 $345 $270 $349 forward $264 $-1 #
vertex $-1 $182 $353 #
straight-curve $-1 -73.375041962950533 -4.8965753157690308 47.193539859579062 0 0 1 I I #
straight-curve $-1 -73.375041962950519 -4.8965753157690308 4.0387080956132735 -0.61566146476048833 0 -0.78801076186113728 I I #
edge $-1 $347 -18.320313818555622 $185 4.8965753157690308 $274 $354 forward 7 unknown #
point $-1 -73.375041962950533 -4.8965753157690308 10.403846266586136 #
point $-1 -68.402051136672171 -4.8965753157690308 10.403846266586136 #
edge $-1 $355 1 $355 0 $188 $-1 forward 7 unknown #
vertex $-1 $189 $356 #
ellipse-curve $-1 -70.01973143723599 1.736821579752295 6.5424844403116591 -0.78801076186113728 0 0.61566146476048833 0.61566146476048833 0 0.78801076186113728 1 I I #
point $-1 -70.272885085050873 1.736821579752295 8.0092879429608494 #
edge $-1 $357 1 $357 0 $192 $-1 forward 7 unknown #
vertex $-1 $193 $358 #
ellipse-curve $-1 -70.01973143723599 11.686916923034289 6.5424844403116591 -0.78801076186113728 0 0.61566146476048833 0.61566146476048833 0 0.78801076186113728 1 I I #
point $-1 -70.272885085050873 11.686916923034289 8.0092879429608494 #
plane-surface $-1 0 0 10.403846266586136 0 0 1 1 0 0 forward_v I I I I #
coedge $-1 $301 $300 $293 $359 forward $197 $-1 #
coedge $-1 $293 $199 $201 $297 reversed $126 $-1 #
coedge $-1 $199 $292 $291 $359 reversed $126 $-1 #
coedge $-1 $207 $202 $199 $295 forward $208 $-1 #
edge $-1 $298 53.775229204546342 $360 60.030236539250517 $294 $361 forward 7 unknown #
coedge $-1 $201 $200 $301 $362 reversed $79 $-1 #
edge $-1 $363 -146.75008392590109 $298 -139.37431432591981 $292 $364 forward 7 unknown #
vertex $-1 $203 $365 #
straight-curve $-1 67.120034628246344 -11.724977111786753 10.403846266586129 0 -1 0 I I #
coedge $-1 $291 $204 $207 $305 reversed $197 $-1 #
coedge $-1 $204 $291 $296 $362 forward $197 $-1 #
vertex $-1 $205 $366 #
straight-curve $-1 73.375041962950533 -12.218010302074957 104.35605499246029 0 0 1 I I #
straight-curve $-1 -51.076086679583909 -12.218010302074957 84.260981342386145 0.84804809178421925 0 -0.52991927123019833 I I #
edge $-1 $360 -34.681898145072054 $209 -12.218010302074957 $300 $367 forward 7 unknown #
point $-1 73.375041962950533 -12.218010302074957 10.403846266586136 #
point $-1 67.120034628246358 -12.218010302074957 10.403846266586129 #
edge $-1 $368 1 $368 0 $212 $-1 forward 7 unknown #
vertex $-1 $213 $369 #
ellipse-curve $-1 68.650971924115353 -23.44995422357351 5.8945247957132159 0.52991927123019833 0 0.84804809178421925 0.84804809178421925 0 -0.52991927123019833 1 I I #
point $-1 71.095586387382696 -23.44995422357351 7.9196457697639921 #
plane-surface $-1 73.375041962950533 0 0 -1 0 0 0 0 1 forward_v I I I I #
coedge $-1 $221 $219 $223 $317 reversed $141 $-1 #
edge $-1 $234 -10.403846266586136 $319 10.403846266586136 $233 $370 forward 7 unknown #
vertex $-1 $317 $371 #
straight-curve $-1 -73.375041962950533 -45.271417839795475 0 0 0 -1 I I #
edge $-1 $315 -45.271417839795475 $319 45.271417839795475 $313 $372 forward 7 unknown #
straight-curve $-1 0 -45.271417839795475 -10.403846266586136 -1 0 0 I I #
vertex $-1 $226 $373 #
straight-curve $-1 0 45.271417839795475 -10.403846266586136 1 0 0 I I #
point $-1 73.375041962950533 45.271417839795475 -10.403846266586136 #
point $-1 73.375041962950533 -45.271417839795475 -10.403846266586136 #
straight-curve $-1 -73.375041962950533 0 10.403846266586136 0 -1 0 I I #
point $-1 -73.375041962950533 45.271417839795475 10.403846266586136 #
point $-1 -73.375041962950533 -45.271417839795475 10.403846266586136 #
straight-curve $-1 73.375041962950533 -45.271417839795475 0 0 0 -1 I I #
straight-curve $-1 73.375041962950533 45.271417839795475 0 0 0 -1 I I #
plane-surface $-1 73.375041962950533 0 0 -1 0 0 0 0 1 forward_v I I I I #
coedge $-1 $374 $332 $250 $337 forward $244 $-1 #
coedge $-1 $251 $246 $374 $375 forward $160 $-1 #
edge $-1 $260 -5.2947598473617106 $376 5.2947598473617106 $258 $377 forward 7 unknown #
coedge $-1 $329 $378 $247 $333 reversed $244 $-1 #
edge $-1 $340 -73.375041962950533 $335 73.375041962950533 $332 $379 forward 7 unknown #
coedge $-1 $258 $248 $378 $380 forward $259 $-1 #
vertex $-1 $249 $381 #
straight-curve $-1 73.375041962950533 -50.566177687157186 -4.9681551684056053 0 1 0 I I #
edge $-1 $340 -2.4678455490902653 $338 2.4678455490902653 $250 $382 forward 7 unknown #
vertex $-1 $252 $383 #
straight-curve $-1 -73.375041962950533 -50.566177687157186 -9.903846266586136 0 1 0 I I #
vertex $-1 $253 $384 #
straight-curve $-1 -73.375041962950533 -50.566177687157186 -4.9681551684056053 0 -1 0 I I #
point $-1 -73.375041962950533 -45.271417839795475 -9.903846266586136 #
straight-curve $-1 0 -45.271417839795475 -9.903846266586136 -1 0 0 I I #
point $-1 73.375041962950533 -45.271417839795475 -9.903846266586136 #
coedge $-1 $275 $274 $267 $346 forward $264 $-1 #
edge $-1 $347 36.789693592992926 $350 43.154831763965802 $345 $385 forward 7 unknown #
vertex $-1 $279 $386 #
straight-curve $-1 -94.507843700292824 18.320313818555622 10.403846266586136 -1 0 0 I I #
edge $-1 $350 -14.964379192858974 $276 8.2525099414656786 $275 $387 forward 7 unknown #
vertex $-1 $349 $388 #
straight-curve $-1 -73.375041962950519 18.320313818555622 4.0387080956132735 0.61566146476048833 0 0.78801076186113728 I I #
point $-1 -68.402051136672171 18.320313818555622 10.403846266586136 #
point $-1 -73.375041962950533 -4.8965753157690308 4.0387080956132557 #
straight-curve $-1 -73.375041962950533 0 10.403846266586136 0 -1 0 I I #
vertex $-1 $282 $389 #
point $-1 -69.404069972475511 1.736821579752295 7.3304952021727958 #
vertex $-1 $286 $390 #
point $-1 -69.404069972475511 11.686916923034289 7.3304952021727958 #
edge $-1 $360 93.952208725874158 $363 97.860771177058098 $291 $391 forward 7 unknown #
vertex $-1 $305 $392 #
straight-curve $-1 13.344805423700016 -34.681898145072054 10.403846266586129 1 0 0 I I #
edge $-1 $363 -22.956921033285301 $302 -0.49303319028820347 $301 $393 forward 7 unknown #
vertex $-1 $362 $394 #
straight-curve $-1 -51.076086679583909 -34.681898145072054 84.260981342386145 -0.84804809178421925 0 0.52991927123019833 I I #
point $-1 67.120034628246358 -34.681898145072054 10.403846266586129 #
point $-1 73.375041962950533 -12.218010302074957 6.495283815402189 #
straight-curve $-1 73.375041962950533 0 10.403846266586136 0 1 0 I I #
vertex $-1 $308 $395 #
point $-1 69.499020015899575 -23.44995422357351 5.3646055244830171 #
straight-curve $-1 -73.375041962950533 45.271417839795475 0 0 0 -1 I I #
point $-1 -73.375041962950533 -45.271417839795475 -10.403846266586136 #
straight-curve $-1 -73.375041962950533 0 -10.403846266586136 0 1 0 I I #
point $-1 -73.375041962950533 45.271417839795475 -10.403846266586136 #
coedge $-1 $378 $329 $330 $375 reversed $244 $-1 #
edge $-1 $376 -73.375041962950533 $338 73.375041962950533 $374 $396 forward 7 unknown #
vertex $-1 $380 $397 #
straight-curve $-1 73.375041962950533 -50.566177687157186 -9.903846266586136 0 -1 0 I I #
coedge $-1 $332 $374 $334 $380 reversed $244 $-1 #
straight-curve $-1 0 -55.860937534518897 -4.9681551684056053 1 0 0 I I #
edge $-1 $335 -2.4678455490902653 $376 2.4678455490902653 $334 $398 forward 7 unknown #
point $-1 73.375041962950533 -55.860937534518897 -4.9681551684056053 #
straight-curve $-1 -73.375041962950533 -55.860937534518897 -7.4360007174958707 0 0 -1 I I #
point $-1 -73.375041962950533 -55.860937534518897 -9.903846266586136 #
point $-1 -73.375041962950533 -55.860937534518897 -4.9681551684056053 #
straight-curve $-1 -73.375041962950533 18.320313818555622 47.193539859579062 0 0 -1 I I #
point $-1 -73.375041962950533 18.320313818555622 10.403846266586136 #
straight-curve $-1 -73.375041962950533 3.3559346256966478 4.0387080956132397 0 -1 0 I I #
point $-1 -73.375041962950533 18.320313818555622 4.0387080956132557 #
point $-1 -69.231720675374859 1.736821579752295 5.9268229755511701 #
point $-1 -69.231720675374859 11.686916923034289 5.9268229755511701 #
straight-curve $-1 73.375041962950533 -34.681898145072054 104.35605499246029 0 0 -1 I I #
point $-1 73.375041962950533 -34.681898145072054 10.403846266586136 #
straight-curve $-1 73.375041962950547 -11.724977111786753 6.4952838154021961 0 1 0 I I #
point $-1 73.375041962950533 -34.681898145072054 6.495283815402189 #
point $-1 68.121052652885155 -23.44995422357351 5.0464767039289962 #
straight-curve $-1 0 -55.860937534518897 -9.903846266586136 -1 0 0 I I #
point $-1 73.375041962950533 -55.860937534518897 -9.903846266586136 #
straight-curve $-1 73.375041962950533 -55.860937534518897 -7.4360007174958707 0 0 -1 I I #
End-of-ACIS-data 