500 0 18 0           
7 Unknown 11 ACIS 5.0 NT 24 Thu Mar 25 15:57:09 1999 
-1 9.9999999999999995e-007 1e-010 
body $-1 $18 $-1 $19 #
body $-1 $20 $-1 $21 #
body $-1 $22 $-1 $23 #
body $-1 $24 $-1 $25 #
body $-1 $26 $-1 $27 #
body $-1 $28 $-1 $29 #
body $-1 $30 $-1 $31 #
body $-1 $32 $-1 $33 #
body $-1 $34 $-1 $35 #
body $-1 $36 $-1 $37 #
body $-1 $38 $-1 $39 #
body $-1 $40 $-1 $41 #
body $-1 $42 $-1 $43 #
body $-1 $44 $-1 $45 #
body $-1 $46 $-1 $47 #
body $-1 $48 $-1 $49 #
body $-1 $50 $-1 $51 #
body $-1 $52 $-1 $53 #
lump $-1 $-1 $54 $0 #
transform $-1 1 0 0 0 1 0 0 0 1 48.630634479812002 29.689665015970188 14.769536900733069 1 rotate no_reflect no_shear #
lump $-1 $-1 $55 $1 #
transform $-1 1 0 0 0 1 0 0 0 1 48.630634479812002 29.689665015970188 14.769536900733069 1 rotate no_reflect no_shear #
lump $-1 $-1 $56 $2 #
transform $-1 1 0 0 0 1 0 0 0 1 48.630634479812002 29.689665015970188 14.769536900733069 1 rotate no_reflect no_shear #
lump $-1 $-1 $57 $3 #
transform $-1 1 0 0 0 1 0 0 0 1 48.630634479812002 29.689665015970188 14.769536900733069 1 rotate no_reflect no_shear #
lump $-1 $-1 $58 $4 #
transform $-1 1 0 0 0 1 0 0 0 1 48.630634479812002 29.689665015970188 14.769536900733069 1 rotate no_reflect no_shear #
lump $-1 $-1 $59 $5 #
transform $-1 1 0 0 0 1 0 0 0 1 48.630634479812002 29.689665015970188 14.769536900733069 1 rotate no_reflect no_shear #
lump $-1 $-1 $60 $6 #
transform $-1 1 0 0 0 1 0 0 0 1 48.630634479812002 29.689665015970188 14.769536900733069 1 rotate no_reflect no_shear #
lump $-1 $-1 $61 $7 #
transform $-1 1 0 0 0 1 0 0 0 1 48.630634479812002 29.689665015970188 14.769536900733069 1 rotate no_reflect no_shear #
lump $-1 $-1 $62 $8 #
transform $-1 1 0 0 0 1 0 0 0 1 48.630634479812002 29.689665015970188 14.769536900733069 1 rotate no_reflect no_shear #
lump $-1 $-1 $63 $9 #
transform $-1 1 0 0 0 1 0 0 0 1 48.630634479812002 29.689665015970188 14.769536900733069 1 rotate no_reflect no_shear #
lump $-1 $-1 $64 $10 #
transform $-1 1 0 0 0 1 0 0 0 1 48.630634479812002 29.689665015970188 14.769536900733069 1 rotate no_reflect no_shear #
lump $-1 $-1 $65 $11 #
transform $-1 1 0 0 0 1 0 0 0 1 48.630634479812002 29.689665015970188 14.769536900733069 1 rotate no_reflect no_shear #
lump $-1 $-1 $66 $12 #
transform $-1 1 0 0 0 1 0 0 0 1 48.630634479812002 29.689665015970188 14.769536900733069 1 rotate no_reflect no_shear #
lump $-1 $-1 $67 $13 #
transform $-1 1 0 0 0 1 0 0 0 1 48.630634479812002 29.689665015970188 14.769536900733069 1 rotate no_reflect no_shear #
lump $-1 $-1 $68 $14 #
transform $-1 1 0 0 0 1 0 0 0 1 48.630634479812002 29.689665015970188 14.769536900733069 1 rotate no_reflect no_shear #
lump $-1 $-1 $69 $15 #
transform $-1 1 0 0 0 1 0 0 0 1 48.630634479812002 29.689665015970188 14.769536900733069 1 rotate no_reflect no_shear #
lump $-1 $-1 $70 $16 #
transform $-1 1 0 0 0 1 0 0 0 1 48.630634479812002 29.689665015970188 14.769536900733069 1 rotate no_reflect no_shear #
lump $-1 $-1 $71 $17 #
transform $-1 1 0 0 0 1 0 0 0 1 48.630634479812002 29.689665015970188 14.769536900733069 1 rotate no_reflect no_shear #
shell $-1 $-1 $-1 $72 $-1 $18 #
shell $-1 $-1 $-1 $73 $-1 $20 #
shell $-1 $-1 $-1 $74 $-1 $22 #
shell $-1 $-1 $-1 $75 $-1 $24 #
shell $-1 $-1 $-1 $76 $-1 $26 #
shell $-1 $-1 $-1 $77 $-1 $28 #
shell $-1 $-1 $-1 $78 $-1 $30 #
shell $-1 $-1 $-1 $79 $-1 $32 #
shell $-1 $-1 $-1 $80 $-1 $34 #
shell $-1 $-1 $-1 $81 $-1 $36 #
shell $-1 $-1 $-1 $82 $-1 $38 #
shell $-1 $-1 $-1 $83 $-1 $40 #
shell $-1 $-1 $-1 $84 $-1 $42 #
shell $-1 $-1 $-1 $85 $-1 $44 #
shell $-1 $-1 $-1 $86 $-1 $46 #
shell $-1 $-1 $-1 $87 $-1 $48 #
shell $-1 $-1 $-1 $88 $-1 $50 #
shell $-1 $-1 $-1 $89 $-1 $52 #
face $-1 $90 $91 $54 $-1 $92 forward single #
face $-1 $93 $94 $55 $-1 $95 reversed single #
face $-1 $96 $97 $56 $-1 $98 reversed single #
face $-1 $99 $100 $57 $-1 $101 forward single #
face $-1 $102 $103 $58 $-1 $104 reversed single #
face $-1 $105 $106 $59 $-1 $107 forward single #
face $-1 $108 $109 $60 $-1 $110 reversed single #
face $-1 $111 $112 $61 $-1 $113 forward single #
face $-1 $114 $115 $62 $-1 $116 reversed single #
face $-1 $117 $118 $63 $-1 $119 forward single #
face $-1 $120 $121 $64 $-1 $122 reversed single #
face $-1 $123 $124 $65 $-1 $125 forward single #
face $-1 $126 $127 $66 $-1 $128 reversed single #
face $-1 $129 $130 $67 $-1 $131 forward single #
face $-1 $132 $133 $68 $-1 $134 reversed single #
face $-1 $135 $136 $69 $-1 $137 forward single #
face $-1 $138 $139 $70 $-1 $140 reversed single #
face $-1 $141 $142 $71 $-1 $143 forward single #
face $-1 $144 $145 $54 $-1 $146 reversed single #
loop $-1 $-1 $147 $72 #
plane-surface $-1 0 0 14.769536900733069 0 0 1 1 0 0 forward_v I I I I #
face $-1 $148 $149 $55 $-1 $150 reversed single #
loop $-1 $-1 $151 $73 #
plane-surface $-1 -41.303574816011249 0 10.063676762452683 0 0 1 1 0 0 forward_v I I I I #
face $-1 $152 $153 $56 $-1 $154 reversed single #
loop $-1 $-1 $155 $74 #
plane-surface $-1 -23.22828303632668 -97.253020413957543 74.355701549029391 -1 0 0 0 -0.69465837861970381 0.71933979245794832 forward_v I I I I #
face $-1 $156 $157 $57 $-1 $158 forward single #
loop $-1 $159 $160 $75 #
cone-surface $-1 -28.602399094268584 -22.075537754072116 7.260151908127364 0 0.69465837861970381 -0.71933979245794832 2 0 0 1 I I 0 1 2 forward I I I I #
face $-1 $161 $162 $58 $-1 $163 reversed single #
loop $-1 $-1 $164 $76 #
plane-surface $-1 -2.5764956283210552 -97.253020413957543 74.355701549029391 -1 0 0 0 -0.69465837861970381 0.71933979245794832 forward_v I I I I #
face $-1 $165 $166 $59 $-1 $167 forward single #
loop $-1 $168 $169 $77 #
cone-surface $-1 -7.9506116862629597 -22.075537754072116 7.260151908127364 0 0.69465837861970381 -0.71933979245794832 2 0 0 1 I I 0 1 2 forward I I I I #
face $-1 $170 $171 $60 $-1 $172 reversed single #
loop $-1 $-1 $173 $78 #
plane-surface $-1 18.075291779684569 -97.253020413957543 74.355701549029391 -1 0 0 0 -0.69465837861970381 0.71933979245794832 forward_v I I I I #
face $-1 $174 $175 $61 $-1 $176 forward single #
loop $-1 $177 $178 $79 #
cone-surface $-1 12.701175721742665 -22.075537754072116 7.260151908127364 0 0.69465837861970381 -0.71933979245794832 2 0 0 1 I I 0 1 2 forward I I I I #
face $-1 $179 $180 $62 $-1 $181 reversed single #
loop $-1 $-1 $182 $80 #
plane-surface $-1 38.727079187690194 -97.253020413957543 74.355701549029391 -1 0 0 0 -0.69465837861970381 0.71933979245794832 forward_v I I I I #
face $-1 $183 $184 $63 $-1 $185 forward single #
loop $-1 $186 $187 $81 #
cone-surface $-1 33.352963129748289 -22.075537754072116 7.260151908127364 0 0.69465837861970381 -0.71933979245794832 2 0 0 1 I I 0 1 2 forward I I I I #
face $-1 $188 $189 $64 $-1 $190 reversed single #
loop $-1 $-1 $191 $82 #
plane-surface $-1 -28.602399094268584 -13.024249925497827 45.640149644928755 0 0.69465837861970381 0.71933979245794832 1 0 0 forward_v I I I I #
face $-1 $192 $193 $65 $-1 $194 forward single #
loop $-1 $195 $196 $83 #
cone-surface $-1 -28.602399094268584 22.075537754072105 7.260151908127364 0 -0.69465837861970381 -0.71933979245794832 2 0 0 1 I I 0 1 2 forward I I I I #
face $-1 $197 $198 $66 $-1 $199 reversed single #
loop $-1 $-1 $200 $84 #
plane-surface $-1 -13.324727744204864 54.53910547248951 115.60405067254138 1 0 0 0 -0.69465837861970381 -0.71933979245794832 forward_v I I I I #
face $-1 $201 $202 $67 $-1 $203 forward single #
loop $-1 $204 $205 $85 #
cone-surface $-1 -7.9506116862629597 22.075537754072105 7.260151908127364 0 -0.69465837861970381 -0.71933979245794832 2 0 0 1 I I 0 1 2 forward I I I I #
face $-1 $206 $207 $68 $-1 $208 reversed single #
loop $-1 $-1 $209 $86 #
plane-surface $-1 7.3270596638007603 54.53910547248951 115.60405067254138 1 0 0 0 -0.69465837861970381 -0.71933979245794832 forward_v I I I I #
face $-1 $210 $211 $69 $-1 $212 forward single #
loop $-1 $213 $214 $87 #
cone-surface $-1 12.701175721742665 22.075537754072105 7.260151908127364 0 -0.69465837861970381 -0.71933979245794832 2 0 0 1 I I 0 1 2 forward I I I I #
face $-1 $215 $216 $70 $-1 $217 reversed single #
loop $-1 $-1 $218 $88 #
plane-surface $-1 27.978847071806385 54.53910547248951 115.60405067254138 1 0 0 0 -0.69465837861970381 -0.71933979245794832 forward_v I I I I #
face $-1 $219 $220 $71 $-1 $221 forward single #
loop $-1 $222 $223 $89 #
cone-surface $-1 33.352963129748289 22.075537754072105 7.260151908127364 0 -0.69465837861970381 -0.71933979245794832 2 0 0 1 I I 0 1 2 forward I I I I #
face $-1 $224 $225 $54 $-1 $226 reversed single #
loop $-1 $-1 $227 $90 #
plane-surface $-1 0 0 -14.769536900733069 0 0 1 1 0 0 forward_v I I I I #
coedge $-1 $228 $229 $230 $231 forward $91 $-1 #
face $-1 $232 $233 $55 $-1 $234 reversed single #
loop $-1 $-1 $235 $93 #
plane-surface $-1 -33.976515152210496 0 12.416606831592876 -1 0 0 0 0 1 forward_v I I I I #
coedge $-1 $236 $237 $238 $239 forward $94 $-1 #
face $-1 $240 $241 $56 $-1 $242 forward single #
loop $-1 $-1 $243 $96 #
plane-surface $-1 -28.602399094268584 -29.689665015970206 4.3918005214167692 0 -0.69465837861970381 0.71933979245794832 1 0 0 forward_v I I I I #
coedge $-1 $244 $245 $246 $247 reversed $97 $-1 #
face $-1 $-1 $248 $57 $-1 $249 forward single #
loop $-1 $250 $251 $99 #
cone-surface $-1 -28.602399094268584 -19.139982296219081 4.2202953127218628 0 0.69465837861970381 -0.71933979245794832 1 0 0 1 I I -0.70710678118654746 0.70710678118654746 1 forward I I I I #
loop $-1 $-1 $252 $75 #
coedge $-1 $160 $160 $253 $254 reversed $100 $-1 #
face $-1 $255 $256 $58 $-1 $257 reversed single #
loop $-1 $-1 $258 $102 #
plane-surface $-1 -7.9506116862629597 -29.689665015970206 4.3918005214167692 0 -0.69465837861970381 0.71933979245794832 1 0 0 forward_v I I I I #
coedge $-1 $259 $260 $261 $262 reversed $103 $-1 #
face $-1 $-1 $263 $59 $-1 $264 forward single #
loop $-1 $265 $266 $105 #
cone-surface $-1 -7.9506116862629597 -19.139982296219081 4.2202953127218628 0 0.69465837861970381 -0.71933979245794832 1 0 0 1 I I -0.70710678118654746 0.70710678118654746 1 forward I I I I #
loop $-1 $-1 $267 $77 #
coedge $-1 $169 $169 $268 $269 reversed $106 $-1 #
face $-1 $270 $271 $60 $-1 $272 reversed single #
loop $-1 $-1 $273 $108 #
plane-surface $-1 12.701175721742665 -29.689665015970206 4.3918005214167692 0 -0.69465837861970381 0.71933979245794832 1 0 0 forward_v I I I I #
coedge $-1 $274 $275 $276 $277 reversed $109 $-1 #
face $-1 $-1 $278 $61 $-1 $279 forward single #
loop $-1 $280 $281 $111 #
cone-surface $-1 12.701175721742665 -19.139982296219081 4.2202953127218628 0 0.69465837861970381 -0.71933979245794832 1 0 0 1 I I -0.70710678118654746 0.70710678118654746 1 forward I I I I #
loop $-1 $-1 $282 $79 #
coedge $-1 $178 $178 $283 $284 reversed $112 $-1 #
face $-1 $285 $286 $62 $-1 $287 reversed single #
loop $-1 $-1 $288 $114 #
plane-surface $-1 33.352963129748289 -29.689665015970206 4.3918005214167692 0 -0.69465837861970381 0.71933979245794832 1 0 0 forward_v I I I I #
coedge $-1 $289 $290 $291 $292 reversed $115 $-1 #
face $-1 $-1 $293 $63 $-1 $294 forward single #
loop $-1 $295 $296 $117 #
cone-surface $-1 33.352963129748289 -19.139982296219081 4.2202953127218628 0 0.69465837861970381 -0.71933979245794832 1 0 0 1 I I -0.70710678118654746 0.70710678118654746 1 forward I I I I #
loop $-1 $-1 $297 $81 #
coedge $-1 $187 $187 $298 $299 reversed $118 $-1 #
face $-1 $300 $301 $64 $-1 $302 forward single #
loop $-1 $-1 $303 $120 #
plane-surface $-1 -23.22828303632668 54.53910547248951 115.60405067254138 -1 0 0 0 0.69465837861970381 0.71933979245794832 forward_v I I I I #
coedge $-1 $304 $305 $306 $307 reversed $121 $-1 #
face $-1 $-1 $308 $65 $-1 $309 forward single #
loop $-1 $310 $311 $123 #
cone-surface $-1 -28.602399094268584 19.13998229621907 4.2202953127218628 0 -0.69465837861970381 -0.71933979245794832 1 0 0 1 I I -0.70710678118654746 0.70710678118654746 1 forward I I I I #
loop $-1 $-1 $312 $83 #
coedge $-1 $196 $196 $313 $314 reversed $124 $-1 #
face $-1 $315 $316 $66 $-1 $317 reversed single #
loop $-1 $-1 $318 $126 #
plane-surface $-1 -7.9506116862629597 -13.024249925497827 45.640149644928755 0 0.69465837861970381 0.71933979245794832 1 0 0 forward_v I I I I #
coedge $-1 $319 $320 $321 $322 reversed $127 $-1 #
face $-1 $-1 $323 $67 $-1 $324 forward single #
loop $-1 $325 $326 $129 #
cone-surface $-1 -7.9506116862629597 19.13998229621907 4.2202953127218628 0 -0.69465837861970381 -0.71933979245794832 1 0 0 1 I I -0.70710678118654746 0.70710678118654746 1 forward I I I I #
loop $-1 $-1 $327 $85 #
coedge $-1 $205 $205 $328 $329 reversed $130 $-1 #
face $-1 $330 $331 $68 $-1 $332 reversed single #
loop $-1 $-1 $333 $132 #
plane-surface $-1 12.701175721742665 -13.024249925497827 45.640149644928755 0 0.69465837861970381 0.71933979245794832 1 0 0 forward_v I I I I #
coedge $-1 $334 $335 $336 $337 reversed $133 $-1 #
face $-1 $-1 $338 $69 $-1 $339 forward single #
loop $-1 $340 $341 $135 #
cone-surface $-1 12.701175721742665 19.13998229621907 4.2202953127218628 0 -0.69465837861970381 -0.71933979245794832 1 0 0 1 I I -0.70710678118654746 0.70710678118654746 1 forward I I I I #
loop $-1 $-1 $342 $87 #
coedge $-1 $214 $214 $343 $344 reversed $136 $-1 #
face $-1 $345 $346 $70 $-1 $347 reversed single #
loop $-1 $-1 $348 $138 #
plane-surface $-1 33.352963129748289 -13.024249925497827 45.640149644928755 0 0.69465837861970381 0.71933979245794832 1 0 0 forward_v I I I I #
coedge $-1 $349 $350 $351 $352 reversed $139 $-1 #
face $-1 $-1 $353 $71 $-1 $354 forward single #
loop $-1 $355 $356 $141 #
cone-surface $-1 33.352963129748289 19.13998229621907 4.2202953127218628 0 -0.69465837861970381 -0.71933979245794832 1 0 0 1 I I -0.70710678118654746 0.70710678118654746 1 forward I I I I #
loop $-1 $-1 $357 $89 #
coedge $-1 $223 $223 $358 $359 reversed $142 $-1 #
face $-1 $360 $361 $54 $-1 $362 reversed single #
loop $-1 $-1 $363 $144 #
plane-surface $-1 0 -29.689665015970188 0 0 1 0 0 0 1 forward_v I I I I #
coedge $-1 $364 $365 $366 $367 forward $145 $-1 #
coedge $-1 $368 $147 $369 $370 forward $91 $-1 #
coedge $-1 $147 $368 $371 $372 forward $91 $-1 #
coedge $-1 $373 $374 $147 $231 reversed $375 $-1 #
edge $-1 $376 -29.689665015970188 $377 29.689665015970188 $230 $378 forward 7 unknown #
face $-1 $379 $380 $55 $-1 $381 reversed single #
loop $-1 $-1 $382 $148 #
plane-surface $-1 0 29.689665015970188 0 0 -1 0 0 0 -1 forward_v I I I I #
coedge $-1 $238 $383 $384 $385 reversed $149 $-1 #
coedge $-1 $386 $151 $387 $388 reversed $94 $-1 #
coedge $-1 $151 $386 $389 $390 reversed $94 $-1 #
coedge $-1 $391 $235 $151 $239 reversed $149 $-1 #
edge $-1 $392 -29.689665015970188 $393 29.689665015970188 $238 $394 forward 7 unknown #
face $-1 $395 $396 $56 $-1 $397 forward single #
loop $-1 $-1 $398 $152 #
plane-surface $-1 -33.976515152210496 0 12.416606831592876 -1 0 0 0 0 1 forward_v I I I I #
coedge $-1 $399 $400 $401 $402 reversed $153 $-1 #
coedge $-1 $245 $155 $403 $404 reversed $97 $-1 #
coedge $-1 $155 $244 $399 $405 reversed $97 $-1 #
coedge $-1 $401 $406 $155 $247 forward $396 $-1 #
edge $-1 $407 18.936845191008583 $408 29.683305556338048 $246 $409 forward 7 unknown #
loop $-1 $-1 $253 $156 #
plane-surface $-1 -28.602399094268584 -29.689665015970206 4.3918005214167692 0 -0.69465837861970381 0.71933979245794832 1 0 0 forward_v I I I I #
loop $-1 $-1 $410 $99 #
coedge $-1 $251 $251 $252 $411 reversed $157 $-1 #
coedge $-1 $252 $252 $251 $411 forward $159 $-1 #
coedge $-1 $253 $253 $160 $254 forward $248 $-1 #
edge $-1 $412 7.4850957578680049e-016 $412 6.2831853071796013 $253 $413 forward 7 unknown #
face $-1 $414 $415 $58 $-1 $416 reversed single #
loop $-1 $-1 $417 $161 #
plane-surface $-1 -13.324727744204864 -97.253020413957543 74.355701549029391 1 0 0 0 0.69465837861970381 -0.71933979245794832 forward_v I I I I #
coedge $-1 $418 $419 $420 $421 reversed $162 $-1 #
coedge $-1 $260 $164 $422 $423 reversed $103 $-1 #
coedge $-1 $164 $259 $418 $424 reversed $103 $-1 #
coedge $-1 $420 $425 $164 $262 forward $426 $-1 #
edge $-1 $427 18.936845191008583 $428 29.683305556338048 $261 $429 forward 7 unknown #
loop $-1 $-1 $268 $165 #
plane-surface $-1 -7.9506116862629597 -29.689665015970206 4.3918005214167692 0 -0.69465837861970381 0.71933979245794832 1 0 0 forward_v I I I I #
loop $-1 $-1 $430 $105 #
coedge $-1 $266 $266 $267 $431 reversed $166 $-1 #
coedge $-1 $267 $267 $266 $431 forward $168 $-1 #
coedge $-1 $268 $268 $169 $269 forward $263 $-1 #
edge $-1 $432 7.4850957578680049e-016 $432 6.2831853071796013 $268 $433 forward 7 unknown #
face $-1 $434 $435 $60 $-1 $436 reversed single #
loop $-1 $-1 $437 $170 #
plane-surface $-1 7.3270596638007603 -97.253020413957543 74.355701549029391 1 0 0 0 0.69465837861970381 -0.71933979245794832 forward_v I I I I #
coedge $-1 $438 $439 $440 $441 reversed $171 $-1 #
coedge $-1 $275 $173 $442 $443 reversed $109 $-1 #
coedge $-1 $173 $274 $438 $444 reversed $109 $-1 #
coedge $-1 $440 $445 $173 $277 forward $446 $-1 #
edge $-1 $447 18.936845191008583 $448 29.683305556338048 $276 $449 forward 7 unknown #
loop $-1 $-1 $283 $174 #
plane-surface $-1 12.701175721742665 -29.689665015970206 4.3918005214167692 0 -0.69465837861970381 0.71933979245794832 1 0 0 forward_v I I I I #
loop $-1 $-1 $450 $111 #
coedge $-1 $281 $281 $282 $451 reversed $175 $-1 #
coedge $-1 $282 $282 $281 $451 forward $177 $-1 #
coedge $-1 $283 $283 $178 $284 forward $278 $-1 #
edge $-1 $452 7.4850957578680049e-016 $452 6.2831853071796013 $283 $453 forward 7 unknown #
face $-1 $454 $455 $62 $-1 $456 reversed single #
loop $-1 $-1 $457 $179 #
plane-surface $-1 27.978847071806385 -97.253020413957543 74.355701549029391 1 0 0 0 0.69465837861970381 -0.71933979245794832 forward_v I I I I #
coedge $-1 $458 $459 $460 $461 reversed $180 $-1 #
coedge $-1 $290 $182 $462 $463 reversed $115 $-1 #
coedge $-1 $182 $289 $458 $464 reversed $115 $-1 #
coedge $-1 $460 $465 $182 $292 forward $466 $-1 #
edge $-1 $467 18.936845191008583 $468 29.683305556338048 $291 $469 forward 7 unknown #
loop $-1 $-1 $298 $183 #
plane-surface $-1 33.352963129748289 -29.689665015970206 4.3918005214167692 0 -0.69465837861970381 0.71933979245794832 1 0 0 forward_v I I I I #
loop $-1 $-1 $470 $117 #
coedge $-1 $296 $296 $297 $471 reversed $184 $-1 #
coedge $-1 $297 $297 $296 $471 forward $186 $-1 #
coedge $-1 $298 $298 $187 $299 forward $293 $-1 #
edge $-1 $472 7.4850957578680049e-016 $472 6.2831853071796013 $298 $473 forward 7 unknown #
face $-1 $474 $475 $64 $-1 $476 reversed single #
loop $-1 $-1 $306 $188 #
plane-surface $-1 0 0 14.769536900733069 0 0 1 1 0 0 forward_v I I I I #
coedge $-1 $477 $478 $479 $480 reversed $189 $-1 #
coedge $-1 $481 $191 $482 $483 reversed $121 $-1 #
coedge $-1 $191 $481 $477 $484 forward $121 $-1 #
coedge $-1 $479 $485 $191 $307 forward $301 $-1 #
edge $-1 $486 -19.675315605076197 $487 -8.9270834891923876 $306 $488 forward 7 unknown #
loop $-1 $-1 $313 $192 #
plane-surface $-1 -28.602399094268584 -13.024249925497827 45.640149644928755 0 0.69465837861970381 0.71933979245794832 1 0 0 forward_v I I I I #
loop $-1 $-1 $489 $123 #
coedge $-1 $311 $311 $312 $490 reversed $193 $-1 #
coedge $-1 $312 $312 $311 $490 forward $195 $-1 #
coedge $-1 $313 $313 $196 $314 forward $308 $-1 #
edge $-1 $491 5.7313758267626616e-016 $491 6.2831853071796013 $313 $492 forward 7 unknown #
face $-1 $493 $494 $66 $-1 $495 forward single #
loop $-1 $-1 $496 $197 #
plane-surface $-1 -2.5764956283210552 54.53910547248951 115.60405067254138 -1 0 0 0 0.69465837861970381 0.71933979245794832 forward_v I I I I #
coedge $-1 $497 $498 $499 $500 reversed $198 $-1 #
coedge $-1 $320 $200 $501 $502 reversed $127 $-1 #
coedge $-1 $200 $319 $497 $503 reversed $127 $-1 #
coedge $-1 $499 $504 $200 $322 forward $494 $-1 #
edge $-1 $505 -2.4201122797254335 $506 8.3263480856040566 $321 $507 forward 7 unknown #
loop $-1 $-1 $328 $201 #
plane-surface $-1 -7.9506116862629597 -13.024249925497827 45.640149644928755 0 0.69465837861970381 0.71933979245794832 1 0 0 forward_v I I I I #
loop $-1 $-1 $508 $129 #
coedge $-1 $326 $326 $327 $509 reversed $202 $-1 #
coedge $-1 $327 $327 $326 $509 forward $204 $-1 #
coedge $-1 $328 $328 $205 $329 forward $323 $-1 #
edge $-1 $510 5.7313758267626616e-016 $510 6.2831853071796013 $328 $511 forward 7 unknown #
face $-1 $512 $513 $68 $-1 $514 forward single #
loop $-1 $-1 $515 $206 #
plane-surface $-1 18.075291779684569 54.53910547248951 115.60405067254138 -1 0 0 0 0.69465837861970381 0.71933979245794832 forward_v I I I I #
coedge $-1 $516 $517 $518 $519 reversed $207 $-1 #
coedge $-1 $335 $209 $520 $521 reversed $133 $-1 #
coedge $-1 $209 $334 $516 $522 reversed $133 $-1 #
coedge $-1 $518 $523 $209 $337 forward $513 $-1 #
edge $-1 $524 -2.4201122797254335 $525 8.3263480856040566 $336 $526 forward 7 unknown #
loop $-1 $-1 $343 $210 #
plane-surface $-1 12.701175721742665 -13.024249925497827 45.640149644928755 0 0.69465837861970381 0.71933979245794832 1 0 0 forward_v I I I I #
loop $-1 $-1 $527 $135 #
coedge $-1 $341 $341 $342 $528 reversed $211 $-1 #
coedge $-1 $342 $342 $341 $528 forward $213 $-1 #
coedge $-1 $343 $343 $214 $344 forward $338 $-1 #
edge $-1 $529 5.7313758267626616e-016 $529 6.2831853071796013 $343 $530 forward 7 unknown #
face $-1 $531 $532 $70 $-1 $533 forward single #
loop $-1 $-1 $534 $215 #
plane-surface $-1 38.727079187690194 54.53910547248951 115.60405067254138 -1 0 0 0 0.69465837861970381 0.71933979245794832 forward_v I I I I #
coedge $-1 $535 $536 $537 $538 reversed $216 $-1 #
coedge $-1 $350 $218 $539 $540 reversed $139 $-1 #
coedge $-1 $218 $349 $535 $541 reversed $139 $-1 #
coedge $-1 $537 $542 $218 $352 forward $532 $-1 #
edge $-1 $543 -2.4201122797254335 $544 8.3263480856040566 $351 $545 forward 7 unknown #
loop $-1 $-1 $358 $219 #
plane-surface $-1 33.352963129748289 -13.024249925497827 45.640149644928755 0 0.69465837861970381 0.71933979245794832 1 0 0 forward_v I I I I #
loop $-1 $-1 $546 $141 #
coedge $-1 $356 $356 $357 $547 reversed $220 $-1 #
coedge $-1 $357 $357 $356 $547 forward $222 $-1 #
coedge $-1 $358 $358 $223 $359 forward $353 $-1 #
edge $-1 $548 5.7313758267626616e-016 $548 6.2831853071796013 $358 $549 forward 7 unknown #
face $-1 $550 $551 $54 $-1 $552 reversed single #
loop $-1 $-1 $553 $224 #
plane-surface $-1 -48.630634479812002 0 0 1 0 0 0 0 -1 forward_v I I I I #
coedge $-1 $554 $371 $555 $556 forward $225 $-1 #
coedge $-1 $557 $227 $554 $558 forward $145 $-1 #
coedge $-1 $227 $557 $559 $560 forward $145 $-1 #
coedge $-1 $374 $373 $227 $367 reversed $375 $-1 #
edge $-1 $561 -29.689665015970188 $562 29.689665015970188 $366 $563 forward 7 unknown #
coedge $-1 $229 $228 $564 $565 forward $91 $-1 #
coedge $-1 $566 $567 $228 $370 reversed $551 $-1 #
edge $-1 $377 -48.630634479812002 $568 48.630634479812002 $369 $569 forward 7 unknown #
coedge $-1 $363 $570 $229 $372 reversed $225 $-1 #
edge $-1 $571 -48.630634479812002 $376 48.630634479812002 $371 $572 forward 7 unknown #
coedge $-1 $366 $230 $570 $573 forward $375 $-1 #
coedge $-1 $230 $366 $566 $574 reversed $375 $-1 #
loop $-1 $-1 $373 $550 #
vertex $-1 $231 $575 #
vertex $-1 $231 $576 #
straight-curve $-1 48.630634479812002 0 14.769536900733069 0 1 0 I I #
face $-1 $577 $578 $55 $-1 $579 forward single #
loop $-1 $-1 $580 $232 #
plane-surface $-1 -48.630634479812002 0 0 1 0 0 0 0 -1 forward_v I I I I #
coedge $-1 $389 $581 $391 $582 forward $233 $-1 #
coedge $-1 $235 $391 $583 $584 reversed $149 $-1 #
coedge $-1 $585 $387 $235 $385 forward $586 $-1 #
edge $-1 $393 3.8553733466562452 $587 8.5612334849366309 $384 $588 forward 7 unknown #
coedge $-1 $237 $236 $580 $589 reversed $94 $-1 #
coedge $-1 $384 $590 $236 $388 forward $586 $-1 #
edge $-1 $591 -27.978847071806378 $393 -13.324727744204871 $387 $592 forward 7 unknown #
coedge $-1 $593 $382 $237 $390 forward $233 $-1 #
edge $-1 $392 13.324727744204871 $594 27.978847071806378 $389 $595 forward 7 unknown #
coedge $-1 $383 $238 $382 $582 reversed $149 $-1 #
vertex $-1 $390 $596 #
vertex $-1 $388 $597 #
straight-curve $-1 -33.976515152210496 0 10.063676762452683 0 -1 0 I I #
face $-1 $-1 $598 $56 $-1 $599 reversed single #
loop $-1 $-1 $401 $240 #
plane-surface $-1 0 0 14.769536900733069 0 0 1 1 0 0 forward_v I I I I #
coedge $-1 $600 $601 $400 $602 reversed $241 $-1 #
coedge $-1 $603 $243 $245 $405 forward $153 $-1 #
coedge $-1 $243 $603 $398 $602 forward $153 $-1 #
coedge $-1 $604 $246 $243 $402 forward $396 $-1 #
edge $-1 $408 8.9270834891923876 $605 19.675315605076204 $401 $606 forward 7 unknown #
coedge $-1 $607 $608 $244 $404 forward $598 $-1 #
edge $-1 $609 -32.786050253097912 $407 -22.408313873781626 $403 $610 forward 7 unknown #
edge $-1 $408 -14.939338095852253 $609 -2.4500672639978428e-014 $245 $611 forward 7 unknown #
coedge $-1 $246 $604 $607 $612 forward $396 $-1 #
vertex $-1 $404 $613 #
vertex $-1 $247 $614 #
straight-curve $-1 -23.22828303632668 -48.626510206978772 14.769536900733069 0 1 0 I I #
coedge $-1 $410 $410 $-1 $615 reversed $250 $-1 #
edge $-1 $616 0 $616 6.2831853071796004 $251 $617 forward 7 unknown #
vertex $-1 $254 $618 #
ellipse-curve $-1 -28.602399094268584 -24.316434833305458 9.580668711074928 0 -0.69465837861970381 0.71933979245794832 2 0 0 1 I I #
face $-1 $-1 $426 $58 $-1 $619 forward single #
loop $-1 $-1 $620 $255 #
plane-surface $-1 0 -29.689665015970188 0 0 1 0 0 0 1 forward_v I I I I #
coedge $-1 $621 $622 $623 $624 reversed $256 $-1 #
coedge $-1 $625 $258 $260 $424 forward $162 $-1 #
coedge $-1 $258 $625 $621 $626 forward $162 $-1 #
coedge $-1 $623 $261 $258 $421 forward $426 $-1 #
edge $-1 $428 -1.3988102148104247 $627 9.3494219010733843 $420 $628 forward 7 unknown #
coedge $-1 $629 $630 $259 $423 forward $415 $-1 #
edge $-1 $631 -32.786050253097912 $427 -22.408313873781626 $422 $632 forward 7 unknown #
edge $-1 $428 -14.939338095852253 $631 -2.4500672639978428e-014 $260 $633 forward 7 unknown #
coedge $-1 $261 $623 $629 $634 forward $426 $-1 #
loop $-1 $-1 $623 $414 #
vertex $-1 $423 $635 #
vertex $-1 $262 $636 #
straight-curve $-1 -2.5764956283210552 -48.626510206978772 14.769536900733069 0 1 0 I I #
coedge $-1 $430 $430 $-1 $637 reversed $265 $-1 #
edge $-1 $638 0 $638 6.2831853071796004 $266 $639 forward 7 unknown #
vertex $-1 $269 $640 #
ellipse-curve $-1 -7.9506116862629597 -24.316434833305458 9.580668711074928 0 -0.69465837861970381 0.71933979245794832 2 0 0 1 I I #
face $-1 $-1 $446 $60 $-1 $641 forward single #
loop $-1 $-1 $642 $270 #
plane-surface $-1 0 -29.689665015970188 0 0 1 0 0 0 1 forward_v I I I I #
coedge $-1 $643 $644 $645 $646 reversed $271 $-1 #
coedge $-1 $647 $273 $275 $444 forward $171 $-1 #
coedge $-1 $273 $647 $643 $648 forward $171 $-1 #
coedge $-1 $645 $276 $273 $441 forward $446 $-1 #
edge $-1 $448 -11.724703918813237 $649 -0.97647180292942792 $440 $650 forward 7 unknown #
coedge $-1 $651 $652 $274 $443 forward $435 $-1 #
edge $-1 $653 -32.786050253097912 $447 -22.408313873781626 $442 $654 forward 7 unknown #
edge $-1 $448 -14.939338095852253 $653 -2.4500672639978428e-014 $275 $655 forward 7 unknown #
coedge $-1 $276 $645 $651 $656 forward $446 $-1 #
loop $-1 $-1 $645 $434 #
vertex $-1 $443 $657 #
vertex $-1 $277 $658 #
straight-curve $-1 18.075291779684569 -48.626510206978772 14.769536900733069 0 1 0 I I #
coedge $-1 $450 $450 $-1 $659 reversed $280 $-1 #
edge $-1 $660 0 $660 6.2831853071796004 $281 $661 forward 7 unknown #
vertex $-1 $284 $662 #
ellipse-curve $-1 12.701175721742665 -24.316434833305458 9.580668711074928 0 -0.69465837861970381 0.71933979245794832 2 0 0 1 I I #
face $-1 $-1 $466 $62 $-1 $663 forward single #
loop $-1 $-1 $664 $285 #
plane-surface $-1 0 -29.689665015970188 0 0 1 0 0 0 1 forward_v I I I I #
coedge $-1 $665 $666 $667 $668 reversed $286 $-1 #
coedge $-1 $669 $288 $290 $464 forward $180 $-1 #
coedge $-1 $288 $669 $665 $670 forward $180 $-1 #
coedge $-1 $667 $291 $288 $461 forward $466 $-1 #
edge $-1 $468 -22.050597622816049 $671 -11.30236550693224 $460 $672 forward 7 unknown #
coedge $-1 $673 $674 $289 $463 forward $455 $-1 #
edge $-1 $675 -32.786050253097912 $467 -22.408313873781626 $462 $676 forward 7 unknown #
edge $-1 $468 -14.939338095852253 $675 -2.4500672639978428e-014 $290 $677 forward 7 unknown #
coedge $-1 $291 $667 $673 $678 forward $466 $-1 #
loop $-1 $-1 $667 $454 #
vertex $-1 $463 $679 #
vertex $-1 $292 $680 #
straight-curve $-1 38.727079187690194 -48.626510206978772 14.769536900733069 0 1 0 I I #
coedge $-1 $470 $470 $-1 $681 reversed $295 $-1 #
edge $-1 $682 0 $682 6.2831853071796004 $296 $683 forward 7 unknown #
vertex $-1 $299 $684 #
ellipse-curve $-1 33.352963129748289 -24.316434833305458 9.580668711074928 0 -0.69465837861970381 0.71933979245794832 2 0 0 1 I I #
face $-1 $-1 $685 $64 $-1 $686 forward single #
loop $-1 $-1 $687 $300 #
plane-surface $-1 0 29.689665015970188 0 0 -1 0 0 0 -1 forward_v I I I I #
coedge $-1 $478 $303 $305 $484 reversed $189 $-1 #
coedge $-1 $303 $477 $687 $688 reversed $189 $-1 #
coedge $-1 $689 $306 $303 $480 forward $301 $-1 #
edge $-1 $487 -8.3263480856040566 $690 2.4201122797254335 $479 $691 forward 7 unknown #
coedge $-1 $305 $304 $692 $693 reversed $121 $-1 #
coedge $-1 $694 $695 $304 $483 forward $685 $-1 #
edge $-1 $696 -43.155393221419246 $486 -28.216055125566978 $482 $697 forward 7 unknown #
edge $-1 $698 -59.379330031940391 $487 -44.43999193608812 $477 $699 forward 7 unknown #
coedge $-1 $306 $689 $694 $700 forward $301 $-1 #
vertex $-1 $483 $701 #
vertex $-1 $307 $702 #
straight-curve $-1 -14.301199547134292 18.943204650640698 14.769536900733069 1 0 0 I I #
coedge $-1 $489 $489 $-1 $703 reversed $310 $-1 #
edge $-1 $704 0 $704 6.2831853071796004 $311 $705 forward 7 unknown #
vertex $-1 $314 $706 #
ellipse-curve $-1 -28.602399094268584 24.31643483330544 9.5806687110749245 0 0.69465837861970381 0.71933979245794832 2 0 0 1 I I #
face $-1 $-1 $707 $66 $-1 $708 reversed single #
loop $-1 $-1 $321 $315 #
plane-surface $-1 0 0 14.769536900733069 0 0 1 1 0 0 forward_v I I I I #
coedge $-1 $709 $710 $711 $712 reversed $316 $-1 #
coedge $-1 $713 $318 $320 $503 forward $198 $-1 #
coedge $-1 $318 $713 $709 $714 forward $198 $-1 #
coedge $-1 $711 $321 $318 $500 forward $494 $-1 #
edge $-1 $506 -9.3494219010733843 $715 1.3988102148104247 $499 $716 forward 7 unknown #
coedge $-1 $717 $718 $319 $502 forward $707 $-1 #
edge $-1 $719 -53.410224814853933 $505 -43.032488435537616 $501 $720 forward 7 unknown #
edge $-1 $506 44.43999193608812 $719 59.379330031940391 $320 $721 forward 7 unknown #
coedge $-1 $321 $711 $717 $722 forward $494 $-1 #
vertex $-1 $322 $723 #
vertex $-1 $322 $724 #
straight-curve $-1 -13.324727744204864 27.269552736244755 14.769536900733073 0 -1 0 I I #
coedge $-1 $508 $508 $-1 $725 reversed $325 $-1 #
edge $-1 $726 0 $726 6.2831853071796004 $326 $727 forward 7 unknown #
vertex $-1 $329 $728 #
ellipse-curve $-1 -7.9506116862629597 24.31643483330544 9.5806687110749245 0 0.69465837861970381 0.71933979245794832 2 0 0 1 I I #
face $-1 $-1 $729 $68 $-1 $730 reversed single #
loop $-1 $-1 $336 $330 #
plane-surface $-1 0 0 14.769536900733069 0 0 1 1 0 0 forward_v I I I I #
coedge $-1 $731 $732 $733 $734 reversed $331 $-1 #
coedge $-1 $735 $333 $335 $522 forward $207 $-1 #
coedge $-1 $333 $735 $731 $736 forward $207 $-1 #
coedge $-1 $733 $336 $333 $519 forward $513 $-1 #
edge $-1 $525 0.97647180292942792 $737 11.724703918813237 $518 $738 forward 7 unknown #
coedge $-1 $739 $740 $334 $521 forward $729 $-1 #
edge $-1 $741 -53.410224814853933 $524 -43.032488435537616 $520 $742 forward 7 unknown #
edge $-1 $525 44.43999193608812 $741 59.379330031940391 $335 $743 forward 7 unknown #
coedge $-1 $336 $733 $739 $744 forward $513 $-1 #
vertex $-1 $337 $745 #
vertex $-1 $337 $746 #
straight-curve $-1 7.3270596638007603 27.269552736244755 14.769536900733073 0 -1 0 I I #
coedge $-1 $527 $527 $-1 $747 reversed $340 $-1 #
edge $-1 $748 0 $748 6.2831853071796004 $341 $749 forward 7 unknown #
vertex $-1 $344 $750 #
ellipse-curve $-1 12.701175721742665 24.31643483330544 9.5806687110749245 0 0.69465837861970381 0.71933979245794832 2 0 0 1 I I #
face $-1 $-1 $751 $70 $-1 $752 reversed single #
loop $-1 $-1 $351 $345 #
plane-surface $-1 0 0 14.769536900733069 0 0 1 1 0 0 forward_v I I I I #
coedge $-1 $753 $754 $755 $756 reversed $346 $-1 #
coedge $-1 $757 $348 $350 $541 forward $216 $-1 #
coedge $-1 $348 $757 $753 $758 forward $216 $-1 #
coedge $-1 $755 $351 $348 $538 forward $532 $-1 #
edge $-1 $544 11.30236550693224 $759 22.050597622816049 $537 $760 forward 7 unknown #
coedge $-1 $761 $762 $349 $540 forward $751 $-1 #
edge $-1 $763 -53.410224814853933 $543 -43.032488435537616 $539 $764 forward 7 unknown #
edge $-1 $544 44.43999193608812 $763 59.379330031940391 $350 $765 forward 7 unknown #
coedge $-1 $351 $755 $761 $766 forward $532 $-1 #
vertex $-1 $352 $767 #
vertex $-1 $352 $768 #
straight-curve $-1 27.978847071806385 27.269552736244755 14.769536900733073 0 -1 0 I I #
coedge $-1 $546 $546 $-1 $769 reversed $355 $-1 #
edge $-1 $770 0 $770 6.2831853071796004 $356 $771 forward 7 unknown #
vertex $-1 $359 $772 #
ellipse-curve $-1 33.352963129748289 24.31643483330544 9.5806687110749245 0 0.69465837861970381 0.71933979245794832 2 0 0 1 I I #
face $-1 $-1 $375 $54 $-1 $773 reversed single #
loop $-1 $-1 $566 $360 #
plane-surface $-1 0 29.689665015970188 0 0 -1 0 0 0 -1 forward_v I I I I #
coedge $-1 $774 $564 $567 $775 forward $361 $-1 #
coedge $-1 $570 $363 $364 $558 reversed $225 $-1 #
coedge $-1 $564 $774 $363 $556 reversed $361 $-1 #
edge $-1 $571 -14.769536900733069 $776 14.769536900733069 $555 $777 forward 7 unknown #
coedge $-1 $365 $364 $774 $778 forward $145 $-1 #
edge $-1 $562 -48.630634479812002 $776 48.630634479812002 $554 $779 forward 7 unknown #
coedge $-1 $567 $566 $365 $560 reversed $551 $-1 #
edge $-1 $780 -48.630634479812002 $561 48.630634479812002 $559 $781 forward 7 unknown #
vertex $-1 $367 $782 #
vertex $-1 $573 $783 #
straight-curve $-1 48.630634479812002 0 -14.769536900733069 0 -1 0 I I #
coedge $-1 $553 $555 $368 $565 reversed $361 $-1 #
edge $-1 $568 -29.689665015970188 $571 29.689665015970188 $564 $784 forward 7 unknown #
coedge $-1 $559 $369 $374 $574 forward $551 $-1 #
coedge $-1 $369 $559 $553 $775 reversed $551 $-1 #
vertex $-1 $370 $785 #
straight-curve $-1 0 29.689665015970188 14.769536900733069 -1 0 0 I I #
coedge $-1 $371 $554 $373 $573 reversed $225 $-1 #
vertex $-1 $565 $786 #
straight-curve $-1 0 -29.689665015970188 14.769536900733069 1 0 0 I I #
edge $-1 $376 -14.769536900733069 $562 14.769536900733069 $373 $787 forward 7 unknown #
edge $-1 $377 -14.769536900733069 $561 14.769536900733069 $374 $788 forward 7 unknown #
point $-1 48.630634479812002 -29.689665015970188 14.769536900733069 #
point $-1 48.630634479812002 29.689665015970188 14.769536900733069 #
face $-1 $-1 $586 $55 $-1 $789 reversed single #
loop $-1 $-1 $583 $379 #
plane-surface $-1 0 0 14.769536900733069 0 0 1 1 0 0 forward_v I I I I #
coedge $-1 $790 $791 $386 $589 forward $380 $-1 #
coedge $-1 $382 $593 $792 $793 reversed $233 $-1 #
edge $-1 $794 -8.5612334849366309 $392 -3.8553733466562452 $382 $795 forward 7 unknown #
coedge $-1 $792 $796 $383 $584 forward $578 $-1 #
edge $-1 $587 -29.689665015970188 $794 29.689665015970188 $583 $797 forward 7 unknown #
coedge $-1 $590 $384 $796 $798 reversed $586 $-1 #
loop $-1 $-1 $384 $577 #
vertex $-1 $385 $799 #
straight-curve $-1 -33.976515152210496 -29.689665015970188 6.2083034157964381 0 0 1 I I #
edge $-1 $594 -29.689665015970188 $591 29.689665015970188 $580 $800 forward 7 unknown #
coedge $-1 $387 $585 $790 $801 forward $586 $-1 #
vertex $-1 $589 $802 #
straight-curve $-1 -20.651787408005625 -29.689665015970188 10.063676762452683 1 0 0 I I #
coedge $-1 $581 $389 $791 $803 reversed $233 $-1 #
vertex $-1 $589 $804 #
straight-curve $-1 -20.651787408005625 29.689665015970188 10.063676762452683 -1 0 0 I I #
point $-1 -33.976515152210496 29.689665015970188 10.063676762452683 #
point $-1 -33.976515152210496 -29.689665015970188 10.063676762452683 #
loop $-1 $-1 $403 $395 #
plane-surface $-1 0 -29.689665015970188 0 0 1 0 0 0 1 forward_v I I I I #
coedge $-1 $601 $398 $805 $806 reversed $241 $-1 #
coedge $-1 $398 $600 $604 $807 reversed $241 $-1 #
edge $-1 $808 2.4500672639978428e-014 $605 14.93933809585225 $398 $809 forward 7 unknown #
coedge $-1 $400 $399 $608 $810 reversed $153 $-1 #
coedge $-1 $406 $401 $601 $807 forward $396 $-1 #
vertex $-1 $807 $811 #
straight-curve $-1 -14.301199547134292 -18.943204650640723 14.769536900733069 -1 0 0 I I #
coedge $-1 $805 $403 $406 $612 reversed $598 $-1 #
coedge $-1 $403 $805 $603 $810 forward $598 $-1 #
vertex $-1 $404 $812 #
straight-curve $-1 -23.22828303632668 -29.689665015970192 37.177850774514695 0 0 1 I I #
straight-curve $-1 -23.22828303632668 -29.689665015970206 4.3918005214167692 0 -0.71933979245794832 -0.69465837861970381 I I #
edge $-1 $813 -33.976515152210496 $407 -23.22828303632668 $607 $814 forward 7 unknown #
point $-1 -23.22828303632668 -29.689665015970188 14.769536900733069 #
point $-1 -23.22828303632668 -18.943204650640723 14.769536900733069 #
edge $-1 $815 1 $815 0 $410 $-1 forward 7 unknown #
vertex $-1 $411 $816 #
ellipse-curve $-1 -28.602399094268584 -19.834640674838784 4.9396351051798106 0 -0.69465837861970381 0.71933979245794832 2 0 0 1 I I #
point $-1 -26.602399094268584 -24.316434833305447 9.5806687110749191 #
plane-surface $-1 0 0 14.769536900733069 0 0 1 1 0 0 forward_v I I I I #
coedge $-1 $630 $629 $622 $817 forward $415 $-1 #
coedge $-1 $622 $417 $419 $626 reversed $256 $-1 #
coedge $-1 $417 $621 $620 $817 reversed $256 $-1 #
coedge $-1 $425 $420 $417 $624 forward $426 $-1 #
edge $-1 $627 -29.683305556338048 $818 -18.936845191008583 $623 $819 forward 7 unknown #
coedge $-1 $419 $418 $630 $820 reversed $162 $-1 #
edge $-1 $821 2.4500672639978428e-014 $627 14.939338095852253 $621 $822 forward 7 unknown #
vertex $-1 $421 $823 #
straight-curve $-1 -3.9753058431314798 -18.943204650640723 14.769536900733069 -1 0 0 I I #
coedge $-1 $620 $422 $425 $634 reversed $415 $-1 #
coedge $-1 $422 $620 $625 $820 forward $415 $-1 #
vertex $-1 $423 $824 #
straight-curve $-1 -2.5764956283210552 -29.689665015970192 37.177850774514695 0 0 1 I I #
straight-curve $-1 -2.5764956283210552 -29.689665015970206 4.3918005214167692 0 -0.71933979245794832 -0.69465837861970381 I I #
edge $-1 $818 -13.324727744204864 $427 -2.5764956283210552 $629 $825 forward 7 unknown #
point $-1 -2.5764956283210552 -29.689665015970188 14.769536900733069 #
point $-1 -2.5764956283210552 -18.943204650640723 14.769536900733069 #
edge $-1 $826 1 $826 0 $430 $-1 forward 7 unknown #
vertex $-1 $431 $827 #
ellipse-curve $-1 -7.9506116862629597 -19.834640674838784 4.9396351051798106 0 -0.69465837861970381 0.71933979245794832 2 0 0 1 I I #
point $-1 -5.9506116862629597 -24.316434833305447 9.5806687110749191 #
plane-surface $-1 0 0 14.769536900733069 0 0 1 1 0 0 forward_v I I I I #
coedge $-1 $652 $651 $644 $828 forward $435 $-1 #
coedge $-1 $644 $437 $439 $648 reversed $271 $-1 #
coedge $-1 $437 $643 $642 $828 reversed $271 $-1 #
coedge $-1 $445 $440 $437 $646 forward $446 $-1 #
edge $-1 $649 -29.683305556338048 $829 -18.936845191008583 $645 $830 forward 7 unknown #
coedge $-1 $439 $438 $652 $831 reversed $171 $-1 #
edge $-1 $832 2.4500672639978428e-014 $649 14.939338095852253 $643 $833 forward 7 unknown #
vertex $-1 $441 $834 #
straight-curve $-1 6.3505878608713324 -18.943204650640723 14.769536900733069 -1 0 0 I I #
coedge $-1 $642 $442 $445 $656 reversed $435 $-1 #
coedge $-1 $442 $642 $647 $831 forward $435 $-1 #
vertex $-1 $443 $835 #
straight-curve $-1 18.075291779684569 -29.689665015970192 37.177850774514695 0 0 1 I I #
straight-curve $-1 18.075291779684569 -29.689665015970206 4.3918005214167692 0 -0.71933979245794832 -0.69465837861970381 I I #
edge $-1 $829 7.3270596638007603 $447 18.075291779684569 $651 $836 forward 7 unknown #
point $-1 18.075291779684569 -29.689665015970188 14.769536900733069 #
point $-1 18.075291779684569 -18.943204650640723 14.769536900733069 #
edge $-1 $837 1 $837 0 $450 $-1 forward 7 unknown #
vertex $-1 $451 $838 #
ellipse-curve $-1 12.701175721742665 -19.834640674838784 4.9396351051798106 0 -0.69465837861970381 0.71933979245794832 2 0 0 1 I I #
point $-1 14.701175721742665 -24.316434833305447 9.5806687110749191 #
plane-surface $-1 0 0 14.769536900733069 0 0 1 1 0 0 forward_v I I I I #
coedge $-1 $674 $673 $666 $839 forward $455 $-1 #
coedge $-1 $666 $457 $459 $670 reversed $286 $-1 #
coedge $-1 $457 $665 $664 $839 reversed $286 $-1 #
coedge $-1 $465 $460 $457 $668 forward $466 $-1 #
edge $-1 $671 -29.683305556338048 $840 -18.936845191008583 $667 $841 forward 7 unknown #
coedge $-1 $459 $458 $674 $842 reversed $180 $-1 #
edge $-1 $843 2.4500672639978428e-014 $671 14.939338095852253 $665 $844 forward 7 unknown #
vertex $-1 $461 $845 #
straight-curve $-1 16.676481564874145 -18.943204650640723 14.769536900733069 -1 0 0 I I #
coedge $-1 $664 $462 $465 $678 reversed $455 $-1 #
coedge $-1 $462 $664 $669 $842 forward $455 $-1 #
vertex $-1 $463 $846 #
straight-curve $-1 38.727079187690194 -29.689665015970192 37.177850774514695 0 0 1 I I #
straight-curve $-1 38.727079187690194 -29.689665015970206 4.3918005214167692 0 -0.71933979245794832 -0.69465837861970381 I I #
edge $-1 $840 27.978847071806385 $467 38.727079187690194 $673 $847 forward 7 unknown #
point $-1 38.727079187690194 -29.689665015970188 14.769536900733069 #
point $-1 38.727079187690194 -18.943204650640723 14.769536900733069 #
edge $-1 $848 1 $848 0 $470 $-1 forward 7 unknown #
vertex $-1 $471 $849 #
ellipse-curve $-1 33.352963129748289 -19.834640674838784 4.9396351051798106 0 -0.69465837861970381 0.71933979245794832 2 0 0 1 I I #
point $-1 35.352963129748289 -24.316434833305447 9.5806687110749191 #
loop $-1 $-1 $482 $474 #
plane-surface $-1 -33.976515152210496 0 12.416606831592876 -1 0 0 0 0 1 forward_v I I I I #
coedge $-1 $692 $850 $478 $688 forward $475 $-1 #
edge $-1 $690 43.032488435537616 $698 53.410224814853933 $687 $851 forward 7 unknown #
coedge $-1 $485 $479 $850 $852 forward $301 $-1 #
vertex $-1 $852 $853 #
straight-curve $-1 -23.22828303632668 27.269552736244755 14.769536900733073 0 1 0 I I #
coedge $-1 $854 $687 $481 $693 forward $475 $-1 #
edge $-1 $698 8.9270834891923876 $696 19.675315605076197 $692 $855 forward 7 unknown #
coedge $-1 $695 $482 $485 $700 reversed $685 $-1 #
coedge $-1 $482 $694 $854 $856 reversed $685 $-1 #
vertex $-1 $856 $857 #
straight-curve $-1 -33.976515152210496 -1.3537265873666842 34.37005600530361 0 -0.71933979245794832 0.69465837861970381 I I #
vertex $-1 $693 $858 #
straight-curve $-1 -23.22828303632668 -13.024249925497827 45.640149644928755 0 -0.71933979245794832 0.69465837861970381 I I #
edge $-1 $859 -29.689665015970188 $486 -18.943204650640698 $485 $860 forward 7 unknown #
point $-1 -33.976515152210489 18.943204650640698 14.769536900733069 #
point $-1 -23.22828303632668 18.943204650640698 14.769536900733069 #
edge $-1 $861 1 $861 0 $489 $-1 forward 7 unknown #
vertex $-1 $490 $862 #
ellipse-curve $-1 -28.602399094268584 19.834640674838774 4.9396351051798106 0 0.69465837861970381 0.71933979245794832 2 0 0 1 I I #
point $-1 -26.602399094268584 24.316434833305436 9.5806687110749191 #
loop $-1 $-1 $501 $493 #
plane-surface $-1 0 29.689665015970188 0 0 -1 0 0 0 -1 forward_v I I I I #
coedge $-1 $710 $496 $498 $714 reversed $316 $-1 #
coedge $-1 $496 $709 $863 $864 reversed $316 $-1 #
coedge $-1 $504 $499 $496 $712 forward $494 $-1 #
edge $-1 $715 -8.3263480856040566 $865 2.4201122797254335 $711 $866 forward 7 unknown #
coedge $-1 $498 $497 $718 $867 reversed $198 $-1 #
edge $-1 $868 -59.379330031940391 $715 -44.43999193608812 $709 $869 forward 7 unknown #
vertex $-1 $500 $870 #
straight-curve $-1 -3.9753058431314798 18.943204650640698 14.769536900733069 1 0 0 I I #
coedge $-1 $863 $501 $504 $722 reversed $707 $-1 #
coedge $-1 $501 $863 $713 $867 forward $707 $-1 #
vertex $-1 $502 $871 #
straight-curve $-1 -13.324727744204864 29.689665015970188 57.802025336270688 0 0 1 I I #
straight-curve $-1 -13.324727744204864 -13.024249925497827 45.640149644928755 0 0.71933979245794832 -0.69465837861970381 I I #
edge $-1 $865 2.5764956283210552 $505 13.324727744204864 $717 $872 forward 7 unknown #
point $-1 -13.324727744204864 29.689665015970188 14.769536900733069 #
point $-1 -13.324727744204864 18.943204650640698 14.769536900733069 #
edge $-1 $873 1 $873 0 $508 $-1 forward 7 unknown #
vertex $-1 $509 $874 #
ellipse-curve $-1 -7.9506116862629597 19.834640674838774 4.9396351051798106 0 0.69465837861970381 0.71933979245794832 2 0 0 1 I I #
point $-1 -5.9506116862629597 24.316434833305436 9.5806687110749191 #
loop $-1 $-1 $520 $512 #
plane-surface $-1 0 29.689665015970188 0 0 -1 0 0 0 -1 forward_v I I I I #
coedge $-1 $732 $515 $517 $736 reversed $331 $-1 #
coedge $-1 $515 $731 $875 $876 reversed $331 $-1 #
coedge $-1 $523 $518 $515 $734 forward $513 $-1 #
edge $-1 $737 -8.3263480856040566 $877 2.4201122797254335 $733 $878 forward 7 unknown #
coedge $-1 $517 $516 $740 $879 reversed $207 $-1 #
edge $-1 $880 -59.379330031940391 $737 -44.43999193608812 $731 $881 forward 7 unknown #
vertex $-1 $519 $882 #
straight-curve $-1 6.3505878608713324 18.943204650640698 14.769536900733069 1 0 0 I I #
coedge $-1 $875 $520 $523 $744 reversed $729 $-1 #
coedge $-1 $520 $875 $735 $879 forward $729 $-1 #
vertex $-1 $521 $883 #
straight-curve $-1 7.3270596638007603 29.689665015970188 57.802025336270688 0 0 1 I I #
straight-curve $-1 7.3270596638007603 -13.024249925497827 45.640149644928755 0 0.71933979245794832 -0.69465837861970381 I I #
edge $-1 $877 -18.075291779684569 $524 -7.3270596638007603 $739 $884 forward 7 unknown #
point $-1 7.3270596638007603 29.689665015970188 14.769536900733069 #
point $-1 7.3270596638007603 18.943204650640698 14.769536900733069 #
edge $-1 $885 1 $885 0 $527 $-1 forward 7 unknown #
vertex $-1 $528 $886 #
ellipse-curve $-1 12.701175721742665 19.834640674838774 4.9396351051798106 0 0.69465837861970381 0.71933979245794832 2 0 0 1 I I #
point $-1 14.701175721742665 24.316434833305436 9.5806687110749191 #
loop $-1 $-1 $539 $531 #
plane-surface $-1 0 29.689665015970188 0 0 -1 0 0 0 -1 forward_v I I I I #
coedge $-1 $754 $534 $536 $758 reversed $346 $-1 #
coedge $-1 $534 $753 $887 $888 reversed $346 $-1 #
coedge $-1 $542 $537 $534 $756 forward $532 $-1 #
edge $-1 $759 -8.3263480856040566 $889 2.4201122797254335 $755 $890 forward 7 unknown #
coedge $-1 $536 $535 $762 $891 reversed $216 $-1 #
edge $-1 $892 -59.379330031940391 $759 -44.43999193608812 $753 $893 forward 7 unknown #
vertex $-1 $538 $894 #
straight-curve $-1 16.676481564874145 18.943204650640698 14.769536900733069 1 0 0 I I #
coedge $-1 $887 $539 $542 $766 reversed $751 $-1 #
coedge $-1 $539 $887 $757 $891 forward $751 $-1 #
vertex $-1 $540 $895 #
straight-curve $-1 27.978847071806385 29.689665015970188 57.802025336270688 0 0 1 I I #
straight-curve $-1 27.978847071806385 -13.024249925497827 45.640149644928755 0 0.71933979245794832 -0.69465837861970381 I I #
edge $-1 $889 -38.727079187690194 $543 -27.978847071806385 $761 $896 forward 7 unknown #
point $-1 27.978847071806385 29.689665015970188 14.769536900733069 #
point $-1 27.978847071806385 18.943204650640698 14.769536900733069 #
edge $-1 $897 1 $897 0 $546 $-1 forward 7 unknown #
vertex $-1 $547 $898 #
ellipse-curve $-1 33.352963129748289 19.834640674838774 4.9396351051798106 0 0.69465837861970381 0.71933979245794832 2 0 0 1 I I #
point $-1 35.352963129748289 24.316434833305436 9.5806687110749191 #
plane-surface $-1 48.630634479812002 0 0 -1 0 0 0 0 1 forward_v I I I I #
coedge $-1 $555 $553 $557 $778 reversed $361 $-1 #
edge $-1 $568 -14.769536900733069 $780 14.769536900733069 $567 $899 forward 7 unknown #
vertex $-1 $778 $900 #
straight-curve $-1 -48.630634479812002 -29.689665015970188 0 0 0 -1 I I #
edge $-1 $776 -29.689665015970188 $780 29.689665015970188 $774 $901 forward 7 unknown #
straight-curve $-1 0 -29.689665015970188 -14.769536900733069 -1 0 0 I I #
vertex $-1 $560 $902 #
straight-curve $-1 0 29.689665015970188 -14.769536900733069 1 0 0 I I #
point $-1 48.630634479812002 29.689665015970188 -14.769536900733069 #
point $-1 48.630634479812002 -29.689665015970188 -14.769536900733069 #
straight-curve $-1 -48.630634479812002 0 14.769536900733069 0 -1 0 I I #
point $-1 -48.630634479812002 29.689665015970188 14.769536900733069 #
point $-1 -48.630634479812002 -29.689665015970188 14.769536900733069 #
straight-curve $-1 48.630634479812002 -29.689665015970188 0 0 0 -1 I I #
straight-curve $-1 48.630634479812002 29.689665015970188 0 0 0 -1 I I #
plane-surface $-1 0 -29.689665015970188 0 0 1 0 0 0 1 forward_v I I I I #
coedge $-1 $903 $580 $590 $801 reversed $380 $-1 #
coedge $-1 $580 $903 $593 $803 forward $380 $-1 #
coedge $-1 $904 $583 $581 $793 forward $578 $-1 #
edge $-1 $794 33.976515152210496 $905 48.630634479812002 $581 $906 forward 7 unknown #
vertex $-1 $793 $907 #
straight-curve $-1 -33.976515152210496 29.689665015970188 6.2083034157964381 0 0 -1 I I #
coedge $-1 $583 $904 $585 $798 forward $578 $-1 #
straight-curve $-1 -33.976515152210496 0 14.769536900733069 0 1 0 I I #
edge $-1 $908 -48.630634479812002 $587 -33.976515152210496 $585 $909 forward 7 unknown #
point $-1 -33.976515152210496 -29.689665015970188 14.769536900733069 #
straight-curve $-1 -48.630634479812002 0 10.063676762452683 0 -1 0 I I #
edge $-1 $908 -14.769536900733069 $591 -10.063676762452683 $790 $910 forward 7 unknown #
point $-1 -48.630634479812002 -29.689665015970188 10.063676762452683 #
edge $-1 $905 -14.769536900733069 $594 -10.063676762452683 $593 $911 forward 7 unknown #
point $-1 -48.630634479812002 29.689665015970188 10.063676762452683 #
coedge $-1 $608 $607 $600 $806 forward $598 $-1 #
edge $-1 $813 22.408313873781626 $808 32.786050253097912 $805 $912 forward 7 unknown #
edge $-1 $605 18.943204650640727 $813 29.689665015970188 $604 $913 forward 7 unknown #
vertex $-1 $806 $914 #
straight-curve $-1 -33.976515152210489 -29.689665015970206 4.3918005214167692 0 0.71933979245794832 0.69465837861970381 I I #
edge $-1 $808 -19.675315605076197 $609 -8.9270834891923876 $608 $915 forward 7 unknown #
point $-1 -33.976515152210496 -18.943204650640727 14.769536900733069 #
point $-1 -23.22828303632668 -29.689665015970188 4.3918005214167861 #
vertex $-1 $612 $916 #
straight-curve $-1 0 -29.689665015970188 14.769536900733069 1 0 0 I I #
vertex $-1 $615 $917 #
point $-1 -26.602399094268584 -19.834640674838784 4.9396351051798106 #
edge $-1 $818 22.408313873781626 $821 32.786050253097912 $620 $918 forward 7 unknown #
vertex $-1 $634 $919 #
straight-curve $-1 -13.324727744204864 -48.626510206978772 14.769536900733069 0 -1 0 I I #
edge $-1 $821 -9.3494219010733843 $631 1.3988102148104247 $630 $920 forward 7 unknown #
vertex $-1 $820 $921 #
straight-curve $-1 -13.324727744204864 -29.689665015970206 4.3918005214167692 0 0.71933979245794832 0.69465837861970381 I I #
point $-1 -13.324727744204864 -18.943204650640723 14.769536900733069 #
point $-1 -2.5764956283210552 -29.689665015970188 4.3918005214167861 #
straight-curve $-1 0 -29.689665015970188 14.769536900733069 1 0 0 I I #
vertex $-1 $637 $922 #
point $-1 -5.9506116862629597 -19.834640674838784 4.9396351051798106 #
edge $-1 $829 22.408313873781626 $832 32.786050253097912 $642 $923 forward 7 unknown #
vertex $-1 $656 $924 #
straight-curve $-1 7.3270596638007603 -48.626510206978772 14.769536900733069 0 -1 0 I I #
edge $-1 $832 0.97647180292942792 $653 11.724703918813237 $652 $925 forward 7 unknown #
vertex $-1 $831 $926 #
straight-curve $-1 7.3270596638007603 -29.689665015970206 4.3918005214167692 0 0.71933979245794832 0.69465837861970381 I I #
point $-1 7.3270596638007603 -18.943204650640723 14.769536900733069 #
point $-1 18.075291779684569 -29.689665015970188 4.3918005214167861 #
straight-curve $-1 0 -29.689665015970188 14.769536900733069 1 0 0 I I #
vertex $-1 $659 $927 #
point $-1 14.701175721742665 -19.834640674838784 4.9396351051798106 #
edge $-1 $840 22.408313873781626 $843 32.786050253097912 $664 $928 forward 7 unknown #
vertex $-1 $678 $929 #
straight-curve $-1 27.978847071806385 -48.626510206978772 14.769536900733069 0 -1 0 I I #
edge $-1 $843 11.30236550693224 $675 22.050597622816049 $674 $930 forward 7 unknown #
vertex $-1 $842 $931 #
straight-curve $-1 27.978847071806385 -29.689665015970206 4.3918005214167692 0 0.71933979245794832 0.69465837861970381 I I #
point $-1 27.978847071806385 -18.943204650640723 14.769536900733069 #
point $-1 38.727079187690194 -29.689665015970188 4.3918005214167861 #
straight-curve $-1 0 -29.689665015970188 14.769536900733069 1 0 0 I I #
vertex $-1 $681 $932 #
point $-1 35.352963129748289 -19.834640674838784 4.9396351051798106 #
coedge $-1 $687 $854 $689 $852 reversed $475 $-1 #
straight-curve $-1 -23.22828303632668 29.689665015970188 57.802025336270688 0 0 -1 I I #
edge $-1 $690 23.22828303632668 $859 33.976515152210496 $850 $933 forward 7 unknown #
point $-1 -23.22828303632668 29.689665015970188 14.769536900733069 #
coedge $-1 $850 $692 $695 $856 forward $475 $-1 #
straight-curve $-1 -14.301199547134292 29.689665015970185 4.3918005214167586 -1 0 0 I I #
edge $-1 $696 -53.410224814853933 $859 -43.032488435537616 $854 $934 forward 7 unknown #
point $-1 -33.976515152210489 29.689665015970192 4.391800521416755 #
point $-1 -23.22828303632668 29.689665015970192 4.391800521416755 #
vertex $-1 $700 $935 #
straight-curve $-1 -33.976515152210496 0 14.769536900733069 0 -1 0 I I #
vertex $-1 $703 $936 #
point $-1 -26.602399094268584 19.834640674838774 4.9396351051798106 #
coedge $-1 $718 $717 $710 $864 forward $707 $-1 #
edge $-1 $865 43.032488435537616 $868 53.410224814853933 $863 $937 forward 7 unknown #
vertex $-1 $722 $938 #
straight-curve $-1 -2.5764956283210552 27.269552736244755 14.769536900733073 0 1 0 I I #
edge $-1 $868 -1.3988102148104247 $719 9.3494219010733843 $718 $939 forward 7 unknown #
vertex $-1 $867 $940 #
straight-curve $-1 -2.5764956283210552 -13.024249925497827 45.640149644928755 0 -0.71933979245794832 0.69465837861970381 I I #
point $-1 -2.5764956283210552 18.943204650640698 14.769536900733069 #
point $-1 -13.324727744204864 29.689665015970192 4.391800521416755 #
straight-curve $-1 0 29.689665015970188 14.769536900733069 -1 0 0 I I #
vertex $-1 $725 $941 #
point $-1 -5.9506116862629597 19.834640674838774 4.9396351051798106 #
coedge $-1 $740 $739 $732 $876 forward $729 $-1 #
edge $-1 $877 43.032488435537616 $880 53.410224814853933 $875 $942 forward 7 unknown #
vertex $-1 $744 $943 #
straight-curve $-1 18.075291779684569 27.269552736244755 14.769536900733073 0 1 0 I I #
edge $-1 $880 -11.724703918813237 $741 -0.97647180292942792 $740 $944 forward 7 unknown #
vertex $-1 $879 $945 #
straight-curve $-1 18.075291779684569 -13.024249925497827 45.640149644928755 0 -0.71933979245794832 0.69465837861970381 I I #
point $-1 18.075291779684569 18.943204650640698 14.769536900733069 #
point $-1 7.3270596638007603 29.689665015970192 4.391800521416755 #
straight-curve $-1 0 29.689665015970188 14.769536900733069 -1 0 0 I I #
vertex $-1 $747 $946 #
point $-1 14.701175721742665 19.834640674838774 4.9396351051798106 #
coedge $-1 $762 $761 $754 $888 forward $751 $-1 #
edge $-1 $889 43.032488435537616 $892 53.410224814853933 $887 $947 forward 7 unknown #
vertex $-1 $766 $948 #
straight-curve $-1 38.727079187690194 27.269552736244755 14.769536900733073 0 1 0 I I #
edge $-1 $892 -22.050597622816049 $763 -11.30236550693224 $762 $949 forward 7 unknown #
vertex $-1 $891 $950 #
straight-curve $-1 38.727079187690194 -13.024249925497827 45.640149644928755 0 -0.71933979245794832 0.69465837861970381 I I #
point $-1 38.727079187690194 18.943204650640698 14.769536900733069 #
point $-1 27.978847071806385 29.689665015970192 4.391800521416755 #
straight-curve $-1 0 29.689665015970188 14.769536900733069 -1 0 0 I I #
vertex $-1 $769 $951 #
point $-1 35.352963129748289 19.834640674838774 4.9396351051798106 #
straight-curve $-1 -48.630634479812002 29.689665015970188 0 0 0 -1 I I #
point $-1 -48.630634479812002 -29.689665015970188 -14.769536900733069 #
straight-curve $-1 -48.630634479812002 0 -14.769536900733069 0 1 0 I I #
point $-1 -48.630634479812002 29.689665015970188 -14.769536900733069 #
coedge $-1 $791 $790 $904 $952 reversed $380 $-1 #
coedge $-1 $796 $792 $903 $952 forward $578 $-1 #
vertex $-1 $793 $953 #
straight-curve $-1 0 29.689665015970188 14.769536900733069 -1 0 0 I I #
point $-1 -33.976515152210496 29.689665015970188 14.769536900733069 #
vertex $-1 $952 $954 #
straight-curve $-1 0 -29.689665015970188 14.769536900733069 1 0 0 I I #
straight-curve $-1 -48.630634479812002 -29.689665015970188 0 0 0 -1 I I #
straight-curve $-1 -48.630634479812002 29.689665015970188 0 0 0 -1 I I #
straight-curve $-1 -33.976515152210489 -29.689665015970192 37.177850774514695 0 0 -1 I I #
straight-curve $-1 -33.976515152210496 0 14.769536900733069 0 -1 0 I I #
point $-1 -33.976515152210489 -29.689665015970188 4.3918005214167861 #
straight-curve $-1 -14.301199547134292 -29.689665015970188 4.3918005214167879 1 0 0 I I #
point $-1 -33.976515152210496 -29.689665015970188 14.769536900733069 #
point $-1 -28.602399094268584 -18.445323917599378 3.5009555202639144 #
straight-curve $-1 -13.324727744204864 -29.689665015970192 37.177850774514695 0 0 -1 I I #
point $-1 -13.324727744204864 -29.689665015970188 14.769536900733069 #
straight-curve $-1 -3.9753058431314798 -29.689665015970188 4.3918005214167879 1 0 0 I I #
point $-1 -13.324727744204864 -29.689665015970188 4.3918005214167861 #
point $-1 -7.9506116862629597 -18.445323917599378 3.5009555202639144 #
straight-curve $-1 7.3270596638007603 -29.689665015970192 37.177850774514695 0 0 -1 I I #
point $-1 7.3270596638007603 -29.689665015970188 14.769536900733069 #
straight-curve $-1 6.3505878608713324 -29.689665015970188 4.3918005214167879 1 0 0 I I #
point $-1 7.3270596638007603 -29.689665015970188 4.3918005214167861 #
point $-1 12.701175721742665 -18.445323917599378 3.5009555202639144 #
straight-curve $-1 27.978847071806385 -29.689665015970192 37.177850774514695 0 0 -1 I I #
point $-1 27.978847071806385 -29.689665015970188 14.769536900733069 #
straight-curve $-1 16.676481564874145 -29.689665015970188 4.3918005214167879 1 0 0 I I #
point $-1 27.978847071806385 -29.689665015970188 4.3918005214167861 #
point $-1 33.352963129748289 -18.445323917599378 3.5009555202639144 #
straight-curve $-1 0 29.689665015970188 14.769536900733069 -1 0 0 I I #
straight-curve $-1 -33.976515152210489 29.689665015970188 57.802025336270688 0 0 1 I I #
point $-1 -33.976515152210496 29.689665015970188 14.769536900733069 #
point $-1 -28.602399094268584 18.445323917599367 3.5009555202639144 #
straight-curve $-1 -2.5764956283210552 29.689665015970188 57.802025336270688 0 0 -1 I I #
point $-1 -2.5764956283210552 29.689665015970188 14.769536900733069 #
straight-curve $-1 -3.9753058431314798 29.689665015970185 4.3918005214167586 -1 0 0 I I #
point $-1 -2.5764956283210552 29.689665015970192 4.391800521416755 #
point $-1 -7.9506116862629597 18.445323917599367 3.5009555202639144 #
straight-curve $-1 18.075291779684569 29.689665015970188 57.802025336270688 0 0 -1 I I #
point $-1 18.075291779684569 29.689665015970188 14.769536900733069 #
straight-curve $-1 6.3505878608713324 29.689665015970185 4.3918005214167586 -1 0 0 I I #
point $-1 18.075291779684569 29.689665015970192 4.391800521416755 #
point $-1 12.701175721742665 18.445323917599367 3.5009555202639144 #
straight-curve $-1 38.727079187690194 29.689665015970188 57.802025336270688 0 0 -1 I I #
point $-1 38.727079187690194 29.689665015970188 14.769536900733069 #
straight-curve $-1 16.676481564874145 29.689665015970185 4.3918005214167586 -1 0 0 I I #
point $-1 38.727079187690194 29.689665015970192 4.391800521416755 #
point $-1 33.352963129748289 18.445323917599367 3.5009555202639144 #
edge $-1 $905 -29.689665015970188 $908 29.689665015970188 $903 $955 forward 7 unknown #
point $-1 -48.630634479812002 29.689665015970188 14.769536900733069 #
point $-1 -48.630634479812002 -29.689665015970188 14.769536900733069 #
straight-curve $-1 -48.630634479812002 0 14.769536900733069 0 -1 0 I I #
End-of-ACIS-data 