500 0 5 0           
7 Unknown 11 ACIS 5.0 NT 24 Thu Mar 25 19:01:01 1999 
-1 9.9999999999999995e-007 1e-010 
body $-1 $5 $-1 $6 #
body $-1 $7 $-1 $8 #
body $-1 $9 $-1 $10 #
body $-1 $11 $-1 $12 #
body $-1 $13 $-1 $14 #
lump $-1 $-1 $15 $0 #
transform $-1 1 0 0 0 1 0 0 0 1 79.453108310190132 48.627232419025695 20.920676926709465 1 rotate no_reflect no_shear #
lump $-1 $-1 $16 $1 #
transform $-1 1 0 0 0 1 0 0 0 1 79.453108310190132 48.627232419025695 20.920676926709465 1 rotate no_reflect no_shear #
lump $-1 $-1 $17 $2 #
transform $-1 1 0 0 0 1 0 0 0 1 79.453108310190132 48.627232419025695 20.920676926709465 1 rotate no_reflect no_shear #
lump $-1 $-1 $18 $3 #
transform $-1 1 0 0 0 1 0 0 0 1 79.453108310190132 48.627232419025695 20.920676926709465 1 rotate no_reflect no_shear #
lump $-1 $-1 $19 $4 #
transform $-1 1 0 0 0 1 0 0 0 1 79.453108310190132 48.627232419025695 20.920676926709465 1 rotate no_reflect no_shear #
shell $-1 $-1 $-1 $20 $-1 $5 #
shell $-1 $-1 $-1 $21 $-1 $7 #
shell $-1 $-1 $-1 $22 $-1 $9 #
shell $-1 $-1 $-1 $23 $-1 $11 #
shell $-1 $-1 $-1 $24 $-1 $13 #
face $-1 $25 $26 $15 $-1 $27 forward single #
face $-1 $28 $29 $16 $-1 $30 forward single #
face $-1 $31 $32 $17 $-1 $33 forward single #
face $-1 $34 $35 $18 $-1 $36 reversed single #
face $-1 $37 $38 $19 $-1 $39 forward single #
face $-1 $40 $41 $15 $-1 $42 reversed single #
loop $-1 $-1 $43 $20 #
plane-surface $-1 0 0 20.920676926709465 0 0 1 1 0 0 forward_v I I I I #
face $-1 $44 $45 $16 $-1 $46 reversed single #
loop $-1 $-1 $47 $21 #
plane-surface $-1 -71.717042046664716 0 -7.4137987448599088 0 0 1 1 0 0 forward_v I I I I #
face $-1 $48 $49 $17 $-1 $50 reversed single #
loop $-1 $-1 $51 $22 #
plane-surface $-1 71.717042046664702 0 -7.4137987448599088 0 0 1 1 0 0 forward_v I I I I #
face $-1 $52 $53 $18 $-1 $54 reversed single #
loop $-1 $-1 $55 $23 #
plane-surface $-1 35.819573876325343 60.105901851911391 202.15732816610131 -1 0 0 0 0.57357644374324357 0.81915203911291934 forward_v I I I I #
face $-1 $56 $57 $19 $-1 $58 forward single #
loop $-1 $59 $60 $24 #
cone-surface $-1 17.740608555163547 44.168938692060792 17.004223023879447 0 -0.57357644374324357 -0.81915203911291934 1.5 0 0 1 I I 0 1 1.5 forward I I I I #
face $-1 $61 $62 $15 $-1 $63 reversed single #
loop $-1 $-1 $64 $25 #
plane-surface $-1 0 0 -20.920676926709465 0 0 1 1 0 0 forward_v I I I I #
coedge $-1 $65 $66 $67 $68 forward $26 $-1 #
face $-1 $69 $70 $16 $-1 $71 reversed single #
loop $-1 $-1 $72 $28 #
plane-surface $-1 -71.717042046664716 0 -13.117998451839727 0 0 1 1 0 0 forward_v I I I I #
coedge $-1 $73 $74 $75 $76 forward $29 $-1 #
face $-1 $77 $78 $17 $-1 $79 reversed single #
loop $-1 $-1 $80 $31 #
plane-surface $-1 71.717042046664702 0 -13.117998451839727 0 0 1 1 0 0 forward_v I I I I #
coedge $-1 $81 $82 $83 $84 reversed $32 $-1 #
face $-1 $85 $86 $18 $-1 $87 reversed single #
loop $-1 $-1 $88 $34 #
plane-surface $-1 17.740608555163547 -31.038960765899823 71.988976793797548 0 0.57357644374324357 0.81915203911291934 1 0 0 forward_v I I I I #
coedge $-1 $89 $90 $91 $92 reversed $35 $-1 #
face $-1 $-1 $93 $19 $-1 $94 forward single #
loop $-1 $95 $96 $37 #
cone-surface $-1 17.740608555163547 42.647014593708739 14.830690198151611 0 -0.57357644374324357 -0.81915203911291934 0.75 0 0 1 I I -0.70710678118654757 0.70710678118654757 0.75 forward I I I I #
loop $-1 $-1 $97 $24 #
coedge $-1 $60 $60 $98 $99 reversed $38 $-1 #
face $-1 $100 $101 $15 $-1 $102 reversed single #
loop $-1 $-1 $103 $40 #
plane-surface $-1 0 -48.627232419025695 0 0 1 0 0 0 1 forward_v I I I I #
coedge $-1 $104 $105 $106 $107 forward $41 $-1 #
coedge $-1 $108 $43 $109 $110 forward $26 $-1 #
coedge $-1 $43 $108 $111 $112 forward $26 $-1 #
coedge $-1 $113 $114 $43 $68 reversed $115 $-1 #
edge $-1 $116 -48.627232419025695 $117 48.627232419025695 $67 $118 forward 7 unknown #
face $-1 $119 $120 $16 $-1 $121 reversed single #
loop $-1 $-1 $122 $44 #
plane-surface $-1 -63.980975783139307 0 -10.265898598349818 -1 0 0 0 0 1 forward_v I I I I #
coedge $-1 $123 $124 $125 $126 forward $45 $-1 #
coedge $-1 $127 $47 $128 $129 reversed $29 $-1 #
coedge $-1 $47 $127 $130 $131 reversed $29 $-1 #
coedge $-1 $122 $132 $47 $76 reversed $70 $-1 #
edge $-1 $133 -48.627232419025695 $134 48.627232419025695 $75 $135 forward 7 unknown #
face $-1 $136 $137 $17 $-1 $138 reversed single #
loop $-1 $-1 $139 $48 #
plane-surface $-1 63.980975783139286 0 -10.265898598349818 1 0 0 0 0 -1 forward_v I I I I #
coedge $-1 $140 $141 $142 $143 reversed $49 $-1 #
coedge $-1 $144 $51 $145 $146 reversed $32 $-1 #
coedge $-1 $51 $144 $147 $148 reversed $32 $-1 #
coedge $-1 $149 $150 $51 $84 forward $151 $-1 #
edge $-1 $152 -48.627232419025695 $153 48.627232419025695 $83 $154 forward 7 unknown #
face $-1 $155 $156 $18 $-1 $157 reversed single #
loop $-1 $-1 $158 $52 #
plane-surface $-1 -0.33835676599824893 60.105901851911391 202.15732816610131 1 0 0 0 -0.57357644374324357 -0.81915203911291934 forward_v I I I I #
coedge $-1 $159 $160 $161 $162 reversed $53 $-1 #
coedge $-1 $90 $55 $163 $164 reversed $35 $-1 #
coedge $-1 $55 $89 $159 $165 reversed $35 $-1 #
coedge $-1 $161 $166 $55 $92 forward $156 $-1 #
edge $-1 $167 80.157987156341193 $168 84.87255736921496 $91 $169 forward 7 unknown #
loop $-1 $-1 $98 $56 #
plane-surface $-1 17.740608555163547 -31.038960765899823 71.988976793797548 0 0.57357644374324357 0.81915203911291934 1 0 0 forward_v I I I I #
loop $-1 $-1 $170 $37 #
coedge $-1 $96 $96 $97 $171 reversed $57 $-1 #
coedge $-1 $97 $97 $96 $171 forward $59 $-1 #
coedge $-1 $98 $98 $60 $99 forward $93 $-1 #
edge $-1 $172 1.1632797024658986e-015 $172 6.2831853071796013 $98 $173 forward 7 unknown #
face $-1 $174 $175 $15 $-1 $176 reversed single #
loop $-1 $-1 $177 $61 #
plane-surface $-1 -79.453108310190132 0 0 1 0 0 0 0 -1 forward_v I I I I #
coedge $-1 $178 $111 $179 $180 forward $62 $-1 #
coedge $-1 $181 $64 $178 $182 forward $41 $-1 #
coedge $-1 $64 $181 $183 $184 forward $41 $-1 #
coedge $-1 $114 $113 $64 $107 reversed $115 $-1 #
edge $-1 $185 -48.627232419025695 $186 48.627232419025695 $106 $187 forward 7 unknown #
coedge $-1 $66 $65 $188 $189 forward $26 $-1 #
coedge $-1 $190 $191 $65 $110 reversed $175 $-1 #
edge $-1 $117 -79.453108310190132 $192 79.453108310190132 $109 $193 forward 7 unknown #
coedge $-1 $103 $194 $66 $112 reversed $62 $-1 #
edge $-1 $195 -79.453108310190132 $116 79.453108310190132 $111 $196 forward 7 unknown #
coedge $-1 $106 $67 $194 $197 forward $115 $-1 #
coedge $-1 $67 $106 $190 $198 reversed $115 $-1 #
loop $-1 $-1 $113 $174 #
vertex $-1 $68 $199 #
vertex $-1 $68 $200 #
straight-curve $-1 79.453108310190132 0 20.920676926709465 0 1 0 I I #
face $-1 $201 $202 $16 $-1 $203 reversed single #
loop $-1 $-1 $204 $69 #
plane-surface $-1 0 -48.627232419025695 0 0 1 0 0 0 1 forward_v I I I I #
coedge $-1 $125 $75 $205 $206 reversed $70 $-1 #
coedge $-1 $207 $72 $204 $208 reversed $45 $-1 #
coedge $-1 $72 $207 $209 $210 reversed $45 $-1 #
coedge $-1 $132 $122 $72 $126 reversed $70 $-1 #
edge $-1 $211 -48.627232419025695 $212 48.627232419025695 $125 $213 forward 7 unknown #
coedge $-1 $74 $73 $214 $215 reversed $29 $-1 #
coedge $-1 $216 $217 $73 $129 forward $218 $-1 #
edge $-1 $219 -43.594587286857774 $134 -28.122454759806949 $128 $220 forward 7 unknown #
coedge $-1 $221 $205 $74 $131 forward $120 $-1 #
edge $-1 $133 28.122454759806949 $222 43.594587286857774 $130 $223 forward 7 unknown #
coedge $-1 $75 $125 $216 $224 reversed $70 $-1 #
vertex $-1 $131 $225 #
vertex $-1 $129 $226 #
straight-curve $-1 -63.980975783139307 0 -7.4137987448599088 0 1 0 I I #
face $-1 $227 $228 $17 $-1 $229 reversed single #
loop $-1 $-1 $147 $77 #
plane-surface $-1 0 -48.627232419025695 0 0 1 0 0 0 1 forward_v I I I I #
coedge $-1 $230 $231 $232 $233 reversed $78 $-1 #
coedge $-1 $234 $80 $235 $236 reversed $49 $-1 #
coedge $-1 $80 $234 $237 $238 reversed $49 $-1 #
coedge $-1 $150 $149 $80 $143 forward $151 $-1 #
edge $-1 $239 -48.627232419025695 $240 48.627232419025695 $142 $241 forward 7 unknown #
coedge $-1 $82 $81 $231 $242 forward $32 $-1 #
coedge $-1 $243 $232 $81 $146 forward $228 $-1 #
edge $-1 $244 28.122454759806935 $152 43.594587286857767 $145 $245 forward 7 unknown #
coedge $-1 $246 $247 $82 $148 forward $137 $-1 #
edge $-1 $153 -43.594587286857767 $248 -28.122454759806935 $147 $249 forward 7 unknown #
coedge $-1 $142 $83 $247 $250 forward $151 $-1 #
coedge $-1 $83 $142 $243 $251 reversed $151 $-1 #
loop $-1 $-1 $83 $227 #
vertex $-1 $251 $252 #
vertex $-1 $250 $253 #
straight-curve $-1 79.453108310190132 0 -7.4137987448599088 0 -1 0 I I #
face $-1 $-1 $254 $18 $-1 $255 forward single #
loop $-1 $-1 $91 $85 #
plane-surface $-1 0 48.627232419025695 0 0 -1 0 0 0 -1 forward_v I I I I #
coedge $-1 $256 $257 $258 $259 reversed $86 $-1 #
coedge $-1 $260 $88 $90 $165 forward $53 $-1 #
coedge $-1 $88 $260 $256 $261 forward $53 $-1 #
coedge $-1 $258 $91 $88 $162 forward $156 $-1 #
edge $-1 $168 -26.94926959874357 $262 9.2086610435800225 $161 $263 forward 7 unknown #
coedge $-1 $264 $265 $89 $164 forward $254 $-1 #
edge $-1 $266 11.84117757022943 $167 18.57428149307 $163 $267 forward 7 unknown #
edge $-1 $168 -97.254464838051405 $266 -89.034862613619396 $90 $268 forward 7 unknown #
coedge $-1 $91 $258 $264 $269 reversed $156 $-1 #
vertex $-1 $269 $270 #
vertex $-1 $92 $271 #
straight-curve $-1 35.819573876325343 48.627232419025695 101.07866408305065 0 0 -1 I I #
coedge $-1 $170 $170 $-1 $272 reversed $95 $-1 #
edge $-1 $273 0 $273 6.2831853071796004 $96 $274 forward 7 unknown #
vertex $-1 $99 $275 #
ellipse-curve $-1 17.740608555163547 45.260680457605403 18.563391820272582 0 0.57357644374324357 0.81915203911291934 1.5 0 0 1 I I #
face $-1 $-1 $115 $15 $-1 $276 reversed single #
loop $-1 $-1 $190 $100 #
plane-surface $-1 0 48.627232419025695 0 0 -1 0 0 0 -1 forward_v I I I I #
coedge $-1 $277 $188 $191 $278 forward $101 $-1 #
coedge $-1 $194 $103 $104 $182 reversed $62 $-1 #
coedge $-1 $188 $277 $103 $180 reversed $101 $-1 #
edge $-1 $195 -20.920676926709465 $279 20.920676926709465 $179 $280 forward 7 unknown #
coedge $-1 $105 $104 $277 $281 forward $41 $-1 #
edge $-1 $186 -79.453108310190132 $279 79.453108310190132 $178 $282 forward 7 unknown #
coedge $-1 $191 $190 $105 $184 reversed $175 $-1 #
edge $-1 $283 -79.453108310190132 $185 79.453108310190132 $183 $284 forward 7 unknown #
vertex $-1 $107 $285 #
vertex $-1 $197 $286 #
straight-curve $-1 79.453108310190132 0 -20.920676926709465 0 -1 0 I I #
coedge $-1 $177 $179 $108 $189 reversed $101 $-1 #
edge $-1 $192 -48.627232419025695 $195 48.627232419025695 $188 $287 forward 7 unknown #
coedge $-1 $183 $109 $114 $198 forward $175 $-1 #
coedge $-1 $109 $183 $177 $278 reversed $175 $-1 #
vertex $-1 $110 $288 #
straight-curve $-1 0 48.627232419025695 20.920676926709465 -1 0 0 I I #
coedge $-1 $111 $178 $113 $197 reversed $62 $-1 #
vertex $-1 $189 $289 #
straight-curve $-1 0 -48.627232419025695 20.920676926709465 1 0 0 I I #
edge $-1 $116 -20.920676926709465 $186 20.920676926709465 $113 $290 forward 7 unknown #
edge $-1 $117 -20.920676926709465 $185 20.920676926709465 $114 $291 forward 7 unknown #
point $-1 79.453108310190132 -48.627232419025695 20.920676926709465 #
point $-1 79.453108310190132 48.627232419025695 20.920676926709465 #
face $-1 $-1 $218 $16 $-1 $292 reversed single #
loop $-1 $-1 $293 $119 #
plane-surface $-1 -79.453108310190132 0 0 1 0 0 0 0 -1 forward_v I I I I #
coedge $-1 $205 $221 $123 $208 forward $120 $-1 #
coedge $-1 $130 $204 $122 $206 forward $120 $-1 #
edge $-1 $212 -7.9850491526648177 $133 -2.2808494456849999 $205 $294 forward 7 unknown #
coedge $-1 $124 $123 $293 $295 reversed $45 $-1 #
edge $-1 $296 -43.594587286857774 $212 -28.122454759806949 $204 $297 forward 7 unknown #
coedge $-1 $217 $216 $124 $210 forward $218 $-1 #
edge $-1 $211 28.122454759806949 $298 43.594587286857774 $209 $299 forward 7 unknown #
vertex $-1 $210 $300 #
vertex $-1 $208 $301 #
straight-curve $-1 -63.980975783139307 0 -13.117998451839727 0 -1 0 I I #
coedge $-1 $302 $303 $127 $215 forward $202 $-1 #
edge $-1 $222 -48.627232419025695 $219 48.627232419025695 $214 $304 forward 7 unknown #
coedge $-1 $209 $128 $132 $224 forward $218 $-1 #
coedge $-1 $128 $209 $302 $305 reversed $218 $-1 #
loop $-1 $-1 $209 $201 #
vertex $-1 $305 $306 #
straight-curve $-1 -35.858521023332358 48.627232419025695 -7.4137987448599088 1 0 0 I I #
coedge $-1 $204 $130 $303 $307 forward $120 $-1 #
vertex $-1 $307 $308 #
straight-curve $-1 -35.858521023332358 -48.627232419025695 -7.4137987448599088 -1 0 0 I I #
edge $-1 $134 2.2808494456849999 $211 7.9850491526648177 $216 $309 forward 7 unknown #
point $-1 -63.980975783139307 -48.627232419025695 -7.4137987448599088 #
point $-1 -63.980975783139307 48.627232419025695 -7.4137987448599088 #
face $-1 $-1 $151 $17 $-1 $310 reversed single #
loop $-1 $-1 $145 $136 #
plane-surface $-1 0 48.627232419025695 0 0 -1 0 0 0 -1 forward_v I I I I #
coedge $-1 $311 $139 $234 $312 reversed $78 $-1 #
coedge $-1 $139 $311 $144 $242 reversed $78 $-1 #
coedge $-1 $145 $237 $139 $233 forward $228 $-1 #
edge $-1 $313 -7.9850491526648177 $244 -2.2808494456849999 $232 $314 forward 7 unknown #
coedge $-1 $141 $140 $230 $312 forward $49 $-1 #
coedge $-1 $247 $246 $140 $236 forward $137 $-1 #
edge $-1 $315 28.122454759806935 $239 43.594587286857767 $235 $316 forward 7 unknown #
coedge $-1 $232 $243 $141 $238 forward $228 $-1 #
edge $-1 $240 -43.594587286857767 $313 -28.122454759806935 $237 $317 forward 7 unknown #
vertex $-1 $143 $318 #
vertex $-1 $143 $319 #
straight-curve $-1 79.453108310190132 0 -13.117998451839727 0 1 0 I I #
edge $-1 $244 -48.627232419025695 $248 48.627232419025695 $231 $320 forward 7 unknown #
coedge $-1 $237 $145 $150 $251 forward $228 $-1 #
vertex $-1 $146 $321 #
straight-curve $-1 35.858521023332351 48.627232419025695 -7.4137987448599088 1 0 0 I I #
coedge $-1 $235 $147 $311 $322 forward $137 $-1 #
coedge $-1 $147 $235 $149 $250 reversed $137 $-1 #
vertex $-1 $148 $323 #
straight-curve $-1 35.858521023332351 -48.627232419025695 -7.4137987448599088 -1 0 0 I I #
edge $-1 $153 7.4137987448599088 $239 13.117998451839727 $149 $324 forward 7 unknown #
edge $-1 $152 7.4137987448599088 $240 13.117998451839727 $150 $325 forward 7 unknown #
point $-1 79.453108310190117 48.627232419025695 -7.4137987448599088 #
point $-1 79.453108310190117 -48.627232419025695 -7.4137987448599088 #
loop $-1 $-1 $163 $155 #
plane-surface $-1 0 0 20.920676926709465 0 0 1 1 0 0 forward_v I I I I #
coedge $-1 $257 $158 $160 $261 reversed $86 $-1 #
coedge $-1 $158 $256 $326 $327 reversed $86 $-1 #
coedge $-1 $166 $161 $158 $259 forward $156 $-1 #
edge $-1 $262 -84.87255736921496 $328 -80.157987156341193 $258 $329 forward 7 unknown #
coedge $-1 $160 $159 $265 $330 reversed $53 $-1 #
edge $-1 $331 89.034862613619396 $262 97.254464838051405 $256 $332 forward 7 unknown #
vertex $-1 $162 $333 #
straight-curve $-1 8.8703042775817735 48.627232419025695 16.206106713835698 -1 0 0 I I #
coedge $-1 $326 $163 $166 $269 forward $254 $-1 #
coedge $-1 $163 $326 $260 $330 forward $254 $-1 #
vertex $-1 $164 $334 #
straight-curve $-1 35.819573876325343 30.052950925955695 20.920676926709461 0 1 0 I I #
straight-curve $-1 35.819573876325343 -31.038960765899823 71.988976793797548 0 -0.81915203911291934 0.57357644374324357 I I #
edge $-1 $167 -35.819573876325343 $328 0.33835676599824893 $166 $335 forward 7 unknown #
point $-1 35.819573876325343 48.627232419025695 20.920676926709465 #
point $-1 35.819573876325343 48.627232419025695 16.206106713835695 #
edge $-1 $336 1 $336 0 $170 $-1 forward 7 unknown #
vertex $-1 $171 $337 #
ellipse-curve $-1 17.740608555163547 43.077196926516173 15.445054227486301 0 0.57357644374324357 0.81915203911291934 1.5 0 0 1 I I #
point $-1 19.240608555163547 45.26068045760541 18.563391820272589 #
plane-surface $-1 79.453108310190132 0 0 -1 0 0 0 0 1 forward_v I I I I #
coedge $-1 $179 $177 $181 $281 reversed $101 $-1 #
edge $-1 $192 -20.920676926709465 $283 20.920676926709465 $191 $338 forward 7 unknown #
vertex $-1 $281 $339 #
straight-curve $-1 -79.453108310190132 -48.627232419025695 0 0 0 -1 I I #
edge $-1 $279 -48.627232419025695 $283 48.627232419025695 $277 $340 forward 7 unknown #
straight-curve $-1 0 -48.627232419025695 -20.920676926709465 -1 0 0 I I #
vertex $-1 $184 $341 #
straight-curve $-1 0 48.627232419025695 -20.920676926709465 1 0 0 I I #
point $-1 79.453108310190132 48.627232419025695 -20.920676926709465 #
point $-1 79.453108310190132 -48.627232419025695 -20.920676926709465 #
straight-curve $-1 -79.453108310190132 0 20.920676926709465 0 -1 0 I I #
point $-1 -79.453108310190132 48.627232419025695 20.920676926709465 #
point $-1 -79.453108310190132 -48.627232419025695 20.920676926709465 #
straight-curve $-1 79.453108310190132 -48.627232419025695 0 0 0 -1 I I #
straight-curve $-1 79.453108310190132 48.627232419025695 0 0 0 -1 I I #
plane-surface $-1 0 48.627232419025695 0 0 -1 0 0 0 -1 forward_v I I I I #
coedge $-1 $303 $302 $207 $295 forward $202 $-1 #
straight-curve $-1 -63.980975783139307 -48.627232419025695 -5.1329492991749088 0 0 1 I I #
edge $-1 $298 -48.627232419025695 $296 48.627232419025695 $293 $342 forward 7 unknown #
vertex $-1 $208 $343 #
straight-curve $-1 -35.858521023332358 -48.627232419025695 -13.117998451839727 1 0 0 I I #
vertex $-1 $210 $344 #
straight-curve $-1 -35.858521023332358 48.627232419025695 -13.117998451839727 -1 0 0 I I #
point $-1 -63.980975783139307 48.627232419025695 -13.117998451839727 #
point $-1 -63.980975783139307 -48.627232419025695 -13.117998451839727 #
coedge $-1 $293 $214 $217 $305 forward $202 $-1 #
coedge $-1 $214 $293 $221 $307 reversed $202 $-1 #
straight-curve $-1 -79.453108310190132 0 -7.4137987448599088 0 1 0 I I #
edge $-1 $219 7.4137987448599088 $298 13.117998451839727 $217 $345 forward 7 unknown #
point $-1 -79.453108310190132 48.627232419025695 -7.4137987448599088 #
edge $-1 $222 7.4137987448599088 $296 13.117998451839727 $303 $346 forward 7 unknown #
point $-1 -79.453108310190132 -48.627232419025695 -7.4137987448599088 #
straight-curve $-1 -63.980975783139307 48.627232419025695 -5.1329492991749088 0 0 -1 I I #
plane-surface $-1 79.453108310190132 0 0 -1 0 0 0 0 1 forward_v I I I I #
coedge $-1 $231 $230 $246 $322 reversed $78 $-1 #
edge $-1 $315 -48.627232419025695 $313 48.627232419025695 $230 $347 forward 7 unknown #
vertex $-1 $238 $348 #
straight-curve $-1 63.980975783139286 48.627232419025695 -5.1329492991749088 0 0 1 I I #
vertex $-1 $236 $349 #
straight-curve $-1 35.858521023332351 -48.627232419025695 -13.117998451839727 1 0 0 I I #
straight-curve $-1 35.858521023332351 48.627232419025695 -13.117998451839727 -1 0 0 I I #
point $-1 79.453108310190117 -48.627232419025695 -13.117998451839727 #
point $-1 79.453108310190117 48.627232419025695 -13.117998451839727 #
straight-curve $-1 63.980975783139286 0 -7.4137987448599088 0 -1 0 I I #
point $-1 63.980975783139286 48.627232419025695 -7.4137987448599088 #
edge $-1 $248 2.2808494456849999 $315 7.9850491526648177 $246 $350 forward 7 unknown #
point $-1 63.980975783139286 -48.627232419025695 -7.4137987448599088 #
straight-curve $-1 79.453108310190132 -48.627232419025695 0 0 0 -1 I I #
straight-curve $-1 79.453108310190132 48.627232419025695 0 0 0 -1 I I #
coedge $-1 $265 $264 $257 $327 forward $254 $-1 #
edge $-1 $328 -18.57428149307 $331 -11.84117757022943 $326 $351 forward 7 unknown #
vertex $-1 $327 $352 #
straight-curve $-1 -0.33835676599824893 48.627232419025695 101.07866408305065 0 0 1 I I #
edge $-1 $331 -9.2086610435800225 $266 26.94926959874357 $265 $353 forward 7 unknown #
vertex $-1 $330 $354 #
straight-curve $-1 -0.33835676599824893 -31.038960765899823 71.988976793797548 0 0.81915203911291934 -0.57357644374324357 I I #
point $-1 -0.33835676599824893 48.627232419025695 16.206106713835695 #
point $-1 35.819573876325343 41.894128496185125 20.920676926709461 #
straight-curve $-1 0 48.627232419025695 20.920676926709465 -1 0 0 I I #
vertex $-1 $272 $355 #
point $-1 19.240608555163547 43.077196926516173 15.445054227486301 #
straight-curve $-1 -79.453108310190132 48.627232419025695 0 0 0 -1 I I #
point $-1 -79.453108310190132 -48.627232419025695 -20.920676926709465 #
straight-curve $-1 -79.453108310190132 0 -20.920676926709465 0 1 0 I I #
point $-1 -79.453108310190132 48.627232419025695 -20.920676926709465 #
straight-curve $-1 -79.453108310190132 0 -13.117998451839727 0 -1 0 I I #
point $-1 -79.453108310190132 -48.627232419025695 -13.117998451839727 #
point $-1 -79.453108310190132 48.627232419025695 -13.117998451839727 #
straight-curve $-1 -79.453108310190132 48.627232419025695 0 0 0 -1 I I #
straight-curve $-1 -79.453108310190132 -48.627232419025695 0 0 0 -1 I I #
straight-curve $-1 63.980975783139286 0 -13.117998451839727 0 1 0 I I #
point $-1 63.980975783139286 48.627232419025695 -13.117998451839727 #
point $-1 63.980975783139286 -48.627232419025695 -13.117998451839727 #
straight-curve $-1 63.980975783139286 -48.627232419025695 -5.1329492991749088 0 0 -1 I I #
straight-curve $-1 -0.33835676599824893 30.052950925955695 20.920676926709461 0 -1 0 I I #
point $-1 -0.33835676599824893 48.627232419025695 20.920676926709465 #
straight-curve $-1 8.8703042775817735 41.894128496185125 20.920676926709469 1 0 0 I I #
point $-1 -0.33835676599824893 41.894128496185125 20.920676926709461 #
point $-1 17.740608555163547 42.216832260901306 14.216326168816922 #
End-of-ACIS-data 