500 0 14 0           
7 Unknown 11 ACIS 5.0 NT 24 Fri Mar 26 00:01:58 1999 
-1 9.9999999999999995e-007 1e-010 
body $-1 $14 $-1 $15 #
body $-1 $16 $-1 $17 #
body $-1 $18 $-1 $19 #
body $-1 $20 $-1 $21 #
body $-1 $22 $-1 $23 #
body $-1 $24 $-1 $25 #
body $-1 $26 $-1 $27 #
body $-1 $28 $-1 $29 #
body $-1 $30 $-1 $31 #
body $-1 $32 $-1 $33 #
body $-1 $34 $-1 $35 #
body $-1 $36 $-1 $37 #
body $-1 $38 $-1 $39 #
body $-1 $40 $-1 $41 #
lump $-1 $-1 $42 $0 #
transform $-1 1 0 0 0 1 0 0 0 1 60.341196935941646 38.493179278917644 12.550136810587878 1 rotate no_reflect no_shear #
lump $-1 $-1 $43 $1 #
transform $-1 1 0 0 0 1 0 0 0 1 60.341196935941646 38.493179278917644 12.550136810587878 1 rotate no_reflect no_shear #
lump $-1 $-1 $44 $2 #
transform $-1 1 0 0 0 1 0 0 0 1 60.341196935941646 38.493179278917644 12.550136810587878 1 rotate no_reflect no_shear #
lump $-1 $-1 $45 $3 #
transform $-1 1 0 0 0 1 0 0 0 1 60.341196935941646 38.493179278917644 12.550136810587878 1 rotate no_reflect no_shear #
lump $-1 $-1 $46 $4 #
transform $-1 1 0 0 0 1 0 0 0 1 60.341196935941646 38.493179278917644 12.550136810587878 1 rotate no_reflect no_shear #
lump $-1 $-1 $47 $5 #
transform $-1 1 0 0 0 1 0 0 0 1 60.341196935941646 38.493179278917644 12.550136810587878 1 rotate no_reflect no_shear #
lump $-1 $-1 $48 $6 #
transform $-1 1 0 0 0 1 0 0 0 1 60.341196935941646 38.493179278917644 12.550136810587878 1 rotate no_reflect no_shear #
lump $-1 $-1 $49 $7 #
transform $-1 1 0 0 0 1 0 0 0 1 60.341196935941646 38.493179278917644 12.550136810587878 1 rotate no_reflect no_shear #
lump $-1 $-1 $50 $8 #
transform $-1 1 0 0 0 1 0 0 0 1 60.341196935941646 38.493179278917644 12.550136810587878 1 rotate no_reflect no_shear #
lump $-1 $-1 $51 $9 #
transform $-1 1 0 0 0 1 0 0 0 1 60.341196935941646 38.493179278917644 12.550136810587878 1 rotate no_reflect no_shear #
lump $-1 $-1 $52 $10 #
transform $-1 1 0 0 0 1 0 0 0 1 60.341196935941646 38.493179278917644 12.550136810587878 1 rotate no_reflect no_shear #
lump $-1 $-1 $53 $11 #
transform $-1 1 0 0 0 1 0 0 0 1 60.341196935941646 38.493179278917644 12.550136810587878 1 rotate no_reflect no_shear #
lump $-1 $-1 $54 $12 #
transform $-1 1 0 0 0 1 0 0 0 1 60.341196935941646 38.493179278917644 12.550136810587878 1 rotate no_reflect no_shear #
lump $-1 $-1 $55 $13 #
transform $-1 1 0 0 0 1 0 0 0 1 60.341196935941646 38.493179278917644 12.550136810587878 1 rotate no_reflect no_shear #
shell $-1 $-1 $-1 $56 $-1 $14 #
shell $-1 $-1 $-1 $57 $-1 $16 #
shell $-1 $-1 $-1 $58 $-1 $18 #
shell $-1 $-1 $-1 $59 $-1 $20 #
shell $-1 $-1 $-1 $60 $-1 $22 #
shell $-1 $-1 $-1 $61 $-1 $24 #
shell $-1 $-1 $-1 $62 $-1 $26 #
shell $-1 $-1 $-1 $63 $-1 $28 #
shell $-1 $-1 $-1 $64 $-1 $30 #
shell $-1 $-1 $-1 $65 $-1 $32 #
shell $-1 $-1 $-1 $66 $-1 $34 #
shell $-1 $-1 $-1 $67 $-1 $36 #
shell $-1 $-1 $-1 $68 $-1 $38 #
shell $-1 $-1 $-1 $69 $-1 $40 #
face $-1 $70 $71 $42 $-1 $72 forward single #
face $-1 $73 $74 $43 $-1 $75 reversed single #
face $-1 $76 $77 $44 $-1 $78 reversed single #
face $-1 $79 $80 $45 $-1 $81 forward single #
face $-1 $82 $83 $46 $-1 $84 forward single #
face $-1 $85 $86 $47 $-1 $87 forward single #
face $-1 $88 $89 $48 $-1 $90 reversed single #
face $-1 $91 $92 $49 $-1 $93 forward single #
face $-1 $94 $95 $50 $-1 $96 forward single #
face $-1 $97 $98 $51 $-1 $99 forward single #
face $-1 $100 $101 $52 $-1 $102 reversed single #
face $-1 $103 $104 $53 $-1 $105 forward single #
face $-1 $106 $107 $54 $-1 $108 forward single #
face $-1 $109 $110 $55 $-1 $111 forward single #
face $-1 $112 $113 $42 $-1 $114 reversed single #
loop $-1 $-1 $115 $56 #
plane-surface $-1 0 0 12.550136810587878 0 0 1 1 0 0 forward_v I I I I #
face $-1 $116 $117 $43 $-1 $118 reversed single #
loop $-1 $-1 $119 $57 #
plane-surface $-1 -56.154908388618153 0 6.897883355325888 0 0 1 1 0 0 forward_v I I I I #
face $-1 $120 $121 $44 $-1 $122 reversed single #
loop $-1 $-1 $123 $58 #
plane-surface $-1 -42.617466009009291 -15.944396284571866 55.400838710901155 0 0.70710678939079041 0.70710677298230451 1 0 0 forward_v I I I I #
face $-1 $124 $125 $45 $-1 $126 forward single #
loop $-1 $127 $128 $59 #
cone-surface $-1 -48.228158308380515 31.980377808657806 6.0373352225836223 0 -0.70710678939079041 -0.70710677298230451 1 0 0 1 I I 0 1 1 forward I I I I #
face $-1 $129 $130 $46 $-1 $131 forward single #
loop $-1 $132 $133 $60 #
cone-surface $-1 -42.617466009009291 31.980377808657806 6.0373352225836223 0 -0.70710678939079041 -0.70710677298230451 1 0 0 1 I I 0 1 1 forward I I I I #
face $-1 $134 $135 $47 $-1 $136 forward single #
loop $-1 $137 $138 $61 #
cone-surface $-1 -37.006773709638068 31.980377808657806 6.0373352225836223 0 -0.70710678939079041 -0.70710677298230451 1 0 0 1 I I 0 1 1 forward I I I I #
face $-1 $139 $140 $48 $-1 $141 reversed single #
loop $-1 $-1 $142 $62 #
plane-surface $-1 4.1862885473234961 -137.35040991036996 71.104838662419183 -1 0 0 0 -0.81915205242281985 0.57357642473473569 forward_v I I I I #
face $-1 $143 $144 $49 $-1 $145 forward single #
loop $-1 $146 $147 $63 #
cone-surface $-1 -12.633826277345797 -33.847967171612254 6.5792760408302211 0 0.81915205242281985 -0.57357642473473569 1 0 0 1 I I 0 1 1 forward I I I I #
face $-1 $148 $149 $50 $-1 $150 forward single #
loop $-1 $151 $152 $64 #
cone-surface $-1 -6.3262832180948152 -33.847967171612254 6.5792760408302211 0 0.81915205242281985 -0.57357642473473569 1 0 0 1 I I 0 1 1 forward I I I I #
face $-1 $153 $154 $51 $-1 $155 forward single #
loop $-1 $156 $157 $65 #
cone-surface $-1 -0.018740158843833399 -33.847967171612254 6.5792760408302211 0 0.81915205242281985 -0.57357642473473569 1 0 0 1 I I 0 1 1 forward I I I I #
face $-1 $158 $159 $52 $-1 $160 reversed single #
loop $-1 $-1 $161 $66 #
plane-surface $-1 25.211432078160097 -137.35040991036996 71.104838662419183 -1 0 0 0 -0.81915205242281985 0.57357642473473569 forward_v I I I I #
face $-1 $162 $163 $53 $-1 $164 forward single #
loop $-1 $165 $166 $67 #
cone-surface $-1 8.3913172534908043 -33.847967171612254 6.5792760408302211 0 0.81915205242281985 -0.57357642473473569 1 0 0 1 I I 0 1 1 forward I I I I #
face $-1 $167 $168 $54 $-1 $169 forward single #
loop $-1 $170 $171 $68 #
cone-surface $-1 14.698860312741793 -33.847967171612254 6.5792760408302211 0 0.81915205242281985 -0.57357642473473569 1 0 0 1 I I 0 1 1 forward I I I I #
face $-1 $172 $173 $55 $-1 $174 forward single #
loop $-1 $175 $176 $69 #
cone-surface $-1 21.006403371992768 -33.847967171612254 6.5792760408302211 0 0.81915205242281985 -0.57357642473473569 1 0 0 1 I I 0 1 1 forward I I I I #
face $-1 $177 $178 $42 $-1 $179 reversed single #
loop $-1 $-1 $180 $70 #
plane-surface $-1 0 0 -12.550136810587878 0 0 1 1 0 0 forward_v I I I I #
coedge $-1 $181 $182 $183 $184 forward $71 $-1 #
face $-1 $185 $186 $43 $-1 $187 reversed single #
loop $-1 $-1 $188 $73 #
plane-surface $-1 -51.968619841294668 0 9.7240100829568821 -1 0 0 0 0 1 forward_v I I I I #
coedge $-1 $189 $190 $191 $192 forward $74 $-1 #
face $-1 $193 $194 $44 $-1 $195 forward single #
loop $-1 $-1 $196 $76 #
plane-surface $-1 -33.266312176723915 69.390943782170325 140.73617679742799 -1 0 0 0 0.70710678939079041 0.70710677298230451 forward_v I I I I #
coedge $-1 $197 $198 $199 $200 reversed $77 $-1 #
face $-1 $-1 $201 $45 $-1 $202 forward single #
loop $-1 $203 $204 $79 #
cone-surface $-1 -48.228158308380515 30.907460272468164 4.9644177112911425 0 -0.70710678939079041 -0.70710677298230451 0.5 0 0 1 I I -0.70710678118654746 0.70710678118654746 0.5 forward I I I I #
loop $-1 $-1 $205 $59 #
coedge $-1 $128 $128 $206 $207 reversed $80 $-1 #
face $-1 $-1 $208 $46 $-1 $209 forward single #
loop $-1 $210 $211 $82 #
cone-surface $-1 -42.617466009009291 30.907460272468164 4.9644177112911425 0 -0.70710678939079041 -0.70710677298230451 0.5 0 0 1 I I -0.70710678118654746 0.70710678118654746 0.5 forward I I I I #
loop $-1 $-1 $212 $60 #
coedge $-1 $133 $133 $213 $214 reversed $83 $-1 #
face $-1 $-1 $215 $47 $-1 $216 forward single #
loop $-1 $217 $218 $85 #
cone-surface $-1 -37.006773709638068 30.907460272468164 4.9644177112911425 0 -0.70710678939079041 -0.70710677298230451 0.5 0 0 1 I I -0.70710678118654746 0.70710678118654746 0.5 forward I I I I #
loop $-1 $-1 $219 $61 #
coedge $-1 $138 $138 $220 $221 reversed $86 $-1 #
face $-1 $222 $223 $48 $-1 $224 reversed single #
loop $-1 $-1 $225 $88 #
plane-surface $-1 -6.3262832180948081 -38.493179278917623 1.8842626569551868 0 -0.81915205242281985 0.57357642473473569 1 0 0 forward_v I I I I #
coedge $-1 $226 $227 $228 $229 reversed $89 $-1 #
face $-1 $-1 $230 $49 $-1 $231 forward single #
loop $-1 $232 $233 $91 #
cone-surface $-1 -12.633826277345797 -32.527341667375858 5.6545641355215412 0 0.81915205242281985 -0.57357642473473569 0.5 0 0 1 I I -0.70710678118654746 0.70710678118654746 0.5 forward I I I I #
loop $-1 $-1 $234 $63 #
coedge $-1 $147 $147 $235 $236 reversed $92 $-1 #
face $-1 $-1 $237 $50 $-1 $238 forward single #
loop $-1 $239 $240 $94 #
cone-surface $-1 -6.3262832180948152 -32.527341667375858 5.6545641355215412 0 0.81915205242281985 -0.57357642473473569 0.5 0 0 1 I I -0.70710678118654746 0.70710678118654746 0.5 forward I I I I #
loop $-1 $-1 $241 $64 #
coedge $-1 $152 $152 $242 $243 reversed $95 $-1 #
face $-1 $-1 $244 $51 $-1 $245 forward single #
loop $-1 $246 $247 $97 #
cone-surface $-1 -0.018740158843833399 -32.527341667375858 5.6545641355215412 0 0.81915205242281985 -0.57357642473473569 0.5 0 0 1 I I -0.70710678118654746 0.70710678118654746 0.5 forward I I I I #
loop $-1 $-1 $248 $65 #
coedge $-1 $157 $157 $249 $250 reversed $98 $-1 #
face $-1 $251 $252 $52 $-1 $253 reversed single #
loop $-1 $-1 $254 $100 #
plane-surface $-1 -6.3262832180948081 -38.493179278917623 1.8842626569551868 0 -0.81915205242281985 0.57357642473473569 1 0 0 forward_v I I I I #
coedge $-1 $255 $256 $257 $258 reversed $101 $-1 #
face $-1 $-1 $259 $53 $-1 $260 forward single #
loop $-1 $261 $262 $103 #
cone-surface $-1 8.3913172534908043 -32.527341667375858 5.6545641355215412 0 0.81915205242281985 -0.57357642473473569 0.5 0 0 1 I I -0.70710678118654746 0.70710678118654746 0.5 forward I I I I #
loop $-1 $-1 $263 $67 #
coedge $-1 $166 $166 $264 $265 reversed $104 $-1 #
face $-1 $-1 $266 $54 $-1 $267 forward single #
loop $-1 $268 $269 $106 #
cone-surface $-1 14.698860312741793 -32.527341667375858 5.6545641355215412 0 0.81915205242281985 -0.57357642473473569 0.5 0 0 1 I I -0.70710678118654746 0.70710678118654746 0.5 forward I I I I #
loop $-1 $-1 $270 $68 #
coedge $-1 $171 $171 $271 $272 reversed $107 $-1 #
face $-1 $-1 $273 $55 $-1 $274 forward single #
loop $-1 $275 $276 $109 #
cone-surface $-1 21.006403371992768 -32.527341667375858 5.6545641355215412 0 0.81915205242281985 -0.57357642473473569 0.5 0 0 1 I I -0.70710678118654746 0.70710678118654746 0.5 forward I I I I #
loop $-1 $-1 $277 $69 #
coedge $-1 $176 $176 $278 $279 reversed $110 $-1 #
face $-1 $280 $281 $42 $-1 $282 reversed single #
loop $-1 $-1 $283 $112 #
plane-surface $-1 0 -38.493179278917644 0 0 1 0 0 0 1 forward_v I I I I #
coedge $-1 $284 $285 $286 $287 forward $113 $-1 #
coedge $-1 $288 $115 $289 $290 forward $71 $-1 #
coedge $-1 $115 $288 $291 $292 forward $71 $-1 #
coedge $-1 $293 $294 $115 $184 reversed $295 $-1 #
edge $-1 $296 -38.493179278917644 $297 38.493179278917644 $183 $298 forward 7 unknown #
face $-1 $299 $300 $43 $-1 $301 reversed single #
loop $-1 $-1 $302 $116 #
plane-surface $-1 0 38.493179278917644 0 0 -1 0 0 0 -1 forward_v I I I I #
coedge $-1 $191 $303 $304 $305 reversed $117 $-1 #
coedge $-1 $306 $119 $307 $308 reversed $74 $-1 #
coedge $-1 $119 $306 $309 $310 reversed $74 $-1 #
coedge $-1 $311 $188 $119 $192 reversed $117 $-1 #
edge $-1 $312 -38.493179278917644 $313 38.493179278917644 $191 $314 forward 7 unknown #
face $-1 $315 $316 $44 $-1 $317 reversed single #
loop $-1 $-1 $199 $120 #
plane-surface $-1 0 0 12.550136810587878 0 0 1 1 0 0 forward_v I I I I #
coedge $-1 $318 $319 $320 $321 reversed $121 $-1 #
coedge $-1 $322 $123 $323 $324 reversed $77 $-1 #
coedge $-1 $123 $322 $318 $325 forward $77 $-1 #
coedge $-1 $320 $326 $123 $200 forward $194 $-1 #
edge $-1 $327 -30.659886836790022 $328 -11.957579172219269 $199 $329 forward 7 unknown #
loop $-1 $-1 $206 $124 #
plane-surface $-1 -42.617466009009291 -15.944396284571866 55.400838710901155 0 0.70710678939079041 0.70710677298230451 1 0 0 forward_v I I I I #
loop $-1 $-1 $330 $79 #
coedge $-1 $204 $204 $205 $331 reversed $125 $-1 #
coedge $-1 $205 $205 $204 $331 forward $127 $-1 #
coedge $-1 $206 $206 $128 $207 forward $201 $-1 #
edge $-1 $332 1.2560740981099875e-015 $332 6.2831853071796013 $206 $333 forward 7 unknown #
loop $-1 $-1 $213 $129 #
plane-surface $-1 -42.617466009009291 -15.944396284571866 55.400838710901155 0 0.70710678939079041 0.70710677298230451 1 0 0 forward_v I I I I #
loop $-1 $-1 $334 $82 #
coedge $-1 $211 $211 $212 $335 reversed $130 $-1 #
coedge $-1 $212 $212 $211 $335 forward $132 $-1 #
coedge $-1 $213 $213 $133 $214 forward $208 $-1 #
edge $-1 $336 1.2560740981099875e-015 $336 6.2831853071796013 $213 $337 forward 7 unknown #
loop $-1 $-1 $220 $134 #
plane-surface $-1 -42.617466009009291 -15.944396284571866 55.400838710901155 0 0.70710678939079041 0.70710677298230451 1 0 0 forward_v I I I I #
loop $-1 $-1 $338 $85 #
coedge $-1 $218 $218 $219 $339 reversed $135 $-1 #
coedge $-1 $219 $219 $218 $339 forward $137 $-1 #
coedge $-1 $220 $220 $138 $221 forward $215 $-1 #
edge $-1 $340 1.2560740981099875e-015 $340 6.2831853071796013 $220 $341 forward 7 unknown #
face $-1 $342 $343 $48 $-1 $344 reversed single #
loop $-1 $-1 $345 $139 #
plane-surface $-1 -16.838854983513112 -137.35040991036996 71.104838662419183 1 0 0 0 0.81915205242281985 -0.57357642473473569 forward_v I I I I #
coedge $-1 $346 $347 $348 $349 reversed $140 $-1 #
coedge $-1 $227 $142 $350 $351 reversed $89 $-1 #
coedge $-1 $142 $226 $346 $352 reversed $89 $-1 #
coedge $-1 $348 $353 $142 $229 forward $354 $-1 #
edge $-1 $355 30.182025676267337 $356 37.650350934828154 $228 $357 forward 7 unknown #
loop $-1 $-1 $235 $143 #
plane-surface $-1 -6.3262832180948081 -38.493179278917623 1.8842626569551868 0 -0.81915205242281985 0.57357642473473569 1 0 0 forward_v I I I I #
loop $-1 $-1 $358 $91 #
coedge $-1 $233 $233 $234 $359 reversed $144 $-1 #
coedge $-1 $234 $234 $233 $359 forward $146 $-1 #
coedge $-1 $235 $235 $147 $236 forward $230 $-1 #
edge $-1 $360 -8.754794858201828e-016 $360 6.2831853071795996 $235 $361 forward 7 unknown #
loop $-1 $-1 $242 $148 #
plane-surface $-1 -6.3262832180948081 -38.493179278917623 1.8842626569551868 0 -0.81915205242281985 0.57357642473473569 1 0 0 forward_v I I I I #
loop $-1 $-1 $362 $94 #
coedge $-1 $240 $240 $241 $363 reversed $149 $-1 #
coedge $-1 $241 $241 $240 $363 forward $151 $-1 #
coedge $-1 $242 $242 $152 $243 forward $237 $-1 #
edge $-1 $364 -8.754794858201828e-016 $364 6.2831853071795996 $242 $365 forward 7 unknown #
loop $-1 $-1 $249 $153 #
plane-surface $-1 -6.3262832180948081 -38.493179278917623 1.8842626569551868 0 -0.81915205242281985 0.57357642473473569 1 0 0 forward_v I I I I #
loop $-1 $-1 $366 $97 #
coedge $-1 $247 $247 $248 $367 reversed $154 $-1 #
coedge $-1 $248 $248 $247 $367 forward $156 $-1 #
coedge $-1 $249 $249 $157 $250 forward $244 $-1 #
edge $-1 $368 -8.754794858201828e-016 $368 6.2831853071795996 $249 $369 forward 7 unknown #
face $-1 $370 $371 $52 $-1 $372 forward single #
loop $-1 $-1 $373 $158 #
plane-surface $-1 0 -38.493179278917644 0 0 1 0 0 0 1 forward_v I I I I #
coedge $-1 $374 $375 $376 $377 reversed $159 $-1 #
coedge $-1 $256 $161 $378 $379 reversed $101 $-1 #
coedge $-1 $161 $255 $380 $381 reversed $101 $-1 #
coedge $-1 $382 $373 $161 $258 forward $252 $-1 #
edge $-1 $383 -33.668156674254433 $384 -23.002282520621712 $257 $385 forward 7 unknown #
loop $-1 $-1 $264 $162 #
plane-surface $-1 -6.3262832180948081 -38.493179278917623 1.8842626569551868 0 -0.81915205242281985 0.57357642473473569 1 0 0 forward_v I I I I #
loop $-1 $-1 $386 $103 #
coedge $-1 $262 $262 $263 $387 reversed $163 $-1 #
coedge $-1 $263 $263 $262 $387 forward $165 $-1 #
coedge $-1 $264 $264 $166 $265 forward $259 $-1 #
edge $-1 $388 -8.754794858201828e-016 $388 6.2831853071795996 $264 $389 forward 7 unknown #
loop $-1 $-1 $271 $167 #
plane-surface $-1 -6.3262832180948081 -38.493179278917623 1.8842626569551868 0 -0.81915205242281985 0.57357642473473569 1 0 0 forward_v I I I I #
loop $-1 $-1 $390 $106 #
coedge $-1 $269 $269 $270 $391 reversed $168 $-1 #
coedge $-1 $270 $270 $269 $391 forward $170 $-1 #
coedge $-1 $271 $271 $171 $272 forward $266 $-1 #
edge $-1 $392 -8.754794858201828e-016 $392 6.2831853071795996 $271 $393 forward 7 unknown #
loop $-1 $-1 $278 $172 #
plane-surface $-1 -6.3262832180948081 -38.493179278917623 1.8842626569551868 0 -0.81915205242281985 0.57357642473473569 1 0 0 forward_v I I I I #
loop $-1 $-1 $394 $109 #
coedge $-1 $276 $276 $277 $395 reversed $173 $-1 #
coedge $-1 $277 $277 $276 $395 forward $175 $-1 #
coedge $-1 $278 $278 $176 $279 forward $273 $-1 #
edge $-1 $396 -8.754794858201828e-016 $396 6.2831853071795996 $278 $397 forward 7 unknown #
face $-1 $398 $399 $42 $-1 $400 reversed single #
loop $-1 $-1 $401 $177 #
plane-surface $-1 -60.341196935941646 0 0 1 0 0 0 0 -1 forward_v I I I I #
coedge $-1 $402 $291 $403 $404 forward $178 $-1 #
coedge $-1 $405 $180 $402 $406 forward $113 $-1 #
coedge $-1 $180 $405 $407 $408 forward $113 $-1 #
coedge $-1 $294 $293 $180 $287 reversed $295 $-1 #
edge $-1 $409 -38.493179278917644 $410 38.493179278917644 $286 $411 forward 7 unknown #
coedge $-1 $182 $181 $412 $413 forward $71 $-1 #
coedge $-1 $414 $415 $181 $290 reversed $399 $-1 #
edge $-1 $297 -60.341196935941646 $416 60.341196935941646 $289 $417 forward 7 unknown #
coedge $-1 $283 $418 $182 $292 reversed $178 $-1 #
edge $-1 $419 -60.341196935941646 $296 60.341196935941646 $291 $420 forward 7 unknown #
coedge $-1 $286 $183 $418 $421 forward $295 $-1 #
coedge $-1 $183 $286 $414 $422 reversed $295 $-1 #
loop $-1 $-1 $293 $398 #
vertex $-1 $184 $423 #
vertex $-1 $184 $424 #
straight-curve $-1 60.341196935941646 0 12.550136810587878 0 1 0 I I #
face $-1 $425 $426 $43 $-1 $427 forward single #
loop $-1 $-1 $428 $185 #
plane-surface $-1 -60.341196935941646 0 0 1 0 0 0 0 -1 forward_v I I I I #
coedge $-1 $309 $429 $311 $430 forward $186 $-1 #
coedge $-1 $188 $311 $431 $432 reversed $117 $-1 #
coedge $-1 $433 $307 $188 $305 forward $434 $-1 #
edge $-1 $313 2.035878313847447 $435 7.6881317691094351 $304 $436 forward 7 unknown #
coedge $-1 $190 $189 $428 $437 reversed $74 $-1 #
coedge $-1 $304 $438 $189 $308 forward $434 $-1 #
edge $-1 $439 -32.263742741632562 $313 -23.891165646985591 $307 $440 forward 7 unknown #
coedge $-1 $441 $302 $190 $310 forward $186 $-1 #
edge $-1 $312 23.891165646985591 $442 32.263742741632562 $309 $443 forward 7 unknown #
coedge $-1 $303 $191 $302 $430 reversed $117 $-1 #
vertex $-1 $310 $444 #
vertex $-1 $308 $445 #
straight-curve $-1 -51.968619841294668 0 6.897883355325888 0 -1 0 I I #
face $-1 $-1 $446 $44 $-1 $447 forward single #
loop $-1 $-1 $448 $193 #
plane-surface $-1 0 38.493179278917644 0 0 -1 0 0 0 -1 forward_v I I I I #
coedge $-1 $319 $196 $198 $325 reversed $121 $-1 #
coedge $-1 $196 $318 $448 $449 reversed $121 $-1 #
coedge $-1 $450 $199 $196 $321 forward $194 $-1 #
edge $-1 $328 -7.7891672696987087 $451 3.7977073878324816 $320 $452 forward 7 unknown #
coedge $-1 $198 $197 $453 $454 reversed $77 $-1 #
coedge $-1 $455 $456 $197 $324 forward $446 $-1 #
edge $-1 $457 -55.199965435538417 $327 -38.813649959217635 $323 $458 forward 7 unknown #
edge $-1 $459 -76.986358557835274 $328 -60.600043081514478 $318 $460 forward 7 unknown #
coedge $-1 $199 $450 $455 $461 forward $194 $-1 #
vertex $-1 $324 $462 #
vertex $-1 $200 $463 #
straight-curve $-1 -21.308733004504646 26.906304621386457 12.550136810587876 1 0 0 I I #
coedge $-1 $330 $330 $-1 $464 reversed $203 $-1 #
edge $-1 $465 0 $465 6.2831853071796004 $204 $466 forward 7 unknown #
vertex $-1 $207 $467 #
ellipse-curve $-1 -48.228158308380515 32.69974195015206 6.7566993473849601 0 0.70710678939079041 0.70710677298230451 1 0 0 1 I I #
coedge $-1 $334 $334 $-1 $468 reversed $210 $-1 #
edge $-1 $469 0 $469 6.2831853071796004 $211 $470 forward 7 unknown #
vertex $-1 $214 $471 #
ellipse-curve $-1 -42.617466009009291 32.69974195015206 6.7566993473849601 0 0.70710678939079041 0.70710677298230451 1 0 0 1 I I #
coedge $-1 $338 $338 $-1 $472 reversed $217 $-1 #
edge $-1 $473 0 $473 6.2831853071796004 $218 $474 forward 7 unknown #
vertex $-1 $221 $475 #
ellipse-curve $-1 -37.006773709638068 32.69974195015206 6.7566993473849601 0 0.70710678939079041 0.70710677298230451 1 0 0 1 I I #
face $-1 $-1 $354 $48 $-1 $476 forward single #
loop $-1 $-1 $477 $222 #
plane-surface $-1 0 -38.493179278917644 0 0 1 0 0 0 1 forward_v I I I I #
coedge $-1 $478 $479 $480 $481 reversed $223 $-1 #
coedge $-1 $482 $225 $227 $352 forward $140 $-1 #
coedge $-1 $225 $482 $478 $483 forward $140 $-1 #
coedge $-1 $480 $228 $225 $349 forward $354 $-1 #
edge $-1 $356 -7.3494301563709001 $484 13.675713374465708 $348 $485 forward 7 unknown #
coedge $-1 $486 $487 $226 $351 forward $343 $-1 #
edge $-1 $488 -33.668156674254433 $355 -23.002282520621712 $350 $489 forward 7 unknown #
edge $-1 $356 -13.020628004393146 $488 3.7145213117919725e-014 $227 $490 forward 7 unknown #
coedge $-1 $228 $480 $486 $491 forward $354 $-1 #
loop $-1 $-1 $480 $342 #
vertex $-1 $351 $492 #
vertex $-1 $229 $493 #
straight-curve $-1 4.1862885473234961 -68.675204955184981 12.55013681058788 0 1 0 I I #
coedge $-1 $358 $358 $-1 $494 reversed $232 $-1 #
edge $-1 $495 0 $495 6.2831853071796004 $233 $496 forward 7 unknown #
vertex $-1 $236 $497 #
ellipse-curve $-1 -12.633826277345797 -34.759016649637232 7.2171997337715244 0 -0.81915205242281985 0.57357642473473569 1 0 0 1 I I #
coedge $-1 $362 $362 $-1 $498 reversed $239 $-1 #
edge $-1 $499 0 $499 6.2831853071796004 $240 $500 forward 7 unknown #
vertex $-1 $243 $501 #
ellipse-curve $-1 -6.3262832180948152 -34.759016649637232 7.2171997337715244 0 -0.81915205242281985 0.57357642473473569 1 0 0 1 I I #
coedge $-1 $366 $366 $-1 $502 reversed $246 $-1 #
edge $-1 $503 0 $503 6.2831853071796004 $247 $504 forward 7 unknown #
vertex $-1 $250 $505 #
ellipse-curve $-1 -0.018740158843833399 -34.759016649637232 7.2171997337715244 0 -0.81915205242281985 0.57357642473473569 1 0 0 1 I I #
face $-1 $-1 $506 $52 $-1 $507 forward single #
loop $-1 $-1 $508 $251 #
plane-surface $-1 4.1862885473234961 -137.35040991036996 71.104838662419183 -1 0 0 0 -0.81915205242281985 0.57357642473473569 forward_v I I I I #
coedge $-1 $257 $509 $375 $510 forward $252 $-1 #
coedge $-1 $378 $254 $511 $512 reversed $159 $-1 #
coedge $-1 $254 $378 $373 $510 reversed $159 $-1 #
coedge $-1 $513 $508 $254 $377 forward $371 $-1 #
edge $-1 $514 -13.020628004393146 $515 3.7145213117919725e-014 $376 $516 forward 7 unknown #
coedge $-1 $375 $374 $255 $379 forward $159 $-1 #
edge $-1 $517 -13.020628004393146 $383 3.7145213117919725e-014 $255 $518 forward 7 unknown #
coedge $-1 $511 $519 $256 $381 forward $506 $-1 #
edge $-1 $384 30.182025676267337 $517 37.650350934828154 $380 $520 forward 7 unknown #
coedge $-1 $509 $257 $519 $521 reversed $252 $-1 #
vertex $-1 $258 $522 #
vertex $-1 $258 $523 #
straight-curve $-1 25.211432078160097 -38.493179278917644 35.552419331209592 0 0 1 I I #
coedge $-1 $386 $386 $-1 $524 reversed $261 $-1 #
edge $-1 $525 0 $525 6.2831853071796004 $262 $526 forward 7 unknown #
vertex $-1 $265 $527 #
ellipse-curve $-1 8.3913172534908043 -34.759016649637232 7.2171997337715244 0 -0.81915205242281985 0.57357642473473569 1 0 0 1 I I #
coedge $-1 $390 $390 $-1 $528 reversed $268 $-1 #
edge $-1 $529 0 $529 6.2831853071796004 $269 $530 forward 7 unknown #
vertex $-1 $272 $531 #
ellipse-curve $-1 14.698860312741793 -34.759016649637232 7.2171997337715244 0 -0.81915205242281985 0.57357642473473569 1 0 0 1 I I #
coedge $-1 $394 $394 $-1 $532 reversed $275 $-1 #
edge $-1 $533 0 $533 6.2831853071796004 $276 $534 forward 7 unknown #
vertex $-1 $279 $535 #
ellipse-curve $-1 21.006403371992768 -34.759016649637232 7.2171997337715244 0 -0.81915205242281985 0.57357642473473569 1 0 0 1 I I #
face $-1 $-1 $295 $42 $-1 $536 reversed single #
loop $-1 $-1 $414 $280 #
plane-surface $-1 0 38.493179278917644 0 0 -1 0 0 0 -1 forward_v I I I I #
coedge $-1 $537 $412 $415 $538 forward $281 $-1 #
coedge $-1 $418 $283 $284 $406 reversed $178 $-1 #
coedge $-1 $412 $537 $283 $404 reversed $281 $-1 #
edge $-1 $419 -12.550136810587878 $539 12.550136810587878 $403 $540 forward 7 unknown #
coedge $-1 $285 $284 $537 $541 forward $113 $-1 #
edge $-1 $410 -60.341196935941646 $539 60.341196935941646 $402 $542 forward 7 unknown #
coedge $-1 $415 $414 $285 $408 reversed $399 $-1 #
edge $-1 $543 -60.341196935941646 $409 60.341196935941646 $407 $544 forward 7 unknown #
vertex $-1 $287 $545 #
vertex $-1 $421 $546 #
straight-curve $-1 60.341196935941646 0 -12.550136810587878 0 -1 0 I I #
coedge $-1 $401 $403 $288 $413 reversed $281 $-1 #
edge $-1 $416 -38.493179278917644 $419 38.493179278917644 $412 $547 forward 7 unknown #
coedge $-1 $407 $289 $294 $422 forward $399 $-1 #
coedge $-1 $289 $407 $401 $538 reversed $399 $-1 #
vertex $-1 $290 $548 #
straight-curve $-1 0 38.493179278917644 12.550136810587878 -1 0 0 I I #
coedge $-1 $291 $402 $293 $421 reversed $178 $-1 #
vertex $-1 $413 $549 #
straight-curve $-1 0 -38.493179278917644 12.550136810587878 1 0 0 I I #
edge $-1 $296 -12.550136810587878 $410 12.550136810587878 $293 $550 forward 7 unknown #
edge $-1 $297 -12.550136810587878 $409 12.550136810587878 $294 $551 forward 7 unknown #
point $-1 60.341196935941646 -38.493179278917644 12.550136810587878 #
point $-1 60.341196935941646 38.493179278917644 12.550136810587878 #
face $-1 $-1 $434 $43 $-1 $552 reversed single #
loop $-1 $-1 $431 $299 #
plane-surface $-1 0 0 12.550136810587878 0 0 1 1 0 0 forward_v I I I I #
coedge $-1 $553 $554 $306 $437 forward $300 $-1 #
coedge $-1 $302 $441 $555 $556 reversed $186 $-1 #
edge $-1 $557 -7.6881317691094351 $312 -2.035878313847447 $302 $558 forward 7 unknown #
coedge $-1 $555 $559 $303 $432 forward $426 $-1 #
edge $-1 $435 -38.493179278917644 $557 38.493179278917644 $431 $560 forward 7 unknown #
coedge $-1 $438 $304 $559 $561 reversed $434 $-1 #
loop $-1 $-1 $304 $425 #
vertex $-1 $305 $562 #
straight-curve $-1 -51.968619841294668 -38.493179278917644 4.862005041478441 0 0 1 I I #
edge $-1 $442 -38.493179278917644 $439 38.493179278917644 $428 $563 forward 7 unknown #
coedge $-1 $307 $433 $553 $564 forward $434 $-1 #
vertex $-1 $437 $565 #
straight-curve $-1 -28.077454194309077 -38.493179278917644 6.897883355325888 1 0 0 I I #
coedge $-1 $429 $309 $554 $566 reversed $186 $-1 #
vertex $-1 $437 $567 #
straight-curve $-1 -28.077454194309077 38.493179278917644 6.897883355325888 -1 0 0 I I #
point $-1 -51.968619841294668 38.493179278917644 6.897883355325888 #
point $-1 -51.968619841294668 -38.493179278917644 6.897883355325888 #
loop $-1 $-1 $323 $315 #
plane-surface $-1 -51.968619841294668 0 9.7240100829568821 -1 0 0 0 0 1 forward_v I I I I #
coedge $-1 $453 $568 $319 $449 forward $316 $-1 #
edge $-1 $451 57.817951588126114 $459 69.404826514531919 $448 $569 forward 7 unknown #
coedge $-1 $326 $320 $568 $570 forward $194 $-1 #
vertex $-1 $570 $571 #
straight-curve $-1 -33.266312176723915 34.695471891085162 12.550136810587873 0 1 0 I I #
coedge $-1 $572 $448 $322 $454 forward $316 $-1 #
edge $-1 $459 11.957579172219269 $457 30.659886836790022 $453 $573 forward 7 unknown #
coedge $-1 $456 $323 $326 $461 reversed $446 $-1 #
coedge $-1 $323 $455 $572 $574 reversed $446 $-1 #
vertex $-1 $574 $575 #
straight-curve $-1 -51.968619841294668 -0.53909014894067564 39.995532217788238 0 -0.70710677298230462 0.70710678939079052 I I #
vertex $-1 $454 $576 #
straight-curve $-1 -33.266312176723915 -15.944396284571866 55.400838710901155 0 -0.70710677298230451 0.70710678939079041 I I #
edge $-1 $577 -38.493179278917644 $327 -26.906304621386461 $326 $578 forward 7 unknown #
point $-1 -51.968619841294668 26.906304621386461 12.550136810587878 #
point $-1 -33.266312176723915 26.906304621386454 12.55013681058788 #
edge $-1 $579 1 $579 0 $330 $-1 forward 7 unknown #
vertex $-1 $331 $580 #
ellipse-curve $-1 -48.228158308380515 31.26101366716356 5.3179710977822952 0 0.70710678939079041 0.70710677298230451 1 0 0 1 I I #
point $-1 -47.228158308380515 32.699741950152053 6.7566993473849513 #
edge $-1 $581 1 $581 0 $334 $-1 forward 7 unknown #
vertex $-1 $335 $582 #
ellipse-curve $-1 -42.617466009009291 31.26101366716356 5.3179710977822952 0 0.70710678939079041 0.70710677298230451 1 0 0 1 I I #
point $-1 -41.617466009009291 32.699741950152053 6.7566993473849513 #
edge $-1 $583 1 $583 0 $338 $-1 forward 7 unknown #
vertex $-1 $339 $584 #
ellipse-curve $-1 -37.006773709638068 31.26101366716356 5.3179710977822952 0 0.70710678939079041 0.70710677298230451 1 0 0 1 I I #
point $-1 -36.006773709638068 32.699741950152053 6.7566993473849513 #
plane-surface $-1 0 0 12.550136810587878 0 0 1 1 0 0 forward_v I I I I #
coedge $-1 $487 $486 $479 $585 forward $343 $-1 #
coedge $-1 $479 $345 $347 $483 reversed $223 $-1 #
coedge $-1 $345 $478 $477 $585 reversed $223 $-1 #
coedge $-1 $353 $348 $345 $481 forward $354 $-1 #
edge $-1 $484 -37.650350934828154 $586 -30.182025676267337 $480 $587 forward 7 unknown #
coedge $-1 $347 $346 $487 $588 reversed $140 $-1 #
edge $-1 $589 -3.7145213117919725e-014 $484 13.020628004393146 $478 $590 forward 7 unknown #
vertex $-1 $349 $591 #
straight-curve $-1 -3.163141609047404 -31.024854020356827 12.550136810587878 -1 0 0 I I #
coedge $-1 $477 $350 $353 $491 reversed $343 $-1 #
coedge $-1 $350 $477 $482 $588 forward $343 $-1 #
vertex $-1 $351 $592 #
straight-curve $-1 4.1862885473234961 -38.493179278917644 35.552419331209592 0 0 1 I I #
straight-curve $-1 4.1862885473234961 -38.493179278917623 1.8842626569551868 0 -0.57357642473473569 -0.81915205242281985 I I #
edge $-1 $586 -16.838854983513112 $355 4.1862885473234961 $486 $593 forward 7 unknown #
point $-1 4.1862885473234961 -38.493179278917644 12.550136810587878 #
point $-1 4.1862885473234961 -31.024854020356827 12.550136810587878 #
edge $-1 $594 1 $594 0 $358 $-1 forward 7 unknown #
vertex $-1 $359 $595 #
ellipse-curve $-1 -12.633826277345797 -32.936917693587269 5.941352347888909 0 -0.81915205242281985 0.57357642473473569 1 0 0 1 I I #
point $-1 -11.633826277345797 -34.759016649637246 7.2171997337715332 #
edge $-1 $596 1 $596 0 $362 $-1 forward 7 unknown #
vertex $-1 $363 $597 #
ellipse-curve $-1 -6.3262832180948152 -32.936917693587269 5.941352347888909 0 -0.81915205242281985 0.57357642473473569 1 0 0 1 I I #
point $-1 -5.3262832180948152 -34.759016649637246 7.2171997337715332 #
edge $-1 $598 1 $598 0 $366 $-1 forward 7 unknown #
vertex $-1 $367 $599 #
ellipse-curve $-1 -0.018740158843833399 -32.936917693587269 5.941352347888909 0 -0.81915205242281985 0.57357642473473569 1 0 0 1 I I #
point $-1 0.9812598411561666 -34.759016649637246 7.2171997337715332 #
loop $-1 $-1 $511 $370 #
plane-surface $-1 0 0 12.550136810587878 0 0 1 1 0 0 forward_v I I I I #
coedge $-1 $376 $513 $600 $601 reversed $371 $-1 #
coedge $-1 $373 $382 $513 $602 forward $252 $-1 #
edge $-1 $515 7.3494301563709001 $383 28.374573687207501 $373 $603 forward 7 unknown #
coedge $-1 $600 $380 $374 $512 forward $506 $-1 #
edge $-1 $517 -28.374573687207501 $514 -7.3494301563709001 $511 $604 forward 7 unknown #
coedge $-1 $508 $376 $509 $602 reversed $371 $-1 #
vertex $-1 $512 $605 #
vertex $-1 $510 $606 #
straight-curve $-1 4.1862885473234961 -38.493179278917623 1.8842626569551868 0 -0.57357642473473569 -0.81915205242281985 I I #
vertex $-1 $381 $607 #
straight-curve $-1 25.211432078160097 -38.493179278917623 1.8842626569551868 0 -0.57357642473473569 -0.81915205242281985 I I #
coedge $-1 $380 $600 $382 $521 forward $506 $-1 #
straight-curve $-1 25.211432078160097 -68.675204955184981 12.55013681058788 0 1 0 I I #
edge $-1 $608 4.1862885473234961 $384 25.211432078160097 $382 $609 forward 7 unknown #
point $-1 25.211432078160097 -38.493179278917644 1.8842626569551564 #
point $-1 25.211432078160097 -38.493179278917644 12.550136810587878 #
edge $-1 $610 1 $610 0 $386 $-1 forward 7 unknown #
vertex $-1 $387 $611 #
ellipse-curve $-1 8.3913172534908043 -32.936917693587269 5.941352347888909 0 -0.81915205242281985 0.57357642473473569 1 0 0 1 I I #
point $-1 9.3913172534908043 -34.759016649637246 7.2171997337715332 #
edge $-1 $612 1 $612 0 $390 $-1 forward 7 unknown #
vertex $-1 $391 $613 #
ellipse-curve $-1 14.698860312741793 -32.936917693587269 5.941352347888909 0 -0.81915205242281985 0.57357642473473569 1 0 0 1 I I #
point $-1 15.698860312741793 -34.759016649637246 7.2171997337715332 #
edge $-1 $614 1 $614 0 $394 $-1 forward 7 unknown #
vertex $-1 $395 $615 #
ellipse-curve $-1 21.006403371992768 -32.936917693587269 5.941352347888909 0 -0.81915205242281985 0.57357642473473569 1 0 0 1 I I #
point $-1 22.006403371992768 -34.759016649637246 7.2171997337715332 #
plane-surface $-1 60.341196935941646 0 0 -1 0 0 0 0 1 forward_v I I I I #
coedge $-1 $403 $401 $405 $541 reversed $281 $-1 #
edge $-1 $416 -12.550136810587878 $543 12.550136810587878 $415 $616 forward 7 unknown #
vertex $-1 $541 $617 #
straight-curve $-1 -60.341196935941646 -38.493179278917644 0 0 0 -1 I I #
edge $-1 $539 -38.493179278917644 $543 38.493179278917644 $537 $618 forward 7 unknown #
straight-curve $-1 0 -38.493179278917644 -12.550136810587878 -1 0 0 I I #
vertex $-1 $408 $619 #
straight-curve $-1 0 38.493179278917644 -12.550136810587878 1 0 0 I I #
point $-1 60.341196935941646 38.493179278917644 -12.550136810587878 #
point $-1 60.341196935941646 -38.493179278917644 -12.550136810587878 #
straight-curve $-1 -60.341196935941646 0 12.550136810587878 0 -1 0 I I #
point $-1 -60.341196935941646 38.493179278917644 12.550136810587878 #
point $-1 -60.341196935941646 -38.493179278917644 12.550136810587878 #
straight-curve $-1 60.341196935941646 -38.493179278917644 0 0 0 -1 I I #
straight-curve $-1 60.341196935941646 38.493179278917644 0 0 0 -1 I I #
plane-surface $-1 0 -38.493179278917644 0 0 1 0 0 0 1 forward_v I I I I #
coedge $-1 $620 $428 $438 $564 reversed $300 $-1 #
coedge $-1 $428 $620 $441 $566 forward $300 $-1 #
coedge $-1 $621 $431 $429 $556 forward $426 $-1 #
edge $-1 $557 51.968619841294668 $622 60.341196935941646 $429 $623 forward 7 unknown #
vertex $-1 $556 $624 #
straight-curve $-1 -51.968619841294668 38.493179278917644 4.862005041478441 0 0 -1 I I #
coedge $-1 $431 $621 $433 $561 forward $426 $-1 #
straight-curve $-1 -51.968619841294668 0 12.550136810587878 0 1 0 I I #
edge $-1 $625 -60.341196935941646 $435 -51.968619841294668 $433 $626 forward 7 unknown #
point $-1 -51.968619841294668 -38.493179278917644 12.550136810587876 #
straight-curve $-1 -60.341196935941646 0 6.897883355325888 0 -1 0 I I #
edge $-1 $625 -12.550136810587878 $439 -6.897883355325888 $553 $627 forward 7 unknown #
point $-1 -60.341196935941639 -38.493179278917644 6.897883355325888 #
edge $-1 $622 -12.550136810587878 $442 -6.897883355325888 $441 $628 forward 7 unknown #
point $-1 -60.341196935941639 38.493179278917644 6.897883355325888 #
coedge $-1 $448 $572 $450 $570 reversed $316 $-1 #
straight-curve $-1 -33.266312176723915 38.493179278917644 70.368088398713994 0 0 -1 I I #
edge $-1 $451 33.266312176723915 $577 51.968619841294668 $568 $629 forward 7 unknown #
point $-1 -33.266312176723915 38.493179278917644 12.550136810587878 #
coedge $-1 $568 $453 $456 $574 forward $316 $-1 #
straight-curve $-1 -21.308733004504646 38.493179278917637 0.96326188418207082 -1 0 0 I I #
edge $-1 $457 -69.404826514531919 $577 -57.817951588126121 $572 $630 forward 7 unknown #
point $-1 -51.968619841294668 38.493179278917644 0.96326188418206726 #
point $-1 -33.266312176723915 38.493179278917644 0.96326188418206726 #
vertex $-1 $461 $631 #
straight-curve $-1 -51.968619841294668 0 12.550136810587878 0 -1 0 I I #
vertex $-1 $464 $632 #
point $-1 -47.228158308380515 31.26101366716356 5.3179710977822952 #
vertex $-1 $468 $633 #
point $-1 -41.617466009009291 31.26101366716356 5.3179710977822952 #
vertex $-1 $472 $634 #
point $-1 -36.006773709638068 31.26101366716356 5.3179710977822952 #
edge $-1 $586 23.002282520621712 $589 33.668156674254433 $477 $635 forward 7 unknown #
vertex $-1 $491 $636 #
straight-curve $-1 -16.838854983513112 -68.675204955184981 12.55013681058788 0 -1 0 I I #
edge $-1 $589 -13.675713374465708 $488 7.3494301563709001 $487 $637 forward 7 unknown #
vertex $-1 $588 $638 #
straight-curve $-1 -16.838854983513112 -38.493179278917623 1.8842626569551868 0 0.57357642473473569 0.81915205242281985 I I #
point $-1 -16.838854983513112 -31.024854020356827 12.550136810587878 #
point $-1 4.1862885473234961 -38.493179278917644 1.8842626569551564 #
straight-curve $-1 0 -38.493179278917644 12.550136810587878 1 0 0 I I #
vertex $-1 $494 $639 #
point $-1 -11.633826277345797 -32.936917693587269 5.941352347888909 #
vertex $-1 $498 $640 #
point $-1 -5.3262832180948152 -32.936917693587269 5.941352347888909 #
vertex $-1 $502 $641 #
point $-1 0.9812598411561666 -32.936917693587269 5.941352347888909 #
coedge $-1 $519 $511 $508 $601 forward $506 $-1 #
edge $-1 $514 -37.650350934828154 $608 -30.182025676267337 $600 $642 forward 7 unknown #
edge $-1 $608 23.002282520621712 $515 33.668156674254433 $509 $643 forward 7 unknown #
straight-curve $-1 -3.163141609047404 -38.493179278917644 1.8842626569551606 1 0 0 I I #
straight-curve $-1 -3.163141609047404 -31.024854020356827 12.550136810587878 -1 0 0 I I #
point $-1 4.1862885473234961 -31.024854020356827 12.550136810587878 #
point $-1 4.1862885473234961 -38.493179278917644 1.8842626569551564 #
point $-1 25.211432078160097 -31.024854020356827 12.550136810587878 #
vertex $-1 $521 $644 #
straight-curve $-1 0 -38.493179278917644 12.550136810587878 1 0 0 I I #
vertex $-1 $524 $645 #
point $-1 9.3913172534908043 -32.936917693587269 5.941352347888909 #
vertex $-1 $528 $646 #
point $-1 15.698860312741793 -32.936917693587269 5.941352347888909 #
vertex $-1 $532 $647 #
point $-1 22.006403371992768 -32.936917693587269 5.941352347888909 #
straight-curve $-1 -60.341196935941646 38.493179278917644 0 0 0 -1 I I #
point $-1 -60.341196935941646 -38.493179278917644 -12.550136810587878 #
straight-curve $-1 -60.341196935941646 0 -12.550136810587878 0 1 0 I I #
point $-1 -60.341196935941646 38.493179278917644 -12.550136810587878 #
coedge $-1 $554 $553 $621 $648 reversed $300 $-1 #
coedge $-1 $559 $555 $620 $648 forward $426 $-1 #
vertex $-1 $556 $649 #
straight-curve $-1 0 38.493179278917644 12.550136810587878 -1 0 0 I I #
point $-1 -51.968619841294668 38.493179278917644 12.550136810587876 #
vertex $-1 $648 $650 #
straight-curve $-1 0 -38.493179278917644 12.550136810587878 1 0 0 I I #
straight-curve $-1 -60.341196935941646 -38.493179278917644 0 0 0 -1 I I #
straight-curve $-1 -60.341196935941646 38.493179278917644 0 0 0 -1 I I #
straight-curve $-1 0 38.493179278917644 12.550136810587878 -1 0 0 I I #
straight-curve $-1 -51.968619841294668 38.493179278917644 70.368088398713994 0 0 1 I I #
point $-1 -51.968619841294668 38.493179278917644 12.550136810587876 #
point $-1 -48.228158308380515 30.553906877772768 4.6108643247999899 #
point $-1 -42.617466009009291 30.553906877772768 4.6108643247999899 #
point $-1 -37.006773709638068 30.553906877772768 4.6108643247999899 #
straight-curve $-1 -16.838854983513112 -38.493179278917644 35.552419331209592 0 0 -1 I I #
point $-1 -16.838854983513112 -38.493179278917644 12.550136810587878 #
straight-curve $-1 -3.163141609047404 -38.493179278917644 1.8842626569551606 1 0 0 I I #
point $-1 -16.838854983513112 -38.493179278917644 1.8842626569551564 #
point $-1 -12.633826277345797 -32.117765641164446 5.3677759231541735 #
point $-1 -6.3262832180948152 -32.117765641164446 5.3677759231541735 #
point $-1 -0.018740158843833399 -32.117765641164446 5.3677759231541735 #
straight-curve $-1 4.1862885473234961 -68.675204955184981 12.55013681058788 0 -1 0 I I #
straight-curve $-1 4.1862885473234961 -38.493179278917644 35.552419331209592 0 0 -1 I I #
point $-1 4.1862885473234961 -38.493179278917644 12.550136810587878 #
point $-1 8.3913172534908043 -32.117765641164446 5.3677759231541735 #
point $-1 14.698860312741793 -32.117765641164446 5.3677759231541735 #
point $-1 21.006403371992768 -32.117765641164446 5.3677759231541735 #
edge $-1 $622 -38.493179278917644 $625 38.493179278917644 $620 $651 forward 7 unknown #
point $-1 -60.341196935941646 38.493179278917644 12.550136810587878 #
point $-1 -60.341196935941646 -38.493179278917644 12.550136810587878 #
straight-curve $-1 -60.341196935941646 0 12.550136810587878 0 -1 0 I I #
End-of-ACIS-data 