500 0 18 0           
7 Unknown 11 ACIS 5.0 NT 24 Thu Mar 25 22:36:21 1999 
-1 9.9999999999999995e-007 1e-010 
body $-1 $18 $-1 $19 #
body $-1 $20 $-1 $21 #
body $-1 $22 $-1 $23 #
body $-1 $24 $-1 $25 #
body $-1 $26 $-1 $27 #
body $-1 $28 $-1 $29 #
body $-1 $30 $-1 $31 #
body $-1 $32 $-1 $33 #
body $-1 $34 $-1 $35 #
body $-1 $36 $-1 $37 #
body $-1 $38 $-1 $39 #
body $-1 $40 $-1 $41 #
body $-1 $42 $-1 $43 #
body $-1 $44 $-1 $45 #
body $-1 $46 $-1 $47 #
body $-1 $48 $-1 $49 #
body $-1 $50 $-1 $51 #
body $-1 $52 $-1 $53 #
lump $-1 $-1 $54 $0 #
transform $-1 1 0 0 0 1 0 0 0 1 73.188268684957421 46.730867023924745 13.056889762997473 1 rotate no_reflect no_shear #
lump $-1 $-1 $55 $1 #
transform $-1 1 0 0 0 1 0 0 0 1 73.188268684957421 46.730867023924745 13.056889762997473 1 rotate no_reflect no_shear #
lump $-1 $-1 $56 $2 #
transform $-1 1 0 0 0 1 0 0 0 1 73.188268684957421 46.730867023924745 13.056889762997473 1 rotate no_reflect no_shear #
lump $-1 $-1 $57 $3 #
transform $-1 1 0 0 0 1 0 0 0 1 73.188268684957421 46.730867023924745 13.056889762997473 1 rotate no_reflect no_shear #
lump $-1 $-1 $58 $4 #
transform $-1 1 0 0 0 1 0 0 0 1 73.188268684957421 46.730867023924745 13.056889762997473 1 rotate no_reflect no_shear #
lump $-1 $-1 $59 $5 #
transform $-1 1 0 0 0 1 0 0 0 1 73.188268684957421 46.730867023924745 13.056889762997473 1 rotate no_reflect no_shear #
lump $-1 $-1 $60 $6 #
transform $-1 1 0 0 0 1 0 0 0 1 73.188268684957421 46.730867023924745 13.056889762997473 1 rotate no_reflect no_shear #
lump $-1 $-1 $61 $7 #
transform $-1 1 0 0 0 1 0 0 0 1 73.188268684957421 46.730867023924745 13.056889762997473 1 rotate no_reflect no_shear #
lump $-1 $-1 $62 $8 #
transform $-1 1 0 0 0 1 0 0 0 1 73.188268684957421 46.730867023924745 13.056889762997473 1 rotate no_reflect no_shear #
lump $-1 $-1 $63 $9 #
transform $-1 1 0 0 0 1 0 0 0 1 73.188268684957421 46.730867023924745 13.056889762997473 1 rotate no_reflect no_shear #
lump $-1 $-1 $64 $10 #
transform $-1 1 0 0 0 1 0 0 0 1 73.188268684957421 46.730867023924745 13.056889762997473 1 rotate no_reflect no_shear #
lump $-1 $-1 $65 $11 #
transform $-1 1 0 0 0 1 0 0 0 1 73.188268684957421 46.730867023924745 13.056889762997473 1 rotate no_reflect no_shear #
lump $-1 $-1 $66 $12 #
transform $-1 1 0 0 0 1 0 0 0 1 73.188268684957421 46.730867023924745 13.056889762997473 1 rotate no_reflect no_shear #
lump $-1 $-1 $67 $13 #
transform $-1 1 0 0 0 1 0 0 0 1 73.188268684957421 46.730867023924745 13.056889762997473 1 rotate no_reflect no_shear #
lump $-1 $-1 $68 $14 #
transform $-1 1 0 0 0 1 0 0 0 1 73.188268684957421 46.730867023924745 13.056889762997473 1 rotate no_reflect no_shear #
lump $-1 $-1 $69 $15 #
transform $-1 1 0 0 0 1 0 0 0 1 73.188268684957421 46.730867023924745 13.056889762997473 1 rotate no_reflect no_shear #
lump $-1 $-1 $70 $16 #
transform $-1 1 0 0 0 1 0 0 0 1 73.188268684957421 46.730867023924745 13.056889762997473 1 rotate no_reflect no_shear #
lump $-1 $-1 $71 $17 #
transform $-1 1 0 0 0 1 0 0 0 1 73.188268684957421 46.730867023924745 13.056889762997473 1 rotate no_reflect no_shear #
shell $-1 $-1 $-1 $72 $-1 $18 #
shell $-1 $-1 $-1 $73 $-1 $20 #
shell $-1 $-1 $-1 $74 $-1 $22 #
shell $-1 $-1 $-1 $75 $-1 $24 #
shell $-1 $-1 $-1 $76 $-1 $26 #
shell $-1 $-1 $-1 $77 $-1 $28 #
shell $-1 $-1 $-1 $78 $-1 $30 #
shell $-1 $-1 $-1 $79 $-1 $32 #
shell $-1 $-1 $-1 $80 $-1 $34 #
shell $-1 $-1 $-1 $81 $-1 $36 #
shell $-1 $-1 $-1 $82 $-1 $38 #
shell $-1 $-1 $-1 $83 $-1 $40 #
shell $-1 $-1 $-1 $84 $-1 $42 #
shell $-1 $-1 $-1 $85 $-1 $44 #
shell $-1 $-1 $-1 $86 $-1 $46 #
shell $-1 $-1 $-1 $87 $-1 $48 #
shell $-1 $-1 $-1 $88 $-1 $50 #
shell $-1 $-1 $-1 $89 $-1 $52 #
face $-1 $90 $91 $54 $-1 $92 forward single #
face $-1 $93 $94 $55 $-1 $95 forward single #
face $-1 $96 $97 $56 $-1 $98 forward single #
face $-1 $99 $100 $57 $-1 $101 reversed single #
face $-1 $102 $103 $58 $-1 $104 forward single #
face $-1 $105 $106 $59 $-1 $107 forward single #
face $-1 $108 $109 $60 $-1 $110 reversed single #
face $-1 $111 $112 $61 $-1 $113 forward single #
face $-1 $114 $115 $62 $-1 $116 forward single #
face $-1 $117 $118 $63 $-1 $119 reversed single #
face $-1 $120 $121 $64 $-1 $122 forward single #
face $-1 $123 $124 $65 $-1 $125 forward single #
face $-1 $126 $127 $66 $-1 $128 reversed single #
face $-1 $129 $130 $67 $-1 $131 forward single #
face $-1 $132 $133 $68 $-1 $134 forward single #
face $-1 $135 $136 $69 $-1 $137 reversed single #
face $-1 $138 $139 $70 $-1 $140 forward single #
face $-1 $141 $142 $71 $-1 $143 forward single #
face $-1 $144 $145 $54 $-1 $146 reversed single #
loop $-1 $-1 $147 $72 #
plane-surface $-1 0 0 13.056889762997473 0 0 1 1 0 0 forward_v I I I I #
face $-1 $148 $149 $55 $-1 $150 reversed single #
loop $-1 $-1 $151 $73 #
plane-surface $-1 -73.188268684957421 0 0 1 0 0 0 0 -1 forward_v I I I I #
face $-1 $152 $153 $56 $-1 $154 reversed single #
loop $-1 $-1 $155 $74 #
plane-surface $-1 73.188268684957421 0 0 -1 0 0 0 0 1 forward_v I I I I #
face $-1 $156 $157 $57 $-1 $158 reversed single #
loop $-1 $-1 $159 $75 #
plane-surface $-1 -57.500897990899254 115.81938011907336 159.40568018795611 1 0 0 0 -0.82903758062907751 -0.55919289150049634 forward_v I I I I #
face $-1 $160 $161 $58 $-1 $162 forward single #
loop $-1 $163 $164 $76 #
cone-surface $-1 -53.72397726869665 40.932802413765643 5.6067802129382933 0 -0.82903758062907751 -0.55919289150049634 1 0 0 1 I I 0 1 1 forward I I I I #
face $-1 $165 $166 $59 $-1 $167 forward single #
loop $-1 $168 $169 $77 #
cone-surface $-1 -48.058596185392751 40.932802413765643 5.6067802129382933 0 -0.82903758062907751 -0.55919289150049634 1 0 0 1 I I 0 1 1 forward I I I I #
face $-1 $170 $171 $60 $-1 $172 reversed single #
loop $-1 $-1 $173 $78 #
plane-surface $-1 -33.556743755571048 -158.86180129211516 98.487818988870586 -1 0 0 0 -0.7660444514056185 0.64278759981090561 forward_v I I I I #
face $-1 $174 $175 $61 $-1 $176 forward single #
loop $-1 $177 $178 $79 #
cone-surface $-1 -47.58281742787122 -41.589415422507493 7.461683460024231 0 0.7660444514056185 -0.64278759981090561 1.5 0 0 1 I I 0 1 1.5 forward I I I I #
face $-1 $179 $180 $62 $-1 $181 forward single #
loop $-1 $182 $183 $80 #
cone-surface $-1 -39.167173224491123 -41.589415422507493 7.461683460024231 0 0.7660444514056185 -0.64278759981090561 1.5 0 0 1 I I 0 1 1.5 forward I I I I #
face $-1 $184 $185 $63 $-1 $186 reversed single #
loop $-1 $-1 $187 $81 #
plane-surface $-1 -4.6400802047835974 -158.86180129211516 98.487818988870586 -1 0 0 0 -0.7660444514056185 0.64278759981090561 forward_v I I I I #
face $-1 $188 $189 $64 $-1 $190 forward single #
loop $-1 $191 $192 $82 #
cone-surface $-1 -18.666153877083772 -41.589415422507493 7.461683460024231 0 0.7660444514056185 -0.64278759981090561 1.5 0 0 1 I I 0 1 1.5 forward I I I I #
face $-1 $193 $194 $65 $-1 $195 forward single #
loop $-1 $196 $197 $83 #
cone-surface $-1 -10.250509673703675 -41.589415422507493 7.461683460024231 0 0.7660444514056185 -0.64278759981090561 1.5 0 0 1 I I 0 1 1.5 forward I I I I #
face $-1 $198 $199 $66 $-1 $200 reversed single #
loop $-1 $-1 $201 $84 #
plane-surface $-1 24.27658334600385 -158.86180129211516 98.487818988870586 -1 0 0 0 -0.7660444514056185 0.64278759981090561 forward_v I I I I #
face $-1 $202 $203 $67 $-1 $204 forward single #
loop $-1 $205 $206 $85 #
cone-surface $-1 10.250509673703675 -41.589415422507493 7.461683460024231 0 0.7660444514056185 -0.64278759981090561 1.5 0 0 1 I I 0 1 1.5 forward I I I I #
face $-1 $207 $208 $68 $-1 $209 forward single #
loop $-1 $210 $211 $86 #
cone-surface $-1 18.666153877083772 -41.589415422507493 7.461683460024231 0 0.7660444514056185 -0.64278759981090561 1.5 0 0 1 I I 0 1 1.5 forward I I I I #
face $-1 $212 $213 $69 $-1 $214 reversed single #
loop $-1 $-1 $215 $87 #
plane-surface $-1 53.193246896791294 -158.86180129211516 98.487818988870586 -1 0 0 0 -0.7660444514056185 0.64278759981090561 forward_v I I I I #
face $-1 $216 $217 $70 $-1 $218 forward single #
loop $-1 $219 $220 $88 #
cone-surface $-1 39.167173224491123 -41.589415422507493 7.461683460024231 0 0.7660444514056185 -0.64278759981090561 1.5 0 0 1 I I 0 1 1.5 forward I I I I #
face $-1 $221 $222 $71 $-1 $223 forward single #
loop $-1 $224 $225 $89 #
cone-surface $-1 47.58281742787122 -41.589415422507493 7.461683460024231 0 0.7660444514056185 -0.64278759981090561 1.5 0 0 1 I I 0 1 1.5 forward I I I I #
face $-1 $226 $227 $54 $-1 $228 reversed single #
loop $-1 $-1 $229 $90 #
plane-surface $-1 0 0 -13.056889762997473 0 0 1 1 0 0 forward_v I I I I #
coedge $-1 $230 $231 $232 $233 forward $91 $-1 #
face $-1 $234 $235 $55 $-1 $236 reversed single #
loop $-1 $-1 $237 $93 #
plane-surface $-1 0 0 -13.056889762997473 0 0 1 1 0 0 forward_v I I I I #
coedge $-1 $238 $239 $240 $241 forward $94 $-1 #
face $-1 $242 $243 $56 $-1 $244 reversed single #
loop $-1 $-1 $245 $96 #
plane-surface $-1 0 0 -13.056889762997473 0 0 1 1 0 0 forward_v I I I I #
coedge $-1 $246 $247 $248 $249 forward $97 $-1 #
face $-1 $250 $251 $57 $-1 $252 reversed single #
loop $-1 $-1 $253 $99 #
plane-surface $-1 -50.891286727044701 -5.5322702829425907 77.552961008242974 0 0.82903758062907751 0.55919289150049634 1 0 0 forward_v I I I I #
coedge $-1 $254 $255 $256 $257 reversed $100 $-1 #
face $-1 $-1 $258 $58 $-1 $259 forward single #
loop $-1 $260 $261 $102 #
cone-surface $-1 -53.72397726869665 39.100213665288976 4.3706835327198359 0 -0.82903758062907751 -0.55919289150049634 0.5 0 0 1 I I -0.70710678118654746 0.70710678118654746 0.5 forward I I I I #
loop $-1 $-1 $262 $76 #
coedge $-1 $164 $164 $263 $264 reversed $103 $-1 #
face $-1 $-1 $265 $59 $-1 $266 forward single #
loop $-1 $267 $268 $105 #
cone-surface $-1 -48.058596185392751 39.100213665288976 4.3706835327198359 0 -0.82903758062907751 -0.55919289150049634 0.5 0 0 1 I I -0.70710678118654746 0.70710678118654746 0.5 forward I I I I #
loop $-1 $-1 $269 $77 #
coedge $-1 $169 $169 $270 $271 reversed $106 $-1 #
face $-1 $272 $273 $60 $-1 $274 reversed single #
loop $-1 $-1 $275 $108 #
plane-surface $-1 -43.374995326181164 -46.730867023924731 4.3987958642317011 0 -0.7660444514056185 0.64278759981090561 1 0 0 forward_v I I I I #
coedge $-1 $276 $277 $278 $279 reversed $109 $-1 #
face $-1 $-1 $280 $61 $-1 $281 forward single #
loop $-1 $282 $283 $111 #
cone-surface $-1 -47.58281742787122 -39.505932086009096 5.7134334065757013 0 0.7660444514056185 -0.64278759981090561 0.75 0 0 1 I I -0.70710678118654757 0.70710678118654757 0.75 forward I I I I #
loop $-1 $-1 $284 $79 #
coedge $-1 $178 $178 $285 $286 reversed $112 $-1 #
face $-1 $-1 $287 $62 $-1 $288 forward single #
loop $-1 $289 $290 $114 #
cone-surface $-1 -39.167173224491123 -39.505932086009096 5.7134334065757013 0 0.7660444514056185 -0.64278759981090561 0.75 0 0 1 I I -0.70710678118654757 0.70710678118654757 0.75 forward I I I I #
loop $-1 $-1 $291 $80 #
coedge $-1 $183 $183 $292 $293 reversed $115 $-1 #
face $-1 $294 $295 $63 $-1 $296 reversed single #
loop $-1 $-1 $297 $117 #
plane-surface $-1 -14.458331775393717 -46.730867023924731 4.3987958642317011 0 -0.7660444514056185 0.64278759981090561 1 0 0 forward_v I I I I #
coedge $-1 $298 $299 $300 $301 reversed $118 $-1 #
face $-1 $-1 $302 $64 $-1 $303 forward single #
loop $-1 $304 $305 $120 #
cone-surface $-1 -18.666153877083772 -39.505932086009096 5.7134334065757013 0 0.7660444514056185 -0.64278759981090561 0.75 0 0 1 I I -0.70710678118654757 0.70710678118654757 0.75 forward I I I I #
loop $-1 $-1 $306 $82 #
coedge $-1 $192 $192 $307 $308 reversed $121 $-1 #
face $-1 $-1 $309 $65 $-1 $310 forward single #
loop $-1 $311 $312 $123 #
cone-surface $-1 -10.250509673703675 -39.505932086009096 5.7134334065757013 0 0.7660444514056185 -0.64278759981090561 0.75 0 0 1 I I -0.70710678118654757 0.70710678118654757 0.75 forward I I I I #
loop $-1 $-1 $313 $83 #
coedge $-1 $197 $197 $314 $315 reversed $124 $-1 #
face $-1 $316 $317 $66 $-1 $318 reversed single #
loop $-1 $-1 $319 $126 #
plane-surface $-1 14.458331775393731 -46.730867023924731 4.3987958642317011 0 -0.7660444514056185 0.64278759981090561 1 0 0 forward_v I I I I #
coedge $-1 $320 $321 $322 $323 reversed $127 $-1 #
face $-1 $-1 $324 $67 $-1 $325 forward single #
loop $-1 $326 $327 $129 #
cone-surface $-1 10.250509673703675 -39.505932086009096 5.7134334065757013 0 0.7660444514056185 -0.64278759981090561 0.75 0 0 1 I I -0.70710678118654757 0.70710678118654757 0.75 forward I I I I #
loop $-1 $-1 $328 $85 #
coedge $-1 $206 $206 $329 $330 reversed $130 $-1 #
face $-1 $-1 $331 $68 $-1 $332 forward single #
loop $-1 $333 $334 $132 #
cone-surface $-1 18.666153877083772 -39.505932086009096 5.7134334065757013 0 0.7660444514056185 -0.64278759981090561 0.75 0 0 1 I I -0.70710678118654757 0.70710678118654757 0.75 forward I I I I #
loop $-1 $-1 $335 $86 #
coedge $-1 $211 $211 $336 $337 reversed $133 $-1 #
face $-1 $338 $339 $69 $-1 $340 reversed single #
loop $-1 $-1 $341 $135 #
plane-surface $-1 43.374995326181178 -46.730867023924731 4.3987958642317011 0 -0.7660444514056185 0.64278759981090561 1 0 0 forward_v I I I I #
coedge $-1 $342 $343 $344 $345 reversed $136 $-1 #
face $-1 $-1 $346 $70 $-1 $347 forward single #
loop $-1 $348 $349 $138 #
cone-surface $-1 39.167173224491123 -39.505932086009096 5.7134334065757013 0 0.7660444514056185 -0.64278759981090561 0.75 0 0 1 I I -0.70710678118654757 0.70710678118654757 0.75 forward I I I I #
loop $-1 $-1 $350 $88 #
coedge $-1 $220 $220 $351 $352 reversed $139 $-1 #
face $-1 $-1 $353 $71 $-1 $354 forward single #
loop $-1 $355 $356 $141 #
cone-surface $-1 47.58281742787122 -39.505932086009096 5.7134334065757013 0 0.7660444514056185 -0.64278759981090561 0.75 0 0 1 I I -0.70710678118654757 0.70710678118654757 0.75 forward I I I I #
loop $-1 $-1 $357 $89 #
coedge $-1 $225 $225 $358 $359 reversed $142 $-1 #
face $-1 $360 $361 $54 $-1 $362 reversed single #
loop $-1 $-1 $363 $144 #
plane-surface $-1 0 -46.730867023924745 0 0 1 0 0 0 1 forward_v I I I I #
coedge $-1 $364 $365 $366 $367 forward $145 $-1 #
coedge $-1 $368 $147 $369 $370 forward $91 $-1 #
coedge $-1 $147 $368 $371 $372 forward $91 $-1 #
coedge $-1 $373 $374 $147 $233 reversed $375 $-1 #
edge $-1 $376 -46.730867023924745 $377 46.730867023924745 $232 $378 forward 7 unknown #
face $-1 $379 $380 $55 $-1 $381 reversed single #
loop $-1 $-1 $382 $148 #
plane-surface $-1 -81.031954031986501 -42.233073058132732 0 0 1 0 0 0 1 forward_v I I I I #
coedge $-1 $383 $384 $239 $385 forward $149 $-1 #
coedge $-1 $386 $151 $387 $388 reversed $94 $-1 #
coedge $-1 $151 $386 $237 $385 reversed $94 $-1 #
coedge $-1 $389 $390 $151 $241 reversed $391 $-1 #
edge $-1 $392 -13.056889762997473 $393 13.056889762997473 $240 $394 forward 7 unknown #
face $-1 $395 $396 $56 $-1 $397 reversed single #
loop $-1 $-1 $248 $152 #
plane-surface $-1 81.031954031986487 -42.233073058132732 0 0 1 0 0 0 1 forward_v I I I I #
coedge $-1 $398 $399 $247 $400 forward $153 $-1 #
coedge $-1 $401 $155 $402 $403 reversed $97 $-1 #
coedge $-1 $155 $401 $245 $400 reversed $97 $-1 #
coedge $-1 $404 $405 $155 $249 reversed $243 $-1 #
edge $-1 $406 -13.056889762997473 $407 13.056889762997473 $248 $408 forward 7 unknown #
face $-1 $409 $410 $57 $-1 $411 reversed single #
loop $-1 $-1 $412 $156 #
plane-surface $-1 -44.281675463190147 115.81938011907336 159.40568018795611 -1 0 0 0 0.82903758062907751 0.55919289150049634 forward_v I I I I #
coedge $-1 $413 $414 $415 $416 reversed $157 $-1 #
coedge $-1 $255 $159 $417 $418 reversed $100 $-1 #
coedge $-1 $159 $254 $413 $419 reversed $100 $-1 #
coedge $-1 $415 $420 $159 $257 forward $421 $-1 #
edge $-1 $422 11.178823035611934 $423 19.938812339605867 $256 $424 forward 7 unknown #
loop $-1 $-1 $263 $160 #
plane-surface $-1 -50.891286727044701 -5.5322702829425907 77.552961008242974 0 0.82903758062907751 0.55919289150049634 1 0 0 forward_v I I I I #
loop $-1 $-1 $425 $102 #
coedge $-1 $261 $261 $262 $426 reversed $161 $-1 #
coedge $-1 $262 $262 $261 $426 forward $163 $-1 #
coedge $-1 $263 $263 $164 $264 forward $258 $-1 #
edge $-1 $427 3.3900284129078563e-015 $427 6.283185307179604 $263 $428 forward 7 unknown #
loop $-1 $-1 $270 $165 #
plane-surface $-1 -50.891286727044701 -5.5322702829425907 77.552961008242974 0 0.82903758062907751 0.55919289150049634 1 0 0 forward_v I I I I #
loop $-1 $-1 $429 $105 #
coedge $-1 $268 $268 $269 $430 reversed $166 $-1 #
coedge $-1 $269 $269 $268 $430 forward $168 $-1 #
coedge $-1 $270 $270 $169 $271 forward $265 $-1 #
edge $-1 $431 3.3900284129078563e-015 $431 6.283185307179604 $270 $432 forward 7 unknown #
face $-1 $433 $434 $60 $-1 $435 forward single #
loop $-1 $-1 $436 $170 #
plane-surface $-1 -53.19324689679128 -158.86180129211516 98.487818988870586 1 0 0 0 0.7660444514056185 -0.64278759981090561 forward_v I I I I #
coedge $-1 $437 $438 $439 $440 reversed $171 $-1 #
coedge $-1 $277 $173 $441 $442 reversed $109 $-1 #
coedge $-1 $173 $276 $437 $443 reversed $109 $-1 #
coedge $-1 $439 $444 $173 $279 forward $434 $-1 #
edge $-1 $445 32.700033622132835 $446 39.965036829078969 $278 $447 forward 7 unknown #
loop $-1 $-1 $285 $174 #
plane-surface $-1 -43.374995326181164 -46.730867023924731 4.3987958642317011 0 -0.7660444514056185 0.64278759981090561 1 0 0 forward_v I I I I #
loop $-1 $-1 $448 $111 #
coedge $-1 $283 $283 $284 $449 reversed $175 $-1 #
coedge $-1 $284 $284 $283 $449 forward $177 $-1 #
coedge $-1 $285 $285 $178 $286 forward $280 $-1 #
edge $-1 $450 0 $450 6.2831853071796004 $285 $451 forward 7 unknown #
loop $-1 $-1 $292 $179 #
plane-surface $-1 -43.374995326181164 -46.730867023924731 4.3987958642317011 0 -0.7660444514056185 0.64278759981090561 1 0 0 forward_v I I I I #
loop $-1 $-1 $452 $114 #
coedge $-1 $290 $290 $291 $453 reversed $180 $-1 #
coedge $-1 $291 $291 $290 $453 forward $182 $-1 #
coedge $-1 $292 $292 $183 $293 forward $287 $-1 #
edge $-1 $454 0 $454 6.2831853071796004 $292 $455 forward 7 unknown #
face $-1 $456 $457 $63 $-1 $458 reversed single #
loop $-1 $-1 $459 $184 #
plane-surface $-1 -24.276583346003836 -158.86180129211516 98.487818988870586 1 0 0 0 0.7660444514056185 -0.64278759981090561 forward_v I I I I #
coedge $-1 $460 $461 $462 $463 reversed $185 $-1 #
coedge $-1 $299 $187 $464 $465 reversed $118 $-1 #
coedge $-1 $187 $298 $460 $466 reversed $118 $-1 #
coedge $-1 $462 $467 $187 $301 forward $468 $-1 #
edge $-1 $469 32.700033622132835 $470 39.965036829078969 $300 $471 forward 7 unknown #
loop $-1 $-1 $307 $188 #
plane-surface $-1 -14.458331775393717 -46.730867023924731 4.3987958642317011 0 -0.7660444514056185 0.64278759981090561 1 0 0 forward_v I I I I #
loop $-1 $-1 $472 $120 #
coedge $-1 $305 $305 $306 $473 reversed $189 $-1 #
coedge $-1 $306 $306 $305 $473 forward $191 $-1 #
coedge $-1 $307 $307 $192 $308 forward $302 $-1 #
edge $-1 $474 0 $474 6.2831853071796004 $307 $475 forward 7 unknown #
loop $-1 $-1 $314 $193 #
plane-surface $-1 -14.458331775393717 -46.730867023924731 4.3987958642317011 0 -0.7660444514056185 0.64278759981090561 1 0 0 forward_v I I I I #
loop $-1 $-1 $476 $123 #
coedge $-1 $312 $312 $313 $477 reversed $194 $-1 #
coedge $-1 $313 $313 $312 $477 forward $196 $-1 #
coedge $-1 $314 $314 $197 $315 forward $309 $-1 #
edge $-1 $478 0 $478 6.2831853071796004 $314 $479 forward 7 unknown #
face $-1 $480 $481 $66 $-1 $482 reversed single #
loop $-1 $-1 $483 $198 #
plane-surface $-1 4.6400802047836116 -158.86180129211516 98.487818988870586 1 0 0 0 0.7660444514056185 -0.64278759981090561 forward_v I I I I #
coedge $-1 $484 $485 $486 $487 reversed $199 $-1 #
coedge $-1 $321 $201 $488 $489 reversed $127 $-1 #
coedge $-1 $201 $320 $484 $490 reversed $127 $-1 #
coedge $-1 $486 $491 $201 $323 forward $492 $-1 #
edge $-1 $493 32.700033622132835 $494 39.965036829078969 $322 $495 forward 7 unknown #
loop $-1 $-1 $329 $202 #
plane-surface $-1 14.458331775393731 -46.730867023924731 4.3987958642317011 0 -0.7660444514056185 0.64278759981090561 1 0 0 forward_v I I I I #
loop $-1 $-1 $496 $129 #
coedge $-1 $327 $327 $328 $497 reversed $203 $-1 #
coedge $-1 $328 $328 $327 $497 forward $205 $-1 #
coedge $-1 $329 $329 $206 $330 forward $324 $-1 #
edge $-1 $498 0 $498 6.2831853071796004 $329 $499 forward 7 unknown #
loop $-1 $-1 $336 $207 #
plane-surface $-1 14.458331775393731 -46.730867023924731 4.3987958642317011 0 -0.7660444514056185 0.64278759981090561 1 0 0 forward_v I I I I #
loop $-1 $-1 $500 $132 #
coedge $-1 $334 $334 $335 $501 reversed $208 $-1 #
coedge $-1 $335 $335 $334 $501 forward $210 $-1 #
coedge $-1 $336 $336 $211 $337 forward $331 $-1 #
edge $-1 $502 0 $502 6.2831853071796004 $336 $503 forward 7 unknown #
face $-1 $504 $505 $69 $-1 $506 reversed single #
loop $-1 $-1 $507 $212 #
plane-surface $-1 33.556743755571063 -158.86180129211516 98.487818988870586 1 0 0 0 0.7660444514056185 -0.64278759981090561 forward_v I I I I #
coedge $-1 $508 $509 $510 $511 reversed $213 $-1 #
coedge $-1 $343 $215 $512 $513 reversed $136 $-1 #
coedge $-1 $215 $342 $508 $514 reversed $136 $-1 #
coedge $-1 $510 $515 $215 $345 forward $516 $-1 #
edge $-1 $517 32.700033622132835 $518 39.965036829078969 $344 $519 forward 7 unknown #
loop $-1 $-1 $351 $216 #
plane-surface $-1 43.374995326181178 -46.730867023924731 4.3987958642317011 0 -0.7660444514056185 0.64278759981090561 1 0 0 forward_v I I I I #
loop $-1 $-1 $520 $138 #
coedge $-1 $349 $349 $350 $521 reversed $217 $-1 #
coedge $-1 $350 $350 $349 $521 forward $219 $-1 #
coedge $-1 $351 $351 $220 $352 forward $346 $-1 #
edge $-1 $522 0 $522 6.2831853071796004 $351 $523 forward 7 unknown #
loop $-1 $-1 $358 $221 #
plane-surface $-1 43.374995326181178 -46.730867023924731 4.3987958642317011 0 -0.7660444514056185 0.64278759981090561 1 0 0 forward_v I I I I #
loop $-1 $-1 $524 $141 #
coedge $-1 $356 $356 $357 $525 reversed $222 $-1 #
coedge $-1 $357 $357 $356 $525 forward $224 $-1 #
coedge $-1 $358 $358 $225 $359 forward $353 $-1 #
edge $-1 $526 0 $526 6.2831853071796004 $358 $527 forward 7 unknown #
face $-1 $528 $529 $54 $-1 $530 reversed single #
loop $-1 $-1 $531 $226 #
plane-surface $-1 -73.188268684957421 0 0 1 0 0 0 0 -1 forward_v I I I I #
coedge $-1 $532 $371 $533 $534 forward $227 $-1 #
coedge $-1 $535 $229 $532 $536 forward $145 $-1 #
coedge $-1 $229 $535 $537 $538 forward $145 $-1 #
coedge $-1 $374 $373 $229 $367 reversed $375 $-1 #
edge $-1 $539 -46.730867023924745 $540 46.730867023924745 $366 $541 forward 7 unknown #
coedge $-1 $231 $230 $542 $543 forward $91 $-1 #
coedge $-1 $544 $545 $230 $370 reversed $529 $-1 #
edge $-1 $377 -73.188268684957421 $546 73.188268684957421 $369 $547 forward 7 unknown #
coedge $-1 $363 $548 $231 $372 reversed $227 $-1 #
edge $-1 $549 -73.188268684957421 $376 73.188268684957421 $371 $550 forward 7 unknown #
coedge $-1 $366 $232 $548 $551 forward $375 $-1 #
coedge $-1 $232 $366 $544 $552 reversed $375 $-1 #
loop $-1 $-1 $373 $528 #
vertex $-1 $233 $553 #
vertex $-1 $233 $554 #
straight-curve $-1 73.188268684957421 0 13.056889762997473 0 1 0 I I #
face $-1 $555 $391 $55 $-1 $556 reversed single #
loop $-1 $-1 $557 $234 #
plane-surface $-1 -88.875639379015581 -40.541020963018255 0 1 0 0 0 0 -1 forward_v I I I I #
coedge $-1 $558 $559 $560 $561 forward $235 $-1 #
coedge $-1 $562 $237 $558 $563 forward $149 $-1 #
coedge $-1 $237 $562 $389 $564 forward $149 $-1 #
edge $-1 $392 38.848968867903778 $565 42.233073058132732 $237 $566 forward 7 unknown #
coedge $-1 $239 $238 $567 $568 forward $94 $-1 #
coedge $-1 $569 $570 $238 $388 forward $571 $-1 #
edge $-1 $572 -42.233073058132732 $393 -38.848968867903778 $387 $573 forward 7 unknown #
coedge $-1 $574 $240 $384 $564 reversed $391 $-1 #
coedge $-1 $240 $574 $569 $575 reversed $391 $-1 #
loop $-1 $-1 $240 $379 #
vertex $-1 $385 $576 #
vertex $-1 $575 $577 #
straight-curve $-1 -73.188268684957421 -38.848968867903778 0 0 0 1 I I #
face $-1 $578 $579 $56 $-1 $580 reversed single #
loop $-1 $-1 $581 $242 #
plane-surface $-1 81.031954031986487 -38.848968867903778 0 0 -1 0 0 0 -1 forward_v I I I I #
coedge $-1 $582 $245 $583 $584 forward $153 $-1 #
coedge $-1 $245 $582 $404 $585 forward $153 $-1 #
edge $-1 $406 -42.233073058132732 $586 -38.848968867903778 $245 $587 forward 7 unknown #
coedge $-1 $247 $246 $588 $589 forward $97 $-1 #
coedge $-1 $590 $591 $246 $403 forward $592 $-1 #
edge $-1 $593 38.848968867903778 $407 42.233073058132732 $402 $594 forward 7 unknown #
coedge $-1 $595 $248 $399 $585 reversed $243 $-1 #
coedge $-1 $248 $595 $590 $596 reversed $243 $-1 #
vertex $-1 $400 $597 #
vertex $-1 $596 $598 #
straight-curve $-1 73.188268684957421 -42.233073058132732 0 0 0 1 I I #
face $-1 $-1 $421 $57 $-1 $599 forward single #
loop $-1 $-1 $600 $250 #
plane-surface $-1 0 46.730867023924745 0 0 -1 0 0 0 -1 forward_v I I I I #
coedge $-1 $601 $602 $603 $604 reversed $251 $-1 #
coedge $-1 $605 $253 $255 $419 forward $157 $-1 #
coedge $-1 $253 $605 $601 $606 forward $157 $-1 #
coedge $-1 $603 $256 $253 $416 forward $421 $-1 #
edge $-1 $423 -32.055254627376904 $607 -18.836032099667797 $415 $608 forward 7 unknown #
coedge $-1 $609 $610 $254 $418 forward $410 $-1 #
edge $-1 $611 -79.633168962162486 $422 -66.645950330980583 $417 $612 forward 7 unknown #
edge $-1 $423 77.796317986339773 $611 93.461734047849475 $255 $613 forward 7 unknown #
coedge $-1 $256 $603 $609 $614 forward $421 $-1 #
loop $-1 $-1 $603 $409 #
vertex $-1 $418 $615 #
vertex $-1 $257 $616 #
straight-curve $-1 -57.500897990899254 57.909690059536679 13.056889762997471 0 -1 0 I I #
coedge $-1 $425 $425 $-1 $617 reversed $260 $-1 #
edge $-1 $618 0 $618 6.2831853071796004 $261 $619 forward 7 unknown #
vertex $-1 $264 $620 #
ellipse-curve $-1 -53.72397726869665 42.350872371927785 6.5632804474065116 0 0.82903758062907751 0.55919289150049634 1 0 0 1 I I #
coedge $-1 $429 $429 $-1 $621 reversed $267 $-1 #
edge $-1 $622 0 $622 6.2831853071796004 $268 $623 forward 7 unknown #
vertex $-1 $271 $624 #
ellipse-curve $-1 -48.058596185392751 42.350872371927785 6.5632804474065116 0 0.82903758062907751 0.55919289150049634 1 0 0 1 I I #
face $-1 $-1 $625 $60 $-1 $626 reversed single #
loop $-1 $-1 $278 $272 #
plane-surface $-1 0 0 13.056889762997473 0 0 1 1 0 0 forward_v I I I I #
coedge $-1 $627 $628 $629 $630 reversed $273 $-1 #
coedge $-1 $631 $275 $277 $443 forward $171 $-1 #
coedge $-1 $275 $631 $627 $632 forward $171 $-1 #
coedge $-1 $629 $278 $275 $440 forward $434 $-1 #
edge $-1 $446 11.869246092480466 $633 31.505749233700698 $439 $634 forward 7 unknown #
coedge $-1 $635 $636 $276 $442 forward $625 $-1 #
edge $-1 $637 -44.845113630203606 $445 -36.187019731437822 $441 $638 forward 7 unknown #
edge $-1 $446 -11.30233876490979 $637 2.2061860048766535e-014 $277 $639 forward 7 unknown #
coedge $-1 $278 $629 $635 $640 forward $434 $-1 #
vertex $-1 $279 $641 #
vertex $-1 $279 $642 #
straight-curve $-1 -33.556743755571048 -79.43090064605758 13.056889762997471 0 1 0 I I #
coedge $-1 $448 $448 $-1 $643 reversed $282 $-1 #
edge $-1 $644 0 $644 6.2831853071796004 $283 $645 forward 7 unknown #
vertex $-1 $286 $646 #
ellipse-curve $-1 -47.58281742787122 -43.098365420451678 8.7278428136145827 0 -0.7660444514056185 0.64278759981090561 1.5 0 0 1 I I #
coedge $-1 $452 $452 $-1 $647 reversed $289 $-1 #
edge $-1 $648 0 $648 6.2831853071796004 $290 $649 forward 7 unknown #
vertex $-1 $293 $650 #
ellipse-curve $-1 -39.167173224491123 -43.098365420451678 8.7278428136145827 0 -0.7660444514056185 0.64278759981090561 1.5 0 0 1 I I #
face $-1 $-1 $468 $63 $-1 $651 forward single #
loop $-1 $-1 $652 $294 #
plane-surface $-1 0 -46.730867023924745 0 0 1 0 0 0 1 forward_v I I I I #
coedge $-1 $653 $654 $655 $656 reversed $295 $-1 #
coedge $-1 $657 $297 $299 $466 forward $185 $-1 #
coedge $-1 $297 $657 $653 $658 forward $185 $-1 #
coedge $-1 $655 $300 $297 $463 forward $468 $-1 #
edge $-1 $470 -2.5890856829132609 $659 17.047417458306978 $462 $660 forward 7 unknown #
coedge $-1 $661 $662 $298 $465 forward $457 $-1 #
edge $-1 $663 -44.845113630203606 $469 -36.187019731437822 $464 $664 forward 7 unknown #
edge $-1 $470 -11.30233876490979 $663 2.2061860048766535e-014 $299 $665 forward 7 unknown #
coedge $-1 $300 $655 $661 $666 forward $468 $-1 #
loop $-1 $-1 $655 $456 #
vertex $-1 $465 $667 #
vertex $-1 $301 $668 #
straight-curve $-1 -4.6400802047835974 -79.43090064605758 13.056889762997471 0 1 0 I I #
coedge $-1 $472 $472 $-1 $669 reversed $304 $-1 #
edge $-1 $670 0 $670 6.2831853071796004 $305 $671 forward 7 unknown #
vertex $-1 $308 $672 #
ellipse-curve $-1 -18.666153877083772 -43.098365420451678 8.7278428136145827 0 -0.7660444514056185 0.64278759981090561 1.5 0 0 1 I I #
coedge $-1 $476 $476 $-1 $673 reversed $311 $-1 #
edge $-1 $674 0 $674 6.2831853071796004 $312 $675 forward 7 unknown #
vertex $-1 $315 $676 #
ellipse-curve $-1 -10.250509673703675 -43.098365420451678 8.7278428136145827 0 -0.7660444514056185 0.64278759981090561 1.5 0 0 1 I I #
face $-1 $-1 $492 $66 $-1 $677 forward single #
loop $-1 $-1 $678 $316 #
plane-surface $-1 0 -46.730867023924745 0 0 1 0 0 0 1 forward_v I I I I #
coedge $-1 $679 $680 $681 $682 reversed $317 $-1 #
coedge $-1 $683 $319 $321 $490 forward $199 $-1 #
coedge $-1 $319 $683 $679 $684 forward $199 $-1 #
coedge $-1 $681 $322 $319 $487 forward $492 $-1 #
edge $-1 $494 -17.047417458306985 $685 2.5890856829132538 $486 $686 forward 7 unknown #
coedge $-1 $687 $688 $320 $489 forward $481 $-1 #
edge $-1 $689 -44.845113630203606 $493 -36.187019731437822 $488 $690 forward 7 unknown #
edge $-1 $494 -11.30233876490979 $689 2.2061860048766535e-014 $321 $691 forward 7 unknown #
coedge $-1 $322 $681 $687 $692 forward $492 $-1 #
loop $-1 $-1 $681 $480 #
vertex $-1 $489 $693 #
vertex $-1 $323 $694 #
straight-curve $-1 24.27658334600385 -79.43090064605758 13.056889762997471 0 1 0 I I #
coedge $-1 $496 $496 $-1 $695 reversed $326 $-1 #
edge $-1 $696 0 $696 6.2831853071796004 $327 $697 forward 7 unknown #
vertex $-1 $330 $698 #
ellipse-curve $-1 10.250509673703675 -43.098365420451678 8.7278428136145827 0 -0.7660444514056185 0.64278759981090561 1.5 0 0 1 I I #
coedge $-1 $500 $500 $-1 $699 reversed $333 $-1 #
edge $-1 $700 0 $700 6.2831853071796004 $334 $701 forward 7 unknown #
vertex $-1 $337 $702 #
ellipse-curve $-1 18.666153877083772 -43.098365420451678 8.7278428136145827 0 -0.7660444514056185 0.64278759981090561 1.5 0 0 1 I I #
face $-1 $-1 $516 $69 $-1 $703 forward single #
loop $-1 $-1 $704 $338 #
plane-surface $-1 0 -46.730867023924745 0 0 1 0 0 0 1 forward_v I I I I #
coedge $-1 $705 $706 $707 $708 reversed $339 $-1 #
coedge $-1 $709 $341 $343 $514 forward $213 $-1 #
coedge $-1 $341 $709 $705 $710 forward $213 $-1 #
coedge $-1 $707 $344 $341 $511 forward $516 $-1 #
edge $-1 $518 -31.505749233700705 $711 -11.869246092480473 $510 $712 forward 7 unknown #
coedge $-1 $713 $714 $342 $513 forward $505 $-1 #
edge $-1 $715 -44.845113630203606 $517 -36.187019731437822 $512 $716 forward 7 unknown #
edge $-1 $518 -11.30233876490979 $715 2.2061860048766535e-014 $343 $717 forward 7 unknown #
coedge $-1 $344 $707 $713 $718 forward $516 $-1 #
loop $-1 $-1 $707 $504 #
vertex $-1 $513 $719 #
vertex $-1 $345 $720 #
straight-curve $-1 53.193246896791294 -79.43090064605758 13.056889762997471 0 1 0 I I #
coedge $-1 $520 $520 $-1 $721 reversed $348 $-1 #
edge $-1 $722 0 $722 6.2831853071796004 $349 $723 forward 7 unknown #
vertex $-1 $352 $724 #
ellipse-curve $-1 39.167173224491123 -43.098365420451678 8.7278428136145827 0 -0.7660444514056185 0.64278759981090561 1.5 0 0 1 I I #
coedge $-1 $524 $524 $-1 $725 reversed $355 $-1 #
edge $-1 $726 0 $726 6.2831853071796004 $356 $727 forward 7 unknown #
vertex $-1 $359 $728 #
ellipse-curve $-1 47.58281742787122 -43.098365420451678 8.7278428136145827 0 -0.7660444514056185 0.64278759981090561 1.5 0 0 1 I I #
face $-1 $-1 $375 $54 $-1 $729 reversed single #
loop $-1 $-1 $544 $360 #
plane-surface $-1 0 46.730867023924745 0 0 -1 0 0 0 -1 forward_v I I I I #
coedge $-1 $730 $542 $545 $731 forward $361 $-1 #
coedge $-1 $548 $363 $364 $536 reversed $227 $-1 #
coedge $-1 $542 $730 $363 $534 reversed $361 $-1 #
edge $-1 $549 -13.056889762997473 $732 13.056889762997473 $533 $733 forward 7 unknown #
coedge $-1 $365 $364 $730 $734 forward $145 $-1 #
edge $-1 $540 -73.188268684957421 $732 73.188268684957421 $532 $735 forward 7 unknown #
coedge $-1 $545 $544 $365 $538 reversed $529 $-1 #
edge $-1 $736 -73.188268684957421 $539 73.188268684957421 $537 $737 forward 7 unknown #
vertex $-1 $367 $738 #
vertex $-1 $551 $739 #
straight-curve $-1 73.188268684957421 0 -13.056889762997473 0 -1 0 I I #
coedge $-1 $531 $533 $368 $543 reversed $361 $-1 #
edge $-1 $546 -46.730867023924745 $549 46.730867023924745 $542 $740 forward 7 unknown #
coedge $-1 $537 $369 $374 $552 forward $529 $-1 #
coedge $-1 $369 $537 $531 $731 reversed $529 $-1 #
vertex $-1 $370 $741 #
straight-curve $-1 0 46.730867023924745 13.056889762997473 -1 0 0 I I #
coedge $-1 $371 $532 $373 $551 reversed $227 $-1 #
vertex $-1 $543 $742 #
straight-curve $-1 0 -46.730867023924745 13.056889762997473 1 0 0 I I #
edge $-1 $376 -13.056889762997473 $540 13.056889762997473 $373 $743 forward 7 unknown #
edge $-1 $377 -13.056889762997473 $539 13.056889762997473 $374 $744 forward 7 unknown #
point $-1 73.188268684957421 -46.730867023924745 13.056889762997473 #
point $-1 73.188268684957421 46.730867023924745 13.056889762997473 #
face $-1 $-1 $571 $55 $-1 $745 forward single #
plane-surface $-1 -81.031954031986501 -38.848968867903778 0 0 -1 0 0 0 -1 forward_v I I I I #
coedge $-1 $746 $747 $574 $748 forward $380 $-1 #
coedge $-1 $567 $382 $383 $563 reversed $235 $-1 #
coedge $-1 $382 $567 $570 $749 reversed $235 $-1 #
coedge $-1 $747 $746 $382 $561 reversed $380 $-1 #
edge $-1 $750 -13.056889762997473 $751 13.056889762997473 $560 $752 forward 7 unknown #
coedge $-1 $384 $383 $746 $753 forward $149 $-1 #
edge $-1 $565 -7.8436853470290799 $751 7.8436853470290799 $558 $754 forward 7 unknown #
edge $-1 $755 -7.8436853470290799 $392 7.8436853470290799 $389 $756 forward 7 unknown #
vertex $-1 $563 $757 #
straight-curve $-1 -73.188268684957421 0 -13.056889762997473 0 -1 0 I I #
coedge $-1 $559 $558 $386 $568 reversed $235 $-1 #
edge $-1 $572 -13.056889762997473 $565 13.056889762997473 $567 $758 forward 7 unknown #
coedge $-1 $759 $387 $390 $575 forward $571 $-1 #
coedge $-1 $387 $759 $559 $749 forward $571 $-1 #
loop $-1 $-1 $387 $555 #
vertex $-1 $388 $760 #
straight-curve $-1 -73.188268684957421 0 13.056889762997473 0 1 0 I I #
coedge $-1 $390 $389 $557 $748 reversed $391 $-1 #
edge $-1 $393 -7.8436853470290799 $761 7.8436853470290799 $390 $762 forward 7 unknown #
point $-1 -73.188268684957421 -38.848968867903778 -13.056889762997473 #
point $-1 -73.188268684957421 -38.848968867903778 13.056889762997473 #
face $-1 $-1 $592 $56 $-1 $763 forward single #
loop $-1 $-1 $764 $395 #
plane-surface $-1 88.875639379015567 -40.541020963018255 0 -1 0 0 0 0 1 forward_v I I I I #
coedge $-1 $583 $765 $766 $767 forward $396 $-1 #
coedge $-1 $399 $398 $768 $769 forward $153 $-1 #
coedge $-1 $588 $581 $398 $584 reversed $396 $-1 #
edge $-1 $586 -7.8436853470290799 $770 7.8436853470290799 $583 $771 forward 7 unknown #
edge $-1 $772 -7.8436853470290799 $406 7.8436853470290799 $404 $773 forward 7 unknown #
vertex $-1 $584 $774 #
straight-curve $-1 73.188268684957421 0 -13.056889762997473 0 1 0 I I #
coedge $-1 $765 $583 $401 $589 reversed $396 $-1 #
edge $-1 $593 -13.056889762997473 $586 13.056889762997473 $588 $775 forward 7 unknown #
coedge $-1 $776 $402 $405 $596 forward $592 $-1 #
coedge $-1 $402 $776 $765 $777 forward $592 $-1 #
loop $-1 $-1 $402 $578 #
vertex $-1 $403 $778 #
straight-curve $-1 73.188268684957421 0 13.056889762997473 0 -1 0 I I #
coedge $-1 $405 $404 $764 $779 reversed $243 $-1 #
edge $-1 $407 -7.8436853470290799 $780 7.8436853470290799 $405 $781 forward 7 unknown #
point $-1 73.188268684957407 -42.233073058132732 -13.056889762997473 #
point $-1 73.188268684957407 -42.233073058132732 13.056889762997473 #
plane-surface $-1 0 0 13.056889762997473 0 0 1 1 0 0 forward_v I I I I #
coedge $-1 $610 $609 $602 $782 forward $410 $-1 #
coedge $-1 $602 $412 $414 $606 reversed $251 $-1 #
coedge $-1 $412 $601 $600 $782 reversed $251 $-1 #
coedge $-1 $420 $415 $412 $604 forward $421 $-1 #
edge $-1 $607 -19.938812339605867 $783 -11.178823035611934 $603 $784 forward 7 unknown #
coedge $-1 $414 $413 $610 $785 reversed $157 $-1 #
edge $-1 $786 -93.461734047849475 $607 -77.796317986339773 $601 $787 forward 7 unknown #
vertex $-1 $416 $788 #
straight-curve $-1 -25.44564336352235 37.970877719930812 13.056889762997471 1 0 0 I I #
coedge $-1 $600 $417 $420 $614 reversed $410 $-1 #
coedge $-1 $417 $600 $605 $785 forward $410 $-1 #
vertex $-1 $418 $789 #
straight-curve $-1 -57.500897990899254 46.730867023924745 79.702840093978054 0 0 1 I I #
straight-curve $-1 -57.500897990899254 -5.5322702829425907 77.552961008242974 0 0.55919289150049634 -0.82903758062907751 I I #
edge $-1 $783 44.281675463190147 $422 57.500897990899254 $609 $790 forward 7 unknown #
point $-1 -57.500897990899254 46.730867023924745 13.056889762997473 #
point $-1 -57.500897990899254 37.970877719930812 13.056889762997471 #
edge $-1 $791 1 $791 0 $425 $-1 forward 7 unknown #
vertex $-1 $426 $792 #
ellipse-curve $-1 -53.72397726869665 39.514732455603514 4.6502799784700839 0 0.82903758062907751 0.55919289150049634 1 0 0 1 I I #
point $-1 -52.72397726869665 42.350872371927778 6.5632804474065027 #
edge $-1 $793 1 $793 0 $429 $-1 forward 7 unknown #
vertex $-1 $430 $794 #
ellipse-curve $-1 -48.058596185392751 39.514732455603514 4.6502799784700839 0 0.82903758062907751 0.55919289150049634 1 0 0 1 I I #
point $-1 -47.058596185392751 42.350872371927778 6.5632804474065027 #
loop $-1 $-1 $441 $433 #
plane-surface $-1 0 -46.730867023924745 0 0 1 0 0 0 1 forward_v I I I I #
coedge $-1 $628 $436 $438 $632 reversed $273 $-1 #
coedge $-1 $436 $627 $795 $796 reversed $273 $-1 #
coedge $-1 $444 $439 $436 $630 forward $434 $-1 #
edge $-1 $633 -39.965036829078969 $797 -32.700033622132835 $629 $798 forward 7 unknown #
coedge $-1 $438 $437 $636 $799 reversed $171 $-1 #
edge $-1 $800 -2.2061860048766535e-014 $633 11.30233876490979 $627 $801 forward 7 unknown #
vertex $-1 $440 $802 #
straight-curve $-1 -21.687497663090582 -39.465863816978604 13.056889762997471 -1 0 0 I I #
coedge $-1 $795 $441 $444 $640 reversed $625 $-1 #
coedge $-1 $441 $795 $631 $799 forward $625 $-1 #
vertex $-1 $442 $803 #
straight-curve $-1 -33.556743755571048 -46.730867023924745 49.243909494435293 0 0 1 I I #
straight-curve $-1 -33.556743755571048 -46.730867023924731 4.3987958642317011 0 -0.64278759981090561 -0.7660444514056185 I I #
edge $-1 $797 -53.19324689679128 $445 -33.556743755571048 $635 $804 forward 7 unknown #
point $-1 -33.556743755571048 -46.730867023924745 13.056889762997473 #
point $-1 -33.556743755571048 -39.465863816978612 13.056889762997473 #
edge $-1 $805 1 $805 0 $448 $-1 forward 7 unknown #
vertex $-1 $449 $806 #
ellipse-curve $-1 -47.58281742787122 -40.080465424563307 6.1955241064338802 0 -0.7660444514056185 0.64278759981090561 1.5 0 0 1 I I #
point $-1 -46.08281742787122 -43.098365420451678 8.7278428136145827 #
edge $-1 $807 1 $807 0 $452 $-1 forward 7 unknown #
vertex $-1 $453 $808 #
ellipse-curve $-1 -39.167173224491123 -40.080465424563307 6.1955241064338802 0 -0.7660444514056185 0.64278759981090561 1.5 0 0 1 I I #
point $-1 -37.667173224491123 -43.098365420451678 8.7278428136145827 #
plane-surface $-1 0 0 13.056889762997473 0 0 1 1 0 0 forward_v I I I I #
coedge $-1 $662 $661 $654 $809 forward $457 $-1 #
coedge $-1 $654 $459 $461 $658 reversed $295 $-1 #
coedge $-1 $459 $653 $652 $809 reversed $295 $-1 #
coedge $-1 $467 $462 $459 $656 forward $468 $-1 #
edge $-1 $659 -39.965036829078969 $810 -32.700033622132835 $655 $811 forward 7 unknown #
coedge $-1 $461 $460 $662 $812 reversed $185 $-1 #
edge $-1 $813 -2.2061860048766535e-014 $659 11.30233876490979 $653 $814 forward 7 unknown #
vertex $-1 $463 $815 #
straight-curve $-1 -7.2291658876968583 -39.465863816978604 13.056889762997471 -1 0 0 I I #
coedge $-1 $652 $464 $467 $666 reversed $457 $-1 #
coedge $-1 $464 $652 $657 $812 forward $457 $-1 #
vertex $-1 $465 $816 #
straight-curve $-1 -4.6400802047835974 -46.730867023924745 49.243909494435293 0 0 1 I I #
straight-curve $-1 -4.6400802047835974 -46.730867023924731 4.3987958642317011 0 -0.64278759981090561 -0.7660444514056185 I I #
edge $-1 $810 -24.276583346003836 $469 -4.6400802047835974 $661 $817 forward 7 unknown #
point $-1 -4.6400802047835974 -46.730867023924745 13.056889762997473 #
point $-1 -4.6400802047835974 -39.465863816978612 13.056889762997473 #
edge $-1 $818 1 $818 0 $472 $-1 forward 7 unknown #
vertex $-1 $473 $819 #
ellipse-curve $-1 -18.666153877083772 -40.080465424563307 6.1955241064338802 0 -0.7660444514056185 0.64278759981090561 1.5 0 0 1 I I #
point $-1 -17.166153877083772 -43.098365420451678 8.7278428136145827 #
edge $-1 $820 1 $820 0 $476 $-1 forward 7 unknown #
vertex $-1 $477 $821 #
ellipse-curve $-1 -10.250509673703675 -40.080465424563307 6.1955241064338802 0 -0.7660444514056185 0.64278759981090561 1.5 0 0 1 I I #
point $-1 -8.7505096737036752 -43.098365420451678 8.7278428136145827 #
plane-surface $-1 0 0 13.056889762997473 0 0 1 1 0 0 forward_v I I I I #
coedge $-1 $688 $687 $680 $822 forward $481 $-1 #
coedge $-1 $680 $483 $485 $684 reversed $317 $-1 #
coedge $-1 $483 $679 $678 $822 reversed $317 $-1 #
coedge $-1 $491 $486 $483 $682 forward $492 $-1 #
edge $-1 $685 -39.965036829078969 $823 -32.700033622132835 $681 $824 forward 7 unknown #
coedge $-1 $485 $484 $688 $825 reversed $199 $-1 #
edge $-1 $826 -2.2061860048766535e-014 $685 11.30233876490979 $679 $827 forward 7 unknown #
vertex $-1 $487 $828 #
straight-curve $-1 7.2291658876968654 -39.465863816978604 13.056889762997471 -1 0 0 I I #
coedge $-1 $678 $488 $491 $692 reversed $481 $-1 #
coedge $-1 $488 $678 $683 $825 forward $481 $-1 #
vertex $-1 $489 $829 #
straight-curve $-1 24.27658334600385 -46.730867023924745 49.243909494435293 0 0 1 I I #
straight-curve $-1 24.27658334600385 -46.730867023924731 4.3987958642317011 0 -0.64278759981090561 -0.7660444514056185 I I #
edge $-1 $823 4.6400802047836116 $493 24.27658334600385 $687 $830 forward 7 unknown #
point $-1 24.27658334600385 -46.730867023924745 13.056889762997473 #
point $-1 24.27658334600385 -39.465863816978612 13.056889762997473 #
edge $-1 $831 1 $831 0 $496 $-1 forward 7 unknown #
vertex $-1 $497 $832 #
ellipse-curve $-1 10.250509673703675 -40.080465424563307 6.1955241064338802 0 -0.7660444514056185 0.64278759981090561 1.5 0 0 1 I I #
point $-1 11.750509673703675 -43.098365420451678 8.7278428136145827 #
edge $-1 $833 1 $833 0 $500 $-1 forward 7 unknown #
vertex $-1 $501 $834 #
ellipse-curve $-1 18.666153877083772 -40.080465424563307 6.1955241064338802 0 -0.7660444514056185 0.64278759981090561 1.5 0 0 1 I I #
point $-1 20.166153877083772 -43.098365420451678 8.7278428136145827 #
plane-surface $-1 0 0 13.056889762997473 0 0 1 1 0 0 forward_v I I I I #
coedge $-1 $714 $713 $706 $835 forward $505 $-1 #
coedge $-1 $706 $507 $509 $710 reversed $339 $-1 #
coedge $-1 $507 $705 $704 $835 reversed $339 $-1 #
coedge $-1 $515 $510 $507 $708 forward $516 $-1 #
edge $-1 $711 -39.965036829078969 $836 -32.700033622132835 $707 $837 forward 7 unknown #
coedge $-1 $509 $508 $714 $838 reversed $213 $-1 #
edge $-1 $839 -2.2061860048766535e-014 $711 11.30233876490979 $705 $840 forward 7 unknown #
vertex $-1 $511 $841 #
straight-curve $-1 21.687497663090589 -39.465863816978604 13.056889762997471 -1 0 0 I I #
coedge $-1 $704 $512 $515 $718 reversed $505 $-1 #
coedge $-1 $512 $704 $709 $838 forward $505 $-1 #
vertex $-1 $513 $842 #
straight-curve $-1 53.193246896791294 -46.730867023924745 49.243909494435293 0 0 1 I I #
straight-curve $-1 53.193246896791294 -46.730867023924731 4.3987958642317011 0 -0.64278759981090561 -0.7660444514056185 I I #
edge $-1 $836 33.556743755571063 $517 53.193246896791294 $713 $843 forward 7 unknown #
point $-1 53.193246896791294 -46.730867023924745 13.056889762997473 #
point $-1 53.193246896791294 -39.465863816978612 13.056889762997473 #
edge $-1 $844 1 $844 0 $520 $-1 forward 7 unknown #
vertex $-1 $521 $845 #
ellipse-curve $-1 39.167173224491123 -40.080465424563307 6.1955241064338802 0 -0.7660444514056185 0.64278759981090561 1.5 0 0 1 I I #
point $-1 40.667173224491123 -43.098365420451678 8.7278428136145827 #
edge $-1 $846 1 $846 0 $524 $-1 forward 7 unknown #
vertex $-1 $525 $847 #
ellipse-curve $-1 47.58281742787122 -40.080465424563307 6.1955241064338802 0 -0.7660444514056185 0.64278759981090561 1.5 0 0 1 I I #
point $-1 49.08281742787122 -43.098365420451678 8.7278428136145827 #
plane-surface $-1 73.188268684957421 0 0 -1 0 0 0 0 1 forward_v I I I I #
coedge $-1 $533 $531 $535 $734 reversed $361 $-1 #
edge $-1 $546 -13.056889762997473 $736 13.056889762997473 $545 $848 forward 7 unknown #
vertex $-1 $734 $849 #
straight-curve $-1 -73.188268684957421 -46.730867023924745 0 0 0 -1 I I #
edge $-1 $732 -46.730867023924745 $736 46.730867023924745 $730 $850 forward 7 unknown #
straight-curve $-1 0 -46.730867023924745 -13.056889762997473 -1 0 0 I I #
vertex $-1 $538 $851 #
straight-curve $-1 0 46.730867023924745 -13.056889762997473 1 0 0 I I #
point $-1 73.188268684957421 46.730867023924745 -13.056889762997473 #
point $-1 73.188268684957421 -46.730867023924745 -13.056889762997473 #
straight-curve $-1 -73.188268684957421 0 13.056889762997473 0 -1 0 I I #
point $-1 -73.188268684957421 46.730867023924745 13.056889762997473 #
point $-1 -73.188268684957421 -46.730867023924745 13.056889762997473 #
straight-curve $-1 73.188268684957421 -46.730867023924745 0 0 0 -1 I I #
straight-curve $-1 73.188268684957421 46.730867023924745 0 0 0 -1 I I #
plane-surface $-1 0 0 13.056889762997473 0 0 1 1 0 0 forward_v I I I I #
coedge $-1 $560 $557 $562 $753 reversed $380 $-1 #
coedge $-1 $557 $560 $759 $852 reversed $380 $-1 #
edge $-1 $761 -13.056889762997473 $755 13.056889762997473 $574 $853 forward 7 unknown #
edge $-1 $750 -7.8436853470290799 $572 7.8436853470290799 $559 $854 forward 7 unknown #
vertex $-1 $852 $855 #
vertex $-1 $753 $856 #
straight-curve $-1 -88.875639379015581 -42.233073058132732 0 0 0 -1 I I #
edge $-1 $751 -1.6920520951144766 $755 1.6920520951144766 $746 $857 forward 7 unknown #
straight-curve $-1 -81.031954031986501 -42.233073058132732 -13.056889762997473 -1 0 0 I I #
vertex $-1 $564 $858 #
straight-curve $-1 -81.031954031986501 -38.848968867903778 -13.056889762997473 1 0 0 I I #
point $-1 -73.188268684957421 -42.233073058132732 -13.056889762997473 #
straight-curve $-1 -73.188268684957421 -42.233073058132732 0 0 0 -1 I I #
coedge $-1 $570 $569 $747 $852 forward $571 $-1 #
point $-1 -73.188268684957421 -42.233073058132732 13.056889762997473 #
vertex $-1 $575 $859 #
straight-curve $-1 -81.031954031986501 -38.848968867903778 13.056889762997473 -1 0 0 I I #
plane-surface $-1 0 0 13.056889762997473 0 0 1 1 0 0 forward_v I I I I #
coedge $-1 $768 $860 $595 $779 forward $579 $-1 #
coedge $-1 $581 $588 $591 $777 reversed $396 $-1 #
coedge $-1 $860 $768 $581 $767 reversed $579 $-1 #
edge $-1 $861 -13.056889762997473 $770 13.056889762997473 $766 $862 forward 7 unknown #
coedge $-1 $766 $764 $582 $769 reversed $579 $-1 #
edge $-1 $770 -1.6920520951144766 $772 1.6920520951144766 $768 $863 forward 7 unknown #
vertex $-1 $769 $864 #
straight-curve $-1 81.031954031986487 -38.848968867903778 -13.056889762997473 1 0 0 I I #
vertex $-1 $779 $865 #
straight-curve $-1 81.031954031986487 -42.233073058132732 -13.056889762997473 -1 0 0 I I #
point $-1 73.188268684957407 -38.848968867903778 -13.056889762997473 #
straight-curve $-1 73.188268684957421 -38.848968867903778 0 0 0 -1 I I #
coedge $-1 $591 $590 $860 $866 forward $592 $-1 #
edge $-1 $861 -7.8436853470290799 $593 7.8436853470290799 $765 $867 forward 7 unknown #
point $-1 73.188268684957407 -38.848968867903778 13.056889762997473 #
edge $-1 $780 -13.056889762997473 $772 13.056889762997473 $764 $868 forward 7 unknown #
vertex $-1 $866 $869 #
straight-curve $-1 81.031954031986487 -42.233073058132732 13.056889762997473 1 0 0 I I #
edge $-1 $783 66.645950330980583 $786 79.633168962162486 $600 $870 forward 7 unknown #
vertex $-1 $614 $871 #
straight-curve $-1 -44.281675463190147 57.909690059536679 13.056889762997471 0 1 0 I I #
edge $-1 $786 18.836032099667797 $611 32.055254627376904 $610 $872 forward 7 unknown #
vertex $-1 $785 $873 #
straight-curve $-1 -44.281675463190147 -5.5322702829425907 77.552961008242974 0 -0.55919289150049634 0.82903758062907751 I I #
point $-1 -44.281675463190147 37.970877719930812 13.056889762997471 #
point $-1 -57.500897990899254 46.730867023924745 0.069671131815567833 #
straight-curve $-1 0 46.730867023924745 13.056889762997473 -1 0 0 I I #
vertex $-1 $617 $874 #
point $-1 -52.72397726869665 39.514732455603514 4.6502799784700839 #
vertex $-1 $621 $875 #
point $-1 -47.058596185392751 39.514732455603514 4.6502799784700839 #
coedge $-1 $636 $635 $628 $796 forward $625 $-1 #
edge $-1 $797 36.187019731437822 $800 44.845113630203606 $795 $876 forward 7 unknown #
vertex $-1 $640 $877 #
straight-curve $-1 -53.19324689679128 -79.43090064605758 13.056889762997471 0 -1 0 I I #
edge $-1 $800 -31.505749233700698 $637 -11.869246092480466 $636 $878 forward 7 unknown #
vertex $-1 $799 $879 #
straight-curve $-1 -53.19324689679128 -46.730867023924731 4.3987958642317011 0 0.64278759981090561 0.7660444514056185 I I #
point $-1 -53.19324689679128 -39.465863816978612 13.056889762997473 #
point $-1 -33.556743755571048 -46.730867023924745 4.3987958642316842 #
straight-curve $-1 0 -46.730867023924745 13.056889762997473 1 0 0 I I #
vertex $-1 $643 $880 #
point $-1 -46.08281742787122 -40.080465424563307 6.1955241064338802 #
vertex $-1 $647 $881 #
point $-1 -37.667173224491123 -40.080465424563307 6.1955241064338802 #
edge $-1 $810 36.187019731437822 $813 44.845113630203606 $652 $882 forward 7 unknown #
vertex $-1 $666 $883 #
straight-curve $-1 -24.276583346003836 -79.43090064605758 13.056889762997471 0 -1 0 I I #
edge $-1 $813 -17.047417458306978 $663 2.5890856829132609 $662 $884 forward 7 unknown #
vertex $-1 $812 $885 #
straight-curve $-1 -24.276583346003836 -46.730867023924731 4.3987958642317011 0 0.64278759981090561 0.7660444514056185 I I #
point $-1 -24.276583346003836 -39.465863816978612 13.056889762997473 #
point $-1 -4.6400802047835974 -46.730867023924745 4.3987958642316842 #
straight-curve $-1 0 -46.730867023924745 13.056889762997473 1 0 0 I I #
vertex $-1 $669 $886 #
point $-1 -17.166153877083772 -40.080465424563307 6.1955241064338802 #
vertex $-1 $673 $887 #
point $-1 -8.7505096737036752 -40.080465424563307 6.1955241064338802 #
edge $-1 $823 36.187019731437822 $826 44.845113630203606 $678 $888 forward 7 unknown #
vertex $-1 $692 $889 #
straight-curve $-1 4.6400802047836116 -79.43090064605758 13.056889762997471 0 -1 0 I I #
edge $-1 $826 -2.5890856829132538 $689 17.047417458306985 $688 $890 forward 7 unknown #
vertex $-1 $825 $891 #
straight-curve $-1 4.6400802047836116 -46.730867023924731 4.3987958642317011 0 0.64278759981090561 0.7660444514056185 I I #
point $-1 4.6400802047836116 -39.465863816978612 13.056889762997473 #
point $-1 24.27658334600385 -46.730867023924745 4.3987958642316842 #
straight-curve $-1 0 -46.730867023924745 13.056889762997473 1 0 0 I I #
vertex $-1 $695 $892 #
point $-1 11.750509673703675 -40.080465424563307 6.1955241064338802 #
vertex $-1 $699 $893 #
point $-1 20.166153877083772 -40.080465424563307 6.1955241064338802 #
edge $-1 $836 36.187019731437822 $839 44.845113630203606 $704 $894 forward 7 unknown #
vertex $-1 $718 $895 #
straight-curve $-1 33.556743755571063 -79.43090064605758 13.056889762997471 0 -1 0 I I #
edge $-1 $839 11.869246092480473 $715 31.505749233700705 $714 $896 forward 7 unknown #
vertex $-1 $838 $897 #
straight-curve $-1 33.556743755571063 -46.730867023924731 4.3987958642317011 0 0.64278759981090561 0.7660444514056185 I I #
point $-1 33.556743755571063 -39.465863816978612 13.056889762997473 #
point $-1 53.193246896791294 -46.730867023924745 4.3987958642316842 #
straight-curve $-1 0 -46.730867023924745 13.056889762997473 1 0 0 I I #
vertex $-1 $721 $898 #
point $-1 40.667173224491123 -40.080465424563307 6.1955241064338802 #
vertex $-1 $725 $899 #
point $-1 49.08281742787122 -40.080465424563307 6.1955241064338802 #
straight-curve $-1 -73.188268684957421 46.730867023924745 0 0 0 -1 I I #
point $-1 -73.188268684957421 -46.730867023924745 -13.056889762997473 #
straight-curve $-1 -73.188268684957421 0 -13.056889762997473 0 1 0 I I #
point $-1 -73.188268684957421 46.730867023924745 -13.056889762997473 #
edge $-1 $761 -1.6920520951144766 $750 1.6920520951144766 $747 $900 forward 7 unknown #
straight-curve $-1 -88.875639379015581 -38.848968867903778 0 0 0 -1 I I #
straight-curve $-1 -81.031954031986501 -42.233073058132732 13.056889762997473 1 0 0 I I #
point $-1 -88.875639379015581 -42.233073058132732 13.056889762997473 #
point $-1 -88.875639379015581 -42.233073058132732 -13.056889762997473 #
straight-curve $-1 -88.875639379015581 -40.541020963018255 -13.056889762997473 0 1 0 I I #
point $-1 -88.875639379015581 -38.848968867903778 -13.056889762997473 #
point $-1 -88.875639379015581 -38.848968867903778 13.056889762997473 #
coedge $-1 $764 $766 $776 $866 reversed $579 $-1 #
vertex $-1 $866 $901 #
straight-curve $-1 88.875639379015567 -38.848968867903778 0 0 0 -1 I I #
straight-curve $-1 88.875639379015567 -40.541020963018255 -13.056889762997473 0 -1 0 I I #
point $-1 88.875639379015567 -38.848968867903778 -13.056889762997473 #
point $-1 88.875639379015567 -42.233073058132732 -13.056889762997473 #
edge $-1 $780 -1.6920520951144766 $861 1.6920520951144766 $860 $902 forward 7 unknown #
straight-curve $-1 81.031954031986487 -38.848968867903778 13.056889762997473 -1 0 0 I I #
straight-curve $-1 88.875639379015567 -42.233073058132732 0 0 0 -1 I I #
point $-1 88.875639379015567 -42.233073058132732 13.056889762997473 #
straight-curve $-1 -44.281675463190147 46.730867023924745 79.702840093978054 0 0 -1 I I #
point $-1 -44.281675463190147 46.730867023924745 13.056889762997473 #
straight-curve $-1 -25.44564336352235 46.730867023924745 0.069671131815567833 -1 0 0 I I #
point $-1 -44.281675463190147 46.730867023924745 0.069671131815567833 #
point $-1 -53.72397726869665 38.685694874974438 4.0910870869695879 #
point $-1 -48.058596185392751 38.685694874974438 4.0910870869695879 #
straight-curve $-1 -53.19324689679128 -46.730867023924745 49.243909494435293 0 0 -1 I I #
point $-1 -53.19324689679128 -46.730867023924745 13.056889762997473 #
straight-curve $-1 -21.687497663090582 -46.730867023924745 4.3987958642316851 1 0 0 I I #
point $-1 -53.19324689679128 -46.730867023924745 4.3987958642316842 #
point $-1 -47.58281742787122 -38.931398747454885 5.2313427067175224 #
point $-1 -39.167173224491123 -38.931398747454885 5.2313427067175224 #
straight-curve $-1 -24.276583346003836 -46.730867023924745 49.243909494435293 0 0 -1 I I #
point $-1 -24.276583346003836 -46.730867023924745 13.056889762997473 #
straight-curve $-1 -7.2291658876968583 -46.730867023924745 4.3987958642316851 1 0 0 I I #
point $-1 -24.276583346003836 -46.730867023924745 4.3987958642316842 #
point $-1 -18.666153877083772 -38.931398747454885 5.2313427067175224 #
point $-1 -10.250509673703675 -38.931398747454885 5.2313427067175224 #
straight-curve $-1 4.6400802047836116 -46.730867023924745 49.243909494435293 0 0 -1 I I #
point $-1 4.6400802047836116 -46.730867023924745 13.056889762997473 #
straight-curve $-1 7.2291658876968654 -46.730867023924745 4.3987958642316851 1 0 0 I I #
point $-1 4.6400802047836116 -46.730867023924745 4.3987958642316842 #
point $-1 10.250509673703675 -38.931398747454885 5.2313427067175224 #
point $-1 18.666153877083772 -38.931398747454885 5.2313427067175224 #
straight-curve $-1 33.556743755571063 -46.730867023924745 49.243909494435293 0 0 -1 I I #
point $-1 33.556743755571063 -46.730867023924745 13.056889762997473 #
straight-curve $-1 21.687497663090589 -46.730867023924745 4.3987958642316851 1 0 0 I I #
point $-1 33.556743755571063 -46.730867023924745 4.3987958642316842 #
point $-1 39.167173224491123 -38.931398747454885 5.2313427067175224 #
point $-1 47.58281742787122 -38.931398747454885 5.2313427067175224 #
straight-curve $-1 -88.875639379015581 -40.541020963018255 13.056889762997473 0 -1 0 I I #
point $-1 88.875639379015567 -38.848968867903778 13.056889762997473 #
straight-curve $-1 88.875639379015567 -40.541020963018255 13.056889762997473 0 1 0 I I #
End-of-ACIS-data 