500 0 7 0           
7 Unknown 11 ACIS 5.0 NT 24 Fri Mar 26 19:44:03 1999 
-1 9.9999999999999995e-007 1e-010 
body $-1 $7 $-1 $8 #
body $-1 $9 $-1 $10 #
body $-1 $11 $-1 $12 #
body $-1 $13 $-1 $14 #
body $-1 $15 $-1 $16 #
body $-1 $17 $-1 $18 #
body $-1 $19 $-1 $20 #
lump $-1 $-1 $21 $0 #
transform $-1 1 0 0 0 1 0 0 0 1 45.045319986571855 26.909378828612649 9.8020042385531791 1 rotate no_reflect no_shear #
lump $-1 $-1 $22 $1 #
transform $-1 1 0 0 0 1 0 0 0 1 45.045319986571855 26.909378828612649 9.8020042385531791 1 rotate no_reflect no_shear #
lump $-1 $-1 $23 $2 #
transform $-1 1 0 0 0 1 0 0 0 1 45.045319986571855 26.909378828612649 9.8020042385531791 1 rotate no_reflect no_shear #
lump $-1 $-1 $24 $3 #
transform $-1 1 0 0 0 1 0 0 0 1 45.045319986571855 26.909378828612649 9.8020042385531791 1 rotate no_reflect no_shear #
lump $-1 $-1 $25 $4 #
transform $-1 1 0 0 0 1 0 0 0 1 45.045319986571855 26.909378828612649 9.8020042385531791 1 rotate no_reflect no_shear #
lump $-1 $-1 $26 $5 #
transform $-1 1 0 0 0 1 0 0 0 1 45.045319986571855 26.909378828612649 9.8020042385531791 1 rotate no_reflect no_shear #
lump $-1 $-1 $27 $6 #
transform $-1 1 0 0 0 1 0 0 0 1 45.045319986571855 26.909378828612649 9.8020042385531791 1 rotate no_reflect no_shear #
shell $-1 $-1 $-1 $28 $-1 $7 #
shell $-1 $-1 $-1 $29 $-1 $9 #
shell $-1 $-1 $-1 $30 $-1 $11 #
shell $-1 $-1 $-1 $31 $-1 $13 #
shell $-1 $-1 $-1 $32 $-1 $15 #
shell $-1 $-1 $-1 $33 $-1 $17 #
shell $-1 $-1 $-1 $34 $-1 $19 #
face $-1 $35 $36 $21 $-1 $37 forward single #
face $-1 $38 $39 $22 $-1 $40 forward single #
face $-1 $41 $42 $23 $-1 $43 reversed single #
face $-1 $44 $45 $24 $-1 $46 forward single #
face $-1 $47 $48 $25 $-1 $49 reversed single #
face $-1 $50 $51 $26 $-1 $52 forward single #
face $-1 $53 $54 $27 $-1 $55 forward single #
face $-1 $56 $57 $21 $-1 $58 reversed single #
loop $-1 $-1 $59 $28 #
plane-surface $-1 0 0 9.8020042385531791 0 0 1 1 0 0 forward_v I I I I #
face $-1 $60 $61 $22 $-1 $62 forward single #
loop $-1 $-1 $63 $29 #
plane-surface $-1 0 -26.909378828612649 0 0 1 0 0 0 1 forward_v I I I I #
face $-1 $64 $65 $23 $-1 $66 reversed single #
loop $-1 $-1 $67 $30 #
plane-surface $-1 25.114411928029313 20.657465973329682 131.98276185407769 0 1 0 0.5877852598018023 0 0.80901698891910034 forward_v I I I I #
face $-1 $68 $69 $24 $-1 $70 forward single #
loop $-1 $71 $72 $31 #
cone-surface $-1 41.916481411461412 23.783422400971165 7.1314574304862095 -0.5877852598018023 0 -0.80901698891910034 0.80901698891910034 0 -0.5877852598018023 1 I I 0 1 1 forward I I I I #
face $-1 $73 $74 $25 $-1 $75 reversed single #
loop $-1 $-1 $76 $32 #
plane-surface $-1 -123.84036982282818 17.645889887679438 46.252755179170371 0 1 0 -0.87461971476443456 0 0.48480960649040278 forward_v I I I I #
face $-1 $77 $78 $26 $-1 $79 forward single #
loop $-1 $80 $81 $33 #
cone-surface $-1 -42.370612355917906 20.292601013660356 5.8164949460445978 0.87461971476443456 0 -0.48480960649040278 0.48480960649040278 0 0.87461971476443456 1 I I 0 1 1 forward I I I I #
face $-1 $82 $83 $27 $-1 $84 forward single #
loop $-1 $85 $86 $34 #
cone-surface $-1 -42.370612355917906 24.262667702631735 5.8164949460445978 0.87461971476443456 0 -0.48480960649040278 0.48480960649040278 0 0.87461971476443456 1 I I 0 1 1 forward I I I I #
face $-1 $87 $88 $21 $-1 $89 reversed single #
loop $-1 $-1 $90 $35 #
plane-surface $-1 0 0 -9.8020042385531791 0 0 1 1 0 0 forward_v I I I I #
coedge $-1 $91 $92 $93 $94 forward $36 $-1 #
face $-1 $95 $96 $22 $-1 $97 reversed single #
loop $-1 $-1 $98 $38 #
plane-surface $-1 0 0 9.8020042385531791 0 0 1 1 0 0 forward_v I I I I #
coedge $-1 $99 $100 $101 $102 forward $39 $-1 #
face $-1 $103 $104 $23 $-1 $105 reversed single #
loop $-1 $-1 $106 $41 #
plane-surface $-1 -27.8395382942956 23.783422400971165 59.097903573210232 0.5877852598018023 0 0.80901698891910034 0.80901698891910034 0 -0.5877852598018023 forward_v I I I I #
coedge $-1 $107 $108 $109 $110 reversed $42 $-1 #
face $-1 $-1 $111 $24 $-1 $112 forward single #
loop $-1 $113 $114 $44 #
cone-surface $-1 41.01118771028591 23.783422400971165 5.8854275717936151 -0.5877852598018023 0 -0.80901698891910034 0.40450849445955017 0 -0.29389262990090115 1 I I -0.70710678118654746 0.70710678118654746 0.5 forward I I I I #
loop $-1 $-1 $115 $31 #
coedge $-1 $72 $72 $116 $117 reversed $45 $-1 #
face $-1 $118 $119 $25 $-1 $120 forward single #
loop $-1 $-1 $121 $47 #
plane-surface $-1 -45.045319986571869 22.277634358146042 2.5759474653220167 -0.87461971476443456 0 0.48480960649040278 0.48480960649040278 0 0.87461971476443456 forward_v I I I I #
coedge $-1 $122 $123 $124 $125 reversed $48 $-1 #
face $-1 $-1 $126 $26 $-1 $127 forward single #
loop $-1 $128 $129 $50 #
cone-surface $-1 -41.261329131453117 20.292601013660356 5.201609236906398 0.87461971476443456 0 -0.48480960649040278 0.24240480324520139 0 0.43730985738221728 1 I I -0.70710678118654746 0.70710678118654746 0.5 forward I I I I #
loop $-1 $-1 $130 $33 #
coedge $-1 $81 $81 $131 $132 reversed $51 $-1 #
face $-1 $-1 $133 $27 $-1 $134 forward single #
loop $-1 $135 $136 $53 #
cone-surface $-1 -41.261329131453117 24.262667702631735 5.201609236906398 0.87461971476443456 0 -0.48480960649040278 0.24240480324520139 0 0.43730985738221728 1 I I -0.70710678118654746 0.70710678118654746 0.5 forward I I I I #
loop $-1 $-1 $137 $34 #
coedge $-1 $86 $86 $138 $139 reversed $54 $-1 #
face $-1 $140 $141 $21 $-1 $142 reversed single #
loop $-1 $-1 $143 $56 #
plane-surface $-1 0 -26.909378828612649 0 0 1 0 0 0 1 forward_v I I I I #
coedge $-1 $144 $145 $146 $147 forward $57 $-1 #
coedge $-1 $148 $59 $149 $150 forward $36 $-1 #
coedge $-1 $59 $148 $151 $152 forward $36 $-1 #
coedge $-1 $153 $154 $59 $94 reversed $155 $-1 #
edge $-1 $156 -26.909378828612649 $157 26.909378828612649 $93 $158 forward 7 unknown #
face $-1 $159 $160 $22 $-1 $161 reversed single #
loop $-1 $-1 $162 $60 #
plane-surface $-1 -45.045319986571855 0 0 1 0 0 0 0 -1 forward_v I I I I #
coedge $-1 $163 $164 $165 $166 forward $61 $-1 #
coedge $-1 $165 $63 $162 $167 reversed $39 $-1 #
coedge $-1 $63 $165 $168 $169 reversed $39 $-1 #
coedge $-1 $170 $171 $63 $102 reversed $160 $-1 #
edge $-1 $172 -45.045319986571855 $173 45.045319986571855 $101 $174 forward 7 unknown #
face $-1 $175 $176 $23 $-1 $177 forward single #
loop $-1 $-1 $109 $64 #
plane-surface $-1 45.045319986571855 0 0 -1 0 0 0 0 1 forward_v I I I I #
coedge $-1 $178 $179 $180 $181 reversed $65 $-1 #
coedge $-1 $108 $67 $182 $183 reversed $42 $-1 #
coedge $-1 $67 $107 $178 $184 reversed $42 $-1 #
coedge $-1 $180 $185 $67 $110 forward $104 $-1 #
edge $-1 $186 56.189376688485666 $187 59.847427576153528 $109 $188 forward 7 unknown #
loop $-1 $-1 $116 $68 #
plane-surface $-1 -27.8395382942956 23.783422400971165 59.097903573210232 0.5877852598018023 0 0.80901698891910034 0.80901698891910034 0 -0.5877852598018023 forward_v I I I I #
loop $-1 $-1 $189 $44 #
coedge $-1 $114 $114 $115 $190 reversed $69 $-1 #
coedge $-1 $115 $115 $114 $190 forward $71 $-1 #
coedge $-1 $116 $116 $72 $117 forward $111 $-1 #
edge $-1 $191 0 $191 6.2831853071796004 $116 $192 forward 7 unknown #
face $-1 $193 $194 $25 $-1 $195 reversed single #
loop $-1 $-1 $124 $73 #
plane-surface $-1 0 0 9.8020042385531791 0 0 1 1 0 0 forward_v I I I I #
coedge $-1 $196 $197 $198 $199 reversed $74 $-1 #
coedge $-1 $123 $76 $200 $201 reversed $48 $-1 #
coedge $-1 $76 $122 $196 $202 reversed $48 $-1 #
coedge $-1 $198 $203 $76 $125 forward $119 $-1 #
edge $-1 $204 16.874864924842235 $205 20.880333451984967 $124 $206 forward 7 unknown #
loop $-1 $-1 $131 $77 #
plane-surface $-1 -45.045319986571869 22.277634358146042 2.5759474653220167 -0.87461971476443456 0 0.48480960649040278 0.48480960649040278 0 0.87461971476443456 forward_v I I I I #
loop $-1 $-1 $207 $50 #
coedge $-1 $129 $129 $130 $208 reversed $78 $-1 #
coedge $-1 $130 $130 $129 $208 forward $80 $-1 #
coedge $-1 $131 $131 $81 $132 forward $126 $-1 #
edge $-1 $209 0 $209 6.2831853071796004 $131 $210 forward 7 unknown #
loop $-1 $-1 $138 $82 #
plane-surface $-1 -45.045319986571869 22.277634358146042 2.5759474653220167 -0.87461971476443456 0 0.48480960649040278 0.48480960649040278 0 0.87461971476443456 forward_v I I I I #
loop $-1 $-1 $211 $53 #
coedge $-1 $136 $136 $137 $212 reversed $83 $-1 #
coedge $-1 $137 $137 $136 $212 forward $85 $-1 #
coedge $-1 $138 $138 $86 $139 forward $133 $-1 #
edge $-1 $213 0 $213 6.2831853071796004 $138 $214 forward 7 unknown #
face $-1 $215 $216 $21 $-1 $217 reversed single #
loop $-1 $-1 $218 $87 #
plane-surface $-1 -45.045319986571855 0 0 1 0 0 0 0 -1 forward_v I I I I #
coedge $-1 $219 $151 $220 $221 forward $88 $-1 #
coedge $-1 $222 $90 $219 $223 forward $57 $-1 #
coedge $-1 $90 $222 $224 $225 forward $57 $-1 #
coedge $-1 $154 $153 $90 $147 reversed $155 $-1 #
edge $-1 $226 -26.909378828612649 $227 26.909378828612649 $146 $228 forward 7 unknown #
coedge $-1 $92 $91 $229 $230 forward $36 $-1 #
coedge $-1 $231 $232 $91 $150 reversed $216 $-1 #
edge $-1 $157 -45.045319986571855 $233 45.045319986571855 $149 $234 forward 7 unknown #
coedge $-1 $143 $235 $92 $152 reversed $88 $-1 #
edge $-1 $236 -45.045319986571855 $156 45.045319986571855 $151 $237 forward 7 unknown #
coedge $-1 $146 $93 $235 $238 forward $155 $-1 #
coedge $-1 $93 $146 $231 $239 reversed $155 $-1 #
loop $-1 $-1 $153 $215 #
vertex $-1 $94 $240 #
vertex $-1 $94 $241 #
straight-curve $-1 45.045319986571855 0 9.8020042385531791 0 1 0 I I #
face $-1 $242 $243 $22 $-1 $244 reversed single #
loop $-1 $-1 $170 $95 #
plane-surface $-1 0 -31.391132651117111 6.8020042385531791 0 0 1 1 0 0 forward_v I I I I #
coedge $-1 $245 $246 $99 $167 forward $96 $-1 #
coedge $-1 $247 $98 $246 $248 forward $61 $-1 #
coedge $-1 $98 $247 $249 $250 forward $61 $-1 #
coedge $-1 $100 $99 $98 $166 reversed $39 $-1 #
edge $-1 $251 -45.045319986571855 $252 45.045319986571855 $98 $253 forward 7 unknown #
edge $-1 $252 -9.8020042385531791 $173 -6.8020042385531791 $162 $254 forward 7 unknown #
coedge $-1 $249 $255 $100 $169 forward $256 $-1 #
edge $-1 $172 6.8020042385531791 $251 9.8020042385531791 $168 $257 forward 7 unknown #
coedge $-1 $258 $101 $255 $259 forward $160 $-1 #
coedge $-1 $101 $258 $245 $260 forward $160 $-1 #
vertex $-1 $169 $261 #
vertex $-1 $167 $262 #
straight-curve $-1 0 -26.909378828612649 6.8020042385531791 -1 0 0 I I #
face $-1 $-1 $263 $23 $-1 $264 reversed single #
loop $-1 $-1 $182 $103 #
plane-surface $-1 0 0 9.8020042385531791 0 0 1 1 0 0 forward_v I I I I #
coedge $-1 $265 $106 $108 $184 forward $65 $-1 #
coedge $-1 $106 $265 $266 $267 reversed $65 $-1 #
coedge $-1 $268 $109 $106 $181 forward $104 $-1 #
edge $-1 $187 8.7657547728440992 $269 15.017667628127066 $180 $270 forward 7 unknown #
coedge $-1 $271 $272 $107 $183 forward $176 $-1 #
edge $-1 $273 27.453239014885533 $186 32.488114022557198 $182 $274 forward 7 unknown #
edge $-1 $187 -90.090639973143709 $273 -83.867192163477071 $108 $275 forward 7 unknown #
coedge $-1 $109 $268 $271 $276 reversed $104 $-1 #
vertex $-1 $276 $277 #
vertex $-1 $110 $278 #
straight-curve $-1 45.045319986571855 20.657465973329682 65.991380927038847 0 0 -1 I I #
coedge $-1 $189 $189 $-1 $279 reversed $113 $-1 #
edge $-1 $280 0 $280 6.2831853071796004 $114 $281 forward 7 unknown #
vertex $-1 $117 $282 #
ellipse-curve $-1 42.527882482736018 23.783422400971165 7.9729787947192641 0.5877852598018023 0 0.80901698891910034 0.80901698891910034 0 -0.5877852598018023 1 I I #
face $-1 $-1 $283 $25 $-1 $284 reversed single #
loop $-1 $-1 $285 $118 #
plane-surface $-1 0 26.909378828612649 0 0 -1 0 0 0 -1 forward_v I I I I #
coedge $-1 $286 $121 $123 $202 forward $74 $-1 #
coedge $-1 $121 $286 $285 $287 reversed $74 $-1 #
coedge $-1 $288 $124 $121 $199 forward $119 $-1 #
edge $-1 $205 6.5070727086064171 $289 15.770561649539625 $198 $290 forward 7 unknown #
coedge $-1 $291 $292 $122 $201 forward $283 $-1 #
edge $-1 $293 -20.550430124263144 $204 -13.324373351032007 $200 $294 forward 7 unknown #
edge $-1 $205 -8.2619413343288173 $293 -2.9417291209212814e-014 $123 $295 forward 7 unknown #
coedge $-1 $124 $288 $291 $296 forward $119 $-1 #
vertex $-1 $201 $297 #
vertex $-1 $125 $298 #
straight-curve $-1 -61.92018491141409 17.645889887679438 9.8020042385531774 1 0 0 I I #
coedge $-1 $207 $207 $-1 $299 reversed $128 $-1 #
edge $-1 $300 0 $300 6.2831853071796004 $129 $301 forward 7 unknown #
vertex $-1 $132 $302 #
ellipse-curve $-1 -43.042585723000492 20.292601013660356 6.1889758519376041 -0.87461971476443456 0 0.48480960649040278 0.48480960649040278 0 0.87461971476443456 1 I I #
coedge $-1 $211 $211 $-1 $303 reversed $135 $-1 #
edge $-1 $304 0 $304 6.2831853071796004 $136 $305 forward 7 unknown #
vertex $-1 $139 $306 #
ellipse-curve $-1 -43.042585723000492 24.262667702631735 6.1889758519376041 -0.87461971476443456 0 0.48480960649040278 0.48480960649040278 0 0.87461971476443456 1 I I #
face $-1 $-1 $155 $21 $-1 $307 reversed single #
loop $-1 $-1 $231 $140 #
plane-surface $-1 0 26.909378828612649 0 0 -1 0 0 0 -1 forward_v I I I I #
coedge $-1 $308 $229 $232 $309 forward $141 $-1 #
coedge $-1 $235 $143 $144 $223 reversed $88 $-1 #
coedge $-1 $229 $308 $143 $221 reversed $141 $-1 #
edge $-1 $236 -9.8020042385531791 $310 9.8020042385531791 $220 $311 forward 7 unknown #
coedge $-1 $145 $144 $308 $312 forward $57 $-1 #
edge $-1 $227 -45.045319986571855 $310 45.045319986571855 $219 $313 forward 7 unknown #
coedge $-1 $232 $231 $145 $225 reversed $216 $-1 #
edge $-1 $314 -45.045319986571855 $226 45.045319986571855 $224 $315 forward 7 unknown #
vertex $-1 $147 $316 #
vertex $-1 $238 $317 #
straight-curve $-1 45.045319986571855 0 -9.8020042385531791 0 -1 0 I I #
coedge $-1 $218 $220 $148 $230 reversed $141 $-1 #
edge $-1 $233 -26.909378828612649 $236 26.909378828612649 $229 $318 forward 7 unknown #
coedge $-1 $224 $149 $154 $239 forward $216 $-1 #
coedge $-1 $149 $224 $218 $309 reversed $216 $-1 #
vertex $-1 $150 $319 #
straight-curve $-1 0 26.909378828612649 9.8020042385531791 -1 0 0 I I #
coedge $-1 $151 $219 $153 $238 reversed $88 $-1 #
vertex $-1 $230 $320 #
straight-curve $-1 0 -26.909378828612649 9.8020042385531791 1 0 0 I I #
edge $-1 $156 -9.8020042385531791 $227 9.8020042385531791 $153 $321 forward 7 unknown #
edge $-1 $157 -9.8020042385531791 $226 9.8020042385531791 $154 $322 forward 7 unknown #
point $-1 45.045319986571855 -26.909378828612649 9.8020042385531791 #
point $-1 45.045319986571855 26.909378828612649 9.8020042385531791 #
face $-1 $-1 $256 $22 $-1 $323 reversed single #
loop $-1 $-1 $324 $159 #
plane-surface $-1 0 -35.872886473621577 8.3020042385531791 0 1 0 0 0 1 forward_v I I I I #
coedge $-1 $325 $162 $171 $260 reversed $96 $-1 #
coedge $-1 $162 $325 $163 $248 reversed $96 $-1 #
coedge $-1 $164 $163 $326 $327 forward $61 $-1 #
edge $-1 $252 26.909378828612649 $328 35.872886473621577 $246 $329 forward 7 unknown #
coedge $-1 $330 $168 $164 $250 reversed $256 $-1 #
edge $-1 $331 -35.872886473621577 $251 -26.909378828612649 $249 $332 forward 7 unknown #
vertex $-1 $169 $333 #
vertex $-1 $248 $334 #
straight-curve $-1 0 -26.909378828612649 9.8020042385531791 -1 0 0 I I #
straight-curve $-1 -45.045319986571855 -26.909378828612649 0 0 0 -1 I I #
coedge $-1 $168 $330 $170 $259 reversed $256 $-1 #
loop $-1 $-1 $168 $242 #
straight-curve $-1 45.045319986571855 -26.909378828612649 0 0 0 1 I I #
coedge $-1 $171 $170 $335 $336 forward $160 $-1 #
edge $-1 $172 -4.4817538225044622 $337 4.4817538225044657 $255 $338 forward 7 unknown #
edge $-1 $339 -4.4817538225044657 $173 4.4817538225044622 $245 $340 forward 7 unknown #
point $-1 45.045319986571855 -26.909378828612649 6.8020042385531791 #
point $-1 -45.045319986571855 -26.909378828612649 6.8020042385531791 #
loop $-1 $-1 $266 $175 #
plane-surface $-1 0 26.909378828612649 0 0 -1 0 0 0 -1 forward_v I I I I #
coedge $-1 $179 $178 $272 $341 reversed $65 $-1 #
coedge $-1 $342 $343 $179 $267 forward $263 $-1 #
edge $-1 $269 -61.460871948508576 $344 -55.237424138841945 $266 $345 forward 7 unknown #
coedge $-1 $185 $180 $343 $346 reversed $104 $-1 #
vertex $-1 $181 $347 #
straight-curve $-1 45.045319986571855 11.891711200485583 6.1439533508853259 0 1 0 I I #
coedge $-1 $348 $182 $185 $276 forward $176 $-1 #
coedge $-1 $182 $348 $265 $341 forward $176 $-1 #
vertex $-1 $183 $349 #
straight-curve $-1 12.557205964014656 20.657465973329682 9.8020042385531809 1 0 0 I I #
straight-curve $-1 -27.8395382942956 20.657465973329682 59.097903573210232 -0.80901698891910034 0 0.5877852598018023 I I #
edge $-1 $186 20.657465973329682 $350 26.909378828612649 $185 $351 forward 7 unknown #
point $-1 45.045319986571855 20.657465973329682 9.8020042385531791 #
point $-1 45.045319986571862 20.657465973329682 6.1439533508853188 #
edge $-1 $352 1 $352 0 $189 $-1 forward 7 unknown #
vertex $-1 $190 $353 #
ellipse-curve $-1 41.305080340186812 23.783422400971165 6.2899360662531656 0.5877852598018023 0 0.80901698891910034 0.80901698891910034 0 -0.5877852598018023 1 I I #
point $-1 43.336899471655109 23.783422400971165 7.3851935349174518 #
loop $-1 $-1 $200 $193 #
plane-surface $-1 -45.045319986571855 0 0 1 0 0 0 0 -1 forward_v I I I I #
coedge $-1 $354 $355 $197 $287 forward $194 $-1 #
coedge $-1 $197 $196 $292 $356 reversed $74 $-1 #
edge $-1 $289 1.5307733754492174 $357 9.7927147097780072 $285 $358 forward 7 unknown #
coedge $-1 $203 $198 $355 $359 forward $119 $-1 #
vertex $-1 $359 $360 #
straight-curve $-1 -41.039851459429123 11.138817179073021 9.8020042385531791 0 1 0 I I #
coedge $-1 $361 $200 $203 $296 reversed $283 $-1 #
coedge $-1 $200 $361 $286 $356 forward $283 $-1 #
vertex $-1 $201 $362 #
straight-curve $-1 -45.045319986571855 17.645889887679438 23.126377589585186 0 0 1 I I #
straight-curve $-1 -45.045319986571869 17.645889887679438 2.5759474653220167 -0.48480960649040278 0 -0.87461971476443456 I I #
edge $-1 $363 -26.909378828612649 $204 -17.645889887679438 $291 $364 forward 7 unknown #
point $-1 -45.045319986571855 17.645889887679438 9.8020042385531791 #
point $-1 -41.039851459429123 17.645889887679438 9.8020042385531791 #
edge $-1 $365 1 $365 0 $207 $-1 forward 7 unknown #
vertex $-1 $208 $366 #
ellipse-curve $-1 -41.698638988835334 20.292601013660356 5.4440140401515995 -0.87461971476443456 0 0.48480960649040278 0.48480960649040278 0 0.87461971476443456 1 I I #
point $-1 -42.557776116510077 20.292601013660356 7.0635955667020314 #
edge $-1 $367 1 $367 0 $211 $-1 forward 7 unknown #
vertex $-1 $212 $368 #
ellipse-curve $-1 -41.698638988835334 24.262667702631735 5.4440140401515995 -0.87461971476443456 0 0.48480960649040278 0.48480960649040278 0 0.87461971476443456 1 I I #
point $-1 -42.557776116510077 24.262667702631735 7.0635955667020314 #
plane-surface $-1 45.045319986571855 0 0 -1 0 0 0 0 1 forward_v I I I I #
coedge $-1 $220 $218 $222 $312 reversed $141 $-1 #
edge $-1 $233 -9.8020042385531791 $314 9.8020042385531791 $232 $369 forward 7 unknown #
vertex $-1 $312 $370 #
straight-curve $-1 -45.045319986571855 -26.909378828612649 0 0 0 -1 I I #
edge $-1 $310 -26.909378828612649 $314 26.909378828612649 $308 $371 forward 7 unknown #
straight-curve $-1 0 -26.909378828612649 -9.8020042385531791 -1 0 0 I I #
vertex $-1 $225 $372 #
straight-curve $-1 0 26.909378828612649 -9.8020042385531791 1 0 0 I I #
point $-1 45.045319986571855 26.909378828612649 -9.8020042385531791 #
point $-1 45.045319986571855 -26.909378828612649 -9.8020042385531791 #
straight-curve $-1 -45.045319986571855 0 9.8020042385531791 0 -1 0 I I #
point $-1 -45.045319986571855 26.909378828612649 9.8020042385531791 #
point $-1 -45.045319986571855 -26.909378828612649 9.8020042385531791 #
straight-curve $-1 45.045319986571855 -26.909378828612649 0 0 0 -1 I I #
straight-curve $-1 45.045319986571855 26.909378828612649 0 0 0 -1 I I #
plane-surface $-1 45.045319986571855 0 0 -1 0 0 0 0 1 forward_v I I I I #
coedge $-1 $335 $326 $325 $373 forward $243 $-1 #
coedge $-1 $246 $245 $324 $373 reversed $96 $-1 #
coedge $-1 $324 $374 $247 $327 reversed $243 $-1 #
edge $-1 $328 -45.045319986571855 $331 45.045319986571855 $326 $375 forward 7 unknown #
vertex $-1 $248 $376 #
straight-curve $-1 -45.045319986571855 0 9.8020042385531791 0 -1 0 I I #
coedge $-1 $255 $249 $374 $377 forward $256 $-1 #
vertex $-1 $250 $378 #
straight-curve $-1 45.045319986571855 0 9.8020042385531791 0 1 0 I I #
point $-1 45.045319986571855 -26.909378828612649 9.8020042385531791 #
point $-1 -45.045319986571855 -26.909378828612649 9.8020042385531791 #
coedge $-1 $374 $324 $258 $336 reversed $243 $-1 #
edge $-1 $337 -45.045319986571855 $339 45.045319986571855 $335 $379 forward 7 unknown #
vertex $-1 $377 $380 #
straight-curve $-1 45.045319986571855 -31.391132651117111 6.8020042385531791 0 -1 0 I I #
vertex $-1 $260 $381 #
straight-curve $-1 -45.045319986571855 -31.391132651117111 6.8020042385531791 0 1 0 I I #
edge $-1 $344 -15.017667628127066 $273 -8.7657547728440992 $272 $382 forward 7 unknown #
coedge $-1 $343 $266 $348 $383 reversed $263 $-1 #
coedge $-1 $266 $342 $268 $346 forward $263 $-1 #
vertex $-1 $267 $384 #
straight-curve $-1 -4.6775695735529528 26.909378828612649 42.269747936784739 -0.80901698891910034 0 0.5877852598018023 I I #
edge $-1 $350 -9.8020042385531791 $269 -6.1439533508853188 $268 $385 forward 7 unknown #
point $-1 45.045319986571855 26.909378828612649 6.1439533508853188 #
coedge $-1 $272 $271 $342 $383 forward $176 $-1 #
point $-1 40.010444978900189 20.657465973329682 9.8020042385531809 #
vertex $-1 $276 $386 #
straight-curve $-1 45.045319986571855 0 9.8020042385531791 0 1 0 I I #
vertex $-1 $279 $387 #
point $-1 42.11409732910591 23.783422400971165 5.7021508064513631 #
coedge $-1 $355 $285 $361 $388 reversed $194 $-1 #
coedge $-1 $285 $354 $288 $359 reversed $194 $-1 #
edge $-1 $357 -15.770561649539625 $293 -6.5070727086064171 $292 $389 forward 7 unknown #
vertex $-1 $287 $390 #
straight-curve $-1 -40.297717821651602 26.909378828612649 11.140848811557564 -0.48480960649040278 0 -0.87461971476443456 I I #
edge $-1 $289 41.039851459429123 $363 45.045319986571855 $355 $391 forward 7 unknown #
point $-1 -41.039851459429123 26.909378828612645 9.8020042385531791 #
coedge $-1 $292 $291 $354 $388 forward $283 $-1 #
point $-1 -45.045319986571855 17.645889887679438 2.5759474653220424 #
vertex $-1 $359 $392 #
straight-curve $-1 -45.045319986571855 0 9.8020042385531791 0 -1 0 I I #
vertex $-1 $299 $393 #
point $-1 -41.213829382344933 20.292601013660356 6.3186337549160339 #
vertex $-1 $303 $394 #
point $-1 -41.213829382344933 24.262667702631735 6.3186337549160339 #
straight-curve $-1 -45.045319986571855 26.909378828612649 0 0 0 -1 I I #
point $-1 -45.045319986571855 -26.909378828612649 -9.8020042385531791 #
straight-curve $-1 -45.045319986571855 0 -9.8020042385531791 0 1 0 I I #
point $-1 -45.045319986571855 26.909378828612649 -9.8020042385531791 #
edge $-1 $328 -1.5 $339 1.5 $325 $395 forward 7 unknown #
coedge $-1 $326 $335 $330 $377 reversed $243 $-1 #
straight-curve $-1 0 -35.872886473621577 9.8020042385531791 1 0 0 I I #
point $-1 -45.045319986571855 -35.872886473621577 9.8020042385531791 #
edge $-1 $331 -1.5 $337 1.5 $330 $396 forward 7 unknown #
point $-1 45.045319986571855 -35.872886473621577 9.8020042385531791 #
straight-curve $-1 0 -35.872886473621577 6.8020042385531791 -1 0 0 I I #
point $-1 45.045319986571855 -35.872886473621577 6.8020042385531791 #
point $-1 -45.045319986571855 -35.872886473621577 6.8020042385531791 #
straight-curve $-1 40.010444978900196 11.891711200485583 9.8020042385531738 0 -1 0 I I #
edge $-1 $350 -45.045319986571855 $344 -40.010444978900189 $342 $397 forward 7 unknown #
point $-1 40.010444978900189 26.909378828612649 9.8020042385531809 #
straight-curve $-1 45.045319986571855 26.909378828612649 0 0 0 -1 I I #
point $-1 45.045319986571855 26.909378828612649 9.8020042385531791 #
point $-1 40.717295080385007 23.783422400971165 5.4809190773340646 #
edge $-1 $363 -9.8020042385531791 $357 -2.5759474653220424 $354 $398 forward 7 unknown #
straight-curve $-1 -45.045319986571855 11.138817179073021 2.5759474653220469 0 -1 0 I I #
point $-1 -45.045319986571855 26.909378828612645 2.5759474653220424 #
straight-curve $-1 0 26.909378828612649 9.8020042385531791 -1 0 0 I I #
point $-1 -45.045319986571855 26.909378828612649 9.8020042385531791 #
point $-1 -40.824019274070899 20.292601013660356 4.9592044336611965 #
point $-1 -40.824019274070899 24.262667702631735 4.9592044336611965 #
straight-curve $-1 -45.045319986571855 -35.872886473621577 8.3020042385531791 0 0 -1 I I #
straight-curve $-1 45.045319986571855 -35.872886473621577 8.3020042385531791 0 0 -1 I I #
straight-curve $-1 0 26.909378828612649 9.8020042385531791 -1 0 0 I I #
straight-curve $-1 -45.045319986571855 26.909378828612649 0 0 0 -1 I I #
End-of-ACIS-data 