500 0 12 0           
7 Unknown 11 ACIS 5.0 NT 24 Thu Mar 25 23:31:10 1999 
-1 9.9999999999999995e-007 1e-010 
body $-1 $12 $-1 $13 #
body $-1 $14 $-1 $15 #
body $-1 $16 $-1 $17 #
body $-1 $18 $-1 $19 #
body $-1 $20 $-1 $21 #
body $-1 $22 $-1 $23 #
body $-1 $24 $-1 $25 #
body $-1 $26 $-1 $27 #
body $-1 $28 $-1 $29 #
body $-1 $30 $-1 $31 #
body $-1 $32 $-1 $33 #
body $-1 $34 $-1 $35 #
lump $-1 $-1 $36 $0 #
transform $-1 1 0 0 0 1 0 0 0 1 62.19306009094516 36.844552848274731 9.5389689375826006 1 rotate no_reflect no_shear #
lump $-1 $-1 $37 $1 #
transform $-1 1 0 0 0 1 0 0 0 1 62.19306009094516 36.844552848274731 9.5389689375826006 1 rotate no_reflect no_shear #
lump $-1 $-1 $38 $2 #
transform $-1 1 0 0 0 1 0 0 0 1 62.19306009094516 36.844552848274731 9.5389689375826006 1 rotate no_reflect no_shear #
lump $-1 $-1 $39 $3 #
transform $-1 1 0 0 0 1 0 0 0 1 62.19306009094516 36.844552848274731 9.5389689375826006 1 rotate no_reflect no_shear #
lump $-1 $-1 $40 $4 #
transform $-1 1 0 0 0 1 0 0 0 1 62.19306009094516 36.844552848274731 9.5389689375826006 1 rotate no_reflect no_shear #
lump $-1 $-1 $41 $5 #
transform $-1 1 0 0 0 1 0 0 0 1 62.19306009094516 36.844552848274731 9.5389689375826006 1 rotate no_reflect no_shear #
lump $-1 $-1 $42 $6 #
transform $-1 1 0 0 0 1 0 0 0 1 62.19306009094516 36.844552848274731 9.5389689375826006 1 rotate no_reflect no_shear #
lump $-1 $-1 $43 $7 #
transform $-1 1 0 0 0 1 0 0 0 1 62.19306009094516 36.844552848274731 9.5389689375826006 1 rotate no_reflect no_shear #
lump $-1 $-1 $44 $8 #
transform $-1 1 0 0 0 1 0 0 0 1 62.19306009094516 36.844552848274731 9.5389689375826006 1 rotate no_reflect no_shear #
lump $-1 $-1 $45 $9 #
transform $-1 1 0 0 0 1 0 0 0 1 62.19306009094516 36.844552848274731 9.5389689375826006 1 rotate no_reflect no_shear #
lump $-1 $-1 $46 $10 #
transform $-1 1 0 0 0 1 0 0 0 1 62.19306009094516 36.844552848274731 9.5389689375826006 1 rotate no_reflect no_shear #
lump $-1 $-1 $47 $11 #
transform $-1 1 0 0 0 1 0 0 0 1 62.19306009094516 36.844552848274731 9.5389689375826006 1 rotate no_reflect no_shear #
shell $-1 $-1 $-1 $48 $-1 $12 #
shell $-1 $-1 $-1 $49 $-1 $14 #
shell $-1 $-1 $-1 $50 $-1 $16 #
shell $-1 $-1 $-1 $51 $-1 $18 #
shell $-1 $-1 $-1 $52 $-1 $20 #
shell $-1 $-1 $-1 $53 $-1 $22 #
shell $-1 $-1 $-1 $54 $-1 $24 #
shell $-1 $-1 $-1 $55 $-1 $26 #
shell $-1 $-1 $-1 $56 $-1 $28 #
shell $-1 $-1 $-1 $57 $-1 $30 #
shell $-1 $-1 $-1 $58 $-1 $32 #
shell $-1 $-1 $-1 $59 $-1 $34 #
face $-1 $60 $61 $36 $-1 $62 forward single #
face $-1 $63 $64 $37 $-1 $65 forward single #
face $-1 $66 $67 $38 $-1 $68 reversed single #
face $-1 $69 $70 $39 $-1 $71 reversed single #
face $-1 $72 $73 $40 $-1 $74 forward single #
face $-1 $75 $76 $41 $-1 $77 forward single #
face $-1 $78 $79 $42 $-1 $80 reversed single #
face $-1 $81 $82 $43 $-1 $83 forward single #
face $-1 $84 $85 $44 $-1 $86 forward single #
face $-1 $87 $88 $45 $-1 $89 reversed single #
face $-1 $90 $91 $46 $-1 $92 forward single #
face $-1 $93 $94 $47 $-1 $95 forward single #
face $-1 $96 $97 $36 $-1 $98 reversed single #
loop $-1 $-1 $99 $48 #
plane-surface $-1 0 0 9.5389689375826006 0 0 1 1 0 0 forward_v I I I I #
face $-1 $100 $101 $37 $-1 $102 reversed single #
loop $-1 $-1 $103 $49 #
plane-surface $-1 0 -36.844552848274731 0 0 1 0 0 0 1 forward_v I I I I #
face $-1 $104 $105 $38 $-1 $106 reversed single #
loop $-1 $-1 $107 $50 #
plane-surface $-1 -45.660432877290525 29.319163108302313 0 0 1 0 0 0 1 forward_v I I I I #
face $-1 $108 $109 $39 $-1 $110 reversed single #
loop $-1 $-1 $111 $51 #
plane-surface $-1 -129.93859744367506 -24.757104022725294 106.77475774003504 0 1 0 -0.54463904215088732 0 0.83867056331134215 forward_v I I I I #
face $-1 $112 $113 $40 $-1 $114 forward single #
loop $-1 $115 $116 $52 #
cone-surface $-1 -56.187322850018781 -22.02662801884108 5.1471223085393589 0.54463904215088732 0 -0.83867056331134215 0.83867056331134215 0 0.54463904215088732 1 I I 0 1 1 forward I I I I #
face $-1 $117 $118 $41 $-1 $119 forward single #
loop $-1 $120 $121 $53 #
cone-surface $-1 -56.187322850018781 -17.930914013014764 5.1471223085393589 0.54463904215088732 0 -0.83867056331134215 0.83867056331134215 0 0.54463904215088732 1 I I 0 1 1 forward I I I I #
face $-1 $122 $123 $42 $-1 $124 reversed single #
loop $-1 $-1 $125 $54 #
plane-surface $-1 22.622250384189691 -8.7293112966193949 171.85800327132156 0 -1 0 -0.52991927123019833 0 -0.84804809178421925 forward_v I I I I #
face $-1 $126 $127 $43 $-1 $128 forward single #
loop $-1 $129 $130 $55 #
cone-surface $-1 54.295635776228906 -16.34749425112836 3.9884731490494802 -0.52991927123019833 0 -0.84804809178421925 1.2720721376763289 0 -0.79487890684529749 1 I I 0 1 1.5 forward I I I I #
face $-1 $131 $132 $44 $-1 $133 forward single #
loop $-1 $134 $135 $56 #
cone-surface $-1 54.295635776228906 -11.776584478422983 3.9884731490494802 -0.52991927123019833 0 -0.84804809178421925 1.2720721376763289 0 -0.79487890684529749 1 I I 0 1 1.5 forward I I I I #
face $-1 $136 $137 $45 $-1 $138 reversed single #
loop $-1 $-1 $139 $57 #
plane-surface $-1 22.622250384189691 20.91225597803912 171.85800327132156 0 -1 0 -0.52991927123019833 0 -0.84804809178421925 forward_v I I I I #
face $-1 $140 $141 $46 $-1 $142 forward single #
loop $-1 $143 $144 $58 #
cone-surface $-1 54.295635776228906 13.294073023530153 3.9884731490494802 -0.52991927123019833 0 -0.84804809178421925 1.2720721376763289 0 -0.79487890684529749 1 I I 0 1 1.5 forward I I I I #
face $-1 $145 $146 $47 $-1 $147 forward single #
loop $-1 $148 $149 $59 #
cone-surface $-1 54.295635776228906 17.86498279623553 3.9884731490494802 -0.52991927123019833 0 -0.84804809178421925 1.2720721376763289 0 -0.79487890684529749 1 I I 0 1 1.5 forward I I I I #
face $-1 $150 $151 $36 $-1 $152 reversed single #
loop $-1 $-1 $153 $60 #
plane-surface $-1 0 0 -9.5389689375826006 0 0 1 1 0 0 forward_v I I I I #
coedge $-1 $154 $155 $156 $157 forward $61 $-1 #
face $-1 $158 $159 $37 $-1 $160 forward single #
loop $-1 $-1 $161 $63 #
plane-surface $-1 -62.19306009094516 0 0 1 0 0 0 0 -1 forward_v I I I I #
coedge $-1 $162 $163 $164 $165 forward $64 $-1 #
face $-1 $166 $167 $38 $-1 $168 reversed single #
loop $-1 $-1 $169 $66 #
plane-surface $-1 -47.415129226400275 33.081857978288525 0 1 0 0 0 0 -1 forward_v I I I I #
coedge $-1 $170 $171 $172 $173 forward $67 $-1 #
face $-1 $174 $175 $39 $-1 $176 reversed single #
loop $-1 $-1 $177 $69 #
plane-surface $-1 -62.193060090945167 -19.978771015927926 2.4557802589767874 -0.54463904215088732 0 0.83867056331134215 0.83867056331134215 0 0.54463904215088732 forward_v I I I I #
coedge $-1 $178 $179 $180 $181 reversed $70 $-1 #
face $-1 $-1 $182 $40 $-1 $183 forward single #
loop $-1 $184 $185 $72 #
cone-surface $-1 -55.362843025567031 -22.02662801884108 3.8775347371433657 0.54463904215088732 0 -0.83867056331134215 0.41933528165567108 0 0.27231952107544366 1 I I -0.70710678118654746 0.70710678118654746 0.5 forward I I I I #
loop $-1 $-1 $186 $52 #
coedge $-1 $116 $116 $187 $188 reversed $73 $-1 #
face $-1 $-1 $189 $41 $-1 $190 forward single #
loop $-1 $191 $192 $75 #
cone-surface $-1 -55.362843025567031 -17.930914013014764 3.8775347371433657 0.54463904215088732 0 -0.83867056331134215 0.41933528165567108 0 0.27231952107544366 1 I I -0.70710678118654746 0.70710678118654746 0.5 forward I I I I #
loop $-1 $-1 $193 $53 #
coedge $-1 $121 $121 $194 $195 reversed $76 $-1 #
face $-1 $196 $197 $42 $-1 $198 reversed single #
loop $-1 $-1 $199 $78 #
plane-surface $-1 -43.292351773749481 -14.062039364775671 66.372591406626924 0.52991927123019833 0 0.84804809178421925 0.84804809178421925 0 -0.52991927123019833 forward_v I I I I #
coedge $-1 $200 $201 $202 $203 reversed $79 $-1 #
face $-1 $-1 $204 $43 $-1 $205 forward single #
loop $-1 $206 $207 $81 #
cone-surface $-1 53.26707455151378 -16.34749425112836 2.3424311361256134 -0.52991927123019833 0 -0.84804809178421925 0.63603606883816444 0 -0.39743945342264875 1 I I -0.70710678118654757 0.70710678118654757 0.75 forward I I I I #
loop $-1 $-1 $208 $55 #
coedge $-1 $130 $130 $209 $210 reversed $82 $-1 #
face $-1 $-1 $211 $44 $-1 $212 forward single #
loop $-1 $213 $214 $84 #
cone-surface $-1 53.26707455151378 -11.776584478422983 2.3424311361256134 -0.52991927123019833 0 -0.84804809178421925 0.63603606883816444 0 -0.39743945342264875 1 I I -0.70710678118654757 0.70710678118654757 0.75 forward I I I I #
loop $-1 $-1 $215 $56 #
coedge $-1 $135 $135 $216 $217 reversed $85 $-1 #
face $-1 $218 $219 $45 $-1 $220 reversed single #
loop $-1 $-1 $221 $87 #
plane-surface $-1 -43.292351773749481 15.579527909882842 66.372591406626924 0.52991927123019833 0 0.84804809178421925 0.84804809178421925 0 -0.52991927123019833 forward_v I I I I #
coedge $-1 $222 $223 $224 $225 reversed $88 $-1 #
face $-1 $-1 $226 $46 $-1 $227 forward single #
loop $-1 $228 $229 $90 #
cone-surface $-1 53.26707455151378 13.294073023530153 2.3424311361256134 -0.52991927123019833 0 -0.84804809178421925 0.63603606883816444 0 -0.39743945342264875 1 I I -0.70710678118654757 0.70710678118654757 0.75 forward I I I I #
loop $-1 $-1 $230 $58 #
coedge $-1 $144 $144 $231 $232 reversed $91 $-1 #
face $-1 $-1 $233 $47 $-1 $234 forward single #
loop $-1 $235 $236 $93 #
cone-surface $-1 53.26707455151378 17.86498279623553 2.3424311361256134 -0.52991927123019833 0 -0.84804809178421925 0.63603606883816444 0 -0.39743945342264875 1 I I -0.70710678118654757 0.70710678118654757 0.75 forward I I I I #
loop $-1 $-1 $237 $59 #
coedge $-1 $149 $149 $238 $239 reversed $94 $-1 #
face $-1 $240 $241 $36 $-1 $242 reversed single #
loop $-1 $-1 $243 $96 #
plane-surface $-1 0 -36.844552848274731 0 0 1 0 0 0 1 forward_v I I I I #
coedge $-1 $244 $245 $246 $247 forward $97 $-1 #
coedge $-1 $248 $99 $249 $250 forward $61 $-1 #
coedge $-1 $99 $248 $251 $252 forward $61 $-1 #
coedge $-1 $253 $254 $99 $157 reversed $255 $-1 #
edge $-1 $256 -36.844552848274731 $257 36.844552848274731 $156 $258 forward 7 unknown #
face $-1 $259 $260 $37 $-1 $261 reversed single #
loop $-1 $-1 $262 $100 #
plane-surface $-1 0 -40.284843551904736 -1.8012465069498726 0 0 1 1 0 0 forward_v I I I I #
coedge $-1 $263 $264 $163 $265 forward $101 $-1 #
coedge $-1 $266 $103 $267 $268 reversed $64 $-1 #
coedge $-1 $103 $266 $161 $265 reversed $64 $-1 #
coedge $-1 $269 $262 $103 $165 reversed $159 $-1 #
edge $-1 $270 -62.19306009094516 $271 62.19306009094516 $164 $272 forward 7 unknown #
face $-1 $273 $274 $38 $-1 $275 forward single #
loop $-1 $-1 $276 $104 #
plane-surface $-1 -43.905736528180775 33.081857978288525 0 -1 0 0 0 0 1 forward_v I I I I #
coedge $-1 $277 $278 $279 $280 reversed $105 $-1 #
coedge $-1 $281 $107 $282 $283 reversed $67 $-1 #
coedge $-1 $107 $281 $284 $285 reversed $67 $-1 #
coedge $-1 $278 $277 $107 $173 reversed $105 $-1 #
edge $-1 $286 -9.5389689375826006 $287 9.5389689375826006 $172 $288 forward 7 unknown #
face $-1 $289 $290 $39 $-1 $291 forward single #
loop $-1 $-1 $292 $108 #
plane-surface $-1 -129.93859744367506 -15.200438009130556 106.77475774003504 0 -1 0 0.54463904215088732 0 -0.83867056331134215 forward_v I I I I #
coedge $-1 $293 $294 $295 $296 reversed $109 $-1 #
coedge $-1 $179 $111 $297 $298 reversed $70 $-1 #
coedge $-1 $111 $178 $293 $299 reversed $70 $-1 #
coedge $-1 $295 $300 $111 $181 forward $290 $-1 #
edge $-1 $301 2.7762386308923723 $302 13.683392505992465 $180 $303 forward 7 unknown #
loop $-1 $-1 $187 $112 #
plane-surface $-1 -62.193060090945167 -19.978771015927926 2.4557802589767874 -0.54463904215088732 0 0.83867056331134215 0.83867056331134215 0 0.54463904215088732 forward_v I I I I #
loop $-1 $-1 $304 $72 #
coedge $-1 $185 $185 $186 $305 reversed $113 $-1 #
coedge $-1 $186 $186 $185 $305 forward $115 $-1 #
coedge $-1 $187 $187 $116 $188 forward $182 $-1 #
edge $-1 $306 0 $306 6.2831853071796004 $187 $307 forward 7 unknown #
loop $-1 $-1 $194 $117 #
plane-surface $-1 -62.193060090945167 -19.978771015927926 2.4557802589767874 -0.54463904215088732 0 0.83867056331134215 0.83867056331134215 0 0.54463904215088732 forward_v I I I I #
loop $-1 $-1 $308 $75 #
coedge $-1 $192 $192 $193 $309 reversed $118 $-1 #
coedge $-1 $193 $193 $192 $309 forward $120 $-1 #
coedge $-1 $194 $194 $121 $195 forward $189 $-1 #
edge $-1 $310 0 $310 6.2831853071796004 $194 $311 forward 7 unknown #
face $-1 $312 $313 $42 $-1 $314 reversed single #
loop $-1 $-1 $315 $122 #
plane-surface $-1 22.622250384189691 -19.39476743293195 171.85800327132156 0 1 0 0.52991927123019833 0 0.84804809178421925 forward_v I I I I #
coedge $-1 $316 $317 $318 $319 reversed $123 $-1 #
coedge $-1 $201 $125 $320 $321 reversed $79 $-1 #
coedge $-1 $125 $200 $316 $322 reversed $79 $-1 #
coedge $-1 $318 $323 $125 $203 forward $324 $-1 #
edge $-1 $325 -50.881934898850318 $326 -36.34932981200275 $202 $327 forward 7 unknown #
loop $-1 $-1 $209 $126 #
plane-surface $-1 -43.292351773749481 -14.062039364775671 66.372591406626924 0.52991927123019833 0 0.84804809178421925 0.84804809178421925 0 -0.52991927123019833 forward_v I I I I #
loop $-1 $-1 $328 $81 #
coedge $-1 $207 $207 $208 $329 reversed $127 $-1 #
coedge $-1 $208 $208 $207 $329 forward $129 $-1 #
coedge $-1 $209 $209 $130 $210 forward $204 $-1 #
edge $-1 $330 0 $330 6.2831853071796004 $209 $331 forward 7 unknown #
loop $-1 $-1 $216 $131 #
plane-surface $-1 -43.292351773749481 -14.062039364775671 66.372591406626924 0.52991927123019833 0 0.84804809178421925 0.84804809178421925 0 -0.52991927123019833 forward_v I I I I #
loop $-1 $-1 $332 $84 #
coedge $-1 $214 $214 $215 $333 reversed $132 $-1 #
coedge $-1 $215 $215 $214 $333 forward $134 $-1 #
coedge $-1 $216 $216 $135 $217 forward $211 $-1 #
edge $-1 $334 0 $334 6.2831853071796004 $216 $335 forward 7 unknown #
face $-1 $336 $337 $45 $-1 $338 reversed single #
loop $-1 $-1 $339 $136 #
plane-surface $-1 22.622250384189691 10.246799841726565 171.85800327132156 0 1 0 0.52991927123019833 0 0.84804809178421925 forward_v I I I I #
coedge $-1 $340 $341 $342 $343 reversed $137 $-1 #
coedge $-1 $223 $139 $344 $345 reversed $88 $-1 #
coedge $-1 $139 $222 $340 $346 reversed $88 $-1 #
coedge $-1 $342 $347 $139 $225 forward $348 $-1 #
edge $-1 $349 -50.881934898850318 $350 -36.34932981200275 $224 $351 forward 7 unknown #
loop $-1 $-1 $231 $140 #
plane-surface $-1 -43.292351773749481 15.579527909882842 66.372591406626924 0.52991927123019833 0 0.84804809178421925 0.84804809178421925 0 -0.52991927123019833 forward_v I I I I #
loop $-1 $-1 $352 $90 #
coedge $-1 $229 $229 $230 $353 reversed $141 $-1 #
coedge $-1 $230 $230 $229 $353 forward $143 $-1 #
coedge $-1 $231 $231 $144 $232 forward $226 $-1 #
edge $-1 $354 0 $354 6.2831853071796004 $231 $355 forward 7 unknown #
loop $-1 $-1 $238 $145 #
plane-surface $-1 -43.292351773749481 15.579527909882842 66.372591406626924 0.52991927123019833 0 0.84804809178421925 0.84804809178421925 0 -0.52991927123019833 forward_v I I I I #
loop $-1 $-1 $356 $93 #
coedge $-1 $236 $236 $237 $357 reversed $146 $-1 #
coedge $-1 $237 $237 $236 $357 forward $148 $-1 #
coedge $-1 $238 $238 $149 $239 forward $233 $-1 #
edge $-1 $358 0 $358 6.2831853071796004 $238 $359 forward 7 unknown #
face $-1 $360 $361 $36 $-1 $362 reversed single #
loop $-1 $-1 $363 $150 #
plane-surface $-1 -62.19306009094516 0 0 1 0 0 0 0 -1 forward_v I I I I #
coedge $-1 $364 $251 $365 $366 forward $151 $-1 #
coedge $-1 $367 $153 $364 $368 forward $97 $-1 #
coedge $-1 $153 $367 $369 $370 forward $97 $-1 #
coedge $-1 $254 $253 $153 $247 reversed $255 $-1 #
edge $-1 $371 -36.844552848274731 $372 36.844552848274731 $246 $373 forward 7 unknown #
coedge $-1 $155 $154 $374 $375 forward $61 $-1 #
coedge $-1 $376 $377 $154 $250 reversed $361 $-1 #
edge $-1 $257 -62.19306009094516 $378 62.19306009094516 $249 $379 forward 7 unknown #
coedge $-1 $243 $380 $155 $252 reversed $151 $-1 #
edge $-1 $381 -62.19306009094516 $256 62.19306009094516 $251 $382 forward 7 unknown #
coedge $-1 $246 $156 $380 $383 forward $255 $-1 #
coedge $-1 $156 $246 $376 $384 reversed $255 $-1 #
loop $-1 $-1 $253 $360 #
vertex $-1 $157 $385 #
vertex $-1 $157 $386 #
straight-curve $-1 62.19306009094516 0 9.5389689375826006 0 1 0 I I #
face $-1 $387 $388 $37 $-1 $389 reversed single #
loop $-1 $-1 $390 $158 #
plane-surface $-1 0 -40.284843551904736 -6.1972593961023676 0 0 1 1 0 0 forward_v I I I I #
coedge $-1 $164 $391 $392 $393 forward $159 $-1 #
coedge $-1 $394 $161 $395 $396 reversed $101 $-1 #
coedge $-1 $161 $394 $269 $397 reversed $101 $-1 #
edge $-1 $270 1.8012465069498726 $398 6.1972593961023676 $161 $399 forward 7 unknown #
coedge $-1 $163 $162 $400 $401 forward $64 $-1 #
coedge $-1 $392 $402 $162 $268 forward $403 $-1 #
edge $-1 $404 -6.1972593961023676 $271 -1.8012465069498726 $267 $405 forward 7 unknown #
coedge $-1 $391 $164 $264 $397 forward $159 $-1 #
vertex $-1 $265 $406 #
vertex $-1 $393 $407 #
straight-curve $-1 0 -36.844552848274731 -1.8012465069498726 1 0 0 I I #
face $-1 $408 $409 $38 $-1 $410 reversed single #
loop $-1 $-1 $411 $166 #
plane-surface $-1 0 0 9.5389689375826006 0 0 1 1 0 0 forward_v I I I I #
coedge $-1 $412 $413 $281 $414 forward $167 $-1 #
coedge $-1 $172 $169 $415 $416 reversed $105 $-1 #
coedge $-1 $169 $172 $411 $417 reversed $105 $-1 #
coedge $-1 $418 $419 $169 $280 forward $420 $-1 #
edge $-1 $421 -9.5389689375826006 $422 9.5389689375826006 $279 $423 forward 7 unknown #
coedge $-1 $171 $170 $276 $414 reversed $67 $-1 #
coedge $-1 $415 $424 $170 $283 forward $409 $-1 #
edge $-1 $425 21.075520089535512 $287 24.584912787755012 $282 $426 forward 7 unknown #
coedge $-1 $427 $411 $171 $285 forward $274 $-1 #
edge $-1 $286 -24.584912787755012 $428 -21.075520089535512 $284 $429 forward 7 unknown #
vertex $-1 $285 $430 #
vertex $-1 $283 $431 #
straight-curve $-1 -47.415129226400275 29.319163108302313 0 0 0 -1 I I #
face $-1 $-1 $432 $39 $-1 $433 reversed single #
loop $-1 $-1 $180 $174 #
plane-surface $-1 0 0 9.5389689375826006 0 0 1 1 0 0 forward_v I I I I #
coedge $-1 $434 $435 $436 $437 reversed $175 $-1 #
coedge $-1 $438 $177 $179 $299 forward $109 $-1 #
coedge $-1 $177 $438 $434 $439 forward $109 $-1 #
coedge $-1 $436 $180 $177 $296 forward $290 $-1 #
edge $-1 $302 -14.767718514761331 $440 -5.2110525011665931 $295 $441 forward 7 unknown #
coedge $-1 $442 $443 $178 $298 forward $432 $-1 #
edge $-1 $444 -50.931598611040727 $301 -43.848409932434919 $297 $445 forward 7 unknown #
edge $-1 $302 -13.005289981843568 $444 -8.3777959833898778e-015 $179 $446 forward 7 unknown #
coedge $-1 $180 $436 $442 $447 forward $290 $-1 #
vertex $-1 $298 $448 #
vertex $-1 $181 $449 #
straight-curve $-1 -64.969298721837532 -24.757104022725294 9.5389689375826023 1 0 0 I I #
coedge $-1 $304 $304 $-1 $450 reversed $184 $-1 #
edge $-1 $451 0 $451 6.2831853071796004 $185 $452 forward 7 unknown #
vertex $-1 $188 $453 #
ellipse-curve $-1 -56.739483153395099 -22.02662801884108 5.9973745982797038 -0.54463904215088732 0 0.83867056331134215 0.83867056331134215 0 0.54463904215088732 1 I I #
coedge $-1 $308 $308 $-1 $454 reversed $191 $-1 #
edge $-1 $455 0 $455 6.2831853071796004 $192 $456 forward 7 unknown #
vertex $-1 $195 $457 #
ellipse-curve $-1 -56.739483153395099 -17.930914013014764 5.9973745982797038 -0.54463904215088732 0 0.83867056331134215 0.83867056331134215 0 0.54463904215088732 1 I I #
face $-1 $-1 $324 $42 $-1 $458 forward single #
loop $-1 $-1 $459 $196 #
plane-surface $-1 62.19306009094516 0 0 -1 0 0 0 0 1 forward_v I I I I #
coedge $-1 $460 $461 $462 $463 reversed $197 $-1 #
coedge $-1 $464 $199 $201 $322 forward $123 $-1 #
coedge $-1 $199 $464 $460 $465 forward $123 $-1 #
coedge $-1 $462 $202 $199 $319 forward $324 $-1 #
edge $-1 $326 1.6982916142315592 $466 12.363747750544114 $318 $467 forward 7 unknown #
coedge $-1 $468 $469 $200 $321 forward $313 $-1 #
edge $-1 $470 -85.47101238697303 $325 -76.390032698078187 $320 $471 forward 7 unknown #
edge $-1 $326 107.2495860305402 $470 124.38612018189031 $201 $472 forward 7 unknown #
coedge $-1 $202 $462 $468 $473 forward $324 $-1 #
loop $-1 $-1 $462 $312 #
vertex $-1 $321 $474 #
vertex $-1 $203 $475 #
straight-curve $-1 11.311125192094845 -8.7293112966193949 9.5389689375825952 -1 0 0 I I #
coedge $-1 $328 $328 $-1 $476 reversed $206 $-1 #
edge $-1 $477 0 $477 6.2831853071796004 $207 $478 forward 7 unknown #
vertex $-1 $210 $479 #
ellipse-curve $-1 54.926757547521376 -16.34749425112836 4.9984790931351721 0.52991927123019833 0 0.84804809178421925 1.2720721376763289 0 -0.79487890684529749 1 I I #
coedge $-1 $332 $332 $-1 $480 reversed $213 $-1 #
edge $-1 $481 0 $481 6.2831853071796004 $214 $482 forward 7 unknown #
vertex $-1 $217 $483 #
ellipse-curve $-1 54.926757547521376 -11.776584478422983 4.9984790931351721 0.52991927123019833 0 0.84804809178421925 1.2720721376763289 0 -0.79487890684529749 1 I I #
face $-1 $-1 $348 $45 $-1 $484 forward single #
loop $-1 $-1 $485 $218 #
plane-surface $-1 62.19306009094516 0 0 -1 0 0 0 0 1 forward_v I I I I #
coedge $-1 $486 $487 $488 $489 reversed $219 $-1 #
coedge $-1 $490 $221 $223 $346 forward $137 $-1 #
coedge $-1 $221 $490 $486 $491 forward $137 $-1 #
coedge $-1 $488 $224 $221 $343 forward $348 $-1 #
edge $-1 $350 -13.122492023097699 $492 -2.4570358867851443 $342 $493 forward 7 unknown #
coedge $-1 $494 $495 $222 $345 forward $337 $-1 #
edge $-1 $496 -85.47101238697303 $349 -76.390032698078187 $344 $497 forward 7 unknown #
edge $-1 $350 107.2495860305402 $496 124.38612018189031 $223 $498 forward 7 unknown #
coedge $-1 $224 $488 $494 $499 forward $348 $-1 #
loop $-1 $-1 $488 $336 #
vertex $-1 $345 $500 #
vertex $-1 $225 $501 #
straight-curve $-1 11.311125192094845 20.91225597803912 9.5389689375825952 -1 0 0 I I #
coedge $-1 $352 $352 $-1 $502 reversed $228 $-1 #
edge $-1 $503 0 $503 6.2831853071796004 $229 $504 forward 7 unknown #
vertex $-1 $232 $505 #
ellipse-curve $-1 54.926757547521376 13.294073023530153 4.9984790931351721 0.52991927123019833 0 0.84804809178421925 1.2720721376763289 0 -0.79487890684529749 1 I I #
coedge $-1 $356 $356 $-1 $506 reversed $235 $-1 #
edge $-1 $507 0 $507 6.2831853071796004 $236 $508 forward 7 unknown #
vertex $-1 $239 $509 #
ellipse-curve $-1 54.926757547521376 17.86498279623553 4.9984790931351721 0.52991927123019833 0 0.84804809178421925 1.2720721376763289 0 -0.79487890684529749 1 I I #
face $-1 $-1 $255 $36 $-1 $510 reversed single #
loop $-1 $-1 $376 $240 #
plane-surface $-1 0 36.844552848274731 0 0 -1 0 0 0 -1 forward_v I I I I #
coedge $-1 $511 $374 $377 $512 forward $241 $-1 #
coedge $-1 $380 $243 $244 $368 reversed $151 $-1 #
coedge $-1 $374 $511 $243 $366 reversed $241 $-1 #
edge $-1 $381 -9.5389689375826006 $513 9.5389689375826006 $365 $514 forward 7 unknown #
coedge $-1 $245 $244 $511 $515 forward $97 $-1 #
edge $-1 $372 -62.19306009094516 $513 62.19306009094516 $364 $516 forward 7 unknown #
coedge $-1 $377 $376 $245 $370 reversed $361 $-1 #
edge $-1 $517 -62.19306009094516 $371 62.19306009094516 $369 $518 forward 7 unknown #
vertex $-1 $247 $519 #
vertex $-1 $383 $520 #
straight-curve $-1 62.19306009094516 0 -9.5389689375826006 0 -1 0 I I #
coedge $-1 $363 $365 $248 $375 reversed $241 $-1 #
edge $-1 $378 -36.844552848274731 $381 36.844552848274731 $374 $521 forward 7 unknown #
coedge $-1 $369 $249 $254 $384 forward $361 $-1 #
coedge $-1 $249 $369 $363 $512 reversed $361 $-1 #
vertex $-1 $250 $522 #
straight-curve $-1 0 36.844552848274731 9.5389689375826006 -1 0 0 I I #
coedge $-1 $251 $364 $253 $383 reversed $151 $-1 #
vertex $-1 $375 $523 #
straight-curve $-1 0 -36.844552848274731 9.5389689375826006 1 0 0 I I #
edge $-1 $256 -9.5389689375826006 $372 9.5389689375826006 $253 $524 forward 7 unknown #
edge $-1 $257 -9.5389689375826006 $371 9.5389689375826006 $254 $525 forward 7 unknown #
point $-1 62.19306009094516 -36.844552848274731 9.5389689375826006 #
point $-1 62.19306009094516 36.844552848274731 9.5389689375826006 #
face $-1 $-1 $403 $37 $-1 $526 reversed single #
loop $-1 $-1 $527 $259 #
plane-surface $-1 0 -43.725134255534741 -3.9992529515261204 0 1 0 0 0 1 forward_v I I I I #
coedge $-1 $528 $400 $402 $529 forward $260 $-1 #
coedge $-1 $262 $269 $530 $531 forward $159 $-1 #
coedge $-1 $532 $267 $262 $393 reversed $403 $-1 #
edge $-1 $533 -3.440290703630005 $271 3.440290703630005 $392 $534 forward 7 unknown #
coedge $-1 $264 $263 $527 $535 reversed $101 $-1 #
coedge $-1 $400 $528 $263 $396 forward $260 $-1 #
edge $-1 $536 -3.440290703630005 $398 3.440290703630005 $263 $537 forward 7 unknown #
edge $-1 $270 -3.440290703630005 $538 3.440290703630005 $264 $539 forward 7 unknown #
vertex $-1 $265 $540 #
straight-curve $-1 -62.19306009094516 -36.844552848274731 0 0 0 -1 I I #
coedge $-1 $390 $395 $266 $401 reversed $260 $-1 #
edge $-1 $404 -62.19306009094516 $398 62.19306009094516 $400 $541 forward 7 unknown #
coedge $-1 $267 $532 $390 $529 reversed $403 $-1 #
loop $-1 $-1 $267 $387 #
vertex $-1 $268 $542 #
straight-curve $-1 62.19306009094516 -36.844552848274731 0 0 0 1 I I #
point $-1 -62.19306009094516 -36.844552848274731 -1.8012465069498726 #
point $-1 62.19306009094516 -36.844552848274731 -1.8012465069498726 #
face $-1 $-1 $420 $38 $-1 $543 reversed single #
loop $-1 $-1 $415 $273 #
plane-surface $-1 0 0 -9.5389689375826006 0 0 1 1 0 0 forward_v I I I I #
coedge $-1 $284 $544 $278 $417 forward $274 $-1 #
coedge $-1 $545 $276 $424 $546 reversed $167 $-1 #
coedge $-1 $276 $545 $427 $547 reversed $167 $-1 #
edge $-1 $428 -9.5389689375826006 $425 9.5389689375826006 $276 $548 forward 7 unknown #
coedge $-1 $549 $282 $277 $416 forward $409 $-1 #
edge $-1 $287 12.77823411915805 $421 20.303623859130475 $415 $550 forward 7 unknown #
edge $-1 $422 -20.303623859130475 $286 -12.77823411915805 $411 $551 forward 7 unknown #
coedge $-1 $552 $279 $544 $553 reversed $420 $-1 #
coedge $-1 $279 $552 $549 $554 reversed $420 $-1 #
loop $-1 $-1 $279 $408 #
vertex $-1 $554 $555 #
vertex $-1 $280 $556 #
straight-curve $-1 -47.415129226400275 36.844552848274731 0 0 0 1 I I #
coedge $-1 $282 $549 $412 $546 forward $409 $-1 #
vertex $-1 $283 $557 #
straight-curve $-1 -22.830216438645262 29.319163108302313 -9.5389689375826006 -1 0 0 I I #
coedge $-1 $544 $284 $413 $547 forward $274 $-1 #
vertex $-1 $285 $558 #
straight-curve $-1 -22.830216438645262 29.319163108302313 9.5389689375826006 1 0 0 I I #
point $-1 -47.415129226400275 29.319163108302313 9.5389689375826006 #
point $-1 -47.415129226400275 29.319163108302313 -9.5389689375826006 #
loop $-1 $-1 $297 $289 #
plane-surface $-1 -62.19306009094516 0 0 1 0 0 0 0 -1 forward_v I I I I #
coedge $-1 $435 $292 $294 $439 reversed $175 $-1 #
coedge $-1 $292 $434 $559 $560 reversed $175 $-1 #
coedge $-1 $300 $295 $292 $437 forward $290 $-1 #
edge $-1 $440 -13.683392505992465 $561 -2.7762386308923723 $436 $562 forward 7 unknown #
coedge $-1 $294 $293 $443 $563 reversed $109 $-1 #
edge $-1 $564 8.3777959833898778e-015 $440 13.005289981843568 $434 $565 forward 7 unknown #
vertex $-1 $296 $566 #
straight-curve $-1 -51.285906215845067 -9.9893855079639629 9.5389689375826006 0 1 0 I I #
coedge $-1 $559 $297 $300 $447 reversed $432 $-1 #
coedge $-1 $297 $559 $438 $563 forward $432 $-1 #
vertex $-1 $298 $567 #
straight-curve $-1 -62.19306009094516 -24.757104022725294 53.387378870017521 0 0 1 I I #
straight-curve $-1 -62.193060090945167 -24.757104022725294 2.4557802589767874 -0.83867056331134215 0 -0.54463904215088732 I I #
edge $-1 $561 15.200438009130556 $301 24.757104022725294 $442 $568 forward 7 unknown #
point $-1 -62.19306009094516 -24.757104022725294 9.5389689375826006 #
point $-1 -51.285906215845067 -24.757104022725294 9.5389689375826006 #
edge $-1 $569 1 $569 0 $304 $-1 forward 7 unknown #
vertex $-1 $305 $570 #
ellipse-curve $-1 -55.635162546642476 -22.02662801884108 4.2968700187990372 -0.54463904215088732 0 0.83867056331134215 0.83867056331134215 0 0.54463904215088732 1 I I #
point $-1 -55.900812590083746 -22.02662801884108 6.542013640430568 #
edge $-1 $571 1 $571 0 $308 $-1 forward 7 unknown #
vertex $-1 $309 $572 #
ellipse-curve $-1 -55.635162546642476 -17.930914013014764 4.2968700187990372 -0.54463904215088732 0 0.83867056331134215 0.83867056331134215 0 0.54463904215088732 1 I I #
point $-1 -55.900812590083746 -17.930914013014764 6.542013640430568 #
plane-surface $-1 0 0 9.5389689375826006 0 0 1 1 0 0 forward_v I I I I #
coedge $-1 $469 $468 $461 $573 forward $313 $-1 #
coedge $-1 $461 $315 $317 $465 reversed $197 $-1 #
coedge $-1 $315 $460 $459 $573 reversed $197 $-1 #
coedge $-1 $323 $318 $315 $463 forward $324 $-1 #
edge $-1 $466 36.34932981200275 $574 50.881934898850318 $462 $575 forward 7 unknown #
coedge $-1 $317 $316 $469 $576 reversed $123 $-1 #
edge $-1 $577 -124.38612018189031 $466 -107.2495860305402 $460 $578 forward 7 unknown #
vertex $-1 $319 $579 #
straight-curve $-1 47.660455004097599 -7.0310196823878357 9.5389689375825952 0 -1 0 I I #
coedge $-1 $459 $320 $323 $473 reversed $313 $-1 #
coedge $-1 $320 $459 $464 $576 forward $313 $-1 #
vertex $-1 $321 $580 #
straight-curve $-1 62.19306009094516 -8.7293112966193949 85.929001635660782 0 0 1 I I #
straight-curve $-1 -43.292351773749481 -8.7293112966193949 66.372591406626924 0.84804809178421925 0 -0.52991927123019833 I I #
edge $-1 $574 -19.39476743293195 $325 -8.7293112966193949 $468 $581 forward 7 unknown #
point $-1 62.19306009094516 -8.7293112966193949 9.5389689375826006 #
point $-1 47.660455004097592 -8.7293112966193949 9.5389689375826023 #
edge $-1 $582 1 $582 0 $328 $-1 forward 7 unknown #
vertex $-1 $329 $583 #
ellipse-curve $-1 53.664514004936429 -16.34749425112836 2.9784672049637777 0.52991927123019833 0 0.84804809178421925 1.2720721376763289 0 -0.79487890684529749 1 I I #
point $-1 56.198829685197715 -16.34749425112836 4.2036001862898846 #
edge $-1 $584 1 $584 0 $332 $-1 forward 7 unknown #
vertex $-1 $333 $585 #
ellipse-curve $-1 53.664514004936429 -11.776584478422983 2.9784672049637777 0.52991927123019833 0 0.84804809178421925 1.2720721376763289 0 -0.79487890684529749 1 I I #
point $-1 56.198829685197715 -11.776584478422983 4.2036001862898846 #
plane-surface $-1 0 0 9.5389689375826006 0 0 1 1 0 0 forward_v I I I I #
coedge $-1 $495 $494 $487 $586 forward $337 $-1 #
coedge $-1 $487 $339 $341 $491 reversed $219 $-1 #
coedge $-1 $339 $486 $485 $586 reversed $219 $-1 #
coedge $-1 $347 $342 $339 $489 forward $348 $-1 #
edge $-1 $492 36.34932981200275 $587 50.881934898850318 $488 $588 forward 7 unknown #
coedge $-1 $341 $340 $495 $589 reversed $137 $-1 #
edge $-1 $590 -124.38612018189031 $492 -107.2495860305402 $486 $591 forward 7 unknown #
vertex $-1 $343 $592 #
straight-curve $-1 47.660455004097599 7.7897639549414208 9.5389689375825952 0 -1 0 I I #
coedge $-1 $485 $344 $347 $499 reversed $337 $-1 #
coedge $-1 $344 $485 $490 $589 forward $337 $-1 #
vertex $-1 $345 $593 #
straight-curve $-1 62.19306009094516 20.91225597803912 85.929001635660782 0 0 1 I I #
straight-curve $-1 -43.292351773749481 20.91225597803912 66.372591406626924 0.84804809178421925 0 -0.52991927123019833 I I #
edge $-1 $587 10.246799841726565 $349 20.91225597803912 $494 $594 forward 7 unknown #
point $-1 62.19306009094516 20.91225597803912 9.5389689375826006 #
point $-1 47.660455004097592 20.91225597803912 9.5389689375826023 #
edge $-1 $595 1 $595 0 $352 $-1 forward 7 unknown #
vertex $-1 $353 $596 #
ellipse-curve $-1 53.664514004936429 13.294073023530153 2.9784672049637777 0.52991927123019833 0 0.84804809178421925 1.2720721376763289 0 -0.79487890684529749 1 I I #
point $-1 56.198829685197715 13.294073023530153 4.2036001862898846 #
edge $-1 $597 1 $597 0 $356 $-1 forward 7 unknown #
vertex $-1 $357 $598 #
ellipse-curve $-1 53.664514004936429 17.86498279623553 2.9784672049637777 0.52991927123019833 0 0.84804809178421925 1.2720721376763289 0 -0.79487890684529749 1 I I #
point $-1 56.198829685197715 17.86498279623553 4.2036001862898846 #
plane-surface $-1 62.19306009094516 0 0 -1 0 0 0 0 1 forward_v I I I I #
coedge $-1 $365 $363 $367 $515 reversed $241 $-1 #
edge $-1 $378 -9.5389689375826006 $517 9.5389689375826006 $377 $599 forward 7 unknown #
vertex $-1 $515 $600 #
straight-curve $-1 -62.19306009094516 -36.844552848274731 0 0 0 -1 I I #
edge $-1 $513 -36.844552848274731 $517 36.844552848274731 $511 $601 forward 7 unknown #
straight-curve $-1 0 -36.844552848274731 -9.5389689375826006 -1 0 0 I I #
vertex $-1 $370 $602 #
straight-curve $-1 0 36.844552848274731 -9.5389689375826006 1 0 0 I I #
point $-1 62.19306009094516 36.844552848274731 -9.5389689375826006 #
point $-1 62.19306009094516 -36.844552848274731 -9.5389689375826006 #
straight-curve $-1 -62.19306009094516 0 9.5389689375826006 0 -1 0 I I #
point $-1 -62.19306009094516 36.844552848274731 9.5389689375826006 #
point $-1 -62.19306009094516 -36.844552848274731 9.5389689375826006 #
straight-curve $-1 62.19306009094516 -36.844552848274731 0 0 0 -1 I I #
straight-curve $-1 62.19306009094516 36.844552848274731 0 0 0 -1 I I #
plane-surface $-1 62.19306009094516 0 0 -1 0 0 0 0 1 forward_v I I I I #
coedge $-1 $603 $530 $394 $535 forward $388 $-1 #
coedge $-1 $395 $390 $603 $604 forward $260 $-1 #
edge $-1 $404 -3.440290703630005 $605 3.440290703630005 $402 $606 forward 7 unknown #
coedge $-1 $527 $607 $391 $531 reversed $388 $-1 #
edge $-1 $538 -62.19306009094516 $533 62.19306009094516 $530 $608 forward 7 unknown #
coedge $-1 $402 $392 $607 $609 forward $403 $-1 #
vertex $-1 $393 $610 #
straight-curve $-1 62.19306009094516 -40.284843551904736 -1.8012465069498726 0 1 0 I I #
edge $-1 $538 -2.1980064445762477 $536 2.1980064445762473 $394 $611 forward 7 unknown #
vertex $-1 $396 $612 #
straight-curve $-1 -62.19306009094516 -40.284843551904736 -6.1972593961023676 0 1 0 I I #
vertex $-1 $397 $613 #
straight-curve $-1 -62.19306009094516 -40.284843551904736 -1.8012465069498726 0 -1 0 I I #
point $-1 -62.19306009094516 -36.844552848274731 -6.1972593961023676 #
straight-curve $-1 0 -36.844552848274731 -6.1972593961023676 -1 0 0 I I #
point $-1 62.19306009094516 -36.844552848274731 -6.1972593961023676 #
plane-surface $-1 0 36.844552848274731 0 0 -1 0 0 0 -1 forward_v I I I I #
coedge $-1 $411 $427 $418 $553 forward $274 $-1 #
coedge $-1 $413 $412 $552 $614 reversed $167 $-1 #
edge $-1 $615 -20.303623859130475 $425 -12.77823411915805 $424 $616 forward 7 unknown #
edge $-1 $428 12.77823411915805 $617 20.303623859130475 $427 $618 forward 7 unknown #
straight-curve $-1 -43.905736528180775 29.319163108302313 0 0 0 -1 I I #
coedge $-1 $424 $415 $419 $554 forward $409 $-1 #
straight-curve $-1 -47.415129226400275 16.540928989144263 -9.5389689375826006 0 1 0 I I #
straight-curve $-1 -47.415129226400275 16.540928989144263 9.5389689375826006 0 -1 0 I I #
coedge $-1 $419 $418 $545 $614 forward $420 $-1 #
edge $-1 $617 43.905736528180775 $422 47.415129226400275 $418 $619 forward 7 unknown #
edge $-1 $421 -47.415129226400275 $615 -43.905736528180775 $419 $620 forward 7 unknown #
point $-1 -47.415129226400275 36.844552848274738 -9.5389689375826006 #
point $-1 -47.415129226400275 36.844552848274738 9.5389689375826006 #
point $-1 -43.905736528180775 29.319163108302313 -9.5389689375826006 #
point $-1 -43.905736528180775 29.319163108302313 9.5389689375826006 #
coedge $-1 $443 $442 $435 $560 forward $432 $-1 #
edge $-1 $561 43.848409932434919 $564 50.931598611040727 $559 $621 forward 7 unknown #
vertex $-1 $447 $622 #
straight-curve $-1 -64.969298721837532 -15.200438009130556 9.5389689375826023 -1 0 0 I I #
edge $-1 $564 5.2110525011665931 $444 14.767718514761331 $443 $623 forward 7 unknown #
vertex $-1 $563 $624 #
straight-curve $-1 -62.193060090945167 -15.200438009130556 2.4557802589767874 0.83867056331134215 0 0.54463904215088732 I I #
point $-1 -51.285906215845067 -15.200438009130556 9.5389689375826006 #
point $-1 -62.19306009094516 -24.757104022725294 2.4557802589767919 #
straight-curve $-1 -62.19306009094516 0 9.5389689375826006 0 -1 0 I I #
vertex $-1 $450 $625 #
point $-1 -54.79649198333113 -22.02662801884108 4.8415090609499245 #
vertex $-1 $454 $626 #
point $-1 -54.79649198333113 -17.930914013014764 4.8415090609499245 #
edge $-1 $574 76.390032698078187 $577 85.47101238697303 $459 $627 forward 7 unknown #
vertex $-1 $473 $628 #
straight-curve $-1 11.311125192094845 -19.39476743293195 9.5389689375825952 1 0 0 I I #
edge $-1 $577 -12.363747750544114 $470 -1.6982916142315592 $469 $629 forward 7 unknown #
vertex $-1 $576 $630 #
straight-curve $-1 -43.292351773749481 -19.39476743293195 66.372591406626924 -0.84804809178421925 0 0.52991927123019833 I I #
point $-1 47.660455004097592 -19.39476743293195 9.5389689375826023 #
point $-1 62.19306009094516 -8.7293112966193949 0.45798924868775259 #
straight-curve $-1 62.19306009094516 0 9.5389689375826006 0 1 0 I I #
vertex $-1 $476 $631 #
point $-1 54.936586142612754 -16.34749425112836 2.1835882981184804 #
vertex $-1 $480 $632 #
point $-1 54.936586142612754 -11.776584478422983 2.1835882981184804 #
edge $-1 $587 76.390032698078187 $590 85.47101238697303 $485 $633 forward 7 unknown #
vertex $-1 $499 $634 #
straight-curve $-1 11.311125192094845 10.246799841726565 9.5389689375825952 1 0 0 I I #
edge $-1 $590 2.4570358867851443 $496 13.122492023097699 $495 $635 forward 7 unknown #
vertex $-1 $589 $636 #
straight-curve $-1 -43.292351773749481 10.246799841726565 66.372591406626924 -0.84804809178421925 0 0.52991927123019833 I I #
point $-1 47.660455004097592 10.246799841726565 9.5389689375826023 #
point $-1 62.19306009094516 20.91225597803912 0.45798924868775259 #
straight-curve $-1 62.19306009094516 0 9.5389689375826006 0 1 0 I I #
vertex $-1 $502 $637 #
point $-1 54.936586142612754 13.294073023530153 2.1835882981184804 #
vertex $-1 $506 $638 #
point $-1 54.936586142612754 17.86498279623553 2.1835882981184804 #
straight-curve $-1 -62.19306009094516 36.844552848274731 0 0 0 -1 I I #
point $-1 -62.19306009094516 -36.844552848274731 -9.5389689375826006 #
straight-curve $-1 -62.19306009094516 0 -9.5389689375826006 0 1 0 I I #
point $-1 -62.19306009094516 36.844552848274731 -9.5389689375826006 #
coedge $-1 $607 $527 $528 $604 reversed $388 $-1 #
edge $-1 $605 -62.19306009094516 $536 62.19306009094516 $603 $639 forward 7 unknown #
vertex $-1 $609 $640 #
straight-curve $-1 62.19306009094516 -40.284843551904736 -6.1972593961023676 0 -1 0 I I #
coedge $-1 $530 $603 $532 $609 reversed $388 $-1 #
straight-curve $-1 0 -43.725134255534741 -1.8012465069498726 1 0 0 I I #
edge $-1 $533 -2.1980064445762477 $605 2.1980064445762473 $532 $641 forward 7 unknown #
point $-1 62.19306009094516 -43.725134255534741 -1.8012465069498726 #
straight-curve $-1 -62.19306009094516 -43.725134255534741 -3.9992529515261204 0 0 -1 I I #
point $-1 -62.19306009094516 -43.725134255534741 -6.1972593961023676 #
point $-1 -62.19306009094516 -43.725134255534741 -1.8012465069498726 #
edge $-1 $617 -9.5389689375826006 $615 9.5389689375826006 $552 $642 forward 7 unknown #
vertex $-1 $614 $643 #
straight-curve $-1 -43.905736528180775 16.540928989144263 -9.5389689375826006 0 -1 0 I I #
vertex $-1 $553 $644 #
straight-curve $-1 -43.905736528180775 16.540928989144263 9.5389689375826006 0 1 0 I I #
straight-curve $-1 0 36.844552848274731 9.5389689375826006 -1 0 0 I I #
straight-curve $-1 0 36.844552848274731 -9.5389689375826006 1 0 0 I I #
straight-curve $-1 -62.19306009094516 -15.200438009130556 53.387378870017521 0 0 -1 I I #
point $-1 -62.19306009094516 -15.200438009130556 9.5389689375826006 #
straight-curve $-1 -62.19306009094516 -9.9893855079639629 2.4557802589767954 0 -1 0 I I #
point $-1 -62.19306009094516 -15.200438009130556 2.4557802589767919 #
point $-1 -55.090523504491586 -22.02662801884108 3.4581994554876947 #
point $-1 -55.090523504491586 -17.930914013014764 3.4581994554876947 #
straight-curve $-1 62.19306009094516 -19.39476743293195 85.929001635660782 0 0 -1 I I #
point $-1 62.19306009094516 -19.39476743293195 9.5389689375826006 #
straight-curve $-1 62.193060090945167 -7.0310196823878357 0.45798924868773838 0 1 0 I I #
point $-1 62.19306009094516 -19.39476743293195 0.45798924868775259 #
point $-1 52.86963509809113 -16.34749425112836 1.7063950672874491 #
point $-1 52.86963509809113 -11.776584478422983 1.7063950672874491 #
straight-curve $-1 62.19306009094516 10.246799841726565 85.929001635660782 0 0 -1 I I #
point $-1 62.19306009094516 10.246799841726565 9.5389689375826006 #
straight-curve $-1 62.193060090945167 7.7897639549414208 0.45798924868773838 0 1 0 I I #
point $-1 62.19306009094516 10.246799841726565 0.45798924868775259 #
point $-1 52.86963509809113 13.294073023530153 1.7063950672874491 #
point $-1 52.86963509809113 17.86498279623553 1.7063950672874491 #
straight-curve $-1 0 -43.725134255534741 -6.1972593961023676 -1 0 0 I I #
point $-1 62.19306009094516 -43.725134255534741 -6.1972593961023676 #
straight-curve $-1 62.19306009094516 -43.725134255534741 -3.9992529515261204 0 0 -1 I I #
straight-curve $-1 -43.905736528180775 36.844552848274731 0 0 0 -1 I I #
point $-1 -43.905736528180775 36.844552848274738 -9.5389689375826006 #
point $-1 -43.905736528180775 36.844552848274738 9.5389689375826006 #
End-of-ACIS-data 