500 0 9 0           
7 Unknown 11 ACIS 5.0 NT 24 Fri Mar 26 18:51:27 1999 
-1 9.9999999999999995e-007 1e-010 
body $-1 $9 $-1 $10 #
body $-1 $11 $-1 $12 #
body $-1 $13 $-1 $14 #
body $-1 $15 $-1 $16 #
body $-1 $17 $-1 $18 #
body $-1 $19 $-1 $20 #
body $-1 $21 $-1 $22 #
body $-1 $23 $-1 $24 #
body $-1 $25 $-1 $26 #
lump $-1 $-1 $27 $0 #
transform $-1 1 0 0 0 1 0 0 0 1 68.48597674489578 31.893309272847322 13.054093935198415 1 rotate no_reflect no_shear #
lump $-1 $-1 $28 $1 #
transform $-1 1 0 0 0 1 0 0 0 1 68.48597674489578 31.893309272847322 13.054093935198415 1 rotate no_reflect no_shear #
lump $-1 $-1 $29 $2 #
transform $-1 1 0 0 0 1 0 0 0 1 68.48597674489578 31.893309272847322 13.054093935198415 1 rotate no_reflect no_shear #
lump $-1 $-1 $30 $3 #
transform $-1 1 0 0 0 1 0 0 0 1 68.48597674489578 31.893309272847322 13.054093935198415 1 rotate no_reflect no_shear #
lump $-1 $-1 $31 $4 #
transform $-1 1 0 0 0 1 0 0 0 1 68.48597674489578 31.893309272847322 13.054093935198415 1 rotate no_reflect no_shear #
lump $-1 $-1 $32 $5 #
transform $-1 1 0 0 0 1 0 0 0 1 68.48597674489578 31.893309272847322 13.054093935198415 1 rotate no_reflect no_shear #
lump $-1 $-1 $33 $6 #
transform $-1 1 0 0 0 1 0 0 0 1 68.48597674489578 31.893309272847322 13.054093935198415 1 rotate no_reflect no_shear #
lump $-1 $-1 $34 $7 #
transform $-1 1 0 0 0 1 0 0 0 1 68.48597674489578 31.893309272847322 13.054093935198415 1 rotate no_reflect no_shear #
lump $-1 $-1 $35 $8 #
transform $-1 1 0 0 0 1 0 0 0 1 68.48597674489578 31.893309272847322 13.054093935198415 1 rotate no_reflect no_shear #
shell $-1 $-1 $-1 $36 $-1 $9 #
shell $-1 $-1 $-1 $37 $-1 $11 #
shell $-1 $-1 $-1 $38 $-1 $13 #
shell $-1 $-1 $-1 $39 $-1 $15 #
shell $-1 $-1 $-1 $40 $-1 $17 #
shell $-1 $-1 $-1 $41 $-1 $19 #
shell $-1 $-1 $-1 $42 $-1 $21 #
shell $-1 $-1 $-1 $43 $-1 $23 #
shell $-1 $-1 $-1 $44 $-1 $25 #
face $-1 $45 $46 $27 $-1 $47 forward single #
face $-1 $48 $49 $28 $-1 $50 reversed single #
face $-1 $51 $52 $29 $-1 $53 reversed single #
face $-1 $54 $55 $30 $-1 $56 reversed single #
face $-1 $57 $58 $31 $-1 $59 forward single #
face $-1 $60 $61 $32 $-1 $62 forward single #
face $-1 $63 $64 $33 $-1 $65 forward single #
face $-1 $66 $67 $34 $-1 $68 reversed single #
face $-1 $69 $70 $35 $-1 $71 forward single #
face $-1 $72 $73 $27 $-1 $74 reversed single #
loop $-1 $-1 $75 $36 #
plane-surface $-1 0 0 13.054093935198415 0 0 1 1 0 0 forward_v I I I I #
face $-1 $76 $77 $28 $-1 $78 reversed single #
loop $-1 $-1 $79 $37 #
plane-surface $-1 0 -25.528359834480376 7.3893653465395115 0 0 1 1 0 0 forward_v I I I I #
face $-1 $80 $81 $29 $-1 $82 reversed single #
loop $-1 $-1 $83 $38 #
plane-surface $-1 0 25.52835983448038 7.3893653465395115 0 0 1 1 0 0 forward_v I I I I #
face $-1 $84 $85 $30 $-1 $86 reversed single #
loop $-1 $-1 $87 $39 #
plane-surface $-1 -68.48597674489578 -15.543250512864393 8.7469727411939147 -0.86602541151947299 0 0.49999998660252726 0.49999998660252726 0 0.86602541151947299 forward_v I I I I #
face $-1 $88 $89 $31 $-1 $90 forward single #
loop $-1 $91 $92 $40 #
cone-surface $-1 -66.809605293161596 -17.715346442813818 10.650533344894905 0.86602541151947299 0 -0.49999998660252726 0.24999999330126363 0 0.43301270575973649 1 I I 0 1 0.5 forward I I I I #
face $-1 $93 $94 $32 $-1 $95 forward single #
loop $-1 $96 $97 $41 #
cone-surface $-1 -66.809605293161596 -15.543250512864393 10.650533344894905 0.86602541151947299 0 -0.49999998660252726 0.24999999330126363 0 0.43301270575973649 1 I I 0 1 0.5 forward I I I I #
face $-1 $98 $99 $33 $-1 $100 forward single #
loop $-1 $101 $102 $42 #
cone-surface $-1 -66.809605293161596 -13.371154582914972 10.650533344894905 0.86602541151947299 0 -0.49999998660252726 0.24999999330126363 0 0.43301270575973649 1 I I 0 1 0.5 forward I I I I #
face $-1 $103 $104 $34 $-1 $105 reversed single #
loop $-1 $-1 $106 $43 #
plane-surface $-1 102.12295019881439 6.7188508790571255 196.3123343726262 0 -1 0 -0.81915205242281985 0 -0.57357642473473569 forward_v I I I I #
face $-1 $107 $108 $35 $-1 $109 forward single #
loop $-1 $110 $111 $44 #
cone-surface $-1 64.323828441404245 1.5865479038599553 8.2266595376280431 -0.81915205242281985 0 -0.57357642473473569 0.57357642473473569 0 -0.81915205242281985 1 I I 0 1 1 forward I I I I #
face $-1 $112 $113 $27 $-1 $114 reversed single #
loop $-1 $-1 $115 $45 #
plane-surface $-1 0 0 -13.054093935198415 0 0 1 1 0 0 forward_v I I I I #
coedge $-1 $116 $117 $118 $119 forward $46 $-1 #
face $-1 $120 $121 $28 $-1 $122 reversed single #
loop $-1 $-1 $123 $48 #
plane-surface $-1 0 -19.163410396113431 10.221729640868963 0 -1 0 0 0 -1 forward_v I I I I #
coedge $-1 $124 $125 $126 $127 reversed $49 $-1 #
face $-1 $128 $129 $29 $-1 $130 forward single #
loop $-1 $-1 $131 $51 #
plane-surface $-1 0 19.163410396113434 10.221729640868963 0 1 0 0 0 1 forward_v I I I I #
coedge $-1 $132 $133 $134 $135 reversed $52 $-1 #
face $-1 $136 $137 $30 $-1 $138 reversed single #
loop $-1 $-1 $139 $54 #
plane-surface $-1 -187.10716913251864 -11.923090629615357 77.232947651011685 0 -1 0 0.86602541151947299 0 -0.49999998660252726 forward_v I I I I #
coedge $-1 $140 $141 $142 $143 reversed $55 $-1 #
face $-1 $-1 $144 $31 $-1 $145 forward single #
loop $-1 $146 $147 $57 #
cone-surface $-1 -66.160086234521998 -17.715346442813818 10.275533354943009 0.86602541151947299 0 -0.49999998660252726 0.12499999665063181 0 0.21650635287986825 1 I I -0.70710678118654746 0.70710678118654746 0.25 forward I I I I #
loop $-1 $-1 $148 $40 #
coedge $-1 $92 $92 $149 $150 reversed $58 $-1 #
face $-1 $-1 $151 $32 $-1 $152 forward single #
loop $-1 $153 $154 $60 #
cone-surface $-1 -66.160086234521998 -15.543250512864393 10.275533354943009 0.86602541151947299 0 -0.49999998660252726 0.12499999665063181 0 0.21650635287986825 1 I I -0.70710678118654746 0.70710678118654746 0.25 forward I I I I #
loop $-1 $-1 $155 $41 #
coedge $-1 $97 $97 $156 $157 reversed $61 $-1 #
face $-1 $-1 $158 $33 $-1 $159 forward single #
loop $-1 $160 $161 $63 #
cone-surface $-1 -66.160086234521998 -13.371154582914972 10.275533354943009 0.86602541151947299 0 -0.49999998660252726 0.12499999665063181 0 0.21650635287986825 1 I I -0.70710678118654746 0.70710678118654746 0.25 forward I I I I #
loop $-1 $-1 $162 $42 #
coedge $-1 $102 $102 $163 $164 reversed $64 $-1 #
face $-1 $165 $166 $34 $-1 $167 reversed single #
loop $-1 $-1 $168 $66 #
plane-surface $-1 -10.077906626711382 1.5865479038599553 117.74845100101905 0.81915205242281985 0 0.57357642473473569 0.57357642473473569 0 -0.81915205242281985 forward_v I I I I #
coedge $-1 $169 $170 $171 $172 reversed $67 $-1 #
face $-1 $-1 $173 $35 $-1 $174 forward single #
loop $-1 $175 $176 $69 #
cone-surface $-1 62.380157891038877 1.5865479038599553 6.8656868075428665 -0.81915205242281985 0 -0.57357642473473569 0.28678821236736785 0 -0.40957602621140993 1 I I -0.70710678118654746 0.70710678118654746 0.5 forward I I I I #
loop $-1 $-1 $177 $44 #
coedge $-1 $111 $111 $178 $179 reversed $70 $-1 #
face $-1 $180 $181 $27 $-1 $182 reversed single #
loop $-1 $-1 $183 $72 #
plane-surface $-1 0 -31.893309272847322 0 0 1 0 0 0 1 forward_v I I I I #
coedge $-1 $184 $185 $186 $187 forward $73 $-1 #
coedge $-1 $188 $75 $189 $190 forward $46 $-1 #
coedge $-1 $75 $188 $191 $192 forward $46 $-1 #
coedge $-1 $193 $194 $75 $119 reversed $195 $-1 #
edge $-1 $196 -31.893309272847322 $197 31.893309272847322 $118 $198 forward 7 unknown #
face $-1 $199 $200 $28 $-1 $201 reversed single #
loop $-1 $-1 $202 $76 #
plane-surface $-1 -68.48597674489578 0 0 1 0 0 0 0 -1 forward_v I I I I #
coedge $-1 $203 $204 $205 $206 reversed $77 $-1 #
coedge $-1 $207 $79 $208 $209 reversed $49 $-1 #
coedge $-1 $79 $207 $210 $211 forward $49 $-1 #
coedge $-1 $212 $213 $79 $127 forward $214 $-1 #
edge $-1 $215 -19.129129355607134 $216 -6.3992304788732426 $126 $217 forward 7 unknown #
face $-1 $218 $219 $29 $-1 $220 reversed single #
loop $-1 $-1 $221 $80 #
plane-surface $-1 0 0 13.054093935198415 0 0 1 1 0 0 forward_v I I I I #
coedge $-1 $222 $223 $224 $225 reversed $81 $-1 #
coedge $-1 $226 $83 $222 $227 forward $52 $-1 #
coedge $-1 $83 $226 $228 $229 reversed $52 $-1 #
coedge $-1 $230 $231 $83 $135 forward $219 $-1 #
edge $-1 $232 6.3992304788732444 $233 19.129129355607134 $134 $234 forward 7 unknown #
face $-1 $235 $236 $30 $-1 $237 forward single #
loop $-1 $-1 $238 $84 #
plane-surface $-1 -68.48597674489578 0 0 1 0 0 0 0 -1 forward_v I I I I #
coedge $-1 $239 $240 $241 $242 reversed $85 $-1 #
coedge $-1 $243 $87 $244 $245 reversed $55 $-1 #
coedge $-1 $87 $243 $239 $246 forward $55 $-1 #
coedge $-1 $241 $247 $87 $143 forward $236 $-1 #
edge $-1 $248 -11.391785139681231 $249 -4.1514653731831608 $142 $250 forward 7 unknown #
loop $-1 $-1 $149 $88 #
plane-surface $-1 -68.48597674489578 -15.543250512864393 8.7469727411939147 -0.86602541151947299 0 0.49999998660252726 0.49999998660252726 0 0.86602541151947299 forward_v I I I I #
loop $-1 $-1 $251 $57 #
coedge $-1 $147 $147 $148 $252 reversed $89 $-1 #
coedge $-1 $148 $148 $147 $252 forward $91 $-1 #
coedge $-1 $149 $149 $92 $150 forward $144 $-1 #
edge $-1 $253 0 $253 6.2831853071796004 $149 $254 forward 7 unknown #
loop $-1 $-1 $156 $93 #
plane-surface $-1 -68.48597674489578 -15.543250512864393 8.7469727411939147 -0.86602541151947299 0 0.49999998660252726 0.49999998660252726 0 0.86602541151947299 forward_v I I I I #
loop $-1 $-1 $255 $60 #
coedge $-1 $154 $154 $155 $256 reversed $94 $-1 #
coedge $-1 $155 $155 $154 $256 forward $96 $-1 #
coedge $-1 $156 $156 $97 $157 forward $151 $-1 #
edge $-1 $257 0 $257 6.2831853071796004 $156 $258 forward 7 unknown #
loop $-1 $-1 $163 $98 #
plane-surface $-1 -68.48597674489578 -15.543250512864393 8.7469727411939147 -0.86602541151947299 0 0.49999998660252726 0.49999998660252726 0 0.86602541151947299 forward_v I I I I #
loop $-1 $-1 $259 $63 #
coedge $-1 $161 $161 $162 $260 reversed $99 $-1 #
coedge $-1 $162 $162 $161 $260 forward $101 $-1 #
coedge $-1 $163 $163 $102 $164 forward $158 $-1 #
edge $-1 $261 0 $261 6.2831853071796004 $163 $262 forward 7 unknown #
face $-1 $263 $264 $34 $-1 $265 forward single #
loop $-1 $-1 $266 $103 #
plane-surface $-1 102.12295019881439 -3.545755071337215 196.3123343726262 0 1 0 0.81915205242281985 0 0.57357642473473569 forward_v I I I I #
coedge $-1 $267 $268 $269 $270 reversed $104 $-1 #
coedge $-1 $170 $106 $271 $272 reversed $67 $-1 #
coedge $-1 $106 $169 $267 $273 reversed $67 $-1 #
coedge $-1 $269 $274 $106 $172 forward $264 $-1 #
edge $-1 $275 -17.424501645488583 $276 -12.168394086813443 $171 $277 forward 7 unknown #
loop $-1 $-1 $178 $107 #
plane-surface $-1 -10.077906626711382 1.5865479038599553 117.74845100101905 0.81915205242281985 0 0.57357642473473569 0.57357642473473569 0 -0.81915205242281985 forward_v I I I I #
loop $-1 $-1 $278 $69 #
coedge $-1 $176 $176 $177 $279 reversed $108 $-1 #
coedge $-1 $177 $177 $176 $279 forward $110 $-1 #
coedge $-1 $178 $178 $111 $179 forward $173 $-1 #
edge $-1 $280 0 $280 6.2831853071796004 $178 $281 forward 7 unknown #
face $-1 $282 $283 $27 $-1 $284 reversed single #
loop $-1 $-1 $285 $112 #
plane-surface $-1 -68.48597674489578 0 0 1 0 0 0 0 -1 forward_v I I I I #
coedge $-1 $286 $191 $287 $288 forward $113 $-1 #
coedge $-1 $289 $115 $286 $290 forward $73 $-1 #
coedge $-1 $115 $289 $291 $292 forward $73 $-1 #
coedge $-1 $194 $193 $115 $187 reversed $195 $-1 #
edge $-1 $293 -31.893309272847322 $294 31.893309272847322 $186 $295 forward 7 unknown #
coedge $-1 $117 $116 $296 $297 forward $46 $-1 #
coedge $-1 $298 $299 $116 $190 reversed $283 $-1 #
edge $-1 $197 -68.48597674489578 $300 68.48597674489578 $189 $301 forward 7 unknown #
coedge $-1 $183 $302 $117 $192 reversed $113 $-1 #
edge $-1 $303 -68.48597674489578 $196 68.48597674489578 $191 $304 forward 7 unknown #
coedge $-1 $186 $118 $302 $305 forward $195 $-1 #
coedge $-1 $118 $186 $298 $306 reversed $195 $-1 #
loop $-1 $-1 $193 $282 #
vertex $-1 $119 $307 #
vertex $-1 $119 $308 #
straight-curve $-1 68.48597674489578 0 13.054093935198415 0 1 0 I I #
face $-1 $309 $310 $28 $-1 $311 forward single #
loop $-1 $-1 $208 $120 #
plane-surface $-1 0 -31.893309272847322 0 0 1 0 0 0 1 forward_v I I I I #
coedge $-1 $312 $313 $204 $314 forward $121 $-1 #
coedge $-1 $210 $123 $212 $315 reversed $77 $-1 #
coedge $-1 $123 $210 $202 $314 reversed $77 $-1 #
coedge $-1 $316 $317 $123 $206 forward $310 $-1 #
edge $-1 $318 -68.48597674489578 $319 68.48597674489578 $205 $320 forward 7 unknown #
coedge $-1 $125 $124 $312 $321 reversed $49 $-1 #
coedge $-1 $322 $323 $124 $209 forward $200 $-1 #
edge $-1 $324 -68.48597674489578 $215 68.48597674489578 $208 $325 forward 7 unknown #
coedge $-1 $204 $203 $125 $211 reversed $77 $-1 #
edge $-1 $326 -68.48597674489578 $216 68.48597674489578 $210 $327 forward 7 unknown #
coedge $-1 $328 $126 $203 $315 forward $214 $-1 #
coedge $-1 $126 $328 $322 $329 forward $214 $-1 #
loop $-1 $-1 $212 $309 #
vertex $-1 $209 $330 #
vertex $-1 $127 $331 #
straight-curve $-1 68.48597674489578 -12.764179917240188 7.3893653465395115 0 1 0 I I #
face $-1 $332 $333 $29 $-1 $334 reversed single #
loop $-1 $-1 $231 $128 #
plane-surface $-1 68.48597674489578 0 0 -1 0 0 0 0 1 forward_v I I I I #
coedge $-1 $335 $336 $223 $337 forward $129 $-1 #
coedge $-1 $338 $131 $132 $227 reversed $81 $-1 #
coedge $-1 $131 $338 $221 $337 reversed $81 $-1 #
coedge $-1 $339 $340 $131 $225 forward $333 $-1 #
edge $-1 $341 2.27850052610503 $342 7.9432291147639331 $224 $343 forward 7 unknown #
coedge $-1 $133 $132 $340 $344 reversed $52 $-1 #
edge $-1 $232 -68.48597674489578 $341 68.48597674489578 $222 $345 forward 7 unknown #
coedge $-1 $346 $347 $133 $229 forward $348 $-1 #
edge $-1 $233 -68.48597674489578 $349 68.48597674489578 $228 $350 forward 7 unknown #
coedge $-1 $351 $134 $347 $352 reversed $219 $-1 #
coedge $-1 $134 $351 $338 $353 forward $219 $-1 #
vertex $-1 $135 $354 #
vertex $-1 $229 $355 #
straight-curve $-1 68.48597674489578 12.76417991724019 7.3893653465395115 0 1 0 I I #
face $-1 $-1 $356 $30 $-1 $357 forward single #
loop $-1 $-1 $241 $136 #
plane-surface $-1 0 0 13.054093935198415 0 0 1 1 0 0 forward_v I I I I #
coedge $-1 $358 $359 $240 $360 forward $137 $-1 #
coedge $-1 $240 $139 $141 $246 reversed $85 $-1 #
coedge $-1 $139 $239 $238 $360 reversed $85 $-1 #
coedge $-1 $361 $142 $139 $242 forward $236 $-1 #
edge $-1 $249 -27.554325313312432 $362 -25.067607821363538 $241 $363 forward 7 unknown #
coedge $-1 $141 $140 $358 $364 reversed $55 $-1 #
coedge $-1 $365 $366 $140 $245 forward $356 $-1 #
edge $-1 $367 -17.760082202920572 $248 -12.786647085759864 $244 $368 forward 7 unknown #
edge $-1 $369 0 $249 4.9734351171607081 $239 $370 forward 7 unknown #
coedge $-1 $142 $361 $365 $371 forward $236 $-1 #
vertex $-1 $245 $372 #
vertex $-1 $143 $373 #
straight-curve $-1 -65.999259252946899 -7.7716252564321966 13.054093935198416 0 1 0 I I #
coedge $-1 $251 $251 $-1 $374 reversed $146 $-1 #
edge $-1 $375 0 $375 6.2831853071796004 $147 $376 forward 7 unknown #
vertex $-1 $150 $377 #
ellipse-curve $-1 -67.242617998921332 -17.715346442813818 10.900533338196167 -0.86602541151947299 0 0.49999998660252726 0.24999999330126363 0 0.43301270575973649 1 I I #
coedge $-1 $255 $255 $-1 $378 reversed $153 $-1 #
edge $-1 $379 0 $379 6.2831853071796004 $154 $380 forward 7 unknown #
vertex $-1 $157 $381 #
ellipse-curve $-1 -67.242617998921332 -15.543250512864393 10.900533338196167 -0.86602541151947299 0 0.49999998660252726 0.24999999330126363 0 0.43301270575973649 1 I I #
coedge $-1 $259 $259 $-1 $382 reversed $160 $-1 #
edge $-1 $383 0 $383 6.2831853071796004 $161 $384 forward 7 unknown #
vertex $-1 $164 $385 #
ellipse-curve $-1 -67.242617998921332 -13.371154582914972 10.900533338196167 -0.86602541151947299 0 0.49999998660252726 0.24999999330126363 0 0.43301270575973649 1 I I #
face $-1 $-1 $386 $34 $-1 $387 reversed single #
loop $-1 $-1 $171 $165 #
plane-surface $-1 0 0 13.054093935198415 0 0 1 1 0 0 forward_v I I I I #
coedge $-1 $388 $389 $390 $391 reversed $166 $-1 #
coedge $-1 $392 $168 $170 $273 forward $104 $-1 #
coedge $-1 $168 $392 $388 $393 forward $104 $-1 #
coedge $-1 $390 $171 $168 $270 forward $264 $-1 #
edge $-1 $276 -5.9255769271271479 $394 4.3390290232671926 $269 $395 forward 7 unknown #
coedge $-1 $396 $397 $169 $272 forward $386 $-1 #
edge $-1 $398 -92.608573010819853 $275 -85.102073251114689 $271 $399 forward 7 unknown #
edge $-1 $276 127.80820942359162 $398 136.97195348979162 $170 $400 forward 7 unknown #
coedge $-1 $171 $390 $396 $401 forward $264 $-1 #
vertex $-1 $272 $402 #
vertex $-1 $172 $403 #
straight-curve $-1 51.061475099407197 6.7188508790571255 13.054093935198409 -1 0 0 I I #
coedge $-1 $278 $278 $-1 $404 reversed $175 $-1 #
edge $-1 $405 0 $405 6.2831853071796004 $176 $406 forward 7 unknown #
vertex $-1 $179 $407 #
ellipse-curve $-1 65.857922965558188 1.5865479038599553 9.3008440553458485 0.81915205242281985 0 0.57357642473473569 0.57357642473473569 0 -0.81915205242281985 1 I I #
face $-1 $-1 $195 $27 $-1 $408 reversed single #
loop $-1 $-1 $298 $180 #
plane-surface $-1 0 31.893309272847322 0 0 -1 0 0 0 -1 forward_v I I I I #
coedge $-1 $409 $296 $299 $410 forward $181 $-1 #
coedge $-1 $302 $183 $184 $290 reversed $113 $-1 #
coedge $-1 $296 $409 $183 $288 reversed $181 $-1 #
edge $-1 $303 -13.054093935198415 $411 13.054093935198415 $287 $412 forward 7 unknown #
coedge $-1 $185 $184 $409 $413 forward $73 $-1 #
edge $-1 $294 -68.48597674489578 $411 68.48597674489578 $286 $414 forward 7 unknown #
coedge $-1 $299 $298 $185 $292 reversed $283 $-1 #
edge $-1 $415 -68.48597674489578 $293 68.48597674489578 $291 $416 forward 7 unknown #
vertex $-1 $187 $417 #
vertex $-1 $305 $418 #
straight-curve $-1 68.48597674489578 0 -13.054093935198415 0 -1 0 I I #
coedge $-1 $285 $287 $188 $297 reversed $181 $-1 #
edge $-1 $300 -31.893309272847322 $303 31.893309272847322 $296 $419 forward 7 unknown #
coedge $-1 $291 $189 $194 $306 forward $283 $-1 #
coedge $-1 $189 $291 $285 $410 reversed $283 $-1 #
vertex $-1 $190 $420 #
straight-curve $-1 0 31.893309272847322 13.054093935198415 -1 0 0 I I #
coedge $-1 $191 $286 $193 $305 reversed $113 $-1 #
vertex $-1 $297 $421 #
straight-curve $-1 0 -31.893309272847322 13.054093935198415 1 0 0 I I #
edge $-1 $196 -13.054093935198415 $294 13.054093935198415 $193 $422 forward 7 unknown #
edge $-1 $197 -13.054093935198415 $293 13.054093935198415 $194 $423 forward 7 unknown #
point $-1 68.48597674489578 -31.893309272847322 13.054093935198415 #
point $-1 68.48597674489578 31.893309272847322 13.054093935198415 #
face $-1 $-1 $214 $28 $-1 $424 reversed single #
loop $-1 $-1 $205 $199 #
plane-surface $-1 0 0 13.054093935198415 0 0 1 1 0 0 forward_v I I I I #
coedge $-1 $425 $202 $207 $321 forward $121 $-1 #
coedge $-1 $202 $425 $316 $426 reversed $121 $-1 #
edge $-1 $319 -7.9432291147639331 $326 -2.27850052610503 $202 $427 forward 7 unknown #
edge $-1 $216 2.27850052610503 $318 7.9432291147639331 $212 $428 forward 7 unknown #
coedge $-1 $429 $205 $313 $426 forward $310 $-1 #
coedge $-1 $205 $429 $328 $430 forward $310 $-1 #
vertex $-1 $315 $431 #
vertex $-1 $426 $432 #
straight-curve $-1 0 -19.163410396113431 13.054093935198415 -1 0 0 I I #
edge $-1 $326 6.3992304788732426 $324 19.129129355607134 $312 $433 forward 7 unknown #
coedge $-1 $434 $208 $213 $329 reversed $200 $-1 #
coedge $-1 $208 $434 $425 $435 forward $200 $-1 #
vertex $-1 $209 $436 #
straight-curve $-1 0 -31.893309272847322 7.3893653465395115 1 0 0 I I #
vertex $-1 $321 $437 #
straight-curve $-1 0 -19.163410396113431 7.3893653465395115 1 0 0 I I #
coedge $-1 $213 $212 $317 $430 reversed $214 $-1 #
edge $-1 $438 -13.054093935198415 $215 -7.3893653465395115 $213 $439 forward 7 unknown #
point $-1 68.48597674489578 -31.893309272847322 7.3893653465395115 #
point $-1 68.48597674489578 -19.163410396113431 7.3893653465395115 #
face $-1 $-1 $348 $29 $-1 $440 reversed single #
loop $-1 $-1 $224 $218 #
plane-surface $-1 -68.48597674489578 0 0 1 0 0 0 0 -1 forward_v I I I I #
coedge $-1 $441 $221 $351 $442 forward $129 $-1 #
coedge $-1 $221 $441 $339 $443 forward $129 $-1 #
edge $-1 $342 -68.48597674489578 $444 68.48597674489578 $221 $445 forward 7 unknown #
coedge $-1 $223 $222 $231 $353 reversed $81 $-1 #
coedge $-1 $446 $224 $336 $443 reversed $333 $-1 #
coedge $-1 $224 $446 $226 $344 forward $333 $-1 #
vertex $-1 $344 $447 #
vertex $-1 $225 $448 #
straight-curve $-1 -68.48597674489578 19.163410396113434 5.1108648204344815 0 0 1 I I #
edge $-1 $349 -19.129129355607134 $341 -6.3992304788732444 $340 $449 forward 7 unknown #
straight-curve $-1 0 19.163410396113434 7.3893653465395115 -1 0 0 I I #
coedge $-1 $450 $228 $446 $451 reversed $348 $-1 #
coedge $-1 $228 $450 $230 $352 forward $348 $-1 #
loop $-1 $-1 $228 $332 #
vertex $-1 $229 $452 #
straight-curve $-1 0 31.893309272847322 7.3893653465395115 -1 0 0 I I #
coedge $-1 $231 $230 $335 $442 reversed $219 $-1 #
edge $-1 $453 -13.054093935198415 $233 -7.3893653465395115 $230 $454 forward 7 unknown #
edge $-1 $444 -7.9432291147639331 $232 -2.27850052610503 $231 $455 forward 7 unknown #
point $-1 68.48597674489578 19.163410396113434 7.3893653465395115 #
point $-1 68.48597674489578 31.893309272847326 7.3893653465395115 #
loop $-1 $-1 $244 $235 #
plane-surface $-1 0 -19.163410396113431 10.221729640868963 0 -1 0 0 0 -1 forward_v I I I I #
coedge $-1 $456 $238 $243 $364 forward $137 $-1 #
coedge $-1 $238 $456 $361 $457 reversed $137 $-1 #
edge $-1 $362 25.562379890307426 $369 29.869501084311928 $238 $458 forward 7 unknown #
coedge $-1 $247 $241 $359 $457 forward $236 $-1 #
vertex $-1 $457 $459 #
straight-curve $-1 -93.553584566259318 -11.923090629615357 13.054093935198416 -1 0 0 I I #
edge $-1 $369 4.1514653731831608 $367 11.391785139681231 $358 $460 forward 7 unknown #
coedge $-1 $366 $244 $247 $371 reversed $356 $-1 #
coedge $-1 $244 $365 $456 $461 reversed $356 $-1 #
vertex $-1 $461 $462 #
straight-curve $-1 -59.605935881375714 -19.163410396113431 24.127655239597875 0.49999998660252726 0 0.86602541151947299 I I #
vertex $-1 $364 $463 #
straight-curve $-1 -68.48597674489578 -11.923090629615357 8.7469727411939147 0.49999998660252726 0 0.86602541151947299 I I #
edge $-1 $464 -68.48597674489578 $248 -65.999259252946885 $247 $465 forward 7 unknown #
point $-1 -65.999259252946885 -19.163410396113427 13.054093935198415 #
point $-1 -65.999259252946885 -11.923090629615357 13.054093935198415 #
edge $-1 $466 1 $466 0 $251 $-1 forward 7 unknown #
vertex $-1 $252 $467 #
ellipse-curve $-1 -66.376592587401859 -17.715346442813818 10.400533351593641 -0.86602541151947299 0 0.49999998660252726 0.24999999330126363 0 0.43301270575973649 1 I I #
point $-1 -66.992618005620074 -17.715346442813818 11.333546043955906 #
edge $-1 $468 1 $468 0 $255 $-1 forward 7 unknown #
vertex $-1 $256 $469 #
ellipse-curve $-1 -66.376592587401859 -15.543250512864393 10.400533351593641 -0.86602541151947299 0 0.49999998660252726 0.24999999330126363 0 0.43301270575973649 1 I I #
point $-1 -66.992618005620074 -15.543250512864393 11.333546043955906 #
edge $-1 $470 1 $470 0 $259 $-1 forward 7 unknown #
vertex $-1 $260 $471 #
ellipse-curve $-1 -66.376592587401859 -13.371154582914972 10.400533351593641 -0.86602541151947299 0 0.49999998660252726 0.24999999330126363 0 0.43301270575973649 1 I I #
point $-1 -66.992618005620074 -13.371154582914972 11.333546043955906 #
loop $-1 $-1 $271 $263 #
plane-surface $-1 68.48597674489578 0 0 -1 0 0 0 0 1 forward_v I I I I #
coedge $-1 $389 $266 $268 $393 reversed $166 $-1 #
coedge $-1 $266 $388 $472 $473 reversed $166 $-1 #
coedge $-1 $274 $269 $266 $391 forward $264 $-1 #
edge $-1 $394 12.168394086813443 $474 17.424501645488583 $390 $475 forward 7 unknown #
coedge $-1 $268 $267 $397 $476 reversed $104 $-1 #
edge $-1 $477 -136.97195348979162 $394 -127.80820942359162 $388 $478 forward 7 unknown #
vertex $-1 $270 $479 #
straight-curve $-1 63.22986918622064 0.79327395192997763 13.054093935198409 0 -1 0 I I #
coedge $-1 $472 $271 $274 $401 reversed $386 $-1 #
coedge $-1 $271 $472 $392 $476 forward $386 $-1 #
vertex $-1 $272 $480 #
straight-curve $-1 68.48597674489578 6.7188508790571255 98.156167186313098 0 0 1 I I #
straight-curve $-1 -10.077906626711382 6.7188508790571255 117.74845100101905 0.57357642473473569 0 -0.81915205242281985 I I #
edge $-1 $474 -3.545755071337215 $275 6.7188508790571255 $396 $481 forward 7 unknown #
point $-1 68.48597674489578 6.7188508790571255 13.054093935198415 #
point $-1 63.22986918622064 6.7188508790571255 13.054093935198409 #
edge $-1 $482 1 $482 0 $278 $-1 forward 7 unknown #
vertex $-1 $279 $483 #
ellipse-curve $-1 62.789733917250288 1.5865479038599553 7.1524750199102343 0.81915205242281985 0 0.57357642473473569 0.57357642473473569 0 -0.81915205242281985 1 I I #
point $-1 66.431499390292927 1.5865479038599553 8.4816920029230314 #
plane-surface $-1 68.48597674489578 0 0 -1 0 0 0 0 1 forward_v I I I I #
coedge $-1 $287 $285 $289 $413 reversed $181 $-1 #
edge $-1 $300 -13.054093935198415 $415 13.054093935198415 $299 $484 forward 7 unknown #
vertex $-1 $413 $485 #
straight-curve $-1 -68.48597674489578 -31.893309272847322 0 0 0 -1 I I #
edge $-1 $411 -31.893309272847322 $415 31.893309272847322 $409 $486 forward 7 unknown #
straight-curve $-1 0 -31.893309272847322 -13.054093935198415 -1 0 0 I I #
vertex $-1 $292 $487 #
straight-curve $-1 0 31.893309272847322 -13.054093935198415 1 0 0 I I #
point $-1 68.48597674489578 31.893309272847322 -13.054093935198415 #
point $-1 68.48597674489578 -31.893309272847322 -13.054093935198415 #
straight-curve $-1 -68.48597674489578 0 13.054093935198415 0 -1 0 I I #
point $-1 -68.48597674489578 31.893309272847322 13.054093935198415 #
point $-1 -68.48597674489578 -31.893309272847322 13.054093935198415 #
straight-curve $-1 68.48597674489578 -31.893309272847322 0 0 0 -1 I I #
straight-curve $-1 68.48597674489578 31.893309272847322 0 0 0 -1 I I #
plane-surface $-1 68.48597674489578 0 0 -1 0 0 0 0 1 forward_v I I I I #
coedge $-1 $313 $312 $323 $435 reversed $121 $-1 #
edge $-1 $319 19.163410396113431 $488 31.893309272847322 $313 $489 forward 7 unknown #
straight-curve $-1 -68.48597674489578 -19.163410396113431 5.1108648204344815 0 0 -1 I I #
straight-curve $-1 68.48597674489578 -19.163410396113431 5.1108648204344815 0 0 1 I I #
coedge $-1 $317 $316 $434 $490 forward $310 $-1 #
edge $-1 $438 -31.893309272847322 $318 -19.163410396113431 $328 $491 forward 7 unknown #
point $-1 68.48597674489578 -19.163410396113431 13.054093935198415 #
point $-1 -68.48597674489578 -19.163410396113431 13.054093935198415 #
straight-curve $-1 -68.48597674489578 -12.764179917240188 7.3893653465395115 0 -1 0 I I #
coedge $-1 $323 $322 $429 $490 reversed $200 $-1 #
edge $-1 $488 -13.054093935198415 $324 -7.3893653465395115 $425 $492 forward 7 unknown #
point $-1 -68.48597674489578 -31.893309272847322 7.3893653465395115 #
point $-1 -68.48597674489578 -19.163410396113431 7.3893653465395115 #
vertex $-1 $430 $493 #
straight-curve $-1 68.48597674489578 -31.893309272847322 0 0 0 -1 I I #
plane-surface $-1 0 31.893309272847322 0 0 -1 0 0 0 -1 forward_v I I I I #
coedge $-1 $336 $335 $450 $494 forward $129 $-1 #
edge $-1 $444 19.163410396113434 $453 31.893309272847322 $351 $495 forward 7 unknown #
edge $-1 $496 -31.893309272847322 $342 -19.163410396113434 $339 $497 forward 7 unknown #
vertex $-1 $442 $498 #
straight-curve $-1 0 19.163410396113434 13.054093935198415 1 0 0 I I #
coedge $-1 $340 $339 $346 $451 forward $333 $-1 #
point $-1 -68.48597674489578 19.163410396113434 7.3893653465395115 #
point $-1 -68.48597674489578 19.163410396113434 13.054093935198415 #
straight-curve $-1 -68.48597674489578 12.76417991724019 7.3893653465395115 0 -1 0 I I #
coedge $-1 $347 $346 $441 $494 reversed $348 $-1 #
edge $-1 $496 -13.054093935198415 $349 -7.3893653465395115 $346 $499 forward 7 unknown #
point $-1 -68.48597674489578 31.893309272847326 7.3893653465395115 #
vertex $-1 $442 $500 #
straight-curve $-1 68.48597674489578 31.893309272847322 0 0 0 -1 I I #
straight-curve $-1 68.48597674489578 19.163410396113434 5.1108648204344815 0 0 -1 I I #
coedge $-1 $359 $358 $366 $461 forward $137 $-1 #
edge $-1 $362 11.923090629615357 $464 19.163410396113431 $359 $501 forward 7 unknown #
straight-curve $-1 -68.48597674489578 -11.923090629615357 38.616473825505842 0 0 -1 I I #
point $-1 -68.48597674489578 -11.923090629615357 13.054093935198415 #
straight-curve $-1 -68.48597674489578 -7.7716252564321966 8.7469727411939182 0 -1 0 I I #
edge $-1 $367 3.6361079207594331 $464 7.9432291147639331 $456 $502 forward 7 unknown #
point $-1 -68.48597674489578 -19.163410396113427 8.7469727411939147 #
point $-1 -68.48597674489578 -11.923090629615357 8.7469727411939147 #
vertex $-1 $461 $503 #
straight-curve $-1 0 -19.163410396113431 13.054093935198415 1 0 0 I I #
vertex $-1 $374 $504 #
point $-1 -66.1265925941006 -17.715346442813818 10.833546057353377 #
vertex $-1 $378 $505 #
point $-1 -66.1265925941006 -15.543250512864393 10.833546057353377 #
vertex $-1 $382 $506 #
point $-1 -66.1265925941006 -13.371154582914972 10.833546057353377 #
coedge $-1 $397 $396 $389 $473 forward $386 $-1 #
edge $-1 $474 85.102073251114689 $477 92.608573010819853 $472 $507 forward 7 unknown #
vertex $-1 $401 $508 #
straight-curve $-1 51.061475099407197 -3.545755071337215 13.054093935198409 1 0 0 I I #
edge $-1 $477 -4.3390290232671926 $398 5.9255769271271479 $397 $509 forward 7 unknown #
vertex $-1 $476 $510 #
straight-curve $-1 -10.077906626711382 -3.545755071337215 117.74845100101905 -0.57357642473473569 0 0.81915205242281985 I I #
point $-1 63.22986918622064 -3.545755071337215 13.054093935198409 #
point $-1 68.48597674489578 6.7188508790571255 5.547594175493245 #
straight-curve $-1 68.48597674489578 0 13.054093935198415 0 1 0 I I #
vertex $-1 $404 $511 #
point $-1 63.36331034198502 1.5865479038599553 6.3333229674874145 #
straight-curve $-1 -68.48597674489578 31.893309272847322 0 0 0 -1 I I #
point $-1 -68.48597674489578 -31.893309272847322 -13.054093935198415 #
straight-curve $-1 -68.48597674489578 0 -13.054093935198415 0 1 0 I I #
point $-1 -68.48597674489578 31.893309272847322 -13.054093935198415 #
vertex $-1 $426 $512 #
straight-curve $-1 -68.48597674489578 0 13.054093935198415 0 -1 0 I I #
edge $-1 $488 -68.48597674489578 $438 68.48597674489578 $434 $513 forward 7 unknown #
straight-curve $-1 68.48597674489578 0 13.054093935198415 0 1 0 I I #
straight-curve $-1 -68.48597674489578 -31.893309272847322 0 0 0 -1 I I #
point $-1 68.48597674489578 -31.893309272847322 13.054093935198415 #
edge $-1 $453 -68.48597674489578 $496 68.48597674489578 $450 $514 forward 7 unknown #
straight-curve $-1 68.48597674489578 0 13.054093935198415 0 1 0 I I #
vertex $-1 $494 $515 #
straight-curve $-1 -68.48597674489578 0 13.054093935198415 0 -1 0 I I #
point $-1 68.48597674489578 19.163410396113434 13.054093935198415 #
straight-curve $-1 -68.48597674489578 31.893309272847322 0 0 0 -1 I I #
point $-1 68.48597674489578 31.893309272847322 13.054093935198415 #
straight-curve $-1 -68.48597674489578 0 13.054093935198415 0 -1 0 I I #
straight-curve $-1 -68.48597674489578 -19.163410396113431 5.1108648204344815 0 0 1 I I #
point $-1 -68.48597674489578 -19.163410396113431 13.054093935198415 #
point $-1 -65.943579881642137 -17.715346442813818 10.150533358292378 #
point $-1 -65.943579881642137 -15.543250512864393 10.150533358292378 #
point $-1 -65.943579881642137 -13.371154582914972 10.150533358292378 #
straight-curve $-1 68.48597674489578 -3.545755071337215 98.156167186313098 0 0 -1 I I #
point $-1 68.48597674489578 -3.545755071337215 13.054093935198415 #
straight-curve $-1 68.485976744895794 0.79327395192997763 5.547594175493245 0 1 0 I I #
point $-1 68.48597674489578 -3.545755071337215 5.547594175493245 #
point $-1 61.970581864827466 1.5865479038599553 6.5788985951754988 #
point $-1 -68.48597674489578 -31.893309272847322 13.054093935198415 #
straight-curve $-1 0 -31.893309272847322 13.054093935198415 1 0 0 I I #
straight-curve $-1 0 31.893309272847322 13.054093935198415 -1 0 0 I I #
point $-1 -68.48597674489578 31.893309272847322 13.054093935198415 #
End-of-ACIS-data 