500 0 10 0           
7 Unknown 11 ACIS 5.0 NT 24 Fri Mar 26 15:09:16 1999 
-1 9.9999999999999995e-007 1e-010 
body $-1 $10 $-1 $11 #
body $-1 $12 $-1 $13 #
body $-1 $14 $-1 $15 #
body $-1 $16 $-1 $17 #
body $-1 $18 $-1 $19 #
body $-1 $20 $-1 $21 #
body $-1 $22 $-1 $23 #
body $-1 $24 $-1 $25 #
body $-1 $26 $-1 $27 #
body $-1 $28 $-1 $29 #
lump $-1 $-1 $30 $0 #
transform $-1 1 0 0 0 1 0 0 0 1 54.77706228827784 25.925948307870289 10.114340110756782 1 rotate no_reflect no_shear #
lump $-1 $-1 $31 $1 #
transform $-1 1 0 0 0 1 0 0 0 1 54.77706228827784 25.925948307870289 10.114340110756782 1 rotate no_reflect no_shear #
lump $-1 $-1 $32 $2 #
transform $-1 1 0 0 0 1 0 0 0 1 54.77706228827784 25.925948307870289 10.114340110756782 1 rotate no_reflect no_shear #
lump $-1 $-1 $33 $3 #
transform $-1 1 0 0 0 1 0 0 0 1 54.77706228827784 25.925948307870289 10.114340110756782 1 rotate no_reflect no_shear #
lump $-1 $-1 $34 $4 #
transform $-1 1 0 0 0 1 0 0 0 1 54.77706228827784 25.925948307870289 10.114340110756782 1 rotate no_reflect no_shear #
lump $-1 $-1 $35 $5 #
transform $-1 1 0 0 0 1 0 0 0 1 54.77706228827784 25.925948307870289 10.114340110756782 1 rotate no_reflect no_shear #
lump $-1 $-1 $36 $6 #
transform $-1 1 0 0 0 1 0 0 0 1 54.77706228827784 25.925948307870289 10.114340110756782 1 rotate no_reflect no_shear #
lump $-1 $-1 $37 $7 #
transform $-1 1 0 0 0 1 0 0 0 1 54.77706228827784 25.925948307870289 10.114340110756782 1 rotate no_reflect no_shear #
lump $-1 $-1 $38 $8 #
transform $-1 1 0 0 0 1 0 0 0 1 54.77706228827784 25.925948307870289 10.114340110756782 1 rotate no_reflect no_shear #
lump $-1 $-1 $39 $9 #
transform $-1 1 0 0 0 1 0 0 0 1 54.77706228827784 25.925948307870289 10.114340110756782 1 rotate no_reflect no_shear #
shell $-1 $-1 $-1 $40 $-1 $10 #
shell $-1 $-1 $-1 $41 $-1 $12 #
shell $-1 $-1 $-1 $42 $-1 $14 #
shell $-1 $-1 $-1 $43 $-1 $16 #
shell $-1 $-1 $-1 $44 $-1 $18 #
shell $-1 $-1 $-1 $45 $-1 $20 #
shell $-1 $-1 $-1 $46 $-1 $22 #
shell $-1 $-1 $-1 $47 $-1 $24 #
shell $-1 $-1 $-1 $48 $-1 $26 #
shell $-1 $-1 $-1 $49 $-1 $28 #
face $-1 $50 $51 $30 $-1 $52 forward single #
face $-1 $53 $54 $31 $-1 $55 forward single #
face $-1 $56 $57 $32 $-1 $58 forward single #
face $-1 $59 $60 $33 $-1 $61 reversed single #
face $-1 $62 $63 $34 $-1 $64 forward single #
face $-1 $65 $66 $35 $-1 $67 forward single #
face $-1 $68 $69 $36 $-1 $70 reversed single #
face $-1 $71 $72 $37 $-1 $73 forward single #
face $-1 $74 $75 $38 $-1 $76 forward single #
face $-1 $77 $78 $39 $-1 $79 forward single #
face $-1 $80 $81 $30 $-1 $82 reversed single #
loop $-1 $-1 $83 $40 #
plane-surface $-1 0 0 10.114340110756782 0 0 1 1 0 0 forward_v I I I I #
face $-1 $84 $85 $31 $-1 $86 reversed single #
loop $-1 $-1 $87 $41 #
plane-surface $-1 -51.340523317225305 0 -4.6097462451259439 0 0 1 1 0 0 forward_v I I I I #
face $-1 $88 $89 $32 $-1 $90 reversed single #
loop $-1 $-1 $91 $42 #
plane-surface $-1 51.340523317225298 0 -4.6097462451259439 0 0 1 1 0 0 forward_v I I I I #
face $-1 $92 $93 $33 $-1 $94 reversed single #
loop $-1 $-1 $95 $43 #
plane-surface $-1 -8.5888180376584913 -100.64168249547616 82.64530290194962 1 0 0 0 0.68199836817093118 -0.7313536940579346 forward_v I I I I #
face $-1 $96 $97 $34 $-1 $98 forward single #
loop $-1 $99 $100 $44 #
cone-surface $-1 -2.4191038113804879 -21.20817067191318 5.6244355044854135 0 0.68199836817093118 -0.7313536940579346 1 0 0 1 I I 0 1 1 forward I I I I #
face $-1 $101 $102 $35 $-1 $103 forward single #
loop $-1 $104 $105 $45 #
cone-surface $-1 6.83546752803651 -21.20817067191318 5.6244355044854135 0 0.68199836817093118 -0.7313536940579346 1 0 0 1 I I 0 1 1 forward I I I I #
face $-1 $106 $107 $36 $-1 $108 reversed single #
loop $-1 $-1 $109 $46 #
plane-surface $-1 17.027311346401071 84.079318240672848 109.11988198616841 -1 0 0 0 0.80901700255871778 0.5877852410284794 forward_v I I I I #
face $-1 $110 $111 $37 $-1 $112 forward single #
loop $-1 $113 $114 $47 #
cone-surface $-1 8.6567234752976177 22.855820149157097 6.1515366794754556 0 -0.80901700255871778 -0.5877852410284794 0.5 0 0 1 I I 0 1 0.5 forward I I I I #
face $-1 $115 $116 $38 $-1 $117 forward single #
loop $-1 $118 $119 $48 #
cone-surface $-1 11.795693926961413 22.855820149157097 6.1515366794754556 0 -0.80901700255871778 -0.5877852410284794 0.5 0 0 1 I I 0 1 0.5 forward I I I I #
face $-1 $120 $121 $39 $-1 $122 forward single #
loop $-1 $123 $124 $49 #
cone-surface $-1 14.934664378625207 22.855820149157097 6.1515366794754556 0 -0.80901700255871778 -0.5877852410284794 0.5 0 0 1 I I 0 1 0.5 forward I I I I #
face $-1 $125 $126 $30 $-1 $127 reversed single #
loop $-1 $-1 $128 $50 #
plane-surface $-1 0 0 -10.114340110756782 0 0 1 1 0 0 forward_v I I I I #
coedge $-1 $129 $130 $131 $132 forward $51 $-1 #
face $-1 $133 $134 $31 $-1 $135 reversed single #
loop $-1 $-1 $136 $53 #
plane-surface $-1 -47.903984346172763 0 -7.3620431779413629 -1 0 0 0 0 1 forward_v I I I I #
coedge $-1 $137 $138 $139 $140 forward $54 $-1 #
face $-1 $141 $142 $32 $-1 $143 reversed single #
loop $-1 $-1 $144 $56 #
plane-surface $-1 47.903984346172763 0 -7.3620431779413629 1 0 0 0 0 -1 forward_v I I I I #
coedge $-1 $145 $146 $147 $148 reversed $57 $-1 #
face $-1 $149 $150 $33 $-1 $151 reversed single #
loop $-1 $-1 $152 $59 #
plane-surface $-1 2.2081818583280111 -25.925948307870286 2.5224891936024676 0 -0.68199836817093118 0.7313536940579346 1 0 0 forward_v I I I I #
coedge $-1 $153 $154 $155 $156 reversed $60 $-1 #
face $-1 $-1 $157 $34 $-1 $158 forward single #
loop $-1 $159 $160 $62 #
cone-surface $-1 -2.4191038113804879 -20.220025448753198 4.5647795097622321 0 0.68199836817093118 -0.7313536940579346 0.5 0 0 1 I I -0.70710678118654746 0.70710678118654746 0.5 forward I I I I #
loop $-1 $-1 $161 $44 #
coedge $-1 $100 $100 $162 $163 reversed $63 $-1 #
face $-1 $-1 $164 $35 $-1 $165 forward single #
loop $-1 $166 $167 $65 #
cone-surface $-1 6.83546752803651 -20.220025448753198 4.5647795097622321 0 0.68199836817093118 -0.7313536940579346 0.5 0 0 1 I I -0.70710678118654746 0.70710678118654746 0.5 forward I I I I #
loop $-1 $-1 $168 $45 #
coedge $-1 $105 $105 $169 $170 reversed $66 $-1 #
face $-1 $171 $172 $36 $-1 $173 reversed single #
loop $-1 $-1 $174 $68 #
plane-surface $-1 11.795693926961413 -4.5518312421965845 44.725584466273574 0 0.80901700255871778 0.5877852410284794 1 0 0 forward_v I I I I #
coedge $-1 $175 $176 $177 $178 reversed $69 $-1 #
face $-1 $-1 $179 $37 $-1 $180 forward single #
loop $-1 $181 $182 $71 #
cone-surface $-1 8.6567234752976177 22.249057397238058 5.7106977487040957 0 -0.80901700255871778 -0.5877852410284794 0.25 0 0 1 I I -0.70710678118654746 0.70710678118654746 0.25 forward I I I I #
loop $-1 $-1 $183 $47 #
coedge $-1 $114 $114 $184 $185 reversed $72 $-1 #
face $-1 $-1 $186 $38 $-1 $187 forward single #
loop $-1 $188 $189 $74 #
cone-surface $-1 11.795693926961413 22.249057397238058 5.7106977487040957 0 -0.80901700255871778 -0.5877852410284794 0.25 0 0 1 I I -0.70710678118654746 0.70710678118654746 0.25 forward I I I I #
loop $-1 $-1 $190 $48 #
coedge $-1 $119 $119 $191 $192 reversed $75 $-1 #
face $-1 $-1 $193 $39 $-1 $194 forward single #
loop $-1 $195 $196 $77 #
cone-surface $-1 14.934664378625207 22.249057397238058 5.7106977487040957 0 -0.80901700255871778 -0.5877852410284794 0.25 0 0 1 I I -0.70710678118654746 0.70710678118654746 0.25 forward I I I I #
loop $-1 $-1 $197 $49 #
coedge $-1 $124 $124 $198 $199 reversed $78 $-1 #
face $-1 $200 $201 $30 $-1 $202 reversed single #
loop $-1 $-1 $203 $80 #
plane-surface $-1 0 -25.925948307870289 0 0 1 0 0 0 1 forward_v I I I I #
coedge $-1 $204 $205 $206 $207 forward $81 $-1 #
coedge $-1 $208 $83 $209 $210 forward $51 $-1 #
coedge $-1 $83 $208 $211 $212 forward $51 $-1 #
coedge $-1 $213 $214 $83 $132 reversed $215 $-1 #
edge $-1 $216 -25.925948307870289 $217 25.925948307870289 $131 $218 forward 7 unknown #
face $-1 $219 $220 $31 $-1 $221 reversed single #
loop $-1 $-1 $222 $84 #
plane-surface $-1 0 0 -10.114340110756782 0 0 1 1 0 0 forward_v I I I I #
coedge $-1 $223 $139 $224 $225 reversed $85 $-1 #
coedge $-1 $226 $87 $227 $228 reversed $54 $-1 #
coedge $-1 $87 $226 $229 $230 reversed $54 $-1 #
coedge $-1 $136 $231 $87 $140 reversed $85 $-1 #
edge $-1 $232 -25.925948307870289 $233 25.925948307870289 $139 $234 forward 7 unknown #
face $-1 $235 $236 $32 $-1 $237 reversed single #
loop $-1 $-1 $238 $88 #
plane-surface $-1 0 -25.925948307870289 0 0 1 0 0 0 1 forward_v I I I I #
coedge $-1 $239 $240 $241 $242 reversed $89 $-1 #
coedge $-1 $243 $91 $244 $245 reversed $57 $-1 #
coedge $-1 $91 $243 $238 $246 reversed $57 $-1 #
coedge $-1 $247 $248 $91 $148 forward $249 $-1 #
edge $-1 $250 -25.925948307870289 $251 25.925948307870289 $147 $252 forward 7 unknown #
face $-1 $253 $254 $33 $-1 $255 forward single #
loop $-1 $-1 $256 $92 #
plane-surface $-1 13.005181754314513 -100.64168249547616 82.64530290194962 -1 0 0 0 -0.68199836817093118 0.7313536940579346 forward_v I I I I #
coedge $-1 $257 $258 $259 $260 reversed $93 $-1 #
coedge $-1 $154 $95 $261 $262 reversed $60 $-1 #
coedge $-1 $95 $153 $257 $263 reversed $60 $-1 #
coedge $-1 $259 $264 $95 $156 forward $265 $-1 #
edge $-1 $266 31.208311340218028 $267 38.800162257372342 $155 $268 forward 7 unknown #
loop $-1 $-1 $162 $96 #
plane-surface $-1 2.2081818583280111 -25.925948307870286 2.5224891936024676 0 -0.68199836817093118 0.7313536940579346 1 0 0 forward_v I I I I #
loop $-1 $-1 $269 $62 #
coedge $-1 $160 $160 $161 $270 reversed $97 $-1 #
coedge $-1 $161 $161 $160 $270 forward $99 $-1 #
coedge $-1 $162 $162 $100 $163 forward $157 $-1 #
edge $-1 $271 -9.5642691568094888e-016 $271 6.2831853071795996 $162 $272 forward 7 unknown #
loop $-1 $-1 $169 $101 #
plane-surface $-1 2.2081818583280111 -25.925948307870286 2.5224891936024676 0 -0.68199836817093118 0.7313536940579346 1 0 0 forward_v I I I I #
loop $-1 $-1 $273 $65 #
coedge $-1 $167 $167 $168 $274 reversed $102 $-1 #
coedge $-1 $168 $168 $167 $274 forward $104 $-1 #
coedge $-1 $169 $169 $105 $170 forward $164 $-1 #
edge $-1 $275 -9.5642691568094888e-016 $275 6.2831853071795996 $169 $276 forward 7 unknown #
face $-1 $277 $278 $36 $-1 $279 reversed single #
loop $-1 $-1 $280 $106 #
plane-surface $-1 6.5640765075217544 84.079318240672848 109.11988198616841 1 0 0 0 -0.80901700255871778 -0.5877852410284794 forward_v I I I I #
coedge $-1 $281 $282 $283 $284 reversed $107 $-1 #
coedge $-1 $176 $109 $285 $286 reversed $69 $-1 #
coedge $-1 $109 $175 $281 $287 reversed $69 $-1 #
coedge $-1 $283 $288 $109 $178 forward $278 $-1 #
edge $-1 $289 44.445600882327426 $290 51.783422503861601 $177 $291 forward 7 unknown #
loop $-1 $-1 $184 $110 #
plane-surface $-1 11.795693926961413 -4.5518312421965845 44.725584466273574 0 0.80901700255871778 0.5877852410284794 1 0 0 forward_v I I I I #
loop $-1 $-1 $292 $71 #
coedge $-1 $182 $182 $183 $293 reversed $111 $-1 #
coedge $-1 $183 $183 $182 $293 forward $113 $-1 #
coedge $-1 $184 $184 $114 $185 forward $179 $-1 #
edge $-1 $294 2.4696757961896933e-015 $294 6.2831853071796031 $184 $295 forward 7 unknown #
loop $-1 $-1 $191 $115 #
plane-surface $-1 11.795693926961413 -4.5518312421965845 44.725584466273574 0 0.80901700255871778 0.5877852410284794 1 0 0 forward_v I I I I #
loop $-1 $-1 $296 $74 #
coedge $-1 $189 $189 $190 $297 reversed $116 $-1 #
coedge $-1 $190 $190 $189 $297 forward $118 $-1 #
coedge $-1 $191 $191 $119 $192 forward $186 $-1 #
edge $-1 $298 2.4696757961896933e-015 $298 6.2831853071796031 $191 $299 forward 7 unknown #
loop $-1 $-1 $198 $120 #
plane-surface $-1 11.795693926961413 -4.5518312421965845 44.725584466273574 0 0.80901700255871778 0.5877852410284794 1 0 0 forward_v I I I I #
loop $-1 $-1 $300 $77 #
coedge $-1 $196 $196 $197 $301 reversed $121 $-1 #
coedge $-1 $197 $197 $196 $301 forward $123 $-1 #
coedge $-1 $198 $198 $124 $199 forward $193 $-1 #
edge $-1 $302 2.4696757961896933e-015 $302 6.2831853071796031 $198 $303 forward 7 unknown #
face $-1 $304 $305 $30 $-1 $306 reversed single #
loop $-1 $-1 $307 $125 #
plane-surface $-1 -54.77706228827784 0 0 1 0 0 0 0 -1 forward_v I I I I #
coedge $-1 $308 $211 $309 $310 forward $126 $-1 #
coedge $-1 $311 $128 $308 $312 forward $81 $-1 #
coedge $-1 $128 $311 $313 $314 forward $81 $-1 #
coedge $-1 $214 $213 $128 $207 reversed $215 $-1 #
edge $-1 $315 -25.925948307870289 $316 25.925948307870289 $206 $317 forward 7 unknown #
coedge $-1 $130 $129 $318 $319 forward $51 $-1 #
coedge $-1 $320 $321 $129 $210 reversed $305 $-1 #
edge $-1 $217 -54.77706228827784 $322 54.77706228827784 $209 $323 forward 7 unknown #
coedge $-1 $203 $324 $130 $212 reversed $126 $-1 #
edge $-1 $325 -54.77706228827784 $216 54.77706228827784 $211 $326 forward 7 unknown #
coedge $-1 $206 $131 $324 $327 forward $215 $-1 #
coedge $-1 $131 $206 $320 $328 reversed $215 $-1 #
loop $-1 $-1 $213 $304 #
vertex $-1 $132 $329 #
vertex $-1 $132 $330 #
straight-curve $-1 54.77706228827784 0 10.114340110756782 0 1 0 I I #
face $-1 $331 $332 $31 $-1 $333 reversed single #
loop $-1 $-1 $224 $133 #
plane-surface $-1 0 -25.925948307870289 0 0 1 0 0 0 1 forward_v I I I I #
coedge $-1 $334 $335 $223 $336 forward $134 $-1 #
coedge $-1 $231 $136 $222 $336 reversed $85 $-1 #
coedge $-1 $229 $337 $136 $225 forward $220 $-1 #
edge $-1 $338 -6.4333185217861004 $232 -0.92872465615526245 $224 $339 forward 7 unknown #
coedge $-1 $138 $137 $340 $341 reversed $54 $-1 #
coedge $-1 $342 $343 $137 $228 forward $344 $-1 #
edge $-1 $345 -29.106800629665194 $233 -22.23372268756011 $227 $346 forward 7 unknown #
coedge $-1 $347 $224 $138 $230 forward $220 $-1 #
edge $-1 $232 22.23372268756011 $348 29.106800629665194 $229 $349 forward 7 unknown #
coedge $-1 $139 $223 $342 $350 reversed $85 $-1 #
vertex $-1 $230 $351 #
vertex $-1 $228 $352 #
straight-curve $-1 -47.903984346172763 0 -4.6097462451259439 0 1 0 I I #
face $-1 $353 $354 $32 $-1 $355 reversed single #
loop $-1 $-1 $356 $141 #
plane-surface $-1 0 0 -10.114340110756782 0 0 1 1 0 0 forward_v I I I I #
coedge $-1 $357 $358 $146 $246 forward $142 $-1 #
coedge $-1 $359 $144 $356 $360 reversed $89 $-1 #
coedge $-1 $144 $359 $243 $361 reversed $89 $-1 #
coedge $-1 $244 $362 $144 $242 forward $354 $-1 #
edge $-1 $363 -6.4333185217861004 $364 -0.92872465615526245 $241 $365 forward 7 unknown #
coedge $-1 $146 $145 $240 $361 forward $57 $-1 #
coedge $-1 $366 $241 $145 $245 forward $354 $-1 #
edge $-1 $364 22.233722687560114 $250 29.106800629665184 $244 $367 forward 7 unknown #
edge $-1 $251 -29.106800629665184 $368 -22.233722687560114 $238 $369 forward 7 unknown #
coedge $-1 $370 $147 $358 $371 forward $249 $-1 #
coedge $-1 $147 $370 $366 $372 reversed $249 $-1 #
loop $-1 $-1 $147 $353 #
vertex $-1 $372 $373 #
vertex $-1 $371 $374 #
straight-curve $-1 54.77706228827784 0 -4.6097462451259439 0 -1 0 I I #
face $-1 $-1 $265 $33 $-1 $375 reversed single #
loop $-1 $-1 $376 $149 #
plane-surface $-1 0 0 10.114340110756782 0 0 1 1 0 0 forward_v I I I I #
coedge $-1 $377 $378 $379 $380 reversed $150 $-1 #
coedge $-1 $381 $152 $154 $263 forward $93 $-1 #
coedge $-1 $152 $381 $377 $382 forward $93 $-1 #
coedge $-1 $379 $155 $152 $260 forward $265 $-1 #
edge $-1 $267 -9.6929089668224968 $383 11.901090825150508 $259 $384 forward 7 unknown #
coedge $-1 $385 $386 $153 $262 forward $254 $-1 #
edge $-1 $387 -32.536156133632986 $266 -24.394892939867791 $261 $388 forward 7 unknown #
edge $-1 $267 -4.7183670880013277e-015 $387 11.131772847954302 $154 $389 forward 7 unknown #
coedge $-1 $155 $379 $385 $390 reversed $265 $-1 #
loop $-1 $-1 $379 $253 #
vertex $-1 $390 $391 #
vertex $-1 $156 $392 #
straight-curve $-1 -8.5888180376584913 -25.925948307870286 41.32265145097481 0 0 -1 I I #
coedge $-1 $269 $269 $-1 $393 reversed $159 $-1 #
edge $-1 $394 0 $394 6.2831853071796004 $160 $395 forward 7 unknown #
vertex $-1 $163 $396 #
ellipse-curve $-1 -2.4191038113804879 -21.85531671098769 6.3184146521796221 0 -0.68199836817093118 0.7313536940579346 1 0 0 1 I I #
coedge $-1 $273 $273 $-1 $397 reversed $166 $-1 #
edge $-1 $398 0 $398 6.2831853071796004 $167 $399 forward 7 unknown #
vertex $-1 $170 $400 #
ellipse-curve $-1 6.83546752803651 -21.85531671098769 6.3184146521796221 0 -0.68199836817093118 0.7313536940579346 1 0 0 1 I I #
face $-1 $-1 $401 $36 $-1 $402 forward single #
loop $-1 $-1 $177 $171 #
plane-surface $-1 0 25.925948307870289 0 0 -1 0 0 0 -1 forward_v I I I I #
coedge $-1 $403 $404 $405 $406 reversed $172 $-1 #
coedge $-1 $407 $174 $176 $287 forward $107 $-1 #
coedge $-1 $174 $407 $403 $408 forward $107 $-1 #
coedge $-1 $405 $177 $174 $284 forward $278 $-1 #
edge $-1 $290 -11.129464382920364 $409 -0.66622954404104817 $283 $410 forward 7 unknown #
coedge $-1 $411 $412 $175 $286 forward $401 $-1 #
edge $-1 $413 -21.444950127333833 $289 -16.113710812466135 $285 $414 forward 7 unknown #
edge $-1 $290 -51.851896615740586 $413 -42.781850376506434 $176 $415 forward 7 unknown #
coedge $-1 $177 $405 $411 $416 reversed $278 $-1 #
vertex $-1 $416 $417 #
vertex $-1 $178 $418 #
straight-curve $-1 17.027311346401071 25.925948307870289 54.559940993084204 0 0 -1 I I #
coedge $-1 $292 $292 $-1 $419 reversed $181 $-1 #
edge $-1 $420 0 $420 6.2831853071796004 $182 $421 forward 7 unknown #
vertex $-1 $185 $422 #
ellipse-curve $-1 8.6567234752976177 23.260328650436445 6.4454292999896889 0 0.80901700255871778 0.5877852410284794 0.5 0 0 1 I I #
coedge $-1 $296 $296 $-1 $423 reversed $188 $-1 #
edge $-1 $424 0 $424 6.2831853071796004 $189 $425 forward 7 unknown #
vertex $-1 $192 $426 #
ellipse-curve $-1 11.795693926961413 23.260328650436445 6.4454292999896889 0 0.80901700255871778 0.5877852410284794 0.5 0 0 1 I I #
coedge $-1 $300 $300 $-1 $427 reversed $195 $-1 #
edge $-1 $428 0 $428 6.2831853071796004 $196 $429 forward 7 unknown #
vertex $-1 $199 $430 #
ellipse-curve $-1 14.934664378625207 23.260328650436445 6.4454292999896889 0 0.80901700255871778 0.5877852410284794 0.5 0 0 1 I I #
face $-1 $-1 $215 $30 $-1 $431 reversed single #
loop $-1 $-1 $320 $200 #
plane-surface $-1 0 25.925948307870289 0 0 -1 0 0 0 -1 forward_v I I I I #
coedge $-1 $432 $318 $321 $433 forward $201 $-1 #
coedge $-1 $324 $203 $204 $312 reversed $126 $-1 #
coedge $-1 $318 $432 $203 $310 reversed $201 $-1 #
edge $-1 $325 -10.114340110756782 $434 10.114340110756782 $309 $435 forward 7 unknown #
coedge $-1 $205 $204 $432 $436 forward $81 $-1 #
edge $-1 $316 -54.77706228827784 $434 54.77706228827784 $308 $437 forward 7 unknown #
coedge $-1 $321 $320 $205 $314 reversed $305 $-1 #
edge $-1 $438 -54.77706228827784 $315 54.77706228827784 $313 $439 forward 7 unknown #
vertex $-1 $207 $440 #
vertex $-1 $327 $441 #
straight-curve $-1 54.77706228827784 0 -10.114340110756782 0 -1 0 I I #
coedge $-1 $307 $309 $208 $319 reversed $201 $-1 #
edge $-1 $322 -25.925948307870289 $325 25.925948307870289 $318 $442 forward 7 unknown #
coedge $-1 $313 $209 $214 $328 forward $305 $-1 #
coedge $-1 $209 $313 $307 $433 reversed $305 $-1 #
vertex $-1 $210 $443 #
straight-curve $-1 0 25.925948307870289 10.114340110756782 -1 0 0 I I #
coedge $-1 $211 $308 $213 $327 reversed $126 $-1 #
vertex $-1 $319 $444 #
straight-curve $-1 0 -25.925948307870289 10.114340110756782 1 0 0 I I #
edge $-1 $216 -10.114340110756782 $316 10.114340110756782 $213 $445 forward 7 unknown #
edge $-1 $217 -10.114340110756782 $315 10.114340110756782 $214 $446 forward 7 unknown #
point $-1 54.77706228827784 -25.925948307870289 10.114340110756782 #
point $-1 54.77706228827784 25.925948307870289 10.114340110756782 #
face $-1 $-1 $344 $31 $-1 $447 reversed single #
loop $-1 $-1 $340 $219 #
plane-surface $-1 -54.77706228827784 0 0 1 0 0 0 0 -1 forward_v I I I I #
coedge $-1 $448 $222 $337 $449 forward $134 $-1 #
coedge $-1 $222 $448 $450 $451 forward $134 $-1 #
edge $-1 $452 -25.925948307870289 $338 25.925948307870289 $222 $453 forward 7 unknown #
coedge $-1 $224 $347 $334 $449 reversed $220 $-1 #
vertex $-1 $449 $454 #
straight-curve $-1 -47.903984346172763 -25.925948307870289 -3.6810215889706814 0 0 1 I I #
coedge $-1 $455 $456 $226 $341 forward $332 $-1 #
edge $-1 $348 -25.925948307870289 $345 25.925948307870289 $340 $457 forward 7 unknown #
coedge $-1 $450 $227 $231 $350 forward $344 $-1 #
coedge $-1 $227 $450 $455 $458 reversed $344 $-1 #
loop $-1 $-1 $342 $331 #
vertex $-1 $458 $459 #
straight-curve $-1 -25.670261658612652 25.925948307870289 -4.6097462451259439 1 0 0 I I #
coedge $-1 $337 $229 $456 $460 forward $220 $-1 #
vertex $-1 $460 $461 #
straight-curve $-1 -25.670261658612652 -25.925948307870289 -4.6097462451259439 -1 0 0 I I #
edge $-1 $233 0.92872465615526245 $452 6.4333185217861004 $342 $462 forward 7 unknown #
point $-1 -47.903984346172763 -25.925948307870289 -4.6097462451259439 #
point $-1 -47.903984346172763 25.925948307870289 -4.6097462451259439 #
face $-1 $-1 $249 $32 $-1 $463 reversed single #
loop $-1 $-1 $244 $235 #
plane-surface $-1 0 25.925948307870289 0 0 -1 0 0 0 -1 forward_v I I I I #
coedge $-1 $464 $465 $239 $360 forward $236 $-1 #
coedge $-1 $466 $238 $359 $467 forward $142 $-1 #
coedge $-1 $238 $466 $247 $371 reversed $142 $-1 #
coedge $-1 $240 $239 $357 $467 reversed $89 $-1 #
edge $-1 $468 -25.925948307870289 $363 25.925948307870289 $356 $469 forward 7 unknown #
edge $-1 $364 -25.925948307870289 $368 25.925948307870289 $240 $470 forward 7 unknown #
coedge $-1 $241 $366 $464 $471 reversed $354 $-1 #
vertex $-1 $471 $472 #
vertex $-1 $245 $473 #
straight-curve $-1 47.903984346172763 25.925948307870289 -3.6810215889706814 0 0 1 I I #
coedge $-1 $362 $244 $248 $372 forward $354 $-1 #
straight-curve $-1 25.670261658612649 25.925948307870289 -4.6097462451259439 1 0 0 I I #
vertex $-1 $246 $474 #
straight-curve $-1 25.670261658612649 -25.925948307870289 -4.6097462451259439 -1 0 0 I I #
coedge $-1 $248 $247 $475 $476 reversed $249 $-1 #
edge $-1 $251 4.6097462451259439 $477 10.114340110756782 $247 $478 forward 7 unknown #
edge $-1 $250 4.6097462451259439 $479 10.114340110756782 $248 $480 forward 7 unknown #
point $-1 54.777062288277833 25.925948307870289 -4.6097462451259439 #
point $-1 54.777062288277833 -25.925948307870289 -4.6097462451259439 #
plane-surface $-1 0 -25.925948307870289 0 0 1 0 0 0 1 forward_v I I I I #
coedge $-1 $386 $385 $378 $481 forward $254 $-1 #
coedge $-1 $378 $256 $258 $382 reversed $150 $-1 #
coedge $-1 $256 $377 $376 $481 reversed $150 $-1 #
coedge $-1 $264 $259 $256 $380 forward $265 $-1 #
edge $-1 $383 -38.800162257372342 $482 -31.208311340218028 $379 $483 forward 7 unknown #
coedge $-1 $258 $257 $386 $484 reversed $93 $-1 #
edge $-1 $485 -11.131772847954302 $383 4.7183670880013277e-015 $377 $486 forward 7 unknown #
vertex $-1 $260 $487 #
straight-curve $-1 1.1040909291640055 -25.925948307870289 2.5224891936024614 1 0 0 I I #
coedge $-1 $376 $261 $264 $390 forward $254 $-1 #
coedge $-1 $261 $376 $381 $484 forward $254 $-1 #
vertex $-1 $262 $488 #
straight-curve $-1 -8.5888180376584913 -50.32084124773808 10.114340110756778 0 -1 0 I I #
straight-curve $-1 -8.5888180376584913 -25.925948307870286 2.5224891936024676 0 0.7313536940579346 0.68199836817093118 I I #
edge $-1 $266 -8.5888180376584913 $482 13.005181754314513 $264 $489 forward 7 unknown #
point $-1 -8.5888180376584913 -25.925948307870289 10.114340110756782 #
point $-1 -8.5888180376584913 -25.925948307870289 2.5224891936024645 #
edge $-1 $490 1 $490 0 $269 $-1 forward 7 unknown #
vertex $-1 $270 $491 #
ellipse-curve $-1 -2.4191038113804879 -20.561024632838663 4.9304563567911996 0 -0.68199836817093118 0.7313536940579346 1 0 0 1 I I #
point $-1 -1.4191038113804879 -21.855316710987697 6.3184146521796283 #
edge $-1 $492 1 $492 0 $273 $-1 forward 7 unknown #
vertex $-1 $274 $493 #
ellipse-curve $-1 6.83546752803651 -20.561024632838663 4.9304563567911996 0 -0.68199836817093118 0.7313536940579346 1 0 0 1 I I #
point $-1 7.83546752803651 -21.855316710987697 6.3184146521796283 #
loop $-1 $-1 $285 $277 #
plane-surface $-1 0 0 10.114340110756782 0 0 1 1 0 0 forward_v I I I I #
coedge $-1 $404 $280 $282 $408 reversed $172 $-1 #
coedge $-1 $280 $403 $494 $495 reversed $172 $-1 #
coedge $-1 $288 $283 $280 $406 forward $278 $-1 #
edge $-1 $409 -51.783422503861601 $496 -44.445600882327426 $405 $497 forward 7 unknown #
coedge $-1 $282 $281 $412 $498 reversed $107 $-1 #
edge $-1 $499 42.781850376506434 $409 51.851896615740586 $403 $500 forward 7 unknown #
vertex $-1 $284 $501 #
straight-curve $-1 5.8978469634807063 25.925948307870293 2.7765184892226067 -1 0 0 I I #
coedge $-1 $494 $285 $288 $416 forward $401 $-1 #
coedge $-1 $285 $494 $407 $498 forward $401 $-1 #
vertex $-1 $286 $502 #
straight-curve $-1 17.027311346401071 42.039659120336424 10.114340110756778 0 1 0 I I #
straight-curve $-1 17.027311346401071 -4.5518312421965845 44.725584466273574 0 -0.5877852410284794 0.80901700255871778 I I #
edge $-1 $289 -17.027311346401071 $496 -6.5640765075217544 $288 $503 forward 7 unknown #
point $-1 17.027311346401071 25.925948307870289 10.114340110756782 #
point $-1 17.027311346401071 25.925948307870289 2.7765184892226031 #
edge $-1 $504 1 $504 0 $292 $-1 forward 7 unknown #
vertex $-1 $293 $505 #
ellipse-curve $-1 8.6567234752976177 22.451311647877738 5.857644058961216 0 0.80901700255871778 0.5877852410284794 0.5 0 0 1 I I #
point $-1 9.1567234752976177 23.260328650436456 6.4454292999896952 #
edge $-1 $506 1 $506 0 $296 $-1 forward 7 unknown #
vertex $-1 $297 $507 #
ellipse-curve $-1 11.795693926961413 22.451311647877738 5.857644058961216 0 0.80901700255871778 0.5877852410284794 0.5 0 0 1 I I #
point $-1 12.295693926961413 23.260328650436456 6.4454292999896952 #
edge $-1 $508 1 $508 0 $300 $-1 forward 7 unknown #
vertex $-1 $301 $509 #
ellipse-curve $-1 14.934664378625207 22.451311647877738 5.857644058961216 0 0.80901700255871778 0.5877852410284794 0.5 0 0 1 I I #
point $-1 15.434664378625207 23.260328650436456 6.4454292999896952 #
plane-surface $-1 54.77706228827784 0 0 -1 0 0 0 0 1 forward_v I I I I #
coedge $-1 $309 $307 $311 $436 reversed $201 $-1 #
edge $-1 $322 -10.114340110756782 $438 10.114340110756782 $321 $510 forward 7 unknown #
vertex $-1 $436 $511 #
straight-curve $-1 -54.77706228827784 -25.925948307870289 0 0 0 -1 I I #
edge $-1 $434 -25.925948307870289 $438 25.925948307870289 $432 $512 forward 7 unknown #
straight-curve $-1 0 -25.925948307870289 -10.114340110756782 -1 0 0 I I #
vertex $-1 $314 $513 #
straight-curve $-1 0 25.925948307870289 -10.114340110756782 1 0 0 I I #
point $-1 54.77706228827784 25.925948307870289 -10.114340110756782 #
point $-1 54.77706228827784 -25.925948307870289 -10.114340110756782 #
straight-curve $-1 -54.77706228827784 0 10.114340110756782 0 -1 0 I I #
point $-1 -54.77706228827784 25.925948307870289 10.114340110756782 #
point $-1 -54.77706228827784 -25.925948307870289 10.114340110756782 #
straight-curve $-1 54.77706228827784 -25.925948307870289 0 0 0 -1 I I #
straight-curve $-1 54.77706228827784 25.925948307870289 0 0 0 -1 I I #
plane-surface $-1 0 25.925948307870289 0 0 -1 0 0 0 -1 forward_v I I I I #
coedge $-1 $335 $334 $514 $515 forward $134 $-1 #
edge $-1 $338 47.903984346172763 $516 54.77706228827784 $337 $517 forward 7 unknown #
coedge $-1 $343 $342 $335 $451 reversed $344 $-1 #
edge $-1 $518 -54.77706228827784 $452 -47.903984346172763 $450 $519 forward 7 unknown #
vertex $-1 $350 $520 #
straight-curve $-1 -47.903984346172763 0 -10.114340110756782 0 -1 0 I I #
point $-1 -47.903984346172763 -25.925948307870289 -10.114340110756782 #
coedge $-1 $514 $340 $343 $458 forward $332 $-1 #
coedge $-1 $340 $514 $347 $460 reversed $332 $-1 #
straight-curve $-1 -54.77706228827784 0 -4.6097462451259439 0 1 0 I I #
edge $-1 $345 4.6097462451259439 $518 10.114340110756782 $343 $521 forward 7 unknown #
point $-1 -54.777062288277847 25.925948307870289 -4.6097462451259439 #
edge $-1 $348 4.6097462451259439 $516 10.114340110756782 $456 $522 forward 7 unknown #
point $-1 -54.777062288277847 -25.925948307870289 -4.6097462451259439 #
straight-curve $-1 -47.903984346172763 25.925948307870289 -3.6810215889706814 0 0 -1 I I #
plane-surface $-1 54.77706228827784 0 0 -1 0 0 0 0 1 forward_v I I I I #
coedge $-1 $475 $356 $362 $471 forward $236 $-1 #
coedge $-1 $356 $475 $466 $523 forward $236 $-1 #
coedge $-1 $358 $357 $465 $523 reversed $142 $-1 #
edge $-1 $368 0.92872465615526245 $468 6.4333185217861004 $357 $524 forward 7 unknown #
vertex $-1 $360 $525 #
straight-curve $-1 47.903984346172763 0 -10.114340110756782 0 1 0 I I #
straight-curve $-1 47.903984346172763 0 -4.6097462451259439 0 -1 0 I I #
edge $-1 $363 47.903984346172763 $479 54.77706228827784 $362 $526 forward 7 unknown #
point $-1 47.903984346172763 25.925948307870289 -10.114340110756782 #
point $-1 47.903984346172763 25.925948307870289 -4.6097462451259439 #
point $-1 47.903984346172763 -25.925948307870289 -4.6097462451259439 #
coedge $-1 $465 $464 $370 $476 forward $236 $-1 #
edge $-1 $479 -25.925948307870289 $477 25.925948307870289 $370 $527 forward 7 unknown #
vertex $-1 $371 $528 #
straight-curve $-1 54.77706228827784 -25.925948307870289 0 0 0 -1 I I #
vertex $-1 $476 $529 #
straight-curve $-1 54.77706228827784 25.925948307870289 0 0 0 -1 I I #
edge $-1 $482 24.394892939867791 $485 32.536156133632986 $376 $530 forward 7 unknown #
vertex $-1 $481 $531 #
straight-curve $-1 13.005181754314513 -25.925948307870286 41.32265145097481 0 0 1 I I #
edge $-1 $485 -11.901090825150508 $387 9.6929089668224968 $386 $532 forward 7 unknown #
vertex $-1 $484 $533 #
straight-curve $-1 13.005181754314513 -25.925948307870286 2.5224891936024676 0 -0.7313536940579346 -0.68199836817093118 I I #
point $-1 13.005181754314513 -25.925948307870289 2.5224891936024645 #
point $-1 -8.5888180376584913 -17.784685114105091 10.114340110756782 #
straight-curve $-1 0 -25.925948307870289 10.114340110756782 1 0 0 I I #
vertex $-1 $393 $534 #
point $-1 -1.4191038113804879 -20.561024632838663 4.9304563567911996 #
vertex $-1 $397 $535 #
point $-1 7.83546752803651 -20.561024632838663 4.9304563567911996 #
coedge $-1 $412 $411 $404 $495 forward $401 $-1 #
edge $-1 $496 16.113710812466135 $499 21.444950127333833 $494 $536 forward 7 unknown #
vertex $-1 $495 $537 #
straight-curve $-1 6.5640765075217544 25.925948307870289 54.559940993084204 0 0 1 I I #
edge $-1 $499 0.66622954404104817 $413 11.129464382920364 $412 $538 forward 7 unknown #
vertex $-1 $498 $539 #
straight-curve $-1 6.5640765075217544 -4.5518312421965845 44.725584466273574 0 0.5877852410284794 -0.80901700255871778 I I #
point $-1 6.5640765075217544 25.925948307870289 2.7765184892226031 #
point $-1 17.027311346401071 20.594708993002591 10.114340110756785 #
straight-curve $-1 0 25.925948307870289 10.114340110756782 -1 0 0 I I #
vertex $-1 $419 $540 #
point $-1 9.1567234752976177 22.451311647877738 5.857644058961216 #
vertex $-1 $423 $541 #
point $-1 12.295693926961413 22.451311647877738 5.857644058961216 #
vertex $-1 $427 $542 #
point $-1 15.434664378625207 22.451311647877738 5.857644058961216 #
straight-curve $-1 -54.77706228827784 25.925948307870289 0 0 0 -1 I I #
point $-1 -54.77706228827784 -25.925948307870289 -10.114340110756782 #
straight-curve $-1 -54.77706228827784 0 -10.114340110756782 0 1 0 I I #
point $-1 -54.77706228827784 25.925948307870289 -10.114340110756782 #
coedge $-1 $456 $455 $448 $515 reversed $332 $-1 #
edge $-1 $516 -25.925948307870289 $518 25.925948307870289 $514 $543 forward 7 unknown #
vertex $-1 $515 $544 #
straight-curve $-1 0 -25.925948307870289 -10.114340110756782 -1 0 0 I I #
vertex $-1 $451 $545 #
straight-curve $-1 0 25.925948307870289 -10.114340110756782 1 0 0 I I #
point $-1 -47.903984346172763 25.925948307870289 -10.114340110756782 #
straight-curve $-1 -54.77706228827784 25.925948307870289 0 0 0 -1 I I #
straight-curve $-1 -54.77706228827784 -25.925948307870289 0 0 0 -1 I I #
edge $-1 $477 -54.77706228827784 $468 -47.903984346172763 $466 $546 forward 7 unknown #
straight-curve $-1 47.903984346172763 -25.925948307870289 -3.6810215889706814 0 0 -1 I I #
point $-1 47.903984346172763 -25.925948307870289 -10.114340110756782 #
straight-curve $-1 0 25.925948307870289 -10.114340110756782 1 0 0 I I #
straight-curve $-1 54.77706228827784 0 -10.114340110756782 0 -1 0 I I #
point $-1 54.77706228827784 -25.925948307870289 -10.114340110756782 #
point $-1 54.77706228827784 25.925948307870289 -10.114340110756782 #
straight-curve $-1 13.005181754314513 -50.32084124773808 10.114340110756778 0 1 0 I I #
point $-1 13.005181754314513 -25.925948307870289 10.114340110756782 #
straight-curve $-1 1.1040909291640055 -17.784685114105095 10.114340110756782 -1 0 0 I I #
point $-1 13.005181754314513 -17.784685114105091 10.114340110756782 #
point $-1 -2.4191038113804879 -19.879026264667733 4.1991026627332646 #
point $-1 6.83546752803651 -19.879026264667733 4.1991026627332646 #
straight-curve $-1 6.5640765075217544 42.039659120336424 10.114340110756778 0 -1 0 I I #
point $-1 6.5640765075217544 25.925948307870289 10.114340110756782 #
straight-curve $-1 5.8978469634807063 20.594708993002595 10.114340110756785 1 0 0 I I #
point $-1 6.5640765075217544 20.594708993002591 10.114340110756785 #
point $-1 8.6567234752976177 22.046803146598378 5.5637514384469755 #
point $-1 11.795693926961413 22.046803146598378 5.5637514384469755 #
point $-1 14.934664378625207 22.046803146598378 5.5637514384469755 #
straight-curve $-1 -54.77706228827784 0 -10.114340110756782 0 1 0 I I #
point $-1 -54.77706228827784 -25.925948307870289 -10.114340110756782 #
point $-1 -54.77706228827784 25.925948307870289 -10.114340110756782 #
straight-curve $-1 0 -25.925948307870289 -10.114340110756782 -1 0 0 I I #
End-of-ACIS-data 