500 0 11 0           
7 Unknown 11 ACIS 5.0 NT 24 Thu Mar 25 22:37:46 1999 
-1 9.9999999999999995e-007 1e-010 
body $-1 $11 $-1 $12 #
body $-1 $13 $-1 $14 #
body $-1 $15 $-1 $16 #
body $-1 $17 $-1 $18 #
body $-1 $19 $-1 $20 #
body $-1 $21 $-1 $22 #
body $-1 $23 $-1 $24 #
body $-1 $25 $-1 $26 #
body $-1 $27 $-1 $28 #
body $-1 $29 $-1 $30 #
body $-1 $31 $-1 $32 #
lump $-1 $-1 $33 $0 #
transform $-1 1 0 0 0 1 0 0 0 1 78.225043488875997 45.373962952440685 19.900734616373366 1 rotate no_reflect no_shear #
lump $-1 $-1 $34 $1 #
transform $-1 1 0 0 0 1 0 0 0 1 78.225043488875997 45.373962952440685 19.900734616373366 1 rotate no_reflect no_shear #
lump $-1 $-1 $35 $2 #
transform $-1 1 0 0 0 1 0 0 0 1 78.225043488875997 45.373962952440685 19.900734616373366 1 rotate no_reflect no_shear #
lump $-1 $-1 $36 $3 #
transform $-1 1 0 0 0 1 0 0 0 1 78.225043488875997 45.373962952440685 19.900734616373366 1 rotate no_reflect no_shear #
lump $-1 $-1 $37 $4 #
transform $-1 1 0 0 0 1 0 0 0 1 78.225043488875997 45.373962952440685 19.900734616373366 1 rotate no_reflect no_shear #
lump $-1 $-1 $38 $5 #
transform $-1 1 0 0 0 1 0 0 0 1 78.225043488875997 45.373962952440685 19.900734616373366 1 rotate no_reflect no_shear #
lump $-1 $-1 $39 $6 #
transform $-1 1 0 0 0 1 0 0 0 1 78.225043488875997 45.373962952440685 19.900734616373366 1 rotate no_reflect no_shear #
lump $-1 $-1 $40 $7 #
transform $-1 1 0 0 0 1 0 0 0 1 78.225043488875997 45.373962952440685 19.900734616373366 1 rotate no_reflect no_shear #
lump $-1 $-1 $41 $8 #
transform $-1 1 0 0 0 1 0 0 0 1 78.225043488875997 45.373962952440685 19.900734616373366 1 rotate no_reflect no_shear #
lump $-1 $-1 $42 $9 #
transform $-1 1 0 0 0 1 0 0 0 1 78.225043488875997 45.373962952440685 19.900734616373366 1 rotate no_reflect no_shear #
lump $-1 $-1 $43 $10 #
transform $-1 1 0 0 0 1 0 0 0 1 78.225043488875997 45.373962952440685 19.900734616373366 1 rotate no_reflect no_shear #
shell $-1 $-1 $-1 $44 $-1 $11 #
shell $-1 $-1 $-1 $45 $-1 $13 #
shell $-1 $-1 $-1 $46 $-1 $15 #
shell $-1 $-1 $-1 $47 $-1 $17 #
shell $-1 $-1 $-1 $48 $-1 $19 #
shell $-1 $-1 $-1 $49 $-1 $21 #
shell $-1 $-1 $-1 $50 $-1 $23 #
shell $-1 $-1 $-1 $51 $-1 $25 #
shell $-1 $-1 $-1 $52 $-1 $27 #
shell $-1 $-1 $-1 $53 $-1 $29 #
shell $-1 $-1 $-1 $54 $-1 $31 #
face $-1 $55 $56 $33 $-1 $57 reversed single #
face $-1 $58 $59 $34 $-1 $60 forward single #
face $-1 $61 $62 $35 $-1 $63 reversed single #
face $-1 $64 $65 $36 $-1 $66 forward single #
face $-1 $67 $68 $37 $-1 $69 forward single #
face $-1 $70 $71 $38 $-1 $72 reversed single #
face $-1 $73 $74 $39 $-1 $75 forward single #
face $-1 $76 $77 $40 $-1 $78 forward single #
face $-1 $79 $80 $41 $-1 $81 reversed single #
face $-1 $82 $83 $42 $-1 $84 forward single #
face $-1 $85 $86 $43 $-1 $87 forward single #
face $-1 $88 $89 $33 $-1 $90 forward single #
loop $-1 $-1 $91 $44 #
plane-surface $-1 -78.225043488875997 0 0 1 0 0 0 0 -1 forward_v I I I I #
face $-1 $92 $93 $34 $-1 $94 reversed single #
loop $-1 $-1 $95 $45 #
plane-surface $-1 -78.225043488875997 0 0 1 0 0 0 0 -1 forward_v I I I I #
face $-1 $96 $97 $35 $-1 $98 reversed single #
loop $-1 $-1 $99 $46 #
plane-surface $-1 12.910212125111173 -170.32055924949699 98.031168579692604 -1 0 0 0 -0.79863551827123203 0.60181501223851219 forward_v I I I I #
face $-1 $100 $101 $36 $-1 $102 forward single #
loop $-1 $103 $104 $47 #
cone-surface $-1 -4.9700749937329505 -36.710682568835566 9.9101396900666856 0 0.79863551827123203 -0.60181501223851219 2 0 0 1 I I 0 1 2 forward I I I I #
face $-1 $105 $106 $37 $-1 $107 forward single #
loop $-1 $108 $109 $48 #
cone-surface $-1 5.7580972775735262 -36.710682568835566 9.9101396900666856 0 0.79863551827123203 -0.60181501223851219 2 0 0 1 I I 0 1 2 forward I I I I #
face $-1 $110 $111 $38 $-1 $112 reversed single #
loop $-1 $-1 $113 $49 #
plane-surface $-1 37.942614091492942 -170.32055924949699 98.031168579692604 -1 0 0 0 -0.79863551827123203 0.60181501223851219 forward_v I I I I #
face $-1 $114 $115 $39 $-1 $116 forward single #
loop $-1 $117 $118 $50 #
cone-surface $-1 20.062326972648819 -36.710682568835566 9.9101396900666856 0 0.79863551827123203 -0.60181501223851219 2 0 0 1 I I 0 1 2 forward I I I I #
face $-1 $119 $120 $40 $-1 $121 forward single #
loop $-1 $122 $123 $51 #
cone-surface $-1 30.790499243955296 -36.710682568835566 9.9101396900666856 0 0.79863551827123203 -0.60181501223851219 2 0 0 1 I I 0 1 2 forward I I I I #
face $-1 $124 $125 $41 $-1 $126 reversed single #
loop $-1 $-1 $127 $52 #
plane-surface $-1 -25.675077034194576 51.321273630581821 186.59464557593896 1 0 0 0 -0.52991927123019833 -0.84804809178421925 forward_v I I I I #
face $-1 $128 $129 $42 $-1 $130 forward single #
loop $-1 $131 $132 $53 #
cone-surface $-1 -16.278835373480092 32.563471362644918 10.38363726272198 0 -0.52991927123019833 -0.84804809178421925 4 0 0 1 I I 0 1 4 forward I I I I #
face $-1 $133 $134 $43 $-1 $135 forward single #
loop $-1 $136 $137 $54 #
cone-surface $-1 -2.1844728824083575 32.563471362644918 10.38363726272198 0 -0.52991927123019833 -0.84804809178421925 4 0 0 1 I I 0 1 4 forward I I I I #
face $-1 $138 $139 $33 $-1 $140 reversed single #
loop $-1 $-1 $141 $55 #
plane-surface $-1 0 0 19.900734616373366 0 0 1 1 0 0 forward_v I I I I #
coedge $-1 $142 $143 $144 $145 reversed $56 $-1 #
face $-1 $146 $147 $34 $-1 $148 reversed single #
loop $-1 $-1 $149 $58 #
plane-surface $-1 0 0 -19.900734616373366 0 0 1 1 0 0 forward_v I I I I #
coedge $-1 $150 $151 $152 $153 forward $59 $-1 #
face $-1 $154 $155 $35 $-1 $156 reversed single #
loop $-1 $-1 $157 $61 #
plane-surface $-1 0.39401114192028786 -45.373962952440706 3.877157570460497 0 -0.79863551827123203 0.60181501223851219 1 0 0 forward_v I I I I #
coedge $-1 $158 $159 $160 $161 reversed $62 $-1 #
face $-1 $-1 $162 $36 $-1 $163 forward single #
loop $-1 $164 $165 $64 #
cone-surface $-1 -4.9700749937329505 -33.286082185348036 7.3295182744779339 0 0.79863551827123203 -0.60181501223851219 1 0 0 1 I I -0.70710678118654779 0.70710678118654713 1 forward I I I I #
loop $-1 $-1 $166 $47 #
coedge $-1 $104 $104 $167 $168 reversed $65 $-1 #
face $-1 $-1 $169 $37 $-1 $170 forward single #
loop $-1 $171 $172 $67 #
cone-surface $-1 5.7580972775735262 -33.286082185348036 7.3295182744779339 0 0.79863551827123203 -0.60181501223851219 1 0 0 1 I I -0.70710678118654779 0.70710678118654713 1 forward I I I I #
loop $-1 $-1 $173 $48 #
coedge $-1 $109 $109 $174 $175 reversed $68 $-1 #
face $-1 $176 $177 $38 $-1 $178 forward single #
loop $-1 $-1 $179 $70 #
plane-surface $-1 0.39401114192028786 -45.373962952440706 3.877157570460497 0 -0.79863551827123203 0.60181501223851219 1 0 0 forward_v I I I I #
coedge $-1 $180 $181 $182 $183 reversed $71 $-1 #
face $-1 $-1 $184 $39 $-1 $185 forward single #
loop $-1 $186 $187 $73 #
cone-surface $-1 20.062326972648819 -33.286082185348036 7.3295182744779339 0 0.79863551827123203 -0.60181501223851219 1 0 0 1 I I -0.70710678118654779 0.70710678118654713 1 forward I I I I #
loop $-1 $-1 $188 $50 #
coedge $-1 $118 $118 $189 $190 reversed $74 $-1 #
face $-1 $-1 $191 $40 $-1 $192 forward single #
loop $-1 $193 $194 $76 #
cone-surface $-1 30.790499243955296 -33.286082185348036 7.3295182744779339 0 0.79863551827123203 -0.60181501223851219 1 0 0 1 I I -0.70710678118654779 0.70710678118654713 1 forward I I I I #
loop $-1 $-1 $195 $51 #
coedge $-1 $123 $123 $196 $197 reversed $77 $-1 #
face $-1 $198 $199 $41 $-1 $200 reversed single #
loop $-1 $-1 $201 $79 #
plane-surface $-1 -9.2316541279442248 -31.58464244456966 53.917447854981248 0 0.52991927123019833 0.84804809178421925 1 0 0 forward_v I I I I #
coedge $-1 $202 $203 $204 $205 reversed $80 $-1 #
face $-1 $-1 $206 $42 $-1 $207 forward single #
loop $-1 $208 $209 $82 #
cone-surface $-1 -16.278835373480092 29.953384048506173 6.2066244867815925 0 -0.52991927123019833 -0.84804809178421925 2 0 0 1 I I -0.70710678118654746 0.70710678118654746 2 forward I I I I #
loop $-1 $-1 $210 $53 #
coedge $-1 $132 $132 $211 $212 reversed $83 $-1 #
face $-1 $-1 $213 $43 $-1 $214 forward single #
loop $-1 $215 $216 $85 #
cone-surface $-1 -2.1844728824083575 29.953384048506173 6.2066244867815925 0 -0.52991927123019833 -0.84804809178421925 2 0 0 1 I I -0.70710678118654746 0.70710678118654746 2 forward I I I I #
loop $-1 $-1 $217 $54 #
coedge $-1 $137 $137 $218 $219 reversed $86 $-1 #
face $-1 $220 $221 $33 $-1 $222 reversed single #
loop $-1 $-1 $223 $88 #
plane-surface $-1 0 0 -19.900734616373366 0 0 1 1 0 0 forward_v I I I I #
coedge $-1 $224 $225 $226 $227 forward $89 $-1 #
coedge $-1 $228 $91 $229 $230 reversed $56 $-1 #
coedge $-1 $91 $228 $231 $232 forward $56 $-1 #
coedge $-1 $233 $234 $91 $145 forward $139 $-1 #
edge $-1 $235 -45.373962952440685 $236 45.373962952440685 $91 $237 forward 7 unknown #
face $-1 $238 $239 $34 $-1 $240 reversed single #
loop $-1 $-1 $241 $92 #
plane-surface $-1 -91.135255613987169 -12.842969933342001 0 0 1 0 0 0 1 forward_v I I I I #
coedge $-1 $242 $243 $151 $244 forward $93 $-1 #
coedge $-1 $245 $95 $246 $247 reversed $59 $-1 #
coedge $-1 $95 $245 $149 $244 reversed $59 $-1 #
coedge $-1 $248 $249 $95 $153 reversed $250 $-1 #
edge $-1 $251 -19.900734616373366 $252 19.900734616373366 $152 $253 forward 7 unknown #
face $-1 $254 $255 $35 $-1 $256 forward single #
loop $-1 $-1 $257 $96 #
plane-surface $-1 -12.122189841270597 -170.32055924949699 98.031168579692604 1 0 0 0 0.79863551827123203 -0.60181501223851219 forward_v I I I I #
coedge $-1 $258 $259 $260 $261 reversed $97 $-1 #
coedge $-1 $159 $99 $262 $263 reversed $62 $-1 #
coedge $-1 $99 $158 $258 $264 reversed $62 $-1 #
coedge $-1 $260 $265 $99 $161 forward $255 $-1 #
edge $-1 $266 39.786316672307812 $267 51.860947709085409 $160 $268 forward 7 unknown #
loop $-1 $-1 $167 $100 #
plane-surface $-1 0.39401114192028786 -45.373962952440706 3.877157570460497 0 -0.79863551827123203 0.60181501223851219 1 0 0 forward_v I I I I #
loop $-1 $-1 $269 $64 #
coedge $-1 $165 $165 $166 $270 reversed $101 $-1 #
coedge $-1 $166 $166 $165 $270 forward $103 $-1 #
coedge $-1 $167 $167 $104 $168 forward $162 $-1 #
edge $-1 $271 3.025178545095875e-017 $271 6.2831853071796004 $167 $272 forward 7 unknown #
loop $-1 $-1 $174 $105 #
plane-surface $-1 0.39401114192028786 -45.373962952440706 3.877157570460497 0 -0.79863551827123203 0.60181501223851219 1 0 0 forward_v I I I I #
loop $-1 $-1 $273 $67 #
coedge $-1 $172 $172 $173 $274 reversed $106 $-1 #
coedge $-1 $173 $173 $172 $274 forward $108 $-1 #
coedge $-1 $174 $174 $109 $175 forward $169 $-1 #
edge $-1 $275 3.025178545095875e-017 $275 6.2831853071796004 $174 $276 forward 7 unknown #
face $-1 $277 $278 $38 $-1 $279 forward single #
loop $-1 $-1 $280 $110 #
plane-surface $-1 0 0 19.900734616373366 0 0 1 1 0 0 forward_v I I I I #
coedge $-1 $281 $282 $283 $284 reversed $111 $-1 #
coedge $-1 $181 $113 $285 $286 reversed $71 $-1 #
coedge $-1 $113 $180 $280 $287 reversed $71 $-1 #
coedge $-1 $288 $289 $113 $183 forward $290 $-1 #
edge $-1 $291 -45.138426719385777 $292 -29.114849673472936 $182 $293 forward 7 unknown #
loop $-1 $-1 $189 $114 #
plane-surface $-1 0.39401114192028786 -45.373962952440706 3.877157570460497 0 -0.79863551827123203 0.60181501223851219 1 0 0 forward_v I I I I #
loop $-1 $-1 $294 $73 #
coedge $-1 $187 $187 $188 $295 reversed $115 $-1 #
coedge $-1 $188 $188 $187 $295 forward $117 $-1 #
coedge $-1 $189 $189 $118 $190 forward $184 $-1 #
edge $-1 $296 3.025178545095875e-017 $296 6.2831853071796004 $189 $297 forward 7 unknown #
loop $-1 $-1 $196 $119 #
plane-surface $-1 0.39401114192028786 -45.373962952440706 3.877157570460497 0 -0.79863551827123203 0.60181501223851219 1 0 0 forward_v I I I I #
loop $-1 $-1 $298 $76 #
coedge $-1 $194 $194 $195 $299 reversed $120 $-1 #
coedge $-1 $195 $195 $194 $299 forward $122 $-1 #
coedge $-1 $196 $196 $123 $197 forward $191 $-1 #
edge $-1 $300 3.025178545095875e-017 $300 6.2831853071796004 $196 $301 forward 7 unknown #
face $-1 $302 $303 $41 $-1 $304 reversed single #
loop $-1 $-1 $305 $124 #
plane-surface $-1 7.2117687783061264 51.321273630581821 186.59464557593896 -1 0 0 0 0.52991927123019833 0.84804809178421925 forward_v I I I I #
coedge $-1 $306 $307 $308 $309 reversed $125 $-1 #
coedge $-1 $203 $127 $310 $311 reversed $80 $-1 #
coedge $-1 $127 $202 $306 $312 reversed $80 $-1 #
coedge $-1 $308 $313 $127 $205 forward $314 $-1 #
edge $-1 $315 -19.713326137149775 $316 2.807159499085099 $204 $317 forward 7 unknown #
loop $-1 $-1 $211 $128 #
plane-surface $-1 -9.2316541279442248 -31.58464244456966 53.917447854981248 0 0.52991927123019833 0.84804809178421925 1 0 0 forward_v I I I I #
loop $-1 $-1 $318 $82 #
coedge $-1 $209 $209 $210 $319 reversed $129 $-1 #
coedge $-1 $210 $210 $209 $319 forward $131 $-1 #
coedge $-1 $211 $211 $132 $212 forward $206 $-1 #
edge $-1 $320 -1.5064360279812292e-015 $320 6.2831853071795987 $211 $321 forward 7 unknown #
loop $-1 $-1 $218 $133 #
plane-surface $-1 -9.2316541279442248 -31.58464244456966 53.917447854981248 0 0.52991927123019833 0.84804809178421925 1 0 0 forward_v I I I I #
loop $-1 $-1 $322 $85 #
coedge $-1 $216 $216 $217 $323 reversed $134 $-1 #
coedge $-1 $217 $217 $216 $323 forward $136 $-1 #
coedge $-1 $218 $218 $137 $219 forward $213 $-1 #
edge $-1 $324 -1.5064360279812292e-015 $324 6.2831853071795987 $218 $325 forward 7 unknown #
face $-1 $326 $327 $33 $-1 $328 reversed single #
loop $-1 $-1 $229 $138 #
plane-surface $-1 0 -45.373962952440685 0 0 1 0 0 0 1 forward_v I I I I #
coedge $-1 $234 $233 $329 $330 forward $139 $-1 #
coedge $-1 $331 $141 $332 $333 forward $89 $-1 #
coedge $-1 $141 $331 $334 $335 forward $89 $-1 #
coedge $-1 $336 $337 $141 $227 reversed $338 $-1 #
edge $-1 $339 -45.373962952440685 $340 45.373962952440685 $226 $341 forward 7 unknown #
coedge $-1 $143 $142 $331 $342 reversed $56 $-1 #
coedge $-1 $343 $334 $142 $230 forward $221 $-1 #
edge $-1 $344 -19.900734616373366 $235 19.900734616373366 $142 $345 forward 7 unknown #
coedge $-1 $332 $346 $143 $232 reversed $327 $-1 #
edge $-1 $347 -19.900734616373366 $236 19.900734616373366 $231 $348 forward 7 unknown #
coedge $-1 $223 $144 $346 $349 forward $139 $-1 #
coedge $-1 $144 $223 $343 $350 forward $139 $-1 #
vertex $-1 $145 $351 #
vertex $-1 $349 $352 #
straight-curve $-1 -78.225043488875997 0 -19.900734616373366 0 1 0 I I #
face $-1 $353 $250 $34 $-1 $354 reversed single #
loop $-1 $-1 $355 $146 #
plane-surface $-1 -104.04546773909834 -9.2077318265179784 0 1 0 0 0 0 -1 forward_v I I I I #
coedge $-1 $356 $357 $358 $359 forward $147 $-1 #
coedge $-1 $360 $149 $356 $361 forward $93 $-1 #
coedge $-1 $149 $360 $248 $362 forward $93 $-1 #
edge $-1 $251 5.5724937196939557 $363 12.842969933342001 $149 $364 forward 7 unknown #
coedge $-1 $151 $150 $365 $366 forward $59 $-1 #
coedge $-1 $367 $368 $150 $247 forward $369 $-1 #
edge $-1 $370 -12.842969933342001 $252 -5.5724937196939557 $246 $371 forward 7 unknown #
coedge $-1 $372 $152 $243 $362 reversed $250 $-1 #
coedge $-1 $152 $372 $367 $373 reversed $250 $-1 #
loop $-1 $-1 $152 $238 #
vertex $-1 $244 $374 #
vertex $-1 $373 $375 #
straight-curve $-1 -78.225043488875997 -5.5724937196939557 0 0 0 1 I I #
face $-1 $-1 $376 $35 $-1 $377 reversed single #
loop $-1 $-1 $160 $154 #
plane-surface $-1 0 0 19.900734616373366 0 0 1 1 0 0 forward_v I I I I #
coedge $-1 $378 $379 $380 $381 reversed $155 $-1 #
coedge $-1 $382 $157 $159 $264 forward $97 $-1 #
coedge $-1 $157 $382 $378 $383 forward $97 $-1 #
coedge $-1 $380 $160 $157 $261 forward $255 $-1 #
edge $-1 $267 -12.713206554151029 $384 12.319195412230741 $260 $385 forward 7 unknown #
coedge $-1 $386 $387 $158 $263 forward $376 $-1 #
edge $-1 $388 -45.138426719385777 $266 -29.114849673472936 $262 $389 forward 7 unknown #
edge $-1 $267 -20.063691983795483 $388 -3.5527045197628586e-014 $159 $390 forward 7 unknown #
coedge $-1 $160 $380 $386 $391 forward $255 $-1 #
vertex $-1 $161 $392 #
vertex $-1 $161 $393 #
straight-curve $-1 12.910212125111173 -85.160279624748497 19.90073461637337 0 1 0 I I #
coedge $-1 $269 $269 $-1 $394 reversed $164 $-1 #
edge $-1 $395 0 $395 6.2831853071796004 $165 $396 forward 7 unknown #
vertex $-1 $168 $397 #
ellipse-curve $-1 -4.9700749937329505 -39.336647434051891 11.888946093416942 0 -0.79863551827123203 0.60181501223851219 2 0 0 1 I I #
coedge $-1 $273 $273 $-1 $398 reversed $171 $-1 #
edge $-1 $399 0 $399 6.2831853071796004 $172 $400 forward 7 unknown #
vertex $-1 $175 $401 #
ellipse-curve $-1 5.7580972775735262 -39.336647434051891 11.888946093416942 0 -0.79863551827123203 0.60181501223851219 2 0 0 1 I I #
face $-1 $-1 $290 $38 $-1 $402 reversed single #
loop $-1 $-1 $403 $176 #
plane-surface $-1 12.910212125111173 -170.32055924949699 98.031168579692604 -1 0 0 0 -0.79863551827123203 0.60181501223851219 forward_v I I I I #
coedge $-1 $404 $405 $181 $287 forward $177 $-1 #
coedge $-1 $285 $179 $404 $406 reversed $111 $-1 #
coedge $-1 $179 $285 $289 $407 reversed $111 $-1 #
coedge $-1 $408 $403 $179 $284 forward $278 $-1 #
edge $-1 $409 -20.063691983795483 $410 -3.5527045197628586e-014 $283 $411 forward 7 unknown #
coedge $-1 $282 $281 $180 $286 forward $111 $-1 #
edge $-1 $412 -20.063691983795483 $291 -3.5527045197628586e-014 $180 $413 forward 7 unknown #
edge $-1 $292 39.786316672307812 $412 51.860947709085409 $280 $414 forward 7 unknown #
coedge $-1 $415 $182 $405 $416 reversed $290 $-1 #
coedge $-1 $182 $415 $282 $407 forward $290 $-1 #
loop $-1 $-1 $182 $277 #
vertex $-1 $183 $417 #
vertex $-1 $287 $418 #
straight-curve $-1 37.942614091492942 -45.373962952440685 49.015584289846302 0 0 1 I I #
coedge $-1 $294 $294 $-1 $419 reversed $186 $-1 #
edge $-1 $420 0 $420 6.2831853071796004 $187 $421 forward 7 unknown #
vertex $-1 $190 $422 #
ellipse-curve $-1 20.062326972648819 -39.336647434051891 11.888946093416942 0 -0.79863551827123203 0.60181501223851219 2 0 0 1 I I #
coedge $-1 $298 $298 $-1 $423 reversed $193 $-1 #
edge $-1 $424 0 $424 6.2831853071796004 $194 $425 forward 7 unknown #
vertex $-1 $197 $426 #
ellipse-curve $-1 30.790499243955296 -39.336647434051891 11.888946093416942 0 -0.79863551827123203 0.60181501223851219 2 0 0 1 I I #
face $-1 $-1 $314 $41 $-1 $427 forward single #
loop $-1 $-1 $428 $198 #
plane-surface $-1 0 45.373962952440685 0 0 -1 0 0 0 -1 forward_v I I I I #
coedge $-1 $429 $430 $431 $432 reversed $199 $-1 #
coedge $-1 $433 $201 $203 $312 forward $125 $-1 #
coedge $-1 $201 $433 $429 $434 forward $125 $-1 #
coedge $-1 $431 $204 $201 $309 forward $314 $-1 #
edge $-1 $316 -21.059249970222464 $435 11.827595842278239 $308 $436 forward 7 unknown #
coedge $-1 $437 $438 $202 $311 forward $303 $-1 #
edge $-1 $439 -87.468949694154986 $315 -73.396588171596107 $310 $440 forward 7 unknown #
edge $-1 $316 64.192255472496157 $439 90.747925904881356 $203 $441 forward 7 unknown #
coedge $-1 $204 $431 $437 $442 forward $314 $-1 #
loop $-1 $-1 $431 $302 #
vertex $-1 $311 $443 #
vertex $-1 $205 $444 #
straight-curve $-1 -25.675077034194576 25.660636815290911 19.90073461637337 0 -1 0 I I #
coedge $-1 $318 $318 $-1 $445 reversed $208 $-1 #
edge $-1 $446 0 $446 6.2831853071796004 $209 $447 forward 7 unknown #
vertex $-1 $212 $448 #
ellipse-curve $-1 -16.278835373480092 34.113720134323266 12.864553855093931 0 0.52991927123019833 0.84804809178421925 4 0 0 1 I I #
coedge $-1 $322 $322 $-1 $449 reversed $215 $-1 #
edge $-1 $450 0 $450 6.2831853071796004 $216 $451 forward 7 unknown #
vertex $-1 $219 $452 #
ellipse-curve $-1 -2.1844728824083575 34.113720134323266 12.864553855093931 0 0.52991927123019833 0.84804809178421925 4 0 0 1 I I #
face $-1 $-1 $338 $33 $-1 $453 reversed single #
loop $-1 $-1 $454 $220 #
plane-surface $-1 0 45.373962952440685 0 0 -1 0 0 0 -1 forward_v I I I I #
coedge $-1 $337 $336 $223 $330 reversed $338 $-1 #
edge $-1 $455 -45.373962952440685 $456 45.373962952440685 $329 $457 forward 7 unknown #
coedge $-1 $225 $224 $228 $342 forward $89 $-1 #
coedge $-1 $454 $231 $224 $333 reversed $327 $-1 #
edge $-1 $340 -78.225043488875997 $347 78.225043488875997 $332 $458 forward 7 unknown #
coedge $-1 $229 $459 $225 $335 reversed $221 $-1 #
edge $-1 $344 -78.225043488875997 $339 78.225043488875997 $334 $460 forward 7 unknown #
coedge $-1 $329 $226 $459 $461 forward $338 $-1 #
coedge $-1 $226 $329 $454 $462 reversed $338 $-1 #
loop $-1 $-1 $336 $326 #
vertex $-1 $227 $463 #
vertex $-1 $227 $464 #
straight-curve $-1 78.225043488875997 0 19.900734616373366 0 1 0 I I #
edge $-1 $347 -45.373962952440685 $344 45.373962952440685 $228 $465 forward 7 unknown #
coedge $-1 $459 $229 $234 $350 reversed $221 $-1 #
vertex $-1 $342 $466 #
straight-curve $-1 -78.225043488875997 -45.373962952440685 0 0 0 -1 I I #
coedge $-1 $231 $454 $233 $349 reversed $327 $-1 #
vertex $-1 $333 $467 #
straight-curve $-1 -78.225043488875997 45.373962952440685 0 0 0 -1 I I #
edge $-1 $236 -78.225043488875997 $455 78.225043488875997 $346 $468 forward 7 unknown #
edge $-1 $456 -78.225043488875997 $235 78.225043488875997 $343 $469 forward 7 unknown #
point $-1 -78.225043488875997 -45.373962952440685 -19.900734616373366 #
point $-1 -78.225043488875997 45.373962952440685 -19.900734616373366 #
face $-1 $-1 $369 $34 $-1 $470 forward single #
plane-surface $-1 -91.135255613987169 -5.5724937196939557 0 0 -1 0 0 0 -1 forward_v I I I I #
coedge $-1 $471 $472 $372 $473 forward $239 $-1 #
coedge $-1 $365 $241 $242 $361 reversed $147 $-1 #
coedge $-1 $241 $365 $368 $474 reversed $147 $-1 #
coedge $-1 $472 $471 $241 $359 reversed $239 $-1 #
edge $-1 $475 -19.900734616373366 $476 19.900734616373366 $358 $477 forward 7 unknown #
coedge $-1 $243 $242 $471 $478 forward $93 $-1 #
edge $-1 $363 -12.910212125111173 $476 12.910212125111173 $356 $479 forward 7 unknown #
edge $-1 $480 -12.910212125111173 $251 12.910212125111173 $248 $481 forward 7 unknown #
vertex $-1 $361 $482 #
straight-curve $-1 -78.225043488875997 0 -19.900734616373366 0 -1 0 I I #
coedge $-1 $357 $356 $245 $366 reversed $147 $-1 #
edge $-1 $370 -19.900734616373366 $363 19.900734616373366 $365 $483 forward 7 unknown #
coedge $-1 $484 $246 $249 $373 forward $369 $-1 #
coedge $-1 $246 $484 $357 $474 forward $369 $-1 #
loop $-1 $-1 $246 $353 #
vertex $-1 $247 $485 #
straight-curve $-1 -78.225043488875997 0 19.900734616373366 0 1 0 I I #
coedge $-1 $249 $248 $355 $473 reversed $250 $-1 #
edge $-1 $252 -12.910212125111173 $486 12.910212125111173 $249 $487 forward 7 unknown #
point $-1 -78.225043488875997 -5.5724937196939557 -19.900734616373366 #
point $-1 -78.225043488875997 -5.5724937196939557 19.900734616373366 #
loop $-1 $-1 $262 $254 #
plane-surface $-1 0 -45.373962952440685 0 0 1 0 0 0 1 forward_v I I I I #
coedge $-1 $379 $257 $259 $383 reversed $155 $-1 #
coedge $-1 $257 $378 $488 $489 reversed $155 $-1 #
coedge $-1 $265 $260 $257 $381 forward $255 $-1 #
edge $-1 $384 -51.860947709085409 $490 -39.786316672307812 $380 $491 forward 7 unknown #
coedge $-1 $259 $258 $387 $492 reversed $97 $-1 #
edge $-1 $493 3.5527045197628586e-014 $384 20.063691983795483 $378 $494 forward 7 unknown #
vertex $-1 $261 $495 #
straight-curve $-1 0.19700557096014393 -33.299331915663089 19.900734616373366 -1 0 0 I I #
coedge $-1 $488 $262 $265 $391 reversed $376 $-1 #
coedge $-1 $262 $488 $382 $492 forward $376 $-1 #
vertex $-1 $263 $496 #
straight-curve $-1 12.910212125111173 -45.373962952440685 49.015584289846302 0 0 1 I I #
straight-curve $-1 12.910212125111173 -45.373962952440706 3.877157570460497 0 -0.60181501223851219 -0.79863551827123203 I I #
edge $-1 $490 -12.122189841270597 $266 12.910212125111173 $386 $497 forward 7 unknown #
point $-1 12.910212125111173 -45.373962952440685 19.900734616373366 #
point $-1 12.910212125111173 -33.299331915663089 19.900734616373366 #
edge $-1 $498 1 $498 0 $269 $-1 forward 7 unknown #
vertex $-1 $270 $499 #
ellipse-curve $-1 -4.9700749937329505 -34.084717703619269 7.9313332867164457 0 -0.79863551827123203 0.60181501223851219 2 0 0 1 I I #
point $-1 -2.9700749937329505 -39.336647434051869 11.888946093416926 #
edge $-1 $500 1 $500 0 $273 $-1 forward 7 unknown #
vertex $-1 $274 $501 #
ellipse-curve $-1 5.7580972775735262 -34.084717703619269 7.9313332867164457 0 -0.79863551827123203 0.60181501223851219 2 0 0 1 I I #
point $-1 7.7580972775735262 -39.336647434051869 11.888946093416926 #
plane-surface $-1 0 -45.373962952440685 0 0 1 0 0 0 1 forward_v I I I I #
coedge $-1 $283 $408 $502 $503 reversed $278 $-1 #
coedge $-1 $502 $280 $281 $406 forward $177 $-1 #
coedge $-1 $280 $502 $288 $416 forward $177 $-1 #
edge $-1 $412 -37.745608520532798 $409 -12.713206554151029 $404 $504 forward 7 unknown #
edge $-1 $410 12.713206554151029 $291 37.745608520532798 $289 $505 forward 7 unknown #
coedge $-1 $403 $283 $415 $506 reversed $278 $-1 #
vertex $-1 $406 $507 #
vertex $-1 $407 $508 #
straight-curve $-1 12.910212125111173 -45.373962952440706 3.877157570460497 0 -0.60181501223851219 -0.79863551827123203 I I #
vertex $-1 $287 $509 #
straight-curve $-1 37.942614091492942 -45.373962952440706 3.877157570460497 0 -0.60181501223851219 -0.79863551827123203 I I #
straight-curve $-1 37.942614091492942 -85.160279624748497 19.90073461637337 0 1 0 I I #
coedge $-1 $289 $288 $408 $506 forward $290 $-1 #
edge $-1 $510 12.910212125111173 $292 37.942614091492942 $288 $511 forward 7 unknown #
point $-1 37.942614091492942 -45.373962952440685 3.8771575704605254 #
point $-1 37.942614091492942 -45.373962952440685 19.900734616373366 #
edge $-1 $512 1 $512 0 $294 $-1 forward 7 unknown #
vertex $-1 $295 $513 #
ellipse-curve $-1 20.062326972648819 -34.084717703619269 7.9313332867164457 0 -0.79863551827123203 0.60181501223851219 2 0 0 1 I I #
point $-1 22.062326972648819 -39.336647434051869 11.888946093416926 #
edge $-1 $514 1 $514 0 $298 $-1 forward 7 unknown #
vertex $-1 $299 $515 #
ellipse-curve $-1 30.790499243955296 -34.084717703619269 7.9313332867164457 0 -0.79863551827123203 0.60181501223851219 2 0 0 1 I I #
point $-1 32.790499243955296 -39.336647434051869 11.888946093416926 #
plane-surface $-1 0 0 19.900734616373366 0 0 1 1 0 0 forward_v I I I I #
coedge $-1 $438 $437 $430 $516 forward $303 $-1 #
coedge $-1 $430 $305 $307 $434 reversed $199 $-1 #
coedge $-1 $305 $429 $428 $516 reversed $199 $-1 #
coedge $-1 $313 $308 $305 $432 forward $314 $-1 #
edge $-1 $435 -2.807159499085099 $517 19.713326137149775 $431 $518 forward 7 unknown #
coedge $-1 $307 $306 $438 $519 reversed $125 $-1 #
edge $-1 $520 -90.747925904881356 $435 -64.192255472496157 $429 $521 forward 7 unknown #
vertex $-1 $309 $522 #
straight-curve $-1 -4.6158270639721124 22.853477316205829 19.900734616373363 1 0 0 I I #
coedge $-1 $428 $310 $313 $442 reversed $303 $-1 #
coedge $-1 $310 $428 $433 $519 forward $303 $-1 #
vertex $-1 $311 $523 #
straight-curve $-1 -25.675077034194576 45.373962952440685 93.297322787969478 0 0 1 I I #
straight-curve $-1 -25.675077034194576 -31.58464244456966 53.917447854981248 0 0.84804809178421925 -0.52991927123019833 I I #
edge $-1 $517 -7.2117687783061264 $315 25.675077034194576 $437 $524 forward 7 unknown #
point $-1 -25.675077034194576 45.373962952440685 19.900734616373366 #
point $-1 -25.675077034194576 22.853477316205812 19.90073461637337 #
edge $-1 $525 1 $525 0 $318 $-1 forward 7 unknown #
vertex $-1 $319 $526 #
ellipse-curve $-1 -16.278835373480092 31.013222590966571 7.902720670350031 0 0.52991927123019833 0.84804809178421925 4 0 0 1 I I #
point $-1 -12.278835373480092 34.113720134323259 12.864553855093931 #
edge $-1 $527 1 $527 0 $322 $-1 forward 7 unknown #
vertex $-1 $323 $528 #
ellipse-curve $-1 -2.1844728824083575 31.013222590966571 7.902720670350031 0 0.52991927123019833 0.84804809178421925 4 0 0 1 I I #
point $-1 1.8155271175916425 34.113720134323259 12.864553855093931 #
plane-surface $-1 78.225043488875997 0 0 -1 0 0 0 0 1 forward_v I I I I #
coedge $-1 $346 $332 $337 $462 forward $327 $-1 #
vertex $-1 $330 $529 #
vertex $-1 $461 $530 #
straight-curve $-1 78.225043488875997 0 -19.900734616373366 0 -1 0 I I #
straight-curve $-1 0 45.373962952440685 19.900734616373366 -1 0 0 I I #
coedge $-1 $334 $343 $336 $461 reversed $221 $-1 #
straight-curve $-1 0 -45.373962952440685 19.900734616373366 1 0 0 I I #
edge $-1 $339 -19.900734616373366 $456 19.900734616373366 $336 $531 forward 7 unknown #
edge $-1 $340 -19.900734616373366 $455 19.900734616373366 $337 $532 forward 7 unknown #
point $-1 78.225043488875997 -45.373962952440685 19.900734616373366 #
point $-1 78.225043488875997 45.373962952440685 19.900734616373366 #
straight-curve $-1 -78.225043488875997 0 19.900734616373366 0 -1 0 I I #
point $-1 -78.225043488875997 -45.373962952440685 19.900734616373366 #
point $-1 -78.225043488875997 45.373962952440685 19.900734616373366 #
straight-curve $-1 0 45.373962952440685 -19.900734616373366 1 0 0 I I #
straight-curve $-1 0 -45.373962952440685 -19.900734616373366 -1 0 0 I I #
plane-surface $-1 0 0 19.900734616373366 0 0 1 1 0 0 forward_v I I I I #
coedge $-1 $358 $355 $360 $478 reversed $239 $-1 #
coedge $-1 $355 $358 $484 $533 reversed $239 $-1 #
edge $-1 $486 -19.900734616373366 $480 19.900734616373366 $372 $534 forward 7 unknown #
edge $-1 $475 -12.910212125111173 $370 12.910212125111173 $357 $535 forward 7 unknown #
vertex $-1 $533 $536 #
vertex $-1 $478 $537 #
straight-curve $-1 -104.04546773909834 -12.842969933342001 0 0 0 -1 I I #
edge $-1 $476 -3.6352381068240227 $480 3.6352381068240227 $471 $538 forward 7 unknown #
straight-curve $-1 -91.135255613987169 -12.842969933342001 -19.900734616373366 -1 0 0 I I #
vertex $-1 $362 $539 #
straight-curve $-1 -91.135255613987169 -5.5724937196939557 -19.900734616373366 1 0 0 I I #
point $-1 -78.225043488875997 -12.842969933342001 -19.900734616373366 #
straight-curve $-1 -78.225043488875997 -12.842969933342001 0 0 0 -1 I I #
coedge $-1 $368 $367 $472 $533 forward $369 $-1 #
point $-1 -78.225043488875997 -12.842969933342001 19.900734616373366 #
vertex $-1 $373 $540 #
straight-curve $-1 -91.135255613987169 -5.5724937196939557 19.900734616373366 -1 0 0 I I #
coedge $-1 $387 $386 $379 $489 forward $376 $-1 #
edge $-1 $490 29.114849673472936 $493 45.138426719385777 $488 $541 forward 7 unknown #
vertex $-1 $391 $542 #
straight-curve $-1 -12.122189841270597 -85.160279624748497 19.90073461637337 0 -1 0 I I #
edge $-1 $493 -12.319195412230741 $388 12.713206554151029 $387 $543 forward 7 unknown #
vertex $-1 $492 $544 #
straight-curve $-1 -12.122189841270597 -45.373962952440706 3.877157570460497 0 0.60181501223851219 0.79863551827123203 I I #
point $-1 -12.122189841270597 -33.299331915663089 19.900734616373366 #
point $-1 12.910212125111173 -45.373962952440685 3.8771575704605254 #
straight-curve $-1 0 -45.373962952440685 19.900734616373366 1 0 0 I I #
vertex $-1 $394 $545 #
point $-1 -2.9700749937329505 -34.084717703619269 7.9313332867164457 #
vertex $-1 $398 $546 #
point $-1 7.7580972775735262 -34.084717703619269 7.9313332867164457 #
coedge $-1 $405 $404 $403 $503 forward $177 $-1 #
edge $-1 $409 -51.860947709085409 $510 -39.786316672307812 $502 $547 forward 7 unknown #
straight-curve $-1 0.19700557096014393 -33.299331915663089 19.900734616373366 -1 0 0 I I #
straight-curve $-1 0.19700557096014393 -45.373962952440685 3.8771575704605188 1 0 0 I I #
edge $-1 $510 29.114849673472936 $410 45.138426719385777 $415 $548 forward 7 unknown #
point $-1 12.910212125111173 -33.299331915663089 19.900734616373366 #
point $-1 12.910212125111173 -45.373962952440685 3.8771575704605254 #
point $-1 37.942614091492942 -33.299331915663089 19.900734616373366 #
vertex $-1 $416 $549 #
straight-curve $-1 0 -45.373962952440685 19.900734616373366 1 0 0 I I #
vertex $-1 $419 $550 #
point $-1 22.062326972648819 -34.084717703619269 7.9313332867164457 #
vertex $-1 $423 $551 #
point $-1 32.790499243955296 -34.084717703619269 7.9313332867164457 #
edge $-1 $517 73.396588171596107 $520 87.468949694154986 $428 $552 forward 7 unknown #
vertex $-1 $442 $553 #
straight-curve $-1 7.2117687783061264 25.660636815290911 19.90073461637337 0 1 0 I I #
edge $-1 $520 -11.827595842278239 $439 21.059249970222464 $438 $554 forward 7 unknown #
vertex $-1 $519 $555 #
straight-curve $-1 7.2117687783061264 -31.58464244456966 53.917447854981248 0 -0.84804809178421925 0.52991927123019833 I I #
point $-1 7.2117687783061264 22.853477316205812 19.90073461637337 #
point $-1 -25.675077034194576 45.373962952440685 5.8283730938144913 #
straight-curve $-1 0 45.373962952440685 19.900734616373366 -1 0 0 I I #
vertex $-1 $445 $556 #
point $-1 -12.278835373480092 31.013222590966571 7.902720670350031 #
vertex $-1 $449 $557 #
point $-1 1.8155271175916425 31.013222590966571 7.902720670350031 #
point $-1 78.225043488875997 45.373962952440685 -19.900734616373366 #
point $-1 78.225043488875997 -45.373962952440685 -19.900734616373366 #
straight-curve $-1 78.225043488875997 -45.373962952440685 0 0 0 -1 I I #
straight-curve $-1 78.225043488875997 45.373962952440685 0 0 0 -1 I I #
edge $-1 $486 -3.6352381068240227 $475 3.6352381068240227 $472 $558 forward 7 unknown #
straight-curve $-1 -104.04546773909834 -5.5724937196939557 0 0 0 -1 I I #
straight-curve $-1 -91.135255613987169 -12.842969933342001 19.900734616373366 1 0 0 I I #
point $-1 -104.04546773909834 -12.842969933342001 19.900734616373366 #
point $-1 -104.04546773909834 -12.842969933342001 -19.900734616373366 #
straight-curve $-1 -104.04546773909834 -9.2077318265179784 -19.900734616373366 0 1 0 I I #
point $-1 -104.04546773909834 -5.5724937196939557 -19.900734616373366 #
point $-1 -104.04546773909834 -5.5724937196939557 19.900734616373366 #
straight-curve $-1 -12.122189841270597 -45.373962952440685 49.015584289846302 0 0 -1 I I #
point $-1 -12.122189841270597 -45.373962952440685 19.900734616373366 #
straight-curve $-1 0.19700557096014393 -45.373962952440685 3.8771575704605188 1 0 0 I I #
point $-1 -12.122189841270597 -45.373962952440685 3.8771575704605254 #
point $-1 -4.9700749937329505 -32.487446667076803 6.7277032622394222 #
point $-1 5.7580972775735262 -32.487446667076803 6.7277032622394222 #
straight-curve $-1 12.910212125111173 -85.160279624748497 19.90073461637337 0 -1 0 I I #
straight-curve $-1 12.910212125111173 -45.373962952440685 49.015584289846302 0 0 -1 I I #
point $-1 12.910212125111173 -45.373962952440685 19.900734616373366 #
point $-1 20.062326972648819 -32.487446667076803 6.7277032622394222 #
point $-1 30.790499243955296 -32.487446667076803 6.7277032622394222 #
straight-curve $-1 7.2117687783061264 45.373962952440685 93.297322787969478 0 0 -1 I I #
point $-1 7.2117687783061264 45.373962952440685 19.900734616373366 #
straight-curve $-1 -4.6158270639721124 45.373962952440692 5.8283730938144878 -1 0 0 I I #
point $-1 7.2117687783061264 45.373962952440685 5.8283730938144913 #
point $-1 -16.278835373480092 28.893545506045776 4.510528303213154 #
point $-1 -2.1844728824083575 28.893545506045776 4.510528303213154 #
straight-curve $-1 -104.04546773909834 -9.2077318265179784 19.900734616373366 0 -1 0 I I #
End-of-ACIS-data 