500 0 14 0           
7 Unknown 11 ACIS 5.0 NT 24 Fri Mar 26 00:01:58 1999 
-1 9.9999999999999995e-007 1e-010 
body $-1 $14 $-1 $15 #
body $-1 $16 $-1 $17 #
body $-1 $18 $-1 $19 #
body $-1 $20 $-1 $21 #
body $-1 $22 $-1 $23 #
body $-1 $24 $-1 $25 #
body $-1 $26 $-1 $27 #
body $-1 $28 $-1 $29 #
body $-1 $30 $-1 $31 #
body $-1 $32 $-1 $33 #
body $-1 $34 $-1 $35 #
body $-1 $36 $-1 $37 #
body $-1 $38 $-1 $39 #
body $-1 $40 $-1 $41 #
lump $-1 $-1 $42 $0 #
transform $-1 1 0 0 0 1 0 0 0 1 60.341196935941646 38.493179278917644 12.550136810587878 1 rotate no_reflect no_shear #
lump $-1 $-1 $43 $1 #
transform $-1 1 0 0 0 1 0 0 0 1 60.341196935941646 38.493179278917644 12.550136810587878 1 rotate no_reflect no_shear #
lump $-1 $-1 $44 $2 #
transform $-1 1 0 0 0 1 0 0 0 1 60.341196935941646 38.493179278917644 12.550136810587878 1 rotate no_reflect no_shear #
lump $-1 $-1 $45 $3 #
transform $-1 1 0 0 0 1 0 0 0 1 60.341196935941646 38.493179278917644 12.550136810587878 1 rotate no_reflect no_shear #
lump $-1 $-1 $46 $4 #
transform $-1 1 0 0 0 1 0 0 0 1 60.341196935941646 38.493179278917644 12.550136810587878 1 rotate no_reflect no_shear #
lump $-1 $-1 $47 $5 #
transform $-1 1 0 0 0 1 0 0 0 1 60.341196935941646 38.493179278917644 12.550136810587878 1 rotate no_reflect no_shear #
lump $-1 $-1 $48 $6 #
transform $-1 1 0 0 0 1 0 0 0 1 60.341196935941646 38.493179278917644 12.550136810587878 1 rotate no_reflect no_shear #
lump $-1 $-1 $49 $7 #
transform $-1 1 0 0 0 1 0 0 0 1 60.341196935941646 38.493179278917644 12.550136810587878 1 rotate no_reflect no_shear #
lump $-1 $-1 $50 $8 #
transform $-1 1 0 0 0 1 0 0 0 1 60.341196935941646 38.493179278917644 12.550136810587878 1 rotate no_reflect no_shear #
lump $-1 $-1 $51 $9 #
transform $-1 1 0 0 0 1 0 0 0 1 60.341196935941646 38.493179278917644 12.550136810587878 1 rotate no_reflect no_shear #
lump $-1 $-1 $52 $10 #
transform $-1 1 0 0 0 1 0 0 0 1 60.341196935941646 38.493179278917644 12.550136810587878 1 rotate no_reflect no_shear #
lump $-1 $-1 $53 $11 #
transform $-1 1 0 0 0 1 0 0 0 1 60.341196935941646 38.493179278917644 12.550136810587878 1 rotate no_reflect no_shear #
lump $-1 $-1 $54 $12 #
transform $-1 1 0 0 0 1 0 0 0 1 60.341196935941646 38.493179278917644 12.550136810587878 1 rotate no_reflect no_shear #
lump $-1 $-1 $55 $13 #
transform $-1 1 0 0 0 1 0 0 0 1 60.341196935941646 38.493179278917644 12.550136810587878 1 rotate no_reflect no_shear #
shell $-1 $-1 $-1 $56 $-1 $14 #
shell $-1 $-1 $-1 $57 $-1 $16 #
shell $-1 $-1 $-1 $58 $-1 $18 #
shell $-1 $-1 $-1 $59 $-1 $20 #
shell $-1 $-1 $-1 $60 $-1 $22 #
shell $-1 $-1 $-1 $61 $-1 $24 #
shell $-1 $-1 $-1 $62 $-1 $26 #
shell $-1 $-1 $-1 $63 $-1 $28 #
shell $-1 $-1 $-1 $64 $-1 $30 #
shell $-1 $-1 $-1 $65 $-1 $32 #
shell $-1 $-1 $-1 $66 $-1 $34 #
shell $-1 $-1 $-1 $67 $-1 $36 #
shell $-1 $-1 $-1 $68 $-1 $38 #
shell $-1 $-1 $-1 $69 $-1 $40 #
face $-1 $70 $71 $42 $-1 $72 forward single #
face $-1 $73 $74 $43 $-1 $75 reversed single #
face $-1 $76 $77 $44 $-1 $78 reversed single #
face $-1 $79 $80 $45 $-1 $81 forward single #
face $-1 $82 $83 $46 $-1 $84 forward single #
face $-1 $85 $86 $47 $-1 $87 forward single #
face $-1 $88 $89 $48 $-1 $90 reversed single #
face $-1 $91 $92 $49 $-1 $93 forward single #
face $-1 $94 $95 $50 $-1 $96 forward single #
face $-1 $97 $98 $51 $-1 $99 forward single #
face $-1 $100 $101 $52 $-1 $102 reversed single #
face $-1 $103 $104 $53 $-1 $105 forward single #
face $-1 $106 $107 $54 $-1 $108 forward single #
face $-1 $109 $110 $55 $-1 $111 forward single #
face $-1 $112 $113 $42 $-1 $114 reversed single #
loop $-1 $-1 $115 $56 #
plane-surface $-1 0 0 12.550136810587878 0 0 1 1 0 0 forward_v I I I I #
face $-1 $116 $117 $43 $-1 $118 reversed single #
loop $-1 $-1 $119 $57 #
plane-surface $-1 -56.154908388618153 0 6.897883355325888 0 0 1 1 0 0 forward_v I I I I #
face $-1 $120 $121 $44 $-1 $122 reversed single #
loop $-1 $-1 $123 $58 #
plane-surface $-1 -42.617466009009291 -15.944396284571866 55.400838710901155 0 0.70710678939079041 0.70710677298230451 1 0 0 forward_v I I I I #
face $-1 $124 $125 $45 $-1 $126 forward single #
loop $-1 $127 $128 $59 #
cone-surface $-1 -48.228158308380515 31.980377808657806 6.0373352225836223 0 -0.70710678939079041 -0.70710677298230451 1 0 0 1 I I 0 1 1 forward I I I I #
face $-1 $129 $130 $46 $-1 $131 forward single #
loop $-1 $132 $133 $60 #
cone-surface $-1 -42.617466009009291 31.980377808657806 6.0373352225836223 0 -0.70710678939079041 -0.70710677298230451 1 0 0 1 I I 0 1 1 forward I I I I #
face $-1 $134 $135 $47 $-1 $136 forward single #
loop $-1 $137 $138 $61 #
cone-surface $-1 -37.006773709638068 31.980377808657806 6.0373352225836223 0 -0.70710678939079041 -0.70710677298230451 1 0 0 1 I I 0 1 1 forward I I I I #
face $-1 $139 $140 $48 $-1 $141 reversed single #
loop $-1 $-1 $142 $62 #
plane-surface $-1 4.1862885473234961 -137.35040991036996 71.104838662419183 -1 0 0 0 -0.81915205242281985 0.57357642473473569 forward_v I I I I #
face $-1 $143 $144 $49 $-1 $145 forward single #
loop $-1 $146 $147 $63 #
cone-surface $-1 -12.633826277345797 -33.847967171612254 6.5792760408302211 0 0.81915205242281985 -0.57357642473473569 1 0 0 1 I I 0 1 1 forward I I I I #
face $-1 $148 $149 $50 $-1 $150 forward single #
loop $-1 $151 $152 $64 #
cone-surface $-1 -6.3262832180948152 -33.847967171612254 6.5792760408302211 0 0.81915205242281985 -0.57357642473473569 1 0 0 1 I I 0 1 1 forward I I I I #
face $-1 $153 $154 $51 $-1 $155 forward single #
loop $-1 $156 $157 $65 #
cone-surface $-1 -0.018740158843833399 -33.847967171612254 6.5792760408302211 0 0.81915205242281985 -0.57357642473473569 1 0 0 1 I I 0 1 1 forward I I I I #
face $-1 $158 $159 $52 $-1 $160 reversed single #
loop $-1 $-1 $161 $66 #
plane-surface $-1 25.211432078160097 -137.35040991036996 71.104838662419183 -1 0 0 0 -0.81915205242281985 0.57357642473473569 forward_v I I I I #
face $-1 $162 $163 $53 $-1 $164 forward single #
loop $-1 $165 $166 $67 #
cone-surface $-1 8.3913172534908043 -33.847967171612254 6.5792760408302211 0 0.81915205242281985 -0.57357642473473569 1 0 0 1 I I 0 1 1 forward I I I I #
face $-1 $167 $168 $54 $-1 $169 forward single #
loop $-1 $170 $171 $68 #
cone-surface $-1 14.698860312741793 -33.847967171612254 6.5792760408302211 0 0.81915205242281985 -0.57357642473473569 1 0 0 1 I I 0 1 1 forward I I I I #
face $-1 $172 $173 $55 $-1 $174 forward single #
loop $-1 $175 $176 $69 #
cone-surface $-1 21.006403371992768 -33.847967171612254 6.5792760408302211 0 0.81915205242281985 -0.57357642473473569 1 0 0 1 I I 0 1 1 forward I I I I #
face $-1 $177 $178 $42 $-1 $179 reversed single #
loop $-1 $-1 $180 $70 #
plane-surface $-1 0 0 -12.550136810587878 0 0 1 1 0 0 forward_v I I I I #
coedge $-1 $181 $182 $183 $184 forward $71 $-1 #
face $-1 $185 $186 $43 $-1 $187 reversed single #
loop $-1 $-1 $188 $73 #
plane-surface $-1 -51.968619841294668 0 9.7240100829568821 -1 0 0 0 0 1 forward_v I I I I #
coedge $-1 $189 $190 $191 $192 forward $74 $-1 #
face $-1 $193 $194 $44 $-1 $195 forward single #
loop $-1 $-1 $196 $76 #
plane-surface $-1 -33.266312176723915 69.390943782170325 140.73617679742799 -1 0 0 0 0.70710678939079041 0.70710677298230451 forward_v I I I I #
coedge $-1 $197 $198 $199 $200 reversed $77 $-1 #
face $-1 $-1 $201 $45 $-1 $202 forward single #
loop $-1 $203 $204 $79 #
cone-surface $-1 -48.228158308380515 30.907460272468164 4.9644177112911425 0 -0.70710678939079041 -0.70710677298230451 0.5 0 0 1 I I -0.70710678118654746 0.70710678118654746 0.5 forward I I I I #
loop $-1 $-1 $205 $59 #
coedge $-1 $128 $128 $206 $207 reversed $80 $-1 #
face $-1 $-1 $208 $46 $-1 $209 forward single #
loop $-1 $210 $211 $82 #
cone-surface $-1 -42.617466009009291 30.907460272468164 4.9644177112911425 0 -0.70710678939079041 -0.70710677298230451 0.5 0 0 1 I I -0.70710678118654746 0.70710678118654746 0.5 forward I I I I #
loop $-1 $-1 $212 $60 #
coedge $-1 $133 $133 $213 $214 reversed $83 $-1 #
face $-1 $-1 $215 $47 $-1 $216 forward single #
loop $-1 $217 $218 $85 #
cone-surface $-1 -37.006773709638068 30.907460272468164 4.9644177112911425 0 -0.70710678939079041 -0.70710677298230451 0.5 0 0 1 I I -0.70710678118654746 0.70710678118654746 0.5 forward I I I I #
loop $-1 $-1 $219 $61 #
coedge $-1 $138 $138 $220 $221 reversed $86 $-1 #
face $-1 $222 $223 $48 $-1 $224 reversed single #
loop $-1 $-1 $225 $88 #
plane-surface $-1 -6.3262832180948081 -38.493179278917623 1.8842626569551868 0 -0.81915205242281985 0.57357642473473569 1 0 0 forward_v I I I I #
coedge $-1 $226 $227 $228 $229 reversed $89 $-1 #
face $-1 $-1 $230 $49 $-1 $231 forward single #
loop $-1 $232 $233 $91 #
cone-surface $-1 -12.633826277345797 -32.527341667375858 5.6545641355215412 0 0.81915205242281985 -0.57357642473473569 0.5 0 0 1 I I -0.70710678118654746 0.70710678118654746 0.5 forward I I I I #
loop $-1 $-1 $234 $63 #
coedge $-1 $147 $147 $235 $236 reversed $92 $-1 #
face $-1 $-1 $237 $50 $-1 $238 forward single #
loop $-1 $239 $240 $94 #
cone-surface $-1 -6.3262832180948152 -32.527341667375858 5.6545641355215412 0 0.81915205242281985 -0.57357642473473569 0.5 0 0 1 I I -0.70710678118654746 0.70710678118654746 0.5 forward I I I I #
loop $-1 $-1 $241 $64 #
coedge $-1 $152 $152 $242 $243 reversed $95 $-1 #
face $-1 $-1 $244 $51 $-1 $245 forward single #
loop $-1 $246 $247 $97 #
cone-surface $-1 -0.018740158843833399 -32.527341667375858 5.6545641355215412 0 0.81915205242281985 -0.57357642473473569 0.5 0 0 1 I I -0.70710678118654746 0.70710678118654746 0.5 forward I I I I #
loop $-1 $-1 $248 $65 #
coedge $-1 $157 $157 $249 $250 reversed $98 $-1 #
face $-1 $251 $252 $52 $-1 $253 reversed single #
loop $-1 $-1 $254 $100 #
plane-surface $-1 -6.3262832180948081 -38.493179278917623 1.8842626569551868 0 -0.81915205242281985 0.57357642473473569 1 0 0 forward_v I I I I #
coedge $-1 $255 $256 $257 $258 reversed $101 $-1 #
face $-1 $-1 $259 $53 $-1 $260 forward single #
loop $-1 $261 $262 $103 #
cone-surface $-1 8.3913172534908043 -32.527341667375858 5.6545641355215412 0 0.81915205242281985 -0.57357642473473569 0.5 0 0 1 I I -0.70710678118654746 0.70710678118654746 0.5 forward I I I I #
loop $-1 $-1 $263 $67 #
coedge $-1 $166 $166 $264 $265 reversed $104 $-1 #
face $-1 $-1 $266 $54 $-1 $267 forward single #
loop $-1 $268 $269 $106 #
cone-surface $-1 14.698860312741793 -32.527341667375858 5.6545641355215412 0 0.81915205242281985 -0.57357642473473569 0.5 0 0 1 I I -0.70710678118654746 0.70710678118654746 0.5 forward I I I I #
loop $-1 $-1 $270 $68 #
coedge $-1 $171 $171 $271 $272 reversed $107 $-1 #
face $-1 $-1 $273 $55 $-1 $274 forward single #
loop $-1 $275 $276 $109 #
cone-surface $-1 21.006403371992768 -32.527341667375858 5.6545641355215412 0 0.81915205242281985 -0.57357642473473569 0.5 0 0 1 I I -0.70710678118654746 0.70710678118654746 0.5 forward I I I I #
loop $-1 $-1 $277 $69 #
coedge $-1 $176 $176 $278 $279 reversed $110 $-1 #
face $-1 $280 $281 $42 $-1 $282 reversed single #
loop $-1 $-1 $283 $112 #
plane-surface $-1 0 -38.493179278917644 0 0 1 0 0 0 1 forward_v I I I I #
coedge $-1 $284 $285 $286 $287 forward $113 $-1 #
coedge $-1 $288 $115 $289 $290 forward $71 $-1 #
coedge $-1 $115 $288 $291 $292 forward $71 $-1 #
coedge $-1 $293 $294 $115 $184 reversed $295 $-1 #
edge $-1 $296 -38.493179278917644 $297 38.493179278917644 $183 $298 forward 7 unknown #
face $-1 $299 $300 $43 $-1 $301 reversed single #
loop $-1 $-1 $302 $116 #
plane-surface $-1 0 38.493179278917644 0 0 -1 0 0 0 -1 forward_v I I I I #
coedge $-1 $303 $304 $305 $306 reversed $117 $-1 #
coedge $-1 $307 $119 $308 $309 reversed $74 $-1 #
coedge $-1 $119 $307 $310 $311 reversed $74 $-1 #
coedge $-1 $304 $303 $119 $192 reversed $117 $-1 #
edge $-1 $312 -38.493179278917644 $313 38.493179278917644 $191 $314 forward 7 unknown #
face $-1 $315 $316 $44 $-1 $317 reversed single #
loop $-1 $-1 $199 $120 #
plane-surface $-1 0 0 12.550136810587878 0 0 1 1 0 0 forward_v I I I I #
coedge $-1 $318 $319 $320 $321 reversed $121 $-1 #
coedge $-1 $322 $123 $323 $324 reversed $77 $-1 #
coedge $-1 $123 $322 $318 $325 forward $77 $-1 #
coedge $-1 $320 $326 $123 $200 forward $194 $-1 #
edge $-1 $327 -30.659886836790022 $328 -11.957579172219269 $199 $329 forward 7 unknown #
loop $-1 $-1 $206 $124 #
plane-surface $-1 -42.617466009009291 -15.944396284571866 55.400838710901155 0 0.70710678939079041 0.70710677298230451 1 0 0 forward_v I I I I #
loop $-1 $-1 $330 $79 #
coedge $-1 $204 $204 $205 $331 reversed $125 $-1 #
coedge $-1 $205 $205 $204 $331 forward $127 $-1 #
coedge $-1 $206 $206 $128 $207 forward $201 $-1 #
edge $-1 $332 1.2560740981099875e-015 $332 6.2831853071796013 $206 $333 forward 7 unknown #
loop $-1 $-1 $213 $129 #
plane-surface $-1 -42.617466009009291 -15.944396284571866 55.400838710901155 0 0.70710678939079041 0.70710677298230451 1 0 0 forward_v I I I I #
loop $-1 $-1 $334 $82 #
coedge $-1 $211 $211 $212 $335 reversed $130 $-1 #
coedge $-1 $212 $212 $211 $335 forward $132 $-1 #
coedge $-1 $213 $213 $133 $214 forward $208 $-1 #
edge $-1 $336 1.2560740981099875e-015 $336 6.2831853071796013 $213 $337 forward 7 unknown #
loop $-1 $-1 $220 $134 #
plane-surface $-1 -42.617466009009291 -15.944396284571866 55.400838710901155 0 0.70710678939079041 0.70710677298230451 1 0 0 forward_v I I I I #
loop $-1 $-1 $338 $85 #
coedge $-1 $218 $218 $219 $339 reversed $135 $-1 #
coedge $-1 $219 $219 $218 $339 forward $137 $-1 #
coedge $-1 $220 $220 $138 $221 forward $215 $-1 #
edge $-1 $340 1.2560740981099875e-015 $340 6.2831853071796013 $220 $341 forward 7 unknown #
face $-1 $342 $343 $48 $-1 $344 reversed single #
loop $-1 $-1 $345 $139 #
plane-surface $-1 -16.838854983513112 -137.35040991036996 71.104838662419183 1 0 0 0 0.81915205242281985 -0.57357642473473569 forward_v I I I I #
coedge $-1 $346 $347 $348 $349 reversed $140 $-1 #
coedge $-1 $227 $142 $350 $351 reversed $89 $-1 #
coedge $-1 $142 $226 $346 $352 reversed $89 $-1 #
coedge $-1 $348 $353 $142 $229 forward $354 $-1 #
edge $-1 $355 30.182025676267337 $356 37.650350934828154 $228 $357 forward 7 unknown #
loop $-1 $-1 $235 $143 #
plane-surface $-1 -6.3262832180948081 -38.493179278917623 1.8842626569551868 0 -0.81915205242281985 0.57357642473473569 1 0 0 forward_v I I I I #
loop $-1 $-1 $358 $91 #
coedge $-1 $233 $233 $234 $359 reversed $144 $-1 #
coedge $-1 $234 $234 $233 $359 forward $146 $-1 #
coedge $-1 $235 $235 $147 $236 forward $230 $-1 #
edge $-1 $360 -8.754794858201828e-016 $360 6.2831853071795996 $235 $361 forward 7 unknown #
loop $-1 $-1 $242 $148 #
plane-surface $-1 -6.3262832180948081 -38.493179278917623 1.8842626569551868 0 -0.81915205242281985 0.57357642473473569 1 0 0 forward_v I I I I #
loop $-1 $-1 $362 $94 #
coedge $-1 $240 $240 $241 $363 reversed $149 $-1 #
coedge $-1 $241 $241 $240 $363 forward $151 $-1 #
coedge $-1 $242 $242 $152 $243 forward $237 $-1 #
edge $-1 $364 -8.754794858201828e-016 $364 6.2831853071795996 $242 $365 forward 7 unknown #
loop $-1 $-1 $249 $153 #
plane-surface $-1 -6.3262832180948081 -38.493179278917623 1.8842626569551868 0 -0.81915205242281985 0.57357642473473569 1 0 0 forward_v I I I I #
loop $-1 $-1 $366 $97 #
coedge $-1 $247 $247 $248 $367 reversed $154 $-1 #
coedge $-1 $248 $248 $247 $367 forward $156 $-1 #
coedge $-1 $249 $249 $157 $250 forward $244 $-1 #
edge $-1 $368 -8.754794858201828e-016 $368 6.2831853071795996 $249 $369 forward 7 unknown #
face $-1 $370 $371 $52 $-1 $372 forward single #
loop $-1 $-1 $373 $158 #
plane-surface $-1 0 -38.493179278917644 0 0 1 0 0 0 1 forward_v I I I I #
coedge $-1 $374 $375 $376 $377 reversed $159 $-1 #
coedge $-1 $256 $161 $378 $379 reversed $101 $-1 #
coedge $-1 $161 $255 $380 $381 reversed $101 $-1 #
coedge $-1 $382 $373 $161 $258 forward $252 $-1 #
edge $-1 $383 -33.668156674254433 $384 -23.002282520621712 $257 $385 forward 7 unknown #
loop $-1 $-1 $264 $162 #
plane-surface $-1 -6.3262832180948081 -38.493179278917623 1.8842626569551868 0 -0.81915205242281985 0.57357642473473569 1 0 0 forward_v I I I I #
loop $-1 $-1 $386 $103 #
coedge $-1 $262 $262 $263 $387 reversed $163 $-1 #
coedge $-1 $263 $263 $262 $387 forward $165 $-1 #
coedge $-1 $264 $264 $166 $265 forward $259 $-1 #
edge $-1 $388 -8.754794858201828e-016 $388 6.2831853071795996 $264 $389 forward 7 unknown #
loop $-1 $-1 $271 $167 #
plane-surface $-1 -6.3262832180948081 -38.493179278917623 1.8842626569551868 0 -0.81915205242281985 0.57357642473473569 1 0 0 forward_v I I I I #
loop $-1 $-1 $390 $106 #
coedge $-1 $269 $269 $270 $391 reversed $168 $-1 #
coedge $-1 $270 $270 $269 $391 forward $170 $-1 #
coedge $-1 $271 $271 $171 $272 forward $266 $-1 #
edge $-1 $392 -8.754794858201828e-016 $392 6.2831853071795996 $271 $393 forward 7 unknown #
loop $-1 $-1 $278 $172 #
plane-surface $-1 -6.3262832180948081 -38.493179278917623 1.8842626569551868 0 -0.81915205242281985 0.57357642473473569 1 0 0 forward_v I I I I #
loop $-1 $-1 $394 $109 #
coedge $-1 $276 $276 $277 $395 reversed $173 $-1 #
coedge $-1 $277 $277 $276 $395 forward $175 $-1 #
coedge $-1 $278 $278 $176 $279 forward $273 $-1 #
edge $-1 $396 -8.754794858201828e-016 $396 6.2831853071795996 $278 $397 forward 7 unknown #
face $-1 $398 $399 $42 $-1 $400 reversed single #
loop $-1 $-1 $401 $177 #
plane-surface $-1 -60.341196935941646 0 0 1 0 0 0 0 -1 forward_v I I I I #
coedge $-1 $402 $291 $403 $404 forward $178 $-1 #
coedge $-1 $405 $180 $402 $406 forward $113 $-1 #
coedge $-1 $180 $405 $407 $408 forward $113 $-1 #
coedge $-1 $294 $293 $180 $287 reversed $295 $-1 #
edge $-1 $409 -38.493179278917644 $410 38.493179278917644 $286 $411 forward 7 unknown #
coedge $-1 $182 $181 $412 $413 forward $71 $-1 #
coedge $-1 $414 $415 $181 $290 reversed $399 $-1 #
edge $-1 $297 -60.341196935941646 $416 60.341196935941646 $289 $417 forward 7 unknown #
coedge $-1 $283 $418 $182 $292 reversed $178 $-1 #
edge $-1 $419 -60.341196935941646 $296 60.341196935941646 $291 $420 forward 7 unknown #
coedge $-1 $286 $183 $418 $421 forward $295 $-1 #
coedge $-1 $183 $286 $414 $422 reversed $295 $-1 #
loop $-1 $-1 $293 $398 #
vertex $-1 $184 $423 #
vertex $-1 $184 $424 #
straight-curve $-1 60.341196935941646 0 12.550136810587878 0 1 0 I I #
face $-1 $425 $426 $43 $-1 $427 forward single #
loop $-1 $-1 $428 $185 #
plane-surface $-1 -60.341196935941646 0 0 1 0 0 0 0 -1 forward_v I I I I #
coedge $-1 $310 $429 $304 $430 forward $186 $-1 #
coedge $-1 $191 $188 $431 $432 reversed $117 $-1 #
coedge $-1 $188 $191 $302 $430 reversed $117 $-1 #
coedge $-1 $433 $434 $188 $306 forward $426 $-1 #
edge $-1 $435 -38.493179278917644 $436 38.493179278917644 $305 $437 forward 7 unknown #
coedge $-1 $190 $189 $428 $438 reversed $74 $-1 #
coedge $-1 $431 $439 $189 $309 forward $440 $-1 #
edge $-1 $441 -32.263742741632562 $313 -23.891165646985591 $308 $442 forward 7 unknown #
coedge $-1 $443 $302 $190 $311 forward $186 $-1 #
edge $-1 $312 23.891165646985591 $444 32.263742741632562 $310 $445 forward 7 unknown #
vertex $-1 $311 $446 #
vertex $-1 $309 $447 #
straight-curve $-1 -51.968619841294668 0 6.897883355325888 0 -1 0 I I #
face $-1 $-1 $448 $44 $-1 $449 forward single #
loop $-1 $-1 $450 $193 #
plane-surface $-1 0 38.493179278917644 0 0 -1 0 0 0 -1 forward_v I I I I #
coedge $-1 $319 $196 $198 $325 reversed $121 $-1 #
coedge $-1 $196 $318 $450 $451 reversed $121 $-1 #
coedge $-1 $452 $199 $196 $321 forward $194 $-1 #
edge $-1 $328 -7.7891672696987087 $453 3.7977073878324816 $320 $454 forward 7 unknown #
coedge $-1 $198 $197 $455 $456 reversed $77 $-1 #
coedge $-1 $457 $458 $197 $324 forward $448 $-1 #
edge $-1 $459 -55.199965435538417 $327 -38.813649959217635 $323 $460 forward 7 unknown #
edge $-1 $461 -76.986358557835274 $328 -60.600043081514478 $318 $462 forward 7 unknown #
coedge $-1 $199 $452 $457 $463 forward $194 $-1 #
vertex $-1 $324 $464 #
vertex $-1 $200 $465 #
straight-curve $-1 -21.308733004504646 26.906304621386457 12.550136810587876 1 0 0 I I #
coedge $-1 $330 $330 $-1 $466 reversed $203 $-1 #
edge $-1 $467 0 $467 6.2831853071796004 $204 $468 forward 7 unknown #
vertex $-1 $207 $469 #
ellipse-curve $-1 -48.228158308380515 32.69974195015206 6.7566993473849601 0 0.70710678939079041 0.70710677298230451 1 0 0 1 I I #
coedge $-1 $334 $334 $-1 $470 reversed $210 $-1 #
edge $-1 $471 0 $471 6.2831853071796004 $211 $472 forward 7 unknown #
vertex $-1 $214 $473 #
ellipse-curve $-1 -42.617466009009291 32.69974195015206 6.7566993473849601 0 0.70710678939079041 0.70710677298230451 1 0 0 1 I I #
coedge $-1 $338 $338 $-1 $474 reversed $217 $-1 #
edge $-1 $475 0 $475 6.2831853071796004 $218 $476 forward 7 unknown #
vertex $-1 $221 $477 #
ellipse-curve $-1 -37.006773709638068 32.69974195015206 6.7566993473849601 0 0.70710678939079041 0.70710677298230451 1 0 0 1 I I #
face $-1 $-1 $354 $48 $-1 $478 forward single #
loop $-1 $-1 $479 $222 #
plane-surface $-1 0 -38.493179278917644 0 0 1 0 0 0 1 forward_v I I I I #
coedge $-1 $480 $481 $482 $483 reversed $223 $-1 #
coedge $-1 $484 $225 $227 $352 forward $140 $-1 #
coedge $-1 $225 $484 $480 $485 forward $140 $-1 #
coedge $-1 $482 $228 $225 $349 forward $354 $-1 #
edge $-1 $356 -7.3494301563709001 $486 13.675713374465708 $348 $487 forward 7 unknown #
coedge $-1 $488 $489 $226 $351 forward $343 $-1 #
edge $-1 $490 -33.668156674254433 $355 -23.002282520621712 $350 $491 forward 7 unknown #
edge $-1 $356 -13.020628004393146 $490 3.7145213117919725e-014 $227 $492 forward 7 unknown #
coedge $-1 $228 $482 $488 $493 forward $354 $-1 #
loop $-1 $-1 $482 $342 #
vertex $-1 $351 $494 #
vertex $-1 $229 $495 #
straight-curve $-1 4.1862885473234961 -68.675204955184981 12.55013681058788 0 1 0 I I #
coedge $-1 $358 $358 $-1 $496 reversed $232 $-1 #
edge $-1 $497 0 $497 6.2831853071796004 $233 $498 forward 7 unknown #
vertex $-1 $236 $499 #
ellipse-curve $-1 -12.633826277345797 -34.759016649637232 7.2171997337715244 0 -0.81915205242281985 0.57357642473473569 1 0 0 1 I I #
coedge $-1 $362 $362 $-1 $500 reversed $239 $-1 #
edge $-1 $501 0 $501 6.2831853071796004 $240 $502 forward 7 unknown #
vertex $-1 $243 $503 #
ellipse-curve $-1 -6.3262832180948152 -34.759016649637232 7.2171997337715244 0 -0.81915205242281985 0.57357642473473569 1 0 0 1 I I #
coedge $-1 $366 $366 $-1 $504 reversed $246 $-1 #
edge $-1 $505 0 $505 6.2831853071796004 $247 $506 forward 7 unknown #
vertex $-1 $250 $507 #
ellipse-curve $-1 -0.018740158843833399 -34.759016649637232 7.2171997337715244 0 -0.81915205242281985 0.57357642473473569 1 0 0 1 I I #
face $-1 $-1 $508 $52 $-1 $509 forward single #
loop $-1 $-1 $510 $251 #
plane-surface $-1 4.1862885473234961 -137.35040991036996 71.104838662419183 -1 0 0 0 -0.81915205242281985 0.57357642473473569 forward_v I I I I #
coedge $-1 $257 $511 $375 $512 forward $252 $-1 #
coedge $-1 $378 $254 $513 $514 reversed $159 $-1 #
coedge $-1 $254 $378 $373 $512 reversed $159 $-1 #
coedge $-1 $515 $510 $254 $377 forward $371 $-1 #
edge $-1 $516 -13.020628004393146 $517 3.7145213117919725e-014 $376 $518 forward 7 unknown #
coedge $-1 $375 $374 $255 $379 forward $159 $-1 #
edge $-1 $519 -13.020628004393146 $383 3.7145213117919725e-014 $255 $520 forward 7 unknown #
coedge $-1 $513 $521 $256 $381 forward $508 $-1 #
edge $-1 $384 30.182025676267337 $519 37.650350934828154 $380 $522 forward 7 unknown #
coedge $-1 $511 $257 $521 $523 reversed $252 $-1 #
vertex $-1 $258 $524 #
vertex $-1 $258 $525 #
straight-curve $-1 25.211432078160097 -38.493179278917644 35.552419331209592 0 0 1 I I #
coedge $-1 $386 $386 $-1 $526 reversed $261 $-1 #
edge $-1 $527 0 $527 6.2831853071796004 $262 $528 forward 7 unknown #
vertex $-1 $265 $529 #
ellipse-curve $-1 8.3913172534908043 -34.759016649637232 7.2171997337715244 0 -0.81915205242281985 0.57357642473473569 1 0 0 1 I I #
coedge $-1 $390 $390 $-1 $530 reversed $268 $-1 #
edge $-1 $531 0 $531 6.2831853071796004 $269 $532 forward 7 unknown #
vertex $-1 $272 $533 #
ellipse-curve $-1 14.698860312741793 -34.759016649637232 7.2171997337715244 0 -0.81915205242281985 0.57357642473473569 1 0 0 1 I I #
coedge $-1 $394 $394 $-1 $534 reversed $275 $-1 #
edge $-1 $535 0 $535 6.2831853071796004 $276 $536 forward 7 unknown #
vertex $-1 $279 $537 #
ellipse-curve $-1 21.006403371992768 -34.759016649637232 7.2171997337715244 0 -0.81915205242281985 0.57357642473473569 1 0 0 1 I I #
face $-1 $-1 $295 $42 $-1 $538 reversed single #
loop $-1 $-1 $414 $280 #
plane-surface $-1 0 38.493179278917644 0 0 -1 0 0 0 -1 forward_v I I I I #
coedge $-1 $539 $412 $415 $540 forward $281 $-1 #
coedge $-1 $418 $283 $284 $406 reversed $178 $-1 #
coedge $-1 $412 $539 $283 $404 reversed $281 $-1 #
edge $-1 $419 -12.550136810587878 $541 12.550136810587878 $403 $542 forward 7 unknown #
coedge $-1 $285 $284 $539 $543 forward $113 $-1 #
edge $-1 $410 -60.341196935941646 $541 60.341196935941646 $402 $544 forward 7 unknown #
coedge $-1 $415 $414 $285 $408 reversed $399 $-1 #
edge $-1 $545 -60.341196935941646 $409 60.341196935941646 $407 $546 forward 7 unknown #
vertex $-1 $287 $547 #
vertex $-1 $421 $548 #
straight-curve $-1 60.341196935941646 0 -12.550136810587878 0 -1 0 I I #
coedge $-1 $401 $403 $288 $413 reversed $281 $-1 #
edge $-1 $416 -38.493179278917644 $419 38.493179278917644 $412 $549 forward 7 unknown #
coedge $-1 $407 $289 $294 $422 forward $399 $-1 #
coedge $-1 $289 $407 $401 $540 reversed $399 $-1 #
vertex $-1 $290 $550 #
straight-curve $-1 0 38.493179278917644 12.550136810587878 -1 0 0 I I #
coedge $-1 $291 $402 $293 $421 reversed $178 $-1 #
vertex $-1 $413 $551 #
straight-curve $-1 0 -38.493179278917644 12.550136810587878 1 0 0 I I #
edge $-1 $296 -12.550136810587878 $410 12.550136810587878 $293 $552 forward 7 unknown #
edge $-1 $297 -12.550136810587878 $409 12.550136810587878 $294 $553 forward 7 unknown #
point $-1 60.341196935941646 -38.493179278917644 12.550136810587878 #
point $-1 60.341196935941646 38.493179278917644 12.550136810587878 #
face $-1 $-1 $440 $43 $-1 $554 reversed single #
loop $-1 $-1 $305 $299 #
plane-surface $-1 0 0 12.550136810587878 0 0 1 1 0 0 forward_v I I I I #
coedge $-1 $555 $556 $307 $438 forward $300 $-1 #
coedge $-1 $302 $443 $433 $557 reversed $186 $-1 #
edge $-1 $436 -7.6881317691094351 $312 -2.035878313847447 $302 $558 forward 7 unknown #
coedge $-1 $559 $308 $303 $432 forward $440 $-1 #
edge $-1 $313 2.035878313847447 $435 7.6881317691094351 $431 $560 forward 7 unknown #
coedge $-1 $561 $305 $429 $557 forward $426 $-1 #
coedge $-1 $305 $561 $559 $562 forward $426 $-1 #
vertex $-1 $432 $563 #
vertex $-1 $557 $564 #
straight-curve $-1 -51.968619841294668 0 12.550136810587878 0 1 0 I I #
edge $-1 $444 -38.493179278917644 $441 38.493179278917644 $428 $565 forward 7 unknown #
coedge $-1 $308 $559 $555 $566 forward $440 $-1 #
loop $-1 $-1 $431 $425 #
vertex $-1 $438 $567 #
straight-curve $-1 -28.077454194309077 -38.493179278917644 6.897883355325888 1 0 0 I I #
coedge $-1 $429 $310 $556 $568 reversed $186 $-1 #
vertex $-1 $438 $569 #
straight-curve $-1 -28.077454194309077 38.493179278917644 6.897883355325888 -1 0 0 I I #
point $-1 -51.968619841294668 38.493179278917644 6.897883355325888 #
point $-1 -51.968619841294668 -38.493179278917644 6.897883355325888 #
loop $-1 $-1 $323 $315 #
plane-surface $-1 -51.968619841294668 0 9.7240100829568821 -1 0 0 0 0 1 forward_v I I I I #
coedge $-1 $455 $570 $319 $451 forward $316 $-1 #
edge $-1 $453 57.817951588126114 $461 69.404826514531919 $450 $571 forward 7 unknown #
coedge $-1 $326 $320 $570 $572 forward $194 $-1 #
vertex $-1 $572 $573 #
straight-curve $-1 -33.266312176723915 34.695471891085162 12.550136810587873 0 1 0 I I #
coedge $-1 $574 $450 $322 $456 forward $316 $-1 #
edge $-1 $461 11.957579172219269 $459 30.659886836790022 $455 $575 forward 7 unknown #
coedge $-1 $458 $323 $326 $463 reversed $448 $-1 #
coedge $-1 $323 $457 $574 $576 reversed $448 $-1 #
vertex $-1 $576 $577 #
straight-curve $-1 -51.968619841294668 -0.53909014894067564 39.995532217788238 0 -0.70710677298230462 0.70710678939079052 I I #
vertex $-1 $456 $578 #
straight-curve $-1 -33.266312176723915 -15.944396284571866 55.400838710901155 0 -0.70710677298230451 0.70710678939079041 I I #
edge $-1 $579 -38.493179278917644 $327 -26.906304621386461 $326 $580 forward 7 unknown #
point $-1 -51.968619841294668 26.906304621386461 12.550136810587878 #
point $-1 -33.266312176723915 26.906304621386454 12.55013681058788 #
edge $-1 $581 1 $581 0 $330 $-1 forward 7 unknown #
vertex $-1 $331 $582 #
ellipse-curve $-1 -48.228158308380515 31.26101366716356 5.3179710977822952 0 0.70710678939079041 0.70710677298230451 1 0 0 1 I I #
point $-1 -47.228158308380515 32.699741950152053 6.7566993473849513 #
edge $-1 $583 1 $583 0 $334 $-1 forward 7 unknown #
vertex $-1 $335 $584 #
ellipse-curve $-1 -42.617466009009291 31.26101366716356 5.3179710977822952 0 0.70710678939079041 0.70710677298230451 1 0 0 1 I I #
point $-1 -41.617466009009291 32.699741950152053 6.7566993473849513 #
edge $-1 $585 1 $585 0 $338 $-1 forward 7 unknown #
vertex $-1 $339 $586 #
ellipse-curve $-1 -37.006773709638068 31.26101366716356 5.3179710977822952 0 0.70710678939079041 0.70710677298230451 1 0 0 1 I I #
point $-1 -36.006773709638068 32.699741950152053 6.7566993473849513 #
plane-surface $-1 0 0 12.550136810587878 0 0 1 1 0 0 forward_v I I I I #
coedge $-1 $489 $488 $481 $587 forward $343 $-1 #
coedge $-1 $481 $345 $347 $485 reversed $223 $-1 #
coedge $-1 $345 $480 $479 $587 reversed $223 $-1 #
coedge $-1 $353 $348 $345 $483 forward $354 $-1 #
edge $-1 $486 -37.650350934828154 $588 -30.182025676267337 $482 $589 forward 7 unknown #
coedge $-1 $347 $346 $489 $590 reversed $140 $-1 #
edge $-1 $591 -3.7145213117919725e-014 $486 13.020628004393146 $480 $592 forward 7 unknown #
vertex $-1 $349 $593 #
straight-curve $-1 -3.163141609047404 -31.024854020356827 12.550136810587878 -1 0 0 I I #
coedge $-1 $479 $350 $353 $493 reversed $343 $-1 #
coedge $-1 $350 $479 $484 $590 forward $343 $-1 #
vertex $-1 $351 $594 #
straight-curve $-1 4.1862885473234961 -38.493179278917644 35.552419331209592 0 0 1 I I #
straight-curve $-1 4.1862885473234961 -38.493179278917623 1.8842626569551868 0 -0.57357642473473569 -0.81915205242281985 I I #
edge $-1 $588 -16.838854983513112 $355 4.1862885473234961 $488 $595 forward 7 unknown #
point $-1 4.1862885473234961 -38.493179278917644 12.550136810587878 #
point $-1 4.1862885473234961 -31.024854020356827 12.550136810587878 #
edge $-1 $596 1 $596 0 $358 $-1 forward 7 unknown #
vertex $-1 $359 $597 #
ellipse-curve $-1 -12.633826277345797 -32.936917693587269 5.941352347888909 0 -0.81915205242281985 0.57357642473473569 1 0 0 1 I I #
point $-1 -11.633826277345797 -34.759016649637246 7.2171997337715332 #
edge $-1 $598 1 $598 0 $362 $-1 forward 7 unknown #
vertex $-1 $363 $599 #
ellipse-curve $-1 -6.3262832180948152 -32.936917693587269 5.941352347888909 0 -0.81915205242281985 0.57357642473473569 1 0 0 1 I I #
point $-1 -5.3262832180948152 -34.759016649637246 7.2171997337715332 #
edge $-1 $600 1 $600 0 $366 $-1 forward 7 unknown #
vertex $-1 $367 $601 #
ellipse-curve $-1 -0.018740158843833399 -32.936917693587269 5.941352347888909 0 -0.81915205242281985 0.57357642473473569 1 0 0 1 I I #
point $-1 0.9812598411561666 -34.759016649637246 7.2171997337715332 #
loop $-1 $-1 $513 $370 #
plane-surface $-1 0 0 12.550136810587878 0 0 1 1 0 0 forward_v I I I I #
coedge $-1 $376 $515 $602 $603 reversed $371 $-1 #
coedge $-1 $373 $382 $515 $604 forward $252 $-1 #
edge $-1 $517 7.3494301563709001 $383 28.374573687207501 $373 $605 forward 7 unknown #
coedge $-1 $602 $380 $374 $514 forward $508 $-1 #
edge $-1 $519 -28.374573687207501 $516 -7.3494301563709001 $513 $606 forward 7 unknown #
coedge $-1 $510 $376 $511 $604 reversed $371 $-1 #
vertex $-1 $514 $607 #
vertex $-1 $512 $608 #
straight-curve $-1 4.1862885473234961 -38.493179278917623 1.8842626569551868 0 -0.57357642473473569 -0.81915205242281985 I I #
vertex $-1 $381 $609 #
straight-curve $-1 25.211432078160097 -38.493179278917623 1.8842626569551868 0 -0.57357642473473569 -0.81915205242281985 I I #
coedge $-1 $380 $602 $382 $523 forward $508 $-1 #
straight-curve $-1 25.211432078160097 -68.675204955184981 12.55013681058788 0 1 0 I I #
edge $-1 $610 4.1862885473234961 $384 25.211432078160097 $382 $611 forward 7 unknown #
point $-1 25.211432078160097 -38.493179278917644 1.8842626569551564 #
point $-1 25.211432078160097 -38.493179278917644 12.550136810587878 #
edge $-1 $612 1 $612 0 $386 $-1 forward 7 unknown #
vertex $-1 $387 $613 #
ellipse-curve $-1 8.3913172534908043 -32.936917693587269 5.941352347888909 0 -0.81915205242281985 0.57357642473473569 1 0 0 1 I I #
point $-1 9.3913172534908043 -34.759016649637246 7.2171997337715332 #
edge $-1 $614 1 $614 0 $390 $-1 forward 7 unknown #
vertex $-1 $391 $615 #
ellipse-curve $-1 14.698860312741793 -32.936917693587269 5.941352347888909 0 -0.81915205242281985 0.57357642473473569 1 0 0 1 I I #
point $-1 15.698860312741793 -34.759016649637246 7.2171997337715332 #
edge $-1 $616 1 $616 0 $394 $-1 forward 7 unknown #
vertex $-1 $395 $617 #
ellipse-curve $-1 21.006403371992768 -32.936917693587269 5.941352347888909 0 -0.81915205242281985 0.57357642473473569 1 0 0 1 I I #
point $-1 22.006403371992768 -34.759016649637246 7.2171997337715332 #
plane-surface $-1 60.341196935941646 0 0 -1 0 0 0 0 1 forward_v I I I I #
coedge $-1 $403 $401 $405 $543 reversed $281 $-1 #
edge $-1 $416 -12.550136810587878 $545 12.550136810587878 $415 $618 forward 7 unknown #
vertex $-1 $543 $619 #
straight-curve $-1 -60.341196935941646 -38.493179278917644 0 0 0 -1 I I #
edge $-1 $541 -38.493179278917644 $545 38.493179278917644 $539 $620 forward 7 unknown #
straight-curve $-1 0 -38.493179278917644 -12.550136810587878 -1 0 0 I I #
vertex $-1 $408 $621 #
straight-curve $-1 0 38.493179278917644 -12.550136810587878 1 0 0 I I #
point $-1 60.341196935941646 38.493179278917644 -12.550136810587878 #
point $-1 60.341196935941646 -38.493179278917644 -12.550136810587878 #
straight-curve $-1 -60.341196935941646 0 12.550136810587878 0 -1 0 I I #
point $-1 -60.341196935941646 38.493179278917644 12.550136810587878 #
point $-1 -60.341196935941646 -38.493179278917644 12.550136810587878 #
straight-curve $-1 60.341196935941646 -38.493179278917644 0 0 0 -1 I I #
straight-curve $-1 60.341196935941646 38.493179278917644 0 0 0 -1 I I #
plane-surface $-1 0 -38.493179278917644 0 0 1 0 0 0 1 forward_v I I I I #
coedge $-1 $622 $428 $439 $566 reversed $300 $-1 #
coedge $-1 $428 $622 $443 $568 forward $300 $-1 #
edge $-1 $436 51.968619841294668 $623 60.341196935941646 $429 $624 forward 7 unknown #
straight-curve $-1 -51.968619841294668 38.493179278917644 4.862005041478441 0 0 -1 I I #
coedge $-1 $439 $431 $434 $562 reversed $440 $-1 #
straight-curve $-1 -51.968619841294668 -38.493179278917644 4.862005041478441 0 0 1 I I #
coedge $-1 $434 $433 $622 $625 forward $426 $-1 #
edge $-1 $626 -60.341196935941646 $435 -51.968619841294668 $559 $627 forward 7 unknown #
point $-1 -51.968619841294668 -38.493179278917644 12.550136810587876 #
point $-1 -51.968619841294668 38.493179278917644 12.550136810587876 #
straight-curve $-1 -60.341196935941646 0 6.897883355325888 0 -1 0 I I #
edge $-1 $626 -12.550136810587878 $441 -6.897883355325888 $555 $628 forward 7 unknown #
point $-1 -60.341196935941639 -38.493179278917644 6.897883355325888 #
edge $-1 $623 -12.550136810587878 $444 -6.897883355325888 $443 $629 forward 7 unknown #
point $-1 -60.341196935941639 38.493179278917644 6.897883355325888 #
coedge $-1 $450 $574 $452 $572 reversed $316 $-1 #
straight-curve $-1 -33.266312176723915 38.493179278917644 70.368088398713994 0 0 -1 I I #
edge $-1 $453 33.266312176723915 $579 51.968619841294668 $570 $630 forward 7 unknown #
point $-1 -33.266312176723915 38.493179278917644 12.550136810587878 #
coedge $-1 $570 $455 $458 $576 forward $316 $-1 #
straight-curve $-1 -21.308733004504646 38.493179278917637 0.96326188418207082 -1 0 0 I I #
edge $-1 $459 -69.404826514531919 $579 -57.817951588126121 $574 $631 forward 7 unknown #
point $-1 -51.968619841294668 38.493179278917644 0.96326188418206726 #
point $-1 -33.266312176723915 38.493179278917644 0.96326188418206726 #
vertex $-1 $463 $632 #
straight-curve $-1 -51.968619841294668 0 12.550136810587878 0 -1 0 I I #
vertex $-1 $466 $633 #
point $-1 -47.228158308380515 31.26101366716356 5.3179710977822952 #
vertex $-1 $470 $634 #
point $-1 -41.617466009009291 31.26101366716356 5.3179710977822952 #
vertex $-1 $474 $635 #
point $-1 -36.006773709638068 31.26101366716356 5.3179710977822952 #
edge $-1 $588 23.002282520621712 $591 33.668156674254433 $479 $636 forward 7 unknown #
vertex $-1 $493 $637 #
straight-curve $-1 -16.838854983513112 -68.675204955184981 12.55013681058788 0 -1 0 I I #
edge $-1 $591 -13.675713374465708 $490 7.3494301563709001 $489 $638 forward 7 unknown #
vertex $-1 $590 $639 #
straight-curve $-1 -16.838854983513112 -38.493179278917623 1.8842626569551868 0 0.57357642473473569 0.81915205242281985 I I #
point $-1 -16.838854983513112 -31.024854020356827 12.550136810587878 #
point $-1 4.1862885473234961 -38.493179278917644 1.8842626569551564 #
straight-curve $-1 0 -38.493179278917644 12.550136810587878 1 0 0 I I #
vertex $-1 $496 $640 #
point $-1 -11.633826277345797 -32.936917693587269 5.941352347888909 #
vertex $-1 $500 $641 #
point $-1 -5.3262832180948152 -32.936917693587269 5.941352347888909 #
vertex $-1 $504 $642 #
point $-1 0.9812598411561666 -32.936917693587269 5.941352347888909 #
coedge $-1 $521 $513 $510 $603 forward $508 $-1 #
edge $-1 $516 -37.650350934828154 $610 -30.182025676267337 $602 $643 forward 7 unknown #
edge $-1 $610 23.002282520621712 $517 33.668156674254433 $511 $644 forward 7 unknown #
straight-curve $-1 -3.163141609047404 -38.493179278917644 1.8842626569551606 1 0 0 I I #
straight-curve $-1 -3.163141609047404 -31.024854020356827 12.550136810587878 -1 0 0 I I #
point $-1 4.1862885473234961 -31.024854020356827 12.550136810587878 #
point $-1 4.1862885473234961 -38.493179278917644 1.8842626569551564 #
point $-1 25.211432078160097 -31.024854020356827 12.550136810587878 #
vertex $-1 $523 $645 #
straight-curve $-1 0 -38.493179278917644 12.550136810587878 1 0 0 I I #
vertex $-1 $526 $646 #
point $-1 9.3913172534908043 -32.936917693587269 5.941352347888909 #
vertex $-1 $530 $647 #
point $-1 15.698860312741793 -32.936917693587269 5.941352347888909 #
vertex $-1 $534 $648 #
point $-1 22.006403371992768 -32.936917693587269 5.941352347888909 #
straight-curve $-1 -60.341196935941646 38.493179278917644 0 0 0 -1 I I #
point $-1 -60.341196935941646 -38.493179278917644 -12.550136810587878 #
straight-curve $-1 -60.341196935941646 0 -12.550136810587878 0 1 0 I I #
point $-1 -60.341196935941646 38.493179278917644 -12.550136810587878 #
coedge $-1 $556 $555 $561 $625 reversed $300 $-1 #
vertex $-1 $557 $649 #
straight-curve $-1 0 38.493179278917644 12.550136810587878 -1 0 0 I I #
edge $-1 $623 -38.493179278917644 $626 38.493179278917644 $622 $650 forward 7 unknown #
vertex $-1 $625 $651 #
straight-curve $-1 0 -38.493179278917644 12.550136810587878 1 0 0 I I #
straight-curve $-1 -60.341196935941646 -38.493179278917644 0 0 0 -1 I I #
straight-curve $-1 -60.341196935941646 38.493179278917644 0 0 0 -1 I I #
straight-curve $-1 0 38.493179278917644 12.550136810587878 -1 0 0 I I #
straight-curve $-1 -51.968619841294668 38.493179278917644 70.368088398713994 0 0 1 I I #
point $-1 -51.968619841294668 38.493179278917644 12.550136810587876 #
point $-1 -48.228158308380515 30.553906877772768 4.6108643247999899 #
point $-1 -42.617466009009291 30.553906877772768 4.6108643247999899 #
point $-1 -37.006773709638068 30.553906877772768 4.6108643247999899 #
straight-curve $-1 -16.838854983513112 -38.493179278917644 35.552419331209592 0 0 -1 I I #
point $-1 -16.838854983513112 -38.493179278917644 12.550136810587878 #
straight-curve $-1 -3.163141609047404 -38.493179278917644 1.8842626569551606 1 0 0 I I #
point $-1 -16.838854983513112 -38.493179278917644 1.8842626569551564 #
point $-1 -12.633826277345797 -32.117765641164446 5.3677759231541735 #
point $-1 -6.3262832180948152 -32.117765641164446 5.3677759231541735 #
point $-1 -0.018740158843833399 -32.117765641164446 5.3677759231541735 #
straight-curve $-1 4.1862885473234961 -68.675204955184981 12.55013681058788 0 -1 0 I I #
straight-curve $-1 4.1862885473234961 -38.493179278917644 35.552419331209592 0 0 -1 I I #
point $-1 4.1862885473234961 -38.493179278917644 12.550136810587878 #
point $-1 8.3913172534908043 -32.117765641164446 5.3677759231541735 #
point $-1 14.698860312741793 -32.117765641164446 5.3677759231541735 #
point $-1 21.006403371992768 -32.117765641164446 5.3677759231541735 #
point $-1 -60.341196935941646 38.493179278917644 12.550136810587878 #
straight-curve $-1 -60.341196935941646 0 12.550136810587878 0 -1 0 I I #
point $-1 -60.341196935941646 -38.493179278917644 12.550136810587878 #
End-of-ACIS-data 