500 0 9 0           
7 Unknown 11 ACIS 5.0 NT 24 Thu Mar 25 22:10:33 1999 
-1 9.9999999999999995e-007 1e-010 
body $-1 $9 $-1 $10 #
body $-1 $11 $-1 $12 #
body $-1 $13 $-1 $14 #
body $-1 $15 $-1 $16 #
body $-1 $17 $-1 $18 #
body $-1 $19 $-1 $20 #
body $-1 $21 $-1 $22 #
body $-1 $23 $-1 $24 #
body $-1 $25 $-1 $26 #
lump $-1 $-1 $27 $0 #
transform $-1 1 0 0 0 1 0 0 0 1 51.797235023041473 25.639054353746651 5.5731121138511472 1 rotate no_reflect no_shear #
lump $-1 $-1 $28 $1 #
transform $-1 1 0 0 0 1 0 0 0 1 51.797235023041473 25.639054353746651 5.5731121138511472 1 rotate no_reflect no_shear #
lump $-1 $-1 $29 $2 #
transform $-1 1 0 0 0 1 0 0 0 1 51.797235023041473 25.639054353746651 5.5731121138511472 1 rotate no_reflect no_shear #
lump $-1 $-1 $30 $3 #
transform $-1 1 0 0 0 1 0 0 0 1 51.797235023041473 25.639054353746651 5.5731121138511472 1 rotate no_reflect no_shear #
lump $-1 $-1 $31 $4 #
transform $-1 1 0 0 0 1 0 0 0 1 51.797235023041473 25.639054353746651 5.5731121138511472 1 rotate no_reflect no_shear #
lump $-1 $-1 $32 $5 #
transform $-1 1 0 0 0 1 0 0 0 1 51.797235023041473 25.639054353746651 5.5731121138511472 1 rotate no_reflect no_shear #
lump $-1 $-1 $33 $6 #
transform $-1 1 0 0 0 1 0 0 0 1 51.797235023041473 25.639054353746651 5.5731121138511472 1 rotate no_reflect no_shear #
lump $-1 $-1 $34 $7 #
transform $-1 1 0 0 0 1 0 0 0 1 51.797235023041473 25.639054353746651 5.5731121138511472 1 rotate no_reflect no_shear #
lump $-1 $-1 $35 $8 #
transform $-1 1 0 0 0 1 0 0 0 1 51.797235023041473 25.639054353746651 5.5731121138511472 1 rotate no_reflect no_shear #
shell $-1 $-1 $-1 $36 $-1 $9 #
shell $-1 $-1 $-1 $37 $-1 $11 #
shell $-1 $-1 $-1 $38 $-1 $13 #
shell $-1 $-1 $-1 $39 $-1 $15 #
shell $-1 $-1 $-1 $40 $-1 $17 #
shell $-1 $-1 $-1 $41 $-1 $19 #
shell $-1 $-1 $-1 $42 $-1 $21 #
shell $-1 $-1 $-1 $43 $-1 $23 #
shell $-1 $-1 $-1 $44 $-1 $25 #
face $-1 $45 $46 $27 $-1 $47 forward single #
face $-1 $48 $49 $28 $-1 $50 forward single #
face $-1 $51 $52 $29 $-1 $53 reversed single #
face $-1 $54 $55 $30 $-1 $56 forward single #
face $-1 $57 $58 $31 $-1 $59 forward single #
face $-1 $60 $61 $32 $-1 $62 forward single #
face $-1 $63 $64 $33 $-1 $65 reversed single #
face $-1 $66 $67 $34 $-1 $68 forward single #
face $-1 $69 $70 $35 $-1 $71 forward single #
face $-1 $72 $73 $27 $-1 $74 reversed single #
loop $-1 $-1 $75 $36 #
plane-surface $-1 0 0 5.5731121138511472 0 0 1 1 0 0 forward_v I I I I #
face $-1 $76 $77 $28 $-1 $78 reversed single #
loop $-1 $-1 $79 $37 #
plane-surface $-1 0 -22.612551898135308 -2.5731121138511472 0 0 1 1 0 0 forward_v I I I I #
face $-1 $80 $81 $29 $-1 $82 reversed single #
loop $-1 $-1 $83 $38 #
plane-surface $-1 -108.21882796106888 -10.710356889514223 88.970308229416716 0 1 0 -0.54463904215088732 0 0.83867056331134215 forward_v I I I I #
face $-1 $84 $85 $30 $-1 $86 forward single #
loop $-1 $87 $88 $39 #
cone-surface $-1 -48.609815051707557 -8.0179132808323779 3.0538176422001606 0.54463904215088732 0 -0.83867056331134215 0.83867056331134215 0 0.54463904215088732 1 I I 0 1 1 forward I I I I #
face $-1 $89 $90 $31 $-1 $91 forward single #
loop $-1 $92 $93 $40 #
cone-surface $-1 -48.609815051707557 -3.9792478678096117 3.0538176422001606 0.54463904215088732 0 -0.83867056331134215 0.83867056331134215 0 0.54463904215088732 1 I I 0 1 1 forward I I I I #
face $-1 $94 $95 $32 $-1 $96 forward single #
loop $-1 $97 $98 $41 #
cone-surface $-1 -48.609815051707557 0.059417545213154455 3.0538176422001606 0.54463904215088732 0 -0.83867056331134215 0.83867056331134215 0 0.54463904215088732 1 I I 0 1 1 forward I I I I #
face $-1 $99 $100 $33 $-1 $101 reversed single #
loop $-1 $-1 $102 $42 #
plane-surface $-1 77.237512029622707 11.567444126343691 145.10931878516925 0 -1 0 -0.81915205242281985 0 -0.57357642473473569 forward_v I I I I #
face $-1 $103 $104 $34 $-1 $105 forward single #
loop $-1 $106 $107 $43 #
cone-surface $-1 49.712350667521669 4.4646375295787877 2.9045451921835284 -0.81915205242281985 0 -0.57357642473473569 0.57357642473473569 0 -0.81915205242281985 1 I I 0 1 1 forward I I I I #
face $-1 $108 $109 $35 $-1 $110 forward single #
loop $-1 $111 $112 $44 #
cone-surface $-1 49.712350667521669 8.7263214876377333 2.9045451921835284 -0.81915205242281985 0 -0.57357642473473569 0.57357642473473569 0 -0.81915205242281985 1 I I 0 1 1 forward I I I I #
face $-1 $113 $114 $27 $-1 $115 reversed single #
loop $-1 $-1 $116 $45 #
plane-surface $-1 0 0 -5.5731121138511472 0 0 1 1 0 0 forward_v I I I I #
coedge $-1 $117 $118 $119 $120 forward $46 $-1 #
face $-1 $121 $122 $28 $-1 $123 reversed single #
loop $-1 $-1 $124 $48 #
plane-surface $-1 0 -19.586049442523965 -4.0731121138511472 0 -1 0 0 0 -1 forward_v I I I I #
coedge $-1 $125 $126 $127 $128 reversed $49 $-1 #
face $-1 $129 $130 $29 $-1 $131 reversed single #
loop $-1 $-1 $132 $51 #
plane-surface $-1 -51.79723502304148 -3.9792478678096117 2.0886756799283717 -0.54463904215088732 0 0.83867056331134215 0.83867056331134215 0 0.54463904215088732 forward_v I I I I #
coedge $-1 $133 $134 $135 $136 reversed $52 $-1 #
face $-1 $-1 $137 $30 $-1 $138 forward single #
loop $-1 $139 $140 $54 #
cone-surface $-1 -47.832856300943035 -8.0179132808323779 1.857406105854893 0.54463904215088732 0 -0.83867056331134215 0.41933528165567108 0 0.27231952107544366 1 I I -0.70710678118654746 0.70710678118654746 0.5 forward I I I I #
loop $-1 $-1 $141 $39 #
coedge $-1 $88 $88 $142 $143 reversed $55 $-1 #
face $-1 $-1 $144 $31 $-1 $145 forward single #
loop $-1 $146 $147 $57 #
cone-surface $-1 -47.832856300943035 -3.9792478678096117 1.857406105854893 0.54463904215088732 0 -0.83867056331134215 0.41933528165567108 0 0.27231952107544366 1 I I -0.70710678118654746 0.70710678118654746 0.5 forward I I I I #
loop $-1 $-1 $148 $40 #
coedge $-1 $93 $93 $149 $150 reversed $58 $-1 #
face $-1 $-1 $151 $32 $-1 $152 forward single #
loop $-1 $153 $154 $60 #
cone-surface $-1 -47.832856300943035 0.059417545213154455 1.857406105854893 0.54463904215088732 0 -0.83867056331134215 0.41933528165567108 0 0.27231952107544366 1 I I -0.70710678118654746 0.70710678118654746 0.5 forward I I I I #
loop $-1 $-1 $155 $41 #
coedge $-1 $98 $98 $156 $157 reversed $61 $-1 #
face $-1 $158 $159 $33 $-1 $160 reversed single #
loop $-1 $-1 $161 $63 #
plane-surface $-1 -7.6221107282804752 6.5954795086082569 85.689973033847323 0.81915205242281985 0 0.57357642473473569 0.57357642473473569 0 -0.81915205242281985 forward_v I I I I #
coedge $-1 $162 $163 $164 $165 reversed $64 $-1 #
face $-1 $-1 $166 $34 $-1 $167 forward single #
loop $-1 $168 $169 $66 #
cone-surface $-1 48.878349031092405 4.4646375295787877 2.3205709771020278 -0.81915205242281985 0 -0.57357642473473569 0.28678821236736785 0 -0.40957602621140993 1 I I -0.70710678118654746 0.70710678118654746 0.5 forward I I I I #
loop $-1 $-1 $170 $43 #
coedge $-1 $107 $107 $171 $172 reversed $67 $-1 #
face $-1 $-1 $173 $35 $-1 $174 forward single #
loop $-1 $175 $176 $69 #
cone-surface $-1 48.878349031092405 8.7263214876377333 2.3205709771020278 -0.81915205242281985 0 -0.57357642473473569 0.28678821236736785 0 -0.40957602621140993 1 I I -0.70710678118654746 0.70710678118654746 0.5 forward I I I I #
loop $-1 $-1 $177 $44 #
coedge $-1 $112 $112 $178 $179 reversed $70 $-1 #
face $-1 $180 $181 $27 $-1 $182 reversed single #
loop $-1 $-1 $183 $72 #
plane-surface $-1 0 -25.639054353746651 0 0 1 0 0 0 1 forward_v I I I I #
coedge $-1 $184 $185 $186 $187 forward $73 $-1 #
coedge $-1 $188 $75 $189 $190 forward $46 $-1 #
coedge $-1 $75 $188 $191 $192 forward $46 $-1 #
coedge $-1 $193 $194 $75 $120 reversed $195 $-1 #
edge $-1 $196 -25.639054353746651 $197 25.639054353746651 $119 $198 forward 7 unknown #
face $-1 $199 $200 $28 $-1 $201 reversed single #
loop $-1 $-1 $202 $76 #
plane-surface $-1 0 0 -5.5731121138511472 0 0 1 1 0 0 forward_v I I I I #
coedge $-1 $203 $204 $205 $206 reversed $77 $-1 #
coedge $-1 $207 $79 $204 $208 forward $49 $-1 #
coedge $-1 $79 $207 $209 $210 reversed $49 $-1 #
coedge $-1 $211 $205 $79 $128 forward $200 $-1 #
edge $-1 $212 8.279773493456311 $213 14.332778404678997 $127 $214 forward 7 unknown #
face $-1 $215 $216 $29 $-1 $217 forward single #
loop $-1 $-1 $218 $80 #
plane-surface $-1 -108.21882796106888 2.7518611538949989 88.970308229416716 0 -1 0 0.54463904215088732 0 -0.83867056331134215 forward_v I I I I #
coedge $-1 $219 $220 $221 $222 reversed $81 $-1 #
coedge $-1 $134 $83 $223 $224 reversed $52 $-1 #
coedge $-1 $83 $133 $219 $225 reversed $52 $-1 #
coedge $-1 $221 $226 $83 $136 forward $216 $-1 #
edge $-1 $227 2.3121789574929679 $228 7.6777404407826282 $135 $229 forward 7 unknown #
loop $-1 $-1 $142 $84 #
plane-surface $-1 -51.79723502304148 -3.9792478678096117 2.0886756799283717 -0.54463904215088732 0 0.83867056331134215 0.83867056331134215 0 0.54463904215088732 forward_v I I I I #
loop $-1 $-1 $230 $54 #
coedge $-1 $140 $140 $141 $231 reversed $85 $-1 #
coedge $-1 $141 $141 $140 $231 forward $87 $-1 #
coedge $-1 $142 $142 $88 $143 forward $137 $-1 #
edge $-1 $232 0 $232 6.2831853071796004 $142 $233 forward 7 unknown #
loop $-1 $-1 $149 $89 #
plane-surface $-1 -51.79723502304148 -3.9792478678096117 2.0886756799283717 -0.54463904215088732 0 0.83867056331134215 0.83867056331134215 0 0.54463904215088732 forward_v I I I I #
loop $-1 $-1 $234 $57 #
coedge $-1 $147 $147 $148 $235 reversed $90 $-1 #
coedge $-1 $148 $148 $147 $235 forward $92 $-1 #
coedge $-1 $149 $149 $93 $150 forward $144 $-1 #
edge $-1 $236 0 $236 6.2831853071796004 $149 $237 forward 7 unknown #
loop $-1 $-1 $156 $94 #
plane-surface $-1 -51.79723502304148 -3.9792478678096117 2.0886756799283717 -0.54463904215088732 0 0.83867056331134215 0.83867056331134215 0 0.54463904215088732 forward_v I I I I #
loop $-1 $-1 $238 $60 #
coedge $-1 $154 $154 $155 $239 reversed $95 $-1 #
coedge $-1 $155 $155 $154 $239 forward $97 $-1 #
coedge $-1 $156 $156 $98 $157 forward $151 $-1 #
edge $-1 $240 0 $240 6.2831853071796004 $156 $241 forward 7 unknown #
face $-1 $242 $243 $33 $-1 $244 reversed single #
loop $-1 $-1 $245 $99 #
plane-surface $-1 77.237512029622707 1.6235148908728227 145.10931878516925 0 1 0 0.81915205242281985 0 0.57357642473473569 forward_v I I I I #
coedge $-1 $246 $247 $248 $249 reversed $100 $-1 #
coedge $-1 $163 $102 $250 $251 reversed $64 $-1 #
coedge $-1 $102 $162 $246 $252 reversed $64 $-1 #
coedge $-1 $248 $253 $102 $165 forward $254 $-1 #
edge $-1 $255 -13.17847900823012 $256 -9.8575615176261735 $164 $257 forward 7 unknown #
loop $-1 $-1 $171 $103 #
plane-surface $-1 -7.6221107282804752 6.5954795086082569 85.689973033847323 0.81915205242281985 0 0.57357642473473569 0.57357642473473569 0 -0.81915205242281985 forward_v I I I I #
loop $-1 $-1 $258 $66 #
coedge $-1 $169 $169 $170 $259 reversed $104 $-1 #
coedge $-1 $170 $170 $169 $259 forward $106 $-1 #
coedge $-1 $171 $171 $107 $172 forward $166 $-1 #
edge $-1 $260 0 $260 6.2831853071796004 $171 $261 forward 7 unknown #
loop $-1 $-1 $178 $108 #
plane-surface $-1 -7.6221107282804752 6.5954795086082569 85.689973033847323 0.81915205242281985 0 0.57357642473473569 0.57357642473473569 0 -0.81915205242281985 forward_v I I I I #
loop $-1 $-1 $262 $69 #
coedge $-1 $176 $176 $177 $263 reversed $109 $-1 #
coedge $-1 $177 $177 $176 $263 forward $111 $-1 #
coedge $-1 $178 $178 $112 $179 forward $173 $-1 #
edge $-1 $264 0 $264 6.2831853071796004 $178 $265 forward 7 unknown #
face $-1 $266 $267 $27 $-1 $268 reversed single #
loop $-1 $-1 $269 $113 #
plane-surface $-1 -51.797235023041473 0 0 1 0 0 0 0 -1 forward_v I I I I #
coedge $-1 $270 $191 $271 $272 forward $114 $-1 #
coedge $-1 $273 $116 $270 $274 forward $73 $-1 #
coedge $-1 $116 $273 $275 $276 forward $73 $-1 #
coedge $-1 $194 $193 $116 $187 reversed $195 $-1 #
edge $-1 $277 -25.639054353746651 $278 25.639054353746651 $186 $279 forward 7 unknown #
coedge $-1 $118 $117 $280 $281 forward $46 $-1 #
coedge $-1 $282 $283 $117 $190 reversed $267 $-1 #
edge $-1 $197 -51.797235023041473 $284 51.797235023041473 $189 $285 forward 7 unknown #
coedge $-1 $183 $286 $118 $192 reversed $114 $-1 #
edge $-1 $287 -51.797235023041473 $196 51.797235023041473 $191 $288 forward 7 unknown #
coedge $-1 $186 $119 $286 $289 forward $195 $-1 #
coedge $-1 $119 $186 $282 $290 reversed $195 $-1 #
loop $-1 $-1 $193 $266 #
vertex $-1 $120 $291 #
vertex $-1 $120 $292 #
straight-curve $-1 51.797235023041473 0 5.5731121138511472 0 1 0 I I #
face $-1 $293 $294 $28 $-1 $295 reversed single #
loop $-1 $-1 $205 $121 #
plane-surface $-1 51.797235023041473 0 0 -1 0 0 0 0 1 forward_v I I I I #
coedge $-1 $296 $297 $203 $298 forward $122 $-1 #
coedge $-1 $299 $124 $202 $298 reversed $77 $-1 #
coedge $-1 $124 $299 $125 $208 reversed $77 $-1 #
coedge $-1 $127 $300 $124 $206 forward $200 $-1 #
edge $-1 $301 -3.5365560569255736 $212 -0.53655605692557362 $205 $302 forward 7 unknown #
coedge $-1 $126 $125 $303 $304 reversed $49 $-1 #
edge $-1 $212 -51.797235023041473 $305 51.797235023041473 $204 $306 forward 7 unknown #
coedge $-1 $307 $308 $126 $210 forward $294 $-1 #
edge $-1 $213 -51.797235023041473 $309 51.797235023041473 $209 $310 forward 7 unknown #
coedge $-1 $300 $127 $308 $311 forward $200 $-1 #
vertex $-1 $128 $312 #
vertex $-1 $311 $313 #
straight-curve $-1 51.797235023041473 -11.306275949067654 -2.5731121138511472 0 -1 0 I I #
face $-1 $-1 $314 $29 $-1 $315 reversed single #
loop $-1 $-1 $135 $129 #
plane-surface $-1 0 0 5.5731121138511472 0 0 1 1 0 0 forward_v I I I I #
coedge $-1 $316 $317 $318 $319 reversed $130 $-1 #
coedge $-1 $320 $132 $134 $225 forward $81 $-1 #
coedge $-1 $132 $320 $316 $321 forward $81 $-1 #
coedge $-1 $318 $135 $132 $222 forward $216 $-1 #
edge $-1 $228 -8.7207329556094173 $322 4.7414850877998047 $221 $323 forward 7 unknown #
coedge $-1 $324 $325 $133 $224 forward $314 $-1 #
edge $-1 $326 -42.396478434779979 $227 -38.912042000857213 $223 $327 forward 7 unknown #
edge $-1 $228 -6.3976985934795403 $326 -8.3777959833898778e-015 $134 $328 forward 7 unknown #
coedge $-1 $135 $318 $324 $329 forward $216 $-1 #
vertex $-1 $224 $330 #
vertex $-1 $136 $331 #
straight-curve $-1 -54.109413980534441 -10.710356889514223 5.5731121138511455 1 0 0 I I #
coedge $-1 $230 $230 $-1 $332 reversed $139 $-1 #
edge $-1 $333 0 $333 6.2831853071796004 $140 $334 forward 7 unknown #
vertex $-1 $143 $335 #
ellipse-curve $-1 -49.11445428139664 -8.0179132808323779 3.8308938968897643 -0.54463904215088732 0 0.83867056331134215 0.83867056331134215 0 0.54463904215088732 1 I I #
coedge $-1 $234 $234 $-1 $336 reversed $146 $-1 #
edge $-1 $337 0 $337 6.2831853071796004 $147 $338 forward 7 unknown #
vertex $-1 $150 $339 #
ellipse-curve $-1 -49.11445428139664 -3.9792478678096117 3.8308938968897643 -0.54463904215088732 0 0.83867056331134215 0.83867056331134215 0 0.54463904215088732 1 I I #
coedge $-1 $238 $238 $-1 $340 reversed $153 $-1 #
edge $-1 $341 0 $341 6.2831853071796004 $154 $342 forward 7 unknown #
vertex $-1 $157 $343 #
ellipse-curve $-1 -49.11445428139664 0.059417545213154455 3.8308938968897643 -0.54463904215088732 0 0.83867056331134215 0.83867056331134215 0 0.54463904215088732 1 I I #
face $-1 $-1 $254 $33 $-1 $344 forward single #
loop $-1 $-1 $345 $158 #
plane-surface $-1 51.797235023041473 0 0 -1 0 0 0 0 1 forward_v I I I I #
coedge $-1 $346 $347 $348 $349 reversed $159 $-1 #
coedge $-1 $350 $161 $163 $252 forward $100 $-1 #
coedge $-1 $161 $350 $346 $351 forward $100 $-1 #
coedge $-1 $348 $164 $161 $249 forward $254 $-1 #
edge $-1 $256 -8.2697043720395627 $352 1.6742248634313057 $248 $353 forward 7 unknown #
coedge $-1 $354 $355 $162 $251 forward $243 $-1 #
edge $-1 $356 -71.724309116640512 $255 -66.981547278733473 $250 $357 forward 7 unknown #
edge $-1 $256 97.804626971309162 $356 103.59447004608299 $163 $358 forward 7 unknown #
coedge $-1 $164 $348 $354 $359 forward $254 $-1 #
loop $-1 $-1 $348 $242 #
vertex $-1 $251 $360 #
vertex $-1 $165 $361 #
straight-curve $-1 38.618756014811353 11.567444126343691 5.5731121138511526 -1 0 0 I I #
coedge $-1 $258 $258 $-1 $362 reversed $168 $-1 #
edge $-1 $363 0 $363 6.2831853071796004 $169 $364 forward 7 unknown #
vertex $-1 $172 $365 #
ellipse-curve $-1 50.136776277739486 4.4646375295787877 3.2017311948976359 0.81915205242281985 0 0.57357642473473569 0.57357642473473569 0 -0.81915205242281985 1 I I #
coedge $-1 $262 $262 $-1 $366 reversed $175 $-1 #
edge $-1 $367 0 $367 6.2831853071796004 $176 $368 forward 7 unknown #
vertex $-1 $179 $369 #
ellipse-curve $-1 50.136776277739486 8.7263214876377333 3.2017311948976359 0.81915205242281985 0 0.57357642473473569 0.57357642473473569 0 -0.81915205242281985 1 I I #
face $-1 $-1 $195 $27 $-1 $370 reversed single #
loop $-1 $-1 $282 $180 #
plane-surface $-1 0 25.639054353746651 0 0 -1 0 0 0 -1 forward_v I I I I #
coedge $-1 $371 $280 $283 $372 forward $181 $-1 #
coedge $-1 $286 $183 $184 $274 reversed $114 $-1 #
coedge $-1 $280 $371 $183 $272 reversed $181 $-1 #
edge $-1 $287 -5.5731121138511472 $373 5.5731121138511472 $271 $374 forward 7 unknown #
coedge $-1 $185 $184 $371 $375 forward $73 $-1 #
edge $-1 $278 -51.797235023041473 $373 51.797235023041473 $270 $376 forward 7 unknown #
coedge $-1 $283 $282 $185 $276 reversed $267 $-1 #
edge $-1 $377 -51.797235023041473 $277 51.797235023041473 $275 $378 forward 7 unknown #
vertex $-1 $187 $379 #
vertex $-1 $289 $380 #
straight-curve $-1 51.797235023041473 0 -5.5731121138511472 0 -1 0 I I #
coedge $-1 $269 $271 $188 $281 reversed $181 $-1 #
edge $-1 $284 -25.639054353746651 $287 25.639054353746651 $280 $381 forward 7 unknown #
coedge $-1 $275 $189 $194 $290 forward $267 $-1 #
coedge $-1 $189 $275 $269 $372 reversed $267 $-1 #
vertex $-1 $190 $382 #
straight-curve $-1 0 25.639054353746651 5.5731121138511472 -1 0 0 I I #
coedge $-1 $191 $270 $193 $289 reversed $114 $-1 #
vertex $-1 $281 $383 #
straight-curve $-1 0 -25.639054353746651 5.5731121138511472 1 0 0 I I #
edge $-1 $196 -5.5731121138511472 $278 5.5731121138511472 $193 $384 forward 7 unknown #
edge $-1 $197 -5.5731121138511472 $277 5.5731121138511472 $194 $385 forward 7 unknown #
point $-1 51.797235023041473 -25.639054353746651 5.5731121138511472 #
point $-1 51.797235023041473 25.639054353746651 5.5731121138511472 #
face $-1 $-1 $386 $28 $-1 $387 reversed single #
loop $-1 $-1 $209 $199 #
plane-surface $-1 0 -25.639054353746651 0 0 1 0 0 0 1 forward_v I I I I #
coedge $-1 $388 $202 $300 $389 forward $122 $-1 #
coedge $-1 $202 $388 $390 $391 forward $122 $-1 #
edge $-1 $392 -51.797235023041473 $301 51.797235023041473 $202 $393 forward 7 unknown #
coedge $-1 $204 $203 $394 $395 reversed $77 $-1 #
coedge $-1 $205 $211 $296 $389 reversed $200 $-1 #
vertex $-1 $389 $396 #
straight-curve $-1 51.797235023041473 -19.586049442523965 -2.0365560569255736 0 0 1 I I #
coedge $-1 $394 $397 $207 $304 forward $386 $-1 #
edge $-1 $309 -14.332778404678997 $305 -8.279773493456311 $303 $398 forward 7 unknown #
vertex $-1 $304 $399 #
straight-curve $-1 0 -19.586049442523965 -2.5731121138511472 -1 0 0 I I #
coedge $-1 $400 $209 $397 $401 forward $294 $-1 #
coedge $-1 $209 $400 $211 $311 reversed $294 $-1 #
vertex $-1 $401 $402 #
straight-curve $-1 0 -25.639054353746651 -2.5731121138511472 -1 0 0 I I #
edge $-1 $213 2.5731121138511472 $403 5.5731121138511472 $211 $404 forward 7 unknown #
point $-1 51.797235023041473 -19.586049442523965 -2.5731121138511472 #
point $-1 51.797235023041473 -25.639054353746651 -2.5731121138511472 #
loop $-1 $-1 $223 $215 #
plane-surface $-1 -51.797235023041473 0 0 1 0 0 0 0 -1 forward_v I I I I #
coedge $-1 $317 $218 $220 $321 reversed $130 $-1 #
coedge $-1 $218 $316 $405 $406 reversed $130 $-1 #
coedge $-1 $226 $221 $218 $319 forward $216 $-1 #
edge $-1 $322 -7.6777404407826282 $407 -2.3121789574929679 $318 $408 forward 7 unknown #
coedge $-1 $220 $219 $325 $409 reversed $81 $-1 #
edge $-1 $410 8.3777959833898778e-015 $322 6.3976985934795403 $316 $411 forward 7 unknown #
vertex $-1 $222 $412 #
straight-curve $-1 -46.431673539751813 -1.9896239339048059 5.5731121138511472 0 1 0 I I #
coedge $-1 $405 $223 $226 $329 reversed $314 $-1 #
coedge $-1 $223 $405 $320 $409 forward $314 $-1 #
vertex $-1 $224 $413 #
straight-curve $-1 -51.797235023041473 -10.710356889514223 44.485154114708358 0 0 1 I I #
straight-curve $-1 -51.79723502304148 -10.710356889514223 2.0886756799283717 -0.83867056331134215 0 -0.54463904215088732 I I #
edge $-1 $407 -2.7518611538949989 $227 10.710356889514223 $324 $414 forward 7 unknown #
point $-1 -51.797235023041473 -10.710356889514223 5.5731121138511472 #
point $-1 -46.431673539751813 -10.710356889514223 5.5731121138511472 #
edge $-1 $415 1 $415 0 $230 $-1 forward 7 unknown #
vertex $-1 $231 $416 #
ellipse-curve $-1 -48.105175822018481 -8.0179132808323779 2.276741387510564 -0.54463904215088732 0 0.83867056331134215 0.83867056331134215 0 0.54463904215088732 1 I I #
point $-1 -48.275783718085293 -8.0179132808323779 4.3755329390406441 #
edge $-1 $417 1 $417 0 $234 $-1 forward 7 unknown #
vertex $-1 $235 $418 #
ellipse-curve $-1 -48.105175822018481 -3.9792478678096117 2.276741387510564 -0.54463904215088732 0 0.83867056331134215 0.83867056331134215 0 0.54463904215088732 1 I I #
point $-1 -48.275783718085293 -3.9792478678096117 4.3755329390406441 #
edge $-1 $419 1 $419 0 $238 $-1 forward 7 unknown #
vertex $-1 $239 $420 #
ellipse-curve $-1 -48.105175822018481 0.059417545213154455 2.276741387510564 -0.54463904215088732 0 0.83867056331134215 0.83867056331134215 0 0.54463904215088732 1 I I #
point $-1 -48.275783718085293 0.059417545213154455 4.3755329390406441 #
plane-surface $-1 0 0 5.5731121138511472 0 0 1 1 0 0 forward_v I I I I #
coedge $-1 $355 $354 $347 $421 forward $243 $-1 #
coedge $-1 $347 $245 $247 $351 reversed $159 $-1 #
coedge $-1 $245 $346 $345 $421 reversed $159 $-1 #
coedge $-1 $253 $248 $245 $349 forward $254 $-1 #
edge $-1 $352 9.8575615176261735 $422 13.17847900823012 $348 $423 forward 7 unknown #
coedge $-1 $247 $246 $355 $424 reversed $100 $-1 #
edge $-1 $425 -103.59447004608299 $352 -97.804626971309162 $346 $426 forward 7 unknown #
vertex $-1 $249 $427 #
straight-curve $-1 48.476317532437534 3.2977397543041285 5.5731121138511455 0 -1 0 I I #
coedge $-1 $345 $250 $253 $359 reversed $243 $-1 #
coedge $-1 $250 $345 $350 $424 forward $243 $-1 #
vertex $-1 $251 $428 #
straight-curve $-1 51.797235023041473 11.567444126343691 72.554659392584625 0 0 1 I I #
straight-curve $-1 -7.6221107282804752 11.567444126343691 85.689973033847323 0.57357642473473569 0 -0.81915205242281985 I I #
edge $-1 $422 1.6235148908728227 $255 11.567444126343691 $354 $429 forward 7 unknown #
point $-1 51.797235023041473 11.567444126343691 5.5731121138511472 #
point $-1 48.476317532437527 11.567444126343691 5.5731121138511526 #
edge $-1 $430 1 $430 0 $258 $-1 forward 7 unknown #
vertex $-1 $259 $431 #
ellipse-curve $-1 49.287925057303816 4.4646375295787877 2.6073591894693955 0.81915205242281985 0 0.57357642473473569 0.57357642473473569 0 -0.81915205242281985 1 I I #
point $-1 50.71035270247426 4.4646375295787877 2.3825791424748406 #
edge $-1 $432 1 $432 0 $262 $-1 forward 7 unknown #
vertex $-1 $263 $433 #
ellipse-curve $-1 49.287925057303816 8.7263214876377333 2.6073591894693955 0.81915205242281985 0 0.57357642473473569 0.57357642473473569 0 -0.81915205242281985 1 I I #
point $-1 50.71035270247426 8.7263214876377333 2.3825791424748406 #
plane-surface $-1 51.797235023041473 0 0 -1 0 0 0 0 1 forward_v I I I I #
coedge $-1 $271 $269 $273 $375 reversed $181 $-1 #
edge $-1 $284 -5.5731121138511472 $377 5.5731121138511472 $283 $434 forward 7 unknown #
vertex $-1 $375 $435 #
straight-curve $-1 -51.797235023041473 -25.639054353746651 0 0 0 -1 I I #
edge $-1 $373 -25.639054353746651 $377 25.639054353746651 $371 $436 forward 7 unknown #
straight-curve $-1 0 -25.639054353746651 -5.5731121138511472 -1 0 0 I I #
vertex $-1 $276 $437 #
straight-curve $-1 0 25.639054353746651 -5.5731121138511472 1 0 0 I I #
point $-1 51.797235023041473 25.639054353746651 -5.5731121138511472 #
point $-1 51.797235023041473 -25.639054353746651 -5.5731121138511472 #
straight-curve $-1 -51.797235023041473 0 5.5731121138511472 0 -1 0 I I #
point $-1 -51.797235023041473 25.639054353746651 5.5731121138511472 #
point $-1 -51.797235023041473 -25.639054353746651 5.5731121138511472 #
straight-curve $-1 51.797235023041473 -25.639054353746651 0 0 0 -1 I I #
straight-curve $-1 51.797235023041473 25.639054353746651 0 0 0 -1 I I #
loop $-1 $-1 $394 $293 #
plane-surface $-1 -51.797235023041473 0 0 1 0 0 0 0 -1 forward_v I I I I #
coedge $-1 $297 $296 $400 $438 forward $122 $-1 #
edge $-1 $301 19.586049442523965 $403 25.639054353746651 $300 $439 forward 7 unknown #
coedge $-1 $397 $394 $297 $391 reversed $386 $-1 #
edge $-1 $440 -25.639054353746651 $392 -19.586049442523965 $390 $441 forward 7 unknown #
vertex $-1 $395 $442 #
straight-curve $-1 0 -19.586049442523965 -5.5731121138511472 1 0 0 I I #
coedge $-1 $390 $303 $299 $395 forward $386 $-1 #
edge $-1 $305 0.53655605692557362 $392 3.5365560569255736 $394 $443 forward 7 unknown #
point $-1 51.797235023041473 -19.586049442523965 -5.5731121138511472 #
coedge $-1 $303 $390 $307 $401 reversed $386 $-1 #
straight-curve $-1 -51.797235023041473 -11.306275949067654 -2.5731121138511472 0 1 0 I I #
point $-1 -51.797235023041473 -19.586049442523965 -2.5731121138511472 #
coedge $-1 $308 $307 $388 $438 reversed $294 $-1 #
edge $-1 $309 2.5731121138511472 $440 5.5731121138511472 $397 $444 forward 7 unknown #
point $-1 -51.797235023041473 -25.639054353746651 -2.5731121138511472 #
vertex $-1 $311 $445 #
straight-curve $-1 51.797235023041473 -25.639054353746651 0 0 0 -1 I I #
coedge $-1 $325 $324 $317 $406 forward $314 $-1 #
edge $-1 $407 38.912042000857213 $410 42.396478434779979 $405 $446 forward 7 unknown #
vertex $-1 $329 $447 #
straight-curve $-1 -54.109413980534441 2.7518611538949989 5.5731121138511455 -1 0 0 I I #
edge $-1 $410 -4.7414850877998047 $326 8.7207329556094173 $325 $448 forward 7 unknown #
vertex $-1 $409 $449 #
straight-curve $-1 -51.79723502304148 2.7518611538949989 2.0886756799283717 0.83867056331134215 0 0.54463904215088732 I I #
point $-1 -46.431673539751813 2.7518611538949989 5.5731121138511472 #
point $-1 -51.797235023041473 -10.710356889514223 2.0886756799283761 #
straight-curve $-1 -51.797235023041473 0 5.5731121138511472 0 -1 0 I I #
vertex $-1 $332 $450 #
point $-1 -47.266505258707134 -8.0179132808323779 2.8213804296614513 #
vertex $-1 $336 $451 #
point $-1 -47.266505258707134 -3.9792478678096117 2.8213804296614513 #
vertex $-1 $340 $452 #
point $-1 -47.266505258707134 0.059417545213154455 2.8213804296614513 #
edge $-1 $422 66.981547278733473 $425 71.724309116640512 $345 $453 forward 7 unknown #
vertex $-1 $359 $454 #
straight-curve $-1 38.618756014811353 1.6235148908728227 5.5731121138511526 1 0 0 I I #
edge $-1 $425 -1.6742248634313057 $356 8.2697043720395627 $355 $455 forward 7 unknown #
vertex $-1 $424 $456 #
straight-curve $-1 -7.6221107282804752 1.6235148908728227 85.689973033847323 -0.57357642473473569 0 0.81915205242281985 I I #
point $-1 48.476317532437527 1.6235148908728227 5.5731121138511526 #
point $-1 51.797235023041473 11.567444126343691 0.83035027594411304 #
straight-curve $-1 51.797235023041473 0 5.5731121138511472 0 1 0 I I #
vertex $-1 $362 $457 #
point $-1 49.861501482038548 4.4646375295787877 1.7882071370465757 #
vertex $-1 $366 $458 #
point $-1 49.861501482038548 8.7263214876377333 1.7882071370465757 #
straight-curve $-1 -51.797235023041473 25.639054353746651 0 0 0 -1 I I #
point $-1 -51.797235023041473 -25.639054353746651 -5.5731121138511472 #
straight-curve $-1 -51.797235023041473 0 -5.5731121138511472 0 1 0 I I #
point $-1 -51.797235023041473 25.639054353746651 -5.5731121138511472 #
edge $-1 $403 -51.797235023041473 $440 51.797235023041473 $400 $459 forward 7 unknown #
straight-curve $-1 51.797235023041473 0 -5.5731121138511472 0 -1 0 I I #
vertex $-1 $391 $460 #
straight-curve $-1 -51.797235023041473 0 -5.5731121138511472 0 1 0 I I #
point $-1 -51.797235023041473 -19.586049442523965 -5.5731121138511472 #
straight-curve $-1 -51.797235023041473 -19.586049442523965 -2.0365560569255736 0 0 -1 I I #
straight-curve $-1 -51.797235023041473 -25.639054353746651 0 0 0 -1 I I #
point $-1 51.797235023041473 -25.639054353746651 -5.5731121138511472 #
straight-curve $-1 -51.797235023041473 2.7518611538949989 44.485154114708358 0 0 -1 I I #
point $-1 -51.797235023041473 2.7518611538949989 5.5731121138511472 #
straight-curve $-1 -51.797235023041473 -1.9896239339048059 2.088675679928377 0 -1 0 I I #
point $-1 -51.797235023041473 2.7518611538949989 2.0886756799283761 #
point $-1 -47.56053677986759 -8.0179132808323779 1.4380708241992219 #
point $-1 -47.56053677986759 -3.9792478678096117 1.4380708241992219 #
point $-1 -47.56053677986759 0.059417545213154455 1.4380708241992219 #
straight-curve $-1 51.797235023041473 1.6235148908728227 72.554659392584625 0 0 -1 I I #
point $-1 51.797235023041473 1.6235148908728227 5.5731121138511472 #
straight-curve $-1 51.79723502304148 3.2977397543041285 0.83035027594411304 0 1 0 I I #
point $-1 51.797235023041473 1.6235148908728227 0.83035027594411304 #
point $-1 48.468773004880994 4.4646375295787877 2.03378276473466 #
point $-1 48.468773004880994 8.7263214876377333 2.03378276473466 #
straight-curve $-1 0 -25.639054353746651 -5.5731121138511472 -1 0 0 I I #
point $-1 -51.797235023041473 -25.639054353746651 -5.5731121138511472 #
End-of-ACIS-data 