500 0 5 0           
7 Unknown 11 ACIS 5.0 NT 24 Fri Mar 26 18:29:10 1999 
-1 9.9999999999999995e-007 1e-010 
body $-1 $5 $-1 $6 #
body $-1 $7 $-1 $8 #
body $-1 $9 $-1 $10 #
body $-1 $11 $-1 $12 #
body $-1 $13 $-1 $14 #
lump $-1 $-1 $15 $0 #
transform $-1 1 0 0 0 1 0 0 0 1 77.348551896725354 32.537049468175411 6.6072046100128903 1 rotate no_reflect no_shear #
lump $-1 $-1 $16 $1 #
transform $-1 1 0 0 0 1 0 0 0 1 77.348551896725354 32.537049468175411 6.6072046100128903 1 rotate no_reflect no_shear #
lump $-1 $-1 $17 $2 #
transform $-1 1 0 0 0 1 0 0 0 1 77.348551896725354 32.537049468175411 6.6072046100128903 1 rotate no_reflect no_shear #
lump $-1 $-1 $18 $3 #
transform $-1 1 0 0 0 1 0 0 0 1 77.348551896725354 32.537049468175411 6.6072046100128903 1 rotate no_reflect no_shear #
lump $-1 $-1 $19 $4 #
transform $-1 1 0 0 0 1 0 0 0 1 77.348551896725354 32.537049468175411 6.6072046100128903 1 rotate no_reflect no_shear #
shell $-1 $-1 $-1 $20 $-1 $5 #
shell $-1 $-1 $-1 $21 $-1 $7 #
shell $-1 $-1 $-1 $22 $-1 $9 #
shell $-1 $-1 $-1 $23 $-1 $11 #
shell $-1 $-1 $-1 $24 $-1 $13 #
face $-1 $25 $26 $15 $-1 $27 forward single #
face $-1 $28 $29 $16 $-1 $30 reversed single #
face $-1 $31 $32 $17 $-1 $33 reversed single #
face $-1 $34 $35 $18 $-1 $36 forward single #
face $-1 $37 $38 $19 $-1 $39 forward single #
face $-1 $40 $41 $15 $-1 $42 reversed single #
loop $-1 $-1 $43 $20 #
plane-surface $-1 0 0 6.6072046100128903 0 0 1 1 0 0 forward_v I I I I #
face $-1 $44 $45 $16 $-1 $46 reversed single #
loop $-1 $-1 $47 $21 #
plane-surface $-1 -75.087584762936871 -29.272571767511163 0 1 0 0 0 0 -1 forward_v I I I I #
face $-1 $48 $49 $17 $-1 $50 reversed single #
loop $-1 $-1 $51 $22 #
plane-surface $-1 51.779410857419037 136.2896379648376 134.12536981274889 1 0 0 0 -0.87461971476443456 -0.48480960649040278 forward_v I I I I #
face $-1 $52 $53 $18 $-1 $54 forward single #
loop $-1 $55 $56 $23 #
cone-surface $-1 59.084879725792263 30.580842105932472 4.0003654849417236 0 -0.87461971476443456 -0.48480960649040278 1 0 0 1 I I 0 1 1 forward I I I I #
face $-1 $57 $58 $19 $-1 $59 forward single #
loop $-1 $60 $61 $24 #
cone-surface $-1 70.0430830283521 30.580842105932472 4.0003654849417236 0 -0.87461971476443456 -0.48480960649040278 1 0 0 1 I I 0 1 1 forward I I I I #
face $-1 $62 $63 $15 $-1 $64 reversed single #
loop $-1 $-1 $65 $25 #
plane-surface $-1 0 0 -6.6072046100128903 0 0 1 1 0 0 forward_v I I I I #
coedge $-1 $66 $67 $68 $69 forward $26 $-1 #
face $-1 $70 $71 $16 $-1 $72 reversed single #
loop $-1 $-1 $73 $28 #
plane-surface $-1 -73.587584762936871 -26.008094066846915 0 0 -1 0 0 0 -1 forward_v I I I I #
coedge $-1 $74 $75 $76 $77 forward $29 $-1 #
face $-1 $78 $79 $17 $-1 $80 forward single #
loop $-1 $-1 $81 $31 #
plane-surface $-1 64.563981377072196 0.9885011701256019 59.126727797441049 0 0.87461971476443456 0.48480960649040278 1 0 0 forward_v I I I I #
coedge $-1 $82 $83 $84 $85 reversed $32 $-1 #
face $-1 $-1 $86 $18 $-1 $87 forward single #
loop $-1 $88 $89 $34 #
cone-surface $-1 59.084879725792263 29.405576034856836 3.3489048880431467 0 -0.87461971476443456 -0.48480960649040278 0.5 0 0 1 I I -0.70710678118654746 0.70710678118654746 0.5 forward I I I I #
loop $-1 $-1 $90 $23 #
coedge $-1 $56 $56 $91 $92 reversed $35 $-1 #
face $-1 $-1 $93 $19 $-1 $94 forward single #
loop $-1 $95 $96 $37 #
cone-surface $-1 70.0430830283521 29.405576034856836 3.3489048880431467 0 -0.87461971476443456 -0.48480960649040278 0.5 0 0 1 I I -0.70710678118654746 0.70710678118654746 0.5 forward I I I I #
loop $-1 $-1 $97 $24 #
coedge $-1 $61 $61 $98 $99 reversed $38 $-1 #
face $-1 $100 $101 $15 $-1 $102 reversed single #
loop $-1 $-1 $103 $40 #
plane-surface $-1 0 -32.537049468175411 0 0 1 0 0 0 1 forward_v I I I I #
coedge $-1 $104 $105 $106 $107 forward $41 $-1 #
coedge $-1 $108 $43 $109 $110 forward $26 $-1 #
coedge $-1 $43 $108 $111 $112 forward $26 $-1 #
coedge $-1 $113 $114 $43 $69 reversed $115 $-1 #
edge $-1 $116 -32.537049468175411 $117 32.537049468175411 $68 $118 forward 7 unknown #
face $-1 $119 $120 $16 $-1 $121 forward single #
loop $-1 $-1 $122 $44 #
plane-surface $-1 -72.087584762936871 -29.272571767511163 0 -1 0 0 0 0 1 forward_v I I I I #
coedge $-1 $123 $124 $125 $126 forward $45 $-1 #
coedge $-1 $127 $47 $128 $129 reversed $29 $-1 #
coedge $-1 $47 $127 $130 $131 reversed $29 $-1 #
coedge $-1 $124 $123 $47 $77 reversed $45 $-1 #
edge $-1 $132 -6.6072046100128903 $133 6.6072046100128903 $76 $134 forward 7 unknown #
face $-1 $135 $136 $17 $-1 $137 reversed single #
loop $-1 $-1 $84 $48 #
plane-surface $-1 0 0 6.6072046100128903 0 0 1 1 0 0 forward_v I I I I #
coedge $-1 $138 $139 $140 $141 reversed $49 $-1 #
coedge $-1 $83 $51 $142 $143 reversed $32 $-1 #
coedge $-1 $51 $82 $138 $144 reversed $32 $-1 #
coedge $-1 $140 $145 $51 $85 forward $79 $-1 #
edge $-1 $146 35.607769514243387 $147 38.044271811342462 $84 $148 forward 7 unknown #
loop $-1 $-1 $91 $52 #
plane-surface $-1 64.563981377072196 0.9885011701256019 59.126727797441049 0 0.87461971476443456 0.48480960649040278 1 0 0 forward_v I I I I #
loop $-1 $-1 $149 $34 #
coedge $-1 $89 $89 $90 $150 reversed $53 $-1 #
coedge $-1 $90 $90 $89 $150 forward $55 $-1 #
coedge $-1 $91 $91 $56 $92 forward $86 $-1 #
edge $-1 $151 7.419587194681314e-016 $151 6.2831853071796013 $91 $152 forward 7 unknown #
loop $-1 $-1 $98 $57 #
plane-surface $-1 64.563981377072196 0.9885011701256019 59.126727797441049 0 0.87461971476443456 0.48480960649040278 1 0 0 forward_v I I I I #
loop $-1 $-1 $153 $37 #
coedge $-1 $96 $96 $97 $154 reversed $58 $-1 #
coedge $-1 $97 $97 $96 $154 forward $60 $-1 #
coedge $-1 $98 $98 $61 $99 forward $93 $-1 #
edge $-1 $155 7.419587194681314e-016 $155 6.2831853071796013 $98 $156 forward 7 unknown #
face $-1 $157 $158 $15 $-1 $159 reversed single #
loop $-1 $-1 $160 $62 #
plane-surface $-1 -77.348551896725354 0 0 1 0 0 0 0 -1 forward_v I I I I #
coedge $-1 $161 $111 $162 $163 forward $63 $-1 #
coedge $-1 $164 $65 $161 $165 forward $41 $-1 #
coedge $-1 $65 $164 $166 $167 forward $41 $-1 #
coedge $-1 $114 $113 $65 $107 reversed $115 $-1 #
edge $-1 $168 -32.537049468175411 $169 32.537049468175411 $106 $170 forward 7 unknown #
coedge $-1 $67 $66 $171 $172 forward $26 $-1 #
coedge $-1 $173 $174 $66 $110 reversed $158 $-1 #
edge $-1 $117 -77.348551896725354 $175 77.348551896725354 $109 $176 forward 7 unknown #
coedge $-1 $103 $177 $67 $112 reversed $63 $-1 #
edge $-1 $178 -77.348551896725354 $116 77.348551896725354 $111 $179 forward 7 unknown #
coedge $-1 $106 $68 $177 $180 forward $115 $-1 #
coedge $-1 $68 $106 $173 $181 reversed $115 $-1 #
loop $-1 $-1 $113 $157 #
vertex $-1 $69 $182 #
vertex $-1 $69 $183 #
straight-curve $-1 77.348551896725354 0 6.6072046100128903 0 1 0 I I #
face $-1 $184 $185 $16 $-1 $186 reversed single #
loop $-1 $-1 $187 $70 #
plane-surface $-1 0 0 6.6072046100128903 0 0 1 1 0 0 forward_v I I I I #
coedge $-1 $188 $189 $190 $191 reversed $71 $-1 #
coedge $-1 $76 $73 $192 $193 reversed $45 $-1 #
coedge $-1 $73 $76 $194 $195 reversed $45 $-1 #
coedge $-1 $189 $188 $73 $126 reversed $71 $-1 #
edge $-1 $196 -6.6072046100128903 $197 6.6072046100128903 $125 $198 forward 7 unknown #
coedge $-1 $75 $74 $199 $200 reversed $29 $-1 #
coedge $-1 $192 $201 $74 $129 forward $185 $-1 #
edge $-1 $202 -17.900763584419828 $133 -11.371808183091334 $128 $203 forward 7 unknown #
coedge $-1 $204 $194 $75 $131 forward $120 $-1 #
edge $-1 $132 11.371808183091334 $205 17.900763584419828 $130 $206 forward 7 unknown #
vertex $-1 $131 $207 #
vertex $-1 $129 $208 #
straight-curve $-1 -75.087584762936871 -26.008094066846915 0 0 0 -1 I I #
face $-1 $-1 $209 $17 $-1 $210 reversed single #
loop $-1 $-1 $211 $78 #
plane-surface $-1 77.348551896725354 0 0 -1 0 0 0 0 1 forward_v I I I I #
coedge $-1 $212 $81 $83 $144 forward $49 $-1 #
coedge $-1 $81 $212 $211 $213 reversed $49 $-1 #
coedge $-1 $214 $84 $81 $141 forward $79 $-1 #
edge $-1 $147 19.49742016888294 $215 45.066561208189256 $140 $216 forward 7 unknown #
coedge $-1 $217 $218 $82 $143 forward $209 $-1 #
edge $-1 $219 -64.851046959197191 $146 -60.45548029636155 $142 $220 forward 7 unknown #
edge $-1 $147 60.048409955603951 $219 65.074098936350879 $83 $221 forward 7 unknown #
coedge $-1 $84 $214 $217 $222 forward $79 $-1 #
vertex $-1 $143 $223 #
vertex $-1 $85 $224 #
straight-curve $-1 51.779410857419037 68.144818982418798 6.6072046100128929 0 -1 0 I I #
coedge $-1 $149 $149 $-1 $225 reversed $88 $-1 #
edge $-1 $226 0 $226 6.2831853071796004 $89 $227 forward 7 unknown #
vertex $-1 $92 $228 #
ellipse-curve $-1 59.084879725792263 31.318798319625863 4.409421278595083 0 0.87461971476443456 0.48480960649040278 1 0 0 1 I I #
coedge $-1 $153 $153 $-1 $229 reversed $95 $-1 #
edge $-1 $230 0 $230 6.2831853071796004 $96 $231 forward 7 unknown #
vertex $-1 $99 $232 #
ellipse-curve $-1 70.0430830283521 31.318798319625863 4.409421278595083 0 0.87461971476443456 0.48480960649040278 1 0 0 1 I I #
face $-1 $-1 $115 $15 $-1 $233 reversed single #
loop $-1 $-1 $173 $100 #
plane-surface $-1 0 32.537049468175411 0 0 -1 0 0 0 -1 forward_v I I I I #
coedge $-1 $234 $171 $174 $235 forward $101 $-1 #
coedge $-1 $177 $103 $104 $165 reversed $63 $-1 #
coedge $-1 $171 $234 $103 $163 reversed $101 $-1 #
edge $-1 $178 -6.6072046100128903 $236 6.6072046100128903 $162 $237 forward 7 unknown #
coedge $-1 $105 $104 $234 $238 forward $41 $-1 #
edge $-1 $169 -77.348551896725354 $236 77.348551896725354 $161 $239 forward 7 unknown #
coedge $-1 $174 $173 $105 $167 reversed $158 $-1 #
edge $-1 $240 -77.348551896725354 $168 77.348551896725354 $166 $241 forward 7 unknown #
vertex $-1 $107 $242 #
vertex $-1 $180 $243 #
straight-curve $-1 77.348551896725354 0 -6.6072046100128903 0 -1 0 I I #
coedge $-1 $160 $162 $108 $172 reversed $101 $-1 #
edge $-1 $175 -32.537049468175411 $178 32.537049468175411 $171 $244 forward 7 unknown #
coedge $-1 $166 $109 $114 $181 forward $158 $-1 #
coedge $-1 $109 $166 $160 $235 reversed $158 $-1 #
vertex $-1 $110 $245 #
straight-curve $-1 0 32.537049468175411 6.6072046100128903 -1 0 0 I I #
coedge $-1 $111 $161 $113 $180 reversed $63 $-1 #
vertex $-1 $172 $246 #
straight-curve $-1 0 -32.537049468175411 6.6072046100128903 1 0 0 I I #
edge $-1 $116 -6.6072046100128903 $169 6.6072046100128903 $113 $247 forward 7 unknown #
edge $-1 $117 -6.6072046100128903 $168 6.6072046100128903 $114 $248 forward 7 unknown #
point $-1 77.348551896725354 -32.537049468175411 6.6072046100128903 #
point $-1 77.348551896725354 32.537049468175411 6.6072046100128903 #
face $-1 $-1 $249 $16 $-1 $250 reversed single #
loop $-1 $-1 $251 $119 #
plane-surface $-1 0 0 -6.6072046100128903 0 0 1 1 0 0 forward_v I I I I #
coedge $-1 $194 $204 $189 $252 forward $120 $-1 #
coedge $-1 $125 $122 $251 $253 reversed $71 $-1 #
coedge $-1 $122 $125 $187 $252 reversed $71 $-1 #
coedge $-1 $254 $255 $122 $191 forward $249 $-1 #
edge $-1 $256 -6.6072046100128903 $257 6.6072046100128903 $190 $258 forward 7 unknown #
coedge $-1 $251 $128 $123 $193 forward $185 $-1 #
edge $-1 $133 -38.293792381468435 $197 -35.293792381468435 $192 $259 forward 7 unknown #
coedge $-1 $130 $187 $124 $195 forward $120 $-1 #
edge $-1 $196 35.293792381468435 $132 38.293792381468435 $194 $260 forward 7 unknown #
vertex $-1 $195 $261 #
vertex $-1 $193 $262 #
straight-curve $-1 -72.087584762936871 -26.008094066846915 0 0 0 -1 I I #
coedge $-1 $255 $254 $127 $200 forward $249 $-1 #
edge $-1 $205 -6.6072046100128903 $202 6.6072046100128903 $199 $263 forward 7 unknown #
coedge $-1 $128 $251 $255 $264 forward $185 $-1 #
vertex $-1 $129 $265 #
straight-curve $-1 -75.087584762936871 -14.636285883755582 -6.6072046100128903 0 1 0 I I #
coedge $-1 $187 $130 $254 $266 forward $120 $-1 #
vertex $-1 $266 $267 #
straight-curve $-1 -75.087584762936871 -14.636285883755582 6.6072046100128903 0 -1 0 I I #
point $-1 -75.087584762936871 -26.008094066846915 6.6072046100128903 #
point $-1 -75.087584762936871 -26.008094066846915 -6.6072046100128903 #
loop $-1 $-1 $142 $135 #
plane-surface $-1 0 32.537049468175411 0 0 -1 0 0 0 -1 forward_v I I I I #
coedge $-1 $268 $269 $139 $213 forward $136 $-1 #
coedge $-1 $139 $138 $218 $270 reversed $49 $-1 #
edge $-1 $215 34.431326486679765 $271 39.4570154674267 $211 $272 forward 7 unknown #
coedge $-1 $145 $140 $269 $273 forward $79 $-1 #
vertex $-1 $273 $274 #
straight-curve $-1 32.281990688536098 30.100547171076336 6.6072046100128929 1 0 0 I I #
coedge $-1 $275 $142 $145 $222 reversed $209 $-1 #
coedge $-1 $142 $275 $212 $270 forward $209 $-1 #
vertex $-1 $143 $276 #
straight-curve $-1 51.779410857419037 32.537049468175411 67.062684906374443 0 0 1 I I #
straight-curve $-1 51.779410857419037 0.9885011701256019 59.126727797441049 0 0.48480960649040278 -0.87461971476443456 I I #
edge $-1 $277 -77.348551896725354 $146 -51.779410857419037 $217 $278 forward 7 unknown #
point $-1 51.779410857419037 32.537049468175411 6.6072046100128903 #
point $-1 51.779410857419037 30.100547171076336 6.6072046100128929 #
edge $-1 $279 1 $279 0 $149 $-1 forward 7 unknown #
vertex $-1 $150 $280 #
ellipse-curve $-1 59.084879725792263 29.842885892239053 3.5913096912883482 0 0.87461971476443456 0.48480960649040278 1 0 0 1 I I #
point $-1 60.084879725792263 31.318798319625895 4.4094212785950999 #
edge $-1 $281 1 $281 0 $153 $-1 forward 7 unknown #
vertex $-1 $154 $282 #
ellipse-curve $-1 70.0430830283521 29.842885892239053 3.5913096912883482 0 0.87461971476443456 0.48480960649040278 1 0 0 1 I I #
point $-1 71.0430830283521 31.318798319625895 4.4094212785950999 #
plane-surface $-1 77.348551896725354 0 0 -1 0 0 0 0 1 forward_v I I I I #
coedge $-1 $162 $160 $164 $238 reversed $101 $-1 #
edge $-1 $175 -6.6072046100128903 $240 6.6072046100128903 $174 $283 forward 7 unknown #
vertex $-1 $238 $284 #
straight-curve $-1 -77.348551896725354 -32.537049468175411 0 0 0 -1 I I #
edge $-1 $236 -32.537049468175411 $240 32.537049468175411 $234 $285 forward 7 unknown #
straight-curve $-1 0 -32.537049468175411 -6.6072046100128903 -1 0 0 I I #
vertex $-1 $167 $286 #
straight-curve $-1 0 32.537049468175411 -6.6072046100128903 1 0 0 I I #
point $-1 77.348551896725354 32.537049468175411 -6.6072046100128903 #
point $-1 77.348551896725354 -32.537049468175411 -6.6072046100128903 #
straight-curve $-1 -77.348551896725354 0 6.6072046100128903 0 -1 0 I I #
point $-1 -77.348551896725354 32.537049468175411 6.6072046100128903 #
point $-1 -77.348551896725354 -32.537049468175411 6.6072046100128903 #
straight-curve $-1 77.348551896725354 -32.537049468175411 0 0 0 -1 I I #
straight-curve $-1 77.348551896725354 32.537049468175411 0 0 0 -1 I I #
loop $-1 $-1 $190 $184 #
plane-surface $-1 0 -32.537049468175411 0 0 1 0 0 0 1 forward_v I I I I #
coedge $-1 $201 $192 $188 $253 forward $185 $-1 #
edge $-1 $257 -17.900763584419828 $196 -11.371808183091334 $187 $287 forward 7 unknown #
edge $-1 $197 11.371808183091334 $256 17.900763584419828 $251 $288 forward 7 unknown #
coedge $-1 $199 $190 $204 $266 reversed $249 $-1 #
coedge $-1 $190 $199 $201 $264 reversed $249 $-1 #
vertex $-1 $264 $289 #
vertex $-1 $191 $290 #
straight-curve $-1 -72.087584762936871 -32.537049468175411 0 0 0 1 I I #
straight-curve $-1 -36.793792381468435 -26.008094066846915 -6.6072046100128903 1 0 0 I I #
straight-curve $-1 -36.793792381468435 -26.008094066846915 6.6072046100128903 -1 0 0 I I #
point $-1 -72.087584762936871 -26.008094066846915 6.6072046100128903 #
point $-1 -72.087584762936871 -26.008094066846915 -6.6072046100128903 #
straight-curve $-1 -75.087584762936871 -32.537049468175411 0 0 0 -1 I I #
edge $-1 $256 72.087584762936871 $202 75.087584762936871 $255 $291 forward 7 unknown #
point $-1 -75.087584762936871 -32.537049468175411 -6.6072046100128903 #
edge $-1 $205 -75.087584762936871 $257 -72.087584762936871 $254 $292 forward 7 unknown #
point $-1 -75.087584762936871 -32.537049468175411 6.6072046100128903 #
coedge $-1 $269 $211 $275 $293 reversed $136 $-1 #
coedge $-1 $211 $268 $214 $273 reversed $136 $-1 #
edge $-1 $271 -45.066561208189256 $219 -19.49742016888294 $218 $294 forward 7 unknown #
vertex $-1 $213 $295 #
straight-curve $-1 77.348551896725354 13.407909326126537 36.721521560753871 0 0.48480960649040278 -0.87461971476443456 I I #
edge $-1 $215 30.100547171076336 $277 32.537049468175411 $269 $296 forward 7 unknown #
point $-1 77.348551896725354 30.100547171076336 6.6072046100128929 #
coedge $-1 $218 $217 $268 $293 forward $209 $-1 #
point $-1 51.779410857419037 32.537049468175411 2.2116379471772518 #
vertex $-1 $273 $297 #
straight-curve $-1 0 32.537049468175411 6.6072046100128903 -1 0 0 I I #
vertex $-1 $225 $298 #
point $-1 60.084879725792263 29.842885892239053 3.5913096912883482 #
vertex $-1 $229 $299 #
point $-1 71.0430830283521 29.842885892239053 3.5913096912883482 #
straight-curve $-1 -77.348551896725354 32.537049468175411 0 0 0 -1 I I #
point $-1 -77.348551896725354 -32.537049468175411 -6.6072046100128903 #
straight-curve $-1 -77.348551896725354 0 -6.6072046100128903 0 1 0 I I #
point $-1 -77.348551896725354 32.537049468175411 -6.6072046100128903 #
straight-curve $-1 -72.087584762936871 -14.636285883755582 6.6072046100128903 0 1 0 I I #
straight-curve $-1 -72.087584762936871 -14.636285883755582 -6.6072046100128903 0 -1 0 I I #
point $-1 -72.087584762936871 -32.537049468175411 -6.6072046100128903 #
point $-1 -72.087584762936871 -32.537049468175411 6.6072046100128903 #
straight-curve $-1 0 -32.537049468175411 -6.6072046100128903 -1 0 0 I I #
straight-curve $-1 0 -32.537049468175411 6.6072046100128903 1 0 0 I I #
edge $-1 $277 -6.6072046100128903 $271 -2.2116379471772518 $268 $300 forward 7 unknown #
straight-curve $-1 32.281990688536098 32.537049468175411 2.2116379471772447 -1 0 0 I I #
point $-1 77.348551896725354 32.537049468175411 2.2116379471772518 #
straight-curve $-1 77.348551896725354 0 6.6072046100128903 0 1 0 I I #
point $-1 77.348551896725354 32.537049468175411 6.6072046100128903 #
point $-1 59.084879725792263 28.968266177474618 3.1065000847979451 #
point $-1 70.0430830283521 28.968266177474618 3.1065000847979451 #
straight-curve $-1 77.348551896725354 32.537049468175411 0 0 0 -1 I I #
End-of-ACIS-data 