500 0 10 0           
7 Unknown 11 ACIS 5.0 NT 24 Fri Mar 26 01:54:54 1999 
-1 9.9999999999999995e-007 1e-010 
body $-1 $10 $-1 $11 #
body $-1 $12 $-1 $13 #
body $-1 $14 $-1 $15 #
body $-1 $16 $-1 $17 #
body $-1 $18 $-1 $19 #
body $-1 $20 $-1 $21 #
body $-1 $22 $-1 $23 #
body $-1 $24 $-1 $25 #
body $-1 $26 $-1 $27 #
body $-1 $28 $-1 $29 #
lump $-1 $-1 $30 $0 #
transform $-1 1 0 0 0 1 0 0 0 1 63.439436017944885 39.115145045361061 12.226123967408778 1 rotate no_reflect no_shear #
lump $-1 $-1 $31 $1 #
transform $-1 1 0 0 0 1 0 0 0 1 63.439436017944885 39.115145045361061 12.226123967408778 1 rotate no_reflect no_shear #
lump $-1 $-1 $32 $2 #
transform $-1 1 0 0 0 1 0 0 0 1 63.439436017944885 39.115145045361061 12.226123967408778 1 rotate no_reflect no_shear #
lump $-1 $-1 $33 $3 #
transform $-1 1 0 0 0 1 0 0 0 1 63.439436017944885 39.115145045361061 12.226123967408778 1 rotate no_reflect no_shear #
lump $-1 $-1 $34 $4 #
transform $-1 1 0 0 0 1 0 0 0 1 63.439436017944885 39.115145045361061 12.226123967408778 1 rotate no_reflect no_shear #
lump $-1 $-1 $35 $5 #
transform $-1 1 0 0 0 1 0 0 0 1 63.439436017944885 39.115145045361061 12.226123967408778 1 rotate no_reflect no_shear #
lump $-1 $-1 $36 $6 #
transform $-1 1 0 0 0 1 0 0 0 1 63.439436017944885 39.115145045361061 12.226123967408778 1 rotate no_reflect no_shear #
lump $-1 $-1 $37 $7 #
transform $-1 1 0 0 0 1 0 0 0 1 63.439436017944885 39.115145045361061 12.226123967408778 1 rotate no_reflect no_shear #
lump $-1 $-1 $38 $8 #
transform $-1 1 0 0 0 1 0 0 0 1 63.439436017944885 39.115145045361061 12.226123967408778 1 rotate no_reflect no_shear #
lump $-1 $-1 $39 $9 #
transform $-1 1 0 0 0 1 0 0 0 1 63.439436017944885 39.115145045361061 12.226123967408778 1 rotate no_reflect no_shear #
shell $-1 $-1 $-1 $40 $-1 $10 #
shell $-1 $-1 $-1 $41 $-1 $12 #
shell $-1 $-1 $-1 $42 $-1 $14 #
shell $-1 $-1 $-1 $43 $-1 $16 #
shell $-1 $-1 $-1 $44 $-1 $18 #
shell $-1 $-1 $-1 $45 $-1 $20 #
shell $-1 $-1 $-1 $46 $-1 $22 #
shell $-1 $-1 $-1 $47 $-1 $24 #
shell $-1 $-1 $-1 $48 $-1 $26 #
shell $-1 $-1 $-1 $49 $-1 $28 #
face $-1 $50 $51 $30 $-1 $52 forward single #
face $-1 $53 $54 $31 $-1 $55 forward single #
face $-1 $56 $57 $32 $-1 $58 reversed single #
face $-1 $59 $60 $33 $-1 $61 forward single #
face $-1 $62 $63 $34 $-1 $64 forward single #
face $-1 $65 $66 $35 $-1 $67 forward single #
face $-1 $68 $69 $36 $-1 $70 reversed single #
face $-1 $71 $72 $37 $-1 $73 forward single #
face $-1 $74 $75 $38 $-1 $76 forward single #
face $-1 $77 $78 $39 $-1 $79 forward single #
face $-1 $80 $81 $30 $-1 $82 reversed single #
loop $-1 $-1 $83 $40 #
plane-surface $-1 0 0 12.226123967408778 0 0 1 1 0 0 forward_v I I I I #
face $-1 $84 $85 $31 $-1 $86 reversed single #
loop $-1 $-1 $87 $41 #
plane-surface $-1 -55.863947971422988 0 -6.1722019919088105 0 0 1 1 0 0 forward_v I I I I #
face $-1 $88 $89 $32 $-1 $90 reversed single #
loop $-1 $-1 $91 $42 #
plane-surface $-1 109.88032906786425 -10.012256624734832 179.08429417258492 0 -1 0 -0.86602541151947299 0 -0.49999998660252726 forward_v I I I I #
face $-1 $92 $93 $33 $-1 $94 forward single #
loop $-1 $95 $96 $43 #
cone-surface $-1 60.705777452347576 -24.200619830482903 8.4939816111514475 -0.86602541151947299 0 -0.49999998660252726 0.74999997990379086 0 -1.2990381172792094 1 I I 0 1 1.5 forward I I I I #
face $-1 $97 $98 $34 $-1 $99 forward single #
loop $-1 $100 $101 $44 #
cone-surface $-1 60.705777452347576 -18.879983628327377 8.4939816111514475 -0.86602541151947299 0 -0.49999998660252726 0.74999997990379086 0 -1.2990381172792094 1 I I 0 1 1.5 forward I I I I #
face $-1 $102 $103 $35 $-1 $104 forward single #
loop $-1 $105 $106 $45 #
cone-surface $-1 60.705777452347576 -13.559347426171851 8.4939816111514475 -0.86602541151947299 0 -0.49999998660252726 0.74999997990379086 0 -1.2990381172792094 1 I I 0 1 1.5 forward I I I I #
face $-1 $107 $108 $36 $-1 $109 reversed single #
loop $-1 $-1 $110 $46 #
plane-surface $-1 109.88032906786425 27.747710631919926 179.08429417258492 0 -1 0 -0.86602541151947299 0 -0.49999998660252726 forward_v I I I I #
face $-1 $111 $112 $37 $-1 $113 forward single #
loop $-1 $114 $115 $47 #
cone-surface $-1 60.705777452347576 13.559347426171854 8.4939816111514475 -0.86602541151947299 0 -0.49999998660252726 0.74999997990379086 0 -1.2990381172792094 1 I I 0 1 1.5 forward I I I I #
face $-1 $116 $117 $38 $-1 $118 forward single #
loop $-1 $119 $120 $48 #
cone-surface $-1 60.705777452347576 18.879983628327381 8.4939816111514475 -0.86602541151947299 0 -0.49999998660252726 0.74999997990379086 0 -1.2990381172792094 1 I I 0 1 1.5 forward I I I I #
face $-1 $121 $122 $39 $-1 $123 forward single #
loop $-1 $124 $125 $49 #
cone-surface $-1 60.705777452347576 24.200619830482907 8.4939816111514475 -0.86602541151947299 0 -0.49999998660252726 0.74999997990379086 0 -1.2990381172792094 1 I I 0 1 1.5 forward I I I I #
face $-1 $126 $127 $30 $-1 $128 reversed single #
loop $-1 $-1 $129 $50 #
plane-surface $-1 0 0 -12.226123967408778 0 0 1 1 0 0 forward_v I I I I #
coedge $-1 $130 $131 $132 $133 forward $51 $-1 #
face $-1 $134 $135 $31 $-1 $136 reversed single #
loop $-1 $-1 $137 $53 #
plane-surface $-1 -48.28845992490109 0 -9.1991629796587944 -1 0 0 0 0 1 forward_v I I I I #
coedge $-1 $138 $139 $140 $141 forward $54 $-1 #
face $-1 $142 $143 $32 $-1 $144 reversed single #
loop $-1 $-1 $145 $56 #
plane-surface $-1 1.6998562415437846e-006 -18.879983628327377 115.64485985449625 0.86602541151947299 0 0.49999998660252726 0.49999998660252726 0 -0.86602541151947299 forward_v I I I I #
coedge $-1 $146 $147 $148 $149 reversed $57 $-1 #
face $-1 $-1 $150 $33 $-1 $151 forward single #
loop $-1 $152 $153 $59 #
cone-surface $-1 59.18790055192126 -24.200619830482903 7.6176350054024802 -0.86602541151947299 0 -0.49999998660252726 0.37499998995189543 0 -0.64951905863960469 1 I I -0.70710678118654757 0.70710678118654757 0.75 forward I I I I #
loop $-1 $-1 $154 $43 #
coedge $-1 $96 $96 $155 $156 reversed $60 $-1 #
face $-1 $-1 $157 $34 $-1 $158 forward single #
loop $-1 $159 $160 $62 #
cone-surface $-1 59.18790055192126 -18.879983628327377 7.6176350054024802 -0.86602541151947299 0 -0.49999998660252726 0.37499998995189543 0 -0.64951905863960469 1 I I -0.70710678118654757 0.70710678118654757 0.75 forward I I I I #
loop $-1 $-1 $161 $44 #
coedge $-1 $101 $101 $162 $163 reversed $63 $-1 #
face $-1 $-1 $164 $35 $-1 $165 forward single #
loop $-1 $166 $167 $65 #
cone-surface $-1 59.18790055192126 -13.559347426171851 7.6176350054024802 -0.86602541151947299 0 -0.49999998660252726 0.37499998995189543 0 -0.64951905863960469 1 I I -0.70710678118654757 0.70710678118654757 0.75 forward I I I I #
loop $-1 $-1 $168 $45 #
coedge $-1 $106 $106 $169 $170 reversed $66 $-1 #
face $-1 $171 $172 $36 $-1 $173 reversed single #
loop $-1 $-1 $174 $68 #
plane-surface $-1 1.6998562415437846e-006 18.879983628327381 115.64485985449625 0.86602541151947299 0 0.49999998660252726 0.49999998660252726 0 -0.86602541151947299 forward_v I I I I #
coedge $-1 $175 $176 $177 $178 reversed $69 $-1 #
face $-1 $-1 $179 $37 $-1 $180 forward single #
loop $-1 $181 $182 $71 #
cone-surface $-1 59.18790055192126 13.559347426171854 7.6176350054024802 -0.86602541151947299 0 -0.49999998660252726 0.37499998995189543 0 -0.64951905863960469 1 I I -0.70710678118654757 0.70710678118654757 0.75 forward I I I I #
loop $-1 $-1 $183 $47 #
coedge $-1 $115 $115 $184 $185 reversed $72 $-1 #
face $-1 $-1 $186 $38 $-1 $187 forward single #
loop $-1 $188 $189 $74 #
cone-surface $-1 59.18790055192126 18.879983628327381 7.6176350054024802 -0.86602541151947299 0 -0.49999998660252726 0.37499998995189543 0 -0.64951905863960469 1 I I -0.70710678118654757 0.70710678118654757 0.75 forward I I I I #
loop $-1 $-1 $190 $48 #
coedge $-1 $120 $120 $191 $192 reversed $75 $-1 #
face $-1 $-1 $193 $39 $-1 $194 forward single #
loop $-1 $195 $196 $77 #
cone-surface $-1 59.18790055192126 24.200619830482907 7.6176350054024802 -0.86602541151947299 0 -0.49999998660252726 0.37499998995189543 0 -0.64951905863960469 1 I I -0.70710678118654757 0.70710678118654757 0.75 forward I I I I #
loop $-1 $-1 $197 $49 #
coedge $-1 $125 $125 $198 $199 reversed $78 $-1 #
face $-1 $200 $201 $30 $-1 $202 reversed single #
loop $-1 $-1 $203 $80 #
plane-surface $-1 0 -39.115145045361061 0 0 1 0 0 0 1 forward_v I I I I #
coedge $-1 $204 $205 $206 $207 forward $81 $-1 #
coedge $-1 $208 $83 $209 $210 forward $51 $-1 #
coedge $-1 $83 $208 $211 $212 forward $51 $-1 #
coedge $-1 $213 $214 $83 $133 reversed $215 $-1 #
edge $-1 $216 -39.115145045361061 $217 39.115145045361061 $132 $218 forward 7 unknown #
face $-1 $219 $220 $31 $-1 $221 reversed single #
loop $-1 $-1 $222 $84 #
plane-surface $-1 0 0 -12.226123967408778 0 0 1 1 0 0 forward_v I I I I #
coedge $-1 $223 $140 $224 $225 reversed $85 $-1 #
coedge $-1 $226 $87 $227 $228 reversed $54 $-1 #
coedge $-1 $87 $226 $229 $230 reversed $54 $-1 #
coedge $-1 $137 $231 $87 $141 reversed $85 $-1 #
edge $-1 $232 -39.115145045361061 $233 39.115145045361061 $140 $234 forward 7 unknown #
face $-1 $235 $236 $32 $-1 $237 forward single #
loop $-1 $-1 $238 $88 #
plane-surface $-1 109.88032906786425 -27.747710631919922 179.08429417258492 0 1 0 0.86602541151947299 0 0.49999998660252726 forward_v I I I I #
coedge $-1 $239 $240 $241 $242 reversed $89 $-1 #
coedge $-1 $147 $91 $243 $244 reversed $57 $-1 #
coedge $-1 $91 $146 $239 $245 reversed $57 $-1 #
coedge $-1 $241 $246 $91 $149 forward $236 $-1 #
edge $-1 $247 -8.499271484012759 $248 -4.7686700363915975 $148 $249 forward 7 unknown #
loop $-1 $-1 $155 $92 #
plane-surface $-1 1.6998562415437846e-006 -18.879983628327377 115.64485985449625 0.86602541151947299 0 0.49999998660252726 0.49999998660252726 0 -0.86602541151947299 forward_v I I I I #
loop $-1 $-1 $250 $59 #
coedge $-1 $153 $153 $154 $251 reversed $93 $-1 #
coedge $-1 $154 $154 $153 $251 forward $95 $-1 #
coedge $-1 $155 $155 $96 $156 forward $150 $-1 #
edge $-1 $252 0 $252 6.2831853071796004 $155 $253 forward 7 unknown #
loop $-1 $-1 $162 $97 #
plane-surface $-1 1.6998562415437846e-006 -18.879983628327377 115.64485985449625 0.86602541151947299 0 0.49999998660252726 0.49999998660252726 0 -0.86602541151947299 forward_v I I I I #
loop $-1 $-1 $254 $62 #
coedge $-1 $160 $160 $161 $255 reversed $98 $-1 #
coedge $-1 $161 $161 $160 $255 forward $100 $-1 #
coedge $-1 $162 $162 $101 $163 forward $157 $-1 #
edge $-1 $256 0 $256 6.2831853071796004 $162 $257 forward 7 unknown #
loop $-1 $-1 $169 $102 #
plane-surface $-1 1.6998562415437846e-006 -18.879983628327377 115.64485985449625 0.86602541151947299 0 0.49999998660252726 0.49999998660252726 0 -0.86602541151947299 forward_v I I I I #
loop $-1 $-1 $258 $65 #
coedge $-1 $167 $167 $168 $259 reversed $103 $-1 #
coedge $-1 $168 $168 $167 $259 forward $105 $-1 #
coedge $-1 $169 $169 $106 $170 forward $164 $-1 #
edge $-1 $260 0 $260 6.2831853071796004 $169 $261 forward 7 unknown #
face $-1 $262 $263 $36 $-1 $264 reversed single #
loop $-1 $-1 $265 $107 #
plane-surface $-1 109.88032906786425 10.012256624734835 179.08429417258492 0 1 0 0.86602541151947299 0 0.49999998660252726 forward_v I I I I #
coedge $-1 $266 $267 $268 $269 reversed $108 $-1 #
coedge $-1 $176 $110 $270 $271 reversed $69 $-1 #
coedge $-1 $110 $175 $266 $272 reversed $69 $-1 #
coedge $-1 $268 $273 $110 $178 forward $274 $-1 #
edge $-1 $275 -8.499271484012759 $276 -4.7686700363915975 $177 $277 forward 7 unknown #
loop $-1 $-1 $184 $111 #
plane-surface $-1 1.6998562415437846e-006 18.879983628327381 115.64485985449625 0.86602541151947299 0 0.49999998660252726 0.49999998660252726 0 -0.86602541151947299 forward_v I I I I #
loop $-1 $-1 $278 $71 #
coedge $-1 $182 $182 $183 $279 reversed $112 $-1 #
coedge $-1 $183 $183 $182 $279 forward $114 $-1 #
coedge $-1 $184 $184 $115 $185 forward $179 $-1 #
edge $-1 $280 0 $280 6.2831853071796004 $184 $281 forward 7 unknown #
loop $-1 $-1 $191 $116 #
plane-surface $-1 1.6998562415437846e-006 18.879983628327381 115.64485985449625 0.86602541151947299 0 0.49999998660252726 0.49999998660252726 0 -0.86602541151947299 forward_v I I I I #
loop $-1 $-1 $282 $74 #
coedge $-1 $189 $189 $190 $283 reversed $117 $-1 #
coedge $-1 $190 $190 $189 $283 forward $119 $-1 #
coedge $-1 $191 $191 $120 $192 forward $186 $-1 #
edge $-1 $284 0 $284 6.2831853071796004 $191 $285 forward 7 unknown #
loop $-1 $-1 $198 $121 #
plane-surface $-1 1.6998562415437846e-006 18.879983628327381 115.64485985449625 0.86602541151947299 0 0.49999998660252726 0.49999998660252726 0 -0.86602541151947299 forward_v I I I I #
loop $-1 $-1 $286 $77 #
coedge $-1 $196 $196 $197 $287 reversed $122 $-1 #
coedge $-1 $197 $197 $196 $287 forward $124 $-1 #
coedge $-1 $198 $198 $125 $199 forward $193 $-1 #
edge $-1 $288 0 $288 6.2831853071796004 $198 $289 forward 7 unknown #
face $-1 $290 $291 $30 $-1 $292 reversed single #
loop $-1 $-1 $293 $126 #
plane-surface $-1 -63.439436017944885 0 0 1 0 0 0 0 -1 forward_v I I I I #
coedge $-1 $294 $211 $295 $296 forward $127 $-1 #
coedge $-1 $297 $129 $294 $298 forward $81 $-1 #
coedge $-1 $129 $297 $299 $300 forward $81 $-1 #
coedge $-1 $214 $213 $129 $207 reversed $215 $-1 #
edge $-1 $301 -39.115145045361061 $302 39.115145045361061 $206 $303 forward 7 unknown #
coedge $-1 $131 $130 $304 $305 forward $51 $-1 #
coedge $-1 $306 $307 $130 $210 reversed $291 $-1 #
edge $-1 $217 -63.439436017944885 $308 63.439436017944885 $209 $309 forward 7 unknown #
coedge $-1 $203 $310 $131 $212 reversed $127 $-1 #
edge $-1 $311 -63.439436017944885 $216 63.439436017944885 $211 $312 forward 7 unknown #
coedge $-1 $206 $132 $310 $313 forward $215 $-1 #
coedge $-1 $132 $206 $306 $314 reversed $215 $-1 #
loop $-1 $-1 $213 $290 #
vertex $-1 $133 $315 #
vertex $-1 $133 $316 #
straight-curve $-1 63.439436017944885 0 12.226123967408778 0 1 0 I I #
face $-1 $317 $318 $31 $-1 $319 reversed single #
loop $-1 $-1 $224 $134 #
plane-surface $-1 0 -39.115145045361061 0 0 1 0 0 0 1 forward_v I I I I #
coedge $-1 $320 $321 $223 $322 forward $135 $-1 #
coedge $-1 $231 $137 $222 $322 reversed $85 $-1 #
coedge $-1 $229 $323 $137 $225 forward $220 $-1 #
edge $-1 $324 -7.6265424775793811 $232 -1.5726205020794133 $224 $325 forward 7 unknown #
coedge $-1 $139 $138 $326 $327 reversed $54 $-1 #
coedge $-1 $328 $329 $138 $228 forward $330 $-1 #
edge $-1 $331 -35.507462032233391 $233 -20.356485939189596 $227 $332 forward 7 unknown #
coedge $-1 $333 $224 $139 $230 forward $220 $-1 #
edge $-1 $232 20.356485939189596 $334 35.507462032233391 $229 $335 forward 7 unknown #
coedge $-1 $140 $223 $328 $336 reversed $85 $-1 #
vertex $-1 $230 $337 #
vertex $-1 $228 $338 #
straight-curve $-1 -48.28845992490109 0 -6.1722019919088105 0 1 0 I I #
face $-1 $-1 $339 $32 $-1 $340 reversed single #
loop $-1 $-1 $148 $142 #
plane-surface $-1 0 0 12.226123967408778 0 0 1 1 0 0 forward_v I I I I #
coedge $-1 $341 $342 $343 $344 reversed $143 $-1 #
coedge $-1 $345 $145 $147 $245 forward $89 $-1 #
coedge $-1 $145 $345 $341 $346 forward $89 $-1 #
coedge $-1 $343 $148 $145 $242 forward $236 $-1 #
edge $-1 $248 0.5722648105711432 $347 18.307718817756232 $241 $348 forward 7 unknown #
coedge $-1 $349 $350 $146 $244 forward $339 $-1 #
edge $-1 $351 -83.777614599804181 $247 -77.316023118883678 $243 $352 forward 7 unknown #
edge $-1 $248 119.41766894072489 $351 126.87887203588974 $147 $353 forward 7 unknown #
coedge $-1 $148 $343 $349 $354 forward $236 $-1 #
vertex $-1 $244 $355 #
vertex $-1 $149 $356 #
straight-curve $-1 54.940164533932126 -10.012256624734832 12.226123967408782 -1 0 0 I I #
coedge $-1 $250 $250 $-1 $357 reversed $152 $-1 #
edge $-1 $358 0 $358 6.2831853071796004 $153 $359 forward 7 unknown #
vertex $-1 $156 $360 #
ellipse-curve $-1 61.574135294134308 -24.200619830482903 8.99532822694853 0.86602541151947299 0 0.49999998660252726 0.74999997990379086 0 -1.2990381172792094 1 I I #
coedge $-1 $254 $254 $-1 $361 reversed $159 $-1 #
edge $-1 $362 0 $362 6.2831853071796004 $160 $363 forward 7 unknown #
vertex $-1 $163 $364 #
ellipse-curve $-1 61.574135294134308 -18.879983628327377 8.99532822694853 0.86602541151947299 0 0.49999998660252726 0.74999997990379086 0 -1.2990381172792094 1 I I #
coedge $-1 $258 $258 $-1 $365 reversed $166 $-1 #
edge $-1 $366 0 $366 6.2831853071796004 $167 $367 forward 7 unknown #
vertex $-1 $170 $368 #
ellipse-curve $-1 61.574135294134308 -13.559347426171851 8.99532822694853 0.86602541151947299 0 0.49999998660252726 0.74999997990379086 0 -1.2990381172792094 1 I I #
face $-1 $-1 $274 $36 $-1 $369 forward single #
loop $-1 $-1 $370 $171 #
plane-surface $-1 63.439436017944885 0 0 -1 0 0 0 0 1 forward_v I I I I #
coedge $-1 $371 $372 $373 $374 reversed $172 $-1 #
coedge $-1 $375 $174 $176 $272 forward $108 $-1 #
coedge $-1 $174 $375 $371 $376 forward $108 $-1 #
coedge $-1 $373 $177 $174 $269 forward $274 $-1 #
edge $-1 $276 -18.307718817756236 $377 -0.57226481057114498 $268 $378 forward 7 unknown #
coedge $-1 $379 $380 $175 $271 forward $263 $-1 #
edge $-1 $381 -83.777614599804181 $275 -77.316023118883678 $270 $382 forward 7 unknown #
edge $-1 $276 119.41766894072489 $381 126.87887203588974 $176 $383 forward 7 unknown #
coedge $-1 $177 $373 $379 $384 forward $274 $-1 #
loop $-1 $-1 $373 $262 #
vertex $-1 $271 $385 #
vertex $-1 $178 $386 #
straight-curve $-1 54.940164533932126 27.747710631919926 12.226123967408782 -1 0 0 I I #
coedge $-1 $278 $278 $-1 $387 reversed $181 $-1 #
edge $-1 $388 0 $388 6.2831853071796004 $182 $389 forward 7 unknown #
vertex $-1 $185 $390 #
ellipse-curve $-1 61.574135294134308 13.559347426171854 8.99532822694853 0.86602541151947299 0 0.49999998660252726 0.74999997990379086 0 -1.2990381172792094 1 I I #
coedge $-1 $282 $282 $-1 $391 reversed $188 $-1 #
edge $-1 $392 0 $392 6.2831853071796004 $189 $393 forward 7 unknown #
vertex $-1 $192 $394 #
ellipse-curve $-1 61.574135294134308 18.879983628327381 8.99532822694853 0.86602541151947299 0 0.49999998660252726 0.74999997990379086 0 -1.2990381172792094 1 I I #
coedge $-1 $286 $286 $-1 $395 reversed $195 $-1 #
edge $-1 $396 0 $396 6.2831853071796004 $196 $397 forward 7 unknown #
vertex $-1 $199 $398 #
ellipse-curve $-1 61.574135294134308 24.200619830482907 8.99532822694853 0.86602541151947299 0 0.49999998660252726 0.74999997990379086 0 -1.2990381172792094 1 I I #
face $-1 $-1 $215 $30 $-1 $399 reversed single #
loop $-1 $-1 $306 $200 #
plane-surface $-1 0 39.115145045361061 0 0 -1 0 0 0 -1 forward_v I I I I #
coedge $-1 $400 $304 $307 $401 forward $201 $-1 #
coedge $-1 $310 $203 $204 $298 reversed $127 $-1 #
coedge $-1 $304 $400 $203 $296 reversed $201 $-1 #
edge $-1 $311 -12.226123967408778 $402 12.226123967408778 $295 $403 forward 7 unknown #
coedge $-1 $205 $204 $400 $404 forward $81 $-1 #
edge $-1 $302 -63.439436017944885 $402 63.439436017944885 $294 $405 forward 7 unknown #
coedge $-1 $307 $306 $205 $300 reversed $291 $-1 #
edge $-1 $406 -63.439436017944885 $301 63.439436017944885 $299 $407 forward 7 unknown #
vertex $-1 $207 $408 #
vertex $-1 $313 $409 #
straight-curve $-1 63.439436017944885 0 -12.226123967408778 0 -1 0 I I #
coedge $-1 $293 $295 $208 $305 reversed $201 $-1 #
edge $-1 $308 -39.115145045361061 $311 39.115145045361061 $304 $410 forward 7 unknown #
coedge $-1 $299 $209 $214 $314 forward $291 $-1 #
coedge $-1 $209 $299 $293 $401 reversed $291 $-1 #
vertex $-1 $210 $411 #
straight-curve $-1 0 39.115145045361061 12.226123967408778 -1 0 0 I I #
coedge $-1 $211 $294 $213 $313 reversed $127 $-1 #
vertex $-1 $305 $412 #
straight-curve $-1 0 -39.115145045361061 12.226123967408778 1 0 0 I I #
edge $-1 $216 -12.226123967408778 $302 12.226123967408778 $213 $413 forward 7 unknown #
edge $-1 $217 -12.226123967408778 $301 12.226123967408778 $214 $414 forward 7 unknown #
point $-1 63.439436017944885 -39.115145045361061 12.226123967408778 #
point $-1 63.439436017944885 39.115145045361061 12.226123967408778 #
face $-1 $-1 $330 $31 $-1 $415 reversed single #
loop $-1 $-1 $326 $219 #
plane-surface $-1 -63.439436017944885 0 0 1 0 0 0 0 -1 forward_v I I I I #
coedge $-1 $416 $222 $323 $417 forward $135 $-1 #
coedge $-1 $222 $416 $418 $419 forward $135 $-1 #
edge $-1 $420 -39.115145045361061 $324 39.115145045361061 $222 $421 forward 7 unknown #
coedge $-1 $224 $333 $320 $417 reversed $220 $-1 #
vertex $-1 $417 $422 #
straight-curve $-1 -48.28845992490109 -39.115145045361061 -4.5995814898293972 0 0 1 I I #
coedge $-1 $423 $424 $226 $327 forward $318 $-1 #
edge $-1 $334 -39.115145045361061 $331 39.115145045361061 $326 $425 forward 7 unknown #
coedge $-1 $418 $227 $231 $336 forward $330 $-1 #
coedge $-1 $227 $418 $423 $426 reversed $330 $-1 #
loop $-1 $-1 $328 $317 #
vertex $-1 $426 $427 #
straight-curve $-1 -27.931973985711494 39.115145045361061 -6.1722019919088105 1 0 0 I I #
coedge $-1 $323 $229 $424 $428 forward $220 $-1 #
vertex $-1 $428 $429 #
straight-curve $-1 -27.931973985711494 -39.115145045361061 -6.1722019919088105 -1 0 0 I I #
edge $-1 $233 1.5726205020794133 $420 7.6265424775793811 $328 $430 forward 7 unknown #
point $-1 -48.28845992490109 -39.115145045361061 -6.1722019919088105 #
point $-1 -48.28845992490109 39.115145045361061 -6.1722019919088105 #
loop $-1 $-1 $243 $235 #
plane-surface $-1 63.439436017944885 0 0 -1 0 0 0 0 1 forward_v I I I I #
coedge $-1 $342 $238 $240 $346 reversed $143 $-1 #
coedge $-1 $238 $341 $431 $432 reversed $143 $-1 #
coedge $-1 $246 $241 $238 $344 forward $236 $-1 #
edge $-1 $347 4.7686700363915975 $433 8.499271484012759 $343 $434 forward 7 unknown #
coedge $-1 $240 $239 $350 $435 reversed $89 $-1 #
edge $-1 $436 -126.87887203588974 $347 -119.41766894072489 $341 $437 forward 7 unknown #
vertex $-1 $242 $438 #
straight-curve $-1 59.708834570323731 -9.4399918141636885 12.226123967408782 0 -1 0 I I #
coedge $-1 $431 $243 $246 $354 reversed $339 $-1 #
coedge $-1 $243 $431 $345 $435 forward $339 $-1 #
vertex $-1 $244 $439 #
straight-curve $-1 63.439436017944885 -10.012256624734832 89.542147086292459 0 0 1 I I #
straight-curve $-1 1.6998562415437846e-006 -10.012256624734832 115.64485985449625 0.49999998660252726 0 -0.86602541151947299 I I #
edge $-1 $433 -27.747710631919922 $247 -10.012256624734832 $349 $440 forward 7 unknown #
point $-1 63.439436017944885 -10.012256624734832 12.226123967408778 #
point $-1 59.708834570323724 -10.012256624734832 12.226123967408782 #
edge $-1 $441 1 $441 0 $250 $-1 forward 7 unknown #
vertex $-1 $251 $442 #
ellipse-curve $-1 59.837419610560865 -24.200619830482903 7.9926349953543756 0.86602541151947299 0 0.49999998660252726 0.74999997990379086 0 -1.2990381172792094 1 I I #
point $-1 62.324135274038078 -24.200619830482903 7.6962901096693113 #
edge $-1 $443 1 $443 0 $254 $-1 forward 7 unknown #
vertex $-1 $255 $444 #
ellipse-curve $-1 59.837419610560865 -18.879983628327377 7.9926349953543756 0.86602541151947299 0 0.49999998660252726 0.74999997990379086 0 -1.2990381172792094 1 I I #
point $-1 62.324135274038078 -18.879983628327377 7.6962901096693113 #
edge $-1 $445 1 $445 0 $258 $-1 forward 7 unknown #
vertex $-1 $259 $446 #
ellipse-curve $-1 59.837419610560865 -13.559347426171851 7.9926349953543756 0.86602541151947299 0 0.49999998660252726 0.74999997990379086 0 -1.2990381172792094 1 I I #
point $-1 62.324135274038078 -13.559347426171851 7.6962901096693113 #
plane-surface $-1 0 0 12.226123967408778 0 0 1 1 0 0 forward_v I I I I #
coedge $-1 $380 $379 $372 $447 forward $263 $-1 #
coedge $-1 $372 $265 $267 $376 reversed $172 $-1 #
coedge $-1 $265 $371 $370 $447 reversed $172 $-1 #
coedge $-1 $273 $268 $265 $374 forward $274 $-1 #
edge $-1 $377 4.7686700363915975 $448 8.499271484012759 $373 $449 forward 7 unknown #
coedge $-1 $267 $266 $380 $450 reversed $108 $-1 #
edge $-1 $451 -126.87887203588974 $377 -119.41766894072489 $371 $452 forward 7 unknown #
vertex $-1 $269 $453 #
straight-curve $-1 59.708834570323731 9.4399918141636903 12.226123967408782 0 -1 0 I I #
coedge $-1 $370 $270 $273 $384 reversed $263 $-1 #
coedge $-1 $270 $370 $375 $450 forward $263 $-1 #
vertex $-1 $271 $454 #
straight-curve $-1 63.439436017944885 27.747710631919926 89.542147086292459 0 0 1 I I #
straight-curve $-1 1.6998562415437846e-006 27.747710631919926 115.64485985449625 0.49999998660252726 0 -0.86602541151947299 I I #
edge $-1 $448 10.012256624734835 $275 27.747710631919926 $379 $455 forward 7 unknown #
point $-1 63.439436017944885 27.747710631919926 12.226123967408778 #
point $-1 59.708834570323724 27.747710631919926 12.226123967408782 #
edge $-1 $456 1 $456 0 $278 $-1 forward 7 unknown #
vertex $-1 $279 $457 #
ellipse-curve $-1 59.837419610560865 13.559347426171854 7.9926349953543756 0.86602541151947299 0 0.49999998660252726 0.74999997990379086 0 -1.2990381172792094 1 I I #
point $-1 62.324135274038078 13.559347426171854 7.6962901096693113 #
edge $-1 $458 1 $458 0 $282 $-1 forward 7 unknown #
vertex $-1 $283 $459 #
ellipse-curve $-1 59.837419610560865 18.879983628327381 7.9926349953543756 0.86602541151947299 0 0.49999998660252726 0.74999997990379086 0 -1.2990381172792094 1 I I #
point $-1 62.324135274038078 18.879983628327381 7.6962901096693113 #
edge $-1 $460 1 $460 0 $286 $-1 forward 7 unknown #
vertex $-1 $287 $461 #
ellipse-curve $-1 59.837419610560865 24.200619830482907 7.9926349953543756 0.86602541151947299 0 0.49999998660252726 0.74999997990379086 0 -1.2990381172792094 1 I I #
point $-1 62.324135274038078 24.200619830482907 7.6962901096693113 #
plane-surface $-1 63.439436017944885 0 0 -1 0 0 0 0 1 forward_v I I I I #
coedge $-1 $295 $293 $297 $404 reversed $201 $-1 #
edge $-1 $308 -12.226123967408778 $406 12.226123967408778 $307 $462 forward 7 unknown #
vertex $-1 $404 $463 #
straight-curve $-1 -63.439436017944885 -39.115145045361061 0 0 0 -1 I I #
edge $-1 $402 -39.115145045361061 $406 39.115145045361061 $400 $464 forward 7 unknown #
straight-curve $-1 0 -39.115145045361061 -12.226123967408778 -1 0 0 I I #
vertex $-1 $300 $465 #
straight-curve $-1 0 39.115145045361061 -12.226123967408778 1 0 0 I I #
point $-1 63.439436017944885 39.115145045361061 -12.226123967408778 #
point $-1 63.439436017944885 -39.115145045361061 -12.226123967408778 #
straight-curve $-1 -63.439436017944885 0 12.226123967408778 0 -1 0 I I #
point $-1 -63.439436017944885 39.115145045361061 12.226123967408778 #
point $-1 -63.439436017944885 -39.115145045361061 12.226123967408778 #
straight-curve $-1 63.439436017944885 -39.115145045361061 0 0 0 -1 I I #
straight-curve $-1 63.439436017944885 39.115145045361061 0 0 0 -1 I I #
plane-surface $-1 0 39.115145045361061 0 0 -1 0 0 0 -1 forward_v I I I I #
coedge $-1 $321 $320 $466 $467 forward $135 $-1 #
edge $-1 $324 48.28845992490109 $468 63.439436017944885 $323 $469 forward 7 unknown #
coedge $-1 $329 $328 $321 $419 reversed $330 $-1 #
edge $-1 $470 -63.439436017944885 $420 -48.28845992490109 $418 $471 forward 7 unknown #
vertex $-1 $336 $472 #
straight-curve $-1 -48.28845992490109 0 -12.226123967408778 0 -1 0 I I #
point $-1 -48.28845992490109 -39.115145045361061 -12.226123967408778 #
coedge $-1 $466 $326 $329 $426 forward $318 $-1 #
coedge $-1 $326 $466 $333 $428 reversed $318 $-1 #
straight-curve $-1 -63.439436017944885 0 -6.1722019919088105 0 1 0 I I #
edge $-1 $331 6.1722019919088105 $470 12.226123967408778 $329 $473 forward 7 unknown #
point $-1 -63.439436017944885 39.115145045361061 -6.1722019919088105 #
edge $-1 $334 6.1722019919088105 $468 12.226123967408778 $424 $474 forward 7 unknown #
point $-1 -63.439436017944885 -39.115145045361061 -6.1722019919088105 #
straight-curve $-1 -48.28845992490109 39.115145045361061 -4.5995814898293972 0 0 -1 I I #
coedge $-1 $350 $349 $342 $432 forward $339 $-1 #
edge $-1 $433 77.316023118883678 $436 83.777614599804181 $431 $475 forward 7 unknown #
vertex $-1 $354 $476 #
straight-curve $-1 54.940164533932126 -27.747710631919922 12.226123967408782 1 0 0 I I #
edge $-1 $436 -18.307718817756232 $351 -0.5722648105711432 $350 $477 forward 7 unknown #
vertex $-1 $435 $478 #
straight-curve $-1 1.6998562415437846e-006 -27.747710631919922 115.64485985449625 -0.49999998660252726 0 0.86602541151947299 I I #
point $-1 59.708834570323724 -27.747710631919922 12.226123967408782 #
point $-1 63.439436017944885 -10.012256624734832 5.7645324864882781 #
straight-curve $-1 63.439436017944885 0 12.226123967408778 0 1 0 I I #
vertex $-1 $357 $479 #
point $-1 60.587419590464656 -24.200619830482903 6.6935968780751658 #
vertex $-1 $361 $480 #
point $-1 60.587419590464656 -18.879983628327377 6.6935968780751658 #
vertex $-1 $365 $481 #
point $-1 60.587419590464656 -13.559347426171851 6.6935968780751658 #
edge $-1 $448 77.316023118883678 $451 83.777614599804181 $370 $482 forward 7 unknown #
vertex $-1 $384 $483 #
straight-curve $-1 54.940164533932126 10.012256624734835 12.226123967408782 1 0 0 I I #
edge $-1 $451 0.57226481057114498 $381 18.307718817756236 $380 $484 forward 7 unknown #
vertex $-1 $450 $485 #
straight-curve $-1 1.6998562415437846e-006 10.012256624734835 115.64485985449625 -0.49999998660252726 0 0.86602541151947299 I I #
point $-1 59.708834570323724 10.012256624734835 12.226123967408782 #
point $-1 63.439436017944885 27.747710631919926 5.7645324864882781 #
straight-curve $-1 63.439436017944885 0 12.226123967408778 0 1 0 I I #
vertex $-1 $387 $486 #
point $-1 60.587419590464656 13.559347426171854 6.6935968780751658 #
vertex $-1 $391 $487 #
point $-1 60.587419590464656 18.879983628327381 6.6935968780751658 #
vertex $-1 $395 $488 #
point $-1 60.587419590464656 24.200619830482907 6.6935968780751658 #
straight-curve $-1 -63.439436017944885 39.115145045361061 0 0 0 -1 I I #
point $-1 -63.439436017944885 -39.115145045361061 -12.226123967408778 #
straight-curve $-1 -63.439436017944885 0 -12.226123967408778 0 1 0 I I #
point $-1 -63.439436017944885 39.115145045361061 -12.226123967408778 #
coedge $-1 $424 $423 $416 $467 reversed $318 $-1 #
edge $-1 $468 -39.115145045361061 $470 39.115145045361061 $466 $489 forward 7 unknown #
vertex $-1 $467 $490 #
straight-curve $-1 0 -39.115145045361061 -12.226123967408778 -1 0 0 I I #
vertex $-1 $419 $491 #
straight-curve $-1 0 39.115145045361061 -12.226123967408778 1 0 0 I I #
point $-1 -48.28845992490109 39.115145045361061 -12.226123967408778 #
straight-curve $-1 -63.439436017944885 39.115145045361061 0 0 0 -1 I I #
straight-curve $-1 -63.439436017944885 -39.115145045361061 0 0 0 -1 I I #
straight-curve $-1 63.439436017944885 -27.747710631919922 89.542147086292459 0 0 -1 I I #
point $-1 63.439436017944885 -27.747710631919922 12.226123967408778 #
straight-curve $-1 63.439436017944885 -9.4399918141636885 5.764532486488271 0 1 0 I I #
point $-1 63.439436017944885 -27.747710631919922 5.7645324864882781 #
point $-1 58.538381493281655 -24.200619830482903 7.2426350154505847 #
point $-1 58.538381493281655 -18.879983628327377 7.2426350154505847 #
point $-1 58.538381493281655 -13.559347426171851 7.2426350154505847 #
straight-curve $-1 63.439436017944885 10.012256624734835 89.542147086292459 0 0 -1 I I #
point $-1 63.439436017944885 10.012256624734835 12.226123967408778 #
straight-curve $-1 63.439436017944885 9.4399918141636903 5.764532486488271 0 1 0 I I #
point $-1 63.439436017944885 10.012256624734835 5.7645324864882781 #
point $-1 58.538381493281655 13.559347426171854 7.2426350154505847 #
point $-1 58.538381493281655 18.879983628327381 7.2426350154505847 #
point $-1 58.538381493281655 24.200619830482907 7.2426350154505847 #
straight-curve $-1 -63.439436017944885 0 -12.226123967408778 0 1 0 I I #
point $-1 -63.439436017944885 -39.115145045361061 -12.226123967408778 #
point $-1 -63.439436017944885 39.115145045361061 -12.226123967408778 #
End-of-ACIS-data 