500 0 8 0           
7 Unknown 11 ACIS 5.0 NT 24 Thu Mar 25 17:03:16 1999 
-1 9.9999999999999995e-007 1e-010 
body $-1 $8 $-1 $9 #
body $-1 $10 $-1 $11 #
body $-1 $12 $-1 $13 #
body $-1 $14 $-1 $15 #
body $-1 $16 $-1 $17 #
body $-1 $18 $-1 $19 #
body $-1 $20 $-1 $21 #
body $-1 $22 $-1 $23 #
lump $-1 $-1 $24 $0 #
transform $-1 1 0 0 0 1 0 0 0 1 50.697347941526537 32.925967949730889 7.0563684418285231 1 rotate no_reflect no_shear #
lump $-1 $-1 $25 $1 #
transform $-1 1 0 0 0 1 0 0 0 1 50.697347941526537 32.925967949730889 7.0563684418285231 1 rotate no_reflect no_shear #
lump $-1 $-1 $26 $2 #
transform $-1 1 0 0 0 1 0 0 0 1 50.697347941526537 32.925967949730889 7.0563684418285231 1 rotate no_reflect no_shear #
lump $-1 $-1 $27 $3 #
transform $-1 1 0 0 0 1 0 0 0 1 50.697347941526537 32.925967949730889 7.0563684418285231 1 rotate no_reflect no_shear #
lump $-1 $-1 $28 $4 #
transform $-1 1 0 0 0 1 0 0 0 1 50.697347941526537 32.925967949730889 7.0563684418285231 1 rotate no_reflect no_shear #
lump $-1 $-1 $29 $5 #
transform $-1 1 0 0 0 1 0 0 0 1 50.697347941526537 32.925967949730889 7.0563684418285231 1 rotate no_reflect no_shear #
lump $-1 $-1 $30 $6 #
transform $-1 1 0 0 0 1 0 0 0 1 50.697347941526537 32.925967949730889 7.0563684418285231 1 rotate no_reflect no_shear #
lump $-1 $-1 $31 $7 #
transform $-1 1 0 0 0 1 0 0 0 1 50.697347941526537 32.925967949730889 7.0563684418285231 1 rotate no_reflect no_shear #
shell $-1 $-1 $-1 $32 $-1 $8 #
shell $-1 $-1 $-1 $33 $-1 $10 #
shell $-1 $-1 $-1 $34 $-1 $12 #
shell $-1 $-1 $-1 $35 $-1 $14 #
shell $-1 $-1 $-1 $36 $-1 $16 #
shell $-1 $-1 $-1 $37 $-1 $18 #
shell $-1 $-1 $-1 $38 $-1 $20 #
shell $-1 $-1 $-1 $39 $-1 $22 #
face $-1 $40 $41 $24 $-1 $42 forward single #
face $-1 $43 $44 $25 $-1 $45 forward single #
face $-1 $46 $47 $26 $-1 $48 forward single #
face $-1 $49 $50 $27 $-1 $51 reversed single #
face $-1 $52 $53 $28 $-1 $54 forward single #
face $-1 $55 $56 $29 $-1 $57 reversed single #
face $-1 $58 $59 $30 $-1 $60 forward single #
face $-1 $61 $62 $31 $-1 $63 forward single #
face $-1 $64 $65 $24 $-1 $66 reversed single #
loop $-1 $-1 $67 $32 #
plane-surface $-1 0 0 7.0563684418285231 0 0 1 1 0 0 forward_v I I I I #
face $-1 $68 $69 $25 $-1 $70 reversed single #
loop $-1 $-1 $71 $33 #
plane-surface $-1 0 -32.925967949730889 0 0 1 0 0 0 1 forward_v I I I I #
face $-1 $72 $73 $26 $-1 $74 reversed single #
loop $-1 $-1 $75 $34 #
plane-surface $-1 0 32.925967949730889 0 0 -1 0 0 0 -1 forward_v I I I I #
face $-1 $76 $77 $27 $-1 $78 reversed single #
loop $-1 $-1 $79 $35 #
plane-surface $-1 75.597414027249698 1.8229798581612826 143.04954080968159 0 -1 0 -0.81915205242281985 0 -0.57357642473473569 forward_v I I I I #
face $-1 $80 $81 $28 $-1 $82 forward single #
loop $-1 $83 $84 $36 #
cone-surface $-1 48.093652518168213 -2.1670121150391495 3.9023624748611345 -0.81915205242281985 0 -0.57357642473473569 0.57357642473473569 0 -0.81915205242281985 1 I I 0 1 1 forward I I I I #
face $-1 $85 $86 $29 $-1 $87 reversed single #
loop $-1 $-1 $88 $37 #
plane-surface $-1 -108.85495702055582 -26.855841509929128 84.914834257425909 0 1 0 -0.57357644374324357 0 0.81915203911291934 forward_v I I I I #
face $-1 $89 $90 $30 $-1 $91 forward single #
loop $-1 $92 $93 $38 #
cone-surface $-1 -46.6979418966067 -24.739518302640782 4.0471893861521302 0.57357644374324357 0 -0.81915203911291934 0.40957601955645967 0 0.28678822187162178 1 I I 0 1 0.5 forward I I I I #
face $-1 $94 $95 $31 $-1 $96 forward single #
loop $-1 $97 $98 $39 #
cone-surface $-1 -46.6979418966067 -21.565033491708267 4.0471893861521302 0.57357644374324357 0 -0.81915203911291934 0.40957601955645967 0 0.28678822187162178 1 I I 0 1 0.5 forward I I I I #
face $-1 $99 $100 $24 $-1 $101 reversed single #
loop $-1 $-1 $102 $40 #
plane-surface $-1 0 0 -7.0563684418285231 0 0 1 1 0 0 forward_v I I I I #
coedge $-1 $103 $104 $105 $106 forward $41 $-1 #
face $-1 $107 $108 $25 $-1 $109 reversed single #
loop $-1 $-1 $110 $43 #
plane-surface $-1 0 0 -7.0563684418285231 0 0 1 1 0 0 forward_v I I I I #
coedge $-1 $111 $112 $113 $114 forward $44 $-1 #
face $-1 $115 $116 $26 $-1 $117 forward single #
loop $-1 $-1 $118 $46 #
plane-surface $-1 -50.697347941526537 0 0 1 0 0 0 0 -1 forward_v I I I I #
coedge $-1 $119 $120 $121 $122 forward $47 $-1 #
face $-1 $123 $124 $27 $-1 $125 reversed single #
loop $-1 $-1 $126 $49 #
plane-surface $-1 -7.460259210140876 -2.1670121150391495 84.891933658014182 0.81915205242281985 0 0.57357642473473569 0.57357642473473569 0 -0.81915205242281985 forward_v I I I I #
coedge $-1 $127 $128 $129 $130 reversed $50 $-1 #
face $-1 $-1 $131 $28 $-1 $132 forward single #
loop $-1 $133 $134 $52 #
cone-surface $-1 46.908660714313903 -2.1670121150391495 3.0726223061288369 -0.81915205242281985 0 -0.57357642473473569 0.28678821236736785 0 -0.40957602621140993 1 I I -0.70710678118654746 0.70710678118654746 0.5 forward I I I I #
loop $-1 $-1 $135 $36 #
coedge $-1 $84 $84 $136 $137 reversed $53 $-1 #
face $-1 $138 $139 $29 $-1 $140 reversed single #
loop $-1 $-1 $141 $55 #
plane-surface $-1 -50.69734794152653 -23.152275897174526 1.8571623695886501 -0.57357644374324357 0 0.81915203911291934 0.81915203911291934 0 0.57357644374324357 forward_v I I I I #
coedge $-1 $142 $143 $144 $145 reversed $56 $-1 #
face $-1 $-1 $146 $30 $-1 $147 forward single #
loop $-1 $148 $149 $58 #
cone-surface $-1 -46.267759563799267 -24.739518302640782 3.4328253568174407 0.57357644374324357 0 -0.81915203911291934 0.20478800977822983 0 0.14339411093581089 1 I I -0.70710678118654746 0.70710678118654746 0.25 forward I I I I #
loop $-1 $-1 $150 $38 #
coedge $-1 $93 $93 $151 $152 reversed $59 $-1 #
face $-1 $-1 $153 $31 $-1 $154 forward single #
loop $-1 $155 $156 $61 #
cone-surface $-1 -46.267759563799267 -21.565033491708267 3.4328253568174407 0.57357644374324357 0 -0.81915203911291934 0.20478800977822983 0 0.14339411093581089 1 I I -0.70710678118654746 0.70710678118654746 0.25 forward I I I I #
loop $-1 $-1 $157 $39 #
coedge $-1 $98 $98 $158 $159 reversed $62 $-1 #
face $-1 $160 $161 $24 $-1 $162 reversed single #
loop $-1 $-1 $163 $64 #
plane-surface $-1 0 -32.925967949730889 0 0 1 0 0 0 1 forward_v I I I I #
coedge $-1 $164 $165 $166 $167 forward $65 $-1 #
coedge $-1 $168 $67 $169 $170 forward $41 $-1 #
coedge $-1 $67 $168 $171 $172 forward $41 $-1 #
coedge $-1 $173 $174 $67 $106 reversed $175 $-1 #
edge $-1 $176 -32.925967949730889 $177 32.925967949730889 $105 $178 forward 7 unknown #
face $-1 $179 $180 $25 $-1 $181 forward single #
loop $-1 $-1 $182 $68 #
plane-surface $-1 50.697347941526537 0 0 -1 0 0 0 0 1 forward_v I I I I #
coedge $-1 $183 $184 $185 $186 forward $69 $-1 #
coedge $-1 $185 $71 $182 $187 reversed $44 $-1 #
coedge $-1 $71 $185 $188 $189 reversed $44 $-1 #
coedge $-1 $190 $191 $71 $114 reversed $180 $-1 #
edge $-1 $192 -50.697347941526537 $193 50.697347941526537 $113 $194 forward 7 unknown #
face $-1 $195 $196 $26 $-1 $197 reversed single #
loop $-1 $-1 $198 $72 #
plane-surface $-1 0 35.961031169631767 -3.48694472518349 0 0 1 1 0 0 forward_v I I I I #
coedge $-1 $199 $200 $119 $201 forward $73 $-1 #
coedge $-1 $202 $75 $118 $201 reversed $47 $-1 #
coedge $-1 $75 $202 $203 $204 reversed $47 $-1 #
coedge $-1 $198 $205 $75 $122 reversed $116 $-1 #
edge $-1 $206 -50.697347941526537 $207 50.697347941526537 $121 $208 forward 7 unknown #
face $-1 $209 $210 $27 $-1 $211 forward single #
loop $-1 $-1 $212 $76 #
plane-surface $-1 75.597414027249698 -6.1570040882395816 143.04954080968159 0 1 0 0.81915205242281985 0 0.57357642473473569 forward_v I I I I #
coedge $-1 $213 $214 $215 $216 reversed $77 $-1 #
coedge $-1 $128 $79 $217 $218 reversed $50 $-1 #
coedge $-1 $79 $127 $213 $219 reversed $50 $-1 #
coedge $-1 $215 $220 $79 $130 forward $210 $-1 #
edge $-1 $221 -12.898640927901688 $222 -9.24208163647085 $129 $223 forward 7 unknown #
loop $-1 $-1 $136 $80 #
plane-surface $-1 -7.460259210140876 -2.1670121150391495 84.891933658014182 0.81915205242281985 0 0.57357642473473569 0.57357642473473569 0 -0.81915205242281985 forward_v I I I I #
loop $-1 $-1 $224 $52 #
coedge $-1 $134 $134 $135 $225 reversed $81 $-1 #
coedge $-1 $135 $135 $134 $225 forward $83 $-1 #
coedge $-1 $136 $136 $84 $137 forward $131 $-1 #
edge $-1 $226 0 $226 6.2831853071796004 $136 $227 forward 7 unknown #
face $-1 $228 $229 $29 $-1 $230 reversed single #
loop $-1 $-1 $231 $85 #
plane-surface $-1 -108.85495702055582 -19.448710284419924 84.914834257425909 0 -1 0 0.57357644374324357 0 -0.81915203911291934 forward_v I I I I #
coedge $-1 $232 $233 $234 $235 reversed $86 $-1 #
coedge $-1 $143 $88 $236 $237 reversed $56 $-1 #
coedge $-1 $88 $142 $232 $238 reversed $56 $-1 #
coedge $-1 $234 $239 $88 $145 forward $240 $-1 #
edge $-1 $241 3.7301305687513704 $242 11.155366214847824 $144 $243 forward 7 unknown #
loop $-1 $-1 $151 $89 #
plane-surface $-1 -50.69734794152653 -23.152275897174526 1.8571623695886501 -0.57357644374324357 0 0.81915203911291934 0.81915203911291934 0 0.57357644374324357 forward_v I I I I #
loop $-1 $-1 $244 $58 #
coedge $-1 $149 $149 $150 $245 reversed $90 $-1 #
coedge $-1 $150 $150 $149 $245 forward $92 $-1 #
coedge $-1 $151 $151 $93 $152 forward $146 $-1 #
edge $-1 $246 0 $246 6.2831853071796004 $151 $247 forward 7 unknown #
loop $-1 $-1 $158 $94 #
plane-surface $-1 -50.69734794152653 -23.152275897174526 1.8571623695886501 -0.57357644374324357 0 0.81915203911291934 0.81915203911291934 0 0.57357644374324357 forward_v I I I I #
loop $-1 $-1 $248 $61 #
coedge $-1 $156 $156 $157 $249 reversed $95 $-1 #
coedge $-1 $157 $157 $156 $249 forward $97 $-1 #
coedge $-1 $158 $158 $98 $159 forward $153 $-1 #
edge $-1 $250 0 $250 6.2831853071796004 $158 $251 forward 7 unknown #
face $-1 $252 $253 $24 $-1 $254 reversed single #
loop $-1 $-1 $255 $99 #
plane-surface $-1 -50.697347941526537 0 0 1 0 0 0 0 -1 forward_v I I I I #
coedge $-1 $256 $171 $257 $258 forward $100 $-1 #
coedge $-1 $259 $102 $256 $260 forward $65 $-1 #
coedge $-1 $102 $259 $261 $262 forward $65 $-1 #
coedge $-1 $174 $173 $102 $167 reversed $175 $-1 #
edge $-1 $263 -32.925967949730889 $264 32.925967949730889 $166 $265 forward 7 unknown #
coedge $-1 $104 $103 $266 $267 forward $41 $-1 #
coedge $-1 $268 $269 $103 $170 reversed $253 $-1 #
edge $-1 $177 -50.697347941526537 $270 50.697347941526537 $169 $271 forward 7 unknown #
coedge $-1 $163 $272 $104 $172 reversed $100 $-1 #
edge $-1 $273 -50.697347941526537 $176 50.697347941526537 $171 $274 forward 7 unknown #
coedge $-1 $166 $105 $272 $275 forward $175 $-1 #
coedge $-1 $105 $166 $268 $276 reversed $175 $-1 #
loop $-1 $-1 $173 $252 #
vertex $-1 $106 $277 #
vertex $-1 $106 $278 #
straight-curve $-1 50.697347941526537 0 7.0563684418285231 0 1 0 I I #
face $-1 $279 $280 $25 $-1 $281 reversed single #
loop $-1 $-1 $191 $107 #
plane-surface $-1 0 -35.961031169631767 -3.48694472518349 0 0 1 1 0 0 forward_v I I I I #
coedge $-1 $282 $283 $111 $187 forward $108 $-1 #
coedge $-1 $284 $110 $283 $285 forward $69 $-1 #
coedge $-1 $110 $284 $286 $287 forward $69 $-1 #
coedge $-1 $112 $111 $110 $186 reversed $44 $-1 #
edge $-1 $288 -50.697347941526537 $289 50.697347941526537 $110 $290 forward 7 unknown #
edge $-1 $289 -7.0563684418285231 $193 -3.48694472518349 $182 $291 forward 7 unknown #
coedge $-1 $286 $292 $112 $189 forward $293 $-1 #
edge $-1 $192 3.48694472518349 $288 7.0563684418285231 $188 $294 forward 7 unknown #
coedge $-1 $295 $113 $292 $296 forward $180 $-1 #
coedge $-1 $113 $295 $282 $297 forward $180 $-1 #
vertex $-1 $189 $298 #
vertex $-1 $297 $299 #
straight-curve $-1 0 -32.925967949730889 -3.48694472518349 1 0 0 I I #
face $-1 $300 $301 $26 $-1 $302 reversed single #
loop $-1 $-1 $303 $115 #
plane-surface $-1 0 38.996094389532644 -5.2716565835060063 0 -1 0 0 0 -1 forward_v I I I I #
coedge $-1 $304 $121 $305 $306 forward $116 $-1 #
coedge $-1 $307 $118 $205 $308 reversed $73 $-1 #
coedge $-1 $118 $307 $309 $310 reversed $73 $-1 #
edge $-1 $311 -7.0563684418285231 $207 -3.48694472518349 $118 $312 forward 7 unknown #
coedge $-1 $120 $119 $313 $314 reversed $47 $-1 #
coedge $-1 $315 $305 $120 $204 forward $316 $-1 #
edge $-1 $206 3.48694472518349 $317 7.0563684418285231 $203 $318 forward 7 unknown #
coedge $-1 $121 $304 $199 $308 forward $116 $-1 #
vertex $-1 $204 $319 #
vertex $-1 $308 $320 #
straight-curve $-1 0 32.925967949730889 -3.48694472518349 -1 0 0 I I #
face $-1 $-1 $321 $27 $-1 $322 reversed single #
loop $-1 $-1 $129 $123 #
plane-surface $-1 0 0 7.0563684418285231 0 0 1 1 0 0 forward_v I I I I #
coedge $-1 $323 $324 $325 $326 reversed $124 $-1 #
coedge $-1 $327 $126 $128 $219 forward $77 $-1 #
coedge $-1 $126 $327 $323 $328 forward $77 $-1 #
coedge $-1 $325 $129 $126 $216 forward $210 $-1 #
edge $-1 $222 -2.9064859156808573 $329 5.0734980307200068 $215 $330 forward 7 unknown #
coedge $-1 $331 $332 $127 $218 forward $321 $-1 #
edge $-1 $333 -69.690509984217186 $221 -64.468401963012269 $217 $334 forward 7 unknown #
edge $-1 $222 95.019679174299938 $333 101.39469588305309 $128 $335 forward 7 unknown #
coedge $-1 $129 $325 $331 $336 forward $210 $-1 #
vertex $-1 $218 $337 #
vertex $-1 $130 $338 #
straight-curve $-1 37.798707013624849 1.8229798581612826 7.0563684418285249 -1 0 0 I I #
coedge $-1 $224 $224 $-1 $339 reversed $133 $-1 #
edge $-1 $340 0 $340 6.2831853071796004 $134 $341 forward 7 unknown #
vertex $-1 $137 $342 #
ellipse-curve $-1 48.869068295811111 -2.1670121150391495 4.4453144312260653 0.81915205242281985 0 0.57357642473473569 0.57357642473473569 0 -0.81915205242281985 1 I I #
face $-1 $-1 $240 $29 $-1 $343 forward single #
loop $-1 $-1 $344 $138 #
plane-surface $-1 -50.697347941526537 0 0 1 0 0 0 0 -1 forward_v I I I I #
coedge $-1 $345 $346 $347 $348 reversed $139 $-1 #
coedge $-1 $349 $141 $143 $238 forward $86 $-1 #
coedge $-1 $141 $349 $345 $350 forward $86 $-1 #
coedge $-1 $347 $144 $141 $235 forward $240 $-1 #
edge $-1 $242 -15.279703561341865 $351 -7.8725723358326611 $234 $352 forward 7 unknown #
coedge $-1 $353 $354 $142 $237 forward $229 $-1 #
edge $-1 $355 -40.600254759124311 $241 -35.40104868688443 $236 $356 forward 7 unknown #
edge $-1 $242 -9.0645390495974638 $355 8.6223355153435888e-015 $143 $357 forward 7 unknown #
coedge $-1 $144 $347 $353 $358 forward $240 $-1 #
loop $-1 $-1 $347 $228 #
vertex $-1 $237 $359 #
vertex $-1 $145 $360 #
straight-curve $-1 -54.427478510277908 -26.855841509929128 7.0563684418285249 1 0 0 I I #
coedge $-1 $244 $244 $-1 $361 reversed $148 $-1 #
edge $-1 $362 0 $362 6.2831853071796004 $149 $363 forward 7 unknown #
vertex $-1 $152 $364 #
ellipse-curve $-1 -46.984730118478318 -24.739518302640782 4.4567654057085813 -0.57357644374324357 0 0.81915203911291934 0.40957601955645967 0 0.28678822187162178 1 I I #
coedge $-1 $248 $248 $-1 $365 reversed $155 $-1 #
edge $-1 $366 0 $366 6.2831853071796004 $156 $367 forward 7 unknown #
vertex $-1 $159 $368 #
ellipse-curve $-1 -46.984730118478318 -21.565033491708267 4.4567654057085813 -0.57357644374324357 0 0.81915203911291934 0.40957601955645967 0 0.28678822187162178 1 I I #
face $-1 $-1 $175 $24 $-1 $369 reversed single #
loop $-1 $-1 $268 $160 #
plane-surface $-1 0 32.925967949730889 0 0 -1 0 0 0 -1 forward_v I I I I #
coedge $-1 $370 $266 $269 $371 forward $161 $-1 #
coedge $-1 $272 $163 $164 $260 reversed $100 $-1 #
coedge $-1 $266 $370 $163 $258 reversed $161 $-1 #
edge $-1 $273 -7.0563684418285231 $372 7.0563684418285231 $257 $373 forward 7 unknown #
coedge $-1 $165 $164 $370 $374 forward $65 $-1 #
edge $-1 $264 -50.697347941526537 $372 50.697347941526537 $256 $375 forward 7 unknown #
coedge $-1 $269 $268 $165 $262 reversed $253 $-1 #
edge $-1 $376 -50.697347941526537 $263 50.697347941526537 $261 $377 forward 7 unknown #
vertex $-1 $167 $378 #
vertex $-1 $275 $379 #
straight-curve $-1 50.697347941526537 0 -7.0563684418285231 0 -1 0 I I #
coedge $-1 $255 $257 $168 $267 reversed $161 $-1 #
edge $-1 $270 -32.925967949730889 $273 32.925967949730889 $266 $380 forward 7 unknown #
coedge $-1 $261 $169 $174 $276 forward $253 $-1 #
coedge $-1 $169 $261 $255 $371 reversed $253 $-1 #
vertex $-1 $170 $381 #
straight-curve $-1 0 32.925967949730889 7.0563684418285231 -1 0 0 I I #
coedge $-1 $171 $256 $173 $275 reversed $100 $-1 #
vertex $-1 $267 $382 #
straight-curve $-1 0 -32.925967949730889 7.0563684418285231 1 0 0 I I #
edge $-1 $176 -7.0563684418285231 $264 7.0563684418285231 $173 $383 forward 7 unknown #
edge $-1 $177 -7.0563684418285231 $263 7.0563684418285231 $174 $384 forward 7 unknown #
point $-1 50.697347941526537 -32.925967949730889 7.0563684418285231 #
point $-1 50.697347941526537 32.925967949730889 7.0563684418285231 #
face $-1 $-1 $293 $25 $-1 $385 reversed single #
loop $-1 $-1 $386 $179 #
plane-surface $-1 0 -38.996094389532644 -5.2716565835060063 0 1 0 0 0 1 forward_v I I I I #
coedge $-1 $387 $182 $191 $297 reversed $108 $-1 #
coedge $-1 $182 $387 $183 $285 reversed $108 $-1 #
coedge $-1 $184 $183 $388 $389 forward $69 $-1 #
edge $-1 $289 32.925967949730889 $390 38.996094389532644 $283 $391 forward 7 unknown #
coedge $-1 $392 $188 $184 $287 reversed $293 $-1 #
edge $-1 $393 -38.996094389532644 $288 -32.925967949730889 $286 $394 forward 7 unknown #
vertex $-1 $189 $395 #
vertex $-1 $285 $396 #
straight-curve $-1 0 -32.925967949730889 -7.0563684418285231 1 0 0 I I #
straight-curve $-1 50.697347941526537 -32.925967949730889 0 0 0 1 I I #
coedge $-1 $188 $392 $190 $296 reversed $293 $-1 #
loop $-1 $-1 $188 $279 #
straight-curve $-1 -50.697347941526537 -32.925967949730889 0 0 0 -1 I I #
coedge $-1 $191 $190 $397 $398 forward $180 $-1 #
edge $-1 $192 -3.0350632199008771 $399 3.0350632199008771 $292 $400 forward 7 unknown #
edge $-1 $401 -3.0350632199008771 $193 3.0350632199008771 $282 $402 forward 7 unknown #
point $-1 -50.697347941526537 -32.925967949730889 -3.48694472518349 #
point $-1 50.697347941526537 -32.925967949730889 -3.48694472518349 #
face $-1 $-1 $316 $26 $-1 $403 reversed single #
loop $-1 $-1 $313 $195 #
plane-surface $-1 0 0 -7.0563684418285231 0 0 1 1 0 0 forward_v I I I I #
coedge $-1 $404 $405 $406 $407 forward $196 $-1 #
coedge $-1 $205 $198 $405 $408 forward $116 $-1 #
coedge $-1 $203 $406 $198 $306 reversed $316 $-1 #
edge $-1 $206 -3.0350632199008771 $409 3.0350632199008771 $305 $410 forward 7 unknown #
coedge $-1 $200 $199 $411 $412 forward $73 $-1 #
edge $-1 $413 -3.0350632199008771 $207 3.0350632199008771 $199 $414 forward 7 unknown #
coedge $-1 $415 $313 $200 $310 forward $301 $-1 #
edge $-1 $311 -3.0350632199008771 $416 3.0350632199008771 $200 $417 forward 7 unknown #
vertex $-1 $310 $418 #
straight-curve $-1 -50.697347941526537 32.925967949730889 0 0 0 1 I I #
coedge $-1 $309 $419 $202 $314 forward $301 $-1 #
edge $-1 $317 -50.697347941526537 $311 50.697347941526537 $313 $420 forward 7 unknown #
coedge $-1 $406 $203 $419 $421 reversed $316 $-1 #
loop $-1 $-1 $203 $300 #
vertex $-1 $204 $422 #
straight-curve $-1 50.697347941526537 32.925967949730889 0 0 0 -1 I I #
point $-1 50.697347941526537 32.925967949730889 -3.48694472518349 #
point $-1 -50.697347941526537 32.925967949730889 -3.48694472518349 #
loop $-1 $-1 $217 $209 #
plane-surface $-1 50.697347941526537 0 0 -1 0 0 0 0 1 forward_v I I I I #
coedge $-1 $324 $212 $214 $328 reversed $124 $-1 #
coedge $-1 $212 $323 $423 $424 reversed $124 $-1 #
coedge $-1 $220 $215 $212 $326 forward $210 $-1 #
edge $-1 $329 9.24208163647085 $425 12.898640927901688 $325 $426 forward 7 unknown #
coedge $-1 $214 $213 $332 $427 reversed $77 $-1 #
edge $-1 $428 -101.39469588305309 $329 -95.019679174299938 $323 $429 forward 7 unknown #
vertex $-1 $216 $430 #
straight-curve $-1 47.040788650095706 -1.0835060575195747 7.0563684418285249 0 -1 0 I I #
coedge $-1 $423 $217 $220 $336 reversed $321 $-1 #
coedge $-1 $217 $423 $327 $427 forward $321 $-1 #
vertex $-1 $218 $431 #
straight-curve $-1 50.697347941526537 1.8229798581612826 71.524770404840794 0 0 1 I I #
straight-curve $-1 -7.460259210140876 1.8229798581612826 84.891933658014182 0.57357642473473569 0 -0.81915205242281985 I I #
edge $-1 $425 -6.1570040882395816 $221 1.8229798581612826 $331 $432 forward 7 unknown #
point $-1 50.697347941526537 1.8229798581612826 7.0563684418285231 #
point $-1 47.040788650095699 1.8229798581612826 7.0563684418285249 #
edge $-1 $433 1 $433 0 $224 $-1 forward 7 unknown #
vertex $-1 $225 $434 #
ellipse-curve $-1 47.318236740525315 -2.1670121150391495 3.3594105184962046 0.81915205242281985 0 0.57357642473473569 0.57357642473473569 0 -0.81915205242281985 1 I I #
point $-1 49.442644720545843 -2.1670121150391495 3.6261623788032447 #
plane-surface $-1 0 0 7.0563684418285231 0 0 1 1 0 0 forward_v I I I I #
coedge $-1 $354 $353 $346 $435 forward $229 $-1 #
coedge $-1 $346 $231 $233 $350 reversed $139 $-1 #
coedge $-1 $231 $345 $344 $435 reversed $139 $-1 #
coedge $-1 $239 $234 $231 $348 forward $240 $-1 #
edge $-1 $351 -11.155366214847824 $436 -3.7301305687513704 $347 $437 forward 7 unknown #
coedge $-1 $233 $232 $354 $438 reversed $86 $-1 #
edge $-1 $439 -8.6223355153435888e-015 $351 9.0645390495974638 $345 $440 forward 7 unknown #
vertex $-1 $235 $441 #
straight-curve $-1 -43.272112295430084 -11.576137948587263 7.0563684418285249 0 1 0 I I #
coedge $-1 $344 $236 $239 $358 reversed $229 $-1 #
coedge $-1 $236 $344 $349 $438 forward $229 $-1 #
vertex $-1 $237 $442 #
straight-curve $-1 -50.697347941526537 -26.855841509929128 42.457417128712954 0 0 1 I I #
straight-curve $-1 -50.69734794152653 -26.855841509929128 1.8571623695886501 -0.81915203911291934 0 -0.57357644374324357 I I #
edge $-1 $436 19.448710284419924 $241 26.855841509929128 $353 $443 forward 7 unknown #
point $-1 -50.697347941526537 -26.855841509929128 7.0563684418285231 #
point $-1 -43.272112295430084 -26.855841509929128 7.0563684418285231 #
edge $-1 $444 1 $444 0 $244 $-1 forward 7 unknown #
vertex $-1 $245 $445 #
ellipse-curve $-1 -46.411153674735075 -24.739518302640782 3.6376133665956707 -0.57357644374324357 0 0.81915203911291934 0.40957601955645967 0 0.28678822187162178 1 I I #
point $-1 -46.575154098921864 -24.739518302640782 4.7435536275802122 #
edge $-1 $446 1 $446 0 $248 $-1 forward 7 unknown #
vertex $-1 $249 $447 #
ellipse-curve $-1 -46.411153674735075 -21.565033491708267 3.6376133665956707 -0.57357644374324357 0 0.81915203911291934 0.40957601955645967 0 0.28678822187162178 1 I I #
point $-1 -46.575154098921864 -21.565033491708267 4.7435536275802122 #
plane-surface $-1 50.697347941526537 0 0 -1 0 0 0 0 1 forward_v I I I I #
coedge $-1 $257 $255 $259 $374 reversed $161 $-1 #
edge $-1 $270 -7.0563684418285231 $376 7.0563684418285231 $269 $448 forward 7 unknown #
vertex $-1 $374 $449 #
straight-curve $-1 -50.697347941526537 -32.925967949730889 0 0 0 -1 I I #
edge $-1 $372 -32.925967949730889 $376 32.925967949730889 $370 $450 forward 7 unknown #
straight-curve $-1 0 -32.925967949730889 -7.0563684418285231 -1 0 0 I I #
vertex $-1 $262 $451 #
straight-curve $-1 0 32.925967949730889 -7.0563684418285231 1 0 0 I I #
point $-1 50.697347941526537 32.925967949730889 -7.0563684418285231 #
point $-1 50.697347941526537 -32.925967949730889 -7.0563684418285231 #
straight-curve $-1 -50.697347941526537 0 7.0563684418285231 0 -1 0 I I #
point $-1 -50.697347941526537 32.925967949730889 7.0563684418285231 #
point $-1 -50.697347941526537 -32.925967949730889 7.0563684418285231 #
straight-curve $-1 50.697347941526537 -32.925967949730889 0 0 0 -1 I I #
straight-curve $-1 50.697347941526537 32.925967949730889 0 0 0 -1 I I #
plane-surface $-1 -50.697347941526537 0 0 1 0 0 0 0 -1 forward_v I I I I #
coedge $-1 $388 $397 $392 $452 forward $280 $-1 #
coedge $-1 $283 $282 $453 $454 forward $108 $-1 #
coedge $-1 $453 $386 $284 $389 reversed $280 $-1 #
edge $-1 $390 -50.697347941526537 $393 50.697347941526537 $388 $455 forward 7 unknown #
vertex $-1 $454 $456 #
straight-curve $-1 50.697347941526537 0 -7.0563684418285231 0 -1 0 I I #
coedge $-1 $292 $286 $386 $452 reversed $293 $-1 #
vertex $-1 $287 $457 #
straight-curve $-1 -50.697347941526537 0 -7.0563684418285231 0 1 0 I I #
point $-1 -50.697347941526537 -32.925967949730889 -7.0563684418285231 #
point $-1 50.697347941526537 -32.925967949730889 -7.0563684418285231 #
coedge $-1 $386 $453 $295 $398 reversed $280 $-1 #
edge $-1 $399 -50.697347941526537 $401 50.697347941526537 $397 $458 forward 7 unknown #
vertex $-1 $296 $459 #
straight-curve $-1 -50.697347941526537 -35.961031169631767 -3.48694472518349 0 -1 0 I I #
vertex $-1 $297 $460 #
straight-curve $-1 50.697347941526537 -35.961031169631767 -3.48694472518349 0 1 0 I I #
plane-surface $-1 50.697347941526537 0 0 -1 0 0 0 0 1 forward_v I I I I #
coedge $-1 $411 $303 $415 $461 reversed $196 $-1 #
coedge $-1 $303 $411 $304 $408 reversed $196 $-1 #
coedge $-1 $305 $315 $303 $407 reversed $316 $-1 #
edge $-1 $409 -1.7847118583225163 $462 1.7847118583225168 $406 $463 forward 7 unknown #
edge $-1 $409 -50.697347941526537 $413 50.697347941526537 $405 $464 forward 7 unknown #
vertex $-1 $306 $465 #
straight-curve $-1 50.697347941526537 35.961031169631767 -3.48694472518349 0 1 0 I I #
coedge $-1 $405 $404 $307 $412 reversed $196 $-1 #
edge $-1 $413 -1.7847118583225163 $416 1.7847118583225168 $411 $466 forward 7 unknown #
vertex $-1 $408 $467 #
straight-curve $-1 -50.697347941526537 35.961031169631767 -3.48694472518349 0 -1 0 I I #
coedge $-1 $419 $309 $404 $461 forward $301 $-1 #
vertex $-1 $461 $468 #
straight-curve $-1 -50.697347941526537 35.961031169631767 -7.0563684418285231 0 1 0 I I #
point $-1 -50.697347941526537 32.925967949730889 -7.0563684418285231 #
coedge $-1 $313 $415 $315 $421 forward $301 $-1 #
straight-curve $-1 0 32.925967949730889 -7.0563684418285231 -1 0 0 I I #
edge $-1 $462 -38.996094389532644 $317 -32.925967949730889 $315 $469 forward 7 unknown #
point $-1 50.697347941526537 32.925967949730889 -7.0563684418285231 #
coedge $-1 $332 $331 $324 $424 forward $321 $-1 #
edge $-1 $425 64.468401963012269 $428 69.690509984217186 $423 $470 forward 7 unknown #
vertex $-1 $336 $471 #
straight-curve $-1 37.798707013624849 -6.1570040882395816 7.0563684418285249 1 0 0 I I #
edge $-1 $428 -5.0734980307200068 $333 2.9064859156808573 $332 $472 forward 7 unknown #
vertex $-1 $427 $473 #
straight-curve $-1 -7.460259210140876 -6.1570040882395816 84.891933658014182 -0.57357642473473569 0 0.81915205242281985 I I #
point $-1 47.040788650095699 -6.1570040882395816 7.0563684418285249 #
point $-1 50.697347941526537 1.8229798581612826 1.8342604206236075 #
straight-curve $-1 50.697347941526537 0 7.0563684418285231 0 1 0 I I #
vertex $-1 $339 $474 #
point $-1 47.891813165260047 -2.1670121150391495 2.5402584660733849 #
edge $-1 $436 35.40104868688443 $439 40.600254759124311 $344 $475 forward 7 unknown #
vertex $-1 $358 $476 #
straight-curve $-1 -54.427478510277908 -19.448710284419924 7.0563684418285249 -1 0 0 I I #
edge $-1 $439 7.8725723358326611 $355 15.279703561341865 $354 $477 forward 7 unknown #
vertex $-1 $438 $478 #
straight-curve $-1 -50.69734794152653 -19.448710284419924 1.8571623695886501 0.81915203911291934 0 0.57357644374324357 I I #
point $-1 -43.272112295430084 -19.448710284419924 7.0563684418285231 #
point $-1 -50.697347941526537 -26.855841509929128 1.8571623695886452 #
straight-curve $-1 -50.697347941526537 0 7.0563684418285231 0 -1 0 I I #
vertex $-1 $361 $479 #
point $-1 -46.001577655178615 -24.739518302640782 3.9244015884672923 #
vertex $-1 $365 $480 #
point $-1 -46.001577655178615 -21.565033491708267 3.9244015884672923 #
straight-curve $-1 -50.697347941526537 32.925967949730889 0 0 0 -1 I I #
point $-1 -50.697347941526537 -32.925967949730889 -7.0563684418285231 #
straight-curve $-1 -50.697347941526537 0 -7.0563684418285231 0 1 0 I I #
point $-1 -50.697347941526537 32.925967949730889 -7.0563684418285231 #
edge $-1 $399 -1.7847118583225163 $393 1.7847118583225168 $392 $481 forward 7 unknown #
coedge $-1 $397 $388 $387 $454 reversed $280 $-1 #
edge $-1 $401 -1.7847118583225163 $390 1.7847118583225168 $387 $482 forward 7 unknown #
straight-curve $-1 0 -38.996094389532644 -7.0563684418285231 -1 0 0 I I #
point $-1 50.697347941526537 -38.996094389532644 -7.0563684418285231 #
point $-1 -50.697347941526537 -38.996094389532644 -7.0563684418285231 #
straight-curve $-1 0 -38.996094389532644 -3.48694472518349 1 0 0 I I #
point $-1 -50.697347941526537 -38.996094389532644 -3.48694472518349 #
point $-1 50.697347941526537 -38.996094389532644 -3.48694472518349 #
edge $-1 $416 -50.697347941526537 $462 50.697347941526537 $404 $483 forward 7 unknown #
vertex $-1 $421 $484 #
straight-curve $-1 50.697347941526537 38.996094389532644 -5.2716565835060063 0 0 -1 I I #
straight-curve $-1 0 38.996094389532644 -3.48694472518349 -1 0 0 I I #
point $-1 50.697347941526537 38.996094389532644 -3.48694472518349 #
straight-curve $-1 -50.697347941526537 38.996094389532644 -5.2716565835060063 0 0 -1 I I #
point $-1 -50.697347941526537 38.996094389532644 -3.48694472518349 #
point $-1 -50.697347941526537 38.996094389532644 -7.0563684418285231 #
straight-curve $-1 50.697347941526537 0 -7.0563684418285231 0 -1 0 I I #
straight-curve $-1 50.697347941526537 -6.1570040882395816 71.524770404840794 0 0 -1 I I #
point $-1 50.697347941526537 -6.1570040882395816 7.0563684418285231 #
straight-curve $-1 50.697347941526544 -1.0835060575195747 1.8342604206236004 0 1 0 I I #
point $-1 50.697347941526537 -6.1570040882395816 1.8342604206236075 #
point $-1 46.499084688102492 -2.1670121150391495 2.7858340937614692 #
straight-curve $-1 -50.697347941526537 -19.448710284419924 42.457417128712954 0 0 -1 I I #
point $-1 -50.697347941526537 -19.448710284419924 7.0563684418285231 #
straight-curve $-1 -50.697347941526537 -11.576137948587263 1.8571623695886419 0 -1 0 I I #
point $-1 -50.697347941526537 -19.448710284419924 1.8571623695886452 #
point $-1 -46.124365452863458 -24.739518302640782 3.2280373470392107 #
point $-1 -46.124365452863458 -21.565033491708267 3.2280373470392107 #
straight-curve $-1 -50.697347941526537 -38.996094389532644 -5.2716565835060063 0 0 -1 I I #
straight-curve $-1 50.697347941526537 -38.996094389532644 -5.2716565835060063 0 0 -1 I I #
straight-curve $-1 0 38.996094389532644 -7.0563684418285231 1 0 0 I I #
point $-1 50.697347941526537 38.996094389532644 -7.0563684418285231 #
End-of-ACIS-data 