500 0 5 0           
7 Unknown 11 ACIS 5.0 NT 24 Thu Mar 25 23:17:14 1999 
-1 9.9999999999999995e-007 1e-010 
body $-1 $5 $-1 $6 #
body $-1 $7 $-1 $8 #
body $-1 $9 $-1 $10 #
body $-1 $11 $-1 $12 #
body $-1 $13 $-1 $14 #
lump $-1 $-1 $15 $0 #
transform $-1 1 0 0 0 1 0 0 0 1 55.476546525467697 26.009149541720017 6.3372248942895073 1 rotate no_reflect no_shear #
lump $-1 $-1 $16 $1 #
transform $-1 1 0 0 0 1 0 0 0 1 55.476546525467697 26.009149541720017 6.3372248942895073 1 rotate no_reflect no_shear #
lump $-1 $-1 $17 $2 #
transform $-1 1 0 0 0 1 0 0 0 1 55.476546525467697 26.009149541720017 6.3372248942895073 1 rotate no_reflect no_shear #
lump $-1 $-1 $18 $3 #
transform $-1 1 0 0 0 1 0 0 0 1 55.476546525467697 26.009149541720017 6.3372248942895073 1 rotate no_reflect no_shear #
lump $-1 $-1 $19 $4 #
transform $-1 1 0 0 0 1 0 0 0 1 55.476546525467697 26.009149541720017 6.3372248942895073 1 rotate no_reflect no_shear #
shell $-1 $-1 $-1 $20 $-1 $5 #
shell $-1 $-1 $-1 $21 $-1 $7 #
shell $-1 $-1 $-1 $22 $-1 $9 #
shell $-1 $-1 $-1 $23 $-1 $11 #
shell $-1 $-1 $-1 $24 $-1 $13 #
face $-1 $25 $26 $15 $-1 $27 forward single #
face $-1 $28 $29 $16 $-1 $30 reversed single #
face $-1 $31 $32 $17 $-1 $33 forward single #
face $-1 $34 $35 $18 $-1 $36 reversed single #
face $-1 $37 $38 $19 $-1 $39 reversed single #
face $-1 $40 $41 $15 $-1 $42 reversed single #
loop $-1 $-1 $43 $20 #
plane-surface $-1 0 0 6.3372248942895073 0 0 1 1 0 0 forward_v I I I I #
face $-1 $44 $45 $16 $-1 $46 reversed single #
loop $-1 $-1 $47 $21 #
plane-surface $-1 -44.634335497868648 -30.384718352410378 0 0 1 0 0 0 1 forward_v I I I I #
face $-1 $48 $49 $17 $-1 $50 forward single #
loop $-1 $-1 $51 $22 #
plane-surface $-1 -132.55104224707162 3.7172311629780523 82.697489331223011 0 1 0 -0.69465837861970381 0 0.71933979245794832 forward_v I I I I #
face $-1 $52 $53 $18 $-1 $54 reversed single #
loop $-1 $55 $56 $23 #
cone-surface $-1 -52.851583013388208 6.9815508385924367 3.7438508261449526 0.69465837861970381 0 -0.71933979245794832 0.71933979245794832 0 0.69465837861970381 1 I I 0 1 1 forward I I I I #
face $-1 $57 $58 $19 $-1 $59 reversed single #
loop $-1 $60 $61 $24 #
cone-surface $-1 -52.851583013388208 11.878030352014026 3.7438508261449526 0.69465837861970381 0 -0.71933979245794832 0.71933979245794832 0 0.69465837861970381 1 I I 0 1 1 forward I I I I #
face $-1 $62 $63 $15 $-1 $64 reversed single #
loop $-1 $-1 $65 $25 #
plane-surface $-1 0 0 -6.3372248942895073 0 0 1 1 0 0 forward_v I I I I #
coedge $-1 $66 $67 $68 $69 forward $26 $-1 #
face $-1 $70 $71 $16 $-1 $72 reversed single #
loop $-1 $-1 $73 $28 #
plane-surface $-1 -46.46657425884861 -28.196933947065197 0 1 0 0 0 0 -1 forward_v I I I I #
coedge $-1 $74 $75 $76 $77 forward $29 $-1 #
face $-1 $78 $79 $17 $-1 $80 forward single #
loop $-1 $-1 $81 $31 #
plane-surface $-1 -55.476546525467711 9.4297905953032348 2.8845144033957126 -0.69465837861970381 0 0.71933979245794832 0.71933979245794832 0 0.69465837861970381 forward_v I I I I #
coedge $-1 $82 $83 $84 $85 reversed $32 $-1 #
face $-1 $86 $87 $18 $-1 $88 forward single #
loop $-1 $89 $90 $34 #
cone-surface $-1 -51.666983460444008 6.9815508385924367 2.5171621072183186 0.69465837861970381 0 -0.71933979245794832 0.35966989622897416 0 0.3473291893098519 1 I I -0.70710678118654746 0.70710678118654746 0.5 forward I I I I #
loop $-1 $-1 $91 $23 #
coedge $-1 $56 $56 $92 $93 reversed $35 $-1 #
face $-1 $94 $95 $19 $-1 $96 reversed single #
loop $-1 $97 $98 $37 #
cone-surface $-1 -51.666983460444008 11.878030352014026 2.5171621072183186 0.69465837861970381 0 -0.71933979245794832 0.35966989622897416 0 0.3473291893098519 1 I I -0.70710678118654746 0.70710678118654746 0.5 forward I I I I #
loop $-1 $-1 $99 $24 #
coedge $-1 $61 $61 $100 $101 reversed $38 $-1 #
face $-1 $102 $103 $15 $-1 $104 reversed single #
loop $-1 $-1 $105 $40 #
plane-surface $-1 0 -26.009149541720017 0 0 1 0 0 0 1 forward_v I I I I #
coedge $-1 $106 $107 $108 $109 forward $41 $-1 #
coedge $-1 $110 $43 $111 $112 forward $26 $-1 #
coedge $-1 $43 $110 $113 $114 forward $26 $-1 #
coedge $-1 $115 $116 $43 $69 reversed $117 $-1 #
edge $-1 $118 -26.009149541720017 $119 26.009149541720017 $68 $120 forward 7 unknown #
face $-1 $121 $122 $16 $-1 $123 reversed single #
loop $-1 $-1 $124 $44 #
plane-surface $-1 -42.802096736888686 -28.196933947065197 0 -1 0 0 0 0 1 forward_v I I I I #
coedge $-1 $125 $126 $127 $128 reversed $45 $-1 #
coedge $-1 $129 $47 $130 $131 reversed $29 $-1 #
coedge $-1 $47 $129 $132 $133 reversed $29 $-1 #
coedge $-1 $126 $125 $47 $77 reversed $45 $-1 #
edge $-1 $134 -6.3372248942895073 $135 6.3372248942895073 $76 $136 forward 7 unknown #
face $-1 $137 $138 $17 $-1 $139 forward single #
loop $-1 $-1 $140 $48 #
plane-surface $-1 -132.55104224707162 15.142350027628417 82.697489331223011 0 -1 0 0.69465837861970381 0 -0.71933979245794832 forward_v I I I I #
coedge $-1 $141 $142 $143 $144 reversed $49 $-1 #
coedge $-1 $83 $51 $142 $145 forward $32 $-1 #
coedge $-1 $51 $82 $146 $147 reversed $32 $-1 #
coedge $-1 $148 $143 $51 $85 forward $138 $-1 #
edge $-1 $149 -14.3743608949584 $150 -10.798974598068114 $84 $151 forward 7 unknown #
face $-1 $152 $153 $18 $-1 $154 forward single #
loop $-1 $-1 $155 $52 #
plane-surface $-1 -132.55104224707162 3.7172311629780523 82.697489331223011 0 1 0 -0.69465837861970381 0 0.71933979245794832 forward_v I I I I #
loop $-1 $-1 $156 $34 #
coedge $-1 $90 $90 $91 $157 forward $53 $-1 #
coedge $-1 $91 $91 $90 $157 reversed $55 $-1 #
coedge $-1 $92 $92 $56 $93 forward $153 $-1 #
edge $-1 $158 0 $158 6.2831853071796004 $92 $159 forward 7 unknown #
face $-1 $160 $161 $19 $-1 $162 reversed single #
loop $-1 $163 $164 $57 #
cone-surface $-1 -52.851583013388208 6.9815508385924367 3.7438508261449526 0.69465837861970381 0 -0.71933979245794832 0.71933979245794832 0 0.69465837861970381 1 I I 0 1 1 forward I I I I #
loop $-1 $-1 $165 $37 #
coedge $-1 $98 $98 $99 $166 forward $58 $-1 #
coedge $-1 $99 $99 $98 $166 reversed $60 $-1 #
coedge $-1 $100 $100 $61 $101 forward $167 $-1 #
edge $-1 $168 0 $168 6.2831853071796004 $100 $169 forward 7 unknown #
face $-1 $170 $171 $15 $-1 $172 reversed single #
loop $-1 $-1 $173 $62 #
plane-surface $-1 -55.476546525467697 0 0 1 0 0 0 0 -1 forward_v I I I I #
coedge $-1 $174 $113 $175 $176 forward $63 $-1 #
coedge $-1 $177 $65 $174 $178 forward $41 $-1 #
coedge $-1 $65 $177 $179 $180 forward $41 $-1 #
coedge $-1 $116 $115 $65 $109 reversed $117 $-1 #
edge $-1 $181 -26.009149541720017 $182 26.009149541720017 $108 $183 forward 7 unknown #
coedge $-1 $67 $66 $184 $185 forward $26 $-1 #
coedge $-1 $186 $187 $66 $112 reversed $171 $-1 #
edge $-1 $119 -55.476546525467697 $188 55.476546525467697 $111 $189 forward 7 unknown #
coedge $-1 $105 $190 $67 $114 reversed $63 $-1 #
edge $-1 $191 -55.476546525467697 $118 55.476546525467697 $113 $192 forward 7 unknown #
coedge $-1 $108 $68 $190 $193 forward $117 $-1 #
coedge $-1 $68 $108 $186 $194 reversed $117 $-1 #
loop $-1 $-1 $115 $170 #
vertex $-1 $69 $195 #
vertex $-1 $69 $196 #
straight-curve $-1 55.476546525467697 0 6.3372248942895073 0 1 0 I I #
face $-1 $197 $198 $16 $-1 $123 reversed single #
loop $-1 $-1 $127 $70 #
plane-surface $-1 0 -26.009149541720017 0 0 1 0 0 0 1 forward_v I I I I #
coedge $-1 $199 $200 $129 $201 forward $71 $-1 #
coedge $-1 $76 $73 $202 $203 reversed $45 $-1 #
coedge $-1 $73 $76 $204 $205 reversed $45 $-1 #
coedge $-1 $206 $207 $73 $128 forward $122 $-1 #
edge $-1 $208 -6.3372248942895073 $209 6.3372248942895073 $127 $210 forward 7 unknown #
coedge $-1 $75 $74 $124 $201 reversed $29 $-1 #
coedge $-1 $202 $211 $74 $131 forward $212 $-1 #
edge $-1 $213 -1.832238760979962 $135 1.832238760979962 $74 $214 forward 7 unknown #
coedge $-1 $215 $204 $75 $133 forward $216 $-1 #
edge $-1 $134 -1.832238760979962 $217 1.832238760979962 $75 $218 forward 7 unknown #
vertex $-1 $205 $219 #
vertex $-1 $203 $220 #
straight-curve $-1 -46.46657425884861 -30.384718352410378 0 0 0 -1 I I #
face $-1 $221 $222 $17 $-1 $223 reversed single #
loop $-1 $-1 $224 $78 #
plane-surface $-1 0 0 6.3372248942895073 0 0 1 1 0 0 forward_v I I I I #
coedge $-1 $225 $226 $224 $227 reversed $79 $-1 #
coedge $-1 $228 $81 $226 $229 reversed $49 $-1 #
coedge $-1 $81 $228 $82 $145 reversed $49 $-1 #
coedge $-1 $84 $224 $81 $144 forward $138 $-1 #
edge $-1 $230 -10.4274547299768 $149 0.99766413467356507 $143 $231 forward 7 unknown #
edge $-1 $149 -4.9703719082095859 $232 -1.9785632286268914e-014 $82 $233 forward 7 unknown #
coedge $-1 $234 $235 $83 $147 forward $236 $-1 #
edge $-1 $150 35.011519771322 $232 38.464230262215779 $146 $237 forward 7 unknown #
coedge $-1 $238 $84 $235 $239 forward $138 $-1 #
vertex $-1 $144 $240 #
vertex $-1 $239 $241 #
straight-curve $-1 -66.27552112353581 3.7172311629780523 6.3372248942895055 -1 0 0 I I #
face $-1 $242 $243 $18 $-1 $244 forward single #
loop $-1 $245 $92 $86 #
plane-surface $-1 -55.476546525467711 9.4297905953032348 2.8845144033957126 -0.69465837861970381 0 0.71933979245794832 0.71933979245794832 0 0.69465837861970381 forward_v I I I I #
coedge $-1 $246 $247 $248 $249 reversed $87 $-1 #
coedge $-1 $156 $156 $-1 $250 forward $89 $-1 #
edge $-1 $251 0 $251 6.2831853071796004 $90 $252 forward 7 unknown #
vertex $-1 $93 $253 #
ellipse-curve $-1 -53.688853377022554 6.9815508385924367 4.6108696488426153 0.69465837861970381 0 -0.71933979245794832 0.71933979245794832 0 0.69465837861970381 1 I I #
face $-1 $254 $255 $19 $-1 $256 forward single #
loop $-1 $257 $258 $94 #
cone-surface $-1 -51.666983460444008 6.9815508385924367 2.5171621072183186 0.69465837861970381 0 -0.71933979245794832 0.35966989622897416 0 0.3473291893098519 1 I I -0.70710678118654746 0.70710678118654746 0.5 forward I I I I #
loop $-1 $-1 $259 $57 #
coedge $-1 $164 $164 $260 $261 reversed $95 $-1 #
coedge $-1 $165 $165 $-1 $262 forward $97 $-1 #
edge $-1 $263 0 $263 6.2831853071796004 $98 $264 forward 7 unknown #
loop $-1 $265 $100 $254 #
vertex $-1 $101 $266 #
ellipse-curve $-1 -53.688853377022554 11.878030352014026 4.6108696488426153 0.69465837861970381 0 -0.71933979245794832 0.71933979245794832 0 0.69465837861970381 1 I I #
face $-1 $-1 $117 $15 $-1 $267 reversed single #
loop $-1 $-1 $186 $102 #
plane-surface $-1 0 26.009149541720017 0 0 -1 0 0 0 -1 forward_v I I I I #
coedge $-1 $268 $184 $187 $269 forward $103 $-1 #
coedge $-1 $190 $105 $106 $178 reversed $63 $-1 #
coedge $-1 $184 $268 $105 $176 reversed $103 $-1 #
edge $-1 $191 -6.3372248942895073 $270 6.3372248942895073 $175 $271 forward 7 unknown #
coedge $-1 $107 $106 $268 $272 forward $41 $-1 #
edge $-1 $182 -55.476546525467697 $270 55.476546525467697 $174 $273 forward 7 unknown #
coedge $-1 $187 $186 $107 $180 reversed $171 $-1 #
edge $-1 $274 -55.476546525467697 $181 55.476546525467697 $179 $275 forward 7 unknown #
vertex $-1 $109 $276 #
vertex $-1 $193 $277 #
straight-curve $-1 55.476546525467697 0 -6.3372248942895073 0 -1 0 I I #
coedge $-1 $173 $175 $110 $185 reversed $103 $-1 #
edge $-1 $188 -26.009149541720017 $191 26.009149541720017 $184 $278 forward 7 unknown #
coedge $-1 $179 $111 $116 $194 forward $171 $-1 #
coedge $-1 $111 $179 $173 $269 reversed $171 $-1 #
vertex $-1 $112 $279 #
straight-curve $-1 0 26.009149541720017 6.3372248942895073 -1 0 0 I I #
coedge $-1 $113 $174 $115 $193 reversed $63 $-1 #
vertex $-1 $185 $280 #
straight-curve $-1 0 -26.009149541720017 6.3372248942895073 1 0 0 I I #
edge $-1 $118 -6.3372248942895073 $182 6.3372248942895073 $115 $281 forward 7 unknown #
edge $-1 $119 -6.3372248942895073 $181 6.3372248942895073 $116 $282 forward 7 unknown #
point $-1 55.476546525467697 -26.009149541720017 6.3372248942895073 #
point $-1 55.476546525467697 26.009149541720017 6.3372248942895073 #
face $-1 $283 $216 $16 $-1 $284 forward single #
loop $-1 $-1 $285 $121 #
coedge $-1 $286 $124 $211 $287 reversed $71 $-1 #
coedge $-1 $124 $286 $215 $288 reversed $71 $-1 #
edge $-1 $217 -6.3372248942895073 $213 6.3372248942895073 $124 $289 forward 7 unknown #
coedge $-1 $290 $130 $125 $203 forward $212 $-1 #
edge $-1 $135 -2.1877844053451803 $208 2.1877844053451803 $125 $291 forward 7 unknown #
coedge $-1 $132 $292 $126 $205 forward $216 $-1 #
edge $-1 $209 -2.1877844053451803 $134 2.1877844053451803 $126 $293 forward 7 unknown #
coedge $-1 $294 $127 $292 $295 reversed $122 $-1 #
coedge $-1 $127 $294 $290 $296 reversed $122 $-1 #
vertex $-1 $296 $297 #
vertex $-1 $205 $298 #
straight-curve $-1 -46.46657425884861 -26.009149541720017 0 0 0 1 I I #
coedge $-1 $130 $299 $199 $287 forward $212 $-1 #
loop $-1 $-1 $300 $283 #
vertex $-1 $201 $301 #
straight-curve $-1 -44.634335497868648 -30.384718352410378 -6.3372248942895073 -1 0 0 I I #
coedge $-1 $302 $132 $200 $288 forward $216 $-1 #
loop $-1 $-1 $303 $197 #
vertex $-1 $288 $304 #
straight-curve $-1 -44.634335497868648 -30.384718352410378 6.3372248942895073 1 0 0 I I #
point $-1 -46.46657425884861 -30.384718352410378 6.3372248942895073 #
point $-1 -46.46657425884861 -30.384718352410378 -6.3372248942895073 #
face $-1 $305 $306 $17 $-1 $307 reversed single #
loop $-1 $-1 $308 $137 #
plane-surface $-1 -44.634335497868648 -30.384718352410378 0 0 1 0 0 0 1 forward_v I I I I #
coedge $-1 $143 $309 $140 $227 forward $138 $-1 #
coedge $-1 $226 $140 $310 $311 reversed $79 $-1 #
coedge $-1 $140 $225 $141 $229 forward $79 $-1 #
edge $-1 $312 10.798974598068114 $230 14.3743608949584 $224 $313 forward 7 unknown #
coedge $-1 $142 $141 $234 $314 reversed $49 $-1 #
edge $-1 $315 1.9785632286268914e-014 $230 4.9703719082095859 $226 $316 forward 7 unknown #
vertex $-1 $144 $317 #
straight-curve $-1 -51.90116022857741 4.7148952976516174 6.3372248942895055 0 -1 0 I I #
vertex $-1 $314 $318 #
straight-curve $-1 -55.476546525467711 3.7172311629780523 2.8845144033957126 -0.71933979245794832 0 -0.69465837861970381 I I #
coedge $-1 $310 $146 $228 $314 forward $236 $-1 #
coedge $-1 $146 $319 $148 $239 reversed $236 $-1 #
loop $-1 $-1 $310 $320 #
straight-curve $-1 -55.476546525467697 3.7172311629780523 41.348744665611505 0 0 -1 I I #
coedge $-1 $321 $148 $322 $323 forward $138 $-1 #
edge $-1 $150 -3.7172311629780523 $324 26.009149541720017 $235 $325 forward 7 unknown #
point $-1 -51.90116022857741 3.7172311629780523 6.3372248942895073 #
point $-1 -55.476546525467697 3.7172311629780523 6.3372248942895073 #
face $-1 $326 $327 $18 $-1 $328 forward single #
loop $-1 $-1 $329 $152 #
plane-surface $-1 -132.55104224707162 15.142350027628417 82.697489331223011 0 -1 0 0.69465837861970381 0 -0.71933979245794832 forward_v I I I I #
loop $-1 $-1 $330 $86 #
coedge $-1 $247 $155 $331 $332 forward $87 $-1 #
coedge $-1 $155 $246 $333 $334 reversed $87 $-1 #
coedge $-1 $335 $336 $155 $249 forward $327 $-1 #
edge $-1 $337 -14.3743608949584 $338 -10.798974598068114 $248 $339 forward 7 unknown #
edge $-1 $340 1 $340 0 $156 $-1 forward 7 unknown #
vertex $-1 $157 $341 #
ellipse-curve $-1 -52.014312649753862 6.9815508385924367 2.8768320034472925 -0.69465837861970381 0 0.71933979245794832 0.71933979245794832 0 0.69465837861970381 1 I I #
point $-1 -52.969513584564602 6.9815508385924367 5.3055280274623158 #
face $-1 $342 $167 $19 $-1 $343 forward single #
loop $-1 $-1 $344 $160 #
plane-surface $-1 -132.55104224707162 3.7172311629780523 82.697489331223011 0 1 0 -0.69465837861970381 0 0.71933979245794832 forward_v I I I I #
loop $-1 $-1 $345 $94 #
coedge $-1 $258 $258 $259 $346 forward $161 $-1 #
coedge $-1 $259 $259 $258 $346 reversed $163 $-1 #
coedge $-1 $260 $260 $164 $261 forward $265 $-1 #
edge $-1 $347 0 $347 6.2831853071796004 $260 $348 forward 7 unknown #
edge $-1 $349 1 $349 0 $165 $-1 forward 7 unknown #
vertex $-1 $166 $350 #
ellipse-curve $-1 -52.014312649753862 11.878030352014026 2.8768320034472925 -0.69465837861970381 0 0.71933979245794832 0.71933979245794832 0 0.69465837861970381 1 I I #
loop $-1 $351 $260 $254 #
point $-1 -52.969513584564602 11.878030352014026 5.3055280274623158 #
plane-surface $-1 55.476546525467697 0 0 -1 0 0 0 0 1 forward_v I I I I #
coedge $-1 $175 $173 $177 $272 reversed $103 $-1 #
edge $-1 $188 -6.3372248942895073 $274 6.3372248942895073 $187 $352 forward 7 unknown #
vertex $-1 $272 $353 #
straight-curve $-1 -55.476546525467697 -26.009149541720017 0 0 0 -1 I I #
edge $-1 $270 -26.009149541720017 $274 26.009149541720017 $268 $354 forward 7 unknown #
straight-curve $-1 0 -26.009149541720017 -6.3372248942895073 -1 0 0 I I #
vertex $-1 $180 $355 #
straight-curve $-1 0 26.009149541720017 -6.3372248942895073 1 0 0 I I #
point $-1 55.476546525467697 26.009149541720017 -6.3372248942895073 #
point $-1 55.476546525467697 -26.009149541720017 -6.3372248942895073 #
straight-curve $-1 -55.476546525467697 0 6.3372248942895073 0 -1 0 I I #
point $-1 -55.476546525467697 26.009149541720017 6.3372248942895073 #
point $-1 -55.476546525467697 -26.009149541720017 6.3372248942895073 #
straight-curve $-1 55.476546525467697 -26.009149541720017 0 0 0 -1 I I #
straight-curve $-1 55.476546525467697 26.009149541720017 0 0 0 -1 I I #
face $-1 $356 $212 $16 $-1 $357 reversed single #
plane-surface $-1 0 0 6.3372248942895073 0 0 1 1 0 0 forward_v I I I I #
coedge $-1 $358 $359 $286 $360 forward $198 $-1 #
coedge $-1 $200 $199 $285 $360 reversed $71 $-1 #
edge $-1 $361 -2.1877844053451803 $213 2.1877844053451803 $199 $362 forward 7 unknown #
edge $-1 $217 -2.1877844053451803 $363 2.1877844053451803 $200 $364 forward 7 unknown #
straight-curve $-1 -42.802096736888686 -30.384718352410378 0 0 0 -1 I I #
coedge $-1 $365 $202 $207 $296 forward $212 $-1 #
straight-curve $-1 -46.46657425884861 -28.196933947065197 -6.3372248942895073 0 1 0 I I #
coedge $-1 $204 $366 $206 $295 forward $216 $-1 #
straight-curve $-1 -46.46657425884861 -28.196933947065197 6.3372248942895073 0 -1 0 I I #
coedge $-1 $207 $206 $367 $368 forward $122 $-1 #
edge $-1 $369 -55.476546525467697 $209 -46.46657425884861 $206 $370 forward 7 unknown #
edge $-1 $208 46.46657425884861 $371 55.476546525467697 $207 $372 forward 7 unknown #
point $-1 -46.46657425884861 -26.009149541720017 -6.3372248942895073 #
point $-1 -46.46657425884861 -26.009149541720017 6.3372248942895073 #
coedge $-1 $211 $300 $358 $373 forward $212 $-1 #
coedge $-1 $299 $374 $375 $376 forward $212 $-1 #
point $-1 -42.802096736888686 -30.384718352410378 -6.3372248942895073 #
coedge $-1 $303 $215 $359 $377 forward $216 $-1 #
coedge $-1 $378 $302 $379 $380 forward $216 $-1 #
point $-1 -42.802096736888686 -30.384718352410378 6.3372248942895073 #
face $-1 $381 $382 $17 $-1 $383 reversed single #
loop $-1 $-1 $384 $221 #
plane-surface $-1 -46.46657425884861 -28.196933947065197 0 1 0 0 0 0 -1 forward_v I I I I #
coedge $-1 $385 $386 $387 $388 forward $222 $-1 #
coedge $-1 $224 $389 $390 $391 forward $138 $-1 #
coedge $-1 $390 $234 $225 $311 forward $236 $-1 #
edge $-1 $315 -38.464230262215779 $312 -35.011519771322 $310 $392 forward 7 unknown #
vertex $-1 $311 $393 #
straight-curve $-1 -66.27552112353581 15.142350027628417 6.3372248942895055 1 0 0 I I #
edge $-1 $232 -0.99766413467356507 $315 10.4274547299768 $234 $394 forward 7 unknown #
vertex $-1 $314 $395 #
straight-curve $-1 -55.476546525467711 15.142350027628417 2.8845144033957126 0.71933979245794832 0 0.69465837861970381 I I #
point $-1 -51.90116022857741 15.142350027628417 6.3372248942895073 #
point $-1 -55.476546525467697 3.7172311629780523 2.8845144033957264 #
coedge $-1 $235 $396 $397 $398 reversed $236 $-1 #
face $-1 $399 $236 $17 $-1 $400 reversed single #
coedge $-1 $401 $238 $402 $403 forward $138 $-1 #
coedge $-1 $397 $404 $238 $323 reversed $405 $-1 #
edge $-1 $324 -55.476546525467697 $406 -46.46657425884861 $322 $407 forward 7 unknown #
vertex $-1 $239 $408 #
straight-curve $-1 -55.476546525467697 0 6.3372248942895073 0 -1 0 I I #
face $-1 $409 $410 $18 $-1 $411 reversed single #
loop $-1 $-1 $412 $242 #
plane-surface $-1 0 0 6.3372248942895073 0 0 1 1 0 0 forward_v I I I I #
coedge $-1 $413 $414 $412 $415 reversed $243 $-1 #
coedge $-1 $416 $331 $336 $417 reversed $245 $-1 #
coedge $-1 $330 $418 $246 $332 reversed $245 $-1 #
edge $-1 $337 -4.9703719082095859 $419 -1.9785632286268914e-014 $246 $420 forward 7 unknown #
coedge $-1 $421 $422 $247 $334 forward $423 $-1 #
edge $-1 $338 35.011519771322 $419 38.464230262215779 $333 $424 forward 7 unknown #
coedge $-1 $425 $248 $422 $426 forward $327 $-1 #
coedge $-1 $248 $412 $330 $417 forward $327 $-1 #
vertex $-1 $417 $427 #
vertex $-1 $426 $428 #
straight-curve $-1 -66.27552112353581 3.7172311629780523 6.3372248942895055 -1 0 0 I I #
vertex $-1 $250 $429 #
point $-1 -51.29497285729591 6.9815508385924367 3.5714903820669965 #
face $-1 $430 $431 $19 $-1 $432 forward single #
plane-surface $-1 -55.476546525467711 9.4297905953032348 2.8845144033957126 -0.69465837861970381 0 0.71933979245794832 0.71933979245794832 0 0.69465837861970381 forward_v I I I I #
coedge $-1 $433 $434 $435 $436 reversed $255 $-1 #
coedge $-1 $345 $345 $-1 $437 forward $257 $-1 #
edge $-1 $438 0 $438 6.2831853071796004 $258 $439 forward 7 unknown #
vertex $-1 $261 $440 #
ellipse-curve $-1 -53.688853377022554 6.9815508385924367 4.6108696488426153 0.69465837861970381 0 -0.71933979245794832 0.71933979245794832 0 0.69465837861970381 1 I I #
vertex $-1 $262 $441 #
point $-1 -51.29497285729591 11.878030352014026 3.5714903820669965 #
loop $-1 $-1 $442 $254 #
straight-curve $-1 -55.476546525467697 26.009149541720017 0 0 0 -1 I I #
point $-1 -55.476546525467697 -26.009149541720017 -6.3372248942895073 #
straight-curve $-1 -55.476546525467697 0 -6.3372248942895073 0 1 0 I I #
point $-1 -55.476546525467697 26.009149541720017 -6.3372248942895073 #
face $-1 $443 $444 $16 $-1 $445 reversed single #
plane-surface $-1 0 0 -6.3372248942895073 0 0 1 1 0 0 forward_v I I I I #
coedge $-1 $446 $285 $299 $373 reversed $198 $-1 #
coedge $-1 $285 $446 $302 $377 reversed $198 $-1 #
edge $-1 $363 -6.3372248942895073 $361 6.3372248942895073 $285 $447 forward 7 unknown #
vertex $-1 $287 $448 #
straight-curve $-1 -42.802096736888686 -28.196933947065197 -6.3372248942895073 0 -1 0 I I #
vertex $-1 $377 $449 #
straight-curve $-1 -42.802096736888686 -28.196933947065197 6.3372248942895073 0 1 0 I I #
coedge $-1 $374 $290 $450 $451 forward $212 $-1 #
coedge $-1 $292 $378 $452 $453 forward $216 $-1 #
coedge $-1 $452 $450 $294 $368 reversed $444 $-1 #
edge $-1 $369 -6.3372248942895073 $371 6.3372248942895073 $367 $454 forward 7 unknown #
vertex $-1 $453 $455 #
straight-curve $-1 0 -26.009149541720017 6.3372248942895073 1 0 0 I I #
vertex $-1 $451 $456 #
straight-curve $-1 0 -26.009149541720017 -6.3372248942895073 -1 0 0 I I #
edge $-1 $457 -55.476546525467697 $361 42.802096736888686 $358 $372 forward 7 unknown #
coedge $-1 $300 $365 $458 $459 forward $212 $-1 #
coedge $-1 $460 $461 $300 $376 reversed $462 $-1 #
edge $-1 $463 -26.009149541720017 $457 26.009149541720017 $375 $464 forward 7 unknown #
edge $-1 $363 -42.802096736888686 $465 55.476546525467697 $359 $370 forward 7 unknown #
coedge $-1 $366 $303 $466 $467 forward $216 $-1 #
coedge $-1 $461 $460 $303 $380 reversed $462 $-1 #
edge $-1 $465 -26.009149541720017 $468 26.009149541720017 $379 $469 forward 7 unknown #
face $-1 $470 $405 $17 $-1 $471 reversed single #
loop $-1 $-1 $472 $305 #
plane-surface $-1 -42.802096736888686 -28.196933947065197 0 -1 0 0 0 0 1 forward_v I I I I #
coedge $-1 $473 $402 $404 $474 reversed $306 $-1 #
coedge $-1 $475 $308 $476 $477 reversed $222 $-1 #
coedge $-1 $308 $475 $401 $478 reversed $222 $-1 #
coedge $-1 $402 $473 $308 $388 reversed $306 $-1 #
edge $-1 $479 -6.3372248942895073 $480 6.3372248942895073 $387 $481 forward 7 unknown #
coedge $-1 $309 $482 $483 $484 forward $138 $-1 #
coedge $-1 $485 $310 $309 $391 reversed $236 $-1 #
edge $-1 $486 -26.009149541720017 $312 -15.142350027628417 $390 $325 forward 7 unknown #
straight-curve $-1 -55.476546525467697 15.142350027628417 41.348744665611505 0 0 1 I I #
point $-1 -55.476546525467697 15.142350027628417 6.3372248942895073 #
straight-curve $-1 -55.476546525467697 4.7148952976516174 2.8845144033957295 0 1 0 I I #
point $-1 -55.476546525467697 15.142350027628417 2.8845144033957264 #
coedge $-1 $319 $485 $487 $488 reversed $236 $-1 #
coedge $-1 $489 $322 $319 $398 forward $405 $-1 #
edge $-1 $324 -6.3372248942895073 $490 6.3372248942895073 $319 $491 forward 7 unknown #
face $-1 $492 $493 $17 $-1 $494 reversed single #
plane-surface $-1 -55.476546525467697 0 0 1 0 0 0 0 -1 forward_v I I I I #
coedge $-1 $495 $321 $386 $478 forward $138 $-1 #
coedge $-1 $384 $387 $321 $403 reversed $306 $-1 #
edge $-1 $406 -2.1877844053451803 $479 2.1877844053451803 $402 $496 forward 7 unknown #
coedge $-1 $322 $489 $384 $474 forward $405 $-1 #
loop $-1 $-1 $404 $381 #
vertex $-1 $403 $497 #
straight-curve $-1 0 -26.009149541720017 6.3372248942895073 1 0 0 I I #
point $-1 -55.476546525467697 -26.009149541720017 6.3372248942895073 #
face $-1 $498 $499 $18 $-1 $500 reversed single #
loop $-1 $-1 $501 $326 #
plane-surface $-1 -44.634335497868648 -30.384718352410378 0 0 1 0 0 0 1 forward_v I I I I #
coedge $-1 $336 $502 $329 $415 forward $327 $-1 #
coedge $-1 $414 $329 $503 $504 reversed $243 $-1 #
coedge $-1 $329 $413 $416 $505 forward $243 $-1 #
edge $-1 $506 10.798974598068114 $507 14.3743608949584 $412 $508 forward 7 unknown #
coedge $-1 $418 $330 $414 $505 reversed $245 $-1 #
edge $-1 $507 -10.4274547299768 $337 0.99766413467356507 $336 $509 forward 7 unknown #
coedge $-1 $331 $416 $421 $510 reversed $245 $-1 #
vertex $-1 $510 $511 #
straight-curve $-1 -55.476546525467711 3.7172311629780523 2.8845144033957126 -0.71933979245794832 0 -0.69465837861970381 I I #
coedge $-1 $503 $333 $418 $510 forward $423 $-1 #
coedge $-1 $333 $512 $335 $426 reversed $423 $-1 #
loop $-1 $-1 $503 $513 #
straight-curve $-1 -55.476546525467697 3.7172311629780523 41.348744665611505 0 0 -1 I I #
coedge $-1 $514 $335 $515 $516 forward $327 $-1 #
edge $-1 $338 -3.7172311629780523 $517 26.009149541720017 $422 $518 forward 7 unknown #
point $-1 -51.90116022857741 3.7172311629780523 6.3372248942895073 #
point $-1 -55.476546525467697 3.7172311629780523 6.3372248942895073 #
point $-1 -51.319654271134155 6.9815508385924367 2.1574922109893446 #
face $-1 $519 $520 $19 $-1 $521 forward single #
loop $-1 $-1 $522 $342 #
plane-surface $-1 -132.55104224707162 15.142350027628417 82.697489331223011 0 -1 0 0.69465837861970381 0 -0.71933979245794832 forward_v I I I I #
coedge $-1 $434 $344 $523 $524 forward $255 $-1 #
coedge $-1 $344 $433 $525 $526 reversed $255 $-1 #
coedge $-1 $527 $528 $344 $436 forward $520 $-1 #
edge $-1 $529 -14.3743608949584 $530 -10.798974598068114 $435 $531 forward 7 unknown #
edge $-1 $532 1 $532 0 $345 $-1 forward 7 unknown #
vertex $-1 $346 $533 #
ellipse-curve $-1 -52.014312649753862 6.9815508385924367 2.8768320034472925 -0.69465837861970381 0 0.71933979245794832 0.71933979245794832 0 0.69465837861970381 1 I I #
point $-1 -52.969513584564602 6.9815508385924367 5.3055280274623158 #
point $-1 -51.319654271134155 11.878030352014026 2.1574922109893446 #
coedge $-1 $534 $523 $528 $535 reversed $351 $-1 #
face $-1 $536 $537 $16 $-1 $538 reversed single #
loop $-1 $-1 $539 $356 #
plane-surface $-1 -55.476546525467697 0 0 1 0 0 0 0 -1 forward_v I I I I #
coedge $-1 $359 $358 $461 $540 reversed $198 $-1 #
straight-curve $-1 -42.802096736888686 -26.009149541720017 0 0 0 -1 I I #
point $-1 -42.802096736888686 -26.009149541720017 -6.3372248942895073 #
point $-1 -42.802096736888686 -26.009149541720017 6.3372248942895073 #
coedge $-1 $367 $539 $365 $451 reversed $444 $-1 #
edge $-1 $371 -26.009149541720017 $541 26.009149541720017 $450 $542 forward 7 unknown #
coedge $-1 $539 $367 $366 $453 reversed $444 $-1 #
edge $-1 $543 -26.009149541720017 $369 26.009149541720017 $452 $544 forward 7 unknown #
straight-curve $-1 -55.476546525467697 -26.009149541720017 0 0 0 -1 I I #
point $-1 -55.476546525467697 -26.009149541720017 6.3372248942895073 #
point $-1 -55.476546525467697 -26.009149541720017 -6.3372248942895073 #
vertex $-1 $540 $545 #
coedge $-1 $546 $547 $374 $459 reversed $537 $-1 #
edge $-1 $541 -55.476546525467697 $463 55.476546525467697 $458 $548 forward 7 unknown #
coedge $-1 $379 $375 $547 $549 reversed $462 $-1 #
coedge $-1 $375 $379 $446 $540 forward $462 $-1 #
loop $-1 $-1 $461 $536 #
vertex $-1 $376 $550 #
straight-curve $-1 55.476546525467697 0 -6.3372248942895073 0 -1 0 I I #
vertex $-1 $380 $551 #
coedge $-1 $547 $546 $378 $467 reversed $537 $-1 #
edge $-1 $468 -55.476546525467697 $543 55.476546525467697 $466 $552 forward 7 unknown #
vertex $-1 $380 $553 #
straight-curve $-1 55.476546525467697 0 6.3372248942895073 0 1 0 I I #
face $-1 $554 $555 $17 $-1 $471 reversed single #
plane-surface $-1 0 -26.009149541720017 0 0 1 0 0 0 1 forward_v I I I I #
coedge $-1 $556 $557 $475 $558 forward $382 $-1 #
coedge $-1 $387 $384 $559 $560 reversed $306 $-1 #
edge $-1 $561 -6.3372248942895073 $406 6.3372248942895073 $404 $562 forward 7 unknown #
coedge $-1 $386 $385 $472 $558 reversed $222 $-1 #
coedge $-1 $559 $563 $385 $477 forward $564 $-1 #
edge $-1 $565 -1.832238760979962 $480 1.832238760979962 $385 $566 forward 7 unknown #
edge $-1 $479 -1.832238760979962 $567 1.832238760979962 $386 $568 forward 7 unknown #
vertex $-1 $403 $569 #
vertex $-1 $560 $570 #
straight-curve $-1 -46.46657425884861 -30.384718352410378 0 0 0 -1 I I #
coedge $-1 $389 $571 $572 $573 forward $138 $-1 #
coedge $-1 $574 $575 $389 $484 reversed $493 $-1 #
edge $-1 $576 -55.476546525467697 $486 55.476546525467697 $483 $577 forward 7 unknown #
coedge $-1 $396 $390 $575 $578 forward $236 $-1 #
vertex $-1 $484 $579 #
coedge $-1 $580 $581 $396 $488 forward $564 $-1 #
edge $-1 $490 -26.009149541720017 $582 26.009149541720017 $396 $583 forward 7 unknown #
coedge $-1 $404 $397 $581 $584 reversed $405 $-1 #
vertex $-1 $488 $585 #
straight-curve $-1 -55.476546525467697 -26.009149541720017 0 0 0 -1 I I #
face $-1 $-1 $586 $17 $-1 $587 reversed single #
loop $-1 $-1 $574 $399 #
plane-surface $-1 0 26.009149541720017 0 0 -1 0 0 0 -1 forward_v I I I I #
coedge $-1 $571 $401 $557 $588 forward $138 $-1 #
straight-curve $-1 -46.46657425884861 -28.196933947065197 6.3372248942895073 0 -1 0 I I #
point $-1 -46.46657425884861 -26.009149541720017 6.3372248942895073 #
face $-1 $589 $590 $18 $-1 $591 reversed single #
loop $-1 $-1 $592 $409 #
plane-surface $-1 -46.46657425884861 -28.196933947065197 0 1 0 0 0 0 -1 forward_v I I I I #
coedge $-1 $593 $594 $595 $596 forward $410 $-1 #
coedge $-1 $412 $597 $598 $599 forward $327 $-1 #
coedge $-1 $598 $421 $413 $504 forward $423 $-1 #
edge $-1 $600 -38.464230262215779 $506 -35.011519771322 $503 $601 forward 7 unknown #
edge $-1 $600 1.9785632286268914e-014 $507 4.9703719082095859 $414 $602 forward 7 unknown #
vertex $-1 $504 $603 #
vertex $-1 $417 $604 #
straight-curve $-1 -66.27552112353581 15.142350027628417 6.3372248942895055 1 0 0 I I #
straight-curve $-1 -51.90116022857741 4.7148952976516174 6.3372248942895055 0 -1 0 I I #
edge $-1 $419 -0.99766413467356507 $600 10.4274547299768 $421 $605 forward 7 unknown #
point $-1 -55.476546525467697 3.7172311629780523 2.8845144033957264 #
coedge $-1 $422 $606 $607 $608 reversed $423 $-1 #
face $-1 $609 $423 $18 $-1 $610 reversed single #
coedge $-1 $611 $425 $612 $613 forward $327 $-1 #
coedge $-1 $607 $614 $425 $516 reversed $615 $-1 #
edge $-1 $517 -55.476546525467697 $616 -46.46657425884861 $515 $617 forward 7 unknown #
vertex $-1 $426 $618 #
straight-curve $-1 -55.476546525467697 0 6.3372248942895073 0 -1 0 I I #
face $-1 $619 $620 $19 $-1 $621 reversed single #
loop $-1 $-1 $622 $430 #
plane-surface $-1 0 0 6.3372248942895073 0 0 1 1 0 0 forward_v I I I I #
coedge $-1 $623 $624 $622 $625 reversed $431 $-1 #
coedge $-1 $442 $626 $433 $524 reversed $351 $-1 #
edge $-1 $529 -4.9703719082095859 $627 -1.9785632286268914e-014 $433 $628 forward 7 unknown #
coedge $-1 $629 $630 $434 $526 forward $631 $-1 #
edge $-1 $530 35.011519771322 $627 38.464230262215779 $525 $632 forward 7 unknown #
coedge $-1 $633 $435 $630 $634 forward $520 $-1 #
coedge $-1 $435 $622 $442 $535 forward $520 $-1 #
vertex $-1 $535 $635 #
vertex $-1 $634 $636 #
straight-curve $-1 -66.27552112353581 3.7172311629780523 6.3372248942895055 -1 0 0 I I #
vertex $-1 $437 $637 #
point $-1 -51.29497285729591 6.9815508385924367 3.5714903820669965 #
coedge $-1 $626 $442 $624 $638 reversed $351 $-1 #
edge $-1 $639 -10.4274547299768 $529 0.99766413467356507 $528 $640 forward 7 unknown #
face $-1 $-1 $462 $16 $-1 $641 reversed single #
loop $-1 $-1 $547 $443 #
plane-surface $-1 0 26.009149541720017 0 0 -1 0 0 0 -1 forward_v I I I I #
coedge $-1 $450 $452 $546 $642 forward $444 $-1 #
edge $-1 $465 -6.3372248942895073 $457 6.3372248942895073 $461 $643 forward 7 unknown #
vertex $-1 $459 $644 #
straight-curve $-1 -55.476546525467697 0 -6.3372248942895073 0 1 0 I I #
vertex $-1 $467 $645 #
straight-curve $-1 -55.476546525467697 0 6.3372248942895073 0 -1 0 I I #
point $-1 55.476546525467697 -26.009149541720017 -6.3372248942895073 #
coedge $-1 $466 $458 $539 $642 reversed $537 $-1 #
coedge $-1 $458 $466 $460 $549 forward $537 $-1 #
straight-curve $-1 0 26.009149541720017 -6.3372248942895073 1 0 0 I I #
edge $-1 $468 -6.3372248942895073 $463 6.3372248942895073 $460 $646 forward 7 unknown #
point $-1 55.476546525467697 26.009149541720017 -6.3372248942895073 #
point $-1 55.476546525467697 -26.009149541720017 6.3372248942895073 #
straight-curve $-1 0 26.009149541720017 6.3372248942895073 -1 0 0 I I #
point $-1 55.476546525467697 26.009149541720017 6.3372248942895073 #
face $-1 $320 $564 $17 $-1 $647 reversed single #
loop $-1 $-1 $648 $470 #
coedge $-1 $649 $472 $563 $650 reversed $382 $-1 #
coedge $-1 $472 $649 $495 $588 reversed $382 $-1 #
edge $-1 $567 -6.3372248942895073 $565 6.3372248942895073 $472 $651 forward 7 unknown #
coedge $-1 $581 $476 $473 $560 forward $564 $-1 #
edge $-1 $480 -2.1877844053451803 $561 2.1877844053451803 $473 $652 forward 7 unknown #
vertex $-1 $584 $653 #
straight-curve $-1 -46.46657425884861 -26.009149541720017 0 0 0 1 I I #
coedge $-1 $476 $654 $556 $650 forward $564 $-1 #
loop $-1 $-1 $655 $554 #
vertex $-1 $558 $656 #
straight-curve $-1 -44.634335497868648 -30.384718352410378 -6.3372248942895073 -1 0 0 I I #
vertex $-1 $588 $657 #
straight-curve $-1 -44.634335497868648 -30.384718352410378 6.3372248942895073 1 0 0 I I #
point $-1 -46.46657425884861 -30.384718352410378 6.3372248942895073 #
point $-1 -46.46657425884861 -30.384718352410378 -6.3372248942895073 #
coedge $-1 $482 $495 $658 $659 forward $138 $-1 #
coedge $-1 $660 $661 $482 $573 reversed $586 $-1 #
edge $-1 $662 -26.009149541720017 $576 26.009149541720017 $572 $663 forward 7 unknown #
coedge $-1 $664 $483 $661 $665 forward $493 $-1 #
coedge $-1 $483 $664 $485 $578 reversed $493 $-1 #
vertex $-1 $573 $666 #
straight-curve $-1 0 26.009149541720017 6.3372248942895073 -1 0 0 I I #
edge $-1 $486 -6.3372248942895073 $582 6.3372248942895073 $575 $667 forward 7 unknown #
point $-1 -55.476546525467697 26.009149541720017 6.3372248942895073 #
coedge $-1 $655 $487 $664 $668 forward $564 $-1 #
coedge $-1 $487 $559 $489 $584 forward $564 $-1 #
vertex $-1 $668 $669 #
straight-curve $-1 -55.476546525467697 0 -6.3372248942895073 0 1 0 I I #
edge $-1 $561 46.46657425884861 $490 55.476546525467697 $489 $670 forward 7 unknown #
point $-1 -55.476546525467697 -26.009149541720017 -6.3372248942895073 #
loop $-1 $-1 $660 $492 #
plane-surface $-1 55.476546525467697 0 0 -1 0 0 0 0 1 forward_v I I I I #
edge $-1 $567 -2.1877844053451803 $671 2.1877844053451803 $557 $672 forward 7 unknown #
face $-1 $673 $615 $18 $-1 $674 reversed single #
loop $-1 $-1 $675 $498 #
plane-surface $-1 -42.802096736888686 -28.196933947065197 0 -1 0 0 0 0 1 forward_v I I I I #
coedge $-1 $676 $612 $614 $677 reversed $499 $-1 #
coedge $-1 $678 $501 $679 $680 reversed $410 $-1 #
coedge $-1 $501 $678 $611 $681 reversed $410 $-1 #
coedge $-1 $612 $676 $501 $596 reversed $499 $-1 #
edge $-1 $682 -6.3372248942895073 $683 6.3372248942895073 $595 $684 forward 7 unknown #
coedge $-1 $502 $685 $686 $687 forward $327 $-1 #
coedge $-1 $688 $503 $502 $599 reversed $423 $-1 #
edge $-1 $689 -26.009149541720017 $506 -15.142350027628417 $598 $518 forward 7 unknown #
vertex $-1 $510 $690 #
straight-curve $-1 -55.476546525467697 15.142350027628417 41.348744665611505 0 0 1 I I #
straight-curve $-1 -55.476546525467711 15.142350027628417 2.8845144033957126 0.71933979245794832 0 0.69465837861970381 I I #
point $-1 -55.476546525467697 15.142350027628417 6.3372248942895073 #
point $-1 -51.90116022857741 15.142350027628417 6.3372248942895073 #
straight-curve $-1 -55.476546525467697 4.7148952976516174 2.8845144033957295 0 1 0 I I #
coedge $-1 $512 $688 $691 $692 reversed $423 $-1 #
coedge $-1 $693 $515 $512 $608 forward $615 $-1 #
edge $-1 $517 -6.3372248942895073 $694 6.3372248942895073 $512 $695 forward 7 unknown #
face $-1 $696 $697 $18 $-1 $698 reversed single #
plane-surface $-1 -55.476546525467697 0 0 1 0 0 0 0 -1 forward_v I I I I #
coedge $-1 $699 $514 $594 $681 forward $327 $-1 #
coedge $-1 $592 $595 $514 $613 reversed $499 $-1 #
edge $-1 $616 -2.1877844053451803 $682 2.1877844053451803 $612 $700 forward 7 unknown #
coedge $-1 $515 $693 $592 $677 forward $615 $-1 #
loop $-1 $-1 $614 $589 #
vertex $-1 $613 $701 #
straight-curve $-1 0 -26.009149541720017 6.3372248942895073 1 0 0 I I #
point $-1 -55.476546525467697 -26.009149541720017 6.3372248942895073 #
face $-1 $702 $703 $19 $-1 $704 reversed single #
loop $-1 $-1 $705 $519 #
plane-surface $-1 -44.634335497868648 -30.384718352410378 0 0 1 0 0 0 1 forward_v I I I I #
coedge $-1 $528 $706 $522 $625 forward $520 $-1 #
coedge $-1 $624 $522 $707 $708 reversed $431 $-1 #
coedge $-1 $522 $623 $534 $638 forward $431 $-1 #
edge $-1 $709 10.798974598068114 $639 14.3743608949584 $622 $710 forward 7 unknown #
coedge $-1 $523 $534 $629 $711 reversed $351 $-1 #
vertex $-1 $711 $712 #
straight-curve $-1 -55.476546525467711 3.7172311629780523 2.8845144033957126 -0.71933979245794832 0 -0.69465837861970381 I I #
coedge $-1 $707 $525 $626 $711 forward $631 $-1 #
coedge $-1 $525 $713 $527 $634 reversed $631 $-1 #
loop $-1 $-1 $707 $714 #
straight-curve $-1 -55.476546525467697 3.7172311629780523 41.348744665611505 0 0 -1 I I #
coedge $-1 $715 $527 $716 $717 forward $520 $-1 #
edge $-1 $530 -3.7172311629780523 $718 26.009149541720017 $630 $719 forward 7 unknown #
point $-1 -51.90116022857741 3.7172311629780523 6.3372248942895073 #
point $-1 -55.476546525467697 3.7172311629780523 6.3372248942895073 #
point $-1 -51.319654271134155 6.9815508385924367 2.1574922109893446 #
edge $-1 $720 1.9785632286268914e-014 $639 4.9703719082095859 $624 $721 forward 7 unknown #
vertex $-1 $535 $722 #
straight-curve $-1 -51.90116022857741 4.7148952976516174 6.3372248942895055 0 -1 0 I I #
plane-surface $-1 55.476546525467697 0 0 -1 0 0 0 0 1 forward_v I I I I #
edge $-1 $543 -6.3372248942895073 $541 6.3372248942895073 $546 $723 forward 7 unknown #
straight-curve $-1 55.476546525467697 -26.009149541720017 0 0 0 -1 I I #
point $-1 -55.476546525467697 26.009149541720017 -6.3372248942895073 #
point $-1 -55.476546525467697 26.009149541720017 6.3372248942895073 #
straight-curve $-1 55.476546525467697 26.009149541720017 0 0 0 -1 I I #
plane-surface $-1 0 0 -6.3372248942895073 0 0 1 1 0 0 forward_v I I I I #
coedge $-1 $724 $658 $649 $725 forward $555 $-1 #
coedge $-1 $557 $556 $648 $725 reversed $382 $-1 #
edge $-1 $726 -2.1877844053451803 $565 2.1877844053451803 $556 $727 forward 7 unknown #
straight-curve $-1 -42.802096736888686 -30.384718352410378 0 0 0 -1 I I #
straight-curve $-1 -46.46657425884861 -28.196933947065197 -6.3372248942895073 0 1 0 I I #
point $-1 -46.46657425884861 -26.009149541720017 -6.3372248942895073 #
coedge $-1 $563 $655 $724 $728 forward $564 $-1 #
coedge $-1 $654 $580 $729 $730 forward $564 $-1 #
point $-1 -42.802096736888686 -30.384718352410378 -6.3372248942895073 #
point $-1 -42.802096736888686 -30.384718352410378 6.3372248942895073 #
coedge $-1 $648 $731 $571 $659 reversed $555 $-1 #
edge $-1 $671 -42.802096736888686 $662 55.476546525467697 $658 $407 forward 7 unknown #
coedge $-1 $729 $572 $731 $732 forward $586 $-1 #
coedge $-1 $572 $729 $574 $665 reversed $586 $-1 #
vertex $-1 $573 $733 #
straight-curve $-1 55.476546525467697 0 6.3372248942895073 0 1 0 I I #
coedge $-1 $575 $574 $580 $668 reversed $493 $-1 #
edge $-1 $576 -6.3372248942895073 $734 6.3372248942895073 $661 $735 forward 7 unknown #
point $-1 55.476546525467697 26.009149541720017 6.3372248942895073 #
straight-curve $-1 -55.476546525467697 26.009149541720017 0 0 0 -1 I I #
edge $-1 $582 -55.476546525467697 $734 55.476546525467697 $664 $736 forward 7 unknown #
point $-1 -55.476546525467697 26.009149541720017 -6.3372248942895073 #
straight-curve $-1 0 -26.009149541720017 -6.3372248942895073 -1 0 0 I I #
vertex $-1 $659 $737 #
straight-curve $-1 -42.802096736888686 -28.196933947065197 6.3372248942895073 0 1 0 I I #
face $-1 $738 $739 $18 $-1 $674 reversed single #
plane-surface $-1 0 -26.009149541720017 0 0 1 0 0 0 1 forward_v I I I I #
coedge $-1 $740 $741 $678 $742 forward $590 $-1 #
coedge $-1 $595 $592 $743 $744 reversed $499 $-1 #
edge $-1 $745 -6.3372248942895073 $616 6.3372248942895073 $614 $746 forward 7 unknown #
coedge $-1 $594 $593 $675 $742 reversed $410 $-1 #
coedge $-1 $743 $747 $593 $680 forward $748 $-1 #
edge $-1 $749 -1.832238760979962 $683 1.832238760979962 $593 $750 forward 7 unknown #
edge $-1 $682 -1.832238760979962 $751 1.832238760979962 $594 $752 forward 7 unknown #
vertex $-1 $613 $753 #
vertex $-1 $744 $754 #
straight-curve $-1 -46.46657425884861 -30.384718352410378 0 0 0 -1 I I #
coedge $-1 $597 $755 $756 $757 forward $327 $-1 #
coedge $-1 $758 $759 $597 $687 reversed $697 $-1 #
edge $-1 $760 -55.476546525467697 $689 55.476546525467697 $686 $761 forward 7 unknown #
coedge $-1 $606 $598 $759 $762 forward $423 $-1 #
vertex $-1 $687 $763 #
point $-1 -55.476546525467697 15.142350027628417 2.8845144033957264 #
coedge $-1 $764 $765 $606 $692 forward $748 $-1 #
edge $-1 $694 -26.009149541720017 $766 26.009149541720017 $606 $767 forward 7 unknown #
coedge $-1 $614 $607 $765 $768 reversed $615 $-1 #
vertex $-1 $692 $769 #
straight-curve $-1 -55.476546525467697 -26.009149541720017 0 0 0 -1 I I #
face $-1 $-1 $770 $18 $-1 $771 reversed single #
loop $-1 $-1 $758 $609 #
plane-surface $-1 0 26.009149541720017 0 0 -1 0 0 0 -1 forward_v I I I I #
coedge $-1 $755 $611 $741 $772 forward $327 $-1 #
straight-curve $-1 -46.46657425884861 -28.196933947065197 6.3372248942895073 0 -1 0 I I #
point $-1 -46.46657425884861 -26.009149541720017 6.3372248942895073 #
face $-1 $773 $774 $19 $-1 $775 reversed single #
loop $-1 $-1 $776 $619 #
plane-surface $-1 -46.46657425884861 -28.196933947065197 0 1 0 0 0 0 -1 forward_v I I I I #
coedge $-1 $777 $778 $779 $780 forward $620 $-1 #
coedge $-1 $622 $781 $782 $783 forward $520 $-1 #
coedge $-1 $782 $629 $623 $708 forward $631 $-1 #
edge $-1 $720 -38.464230262215779 $709 -35.011519771322 $707 $784 forward 7 unknown #
vertex $-1 $708 $785 #
straight-curve $-1 -66.27552112353581 15.142350027628417 6.3372248942895055 1 0 0 I I #
edge $-1 $627 -0.99766413467356507 $720 10.4274547299768 $629 $786 forward 7 unknown #
point $-1 -55.476546525467697 3.7172311629780523 2.8845144033957264 #
coedge $-1 $630 $787 $788 $789 reversed $631 $-1 #
face $-1 $790 $631 $19 $-1 $791 reversed single #
coedge $-1 $792 $633 $793 $794 forward $520 $-1 #
coedge $-1 $788 $795 $633 $717 reversed $796 $-1 #
edge $-1 $718 -55.476546525467697 $797 -46.46657425884861 $716 $798 forward 7 unknown #
vertex $-1 $634 $799 #
straight-curve $-1 -55.476546525467697 0 6.3372248942895073 0 -1 0 I I #
vertex $-1 $711 $800 #
straight-curve $-1 -55.476546525467711 15.142350027628417 2.8845144033957126 0.71933979245794832 0 0.69465837861970381 I I #
point $-1 -51.90116022857741 15.142350027628417 6.3372248942895073 #
straight-curve $-1 -55.476546525467697 26.009149541720017 0 0 0 -1 I I #
coedge $-1 $731 $648 $654 $728 reversed $555 $-1 #
edge $-1 $671 -6.3372248942895073 $726 6.3372248942895073 $648 $801 forward 7 unknown #
vertex $-1 $650 $802 #
straight-curve $-1 -42.802096736888686 -28.196933947065197 -6.3372248942895073 0 -1 0 I I #
edge $-1 $803 -55.476546525467697 $726 42.802096736888686 $724 $670 forward 7 unknown #
coedge $-1 $661 $660 $655 $730 reversed $586 $-1 #
edge $-1 $734 -26.009149541720017 $803 26.009149541720017 $729 $804 forward 7 unknown #
coedge $-1 $658 $724 $660 $732 reversed $555 $-1 #
edge $-1 $662 -6.3372248942895073 $803 6.3372248942895073 $660 $805 forward 7 unknown #
point $-1 55.476546525467697 -26.009149541720017 6.3372248942895073 #
vertex $-1 $730 $806 #
straight-curve $-1 55.476546525467697 26.009149541720017 0 0 0 -1 I I #
straight-curve $-1 0 26.009149541720017 -6.3372248942895073 1 0 0 I I #
point $-1 -42.802096736888686 -26.009149541720017 6.3372248942895073 #
face $-1 $513 $748 $18 $-1 $807 reversed single #
loop $-1 $-1 $808 $673 #
coedge $-1 $809 $675 $747 $810 reversed $590 $-1 #
coedge $-1 $675 $809 $699 $772 reversed $590 $-1 #
edge $-1 $751 -6.3372248942895073 $749 6.3372248942895073 $675 $811 forward 7 unknown #
coedge $-1 $765 $679 $676 $744 forward $748 $-1 #
edge $-1 $683 -2.1877844053451803 $745 2.1877844053451803 $676 $812 forward 7 unknown #
vertex $-1 $768 $813 #
straight-curve $-1 -46.46657425884861 -26.009149541720017 0 0 0 1 I I #
coedge $-1 $679 $814 $740 $810 forward $748 $-1 #
loop $-1 $-1 $815 $738 #
vertex $-1 $742 $816 #
straight-curve $-1 -44.634335497868648 -30.384718352410378 -6.3372248942895073 -1 0 0 I I #
vertex $-1 $772 $817 #
straight-curve $-1 -44.634335497868648 -30.384718352410378 6.3372248942895073 1 0 0 I I #
point $-1 -46.46657425884861 -30.384718352410378 6.3372248942895073 #
point $-1 -46.46657425884861 -30.384718352410378 -6.3372248942895073 #
coedge $-1 $685 $699 $818 $819 forward $327 $-1 #
coedge $-1 $820 $821 $685 $757 reversed $770 $-1 #
edge $-1 $822 -26.009149541720017 $760 26.009149541720017 $756 $823 forward 7 unknown #
coedge $-1 $824 $686 $821 $825 forward $697 $-1 #
coedge $-1 $686 $824 $688 $762 reversed $697 $-1 #
vertex $-1 $757 $826 #
straight-curve $-1 0 26.009149541720017 6.3372248942895073 -1 0 0 I I #
edge $-1 $689 -6.3372248942895073 $766 6.3372248942895073 $759 $827 forward 7 unknown #
point $-1 -55.476546525467697 26.009149541720017 6.3372248942895073 #
coedge $-1 $815 $691 $824 $828 forward $748 $-1 #
coedge $-1 $691 $743 $693 $768 forward $748 $-1 #
vertex $-1 $828 $829 #
straight-curve $-1 -55.476546525467697 0 -6.3372248942895073 0 1 0 I I #
edge $-1 $745 46.46657425884861 $694 55.476546525467697 $693 $830 forward 7 unknown #
point $-1 -55.476546525467697 -26.009149541720017 -6.3372248942895073 #
loop $-1 $-1 $820 $696 #
plane-surface $-1 55.476546525467697 0 0 -1 0 0 0 0 1 forward_v I I I I #
edge $-1 $751 -2.1877844053451803 $831 2.1877844053451803 $741 $832 forward 7 unknown #
face $-1 $833 $796 $19 $-1 $834 reversed single #
loop $-1 $-1 $835 $702 #
plane-surface $-1 -42.802096736888686 -28.196933947065197 0 -1 0 0 0 0 1 forward_v I I I I #
coedge $-1 $836 $793 $795 $837 reversed $703 $-1 #
coedge $-1 $838 $705 $839 $840 reversed $620 $-1 #
coedge $-1 $705 $838 $792 $841 reversed $620 $-1 #
coedge $-1 $793 $836 $705 $780 reversed $703 $-1 #
edge $-1 $842 -6.3372248942895073 $843 6.3372248942895073 $779 $844 forward 7 unknown #
coedge $-1 $706 $845 $846 $847 forward $520 $-1 #
coedge $-1 $848 $707 $706 $783 reversed $631 $-1 #
edge $-1 $849 -26.009149541720017 $709 -15.142350027628417 $782 $719 forward 7 unknown #
straight-curve $-1 -55.476546525467697 15.142350027628417 41.348744665611505 0 0 1 I I #
point $-1 -55.476546525467697 15.142350027628417 6.3372248942895073 #
straight-curve $-1 -55.476546525467697 4.7148952976516174 2.8845144033957295 0 1 0 I I #
coedge $-1 $713 $848 $850 $851 reversed $631 $-1 #
coedge $-1 $852 $716 $713 $789 forward $796 $-1 #
edge $-1 $718 -6.3372248942895073 $853 6.3372248942895073 $713 $854 forward 7 unknown #
face $-1 $855 $856 $19 $-1 $857 reversed single #
plane-surface $-1 -55.476546525467697 0 0 1 0 0 0 0 -1 forward_v I I I I #
coedge $-1 $858 $715 $778 $841 forward $520 $-1 #
coedge $-1 $776 $779 $715 $794 reversed $703 $-1 #
edge $-1 $797 -2.1877844053451803 $842 2.1877844053451803 $793 $859 forward 7 unknown #
coedge $-1 $716 $852 $776 $837 forward $796 $-1 #
loop $-1 $-1 $795 $773 #
vertex $-1 $794 $860 #
straight-curve $-1 0 -26.009149541720017 6.3372248942895073 1 0 0 I I #
point $-1 -55.476546525467697 -26.009149541720017 6.3372248942895073 #
point $-1 -55.476546525467697 15.142350027628417 2.8845144033957264 #
straight-curve $-1 -42.802096736888686 -26.009149541720017 0 0 0 -1 I I #
point $-1 -42.802096736888686 -26.009149541720017 -6.3372248942895073 #
vertex $-1 $732 $861 #
straight-curve $-1 55.476546525467697 0 -6.3372248942895073 0 -1 0 I I #
straight-curve $-1 55.476546525467697 -26.009149541720017 0 0 0 -1 I I #
point $-1 55.476546525467697 26.009149541720017 -6.3372248942895073 #
plane-surface $-1 0 0 -6.3372248942895073 0 0 1 1 0 0 forward_v I I I I #
coedge $-1 $862 $818 $809 $863 forward $739 $-1 #
coedge $-1 $741 $740 $808 $863 reversed $590 $-1 #
edge $-1 $864 -2.1877844053451803 $749 2.1877844053451803 $740 $865 forward 7 unknown #
straight-curve $-1 -42.802096736888686 -30.384718352410378 0 0 0 -1 I I #
straight-curve $-1 -46.46657425884861 -28.196933947065197 -6.3372248942895073 0 1 0 I I #
point $-1 -46.46657425884861 -26.009149541720017 -6.3372248942895073 #
coedge $-1 $747 $815 $862 $866 forward $748 $-1 #
coedge $-1 $814 $764 $867 $868 forward $748 $-1 #
point $-1 -42.802096736888686 -30.384718352410378 -6.3372248942895073 #
point $-1 -42.802096736888686 -30.384718352410378 6.3372248942895073 #
coedge $-1 $808 $869 $755 $819 reversed $739 $-1 #
edge $-1 $831 -42.802096736888686 $822 55.476546525467697 $818 $617 forward 7 unknown #
coedge $-1 $867 $756 $869 $870 forward $770 $-1 #
coedge $-1 $756 $867 $758 $825 reversed $770 $-1 #
vertex $-1 $757 $871 #
straight-curve $-1 55.476546525467697 0 6.3372248942895073 0 1 0 I I #
coedge $-1 $759 $758 $764 $828 reversed $697 $-1 #
edge $-1 $760 -6.3372248942895073 $872 6.3372248942895073 $821 $873 forward 7 unknown #
point $-1 55.476546525467697 26.009149541720017 6.3372248942895073 #
straight-curve $-1 -55.476546525467697 26.009149541720017 0 0 0 -1 I I #
edge $-1 $766 -55.476546525467697 $872 55.476546525467697 $824 $874 forward 7 unknown #
point $-1 -55.476546525467697 26.009149541720017 -6.3372248942895073 #
straight-curve $-1 0 -26.009149541720017 -6.3372248942895073 -1 0 0 I I #
vertex $-1 $819 $875 #
straight-curve $-1 -42.802096736888686 -28.196933947065197 6.3372248942895073 0 1 0 I I #
face $-1 $876 $877 $19 $-1 $834 reversed single #
plane-surface $-1 0 -26.009149541720017 0 0 1 0 0 0 1 forward_v I I I I #
coedge $-1 $878 $879 $838 $880 forward $774 $-1 #
coedge $-1 $779 $776 $881 $882 reversed $703 $-1 #
edge $-1 $883 -6.3372248942895073 $797 6.3372248942895073 $795 $884 forward 7 unknown #
coedge $-1 $778 $777 $835 $880 reversed $620 $-1 #
coedge $-1 $881 $885 $777 $840 forward $886 $-1 #
edge $-1 $887 -1.832238760979962 $843 1.832238760979962 $777 $888 forward 7 unknown #
edge $-1 $842 -1.832238760979962 $889 1.832238760979962 $778 $890 forward 7 unknown #
vertex $-1 $794 $891 #
vertex $-1 $882 $892 #
straight-curve $-1 -46.46657425884861 -30.384718352410378 0 0 0 -1 I I #
coedge $-1 $781 $893 $894 $895 forward $520 $-1 #
coedge $-1 $896 $897 $781 $847 reversed $856 $-1 #
edge $-1 $898 -55.476546525467697 $849 55.476546525467697 $846 $899 forward 7 unknown #
coedge $-1 $787 $782 $897 $900 forward $631 $-1 #
vertex $-1 $847 $901 #
coedge $-1 $902 $903 $787 $851 forward $886 $-1 #
edge $-1 $853 -26.009149541720017 $904 26.009149541720017 $787 $905 forward 7 unknown #
coedge $-1 $795 $788 $903 $906 reversed $796 $-1 #
vertex $-1 $851 $907 #
straight-curve $-1 -55.476546525467697 -26.009149541720017 0 0 0 -1 I I #
face $-1 $-1 $908 $19 $-1 $909 reversed single #
loop $-1 $-1 $896 $790 #
plane-surface $-1 0 26.009149541720017 0 0 -1 0 0 0 -1 forward_v I I I I #
coedge $-1 $893 $792 $879 $910 forward $520 $-1 #
straight-curve $-1 -46.46657425884861 -28.196933947065197 6.3372248942895073 0 -1 0 I I #
point $-1 -46.46657425884861 -26.009149541720017 6.3372248942895073 #
point $-1 55.476546525467697 -26.009149541720017 -6.3372248942895073 #
coedge $-1 $869 $808 $814 $866 reversed $739 $-1 #
edge $-1 $831 -6.3372248942895073 $864 6.3372248942895073 $808 $911 forward 7 unknown #
vertex $-1 $810 $912 #
straight-curve $-1 -42.802096736888686 -28.196933947065197 -6.3372248942895073 0 -1 0 I I #
edge $-1 $913 -55.476546525467697 $864 42.802096736888686 $862 $830 forward 7 unknown #
coedge $-1 $821 $820 $815 $868 reversed $770 $-1 #
edge $-1 $872 -26.009149541720017 $913 26.009149541720017 $867 $914 forward 7 unknown #
coedge $-1 $818 $862 $820 $870 reversed $739 $-1 #
edge $-1 $822 -6.3372248942895073 $913 6.3372248942895073 $820 $915 forward 7 unknown #
point $-1 55.476546525467697 -26.009149541720017 6.3372248942895073 #
vertex $-1 $868 $916 #
straight-curve $-1 55.476546525467697 26.009149541720017 0 0 0 -1 I I #
straight-curve $-1 0 26.009149541720017 -6.3372248942895073 1 0 0 I I #
point $-1 -42.802096736888686 -26.009149541720017 6.3372248942895073 #
face $-1 $714 $886 $19 $-1 $917 reversed single #
loop $-1 $-1 $918 $833 #
coedge $-1 $919 $835 $885 $920 reversed $774 $-1 #
coedge $-1 $835 $919 $858 $910 reversed $774 $-1 #
edge $-1 $889 -6.3372248942895073 $887 6.3372248942895073 $835 $921 forward 7 unknown #
coedge $-1 $903 $839 $836 $882 forward $886 $-1 #
edge $-1 $843 -2.1877844053451803 $883 2.1877844053451803 $836 $922 forward 7 unknown #
vertex $-1 $906 $923 #
straight-curve $-1 -46.46657425884861 -26.009149541720017 0 0 0 1 I I #
coedge $-1 $839 $924 $878 $920 forward $886 $-1 #
loop $-1 $-1 $925 $876 #
vertex $-1 $880 $926 #
straight-curve $-1 -44.634335497868648 -30.384718352410378 -6.3372248942895073 -1 0 0 I I #
vertex $-1 $910 $927 #
straight-curve $-1 -44.634335497868648 -30.384718352410378 6.3372248942895073 1 0 0 I I #
point $-1 -46.46657425884861 -30.384718352410378 6.3372248942895073 #
point $-1 -46.46657425884861 -30.384718352410378 -6.3372248942895073 #
coedge $-1 $845 $858 $928 $929 forward $520 $-1 #
coedge $-1 $930 $931 $845 $895 reversed $908 $-1 #
edge $-1 $932 -26.009149541720017 $898 26.009149541720017 $894 $933 forward 7 unknown #
coedge $-1 $934 $846 $931 $935 forward $856 $-1 #
coedge $-1 $846 $934 $848 $900 reversed $856 $-1 #
vertex $-1 $895 $936 #
straight-curve $-1 0 26.009149541720017 6.3372248942895073 -1 0 0 I I #
edge $-1 $849 -6.3372248942895073 $904 6.3372248942895073 $897 $937 forward 7 unknown #
point $-1 -55.476546525467697 26.009149541720017 6.3372248942895073 #
coedge $-1 $925 $850 $934 $938 forward $886 $-1 #
coedge $-1 $850 $881 $852 $906 forward $886 $-1 #
vertex $-1 $938 $939 #
straight-curve $-1 -55.476546525467697 0 -6.3372248942895073 0 1 0 I I #
edge $-1 $883 46.46657425884861 $853 55.476546525467697 $852 $940 forward 7 unknown #
point $-1 -55.476546525467697 -26.009149541720017 -6.3372248942895073 #
loop $-1 $-1 $930 $855 #
plane-surface $-1 55.476546525467697 0 0 -1 0 0 0 0 1 forward_v I I I I #
edge $-1 $889 -2.1877844053451803 $941 2.1877844053451803 $879 $942 forward 7 unknown #
straight-curve $-1 -42.802096736888686 -26.009149541720017 0 0 0 -1 I I #
point $-1 -42.802096736888686 -26.009149541720017 -6.3372248942895073 #
vertex $-1 $870 $943 #
straight-curve $-1 55.476546525467697 0 -6.3372248942895073 0 -1 0 I I #
straight-curve $-1 55.476546525467697 -26.009149541720017 0 0 0 -1 I I #
point $-1 55.476546525467697 26.009149541720017 -6.3372248942895073 #
plane-surface $-1 0 0 -6.3372248942895073 0 0 1 1 0 0 forward_v I I I I #
coedge $-1 $944 $928 $919 $945 forward $877 $-1 #
coedge $-1 $879 $878 $918 $945 reversed $774 $-1 #
edge $-1 $946 -2.1877844053451803 $887 2.1877844053451803 $878 $947 forward 7 unknown #
straight-curve $-1 -42.802096736888686 -30.384718352410378 0 0 0 -1 I I #
straight-curve $-1 -46.46657425884861 -28.196933947065197 -6.3372248942895073 0 1 0 I I #
point $-1 -46.46657425884861 -26.009149541720017 -6.3372248942895073 #
coedge $-1 $885 $925 $944 $948 forward $886 $-1 #
coedge $-1 $924 $902 $949 $950 forward $886 $-1 #
point $-1 -42.802096736888686 -30.384718352410378 -6.3372248942895073 #
point $-1 -42.802096736888686 -30.384718352410378 6.3372248942895073 #
coedge $-1 $918 $951 $893 $929 reversed $877 $-1 #
edge $-1 $941 -42.802096736888686 $932 55.476546525467697 $928 $798 forward 7 unknown #
coedge $-1 $949 $894 $951 $952 forward $908 $-1 #
coedge $-1 $894 $949 $896 $935 reversed $908 $-1 #
vertex $-1 $895 $953 #
straight-curve $-1 55.476546525467697 0 6.3372248942895073 0 1 0 I I #
coedge $-1 $897 $896 $902 $938 reversed $856 $-1 #
edge $-1 $898 -6.3372248942895073 $954 6.3372248942895073 $931 $955 forward 7 unknown #
point $-1 55.476546525467697 26.009149541720017 6.3372248942895073 #
straight-curve $-1 -55.476546525467697 26.009149541720017 0 0 0 -1 I I #
edge $-1 $904 -55.476546525467697 $954 55.476546525467697 $934 $956 forward 7 unknown #
point $-1 -55.476546525467697 26.009149541720017 -6.3372248942895073 #
straight-curve $-1 0 -26.009149541720017 -6.3372248942895073 -1 0 0 I I #
vertex $-1 $929 $957 #
straight-curve $-1 -42.802096736888686 -28.196933947065197 6.3372248942895073 0 1 0 I I #
point $-1 55.476546525467697 -26.009149541720017 -6.3372248942895073 #
coedge $-1 $951 $918 $924 $948 reversed $877 $-1 #
edge $-1 $941 -6.3372248942895073 $946 6.3372248942895073 $918 $958 forward 7 unknown #
vertex $-1 $920 $959 #
straight-curve $-1 -42.802096736888686 -28.196933947065197 -6.3372248942895073 0 -1 0 I I #
edge $-1 $960 -55.476546525467697 $946 42.802096736888686 $944 $940 forward 7 unknown #
coedge $-1 $931 $930 $925 $950 reversed $908 $-1 #
edge $-1 $954 -26.009149541720017 $960 26.009149541720017 $949 $961 forward 7 unknown #
coedge $-1 $928 $944 $930 $952 reversed $877 $-1 #
edge $-1 $932 -6.3372248942895073 $960 6.3372248942895073 $930 $962 forward 7 unknown #
point $-1 55.476546525467697 -26.009149541720017 6.3372248942895073 #
vertex $-1 $950 $963 #
straight-curve $-1 55.476546525467697 26.009149541720017 0 0 0 -1 I I #
straight-curve $-1 0 26.009149541720017 -6.3372248942895073 1 0 0 I I #
point $-1 -42.802096736888686 -26.009149541720017 6.3372248942895073 #
straight-curve $-1 -42.802096736888686 -26.009149541720017 0 0 0 -1 I I #
point $-1 -42.802096736888686 -26.009149541720017 -6.3372248942895073 #
vertex $-1 $952 $964 #
straight-curve $-1 55.476546525467697 0 -6.3372248942895073 0 -1 0 I I #
straight-curve $-1 55.476546525467697 -26.009149541720017 0 0 0 -1 I I #
point $-1 55.476546525467697 26.009149541720017 -6.3372248942895073 #
point $-1 55.476546525467697 -26.009149541720017 -6.3372248942895073 #
End-of-ACIS-data 