500 0 5 0           
7 Unknown 11 ACIS 5.0 NT 24 Thu Mar 25 21:30:15 1999 
-1 9.9999999999999995e-007 1e-010 
body $-1 $5 $-1 $6 #
body $-1 $7 $-1 $8 #
body $-1 $9 $-1 $10 #
body $-1 $11 $-1 $12 #
body $-1 $13 $-1 $14 #
lump $-1 $-1 $15 $0 #
transform $-1 1 0 0 0 1 0 0 0 1 50.270088808862575 29.997437039424085 6.5331189899729027 1 rotate no_reflect no_shear #
lump $-1 $-1 $16 $1 #
transform $-1 1 0 0 0 1 0 0 0 1 50.270088808862575 29.997437039424085 6.5331189899729027 1 rotate no_reflect no_shear #
lump $-1 $-1 $17 $2 #
transform $-1 1 0 0 0 1 0 0 0 1 50.270088808862575 29.997437039424085 6.5331189899729027 1 rotate no_reflect no_shear #
lump $-1 $-1 $18 $3 #
transform $-1 1 0 0 0 1 0 0 0 1 50.270088808862575 29.997437039424085 6.5331189899729027 1 rotate no_reflect no_shear #
lump $-1 $-1 $19 $4 #
transform $-1 1 0 0 0 1 0 0 0 1 50.270088808862575 29.997437039424085 6.5331189899729027 1 rotate no_reflect no_shear #
shell $-1 $-1 $-1 $20 $-1 $5 #
shell $-1 $-1 $-1 $21 $-1 $7 #
shell $-1 $-1 $-1 $22 $-1 $9 #
shell $-1 $-1 $-1 $23 $-1 $11 #
shell $-1 $-1 $-1 $24 $-1 $13 #
face $-1 $25 $26 $15 $-1 $27 forward single #
face $-1 $28 $29 $16 $-1 $30 forward single #
face $-1 $31 $32 $17 $-1 $33 reversed single #
face $-1 $34 $35 $18 $-1 $36 forward single #
face $-1 $37 $38 $19 $-1 $39 forward single #
face $-1 $40 $41 $15 $-1 $42 reversed single #
loop $-1 $-1 $43 $20 #
plane-surface $-1 0 0 6.5331189899729027 0 0 1 1 0 0 forward_v I I I I #
face $-1 $44 $45 $16 $-1 $46 reversed single #
loop $-1 $-1 $47 $21 #
plane-surface $-1 0 -29.997437039424085 0 0 1 0 0 0 1 forward_v I I I I #
face $-1 $48 $49 $17 $-1 $50 reversed single #
loop $-1 $-1 $51 $22 #
plane-surface $-1 26.433211475981672 52.687068069163871 117.89614664122844 1 0 0 0 -0.66913061440640931 -0.74314481823134659 forward_v I I I I #
face $-1 $52 $53 $18 $-1 $54 forward single #
loop $-1 $55 $56 $23 #
cone-surface $-1 30.497529822868437 27.666739768165122 4.3528564872525308 0 -0.66913061440640931 -0.74314481823134659 1 0 0 1 I I 0 1 1 forward I I I I #
face $-1 $57 $58 $19 $-1 $59 forward single #
loop $-1 $60 $61 $24 #
cone-surface $-1 36.594007343198591 27.666739768165122 4.3528564872525308 0 -0.66913061440640931 -0.74314481823134659 1 0 0 1 I I 0 1 1 forward I I I I #
face $-1 $62 $63 $15 $-1 $64 reversed single #
loop $-1 $-1 $65 $25 #
plane-surface $-1 0 0 -6.5331189899729027 0 0 1 1 0 0 forward_v I I I I #
coedge $-1 $66 $67 $68 $69 forward $26 $-1 #
face $-1 $70 $71 $16 $-1 $72 forward single #
loop $-1 $-1 $73 $28 #
plane-surface $-1 -50.270088808862575 0 0 1 0 0 0 0 -1 forward_v I I I I #
coedge $-1 $74 $75 $76 $77 forward $29 $-1 #
face $-1 $78 $79 $17 $-1 $80 reversed single #
loop $-1 $-1 $81 $31 #
plane-surface $-1 33.545768583033514 -14.587442752714082 43.180234620556789 0 0.66913061440640931 0.74314481823134659 1 0 0 forward_v I I I I #
coedge $-1 $82 $83 $84 $85 reversed $32 $-1 #
face $-1 $-1 $86 $18 $-1 $87 forward single #
loop $-1 $88 $89 $34 #
cone-surface $-1 30.497529822868437 26.943544903090633 3.5496672369319624 0 -0.66913061440640931 -0.74314481823134659 0.5 0 0 1 I I -0.70710678118654779 0.70710678118654713 0.5 forward I I I I #
loop $-1 $-1 $90 $23 #
coedge $-1 $56 $56 $91 $92 reversed $35 $-1 #
face $-1 $-1 $93 $19 $-1 $94 forward single #
loop $-1 $95 $96 $37 #
cone-surface $-1 36.594007343198591 26.943544903090633 3.5496672369319624 0 -0.66913061440640931 -0.74314481823134659 0.5 0 0 1 I I -0.70710678118654779 0.70710678118654713 0.5 forward I I I I #
loop $-1 $-1 $97 $24 #
coedge $-1 $61 $61 $98 $99 reversed $38 $-1 #
face $-1 $100 $101 $15 $-1 $102 reversed single #
loop $-1 $-1 $103 $40 #
plane-surface $-1 0 -29.997437039424085 0 0 1 0 0 0 1 forward_v I I I I #
coedge $-1 $104 $105 $106 $107 forward $41 $-1 #
coedge $-1 $108 $43 $109 $110 forward $26 $-1 #
coedge $-1 $43 $108 $111 $112 forward $26 $-1 #
coedge $-1 $113 $114 $43 $69 reversed $115 $-1 #
edge $-1 $116 -29.997437039424085 $117 29.997437039424085 $68 $118 forward 7 unknown #
face $-1 $119 $120 $16 $-1 $121 reversed single #
loop $-1 $-1 $122 $44 #
plane-surface $-1 0 -33.790693489000574 5.7177927288328485 0 0 1 1 0 0 forward_v I I I I #
coedge $-1 $123 $124 $75 $125 forward $45 $-1 #
coedge $-1 $126 $47 $127 $128 reversed $29 $-1 #
coedge $-1 $47 $126 $73 $125 reversed $29 $-1 #
coedge $-1 $129 $122 $47 $77 reversed $71 $-1 #
edge $-1 $130 -50.270088808862575 $131 50.270088808862575 $76 $132 forward 7 unknown #
face $-1 $133 $134 $17 $-1 $135 forward single #
loop $-1 $-1 $136 $48 #
plane-surface $-1 40.658325690085356 52.687068069163871 117.89614664122844 -1 0 0 0 0.66913061440640931 0.74314481823134659 forward_v I I I I #
coedge $-1 $137 $138 $139 $140 reversed $49 $-1 #
coedge $-1 $83 $51 $141 $142 reversed $32 $-1 #
coedge $-1 $51 $82 $137 $143 reversed $32 $-1 #
coedge $-1 $139 $144 $51 $85 forward $134 $-1 #
edge $-1 $145 -3.6539030048421495 $146 0.23023242193323057 $84 $147 forward 7 unknown #
loop $-1 $-1 $91 $52 #
plane-surface $-1 33.545768583033514 -14.587442752714082 43.180234620556789 0 0.66913061440640931 0.74314481823134659 1 0 0 forward_v I I I I #
loop $-1 $-1 $148 $34 #
coedge $-1 $89 $89 $90 $149 reversed $53 $-1 #
coedge $-1 $90 $90 $89 $149 forward $55 $-1 #
coedge $-1 $91 $91 $56 $92 forward $86 $-1 #
edge $-1 $150 -1.2570195663206093e-015 $150 6.2831853071795996 $91 $151 forward 7 unknown #
loop $-1 $-1 $98 $57 #
plane-surface $-1 33.545768583033514 -14.587442752714082 43.180234620556789 0 0.66913061440640931 0.74314481823134659 1 0 0 forward_v I I I I #
loop $-1 $-1 $152 $37 #
coedge $-1 $96 $96 $97 $153 reversed $58 $-1 #
coedge $-1 $97 $97 $96 $153 forward $60 $-1 #
coedge $-1 $98 $98 $61 $99 forward $93 $-1 #
edge $-1 $154 -1.2570195663206093e-015 $154 6.2831853071795996 $98 $155 forward 7 unknown #
face $-1 $156 $157 $15 $-1 $158 reversed single #
loop $-1 $-1 $159 $62 #
plane-surface $-1 -50.270088808862575 0 0 1 0 0 0 0 -1 forward_v I I I I #
coedge $-1 $160 $111 $161 $162 forward $63 $-1 #
coedge $-1 $163 $65 $160 $164 forward $41 $-1 #
coedge $-1 $65 $163 $165 $166 forward $41 $-1 #
coedge $-1 $114 $113 $65 $107 reversed $115 $-1 #
edge $-1 $167 -29.997437039424085 $168 29.997437039424085 $106 $169 forward 7 unknown #
coedge $-1 $67 $66 $170 $171 forward $26 $-1 #
coedge $-1 $172 $173 $66 $110 reversed $157 $-1 #
edge $-1 $117 -50.270088808862575 $174 50.270088808862575 $109 $175 forward 7 unknown #
coedge $-1 $103 $176 $67 $112 reversed $63 $-1 #
edge $-1 $177 -50.270088808862575 $116 50.270088808862575 $111 $178 forward 7 unknown #
coedge $-1 $106 $68 $176 $179 forward $115 $-1 #
coedge $-1 $68 $106 $172 $180 reversed $115 $-1 #
loop $-1 $-1 $113 $156 #
vertex $-1 $69 $181 #
vertex $-1 $69 $182 #
straight-curve $-1 50.270088808862575 0 6.5331189899729027 0 1 0 I I #
face $-1 $183 $184 $16 $-1 $185 reversed single #
loop $-1 $-1 $186 $70 #
plane-surface $-1 0 -33.790693489000574 2.7177927288328485 0 0 1 1 0 0 forward_v I I I I #
coedge $-1 $76 $187 $188 $189 forward $71 $-1 #
coedge $-1 $190 $73 $191 $192 reversed $45 $-1 #
coedge $-1 $73 $190 $129 $193 reversed $45 $-1 #
edge $-1 $130 -5.7177927288328485 $194 -2.7177927288328485 $73 $195 forward 7 unknown #
coedge $-1 $75 $74 $196 $197 forward $29 $-1 #
coedge $-1 $188 $198 $74 $128 forward $199 $-1 #
edge $-1 $200 2.7177927288328485 $131 5.7177927288328485 $127 $201 forward 7 unknown #
coedge $-1 $187 $76 $124 $193 forward $71 $-1 #
vertex $-1 $125 $202 #
vertex $-1 $189 $203 #
straight-curve $-1 0 -29.997437039424085 5.7177927288328485 1 0 0 I I #
face $-1 $-1 $204 $17 $-1 $205 reversed single #
loop $-1 $-1 $84 $78 #
plane-surface $-1 0 0 6.5331189899729027 0 0 1 1 0 0 forward_v I I I I #
coedge $-1 $206 $207 $208 $209 reversed $79 $-1 #
coedge $-1 $210 $81 $83 $143 forward $49 $-1 #
coedge $-1 $81 $210 $206 $211 forward $49 $-1 #
coedge $-1 $208 $84 $81 $140 forward $134 $-1 #
edge $-1 $146 9.660327184464915 $212 23.885441398568599 $139 $213 forward 7 unknown #
coedge $-1 $214 $215 $82 $142 forward $204 $-1 #
edge $-1 $216 -55.912245653672279 $145 -52.414954330641315 $141 $217 forward 7 unknown #
edge $-1 $146 54.768254271393353 $216 59.994874078848191 $83 $218 forward 7 unknown #
coedge $-1 $84 $208 $214 $219 forward $134 $-1 #
vertex $-1 $142 $220 #
vertex $-1 $85 $221 #
straight-curve $-1 26.433211475981672 26.343534034581936 6.5331189899729054 0 -1 0 I I #
coedge $-1 $148 $148 $-1 $222 reversed $88 $-1 #
edge $-1 $223 0 $223 6.2831853071796004 $89 $224 forward 7 unknown #
vertex $-1 $92 $225 #
ellipse-curve $-1 30.497529822868437 28.055369326036399 4.7844733284574152 0 0.66913061440640931 0.74314481823134659 1 0 0 1 I I #
coedge $-1 $152 $152 $-1 $226 reversed $95 $-1 #
edge $-1 $227 0 $227 6.2831853071796004 $96 $228 forward 7 unknown #
vertex $-1 $99 $229 #
ellipse-curve $-1 36.594007343198591 28.055369326036399 4.7844733284574152 0 0.66913061440640931 0.74314481823134659 1 0 0 1 I I #
face $-1 $-1 $115 $15 $-1 $230 reversed single #
loop $-1 $-1 $172 $100 #
plane-surface $-1 0 29.997437039424085 0 0 -1 0 0 0 -1 forward_v I I I I #
coedge $-1 $231 $170 $173 $232 forward $101 $-1 #
coedge $-1 $176 $103 $104 $164 reversed $63 $-1 #
coedge $-1 $170 $231 $103 $162 reversed $101 $-1 #
edge $-1 $177 -6.5331189899729027 $233 6.5331189899729027 $161 $234 forward 7 unknown #
coedge $-1 $105 $104 $231 $235 forward $41 $-1 #
edge $-1 $168 -50.270088808862575 $233 50.270088808862575 $160 $236 forward 7 unknown #
coedge $-1 $173 $172 $105 $166 reversed $157 $-1 #
edge $-1 $237 -50.270088808862575 $167 50.270088808862575 $165 $238 forward 7 unknown #
vertex $-1 $107 $239 #
vertex $-1 $179 $240 #
straight-curve $-1 50.270088808862575 0 -6.5331189899729027 0 -1 0 I I #
coedge $-1 $159 $161 $108 $171 reversed $101 $-1 #
edge $-1 $174 -29.997437039424085 $177 29.997437039424085 $170 $241 forward 7 unknown #
coedge $-1 $165 $109 $114 $180 forward $157 $-1 #
coedge $-1 $109 $165 $159 $232 reversed $157 $-1 #
vertex $-1 $110 $242 #
straight-curve $-1 0 29.997437039424085 6.5331189899729027 -1 0 0 I I #
coedge $-1 $111 $160 $113 $179 reversed $63 $-1 #
vertex $-1 $171 $243 #
straight-curve $-1 0 -29.997437039424085 6.5331189899729027 1 0 0 I I #
edge $-1 $116 -6.5331189899729027 $168 6.5331189899729027 $113 $244 forward 7 unknown #
edge $-1 $117 -6.5331189899729027 $167 6.5331189899729027 $114 $245 forward 7 unknown #
point $-1 50.270088808862575 -29.997437039424085 6.5331189899729027 #
point $-1 50.270088808862575 29.997437039424085 6.5331189899729027 #
face $-1 $-1 $199 $16 $-1 $246 reversed single #
loop $-1 $-1 $247 $119 #
plane-surface $-1 0 -37.583949938577064 4.2177927288328485 0 1 0 0 0 1 forward_v I I I I #
coedge $-1 $248 $196 $198 $249 forward $120 $-1 #
coedge $-1 $122 $129 $250 $251 forward $71 $-1 #
coedge $-1 $252 $127 $122 $189 reversed $199 $-1 #
edge $-1 $253 -3.7932564495764893 $131 3.7932564495764893 $188 $254 forward 7 unknown #
coedge $-1 $124 $123 $247 $255 reversed $45 $-1 #
coedge $-1 $196 $248 $123 $192 forward $120 $-1 #
edge $-1 $256 -3.7932564495764893 $194 3.7932564495764893 $123 $257 forward 7 unknown #
edge $-1 $130 -3.7932564495764893 $258 3.7932564495764893 $124 $259 forward 7 unknown #
vertex $-1 $125 $260 #
straight-curve $-1 -50.270088808862575 -29.997437039424085 0 0 0 -1 I I #
coedge $-1 $186 $191 $126 $197 reversed $120 $-1 #
edge $-1 $200 -50.270088808862575 $194 50.270088808862575 $196 $261 forward 7 unknown #
coedge $-1 $127 $252 $186 $249 reversed $199 $-1 #
loop $-1 $-1 $127 $183 #
vertex $-1 $128 $262 #
straight-curve $-1 50.270088808862575 -29.997437039424085 0 0 0 1 I I #
point $-1 -50.270088808862575 -29.997437039424085 5.7177927288328485 #
point $-1 50.270088808862575 -29.997437039424085 5.7177927288328485 #
loop $-1 $-1 $141 $133 #
plane-surface $-1 0 29.997437039424085 0 0 -1 0 0 0 -1 forward_v I I I I #
coedge $-1 $207 $136 $138 $211 reversed $79 $-1 #
coedge $-1 $136 $206 $263 $264 reversed $79 $-1 #
coedge $-1 $144 $139 $136 $209 forward $134 $-1 #
edge $-1 $212 -0.23023242193323057 $265 3.6539030048421495 $208 $266 forward 7 unknown #
coedge $-1 $138 $137 $215 $267 reversed $49 $-1 #
edge $-1 $268 -59.994874078848191 $212 -54.768254271393353 $206 $269 forward 7 unknown #
vertex $-1 $140 $270 #
straight-curve $-1 16.772884291516757 26.113301612648712 6.5331189899728983 1 0 0 I I #
coedge $-1 $263 $141 $144 $219 reversed $204 $-1 #
coedge $-1 $141 $263 $210 $267 forward $204 $-1 #
vertex $-1 $142 $271 #
straight-curve $-1 26.433211475981672 29.997437039424085 58.94807332061422 0 0 1 I I #
straight-curve $-1 26.433211475981672 -14.587442752714082 43.180234620556789 0 0.74314481823134659 -0.66913061440640931 I I #
edge $-1 $265 -40.658325690085356 $145 -26.433211475981672 $214 $272 forward 7 unknown #
point $-1 26.433211475981672 29.997437039424085 6.5331189899729027 #
point $-1 26.433211475981672 26.113301612648705 6.5331189899729054 #
edge $-1 $273 1 $273 0 $148 $-1 forward 7 unknown #
vertex $-1 $149 $274 #
ellipse-curve $-1 30.497529822868437 27.278110210293836 3.9212396460476353 0 0.66913061440640931 0.74314481823134659 1 0 0 1 I I #
point $-1 31.497529822868437 28.055369326036406 4.784473328457425 #
edge $-1 $275 1 $275 0 $152 $-1 forward 7 unknown #
vertex $-1 $153 $276 #
ellipse-curve $-1 36.594007343198591 27.278110210293836 3.9212396460476353 0 0.66913061440640931 0.74314481823134659 1 0 0 1 I I #
point $-1 37.594007343198591 28.055369326036406 4.784473328457425 #
plane-surface $-1 50.270088808862575 0 0 -1 0 0 0 0 1 forward_v I I I I #
coedge $-1 $161 $159 $163 $235 reversed $101 $-1 #
edge $-1 $174 -6.5331189899729027 $237 6.5331189899729027 $173 $277 forward 7 unknown #
vertex $-1 $235 $278 #
straight-curve $-1 -50.270088808862575 -29.997437039424085 0 0 0 -1 I I #
edge $-1 $233 -29.997437039424085 $237 29.997437039424085 $231 $279 forward 7 unknown #
straight-curve $-1 0 -29.997437039424085 -6.5331189899729027 -1 0 0 I I #
vertex $-1 $166 $280 #
straight-curve $-1 0 29.997437039424085 -6.5331189899729027 1 0 0 I I #
point $-1 50.270088808862575 29.997437039424085 -6.5331189899729027 #
point $-1 50.270088808862575 -29.997437039424085 -6.5331189899729027 #
straight-curve $-1 -50.270088808862575 0 6.5331189899729027 0 -1 0 I I #
point $-1 -50.270088808862575 29.997437039424085 6.5331189899729027 #
point $-1 -50.270088808862575 -29.997437039424085 6.5331189899729027 #
straight-curve $-1 50.270088808862575 -29.997437039424085 0 0 0 -1 I I #
straight-curve $-1 50.270088808862575 29.997437039424085 0 0 0 -1 I I #
plane-surface $-1 50.270088808862575 0 0 -1 0 0 0 0 1 forward_v I I I I #
coedge $-1 $281 $250 $190 $255 forward $184 $-1 #
coedge $-1 $191 $186 $281 $282 forward $120 $-1 #
edge $-1 $200 -3.7932564495764893 $283 3.7932564495764893 $198 $284 forward 7 unknown #
coedge $-1 $247 $285 $187 $251 reversed $184 $-1 #
edge $-1 $258 -50.270088808862575 $253 50.270088808862575 $250 $286 forward 7 unknown #
coedge $-1 $198 $188 $285 $287 forward $199 $-1 #
vertex $-1 $189 $288 #
straight-curve $-1 50.270088808862575 -33.790693489000574 5.7177927288328485 0 1 0 I I #
edge $-1 $258 -1.5 $256 1.5 $190 $289 forward 7 unknown #
vertex $-1 $192 $290 #
straight-curve $-1 -50.270088808862575 -33.790693489000574 2.7177927288328485 0 1 0 I I #
vertex $-1 $193 $291 #
straight-curve $-1 -50.270088808862575 -33.790693489000574 5.7177927288328485 0 -1 0 I I #
point $-1 -50.270088808862575 -29.997437039424085 2.7177927288328485 #
straight-curve $-1 0 -29.997437039424085 2.7177927288328485 -1 0 0 I I #
point $-1 50.270088808862575 -29.997437039424085 2.7177927288328485 #
coedge $-1 $215 $214 $207 $264 forward $204 $-1 #
edge $-1 $265 52.414954330641315 $268 55.912245653672279 $263 $292 forward 7 unknown #
vertex $-1 $219 $293 #
straight-curve $-1 40.658325690085356 26.343534034581936 6.5331189899729054 0 1 0 I I #
edge $-1 $268 -23.885441398568599 $216 -9.660327184464915 $215 $294 forward 7 unknown #
vertex $-1 $267 $295 #
straight-curve $-1 40.658325690085356 -14.587442752714082 43.180234620556789 0 -0.74314481823134659 0.66913061440640931 I I #
point $-1 40.658325690085356 26.113301612648705 6.5331189899729054 #
point $-1 26.433211475981672 29.997437039424085 3.0358276669419411 #
straight-curve $-1 0 29.997437039424085 6.5331189899729027 -1 0 0 I I #
vertex $-1 $222 $296 #
point $-1 31.497529822868437 27.278110210293836 3.9212396460476353 #
vertex $-1 $226 $297 #
point $-1 37.594007343198591 27.278110210293836 3.9212396460476353 #
straight-curve $-1 -50.270088808862575 29.997437039424085 0 0 0 -1 I I #
point $-1 -50.270088808862575 -29.997437039424085 -6.5331189899729027 #
straight-curve $-1 -50.270088808862575 0 -6.5331189899729027 0 1 0 I I #
point $-1 -50.270088808862575 29.997437039424085 -6.5331189899729027 #
coedge $-1 $285 $247 $248 $282 reversed $184 $-1 #
edge $-1 $283 -50.270088808862575 $256 50.270088808862575 $281 $298 forward 7 unknown #
vertex $-1 $287 $299 #
straight-curve $-1 50.270088808862575 -33.790693489000574 2.7177927288328485 0 -1 0 I I #
coedge $-1 $250 $281 $252 $287 reversed $184 $-1 #
straight-curve $-1 0 -37.583949938577064 5.7177927288328485 1 0 0 I I #
edge $-1 $253 -1.5 $283 1.5 $252 $300 forward 7 unknown #
point $-1 50.270088808862575 -37.583949938577064 5.7177927288328485 #
straight-curve $-1 -50.270088808862575 -37.583949938577064 4.2177927288328485 0 0 -1 I I #
point $-1 -50.270088808862575 -37.583949938577064 2.7177927288328485 #
point $-1 -50.270088808862575 -37.583949938577064 5.7177927288328485 #
straight-curve $-1 40.658325690085356 29.997437039424085 58.94807332061422 0 0 -1 I I #
point $-1 40.658325690085356 29.997437039424085 6.5331189899729027 #
straight-curve $-1 16.772884291516757 29.997437039424081 3.0358276669419411 -1 0 0 I I #
point $-1 40.658325690085356 29.997437039424085 3.0358276669419411 #
point $-1 30.497529822868437 26.60897959588743 3.1780948278162895 #
point $-1 36.594007343198591 26.60897959588743 3.1780948278162895 #
straight-curve $-1 0 -37.583949938577064 2.7177927288328485 -1 0 0 I I #
point $-1 50.270088808862575 -37.583949938577064 2.7177927288328485 #
straight-curve $-1 50.270088808862575 -37.583949938577064 4.2177927288328485 0 0 -1 I I #
End-of-ACIS-data 