500 0 9 0           
7 Unknown 11 ACIS 5.0 NT 24 Thu Mar 25 16:27:28 1999 
-1 9.9999999999999995e-007 1e-010 
body $-1 $9 $-1 $10 #
body $-1 $11 $-1 $12 #
body $-1 $13 $-1 $14 #
body $-1 $15 $-1 $16 #
body $-1 $17 $-1 $18 #
body $-1 $19 $-1 $20 #
body $-1 $21 $-1 $22 #
body $-1 $23 $-1 $24 #
body $-1 $25 $-1 $26 #
lump $-1 $-1 $27 $0 #
transform $-1 1 0 0 0 1 0 0 0 1 72.897732474745936 45.155125164545758 13.58691491583979 1 rotate no_reflect no_shear #
lump $-1 $-1 $28 $1 #
transform $-1 1 0 0 0 1 0 0 0 1 72.897732474745936 45.155125164545758 13.58691491583979 1 rotate no_reflect no_shear #
lump $-1 $-1 $29 $2 #
transform $-1 1 0 0 0 1 0 0 0 1 72.897732474745936 45.155125164545758 13.58691491583979 1 rotate no_reflect no_shear #
lump $-1 $-1 $30 $3 #
transform $-1 1 0 0 0 1 0 0 0 1 72.897732474745936 45.155125164545758 13.58691491583979 1 rotate no_reflect no_shear #
lump $-1 $-1 $31 $4 #
transform $-1 1 0 0 0 1 0 0 0 1 72.897732474745936 45.155125164545758 13.58691491583979 1 rotate no_reflect no_shear #
lump $-1 $-1 $32 $5 #
transform $-1 1 0 0 0 1 0 0 0 1 72.897732474745936 45.155125164545758 13.58691491583979 1 rotate no_reflect no_shear #
lump $-1 $-1 $33 $6 #
transform $-1 1 0 0 0 1 0 0 0 1 72.897732474745936 45.155125164545758 13.58691491583979 1 rotate no_reflect no_shear #
lump $-1 $-1 $34 $7 #
transform $-1 1 0 0 0 1 0 0 0 1 72.897732474745936 45.155125164545758 13.58691491583979 1 rotate no_reflect no_shear #
lump $-1 $-1 $35 $8 #
transform $-1 1 0 0 0 1 0 0 0 1 72.897732474745936 45.155125164545758 13.58691491583979 1 rotate no_reflect no_shear #
shell $-1 $-1 $-1 $36 $-1 $9 #
shell $-1 $-1 $-1 $37 $-1 $11 #
shell $-1 $-1 $-1 $38 $-1 $13 #
shell $-1 $-1 $-1 $39 $-1 $15 #
shell $-1 $-1 $-1 $40 $-1 $17 #
shell $-1 $-1 $-1 $41 $-1 $19 #
shell $-1 $-1 $-1 $42 $-1 $21 #
shell $-1 $-1 $-1 $43 $-1 $23 #
shell $-1 $-1 $-1 $44 $-1 $25 #
face $-1 $45 $46 $27 $-1 $47 forward single #
face $-1 $48 $49 $28 $-1 $50 reversed single #
face $-1 $51 $52 $29 $-1 $53 reversed single #
face $-1 $54 $55 $30 $-1 $56 forward single #
face $-1 $57 $58 $31 $-1 $59 reversed single #
face $-1 $60 $61 $32 $-1 $62 forward single #
face $-1 $63 $64 $33 $-1 $65 reversed single #
face $-1 $66 $67 $34 $-1 $68 forward single #
face $-1 $69 $70 $35 $-1 $71 forward single #
face $-1 $72 $73 $27 $-1 $74 reversed single #
loop $-1 $-1 $75 $36 #
plane-surface $-1 0 0 13.58691491583979 0 0 1 1 0 0 forward_v I I I I #
face $-1 $76 $77 $28 $-1 $78 reversed single #
loop $-1 $-1 $79 $37 #
plane-surface $-1 0 -36.673252926282537 5.8723071699613367 0 0 1 1 0 0 forward_v I I I I #
face $-1 $80 $81 $29 $-1 $82 reversed single #
loop $-1 $-1 $83 $38 #
plane-surface $-1 -158.59415771800758 -15.216439107668855 123.68048472628031 0 1 0 -0.5877852598018023 0 0.80901698891910034 forward_v I I I I #
face $-1 $84 $85 $30 $-1 $86 forward single #
loop $-1 $87 $88 $39 #
cone-surface $-1 -67.008912618578805 -6.1538915061996562 8.995602807758635 0.5877852598018023 0 -0.80901698891910034 1.2135254833786506 0 0.88167788970270344 1 I I 0 1 1.5 forward I I I I #
face $-1 $89 $90 $31 $-1 $91 reversed single #
loop $-1 $-1 $92 $40 #
plane-surface $-1 -158.59415771800758 14.055088381256894 123.68048472628031 0 1 0 -0.5877852598018023 0 0.80901698891910034 forward_v I I I I #
face $-1 $93 $94 $32 $-1 $95 forward single #
loop $-1 $96 $97 $41 #
cone-surface $-1 -67.008912618578805 23.117635982726092 8.995602807758635 0.5877852598018023 0 -0.80901698891910034 1.2135254833786506 0 0.88167788970270344 1 I I 0 1 1.5 forward I I I I #
face $-1 $98 $99 $33 $-1 $100 reversed single #
loop $-1 $-1 $101 $42 #
plane-surface $-1 119.27947644319045 -12.924643609060317 203.23964329845737 0 -1 0 -0.84804810408105047 0 -0.52991925155115449 forward_v I I I I #
face $-1 $102 $103 $34 $-1 $104 forward single #
loop $-1 $105 $106 $43 #
cone-surface $-1 67.8297433631665 -23.829455808316748 6.9918384066978732 -0.84804810408105047 0 -0.52991925155115449 1.059838503102309 0 -1.6960962081621009 1 I I 0 1 2 forward I I I I #
face $-1 $107 $108 $35 $-1 $109 forward single #
loop $-1 $110 $111 $44 #
cone-surface $-1 67.8297433631665 -17.286568488762889 6.9918384066978732 -0.84804810408105047 0 -0.52991925155115449 1.059838503102309 0 -1.6960962081621009 1 I I 0 1 2 forward I I I I #
face $-1 $112 $113 $27 $-1 $114 reversed single #
loop $-1 $-1 $115 $45 #
plane-surface $-1 0 0 -13.58691491583979 0 0 1 1 0 0 forward_v I I I I #
coedge $-1 $116 $117 $118 $119 forward $46 $-1 #
face $-1 $120 $121 $28 $-1 $122 reversed single #
loop $-1 $-1 $123 $48 #
plane-surface $-1 0 -28.191380688019315 9.7296110429005633 0 -1 0 0 0 -1 forward_v I I I I #
coedge $-1 $124 $125 $126 $127 reversed $49 $-1 #
face $-1 $128 $129 $29 $-1 $130 reversed single #
loop $-1 $-1 $131 $51 #
plane-surface $-1 -72.897732474745936 -6.1538915061996562 5.7294766747821626 -0.5877852598018023 0 0.80901698891910034 0.80901698891910034 0 0.5877852598018023 forward_v I I I I #
coedge $-1 $132 $133 $134 $135 reversed $52 $-1 #
face $-1 $-1 $136 $30 $-1 $137 forward single #
loop $-1 $138 $139 $54 #
cone-surface $-1 -66.086671680115856 -6.1538915061996562 7.7262470785169715 0.5877852598018023 0 -0.80901698891910034 0.60676274168932531 0 0.44083894485135172 1 I I -0.70710678118654757 0.70710678118654757 0.75 forward I I I I #
loop $-1 $-1 $140 $39 #
coedge $-1 $88 $88 $141 $142 reversed $55 $-1 #
face $-1 $143 $144 $31 $-1 $145 reversed single #
loop $-1 $-1 $146 $57 #
plane-surface $-1 -72.897732474745936 23.117635982726092 5.7294766747821626 -0.5877852598018023 0 0.80901698891910034 0.80901698891910034 0 0.5877852598018023 forward_v I I I I #
coedge $-1 $147 $148 $149 $150 reversed $58 $-1 #
face $-1 $-1 $151 $32 $-1 $152 forward single #
loop $-1 $153 $154 $60 #
cone-surface $-1 -66.086671680115856 23.117635982726092 7.7262470785169715 0.5877852598018023 0 -0.80901698891910034 0.60676274168932531 0 0.44083894485135172 1 I I -0.70710678118654757 0.70710678118654757 0.75 forward I I I I #
loop $-1 $-1 $155 $41 #
coedge $-1 $97 $97 $156 $157 reversed $61 $-1 #
face $-1 $158 $159 $33 $-1 $160 forward single #
loop $-1 $-1 $161 $63 #
plane-surface $-1 -4.3620911908413831 -20.558012148539817 125.97981963287006 0.84804810408105047 0 0.52991925155115449 0.52991925155115449 0 -0.84804810408105047 forward_v I I I I #
coedge $-1 $162 $163 $164 $165 reversed $64 $-1 #
face $-1 $-1 $166 $34 $-1 $167 forward single #
loop $-1 $168 $169 $66 #
cone-surface $-1 65.428178383952996 -23.829455808316748 5.4911741045055837 -0.84804810408105047 0 -0.52991925155115449 0.52991925155115449 0 -0.84804810408105047 1 I I -0.70710678118654746 0.70710678118654746 1 forward I I I I #
loop $-1 $-1 $170 $43 #
coedge $-1 $106 $106 $171 $172 reversed $67 $-1 #
face $-1 $-1 $173 $35 $-1 $174 forward single #
loop $-1 $175 $176 $69 #
cone-surface $-1 65.428178383952996 -17.286568488762889 5.4911741045055837 -0.84804810408105047 0 -0.52991925155115449 0.52991925155115449 0 -0.84804810408105047 1 I I -0.70710678118654746 0.70710678118654746 1 forward I I I I #
loop $-1 $-1 $177 $44 #
coedge $-1 $111 $111 $178 $179 reversed $70 $-1 #
face $-1 $180 $181 $27 $-1 $182 reversed single #
loop $-1 $-1 $183 $72 #
plane-surface $-1 0 -45.155125164545758 0 0 1 0 0 0 1 forward_v I I I I #
coedge $-1 $184 $185 $186 $187 forward $73 $-1 #
coedge $-1 $188 $75 $189 $190 forward $46 $-1 #
coedge $-1 $75 $188 $191 $192 forward $46 $-1 #
coedge $-1 $193 $194 $75 $119 reversed $195 $-1 #
edge $-1 $196 -45.155125164545758 $197 45.155125164545758 $118 $198 forward 7 unknown #
face $-1 $199 $200 $28 $-1 $201 reversed single #
loop $-1 $-1 $202 $76 #
plane-surface $-1 -72.897732474745936 0 0 1 0 0 0 0 -1 forward_v I I I I #
coedge $-1 $203 $204 $205 $206 reversed $77 $-1 #
coedge $-1 $207 $79 $208 $209 reversed $49 $-1 #
coedge $-1 $79 $207 $203 $210 forward $49 $-1 #
coedge $-1 $205 $211 $79 $127 forward $212 $-1 #
edge $-1 $213 -26.81849870140449 $214 -9.8547542248780466 $126 $215 forward 7 unknown #
face $-1 $216 $217 $29 $-1 $218 forward single #
loop $-1 $-1 $219 $80 #
plane-surface $-1 -158.59415771800758 2.9086560952695422 123.68048472628031 0 -1 0 0.5877852598018023 0 -0.80901698891910034 forward_v I I I I #
coedge $-1 $220 $221 $222 $223 reversed $81 $-1 #
coedge $-1 $133 $83 $224 $225 reversed $52 $-1 #
coedge $-1 $83 $132 $220 $226 reversed $52 $-1 #
coedge $-1 $222 $227 $83 $135 forward $217 $-1 #
edge $-1 $228 6.3993463842578535 $229 17.214182109368942 $134 $230 forward 7 unknown #
loop $-1 $-1 $141 $84 #
plane-surface $-1 -72.897732474745936 -6.1538915061996562 5.7294766747821626 -0.5877852598018023 0 0.80901698891910034 0.80901698891910034 0 0.5877852598018023 forward_v I I I I #
loop $-1 $-1 $231 $54 #
coedge $-1 $139 $139 $140 $232 reversed $85 $-1 #
coedge $-1 $140 $140 $139 $232 forward $87 $-1 #
coedge $-1 $141 $141 $88 $142 forward $136 $-1 #
edge $-1 $233 0 $233 6.2831853071796004 $141 $234 forward 7 unknown #
face $-1 $235 $236 $31 $-1 $237 forward single #
loop $-1 $-1 $238 $89 #
plane-surface $-1 -158.59415771800758 32.180183584195291 123.68048472628031 0 -1 0 0.5877852598018023 0 -0.80901698891910034 forward_v I I I I #
coedge $-1 $239 $240 $241 $242 reversed $90 $-1 #
coedge $-1 $148 $92 $243 $244 reversed $58 $-1 #
coedge $-1 $92 $147 $239 $245 reversed $58 $-1 #
coedge $-1 $241 $246 $92 $150 forward $236 $-1 #
edge $-1 $247 6.3993463842578535 $248 17.214182109368942 $149 $249 forward 7 unknown #
loop $-1 $-1 $156 $93 #
plane-surface $-1 -72.897732474745936 23.117635982726092 5.7294766747821626 -0.5877852598018023 0 0.80901698891910034 0.80901698891910034 0 0.5877852598018023 forward_v I I I I #
loop $-1 $-1 $250 $60 #
coedge $-1 $154 $154 $155 $251 reversed $94 $-1 #
coedge $-1 $155 $155 $154 $251 forward $96 $-1 #
coedge $-1 $156 $156 $97 $157 forward $151 $-1 #
edge $-1 $252 0 $252 6.2831853071796004 $156 $253 forward 7 unknown #
face $-1 $254 $255 $33 $-1 $256 forward single #
loop $-1 $-1 $257 $98 #
plane-surface $-1 0 -28.191380688019315 9.7296110429005633 0 -1 0 0 0 -1 forward_v I I I I #
coedge $-1 $258 $259 $260 $261 reversed $99 $-1 #
coedge $-1 $163 $101 $262 $263 reversed $64 $-1 #
coedge $-1 $101 $162 $258 $264 reversed $64 $-1 #
coedge $-1 $260 $265 $101 $165 forward $255 $-1 #
edge $-1 $266 -13.257994253150713 $267 -6.2290497802567586 $164 $268 forward 7 unknown #
loop $-1 $-1 $171 $102 #
plane-surface $-1 -4.3620911908413831 -20.558012148539817 125.97981963287006 0.84804810408105047 0 0.52991925155115449 0.52991925155115449 0 -0.84804810408105047 forward_v I I I I #
loop $-1 $-1 $269 $66 #
coedge $-1 $169 $169 $170 $270 reversed $103 $-1 #
coedge $-1 $170 $170 $169 $270 forward $105 $-1 #
coedge $-1 $171 $171 $106 $172 forward $166 $-1 #
edge $-1 $271 0 $271 6.2831853071796004 $171 $272 forward 7 unknown #
loop $-1 $-1 $178 $107 #
plane-surface $-1 -4.3620911908413831 -20.558012148539817 125.97981963287006 0.84804810408105047 0 0.52991925155115449 0.52991925155115449 0 -0.84804810408105047 forward_v I I I I #
loop $-1 $-1 $273 $69 #
coedge $-1 $176 $176 $177 $274 reversed $108 $-1 #
coedge $-1 $177 $177 $176 $274 forward $110 $-1 #
coedge $-1 $178 $178 $111 $179 forward $173 $-1 #
edge $-1 $275 0 $275 6.2831853071796004 $178 $276 forward 7 unknown #
face $-1 $277 $278 $27 $-1 $279 reversed single #
loop $-1 $-1 $280 $112 #
plane-surface $-1 -72.897732474745936 0 0 1 0 0 0 0 -1 forward_v I I I I #
coedge $-1 $281 $191 $282 $283 forward $113 $-1 #
coedge $-1 $284 $115 $281 $285 forward $73 $-1 #
coedge $-1 $115 $284 $286 $287 forward $73 $-1 #
coedge $-1 $194 $193 $115 $187 reversed $195 $-1 #
edge $-1 $288 -45.155125164545758 $289 45.155125164545758 $186 $290 forward 7 unknown #
coedge $-1 $117 $116 $291 $292 forward $46 $-1 #
coedge $-1 $293 $294 $116 $190 reversed $278 $-1 #
edge $-1 $197 -72.897732474745936 $295 72.897732474745936 $189 $296 forward 7 unknown #
coedge $-1 $183 $297 $117 $192 reversed $113 $-1 #
edge $-1 $298 -72.897732474745936 $196 72.897732474745936 $191 $299 forward 7 unknown #
coedge $-1 $186 $118 $297 $300 forward $195 $-1 #
coedge $-1 $118 $186 $293 $301 reversed $195 $-1 #
loop $-1 $-1 $193 $277 #
vertex $-1 $119 $302 #
vertex $-1 $119 $303 #
straight-curve $-1 72.897732474745936 0 13.58691491583979 0 1 0 I I #
face $-1 $304 $305 $28 $-1 $306 forward single #
loop $-1 $-1 $208 $120 #
plane-surface $-1 0 -45.155125164545758 0 0 1 0 0 0 1 forward_v I I I I #
coedge $-1 $307 $308 $309 $310 forward $121 $-1 #
coedge $-1 $309 $123 $125 $210 reversed $77 $-1 #
coedge $-1 $123 $309 $311 $312 reversed $77 $-1 #
coedge $-1 $313 $126 $123 $206 forward $212 $-1 #
edge $-1 $214 1.0075016485110551 $314 8.7221093943895092 $205 $315 forward 7 unknown #
coedge $-1 $125 $124 $307 $316 reversed $49 $-1 #
coedge $-1 $317 $318 $124 $209 forward $200 $-1 #
edge $-1 $319 -72.897732474745936 $213 72.897732474745936 $208 $320 forward 7 unknown #
edge $-1 $321 -72.897732474745936 $214 72.897732474745936 $203 $322 forward 7 unknown #
coedge $-1 $126 $313 $317 $323 forward $212 $-1 #
loop $-1 $-1 $205 $304 #
vertex $-1 $209 $324 #
vertex $-1 $127 $325 #
straight-curve $-1 72.897732474745936 -18.336626463141268 5.8723071699613367 0 1 0 I I #
face $-1 $-1 $326 $29 $-1 $327 reversed single #
loop $-1 $-1 $134 $128 #
plane-surface $-1 0 0 13.58691491583979 0 0 1 1 0 0 forward_v I I I I #
coedge $-1 $328 $329 $330 $331 reversed $129 $-1 #
coedge $-1 $332 $131 $133 $226 forward $81 $-1 #
coedge $-1 $131 $332 $328 $333 forward $81 $-1 #
coedge $-1 $330 $134 $131 $223 forward $217 $-1 #
edge $-1 $229 -12.139493354569026 $334 5.9856018483693703 $222 $335 forward 7 unknown #
coedge $-1 $336 $337 $132 $225 forward $326 $-1 #
edge $-1 $338 -56.110765688357993 $228 -48.253327447300364 $224 $339 forward 7 unknown #
edge $-1 $229 -13.367872211880762 $338 0 $133 $340 forward 7 unknown #
coedge $-1 $134 $330 $336 $341 forward $217 $-1 #
vertex $-1 $225 $342 #
vertex $-1 $135 $343 #
straight-curve $-1 -79.29707885900379 -15.216439107668855 13.586914915839792 1 0 0 I I #
coedge $-1 $231 $231 $-1 $344 reversed $138 $-1 #
edge $-1 $345 0 $345 6.2831853071796004 $139 $346 forward 7 unknown #
vertex $-1 $142 $347 #
ellipse-curve $-1 -67.490314612190403 -6.1538915061996562 9.6581957953109718 -0.5877852598018023 0 0.80901698891910034 1.2135254833786506 0 0.88167788970270344 1 I I #
face $-1 $-1 $348 $31 $-1 $349 reversed single #
loop $-1 $-1 $149 $143 #
plane-surface $-1 0 0 13.58691491583979 0 0 1 1 0 0 forward_v I I I I #
coedge $-1 $350 $351 $352 $353 reversed $144 $-1 #
coedge $-1 $354 $146 $148 $245 forward $90 $-1 #
coedge $-1 $146 $354 $350 $355 forward $90 $-1 #
coedge $-1 $352 $149 $146 $242 forward $236 $-1 #
edge $-1 $248 2.4962703898938479 $356 20.621365592832245 $241 $357 forward 7 unknown #
coedge $-1 $358 $359 $147 $244 forward $348 $-1 #
edge $-1 $360 -56.110765688357993 $247 -48.253327447300364 $243 $361 forward 7 unknown #
edge $-1 $248 -13.367872211880762 $360 0 $148 $362 forward 7 unknown #
coedge $-1 $149 $352 $358 $363 forward $236 $-1 #
vertex $-1 $150 $364 #
vertex $-1 $150 $365 #
straight-curve $-1 -79.29707885900379 14.055088381256894 13.586914915839792 1 0 0 I I #
coedge $-1 $250 $250 $-1 $366 reversed $153 $-1 #
edge $-1 $367 0 $367 6.2831853071796004 $154 $368 forward 7 unknown #
vertex $-1 $157 $369 #
ellipse-curve $-1 -67.490314612190403 23.117635982726092 9.6581957953109718 -0.5877852598018023 0 0.80901698891910034 1.2135254833786506 0 0.88167788970270344 1 I I #
face $-1 $-1 $370 $33 $-1 $371 reversed single #
loop $-1 $-1 $260 $158 #
plane-surface $-1 0 0 13.58691491583979 0 0 1 1 0 0 forward_v I I I I #
coedge $-1 $372 $373 $259 $374 reversed $159 $-1 #
coedge $-1 $375 $161 $163 $264 forward $99 $-1 #
coedge $-1 $161 $375 $257 $374 forward $99 $-1 #
coedge $-1 $376 $164 $161 $261 forward $255 $-1 #
edge $-1 $267 2.6456375347904082 $377 17.912374613749407 $260 $378 forward 7 unknown #
coedge $-1 $379 $380 $162 $263 forward $370 $-1 #
edge $-1 $381 -99.28156965039048 $266 -88.032906733388899 $262 $382 forward 7 unknown #
edge $-1 $267 132.53128469501127 $381 145.7954649494919 $163 $383 forward 7 unknown #
coedge $-1 $164 $376 $379 $384 forward $255 $-1 #
vertex $-1 $263 $385 #
vertex $-1 $165 $386 #
straight-curve $-1 59.639738221595223 -12.924643609060317 13.586914915839785 -1 0 0 I I #
coedge $-1 $269 $269 $-1 $387 reversed $168 $-1 #
edge $-1 $388 0 $388 6.2831853071796004 $169 $389 forward 7 unknown #
vertex $-1 $172 $390 #
ellipse-curve $-1 69.383260238298959 -23.829455808316748 7.9625834573390097 0.84804810408105047 0 0.52991925155115449 1.059838503102309 0 -1.6960962081621009 1 I I #
coedge $-1 $273 $273 $-1 $391 reversed $175 $-1 #
edge $-1 $392 0 $392 6.2831853071796004 $176 $393 forward 7 unknown #
vertex $-1 $179 $394 #
ellipse-curve $-1 69.383260238298959 -17.286568488762889 7.9625834573390097 0.84804810408105047 0 0.52991925155115449 1.059838503102309 0 -1.6960962081621009 1 I I #
face $-1 $-1 $195 $27 $-1 $395 reversed single #
loop $-1 $-1 $293 $180 #
plane-surface $-1 0 45.155125164545758 0 0 -1 0 0 0 -1 forward_v I I I I #
coedge $-1 $396 $291 $294 $397 forward $181 $-1 #
coedge $-1 $297 $183 $184 $285 reversed $113 $-1 #
coedge $-1 $291 $396 $183 $283 reversed $181 $-1 #
edge $-1 $298 -13.58691491583979 $398 13.58691491583979 $282 $399 forward 7 unknown #
coedge $-1 $185 $184 $396 $400 forward $73 $-1 #
edge $-1 $289 -72.897732474745936 $398 72.897732474745936 $281 $401 forward 7 unknown #
coedge $-1 $294 $293 $185 $287 reversed $278 $-1 #
edge $-1 $402 -72.897732474745936 $288 72.897732474745936 $286 $403 forward 7 unknown #
vertex $-1 $187 $404 #
vertex $-1 $300 $405 #
straight-curve $-1 72.897732474745936 0 -13.58691491583979 0 -1 0 I I #
coedge $-1 $280 $282 $188 $292 reversed $181 $-1 #
edge $-1 $295 -45.155125164545758 $298 45.155125164545758 $291 $406 forward 7 unknown #
coedge $-1 $286 $189 $194 $301 forward $278 $-1 #
coedge $-1 $189 $286 $280 $397 reversed $278 $-1 #
vertex $-1 $190 $407 #
straight-curve $-1 0 45.155125164545758 13.58691491583979 -1 0 0 I I #
coedge $-1 $191 $281 $193 $300 reversed $113 $-1 #
vertex $-1 $292 $408 #
straight-curve $-1 0 -45.155125164545758 13.58691491583979 1 0 0 I I #
edge $-1 $196 -13.58691491583979 $289 13.58691491583979 $193 $409 forward 7 unknown #
edge $-1 $197 -13.58691491583979 $288 13.58691491583979 $194 $410 forward 7 unknown #
point $-1 72.897732474745936 -45.155125164545758 13.58691491583979 #
point $-1 72.897732474745936 45.155125164545758 13.58691491583979 #
face $-1 $-1 $212 $28 $-1 $411 reversed single #
loop $-1 $-1 $311 $199 #
plane-surface $-1 0 0 13.58691491583979 0 0 1 1 0 0 forward_v I I I I #
coedge $-1 $412 $202 $207 $316 forward $121 $-1 #
coedge $-1 $202 $412 $413 $414 reversed $121 $-1 #
coedge $-1 $204 $203 $202 $310 reversed $77 $-1 #
edge $-1 $415 -8.7221093943895092 $321 -1.0075016485110551 $202 $416 forward 7 unknown #
coedge $-1 $413 $417 $204 $312 forward $305 $-1 #
edge $-1 $314 -72.897732474745936 $415 72.897732474745936 $311 $418 forward 7 unknown #
coedge $-1 $211 $205 $417 $419 reversed $212 $-1 #
vertex $-1 $206 $420 #
straight-curve $-1 72.897732474745936 -28.191380688019315 4.8648055214502817 0 0 1 I I #
edge $-1 $321 9.8547542248780466 $319 26.81849870140449 $307 $421 forward 7 unknown #
coedge $-1 $422 $208 $211 $323 reversed $200 $-1 #
coedge $-1 $208 $422 $412 $423 forward $200 $-1 #
vertex $-1 $209 $424 #
straight-curve $-1 0 -45.155125164545758 5.8723071699613367 1 0 0 I I #
vertex $-1 $316 $425 #
straight-curve $-1 0 -28.191380688019315 5.8723071699613367 1 0 0 I I #
edge $-1 $426 -13.58691491583979 $213 -5.8723071699613367 $211 $427 forward 7 unknown #
point $-1 72.897732474745936 -45.155125164545758 5.8723071699613367 #
point $-1 72.897732474745936 -28.191380688019315 5.8723071699613367 #
loop $-1 $-1 $224 $216 #
plane-surface $-1 -72.897732474745936 0 0 1 0 0 0 0 -1 forward_v I I I I #
coedge $-1 $329 $219 $221 $333 reversed $129 $-1 #
coedge $-1 $219 $328 $428 $429 reversed $129 $-1 #
coedge $-1 $227 $222 $219 $331 forward $217 $-1 #
edge $-1 $334 -17.214182109368942 $430 -6.3993463842578535 $330 $431 forward 7 unknown #
coedge $-1 $221 $220 $337 $432 reversed $81 $-1 #
edge $-1 $433 0 $334 13.367872211880762 $328 $434 forward 7 unknown #
vertex $-1 $223 $435 #
straight-curve $-1 -62.082896749634848 -3.0769457530998281 13.58691491583979 0 1 0 I I #
coedge $-1 $428 $224 $227 $341 reversed $326 $-1 #
coedge $-1 $224 $428 $332 $432 forward $326 $-1 #
vertex $-1 $225 $436 #
straight-curve $-1 -72.897732474745936 -15.216439107668855 61.840242363140156 0 0 1 I I #
straight-curve $-1 -72.897732474745936 -15.216439107668855 5.7294766747821626 -0.80901698891910034 0 -0.5877852598018023 I I #
edge $-1 $430 -2.9086560952695422 $228 15.216439107668855 $336 $437 forward 7 unknown #
point $-1 -72.897732474745936 -15.216439107668855 13.58691491583979 #
point $-1 -62.082896749634848 -15.216439107668855 13.58691491583979 #
edge $-1 $438 1 $438 0 $231 $-1 forward 7 unknown #
vertex $-1 $232 $439 #
ellipse-curve $-1 -66.527510624967206 -6.1538915061996562 8.3330098202062963 -0.5877852598018023 0 0.80901698891910034 1.2135254833786506 0 0.88167788970270344 1 I I #
point $-1 -66.276789128811743 -6.1538915061996562 10.539873685013676 #
loop $-1 $-1 $243 $235 #
plane-surface $-1 -72.897732474745936 0 0 1 0 0 0 0 -1 forward_v I I I I #
coedge $-1 $351 $238 $240 $355 reversed $144 $-1 #
coedge $-1 $238 $350 $440 $441 reversed $144 $-1 #
coedge $-1 $246 $241 $238 $353 forward $236 $-1 #
edge $-1 $356 -17.214182109368942 $442 -6.3993463842578535 $352 $443 forward 7 unknown #
coedge $-1 $240 $239 $359 $444 reversed $90 $-1 #
edge $-1 $445 0 $356 13.367872211880762 $350 $446 forward 7 unknown #
vertex $-1 $242 $447 #
straight-curve $-1 -62.082896749634848 11.558817991363046 13.58691491583979 0 1 0 I I #
coedge $-1 $440 $243 $246 $363 reversed $348 $-1 #
coedge $-1 $243 $440 $354 $444 forward $348 $-1 #
vertex $-1 $244 $448 #
straight-curve $-1 -72.897732474745936 14.055088381256894 61.840242363140156 0 0 1 I I #
straight-curve $-1 -72.897732474745936 14.055088381256894 5.7294766747821626 -0.80901698891910034 0 -0.5877852598018023 I I #
edge $-1 $442 -32.180183584195291 $247 -14.055088381256894 $358 $449 forward 7 unknown #
point $-1 -72.897732474745936 14.055088381256894 13.58691491583979 #
point $-1 -62.082896749634848 14.055088381256894 13.58691491583979 #
edge $-1 $450 1 $450 0 $250 $-1 forward 7 unknown #
vertex $-1 $251 $451 #
ellipse-curve $-1 -66.527510624967206 23.117635982726092 8.3330098202062963 -0.5877852598018023 0 0.80901698891910034 1.2135254833786506 0 0.88167788970270344 1 I I #
point $-1 -66.276789128811743 23.117635982726092 10.539873685013676 #
loop $-1 $-1 $262 $254 #
plane-surface $-1 72.897732474745936 0 0 -1 0 0 0 0 1 forward_v I I I I #
coedge $-1 $373 $257 $452 $453 reversed $159 $-1 #
coedge $-1 $257 $372 $376 $454 reversed $159 $-1 #
edge $-1 $455 -145.7954649494919 $377 -132.53128469501127 $257 $456 forward 7 unknown #
coedge $-1 $259 $258 $380 $457 reversed $99 $-1 #
coedge $-1 $265 $260 $373 $454 forward $255 $-1 #
vertex $-1 $454 $458 #
straight-curve $-1 65.868788001851982 -10.279006074269908 13.586914915839785 0 -1 0 I I #
coedge $-1 $452 $262 $265 $384 reversed $370 $-1 #
coedge $-1 $262 $452 $375 $457 forward $370 $-1 #
vertex $-1 $263 $459 #
straight-curve $-1 72.897732474745936 -12.924643609060317 101.61982164922868 0 0 1 I I #
straight-curve $-1 -4.3620911908413831 -12.924643609060317 125.97981963287006 0.52991925155115449 0 -0.84804810408105047 I I #
edge $-1 $460 -28.191380688019315 $266 -12.924643609060317 $379 $461 forward 7 unknown #
point $-1 72.897732474745936 -12.924643609060317 13.58691491583979 #
point $-1 65.868788001851982 -12.924643609060317 13.586914915839799 #
edge $-1 $462 1 $462 0 $269 $-1 forward 7 unknown #
vertex $-1 $270 $463 #
ellipse-curve $-1 66.276226488034041 -23.829455808316748 6.0210933560567383 0.84804810408105047 0 0.52991925155115449 1.059838503102309 0 -1.6960962081621009 1 I I #
point $-1 70.443098741401258 -23.829455808316748 6.2664872491769064 #
edge $-1 $464 1 $464 0 $273 $-1 forward 7 unknown #
vertex $-1 $274 $465 #
ellipse-curve $-1 66.276226488034041 -17.286568488762889 6.0210933560567383 0.84804810408105047 0 0.52991925155115449 1.059838503102309 0 -1.6960962081621009 1 I I #
point $-1 70.443098741401258 -17.286568488762889 6.2664872491769064 #
plane-surface $-1 72.897732474745936 0 0 -1 0 0 0 0 1 forward_v I I I I #
coedge $-1 $282 $280 $284 $400 reversed $181 $-1 #
edge $-1 $295 -13.58691491583979 $402 13.58691491583979 $294 $466 forward 7 unknown #
vertex $-1 $400 $467 #
straight-curve $-1 -72.897732474745936 -45.155125164545758 0 0 0 -1 I I #
edge $-1 $398 -45.155125164545758 $402 45.155125164545758 $396 $468 forward 7 unknown #
straight-curve $-1 0 -45.155125164545758 -13.58691491583979 -1 0 0 I I #
vertex $-1 $287 $469 #
straight-curve $-1 0 45.155125164545758 -13.58691491583979 1 0 0 I I #
point $-1 72.897732474745936 45.155125164545758 -13.58691491583979 #
point $-1 72.897732474745936 -45.155125164545758 -13.58691491583979 #
straight-curve $-1 -72.897732474745936 0 13.58691491583979 0 -1 0 I I #
point $-1 -72.897732474745936 45.155125164545758 13.58691491583979 #
point $-1 -72.897732474745936 -45.155125164545758 13.58691491583979 #
straight-curve $-1 72.897732474745936 -45.155125164545758 0 0 0 -1 I I #
straight-curve $-1 72.897732474745936 45.155125164545758 0 0 0 -1 I I #
plane-surface $-1 72.897732474745936 0 0 -1 0 0 0 0 1 forward_v I I I I #
coedge $-1 $308 $307 $318 $423 reversed $121 $-1 #
coedge $-1 $470 $311 $308 $414 forward $305 $-1 #
edge $-1 $415 28.191380688019315 $471 45.155125164545758 $308 $472 forward 7 unknown #
vertex $-1 $414 $473 #
straight-curve $-1 -72.897732474745936 -28.191380688019315 4.8648055214502817 0 0 -1 I I #
coedge $-1 $311 $470 $313 $419 forward $305 $-1 #
straight-curve $-1 0 -28.191380688019315 13.58691491583979 -1 0 0 I I #
edge $-1 $426 -45.155125164545758 $314 -28.191380688019315 $313 $474 forward 7 unknown #
point $-1 72.897732474745936 -28.191380688019315 13.58691491583979 #
straight-curve $-1 -72.897732474745936 -18.336626463141268 5.8723071699613367 0 -1 0 I I #
coedge $-1 $318 $317 $470 $475 reversed $200 $-1 #
edge $-1 $471 -13.58691491583979 $319 -5.8723071699613367 $412 $476 forward 7 unknown #
point $-1 -72.897732474745936 -45.155125164545758 5.8723071699613367 #
point $-1 -72.897732474745936 -28.191380688019315 5.8723071699613367 #
vertex $-1 $419 $477 #
straight-curve $-1 72.897732474745936 -45.155125164545758 0 0 0 -1 I I #
coedge $-1 $337 $336 $329 $429 forward $326 $-1 #
edge $-1 $430 48.253327447300364 $433 56.110765688357993 $428 $478 forward 7 unknown #
vertex $-1 $341 $479 #
straight-curve $-1 -79.29707885900379 2.9086560952695422 13.586914915839792 -1 0 0 I I #
edge $-1 $433 -5.9856018483693703 $338 12.139493354569026 $337 $480 forward 7 unknown #
vertex $-1 $432 $481 #
straight-curve $-1 -72.897732474745936 2.9086560952695422 5.7294766747821626 0.80901698891910034 0 0.5877852598018023 I I #
point $-1 -62.082896749634848 2.9086560952695422 13.58691491583979 #
point $-1 -72.897732474745936 -15.216439107668855 5.7294766747821626 #
straight-curve $-1 -72.897732474745936 0 13.58691491583979 0 -1 0 I I #
vertex $-1 $344 $482 #
point $-1 -65.31398514158856 -6.1538915061996562 9.2146877099090005 #
coedge $-1 $359 $358 $351 $441 forward $348 $-1 #
edge $-1 $442 48.253327447300364 $445 56.110765688357993 $440 $483 forward 7 unknown #
vertex $-1 $363 $484 #
straight-curve $-1 -79.29707885900379 32.180183584195291 13.586914915839792 -1 0 0 I I #
edge $-1 $445 -20.621365592832245 $360 -2.4962703898938479 $359 $485 forward 7 unknown #
vertex $-1 $444 $486 #
straight-curve $-1 -72.897732474745936 32.180183584195291 5.7294766747821626 0.80901698891910034 0 0.5877852598018023 I I #
point $-1 -62.082896749634848 32.180183584195291 13.58691491583979 #
point $-1 -72.897732474745936 14.055088381256894 5.7294766747821626 #
straight-curve $-1 -72.897732474745936 0 13.58691491583979 0 -1 0 I I #
vertex $-1 $366 $487 #
point $-1 -65.31398514158856 23.117635982726092 9.2146877099090005 #
coedge $-1 $380 $379 $372 $453 forward $370 $-1 #
edge $-1 $460 88.032906733388899 $455 99.28156965039048 $452 $488 forward 7 unknown #
edge $-1 $377 65.868788001851982 $460 72.897732474745936 $376 $489 forward 7 unknown #
vertex $-1 $453 $490 #
straight-curve $-1 -4.3620911908413831 -28.191380688019315 125.97981963287006 -0.52991925155115449 0 0.84804810408105047 I I #
edge $-1 $455 -17.912374613749407 $381 -2.6456375347904082 $380 $491 forward 7 unknown #
point $-1 65.868788001851982 -28.191380688019315 13.586914915839799 #
point $-1 72.897732474745936 -12.924643609060317 2.3382519988382029 #
vertex $-1 $384 $492 #
straight-curve $-1 72.897732474745936 0 13.58691491583979 0 1 0 I I #
vertex $-1 $387 $493 #
point $-1 67.336064991136354 -23.829455808316748 4.3249971478946367 #
vertex $-1 $391 $494 #
point $-1 67.336064991136354 -17.286568488762889 4.3249971478946367 #
straight-curve $-1 -72.897732474745936 45.155125164545758 0 0 0 -1 I I #
point $-1 -72.897732474745936 -45.155125164545758 -13.58691491583979 #
straight-curve $-1 -72.897732474745936 0 -13.58691491583979 0 1 0 I I #
point $-1 -72.897732474745936 45.155125164545758 -13.58691491583979 #
coedge $-1 $417 $413 $422 $475 forward $305 $-1 #
vertex $-1 $414 $495 #
straight-curve $-1 -72.897732474745936 0 13.58691491583979 0 -1 0 I I #
point $-1 -72.897732474745936 -28.191380688019315 13.58691491583979 #
straight-curve $-1 72.897732474745936 0 13.58691491583979 0 1 0 I I #
edge $-1 $471 -72.897732474745936 $426 72.897732474745936 $422 $496 forward 7 unknown #
straight-curve $-1 -72.897732474745936 -45.155125164545758 0 0 0 -1 I I #
point $-1 72.897732474745936 -45.155125164545758 13.58691491583979 #
straight-curve $-1 -72.897732474745936 2.9086560952695422 61.840242363140156 0 0 -1 I I #
point $-1 -72.897732474745936 2.9086560952695422 13.58691491583979 #
straight-curve $-1 -72.897732474745936 -3.0769457530998281 5.7294766747821591 0 -1 0 I I #
point $-1 -72.897732474745936 2.9086560952695422 5.7294766747821626 #
point $-1 -65.645832735264506 -6.1538915061996562 7.1194843368276466 #
straight-curve $-1 -72.897732474745936 32.180183584195291 61.840242363140156 0 0 -1 I I #
point $-1 -72.897732474745936 32.180183584195291 13.58691491583979 #
straight-curve $-1 -72.897732474745936 11.558817991363046 5.7294766747821591 0 -1 0 I I #
point $-1 -72.897732474745936 32.180183584195291 5.7294766747821626 #
point $-1 -65.645832735264506 23.117635982726092 7.1194843368276466 #
straight-curve $-1 72.897732474745936 -28.191380688019315 101.61982164922868 0 0 -1 I I #
straight-curve $-1 0 -28.191380688019315 13.58691491583979 1 0 0 I I #
point $-1 72.897732474745936 -28.191380688019315 2.3382519988382029 #
straight-curve $-1 72.897732474745936 -10.279006074269908 2.3382519988382313 0 1 0 I I #
point $-1 72.897732474745936 -28.191380688019315 13.58691491583979 #
point $-1 64.580130279871952 -23.829455808316748 4.9612548529544291 #
point $-1 64.580130279871952 -17.286568488762889 4.9612548529544291 #
point $-1 -72.897732474745936 -45.155125164545758 13.58691491583979 #
straight-curve $-1 0 -45.155125164545758 13.58691491583979 1 0 0 I I #
End-of-ACIS-data 