500 0 4 0           
7 Unknown 11 ACIS 5.0 NT 24 Thu Mar 25 15:44:06 1999 
-1 9.9999999999999995e-007 1e-010 
body $-1 $4 $-1 $5 #
body $-1 $6 $-1 $7 #
body $-1 $8 $-1 $9 #
body $-1 $10 $-1 $11 #
lump $-1 $-1 $12 $0 #
transform $-1 1 0 0 0 1 0 0 0 1 57.559129612109743 35.986971916821382 16.600112403588117 1 rotate no_reflect no_shear #
lump $-1 $-1 $13 $1 #
transform $-1 1 0 0 0 1 0 0 0 1 57.559129612109743 35.986971916821382 16.600112403588117 1 rotate no_reflect no_shear #
lump $-1 $-1 $14 $2 #
transform $-1 1 0 0 0 1 0 0 0 1 57.559129612109743 35.986971916821382 16.600112403588117 1 rotate no_reflect no_shear #
lump $-1 $-1 $15 $3 #
transform $-1 1 0 0 0 1 0 0 0 1 57.559129612109743 35.986971916821382 16.600112403588117 1 rotate no_reflect no_shear #
shell $-1 $-1 $-1 $16 $-1 $4 #
shell $-1 $-1 $-1 $17 $-1 $6 #
shell $-1 $-1 $-1 $18 $-1 $8 #
shell $-1 $-1 $-1 $19 $-1 $10 #
face $-1 $20 $21 $12 $-1 $22 forward single #
face $-1 $23 $24 $13 $-1 $25 reversed single #
face $-1 $26 $27 $14 $-1 $28 reversed single #
face $-1 $29 $30 $15 $-1 $31 forward single #
face $-1 $32 $33 $12 $-1 $34 reversed single #
loop $-1 $-1 $35 $16 #
plane-surface $-1 0 0 16.600112403588117 0 0 1 1 0 0 forward_v I I I I #
face $-1 $36 $37 $13 $-1 $38 reversed single #
loop $-1 $-1 $39 $17 #
plane-surface $-1 -46.886260932374903 -6.5142872275418302 0 0 1 0 0 0 1 forward_v I I I I #
face $-1 $40 $41 $14 $-1 $42 reversed single #
loop $-1 $-1 $43 $18 #
plane-surface $-1 18.173809971798789 27.29944650233606 168.97025189094455 0 1 0 0.51503808176128008 0 0.85716729658548041 forward_v I I I I #
face $-1 $44 $45 $15 $-1 $46 forward single #
loop $-1 $47 $48 $19 #
cone-surface $-1 51.952923418073574 31.643209209578721 12.221575210225865 -0.51503808176128008 0 -0.85716729658548041 1.7143345931709608 0 -1.0300761635225602 1 I I 0 1 2 forward I I I I #
face $-1 $49 $50 $12 $-1 $51 reversed single #
loop $-1 $-1 $52 $20 #
plane-surface $-1 0 0 -16.600112403588117 0 0 1 1 0 0 forward_v I I I I #
coedge $-1 $53 $54 $55 $56 forward $21 $-1 #
face $-1 $57 $58 $13 $-1 $59 reversed single #
loop $-1 $-1 $60 $23 #
plane-surface $-1 -46.886260932374903 -2.7867471096451464 0 0 -1 0 0 0 -1 forward_v I I I I #
coedge $-1 $61 $62 $63 $64 reversed $24 $-1 #
face $-1 $65 $66 $14 $-1 $67 reversed single #
loop $-1 $-1 $68 $26 #
plane-surface $-1 -41.116477434741007 31.643209209578721 70.294644844093781 0.51503808176128008 0 0.85716729658548041 0.85716729658548041 0 -0.51503808176128008 forward_v I I I I #
coedge $-1 $69 $70 $71 $72 reversed $27 $-1 #
face $-1 $-1 $73 $15 $-1 $74 forward single #
loop $-1 $75 $76 $29 #
cone-surface $-1 50.488129147087051 31.643209209578721 9.7837482032951861 -0.51503808176128008 0 -0.85716729658548041 0.85716729658548041 0 -0.51503808176128008 1 I I -0.70710678118654746 0.70710678118654746 1 forward I I I I #
loop $-1 $-1 $77 $19 #
coedge $-1 $48 $48 $78 $79 reversed $30 $-1 #
face $-1 $80 $81 $12 $-1 $82 reversed single #
loop $-1 $-1 $83 $32 #
plane-surface $-1 0 -35.986971916821382 0 0 1 0 0 0 1 forward_v I I I I #
coedge $-1 $84 $85 $86 $87 forward $33 $-1 #
coedge $-1 $88 $35 $89 $90 forward $21 $-1 #
coedge $-1 $35 $88 $91 $92 forward $21 $-1 #
coedge $-1 $93 $94 $35 $56 reversed $95 $-1 #
edge $-1 $96 -35.986971916821382 $97 35.986971916821382 $55 $98 forward 7 unknown #
face $-1 $99 $100 $13 $-1 $101 reversed single #
loop $-1 $-1 $102 $36 #
plane-surface $-1 -36.213392252640062 -4.6505171685934883 0 -1 0 0 0 0 1 forward_v I I I I #
coedge $-1 $103 $104 $105 $106 forward $37 $-1 #
coedge $-1 $107 $39 $108 $109 reversed $24 $-1 #
coedge $-1 $39 $107 $110 $111 reversed $24 $-1 #
coedge $-1 $112 $113 $39 $64 forward $114 $-1 #
edge $-1 $115 -16.600112403588117 $116 16.600112403588117 $63 $117 forward 7 unknown #
face $-1 $118 $119 $14 $-1 $120 reversed single #
loop $-1 $-1 $71 $40 #
plane-surface $-1 57.559129612109743 0 0 -1 0 0 0 0 1 forward_v I I I I #
coedge $-1 $121 $122 $123 $124 reversed $41 $-1 #
coedge $-1 $70 $43 $125 $126 reversed $27 $-1 #
coedge $-1 $43 $69 $121 $127 reversed $27 $-1 #
coedge $-1 $123 $128 $43 $72 forward $66 $-1 #
edge $-1 $129 67.885013541884163 $130 73.480768507918285 $71 $131 forward 7 unknown #
loop $-1 $-1 $78 $44 #
plane-surface $-1 -41.116477434741007 31.643209209578721 70.294644844093781 0.51503808176128008 0 0.85716729658548041 0.85716729658548041 0 -0.51503808176128008 forward_v I I I I #
loop $-1 $-1 $132 $29 #
coedge $-1 $76 $76 $77 $133 reversed $45 $-1 #
coedge $-1 $77 $77 $76 $133 forward $47 $-1 #
coedge $-1 $78 $78 $48 $79 forward $73 $-1 #
edge $-1 $134 0 $134 6.2831853071796004 $78 $135 forward 7 unknown #
face $-1 $136 $137 $12 $-1 $138 reversed single #
loop $-1 $-1 $139 $49 #
plane-surface $-1 -57.559129612109743 0 0 1 0 0 0 0 -1 forward_v I I I I #
coedge $-1 $140 $91 $141 $142 forward $50 $-1 #
coedge $-1 $143 $52 $140 $144 forward $33 $-1 #
coedge $-1 $52 $143 $145 $146 forward $33 $-1 #
coedge $-1 $94 $93 $52 $87 reversed $95 $-1 #
edge $-1 $147 -35.986971916821382 $148 35.986971916821382 $86 $149 forward 7 unknown #
coedge $-1 $54 $53 $150 $151 forward $21 $-1 #
coedge $-1 $152 $153 $53 $90 reversed $137 $-1 #
edge $-1 $97 -57.559129612109743 $154 57.559129612109743 $89 $155 forward 7 unknown #
coedge $-1 $83 $156 $54 $92 reversed $50 $-1 #
edge $-1 $157 -57.559129612109743 $96 57.559129612109743 $91 $158 forward 7 unknown #
coedge $-1 $86 $55 $156 $159 forward $95 $-1 #
coedge $-1 $55 $86 $152 $160 reversed $95 $-1 #
loop $-1 $-1 $93 $136 #
vertex $-1 $56 $161 #
vertex $-1 $56 $162 #
straight-curve $-1 57.559129612109743 0 16.600112403588117 0 1 0 I I #
face $-1 $163 $164 $13 $-1 $165 forward single #
loop $-1 $-1 $166 $57 #
plane-surface $-1 0 0 -16.600112403588117 0 0 1 1 0 0 forward_v I I I I #
coedge $-1 $167 $168 $107 $169 forward $58 $-1 #
coedge $-1 $170 $60 $166 $171 reversed $37 $-1 #
coedge $-1 $60 $170 $172 $173 reversed $37 $-1 #
coedge $-1 $168 $167 $60 $106 reversed $58 $-1 #
edge $-1 $174 -16.600112403588117 $175 16.600112403588117 $105 $176 forward 7 unknown #
coedge $-1 $62 $61 $102 $169 reversed $24 $-1 #
coedge $-1 $177 $178 $61 $109 forward $100 $-1 #
edge $-1 $179 12.770261786452611 $115 34.115999145922288 $108 $180 forward 7 unknown #
coedge $-1 $181 $182 $62 $111 forward $164 $-1 #
edge $-1 $116 -34.115999145922288 $183 -12.770261786452611 $110 $184 forward 7 unknown #
coedge $-1 $185 $63 $182 $186 reversed $114 $-1 #
coedge $-1 $63 $185 $177 $187 reversed $114 $-1 #
loop $-1 $-1 $185 $163 #
vertex $-1 $187 $188 #
vertex $-1 $64 $189 #
straight-curve $-1 -57.559129612109743 -6.5142872275418302 0 0 0 1 I I #
face $-1 $-1 $190 $14 $-1 $191 forward single #
loop $-1 $-1 $192 $65 #
plane-surface $-1 0 35.986971916821382 0 0 -1 0 0 0 -1 forward_v I I I I #
coedge $-1 $193 $68 $70 $127 forward $41 $-1 #
coedge $-1 $68 $193 $192 $194 reversed $41 $-1 #
coedge $-1 $195 $71 $68 $124 forward $66 $-1 #
edge $-1 $130 11.4778418975467 $196 20.165367312032021 $123 $197 forward 7 unknown #
coedge $-1 $198 $199 $69 $126 forward $190 $-1 #
edge $-1 $200 39.159324616588499 $129 48.472224626210348 $125 $201 forward 7 unknown #
edge $-1 $130 -115.11825922421949 $200 -104.25351899588865 $70 $202 forward 7 unknown #
coedge $-1 $71 $195 $198 $203 reversed $66 $-1 #
vertex $-1 $203 $204 #
vertex $-1 $72 $205 #
straight-curve $-1 57.559129612109743 27.29944650233606 84.485125945472276 0 0 -1 I I #
coedge $-1 $132 $132 $-1 $206 reversed $75 $-1 #
edge $-1 $207 0 $207 6.2831853071796004 $76 $208 forward 7 unknown #
vertex $-1 $79 $209 #
ellipse-curve $-1 52.902679607298815 31.643209209578721 13.80223492057106 0.51503808176128008 0 0.85716729658548041 1.7143345931709608 0 -1.0300761635225602 1 I I #
face $-1 $-1 $95 $12 $-1 $210 reversed single #
loop $-1 $-1 $152 $80 #
plane-surface $-1 0 35.986971916821382 0 0 -1 0 0 0 -1 forward_v I I I I #
coedge $-1 $211 $150 $153 $212 forward $81 $-1 #
coedge $-1 $156 $83 $84 $144 reversed $50 $-1 #
coedge $-1 $150 $211 $83 $142 reversed $81 $-1 #
edge $-1 $157 -16.600112403588117 $213 16.600112403588117 $141 $214 forward 7 unknown #
coedge $-1 $85 $84 $211 $215 forward $33 $-1 #
edge $-1 $148 -57.559129612109743 $213 57.559129612109743 $140 $216 forward 7 unknown #
coedge $-1 $153 $152 $85 $146 reversed $137 $-1 #
edge $-1 $217 -57.559129612109743 $147 57.559129612109743 $145 $218 forward 7 unknown #
vertex $-1 $87 $219 #
vertex $-1 $159 $220 #
straight-curve $-1 57.559129612109743 0 -16.600112403588117 0 -1 0 I I #
coedge $-1 $139 $141 $88 $151 reversed $81 $-1 #
edge $-1 $154 -35.986971916821382 $157 35.986971916821382 $150 $221 forward 7 unknown #
coedge $-1 $145 $89 $94 $160 forward $137 $-1 #
coedge $-1 $89 $145 $139 $212 reversed $137 $-1 #
vertex $-1 $90 $222 #
straight-curve $-1 0 35.986971916821382 16.600112403588117 -1 0 0 I I #
coedge $-1 $91 $140 $93 $159 reversed $50 $-1 #
vertex $-1 $151 $223 #
straight-curve $-1 0 -35.986971916821382 16.600112403588117 1 0 0 I I #
edge $-1 $96 -16.600112403588117 $148 16.600112403588117 $93 $224 forward 7 unknown #
edge $-1 $97 -16.600112403588117 $147 16.600112403588117 $94 $225 forward 7 unknown #
point $-1 57.559129612109743 -35.986971916821382 16.600112403588117 #
point $-1 57.559129612109743 35.986971916821382 16.600112403588117 #
face $-1 $-1 $114 $13 $-1 $226 reversed single #
loop $-1 $-1 $172 $99 #
plane-surface $-1 0 0 16.600112403588117 0 0 1 1 0 0 forward_v I I I I #
coedge $-1 $178 $177 $103 $171 forward $100 $-1 #
coedge $-1 $105 $102 $178 $227 reversed $58 $-1 #
coedge $-1 $102 $105 $181 $228 reversed $58 $-1 #
edge $-1 $183 -16.600112403588117 $179 16.600112403588117 $102 $229 forward 7 unknown #
coedge $-1 $104 $103 $185 $230 reversed $37 $-1 #
edge $-1 $231 -34.115999145922288 $175 -12.770261786452611 $166 $232 forward 7 unknown #
coedge $-1 $182 $181 $104 $173 forward $164 $-1 #
edge $-1 $174 12.770261786452611 $233 34.115999145922288 $172 $234 forward 7 unknown #
vertex $-1 $173 $235 #
vertex $-1 $171 $236 #
straight-curve $-1 -36.213392252640062 -2.7867471096451464 0 0 0 -1 I I #
coedge $-1 $166 $108 $113 $187 forward $100 $-1 #
coedge $-1 $108 $166 $167 $227 forward $100 $-1 #
vertex $-1 $109 $237 #
straight-curve $-1 -23.443130466187451 -6.5142872275418302 -16.600112403588117 -1 0 0 I I #
coedge $-1 $172 $110 $168 $228 forward $164 $-1 #
coedge $-1 $110 $172 $112 $186 forward $164 $-1 #
vertex $-1 $111 $238 #
straight-curve $-1 -23.443130466187451 -6.5142872275418302 16.600112403588117 1 0 0 I I #
coedge $-1 $113 $112 $170 $230 forward $114 $-1 #
edge $-1 $233 2.7867471096451464 $116 6.5142872275418302 $112 $239 forward 7 unknown #
edge $-1 $115 -6.5142872275418302 $231 -2.7867471096451464 $113 $240 forward 7 unknown #
point $-1 -57.559129612109743 -6.5142872275418302 -16.600112403588117 #
point $-1 -57.559129612109743 -6.5142872275418302 16.600112403588117 #
loop $-1 $-1 $125 $118 #
plane-surface $-1 0 0 16.600112403588117 0 0 1 1 0 0 forward_v I I I I #
coedge $-1 $241 $242 $122 $194 forward $119 $-1 #
coedge $-1 $122 $121 $199 $243 reversed $41 $-1 #
edge $-1 $196 -79.394199800995779 $244 -68.529459572664962 $192 $245 forward 7 unknown #
coedge $-1 $128 $123 $242 $246 reversed $66 $-1 #
vertex $-1 $194 $247 #
straight-curve $-1 57.559129612109736 15.821604604789361 11.004357437553999 0 1 0 I I #
coedge $-1 $248 $125 $128 $203 forward $190 $-1 #
coedge $-1 $125 $248 $193 $243 forward $190 $-1 #
vertex $-1 $126 $249 #
straight-curve $-1 9.0869049858993947 27.29944650233606 16.600112403588113 1 0 0 I I #
straight-curve $-1 -41.116477434741007 27.29944650233606 70.294644844093781 -0.85716729658548041 0 0.51503808176128008 I I #
edge $-1 $129 27.29944650233606 $250 35.986971916821382 $128 $251 forward 7 unknown #
point $-1 57.559129612109743 27.29944650233606 16.600112403588117 #
point $-1 57.55912961210975 27.29944650233606 11.004357437553992 #
edge $-1 $252 1 $252 0 $132 $-1 forward 7 unknown #
vertex $-1 $133 $253 #
ellipse-curve $-1 51.003167228848334 31.643209209578721 10.640915499880666 0.51503808176128008 0 0.85716729658548041 1.7143345931709608 0 -1.0300761635225602 1 I I #
point $-1 54.617014200469782 31.643209209578721 12.772158757048501 #
plane-surface $-1 57.559129612109743 0 0 -1 0 0 0 0 1 forward_v I I I I #
coedge $-1 $141 $139 $143 $215 reversed $81 $-1 #
edge $-1 $154 -16.600112403588117 $217 16.600112403588117 $153 $254 forward 7 unknown #
vertex $-1 $215 $255 #
straight-curve $-1 -57.559129612109743 -35.986971916821382 0 0 0 -1 I I #
edge $-1 $213 -35.986971916821382 $217 35.986971916821382 $211 $256 forward 7 unknown #
straight-curve $-1 0 -35.986971916821382 -16.600112403588117 -1 0 0 I I #
vertex $-1 $146 $257 #
straight-curve $-1 0 35.986971916821382 -16.600112403588117 1 0 0 I I #
point $-1 57.559129612109743 35.986971916821382 -16.600112403588117 #
point $-1 57.559129612109743 -35.986971916821382 -16.600112403588117 #
straight-curve $-1 -57.559129612109743 0 16.600112403588117 0 -1 0 I I #
point $-1 -57.559129612109743 35.986971916821382 16.600112403588117 #
point $-1 -57.559129612109743 -35.986971916821382 16.600112403588117 #
straight-curve $-1 57.559129612109743 -35.986971916821382 0 0 0 -1 I I #
straight-curve $-1 57.559129612109743 35.986971916821382 0 0 0 -1 I I #
plane-surface $-1 -57.559129612109743 0 0 1 0 0 0 0 -1 forward_v I I I I #
edge $-1 $175 0.46148852534840223 $179 4.1890286432450861 $178 $258 forward 7 unknown #
edge $-1 $183 -4.1890286432450861 $174 -0.46148852534840223 $181 $259 forward 7 unknown #
straight-curve $-1 -36.213392252640062 -6.5142872275418302 0 0 0 -1 I I #
edge $-1 $233 -16.600112403588117 $231 16.600112403588117 $185 $260 forward 7 unknown #
vertex $-1 $230 $261 #
straight-curve $-1 -23.443130466187451 -2.7867471096451464 -16.600112403588117 1 0 0 I I #
vertex $-1 $186 $262 #
straight-curve $-1 -23.443130466187451 -2.7867471096451464 16.600112403588117 -1 0 0 I I #
point $-1 -36.213392252640062 -2.7867471096451464 16.600112403588117 #
point $-1 -36.213392252640062 -2.7867471096451464 -16.600112403588117 #
point $-1 -36.213392252640062 -6.5142872275418302 -16.600112403588117 #
point $-1 -36.213392252640062 -6.5142872275418302 16.600112403588117 #
straight-curve $-1 -57.559129612109743 0 16.600112403588117 0 -1 0 I I #
straight-curve $-1 -57.559129612109743 0 -16.600112403588117 0 1 0 I I #
coedge $-1 $242 $192 $248 $263 reversed $119 $-1 #
coedge $-1 $192 $241 $195 $246 forward $119 $-1 #
edge $-1 $244 -20.165367312032021 $200 -11.4778418975467 $199 $264 forward 7 unknown #
vertex $-1 $194 $265 #
straight-curve $-1 -10.494981995877302 35.986971916821382 51.895393806030668 -0.85716729658548041 0 0.51503808176128008 I I #
edge $-1 $250 -16.600112403588117 $196 -11.004357437553997 $195 $266 forward 7 unknown #
point $-1 57.559129612109743 35.986971916821382 11.004357437553997 #
coedge $-1 $199 $198 $241 $263 forward $190 $-1 #
point $-1 48.246229602487894 27.29944650233606 16.600112403588113 #
vertex $-1 $203 $267 #
straight-curve $-1 57.559129612109743 0 16.600112403588117 0 1 0 I I #
vertex $-1 $206 $268 #
point $-1 52.717501822019294 31.643209209578721 9.6108393363581062 #
straight-curve $-1 -57.559129612109743 35.986971916821382 0 0 0 -1 I I #
point $-1 -57.559129612109743 -35.986971916821382 -16.600112403588117 #
straight-curve $-1 -57.559129612109743 0 -16.600112403588117 0 1 0 I I #
point $-1 -57.559129612109743 35.986971916821382 -16.600112403588117 #
straight-curve $-1 -36.213392252640062 -2.3252585842967441 -16.600112403588117 0 -1 0 I I #
straight-curve $-1 -36.213392252640062 -2.3252585842967441 16.600112403588117 0 1 0 I I #
straight-curve $-1 -57.559129612109743 -2.7867471096451464 0 0 0 -1 I I #
point $-1 -57.559129612109743 -2.7867471096451464 -16.600112403588117 #
point $-1 -57.559129612109743 -2.7867471096451464 16.600112403588117 #
edge $-1 $250 -57.559129612109743 $244 -48.246229602487894 $241 $269 forward 7 unknown #
straight-curve $-1 48.246229602487901 15.821604604789361 16.600112403588113 0 -1 0 I I #
point $-1 48.246229602487894 35.986971916821382 16.600112403588113 #
straight-curve $-1 57.559129612109743 35.986971916821382 0 0 0 -1 I I #
point $-1 57.559129612109743 35.986971916821382 16.600112403588117 #
point $-1 49.973091065325768 31.643209209578721 8.9265809067097059 #
straight-curve $-1 0 35.986971916821382 16.600112403588117 -1 0 0 I I #
End-of-ACIS-data 