500 0 4 0           
7 Unknown 11 ACIS 5.0 NT 24 Thu Mar 25 18:13:38 1999 
-1 9.9999999999999995e-007 1e-010 
body $-1 $4 $-1 $5 #
body $-1 $6 $-1 $7 #
body $-1 $8 $-1 $9 #
body $-1 $10 $-1 $11 #
lump $-1 $-1 $12 $0 #
transform $-1 1 0 0 0 1 0 0 0 1 73.654591509750659 48.993666693518641 18.351505116821833 1 rotate no_reflect no_shear #
lump $-1 $-1 $13 $1 #
transform $-1 1 0 0 0 1 0 0 0 1 73.654591509750659 48.993666693518641 18.351505116821833 1 rotate no_reflect no_shear #
lump $-1 $-1 $14 $2 #
transform $-1 1 0 0 0 1 0 0 0 1 73.654591509750659 48.993666693518641 18.351505116821833 1 rotate no_reflect no_shear #
lump $-1 $-1 $15 $3 #
transform $-1 1 0 0 0 1 0 0 0 1 73.654591509750659 48.993666693518641 18.351505116821833 1 rotate no_reflect no_shear #
shell $-1 $-1 $-1 $16 $-1 $4 #
shell $-1 $-1 $-1 $17 $-1 $6 #
shell $-1 $-1 $-1 $18 $-1 $8 #
shell $-1 $-1 $-1 $19 $-1 $10 #
face $-1 $20 $21 $12 $-1 $22 forward single #
face $-1 $23 $24 $13 $-1 $25 reversed single #
face $-1 $26 $27 $14 $-1 $28 forward single #
face $-1 $29 $30 $15 $-1 $31 forward single #
face $-1 $32 $33 $12 $-1 $34 reversed single #
loop $-1 $-1 $35 $16 #
plane-surface $-1 0 0 18.351505116821833 0 0 1 1 0 0 forward_v I I I I #
face $-1 $36 $37 $13 $-1 $38 reversed single #
loop $-1 $-1 $39 $17 #
plane-surface $-1 62.427363255294907 -48.993666693518634 5.3245599430121899 0 -0.75470958851134928 0.65605901945558964 1 0 0 forward_v I I I I #
face $-1 $40 $41 $14 $-1 $42 forward single #
loop $-1 $43 $44 $18 #
cone-surface $-1 57.615694003385286 -40.842272890662137 9.6741009309082067 0 0.75470958851134928 -0.65605901945558964 3 0 0 1 I I 0 1 3 forward I I I I #
face $-1 $45 $46 $15 $-1 $47 forward single #
loop $-1 $48 $49 $19 #
cone-surface $-1 67.239032507204499 -40.842272890662137 9.6741009309082067 0 0.75470958851134928 -0.65605901945558964 3 0 0 1 I I 0 1 3 forward I I I I #
face $-1 $50 $51 $12 $-1 $52 reversed single #
loop $-1 $-1 $53 $20 #
plane-surface $-1 0 0 -18.351505116821833 0 0 1 1 0 0 forward_v I I I I #
coedge $-1 $54 $55 $56 $57 forward $21 $-1 #
face $-1 $58 $59 $13 $-1 $60 reversed single #
loop $-1 $-1 $61 $23 #
plane-surface $-1 51.200135000839154 -160.16931959410951 101.96807811159022 1 0 0 0 0.75470958851134928 -0.65605901945558964 forward_v I I I I #
coedge $-1 $62 $63 $64 $65 reversed $24 $-1 #
face $-1 $-1 $66 $14 $-1 $67 forward single #
loop $-1 $68 $69 $26 #
cone-surface $-1 57.615694003385286 -37.220889897490451 6.5260808027160273 0 0.75470958851134928 -0.65605901945558964 1.5 0 0 1 I I -0.70710678118654757 0.70710678118654757 1.5 forward I I I I #
loop $-1 $-1 $70 $18 #
coedge $-1 $44 $44 $71 $72 reversed $27 $-1 #
face $-1 $-1 $73 $15 $-1 $74 forward single #
loop $-1 $75 $76 $29 #
cone-surface $-1 67.239032507204499 -37.220889897490451 6.5260808027160273 0 0.75470958851134928 -0.65605901945558964 1.5 0 0 1 I I -0.70710678118654757 0.70710678118654757 1.5 forward I I I I #
loop $-1 $-1 $77 $19 #
coedge $-1 $49 $49 $78 $79 reversed $30 $-1 #
face $-1 $80 $81 $12 $-1 $82 reversed single #
loop $-1 $-1 $83 $32 #
plane-surface $-1 0 -48.993666693518641 0 0 1 0 0 0 1 forward_v I I I I #
coedge $-1 $84 $85 $86 $87 forward $33 $-1 #
coedge $-1 $88 $35 $89 $90 forward $21 $-1 #
coedge $-1 $35 $88 $91 $92 forward $21 $-1 #
coedge $-1 $93 $94 $35 $57 reversed $95 $-1 #
edge $-1 $96 -48.993666693518641 $97 48.993666693518641 $56 $98 forward 7 unknown #
face $-1 $99 $100 $13 $-1 $101 forward single #
loop $-1 $-1 $102 $36 #
plane-surface $-1 0 -48.993666693518641 0 0 1 0 0 0 1 forward_v I I I I #
coedge $-1 $103 $104 $105 $106 reversed $37 $-1 #
coedge $-1 $107 $39 $108 $109 reversed $24 $-1 #
coedge $-1 $39 $107 $103 $110 forward $24 $-1 #
coedge $-1 $105 $111 $39 $65 forward $100 $-1 #
edge $-1 $112 -42.440909882103206 $113 -19.986453373191701 $64 $114 forward 7 unknown #
loop $-1 $-1 $71 $40 #
plane-surface $-1 62.427363255294907 -48.993666693518634 5.3245599430121899 0 -0.75470958851134928 0.65605901945558964 1 0 0 forward_v I I I I #
loop $-1 $-1 $115 $26 #
coedge $-1 $69 $69 $70 $116 reversed $41 $-1 #
coedge $-1 $70 $70 $69 $116 forward $43 $-1 #
coedge $-1 $71 $71 $44 $72 forward $66 $-1 #
edge $-1 $117 -1.3406335393130842e-015 $117 6.2831853071795987 $71 $118 forward 7 unknown #
loop $-1 $-1 $78 $45 #
plane-surface $-1 62.427363255294907 -48.993666693518634 5.3245599430121899 0 -0.75470958851134928 0.65605901945558964 1 0 0 forward_v I I I I #
loop $-1 $-1 $119 $29 #
coedge $-1 $76 $76 $77 $120 reversed $46 $-1 #
coedge $-1 $77 $77 $76 $120 forward $48 $-1 #
coedge $-1 $78 $78 $49 $79 forward $73 $-1 #
edge $-1 $121 -1.3406335393130842e-015 $121 6.2831853071795987 $78 $122 forward 7 unknown #
face $-1 $123 $124 $12 $-1 $125 reversed single #
loop $-1 $-1 $126 $50 #
plane-surface $-1 -73.654591509750659 0 0 1 0 0 0 0 -1 forward_v I I I I #
coedge $-1 $127 $91 $128 $129 forward $51 $-1 #
coedge $-1 $130 $53 $127 $131 forward $33 $-1 #
coedge $-1 $53 $130 $132 $133 forward $33 $-1 #
coedge $-1 $94 $93 $53 $87 reversed $95 $-1 #
edge $-1 $134 -48.993666693518641 $135 48.993666693518641 $86 $136 forward 7 unknown #
coedge $-1 $55 $54 $137 $138 forward $21 $-1 #
coedge $-1 $139 $140 $54 $90 reversed $124 $-1 #
edge $-1 $97 -73.654591509750659 $141 73.654591509750659 $89 $142 forward 7 unknown #
coedge $-1 $83 $143 $55 $92 reversed $51 $-1 #
edge $-1 $144 -73.654591509750659 $96 73.654591509750659 $91 $145 forward 7 unknown #
coedge $-1 $86 $56 $143 $146 forward $95 $-1 #
coedge $-1 $56 $86 $139 $147 reversed $95 $-1 #
loop $-1 $-1 $93 $123 #
vertex $-1 $57 $148 #
vertex $-1 $57 $149 #
straight-curve $-1 73.654591509750659 0 18.351505116821833 0 1 0 I I #
face $-1 $-1 $150 $13 $-1 $151 reversed single #
loop $-1 $-1 $105 $58 #
plane-surface $-1 0 0 18.351505116821833 0 0 1 1 0 0 forward_v I I I I #
coedge $-1 $152 $153 $104 $154 forward $59 $-1 #
coedge $-1 $104 $61 $63 $110 reversed $37 $-1 #
coedge $-1 $61 $103 $102 $154 reversed $37 $-1 #
coedge $-1 $155 $64 $61 $106 forward $100 $-1 #
edge $-1 $113 -42.415143488439782 $156 -31.090993103536114 $105 $157 forward 7 unknown #
coedge $-1 $63 $62 $152 $158 reversed $24 $-1 #
coedge $-1 $159 $160 $62 $109 forward $150 $-1 #
edge $-1 $161 -14.06212024344455 $112 3.1987511859287823 $108 $162 forward 7 unknown #
edge $-1 $163 -1.0694430631949516e-014 $113 17.260871429373324 $103 $164 forward 7 unknown #
coedge $-1 $64 $155 $159 $165 forward $100 $-1 #
vertex $-1 $109 $166 #
vertex $-1 $65 $167 #
straight-curve $-1 31.213681627647453 -37.669516308614973 18.351505116821833 -1 0 0 I I #
coedge $-1 $115 $115 $-1 $168 reversed $68 $-1 #
edge $-1 $169 0 $169 6.2831853071796004 $69 $170 forward 7 unknown #
vertex $-1 $72 $171 #
ellipse-curve $-1 57.615694003385286 -43.331591501066804 11.838032529917008 0 -0.75470958851134928 0.65605901945558964 3 0 0 1 I I #
coedge $-1 $119 $119 $-1 $172 reversed $75 $-1 #
edge $-1 $173 0 $173 6.2831853071796004 $76 $174 forward 7 unknown #
vertex $-1 $79 $175 #
ellipse-curve $-1 67.239032507204499 -43.331591501066804 11.838032529917008 0 -0.75470958851134928 0.65605901945558964 3 0 0 1 I I #
face $-1 $-1 $95 $12 $-1 $176 reversed single #
loop $-1 $-1 $139 $80 #
plane-surface $-1 0 48.993666693518641 0 0 -1 0 0 0 -1 forward_v I I I I #
coedge $-1 $177 $137 $140 $178 forward $81 $-1 #
coedge $-1 $143 $83 $84 $131 reversed $51 $-1 #
coedge $-1 $137 $177 $83 $129 reversed $81 $-1 #
edge $-1 $144 -18.351505116821833 $179 18.351505116821833 $128 $180 forward 7 unknown #
coedge $-1 $85 $84 $177 $181 forward $33 $-1 #
edge $-1 $135 -73.654591509750659 $179 73.654591509750659 $127 $182 forward 7 unknown #
coedge $-1 $140 $139 $85 $133 reversed $124 $-1 #
edge $-1 $183 -73.654591509750659 $134 73.654591509750659 $132 $184 forward 7 unknown #
vertex $-1 $87 $185 #
vertex $-1 $146 $186 #
straight-curve $-1 73.654591509750659 0 -18.351505116821833 0 -1 0 I I #
coedge $-1 $126 $128 $88 $138 reversed $81 $-1 #
edge $-1 $141 -48.993666693518641 $144 48.993666693518641 $137 $187 forward 7 unknown #
coedge $-1 $132 $89 $94 $147 forward $124 $-1 #
coedge $-1 $89 $132 $126 $178 reversed $124 $-1 #
vertex $-1 $90 $188 #
straight-curve $-1 0 48.993666693518641 18.351505116821833 -1 0 0 I I #
coedge $-1 $91 $127 $93 $146 reversed $51 $-1 #
vertex $-1 $138 $189 #
straight-curve $-1 0 -48.993666693518641 18.351505116821833 1 0 0 I I #
edge $-1 $96 -18.351505116821833 $135 18.351505116821833 $93 $190 forward 7 unknown #
edge $-1 $97 -18.351505116821833 $134 18.351505116821833 $94 $191 forward 7 unknown #
point $-1 73.654591509750659 -48.993666693518641 18.351505116821833 #
point $-1 73.654591509750659 48.993666693518641 18.351505116821833 #
loop $-1 $-1 $108 $99 #
plane-surface $-1 73.654591509750659 0 0 -1 0 0 0 0 1 forward_v I I I I #
coedge $-1 $192 $102 $107 $158 forward $59 $-1 #
coedge $-1 $102 $192 $155 $193 reversed $59 $-1 #
edge $-1 $156 32.632533938973275 $163 45.659479112782925 $102 $194 forward 7 unknown #
coedge $-1 $111 $105 $153 $193 forward $100 $-1 #
vertex $-1 $193 $195 #
straight-curve $-1 51.200135000839154 -80.084659797054755 18.351505116821833 0 -1 0 I I #
edge $-1 $163 19.986453373191701 $161 42.440909882103206 $152 $196 forward 7 unknown #
coedge $-1 $160 $108 $111 $165 reversed $150 $-1 #
coedge $-1 $108 $159 $192 $197 forward $150 $-1 #
vertex $-1 $158 $198 #
straight-curve $-1 73.654591509750659 -39.768085875137814 15.937376925539331 0 0.65605901945558975 0.75470958851134939 I I #
vertex $-1 $158 $199 #
straight-curve $-1 51.200135000839154 -48.993666693518634 5.3245599430121899 0 0.65605901945558964 0.75470958851134928 I I #
edge $-1 $200 -48.993666693518641 $112 -37.669516308614973 $159 $201 forward 7 unknown #
point $-1 73.654591509750659 -37.669516308614973 18.351505116821833 #
point $-1 51.200135000839154 -37.669516308614973 18.351505116821833 #
edge $-1 $202 1 $202 0 $115 $-1 forward 7 unknown #
vertex $-1 $116 $203 #
ellipse-curve $-1 57.615694003385286 -38.352954280257478 7.5101693318994123 0 -0.75470958851134928 0.65605901945558964 3 0 0 1 I I #
point $-1 60.615694003385286 -43.331591501066804 11.838032529917003 #
edge $-1 $204 1 $204 0 $119 $-1 forward 7 unknown #
vertex $-1 $120 $205 #
ellipse-curve $-1 67.239032507204499 -38.352954280257478 7.5101693318994123 0 -0.75470958851134928 0.65605901945558964 3 0 0 1 I I #
point $-1 70.239032507204499 -43.331591501066804 11.838032529917003 #
plane-surface $-1 73.654591509750659 0 0 -1 0 0 0 0 1 forward_v I I I I #
coedge $-1 $128 $126 $130 $181 reversed $81 $-1 #
edge $-1 $141 -18.351505116821833 $183 18.351505116821833 $140 $206 forward 7 unknown #
vertex $-1 $181 $207 #
straight-curve $-1 -73.654591509750659 -48.993666693518641 0 0 0 -1 I I #
edge $-1 $179 -48.993666693518641 $183 48.993666693518641 $177 $208 forward 7 unknown #
straight-curve $-1 0 -48.993666693518641 -18.351505116821833 -1 0 0 I I #
vertex $-1 $133 $209 #
straight-curve $-1 0 48.993666693518641 -18.351505116821833 1 0 0 I I #
point $-1 73.654591509750659 48.993666693518641 -18.351505116821833 #
point $-1 73.654591509750659 -48.993666693518641 -18.351505116821833 #
straight-curve $-1 -73.654591509750659 0 18.351505116821833 0 -1 0 I I #
point $-1 -73.654591509750659 48.993666693518641 18.351505116821833 #
point $-1 -73.654591509750659 -48.993666693518641 18.351505116821833 #
straight-curve $-1 73.654591509750659 -48.993666693518641 0 0 0 -1 I I #
straight-curve $-1 73.654591509750659 48.993666693518641 0 0 0 -1 I I #
coedge $-1 $153 $152 $160 $197 reversed $59 $-1 #
edge $-1 $156 51.200135000839154 $200 73.654591509750659 $153 $210 forward 7 unknown #
straight-curve $-1 51.200135000839154 -48.993666693518641 50.984039055795108 0 0 -1 I I #
point $-1 51.200135000839154 -48.993666693518641 18.351505116821833 #
straight-curve $-1 31.213681627647453 -48.993666693518641 5.3245599430121748 1 0 0 I I #
edge $-1 $200 -18.351505116821833 $161 -5.3245599430121819 $160 $211 forward 7 unknown #
point $-1 73.654591509750659 -48.993666693518641 5.3245599430121819 #
point $-1 51.200135000839154 -48.993666693518641 5.3245599430121819 #
vertex $-1 $165 $212 #
straight-curve $-1 73.654591509750659 0 18.351505116821833 0 1 0 I I #
vertex $-1 $168 $213 #
point $-1 60.615694003385286 -38.352954280257478 7.5101693318994123 #
vertex $-1 $172 $214 #
point $-1 70.239032507204499 -38.352954280257478 7.5101693318994123 #
straight-curve $-1 -73.654591509750659 48.993666693518641 0 0 0 -1 I I #
point $-1 -73.654591509750659 -48.993666693518641 -18.351505116821833 #
straight-curve $-1 -73.654591509750659 0 -18.351505116821833 0 1 0 I I #
point $-1 -73.654591509750659 48.993666693518641 -18.351505116821833 #
straight-curve $-1 0 -48.993666693518641 18.351505116821833 1 0 0 I I #
straight-curve $-1 73.654591509750659 -48.993666693518641 0 0 0 -1 I I #
point $-1 73.654591509750659 -48.993666693518641 18.351505116821833 #
point $-1 57.615694003385286 -36.088825514723425 5.5419922735326423 #
point $-1 67.239032507204499 -36.088825514723425 5.5419922735326423 #
End-of-ACIS-data 