500 0 7 0           
7 Unknown 11 ACIS 5.0 NT 24 Fri Mar 26 02:06:19 1999 
-1 9.9999999999999995e-007 1e-010 
body $-1 $7 $-1 $8 #
body $-1 $9 $-1 $10 #
body $-1 $11 $-1 $12 #
body $-1 $13 $-1 $14 #
body $-1 $15 $-1 $16 #
body $-1 $17 $-1 $18 #
body $-1 $19 $-1 $20 #
lump $-1 $-1 $21 $0 #
transform $-1 1 0 0 0 1 0 0 0 1 58.966643269142736 31.910947043369042 12.195343923782733 1 rotate no_reflect no_shear #
lump $-1 $-1 $22 $1 #
transform $-1 1 0 0 0 1 0 0 0 1 58.966643269142736 31.910947043369042 12.195343923782733 1 rotate no_reflect no_shear #
lump $-1 $-1 $23 $2 #
transform $-1 1 0 0 0 1 0 0 0 1 58.966643269142736 31.910947043369042 12.195343923782733 1 rotate no_reflect no_shear #
lump $-1 $-1 $24 $3 #
transform $-1 1 0 0 0 1 0 0 0 1 58.966643269142736 31.910947043369042 12.195343923782733 1 rotate no_reflect no_shear #
lump $-1 $-1 $25 $4 #
transform $-1 1 0 0 0 1 0 0 0 1 58.966643269142736 31.910947043369042 12.195343923782733 1 rotate no_reflect no_shear #
lump $-1 $-1 $26 $5 #
transform $-1 1 0 0 0 1 0 0 0 1 58.966643269142736 31.910947043369042 12.195343923782733 1 rotate no_reflect no_shear #
lump $-1 $-1 $27 $6 #
transform $-1 1 0 0 0 1 0 0 0 1 58.966643269142736 31.910947043369042 12.195343923782733 1 rotate no_reflect no_shear #
shell $-1 $-1 $-1 $28 $-1 $7 #
shell $-1 $-1 $-1 $29 $-1 $9 #
shell $-1 $-1 $-1 $30 $-1 $11 #
shell $-1 $-1 $-1 $31 $-1 $13 #
shell $-1 $-1 $-1 $32 $-1 $15 #
shell $-1 $-1 $-1 $33 $-1 $17 #
shell $-1 $-1 $-1 $34 $-1 $19 #
face $-1 $35 $36 $21 $-1 $37 forward single #
face $-1 $38 $39 $22 $-1 $40 forward single #
face $-1 $41 $42 $23 $-1 $43 forward single #
face $-1 $44 $45 $24 $-1 $46 reversed single #
face $-1 $47 $48 $25 $-1 $49 forward single #
face $-1 $50 $51 $26 $-1 $52 forward single #
face $-1 $53 $54 $27 $-1 $55 forward single #
face $-1 $56 $57 $21 $-1 $58 reversed single #
loop $-1 $-1 $59 $28 #
plane-surface $-1 0 0 12.195343923782733 0 0 1 1 0 0 forward_v I I I I #
face $-1 $60 $61 $22 $-1 $62 reversed single #
loop $-1 $-1 $63 $29 #
plane-surface $-1 -58.966643269142736 0 0 1 0 0 0 0 -1 forward_v I I I I #
face $-1 $64 $65 $23 $-1 $66 reversed single #
loop $-1 $-1 $67 $30 #
plane-surface $-1 58.966643269142736 0 0 -1 0 0 0 0 1 forward_v I I I I #
face $-1 $68 $69 $24 $-1 $70 reversed single #
loop $-1 $-1 $71 $31 #
plane-surface $-1 42.528378713474332 -104.51792913406112 97.197965159008817 -1 0 0 0 -0.61566148304635926 0.78801074757464917 forward_v I I I I #
face $-1 $72 $73 $25 $-1 $74 forward single #
loop $-1 $75 $76 $32 #
cone-surface $-1 31.309059763008307 -25.829314828230675 6.9418973823707768 0 0.61566148304635926 -0.78801074757464917 1 0 0 1 I I 0 1 1 forward I I I I #
face $-1 $77 $78 $26 $-1 $79 forward single #
loop $-1 $80 $81 $33 #
cone-surface $-1 35.516304369433058 -25.829314828230675 6.9418973823707768 0 0.61566148304635926 -0.78801074757464917 1 0 0 1 I I 0 1 1 forward I I I I #
face $-1 $82 $83 $27 $-1 $84 forward single #
loop $-1 $85 $86 $34 #
cone-surface $-1 39.72354897585781 -25.829314828230675 6.9418973823707768 0 0.61566148304635926 -0.78801074757464917 1 0 0 1 I I 0 1 1 forward I I I I #
face $-1 $87 $88 $21 $-1 $89 reversed single #
loop $-1 $-1 $90 $35 #
plane-surface $-1 0 0 -12.195343923782733 0 0 1 1 0 0 forward_v I I I I #
coedge $-1 $91 $92 $93 $94 forward $36 $-1 #
face $-1 $95 $96 $22 $-1 $97 forward single #
loop $-1 $-1 $98 $38 #
plane-surface $-1 0 31.910947043369042 0 0 -1 0 0 0 -1 forward_v I I I I #
coedge $-1 $99 $100 $101 $102 forward $39 $-1 #
face $-1 $103 $104 $23 $-1 $105 forward single #
loop $-1 $-1 $106 $41 #
plane-surface $-1 0 31.910947043369042 0 0 -1 0 0 0 -1 forward_v I I I I #
coedge $-1 $107 $108 $109 $110 forward $42 $-1 #
face $-1 $111 $112 $24 $-1 $113 reversed single #
loop $-1 $-1 $114 $44 #
plane-surface $-1 35.516304369433072 -31.910947043369049 4.2652678700391675 0 -0.61566148304635926 0.78801074757464917 1 0 0 forward_v I I I I #
coedge $-1 $115 $116 $117 $118 reversed $45 $-1 #
face $-1 $-1 $119 $25 $-1 $120 forward single #
loop $-1 $121 $122 $47 #
cone-surface $-1 31.309059763008307 -24.514869012899482 5.2594834940432733 0 0.61566148304635926 -0.78801074757464917 0.5 0 0 1 I I -0.70710678118654746 0.70710678118654746 0.5 forward I I I I #
loop $-1 $-1 $123 $32 #
coedge $-1 $76 $76 $124 $125 reversed $48 $-1 #
face $-1 $-1 $126 $26 $-1 $127 forward single #
loop $-1 $128 $129 $50 #
cone-surface $-1 35.516304369433058 -24.514869012899482 5.2594834940432733 0 0.61566148304635926 -0.78801074757464917 0.5 0 0 1 I I -0.70710678118654746 0.70710678118654746 0.5 forward I I I I #
loop $-1 $-1 $130 $33 #
coedge $-1 $81 $81 $131 $132 reversed $51 $-1 #
face $-1 $-1 $133 $27 $-1 $134 forward single #
loop $-1 $135 $136 $53 #
cone-surface $-1 39.72354897585781 -24.514869012899482 5.2594834940432733 0 0.61566148304635926 -0.78801074757464917 0.5 0 0 1 I I -0.70710678118654746 0.70710678118654746 0.5 forward I I I I #
loop $-1 $-1 $137 $34 #
coedge $-1 $86 $86 $138 $139 reversed $54 $-1 #
face $-1 $140 $141 $21 $-1 $142 reversed single #
loop $-1 $-1 $143 $56 #
plane-surface $-1 0 -31.910947043369042 0 0 1 0 0 0 1 forward_v I I I I #
coedge $-1 $144 $145 $146 $147 forward $57 $-1 #
coedge $-1 $148 $59 $149 $150 forward $36 $-1 #
coedge $-1 $59 $148 $151 $152 forward $36 $-1 #
coedge $-1 $153 $154 $59 $94 reversed $155 $-1 #
edge $-1 $156 -31.910947043369042 $157 31.910947043369042 $93 $158 forward 7 unknown #
face $-1 $159 $160 $22 $-1 $161 reversed single #
loop $-1 $-1 $101 $60 #
plane-surface $-1 -64.729141460960506 0 -9.1953439237827332 0 0 1 1 0 0 forward_v I I I I #
coedge $-1 $162 $163 $100 $164 forward $61 $-1 #
coedge $-1 $165 $63 $166 $167 reversed $39 $-1 #
coedge $-1 $63 $165 $98 $164 reversed $39 $-1 #
coedge $-1 $168 $169 $63 $102 reversed $96 $-1 #
edge $-1 $170 -31.910947043369042 $171 31.910947043369042 $101 $172 forward 7 unknown #
face $-1 $173 $174 $23 $-1 $175 reversed single #
loop $-1 $-1 $176 $64 #
plane-surface $-1 64.729141460960506 0 -9.1953439237827332 0 0 1 1 0 0 forward_v I I I I #
coedge $-1 $177 $178 $107 $179 forward $65 $-1 #
coedge $-1 $180 $67 $106 $179 reversed $42 $-1 #
coedge $-1 $67 $180 $181 $182 reversed $42 $-1 #
coedge $-1 $183 $184 $67 $110 reversed $104 $-1 #
edge $-1 $185 -31.910947043369042 $186 31.910947043369042 $109 $187 forward 7 unknown #
face $-1 $188 $189 $24 $-1 $190 forward single #
loop $-1 $-1 $191 $68 #
plane-surface $-1 28.504230025391813 -104.51792913406112 97.197965159008817 1 0 0 0 0.61566148304635926 -0.78801074757464917 forward_v I I I I #
coedge $-1 $192 $193 $194 $195 reversed $69 $-1 #
coedge $-1 $116 $71 $196 $197 reversed $45 $-1 #
coedge $-1 $71 $115 $192 $198 reversed $45 $-1 #
coedge $-1 $194 $199 $71 $118 forward $189 $-1 #
edge $-1 $200 20.348017523661518 $201 30.498051806322238 $117 $202 forward 7 unknown #
loop $-1 $-1 $124 $72 #
plane-surface $-1 35.516304369433072 -31.910947043369049 4.2652678700391675 0 -0.61566148304635926 0.78801074757464917 1 0 0 forward_v I I I I #
loop $-1 $-1 $203 $47 #
coedge $-1 $122 $122 $123 $204 reversed $73 $-1 #
coedge $-1 $123 $123 $122 $204 forward $75 $-1 #
coedge $-1 $124 $124 $76 $125 forward $119 $-1 #
edge $-1 $205 2.1872689723294032e-015 $205 6.2831853071796022 $124 $206 forward 7 unknown #
loop $-1 $-1 $131 $77 #
plane-surface $-1 35.516304369433072 -31.910947043369049 4.2652678700391675 0 -0.61566148304635926 0.78801074757464917 1 0 0 forward_v I I I I #
loop $-1 $-1 $207 $50 #
coedge $-1 $129 $129 $130 $208 reversed $78 $-1 #
coedge $-1 $130 $130 $129 $208 forward $80 $-1 #
coedge $-1 $131 $131 $81 $132 forward $126 $-1 #
edge $-1 $209 2.1872689723294032e-015 $209 6.2831853071796022 $131 $210 forward 7 unknown #
loop $-1 $-1 $138 $82 #
plane-surface $-1 35.516304369433072 -31.910947043369049 4.2652678700391675 0 -0.61566148304635926 0.78801074757464917 1 0 0 forward_v I I I I #
loop $-1 $-1 $211 $53 #
coedge $-1 $136 $136 $137 $212 reversed $83 $-1 #
coedge $-1 $137 $137 $136 $212 forward $85 $-1 #
coedge $-1 $138 $138 $86 $139 forward $133 $-1 #
edge $-1 $213 2.1872689723294032e-015 $213 6.2831853071796022 $138 $214 forward 7 unknown #
face $-1 $215 $216 $21 $-1 $217 reversed single #
loop $-1 $-1 $218 $87 #
plane-surface $-1 -58.966643269142736 0 0 1 0 0 0 0 -1 forward_v I I I I #
coedge $-1 $219 $151 $220 $221 forward $88 $-1 #
coedge $-1 $222 $90 $219 $223 forward $57 $-1 #
coedge $-1 $90 $222 $224 $225 forward $57 $-1 #
coedge $-1 $154 $153 $90 $147 reversed $155 $-1 #
edge $-1 $226 -31.910947043369042 $227 31.910947043369042 $146 $228 forward 7 unknown #
coedge $-1 $92 $91 $229 $230 forward $36 $-1 #
coedge $-1 $231 $232 $91 $150 reversed $216 $-1 #
edge $-1 $157 -58.966643269142736 $233 58.966643269142736 $149 $234 forward 7 unknown #
coedge $-1 $143 $235 $92 $152 reversed $88 $-1 #
edge $-1 $236 -58.966643269142736 $156 58.966643269142736 $151 $237 forward 7 unknown #
coedge $-1 $146 $93 $235 $238 forward $155 $-1 #
coedge $-1 $93 $146 $231 $239 reversed $155 $-1 #
loop $-1 $-1 $153 $215 #
vertex $-1 $94 $240 #
vertex $-1 $94 $241 #
straight-curve $-1 58.966643269142736 0 12.195343923782733 0 1 0 I I #
face $-1 $242 $243 $22 $-1 $244 reversed single #
loop $-1 $-1 $245 $95 #
plane-surface $-1 -70.491639652778275 0 -10.695343923782733 1 0 0 0 0 -1 forward_v I I I I #
coedge $-1 $246 $98 $247 $248 reversed $61 $-1 #
coedge $-1 $98 $246 $168 $249 reversed $61 $-1 #
edge $-1 $170 9.1953439237827332 $250 12.195343923782733 $98 $251 forward 7 unknown #
coedge $-1 $100 $99 $252 $253 reversed $39 $-1 #
coedge $-1 $254 $255 $99 $167 forward $256 $-1 #
edge $-1 $257 -12.195343923782733 $171 -9.1953439237827332 $166 $258 forward 7 unknown #
coedge $-1 $259 $101 $163 $249 forward $96 $-1 #
coedge $-1 $101 $259 $254 $260 forward $96 $-1 #
vertex $-1 $164 $261 #
vertex $-1 $260 $262 #
straight-curve $-1 -58.966643269142736 0 -9.1953439237827332 0 -1 0 I I #
face $-1 $263 $264 $23 $-1 $265 reversed single #
loop $-1 $-1 $266 $103 #
plane-surface $-1 70.491639652778275 0 -10.695343923782733 -1 0 0 0 0 1 forward_v I I I I #
coedge $-1 $184 $183 $267 $268 forward $104 $-1 #
coedge $-1 $269 $106 $184 $270 reversed $65 $-1 #
coedge $-1 $106 $269 $271 $272 reversed $65 $-1 #
edge $-1 $273 -12.195343923782733 $186 -9.1953439237827332 $106 $274 forward 7 unknown #
coedge $-1 $108 $107 $275 $276 reversed $42 $-1 #
coedge $-1 $277 $278 $108 $182 forward $279 $-1 #
edge $-1 $185 9.1953439237827332 $280 12.195343923782733 $181 $281 forward 7 unknown #
coedge $-1 $176 $109 $278 $282 forward $104 $-1 #
coedge $-1 $109 $176 $177 $270 forward $104 $-1 #
vertex $-1 $182 $283 #
vertex $-1 $270 $284 #
straight-curve $-1 58.966643269142736 0 -9.1953439237827332 0 1 0 I I #
face $-1 $-1 $285 $24 $-1 $286 reversed single #
loop $-1 $-1 $117 $111 #
plane-surface $-1 0 0 12.195343923782733 0 0 1 1 0 0 forward_v I I I I #
coedge $-1 $287 $288 $289 $290 reversed $112 $-1 #
coedge $-1 $291 $114 $116 $198 forward $69 $-1 #
coedge $-1 $114 $291 $287 $292 forward $69 $-1 #
coedge $-1 $289 $117 $114 $195 forward $189 $-1 #
edge $-1 $201 -24.770226528757796 $293 -10.746077840675277 $194 $294 forward 7 unknown #
coedge $-1 $295 $296 $115 $197 forward $285 $-1 #
edge $-1 $297 -44.333714709465234 $200 -36.403638655721679 $196 $298 forward 7 unknown #
edge $-1 $201 -12.880578486905982 $297 -8.8800565823946346e-015 $116 $299 forward 7 unknown #
coedge $-1 $117 $289 $295 $300 forward $189 $-1 #
vertex $-1 $197 $301 #
vertex $-1 $118 $302 #
straight-curve $-1 42.528378713474332 -52.25896456703056 12.19534392378273 0 1 0 I I #
coedge $-1 $203 $203 $-1 $303 reversed $121 $-1 #
edge $-1 $304 0 $304 6.2831853071796004 $122 $305 forward 7 unknown #
vertex $-1 $125 $306 #
ellipse-curve $-1 31.309059763008307 -26.835929902038686 8.2303058969109522 0 -0.61566148304635926 0.78801074757464917 1 0 0 1 I I #
coedge $-1 $207 $207 $-1 $307 reversed $128 $-1 #
edge $-1 $308 0 $308 6.2831853071796004 $129 $309 forward 7 unknown #
vertex $-1 $132 $310 #
ellipse-curve $-1 35.516304369433058 -26.835929902038686 8.2303058969109522 0 -0.61566148304635926 0.78801074757464917 1 0 0 1 I I #
coedge $-1 $211 $211 $-1 $311 reversed $135 $-1 #
edge $-1 $312 0 $312 6.2831853071796004 $136 $313 forward 7 unknown #
vertex $-1 $139 $314 #
ellipse-curve $-1 39.72354897585781 -26.835929902038686 8.2303058969109522 0 -0.61566148304635926 0.78801074757464917 1 0 0 1 I I #
face $-1 $-1 $155 $21 $-1 $315 reversed single #
loop $-1 $-1 $231 $140 #
plane-surface $-1 0 31.910947043369042 0 0 -1 0 0 0 -1 forward_v I I I I #
coedge $-1 $316 $229 $232 $317 forward $141 $-1 #
coedge $-1 $235 $143 $144 $223 reversed $88 $-1 #
coedge $-1 $229 $316 $143 $221 reversed $141 $-1 #
edge $-1 $236 -12.195343923782733 $318 12.195343923782733 $220 $319 forward 7 unknown #
coedge $-1 $145 $144 $316 $320 forward $57 $-1 #
edge $-1 $227 -58.966643269142736 $318 58.966643269142736 $219 $321 forward 7 unknown #
coedge $-1 $232 $231 $145 $225 reversed $216 $-1 #
edge $-1 $322 -58.966643269142736 $226 58.966643269142736 $224 $323 forward 7 unknown #
vertex $-1 $147 $324 #
vertex $-1 $238 $325 #
straight-curve $-1 58.966643269142736 0 -12.195343923782733 0 -1 0 I I #
coedge $-1 $218 $220 $148 $230 reversed $141 $-1 #
edge $-1 $233 -31.910947043369042 $236 31.910947043369042 $229 $326 forward 7 unknown #
coedge $-1 $224 $149 $154 $239 forward $216 $-1 #
coedge $-1 $149 $224 $218 $317 reversed $216 $-1 #
vertex $-1 $150 $327 #
straight-curve $-1 0 31.910947043369042 12.195343923782733 -1 0 0 I I #
coedge $-1 $151 $219 $153 $238 reversed $88 $-1 #
vertex $-1 $230 $328 #
straight-curve $-1 0 -31.910947043369042 12.195343923782733 1 0 0 I I #
edge $-1 $156 -12.195343923782733 $227 12.195343923782733 $153 $329 forward 7 unknown #
edge $-1 $157 -12.195343923782733 $226 12.195343923782733 $154 $330 forward 7 unknown #
point $-1 58.966643269142736 -31.910947043369042 12.195343923782733 #
point $-1 58.966643269142736 31.910947043369042 12.195343923782733 #
face $-1 $-1 $256 $22 $-1 $331 reversed single #
loop $-1 $-1 $252 $159 #
plane-surface $-1 0 0 -12.195343923782733 0 0 1 1 0 0 forward_v I I I I #
coedge $-1 $332 $333 $246 $334 forward $160 $-1 #
coedge $-1 $163 $162 $245 $334 reversed $61 $-1 #
coedge $-1 $252 $335 $162 $248 forward $243 $-1 #
edge $-1 $336 -70.491639652778275 $250 -58.966643269142736 $162 $337 forward 7 unknown #
edge $-1 $170 -5.7624981918177625 $338 5.7624981918177696 $163 $339 forward 7 unknown #
vertex $-1 $164 $340 #
straight-curve $-1 -58.966643269142736 31.910947043369042 0 0 0 -1 I I #
coedge $-1 $341 $247 $165 $253 forward $243 $-1 #
edge $-1 $250 -31.910947043369042 $257 31.910947043369042 $252 $342 forward 7 unknown #
coedge $-1 $343 $166 $169 $260 reversed $256 $-1 #
coedge $-1 $166 $343 $341 $344 reversed $256 $-1 #
loop $-1 $-1 $166 $242 #
vertex $-1 $344 $345 #
straight-curve $-1 -58.966643269142736 -31.910947043369042 0 0 0 1 I I #
coedge $-1 $169 $168 $333 $346 forward $96 $-1 #
edge $-1 $347 -5.7624981918177696 $171 5.7624981918177625 $254 $348 forward 7 unknown #
point $-1 -58.966643269142743 31.910947043369042 -9.1953439237827332 #
point $-1 -58.966643269142743 -31.910947043369042 -9.1953439237827332 #
face $-1 $-1 $279 $23 $-1 $349 reversed single #
loop $-1 $-1 $275 $173 #
plane-surface $-1 0 0 -12.195343923782733 0 0 1 1 0 0 forward_v I I I I #
coedge $-1 $350 $267 $351 $352 forward $174 $-1 #
coedge $-1 $266 $353 $176 $268 reversed $174 $-1 #
edge $-1 $354 -31.910947043369042 $355 31.910947043369042 $267 $356 forward 7 unknown #
coedge $-1 $178 $177 $353 $357 forward $65 $-1 #
edge $-1 $355 -5.7624981918177696 $186 5.7624981918177696 $177 $358 forward 7 unknown #
coedge $-1 $359 $275 $178 $272 forward $264 $-1 #
edge $-1 $273 -5.7624981918177696 $360 5.7624981918177696 $178 $361 forward 7 unknown #
vertex $-1 $272 $362 #
straight-curve $-1 58.966643269142736 31.910947043369042 0 0 0 1 I I #
coedge $-1 $271 $363 $180 $276 forward $264 $-1 #
edge $-1 $280 -31.910947043369042 $273 31.910947043369042 $275 $364 forward 7 unknown #
coedge $-1 $351 $181 $363 $365 reversed $279 $-1 #
coedge $-1 $181 $351 $183 $282 reversed $279 $-1 #
loop $-1 $-1 $181 $263 #
vertex $-1 $182 $366 #
straight-curve $-1 58.966643269142736 -31.910947043369042 0 0 0 -1 I I #
edge $-1 $185 -5.7624981918177696 $354 5.7624981918177696 $278 $367 forward 7 unknown #
point $-1 58.966643269142736 -31.910947043369042 -9.1953439237827332 #
point $-1 58.966643269142736 31.910947043369042 -9.1953439237827332 #
loop $-1 $-1 $196 $188 #
plane-surface $-1 0 -31.910947043369042 0 0 1 0 0 0 1 forward_v I I I I #
coedge $-1 $288 $191 $193 $292 reversed $112 $-1 #
coedge $-1 $191 $287 $368 $369 reversed $112 $-1 #
coedge $-1 $199 $194 $191 $290 forward $189 $-1 #
edge $-1 $293 -30.498051806322238 $370 -20.348017523661518 $289 $371 forward 7 unknown #
coedge $-1 $193 $192 $296 $372 reversed $69 $-1 #
edge $-1 $373 8.8800565823946346e-015 $293 12.880578486905982 $287 $374 forward 7 unknown #
vertex $-1 $195 $375 #
straight-curve $-1 17.758152184716536 -21.760912760708326 12.195343923782733 -1 0 0 I I #
coedge $-1 $368 $196 $199 $300 reversed $285 $-1 #
coedge $-1 $196 $368 $291 $372 forward $285 $-1 #
vertex $-1 $197 $376 #
straight-curve $-1 42.528378713474332 -31.910947043369042 48.598982579504408 0 0 1 I I #
straight-curve $-1 42.528378713474332 -31.910947043369049 4.2652678700391675 0 -0.78801074757464917 -0.61566148304635926 I I #
edge $-1 $370 28.504230025391813 $200 42.528378713474332 $295 $377 forward 7 unknown #
point $-1 42.528378713474332 -31.910947043369042 12.195343923782733 #
point $-1 42.528378713474332 -21.760912760708322 12.195343923782733 #
edge $-1 $378 1 $378 0 $203 $-1 forward 7 unknown #
vertex $-1 $204 $379 #
ellipse-curve $-1 31.309059763008307 -24.822699754422661 5.6534888678305979 0 -0.61566148304635926 0.78801074757464917 1 0 0 1 I I #
point $-1 32.309059763008307 -26.835929902038686 8.2303058969109557 #
edge $-1 $380 1 $380 0 $207 $-1 forward 7 unknown #
vertex $-1 $208 $381 #
ellipse-curve $-1 35.516304369433058 -24.822699754422661 5.6534888678305979 0 -0.61566148304635926 0.78801074757464917 1 0 0 1 I I #
point $-1 36.516304369433058 -26.835929902038686 8.2303058969109557 #
edge $-1 $382 1 $382 0 $211 $-1 forward 7 unknown #
vertex $-1 $212 $383 #
ellipse-curve $-1 39.72354897585781 -24.822699754422661 5.6534888678305979 0 -0.61566148304635926 0.78801074757464917 1 0 0 1 I I #
point $-1 40.72354897585781 -26.835929902038686 8.2303058969109557 #
plane-surface $-1 58.966643269142736 0 0 -1 0 0 0 0 1 forward_v I I I I #
coedge $-1 $220 $218 $222 $320 reversed $141 $-1 #
edge $-1 $233 -12.195343923782733 $322 12.195343923782733 $232 $384 forward 7 unknown #
vertex $-1 $320 $385 #
straight-curve $-1 -58.966643269142736 -31.910947043369042 0 0 0 -1 I I #
edge $-1 $318 -31.910947043369042 $322 31.910947043369042 $316 $386 forward 7 unknown #
straight-curve $-1 0 -31.910947043369042 -12.195343923782733 -1 0 0 I I #
vertex $-1 $225 $387 #
straight-curve $-1 0 31.910947043369042 -12.195343923782733 1 0 0 I I #
point $-1 58.966643269142736 31.910947043369042 -12.195343923782733 #
point $-1 58.966643269142736 -31.910947043369042 -12.195343923782733 #
straight-curve $-1 -58.966643269142736 0 12.195343923782733 0 -1 0 I I #
point $-1 -58.966643269142736 31.910947043369042 12.195343923782733 #
point $-1 -58.966643269142736 -31.910947043369042 12.195343923782733 #
straight-curve $-1 58.966643269142736 -31.910947043369042 0 0 0 -1 I I #
straight-curve $-1 58.966643269142736 31.910947043369042 0 0 0 -1 I I #
plane-surface $-1 0 -31.910947043369042 0 0 1 0 0 0 1 forward_v I I I I #
coedge $-1 $388 $245 $335 $389 reversed $160 $-1 #
coedge $-1 $245 $388 $259 $346 reversed $160 $-1 #
edge $-1 $338 -1.5 $336 1.5 $246 $390 forward 7 unknown #
coedge $-1 $247 $341 $332 $389 forward $243 $-1 #
vertex $-1 $248 $391 #
straight-curve $-1 0 31.910947043369042 -12.195343923782733 1 0 0 I I #
vertex $-1 $249 $392 #
straight-curve $-1 -64.729141460960506 31.910947043369042 -9.1953439237827332 -1 0 0 I I #
point $-1 -58.966643269142736 31.910947043369042 -12.195343923782733 #
coedge $-1 $335 $252 $255 $344 forward $243 $-1 #
straight-curve $-1 -58.966643269142736 0 -12.195343923782733 0 -1 0 I I #
coedge $-1 $255 $254 $388 $393 forward $256 $-1 #
edge $-1 $257 -5.7624981918177696 $394 5.7624981918177696 $255 $395 forward 7 unknown #
point $-1 -58.966643269142736 -31.910947043369042 -12.195343923782733 #
edge $-1 $338 -31.910947043369042 $347 31.910947043369042 $333 $396 forward 7 unknown #
vertex $-1 $346 $397 #
straight-curve $-1 -64.729141460960506 -31.910947043369042 -9.1953439237827332 1 0 0 I I #
plane-surface $-1 0 -31.910947043369042 0 0 1 0 0 0 1 forward_v I I I I #
coedge $-1 $353 $266 $359 $398 reversed $174 $-1 #
coedge $-1 $278 $277 $266 $352 reversed $279 $-1 #
edge $-1 $354 -1.5 $399 1.5 $266 $400 forward 7 unknown #
coedge $-1 $267 $350 $269 $357 reversed $174 $-1 #
vertex $-1 $268 $401 #
vertex $-1 $268 $402 #
straight-curve $-1 70.491639652778275 0 -9.1953439237827332 0 1 0 I I #
edge $-1 $355 -1.5 $360 1.5 $353 $403 forward 7 unknown #
straight-curve $-1 64.729141460960506 31.910947043369042 -9.1953439237827332 -1 0 0 I I #
coedge $-1 $363 $271 $350 $398 forward $264 $-1 #
vertex $-1 $398 $404 #
straight-curve $-1 64.729141460960506 31.910947043369042 -12.195343923782733 1 0 0 I I #
point $-1 58.966643269142736 31.910947043369042 -12.195343923782733 #
coedge $-1 $275 $359 $277 $365 forward $264 $-1 #
straight-curve $-1 58.966643269142736 0 -12.195343923782733 0 1 0 I I #
edge $-1 $399 -5.7624981918177696 $280 5.7624981918177696 $277 $405 forward 7 unknown #
point $-1 58.966643269142736 -31.910947043369042 -12.195343923782733 #
straight-curve $-1 64.729141460960506 -31.910947043369042 -9.1953439237827332 1 0 0 I I #
coedge $-1 $296 $295 $288 $369 forward $285 $-1 #
edge $-1 $370 36.403638655721679 $373 44.333714709465234 $368 $406 forward 7 unknown #
vertex $-1 $300 $407 #
straight-curve $-1 28.504230025391813 -52.25896456703056 12.19534392378273 0 -1 0 I I #
edge $-1 $373 10.746077840675277 $297 24.770226528757796 $296 $408 forward 7 unknown #
vertex $-1 $372 $409 #
straight-curve $-1 28.504230025391813 -31.910947043369049 4.2652678700391675 0 0.78801074757464917 0.61566148304635926 I I #
point $-1 28.504230025391813 -21.760912760708322 12.195343923782733 #
point $-1 42.528378713474332 -31.910947043369042 4.2652678700391728 #
straight-curve $-1 0 -31.910947043369042 12.195343923782733 1 0 0 I I #
vertex $-1 $303 $410 #
point $-1 32.309059763008307 -24.822699754422661 5.6534888678305979 #
vertex $-1 $307 $411 #
point $-1 36.516304369433058 -24.822699754422661 5.6534888678305979 #
vertex $-1 $311 $412 #
point $-1 40.72354897585781 -24.822699754422661 5.6534888678305979 #
straight-curve $-1 -58.966643269142736 31.910947043369042 0 0 0 -1 I I #
point $-1 -58.966643269142736 -31.910947043369042 -12.195343923782733 #
straight-curve $-1 -58.966643269142736 0 -12.195343923782733 0 1 0 I I #
point $-1 -58.966643269142736 31.910947043369042 -12.195343923782733 #
coedge $-1 $333 $332 $343 $393 reversed $160 $-1 #
edge $-1 $394 -31.910947043369042 $336 31.910947043369042 $332 $413 forward 7 unknown #
straight-curve $-1 -70.491639652778275 31.910947043369042 -10.695343923782733 0 0 -1 I I #
point $-1 -70.491639652778275 31.910947043369042 -12.195343923782733 #
point $-1 -70.491639652778275 31.910947043369042 -9.1953439237827332 #
edge $-1 $347 -1.5 $394 1.5 $388 $414 forward 7 unknown #
vertex $-1 $389 $415 #
straight-curve $-1 -64.729141460960506 -31.910947043369042 -12.195343923782733 -1 0 0 I I #
straight-curve $-1 -70.491639652778275 0 -9.1953439237827332 0 -1 0 I I #
point $-1 -70.491639652778275 -31.910947043369042 -9.1953439237827332 #
edge $-1 $360 -31.910947043369042 $399 31.910947043369042 $350 $416 forward 7 unknown #
vertex $-1 $352 $417 #
straight-curve $-1 70.491639652778275 -31.910947043369042 -10.695343923782733 0 0 -1 I I #
point $-1 70.491639652778275 -31.910947043369042 -9.1953439237827332 #
point $-1 70.491639652778275 31.910947043369042 -9.1953439237827332 #
straight-curve $-1 70.491639652778275 31.910947043369042 -10.695343923782733 0 0 -1 I I #
point $-1 70.491639652778275 31.910947043369042 -12.195343923782733 #
straight-curve $-1 64.729141460960506 -31.910947043369042 -12.195343923782733 -1 0 0 I I #
straight-curve $-1 28.504230025391813 -31.910947043369042 48.598982579504408 0 0 -1 I I #
point $-1 28.504230025391813 -31.910947043369042 12.195343923782733 #
straight-curve $-1 17.758152184716536 -31.910947043369042 4.2652678700391728 1 0 0 I I #
point $-1 28.504230025391813 -31.910947043369042 4.2652678700391728 #
point $-1 31.309059763008307 -24.207038271376302 4.8654781202559487 #
point $-1 35.516304369433058 -24.207038271376302 4.8654781202559487 #
point $-1 39.72354897585781 -24.207038271376302 4.8654781202559487 #
straight-curve $-1 -70.491639652778275 0 -12.195343923782733 0 1 0 I I #
straight-curve $-1 -70.491639652778275 -31.910947043369042 -10.695343923782733 0 0 -1 I I #
point $-1 -70.491639652778275 -31.910947043369042 -12.195343923782733 #
straight-curve $-1 70.491639652778275 0 -12.195343923782733 0 -1 0 I I #
point $-1 70.491639652778275 -31.910947043369042 -12.195343923782733 #
End-of-ACIS-data 