500 0 15 0           
7 Unknown 11 ACIS 5.0 NT 24 Thu Mar 25 23:13:33 1999 
-1 9.9999999999999995e-007 1e-010 
body $-1 $15 $-1 $16 #
body $-1 $17 $-1 $18 #
body $-1 $19 $-1 $20 #
body $-1 $21 $-1 $22 #
body $-1 $23 $-1 $24 #
body $-1 $25 $-1 $26 #
body $-1 $27 $-1 $28 #
body $-1 $29 $-1 $30 #
body $-1 $31 $-1 $32 #
body $-1 $33 $-1 $34 #
body $-1 $35 $-1 $36 #
body $-1 $37 $-1 $38 #
body $-1 $39 $-1 $40 #
body $-1 $41 $-1 $42 #
body $-1 $43 $-1 $44 #
lump $-1 $-1 $45 $0 #
transform $-1 1 0 0 0 1 0 0 0 1 72.586443678090774 40.529627823419325 10.93051915267057 1 rotate no_reflect no_shear #
lump $-1 $-1 $46 $1 #
transform $-1 1 0 0 0 0.82903756765294845 0.55919291073839883 0 -0.55919291073839883 0.82903756765294845 7.5939194387853357 -81.179649441000862 132.61641661759739 1 rotate no_reflect no_shear #
lump $-1 $-1 $47 $2 #
transform $-1 1 0 0 0 -0.82903756765294845 -0.55919291073839883 0 0.55919291073839883 -0.82903756765294845 4.3393825364487633 9.7738149266925802 13.120140456016854 1 rotate no_reflect no_shear #
lump $-1 $-1 $48 $3 #
transform $-1 1 0 0 0 -0.82903756765294845 -0.55919291073839883 0 0.55919291073839883 -0.82903756765294845 10.848456341121908 9.7738149266925802 13.120140456016854 1 rotate no_reflect no_shear #
lump $-1 $-1 $49 $4 #
transform $-1 1 0 0 0 0.82903756765294845 0.55919291073839883 0 -0.55919291073839883 0.82903756765294845 137.57896791739623 -81.179649441000862 132.61641661759739 1 rotate no_reflect no_shear #
lump $-1 $-1 $50 $5 #
transform $-1 1 0 0 0 -0.82903756765294845 -0.55919291073839883 0 0.55919291073839883 -0.82903756765294845 134.32443101505964 9.7738149266925802 13.120140456016854 1 rotate no_reflect no_shear #
lump $-1 $-1 $51 $6 #
transform $-1 1 0 0 0 -0.82903756765294845 -0.55919291073839883 0 0.55919291073839883 -0.82903756765294845 140.83350481973278 9.7738149266925802 13.120140456016854 1 rotate no_reflect no_shear #
lump $-1 $-1 $52 $7 #
transform $-1 1 0 0 0 0.69465836192734942 -0.71933980857756763 0 0.71933980857756763 0.69465836192734942 20.912954028498103 129.17940290160385 170.78493058094111 1 rotate no_reflect no_shear #
lump $-1 $-1 $53 $8 #
transform $-1 1 0 0 0 -0.69465836192734942 0.71933980857756763 0 -0.71933980857756763 -0.69465836192734942 20.912954028498103 72.88862350323808 13.6257408128752 1 rotate no_reflect no_shear #
lump $-1 $-1 $54 $9 #
transform $-1 1 0 0 0 0.69465836192734942 -0.71933980857756763 0 0.71933980857756763 0.69465836192734942 55.361947128226547 129.17940290160385 170.78493058094111 1 rotate no_reflect no_shear #
lump $-1 $-1 $55 $10 #
transform $-1 1 0 0 0 -0.69465836192734942 0.71933980857756763 0 -0.71933980857756763 -0.69465836192734942 55.361947128226547 72.88862350323808 13.6257408128752 1 rotate no_reflect no_shear #
lump $-1 $-1 $56 $11 #
transform $-1 1 0 0 0 0.69465836192734942 -0.71933980857756763 0 0.71933980857756763 0.69465836192734942 89.810940227955001 129.17940290160385 170.78493058094111 1 rotate no_reflect no_shear #
lump $-1 $-1 $57 $12 #
transform $-1 1 0 0 0 -0.69465836192734942 0.71933980857756763 0 -0.71933980857756763 -0.69465836192734942 89.810940227955001 72.88862350323808 13.6257408128752 1 rotate no_reflect no_shear #
lump $-1 $-1 $58 $13 #
transform $-1 1 0 0 0 0.69465836192734942 -0.71933980857756763 0 0.71933980857756763 0.69465836192734942 124.25993332768346 129.17940290160385 170.78493058094111 1 rotate no_reflect no_shear #
lump $-1 $-1 $59 $14 #
transform $-1 1 0 0 0 -0.69465836192734942 0.71933980857756763 0 -0.71933980857756763 -0.69465836192734942 124.25993332768346 72.88862350323808 13.6257408128752 1 rotate no_reflect no_shear #
shell $-1 $-1 $-1 $60 $-1 $15 #
shell $-1 $-1 $-1 $61 $-1 $17 #
shell $-1 $-1 $-1 $62 $-1 $19 #
shell $-1 $-1 $-1 $63 $-1 $21 #
shell $-1 $-1 $-1 $64 $-1 $23 #
shell $-1 $-1 $-1 $65 $-1 $25 #
shell $-1 $-1 $-1 $66 $-1 $27 #
shell $-1 $-1 $-1 $67 $-1 $29 #
shell $-1 $-1 $-1 $68 $-1 $31 #
shell $-1 $-1 $-1 $69 $-1 $33 #
shell $-1 $-1 $-1 $70 $-1 $35 #
shell $-1 $-1 $-1 $71 $-1 $37 #
shell $-1 $-1 $-1 $72 $-1 $39 #
shell $-1 $-1 $-1 $73 $-1 $41 #
shell $-1 $-1 $-1 $74 $-1 $43 #
face $-1 $75 $76 $45 $-1 $77 forward single #
face $-1 $78 $79 $46 $-1 $80 forward single #
face $-1 $81 $82 $47 $-1 $83 forward single #
face $-1 $84 $85 $48 $-1 $86 forward single #
face $-1 $87 $88 $49 $-1 $89 forward single #
face $-1 $90 $91 $50 $-1 $92 forward single #
face $-1 $93 $94 $51 $-1 $95 forward single #
face $-1 $96 $97 $52 $-1 $98 forward single #
face $-1 $99 $100 $53 $-1 $101 forward single #
face $-1 $102 $103 $54 $-1 $104 forward single #
face $-1 $105 $106 $55 $-1 $107 forward single #
face $-1 $108 $109 $56 $-1 $110 forward single #
face $-1 $111 $112 $57 $-1 $113 forward single #
face $-1 $114 $115 $58 $-1 $116 forward single #
face $-1 $117 $118 $59 $-1 $119 forward single #
face $-1 $120 $121 $45 $-1 $122 reversed single #
loop $-1 $-1 $123 $60 #
plane-surface $-1 0 0 10.93051915267057 0 0 1 1 0 0 forward_v I I I I #
face $-1 $124 $125 $46 $-1 $126 reversed single #
loop $-1 $-1 $127 $61 #
plane-surface $-1 0 0 145.17288735618155 0 0 1 1 0 0 forward_v I I I I #
face $-1 $128 $129 $47 $-1 $130 forward single #
loop $-1 $131 $132 $62 #
cone-surface $-1 0 0 -2.7522736289559617 0 0 1 1.5 0 0 1 I I 0 1 1.5 forward I I I I #
face $-1 $133 $134 $48 $-1 $135 forward single #
loop $-1 $136 $137 $63 #
cone-surface $-1 0 0 -2.7522736289559617 0 0 1 1.5 0 0 1 I I 0 1 1.5 forward I I I I #
face $-1 $138 $139 $49 $-1 $140 reversed single #
loop $-1 $-1 $141 $64 #
plane-surface $-1 0 0 145.17288735618155 0 0 1 1 0 0 forward_v I I I I #
face $-1 $142 $143 $50 $-1 $144 forward single #
loop $-1 $145 $146 $65 #
cone-surface $-1 0 0 -2.7522736289559617 0 0 1 1.5 0 0 1 I I 0 1 1.5 forward I I I I #
face $-1 $147 $148 $51 $-1 $149 forward single #
loop $-1 $150 $151 $66 #
cone-surface $-1 0 0 -2.7522736289559617 0 0 1 1.5 0 0 1 I I 0 1 1.5 forward I I I I #
face $-1 $152 $153 $52 $-1 $154 reversed single #
loop $-1 $-1 $155 $67 #
plane-surface $-1 0 0 145.17288735618155 0 0 1 1 0 0 forward_v I I I I #
face $-1 $156 $157 $53 $-1 $158 forward single #
loop $-1 $159 $160 $68 #
cone-surface $-1 0 0 -2.7456282235175635 0 0 1 2 0 0 1 I I 0 1 2 forward I I I I #
face $-1 $161 $162 $54 $-1 $163 reversed single #
loop $-1 $-1 $164 $69 #
plane-surface $-1 0 0 145.17288735618155 0 0 1 1 0 0 forward_v I I I I #
face $-1 $165 $166 $55 $-1 $167 forward single #
loop $-1 $168 $169 $70 #
cone-surface $-1 0 0 -2.7456282235175635 0 0 1 2 0 0 1 I I 0 1 2 forward I I I I #
face $-1 $170 $171 $56 $-1 $172 reversed single #
loop $-1 $-1 $173 $71 #
plane-surface $-1 0 0 145.17288735618155 0 0 1 1 0 0 forward_v I I I I #
face $-1 $174 $175 $57 $-1 $176 forward single #
loop $-1 $177 $178 $72 #
cone-surface $-1 0 0 -2.7456282235175635 0 0 1 2 0 0 1 I I 0 1 2 forward I I I I #
face $-1 $179 $180 $58 $-1 $181 reversed single #
loop $-1 $-1 $182 $73 #
plane-surface $-1 0 0 145.17288735618155 0 0 1 1 0 0 forward_v I I I I #
face $-1 $183 $184 $59 $-1 $185 forward single #
loop $-1 $186 $187 $74 #
cone-surface $-1 0 0 -2.7456282235175635 0 0 1 2 0 0 1 I I 0 1 2 forward I I I I #
face $-1 $188 $189 $45 $-1 $190 reversed single #
loop $-1 $-1 $191 $75 #
plane-surface $-1 0 0 -10.93051915267057 0 0 1 1 0 0 forward_v I I I I #
coedge $-1 $192 $193 $194 $195 forward $76 $-1 #
face $-1 $196 $197 $46 $-1 $198 reversed single #
loop $-1 $-1 $199 $78 #
plane-surface $-1 0 0 -145.17288735618155 0 0 1 1 0 0 forward_v I I I I #
coedge $-1 $200 $201 $202 $203 forward $79 $-1 #
face $-1 $-1 $204 $47 $-1 $205 forward single #
loop $-1 $-1 $206 $81 #
plane-surface $-1 0 0 -4.7545472579119235 0 0 -1 -1 0 0 forward_v I I I I #
loop $-1 $-1 $207 $62 #
coedge $-1 $132 $132 $206 $208 reversed $82 $-1 #
face $-1 $-1 $209 $48 $-1 $210 forward single #
loop $-1 $-1 $211 $84 #
plane-surface $-1 0 0 -4.7545472579119235 0 0 -1 -1 0 0 forward_v I I I I #
loop $-1 $-1 $212 $63 #
coedge $-1 $137 $137 $211 $213 reversed $85 $-1 #
face $-1 $214 $215 $49 $-1 $216 reversed single #
loop $-1 $-1 $217 $87 #
plane-surface $-1 0 0 -145.17288735618155 0 0 1 1 0 0 forward_v I I I I #
coedge $-1 $218 $219 $220 $221 forward $88 $-1 #
face $-1 $-1 $222 $50 $-1 $223 forward single #
loop $-1 $-1 $224 $90 #
plane-surface $-1 0 0 -4.7545472579119235 0 0 -1 -1 0 0 forward_v I I I I #
loop $-1 $-1 $225 $65 #
coedge $-1 $146 $146 $224 $226 reversed $91 $-1 #
face $-1 $-1 $227 $51 $-1 $228 forward single #
loop $-1 $-1 $229 $93 #
plane-surface $-1 0 0 -4.7545472579119235 0 0 -1 -1 0 0 forward_v I I I I #
loop $-1 $-1 $230 $66 #
coedge $-1 $151 $151 $229 $231 reversed $94 $-1 #
face $-1 $232 $233 $52 $-1 $234 reversed single #
loop $-1 $-1 $235 $96 #
plane-surface $-1 0 0 -145.17288735618155 0 0 1 1 0 0 forward_v I I I I #
coedge $-1 $236 $237 $238 $239 forward $97 $-1 #
face $-1 $-1 $240 $53 $-1 $241 forward single #
loop $-1 $-1 $242 $99 #
plane-surface $-1 0 0 -4.4912564470351271 0 0 -1 -1 0 0 forward_v I I I I #
loop $-1 $-1 $243 $68 #
coedge $-1 $160 $160 $242 $244 reversed $100 $-1 #
face $-1 $245 $246 $54 $-1 $247 reversed single #
loop $-1 $-1 $248 $102 #
plane-surface $-1 0 0 -145.17288735618155 0 0 1 1 0 0 forward_v I I I I #
coedge $-1 $249 $250 $251 $252 forward $103 $-1 #
face $-1 $-1 $253 $55 $-1 $254 forward single #
loop $-1 $-1 $255 $105 #
plane-surface $-1 0 0 -4.4912564470351271 0 0 -1 -1 0 0 forward_v I I I I #
loop $-1 $-1 $256 $70 #
coedge $-1 $169 $169 $255 $257 reversed $106 $-1 #
face $-1 $258 $259 $56 $-1 $260 reversed single #
loop $-1 $-1 $261 $108 #
plane-surface $-1 0 0 -145.17288735618155 0 0 1 1 0 0 forward_v I I I I #
coedge $-1 $262 $263 $264 $265 forward $109 $-1 #
face $-1 $-1 $266 $57 $-1 $267 forward single #
loop $-1 $-1 $268 $111 #
plane-surface $-1 0 0 -4.4912564470351271 0 0 -1 -1 0 0 forward_v I I I I #
loop $-1 $-1 $269 $72 #
coedge $-1 $178 $178 $268 $270 reversed $112 $-1 #
face $-1 $271 $272 $58 $-1 $273 reversed single #
loop $-1 $-1 $274 $114 #
plane-surface $-1 0 0 -145.17288735618155 0 0 1 1 0 0 forward_v I I I I #
coedge $-1 $275 $276 $277 $278 forward $115 $-1 #
face $-1 $-1 $279 $59 $-1 $280 forward single #
loop $-1 $-1 $281 $117 #
plane-surface $-1 0 0 -4.4912564470351271 0 0 -1 -1 0 0 forward_v I I I I #
loop $-1 $-1 $282 $74 #
coedge $-1 $187 $187 $281 $283 reversed $118 $-1 #
face $-1 $284 $285 $45 $-1 $286 reversed single #
loop $-1 $-1 $287 $120 #
plane-surface $-1 0 -40.529627823419325 0 0 1 0 0 0 1 forward_v I I I I #
coedge $-1 $288 $289 $290 $291 forward $121 $-1 #
coedge $-1 $292 $123 $293 $294 forward $76 $-1 #
coedge $-1 $123 $292 $295 $296 forward $76 $-1 #
coedge $-1 $297 $298 $123 $195 reversed $299 $-1 #
edge $-1 $300 -40.529627823419325 $301 40.529627823419325 $194 $302 forward 7 unknown #
face $-1 $303 $304 $46 $-1 $305 reversed single #
loop $-1 $-1 $306 $124 #
plane-surface $-1 0 -290.3457747123631 0 0 1 0 0 0 1 forward_v I I I I #
coedge $-1 $307 $308 $309 $310 forward $125 $-1 #
coedge $-1 $311 $127 $312 $313 forward $79 $-1 #
coedge $-1 $127 $311 $314 $315 forward $79 $-1 #
coedge $-1 $316 $317 $127 $203 reversed $318 $-1 #
edge $-1 $319 -290.3457747123631 $320 290.3457747123631 $202 $321 forward 7 unknown #
loop $-1 $322 $323 $128 #
cone-surface $-1 0 0 0 0 0 1 0.75 0 0 1 I I -0.70710678118654757 0.70710678118654757 0.75 forward I I I I #
coedge $-1 $206 $206 $132 $208 forward $129 $-1 #
coedge $-1 $207 $207 $323 $324 forward $131 $-1 #
edge $-1 $325 0 $325 6.2831853071796004 $206 $326 forward 7 unknown #
loop $-1 $327 $328 $133 #
cone-surface $-1 0 0 0 0 0 1 0.75 0 0 1 I I -0.70710678118654757 0.70710678118654757 0.75 forward I I I I #
coedge $-1 $211 $211 $137 $213 forward $134 $-1 #
coedge $-1 $212 $212 $328 $329 forward $136 $-1 #
edge $-1 $330 0 $330 6.2831853071796004 $211 $331 forward 7 unknown #
face $-1 $332 $333 $49 $-1 $334 reversed single #
loop $-1 $-1 $335 $138 #
plane-surface $-1 0 -290.3457747123631 0 0 1 0 0 0 1 forward_v I I I I #
coedge $-1 $336 $337 $338 $339 forward $139 $-1 #
coedge $-1 $340 $141 $341 $342 forward $88 $-1 #
coedge $-1 $141 $340 $343 $344 forward $88 $-1 #
coedge $-1 $345 $346 $141 $221 reversed $347 $-1 #
edge $-1 $348 -290.3457747123631 $349 290.3457747123631 $220 $350 forward 7 unknown #
loop $-1 $351 $352 $142 #
cone-surface $-1 0 0 0 0 0 1 0.75 0 0 1 I I -0.70710678118654757 0.70710678118654757 0.75 forward I I I I #
coedge $-1 $224 $224 $146 $226 forward $143 $-1 #
coedge $-1 $225 $225 $352 $353 forward $145 $-1 #
edge $-1 $354 0 $354 6.2831853071796004 $224 $355 forward 7 unknown #
loop $-1 $356 $357 $147 #
cone-surface $-1 0 0 0 0 0 1 0.75 0 0 1 I I -0.70710678118654757 0.70710678118654757 0.75 forward I I I I #
coedge $-1 $229 $229 $151 $231 forward $148 $-1 #
coedge $-1 $230 $230 $357 $358 forward $150 $-1 #
edge $-1 $359 0 $359 6.2831853071796004 $229 $360 forward 7 unknown #
face $-1 $361 $362 $52 $-1 $363 reversed single #
loop $-1 $-1 $364 $152 #
plane-surface $-1 0 -290.3457747123631 0 0 1 0 0 0 1 forward_v I I I I #
coedge $-1 $365 $366 $367 $368 forward $153 $-1 #
coedge $-1 $369 $155 $370 $371 forward $97 $-1 #
coedge $-1 $155 $369 $372 $373 forward $97 $-1 #
coedge $-1 $374 $375 $155 $239 reversed $376 $-1 #
edge $-1 $377 -290.3457747123631 $378 290.3457747123631 $238 $379 forward 7 unknown #
loop $-1 $380 $381 $156 #
cone-surface $-1 0 0 0 0 0 1 1 0 0 1 I I -0.70710678118654746 0.70710678118654746 1 forward I I I I #
coedge $-1 $242 $242 $160 $244 forward $157 $-1 #
coedge $-1 $243 $243 $381 $382 forward $159 $-1 #
edge $-1 $383 0 $383 6.2831853071796004 $242 $384 forward 7 unknown #
face $-1 $385 $386 $54 $-1 $387 reversed single #
loop $-1 $-1 $388 $161 #
plane-surface $-1 0 -290.3457747123631 0 0 1 0 0 0 1 forward_v I I I I #
coedge $-1 $389 $390 $391 $392 forward $162 $-1 #
coedge $-1 $393 $164 $394 $395 forward $103 $-1 #
coedge $-1 $164 $393 $396 $397 forward $103 $-1 #
coedge $-1 $398 $399 $164 $252 reversed $400 $-1 #
edge $-1 $401 -290.3457747123631 $402 290.3457747123631 $251 $403 forward 7 unknown #
loop $-1 $404 $405 $165 #
cone-surface $-1 0 0 0 0 0 1 1 0 0 1 I I -0.70710678118654746 0.70710678118654746 1 forward I I I I #
coedge $-1 $255 $255 $169 $257 forward $166 $-1 #
coedge $-1 $256 $256 $405 $406 forward $168 $-1 #
edge $-1 $407 0 $407 6.2831853071796004 $255 $408 forward 7 unknown #
face $-1 $409 $410 $56 $-1 $411 reversed single #
loop $-1 $-1 $412 $170 #
plane-surface $-1 0 -290.3457747123631 0 0 1 0 0 0 1 forward_v I I I I #
coedge $-1 $413 $414 $415 $416 forward $171 $-1 #
coedge $-1 $417 $173 $418 $419 forward $109 $-1 #
coedge $-1 $173 $417 $420 $421 forward $109 $-1 #
coedge $-1 $422 $423 $173 $265 reversed $424 $-1 #
edge $-1 $425 -290.3457747123631 $426 290.3457747123631 $264 $427 forward 7 unknown #
loop $-1 $428 $429 $174 #
cone-surface $-1 0 0 0 0 0 1 1 0 0 1 I I -0.70710678118654746 0.70710678118654746 1 forward I I I I #
coedge $-1 $268 $268 $178 $270 forward $175 $-1 #
coedge $-1 $269 $269 $429 $430 forward $177 $-1 #
edge $-1 $431 0 $431 6.2831853071796004 $268 $432 forward 7 unknown #
face $-1 $433 $434 $58 $-1 $435 reversed single #
loop $-1 $-1 $436 $179 #
plane-surface $-1 0 -290.3457747123631 0 0 1 0 0 0 1 forward_v I I I I #
coedge $-1 $437 $438 $439 $440 forward $180 $-1 #
coedge $-1 $441 $182 $442 $443 forward $115 $-1 #
coedge $-1 $182 $441 $444 $445 forward $115 $-1 #
coedge $-1 $446 $447 $182 $278 reversed $448 $-1 #
edge $-1 $449 -290.3457747123631 $450 290.3457747123631 $277 $451 forward 7 unknown #
loop $-1 $452 $453 $183 #
cone-surface $-1 0 0 0 0 0 1 1 0 0 1 I I -0.70710678118654746 0.70710678118654746 1 forward I I I I #
coedge $-1 $281 $281 $187 $283 forward $184 $-1 #
coedge $-1 $282 $282 $453 $454 forward $186 $-1 #
edge $-1 $455 0 $455 6.2831853071796004 $281 $456 forward 7 unknown #
face $-1 $457 $458 $45 $-1 $459 reversed single #
loop $-1 $-1 $460 $188 #
plane-surface $-1 -72.586443678090774 0 0 1 0 0 0 0 -1 forward_v I I I I #
coedge $-1 $461 $295 $462 $463 forward $189 $-1 #
coedge $-1 $464 $191 $461 $465 forward $121 $-1 #
coedge $-1 $191 $464 $466 $467 forward $121 $-1 #
coedge $-1 $298 $297 $191 $291 reversed $299 $-1 #
edge $-1 $468 -40.529627823419325 $469 40.529627823419325 $290 $470 forward 7 unknown #
coedge $-1 $193 $192 $471 $472 forward $76 $-1 #
coedge $-1 $473 $474 $192 $294 reversed $458 $-1 #
edge $-1 $301 -72.586443678090774 $475 72.586443678090774 $293 $476 forward 7 unknown #
coedge $-1 $287 $477 $193 $296 reversed $189 $-1 #
edge $-1 $478 -72.586443678090774 $300 72.586443678090774 $295 $479 forward 7 unknown #
coedge $-1 $290 $194 $477 $480 forward $299 $-1 #
coedge $-1 $194 $290 $473 $481 reversed $299 $-1 #
loop $-1 $-1 $297 $457 #
vertex $-1 $195 $482 #
vertex $-1 $195 $483 #
straight-curve $-1 72.586443678090774 0 10.93051915267057 0 1 0 I I #
face $-1 $484 $485 $46 $-1 $486 reversed single #
loop $-1 $-1 $487 $196 #
plane-surface $-1 -7.5939194387853357 0 0 1 0 0 0 0 -1 forward_v I I I I #
coedge $-1 $488 $314 $489 $490 forward $197 $-1 #
coedge $-1 $491 $199 $488 $492 forward $125 $-1 #
coedge $-1 $199 $491 $493 $494 forward $125 $-1 #
coedge $-1 $317 $316 $199 $310 reversed $318 $-1 #
edge $-1 $495 -290.3457747123631 $496 290.3457747123631 $309 $497 forward 7 unknown #
coedge $-1 $201 $200 $498 $499 forward $79 $-1 #
coedge $-1 $500 $501 $200 $313 reversed $485 $-1 #
edge $-1 $320 -7.5939194387853357 $502 7.5939194387853357 $312 $503 forward 7 unknown #
coedge $-1 $306 $504 $201 $315 reversed $197 $-1 #
edge $-1 $505 -7.5939194387853357 $319 7.5939194387853357 $314 $506 forward 7 unknown #
coedge $-1 $309 $202 $504 $507 forward $318 $-1 #
coedge $-1 $202 $309 $500 $508 reversed $318 $-1 #
loop $-1 $-1 $316 $484 #
vertex $-1 $203 $509 #
vertex $-1 $203 $510 #
straight-curve $-1 7.5939194387853357 0 145.17288735618155 0 1 0 I I #
loop $-1 $-1 $511 $128 #
coedge $-1 $323 $323 $207 $324 reversed $204 $-1 #
edge $-1 $512 0 $512 6.2831853071796004 $323 $513 forward 7 unknown #
vertex $-1 $208 $514 #
ellipse-curve $-1 0 0 -4.7545472579119235 0 0 -1 1.5 0 0 1 I I #
loop $-1 $-1 $515 $133 #
coedge $-1 $328 $328 $212 $329 reversed $209 $-1 #
edge $-1 $516 0 $516 6.2831853071796004 $328 $517 forward 7 unknown #
vertex $-1 $213 $518 #
ellipse-curve $-1 0 0 -4.7545472579119235 0 0 -1 1.5 0 0 1 I I #
face $-1 $519 $520 $49 $-1 $521 reversed single #
loop $-1 $-1 $522 $214 #
plane-surface $-1 -7.5939194387853357 0 0 1 0 0 0 0 -1 forward_v I I I I #
coedge $-1 $523 $343 $524 $525 forward $215 $-1 #
coedge $-1 $526 $217 $523 $527 forward $139 $-1 #
coedge $-1 $217 $526 $528 $529 forward $139 $-1 #
coedge $-1 $346 $345 $217 $339 reversed $347 $-1 #
edge $-1 $530 -290.3457747123631 $531 290.3457747123631 $338 $532 forward 7 unknown #
coedge $-1 $219 $218 $533 $534 forward $88 $-1 #
coedge $-1 $535 $536 $218 $342 reversed $520 $-1 #
edge $-1 $349 -7.5939194387853357 $537 7.5939194387853357 $341 $538 forward 7 unknown #
coedge $-1 $335 $539 $219 $344 reversed $215 $-1 #
edge $-1 $540 -7.5939194387853357 $348 7.5939194387853357 $343 $541 forward 7 unknown #
coedge $-1 $338 $220 $539 $542 forward $347 $-1 #
coedge $-1 $220 $338 $535 $543 reversed $347 $-1 #
loop $-1 $-1 $345 $519 #
vertex $-1 $221 $544 #
vertex $-1 $221 $545 #
straight-curve $-1 7.5939194387853357 0 145.17288735618155 0 1 0 I I #
loop $-1 $-1 $546 $142 #
coedge $-1 $352 $352 $225 $353 reversed $222 $-1 #
edge $-1 $547 0 $547 6.2831853071796004 $352 $548 forward 7 unknown #
vertex $-1 $226 $549 #
ellipse-curve $-1 0 0 -4.7545472579119235 0 0 -1 1.5 0 0 1 I I #
loop $-1 $-1 $550 $147 #
coedge $-1 $357 $357 $230 $358 reversed $227 $-1 #
edge $-1 $551 0 $551 6.2831853071796004 $357 $552 forward 7 unknown #
vertex $-1 $231 $553 #
ellipse-curve $-1 0 0 -4.7545472579119235 0 0 -1 1.5 0 0 1 I I #
face $-1 $554 $555 $52 $-1 $556 reversed single #
loop $-1 $-1 $557 $232 #
plane-surface $-1 -9.7833420776976858 0 0 1 0 0 0 0 -1 forward_v I I I I #
coedge $-1 $558 $372 $559 $560 forward $233 $-1 #
coedge $-1 $561 $235 $558 $562 forward $153 $-1 #
coedge $-1 $235 $561 $563 $564 forward $153 $-1 #
coedge $-1 $375 $374 $235 $368 reversed $376 $-1 #
edge $-1 $565 -290.3457747123631 $566 290.3457747123631 $367 $567 forward 7 unknown #
coedge $-1 $237 $236 $568 $569 forward $97 $-1 #
coedge $-1 $570 $571 $236 $371 reversed $555 $-1 #
edge $-1 $378 -9.7833420776976858 $572 9.7833420776976858 $370 $573 forward 7 unknown #
coedge $-1 $364 $574 $237 $373 reversed $233 $-1 #
edge $-1 $575 -9.7833420776976858 $377 9.7833420776976858 $372 $576 forward 7 unknown #
coedge $-1 $367 $238 $574 $577 forward $376 $-1 #
coedge $-1 $238 $367 $570 $578 reversed $376 $-1 #
loop $-1 $-1 $374 $554 #
vertex $-1 $239 $579 #
vertex $-1 $239 $580 #
straight-curve $-1 9.7833420776976858 0 145.17288735618155 0 1 0 I I #
loop $-1 $-1 $581 $156 #
coedge $-1 $381 $381 $243 $382 reversed $240 $-1 #
edge $-1 $582 0 $582 6.2831853071796004 $381 $583 forward 7 unknown #
vertex $-1 $244 $584 #
ellipse-curve $-1 0 0 -4.4912564470351271 0 0 -1 2 0 0 1 I I #
face $-1 $585 $586 $54 $-1 $587 reversed single #
loop $-1 $-1 $588 $245 #
plane-surface $-1 -9.7833420776976858 0 0 1 0 0 0 0 -1 forward_v I I I I #
coedge $-1 $589 $396 $590 $591 forward $246 $-1 #
coedge $-1 $592 $248 $589 $593 forward $162 $-1 #
coedge $-1 $248 $592 $594 $595 forward $162 $-1 #
coedge $-1 $399 $398 $248 $392 reversed $400 $-1 #
edge $-1 $596 -290.3457747123631 $597 290.3457747123631 $391 $598 forward 7 unknown #
coedge $-1 $250 $249 $599 $600 forward $103 $-1 #
coedge $-1 $601 $602 $249 $395 reversed $586 $-1 #
edge $-1 $402 -9.7833420776976858 $603 9.7833420776976858 $394 $604 forward 7 unknown #
coedge $-1 $388 $605 $250 $397 reversed $246 $-1 #
edge $-1 $606 -9.7833420776976858 $401 9.7833420776976858 $396 $607 forward 7 unknown #
coedge $-1 $391 $251 $605 $608 forward $400 $-1 #
coedge $-1 $251 $391 $601 $609 reversed $400 $-1 #
loop $-1 $-1 $398 $585 #
vertex $-1 $252 $610 #
vertex $-1 $252 $611 #
straight-curve $-1 9.7833420776976858 0 145.17288735618155 0 1 0 I I #
loop $-1 $-1 $612 $165 #
coedge $-1 $405 $405 $256 $406 reversed $253 $-1 #
edge $-1 $613 0 $613 6.2831853071796004 $405 $614 forward 7 unknown #
vertex $-1 $257 $615 #
ellipse-curve $-1 0 0 -4.4912564470351271 0 0 -1 2 0 0 1 I I #
face $-1 $616 $617 $56 $-1 $618 reversed single #
loop $-1 $-1 $619 $258 #
plane-surface $-1 -9.7833420776976858 0 0 1 0 0 0 0 -1 forward_v I I I I #
coedge $-1 $620 $420 $621 $622 forward $259 $-1 #
coedge $-1 $623 $261 $620 $624 forward $171 $-1 #
coedge $-1 $261 $623 $625 $626 forward $171 $-1 #
coedge $-1 $423 $422 $261 $416 reversed $424 $-1 #
edge $-1 $627 -290.3457747123631 $628 290.3457747123631 $415 $629 forward 7 unknown #
coedge $-1 $263 $262 $630 $631 forward $109 $-1 #
coedge $-1 $632 $633 $262 $419 reversed $617 $-1 #
edge $-1 $426 -9.7833420776976858 $634 9.7833420776976858 $418 $635 forward 7 unknown #
coedge $-1 $412 $636 $263 $421 reversed $259 $-1 #
edge $-1 $637 -9.7833420776976858 $425 9.7833420776976858 $420 $638 forward 7 unknown #
coedge $-1 $415 $264 $636 $639 forward $424 $-1 #
coedge $-1 $264 $415 $632 $640 reversed $424 $-1 #
loop $-1 $-1 $422 $616 #
vertex $-1 $265 $641 #
vertex $-1 $265 $642 #
straight-curve $-1 9.7833420776976858 0 145.17288735618155 0 1 0 I I #
loop $-1 $-1 $643 $174 #
coedge $-1 $429 $429 $269 $430 reversed $266 $-1 #
edge $-1 $644 0 $644 6.2831853071796004 $429 $645 forward 7 unknown #
vertex $-1 $270 $646 #
ellipse-curve $-1 0 0 -4.4912564470351271 0 0 -1 2 0 0 1 I I #
face $-1 $647 $648 $58 $-1 $649 reversed single #
loop $-1 $-1 $650 $271 #
plane-surface $-1 -9.7833420776976858 0 0 1 0 0 0 0 -1 forward_v I I I I #
coedge $-1 $651 $444 $652 $653 forward $272 $-1 #
coedge $-1 $654 $274 $651 $655 forward $180 $-1 #
coedge $-1 $274 $654 $656 $657 forward $180 $-1 #
coedge $-1 $447 $446 $274 $440 reversed $448 $-1 #
edge $-1 $658 -290.3457747123631 $659 290.3457747123631 $439 $660 forward 7 unknown #
coedge $-1 $276 $275 $661 $662 forward $115 $-1 #
coedge $-1 $663 $664 $275 $443 reversed $648 $-1 #
edge $-1 $450 -9.7833420776976858 $665 9.7833420776976858 $442 $666 forward 7 unknown #
coedge $-1 $436 $667 $276 $445 reversed $272 $-1 #
edge $-1 $668 -9.7833420776976858 $449 9.7833420776976858 $444 $669 forward 7 unknown #
coedge $-1 $439 $277 $667 $670 forward $448 $-1 #
coedge $-1 $277 $439 $663 $671 reversed $448 $-1 #
loop $-1 $-1 $446 $647 #
vertex $-1 $278 $672 #
vertex $-1 $278 $673 #
straight-curve $-1 9.7833420776976858 0 145.17288735618155 0 1 0 I I #
loop $-1 $-1 $674 $183 #
coedge $-1 $453 $453 $282 $454 reversed $279 $-1 #
edge $-1 $675 0 $675 6.2831853071796004 $453 $676 forward 7 unknown #
vertex $-1 $283 $677 #
ellipse-curve $-1 0 0 -4.4912564470351271 0 0 -1 2 0 0 1 I I #
face $-1 $-1 $299 $45 $-1 $678 reversed single #
loop $-1 $-1 $473 $284 #
plane-surface $-1 0 40.529627823419325 0 0 -1 0 0 0 -1 forward_v I I I I #
coedge $-1 $679 $471 $474 $680 forward $285 $-1 #
coedge $-1 $477 $287 $288 $465 reversed $189 $-1 #
coedge $-1 $471 $679 $287 $463 reversed $285 $-1 #
edge $-1 $478 -10.93051915267057 $681 10.93051915267057 $462 $682 forward 7 unknown #
coedge $-1 $289 $288 $679 $683 forward $121 $-1 #
edge $-1 $469 -72.586443678090774 $681 72.586443678090774 $461 $684 forward 7 unknown #
coedge $-1 $474 $473 $289 $467 reversed $458 $-1 #
edge $-1 $685 -72.586443678090774 $468 72.586443678090774 $466 $686 forward 7 unknown #
vertex $-1 $291 $687 #
vertex $-1 $480 $688 #
straight-curve $-1 72.586443678090774 0 -10.93051915267057 0 -1 0 I I #
coedge $-1 $460 $462 $292 $472 reversed $285 $-1 #
edge $-1 $475 -40.529627823419325 $478 40.529627823419325 $471 $689 forward 7 unknown #
coedge $-1 $466 $293 $298 $481 forward $458 $-1 #
coedge $-1 $293 $466 $460 $680 reversed $458 $-1 #
vertex $-1 $294 $690 #
straight-curve $-1 0 40.529627823419325 10.93051915267057 -1 0 0 I I #
coedge $-1 $295 $461 $297 $480 reversed $189 $-1 #
vertex $-1 $472 $691 #
straight-curve $-1 0 -40.529627823419325 10.93051915267057 1 0 0 I I #
edge $-1 $300 -10.93051915267057 $469 10.93051915267057 $297 $692 forward 7 unknown #
edge $-1 $301 -10.93051915267057 $468 10.93051915267057 $298 $693 forward 7 unknown #
point $-1 72.586443678090774 -40.529627823419325 10.93051915267057 #
point $-1 72.586443678090774 40.529627823419325 10.93051915267057 #
face $-1 $-1 $318 $46 $-1 $694 reversed single #
loop $-1 $-1 $500 $303 #
plane-surface $-1 0 290.3457747123631 0 0 -1 0 0 0 -1 forward_v I I I I #
coedge $-1 $695 $498 $501 $696 forward $304 $-1 #
coedge $-1 $504 $306 $307 $492 reversed $197 $-1 #
coedge $-1 $498 $695 $306 $490 reversed $304 $-1 #
edge $-1 $505 -145.17288735618155 $697 145.17288735618155 $489 $698 forward 7 unknown #
coedge $-1 $308 $307 $695 $699 forward $125 $-1 #
edge $-1 $496 -7.5939194387853357 $697 7.5939194387853357 $488 $700 forward 7 unknown #
coedge $-1 $501 $500 $308 $494 reversed $485 $-1 #
edge $-1 $701 -7.5939194387853357 $495 7.5939194387853357 $493 $702 forward 7 unknown #
vertex $-1 $310 $703 #
vertex $-1 $507 $704 #
straight-curve $-1 7.5939194387853357 0 -145.17288735618155 0 -1 0 I I #
coedge $-1 $487 $489 $311 $499 reversed $304 $-1 #
edge $-1 $502 -290.3457747123631 $505 290.3457747123631 $498 $705 forward 7 unknown #
coedge $-1 $493 $312 $317 $508 forward $485 $-1 #
coedge $-1 $312 $493 $487 $696 reversed $485 $-1 #
vertex $-1 $313 $706 #
straight-curve $-1 0 290.3457747123631 145.17288735618155 -1 0 0 I I #
coedge $-1 $314 $488 $316 $507 reversed $197 $-1 #
vertex $-1 $499 $707 #
straight-curve $-1 0 -290.3457747123631 145.17288735618155 1 0 0 I I #
edge $-1 $319 -145.17288735618155 $496 145.17288735618155 $316 $708 forward 7 unknown #
edge $-1 $320 -145.17288735618155 $495 145.17288735618155 $317 $709 forward 7 unknown #
point $-1 7.5939194387853357 -290.3457747123631 145.17288735618155 #
point $-1 7.5939194387853357 290.3457747123631 145.17288735618155 #
coedge $-1 $511 $511 $-1 $710 reversed $322 $-1 #
vertex $-1 $324 $711 #
ellipse-curve $-1 0 0 -0.75 0 0 -1 1.5 0 0 1 I I #
point $-1 1.5 0 -4.7545472579119235 #
coedge $-1 $515 $515 $-1 $712 reversed $327 $-1 #
vertex $-1 $329 $713 #
ellipse-curve $-1 0 0 -0.75 0 0 -1 1.5 0 0 1 I I #
point $-1 1.5 0 -4.7545472579119235 #
face $-1 $-1 $347 $49 $-1 $714 reversed single #
loop $-1 $-1 $535 $332 #
plane-surface $-1 0 290.3457747123631 0 0 -1 0 0 0 -1 forward_v I I I I #
coedge $-1 $715 $533 $536 $716 forward $333 $-1 #
coedge $-1 $539 $335 $336 $527 reversed $215 $-1 #
coedge $-1 $533 $715 $335 $525 reversed $333 $-1 #
edge $-1 $540 -145.17288735618155 $717 145.17288735618155 $524 $718 forward 7 unknown #
coedge $-1 $337 $336 $715 $719 forward $139 $-1 #
edge $-1 $531 -7.5939194387853357 $717 7.5939194387853357 $523 $720 forward 7 unknown #
coedge $-1 $536 $535 $337 $529 reversed $520 $-1 #
edge $-1 $721 -7.5939194387853357 $530 7.5939194387853357 $528 $722 forward 7 unknown #
vertex $-1 $339 $723 #
vertex $-1 $542 $724 #
straight-curve $-1 7.5939194387853357 0 -145.17288735618155 0 -1 0 I I #
coedge $-1 $522 $524 $340 $534 reversed $333 $-1 #
edge $-1 $537 -290.3457747123631 $540 290.3457747123631 $533 $725 forward 7 unknown #
coedge $-1 $528 $341 $346 $543 forward $520 $-1 #
coedge $-1 $341 $528 $522 $716 reversed $520 $-1 #
vertex $-1 $342 $726 #
straight-curve $-1 0 290.3457747123631 145.17288735618155 -1 0 0 I I #
coedge $-1 $343 $523 $345 $542 reversed $215 $-1 #
vertex $-1 $534 $727 #
straight-curve $-1 0 -290.3457747123631 145.17288735618155 1 0 0 I I #
edge $-1 $348 -145.17288735618155 $531 145.17288735618155 $345 $728 forward 7 unknown #
edge $-1 $349 -145.17288735618155 $530 145.17288735618155 $346 $729 forward 7 unknown #
point $-1 7.5939194387853357 -290.3457747123631 145.17288735618155 #
point $-1 7.5939194387853357 290.3457747123631 145.17288735618155 #
coedge $-1 $546 $546 $-1 $730 reversed $351 $-1 #
vertex $-1 $353 $731 #
ellipse-curve $-1 0 0 -0.75 0 0 -1 1.5 0 0 1 I I #
point $-1 1.5 0 -4.7545472579119235 #
coedge $-1 $550 $550 $-1 $732 reversed $356 $-1 #
vertex $-1 $358 $733 #
ellipse-curve $-1 0 0 -0.75 0 0 -1 1.5 0 0 1 I I #
point $-1 1.5 0 -4.7545472579119235 #
face $-1 $-1 $376 $52 $-1 $734 reversed single #
loop $-1 $-1 $570 $361 #
plane-surface $-1 0 290.3457747123631 0 0 -1 0 0 0 -1 forward_v I I I I #
coedge $-1 $735 $568 $571 $736 forward $362 $-1 #
coedge $-1 $574 $364 $365 $562 reversed $233 $-1 #
coedge $-1 $568 $735 $364 $560 reversed $362 $-1 #
edge $-1 $575 -145.17288735618155 $737 145.17288735618155 $559 $738 forward 7 unknown #
coedge $-1 $366 $365 $735 $739 forward $153 $-1 #
edge $-1 $566 -9.7833420776976858 $737 9.7833420776976858 $558 $740 forward 7 unknown #
coedge $-1 $571 $570 $366 $564 reversed $555 $-1 #
edge $-1 $741 -9.7833420776976858 $565 9.7833420776976858 $563 $742 forward 7 unknown #
vertex $-1 $368 $743 #
vertex $-1 $577 $744 #
straight-curve $-1 9.7833420776976858 0 -145.17288735618155 0 -1 0 I I #
coedge $-1 $557 $559 $369 $569 reversed $362 $-1 #
edge $-1 $572 -290.3457747123631 $575 290.3457747123631 $568 $745 forward 7 unknown #
coedge $-1 $563 $370 $375 $578 forward $555 $-1 #
coedge $-1 $370 $563 $557 $736 reversed $555 $-1 #
vertex $-1 $371 $746 #
straight-curve $-1 0 290.3457747123631 145.17288735618155 -1 0 0 I I #
coedge $-1 $372 $558 $374 $577 reversed $233 $-1 #
vertex $-1 $569 $747 #
straight-curve $-1 0 -290.3457747123631 145.17288735618155 1 0 0 I I #
edge $-1 $377 -145.17288735618155 $566 145.17288735618155 $374 $748 forward 7 unknown #
edge $-1 $378 -145.17288735618155 $565 145.17288735618155 $375 $749 forward 7 unknown #
point $-1 9.7833420776976858 -290.3457747123631 145.17288735618155 #
point $-1 9.7833420776976858 290.3457747123631 145.17288735618155 #
coedge $-1 $581 $581 $-1 $750 reversed $380 $-1 #
vertex $-1 $382 $751 #
ellipse-curve $-1 0 0 -1 0 0 -1 2 0 0 1 I I #
point $-1 2 0 -4.4912564470351271 #
face $-1 $-1 $400 $54 $-1 $752 reversed single #
loop $-1 $-1 $601 $385 #
plane-surface $-1 0 290.3457747123631 0 0 -1 0 0 0 -1 forward_v I I I I #
coedge $-1 $753 $599 $602 $754 forward $386 $-1 #
coedge $-1 $605 $388 $389 $593 reversed $246 $-1 #
coedge $-1 $599 $753 $388 $591 reversed $386 $-1 #
edge $-1 $606 -145.17288735618155 $755 145.17288735618155 $590 $756 forward 7 unknown #
coedge $-1 $390 $389 $753 $757 forward $162 $-1 #
edge $-1 $597 -9.7833420776976858 $755 9.7833420776976858 $589 $758 forward 7 unknown #
coedge $-1 $602 $601 $390 $595 reversed $586 $-1 #
edge $-1 $759 -9.7833420776976858 $596 9.7833420776976858 $594 $760 forward 7 unknown #
vertex $-1 $392 $761 #
vertex $-1 $608 $762 #
straight-curve $-1 9.7833420776976858 0 -145.17288735618155 0 -1 0 I I #
coedge $-1 $588 $590 $393 $600 reversed $386 $-1 #
edge $-1 $603 -290.3457747123631 $606 290.3457747123631 $599 $763 forward 7 unknown #
coedge $-1 $594 $394 $399 $609 forward $586 $-1 #
coedge $-1 $394 $594 $588 $754 reversed $586 $-1 #
vertex $-1 $395 $764 #
straight-curve $-1 0 290.3457747123631 145.17288735618155 -1 0 0 I I #
coedge $-1 $396 $589 $398 $608 reversed $246 $-1 #
vertex $-1 $600 $765 #
straight-curve $-1 0 -290.3457747123631 145.17288735618155 1 0 0 I I #
edge $-1 $401 -145.17288735618155 $597 145.17288735618155 $398 $766 forward 7 unknown #
edge $-1 $402 -145.17288735618155 $596 145.17288735618155 $399 $767 forward 7 unknown #
point $-1 9.7833420776976858 -290.3457747123631 145.17288735618155 #
point $-1 9.7833420776976858 290.3457747123631 145.17288735618155 #
coedge $-1 $612 $612 $-1 $768 reversed $404 $-1 #
vertex $-1 $406 $769 #
ellipse-curve $-1 0 0 -1 0 0 -1 2 0 0 1 I I #
point $-1 2 0 -4.4912564470351271 #
face $-1 $-1 $424 $56 $-1 $770 reversed single #
loop $-1 $-1 $632 $409 #
plane-surface $-1 0 290.3457747123631 0 0 -1 0 0 0 -1 forward_v I I I I #
coedge $-1 $771 $630 $633 $772 forward $410 $-1 #
coedge $-1 $636 $412 $413 $624 reversed $259 $-1 #
coedge $-1 $630 $771 $412 $622 reversed $410 $-1 #
edge $-1 $637 -145.17288735618155 $773 145.17288735618155 $621 $774 forward 7 unknown #
coedge $-1 $414 $413 $771 $775 forward $171 $-1 #
edge $-1 $628 -9.7833420776976858 $773 9.7833420776976858 $620 $776 forward 7 unknown #
coedge $-1 $633 $632 $414 $626 reversed $617 $-1 #
edge $-1 $777 -9.7833420776976858 $627 9.7833420776976858 $625 $778 forward 7 unknown #
vertex $-1 $416 $779 #
vertex $-1 $639 $780 #
straight-curve $-1 9.7833420776976858 0 -145.17288735618155 0 -1 0 I I #
coedge $-1 $619 $621 $417 $631 reversed $410 $-1 #
edge $-1 $634 -290.3457747123631 $637 290.3457747123631 $630 $781 forward 7 unknown #
coedge $-1 $625 $418 $423 $640 forward $617 $-1 #
coedge $-1 $418 $625 $619 $772 reversed $617 $-1 #
vertex $-1 $419 $782 #
straight-curve $-1 0 290.3457747123631 145.17288735618155 -1 0 0 I I #
coedge $-1 $420 $620 $422 $639 reversed $259 $-1 #
vertex $-1 $631 $783 #
straight-curve $-1 0 -290.3457747123631 145.17288735618155 1 0 0 I I #
edge $-1 $425 -145.17288735618155 $628 145.17288735618155 $422 $784 forward 7 unknown #
edge $-1 $426 -145.17288735618155 $627 145.17288735618155 $423 $785 forward 7 unknown #
point $-1 9.7833420776976858 -290.3457747123631 145.17288735618155 #
point $-1 9.7833420776976858 290.3457747123631 145.17288735618155 #
coedge $-1 $643 $643 $-1 $786 reversed $428 $-1 #
vertex $-1 $430 $787 #
ellipse-curve $-1 0 0 -1 0 0 -1 2 0 0 1 I I #
point $-1 2 0 -4.4912564470351271 #
face $-1 $-1 $448 $58 $-1 $788 reversed single #
loop $-1 $-1 $663 $433 #
plane-surface $-1 0 290.3457747123631 0 0 -1 0 0 0 -1 forward_v I I I I #
coedge $-1 $789 $661 $664 $790 forward $434 $-1 #
coedge $-1 $667 $436 $437 $655 reversed $272 $-1 #
coedge $-1 $661 $789 $436 $653 reversed $434 $-1 #
edge $-1 $668 -145.17288735618155 $791 145.17288735618155 $652 $792 forward 7 unknown #
coedge $-1 $438 $437 $789 $793 forward $180 $-1 #
edge $-1 $659 -9.7833420776976858 $791 9.7833420776976858 $651 $794 forward 7 unknown #
coedge $-1 $664 $663 $438 $657 reversed $648 $-1 #
edge $-1 $795 -9.7833420776976858 $658 9.7833420776976858 $656 $796 forward 7 unknown #
vertex $-1 $440 $797 #
vertex $-1 $670 $798 #
straight-curve $-1 9.7833420776976858 0 -145.17288735618155 0 -1 0 I I #
coedge $-1 $650 $652 $441 $662 reversed $434 $-1 #
edge $-1 $665 -290.3457747123631 $668 290.3457747123631 $661 $799 forward 7 unknown #
coedge $-1 $656 $442 $447 $671 forward $648 $-1 #
coedge $-1 $442 $656 $650 $790 reversed $648 $-1 #
vertex $-1 $443 $800 #
straight-curve $-1 0 290.3457747123631 145.17288735618155 -1 0 0 I I #
coedge $-1 $444 $651 $446 $670 reversed $272 $-1 #
vertex $-1 $662 $801 #
straight-curve $-1 0 -290.3457747123631 145.17288735618155 1 0 0 I I #
edge $-1 $449 -145.17288735618155 $659 145.17288735618155 $446 $802 forward 7 unknown #
edge $-1 $450 -145.17288735618155 $658 145.17288735618155 $447 $803 forward 7 unknown #
point $-1 9.7833420776976858 -290.3457747123631 145.17288735618155 #
point $-1 9.7833420776976858 290.3457747123631 145.17288735618155 #
coedge $-1 $674 $674 $-1 $804 reversed $452 $-1 #
vertex $-1 $454 $805 #
ellipse-curve $-1 0 0 -1 0 0 -1 2 0 0 1 I I #
point $-1 2 0 -4.4912564470351271 #
plane-surface $-1 72.586443678090774 0 0 -1 0 0 0 0 1 forward_v I I I I #
coedge $-1 $462 $460 $464 $683 reversed $285 $-1 #
edge $-1 $475 -10.93051915267057 $685 10.93051915267057 $474 $806 forward 7 unknown #
vertex $-1 $683 $807 #
straight-curve $-1 -72.586443678090774 -40.529627823419325 0 0 0 -1 I I #
edge $-1 $681 -40.529627823419325 $685 40.529627823419325 $679 $808 forward 7 unknown #
straight-curve $-1 0 -40.529627823419325 -10.93051915267057 -1 0 0 I I #
vertex $-1 $467 $809 #
straight-curve $-1 0 40.529627823419325 -10.93051915267057 1 0 0 I I #
point $-1 72.586443678090774 40.529627823419325 -10.93051915267057 #
point $-1 72.586443678090774 -40.529627823419325 -10.93051915267057 #
straight-curve $-1 -72.586443678090774 0 10.93051915267057 0 -1 0 I I #
point $-1 -72.586443678090774 40.529627823419325 10.93051915267057 #
point $-1 -72.586443678090774 -40.529627823419325 10.93051915267057 #
straight-curve $-1 72.586443678090774 -40.529627823419325 0 0 0 -1 I I #
straight-curve $-1 72.586443678090774 40.529627823419325 0 0 0 -1 I I #
plane-surface $-1 7.5939194387853357 0 0 -1 0 0 0 0 1 forward_v I I I I #
coedge $-1 $489 $487 $491 $699 reversed $304 $-1 #
edge $-1 $502 -145.17288735618155 $701 145.17288735618155 $501 $810 forward 7 unknown #
vertex $-1 $699 $811 #
straight-curve $-1 -7.5939194387853357 -290.3457747123631 0 0 0 -1 I I #
edge $-1 $697 -290.3457747123631 $701 290.3457747123631 $695 $812 forward 7 unknown #
straight-curve $-1 0 -290.3457747123631 -145.17288735618155 -1 0 0 I I #
vertex $-1 $494 $813 #
straight-curve $-1 0 290.3457747123631 -145.17288735618155 1 0 0 I I #
point $-1 7.5939194387853357 290.3457747123631 -145.17288735618155 #
point $-1 7.5939194387853357 -290.3457747123631 -145.17288735618155 #
straight-curve $-1 -7.5939194387853357 0 145.17288735618155 0 -1 0 I I #
point $-1 -7.5939194387853357 290.3457747123631 145.17288735618155 #
point $-1 -7.5939194387853357 -290.3457747123631 145.17288735618155 #
straight-curve $-1 7.5939194387853357 -290.3457747123631 0 0 0 -1 I I #
straight-curve $-1 7.5939194387853357 290.3457747123631 0 0 0 -1 I I #
edge $-1 $814 1 $814 0 $511 $-1 forward 7 unknown #
point $-1 1.5 0 -0.75 #
edge $-1 $815 1 $815 0 $515 $-1 forward 7 unknown #
point $-1 1.5 0 -0.75 #
plane-surface $-1 7.5939194387853357 0 0 -1 0 0 0 0 1 forward_v I I I I #
coedge $-1 $524 $522 $526 $719 reversed $333 $-1 #
edge $-1 $537 -145.17288735618155 $721 145.17288735618155 $536 $816 forward 7 unknown #
vertex $-1 $719 $817 #
straight-curve $-1 -7.5939194387853357 -290.3457747123631 0 0 0 -1 I I #
edge $-1 $717 -290.3457747123631 $721 290.3457747123631 $715 $818 forward 7 unknown #
straight-curve $-1 0 -290.3457747123631 -145.17288735618155 -1 0 0 I I #
vertex $-1 $529 $819 #
straight-curve $-1 0 290.3457747123631 -145.17288735618155 1 0 0 I I #
point $-1 7.5939194387853357 290.3457747123631 -145.17288735618155 #
point $-1 7.5939194387853357 -290.3457747123631 -145.17288735618155 #
straight-curve $-1 -7.5939194387853357 0 145.17288735618155 0 -1 0 I I #
point $-1 -7.5939194387853357 290.3457747123631 145.17288735618155 #
point $-1 -7.5939194387853357 -290.3457747123631 145.17288735618155 #
straight-curve $-1 7.5939194387853357 -290.3457747123631 0 0 0 -1 I I #
straight-curve $-1 7.5939194387853357 290.3457747123631 0 0 0 -1 I I #
edge $-1 $820 1 $820 0 $546 $-1 forward 7 unknown #
point $-1 1.5 0 -0.75 #
edge $-1 $821 1 $821 0 $550 $-1 forward 7 unknown #
point $-1 1.5 0 -0.75 #
plane-surface $-1 9.7833420776976858 0 0 -1 0 0 0 0 1 forward_v I I I I #
coedge $-1 $559 $557 $561 $739 reversed $362 $-1 #
edge $-1 $572 -145.17288735618155 $741 145.17288735618155 $571 $822 forward 7 unknown #
vertex $-1 $739 $823 #
straight-curve $-1 -9.7833420776976858 -290.3457747123631 0 0 0 -1 I I #
edge $-1 $737 -290.3457747123631 $741 290.3457747123631 $735 $824 forward 7 unknown #
straight-curve $-1 0 -290.3457747123631 -145.17288735618155 -1 0 0 I I #
vertex $-1 $564 $825 #
straight-curve $-1 0 290.3457747123631 -145.17288735618155 1 0 0 I I #
point $-1 9.7833420776976858 290.3457747123631 -145.17288735618155 #
point $-1 9.7833420776976858 -290.3457747123631 -145.17288735618155 #
straight-curve $-1 -9.7833420776976858 0 145.17288735618155 0 -1 0 I I #
point $-1 -9.7833420776976858 290.3457747123631 145.17288735618155 #
point $-1 -9.7833420776976858 -290.3457747123631 145.17288735618155 #
straight-curve $-1 9.7833420776976858 -290.3457747123631 0 0 0 -1 I I #
straight-curve $-1 9.7833420776976858 290.3457747123631 0 0 0 -1 I I #
edge $-1 $826 1 $826 0 $581 $-1 forward 7 unknown #
point $-1 2 0 -1 #
plane-surface $-1 9.7833420776976858 0 0 -1 0 0 0 0 1 forward_v I I I I #
coedge $-1 $590 $588 $592 $757 reversed $386 $-1 #
edge $-1 $603 -145.17288735618155 $759 145.17288735618155 $602 $827 forward 7 unknown #
vertex $-1 $757 $828 #
straight-curve $-1 -9.7833420776976858 -290.3457747123631 0 0 0 -1 I I #
edge $-1 $755 -290.3457747123631 $759 290.3457747123631 $753 $829 forward 7 unknown #
straight-curve $-1 0 -290.3457747123631 -145.17288735618155 -1 0 0 I I #
vertex $-1 $595 $830 #
straight-curve $-1 0 290.3457747123631 -145.17288735618155 1 0 0 I I #
point $-1 9.7833420776976858 290.3457747123631 -145.17288735618155 #
point $-1 9.7833420776976858 -290.3457747123631 -145.17288735618155 #
straight-curve $-1 -9.7833420776976858 0 145.17288735618155 0 -1 0 I I #
point $-1 -9.7833420776976858 290.3457747123631 145.17288735618155 #
point $-1 -9.7833420776976858 -290.3457747123631 145.17288735618155 #
straight-curve $-1 9.7833420776976858 -290.3457747123631 0 0 0 -1 I I #
straight-curve $-1 9.7833420776976858 290.3457747123631 0 0 0 -1 I I #
edge $-1 $831 1 $831 0 $612 $-1 forward 7 unknown #
point $-1 2 0 -1 #
plane-surface $-1 9.7833420776976858 0 0 -1 0 0 0 0 1 forward_v I I I I #
coedge $-1 $621 $619 $623 $775 reversed $410 $-1 #
edge $-1 $634 -145.17288735618155 $777 145.17288735618155 $633 $832 forward 7 unknown #
vertex $-1 $775 $833 #
straight-curve $-1 -9.7833420776976858 -290.3457747123631 0 0 0 -1 I I #
edge $-1 $773 -290.3457747123631 $777 290.3457747123631 $771 $834 forward 7 unknown #
straight-curve $-1 0 -290.3457747123631 -145.17288735618155 -1 0 0 I I #
vertex $-1 $626 $835 #
straight-curve $-1 0 290.3457747123631 -145.17288735618155 1 0 0 I I #
point $-1 9.7833420776976858 290.3457747123631 -145.17288735618155 #
point $-1 9.7833420776976858 -290.3457747123631 -145.17288735618155 #
straight-curve $-1 -9.7833420776976858 0 145.17288735618155 0 -1 0 I I #
point $-1 -9.7833420776976858 290.3457747123631 145.17288735618155 #
point $-1 -9.7833420776976858 -290.3457747123631 145.17288735618155 #
straight-curve $-1 9.7833420776976858 -290.3457747123631 0 0 0 -1 I I #
straight-curve $-1 9.7833420776976858 290.3457747123631 0 0 0 -1 I I #
edge $-1 $836 1 $836 0 $643 $-1 forward 7 unknown #
point $-1 2 0 -1 #
plane-surface $-1 9.7833420776976858 0 0 -1 0 0 0 0 1 forward_v I I I I #
coedge $-1 $652 $650 $654 $793 reversed $434 $-1 #
edge $-1 $665 -145.17288735618155 $795 145.17288735618155 $664 $837 forward 7 unknown #
vertex $-1 $793 $838 #
straight-curve $-1 -9.7833420776976858 -290.3457747123631 0 0 0 -1 I I #
edge $-1 $791 -290.3457747123631 $795 290.3457747123631 $789 $839 forward 7 unknown #
straight-curve $-1 0 -290.3457747123631 -145.17288735618155 -1 0 0 I I #
vertex $-1 $657 $840 #
straight-curve $-1 0 290.3457747123631 -145.17288735618155 1 0 0 I I #
point $-1 9.7833420776976858 290.3457747123631 -145.17288735618155 #
point $-1 9.7833420776976858 -290.3457747123631 -145.17288735618155 #
straight-curve $-1 -9.7833420776976858 0 145.17288735618155 0 -1 0 I I #
point $-1 -9.7833420776976858 290.3457747123631 145.17288735618155 #
point $-1 -9.7833420776976858 -290.3457747123631 145.17288735618155 #
straight-curve $-1 9.7833420776976858 -290.3457747123631 0 0 0 -1 I I #
straight-curve $-1 9.7833420776976858 290.3457747123631 0 0 0 -1 I I #
edge $-1 $841 1 $841 0 $674 $-1 forward 7 unknown #
point $-1 2 0 -1 #
straight-curve $-1 -72.586443678090774 40.529627823419325 0 0 0 -1 I I #
point $-1 -72.586443678090774 -40.529627823419325 -10.93051915267057 #
straight-curve $-1 -72.586443678090774 0 -10.93051915267057 0 1 0 I I #
point $-1 -72.586443678090774 40.529627823419325 -10.93051915267057 #
straight-curve $-1 -7.5939194387853357 290.3457747123631 0 0 0 -1 I I #
point $-1 -7.5939194387853357 -290.3457747123631 -145.17288735618155 #
straight-curve $-1 -7.5939194387853357 0 -145.17288735618155 0 1 0 I I #
point $-1 -7.5939194387853357 290.3457747123631 -145.17288735618155 #
vertex $-1 $710 $842 #
vertex $-1 $712 $843 #
straight-curve $-1 -7.5939194387853357 290.3457747123631 0 0 0 -1 I I #
point $-1 -7.5939194387853357 -290.3457747123631 -145.17288735618155 #
straight-curve $-1 -7.5939194387853357 0 -145.17288735618155 0 1 0 I I #
point $-1 -7.5939194387853357 290.3457747123631 -145.17288735618155 #
vertex $-1 $730 $844 #
vertex $-1 $732 $845 #
straight-curve $-1 -9.7833420776976858 290.3457747123631 0 0 0 -1 I I #
point $-1 -9.7833420776976858 -290.3457747123631 -145.17288735618155 #
straight-curve $-1 -9.7833420776976858 0 -145.17288735618155 0 1 0 I I #
point $-1 -9.7833420776976858 290.3457747123631 -145.17288735618155 #
vertex $-1 $750 $846 #
straight-curve $-1 -9.7833420776976858 290.3457747123631 0 0 0 -1 I I #
point $-1 -9.7833420776976858 -290.3457747123631 -145.17288735618155 #
straight-curve $-1 -9.7833420776976858 0 -145.17288735618155 0 1 0 I I #
point $-1 -9.7833420776976858 290.3457747123631 -145.17288735618155 #
vertex $-1 $768 $847 #
straight-curve $-1 -9.7833420776976858 290.3457747123631 0 0 0 -1 I I #
point $-1 -9.7833420776976858 -290.3457747123631 -145.17288735618155 #
straight-curve $-1 -9.7833420776976858 0 -145.17288735618155 0 1 0 I I #
point $-1 -9.7833420776976858 290.3457747123631 -145.17288735618155 #
vertex $-1 $786 $848 #
straight-curve $-1 -9.7833420776976858 290.3457747123631 0 0 0 -1 I I #
point $-1 -9.7833420776976858 -290.3457747123631 -145.17288735618155 #
straight-curve $-1 -9.7833420776976858 0 -145.17288735618155 0 1 0 I I #
point $-1 -9.7833420776976858 290.3457747123631 -145.17288735618155 #
vertex $-1 $804 $849 #
point $-1 0 0 0.75 #
point $-1 0 0 0.75 #
point $-1 0 0 0.75 #
point $-1 0 0 0.75 #
point $-1 0 0 1 #
point $-1 0 0 1 #
point $-1 0 0 1 #
point $-1 0 0 1 #
End-of-ACIS-data 