500 0 7 0           
7 Unknown 11 ACIS 5.0 NT 24 Thu Mar 25 16:29:47 1999 
-1 9.9999999999999995e-007 1e-010 
body $-1 $7 $-1 $8 #
body $-1 $9 $-1 $10 #
body $-1 $11 $-1 $12 #
body $-1 $13 $-1 $14 #
body $-1 $15 $-1 $16 #
body $-1 $17 $-1 $18 #
body $-1 $19 $-1 $20 #
lump $-1 $-1 $21 $0 #
transform $-1 1 0 0 0 1 0 0 0 1 40.798364207892085 24.496699019493761 8.6457266603850691 1 rotate no_reflect no_shear #
lump $-1 $-1 $22 $1 #
transform $-1 1 0 0 0 1 0 0 0 1 40.798364207892085 24.496699019493761 8.6457266603850691 1 rotate no_reflect no_shear #
lump $-1 $-1 $23 $2 #
transform $-1 1 0 0 0 1 0 0 0 1 40.798364207892085 24.496699019493761 8.6457266603850691 1 rotate no_reflect no_shear #
lump $-1 $-1 $24 $3 #
transform $-1 1 0 0 0 1 0 0 0 1 40.798364207892085 24.496699019493761 8.6457266603850691 1 rotate no_reflect no_shear #
lump $-1 $-1 $25 $4 #
transform $-1 1 0 0 0 1 0 0 0 1 40.798364207892085 24.496699019493761 8.6457266603850691 1 rotate no_reflect no_shear #
lump $-1 $-1 $26 $5 #
transform $-1 1 0 0 0 1 0 0 0 1 40.798364207892085 24.496699019493761 8.6457266603850691 1 rotate no_reflect no_shear #
lump $-1 $-1 $27 $6 #
transform $-1 1 0 0 0 1 0 0 0 1 40.798364207892085 24.496699019493761 8.6457266603850691 1 rotate no_reflect no_shear #
shell $-1 $-1 $-1 $28 $-1 $7 #
shell $-1 $-1 $-1 $29 $-1 $9 #
shell $-1 $-1 $-1 $30 $-1 $11 #
shell $-1 $-1 $-1 $31 $-1 $13 #
shell $-1 $-1 $-1 $32 $-1 $15 #
shell $-1 $-1 $-1 $33 $-1 $17 #
shell $-1 $-1 $-1 $34 $-1 $19 #
face $-1 $35 $36 $21 $-1 $37 forward single #
face $-1 $38 $39 $22 $-1 $40 forward single #
face $-1 $41 $42 $23 $-1 $43 forward single #
face $-1 $44 $45 $24 $-1 $46 reversed single #
face $-1 $47 $48 $25 $-1 $49 forward single #
face $-1 $50 $51 $26 $-1 $52 reversed single #
face $-1 $53 $54 $27 $-1 $55 forward single #
face $-1 $56 $57 $21 $-1 $58 reversed single #
loop $-1 $-1 $59 $28 #
plane-surface $-1 0 0 8.6457266603850691 0 0 1 1 0 0 forward_v I I I I #
face $-1 $60 $61 $22 $-1 $62 reversed single #
loop $-1 $-1 $63 $29 #
plane-surface $-1 -36.395217810865375 0 2.9451169868914073 0 0 1 1 0 0 forward_v I I I I #
face $-1 $64 $65 $23 $-1 $66 reversed single #
loop $-1 $-1 $67 $30 #
plane-surface $-1 36.395217810865383 0 2.9451169868914073 0 0 1 1 0 0 forward_v I I I I #
face $-1 $68 $69 $24 $-1 $70 reversed single #
loop $-1 $-1 $71 $31 #
plane-surface $-1 10.222143402129394 -88.795799143792152 54.105455929433575 1 0 0 0 0.78801076186113728 -0.61566146476048833 forward_v I I I I #
face $-1 $72 $73 $25 $-1 $74 forward single #
loop $-1 $75 $76 $32 #
cone-surface $-1 15.055761003633684 -20.294624512911785 4.4323135168969312 0 0.78801076186113728 -0.61566146476048833 1.5 0 0 1 I I 0 1 1.5 forward I I I I #
face $-1 $77 $78 $26 $-1 $79 reversed single #
loop $-1 $-1 $80 $33 #
plane-surface $-1 19.889378605137974 58.632451943515449 92.712780844302088 -1 0 0 0 0.78801076186113728 0.61566146476048833 forward_v I I I I #
face $-1 $81 $82 $27 $-1 $83 forward single #
loop $-1 $84 $85 $34 #
cone-surface $-1 15.055761003633684 20.294624512911785 4.4323135168969312 0 -0.78801076186113728 -0.61566146476048833 1.5 0 0 1 I I 0 1 1.5 forward I I I I #
face $-1 $86 $87 $21 $-1 $88 reversed single #
loop $-1 $-1 $89 $35 #
plane-surface $-1 0 0 -8.6457266603850691 0 0 1 1 0 0 forward_v I I I I #
coedge $-1 $90 $91 $92 $93 forward $36 $-1 #
face $-1 $94 $95 $22 $-1 $96 reversed single #
loop $-1 $-1 $97 $38 #
plane-surface $-1 -36.395217810865375 0 -1.1882722896855222 0 0 1 1 0 0 forward_v I I I I #
coedge $-1 $98 $99 $100 $101 forward $39 $-1 #
face $-1 $102 $103 $23 $-1 $104 reversed single #
loop $-1 $-1 $105 $41 #
plane-surface $-1 36.395217810865383 0 -1.1882722896855222 0 0 1 1 0 0 forward_v I I I I #
coedge $-1 $106 $107 $108 $109 reversed $42 $-1 #
face $-1 $110 $111 $24 $-1 $112 reversed single #
loop $-1 $-1 $113 $44 #
plane-surface $-1 15.055761003633684 -24.496699019493761 3.8694945933081328 0 -0.78801076186113728 0.61566146476048833 1 0 0 forward_v I I I I #
coedge $-1 $114 $115 $116 $117 reversed $45 $-1 #
face $-1 $-1 $118 $25 $-1 $119 forward single #
loop $-1 $120 $121 $47 #
cone-surface $-1 15.055761003633684 -17.367342614805111 2.1452703083768903 0 0.78801076186113728 -0.61566146476048833 0.75 0 0 1 I I -0.70710678118654757 0.70710678118654757 0.75 forward I I I I #
loop $-1 $-1 $122 $32 #
coedge $-1 $76 $76 $123 $124 reversed $48 $-1 #
face $-1 $125 $126 $26 $-1 $127 reversed single #
loop $-1 $-1 $128 $50 #
plane-surface $-1 15.055761003633684 -5.6666481807829427 42.476819508176646 0 0.78801076186113728 0.61566146476048833 1 0 0 forward_v I I I I #
coedge $-1 $129 $130 $131 $132 reversed $51 $-1 #
face $-1 $-1 $133 $27 $-1 $134 forward single #
loop $-1 $135 $136 $53 #
cone-surface $-1 15.055761003633684 17.367342614805111 2.1452703083768903 0 -0.78801076186113728 -0.61566146476048833 0.75 0 0 1 I I -0.70710678118654757 0.70710678118654757 0.75 forward I I I I #
loop $-1 $-1 $137 $34 #
coedge $-1 $85 $85 $138 $139 reversed $54 $-1 #
face $-1 $140 $141 $21 $-1 $142 reversed single #
loop $-1 $-1 $143 $56 #
plane-surface $-1 0 -24.496699019493761 0 0 1 0 0 0 1 forward_v I I I I #
coedge $-1 $144 $145 $146 $147 forward $57 $-1 #
coedge $-1 $148 $59 $149 $150 forward $36 $-1 #
coedge $-1 $59 $148 $151 $152 forward $36 $-1 #
coedge $-1 $153 $154 $59 $93 reversed $155 $-1 #
edge $-1 $156 -24.496699019493761 $157 24.496699019493761 $92 $158 forward 7 unknown #
face $-1 $159 $160 $22 $-1 $161 reversed single #
loop $-1 $-1 $162 $60 #
plane-surface $-1 -31.992071413838666 0 0.87842234860294255 -1 0 0 0 0 1 forward_v I I I I #
coedge $-1 $163 $164 $165 $166 forward $61 $-1 #
coedge $-1 $167 $63 $168 $169 reversed $39 $-1 #
coedge $-1 $63 $167 $170 $171 reversed $39 $-1 #
coedge $-1 $162 $172 $63 $101 reversed $95 $-1 #
edge $-1 $173 -24.496699019493761 $174 24.496699019493761 $100 $175 forward 7 unknown #
face $-1 $176 $177 $23 $-1 $178 reversed single #
loop $-1 $-1 $179 $64 #
plane-surface $-1 31.992071413838673 0 0.87842234860294255 1 0 0 0 0 -1 forward_v I I I I #
coedge $-1 $180 $181 $182 $183 reversed $65 $-1 #
coedge $-1 $184 $67 $185 $186 reversed $42 $-1 #
coedge $-1 $67 $184 $187 $188 reversed $42 $-1 #
coedge $-1 $189 $190 $67 $109 forward $191 $-1 #
edge $-1 $192 -24.496699019493761 $193 24.496699019493761 $108 $194 forward 7 unknown #
face $-1 $195 $196 $24 $-1 $197 forward single #
loop $-1 $-1 $198 $68 #
plane-surface $-1 19.889378605137974 -88.795799143792152 54.105455929433575 -1 0 0 0 -0.78801076186113728 0.61566146476048833 forward_v I I I I #
coedge $-1 $199 $200 $201 $202 reversed $69 $-1 #
coedge $-1 $115 $71 $203 $204 reversed $45 $-1 #
coedge $-1 $71 $114 $199 $205 reversed $45 $-1 #
coedge $-1 $201 $206 $71 $117 forward $207 $-1 #
edge $-1 $208 18.407001304331718 $209 23.183233371408654 $116 $210 forward 7 unknown #
loop $-1 $-1 $123 $72 #
plane-surface $-1 15.055761003633684 -24.496699019493761 3.8694945933081328 0 -0.78801076186113728 0.61566146476048833 1 0 0 forward_v I I I I #
loop $-1 $-1 $211 $47 #
coedge $-1 $121 $121 $122 $212 reversed $73 $-1 #
coedge $-1 $122 $122 $121 $212 forward $75 $-1 #
coedge $-1 $123 $123 $76 $124 forward $118 $-1 #
edge $-1 $213 4.0820513689408468e-016 $213 6.2831853071796004 $123 $214 forward 7 unknown #
face $-1 $215 $216 $26 $-1 $217 reversed single #
loop $-1 $-1 $218 $77 #
plane-surface $-1 10.222143402129394 58.632451943515449 92.712780844302088 1 0 0 0 -0.78801076186113728 -0.61566146476048833 forward_v I I I I #
coedge $-1 $219 $220 $221 $222 reversed $78 $-1 #
coedge $-1 $130 $80 $223 $224 reversed $51 $-1 #
coedge $-1 $80 $129 $219 $225 reversed $51 $-1 #
coedge $-1 $221 $226 $80 $132 forward $216 $-1 #
edge $-1 $227 37.710663761765971 $228 42.486895828842918 $131 $229 forward 7 unknown #
loop $-1 $-1 $138 $81 #
plane-surface $-1 15.055761003633684 -5.6666481807829427 42.476819508176646 0 0.78801076186113728 0.61566146476048833 1 0 0 forward_v I I I I #
loop $-1 $-1 $230 $53 #
coedge $-1 $136 $136 $137 $231 reversed $82 $-1 #
coedge $-1 $137 $137 $136 $231 forward $84 $-1 #
coedge $-1 $138 $138 $85 $139 forward $133 $-1 #
edge $-1 $232 -3.4981417167049215e-016 $232 6.2831853071796004 $138 $233 forward 7 unknown #
face $-1 $234 $235 $21 $-1 $236 reversed single #
loop $-1 $-1 $237 $86 #
plane-surface $-1 -40.798364207892085 0 0 1 0 0 0 0 -1 forward_v I I I I #
coedge $-1 $238 $151 $239 $240 forward $87 $-1 #
coedge $-1 $241 $89 $238 $242 forward $57 $-1 #
coedge $-1 $89 $241 $243 $244 forward $57 $-1 #
coedge $-1 $154 $153 $89 $147 reversed $155 $-1 #
edge $-1 $245 -24.496699019493761 $246 24.496699019493761 $146 $247 forward 7 unknown #
coedge $-1 $91 $90 $248 $249 forward $36 $-1 #
coedge $-1 $250 $251 $90 $150 reversed $235 $-1 #
edge $-1 $157 -40.798364207892085 $252 40.798364207892085 $149 $253 forward 7 unknown #
coedge $-1 $143 $254 $91 $152 reversed $87 $-1 #
edge $-1 $255 -40.798364207892085 $156 40.798364207892085 $151 $256 forward 7 unknown #
coedge $-1 $146 $92 $254 $257 forward $155 $-1 #
coedge $-1 $92 $146 $250 $258 reversed $155 $-1 #
loop $-1 $-1 $153 $234 #
vertex $-1 $93 $259 #
vertex $-1 $93 $260 #
straight-curve $-1 40.798364207892085 0 8.6457266603850691 0 1 0 I I #
face $-1 $261 $262 $22 $-1 $263 reversed single #
loop $-1 $-1 $264 $94 #
plane-surface $-1 0 -24.496699019493761 0 0 1 0 0 0 1 forward_v I I I I #
coedge $-1 $165 $100 $265 $266 reversed $95 $-1 #
coedge $-1 $267 $97 $264 $268 reversed $61 $-1 #
coedge $-1 $97 $267 $269 $270 reversed $61 $-1 #
coedge $-1 $172 $162 $97 $166 reversed $95 $-1 #
edge $-1 $271 -24.496699019493761 $272 24.496699019493761 $165 $273 forward 7 unknown #
coedge $-1 $99 $98 $274 $275 reversed $39 $-1 #
coedge $-1 $276 $277 $98 $169 forward $278 $-1 #
edge $-1 $279 -22.600755302459397 $174 -13.794462508405978 $168 $280 forward 7 unknown #
coedge $-1 $281 $265 $99 $171 forward $160 $-1 #
edge $-1 $173 13.794462508405978 $282 22.600755302459397 $170 $283 forward 7 unknown #
coedge $-1 $100 $165 $276 $284 reversed $95 $-1 #
vertex $-1 $171 $285 #
vertex $-1 $169 $286 #
straight-curve $-1 -31.992071413838666 0 2.9451169868914073 0 1 0 I I #
face $-1 $287 $288 $23 $-1 $289 reversed single #
loop $-1 $-1 $187 $102 #
plane-surface $-1 0 -24.496699019493761 0 0 1 0 0 0 1 forward_v I I I I #
coedge $-1 $290 $291 $292 $293 reversed $103 $-1 #
coedge $-1 $294 $105 $295 $296 reversed $65 $-1 #
coedge $-1 $105 $294 $297 $298 reversed $65 $-1 #
coedge $-1 $190 $189 $105 $183 forward $191 $-1 #
edge $-1 $299 -24.496699019493761 $300 24.496699019493761 $182 $301 forward 7 unknown #
coedge $-1 $107 $106 $291 $302 forward $42 $-1 #
coedge $-1 $303 $292 $106 $186 forward $288 $-1 #
edge $-1 $304 13.794462508405982 $192 22.600755302459401 $185 $305 forward 7 unknown #
coedge $-1 $306 $307 $107 $188 forward $177 $-1 #
edge $-1 $193 -22.600755302459401 $308 -13.794462508405982 $187 $309 forward 7 unknown #
coedge $-1 $182 $108 $307 $310 forward $191 $-1 #
coedge $-1 $108 $182 $303 $311 reversed $191 $-1 #
loop $-1 $-1 $108 $287 #
vertex $-1 $311 $312 #
vertex $-1 $310 $313 #
straight-curve $-1 40.798364207892085 0 2.9451169868914073 0 -1 0 I I #
face $-1 $-1 $207 $24 $-1 $314 reversed single #
loop $-1 $-1 $315 $110 #
plane-surface $-1 0 0 8.6457266603850691 0 0 1 1 0 0 forward_v I I I I #
coedge $-1 $316 $317 $318 $319 reversed $111 $-1 #
coedge $-1 $320 $113 $115 $205 forward $69 $-1 #
coedge $-1 $113 $320 $316 $321 forward $69 $-1 #
coedge $-1 $318 $116 $113 $202 forward $207 $-1 #
edge $-1 $209 2.6942629003125518 $322 12.361498103321132 $201 $323 forward 7 unknown #
coedge $-1 $324 $325 $114 $204 forward $196 $-1 #
edge $-1 $326 -23.632801912144636 $208 -19.901200552402315 $203 $327 forward 7 unknown #
edge $-1 $209 0 $326 6.0611254290440781 $115 $328 forward 7 unknown #
coedge $-1 $116 $318 $324 $329 reversed $207 $-1 #
loop $-1 $-1 $318 $195 #
vertex $-1 $329 $330 #
vertex $-1 $117 $331 #
straight-curve $-1 10.222143402129394 -24.496699019493761 27.052727964716787 0 0 -1 I I #
coedge $-1 $211 $211 $-1 $332 reversed $120 $-1 #
edge $-1 $333 0 $333 6.2831853071796004 $121 $334 forward 7 unknown #
vertex $-1 $124 $335 #
ellipse-curve $-1 15.055761003633684 -22.6308983396226 6.2576106268466019 0 -0.78801076186113728 0.61566146476048833 1.5 0 0 1 I I #
face $-1 $-1 $336 $26 $-1 $337 forward single #
loop $-1 $-1 $131 $125 #
plane-surface $-1 0 24.496699019493761 0 0 -1 0 0 0 -1 forward_v I I I I #
coedge $-1 $338 $339 $340 $341 reversed $126 $-1 #
coedge $-1 $342 $128 $130 $225 forward $78 $-1 #
coedge $-1 $128 $342 $338 $343 forward $78 $-1 #
coedge $-1 $340 $131 $128 $222 forward $216 $-1 #
edge $-1 $228 -12.361498103321132 $344 -2.6942629003125518 $221 $345 forward 7 unknown #
coedge $-1 $346 $347 $129 $224 forward $336 $-1 #
edge $-1 $348 -8.5511283120062842 $227 -4.8195269522639634 $223 $349 forward 7 unknown #
edge $-1 $228 -48.993398038987536 $348 -42.932272609943453 $130 $350 forward 7 unknown #
coedge $-1 $131 $340 $346 $351 reversed $216 $-1 #
vertex $-1 $351 $352 #
vertex $-1 $132 $353 #
straight-curve $-1 19.889378605137974 24.496699019493761 46.356390422151044 0 0 -1 I I #
coedge $-1 $230 $230 $-1 $354 reversed $135 $-1 #
edge $-1 $355 0 $355 6.2831853071796004 $136 $356 forward 7 unknown #
vertex $-1 $139 $357 #
ellipse-curve $-1 15.055761003633684 22.630898339622597 6.2576106268465992 0 0.78801076186113728 0.61566146476048833 1.5 0 0 1 I I #
face $-1 $-1 $155 $21 $-1 $358 reversed single #
loop $-1 $-1 $250 $140 #
plane-surface $-1 0 24.496699019493761 0 0 -1 0 0 0 -1 forward_v I I I I #
coedge $-1 $359 $248 $251 $360 forward $141 $-1 #
coedge $-1 $254 $143 $144 $242 reversed $87 $-1 #
coedge $-1 $248 $359 $143 $240 reversed $141 $-1 #
edge $-1 $255 -8.6457266603850691 $361 8.6457266603850691 $239 $362 forward 7 unknown #
coedge $-1 $145 $144 $359 $363 forward $57 $-1 #
edge $-1 $246 -40.798364207892085 $361 40.798364207892085 $238 $364 forward 7 unknown #
coedge $-1 $251 $250 $145 $244 reversed $235 $-1 #
edge $-1 $365 -40.798364207892085 $245 40.798364207892085 $243 $366 forward 7 unknown #
vertex $-1 $147 $367 #
vertex $-1 $257 $368 #
straight-curve $-1 40.798364207892085 0 -8.6457266603850691 0 -1 0 I I #
coedge $-1 $237 $239 $148 $249 reversed $141 $-1 #
edge $-1 $252 -24.496699019493761 $255 24.496699019493761 $248 $369 forward 7 unknown #
coedge $-1 $243 $149 $154 $258 forward $235 $-1 #
coedge $-1 $149 $243 $237 $360 reversed $235 $-1 #
vertex $-1 $150 $370 #
straight-curve $-1 0 24.496699019493761 8.6457266603850691 -1 0 0 I I #
coedge $-1 $151 $238 $153 $257 reversed $87 $-1 #
vertex $-1 $249 $371 #
straight-curve $-1 0 -24.496699019493761 8.6457266603850691 1 0 0 I I #
edge $-1 $156 -8.6457266603850691 $246 8.6457266603850691 $153 $372 forward 7 unknown #
edge $-1 $157 -8.6457266603850691 $245 8.6457266603850691 $154 $373 forward 7 unknown #
point $-1 40.798364207892085 -24.496699019493761 8.6457266603850691 #
point $-1 40.798364207892085 24.496699019493761 8.6457266603850691 #
face $-1 $-1 $278 $22 $-1 $374 reversed single #
loop $-1 $-1 $375 $159 #
plane-surface $-1 -40.798364207892085 0 0 1 0 0 0 0 -1 forward_v I I I I #
coedge $-1 $265 $281 $163 $268 forward $160 $-1 #
coedge $-1 $170 $264 $162 $266 forward $160 $-1 #
edge $-1 $272 -1.6274834639869935 $173 2.5059058125899361 $265 $376 forward 7 unknown #
coedge $-1 $164 $163 $375 $377 reversed $61 $-1 #
edge $-1 $378 -22.600755302459397 $272 -13.794462508405978 $264 $379 forward 7 unknown #
coedge $-1 $277 $276 $164 $270 forward $278 $-1 #
edge $-1 $271 13.794462508405978 $380 22.600755302459397 $269 $381 forward 7 unknown #
vertex $-1 $270 $382 #
vertex $-1 $268 $383 #
straight-curve $-1 -31.992071413838666 0 -1.1882722896855222 0 -1 0 I I #
coedge $-1 $384 $385 $167 $275 forward $262 $-1 #
edge $-1 $282 -24.496699019493761 $279 24.496699019493761 $274 $386 forward 7 unknown #
coedge $-1 $269 $168 $172 $284 forward $278 $-1 #
coedge $-1 $168 $269 $384 $387 reversed $278 $-1 #
loop $-1 $-1 $269 $261 #
vertex $-1 $387 $388 #
straight-curve $-1 -18.197608905432688 24.496699019493761 2.9451169868914073 1 0 0 I I #
coedge $-1 $264 $170 $385 $389 forward $160 $-1 #
vertex $-1 $389 $390 #
straight-curve $-1 -18.197608905432688 -24.496699019493761 2.9451169868914073 -1 0 0 I I #
edge $-1 $174 -2.5059058125899361 $271 1.6274834639869935 $276 $391 forward 7 unknown #
point $-1 -31.992071413838666 -24.496699019493761 2.9451169868914073 #
point $-1 -31.992071413838666 24.496699019493761 2.9451169868914073 #
face $-1 $-1 $191 $23 $-1 $392 reversed single #
loop $-1 $-1 $185 $176 #
plane-surface $-1 0 24.496699019493761 0 0 -1 0 0 0 -1 forward_v I I I I #
coedge $-1 $393 $179 $294 $394 reversed $103 $-1 #
coedge $-1 $179 $393 $184 $302 reversed $103 $-1 #
coedge $-1 $185 $297 $179 $293 forward $288 $-1 #
edge $-1 $395 -1.6274834639869935 $304 2.5059058125899361 $292 $396 forward 7 unknown #
coedge $-1 $181 $180 $290 $394 forward $65 $-1 #
coedge $-1 $307 $306 $180 $296 forward $177 $-1 #
edge $-1 $397 13.794462508405982 $299 22.600755302459401 $295 $398 forward 7 unknown #
coedge $-1 $292 $303 $181 $298 forward $288 $-1 #
edge $-1 $300 -22.600755302459401 $395 -13.794462508405982 $297 $399 forward 7 unknown #
vertex $-1 $183 $400 #
vertex $-1 $183 $401 #
straight-curve $-1 40.798364207892085 0 -1.1882722896855222 0 1 0 I I #
edge $-1 $304 -24.496699019493761 $308 24.496699019493761 $291 $402 forward 7 unknown #
coedge $-1 $297 $185 $190 $311 forward $288 $-1 #
vertex $-1 $186 $403 #
straight-curve $-1 18.197608905432691 24.496699019493761 2.9451169868914073 1 0 0 I I #
coedge $-1 $295 $187 $393 $404 forward $177 $-1 #
coedge $-1 $187 $295 $189 $310 reversed $177 $-1 #
vertex $-1 $188 $405 #
straight-curve $-1 18.197608905432691 -24.496699019493761 2.9451169868914073 -1 0 0 I I #
edge $-1 $193 -2.9451169868914073 $299 1.1882722896855222 $189 $406 forward 7 unknown #
edge $-1 $192 -2.9451169868914073 $300 1.1882722896855222 $190 $407 forward 7 unknown #
point $-1 40.798364207892092 24.496699019493761 2.9451169868914073 #
point $-1 40.798364207892092 -24.496699019493761 2.9451169868914073 #
plane-surface $-1 0 -24.496699019493761 0 0 1 0 0 0 1 forward_v I I I I #
coedge $-1 $325 $324 $317 $408 forward $196 $-1 #
coedge $-1 $317 $198 $200 $321 reversed $111 $-1 #
coedge $-1 $198 $316 $315 $408 reversed $111 $-1 #
coedge $-1 $206 $201 $198 $319 forward $207 $-1 #
edge $-1 $322 -23.183233371408654 $409 -18.407001304331718 $318 $410 forward 7 unknown #
coedge $-1 $200 $199 $325 $411 reversed $69 $-1 #
edge $-1 $412 -6.0611254290440781 $322 0 $316 $413 forward 7 unknown #
vertex $-1 $202 $414 #
straight-curve $-1 7.527880501816842 -24.496699019493761 3.8694945933081311 1 0 0 I I #
coedge $-1 $315 $203 $206 $329 forward $196 $-1 #
coedge $-1 $203 $315 $320 $411 forward $196 $-1 #
vertex $-1 $204 $415 #
straight-curve $-1 10.222143402129394 -44.397899571896076 8.6457266603850691 0 -1 0 I I #
straight-curve $-1 10.222143402129394 -24.496699019493761 3.8694945933081328 0 0.61566146476048833 0.78801076186113728 I I #
edge $-1 $208 10.222143402129394 $409 19.889378605137974 $206 $416 forward 7 unknown #
point $-1 10.222143402129394 -24.496699019493761 8.6457266603850691 #
point $-1 10.222143402129394 -24.496699019493761 3.8694945933081328 #
edge $-1 $417 1 $417 0 $211 $-1 forward 7 unknown #
vertex $-1 $212 $418 #
ellipse-curve $-1 15.055761003633684 -17.958350686200962 2.6070164069472566 0 -0.78801076186113728 0.61566146476048833 1.5 0 0 1 I I #
point $-1 16.555761003633684 -22.630898339622604 6.2576106268466054 #
loop $-1 $-1 $223 $215 #
plane-surface $-1 0 0 8.6457266603850691 0 0 1 1 0 0 forward_v I I I I #
coedge $-1 $339 $218 $220 $343 reversed $126 $-1 #
coedge $-1 $218 $338 $419 $420 reversed $126 $-1 #
coedge $-1 $226 $221 $218 $341 forward $216 $-1 #
edge $-1 $344 -42.486895828842918 $421 -37.710663761765971 $340 $422 forward 7 unknown #
coedge $-1 $220 $219 $347 $423 reversed $78 $-1 #
edge $-1 $424 42.932272609943453 $344 48.993398038987536 $338 $425 forward 7 unknown #
vertex $-1 $222 $426 #
straight-curve $-1 7.527880501816842 24.496699019493761 3.8694945933081293 -1 0 0 I I #
coedge $-1 $419 $223 $226 $351 forward $336 $-1 #
coedge $-1 $223 $419 $342 $423 forward $336 $-1 #
vertex $-1 $224 $427 #
straight-curve $-1 19.889378605137974 29.316225971757724 8.6457266603850726 0 1 0 I I #
straight-curve $-1 19.889378605137974 -5.6666481807829427 42.476819508176646 0 -0.61566146476048833 0.78801076186113728 I I #
edge $-1 $227 -19.889378605137974 $421 -10.222143402129394 $226 $428 forward 7 unknown #
point $-1 19.889378605137974 24.496699019493761 8.6457266603850691 #
point $-1 19.889378605137974 24.496699019493761 3.8694945933081257 #
edge $-1 $429 1 $429 0 $230 $-1 forward 7 unknown #
vertex $-1 $231 $430 #
ellipse-curve $-1 15.055761003633684 17.958350686200962 2.6070164069472566 0 0.78801076186113728 0.61566146476048833 1.5 0 0 1 I I #
point $-1 16.555761003633684 22.630898339622604 6.2576106268466054 #
plane-surface $-1 40.798364207892085 0 0 -1 0 0 0 0 1 forward_v I I I I #
coedge $-1 $239 $237 $241 $363 reversed $141 $-1 #
edge $-1 $252 -8.6457266603850691 $365 8.6457266603850691 $251 $431 forward 7 unknown #
vertex $-1 $363 $432 #
straight-curve $-1 -40.798364207892085 -24.496699019493761 0 0 0 -1 I I #
edge $-1 $361 -24.496699019493761 $365 24.496699019493761 $359 $433 forward 7 unknown #
straight-curve $-1 0 -24.496699019493761 -8.6457266603850691 -1 0 0 I I #
vertex $-1 $244 $434 #
straight-curve $-1 0 24.496699019493761 -8.6457266603850691 1 0 0 I I #
point $-1 40.798364207892085 24.496699019493761 -8.6457266603850691 #
point $-1 40.798364207892085 -24.496699019493761 -8.6457266603850691 #
straight-curve $-1 -40.798364207892085 0 8.6457266603850691 0 -1 0 I I #
point $-1 -40.798364207892085 24.496699019493761 8.6457266603850691 #
point $-1 -40.798364207892085 -24.496699019493761 8.6457266603850691 #
straight-curve $-1 40.798364207892085 -24.496699019493761 0 0 0 -1 I I #
straight-curve $-1 40.798364207892085 24.496699019493761 0 0 0 -1 I I #
plane-surface $-1 0 24.496699019493761 0 0 -1 0 0 0 -1 forward_v I I I I #
coedge $-1 $385 $384 $267 $377 forward $262 $-1 #
straight-curve $-1 -31.992071413838666 -24.496699019493761 0.43921117430147127 0 0 1 I I #
edge $-1 $380 -24.496699019493761 $378 24.496699019493761 $375 $435 forward 7 unknown #
vertex $-1 $268 $436 #
straight-curve $-1 -18.197608905432688 -24.496699019493761 -1.1882722896855222 1 0 0 I I #
vertex $-1 $270 $437 #
straight-curve $-1 -18.197608905432688 24.496699019493761 -1.1882722896855222 -1 0 0 I I #
point $-1 -31.992071413838666 24.496699019493761 -1.1882722896855222 #
point $-1 -31.992071413838666 -24.496699019493761 -1.1882722896855222 #
coedge $-1 $375 $274 $277 $387 forward $262 $-1 #
coedge $-1 $274 $375 $281 $389 reversed $262 $-1 #
straight-curve $-1 -40.798364207892085 0 2.9451169868914073 0 1 0 I I #
edge $-1 $279 -2.9451169868914073 $380 1.1882722896855222 $277 $438 forward 7 unknown #
point $-1 -40.798364207892085 24.496699019493761 2.9451169868914073 #
edge $-1 $282 -2.9451169868914073 $378 1.1882722896855222 $385 $439 forward 7 unknown #
point $-1 -40.798364207892085 -24.496699019493761 2.9451169868914073 #
straight-curve $-1 -31.992071413838666 24.496699019493761 0.43921117430147127 0 0 -1 I I #
plane-surface $-1 40.798364207892085 0 0 -1 0 0 0 0 1 forward_v I I I I #
coedge $-1 $291 $290 $306 $404 reversed $103 $-1 #
edge $-1 $397 -24.496699019493761 $395 24.496699019493761 $290 $440 forward 7 unknown #
vertex $-1 $298 $441 #
straight-curve $-1 31.992071413838673 24.496699019493761 0.43921117430147127 0 0 1 I I #
vertex $-1 $296 $442 #
straight-curve $-1 18.197608905432691 -24.496699019493761 -1.1882722896855222 1 0 0 I I #
straight-curve $-1 18.197608905432691 24.496699019493761 -1.1882722896855222 -1 0 0 I I #
point $-1 40.798364207892092 -24.496699019493761 -1.1882722896855222 #
point $-1 40.798364207892092 24.496699019493761 -1.1882722896855222 #
straight-curve $-1 31.992071413838673 0 2.9451169868914073 0 -1 0 I I #
point $-1 31.992071413838673 24.496699019493761 2.9451169868914073 #
edge $-1 $308 -2.5059058125899361 $397 1.6274834639869935 $306 $443 forward 7 unknown #
point $-1 31.992071413838673 -24.496699019493761 2.9451169868914073 #
straight-curve $-1 40.798364207892085 -24.496699019493761 0 0 0 -1 I I #
straight-curve $-1 40.798364207892085 24.496699019493761 0 0 0 -1 I I #
edge $-1 $409 19.901200552402315 $412 23.632801912144636 $315 $444 forward 7 unknown #
vertex $-1 $408 $445 #
straight-curve $-1 19.889378605137974 -24.496699019493761 27.052727964716787 0 0 1 I I #
edge $-1 $412 -12.361498103321132 $326 -2.6942629003125518 $325 $446 forward 7 unknown #
vertex $-1 $411 $447 #
straight-curve $-1 19.889378605137974 -24.496699019493761 3.8694945933081328 0 -0.61566146476048833 -0.78801076186113728 I I #
point $-1 19.889378605137974 -24.496699019493761 3.8694945933081328 #
point $-1 10.222143402129394 -20.76509765975144 8.6457266603850691 #
straight-curve $-1 0 -24.496699019493761 8.6457266603850691 1 0 0 I I #
vertex $-1 $332 $448 #
point $-1 16.555761003633684 -17.958350686200962 2.6070164069472566 #
coedge $-1 $347 $346 $339 $420 forward $336 $-1 #
edge $-1 $421 4.8195269522639634 $424 8.5511283120062842 $419 $449 forward 7 unknown #
vertex $-1 $420 $450 #
straight-curve $-1 10.222143402129394 24.496699019493761 46.356390422151044 0 0 1 I I #
edge $-1 $424 2.6942629003125518 $348 12.361498103321132 $347 $451 forward 7 unknown #
vertex $-1 $423 $452 #
straight-curve $-1 10.222143402129394 -5.6666481807829427 42.476819508176646 0 0.61566146476048833 -0.78801076186113728 I I #
point $-1 10.222143402129394 24.496699019493761 3.8694945933081257 #
point $-1 19.889378605137974 20.76509765975144 8.6457266603850655 #
straight-curve $-1 0 24.496699019493761 8.6457266603850691 -1 0 0 I I #
vertex $-1 $354 $453 #
point $-1 16.555761003633684 17.958350686200962 2.6070164069472566 #
straight-curve $-1 -40.798364207892085 24.496699019493761 0 0 0 -1 I I #
point $-1 -40.798364207892085 -24.496699019493761 -8.6457266603850691 #
straight-curve $-1 -40.798364207892085 0 -8.6457266603850691 0 1 0 I I #
point $-1 -40.798364207892085 24.496699019493761 -8.6457266603850691 #
straight-curve $-1 -40.798364207892085 0 -1.1882722896855222 0 -1 0 I I #
point $-1 -40.798364207892085 -24.496699019493761 -1.1882722896855222 #
point $-1 -40.798364207892085 24.496699019493761 -1.1882722896855222 #
straight-curve $-1 -40.798364207892085 24.496699019493761 0 0 0 -1 I I #
straight-curve $-1 -40.798364207892085 -24.496699019493761 0 0 0 -1 I I #
straight-curve $-1 31.992071413838673 0 -1.1882722896855222 0 1 0 I I #
point $-1 31.992071413838673 24.496699019493761 -1.1882722896855222 #
point $-1 31.992071413838673 -24.496699019493761 -1.1882722896855222 #
straight-curve $-1 31.992071413838673 -24.496699019493761 0.43921117430147127 0 0 -1 I I #
straight-curve $-1 19.889378605137974 -44.397899571896076 8.6457266603850691 0 1 0 I I #
point $-1 19.889378605137974 -24.496699019493761 8.6457266603850691 #
straight-curve $-1 7.527880501816842 -20.76509765975144 8.6457266603850691 -1 0 0 I I #
point $-1 19.889378605137974 -20.76509765975144 8.6457266603850691 #
point $-1 15.055761003633684 -16.776334543409259 1.683524209806524 #
straight-curve $-1 10.222143402129394 29.316225971757724 8.6457266603850726 0 -1 0 I I #
point $-1 10.222143402129394 24.496699019493761 8.6457266603850691 #
straight-curve $-1 7.527880501816842 20.76509765975144 8.6457266603850691 1 0 0 I I #
point $-1 10.222143402129394 20.76509765975144 8.6457266603850655 #
point $-1 15.055761003633684 16.776334543409259 1.683524209806524 #
End-of-ACIS-data 