500 0 10 0           
7 Unknown 11 ACIS 5.0 NT 24 Fri Mar 26 15:29:47 1999 
-1 9.9999999999999995e-007 1e-010 
body $-1 $10 $-1 $11 #
body $-1 $12 $-1 $13 #
body $-1 $14 $-1 $15 #
body $-1 $16 $-1 $17 #
body $-1 $18 $-1 $19 #
body $-1 $20 $-1 $21 #
body $-1 $22 $-1 $23 #
body $-1 $24 $-1 $25 #
body $-1 $26 $-1 $27 #
body $-1 $28 $-1 $29 #
lump $-1 $-1 $30 $0 #
transform $-1 1 0 0 0 1 0 0 0 1 50.698568681905577 31.637286999824955 6.6272522427472316 1 rotate no_reflect no_shear #
lump $-1 $-1 $31 $1 #
transform $-1 1 0 0 0 1 0 0 0 1 50.698568681905577 31.637286999824955 6.6272522427472316 1 rotate no_reflect no_shear #
lump $-1 $-1 $32 $2 #
transform $-1 1 0 0 0 1 0 0 0 1 50.698568681905577 31.637286999824955 6.6272522427472316 1 rotate no_reflect no_shear #
lump $-1 $-1 $33 $3 #
transform $-1 1 0 0 0 1 0 0 0 1 50.698568681905577 31.637286999824955 6.6272522427472316 1 rotate no_reflect no_shear #
lump $-1 $-1 $34 $4 #
transform $-1 1 0 0 0 1 0 0 0 1 50.698568681905577 31.637286999824955 6.6272522427472316 1 rotate no_reflect no_shear #
lump $-1 $-1 $35 $5 #
transform $-1 1 0 0 0 1 0 0 0 1 50.698568681905577 31.637286999824955 6.6272522427472316 1 rotate no_reflect no_shear #
lump $-1 $-1 $36 $6 #
transform $-1 1 0 0 0 1 0 0 0 1 50.698568681905577 31.637286999824955 6.6272522427472316 1 rotate no_reflect no_shear #
lump $-1 $-1 $37 $7 #
transform $-1 1 0 0 0 1 0 0 0 1 50.698568681905577 31.637286999824955 6.6272522427472316 1 rotate no_reflect no_shear #
lump $-1 $-1 $38 $8 #
transform $-1 1 0 0 0 1 0 0 0 1 50.698568681905577 31.637286999824955 6.6272522427472316 1 rotate no_reflect no_shear #
lump $-1 $-1 $39 $9 #
transform $-1 1 0 0 0 1 0 0 0 1 50.698568681905577 31.637286999824955 6.6272522427472316 1 rotate no_reflect no_shear #
shell $-1 $-1 $-1 $40 $-1 $10 #
shell $-1 $-1 $-1 $41 $-1 $12 #
shell $-1 $-1 $-1 $42 $-1 $14 #
shell $-1 $-1 $-1 $43 $-1 $16 #
shell $-1 $-1 $-1 $44 $-1 $18 #
shell $-1 $-1 $-1 $45 $-1 $20 #
shell $-1 $-1 $-1 $46 $-1 $22 #
shell $-1 $-1 $-1 $47 $-1 $24 #
shell $-1 $-1 $-1 $48 $-1 $26 #
shell $-1 $-1 $-1 $49 $-1 $28 #
face $-1 $50 $51 $30 $-1 $52 forward single #
face $-1 $53 $54 $31 $-1 $55 reversed single #
face $-1 $56 $57 $32 $-1 $58 reversed single #
face $-1 $59 $60 $33 $-1 $61 reversed single #
face $-1 $62 $63 $34 $-1 $64 forward single #
face $-1 $65 $66 $35 $-1 $67 forward single #
face $-1 $68 $69 $36 $-1 $70 forward single #
face $-1 $71 $72 $37 $-1 $73 reversed single #
face $-1 $74 $75 $38 $-1 $76 forward single #
face $-1 $77 $78 $39 $-1 $79 forward single #
face $-1 $80 $81 $30 $-1 $82 reversed single #
loop $-1 $-1 $83 $40 #
plane-surface $-1 0 0 6.6272522427472316 0 0 1 1 0 0 forward_v I I I I #
face $-1 $84 $85 $31 $-1 $86 reversed single #
loop $-1 $-1 $87 $41 #
plane-surface $-1 0 -28.847664224975414 2.8519412343067758 0 0 1 1 0 0 forward_v I I I I #
face $-1 $88 $89 $32 $-1 $90 reversed single #
loop $-1 $-1 $91 $42 #
plane-surface $-1 0 28.847664224975414 2.8519412343067758 0 0 1 1 0 0 forward_v I I I I #
face $-1 $92 $93 $33 $-1 $94 reversed single #
loop $-1 $-1 $95 $43 #
plane-surface $-1 -124.8557412645238 13.443941703181618 69.15910100175077 0 1 0 -0.73135370988377701 0 0.68199835119979291 forward_v I I I I #
face $-1 $96 $97 $34 $-1 $98 forward single #
loop $-1 $99 $100 $44 #
cone-surface $-1 -46.913313767667347 15.363635216533371 2.6657149575588313 0.73135370988377701 0 -0.68199835119979291 0.34099917559989645 0 0.36567685494188851 1 I I 0 1 0.5 forward I I I I #
face $-1 $101 $102 $35 $-1 $103 forward single #
loop $-1 $104 $105 $45 #
cone-surface $-1 -46.913313767667347 18.243175486560997 2.6657149575588313 0.73135370988377701 0 -0.68199835119979291 0.34099917559989645 0 0.36567685494188851 1 I I 0 1 0.5 forward I I I I #
face $-1 $106 $107 $36 $-1 $108 forward single #
loop $-1 $109 $110 $46 #
cone-surface $-1 -46.913313767667347 21.122715756588622 2.6657149575588313 0.73135370988377701 0 -0.68199835119979291 0.34099917559989645 0 0.36567685494188851 1 I I 0 1 0.5 forward I I I I #
face $-1 $111 $112 $37 $-1 $113 reversed single #
loop $-1 $-1 $114 $47 #
plane-surface $-1 45.694079923305416 -0.3041467453396578 143.89943251316976 0 -1 0 -0.68199836817093118 0 -0.7313536940579346 forward_v I I I I #
face $-1 $115 $116 $38 $-1 $117 forward single #
loop $-1 $118 $119 $48 #
cone-surface $-1 47.030692591481433 -7.2330750440613762 3.146685566957875 -0.68199836817093118 0 -0.7313536940579346 0.7313536940579346 0 -0.68199836817093118 1 I I 0 1 1 forward I I I I #
face $-1 $120 $121 $39 $-1 $122 forward single #
loop $-1 $123 $124 $49 #
cone-surface $-1 47.030692591481433 -3.0757180648283438 3.146685566957875 -0.68199836817093118 0 -0.7313536940579346 0.7313536940579346 0 -0.68199836817093118 1 I I 0 1 1 forward I I I I #
face $-1 $125 $126 $30 $-1 $127 reversed single #
loop $-1 $-1 $128 $50 #
plane-surface $-1 0 0 -6.6272522427472316 0 0 1 1 0 0 forward_v I I I I #
coedge $-1 $129 $130 $131 $132 forward $51 $-1 #
face $-1 $133 $134 $31 $-1 $135 reversed single #
loop $-1 $-1 $136 $53 #
plane-surface $-1 0 -26.058041450125874 4.7395967385270028 0 -1 0 0 0 -1 forward_v I I I I #
coedge $-1 $137 $138 $139 $140 reversed $54 $-1 #
face $-1 $141 $142 $32 $-1 $143 forward single #
loop $-1 $-1 $144 $56 #
plane-surface $-1 0 26.058041450125874 4.7395967385270028 0 1 0 0 0 1 forward_v I I I I #
coedge $-1 $145 $146 $147 $148 reversed $57 $-1 #
face $-1 $149 $150 $33 $-1 $151 reversed single #
loop $-1 $-1 $152 $59 #
plane-surface $-1 -50.698568681905584 18.243175486560997 0.0064205032526558625 -0.73135370988377701 0 0.68199835119979291 0.68199835119979291 0 0.73135370988377701 forward_v I I I I #
coedge $-1 $153 $154 $155 $156 reversed $60 $-1 #
face $-1 $-1 $157 $34 $-1 $158 forward single #
loop $-1 $159 $160 $62 #
cone-surface $-1 -46.032233090886145 15.363635216533371 1.8440939543177768 0.73135370988377701 0 -0.68199835119979291 0.17049958779994823 0 0.18283842747094425 1 I I -0.70710678118654746 0.70710678118654746 0.25 forward I I I I #
loop $-1 $-1 $161 $44 #
coedge $-1 $100 $100 $162 $163 reversed $63 $-1 #
face $-1 $-1 $164 $35 $-1 $165 forward single #
loop $-1 $166 $167 $65 #
cone-surface $-1 -46.032233090886145 18.243175486560997 1.8440939543177768 0.73135370988377701 0 -0.68199835119979291 0.17049958779994823 0 0.18283842747094425 1 I I -0.70710678118654746 0.70710678118654746 0.25 forward I I I I #
loop $-1 $-1 $168 $45 #
coedge $-1 $105 $105 $169 $170 reversed $66 $-1 #
face $-1 $-1 $171 $36 $-1 $172 forward single #
loop $-1 $173 $174 $68 #
cone-surface $-1 -46.032233090886145 21.122715756588622 1.8440939543177768 0.73135370988377701 0 -0.68199835119979291 0.17049958779994823 0 0.18283842747094425 1 I I -0.70710678118654746 0.70710678118654746 0.25 forward I I I I #
loop $-1 $-1 $175 $46 #
coedge $-1 $110 $110 $176 $177 reversed $69 $-1 #
face $-1 $178 $179 $37 $-1 $180 reversed single #
loop $-1 $-1 $181 $71 #
plane-surface $-1 -23.458602296017538 -5.1543965544448618 69.742261535246641 0.68199836817093118 0 0.7313536940579346 0.7313536940579346 0 -0.68199836817093118 forward_v I I I I #
coedge $-1 $182 $183 $184 $185 reversed $72 $-1 #
face $-1 $-1 $186 $38 $-1 $187 forward single #
loop $-1 $188 $189 $74 #
cone-surface $-1 46.259123009057639 -7.2330750440613762 2.319278507551318 -0.68199836817093118 0 -0.7313536940579346 0.3656768470289673 0 -0.34099918408546559 1 I I -0.70710678118654746 0.70710678118654746 0.5 forward I I I I #
loop $-1 $-1 $190 $48 #
coedge $-1 $119 $119 $191 $192 reversed $75 $-1 #
face $-1 $-1 $193 $39 $-1 $194 forward single #
loop $-1 $195 $196 $77 #
cone-surface $-1 46.259123009057639 -3.0757180648283438 2.319278507551318 -0.68199836817093118 0 -0.7313536940579346 0.3656768470289673 0 -0.34099918408546559 1 I I -0.70710678118654746 0.70710678118654746 0.5 forward I I I I #
loop $-1 $-1 $197 $49 #
coedge $-1 $124 $124 $198 $199 reversed $78 $-1 #
face $-1 $200 $201 $30 $-1 $202 reversed single #
loop $-1 $-1 $203 $80 #
plane-surface $-1 0 -31.637286999824955 0 0 1 0 0 0 1 forward_v I I I I #
coedge $-1 $204 $205 $206 $207 forward $81 $-1 #
coedge $-1 $208 $83 $209 $210 forward $51 $-1 #
coedge $-1 $83 $208 $211 $212 forward $51 $-1 #
coedge $-1 $213 $214 $83 $132 reversed $215 $-1 #
edge $-1 $216 -31.637286999824955 $217 31.637286999824955 $131 $218 forward 7 unknown #
face $-1 $219 $220 $31 $-1 $221 reversed single #
loop $-1 $-1 $222 $84 #
plane-surface $-1 -50.698568681905577 0 0 1 0 0 0 0 -1 forward_v I I I I #
coedge $-1 $223 $224 $225 $226 reversed $85 $-1 #
coedge $-1 $227 $87 $228 $229 reversed $54 $-1 #
coedge $-1 $87 $227 $223 $230 forward $54 $-1 #
coedge $-1 $225 $231 $87 $140 forward $232 $-1 #
edge $-1 $233 -17.213454887337249 $234 -11.634209337638167 $139 $235 forward 7 unknown #
face $-1 $236 $237 $32 $-1 $238 reversed single #
loop $-1 $-1 $239 $88 #
plane-surface $-1 0 0 6.6272522427472316 0 0 1 1 0 0 forward_v I I I I #
coedge $-1 $240 $241 $242 $243 reversed $89 $-1 #
coedge $-1 $244 $91 $240 $245 forward $57 $-1 #
coedge $-1 $91 $244 $246 $247 reversed $57 $-1 #
coedge $-1 $248 $249 $91 $148 forward $237 $-1 #
edge $-1 $250 11.634209337638167 $251 17.213454887337249 $147 $252 forward 7 unknown #
face $-1 $253 $254 $33 $-1 $255 reversed single #
loop $-1 $-1 $256 $92 #
plane-surface $-1 -124.8557412645238 23.042409269940375 69.15910100175077 0 -1 0 0.73135370988377701 0 -0.68199835119979291 forward_v I I I I #
coedge $-1 $257 $258 $259 $260 reversed $93 $-1 #
coedge $-1 $154 $95 $261 $262 reversed $60 $-1 #
coedge $-1 $95 $153 $257 $263 reversed $60 $-1 #
coedge $-1 $259 $264 $95 $156 forward $265 $-1 #
edge $-1 $266 11.729301950356323 $267 17.903327280212267 $155 $268 forward 7 unknown #
loop $-1 $-1 $162 $96 #
plane-surface $-1 -50.698568681905584 18.243175486560997 0.0064205032526558625 -0.73135370988377701 0 0.68199835119979291 0.68199835119979291 0 0.73135370988377701 forward_v I I I I #
loop $-1 $-1 $269 $62 #
coedge $-1 $160 $160 $161 $270 reversed $97 $-1 #
coedge $-1 $161 $161 $160 $270 forward $99 $-1 #
coedge $-1 $162 $162 $100 $163 forward $157 $-1 #
edge $-1 $271 0 $271 6.2831853071796004 $162 $272 forward 7 unknown #
loop $-1 $-1 $169 $101 #
plane-surface $-1 -50.698568681905584 18.243175486560997 0.0064205032526558625 -0.73135370988377701 0 0.68199835119979291 0.68199835119979291 0 0.73135370988377701 forward_v I I I I #
loop $-1 $-1 $273 $65 #
coedge $-1 $167 $167 $168 $274 reversed $102 $-1 #
coedge $-1 $168 $168 $167 $274 forward $104 $-1 #
coedge $-1 $169 $169 $105 $170 forward $164 $-1 #
edge $-1 $275 0 $275 6.2831853071796004 $169 $276 forward 7 unknown #
loop $-1 $-1 $176 $106 #
plane-surface $-1 -50.698568681905584 18.243175486560997 0.0064205032526558625 -0.73135370988377701 0 0.68199835119979291 0.68199835119979291 0 0.73135370988377701 forward_v I I I I #
loop $-1 $-1 $277 $68 #
coedge $-1 $174 $174 $175 $278 reversed $107 $-1 #
coedge $-1 $175 $175 $174 $278 forward $109 $-1 #
coedge $-1 $176 $176 $110 $177 forward $171 $-1 #
edge $-1 $279 0 $279 6.2831853071796004 $176 $280 forward 7 unknown #
face $-1 $281 $282 $37 $-1 $283 forward single #
loop $-1 $-1 $284 $111 #
plane-surface $-1 45.694079923305416 -10.004646363550066 143.89943251316976 0 1 0 0.68199836817093118 0 0.7313536940579346 forward_v I I I I #
coedge $-1 $285 $286 $287 $288 reversed $112 $-1 #
coedge $-1 $183 $114 $289 $290 reversed $72 $-1 #
coedge $-1 $114 $182 $285 $291 reversed $72 $-1 #
coedge $-1 $287 $292 $114 $185 forward $282 $-1 #
edge $-1 $293 -27.851528720252869 $294 -21.376917336081231 $184 $295 forward 7 unknown #
loop $-1 $-1 $191 $115 #
plane-surface $-1 -23.458602296017538 -5.1543965544448618 69.742261535246641 0.68199836817093118 0 0.7313536940579346 0.7313536940579346 0 -0.68199836817093118 forward_v I I I I #
loop $-1 $-1 $296 $74 #
coedge $-1 $189 $189 $190 $297 reversed $116 $-1 #
coedge $-1 $190 $190 $189 $297 forward $118 $-1 #
coedge $-1 $191 $191 $119 $192 forward $186 $-1 #
edge $-1 $298 0 $298 6.2831853071796004 $191 $299 forward 7 unknown #
loop $-1 $-1 $198 $120 #
plane-surface $-1 -23.458602296017538 -5.1543965544448618 69.742261535246641 0.68199836817093118 0 0.7313536940579346 0.7313536940579346 0 -0.68199836817093118 forward_v I I I I #
loop $-1 $-1 $300 $77 #
coedge $-1 $196 $196 $197 $301 reversed $121 $-1 #
coedge $-1 $197 $197 $196 $301 forward $123 $-1 #
coedge $-1 $198 $198 $124 $199 forward $193 $-1 #
edge $-1 $302 0 $302 6.2831853071796004 $198 $303 forward 7 unknown #
face $-1 $304 $305 $30 $-1 $306 reversed single #
loop $-1 $-1 $307 $125 #
plane-surface $-1 -50.698568681905577 0 0 1 0 0 0 0 -1 forward_v I I I I #
coedge $-1 $308 $211 $309 $310 forward $126 $-1 #
coedge $-1 $311 $128 $308 $312 forward $81 $-1 #
coedge $-1 $128 $311 $313 $314 forward $81 $-1 #
coedge $-1 $214 $213 $128 $207 reversed $215 $-1 #
edge $-1 $315 -31.637286999824955 $316 31.637286999824955 $206 $317 forward 7 unknown #
coedge $-1 $130 $129 $318 $319 forward $51 $-1 #
coedge $-1 $320 $321 $129 $210 reversed $305 $-1 #
edge $-1 $217 -50.698568681905577 $322 50.698568681905577 $209 $323 forward 7 unknown #
coedge $-1 $203 $324 $130 $212 reversed $126 $-1 #
edge $-1 $325 -50.698568681905577 $216 50.698568681905577 $211 $326 forward 7 unknown #
coedge $-1 $206 $131 $324 $327 forward $215 $-1 #
coedge $-1 $131 $206 $320 $328 reversed $215 $-1 #
loop $-1 $-1 $213 $304 #
vertex $-1 $132 $329 #
vertex $-1 $132 $330 #
straight-curve $-1 50.698568681905577 0 6.6272522427472316 0 1 0 I I #
face $-1 $331 $332 $31 $-1 $333 forward single #
loop $-1 $-1 $228 $133 #
plane-surface $-1 0 -31.637286999824955 0 0 1 0 0 0 1 forward_v I I I I #
coedge $-1 $334 $335 $336 $337 forward $134 $-1 #
coedge $-1 $336 $136 $138 $230 reversed $85 $-1 #
coedge $-1 $136 $336 $338 $339 reversed $85 $-1 #
coedge $-1 $340 $139 $136 $226 forward $232 $-1 #
edge $-1 $234 0.48214286504327442 $341 4.2574538734837279 $225 $342 forward 7 unknown #
coedge $-1 $138 $137 $334 $343 reversed $54 $-1 #
coedge $-1 $344 $345 $137 $229 forward $220 $-1 #
edge $-1 $346 -50.698568681905577 $233 50.698568681905577 $228 $347 forward 7 unknown #
edge $-1 $348 -50.698568681905577 $234 50.698568681905577 $223 $349 forward 7 unknown #
coedge $-1 $139 $340 $344 $350 forward $232 $-1 #
loop $-1 $-1 $225 $331 #
vertex $-1 $229 $351 #
vertex $-1 $140 $352 #
straight-curve $-1 50.698568681905577 -14.423832112487707 2.8519412343067758 0 1 0 I I #
face $-1 $353 $354 $32 $-1 $355 reversed single #
loop $-1 $-1 $249 $141 #
plane-surface $-1 50.698568681905577 0 0 -1 0 0 0 0 1 forward_v I I I I #
coedge $-1 $356 $357 $241 $358 forward $142 $-1 #
coedge $-1 $359 $144 $145 $245 reversed $89 $-1 #
coedge $-1 $144 $359 $239 $358 reversed $89 $-1 #
coedge $-1 $360 $361 $144 $243 forward $354 $-1 #
edge $-1 $362 0.48214286504327442 $363 4.2574538734837279 $242 $364 forward 7 unknown #
coedge $-1 $146 $145 $361 $365 reversed $57 $-1 #
edge $-1 $250 -50.698568681905577 $362 50.698568681905577 $240 $366 forward 7 unknown #
coedge $-1 $367 $368 $146 $247 forward $369 $-1 #
edge $-1 $251 -50.698568681905577 $370 50.698568681905577 $246 $371 forward 7 unknown #
coedge $-1 $372 $147 $368 $373 reversed $237 $-1 #
coedge $-1 $147 $372 $359 $374 forward $237 $-1 #
vertex $-1 $148 $375 #
vertex $-1 $247 $376 #
straight-curve $-1 50.698568681905577 14.423832112487707 2.8519412343067758 0 1 0 I I #
face $-1 $-1 $265 $33 $-1 $377 forward single #
loop $-1 $-1 $378 $149 #
plane-surface $-1 -50.698568681905577 0 0 1 0 0 0 0 -1 forward_v I I I I #
coedge $-1 $379 $380 $381 $382 reversed $150 $-1 #
coedge $-1 $383 $152 $154 $263 forward $93 $-1 #
coedge $-1 $152 $383 $379 $384 forward $93 $-1 #
coedge $-1 $381 $155 $152 $260 forward $265 $-1 #
edge $-1 $267 4.32235395990112 $385 13.920821526659877 $259 $386 forward 7 unknown #
coedge $-1 $387 $388 $153 $262 forward $254 $-1 #
edge $-1 $389 -34.573129997622722 $266 -27.952298258128152 $261 $390 forward 7 unknown #
edge $-1 $267 -9.0528449504231343 $389 -1.0418638898104172e-014 $154 $391 forward 7 unknown #
coedge $-1 $155 $381 $387 $392 forward $265 $-1 #
loop $-1 $-1 $381 $253 #
vertex $-1 $262 $393 #
vertex $-1 $156 $394 #
straight-curve $-1 -62.4278706322619 13.443941703181618 6.6272522427472325 1 0 0 I I #
coedge $-1 $269 $269 $-1 $395 reversed $159 $-1 #
edge $-1 $396 0 $396 6.2831853071796004 $160 $397 forward 7 unknown #
vertex $-1 $163 $398 #
ellipse-curve $-1 -47.611556016977609 15.363635216533371 3.3168363729999442 -0.73135370988377701 0 0.68199835119979291 0.34099917559989645 0 0.36567685494188851 1 I I #
coedge $-1 $273 $273 $-1 $399 reversed $166 $-1 #
edge $-1 $400 0 $400 6.2831853071796004 $167 $401 forward 7 unknown #
vertex $-1 $170 $402 #
ellipse-curve $-1 -47.611556016977609 18.243175486560997 3.3168363729999442 -0.73135370988377701 0 0.68199835119979291 0.34099917559989645 0 0.36567685494188851 1 I I #
coedge $-1 $277 $277 $-1 $403 reversed $173 $-1 #
edge $-1 $404 0 $404 6.2831853071796004 $174 $405 forward 7 unknown #
vertex $-1 $177 $406 #
ellipse-curve $-1 -47.611556016977609 21.122715756588622 3.3168363729999442 -0.73135370988377701 0 0.68199835119979291 0.34099917559989645 0 0.36567685494188851 1 I I #
face $-1 $-1 $407 $37 $-1 $408 reversed single #
loop $-1 $-1 $184 $178 #
plane-surface $-1 0 0 6.6272522427472316 0 0 1 1 0 0 forward_v I I I I #
coedge $-1 $409 $410 $411 $412 reversed $179 $-1 #
coedge $-1 $413 $181 $183 $291 forward $112 $-1 #
coedge $-1 $181 $413 $409 $414 forward $112 $-1 #
coedge $-1 $411 $184 $181 $288 forward $282 $-1 #
edge $-1 $294 -2.2730515318827731 $415 7.4274480863276349 $287 $416 forward 7 unknown #
coedge $-1 $417 $418 $182 $290 forward $407 $-1 #
edge $-1 $419 -71.360136940661192 $293 -65.322464013837646 $289 $420 forward 7 unknown #
edge $-1 $294 92.544223326764197 $419 101.39713736381114 $183 $421 forward 7 unknown #
coedge $-1 $184 $411 $417 $422 forward $282 $-1 #
vertex $-1 $290 $423 #
vertex $-1 $185 $424 #
straight-curve $-1 22.847039961652708 -0.3041467453396578 6.6272522427472325 -1 0 0 I I #
coedge $-1 $296 $296 $-1 $425 reversed $188 $-1 #
edge $-1 $426 0 $426 6.2831853071796004 $189 $427 forward 7 unknown #
vertex $-1 $192 $428 #
ellipse-curve $-1 47.461262989819758 -7.2330750440613762 3.6084157793354623 0.68199836817093118 0 0.7313536940579346 0.7313536940579346 0 -0.68199836817093118 1 I I #
coedge $-1 $300 $300 $-1 $429 reversed $195 $-1 #
edge $-1 $430 0 $430 6.2831853071796004 $196 $431 forward 7 unknown #
vertex $-1 $199 $432 #
ellipse-curve $-1 47.461262989819758 -3.0757180648283438 3.6084157793354623 0.68199836817093118 0 0.7313536940579346 0.7313536940579346 0 -0.68199836817093118 1 I I #
face $-1 $-1 $215 $30 $-1 $433 reversed single #
loop $-1 $-1 $320 $200 #
plane-surface $-1 0 31.637286999824955 0 0 -1 0 0 0 -1 forward_v I I I I #
coedge $-1 $434 $318 $321 $435 forward $201 $-1 #
coedge $-1 $324 $203 $204 $312 reversed $126 $-1 #
coedge $-1 $318 $434 $203 $310 reversed $201 $-1 #
edge $-1 $325 -6.6272522427472316 $436 6.6272522427472316 $309 $437 forward 7 unknown #
coedge $-1 $205 $204 $434 $438 forward $81 $-1 #
edge $-1 $316 -50.698568681905577 $436 50.698568681905577 $308 $439 forward 7 unknown #
coedge $-1 $321 $320 $205 $314 reversed $305 $-1 #
edge $-1 $440 -50.698568681905577 $315 50.698568681905577 $313 $441 forward 7 unknown #
vertex $-1 $207 $442 #
vertex $-1 $327 $443 #
straight-curve $-1 50.698568681905577 0 -6.6272522427472316 0 -1 0 I I #
coedge $-1 $307 $309 $208 $319 reversed $201 $-1 #
edge $-1 $322 -31.637286999824955 $325 31.637286999824955 $318 $444 forward 7 unknown #
coedge $-1 $313 $209 $214 $328 forward $305 $-1 #
coedge $-1 $209 $313 $307 $435 reversed $305 $-1 #
vertex $-1 $210 $445 #
straight-curve $-1 0 31.637286999824955 6.6272522427472316 -1 0 0 I I #
coedge $-1 $211 $308 $213 $327 reversed $126 $-1 #
vertex $-1 $319 $446 #
straight-curve $-1 0 -31.637286999824955 6.6272522427472316 1 0 0 I I #
edge $-1 $216 -6.6272522427472316 $316 6.6272522427472316 $213 $447 forward 7 unknown #
edge $-1 $217 -6.6272522427472316 $315 6.6272522427472316 $214 $448 forward 7 unknown #
point $-1 50.698568681905577 -31.637286999824955 6.6272522427472316 #
point $-1 50.698568681905577 31.637286999824955 6.6272522427472316 #
face $-1 $-1 $232 $31 $-1 $449 reversed single #
loop $-1 $-1 $338 $219 #
plane-surface $-1 0 0 6.6272522427472316 0 0 1 1 0 0 forward_v I I I I #
coedge $-1 $450 $222 $227 $343 forward $134 $-1 #
coedge $-1 $222 $450 $451 $452 reversed $134 $-1 #
coedge $-1 $224 $223 $222 $337 reversed $85 $-1 #
edge $-1 $453 -4.2574538734837279 $348 -0.48214286504327442 $222 $454 forward 7 unknown #
coedge $-1 $451 $455 $224 $339 forward $332 $-1 #
edge $-1 $341 -50.698568681905577 $453 50.698568681905577 $338 $456 forward 7 unknown #
coedge $-1 $231 $225 $455 $457 reversed $232 $-1 #
vertex $-1 $226 $458 #
straight-curve $-1 50.698568681905577 -26.058041450125874 2.3697983692635014 0 0 1 I I #
edge $-1 $348 11.634209337638167 $346 17.213454887337249 $334 $459 forward 7 unknown #
coedge $-1 $460 $228 $231 $350 reversed $220 $-1 #
coedge $-1 $228 $460 $450 $461 forward $220 $-1 #
vertex $-1 $229 $462 #
straight-curve $-1 0 -31.637286999824955 2.8519412343067758 1 0 0 I I #
vertex $-1 $343 $463 #
straight-curve $-1 0 -26.058041450125874 2.8519412343067758 1 0 0 I I #
edge $-1 $464 -6.6272522427472316 $233 -2.8519412343067758 $231 $465 forward 7 unknown #
point $-1 50.698568681905577 -31.637286999824955 2.8519412343067758 #
point $-1 50.698568681905577 -26.058041450125874 2.8519412343067758 #
face $-1 $-1 $369 $32 $-1 $466 reversed single #
loop $-1 $-1 $242 $236 #
plane-surface $-1 -50.698568681905577 0 0 1 0 0 0 0 -1 forward_v I I I I #
coedge $-1 $467 $239 $372 $468 forward $142 $-1 #
coedge $-1 $239 $467 $360 $469 forward $142 $-1 #
edge $-1 $363 -50.698568681905577 $470 50.698568681905577 $239 $471 forward 7 unknown #
coedge $-1 $241 $240 $249 $374 reversed $89 $-1 #
coedge $-1 $472 $242 $357 $469 reversed $354 $-1 #
coedge $-1 $242 $472 $244 $365 forward $354 $-1 #
vertex $-1 $365 $473 #
vertex $-1 $243 $474 #
straight-curve $-1 -50.698568681905577 26.058041450125874 2.3697983692635014 0 0 1 I I #
edge $-1 $370 -17.213454887337249 $362 -11.634209337638167 $361 $475 forward 7 unknown #
straight-curve $-1 0 26.058041450125874 2.8519412343067758 -1 0 0 I I #
coedge $-1 $476 $246 $472 $477 reversed $369 $-1 #
coedge $-1 $246 $476 $248 $373 forward $369 $-1 #
loop $-1 $-1 $246 $353 #
vertex $-1 $247 $478 #
straight-curve $-1 0 31.637286999824955 2.8519412343067758 -1 0 0 I I #
coedge $-1 $249 $248 $356 $468 reversed $237 $-1 #
edge $-1 $479 -6.6272522427472316 $251 -2.8519412343067758 $248 $480 forward 7 unknown #
edge $-1 $470 -4.2574538734837279 $250 -0.48214286504327442 $249 $481 forward 7 unknown #
point $-1 50.698568681905577 26.058041450125874 2.8519412343067758 #
point $-1 50.698568681905577 31.637286999824955 2.8519412343067758 #
plane-surface $-1 0 0 6.6272522427472316 0 0 1 1 0 0 forward_v I I I I #
coedge $-1 $388 $387 $380 $482 forward $254 $-1 #
coedge $-1 $380 $256 $258 $384 reversed $150 $-1 #
coedge $-1 $256 $379 $378 $482 reversed $150 $-1 #
coedge $-1 $264 $259 $256 $382 forward $265 $-1 #
edge $-1 $385 -17.903327280212267 $483 -11.729301950356323 $381 $484 forward 7 unknown #
coedge $-1 $258 $257 $388 $485 reversed $93 $-1 #
edge $-1 $486 1.0418638898104172e-014 $385 9.0528449504231343 $379 $487 forward 7 unknown #
vertex $-1 $260 $488 #
straight-curve $-1 -44.524543352049633 9.1215877432804984 6.6272522427472298 0 1 0 I I #
coedge $-1 $378 $261 $264 $392 reversed $254 $-1 #
coedge $-1 $261 $378 $383 $485 forward $254 $-1 #
vertex $-1 $262 $489 #
straight-curve $-1 -50.698568681905577 13.443941703181618 34.579550500875385 0 0 1 I I #
straight-curve $-1 -50.698568681905584 13.443941703181618 0.0064205032526558625 -0.68199835119979291 0 -0.73135370988377701 I I #
edge $-1 $483 -23.042409269940375 $266 -13.443941703181618 $387 $490 forward 7 unknown #
point $-1 -50.698568681905577 13.443941703181618 6.6272522427472316 #
point $-1 -44.524543352049633 13.443941703181618 6.6272522427472316 #
edge $-1 $491 1 $491 0 $269 $-1 forward 7 unknown #
vertex $-1 $270 $492 #
ellipse-curve $-1 -46.215071518357092 15.363635216533371 2.014593542117725 -0.73135370988377701 0 0.68199835119979291 0.34099917559989645 0 0.36567685494188851 1 I I #
point $-1 -47.270556841377704 15.363635216533371 3.6825132279418256 #
edge $-1 $493 1 $493 0 $273 $-1 forward 7 unknown #
vertex $-1 $274 $494 #
ellipse-curve $-1 -46.215071518357092 18.243175486560997 2.014593542117725 -0.73135370988377701 0 0.68199835119979291 0.34099917559989645 0 0.36567685494188851 1 I I #
point $-1 -47.270556841377704 18.243175486560997 3.6825132279418256 #
edge $-1 $495 1 $495 0 $277 $-1 forward 7 unknown #
vertex $-1 $278 $496 #
ellipse-curve $-1 -46.215071518357092 21.122715756588622 2.014593542117725 -0.73135370988377701 0 0.68199835119979291 0.34099917559989645 0 0.36567685494188851 1 I I #
point $-1 -47.270556841377704 21.122715756588622 3.6825132279418256 #
loop $-1 $-1 $289 $281 #
plane-surface $-1 50.698568681905577 0 0 -1 0 0 0 0 1 forward_v I I I I #
coedge $-1 $410 $284 $286 $414 reversed $179 $-1 #
coedge $-1 $284 $409 $497 $498 reversed $179 $-1 #
coedge $-1 $292 $287 $284 $412 forward $282 $-1 #
edge $-1 $415 21.376917336081231 $499 27.851528720252869 $411 $500 forward 7 unknown #
coedge $-1 $286 $285 $418 $501 reversed $112 $-1 #
edge $-1 $502 -101.39713736381114 $415 -92.544223326764197 $409 $503 forward 7 unknown #
vertex $-1 $288 $504 #
straight-curve $-1 44.223957297733946 -2.5771982772224309 6.6272522427472325 0 -1 0 I I #
coedge $-1 $497 $289 $292 $422 reversed $407 $-1 #
coedge $-1 $289 $497 $413 $501 forward $407 $-1 #
vertex $-1 $290 $505 #
straight-curve $-1 50.698568681905577 -0.3041467453396578 71.949716256584878 0 0 1 I I #
straight-curve $-1 -23.458602296017538 -0.3041467453396578 69.742261535246641 0.7313536940579346 0 -0.68199836817093118 I I #
edge $-1 $499 -10.004646363550066 $293 -0.3041467453396578 $417 $506 forward 7 unknown #
point $-1 50.698568681905577 -0.3041467453396578 6.6272522427472316 #
point $-1 44.223957297733939 -0.3041467453396578 6.6272522427472325 #
edge $-1 $507 1 $507 0 $296 $-1 forward 7 unknown #
vertex $-1 $297 $508 #
ellipse-curve $-1 46.600122193143108 -7.2330750440613762 2.6849553545802856 0.68199836817093118 0 0.7313536940579346 0.7313536940579346 0 -0.68199836817093118 1 I I #
point $-1 48.192616683877702 -7.2330750440613762 2.9264174111645342 #
edge $-1 $509 1 $509 0 $300 $-1 forward 7 unknown #
vertex $-1 $301 $510 #
ellipse-curve $-1 46.600122193143108 -3.0757180648283438 2.6849553545802856 0.68199836817093118 0 0.7313536940579346 0.7313536940579346 0 -0.68199836817093118 1 I I #
point $-1 48.192616683877702 -3.0757180648283438 2.9264174111645342 #
plane-surface $-1 50.698568681905577 0 0 -1 0 0 0 0 1 forward_v I I I I #
coedge $-1 $309 $307 $311 $438 reversed $201 $-1 #
edge $-1 $322 -6.6272522427472316 $440 6.6272522427472316 $321 $511 forward 7 unknown #
vertex $-1 $438 $512 #
straight-curve $-1 -50.698568681905577 -31.637286999824955 0 0 0 -1 I I #
edge $-1 $436 -31.637286999824955 $440 31.637286999824955 $434 $513 forward 7 unknown #
straight-curve $-1 0 -31.637286999824955 -6.6272522427472316 -1 0 0 I I #
vertex $-1 $314 $514 #
straight-curve $-1 0 31.637286999824955 -6.6272522427472316 1 0 0 I I #
point $-1 50.698568681905577 31.637286999824955 -6.6272522427472316 #
point $-1 50.698568681905577 -31.637286999824955 -6.6272522427472316 #
straight-curve $-1 -50.698568681905577 0 6.6272522427472316 0 -1 0 I I #
point $-1 -50.698568681905577 31.637286999824955 6.6272522427472316 #
point $-1 -50.698568681905577 -31.637286999824955 6.6272522427472316 #
straight-curve $-1 50.698568681905577 -31.637286999824955 0 0 0 -1 I I #
straight-curve $-1 50.698568681905577 31.637286999824955 0 0 0 -1 I I #
plane-surface $-1 50.698568681905577 0 0 -1 0 0 0 0 1 forward_v I I I I #
coedge $-1 $335 $334 $345 $461 reversed $134 $-1 #
coedge $-1 $515 $338 $335 $452 forward $332 $-1 #
edge $-1 $453 26.058041450125874 $516 31.637286999824955 $335 $517 forward 7 unknown #
vertex $-1 $452 $518 #
straight-curve $-1 -50.698568681905577 -26.058041450125874 2.3697983692635014 0 0 -1 I I #
coedge $-1 $338 $515 $340 $457 forward $332 $-1 #
straight-curve $-1 0 -26.058041450125874 6.6272522427472316 -1 0 0 I I #
edge $-1 $464 -31.637286999824955 $341 -26.058041450125874 $340 $519 forward 7 unknown #
point $-1 50.698568681905577 -26.058041450125874 6.6272522427472298 #
straight-curve $-1 -50.698568681905577 -14.423832112487707 2.8519412343067758 0 -1 0 I I #
coedge $-1 $345 $344 $515 $520 reversed $220 $-1 #
edge $-1 $516 -6.6272522427472316 $346 -2.8519412343067758 $450 $521 forward 7 unknown #
point $-1 -50.698568681905577 -31.637286999824955 2.8519412343067758 #
point $-1 -50.698568681905577 -26.058041450125874 2.8519412343067758 #
vertex $-1 $457 $522 #
straight-curve $-1 50.698568681905577 -31.637286999824955 0 0 0 -1 I I #
plane-surface $-1 0 31.637286999824955 0 0 -1 0 0 0 -1 forward_v I I I I #
coedge $-1 $357 $356 $476 $523 forward $142 $-1 #
edge $-1 $470 26.058041450125874 $479 31.637286999824955 $372 $524 forward 7 unknown #
edge $-1 $525 -31.637286999824955 $363 -26.058041450125874 $360 $526 forward 7 unknown #
vertex $-1 $468 $527 #
straight-curve $-1 0 26.058041450125874 6.6272522427472316 1 0 0 I I #
coedge $-1 $361 $360 $367 $477 forward $354 $-1 #
point $-1 -50.698568681905577 26.058041450125874 2.8519412343067758 #
point $-1 -50.698568681905577 26.058041450125874 6.6272522427472298 #
straight-curve $-1 -50.698568681905577 14.423832112487707 2.8519412343067758 0 -1 0 I I #
coedge $-1 $368 $367 $467 $523 reversed $369 $-1 #
edge $-1 $525 -6.6272522427472316 $370 -2.8519412343067758 $367 $528 forward 7 unknown #
point $-1 -50.698568681905577 31.637286999824955 2.8519412343067758 #
vertex $-1 $468 $529 #
straight-curve $-1 50.698568681905577 31.637286999824955 0 0 0 -1 I I #
straight-curve $-1 50.698568681905577 26.058041450125874 2.3697983692635014 0 0 -1 I I #
edge $-1 $483 27.952298258128152 $486 34.573129997622722 $378 $530 forward 7 unknown #
vertex $-1 $392 $531 #
straight-curve $-1 -62.4278706322619 23.042409269940375 6.6272522427472325 -1 0 0 I I #
edge $-1 $486 -13.920821526659877 $389 -4.32235395990112 $388 $532 forward 7 unknown #
vertex $-1 $485 $533 #
straight-curve $-1 -50.698568681905584 23.042409269940375 0.0064205032526558625 0.68199835119979291 0 0.73135370988377701 I I #
point $-1 -44.524543352049633 23.042409269940375 6.6272522427472316 #
point $-1 -50.698568681905577 13.443941703181618 0.0064205032526634823 #
straight-curve $-1 -50.698568681905577 0 6.6272522427472316 0 -1 0 I I #
vertex $-1 $395 $534 #
point $-1 -45.874072342757195 15.363635216533371 2.3802703970596135 #
vertex $-1 $399 $535 #
point $-1 -45.874072342757195 18.243175486560997 2.3802703970596135 #
vertex $-1 $403 $536 #
point $-1 -45.874072342757195 21.122715756588622 2.3802703970596135 #
coedge $-1 $418 $417 $410 $498 forward $407 $-1 #
edge $-1 $499 65.322464013837646 $502 71.360136940661192 $497 $537 forward 7 unknown #
vertex $-1 $422 $538 #
straight-curve $-1 22.847039961652708 -10.004646363550066 6.6272522427472325 1 0 0 I I #
edge $-1 $502 -7.4274480863276349 $419 2.2730515318827731 $418 $539 forward 7 unknown #
vertex $-1 $501 $540 #
straight-curve $-1 -23.458602296017538 -10.004646363550066 69.742261535246641 -0.7313536940579346 0 0.68199836817093118 I I #
point $-1 44.223957297733939 -10.004646363550066 6.6272522427472325 #
point $-1 50.698568681905577 -0.3041467453396578 0.58957931592368595 #
straight-curve $-1 50.698568681905577 0 6.6272522427472316 0 1 0 I I #
vertex $-1 $425 $541 #
point $-1 47.331475887201037 -7.2330750440613762 2.0029569864093544 #
vertex $-1 $429 $542 #
point $-1 47.331475887201037 -3.0757180648283438 2.0029569864093544 #
straight-curve $-1 -50.698568681905577 31.637286999824955 0 0 0 -1 I I #
point $-1 -50.698568681905577 -31.637286999824955 -6.6272522427472316 #
straight-curve $-1 -50.698568681905577 0 -6.6272522427472316 0 1 0 I I #
point $-1 -50.698568681905577 31.637286999824955 -6.6272522427472316 #
coedge $-1 $455 $451 $460 $520 forward $332 $-1 #
vertex $-1 $452 $543 #
straight-curve $-1 -50.698568681905577 0 6.6272522427472316 0 -1 0 I I #
point $-1 -50.698568681905577 -26.058041450125874 6.6272522427472298 #
straight-curve $-1 50.698568681905577 0 6.6272522427472316 0 1 0 I I #
edge $-1 $516 -50.698568681905577 $464 50.698568681905577 $460 $544 forward 7 unknown #
straight-curve $-1 -50.698568681905577 -31.637286999824955 0 0 0 -1 I I #
point $-1 50.698568681905577 -31.637286999824955 6.6272522427472316 #
edge $-1 $479 -50.698568681905577 $525 50.698568681905577 $476 $545 forward 7 unknown #
straight-curve $-1 50.698568681905577 0 6.6272522427472316 0 1 0 I I #
vertex $-1 $523 $546 #
straight-curve $-1 -50.698568681905577 0 6.6272522427472316 0 -1 0 I I #
point $-1 50.698568681905577 26.058041450125874 6.6272522427472298 #
straight-curve $-1 -50.698568681905577 31.637286999824955 0 0 0 -1 I I #
point $-1 50.698568681905577 31.637286999824955 6.6272522427472316 #
straight-curve $-1 -50.698568681905577 23.042409269940375 34.579550500875385 0 0 -1 I I #
point $-1 -50.698568681905577 23.042409269940375 6.6272522427472316 #
straight-curve $-1 -50.698568681905577 9.1215877432804984 0.0064205032526707846 0 -1 0 I I #
point $-1 -50.698568681905577 23.042409269940375 0.0064205032526634823 #
point $-1 -45.849394663415197 15.363635216533371 1.6735943665178286 #
point $-1 -45.849394663415197 18.243175486560997 1.6735943665178286 #
point $-1 -45.849394663415197 21.122715756588622 1.6735943665178286 #
straight-curve $-1 50.698568681905577 -10.004646363550066 71.949716256584878 0 0 -1 I I #
point $-1 50.698568681905577 -10.004646363550066 6.6272522427472316 #
straight-curve $-1 50.698568681905577 -2.5771982772224309 0.58957931592367885 0 1 0 I I #
point $-1 50.698568681905577 -10.004646363550066 0.58957931592368595 #
point $-1 45.91812382497217 -7.2330750440613762 1.9536016605223507 #
point $-1 45.91812382497217 -3.0757180648283438 1.9536016605223507 #
point $-1 -50.698568681905577 -31.637286999824955 6.6272522427472316 #
straight-curve $-1 0 -31.637286999824955 6.6272522427472316 1 0 0 I I #
straight-curve $-1 0 31.637286999824955 6.6272522427472316 -1 0 0 I I #
point $-1 -50.698568681905577 31.637286999824955 6.6272522427472316 #
End-of-ACIS-data 