500 0 8 0           
7 Unknown 11 ACIS 5.0 NT 24 Thu Mar 25 21:31:00 1999 
-1 9.9999999999999995e-007 1e-010 
body $-1 $8 $-1 $9 #
body $-1 $10 $-1 $11 #
body $-1 $12 $-1 $13 #
body $-1 $14 $-1 $15 #
body $-1 $16 $-1 $17 #
body $-1 $18 $-1 $19 #
body $-1 $20 $-1 $21 #
body $-1 $22 $-1 $23 #
lump $-1 $-1 $24 $0 #
transform $-1 1 0 0 0 1 0 0 0 1 67.809686574907687 46.404531628806424 12.047589055032693 1 rotate no_reflect no_shear #
lump $-1 $-1 $25 $1 #
transform $-1 1 0 0 0 1 0 0 0 1 67.809686574907687 46.404531628806424 12.047589055032693 1 rotate no_reflect no_shear #
lump $-1 $-1 $26 $2 #
transform $-1 1 0 0 0 1 0 0 0 1 67.809686574907687 46.404531628806424 12.047589055032693 1 rotate no_reflect no_shear #
lump $-1 $-1 $27 $3 #
transform $-1 1 0 0 0 1 0 0 0 1 67.809686574907687 46.404531628806424 12.047589055032693 1 rotate no_reflect no_shear #
lump $-1 $-1 $28 $4 #
transform $-1 1 0 0 0 1 0 0 0 1 67.809686574907687 46.404531628806424 12.047589055032693 1 rotate no_reflect no_shear #
lump $-1 $-1 $29 $5 #
transform $-1 1 0 0 0 1 0 0 0 1 67.809686574907687 46.404531628806424 12.047589055032693 1 rotate no_reflect no_shear #
lump $-1 $-1 $30 $6 #
transform $-1 1 0 0 0 1 0 0 0 1 67.809686574907687 46.404531628806424 12.047589055032693 1 rotate no_reflect no_shear #
lump $-1 $-1 $31 $7 #
transform $-1 1 0 0 0 1 0 0 0 1 67.809686574907687 46.404531628806424 12.047589055032693 1 rotate no_reflect no_shear #
shell $-1 $-1 $-1 $32 $-1 $8 #
shell $-1 $-1 $-1 $33 $-1 $10 #
shell $-1 $-1 $-1 $34 $-1 $12 #
shell $-1 $-1 $-1 $35 $-1 $14 #
shell $-1 $-1 $-1 $36 $-1 $16 #
shell $-1 $-1 $-1 $37 $-1 $18 #
shell $-1 $-1 $-1 $38 $-1 $20 #
shell $-1 $-1 $-1 $39 $-1 $22 #
face $-1 $40 $41 $24 $-1 $42 forward single #
face $-1 $43 $44 $25 $-1 $45 forward single #
face $-1 $46 $47 $26 $-1 $48 reversed single #
face $-1 $49 $50 $27 $-1 $51 forward single #
face $-1 $52 $53 $28 $-1 $54 forward single #
face $-1 $55 $56 $29 $-1 $57 reversed single #
face $-1 $58 $59 $30 $-1 $60 forward single #
face $-1 $61 $62 $31 $-1 $63 forward single #
face $-1 $64 $65 $24 $-1 $66 reversed single #
loop $-1 $-1 $67 $32 #
plane-surface $-1 0 0 12.047589055032693 0 0 1 1 0 0 forward_v I I I I #
face $-1 $68 $69 $25 $-1 $70 reversed single #
loop $-1 $-1 $71 $33 #
plane-surface $-1 0 -38.51354647336268 -5.707631258726936 0 0 1 1 0 0 forward_v I I I I #
face $-1 $72 $73 $26 $-1 $74 reversed single #
loop $-1 $-1 $75 $34 #
plane-surface $-1 -182.82143885126911 32.149490771460044 75.166385718638054 0 1 0 -0.84804810408105047 0 0.52991925155115449 forward_v I I I I #
face $-1 $76 $77 $27 $-1 $78 forward single #
loop $-1 $79 $80 $35 #
cone-surface $-1 -64.081247230193654 35.216953560215188 7.0515225524099252 0.84804810408105047 0 -0.52991925155115449 0.79487887732673168 0 1.2720721561215758 1 I I 0 1 1.5 forward I I I I #
face $-1 $81 $82 $28 $-1 $83 forward single #
loop $-1 $84 $85 $36 #
cone-surface $-1 -64.081247230193654 39.818147743347907 7.0515225524099252 0.84804810408105047 0 -0.52991925155115449 0.79487887732673168 0 1.2720721561215758 1 I I 0 1 1.5 forward I I I I #
face $-1 $86 $87 $29 $-1 $88 reversed single #
loop $-1 $-1 $89 $37 #
plane-surface $-1 110.95412213588219 32.350560402206568 194.2837503995309 0 1 0 0.84804810408105047 0 0.52991925155115449 forward_v I I I I #
face $-1 $90 $91 $30 $-1 $92 forward single #
loop $-1 $93 $94 $38 #
cone-surface $-1 65.130010674954235 36.365980752663674 8.9581267064614192 -0.84804810408105047 0 -0.52991925155115449 0.52991925155115449 0 -0.84804810408105047 1 I I 0 1 1 forward I I I I #
face $-1 $95 $96 $31 $-1 $97 forward single #
loop $-1 $98 $99 $39 #
cone-surface $-1 65.130010674954235 42.389111278349333 8.9581267064614192 -0.84804810408105047 0 -0.52991925155115449 0.52991925155115449 0 -0.84804810408105047 1 I I 0 1 1 forward I I I I #
face $-1 $100 $101 $24 $-1 $102 reversed single #
loop $-1 $-1 $103 $40 #
plane-surface $-1 0 0 -12.047589055032693 0 0 1 1 0 0 forward_v I I I I #
coedge $-1 $104 $105 $106 $107 forward $41 $-1 #
face $-1 $108 $109 $25 $-1 $110 reversed single #
loop $-1 $-1 $111 $43 #
plane-surface $-1 0 -30.62256131791894 -8.8776101568798147 0 -1 0 0 0 -1 forward_v I I I I #
coedge $-1 $112 $113 $114 $115 reversed $44 $-1 #
face $-1 $116 $117 $26 $-1 $118 reversed single #
loop $-1 $-1 $119 $46 #
plane-surface $-1 -67.809686574907658 37.517550651781548 3.299069003251148 -0.84804810408105047 0 0.52991925155115449 0.52991925155115449 0 0.84804810408105047 forward_v I I I I #
coedge $-1 $120 $121 $122 $123 reversed $47 $-1 #
face $-1 $-1 $124 $27 $-1 $125 forward single #
loop $-1 $126 $127 $49 #
cone-surface $-1 -62.450112743923803 35.216953560215188 6.0322766370145597 0.84804810408105047 0 -0.52991925155115449 0.39743943866336584 0 0.63603607806078788 1 I I -0.70710678118654757 0.70710678118654757 0.75 forward I I I I #
loop $-1 $-1 $128 $35 #
coedge $-1 $80 $80 $129 $130 reversed $50 $-1 #
face $-1 $-1 $131 $28 $-1 $132 forward single #
loop $-1 $133 $134 $52 #
cone-surface $-1 -62.450112743923803 39.818147743347907 6.0322766370145597 0.84804810408105047 0 -0.52991925155115449 0.39743943866336584 0 0.63603607806078788 1 I I -0.70710678118654757 0.70710678118654757 0.75 forward I I I I #
loop $-1 $-1 $135 $36 #
coedge $-1 $85 $85 $136 $137 reversed $53 $-1 #
face $-1 $138 $139 $29 $-1 $140 reversed single #
loop $-1 $-1 $141 $55 #
plane-surface $-1 -4.0576301404792616 39.377546015506496 122.416433684144 0.84804810408105047 0 0.52991925155115449 0.52991925155115449 0 -0.84804810408105047 forward_v I I I I #
coedge $-1 $142 $143 $144 $145 reversed $56 $-1 #
face $-1 $-1 $146 $30 $-1 $147 forward single #
loop $-1 $148 $149 $58 #
cone-surface $-1 63.476916020945112 36.365980752663674 7.9251585557396229 -0.84804810408105047 0 -0.52991925155115449 0.26495962577557725 0 -0.42402405204052523 1 I I -0.70710678118654746 0.70710678118654746 0.5 forward I I I I #
loop $-1 $-1 $150 $38 #
coedge $-1 $94 $94 $151 $152 reversed $59 $-1 #
face $-1 $-1 $153 $31 $-1 $154 forward single #
loop $-1 $155 $156 $61 #
cone-surface $-1 63.476916020945112 42.389111278349333 7.9251585557396229 -0.84804810408105047 0 -0.52991925155115449 0.26495962577557725 0 -0.42402405204052523 1 I I -0.70710678118654746 0.70710678118654746 0.5 forward I I I I #
loop $-1 $-1 $157 $39 #
coedge $-1 $99 $99 $158 $159 reversed $62 $-1 #
face $-1 $160 $161 $24 $-1 $162 reversed single #
loop $-1 $-1 $163 $64 #
plane-surface $-1 0 -46.404531628806424 0 0 1 0 0 0 1 forward_v I I I I #
coedge $-1 $164 $165 $166 $167 forward $65 $-1 #
coedge $-1 $168 $67 $169 $170 forward $41 $-1 #
coedge $-1 $67 $168 $171 $172 forward $41 $-1 #
coedge $-1 $173 $174 $67 $107 reversed $175 $-1 #
edge $-1 $176 -46.404531628806424 $177 46.404531628806424 $106 $178 forward 7 unknown #
face $-1 $179 $180 $25 $-1 $181 reversed single #
loop $-1 $-1 $182 $68 #
plane-surface $-1 0 0 -12.047589055032693 0 0 1 1 0 0 forward_v I I I I #
coedge $-1 $183 $184 $185 $186 reversed $69 $-1 #
coedge $-1 $187 $71 $184 $188 forward $44 $-1 #
coedge $-1 $71 $187 $189 $190 reversed $44 $-1 #
coedge $-1 $191 $185 $71 $115 forward $180 $-1 #
edge $-1 $192 11.3657880812376 $193 27.147758392125084 $114 $194 forward 7 unknown #
face $-1 $195 $196 $26 $-1 $197 forward single #
loop $-1 $-1 $198 $72 #
plane-surface $-1 -182.82143885126911 42.885610532103051 75.166385718638054 0 -1 0 0.84804810408105047 0 -0.52991925155115449 forward_v I I I I #
coedge $-1 $199 $200 $201 $202 reversed $73 $-1 #
coedge $-1 $121 $75 $203 $204 reversed $47 $-1 #
coedge $-1 $75 $120 $199 $205 reversed $47 $-1 #
coedge $-1 $201 $206 $75 $123 forward $196 $-1 #
edge $-1 $207 23.601032850726867 $208 29.067714723736856 $122 $209 forward 7 unknown #
loop $-1 $-1 $129 $76 #
plane-surface $-1 -67.809686574907658 37.517550651781548 3.299069003251148 -0.84804810408105047 0 0.52991925155115449 0.52991925155115449 0 0.84804810408105047 forward_v I I I I #
loop $-1 $-1 $210 $49 #
coedge $-1 $127 $127 $128 $211 reversed $77 $-1 #
coedge $-1 $128 $128 $127 $211 forward $79 $-1 #
coedge $-1 $129 $129 $80 $130 forward $124 $-1 #
edge $-1 $212 0 $212 6.2831853071796004 $129 $213 forward 7 unknown #
loop $-1 $-1 $136 $81 #
plane-surface $-1 -67.809686574907658 37.517550651781548 3.299069003251148 -0.84804810408105047 0 0.52991925155115449 0.52991925155115449 0 0.84804810408105047 forward_v I I I I #
loop $-1 $-1 $214 $52 #
coedge $-1 $134 $134 $135 $215 reversed $82 $-1 #
coedge $-1 $135 $135 $134 $215 forward $84 $-1 #
coedge $-1 $136 $136 $85 $137 forward $131 $-1 #
edge $-1 $216 0 $216 6.2831853071796004 $136 $217 forward 7 unknown #
face $-1 $218 $219 $29 $-1 $220 forward single #
loop $-1 $-1 $221 $86 #
plane-surface $-1 0 46.404531628806424 0 0 -1 0 0 0 -1 forward_v I I I I #
coedge $-1 $222 $223 $224 $225 reversed $87 $-1 #
coedge $-1 $143 $89 $226 $227 reversed $56 $-1 #
coedge $-1 $89 $142 $222 $228 reversed $56 $-1 #
coedge $-1 $224 $229 $89 $145 forward $230 $-1 #
edge $-1 $231 85.094286144732763 $232 89.737193791982975 $144 $233 forward 7 unknown #
loop $-1 $-1 $151 $90 #
plane-surface $-1 -4.0576301404792616 39.377546015506496 122.416433684144 0.84804810408105047 0 0.52991925155115449 0.52991925155115449 0 -0.84804810408105047 forward_v I I I I #
loop $-1 $-1 $234 $58 #
coedge $-1 $149 $149 $150 $235 reversed $91 $-1 #
coedge $-1 $150 $150 $149 $235 forward $93 $-1 #
coedge $-1 $151 $151 $94 $152 forward $146 $-1 #
edge $-1 $236 0 $236 6.2831853071796004 $151 $237 forward 7 unknown #
loop $-1 $-1 $158 $95 #
plane-surface $-1 -4.0576301404792616 39.377546015506496 122.416433684144 0.84804810408105047 0 0.52991925155115449 0.52991925155115449 0 -0.84804810408105047 forward_v I I I I #
loop $-1 $-1 $238 $61 #
coedge $-1 $156 $156 $157 $239 reversed $96 $-1 #
coedge $-1 $157 $157 $156 $239 forward $98 $-1 #
coedge $-1 $158 $158 $99 $159 forward $153 $-1 #
edge $-1 $240 0 $240 6.2831853071796004 $158 $241 forward 7 unknown #
face $-1 $242 $243 $24 $-1 $244 reversed single #
loop $-1 $-1 $245 $100 #
plane-surface $-1 -67.809686574907687 0 0 1 0 0 0 0 -1 forward_v I I I I #
coedge $-1 $246 $171 $247 $248 forward $101 $-1 #
coedge $-1 $249 $103 $246 $250 forward $65 $-1 #
coedge $-1 $103 $249 $251 $252 forward $65 $-1 #
coedge $-1 $174 $173 $103 $167 reversed $175 $-1 #
edge $-1 $253 -46.404531628806424 $254 46.404531628806424 $166 $255 forward 7 unknown #
coedge $-1 $105 $104 $256 $257 forward $41 $-1 #
coedge $-1 $258 $259 $104 $170 reversed $243 $-1 #
edge $-1 $177 -67.809686574907687 $260 67.809686574907687 $169 $261 forward 7 unknown #
coedge $-1 $163 $262 $105 $172 reversed $101 $-1 #
edge $-1 $263 -67.809686574907687 $176 67.809686574907687 $171 $264 forward 7 unknown #
coedge $-1 $166 $106 $262 $265 forward $175 $-1 #
coedge $-1 $106 $166 $258 $266 reversed $175 $-1 #
loop $-1 $-1 $173 $242 #
vertex $-1 $107 $267 #
vertex $-1 $107 $268 #
straight-curve $-1 67.809686574907687 0 12.047589055032693 0 1 0 I I #
face $-1 $269 $270 $25 $-1 $271 reversed single #
loop $-1 $-1 $185 $108 #
plane-surface $-1 67.809686574907687 0 0 -1 0 0 0 0 1 forward_v I I I I #
coedge $-1 $272 $273 $183 $274 forward $109 $-1 #
coedge $-1 $275 $111 $182 $274 reversed $69 $-1 #
coedge $-1 $111 $275 $112 $188 reversed $69 $-1 #
coedge $-1 $114 $276 $111 $186 forward $180 $-1 #
edge $-1 $277 -7.608783976592786 $192 -1.2688261802870286 $185 $278 forward 7 unknown #
coedge $-1 $113 $112 $279 $280 reversed $44 $-1 #
edge $-1 $192 -67.809686574907687 $281 67.809686574907687 $184 $282 forward 7 unknown #
coedge $-1 $283 $284 $113 $190 forward $270 $-1 #
edge $-1 $193 -67.809686574907687 $285 67.809686574907687 $189 $286 forward 7 unknown #
coedge $-1 $276 $114 $284 $287 forward $180 $-1 #
vertex $-1 $115 $288 #
vertex $-1 $287 $289 #
straight-curve $-1 67.809686574907687 -19.25677323668134 -5.707631258726936 0 -1 0 I I #
face $-1 $-1 $290 $26 $-1 $291 reversed single #
loop $-1 $-1 $122 $116 #
plane-surface $-1 0 0 12.047589055032693 0 0 1 1 0 0 forward_v I I I I #
coedge $-1 $292 $293 $294 $295 reversed $117 $-1 #
coedge $-1 $296 $119 $121 $205 forward $73 $-1 #
coedge $-1 $119 $296 $292 $297 forward $73 $-1 #
coedge $-1 $294 $122 $119 $202 forward $196 $-1 #
edge $-1 $208 13.390715445569271 $298 24.126835206212277 $201 $299 forward 7 unknown #
coedge $-1 $300 $301 $120 $204 forward $290 $-1 #
edge $-1 $302 -34.284123856067922 $207 -25.535603804286332 $203 $303 forward 7 unknown #
edge $-1 $208 -10.316065810042096 $302 5.3475330259696214e-014 $121 $304 forward 7 unknown #
coedge $-1 $122 $294 $300 $305 forward $196 $-1 #
vertex $-1 $204 $306 #
vertex $-1 $123 $307 #
straight-curve $-1 -91.410719425634554 32.149490771460044 12.047589055032695 1 0 0 I I #
coedge $-1 $210 $210 $-1 $308 reversed $126 $-1 #
edge $-1 $309 0 $309 6.2831853071796004 $127 $310 forward 7 unknown #
vertex $-1 $130 $311 #
ellipse-curve $-1 -65.076345638402685 35.216953560215188 7.6733290291419074 -0.84804810408105047 0 0.52991925155115449 0.79487887732673168 0 1.2720721561215758 1 I I #
coedge $-1 $214 $214 $-1 $312 reversed $133 $-1 #
edge $-1 $313 0 $313 6.2831853071796004 $134 $314 forward 7 unknown #
vertex $-1 $137 $315 #
ellipse-curve $-1 -65.076345638402685 39.818147743347907 7.6733290291419074 -0.84804810408105047 0 0.52991925155115449 0.79487887732673168 0 1.2720721561215758 1 I I #
face $-1 $-1 $230 $29 $-1 $316 reversed single #
loop $-1 $-1 $317 $138 #
plane-surface $-1 0 0 12.047589055032693 0 0 1 1 0 0 forward_v I I I I #
coedge $-1 $318 $319 $223 $320 forward $139 $-1 #
coedge $-1 $321 $141 $143 $228 forward $87 $-1 #
coedge $-1 $141 $321 $221 $320 reversed $87 $-1 #
coedge $-1 $322 $144 $141 $225 forward $230 $-1 #
edge $-1 $232 12.66178739445332 $323 26.715758621053176 $224 $324 forward 7 unknown #
coedge $-1 $325 $317 $142 $227 forward $219 $-1 #
edge $-1 $326 9.4314149109968781 $231 12.332625506966593 $226 $327 forward 7 unknown #
edge $-1 $232 -135.61937314981546 $326 -130.14455677453293 $143 $328 forward 7 unknown #
coedge $-1 $144 $322 $325 $329 reversed $230 $-1 #
loop $-1 $-1 $224 $218 #
vertex $-1 $329 $330 #
vertex $-1 $145 $331 #
straight-curve $-1 67.809686574907687 32.350560402206568 97.141875199765451 0 0 -1 I I #
coedge $-1 $234 $234 $-1 $332 reversed $148 $-1 #
edge $-1 $333 0 $333 6.2831853071796004 $149 $334 forward 7 unknown #
vertex $-1 $152 $335 #
ellipse-curve $-1 66.359081276922808 36.365980752663674 9.7261352314076248 0.84804810408105047 0 0.52991925155115449 0.52991925155115449 0 -0.84804810408105047 1 I I #
coedge $-1 $238 $238 $-1 $336 reversed $155 $-1 #
edge $-1 $337 0 $337 6.2831853071796004 $156 $338 forward 7 unknown #
vertex $-1 $159 $339 #
ellipse-curve $-1 66.359081276922808 42.389111278349333 9.7261352314076248 0.84804810408105047 0 0.52991925155115449 0.52991925155115449 0 -0.84804810408105047 1 I I #
face $-1 $-1 $175 $24 $-1 $340 reversed single #
loop $-1 $-1 $258 $160 #
plane-surface $-1 0 46.404531628806424 0 0 -1 0 0 0 -1 forward_v I I I I #
coedge $-1 $341 $256 $259 $342 forward $161 $-1 #
coedge $-1 $262 $163 $164 $250 reversed $101 $-1 #
coedge $-1 $256 $341 $163 $248 reversed $161 $-1 #
edge $-1 $263 -12.047589055032693 $343 12.047589055032693 $247 $344 forward 7 unknown #
coedge $-1 $165 $164 $341 $345 forward $65 $-1 #
edge $-1 $254 -67.809686574907687 $343 67.809686574907687 $246 $346 forward 7 unknown #
coedge $-1 $259 $258 $165 $252 reversed $243 $-1 #
edge $-1 $347 -67.809686574907687 $253 67.809686574907687 $251 $348 forward 7 unknown #
vertex $-1 $167 $349 #
vertex $-1 $265 $350 #
straight-curve $-1 67.809686574907687 0 -12.047589055032693 0 -1 0 I I #
coedge $-1 $245 $247 $168 $257 reversed $161 $-1 #
edge $-1 $260 -46.404531628806424 $263 46.404531628806424 $256 $351 forward 7 unknown #
coedge $-1 $251 $169 $174 $266 forward $243 $-1 #
coedge $-1 $169 $251 $245 $342 reversed $243 $-1 #
vertex $-1 $170 $352 #
straight-curve $-1 0 46.404531628806424 12.047589055032693 -1 0 0 I I #
coedge $-1 $171 $246 $173 $265 reversed $101 $-1 #
vertex $-1 $257 $353 #
straight-curve $-1 0 -46.404531628806424 12.047589055032693 1 0 0 I I #
edge $-1 $176 -12.047589055032693 $254 12.047589055032693 $173 $354 forward 7 unknown #
edge $-1 $177 -12.047589055032693 $253 12.047589055032693 $174 $355 forward 7 unknown #
point $-1 67.809686574907687 -46.404531628806424 12.047589055032693 #
point $-1 67.809686574907687 46.404531628806424 12.047589055032693 #
face $-1 $-1 $356 $25 $-1 $357 reversed single #
loop $-1 $-1 $189 $179 #
plane-surface $-1 0 -46.404531628806424 0 0 1 0 0 0 1 forward_v I I I I #
coedge $-1 $358 $182 $276 $359 forward $109 $-1 #
coedge $-1 $182 $358 $360 $361 forward $109 $-1 #
edge $-1 $362 -67.809686574907687 $277 67.809686574907687 $182 $363 forward 7 unknown #
coedge $-1 $184 $183 $364 $365 reversed $69 $-1 #
coedge $-1 $185 $191 $272 $359 reversed $180 $-1 #
vertex $-1 $359 $366 #
straight-curve $-1 67.809686574907687 -30.62256131791894 -4.4388050784399073 0 0 1 I I #
coedge $-1 $364 $367 $187 $280 forward $356 $-1 #
edge $-1 $285 -27.147758392125084 $281 -11.3657880812376 $279 $368 forward 7 unknown #
vertex $-1 $280 $369 #
straight-curve $-1 0 -30.62256131791894 -5.707631258726936 -1 0 0 I I #
coedge $-1 $370 $189 $367 $371 forward $270 $-1 #
coedge $-1 $189 $370 $191 $287 reversed $270 $-1 #
vertex $-1 $371 $372 #
straight-curve $-1 0 -46.404531628806424 -5.707631258726936 -1 0 0 I I #
edge $-1 $193 5.707631258726936 $373 12.047589055032693 $191 $374 forward 7 unknown #
point $-1 67.809686574907687 -30.62256131791894 -5.707631258726936 #
point $-1 67.809686574907687 -46.404531628806424 -5.707631258726936 #
loop $-1 $-1 $203 $195 #
plane-surface $-1 -67.809686574907687 0 0 1 0 0 0 0 -1 forward_v I I I I #
coedge $-1 $293 $198 $200 $297 reversed $117 $-1 #
coedge $-1 $198 $292 $375 $376 reversed $117 $-1 #
coedge $-1 $206 $201 $198 $295 forward $196 $-1 #
edge $-1 $298 -29.067714723736856 $377 -23.601032850726867 $294 $378 forward 7 unknown #
coedge $-1 $200 $199 $301 $379 reversed $73 $-1 #
edge $-1 $380 -5.3475330259696214e-014 $298 10.316065810042096 $292 $381 forward 7 unknown #
vertex $-1 $202 $382 #
straight-curve $-1 -62.343004701897698 18.758775325890774 12.047589055032695 0 1 0 I I #
coedge $-1 $375 $203 $206 $305 reversed $290 $-1 #
coedge $-1 $203 $375 $296 $379 forward $290 $-1 #
vertex $-1 $204 $383 #
straight-curve $-1 -67.809686574907687 32.149490771460044 37.583192859319027 0 0 1 I I #
straight-curve $-1 -67.809686574907658 32.149490771460044 3.299069003251148 -0.52991925155115449 0 -0.84804810408105047 I I #
edge $-1 $377 -42.885610532103051 $207 -32.149490771460044 $300 $384 forward 7 unknown #
point $-1 -67.809686574907687 32.149490771460044 12.047589055032693 #
point $-1 -62.343004701897698 32.149490771460044 12.047589055032693 #
edge $-1 $385 1 $385 0 $210 $-1 forward 7 unknown #
vertex $-1 $211 $386 #
ellipse-curve $-1 -63.086148821984594 35.216953560215188 6.4297160756779252 -0.84804810408105047 0 0.52991925155115449 0.79487887732673168 0 1.2720721561215758 1 I I #
point $-1 -64.281466761075976 35.216953560215188 8.9454011852635009 #
edge $-1 $387 1 $387 0 $214 $-1 forward 7 unknown #
vertex $-1 $215 $388 #
ellipse-curve $-1 -63.086148821984594 39.818147743347907 6.4297160756779252 -0.84804810408105047 0 0.52991925155115449 0.79487887732673168 0 1.2720721561215758 1 I I #
point $-1 -64.281466761075976 39.818147743347907 8.9454011852635009 #
plane-surface $-1 67.809686574907687 0 0 -1 0 0 0 0 1 forward_v I I I I #
coedge $-1 $226 $389 $321 $390 forward $219 $-1 #
coedge $-1 $319 $221 $389 $391 reversed $139 $-1 #
coedge $-1 $221 $318 $322 $392 forward $139 $-1 #
edge $-1 $323 -82.636752739157401 $393 -77.161936363874887 $221 $394 forward 7 unknown #
coedge $-1 $223 $222 $317 $390 reversed $87 $-1 #
coedge $-1 $229 $224 $319 $392 reversed $230 $-1 #
vertex $-1 $320 $395 #
straight-curve $-1 67.809686574907687 19.688773007753248 7.4046814077824692 0 1 0 I I #
coedge $-1 $389 $226 $229 $329 forward $219 $-1 #
vertex $-1 $227 $396 #
straight-curve $-1 55.477061067941094 32.350560402206568 12.047589055032688 1 0 0 I I #
straight-curve $-1 -4.0576301404792616 32.350560402206568 122.416433684144 -0.52991925155115449 0 0.84804810408105047 I I #
edge $-1 $231 32.350560402206568 $397 46.404531628806424 $229 $398 forward 7 unknown #
point $-1 67.809686574907687 32.350560402206568 12.047589055032693 #
point $-1 67.809686574907687 32.350560402206568 7.4046814077824763 #
edge $-1 $399 1 $399 0 $234 $-1 forward 7 unknown #
vertex $-1 $235 $400 #
ellipse-curve $-1 63.900940072985634 36.365980752663674 8.1901181815151993 0.84804810408105047 0 0.52991925155115449 0.52991925155115449 0 -0.84804810408105047 1 I I #
point $-1 66.889000528473986 36.365980752663674 8.8780871273265873 #
edge $-1 $401 1 $401 0 $238 $-1 forward 7 unknown #
vertex $-1 $239 $402 #
ellipse-curve $-1 63.900940072985634 42.389111278349333 8.1901181815151993 0.84804810408105047 0 0.52991925155115449 0.52991925155115449 0 -0.84804810408105047 1 I I #
point $-1 66.889000528473986 42.389111278349333 8.8780871273265873 #
plane-surface $-1 67.809686574907687 0 0 -1 0 0 0 0 1 forward_v I I I I #
coedge $-1 $247 $245 $249 $345 reversed $161 $-1 #
edge $-1 $260 -12.047589055032693 $347 12.047589055032693 $259 $403 forward 7 unknown #
vertex $-1 $345 $404 #
straight-curve $-1 -67.809686574907687 -46.404531628806424 0 0 0 -1 I I #
edge $-1 $343 -46.404531628806424 $347 46.404531628806424 $341 $405 forward 7 unknown #
straight-curve $-1 0 -46.404531628806424 -12.047589055032693 -1 0 0 I I #
vertex $-1 $252 $406 #
straight-curve $-1 0 46.404531628806424 -12.047589055032693 1 0 0 I I #
point $-1 67.809686574907687 46.404531628806424 -12.047589055032693 #
point $-1 67.809686574907687 -46.404531628806424 -12.047589055032693 #
straight-curve $-1 -67.809686574907687 0 12.047589055032693 0 -1 0 I I #
point $-1 -67.809686574907687 46.404531628806424 12.047589055032693 #
point $-1 -67.809686574907687 -46.404531628806424 12.047589055032693 #
straight-curve $-1 67.809686574907687 -46.404531628806424 0 0 0 -1 I I #
straight-curve $-1 67.809686574907687 46.404531628806424 0 0 0 -1 I I #
loop $-1 $-1 $364 $269 #
plane-surface $-1 -67.809686574907687 0 0 1 0 0 0 0 -1 forward_v I I I I #
coedge $-1 $273 $272 $370 $407 forward $109 $-1 #
edge $-1 $277 30.62256131791894 $373 46.404531628806424 $276 $408 forward 7 unknown #
coedge $-1 $367 $364 $273 $361 reversed $356 $-1 #
edge $-1 $409 -46.404531628806424 $362 -30.62256131791894 $360 $410 forward 7 unknown #
vertex $-1 $365 $411 #
straight-curve $-1 0 -30.62256131791894 -12.047589055032693 1 0 0 I I #
coedge $-1 $360 $279 $275 $365 forward $356 $-1 #
edge $-1 $281 1.2688261802870286 $362 7.608783976592786 $364 $412 forward 7 unknown #
point $-1 67.809686574907687 -30.62256131791894 -12.047589055032693 #
coedge $-1 $279 $360 $283 $371 reversed $356 $-1 #
straight-curve $-1 -67.809686574907687 -19.25677323668134 -5.707631258726936 0 1 0 I I #
point $-1 -67.809686574907687 -30.62256131791894 -5.707631258726936 #
coedge $-1 $284 $283 $358 $407 reversed $270 $-1 #
edge $-1 $285 5.707631258726936 $409 12.047589055032693 $367 $413 forward 7 unknown #
point $-1 -67.809686574907687 -46.404531628806424 -5.707631258726936 #
vertex $-1 $287 $414 #
straight-curve $-1 67.809686574907687 -46.404531628806424 0 0 0 -1 I I #
coedge $-1 $301 $300 $293 $376 forward $290 $-1 #
edge $-1 $377 25.535603804286332 $380 34.284123856067922 $375 $415 forward 7 unknown #
vertex $-1 $305 $416 #
straight-curve $-1 -91.410719425634554 42.885610532103051 12.047589055032695 -1 0 0 I I #
edge $-1 $380 -24.126835206212277 $302 -13.390715445569271 $301 $417 forward 7 unknown #
vertex $-1 $379 $418 #
straight-curve $-1 -67.809686574907658 42.885610532103051 3.299069003251148 0.52991925155115449 0 0.84804810408105047 I I #
point $-1 -62.343004701897698 42.885610532103051 12.047589055032693 #
point $-1 -67.809686574907687 32.149490771460044 3.2990690032511027 #
straight-curve $-1 -67.809686574907687 0 12.047589055032693 0 -1 0 I I #
vertex $-1 $308 $419 #
point $-1 -62.291269944657863 35.216953560215188 7.701788231799501 #
vertex $-1 $312 $420 #
point $-1 -62.291269944657863 39.818147743347907 7.701788231799501 #
coedge $-1 $317 $325 $318 $391 forward $219 $-1 #
edge $-1 $393 -26.715758621053176 $326 -12.66178739445332 $317 $421 forward 7 unknown #
edge $-1 $397 -67.809686574907687 $393 -64.908475978937972 $318 $422 forward 7 unknown #
edge $-1 $397 -12.047589055032693 $323 -7.4046814077824559 $322 $423 forward 7 unknown #
vertex $-1 $320 $424 #
straight-curve $-1 24.018880412755582 46.404531628806424 77.484622895639447 -0.52991925155115449 0 0.84804810408105047 I I #
point $-1 67.809686574907687 46.404531628806424 7.4046814077824559 #
point $-1 64.908475978937972 32.350560402206568 12.047589055032688 #
vertex $-1 $329 $425 #
straight-curve $-1 67.809686574907687 0 12.047589055032693 0 1 0 I I #
vertex $-1 $332 $426 #
point $-1 64.430859324536797 36.365980752663674 7.3420700774341494 #
vertex $-1 $336 $427 #
point $-1 64.430859324536797 42.389111278349333 7.3420700774341494 #
straight-curve $-1 -67.809686574907687 46.404531628806424 0 0 0 -1 I I #
point $-1 -67.809686574907687 -46.404531628806424 -12.047589055032693 #
straight-curve $-1 -67.809686574907687 0 -12.047589055032693 0 1 0 I I #
point $-1 -67.809686574907687 46.404531628806424 -12.047589055032693 #
edge $-1 $373 -67.809686574907687 $409 67.809686574907687 $370 $428 forward 7 unknown #
straight-curve $-1 67.809686574907687 0 -12.047589055032693 0 -1 0 I I #
vertex $-1 $361 $429 #
straight-curve $-1 -67.809686574907687 0 -12.047589055032693 0 1 0 I I #
point $-1 -67.809686574907687 -30.62256131791894 -12.047589055032693 #
straight-curve $-1 -67.809686574907687 -30.62256131791894 -4.4388050784399073 0 0 -1 I I #
straight-curve $-1 -67.809686574907687 -46.404531628806424 0 0 0 -1 I I #
point $-1 67.809686574907687 -46.404531628806424 -12.047589055032693 #
straight-curve $-1 -67.809686574907687 42.885610532103051 37.583192859319027 0 0 -1 I I #
point $-1 -67.809686574907687 42.885610532103051 12.047589055032693 #
straight-curve $-1 -67.809686574907687 18.758775325890774 3.299069003251113 0 -1 0 I I #
point $-1 -67.809686574907687 42.885610532103051 3.2990690032511027 #
point $-1 -61.814076665863013 35.216953560215188 5.6348371983511942 #
point $-1 -61.814076665863013 39.818147743347907 5.6348371983511942 #
straight-curve $-1 64.908475978937972 19.688773007753248 12.047589055032688 0 -1 0 I I #
straight-curve $-1 0 46.404531628806424 12.047589055032693 -1 0 0 I I #
straight-curve $-1 67.809686574907687 46.404531628806424 0 0 0 -1 I I #
point $-1 64.908475978937972 46.404531628806424 12.047589055032688 #
point $-1 67.809686574907687 46.404531628806424 12.047589055032693 #
point $-1 63.052891968904589 36.365980752663674 7.6601989299640456 #
point $-1 63.052891968904589 42.389111278349333 7.6601989299640456 #
straight-curve $-1 0 -46.404531628806424 -12.047589055032693 -1 0 0 I I #
point $-1 -67.809686574907687 -46.404531628806424 -12.047589055032693 #
End-of-ACIS-data 