500 0 12 0           
7 Unknown 11 ACIS 5.0 NT 24 Fri Mar 26 20:46:25 1999 
-1 9.9999999999999995e-007 1e-010 
body $-1 $12 $-1 $13 #
body $-1 $14 $-1 $15 #
body $-1 $16 $-1 $17 #
body $-1 $18 $-1 $19 #
body $-1 $20 $-1 $21 #
body $-1 $22 $-1 $23 #
body $-1 $24 $-1 $25 #
body $-1 $26 $-1 $27 #
body $-1 $28 $-1 $29 #
body $-1 $30 $-1 $31 #
body $-1 $32 $-1 $33 #
body $-1 $34 $-1 $35 #
lump $-1 $-1 $36 $0 #
transform $-1 1 0 0 0 1 0 0 0 1 71.913815729239786 48.495462527625961 10.711862823456478 1 rotate no_reflect no_shear #
lump $-1 $-1 $37 $1 #
transform $-1 1 0 0 0 1 0 0 0 1 71.913815729239786 48.495462527625961 10.711862823456478 1 rotate no_reflect no_shear #
lump $-1 $-1 $38 $2 #
transform $-1 1 0 0 0 1 0 0 0 1 71.913815729239786 48.495462527625961 10.711862823456478 1 rotate no_reflect no_shear #
lump $-1 $-1 $39 $3 #
transform $-1 1 0 0 0 1 0 0 0 1 71.913815729239786 48.495462527625961 10.711862823456478 1 rotate no_reflect no_shear #
lump $-1 $-1 $40 $4 #
transform $-1 1 0 0 0 1 0 0 0 1 71.913815729239786 48.495462527625961 10.711862823456478 1 rotate no_reflect no_shear #
lump $-1 $-1 $41 $5 #
transform $-1 1 0 0 0 1 0 0 0 1 71.913815729239786 48.495462527625961 10.711862823456478 1 rotate no_reflect no_shear #
lump $-1 $-1 $42 $6 #
transform $-1 1 0 0 0 1 0 0 0 1 71.913815729239786 48.495462527625961 10.711862823456478 1 rotate no_reflect no_shear #
lump $-1 $-1 $43 $7 #
transform $-1 1 0 0 0 1 0 0 0 1 71.913815729239786 48.495462527625961 10.711862823456478 1 rotate no_reflect no_shear #
lump $-1 $-1 $44 $8 #
transform $-1 1 0 0 0 1 0 0 0 1 71.913815729239786 48.495462527625961 10.711862823456478 1 rotate no_reflect no_shear #
lump $-1 $-1 $45 $9 #
transform $-1 1 0 0 0 1 0 0 0 1 71.913815729239786 48.495462527625961 10.711862823456478 1 rotate no_reflect no_shear #
lump $-1 $-1 $46 $10 #
transform $-1 1 0 0 0 1 0 0 0 1 71.913815729239786 48.495462527625961 10.711862823456478 1 rotate no_reflect no_shear #
lump $-1 $-1 $47 $11 #
transform $-1 1 0 0 0 1 0 0 0 1 71.913815729239786 48.495462527625961 10.711862823456478 1 rotate no_reflect no_shear #
shell $-1 $-1 $-1 $48 $-1 $12 #
shell $-1 $-1 $-1 $49 $-1 $14 #
shell $-1 $-1 $-1 $50 $-1 $16 #
shell $-1 $-1 $-1 $51 $-1 $18 #
shell $-1 $-1 $-1 $52 $-1 $20 #
shell $-1 $-1 $-1 $53 $-1 $22 #
shell $-1 $-1 $-1 $54 $-1 $24 #
shell $-1 $-1 $-1 $55 $-1 $26 #
shell $-1 $-1 $-1 $56 $-1 $28 #
shell $-1 $-1 $-1 $57 $-1 $30 #
shell $-1 $-1 $-1 $58 $-1 $32 #
shell $-1 $-1 $-1 $59 $-1 $34 #
face $-1 $60 $61 $36 $-1 $62 forward single #
face $-1 $63 $64 $37 $-1 $65 forward single #
face $-1 $66 $67 $38 $-1 $68 reversed single #
face $-1 $69 $70 $39 $-1 $71 forward single #
face $-1 $72 $73 $40 $-1 $74 forward single #
face $-1 $75 $76 $41 $-1 $77 forward single #
face $-1 $78 $79 $42 $-1 $80 reversed single #
face $-1 $81 $82 $43 $-1 $83 forward single #
face $-1 $84 $85 $44 $-1 $86 forward single #
face $-1 $87 $88 $45 $-1 $89 forward single #
face $-1 $90 $91 $46 $-1 $92 reversed single #
face $-1 $93 $94 $47 $-1 $95 forward single #
face $-1 $96 $97 $36 $-1 $98 reversed single #
loop $-1 $-1 $99 $48 #
plane-surface $-1 0 0 10.711862823456478 0 0 1 1 0 0 forward_v I I I I #
face $-1 $100 $101 $37 $-1 $102 reversed single #
loop $-1 $-1 $103 $49 #
plane-surface $-1 0 -48.495462527625961 0 0 1 0 0 0 1 forward_v I I I I #
face $-1 $104 $105 $38 $-1 $106 reversed single #
loop $-1 $-1 $107 $50 #
plane-surface $-1 71.913818089233416 -20.805282780904641 210.41561148227274 0 -1 0 -0.70710678939079041 0 -0.70710677298230451 forward_v I I I I #
face $-1 $108 $109 $39 $-1 $110 forward single #
loop $-1 $111 $112 $51 #
cone-surface $-1 69.610685337372743 -33.133412322132841 8.4087323991926066 -0.70710678939079041 0 -0.70710677298230451 0.70710677298230451 0 -0.70710678939079041 1 I I 0 1 1 forward I I I I #
face $-1 $113 $114 $40 $-1 $115 forward single #
loop $-1 $116 $117 $52 #
cone-surface $-1 69.610685337372743 -28.510363744172267 8.4087323991926066 -0.70710678939079041 0 -0.70710677298230451 0.70710677298230451 0 -0.70710678939079041 1 I I 0 1 1 forward I I I I #
face $-1 $118 $119 $41 $-1 $120 forward single #
loop $-1 $121 $122 $53 #
cone-surface $-1 69.610685337372743 -23.887315166211692 8.4087323991926066 -0.70710678939079041 0 -0.70710677298230451 0.70710677298230451 0 -0.70710678939079041 1 I I 0 1 1 forward I I I I #
face $-1 $123 $124 $42 $-1 $125 reversed single #
loop $-1 $-1 $126 $54 #
plane-surface $-1 71.913818089233416 33.085300601090715 210.41561148227274 0 1 0 0.70710678939079041 0 0.70710677298230451 forward_v I I I I #
face $-1 $127 $128 $43 $-1 $129 forward single #
loop $-1 $130 $131 $55 #
cone-surface $-1 69.610685337372743 36.167332986397767 8.4087323991926066 -0.70710678939079041 0 -0.70710677298230451 0.70710677298230451 0 -0.70710678939079041 1 I I 0 1 1 forward I I I I #
face $-1 $132 $133 $44 $-1 $134 forward single #
loop $-1 $135 $136 $56 #
cone-surface $-1 69.610685337372743 40.790381564358341 8.4087323991926066 -0.70710678939079041 0 -0.70710677298230451 0.70710677298230451 0 -0.70710678939079041 1 I I 0 1 1 forward I I I I #
face $-1 $137 $138 $45 $-1 $139 forward single #
loop $-1 $140 $141 $57 #
cone-surface $-1 69.610685337372743 45.413430142318916 8.4087323991926066 -0.70710678939079041 0 -0.70710677298230451 0.70710677298230451 0 -0.70710678939079041 1 I I 0 1 1 forward I I I I #
face $-1 $142 $143 $46 $-1 $144 reversed single #
loop $-1 $-1 $145 $58 #
plane-surface $-1 -156.45357745274009 -15.931955080711923 116.72026657344105 0 1 0 -0.5877852598018023 0 0.80901698891910034 forward_v I I I I #
face $-1 $146 $147 $47 $-1 $148 forward single #
loop $-1 $149 $150 $59 #
cone-surface $-1 -61.853695791882487 -4.3902329271553029 1.4942216800839638 0.5877852598018023 0 -0.80901698891910034 3.2360679556764014 0 2.3511410392072092 1 I I 0 1 4 forward I I I I #
face $-1 $151 $152 $36 $-1 $153 reversed single #
loop $-1 $-1 $154 $60 #
plane-surface $-1 0 0 -10.711862823456478 0 0 1 1 0 0 forward_v I I I I #
coedge $-1 $155 $156 $157 $158 forward $61 $-1 #
face $-1 $159 $160 $37 $-1 $161 forward single #
loop $-1 $-1 $162 $63 #
plane-surface $-1 -71.913815729239786 0 0 1 0 0 0 0 -1 forward_v I I I I #
coedge $-1 $163 $164 $165 $166 forward $64 $-1 #
face $-1 $167 $168 $38 $-1 $169 reversed single #
loop $-1 $-1 $170 $66 #
plane-surface $-1 -29.787676617053918 -28.510363744172267 108.71411913597906 0.70710678939079041 0 0.70710677298230451 0.70710677298230451 0 -0.70710678939079041 forward_v I I I I #
coedge $-1 $171 $172 $173 $174 reversed $67 $-1 #
face $-1 $-1 $175 $39 $-1 $176 forward single #
loop $-1 $177 $178 $69 #
cone-surface $-1 68.803620704772072 -33.133412322132841 7.6016677853199539 -0.70710678939079041 0 -0.70710677298230451 0.35355338649115226 0 -0.35355339469539521 1 I I -0.70710678118654746 0.70710678118654746 0.5 forward I I I I #
loop $-1 $-1 $179 $51 #
coedge $-1 $112 $112 $180 $181 reversed $70 $-1 #
face $-1 $-1 $182 $40 $-1 $183 forward single #
loop $-1 $184 $185 $72 #
cone-surface $-1 68.803620704772072 -28.510363744172267 7.6016677853199539 -0.70710678939079041 0 -0.70710677298230451 0.35355338649115226 0 -0.35355339469539521 1 I I -0.70710678118654746 0.70710678118654746 0.5 forward I I I I #
loop $-1 $-1 $186 $52 #
coedge $-1 $117 $117 $187 $188 reversed $73 $-1 #
face $-1 $-1 $189 $41 $-1 $190 forward single #
loop $-1 $191 $192 $75 #
cone-surface $-1 68.803620704772072 -23.887315166211692 7.6016677853199539 -0.70710678939079041 0 -0.70710677298230451 0.35355338649115226 0 -0.35355339469539521 1 I I -0.70710678118654746 0.70710678118654746 0.5 forward I I I I #
loop $-1 $-1 $193 $53 #
coedge $-1 $122 $122 $194 $195 reversed $76 $-1 #
face $-1 $196 $197 $42 $-1 $198 reversed single #
loop $-1 $-1 $199 $78 #
plane-surface $-1 -29.787676617053918 40.790381564358341 108.71411913597906 0.70710678939079041 0 0.70710677298230451 0.70710677298230451 0 -0.70710678939079041 forward_v I I I I #
coedge $-1 $200 $201 $202 $203 reversed $79 $-1 #
face $-1 $-1 $204 $43 $-1 $205 forward single #
loop $-1 $206 $207 $81 #
cone-surface $-1 68.803620704772072 36.167332986397767 7.6016677853199539 -0.70710678939079041 0 -0.70710677298230451 0.35355338649115226 0 -0.35355339469539521 1 I I -0.70710678118654746 0.70710678118654746 0.5 forward I I I I #
loop $-1 $-1 $208 $55 #
coedge $-1 $131 $131 $209 $210 reversed $82 $-1 #
face $-1 $-1 $211 $44 $-1 $212 forward single #
loop $-1 $213 $214 $84 #
cone-surface $-1 68.803620704772072 40.790381564358341 7.6016677853199539 -0.70710678939079041 0 -0.70710677298230451 0.35355338649115226 0 -0.35355339469539521 1 I I -0.70710678118654746 0.70710678118654746 0.5 forward I I I I #
loop $-1 $-1 $215 $56 #
coedge $-1 $136 $136 $216 $217 reversed $85 $-1 #
face $-1 $-1 $218 $45 $-1 $219 forward single #
loop $-1 $220 $221 $87 #
cone-surface $-1 68.803620704772072 45.413430142318916 7.6016677853199539 -0.70710678939079041 0 -0.70710677298230451 0.35355338649115226 0 -0.35355339469539521 1 I I -0.70710678118654746 0.70710678118654746 0.5 forward I I I I #
loop $-1 $-1 $222 $57 #
coedge $-1 $141 $141 $223 $224 reversed $88 $-1 #
face $-1 $225 $226 $46 $-1 $227 reversed single #
loop $-1 $-1 $228 $90 #
plane-surface $-1 -71.913815729239801 -4.3902329271553029 0.36126924753583012 -0.5877852598018023 0 0.80901698891910034 0.80901698891910034 0 0.5877852598018023 forward_v I I I I #
coedge $-1 $229 $230 $231 $232 reversed $91 $-1 #
face $-1 $-1 $233 $47 $-1 $234 forward single #
loop $-1 $235 $236 $93 #
cone-surface $-1 -57.741190127902215 -4.3902329271553029 -4.1661566531664134 0.5877852598018023 0 -0.80901698891910034 1.6180339778382007 0 1.1755705196036046 1 I I -0.70710678118654746 0.70710678118654746 2 forward I I I I #
loop $-1 $-1 $237 $59 #
coedge $-1 $150 $150 $238 $239 reversed $94 $-1 #
face $-1 $240 $241 $36 $-1 $242 reversed single #
loop $-1 $-1 $243 $96 #
plane-surface $-1 0 -48.495462527625961 0 0 1 0 0 0 1 forward_v I I I I #
coedge $-1 $244 $245 $246 $247 forward $97 $-1 #
coedge $-1 $248 $99 $249 $250 forward $61 $-1 #
coedge $-1 $99 $248 $251 $252 forward $61 $-1 #
coedge $-1 $253 $254 $99 $158 reversed $255 $-1 #
edge $-1 $256 -48.495462527625961 $257 48.495462527625961 $157 $258 forward 7 unknown #
face $-1 $259 $260 $37 $-1 $261 reversed single #
loop $-1 $-1 $262 $100 #
plane-surface $-1 0 -54.635471437718991 -4.0824445352145542 0 0 1 1 0 0 forward_v I I I I #
coedge $-1 $263 $264 $164 $265 forward $101 $-1 #
coedge $-1 $266 $103 $267 $268 reversed $64 $-1 #
coedge $-1 $103 $266 $162 $265 reversed $64 $-1 #
coedge $-1 $269 $262 $103 $166 reversed $160 $-1 #
edge $-1 $270 -71.913815729239786 $271 71.913815729239786 $165 $272 forward 7 unknown #
face $-1 $273 $274 $38 $-1 $275 reversed single #
loop $-1 $-1 $276 $104 #
plane-surface $-1 71.913818089233416 -36.215444707439893 210.41561148227274 0 1 0 0.70710678939079041 0 0.70710677298230451 forward_v I I I I #
coedge $-1 $277 $278 $279 $280 reversed $105 $-1 #
coedge $-1 $172 $107 $281 $282 reversed $67 $-1 #
coedge $-1 $107 $171 $277 $283 reversed $67 $-1 #
coedge $-1 $279 $284 $107 $174 forward $285 $-1 #
edge $-1 $286 -35.956906684623078 $287 -32.257668376699499 $173 $288 forward 7 unknown #
loop $-1 $-1 $180 $108 #
plane-surface $-1 -29.787676617053918 -28.510363744172267 108.71411913597906 0.70710678939079041 0 0.70710677298230451 0.70710677298230451 0 -0.70710678939079041 forward_v I I I I #
loop $-1 $-1 $289 $69 #
coedge $-1 $178 $178 $179 $290 reversed $109 $-1 #
coedge $-1 $179 $179 $178 $290 forward $111 $-1 #
coedge $-1 $180 $180 $112 $181 forward $175 $-1 #
edge $-1 $291 0 $291 6.2831853071796004 $180 $292 forward 7 unknown #
loop $-1 $-1 $187 $113 #
plane-surface $-1 -29.787676617053918 -28.510363744172267 108.71411913597906 0.70710678939079041 0 0.70710677298230451 0.70710677298230451 0 -0.70710678939079041 forward_v I I I I #
loop $-1 $-1 $293 $72 #
coedge $-1 $185 $185 $186 $294 reversed $114 $-1 #
coedge $-1 $186 $186 $185 $294 forward $116 $-1 #
coedge $-1 $187 $187 $117 $188 forward $182 $-1 #
edge $-1 $295 0 $295 6.2831853071796004 $187 $296 forward 7 unknown #
loop $-1 $-1 $194 $118 #
plane-surface $-1 -29.787676617053918 -28.510363744172267 108.71411913597906 0.70710678939079041 0 0.70710677298230451 0.70710677298230451 0 -0.70710678939079041 forward_v I I I I #
loop $-1 $-1 $297 $75 #
coedge $-1 $192 $192 $193 $298 reversed $119 $-1 #
coedge $-1 $193 $193 $192 $298 forward $121 $-1 #
coedge $-1 $194 $194 $122 $195 forward $189 $-1 #
edge $-1 $299 0 $299 6.2831853071796004 $194 $300 forward 7 unknown #
face $-1 $301 $302 $42 $-1 $303 forward single #
loop $-1 $-1 $202 $123 #
plane-surface $-1 71.913815729239786 0 0 -1 0 0 0 0 1 forward_v I I I I #
coedge $-1 $304 $305 $306 $307 reversed $124 $-1 #
coedge $-1 $201 $126 $308 $309 reversed $79 $-1 #
coedge $-1 $126 $200 $304 $310 reversed $79 $-1 #
coedge $-1 $306 $311 $126 $203 forward $197 $-1 #
edge $-1 $312 94.495942917679884 $313 98.195181311444685 $202 $314 forward 7 unknown #
loop $-1 $-1 $209 $127 #
plane-surface $-1 -29.787676617053918 40.790381564358341 108.71411913597906 0.70710678939079041 0 0.70710677298230451 0.70710677298230451 0 -0.70710678939079041 forward_v I I I I #
loop $-1 $-1 $315 $81 #
coedge $-1 $207 $207 $208 $316 reversed $128 $-1 #
coedge $-1 $208 $208 $207 $316 forward $130 $-1 #
coedge $-1 $209 $209 $131 $210 forward $204 $-1 #
edge $-1 $317 0 $317 6.2831853071796004 $209 $318 forward 7 unknown #
loop $-1 $-1 $216 $132 #
plane-surface $-1 -29.787676617053918 40.790381564358341 108.71411913597906 0.70710678939079041 0 0.70710677298230451 0.70710677298230451 0 -0.70710678939079041 forward_v I I I I #
loop $-1 $-1 $319 $84 #
coedge $-1 $214 $214 $215 $320 reversed $133 $-1 #
coedge $-1 $215 $215 $214 $320 forward $135 $-1 #
coedge $-1 $216 $216 $136 $217 forward $211 $-1 #
edge $-1 $321 0 $321 6.2831853071796004 $216 $322 forward 7 unknown #
loop $-1 $-1 $223 $137 #
plane-surface $-1 -29.787676617053918 40.790381564358341 108.71411913597906 0.70710678939079041 0 0.70710677298230451 0.70710677298230451 0 -0.70710678939079041 forward_v I I I I #
loop $-1 $-1 $323 $87 #
coedge $-1 $221 $221 $222 $324 reversed $138 $-1 #
coedge $-1 $222 $222 $221 $324 forward $140 $-1 #
coedge $-1 $223 $223 $141 $224 forward $218 $-1 #
edge $-1 $325 0 $325 6.2831853071796004 $223 $326 forward 7 unknown #
face $-1 $327 $328 $46 $-1 $329 reversed single #
loop $-1 $-1 $330 $142 #
plane-surface $-1 -156.45357745274009 7.151489226401317 116.72026657344105 0 -1 0 0.5877852598018023 0 -0.80901698891910034 forward_v I I I I #
coedge $-1 $331 $332 $333 $334 reversed $143 $-1 #
coedge $-1 $230 $145 $335 $336 reversed $91 $-1 #
coedge $-1 $145 $229 $331 $337 reversed $91 $-1 #
coedge $-1 $333 $338 $145 $232 forward $339 $-1 #
edge $-1 $340 6.3129729971302595 $341 20.559342583091457 $231 $342 forward 7 unknown #
loop $-1 $-1 $238 $146 #
plane-surface $-1 -71.913815729239801 -4.3902329271553029 0.36126924753583012 -0.5877852598018023 0 0.80901698891910034 0.80901698891910034 0 0.5877852598018023 forward_v I I I I #
loop $-1 $-1 $343 $93 #
coedge $-1 $236 $236 $237 $344 reversed $147 $-1 #
coedge $-1 $237 $237 $236 $344 forward $149 $-1 #
coedge $-1 $238 $238 $150 $239 forward $233 $-1 #
edge $-1 $345 0 $345 6.2831853071796004 $238 $346 forward 7 unknown #
face $-1 $347 $348 $36 $-1 $349 reversed single #
loop $-1 $-1 $350 $151 #
plane-surface $-1 -71.913815729239786 0 0 1 0 0 0 0 -1 forward_v I I I I #
coedge $-1 $351 $251 $352 $353 forward $152 $-1 #
coedge $-1 $354 $154 $351 $355 forward $97 $-1 #
coedge $-1 $154 $354 $356 $357 forward $97 $-1 #
coedge $-1 $254 $253 $154 $247 reversed $255 $-1 #
edge $-1 $358 -48.495462527625961 $359 48.495462527625961 $246 $360 forward 7 unknown #
coedge $-1 $156 $155 $361 $362 forward $61 $-1 #
coedge $-1 $363 $364 $155 $250 reversed $348 $-1 #
edge $-1 $257 -71.913815729239786 $365 71.913815729239786 $249 $366 forward 7 unknown #
coedge $-1 $243 $367 $156 $252 reversed $152 $-1 #
edge $-1 $368 -71.913815729239786 $256 71.913815729239786 $251 $369 forward 7 unknown #
coedge $-1 $246 $157 $367 $370 forward $255 $-1 #
coedge $-1 $157 $246 $363 $371 reversed $255 $-1 #
loop $-1 $-1 $253 $347 #
vertex $-1 $158 $372 #
vertex $-1 $158 $373 #
straight-curve $-1 71.913815729239786 0 10.711862823456478 0 1 0 I I #
face $-1 $374 $375 $37 $-1 $376 reversed single #
loop $-1 $-1 $377 $159 #
plane-surface $-1 0 -54.635471437718991 -7.0824445352145542 0 0 1 1 0 0 forward_v I I I I #
coedge $-1 $165 $378 $379 $380 forward $160 $-1 #
coedge $-1 $381 $162 $382 $383 reversed $101 $-1 #
coedge $-1 $162 $381 $269 $384 reversed $101 $-1 #
edge $-1 $270 4.0824445352145542 $385 7.0824445352145542 $162 $386 forward 7 unknown #
coedge $-1 $164 $163 $387 $388 forward $64 $-1 #
coedge $-1 $379 $389 $163 $268 forward $390 $-1 #
edge $-1 $391 -7.0824445352145542 $271 -4.0824445352145542 $267 $392 forward 7 unknown #
coedge $-1 $378 $165 $264 $384 forward $160 $-1 #
vertex $-1 $265 $393 #
vertex $-1 $380 $394 #
straight-curve $-1 0 -48.495462527625961 -4.0824445352145542 1 0 0 I I #
face $-1 $-1 $285 $38 $-1 $395 forward single #
loop $-1 $-1 $396 $167 #
plane-surface $-1 71.913815729239786 0 0 -1 0 0 0 0 1 forward_v I I I I #
coedge $-1 $397 $398 $399 $400 reversed $168 $-1 #
coedge $-1 $401 $170 $172 $283 forward $105 $-1 #
coedge $-1 $170 $401 $397 $402 forward $105 $-1 #
coedge $-1 $399 $173 $170 $280 forward $285 $-1 #
edge $-1 $287 6.5501009088185072 $403 21.96026283535376 $279 $404 forward 7 unknown #
coedge $-1 $405 $406 $171 $282 forward $274 $-1 #
edge $-1 $407 -98.195181311444685 $286 -94.495942917679884 $281 $408 forward 7 unknown #
edge $-1 $287 138.59611841226516 $407 143.82763145847966 $172 $409 forward 7 unknown #
coedge $-1 $173 $399 $405 $410 forward $285 $-1 #
loop $-1 $-1 $399 $273 #
vertex $-1 $282 $411 #
vertex $-1 $174 $412 #
straight-curve $-1 35.956909044616708 -20.805282780904641 10.711862823456471 -1 0 0 I I #
coedge $-1 $289 $289 $-1 $413 reversed $177 $-1 #
edge $-1 $414 0 $414 6.2831853071796004 $178 $415 forward 7 unknown #
vertex $-1 $181 $416 #
ellipse-curve $-1 70.064196575278004 -33.133412322132841 8.8622436265740934 0.70710678939079041 0 0.70710677298230451 0.70710677298230451 0 -0.70710678939079041 1 I I #
coedge $-1 $293 $293 $-1 $417 reversed $184 $-1 #
edge $-1 $418 0 $418 6.2831853071796004 $185 $419 forward 7 unknown #
vertex $-1 $188 $420 #
ellipse-curve $-1 70.064196575278004 -28.510363744172267 8.8622436265740934 0.70710678939079041 0 0.70710677298230451 0.70710677298230451 0 -0.70710678939079041 1 I I #
coedge $-1 $297 $297 $-1 $421 reversed $191 $-1 #
edge $-1 $422 0 $422 6.2831853071796004 $192 $423 forward 7 unknown #
vertex $-1 $195 $424 #
ellipse-curve $-1 70.064196575278004 -23.887315166211692 8.8622436265740934 0.70710678939079041 0 0.70710677298230451 0.70710677298230451 0 -0.70710678939079041 1 I I #
face $-1 $-1 $425 $42 $-1 $426 reversed single #
loop $-1 $-1 $308 $196 #
plane-surface $-1 0 0 10.711862823456478 0 0 1 1 0 0 forward_v I I I I #
coedge $-1 $427 $199 $201 $310 forward $124 $-1 #
coedge $-1 $199 $427 $428 $429 reversed $124 $-1 #
coedge $-1 $430 $202 $199 $307 forward $197 $-1 #
edge $-1 $313 12.690109818911544 $431 28.10027174544679 $306 $432 forward 7 unknown #
coedge $-1 $433 $434 $200 $309 forward $302 $-1 #
edge $-1 $435 32.257668376699499 $312 35.956906684623078 $308 $436 forward 7 unknown #
edge $-1 $313 -143.82763145847966 $435 -138.59611841226516 $201 $437 forward 7 unknown #
coedge $-1 $202 $430 $433 $438 reversed $197 $-1 #
vertex $-1 $438 $439 #
vertex $-1 $203 $440 #
straight-curve $-1 71.913815729239786 33.085300601090715 105.20780574113637 0 0 -1 I I #
coedge $-1 $315 $315 $-1 $441 reversed $206 $-1 #
edge $-1 $442 0 $442 6.2831853071796004 $207 $443 forward 7 unknown #
vertex $-1 $210 $444 #
ellipse-curve $-1 70.064196575278004 36.167332986397767 8.8622436265740934 0.70710678939079041 0 0.70710677298230451 0.70710677298230451 0 -0.70710678939079041 1 I I #
coedge $-1 $319 $319 $-1 $445 reversed $213 $-1 #
edge $-1 $446 0 $446 6.2831853071796004 $214 $447 forward 7 unknown #
vertex $-1 $217 $448 #
ellipse-curve $-1 70.064196575278004 40.790381564358341 8.8622436265740934 0.70710678939079041 0 0.70710677298230451 0.70710677298230451 0 -0.70710678939079041 1 I I #
coedge $-1 $323 $323 $-1 $449 reversed $220 $-1 #
edge $-1 $450 0 $450 6.2831853071796004 $221 $451 forward 7 unknown #
vertex $-1 $224 $452 #
ellipse-curve $-1 70.064196575278004 45.413430142318916 8.8622436265740934 0.70710678939079041 0 0.70710677298230451 0.70710677298230451 0 -0.70710678939079041 1 I I #
face $-1 $-1 $339 $46 $-1 $453 forward single #
loop $-1 $-1 $454 $225 #
plane-surface $-1 -71.913815729239786 0 0 1 0 0 0 0 -1 forward_v I I I I #
coedge $-1 $455 $456 $457 $458 reversed $226 $-1 #
coedge $-1 $459 $228 $230 $337 forward $143 $-1 #
coedge $-1 $228 $459 $455 $460 forward $143 $-1 #
coedge $-1 $457 $231 $228 $334 forward $339 $-1 #
edge $-1 $341 -13.736838617134271 $461 9.3466056899789685 $333 $462 forward 7 unknown #
coedge $-1 $463 $464 $229 $336 forward $328 $-1 #
edge $-1 $465 -57.998864039184689 $340 -47.648270463264048 $335 $466 forward 7 unknown #
edge $-1 $341 -17.609481359588372 $465 -1.756574927105486e-014 $230 $467 forward 7 unknown #
coedge $-1 $231 $457 $463 $468 forward $339 $-1 #
loop $-1 $-1 $457 $327 #
vertex $-1 $336 $469 #
vertex $-1 $232 $470 #
straight-curve $-1 -78.226788726370046 -15.931955080711923 10.711862823456478 1 0 0 I I #
coedge $-1 $343 $343 $-1 $471 reversed $235 $-1 #
edge $-1 $472 0 $472 6.2831853071796004 $236 $473 forward 7 unknown #
vertex $-1 $239 $474 #
ellipse-curve $-1 -64.790630936259177 -4.3902329271553029 5.5365660354961683 -0.5877852598018023 0 0.80901698891910034 3.2360679556764014 0 2.3511410392072092 1 I I #
face $-1 $-1 $255 $36 $-1 $475 reversed single #
loop $-1 $-1 $363 $240 #
plane-surface $-1 0 48.495462527625961 0 0 -1 0 0 0 -1 forward_v I I I I #
coedge $-1 $476 $361 $364 $477 forward $241 $-1 #
coedge $-1 $367 $243 $244 $355 reversed $152 $-1 #
coedge $-1 $361 $476 $243 $353 reversed $241 $-1 #
edge $-1 $368 -10.711862823456478 $478 10.711862823456478 $352 $479 forward 7 unknown #
coedge $-1 $245 $244 $476 $480 forward $97 $-1 #
edge $-1 $359 -71.913815729239786 $478 71.913815729239786 $351 $481 forward 7 unknown #
coedge $-1 $364 $363 $245 $357 reversed $348 $-1 #
edge $-1 $482 -71.913815729239786 $358 71.913815729239786 $356 $483 forward 7 unknown #
vertex $-1 $247 $484 #
vertex $-1 $370 $485 #
straight-curve $-1 71.913815729239786 0 -10.711862823456478 0 -1 0 I I #
coedge $-1 $350 $352 $248 $362 reversed $241 $-1 #
edge $-1 $365 -48.495462527625961 $368 48.495462527625961 $361 $486 forward 7 unknown #
coedge $-1 $356 $249 $254 $371 forward $348 $-1 #
coedge $-1 $249 $356 $350 $477 reversed $348 $-1 #
vertex $-1 $250 $487 #
straight-curve $-1 0 48.495462527625961 10.711862823456478 -1 0 0 I I #
coedge $-1 $251 $351 $253 $370 reversed $152 $-1 #
vertex $-1 $362 $488 #
straight-curve $-1 0 -48.495462527625961 10.711862823456478 1 0 0 I I #
edge $-1 $256 -10.711862823456478 $359 10.711862823456478 $253 $489 forward 7 unknown #
edge $-1 $257 -10.711862823456478 $358 10.711862823456478 $254 $490 forward 7 unknown #
point $-1 71.913815729239786 -48.495462527625961 10.711862823456478 #
point $-1 71.913815729239786 48.495462527625961 10.711862823456478 #
face $-1 $-1 $390 $37 $-1 $491 reversed single #
loop $-1 $-1 $492 $259 #
plane-surface $-1 0 -60.775480347812021 -5.5824445352145542 0 1 0 0 0 1 forward_v I I I I #
coedge $-1 $493 $387 $389 $494 forward $260 $-1 #
coedge $-1 $262 $269 $495 $496 forward $160 $-1 #
coedge $-1 $497 $267 $262 $380 reversed $390 $-1 #
edge $-1 $498 -6.1400089100930302 $271 6.1400089100930302 $379 $499 forward 7 unknown #
coedge $-1 $264 $263 $492 $500 reversed $101 $-1 #
coedge $-1 $387 $493 $263 $383 forward $260 $-1 #
edge $-1 $501 -6.1400089100930302 $385 6.1400089100930302 $263 $502 forward 7 unknown #
edge $-1 $270 -6.1400089100930302 $503 6.1400089100930302 $264 $504 forward 7 unknown #
vertex $-1 $265 $505 #
straight-curve $-1 -71.913815729239786 -48.495462527625961 0 0 0 -1 I I #
coedge $-1 $377 $382 $266 $388 reversed $260 $-1 #
edge $-1 $391 -71.913815729239786 $385 71.913815729239786 $387 $506 forward 7 unknown #
coedge $-1 $267 $497 $377 $494 reversed $390 $-1 #
loop $-1 $-1 $267 $374 #
vertex $-1 $268 $507 #
straight-curve $-1 71.913815729239786 -48.495462527625961 0 0 0 1 I I #
point $-1 -71.913815729239786 -48.495462527625961 -4.0824445352145542 #
point $-1 71.913815729239786 -48.495462527625961 -4.0824445352145542 #
plane-surface $-1 0 0 10.711862823456478 0 0 1 1 0 0 forward_v I I I I #
coedge $-1 $406 $405 $398 $508 forward $274 $-1 #
coedge $-1 $398 $276 $278 $402 reversed $168 $-1 #
coedge $-1 $276 $397 $396 $508 reversed $168 $-1 #
coedge $-1 $284 $279 $276 $400 forward $285 $-1 #
edge $-1 $403 32.257668376699499 $509 35.956906684623078 $399 $510 forward 7 unknown #
coedge $-1 $278 $277 $406 $511 reversed $105 $-1 #
edge $-1 $512 -143.82763145847966 $403 -138.59611841226516 $397 $513 forward 7 unknown #
vertex $-1 $280 $514 #
straight-curve $-1 68.214577421316193 -14.255181872086133 10.711862823456485 0 -1 0 I I #
coedge $-1 $396 $281 $284 $410 reversed $274 $-1 #
coedge $-1 $281 $396 $401 $511 forward $274 $-1 #
vertex $-1 $282 $515 #
straight-curve $-1 71.913815729239786 -20.805282780904641 105.20780574113637 0 0 1 I I #
straight-curve $-1 -29.787676617053918 -20.805282780904641 108.71411913597906 0.70710677298230451 0 -0.70710678939079041 I I #
edge $-1 $509 -36.215444707439893 $286 -20.805282780904641 $405 $516 forward 7 unknown #
point $-1 71.913815729239786 -20.805282780904641 10.711862823456478 #
point $-1 68.214577421316207 -20.805282780904641 10.711862823456485 #
edge $-1 $517 1 $517 0 $289 $-1 forward 7 unknown #
vertex $-1 $290 $518 #
ellipse-curve $-1 69.157174099467468 -33.133412322132841 7.9552211718111066 0.70710678939079041 0 0.70710677298230451 0.70710677298230451 0 -0.70710678939079041 1 I I #
point $-1 70.771303348260318 -33.133412322132841 8.1551368371833153 #
edge $-1 $519 1 $519 0 $293 $-1 forward 7 unknown #
vertex $-1 $294 $520 #
ellipse-curve $-1 69.157174099467468 -28.510363744172267 7.9552211718111066 0.70710678939079041 0 0.70710677298230451 0.70710677298230451 0 -0.70710678939079041 1 I I #
point $-1 70.771303348260318 -28.510363744172267 8.1551368371833153 #
edge $-1 $521 1 $521 0 $297 $-1 forward 7 unknown #
vertex $-1 $298 $522 #
ellipse-curve $-1 69.157174099467468 -23.887315166211692 7.9552211718111066 0.70710678939079041 0 0.70710677298230451 0.70710677298230451 0 -0.70710678939079041 1 I I #
point $-1 70.771303348260318 -23.887315166211692 8.1551368371833153 #
loop $-1 $-1 $428 $301 #
plane-surface $-1 0 48.495462527625961 0 0 -1 0 0 0 -1 forward_v I I I I #
coedge $-1 $305 $304 $434 $523 reversed $124 $-1 #
coedge $-1 $524 $525 $305 $429 forward $425 $-1 #
edge $-1 $431 -94.859851642971876 $526 -89.628338596757345 $428 $527 forward 7 unknown #
coedge $-1 $311 $306 $525 $528 reversed $197 $-1 #
vertex $-1 $307 $529 #
straight-curve $-1 71.913815729239786 20.395190782179171 7.0126244296917051 0 1 0 I I #
coedge $-1 $530 $308 $311 $438 forward $302 $-1 #
coedge $-1 $308 $530 $427 $523 forward $302 $-1 #
vertex $-1 $309 $531 #
straight-curve $-1 35.956909044616708 33.085300601090715 10.711862823456471 1 0 0 I I #
straight-curve $-1 -29.787676617053918 33.085300601090715 108.71411913597906 -0.70710677298230451 0 0.70710678939079041 I I #
edge $-1 $312 33.085300601090715 $532 48.495462527625961 $311 $533 forward 7 unknown #
point $-1 71.913815729239786 33.085300601090715 10.711862823456478 #
point $-1 71.913815729239786 33.085300601090715 7.0126244296916838 #
edge $-1 $534 1 $534 0 $315 $-1 forward 7 unknown #
vertex $-1 $316 $535 #
ellipse-curve $-1 69.157174099467468 36.167332986397767 7.9552211718111066 0.70710678939079041 0 0.70710677298230451 0.70710677298230451 0 -0.70710678939079041 1 I I #
point $-1 70.771303348260318 36.167332986397767 8.1551368371833153 #
edge $-1 $536 1 $536 0 $319 $-1 forward 7 unknown #
vertex $-1 $320 $537 #
ellipse-curve $-1 69.157174099467468 40.790381564358341 7.9552211718111066 0.70710678939079041 0 0.70710677298230451 0.70710677298230451 0 -0.70710678939079041 1 I I #
point $-1 70.771303348260318 40.790381564358341 8.1551368371833153 #
edge $-1 $538 1 $538 0 $323 $-1 forward 7 unknown #
vertex $-1 $324 $539 #
ellipse-curve $-1 69.157174099467468 45.413430142318916 7.9552211718111066 0.70710678939079041 0 0.70710677298230451 0.70710677298230451 0 -0.70710678939079041 1 I I #
point $-1 70.771303348260318 45.413430142318916 8.1551368371833153 #
plane-surface $-1 0 0 10.711862823456478 0 0 1 1 0 0 forward_v I I I I #
coedge $-1 $464 $463 $456 $540 forward $328 $-1 #
coedge $-1 $456 $330 $332 $460 reversed $226 $-1 #
coedge $-1 $330 $455 $454 $540 reversed $226 $-1 #
coedge $-1 $338 $333 $330 $458 forward $339 $-1 #
edge $-1 $461 -20.559342583091457 $541 -6.3129729971302595 $457 $542 forward 7 unknown #
coedge $-1 $332 $331 $464 $543 reversed $143 $-1 #
edge $-1 $544 1.756574927105486e-014 $461 17.609481359588372 $455 $545 forward 7 unknown #
vertex $-1 $334 $546 #
straight-curve $-1 -57.667446143278582 -2.1951164635776514 10.711862823456476 0 1 0 I I #
coedge $-1 $454 $335 $338 $468 reversed $328 $-1 #
coedge $-1 $335 $454 $459 $543 forward $328 $-1 #
vertex $-1 $336 $547 #
straight-curve $-1 -71.913815729239786 -15.931955080711923 58.360133286720526 0 0 1 I I #
straight-curve $-1 -71.913815729239801 -15.931955080711923 0.36126924753583012 -0.80901698891910034 0 -0.5877852598018023 I I #
edge $-1 $541 -7.151489226401317 $340 15.931955080711923 $463 $548 forward 7 unknown #
point $-1 -71.913815729239786 -15.931955080711923 10.711862823456478 #
point $-1 -57.667446143278589 -15.931955080711923 10.711862823456478 #
edge $-1 $549 1 $549 0 $343 $-1 forward 7 unknown #
vertex $-1 $344 $550 #
ellipse-curve $-1 -58.916760647505818 -4.3902329271553029 -2.5481226753282127 -0.5877852598018023 0 0.80901698891910034 3.2360679556764014 0 2.3511410392072092 1 I I #
point $-1 -61.554562980582752 -4.3902329271553029 7.8877070747033509 #
plane-surface $-1 71.913815729239786 0 0 -1 0 0 0 0 1 forward_v I I I I #
coedge $-1 $352 $350 $354 $480 reversed $241 $-1 #
edge $-1 $365 -10.711862823456478 $482 10.711862823456478 $364 $551 forward 7 unknown #
vertex $-1 $480 $552 #
straight-curve $-1 -71.913815729239786 -48.495462527625961 0 0 0 -1 I I #
edge $-1 $478 -48.495462527625961 $482 48.495462527625961 $476 $553 forward 7 unknown #
straight-curve $-1 0 -48.495462527625961 -10.711862823456478 -1 0 0 I I #
vertex $-1 $357 $554 #
straight-curve $-1 0 48.495462527625961 -10.711862823456478 1 0 0 I I #
point $-1 71.913815729239786 48.495462527625961 -10.711862823456478 #
point $-1 71.913815729239786 -48.495462527625961 -10.711862823456478 #
straight-curve $-1 -71.913815729239786 0 10.711862823456478 0 -1 0 I I #
point $-1 -71.913815729239786 48.495462527625961 10.711862823456478 #
point $-1 -71.913815729239786 -48.495462527625961 10.711862823456478 #
straight-curve $-1 71.913815729239786 -48.495462527625961 0 0 0 -1 I I #
straight-curve $-1 71.913815729239786 48.495462527625961 0 0 0 -1 I I #
plane-surface $-1 71.913815729239786 0 0 -1 0 0 0 0 1 forward_v I I I I #
coedge $-1 $555 $495 $381 $500 forward $375 $-1 #
coedge $-1 $382 $377 $555 $556 forward $260 $-1 #
edge $-1 $391 -6.1400089100930302 $557 6.1400089100930302 $389 $558 forward 7 unknown #
coedge $-1 $492 $559 $378 $496 reversed $375 $-1 #
edge $-1 $503 -71.913815729239786 $498 71.913815729239786 $495 $560 forward 7 unknown #
coedge $-1 $389 $379 $559 $561 forward $390 $-1 #
vertex $-1 $380 $562 #
straight-curve $-1 71.913815729239786 -54.635471437718991 -4.0824445352145542 0 1 0 I I #
edge $-1 $503 -1.5 $501 1.5 $381 $563 forward 7 unknown #
vertex $-1 $383 $564 #
straight-curve $-1 -71.913815729239786 -54.635471437718991 -7.0824445352145542 0 1 0 I I #
vertex $-1 $384 $565 #
straight-curve $-1 -71.913815729239786 -54.635471437718991 -4.0824445352145542 0 -1 0 I I #
point $-1 -71.913815729239786 -48.495462527625961 -7.0824445352145542 #
straight-curve $-1 0 -48.495462527625961 -7.0824445352145542 -1 0 0 I I #
point $-1 71.913815729239786 -48.495462527625961 -7.0824445352145542 #
edge $-1 $509 94.495942917679884 $512 98.195181311444685 $396 $566 forward 7 unknown #
vertex $-1 $410 $567 #
straight-curve $-1 35.956909044616708 -36.215444707439893 10.711862823456471 1 0 0 I I #
edge $-1 $512 -21.96026283535376 $407 -6.5501009088185072 $406 $568 forward 7 unknown #
vertex $-1 $511 $569 #
straight-curve $-1 -29.787676617053918 -36.215444707439893 108.71411913597906 -0.70710677298230451 0 0.70710678939079041 I I #
point $-1 68.214577421316207 -36.215444707439893 10.711862823456485 #
point $-1 71.913815729239786 -20.805282780904641 7.0126244296916838 #
straight-curve $-1 71.913815729239786 0 10.711862823456478 0 1 0 I I #
vertex $-1 $413 $570 #
point $-1 69.864280872449768 -33.133412322132841 7.248114382420316 #
vertex $-1 $417 $571 #
point $-1 69.864280872449768 -28.510363744172267 7.248114382420316 #
vertex $-1 $421 $572 #
point $-1 69.864280872449768 -23.887315166211692 7.248114382420316 #
edge $-1 $526 -28.100271745446797 $435 -12.690109818911544 $434 $573 forward 7 unknown #
coedge $-1 $525 $428 $530 $574 reversed $425 $-1 #
coedge $-1 $428 $524 $430 $528 forward $425 $-1 #
vertex $-1 $429 $575 #
straight-curve $-1 4.8377721483977894 48.495462527625961 74.088669567040228 -0.70710677298230462 0 0.70710678939079052 I I #
edge $-1 $532 -10.711862823456478 $431 -7.0126244296916953 $430 $576 forward 7 unknown #
point $-1 71.913815729239786 48.495462527625961 7.0126244296916953 #
coedge $-1 $434 $433 $524 $574 forward $302 $-1 #
point $-1 68.214577421316207 33.085300601090715 10.711862823456485 #
vertex $-1 $438 $577 #
straight-curve $-1 71.913815729239786 0 10.711862823456478 0 1 0 I I #
vertex $-1 $441 $578 #
point $-1 69.864280872449768 36.167332986397767 7.248114382420316 #
vertex $-1 $445 $579 #
point $-1 69.864280872449768 40.790381564358341 7.248114382420316 #
vertex $-1 $449 $580 #
point $-1 69.864280872449768 45.413430142318916 7.248114382420316 #
edge $-1 $541 47.648270463264048 $544 57.998864039184689 $454 $581 forward 7 unknown #
vertex $-1 $468 $582 #
straight-curve $-1 -78.226788726370046 7.151489226401317 10.711862823456478 -1 0 0 I I #
edge $-1 $544 -9.3466056899789685 $465 13.736838617134271 $464 $583 forward 7 unknown #
vertex $-1 $543 $584 #
straight-curve $-1 -71.913815729239801 7.151489226401317 0.36126924753583012 0.80901698891910034 0 0.5877852598018023 I I #
point $-1 -57.667446143278589 7.151489226401317 10.711862823456478 #
point $-1 -71.913815729239786 -15.931955080711923 0.36126924753584044 #
straight-curve $-1 -71.913815729239786 0 10.711862823456478 0 -1 0 I I #
vertex $-1 $471 $585 #
point $-1 -55.680692691829421 -4.3902329271553029 -0.1969816361210035 #
straight-curve $-1 -71.913815729239786 48.495462527625961 0 0 0 -1 I I #
point $-1 -71.913815729239786 -48.495462527625961 -10.711862823456478 #
straight-curve $-1 -71.913815729239786 0 -10.711862823456478 0 1 0 I I #
point $-1 -71.913815729239786 48.495462527625961 -10.711862823456478 #
coedge $-1 $559 $492 $493 $556 reversed $375 $-1 #
edge $-1 $557 -71.913815729239786 $501 71.913815729239786 $555 $586 forward 7 unknown #
vertex $-1 $561 $587 #
straight-curve $-1 71.913815729239786 -54.635471437718991 -7.0824445352145542 0 -1 0 I I #
coedge $-1 $495 $555 $497 $561 reversed $375 $-1 #
straight-curve $-1 0 -60.775480347812021 -4.0824445352145542 1 0 0 I I #
edge $-1 $498 -1.5 $557 1.5 $497 $588 forward 7 unknown #
point $-1 71.913815729239786 -60.775480347812021 -4.0824445352145542 #
straight-curve $-1 -71.913815729239786 -60.775480347812021 -5.5824445352145542 0 0 -1 I I #
point $-1 -71.913815729239786 -60.775480347812021 -7.0824445352145542 #
point $-1 -71.913815729239786 -60.775480347812021 -4.0824445352145542 #
straight-curve $-1 71.913815729239786 -36.215444707439893 105.20780574113637 0 0 -1 I I #
point $-1 71.913815729239786 -36.215444707439893 10.711862823456478 #
straight-curve $-1 71.913815729239786 -14.255181872086133 7.0126244296917051 0 1 0 I I #
point $-1 71.913815729239786 -36.215444707439893 7.0126244296916838 #
point $-1 68.450067310076676 -33.133412322132841 7.2481143988288013 #
point $-1 68.450067310076676 -28.510363744172267 7.2481143988288013 #
point $-1 68.450067310076676 -23.887315166211692 7.2481143988288013 #
straight-curve $-1 68.214577421316193 20.395190782179171 10.711862823456485 0 -1 0 I I #
edge $-1 $532 -71.913815729239786 $526 -68.214577421316207 $524 $589 forward 7 unknown #
point $-1 68.214577421316207 48.495462527625968 10.711862823456485 #
straight-curve $-1 71.913815729239786 48.495462527625961 0 0 0 -1 I I #
point $-1 71.913815729239786 48.495462527625961 10.711862823456478 #
point $-1 68.450067310076676 36.167332986397767 7.2481143988288013 #
point $-1 68.450067310076676 40.790381564358341 7.2481143988288013 #
point $-1 68.450067310076676 45.413430142318916 7.2481143988288013 #
straight-curve $-1 -71.913815729239786 7.151489226401317 58.360133286720526 0 0 -1 I I #
point $-1 -71.913815729239786 7.151489226401317 10.711862823456478 #
straight-curve $-1 -71.913815729239786 -2.1951164635776514 0.36126924753583084 0 -1 0 I I #
point $-1 -71.913815729239786 7.151489226401317 0.36126924753584044 #
point $-1 -56.565619608298611 -4.3902329271553029 -5.7841906310046145 #
straight-curve $-1 0 -60.775480347812021 -7.0824445352145542 -1 0 0 I I #
point $-1 71.913815729239786 -60.775480347812021 -7.0824445352145542 #
straight-curve $-1 71.913815729239786 -60.775480347812021 -5.5824445352145542 0 0 -1 I I #
straight-curve $-1 0 48.495462527625961 10.711862823456478 -1 0 0 I I #
End-of-ACIS-data 