500 0 3 0           
7 Unknown 11 ACIS 5.0 NT 24 Fri Mar 26 00:52:36 1999 
-1 9.9999999999999995e-007 1e-010 
body $-1 $3 $-1 $4 #
body $-1 $5 $-1 $6 #
body $-1 $7 $-1 $8 #
lump $-1 $-1 $9 $0 #
transform $-1 1 0 0 0 1 0 0 0 1 40.460219122898039 18.691566727892976 6.345503681277159 1 rotate no_reflect no_shear #
lump $-1 $-1 $10 $1 #
transform $-1 1 0 0 0 1 0 0 0 1 40.460219122898039 18.691566727892976 6.345503681277159 1 rotate no_reflect no_shear #
lump $-1 $-1 $11 $2 #
transform $-1 1 0 0 0 1 0 0 0 1 40.460219122898039 18.691566727892976 6.345503681277159 1 rotate no_reflect no_shear #
shell $-1 $-1 $-1 $12 $-1 $3 #
shell $-1 $-1 $-1 $13 $-1 $5 #
shell $-1 $-1 $-1 $14 $-1 $7 #
face $-1 $15 $16 $9 $-1 $17 forward single #
face $-1 $18 $19 $10 $-1 $20 forward single #
face $-1 $21 $22 $11 $-1 $23 forward single #
face $-1 $24 $25 $9 $-1 $26 reversed single #
loop $-1 $-1 $27 $12 #
plane-surface $-1 0 0 6.345503681277159 0 0 1 1 0 0 forward_v I I I I #
face $-1 $28 $29 $10 $-1 $30 forward single #
loop $-1 $-1 $31 $13 #
plane-surface $-1 -38.079263828986385 -16.014733213116155 0 0 1 0 0 0 1 forward_v I I I I #
face $-1 $32 $33 $11 $-1 $34 forward single #
loop $-1 $-1 $35 $14 #
plane-surface $-1 38.079263828986385 -16.014733213116155 0 0 1 0 0 0 1 forward_v I I I I #
face $-1 $36 $37 $9 $-1 $38 reversed single #
loop $-1 $-1 $39 $15 #
plane-surface $-1 0 0 -6.345503681277159 0 0 1 1 0 0 forward_v I I I I #
coedge $-1 $40 $41 $42 $43 forward $16 $-1 #
face $-1 $44 $45 $10 $-1 $46 forward single #
loop $-1 $-1 $47 $18 #
plane-surface $-1 -38.079263828986385 -12.301392562812815 0 0 -1 0 0 0 -1 forward_v I I I I #
coedge $-1 $48 $49 $50 $51 reversed $19 $-1 #
face $-1 $52 $53 $11 $-1 $54 forward single #
loop $-1 $-1 $55 $21 #
plane-surface $-1 35.69830853507473 -14.158062887964485 0 1 0 0 0 0 -1 forward_v I I I I #
coedge $-1 $56 $57 $58 $59 reversed $22 $-1 #
face $-1 $60 $61 $9 $-1 $62 reversed single #
loop $-1 $-1 $63 $24 #
plane-surface $-1 0 -18.691566727892976 0 0 1 0 0 0 1 forward_v I I I I #
coedge $-1 $64 $65 $66 $67 forward $25 $-1 #
coedge $-1 $68 $27 $69 $70 forward $16 $-1 #
coedge $-1 $27 $68 $71 $72 forward $16 $-1 #
coedge $-1 $73 $74 $27 $43 reversed $75 $-1 #
edge $-1 $76 -18.691566727892976 $77 18.691566727892976 $42 $78 forward 7 unknown #
face $-1 $79 $80 $10 $-1 $81 forward single #
loop $-1 $-1 $82 $28 #
plane-surface $-1 -35.69830853507473 -14.158062887964485 0 -1 0 0 0 0 1 forward_v I I I I #
coedge $-1 $83 $84 $85 $86 reversed $29 $-1 #
coedge $-1 $87 $31 $88 $89 reversed $19 $-1 #
coedge $-1 $31 $87 $90 $91 reversed $19 $-1 #
coedge $-1 $92 $93 $31 $51 forward $94 $-1 #
edge $-1 $95 -6.345503681277159 $96 6.345503681277159 $50 $97 forward 7 unknown #
face $-1 $98 $99 $11 $-1 $100 forward single #
loop $-1 $-1 $101 $32 #
plane-surface $-1 38.079263828986385 -12.301392562812815 0 0 -1 0 0 0 -1 forward_v I I I I #
coedge $-1 $102 $103 $104 $105 reversed $33 $-1 #
coedge $-1 $106 $35 $107 $108 reversed $22 $-1 #
coedge $-1 $35 $106 $109 $110 reversed $22 $-1 #
coedge $-1 $103 $102 $35 $59 forward $33 $-1 #
edge $-1 $111 -6.345503681277159 $112 6.345503681277159 $58 $113 forward 7 unknown #
face $-1 $114 $115 $9 $-1 $116 reversed single #
loop $-1 $-1 $117 $36 #
plane-surface $-1 -40.460219122898039 0 0 1 0 0 0 0 -1 forward_v I I I I #
coedge $-1 $118 $71 $119 $120 forward $37 $-1 #
coedge $-1 $121 $39 $118 $122 forward $25 $-1 #
coedge $-1 $39 $121 $123 $124 forward $25 $-1 #
coedge $-1 $74 $73 $39 $67 reversed $75 $-1 #
edge $-1 $125 -18.691566727892976 $126 18.691566727892976 $66 $127 forward 7 unknown #
coedge $-1 $41 $40 $128 $129 forward $16 $-1 #
coedge $-1 $130 $131 $40 $70 reversed $115 $-1 #
edge $-1 $77 -40.460219122898039 $132 40.460219122898039 $69 $133 forward 7 unknown #
coedge $-1 $63 $134 $41 $72 reversed $37 $-1 #
edge $-1 $135 -40.460219122898039 $76 40.460219122898039 $71 $136 forward 7 unknown #
coedge $-1 $66 $42 $134 $137 forward $75 $-1 #
coedge $-1 $42 $66 $130 $138 reversed $75 $-1 #
loop $-1 $-1 $73 $114 #
vertex $-1 $43 $139 #
vertex $-1 $43 $140 #
straight-curve $-1 40.460219122898039 0 6.345503681277159 0 1 0 I I #
face $-1 $141 $94 $10 $-1 $142 reversed single #
loop $-1 $-1 $143 $44 #
plane-surface $-1 0 0 6.345503681277159 0 0 1 1 0 0 forward_v I I I I #
coedge $-1 $144 $145 $87 $146 reversed $45 $-1 #
coedge $-1 $147 $47 $143 $148 reversed $29 $-1 #
coedge $-1 $47 $147 $149 $150 reversed $29 $-1 #
coedge $-1 $145 $144 $47 $86 forward $45 $-1 #
edge $-1 $151 -6.345503681277159 $152 6.345503681277159 $85 $153 forward 7 unknown #
coedge $-1 $49 $48 $82 $146 forward $19 $-1 #
coedge $-1 $154 $155 $48 $89 forward $80 $-1 #
edge $-1 $156 16.658676620581538 $95 21.420587208404847 $88 $157 forward 7 unknown #
coedge $-1 $158 $159 $49 $91 forward $160 $-1 #
edge $-1 $96 -21.420587208404847 $161 -16.658676620581538 $90 $162 forward 7 unknown #
coedge $-1 $163 $50 $159 $164 reversed $94 $-1 #
coedge $-1 $50 $163 $154 $165 reversed $94 $-1 #
loop $-1 $-1 $50 $79 #
vertex $-1 $165 $166 #
vertex $-1 $51 $167 #
straight-curve $-1 -40.460219122898039 -16.014733213116155 0 0 0 -1 I I #
face $-1 $168 $169 $11 $-1 $170 reversed single #
loop $-1 $-1 $107 $52 #
plane-surface $-1 0 0 6.345503681277159 0 0 1 1 0 0 forward_v I I I I #
coedge $-1 $171 $172 $173 $174 reversed $53 $-1 #
coedge $-1 $58 $55 $175 $176 reversed $33 $-1 #
coedge $-1 $55 $58 $177 $178 reversed $33 $-1 #
coedge $-1 $172 $171 $55 $105 forward $53 $-1 #
edge $-1 $179 -6.345503681277159 $180 6.345503681277159 $104 $181 forward 7 unknown #
coedge $-1 $57 $56 $182 $183 reversed $22 $-1 #
coedge $-1 $175 $184 $56 $108 forward $99 $-1 #
edge $-1 $185 -21.420587208404847 $111 -16.658676620581538 $107 $186 forward 7 unknown #
coedge $-1 $187 $177 $57 $110 forward $188 $-1 #
edge $-1 $112 16.658676620581538 $189 21.420587208404847 $109 $190 forward 7 unknown #
vertex $-1 $108 $191 #
vertex $-1 $110 $192 #
straight-curve $-1 35.69830853507473 -16.014733213116155 0 0 0 -1 I I #
face $-1 $-1 $75 $9 $-1 $193 reversed single #
loop $-1 $-1 $130 $60 #
plane-surface $-1 0 18.691566727892976 0 0 -1 0 0 0 -1 forward_v I I I I #
coedge $-1 $194 $128 $131 $195 forward $61 $-1 #
coedge $-1 $134 $63 $64 $122 reversed $37 $-1 #
coedge $-1 $128 $194 $63 $120 reversed $61 $-1 #
edge $-1 $135 -6.345503681277159 $196 6.345503681277159 $119 $197 forward 7 unknown #
coedge $-1 $65 $64 $194 $198 forward $25 $-1 #
edge $-1 $126 -40.460219122898039 $196 40.460219122898039 $118 $199 forward 7 unknown #
coedge $-1 $131 $130 $65 $124 reversed $115 $-1 #
edge $-1 $200 -40.460219122898039 $125 40.460219122898039 $123 $201 forward 7 unknown #
vertex $-1 $67 $202 #
vertex $-1 $137 $203 #
straight-curve $-1 40.460219122898039 0 -6.345503681277159 0 -1 0 I I #
coedge $-1 $117 $119 $68 $129 reversed $61 $-1 #
edge $-1 $132 -18.691566727892976 $135 18.691566727892976 $128 $204 forward 7 unknown #
coedge $-1 $123 $69 $74 $138 forward $115 $-1 #
coedge $-1 $69 $123 $117 $195 reversed $115 $-1 #
vertex $-1 $70 $205 #
straight-curve $-1 0 18.691566727892976 6.345503681277159 -1 0 0 I I #
coedge $-1 $71 $118 $73 $137 reversed $37 $-1 #
vertex $-1 $129 $206 #
straight-curve $-1 0 -18.691566727892976 6.345503681277159 1 0 0 I I #
edge $-1 $76 -6.345503681277159 $126 6.345503681277159 $73 $207 forward 7 unknown #
edge $-1 $77 -6.345503681277159 $125 6.345503681277159 $74 $208 forward 7 unknown #
point $-1 40.460219122898039 -18.691566727892976 6.345503681277159 #
point $-1 40.460219122898039 18.691566727892976 6.345503681277159 #
face $-1 $209 $160 $10 $-1 $210 reversed single #
plane-surface $-1 -40.460219122898039 0 0 1 0 0 0 0 -1 forward_v I I I I #
coedge $-1 $155 $211 $83 $148 forward $80 $-1 #
coedge $-1 $85 $82 $155 $212 reversed $45 $-1 #
coedge $-1 $82 $85 $158 $213 reversed $45 $-1 #
edge $-1 $156 -6.345503681277159 $161 6.345503681277159 $82 $214 forward 7 unknown #
coedge $-1 $84 $83 $215 $216 reversed $29 $-1 #
edge $-1 $217 -21.420587208404847 $151 -16.658676620581538 $143 $218 forward 7 unknown #
coedge $-1 $219 $158 $84 $150 forward $160 $-1 #
edge $-1 $152 16.658676620581538 $220 21.420587208404847 $149 $221 forward 7 unknown #
vertex $-1 $148 $222 #
vertex $-1 $150 $223 #
straight-curve $-1 -35.69830853507473 -12.301392562812815 0 0 0 -1 I I #
coedge $-1 $224 $88 $93 $165 forward $80 $-1 #
coedge $-1 $88 $143 $144 $212 forward $80 $-1 #
vertex $-1 $89 $225 #
straight-curve $-1 -19.039631914493192 -16.014733213116155 6.345503681277159 -1 0 0 I I #
coedge $-1 $149 $90 $145 $213 forward $160 $-1 #
coedge $-1 $90 $226 $92 $164 forward $160 $-1 #
loop $-1 $-1 $149 $141 #
vertex $-1 $91 $227 #
straight-curve $-1 -19.039631914493192 -16.014733213116155 -6.345503681277159 1 0 0 I I #
coedge $-1 $93 $92 $228 $229 reversed $94 $-1 #
edge $-1 $230 -18.691566727892976 $96 -16.014733213116155 $92 $231 forward 7 unknown #
edge $-1 $95 16.014733213116155 $232 18.691566727892976 $93 $233 forward 7 unknown #
point $-1 -40.460219122898039 -16.014733213116155 6.345503681277159 #
point $-1 -40.460219122898039 -16.014733213116155 -6.345503681277159 #
face $-1 $234 $235 $11 $-1 $236 forward single #
loop $-1 $-1 $173 $98 #
plane-surface $-1 40.460219122898039 0 0 -1 0 0 0 0 1 forward_v I I I I #
coedge $-1 $104 $101 $237 $238 reversed $53 $-1 #
coedge $-1 $101 $104 $239 $240 reversed $53 $-1 #
coedge $-1 $241 $242 $101 $174 forward $169 $-1 #
edge $-1 $243 -6.345503681277159 $244 6.345503681277159 $173 $245 forward 7 unknown #
coedge $-1 $237 $107 $102 $176 forward $99 $-1 #
edge $-1 $111 -8.9357017691339138 $179 -5.2223611188305723 $175 $246 forward 7 unknown #
coedge $-1 $109 $239 $103 $178 forward $188 $-1 #
edge $-1 $180 5.2223611188305723 $112 8.9357017691339138 $177 $247 forward 7 unknown #
vertex $-1 $176 $248 #
vertex $-1 $178 $249 #
straight-curve $-1 35.69830853507473 -12.301392562812815 0 0 0 -1 I I #
coedge $-1 $250 $251 $106 $183 forward $252 $-1 #
edge $-1 $189 -6.345503681277159 $185 6.345503681277159 $182 $253 forward 7 unknown #
coedge $-1 $107 $254 $250 $255 forward $99 $-1 #
vertex $-1 $183 $256 #
straight-curve $-1 19.039631914493192 -16.014733213116155 6.345503681277159 -1 0 0 I I #
coedge $-1 $257 $109 $251 $258 forward $188 $-1 #
loop $-1 $-1 $109 $259 #
vertex $-1 $258 $260 #
straight-curve $-1 19.039631914493192 -16.014733213116155 -6.345503681277159 1 0 0 I I #
point $-1 35.69830853507473 -16.014733213116155 6.345503681277159 #
point $-1 35.69830853507473 -16.014733213116155 -6.345503681277159 #
plane-surface $-1 40.460219122898039 0 0 -1 0 0 0 0 1 forward_v I I I I #
coedge $-1 $119 $117 $121 $198 reversed $61 $-1 #
edge $-1 $132 -6.345503681277159 $200 6.345503681277159 $131 $261 forward 7 unknown #
vertex $-1 $198 $262 #
straight-curve $-1 -40.460219122898039 -18.691566727892976 0 0 0 -1 I I #
edge $-1 $196 -18.691566727892976 $200 18.691566727892976 $194 $263 forward 7 unknown #
straight-curve $-1 0 -18.691566727892976 -6.345503681277159 -1 0 0 I I #
vertex $-1 $124 $264 #
straight-curve $-1 0 18.691566727892976 -6.345503681277159 1 0 0 I I #
point $-1 40.460219122898039 18.691566727892976 -6.345503681277159 #
point $-1 40.460219122898039 -18.691566727892976 -6.345503681277159 #
straight-curve $-1 -40.460219122898039 0 6.345503681277159 0 -1 0 I I #
point $-1 -40.460219122898039 18.691566727892976 6.345503681277159 #
point $-1 -40.460219122898039 -18.691566727892976 6.345503681277159 #
straight-curve $-1 40.460219122898039 -18.691566727892976 0 0 0 -1 I I #
straight-curve $-1 40.460219122898039 18.691566727892976 0 0 0 -1 I I #
face $-1 $265 $266 $10 $-1 $267 reversed single #
plane-surface $-1 0 0 -6.345503681277159 0 0 1 1 0 0 forward_v I I I I #
coedge $-1 $143 $268 $269 $270 forward $80 $-1 #
edge $-1 $151 5.2223611188305723 $156 8.9357017691339138 $155 $271 forward 7 unknown #
edge $-1 $161 -8.9357017691339138 $152 -5.2223611188305723 $158 $272 forward 7 unknown #
straight-curve $-1 -35.69830853507473 -16.014733213116155 0 0 0 -1 I I #
coedge $-1 $269 $273 $147 $216 forward $274 $-1 #
edge $-1 $220 -6.345503681277159 $217 6.345503681277159 $215 $275 forward 7 unknown #
vertex $-1 $216 $276 #
straight-curve $-1 -19.039631914493192 -12.301392562812815 6.345503681277159 1 0 0 I I #
coedge $-1 $277 $149 $273 $278 forward $160 $-1 #
vertex $-1 $278 $279 #
straight-curve $-1 -19.039631914493192 -12.301392562812815 -6.345503681277159 -1 0 0 I I #
point $-1 -35.69830853507473 -12.301392562812815 6.345503681277159 #
point $-1 -35.69830853507473 -12.301392562812815 -6.345503681277159 #
coedge $-1 $280 $154 $281 $282 forward $80 $-1 #
point $-1 -35.69830853507473 -16.014733213116155 6.345503681277159 #
coedge $-1 $159 $283 $284 $285 forward $160 $-1 #
point $-1 -35.69830853507473 -16.014733213116155 -6.345503681277159 #
coedge $-1 $284 $281 $163 $229 forward $266 $-1 #
edge $-1 $232 -6.345503681277159 $230 6.345503681277159 $163 $286 forward 7 unknown #
vertex $-1 $164 $287 #
straight-curve $-1 -40.460219122898039 0 -6.345503681277159 0 1 0 I I #
vertex $-1 $165 $288 #
straight-curve $-1 -40.460219122898039 0 6.345503681277159 0 -1 0 I I #
face $-1 $289 $290 $11 $-1 $291 forward single #
loop $-1 $-1 $292 $168 #
plane-surface $-1 -38.079263828986385 -16.014733213116155 0 0 1 0 0 0 1 forward_v I I I I #
coedge $-1 $293 $175 $171 $238 forward $99 $-1 #
edge $-1 $179 16.658676620581538 $243 21.420587208404847 $237 $294 forward 7 unknown #
coedge $-1 $177 $295 $172 $240 forward $188 $-1 #
edge $-1 $244 -21.420587208404847 $180 -16.658676620581538 $239 $296 forward 7 unknown #
coedge $-1 $297 $173 $295 $298 reversed $169 $-1 #
coedge $-1 $173 $297 $293 $299 reversed $169 $-1 #
vertex $-1 $299 $300 #
vertex $-1 $174 $301 #
straight-curve $-1 40.460219122898039 -12.301392562812815 0 0 0 -1 I I #
straight-curve $-1 35.69830853507473 -7.0790314439822426 6.345503681277159 0 1 0 I I #
straight-curve $-1 35.69830853507473 -7.0790314439822426 -6.345503681277159 0 -1 0 I I #
point $-1 35.69830853507473 -12.301392562812815 6.345503681277159 #
point $-1 35.69830853507473 -12.301392562812815 -6.345503681277159 #
coedge $-1 $302 $182 $184 $255 reversed $252 $-1 #
coedge $-1 $182 $302 $187 $258 reversed $252 $-1 #
loop $-1 $-1 $182 $303 #
straight-curve $-1 40.460219122898039 -16.014733213116155 0 0 0 1 I I #
coedge $-1 $184 $304 $305 $306 forward $99 $-1 #
edge $-1 $307 -18.691566727892976 $185 -16.014733213116155 $250 $308 forward 7 unknown #
point $-1 40.460219122898039 -16.014733213116155 6.345503681277159 #
coedge $-1 $309 $187 $310 $311 forward $188 $-1 #
edge $-1 $189 16.014733213116155 $312 18.691566727892976 $251 $313 forward 7 unknown #
face $-1 $314 $188 $11 $-1 $315 reversed single #
point $-1 40.460219122898039 -16.014733213116155 -6.345503681277159 #
straight-curve $-1 -40.460219122898039 18.691566727892976 0 0 0 -1 I I #
point $-1 -40.460219122898039 -18.691566727892976 -6.345503681277159 #
straight-curve $-1 -40.460219122898039 0 -6.345503681277159 0 1 0 I I #
point $-1 -40.460219122898039 18.691566727892976 -6.345503681277159 #
face $-1 $316 $274 $10 $-1 $142 reversed single #
loop $-1 $-1 $228 $209 #
plane-surface $-1 0 -18.691566727892976 0 0 1 0 0 0 1 forward_v I I I I #
coedge $-1 $211 $280 $317 $318 forward $80 $-1 #
coedge $-1 $319 $215 $211 $270 reversed $274 $-1 #
edge $-1 $320 -18.691566727892976 $217 12.301392562812815 $269 $233 forward 7 unknown #
straight-curve $-1 -35.69830853507473 -7.0790314439822426 6.345503681277159 0 -1 0 I I #
straight-curve $-1 -35.69830853507473 -7.0790314439822426 -6.345503681277159 0 1 0 I I #
coedge $-1 $215 $319 $219 $278 reversed $274 $-1 #
loop $-1 $-1 $215 $265 #
straight-curve $-1 -40.460219122898039 -12.301392562812815 0 0 0 1 I I #
point $-1 -40.460219122898039 -12.301392562812815 6.345503681277159 #
coedge $-1 $283 $219 $321 $322 forward $160 $-1 #
edge $-1 $220 -12.301392562812815 $323 18.691566727892976 $273 $231 forward 7 unknown #
point $-1 -40.460219122898039 -12.301392562812815 -6.345503681277159 #
coedge $-1 $268 $224 $324 $325 forward $80 $-1 #
coedge $-1 $228 $326 $224 $282 reversed $266 $-1 #
edge $-1 $232 -40.460219122898039 $327 40.460219122898039 $281 $328 forward 7 unknown #
coedge $-1 $226 $277 $329 $330 forward $160 $-1 #
coedge $-1 $326 $228 $226 $285 reversed $266 $-1 #
edge $-1 $331 -40.460219122898039 $230 40.460219122898039 $284 $332 forward 7 unknown #
straight-curve $-1 -40.460219122898039 -18.691566727892976 0 0 0 -1 I I #
point $-1 -40.460219122898039 -18.691566727892976 -6.345503681277159 #
point $-1 -40.460219122898039 -18.691566727892976 6.345503681277159 #
face $-1 $333 $334 $11 $-1 $335 forward single #
loop $-1 $-1 $336 $234 #
plane-surface $-1 -38.079263828986385 -12.301392562812815 0 0 -1 0 0 0 -1 forward_v I I I I #
coedge $-1 $337 $338 $339 $340 reversed $235 $-1 #
coedge $-1 $341 $237 $242 $299 forward $99 $-1 #
straight-curve $-1 19.039631914493192 -12.301392562812815 6.345503681277159 1 0 0 I I #
coedge $-1 $239 $342 $241 $298 forward $188 $-1 #
straight-curve $-1 19.039631914493192 -12.301392562812815 -6.345503681277159 -1 0 0 I I #
coedge $-1 $242 $241 $343 $344 reversed $169 $-1 #
edge $-1 $345 -18.691566727892976 $244 12.301392562812815 $241 $313 forward 7 unknown #
edge $-1 $243 -12.301392562812815 $346 18.691566727892976 $242 $308 forward 7 unknown #
point $-1 40.460219122898039 -12.301392562812815 6.345503681277159 #
point $-1 40.460219122898039 -12.301392562812815 -6.345503681277159 #
coedge $-1 $251 $250 $347 $348 forward $252 $-1 #
face $-1 $-1 $252 $11 $-1 $170 reversed single #
coedge $-1 $254 $349 $350 $351 forward $99 $-1 #
coedge $-1 $352 $347 $254 $306 reversed $353 $-1 #
edge $-1 $354 -40.460219122898039 $307 40.460219122898039 $305 $355 forward 7 unknown #
vertex $-1 $255 $356 #
straight-curve $-1 40.460219122898039 0 6.345503681277159 0 1 0 I I #
coedge $-1 $357 $257 $358 $359 forward $188 $-1 #
coedge $-1 $347 $352 $257 $311 reversed $353 $-1 #
edge $-1 $312 -40.460219122898039 $360 40.460219122898039 $310 $361 forward 7 unknown #
vertex $-1 $348 $362 #
straight-curve $-1 40.460219122898039 0 -6.345503681277159 0 -1 0 I I #
face $-1 $363 $353 $11 $-1 $364 reversed single #
plane-surface $-1 0 0 -6.345503681277159 0 0 1 1 0 0 forward_v I I I I #
face $-1 $365 $366 $10 $-1 $367 reversed single #
coedge $-1 $368 $369 $268 $318 reversed $366 $-1 #
edge $-1 $370 -40.460219122898039 $320 40.460219122898039 $317 $371 forward 7 unknown #
coedge $-1 $273 $269 $369 $372 forward $274 $-1 #
vertex $-1 $318 $373 #
coedge $-1 $369 $368 $277 $322 reversed $366 $-1 #
edge $-1 $323 -40.460219122898039 $374 40.460219122898039 $321 $375 forward 7 unknown #
vertex $-1 $322 $376 #
coedge $-1 $377 $378 $280 $325 reversed $379 $-1 #
edge $-1 $327 -18.691566727892976 $370 18.691566727892976 $324 $380 forward 7 unknown #
coedge $-1 $281 $284 $377 $381 reversed $266 $-1 #
vertex $-1 $325 $382 #
straight-curve $-1 0 -18.691566727892976 6.345503681277159 1 0 0 I I #
coedge $-1 $378 $377 $283 $330 reversed $379 $-1 #
edge $-1 $374 -18.691566727892976 $331 18.691566727892976 $329 $383 forward 7 unknown #
vertex $-1 $381 $384 #
straight-curve $-1 0 -18.691566727892976 -6.345503681277159 -1 0 0 I I #
face $-1 $259 $385 $11 $-1 $386 reversed single #
loop $-1 $-1 $387 $289 #
plane-surface $-1 -35.69830853507473 -14.158062887964485 0 -1 0 0 0 0 1 forward_v I I I I #
coedge $-1 $388 $389 $390 $391 reversed $290 $-1 #
coedge $-1 $392 $292 $349 $393 reversed $235 $-1 #
coedge $-1 $292 $392 $357 $394 reversed $235 $-1 #
coedge $-1 $358 $350 $292 $340 forward $385 $-1 #
edge $-1 $395 -6.345503681277159 $396 6.345503681277159 $339 $397 forward 7 unknown #
coedge $-1 $398 $293 $399 $400 forward $99 $-1 #
coedge $-1 $295 $401 $402 $403 forward $188 $-1 #
coedge $-1 $402 $399 $297 $344 forward $404 $-1 #
edge $-1 $346 -6.345503681277159 $345 6.345503681277159 $297 $405 forward 7 unknown #
vertex $-1 $298 $406 #
vertex $-1 $299 $407 #
coedge $-1 $305 $310 $302 $348 reversed $353 $-1 #
edge $-1 $307 -6.345503681277159 $312 6.345503681277159 $302 $408 forward 7 unknown #
coedge $-1 $304 $409 $337 $393 forward $99 $-1 #
coedge $-1 $339 $410 $304 $351 reversed $385 $-1 #
edge $-1 $395 16.014733213116155 $354 18.691566727892976 $350 $411 forward 7 unknown #
coedge $-1 $310 $305 $410 $412 forward $353 $-1 #
loop $-1 $-1 $352 $314 #
vertex $-1 $351 $413 #
straight-curve $-1 0 -18.691566727892976 6.345503681277159 1 0 0 I I #
point $-1 40.460219122898039 -18.691566727892976 6.345503681277159 #
coedge $-1 $414 $309 $338 $394 forward $188 $-1 #
coedge $-1 $410 $339 $309 $359 reversed $385 $-1 #
edge $-1 $360 -18.691566727892976 $396 -16.014733213116155 $358 $415 forward 7 unknown #
vertex $-1 $359 $416 #
straight-curve $-1 0 -18.691566727892976 -6.345503681277159 -1 0 0 I I #
point $-1 40.460219122898039 -18.691566727892976 -6.345503681277159 #
face $-1 $417 $418 $11 $-1 $386 reversed single #
plane-surface $-1 0 -18.691566727892976 0 0 1 0 0 0 1 forward_v I I I I #
face $-1 $-1 $379 $10 $-1 $419 reversed single #
loop $-1 $-1 $368 $316 #
plane-surface $-1 0 18.691566727892976 0 0 -1 0 0 0 -1 forward_v I I I I #
coedge $-1 $321 $317 $378 $420 forward $366 $-1 #
coedge $-1 $317 $321 $319 $372 reversed $366 $-1 #
vertex $-1 $325 $421 #
straight-curve $-1 0 18.691566727892976 6.345503681277159 -1 0 0 I I #
edge $-1 $320 -6.345503681277159 $323 6.345503681277159 $369 $422 forward 7 unknown #
point $-1 -40.460219122898039 18.691566727892976 6.345503681277159 #
vertex $-1 $330 $423 #
straight-curve $-1 0 18.691566727892976 -6.345503681277159 1 0 0 I I #
point $-1 -40.460219122898039 18.691566727892976 -6.345503681277159 #
coedge $-1 $329 $324 $326 $381 forward $379 $-1 #
coedge $-1 $324 $329 $368 $420 reversed $379 $-1 #
loop $-1 $-1 $377 $365 #
straight-curve $-1 40.460219122898039 0 6.345503681277159 0 1 0 I I #
edge $-1 $327 -6.345503681277159 $331 6.345503681277159 $377 $424 forward 7 unknown #
point $-1 40.460219122898039 -18.691566727892976 6.345503681277159 #
straight-curve $-1 40.460219122898039 0 -6.345503681277159 0 -1 0 I I #
point $-1 40.460219122898039 -18.691566727892976 -6.345503681277159 #
loop $-1 $-1 $339 $333 #
plane-surface $-1 -40.460219122898039 0 0 1 0 0 0 0 -1 forward_v I I I I #
coedge $-1 $425 $426 $392 $427 reversed $334 $-1 #
coedge $-1 $428 $336 $429 $430 reversed $290 $-1 #
coedge $-1 $336 $428 $431 $432 reversed $290 $-1 #
coedge $-1 $426 $425 $336 $391 forward $334 $-1 #
edge $-1 $433 -6.345503681277159 $434 6.345503681277159 $390 $435 forward 7 unknown #
coedge $-1 $338 $337 $387 $427 forward $235 $-1 #
edge $-1 $436 16.658676620581538 $395 21.420587208404847 $349 $437 forward 7 unknown #
edge $-1 $396 -21.420587208404847 $438 -16.658676620581538 $357 $439 forward 7 unknown #
vertex $-1 $351 $440 #
vertex $-1 $340 $441 #
straight-curve $-1 -40.460219122898039 -16.014733213116155 0 0 0 -1 I I #
coedge $-1 $429 $341 $442 $443 forward $99 $-1 #
coedge $-1 $343 $444 $341 $400 reversed $404 $-1 #
edge $-1 $346 -40.460219122898039 $445 40.460219122898039 $399 $446 forward 7 unknown #
coedge $-1 $342 $431 $447 $448 forward $188 $-1 #
coedge $-1 $444 $343 $342 $403 reversed $404 $-1 #
edge $-1 $449 -40.460219122898039 $345 40.460219122898039 $402 $450 forward 7 unknown #
loop $-1 $-1 $343 $417 #
straight-curve $-1 40.460219122898039 18.691566727892976 0 0 0 -1 I I #
point $-1 40.460219122898039 18.691566727892976 -6.345503681277159 #
point $-1 40.460219122898039 18.691566727892976 6.345503681277159 #
straight-curve $-1 40.460219122898039 -18.691566727892976 0 0 0 -1 I I #
coedge $-1 $349 $429 $425 $451 forward $99 $-1 #
coedge $-1 $350 $358 $352 $412 reversed $385 $-1 #
straight-curve $-1 -40.460219122898039 0 6.345503681277159 0 -1 0 I I #
edge $-1 $354 -6.345503681277159 $360 6.345503681277159 $410 $452 forward 7 unknown #
point $-1 -40.460219122898039 -18.691566727892976 6.345503681277159 #
coedge $-1 $431 $357 $426 $453 forward $188 $-1 #
straight-curve $-1 -40.460219122898039 0 -6.345503681277159 0 1 0 I I #
point $-1 -40.460219122898039 -18.691566727892976 -6.345503681277159 #
face $-1 $303 $404 $11 $-1 $454 reversed single #
loop $-1 $-1 $455 $363 #
plane-surface $-1 40.460219122898039 0 0 -1 0 0 0 0 1 forward_v I I I I #
edge $-1 $370 -6.345503681277159 $374 6.345503681277159 $378 $456 forward 7 unknown #
point $-1 40.460219122898039 18.691566727892976 6.345503681277159 #
straight-curve $-1 -40.460219122898039 18.691566727892976 0 0 0 -1 I I #
point $-1 40.460219122898039 18.691566727892976 -6.345503681277159 #
straight-curve $-1 40.460219122898039 -18.691566727892976 0 0 0 -1 I I #
coedge $-1 $390 $387 $409 $451 reversed $334 $-1 #
coedge $-1 $387 $390 $414 $453 reversed $334 $-1 #
edge $-1 $436 -6.345503681277159 $438 6.345503681277159 $387 $457 forward 7 unknown #
coedge $-1 $389 $388 $455 $458 reversed $290 $-1 #
coedge $-1 $409 $398 $388 $430 forward $99 $-1 #
edge $-1 $459 -21.420587208404847 $433 -16.658676620581538 $429 $460 forward 7 unknown #
coedge $-1 $401 $414 $389 $432 forward $188 $-1 #
edge $-1 $434 16.658676620581538 $461 21.420587208404847 $431 $462 forward 7 unknown #
vertex $-1 $430 $463 #
vertex $-1 $432 $464 #
straight-curve $-1 -35.69830853507473 -12.301392562812815 0 0 0 -1 I I #
vertex $-1 $393 $465 #
straight-curve $-1 -19.039631914493192 -16.014733213116155 6.345503681277159 -1 0 0 I I #
vertex $-1 $394 $466 #
straight-curve $-1 -19.039631914493192 -16.014733213116155 -6.345503681277159 1 0 0 I I #
point $-1 -40.460219122898039 -16.014733213116155 6.345503681277159 #
point $-1 -40.460219122898039 -16.014733213116155 -6.345503681277159 #
coedge $-1 $467 $455 $398 $443 reversed $418 $-1 #
edge $-1 $445 -18.691566727892976 $459 12.301392562812815 $442 $411 forward 7 unknown #
coedge $-1 $399 $402 $467 $468 reversed $404 $-1 #
vertex $-1 $400 $469 #
straight-curve $-1 0 18.691566727892976 6.345503681277159 -1 0 0 I I #
coedge $-1 $455 $467 $401 $448 reversed $418 $-1 #
edge $-1 $461 -12.301392562812815 $449 18.691566727892976 $447 $415 forward 7 unknown #
vertex $-1 $403 $470 #
straight-curve $-1 0 18.691566727892976 -6.345503681277159 1 0 0 I I #
edge $-1 $433 5.2223611188305723 $436 8.9357017691339138 $409 $471 forward 7 unknown #
straight-curve $-1 -40.460219122898039 -18.691566727892976 0 0 0 -1 I I #
edge $-1 $438 -8.9357017691339138 $434 -5.2223611188305723 $414 $472 forward 7 unknown #
plane-surface $-1 0 18.691566727892976 0 0 -1 0 0 0 -1 forward_v I I I I #
coedge $-1 $442 $447 $428 $458 forward $418 $-1 #
straight-curve $-1 40.460219122898039 18.691566727892976 0 0 0 -1 I I #
straight-curve $-1 -35.69830853507473 -16.014733213116155 0 0 0 -1 I I #
edge $-1 $461 -6.345503681277159 $459 6.345503681277159 $455 $473 forward 7 unknown #
vertex $-1 $458 $474 #
straight-curve $-1 -19.039631914493192 -12.301392562812815 6.345503681277159 1 0 0 I I #
vertex $-1 $448 $475 #
straight-curve $-1 -19.039631914493192 -12.301392562812815 -6.345503681277159 -1 0 0 I I #
point $-1 -35.69830853507473 -12.301392562812815 6.345503681277159 #
point $-1 -35.69830853507473 -12.301392562812815 -6.345503681277159 #
point $-1 -35.69830853507473 -16.014733213116155 6.345503681277159 #
point $-1 -35.69830853507473 -16.014733213116155 -6.345503681277159 #
coedge $-1 $447 $442 $444 $468 forward $418 $-1 #
edge $-1 $445 -6.345503681277159 $449 6.345503681277159 $444 $476 forward 7 unknown #
point $-1 -40.460219122898039 18.691566727892976 6.345503681277159 #
point $-1 -40.460219122898039 18.691566727892976 -6.345503681277159 #
straight-curve $-1 -35.69830853507473 -7.0790314439822426 6.345503681277159 0 -1 0 I I #
straight-curve $-1 -35.69830853507473 -7.0790314439822426 -6.345503681277159 0 1 0 I I #
straight-curve $-1 -40.460219122898039 -12.301392562812815 0 0 0 1 I I #
point $-1 -40.460219122898039 -12.301392562812815 6.345503681277159 #
point $-1 -40.460219122898039 -12.301392562812815 -6.345503681277159 #
straight-curve $-1 -40.460219122898039 18.691566727892976 0 0 0 -1 I I #
End-of-ACIS-data 