500 0 13 0           
7 Unknown 11 ACIS 5.0 NT 24 Fri Mar 26 01:48:23 1999 
-1 9.9999999999999995e-007 1e-010 
body $-1 $13 $-1 $14 #
body $-1 $15 $-1 $16 #
body $-1 $17 $-1 $18 #
body $-1 $19 $-1 $20 #
body $-1 $21 $-1 $22 #
body $-1 $23 $-1 $24 #
body $-1 $25 $-1 $26 #
body $-1 $27 $-1 $28 #
body $-1 $29 $-1 $30 #
body $-1 $31 $-1 $32 #
body $-1 $33 $-1 $34 #
body $-1 $35 $-1 $36 #
body $-1 $37 $-1 $38 #
lump $-1 $-1 $39 $0 #
transform $-1 1 0 0 0 1 0 0 0 1 53.823664052247686 21.790149097723067 9.9290913773977891 1 rotate no_reflect no_shear #
lump $-1 $-1 $40 $1 #
transform $-1 1 0 0 0 1 0 0 0 1 53.823664052247686 21.790149097723067 9.9290913773977891 1 rotate no_reflect no_shear #
lump $-1 $-1 $41 $2 #
transform $-1 1 0 0 0 1 0 0 0 1 53.823664052247686 21.790149097723067 9.9290913773977891 1 rotate no_reflect no_shear #
lump $-1 $-1 $42 $3 #
transform $-1 1 0 0 0 1 0 0 0 1 53.823664052247686 21.790149097723067 9.9290913773977891 1 rotate no_reflect no_shear #
lump $-1 $-1 $43 $4 #
transform $-1 1 0 0 0 1 0 0 0 1 53.823664052247686 21.790149097723067 9.9290913773977891 1 rotate no_reflect no_shear #
lump $-1 $-1 $44 $5 #
transform $-1 1 0 0 0 1 0 0 0 1 53.823664052247686 21.790149097723067 9.9290913773977891 1 rotate no_reflect no_shear #
lump $-1 $-1 $45 $6 #
transform $-1 1 0 0 0 1 0 0 0 1 53.823664052247686 21.790149097723067 9.9290913773977891 1 rotate no_reflect no_shear #
lump $-1 $-1 $46 $7 #
transform $-1 1 0 0 0 1 0 0 0 1 53.823664052247686 21.790149097723067 9.9290913773977891 1 rotate no_reflect no_shear #
lump $-1 $-1 $47 $8 #
transform $-1 1 0 0 0 1 0 0 0 1 53.823664052247686 21.790149097723067 9.9290913773977891 1 rotate no_reflect no_shear #
lump $-1 $-1 $48 $9 #
transform $-1 1 0 0 0 1 0 0 0 1 53.823664052247686 21.790149097723067 9.9290913773977891 1 rotate no_reflect no_shear #
lump $-1 $-1 $49 $10 #
transform $-1 1 0 0 0 1 0 0 0 1 53.823664052247686 21.790149097723067 9.9290913773977891 1 rotate no_reflect no_shear #
lump $-1 $-1 $50 $11 #
transform $-1 1 0 0 0 1 0 0 0 1 53.823664052247686 21.790149097723067 9.9290913773977891 1 rotate no_reflect no_shear #
lump $-1 $-1 $51 $12 #
transform $-1 1 0 0 0 1 0 0 0 1 53.823664052247686 21.790149097723067 9.9290913773977891 1 rotate no_reflect no_shear #
shell $-1 $-1 $-1 $52 $-1 $13 #
shell $-1 $-1 $-1 $53 $-1 $15 #
shell $-1 $-1 $-1 $54 $-1 $17 #
shell $-1 $-1 $-1 $55 $-1 $19 #
shell $-1 $-1 $-1 $56 $-1 $21 #
shell $-1 $-1 $-1 $57 $-1 $23 #
shell $-1 $-1 $-1 $58 $-1 $25 #
shell $-1 $-1 $-1 $59 $-1 $27 #
shell $-1 $-1 $-1 $60 $-1 $29 #
shell $-1 $-1 $-1 $61 $-1 $31 #
shell $-1 $-1 $-1 $62 $-1 $33 #
shell $-1 $-1 $-1 $63 $-1 $35 #
shell $-1 $-1 $-1 $64 $-1 $37 #
face $-1 $65 $66 $39 $-1 $67 forward single #
face $-1 $68 $69 $40 $-1 $70 forward single #
face $-1 $71 $72 $41 $-1 $73 reversed single #
face $-1 $74 $75 $42 $-1 $76 forward single #
face $-1 $77 $78 $43 $-1 $79 forward single #
face $-1 $80 $81 $44 $-1 $82 forward single #
face $-1 $83 $84 $45 $-1 $85 reversed single #
face $-1 $86 $87 $46 $-1 $88 forward single #
face $-1 $89 $90 $47 $-1 $91 forward single #
face $-1 $92 $93 $48 $-1 $94 forward single #
face $-1 $95 $96 $49 $-1 $97 reversed single #
face $-1 $98 $99 $50 $-1 $100 forward single #
face $-1 $101 $102 $51 $-1 $103 forward single #
face $-1 $104 $105 $39 $-1 $106 reversed single #
loop $-1 $-1 $107 $52 #
plane-surface $-1 0 0 9.9290913773977891 0 0 1 1 0 0 forward_v I I I I #
face $-1 $108 $109 $40 $-1 $110 reversed single #
loop $-1 $-1 $111 $53 #
plane-surface $-1 0 -16.670005120154883 6.5773733879626413 0 0 1 1 0 0 forward_v I I I I #
face $-1 $112 $113 $41 $-1 $114 reversed single #
loop $-1 $-1 $115 $54 #
plane-surface $-1 -114.0192867882119 -5.3889542612531969 91.401050503955332 0 -1 0 0.55919291073839883 0 -0.82903756765294845 forward_v I I I I #
face $-1 $116 $117 $42 $-1 $118 forward single #
loop $-1 $119 $120 $55 #
cone-surface $-1 -47.783043392949082 -10.31767976632 5.6287126288052232 0.55919291073839883 0 -0.82903756765294845 0.41451878382647422 0 0.27959645536919941 1 I I 0 1 0.5 forward I I I I #
face $-1 $121 $122 $43 $-1 $123 forward single #
loop $-1 $124 $125 $56 #
cone-surface $-1 -47.783043392949082 -8.4694077019199483 5.6287126288052232 0.55919291073839883 0 -0.82903756765294845 0.41451878382647422 0 0.27959645536919941 1 I I 0 1 0.5 forward I I I I #
face $-1 $126 $127 $44 $-1 $128 forward single #
loop $-1 $129 $130 $57 #
cone-surface $-1 -47.783043392949082 -6.6211356375198971 5.6287126288052232 0.55919291073839883 0 -0.82903756765294845 0.41451878382647422 0 0.27959645536919941 1 I I 0 1 0.5 forward I I I I #
face $-1 $131 $132 $45 $-1 $133 reversed single #
loop $-1 $-1 $134 $58 #
plane-surface $-1 -53.823664052247686 18.709695657056315 2.1573714478656143 -0.55919291073839883 0 0.82903756765294845 0.82903756765294845 0 0.55919291073839883 forward_v I I I I #
face $-1 $135 $136 $46 $-1 $137 forward single #
loop $-1 $138 $139 $59 #
cone-surface $-1 -47.783043392949082 16.861423592656266 5.6287126288052232 0.55919291073839883 0 -0.82903756765294845 0.41451878382647422 0 0.27959645536919941 1 I I 0 1 0.5 forward I I I I #
face $-1 $140 $141 $47 $-1 $142 forward single #
loop $-1 $143 $144 $60 #
cone-surface $-1 -47.783043392949082 18.709695657056315 5.6287126288052232 0.55919291073839883 0 -0.82903756765294845 0.41451878382647422 0 0.27959645536919941 1 I I 0 1 0.5 forward I I I I #
face $-1 $145 $146 $48 $-1 $147 forward single #
loop $-1 $148 $149 $61 #
cone-surface $-1 -47.783043392949082 20.557967721456365 5.6287126288052232 0.55919291073839883 0 -0.82903756765294845 0.41451878382647422 0 0.27959645536919941 1 I I 0 1 0.5 forward I I I I #
face $-1 $150 $151 $49 $-1 $152 reversed single #
loop $-1 $-1 $153 $62 #
plane-surface $-1 48.510695092785134 8.5593882450037988 153.01396533610043 0 1 0 0.68199836817093118 0 0.7313536940579346 forward_v I I I I #
face $-1 $154 $155 $50 $-1 $156 forward single #
loop $-1 $157 $158 $63 #
cone-surface $-1 47.666005622935735 10.901099768672921 4.0050986889223195 -0.68199836817093118 0 -0.7313536940579346 0.7313536940579346 0 -0.68199836817093118 1 I I 0 1 1 forward I I I I #
face $-1 $159 $160 $51 $-1 $161 forward single #
loop $-1 $162 $163 $64 #
cone-surface $-1 47.666005622935735 14.413667054176592 4.0050986889223195 -0.68199836817093118 0 -0.7313536940579346 0.7313536940579346 0 -0.68199836817093118 1 I I 0 1 1 forward I I I I #
face $-1 $164 $165 $39 $-1 $166 reversed single #
loop $-1 $-1 $167 $65 #
plane-surface $-1 0 0 -9.9290913773977891 0 0 1 1 0 0 forward_v I I I I #
coedge $-1 $168 $169 $170 $171 forward $66 $-1 #
face $-1 $172 $173 $40 $-1 $174 reversed single #
loop $-1 $-1 $175 $68 #
plane-surface $-1 0 -16.670005120154883 0.92875763534347655 0 0 1 1 0 0 forward_v I I I I #
coedge $-1 $176 $177 $178 $179 reversed $69 $-1 #
face $-1 $180 $181 $41 $-1 $182 forward single #
loop $-1 $-1 $183 $71 #
plane-surface $-1 -53.823664052247686 -8.4694077019199483 2.1573714478656143 -0.55919291073839883 0 0.82903756765294845 0.82903756765294845 0 0.55919291073839883 forward_v I I I I #
coedge $-1 $184 $185 $186 $187 reversed $72 $-1 #
face $-1 $-1 $188 $42 $-1 $189 forward single #
loop $-1 $190 $191 $74 #
cone-surface $-1 -47.36364870989528 -10.31767976632 5.0069344530655115 0.55919291073839883 0 -0.82903756765294845 0.20725939191323711 0 0.13979822768459971 1 I I -0.70710678118654746 0.70710678118654746 0.25 forward I I I I #
loop $-1 $-1 $192 $55 #
coedge $-1 $120 $120 $193 $194 reversed $75 $-1 #
face $-1 $-1 $195 $43 $-1 $196 forward single #
loop $-1 $197 $198 $77 #
cone-surface $-1 -47.36364870989528 -8.4694077019199483 5.0069344530655115 0.55919291073839883 0 -0.82903756765294845 0.20725939191323711 0 0.13979822768459971 1 I I -0.70710678118654746 0.70710678118654746 0.25 forward I I I I #
loop $-1 $-1 $199 $56 #
coedge $-1 $125 $125 $200 $201 reversed $78 $-1 #
face $-1 $-1 $202 $44 $-1 $203 forward single #
loop $-1 $204 $205 $80 #
cone-surface $-1 -47.36364870989528 -6.6211356375198971 5.0069344530655115 0.55919291073839883 0 -0.82903756765294845 0.20725939191323711 0 0.13979822768459971 1 I I -0.70710678118654746 0.70710678118654746 0.25 forward I I I I #
loop $-1 $-1 $206 $57 #
coedge $-1 $130 $130 $207 $208 reversed $81 $-1 #
face $-1 $209 $210 $45 $-1 $211 reversed single #
loop $-1 $-1 $212 $83 #
plane-surface $-1 -114.0192867882119 15.629242216389564 91.401050503955332 0 1 0 -0.55919291073839883 0 0.82903756765294845 forward_v I I I I #
coedge $-1 $213 $214 $215 $216 reversed $84 $-1 #
face $-1 $-1 $217 $46 $-1 $218 forward single #
loop $-1 $219 $220 $86 #
cone-surface $-1 -47.36364870989528 16.861423592656266 5.0069344530655115 0.55919291073839883 0 -0.82903756765294845 0.20725939191323711 0 0.13979822768459971 1 I I -0.70710678118654746 0.70710678118654746 0.25 forward I I I I #
loop $-1 $-1 $221 $59 #
coedge $-1 $139 $139 $222 $223 reversed $87 $-1 #
face $-1 $-1 $224 $47 $-1 $225 forward single #
loop $-1 $226 $227 $89 #
cone-surface $-1 -47.36364870989528 18.709695657056315 5.0069344530655115 0.55919291073839883 0 -0.82903756765294845 0.20725939191323711 0 0.13979822768459971 1 I I -0.70710678118654746 0.70710678118654746 0.25 forward I I I I #
loop $-1 $-1 $228 $60 #
coedge $-1 $144 $144 $229 $230 reversed $90 $-1 #
face $-1 $-1 $231 $48 $-1 $232 forward single #
loop $-1 $233 $234 $92 #
cone-surface $-1 -47.36364870989528 20.557967721456365 5.0069344530655115 0.55919291073839883 0 -0.82903756765294845 0.20725939191323711 0 0.13979822768459971 1 I I -0.70710678118654746 0.70710678118654746 0.25 forward I I I I #
loop $-1 $-1 $235 $61 #
coedge $-1 $149 $149 $236 $237 reversed $93 $-1 #
face $-1 $238 $239 $49 $-1 $240 reversed single #
loop $-1 $-1 $241 $95 #
plane-surface $-1 -24.904607012441524 12.657383411424753 74.285694271411217 0.68199836817093118 0 0.7313536940579346 0.7313536940579346 0 -0.68199836817093118 forward_v I I I I #
coedge $-1 $242 $243 $244 $245 reversed $96 $-1 #
face $-1 $-1 $246 $50 $-1 $247 forward single #
loop $-1 $248 $249 $98 #
cone-surface $-1 46.024480695389578 10.901099768672921 2.2447787590245198 -0.68199836817093118 0 -0.7313536940579346 0.3656768470289673 0 -0.34099918408546559 1 I I -0.70710678118654746 0.70710678118654746 0.5 forward I I I I #
loop $-1 $-1 $250 $63 #
coedge $-1 $158 $158 $251 $252 reversed $99 $-1 #
face $-1 $-1 $253 $51 $-1 $254 forward single #
loop $-1 $255 $256 $101 #
cone-surface $-1 46.024480695389578 14.413667054176592 2.2447787590245198 -0.68199836817093118 0 -0.7313536940579346 0.3656768470289673 0 -0.34099918408546559 1 I I -0.70710678118654746 0.70710678118654746 0.5 forward I I I I #
loop $-1 $-1 $257 $64 #
coedge $-1 $163 $163 $258 $259 reversed $102 $-1 #
face $-1 $260 $261 $39 $-1 $262 reversed single #
loop $-1 $-1 $263 $104 #
plane-surface $-1 0 -21.790149097723067 0 0 1 0 0 0 1 forward_v I I I I #
coedge $-1 $264 $265 $266 $267 forward $105 $-1 #
coedge $-1 $268 $107 $269 $270 forward $66 $-1 #
coedge $-1 $107 $268 $271 $272 forward $66 $-1 #
coedge $-1 $273 $274 $107 $171 reversed $275 $-1 #
edge $-1 $276 -21.790149097723067 $277 21.790149097723067 $170 $278 forward 7 unknown #
face $-1 $279 $280 $40 $-1 $281 reversed single #
loop $-1 $-1 $282 $108 #
plane-surface $-1 0 -11.5498611425867 3.7530655116530589 0 -1 0 0 0 -1 forward_v I I I I #
coedge $-1 $283 $284 $285 $286 reversed $109 $-1 #
coedge $-1 $287 $111 $282 $288 forward $69 $-1 #
coedge $-1 $111 $287 $289 $290 reversed $69 $-1 #
coedge $-1 $291 $292 $111 $179 forward $293 $-1 #
edge $-1 $294 3.2148585825092582 $295 13.455146537645625 $178 $296 forward 7 unknown #
face $-1 $297 $298 $41 $-1 $299 forward single #
loop $-1 $-1 $300 $112 #
plane-surface $-1 0 -11.5498611425867 3.7530655116530589 0 -1 0 0 0 -1 forward_v I I I I #
coedge $-1 $301 $302 $303 $304 reversed $113 $-1 #
coedge $-1 $185 $115 $305 $306 reversed $72 $-1 #
coedge $-1 $115 $184 $301 $307 reversed $72 $-1 #
coedge $-1 $303 $308 $115 $187 forward $309 $-1 #
edge $-1 $310 35.771433874579877 $311 43.543153804112052 $186 $312 forward 7 unknown #
loop $-1 $-1 $193 $116 #
plane-surface $-1 -53.823664052247686 -8.4694077019199483 2.1573714478656143 -0.55919291073839883 0 0.82903756765294845 0.82903756765294845 0 0.55919291073839883 forward_v I I I I #
loop $-1 $-1 $313 $74 #
coedge $-1 $191 $191 $192 $314 reversed $117 $-1 #
coedge $-1 $192 $192 $191 $314 forward $119 $-1 #
coedge $-1 $193 $193 $120 $194 forward $188 $-1 #
edge $-1 $315 0 $315 6.2831853071796004 $193 $316 forward 7 unknown #
loop $-1 $-1 $200 $121 #
plane-surface $-1 -53.823664052247686 -8.4694077019199483 2.1573714478656143 -0.55919291073839883 0 0.82903756765294845 0.82903756765294845 0 0.55919291073839883 forward_v I I I I #
loop $-1 $-1 $317 $77 #
coedge $-1 $198 $198 $199 $318 reversed $122 $-1 #
coedge $-1 $199 $199 $198 $318 forward $124 $-1 #
coedge $-1 $200 $200 $125 $201 forward $195 $-1 #
edge $-1 $319 0 $319 6.2831853071796004 $200 $320 forward 7 unknown #
loop $-1 $-1 $207 $126 #
plane-surface $-1 -53.823664052247686 -8.4694077019199483 2.1573714478656143 -0.55919291073839883 0 0.82903756765294845 0.82903756765294845 0 0.55919291073839883 forward_v I I I I #
loop $-1 $-1 $321 $80 #
coedge $-1 $205 $205 $206 $322 reversed $127 $-1 #
coedge $-1 $206 $206 $205 $322 forward $129 $-1 #
coedge $-1 $207 $207 $130 $208 forward $202 $-1 #
edge $-1 $323 0 $323 6.2831853071796004 $207 $324 forward 7 unknown #
face $-1 $325 $326 $45 $-1 $327 forward single #
loop $-1 $-1 $215 $131 #
plane-surface $-1 -53.823664052247686 0 0 1 0 0 0 0 -1 forward_v I I I I #
coedge $-1 $328 $329 $330 $331 reversed $132 $-1 #
coedge $-1 $332 $134 $333 $334 reversed $84 $-1 #
coedge $-1 $134 $332 $328 $335 forward $84 $-1 #
coedge $-1 $330 $336 $134 $216 forward $210 $-1 #
edge $-1 $337 -12.435301269194909 $338 -6.2743943878614061 $215 $339 forward 7 unknown #
loop $-1 $-1 $222 $135 #
plane-surface $-1 -53.823664052247686 18.709695657056315 2.1573714478656143 -0.55919291073839883 0 0.82903756765294845 0.82903756765294845 0 0.55919291073839883 forward_v I I I I #
loop $-1 $-1 $340 $86 #
coedge $-1 $220 $220 $221 $341 reversed $136 $-1 #
coedge $-1 $221 $221 $220 $341 forward $138 $-1 #
coedge $-1 $222 $222 $139 $223 forward $217 $-1 #
edge $-1 $342 0 $342 6.2831853071796004 $222 $343 forward 7 unknown #
loop $-1 $-1 $229 $140 #
plane-surface $-1 -53.823664052247686 18.709695657056315 2.1573714478656143 -0.55919291073839883 0 0.82903756765294845 0.82903756765294845 0 0.55919291073839883 forward_v I I I I #
loop $-1 $-1 $344 $89 #
coedge $-1 $227 $227 $228 $345 reversed $141 $-1 #
coedge $-1 $228 $228 $227 $345 forward $143 $-1 #
coedge $-1 $229 $229 $144 $230 forward $224 $-1 #
edge $-1 $346 0 $346 6.2831853071796004 $229 $347 forward 7 unknown #
loop $-1 $-1 $236 $145 #
plane-surface $-1 -53.823664052247686 18.709695657056315 2.1573714478656143 -0.55919291073839883 0 0.82903756765294845 0.82903756765294845 0 0.55919291073839883 forward_v I I I I #
loop $-1 $-1 $348 $92 #
coedge $-1 $234 $234 $235 $349 reversed $146 $-1 #
coedge $-1 $235 $235 $234 $349 forward $148 $-1 #
coedge $-1 $236 $236 $149 $237 forward $231 $-1 #
edge $-1 $350 0 $350 6.2831853071796004 $236 $351 forward 7 unknown #
face $-1 $352 $353 $49 $-1 $354 forward single #
loop $-1 $-1 $355 $150 #
plane-surface $-1 48.510695092785134 16.755378577845708 153.01396533610043 0 -1 0 -0.68199836817093118 0 -0.7313536940579346 forward_v I I I I #
coedge $-1 $356 $357 $358 $359 reversed $151 $-1 #
coedge $-1 $243 $153 $360 $361 reversed $96 $-1 #
coedge $-1 $153 $242 $356 $362 reversed $96 $-1 #
coedge $-1 $358 $363 $153 $245 forward $364 $-1 #
edge $-1 $365 66.577891290652417 $366 75.636590501865655 $244 $367 forward 7 unknown #
loop $-1 $-1 $251 $154 #
plane-surface $-1 -24.904607012441524 12.657383411424753 74.285694271411217 0.68199836817093118 0 0.7313536940579346 0.7313536940579346 0 -0.68199836817093118 forward_v I I I I #
loop $-1 $-1 $368 $98 #
coedge $-1 $249 $249 $250 $369 reversed $155 $-1 #
coedge $-1 $250 $250 $249 $369 forward $157 $-1 #
coedge $-1 $251 $251 $158 $252 forward $246 $-1 #
edge $-1 $370 0 $370 6.2831853071796004 $251 $371 forward 7 unknown #
loop $-1 $-1 $258 $159 #
plane-surface $-1 -24.904607012441524 12.657383411424753 74.285694271411217 0.68199836817093118 0 0.7313536940579346 0.7313536940579346 0 -0.68199836817093118 forward_v I I I I #
loop $-1 $-1 $372 $101 #
coedge $-1 $256 $256 $257 $373 reversed $160 $-1 #
coedge $-1 $257 $257 $256 $373 forward $162 $-1 #
coedge $-1 $258 $258 $163 $259 forward $253 $-1 #
edge $-1 $374 0 $374 6.2831853071796004 $258 $375 forward 7 unknown #
face $-1 $376 $377 $39 $-1 $378 reversed single #
loop $-1 $-1 $379 $164 #
plane-surface $-1 -53.823664052247686 0 0 1 0 0 0 0 -1 forward_v I I I I #
coedge $-1 $380 $271 $381 $382 forward $165 $-1 #
coedge $-1 $383 $167 $380 $384 forward $105 $-1 #
coedge $-1 $167 $383 $385 $386 forward $105 $-1 #
coedge $-1 $274 $273 $167 $267 reversed $275 $-1 #
edge $-1 $387 -21.790149097723067 $388 21.790149097723067 $266 $389 forward 7 unknown #
coedge $-1 $169 $168 $390 $391 forward $66 $-1 #
coedge $-1 $392 $393 $168 $270 reversed $377 $-1 #
edge $-1 $277 -53.823664052247686 $394 53.823664052247686 $269 $395 forward 7 unknown #
coedge $-1 $263 $396 $169 $272 reversed $165 $-1 #
edge $-1 $397 -53.823664052247686 $276 53.823664052247686 $271 $398 forward 7 unknown #
coedge $-1 $266 $170 $396 $399 forward $275 $-1 #
coedge $-1 $170 $266 $392 $400 reversed $275 $-1 #
loop $-1 $-1 $273 $376 #
vertex $-1 $171 $401 #
vertex $-1 $171 $402 #
straight-curve $-1 53.823664052247686 0 9.9290913773977891 0 1 0 I I #
face $-1 $403 $404 $40 $-1 $405 reversed single #
loop $-1 $-1 $406 $172 #
plane-surface $-1 -53.823664052247686 0 0 1 0 0 0 0 -1 forward_v I I I I #
coedge $-1 $407 $408 $176 $288 reversed $173 $-1 #
coedge $-1 $409 $175 $410 $411 reversed $109 $-1 #
coedge $-1 $175 $409 $412 $413 forward $109 $-1 #
coedge $-1 $292 $291 $175 $286 forward $293 $-1 #
edge $-1 $414 -13.455146537645625 $415 -3.2148585825092582 $285 $416 forward 7 unknown #
coedge $-1 $177 $176 $406 $417 reversed $69 $-1 #
edge $-1 $294 -53.823664052247686 $418 53.823664052247686 $282 $419 forward 7 unknown #
coedge $-1 $420 $421 $177 $290 forward $404 $-1 #
edge $-1 $295 -53.823664052247686 $422 53.823664052247686 $289 $423 forward 7 unknown #
coedge $-1 $285 $178 $421 $424 forward $293 $-1 #
coedge $-1 $178 $285 $407 $425 forward $293 $-1 #
loop $-1 $-1 $178 $403 #
vertex $-1 $179 $426 #
vertex $-1 $424 $427 #
straight-curve $-1 53.823664052247686 -8.3350025600774416 6.5773733879626413 0 -1 0 I I #
face $-1 $-1 $309 $41 $-1 $428 reversed single #
loop $-1 $-1 $305 $180 #
plane-surface $-1 0 0 9.9290913773977891 0 0 1 1 0 0 forward_v I I I I #
coedge $-1 $429 $430 $302 $431 reversed $181 $-1 #
coedge $-1 $432 $183 $185 $307 forward $113 $-1 #
coedge $-1 $183 $432 $300 $431 forward $113 $-1 #
coedge $-1 $433 $186 $183 $304 forward $309 $-1 #
edge $-1 $311 1.1542504102932227 $434 7.3151572916267256 $303 $435 forward 7 unknown #
coedge $-1 $436 $437 $184 $306 forward $298 $-1 #
edge $-1 $438 -14.708027749717068 $310 -3.185979341858264 $305 $439 forward 7 unknown #
edge $-1 $311 0 $438 13.898101675269512 $185 $440 forward 7 unknown #
coedge $-1 $186 $433 $436 $441 reversed $309 $-1 #
loop $-1 $-1 $303 $297 #
vertex $-1 $441 $442 #
vertex $-1 $187 $443 #
straight-curve $-1 -53.823664052247686 -5.3889542612531969 45.700525251977666 0 0 -1 I I #
coedge $-1 $313 $313 $-1 $444 reversed $190 $-1 #
edge $-1 $445 0 $445 6.2831853071796004 $191 $446 forward 7 unknown #
vertex $-1 $194 $447 #
ellipse-curve $-1 -48.062639848318284 -10.31767976632 6.0432314126317017 -0.55919291073839883 0 0.82903756765294845 0.41451878382647422 0 0.27959645536919941 1 I I #
coedge $-1 $317 $317 $-1 $448 reversed $197 $-1 #
edge $-1 $449 0 $449 6.2831853071796004 $198 $450 forward 7 unknown #
vertex $-1 $201 $451 #
ellipse-curve $-1 -48.062639848318284 -8.4694077019199483 6.0432314126317017 -0.55919291073839883 0 0.82903756765294845 0.41451878382647422 0 0.27959645536919941 1 I I #
coedge $-1 $321 $321 $-1 $452 reversed $204 $-1 #
edge $-1 $453 0 $453 6.2831853071796004 $205 $454 forward 7 unknown #
vertex $-1 $208 $455 #
ellipse-curve $-1 -48.062639848318284 -6.6211356375198971 6.0432314126317017 -0.55919291073839883 0 0.82903756765294845 0.41451878382647422 0 0.27959645536919941 1 I I #
face $-1 $-1 $456 $45 $-1 $457 reversed single #
loop $-1 $-1 $458 $209 #
plane-surface $-1 0 0 9.9290913773977891 0 0 1 1 0 0 forward_v I I I I #
coedge $-1 $329 $212 $214 $335 reversed $132 $-1 #
coedge $-1 $212 $328 $459 $460 reversed $132 $-1 #
coedge $-1 $461 $215 $212 $331 forward $210 $-1 #
edge $-1 $338 -43.543153804112052 $462 -35.771433874579877 $330 $463 forward 7 unknown #
coedge $-1 $214 $213 $458 $464 reversed $84 $-1 #
coedge $-1 $465 $466 $213 $334 forward $456 $-1 #
edge $-1 $467 7.809624679014977 $337 21.707726354284489 $333 $468 forward 7 unknown #
edge $-1 $469 -13.898101675269512 $338 0 $328 $470 forward 7 unknown #
coedge $-1 $215 $461 $465 $471 forward $210 $-1 #
vertex $-1 $334 $472 #
vertex $-1 $216 $473 #
straight-curve $-1 -53.823664052247686 9.3548478285281575 2.1573714478656134 0 -1 0 I I #
coedge $-1 $340 $340 $-1 $474 reversed $219 $-1 #
edge $-1 $475 0 $475 6.2831853071796004 $220 $476 forward 7 unknown #
vertex $-1 $223 $477 #
ellipse-curve $-1 -48.062639848318284 16.861423592656266 6.0432314126317017 -0.55919291073839883 0 0.82903756765294845 0.41451878382647422 0 0.27959645536919941 1 I I #
coedge $-1 $344 $344 $-1 $478 reversed $226 $-1 #
edge $-1 $479 0 $479 6.2831853071796004 $227 $480 forward 7 unknown #
vertex $-1 $230 $481 #
ellipse-curve $-1 -48.062639848318284 18.709695657056315 6.0432314126317017 -0.55919291073839883 0 0.82903756765294845 0.41451878382647422 0 0.27959645536919941 1 I I #
coedge $-1 $348 $348 $-1 $482 reversed $233 $-1 #
edge $-1 $483 0 $483 6.2831853071796004 $234 $484 forward 7 unknown #
vertex $-1 $237 $485 #
ellipse-curve $-1 -48.062639848318284 20.557967721456365 6.0432314126317017 -0.55919291073839883 0 0.82903756765294845 0.41451878382647422 0 0.27959645536919941 1 I I #
face $-1 $-1 $364 $49 $-1 $486 reversed single #
loop $-1 $-1 $487 $238 #
plane-surface $-1 0 0 9.9290913773977891 0 0 1 1 0 0 forward_v I I I I #
coedge $-1 $488 $489 $490 $491 reversed $239 $-1 #
coedge $-1 $492 $241 $243 $362 forward $151 $-1 #
coedge $-1 $241 $492 $488 $493 forward $151 $-1 #
coedge $-1 $490 $244 $241 $359 forward $364 $-1 #
edge $-1 $366 2.2306965392914222 $494 10.426686872133331 $358 $495 forward 7 unknown #
coedge $-1 $496 $497 $242 $361 forward $353 $-1 #
edge $-1 $498 19.854051134152609 $365 29.568316505855119 $360 $499 forward 7 unknown #
edge $-1 $366 -107.64732810449536 $498 -94.364746160042941 $243 $500 forward 7 unknown #
coedge $-1 $244 $490 $496 $501 reversed $364 $-1 #
loop $-1 $-1 $490 $352 #
vertex $-1 $501 $502 #
vertex $-1 $245 $503 #
straight-curve $-1 53.823664052247686 8.5593882450037988 76.506982668050213 0 0 -1 I I #
coedge $-1 $368 $368 $-1 $504 reversed $248 $-1 #
edge $-1 $505 0 $505 6.2831853071796004 $249 $506 forward 7 unknown #
vertex $-1 $252 $507 #
ellipse-curve $-1 48.966531366396438 10.901099768672921 5.399741771791164 0.68199836817093118 0 0.7313536940579346 0.7313536940579346 0 -0.68199836817093118 1 I I #
coedge $-1 $372 $372 $-1 $508 reversed $255 $-1 #
edge $-1 $509 0 $509 6.2831853071796004 $256 $510 forward 7 unknown #
vertex $-1 $259 $511 #
ellipse-curve $-1 48.966531366396438 14.413667054176592 5.399741771791164 0.68199836817093118 0 0.7313536940579346 0.7313536940579346 0 -0.68199836817093118 1 I I #
face $-1 $-1 $275 $39 $-1 $512 reversed single #
loop $-1 $-1 $392 $260 #
plane-surface $-1 0 21.790149097723067 0 0 -1 0 0 0 -1 forward_v I I I I #
coedge $-1 $513 $390 $393 $514 forward $261 $-1 #
coedge $-1 $396 $263 $264 $384 reversed $165 $-1 #
coedge $-1 $390 $513 $263 $382 reversed $261 $-1 #
edge $-1 $397 -9.9290913773977891 $515 9.9290913773977891 $381 $516 forward 7 unknown #
coedge $-1 $265 $264 $513 $517 forward $105 $-1 #
edge $-1 $388 -53.823664052247686 $515 53.823664052247686 $380 $518 forward 7 unknown #
coedge $-1 $393 $392 $265 $386 reversed $377 $-1 #
edge $-1 $519 -53.823664052247686 $387 53.823664052247686 $385 $520 forward 7 unknown #
vertex $-1 $267 $521 #
vertex $-1 $399 $522 #
straight-curve $-1 53.823664052247686 0 -9.9290913773977891 0 -1 0 I I #
coedge $-1 $379 $381 $268 $391 reversed $261 $-1 #
edge $-1 $394 -21.790149097723067 $397 21.790149097723067 $390 $523 forward 7 unknown #
coedge $-1 $385 $269 $274 $400 forward $377 $-1 #
coedge $-1 $269 $385 $379 $514 reversed $377 $-1 #
vertex $-1 $270 $524 #
straight-curve $-1 0 21.790149097723067 9.9290913773977891 -1 0 0 I I #
coedge $-1 $271 $380 $273 $399 reversed $165 $-1 #
vertex $-1 $391 $525 #
straight-curve $-1 0 -21.790149097723067 9.9290913773977891 1 0 0 I I #
edge $-1 $276 -9.9290913773977891 $388 9.9290913773977891 $273 $526 forward 7 unknown #
edge $-1 $277 -9.9290913773977891 $387 9.9290913773977891 $274 $527 forward 7 unknown #
point $-1 53.823664052247686 -21.790149097723067 9.9290913773977891 #
point $-1 53.823664052247686 21.790149097723067 9.9290913773977891 #
face $-1 $-1 $293 $40 $-1 $528 reversed single #
loop $-1 $-1 $289 $279 #
plane-surface $-1 0 -21.790149097723067 0 0 1 0 0 0 1 forward_v I I I I #
coedge $-1 $529 $530 $287 $417 forward $280 $-1 #
coedge $-1 $412 $282 $292 $425 reversed $173 $-1 #
coedge $-1 $282 $412 $529 $531 reversed $173 $-1 #
coedge $-1 $284 $283 $532 $533 reversed $109 $-1 #
coedge $-1 $421 $420 $283 $411 forward $404 $-1 #
edge $-1 $534 -53.823664052247686 $414 53.823664052247686 $410 $535 forward 7 unknown #
coedge $-1 $408 $407 $284 $413 reversed $173 $-1 #
edge $-1 $536 -53.823664052247686 $415 53.823664052247686 $412 $537 forward 7 unknown #
vertex $-1 $411 $538 #
vertex $-1 $286 $539 #
straight-curve $-1 53.823664052247686 -8.3350025600774416 0.92875763534347655 0 1 0 I I #
edge $-1 $422 -13.455146537645625 $418 -3.2148585825092582 $406 $540 forward 7 unknown #
vertex $-1 $417 $541 #
straight-curve $-1 0 -11.5498611425867 6.5773733879626413 -1 0 0 I I #
coedge $-1 $410 $289 $530 $542 forward $404 $-1 #
coedge $-1 $289 $410 $291 $424 reversed $404 $-1 #
vertex $-1 $542 $543 #
straight-curve $-1 0 -21.790149097723067 6.5773733879626413 -1 0 0 I I #
edge $-1 $295 -6.5773733879626413 $414 -0.92875763534347655 $291 $544 forward 7 unknown #
edge $-1 $415 -0.9477751204830529 $294 4.7008406321361118 $292 $545 forward 7 unknown #
point $-1 53.823664052247686 -11.5498611425867 6.5773733879626413 #
point $-1 53.823664052247686 -21.790149097723067 6.5773733879626413 #
plane-surface $-1 -53.823664052247686 0 0 1 0 0 0 0 -1 forward_v I I I I #
coedge $-1 $430 $300 $546 $547 reversed $181 $-1 #
coedge $-1 $300 $429 $433 $548 reversed $181 $-1 #
edge $-1 $549 -13.898101675269512 $434 0 $300 $550 forward 7 unknown #
coedge $-1 $302 $301 $437 $551 reversed $113 $-1 #
coedge $-1 $308 $303 $430 $548 forward $309 $-1 #
vertex $-1 $548 $552 #
straight-curve $-1 -53.823664052247686 -4.2347038509599741 2.1573714478656134 0 -1 0 I I #
coedge $-1 $546 $305 $308 $441 forward $298 $-1 #
coedge $-1 $305 $546 $432 $551 forward $298 $-1 #
vertex $-1 $306 $553 #
straight-curve $-1 -57.00964339410595 -5.3889542612531969 9.9290913773977891 -1 0 0 I I #
straight-curve $-1 -53.823664052247686 -5.3889542612531969 2.1573714478656143 0.82903756765294845 0 0.55919291073839883 I I #
edge $-1 $310 5.3889542612531969 $554 11.5498611425867 $308 $555 forward 7 unknown #
point $-1 -53.823664052247686 -5.3889542612531969 9.9290913773977891 #
point $-1 -53.823664052247686 -5.3889542612531969 2.1573714478656143 #
edge $-1 $556 1 $556 0 $313 $-1 forward 7 unknown #
vertex $-1 $314 $557 #
ellipse-curve $-1 -47.503446937579881 -10.31767976632 5.214193844978749 -0.55919291073839883 0 0.82903756765294845 0.41451878382647422 0 0.27959645536919941 1 I I #
point $-1 -47.648121064491804 -10.31767976632 6.3228278680008962 #
edge $-1 $558 1 $558 0 $317 $-1 forward 7 unknown #
vertex $-1 $318 $559 #
ellipse-curve $-1 -47.503446937579881 -8.4694077019199483 5.214193844978749 -0.55919291073839883 0 0.82903756765294845 0.41451878382647422 0 0.27959645536919941 1 I I #
point $-1 -47.648121064491804 -8.4694077019199483 6.3228278680008962 #
edge $-1 $560 1 $560 0 $321 $-1 forward 7 unknown #
vertex $-1 $322 $561 #
ellipse-curve $-1 -47.503446937579881 -6.6211356375198971 5.214193844978749 -0.55919291073839883 0 0.82903756765294845 0.41451878382647422 0 0.27959645536919941 1 I I #
point $-1 -47.648121064491804 -6.6211356375198971 6.3228278680008962 #
loop $-1 $-1 $333 $325 #
plane-surface $-1 0 21.790149097723067 0 0 -1 0 0 0 -1 forward_v I I I I #
coedge $-1 $562 $459 $332 $464 forward $326 $-1 #
coedge $-1 $458 $563 $329 $460 forward $326 $-1 #
edge $-1 $462 3.185979341858264 $469 14.708027749717068 $459 $564 forward 7 unknown #
coedge $-1 $336 $330 $563 $565 reversed $210 $-1 #
vertex $-1 $460 $566 #
straight-curve $-1 -53.823664052247686 15.629242216389564 45.700525251977666 0 0 1 I I #
edge $-1 $469 6.2743943878614061 $467 12.435301269194909 $458 $567 forward 7 unknown #
coedge $-1 $466 $333 $336 $471 reversed $456 $-1 #
coedge $-1 $333 $465 $562 $568 reversed $456 $-1 #
vertex $-1 $568 $569 #
straight-curve $-1 -35.827143396215867 21.790149097723067 14.296178133430608 -0.82903756765294845 0 -0.55919291073839883 I I #
vertex $-1 $464 $570 #
straight-curve $-1 -53.823664052247686 15.629242216389564 2.1573714478656143 -0.82903756765294845 0 -0.55919291073839883 I I #
edge $-1 $571 -9.9290913773977891 $337 -2.1573714478656143 $465 $572 forward 7 unknown #
point $-1 -53.823664052247686 21.790149097723067 2.1573714478656143 #
point $-1 -53.823664052247686 15.629242216389564 2.1573714478656143 #
edge $-1 $573 1 $573 0 $340 $-1 forward 7 unknown #
vertex $-1 $341 $574 #
ellipse-curve $-1 -47.503446937579881 16.861423592656266 5.214193844978749 -0.55919291073839883 0 0.82903756765294845 0.41451878382647422 0 0.27959645536919941 1 I I #
point $-1 -47.648121064491804 16.861423592656266 6.3228278680008962 #
edge $-1 $575 1 $575 0 $344 $-1 forward 7 unknown #
vertex $-1 $345 $576 #
ellipse-curve $-1 -47.503446937579881 18.709695657056315 5.214193844978749 -0.55919291073839883 0 0.82903756765294845 0.41451878382647422 0 0.27959645536919941 1 I I #
point $-1 -47.648121064491804 18.709695657056315 6.3228278680008962 #
edge $-1 $577 1 $577 0 $348 $-1 forward 7 unknown #
vertex $-1 $349 $578 #
ellipse-curve $-1 -47.503446937579881 20.557967721456365 5.214193844978749 -0.55919291073839883 0 0.82903756765294845 0.41451878382647422 0 0.27959645536919941 1 I I #
point $-1 -47.648121064491804 20.557967721456365 6.3228278680008962 #
plane-surface $-1 53.823664052247686 0 0 -1 0 0 0 0 1 forward_v I I I I #
coedge $-1 $497 $496 $489 $579 forward $353 $-1 #
coedge $-1 $489 $355 $357 $493 reversed $239 $-1 #
coedge $-1 $355 $488 $487 $579 reversed $239 $-1 #
coedge $-1 $363 $358 $355 $491 forward $364 $-1 #
edge $-1 $494 -75.636590501865655 $580 -66.577891290652417 $490 $581 forward 7 unknown #
coedge $-1 $357 $356 $497 $582 reversed $151 $-1 #
edge $-1 $583 94.364746160042941 $494 107.64732810449536 $488 $584 forward 7 unknown #
vertex $-1 $359 $585 #
straight-curve $-1 53.823664052247686 6.3286917057123766 0.8703921661845726 0 1 0 I I #
coedge $-1 $487 $360 $363 $501 forward $353 $-1 #
coedge $-1 $360 $487 $492 $582 forward $353 $-1 #
vertex $-1 $361 $586 #
straight-curve $-1 24.255347546392567 8.5593882450037988 9.929091377397782 1 0 0 I I #
straight-curve $-1 -24.904607012441524 8.5593882450037988 74.285694271411217 -0.7313536940579346 0 0.68199836817093118 I I #
edge $-1 $365 8.5593882450037988 $580 16.755378577845708 $363 $587 forward 7 unknown #
point $-1 53.823664052247686 8.5593882450037988 9.9290913773977891 #
point $-1 53.823664052247686 8.5593882450037988 0.87039216618455839 #
edge $-1 $588 1 $588 0 $368 $-1 forward 7 unknown #
vertex $-1 $369 $589 #
ellipse-curve $-1 46.365479879475046 10.901099768672921 2.6104556060534874 0.68199836817093118 0 0.7313536940579346 0.7313536940579346 0 -0.68199836817093118 1 I I #
point $-1 49.697885060454368 10.901099768672921 4.7177434036202204 #
edge $-1 $590 1 $590 0 $372 $-1 forward 7 unknown #
vertex $-1 $373 $591 #
ellipse-curve $-1 46.365479879475046 14.413667054176592 2.6104556060534874 0.68199836817093118 0 0.7313536940579346 0.7313536940579346 0 -0.68199836817093118 1 I I #
point $-1 49.697885060454368 14.413667054176592 4.7177434036202204 #
plane-surface $-1 53.823664052247686 0 0 -1 0 0 0 0 1 forward_v I I I I #
coedge $-1 $381 $379 $383 $517 reversed $261 $-1 #
edge $-1 $394 -9.9290913773977891 $519 9.9290913773977891 $393 $592 forward 7 unknown #
vertex $-1 $517 $593 #
straight-curve $-1 -53.823664052247686 -21.790149097723067 0 0 0 -1 I I #
edge $-1 $515 -21.790149097723067 $519 21.790149097723067 $513 $594 forward 7 unknown #
straight-curve $-1 0 -21.790149097723067 -9.9290913773977891 -1 0 0 I I #
vertex $-1 $386 $595 #
straight-curve $-1 0 21.790149097723067 -9.9290913773977891 1 0 0 I I #
point $-1 53.823664052247686 21.790149097723067 -9.9290913773977891 #
point $-1 53.823664052247686 -21.790149097723067 -9.9290913773977891 #
straight-curve $-1 -53.823664052247686 0 9.9290913773977891 0 -1 0 I I #
point $-1 -53.823664052247686 21.790149097723067 9.9290913773977891 #
point $-1 -53.823664052247686 -21.790149097723067 9.9290913773977891 #
straight-curve $-1 53.823664052247686 -21.790149097723067 0 0 0 -1 I I #
straight-curve $-1 53.823664052247686 21.790149097723067 0 0 0 -1 I I #
plane-surface $-1 53.823664052247686 0 0 -1 0 0 0 0 1 forward_v I I I I #
coedge $-1 $532 $406 $408 $531 forward $280 $-1 #
coedge $-1 $406 $532 $420 $542 reversed $280 $-1 #
edge $-1 $418 -4.7008406321361118 $536 0.9477751204830529 $529 $596 forward 7 unknown #
coedge $-1 $530 $529 $409 $533 forward $280 $-1 #
edge $-1 $536 3.2148585825092582 $534 13.455146537645625 $532 $597 forward 7 unknown #
vertex $-1 $411 $598 #
straight-curve $-1 0 -21.790149097723067 0.92875763534347655 1 0 0 I I #
vertex $-1 $533 $599 #
straight-curve $-1 0 -11.5498611425867 0.92875763534347655 1 0 0 I I #
point $-1 53.823664052247686 -21.790149097723067 0.92875763534347655 #
point $-1 53.823664052247686 -11.5498611425867 0.92875763534347655 #
straight-curve $-1 -53.823664052247686 -8.3350025600774416 6.5773733879626413 0 1 0 I I #
point $-1 -53.823664052247686 -11.5498611425867 6.5773733879626413 #
edge $-1 $422 -6.5773733879626413 $534 -0.92875763534347655 $530 $600 forward 7 unknown #
point $-1 -53.823664052247686 -21.790149097723067 6.5773733879626413 #
straight-curve $-1 53.823664052247686 -21.790149097723067 0 0 0 -1 I I #
straight-curve $-1 53.823664052247686 -11.5498611425867 1.8765327558265295 0 0 1 I I #
coedge $-1 $437 $436 $429 $547 forward $298 $-1 #
edge $-1 $554 3.185979341858264 $549 14.708027749717068 $546 $601 forward 7 unknown #
edge $-1 $434 -43.543153804112052 $554 -35.771433874579877 $433 $602 forward 7 unknown #
vertex $-1 $551 $603 #
straight-curve $-1 -53.823664052247686 -11.5498611425867 2.1573714478656143 -0.82903756765294845 0 -0.55919291073839883 I I #
edge $-1 $549 -7.3151572916267256 $438 -1.1542504102932227 $437 $604 forward 7 unknown #
point $-1 -53.823664052247686 -11.5498611425867 2.1573714478656143 #
point $-1 -42.301615644388882 -5.3889542612531969 9.9290913773977891 #
vertex $-1 $548 $605 #
straight-curve $-1 -53.823664052247686 0 9.9290913773977891 0 -1 0 I I #
vertex $-1 $444 $606 #
point $-1 -47.088928153753407 -10.31767976632 5.493790300347948 #
vertex $-1 $448 $607 #
point $-1 -47.088928153753407 -8.4694077019199483 5.493790300347948 #
vertex $-1 $452 $608 #
point $-1 -47.088928153753407 -6.6211356375198971 5.493790300347948 #
coedge $-1 $563 $458 $466 $568 forward $326 $-1 #
coedge $-1 $459 $562 $461 $565 forward $326 $-1 #
straight-curve $-1 -57.00964339410595 15.629242216389564 9.9290913773977891 1 0 0 I I #
edge $-1 $571 -21.790149097723067 $462 -15.629242216389564 $461 $609 forward 7 unknown #
point $-1 -53.823664052247686 15.629242216389564 9.9290913773977891 #
straight-curve $-1 -42.301615644388882 9.3548478285281575 9.9290913773977891 0 1 0 I I #
edge $-1 $467 42.301615644388882 $571 53.823664052247686 $466 $610 forward 7 unknown #
point $-1 -42.301615644388882 21.790149097723067 9.9290913773977891 #
point $-1 -42.301615644388882 15.629242216389564 9.9290913773977891 #
vertex $-1 $568 $611 #
straight-curve $-1 -53.823664052247686 21.790149097723067 0 0 0 -1 I I #
vertex $-1 $474 $612 #
point $-1 -47.088928153753407 16.861423592656266 5.493790300347948 #
vertex $-1 $478 $613 #
point $-1 -47.088928153753407 18.709695657056315 5.493790300347948 #
vertex $-1 $482 $614 #
point $-1 -47.088928153753407 20.557967721456365 5.493790300347948 #
edge $-1 $580 -29.568316505855119 $583 -19.854051134152609 $487 $615 forward 7 unknown #
vertex $-1 $491 $616 #
straight-curve $-1 53.823664052247686 16.755378577845708 76.506982668050213 0 0 1 I I #
edge $-1 $583 -10.426686872133331 $498 -2.2306965392914222 $497 $617 forward 7 unknown #
vertex $-1 $582 $618 #
straight-curve $-1 -24.904607012441524 16.755378577845708 74.285694271411217 0.7313536940579346 0 -0.68199836817093118 I I #
point $-1 53.823664052247686 16.755378577845708 0.87039216618455839 #
point $-1 44.109398680545176 8.5593882450037988 9.929091377397782 #
straight-curve $-1 53.823664052247686 0 9.9290913773977891 0 1 0 I I #
vertex $-1 $504 $619 #
point $-1 47.096833573532976 10.901099768672921 1.928457237882556 #
vertex $-1 $508 $620 #
point $-1 47.096833573532976 14.413667054176592 1.928457237882556 #
straight-curve $-1 -53.823664052247686 21.790149097723067 0 0 0 -1 I I #
point $-1 -53.823664052247686 -21.790149097723067 -9.9290913773977891 #
straight-curve $-1 -53.823664052247686 0 -9.9290913773977891 0 1 0 I I #
point $-1 -53.823664052247686 21.790149097723067 -9.9290913773977891 #
straight-curve $-1 -53.823664052247686 -11.5498611425867 1.8765327558265295 0 0 -1 I I #
straight-curve $-1 -53.823664052247686 -8.3350025600774416 0.92875763534347655 0 -1 0 I I #
point $-1 -53.823664052247686 -21.790149097723067 0.92875763534347655 #
point $-1 -53.823664052247686 -11.5498611425867 0.92875763534347655 #
straight-curve $-1 -53.823664052247686 -21.790149097723067 0 0 0 -1 I I #
straight-curve $-1 -57.00964339410595 -11.5498611425867 9.9290913773977891 1 0 0 I I #
straight-curve $-1 -53.823664052247686 -11.5498611425867 45.700525251977666 0 0 1 I I #
point $-1 -42.301615644388882 -11.5498611425867 9.9290913773977891 #
straight-curve $-1 -42.301615644388882 -4.2347038509599741 9.9290913773977891 0 1 0 I I #
point $-1 -53.823664052247686 -11.5498611425867 9.9290913773977891 #
point $-1 -47.223850482210679 -10.31767976632 4.799675061152274 #
point $-1 -47.223850482210679 -8.4694077019199483 4.799675061152274 #
point $-1 -47.223850482210679 -6.6211356375198971 4.799675061152274 #
straight-curve $-1 -53.823664052247686 0 9.9290913773977891 0 -1 0 I I #
straight-curve $-1 0 21.790149097723067 9.9290913773977891 -1 0 0 I I #
point $-1 -53.823664052247686 21.790149097723067 9.9290913773977891 #
point $-1 -47.223850482210679 16.861423592656266 4.799675061152274 #
point $-1 -47.223850482210679 18.709695657056315 4.799675061152274 #
point $-1 -47.223850482210679 20.557967721456365 4.799675061152274 #
straight-curve $-1 24.255347546392567 16.755378577845708 9.929091377397782 -1 0 0 I I #
point $-1 53.823664052247686 16.755378577845708 9.9290913773977891 #
straight-curve $-1 44.109398680545183 6.3286917057123766 9.9290913773977891 0 -1 0 I I #
point $-1 44.109398680545176 16.755378577845708 9.929091377397782 #
point $-1 45.683481511304109 10.901099768672921 1.8791019119955525 #
point $-1 45.683481511304109 14.413667054176592 1.8791019119955525 #
End-of-ACIS-data 