500 0 18 0           
7 Unknown 11 ACIS 5.0 NT 24 Fri Mar 26 01:12:47 1999 
-1 9.9999999999999995e-007 1e-010 
body $-1 $18 $-1 $19 #
body $-1 $20 $-1 $21 #
body $-1 $22 $-1 $23 #
body $-1 $24 $-1 $25 #
body $-1 $26 $-1 $27 #
body $-1 $28 $-1 $29 #
body $-1 $30 $-1 $31 #
body $-1 $32 $-1 $33 #
body $-1 $34 $-1 $35 #
body $-1 $36 $-1 $37 #
body $-1 $38 $-1 $39 #
body $-1 $40 $-1 $41 #
body $-1 $42 $-1 $43 #
body $-1 $44 $-1 $45 #
body $-1 $46 $-1 $47 #
body $-1 $48 $-1 $49 #
body $-1 $50 $-1 $51 #
body $-1 $52 $-1 $53 #
lump $-1 $-1 $54 $0 #
transform $-1 1 0 0 0 1 0 0 0 1 40.53468428601947 27.439434158911556 8.815086752439905 1 rotate no_reflect no_shear #
lump $-1 $-1 $55 $1 #
transform $-1 1 0 0 0 1 0 0 0 1 40.53468428601947 27.439434158911556 8.815086752439905 1 rotate no_reflect no_shear #
lump $-1 $-1 $56 $2 #
transform $-1 1 0 0 0 1 0 0 0 1 40.53468428601947 27.439434158911556 8.815086752439905 1 rotate no_reflect no_shear #
lump $-1 $-1 $57 $3 #
transform $-1 1 0 0 0 1 0 0 0 1 40.53468428601947 27.439434158911556 8.815086752439905 1 rotate no_reflect no_shear #
lump $-1 $-1 $58 $4 #
transform $-1 1 0 0 0 1 0 0 0 1 40.53468428601947 27.439434158911556 8.815086752439905 1 rotate no_reflect no_shear #
lump $-1 $-1 $59 $5 #
transform $-1 1 0 0 0 1 0 0 0 1 40.53468428601947 27.439434158911556 8.815086752439905 1 rotate no_reflect no_shear #
lump $-1 $-1 $60 $6 #
transform $-1 1 0 0 0 1 0 0 0 1 40.53468428601947 27.439434158911556 8.815086752439905 1 rotate no_reflect no_shear #
lump $-1 $-1 $61 $7 #
transform $-1 1 0 0 0 1 0 0 0 1 40.53468428601947 27.439434158911556 8.815086752439905 1 rotate no_reflect no_shear #
lump $-1 $-1 $62 $8 #
transform $-1 1 0 0 0 1 0 0 0 1 40.53468428601947 27.439434158911556 8.815086752439905 1 rotate no_reflect no_shear #
lump $-1 $-1 $63 $9 #
transform $-1 1 0 0 0 1 0 0 0 1 40.53468428601947 27.439434158911556 8.815086752439905 1 rotate no_reflect no_shear #
lump $-1 $-1 $64 $10 #
transform $-1 1 0 0 0 1 0 0 0 1 40.53468428601947 27.439434158911556 8.815086752439905 1 rotate no_reflect no_shear #
lump $-1 $-1 $65 $11 #
transform $-1 1 0 0 0 1 0 0 0 1 40.53468428601947 27.439434158911556 8.815086752439905 1 rotate no_reflect no_shear #
lump $-1 $-1 $66 $12 #
transform $-1 1 0 0 0 1 0 0 0 1 40.53468428601947 27.439434158911556 8.815086752439905 1 rotate no_reflect no_shear #
lump $-1 $-1 $67 $13 #
transform $-1 1 0 0 0 1 0 0 0 1 40.53468428601947 27.439434158911556 8.815086752439905 1 rotate no_reflect no_shear #
lump $-1 $-1 $68 $14 #
transform $-1 1 0 0 0 1 0 0 0 1 40.53468428601947 27.439434158911556 8.815086752439905 1 rotate no_reflect no_shear #
lump $-1 $-1 $69 $15 #
transform $-1 1 0 0 0 1 0 0 0 1 40.53468428601947 27.439434158911556 8.815086752439905 1 rotate no_reflect no_shear #
lump $-1 $-1 $70 $16 #
transform $-1 1 0 0 0 1 0 0 0 1 40.53468428601947 27.439434158911556 8.815086752439905 1 rotate no_reflect no_shear #
lump $-1 $-1 $71 $17 #
transform $-1 1 0 0 0 1 0 0 0 1 40.53468428601947 27.439434158911556 8.815086752439905 1 rotate no_reflect no_shear #
shell $-1 $-1 $-1 $72 $-1 $18 #
shell $-1 $-1 $-1 $73 $-1 $20 #
shell $-1 $-1 $-1 $74 $-1 $22 #
shell $-1 $-1 $-1 $75 $-1 $24 #
shell $-1 $-1 $-1 $76 $-1 $26 #
shell $-1 $-1 $-1 $77 $-1 $28 #
shell $-1 $-1 $-1 $78 $-1 $30 #
shell $-1 $-1 $-1 $79 $-1 $32 #
shell $-1 $-1 $-1 $80 $-1 $34 #
shell $-1 $-1 $-1 $81 $-1 $36 #
shell $-1 $-1 $-1 $82 $-1 $38 #
shell $-1 $-1 $-1 $83 $-1 $40 #
shell $-1 $-1 $-1 $84 $-1 $42 #
shell $-1 $-1 $-1 $85 $-1 $44 #
shell $-1 $-1 $-1 $86 $-1 $46 #
shell $-1 $-1 $-1 $87 $-1 $48 #
shell $-1 $-1 $-1 $88 $-1 $50 #
shell $-1 $-1 $-1 $89 $-1 $52 #
face $-1 $90 $91 $54 $-1 $92 forward single #
face $-1 $93 $94 $55 $-1 $95 forward single #
face $-1 $96 $97 $56 $-1 $98 reversed single #
face $-1 $99 $100 $57 $-1 $101 forward single #
face $-1 $102 $103 $58 $-1 $104 forward single #
face $-1 $105 $106 $59 $-1 $107 forward single #
face $-1 $108 $109 $60 $-1 $110 reversed single #
face $-1 $111 $112 $61 $-1 $113 forward single #
face $-1 $114 $115 $62 $-1 $116 forward single #
face $-1 $117 $118 $63 $-1 $119 reversed single #
face $-1 $120 $121 $64 $-1 $122 forward single #
face $-1 $123 $124 $65 $-1 $125 forward single #
face $-1 $126 $127 $66 $-1 $128 reversed single #
face $-1 $129 $130 $67 $-1 $131 forward single #
face $-1 $132 $133 $68 $-1 $134 forward single #
face $-1 $135 $136 $69 $-1 $137 reversed single #
face $-1 $138 $139 $70 $-1 $140 forward single #
face $-1 $141 $142 $71 $-1 $143 forward single #
face $-1 $144 $145 $54 $-1 $146 reversed single #
loop $-1 $-1 $147 $72 #
plane-surface $-1 0 0 8.815086752439905 0 0 1 1 0 0 forward_v I I I I #
face $-1 $148 $149 $55 $-1 $150 reversed single #
loop $-1 $-1 $151 $73 #
plane-surface $-1 0 -27.439434158911556 0 0 1 0 0 0 1 forward_v I I I I #
face $-1 $152 $153 $56 $-1 $154 reversed single #
loop $-1 $-1 $155 $74 #
plane-surface $-1 20.626025832697337 -6.0342883380158163 118.50371020916771 0 -1 0 -0.57357644374324357 0 -0.81915203911291934 forward_v I I I I #
face $-1 $156 $157 $57 $-1 $158 forward single #
loop $-1 $159 $160 $75 #
cone-surface $-1 37.754275448020358 -15.470114837652638 6.5174959193816795 -0.57357644374324357 0 -0.81915203911291934 0.40957601955645967 0 -0.28678822187162178 1 I I 0 1 0.5 forward I I I I #
face $-1 $161 $162 $58 $-1 $163 forward single #
loop $-1 $164 $165 $76 #
cone-surface $-1 37.754275448020358 -11.931679900288829 6.5174959193816795 -0.57357644374324357 0 -0.81915203911291934 0.40957601955645967 0 -0.28678822187162178 1 I I 0 1 0.5 forward I I I I #
face $-1 $166 $167 $59 $-1 $168 forward single #
loop $-1 $169 $170 $77 #
cone-surface $-1 37.754275448020358 -8.3932449629250208 6.5174959193816795 -0.57357644374324357 0 -0.81915203911291934 0.40957601955645967 0 -0.28678822187162178 1 I I 0 1 0.5 forward I I I I #
face $-1 $171 $172 $60 $-1 $173 reversed single #
loop $-1 $-1 $174 $78 #
plane-surface $-1 -90.445971970712876 -15.637271699674244 65.975878861920975 0 1 0 -0.61566148304635926 0 0.78801074757464917 forward_v I I I I #
face $-1 $175 $176 $61 $-1 $177 forward single #
loop $-1 $178 $179 $79 #
cone-surface $-1 -35.894301150842985 -13.841949368266956 5.0210639625229856 0.61566148304635926 0 -0.78801074757464917 0.39400537378732459 0 0.30783074152317963 1 I I 0 1 0.5 forward I I I I #
face $-1 $180 $181 $62 $-1 $182 forward single #
loop $-1 $183 $184 $80 #
cone-surface $-1 -35.894301150842985 -11.148965871156026 5.0210639625229856 0.61566148304635926 0 -0.78801074757464917 0.39400537378732459 0 0.30783074152317963 1 I I 0 1 0.5 forward I I I I #
face $-1 $185 $186 $63 $-1 $187 reversed single #
loop $-1 $-1 $188 $81 #
plane-surface $-1 -90.445971970712876 -4.1035123877500155 65.975878861920975 0 1 0 -0.61566148304635926 0 0.78801074757464917 forward_v I I I I #
face $-1 $189 $190 $64 $-1 $191 forward single #
loop $-1 $192 $193 $82 #
cone-surface $-1 -35.894301150842985 -2.3081900563427276 5.0210639625229856 0.61566148304635926 0 -0.78801074757464917 0.39400537378732459 0 0.30783074152317963 1 I I 0 1 0.5 forward I I I I #
face $-1 $194 $195 $65 $-1 $196 forward single #
loop $-1 $197 $198 $83 #
cone-surface $-1 -35.894301150842985 0.38479344076820254 5.0210639625229856 0.61566148304635926 0 -0.78801074757464917 0.39400537378732459 0 0.30783074152317963 1 I I 0 1 0.5 forward I I I I #
face $-1 $199 $200 $66 $-1 $201 reversed single #
loop $-1 $-1 $202 $84 #
plane-surface $-1 -90.445971970712876 7.4302469241742131 65.975878861920975 0 1 0 -0.61566148304635926 0 0.78801074757464917 forward_v I I I I #
face $-1 $203 $204 $67 $-1 $205 forward single #
loop $-1 $206 $207 $85 #
cone-surface $-1 -35.894301150842985 9.225569255581501 5.0210639625229856 0.61566148304635926 0 -0.78801074757464917 0.39400537378732459 0 0.30783074152317963 1 I I 0 1 0.5 forward I I I I #
face $-1 $208 $209 $68 $-1 $210 forward single #
loop $-1 $211 $212 $86 #
cone-surface $-1 -35.894301150842985 11.918552752692431 5.0210639625229856 0.61566148304635926 0 -0.78801074757464917 0.39400537378732459 0 0.30783074152317963 1 I I 0 1 0.5 forward I I I I #
face $-1 $213 $214 $69 $-1 $215 reversed single #
loop $-1 $-1 $216 $87 #
plane-surface $-1 -90.445971970712876 18.964006236098442 65.975878861920975 0 1 0 -0.61566148304635926 0 0.78801074757464917 forward_v I I I I #
face $-1 $217 $218 $70 $-1 $219 forward single #
loop $-1 $220 $221 $88 #
cone-surface $-1 -35.894301150842985 20.75932856750573 5.0210639625229856 0.61566148304635926 0 -0.78801074757464917 0.39400537378732459 0 0.30783074152317963 1 I I 0 1 0.5 forward I I I I #
face $-1 $222 $223 $71 $-1 $224 forward single #
loop $-1 $225 $226 $89 #
cone-surface $-1 -35.894301150842985 23.45231206461666 5.0210639625229856 0.61566148304635926 0 -0.78801074757464917 0.39400537378732459 0 0.30783074152317963 1 I I 0 1 0.5 forward I I I I #
face $-1 $227 $228 $54 $-1 $229 reversed single #
loop $-1 $-1 $230 $90 #
plane-surface $-1 0 0 -8.815086752439905 0 0 1 1 0 0 forward_v I I I I #
coedge $-1 $231 $232 $233 $234 forward $91 $-1 #
face $-1 $235 $236 $55 $-1 $237 reversed single #
loop $-1 $-1 $238 $93 #
plane-surface $-1 0 0 -8.815086752439905 0 0 1 1 0 0 forward_v I I I I #
coedge $-1 $239 $240 $241 $242 forward $94 $-1 #
face $-1 $243 $244 $56 $-1 $245 reversed single #
loop $-1 $-1 $246 $96 #
plane-surface $-1 -25.873454289363032 -11.931679900288829 52.095571633785198 0.57357644374324357 0 0.81915203911291934 0.81915203911291934 0 -0.57357644374324357 forward_v I I I I #
coedge $-1 $247 $248 $249 $250 reversed $97 $-1 #
face $-1 $-1 $251 $57 $-1 $252 forward single #
loop $-1 $253 $254 $99 #
cone-surface $-1 37.129073273306631 -15.470114837652638 5.6246146969027588 -0.57357644374324357 0 -0.81915203911291934 0.20478800977822983 0 -0.14339411093581089 1 I I -0.70710678118654746 0.70710678118654746 0.25 forward I I I I #
loop $-1 $-1 $255 $75 #
coedge $-1 $160 $160 $256 $257 reversed $100 $-1 #
face $-1 $-1 $258 $58 $-1 $259 forward single #
loop $-1 $260 $261 $102 #
cone-surface $-1 37.129073273306631 -11.931679900288829 5.6246146969027588 -0.57357644374324357 0 -0.81915203911291934 0.20478800977822983 0 -0.14339411093581089 1 I I -0.70710678118654746 0.70710678118654746 0.25 forward I I I I #
loop $-1 $-1 $262 $76 #
coedge $-1 $165 $165 $263 $264 reversed $103 $-1 #
face $-1 $-1 $265 $59 $-1 $266 forward single #
loop $-1 $267 $268 $105 #
cone-surface $-1 37.129073273306631 -8.3932449629250208 5.6246146969027588 -0.57357644374324357 0 -0.81915203911291934 0.20478800977822983 0 -0.14339411093581089 1 I I -0.70710678118654746 0.70710678118654746 0.25 forward I I I I #
loop $-1 $-1 $269 $77 #
coedge $-1 $170 $170 $270 $271 reversed $106 $-1 #
face $-1 $272 $273 $60 $-1 $274 reversed single #
loop $-1 $-1 $275 $108 #
plane-surface $-1 -40.534684286019477 -12.495457619711491 2.0923451280638048 -0.61566148304635926 0 0.78801074757464917 0.78801074757464917 0 0.61566148304635926 forward_v I I I I #
coedge $-1 $276 $277 $278 $279 reversed $109 $-1 #
face $-1 $-1 $280 $61 $-1 $281 forward single #
loop $-1 $282 $283 $111 #
cone-surface $-1 -35.402361001775617 -13.841949368266956 4.3914092979004593 0.61566148304635926 0 -0.78801074757464917 0.19700268689366229 0 0.15391537076158981 1 I I -0.70710678118654746 0.70710678118654746 0.25 forward I I I I #
loop $-1 $-1 $284 $79 #
coedge $-1 $179 $179 $285 $286 reversed $112 $-1 #
face $-1 $-1 $287 $62 $-1 $288 forward single #
loop $-1 $289 $290 $114 #
cone-surface $-1 -35.402361001775617 -11.148965871156026 4.3914092979004593 0.61566148304635926 0 -0.78801074757464917 0.19700268689366229 0 0.15391537076158981 1 I I -0.70710678118654746 0.70710678118654746 0.25 forward I I I I #
loop $-1 $-1 $291 $80 #
coedge $-1 $184 $184 $292 $293 reversed $115 $-1 #
face $-1 $294 $295 $63 $-1 $296 reversed single #
loop $-1 $-1 $297 $117 #
plane-surface $-1 -40.534684286019477 -0.96169830778726251 2.0923451280638048 -0.61566148304635926 0 0.78801074757464917 0.78801074757464917 0 0.61566148304635926 forward_v I I I I #
coedge $-1 $298 $299 $300 $301 reversed $118 $-1 #
face $-1 $-1 $302 $64 $-1 $303 forward single #
loop $-1 $304 $305 $120 #
cone-surface $-1 -35.402361001775617 -2.3081900563427276 4.3914092979004593 0.61566148304635926 0 -0.78801074757464917 0.19700268689366229 0 0.15391537076158981 1 I I -0.70710678118654746 0.70710678118654746 0.25 forward I I I I #
loop $-1 $-1 $306 $82 #
coedge $-1 $193 $193 $307 $308 reversed $121 $-1 #
face $-1 $-1 $309 $65 $-1 $310 forward single #
loop $-1 $311 $312 $123 #
cone-surface $-1 -35.402361001775617 0.38479344076820254 4.3914092979004593 0.61566148304635926 0 -0.78801074757464917 0.19700268689366229 0 0.15391537076158981 1 I I -0.70710678118654746 0.70710678118654746 0.25 forward I I I I #
loop $-1 $-1 $313 $83 #
coedge $-1 $198 $198 $314 $315 reversed $124 $-1 #
face $-1 $316 $317 $66 $-1 $318 reversed single #
loop $-1 $-1 $319 $126 #
plane-surface $-1 -40.534684286019477 10.572061004136966 2.0923451280638048 -0.61566148304635926 0 0.78801074757464917 0.78801074757464917 0 0.61566148304635926 forward_v I I I I #
coedge $-1 $320 $321 $322 $323 reversed $127 $-1 #
face $-1 $-1 $324 $67 $-1 $325 forward single #
loop $-1 $326 $327 $129 #
cone-surface $-1 -35.402361001775617 9.225569255581501 4.3914092979004593 0.61566148304635926 0 -0.78801074757464917 0.19700268689366229 0 0.15391537076158981 1 I I -0.70710678118654746 0.70710678118654746 0.25 forward I I I I #
loop $-1 $-1 $328 $85 #
coedge $-1 $207 $207 $329 $330 reversed $130 $-1 #
face $-1 $-1 $331 $68 $-1 $332 forward single #
loop $-1 $333 $334 $132 #
cone-surface $-1 -35.402361001775617 11.918552752692431 4.3914092979004593 0.61566148304635926 0 -0.78801074757464917 0.19700268689366229 0 0.15391537076158981 1 I I -0.70710678118654746 0.70710678118654746 0.25 forward I I I I #
loop $-1 $-1 $335 $86 #
coedge $-1 $212 $212 $336 $337 reversed $133 $-1 #
face $-1 $338 $339 $69 $-1 $340 reversed single #
loop $-1 $-1 $341 $135 #
plane-surface $-1 -40.534684286019477 22.105820316061195 2.0923451280638048 -0.61566148304635926 0 0.78801074757464917 0.78801074757464917 0 0.61566148304635926 forward_v I I I I #
coedge $-1 $342 $343 $344 $345 reversed $136 $-1 #
face $-1 $-1 $346 $70 $-1 $347 forward single #
loop $-1 $348 $349 $138 #
cone-surface $-1 -35.402361001775617 20.75932856750573 4.3914092979004593 0.61566148304635926 0 -0.78801074757464917 0.19700268689366229 0 0.15391537076158981 1 I I -0.70710678118654746 0.70710678118654746 0.25 forward I I I I #
loop $-1 $-1 $350 $88 #
coedge $-1 $221 $221 $351 $352 reversed $139 $-1 #
face $-1 $-1 $353 $71 $-1 $354 forward single #
loop $-1 $355 $356 $141 #
cone-surface $-1 -35.402361001775617 23.45231206461666 4.3914092979004593 0.61566148304635926 0 -0.78801074757464917 0.19700268689366229 0 0.15391537076158981 1 I I -0.70710678118654746 0.70710678118654746 0.25 forward I I I I #
loop $-1 $-1 $357 $89 #
coedge $-1 $226 $226 $358 $359 reversed $142 $-1 #
face $-1 $360 $361 $54 $-1 $362 reversed single #
loop $-1 $-1 $363 $144 #
plane-surface $-1 0 -27.439434158911556 0 0 1 0 0 0 1 forward_v I I I I #
coedge $-1 $364 $365 $366 $367 forward $145 $-1 #
coedge $-1 $368 $147 $369 $370 forward $91 $-1 #
coedge $-1 $147 $368 $371 $372 forward $91 $-1 #
coedge $-1 $373 $374 $147 $234 reversed $375 $-1 #
edge $-1 $376 -27.439434158911556 $377 27.439434158911556 $233 $378 forward 7 unknown #
face $-1 $379 $380 $55 $-1 $381 forward single #
loop $-1 $-1 $382 $148 #
plane-surface $-1 40.53468428601947 0 0 -1 0 0 0 0 1 forward_v I I I I #
coedge $-1 $383 $384 $385 $386 forward $149 $-1 #
coedge $-1 $385 $151 $382 $387 reversed $94 $-1 #
coedge $-1 $151 $385 $388 $389 reversed $94 $-1 #
coedge $-1 $390 $391 $151 $242 reversed $380 $-1 #
edge $-1 $392 -40.53468428601947 $393 40.53468428601947 $241 $394 forward 7 unknown #
face $-1 $395 $396 $56 $-1 $397 reversed single #
loop $-1 $-1 $398 $152 #
plane-surface $-1 20.626025832697337 -17.829071462561842 118.50371020916771 0 1 0 0.57357644374324357 0 0.81915203911291934 forward_v I I I I #
coedge $-1 $399 $400 $401 $402 reversed $153 $-1 #
coedge $-1 $248 $155 $403 $404 reversed $97 $-1 #
coedge $-1 $155 $247 $399 $405 reversed $97 $-1 #
coedge $-1 $401 $406 $155 $250 forward $407 $-1 #
edge $-1 $408 -30.221671369670801 $409 -25.624469821228388 $249 $410 forward 7 unknown #
loop $-1 $-1 $256 $156 #
plane-surface $-1 -25.873454289363032 -11.931679900288829 52.095571633785198 0.57357644374324357 0 0.81915203911291934 0.81915203911291934 0 -0.57357644374324357 forward_v I I I I #
loop $-1 $-1 $411 $99 #
coedge $-1 $254 $254 $255 $412 reversed $157 $-1 #
coedge $-1 $255 $255 $254 $412 forward $159 $-1 #
coedge $-1 $256 $256 $160 $257 forward $251 $-1 #
edge $-1 $413 0 $413 6.2831853071796004 $256 $414 forward 7 unknown #
loop $-1 $-1 $263 $161 #
plane-surface $-1 -25.873454289363032 -11.931679900288829 52.095571633785198 0.57357644374324357 0 0.81915203911291934 0.81915203911291934 0 -0.57357644374324357 forward_v I I I I #
loop $-1 $-1 $415 $102 #
coedge $-1 $261 $261 $262 $416 reversed $162 $-1 #
coedge $-1 $262 $262 $261 $416 forward $164 $-1 #
coedge $-1 $263 $263 $165 $264 forward $258 $-1 #
edge $-1 $417 0 $417 6.2831853071796004 $263 $418 forward 7 unknown #
loop $-1 $-1 $270 $166 #
plane-surface $-1 -25.873454289363032 -11.931679900288829 52.095571633785198 0.57357644374324357 0 0.81915203911291934 0.81915203911291934 0 -0.57357644374324357 forward_v I I I I #
loop $-1 $-1 $419 $105 #
coedge $-1 $268 $268 $269 $420 reversed $167 $-1 #
coedge $-1 $269 $269 $268 $420 forward $169 $-1 #
coedge $-1 $270 $270 $170 $271 forward $265 $-1 #
edge $-1 $421 0 $421 6.2831853071796004 $270 $422 forward 7 unknown #
face $-1 $423 $424 $60 $-1 $425 forward single #
loop $-1 $-1 $426 $171 #
plane-surface $-1 -90.445971970712876 -9.3536435397487381 65.975878861920975 0 -1 0 0.61566148304635926 0 -0.78801074757464917 forward_v I I I I #
coedge $-1 $427 $428 $429 $430 reversed $172 $-1 #
coedge $-1 $277 $174 $431 $432 reversed $109 $-1 #
coedge $-1 $174 $276 $427 $433 reversed $109 $-1 #
coedge $-1 $429 $434 $174 $279 forward $424 $-1 #
edge $-1 $435 4.6883016993369679 $436 13.293018413078357 $278 $437 forward 7 unknown #
loop $-1 $-1 $285 $175 #
plane-surface $-1 -40.534684286019477 -12.495457619711491 2.0923451280638048 -0.61566148304635926 0 0.78801074757464917 0.78801074757464917 0 0.61566148304635926 forward_v I I I I #
loop $-1 $-1 $438 $111 #
coedge $-1 $283 $283 $284 $439 reversed $176 $-1 #
coedge $-1 $284 $284 $283 $439 forward $178 $-1 #
coedge $-1 $285 $285 $179 $286 forward $280 $-1 #
edge $-1 $440 0 $440 6.2831853071796004 $285 $441 forward 7 unknown #
loop $-1 $-1 $292 $180 #
plane-surface $-1 -40.534684286019477 -12.495457619711491 2.0923451280638048 -0.61566148304635926 0 0.78801074757464917 0.78801074757464917 0 0.61566148304635926 forward_v I I I I #
loop $-1 $-1 $442 $114 #
coedge $-1 $290 $290 $291 $443 reversed $181 $-1 #
coedge $-1 $291 $291 $290 $443 forward $183 $-1 #
coedge $-1 $292 $292 $184 $293 forward $287 $-1 #
edge $-1 $444 0 $444 6.2831853071796004 $292 $445 forward 7 unknown #
face $-1 $446 $447 $63 $-1 $448 forward single #
loop $-1 $-1 $449 $185 #
plane-surface $-1 -90.445971970712876 2.1801157721754905 65.975878861920975 0 -1 0 0.61566148304635926 0 -0.78801074757464917 forward_v I I I I #
coedge $-1 $450 $451 $452 $453 reversed $186 $-1 #
coedge $-1 $299 $188 $454 $455 reversed $118 $-1 #
coedge $-1 $188 $298 $450 $456 reversed $118 $-1 #
coedge $-1 $452 $457 $188 $301 forward $447 $-1 #
edge $-1 $458 4.6883016993369679 $459 13.293018413078357 $300 $460 forward 7 unknown #
loop $-1 $-1 $307 $189 #
plane-surface $-1 -40.534684286019477 -0.96169830778726251 2.0923451280638048 -0.61566148304635926 0 0.78801074757464917 0.78801074757464917 0 0.61566148304635926 forward_v I I I I #
loop $-1 $-1 $461 $120 #
coedge $-1 $305 $305 $306 $462 reversed $190 $-1 #
coedge $-1 $306 $306 $305 $462 forward $192 $-1 #
coedge $-1 $307 $307 $193 $308 forward $302 $-1 #
edge $-1 $463 0 $463 6.2831853071796004 $307 $464 forward 7 unknown #
loop $-1 $-1 $314 $194 #
plane-surface $-1 -40.534684286019477 -0.96169830778726251 2.0923451280638048 -0.61566148304635926 0 0.78801074757464917 0.78801074757464917 0 0.61566148304635926 forward_v I I I I #
loop $-1 $-1 $465 $123 #
coedge $-1 $312 $312 $313 $466 reversed $195 $-1 #
coedge $-1 $313 $313 $312 $466 forward $197 $-1 #
coedge $-1 $314 $314 $198 $315 forward $309 $-1 #
edge $-1 $467 0 $467 6.2831853071796004 $314 $468 forward 7 unknown #
face $-1 $469 $470 $66 $-1 $471 forward single #
loop $-1 $-1 $472 $199 #
plane-surface $-1 -90.445971970712876 13.713875084099719 65.975878861920975 0 -1 0 0.61566148304635926 0 -0.78801074757464917 forward_v I I I I #
coedge $-1 $473 $474 $475 $476 reversed $200 $-1 #
coedge $-1 $321 $202 $477 $478 reversed $127 $-1 #
coedge $-1 $202 $320 $473 $479 reversed $127 $-1 #
coedge $-1 $475 $480 $202 $323 forward $470 $-1 #
edge $-1 $481 4.6883016993369679 $482 13.293018413078357 $322 $483 forward 7 unknown #
loop $-1 $-1 $329 $203 #
plane-surface $-1 -40.534684286019477 10.572061004136966 2.0923451280638048 -0.61566148304635926 0 0.78801074757464917 0.78801074757464917 0 0.61566148304635926 forward_v I I I I #
loop $-1 $-1 $484 $129 #
coedge $-1 $327 $327 $328 $485 reversed $204 $-1 #
coedge $-1 $328 $328 $327 $485 forward $206 $-1 #
coedge $-1 $329 $329 $207 $330 forward $324 $-1 #
edge $-1 $486 0 $486 6.2831853071796004 $329 $487 forward 7 unknown #
loop $-1 $-1 $336 $208 #
plane-surface $-1 -40.534684286019477 10.572061004136966 2.0923451280638048 -0.61566148304635926 0 0.78801074757464917 0.78801074757464917 0 0.61566148304635926 forward_v I I I I #
loop $-1 $-1 $488 $132 #
coedge $-1 $334 $334 $335 $489 reversed $209 $-1 #
coedge $-1 $335 $335 $334 $489 forward $211 $-1 #
coedge $-1 $336 $336 $212 $337 forward $331 $-1 #
edge $-1 $490 0 $490 6.2831853071796004 $336 $491 forward 7 unknown #
face $-1 $492 $493 $69 $-1 $494 forward single #
loop $-1 $-1 $495 $213 #
plane-surface $-1 -90.445971970712876 25.247634396023948 65.975878861920975 0 -1 0 0.61566148304635926 0 -0.78801074757464917 forward_v I I I I #
coedge $-1 $496 $497 $498 $499 reversed $214 $-1 #
coedge $-1 $343 $216 $500 $501 reversed $136 $-1 #
coedge $-1 $216 $342 $496 $502 reversed $136 $-1 #
coedge $-1 $498 $503 $216 $345 forward $493 $-1 #
edge $-1 $504 4.6883016993369679 $505 13.293018413078357 $344 $506 forward 7 unknown #
loop $-1 $-1 $351 $217 #
plane-surface $-1 -40.534684286019477 22.105820316061195 2.0923451280638048 -0.61566148304635926 0 0.78801074757464917 0.78801074757464917 0 0.61566148304635926 forward_v I I I I #
loop $-1 $-1 $507 $138 #
coedge $-1 $349 $349 $350 $508 reversed $218 $-1 #
coedge $-1 $350 $350 $349 $508 forward $220 $-1 #
coedge $-1 $351 $351 $221 $352 forward $346 $-1 #
edge $-1 $509 0 $509 6.2831853071796004 $351 $510 forward 7 unknown #
loop $-1 $-1 $358 $222 #
plane-surface $-1 -40.534684286019477 22.105820316061195 2.0923451280638048 -0.61566148304635926 0 0.78801074757464917 0.78801074757464917 0 0.61566148304635926 forward_v I I I I #
loop $-1 $-1 $511 $141 #
coedge $-1 $356 $356 $357 $512 reversed $223 $-1 #
coedge $-1 $357 $357 $356 $512 forward $225 $-1 #
coedge $-1 $358 $358 $226 $359 forward $353 $-1 #
edge $-1 $513 0 $513 6.2831853071796004 $358 $514 forward 7 unknown #
face $-1 $515 $516 $54 $-1 $517 reversed single #
loop $-1 $-1 $518 $227 #
plane-surface $-1 -40.53468428601947 0 0 1 0 0 0 0 -1 forward_v I I I I #
coedge $-1 $519 $371 $520 $521 forward $228 $-1 #
coedge $-1 $522 $230 $519 $523 forward $145 $-1 #
coedge $-1 $230 $522 $524 $525 forward $145 $-1 #
coedge $-1 $374 $373 $230 $367 reversed $375 $-1 #
edge $-1 $526 -27.439434158911556 $527 27.439434158911556 $366 $528 forward 7 unknown #
coedge $-1 $232 $231 $529 $530 forward $91 $-1 #
coedge $-1 $531 $532 $231 $370 reversed $516 $-1 #
edge $-1 $377 -40.53468428601947 $533 40.53468428601947 $369 $534 forward 7 unknown #
coedge $-1 $363 $535 $232 $372 reversed $228 $-1 #
edge $-1 $536 -40.53468428601947 $376 40.53468428601947 $371 $537 forward 7 unknown #
coedge $-1 $366 $233 $535 $538 forward $375 $-1 #
coedge $-1 $233 $366 $531 $539 reversed $375 $-1 #
loop $-1 $-1 $373 $515 #
vertex $-1 $234 $540 #
vertex $-1 $234 $541 #
straight-curve $-1 40.53468428601947 0 8.815086752439905 0 1 0 I I #
face $-1 $542 $543 $55 $-1 $544 reversed single #
loop $-1 $-1 $391 $235 #
plane-surface $-1 0 -32.244615507086415 -4.6974697958831655 0 0 1 1 0 0 forward_v I I I I #
coedge $-1 $545 $546 $239 $387 forward $236 $-1 #
coedge $-1 $547 $238 $546 $548 forward $149 $-1 #
coedge $-1 $238 $547 $549 $550 forward $149 $-1 #
coedge $-1 $240 $239 $238 $386 reversed $94 $-1 #
edge $-1 $551 -40.53468428601947 $552 40.53468428601947 $238 $553 forward 7 unknown #
edge $-1 $552 -8.815086752439905 $393 -4.6974697958831655 $382 $554 forward 7 unknown #
coedge $-1 $549 $555 $240 $389 forward $556 $-1 #
edge $-1 $392 4.6974697958831655 $551 8.815086752439905 $388 $557 forward 7 unknown #
coedge $-1 $558 $241 $555 $559 forward $380 $-1 #
coedge $-1 $241 $558 $545 $560 forward $380 $-1 #
vertex $-1 $389 $561 #
vertex $-1 $560 $562 #
straight-curve $-1 0 -27.439434158911556 -4.6974697958831655 1 0 0 I I #
face $-1 $-1 $407 $56 $-1 $563 forward single #
loop $-1 $-1 $564 $243 #
plane-surface $-1 40.53468428601947 0 0 -1 0 0 0 0 1 forward_v I I I I #
coedge $-1 $565 $566 $567 $568 reversed $244 $-1 #
coedge $-1 $569 $246 $248 $405 forward $153 $-1 #
coedge $-1 $246 $569 $565 $570 forward $153 $-1 #
coedge $-1 $567 $249 $246 $402 forward $407 $-1 #
edge $-1 $409 0.068448387871401728 $571 11.863231512417428 $401 $572 forward 7 unknown #
coedge $-1 $573 $574 $247 $404 forward $396 $-1 #
edge $-1 $575 -53.655763592859017 $408 -50.43676835214395 $403 $576 forward 7 unknown #
edge $-1 $409 75.457221706823475 $575 81.069368572038925 $248 $577 forward 7 unknown #
coedge $-1 $249 $567 $573 $578 forward $407 $-1 #
loop $-1 $-1 $567 $395 #
vertex $-1 $404 $579 #
vertex $-1 $250 $580 #
straight-curve $-1 10.313012916348669 -6.0342883380158163 8.8150867524399033 -1 0 0 I I #
coedge $-1 $411 $411 $-1 $581 reversed $253 $-1 #
edge $-1 $582 0 $582 6.2831853071796004 $254 $583 forward 7 unknown #
vertex $-1 $257 $584 #
ellipse-curve $-1 38.23608351179827 -15.470114837652638 7.2055891320823626 0.57357644374324357 0 0.81915203911291934 0.40957601955645967 0 -0.28678822187162178 1 I I #
coedge $-1 $415 $415 $-1 $585 reversed $260 $-1 #
edge $-1 $586 0 $586 6.2831853071796004 $261 $587 forward 7 unknown #
vertex $-1 $264 $588 #
ellipse-curve $-1 38.23608351179827 -11.931679900288829 7.2055891320823626 0.57357644374324357 0 0.81915203911291934 0.40957601955645967 0 -0.28678822187162178 1 I I #
coedge $-1 $419 $419 $-1 $589 reversed $267 $-1 #
edge $-1 $590 0 $590 6.2831853071796004 $268 $591 forward 7 unknown #
vertex $-1 $271 $592 #
ellipse-curve $-1 38.23608351179827 -8.3932449629250208 7.2055891320823626 0.57357644374324357 0 0.81915203911291934 0.40957601955645967 0 -0.28678822187162178 1 I I #
face $-1 $-1 $593 $60 $-1 $594 reversed single #
loop $-1 $-1 $278 $272 #
plane-surface $-1 0 0 8.815086752439905 0 0 1 1 0 0 forward_v I I I I #
coedge $-1 $595 $596 $597 $598 reversed $273 $-1 #
coedge $-1 $599 $275 $277 $433 forward $172 $-1 #
coedge $-1 $275 $599 $595 $600 forward $172 $-1 #
coedge $-1 $597 $278 $275 $430 forward $424 $-1 #
edge $-1 $436 -9.3895428898184985 $601 -3.1059147298929926 $429 $602 forward 7 unknown #
coedge $-1 $603 $604 $276 $432 forward $593 $-1 #
edge $-1 $605 -30.895594302896676 $435 -24.172852678520584 $431 $606 forward 7 unknown #
edge $-1 $436 -10.919542328864317 $605 -9.1534652039358102e-015 $277 $607 forward 7 unknown #
coedge $-1 $278 $597 $603 $608 forward $424 $-1 #
vertex $-1 $432 $609 #
vertex $-1 $279 $610 #
straight-curve $-1 -45.222985985356438 -15.637271699674244 8.8150867524399033 1 0 0 I I #
coedge $-1 $438 $438 $-1 $611 reversed $282 $-1 #
edge $-1 $612 0 $612 6.2831853071796004 $283 $613 forward 7 unknown #
vertex $-1 $286 $614 #
ellipse-curve $-1 -36.232325929148772 -13.841949368266956 5.4537159402518602 -0.61566148304635926 0 0.78801074757464917 0.39400537378732459 0 0.30783074152317963 1 I I #
coedge $-1 $442 $442 $-1 $615 reversed $289 $-1 #
edge $-1 $616 0 $616 6.2831853071796004 $290 $617 forward 7 unknown #
vertex $-1 $293 $618 #
ellipse-curve $-1 -36.232325929148772 -11.148965871156026 5.4537159402518602 -0.61566148304635926 0 0.78801074757464917 0.39400537378732459 0 0.30783074152317963 1 I I #
face $-1 $-1 $619 $63 $-1 $620 reversed single #
loop $-1 $-1 $300 $294 #
plane-surface $-1 0 0 8.815086752439905 0 0 1 1 0 0 forward_v I I I I #
coedge $-1 $621 $622 $623 $624 reversed $295 $-1 #
coedge $-1 $625 $297 $299 $456 forward $186 $-1 #
coedge $-1 $297 $625 $621 $626 forward $186 $-1 #
coedge $-1 $623 $300 $297 $453 forward $447 $-1 #
edge $-1 $459 -3.6226632338563842 $627 2.6609649260691217 $452 $628 forward 7 unknown #
coedge $-1 $629 $630 $298 $455 forward $619 $-1 #
edge $-1 $631 -30.895594302896676 $458 -24.172852678520584 $454 $632 forward 7 unknown #
edge $-1 $459 -10.919542328864317 $631 -9.1534652039358102e-015 $299 $633 forward 7 unknown #
coedge $-1 $300 $623 $629 $634 forward $447 $-1 #
vertex $-1 $301 $635 #
vertex $-1 $301 $636 #
straight-curve $-1 -45.222985985356438 -4.1035123877500155 8.8150867524399033 1 0 0 I I #
coedge $-1 $461 $461 $-1 $637 reversed $304 $-1 #
edge $-1 $638 0 $638 6.2831853071796004 $305 $639 forward 7 unknown #
vertex $-1 $308 $640 #
ellipse-curve $-1 -36.232325929148772 -2.3081900563427276 5.4537159402518602 -0.61566148304635926 0 0.78801074757464917 0.39400537378732459 0 0.30783074152317963 1 I I #
coedge $-1 $465 $465 $-1 $641 reversed $311 $-1 #
edge $-1 $642 0 $642 6.2831853071796004 $312 $643 forward 7 unknown #
vertex $-1 $315 $644 #
ellipse-curve $-1 -36.232325929148772 0.38479344076820254 5.4537159402518602 -0.61566148304635926 0 0.78801074757464917 0.39400537378732459 0 0.30783074152317963 1 I I #
face $-1 $-1 $645 $66 $-1 $646 reversed single #
loop $-1 $-1 $322 $316 #
plane-surface $-1 0 0 8.815086752439905 0 0 1 1 0 0 forward_v I I I I #
coedge $-1 $647 $648 $649 $650 reversed $317 $-1 #
coedge $-1 $651 $319 $321 $479 forward $200 $-1 #
coedge $-1 $319 $651 $647 $652 forward $200 $-1 #
coedge $-1 $649 $322 $319 $476 forward $470 $-1 #
edge $-1 $482 2.14421642210573 $653 8.427844582031236 $475 $654 forward 7 unknown #
coedge $-1 $655 $656 $320 $478 forward $645 $-1 #
edge $-1 $657 -30.895594302896676 $481 -24.172852678520584 $477 $658 forward 7 unknown #
edge $-1 $482 -10.919542328864317 $657 -9.1534652039358102e-015 $321 $659 forward 7 unknown #
coedge $-1 $322 $649 $655 $660 forward $470 $-1 #
vertex $-1 $323 $661 #
vertex $-1 $323 $662 #
straight-curve $-1 -45.222985985356438 7.4302469241742131 8.8150867524399033 1 0 0 I I #
coedge $-1 $484 $484 $-1 $663 reversed $326 $-1 #
edge $-1 $664 0 $664 6.2831853071796004 $327 $665 forward 7 unknown #
vertex $-1 $330 $666 #
ellipse-curve $-1 -36.232325929148772 9.225569255581501 5.4537159402518602 -0.61566148304635926 0 0.78801074757464917 0.39400537378732459 0 0.30783074152317963 1 I I #
coedge $-1 $488 $488 $-1 $667 reversed $333 $-1 #
edge $-1 $668 0 $668 6.2831853071796004 $334 $669 forward 7 unknown #
vertex $-1 $337 $670 #
ellipse-curve $-1 -36.232325929148772 11.918552752692431 5.4537159402518602 -0.61566148304635926 0 0.78801074757464917 0.39400537378732459 0 0.30783074152317963 1 I I #
face $-1 $-1 $671 $69 $-1 $672 reversed single #
loop $-1 $-1 $344 $338 #
plane-surface $-1 0 0 8.815086752439905 0 0 1 1 0 0 forward_v I I I I #
coedge $-1 $673 $674 $675 $676 reversed $339 $-1 #
coedge $-1 $677 $341 $343 $502 forward $214 $-1 #
coedge $-1 $341 $677 $673 $678 forward $214 $-1 #
coedge $-1 $675 $344 $341 $499 forward $493 $-1 #
edge $-1 $505 7.9110960780678443 $679 14.19472423799335 $498 $680 forward 7 unknown #
coedge $-1 $681 $682 $342 $501 forward $671 $-1 #
edge $-1 $683 -30.895594302896676 $504 -24.172852678520584 $500 $684 forward 7 unknown #
edge $-1 $505 -10.919542328864317 $683 -9.1534652039358102e-015 $343 $685 forward 7 unknown #
coedge $-1 $344 $675 $681 $686 forward $493 $-1 #
vertex $-1 $345 $687 #
vertex $-1 $345 $688 #
straight-curve $-1 -45.222985985356438 18.964006236098442 8.8150867524399033 1 0 0 I I #
coedge $-1 $507 $507 $-1 $689 reversed $348 $-1 #
edge $-1 $690 0 $690 6.2831853071796004 $349 $691 forward 7 unknown #
vertex $-1 $352 $692 #
ellipse-curve $-1 -36.232325929148772 20.75932856750573 5.4537159402518602 -0.61566148304635926 0 0.78801074757464917 0.39400537378732459 0 0.30783074152317963 1 I I #
coedge $-1 $511 $511 $-1 $693 reversed $355 $-1 #
edge $-1 $694 0 $694 6.2831853071796004 $356 $695 forward 7 unknown #
vertex $-1 $359 $696 #
ellipse-curve $-1 -36.232325929148772 23.45231206461666 5.4537159402518602 -0.61566148304635926 0 0.78801074757464917 0.39400537378732459 0 0.30783074152317963 1 I I #
face $-1 $-1 $375 $54 $-1 $697 reversed single #
loop $-1 $-1 $531 $360 #
plane-surface $-1 0 27.439434158911556 0 0 -1 0 0 0 -1 forward_v I I I I #
coedge $-1 $698 $529 $532 $699 forward $361 $-1 #
coedge $-1 $535 $363 $364 $523 reversed $228 $-1 #
coedge $-1 $529 $698 $363 $521 reversed $361 $-1 #
edge $-1 $536 -8.815086752439905 $700 8.815086752439905 $520 $701 forward 7 unknown #
coedge $-1 $365 $364 $698 $702 forward $145 $-1 #
edge $-1 $527 -40.53468428601947 $700 40.53468428601947 $519 $703 forward 7 unknown #
coedge $-1 $532 $531 $365 $525 reversed $516 $-1 #
edge $-1 $704 -40.53468428601947 $526 40.53468428601947 $524 $705 forward 7 unknown #
vertex $-1 $367 $706 #
vertex $-1 $538 $707 #
straight-curve $-1 40.53468428601947 0 -8.815086752439905 0 -1 0 I I #
coedge $-1 $518 $520 $368 $530 reversed $361 $-1 #
edge $-1 $533 -27.439434158911556 $536 27.439434158911556 $529 $708 forward 7 unknown #
coedge $-1 $524 $369 $374 $539 forward $516 $-1 #
coedge $-1 $369 $524 $518 $699 reversed $516 $-1 #
vertex $-1 $370 $709 #
straight-curve $-1 0 27.439434158911556 8.815086752439905 -1 0 0 I I #
coedge $-1 $371 $519 $373 $538 reversed $228 $-1 #
vertex $-1 $530 $710 #
straight-curve $-1 0 -27.439434158911556 8.815086752439905 1 0 0 I I #
edge $-1 $376 -8.815086752439905 $527 8.815086752439905 $373 $711 forward 7 unknown #
edge $-1 $377 -8.815086752439905 $526 8.815086752439905 $374 $712 forward 7 unknown #
point $-1 40.53468428601947 -27.439434158911556 8.815086752439905 #
point $-1 40.53468428601947 27.439434158911556 8.815086752439905 #
face $-1 $-1 $556 $55 $-1 $713 reversed single #
loop $-1 $-1 $714 $379 #
plane-surface $-1 0 -37.04979685526127 -6.7562782741615353 0 1 0 0 0 1 forward_v I I I I #
coedge $-1 $715 $382 $391 $560 reversed $236 $-1 #
coedge $-1 $382 $715 $383 $548 reversed $236 $-1 #
coedge $-1 $384 $383 $716 $717 forward $149 $-1 #
edge $-1 $552 27.439434158911556 $718 37.04979685526127 $546 $719 forward 7 unknown #
coedge $-1 $720 $388 $384 $550 reversed $556 $-1 #
edge $-1 $721 -37.04979685526127 $551 -27.439434158911556 $549 $722 forward 7 unknown #
vertex $-1 $389 $723 #
vertex $-1 $548 $724 #
straight-curve $-1 0 -27.439434158911556 -8.815086752439905 1 0 0 I I #
straight-curve $-1 40.53468428601947 -27.439434158911556 0 0 0 1 I I #
coedge $-1 $388 $720 $390 $559 reversed $556 $-1 #
loop $-1 $-1 $388 $542 #
straight-curve $-1 -40.53468428601947 -27.439434158911556 0 0 0 -1 I I #
coedge $-1 $391 $390 $725 $726 forward $380 $-1 #
edge $-1 $392 -4.8051813481748553 $727 4.8051813481748553 $555 $728 forward 7 unknown #
edge $-1 $729 -4.8051813481748553 $393 4.8051813481748553 $545 $730 forward 7 unknown #
point $-1 -40.53468428601947 -27.43943415891156 -4.6974697958831655 #
point $-1 40.53468428601947 -27.43943415891156 -4.6974697958831655 #
plane-surface $-1 0 0 8.815086752439905 0 0 1 1 0 0 forward_v I I I I #
coedge $-1 $574 $573 $566 $731 forward $396 $-1 #
coedge $-1 $566 $398 $400 $570 reversed $244 $-1 #
coedge $-1 $398 $565 $564 $731 reversed $244 $-1 #
coedge $-1 $406 $401 $398 $568 forward $407 $-1 #
edge $-1 $571 25.624469821228388 $732 30.221671369670801 $567 $733 forward 7 unknown #
coedge $-1 $400 $399 $574 $734 reversed $153 $-1 #
edge $-1 $735 -81.069368572038925 $571 -75.457221706823475 $565 $736 forward 7 unknown #
vertex $-1 $402 $737 #
straight-curve $-1 35.937482737577056 -5.9658399501444146 8.8150867524399068 0 -1 0 I I #
coedge $-1 $564 $403 $406 $578 reversed $396 $-1 #
coedge $-1 $403 $564 $569 $734 forward $396 $-1 #
vertex $-1 $404 $738 #
straight-curve $-1 40.53468428601947 -6.0342883380158163 59.251855104583854 0 0 1 I I #
straight-curve $-1 -25.873454289363032 -6.0342883380158163 52.095571633785198 0.81915203911291934 0 -0.57357644374324357 I I #
edge $-1 $732 -17.829071462561842 $408 -6.0342883380158163 $573 $739 forward 7 unknown #
point $-1 40.53468428601947 -6.0342883380158163 8.815086752439905 #
point $-1 35.937482737577056 -6.0342883380158163 8.8150867524399033 #
edge $-1 $740 1 $740 0 $411 $-1 forward 7 unknown #
vertex $-1 $412 $741 #
ellipse-curve $-1 37.272467384242439 -15.470114837652638 5.8294027066809884 0.57357644374324357 0 0.81915203911291934 0.40957601955645967 0 -0.28678822187162178 1 I I #
point $-1 38.645659531354731 -15.470114837652638 6.9188009102107486 #
edge $-1 $742 1 $742 0 $415 $-1 forward 7 unknown #
vertex $-1 $416 $743 #
ellipse-curve $-1 37.272467384242439 -11.931679900288829 5.8294027066809884 0.57357644374324357 0 0.81915203911291934 0.40957601955645967 0 -0.28678822187162178 1 I I #
point $-1 38.645659531354731 -11.931679900288829 6.9188009102107486 #
edge $-1 $744 1 $744 0 $419 $-1 forward 7 unknown #
vertex $-1 $420 $745 #
ellipse-curve $-1 37.272467384242439 -8.3932449629250208 5.8294027066809884 0.57357644374324357 0 0.81915203911291934 0.40957601955645967 0 -0.28678822187162178 1 I I #
point $-1 38.645659531354731 -8.3932449629250208 6.9188009102107486 #
loop $-1 $-1 $431 $423 #
plane-surface $-1 -40.53468428601947 0 0 1 0 0 0 0 -1 forward_v I I I I #
coedge $-1 $596 $426 $428 $600 reversed $273 $-1 #
coedge $-1 $426 $595 $746 $747 reversed $273 $-1 #
coedge $-1 $434 $429 $426 $598 forward $424 $-1 #
edge $-1 $601 -13.293018413078357 $748 -4.6883016993369679 $597 $749 forward 7 unknown #
coedge $-1 $428 $427 $604 $750 reversed $172 $-1 #
edge $-1 $751 9.1534652039358102e-015 $601 10.919542328864317 $595 $752 forward 7 unknown #
vertex $-1 $430 $753 #
straight-curve $-1 -31.929967572278084 -6.2477288098557455 8.815086752439905 0 1 0 I I #
coedge $-1 $746 $431 $434 $608 reversed $593 $-1 #
coedge $-1 $431 $746 $599 $750 forward $593 $-1 #
vertex $-1 $432 $754 #
straight-curve $-1 -40.53468428601947 -15.637271699674244 32.987939430960488 0 0 1 I I #
straight-curve $-1 -40.534684286019477 -15.637271699674244 2.0923451280638048 -0.78801074757464917 0 -0.61566148304635926 I I #
edge $-1 $748 9.3536435397487381 $435 15.637271699674244 $603 $755 forward 7 unknown #
point $-1 -40.53468428601947 -15.637271699674244 8.815086752439905 #
point $-1 -31.92996757227808 -15.637271699674244 8.815086752439905 #
edge $-1 $756 1 $756 0 $438 $-1 forward 7 unknown #
vertex $-1 $439 $757 #
ellipse-curve $-1 -35.556276372537205 -13.841949368266956 4.5884119847941216 -0.61566148304635926 0 0.78801074757464917 0.39400537378732459 0 0.30783074152317963 1 I I #
point $-1 -35.838320555361442 -13.841949368266956 5.7615466817750303 #
edge $-1 $758 1 $758 0 $442 $-1 forward 7 unknown #
vertex $-1 $443 $759 #
ellipse-curve $-1 -35.556276372537205 -11.148965871156026 4.5884119847941216 -0.61566148304635926 0 0.78801074757464917 0.39400537378732459 0 0.30783074152317963 1 I I #
point $-1 -35.838320555361442 -11.148965871156026 5.7615466817750303 #
loop $-1 $-1 $454 $446 #
plane-surface $-1 -40.53468428601947 0 0 1 0 0 0 0 -1 forward_v I I I I #
coedge $-1 $622 $449 $451 $626 reversed $295 $-1 #
coedge $-1 $449 $621 $760 $761 reversed $295 $-1 #
coedge $-1 $457 $452 $449 $624 forward $447 $-1 #
edge $-1 $627 -13.293018413078357 $762 -4.6883016993369679 $623 $763 forward 7 unknown #
coedge $-1 $451 $450 $630 $764 reversed $186 $-1 #
edge $-1 $765 9.1534652039358102e-015 $627 10.919542328864317 $621 $766 forward 7 unknown #
vertex $-1 $453 $767 #
straight-curve $-1 -31.929967572278084 -0.48084915389363125 8.815086752439905 0 1 0 I I #
coedge $-1 $760 $454 $457 $634 reversed $619 $-1 #
coedge $-1 $454 $760 $625 $764 forward $619 $-1 #
vertex $-1 $455 $768 #
straight-curve $-1 -40.53468428601947 -4.1035123877500155 32.987939430960488 0 0 1 I I #
straight-curve $-1 -40.534684286019477 -4.1035123877500155 2.0923451280638048 -0.78801074757464917 0 -0.61566148304635926 I I #
edge $-1 $762 -2.1801157721754905 $458 4.1035123877500155 $629 $769 forward 7 unknown #
point $-1 -40.53468428601947 -4.1035123877500155 8.815086752439905 #
point $-1 -31.92996757227808 -4.1035123877500155 8.815086752439905 #
edge $-1 $770 1 $770 0 $461 $-1 forward 7 unknown #
vertex $-1 $462 $771 #
ellipse-curve $-1 -35.556276372537205 -2.3081900563427276 4.5884119847941216 -0.61566148304635926 0 0.78801074757464917 0.39400537378732459 0 0.30783074152317963 1 I I #
point $-1 -35.838320555361442 -2.3081900563427276 5.7615466817750303 #
edge $-1 $772 1 $772 0 $465 $-1 forward 7 unknown #
vertex $-1 $466 $773 #
ellipse-curve $-1 -35.556276372537205 0.38479344076820254 4.5884119847941216 -0.61566148304635926 0 0.78801074757464917 0.39400537378732459 0 0.30783074152317963 1 I I #
point $-1 -35.838320555361442 0.38479344076820254 5.7615466817750303 #
loop $-1 $-1 $477 $469 #
plane-surface $-1 -40.53468428601947 0 0 1 0 0 0 0 -1 forward_v I I I I #
coedge $-1 $648 $472 $474 $652 reversed $317 $-1 #
coedge $-1 $472 $647 $774 $775 reversed $317 $-1 #
coedge $-1 $480 $475 $472 $650 forward $470 $-1 #
edge $-1 $653 -13.293018413078357 $776 -4.6883016993369679 $649 $777 forward 7 unknown #
coedge $-1 $474 $473 $656 $778 reversed $200 $-1 #
edge $-1 $779 9.1534652039358102e-015 $653 10.919542328864317 $647 $780 forward 7 unknown #
vertex $-1 $476 $781 #
straight-curve $-1 -31.929967572278084 5.286030502068483 8.815086752439905 0 1 0 I I #
coedge $-1 $774 $477 $480 $660 reversed $645 $-1 #
coedge $-1 $477 $774 $651 $778 forward $645 $-1 #
vertex $-1 $478 $782 #
straight-curve $-1 -40.53468428601947 7.4302469241742131 32.987939430960488 0 0 1 I I #
straight-curve $-1 -40.534684286019477 7.4302469241742131 2.0923451280638048 -0.78801074757464917 0 -0.61566148304635926 I I #
edge $-1 $776 -13.713875084099719 $481 -7.4302469241742131 $655 $783 forward 7 unknown #
point $-1 -40.53468428601947 7.4302469241742131 8.815086752439905 #
point $-1 -31.92996757227808 7.4302469241742131 8.815086752439905 #
edge $-1 $784 1 $784 0 $484 $-1 forward 7 unknown #
vertex $-1 $485 $785 #
ellipse-curve $-1 -35.556276372537205 9.225569255581501 4.5884119847941216 -0.61566148304635926 0 0.78801074757464917 0.39400537378732459 0 0.30783074152317963 1 I I #
point $-1 -35.838320555361442 9.225569255581501 5.7615466817750303 #
edge $-1 $786 1 $786 0 $488 $-1 forward 7 unknown #
vertex $-1 $489 $787 #
ellipse-curve $-1 -35.556276372537205 11.918552752692431 4.5884119847941216 -0.61566148304635926 0 0.78801074757464917 0.39400537378732459 0 0.30783074152317963 1 I I #
point $-1 -35.838320555361442 11.918552752692431 5.7615466817750303 #
loop $-1 $-1 $500 $492 #
plane-surface $-1 -40.53468428601947 0 0 1 0 0 0 0 -1 forward_v I I I I #
coedge $-1 $674 $495 $497 $678 reversed $339 $-1 #
coedge $-1 $495 $673 $788 $789 reversed $339 $-1 #
coedge $-1 $503 $498 $495 $676 forward $493 $-1 #
edge $-1 $679 -13.293018413078357 $790 -4.6883016993369679 $675 $791 forward 7 unknown #
coedge $-1 $497 $496 $682 $792 reversed $214 $-1 #
edge $-1 $793 9.1534652039358102e-015 $679 10.919542328864317 $673 $794 forward 7 unknown #
vertex $-1 $499 $795 #
straight-curve $-1 -31.929967572278084 11.052910158030597 8.815086752439905 0 1 0 I I #
coedge $-1 $788 $500 $503 $686 reversed $671 $-1 #
coedge $-1 $500 $788 $677 $792 forward $671 $-1 #
vertex $-1 $501 $796 #
straight-curve $-1 -40.53468428601947 18.964006236098442 32.987939430960488 0 0 1 I I #
straight-curve $-1 -40.534684286019477 18.964006236098442 2.0923451280638048 -0.78801074757464917 0 -0.61566148304635926 I I #
edge $-1 $790 -25.247634396023948 $504 -18.964006236098442 $681 $797 forward 7 unknown #
point $-1 -40.53468428601947 18.964006236098442 8.815086752439905 #
point $-1 -31.92996757227808 18.964006236098442 8.815086752439905 #
edge $-1 $798 1 $798 0 $507 $-1 forward 7 unknown #
vertex $-1 $508 $799 #
ellipse-curve $-1 -35.556276372537205 20.75932856750573 4.5884119847941216 -0.61566148304635926 0 0.78801074757464917 0.39400537378732459 0 0.30783074152317963 1 I I #
point $-1 -35.838320555361442 20.75932856750573 5.7615466817750303 #
edge $-1 $800 1 $800 0 $511 $-1 forward 7 unknown #
vertex $-1 $512 $801 #
ellipse-curve $-1 -35.556276372537205 23.45231206461666 4.5884119847941216 -0.61566148304635926 0 0.78801074757464917 0.39400537378732459 0 0.30783074152317963 1 I I #
point $-1 -35.838320555361442 23.45231206461666 5.7615466817750303 #
plane-surface $-1 40.53468428601947 0 0 -1 0 0 0 0 1 forward_v I I I I #
coedge $-1 $520 $518 $522 $702 reversed $361 $-1 #
edge $-1 $533 -8.815086752439905 $704 8.815086752439905 $532 $802 forward 7 unknown #
vertex $-1 $702 $803 #
straight-curve $-1 -40.53468428601947 -27.439434158911556 0 0 0 -1 I I #
edge $-1 $700 -27.439434158911556 $704 27.439434158911556 $698 $804 forward 7 unknown #
straight-curve $-1 0 -27.439434158911556 -8.815086752439905 -1 0 0 I I #
vertex $-1 $525 $805 #
straight-curve $-1 0 27.439434158911556 -8.815086752439905 1 0 0 I I #
point $-1 40.53468428601947 27.439434158911556 -8.815086752439905 #
point $-1 40.53468428601947 -27.439434158911556 -8.815086752439905 #
straight-curve $-1 -40.53468428601947 0 8.815086752439905 0 -1 0 I I #
point $-1 -40.53468428601947 27.439434158911556 8.815086752439905 #
point $-1 -40.53468428601947 -27.439434158911556 8.815086752439905 #
straight-curve $-1 40.53468428601947 -27.439434158911556 0 0 0 -1 I I #
straight-curve $-1 40.53468428601947 27.439434158911556 0 0 0 -1 I I #
plane-surface $-1 -40.53468428601947 0 0 1 0 0 0 0 -1 forward_v I I I I #
coedge $-1 $716 $725 $720 $806 forward $543 $-1 #
coedge $-1 $546 $545 $807 $808 forward $236 $-1 #
coedge $-1 $807 $714 $547 $717 reversed $543 $-1 #
edge $-1 $718 -40.53468428601947 $721 40.53468428601947 $716 $809 forward 7 unknown #
vertex $-1 $808 $810 #
straight-curve $-1 40.53468428601947 0 -8.815086752439905 0 -1 0 I I #
coedge $-1 $555 $549 $714 $806 reversed $556 $-1 #
vertex $-1 $550 $811 #
straight-curve $-1 -40.53468428601947 0 -8.815086752439905 0 1 0 I I #
point $-1 -40.53468428601947 -27.439434158911556 -8.815086752439905 #
point $-1 40.53468428601947 -27.439434158911556 -8.815086752439905 #
coedge $-1 $714 $807 $558 $726 reversed $543 $-1 #
edge $-1 $727 -40.53468428601947 $729 40.53468428601947 $725 $812 forward 7 unknown #
vertex $-1 $559 $813 #
straight-curve $-1 -40.53468428601947 -32.244615507086415 -4.6974697958831655 0 -1 0 I I #
vertex $-1 $560 $814 #
straight-curve $-1 40.53468428601947 -32.244615507086415 -4.6974697958831655 0 1 0 I I #
edge $-1 $732 50.43676835214395 $735 53.655763592859017 $564 $815 forward 7 unknown #
vertex $-1 $578 $816 #
straight-curve $-1 10.313012916348669 -17.829071462561842 8.8150867524399033 1 0 0 I I #
edge $-1 $735 -11.863231512417428 $575 -0.068448387871401728 $574 $817 forward 7 unknown #
vertex $-1 $734 $818 #
straight-curve $-1 -25.873454289363032 -17.829071462561842 52.095571633785198 -0.81915203911291934 0 0.57357644374324357 I I #
point $-1 35.937482737577056 -17.829071462561842 8.8150867524399033 #
point $-1 40.534684286019477 -6.0342883380158163 5.5960915117248362 #
straight-curve $-1 40.53468428601947 0 8.815086752439905 0 1 0 I I #
vertex $-1 $581 $819 #
point $-1 37.6820434037989 -15.470114837652638 5.5426144848093672 #
vertex $-1 $585 $820 #
point $-1 37.6820434037989 -11.931679900288829 5.5426144848093672 #
vertex $-1 $589 $821 #
point $-1 37.6820434037989 -8.3932449629250208 5.5426144848093672 #
coedge $-1 $604 $603 $596 $747 forward $593 $-1 #
edge $-1 $748 24.172852678520584 $751 30.895594302896676 $746 $822 forward 7 unknown #
vertex $-1 $608 $823 #
straight-curve $-1 -45.222985985356438 -9.3536435397487381 8.8150867524399033 -1 0 0 I I #
edge $-1 $751 3.1059147298929926 $605 9.3895428898184985 $604 $824 forward 7 unknown #
vertex $-1 $750 $825 #
straight-curve $-1 -40.534684286019477 -9.3536435397487381 2.0923451280638048 0.78801074757464917 0 0.61566148304635926 I I #
point $-1 -31.92996757227808 -9.3536435397487381 8.815086752439905 #
point $-1 -40.53468428601947 -15.637271699674244 2.0923451280638106 #
straight-curve $-1 -40.53468428601947 0 8.815086752439905 0 -1 0 I I #
vertex $-1 $611 $826 #
point $-1 -35.162270998749882 -13.841949368266956 4.8962427263173014 #
vertex $-1 $615 $827 #
point $-1 -35.162270998749882 -11.148965871156026 4.8962427263173014 #
coedge $-1 $630 $629 $622 $761 forward $619 $-1 #
edge $-1 $762 24.172852678520584 $765 30.895594302896676 $760 $828 forward 7 unknown #
vertex $-1 $634 $829 #
straight-curve $-1 -45.222985985356438 2.1801157721754905 8.8150867524399033 -1 0 0 I I #
edge $-1 $765 -2.6609649260691217 $631 3.6226632338563842 $630 $830 forward 7 unknown #
vertex $-1 $764 $831 #
straight-curve $-1 -40.534684286019477 2.1801157721754905 2.0923451280638048 0.78801074757464917 0 0.61566148304635926 I I #
point $-1 -31.92996757227808 2.1801157721754905 8.815086752439905 #
point $-1 -40.53468428601947 -4.1035123877500155 2.0923451280638106 #
straight-curve $-1 -40.53468428601947 0 8.815086752439905 0 -1 0 I I #
vertex $-1 $637 $832 #
point $-1 -35.162270998749882 -2.3081900563427276 4.8962427263173014 #
vertex $-1 $641 $833 #
point $-1 -35.162270998749882 0.38479344076820254 4.8962427263173014 #
coedge $-1 $656 $655 $648 $775 forward $645 $-1 #
edge $-1 $776 24.172852678520584 $779 30.895594302896676 $774 $834 forward 7 unknown #
vertex $-1 $660 $835 #
straight-curve $-1 -45.222985985356438 13.713875084099719 8.8150867524399033 -1 0 0 I I #
edge $-1 $779 -8.427844582031236 $657 -2.14421642210573 $656 $836 forward 7 unknown #
vertex $-1 $778 $837 #
straight-curve $-1 -40.534684286019477 13.713875084099719 2.0923451280638048 0.78801074757464917 0 0.61566148304635926 I I #
point $-1 -31.92996757227808 13.713875084099719 8.815086752439905 #
point $-1 -40.53468428601947 7.4302469241742131 2.0923451280638106 #
straight-curve $-1 -40.53468428601947 0 8.815086752439905 0 -1 0 I I #
vertex $-1 $663 $838 #
point $-1 -35.162270998749882 9.225569255581501 4.8962427263173014 #
vertex $-1 $667 $839 #
point $-1 -35.162270998749882 11.918552752692431 4.8962427263173014 #
coedge $-1 $682 $681 $674 $789 forward $671 $-1 #
edge $-1 $790 24.172852678520584 $793 30.895594302896676 $788 $840 forward 7 unknown #
vertex $-1 $686 $841 #
straight-curve $-1 -45.222985985356438 25.247634396023948 8.8150867524399033 -1 0 0 I I #
edge $-1 $793 -14.19472423799335 $683 -7.9110960780678443 $682 $842 forward 7 unknown #
vertex $-1 $792 $843 #
straight-curve $-1 -40.534684286019477 25.247634396023948 2.0923451280638048 0.78801074757464917 0 0.61566148304635926 I I #
point $-1 -31.92996757227808 25.247634396023948 8.815086752439905 #
point $-1 -40.53468428601947 18.964006236098442 2.0923451280638106 #
straight-curve $-1 -40.53468428601947 0 8.815086752439905 0 -1 0 I I #
vertex $-1 $689 $844 #
point $-1 -35.162270998749882 20.75932856750573 4.8962427263173014 #
vertex $-1 $693 $845 #
point $-1 -35.162270998749882 23.45231206461666 4.8962427263173014 #
straight-curve $-1 -40.53468428601947 27.439434158911556 0 0 0 -1 I I #
point $-1 -40.53468428601947 -27.439434158911556 -8.815086752439905 #
straight-curve $-1 -40.53468428601947 0 -8.815086752439905 0 1 0 I I #
point $-1 -40.53468428601947 27.439434158911556 -8.815086752439905 #
edge $-1 $727 -2.0588084782783698 $721 2.0588084782783698 $720 $846 forward 7 unknown #
coedge $-1 $725 $716 $715 $808 reversed $543 $-1 #
edge $-1 $729 -2.0588084782783698 $718 2.0588084782783698 $715 $847 forward 7 unknown #
straight-curve $-1 0 -37.04979685526127 -8.815086752439905 -1 0 0 I I #
point $-1 40.53468428601947 -37.04979685526127 -8.815086752439905 #
point $-1 -40.53468428601947 -37.04979685526127 -8.815086752439905 #
straight-curve $-1 0 -37.04979685526127 -4.6974697958831655 1 0 0 I I #
point $-1 -40.53468428601947 -37.04979685526127 -4.6974697958831655 #
point $-1 40.53468428601947 -37.04979685526127 -4.6974697958831655 #
straight-curve $-1 40.53468428601947 -17.829071462561842 59.251855104583854 0 0 -1 I I #
point $-1 40.53468428601947 -17.829071462561842 8.815086752439905 #
straight-curve $-1 40.53468428601947 -5.9658399501444146 5.5960915117248327 0 1 0 I I #
point $-1 40.534684286019477 -17.829071462561842 5.5960915117248362 #
point $-1 36.985679162370822 -15.470114837652638 5.4198266871245293 #
point $-1 36.985679162370822 -11.931679900288829 5.4198266871245293 #
point $-1 36.985679162370822 -8.3932449629250208 5.4198266871245293 #
straight-curve $-1 -40.53468428601947 -9.3536435397487381 32.987939430960488 0 0 -1 I I #
point $-1 -40.53468428601947 -9.3536435397487381 8.815086752439905 #
straight-curve $-1 -40.53468428601947 -6.2477288098557455 2.0923451280638083 0 -1 0 I I #
point $-1 -40.53468428601947 -9.3536435397487381 2.0923451280638106 #
point $-1 -35.248445631014029 -13.841949368266956 4.194406611006797 #
point $-1 -35.248445631014029 -11.148965871156026 4.194406611006797 #
straight-curve $-1 -40.53468428601947 2.1801157721754905 32.987939430960488 0 0 -1 I I #
point $-1 -40.53468428601947 2.1801157721754905 8.815086752439905 #
straight-curve $-1 -40.53468428601947 -0.48084915389363125 2.0923451280638083 0 -1 0 I I #
point $-1 -40.53468428601947 2.1801157721754905 2.0923451280638106 #
point $-1 -35.248445631014029 -2.3081900563427276 4.194406611006797 #
point $-1 -35.248445631014029 0.38479344076820254 4.194406611006797 #
straight-curve $-1 -40.53468428601947 13.713875084099719 32.987939430960488 0 0 -1 I I #
point $-1 -40.53468428601947 13.713875084099719 8.815086752439905 #
straight-curve $-1 -40.53468428601947 5.286030502068483 2.0923451280638083 0 -1 0 I I #
point $-1 -40.53468428601947 13.713875084099719 2.0923451280638106 #
point $-1 -35.248445631014029 9.225569255581501 4.194406611006797 #
point $-1 -35.248445631014029 11.918552752692431 4.194406611006797 #
straight-curve $-1 -40.53468428601947 25.247634396023948 32.987939430960488 0 0 -1 I I #
point $-1 -40.53468428601947 25.247634396023948 8.815086752439905 #
straight-curve $-1 -40.53468428601947 11.052910158030597 2.0923451280638083 0 -1 0 I I #
point $-1 -40.53468428601947 25.247634396023948 2.0923451280638106 #
point $-1 -35.248445631014029 20.75932856750573 4.194406611006797 #
point $-1 -35.248445631014029 23.45231206461666 4.194406611006797 #
straight-curve $-1 -40.53468428601947 -37.04979685526127 -6.7562782741615353 0 0 -1 I I #
straight-curve $-1 40.53468428601947 -37.04979685526127 -6.7562782741615353 0 0 -1 I I #
End-of-ACIS-data 