500 0 8 0           
7 Unknown 11 ACIS 5.0 NT 24 Fri Mar 26 01:01:08 1999 
-1 9.9999999999999995e-007 1e-010 
body $-1 $8 $-1 $9 #
body $-1 $10 $-1 $11 #
body $-1 $12 $-1 $13 #
body $-1 $14 $-1 $15 #
body $-1 $16 $-1 $17 #
body $-1 $18 $-1 $19 #
body $-1 $20 $-1 $21 #
body $-1 $22 $-1 $23 #
lump $-1 $-1 $24 $0 #
transform $-1 1 0 0 0 1 0 0 0 1 79.739982299264511 45.262727768034004 21.359554030932223 1 rotate no_reflect no_shear #
lump $-1 $-1 $25 $1 #
transform $-1 1 0 0 0 1 0 0 0 1 79.739982299264511 45.262727768034004 21.359554030932223 1 rotate no_reflect no_shear #
lump $-1 $-1 $26 $2 #
transform $-1 1 0 0 0 1 0 0 0 1 79.739982299264511 45.262727768034004 21.359554030932223 1 rotate no_reflect no_shear #
lump $-1 $-1 $27 $3 #
transform $-1 1 0 0 0 1 0 0 0 1 79.739982299264511 45.262727768034004 21.359554030932223 1 rotate no_reflect no_shear #
lump $-1 $-1 $28 $4 #
transform $-1 1 0 0 0 1 0 0 0 1 79.739982299264511 45.262727768034004 21.359554030932223 1 rotate no_reflect no_shear #
lump $-1 $-1 $29 $5 #
transform $-1 1 0 0 0 1 0 0 0 1 79.739982299264511 45.262727768034004 21.359554030932223 1 rotate no_reflect no_shear #
lump $-1 $-1 $30 $6 #
transform $-1 1 0 0 0 1 0 0 0 1 79.739982299264511 45.262727768034004 21.359554030932223 1 rotate no_reflect no_shear #
lump $-1 $-1 $31 $7 #
transform $-1 1 0 0 0 1 0 0 0 1 79.739982299264511 45.262727768034004 21.359554030932223 1 rotate no_reflect no_shear #
shell $-1 $-1 $-1 $32 $-1 $8 #
shell $-1 $-1 $-1 $33 $-1 $10 #
shell $-1 $-1 $-1 $34 $-1 $12 #
shell $-1 $-1 $-1 $35 $-1 $14 #
shell $-1 $-1 $-1 $36 $-1 $16 #
shell $-1 $-1 $-1 $37 $-1 $18 #
shell $-1 $-1 $-1 $38 $-1 $20 #
shell $-1 $-1 $-1 $39 $-1 $22 #
face $-1 $40 $41 $24 $-1 $42 forward single #
face $-1 $43 $44 $25 $-1 $45 forward single #
face $-1 $46 $47 $26 $-1 $48 reversed single #
face $-1 $49 $50 $27 $-1 $51 forward single #
face $-1 $52 $53 $28 $-1 $54 forward single #
face $-1 $55 $56 $29 $-1 $57 reversed single #
face $-1 $58 $59 $30 $-1 $60 forward single #
face $-1 $61 $62 $31 $-1 $63 forward single #
face $-1 $64 $65 $24 $-1 $66 reversed single #
loop $-1 $-1 $67 $32 #
plane-surface $-1 0 0 21.359554030932223 0 0 1 1 0 0 forward_v I I I I #
face $-1 $68 $69 $25 $-1 $70 reversed single #
loop $-1 $-1 $71 $33 #
plane-surface $-1 0 -45.262727768034004 0 0 1 0 0 0 1 forward_v I I I I #
face $-1 $72 $73 $26 $-1 $74 reversed single #
loop $-1 $-1 $75 $34 #
plane-surface $-1 67.936199693475203 -18.105503667015881 227.6238244941753 0 -1 0 -0.66913061440640931 0 -0.74314481823134659 forward_v I I I I #
face $-1 $76 $77 $27 $-1 $78 forward single #
loop $-1 $79 $80 $35 #
cone-surface $-1 68.625533718322615 -24.921173595341376 11.22953671921436 -0.66913061440640931 0 -0.74314481823134659 0.74314481823134659 0 -0.66913061440640931 1 I I 0 1 1 forward I I I I #
face $-1 $81 $82 $28 $-1 $83 forward single #
loop $-1 $84 $85 $36 #
cone-surface $-1 68.625533718322615 -20.83177163834608 11.22953671921436 -0.66913061440640931 0 -0.74314481823134659 0.74314481823134659 0 -0.66913061440640931 1 I I 0 1 1 forward I I I I #
face $-1 $86 $87 $29 $-1 $88 reversed single #
loop $-1 $-1 $89 $37 #
plane-surface $-1 -186.45290899659062 -27.647441566671574 120.91089779684916 0 1 0 -0.66913061440640931 0 0.74314481823134659 forward_v I I I I #
face $-1 $90 $91 $30 $-1 $92 forward single #
loop $-1 $93 $94 $38 #
cone-surface $-1 -68.625533718322615 -24.921173595341376 11.22953671921435 0.66913061440640931 0 -0.74314481823134659 0.74314481823134659 0 0.66913061440640931 1 I I 0 1 1 forward I I I I #
face $-1 $95 $96 $31 $-1 $97 forward single #
loop $-1 $98 $99 $39 #
cone-surface $-1 -68.625533718322615 -20.83177163834608 11.22953671921435 0.66913061440640931 0 -0.74314481823134659 0.74314481823134659 0 0.66913061440640931 1 I I 0 1 1 forward I I I I #
face $-1 $100 $101 $24 $-1 $102 reversed single #
loop $-1 $-1 $103 $40 #
plane-surface $-1 0 0 -21.359554030932223 0 0 1 1 0 0 forward_v I I I I #
coedge $-1 $104 $105 $106 $107 forward $41 $-1 #
face $-1 $108 $109 $25 $-1 $110 reversed single #
loop $-1 $-1 $111 $43 #
plane-surface $-1 0 0 -21.359554030932223 0 0 1 1 0 0 forward_v I I I I #
coedge $-1 $112 $113 $114 $115 forward $44 $-1 #
face $-1 $116 $117 $26 $-1 $118 reversed single #
loop $-1 $-1 $119 $46 #
plane-surface $-1 -38.776727003850922 -22.876472616843728 109.10711519105986 0.66913061440640931 0 0.74314481823134659 0.74314481823134659 0 -0.66913061440640931 forward_v I I I I #
coedge $-1 $120 $121 $122 $123 reversed $47 $-1 #
face $-1 $-1 $124 $27 $-1 $125 forward single #
loop $-1 $126 $127 $49 #
cone-surface $-1 67.708105757788474 -24.921173595341376 10.210629766980055 -0.66913061440640931 0 -0.74314481823134659 0.3715724091156733 0 -0.33456530720320465 1 I I -0.70710678118654746 0.70710678118654746 0.5 forward I I I I #
loop $-1 $-1 $128 $35 #
coedge $-1 $80 $80 $129 $130 reversed $50 $-1 #
face $-1 $-1 $131 $28 $-1 $132 forward single #
loop $-1 $133 $134 $52 #
cone-surface $-1 67.708105757788474 -20.83177163834608 10.210629766980055 -0.66913061440640931 0 -0.74314481823134659 0.3715724091156733 0 -0.33456530720320465 1 I I -0.70710678118654746 0.70710678118654746 0.5 forward I I I I #
loop $-1 $-1 $135 $36 #
coedge $-1 $85 $85 $136 $137 reversed $53 $-1 #
face $-1 $138 $139 $29 $-1 $140 reversed single #
loop $-1 $-1 $141 $55 #
plane-surface $-1 -79.739982299264497 -22.876472616843728 2.3941884937337221 -0.66913061440640931 0 0.74314481823134659 0.74314481823134659 0 0.66913061440640931 forward_v I I I I #
coedge $-1 $142 $143 $144 $145 reversed $56 $-1 #
face $-1 $-1 $146 $30 $-1 $147 forward single #
loop $-1 $148 $149 $58 #
cone-surface $-1 -67.708105757788474 -24.921173595341376 10.210629766980045 0.66913061440640931 0 -0.74314481823134659 0.3715724091156733 0 0.33456530720320465 1 I I -0.70710678118654746 0.70710678118654746 0.5 forward I I I I #
loop $-1 $-1 $150 $38 #
coedge $-1 $94 $94 $151 $152 reversed $59 $-1 #
face $-1 $-1 $153 $31 $-1 $154 forward single #
loop $-1 $155 $156 $61 #
cone-surface $-1 -67.708105757788474 -20.83177163834608 10.210629766980045 0.66913061440640931 0 -0.74314481823134659 0.3715724091156733 0 0.33456530720320465 1 I I -0.70710678118654746 0.70710678118654746 0.5 forward I I I I #
loop $-1 $-1 $157 $39 #
coedge $-1 $99 $99 $158 $159 reversed $62 $-1 #
face $-1 $160 $161 $24 $-1 $162 reversed single #
loop $-1 $-1 $163 $64 #
plane-surface $-1 0 -45.262727768034004 0 0 1 0 0 0 1 forward_v I I I I #
coedge $-1 $164 $165 $166 $167 forward $65 $-1 #
coedge $-1 $168 $67 $169 $170 forward $41 $-1 #
coedge $-1 $67 $168 $171 $172 forward $41 $-1 #
coedge $-1 $173 $174 $67 $107 reversed $175 $-1 #
edge $-1 $176 -45.262727768034004 $177 45.262727768034004 $106 $178 forward 7 unknown #
face $-1 $179 $180 $25 $-1 $181 forward single #
loop $-1 $-1 $182 $68 #
plane-surface $-1 79.739982299264511 0 0 -1 0 0 0 0 1 forward_v I I I I #
coedge $-1 $183 $184 $185 $186 forward $69 $-1 #
coedge $-1 $185 $71 $182 $187 reversed $44 $-1 #
coedge $-1 $71 $185 $188 $189 reversed $44 $-1 #
coedge $-1 $190 $191 $71 $115 reversed $180 $-1 #
edge $-1 $192 -79.739982299264511 $193 79.739982299264511 $114 $194 forward 7 unknown #
face $-1 $195 $196 $26 $-1 $197 reversed single #
loop $-1 $-1 $198 $72 #
plane-surface $-1 67.936199693475203 -27.647441566671574 227.6238244941753 0 1 0 0.66913061440640931 0 0.74314481823134659 forward_v I I I I #
coedge $-1 $199 $200 $201 $202 reversed $73 $-1 #
coedge $-1 $121 $75 $203 $204 reversed $47 $-1 #
coedge $-1 $75 $120 $199 $205 reversed $47 $-1 #
coedge $-1 $201 $206 $75 $123 forward $207 $-1 #
edge $-1 $208 -45.77188245252691 $209 -24.708710597305029 $122 $210 forward 7 unknown #
loop $-1 $-1 $129 $76 #
plane-surface $-1 -38.776727003850922 -22.876472616843728 109.10711519105986 0.66913061440640931 0 0.74314481823134659 0.74314481823134659 0 -0.66913061440640931 forward_v I I I I #
loop $-1 $-1 $211 $49 #
coedge $-1 $127 $127 $128 $212 reversed $77 $-1 #
coedge $-1 $128 $128 $127 $212 forward $79 $-1 #
coedge $-1 $129 $129 $80 $130 forward $124 $-1 #
edge $-1 $213 0 $213 6.2831853071796004 $129 $214 forward 7 unknown #
loop $-1 $-1 $136 $81 #
plane-surface $-1 -38.776727003850922 -22.876472616843728 109.10711519105986 0.66913061440640931 0 0.74314481823134659 0.74314481823134659 0 -0.66913061440640931 forward_v I I I I #
loop $-1 $-1 $215 $52 #
coedge $-1 $134 $134 $135 $216 reversed $82 $-1 #
coedge $-1 $135 $135 $134 $216 forward $84 $-1 #
coedge $-1 $136 $136 $85 $137 forward $131 $-1 #
edge $-1 $217 0 $217 6.2831853071796004 $136 $218 forward 7 unknown #
face $-1 $219 $220 $29 $-1 $221 forward single #
loop $-1 $-1 $222 $86 #
plane-surface $-1 -186.45290899659062 -18.105503667015881 120.91089779684916 0 -1 0 0.66913061440640931 0 -0.74314481823134659 forward_v I I I I #
coedge $-1 $223 $224 $225 $226 reversed $87 $-1 #
coedge $-1 $143 $89 $227 $228 reversed $56 $-1 #
coedge $-1 $89 $142 $223 $229 reversed $56 $-1 #
coedge $-1 $225 $230 $89 $145 forward $220 $-1 #
edge $-1 $231 13.4864721990308 $232 34.549644054252724 $144 $233 forward 7 unknown #
loop $-1 $-1 $151 $90 #
plane-surface $-1 -79.739982299264497 -22.876472616843728 2.3941884937337221 -0.66913061440640931 0 0.74314481823134659 0.74314481823134659 0 0.66913061440640931 forward_v I I I I #
loop $-1 $-1 $234 $58 #
coedge $-1 $149 $149 $150 $235 reversed $91 $-1 #
coedge $-1 $150 $150 $149 $235 forward $93 $-1 #
coedge $-1 $151 $151 $94 $152 forward $146 $-1 #
edge $-1 $236 0 $236 6.2831853071796004 $151 $237 forward 7 unknown #
loop $-1 $-1 $158 $95 #
plane-surface $-1 -79.739982299264497 -22.876472616843728 2.3941884937337221 -0.66913061440640931 0 0.74314481823134659 0.74314481823134659 0 0.66913061440640931 forward_v I I I I #
loop $-1 $-1 $238 $61 #
coedge $-1 $156 $156 $157 $239 reversed $96 $-1 #
coedge $-1 $157 $157 $156 $239 forward $98 $-1 #
coedge $-1 $158 $158 $99 $159 forward $153 $-1 #
edge $-1 $240 0 $240 6.2831853071796004 $158 $241 forward 7 unknown #
face $-1 $242 $243 $24 $-1 $244 reversed single #
loop $-1 $-1 $245 $100 #
plane-surface $-1 -79.739982299264511 0 0 1 0 0 0 0 -1 forward_v I I I I #
coedge $-1 $171 $246 $173 $247 reversed $101 $-1 #
coedge $-1 $248 $103 $246 $249 forward $65 $-1 #
coedge $-1 $103 $248 $250 $251 forward $65 $-1 #
coedge $-1 $174 $173 $103 $167 reversed $175 $-1 #
edge $-1 $252 -45.262727768034004 $253 45.262727768034004 $166 $254 forward 7 unknown #
coedge $-1 $105 $104 $255 $256 forward $41 $-1 #
coedge $-1 $257 $258 $104 $170 reversed $243 $-1 #
edge $-1 $177 -79.739982299264511 $259 79.739982299264511 $169 $260 forward 7 unknown #
coedge $-1 $261 $163 $105 $172 reversed $101 $-1 #
edge $-1 $262 -79.739982299264511 $176 79.739982299264511 $171 $263 forward 7 unknown #
coedge $-1 $166 $106 $163 $247 forward $175 $-1 #
coedge $-1 $106 $166 $257 $264 reversed $175 $-1 #
loop $-1 $-1 $173 $242 #
vertex $-1 $107 $265 #
vertex $-1 $107 $266 #
straight-curve $-1 79.739982299264511 0 21.359554030932223 0 1 0 I I #
face $-1 $267 $268 $25 $-1 $269 reversed single #
loop $-1 $-1 $191 $108 #
plane-surface $-1 0 -54.070370868715216 -16.191724432664927 0 0 1 1 0 0 forward_v I I I I #
coedge $-1 $270 $271 $112 $187 forward $109 $-1 #
coedge $-1 $272 $111 $271 $273 forward $69 $-1 #
coedge $-1 $111 $272 $274 $275 forward $69 $-1 #
coedge $-1 $113 $112 $111 $186 reversed $44 $-1 #
edge $-1 $276 -79.739982299264511 $277 79.739982299264511 $111 $278 forward 7 unknown #
edge $-1 $277 -21.359554030932223 $193 -16.191724432664927 $182 $279 forward 7 unknown #
coedge $-1 $274 $280 $113 $189 forward $281 $-1 #
edge $-1 $192 16.191724432664927 $276 21.359554030932223 $188 $282 forward 7 unknown #
coedge $-1 $283 $114 $280 $284 forward $180 $-1 #
coedge $-1 $114 $283 $270 $285 forward $180 $-1 #
vertex $-1 $189 $286 #
vertex $-1 $285 $287 #
straight-curve $-1 0 -45.262727768034004 -16.191724432664927 1 0 0 I I #
face $-1 $-1 $207 $26 $-1 $288 forward single #
loop $-1 $-1 $289 $116 #
plane-surface $-1 79.739982299264511 0 0 -1 0 0 0 0 1 forward_v I I I I #
coedge $-1 $290 $291 $292 $293 reversed $117 $-1 #
coedge $-1 $294 $119 $121 $205 forward $73 $-1 #
coedge $-1 $119 $294 $290 $295 forward $73 $-1 #
coedge $-1 $292 $122 $119 $202 forward $207 $-1 #
edge $-1 $209 6.6672673585940174 $296 16.20920525824971 $201 $297 forward 7 unknown #
coedge $-1 $298 $299 $120 $204 forward $196 $-1 #
edge $-1 $300 -111.41772375335391 $208 -92.452358216155432 $203 $301 forward 7 unknown #
edge $-1 $209 131.13667088445678 $300 159.47996459852902 $121 $302 forward 7 unknown #
coedge $-1 $122 $292 $298 $303 forward $207 $-1 #
loop $-1 $-1 $292 $195 #
vertex $-1 $204 $304 #
vertex $-1 $123 $305 #
straight-curve $-1 33.968099846737601 -18.105503667015881 21.35955403093223 -1 0 0 I I #
coedge $-1 $211 $211 $-1 $306 reversed $126 $-1 #
edge $-1 $307 0 $307 6.2831853071796004 $127 $308 forward 7 unknown #
vertex $-1 $130 $309 #
ellipse-curve $-1 69.208396371653549 -24.921173595341376 11.876871262332985 0.66913061440640931 0 0.74314481823134659 0.74314481823134659 0 -0.66913061440640931 1 I I #
coedge $-1 $215 $215 $-1 $310 reversed $133 $-1 #
edge $-1 $311 0 $311 6.2831853071796004 $134 $312 forward 7 unknown #
vertex $-1 $137 $313 #
ellipse-curve $-1 69.208396371653549 -20.83177163834608 11.876871262332985 0.66913061440640931 0 0.74314481823134659 0.74314481823134659 0 -0.66913061440640931 1 I I #
face $-1 $-1 $314 $29 $-1 $315 reversed single #
loop $-1 $-1 $144 $138 #
plane-surface $-1 0 0 21.359554030932223 0 0 1 1 0 0 forward_v I I I I #
coedge $-1 $316 $317 $318 $319 reversed $139 $-1 #
coedge $-1 $320 $141 $143 $229 forward $87 $-1 #
coedge $-1 $141 $320 $316 $321 forward $87 $-1 #
coedge $-1 $318 $144 $141 $226 forward $220 $-1 #
edge $-1 $232 -16.20920525824971 $322 -6.6672673585940174 $225 $323 forward 7 unknown #
coedge $-1 $324 $325 $142 $228 forward $314 $-1 #
edge $-1 $326 -58.06126040469087 $231 -39.095894867492355 $227 $327 forward 7 unknown #
edge $-1 $232 -28.343293714072274 $326 1.9178179933549516e-014 $143 $328 forward 7 unknown #
coedge $-1 $144 $318 $324 $329 forward $220 $-1 #
vertex $-1 $228 $330 #
vertex $-1 $145 $331 #
straight-curve $-1 -93.226454498295311 -27.647441566671574 21.359554030932223 1 0 0 I I #
coedge $-1 $234 $234 $-1 $332 reversed $148 $-1 #
edge $-1 $333 0 $333 6.2831853071796004 $149 $334 forward 7 unknown #
vertex $-1 $152 $335 #
ellipse-curve $-1 -69.208396371653549 -24.921173595341376 11.876871262332969 -0.66913061440640931 0 0.74314481823134659 0.74314481823134659 0 0.66913061440640931 1 I I #
coedge $-1 $238 $238 $-1 $336 reversed $155 $-1 #
edge $-1 $337 0 $337 6.2831853071796004 $156 $338 forward 7 unknown #
vertex $-1 $159 $339 #
ellipse-curve $-1 -69.208396371653549 -20.83177163834608 11.876871262332969 -0.66913061440640931 0 0.74314481823134659 0.74314481823134659 0 0.66913061440640931 1 I I #
face $-1 $-1 $175 $24 $-1 $340 reversed single #
loop $-1 $-1 $257 $160 #
plane-surface $-1 0 45.262727768034004 0 0 -1 0 0 0 -1 forward_v I I I I #
coedge $-1 $341 $255 $258 $342 forward $161 $-1 #
coedge $-1 $163 $261 $164 $249 reversed $101 $-1 #
edge $-1 $176 -21.359554030932223 $253 21.359554030932223 $173 $343 forward 7 unknown #
coedge $-1 $165 $164 $341 $344 forward $65 $-1 #
edge $-1 $253 -79.739982299264511 $345 79.739982299264511 $246 $346 forward 7 unknown #
coedge $-1 $258 $257 $165 $251 reversed $243 $-1 #
edge $-1 $347 -79.739982299264511 $252 79.739982299264511 $250 $348 forward 7 unknown #
vertex $-1 $167 $349 #
vertex $-1 $247 $350 #
straight-curve $-1 79.739982299264511 0 -21.359554030932223 0 -1 0 I I #
coedge $-1 $245 $351 $168 $256 reversed $161 $-1 #
edge $-1 $259 -45.262727768034004 $262 45.262727768034004 $255 $352 forward 7 unknown #
coedge $-1 $250 $169 $174 $264 forward $243 $-1 #
coedge $-1 $169 $250 $245 $342 reversed $243 $-1 #
vertex $-1 $170 $353 #
straight-curve $-1 0 45.262727768034004 21.359554030932223 -1 0 0 I I #
coedge $-1 $246 $171 $351 $354 forward $101 $-1 #
vertex $-1 $256 $355 #
straight-curve $-1 0 -45.262727768034004 21.359554030932223 1 0 0 I I #
edge $-1 $177 -21.359554030932223 $252 21.359554030932223 $174 $356 forward 7 unknown #
point $-1 79.739982299264511 -45.262727768034004 21.359554030932223 #
point $-1 79.739982299264511 45.262727768034004 21.359554030932223 #
face $-1 $-1 $281 $25 $-1 $357 reversed single #
loop $-1 $-1 $358 $179 #
plane-surface $-1 0 -62.878013969396434 -18.775639231798575 0 1 0 0 0 1 forward_v I I I I #
coedge $-1 $359 $182 $191 $285 reversed $109 $-1 #
coedge $-1 $182 $359 $183 $273 reversed $109 $-1 #
coedge $-1 $184 $183 $360 $361 forward $69 $-1 #
edge $-1 $277 45.262727768034004 $362 62.878013969396434 $271 $363 forward 7 unknown #
coedge $-1 $364 $188 $184 $275 reversed $281 $-1 #
edge $-1 $365 -62.878013969396434 $276 -45.262727768034004 $274 $366 forward 7 unknown #
vertex $-1 $189 $367 #
vertex $-1 $273 $368 #
straight-curve $-1 0 -45.262727768034004 -21.359554030932223 1 0 0 I I #
straight-curve $-1 79.739982299264511 -45.262727768034004 0 0 0 1 I I #
coedge $-1 $188 $364 $190 $284 reversed $281 $-1 #
loop $-1 $-1 $188 $267 #
straight-curve $-1 -79.739982299264511 -45.262727768034004 0 0 0 -1 I I #
coedge $-1 $191 $190 $369 $370 forward $180 $-1 #
edge $-1 $192 -8.8076431006812186 $371 8.8076431006812186 $280 $372 forward 7 unknown #
edge $-1 $373 -8.8076431006812186 $193 8.8076431006812186 $270 $374 forward 7 unknown #
point $-1 -79.739982299264511 -45.262727768033997 -16.191724432664927 #
point $-1 79.739982299264511 -45.262727768033997 -16.191724432664927 #
plane-surface $-1 0 0 21.359554030932223 0 0 1 1 0 0 forward_v I I I I #
coedge $-1 $299 $298 $291 $375 forward $196 $-1 #
coedge $-1 $291 $198 $200 $295 reversed $117 $-1 #
coedge $-1 $198 $290 $289 $375 reversed $117 $-1 #
coedge $-1 $206 $201 $198 $293 forward $207 $-1 #
edge $-1 $296 24.708710597305029 $376 45.77188245252691 $292 $377 forward 7 unknown #
coedge $-1 $200 $199 $299 $378 reversed $73 $-1 #
edge $-1 $379 -159.47996459852902 $296 -131.13667088445678 $290 $380 forward 7 unknown #
vertex $-1 $202 $381 #
straight-curve $-1 58.67681044404263 -11.438236308421864 21.359554030932209 0 -1 0 I I #
coedge $-1 $289 $203 $206 $303 reversed $196 $-1 #
coedge $-1 $203 $289 $294 $378 forward $196 $-1 #
vertex $-1 $204 $382 #
straight-curve $-1 79.739982299264511 -18.105503667015881 113.81191224708765 0 0 1 I I #
straight-curve $-1 -38.776727003850922 -18.105503667015881 109.10711519105986 0.74314481823134659 0 -0.66913061440640931 I I #
edge $-1 $376 -27.647441566671574 $208 -18.105503667015881 $298 $383 forward 7 unknown #
point $-1 79.739982299264511 -18.105503667015881 21.359554030932223 #
point $-1 58.67681044404263 -18.105503667015881 21.359554030932216 #
edge $-1 $384 1 $384 0 $211 $-1 forward 7 unknown #
vertex $-1 $212 $385 #
ellipse-curve $-1 68.04267106499168 -24.921173595341376 10.582202176095729 0.66913061440640931 0 0.74314481823134659 0.74314481823134659 0 -0.66913061440640931 1 I I #
point $-1 69.951541189884907 -24.921173595341376 11.207740647926583 #
edge $-1 $386 1 $386 0 $215 $-1 forward 7 unknown #
vertex $-1 $216 $387 #
ellipse-curve $-1 68.04267106499168 -20.83177163834608 10.582202176095729 0.66913061440640931 0 0.74314481823134659 0.74314481823134659 0 -0.66913061440640931 1 I I #
point $-1 69.951541189884907 -20.83177163834608 11.207740647926583 #
loop $-1 $-1 $227 $219 #
plane-surface $-1 -79.739982299264511 0 0 1 0 0 0 0 -1 forward_v I I I I #
coedge $-1 $317 $222 $224 $321 reversed $139 $-1 #
coedge $-1 $222 $316 $388 $389 reversed $139 $-1 #
coedge $-1 $230 $225 $222 $319 forward $220 $-1 #
edge $-1 $322 -34.549644054252724 $390 -13.4864721990308 $318 $391 forward 7 unknown #
coedge $-1 $224 $223 $325 $392 reversed $87 $-1 #
edge $-1 $393 -1.9178179933549516e-014 $322 28.343293714072274 $316 $394 forward 7 unknown #
vertex $-1 $226 $395 #
straight-curve $-1 -58.676810444042587 -11.438236308421864 21.359554030932223 0 1 0 I I #
coedge $-1 $388 $227 $230 $329 reversed $314 $-1 #
coedge $-1 $227 $388 $320 $392 forward $314 $-1 #
vertex $-1 $228 $396 #
straight-curve $-1 -79.739982299264511 -27.647441566671574 60.455448898424578 0 0 1 I I #
straight-curve $-1 -79.739982299264497 -27.647441566671574 2.3941884937337221 -0.74314481823134659 0 -0.66913061440640931 I I #
edge $-1 $390 18.105503667015881 $231 27.647441566671574 $324 $397 forward 7 unknown #
point $-1 -79.739982299264511 -27.647441566671574 21.359554030932223 #
point $-1 -58.676810444042587 -27.647441566671574 21.359554030932223 #
edge $-1 $398 1 $398 0 $234 $-1 forward 7 unknown #
vertex $-1 $235 $399 #
ellipse-curve $-1 -68.04267106499168 -24.921173595341376 10.582202176095718 -0.66913061440640931 0 0.74314481823134659 0.74314481823134659 0 0.66913061440640931 1 I I #
point $-1 -68.46525155342222 -24.921173595341376 12.546001876739391 #
edge $-1 $400 1 $400 0 $238 $-1 forward 7 unknown #
vertex $-1 $239 $401 #
ellipse-curve $-1 -68.04267106499168 -20.83177163834608 10.582202176095718 -0.66913061440640931 0 0.74314481823134659 0.74314481823134659 0 0.66913061440640931 1 I I #
point $-1 -68.46525155342222 -20.83177163834608 12.546001876739391 #
plane-surface $-1 79.739982299264511 0 0 -1 0 0 0 0 1 forward_v I I I I #
coedge $-1 $351 $245 $248 $344 reversed $161 $-1 #
edge $-1 $259 -21.359554030932223 $347 21.359554030932223 $258 $402 forward 7 unknown #
straight-curve $-1 79.739982299264511 -45.262727768034004 0 0 0 -1 I I #
edge $-1 $345 -45.262727768034004 $347 45.262727768034004 $341 $403 forward 7 unknown #
vertex $-1 $344 $404 #
straight-curve $-1 0 -45.262727768034004 -21.359554030932223 -1 0 0 I I #
vertex $-1 $251 $405 #
straight-curve $-1 0 45.262727768034004 -21.359554030932223 1 0 0 I I #
point $-1 79.739982299264511 45.262727768034004 -21.359554030932223 #
point $-1 79.739982299264511 -45.262727768034004 -21.359554030932223 #
coedge $-1 $255 $341 $261 $354 reversed $161 $-1 #
straight-curve $-1 -79.739982299264511 0 21.359554030932223 0 -1 0 I I #
point $-1 -79.739982299264511 45.262727768034004 21.359554030932223 #
edge $-1 $262 -21.359554030932223 $345 21.359554030932223 $351 $406 forward 7 unknown #
point $-1 -79.739982299264511 -45.262727768034004 21.359554030932223 #
straight-curve $-1 79.739982299264511 45.262727768034004 0 0 0 -1 I I #
plane-surface $-1 -79.739982299264511 0 0 1 0 0 0 0 -1 forward_v I I I I #
coedge $-1 $360 $369 $364 $407 forward $268 $-1 #
coedge $-1 $271 $270 $408 $409 forward $109 $-1 #
coedge $-1 $408 $358 $272 $361 reversed $268 $-1 #
edge $-1 $362 -79.739982299264511 $365 79.739982299264511 $360 $410 forward 7 unknown #
vertex $-1 $409 $411 #
straight-curve $-1 79.739982299264511 0 -21.359554030932223 0 -1 0 I I #
coedge $-1 $280 $274 $358 $407 reversed $281 $-1 #
vertex $-1 $275 $412 #
straight-curve $-1 -79.739982299264511 0 -21.359554030932223 0 1 0 I I #
point $-1 -79.739982299264511 -45.262727768034004 -21.359554030932223 #
point $-1 79.739982299264511 -45.262727768034004 -21.359554030932223 #
coedge $-1 $358 $408 $283 $370 reversed $268 $-1 #
edge $-1 $371 -79.739982299264511 $373 79.739982299264511 $369 $413 forward 7 unknown #
vertex $-1 $284 $414 #
straight-curve $-1 -79.739982299264511 -54.070370868715216 -16.191724432664927 0 -1 0 I I #
vertex $-1 $285 $415 #
straight-curve $-1 79.739982299264511 -54.070370868715216 -16.191724432664927 0 1 0 I I #
edge $-1 $376 92.452358216155432 $379 111.41772375335391 $289 $416 forward 7 unknown #
vertex $-1 $303 $417 #
straight-curve $-1 33.968099846737601 -27.647441566671574 21.35955403093223 1 0 0 I I #
edge $-1 $379 -16.20920525824971 $300 -6.6672673585940174 $299 $418 forward 7 unknown #
vertex $-1 $378 $419 #
straight-curve $-1 -38.776727003850922 -27.647441566671574 109.10711519105986 -0.74314481823134659 0 0.66913061440640931 I I #
point $-1 58.67681044404263 -27.647441566671574 21.359554030932216 #
point $-1 79.739982299264511 -18.105503667015881 2.3941884937337363 #
straight-curve $-1 79.739982299264511 0 21.359554030932223 0 1 0 I I #
vertex $-1 $306 $420 #
point $-1 68.785815883223023 -24.921173595341376 9.9130715616893195 #
vertex $-1 $310 $421 #
point $-1 68.785815883223023 -20.83177163834608 9.9130715616893195 #
coedge $-1 $325 $324 $317 $389 forward $314 $-1 #
edge $-1 $390 39.095894867492355 $393 58.06126040469087 $388 $422 forward 7 unknown #
vertex $-1 $329 $423 #
straight-curve $-1 -93.226454498295311 -18.105503667015881 21.359554030932223 -1 0 0 I I #
edge $-1 $393 6.6672673585940174 $326 16.20920525824971 $325 $424 forward 7 unknown #
vertex $-1 $392 $425 #
straight-curve $-1 -79.739982299264497 -18.105503667015881 2.3941884937337221 0.74314481823134659 0 0.66913061440640931 I I #
point $-1 -58.676810444042587 -18.105503667015881 21.359554030932223 #
point $-1 -79.739982299264511 -27.647441566671574 2.3941884937337092 #
straight-curve $-1 -79.739982299264511 0 21.359554030932223 0 -1 0 I I #
vertex $-1 $332 $426 #
point $-1 -67.299526246760337 -24.921173595341376 11.251332790502127 #
vertex $-1 $336 $427 #
point $-1 -67.299526246760337 -20.83177163834608 11.251332790502127 #
straight-curve $-1 -79.739982299264511 45.262727768034004 0 0 0 -1 I I #
straight-curve $-1 -79.739982299264511 0 -21.359554030932223 0 1 0 I I #
point $-1 -79.739982299264511 -45.262727768034004 -21.359554030932223 #
point $-1 -79.739982299264511 45.262727768034004 -21.359554030932223 #
straight-curve $-1 -79.739982299264511 -45.262727768034004 0 0 0 -1 I I #
edge $-1 $371 -2.5839147991336482 $365 2.5839147991336482 $364 $428 forward 7 unknown #
coedge $-1 $369 $360 $359 $409 reversed $268 $-1 #
edge $-1 $373 -2.5839147991336482 $362 2.5839147991336482 $359 $429 forward 7 unknown #
straight-curve $-1 0 -62.878013969396434 -21.359554030932223 -1 0 0 I I #
point $-1 79.739982299264511 -62.878013969396434 -21.359554030932223 #
point $-1 -79.739982299264511 -62.878013969396434 -21.359554030932223 #
straight-curve $-1 0 -62.878013969396434 -16.191724432664927 1 0 0 I I #
point $-1 -79.739982299264511 -62.878013969396434 -16.191724432664927 #
point $-1 79.739982299264511 -62.878013969396434 -16.191724432664927 #
straight-curve $-1 79.739982299264511 -27.647441566671574 113.81191224708765 0 0 -1 I I #
point $-1 79.739982299264511 -27.647441566671574 21.359554030932223 #
straight-curve $-1 79.739982299264511 -11.438236308421864 2.3941884937337363 0 1 0 I I #
point $-1 79.739982299264511 -27.647441566671574 2.3941884937337363 #
point $-1 67.373540450585267 -24.921173595341376 9.8390573578643821 #
point $-1 67.373540450585267 -20.83177163834608 9.8390573578643821 #
straight-curve $-1 -79.739982299264511 -18.105503667015881 60.455448898424578 0 0 -1 I I #
point $-1 -79.739982299264511 -18.105503667015881 21.359554030932223 #
straight-curve $-1 -79.739982299264511 -11.438236308421864 2.3941884937337141 0 -1 0 I I #
point $-1 -79.739982299264511 -18.105503667015881 2.3941884937337092 #
point $-1 -67.373540450585267 -24.921173595341376 9.8390573578643714 #
point $-1 -67.373540450585267 -20.83177163834608 9.8390573578643714 #
straight-curve $-1 -79.739982299264511 -62.878013969396434 -18.775639231798575 0 0 -1 I I #
straight-curve $-1 79.739982299264511 -62.878013969396434 -18.775639231798575 0 0 -1 I I #
End-of-ACIS-data 