500 0 15 0           
7 Unknown 11 ACIS 5.0 NT 24 Fri Mar 26 03:28:22 1999 
-1 9.9999999999999995e-007 1e-010 
body $-1 $15 $-1 $16 #
body $-1 $17 $-1 $18 #
body $-1 $19 $-1 $20 #
body $-1 $21 $-1 $22 #
body $-1 $23 $-1 $24 #
body $-1 $25 $-1 $26 #
body $-1 $27 $-1 $28 #
body $-1 $29 $-1 $30 #
body $-1 $31 $-1 $32 #
body $-1 $33 $-1 $34 #
body $-1 $35 $-1 $36 #
body $-1 $37 $-1 $38 #
body $-1 $39 $-1 $40 #
body $-1 $41 $-1 $42 #
body $-1 $43 $-1 $44 #
lump $-1 $-1 $45 $0 #
transform $-1 1 0 0 0 1 0 0 0 1 62.106387524033323 40.842337096633038 17.575155538497427 1 rotate no_reflect no_shear #
lump $-1 $-1 $46 $1 #
transform $-1 1 0 0 0 1 0 0 0 1 62.106387524033323 40.842337096633038 17.575155538497427 1 rotate no_reflect no_shear #
lump $-1 $-1 $47 $2 #
transform $-1 1 0 0 0 1 0 0 0 1 62.106387524033323 40.842337096633038 17.575155538497427 1 rotate no_reflect no_shear #
lump $-1 $-1 $48 $3 #
transform $-1 1 0 0 0 1 0 0 0 1 62.106387524033323 40.842337096633038 17.575155538497427 1 rotate no_reflect no_shear #
lump $-1 $-1 $49 $4 #
transform $-1 1 0 0 0 1 0 0 0 1 62.106387524033323 40.842337096633038 17.575155538497427 1 rotate no_reflect no_shear #
lump $-1 $-1 $50 $5 #
transform $-1 1 0 0 0 1 0 0 0 1 62.106387524033323 40.842337096633038 17.575155538497427 1 rotate no_reflect no_shear #
lump $-1 $-1 $51 $6 #
transform $-1 1 0 0 0 1 0 0 0 1 62.106387524033323 40.842337096633038 17.575155538497427 1 rotate no_reflect no_shear #
lump $-1 $-1 $52 $7 #
transform $-1 1 0 0 0 1 0 0 0 1 62.106387524033323 40.842337096633038 17.575155538497427 1 rotate no_reflect no_shear #
lump $-1 $-1 $53 $8 #
transform $-1 1 0 0 0 1 0 0 0 1 62.106387524033323 40.842337096633038 17.575155538497427 1 rotate no_reflect no_shear #
lump $-1 $-1 $54 $9 #
transform $-1 1 0 0 0 1 0 0 0 1 62.106387524033323 40.842337096633038 17.575155538497427 1 rotate no_reflect no_shear #
lump $-1 $-1 $55 $10 #
transform $-1 1 0 0 0 1 0 0 0 1 62.106387524033323 40.842337096633038 17.575155538497427 1 rotate no_reflect no_shear #
lump $-1 $-1 $56 $11 #
transform $-1 1 0 0 0 1 0 0 0 1 62.106387524033323 40.842337096633038 17.575155538497427 1 rotate no_reflect no_shear #
lump $-1 $-1 $57 $12 #
transform $-1 1 0 0 0 1 0 0 0 1 62.106387524033323 40.842337096633038 17.575155538497427 1 rotate no_reflect no_shear #
lump $-1 $-1 $58 $13 #
transform $-1 1 0 0 0 1 0 0 0 1 62.106387524033323 40.842337096633038 17.575155538497427 1 rotate no_reflect no_shear #
lump $-1 $-1 $59 $14 #
transform $-1 1 0 0 0 1 0 0 0 1 62.106387524033323 40.842337096633038 17.575155538497427 1 rotate no_reflect no_shear #
shell $-1 $-1 $-1 $60 $-1 $15 #
shell $-1 $-1 $-1 $61 $-1 $17 #
shell $-1 $-1 $-1 $62 $-1 $19 #
shell $-1 $-1 $-1 $63 $-1 $21 #
shell $-1 $-1 $-1 $64 $-1 $23 #
shell $-1 $-1 $-1 $65 $-1 $25 #
shell $-1 $-1 $-1 $66 $-1 $27 #
shell $-1 $-1 $-1 $67 $-1 $29 #
shell $-1 $-1 $-1 $68 $-1 $31 #
shell $-1 $-1 $-1 $69 $-1 $33 #
shell $-1 $-1 $-1 $70 $-1 $35 #
shell $-1 $-1 $-1 $71 $-1 $37 #
shell $-1 $-1 $-1 $72 $-1 $39 #
shell $-1 $-1 $-1 $73 $-1 $41 #
shell $-1 $-1 $-1 $74 $-1 $43 #
face $-1 $75 $76 $45 $-1 $77 forward single #
face $-1 $78 $79 $46 $-1 $80 forward single #
face $-1 $81 $82 $47 $-1 $83 forward single #
face $-1 $84 $85 $48 $-1 $86 reversed single #
face $-1 $87 $88 $49 $-1 $89 forward single #
face $-1 $90 $91 $50 $-1 $92 forward single #
face $-1 $93 $94 $51 $-1 $95 reversed single #
face $-1 $96 $97 $52 $-1 $98 forward single #
face $-1 $99 $100 $53 $-1 $101 forward single #
face $-1 $102 $103 $54 $-1 $104 reversed single #
face $-1 $105 $106 $55 $-1 $107 forward single #
face $-1 $108 $109 $56 $-1 $110 forward single #
face $-1 $111 $112 $57 $-1 $113 reversed single #
face $-1 $114 $115 $58 $-1 $116 forward single #
face $-1 $117 $118 $59 $-1 $119 forward single #
face $-1 $120 $121 $45 $-1 $122 reversed single #
loop $-1 $-1 $123 $60 #
plane-surface $-1 0 0 17.575155538497427 0 0 1 1 0 0 forward_v I I I I #
face $-1 $124 $125 $46 $-1 $126 reversed single #
loop $-1 $-1 $127 $61 #
plane-surface $-1 0 -32.392118425838525 -8.3486682023932701 0 0 1 1 0 0 forward_v I I I I #
face $-1 $128 $129 $47 $-1 $130 reversed single #
loop $-1 $-1 $131 $62 #
plane-surface $-1 0 32.392118425838525 -8.3486682023932701 0 0 1 1 0 0 forward_v I I I I #
face $-1 $132 $133 $48 $-1 $134 reversed single #
loop $-1 $-1 $135 $63 #
plane-surface $-1 -143.59730110127816 -14.293236706067679 104.37246410495405 0 -1 0 0.6560590369687036 0 -0.75470957328743171 forward_v I I I I #
face $-1 $136 $137 $49 $-1 $138 forward single #
loop $-1 $139 $140 $64 #
cone-surface $-1 -57.547520365357613 -18.609798994802702 13.453968487504175 0.6560590369687036 0 -0.75470957328743171 0.37735478664371586 0 0.3280295184843518 1 I I 0 1 0.5 forward I I I I #
face $-1 $141 $142 $50 $-1 $143 forward single #
loop $-1 $144 $145 $65 #
cone-surface $-1 -57.547520365357613 -16.019861621561688 13.453968487504175 0.6560590369687036 0 -0.75470957328743171 0.37735478664371586 0 0.3280295184843518 1 I I 0 1 0.5 forward I I I I #
face $-1 $146 $147 $51 $-1 $148 reversed single #
loop $-1 $-1 $149 $66 #
plane-surface $-1 -143.59730110127816 9.6486630489763332 104.37246410495405 0 -1 0 0.6560590369687036 0 -0.75470957328743171 forward_v I I I I #
face $-1 $150 $151 $52 $-1 $152 forward single #
loop $-1 $153 $154 $67 #
cone-surface $-1 -57.547520365357613 5.3321007602413104 13.453968487504175 0.6560590369687036 0 -0.75470957328743171 0.37735478664371586 0 0.3280295184843518 1 I I 0 1 0.5 forward I I I I #
face $-1 $155 $156 $53 $-1 $157 forward single #
loop $-1 $158 $159 $68 #
cone-surface $-1 -57.547520365357613 7.9220381334823244 13.453968487504175 0.6560590369687036 0 -0.75470957328743171 0.37735478664371586 0 0.3280295184843518 1 I I 0 1 0.5 forward I I I I #
face $-1 $160 $161 $54 $-1 $162 reversed single #
loop $-1 $-1 $163 $69 #
plane-surface $-1 49.852730647904039 -14.293236706067679 185.86337768219886 0 -1 0 -0.6560590369687036 0 -0.75470957328743171 forward_v I I I I #
face $-1 $164 $165 $55 $-1 $166 forward single #
loop $-1 $167 $168 $70 #
cone-surface $-1 57.547520365357599 -18.609798994802702 13.453968487504172 -0.6560590369687036 0 -0.75470957328743171 0.37735478664371586 0 -0.3280295184843518 1 I I 0 1 0.5 forward I I I I #
face $-1 $169 $170 $56 $-1 $171 forward single #
loop $-1 $172 $173 $71 #
cone-surface $-1 57.547520365357599 -16.019861621561688 13.453968487504172 -0.6560590369687036 0 -0.75470957328743171 0.37735478664371586 0 -0.3280295184843518 1 I I 0 1 0.5 forward I I I I #
face $-1 $174 $175 $57 $-1 $176 reversed single #
loop $-1 $-1 $177 $72 #
plane-surface $-1 49.852730647904039 9.6486630489763332 185.86337768219886 0 -1 0 -0.6560590369687036 0 -0.75470957328743171 forward_v I I I I #
face $-1 $178 $179 $58 $-1 $180 forward single #
loop $-1 $181 $182 $73 #
cone-surface $-1 57.547520365357599 5.3321007602413104 13.453968487504172 -0.6560590369687036 0 -0.75470957328743171 0.37735478664371586 0 -0.3280295184843518 1 I I 0 1 0.5 forward I I I I #
face $-1 $183 $184 $59 $-1 $185 forward single #
loop $-1 $186 $187 $74 #
cone-surface $-1 57.547520365357599 7.9220381334823244 13.453968487504172 -0.6560590369687036 0 -0.75470957328743171 0.37735478664371586 0 -0.3280295184843518 1 I I 0 1 0.5 forward I I I I #
face $-1 $188 $189 $45 $-1 $190 reversed single #
loop $-1 $-1 $191 $75 #
plane-surface $-1 0 0 -17.575155538497427 0 0 1 1 0 0 forward_v I I I I #
coedge $-1 $192 $193 $194 $195 forward $76 $-1 #
face $-1 $196 $197 $46 $-1 $198 reversed single #
loop $-1 $-1 $199 $78 #
plane-surface $-1 0 -23.941899755044012 -12.961911870445348 0 -1 0 0 0 -1 forward_v I I I I #
coedge $-1 $200 $201 $202 $203 reversed $79 $-1 #
face $-1 $204 $205 $47 $-1 $206 reversed single #
loop $-1 $-1 $207 $81 #
plane-surface $-1 0 23.941899755044012 -12.961911870445348 0 1 0 0 0 1 forward_v I I I I #
coedge $-1 $208 $209 $210 $211 reversed $82 $-1 #
face $-1 $212 $213 $48 $-1 $214 reversed single #
loop $-1 $-1 $215 $84 #
plane-surface $-1 -62.106387524033337 -17.314830308182195 10.62789365157991 -0.6560590369687036 0 0.75470957328743171 0.75470957328743171 0 0.6560590369687036 forward_v I I I I #
coedge $-1 $216 $217 $218 $219 reversed $85 $-1 #
face $-1 $-1 $220 $49 $-1 $221 forward single #
loop $-1 $222 $223 $87 #
cone-surface $-1 -56.820593657825512 -18.609798994802702 12.617734986647822 0.6560590369687036 0 -0.75470957328743171 0.18867739332185793 0 0.1640147592421759 1 I I -0.70710678118654746 0.70710678118654746 0.25 forward I I I I #
loop $-1 $-1 $224 $64 #
coedge $-1 $140 $140 $225 $226 reversed $88 $-1 #
face $-1 $-1 $227 $50 $-1 $228 forward single #
loop $-1 $229 $230 $90 #
cone-surface $-1 -56.820593657825512 -16.019861621561688 12.617734986647822 0.6560590369687036 0 -0.75470957328743171 0.18867739332185793 0 0.1640147592421759 1 I I -0.70710678118654746 0.70710678118654746 0.25 forward I I I I #
loop $-1 $-1 $231 $65 #
coedge $-1 $145 $145 $232 $233 reversed $91 $-1 #
face $-1 $234 $235 $51 $-1 $236 reversed single #
loop $-1 $-1 $237 $93 #
plane-surface $-1 -62.106387524033337 6.6270694468618174 10.62789365157991 -0.6560590369687036 0 0.75470957328743171 0.75470957328743171 0 0.6560590369687036 forward_v I I I I #
coedge $-1 $238 $239 $240 $241 reversed $94 $-1 #
face $-1 $-1 $242 $52 $-1 $243 forward single #
loop $-1 $244 $245 $96 #
cone-surface $-1 -56.820593657825512 5.3321007602413104 12.617734986647822 0.6560590369687036 0 -0.75470957328743171 0.18867739332185793 0 0.1640147592421759 1 I I -0.70710678118654746 0.70710678118654746 0.25 forward I I I I #
loop $-1 $-1 $246 $67 #
coedge $-1 $154 $154 $247 $248 reversed $97 $-1 #
face $-1 $-1 $249 $53 $-1 $250 forward single #
loop $-1 $251 $252 $99 #
cone-surface $-1 -56.820593657825512 7.9220381334823244 12.617734986647822 0.6560590369687036 0 -0.75470957328743171 0.18867739332185793 0 0.1640147592421759 1 I I -0.70710678118654746 0.70710678118654746 0.25 forward I I I I #
loop $-1 $-1 $253 $68 #
coedge $-1 $159 $159 $254 $255 reversed $100 $-1 #
face $-1 $256 $257 $54 $-1 $258 reversed single #
loop $-1 $-1 $259 $102 #
plane-surface $-1 -31.638182929340786 -17.314830308182195 92.118807228824721 0.6560590369687036 0 0.75470957328743171 0.75470957328743171 0 -0.6560590369687036 forward_v I I I I #
coedge $-1 $260 $261 $262 $263 reversed $103 $-1 #
face $-1 $-1 $264 $55 $-1 $265 forward single #
loop $-1 $266 $267 $105 #
cone-surface $-1 56.820593657825498 -18.609798994802702 12.617734986647818 -0.6560590369687036 0 -0.75470957328743171 0.18867739332185793 0 -0.1640147592421759 1 I I -0.70710678118654746 0.70710678118654746 0.25 forward I I I I #
loop $-1 $-1 $268 $70 #
coedge $-1 $168 $168 $269 $270 reversed $106 $-1 #
face $-1 $-1 $271 $56 $-1 $272 forward single #
loop $-1 $273 $274 $108 #
cone-surface $-1 56.820593657825498 -16.019861621561688 12.617734986647818 -0.6560590369687036 0 -0.75470957328743171 0.18867739332185793 0 -0.1640147592421759 1 I I -0.70710678118654746 0.70710678118654746 0.25 forward I I I I #
loop $-1 $-1 $275 $71 #
coedge $-1 $173 $173 $276 $277 reversed $109 $-1 #
face $-1 $278 $279 $57 $-1 $280 reversed single #
loop $-1 $-1 $281 $111 #
plane-surface $-1 -31.638182929340786 6.6270694468618174 92.118807228824721 0.6560590369687036 0 0.75470957328743171 0.75470957328743171 0 -0.6560590369687036 forward_v I I I I #
coedge $-1 $282 $283 $284 $285 reversed $112 $-1 #
face $-1 $-1 $286 $58 $-1 $287 forward single #
loop $-1 $288 $289 $114 #
cone-surface $-1 56.820593657825498 5.3321007602413104 12.617734986647818 -0.6560590369687036 0 -0.75470957328743171 0.18867739332185793 0 -0.1640147592421759 1 I I -0.70710678118654746 0.70710678118654746 0.25 forward I I I I #
loop $-1 $-1 $290 $73 #
coedge $-1 $182 $182 $291 $292 reversed $115 $-1 #
face $-1 $-1 $293 $59 $-1 $294 forward single #
loop $-1 $295 $296 $117 #
cone-surface $-1 56.820593657825498 7.9220381334823244 12.617734986647818 -0.6560590369687036 0 -0.75470957328743171 0.18867739332185793 0 -0.1640147592421759 1 I I -0.70710678118654746 0.70710678118654746 0.25 forward I I I I #
loop $-1 $-1 $297 $74 #
coedge $-1 $187 $187 $298 $299 reversed $118 $-1 #
face $-1 $300 $301 $45 $-1 $302 reversed single #
loop $-1 $-1 $303 $120 #
plane-surface $-1 0 -40.842337096633038 0 0 1 0 0 0 1 forward_v I I I I #
coedge $-1 $304 $305 $306 $307 forward $121 $-1 #
coedge $-1 $308 $123 $309 $310 forward $76 $-1 #
coedge $-1 $123 $308 $311 $312 forward $76 $-1 #
coedge $-1 $313 $314 $123 $195 reversed $315 $-1 #
edge $-1 $316 -40.842337096633038 $317 40.842337096633038 $194 $318 forward 7 unknown #
face $-1 $319 $320 $46 $-1 $321 reversed single #
loop $-1 $-1 $322 $124 #
plane-surface $-1 0 0 -17.575155538497427 0 0 1 1 0 0 forward_v I I I I #
coedge $-1 $323 $324 $325 $326 reversed $125 $-1 #
coedge $-1 $327 $127 $324 $328 forward $79 $-1 #
coedge $-1 $127 $327 $329 $330 reversed $79 $-1 #
coedge $-1 $331 $325 $127 $203 forward $320 $-1 #
edge $-1 $332 7.7458405421247498 $333 24.646277883713775 $202 $334 forward 7 unknown #
face $-1 $335 $336 $47 $-1 $337 reversed single #
loop $-1 $-1 $210 $128 #
plane-surface $-1 62.106387524033323 0 0 -1 0 0 0 0 1 forward_v I I I I #
coedge $-1 $338 $339 $340 $341 reversed $129 $-1 #
coedge $-1 $342 $131 $343 $344 reversed $82 $-1 #
coedge $-1 $131 $342 $339 $345 forward $82 $-1 #
coedge $-1 $346 $347 $131 $211 forward $205 $-1 #
edge $-1 $348 -24.646277883713775 $349 -7.7458405421247498 $210 $350 forward 7 unknown #
face $-1 $351 $352 $48 $-1 $353 reversed single #
loop $-1 $-1 $354 $132 #
plane-surface $-1 -143.59730110127816 -20.336423910296709 104.37246410495405 0 1 0 -0.6560590369687036 0 0.75470957328743171 forward_v I I I I #
coedge $-1 $355 $356 $357 $358 reversed $133 $-1 #
coedge $-1 $217 $135 $359 $360 reversed $85 $-1 #
coedge $-1 $135 $216 $355 $361 reversed $85 $-1 #
coedge $-1 $357 $362 $135 $219 forward $352 $-1 #
edge $-1 $363 34.611076513979597 $364 41.5583384008971 $218 $365 forward 7 unknown #
loop $-1 $-1 $225 $136 #
plane-surface $-1 -62.106387524033337 -17.314830308182195 10.62789365157991 -0.6560590369687036 0 0.75470957328743171 0.75470957328743171 0 0.6560590369687036 forward_v I I I I #
loop $-1 $-1 $366 $87 #
coedge $-1 $223 $223 $224 $367 reversed $137 $-1 #
coedge $-1 $224 $224 $223 $367 forward $139 $-1 #
coedge $-1 $225 $225 $140 $226 forward $220 $-1 #
edge $-1 $368 0 $368 6.2831853071796004 $225 $369 forward 7 unknown #
loop $-1 $-1 $232 $141 #
plane-surface $-1 -62.106387524033337 -17.314830308182195 10.62789365157991 -0.6560590369687036 0 0.75470957328743171 0.75470957328743171 0 0.6560590369687036 forward_v I I I I #
loop $-1 $-1 $370 $90 #
coedge $-1 $230 $230 $231 $371 reversed $142 $-1 #
coedge $-1 $231 $231 $230 $371 forward $144 $-1 #
coedge $-1 $232 $232 $145 $233 forward $227 $-1 #
edge $-1 $372 0 $372 6.2831853071796004 $232 $373 forward 7 unknown #
face $-1 $374 $375 $51 $-1 $376 forward single #
loop $-1 $-1 $377 $146 #
plane-surface $-1 -143.59730110127816 3.6054758447473017 104.37246410495405 0 1 0 -0.6560590369687036 0 0.75470957328743171 forward_v I I I I #
coedge $-1 $378 $379 $380 $381 reversed $147 $-1 #
coedge $-1 $239 $149 $382 $383 reversed $94 $-1 #
coedge $-1 $149 $238 $378 $384 reversed $94 $-1 #
coedge $-1 $380 $385 $149 $241 forward $386 $-1 #
edge $-1 $387 34.611076513979597 $388 41.5583384008971 $240 $389 forward 7 unknown #
loop $-1 $-1 $247 $150 #
plane-surface $-1 -62.106387524033337 6.6270694468618174 10.62789365157991 -0.6560590369687036 0 0.75470957328743171 0.75470957328743171 0 0.6560590369687036 forward_v I I I I #
loop $-1 $-1 $390 $96 #
coedge $-1 $245 $245 $246 $391 reversed $151 $-1 #
coedge $-1 $246 $246 $245 $391 forward $153 $-1 #
coedge $-1 $247 $247 $154 $248 forward $242 $-1 #
edge $-1 $392 0 $392 6.2831853071796004 $247 $393 forward 7 unknown #
loop $-1 $-1 $254 $155 #
plane-surface $-1 -62.106387524033337 6.6270694468618174 10.62789365157991 -0.6560590369687036 0 0.75470957328743171 0.75470957328743171 0 0.6560590369687036 forward_v I I I I #
loop $-1 $-1 $394 $99 #
coedge $-1 $252 $252 $253 $395 reversed $156 $-1 #
coedge $-1 $253 $253 $252 $395 forward $158 $-1 #
coedge $-1 $254 $254 $159 $255 forward $249 $-1 #
edge $-1 $396 0 $396 6.2831853071796004 $254 $397 forward 7 unknown #
face $-1 $398 $399 $54 $-1 $400 forward single #
loop $-1 $-1 $401 $160 #
plane-surface $-1 49.852730647904039 -20.336423910296709 185.86337768219886 0 1 0 0.6560590369687036 0 0.75470957328743171 forward_v I I I I #
coedge $-1 $402 $403 $404 $405 reversed $161 $-1 #
coedge $-1 $261 $163 $406 $407 reversed $103 $-1 #
coedge $-1 $163 $260 $402 $408 reversed $103 $-1 #
coedge $-1 $404 $409 $163 $263 forward $399 $-1 #
edge $-1 $410 -37.180022200081304 $411 -29.188111779309715 $262 $412 forward 7 unknown #
loop $-1 $-1 $269 $164 #
plane-surface $-1 -31.638182929340786 -17.314830308182195 92.118807228824721 0.6560590369687036 0 0.75470957328743171 0.75470957328743171 0 -0.6560590369687036 forward_v I I I I #
loop $-1 $-1 $413 $105 #
coedge $-1 $267 $267 $268 $414 reversed $165 $-1 #
coedge $-1 $268 $268 $267 $414 forward $167 $-1 #
coedge $-1 $269 $269 $168 $270 forward $264 $-1 #
edge $-1 $415 0 $415 6.2831853071796004 $269 $416 forward 7 unknown #
loop $-1 $-1 $276 $169 #
plane-surface $-1 -31.638182929340786 -17.314830308182195 92.118807228824721 0.6560590369687036 0 0.75470957328743171 0.75470957328743171 0 -0.6560590369687036 forward_v I I I I #
loop $-1 $-1 $417 $108 #
coedge $-1 $274 $274 $275 $418 reversed $170 $-1 #
coedge $-1 $275 $275 $274 $418 forward $172 $-1 #
coedge $-1 $276 $276 $173 $277 forward $271 $-1 #
edge $-1 $419 0 $419 6.2831853071796004 $276 $420 forward 7 unknown #
face $-1 $421 $422 $57 $-1 $423 reversed single #
loop $-1 $-1 $424 $174 #
plane-surface $-1 49.852730647904039 3.6054758447473017 185.86337768219886 0 1 0 0.6560590369687036 0 0.75470957328743171 forward_v I I I I #
coedge $-1 $425 $426 $427 $428 reversed $175 $-1 #
coedge $-1 $283 $177 $429 $430 reversed $112 $-1 #
coedge $-1 $177 $282 $425 $431 reversed $112 $-1 #
coedge $-1 $427 $432 $177 $285 forward $433 $-1 #
edge $-1 $434 -37.180022200081304 $435 -29.188111779309715 $284 $436 forward 7 unknown #
loop $-1 $-1 $291 $178 #
plane-surface $-1 -31.638182929340786 6.6270694468618174 92.118807228824721 0.6560590369687036 0 0.75470957328743171 0.75470957328743171 0 -0.6560590369687036 forward_v I I I I #
loop $-1 $-1 $437 $114 #
coedge $-1 $289 $289 $290 $438 reversed $179 $-1 #
coedge $-1 $290 $290 $289 $438 forward $181 $-1 #
coedge $-1 $291 $291 $182 $292 forward $286 $-1 #
edge $-1 $439 0 $439 6.2831853071796004 $291 $440 forward 7 unknown #
loop $-1 $-1 $298 $183 #
plane-surface $-1 -31.638182929340786 6.6270694468618174 92.118807228824721 0.6560590369687036 0 0.75470957328743171 0.75470957328743171 0 -0.6560590369687036 forward_v I I I I #
loop $-1 $-1 $441 $117 #
coedge $-1 $296 $296 $297 $442 reversed $184 $-1 #
coedge $-1 $297 $297 $296 $442 forward $186 $-1 #
coedge $-1 $298 $298 $187 $299 forward $293 $-1 #
edge $-1 $443 0 $443 6.2831853071796004 $298 $444 forward 7 unknown #
face $-1 $445 $446 $45 $-1 $447 reversed single #
loop $-1 $-1 $448 $188 #
plane-surface $-1 -62.106387524033323 0 0 1 0 0 0 0 -1 forward_v I I I I #
coedge $-1 $449 $311 $450 $451 forward $189 $-1 #
coedge $-1 $452 $191 $449 $453 forward $121 $-1 #
coedge $-1 $191 $452 $454 $455 forward $121 $-1 #
coedge $-1 $314 $313 $191 $307 reversed $315 $-1 #
edge $-1 $456 -40.842337096633038 $457 40.842337096633038 $306 $458 forward 7 unknown #
coedge $-1 $193 $192 $459 $460 forward $76 $-1 #
coedge $-1 $461 $462 $192 $310 reversed $446 $-1 #
edge $-1 $317 -62.106387524033323 $463 62.106387524033323 $309 $464 forward 7 unknown #
coedge $-1 $303 $465 $193 $312 reversed $189 $-1 #
edge $-1 $466 -62.106387524033323 $316 62.106387524033323 $311 $467 forward 7 unknown #
coedge $-1 $306 $194 $465 $468 forward $315 $-1 #
coedge $-1 $194 $306 $461 $469 reversed $315 $-1 #
loop $-1 $-1 $313 $445 #
vertex $-1 $195 $470 #
vertex $-1 $195 $471 #
straight-curve $-1 62.106387524033323 0 17.575155538497427 0 1 0 I I #
face $-1 $472 $473 $46 $-1 $474 reversed single #
loop $-1 $-1 $325 $196 #
plane-surface $-1 62.106387524033323 0 0 -1 0 0 0 0 1 forward_v I I I I #
coedge $-1 $475 $476 $323 $477 forward $197 $-1 #
coedge $-1 $478 $199 $322 $477 reversed $125 $-1 #
coedge $-1 $199 $478 $200 $328 reversed $125 $-1 #
coedge $-1 $202 $479 $199 $326 forward $320 $-1 #
edge $-1 $480 -11.094199603274753 $332 -1.8677122671705959 $325 $481 forward 7 unknown #
coedge $-1 $201 $200 $482 $483 reversed $79 $-1 #
edge $-1 $332 -62.106387524033323 $484 62.106387524033323 $324 $485 forward 7 unknown #
coedge $-1 $486 $487 $201 $330 forward $473 $-1 #
edge $-1 $333 -62.106387524033323 $488 62.106387524033323 $329 $489 forward 7 unknown #
coedge $-1 $479 $202 $487 $490 forward $320 $-1 #
vertex $-1 $203 $491 #
vertex $-1 $490 $492 #
straight-curve $-1 62.106387524033323 -16.196059212919263 -8.3486682023932701 0 -1 0 I I #
face $-1 $493 $494 $47 $-1 $495 reversed single #
loop $-1 $-1 $496 $204 #
plane-surface $-1 0 0 -17.575155538497427 0 0 1 1 0 0 forward_v I I I I #
coedge $-1 $497 $207 $496 $498 reversed $129 $-1 #
coedge $-1 $207 $497 $209 $345 reversed $129 $-1 #
coedge $-1 $499 $500 $207 $341 forward $494 $-1 #
edge $-1 $501 -11.094199603274753 $502 -1.8677122671705959 $340 $503 forward 7 unknown #
coedge $-1 $209 $208 $499 $504 reversed $82 $-1 #
coedge $-1 $505 $506 $208 $344 forward $507 $-1 #
edge $-1 $508 -62.106387524033323 $348 62.106387524033323 $343 $509 forward 7 unknown #
edge $-1 $502 -62.106387524033323 $349 62.106387524033323 $339 $510 forward 7 unknown #
coedge $-1 $511 $210 $497 $512 forward $205 $-1 #
coedge $-1 $210 $511 $505 $513 reversed $205 $-1 #
vertex $-1 $513 $514 #
vertex $-1 $211 $515 #
straight-curve $-1 62.106387524033323 16.196059212919263 -8.3486682023932701 0 -1 0 I I #
face $-1 $-1 $516 $48 $-1 $517 forward single #
loop $-1 $-1 $218 $212 #
plane-surface $-1 -62.106387524033323 0 0 1 0 0 0 0 -1 forward_v I I I I #
coedge $-1 $518 $519 $520 $521 reversed $213 $-1 #
coedge $-1 $522 $215 $217 $361 forward $133 $-1 #
coedge $-1 $215 $522 $518 $523 forward $133 $-1 #
coedge $-1 $520 $218 $215 $358 forward $352 $-1 #
edge $-1 $364 5.6358215519765817 $524 11.679008756205612 $357 $525 forward 7 unknown #
coedge $-1 $526 $527 $216 $360 forward $516 $-1 #
edge $-1 $528 -17.684173447377333 $363 -9.6922630266057581 $359 $529 forward 7 unknown #
edge $-1 $364 1.888283279974768e-014 $528 10.589385246512389 $217 $530 forward 7 unknown #
coedge $-1 $218 $520 $526 $531 reversed $352 $-1 #
vertex $-1 $531 $532 #
vertex $-1 $219 $533 #
straight-curve $-1 -62.106387524033323 -14.293236706067679 52.186232052477024 0 0 -1 I I #
coedge $-1 $366 $366 $-1 $534 reversed $222 $-1 #
edge $-1 $535 0 $535 6.2831853071796004 $223 $536 forward 7 unknown #
vertex $-1 $226 $537 #
ellipse-curve $-1 -58.110432313647536 -18.609798994802702 14.101524595038674 -0.6560590369687036 0 0.75470957328743171 0.37735478664371586 0 0.3280295184843518 1 I I #
coedge $-1 $370 $370 $-1 $538 reversed $229 $-1 #
edge $-1 $539 0 $539 6.2831853071796004 $230 $540 forward 7 unknown #
vertex $-1 $233 $541 #
ellipse-curve $-1 -58.110432313647536 -16.019861621561688 14.101524595038674 -0.6560590369687036 0 0.75470957328743171 0.37735478664371586 0 0.3280295184843518 1 I I #
face $-1 $-1 $386 $51 $-1 $542 reversed single #
loop $-1 $-1 $543 $234 #
plane-surface $-1 0 0 17.575155538497427 0 0 1 1 0 0 forward_v I I I I #
coedge $-1 $544 $545 $546 $547 reversed $235 $-1 #
coedge $-1 $548 $237 $239 $384 forward $147 $-1 #
coedge $-1 $237 $548 $544 $549 forward $147 $-1 #
coedge $-1 $546 $240 $237 $381 forward $386 $-1 #
edge $-1 $388 -6.3351283255454245 $550 -0.29194112131639294 $380 $551 forward 7 unknown #
coedge $-1 $552 $553 $238 $383 forward $375 $-1 #
edge $-1 $554 -17.684173447377333 $387 -9.6922630266057581 $382 $555 forward 7 unknown #
edge $-1 $388 1.888283279974768e-014 $554 10.589385246512389 $239 $556 forward 7 unknown #
coedge $-1 $240 $546 $552 $557 reversed $386 $-1 #
loop $-1 $-1 $546 $374 #
vertex $-1 $557 $558 #
vertex $-1 $241 $559 #
straight-curve $-1 -62.106387524033323 9.6486630489763332 52.186232052477024 0 0 -1 I I #
coedge $-1 $390 $390 $-1 $560 reversed $244 $-1 #
edge $-1 $561 0 $561 6.2831853071796004 $245 $562 forward 7 unknown #
vertex $-1 $248 $563 #
ellipse-curve $-1 -58.110432313647536 5.3321007602413104 14.101524595038674 -0.6560590369687036 0 0.75470957328743171 0.37735478664371586 0 0.3280295184843518 1 I I #
coedge $-1 $394 $394 $-1 $564 reversed $251 $-1 #
edge $-1 $565 0 $565 6.2831853071796004 $252 $566 forward 7 unknown #
vertex $-1 $255 $567 #
ellipse-curve $-1 -58.110432313647536 7.9220381334823244 14.101524595038674 -0.6560590369687036 0 0.75470957328743171 0.37735478664371586 0 0.3280295184843518 1 I I #
face $-1 $-1 $568 $54 $-1 $569 reversed single #
loop $-1 $-1 $262 $256 #
plane-surface $-1 0 0 17.575155538497427 0 0 1 1 0 0 forward_v I I I I #
coedge $-1 $570 $571 $572 $573 reversed $257 $-1 #
coedge $-1 $574 $259 $261 $408 forward $161 $-1 #
coedge $-1 $259 $574 $570 $575 forward $161 $-1 #
coedge $-1 $572 $262 $259 $405 forward $399 $-1 #
edge $-1 $411 5.6358215519765817 $576 11.679008756205612 $404 $577 forward 7 unknown #
coedge $-1 $578 $579 $260 $407 forward $568 $-1 #
edge $-1 $580 -82.303795189519519 $410 -75.356533302602003 $406 $581 forward 7 unknown #
edge $-1 $411 113.62338980155424 $580 124.21277504806663 $261 $582 forward 7 unknown #
coedge $-1 $262 $572 $578 $583 forward $399 $-1 #
vertex $-1 $263 $584 #
vertex $-1 $263 $585 #
straight-curve $-1 24.92636532395202 -14.293236706067679 17.575155538497427 -1 0 0 I I #
coedge $-1 $413 $413 $-1 $586 reversed $266 $-1 #
edge $-1 $587 0 $587 6.2831853071796004 $267 $588 forward 7 unknown #
vertex $-1 $270 $589 #
ellipse-curve $-1 58.110432313647529 -18.609798994802702 14.101524595038676 0.6560590369687036 0 0.75470957328743171 0.37735478664371586 0 -0.3280295184843518 1 I I #
coedge $-1 $417 $417 $-1 $590 reversed $273 $-1 #
edge $-1 $591 0 $591 6.2831853071796004 $274 $592 forward 7 unknown #
vertex $-1 $277 $593 #
ellipse-curve $-1 58.110432313647529 -16.019861621561688 14.101524595038676 0.6560590369687036 0 0.75470957328743171 0.37735478664371586 0 -0.3280295184843518 1 I I #
face $-1 $-1 $433 $57 $-1 $594 forward single #
loop $-1 $-1 $595 $278 #
plane-surface $-1 62.106387524033323 0 0 -1 0 0 0 0 1 forward_v I I I I #
coedge $-1 $596 $597 $598 $599 reversed $279 $-1 #
coedge $-1 $600 $281 $283 $431 forward $175 $-1 #
coedge $-1 $281 $600 $596 $601 forward $175 $-1 #
coedge $-1 $598 $284 $281 $428 forward $433 $-1 #
edge $-1 $435 -6.3351283255454245 $602 -0.29194112131639294 $427 $603 forward 7 unknown #
coedge $-1 $604 $605 $282 $430 forward $422 $-1 #
edge $-1 $606 -82.303795189519519 $434 -75.356533302602003 $429 $607 forward 7 unknown #
edge $-1 $435 113.62338980155424 $606 124.21277504806663 $283 $608 forward 7 unknown #
coedge $-1 $284 $598 $604 $609 forward $433 $-1 #
loop $-1 $-1 $598 $421 #
vertex $-1 $430 $610 #
vertex $-1 $285 $611 #
straight-curve $-1 24.92636532395202 9.6486630489763332 17.575155538497427 -1 0 0 I I #
coedge $-1 $437 $437 $-1 $612 reversed $288 $-1 #
edge $-1 $613 0 $613 6.2831853071796004 $289 $614 forward 7 unknown #
vertex $-1 $292 $615 #
ellipse-curve $-1 58.110432313647529 5.3321007602413104 14.101524595038676 0.6560590369687036 0 0.75470957328743171 0.37735478664371586 0 -0.3280295184843518 1 I I #
coedge $-1 $441 $441 $-1 $616 reversed $295 $-1 #
edge $-1 $617 0 $617 6.2831853071796004 $296 $618 forward 7 unknown #
vertex $-1 $299 $619 #
ellipse-curve $-1 58.110432313647529 7.9220381334823244 14.101524595038676 0.6560590369687036 0 0.75470957328743171 0.37735478664371586 0 -0.3280295184843518 1 I I #
face $-1 $-1 $315 $45 $-1 $620 reversed single #
loop $-1 $-1 $461 $300 #
plane-surface $-1 0 40.842337096633038 0 0 -1 0 0 0 -1 forward_v I I I I #
coedge $-1 $621 $459 $462 $622 forward $301 $-1 #
coedge $-1 $465 $303 $304 $453 reversed $189 $-1 #
coedge $-1 $459 $621 $303 $451 reversed $301 $-1 #
edge $-1 $466 -17.575155538497427 $623 17.575155538497427 $450 $624 forward 7 unknown #
coedge $-1 $305 $304 $621 $625 forward $121 $-1 #
edge $-1 $457 -62.106387524033323 $623 62.106387524033323 $449 $626 forward 7 unknown #
coedge $-1 $462 $461 $305 $455 reversed $446 $-1 #
edge $-1 $627 -62.106387524033323 $456 62.106387524033323 $454 $628 forward 7 unknown #
vertex $-1 $307 $629 #
vertex $-1 $468 $630 #
straight-curve $-1 62.106387524033323 0 -17.575155538497427 0 -1 0 I I #
coedge $-1 $448 $450 $308 $460 reversed $301 $-1 #
edge $-1 $463 -40.842337096633038 $466 40.842337096633038 $459 $631 forward 7 unknown #
coedge $-1 $454 $309 $314 $469 forward $446 $-1 #
coedge $-1 $309 $454 $448 $622 reversed $446 $-1 #
vertex $-1 $310 $632 #
straight-curve $-1 0 40.842337096633038 17.575155538497427 -1 0 0 I I #
coedge $-1 $311 $449 $313 $468 reversed $189 $-1 #
vertex $-1 $460 $633 #
straight-curve $-1 0 -40.842337096633038 17.575155538497427 1 0 0 I I #
edge $-1 $316 -17.575155538497427 $457 17.575155538497427 $313 $634 forward 7 unknown #
edge $-1 $317 -17.575155538497427 $456 17.575155538497427 $314 $635 forward 7 unknown #
point $-1 62.106387524033323 -40.842337096633038 17.575155538497427 #
point $-1 62.106387524033323 40.842337096633038 17.575155538497427 #
face $-1 $-1 $636 $46 $-1 $637 reversed single #
loop $-1 $-1 $329 $319 #
plane-surface $-1 0 -40.842337096633038 0 0 1 0 0 0 1 forward_v I I I I #
coedge $-1 $638 $322 $479 $639 forward $197 $-1 #
coedge $-1 $322 $638 $640 $641 forward $197 $-1 #
edge $-1 $642 -62.106387524033323 $480 62.106387524033323 $322 $643 forward 7 unknown #
coedge $-1 $324 $323 $644 $645 reversed $125 $-1 #
coedge $-1 $325 $331 $475 $639 reversed $320 $-1 #
vertex $-1 $639 $646 #
straight-curve $-1 62.106387524033323 -23.941899755044012 -6.4809559352226742 0 0 1 I I #
coedge $-1 $644 $647 $327 $483 forward $636 $-1 #
edge $-1 $488 -24.646277883713775 $484 -7.7458405421247498 $482 $648 forward 7 unknown #
vertex $-1 $483 $649 #
straight-curve $-1 0 -23.941899755044012 -8.3486682023932701 -1 0 0 I I #
coedge $-1 $650 $329 $647 $651 forward $473 $-1 #
coedge $-1 $329 $650 $331 $490 reversed $473 $-1 #
vertex $-1 $651 $652 #
straight-curve $-1 0 -40.842337096633038 -8.3486682023932701 -1 0 0 I I #
edge $-1 $333 8.3486682023932701 $653 17.575155538497427 $331 $654 forward 7 unknown #
point $-1 62.106387524033323 -23.941899755044012 -8.3486682023932701 #
point $-1 62.106387524033323 -40.842337096633038 -8.3486682023932701 #
face $-1 $-1 $507 $47 $-1 $655 reversed single #
loop $-1 $-1 $499 $335 #
plane-surface $-1 -62.106387524033323 0 0 1 0 0 0 0 -1 forward_v I I I I #
coedge $-1 $656 $657 $338 $498 forward $336 $-1 #
coedge $-1 $339 $338 $346 $512 reversed $129 $-1 #
edge $-1 $658 -62.106387524033323 $501 62.106387524033323 $496 $659 forward 7 unknown #
coedge $-1 $660 $340 $342 $504 forward $494 $-1 #
coedge $-1 $340 $660 $656 $661 reversed $494 $-1 #
vertex $-1 $661 $662 #
vertex $-1 $504 $663 #
straight-curve $-1 -62.106387524033323 23.941899755044012 -6.4809559352226742 0 0 1 I I #
edge $-1 $502 7.7458405421247498 $508 24.646277883713775 $499 $664 forward 7 unknown #
coedge $-1 $665 $343 $347 $513 forward $507 $-1 #
coedge $-1 $343 $665 $660 $666 reversed $507 $-1 #
loop $-1 $-1 $343 $493 #
vertex $-1 $666 $667 #
straight-curve $-1 0 40.842337096633038 -8.3486682023932701 1 0 0 I I #
straight-curve $-1 0 23.941899755044012 -8.3486682023932701 1 0 0 I I #
coedge $-1 $347 $346 $657 $668 reversed $205 $-1 #
edge $-1 $349 1.8677122671705959 $658 11.094199603274753 $346 $669 forward 7 unknown #
edge $-1 $348 8.3486682023932701 $670 17.575155538497427 $347 $671 forward 7 unknown #
point $-1 62.106387524033323 40.842337096633038 -8.3486682023932701 #
point $-1 62.106387524033323 23.941899755044012 -8.3486682023932701 #
loop $-1 $-1 $359 $351 #
plane-surface $-1 0 0 17.575155538497427 0 0 1 1 0 0 forward_v I I I I #
coedge $-1 $519 $354 $356 $523 reversed $213 $-1 #
coedge $-1 $354 $518 $672 $673 reversed $213 $-1 #
coedge $-1 $362 $357 $354 $521 forward $352 $-1 #
edge $-1 $524 -41.5583384008971 $674 -34.611076513979597 $520 $675 forward 7 unknown #
coedge $-1 $356 $355 $527 $676 reversed $133 $-1 #
edge $-1 $677 -10.589385246512389 $524 -1.888283279974768e-014 $518 $678 forward 7 unknown #
vertex $-1 $358 $679 #
straight-curve $-1 -62.106387524033323 -8.6574151540910975 10.627893651579924 0 -1 0 I I #
coedge $-1 $672 $359 $362 $531 forward $516 $-1 #
coedge $-1 $359 $672 $522 $676 forward $516 $-1 #
vertex $-1 $360 $680 #
straight-curve $-1 -71.798650550639081 -14.293236706067679 17.575155538497427 -1 0 0 I I #
straight-curve $-1 -62.106387524033337 -14.293236706067679 10.62789365157991 0.75470957328743171 0 0.6560590369687036 I I #
edge $-1 $363 14.293236706067679 $674 20.336423910296709 $362 $681 forward 7 unknown #
point $-1 -62.106387524033323 -14.293236706067679 17.575155538497427 #
point $-1 -62.106387524033323 -14.293236706067679 10.627893651579923 #
edge $-1 $682 1 $682 0 $366 $-1 forward 7 unknown #
vertex $-1 $367 $683 #
ellipse-curve $-1 -56.98460841706769 -18.609798994802702 12.806412379969679 -0.6560590369687036 0 0.75470957328743171 0.37735478664371586 0 0.3280295184843518 1 I I #
point $-1 -57.733077527003815 -18.609798994802702 14.429554113523023 #
edge $-1 $684 1 $684 0 $370 $-1 forward 7 unknown #
vertex $-1 $371 $685 #
ellipse-curve $-1 -56.98460841706769 -16.019861621561688 12.806412379969679 -0.6560590369687036 0 0.75470957328743171 0.37735478664371586 0 0.3280295184843518 1 I I #
point $-1 -57.733077527003815 -16.019861621561688 14.429554113523023 #
plane-surface $-1 -62.106387524033323 0 0 1 0 0 0 0 -1 forward_v I I I I #
coedge $-1 $553 $552 $545 $686 forward $375 $-1 #
coedge $-1 $545 $377 $379 $549 reversed $235 $-1 #
coedge $-1 $377 $544 $543 $686 reversed $235 $-1 #
coedge $-1 $385 $380 $377 $547 forward $386 $-1 #
edge $-1 $550 -41.5583384008971 $687 -34.611076513979597 $546 $688 forward 7 unknown #
coedge $-1 $379 $378 $553 $689 reversed $147 $-1 #
edge $-1 $690 -10.589385246512389 $550 -1.888283279974768e-014 $544 $691 forward 7 unknown #
vertex $-1 $381 $692 #
straight-curve $-1 -62.106387524033323 3.3135347234309087 10.627893651579924 0 -1 0 I I #
coedge $-1 $543 $382 $385 $557 forward $375 $-1 #
coedge $-1 $382 $543 $548 $689 forward $375 $-1 #
vertex $-1 $383 $693 #
straight-curve $-1 -71.798650550639081 9.6486630489763332 17.575155538497427 -1 0 0 I I #
straight-curve $-1 -62.106387524033337 9.6486630489763332 10.62789365157991 0.75470957328743171 0 0.6560590369687036 I I #
edge $-1 $387 -9.6486630489763332 $687 -3.6054758447473017 $385 $694 forward 7 unknown #
point $-1 -62.106387524033323 9.6486630489763332 17.575155538497427 #
point $-1 -62.106387524033323 9.6486630489763332 10.627893651579923 #
edge $-1 $695 1 $695 0 $390 $-1 forward 7 unknown #
vertex $-1 $391 $696 #
ellipse-curve $-1 -56.98460841706769 5.3321007602413104 12.806412379969679 -0.6560590369687036 0 0.75470957328743171 0.37735478664371586 0 0.3280295184843518 1 I I #
point $-1 -57.733077527003815 5.3321007602413104 14.429554113523023 #
edge $-1 $697 1 $697 0 $394 $-1 forward 7 unknown #
vertex $-1 $395 $698 #
ellipse-curve $-1 -56.98460841706769 7.9220381334823244 12.806412379969679 -0.6560590369687036 0 0.75470957328743171 0.37735478664371586 0 0.3280295184843518 1 I I #
point $-1 -57.733077527003815 7.9220381334823244 14.429554113523023 #
loop $-1 $-1 $406 $398 #
plane-surface $-1 62.106387524033323 0 0 -1 0 0 0 0 1 forward_v I I I I #
coedge $-1 $571 $401 $403 $575 reversed $257 $-1 #
coedge $-1 $401 $570 $699 $700 reversed $257 $-1 #
coedge $-1 $409 $404 $401 $573 forward $399 $-1 #
edge $-1 $576 29.188111779309715 $701 37.180022200081304 $572 $702 forward 7 unknown #
coedge $-1 $403 $402 $579 $703 reversed $161 $-1 #
edge $-1 $704 -124.21277504806663 $576 -113.62338980155424 $570 $705 forward 7 unknown #
vertex $-1 $405 $706 #
straight-curve $-1 54.114477103261727 -8.6574151540910975 17.575155538497434 0 -1 0 I I #
coedge $-1 $699 $406 $409 $583 reversed $568 $-1 #
coedge $-1 $406 $699 $574 $703 forward $568 $-1 #
vertex $-1 $407 $707 #
straight-curve $-1 62.106387524033323 -14.293236706067679 92.93168884109943 0 0 1 I I #
straight-curve $-1 -31.638182929340786 -14.293236706067679 92.118807228824721 0.75470957328743171 0 -0.6560590369687036 I I #
edge $-1 $701 -20.336423910296709 $410 -14.293236706067679 $578 $708 forward 7 unknown #
point $-1 62.106387524033323 -14.293236706067679 17.575155538497427 #
point $-1 54.114477103261734 -14.293236706067679 17.575155538497427 #
edge $-1 $709 1 $709 0 $413 $-1 forward 7 unknown #
vertex $-1 $414 $710 #
ellipse-curve $-1 56.984608417067676 -18.609798994802702 12.806412379969675 0.6560590369687036 0 0.75470957328743171 0.37735478664371586 0 -0.3280295184843518 1 I I #
point $-1 58.487787100291236 -18.609798994802702 13.773495076554317 #
edge $-1 $711 1 $711 0 $417 $-1 forward 7 unknown #
vertex $-1 $418 $712 #
ellipse-curve $-1 56.984608417067676 -16.019861621561688 12.806412379969675 0.6560590369687036 0 0.75470957328743171 0.37735478664371586 0 -0.3280295184843518 1 I I #
point $-1 58.487787100291236 -16.019861621561688 13.773495076554317 #
plane-surface $-1 0 0 17.575155538497427 0 0 1 1 0 0 forward_v I I I I #
coedge $-1 $605 $604 $597 $713 forward $422 $-1 #
coedge $-1 $597 $424 $426 $601 reversed $279 $-1 #
coedge $-1 $424 $596 $595 $713 reversed $279 $-1 #
coedge $-1 $432 $427 $424 $599 forward $433 $-1 #
edge $-1 $602 29.188111779309715 $714 37.180022200081304 $598 $715 forward 7 unknown #
coedge $-1 $426 $425 $605 $716 reversed $175 $-1 #
edge $-1 $717 -124.21277504806663 $602 -113.62338980155424 $596 $718 forward 7 unknown #
vertex $-1 $428 $719 #
straight-curve $-1 54.114477103261727 3.3135347234309087 17.575155538497434 0 -1 0 I I #
coedge $-1 $595 $429 $432 $609 reversed $422 $-1 #
coedge $-1 $429 $595 $600 $716 forward $422 $-1 #
vertex $-1 $430 $720 #
straight-curve $-1 62.106387524033323 9.6486630489763332 92.93168884109943 0 0 1 I I #
straight-curve $-1 -31.638182929340786 9.6486630489763332 92.118807228824721 0.75470957328743171 0 -0.6560590369687036 I I #
edge $-1 $714 3.6054758447473017 $434 9.6486630489763332 $604 $721 forward 7 unknown #
point $-1 62.106387524033323 9.6486630489763332 17.575155538497427 #
point $-1 54.114477103261734 9.6486630489763332 17.575155538497427 #
edge $-1 $722 1 $722 0 $437 $-1 forward 7 unknown #
vertex $-1 $438 $723 #
ellipse-curve $-1 56.984608417067676 5.3321007602413104 12.806412379969675 0.6560590369687036 0 0.75470957328743171 0.37735478664371586 0 -0.3280295184843518 1 I I #
point $-1 58.487787100291236 5.3321007602413104 13.773495076554317 #
edge $-1 $724 1 $724 0 $441 $-1 forward 7 unknown #
vertex $-1 $442 $725 #
ellipse-curve $-1 56.984608417067676 7.9220381334823244 12.806412379969675 0.6560590369687036 0 0.75470957328743171 0.37735478664371586 0 -0.3280295184843518 1 I I #
point $-1 58.487787100291236 7.9220381334823244 13.773495076554317 #
plane-surface $-1 62.106387524033323 0 0 -1 0 0 0 0 1 forward_v I I I I #
coedge $-1 $450 $448 $452 $625 reversed $301 $-1 #
edge $-1 $463 -17.575155538497427 $627 17.575155538497427 $462 $726 forward 7 unknown #
vertex $-1 $625 $727 #
straight-curve $-1 -62.106387524033323 -40.842337096633038 0 0 0 -1 I I #
edge $-1 $623 -40.842337096633038 $627 40.842337096633038 $621 $728 forward 7 unknown #
straight-curve $-1 0 -40.842337096633038 -17.575155538497427 -1 0 0 I I #
vertex $-1 $455 $729 #
straight-curve $-1 0 40.842337096633038 -17.575155538497427 1 0 0 I I #
point $-1 62.106387524033323 40.842337096633038 -17.575155538497427 #
point $-1 62.106387524033323 -40.842337096633038 -17.575155538497427 #
straight-curve $-1 -62.106387524033323 0 17.575155538497427 0 -1 0 I I #
point $-1 -62.106387524033323 40.842337096633038 17.575155538497427 #
point $-1 -62.106387524033323 -40.842337096633038 17.575155538497427 #
straight-curve $-1 62.106387524033323 -40.842337096633038 0 0 0 -1 I I #
straight-curve $-1 62.106387524033323 40.842337096633038 0 0 0 -1 I I #
loop $-1 $-1 $644 $472 #
plane-surface $-1 -62.106387524033323 0 0 1 0 0 0 0 -1 forward_v I I I I #
coedge $-1 $476 $475 $650 $730 forward $197 $-1 #
edge $-1 $480 23.941899755044012 $653 40.842337096633038 $479 $731 forward 7 unknown #
coedge $-1 $647 $644 $476 $641 reversed $636 $-1 #
edge $-1 $732 -40.842337096633038 $642 -23.941899755044012 $640 $733 forward 7 unknown #
vertex $-1 $645 $734 #
straight-curve $-1 0 -23.941899755044012 -17.575155538497427 1 0 0 I I #
coedge $-1 $640 $482 $478 $645 forward $636 $-1 #
edge $-1 $484 1.8677122671705959 $642 11.094199603274753 $644 $735 forward 7 unknown #
point $-1 62.106387524033323 -23.941899755044012 -17.575155538497427 #
coedge $-1 $482 $640 $486 $651 reversed $636 $-1 #
straight-curve $-1 -62.106387524033323 -16.196059212919263 -8.3486682023932701 0 1 0 I I #
point $-1 -62.106387524033323 -23.941899755044012 -8.3486682023932701 #
coedge $-1 $487 $486 $638 $730 reversed $473 $-1 #
edge $-1 $488 8.3486682023932701 $732 17.575155538497427 $647 $736 forward 7 unknown #
point $-1 -62.106387524033323 -40.842337096633038 -8.3486682023932701 #
vertex $-1 $490 $737 #
straight-curve $-1 62.106387524033323 -40.842337096633038 0 0 0 -1 I I #
plane-surface $-1 0 40.842337096633038 0 0 -1 0 0 0 -1 forward_v I I I I #
coedge $-1 $738 $496 $500 $661 forward $336 $-1 #
coedge $-1 $496 $738 $511 $668 forward $336 $-1 #
vertex $-1 $498 $739 #
straight-curve $-1 0 23.941899755044012 -17.575155538497427 -1 0 0 I I #
coedge $-1 $500 $499 $506 $666 forward $494 $-1 #
edge $-1 $501 23.941899755044012 $740 40.842337096633038 $500 $741 forward 7 unknown #
point $-1 -62.106387524033323 23.941899755044012 -17.575155538497427 #
point $-1 -62.106387524033323 23.941899755044012 -8.3486682023932701 #
straight-curve $-1 -62.106387524033323 16.196059212919263 -8.3486682023932701 0 1 0 I I #
coedge $-1 $506 $505 $738 $742 reversed $507 $-1 #
edge $-1 $508 8.3486682023932701 $740 17.575155538497427 $506 $743 forward 7 unknown #
point $-1 -62.106387524033323 40.842337096633038 -8.3486682023932701 #
edge $-1 $670 -40.842337096633038 $658 -23.941899755044012 $511 $744 forward 7 unknown #
straight-curve $-1 62.106387524033323 23.941899755044012 -6.4809559352226742 0 0 -1 I I #
vertex $-1 $668 $745 #
straight-curve $-1 62.106387524033323 40.842337096633038 0 0 0 -1 I I #
coedge $-1 $527 $526 $519 $673 forward $516 $-1 #
edge $-1 $674 9.6922630266057581 $677 17.684173447377333 $672 $746 forward 7 unknown #
vertex $-1 $673 $747 #
straight-curve $-1 -62.106387524033323 -20.336423910296709 52.186232052477024 0 0 1 I I #
edge $-1 $677 -11.679008756205612 $528 -5.6358215519765817 $527 $748 forward 7 unknown #
vertex $-1 $676 $749 #
straight-curve $-1 -62.106387524033337 -20.336423910296709 10.62789365157991 -0.75470957328743171 0 -0.6560590369687036 I I #
point $-1 -62.106387524033323 -20.336423910296709 10.627893651579923 #
point $-1 -54.114477103261748 -14.293236706067679 17.575155538497427 #
straight-curve $-1 -62.106387524033323 0 17.575155538497427 0 -1 0 I I #
vertex $-1 $534 $750 #
point $-1 -56.607253630423969 -18.609798994802702 13.134441898454032 #
vertex $-1 $538 $751 #
point $-1 -56.607253630423969 -16.019861621561688 13.134441898454032 #
edge $-1 $687 9.6922630266057581 $690 17.684173447377333 $543 $752 forward 7 unknown #
vertex $-1 $686 $753 #
straight-curve $-1 -62.106387524033323 3.6054758447473017 52.186232052477024 0 0 1 I I #
edge $-1 $690 0.29194112131639294 $554 6.3351283255454245 $553 $754 forward 7 unknown #
vertex $-1 $689 $755 #
straight-curve $-1 -62.106387524033337 3.6054758447473017 10.62789365157991 -0.75470957328743171 0 -0.6560590369687036 I I #
point $-1 -62.106387524033323 3.6054758447473017 10.627893651579923 #
point $-1 -54.114477103261748 9.6486630489763332 17.575155538497427 #
straight-curve $-1 -62.106387524033323 0 17.575155538497427 0 -1 0 I I #
vertex $-1 $560 $756 #
point $-1 -56.607253630423969 5.3321007602413104 13.134441898454032 #
vertex $-1 $564 $757 #
point $-1 -56.607253630423969 7.9220381334823244 13.134441898454032 #
coedge $-1 $579 $578 $571 $700 forward $568 $-1 #
edge $-1 $701 75.356533302602003 $704 82.303795189519519 $699 $758 forward 7 unknown #
vertex $-1 $583 $759 #
straight-curve $-1 24.92636532395202 -20.336423910296709 17.575155538497427 1 0 0 I I #
edge $-1 $704 -11.679008756205612 $580 -5.6358215519765817 $579 $760 forward 7 unknown #
vertex $-1 $703 $761 #
straight-curve $-1 -31.638182929340786 -20.336423910296709 92.118807228824721 -0.75470957328743171 0 0.6560590369687036 I I #
point $-1 54.114477103261734 -20.336423910296709 17.575155538497427 #
point $-1 62.106387524033323 -14.293236706067679 10.62789365157991 #
straight-curve $-1 62.106387524033323 0 17.575155538497427 0 1 0 I I #
vertex $-1 $586 $762 #
point $-1 57.36196320371139 -18.609798994802702 12.478382861485324 #
vertex $-1 $590 $763 #
point $-1 57.36196320371139 -16.019861621561688 12.478382861485324 #
edge $-1 $714 75.356533302602003 $717 82.303795189519519 $595 $764 forward 7 unknown #
vertex $-1 $609 $765 #
straight-curve $-1 24.92636532395202 3.6054758447473017 17.575155538497427 1 0 0 I I #
edge $-1 $717 0.29194112131639294 $606 6.3351283255454245 $605 $766 forward 7 unknown #
vertex $-1 $716 $767 #
straight-curve $-1 -31.638182929340786 3.6054758447473017 92.118807228824721 -0.75470957328743171 0 0.6560590369687036 I I #
point $-1 54.114477103261734 3.6054758447473017 17.575155538497427 #
point $-1 62.106387524033323 9.6486630489763332 10.62789365157991 #
straight-curve $-1 62.106387524033323 0 17.575155538497427 0 1 0 I I #
vertex $-1 $612 $768 #
point $-1 57.36196320371139 5.3321007602413104 12.478382861485324 #
vertex $-1 $616 $769 #
point $-1 57.36196320371139 7.9220381334823244 12.478382861485324 #
straight-curve $-1 -62.106387524033323 40.842337096633038 0 0 0 -1 I I #
point $-1 -62.106387524033323 -40.842337096633038 -17.575155538497427 #
straight-curve $-1 -62.106387524033323 0 -17.575155538497427 0 1 0 I I #
point $-1 -62.106387524033323 40.842337096633038 -17.575155538497427 #
edge $-1 $653 -62.106387524033323 $732 62.106387524033323 $650 $770 forward 7 unknown #
straight-curve $-1 62.106387524033323 0 -17.575155538497427 0 -1 0 I I #
vertex $-1 $641 $771 #
straight-curve $-1 -62.106387524033323 0 -17.575155538497427 0 1 0 I I #
point $-1 -62.106387524033323 -23.941899755044012 -17.575155538497427 #
straight-curve $-1 -62.106387524033323 -23.941899755044012 -6.4809559352226742 0 0 -1 I I #
straight-curve $-1 -62.106387524033323 -40.842337096633038 0 0 0 -1 I I #
point $-1 62.106387524033323 -40.842337096633038 -17.575155538497427 #
coedge $-1 $657 $656 $665 $742 forward $336 $-1 #
point $-1 62.106387524033323 23.941899755044012 -17.575155538497427 #
vertex $-1 $742 $772 #
straight-curve $-1 -62.106387524033323 0 -17.575155538497427 0 1 0 I I #
edge $-1 $740 -62.106387524033323 $670 62.106387524033323 $665 $773 forward 7 unknown #
straight-curve $-1 -62.106387524033323 40.842337096633038 0 0 0 -1 I I #
straight-curve $-1 62.106387524033323 0 -17.575155538497427 0 -1 0 I I #
point $-1 62.106387524033323 40.842337096633038 -17.575155538497427 #
straight-curve $-1 -71.798650550639081 -20.336423910296709 17.575155538497427 1 0 0 I I #
point $-1 -62.106387524033323 -20.336423910296709 17.575155538497427 #
straight-curve $-1 -54.114477103261748 -8.6574151540910975 17.575155538497427 0 1 0 I I #
point $-1 -54.114477103261748 -20.336423910296709 17.575155538497427 #
point $-1 -56.656578898583334 -18.609798994802702 12.429057593325965 #
point $-1 -56.656578898583334 -16.019861621561688 12.429057593325965 #
straight-curve $-1 -71.798650550639081 3.6054758447473017 17.575155538497427 1 0 0 I I #
point $-1 -62.106387524033323 3.6054758447473017 17.575155538497427 #
straight-curve $-1 -54.114477103261748 3.3135347234309087 17.575155538497427 0 1 0 I I #
point $-1 -54.114477103261748 3.6054758447473017 17.575155538497427 #
point $-1 -56.656578898583334 5.3321007602413104 12.429057593325965 #
point $-1 -56.656578898583334 7.9220381334823244 12.429057593325965 #
straight-curve $-1 62.106387524033323 -20.336423910296709 92.93168884109943 0 0 -1 I I #
point $-1 62.106387524033323 -20.336423910296709 17.575155538497427 #
straight-curve $-1 62.106387524033323 -8.6574151540910975 10.62789365157991 0 1 0 I I #
point $-1 62.106387524033323 -20.336423910296709 10.62789365157991 #
point $-1 56.656578898583319 -18.609798994802702 12.429057593325961 #
point $-1 56.656578898583319 -16.019861621561688 12.429057593325961 #
straight-curve $-1 62.106387524033323 3.6054758447473017 92.93168884109943 0 0 -1 I I #
point $-1 62.106387524033323 3.6054758447473017 17.575155538497427 #
straight-curve $-1 62.106387524033323 3.3135347234309087 10.62789365157991 0 1 0 I I #
point $-1 62.106387524033323 3.6054758447473017 10.62789365157991 #
point $-1 56.656578898583319 5.3321007602413104 12.429057593325961 #
point $-1 56.656578898583319 7.9220381334823244 12.429057593325961 #
straight-curve $-1 0 -40.842337096633038 -17.575155538497427 -1 0 0 I I #
point $-1 -62.106387524033323 -40.842337096633038 -17.575155538497427 #
point $-1 -62.106387524033323 40.842337096633038 -17.575155538497427 #
straight-curve $-1 0 40.842337096633038 -17.575155538497427 1 0 0 I I #
End-of-ACIS-data 