500 0 13 0           
7 Unknown 11 ACIS 5.0 NT 24 Fri Mar 26 01:57:26 1999 
-1 9.9999999999999995e-007 1e-010 
body $-1 $13 $-1 $14 #
body $-1 $15 $-1 $16 #
body $-1 $17 $-1 $18 #
body $-1 $19 $-1 $20 #
body $-1 $21 $-1 $22 #
body $-1 $23 $-1 $24 #
body $-1 $25 $-1 $26 #
body $-1 $27 $-1 $28 #
body $-1 $29 $-1 $30 #
body $-1 $31 $-1 $32 #
body $-1 $33 $-1 $34 #
body $-1 $35 $-1 $36 #
body $-1 $37 $-1 $38 #
lump $-1 $-1 $39 $0 #
transform $-1 1 0 0 0 1 0 0 0 1 55.789056062501906 36.454003159978512 11.7287615074335 1 rotate no_reflect no_shear #
lump $-1 $-1 $40 $1 #
transform $-1 1 0 0 0 1 0 0 0 1 55.789056062501906 36.454003159978512 11.7287615074335 1 rotate no_reflect no_shear #
lump $-1 $-1 $41 $2 #
transform $-1 1 0 0 0 1 0 0 0 1 55.789056062501906 36.454003159978512 11.7287615074335 1 rotate no_reflect no_shear #
lump $-1 $-1 $42 $3 #
transform $-1 1 0 0 0 1 0 0 0 1 55.789056062501906 36.454003159978512 11.7287615074335 1 rotate no_reflect no_shear #
lump $-1 $-1 $43 $4 #
transform $-1 1 0 0 0 1 0 0 0 1 55.789056062501906 36.454003159978512 11.7287615074335 1 rotate no_reflect no_shear #
lump $-1 $-1 $44 $5 #
transform $-1 1 0 0 0 1 0 0 0 1 55.789056062501906 36.454003159978512 11.7287615074335 1 rotate no_reflect no_shear #
lump $-1 $-1 $45 $6 #
transform $-1 1 0 0 0 1 0 0 0 1 55.789056062501906 36.454003159978512 11.7287615074335 1 rotate no_reflect no_shear #
lump $-1 $-1 $46 $7 #
transform $-1 1 0 0 0 1 0 0 0 1 55.789056062501906 36.454003159978512 11.7287615074335 1 rotate no_reflect no_shear #
lump $-1 $-1 $47 $8 #
transform $-1 1 0 0 0 1 0 0 0 1 55.789056062501906 36.454003159978512 11.7287615074335 1 rotate no_reflect no_shear #
lump $-1 $-1 $48 $9 #
transform $-1 1 0 0 0 1 0 0 0 1 55.789056062501906 36.454003159978512 11.7287615074335 1 rotate no_reflect no_shear #
lump $-1 $-1 $49 $10 #
transform $-1 1 0 0 0 1 0 0 0 1 55.789056062501906 36.454003159978512 11.7287615074335 1 rotate no_reflect no_shear #
lump $-1 $-1 $50 $11 #
transform $-1 1 0 0 0 1 0 0 0 1 55.789056062501906 36.454003159978512 11.7287615074335 1 rotate no_reflect no_shear #
lump $-1 $-1 $51 $12 #
transform $-1 1 0 0 0 1 0 0 0 1 55.789056062501906 36.454003159978512 11.7287615074335 1 rotate no_reflect no_shear #
shell $-1 $-1 $-1 $52 $-1 $13 #
shell $-1 $-1 $-1 $53 $-1 $15 #
shell $-1 $-1 $-1 $54 $-1 $17 #
shell $-1 $-1 $-1 $55 $-1 $19 #
shell $-1 $-1 $-1 $56 $-1 $21 #
shell $-1 $-1 $-1 $57 $-1 $23 #
shell $-1 $-1 $-1 $58 $-1 $25 #
shell $-1 $-1 $-1 $59 $-1 $27 #
shell $-1 $-1 $-1 $60 $-1 $29 #
shell $-1 $-1 $-1 $61 $-1 $31 #
shell $-1 $-1 $-1 $62 $-1 $33 #
shell $-1 $-1 $-1 $63 $-1 $35 #
shell $-1 $-1 $-1 $64 $-1 $37 #
face $-1 $65 $66 $39 $-1 $67 forward single #
face $-1 $68 $69 $40 $-1 $70 forward single #
face $-1 $71 $72 $41 $-1 $73 reversed single #
face $-1 $74 $75 $42 $-1 $76 forward single #
face $-1 $77 $78 $43 $-1 $79 forward single #
face $-1 $80 $81 $44 $-1 $82 forward single #
face $-1 $83 $84 $45 $-1 $85 reversed single #
face $-1 $86 $87 $46 $-1 $88 forward single #
face $-1 $89 $90 $47 $-1 $91 forward single #
face $-1 $92 $93 $48 $-1 $94 forward single #
face $-1 $95 $96 $49 $-1 $97 reversed single #
face $-1 $98 $99 $50 $-1 $100 forward single #
face $-1 $101 $102 $51 $-1 $103 forward single #
face $-1 $104 $105 $39 $-1 $106 reversed single #
loop $-1 $-1 $107 $52 #
plane-surface $-1 0 0 11.7287615074335 0 0 1 1 0 0 forward_v I I I I #
face $-1 $108 $109 $40 $-1 $110 reversed single #
loop $-1 $-1 $111 $53 #
plane-surface $-1 0 -28.871894151152127 9.8151478198898623 0 0 1 1 0 0 forward_v I I I I #
face $-1 $112 $113 $41 $-1 $114 reversed single #
loop $-1 $-1 $115 $54 #
plane-surface $-1 -137.39212230695148 -9.4301655421148247 83.103179251871381 0 -1 0 0.73135370988377701 0 -0.68199835119979291 forward_v I I I I #
face $-1 $116 $117 $42 $-1 $118 forward single #
loop $-1 $119 $120 $55 #
cone-surface $-1 -53.221864655734038 -18.917861222283559 9.0269269544334332 0.73135370988377701 0 -0.68199835119979291 0.34099917559989645 0 0.36567685494188851 1 I I 0 1 0.5 forward I I I I #
face $-1 $121 $122 $43 $-1 $123 forward single #
loop $-1 $124 $125 $56 #
cone-surface $-1 -53.221864655734038 -15.359975342220281 9.0269269544334332 0.73135370988377701 0 -0.68199835119979291 0.34099917559989645 0 0.36567685494188851 1 I I 0 1 0.5 forward I I I I #
face $-1 $126 $127 $44 $-1 $128 forward single #
loop $-1 $129 $130 $57 #
cone-surface $-1 -53.221864655734038 -11.802089462157006 9.0269269544334332 0.73135370988377701 0 -0.68199835119979291 0.34099917559989645 0 0.36567685494188851 1 I I 0 1 0.5 forward I I I I #
face $-1 $131 $132 $45 $-1 $133 reversed single #
loop $-1 $-1 $134 $58 #
plane-surface $-1 -55.789056062501899 30.524193359873053 7.0070907526331609 -0.73135370988377701 0 0.68199835119979291 0.68199835119979291 0 0.73135370988377701 forward_v I I I I #
face $-1 $135 $136 $46 $-1 $137 forward single #
loop $-1 $138 $139 $59 #
cone-surface $-1 -53.221864655734038 26.966307479809785 9.0269269544334332 0.73135370988377701 0 -0.68199835119979291 0.34099917559989645 0 0.36567685494188851 1 I I 0 1 0.5 forward I I I I #
face $-1 $140 $141 $47 $-1 $142 forward single #
loop $-1 $143 $144 $60 #
cone-surface $-1 -53.221864655734038 30.524193359873053 9.0269269544334332 0.73135370988377701 0 -0.68199835119979291 0.34099917559989645 0 0.36567685494188851 1 I I 0 1 0.5 forward I I I I #
face $-1 $145 $146 $48 $-1 $147 forward single #
loop $-1 $148 $149 $61 #
cone-surface $-1 -53.221864655734038 34.082079239936334 9.0269269544334332 0.73135370988377701 0 -0.68199835119979291 0.34099917559989645 0 0.36567685494188851 1 I I 0 1 0.5 forward I I I I #
face $-1 $150 $151 $49 $-1 $152 reversed single #
loop $-1 $-1 $153 $62 #
plane-surface $-1 -9.7949114663961723 -13.378784616264184 95.243666879107181 0.80901700255871778 0 0.5877852410284794 0.5877852410284794 0 -0.80901700255871778 forward_v I I I I #
face $-1 $154 $155 $50 $-1 $156 forward single #
loop $-1 $157 $158 $63 #
cone-surface $-1 52.190786359052758 -16.76921341314771 7.5201368838221727 -0.80901700255871778 0 -0.5877852410284794 1.1755704820569588 0 -1.6180340051174356 1 I I 0 1 2 forward I I I I #
face $-1 $159 $160 $51 $-1 $161 forward single #
loop $-1 $162 $163 $64 #
cone-surface $-1 52.190786359052758 -9.9883558193806614 7.5201368838221727 -0.80901700255871778 0 -0.5877852410284794 1.1755704820569588 0 -1.6180340051174356 1 I I 0 1 2 forward I I I I #
face $-1 $164 $165 $39 $-1 $166 reversed single #
loop $-1 $-1 $167 $65 #
plane-surface $-1 0 0 -11.7287615074335 0 0 1 1 0 0 forward_v I I I I #
coedge $-1 $168 $169 $170 $171 forward $66 $-1 #
face $-1 $172 $173 $40 $-1 $174 reversed single #
loop $-1 $-1 $175 $68 #
plane-surface $-1 0 -28.871894151152127 3.5507642894600515 0 0 1 1 0 0 forward_v I I I I #
coedge $-1 $176 $177 $178 $179 reversed $69 $-1 #
face $-1 $180 $181 $41 $-1 $182 forward single #
loop $-1 $-1 $183 $71 #
plane-surface $-1 -55.789056062501899 -15.359975342220284 7.0070907526331609 -0.73135370988377701 0 0.68199835119979291 0.68199835119979291 0 0.73135370988377701 forward_v I I I I #
coedge $-1 $184 $185 $186 $187 reversed $72 $-1 #
face $-1 $-1 $188 $42 $-1 $189 forward single #
loop $-1 $190 $191 $74 #
cone-surface $-1 -52.673349373321201 -18.917861222283559 8.5154281910335889 0.73135370988377701 0 -0.68199835119979291 0.17049958779994823 0 0.18283842747094425 1 I I -0.70710678118654746 0.70710678118654746 0.25 forward I I I I #
loop $-1 $-1 $192 $55 #
coedge $-1 $120 $120 $193 $194 reversed $75 $-1 #
face $-1 $-1 $195 $43 $-1 $196 forward single #
loop $-1 $197 $198 $77 #
cone-surface $-1 -52.673349373321201 -15.359975342220281 8.5154281910335889 0.73135370988377701 0 -0.68199835119979291 0.17049958779994823 0 0.18283842747094425 1 I I -0.70710678118654746 0.70710678118654746 0.25 forward I I I I #
loop $-1 $-1 $199 $56 #
coedge $-1 $125 $125 $200 $201 reversed $78 $-1 #
face $-1 $-1 $202 $44 $-1 $203 forward single #
loop $-1 $204 $205 $80 #
cone-surface $-1 -52.673349373321201 -11.802089462157006 8.5154281910335889 0.73135370988377701 0 -0.68199835119979291 0.17049958779994823 0 0.18283842747094425 1 I I -0.70710678118654746 0.70710678118654746 0.25 forward I I I I #
loop $-1 $-1 $206 $57 #
coedge $-1 $130 $130 $207 $208 reversed $81 $-1 #
face $-1 $209 $210 $45 $-1 $211 reversed single #
loop $-1 $-1 $212 $83 #
plane-surface $-1 -137.39212230695148 24.594383559767593 83.103179251871381 0 1 0 -0.73135370988377701 0 0.68199835119979291 forward_v I I I I #
coedge $-1 $213 $214 $215 $216 reversed $84 $-1 #
face $-1 $-1 $217 $46 $-1 $218 forward single #
loop $-1 $219 $220 $86 #
cone-surface $-1 -52.673349373321201 26.966307479809785 8.5154281910335889 0.73135370988377701 0 -0.68199835119979291 0.17049958779994823 0 0.18283842747094425 1 I I -0.70710678118654746 0.70710678118654746 0.25 forward I I I I #
loop $-1 $-1 $221 $59 #
coedge $-1 $139 $139 $222 $223 reversed $87 $-1 #
face $-1 $-1 $224 $47 $-1 $225 forward single #
loop $-1 $226 $227 $89 #
cone-surface $-1 -52.673349373321201 30.524193359873053 8.5154281910335889 0.73135370988377701 0 -0.68199835119979291 0.17049958779994823 0 0.18283842747094425 1 I I -0.70710678118654746 0.70710678118654746 0.25 forward I I I I #
loop $-1 $-1 $228 $60 #
coedge $-1 $144 $144 $229 $230 reversed $90 $-1 #
face $-1 $-1 $231 $48 $-1 $232 forward single #
loop $-1 $233 $234 $92 #
cone-surface $-1 -52.673349373321201 34.082079239936334 8.5154281910335889 0.73135370988377701 0 -0.68199835119979291 0.17049958779994823 0 0.18283842747094425 1 I I -0.70710678118654746 0.70710678118654746 0.25 forward I I I I #
loop $-1 $-1 $235 $61 #
coedge $-1 $149 $149 $236 $237 reversed $93 $-1 #
face $-1 $238 $239 $49 $-1 $240 forward single #
loop $-1 $-1 $241 $95 #
plane-surface $-1 80.47367835613494 -5.4677840902026258 160.82763440800525 0 -1 0 -0.80901700255871778 0 -0.5877852410284794 forward_v I I I I #
coedge $-1 $242 $243 $244 $245 reversed $96 $-1 #
face $-1 $-1 $246 $50 $-1 $247 forward single #
loop $-1 $248 $249 $98 #
cone-surface $-1 50.236919068349103 -16.76921341314771 6.1005692446110835 -0.80901700255871778 0 -0.5877852410284794 0.5877852410284794 0 -0.80901700255871778 1 I I -0.70710678118654746 0.70710678118654746 1 forward I I I I #
loop $-1 $-1 $250 $63 #
coedge $-1 $158 $158 $251 $252 reversed $99 $-1 #
face $-1 $-1 $253 $51 $-1 $254 forward single #
loop $-1 $255 $256 $101 #
cone-surface $-1 50.236919068349103 -9.9883558193806614 6.1005692446110835 -0.80901700255871778 0 -0.5877852410284794 0.5877852410284794 0 -0.80901700255871778 1 I I -0.70710678118654746 0.70710678118654746 1 forward I I I I #
loop $-1 $-1 $257 $64 #
coedge $-1 $163 $163 $258 $259 reversed $102 $-1 #
face $-1 $260 $261 $39 $-1 $262 reversed single #
loop $-1 $-1 $263 $104 #
plane-surface $-1 0 -36.454003159978512 0 0 1 0 0 0 1 forward_v I I I I #
coedge $-1 $264 $265 $266 $267 forward $105 $-1 #
coedge $-1 $268 $107 $269 $270 forward $66 $-1 #
coedge $-1 $107 $268 $271 $272 forward $66 $-1 #
coedge $-1 $273 $274 $107 $171 reversed $275 $-1 #
edge $-1 $276 -36.454003159978512 $277 36.454003159978512 $170 $278 forward 7 unknown #
face $-1 $279 $280 $40 $-1 $281 reversed single #
loop $-1 $-1 $282 $108 #
plane-surface $-1 0 -21.289785142325741 6.6829560546749569 0 -1 0 0 0 -1 forward_v I I I I #
coedge $-1 $283 $284 $285 $286 reversed $109 $-1 #
coedge $-1 $287 $111 $288 $289 forward $69 $-1 #
coedge $-1 $111 $287 $290 $291 reversed $69 $-1 #
coedge $-1 $292 $293 $111 $179 forward $294 $-1 #
edge $-1 $295 6.8538380667496774 $296 22.018056084402449 $178 $297 forward 7 unknown #
face $-1 $298 $299 $41 $-1 $300 forward single #
loop $-1 $-1 $301 $112 #
plane-surface $-1 0 -21.289785142325741 6.6829560546749569 0 -1 0 0 0 -1 forward_v I I I I #
coedge $-1 $302 $303 $304 $305 reversed $113 $-1 #
coedge $-1 $185 $115 $306 $307 reversed $72 $-1 #
coedge $-1 $115 $184 $302 $308 reversed $72 $-1 #
coedge $-1 $304 $309 $115 $187 forward $310 $-1 #
edge $-1 $311 29.822828118502191 $312 34.544498873302537 $186 $313 forward 7 unknown #
loop $-1 $-1 $193 $116 #
plane-surface $-1 -55.789056062501899 -15.359975342220284 7.0070907526331609 -0.73135370988377701 0 0.68199835119979291 0.68199835119979291 0 0.73135370988377701 forward_v I I I I #
loop $-1 $-1 $314 $74 #
coedge $-1 $191 $191 $192 $315 reversed $117 $-1 #
coedge $-1 $192 $192 $191 $315 forward $119 $-1 #
coedge $-1 $193 $193 $120 $194 forward $188 $-1 #
edge $-1 $316 0 $316 6.2831853071796004 $193 $317 forward 7 unknown #
loop $-1 $-1 $200 $121 #
plane-surface $-1 -55.789056062501899 -15.359975342220284 7.0070907526331609 -0.73135370988377701 0 0.68199835119979291 0.68199835119979291 0 0.73135370988377701 forward_v I I I I #
loop $-1 $-1 $318 $77 #
coedge $-1 $198 $198 $199 $319 reversed $122 $-1 #
coedge $-1 $199 $199 $198 $319 forward $124 $-1 #
coedge $-1 $200 $200 $125 $201 forward $195 $-1 #
edge $-1 $320 0 $320 6.2831853071796004 $200 $321 forward 7 unknown #
loop $-1 $-1 $207 $126 #
plane-surface $-1 -55.789056062501899 -15.359975342220284 7.0070907526331609 -0.73135370988377701 0 0.68199835119979291 0.68199835119979291 0 0.73135370988377701 forward_v I I I I #
loop $-1 $-1 $322 $80 #
coedge $-1 $205 $205 $206 $323 reversed $127 $-1 #
coedge $-1 $206 $206 $205 $323 forward $129 $-1 #
coedge $-1 $207 $207 $130 $208 forward $202 $-1 #
edge $-1 $324 0 $324 6.2831853071796004 $207 $325 forward 7 unknown #
face $-1 $326 $327 $45 $-1 $328 forward single #
loop $-1 $-1 $215 $131 #
plane-surface $-1 -55.789056062501906 0 0 1 0 0 0 0 -1 forward_v I I I I #
coedge $-1 $329 $330 $331 $332 reversed $132 $-1 #
coedge $-1 $333 $134 $334 $335 reversed $84 $-1 #
coedge $-1 $134 $333 $329 $336 forward $84 $-1 #
coedge $-1 $331 $337 $134 $216 forward $210 $-1 #
edge $-1 $338 -21.191906480041986 $339 -9.3322868798310665 $215 $340 forward 7 unknown #
loop $-1 $-1 $222 $135 #
plane-surface $-1 -55.789056062501899 30.524193359873053 7.0070907526331609 -0.73135370988377701 0 0.68199835119979291 0.68199835119979291 0 0.73135370988377701 forward_v I I I I #
loop $-1 $-1 $341 $86 #
coedge $-1 $220 $220 $221 $342 reversed $136 $-1 #
coedge $-1 $221 $221 $220 $342 forward $138 $-1 #
coedge $-1 $222 $222 $139 $223 forward $217 $-1 #
edge $-1 $343 0 $343 6.2831853071796004 $222 $344 forward 7 unknown #
loop $-1 $-1 $229 $140 #
plane-surface $-1 -55.789056062501899 30.524193359873053 7.0070907526331609 -0.73135370988377701 0 0.68199835119979291 0.68199835119979291 0 0.73135370988377701 forward_v I I I I #
loop $-1 $-1 $345 $89 #
coedge $-1 $227 $227 $228 $346 reversed $141 $-1 #
coedge $-1 $228 $228 $227 $346 forward $143 $-1 #
coedge $-1 $229 $229 $144 $230 forward $224 $-1 #
edge $-1 $347 0 $347 6.2831853071796004 $229 $348 forward 7 unknown #
loop $-1 $-1 $236 $145 #
plane-surface $-1 -55.789056062501899 30.524193359873053 7.0070907526331609 -0.73135370988377701 0 0.68199835119979291 0.68199835119979291 0 0.73135370988377701 forward_v I I I I #
loop $-1 $-1 $349 $92 #
coedge $-1 $234 $234 $235 $350 reversed $146 $-1 #
coedge $-1 $235 $235 $234 $350 forward $148 $-1 #
coedge $-1 $236 $236 $149 $237 forward $231 $-1 #
edge $-1 $351 0 $351 6.2831853071796004 $236 $352 forward 7 unknown #
face $-1 $353 $354 $49 $-1 $355 forward single #
loop $-1 $-1 $356 $150 #
plane-surface $-1 0 0 11.7287615074335 0 0 1 1 0 0 forward_v I I I I #
coedge $-1 $357 $358 $359 $360 reversed $151 $-1 #
coedge $-1 $361 $153 $362 $363 reversed $96 $-1 #
coedge $-1 $153 $361 $357 $364 forward $96 $-1 #
coedge $-1 $359 $365 $153 $245 forward $366 $-1 #
edge $-1 $367 -14.600392834193649 $368 1.2216082179294663 $244 $369 forward 7 unknown #
loop $-1 $-1 $251 $154 #
plane-surface $-1 -9.7949114663961723 -13.378784616264184 95.243666879107181 0.80901700255871778 0 0.5877852410284794 0.5877852410284794 0 -0.80901700255871778 forward_v I I I I #
loop $-1 $-1 $370 $98 #
coedge $-1 $249 $249 $250 $371 reversed $155 $-1 #
coedge $-1 $250 $250 $249 $371 forward $157 $-1 #
coedge $-1 $251 $251 $158 $252 forward $246 $-1 #
edge $-1 $372 0 $372 6.2831853071796004 $251 $373 forward 7 unknown #
loop $-1 $-1 $258 $159 #
plane-surface $-1 -9.7949114663961723 -13.378784616264184 95.243666879107181 0.80901700255871778 0 0.5877852410284794 0.5877852410284794 0 -0.80901700255871778 forward_v I I I I #
loop $-1 $-1 $374 $101 #
coedge $-1 $256 $256 $257 $375 reversed $160 $-1 #
coedge $-1 $257 $257 $256 $375 forward $162 $-1 #
coedge $-1 $258 $258 $163 $259 forward $253 $-1 #
edge $-1 $376 0 $376 6.2831853071796004 $258 $377 forward 7 unknown #
face $-1 $378 $379 $39 $-1 $380 reversed single #
loop $-1 $-1 $381 $164 #
plane-surface $-1 -55.789056062501906 0 0 1 0 0 0 0 -1 forward_v I I I I #
coedge $-1 $382 $271 $383 $384 forward $165 $-1 #
coedge $-1 $385 $167 $382 $386 forward $105 $-1 #
coedge $-1 $167 $385 $387 $388 forward $105 $-1 #
coedge $-1 $274 $273 $167 $267 reversed $275 $-1 #
edge $-1 $389 -36.454003159978512 $390 36.454003159978512 $266 $391 forward 7 unknown #
coedge $-1 $169 $168 $392 $393 forward $66 $-1 #
coedge $-1 $394 $395 $168 $270 reversed $379 $-1 #
edge $-1 $277 -55.789056062501906 $396 55.789056062501906 $269 $397 forward 7 unknown #
coedge $-1 $263 $398 $169 $272 reversed $165 $-1 #
edge $-1 $399 -55.789056062501906 $276 55.789056062501906 $271 $400 forward 7 unknown #
coedge $-1 $266 $170 $398 $401 forward $275 $-1 #
coedge $-1 $170 $266 $394 $402 reversed $275 $-1 #
loop $-1 $-1 $273 $378 #
vertex $-1 $171 $403 #
vertex $-1 $171 $404 #
straight-curve $-1 55.789056062501906 0 11.7287615074335 0 1 0 I I #
face $-1 $405 $406 $40 $-1 $407 reversed single #
loop $-1 $-1 $408 $172 #
plane-surface $-1 -55.789056062501906 0 0 1 0 0 0 0 -1 forward_v I I I I #
coedge $-1 $409 $288 $293 $410 reversed $173 $-1 #
coedge $-1 $411 $175 $412 $413 reversed $109 $-1 #
coedge $-1 $175 $411 $409 $414 forward $109 $-1 #
coedge $-1 $293 $292 $175 $286 forward $294 $-1 #
edge $-1 $415 -22.018056084402449 $416 -6.8538380667496774 $285 $417 forward 7 unknown #
coedge $-1 $177 $176 $408 $418 reversed $69 $-1 #
coedge $-1 $282 $419 $176 $289 reversed $173 $-1 #
edge $-1 $295 -55.789056062501906 $420 55.789056062501906 $288 $421 forward 7 unknown #
coedge $-1 $422 $423 $177 $291 forward $406 $-1 #
edge $-1 $296 -55.789056062501906 $424 55.789056062501906 $290 $425 forward 7 unknown #
coedge $-1 $285 $178 $423 $426 forward $294 $-1 #
coedge $-1 $178 $285 $282 $410 forward $294 $-1 #
loop $-1 $-1 $178 $405 #
vertex $-1 $179 $427 #
vertex $-1 $426 $428 #
straight-curve $-1 55.789056062501906 -14.435947075576063 9.8151478198898623 0 -1 0 I I #
face $-1 $-1 $310 $41 $-1 $429 reversed single #
loop $-1 $-1 $306 $180 #
plane-surface $-1 0 0 11.7287615074335 0 0 1 1 0 0 forward_v I I I I #
coedge $-1 $430 $431 $303 $432 reversed $181 $-1 #
coedge $-1 $433 $183 $185 $308 forward $113 $-1 #
coedge $-1 $183 $433 $301 $432 forward $113 $-1 #
coedge $-1 $434 $186 $183 $305 forward $310 $-1 #
edge $-1 $312 1.7501778710046825 $435 13.609797471215598 $304 $436 forward 7 unknown #
coedge $-1 $437 $438 $184 $307 forward $299 $-1 #
edge $-1 $439 -17.310034194625814 $311 -12.907005090973833 $306 $440 forward 7 unknown #
edge $-1 $312 -1.0692042983031357e-014 $439 6.4560700123483095 $185 $441 forward 7 unknown #
coedge $-1 $186 $434 $437 $442 reversed $310 $-1 #
loop $-1 $-1 $304 $298 #
vertex $-1 $442 $443 #
vertex $-1 $187 $444 #
straight-curve $-1 -55.789056062501906 -9.4301655421148247 41.551589625935691 0 0 -1 I I #
coedge $-1 $314 $314 $-1 $445 reversed $190 $-1 #
edge $-1 $446 0 $446 6.2831853071796004 $191 $447 forward 7 unknown #
vertex $-1 $194 $448 #
ellipse-curve $-1 -53.587541510675919 -18.917861222283559 9.3679261300333234 -0.73135370988377701 0 0.68199835119979291 0.34099917559989645 0 0.36567685494188851 1 I I #
coedge $-1 $318 $318 $-1 $449 reversed $197 $-1 #
edge $-1 $450 0 $450 6.2831853071796004 $198 $451 forward 7 unknown #
vertex $-1 $201 $452 #
ellipse-curve $-1 -53.587541510675919 -15.359975342220281 9.3679261300333234 -0.73135370988377701 0 0.68199835119979291 0.34099917559989645 0 0.36567685494188851 1 I I #
coedge $-1 $322 $322 $-1 $453 reversed $204 $-1 #
edge $-1 $454 0 $454 6.2831853071796004 $205 $455 forward 7 unknown #
vertex $-1 $208 $456 #
ellipse-curve $-1 -53.587541510675919 -11.802089462157006 9.3679261300333234 -0.73135370988377701 0 0.68199835119979291 0.34099917559989645 0 0.36567685494188851 1 I I #
face $-1 $-1 $457 $45 $-1 $458 reversed single #
loop $-1 $-1 $459 $209 #
plane-surface $-1 0 0 11.7287615074335 0 0 1 1 0 0 forward_v I I I I #
coedge $-1 $330 $212 $214 $336 reversed $132 $-1 #
coedge $-1 $212 $329 $460 $461 reversed $132 $-1 #
coedge $-1 $462 $215 $212 $332 forward $210 $-1 #
edge $-1 $339 -34.544498873302537 $463 -29.822828118502191 $331 $464 forward 7 unknown #
coedge $-1 $214 $213 $459 $465 reversed $84 $-1 #
coedge $-1 $466 $467 $213 $335 forward $457 $-1 #
edge $-1 $468 10.005621203745957 $338 16.461691216094277 $334 $469 forward 7 unknown #
edge $-1 $470 -6.4560700123483095 $339 1.0692042983031357e-014 $329 $471 forward 7 unknown #
coedge $-1 $215 $462 $466 $472 forward $210 $-1 #
vertex $-1 $335 $473 #
vertex $-1 $216 $474 #
straight-curve $-1 -55.789056062501906 15.262096679936526 7.0070907526331521 0 -1 0 I I #
coedge $-1 $341 $341 $-1 $475 reversed $219 $-1 #
edge $-1 $476 0 $476 6.2831853071796004 $220 $477 forward 7 unknown #
vertex $-1 $223 $478 #
ellipse-curve $-1 -53.587541510675919 26.966307479809785 9.3679261300333234 -0.73135370988377701 0 0.68199835119979291 0.34099917559989645 0 0.36567685494188851 1 I I #
coedge $-1 $345 $345 $-1 $479 reversed $226 $-1 #
edge $-1 $480 0 $480 6.2831853071796004 $227 $481 forward 7 unknown #
vertex $-1 $230 $482 #
ellipse-curve $-1 -53.587541510675919 30.524193359873053 9.3679261300333234 -0.73135370988377701 0 0.68199835119979291 0.34099917559989645 0 0.36567685494188851 1 I I #
coedge $-1 $349 $349 $-1 $483 reversed $233 $-1 #
edge $-1 $484 0 $484 6.2831853071796004 $234 $485 forward 7 unknown #
vertex $-1 $237 $486 #
ellipse-curve $-1 -53.587541510675919 34.082079239936334 9.3679261300333234 -0.73135370988377701 0 0.68199835119979291 0.34099917559989645 0 0.36567685494188851 1 I I #
face $-1 $-1 $366 $49 $-1 $487 reversed single #
loop $-1 $-1 $362 $238 #
plane-surface $-1 0 -21.289785142325741 6.6829560546749569 0 -1 0 0 0 -1 forward_v I I I I #
coedge $-1 $488 $489 $358 $490 forward $239 $-1 #
coedge $-1 $358 $241 $243 $364 reversed $151 $-1 #
coedge $-1 $241 $357 $356 $490 reversed $151 $-1 #
coedge $-1 $491 $244 $241 $360 forward $366 $-1 #
edge $-1 $368 -75.438740147426572 $492 -68.685055696569123 $359 $493 forward 7 unknown #
coedge $-1 $243 $242 $488 $494 reversed $96 $-1 #
coedge $-1 $495 $496 $242 $363 forward $354 $-1 #
edge $-1 $497 64.527886523216736 $367 72.87589951861392 $362 $498 forward 7 unknown #
edge $-1 $499 103.23009912960666 $368 111.57811212500383 $357 $500 forward 7 unknown #
coedge $-1 $244 $491 $495 $501 forward $366 $-1 #
loop $-1 $-1 $359 $353 #
vertex $-1 $363 $502 #
vertex $-1 $245 $503 #
straight-curve $-1 55.789056062501906 -6.6893923081320921 4.9750770565760476 0 1 0 I I #
coedge $-1 $370 $370 $-1 $504 reversed $248 $-1 #
edge $-1 $505 0 $505 6.2831853071796004 $249 $506 forward 7 unknown #
vertex $-1 $252 $507 #
ellipse-curve $-1 53.335636647197695 -16.76921341314771 8.3519192820047827 0.80901700255871778 0 0.5877852410284794 1.1755704820569588 0 -1.6180340051174356 1 I I #
coedge $-1 $374 $374 $-1 $508 reversed $255 $-1 #
edge $-1 $509 0 $509 6.2831853071796004 $256 $510 forward 7 unknown #
vertex $-1 $259 $511 #
ellipse-curve $-1 53.335636647197695 -9.9883558193806614 8.3519192820047827 0.80901700255871778 0 0.5877852410284794 1.1755704820569588 0 -1.6180340051174356 1 I I #
face $-1 $-1 $275 $39 $-1 $512 reversed single #
loop $-1 $-1 $394 $260 #
plane-surface $-1 0 36.454003159978512 0 0 -1 0 0 0 -1 forward_v I I I I #
coedge $-1 $513 $392 $395 $514 forward $261 $-1 #
coedge $-1 $398 $263 $264 $386 reversed $165 $-1 #
coedge $-1 $392 $513 $263 $384 reversed $261 $-1 #
edge $-1 $399 -11.7287615074335 $515 11.7287615074335 $383 $516 forward 7 unknown #
coedge $-1 $265 $264 $513 $517 forward $105 $-1 #
edge $-1 $390 -55.789056062501906 $515 55.789056062501906 $382 $518 forward 7 unknown #
coedge $-1 $395 $394 $265 $388 reversed $379 $-1 #
edge $-1 $519 -55.789056062501906 $389 55.789056062501906 $387 $520 forward 7 unknown #
vertex $-1 $267 $521 #
vertex $-1 $401 $522 #
straight-curve $-1 55.789056062501906 0 -11.7287615074335 0 -1 0 I I #
coedge $-1 $381 $383 $268 $393 reversed $261 $-1 #
edge $-1 $396 -36.454003159978512 $399 36.454003159978512 $392 $523 forward 7 unknown #
coedge $-1 $387 $269 $274 $402 forward $379 $-1 #
coedge $-1 $269 $387 $381 $514 reversed $379 $-1 #
vertex $-1 $270 $524 #
straight-curve $-1 0 36.454003159978512 11.7287615074335 -1 0 0 I I #
coedge $-1 $271 $382 $273 $401 reversed $165 $-1 #
vertex $-1 $393 $525 #
straight-curve $-1 0 -36.454003159978512 11.7287615074335 1 0 0 I I #
edge $-1 $276 -11.7287615074335 $390 11.7287615074335 $273 $526 forward 7 unknown #
edge $-1 $277 -11.7287615074335 $389 11.7287615074335 $274 $527 forward 7 unknown #
point $-1 55.789056062501906 -36.454003159978512 11.7287615074335 #
point $-1 55.789056062501906 36.454003159978512 11.7287615074335 #
face $-1 $-1 $294 $40 $-1 $528 reversed single #
loop $-1 $-1 $290 $279 #
plane-surface $-1 0 -36.454003159978512 0 0 1 0 0 0 1 forward_v I I I I #
coedge $-1 $529 $530 $287 $418 forward $280 $-1 #
coedge $-1 $419 $282 $284 $414 reversed $173 $-1 #
edge $-1 $416 0.20928626212257306 $295 6.4736697925523838 $293 $531 forward 7 unknown #
coedge $-1 $284 $283 $532 $533 reversed $109 $-1 #
coedge $-1 $423 $422 $283 $413 forward $406 $-1 #
edge $-1 $534 -55.789056062501906 $415 55.789056062501906 $412 $535 forward 7 unknown #
edge $-1 $536 -55.789056062501906 $416 55.789056062501906 $409 $537 forward 7 unknown #
vertex $-1 $413 $538 #
vertex $-1 $286 $539 #
straight-curve $-1 55.789056062501906 -14.435947075576063 3.5507642894600515 0 1 0 I I #
edge $-1 $424 -22.018056084402449 $420 -6.8538380667496774 $408 $540 forward 7 unknown #
coedge $-1 $288 $409 $529 $541 reversed $173 $-1 #
vertex $-1 $418 $542 #
straight-curve $-1 0 -21.289785142325741 9.8151478198898623 -1 0 0 I I #
coedge $-1 $412 $290 $530 $543 forward $406 $-1 #
coedge $-1 $290 $412 $292 $426 reversed $406 $-1 #
vertex $-1 $543 $544 #
straight-curve $-1 0 -36.454003159978512 9.8151478198898623 -1 0 0 I I #
edge $-1 $296 -9.8151478198898623 $415 -3.5507642894600515 $292 $545 forward 7 unknown #
point $-1 55.789056062501906 -21.289785142325741 9.8151478198898623 #
point $-1 55.789056062501906 -36.454003159978512 9.8151478198898623 #
plane-surface $-1 -55.789056062501906 0 0 1 0 0 0 0 -1 forward_v I I I I #
coedge $-1 $431 $301 $546 $547 reversed $181 $-1 #
coedge $-1 $301 $430 $434 $548 reversed $181 $-1 #
edge $-1 $549 -6.4560700123483095 $435 1.0692042983031357e-014 $301 $550 forward 7 unknown #
coedge $-1 $303 $302 $438 $551 reversed $113 $-1 #
coedge $-1 $309 $304 $431 $548 forward $310 $-1 #
vertex $-1 $548 $552 #
straight-curve $-1 -55.789056062501906 -7.6799876711101422 7.0070907526331521 0 -1 0 I I #
coedge $-1 $546 $306 $309 $442 forward $299 $-1 #
coedge $-1 $306 $546 $433 $551 forward $299 $-1 #
vertex $-1 $307 $553 #
straight-curve $-1 -68.696061153475739 -9.4301655421148247 11.728761507433497 -1 0 0 I I #
straight-curve $-1 -55.789056062501899 -9.4301655421148247 7.0070907526331609 0.68199835119979291 0 0.73135370988377701 I I #
edge $-1 $311 9.4301655421148247 $554 21.289785142325744 $309 $555 forward 7 unknown #
point $-1 -55.789056062501906 -9.4301655421148247 11.7287615074335 #
point $-1 -55.789056062501906 -9.4301655421148247 7.007090752633153 #
edge $-1 $556 1 $556 0 $314 $-1 forward 7 unknown #
vertex $-1 $315 $557 #
ellipse-curve $-1 -52.856187800792142 -18.917861222283559 8.6859277788335376 -0.73135370988377701 0 0.68199835119979291 0.34099917559989645 0 0.36567685494188851 1 I I #
point $-1 -53.246542335076029 -18.917861222283559 9.733602984975219 #
edge $-1 $558 1 $558 0 $318 $-1 forward 7 unknown #
vertex $-1 $319 $559 #
ellipse-curve $-1 -52.856187800792142 -15.359975342220281 8.6859277788335376 -0.73135370988377701 0 0.68199835119979291 0.34099917559989645 0 0.36567685494188851 1 I I #
point $-1 -53.246542335076029 -15.359975342220281 9.733602984975219 #
edge $-1 $560 1 $560 0 $322 $-1 forward 7 unknown #
vertex $-1 $323 $561 #
ellipse-curve $-1 -52.856187800792142 -11.802089462157006 8.6859277788335376 -0.73135370988377701 0 0.68199835119979291 0.34099917559989645 0 0.36567685494188851 1 I I #
point $-1 -53.246542335076029 -11.802089462157006 9.733602984975219 #
loop $-1 $-1 $334 $326 #
plane-surface $-1 0 36.454003159978512 0 0 -1 0 0 0 -1 forward_v I I I I #
coedge $-1 $562 $460 $333 $465 forward $327 $-1 #
coedge $-1 $459 $563 $330 $461 forward $327 $-1 #
edge $-1 $463 12.907005090973833 $470 17.310034194625814 $460 $564 forward 7 unknown #
coedge $-1 $337 $331 $563 $565 reversed $210 $-1 #
vertex $-1 $461 $566 #
straight-curve $-1 -55.789056062501906 24.594383559767593 41.551589625935691 0 0 1 I I #
edge $-1 $470 9.3322868798310665 $468 21.191906480041986 $459 $567 forward 7 unknown #
coedge $-1 $467 $334 $337 $472 reversed $457 $-1 #
coedge $-1 $334 $466 $562 $568 reversed $457 $-1 #
vertex $-1 $568 $569 #
straight-curve $-1 -44.562209795165494 36.454003159978512 19.046409694484886 -0.68199835119979291 0 -0.73135370988377701 I I #
vertex $-1 $465 $570 #
straight-curve $-1 -55.789056062501899 24.594383559767593 7.0070907526331609 -0.68199835119979291 0 -0.73135370988377701 I I #
edge $-1 $571 -11.7287615074335 $338 -7.007090752633153 $466 $572 forward 7 unknown #
point $-1 -55.789056062501906 36.454003159978512 7.007090752633153 #
point $-1 -55.789056062501906 24.594383559767593 7.007090752633153 #
edge $-1 $573 1 $573 0 $341 $-1 forward 7 unknown #
vertex $-1 $342 $574 #
ellipse-curve $-1 -52.856187800792142 26.966307479809785 8.6859277788335376 -0.73135370988377701 0 0.68199835119979291 0.34099917559989645 0 0.36567685494188851 1 I I #
point $-1 -53.246542335076029 26.966307479809785 9.733602984975219 #
edge $-1 $575 1 $575 0 $345 $-1 forward 7 unknown #
vertex $-1 $346 $576 #
ellipse-curve $-1 -52.856187800792142 30.524193359873053 8.6859277788335376 -0.73135370988377701 0 0.68199835119979291 0.34099917559989645 0 0.36567685494188851 1 I I #
point $-1 -53.246542335076029 30.524193359873053 9.733602984975219 #
edge $-1 $577 1 $577 0 $349 $-1 forward 7 unknown #
vertex $-1 $350 $578 #
ellipse-curve $-1 -52.856187800792142 34.082079239936334 8.6859277788335376 -0.73135370988377701 0 0.68199835119979291 0.34099917559989645 0 0.36567685494188851 1 I I #
point $-1 -53.246542335076029 34.082079239936334 9.733602984975219 #
plane-surface $-1 55.789056062501906 0 0 -1 0 0 0 0 1 forward_v I I I I #
coedge $-1 $579 $356 $361 $494 forward $239 $-1 #
coedge $-1 $356 $579 $491 $580 forward $239 $-1 #
edge $-1 $492 -15.552216884434436 $499 -10.645378053826029 $356 $581 forward 7 unknown #
coedge $-1 $365 $359 $489 $580 reversed $366 $-1 #
vertex $-1 $360 $582 #
straight-curve $-1 55.789056062501906 -5.4677840902026258 80.413817204002626 0 0 1 I I #
edge $-1 $499 -1.2216082179294663 $497 14.600392834193649 $488 $583 forward 7 unknown #
coedge $-1 $496 $362 $365 $501 reversed $354 $-1 #
coedge $-1 $362 $495 $579 $584 reversed $354 $-1 #
vertex $-1 $584 $585 #
straight-curve $-1 12.953677898786182 -21.289785142325741 63.932918843895386 0.5877852410284794 0 -0.80901700255871778 I I #
vertex $-1 $494 $586 #
straight-curve $-1 -9.7949114663961723 -5.4677840902026258 95.243666879107181 0.5877852410284794 0 -0.80901700255871778 I I #
edge $-1 $587 68.685055696569123 $367 75.438740147426572 $365 $588 forward 7 unknown #
point $-1 55.789056062501906 -21.289785142325741 4.9750770565760485 #
point $-1 55.789056062501913 -5.4677840902026258 4.9750770565760547 #
edge $-1 $589 1 $589 0 $370 $-1 forward 7 unknown #
vertex $-1 $371 $590 #
ellipse-curve $-1 51.045936070907821 -16.76921341314771 6.6883544856395627 0.80901700255871778 0 0.5877852410284794 1.1755704820569588 0 -1.6180340051174356 1 I I #
point $-1 54.511207129254657 -16.76921341314771 6.7338852768873458 #
edge $-1 $591 1 $591 0 $374 $-1 forward 7 unknown #
vertex $-1 $375 $592 #
ellipse-curve $-1 51.045936070907821 -9.9883558193806614 6.6883544856395627 0.80901700255871778 0 0.5877852410284794 1.1755704820569588 0 -1.6180340051174356 1 I I #
point $-1 54.511207129254657 -9.9883558193806614 6.7338852768873458 #
plane-surface $-1 55.789056062501906 0 0 -1 0 0 0 0 1 forward_v I I I I #
coedge $-1 $383 $381 $385 $517 reversed $261 $-1 #
edge $-1 $396 -11.7287615074335 $519 11.7287615074335 $395 $593 forward 7 unknown #
vertex $-1 $517 $594 #
straight-curve $-1 -55.789056062501906 -36.454003159978512 0 0 0 -1 I I #
edge $-1 $515 -36.454003159978512 $519 36.454003159978512 $513 $595 forward 7 unknown #
straight-curve $-1 0 -36.454003159978512 -11.7287615074335 -1 0 0 I I #
vertex $-1 $388 $596 #
straight-curve $-1 0 36.454003159978512 -11.7287615074335 1 0 0 I I #
point $-1 55.789056062501906 36.454003159978512 -11.7287615074335 #
point $-1 55.789056062501906 -36.454003159978512 -11.7287615074335 #
straight-curve $-1 -55.789056062501906 0 11.7287615074335 0 -1 0 I I #
point $-1 -55.789056062501906 36.454003159978512 11.7287615074335 #
point $-1 -55.789056062501906 -36.454003159978512 11.7287615074335 #
straight-curve $-1 55.789056062501906 -36.454003159978512 0 0 0 -1 I I #
straight-curve $-1 55.789056062501906 36.454003159978512 0 0 0 -1 I I #
plane-surface $-1 55.789056062501906 0 0 -1 0 0 0 0 1 forward_v I I I I #
coedge $-1 $532 $408 $419 $541 forward $280 $-1 #
coedge $-1 $408 $532 $422 $543 reversed $280 $-1 #
straight-curve $-1 55.789056062501906 -21.289785142325741 3.3414780273374785 0 0 1 I I #
coedge $-1 $530 $529 $411 $533 forward $280 $-1 #
edge $-1 $536 6.8538380667496774 $534 22.018056084402449 $532 $597 forward 7 unknown #
vertex $-1 $413 $598 #
straight-curve $-1 0 -36.454003159978512 3.5507642894600515 1 0 0 I I #
vertex $-1 $533 $599 #
straight-curve $-1 0 -21.289785142325741 3.5507642894600515 1 0 0 I I #
point $-1 55.789056062501906 -36.454003159978512 3.5507642894600515 #
point $-1 55.789056062501906 -21.289785142325741 3.5507642894600515 #
straight-curve $-1 -55.789056062501906 -14.435947075576063 9.8151478198898623 0 1 0 I I #
edge $-1 $420 -6.4736697925523838 $536 -0.20928626212257306 $529 $600 forward 7 unknown #
point $-1 -55.789056062501906 -21.289785142325741 9.8151478198898623 #
edge $-1 $424 -9.8151478198898623 $534 -3.5507642894600515 $530 $601 forward 7 unknown #
point $-1 -55.789056062501906 -36.454003159978512 9.8151478198898623 #
straight-curve $-1 55.789056062501906 -36.454003159978512 0 0 0 -1 I I #
coedge $-1 $438 $437 $430 $547 forward $299 $-1 #
edge $-1 $554 12.907005090973833 $549 17.310034194625814 $546 $602 forward 7 unknown #
edge $-1 $435 -34.544498873302537 $554 -29.822828118502191 $434 $603 forward 7 unknown #
vertex $-1 $551 $604 #
straight-curve $-1 -55.789056062501899 -21.289785142325744 7.0070907526331609 -0.68199835119979291 0 -0.73135370988377701 I I #
edge $-1 $549 -13.609797471215602 $439 -1.7501778710046825 $438 $605 forward 7 unknown #
point $-1 -55.789056062501906 -21.289785142325741 7.007090752633153 #
point $-1 -51.386026958849925 -9.4301655421148247 11.7287615074335 #
vertex $-1 $548 $606 #
straight-curve $-1 -55.789056062501906 0 11.7287615074335 0 -1 0 I I #
vertex $-1 $445 $607 #
point $-1 -52.515188625192252 -18.917861222283559 9.0516046337754261 #
vertex $-1 $449 $608 #
point $-1 -52.515188625192252 -15.359975342220281 9.0516046337754261 #
vertex $-1 $453 $609 #
point $-1 -52.515188625192252 -11.802089462157006 9.0516046337754261 #
coedge $-1 $563 $459 $467 $568 forward $327 $-1 #
coedge $-1 $460 $562 $462 $565 forward $327 $-1 #
straight-curve $-1 -68.696061153475739 24.594383559767593 11.728761507433497 1 0 0 I I #
edge $-1 $571 -36.454003159978512 $463 -24.594383559767593 $462 $610 forward 7 unknown #
point $-1 -55.789056062501906 24.594383559767593 11.7287615074335 #
straight-curve $-1 -51.386026958849925 15.262096679936526 11.728761507433498 0 1 0 I I #
edge $-1 $468 51.386026958849925 $571 55.789056062501906 $467 $611 forward 7 unknown #
point $-1 -51.386026958849925 36.454003159978512 11.7287615074335 #
point $-1 -51.386026958849925 24.594383559767593 11.7287615074335 #
vertex $-1 $568 $612 #
straight-curve $-1 -55.789056062501906 36.454003159978512 0 0 0 -1 I I #
vertex $-1 $475 $613 #
point $-1 -52.515188625192252 26.966307479809785 9.0516046337754261 #
vertex $-1 $479 $614 #
point $-1 -52.515188625192252 30.524193359873053 9.0516046337754261 #
vertex $-1 $483 $615 #
point $-1 -52.515188625192252 34.082079239936334 9.0516046337754261 #
coedge $-1 $489 $488 $496 $584 forward $239 $-1 #
edge $-1 $587 -21.289785142325741 $492 -5.4677840902026258 $491 $616 forward 7 unknown #
straight-curve $-1 40.23683917806747 -5.4677840902026258 11.728761507433504 -1 0 0 I I #
point $-1 55.789056062501906 -5.4677840902026258 11.7287615074335 #
straight-curve $-1 50.882217231893492 -6.6893923081320921 11.728761507433504 0 -1 0 I I #
edge $-1 $497 10.645378053826029 $587 15.552216884434436 $579 $617 forward 7 unknown #
point $-1 50.882217231893499 -21.289785142325741 11.728761507433504 #
point $-1 50.882217231893499 -5.4677840902026258 11.728761507433504 #
vertex $-1 $580 $618 #
straight-curve $-1 55.789056062501906 -21.289785142325741 80.413817204002626 0 0 -1 I I #
vertex $-1 $504 $619 #
point $-1 52.221506552964776 -16.76921341314771 5.0703204805221276 #
vertex $-1 $508 $620 #
point $-1 52.221506552964776 -9.9883558193806614 5.0703204805221276 #
straight-curve $-1 -55.789056062501906 36.454003159978512 0 0 0 -1 I I #
point $-1 -55.789056062501906 -36.454003159978512 -11.7287615074335 #
straight-curve $-1 -55.789056062501906 0 -11.7287615074335 0 1 0 I I #
point $-1 -55.789056062501906 36.454003159978512 -11.7287615074335 #
straight-curve $-1 -55.789056062501906 -14.435947075576063 3.5507642894600515 0 -1 0 I I #
point $-1 -55.789056062501906 -36.454003159978512 3.5507642894600515 #
point $-1 -55.789056062501906 -21.289785142325741 3.5507642894600515 #
straight-curve $-1 -55.789056062501906 -21.289785142325741 3.3414780273374785 0 0 -1 I I #
straight-curve $-1 -55.789056062501906 -36.454003159978512 0 0 0 -1 I I #
straight-curve $-1 -68.696061153475739 -21.289785142325744 11.728761507433497 1 0 0 I I #
straight-curve $-1 -55.789056062501906 -21.289785142325744 41.551589625935691 0 0 1 I I #
point $-1 -51.386026958849925 -21.289785142325744 11.7287615074335 #
straight-curve $-1 -51.386026958849925 -7.6799876711101422 11.728761507433498 0 1 0 I I #
point $-1 -55.789056062501906 -21.289785142325744 11.7287615074335 #
point $-1 -52.490510945850261 -18.917861222283559 8.3449286032336403 #
point $-1 -52.490510945850261 -15.359975342220281 8.3449286032336403 #
point $-1 -52.490510945850261 -11.802089462157006 8.3449286032336403 #
straight-curve $-1 -55.789056062501906 0 11.7287615074335 0 -1 0 I I #
straight-curve $-1 0 36.454003159978512 11.7287615074335 -1 0 0 I I #
point $-1 -55.789056062501906 36.454003159978512 11.7287615074335 #
point $-1 -52.490510945850261 26.966307479809785 8.3449286032336403 #
point $-1 -52.490510945850261 30.524193359873053 8.3449286032336403 #
point $-1 -52.490510945850261 34.082079239936334 8.3449286032336403 #
straight-curve $-1 55.789056062501906 0 11.7287615074335 0 1 0 I I #
straight-curve $-1 40.23683917806747 -21.289785142325741 11.728761507433504 1 0 0 I I #
point $-1 55.789056062501906 -21.289785142325741 11.7287615074335 #
point $-1 49.427902065790384 -16.76921341314771 5.5127840035826043 #
point $-1 49.427902065790384 -9.9883558193806614 5.5127840035826043 #
End-of-ACIS-data 