500 0 6 0           
7 Unknown 11 ACIS 5.0 NT 24 Thu Mar 25 16:52:19 1999 
-1 9.9999999999999995e-007 1e-010 
body $-1 $6 $-1 $7 #
body $-1 $8 $-1 $9 #
body $-1 $10 $-1 $11 #
body $-1 $12 $-1 $13 #
body $-1 $14 $-1 $15 #
body $-1 $16 $-1 $17 #
lump $-1 $-1 $18 $0 #
transform $-1 1 0 0 0 1 0 0 0 1 74.769127475814088 50.908358647752543 13.945848228216084 1 rotate no_reflect no_shear #
lump $-1 $-1 $19 $1 #
transform $-1 1 0 0 0 1 0 0 0 1 74.769127475814088 50.908358647752543 13.945848228216084 1 rotate no_reflect no_shear #
lump $-1 $-1 $20 $2 #
transform $-1 1 0 0 0 1 0 0 0 1 74.769127475814088 50.908358647752543 13.945848228216084 1 rotate no_reflect no_shear #
lump $-1 $-1 $21 $3 #
transform $-1 1 0 0 0 1 0 0 0 1 74.769127475814088 50.908358647752543 13.945848228216084 1 rotate no_reflect no_shear #
lump $-1 $-1 $22 $4 #
transform $-1 1 0 0 0 1 0 0 0 1 74.769127475814088 50.908358647752543 13.945848228216084 1 rotate no_reflect no_shear #
lump $-1 $-1 $23 $5 #
transform $-1 1 0 0 0 1 0 0 0 1 74.769127475814088 50.908358647752543 13.945848228216084 1 rotate no_reflect no_shear #
shell $-1 $-1 $-1 $24 $-1 $6 #
shell $-1 $-1 $-1 $25 $-1 $8 #
shell $-1 $-1 $-1 $26 $-1 $10 #
shell $-1 $-1 $-1 $27 $-1 $12 #
shell $-1 $-1 $-1 $28 $-1 $14 #
shell $-1 $-1 $-1 $29 $-1 $16 #
face $-1 $30 $31 $18 $-1 $32 forward single #
face $-1 $33 $34 $19 $-1 $35 reversed single #
face $-1 $36 $37 $20 $-1 $38 reversed single #
face $-1 $39 $40 $21 $-1 $41 reversed single #
face $-1 $42 $43 $22 $-1 $44 forward single #
face $-1 $45 $46 $23 $-1 $47 forward single #
face $-1 $48 $49 $18 $-1 $50 reversed single #
loop $-1 $-1 $51 $24 #
plane-surface $-1 0 0 13.945848228216084 0 0 1 1 0 0 forward_v I I I I #
face $-1 $52 $53 $19 $-1 $54 reversed single #
loop $-1 $-1 $55 $25 #
plane-surface $-1 -68.120919841875647 0 6.2644169713878899 0 0 1 1 0 0 forward_v I I I I #
face $-1 $56 $57 $20 $-1 $58 reversed single #
loop $-1 $-1 $59 $26 #
plane-surface $-1 68.120919841875633 0 6.2644169713878899 0 0 1 1 0 0 forward_v I I I I #
face $-1 $60 $61 $21 $-1 $62 reversed single #
loop $-1 $-1 $63 $27 #
plane-surface $-1 -44.390133471980675 75.304417193317221 186.76940017347286 1 0 0 0 -0.66913061440640931 -0.74314481823134659 forward_v I I I I #
face $-1 $64 $65 $22 $-1 $66 forward single #
loop $-1 $67 $68 $28 #
cone-surface $-1 -39.543799571960669 46.3718755778008 9.6585807653729461 0 -0.66913061440640931 -0.74314481823134659 2 0 0 1 I I 0 1 2 forward I I I I #
face $-1 $69 $70 $23 $-1 $71 forward single #
loop $-1 $72 $73 $29 #
cone-surface $-1 -32.27429872193067 46.3718755778008 9.6585807653729461 0 -0.66913061440640931 -0.74314481823134659 2 0 0 1 I I 0 1 2 forward I I I I #
face $-1 $74 $75 $18 $-1 $76 reversed single #
loop $-1 $-1 $77 $30 #
plane-surface $-1 0 0 -13.945848228216084 0 0 1 1 0 0 forward_v I I I I #
coedge $-1 $78 $79 $80 $81 forward $31 $-1 #
face $-1 $82 $83 $19 $-1 $84 reversed single #
loop $-1 $-1 $85 $33 #
plane-surface $-1 -61.472712207937207 0 10.105132599801989 -1 0 0 0 0 1 forward_v I I I I #
coedge $-1 $86 $87 $88 $89 forward $34 $-1 #
face $-1 $90 $91 $20 $-1 $92 forward single #
loop $-1 $-1 $93 $36 #
plane-surface $-1 61.472712207937192 0 10.105132599801989 1 0 0 0 0 -1 forward_v I I I I #
coedge $-1 $94 $95 $96 $97 reversed $37 $-1 #
face $-1 $98 $99 $21 $-1 $100 reversed single #
loop $-1 $-1 $101 $39 #
plane-surface $-1 -35.909049146945677 -24.756207219728026 75.640820878812377 0 0.66913061440640931 0.74314481823134659 1 0 0 forward_v I I I I #
coedge $-1 $102 $103 $104 $105 reversed $40 $-1 #
face $-1 $-1 $106 $22 $-1 $107 forward single #
loop $-1 $108 $109 $42 #
cone-surface $-1 -39.543799571960669 44.738941209369322 7.8450234593928005 0 -0.66913061440640931 -0.74314481823134659 1 0 0 1 I I -0.70710678118654746 0.70710678118654746 1 forward I I I I #
loop $-1 $-1 $110 $28 #
coedge $-1 $68 $68 $111 $112 reversed $43 $-1 #
face $-1 $-1 $113 $23 $-1 $114 forward single #
loop $-1 $115 $116 $45 #
cone-surface $-1 -32.27429872193067 44.738941209369322 7.8450234593928005 0 -0.66913061440640931 -0.74314481823134659 1 0 0 1 I I -0.70710678118654746 0.70710678118654746 1 forward I I I I #
loop $-1 $-1 $117 $29 #
coedge $-1 $73 $73 $118 $119 reversed $46 $-1 #
face $-1 $120 $121 $18 $-1 $122 reversed single #
loop $-1 $-1 $123 $48 #
plane-surface $-1 0 -50.908358647752543 0 0 1 0 0 0 1 forward_v I I I I #
coedge $-1 $124 $125 $126 $127 forward $49 $-1 #
coedge $-1 $128 $51 $129 $130 forward $31 $-1 #
coedge $-1 $51 $128 $131 $132 forward $31 $-1 #
coedge $-1 $133 $134 $51 $81 reversed $135 $-1 #
edge $-1 $136 -50.908358647752543 $137 50.908358647752543 $80 $138 forward 7 unknown #
face $-1 $139 $140 $19 $-1 $141 reversed single #
loop $-1 $-1 $142 $52 #
plane-surface $-1 0 50.908358647752543 0 0 -1 0 0 0 -1 forward_v I I I I #
coedge $-1 $88 $143 $144 $145 reversed $53 $-1 #
coedge $-1 $146 $55 $147 $148 reversed $34 $-1 #
coedge $-1 $55 $146 $149 $150 reversed $34 $-1 #
coedge $-1 $151 $85 $55 $89 reversed $53 $-1 #
edge $-1 $152 -50.908358647752543 $153 50.908358647752543 $88 $154 forward 7 unknown #
face $-1 $155 $156 $20 $-1 $157 reversed single #
loop $-1 $-1 $158 $56 #
plane-surface $-1 0 0 13.945848228216084 0 0 1 1 0 0 forward_v I I I I #
coedge $-1 $159 $160 $161 $162 reversed $57 $-1 #
coedge $-1 $163 $59 $164 $165 reversed $37 $-1 #
coedge $-1 $59 $163 $166 $167 reversed $37 $-1 #
coedge $-1 $168 $169 $59 $97 forward $170 $-1 #
edge $-1 $171 -50.908358647752543 $172 50.908358647752543 $96 $173 forward 7 unknown #
face $-1 $174 $175 $21 $-1 $176 reversed single #
loop $-1 $-1 $177 $60 #
plane-surface $-1 -27.427964821910681 75.304417193317221 186.76940017347286 -1 0 0 0 0.66913061440640931 0.74314481823134659 forward_v I I I I #
coedge $-1 $178 $179 $180 $181 reversed $61 $-1 #
coedge $-1 $103 $63 $182 $183 reversed $40 $-1 #
coedge $-1 $63 $102 $178 $184 reversed $40 $-1 #
coedge $-1 $180 $185 $63 $105 forward $186 $-1 #
edge $-1 $187 -13.256150051093933 $188 -6.1107914192405133 $104 $189 forward 7 unknown #
loop $-1 $-1 $111 $64 #
plane-surface $-1 -35.909049146945677 -24.756207219728026 75.640820878812377 0 0.66913061440640931 0.74314481823134659 1 0 0 forward_v I I I I #
loop $-1 $-1 $190 $42 #
coedge $-1 $109 $109 $110 $191 reversed $65 $-1 #
coedge $-1 $110 $110 $109 $191 forward $67 $-1 #
coedge $-1 $111 $111 $68 $112 forward $106 $-1 #
edge $-1 $192 7.2044900009545679e-016 $192 6.2831853071796013 $111 $193 forward 7 unknown #
loop $-1 $-1 $118 $69 #
plane-surface $-1 -35.909049146945677 -24.756207219728026 75.640820878812377 0 0.66913061440640931 0.74314481823134659 1 0 0 forward_v I I I I #
loop $-1 $-1 $194 $45 #
coedge $-1 $116 $116 $117 $195 reversed $70 $-1 #
coedge $-1 $117 $117 $116 $195 forward $72 $-1 #
coedge $-1 $118 $118 $73 $119 forward $113 $-1 #
edge $-1 $196 7.2044900009545679e-016 $196 6.2831853071796013 $118 $197 forward 7 unknown #
face $-1 $198 $199 $18 $-1 $200 reversed single #
loop $-1 $-1 $201 $74 #
plane-surface $-1 -74.769127475814088 0 0 1 0 0 0 0 -1 forward_v I I I I #
coedge $-1 $202 $131 $203 $204 forward $75 $-1 #
coedge $-1 $205 $77 $202 $206 forward $49 $-1 #
coedge $-1 $77 $205 $207 $208 forward $49 $-1 #
coedge $-1 $134 $133 $77 $127 reversed $135 $-1 #
edge $-1 $209 -50.908358647752543 $210 50.908358647752543 $126 $211 forward 7 unknown #
coedge $-1 $79 $78 $212 $213 forward $31 $-1 #
coedge $-1 $214 $215 $78 $130 reversed $199 $-1 #
edge $-1 $137 -74.769127475814088 $216 74.769127475814088 $129 $217 forward 7 unknown #
coedge $-1 $123 $218 $79 $132 reversed $75 $-1 #
edge $-1 $219 -74.769127475814088 $136 74.769127475814088 $131 $220 forward 7 unknown #
coedge $-1 $126 $80 $218 $221 forward $135 $-1 #
coedge $-1 $80 $126 $214 $222 reversed $135 $-1 #
loop $-1 $-1 $133 $198 #
vertex $-1 $81 $223 #
vertex $-1 $81 $224 #
straight-curve $-1 74.769127475814088 0 13.945848228216084 0 1 0 I I #
face $-1 $225 $226 $19 $-1 $227 forward single #
loop $-1 $-1 $228 $82 #
plane-surface $-1 -74.769127475814088 0 0 1 0 0 0 0 -1 forward_v I I I I #
coedge $-1 $149 $229 $151 $230 forward $83 $-1 #
coedge $-1 $85 $151 $231 $232 reversed $53 $-1 #
coedge $-1 $233 $147 $85 $145 forward $234 $-1 #
edge $-1 $153 1.2118506714868955 $235 8.8932819283150941 $144 $236 forward 7 unknown #
coedge $-1 $87 $86 $228 $237 reversed $34 $-1 #
coedge $-1 $144 $238 $86 $148 forward $234 $-1 #
edge $-1 $239 -40.708667554876264 $153 -27.412252286999383 $147 $240 forward 7 unknown #
coedge $-1 $241 $142 $87 $150 forward $83 $-1 #
edge $-1 $152 27.412252286999383 $242 40.708667554876264 $149 $243 forward 7 unknown #
coedge $-1 $143 $88 $142 $230 reversed $53 $-1 #
vertex $-1 $150 $244 #
vertex $-1 $148 $245 #
straight-curve $-1 -61.472712207937207 0 6.2644169713878899 0 -1 0 I I #
face $-1 $246 $247 $20 $-1 $248 reversed single #
loop $-1 $-1 $249 $90 #
plane-surface $-1 0 -50.908358647752543 0 0 1 0 0 0 1 forward_v I I I I #
coedge $-1 $250 $251 $160 $252 forward $91 $-1 #
coedge $-1 $253 $93 $163 $254 reversed $57 $-1 #
coedge $-1 $93 $253 $158 $252 reversed $57 $-1 #
coedge $-1 $255 $166 $93 $162 forward $247 $-1 #
edge $-1 $256 1.2118506714868955 $257 8.8932819283150941 $161 $258 forward 7 unknown #
coedge $-1 $95 $94 $159 $254 forward $37 $-1 #
coedge $-1 $259 $249 $94 $165 forward $156 $-1 #
edge $-1 $260 27.412252286999376 $171 40.708667554876257 $164 $261 forward 7 unknown #
coedge $-1 $161 $262 $95 $167 forward $247 $-1 #
edge $-1 $172 -40.708667554876257 $256 -27.412252286999376 $166 $263 forward 7 unknown #
coedge $-1 $264 $96 $262 $265 reversed $170 $-1 #
coedge $-1 $96 $264 $259 $266 forward $170 $-1 #
loop $-1 $-1 $96 $246 #
vertex $-1 $165 $267 #
vertex $-1 $97 $268 #
straight-curve $-1 74.769127475814088 0 6.2644169713878899 0 1 0 I I #
face $-1 $-1 $186 $21 $-1 $269 forward single #
loop $-1 $-1 $270 $98 #
plane-surface $-1 0 50.908358647752543 0 0 -1 0 0 0 -1 forward_v I I I I #
coedge $-1 $271 $272 $273 $274 reversed $99 $-1 #
coedge $-1 $275 $101 $103 $184 forward $61 $-1 #
coedge $-1 $101 $275 $271 $276 forward $61 $-1 #
coedge $-1 $273 $104 $101 $181 forward $186 $-1 #
edge $-1 $188 -26.435608898507837 $277 -9.4734402484378428 $180 $278 forward 7 unknown #
coedge $-1 $279 $280 $102 $183 forward $175 $-1 #
edge $-1 $281 -85.872561808709094 $187 -79.438851858520351 $182 $282 forward 7 unknown #
edge $-1 $188 92.20168876195622 $281 101.81671729550516 $103 $283 forward 7 unknown #
coedge $-1 $104 $273 $279 $284 forward $186 $-1 #
loop $-1 $-1 $273 $174 #
vertex $-1 $183 $285 #
vertex $-1 $105 $286 #
straight-curve $-1 -44.390133471980675 37.65220859665861 13.945848228216079 0 -1 0 I I #
coedge $-1 $190 $190 $-1 $287 reversed $108 $-1 #
edge $-1 $288 0 $288 6.2831853071796004 $109 $289 forward 7 unknown #
vertex $-1 $112 $290 #
ellipse-curve $-1 -39.543799571960669 47.33567933182583 10.728993253121708 0 0.66913061440640931 0.74314481823134659 2 0 0 1 I I #
coedge $-1 $194 $194 $-1 $291 reversed $115 $-1 #
edge $-1 $292 0 $292 6.2831853071796004 $116 $293 forward 7 unknown #
vertex $-1 $119 $294 #
ellipse-curve $-1 -32.27429872193067 47.33567933182583 10.728993253121708 0 0.66913061440640931 0.74314481823134659 2 0 0 1 I I #
face $-1 $-1 $135 $18 $-1 $295 reversed single #
loop $-1 $-1 $214 $120 #
plane-surface $-1 0 50.908358647752543 0 0 -1 0 0 0 -1 forward_v I I I I #
coedge $-1 $296 $212 $215 $297 forward $121 $-1 #
coedge $-1 $218 $123 $124 $206 reversed $75 $-1 #
coedge $-1 $212 $296 $123 $204 reversed $121 $-1 #
edge $-1 $219 -13.945848228216084 $298 13.945848228216084 $203 $299 forward 7 unknown #
coedge $-1 $125 $124 $296 $300 forward $49 $-1 #
edge $-1 $210 -74.769127475814088 $298 74.769127475814088 $202 $301 forward 7 unknown #
coedge $-1 $215 $214 $125 $208 reversed $199 $-1 #
edge $-1 $302 -74.769127475814088 $209 74.769127475814088 $207 $303 forward 7 unknown #
vertex $-1 $127 $304 #
vertex $-1 $221 $305 #
straight-curve $-1 74.769127475814088 0 -13.945848228216084 0 -1 0 I I #
coedge $-1 $201 $203 $128 $213 reversed $121 $-1 #
edge $-1 $216 -50.908358647752543 $219 50.908358647752543 $212 $306 forward 7 unknown #
coedge $-1 $207 $129 $134 $222 forward $199 $-1 #
coedge $-1 $129 $207 $201 $297 reversed $199 $-1 #
vertex $-1 $130 $307 #
straight-curve $-1 0 50.908358647752543 13.945848228216084 -1 0 0 I I #
coedge $-1 $131 $202 $133 $221 reversed $75 $-1 #
vertex $-1 $213 $308 #
straight-curve $-1 0 -50.908358647752543 13.945848228216084 1 0 0 I I #
edge $-1 $136 -13.945848228216084 $210 13.945848228216084 $133 $309 forward 7 unknown #
edge $-1 $137 -13.945848228216084 $209 13.945848228216084 $134 $310 forward 7 unknown #
point $-1 74.769127475814088 -50.908358647752543 13.945848228216084 #
point $-1 74.769127475814088 50.908358647752543 13.945848228216084 #
face $-1 $-1 $234 $19 $-1 $311 reversed single #
loop $-1 $-1 $231 $139 #
plane-surface $-1 0 0 13.945848228216084 0 0 1 1 0 0 forward_v I I I I #
coedge $-1 $312 $313 $146 $237 forward $140 $-1 #
coedge $-1 $142 $241 $314 $315 reversed $83 $-1 #
edge $-1 $316 -8.8932819283150941 $152 -1.2118506714868955 $142 $317 forward 7 unknown #
coedge $-1 $314 $318 $143 $232 forward $226 $-1 #
edge $-1 $235 -50.908358647752543 $316 50.908358647752543 $231 $319 forward 7 unknown #
coedge $-1 $238 $144 $318 $320 reversed $234 $-1 #
loop $-1 $-1 $144 $225 #
vertex $-1 $145 $321 #
straight-curve $-1 -61.472712207937207 -50.908358647752543 5.0525662999009944 0 0 1 I I #
edge $-1 $242 -50.908358647752543 $239 50.908358647752543 $228 $322 forward 7 unknown #
coedge $-1 $147 $233 $312 $323 forward $234 $-1 #
vertex $-1 $237 $324 #
straight-curve $-1 -34.060459920937824 -50.908358647752543 6.2644169713878899 1 0 0 I I #
coedge $-1 $229 $149 $313 $325 reversed $83 $-1 #
vertex $-1 $237 $326 #
straight-curve $-1 -34.060459920937824 50.908358647752543 6.2644169713878899 -1 0 0 I I #
point $-1 -61.472712207937207 50.908358647752543 6.2644169713878899 #
point $-1 -61.472712207937207 -50.908358647752543 6.2644169713878899 #
face $-1 $-1 $170 $20 $-1 $327 reversed single #
loop $-1 $-1 $161 $155 #
plane-surface $-1 0 50.908358647752543 0 0 -1 0 0 0 -1 forward_v I I I I #
coedge $-1 $164 $328 $253 $329 forward $156 $-1 #
coedge $-1 $330 $158 $328 $331 forward $91 $-1 #
coedge $-1 $158 $330 $255 $332 forward $91 $-1 #
edge $-1 $257 -50.908358647752543 $333 50.908358647752543 $158 $334 forward 7 unknown #
coedge $-1 $160 $159 $249 $329 reversed $57 $-1 #
edge $-1 $260 -50.908358647752543 $256 50.908358647752543 $159 $335 forward 7 unknown #
coedge $-1 $262 $161 $251 $332 reversed $247 $-1 #
vertex $-1 $167 $336 #
vertex $-1 $162 $337 #
straight-curve $-1 61.472712207937192 50.908358647752543 5.0525662999009944 0 0 1 I I #
coedge $-1 $328 $164 $169 $266 reversed $156 $-1 #
vertex $-1 $165 $338 #
straight-curve $-1 34.060459920937816 -50.908358647752543 6.2644169713878899 1 0 0 I I #
coedge $-1 $166 $255 $168 $265 forward $247 $-1 #
straight-curve $-1 34.060459920937816 50.908358647752543 6.2644169713878899 -1 0 0 I I #
coedge $-1 $169 $168 $330 $339 reversed $170 $-1 #
edge $-1 $340 -13.945848228216084 $172 -6.2644169713878899 $168 $341 forward 7 unknown #
edge $-1 $342 -13.945848228216084 $171 -6.2644169713878899 $169 $343 forward 7 unknown #
point $-1 74.769127475814074 -50.908358647752543 6.2644169713878899 #
point $-1 74.769127475814074 50.908358647752543 6.2644169713878899 #
plane-surface $-1 0 0 13.945848228216084 0 0 1 1 0 0 forward_v I I I I #
coedge $-1 $280 $279 $272 $344 forward $175 $-1 #
coedge $-1 $272 $177 $179 $276 reversed $99 $-1 #
coedge $-1 $177 $271 $270 $344 reversed $99 $-1 #
coedge $-1 $185 $180 $177 $274 forward $186 $-1 #
edge $-1 $277 6.1107914192405133 $345 13.256150051093933 $273 $346 forward 7 unknown #
coedge $-1 $179 $178 $280 $347 reversed $61 $-1 #
edge $-1 $348 -101.81671729550516 $277 -92.20168876195622 $271 $349 forward 7 unknown #
vertex $-1 $181 $350 #
straight-curve $-1 -17.954524573472838 43.763000015899131 13.945848228216079 1 0 0 I I #
coedge $-1 $270 $182 $185 $284 reversed $175 $-1 #
coedge $-1 $182 $270 $275 $347 forward $175 $-1 #
vertex $-1 $183 $351 #
straight-curve $-1 -44.390133471980675 50.908358647752543 93.38470008673643 0 0 1 I I #
straight-curve $-1 -44.390133471980675 -24.756207219728026 75.640820878812377 0 0.74314481823134659 -0.66913061440640931 I I #
edge $-1 $345 27.427964821910681 $187 44.390133471980675 $279 $352 forward 7 unknown #
point $-1 -44.390133471980675 50.908358647752543 13.945848228216084 #
point $-1 -44.390133471980675 43.763000015899124 13.945848228216086 #
edge $-1 $353 1 $353 0 $190 $-1 forward 7 unknown #
vertex $-1 $191 $354 #
ellipse-curve $-1 -39.543799571960669 45.408071823775728 8.5881682776241473 0 0.66913061440640931 0.74314481823134659 2 0 0 1 I I #
point $-1 -37.543799571960669 47.335679331825865 10.728993253121745 #
edge $-1 $355 1 $355 0 $194 $-1 forward 7 unknown #
vertex $-1 $195 $356 #
ellipse-curve $-1 -32.27429872193067 45.408071823775728 8.5881682776241473 0 0.66913061440640931 0.74314481823134659 2 0 0 1 I I #
point $-1 -30.27429872193067 47.335679331825865 10.728993253121745 #
plane-surface $-1 74.769127475814088 0 0 -1 0 0 0 0 1 forward_v I I I I #
coedge $-1 $203 $201 $205 $300 reversed $121 $-1 #
edge $-1 $216 -13.945848228216084 $302 13.945848228216084 $215 $357 forward 7 unknown #
vertex $-1 $300 $358 #
straight-curve $-1 -74.769127475814088 -50.908358647752543 0 0 0 -1 I I #
edge $-1 $298 -50.908358647752543 $302 50.908358647752543 $296 $359 forward 7 unknown #
straight-curve $-1 0 -50.908358647752543 -13.945848228216084 -1 0 0 I I #
vertex $-1 $208 $360 #
straight-curve $-1 0 50.908358647752543 -13.945848228216084 1 0 0 I I #
point $-1 74.769127475814088 50.908358647752543 -13.945848228216084 #
point $-1 74.769127475814088 -50.908358647752543 -13.945848228216084 #
straight-curve $-1 -74.769127475814088 0 13.945848228216084 0 -1 0 I I #
point $-1 -74.769127475814088 50.908358647752543 13.945848228216084 #
point $-1 -74.769127475814088 -50.908358647752543 13.945848228216084 #
straight-curve $-1 74.769127475814088 -50.908358647752543 0 0 0 -1 I I #
straight-curve $-1 74.769127475814088 50.908358647752543 0 0 0 -1 I I #
plane-surface $-1 0 -50.908358647752543 0 0 1 0 0 0 1 forward_v I I I I #
coedge $-1 $361 $228 $238 $323 reversed $140 $-1 #
coedge $-1 $228 $361 $241 $325 forward $140 $-1 #
coedge $-1 $362 $231 $229 $315 forward $226 $-1 #
edge $-1 $316 61.472712207937207 $363 74.769127475814088 $229 $364 forward 7 unknown #
vertex $-1 $315 $365 #
straight-curve $-1 -61.472712207937207 50.908358647752543 5.0525662999009944 0 0 -1 I I #
coedge $-1 $231 $362 $233 $320 forward $226 $-1 #
straight-curve $-1 -61.472712207937207 0 13.945848228216084 0 1 0 I I #
edge $-1 $366 -74.769127475814088 $235 -61.472712207937207 $233 $367 forward 7 unknown #
point $-1 -61.472712207937207 -50.908358647752543 13.945848228216088 #
straight-curve $-1 -74.769127475814088 0 6.2644169713878899 0 -1 0 I I #
edge $-1 $366 -13.945848228216084 $239 -6.2644169713878899 $312 $368 forward 7 unknown #
point $-1 -74.769127475814088 -50.908358647752543 6.2644169713878899 #
edge $-1 $363 -13.945848228216084 $242 -6.2644169713878899 $241 $369 forward 7 unknown #
point $-1 -74.769127475814088 50.908358647752543 6.2644169713878899 #
plane-surface $-1 74.769127475814088 0 0 -1 0 0 0 0 1 forward_v I I I I #
coedge $-1 $249 $259 $250 $331 reversed $156 $-1 #
edge $-1 $333 -8.8932819283150941 $260 -1.2118506714868955 $249 $370 forward 7 unknown #
coedge $-1 $251 $250 $264 $339 forward $91 $-1 #
edge $-1 $333 61.472712207937192 $342 74.769127475814088 $328 $371 forward 7 unknown #
edge $-1 $340 -74.769127475814088 $257 -61.472712207937192 $255 $372 forward 7 unknown #
vertex $-1 $331 $373 #
straight-curve $-1 61.472712207937192 0 13.945848228216084 0 -1 0 I I #
straight-curve $-1 61.472712207937192 0 6.2644169713878899 0 1 0 I I #
point $-1 61.472712207937192 50.908358647752543 6.2644169713878899 #
point $-1 61.472712207937192 50.908358647752543 13.945848228216088 #
point $-1 61.472712207937192 -50.908358647752543 6.2644169713878899 #
edge $-1 $342 -50.908358647752543 $340 50.908358647752543 $264 $374 forward 7 unknown #
vertex $-1 $339 $375 #
straight-curve $-1 74.769127475814088 50.908358647752543 0 0 0 -1 I I #
vertex $-1 $339 $376 #
straight-curve $-1 74.769127475814088 -50.908358647752543 0 0 0 -1 I I #
edge $-1 $345 79.438851858520351 $348 85.872561808709094 $270 $377 forward 7 unknown #
vertex $-1 $284 $378 #
straight-curve $-1 -27.427964821910681 37.65220859665861 13.945848228216079 0 1 0 I I #
edge $-1 $348 9.4734402484378428 $281 26.435608898507837 $280 $379 forward 7 unknown #
vertex $-1 $347 $380 #
straight-curve $-1 -27.427964821910681 -24.756207219728026 75.640820878812377 0 -0.74314481823134659 0.66913061440640931 I I #
point $-1 -27.427964821910681 43.763000015899124 13.945848228216086 #
point $-1 -44.390133471980675 50.90835864775255 7.5121382780273365 #
straight-curve $-1 0 50.908358647752543 13.945848228216084 -1 0 0 I I #
vertex $-1 $287 $381 #
point $-1 -37.543799571960669 45.408071823775728 8.5881682776241473 #
vertex $-1 $291 $382 #
point $-1 -30.27429872193067 45.408071823775728 8.5881682776241473 #
straight-curve $-1 -74.769127475814088 50.908358647752543 0 0 0 -1 I I #
point $-1 -74.769127475814088 -50.908358647752543 -13.945848228216084 #
straight-curve $-1 -74.769127475814088 0 -13.945848228216084 0 1 0 I I #
point $-1 -74.769127475814088 50.908358647752543 -13.945848228216084 #
coedge $-1 $313 $312 $362 $383 reversed $140 $-1 #
coedge $-1 $318 $314 $361 $383 forward $226 $-1 #
vertex $-1 $315 $384 #
straight-curve $-1 0 50.908358647752543 13.945848228216084 -1 0 0 I I #
point $-1 -61.472712207937207 50.908358647752543 13.945848228216088 #
vertex $-1 $383 $385 #
straight-curve $-1 0 -50.908358647752543 13.945848228216084 1 0 0 I I #
straight-curve $-1 -74.769127475814088 -50.908358647752543 0 0 0 -1 I I #
straight-curve $-1 -74.769127475814088 50.908358647752543 0 0 0 -1 I I #
straight-curve $-1 61.472712207937192 -50.908358647752543 5.0525662999009944 0 0 -1 I I #
straight-curve $-1 0 -50.908358647752543 13.945848228216084 1 0 0 I I #
straight-curve $-1 0 50.908358647752543 13.945848228216084 -1 0 0 I I #
point $-1 61.472712207937192 -50.908358647752543 13.945848228216088 #
straight-curve $-1 74.769127475814088 0 13.945848228216084 0 1 0 I I #
point $-1 74.769127475814088 50.908358647752543 13.945848228216084 #
point $-1 74.769127475814088 -50.908358647752543 13.945848228216084 #
straight-curve $-1 -27.427964821910681 50.908358647752543 93.38470008673643 0 0 -1 I I #
point $-1 -27.427964821910681 50.908358647752543 13.945848228216084 #
straight-curve $-1 -17.954524573472838 50.908358647752543 7.5121382780273436 -1 0 0 I I #
point $-1 -27.427964821910681 50.90835864775255 7.5121382780273365 #
point $-1 -39.543799571960669 44.069810594962917 7.1018786411614538 #
point $-1 -32.27429872193067 44.069810594962917 7.1018786411614538 #
edge $-1 $363 -50.908358647752543 $366 50.908358647752543 $361 $386 forward 7 unknown #
point $-1 -74.769127475814088 50.908358647752543 13.945848228216084 #
point $-1 -74.769127475814088 -50.908358647752543 13.945848228216084 #
straight-curve $-1 -74.769127475814088 0 13.945848228216084 0 -1 0 I I #
End-of-ACIS-data 