500 0 8 0           
7 Unknown 11 ACIS 5.0 NT 24 Thu Mar 25 20:04:22 1999 
-1 9.9999999999999995e-007 1e-010 
body $-1 $8 $-1 $9 #
body $-1 $10 $-1 $11 #
body $-1 $12 $-1 $13 #
body $-1 $14 $-1 $15 #
body $-1 $16 $-1 $17 #
body $-1 $18 $-1 $19 #
body $-1 $20 $-1 $21 #
body $-1 $22 $-1 $23 #
lump $-1 $-1 $24 $0 #
transform $-1 1 0 0 0 1 0 0 0 1 51.322367015594956 28.089390715789566 12.82440519755278 1 rotate no_reflect no_shear #
lump $-1 $-1 $25 $1 #
transform $-1 1 0 0 0 1 0 0 0 1 51.322367015594956 28.089390715789566 12.82440519755278 1 rotate no_reflect no_shear #
lump $-1 $-1 $26 $2 #
transform $-1 1 0 0 0 1 0 0 0 1 51.322367015594956 28.089390715789566 12.82440519755278 1 rotate no_reflect no_shear #
lump $-1 $-1 $27 $3 #
transform $-1 1 0 0 0 1 0 0 0 1 51.322367015594956 28.089390715789566 12.82440519755278 1 rotate no_reflect no_shear #
lump $-1 $-1 $28 $4 #
transform $-1 1 0 0 0 1 0 0 0 1 51.322367015594956 28.089390715789566 12.82440519755278 1 rotate no_reflect no_shear #
lump $-1 $-1 $29 $5 #
transform $-1 1 0 0 0 1 0 0 0 1 51.322367015594956 28.089390715789566 12.82440519755278 1 rotate no_reflect no_shear #
lump $-1 $-1 $30 $6 #
transform $-1 1 0 0 0 1 0 0 0 1 51.322367015594956 28.089390715789566 12.82440519755278 1 rotate no_reflect no_shear #
lump $-1 $-1 $31 $7 #
transform $-1 1 0 0 0 1 0 0 0 1 51.322367015594956 28.089390715789566 12.82440519755278 1 rotate no_reflect no_shear #
shell $-1 $-1 $-1 $32 $-1 $8 #
shell $-1 $-1 $-1 $33 $-1 $10 #
shell $-1 $-1 $-1 $34 $-1 $12 #
shell $-1 $-1 $-1 $35 $-1 $14 #
shell $-1 $-1 $-1 $36 $-1 $16 #
shell $-1 $-1 $-1 $37 $-1 $18 #
shell $-1 $-1 $-1 $38 $-1 $20 #
shell $-1 $-1 $-1 $39 $-1 $22 #
face $-1 $40 $41 $24 $-1 $42 forward single #
face $-1 $43 $44 $25 $-1 $45 forward single #
face $-1 $46 $47 $26 $-1 $48 reversed single #
face $-1 $49 $50 $27 $-1 $51 forward single #
face $-1 $52 $53 $28 $-1 $54 forward single #
face $-1 $55 $56 $29 $-1 $57 reversed single #
face $-1 $58 $59 $30 $-1 $60 forward single #
face $-1 $61 $62 $31 $-1 $63 forward single #
face $-1 $64 $65 $24 $-1 $66 reversed single #
loop $-1 $-1 $67 $32 #
plane-surface $-1 0 0 12.82440519755278 0 0 1 1 0 0 forward_v I I I I #
face $-1 $68 $69 $25 $-1 $70 reversed single #
loop $-1 $-1 $71 $33 #
plane-surface $-1 0 -28.089390715789566 0 0 1 0 0 0 1 forward_v I I I I #
face $-1 $72 $73 $26 $-1 $74 reversed single #
loop $-1 $-1 $75 $34 #
plane-surface $-1 -11.387027815792628 74.387434916116007 109.74436976083419 1 0 0 0 -0.78801076186113728 -0.61566146476048833 forward_v I I I I #
face $-1 $76 $77 $27 $-1 $78 forward single #
loop $-1 $79 $80 $35 #
cone-surface $-1 -8.1335912969947373 22.603144412519818 6.4841608767737187 0 -0.78801076186113728 -0.61566146476048833 1 0 0 1 I I 0 1 1 forward I I I I #
face $-1 $81 $82 $28 $-1 $83 forward single #
loop $-1 $84 $85 $36 #
cone-surface $-1 -3.2534365187978977 22.603144412519818 6.4841608767737187 0 -0.78801076186113728 -0.61566146476048833 1 0 0 1 I I 0 1 1 forward I I I I #
face $-1 $86 $87 $29 $-1 $88 reversed single #
loop $-1 $-1 $89 $37 #
plane-surface $-1 -5.6935139078963175 -6.4977201488357537 46.549962457241065 0 0.78801076186113728 0.61566146476048833 1 0 0 forward_v I I I I #
face $-1 $90 $91 $30 $-1 $92 forward single #
loop $-1 $93 $94 $38 #
cone-surface $-1 3.2534365187978977 22.603144412519818 6.4841608767737187 0 -0.78801076186113728 -0.61566146476048833 1 0 0 1 I I 0 1 1 forward I I I I #
face $-1 $95 $96 $31 $-1 $97 forward single #
loop $-1 $98 $99 $39 #
cone-surface $-1 8.1335912969947373 22.603144412519818 6.4841608767737187 0 -0.78801076186113728 -0.61566146476048833 1 0 0 1 I I 0 1 1 forward I I I I #
face $-1 $100 $101 $24 $-1 $102 reversed single #
loop $-1 $-1 $103 $40 #
plane-surface $-1 0 0 -12.82440519755278 0 0 1 1 0 0 forward_v I I I I #
coedge $-1 $104 $105 $106 $107 forward $41 $-1 #
face $-1 $108 $109 $25 $-1 $110 reversed single #
loop $-1 $-1 $111 $43 #
plane-surface $-1 0 0 -12.82440519755278 0 0 1 1 0 0 forward_v I I I I #
coedge $-1 $112 $113 $114 $115 forward $44 $-1 #
face $-1 $116 $117 $26 $-1 $118 reversed single #
loop $-1 $-1 $119 $46 #
plane-surface $-1 -5.6935139078963175 -6.4977201488357537 46.549962457241065 0 0.78801076186113728 0.61566146476048833 1 0 0 forward_v I I I I #
coedge $-1 $120 $121 $122 $123 reversed $47 $-1 #
face $-1 $-1 $124 $27 $-1 $125 forward single #
loop $-1 $126 $127 $49 #
cone-surface $-1 -8.1335912969947373 20.841801958260664 5.1080493719347597 0 -0.78801076186113728 -0.61566146476048833 0.5 0 0 1 I I -0.70710678118654746 0.70710678118654746 0.5 forward I I I I #
loop $-1 $-1 $128 $35 #
coedge $-1 $80 $80 $129 $130 reversed $50 $-1 #
face $-1 $-1 $131 $28 $-1 $132 forward single #
loop $-1 $133 $134 $52 #
cone-surface $-1 -3.2534365187978977 20.841801958260664 5.1080493719347597 0 -0.78801076186113728 -0.61566146476048833 0.5 0 0 1 I I -0.70710678118654746 0.70710678118654746 0.5 forward I I I I #
loop $-1 $-1 $135 $36 #
coedge $-1 $85 $85 $136 $137 reversed $53 $-1 #
face $-1 $138 $139 $29 $-1 $140 forward single #
loop $-1 $-1 $141 $55 #
plane-surface $-1 11.387027815792628 74.387434916116007 109.74436976083419 -1 0 0 0 0.78801076186113728 0.61566146476048833 forward_v I I I I #
coedge $-1 $142 $143 $144 $145 reversed $56 $-1 #
face $-1 $-1 $146 $30 $-1 $147 forward single #
loop $-1 $148 $149 $58 #
cone-surface $-1 3.2534365187978977 20.841801958260664 5.1080493719347597 0 -0.78801076186113728 -0.61566146476048833 0.5 0 0 1 I I -0.70710678118654746 0.70710678118654746 0.5 forward I I I I #
loop $-1 $-1 $150 $38 #
coedge $-1 $94 $94 $151 $152 reversed $59 $-1 #
face $-1 $-1 $153 $31 $-1 $154 forward single #
loop $-1 $155 $156 $61 #
cone-surface $-1 8.1335912969947373 20.841801958260664 5.1080493719347597 0 -0.78801076186113728 -0.61566146476048833 0.5 0 0 1 I I -0.70710678118654746 0.70710678118654746 0.5 forward I I I I #
loop $-1 $-1 $157 $39 #
coedge $-1 $99 $99 $158 $159 reversed $62 $-1 #
face $-1 $160 $161 $24 $-1 $162 reversed single #
loop $-1 $-1 $163 $64 #
plane-surface $-1 0 -28.089390715789566 0 0 1 0 0 0 1 forward_v I I I I #
coedge $-1 $164 $165 $166 $167 forward $65 $-1 #
coedge $-1 $168 $67 $169 $170 forward $41 $-1 #
coedge $-1 $67 $168 $171 $172 forward $41 $-1 #
coedge $-1 $173 $174 $67 $107 reversed $175 $-1 #
edge $-1 $176 -28.089390715789566 $177 28.089390715789566 $106 $178 forward 7 unknown #
face $-1 $179 $180 $25 $-1 $181 forward single #
loop $-1 $-1 $182 $68 #
plane-surface $-1 51.322367015594956 0 0 -1 0 0 0 0 1 forward_v I I I I #
coedge $-1 $183 $184 $185 $186 forward $69 $-1 #
coedge $-1 $185 $71 $182 $187 reversed $44 $-1 #
coedge $-1 $71 $185 $188 $189 reversed $44 $-1 #
coedge $-1 $190 $191 $71 $115 reversed $180 $-1 #
edge $-1 $192 -51.322367015594956 $193 51.322367015594956 $114 $194 forward 7 unknown #
face $-1 $195 $196 $26 $-1 $197 forward single #
loop $-1 $-1 $198 $72 #
plane-surface $-1 -7.1054273576010019e-015 74.387434916116007 109.74436976083419 -1 0 0 0 0.78801076186113728 0.61566146476048833 forward_v I I I I #
coedge $-1 $199 $200 $201 $202 reversed $73 $-1 #
coedge $-1 $121 $75 $203 $204 reversed $47 $-1 #
coedge $-1 $75 $120 $199 $205 reversed $47 $-1 #
coedge $-1 $201 $206 $75 $123 forward $196 $-1 #
edge $-1 $207 9.1043267422684373 $208 17.342145202150757 $122 $209 forward 7 unknown #
loop $-1 $-1 $129 $76 #
plane-surface $-1 -5.6935139078963175 -6.4977201488357537 46.549962457241065 0 0.78801076186113728 0.61566146476048833 1 0 0 forward_v I I I I #
loop $-1 $-1 $210 $49 #
coedge $-1 $127 $127 $128 $211 reversed $77 $-1 #
coedge $-1 $128 $128 $127 $211 forward $79 $-1 #
coedge $-1 $129 $129 $80 $130 forward $124 $-1 #
edge $-1 $212 -8.7506704884729591e-016 $212 6.2831853071795996 $129 $213 forward 7 unknown #
loop $-1 $-1 $136 $81 #
plane-surface $-1 -5.6935139078963175 -6.4977201488357537 46.549962457241065 0 0.78801076186113728 0.61566146476048833 1 0 0 forward_v I I I I #
loop $-1 $-1 $214 $52 #
coedge $-1 $134 $134 $135 $215 reversed $82 $-1 #
coedge $-1 $135 $135 $134 $215 forward $84 $-1 #
coedge $-1 $136 $136 $85 $137 forward $131 $-1 #
edge $-1 $216 -8.7506704884729591e-016 $216 6.2831853071795996 $136 $217 forward 7 unknown #
face $-1 $218 $219 $29 $-1 $220 forward single #
loop $-1 $-1 $221 $86 #
plane-surface $-1 0 0 12.82440519755278 0 0 1 1 0 0 forward_v I I I I #
coedge $-1 $222 $223 $224 $225 reversed $87 $-1 #
coedge $-1 $226 $89 $227 $228 reversed $56 $-1 #
coedge $-1 $89 $226 $221 $229 reversed $56 $-1 #
coedge $-1 $230 $231 $89 $145 forward $219 $-1 #
edge $-1 $232 -56.178781431579111 $233 -42.798346027704866 $144 $234 forward 7 unknown #
loop $-1 $-1 $151 $90 #
plane-surface $-1 -5.6935139078963175 -6.4977201488357537 46.549962457241065 0 0.78801076186113728 0.61566146476048833 1 0 0 forward_v I I I I #
loop $-1 $-1 $235 $58 #
coedge $-1 $149 $149 $150 $236 reversed $91 $-1 #
coedge $-1 $150 $150 $149 $236 forward $93 $-1 #
coedge $-1 $151 $151 $94 $152 forward $146 $-1 #
edge $-1 $237 -8.7506704884729591e-016 $237 6.2831853071795996 $151 $238 forward 7 unknown #
loop $-1 $-1 $158 $95 #
plane-surface $-1 -5.6935139078963175 -6.4977201488357537 46.549962457241065 0 0.78801076186113728 0.61566146476048833 1 0 0 forward_v I I I I #
loop $-1 $-1 $239 $61 #
coedge $-1 $156 $156 $157 $240 reversed $96 $-1 #
coedge $-1 $157 $157 $156 $240 forward $98 $-1 #
coedge $-1 $158 $158 $99 $159 forward $153 $-1 #
edge $-1 $241 -8.7506704884729591e-016 $241 6.2831853071795996 $158 $242 forward 7 unknown #
face $-1 $243 $244 $24 $-1 $245 reversed single #
loop $-1 $-1 $246 $100 #
plane-surface $-1 -51.322367015594956 0 0 1 0 0 0 0 -1 forward_v I I I I #
coedge $-1 $247 $171 $248 $249 forward $101 $-1 #
coedge $-1 $250 $103 $247 $251 forward $65 $-1 #
coedge $-1 $103 $250 $252 $253 forward $65 $-1 #
coedge $-1 $174 $173 $103 $167 reversed $175 $-1 #
edge $-1 $254 -28.089390715789566 $255 28.089390715789566 $166 $256 forward 7 unknown #
coedge $-1 $105 $104 $257 $258 forward $41 $-1 #
coedge $-1 $259 $260 $104 $170 reversed $244 $-1 #
edge $-1 $177 -51.322367015594956 $261 51.322367015594956 $169 $262 forward 7 unknown #
coedge $-1 $163 $263 $105 $172 reversed $101 $-1 #
edge $-1 $264 -51.322367015594956 $176 51.322367015594956 $171 $265 forward 7 unknown #
coedge $-1 $166 $106 $263 $266 forward $175 $-1 #
coedge $-1 $106 $166 $259 $267 reversed $175 $-1 #
loop $-1 $-1 $173 $243 #
vertex $-1 $107 $268 #
vertex $-1 $107 $269 #
straight-curve $-1 51.322367015594956 0 12.82440519755278 0 1 0 I I #
face $-1 $270 $271 $25 $-1 $272 reversed single #
loop $-1 $-1 $191 $108 #
plane-surface $-1 0 -33.621915907109567 -7.9190614033998816 0 0 1 1 0 0 forward_v I I I I #
coedge $-1 $273 $274 $112 $187 forward $109 $-1 #
coedge $-1 $275 $111 $274 $276 forward $69 $-1 #
coedge $-1 $111 $275 $277 $278 forward $69 $-1 #
coedge $-1 $113 $112 $111 $186 reversed $44 $-1 #
edge $-1 $279 -51.322367015594956 $280 51.322367015594956 $111 $281 forward 7 unknown #
edge $-1 $280 -12.82440519755278 $193 -7.9190614033998816 $182 $282 forward 7 unknown #
coedge $-1 $277 $283 $113 $189 forward $284 $-1 #
edge $-1 $192 7.9190614033998816 $279 12.82440519755278 $188 $285 forward 7 unknown #
coedge $-1 $286 $114 $283 $287 forward $180 $-1 #
coedge $-1 $114 $286 $273 $288 forward $180 $-1 #
vertex $-1 $189 $289 #
vertex $-1 $288 $290 #
straight-curve $-1 0 -28.089390715789566 -7.9190614033998816 1 0 0 I I #
face $-1 $-1 $291 $26 $-1 $292 reversed single #
loop $-1 $-1 $122 $116 #
plane-surface $-1 0 0 12.82440519755278 0 0 1 1 0 0 forward_v I I I I #
coedge $-1 $293 $294 $295 $296 reversed $117 $-1 #
coedge $-1 $297 $119 $121 $205 forward $73 $-1 #
coedge $-1 $119 $297 $293 $298 forward $73 $-1 #
coedge $-1 $295 $122 $119 $202 forward $196 $-1 #
edge $-1 $208 -8.5402708618444692 $299 2.8467569539481516 $201 $300 forward 7 unknown #
coedge $-1 $301 $302 $120 $204 forward $291 $-1 #
edge $-1 $303 -52.591706779504989 $207 -42.047779682864316 $203 $304 forward 7 unknown #
edge $-1 $208 42.798346027704866 $303 56.178781431579111 $121 $305 forward 7 unknown #
coedge $-1 $122 $295 $301 $306 forward $196 $-1 #
vertex $-1 $204 $307 #
vertex $-1 $123 $308 #
straight-curve $-1 -11.387027815792628 37.193717458058003 12.824405197552778 0 -1 0 I I #
coedge $-1 $210 $210 $-1 $309 reversed $126 $-1 #
edge $-1 $310 0 $310 6.2831853071796004 $127 $311 forward 7 unknown #
vertex $-1 $130 $312 #
ellipse-curve $-1 -8.1335912969947373 23.97048148584841 7.5524416492324384 0 0.78801076186113728 0.61566146476048833 1 0 0 1 I I #
coedge $-1 $214 $214 $-1 $313 reversed $133 $-1 #
edge $-1 $314 0 $314 6.2831853071796004 $134 $315 forward 7 unknown #
vertex $-1 $137 $316 #
ellipse-curve $-1 -3.2534365187978977 23.97048148584841 7.5524416492324384 0 0.78801076186113728 0.61566146476048833 1 0 0 1 I I #
face $-1 $-1 $317 $29 $-1 $318 reversed single #
loop $-1 $-1 $230 $138 #
plane-surface $-1 -7.1054273576010019e-015 74.387434916116007 109.74436976083419 -1 0 0 0 0.78801076186113728 0.61566146476048833 forward_v I I I I #
coedge $-1 $224 $319 $143 $229 forward $139 $-1 #
coedge $-1 $223 $141 $226 $320 reversed $87 $-1 #
coedge $-1 $141 $222 $321 $322 reversed $87 $-1 #
coedge $-1 $323 $221 $141 $225 forward $139 $-1 #
edge $-1 $324 -17.342145202150757 $325 -9.1043267422684373 $224 $326 forward 7 unknown #
coedge $-1 $143 $142 $222 $320 forward $56 $-1 #
coedge $-1 $327 $321 $142 $228 forward $317 $-1 #
edge $-1 $328 -14.233784769740787 $232 -2.8467569539481516 $227 $329 forward 7 unknown #
edge $-1 $233 2.8467569539481516 $324 14.233784769740787 $221 $330 forward 7 unknown #
coedge $-1 $231 $144 $319 $331 reversed $219 $-1 #
coedge $-1 $144 $230 $327 $332 reversed $219 $-1 #
vertex $-1 $228 $333 #
vertex $-1 $229 $334 #
straight-curve $-1 -7.1054273576010019e-015 -6.4977201488357537 46.549962457241065 0 -0.61566146476048833 0.78801076186113728 I I #
coedge $-1 $235 $235 $-1 $335 reversed $148 $-1 #
edge $-1 $336 0 $336 6.2831853071796004 $149 $337 forward 7 unknown #
vertex $-1 $152 $338 #
ellipse-curve $-1 3.2534365187978977 23.97048148584841 7.5524416492324384 0 0.78801076186113728 0.61566146476048833 1 0 0 1 I I #
coedge $-1 $239 $239 $-1 $339 reversed $155 $-1 #
edge $-1 $340 0 $340 6.2831853071796004 $156 $341 forward 7 unknown #
vertex $-1 $159 $342 #
ellipse-curve $-1 8.1335912969947373 23.97048148584841 7.5524416492324384 0 0.78801076186113728 0.61566146476048833 1 0 0 1 I I #
face $-1 $-1 $175 $24 $-1 $343 reversed single #
loop $-1 $-1 $259 $160 #
plane-surface $-1 0 28.089390715789566 0 0 -1 0 0 0 -1 forward_v I I I I #
coedge $-1 $344 $257 $260 $345 forward $161 $-1 #
coedge $-1 $263 $163 $164 $251 reversed $101 $-1 #
coedge $-1 $257 $344 $163 $249 reversed $161 $-1 #
edge $-1 $264 -12.82440519755278 $346 12.82440519755278 $248 $347 forward 7 unknown #
coedge $-1 $165 $164 $344 $348 forward $65 $-1 #
edge $-1 $255 -51.322367015594956 $346 51.322367015594956 $247 $349 forward 7 unknown #
coedge $-1 $260 $259 $165 $253 reversed $244 $-1 #
edge $-1 $350 -51.322367015594956 $254 51.322367015594956 $252 $351 forward 7 unknown #
vertex $-1 $167 $352 #
vertex $-1 $266 $353 #
straight-curve $-1 51.322367015594956 0 -12.82440519755278 0 -1 0 I I #
coedge $-1 $246 $248 $168 $258 reversed $161 $-1 #
edge $-1 $261 -28.089390715789566 $264 28.089390715789566 $257 $354 forward 7 unknown #
coedge $-1 $252 $169 $174 $267 forward $244 $-1 #
coedge $-1 $169 $252 $246 $345 reversed $244 $-1 #
vertex $-1 $170 $355 #
straight-curve $-1 0 28.089390715789566 12.82440519755278 -1 0 0 I I #
coedge $-1 $171 $247 $173 $266 reversed $101 $-1 #
vertex $-1 $258 $356 #
straight-curve $-1 0 -28.089390715789566 12.82440519755278 1 0 0 I I #
edge $-1 $176 -12.82440519755278 $255 12.82440519755278 $173 $357 forward 7 unknown #
edge $-1 $177 -12.82440519755278 $254 12.82440519755278 $174 $358 forward 7 unknown #
point $-1 51.322367015594956 -28.089390715789566 12.82440519755278 #
point $-1 51.322367015594956 28.089390715789566 12.82440519755278 #
face $-1 $-1 $284 $25 $-1 $359 reversed single #
loop $-1 $-1 $360 $179 #
plane-surface $-1 0 -39.154441098429565 -10.371733300476331 0 1 0 0 0 1 forward_v I I I I #
coedge $-1 $361 $182 $191 $288 reversed $109 $-1 #
coedge $-1 $182 $361 $183 $276 reversed $109 $-1 #
coedge $-1 $184 $183 $362 $363 forward $69 $-1 #
edge $-1 $280 28.089390715789566 $364 39.154441098429565 $274 $365 forward 7 unknown #
coedge $-1 $366 $188 $184 $278 reversed $284 $-1 #
edge $-1 $367 -39.154441098429565 $279 -28.089390715789566 $277 $368 forward 7 unknown #
vertex $-1 $189 $369 #
vertex $-1 $276 $370 #
straight-curve $-1 0 -28.089390715789566 -12.82440519755278 1 0 0 I I #
straight-curve $-1 51.322367015594956 -28.089390715789566 0 0 0 1 I I #
coedge $-1 $188 $366 $190 $287 reversed $284 $-1 #
loop $-1 $-1 $188 $270 #
straight-curve $-1 -51.322367015594956 -28.089390715789566 0 0 0 -1 I I #
coedge $-1 $191 $190 $371 $372 forward $180 $-1 #
edge $-1 $192 -5.5325251913199978 $373 5.5325251913199978 $283 $374 forward 7 unknown #
edge $-1 $375 -5.5325251913199978 $193 5.5325251913199978 $273 $376 forward 7 unknown #
point $-1 -51.322367015594956 -28.08939071578957 -7.9190614033998816 #
point $-1 51.322367015594956 -28.08939071578957 -7.9190614033998816 #
loop $-1 $-1 $203 $195 #
plane-surface $-1 0 28.089390715789566 0 0 -1 0 0 0 -1 forward_v I I I I #
coedge $-1 $294 $198 $200 $298 reversed $117 $-1 #
coedge $-1 $198 $293 $377 $378 reversed $117 $-1 #
coedge $-1 $206 $201 $198 $296 forward $196 $-1 #
edge $-1 $299 -17.342145202150757 $379 -9.1043267422684373 $295 $380 forward 7 unknown #
coedge $-1 $200 $199 $302 $381 reversed $73 $-1 #
edge $-1 $382 -56.178781431579111 $299 -42.798346027704866 $293 $383 forward 7 unknown #
vertex $-1 $202 $384 #
straight-curve $-1 -2.8467569539481588 19.85157225590725 12.824405197552775 1 0 0 I I #
coedge $-1 $377 $203 $206 $306 reversed $291 $-1 #
coedge $-1 $203 $377 $297 $381 forward $291 $-1 #
vertex $-1 $204 $385 #
straight-curve $-1 -11.387027815792628 28.089390715789566 54.872184880417095 0 0 1 I I #
straight-curve $-1 -11.387027815792628 -6.4977201488357537 46.549962457241065 0 0.61566146476048833 -0.78801076186113728 I I #
edge $-1 $379 7.1054273576010019e-015 $207 11.387027815792628 $301 $386 forward 7 unknown #
point $-1 -11.387027815792628 28.089390715789566 12.82440519755278 #
point $-1 -11.387027815792628 19.851572255907247 12.824405197552778 #
edge $-1 $387 1 $387 0 $210 $-1 forward 7 unknown #
vertex $-1 $211 $388 #
ellipse-curve $-1 -8.1335912969947373 21.235807339191233 5.4158801043150042 0 0.78801076186113728 0.61566146476048833 1 0 0 1 I I #
point $-1 -7.1335912969947373 23.970481485848403 7.552441649232434 #
edge $-1 $389 1 $389 0 $214 $-1 forward 7 unknown #
vertex $-1 $215 $390 #
ellipse-curve $-1 -3.2534365187978977 21.235807339191233 5.4158801043150042 0 0.78801076186113728 0.61566146476048833 1 0 0 1 I I #
point $-1 -2.2534365187978977 23.970481485848403 7.552441649232434 #
loop $-1 $-1 $227 $218 #
plane-surface $-1 0 28.089390715789566 0 0 -1 0 0 0 -1 forward_v I I I I #
coedge $-1 $221 $323 $230 $331 forward $139 $-1 #
edge $-1 $328 -56.178781431579111 $324 -42.798346027704866 $222 $391 forward 7 unknown #
coedge $-1 $227 $392 $223 $322 forward $317 $-1 #
edge $-1 $325 42.047779682864316 $328 52.591706779504989 $321 $393 forward 7 unknown #
coedge $-1 $319 $224 $392 $394 forward $139 $-1 #
vertex $-1 $225 $395 #
vertex $-1 $394 $396 #
straight-curve $-1 11.387027815792628 37.193717458058003 12.824405197552778 0 1 0 I I #
coedge $-1 $392 $227 $231 $332 forward $317 $-1 #
vertex $-1 $322 $397 #
straight-curve $-1 -2.8467569539481588 28.089390715789566 2.2804781009120916 -1 0 0 I I #
straight-curve $-1 -2.8467569539481588 19.85157225590725 12.824405197552775 1 0 0 I I #
edge $-1 $398 9.1043267422684373 $233 17.342145202150757 $319 $399 forward 7 unknown #
edge $-1 $232 -52.591706779504989 $398 -42.047779682864316 $327 $400 forward 7 unknown #
point $-1 -7.1054273576010019e-015 28.089390715789563 2.2804781009121058 #
point $-1 -7.1054273576010019e-015 19.851572255907247 12.824405197552778 #
edge $-1 $401 1 $401 0 $235 $-1 forward 7 unknown #
vertex $-1 $236 $402 #
ellipse-curve $-1 3.2534365187978977 21.235807339191233 5.4158801043150042 0 0.78801076186113728 0.61566146476048833 1 0 0 1 I I #
point $-1 4.2534365187978977 23.970481485848403 7.552441649232434 #
edge $-1 $403 1 $403 0 $239 $-1 forward 7 unknown #
vertex $-1 $240 $404 #
ellipse-curve $-1 8.1335912969947373 21.235807339191233 5.4158801043150042 0 0.78801076186113728 0.61566146476048833 1 0 0 1 I I #
point $-1 9.1335912969947373 23.970481485848403 7.552441649232434 #
plane-surface $-1 51.322367015594956 0 0 -1 0 0 0 0 1 forward_v I I I I #
coedge $-1 $248 $246 $250 $348 reversed $161 $-1 #
edge $-1 $261 -12.82440519755278 $350 12.82440519755278 $260 $405 forward 7 unknown #
vertex $-1 $348 $406 #
straight-curve $-1 -51.322367015594956 -28.089390715789566 0 0 0 -1 I I #
edge $-1 $346 -28.089390715789566 $350 28.089390715789566 $344 $407 forward 7 unknown #
straight-curve $-1 0 -28.089390715789566 -12.82440519755278 -1 0 0 I I #
vertex $-1 $253 $408 #
straight-curve $-1 0 28.089390715789566 -12.82440519755278 1 0 0 I I #
point $-1 51.322367015594956 28.089390715789566 -12.82440519755278 #
point $-1 51.322367015594956 -28.089390715789566 -12.82440519755278 #
straight-curve $-1 -51.322367015594956 0 12.82440519755278 0 -1 0 I I #
point $-1 -51.322367015594956 28.089390715789566 12.82440519755278 #
point $-1 -51.322367015594956 -28.089390715789566 12.82440519755278 #
straight-curve $-1 51.322367015594956 -28.089390715789566 0 0 0 -1 I I #
straight-curve $-1 51.322367015594956 28.089390715789566 0 0 0 -1 I I #
plane-surface $-1 -51.322367015594956 0 0 1 0 0 0 0 -1 forward_v I I I I #
coedge $-1 $362 $371 $366 $409 forward $271 $-1 #
coedge $-1 $274 $273 $410 $411 forward $109 $-1 #
coedge $-1 $410 $360 $275 $363 reversed $271 $-1 #
edge $-1 $364 -51.322367015594956 $367 51.322367015594956 $362 $412 forward 7 unknown #
vertex $-1 $411 $413 #
straight-curve $-1 51.322367015594956 0 -12.82440519755278 0 -1 0 I I #
coedge $-1 $283 $277 $360 $409 reversed $284 $-1 #
vertex $-1 $278 $414 #
straight-curve $-1 -51.322367015594956 0 -12.82440519755278 0 1 0 I I #
point $-1 -51.322367015594956 -28.089390715789566 -12.82440519755278 #
point $-1 51.322367015594956 -28.089390715789566 -12.82440519755278 #
coedge $-1 $360 $410 $286 $372 reversed $271 $-1 #
edge $-1 $373 -51.322367015594956 $375 51.322367015594956 $371 $415 forward 7 unknown #
vertex $-1 $287 $416 #
straight-curve $-1 -51.322367015594956 -33.621915907109567 -7.9190614033998816 0 -1 0 I I #
vertex $-1 $288 $417 #
straight-curve $-1 51.322367015594956 -33.621915907109567 -7.9190614033998816 0 1 0 I I #
coedge $-1 $302 $301 $294 $378 forward $291 $-1 #
edge $-1 $379 42.047779682864316 $382 52.591706779504989 $377 $418 forward 7 unknown #
vertex $-1 $306 $419 #
straight-curve $-1 -7.1054273576010019e-015 37.193717458058003 12.824405197552778 0 1 0 I I #
edge $-1 $382 -2.8467569539481516 $303 8.5402708618444692 $302 $420 forward 7 unknown #
vertex $-1 $381 $421 #
straight-curve $-1 -7.1054273576010019e-015 -6.4977201488357537 46.549962457241065 0 -0.61566146476048833 0.78801076186113728 I I #
point $-1 -7.1054273576010019e-015 19.851572255907247 12.824405197552778 #
point $-1 -11.387027815792628 28.089390715789563 2.2804781009121058 #
straight-curve $-1 0 28.089390715789566 12.82440519755278 -1 0 0 I I #
vertex $-1 $309 $422 #
point $-1 -7.1335912969947373 21.235807339191233 5.4158801043150042 #
vertex $-1 $313 $423 #
point $-1 -2.2534365187978977 21.235807339191233 5.4158801043150042 #
straight-curve $-1 11.387027815792628 -6.4977201488357537 46.549962457241065 0 -0.61566146476048833 0.78801076186113728 I I #
coedge $-1 $321 $327 $323 $394 reversed $317 $-1 #
straight-curve $-1 11.387027815792628 28.089390715789566 54.872184880417095 0 0 -1 I I #
edge $-1 $325 -11.387027815792628 $398 7.1054273576010019e-015 $392 $424 forward 7 unknown #
point $-1 11.387027815792628 19.851572255907247 12.824405197552778 #
point $-1 11.387027815792628 28.089390715789566 12.82440519755278 #
point $-1 11.387027815792628 28.089390715789563 2.2804781009121058 #
vertex $-1 $332 $425 #
straight-curve $-1 -7.1054273576010019e-015 37.193717458058003 12.824405197552778 0 -1 0 I I #
straight-curve $-1 -7.1054273576010019e-015 28.089390715789566 54.872184880417095 0 0 1 I I #
vertex $-1 $335 $426 #
point $-1 4.2534365187978977 21.235807339191233 5.4158801043150042 #
vertex $-1 $339 $427 #
point $-1 9.1335912969947373 21.235807339191233 5.4158801043150042 #
straight-curve $-1 -51.322367015594956 28.089390715789566 0 0 0 -1 I I #
point $-1 -51.322367015594956 -28.089390715789566 -12.82440519755278 #
straight-curve $-1 -51.322367015594956 0 -12.82440519755278 0 1 0 I I #
point $-1 -51.322367015594956 28.089390715789566 -12.82440519755278 #
edge $-1 $373 -2.4526718970764492 $367 2.4526718970764492 $366 $428 forward 7 unknown #
coedge $-1 $371 $362 $361 $411 reversed $271 $-1 #
edge $-1 $375 -2.4526718970764492 $364 2.4526718970764492 $361 $429 forward 7 unknown #
straight-curve $-1 0 -39.154441098429565 -12.82440519755278 -1 0 0 I I #
point $-1 51.322367015594956 -39.154441098429565 -12.82440519755278 #
point $-1 -51.322367015594956 -39.154441098429565 -12.82440519755278 #
straight-curve $-1 0 -39.154441098429565 -7.9190614033998816 1 0 0 I I #
point $-1 -51.322367015594956 -39.154441098429565 -7.9190614033998816 #
point $-1 51.322367015594956 -39.154441098429565 -7.9190614033998816 #
straight-curve $-1 -7.1054273576010019e-015 28.089390715789566 54.872184880417095 0 0 -1 I I #
point $-1 -7.1054273576010019e-015 28.089390715789566 12.82440519755278 #
straight-curve $-1 -2.8467569539481588 28.089390715789566 2.2804781009120916 -1 0 0 I I #
point $-1 -7.1054273576010019e-015 28.089390715789563 2.2804781009121058 #
point $-1 -8.1335912969947373 20.447796577330095 4.8002186395545152 #
point $-1 -3.2534365187978977 20.447796577330095 4.8002186395545152 #
straight-curve $-1 0 28.089390715789566 12.82440519755278 -1 0 0 I I #
point $-1 -7.1054273576010019e-015 28.089390715789566 12.82440519755278 #
point $-1 3.2534365187978977 20.447796577330095 4.8002186395545152 #
point $-1 8.1335912969947373 20.447796577330095 4.8002186395545152 #
straight-curve $-1 -51.322367015594956 -39.154441098429565 -10.371733300476331 0 0 -1 I I #
straight-curve $-1 51.322367015594956 -39.154441098429565 -10.371733300476331 0 0 -1 I I #
End-of-ACIS-data 