500 0 12 0           
7 Unknown 11 ACIS 5.0 NT 24 Fri Mar 26 00:11:16 1999 
-1 9.9999999999999995e-007 1e-010 
body $-1 $12 $-1 $13 #
body $-1 $14 $-1 $15 #
body $-1 $16 $-1 $17 #
body $-1 $18 $-1 $19 #
body $-1 $20 $-1 $21 #
body $-1 $22 $-1 $23 #
body $-1 $24 $-1 $25 #
body $-1 $26 $-1 $27 #
body $-1 $28 $-1 $29 #
body $-1 $30 $-1 $31 #
body $-1 $32 $-1 $33 #
body $-1 $34 $-1 $35 #
lump $-1 $-1 $36 $0 #
transform $-1 1 0 0 0 1 0 0 0 1 51.82775353251747 24.092542552180735 9.32077804410625 1 rotate no_reflect no_shear #
lump $-1 $-1 $37 $1 #
transform $-1 1 0 0 0 1 0 0 0 1 51.82775353251747 24.092542552180735 9.32077804410625 1 rotate no_reflect no_shear #
lump $-1 $-1 $38 $2 #
transform $-1 1 0 0 0 1 0 0 0 1 51.82775353251747 24.092542552180735 9.32077804410625 1 rotate no_reflect no_shear #
lump $-1 $-1 $39 $3 #
transform $-1 1 0 0 0 1 0 0 0 1 51.82775353251747 24.092542552180735 9.32077804410625 1 rotate no_reflect no_shear #
lump $-1 $-1 $40 $4 #
transform $-1 1 0 0 0 1 0 0 0 1 51.82775353251747 24.092542552180735 9.32077804410625 1 rotate no_reflect no_shear #
lump $-1 $-1 $41 $5 #
transform $-1 1 0 0 0 1 0 0 0 1 51.82775353251747 24.092542552180735 9.32077804410625 1 rotate no_reflect no_shear #
lump $-1 $-1 $42 $6 #
transform $-1 1 0 0 0 1 0 0 0 1 51.82775353251747 24.092542552180735 9.32077804410625 1 rotate no_reflect no_shear #
lump $-1 $-1 $43 $7 #
transform $-1 1 0 0 0 1 0 0 0 1 51.82775353251747 24.092542552180735 9.32077804410625 1 rotate no_reflect no_shear #
lump $-1 $-1 $44 $8 #
transform $-1 1 0 0 0 1 0 0 0 1 51.82775353251747 24.092542552180735 9.32077804410625 1 rotate no_reflect no_shear #
lump $-1 $-1 $45 $9 #
transform $-1 1 0 0 0 1 0 0 0 1 51.82775353251747 24.092542552180735 9.32077804410625 1 rotate no_reflect no_shear #
lump $-1 $-1 $46 $10 #
transform $-1 1 0 0 0 1 0 0 0 1 51.82775353251747 24.092542552180735 9.32077804410625 1 rotate no_reflect no_shear #
lump $-1 $-1 $47 $11 #
transform $-1 1 0 0 0 1 0 0 0 1 51.82775353251747 24.092542552180735 9.32077804410625 1 rotate no_reflect no_shear #
shell $-1 $-1 $-1 $48 $-1 $12 #
shell $-1 $-1 $-1 $49 $-1 $14 #
shell $-1 $-1 $-1 $50 $-1 $16 #
shell $-1 $-1 $-1 $51 $-1 $18 #
shell $-1 $-1 $-1 $52 $-1 $20 #
shell $-1 $-1 $-1 $53 $-1 $22 #
shell $-1 $-1 $-1 $54 $-1 $24 #
shell $-1 $-1 $-1 $55 $-1 $26 #
shell $-1 $-1 $-1 $56 $-1 $28 #
shell $-1 $-1 $-1 $57 $-1 $30 #
shell $-1 $-1 $-1 $58 $-1 $32 #
shell $-1 $-1 $-1 $59 $-1 $34 #
face $-1 $60 $61 $36 $-1 $62 reversed single #
face $-1 $63 $64 $37 $-1 $65 forward single #
face $-1 $66 $67 $38 $-1 $68 reversed single #
face $-1 $69 $70 $39 $-1 $71 reversed single #
face $-1 $72 $73 $40 $-1 $74 forward single #
face $-1 $75 $76 $41 $-1 $77 forward single #
face $-1 $78 $79 $42 $-1 $80 reversed single #
face $-1 $81 $82 $43 $-1 $83 forward single #
face $-1 $84 $85 $44 $-1 $86 forward single #
face $-1 $87 $88 $45 $-1 $89 reversed single #
face $-1 $90 $91 $46 $-1 $92 forward single #
face $-1 $93 $94 $47 $-1 $95 forward single #
face $-1 $96 $97 $36 $-1 $98 forward single #
loop $-1 $-1 $99 $48 #
plane-surface $-1 0 -24.092542552180735 0 0 1 0 0 0 1 forward_v I I I I #
face $-1 $100 $101 $37 $-1 $102 forward single #
loop $-1 $-1 $103 $49 #
plane-surface $-1 0 -24.092542552180735 0 0 1 0 0 0 1 forward_v I I I I #
face $-1 $104 $105 $38 $-1 $106 reversed single #
loop $-1 $-1 $107 $50 #
plane-surface $-1 -49.900306407389763 17.126220292924771 0 0 1 0 0 0 1 forward_v I I I I #
face $-1 $108 $109 $39 $-1 $110 reversed single #
loop $-1 $-1 $111 $51 #
plane-surface $-1 -128.85880809852534 -14.311605316619978 71.334953463954719 0 1 0 -0.74314483375859142 0 0.66913059716165679 forward_v I I I I #
face $-1 $112 $113 $40 $-1 $114 forward single #
loop $-1 $115 $116 $52 #
cone-surface $-1 -47.810121249893193 -12.510761359097176 5.0081920141187499 0.74314483375859142 0 -0.66913059716165679 0.3345652985808284 0 0.37157241687929571 1 I I 0 1 0.5 forward I I I I #
face $-1 $117 $118 $41 $-1 $119 forward single #
loop $-1 $120 $121 $53 #
cone-surface $-1 -47.810121249893193 -9.8094954228129723 5.0081920141187499 0.74314483375859142 0 -0.66913059716165679 0.3345652985808284 0 0.37157241687929571 1 I I 0 1 0.5 forward I I I I #
face $-1 $122 $123 $42 $-1 $124 reversed single #
loop $-1 $-1 $125 $54 #
plane-surface $-1 77.283019743340049 -7.9967683123034838 147.24572042899862 0 -1 0 -0.81915205242281985 0 -0.57357642473473569 forward_v I I I I #
face $-1 $126 $127 $43 $-1 $128 forward single #
loop $-1 $129 $130 $55 #
cone-surface $-1 49.16384745996379 -12.507366172529551 5.8144727723448995 -0.81915205242281985 0 -0.57357642473473569 0.14339410618368392 0 -0.20478801310570496 1 I I 0 1 0.25 forward I I I I #
face $-1 $131 $132 $44 $-1 $133 forward single #
loop $-1 $134 $135 $56 #
cone-surface $-1 49.16384745996379 -9.8010074563939114 5.8144727723448995 -0.81915205242281985 0 -0.57357642473473569 0.14339410618368392 0 -0.20478801310570496 1 I I 0 1 0.25 forward I I I I #
face $-1 $136 $137 $45 $-1 $138 reversed single #
loop $-1 $-1 $139 $57 #
plane-surface $-1 77.283019743340049 17.126220292924764 147.24572042899862 0 -1 0 -0.81915205242281985 0 -0.57357642473473569 forward_v I I I I #
face $-1 $140 $141 $46 $-1 $142 forward single #
loop $-1 $143 $144 $58 #
cone-surface $-1 49.16384745996379 12.615622432698697 5.8144727723448995 -0.81915205242281985 0 -0.57357642473473569 0.14339410618368392 0 -0.20478801310570496 1 I I 0 1 0.25 forward I I I I #
face $-1 $145 $146 $47 $-1 $147 forward single #
loop $-1 $148 $149 $59 #
cone-surface $-1 49.16384745996379 15.321981148834336 5.8144727723448995 -0.81915205242281985 0 -0.57357642473473569 0.14339410618368392 0 -0.20478801310570496 1 I I 0 1 0.25 forward I I I I #
face $-1 $150 $151 $36 $-1 $152 reversed single #
loop $-1 $-1 $153 $60 #
plane-surface $-1 0 0 9.32077804410625 0 0 1 1 0 0 forward_v I I I I #
coedge $-1 $154 $155 $156 $157 reversed $61 $-1 #
face $-1 $158 $159 $37 $-1 $160 reversed single #
loop $-1 $-1 $161 $63 #
plane-surface $-1 0 0 9.32077804410625 0 0 1 1 0 0 forward_v I I I I #
coedge $-1 $162 $163 $164 $165 forward $64 $-1 #
face $-1 $166 $167 $38 $-1 $168 reversed single #
loop $-1 $-1 $169 $66 #
plane-surface $-1 -47.972859282262057 20.609381422552755 0 -1 0 0 0 0 1 forward_v I I I I #
coedge $-1 $170 $171 $172 $173 reversed $67 $-1 #
face $-1 $174 $175 $39 $-1 $176 reversed single #
loop $-1 $-1 $177 $69 #
plane-surface $-1 -51.827753532517463 -11.160128390955073 1.9758821224335605 -0.74314483375859142 0 0.66913059716165679 0.66913059716165679 0 0.74314483375859142 forward_v I I I I #
coedge $-1 $178 $179 $180 $181 reversed $70 $-1 #
face $-1 $-1 $182 $40 $-1 $183 forward single #
loop $-1 $184 $185 $72 #
cone-surface $-1 -46.913389672941356 -12.510761359097176 4.2007712956771872 0.74314483375859142 0 -0.66913059716165679 0.1672826492904142 0 0.18578620843964785 1 I I -0.70710678118654879 0.70710678118654635 0.25 forward I I I I #
loop $-1 $-1 $186 $52 #
coedge $-1 $116 $116 $187 $188 reversed $73 $-1 #
face $-1 $-1 $189 $41 $-1 $190 forward single #
loop $-1 $191 $192 $75 #
cone-surface $-1 -46.913389672941356 -9.8094954228129723 4.2007712956771872 0.74314483375859142 0 -0.66913059716165679 0.1672826492904142 0 0.18578620843964785 1 I I -0.70710678118654879 0.70710678118654635 0.25 forward I I I I #
loop $-1 $-1 $193 $53 #
coedge $-1 $121 $121 $194 $195 reversed $76 $-1 #
face $-1 $196 $197 $42 $-1 $198 reversed single #
loop $-1 $-1 $199 $78 #
plane-surface $-1 -7.6266016139114328 -11.154186814461731 87.791365282569757 0.81915205242281985 0 0.57357642473473569 0.57357642473473569 0 -0.81915205242281985 forward_v I I I I #
coedge $-1 $200 $201 $202 $203 reversed $79 $-1 #
face $-1 $-1 $204 $43 $-1 $205 forward single #
loop $-1 $206 $207 $81 #
cone-surface $-1 48.65187742719953 -12.507366172529551 5.4559875068856893 -0.81915205242281985 0 -0.57357642473473569 0.071697053091841961 0 -0.10239400655285248 1 I I -0.70710678118654746 0.70710678118654746 0.125 forward I I I I #
loop $-1 $-1 $208 $55 #
coedge $-1 $130 $130 $209 $210 reversed $82 $-1 #
face $-1 $-1 $211 $44 $-1 $212 forward single #
loop $-1 $213 $214 $84 #
cone-surface $-1 48.65187742719953 -9.8010074563939114 5.4559875068856893 -0.81915205242281985 0 -0.57357642473473569 0.071697053091841961 0 -0.10239400655285248 1 I I -0.70710678118654746 0.70710678118654746 0.125 forward I I I I #
loop $-1 $-1 $215 $56 #
coedge $-1 $135 $135 $216 $217 reversed $85 $-1 #
face $-1 $218 $219 $45 $-1 $220 reversed single #
loop $-1 $-1 $221 $87 #
plane-surface $-1 -7.6266016139114328 13.968801790766516 87.791365282569757 0.81915205242281985 0 0.57357642473473569 0.57357642473473569 0 -0.81915205242281985 forward_v I I I I #
coedge $-1 $222 $223 $224 $225 reversed $88 $-1 #
face $-1 $-1 $226 $46 $-1 $227 forward single #
loop $-1 $228 $229 $90 #
cone-surface $-1 48.65187742719953 12.615622432698697 5.4559875068856893 -0.81915205242281985 0 -0.57357642473473569 0.071697053091841961 0 -0.10239400655285248 1 I I -0.70710678118654746 0.70710678118654746 0.125 forward I I I I #
loop $-1 $-1 $230 $58 #
coedge $-1 $144 $144 $231 $232 reversed $91 $-1 #
face $-1 $-1 $233 $47 $-1 $234 forward single #
loop $-1 $235 $236 $93 #
cone-surface $-1 48.65187742719953 15.321981148834336 5.4559875068856893 -0.81915205242281985 0 -0.57357642473473569 0.071697053091841961 0 -0.10239400655285248 1 I I -0.70710678118654746 0.70710678118654746 0.125 forward I I I I #
loop $-1 $-1 $237 $59 #
coedge $-1 $149 $149 $238 $239 reversed $94 $-1 #
face $-1 $240 $241 $36 $-1 $242 reversed single #
loop $-1 $-1 $243 $96 #
plane-surface $-1 0 0 -9.32077804410625 0 0 1 1 0 0 forward_v I I I I #
coedge $-1 $244 $245 $246 $247 forward $97 $-1 #
coedge $-1 $248 $99 $249 $250 reversed $61 $-1 #
coedge $-1 $99 $248 $251 $252 forward $61 $-1 #
coedge $-1 $253 $243 $99 $157 forward $151 $-1 #
edge $-1 $254 -51.82775353251747 $255 51.82775353251747 $99 $256 forward 7 unknown #
face $-1 $257 $258 $37 $-1 $259 reversed single #
loop $-1 $-1 $260 $100 #
plane-surface $-1 -51.82775353251747 0 0 1 0 0 0 0 -1 forward_v I I I I #
coedge $-1 $261 $262 $163 $263 forward $101 $-1 #
coedge $-1 $264 $103 $265 $266 reversed $64 $-1 #
coedge $-1 $103 $264 $161 $263 reversed $64 $-1 #
coedge $-1 $267 $268 $103 $165 reversed $269 $-1 #
edge $-1 $270 -9.32077804410625 $271 9.32077804410625 $164 $272 forward 7 unknown #
face $-1 $273 $274 $38 $-1 $275 reversed single #
loop $-1 $-1 $276 $104 #
plane-surface $-1 0 0 -9.32077804410625 0 0 1 1 0 0 forward_v I I I I #
coedge $-1 $277 $278 $279 $280 forward $105 $-1 #
coedge $-1 $279 $107 $281 $282 reversed $67 $-1 #
coedge $-1 $107 $279 $283 $284 reversed $67 $-1 #
coedge $-1 $285 $286 $107 $173 forward $274 $-1 #
edge $-1 $287 -9.32077804410625 $288 9.32077804410625 $172 $289 forward 7 unknown #
face $-1 $290 $291 $39 $-1 $292 forward single #
loop $-1 $-1 $293 $108 #
plane-surface $-1 -128.85880809852534 -8.0086514652901677 71.334953463954719 0 -1 0 0.74314483375859142 0 -0.66913059716165679 forward_v I I I I #
coedge $-1 $294 $295 $296 $297 reversed $109 $-1 #
coedge $-1 $179 $111 $298 $299 reversed $70 $-1 #
coedge $-1 $111 $178 $294 $300 reversed $70 $-1 #
coedge $-1 $296 $301 $111 $181 forward $291 $-1 #
edge $-1 $302 12.601650516745202 $303 19.215024344969372 $180 $304 forward 7 unknown #
loop $-1 $-1 $187 $112 #
plane-surface $-1 -51.827753532517463 -11.160128390955073 1.9758821224335605 -0.74314483375859142 0 0.66913059716165679 0.66913059716165679 0 0.74314483375859142 forward_v I I I I #
loop $-1 $-1 $305 $72 #
coedge $-1 $185 $185 $186 $306 reversed $113 $-1 #
coedge $-1 $186 $186 $185 $306 forward $115 $-1 #
coedge $-1 $187 $187 $116 $188 forward $182 $-1 #
edge $-1 $307 0 $307 6.2831853071796004 $187 $308 forward 7 unknown #
loop $-1 $-1 $194 $117 #
plane-surface $-1 -51.827753532517463 -11.160128390955073 1.9758821224335605 -0.74314483375859142 0 0.66913059716165679 0.66913059716165679 0 0.74314483375859142 forward_v I I I I #
loop $-1 $-1 $309 $75 #
coedge $-1 $192 $192 $193 $310 reversed $118 $-1 #
coedge $-1 $193 $193 $192 $310 forward $120 $-1 #
coedge $-1 $194 $194 $121 $195 forward $189 $-1 #
edge $-1 $311 0 $311 6.2831853071796004 $194 $312 forward 7 unknown #
face $-1 $313 $314 $42 $-1 $315 reversed single #
loop $-1 $-1 $316 $122 #
plane-surface $-1 77.283019743340049 -14.311605316619978 147.24572042899862 0 1 0 0.81915205242281985 0 0.57357642473473569 forward_v I I I I #
coedge $-1 $317 $318 $319 $320 reversed $123 $-1 #
coedge $-1 $201 $125 $321 $322 reversed $79 $-1 #
coedge $-1 $125 $200 $317 $323 reversed $79 $-1 #
coedge $-1 $319 $324 $125 $203 forward $325 $-1 #
edge $-1 $326 -13.186243660847445 $327 -8.6775835681629019 $202 $328 forward 7 unknown #
loop $-1 $-1 $209 $126 #
plane-surface $-1 -7.6266016139114328 -11.154186814461731 87.791365282569757 0.81915205242281985 0 0.57357642473473569 0.57357642473473569 0 -0.81915205242281985 forward_v I I I I #
loop $-1 $-1 $329 $81 #
coedge $-1 $207 $207 $208 $330 reversed $127 $-1 #
coedge $-1 $208 $208 $207 $330 forward $129 $-1 #
coedge $-1 $209 $209 $130 $210 forward $204 $-1 #
edge $-1 $331 0 $331 6.2831853071796004 $209 $332 forward 7 unknown #
loop $-1 $-1 $216 $131 #
plane-surface $-1 -7.6266016139114328 -11.154186814461731 87.791365282569757 0.81915205242281985 0 0.57357642473473569 0.57357642473473569 0 -0.81915205242281985 forward_v I I I I #
loop $-1 $-1 $333 $84 #
coedge $-1 $214 $214 $215 $334 reversed $132 $-1 #
coedge $-1 $215 $215 $214 $334 forward $134 $-1 #
coedge $-1 $216 $216 $135 $217 forward $211 $-1 #
edge $-1 $335 0 $335 6.2831853071796004 $216 $336 forward 7 unknown #
face $-1 $337 $338 $45 $-1 $339 reversed single #
loop $-1 $-1 $340 $136 #
plane-surface $-1 77.283019743340049 10.811383288608269 147.24572042899862 0 1 0 0.81915205242281985 0 0.57357642473473569 forward_v I I I I #
coedge $-1 $341 $342 $343 $344 reversed $137 $-1 #
coedge $-1 $223 $139 $345 $346 reversed $88 $-1 #
coedge $-1 $139 $222 $341 $347 reversed $88 $-1 #
coedge $-1 $343 $348 $139 $225 forward $349 $-1 #
edge $-1 $350 -13.186243660847445 $351 -8.6775835681629019 $224 $352 forward 7 unknown #
loop $-1 $-1 $231 $140 #
plane-surface $-1 -7.6266016139114328 13.968801790766516 87.791365282569757 0.81915205242281985 0 0.57357642473473569 0.57357642473473569 0 -0.81915205242281985 forward_v I I I I #
loop $-1 $-1 $353 $90 #
coedge $-1 $229 $229 $230 $354 reversed $141 $-1 #
coedge $-1 $230 $230 $229 $354 forward $143 $-1 #
coedge $-1 $231 $231 $144 $232 forward $226 $-1 #
edge $-1 $355 0 $355 6.2831853071796004 $231 $356 forward 7 unknown #
loop $-1 $-1 $238 $145 #
plane-surface $-1 -7.6266016139114328 13.968801790766516 87.791365282569757 0.81915205242281985 0 0.57357642473473569 0.57357642473473569 0 -0.81915205242281985 forward_v I I I I #
loop $-1 $-1 $357 $93 #
coedge $-1 $236 $236 $237 $358 reversed $146 $-1 #
coedge $-1 $237 $237 $236 $358 forward $148 $-1 #
coedge $-1 $238 $238 $149 $239 forward $233 $-1 #
edge $-1 $359 0 $359 6.2831853071796004 $238 $360 forward 7 unknown #
face $-1 $361 $362 $36 $-1 $363 reversed single #
loop $-1 $-1 $364 $150 #
plane-surface $-1 -51.82775353251747 0 0 1 0 0 0 0 -1 forward_v I I I I #
coedge $-1 $156 $365 $366 $367 forward $151 $-1 #
coedge $-1 $368 $153 $369 $370 forward $97 $-1 #
coedge $-1 $153 $368 $248 $371 forward $97 $-1 #
coedge $-1 $249 $372 $153 $247 reversed $373 $-1 #
edge $-1 $374 -24.092542552180735 $375 24.092542552180735 $246 $376 forward 7 unknown #
coedge $-1 $155 $154 $245 $371 reversed $61 $-1 #
coedge $-1 $366 $246 $154 $250 forward $373 $-1 #
edge $-1 $374 -9.32077804410625 $254 9.32077804410625 $249 $377 forward 7 unknown #
coedge $-1 $378 $379 $155 $252 reversed $241 $-1 #
edge $-1 $380 -9.32077804410625 $255 9.32077804410625 $251 $381 forward 7 unknown #
coedge $-1 $365 $156 $379 $382 forward $151 $-1 #
vertex $-1 $250 $383 #
vertex $-1 $382 $384 #
straight-curve $-1 0 -24.092542552180735 -9.32077804410625 -1 0 0 I I #
face $-1 $385 $269 $37 $-1 $386 reversed single #
loop $-1 $-1 $387 $158 #
plane-surface $-1 -49.381287528051516 -33.873479787741488 0 0 1 0 0 0 1 forward_v I I I I #
coedge $-1 $388 $389 $264 $390 forward $159 $-1 #
coedge $-1 $391 $161 $389 $392 forward $101 $-1 #
coedge $-1 $161 $391 $267 $393 forward $101 $-1 #
edge $-1 $270 46.934821523585569 $394 51.82775353251747 $161 $395 forward 7 unknown #
coedge $-1 $163 $162 $260 $390 reversed $64 $-1 #
coedge $-1 $396 $397 $162 $266 forward $398 $-1 #
edge $-1 $399 -51.82775353251747 $271 -46.934821523585569 $265 $400 forward 7 unknown #
coedge $-1 $401 $164 $262 $393 reversed $269 $-1 #
coedge $-1 $164 $401 $396 $402 reversed $269 $-1 #
loop $-1 $-1 $401 $257 #
vertex $-1 $263 $403 #
vertex $-1 $402 $404 #
straight-curve $-1 -46.934821523585569 -24.092542552180735 0 0 0 -1 I I #
face $-1 $405 $406 $38 $-1 $407 forward single #
loop $-1 $-1 $172 $166 #
plane-surface $-1 -51.82775353251747 0 0 1 0 0 0 0 -1 forward_v I I I I #
coedge $-1 $281 $408 $277 $409 forward $167 $-1 #
coedge $-1 $410 $169 $276 $409 reversed $105 $-1 #
coedge $-1 $169 $410 $411 $412 reversed $105 $-1 #
coedge $-1 $171 $170 $169 $280 reversed $67 $-1 #
edge $-1 $413 -9.32077804410625 $414 9.32077804410625 $169 $415 forward 7 unknown #
coedge $-1 $416 $276 $170 $282 forward $167 $-1 #
edge $-1 $414 23.022706078567175 $287 26.877600328822588 $281 $417 forward 7 unknown #
coedge $-1 $411 $418 $171 $284 forward $406 $-1 #
edge $-1 $288 -26.877600328822588 $413 -23.022706078567175 $283 $419 forward 7 unknown #
coedge $-1 $420 $172 $418 $421 reversed $274 $-1 #
coedge $-1 $172 $420 $416 $422 reversed $274 $-1 #
vertex $-1 $422 $423 #
vertex $-1 $173 $424 #
straight-curve $-1 -51.82775353251747 17.126220292924771 0 0 0 1 I I #
face $-1 $-1 $425 $39 $-1 $426 reversed single #
loop $-1 $-1 $180 $174 #
plane-surface $-1 0 0 9.32077804410625 0 0 1 1 0 0 forward_v I I I I #
coedge $-1 $427 $428 $429 $430 reversed $175 $-1 #
coedge $-1 $431 $177 $179 $300 forward $109 $-1 #
coedge $-1 $177 $431 $427 $432 forward $109 $-1 #
coedge $-1 $429 $180 $177 $297 forward $291 $-1 #
edge $-1 $303 -8.7315411211424419 $433 -2.4285872698126312 $296 $434 forward 7 unknown #
coedge $-1 $435 $436 $178 $299 forward $425 $-1 #
edge $-1 $437 -33.691594609543806 $302 -26.346698687871111 $298 $438 forward 7 unknown #
edge $-1 $303 -9.8835322376185122 $437 1.0694865687384493e-014 $179 $439 forward 7 unknown #
coedge $-1 $180 $429 $435 $440 forward $291 $-1 #
vertex $-1 $181 $441 #
vertex $-1 $181 $442 #
straight-curve $-1 -64.429404049262672 -14.311605316619978 9.3207780441062482 1 0 0 I I #
coedge $-1 $305 $305 $-1 $443 reversed $184 $-1 #
edge $-1 $444 0 $444 6.2831853071796004 $185 $445 forward 7 unknown #
vertex $-1 $188 $446 #
ellipse-curve $-1 -48.521066618405385 -12.510761359097176 5.6483300832699008 -0.74314483375859142 0 0.66913059716165679 0.3345652985808284 0 0.37157241687929571 1 I I #
coedge $-1 $309 $309 $-1 $447 reversed $191 $-1 #
edge $-1 $448 0 $448 6.2831853071796004 $192 $449 forward 7 unknown #
vertex $-1 $195 $450 #
ellipse-curve $-1 -48.521066618405385 -9.8094954228129723 5.6483300832699008 -0.74314483375859142 0 0.66913059716165679 0.3345652985808284 0 0.37157241687929571 1 I I #
face $-1 $-1 $325 $42 $-1 $451 forward single #
loop $-1 $-1 $452 $196 #
plane-surface $-1 51.82775353251747 0 0 -1 0 0 0 0 1 forward_v I I I I #
coedge $-1 $453 $454 $455 $456 reversed $197 $-1 #
coedge $-1 $457 $199 $201 $323 forward $123 $-1 #
coedge $-1 $199 $457 $453 $458 forward $123 $-1 #
coedge $-1 $455 $202 $199 $320 forward $325 $-1 #
edge $-1 $327 2.4196749050726183 $459 8.7345119093891128 $319 $460 forward 7 unknown #
coedge $-1 $461 $462 $200 $322 forward $314 $-1 #
edge $-1 $463 -70.741116289181065 $326 -64.302082170393064 $321 $464 forward 7 unknown #
edge $-1 $327 95.794897914703057 $463 103.655507065035 $201 $465 forward 7 unknown #
coedge $-1 $202 $455 $461 $466 forward $325 $-1 #
loop $-1 $-1 $455 $313 #
vertex $-1 $322 $467 #
vertex $-1 $203 $468 #
straight-curve $-1 38.641509871670024 -7.9967683123034838 9.3207780441062482 -1 0 0 I I #
coedge $-1 $329 $329 $-1 $469 reversed $206 $-1 #
edge $-1 $470 0 $470 6.2831853071796004 $207 $471 forward 7 unknown #
vertex $-1 $210 $472 #
ellipse-curve $-1 49.573423486175187 -12.507366172529551 6.1012609847122592 0.81915205242281985 0 0.57357642473473569 0.14339410618368392 0 -0.20478801310570496 1 I I #
coedge $-1 $333 $333 $-1 $473 reversed $213 $-1 #
edge $-1 $474 0 $474 6.2831853071796004 $214 $475 forward 7 unknown #
vertex $-1 $217 $476 #
ellipse-curve $-1 49.573423486175187 -9.8010074563939114 6.1012609847122592 0.81915205242281985 0 0.57357642473473569 0.14339410618368392 0 -0.20478801310570496 1 I I #
face $-1 $-1 $349 $45 $-1 $477 forward single #
loop $-1 $-1 $478 $218 #
plane-surface $-1 51.82775353251747 0 0 -1 0 0 0 0 1 forward_v I I I I #
coedge $-1 $479 $480 $481 $482 reversed $219 $-1 #
coedge $-1 $483 $221 $223 $347 forward $137 $-1 #
coedge $-1 $221 $483 $479 $484 forward $137 $-1 #
coedge $-1 $481 $224 $221 $344 forward $349 $-1 #
edge $-1 $351 -10.141819397541505 $485 -3.8269823932250109 $343 $486 forward 7 unknown #
coedge $-1 $487 $488 $222 $346 forward $338 $-1 #
edge $-1 $489 -70.741116289181065 $350 -64.302082170393064 $345 $490 forward 7 unknown #
edge $-1 $351 95.794897914703057 $489 103.655507065035 $223 $491 forward 7 unknown #
coedge $-1 $224 $481 $487 $492 forward $349 $-1 #
loop $-1 $-1 $481 $337 #
vertex $-1 $346 $493 #
vertex $-1 $225 $494 #
straight-curve $-1 38.641509871670024 17.126220292924764 9.3207780441062482 -1 0 0 I I #
coedge $-1 $353 $353 $-1 $495 reversed $228 $-1 #
edge $-1 $496 0 $496 6.2831853071796004 $229 $497 forward 7 unknown #
vertex $-1 $232 $498 #
ellipse-curve $-1 49.573423486175187 12.615622432698697 6.1012609847122592 0.81915205242281985 0 0.57357642473473569 0.14339410618368392 0 -0.20478801310570496 1 I I #
coedge $-1 $357 $357 $-1 $499 reversed $235 $-1 #
edge $-1 $500 0 $500 6.2831853071796004 $236 $501 forward 7 unknown #
vertex $-1 $239 $502 #
ellipse-curve $-1 49.573423486175187 15.321981148834336 6.1012609847122592 0.81915205242281985 0 0.57357642473473569 0.14339410618368392 0 -0.20478801310570496 1 I I #
face $-1 $-1 $373 $36 $-1 $503 reversed single #
loop $-1 $-1 $504 $240 #
plane-surface $-1 0 24.092542552180735 0 0 -1 0 0 0 -1 forward_v I I I I #
coedge $-1 $379 $378 $505 $506 forward $241 $-1 #
coedge $-1 $243 $253 $507 $508 forward $151 $-1 #
coedge $-1 $372 $249 $243 $367 reversed $373 $-1 #
edge $-1 $509 -24.092542552180735 $254 24.092542552180735 $366 $510 forward 7 unknown #
coedge $-1 $245 $244 $378 $511 forward $97 $-1 #
coedge $-1 $504 $505 $244 $370 reversed $362 $-1 #
edge $-1 $375 -51.82775353251747 $512 51.82775353251747 $369 $513 forward 7 unknown #
edge $-1 $380 -51.82775353251747 $374 51.82775353251747 $248 $514 forward 7 unknown #
coedge $-1 $246 $366 $504 $515 reversed $373 $-1 #
loop $-1 $-1 $249 $361 #
vertex $-1 $247 $516 #
vertex $-1 $247 $517 #
straight-curve $-1 51.82775353251747 0 9.32077804410625 0 1 0 I I #
straight-curve $-1 51.82775353251747 -24.092542552180735 0 0 0 -1 I I #
coedge $-1 $364 $251 $368 $511 reversed $241 $-1 #
coedge $-1 $251 $364 $253 $382 reversed $241 $-1 #
vertex $-1 $511 $518 #
straight-curve $-1 -51.82775353251747 -24.092542552180735 0 0 0 -1 I I #
edge $-1 $255 -24.092542552180735 $519 24.092542552180735 $379 $520 forward 7 unknown #
point $-1 51.82775353251747 -24.092542552180735 -9.32077804410625 #
point $-1 -51.82775353251747 -24.092542552180735 -9.32077804410625 #
face $-1 $-1 $398 $37 $-1 $521 reversed single #
plane-surface $-1 -46.934821523585569 -28.983011169961113 0 -1 0 0 0 0 1 forward_v I I I I #
coedge $-1 $522 $523 $524 $525 forward $258 $-1 #
coedge $-1 $524 $260 $397 $526 reversed $159 $-1 #
coedge $-1 $260 $524 $261 $392 reversed $159 $-1 #
edge $-1 $394 -9.32077804410625 $399 9.32077804410625 $260 $527 forward 7 unknown #
coedge $-1 $262 $261 $523 $528 forward $101 $-1 #
edge $-1 $394 24.092542552180735 $529 33.873479787741488 $389 $530 forward 7 unknown #
edge $-1 $531 -4.8904686177803747 $270 4.8904686177803782 $267 $532 forward 7 unknown #
vertex $-1 $392 $533 #
straight-curve $-1 0 -24.092542552180735 9.32077804410625 -1 0 0 I I #
coedge $-1 $534 $265 $268 $402 forward $398 $-1 #
coedge $-1 $265 $534 $388 $526 forward $398 $-1 #
loop $-1 $-1 $265 $385 #
vertex $-1 $390 $535 #
straight-curve $-1 0 -24.092542552180735 -9.32077804410625 1 0 0 I I #
coedge $-1 $268 $267 $536 $537 forward $269 $-1 #
edge $-1 $271 -4.8904686177803782 $538 4.8904686177803747 $268 $539 forward 7 unknown #
point $-1 -46.934821523585569 -24.092542552180735 9.32077804410625 #
point $-1 -46.934821523585569 -24.092542552180735 -9.32077804410625 #
face $-1 $-1 $540 $38 $-1 $541 reversed single #
loop $-1 $-1 $411 $273 #
plane-surface $-1 0 0 9.32077804410625 0 0 1 1 0 0 forward_v I I I I #
coedge $-1 $276 $416 $542 $543 forward $167 $-1 #
edge $-1 $544 -13.787851840904361 $414 -6.8215295816483934 $276 $545 forward 7 unknown #
coedge $-1 $278 $277 $546 $547 reversed $105 $-1 #
coedge $-1 $548 $283 $278 $412 forward $406 $-1 #
edge $-1 $413 6.8215295816483934 $549 13.787851840904361 $411 $550 forward 7 unknown #
vertex $-1 $284 $551 #
vertex $-1 $282 $552 #
straight-curve $-1 -47.972859282262057 17.126220292924771 0 0 0 -1 I I #
coedge $-1 $408 $281 $286 $422 forward $167 $-1 #
straight-curve $-1 -24.950153203694882 17.126220292924771 -9.32077804410625 -1 0 0 I I #
coedge $-1 $283 $548 $285 $421 forward $406 $-1 #
straight-curve $-1 -24.950153203694882 17.126220292924771 9.32077804410625 1 0 0 I I #
coedge $-1 $286 $285 $553 $554 forward $274 $-1 #
edge $-1 $555 -24.092542552180735 $288 -17.126220292924771 $285 $556 forward 7 unknown #
edge $-1 $287 17.126220292924771 $557 24.092542552180735 $286 $558 forward 7 unknown #
point $-1 -51.82775353251747 17.126220292924771 -9.32077804410625 #
point $-1 -51.82775353251747 17.126220292924771 9.32077804410625 #
loop $-1 $-1 $298 $290 #
plane-surface $-1 -51.82775353251747 0 0 1 0 0 0 0 -1 forward_v I I I I #
coedge $-1 $428 $293 $295 $432 reversed $175 $-1 #
coedge $-1 $293 $427 $559 $560 reversed $175 $-1 #
coedge $-1 $301 $296 $293 $430 forward $291 $-1 #
edge $-1 $433 -19.215024344969372 $561 -12.601650516745202 $429 $562 forward 7 unknown #
coedge $-1 $295 $294 $436 $563 reversed $109 $-1 #
edge $-1 $564 -1.0694865687384493e-014 $433 9.8835322376185122 $427 $565 forward 7 unknown #
vertex $-1 $297 $566 #
straight-curve $-1 -45.214379704293293 -5.5800641954775365 9.3207780441062482 0 1 0 I I #
coedge $-1 $559 $298 $301 $440 reversed $425 $-1 #
coedge $-1 $298 $559 $431 $563 forward $425 $-1 #
vertex $-1 $299 $567 #
straight-curve $-1 -51.82775353251747 -14.311605316619978 35.667476731977359 0 0 1 I I #
straight-curve $-1 -51.827753532517463 -14.311605316619978 1.9758821224335605 -0.66913059716165679 0 -0.74314483375859142 I I #
edge $-1 $561 8.0086514652901677 $302 14.311605316619978 $435 $568 forward 7 unknown #
point $-1 -51.82775353251747 -14.311605316619978 9.32077804410625 #
point $-1 -45.2143797042933 -14.311605316619978 9.32077804410625 #
edge $-1 $569 1 $569 0 $305 $-1 forward 7 unknown #
vertex $-1 $306 $570 #
ellipse-curve $-1 -47.099175881381001 -12.510761359097176 4.3680539449676008 -0.74314483375859142 0 0.66913059716165679 0.3345652985808284 0 0.37157241687929571 1 I I #
point $-1 -48.186501319824558 -12.510761359097176 6.0199025001491968 #
edge $-1 $571 1 $571 0 $309 $-1 forward 7 unknown #
vertex $-1 $310 $572 #
ellipse-curve $-1 -47.099175881381001 -9.8094954228129723 4.3680539449676008 -0.74314483375859142 0 0.66913059716165679 0.3345652985808284 0 0.37157241687929571 1 I I #
point $-1 -48.186501319824558 -9.8094954228129723 6.0199025001491968 #
plane-surface $-1 0 0 9.32077804410625 0 0 1 1 0 0 forward_v I I I I #
coedge $-1 $462 $461 $454 $573 forward $314 $-1 #
coedge $-1 $454 $316 $318 $458 reversed $197 $-1 #
coedge $-1 $316 $453 $452 $573 reversed $197 $-1 #
coedge $-1 $324 $319 $316 $456 forward $325 $-1 #
edge $-1 $459 8.6775835681629019 $574 13.186243660847445 $455 $575 forward 7 unknown #
coedge $-1 $318 $317 $462 $576 reversed $123 $-1 #
edge $-1 $577 -103.655507065035 $459 -95.794897914703057 $453 $578 forward 7 unknown #
vertex $-1 $320 $579 #
straight-curve $-1 47.319093439832926 -5.5770934072308656 9.3207780441062482 0 -1 0 I I #
coedge $-1 $452 $321 $324 $466 reversed $314 $-1 #
coedge $-1 $321 $452 $457 $576 forward $314 $-1 #
vertex $-1 $322 $580 #
straight-curve $-1 51.82775353251747 -7.9967683123034838 73.622860214499312 0 0 1 I I #
straight-curve $-1 -7.6266016139114328 -7.9967683123034838 87.791365282569757 0.57357642473473569 0 -0.81915205242281985 I I #
edge $-1 $574 -14.311605316619978 $326 -7.9967683123034838 $461 $581 forward 7 unknown #
point $-1 51.82775353251747 -7.9967683123034838 9.32077804410625 #
point $-1 47.319093439832926 -7.9967683123034838 9.3207780441062482 #
edge $-1 $582 1 $582 0 $329 $-1 forward 7 unknown #
vertex $-1 $330 $583 #
ellipse-curve $-1 48.754271433752379 -12.507366172529551 5.5276845599775317 0.81915205242281985 0 0.57357642473473569 0.14339410618368392 0 -0.20478801310570496 1 I I #
point $-1 49.716817592358886 -12.507366172529551 5.8964729716065616 #
edge $-1 $584 1 $584 0 $333 $-1 forward 7 unknown #
vertex $-1 $334 $585 #
ellipse-curve $-1 48.754271433752379 -9.8010074563939114 5.5276845599775317 0.81915205242281985 0 0.57357642473473569 0.14339410618368392 0 -0.20478801310570496 1 I I #
point $-1 49.716817592358886 -9.8010074563939114 5.8964729716065616 #
plane-surface $-1 0 0 9.32077804410625 0 0 1 1 0 0 forward_v I I I I #
coedge $-1 $488 $487 $480 $586 forward $338 $-1 #
coedge $-1 $480 $340 $342 $484 reversed $219 $-1 #
coedge $-1 $340 $479 $478 $586 reversed $219 $-1 #
coedge $-1 $348 $343 $340 $482 forward $349 $-1 #
edge $-1 $485 8.6775835681629019 $587 13.186243660847445 $481 $588 forward 7 unknown #
coedge $-1 $342 $341 $488 $589 reversed $137 $-1 #
edge $-1 $590 -103.655507065035 $485 -95.794897914703057 $479 $591 forward 7 unknown #
vertex $-1 $344 $592 #
straight-curve $-1 47.319093439832926 6.9844008953832581 9.3207780441062482 0 -1 0 I I #
coedge $-1 $478 $345 $348 $492 reversed $338 $-1 #
coedge $-1 $345 $478 $483 $589 forward $338 $-1 #
vertex $-1 $346 $593 #
straight-curve $-1 51.82775353251747 17.126220292924764 73.622860214499312 0 0 1 I I #
straight-curve $-1 -7.6266016139114328 17.126220292924764 87.791365282569757 0.57357642473473569 0 -0.81915205242281985 I I #
edge $-1 $587 10.811383288608269 $350 17.126220292924764 $487 $594 forward 7 unknown #
point $-1 51.82775353251747 17.126220292924764 9.32077804410625 #
point $-1 47.319093439832926 17.126220292924764 9.3207780441062482 #
edge $-1 $595 1 $595 0 $353 $-1 forward 7 unknown #
vertex $-1 $354 $596 #
ellipse-curve $-1 48.754271433752379 12.615622432698697 5.5276845599775317 0.81915205242281985 0 0.57357642473473569 0.14339410618368392 0 -0.20478801310570496 1 I I #
point $-1 49.716817592358886 12.615622432698697 5.8964729716065616 #
edge $-1 $597 1 $597 0 $357 $-1 forward 7 unknown #
vertex $-1 $358 $598 #
ellipse-curve $-1 48.754271433752379 15.321981148834336 5.5276845599775317 0.81915205242281985 0 0.57357642473473569 0.14339410618368392 0 -0.20478801310570496 1 I I #
point $-1 49.716817592358886 15.321981148834336 5.8964729716065616 #
plane-surface $-1 51.82775353251747 0 0 -1 0 0 0 0 1 forward_v I I I I #
coedge $-1 $507 $369 $372 $515 forward $362 $-1 #
coedge $-1 $369 $507 $364 $506 reversed $362 $-1 #
edge $-1 $512 -9.32077804410625 $519 9.32077804410625 $505 $599 forward 7 unknown #
coedge $-1 $505 $504 $365 $508 reversed $362 $-1 #
edge $-1 $519 -51.82775353251747 $509 51.82775353251747 $507 $600 forward 7 unknown #
vertex $-1 $367 $601 #
straight-curve $-1 51.82775353251747 0 -9.32077804410625 0 -1 0 I I #
edge $-1 $512 -24.092542552180735 $380 24.092542552180735 $378 $602 forward 7 unknown #
vertex $-1 $370 $603 #
straight-curve $-1 0 24.092542552180735 9.32077804410625 -1 0 0 I I #
straight-curve $-1 0 -24.092542552180735 9.32077804410625 1 0 0 I I #
edge $-1 $375 -9.32077804410625 $509 9.32077804410625 $372 $604 forward 7 unknown #
point $-1 51.82775353251747 -24.092542552180735 9.32077804410625 #
point $-1 51.82775353251747 24.092542552180735 9.32077804410625 #
point $-1 -51.82775353251747 -24.092542552180735 9.32077804410625 #
vertex $-1 $508 $605 #
straight-curve $-1 -51.82775353251747 0 -9.32077804410625 0 1 0 I I #
plane-surface $-1 0 0 -9.32077804410625 0 0 1 1 0 0 forward_v I I I I #
coedge $-1 $536 $387 $534 $606 reversed $258 $-1 #
coedge $-1 $387 $536 $391 $528 reversed $258 $-1 #
coedge $-1 $389 $388 $387 $525 reversed $159 $-1 #
edge $-1 $529 -9.32077804410625 $607 9.32077804410625 $524 $608 forward 7 unknown #
edge $-1 $607 -33.873479787741488 $399 -24.092542552180735 $388 $609 forward 7 unknown #
straight-curve $-1 -51.82775353251747 -24.092542552180735 0 0 0 -1 I I #
edge $-1 $529 -2.4464660044659468 $531 2.4464660044659468 $523 $610 forward 7 unknown #
vertex $-1 $392 $611 #
straight-curve $-1 -51.82775353251747 0 9.32077804410625 0 -1 0 I I #
vertex $-1 $393 $612 #
straight-curve $-1 -46.934821523585569 -28.983011169961113 9.32077804410625 0 1 0 I I #
point $-1 -51.82775353251747 -24.092542552180735 9.32077804410625 #
coedge $-1 $397 $396 $522 $606 forward $398 $-1 #
point $-1 -51.82775353251747 -24.092542552180735 -9.32077804410625 #
coedge $-1 $523 $522 $401 $537 reversed $258 $-1 #
edge $-1 $531 -9.32077804410625 $538 9.32077804410625 $401 $613 forward 7 unknown #
vertex $-1 $537 $614 #
straight-curve $-1 -46.934821523585569 -28.983011169961113 -9.32077804410625 0 -1 0 I I #
loop $-1 $-1 $546 $405 #
plane-surface $-1 0 24.092542552180735 0 0 -1 0 0 0 -1 forward_v I I I I #
coedge $-1 $553 $546 $408 $543 reversed $540 $-1 #
edge $-1 $557 -51.82775353251747 $544 -47.972859282262057 $542 $615 forward 7 unknown #
vertex $-1 $409 $616 #
straight-curve $-1 -47.972859282262057 10.304690711276377 -9.32077804410625 0 -1 0 I I #
coedge $-1 $542 $617 $410 $547 forward $540 $-1 #
edge $-1 $549 -9.32077804410625 $544 9.32077804410625 $546 $618 forward 7 unknown #
coedge $-1 $418 $411 $617 $619 forward $406 $-1 #
vertex $-1 $619 $620 #
straight-curve $-1 -47.972859282262057 10.304690711276377 9.32077804410625 0 1 0 I I #
point $-1 -47.972859282262057 17.126220292924771 9.32077804410625 #
point $-1 -47.972859282262057 17.126220292924771 -9.32077804410625 #
coedge $-1 $617 $542 $420 $554 reversed $540 $-1 #
edge $-1 $555 -9.32077804410625 $557 9.32077804410625 $553 $621 forward 7 unknown #
vertex $-1 $619 $622 #
straight-curve $-1 -51.82775353251747 0 9.32077804410625 0 -1 0 I I #
vertex $-1 $543 $623 #
straight-curve $-1 -51.82775353251747 0 -9.32077804410625 0 1 0 I I #
coedge $-1 $436 $435 $428 $560 forward $425 $-1 #
edge $-1 $561 26.346698687871111 $564 33.691594609543806 $559 $624 forward 7 unknown #
vertex $-1 $440 $625 #
straight-curve $-1 -64.429404049262672 -8.0086514652901677 9.3207780441062482 -1 0 0 I I #
edge $-1 $564 2.4285872698126312 $437 8.7315411211424419 $436 $626 forward 7 unknown #
vertex $-1 $563 $627 #
straight-curve $-1 -51.827753532517463 -8.0086514652901677 1.9758821224335605 0.66913059716165679 0 0.74314483375859142 I I #
point $-1 -45.2143797042933 -8.0086514652901677 9.32077804410625 #
point $-1 -51.82775353251747 -14.311605316619978 1.9758821224335525 #
straight-curve $-1 -51.82775353251747 0 9.32077804410625 0 -1 0 I I #
vertex $-1 $443 $628 #
point $-1 -46.764610582800174 -12.510761359097176 4.7396263618468968 #
vertex $-1 $447 $629 #
point $-1 -46.764610582800174 -9.8094954228129723 4.7396263618468968 #
edge $-1 $574 64.302082170393064 $577 70.741116289181065 $452 $630 forward 7 unknown #
vertex $-1 $466 $631 #
straight-curve $-1 38.641509871670024 -14.311605316619978 9.3207780441062482 1 0 0 I I #
edge $-1 $577 -8.7345119093891128 $463 -2.4196749050726183 $462 $632 forward 7 unknown #
vertex $-1 $576 $633 #
straight-curve $-1 -7.6266016139114328 -14.311605316619978 87.791365282569757 -0.57357642473473569 0 0.81915205242281985 I I #
point $-1 47.319093439832926 -14.311605316619978 9.3207780441062482 #
point $-1 51.82775353251747 -7.9967683123034838 2.8817439253182471 #
straight-curve $-1 51.82775353251747 0 9.32077804410625 0 1 0 I I #
vertex $-1 $469 $634 #
point $-1 48.897665539936064 -12.507366172529551 5.3228965468718261 #
vertex $-1 $473 $635 #
point $-1 48.897665539936064 -9.8010074563939114 5.3228965468718261 #
edge $-1 $587 64.302082170393064 $590 70.741116289181065 $478 $636 forward 7 unknown #
vertex $-1 $492 $637 #
straight-curve $-1 38.641509871670024 10.811383288608269 9.3207780441062482 1 0 0 I I #
edge $-1 $590 3.8269823932250109 $489 10.141819397541505 $488 $638 forward 7 unknown #
vertex $-1 $589 $639 #
straight-curve $-1 -7.6266016139114328 10.811383288608269 87.791365282569757 -0.57357642473473569 0 0.81915205242281985 I I #
point $-1 47.319093439832926 10.811383288608269 9.3207780441062482 #
point $-1 51.82775353251747 17.126220292924764 2.8817439253182471 #
straight-curve $-1 51.82775353251747 0 9.32077804410625 0 1 0 I I #
vertex $-1 $495 $640 #
point $-1 48.897665539936064 12.615622432698697 5.3228965468718261 #
vertex $-1 $499 $641 #
point $-1 48.897665539936064 15.321981148834336 5.3228965468718261 #
straight-curve $-1 -51.82775353251747 24.092542552180735 0 0 0 -1 I I #
straight-curve $-1 0 24.092542552180735 -9.32077804410625 1 0 0 I I #
point $-1 51.82775353251747 24.092542552180735 -9.32077804410625 #
straight-curve $-1 -51.82775353251747 0 9.32077804410625 0 -1 0 I I #
point $-1 -51.82775353251747 24.092542552180735 9.32077804410625 #
straight-curve $-1 51.82775353251747 24.092542552180735 0 0 0 -1 I I #
point $-1 -51.82775353251747 24.092542552180735 -9.32077804410625 #
edge $-1 $538 -2.4464660044659468 $607 2.4464660044659468 $522 $642 forward 7 unknown #
vertex $-1 $526 $643 #
straight-curve $-1 -51.827753532517463 -33.873479787741488 0 0 0 -1 I I #
straight-curve $-1 -51.82775353251747 0 -9.32077804410625 0 1 0 I I #
straight-curve $-1 -49.381287528051516 -33.873479787741488 9.32077804410625 1 0 0 I I #
point $-1 -51.827753532517463 -33.873479787741488 9.32077804410625 #
point $-1 -46.934821523585569 -33.873479787741488 9.32077804410625 #
straight-curve $-1 -46.934821523585569 -33.873479787741488 0 0 0 -1 I I #
point $-1 -46.934821523585569 -33.873479787741488 -9.32077804410625 #
straight-curve $-1 0 24.092542552180735 -9.32077804410625 1 0 0 I I #
point $-1 -47.972859282262057 24.092542552180738 -9.32077804410625 #
coedge $-1 $546 $553 $548 $619 reversed $540 $-1 #
straight-curve $-1 -47.972859282262057 24.092542552180735 0 0 0 -1 I I #
edge $-1 $549 47.972859282262057 $555 51.82775353251747 $617 $644 forward 7 unknown #
point $-1 -47.972859282262057 24.092542552180738 9.32077804410625 #
straight-curve $-1 -51.82775353251747 24.092542552180735 0 0 0 -1 I I #
point $-1 -51.82775353251747 24.092542552180735 9.32077804410625 #
point $-1 -51.82775353251747 24.092542552180735 -9.32077804410625 #
straight-curve $-1 -51.82775353251747 -8.0086514652901677 35.667476731977359 0 0 -1 I I #
point $-1 -51.82775353251747 -8.0086514652901677 9.32077804410625 #
straight-curve $-1 -51.82775353251747 -5.5800641954775365 1.9758821224335481 0 -1 0 I I #
point $-1 -51.82775353251747 -8.0086514652901677 1.9758821224335525 #
point $-1 -46.727603464501712 -12.510761359097176 4.0334886463867736 #
point $-1 -46.727603464501712 -9.8094954228129723 4.0334886463867736 #
straight-curve $-1 51.82775353251747 -14.311605316619978 73.622860214499312 0 0 -1 I I #
point $-1 51.82775353251747 -14.311605316619978 9.32077804410625 #
straight-curve $-1 51.827753532517477 -5.5770934072308656 2.8817439253182329 0 1 0 I I #
point $-1 51.82775353251747 -14.311605316619978 2.8817439253182471 #
point $-1 48.549483420646681 -12.507366172529551 5.384290453793847 #
point $-1 48.549483420646681 -9.8010074563939114 5.384290453793847 #
straight-curve $-1 51.82775353251747 10.811383288608269 73.622860214499312 0 0 -1 I I #
point $-1 51.82775353251747 10.811383288608269 9.32077804410625 #
straight-curve $-1 51.827753532517477 6.9844008953832581 2.8817439253182329 0 1 0 I I #
point $-1 51.82775353251747 10.811383288608269 2.8817439253182471 #
point $-1 48.549483420646681 12.615622432698697 5.384290453793847 #
point $-1 48.549483420646681 15.321981148834336 5.384290453793847 #
straight-curve $-1 -49.381287528051516 -33.873479787741488 -9.32077804410625 -1 0 0 I I #
point $-1 -51.827753532517463 -33.873479787741488 -9.32077804410625 #
straight-curve $-1 0 24.092542552180735 9.32077804410625 -1 0 0 I I #
End-of-ACIS-data 