500 0 11 0           
7 Unknown 11 ACIS 5.0 NT 24 Thu Mar 25 17:02:28 1999 
-1 9.9999999999999995e-007 1e-010 
body $-1 $11 $-1 $12 #
body $-1 $13 $-1 $14 #
body $-1 $15 $-1 $16 #
body $-1 $17 $-1 $18 #
body $-1 $19 $-1 $20 #
body $-1 $21 $-1 $22 #
body $-1 $23 $-1 $24 #
body $-1 $25 $-1 $26 #
body $-1 $27 $-1 $28 #
body $-1 $29 $-1 $30 #
body $-1 $31 $-1 $32 #
lump $-1 $-1 $33 $0 #
transform $-1 1 0 0 0 1 0 0 0 1 42.227851191747796 24.930502679658225 6.12736320933743 1 rotate no_reflect no_shear #
lump $-1 $-1 $34 $1 #
transform $-1 1 0 0 0 1 0 0 0 1 42.227851191747796 24.930502679658225 6.12736320933743 1 rotate no_reflect no_shear #
lump $-1 $-1 $35 $2 #
transform $-1 1 0 0 0 1 0 0 0 1 42.227851191747796 24.930502679658225 6.12736320933743 1 rotate no_reflect no_shear #
lump $-1 $-1 $36 $3 #
transform $-1 1 0 0 0 1 0 0 0 1 42.227851191747796 24.930502679658225 6.12736320933743 1 rotate no_reflect no_shear #
lump $-1 $-1 $37 $4 #
transform $-1 1 0 0 0 1 0 0 0 1 42.227851191747796 24.930502679658225 6.12736320933743 1 rotate no_reflect no_shear #
lump $-1 $-1 $38 $5 #
transform $-1 1 0 0 0 1 0 0 0 1 42.227851191747796 24.930502679658225 6.12736320933743 1 rotate no_reflect no_shear #
lump $-1 $-1 $39 $6 #
transform $-1 1 0 0 0 1 0 0 0 1 42.227851191747796 24.930502679658225 6.12736320933743 1 rotate no_reflect no_shear #
lump $-1 $-1 $40 $7 #
transform $-1 1 0 0 0 1 0 0 0 1 42.227851191747796 24.930502679658225 6.12736320933743 1 rotate no_reflect no_shear #
lump $-1 $-1 $41 $8 #
transform $-1 1 0 0 0 1 0 0 0 1 42.227851191747796 24.930502679658225 6.12736320933743 1 rotate no_reflect no_shear #
lump $-1 $-1 $42 $9 #
transform $-1 1 0 0 0 1 0 0 0 1 42.227851191747796 24.930502679658225 6.12736320933743 1 rotate no_reflect no_shear #
lump $-1 $-1 $43 $10 #
transform $-1 1 0 0 0 1 0 0 0 1 42.227851191747796 24.930502679658225 6.12736320933743 1 rotate no_reflect no_shear #
shell $-1 $-1 $-1 $44 $-1 $11 #
shell $-1 $-1 $-1 $45 $-1 $13 #
shell $-1 $-1 $-1 $46 $-1 $15 #
shell $-1 $-1 $-1 $47 $-1 $17 #
shell $-1 $-1 $-1 $48 $-1 $19 #
shell $-1 $-1 $-1 $49 $-1 $21 #
shell $-1 $-1 $-1 $50 $-1 $23 #
shell $-1 $-1 $-1 $51 $-1 $25 #
shell $-1 $-1 $-1 $52 $-1 $27 #
shell $-1 $-1 $-1 $53 $-1 $29 #
shell $-1 $-1 $-1 $54 $-1 $31 #
face $-1 $55 $56 $33 $-1 $57 forward single #
face $-1 $58 $59 $34 $-1 $60 reversed single #
face $-1 $61 $62 $35 $-1 $63 reversed single #
face $-1 $64 $65 $36 $-1 $66 reversed single #
face $-1 $67 $68 $37 $-1 $69 forward single #
face $-1 $70 $71 $38 $-1 $72 reversed single #
face $-1 $73 $74 $39 $-1 $75 forward single #
face $-1 $76 $77 $40 $-1 $78 forward single #
face $-1 $79 $80 $41 $-1 $81 reversed single #
face $-1 $82 $83 $42 $-1 $84 forward single #
face $-1 $85 $86 $43 $-1 $87 forward single #
face $-1 $88 $89 $33 $-1 $90 reversed single #
loop $-1 $-1 $91 $44 #
plane-surface $-1 0 0 6.12736320933743 0 0 1 1 0 0 forward_v I I I I #
face $-1 $92 $93 $34 $-1 $94 reversed single #
loop $-1 $-1 $95 $45 #
plane-surface $-1 -39.918379238986802 0 2.7009241996638718 0 0 1 1 0 0 forward_v I I I I #
face $-1 $96 $97 $35 $-1 $98 reversed single #
loop $-1 $-1 $99 $46 #
plane-surface $-1 39.918379238986795 0 2.7009241996638718 0 0 1 1 0 0 forward_v I I I I #
face $-1 $100 $101 $36 $-1 $102 reversed single #
loop $-1 $-1 $103 $47 #
plane-surface $-1 31.704751604156851 -75.75721380836228 67.558890412937288 -1 0 0 0 -0.6018150307709319 0.79863550430605224 forward_v I I I I #
face $-1 $104 $105 $37 $-1 $106 forward single #
loop $-1 $107 $108 $48 #
cone-surface $-1 23.773790928565809 -20.205380308011936 2.1468293479164626 0 0.6018150307709319 -0.79863550430605224 2 0 0 1 I I 0 1 2 forward I I I I #
face $-1 $109 $110 $38 $-1 $111 reversed single #
loop $-1 $-1 $112 $49 #
plane-surface $-1 -26.420201127732753 67.065534094002913 89.971833780359361 1 0 0 0 -0.82903758062907751 -0.55919289150049634 forward_v I I I I #
face $-1 $113 $114 $39 $-1 $115 forward single #
loop $-1 $116 $117 $50 #
cone-surface $-1 -22.61056306125634 22.326676004274471 3.0849862586097183 0 -0.82903758062907751 -0.55919289150049634 1 0 0 1 I I 0 1 1 forward I I I I #
face $-1 $118 $119 $40 $-1 $120 forward single #
loop $-1 $121 $122 $51 #
cone-surface $-1 -16.896105961541725 22.326676004274471 3.0849862586097183 0 -0.82903758062907751 -0.55919289150049634 1 0 0 1 I I 0 1 1 forward I I I I #
face $-1 $123 $124 $41 $-1 $125 reversed single #
loop $-1 $-1 $126 $52 #
plane-surface $-1 13.086467895065327 67.065534094002913 89.971833780359361 1 0 0 0 -0.82903758062907751 -0.55919289150049634 forward_v I I I I #
face $-1 $127 $128 $42 $-1 $129 forward single #
loop $-1 $130 $131 $53 #
cone-surface $-1 16.896105961541743 22.326676004274471 3.0849862586097183 0 -0.82903758062907751 -0.55919289150049634 1 0 0 1 I I 0 1 1 forward I I I I #
face $-1 $132 $133 $43 $-1 $134 forward single #
loop $-1 $135 $136 $54 #
cone-surface $-1 22.61056306125635 22.326676004274471 3.0849862586097183 0 -0.82903758062907751 -0.55919289150049634 1 0 0 1 I I 0 1 1 forward I I I I #
face $-1 $137 $138 $33 $-1 $139 reversed single #
loop $-1 $-1 $140 $55 #
plane-surface $-1 0 0 -6.12736320933743 0 0 1 1 0 0 forward_v I I I I #
coedge $-1 $141 $142 $143 $144 forward $56 $-1 #
face $-1 $145 $146 $34 $-1 $147 reversed single #
loop $-1 $-1 $148 $58 #
plane-surface $-1 -37.608907286225808 0 4.4141437045006509 -1 0 0 0 0 1 forward_v I I I I #
coedge $-1 $149 $150 $151 $152 forward $59 $-1 #
face $-1 $153 $154 $35 $-1 $155 forward single #
loop $-1 $-1 $156 $61 #
plane-surface $-1 37.608907286225801 0 4.4141437045006509 1 0 0 0 0 -1 forward_v I I I I #
coedge $-1 $157 $158 $159 $160 reversed $62 $-1 #
face $-1 $161 $162 $36 $-1 $163 reversed single #
loop $-1 $-1 $164 $64 #
plane-surface $-1 23.773790928565809 -24.930502679658211 0.10956794837242967 0 -0.6018150307709319 0.79863550430605224 1 0 0 forward_v I I I I #
coedge $-1 $165 $166 $167 $168 reversed $65 $-1 #
face $-1 $-1 $169 $37 $-1 $170 forward single #
loop $-1 $171 $172 $67 #
cone-surface $-1 23.773790928565809 -18.871384845657911 0.37655761267194254 0 0.6018150307709319 -0.79863550430605224 1 0 0 1 I I -0.70710678118654746 0.70710678118654746 1 forward I I I I #
loop $-1 $-1 $173 $48 #
coedge $-1 $108 $108 $174 $175 reversed $68 $-1 #
face $-1 $176 $177 $38 $-1 $178 reversed single #
loop $-1 $-1 $179 $70 #
plane-surface $-1 -19.753334511399032 -2.9514170803396809 42.744805360827101 0 0.82903758062907751 0.55919289150049634 1 0 0 forward_v I I I I #
coedge $-1 $180 $181 $182 $183 reversed $71 $-1 #
face $-1 $-1 $184 $39 $-1 $185 forward single #
loop $-1 $186 $187 $73 #
cone-surface $-1 -22.61056306125634 20.899902505118767 2.1226154117974989 0 -0.82903758062907751 -0.55919289150049634 0.5 0 0 1 I I -0.70710678118654746 0.70710678118654746 0.5 forward I I I I #
loop $-1 $-1 $188 $50 #
coedge $-1 $117 $117 $189 $190 reversed $74 $-1 #
face $-1 $-1 $191 $40 $-1 $192 forward single #
loop $-1 $193 $194 $76 #
cone-surface $-1 -16.896105961541725 20.899902505118767 2.1226154117974989 0 -0.82903758062907751 -0.55919289150049634 0.5 0 0 1 I I -0.70710678118654746 0.70710678118654746 0.5 forward I I I I #
loop $-1 $-1 $195 $51 #
coedge $-1 $122 $122 $196 $197 reversed $77 $-1 #
face $-1 $198 $199 $41 $-1 $200 reversed single #
loop $-1 $-1 $201 $79 #
plane-surface $-1 19.753334511399046 -2.9514170803396809 42.744805360827101 0 0.82903758062907751 0.55919289150049634 1 0 0 forward_v I I I I #
coedge $-1 $202 $203 $204 $205 reversed $80 $-1 #
face $-1 $-1 $206 $42 $-1 $207 forward single #
loop $-1 $208 $209 $82 #
cone-surface $-1 16.896105961541743 20.899902505118767 2.1226154117974989 0 -0.82903758062907751 -0.55919289150049634 0.5 0 0 1 I I -0.70710678118654746 0.70710678118654746 0.5 forward I I I I #
loop $-1 $-1 $210 $53 #
coedge $-1 $131 $131 $211 $212 reversed $83 $-1 #
face $-1 $-1 $213 $43 $-1 $214 forward single #
loop $-1 $215 $216 $85 #
cone-surface $-1 22.61056306125635 20.899902505118767 2.1226154117974989 0 -0.82903758062907751 -0.55919289150049634 0.5 0 0 1 I I -0.70710678118654746 0.70710678118654746 0.5 forward I I I I #
loop $-1 $-1 $217 $54 #
coedge $-1 $136 $136 $218 $219 reversed $86 $-1 #
face $-1 $220 $221 $33 $-1 $222 reversed single #
loop $-1 $-1 $223 $88 #
plane-surface $-1 0 -24.930502679658225 0 0 1 0 0 0 1 forward_v I I I I #
coedge $-1 $224 $225 $226 $227 forward $89 $-1 #
coedge $-1 $228 $91 $229 $230 forward $56 $-1 #
coedge $-1 $91 $228 $231 $232 forward $56 $-1 #
coedge $-1 $233 $234 $91 $144 reversed $235 $-1 #
edge $-1 $236 -24.930502679658225 $237 24.930502679658225 $143 $238 forward 7 unknown #
face $-1 $239 $240 $34 $-1 $241 reversed single #
loop $-1 $-1 $242 $92 #
plane-surface $-1 0 24.930502679658225 0 0 -1 0 0 0 -1 forward_v I I I I #
coedge $-1 $151 $243 $244 $245 reversed $93 $-1 #
coedge $-1 $246 $95 $247 $248 reversed $59 $-1 #
coedge $-1 $95 $246 $249 $250 reversed $59 $-1 #
coedge $-1 $251 $148 $95 $152 reversed $93 $-1 #
edge $-1 $252 -24.930502679658225 $253 24.930502679658225 $151 $254 forward 7 unknown #
face $-1 $255 $256 $35 $-1 $257 reversed single #
loop $-1 $-1 $258 $96 #
plane-surface $-1 0 0 6.12736320933743 0 0 1 1 0 0 forward_v I I I I #
coedge $-1 $259 $260 $261 $262 reversed $97 $-1 #
coedge $-1 $263 $99 $264 $265 reversed $62 $-1 #
coedge $-1 $99 $263 $266 $267 reversed $62 $-1 #
coedge $-1 $268 $269 $99 $160 forward $270 $-1 #
edge $-1 $271 -24.930502679658225 $272 24.930502679658225 $159 $273 forward 7 unknown #
face $-1 $274 $275 $36 $-1 $276 forward single #
loop $-1 $-1 $277 $100 #
plane-surface $-1 15.842830252974768 -75.75721380836228 67.558890412937288 1 0 0 0 0.6018150307709319 -0.79863550430605224 forward_v I I I I #
coedge $-1 $278 $279 $280 $281 reversed $101 $-1 #
coedge $-1 $166 $103 $282 $283 reversed $65 $-1 #
coedge $-1 $103 $165 $278 $284 reversed $65 $-1 #
coedge $-1 $280 $285 $103 $168 forward $275 $-1 #
edge $-1 $286 12.948104224522915 $287 20.933988104649323 $167 $288 forward 7 unknown #
loop $-1 $-1 $174 $104 #
plane-surface $-1 23.773790928565809 -24.930502679658211 0.10956794837242967 0 -0.6018150307709319 0.79863550430605224 1 0 0 forward_v I I I I #
loop $-1 $-1 $289 $67 #
coedge $-1 $172 $172 $173 $290 reversed $105 $-1 #
coedge $-1 $173 $173 $172 $290 forward $107 $-1 #
coedge $-1 $174 $174 $108 $175 forward $169 $-1 #
edge $-1 $291 5.8578507092023307e-016 $291 6.2831853071796013 $174 $292 forward 7 unknown #
face $-1 $293 $294 $38 $-1 $295 reversed single #
loop $-1 $-1 $296 $109 #
plane-surface $-1 -13.086467895065313 67.065534094002913 89.971833780359361 -1 0 0 0 0.82903758062907751 0.55919289150049634 forward_v I I I I #
coedge $-1 $297 $298 $299 $300 reversed $110 $-1 #
coedge $-1 $181 $112 $301 $302 reversed $71 $-1 #
coedge $-1 $112 $180 $297 $303 reversed $71 $-1 #
coedge $-1 $299 $304 $112 $183 forward $305 $-1 #
edge $-1 $306 8.6022643673432313 $307 11.785408300428418 $182 $308 forward 7 unknown #
loop $-1 $-1 $189 $113 #
plane-surface $-1 -19.753334511399032 -2.9514170803396809 42.744805360827101 0 0.82903758062907751 0.55919289150049634 1 0 0 forward_v I I I I #
loop $-1 $-1 $309 $73 #
coedge $-1 $187 $187 $188 $310 reversed $114 $-1 #
coedge $-1 $188 $188 $187 $310 forward $116 $-1 #
coedge $-1 $189 $189 $117 $190 forward $184 $-1 #
edge $-1 $311 1.5419569747545582e-015 $311 6.2831853071796022 $189 $312 forward 7 unknown #
loop $-1 $-1 $196 $118 #
plane-surface $-1 -19.753334511399032 -2.9514170803396809 42.744805360827101 0 0.82903758062907751 0.55919289150049634 1 0 0 forward_v I I I I #
loop $-1 $-1 $313 $76 #
coedge $-1 $194 $194 $195 $314 reversed $119 $-1 #
coedge $-1 $195 $195 $194 $314 forward $121 $-1 #
coedge $-1 $196 $196 $122 $197 forward $191 $-1 #
edge $-1 $315 1.5419569747545582e-015 $315 6.2831853071796022 $196 $316 forward 7 unknown #
face $-1 $317 $318 $41 $-1 $319 forward single #
loop $-1 $-1 $320 $123 #
plane-surface $-1 26.420201127732767 67.065534094002913 89.971833780359361 -1 0 0 0 0.82903758062907751 0.55919289150049634 forward_v I I I I #
coedge $-1 $321 $322 $323 $324 reversed $124 $-1 #
coedge $-1 $203 $126 $325 $326 reversed $80 $-1 #
coedge $-1 $126 $202 $321 $327 reversed $80 $-1 #
coedge $-1 $323 $328 $126 $205 forward $318 $-1 #
edge $-1 $329 8.6022643673432313 $330 11.785408300428418 $204 $331 forward 7 unknown #
loop $-1 $-1 $211 $127 #
plane-surface $-1 19.753334511399046 -2.9514170803396809 42.744805360827101 0 0.82903758062907751 0.55919289150049634 1 0 0 forward_v I I I I #
loop $-1 $-1 $332 $82 #
coedge $-1 $209 $209 $210 $333 reversed $128 $-1 #
coedge $-1 $210 $210 $209 $333 forward $130 $-1 #
coedge $-1 $211 $211 $131 $212 forward $206 $-1 #
edge $-1 $334 1.5419569747545582e-015 $334 6.2831853071796022 $211 $335 forward 7 unknown #
loop $-1 $-1 $218 $132 #
plane-surface $-1 19.753334511399046 -2.9514170803396809 42.744805360827101 0 0.82903758062907751 0.55919289150049634 1 0 0 forward_v I I I I #
loop $-1 $-1 $336 $85 #
coedge $-1 $216 $216 $217 $337 reversed $133 $-1 #
coedge $-1 $217 $217 $216 $337 forward $135 $-1 #
coedge $-1 $218 $218 $136 $219 forward $213 $-1 #
edge $-1 $338 1.5419569747545582e-015 $338 6.2831853071796022 $218 $339 forward 7 unknown #
face $-1 $340 $341 $33 $-1 $342 reversed single #
loop $-1 $-1 $343 $137 #
plane-surface $-1 -42.227851191747796 0 0 1 0 0 0 0 -1 forward_v I I I I #
coedge $-1 $344 $231 $345 $346 forward $138 $-1 #
coedge $-1 $347 $140 $344 $348 forward $89 $-1 #
coedge $-1 $140 $347 $349 $350 forward $89 $-1 #
coedge $-1 $234 $233 $140 $227 reversed $235 $-1 #
edge $-1 $351 -24.930502679658225 $352 24.930502679658225 $226 $353 forward 7 unknown #
coedge $-1 $142 $141 $354 $355 forward $56 $-1 #
coedge $-1 $356 $357 $141 $230 reversed $341 $-1 #
edge $-1 $237 -42.227851191747796 $358 42.227851191747796 $229 $359 forward 7 unknown #
coedge $-1 $223 $360 $142 $232 reversed $138 $-1 #
edge $-1 $361 -42.227851191747796 $236 42.227851191747796 $231 $362 forward 7 unknown #
coedge $-1 $226 $143 $360 $363 forward $235 $-1 #
coedge $-1 $143 $226 $356 $364 reversed $235 $-1 #
loop $-1 $-1 $233 $340 #
vertex $-1 $144 $365 #
vertex $-1 $144 $366 #
straight-curve $-1 42.227851191747796 0 6.12736320933743 0 1 0 I I #
face $-1 $367 $368 $34 $-1 $369 forward single #
loop $-1 $-1 $370 $145 #
plane-surface $-1 -42.227851191747796 0 0 1 0 0 0 0 -1 forward_v I I I I #
coedge $-1 $249 $371 $251 $372 forward $146 $-1 #
coedge $-1 $148 $251 $373 $374 reversed $93 $-1 #
coedge $-1 $375 $247 $148 $245 forward $376 $-1 #
edge $-1 $253 0.49385234741354633 $377 3.9202913570871045 $244 $378 forward 7 unknown #
coedge $-1 $150 $149 $370 $379 reversed $59 $-1 #
coedge $-1 $244 $380 $149 $248 forward $376 $-1 #
edge $-1 $381 -22.268661572254395 $253 -17.649717666732407 $247 $382 forward 7 unknown #
coedge $-1 $383 $242 $150 $250 forward $146 $-1 #
edge $-1 $252 17.649717666732407 $384 22.268661572254395 $249 $385 forward 7 unknown #
coedge $-1 $243 $151 $242 $372 reversed $93 $-1 #
vertex $-1 $250 $386 #
vertex $-1 $248 $387 #
straight-curve $-1 -37.608907286225808 0 2.7009241996638718 0 -1 0 I I #
face $-1 $388 $389 $35 $-1 $390 reversed single #
loop $-1 $-1 $391 $153 #
plane-surface $-1 0 -24.930502679658225 0 0 1 0 0 0 1 forward_v I I I I #
coedge $-1 $392 $393 $260 $394 forward $154 $-1 #
coedge $-1 $395 $156 $263 $396 reversed $97 $-1 #
coedge $-1 $156 $395 $258 $394 reversed $97 $-1 #
coedge $-1 $397 $266 $156 $262 forward $389 $-1 #
edge $-1 $398 0.49385234741354633 $399 3.9202913570871045 $261 $400 forward 7 unknown #
coedge $-1 $158 $157 $259 $396 forward $62 $-1 #
coedge $-1 $401 $391 $157 $265 forward $256 $-1 #
edge $-1 $402 17.649717666732403 $271 22.268661572254391 $264 $403 forward 7 unknown #
coedge $-1 $261 $404 $158 $267 forward $389 $-1 #
edge $-1 $272 -22.268661572254391 $398 -17.649717666732403 $266 $405 forward 7 unknown #
coedge $-1 $406 $159 $404 $407 reversed $270 $-1 #
coedge $-1 $159 $406 $401 $408 forward $270 $-1 #
loop $-1 $-1 $159 $388 #
vertex $-1 $265 $409 #
vertex $-1 $160 $410 #
straight-curve $-1 42.227851191747796 0 2.7009241996638718 0 1 0 I I #
face $-1 $-1 $411 $36 $-1 $412 reversed single #
loop $-1 $-1 $167 $161 #
plane-surface $-1 0 0 6.12736320933743 0 0 1 1 0 0 forward_v I I I I #
coedge $-1 $413 $414 $415 $416 reversed $162 $-1 #
coedge $-1 $417 $164 $166 $284 forward $101 $-1 #
coedge $-1 $164 $417 $413 $418 forward $101 $-1 #
coedge $-1 $415 $167 $164 $281 forward $275 $-1 #
edge $-1 $287 -19.817856139873946 $419 -3.955934788691863 $280 $420 forward 7 unknown #
coedge $-1 $421 $422 $165 $283 forward $411 $-1 #
edge $-1 $423 -33.669877258096228 $286 -27.652081997131212 $282 $424 forward 7 unknown #
edge $-1 $287 -9.9994100400851362 $423 1.7796930043064663e-014 $166 $425 forward 7 unknown #
coedge $-1 $167 $415 $421 $426 forward $275 $-1 #
vertex $-1 $283 $427 #
vertex $-1 $168 $428 #
straight-curve $-1 31.704751604156851 -37.87860690418114 6.1273632093374317 0 1 0 I I #
coedge $-1 $289 $289 $-1 $429 reversed $171 $-1 #
edge $-1 $430 0 $430 6.2831853071796004 $172 $431 forward 7 unknown #
vertex $-1 $175 $432 #
ellipse-curve $-1 23.773790928565809 -20.937560739595025 3.1184655788549236 0 -0.6018150307709319 0.79863550430605224 2 0 0 1 I I #
face $-1 $-1 $305 $38 $-1 $433 forward single #
loop $-1 $-1 $434 $176 #
plane-surface $-1 0 24.930502679658225 0 0 -1 0 0 0 -1 forward_v I I I I #
coedge $-1 $435 $436 $437 $438 reversed $177 $-1 #
coedge $-1 $439 $179 $181 $303 forward $110 $-1 #
coedge $-1 $179 $439 $435 $440 forward $110 $-1 #
coedge $-1 $437 $182 $179 $300 forward $305 $-1 #
edge $-1 $307 -16.543533872033237 $441 -3.2098006393657972 $299 $442 forward 7 unknown #
coedge $-1 $443 $444 $180 $302 forward $294 $-1 #
edge $-1 $445 -43.577758780173752 $306 -38.858553680842249 $301 $446 forward 7 unknown #
edge $-1 $307 44.168615521270084 $445 49.861005359316444 $181 $447 forward 7 unknown #
coedge $-1 $182 $437 $443 $448 forward $305 $-1 #
loop $-1 $-1 $437 $293 #
vertex $-1 $302 $449 #
vertex $-1 $183 $450 #
straight-curve $-1 -26.420201127732753 33.532767047001457 6.1273632093374317 0 -1 0 I I #
coedge $-1 $309 $309 $-1 $451 reversed $186 $-1 #
edge $-1 $452 0 $452 6.2831853071796004 $187 $453 forward 7 unknown #
vertex $-1 $190 $454 #
ellipse-curve $-1 -22.61056306125634 23.338930713115627 3.7677606596716839 0 0.82903758062907751 0.55919289150049634 1 0 0 1 I I #
coedge $-1 $313 $313 $-1 $455 reversed $193 $-1 #
edge $-1 $456 0 $456 6.2831853071796004 $194 $457 forward 7 unknown #
vertex $-1 $197 $458 #
ellipse-curve $-1 -16.896105961541725 23.338930713115627 3.7677606596716839 0 0.82903758062907751 0.55919289150049634 1 0 0 1 I I #
face $-1 $-1 $459 $41 $-1 $460 reversed single #
loop $-1 $-1 $204 $198 #
plane-surface $-1 0 0 6.12736320933743 0 0 1 1 0 0 forward_v I I I I #
coedge $-1 $461 $462 $463 $464 reversed $199 $-1 #
coedge $-1 $465 $201 $203 $327 forward $124 $-1 #
coedge $-1 $201 $465 $461 $466 forward $124 $-1 #
coedge $-1 $463 $204 $201 $324 forward $318 $-1 #
edge $-1 $330 3.2098006393658043 $467 16.543533872033244 $323 $468 forward 7 unknown #
coedge $-1 $469 $470 $202 $326 forward $459 $-1 #
edge $-1 $471 -43.577758780173752 $329 -38.858553680842249 $325 $472 forward 7 unknown #
edge $-1 $330 44.168615521270084 $471 49.861005359316444 $203 $473 forward 7 unknown #
coedge $-1 $204 $463 $469 $474 forward $318 $-1 #
vertex $-1 $205 $475 #
vertex $-1 $205 $476 #
straight-curve $-1 13.086467895065327 33.532767047001457 6.1273632093374317 0 -1 0 I I #
coedge $-1 $332 $332 $-1 $477 reversed $208 $-1 #
edge $-1 $478 0 $478 6.2831853071796004 $209 $479 forward 7 unknown #
vertex $-1 $212 $480 #
ellipse-curve $-1 16.896105961541743 23.338930713115627 3.7677606596716839 0 0.82903758062907751 0.55919289150049634 1 0 0 1 I I #
coedge $-1 $336 $336 $-1 $481 reversed $215 $-1 #
edge $-1 $482 0 $482 6.2831853071796004 $216 $483 forward 7 unknown #
vertex $-1 $219 $484 #
ellipse-curve $-1 22.61056306125635 23.338930713115627 3.7677606596716839 0 0.82903758062907751 0.55919289150049634 1 0 0 1 I I #
face $-1 $-1 $235 $33 $-1 $485 reversed single #
loop $-1 $-1 $356 $220 #
plane-surface $-1 0 24.930502679658225 0 0 -1 0 0 0 -1 forward_v I I I I #
coedge $-1 $486 $354 $357 $487 forward $221 $-1 #
coedge $-1 $360 $223 $224 $348 reversed $138 $-1 #
coedge $-1 $354 $486 $223 $346 reversed $221 $-1 #
edge $-1 $361 -6.12736320933743 $488 6.12736320933743 $345 $489 forward 7 unknown #
coedge $-1 $225 $224 $486 $490 forward $89 $-1 #
edge $-1 $352 -42.227851191747796 $488 42.227851191747796 $344 $491 forward 7 unknown #
coedge $-1 $357 $356 $225 $350 reversed $341 $-1 #
edge $-1 $492 -42.227851191747796 $351 42.227851191747796 $349 $493 forward 7 unknown #
vertex $-1 $227 $494 #
vertex $-1 $363 $495 #
straight-curve $-1 42.227851191747796 0 -6.12736320933743 0 -1 0 I I #
coedge $-1 $343 $345 $228 $355 reversed $221 $-1 #
edge $-1 $358 -24.930502679658225 $361 24.930502679658225 $354 $496 forward 7 unknown #
coedge $-1 $349 $229 $234 $364 forward $341 $-1 #
coedge $-1 $229 $349 $343 $487 reversed $341 $-1 #
vertex $-1 $230 $497 #
straight-curve $-1 0 24.930502679658225 6.12736320933743 -1 0 0 I I #
coedge $-1 $231 $344 $233 $363 reversed $138 $-1 #
vertex $-1 $355 $498 #
straight-curve $-1 0 -24.930502679658225 6.12736320933743 1 0 0 I I #
edge $-1 $236 -6.12736320933743 $352 6.12736320933743 $233 $499 forward 7 unknown #
edge $-1 $237 -6.12736320933743 $351 6.12736320933743 $234 $500 forward 7 unknown #
point $-1 42.227851191747796 -24.930502679658225 6.12736320933743 #
point $-1 42.227851191747796 24.930502679658225 6.12736320933743 #
face $-1 $-1 $376 $34 $-1 $501 reversed single #
loop $-1 $-1 $373 $239 #
plane-surface $-1 0 0 6.12736320933743 0 0 1 1 0 0 forward_v I I I I #
coedge $-1 $502 $503 $246 $379 forward $240 $-1 #
coedge $-1 $242 $383 $504 $505 reversed $146 $-1 #
edge $-1 $506 -3.9202913570871045 $252 -0.49385234741354633 $242 $507 forward 7 unknown #
coedge $-1 $504 $508 $243 $374 forward $368 $-1 #
edge $-1 $377 -24.930502679658225 $506 24.930502679658225 $373 $509 forward 7 unknown #
coedge $-1 $380 $244 $508 $510 reversed $376 $-1 #
loop $-1 $-1 $244 $367 #
vertex $-1 $245 $511 #
straight-curve $-1 -37.608907286225808 -24.930502679658225 2.2070718522503254 0 0 1 I I #
edge $-1 $384 -24.930502679658225 $381 24.930502679658225 $370 $512 forward 7 unknown #
coedge $-1 $247 $375 $502 $513 forward $376 $-1 #
vertex $-1 $379 $514 #
straight-curve $-1 -19.959189619493401 -24.930502679658225 2.7009241996638718 1 0 0 I I #
coedge $-1 $371 $249 $503 $515 reversed $146 $-1 #
vertex $-1 $379 $516 #
straight-curve $-1 -19.959189619493401 24.930502679658225 2.7009241996638718 -1 0 0 I I #
point $-1 -37.608907286225808 24.930502679658225 2.7009241996638718 #
point $-1 -37.608907286225808 -24.930502679658225 2.7009241996638718 #
face $-1 $-1 $270 $35 $-1 $517 reversed single #
loop $-1 $-1 $261 $255 #
plane-surface $-1 0 24.930502679658225 0 0 -1 0 0 0 -1 forward_v I I I I #
coedge $-1 $264 $518 $395 $519 forward $256 $-1 #
coedge $-1 $520 $258 $518 $521 forward $154 $-1 #
coedge $-1 $258 $520 $397 $522 forward $154 $-1 #
edge $-1 $399 -24.930502679658225 $523 24.930502679658225 $258 $524 forward 7 unknown #
coedge $-1 $260 $259 $391 $519 reversed $97 $-1 #
edge $-1 $402 -24.930502679658225 $398 24.930502679658225 $259 $525 forward 7 unknown #
coedge $-1 $404 $261 $393 $522 reversed $389 $-1 #
vertex $-1 $267 $526 #
vertex $-1 $262 $527 #
straight-curve $-1 37.608907286225801 24.930502679658225 2.2070718522503254 0 0 1 I I #
coedge $-1 $518 $264 $269 $408 reversed $256 $-1 #
vertex $-1 $265 $528 #
straight-curve $-1 19.959189619493397 -24.930502679658225 2.7009241996638718 1 0 0 I I #
coedge $-1 $266 $397 $268 $407 forward $389 $-1 #
straight-curve $-1 19.959189619493397 24.930502679658225 2.7009241996638718 -1 0 0 I I #
coedge $-1 $269 $268 $520 $529 reversed $270 $-1 #
edge $-1 $530 -6.12736320933743 $272 -2.7009241996638718 $268 $531 forward 7 unknown #
edge $-1 $532 -6.12736320933743 $271 -2.7009241996638718 $269 $533 forward 7 unknown #
point $-1 42.227851191747789 -24.930502679658225 2.7009241996638718 #
point $-1 42.227851191747789 24.930502679658225 2.7009241996638718 #
loop $-1 $-1 $282 $274 #
plane-surface $-1 0 -24.930502679658225 0 0 1 0 0 0 1 forward_v I I I I #
coedge $-1 $414 $277 $279 $418 reversed $162 $-1 #
coedge $-1 $277 $413 $534 $535 reversed $162 $-1 #
coedge $-1 $285 $280 $277 $416 forward $275 $-1 #
edge $-1 $419 -20.933988104649323 $536 -12.948104224522915 $415 $537 forward 7 unknown #
coedge $-1 $279 $278 $422 $538 reversed $101 $-1 #
edge $-1 $539 -1.7796930043064663e-014 $419 9.9994100400851362 $413 $540 forward 7 unknown #
vertex $-1 $281 $541 #
straight-curve $-1 11.886895464282905 -16.94461879953182 6.12736320933743 -1 0 0 I I #
coedge $-1 $534 $282 $285 $426 reversed $411 $-1 #
coedge $-1 $282 $534 $417 $538 forward $411 $-1 #
vertex $-1 $283 $542 #
straight-curve $-1 31.704751604156851 -24.930502679658225 33.779445206468644 0 0 1 I I #
straight-curve $-1 31.704751604156851 -24.930502679658211 0.10956794837242967 0 -0.79863550430605224 -0.6018150307709319 I I #
edge $-1 $536 15.842830252974768 $286 31.704751604156851 $421 $543 forward 7 unknown #
point $-1 31.704751604156851 -24.930502679658225 6.12736320933743 #
point $-1 31.704751604156851 -16.944618799531817 6.12736320933743 #
edge $-1 $544 1 $544 0 $289 $-1 forward 7 unknown #
vertex $-1 $290 $545 #
ellipse-curve $-1 23.773790928565809 -19.473199876428843 1.1751931169779948 0 -0.6018150307709319 0.79863550430605224 2 0 0 1 I I #
point $-1 25.773790928565809 -20.937560739595028 3.1184655788549303 #
plane-surface $-1 0 0 6.12736320933743 0 0 1 1 0 0 forward_v I I I I #
coedge $-1 $444 $443 $436 $546 forward $294 $-1 #
coedge $-1 $436 $296 $298 $440 reversed $177 $-1 #
coedge $-1 $296 $435 $434 $546 reversed $177 $-1 #
coedge $-1 $304 $299 $296 $438 forward $305 $-1 #
edge $-1 $441 -11.785408300428418 $547 -8.6022643673432313 $437 $548 forward 7 unknown #
coedge $-1 $298 $297 $444 $549 reversed $110 $-1 #
edge $-1 $550 -49.861005359316444 $441 -44.168615521270084 $435 $551 forward 7 unknown #
vertex $-1 $300 $552 #
straight-curve $-1 -9.8766672556995161 21.747358746573038 6.1273632093374317 1 0 0 I I #
coedge $-1 $434 $301 $304 $448 reversed $294 $-1 #
coedge $-1 $301 $434 $439 $549 forward $294 $-1 #
vertex $-1 $302 $553 #
straight-curve $-1 -26.420201127732753 24.930502679658225 44.985916890179681 0 0 1 I I #
straight-curve $-1 -26.420201127732753 -2.9514170803396809 42.744805360827101 0 0.55919289150049634 -0.82903758062907751 I I #
edge $-1 $547 13.086467895065313 $306 26.420201127732753 $443 $554 forward 7 unknown #
point $-1 -26.420201127732753 24.930502679658225 6.12736320933743 #
point $-1 -26.420201127732753 21.747358746573038 6.1273632093374317 #
edge $-1 $555 1 $555 0 $309 $-1 forward 7 unknown #
vertex $-1 $310 $556 #
ellipse-curve $-1 -22.61056306125634 21.314421295433306 2.4022118575477469 0 0.82903758062907751 0.55919289150049634 1 0 0 1 I I #
point $-1 -21.61056306125634 23.338930713115637 3.7677606596716893 #
edge $-1 $557 1 $557 0 $313 $-1 forward 7 unknown #
vertex $-1 $314 $558 #
ellipse-curve $-1 -16.896105961541725 21.314421295433306 2.4022118575477469 0 0.82903758062907751 0.55919289150049634 1 0 0 1 I I #
point $-1 -15.896105961541725 23.338930713115637 3.7677606596716893 #
loop $-1 $-1 $325 $317 #
plane-surface $-1 0 24.930502679658225 0 0 -1 0 0 0 -1 forward_v I I I I #
coedge $-1 $462 $320 $322 $466 reversed $199 $-1 #
coedge $-1 $320 $461 $559 $560 reversed $199 $-1 #
coedge $-1 $328 $323 $320 $464 forward $318 $-1 #
edge $-1 $467 -11.785408300428418 $561 -8.6022643673432313 $463 $562 forward 7 unknown #
coedge $-1 $322 $321 $470 $563 reversed $124 $-1 #
edge $-1 $564 -49.861005359316444 $467 -44.168615521270084 $461 $565 forward 7 unknown #
vertex $-1 $324 $566 #
straight-curve $-1 9.8766672556995232 21.747358746573038 6.1273632093374317 1 0 0 I I #
coedge $-1 $559 $325 $328 $474 reversed $459 $-1 #
coedge $-1 $325 $559 $465 $563 forward $459 $-1 #
vertex $-1 $326 $567 #
straight-curve $-1 13.086467895065327 24.930502679658225 44.985916890179681 0 0 1 I I #
straight-curve $-1 13.086467895065327 -2.9514170803396809 42.744805360827101 0 0.55919289150049634 -0.82903758062907751 I I #
edge $-1 $561 -26.420201127732767 $329 -13.086467895065327 $469 $568 forward 7 unknown #
point $-1 13.086467895065327 24.930502679658225 6.12736320933743 #
point $-1 13.086467895065327 21.747358746573038 6.1273632093374317 #
edge $-1 $569 1 $569 0 $332 $-1 forward 7 unknown #
vertex $-1 $333 $570 #
ellipse-curve $-1 16.896105961541743 21.314421295433306 2.4022118575477469 0 0.82903758062907751 0.55919289150049634 1 0 0 1 I I #
point $-1 17.896105961541743 23.338930713115637 3.7677606596716893 #
edge $-1 $571 1 $571 0 $336 $-1 forward 7 unknown #
vertex $-1 $337 $572 #
ellipse-curve $-1 22.61056306125635 21.314421295433306 2.4022118575477469 0 0.82903758062907751 0.55919289150049634 1 0 0 1 I I #
point $-1 23.61056306125635 23.338930713115637 3.7677606596716893 #
plane-surface $-1 42.227851191747796 0 0 -1 0 0 0 0 1 forward_v I I I I #
coedge $-1 $345 $343 $347 $490 reversed $221 $-1 #
edge $-1 $358 -6.12736320933743 $492 6.12736320933743 $357 $573 forward 7 unknown #
vertex $-1 $490 $574 #
straight-curve $-1 -42.227851191747796 -24.930502679658225 0 0 0 -1 I I #
edge $-1 $488 -24.930502679658225 $492 24.930502679658225 $486 $575 forward 7 unknown #
straight-curve $-1 0 -24.930502679658225 -6.12736320933743 -1 0 0 I I #
vertex $-1 $350 $576 #
straight-curve $-1 0 24.930502679658225 -6.12736320933743 1 0 0 I I #
point $-1 42.227851191747796 24.930502679658225 -6.12736320933743 #
point $-1 42.227851191747796 -24.930502679658225 -6.12736320933743 #
straight-curve $-1 -42.227851191747796 0 6.12736320933743 0 -1 0 I I #
point $-1 -42.227851191747796 24.930502679658225 6.12736320933743 #
point $-1 -42.227851191747796 -24.930502679658225 6.12736320933743 #
straight-curve $-1 42.227851191747796 -24.930502679658225 0 0 0 -1 I I #
straight-curve $-1 42.227851191747796 24.930502679658225 0 0 0 -1 I I #
plane-surface $-1 0 -24.930502679658225 0 0 1 0 0 0 1 forward_v I I I I #
coedge $-1 $577 $370 $380 $513 reversed $240 $-1 #
coedge $-1 $370 $577 $383 $515 forward $240 $-1 #
coedge $-1 $578 $373 $371 $505 forward $368 $-1 #
edge $-1 $506 37.608907286225808 $579 42.227851191747796 $371 $580 forward 7 unknown #
vertex $-1 $505 $581 #
straight-curve $-1 -37.608907286225808 24.930502679658225 2.2070718522503254 0 0 -1 I I #
coedge $-1 $373 $578 $375 $510 forward $368 $-1 #
straight-curve $-1 -37.608907286225808 0 6.12736320933743 0 1 0 I I #
edge $-1 $582 -42.227851191747796 $377 -37.608907286225808 $375 $583 forward 7 unknown #
point $-1 -37.608907286225808 -24.930502679658225 6.12736320933743 #
straight-curve $-1 -42.227851191747796 0 2.7009241996638718 0 -1 0 I I #
edge $-1 $582 -6.12736320933743 $381 -2.7009241996638718 $502 $584 forward 7 unknown #
point $-1 -42.227851191747796 -24.930502679658225 2.7009241996638718 #
edge $-1 $579 -6.12736320933743 $384 -2.7009241996638718 $383 $585 forward 7 unknown #
point $-1 -42.227851191747796 24.930502679658225 2.7009241996638718 #
plane-surface $-1 42.227851191747796 0 0 -1 0 0 0 0 1 forward_v I I I I #
coedge $-1 $391 $401 $392 $521 reversed $256 $-1 #
edge $-1 $523 -3.9202913570871045 $402 -0.49385234741354633 $391 $586 forward 7 unknown #
coedge $-1 $393 $392 $406 $529 forward $154 $-1 #
edge $-1 $523 37.608907286225801 $532 42.227851191747796 $518 $587 forward 7 unknown #
edge $-1 $530 -42.227851191747796 $399 -37.608907286225801 $397 $588 forward 7 unknown #
vertex $-1 $521 $589 #
straight-curve $-1 37.608907286225801 0 6.12736320933743 0 -1 0 I I #
straight-curve $-1 37.608907286225801 0 2.7009241996638718 0 1 0 I I #
point $-1 37.608907286225801 24.930502679658225 2.7009241996638718 #
point $-1 37.608907286225801 24.930502679658225 6.12736320933743 #
point $-1 37.608907286225801 -24.930502679658225 2.7009241996638718 #
edge $-1 $532 -24.930502679658225 $530 24.930502679658225 $406 $590 forward 7 unknown #
vertex $-1 $529 $591 #
straight-curve $-1 42.227851191747796 24.930502679658225 0 0 0 -1 I I #
vertex $-1 $529 $592 #
straight-curve $-1 42.227851191747796 -24.930502679658225 0 0 0 -1 I I #
coedge $-1 $422 $421 $414 $535 forward $411 $-1 #
edge $-1 $536 27.652081997131212 $539 33.669877258096228 $534 $593 forward 7 unknown #
vertex $-1 $426 $594 #
straight-curve $-1 15.842830252974768 -37.87860690418114 6.1273632093374317 0 -1 0 I I #
edge $-1 $539 3.955934788691863 $423 19.817856139873946 $422 $595 forward 7 unknown #
vertex $-1 $538 $596 #
straight-curve $-1 15.842830252974768 -24.930502679658211 0.10956794837242967 0 0.79863550430605224 0.6018150307709319 I I #
point $-1 15.842830252974768 -16.944618799531817 6.12736320933743 #
point $-1 31.704751604156851 -24.930502679658225 0.10956794837241896 #
straight-curve $-1 0 -24.930502679658225 6.12736320933743 1 0 0 I I #
vertex $-1 $429 $597 #
point $-1 25.773790928565809 -19.473199876428843 1.1751931169779948 #
edge $-1 $547 38.858553680842249 $550 43.577758780173752 $434 $598 forward 7 unknown #
vertex $-1 $448 $599 #
straight-curve $-1 -13.086467895065313 33.532767047001457 6.1273632093374317 0 1 0 I I #
edge $-1 $550 3.2098006393657972 $445 16.543533872033237 $444 $600 forward 7 unknown #
vertex $-1 $549 $601 #
straight-curve $-1 -13.086467895065313 -2.9514170803396809 42.744805360827101 0 -0.55919289150049634 0.82903758062907751 I I #
point $-1 -13.086467895065313 21.747358746573038 6.1273632093374317 #
point $-1 -26.420201127732753 24.930502679658225 1.4081581100059282 #
straight-curve $-1 0 24.930502679658225 6.12736320933743 -1 0 0 I I #
vertex $-1 $451 $602 #
point $-1 -21.61056306125634 21.314421295433306 2.4022118575477469 #
vertex $-1 $455 $603 #
point $-1 -15.896105961541725 21.314421295433306 2.4022118575477469 #
coedge $-1 $470 $469 $462 $560 forward $459 $-1 #
edge $-1 $561 38.858553680842249 $564 43.577758780173752 $559 $604 forward 7 unknown #
vertex $-1 $474 $605 #
straight-curve $-1 26.420201127732767 33.532767047001457 6.1273632093374317 0 1 0 I I #
edge $-1 $564 -16.543533872033244 $471 -3.2098006393658043 $470 $606 forward 7 unknown #
vertex $-1 $563 $607 #
straight-curve $-1 26.420201127732767 -2.9514170803396809 42.744805360827101 0 -0.55919289150049634 0.82903758062907751 I I #
point $-1 26.420201127732767 21.747358746573038 6.1273632093374317 #
point $-1 13.086467895065327 24.930502679658225 1.4081581100059282 #
straight-curve $-1 0 24.930502679658225 6.12736320933743 -1 0 0 I I #
vertex $-1 $477 $608 #
point $-1 17.896105961541743 21.314421295433306 2.4022118575477469 #
vertex $-1 $481 $609 #
point $-1 23.61056306125635 21.314421295433306 2.4022118575477469 #
straight-curve $-1 -42.227851191747796 24.930502679658225 0 0 0 -1 I I #
point $-1 -42.227851191747796 -24.930502679658225 -6.12736320933743 #
straight-curve $-1 -42.227851191747796 0 -6.12736320933743 0 1 0 I I #
point $-1 -42.227851191747796 24.930502679658225 -6.12736320933743 #
coedge $-1 $503 $502 $578 $610 reversed $240 $-1 #
coedge $-1 $508 $504 $577 $610 forward $368 $-1 #
vertex $-1 $505 $611 #
straight-curve $-1 0 24.930502679658225 6.12736320933743 -1 0 0 I I #
point $-1 -37.608907286225808 24.930502679658225 6.12736320933743 #
vertex $-1 $610 $612 #
straight-curve $-1 0 -24.930502679658225 6.12736320933743 1 0 0 I I #
straight-curve $-1 -42.227851191747796 -24.930502679658225 0 0 0 -1 I I #
straight-curve $-1 -42.227851191747796 24.930502679658225 0 0 0 -1 I I #
straight-curve $-1 37.608907286225801 -24.930502679658225 2.2070718522503254 0 0 -1 I I #
straight-curve $-1 0 -24.930502679658225 6.12736320933743 1 0 0 I I #
straight-curve $-1 0 24.930502679658225 6.12736320933743 -1 0 0 I I #
point $-1 37.608907286225801 -24.930502679658225 6.12736320933743 #
straight-curve $-1 42.227851191747796 0 6.12736320933743 0 1 0 I I #
point $-1 42.227851191747796 24.930502679658225 6.12736320933743 #
point $-1 42.227851191747796 -24.930502679658225 6.12736320933743 #
straight-curve $-1 15.842830252974768 -24.930502679658225 33.779445206468644 0 0 -1 I I #
point $-1 15.842830252974768 -24.930502679658225 6.12736320933743 #
straight-curve $-1 11.886895464282905 -24.930502679658225 0.10956794837241977 1 0 0 I I #
point $-1 15.842830252974768 -24.930502679658225 0.10956794837241896 #
point $-1 23.773790928565809 -18.269569814886978 -0.42207789163410969 #
straight-curve $-1 -13.086467895065313 24.930502679658225 44.985916890179681 0 0 -1 I I #
point $-1 -13.086467895065313 24.930502679658225 6.12736320933743 #
straight-curve $-1 -9.8766672556995161 24.930502679658225 1.4081581100059246 -1 0 0 I I #
point $-1 -13.086467895065313 24.930502679658225 1.4081581100059282 #
point $-1 -22.61056306125634 20.485383714804229 1.8430189660472507 #
point $-1 -16.896105961541725 20.485383714804229 1.8430189660472507 #
straight-curve $-1 26.420201127732767 24.930502679658225 44.985916890179681 0 0 -1 I I #
point $-1 26.420201127732767 24.930502679658225 6.12736320933743 #
straight-curve $-1 9.8766672556995232 24.930502679658225 1.4081581100059246 -1 0 0 I I #
point $-1 26.420201127732767 24.930502679658225 1.4081581100059282 #
point $-1 16.896105961541743 20.485383714804229 1.8430189660472507 #
point $-1 22.61056306125635 20.485383714804229 1.8430189660472507 #
edge $-1 $579 -24.930502679658225 $582 24.930502679658225 $577 $613 forward 7 unknown #
point $-1 -42.227851191747796 24.930502679658225 6.12736320933743 #
point $-1 -42.227851191747796 -24.930502679658225 6.12736320933743 #
straight-curve $-1 -42.227851191747796 0 6.12736320933743 0 -1 0 I I #
End-of-ACIS-data 