500 0 10 0           
7 Unknown 11 ACIS 5.0 NT 24 Thu Mar 25 16:26:19 1999 
-1 9.9999999999999995e-007 1e-010 
body $-1 $10 $-1 $11 #
body $-1 $12 $-1 $13 #
body $-1 $14 $-1 $15 #
body $-1 $16 $-1 $17 #
body $-1 $18 $-1 $19 #
body $-1 $20 $-1 $21 #
body $-1 $22 $-1 $23 #
body $-1 $24 $-1 $25 #
body $-1 $26 $-1 $27 #
body $-1 $28 $-1 $29 #
lump $-1 $-1 $30 $0 #
transform $-1 1 0 0 0 1 0 0 0 1 68.489638966032899 34.684179879472033 15.33515598021946 1 rotate no_reflect no_shear #
lump $-1 $-1 $31 $1 #
transform $-1 1 0 0 0 1 0 0 0 1 68.489638966032899 34.684179879472033 15.33515598021946 1 rotate no_reflect no_shear #
lump $-1 $-1 $32 $2 #
transform $-1 1 0 0 0 1 0 0 0 1 68.489638966032899 34.684179879472033 15.33515598021946 1 rotate no_reflect no_shear #
lump $-1 $-1 $33 $3 #
transform $-1 1 0 0 0 1 0 0 0 1 68.489638966032899 34.684179879472033 15.33515598021946 1 rotate no_reflect no_shear #
lump $-1 $-1 $34 $4 #
transform $-1 1 0 0 0 1 0 0 0 1 68.489638966032899 34.684179879472033 15.33515598021946 1 rotate no_reflect no_shear #
lump $-1 $-1 $35 $5 #
transform $-1 1 0 0 0 1 0 0 0 1 68.489638966032899 34.684179879472033 15.33515598021946 1 rotate no_reflect no_shear #
lump $-1 $-1 $36 $6 #
transform $-1 1 0 0 0 1 0 0 0 1 68.489638966032899 34.684179879472033 15.33515598021946 1 rotate no_reflect no_shear #
lump $-1 $-1 $37 $7 #
transform $-1 1 0 0 0 1 0 0 0 1 68.489638966032899 34.684179879472033 15.33515598021946 1 rotate no_reflect no_shear #
lump $-1 $-1 $38 $8 #
transform $-1 1 0 0 0 1 0 0 0 1 68.489638966032899 34.684179879472033 15.33515598021946 1 rotate no_reflect no_shear #
lump $-1 $-1 $39 $9 #
transform $-1 1 0 0 0 1 0 0 0 1 68.489638966032899 34.684179879472033 15.33515598021946 1 rotate no_reflect no_shear #
shell $-1 $-1 $-1 $40 $-1 $10 #
shell $-1 $-1 $-1 $41 $-1 $12 #
shell $-1 $-1 $-1 $42 $-1 $14 #
shell $-1 $-1 $-1 $43 $-1 $16 #
shell $-1 $-1 $-1 $44 $-1 $18 #
shell $-1 $-1 $-1 $45 $-1 $20 #
shell $-1 $-1 $-1 $46 $-1 $22 #
shell $-1 $-1 $-1 $47 $-1 $24 #
shell $-1 $-1 $-1 $48 $-1 $26 #
shell $-1 $-1 $-1 $49 $-1 $28 #
face $-1 $50 $51 $30 $-1 $52 forward single #
face $-1 $53 $54 $31 $-1 $55 reversed single #
face $-1 $56 $57 $32 $-1 $58 reversed single #
face $-1 $59 $60 $33 $-1 $61 forward single #
face $-1 $62 $63 $34 $-1 $64 reversed single #
face $-1 $65 $66 $35 $-1 $67 forward single #
face $-1 $68 $69 $36 $-1 $70 reversed single #
face $-1 $71 $72 $37 $-1 $73 forward single #
face $-1 $74 $75 $38 $-1 $76 reversed single #
face $-1 $77 $78 $39 $-1 $79 forward single #
face $-1 $80 $81 $30 $-1 $82 reversed single #
loop $-1 $-1 $83 $40 #
plane-surface $-1 0 0 15.33515598021946 0 0 1 1 0 0 forward_v I I I I #
face $-1 $84 $85 $31 $-1 $86 reversed single #
loop $-1 $-1 $87 $41 #
plane-surface $-1 -41.143948760783132 -28.422791746975346 0 1 0 0 0 0 -1 forward_v I I I I #
face $-1 $88 $89 $32 $-1 $90 reversed single #
loop $-1 $-1 $91 $42 #
plane-surface $-1 -154.69349279040671 -12.343032844459717 109.18027619485602 0 1 0 -0.62932039886446345 0 0.77714595512881146 forward_v I I I I #
face $-1 $92 $93 $33 $-1 $94 forward single #
loop $-1 $95 $96 $43 #
cone-surface $-1 -59.968316605273628 -8.9998367432377151 8.1215561910572287 0.62932039886446345 0 -0.77714595512881146 1.1657189326932171 0 0.94398059829669512 1 I I 0 1 1.5 forward I I I I #
face $-1 $97 $98 $34 $-1 $99 reversed single #
loop $-1 $-1 $100 $44 #
plane-surface $-1 -154.69349279040671 18.179416907009081 109.18027619485602 0 1 0 -0.62932039886446345 0 0.77714595512881146 forward_v I I I I #
face $-1 $101 $102 $35 $-1 $103 forward single #
loop $-1 $104 $105 $45 #
cone-surface $-1 -59.968316605273628 21.522613008231083 8.1215561910572287 0.62932039886446345 0 -0.77714595512881146 1.1657189326932171 0 0.94398059829669512 1 I I 0 1 1.5 forward I I I I #
face $-1 $106 $107 $36 $-1 $108 reversed single #
loop $-1 $-1 $109 $46 #
plane-surface $-1 48.240601009036524 -5.6566406420157129 195.38413001922984 0 -1 0 -0.62932039886446345 0 -0.77714595512881146 forward_v I I I I #
face $-1 $110 $111 $37 $-1 $112 forward single #
loop $-1 $113 $114 $47 #
cone-surface $-1 59.968316605273635 -8.9998367432377151 8.1215561910572394 -0.62932039886446345 0 -0.77714595512881146 1.1657189326932171 0 -0.94398059829669512 1 I I 0 1 1.5 forward I I I I #
face $-1 $115 $116 $38 $-1 $117 reversed single #
loop $-1 $-1 $118 $48 #
plane-surface $-1 48.240601009036524 24.865809109453085 195.38413001922984 0 -1 0 -0.62932039886446345 0 -0.77714595512881146 forward_v I I I I #
face $-1 $119 $120 $39 $-1 $121 forward single #
loop $-1 $122 $123 $49 #
cone-surface $-1 59.968316605273635 21.522613008231083 8.1215561910572394 -0.62932039886446345 0 -0.77714595512881146 1.1657189326932171 0 -0.94398059829669512 1 I I 0 1 1.5 forward I I I I #
face $-1 $124 $125 $30 $-1 $126 reversed single #
loop $-1 $-1 $127 $50 #
plane-surface $-1 0 0 -15.33515598021946 0 0 1 1 0 0 forward_v I I I I #
coedge $-1 $128 $129 $130 $131 forward $51 $-1 #
face $-1 $132 $133 $31 $-1 $134 reversed single #
loop $-1 $-1 $135 $53 #
plane-surface $-1 -39.481637883188554 -22.161403614478658 0 0 -1 0 0 0 -1 forward_v I I I I #
coedge $-1 $136 $137 $138 $139 forward $54 $-1 #
face $-1 $140 $141 $32 $-1 $142 reversed single #
loop $-1 $-1 $143 $56 #
plane-surface $-1 -68.489638966032871 -8.9998367432377151 2.7273844134858223 -0.62932039886446345 0 0.77714595512881146 0.77714595512881146 0 0.62932039886446345 forward_v I I I I #
coedge $-1 $144 $145 $146 $147 reversed $57 $-1 #
face $-1 $-1 $148 $33 $-1 $149 forward single #
loop $-1 $150 $151 $59 #
cone-surface $-1 -58.759654414312031 -8.9998367432377151 6.6289827189152088 0.62932039886446345 0 -0.77714595512881146 0.58285946634660857 0 0.47199029914834756 1 I I -0.70710678118654757 0.70710678118654757 0.75 forward I I I I #
loop $-1 $-1 $152 $43 #
coedge $-1 $96 $96 $153 $154 reversed $60 $-1 #
face $-1 $155 $156 $34 $-1 $157 reversed single #
loop $-1 $-1 $158 $62 #
plane-surface $-1 -68.489638966032871 21.522613008231083 2.7273844134858223 -0.62932039886446345 0 0.77714595512881146 0.77714595512881146 0 0.62932039886446345 forward_v I I I I #
coedge $-1 $159 $160 $161 $162 reversed $63 $-1 #
face $-1 $-1 $163 $35 $-1 $164 forward single #
loop $-1 $165 $166 $65 #
cone-surface $-1 -58.759654414312031 21.522613008231083 6.6289827189152088 0.62932039886446345 0 -0.77714595512881146 0.58285946634660857 0 0.47199029914834756 1 I I -0.70710678118654757 0.70710678118654757 0.75 forward I I I I #
loop $-1 $-1 $167 $45 #
coedge $-1 $105 $105 $168 $169 reversed $66 $-1 #
face $-1 $170 $171 $36 $-1 $172 reversed single #
loop $-1 $-1 $173 $68 #
plane-surface $-1 -37.963252815337313 -8.9998367432377151 88.931238237859645 0.62932039886446345 0 0.77714595512881146 0.77714595512881146 0 -0.62932039886446345 forward_v I I I I #
coedge $-1 $174 $175 $176 $177 reversed $69 $-1 #
face $-1 $-1 $178 $37 $-1 $179 forward single #
loop $-1 $180 $181 $71 #
cone-surface $-1 58.759654414312038 -8.9998367432377151 6.6289827189152195 -0.62932039886446345 0 -0.77714595512881146 0.58285946634660857 0 -0.47199029914834756 1 I I -0.70710678118654757 0.70710678118654757 0.75 forward I I I I #
loop $-1 $-1 $182 $47 #
coedge $-1 $114 $114 $183 $184 reversed $72 $-1 #
face $-1 $185 $186 $38 $-1 $187 reversed single #
loop $-1 $-1 $188 $74 #
plane-surface $-1 -37.963252815337313 21.522613008231083 88.931238237859645 0.62932039886446345 0 0.77714595512881146 0.77714595512881146 0 -0.62932039886446345 forward_v I I I I #
coedge $-1 $189 $190 $191 $192 reversed $75 $-1 #
face $-1 $-1 $193 $39 $-1 $194 forward single #
loop $-1 $195 $196 $77 #
cone-surface $-1 58.759654414312038 21.522613008231083 6.6289827189152195 -0.62932039886446345 0 -0.77714595512881146 0.58285946634660857 0 -0.47199029914834756 1 I I -0.70710678118654757 0.70710678118654757 0.75 forward I I I I #
loop $-1 $-1 $197 $49 #
coedge $-1 $123 $123 $198 $199 reversed $78 $-1 #
face $-1 $200 $201 $30 $-1 $202 reversed single #
loop $-1 $-1 $203 $80 #
plane-surface $-1 0 -34.684179879472033 0 0 1 0 0 0 1 forward_v I I I I #
coedge $-1 $204 $205 $206 $207 forward $81 $-1 #
coedge $-1 $208 $83 $209 $210 forward $51 $-1 #
coedge $-1 $83 $208 $211 $212 forward $51 $-1 #
coedge $-1 $213 $214 $83 $131 reversed $215 $-1 #
edge $-1 $216 -34.684179879472033 $217 34.684179879472033 $130 $218 forward 7 unknown #
face $-1 $219 $220 $31 $-1 $221 forward single #
loop $-1 $-1 $222 $84 #
plane-surface $-1 -37.819327005593976 -28.422791746975346 0 -1 0 0 0 0 1 forward_v I I I I #
coedge $-1 $223 $224 $225 $226 forward $85 $-1 #
coedge $-1 $227 $87 $228 $229 reversed $54 $-1 #
coedge $-1 $87 $227 $230 $231 reversed $54 $-1 #
coedge $-1 $224 $223 $87 $139 reversed $85 $-1 #
edge $-1 $232 -15.33515598021946 $233 15.33515598021946 $138 $234 forward 7 unknown #
face $-1 $235 $236 $32 $-1 $237 reversed single #
loop $-1 $-1 $238 $88 #
plane-surface $-1 -154.69349279040671 -5.6566406420157129 109.18027619485602 0 -1 0 0.62932039886446345 0 -0.77714595512881146 forward_v I I I I #
coedge $-1 $239 $240 $241 $242 reversed $89 $-1 #
coedge $-1 $145 $91 $243 $244 reversed $57 $-1 #
coedge $-1 $91 $144 $239 $245 reversed $57 $-1 #
coedge $-1 $241 $246 $91 $147 forward $247 $-1 #
edge $-1 $248 8.8571074291704548 $249 24.426408367062521 $146 $250 forward 7 unknown #
loop $-1 $-1 $153 $92 #
plane-surface $-1 -68.489638966032871 -8.9998367432377151 2.7273844134858223 -0.62932039886446345 0 0.77714595512881146 0.77714595512881146 0 0.62932039886446345 forward_v I I I I #
loop $-1 $-1 $251 $59 #
coedge $-1 $151 $151 $152 $252 reversed $93 $-1 #
coedge $-1 $152 $152 $151 $252 forward $95 $-1 #
coedge $-1 $153 $153 $96 $154 forward $148 $-1 #
edge $-1 $253 0 $253 6.2831853071796004 $153 $254 forward 7 unknown #
face $-1 $255 $256 $34 $-1 $257 forward single #
loop $-1 $-1 $258 $97 #
plane-surface $-1 -154.69349279040671 24.865809109453085 109.18027619485602 0 -1 0 0.62932039886446345 0 -0.77714595512881146 forward_v I I I I #
coedge $-1 $259 $260 $261 $262 reversed $98 $-1 #
coedge $-1 $160 $100 $263 $264 reversed $63 $-1 #
coedge $-1 $100 $159 $259 $265 reversed $63 $-1 #
coedge $-1 $261 $266 $100 $162 forward $256 $-1 #
edge $-1 $267 8.8571074291704548 $268 24.426408367062521 $161 $269 forward 7 unknown #
loop $-1 $-1 $168 $101 #
plane-surface $-1 -68.489638966032871 21.522613008231083 2.7273844134858223 -0.62932039886446345 0 0.77714595512881146 0.77714595512881146 0 0.62932039886446345 forward_v I I I I #
loop $-1 $-1 $270 $65 #
coedge $-1 $166 $166 $167 $271 reversed $102 $-1 #
coedge $-1 $167 $167 $166 $271 forward $104 $-1 #
coedge $-1 $168 $168 $105 $169 forward $163 $-1 #
edge $-1 $272 0 $272 6.2831853071796004 $168 $273 forward 7 unknown #
face $-1 $274 $275 $36 $-1 $276 forward single #
loop $-1 $-1 $277 $106 #
plane-surface $-1 48.240601009036524 -12.343032844459717 195.38413001922984 0 1 0 0.62932039886446345 0 0.77714595512881146 forward_v I I I I #
coedge $-1 $278 $279 $280 $281 reversed $107 $-1 #
coedge $-1 $175 $109 $282 $283 reversed $69 $-1 #
coedge $-1 $109 $174 $278 $284 reversed $69 $-1 #
coedge $-1 $280 $285 $109 $177 forward $275 $-1 #
edge $-1 $286 -44.369338461514637 $287 -28.800037523622557 $176 $288 forward 7 unknown #
loop $-1 $-1 $183 $110 #
plane-surface $-1 -37.963252815337313 -8.9998367432377151 88.931238237859645 0.62932039886446345 0 0.77714595512881146 0.77714595512881146 0 -0.62932039886446345 forward_v I I I I #
loop $-1 $-1 $289 $71 #
coedge $-1 $181 $181 $182 $290 reversed $111 $-1 #
coedge $-1 $182 $182 $181 $290 forward $113 $-1 #
coedge $-1 $183 $183 $114 $184 forward $178 $-1 #
edge $-1 $291 0 $291 6.2831853071796004 $183 $292 forward 7 unknown #
face $-1 $293 $294 $38 $-1 $295 reversed single #
loop $-1 $-1 $296 $115 #
plane-surface $-1 48.240601009036524 18.179416907009081 195.38413001922984 0 1 0 0.62932039886446345 0 0.77714595512881146 forward_v I I I I #
coedge $-1 $297 $298 $299 $300 reversed $116 $-1 #
coedge $-1 $190 $118 $301 $302 reversed $75 $-1 #
coedge $-1 $118 $189 $297 $303 reversed $75 $-1 #
coedge $-1 $299 $304 $118 $192 forward $305 $-1 #
edge $-1 $306 -44.369338461514637 $307 -28.800037523622557 $191 $308 forward 7 unknown #
loop $-1 $-1 $198 $119 #
plane-surface $-1 -37.963252815337313 21.522613008231083 88.931238237859645 0.62932039886446345 0 0.77714595512881146 0.77714595512881146 0 -0.62932039886446345 forward_v I I I I #
loop $-1 $-1 $309 $77 #
coedge $-1 $196 $196 $197 $310 reversed $120 $-1 #
coedge $-1 $197 $197 $196 $310 forward $122 $-1 #
coedge $-1 $198 $198 $123 $199 forward $193 $-1 #
edge $-1 $311 0 $311 6.2831853071796004 $198 $312 forward 7 unknown #
face $-1 $313 $314 $30 $-1 $315 reversed single #
loop $-1 $-1 $316 $124 #
plane-surface $-1 -68.489638966032899 0 0 1 0 0 0 0 -1 forward_v I I I I #
coedge $-1 $317 $211 $318 $319 forward $125 $-1 #
coedge $-1 $320 $127 $317 $321 forward $81 $-1 #
coedge $-1 $127 $320 $322 $323 forward $81 $-1 #
coedge $-1 $214 $213 $127 $207 reversed $215 $-1 #
edge $-1 $324 -34.684179879472033 $325 34.684179879472033 $206 $326 forward 7 unknown #
coedge $-1 $129 $128 $327 $328 forward $51 $-1 #
coedge $-1 $329 $330 $128 $210 reversed $314 $-1 #
edge $-1 $217 -68.489638966032899 $331 68.489638966032899 $209 $332 forward 7 unknown #
coedge $-1 $203 $333 $129 $212 reversed $125 $-1 #
edge $-1 $334 -68.489638966032899 $216 68.489638966032899 $211 $335 forward 7 unknown #
coedge $-1 $206 $130 $333 $336 forward $215 $-1 #
coedge $-1 $130 $206 $329 $337 reversed $215 $-1 #
loop $-1 $-1 $213 $313 #
vertex $-1 $131 $338 #
vertex $-1 $131 $339 #
straight-curve $-1 68.489638966032899 0 15.33515598021946 0 1 0 I I #
face $-1 $340 $341 $31 $-1 $342 reversed single #
loop $-1 $-1 $343 $132 #
plane-surface $-1 0 0 15.33515598021946 0 0 1 1 0 0 forward_v I I I I #
coedge $-1 $344 $345 $346 $347 reversed $133 $-1 #
coedge $-1 $138 $135 $348 $349 reversed $85 $-1 #
coedge $-1 $135 $138 $350 $351 reversed $85 $-1 #
coedge $-1 $345 $344 $135 $226 reversed $133 $-1 #
edge $-1 $352 -15.33515598021946 $353 15.33515598021946 $225 $354 forward 7 unknown #
coedge $-1 $137 $136 $355 $356 reversed $54 $-1 #
coedge $-1 $348 $357 $136 $229 forward $341 $-1 #
edge $-1 $358 -20.472784005984359 $233 -7.9500077409909853 $228 $359 forward 7 unknown #
coedge $-1 $360 $350 $137 $231 forward $220 $-1 #
edge $-1 $232 7.9500077409909853 $361 20.472784005984359 $230 $362 forward 7 unknown #
vertex $-1 $231 $363 #
vertex $-1 $229 $364 #
straight-curve $-1 -41.143948760783132 -22.161403614478658 0 0 0 -1 I I #
face $-1 $-1 $247 $32 $-1 $365 forward single #
loop $-1 $-1 $366 $140 #
plane-surface $-1 -68.489638966032899 0 0 1 0 0 0 0 -1 forward_v I I I I #
coedge $-1 $367 $368 $369 $370 reversed $141 $-1 #
coedge $-1 $371 $143 $145 $245 forward $89 $-1 #
coedge $-1 $143 $371 $367 $372 forward $89 $-1 #
coedge $-1 $369 $146 $143 $242 forward $247 $-1 #
edge $-1 $249 -7.8431144728408597 $373 -1.1567222703968554 $241 $374 forward 7 unknown #
coedge $-1 $375 $376 $144 $244 forward $236 $-1 #
edge $-1 $377 -51.862753683942209 $248 -39.254982117208549 $243 $378 forward 7 unknown #
edge $-1 $249 -20.033947079234864 $377 3.6620485252745651e-014 $145 $379 forward 7 unknown #
coedge $-1 $146 $369 $375 $380 forward $247 $-1 #
loop $-1 $-1 $369 $235 #
vertex $-1 $244 $381 #
vertex $-1 $147 $382 #
straight-curve $-1 -77.346746395203354 -12.343032844459717 15.335155980219461 1 0 0 I I #
coedge $-1 $251 $251 $-1 $383 reversed $150 $-1 #
edge $-1 $384 0 $384 6.2831853071796004 $151 $385 forward 7 unknown #
vertex $-1 $154 $386 #
ellipse-curve $-1 -60.704988497086866 -8.9998367432377151 9.0312701968526277 -0.62932039886446345 0 0.77714595512881146 1.1657189326932171 0 0.94398059829669512 1 I I #
face $-1 $-1 $387 $34 $-1 $388 reversed single #
loop $-1 $-1 $161 $155 #
plane-surface $-1 0 0 15.33515598021946 0 0 1 1 0 0 forward_v I I I I #
coedge $-1 $389 $390 $391 $392 reversed $156 $-1 #
coedge $-1 $393 $158 $160 $265 forward $98 $-1 #
coedge $-1 $158 $393 $389 $394 forward $98 $-1 #
coedge $-1 $391 $161 $158 $262 forward $256 $-1 #
edge $-1 $268 7.4181104028935394 $395 14.104502605337544 $261 $396 forward 7 unknown #
coedge $-1 $397 $398 $159 $264 forward $387 $-1 #
edge $-1 $399 -51.862753683942209 $267 -39.254982117208549 $263 $400 forward 7 unknown #
edge $-1 $268 -20.033947079234864 $399 3.6620485252745651e-014 $160 $401 forward 7 unknown #
coedge $-1 $161 $391 $397 $402 forward $256 $-1 #
vertex $-1 $264 $403 #
vertex $-1 $162 $404 #
straight-curve $-1 -77.346746395203354 18.179416907009081 15.335155980219461 1 0 0 I I #
coedge $-1 $270 $270 $-1 $405 reversed $165 $-1 #
edge $-1 $406 0 $406 6.2831853071796004 $166 $407 forward 7 unknown #
vertex $-1 $169 $408 #
ellipse-curve $-1 -60.704988497086866 21.522613008231083 9.0312701968526277 -0.62932039886446345 0 0.77714595512881146 1.1657189326932171 0 0.94398059829669512 1 I I #
face $-1 $-1 $409 $36 $-1 $410 reversed single #
loop $-1 $-1 $176 $170 #
plane-surface $-1 0 0 15.33515598021946 0 0 1 1 0 0 forward_v I I I I #
coedge $-1 $411 $412 $413 $414 reversed $171 $-1 #
coedge $-1 $415 $173 $175 $284 forward $107 $-1 #
coedge $-1 $173 $415 $411 $416 forward $107 $-1 #
coedge $-1 $413 $176 $173 $281 forward $275 $-1 #
edge $-1 $287 1.1567222703968554 $417 7.8431144728408597 $280 $418 forward 7 unknown #
coedge $-1 $419 $420 $174 $283 forward $409 $-1 #
edge $-1 $421 -94.964680596129142 $286 -82.356909029395467 $282 $422 forward 7 unknown #
edge $-1 $287 116.94533085283091 $421 136.97927793206583 $175 $423 forward 7 unknown #
coedge $-1 $176 $413 $419 $424 forward $275 $-1 #
vertex $-1 $283 $425 #
vertex $-1 $177 $426 #
straight-curve $-1 24.120300504518262 -5.6566406420157129 15.335155980219454 -1 0 0 I I #
coedge $-1 $289 $289 $-1 $427 reversed $180 $-1 #
edge $-1 $428 0 $428 6.2831853071796004 $181 $429 forward 7 unknown #
vertex $-1 $184 $430 #
ellipse-curve $-1 60.704988497086873 -8.9998367432377151 9.0312701968526312 0.62932039886446345 0 0.77714595512881146 1.1657189326932171 0 -0.94398059829669512 1 I I #
face $-1 $-1 $305 $38 $-1 $431 forward single #
loop $-1 $-1 $432 $185 #
plane-surface $-1 68.489638966032899 0 0 -1 0 0 0 0 1 forward_v I I I I #
coedge $-1 $433 $434 $435 $436 reversed $186 $-1 #
coedge $-1 $437 $188 $190 $303 forward $116 $-1 #
coedge $-1 $188 $437 $433 $438 forward $116 $-1 #
coedge $-1 $435 $191 $188 $300 forward $305 $-1 #
edge $-1 $307 -14.104502605337544 $439 -7.4181104028935394 $299 $440 forward 7 unknown #
coedge $-1 $441 $442 $189 $302 forward $294 $-1 #
edge $-1 $443 -94.964680596129142 $306 -82.356909029395467 $301 $444 forward 7 unknown #
edge $-1 $307 116.94533085283091 $443 136.97927793206583 $190 $445 forward 7 unknown #
coedge $-1 $191 $435 $441 $446 forward $305 $-1 #
loop $-1 $-1 $435 $293 #
vertex $-1 $302 $447 #
vertex $-1 $192 $448 #
straight-curve $-1 24.120300504518262 24.865809109453085 15.335155980219454 -1 0 0 I I #
coedge $-1 $309 $309 $-1 $449 reversed $195 $-1 #
edge $-1 $450 0 $450 6.2831853071796004 $196 $451 forward 7 unknown #
vertex $-1 $199 $452 #
ellipse-curve $-1 60.704988497086873 21.522613008231083 9.0312701968526312 0.62932039886446345 0 0.77714595512881146 1.1657189326932171 0 -0.94398059829669512 1 I I #
face $-1 $-1 $215 $30 $-1 $453 reversed single #
loop $-1 $-1 $329 $200 #
plane-surface $-1 0 34.684179879472033 0 0 -1 0 0 0 -1 forward_v I I I I #
coedge $-1 $454 $327 $330 $455 forward $201 $-1 #
coedge $-1 $333 $203 $204 $321 reversed $125 $-1 #
coedge $-1 $327 $454 $203 $319 reversed $201 $-1 #
edge $-1 $334 -15.33515598021946 $456 15.33515598021946 $318 $457 forward 7 unknown #
coedge $-1 $205 $204 $454 $458 forward $81 $-1 #
edge $-1 $325 -68.489638966032899 $456 68.489638966032899 $317 $459 forward 7 unknown #
coedge $-1 $330 $329 $205 $323 reversed $314 $-1 #
edge $-1 $460 -68.489638966032899 $324 68.489638966032899 $322 $461 forward 7 unknown #
vertex $-1 $207 $462 #
vertex $-1 $336 $463 #
straight-curve $-1 68.489638966032899 0 -15.33515598021946 0 -1 0 I I #
coedge $-1 $316 $318 $208 $328 reversed $201 $-1 #
edge $-1 $331 -34.684179879472033 $334 34.684179879472033 $327 $464 forward 7 unknown #
coedge $-1 $322 $209 $214 $337 forward $314 $-1 #
coedge $-1 $209 $322 $316 $455 reversed $314 $-1 #
vertex $-1 $210 $465 #
straight-curve $-1 0 34.684179879472033 15.33515598021946 -1 0 0 I I #
coedge $-1 $211 $317 $213 $336 reversed $125 $-1 #
vertex $-1 $328 $466 #
straight-curve $-1 0 -34.684179879472033 15.33515598021946 1 0 0 I I #
edge $-1 $216 -15.33515598021946 $325 15.33515598021946 $213 $467 forward 7 unknown #
edge $-1 $217 -15.33515598021946 $324 15.33515598021946 $214 $468 forward 7 unknown #
point $-1 68.489638966032899 -34.684179879472033 15.33515598021946 #
point $-1 68.489638966032899 34.684179879472033 15.33515598021946 #
face $-1 $-1 $469 $31 $-1 $470 reversed single #
loop $-1 $-1 $471 $219 #
plane-surface $-1 0 0 -15.33515598021946 0 0 1 1 0 0 forward_v I I I I #
coedge $-1 $350 $360 $345 $472 forward $220 $-1 #
coedge $-1 $225 $222 $471 $473 reversed $133 $-1 #
coedge $-1 $222 $225 $343 $472 reversed $133 $-1 #
coedge $-1 $474 $475 $222 $347 forward $469 $-1 #
edge $-1 $476 -15.33515598021946 $477 15.33515598021946 $346 $478 forward 7 unknown #
coedge $-1 $471 $228 $223 $349 forward $341 $-1 #
edge $-1 $233 -21.403129819188855 $353 -18.078508063999699 $348 $479 forward 7 unknown #
coedge $-1 $230 $343 $224 $351 forward $220 $-1 #
edge $-1 $352 18.078508063999699 $232 21.403129819188855 $350 $480 forward 7 unknown #
vertex $-1 $351 $481 #
vertex $-1 $349 $482 #
straight-curve $-1 -37.819327005593976 -22.161403614478658 0 0 0 -1 I I #
coedge $-1 $475 $474 $227 $356 forward $469 $-1 #
edge $-1 $361 -15.33515598021946 $358 15.33515598021946 $355 $483 forward 7 unknown #
coedge $-1 $228 $471 $475 $484 forward $341 $-1 #
vertex $-1 $229 $485 #
straight-curve $-1 -41.143948760783132 -14.211395873487673 -15.33515598021946 0 1 0 I I #
coedge $-1 $343 $230 $474 $486 forward $220 $-1 #
vertex $-1 $486 $487 #
straight-curve $-1 -41.143948760783132 -14.211395873487673 15.33515598021946 0 -1 0 I I #
point $-1 -41.143948760783132 -22.161403614478658 15.33515598021946 #
point $-1 -41.143948760783132 -22.161403614478658 -15.33515598021946 #
plane-surface $-1 0 0 15.33515598021946 0 0 1 1 0 0 forward_v I I I I #
coedge $-1 $376 $375 $368 $488 forward $236 $-1 #
coedge $-1 $368 $238 $240 $372 reversed $141 $-1 #
coedge $-1 $238 $367 $366 $488 reversed $141 $-1 #
coedge $-1 $246 $241 $238 $370 forward $247 $-1 #
edge $-1 $373 -24.426408367062521 $489 -8.8571074291704548 $369 $490 forward 7 unknown #
coedge $-1 $240 $239 $376 $491 reversed $89 $-1 #
edge $-1 $492 -3.6620485252745651e-014 $373 20.033947079234864 $367 $493 forward 7 unknown #
vertex $-1 $242 $494 #
straight-curve $-1 -52.920338028140833 -4.4999183716188575 15.335155980219458 0 1 0 I I #
coedge $-1 $366 $243 $246 $380 reversed $236 $-1 #
coedge $-1 $243 $366 $371 $491 forward $236 $-1 #
vertex $-1 $244 $495 #
straight-curve $-1 -68.489638966032899 -12.343032844459717 54.59013809742801 0 0 1 I I #
straight-curve $-1 -68.489638966032871 -12.343032844459717 2.7273844134858223 -0.77714595512881146 0 -0.62932039886446345 I I #
edge $-1 $489 5.6566406420157129 $248 12.343032844459717 $375 $496 forward 7 unknown #
point $-1 -68.489638966032899 -12.343032844459717 15.33515598021946 #
point $-1 -52.920338028140833 -12.343032844459717 15.33515598021946 #
edge $-1 $497 1 $497 0 $251 $-1 forward 7 unknown #
vertex $-1 $252 $498 #
ellipse-curve $-1 -59.231644713460376 -8.9998367432377151 7.2118421852618173 -0.62932039886446345 0 0.77714595512881146 1.1657189326932171 0 0.94398059829669512 1 I I #
point $-1 -59.539269564393663 -8.9998367432377151 9.9752507951493357 #
loop $-1 $-1 $263 $255 #
plane-surface $-1 -68.489638966032899 0 0 1 0 0 0 0 -1 forward_v I I I I #
coedge $-1 $390 $258 $260 $394 reversed $156 $-1 #
coedge $-1 $258 $389 $499 $500 reversed $156 $-1 #
coedge $-1 $266 $261 $258 $392 forward $256 $-1 #
edge $-1 $395 -24.426408367062521 $501 -8.8571074291704548 $391 $502 forward 7 unknown #
coedge $-1 $260 $259 $398 $503 reversed $98 $-1 #
edge $-1 $504 -3.6620485252745651e-014 $395 20.033947079234864 $389 $505 forward 7 unknown #
vertex $-1 $262 $506 #
straight-curve $-1 -52.920338028140833 10.761306504115542 15.335155980219458 0 1 0 I I #
coedge $-1 $499 $263 $266 $402 reversed $387 $-1 #
coedge $-1 $263 $499 $393 $503 forward $387 $-1 #
vertex $-1 $264 $507 #
straight-curve $-1 -68.489638966032899 18.179416907009081 54.59013809742801 0 0 1 I I #
straight-curve $-1 -68.489638966032871 18.179416907009081 2.7273844134858223 -0.77714595512881146 0 -0.62932039886446345 I I #
edge $-1 $501 -24.865809109453085 $267 -18.179416907009081 $397 $508 forward 7 unknown #
point $-1 -68.489638966032899 18.179416907009081 15.33515598021946 #
point $-1 -52.920338028140833 18.179416907009081 15.33515598021946 #
edge $-1 $509 1 $509 0 $270 $-1 forward 7 unknown #
vertex $-1 $271 $510 #
ellipse-curve $-1 -59.231644713460376 21.522613008231083 7.2118421852618173 -0.62932039886446345 0 0.77714595512881146 1.1657189326932171 0 0.94398059829669512 1 I I #
point $-1 -59.539269564393663 21.522613008231083 9.9752507951493357 #
loop $-1 $-1 $282 $274 #
plane-surface $-1 68.489638966032899 0 0 -1 0 0 0 0 1 forward_v I I I I #
coedge $-1 $412 $277 $279 $416 reversed $171 $-1 #
coedge $-1 $277 $411 $511 $512 reversed $171 $-1 #
coedge $-1 $285 $280 $277 $414 forward $275 $-1 #
edge $-1 $417 28.800037523622557 $513 44.369338461514637 $413 $514 forward 7 unknown #
coedge $-1 $279 $278 $420 $515 reversed $107 $-1 #
edge $-1 $516 -136.97927793206583 $417 -116.94533085283091 $411 $517 forward 7 unknown #
vertex $-1 $281 $518 #
straight-curve $-1 52.920338028140826 -4.4999183716188575 15.335155980219461 0 -1 0 I I #
coedge $-1 $511 $282 $285 $424 reversed $409 $-1 #
coedge $-1 $282 $511 $415 $515 forward $409 $-1 #
vertex $-1 $283 $519 #
straight-curve $-1 68.489638966032899 -5.6566406420157129 97.692065009614922 0 0 1 I I #
straight-curve $-1 -37.963252815337313 -5.6566406420157129 88.931238237859645 0.77714595512881146 0 -0.62932039886446345 I I #
edge $-1 $513 -12.343032844459717 $286 -5.6566406420157129 $419 $520 forward 7 unknown #
point $-1 68.489638966032899 -5.6566406420157129 15.33515598021946 #
point $-1 52.920338028140819 -5.6566406420157129 15.335155980219454 #
edge $-1 $521 1 $521 0 $289 $-1 forward 7 unknown #
vertex $-1 $290 $522 #
ellipse-curve $-1 59.231644713460383 -8.9998367432377151 7.211842185261828 0.62932039886446345 0 0.77714595512881146 1.1657189326932171 0 -0.94398059829669512 1 I I #
point $-1 61.870707429780104 -8.9998367432377151 8.0872895985559552 #
plane-surface $-1 0 0 15.33515598021946 0 0 1 1 0 0 forward_v I I I I #
coedge $-1 $442 $441 $434 $523 forward $294 $-1 #
coedge $-1 $434 $296 $298 $438 reversed $186 $-1 #
coedge $-1 $296 $433 $432 $523 reversed $186 $-1 #
coedge $-1 $304 $299 $296 $436 forward $305 $-1 #
edge $-1 $439 28.800037523622557 $524 44.369338461514637 $435 $525 forward 7 unknown #
coedge $-1 $298 $297 $442 $526 reversed $116 $-1 #
edge $-1 $527 -136.97927793206583 $439 -116.94533085283091 $433 $528 forward 7 unknown #
vertex $-1 $300 $529 #
straight-curve $-1 52.920338028140826 10.761306504115542 15.335155980219461 0 -1 0 I I #
coedge $-1 $432 $301 $304 $446 reversed $294 $-1 #
coedge $-1 $301 $432 $437 $526 forward $294 $-1 #
vertex $-1 $302 $530 #
straight-curve $-1 68.489638966032899 24.865809109453085 97.692065009614922 0 0 1 I I #
straight-curve $-1 -37.963252815337313 24.865809109453085 88.931238237859645 0.77714595512881146 0 -0.62932039886446345 I I #
edge $-1 $524 18.179416907009081 $306 24.865809109453085 $441 $531 forward 7 unknown #
point $-1 68.489638966032899 24.865809109453085 15.33515598021946 #
point $-1 52.920338028140819 24.865809109453085 15.335155980219454 #
edge $-1 $532 1 $532 0 $309 $-1 forward 7 unknown #
vertex $-1 $310 $533 #
ellipse-curve $-1 59.231644713460383 21.522613008231083 7.211842185261828 0.62932039886446345 0 0.77714595512881146 1.1657189326932171 0 -0.94398059829669512 1 I I #
point $-1 61.870707429780104 21.522613008231083 8.0872895985559552 #
plane-surface $-1 68.489638966032899 0 0 -1 0 0 0 0 1 forward_v I I I I #
coedge $-1 $318 $316 $320 $458 reversed $201 $-1 #
edge $-1 $331 -15.33515598021946 $460 15.33515598021946 $330 $534 forward 7 unknown #
vertex $-1 $458 $535 #
straight-curve $-1 -68.489638966032899 -34.684179879472033 0 0 0 -1 I I #
edge $-1 $456 -34.684179879472033 $460 34.684179879472033 $454 $536 forward 7 unknown #
straight-curve $-1 0 -34.684179879472033 -15.33515598021946 -1 0 0 I I #
vertex $-1 $323 $537 #
straight-curve $-1 0 34.684179879472033 -15.33515598021946 1 0 0 I I #
point $-1 68.489638966032899 34.684179879472033 -15.33515598021946 #
point $-1 68.489638966032899 -34.684179879472033 -15.33515598021946 #
straight-curve $-1 -68.489638966032899 0 15.33515598021946 0 -1 0 I I #
point $-1 -68.489638966032899 34.684179879472033 15.33515598021946 #
point $-1 -68.489638966032899 -34.684179879472033 15.33515598021946 #
straight-curve $-1 68.489638966032899 -34.684179879472033 0 0 0 -1 I I #
straight-curve $-1 68.489638966032899 34.684179879472033 0 0 0 -1 I I #
loop $-1 $-1 $346 $340 #
plane-surface $-1 0 -34.684179879472033 0 0 1 0 0 0 1 forward_v I I I I #
coedge $-1 $357 $348 $344 $473 forward $341 $-1 #
edge $-1 $477 -20.472784005984359 $352 -7.9500077409909853 $343 $538 forward 7 unknown #
edge $-1 $353 7.9500077409909853 $476 20.472784005984359 $471 $539 forward 7 unknown #
coedge $-1 $355 $346 $360 $486 reversed $469 $-1 #
coedge $-1 $346 $355 $357 $484 reversed $469 $-1 #
vertex $-1 $484 $540 #
vertex $-1 $347 $541 #
straight-curve $-1 -37.819327005593976 -34.684179879472033 0 0 0 1 I I #
straight-curve $-1 -19.740818941594277 -22.161403614478658 -15.33515598021946 1 0 0 I I #
straight-curve $-1 -19.740818941594277 -22.161403614478658 15.33515598021946 -1 0 0 I I #
point $-1 -37.819327005593976 -22.161403614478658 15.33515598021946 #
point $-1 -37.819327005593976 -22.161403614478658 -15.33515598021946 #
straight-curve $-1 -41.143948760783132 -34.684179879472033 0 0 0 -1 I I #
edge $-1 $476 37.819327005593976 $358 41.143948760783132 $475 $542 forward 7 unknown #
point $-1 -41.143948760783132 -34.684179879472033 -15.33515598021946 #
edge $-1 $361 -41.143948760783132 $477 -37.819327005593976 $474 $543 forward 7 unknown #
point $-1 -41.143948760783132 -34.684179879472033 15.33515598021946 #
edge $-1 $489 39.254982117208549 $492 51.862753683942209 $366 $544 forward 7 unknown #
vertex $-1 $380 $545 #
straight-curve $-1 -77.346746395203354 -5.6566406420157129 15.335155980219461 -1 0 0 I I #
edge $-1 $492 1.1567222703968554 $377 7.8431144728408597 $376 $546 forward 7 unknown #
vertex $-1 $491 $547 #
straight-curve $-1 -68.489638966032871 -5.6566406420157129 2.7273844134858223 0.77714595512881146 0 0.62932039886446345 I I #
point $-1 -52.920338028140833 -5.6566406420157129 15.33515598021946 #
point $-1 -68.489638966032899 -12.343032844459717 2.7273844134857992 #
straight-curve $-1 -68.489638966032899 0 15.33515598021946 0 -1 0 I I #
vertex $-1 $383 $548 #
point $-1 -58.065925780767159 -8.9998367432377151 8.1558227835585129 #
coedge $-1 $398 $397 $390 $500 forward $387 $-1 #
edge $-1 $501 39.254982117208549 $504 51.862753683942209 $499 $549 forward 7 unknown #
vertex $-1 $402 $550 #
straight-curve $-1 -77.346746395203354 24.865809109453085 15.335155980219461 -1 0 0 I I #
edge $-1 $504 -14.104502605337544 $399 -7.4181104028935394 $398 $551 forward 7 unknown #
vertex $-1 $503 $552 #
straight-curve $-1 -68.489638966032871 24.865809109453085 2.7273844134858223 0.77714595512881146 0 0.62932039886446345 I I #
point $-1 -52.920338028140833 24.865809109453085 15.33515598021946 #
point $-1 -68.489638966032899 18.179416907009081 2.7273844134857992 #
straight-curve $-1 -68.489638966032899 0 15.33515598021946 0 -1 0 I I #
vertex $-1 $405 $553 #
point $-1 -58.065925780767159 21.522613008231083 8.1558227835585129 #
coedge $-1 $420 $419 $412 $512 forward $409 $-1 #
edge $-1 $513 82.356909029395467 $516 94.964680596129142 $511 $554 forward 7 unknown #
vertex $-1 $424 $555 #
straight-curve $-1 24.120300504518262 -12.343032844459717 15.335155980219454 1 0 0 I I #
edge $-1 $516 -7.8431144728408597 $421 -1.1567222703968554 $420 $556 forward 7 unknown #
vertex $-1 $515 $557 #
straight-curve $-1 -37.963252815337313 -12.343032844459717 88.931238237859645 -0.77714595512881146 0 0.62932039886446345 I I #
point $-1 52.920338028140819 -12.343032844459717 15.335155980219454 #
point $-1 68.489638966032913 -5.6566406420157129 2.7273844134857796 #
straight-curve $-1 68.489638966032899 0 15.33515598021946 0 1 0 I I #
vertex $-1 $427 $558 #
point $-1 60.3973636461536 -8.9998367432377151 6.2678615869651333 #
edge $-1 $524 82.356909029395467 $527 94.964680596129142 $432 $559 forward 7 unknown #
vertex $-1 $446 $560 #
straight-curve $-1 24.120300504518262 18.179416907009081 15.335155980219454 1 0 0 I I #
edge $-1 $527 7.4181104028935394 $443 14.104502605337544 $442 $561 forward 7 unknown #
vertex $-1 $526 $562 #
straight-curve $-1 -37.963252815337313 18.179416907009081 88.931238237859645 -0.77714595512881146 0 0.62932039886446345 I I #
point $-1 52.920338028140819 18.179416907009081 15.335155980219454 #
point $-1 68.489638966032913 24.865809109453085 2.7273844134857796 #
straight-curve $-1 68.489638966032899 0 15.33515598021946 0 1 0 I I #
vertex $-1 $449 $563 #
point $-1 60.3973636461536 21.522613008231083 6.2678615869651333 #
straight-curve $-1 -68.489638966032899 34.684179879472033 0 0 0 -1 I I #
point $-1 -68.489638966032899 -34.684179879472033 -15.33515598021946 #
straight-curve $-1 -68.489638966032899 0 -15.33515598021946 0 1 0 I I #
point $-1 -68.489638966032899 34.684179879472033 -15.33515598021946 #
straight-curve $-1 -37.819327005593976 -14.211395873487673 15.33515598021946 0 1 0 I I #
straight-curve $-1 -37.819327005593976 -14.211395873487673 -15.33515598021946 0 -1 0 I I #
point $-1 -37.819327005593976 -34.684179879472033 -15.33515598021946 #
point $-1 -37.819327005593976 -34.684179879472033 15.33515598021946 #
straight-curve $-1 0 -34.684179879472033 -15.33515598021946 -1 0 0 I I #
straight-curve $-1 0 -34.684179879472033 15.33515598021946 1 0 0 I I #
straight-curve $-1 -68.489638966032899 -5.6566406420157129 54.59013809742801 0 0 -1 I I #
point $-1 -68.489638966032899 -5.6566406420157129 15.33515598021946 #
straight-curve $-1 -68.489638966032899 -4.4999183716188575 2.727384413485801 0 -1 0 I I #
point $-1 -68.489638966032899 -5.6566406420157129 2.7273844134857992 #
point $-1 -58.287664115163686 -8.9998367432377151 6.0461232525686004 #
straight-curve $-1 -68.489638966032899 24.865809109453085 54.59013809742801 0 0 -1 I I #
point $-1 -68.489638966032899 24.865809109453085 15.33515598021946 #
straight-curve $-1 -68.489638966032899 10.761306504115542 2.727384413485801 0 -1 0 I I #
point $-1 -68.489638966032899 24.865809109453085 2.7273844134857992 #
point $-1 -58.287664115163686 21.522613008231083 6.0461232525686004 #
straight-curve $-1 68.489638966032899 -12.343032844459717 97.692065009614922 0 0 -1 I I #
point $-1 68.489638966032899 -12.343032844459717 15.33515598021946 #
straight-curve $-1 68.489638966032899 -4.4999183716188575 2.7273844134857868 0 1 0 I I #
point $-1 68.489638966032913 -12.343032844459717 2.7273844134857796 #
point $-1 58.287664115163693 -8.9998367432377151 6.0461232525686111 #
straight-curve $-1 68.489638966032899 18.179416907009081 97.692065009614922 0 0 -1 I I #
point $-1 68.489638966032899 18.179416907009081 15.33515598021946 #
straight-curve $-1 68.489638966032899 10.761306504115542 2.7273844134857868 0 1 0 I I #
point $-1 68.489638966032913 18.179416907009081 2.7273844134857796 #
point $-1 58.287664115163693 21.522613008231083 6.0461232525686111 #
End-of-ACIS-data 