500 0 6 0           
7 Unknown 11 ACIS 5.0 NT 24 Thu Mar 25 22:46:26 1999 
-1 9.9999999999999995e-007 1e-010 
body $-1 $6 $-1 $7 #
body $-1 $8 $-1 $9 #
body $-1 $10 $-1 $11 #
body $-1 $12 $-1 $13 #
body $-1 $14 $-1 $15 #
body $-1 $16 $-1 $17 #
lump $-1 $-1 $18 $0 #
transform $-1 1 0 0 0 1 0 0 0 1 43.375347148045293 26.135344367281636 6.1107429365231738 1 rotate no_reflect no_shear #
lump $-1 $-1 $19 $1 #
transform $-1 1 0 0 0 1 0 0 0 1 43.375347148045293 26.135344367281636 6.1107429365231738 1 rotate no_reflect no_shear #
lump $-1 $-1 $20 $2 #
transform $-1 1 0 0 0 1 0 0 0 1 43.375347148045293 26.135344367281636 6.1107429365231738 1 rotate no_reflect no_shear #
lump $-1 $-1 $21 $3 #
transform $-1 1 0 0 0 1 0 0 0 1 43.375347148045293 26.135344367281636 6.1107429365231738 1 rotate no_reflect no_shear #
lump $-1 $-1 $22 $4 #
transform $-1 1 0 0 0 1 0 0 0 1 43.375347148045293 26.135344367281636 6.1107429365231738 1 rotate no_reflect no_shear #
lump $-1 $-1 $23 $5 #
transform $-1 1 0 0 0 1 0 0 0 1 43.375347148045293 26.135344367281636 6.1107429365231738 1 rotate no_reflect no_shear #
shell $-1 $-1 $-1 $24 $-1 $6 #
shell $-1 $-1 $-1 $25 $-1 $8 #
shell $-1 $-1 $-1 $26 $-1 $10 #
shell $-1 $-1 $-1 $27 $-1 $12 #
shell $-1 $-1 $-1 $28 $-1 $14 #
shell $-1 $-1 $-1 $29 $-1 $16 #
face $-1 $30 $31 $18 $-1 $32 forward single #
face $-1 $33 $34 $19 $-1 $35 forward single #
face $-1 $36 $37 $20 $-1 $38 forward single #
face $-1 $39 $40 $21 $-1 $41 reversed single #
face $-1 $42 $43 $22 $-1 $44 forward single #
face $-1 $45 $46 $23 $-1 $47 forward single #
face $-1 $48 $49 $18 $-1 $50 reversed single #
loop $-1 $-1 $51 $24 #
plane-surface $-1 0 0 6.1107429365231738 0 0 1 1 0 0 forward_v I I I I #
face $-1 $52 $53 $19 $-1 $54 reversed single #
loop $-1 $-1 $55 $25 #
plane-surface $-1 0 -23.797550204349328 -1.6993915264664876 0 0 1 1 0 0 forward_v I I I I #
face $-1 $56 $57 $20 $-1 $58 reversed single #
loop $-1 $-1 $59 $26 #
plane-surface $-1 0 23.797550204349331 -1.6993915264664876 0 0 1 1 0 0 forward_v I I I I #
face $-1 $60 $61 $21 $-1 $62 reversed single #
loop $-1 $-1 $63 $27 #
plane-surface $-1 -102.53917909567437 -10.162954466708655 65.336930413178209 0 -1 0 0.68199836817093118 0 -0.7313536940579346 forward_v I I I I #
face $-1 $64 $65 $22 $-1 $66 forward single #
loop $-1 $67 $68 $28 #
cone-surface $-1 -39.758928915444983 -18.2320984486432 2.5489996757594247 0.68199836817093118 0 -0.7313536940579346 1.0970305410869019 0 1.0229975522563968 1 I I 0 1 1.5 forward I I I I #
face $-1 $69 $70 $23 $-1 $71 forward single #
loop $-1 $72 $73 $29 #
cone-surface $-1 -39.758928915444983 -13.390612059482473 2.5489996757594247 0.68199836817093118 0 -0.7313536940579346 1.0970305410869019 0 1.0229975522563968 1 I I 0 1 1.5 forward I I I I #
face $-1 $74 $75 $18 $-1 $76 reversed single #
loop $-1 $-1 $77 $30 #
plane-surface $-1 0 0 -6.1107429365231738 0 0 1 1 0 0 forward_v I I I I #
coedge $-1 $78 $79 $80 $81 forward $31 $-1 #
face $-1 $82 $83 $19 $-1 $84 reversed single #
loop $-1 $-1 $85 $33 #
plane-surface $-1 0 -23.797550204349328 -4.6993915264664876 0 0 1 1 0 0 forward_v I I I I #
coedge $-1 $86 $87 $88 $89 reversed $34 $-1 #
face $-1 $90 $91 $20 $-1 $92 reversed single #
loop $-1 $-1 $93 $36 #
plane-surface $-1 0 23.797550204349331 -4.6993915264664876 0 0 1 1 0 0 forward_v I I I I #
coedge $-1 $94 $95 $96 $97 reversed $37 $-1 #
face $-1 $98 $99 $21 $-1 $100 reversed single #
loop $-1 $-1 $101 $39 #
plane-surface $-1 -43.375347148045286 -15.811355254062837 1.8914896776417649 -0.68199836817093118 0 0.7313536940579346 0.7313536940579346 0 0.68199836817093118 forward_v I I I I #
coedge $-1 $102 $103 $104 $105 reversed $40 $-1 #
face $-1 $-1 $106 $22 $-1 $107 forward single #
loop $-1 $108 $109 $42 #
cone-surface $-1 -37.893309443677367 -18.2320984486432 0.54836777389292912 0.68199836817093118 0 -0.7313536940579346 0.54851527054345095 0 0.51149877612819838 1 I I -0.70710678118654757 0.70710678118654757 0.75 forward I I I I #
loop $-1 $-1 $110 $28 #
coedge $-1 $68 $68 $111 $112 reversed $43 $-1 #
face $-1 $-1 $113 $23 $-1 $114 forward single #
loop $-1 $115 $116 $45 #
cone-surface $-1 -37.893309443677367 -13.390612059482473 0.54836777389292912 0.68199836817093118 0 -0.7313536940579346 0.54851527054345095 0 0.51149877612819838 1 I I -0.70710678118654757 0.70710678118654757 0.75 forward I I I I #
loop $-1 $-1 $117 $29 #
coedge $-1 $73 $73 $118 $119 reversed $46 $-1 #
face $-1 $120 $121 $18 $-1 $122 reversed single #
loop $-1 $-1 $123 $48 #
plane-surface $-1 0 -26.135344367281636 0 0 1 0 0 0 1 forward_v I I I I #
coedge $-1 $124 $125 $126 $127 forward $49 $-1 #
coedge $-1 $128 $51 $129 $130 forward $31 $-1 #
coedge $-1 $51 $128 $131 $132 forward $31 $-1 #
coedge $-1 $133 $134 $51 $81 reversed $135 $-1 #
edge $-1 $136 -26.135344367281636 $137 26.135344367281636 $80 $138 forward 7 unknown #
face $-1 $139 $140 $19 $-1 $141 reversed single #
loop $-1 $-1 $142 $52 #
plane-surface $-1 0 -21.45975604141702 -3.1993915264664876 0 -1 0 0 0 -1 forward_v I I I I #
coedge $-1 $143 $144 $145 $146 reversed $53 $-1 #
coedge $-1 $147 $55 $148 $149 forward $34 $-1 #
coedge $-1 $55 $147 $150 $151 reversed $34 $-1 #
coedge $-1 $152 $153 $55 $89 forward $154 $-1 #
edge $-1 $155 9.5609809392423557 $156 14.236569265106972 $88 $157 forward 7 unknown #
face $-1 $158 $159 $20 $-1 $160 reversed single #
loop $-1 $-1 $161 $56 #
plane-surface $-1 0 21.459756041417023 -3.1993915264664876 0 1 0 0 0 1 forward_v I I I I #
coedge $-1 $162 $163 $164 $165 reversed $57 $-1 #
coedge $-1 $166 $59 $167 $168 reversed $37 $-1 #
coedge $-1 $59 $166 $169 $170 forward $37 $-1 #
coedge $-1 $171 $172 $59 $97 forward $159 $-1 #
edge $-1 $173 -14.236569265106974 $174 -9.5609809392423575 $96 $175 forward 7 unknown #
face $-1 $176 $177 $21 $-1 $178 reversed single #
loop $-1 $-1 $179 $60 #
plane-surface $-1 -102.53917909567437 -21.45975604141702 65.336930413178209 0 1 0 -0.68199836817093118 0 0.7313536940579346 forward_v I I I I #
coedge $-1 $180 $181 $182 $183 reversed $61 $-1 #
coedge $-1 $103 $63 $184 $185 reversed $40 $-1 #
coedge $-1 $63 $102 $180 $186 reversed $40 $-1 #
coedge $-1 $182 $187 $63 $105 forward $177 $-1 #
edge $-1 $188 26.557722270065931 $189 30.776975528947347 $104 $190 forward 7 unknown #
loop $-1 $-1 $111 $64 #
plane-surface $-1 -43.375347148045286 -15.811355254062837 1.8914896776417649 -0.68199836817093118 0 0.7313536940579346 0.7313536940579346 0 0.68199836817093118 forward_v I I I I #
loop $-1 $-1 $191 $42 #
coedge $-1 $109 $109 $110 $192 reversed $65 $-1 #
coedge $-1 $110 $110 $109 $192 forward $67 $-1 #
coedge $-1 $111 $111 $68 $112 forward $106 $-1 #
edge $-1 $193 0 $193 6.2831853071796004 $111 $194 forward 7 unknown #
loop $-1 $-1 $118 $69 #
plane-surface $-1 -43.375347148045286 -15.811355254062837 1.8914896776417649 -0.68199836817093118 0 0.7313536940579346 0.7313536940579346 0 0.68199836817093118 forward_v I I I I #
loop $-1 $-1 $195 $45 #
coedge $-1 $116 $116 $117 $196 reversed $70 $-1 #
coedge $-1 $117 $117 $116 $196 forward $72 $-1 #
coedge $-1 $118 $118 $73 $119 forward $113 $-1 #
edge $-1 $197 0 $197 6.2831853071796004 $118 $198 forward 7 unknown #
face $-1 $199 $200 $18 $-1 $201 reversed single #
loop $-1 $-1 $202 $74 #
plane-surface $-1 -43.375347148045293 0 0 1 0 0 0 0 -1 forward_v I I I I #
coedge $-1 $203 $131 $204 $205 forward $75 $-1 #
coedge $-1 $206 $77 $203 $207 forward $49 $-1 #
coedge $-1 $77 $206 $208 $209 forward $49 $-1 #
coedge $-1 $134 $133 $77 $127 reversed $135 $-1 #
edge $-1 $210 -26.135344367281636 $211 26.135344367281636 $126 $212 forward 7 unknown #
coedge $-1 $79 $78 $213 $214 forward $31 $-1 #
coedge $-1 $215 $216 $78 $130 reversed $200 $-1 #
edge $-1 $137 -43.375347148045293 $217 43.375347148045293 $129 $218 forward 7 unknown #
coedge $-1 $123 $219 $79 $132 reversed $75 $-1 #
edge $-1 $220 -43.375347148045293 $136 43.375347148045293 $131 $221 forward 7 unknown #
coedge $-1 $126 $80 $219 $222 forward $135 $-1 #
coedge $-1 $80 $126 $215 $223 reversed $135 $-1 #
loop $-1 $-1 $133 $199 #
vertex $-1 $81 $224 #
vertex $-1 $81 $225 #
straight-curve $-1 43.375347148045293 0 6.1107429365231738 0 1 0 I I #
face $-1 $226 $227 $19 $-1 $228 reversed single #
loop $-1 $-1 $229 $82 #
plane-surface $-1 -43.375347148045293 0 0 1 0 0 0 0 -1 forward_v I I I I #
coedge $-1 $230 $148 $153 $231 reversed $83 $-1 #
coedge $-1 $232 $85 $233 $234 reversed $53 $-1 #
coedge $-1 $85 $232 $230 $235 forward $53 $-1 #
coedge $-1 $153 $152 $85 $146 forward $154 $-1 #
edge $-1 $236 -14.236569265106972 $237 -9.5609809392423557 $145 $238 forward 7 unknown #
coedge $-1 $87 $86 $229 $239 reversed $34 $-1 #
coedge $-1 $142 $240 $86 $149 reversed $83 $-1 #
edge $-1 $155 -43.375347148045293 $241 43.375347148045293 $148 $242 forward 7 unknown #
coedge $-1 $243 $244 $87 $151 forward $227 $-1 #
edge $-1 $156 -43.375347148045293 $245 43.375347148045293 $150 $246 forward 7 unknown #
coedge $-1 $145 $88 $244 $247 forward $154 $-1 #
coedge $-1 $88 $145 $142 $231 forward $154 $-1 #
loop $-1 $-1 $88 $226 #
vertex $-1 $89 $248 #
vertex $-1 $247 $249 #
straight-curve $-1 43.375347148045293 -11.898775102174664 -1.6993915264664876 0 -1 0 I I #
face $-1 $250 $251 $20 $-1 $252 reversed single #
loop $-1 $-1 $96 $90 #
plane-surface $-1 43.375347148045293 0 0 -1 0 0 0 0 1 forward_v I I I I #
coedge $-1 $253 $169 $254 $255 reversed $91 $-1 #
coedge $-1 $256 $93 $253 $257 forward $57 $-1 #
coedge $-1 $93 $256 $258 $259 reversed $57 $-1 #
coedge $-1 $172 $171 $93 $165 forward $159 $-1 #
edge $-1 $260 9.5609809392423575 $261 14.236569265106974 $164 $262 forward 7 unknown #
coedge $-1 $95 $94 $263 $264 reversed $37 $-1 #
coedge $-1 $265 $266 $94 $168 forward $267 $-1 #
edge $-1 $268 -43.375347148045293 $173 43.375347148045293 $167 $269 forward 7 unknown #
coedge $-1 $161 $270 $95 $170 reversed $91 $-1 #
edge $-1 $271 -43.375347148045293 $174 43.375347148045293 $169 $272 forward 7 unknown #
coedge $-1 $164 $96 $270 $273 forward $159 $-1 #
coedge $-1 $96 $164 $265 $274 reversed $159 $-1 #
vertex $-1 $274 $275 #
vertex $-1 $97 $276 #
straight-curve $-1 43.375347148045293 11.898775102174666 -1.6993915264664876 0 -1 0 I I #
face $-1 $-1 $277 $21 $-1 $278 forward single #
loop $-1 $-1 $104 $98 #
plane-surface $-1 -43.375347148045293 0 0 1 0 0 0 0 -1 forward_v I I I I #
coedge $-1 $279 $280 $281 $282 reversed $99 $-1 #
coedge $-1 $283 $101 $103 $186 forward $61 $-1 #
coedge $-1 $101 $283 $279 $284 forward $61 $-1 #
coedge $-1 $281 $104 $101 $183 forward $177 $-1 #
edge $-1 $189 2.2572768396772362 $285 13.5540784143856 $182 $286 forward 7 unknown #
coedge $-1 $287 $288 $102 $185 forward $277 $-1 #
edge $-1 $289 -12.418837473713694 $188 -7.8942423997918922 $184 $290 forward 7 unknown #
edge $-1 $189 -9.739602292442716e-015 $289 6.186603158886042 $103 $291 forward 7 unknown #
coedge $-1 $104 $281 $287 $292 reversed $177 $-1 #
vertex $-1 $292 $293 #
vertex $-1 $105 $294 #
straight-curve $-1 -43.375347148045293 -10.162954466708655 32.668465206589104 0 0 -1 I I #
coedge $-1 $191 $191 $-1 $295 reversed $108 $-1 #
edge $-1 $296 0 $296 6.2831853071796004 $109 $297 forward 7 unknown #
vertex $-1 $112 $298 #
ellipse-curve $-1 -41.113049611084392 -18.2320984486432 4.0011163070824649 -0.68199836817093118 0 0.7313536940579346 1.0970305410869019 0 1.0229975522563968 1 I I #
coedge $-1 $195 $195 $-1 $299 reversed $115 $-1 #
edge $-1 $300 0 $300 6.2831853071796004 $116 $301 forward 7 unknown #
vertex $-1 $119 $302 #
ellipse-curve $-1 -41.113049611084392 -13.390612059482473 4.0011163070824649 -0.68199836817093118 0 0.7313536940579346 1.0970305410869019 0 1.0229975522563968 1 I I #
face $-1 $-1 $135 $18 $-1 $303 reversed single #
loop $-1 $-1 $215 $120 #
plane-surface $-1 0 26.135344367281636 0 0 -1 0 0 0 -1 forward_v I I I I #
coedge $-1 $304 $213 $216 $305 forward $121 $-1 #
coedge $-1 $219 $123 $124 $207 reversed $75 $-1 #
coedge $-1 $213 $304 $123 $205 reversed $121 $-1 #
edge $-1 $220 -6.1107429365231738 $306 6.1107429365231738 $204 $307 forward 7 unknown #
coedge $-1 $125 $124 $304 $308 forward $49 $-1 #
edge $-1 $211 -43.375347148045293 $306 43.375347148045293 $203 $309 forward 7 unknown #
coedge $-1 $216 $215 $125 $209 reversed $200 $-1 #
edge $-1 $310 -43.375347148045293 $210 43.375347148045293 $208 $311 forward 7 unknown #
vertex $-1 $127 $312 #
vertex $-1 $222 $313 #
straight-curve $-1 43.375347148045293 0 -6.1107429365231738 0 -1 0 I I #
coedge $-1 $202 $204 $128 $214 reversed $121 $-1 #
edge $-1 $217 -26.135344367281636 $220 26.135344367281636 $213 $314 forward 7 unknown #
coedge $-1 $208 $129 $134 $223 forward $200 $-1 #
coedge $-1 $129 $208 $202 $305 reversed $200 $-1 #
vertex $-1 $130 $315 #
straight-curve $-1 0 26.135344367281636 6.1107429365231738 -1 0 0 I I #
coedge $-1 $131 $203 $133 $222 reversed $75 $-1 #
vertex $-1 $214 $316 #
straight-curve $-1 0 -26.135344367281636 6.1107429365231738 1 0 0 I I #
edge $-1 $136 -6.1107429365231738 $211 6.1107429365231738 $133 $317 forward 7 unknown #
edge $-1 $137 -6.1107429365231738 $210 6.1107429365231738 $134 $318 forward 7 unknown #
point $-1 43.375347148045293 -26.135344367281636 6.1107429365231738 #
point $-1 43.375347148045293 26.135344367281636 6.1107429365231738 #
face $-1 $-1 $154 $19 $-1 $319 reversed single #
loop $-1 $-1 $150 $139 #
plane-surface $-1 0 -26.135344367281636 0 0 1 0 0 0 1 forward_v I I I I #
coedge $-1 $320 $321 $147 $239 forward $140 $-1 #
coedge $-1 $240 $142 $144 $235 reversed $83 $-1 #
edge $-1 $237 -3.0996957632332438 $155 -0.099695763233243806 $153 $322 forward 7 unknown #
coedge $-1 $144 $143 $323 $324 reversed $53 $-1 #
coedge $-1 $244 $243 $143 $234 forward $227 $-1 #
edge $-1 $325 -43.375347148045293 $236 43.375347148045293 $233 $326 forward 7 unknown #
edge $-1 $327 -43.375347148045293 $237 43.375347148045293 $230 $328 forward 7 unknown #
vertex $-1 $234 $329 #
vertex $-1 $146 $330 #
straight-curve $-1 43.375347148045293 -11.898775102174664 -4.6993915264664876 0 1 0 I I #
edge $-1 $245 -14.236569265106972 $241 -9.5609809392423557 $229 $331 forward 7 unknown #
coedge $-1 $148 $230 $320 $332 reversed $83 $-1 #
vertex $-1 $239 $333 #
straight-curve $-1 0 -21.45975604141702 -1.6993915264664876 -1 0 0 I I #
coedge $-1 $233 $150 $321 $334 forward $227 $-1 #
coedge $-1 $150 $233 $152 $247 reversed $227 $-1 #
vertex $-1 $334 $335 #
straight-curve $-1 0 -26.135344367281636 -1.6993915264664876 -1 0 0 I I #
edge $-1 $156 1.6993915264664876 $236 4.6993915264664876 $152 $336 forward 7 unknown #
point $-1 43.375347148045293 -21.45975604141702 -1.6993915264664876 #
point $-1 43.375347148045293 -26.135344367281636 -1.6993915264664876 #
face $-1 $-1 $267 $20 $-1 $337 reversed single #
loop $-1 $-1 $263 $158 #
plane-surface $-1 -43.375347148045293 0 0 1 0 0 0 0 -1 forward_v I I I I #
coedge $-1 $270 $161 $162 $257 reversed $91 $-1 #
coedge $-1 $263 $338 $161 $255 forward $251 $-1 #
edge $-1 $339 -3.0996957632332438 $271 -0.099695763233243806 $254 $340 forward 7 unknown #
coedge $-1 $163 $162 $338 $341 reversed $57 $-1 #
edge $-1 $260 -43.375347148045293 $339 43.375347148045293 $253 $342 forward 7 unknown #
coedge $-1 $266 $265 $163 $259 forward $267 $-1 #
edge $-1 $261 -43.375347148045293 $343 43.375347148045293 $258 $344 forward 7 unknown #
vertex $-1 $165 $345 #
vertex $-1 $259 $346 #
straight-curve $-1 43.375347148045293 11.898775102174666 -4.6993915264664876 0 1 0 I I #
coedge $-1 $347 $254 $166 $264 forward $251 $-1 #
edge $-1 $271 9.5609809392423575 $268 14.236569265106974 $263 $348 forward 7 unknown #
coedge $-1 $258 $167 $172 $274 forward $267 $-1 #
coedge $-1 $167 $258 $347 $349 reversed $267 $-1 #
loop $-1 $-1 $167 $250 #
vertex $-1 $349 $350 #
straight-curve $-1 0 26.135344367281636 -1.6993915264664876 1 0 0 I I #
coedge $-1 $169 $253 $171 $273 reversed $91 $-1 #
vertex $-1 $264 $351 #
straight-curve $-1 0 21.459756041417023 -1.6993915264664876 1 0 0 I I #
edge $-1 $174 0.099695763233243806 $260 3.0996957632332438 $171 $352 forward 7 unknown #
edge $-1 $173 1.6993915264664876 $261 4.6993915264664876 $172 $353 forward 7 unknown #
point $-1 43.375347148045293 26.13534436728164 -1.6993915264664876 #
point $-1 43.375347148045293 21.459756041417023 -1.6993915264664876 #
loop $-1 $-1 $184 $176 #
plane-surface $-1 0 0 6.1107429365231738 0 0 1 1 0 0 forward_v I I I I #
coedge $-1 $280 $179 $181 $284 reversed $99 $-1 #
coedge $-1 $179 $279 $354 $355 reversed $99 $-1 #
coedge $-1 $187 $182 $179 $282 forward $177 $-1 #
edge $-1 $285 -30.776975528947347 $356 -26.557722270065931 $281 $357 forward 7 unknown #
coedge $-1 $181 $180 $288 $358 reversed $61 $-1 #
edge $-1 $359 -6.186603158886042 $285 9.739602292442716e-015 $279 $360 forward 7 unknown #
vertex $-1 $183 $361 #
straight-curve $-1 -43.375347148045293 -7.9056776270314186 1.8914896776417602 0 -1 0 I I #
coedge $-1 $354 $184 $187 $292 forward $277 $-1 #
coedge $-1 $184 $354 $283 $358 forward $277 $-1 #
vertex $-1 $185 $362 #
straight-curve $-1 -51.269589547837185 -10.162954466708655 6.1107429365231738 -1 0 0 I I #
straight-curve $-1 -43.375347148045286 -10.162954466708655 1.8914896776417649 0.7313536940579346 0 0.68199836817093118 I I #
edge $-1 $188 10.162954466708655 $356 21.45975604141702 $187 $363 forward 7 unknown #
point $-1 -43.375347148045293 -10.162954466708655 6.1107429365231738 #
point $-1 -43.375347148045293 -10.162954466708655 1.8914896776417582 #
edge $-1 $364 1 $364 0 $191 $-1 forward 7 unknown #
vertex $-1 $192 $365 #
ellipse-curve $-1 -38.404808219805567 -18.2320984486432 1.09688304443638 -0.68199836817093118 0 0.7313536940579346 1.0970305410869019 0 1.0229975522563968 1 I I #
point $-1 -40.01601906999749 -18.2320984486432 5.0241138593388666 #
edge $-1 $366 1 $366 0 $195 $-1 forward 7 unknown #
vertex $-1 $196 $367 #
ellipse-curve $-1 -38.404808219805567 -13.390612059482473 1.09688304443638 -0.68199836817093118 0 0.7313536940579346 1.0970305410869019 0 1.0229975522563968 1 I I #
point $-1 -40.01601906999749 -13.390612059482473 5.0241138593388666 #
plane-surface $-1 43.375347148045293 0 0 -1 0 0 0 0 1 forward_v I I I I #
coedge $-1 $204 $202 $206 $308 reversed $121 $-1 #
edge $-1 $217 -6.1107429365231738 $310 6.1107429365231738 $216 $368 forward 7 unknown #
vertex $-1 $308 $369 #
straight-curve $-1 -43.375347148045293 -26.135344367281636 0 0 0 -1 I I #
edge $-1 $306 -26.135344367281636 $310 26.135344367281636 $304 $370 forward 7 unknown #
straight-curve $-1 0 -26.135344367281636 -6.1107429365231738 -1 0 0 I I #
vertex $-1 $209 $371 #
straight-curve $-1 0 26.135344367281636 -6.1107429365231738 1 0 0 I I #
point $-1 43.375347148045293 26.135344367281636 -6.1107429365231738 #
point $-1 43.375347148045293 -26.135344367281636 -6.1107429365231738 #
straight-curve $-1 -43.375347148045293 0 6.1107429365231738 0 -1 0 I I #
point $-1 -43.375347148045293 26.135344367281636 6.1107429365231738 #
point $-1 -43.375347148045293 -26.135344367281636 6.1107429365231738 #
straight-curve $-1 43.375347148045293 -26.135344367281636 0 0 0 -1 I I #
straight-curve $-1 43.375347148045293 26.135344367281636 0 0 0 -1 I I #
plane-surface $-1 43.375347148045293 0 0 -1 0 0 0 0 1 forward_v I I I I #
coedge $-1 $323 $229 $240 $332 forward $140 $-1 #
coedge $-1 $229 $323 $243 $334 reversed $140 $-1 #
straight-curve $-1 43.375347148045293 -21.45975604141702 -1.5996957632332438 0 0 1 I I #
coedge $-1 $321 $320 $232 $324 forward $140 $-1 #
edge $-1 $327 9.5609809392423557 $325 14.236569265106972 $323 $372 forward 7 unknown #
vertex $-1 $234 $373 #
straight-curve $-1 0 -26.135344367281636 -4.6993915264664876 1 0 0 I I #
vertex $-1 $324 $374 #
straight-curve $-1 0 -21.45975604141702 -4.6993915264664876 1 0 0 I I #
point $-1 43.375347148045293 -26.135344367281636 -4.6993915264664876 #
point $-1 43.375347148045293 -21.45975604141702 -4.6993915264664876 #
straight-curve $-1 -43.375347148045293 -11.898775102174664 -1.6993915264664876 0 1 0 I I #
edge $-1 $241 0.099695763233243806 $327 3.0996957632332438 $320 $375 forward 7 unknown #
point $-1 -43.375347148045293 -21.45975604141702 -1.6993915264664876 #
edge $-1 $245 1.6993915264664876 $325 4.6993915264664876 $321 $376 forward 7 unknown #
point $-1 -43.375347148045293 -26.135344367281636 -1.6993915264664876 #
straight-curve $-1 43.375347148045293 -26.135344367281636 0 0 0 -1 I I #
plane-surface $-1 0 26.135344367281636 0 0 -1 0 0 0 -1 forward_v I I I I #
coedge $-1 $254 $347 $256 $341 forward $251 $-1 #
vertex $-1 $341 $377 #
straight-curve $-1 -43.375347148045293 21.459756041417023 -1.5996957632332438 0 0 1 I I #
edge $-1 $343 -14.236569265106974 $339 -9.5609809392423575 $338 $378 forward 7 unknown #
straight-curve $-1 0 21.459756041417023 -4.6993915264664876 -1 0 0 I I #
vertex $-1 $259 $379 #
straight-curve $-1 0 26.135344367281636 -4.6993915264664876 -1 0 0 I I #
point $-1 43.375347148045293 21.459756041417023 -4.6993915264664876 #
point $-1 43.375347148045293 26.13534436728164 -4.6993915264664876 #
coedge $-1 $338 $263 $266 $349 forward $251 $-1 #
straight-curve $-1 -43.375347148045293 11.898775102174666 -1.6993915264664876 0 1 0 I I #
edge $-1 $268 1.6993915264664876 $343 4.6993915264664876 $266 $380 forward 7 unknown #
point $-1 -43.375347148045293 26.13534436728164 -1.6993915264664876 #
point $-1 -43.375347148045293 21.459756041417023 -1.6993915264664876 #
straight-curve $-1 43.375347148045293 21.459756041417023 -1.5996957632332438 0 0 -1 I I #
straight-curve $-1 43.375347148045293 26.135344367281636 0 0 0 -1 I I #
coedge $-1 $288 $287 $280 $355 forward $277 $-1 #
edge $-1 $356 7.8942423997918922 $359 12.418837473713694 $354 $381 forward 7 unknown #
vertex $-1 $355 $382 #
straight-curve $-1 -43.375347148045293 -21.45975604141702 32.668465206589104 0 0 1 I I #
edge $-1 $359 -13.5540784143856 $289 -2.2572768396772362 $288 $383 forward 7 unknown #
vertex $-1 $358 $384 #
straight-curve $-1 -43.375347148045286 -21.45975604141702 1.8914896776417649 -0.7313536940579346 0 -0.68199836817093118 I I #
point $-1 -43.375347148045293 -21.45975604141702 1.8914896776417582 #
point $-1 -38.850752074123491 -10.162954466708655 6.1107429365231738 #
straight-curve $-1 -43.375347148045293 0 6.1107429365231738 0 -1 0 I I #
vertex $-1 $295 $385 #
point $-1 -37.307777678718665 -18.2320984486432 2.1198805966927767 #
vertex $-1 $299 $386 #
point $-1 -37.307777678718665 -13.390612059482473 2.1198805966927767 #
straight-curve $-1 -43.375347148045293 26.135344367281636 0 0 0 -1 I I #
point $-1 -43.375347148045293 -26.135344367281636 -6.1107429365231738 #
straight-curve $-1 -43.375347148045293 0 -6.1107429365231738 0 1 0 I I #
point $-1 -43.375347148045293 26.135344367281636 -6.1107429365231738 #
straight-curve $-1 -43.375347148045293 -11.898775102174664 -4.6993915264664876 0 -1 0 I I #
point $-1 -43.375347148045293 -26.135344367281636 -4.6993915264664876 #
point $-1 -43.375347148045293 -21.45975604141702 -4.6993915264664876 #
straight-curve $-1 -43.375347148045293 -21.45975604141702 -1.5996957632332438 0 0 -1 I I #
straight-curve $-1 -43.375347148045293 -26.135344367281636 0 0 0 -1 I I #
point $-1 -43.375347148045293 21.459756041417023 -4.6993915264664876 #
straight-curve $-1 -43.375347148045293 11.898775102174666 -4.6993915264664876 0 -1 0 I I #
point $-1 -43.375347148045293 26.13534436728164 -4.6993915264664876 #
straight-curve $-1 -43.375347148045293 26.135344367281636 0 0 0 -1 I I #
straight-curve $-1 -51.269589547837185 -21.45975604141702 6.1107429365231738 1 0 0 I I #
point $-1 -43.375347148045293 -21.45975604141702 6.1107429365231738 #
straight-curve $-1 -38.850752074123491 -7.9056776270314186 6.1107429365231729 0 1 0 I I #
point $-1 -38.850752074123491 -21.45975604141702 6.1107429365231738 #
point $-1 -37.381810667549168 -18.2320984486432 -0.00014749665052182781 #
point $-1 -37.381810667549168 -13.390612059482473 -0.00014749665052182781 #
End-of-ACIS-data 