500 0 12 0           
7 Unknown 11 ACIS 5.0 NT 24 Thu Mar 25 22:56:31 1999 
-1 9.9999999999999995e-007 1e-010 
body $-1 $12 $-1 $13 #
body $-1 $14 $-1 $15 #
body $-1 $16 $-1 $17 #
body $-1 $18 $-1 $19 #
body $-1 $20 $-1 $21 #
body $-1 $22 $-1 $23 #
body $-1 $24 $-1 $25 #
body $-1 $26 $-1 $27 #
body $-1 $28 $-1 $29 #
body $-1 $30 $-1 $31 #
body $-1 $32 $-1 $33 #
body $-1 $34 $-1 $35 #
lump $-1 $-1 $36 $0 #
transform $-1 1 0 0 0 1 0 0 0 1 48.210699789422286 19.662997348728823 7.7730858350562784 1 rotate no_reflect no_shear #
lump $-1 $-1 $37 $1 #
transform $-1 1 0 0 0 1 0 0 0 1 48.210699789422286 19.662997348728823 7.7730858350562784 1 rotate no_reflect no_shear #
lump $-1 $-1 $38 $2 #
transform $-1 1 0 0 0 1 0 0 0 1 48.210699789422286 19.662997348728823 7.7730858350562784 1 rotate no_reflect no_shear #
lump $-1 $-1 $39 $3 #
transform $-1 1 0 0 0 1 0 0 0 1 48.210699789422286 19.662997348728823 7.7730858350562784 1 rotate no_reflect no_shear #
lump $-1 $-1 $40 $4 #
transform $-1 1 0 0 0 1 0 0 0 1 48.210699789422286 19.662997348728823 7.7730858350562784 1 rotate no_reflect no_shear #
lump $-1 $-1 $41 $5 #
transform $-1 1 0 0 0 1 0 0 0 1 48.210699789422286 19.662997348728823 7.7730858350562784 1 rotate no_reflect no_shear #
lump $-1 $-1 $42 $6 #
transform $-1 1 0 0 0 1 0 0 0 1 48.210699789422286 19.662997348728823 7.7730858350562784 1 rotate no_reflect no_shear #
lump $-1 $-1 $43 $7 #
transform $-1 1 0 0 0 1 0 0 0 1 48.210699789422286 19.662997348728823 7.7730858350562784 1 rotate no_reflect no_shear #
lump $-1 $-1 $44 $8 #
transform $-1 1 0 0 0 1 0 0 0 1 48.210699789422286 19.662997348728823 7.7730858350562784 1 rotate no_reflect no_shear #
lump $-1 $-1 $45 $9 #
transform $-1 1 0 0 0 1 0 0 0 1 48.210699789422286 19.662997348728823 7.7730858350562784 1 rotate no_reflect no_shear #
lump $-1 $-1 $46 $10 #
transform $-1 1 0 0 0 1 0 0 0 1 48.210699789422286 19.662997348728823 7.7730858350562784 1 rotate no_reflect no_shear #
lump $-1 $-1 $47 $11 #
transform $-1 1 0 0 0 1 0 0 0 1 48.210699789422286 19.662997348728823 7.7730858350562784 1 rotate no_reflect no_shear #
shell $-1 $-1 $-1 $48 $-1 $12 #
shell $-1 $-1 $-1 $49 $-1 $14 #
shell $-1 $-1 $-1 $50 $-1 $16 #
shell $-1 $-1 $-1 $51 $-1 $18 #
shell $-1 $-1 $-1 $52 $-1 $20 #
shell $-1 $-1 $-1 $53 $-1 $22 #
shell $-1 $-1 $-1 $54 $-1 $24 #
shell $-1 $-1 $-1 $55 $-1 $26 #
shell $-1 $-1 $-1 $56 $-1 $28 #
shell $-1 $-1 $-1 $57 $-1 $30 #
shell $-1 $-1 $-1 $58 $-1 $32 #
shell $-1 $-1 $-1 $59 $-1 $34 #
face $-1 $60 $61 $36 $-1 $62 forward single #
face $-1 $63 $64 $37 $-1 $65 forward single #
face $-1 $66 $67 $38 $-1 $68 reversed single #
face $-1 $69 $70 $39 $-1 $71 forward single #
face $-1 $72 $73 $40 $-1 $74 forward single #
face $-1 $75 $76 $41 $-1 $77 reversed single #
face $-1 $78 $79 $42 $-1 $80 forward single #
face $-1 $81 $82 $43 $-1 $83 forward single #
face $-1 $84 $85 $44 $-1 $86 reversed single #
face $-1 $87 $88 $45 $-1 $89 forward single #
face $-1 $90 $91 $46 $-1 $92 forward single #
face $-1 $93 $94 $47 $-1 $95 forward single #
face $-1 $96 $97 $36 $-1 $98 reversed single #
loop $-1 $-1 $99 $48 #
plane-surface $-1 0 0 7.7730858350562784 0 0 1 1 0 0 forward_v I I I I #
face $-1 $100 $101 $37 $-1 $102 reversed single #
loop $-1 $-1 $103 $49 #
plane-surface $-1 -44.010628730020905 0 2.8475829704568962 0 0 1 1 0 0 forward_v I I I I #
face $-1 $104 $105 $38 $-1 $106 reversed single #
loop $-1 $-1 $107 $50 #
plane-surface $-1 -17.261022630649069 48.036632730185573 102.54206992964193 1 0 0 0 -0.61566148304635926 -0.78801074757464917 forward_v I I I I #
face $-1 $108 $109 $39 $-1 $110 forward single #
loop $-1 $111 $112 $51 #
cone-surface $-1 -12.511760620203077 15.482359923775491 4.152926680770709 0 -0.61566148304635926 -0.78801074757464917 2 0 0 1 I I 0 1 2 forward I I I I #
face $-1 $113 $114 $40 $-1 $115 forward single #
loop $-1 $116 $117 $52 #
cone-surface $-1 -5.387867604534101 15.482359923775491 4.152926680770709 0 -0.61566148304635926 -0.78801074757464917 2 0 0 1 I I 0 1 2 forward I I I I #
face $-1 $118 $119 $41 $-1 $120 reversed single #
loop $-1 $-1 $121 $53 #
plane-surface $-1 26.749606099371828 48.036632730185573 102.54206992964193 1 0 0 0 -0.61566148304635926 -0.78801074757464917 forward_v I I I I #
face $-1 $122 $123 $42 $-1 $124 forward single #
loop $-1 $125 $126 $54 #
cone-surface $-1 31.498868109817828 15.482359923775491 4.152926680770709 0 -0.61566148304635926 -0.78801074757464917 2 0 0 1 I I 0 1 2 forward I I I I #
face $-1 $127 $128 $43 $-1 $129 forward single #
loop $-1 $130 $131 $55 #
cone-surface $-1 38.622761125486811 15.482359923775491 4.152926680770709 0 -0.61566148304635926 -0.78801074757464917 2 0 0 1 I I 0 1 2 forward I I I I #
face $-1 $132 $133 $44 $-1 $134 reversed single #
loop $-1 $-1 $135 $56 #
plane-surface $-1 28.224440650040684 -100.52878806739911 53.996731957334632 -1 0 0 0 -0.83867057594974714 0.54463902268945019 forward_v I I I I #
face $-1 $136 $137 $45 $-1 $138 forward single #
loop $-1 $139 $140 $57 #
cone-surface $-1 21.099787801570535 -16.878948516401607 4.1460948461268279 0 0.83867057594974714 -0.54463902268945019 0.5 0 0 1 I I 0 1 0.5 forward I I I I #
face $-1 $141 $142 $46 $-1 $143 forward single #
loop $-1 $144 $145 $58 #
cone-surface $-1 23.771532619746843 -16.878948516401607 4.1460948461268279 0 0.83867057594974714 -0.54463902268945019 0.5 0 0 1 I I 0 1 0.5 forward I I I I #
face $-1 $146 $147 $47 $-1 $148 forward single #
loop $-1 $149 $150 $59 #
cone-surface $-1 26.44327743792315 -16.878948516401607 4.1460948461268279 0 0.83867057594974714 -0.54463902268945019 0.5 0 0 1 I I 0 1 0.5 forward I I I I #
face $-1 $151 $152 $36 $-1 $153 reversed single #
loop $-1 $-1 $154 $60 #
plane-surface $-1 0 0 -7.7730858350562784 0 0 1 1 0 0 forward_v I I I I #
coedge $-1 $155 $156 $157 $158 forward $61 $-1 #
face $-1 $159 $160 $37 $-1 $161 reversed single #
loop $-1 $-1 $162 $63 #
plane-surface $-1 -44.010628730020905 0 -0.15241702954310377 0 0 1 1 0 0 forward_v I I I I #
coedge $-1 $163 $164 $165 $166 forward $64 $-1 #
face $-1 $167 $168 $38 $-1 $169 reversed single #
loop $-1 $-1 $170 $66 #
plane-surface $-1 -8.9498141123685926 -11.326309131931474 26.560970765322651 0 0.61566148304635926 0.78801074757464917 1 0 0 forward_v I I I I #
coedge $-1 $171 $172 $173 $174 reversed $67 $-1 #
face $-1 $-1 $175 $39 $-1 $176 forward single #
loop $-1 $177 $178 $69 #
cone-surface $-1 -12.511760620203077 14.157016447377771 2.4565644226323187 0 -0.61566148304635926 -0.78801074757464917 1 0 0 1 I I -0.70710678118654746 0.70710678118654746 1 forward I I I I #
loop $-1 $-1 $179 $51 #
coedge $-1 $112 $112 $180 $181 reversed $70 $-1 #
face $-1 $-1 $182 $40 $-1 $183 forward single #
loop $-1 $184 $185 $72 #
cone-surface $-1 -5.387867604534101 14.157016447377771 2.4565644226323187 0 -0.61566148304635926 -0.78801074757464917 1 0 0 1 I I -0.70710678118654746 0.70710678118654746 1 forward I I I I #
loop $-1 $-1 $186 $52 #
coedge $-1 $117 $117 $187 $188 reversed $73 $-1 #
face $-1 $189 $190 $41 $-1 $191 reversed single #
loop $-1 $-1 $192 $75 #
plane-surface $-1 35.060814617652305 -11.326309131931474 26.560970765322651 0 0.61566148304635926 0.78801074757464917 1 0 0 forward_v I I I I #
coedge $-1 $193 $194 $195 $196 reversed $76 $-1 #
face $-1 $-1 $197 $42 $-1 $198 forward single #
loop $-1 $199 $200 $78 #
cone-surface $-1 31.498868109817828 14.157016447377771 2.4565644226323187 0 -0.61566148304635926 -0.78801074757464917 1 0 0 1 I I -0.70710678118654746 0.70710678118654746 1 forward I I I I #
loop $-1 $-1 $201 $54 #
coedge $-1 $126 $126 $202 $203 reversed $79 $-1 #
face $-1 $-1 $204 $43 $-1 $205 forward single #
loop $-1 $206 $207 $81 #
cone-surface $-1 38.622761125486811 14.157016447377771 2.4565644226323187 0 -0.61566148304635926 -0.78801074757464917 1 0 0 1 I I -0.70710678118654746 0.70710678118654746 1 forward I I I I #
loop $-1 $-1 $208 $55 #
coedge $-1 $131 $131 $209 $210 reversed $82 $-1 #
face $-1 $211 $212 $44 $-1 $213 reversed single #
loop $-1 $-1 $214 $84 #
plane-surface $-1 23.771532619746843 -19.662997348728823 1.4818751243637607 0 -0.83867057594974714 0.54463902268945019 1 0 0 forward_v I I I I #
coedge $-1 $215 $216 $217 $218 reversed $85 $-1 #
face $-1 $-1 $219 $45 $-1 $220 forward single #
loop $-1 $221 $222 $87 #
cone-surface $-1 21.099787801570535 -15.928011977325557 3.5285494568712714 0 0.83867057594974714 -0.54463902268945019 0.25 0 0 1 I I -0.70710678118654746 0.70710678118654746 0.25 forward I I I I #
loop $-1 $-1 $223 $57 #
coedge $-1 $140 $140 $224 $225 reversed $88 $-1 #
face $-1 $-1 $226 $46 $-1 $227 forward single #
loop $-1 $228 $229 $90 #
cone-surface $-1 23.771532619746843 -15.928011977325557 3.5285494568712714 0 0.83867057594974714 -0.54463902268945019 0.25 0 0 1 I I -0.70710678118654746 0.70710678118654746 0.25 forward I I I I #
loop $-1 $-1 $230 $58 #
coedge $-1 $145 $145 $231 $232 reversed $91 $-1 #
face $-1 $-1 $233 $47 $-1 $234 forward single #
loop $-1 $235 $236 $93 #
cone-surface $-1 26.44327743792315 -15.928011977325557 3.5285494568712714 0 0.83867057594974714 -0.54463902268945019 0.25 0 0 1 I I -0.70710678118654746 0.70710678118654746 0.25 forward I I I I #
loop $-1 $-1 $237 $59 #
coedge $-1 $150 $150 $238 $239 reversed $94 $-1 #
face $-1 $240 $241 $36 $-1 $242 reversed single #
loop $-1 $-1 $243 $96 #
plane-surface $-1 0 -19.662997348728823 0 0 1 0 0 0 1 forward_v I I I I #
coedge $-1 $244 $245 $246 $247 forward $97 $-1 #
coedge $-1 $248 $99 $249 $250 forward $61 $-1 #
coedge $-1 $99 $248 $251 $252 forward $61 $-1 #
coedge $-1 $253 $254 $99 $158 reversed $255 $-1 #
edge $-1 $256 -19.662997348728823 $257 19.662997348728823 $157 $258 forward 7 unknown #
face $-1 $259 $260 $37 $-1 $261 reversed single #
loop $-1 $-1 $262 $100 #
plane-surface $-1 -39.810557670619524 0 1.3475829704568962 -1 0 0 0 0 1 forward_v I I I I #
coedge $-1 $263 $264 $265 $266 forward $101 $-1 #
coedge $-1 $267 $103 $268 $269 reversed $64 $-1 #
coedge $-1 $103 $267 $270 $271 reversed $64 $-1 #
coedge $-1 $262 $272 $103 $166 reversed $160 $-1 #
edge $-1 $273 -19.662997348728823 $274 19.662997348728823 $165 $275 forward 7 unknown #
face $-1 $276 $277 $38 $-1 $278 forward single #
loop $-1 $-1 $279 $104 #
plane-surface $-1 -0.63860559408811568 48.036632730185573 102.54206992964193 -1 0 0 0 0.61566148304635926 0.78801074757464917 forward_v I I I I #
coedge $-1 $280 $281 $282 $283 reversed $105 $-1 #
coedge $-1 $172 $107 $284 $285 reversed $67 $-1 #
coedge $-1 $107 $171 $280 $286 reversed $67 $-1 #
coedge $-1 $282 $287 $107 $174 forward $277 $-1 #
edge $-1 $288 4.3553190163639641 $289 11.297229879567922 $173 $290 forward 7 unknown #
loop $-1 $-1 $180 $108 #
plane-surface $-1 -8.9498141123685926 -11.326309131931474 26.560970765322651 0 0.61566148304635926 0.78801074757464917 1 0 0 forward_v I I I I #
loop $-1 $-1 $291 $69 #
coedge $-1 $178 $178 $179 $292 reversed $109 $-1 #
coedge $-1 $179 $179 $178 $292 forward $111 $-1 #
coedge $-1 $180 $180 $112 $181 forward $175 $-1 #
edge $-1 $293 -2.4066344827192004e-016 $293 6.2831853071796004 $180 $294 forward 7 unknown #
loop $-1 $-1 $187 $113 #
plane-surface $-1 -8.9498141123685926 -11.326309131931474 26.560970765322651 0 0.61566148304635926 0.78801074757464917 1 0 0 forward_v I I I I #
loop $-1 $-1 $295 $72 #
coedge $-1 $185 $185 $186 $296 reversed $114 $-1 #
coedge $-1 $186 $186 $185 $296 forward $116 $-1 #
coedge $-1 $187 $187 $117 $188 forward $182 $-1 #
edge $-1 $297 -2.4066344827192004e-016 $297 6.2831853071796004 $187 $298 forward 7 unknown #
face $-1 $299 $300 $41 $-1 $301 forward single #
loop $-1 $-1 $302 $118 #
plane-surface $-1 43.372023135932778 48.036632730185573 102.54206992964193 -1 0 0 0 0.61566148304635926 0.78801074757464917 forward_v I I I I #
coedge $-1 $303 $304 $305 $306 reversed $119 $-1 #
coedge $-1 $194 $121 $307 $308 reversed $76 $-1 #
coedge $-1 $121 $193 $303 $309 reversed $76 $-1 #
coedge $-1 $305 $310 $121 $196 forward $300 $-1 #
edge $-1 $311 4.3553190163639641 $312 11.297229879567922 $195 $313 forward 7 unknown #
loop $-1 $-1 $202 $122 #
plane-surface $-1 35.060814617652305 -11.326309131931474 26.560970765322651 0 0.61566148304635926 0.78801074757464917 1 0 0 forward_v I I I I #
loop $-1 $-1 $314 $78 #
coedge $-1 $200 $200 $201 $315 reversed $123 $-1 #
coedge $-1 $201 $201 $200 $315 forward $125 $-1 #
coedge $-1 $202 $202 $126 $203 forward $197 $-1 #
edge $-1 $316 -2.4066344827192004e-016 $316 6.2831853071796004 $202 $317 forward 7 unknown #
loop $-1 $-1 $209 $127 #
plane-surface $-1 35.060814617652305 -11.326309131931474 26.560970765322651 0 0.61566148304635926 0.78801074757464917 1 0 0 forward_v I I I I #
loop $-1 $-1 $318 $81 #
coedge $-1 $207 $207 $208 $319 reversed $128 $-1 #
coedge $-1 $208 $208 $207 $319 forward $130 $-1 #
coedge $-1 $209 $209 $131 $210 forward $204 $-1 #
edge $-1 $320 -2.4066344827192004e-016 $320 6.2831853071796004 $209 $321 forward 7 unknown #
face $-1 $322 $323 $44 $-1 $324 reversed single #
loop $-1 $-1 $325 $132 #
plane-surface $-1 19.318624589453002 -100.52878806739911 53.996731957334632 1 0 0 0 0.83867057594974714 -0.54463902268945019 forward_v I I I I #
coedge $-1 $326 $327 $328 $329 reversed $133 $-1 #
coedge $-1 $216 $135 $330 $331 reversed $85 $-1 #
coedge $-1 $135 $215 $326 $332 reversed $85 $-1 #
coedge $-1 $328 $333 $135 $218 forward $334 $-1 #
edge $-1 $335 30.60139668497073 $336 34.686956559447935 $217 $337 forward 7 unknown #
loop $-1 $-1 $224 $136 #
plane-surface $-1 23.771532619746843 -19.662997348728823 1.4818751243637607 0 -0.83867057594974714 0.54463902268945019 1 0 0 forward_v I I I I #
loop $-1 $-1 $338 $87 #
coedge $-1 $222 $222 $223 $339 reversed $137 $-1 #
coedge $-1 $223 $223 $222 $339 forward $139 $-1 #
coedge $-1 $224 $224 $140 $225 forward $219 $-1 #
edge $-1 $340 1.4897782135920807e-015 $340 6.2831853071796022 $224 $341 forward 7 unknown #
loop $-1 $-1 $231 $141 #
plane-surface $-1 23.771532619746843 -19.662997348728823 1.4818751243637607 0 -0.83867057594974714 0.54463902268945019 1 0 0 forward_v I I I I #
loop $-1 $-1 $342 $90 #
coedge $-1 $229 $229 $230 $343 reversed $142 $-1 #
coedge $-1 $230 $230 $229 $343 forward $144 $-1 #
coedge $-1 $231 $231 $145 $232 forward $226 $-1 #
edge $-1 $344 1.4897782135920807e-015 $344 6.2831853071796022 $231 $345 forward 7 unknown #
loop $-1 $-1 $238 $146 #
plane-surface $-1 23.771532619746843 -19.662997348728823 1.4818751243637607 0 -0.83867057594974714 0.54463902268945019 1 0 0 forward_v I I I I #
loop $-1 $-1 $346 $93 #
coedge $-1 $236 $236 $237 $347 reversed $147 $-1 #
coedge $-1 $237 $237 $236 $347 forward $149 $-1 #
coedge $-1 $238 $238 $150 $239 forward $233 $-1 #
edge $-1 $348 1.4897782135920807e-015 $348 6.2831853071796022 $238 $349 forward 7 unknown #
face $-1 $350 $351 $36 $-1 $352 reversed single #
loop $-1 $-1 $353 $151 #
plane-surface $-1 -48.210699789422286 0 0 1 0 0 0 0 -1 forward_v I I I I #
coedge $-1 $354 $251 $355 $356 forward $152 $-1 #
coedge $-1 $357 $154 $354 $358 forward $97 $-1 #
coedge $-1 $154 $357 $359 $360 forward $97 $-1 #
coedge $-1 $254 $253 $154 $247 reversed $255 $-1 #
edge $-1 $361 -19.662997348728823 $362 19.662997348728823 $246 $363 forward 7 unknown #
coedge $-1 $156 $155 $364 $365 forward $61 $-1 #
coedge $-1 $366 $367 $155 $250 reversed $351 $-1 #
edge $-1 $257 -48.210699789422286 $368 48.210699789422286 $249 $369 forward 7 unknown #
coedge $-1 $243 $370 $156 $252 reversed $152 $-1 #
edge $-1 $371 -48.210699789422286 $256 48.210699789422286 $251 $372 forward 7 unknown #
coedge $-1 $246 $157 $370 $373 forward $255 $-1 #
coedge $-1 $157 $246 $366 $374 reversed $255 $-1 #
loop $-1 $-1 $253 $350 #
vertex $-1 $158 $375 #
vertex $-1 $158 $376 #
straight-curve $-1 48.210699789422286 0 7.7730858350562784 0 1 0 I I #
face $-1 $377 $378 $37 $-1 $379 reversed single #
loop $-1 $-1 $380 $159 #
plane-surface $-1 0 -19.662997348728823 0 0 1 0 0 0 1 forward_v I I I I #
coedge $-1 $265 $165 $381 $382 reversed $160 $-1 #
coedge $-1 $383 $162 $380 $384 reversed $101 $-1 #
coedge $-1 $162 $383 $385 $386 reversed $101 $-1 #
coedge $-1 $272 $262 $162 $266 reversed $160 $-1 #
edge $-1 $387 -19.662997348728823 $388 19.662997348728823 $265 $389 forward 7 unknown #
coedge $-1 $164 $163 $390 $391 reversed $64 $-1 #
coedge $-1 $392 $393 $163 $269 forward $394 $-1 #
edge $-1 $395 -26.205385424411833 $274 -17.805243305609071 $268 $396 forward 7 unknown #
coedge $-1 $397 $381 $164 $271 forward $260 $-1 #
edge $-1 $273 17.805243305609071 $398 26.205385424411833 $270 $399 forward 7 unknown #
coedge $-1 $165 $265 $392 $400 reversed $160 $-1 #
vertex $-1 $271 $401 #
vertex $-1 $269 $402 #
straight-curve $-1 -39.810557670619524 0 2.8475829704568962 0 1 0 I I #
face $-1 $-1 $403 $38 $-1 $404 reversed single #
loop $-1 $-1 $173 $167 #
plane-surface $-1 0 0 7.7730858350562784 0 0 1 1 0 0 forward_v I I I I #
coedge $-1 $405 $406 $407 $408 reversed $168 $-1 #
coedge $-1 $409 $170 $172 $286 forward $105 $-1 #
coedge $-1 $170 $409 $405 $410 forward $105 $-1 #
coedge $-1 $407 $173 $170 $283 forward $277 $-1 #
edge $-1 $289 -12.786115574464773 $411 3.8363014620961806 $282 $412 forward 7 unknown #
coedge $-1 $413 $414 $171 $285 forward $403 $-1 #
edge $-1 $415 -48.921564417208351 $288 -43.497949129764685 $284 $416 forward 7 unknown #
edge $-1 $289 30.516583297207248 $415 39.325994697457652 $172 $417 forward 7 unknown #
coedge $-1 $173 $407 $413 $418 forward $277 $-1 #
vertex $-1 $285 $419 #
vertex $-1 $174 $420 #
straight-curve $-1 -17.261022630649069 24.018316365092787 7.7730858350562784 0 -1 0 I I #
coedge $-1 $291 $291 $-1 $421 reversed $177 $-1 #
edge $-1 $422 0 $422 6.2831853071796004 $178 $423 forward 7 unknown #
vertex $-1 $181 $424 #
ellipse-curve $-1 -12.511760620203077 16.192041917126847 5.0612781913344431 0 0.61566148304635926 0.78801074757464917 2 0 0 1 I I #
coedge $-1 $295 $295 $-1 $425 reversed $184 $-1 #
edge $-1 $426 0 $426 6.2831853071796004 $185 $427 forward 7 unknown #
vertex $-1 $188 $428 #
ellipse-curve $-1 -5.387867604534101 16.192041917126847 5.0612781913344431 0 0.61566148304635926 0.78801074757464917 2 0 0 1 I I #
face $-1 $-1 $429 $41 $-1 $430 reversed single #
loop $-1 $-1 $195 $189 #
plane-surface $-1 0 0 7.7730858350562784 0 0 1 1 0 0 forward_v I I I I #
coedge $-1 $431 $432 $433 $434 reversed $190 $-1 #
coedge $-1 $435 $192 $194 $309 forward $119 $-1 #
coedge $-1 $192 $435 $431 $436 forward $119 $-1 #
coedge $-1 $433 $195 $192 $306 forward $300 $-1 #
edge $-1 $312 9.2191987905456756 $437 25.841615827106626 $305 $438 forward 7 unknown #
coedge $-1 $439 $440 $193 $308 forward $429 $-1 #
edge $-1 $441 -48.921564417208351 $311 -43.497949129764685 $307 $442 forward 7 unknown #
edge $-1 $312 30.516583297207248 $441 39.325994697457652 $194 $443 forward 7 unknown #
coedge $-1 $195 $433 $439 $444 forward $300 $-1 #
vertex $-1 $196 $445 #
vertex $-1 $196 $446 #
straight-curve $-1 26.749606099371828 24.018316365092787 7.7730858350562784 0 -1 0 I I #
coedge $-1 $314 $314 $-1 $447 reversed $199 $-1 #
edge $-1 $448 0 $448 6.2831853071796004 $200 $449 forward 7 unknown #
vertex $-1 $203 $450 #
ellipse-curve $-1 31.498868109817828 16.192041917126847 5.0612781913344431 0 0.61566148304635926 0.78801074757464917 2 0 0 1 I I #
coedge $-1 $318 $318 $-1 $451 reversed $206 $-1 #
edge $-1 $452 0 $452 6.2831853071796004 $207 $453 forward 7 unknown #
vertex $-1 $210 $454 #
ellipse-curve $-1 38.622761125486811 16.192041917126847 5.0612781913344431 0 0.61566148304635926 0.78801074757464917 2 0 0 1 I I #
face $-1 $-1 $334 $44 $-1 $455 forward single #
loop $-1 $-1 $456 $211 #
plane-surface $-1 0 -19.662997348728823 0 0 1 0 0 0 1 forward_v I I I I #
coedge $-1 $457 $458 $459 $460 reversed $212 $-1 #
coedge $-1 $461 $214 $216 $332 forward $133 $-1 #
coedge $-1 $214 $461 $457 $462 forward $133 $-1 #
coedge $-1 $459 $217 $214 $329 forward $334 $-1 #
edge $-1 $336 -16.338674340167262 $463 -7.4328582795795803 $328 $464 forward 7 unknown #
coedge $-1 $465 $466 $215 $331 forward $323 $-1 #
edge $-1 $467 -25.516490854303555 $335 -19.225280143611037 $330 $468 forward 7 unknown #
edge $-1 $336 -7.5014086473322088 $467 0 $216 $469 forward 7 unknown #
coedge $-1 $217 $459 $465 $470 forward $334 $-1 #
loop $-1 $-1 $459 $322 #
vertex $-1 $331 $471 #
vertex $-1 $218 $472 #
straight-curve $-1 28.224440650040684 -50.264394033699553 7.7730858350562784 0 1 0 I I #
coedge $-1 $338 $338 $-1 $473 reversed $221 $-1 #
edge $-1 $474 0 $474 6.2831853071796004 $222 $475 forward 7 unknown #
vertex $-1 $225 $476 #
ellipse-curve $-1 21.099787801570535 -17.62021741149022 4.6274804797100204 0 -0.83867057594974714 0.54463902268945019 0.5 0 0 1 I I #
coedge $-1 $342 $342 $-1 $477 reversed $228 $-1 #
edge $-1 $478 0 $478 6.2831853071796004 $229 $479 forward 7 unknown #
vertex $-1 $232 $480 #
ellipse-curve $-1 23.771532619746843 -17.62021741149022 4.6274804797100204 0 -0.83867057594974714 0.54463902268945019 0.5 0 0 1 I I #
coedge $-1 $346 $346 $-1 $481 reversed $235 $-1 #
edge $-1 $482 0 $482 6.2831853071796004 $236 $483 forward 7 unknown #
vertex $-1 $239 $484 #
ellipse-curve $-1 26.44327743792315 -17.62021741149022 4.6274804797100204 0 -0.83867057594974714 0.54463902268945019 0.5 0 0 1 I I #
face $-1 $-1 $255 $36 $-1 $485 reversed single #
loop $-1 $-1 $366 $240 #
plane-surface $-1 0 19.662997348728823 0 0 -1 0 0 0 -1 forward_v I I I I #
coedge $-1 $486 $364 $367 $487 forward $241 $-1 #
coedge $-1 $370 $243 $244 $358 reversed $152 $-1 #
coedge $-1 $364 $486 $243 $356 reversed $241 $-1 #
edge $-1 $371 -7.7730858350562784 $488 7.7730858350562784 $355 $489 forward 7 unknown #
coedge $-1 $245 $244 $486 $490 forward $97 $-1 #
edge $-1 $362 -48.210699789422286 $488 48.210699789422286 $354 $491 forward 7 unknown #
coedge $-1 $367 $366 $245 $360 reversed $351 $-1 #
edge $-1 $492 -48.210699789422286 $361 48.210699789422286 $359 $493 forward 7 unknown #
vertex $-1 $247 $494 #
vertex $-1 $373 $495 #
straight-curve $-1 48.210699789422286 0 -7.7730858350562784 0 -1 0 I I #
coedge $-1 $353 $355 $248 $365 reversed $241 $-1 #
edge $-1 $368 -19.662997348728823 $371 19.662997348728823 $364 $496 forward 7 unknown #
coedge $-1 $359 $249 $254 $374 forward $351 $-1 #
coedge $-1 $249 $359 $353 $487 reversed $351 $-1 #
vertex $-1 $250 $497 #
straight-curve $-1 0 19.662997348728823 7.7730858350562784 -1 0 0 I I #
coedge $-1 $251 $354 $253 $373 reversed $152 $-1 #
vertex $-1 $365 $498 #
straight-curve $-1 0 -19.662997348728823 7.7730858350562784 1 0 0 I I #
edge $-1 $256 -7.7730858350562784 $362 7.7730858350562784 $253 $499 forward 7 unknown #
edge $-1 $257 -7.7730858350562784 $361 7.7730858350562784 $254 $500 forward 7 unknown #
point $-1 48.210699789422286 -19.662997348728823 7.7730858350562784 #
point $-1 48.210699789422286 19.662997348728823 7.7730858350562784 #
face $-1 $-1 $394 $37 $-1 $501 reversed single #
loop $-1 $-1 $502 $259 #
plane-surface $-1 -48.210699789422286 0 0 1 0 0 0 0 -1 forward_v I I I I #
coedge $-1 $381 $397 $263 $384 forward $260 $-1 #
coedge $-1 $270 $380 $262 $382 forward $260 $-1 #
edge $-1 $388 -0.82620851477155188 $273 2.1737914852284481 $381 $503 forward 7 unknown #
coedge $-1 $264 $263 $502 $504 reversed $101 $-1 #
edge $-1 $505 -26.205385424411833 $388 -17.805243305609071 $380 $506 forward 7 unknown #
coedge $-1 $393 $392 $264 $386 forward $394 $-1 #
edge $-1 $387 17.805243305609071 $507 26.205385424411833 $385 $508 forward 7 unknown #
vertex $-1 $386 $509 #
vertex $-1 $384 $510 #
straight-curve $-1 -39.810557670619524 0 -0.15241702954310377 0 -1 0 I I #
coedge $-1 $511 $512 $267 $391 forward $378 $-1 #
edge $-1 $398 -19.662997348728823 $395 19.662997348728823 $390 $513 forward 7 unknown #
coedge $-1 $385 $268 $272 $400 forward $394 $-1 #
coedge $-1 $268 $385 $511 $514 reversed $394 $-1 #
loop $-1 $-1 $385 $377 #
vertex $-1 $514 $515 #
straight-curve $-1 -22.005314365010452 19.662997348728823 2.8475829704568962 1 0 0 I I #
coedge $-1 $380 $270 $512 $516 forward $260 $-1 #
vertex $-1 $516 $517 #
straight-curve $-1 -22.005314365010452 -19.662997348728823 2.8475829704568962 -1 0 0 I I #
edge $-1 $274 -2.1737914852284481 $387 0.82620851477155188 $392 $518 forward 7 unknown #
point $-1 -39.810557670619524 -19.662997348728823 2.8475829704568962 #
point $-1 -39.810557670619524 19.662997348728823 2.8475829704568962 #
loop $-1 $-1 $284 $276 #
plane-surface $-1 0 19.662997348728823 0 0 -1 0 0 0 -1 forward_v I I I I #
coedge $-1 $406 $279 $281 $410 reversed $168 $-1 #
coedge $-1 $279 $405 $519 $520 reversed $168 $-1 #
coedge $-1 $287 $282 $279 $408 forward $277 $-1 #
edge $-1 $411 -11.297229879567922 $521 -4.3553190163639641 $407 $522 forward 7 unknown #
coedge $-1 $281 $280 $414 $523 reversed $105 $-1 #
edge $-1 $524 -39.325994697457652 $411 -30.516583297207248 $405 $525 forward 7 unknown #
vertex $-1 $283 $526 #
straight-curve $-1 -4.4749070561842963 12.721086485524866 7.7730858350562766 1 0 0 I I #
coedge $-1 $519 $284 $287 $418 reversed $403 $-1 #
coedge $-1 $284 $519 $409 $523 forward $403 $-1 #
vertex $-1 $285 $527 #
straight-curve $-1 -17.261022630649069 19.662997348728823 51.271034964820963 0 0 1 I I #
straight-curve $-1 -17.261022630649069 -11.326309131931474 26.560970765322651 0 0.78801074757464917 -0.61566148304635926 I I #
edge $-1 $521 0.63860559408811568 $288 17.261022630649069 $413 $528 forward 7 unknown #
point $-1 -17.261022630649069 19.662997348728823 7.7730858350562784 #
point $-1 -17.261022630649069 12.721086485524864 7.7730858350562784 #
edge $-1 $529 1 $529 0 $291 $-1 forward 7 unknown #
vertex $-1 $292 $530 #
ellipse-curve $-1 -12.511760620203077 14.77267793042413 3.2445751702069678 0 0.61566148304635926 0.78801074757464917 2 0 0 1 I I #
point $-1 -10.511760620203077 16.192041917126851 5.0612781913344485 #
edge $-1 $531 1 $531 0 $295 $-1 forward 7 unknown #
vertex $-1 $296 $532 #
ellipse-curve $-1 -5.387867604534101 14.77267793042413 3.2445751702069678 0 0.61566148304635926 0.78801074757464917 2 0 0 1 I I #
point $-1 -3.387867604534101 16.192041917126851 5.0612781913344485 #
loop $-1 $-1 $307 $299 #
plane-surface $-1 0 19.662997348728823 0 0 -1 0 0 0 -1 forward_v I I I I #
coedge $-1 $432 $302 $304 $436 reversed $190 $-1 #
coedge $-1 $302 $431 $533 $534 reversed $190 $-1 #
coedge $-1 $310 $305 $302 $434 forward $300 $-1 #
edge $-1 $437 -11.297229879567922 $535 -4.3553190163639641 $433 $536 forward 7 unknown #
coedge $-1 $304 $303 $440 $537 reversed $119 $-1 #
edge $-1 $538 -39.325994697457652 $437 -30.516583297207248 $431 $539 forward 7 unknown #
vertex $-1 $306 $540 #
straight-curve $-1 17.530407308826153 12.721086485524866 7.7730858350562766 1 0 0 I I #
coedge $-1 $533 $307 $310 $444 reversed $429 $-1 #
coedge $-1 $307 $533 $435 $537 forward $429 $-1 #
vertex $-1 $308 $541 #
straight-curve $-1 26.749606099371828 19.662997348728823 51.271034964820963 0 0 1 I I #
straight-curve $-1 26.749606099371828 -11.326309131931474 26.560970765322651 0 0.78801074757464917 -0.61566148304635926 I I #
edge $-1 $535 -43.372023135932778 $311 -26.749606099371828 $439 $542 forward 7 unknown #
point $-1 26.749606099371828 19.662997348728823 7.7730858350562784 #
point $-1 26.749606099371828 12.721086485524864 7.7730858350562784 #
edge $-1 $543 1 $543 0 $314 $-1 forward 7 unknown #
vertex $-1 $315 $544 #
ellipse-curve $-1 31.498868109817828 14.77267793042413 3.2445751702069678 0 0.61566148304635926 0.78801074757464917 2 0 0 1 I I #
point $-1 33.498868109817828 16.192041917126851 5.0612781913344485 #
edge $-1 $545 1 $545 0 $318 $-1 forward 7 unknown #
vertex $-1 $319 $546 #
ellipse-curve $-1 38.622761125486811 14.77267793042413 3.2445751702069678 0 0.61566148304635926 0.78801074757464917 2 0 0 1 I I #
point $-1 40.622761125486811 16.192041917126851 5.0612781913344485 #
plane-surface $-1 0 0 7.7730858350562784 0 0 1 1 0 0 forward_v I I I I #
coedge $-1 $466 $465 $458 $547 forward $323 $-1 #
coedge $-1 $458 $325 $327 $462 reversed $212 $-1 #
coedge $-1 $325 $457 $456 $547 reversed $212 $-1 #
coedge $-1 $333 $328 $325 $460 forward $334 $-1 #
edge $-1 $463 -34.686956559447935 $548 -30.60139668497073 $459 $549 forward 7 unknown #
coedge $-1 $327 $326 $466 $550 reversed $133 $-1 #
edge $-1 $551 0 $463 7.5014086473322088 $457 $552 forward 7 unknown #
vertex $-1 $329 $553 #
straight-curve $-1 11.885766309873421 -15.577437474251617 7.7730858350562784 -1 0 0 I I #
coedge $-1 $456 $330 $333 $470 reversed $323 $-1 #
coedge $-1 $330 $456 $461 $550 forward $323 $-1 #
vertex $-1 $331 $554 #
straight-curve $-1 28.224440650040684 -19.662997348728823 26.998365978667316 0 0 1 I I #
straight-curve $-1 28.224440650040684 -19.662997348728823 1.4818751243637607 0 -0.54463902268945019 -0.83867057594974714 I I #
edge $-1 $548 19.318624589453002 $335 28.224440650040684 $465 $555 forward 7 unknown #
point $-1 28.224440650040684 -19.662997348728823 7.7730858350562784 #
point $-1 28.224440650040684 -15.577437474251617 7.7730858350562784 #
edge $-1 $556 1 $556 0 $338 $-1 forward 7 unknown #
vertex $-1 $339 $557 #
ellipse-curve $-1 21.099787801570535 -16.137679621312994 3.664709212543634 0 -0.83867057594974714 0.54463902268945019 0.5 0 0 1 I I #
point $-1 21.599787801570535 -17.62021741149022 4.6274804797100213 #
edge $-1 $558 1 $558 0 $342 $-1 forward 7 unknown #
vertex $-1 $343 $559 #
ellipse-curve $-1 23.771532619746843 -16.137679621312994 3.664709212543634 0 -0.83867057594974714 0.54463902268945019 0.5 0 0 1 I I #
point $-1 24.271532619746843 -17.62021741149022 4.6274804797100213 #
edge $-1 $560 1 $560 0 $346 $-1 forward 7 unknown #
vertex $-1 $347 $561 #
ellipse-curve $-1 26.44327743792315 -16.137679621312994 3.664709212543634 0 -0.83867057594974714 0.54463902268945019 0.5 0 0 1 I I #
point $-1 26.94327743792315 -17.62021741149022 4.6274804797100213 #
plane-surface $-1 48.210699789422286 0 0 -1 0 0 0 0 1 forward_v I I I I #
coedge $-1 $355 $353 $357 $490 reversed $241 $-1 #
edge $-1 $368 -7.7730858350562784 $492 7.7730858350562784 $367 $562 forward 7 unknown #
vertex $-1 $490 $563 #
straight-curve $-1 -48.210699789422286 -19.662997348728823 0 0 0 -1 I I #
edge $-1 $488 -19.662997348728823 $492 19.662997348728823 $486 $564 forward 7 unknown #
straight-curve $-1 0 -19.662997348728823 -7.7730858350562784 -1 0 0 I I #
vertex $-1 $360 $565 #
straight-curve $-1 0 19.662997348728823 -7.7730858350562784 1 0 0 I I #
point $-1 48.210699789422286 19.662997348728823 -7.7730858350562784 #
point $-1 48.210699789422286 -19.662997348728823 -7.7730858350562784 #
straight-curve $-1 -48.210699789422286 0 7.7730858350562784 0 -1 0 I I #
point $-1 -48.210699789422286 19.662997348728823 7.7730858350562784 #
point $-1 -48.210699789422286 -19.662997348728823 7.7730858350562784 #
straight-curve $-1 48.210699789422286 -19.662997348728823 0 0 0 -1 I I #
straight-curve $-1 48.210699789422286 19.662997348728823 0 0 0 -1 I I #
plane-surface $-1 0 19.662997348728823 0 0 -1 0 0 0 -1 forward_v I I I I #
coedge $-1 $512 $511 $383 $504 forward $378 $-1 #
straight-curve $-1 -39.810557670619524 -19.662997348728823 0.67379148522844812 0 0 1 I I #
edge $-1 $507 -19.662997348728823 $505 19.662997348728823 $502 $566 forward 7 unknown #
vertex $-1 $384 $567 #
straight-curve $-1 -22.005314365010452 -19.662997348728823 -0.15241702954310377 1 0 0 I I #
vertex $-1 $386 $568 #
straight-curve $-1 -22.005314365010452 19.662997348728823 -0.15241702954310377 -1 0 0 I I #
point $-1 -39.810557670619524 19.662997348728823 -0.15241702954310377 #
point $-1 -39.810557670619524 -19.662997348728823 -0.15241702954310377 #
coedge $-1 $502 $390 $393 $514 forward $378 $-1 #
coedge $-1 $390 $502 $397 $516 reversed $378 $-1 #
straight-curve $-1 -48.210699789422286 0 2.8475829704568962 0 1 0 I I #
edge $-1 $395 -2.8475829704568962 $507 0.15241702954310377 $393 $569 forward 7 unknown #
point $-1 -48.210699789422286 19.662997348728823 2.8475829704568962 #
edge $-1 $398 -2.8475829704568962 $505 0.15241702954310377 $512 $570 forward 7 unknown #
point $-1 -48.210699789422286 -19.662997348728823 2.8475829704568962 #
straight-curve $-1 -39.810557670619524 19.662997348728823 0.67379148522844812 0 0 -1 I I #
coedge $-1 $414 $413 $406 $520 forward $403 $-1 #
edge $-1 $521 43.497949129764685 $524 48.921564417208351 $519 $571 forward 7 unknown #
vertex $-1 $418 $572 #
straight-curve $-1 -0.63860559408811568 24.018316365092787 7.7730858350562784 0 1 0 I I #
edge $-1 $524 -3.8363014620961806 $415 12.786115574464773 $414 $573 forward 7 unknown #
vertex $-1 $523 $574 #
straight-curve $-1 -0.63860559408811568 -11.326309131931474 26.560970765322651 0 -0.78801074757464917 0.61566148304635926 I I #
point $-1 -0.63860559408811568 12.721086485524864 7.7730858350562784 #
point $-1 -17.261022630649069 19.662997348728819 2.3494705476126114 #
straight-curve $-1 0 19.662997348728823 7.7730858350562784 -1 0 0 I I #
vertex $-1 $421 $575 #
point $-1 -10.511760620203077 14.77267793042413 3.2445751702069678 #
vertex $-1 $425 $576 #
point $-1 -3.387867604534101 14.77267793042413 3.2445751702069678 #
coedge $-1 $440 $439 $432 $534 forward $429 $-1 #
edge $-1 $535 43.497949129764685 $538 48.921564417208351 $533 $577 forward 7 unknown #
vertex $-1 $444 $578 #
straight-curve $-1 43.372023135932778 24.018316365092787 7.7730858350562784 0 1 0 I I #
edge $-1 $538 -25.841615827106626 $441 -9.2191987905456756 $440 $579 forward 7 unknown #
vertex $-1 $537 $580 #
straight-curve $-1 43.372023135932778 -11.326309131931474 26.560970765322651 0 -0.78801074757464917 0.61566148304635926 I I #
point $-1 43.372023135932778 12.721086485524864 7.7730858350562784 #
point $-1 26.749606099371828 19.662997348728819 2.3494705476126114 #
straight-curve $-1 0 19.662997348728823 7.7730858350562784 -1 0 0 I I #
vertex $-1 $447 $581 #
point $-1 33.498868109817828 14.77267793042413 3.2445751702069678 #
vertex $-1 $451 $582 #
point $-1 40.622761125486811 14.77267793042413 3.2445751702069678 #
edge $-1 $548 19.225280143611037 $551 25.516490854303555 $456 $583 forward 7 unknown #
vertex $-1 $470 $584 #
straight-curve $-1 19.318624589453002 -50.264394033699553 7.7730858350562784 0 -1 0 I I #
edge $-1 $551 7.4328582795795803 $467 16.338674340167262 $466 $585 forward 7 unknown #
vertex $-1 $550 $586 #
straight-curve $-1 19.318624589453002 -19.662997348728823 1.4818751243637607 0 0.54463902268945019 0.83867057594974714 I I #
point $-1 19.318624589453002 -15.577437474251617 7.7730858350562784 #
point $-1 28.224440650040684 -19.662997348728823 1.4818751243637607 #
straight-curve $-1 0 -19.662997348728823 7.7730858350562784 1 0 0 I I #
vertex $-1 $473 $587 #
point $-1 21.599787801570535 -16.137679621312994 3.664709212543634 #
vertex $-1 $477 $588 #
point $-1 24.271532619746843 -16.137679621312994 3.664709212543634 #
vertex $-1 $481 $589 #
point $-1 26.94327743792315 -16.137679621312994 3.664709212543634 #
straight-curve $-1 -48.210699789422286 19.662997348728823 0 0 0 -1 I I #
point $-1 -48.210699789422286 -19.662997348728823 -7.7730858350562784 #
straight-curve $-1 -48.210699789422286 0 -7.7730858350562784 0 1 0 I I #
point $-1 -48.210699789422286 19.662997348728823 -7.7730858350562784 #
straight-curve $-1 -48.210699789422286 0 -0.15241702954310377 0 -1 0 I I #
point $-1 -48.210699789422286 -19.662997348728823 -0.15241702954310377 #
point $-1 -48.210699789422286 19.662997348728823 -0.15241702954310377 #
straight-curve $-1 -48.210699789422286 19.662997348728823 0 0 0 -1 I I #
straight-curve $-1 -48.210699789422286 -19.662997348728823 0 0 0 -1 I I #
straight-curve $-1 -0.63860559408811568 19.662997348728823 51.271034964820963 0 0 -1 I I #
point $-1 -0.63860559408811568 19.662997348728823 7.7730858350562784 #
straight-curve $-1 -4.4749070561842963 19.662997348728823 2.3494705476126096 -1 0 0 I I #
point $-1 -0.63860559408811568 19.662997348728819 2.3494705476126114 #
point $-1 -12.511760620203077 13.541354964331411 1.6685536750576695 #
point $-1 -5.387867604534101 13.541354964331411 1.6685536750576695 #
straight-curve $-1 43.372023135932778 19.662997348728823 51.271034964820963 0 0 -1 I I #
point $-1 43.372023135932778 19.662997348728823 7.7730858350562784 #
straight-curve $-1 17.530407308826153 19.662997348728823 2.3494705476126096 -1 0 0 I I #
point $-1 43.372023135932778 19.662997348728819 2.3494705476126114 #
point $-1 31.498868109817828 13.541354964331411 1.6685536750576695 #
point $-1 38.622761125486811 13.541354964331411 1.6685536750576695 #
straight-curve $-1 19.318624589453002 -19.662997348728823 26.998365978667316 0 0 -1 I I #
point $-1 19.318624589453002 -19.662997348728823 7.7730858350562784 #
straight-curve $-1 11.885766309873421 -19.662997348728823 1.4818751243637616 1 0 0 I I #
point $-1 19.318624589453002 -19.662997348728823 1.4818751243637607 #
point $-1 21.099787801570535 -15.71834433333812 3.3923897011989088 #
point $-1 23.771532619746843 -15.71834433333812 3.3923897011989088 #
point $-1 26.44327743792315 -15.71834433333812 3.3923897011989088 #
End-of-ACIS-data 