500 0 10 0           
7 Unknown 11 ACIS 5.0 NT 24 Thu Mar 25 21:39:32 1999 
-1 9.9999999999999995e-007 1e-010 
body $-1 $10 $-1 $11 #
body $-1 $12 $-1 $13 #
body $-1 $14 $-1 $15 #
body $-1 $16 $-1 $17 #
body $-1 $18 $-1 $19 #
body $-1 $20 $-1 $21 #
body $-1 $22 $-1 $23 #
body $-1 $24 $-1 $25 #
body $-1 $26 $-1 $27 #
body $-1 $28 $-1 $29 #
lump $-1 $-1 $30 $0 #
transform $-1 1 0 0 0 1 0 0 0 1 46.460158085879087 23.124871250649367 8.2282536209737245 1 rotate no_reflect no_shear #
lump $-1 $-1 $31 $1 #
transform $-1 1 0 0 0 1 0 0 0 1 46.460158085879087 23.124871250649367 8.2282536209737245 1 rotate no_reflect no_shear #
lump $-1 $-1 $32 $2 #
transform $-1 1 0 0 0 1 0 0 0 1 46.460158085879087 23.124871250649367 8.2282536209737245 1 rotate no_reflect no_shear #
lump $-1 $-1 $33 $3 #
transform $-1 1 0 0 0 1 0 0 0 1 46.460158085879087 23.124871250649367 8.2282536209737245 1 rotate no_reflect no_shear #
lump $-1 $-1 $34 $4 #
transform $-1 1 0 0 0 1 0 0 0 1 46.460158085879087 23.124871250649367 8.2282536209737245 1 rotate no_reflect no_shear #
lump $-1 $-1 $35 $5 #
transform $-1 1 0 0 0 1 0 0 0 1 46.460158085879087 23.124871250649367 8.2282536209737245 1 rotate no_reflect no_shear #
lump $-1 $-1 $36 $6 #
transform $-1 1 0 0 0 1 0 0 0 1 46.460158085879087 23.124871250649367 8.2282536209737245 1 rotate no_reflect no_shear #
lump $-1 $-1 $37 $7 #
transform $-1 1 0 0 0 1 0 0 0 1 46.460158085879087 23.124871250649367 8.2282536209737245 1 rotate no_reflect no_shear #
lump $-1 $-1 $38 $8 #
transform $-1 1 0 0 0 1 0 0 0 1 46.460158085879087 23.124871250649367 8.2282536209737245 1 rotate no_reflect no_shear #
lump $-1 $-1 $39 $9 #
transform $-1 1 0 0 0 1 0 0 0 1 46.460158085879087 23.124871250649367 8.2282536209737245 1 rotate no_reflect no_shear #
shell $-1 $-1 $-1 $40 $-1 $10 #
shell $-1 $-1 $-1 $41 $-1 $12 #
shell $-1 $-1 $-1 $42 $-1 $14 #
shell $-1 $-1 $-1 $43 $-1 $16 #
shell $-1 $-1 $-1 $44 $-1 $18 #
shell $-1 $-1 $-1 $45 $-1 $20 #
shell $-1 $-1 $-1 $46 $-1 $22 #
shell $-1 $-1 $-1 $47 $-1 $24 #
shell $-1 $-1 $-1 $48 $-1 $26 #
shell $-1 $-1 $-1 $49 $-1 $28 #
face $-1 $50 $51 $30 $-1 $52 forward single #
face $-1 $53 $54 $31 $-1 $55 reversed single #
face $-1 $56 $57 $32 $-1 $58 reversed single #
face $-1 $59 $60 $33 $-1 $61 forward single #
face $-1 $62 $63 $34 $-1 $64 forward single #
face $-1 $65 $66 $35 $-1 $67 reversed single #
face $-1 $68 $69 $36 $-1 $70 forward single #
face $-1 $71 $72 $37 $-1 $73 forward single #
face $-1 $74 $75 $38 $-1 $76 reversed single #
face $-1 $77 $78 $39 $-1 $79 forward single #
face $-1 $80 $81 $30 $-1 $82 reversed single #
loop $-1 $-1 $83 $40 #
plane-surface $-1 0 0 8.2282536209737245 0 0 1 1 0 0 forward_v I I I I #
face $-1 $84 $85 $31 $-1 $86 reversed single #
loop $-1 $-1 $87 $41 #
plane-surface $-1 -41.703804616919477 -9.6683640087019178 0 0 1 0 0 0 1 forward_v I I I I #
face $-1 $88 $89 $32 $-1 $90 reversed single #
loop $-1 $-1 $91 $42 #
plane-surface $-1 -15.789278804946662 -81.601521686472282 76.511313617433643 -1 0 0 0 -0.62932039886446345 0.77714595512881146 forward_v I I I I #
face $-1 $92 $93 $33 $-1 $94 forward single #
loop $-1 $95 $96 $43 #
cone-surface $-1 -25.130175396429948 -20.377977236710525 5.8675817710048825 0 0.62932039886446345 -0.77714595512881146 0.5 0 0 1 I I 0 1 0.5 forward I I I I #
face $-1 $97 $98 $34 $-1 $99 forward single #
loop $-1 $100 $101 $44 #
cone-surface $-1 -19.525637441539978 -20.377977236710525 5.8675817710048825 0 0.62932039886446345 -0.77714595512881146 0.5 0 0 1 I I 0 1 0.5 forward I I I I #
face $-1 $102 $103 $35 $-1 $104 reversed single #
loop $-1 $-1 $105 $45 #
plane-surface $-1 25.914525811972819 -81.601521686472282 76.511313617433643 -1 0 0 0 -0.62932039886446345 0.77714595512881146 forward_v I I I I #
face $-1 $106 $107 $36 $-1 $108 forward single #
loop $-1 $109 $110 $46 #
cone-surface $-1 16.573629220489529 -20.377977236710525 5.8675817710048825 0 0.62932039886446345 -0.77714595512881146 0.5 0 0 1 I I 0 1 0.5 forward I I I I #
face $-1 $111 $112 $37 $-1 $113 forward single #
loop $-1 $114 $115 $47 #
cone-surface $-1 22.1781671753795 -20.377977236710525 5.8675817710048825 0 0.62932039886446345 -0.77714595512881146 0.5 0 0 1 I I 0 1 0.5 forward I I I I #
face $-1 $116 $117 $38 $-1 $118 reversed single #
loop $-1 $-1 $119 $48 #
plane-surface $-1 31.387122468392668 47.423541975929353 105.8568050086036 1 0 0 0 -0.64278761758704617 -0.76604443648966558 forward_v I I I I #
face $-1 $120 $121 $39 $-1 $122 forward single #
loop $-1 $123 $124 $49 #
cone-surface $-1 38.923640277135888 19.970525733932213 5.15857819235538 0 -0.64278761758704617 -0.76604443648966558 1 0 0 1 I I 0 1 1 forward I I I I #
face $-1 $125 $126 $30 $-1 $127 reversed single #
loop $-1 $-1 $128 $50 #
plane-surface $-1 0 0 -8.2282536209737245 0 0 1 1 0 0 forward_v I I I I #
coedge $-1 $129 $130 $131 $132 forward $51 $-1 #
face $-1 $133 $134 $31 $-1 $135 reversed single #
loop $-1 $-1 $136 $53 #
plane-surface $-1 -41.703804616919477 -6.6683640087019178 0 0 -1 0 0 0 -1 forward_v I I I I #
coedge $-1 $137 $138 $139 $140 reversed $54 $-1 #
face $-1 $141 $142 $32 $-1 $143 reversed single #
loop $-1 $-1 $144 $56 #
plane-surface $-1 -22.327906418984963 -23.124871250649377 4.2986657552614957 0 -0.62932039886446345 0.77714595512881146 1 0 0 forward_v I I I I #
coedge $-1 $145 $146 $147 $148 reversed $57 $-1 #
face $-1 $-1 $149 $33 $-1 $150 forward single #
loop $-1 $151 $152 $59 #
cone-surface $-1 -25.130175396429948 -19.900071514030873 5.2774173651099581 0 0.62932039886446345 -0.77714595512881146 0.25 0 0 1 I I -0.70710678118654746 0.70710678118654746 0.25 forward I I I I #
loop $-1 $-1 $153 $43 #
coedge $-1 $96 $96 $154 $155 reversed $60 $-1 #
face $-1 $-1 $156 $34 $-1 $157 forward single #
loop $-1 $158 $159 $62 #
cone-surface $-1 -19.525637441539978 -19.900071514030873 5.2774173651099581 0 0.62932039886446345 -0.77714595512881146 0.25 0 0 1 I I -0.70710678118654746 0.70710678118654746 0.25 forward I I I I #
loop $-1 $-1 $160 $44 #
coedge $-1 $101 $101 $161 $162 reversed $63 $-1 #
face $-1 $163 $164 $35 $-1 $165 reversed single #
loop $-1 $-1 $166 $65 #
plane-surface $-1 19.375898197934518 -23.124871250649377 4.2986657552614957 0 -0.62932039886446345 0.77714595512881146 1 0 0 forward_v I I I I #
coedge $-1 $167 $168 $169 $170 reversed $66 $-1 #
face $-1 $-1 $171 $36 $-1 $172 forward single #
loop $-1 $173 $174 $68 #
cone-surface $-1 16.573629220489529 -19.900071514030873 5.2774173651099581 0 0.62932039886446345 -0.77714595512881146 0.25 0 0 1 I I -0.70710678118654746 0.70710678118654746 0.25 forward I I I I #
loop $-1 $-1 $175 $46 #
coedge $-1 $110 $110 $176 $177 reversed $69 $-1 #
face $-1 $-1 $178 $37 $-1 $179 forward single #
loop $-1 $180 $181 $71 #
cone-surface $-1 22.1781671753795 -19.900071514030873 5.2774173651099581 0 0.62932039886446345 -0.77714595512881146 0.25 0 0 1 I I -0.70710678118654746 0.70710678118654746 0.25 forward I I I I #
loop $-1 $-1 $182 $47 #
coedge $-1 $115 $115 $183 $184 reversed $72 $-1 #
face $-1 $185 $186 $38 $-1 $187 forward single #
loop $-1 $-1 $188 $74 #
plane-surface $-1 38.923640277135874 -12.304486681550159 34.675713768367558 0 0.64278761758704617 0.76604443648966558 1 0 0 forward_v I I I I #
coedge $-1 $189 $190 $191 $192 reversed $75 $-1 #
face $-1 $-1 $193 $39 $-1 $194 forward single #
loop $-1 $195 $196 $77 #
cone-surface $-1 38.923640277135888 18.450037881777472 3.3465313700073622 0 -0.64278761758704617 -0.76604443648966558 0.5 0 0 1 I I -0.70710678118654746 0.70710678118654746 0.5 forward I I I I #
loop $-1 $-1 $197 $49 #
coedge $-1 $124 $124 $198 $199 reversed $78 $-1 #
face $-1 $200 $201 $30 $-1 $202 reversed single #
loop $-1 $-1 $203 $80 #
plane-surface $-1 0 -23.124871250649367 0 0 1 0 0 0 1 forward_v I I I I #
coedge $-1 $204 $205 $206 $207 forward $81 $-1 #
coedge $-1 $208 $83 $209 $210 forward $51 $-1 #
coedge $-1 $83 $208 $211 $212 forward $51 $-1 #
coedge $-1 $213 $214 $83 $132 reversed $215 $-1 #
edge $-1 $216 -23.124871250649367 $217 23.124871250649367 $131 $218 forward 7 unknown #
face $-1 $219 $220 $31 $-1 $221 reversed single #
loop $-1 $-1 $222 $84 #
plane-surface $-1 -36.947451147959868 -8.1683640087019178 0 -1 0 0 0 0 1 forward_v I I I I #
coedge $-1 $223 $224 $225 $226 forward $85 $-1 #
coedge $-1 $227 $87 $228 $229 reversed $54 $-1 #
coedge $-1 $87 $227 $230 $231 reversed $54 $-1 #
coedge $-1 $232 $233 $87 $140 forward $234 $-1 #
edge $-1 $235 -8.2282536209737245 $236 8.2282536209737245 $139 $237 forward 7 unknown #
face $-1 $238 $239 $32 $-1 $240 reversed single #
loop $-1 $-1 $241 $88 #
plane-surface $-1 -28.866534033023264 -81.601521686472282 76.511313617433643 1 0 0 0 0.62932039886446345 -0.77714595512881146 forward_v I I I I #
coedge $-1 $242 $243 $244 $245 reversed $89 $-1 #
coedge $-1 $146 $91 $246 $247 reversed $57 $-1 #
coedge $-1 $91 $145 $242 $248 reversed $57 $-1 #
coedge $-1 $244 $249 $91 $148 forward $250 $-1 #
edge $-1 $251 17.675889592586774 $252 22.528526374537364 $147 $253 forward 7 unknown #
loop $-1 $-1 $154 $92 #
plane-surface $-1 -22.327906418984963 -23.124871250649377 4.2986657552614957 0 -0.62932039886446345 0.77714595512881146 1 0 0 forward_v I I I I #
loop $-1 $-1 $254 $59 #
coedge $-1 $152 $152 $153 $255 reversed $93 $-1 #
coedge $-1 $153 $153 $152 $255 forward $95 $-1 #
coedge $-1 $154 $154 $96 $155 forward $149 $-1 #
edge $-1 $256 -4.6066580649153301e-015 $256 6.283185307179596 $154 $257 forward 7 unknown #
loop $-1 $-1 $161 $97 #
plane-surface $-1 -22.327906418984963 -23.124871250649377 4.2986657552614957 0 -0.62932039886446345 0.77714595512881146 1 0 0 forward_v I I I I #
loop $-1 $-1 $258 $62 #
coedge $-1 $159 $159 $160 $259 reversed $98 $-1 #
coedge $-1 $160 $160 $159 $259 forward $100 $-1 #
coedge $-1 $161 $161 $101 $162 forward $156 $-1 #
edge $-1 $260 -4.6066580649153301e-015 $260 6.283185307179596 $161 $261 forward 7 unknown #
face $-1 $262 $263 $35 $-1 $264 reversed single #
loop $-1 $-1 $265 $102 #
plane-surface $-1 12.837270583896217 -81.601521686472282 76.511313617433643 1 0 0 0 0.62932039886446345 -0.77714595512881146 forward_v I I I I #
coedge $-1 $266 $267 $268 $269 reversed $103 $-1 #
coedge $-1 $168 $105 $270 $271 reversed $66 $-1 #
coedge $-1 $105 $167 $266 $272 reversed $66 $-1 #
coedge $-1 $268 $273 $105 $170 forward $274 $-1 #
edge $-1 $275 17.675889592586774 $276 22.528526374537364 $169 $277 forward 7 unknown #
loop $-1 $-1 $176 $106 #
plane-surface $-1 19.375898197934518 -23.124871250649377 4.2986657552614957 0 -0.62932039886446345 0.77714595512881146 1 0 0 forward_v I I I I #
loop $-1 $-1 $278 $68 #
coedge $-1 $174 $174 $175 $279 reversed $107 $-1 #
coedge $-1 $175 $175 $174 $279 forward $109 $-1 #
coedge $-1 $176 $176 $110 $177 forward $171 $-1 #
edge $-1 $280 -4.6066580649153301e-015 $280 6.283185307179596 $176 $281 forward 7 unknown #
loop $-1 $-1 $183 $111 #
plane-surface $-1 19.375898197934518 -23.124871250649377 4.2986657552614957 0 -0.62932039886446345 0.77714595512881146 1 0 0 forward_v I I I I #
loop $-1 $-1 $282 $71 #
coedge $-1 $181 $181 $182 $283 reversed $112 $-1 #
coedge $-1 $182 $182 $181 $283 forward $114 $-1 #
coedge $-1 $183 $183 $115 $184 forward $178 $-1 #
edge $-1 $284 -4.6066580649153301e-015 $284 6.283185307179596 $183 $285 forward 7 unknown #
face $-1 $286 $287 $38 $-1 $288 reversed single #
loop $-1 $-1 $191 $116 #
plane-surface $-1 0 0 8.2282536209737245 0 0 1 1 0 0 forward_v I I I I #
coedge $-1 $289 $290 $291 $292 reversed $117 $-1 #
coedge $-1 $190 $119 $293 $294 reversed $75 $-1 #
coedge $-1 $119 $189 $289 $295 reversed $75 $-1 #
coedge $-1 $291 $296 $119 $192 forward $186 $-1 #
edge $-1 $297 0.58689973731530998 $298 4.4974026840271861 $191 $299 forward 7 unknown #
loop $-1 $-1 $198 $120 #
plane-surface $-1 38.923640277135874 -12.304486681550159 34.675713768367558 0 0.64278761758704617 0.76604443648966558 1 0 0 forward_v I I I I #
loop $-1 $-1 $300 $77 #
coedge $-1 $196 $196 $197 $301 reversed $121 $-1 #
coedge $-1 $197 $197 $196 $301 forward $123 $-1 #
coedge $-1 $198 $198 $124 $199 forward $193 $-1 #
edge $-1 $302 -7.0392399426177014e-016 $302 6.2831853071795996 $198 $303 forward 7 unknown #
face $-1 $304 $305 $30 $-1 $306 reversed single #
loop $-1 $-1 $307 $125 #
plane-surface $-1 -46.460158085879087 0 0 1 0 0 0 0 -1 forward_v I I I I #
coedge $-1 $308 $211 $309 $310 forward $126 $-1 #
coedge $-1 $311 $128 $308 $312 forward $81 $-1 #
coedge $-1 $128 $311 $313 $314 forward $81 $-1 #
coedge $-1 $214 $213 $128 $207 reversed $215 $-1 #
edge $-1 $315 -23.124871250649367 $316 23.124871250649367 $206 $317 forward 7 unknown #
coedge $-1 $130 $129 $318 $319 forward $51 $-1 #
coedge $-1 $320 $321 $129 $210 reversed $305 $-1 #
edge $-1 $217 -46.460158085879087 $322 46.460158085879087 $209 $323 forward 7 unknown #
coedge $-1 $203 $324 $130 $212 reversed $126 $-1 #
edge $-1 $325 -46.460158085879087 $216 46.460158085879087 $211 $326 forward 7 unknown #
coedge $-1 $206 $131 $324 $327 forward $215 $-1 #
coedge $-1 $131 $206 $320 $328 reversed $215 $-1 #
loop $-1 $-1 $213 $304 #
vertex $-1 $132 $329 #
vertex $-1 $132 $330 #
straight-curve $-1 46.460158085879087 0 8.2282536209737245 0 1 0 I I #
face $-1 $331 $332 $31 $-1 $333 forward single #
loop $-1 $-1 $334 $133 #
plane-surface $-1 0 0 -8.2282536209737245 0 0 1 1 0 0 forward_v I I I I #
coedge $-1 $335 $336 $227 $337 forward $134 $-1 #
coedge $-1 $338 $136 $334 $339 reversed $85 $-1 #
coedge $-1 $136 $338 $340 $341 reversed $85 $-1 #
coedge $-1 $336 $335 $136 $226 reversed $134 $-1 #
edge $-1 $342 -8.2282536209737245 $343 8.2282536209737245 $225 $344 forward 7 unknown #
coedge $-1 $138 $137 $222 $337 reversed $54 $-1 #
coedge $-1 $345 $346 $137 $229 forward $220 $-1 #
edge $-1 $347 16.095548839500129 $235 25.608255777419348 $228 $348 forward 7 unknown #
coedge $-1 $349 $350 $138 $231 forward $332 $-1 #
edge $-1 $236 -25.608255777419348 $351 -16.095548839500129 $230 $352 forward 7 unknown #
coedge $-1 $353 $139 $350 $354 reversed $234 $-1 #
coedge $-1 $139 $353 $345 $355 reversed $234 $-1 #
loop $-1 $-1 $353 $331 #
vertex $-1 $355 $356 #
vertex $-1 $140 $357 #
straight-curve $-1 -46.460158085879087 -9.6683640087019178 0 0 0 1 I I #
face $-1 $-1 $250 $32 $-1 $358 forward single #
loop $-1 $-1 $359 $141 #
plane-surface $-1 0 -23.124871250649367 0 0 1 0 0 0 1 forward_v I I I I #
coedge $-1 $360 $361 $362 $363 reversed $142 $-1 #
coedge $-1 $364 $144 $146 $248 forward $89 $-1 #
coedge $-1 $144 $364 $360 $365 forward $89 $-1 #
coedge $-1 $362 $147 $144 $245 forward $250 $-1 #
edge $-1 $252 4.6253255954541803 $366 17.702580823530781 $244 $367 forward 7 unknown #
coedge $-1 $368 $369 $145 $247 forward $239 $-1 #
edge $-1 $370 -33.956991053455319 $251 -30.027403187743097 $246 $371 forward 7 unknown #
edge $-1 $252 -6.2441768498251768 $370 -1.3872419169116742e-014 $146 $372 forward 7 unknown #
coedge $-1 $147 $362 $368 $373 forward $250 $-1 #
loop $-1 $-1 $362 $238 #
vertex $-1 $247 $374 #
vertex $-1 $148 $375 #
straight-curve $-1 -15.789278804946662 -40.800760843236141 8.2282536209737245 0 1 0 I I #
coedge $-1 $254 $254 $-1 $376 reversed $151 $-1 #
edge $-1 $377 0 $377 6.2831853071796004 $152 $378 forward 7 unknown #
vertex $-1 $155 $379 #
ellipse-curve $-1 -25.130175396429948 -20.69855285967407 6.2634596881176163 0 -0.62932039886446345 0.77714595512881146 0.5 0 0 1 I I #
coedge $-1 $258 $258 $-1 $380 reversed $158 $-1 #
edge $-1 $381 0 $381 6.2831853071796004 $159 $382 forward 7 unknown #
vertex $-1 $162 $383 #
ellipse-curve $-1 -19.525637441539978 -20.69855285967407 6.2634596881176163 0 -0.62932039886446345 0.77714595512881146 0.5 0 0 1 I I #
face $-1 $-1 $274 $35 $-1 $384 forward single #
loop $-1 $-1 $385 $163 #
plane-surface $-1 0 -23.124871250649367 0 0 1 0 0 0 1 forward_v I I I I #
coedge $-1 $386 $387 $388 $389 reversed $164 $-1 #
coedge $-1 $390 $166 $168 $272 forward $103 $-1 #
coedge $-1 $166 $390 $386 $391 forward $103 $-1 #
coedge $-1 $388 $169 $166 $269 forward $274 $-1 #
edge $-1 $276 -16.22657671300556 $392 -3.1493214849289579 $268 $393 forward 7 unknown #
coedge $-1 $394 $395 $167 $271 forward $263 $-1 #
edge $-1 $396 -33.956991053455319 $275 -30.027403187743097 $270 $397 forward 7 unknown #
edge $-1 $276 -6.2441768498251768 $396 -1.3872419169116742e-014 $168 $398 forward 7 unknown #
coedge $-1 $169 $388 $394 $399 forward $274 $-1 #
loop $-1 $-1 $388 $262 #
vertex $-1 $271 $400 #
vertex $-1 $170 $401 #
straight-curve $-1 25.914525811972819 -40.800760843236141 8.2282536209737245 0 1 0 I I #
coedge $-1 $278 $278 $-1 $402 reversed $173 $-1 #
edge $-1 $403 0 $403 6.2831853071796004 $174 $404 forward 7 unknown #
vertex $-1 $177 $405 #
ellipse-curve $-1 16.573629220489529 -20.69855285967407 6.2634596881176163 0 -0.62932039886446345 0.77714595512881146 0.5 0 0 1 I I #
coedge $-1 $282 $282 $-1 $406 reversed $180 $-1 #
edge $-1 $407 0 $407 6.2831853071796004 $181 $408 forward 7 unknown #
vertex $-1 $184 $409 #
ellipse-curve $-1 22.1781671753795 -20.69855285967407 6.2634596881176163 0 -0.62932039886446345 0.77714595512881146 0.5 0 0 1 I I #
face $-1 $-1 $410 $38 $-1 $411 reversed single #
loop $-1 $-1 $412 $185 #
plane-surface $-1 46.460158085879087 0 0 -1 0 0 0 0 1 forward_v I I I I #
coedge $-1 $413 $188 $190 $295 forward $117 $-1 #
coedge $-1 $188 $413 $412 $414 reversed $117 $-1 #
coedge $-1 $415 $191 $188 $292 forward $186 $-1 #
edge $-1 $298 11.925302329824731 $416 26.998337947311143 $291 $417 forward 7 unknown #
coedge $-1 $418 $419 $189 $294 forward $410 $-1 #
edge $-1 $420 -47.981450532358409 $297 -44.700148883328076 $293 $421 forward 7 unknown #
edge $-1 $298 41.144943405529006 $420 46.249742501298726 $190 $422 forward 7 unknown #
coedge $-1 $191 $415 $418 $423 forward $186 $-1 #
vertex $-1 $294 $424 #
vertex $-1 $192 $425 #
straight-curve $-1 31.387122468392668 23.711770987964677 8.2282536209737245 0 -1 0 I I #
coedge $-1 $300 $300 $-1 $426 reversed $195 $-1 #
edge $-1 $427 0 $427 6.2831853071796004 $196 $428 forward 7 unknown #
vertex $-1 $199 $429 #
ellipse-curve $-1 38.923640277135888 21.169619777293427 6.58760279645856 0 0.64278761758704617 0.76604443648966558 1 0 0 1 I I #
face $-1 $-1 $215 $30 $-1 $430 reversed single #
loop $-1 $-1 $320 $200 #
plane-surface $-1 0 23.124871250649367 0 0 -1 0 0 0 -1 forward_v I I I I #
coedge $-1 $431 $318 $321 $432 forward $201 $-1 #
coedge $-1 $324 $203 $204 $312 reversed $126 $-1 #
coedge $-1 $318 $431 $203 $310 reversed $201 $-1 #
edge $-1 $325 -8.2282536209737245 $433 8.2282536209737245 $309 $434 forward 7 unknown #
coedge $-1 $205 $204 $431 $435 forward $81 $-1 #
edge $-1 $316 -46.460158085879087 $433 46.460158085879087 $308 $436 forward 7 unknown #
coedge $-1 $321 $320 $205 $314 reversed $305 $-1 #
edge $-1 $437 -46.460158085879087 $315 46.460158085879087 $313 $438 forward 7 unknown #
vertex $-1 $207 $439 #
vertex $-1 $327 $440 #
straight-curve $-1 46.460158085879087 0 -8.2282536209737245 0 -1 0 I I #
coedge $-1 $307 $309 $208 $319 reversed $201 $-1 #
edge $-1 $322 -23.124871250649367 $325 23.124871250649367 $318 $441 forward 7 unknown #
coedge $-1 $313 $209 $214 $328 forward $305 $-1 #
coedge $-1 $209 $313 $307 $432 reversed $305 $-1 #
vertex $-1 $210 $442 #
straight-curve $-1 0 23.124871250649367 8.2282536209737245 -1 0 0 I I #
coedge $-1 $211 $308 $213 $327 reversed $126 $-1 #
vertex $-1 $319 $443 #
straight-curve $-1 0 -23.124871250649367 8.2282536209737245 1 0 0 I I #
edge $-1 $216 -8.2282536209737245 $316 8.2282536209737245 $213 $444 forward 7 unknown #
edge $-1 $217 -8.2282536209737245 $315 8.2282536209737245 $214 $445 forward 7 unknown #
point $-1 46.460158085879087 -23.124871250649367 8.2282536209737245 #
point $-1 46.460158085879087 23.124871250649367 8.2282536209737245 #
face $-1 $-1 $234 $31 $-1 $446 reversed single #
loop $-1 $-1 $340 $219 #
plane-surface $-1 0 0 8.2282536209737245 0 0 1 1 0 0 forward_v I I I I #
coedge $-1 $346 $345 $223 $339 forward $220 $-1 #
coedge $-1 $225 $222 $346 $447 reversed $134 $-1 #
coedge $-1 $222 $225 $349 $448 reversed $134 $-1 #
edge $-1 $351 -8.2282536209737245 $347 8.2282536209737245 $222 $449 forward 7 unknown #
coedge $-1 $224 $223 $353 $450 reversed $85 $-1 #
edge $-1 $451 -25.608255777419348 $343 -16.095548839500129 $334 $452 forward 7 unknown #
coedge $-1 $350 $349 $224 $341 forward $332 $-1 #
edge $-1 $342 16.095548839500129 $453 25.608255777419348 $340 $454 forward 7 unknown #
vertex $-1 $341 $455 #
vertex $-1 $339 $456 #
straight-curve $-1 -36.947451147959868 -6.6683640087019178 0 0 0 -1 I I #
coedge $-1 $334 $228 $233 $355 forward $220 $-1 #
coedge $-1 $228 $334 $335 $447 forward $220 $-1 #
vertex $-1 $229 $457 #
straight-curve $-1 -20.851902308459739 -9.6683640087019178 -8.2282536209737245 -1 0 0 I I #
coedge $-1 $340 $230 $336 $448 forward $332 $-1 #
coedge $-1 $230 $340 $232 $354 forward $332 $-1 #
vertex $-1 $231 $458 #
straight-curve $-1 -20.851902308459739 -9.6683640087019178 8.2282536209737245 1 0 0 I I #
coedge $-1 $233 $232 $338 $450 forward $234 $-1 #
edge $-1 $453 6.6683640087019178 $236 9.6683640087019178 $232 $459 forward 7 unknown #
edge $-1 $235 -9.6683640087019178 $451 -6.6683640087019178 $233 $460 forward 7 unknown #
point $-1 -46.460158085879087 -9.6683640087019178 -8.2282536209737245 #
point $-1 -46.460158085879087 -9.6683640087019178 8.2282536209737245 #
plane-surface $-1 0 0 8.2282536209737245 0 0 1 1 0 0 forward_v I I I I #
coedge $-1 $369 $368 $361 $461 forward $239 $-1 #
coedge $-1 $361 $241 $243 $365 reversed $142 $-1 #
coedge $-1 $241 $360 $359 $461 reversed $142 $-1 #
coedge $-1 $249 $244 $241 $363 forward $250 $-1 #
edge $-1 $366 -22.528526374537364 $462 -17.675889592586774 $362 $463 forward 7 unknown #
coedge $-1 $243 $242 $369 $464 reversed $89 $-1 #
edge $-1 $465 1.3872419169116742e-014 $366 6.2441768498251768 $360 $466 forward 7 unknown #
vertex $-1 $245 $467 #
straight-curve $-1 -11.163953209492481 -18.272234468698777 8.2282536209737245 -1 0 0 I I #
coedge $-1 $359 $246 $249 $373 reversed $239 $-1 #
coedge $-1 $246 $359 $364 $464 forward $239 $-1 #
vertex $-1 $247 $468 #
straight-curve $-1 -15.789278804946662 -23.124871250649367 38.255656808716822 0 0 1 I I #
straight-curve $-1 -15.789278804946662 -23.124871250649377 4.2986657552614957 0 -0.77714595512881146 -0.62932039886446345 I I #
edge $-1 $462 -28.866534033023264 $251 -15.789278804946662 $368 $469 forward 7 unknown #
point $-1 -15.789278804946662 -23.124871250649367 8.2282536209737245 #
point $-1 -15.789278804946662 -18.272234468698777 8.2282536209737245 #
edge $-1 $470 1 $470 0 $254 $-1 forward 7 unknown #
vertex $-1 $255 $471 #
ellipse-curve $-1 -25.130175396429948 -20.05740161374699 5.4717038538921612 0 -0.62932039886446345 0.77714595512881146 0.5 0 0 1 I I #
point $-1 -24.630175396429948 -20.698552859674063 6.2634596881176039 #
edge $-1 $472 1 $472 0 $258 $-1 forward 7 unknown #
vertex $-1 $259 $473 #
ellipse-curve $-1 -19.525637441539978 -20.05740161374699 5.4717038538921612 0 -0.62932039886446345 0.77714595512881146 0.5 0 0 1 I I #
point $-1 -19.025637441539978 -20.698552859674063 6.2634596881176039 #
plane-surface $-1 0 0 8.2282536209737245 0 0 1 1 0 0 forward_v I I I I #
coedge $-1 $395 $394 $387 $474 forward $263 $-1 #
coedge $-1 $387 $265 $267 $391 reversed $164 $-1 #
coedge $-1 $265 $386 $385 $474 reversed $164 $-1 #
coedge $-1 $273 $268 $265 $389 forward $274 $-1 #
edge $-1 $392 -22.528526374537364 $475 -17.675889592586774 $388 $476 forward 7 unknown #
coedge $-1 $267 $266 $395 $477 reversed $103 $-1 #
edge $-1 $478 1.3872419169116742e-014 $392 6.2441768498251768 $386 $479 forward 7 unknown #
vertex $-1 $269 $480 #
straight-curve $-1 9.687949098967259 -18.272234468698777 8.2282536209737245 -1 0 0 I I #
coedge $-1 $385 $270 $273 $399 reversed $263 $-1 #
coedge $-1 $270 $385 $390 $477 forward $263 $-1 #
vertex $-1 $271 $481 #
straight-curve $-1 25.914525811972819 -23.124871250649367 38.255656808716822 0 0 1 I I #
straight-curve $-1 25.914525811972819 -23.124871250649377 4.2986657552614957 0 -0.77714595512881146 -0.62932039886446345 I I #
edge $-1 $475 12.837270583896217 $275 25.914525811972819 $394 $482 forward 7 unknown #
point $-1 25.914525811972819 -23.124871250649367 8.2282536209737245 #
point $-1 25.914525811972819 -18.272234468698777 8.2282536209737245 #
edge $-1 $483 1 $483 0 $278 $-1 forward 7 unknown #
vertex $-1 $279 $484 #
ellipse-curve $-1 16.573629220489529 -20.05740161374699 5.4717038538921612 0 -0.62932039886446345 0.77714595512881146 0.5 0 0 1 I I #
point $-1 17.073629220489529 -20.698552859674063 6.2634596881176039 #
edge $-1 $485 1 $485 0 $282 $-1 forward 7 unknown #
vertex $-1 $283 $486 #
ellipse-curve $-1 22.1781671753795 -20.05740161374699 5.4717038538921612 0 -0.62932039886446345 0.77714595512881146 0.5 0 0 1 I I #
point $-1 22.6781671753795 -20.698552859674063 6.2634596881176039 #
loop $-1 $-1 $293 $286 #
plane-surface $-1 0 23.124871250649367 0 0 -1 0 0 0 -1 forward_v I I I I #
coedge $-1 $487 $488 $290 $414 forward $287 $-1 #
coedge $-1 $290 $289 $419 $489 reversed $117 $-1 #
edge $-1 $416 25.287491901748005 $490 30.39229099751773 $412 $491 forward 7 unknown #
coedge $-1 $296 $291 $488 $492 forward $186 $-1 #
vertex $-1 $492 $493 #
straight-curve $-1 19.461820138567937 19.214368303937491 8.2282536209737245 1 0 0 I I #
coedge $-1 $494 $293 $296 $423 reversed $410 $-1 #
coedge $-1 $293 $494 $413 $489 forward $410 $-1 #
vertex $-1 $294 $495 #
straight-curve $-1 31.387122468392668 23.124871250649367 52.9284025043018 0 0 1 I I #
straight-curve $-1 31.387122468392668 -12.304486681550159 34.675713768367558 0 0.76604443648966558 -0.64278761758704617 I I #
edge $-1 $496 -46.460158085879087 $297 -31.387122468392668 $418 $497 forward 7 unknown #
point $-1 31.387122468392668 23.124871250649367 8.2282536209737245 #
point $-1 31.387122468392668 19.214368303937491 8.2282536209737209 #
edge $-1 $498 1 $498 0 $300 $-1 forward 7 unknown #
vertex $-1 $301 $499 #
ellipse-curve $-1 38.923640277135888 18.771431690570996 3.7295535882521951 0 0.64278761758704617 0.76604443648966558 1 0 0 1 I I #
point $-1 39.923640277135888 21.16961977729343 6.5876027964585653 #
plane-surface $-1 46.460158085879087 0 0 -1 0 0 0 0 1 forward_v I I I I #
coedge $-1 $309 $307 $311 $435 reversed $201 $-1 #
edge $-1 $322 -8.2282536209737245 $437 8.2282536209737245 $321 $500 forward 7 unknown #
vertex $-1 $435 $501 #
straight-curve $-1 -46.460158085879087 -23.124871250649367 0 0 0 -1 I I #
edge $-1 $433 -23.124871250649367 $437 23.124871250649367 $431 $502 forward 7 unknown #
straight-curve $-1 0 -23.124871250649367 -8.2282536209737245 -1 0 0 I I #
vertex $-1 $314 $503 #
straight-curve $-1 0 23.124871250649367 -8.2282536209737245 1 0 0 I I #
point $-1 46.460158085879087 23.124871250649367 -8.2282536209737245 #
point $-1 46.460158085879087 -23.124871250649367 -8.2282536209737245 #
straight-curve $-1 -46.460158085879087 0 8.2282536209737245 0 -1 0 I I #
point $-1 -46.460158085879087 23.124871250649367 8.2282536209737245 #
point $-1 -46.460158085879087 -23.124871250649367 8.2282536209737245 #
straight-curve $-1 46.460158085879087 -23.124871250649367 0 0 0 -1 I I #
straight-curve $-1 46.460158085879087 23.124871250649367 0 0 0 -1 I I #
plane-surface $-1 -46.460158085879087 0 0 1 0 0 0 0 -1 forward_v I I I I #
edge $-1 $343 2.5841820043509589 $347 5.5841820043509589 $346 $504 forward 7 unknown #
edge $-1 $351 -5.5841820043509589 $342 -2.5841820043509589 $349 $505 forward 7 unknown #
straight-curve $-1 -36.947451147959868 -9.6683640087019178 0 0 0 -1 I I #
edge $-1 $453 -8.2282536209737245 $451 8.2282536209737245 $353 $506 forward 7 unknown #
vertex $-1 $450 $507 #
straight-curve $-1 -20.851902308459739 -6.6683640087019178 -8.2282536209737245 1 0 0 I I #
vertex $-1 $354 $508 #
straight-curve $-1 -20.851902308459739 -6.6683640087019178 8.2282536209737245 -1 0 0 I I #
point $-1 -36.947451147959868 -6.6683640087019178 8.2282536209737245 #
point $-1 -36.947451147959868 -6.6683640087019178 -8.2282536209737245 #
point $-1 -36.947451147959868 -9.6683640087019178 -8.2282536209737245 #
point $-1 -36.947451147959868 -9.6683640087019178 8.2282536209737245 #
straight-curve $-1 -46.460158085879087 0 8.2282536209737245 0 -1 0 I I #
straight-curve $-1 -46.460158085879087 0 -8.2282536209737245 0 1 0 I I #
edge $-1 $462 30.027403187743097 $465 33.956991053455319 $359 $509 forward 7 unknown #
vertex $-1 $373 $510 #
straight-curve $-1 -28.866534033023264 -40.800760843236141 8.2282536209737245 0 -1 0 I I #
edge $-1 $465 -17.702580823530781 $370 -4.6253255954541803 $369 $511 forward 7 unknown #
vertex $-1 $464 $512 #
straight-curve $-1 -28.866534033023264 -23.124871250649377 4.2986657552614957 0 0.77714595512881146 0.62932039886446345 I I #
point $-1 -28.866534033023264 -18.272234468698777 8.2282536209737245 #
point $-1 -15.789278804946662 -23.124871250649367 4.2986657552615046 #
straight-curve $-1 0 -23.124871250649367 8.2282536209737245 1 0 0 I I #
vertex $-1 $376 $513 #
point $-1 -24.630175396429948 -20.05740161374699 5.4717038538921612 #
vertex $-1 $380 $514 #
point $-1 -19.025637441539978 -20.05740161374699 5.4717038538921612 #
edge $-1 $475 30.027403187743097 $478 33.956991053455319 $385 $515 forward 7 unknown #
vertex $-1 $399 $516 #
straight-curve $-1 12.837270583896217 -40.800760843236141 8.2282536209737245 0 -1 0 I I #
edge $-1 $478 3.1493214849289579 $396 16.22657671300556 $395 $517 forward 7 unknown #
vertex $-1 $477 $518 #
straight-curve $-1 12.837270583896217 -23.124871250649377 4.2986657552614957 0 0.77714595512881146 0.62932039886446345 I I #
point $-1 12.837270583896217 -18.272234468698777 8.2282536209737245 #
point $-1 25.914525811972819 -23.124871250649367 4.2986657552615046 #
straight-curve $-1 0 -23.124871250649367 8.2282536209737245 1 0 0 I I #
vertex $-1 $402 $519 #
point $-1 17.073629220489529 -20.05740161374699 5.4717038538921612 #
vertex $-1 $406 $520 #
point $-1 22.6781671753795 -20.05740161374699 5.4717038538921612 #
coedge $-1 $488 $412 $494 $521 reversed $287 $-1 #
coedge $-1 $412 $487 $415 $492 reversed $287 $-1 #
edge $-1 $490 -26.998337947311143 $420 -11.925302329824731 $419 $522 forward 7 unknown #
vertex $-1 $414 $523 #
straight-curve $-1 46.460158085879087 -0.15697418017404186 24.482740295250043 0 0.76604443648966558 -0.64278761758704617 I I #
edge $-1 $416 19.214368303937491 $496 23.124871250649367 $488 $524 forward 7 unknown #
point $-1 46.46015808587908 19.214368303937491 8.2282536209737209 #
coedge $-1 $419 $418 $487 $521 forward $410 $-1 #
point $-1 31.387122468392668 23.124871250649363 4.9469519719433919 #
vertex $-1 $492 $525 #
straight-curve $-1 0 23.124871250649367 8.2282536209737245 -1 0 0 I I #
vertex $-1 $426 $526 #
point $-1 39.923640277135888 18.771431690570996 3.7295535882521951 #
straight-curve $-1 -46.460158085879087 23.124871250649367 0 0 0 -1 I I #
point $-1 -46.460158085879087 -23.124871250649367 -8.2282536209737245 #
straight-curve $-1 -46.460158085879087 0 -8.2282536209737245 0 1 0 I I #
point $-1 -46.460158085879087 23.124871250649367 -8.2282536209737245 #
straight-curve $-1 -36.947451147959868 -4.0841820043509589 -8.2282536209737245 0 -1 0 I I #
straight-curve $-1 -36.947451147959868 -4.0841820043509589 8.2282536209737245 0 1 0 I I #
straight-curve $-1 -46.460158085879087 -6.6683640087019178 0 0 0 -1 I I #
point $-1 -46.460158085879087 -6.6683640087019178 -8.2282536209737245 #
point $-1 -46.460158085879087 -6.6683640087019178 8.2282536209737245 #
straight-curve $-1 -28.866534033023264 -23.124871250649367 38.255656808716822 0 0 -1 I I #
point $-1 -28.866534033023264 -23.124871250649367 8.2282536209737245 #
straight-curve $-1 -11.163953209492481 -23.124871250649367 4.2986657552615029 1 0 0 I I #
point $-1 -28.866534033023264 -23.124871250649367 4.2986657552615046 #
point $-1 -25.130175396429948 -19.742741414314757 5.083130876327755 #
point $-1 -19.525637441539978 -19.742741414314757 5.083130876327755 #
straight-curve $-1 12.837270583896217 -23.124871250649367 38.255656808716822 0 0 -1 I I #
point $-1 12.837270583896217 -23.124871250649367 8.2282536209737245 #
straight-curve $-1 9.687949098967259 -23.124871250649367 4.2986657552615029 1 0 0 I I #
point $-1 12.837270583896217 -23.124871250649367 4.2986657552615046 #
point $-1 16.573629220489529 -19.742741414314757 5.083130876327755 #
point $-1 22.1781671753795 -19.742741414314757 5.083130876327755 #
edge $-1 $496 -8.2282536209737245 $490 -4.9469519719433919 $487 $527 forward 7 unknown #
straight-curve $-1 19.461820138567937 23.124871250649363 4.9469519719433919 -1 0 0 I I #
point $-1 46.46015808587908 23.124871250649363 4.9469519719433919 #
straight-curve $-1 46.460158085879087 0 8.2282536209737245 0 1 0 I I #
point $-1 46.460158085879087 23.124871250649367 8.2282536209737245 #
point $-1 38.923640277135888 18.128644072983949 2.9635091517625294 #
straight-curve $-1 46.460158085879087 23.124871250649367 0 0 0 -1 I I #
End-of-ACIS-data 