500 0 10 0           
7 Unknown 11 ACIS 5.0 NT 24 Fri Mar 26 02:18:00 1999 
-1 9.9999999999999995e-007 1e-010 
body $-1 $10 $-1 $11 #
body $-1 $12 $-1 $13 #
body $-1 $14 $-1 $15 #
body $-1 $16 $-1 $17 #
body $-1 $18 $-1 $19 #
body $-1 $20 $-1 $21 #
body $-1 $22 $-1 $23 #
body $-1 $24 $-1 $25 #
body $-1 $26 $-1 $27 #
body $-1 $28 $-1 $29 #
lump $-1 $-1 $30 $0 #
transform $-1 1 0 0 0 1 0 0 0 1 45.703299050874357 31.50650169196388 8.9932038430414192 1 rotate no_reflect no_shear #
lump $-1 $-1 $31 $1 #
transform $-1 1 0 0 0 1 0 0 0 1 45.703299050874357 31.50650169196388 8.9932038430414192 1 rotate no_reflect no_shear #
lump $-1 $-1 $32 $2 #
transform $-1 1 0 0 0 1 0 0 0 1 45.703299050874357 31.50650169196388 8.9932038430414192 1 rotate no_reflect no_shear #
lump $-1 $-1 $33 $3 #
transform $-1 1 0 0 0 1 0 0 0 1 45.703299050874357 31.50650169196388 8.9932038430414192 1 rotate no_reflect no_shear #
lump $-1 $-1 $34 $4 #
transform $-1 1 0 0 0 1 0 0 0 1 45.703299050874357 31.50650169196388 8.9932038430414192 1 rotate no_reflect no_shear #
lump $-1 $-1 $35 $5 #
transform $-1 1 0 0 0 1 0 0 0 1 45.703299050874357 31.50650169196388 8.9932038430414192 1 rotate no_reflect no_shear #
lump $-1 $-1 $36 $6 #
transform $-1 1 0 0 0 1 0 0 0 1 45.703299050874357 31.50650169196388 8.9932038430414192 1 rotate no_reflect no_shear #
lump $-1 $-1 $37 $7 #
transform $-1 1 0 0 0 1 0 0 0 1 45.703299050874357 31.50650169196388 8.9932038430414192 1 rotate no_reflect no_shear #
lump $-1 $-1 $38 $8 #
transform $-1 1 0 0 0 1 0 0 0 1 45.703299050874357 31.50650169196388 8.9932038430414192 1 rotate no_reflect no_shear #
lump $-1 $-1 $39 $9 #
transform $-1 1 0 0 0 1 0 0 0 1 45.703299050874357 31.50650169196388 8.9932038430414192 1 rotate no_reflect no_shear #
shell $-1 $-1 $-1 $40 $-1 $10 #
shell $-1 $-1 $-1 $41 $-1 $12 #
shell $-1 $-1 $-1 $42 $-1 $14 #
shell $-1 $-1 $-1 $43 $-1 $16 #
shell $-1 $-1 $-1 $44 $-1 $18 #
shell $-1 $-1 $-1 $45 $-1 $20 #
shell $-1 $-1 $-1 $46 $-1 $22 #
shell $-1 $-1 $-1 $47 $-1 $24 #
shell $-1 $-1 $-1 $48 $-1 $26 #
shell $-1 $-1 $-1 $49 $-1 $28 #
face $-1 $50 $51 $30 $-1 $52 forward single #
face $-1 $53 $54 $31 $-1 $55 forward single #
face $-1 $56 $57 $32 $-1 $58 reversed single #
face $-1 $59 $60 $33 $-1 $61 forward single #
face $-1 $62 $63 $34 $-1 $64 forward single #
face $-1 $65 $66 $35 $-1 $67 forward single #
face $-1 $68 $69 $36 $-1 $70 reversed single #
face $-1 $71 $72 $37 $-1 $73 forward single #
face $-1 $74 $75 $38 $-1 $76 forward single #
face $-1 $77 $78 $39 $-1 $79 forward single #
face $-1 $80 $81 $30 $-1 $82 reversed single #
loop $-1 $-1 $83 $40 #
plane-surface $-1 0 0 8.9932038430414192 0 0 1 1 0 0 forward_v I I I I #
face $-1 $84 $85 $31 $-1 $86 reversed single #
loop $-1 $-1 $87 $41 #
plane-surface $-1 0 -27.573885932651056 8.4932038430414192 0 0 1 1 0 0 forward_v I I I I #
face $-1 $88 $89 $32 $-1 $90 reversed single #
loop $-1 $-1 $91 $42 #
plane-surface $-1 41.191896613340198 22.366082010880934 134.47397323075748 0 1 0 0.68199836817093118 0 0.7313536940579346 forward_v I I I I #
face $-1 $92 $93 $33 $-1 $94 forward single #
loop $-1 $95 $96 $43 #
cone-surface $-1 43.373627236496333 24.19416594709752 6.7730597256546456 -0.68199836817093118 0 -0.7313536940579346 0.3656768470289673 0 -0.34099918408546559 1 I I 0 1 0.5 forward I I I I #
face $-1 $97 $98 $34 $-1 $99 forward single #
loop $-1 $100 $101 $44 #
cone-surface $-1 43.373627236496333 26.936291851422407 6.7730597256546456 -0.68199836817093118 0 -0.7313536940579346 0.3656768470289673 0 -0.34099918408546559 1 I I 0 1 0.5 forward I I I I #
face $-1 $102 $103 $35 $-1 $104 forward single #
loop $-1 $105 $106 $45 #
cone-surface $-1 43.373627236496333 29.678417755747294 6.7730597256546456 -0.68199836817093118 0 -0.7313536940579346 0.3656768470289673 0 -0.34099918408546559 1 I I 0 1 0.5 forward I I I I #
face $-1 $107 $108 $36 $-1 $109 reversed single #
loop $-1 $-1 $110 $46 #
plane-surface $-1 -108.04244979632313 22.366082010880934 72.134822485308732 0 1 0 -0.68199836817093118 0 0.7313536940579346 forward_v I I I I #
face $-1 $111 $112 $37 $-1 $113 forward single #
loop $-1 $114 $115 $47 #
cone-surface $-1 -43.37362723649634 24.19416594709752 6.7730597256546456 0.68199836817093118 0 -0.7313536940579346 0.3656768470289673 0 0.34099918408546559 1 I I 0 1 0.5 forward I I I I #
face $-1 $116 $117 $38 $-1 $118 forward single #
loop $-1 $119 $120 $48 #
cone-surface $-1 -43.37362723649634 26.936291851422407 6.7730597256546456 0.68199836817093118 0 -0.7313536940579346 0.3656768470289673 0 0.34099918408546559 1 I I 0 1 0.5 forward I I I I #
face $-1 $121 $122 $39 $-1 $123 forward single #
loop $-1 $124 $125 $49 #
cone-surface $-1 -43.37362723649634 29.678417755747294 6.7730597256546456 0.68199836817093118 0 -0.7313536940579346 0.3656768470289673 0 0.34099918408546559 1 I I 0 1 0.5 forward I I I I #
face $-1 $126 $127 $30 $-1 $128 reversed single #
loop $-1 $-1 $129 $50 #
plane-surface $-1 0 0 -8.9932038430414192 0 0 1 1 0 0 forward_v I I I I #
coedge $-1 $130 $131 $132 $133 forward $51 $-1 #
face $-1 $134 $135 $31 $-1 $136 reversed single #
loop $-1 $-1 $137 $53 #
plane-surface $-1 0 -27.573885932651056 5.1252055020429008 0 0 1 1 0 0 forward_v I I I I #
coedge $-1 $138 $139 $140 $141 reversed $54 $-1 #
face $-1 $142 $143 $32 $-1 $144 forward single #
loop $-1 $-1 $145 $56 #
plane-surface $-1 -21.147254132108557 26.936291851422407 67.623420047774559 0.68199836817093118 0 0.7313536940579346 0.7313536940579346 0 -0.68199836817093118 forward_v I I I I #
coedge $-1 $146 $147 $148 $149 reversed $57 $-1 #
face $-1 $-1 $150 $33 $-1 $151 forward single #
loop $-1 $152 $153 $59 #
cone-surface $-1 42.862128460368133 24.19416594709752 6.2245444551111948 -0.68199836817093118 0 -0.7313536940579346 0.18283842351448365 0 -0.17049959204273279 1 I I -0.70710678118654746 0.70710678118654746 0.25 forward I I I I #
loop $-1 $-1 $154 $43 #
coedge $-1 $96 $96 $155 $156 reversed $60 $-1 #
face $-1 $-1 $157 $34 $-1 $158 forward single #
loop $-1 $159 $160 $62 #
cone-surface $-1 42.862128460368133 26.936291851422407 6.2245444551111948 -0.68199836817093118 0 -0.7313536940579346 0.18283842351448365 0 -0.17049959204273279 1 I I -0.70710678118654746 0.70710678118654746 0.25 forward I I I I #
loop $-1 $-1 $161 $44 #
coedge $-1 $101 $101 $162 $163 reversed $63 $-1 #
face $-1 $-1 $164 $35 $-1 $165 forward single #
loop $-1 $166 $167 $65 #
cone-surface $-1 42.862128460368133 29.678417755747294 6.2245444551111948 -0.68199836817093118 0 -0.7313536940579346 0.18283842351448365 0 -0.17049959204273279 1 I I -0.70710678118654746 0.70710678118654746 0.25 forward I I I I #
loop $-1 $-1 $168 $45 #
coedge $-1 $106 $106 $169 $170 reversed $66 $-1 #
face $-1 $171 $172 $36 $-1 $173 reversed single #
loop $-1 $-1 $174 $68 #
plane-surface $-1 -45.703299050874371 26.936291851422407 5.2842693023258107 -0.68199836817093118 0 0.7313536940579346 0.7313536940579346 0 0.68199836817093118 forward_v I I I I #
coedge $-1 $175 $176 $177 $178 reversed $69 $-1 #
face $-1 $-1 $179 $37 $-1 $180 forward single #
loop $-1 $181 $182 $71 #
cone-surface $-1 -42.86212846036814 24.19416594709752 6.2245444551111948 0.68199836817093118 0 -0.7313536940579346 0.18283842351448365 0 0.17049959204273279 1 I I -0.70710678118654746 0.70710678118654746 0.25 forward I I I I #
loop $-1 $-1 $183 $47 #
coedge $-1 $115 $115 $184 $185 reversed $72 $-1 #
face $-1 $-1 $186 $38 $-1 $187 forward single #
loop $-1 $188 $189 $74 #
cone-surface $-1 -42.86212846036814 26.936291851422407 6.2245444551111948 0.68199836817093118 0 -0.7313536940579346 0.18283842351448365 0 0.17049959204273279 1 I I -0.70710678118654746 0.70710678118654746 0.25 forward I I I I #
loop $-1 $-1 $190 $48 #
coedge $-1 $120 $120 $191 $192 reversed $75 $-1 #
face $-1 $-1 $193 $39 $-1 $194 forward single #
loop $-1 $195 $196 $77 #
cone-surface $-1 -42.86212846036814 29.678417755747294 6.2245444551111948 0.68199836817093118 0 -0.7313536940579346 0.18283842351448365 0 0.17049959204273279 1 I I -0.70710678118654746 0.70710678118654746 0.25 forward I I I I #
loop $-1 $-1 $197 $49 #
coedge $-1 $125 $125 $198 $199 reversed $78 $-1 #
face $-1 $200 $201 $30 $-1 $202 reversed single #
loop $-1 $-1 $203 $80 #
plane-surface $-1 0 -31.50650169196388 0 0 1 0 0 0 1 forward_v I I I I #
coedge $-1 $204 $205 $206 $207 forward $81 $-1 #
coedge $-1 $208 $83 $209 $210 forward $51 $-1 #
coedge $-1 $83 $208 $211 $212 forward $51 $-1 #
coedge $-1 $213 $214 $83 $133 reversed $215 $-1 #
edge $-1 $216 -31.50650169196388 $217 31.50650169196388 $132 $218 forward 7 unknown #
face $-1 $219 $220 $31 $-1 $221 reversed single #
loop $-1 $-1 $222 $84 #
plane-surface $-1 0 -23.641270173338231 6.80920467254216 0 -1 0 0 0 -1 forward_v I I I I #
coedge $-1 $223 $224 $225 $226 reversed $85 $-1 #
coedge $-1 $227 $87 $228 $229 forward $54 $-1 #
coedge $-1 $87 $227 $230 $231 reversed $54 $-1 #
coedge $-1 $232 $233 $87 $141 forward $234 $-1 #
edge $-1 $235 9.8543272070127035 $236 17.71955872563835 $140 $237 forward 7 unknown #
face $-1 $238 $239 $32 $-1 $240 reversed single #
loop $-1 $-1 $241 $88 #
plane-surface $-1 0 0 8.9932038430414192 0 0 1 1 0 0 forward_v I I I I #
coedge $-1 $242 $243 $244 $245 reversed $89 $-1 #
coedge $-1 $147 $91 $246 $247 reversed $57 $-1 #
coedge $-1 $91 $146 $242 $248 reversed $57 $-1 #
coedge $-1 $244 $249 $91 $149 forward $239 $-1 #
edge $-1 $250 58.243782772337319 $251 61.952717313052929 $148 $252 forward 7 unknown #
loop $-1 $-1 $155 $92 #
plane-surface $-1 -21.147254132108557 26.936291851422407 67.623420047774559 0.68199836817093118 0 0.7313536940579346 0.7313536940579346 0 -0.68199836817093118 forward_v I I I I #
loop $-1 $-1 $253 $59 #
coedge $-1 $153 $153 $154 $254 reversed $93 $-1 #
coedge $-1 $154 $154 $153 $254 forward $95 $-1 #
coedge $-1 $155 $155 $96 $156 forward $150 $-1 #
edge $-1 $255 0 $255 6.2831853071796004 $155 $256 forward 7 unknown #
loop $-1 $-1 $162 $97 #
plane-surface $-1 -21.147254132108557 26.936291851422407 67.623420047774559 0.68199836817093118 0 0.7313536940579346 0.7313536940579346 0 -0.68199836817093118 forward_v I I I I #
loop $-1 $-1 $257 $62 #
coedge $-1 $160 $160 $161 $258 reversed $98 $-1 #
coedge $-1 $161 $161 $160 $258 forward $100 $-1 #
coedge $-1 $162 $162 $101 $163 forward $157 $-1 #
edge $-1 $259 0 $259 6.2831853071796004 $162 $260 forward 7 unknown #
loop $-1 $-1 $169 $102 #
plane-surface $-1 -21.147254132108557 26.936291851422407 67.623420047774559 0.68199836817093118 0 0.7313536940579346 0.7313536940579346 0 -0.68199836817093118 forward_v I I I I #
loop $-1 $-1 $261 $65 #
coedge $-1 $167 $167 $168 $262 reversed $103 $-1 #
coedge $-1 $168 $168 $167 $262 forward $105 $-1 #
coedge $-1 $169 $169 $106 $170 forward $164 $-1 #
edge $-1 $263 0 $263 6.2831853071796004 $169 $264 forward 7 unknown #
face $-1 $265 $266 $36 $-1 $267 forward single #
loop $-1 $-1 $268 $107 #
plane-surface $-1 0 31.50650169196388 0 0 -1 0 0 0 -1 forward_v I I I I #
coedge $-1 $269 $270 $271 $272 reversed $108 $-1 #
coedge $-1 $176 $110 $273 $274 reversed $69 $-1 #
coedge $-1 $110 $175 $269 $275 reversed $69 $-1 #
coedge $-1 $271 $276 $110 $178 forward $266 $-1 #
edge $-1 $277 8.3179258472872064 $278 12.295271107872296 $177 $279 forward 7 unknown #
loop $-1 $-1 $184 $111 #
plane-surface $-1 -45.703299050874371 26.936291851422407 5.2842693023258107 -0.68199836817093118 0 0.7313536940579346 0.7313536940579346 0 0.68199836817093118 forward_v I I I I #
loop $-1 $-1 $280 $71 #
coedge $-1 $182 $182 $183 $281 reversed $112 $-1 #
coedge $-1 $183 $183 $182 $281 forward $114 $-1 #
coedge $-1 $184 $184 $115 $185 forward $179 $-1 #
edge $-1 $282 0 $282 6.2831853071796004 $184 $283 forward 7 unknown #
loop $-1 $-1 $191 $116 #
plane-surface $-1 -45.703299050874371 26.936291851422407 5.2842693023258107 -0.68199836817093118 0 0.7313536940579346 0.7313536940579346 0 0.68199836817093118 forward_v I I I I #
loop $-1 $-1 $284 $74 #
coedge $-1 $189 $189 $190 $285 reversed $117 $-1 #
coedge $-1 $190 $190 $189 $285 forward $119 $-1 #
coedge $-1 $191 $191 $120 $192 forward $186 $-1 #
edge $-1 $286 0 $286 6.2831853071796004 $191 $287 forward 7 unknown #
loop $-1 $-1 $198 $121 #
plane-surface $-1 -45.703299050874371 26.936291851422407 5.2842693023258107 -0.68199836817093118 0 0.7313536940579346 0.7313536940579346 0 0.68199836817093118 forward_v I I I I #
loop $-1 $-1 $288 $77 #
coedge $-1 $196 $196 $197 $289 reversed $122 $-1 #
coedge $-1 $197 $197 $196 $289 forward $124 $-1 #
coedge $-1 $198 $198 $125 $199 forward $193 $-1 #
edge $-1 $290 0 $290 6.2831853071796004 $198 $291 forward 7 unknown #
face $-1 $292 $293 $30 $-1 $294 reversed single #
loop $-1 $-1 $295 $126 #
plane-surface $-1 -45.703299050874357 0 0 1 0 0 0 0 -1 forward_v I I I I #
coedge $-1 $296 $211 $297 $298 forward $127 $-1 #
coedge $-1 $299 $129 $296 $300 forward $81 $-1 #
coedge $-1 $129 $299 $301 $302 forward $81 $-1 #
coedge $-1 $214 $213 $129 $207 reversed $215 $-1 #
edge $-1 $303 -31.50650169196388 $304 31.50650169196388 $206 $305 forward 7 unknown #
coedge $-1 $131 $130 $306 $307 forward $51 $-1 #
coedge $-1 $308 $309 $130 $210 reversed $293 $-1 #
edge $-1 $217 -45.703299050874357 $310 45.703299050874357 $209 $311 forward 7 unknown #
coedge $-1 $203 $312 $131 $212 reversed $127 $-1 #
edge $-1 $313 -45.703299050874357 $216 45.703299050874357 $211 $314 forward 7 unknown #
coedge $-1 $206 $132 $312 $315 forward $215 $-1 #
coedge $-1 $132 $206 $308 $316 reversed $215 $-1 #
loop $-1 $-1 $213 $292 #
vertex $-1 $133 $317 #
vertex $-1 $133 $318 #
straight-curve $-1 45.703299050874357 0 8.9932038430414192 0 1 0 I I #
face $-1 $319 $320 $31 $-1 $321 reversed single #
loop $-1 $-1 $322 $134 #
plane-surface $-1 -45.703299050874357 0 0 1 0 0 0 0 -1 forward_v I I I I #
coedge $-1 $323 $228 $233 $324 reversed $135 $-1 #
coedge $-1 $325 $137 $326 $327 reversed $85 $-1 #
coedge $-1 $137 $325 $323 $328 forward $85 $-1 #
coedge $-1 $233 $232 $137 $226 forward $234 $-1 #
edge $-1 $329 -17.71955872563835 $330 -9.8543272070127035 $225 $331 forward 7 unknown #
coedge $-1 $139 $138 $322 $332 reversed $54 $-1 #
coedge $-1 $222 $333 $138 $229 reversed $135 $-1 #
edge $-1 $235 -45.703299050874357 $334 45.703299050874357 $228 $335 forward 7 unknown #
coedge $-1 $336 $337 $139 $231 forward $320 $-1 #
edge $-1 $236 -45.703299050874357 $338 45.703299050874357 $230 $339 forward 7 unknown #
coedge $-1 $225 $140 $337 $340 forward $234 $-1 #
coedge $-1 $140 $225 $222 $324 forward $234 $-1 #
loop $-1 $-1 $140 $319 #
vertex $-1 $141 $341 #
vertex $-1 $340 $342 #
straight-curve $-1 45.703299050874357 -13.786942966325528 8.4932038430414192 0 -1 0 I I #
face $-1 $-1 $343 $32 $-1 $344 reversed single #
loop $-1 $-1 $148 $142 #
plane-surface $-1 45.703299050874357 0 0 -1 0 0 0 0 1 forward_v I I I I #
coedge $-1 $246 $345 $346 $347 forward $143 $-1 #
coedge $-1 $346 $145 $147 $248 forward $89 $-1 #
coedge $-1 $145 $346 $348 $349 reversed $89 $-1 #
coedge $-1 $350 $148 $145 $245 forward $239 $-1 #
edge $-1 $251 8.8979360851697304 $351 18.038355766252678 $244 $352 forward 7 unknown #
coedge $-1 $353 $241 $146 $247 forward $143 $-1 #
edge $-1 $354 21.13000548361914 $250 25.107350744204258 $246 $355 forward 7 unknown #
edge $-1 $251 -91.406598101748699 $354 -85.968264648455119 $147 $356 forward 7 unknown #
coedge $-1 $148 $350 $353 $357 reversed $239 $-1 #
vertex $-1 $357 $358 #
vertex $-1 $149 $359 #
straight-curve $-1 45.703299050874357 22.366082010880934 67.23698661537874 0 0 -1 I I #
coedge $-1 $253 $253 $-1 $360 reversed $152 $-1 #
edge $-1 $361 0 $361 6.2831853071796004 $153 $362 forward 7 unknown #
vertex $-1 $156 $363 #
ellipse-curve $-1 43.714626420581801 24.19416594709752 7.1387365726836132 0.68199836817093118 0 0.7313536940579346 0.3656768470289673 0 -0.34099918408546559 1 I I #
coedge $-1 $257 $257 $-1 $364 reversed $159 $-1 #
edge $-1 $365 0 $365 6.2831853071796004 $160 $366 forward 7 unknown #
vertex $-1 $163 $367 #
ellipse-curve $-1 43.714626420581801 26.936291851422407 7.1387365726836132 0.68199836817093118 0 0.7313536940579346 0.3656768470289673 0 -0.34099918408546559 1 I I #
coedge $-1 $261 $261 $-1 $368 reversed $166 $-1 #
edge $-1 $369 0 $369 6.2831853071796004 $167 $370 forward 7 unknown #
vertex $-1 $170 $371 #
ellipse-curve $-1 43.714626420581801 29.678417755747294 7.1387365726836132 0.68199836817093118 0 0.7313536940579346 0.3656768470289673 0 -0.34099918408546559 1 I I #
face $-1 $-1 $372 $36 $-1 $373 reversed single #
loop $-1 $-1 $271 $171 #
plane-surface $-1 0 0 8.9932038430414192 0 0 1 1 0 0 forward_v I I I I #
coedge $-1 $374 $375 $270 $376 forward $172 $-1 #
coedge $-1 $377 $174 $176 $275 forward $108 $-1 #
coedge $-1 $174 $377 $268 $376 reversed $108 $-1 #
coedge $-1 $378 $177 $174 $272 forward $266 $-1 #
edge $-1 $278 8.8979360851697304 $379 18.038355766252678 $271 $380 forward 7 unknown #
coedge $-1 $381 $382 $175 $274 forward $372 $-1 #
edge $-1 $383 -30.783141940328541 $277 -27.074207399612945 $273 $384 forward 7 unknown #
edge $-1 $278 -5.4383334532935805 $383 -1.9479204584885432e-014 $176 $385 forward 7 unknown #
coedge $-1 $177 $378 $381 $386 forward $266 $-1 #
vertex $-1 $274 $387 #
vertex $-1 $178 $388 #
straight-curve $-1 -54.021224898161563 22.366082010880934 8.993203843041421 1 0 0 I I #
coedge $-1 $280 $280 $-1 $389 reversed $181 $-1 #
edge $-1 $390 0 $390 6.2831853071796004 $182 $391 forward 7 unknown #
vertex $-1 $185 $392 #
ellipse-curve $-1 -43.714626420581816 24.19416594709752 7.1387365726836203 -0.68199836817093118 0 0.7313536940579346 0.3656768470289673 0 0.34099918408546559 1 I I #
coedge $-1 $284 $284 $-1 $393 reversed $188 $-1 #
edge $-1 $394 0 $394 6.2831853071796004 $189 $395 forward 7 unknown #
vertex $-1 $192 $396 #
ellipse-curve $-1 -43.714626420581816 26.936291851422407 7.1387365726836203 -0.68199836817093118 0 0.7313536940579346 0.3656768470289673 0 0.34099918408546559 1 I I #
coedge $-1 $288 $288 $-1 $397 reversed $195 $-1 #
edge $-1 $398 0 $398 6.2831853071796004 $196 $399 forward 7 unknown #
vertex $-1 $199 $400 #
ellipse-curve $-1 -43.714626420581816 29.678417755747294 7.1387365726836203 -0.68199836817093118 0 0.7313536940579346 0.3656768470289673 0 0.34099918408546559 1 I I #
face $-1 $-1 $215 $30 $-1 $401 reversed single #
loop $-1 $-1 $308 $200 #
plane-surface $-1 0 31.50650169196388 0 0 -1 0 0 0 -1 forward_v I I I I #
coedge $-1 $402 $306 $309 $403 forward $201 $-1 #
coedge $-1 $312 $203 $204 $300 reversed $127 $-1 #
coedge $-1 $306 $402 $203 $298 reversed $201 $-1 #
edge $-1 $313 -8.9932038430414192 $404 8.9932038430414192 $297 $405 forward 7 unknown #
coedge $-1 $205 $204 $402 $406 forward $81 $-1 #
edge $-1 $304 -45.703299050874357 $404 45.703299050874357 $296 $407 forward 7 unknown #
coedge $-1 $309 $308 $205 $302 reversed $293 $-1 #
edge $-1 $408 -45.703299050874357 $303 45.703299050874357 $301 $409 forward 7 unknown #
vertex $-1 $207 $410 #
vertex $-1 $315 $411 #
straight-curve $-1 45.703299050874357 0 -8.9932038430414192 0 -1 0 I I #
coedge $-1 $295 $297 $208 $307 reversed $201 $-1 #
edge $-1 $310 -31.50650169196388 $313 31.50650169196388 $306 $412 forward 7 unknown #
coedge $-1 $301 $209 $214 $316 forward $293 $-1 #
coedge $-1 $209 $301 $295 $403 reversed $293 $-1 #
vertex $-1 $210 $413 #
straight-curve $-1 0 31.50650169196388 8.9932038430414192 -1 0 0 I I #
coedge $-1 $211 $296 $213 $315 reversed $127 $-1 #
vertex $-1 $307 $414 #
straight-curve $-1 0 -31.50650169196388 8.9932038430414192 1 0 0 I I #
edge $-1 $216 -8.9932038430414192 $304 8.9932038430414192 $213 $415 forward 7 unknown #
edge $-1 $217 -8.9932038430414192 $303 8.9932038430414192 $214 $416 forward 7 unknown #
point $-1 45.703299050874357 -31.50650169196388 8.9932038430414192 #
point $-1 45.703299050874357 31.50650169196388 8.9932038430414192 #
face $-1 $-1 $234 $31 $-1 $417 reversed single #
loop $-1 $-1 $230 $219 #
plane-surface $-1 0 -31.50650169196388 0 0 1 0 0 0 1 forward_v I I I I #
coedge $-1 $418 $419 $227 $332 forward $220 $-1 #
coedge $-1 $333 $222 $224 $328 reversed $135 $-1 #
edge $-1 $330 1.7206031657718208 $235 5.0886015067703392 $233 $420 forward 7 unknown #
coedge $-1 $224 $223 $421 $422 reversed $85 $-1 #
coedge $-1 $337 $336 $223 $327 forward $320 $-1 #
edge $-1 $423 -45.703299050874357 $329 45.703299050874357 $326 $424 forward 7 unknown #
edge $-1 $425 -45.703299050874357 $330 45.703299050874357 $323 $426 forward 7 unknown #
vertex $-1 $327 $427 #
vertex $-1 $226 $428 #
straight-curve $-1 45.703299050874357 -13.786942966325528 5.1252055020429008 0 1 0 I I #
edge $-1 $338 -17.71955872563835 $334 -9.8543272070127035 $322 $429 forward 7 unknown #
coedge $-1 $228 $323 $418 $430 reversed $135 $-1 #
vertex $-1 $332 $431 #
straight-curve $-1 0 -23.641270173338231 8.4932038430414192 -1 0 0 I I #
coedge $-1 $326 $230 $419 $432 forward $320 $-1 #
coedge $-1 $230 $326 $232 $340 reversed $320 $-1 #
vertex $-1 $432 $433 #
straight-curve $-1 0 -31.50650169196388 8.4932038430414192 -1 0 0 I I #
edge $-1 $236 -8.4932038430414192 $329 -5.1252055020429008 $232 $434 forward 7 unknown #
point $-1 45.703299050874357 -23.641270173338231 8.4932038430414192 #
point $-1 45.703299050874357 -31.50650169196388 8.4932038430414192 #
loop $-1 $-1 $348 $238 #
plane-surface $-1 0 31.50650169196388 0 0 -1 0 0 0 -1 forward_v I I I I #
coedge $-1 $241 $353 $435 $436 forward $143 $-1 #
coedge $-1 $243 $242 $241 $347 reversed $89 $-1 #
edge $-1 $437 -18.038355766252678 $354 -8.8979360851697304 $241 $438 forward 7 unknown #
coedge $-1 $435 $439 $243 $349 forward $343 $-1 #
edge $-1 $351 -60.614005826039104 $437 -55.175672372745517 $348 $440 forward 7 unknown #
coedge $-1 $249 $244 $439 $441 reversed $239 $-1 #
vertex $-1 $349 $442 #
straight-curve $-1 45.70329905087435 13.468145925711204 5.2842693023258072 0 1 0 I I #
coedge $-1 $345 $246 $249 $357 forward $143 $-1 #
vertex $-1 $247 $443 #
straight-curve $-1 20.595948306670099 22.366082010880934 8.993203843041421 1 0 0 I I #
straight-curve $-1 -21.147254132108557 22.366082010880934 67.623420047774559 -0.7313536940579346 0 0.68199836817093118 I I #
edge $-1 $250 22.366082010880934 $444 31.50650169196388 $249 $445 forward 7 unknown #
point $-1 45.703299050874357 22.366082010880934 8.9932038430414192 #
point $-1 45.70329905087435 22.366082010880934 5.2842693023258107 #
edge $-1 $446 1 $446 0 $253 $-1 forward 7 unknown #
vertex $-1 $254 $447 #
ellipse-curve $-1 43.032628052410864 24.19416594709752 6.4073828786256781 0.68199836817093118 0 0.7313536940579346 0.3656768470289673 0 -0.34099918408546559 1 I I #
point $-1 44.080303267610766 24.19416594709752 6.7977373885981471 #
edge $-1 $448 1 $448 0 $257 $-1 forward 7 unknown #
vertex $-1 $258 $449 #
ellipse-curve $-1 43.032628052410864 26.936291851422407 6.4073828786256781 0.68199836817093118 0 0.7313536940579346 0.3656768470289673 0 -0.34099918408546559 1 I I #
point $-1 44.080303267610766 26.936291851422407 6.7977373885981471 #
edge $-1 $450 1 $450 0 $261 $-1 forward 7 unknown #
vertex $-1 $262 $451 #
ellipse-curve $-1 43.032628052410864 29.678417755747294 6.4073828786256781 0.68199836817093118 0 0.7313536940579346 0.3656768470289673 0 -0.34099918408546559 1 I I #
point $-1 44.080303267610766 29.678417755747294 6.7977373885981471 #
loop $-1 $-1 $273 $265 #
plane-surface $-1 -45.703299050874357 0 0 1 0 0 0 0 -1 forward_v I I I I #
coedge $-1 $375 $268 $452 $453 reversed $172 $-1 #
coedge $-1 $268 $374 $378 $454 reversed $172 $-1 #
edge $-1 $379 9.4723733218711779 $455 14.910706775164741 $268 $456 forward 7 unknown #
coedge $-1 $270 $269 $382 $457 reversed $108 $-1 #
coedge $-1 $276 $271 $375 $454 forward $266 $-1 #
vertex $-1 $454 $458 #
straight-curve $-1 -41.725953790289267 13.468145925711204 8.9932038430414192 0 1 0 I I #
coedge $-1 $452 $273 $276 $386 reversed $372 $-1 #
coedge $-1 $273 $452 $377 $457 forward $372 $-1 #
vertex $-1 $274 $459 #
straight-curve $-1 -45.703299050874357 22.366082010880934 36.067411242654366 0 0 1 I I #
straight-curve $-1 -45.703299050874371 22.366082010880934 5.2842693023258107 -0.7313536940579346 0 -0.68199836817093118 I I #
edge $-1 $460 -31.50650169196388 $277 -22.366082010880934 $381 $461 forward 7 unknown #
point $-1 -45.703299050874357 22.366082010880934 8.9932038430414192 #
point $-1 -41.725953790289267 22.366082010880934 8.9932038430414192 #
edge $-1 $462 1 $462 0 $280 $-1 forward 7 unknown #
vertex $-1 $281 $463 #
ellipse-curve $-1 -43.032628052410871 24.19416594709752 6.4073828786256781 -0.68199836817093118 0 0.7313536940579346 0.3656768470289673 0 0.34099918408546559 1 I I #
point $-1 -43.348949573552837 24.19416594709752 7.4797357567690792 #
edge $-1 $464 1 $464 0 $284 $-1 forward 7 unknown #
vertex $-1 $285 $465 #
ellipse-curve $-1 -43.032628052410871 26.936291851422407 6.4073828786256781 -0.68199836817093118 0 0.7313536940579346 0.3656768470289673 0 0.34099918408546559 1 I I #
point $-1 -43.348949573552837 26.936291851422407 7.4797357567690792 #
edge $-1 $466 1 $466 0 $288 $-1 forward 7 unknown #
vertex $-1 $289 $467 #
ellipse-curve $-1 -43.032628052410871 29.678417755747294 6.4073828786256781 -0.68199836817093118 0 0.7313536940579346 0.3656768470289673 0 0.34099918408546559 1 I I #
point $-1 -43.348949573552837 29.678417755747294 7.4797357567690792 #
plane-surface $-1 45.703299050874357 0 0 -1 0 0 0 0 1 forward_v I I I I #
coedge $-1 $297 $295 $299 $406 reversed $201 $-1 #
edge $-1 $310 -8.9932038430414192 $408 8.9932038430414192 $309 $468 forward 7 unknown #
vertex $-1 $406 $469 #
straight-curve $-1 -45.703299050874357 -31.50650169196388 0 0 0 -1 I I #
edge $-1 $404 -31.50650169196388 $408 31.50650169196388 $402 $470 forward 7 unknown #
straight-curve $-1 0 -31.50650169196388 -8.9932038430414192 -1 0 0 I I #
vertex $-1 $302 $471 #
straight-curve $-1 0 31.50650169196388 -8.9932038430414192 1 0 0 I I #
point $-1 45.703299050874357 31.50650169196388 -8.9932038430414192 #
point $-1 45.703299050874357 -31.50650169196388 -8.9932038430414192 #
straight-curve $-1 -45.703299050874357 0 8.9932038430414192 0 -1 0 I I #
point $-1 -45.703299050874357 31.50650169196388 8.9932038430414192 #
point $-1 -45.703299050874357 -31.50650169196388 8.9932038430414192 #
straight-curve $-1 45.703299050874357 -31.50650169196388 0 0 0 -1 I I #
straight-curve $-1 45.703299050874357 31.50650169196388 0 0 0 -1 I I #
plane-surface $-1 45.703299050874357 0 0 -1 0 0 0 0 1 forward_v I I I I #
coedge $-1 $421 $322 $333 $430 forward $220 $-1 #
coedge $-1 $322 $421 $336 $432 reversed $220 $-1 #
straight-curve $-1 45.703299050874357 -23.641270173338231 3.40460233627108 0 0 1 I I #
coedge $-1 $419 $418 $325 $422 forward $220 $-1 #
edge $-1 $425 9.8543272070127035 $423 17.71955872563835 $421 $472 forward 7 unknown #
vertex $-1 $327 $473 #
straight-curve $-1 0 -31.50650169196388 5.1252055020429008 1 0 0 I I #
vertex $-1 $422 $474 #
straight-curve $-1 0 -23.641270173338231 5.1252055020429008 1 0 0 I I #
point $-1 45.703299050874357 -31.50650169196388 5.1252055020429008 #
point $-1 45.703299050874357 -23.641270173338231 5.1252055020429008 #
straight-curve $-1 -45.703299050874357 -13.786942966325528 8.4932038430414192 0 1 0 I I #
edge $-1 $334 -5.0886015067703392 $425 -1.7206031657718208 $418 $475 forward 7 unknown #
point $-1 -45.703299050874357 -23.641270173338231 8.4932038430414192 #
edge $-1 $338 -8.4932038430414192 $423 -5.1252055020429008 $419 $476 forward 7 unknown #
point $-1 -45.703299050874357 -31.50650169196388 8.4932038430414192 #
straight-curve $-1 45.703299050874357 -31.50650169196388 0 0 0 -1 I I #
coedge $-1 $439 $348 $345 $436 reversed $343 $-1 #
edge $-1 $444 -45.703299050874357 $437 -41.725953790289239 $435 $477 forward 7 unknown #
vertex $-1 $349 $478 #
straight-curve $-1 41.725953790289232 13.468145925711204 8.993203843041421 0 -1 0 I I #
coedge $-1 $348 $435 $350 $441 forward $343 $-1 #
straight-curve $-1 1.3730219783514812 31.50650169196388 46.622922363987797 -0.7313536940579346 0 0.68199836817093118 I I #
edge $-1 $444 -8.9932038430414192 $351 -5.2842693023258107 $350 $479 forward 7 unknown #
point $-1 45.70329905087435 31.50650169196388 5.2842693023258107 #
point $-1 41.725953790289239 22.366082010880934 8.993203843041421 #
vertex $-1 $357 $480 #
straight-curve $-1 45.703299050874357 0 8.9932038430414192 0 1 0 I I #
vertex $-1 $360 $481 #
point $-1 43.398304899439836 24.19416594709752 6.066383694540213 #
vertex $-1 $364 $482 #
point $-1 43.398304899439836 26.936291851422407 6.066383694540213 #
vertex $-1 $368 $483 #
point $-1 43.398304899439836 29.678417755747294 6.066383694540213 #
coedge $-1 $382 $381 $374 $453 forward $372 $-1 #
edge $-1 $460 -8.9932038430414192 $455 -5.284269302325824 $374 $484 forward 7 unknown #
edge $-1 $379 41.725953790289267 $460 45.703299050874357 $375 $485 forward 7 unknown #
vertex $-1 $376 $486 #
straight-curve $-1 -34.798298569842949 31.50650169196388 15.453346991263423 -0.7313536940579346 0 -0.68199836817093118 I I #
edge $-1 $455 -18.038355766252678 $383 -8.8979360851697304 $382 $487 forward 7 unknown #
point $-1 -41.725953790289267 31.50650169196388 8.9932038430414192 #
point $-1 -45.703299050874357 22.366082010880934 5.284269302325824 #
vertex $-1 $454 $488 #
straight-curve $-1 -45.703299050874357 0 8.9932038430414192 0 -1 0 I I #
vertex $-1 $389 $489 #
point $-1 -42.666951205381906 24.19416594709752 6.7483820627111442 #
vertex $-1 $393 $490 #
point $-1 -42.666951205381906 26.936291851422407 6.7483820627111442 #
vertex $-1 $397 $491 #
point $-1 -42.666951205381906 29.678417755747294 6.7483820627111442 #
straight-curve $-1 -45.703299050874357 31.50650169196388 0 0 0 -1 I I #
point $-1 -45.703299050874357 -31.50650169196388 -8.9932038430414192 #
straight-curve $-1 -45.703299050874357 0 -8.9932038430414192 0 1 0 I I #
point $-1 -45.703299050874357 31.50650169196388 -8.9932038430414192 #
straight-curve $-1 -45.703299050874357 -13.786942966325528 5.1252055020429008 0 -1 0 I I #
point $-1 -45.703299050874357 -31.50650169196388 5.1252055020429008 #
point $-1 -45.703299050874357 -23.641270173338231 5.1252055020429008 #
straight-curve $-1 -45.703299050874357 -23.641270173338231 3.40460233627108 0 0 -1 I I #
straight-curve $-1 -45.703299050874357 -31.50650169196388 0 0 0 -1 I I #
straight-curve $-1 0 31.50650169196388 8.9932038430414192 -1 0 0 I I #
point $-1 41.725953790289239 31.50650169196388 8.993203843041421 #
straight-curve $-1 45.703299050874357 31.50650169196388 0 0 0 -1 I I #
point $-1 45.703299050874357 31.50650169196388 8.9932038430414192 #
point $-1 42.691628868325402 24.19416594709752 6.0417060315967115 #
point $-1 42.691628868325402 26.936291851422407 6.0417060315967115 #
point $-1 42.691628868325402 29.678417755747294 6.0417060315967115 #
straight-curve $-1 -45.703299050874357 31.50650169196388 0 0 0 -1 I I #
straight-curve $-1 0 31.50650169196388 8.9932038430414192 -1 0 0 I I #
point $-1 -45.703299050874357 31.50650169196388 5.284269302325824 #
straight-curve $-1 -45.703299050874357 13.468145925711204 5.2842693023258258 0 -1 0 I I #
point $-1 -45.703299050874357 31.50650169196388 8.9932038430414192 #
point $-1 -42.691628868325409 24.19416594709752 6.0417060315967115 #
point $-1 -42.691628868325409 26.936291851422407 6.0417060315967115 #
point $-1 -42.691628868325409 29.678417755747294 6.0417060315967115 #
End-of-ACIS-data 