500 0 4 0           
7 Unknown 11 ACIS 5.0 NT 24 Fri Mar 26 16:09:22 1999 
-1 9.9999999999999995e-007 1e-010 
body $-1 $4 $-1 $5 #
body $-1 $6 $-1 $7 #
body $-1 $8 $-1 $9 #
body $-1 $10 $-1 $11 #
lump $-1 $-1 $12 $0 #
transform $-1 1 0 0 0 1 0 0 0 1 54.845423749504079 36.368171718095944 13.365333628716071 1 rotate no_reflect no_shear #
lump $-1 $-1 $13 $1 #
transform $-1 1 0 0 0 1 0 0 0 1 54.845423749504079 36.368171718095944 13.365333628716071 1 rotate no_reflect no_shear #
lump $-1 $-1 $14 $2 #
transform $-1 1 0 0 0 1 0 0 0 1 54.845423749504079 36.368171718095944 13.365333628716071 1 rotate no_reflect no_shear #
lump $-1 $-1 $15 $3 #
transform $-1 1 0 0 0 1 0 0 0 1 54.845423749504079 36.368171718095944 13.365333628716071 1 rotate no_reflect no_shear #
shell $-1 $-1 $-1 $16 $-1 $4 #
shell $-1 $-1 $-1 $17 $-1 $6 #
shell $-1 $-1 $-1 $18 $-1 $8 #
shell $-1 $-1 $-1 $19 $-1 $10 #
face $-1 $20 $21 $12 $-1 $22 forward single #
face $-1 $23 $24 $13 $-1 $25 reversed single #
face $-1 $26 $27 $14 $-1 $28 reversed single #
face $-1 $29 $30 $15 $-1 $31 forward single #
face $-1 $32 $33 $12 $-1 $34 reversed single #
loop $-1 $-1 $35 $16 #
plane-surface $-1 0 0 13.365333628716071 0 0 1 1 0 0 forward_v I I I I #
face $-1 $36 $37 $13 $-1 $38 reversed single #
loop $-1 $-1 $39 $17 #
plane-surface $-1 -49.234467675914807 -29.075505317515642 0 0 -1 0 0 0 -1 forward_v I I I I #
face $-1 $40 $41 $14 $-1 $42 reversed single #
loop $-1 $-1 $43 $18 #
plane-surface $-1 32.889974614197499 -123.97117856007699 66.381495791447094 -1 0 0 0 -0.79863551827123203 0.60181501223851219 forward_v I I I I #
face $-1 $44 $45 $15 $-1 $46 forward single #
loop $-1 $47 $48 $19 #
cone-surface $-1 23.912013012269995 -29.449989106804971 5.3436470345572857 0 0.79863551827123203 -0.60181501223851219 2 0 0 1 I I 0 1 2 forward I I I I #
face $-1 $49 $50 $12 $-1 $51 reversed single #
loop $-1 $-1 $52 $20 #
plane-surface $-1 0 0 -13.365333628716071 0 0 1 1 0 0 forward_v I I I I #
coedge $-1 $53 $54 $55 $56 forward $21 $-1 #
face $-1 $57 $58 $13 $-1 $59 forward single #
loop $-1 $-1 $60 $23 #
plane-surface $-1 -43.623511602325536 -32.721838517805793 0 -1 0 0 0 0 1 forward_v I I I I #
coedge $-1 $61 $62 $63 $64 forward $24 $-1 #
face $-1 $65 $66 $14 $-1 $67 reversed single #
loop $-1 $-1 $68 $26 #
plane-surface $-1 23.912013012269995 -36.368171718095937 0.36789706137872713 0 -0.79863551827123203 0.60181501223851219 1 0 0 forward_v I I I I #
coedge $-1 $69 $70 $71 $72 reversed $27 $-1 #
face $-1 $-1 $73 $15 $-1 $74 forward single #
loop $-1 $75 $76 $29 #
cone-surface $-1 23.912013012269995 -26.630306321143717 3.2188637118286554 0 0.79863551827123203 -0.60181501223851219 1 0 0 1 I I -0.70710678118654746 0.70710678118654746 1 forward I I I I #
loop $-1 $-1 $77 $19 #
coedge $-1 $48 $48 $78 $79 reversed $30 $-1 #
face $-1 $80 $81 $12 $-1 $82 reversed single #
loop $-1 $-1 $83 $32 #
plane-surface $-1 0 -36.368171718095944 0 0 1 0 0 0 1 forward_v I I I I #
coedge $-1 $84 $85 $86 $87 forward $33 $-1 #
coedge $-1 $88 $35 $89 $90 forward $21 $-1 #
coedge $-1 $35 $88 $91 $92 forward $21 $-1 #
coedge $-1 $93 $94 $35 $56 reversed $95 $-1 #
edge $-1 $96 -36.368171718095944 $97 36.368171718095944 $55 $98 forward 7 unknown #
face $-1 $99 $100 $13 $-1 $101 reversed single #
loop $-1 $-1 $102 $36 #
plane-surface $-1 0 0 13.365333628716071 0 0 1 1 0 0 forward_v I I I I #
coedge $-1 $103 $104 $105 $106 reversed $37 $-1 #
coedge $-1 $107 $39 $108 $109 reversed $24 $-1 #
coedge $-1 $39 $107 $110 $111 reversed $24 $-1 #
coedge $-1 $104 $103 $39 $64 reversed $37 $-1 #
edge $-1 $112 -13.365333628716071 $113 13.365333628716071 $63 $114 forward 7 unknown #
face $-1 $115 $116 $14 $-1 $117 forward single #
loop $-1 $-1 $118 $40 #
plane-surface $-1 14.934051410342491 -123.97117856007699 66.381495791447094 1 0 0 0 0.79863551827123203 -0.60181501223851219 forward_v I I I I #
coedge $-1 $119 $120 $121 $122 reversed $41 $-1 #
coedge $-1 $70 $43 $123 $124 reversed $27 $-1 #
coedge $-1 $43 $69 $119 $125 reversed $27 $-1 #
coedge $-1 $121 $126 $43 $72 forward $116 $-1 #
edge $-1 $127 25.617417561942553 $128 35.411688249744465 $71 $129 forward 7 unknown #
loop $-1 $-1 $78 $44 #
plane-surface $-1 23.912013012269995 -36.368171718095937 0.36789706137872713 0 -0.79863551827123203 0.60181501223851219 1 0 0 forward_v I I I I #
loop $-1 $-1 $130 $29 #
coedge $-1 $76 $76 $77 $131 reversed $45 $-1 #
coedge $-1 $77 $77 $76 $131 forward $47 $-1 #
coedge $-1 $78 $78 $48 $79 forward $73 $-1 #
edge $-1 $132 -3.6474934475091976e-016 $132 6.2831853071796004 $78 $133 forward 7 unknown #
face $-1 $134 $135 $12 $-1 $136 reversed single #
loop $-1 $-1 $137 $49 #
plane-surface $-1 -54.845423749504079 0 0 1 0 0 0 0 -1 forward_v I I I I #
coedge $-1 $138 $91 $139 $140 forward $50 $-1 #
coedge $-1 $141 $52 $138 $142 forward $33 $-1 #
coedge $-1 $52 $141 $143 $144 forward $33 $-1 #
coedge $-1 $94 $93 $52 $87 reversed $95 $-1 #
edge $-1 $145 -36.368171718095944 $146 36.368171718095944 $86 $147 forward 7 unknown #
coedge $-1 $54 $53 $148 $149 forward $21 $-1 #
coedge $-1 $150 $151 $53 $90 reversed $135 $-1 #
edge $-1 $97 -54.845423749504079 $152 54.845423749504079 $89 $153 forward 7 unknown #
coedge $-1 $83 $154 $54 $92 reversed $50 $-1 #
edge $-1 $155 -54.845423749504079 $96 54.845423749504079 $91 $156 forward 7 unknown #
coedge $-1 $86 $55 $154 $157 forward $95 $-1 #
coedge $-1 $55 $86 $150 $158 reversed $95 $-1 #
loop $-1 $-1 $93 $134 #
vertex $-1 $56 $159 #
vertex $-1 $56 $160 #
straight-curve $-1 54.845423749504079 0 13.365333628716071 0 1 0 I I #
face $-1 $161 $162 $13 $-1 $163 reversed single #
loop $-1 $-1 $164 $57 #
plane-surface $-1 -54.845423749504079 0 0 1 0 0 0 0 -1 forward_v I I I I #
coedge $-1 $110 $165 $104 $166 forward $58 $-1 #
coedge $-1 $63 $60 $167 $168 reversed $37 $-1 #
coedge $-1 $60 $63 $102 $166 reversed $37 $-1 #
coedge $-1 $169 $170 $60 $106 forward $171 $-1 #
edge $-1 $172 -13.365333628716071 $173 13.365333628716071 $105 $174 forward 7 unknown #
coedge $-1 $62 $61 $164 $175 reversed $24 $-1 #
coedge $-1 $167 $176 $61 $109 forward $162 $-1 #
edge $-1 $177 -30.228189911546675 $113 -19.006277764368132 $108 $178 forward 7 unknown #
coedge $-1 $179 $102 $62 $111 forward $58 $-1 #
edge $-1 $112 19.006277764368132 $180 30.228189911546675 $110 $181 forward 7 unknown #
vertex $-1 $111 $182 #
vertex $-1 $109 $183 #
straight-curve $-1 -43.623511602325536 -29.075505317515642 0 0 0 -1 I I #
face $-1 $-1 $184 $14 $-1 $185 reversed single #
loop $-1 $-1 $71 $65 #
plane-surface $-1 0 0 13.365333628716071 0 0 1 1 0 0 forward_v I I I I #
coedge $-1 $186 $187 $188 $189 reversed $66 $-1 #
coedge $-1 $190 $68 $70 $125 forward $41 $-1 #
coedge $-1 $68 $190 $186 $191 forward $41 $-1 #
coedge $-1 $188 $71 $68 $122 forward $116 $-1 #
edge $-1 $128 -20.933968108062501 $192 -2.9780449042074935 $121 $193 forward 7 unknown #
coedge $-1 $194 $195 $69 $124 forward $184 $-1 #
edge $-1 $196 -32.822850834344827 $127 -19.825414267007474 $123 $197 forward 7 unknown #
edge $-1 $128 -16.274553622999726 $196 1.1812792947853924e-014 $70 $198 forward 7 unknown #
coedge $-1 $71 $188 $194 $199 forward $116 $-1 #
vertex $-1 $124 $200 #
vertex $-1 $72 $201 #
straight-curve $-1 32.889974614197499 -61.985589280038496 13.365333628716073 0 1 0 I I #
coedge $-1 $130 $130 $-1 $202 reversed $75 $-1 #
edge $-1 $203 0 $203 6.2831853071796004 $76 $204 forward 7 unknown #
vertex $-1 $79 $205 #
ellipse-curve $-1 23.912013012269995 -31.471036374194984 6.8666153450473981 0 -0.79863551827123203 0.60181501223851219 2 0 0 1 I I #
face $-1 $-1 $95 $12 $-1 $206 reversed single #
loop $-1 $-1 $150 $80 #
plane-surface $-1 0 36.368171718095944 0 0 -1 0 0 0 -1 forward_v I I I I #
coedge $-1 $207 $148 $151 $208 forward $81 $-1 #
coedge $-1 $154 $83 $84 $142 reversed $50 $-1 #
coedge $-1 $148 $207 $83 $140 reversed $81 $-1 #
edge $-1 $155 -13.365333628716071 $209 13.365333628716071 $139 $210 forward 7 unknown #
coedge $-1 $85 $84 $207 $211 forward $33 $-1 #
edge $-1 $146 -54.845423749504079 $209 54.845423749504079 $138 $212 forward 7 unknown #
coedge $-1 $151 $150 $85 $144 reversed $135 $-1 #
edge $-1 $213 -54.845423749504079 $145 54.845423749504079 $143 $214 forward 7 unknown #
vertex $-1 $87 $215 #
vertex $-1 $157 $216 #
straight-curve $-1 54.845423749504079 0 -13.365333628716071 0 -1 0 I I #
coedge $-1 $137 $139 $88 $149 reversed $81 $-1 #
edge $-1 $152 -36.368171718095944 $155 36.368171718095944 $148 $217 forward 7 unknown #
coedge $-1 $143 $89 $94 $158 forward $135 $-1 #
coedge $-1 $89 $143 $137 $208 reversed $135 $-1 #
vertex $-1 $90 $218 #
straight-curve $-1 0 36.368171718095944 13.365333628716071 -1 0 0 I I #
coedge $-1 $91 $138 $93 $157 reversed $50 $-1 #
vertex $-1 $149 $219 #
straight-curve $-1 0 -36.368171718095944 13.365333628716071 1 0 0 I I #
edge $-1 $96 -13.365333628716071 $146 13.365333628716071 $93 $220 forward 7 unknown #
edge $-1 $97 -13.365333628716071 $145 13.365333628716071 $94 $221 forward 7 unknown #
point $-1 54.845423749504079 -36.368171718095944 13.365333628716071 #
point $-1 54.845423749504079 36.368171718095944 13.365333628716071 #
face $-1 $-1 $171 $13 $-1 $222 reversed single #
loop $-1 $-1 $167 $99 #
plane-surface $-1 0 0 -13.365333628716071 0 0 1 1 0 0 forward_v I I I I #
coedge $-1 $223 $224 $107 $175 forward $100 $-1 #
coedge $-1 $102 $179 $169 $225 forward $58 $-1 #
edge $-1 $173 -20.007252459193047 $112 -12.714586058612745 $102 $226 forward 7 unknown #
coedge $-1 $227 $108 $103 $168 forward $162 $-1 #
edge $-1 $113 12.714586058612745 $172 20.007252459193047 $167 $228 forward 7 unknown #
coedge $-1 $229 $105 $165 $225 reversed $171 $-1 #
coedge $-1 $105 $229 $227 $230 reversed $171 $-1 #
loop $-1 $-1 $105 $161 #
vertex $-1 $230 $231 #
vertex $-1 $106 $232 #
straight-curve $-1 -43.623511602325536 -36.368171718095944 0 0 0 1 I I #
edge $-1 $180 -13.365333628716071 $177 13.365333628716071 $164 $233 forward 7 unknown #
coedge $-1 $108 $227 $223 $234 forward $162 $-1 #
vertex $-1 $109 $235 #
straight-curve $-1 -24.617233837957404 -29.075505317515642 -13.365333628716071 1 0 0 I I #
coedge $-1 $165 $110 $224 $236 forward $58 $-1 #
vertex $-1 $236 $237 #
straight-curve $-1 -24.617233837957404 -29.075505317515642 13.365333628716071 -1 0 0 I I #
point $-1 -43.623511602325536 -29.075505317515642 13.365333628716071 #
point $-1 -43.623511602325536 -29.075505317515642 -13.365333628716071 #
loop $-1 $-1 $123 $115 #
plane-surface $-1 0 -36.368171718095944 0 0 1 0 0 0 1 forward_v I I I I #
coedge $-1 $187 $118 $120 $191 reversed $66 $-1 #
coedge $-1 $118 $186 $238 $239 reversed $66 $-1 #
coedge $-1 $126 $121 $118 $189 forward $116 $-1 #
edge $-1 $192 -35.411688249744465 $240 -25.617417561942553 $188 $241 forward 7 unknown #
coedge $-1 $120 $119 $195 $242 reversed $41 $-1 #
edge $-1 $243 -1.1812792947853924e-014 $192 16.274553622999726 $186 $244 forward 7 unknown #
vertex $-1 $122 $245 #
straight-curve $-1 11.956006506134997 -26.573901030294032 13.365333628716071 -1 0 0 I I #
coedge $-1 $238 $123 $126 $199 reversed $184 $-1 #
coedge $-1 $123 $238 $190 $242 forward $184 $-1 #
vertex $-1 $124 $246 #
straight-curve $-1 32.889974614197499 -36.368171718095944 33.190747895723547 0 0 1 I I #
straight-curve $-1 32.889974614197499 -36.368171718095937 0.36789706137872713 0 -0.60181501223851219 -0.79863551827123203 I I #
edge $-1 $240 14.934051410342491 $127 32.889974614197499 $194 $247 forward 7 unknown #
point $-1 32.889974614197499 -36.368171718095944 13.365333628716071 #
point $-1 32.889974614197499 -26.573901030294032 13.365333628716069 #
edge $-1 $248 1 $248 0 $130 $-1 forward 7 unknown #
vertex $-1 $131 $249 #
ellipse-curve $-1 23.912013012269995 -27.42894183941495 3.8206787240671676 0 -0.79863551827123203 0.60181501223851219 2 0 0 1 I I #
point $-1 25.912013012269995 -31.471036374194991 6.8666153450474026 #
plane-surface $-1 54.845423749504079 0 0 -1 0 0 0 0 1 forward_v I I I I #
coedge $-1 $139 $137 $141 $211 reversed $81 $-1 #
edge $-1 $152 -13.365333628716071 $213 13.365333628716071 $151 $250 forward 7 unknown #
vertex $-1 $211 $251 #
straight-curve $-1 -54.845423749504079 -36.368171718095944 0 0 0 -1 I I #
edge $-1 $209 -36.368171718095944 $213 36.368171718095944 $207 $252 forward 7 unknown #
straight-curve $-1 0 -36.368171718095944 -13.365333628716071 -1 0 0 I I #
vertex $-1 $144 $253 #
straight-curve $-1 0 36.368171718095944 -13.365333628716071 1 0 0 I I #
point $-1 54.845423749504079 36.368171718095944 -13.365333628716071 #
point $-1 54.845423749504079 -36.368171718095944 -13.365333628716071 #
straight-curve $-1 -54.845423749504079 0 13.365333628716071 0 -1 0 I I #
point $-1 -54.845423749504079 36.368171718095944 13.365333628716071 #
point $-1 -54.845423749504079 -36.368171718095944 13.365333628716071 #
straight-curve $-1 54.845423749504079 -36.368171718095944 0 0 0 -1 I I #
straight-curve $-1 54.845423749504079 36.368171718095944 0 0 0 -1 I I #
plane-surface $-1 0 -36.368171718095944 0 0 1 0 0 0 1 forward_v I I I I #
coedge $-1 $254 $164 $176 $234 reversed $100 $-1 #
coedge $-1 $164 $254 $179 $236 reversed $100 $-1 #
edge $-1 $255 -54.845423749504079 $173 -43.623511602325536 $169 $256 forward 7 unknown #
straight-curve $-1 -43.623511602325536 -16.360919258902896 13.365333628716071 0 1 0 I I #
coedge $-1 $176 $167 $170 $230 forward $162 $-1 #
straight-curve $-1 -43.623511602325536 -16.360919258902896 -13.365333628716071 0 -1 0 I I #
coedge $-1 $170 $169 $254 $257 forward $171 $-1 #
edge $-1 $172 43.623511602325536 $258 54.845423749504079 $170 $259 forward 7 unknown #
point $-1 -43.623511602325536 -36.368171718095944 -13.365333628716071 #
point $-1 -43.623511602325536 -36.368171718095944 13.365333628716071 #
straight-curve $-1 -54.845423749504079 -29.075505317515642 0 0 0 -1 I I #
edge $-1 $258 -36.368171718095944 $177 -29.075505317515642 $223 $260 forward 7 unknown #
point $-1 -54.845423749504079 -29.075505317515642 -13.365333628716071 #
edge $-1 $180 29.075505317515642 $255 36.368171718095944 $224 $261 forward 7 unknown #
point $-1 -54.845423749504079 -29.075505317515642 13.365333628716071 #
coedge $-1 $195 $194 $187 $239 forward $184 $-1 #
edge $-1 $240 19.825414267007474 $243 32.822850834344827 $238 $262 forward 7 unknown #
vertex $-1 $199 $263 #
straight-curve $-1 14.934051410342491 -61.985589280038496 13.365333628716073 0 -1 0 I I #
edge $-1 $243 2.9780449042074935 $196 20.933968108062501 $195 $264 forward 7 unknown #
vertex $-1 $242 $265 #
straight-curve $-1 14.934051410342491 -36.368171718095937 0.36789706137872713 0 0.60181501223851219 0.79863551827123203 I I #
point $-1 14.934051410342491 -26.573901030294032 13.365333628716069 #
point $-1 32.889974614197499 -36.368171718095944 0.36789706137871769 #
straight-curve $-1 0 -36.368171718095944 13.365333628716071 1 0 0 I I #
vertex $-1 $202 $266 #
point $-1 25.912013012269995 -27.42894183941495 3.8206787240671676 #
straight-curve $-1 -54.845423749504079 36.368171718095944 0 0 0 -1 I I #
point $-1 -54.845423749504079 -36.368171718095944 -13.365333628716071 #
straight-curve $-1 -54.845423749504079 0 -13.365333628716071 0 1 0 I I #
point $-1 -54.845423749504079 36.368171718095944 -13.365333628716071 #
coedge $-1 $224 $223 $229 $257 reversed $100 $-1 #
vertex $-1 $236 $267 #
straight-curve $-1 0 -36.368171718095944 13.365333628716071 1 0 0 I I #
edge $-1 $255 -13.365333628716071 $258 13.365333628716071 $254 $268 forward 7 unknown #
vertex $-1 $234 $269 #
straight-curve $-1 0 -36.368171718095944 -13.365333628716071 -1 0 0 I I #
straight-curve $-1 -54.845423749504079 0 -13.365333628716071 0 1 0 I I #
straight-curve $-1 -54.845423749504079 0 13.365333628716071 0 -1 0 I I #
straight-curve $-1 14.934051410342491 -36.368171718095944 33.190747895723547 0 0 -1 I I #
point $-1 14.934051410342491 -36.368171718095944 13.365333628716071 #
straight-curve $-1 11.956006506134997 -36.368171718095944 0.36789706137871608 1 0 0 I I #
point $-1 14.934051410342491 -36.368171718095944 0.36789706137871769 #
point $-1 23.912013012269995 -25.831670802872484 2.6170486995901432 #
point $-1 -54.845423749504079 -36.368171718095944 13.365333628716071 #
straight-curve $-1 -54.845423749504079 -36.368171718095944 0 0 0 -1 I I #
point $-1 -54.845423749504079 -36.368171718095944 -13.365333628716071 #
End-of-ACIS-data 