500 0 11 0           
7 Unknown 11 ACIS 5.0 NT 24 Fri Mar 26 00:07:42 1999 
-1 9.9999999999999995e-007 1e-010 
body $-1 $11 $-1 $12 #
body $-1 $13 $-1 $14 #
body $-1 $15 $-1 $16 #
body $-1 $17 $-1 $18 #
body $-1 $19 $-1 $20 #
body $-1 $21 $-1 $22 #
body $-1 $23 $-1 $24 #
body $-1 $25 $-1 $26 #
body $-1 $27 $-1 $28 #
body $-1 $29 $-1 $30 #
body $-1 $31 $-1 $32 #
lump $-1 $-1 $33 $0 #
transform $-1 1 0 0 0 1 0 0 0 1 46.815393536179691 30.968853592705159 7.2085495540306264 1 rotate no_reflect no_shear #
lump $-1 $-1 $34 $1 #
transform $-1 1 0 0 0 1 0 0 0 1 46.815393536179691 30.968853592705159 7.2085495540306264 1 rotate no_reflect no_shear #
lump $-1 $-1 $35 $2 #
transform $-1 1 0 0 0 1 0 0 0 1 46.815393536179691 30.968853592705159 7.2085495540306264 1 rotate no_reflect no_shear #
lump $-1 $-1 $36 $3 #
transform $-1 1 0 0 0 1 0 0 0 1 46.815393536179691 30.968853592705159 7.2085495540306264 1 rotate no_reflect no_shear #
lump $-1 $-1 $37 $4 #
transform $-1 1 0 0 0 1 0 0 0 1 46.815393536179691 30.968853592705159 7.2085495540306264 1 rotate no_reflect no_shear #
lump $-1 $-1 $38 $5 #
transform $-1 1 0 0 0 1 0 0 0 1 46.815393536179691 30.968853592705159 7.2085495540306264 1 rotate no_reflect no_shear #
lump $-1 $-1 $39 $6 #
transform $-1 1 0 0 0 1 0 0 0 1 46.815393536179691 30.968853592705159 7.2085495540306264 1 rotate no_reflect no_shear #
lump $-1 $-1 $40 $7 #
transform $-1 1 0 0 0 1 0 0 0 1 46.815393536179691 30.968853592705159 7.2085495540306264 1 rotate no_reflect no_shear #
lump $-1 $-1 $41 $8 #
transform $-1 1 0 0 0 1 0 0 0 1 46.815393536179691 30.968853592705159 7.2085495540306264 1 rotate no_reflect no_shear #
lump $-1 $-1 $42 $9 #
transform $-1 1 0 0 0 1 0 0 0 1 46.815393536179691 30.968853592705159 7.2085495540306264 1 rotate no_reflect no_shear #
lump $-1 $-1 $43 $10 #
transform $-1 1 0 0 0 1 0 0 0 1 46.815393536179691 30.968853592705159 7.2085495540306264 1 rotate no_reflect no_shear #
shell $-1 $-1 $-1 $44 $-1 $11 #
shell $-1 $-1 $-1 $45 $-1 $13 #
shell $-1 $-1 $-1 $46 $-1 $15 #
shell $-1 $-1 $-1 $47 $-1 $17 #
shell $-1 $-1 $-1 $48 $-1 $19 #
shell $-1 $-1 $-1 $49 $-1 $21 #
shell $-1 $-1 $-1 $50 $-1 $23 #
shell $-1 $-1 $-1 $51 $-1 $25 #
shell $-1 $-1 $-1 $52 $-1 $27 #
shell $-1 $-1 $-1 $53 $-1 $29 #
shell $-1 $-1 $-1 $54 $-1 $31 #
face $-1 $55 $56 $33 $-1 $57 reversed single #
face $-1 $58 $59 $34 $-1 $60 forward single #
face $-1 $61 $62 $35 $-1 $63 reversed single #
face $-1 $64 $65 $36 $-1 $66 forward single #
face $-1 $67 $68 $37 $-1 $69 forward single #
face $-1 $70 $71 $38 $-1 $72 reversed single #
face $-1 $73 $74 $39 $-1 $75 forward single #
face $-1 $76 $77 $40 $-1 $78 forward single #
face $-1 $79 $80 $41 $-1 $81 reversed single #
face $-1 $82 $83 $42 $-1 $84 forward single #
face $-1 $85 $86 $43 $-1 $87 forward single #
face $-1 $88 $89 $33 $-1 $90 forward single #
loop $-1 $-1 $91 $44 #
plane-surface $-1 -46.815393536179691 0 0 1 0 0 0 0 -1 forward_v I I I I #
face $-1 $92 $93 $34 $-1 $94 reversed single #
loop $-1 $-1 $95 $45 #
plane-surface $-1 -46.815393536179691 0 0 1 0 0 0 0 -1 forward_v I I I I #
face $-1 $96 $97 $35 $-1 $98 reversed single #
loop $-1 $-1 $99 $46 #
plane-surface $-1 -31.787503731624213 49.526526635085673 114.04828103907001 1 0 0 0 -0.68199836817093118 -0.7313536940579346 forward_v I I I I #
face $-1 $100 $101 $36 $-1 $102 forward single #
loop $-1 $103 $104 $47 #
cone-surface $-1 -25.805599771388422 27.549525089334782 3.8326374064035491 0 -0.68199836817093118 -0.7313536940579346 1 0 0 1 I I 0 1 1 forward I I I I #
face $-1 $105 $106 $37 $-1 $107 forward single #
loop $-1 $108 $109 $48 #
cone-surface $-1 -16.832743831034733 27.549525089334782 3.8326374064035491 0 -0.68199836817093118 -0.7313536940579346 1 0 0 1 I I 0 1 1 forward I I I I #
face $-1 $110 $111 $38 $-1 $112 reversed single #
loop $-1 $-1 $113 $49 #
plane-surface $-1 16.786313858795513 49.526526635085673 114.04828103907001 1 0 0 0 -0.68199836817093118 -0.7313536940579346 forward_v I I I I #
face $-1 $114 $115 $39 $-1 $116 forward single #
loop $-1 $117 $118 $50 #
cone-surface $-1 22.7682178190313 27.549525089334782 3.8326374064035491 0 -0.68199836817093118 -0.7313536940579346 1 0 0 1 I I 0 1 1 forward I I I I #
face $-1 $119 $120 $40 $-1 $121 forward single #
loop $-1 $122 $123 $51 #
cone-surface $-1 31.741073759384996 27.549525089334782 3.8326374064035491 0 -0.68199836817093118 -0.7313536940579346 1 0 0 1 I I 0 1 1 forward I I I I #
face $-1 $124 $125 $41 $-1 $126 reversed single #
loop $-1 $-1 $127 $52 #
plane-surface $-1 6.9290221931285654 -89.892617859076012 73.196983537843153 -1 0 0 0 -0.62932039886446345 0.77714595512881146 forward_v I I I I #
face $-1 $128 $129 $42 $-1 $130 forward single #
loop $-1 $131 $132 $53 #
cone-surface $-1 -10.54951712695474 -23.705182519546604 0.017357255870241062 0 0.62932039886446345 -0.77714595512881146 2.5 0 0 1 I I 0 1 2.5 forward I I I I #
face $-1 $133 $134 $43 $-1 $135 forward single #
loop $-1 $136 $137 $54 #
cone-surface $-1 -0.062393534904757075 -23.705182519546604 0.017357255870241062 0 0.62932039886446345 -0.77714595512881146 2.5 0 0 1 I I 0 1 2.5 forward I I I I #
face $-1 $138 $139 $33 $-1 $140 reversed single #
loop $-1 $-1 $141 $55 #
plane-surface $-1 0 0 7.2085495540306264 0 0 1 1 0 0 forward_v I I I I #
coedge $-1 $142 $143 $144 $145 reversed $56 $-1 #
face $-1 $146 $147 $34 $-1 $148 reversed single #
loop $-1 $-1 $149 $58 #
plane-surface $-1 0 0 -7.2085495540306264 0 0 1 1 0 0 forward_v I I I I #
coedge $-1 $150 $151 $152 $153 forward $59 $-1 #
face $-1 $154 $155 $35 $-1 $156 reversed single #
loop $-1 $-1 $157 $61 #
plane-surface $-1 -21.319171801211578 -14.329517358823345 45.571059036148057 0 0.68199836817093118 0.7313536940579346 1 0 0 forward_v I I I I #
coedge $-1 $158 $159 $160 $161 reversed $62 $-1 #
face $-1 $-1 $162 $36 $-1 $163 forward single #
loop $-1 $164 $165 $64 #
cone-surface $-1 -25.805599771388422 25.869005931533543 2.0305012850381905 0 -0.68199836817093118 -0.7313536940579346 0.5 0 0 1 I I -0.70710678118654746 0.70710678118654746 0.5 forward I I I I #
loop $-1 $-1 $166 $47 #
coedge $-1 $104 $104 $167 $168 reversed $65 $-1 #
face $-1 $-1 $169 $37 $-1 $170 forward single #
loop $-1 $171 $172 $67 #
cone-surface $-1 -16.832743831034733 25.869005931533543 2.0305012850381905 0 -0.68199836817093118 -0.7313536940579346 0.5 0 0 1 I I -0.70710678118654746 0.70710678118654746 0.5 forward I I I I #
loop $-1 $-1 $173 $48 #
coedge $-1 $109 $109 $174 $175 reversed $68 $-1 #
face $-1 $176 $177 $38 $-1 $178 reversed single #
loop $-1 $-1 $179 $70 #
plane-surface $-1 27.254645789208148 -14.329517358823345 45.571059036148057 0 0.68199836817093118 0.7313536940579346 1 0 0 forward_v I I I I #
coedge $-1 $180 $181 $182 $183 reversed $71 $-1 #
face $-1 $-1 $184 $39 $-1 $185 forward single #
loop $-1 $186 $187 $73 #
cone-surface $-1 22.7682178190313 25.869005931533543 2.0305012850381905 0 -0.68199836817093118 -0.7313536940579346 0.5 0 0 1 I I -0.70710678118654746 0.70710678118654746 0.5 forward I I I I #
loop $-1 $-1 $188 $50 #
coedge $-1 $118 $118 $189 $190 reversed $74 $-1 #
face $-1 $-1 $191 $40 $-1 $192 forward single #
loop $-1 $193 $194 $76 #
cone-surface $-1 31.741073759384996 25.869005931533543 2.0305012850381905 0 -0.68199836817093118 -0.7313536940579346 0.5 0 0 1 I I -0.70710678118654746 0.70710678118654746 0.5 forward I I I I #
loop $-1 $-1 $195 $51 #
coedge $-1 $123 $123 $196 $197 reversed $77 $-1 #
face $-1 $198 $199 $41 $-1 $200 reversed single #
loop $-1 $-1 $201 $79 #
plane-surface $-1 -5.3059553309297485 -30.968853592705159 0.43219608903204687 0 -0.62932039886446345 0.77714595512881146 1 0 0 forward_v I I I I #
coedge $-1 $202 $203 $204 $205 reversed $80 $-1 #
face $-1 $-1 $206 $42 $-1 $207 forward single #
loop $-1 $208 $209 $82 #
cone-surface $-1 -10.54951712695474 -19.838910674583396 -4.7570907537018687 0 0.62932039886446345 -0.77714595512881146 1.25 0 0 1 I I -0.70710678118654746 0.70710678118654746 1.25 forward I I I I #
loop $-1 $-1 $210 $53 #
coedge $-1 $132 $132 $211 $212 reversed $83 $-1 #
face $-1 $-1 $213 $43 $-1 $214 forward single #
loop $-1 $215 $216 $85 #
cone-surface $-1 -0.062393534904757075 -19.838910674583396 -4.7570907537018687 0 0.62932039886446345 -0.77714595512881146 1.25 0 0 1 I I -0.70710678118654746 0.70710678118654746 1.25 forward I I I I #
loop $-1 $-1 $217 $54 #
coedge $-1 $137 $137 $218 $219 reversed $86 $-1 #
face $-1 $220 $221 $33 $-1 $222 reversed single #
loop $-1 $-1 $223 $88 #
plane-surface $-1 0 0 -7.2085495540306264 0 0 1 1 0 0 forward_v I I I I #
coedge $-1 $224 $225 $226 $227 forward $89 $-1 #
coedge $-1 $228 $91 $229 $230 reversed $56 $-1 #
coedge $-1 $91 $228 $231 $232 forward $56 $-1 #
coedge $-1 $233 $234 $91 $145 forward $139 $-1 #
edge $-1 $235 -30.968853592705159 $236 30.968853592705159 $91 $237 forward 7 unknown #
face $-1 $238 $239 $34 $-1 $240 reversed single #
loop $-1 $-1 $241 $92 #
plane-surface $-1 -49.783130530177978 -19.551754484643908 0 0 1 0 0 0 1 forward_v I I I I #
coedge $-1 $242 $243 $151 $244 forward $93 $-1 #
coedge $-1 $245 $95 $246 $247 reversed $59 $-1 #
coedge $-1 $95 $245 $149 $244 reversed $59 $-1 #
coedge $-1 $248 $249 $95 $153 reversed $250 $-1 #
edge $-1 $251 -7.2085495540306264 $252 7.2085495540306264 $152 $253 forward 7 unknown #
face $-1 $254 $255 $35 $-1 $256 forward single #
loop $-1 $-1 $257 $96 #
plane-surface $-1 -10.850839870798943 49.526526635085673 114.04828103907001 -1 0 0 0 0.68199836817093118 0.7313536940579346 forward_v I I I I #
coedge $-1 $258 $259 $260 $261 reversed $97 $-1 #
coedge $-1 $159 $99 $262 $263 reversed $62 $-1 #
coedge $-1 $99 $158 $258 $264 reversed $62 $-1 #
coedge $-1 $260 $265 $99 $161 forward $255 $-1 #
edge $-1 $266 -6.2055902751623222 $267 -2.0459732158531452 $160 $268 forward 7 unknown #
loop $-1 $-1 $167 $100 #
plane-surface $-1 -21.319171801211578 -14.329517358823345 45.571059036148057 0 0.68199836817093118 0.7313536940579346 1 0 0 forward_v I I I I #
loop $-1 $-1 $269 $64 #
coedge $-1 $165 $165 $166 $270 reversed $101 $-1 #
coedge $-1 $166 $166 $165 $270 forward $103 $-1 #
coedge $-1 $167 $167 $104 $168 forward $162 $-1 #
edge $-1 $271 2.5504555007929436e-016 $271 6.2831853071796004 $167 $272 forward 7 unknown #
loop $-1 $-1 $174 $105 #
plane-surface $-1 -21.319171801211578 -14.329517358823345 45.571059036148057 0 0.68199836817093118 0.7313536940579346 1 0 0 forward_v I I I I #
loop $-1 $-1 $273 $67 #
coedge $-1 $172 $172 $173 $274 reversed $106 $-1 #
coedge $-1 $173 $173 $172 $274 forward $108 $-1 #
coedge $-1 $174 $174 $109 $175 forward $169 $-1 #
edge $-1 $275 2.5504555007929436e-016 $275 6.2831853071796004 $174 $276 forward 7 unknown #
face $-1 $277 $278 $38 $-1 $279 forward single #
loop $-1 $-1 $280 $110 #
plane-surface $-1 37.722977719620786 49.526526635085673 114.04828103907001 -1 0 0 0 0.68199836817093118 0.7313536940579346 forward_v I I I I #
coedge $-1 $281 $282 $283 $284 reversed $111 $-1 #
coedge $-1 $181 $113 $285 $286 reversed $71 $-1 #
coedge $-1 $113 $180 $281 $287 reversed $71 $-1 #
coedge $-1 $283 $288 $113 $183 forward $278 $-1 #
edge $-1 $289 -6.2055902751623222 $290 -2.0459732158531452 $182 $291 forward 7 unknown #
loop $-1 $-1 $189 $114 #
plane-surface $-1 27.254645789208148 -14.329517358823345 45.571059036148057 0 0.68199836817093118 0.7313536940579346 1 0 0 forward_v I I I I #
loop $-1 $-1 $292 $73 #
coedge $-1 $187 $187 $188 $293 reversed $115 $-1 #
coedge $-1 $188 $188 $187 $293 forward $117 $-1 #
coedge $-1 $189 $189 $118 $190 forward $184 $-1 #
edge $-1 $294 2.5504555007929436e-016 $294 6.2831853071796004 $189 $295 forward 7 unknown #
loop $-1 $-1 $196 $119 #
plane-surface $-1 27.254645789208148 -14.329517358823345 45.571059036148057 0 0.68199836817093118 0.7313536940579346 1 0 0 forward_v I I I I #
loop $-1 $-1 $296 $76 #
coedge $-1 $194 $194 $195 $297 reversed $120 $-1 #
coedge $-1 $195 $195 $194 $297 forward $122 $-1 #
coedge $-1 $196 $196 $123 $197 forward $191 $-1 #
edge $-1 $298 2.5504555007929436e-016 $298 6.2831853071796004 $196 $299 forward 7 unknown #
face $-1 $300 $301 $41 $-1 $302 forward single #
loop $-1 $-1 $303 $124 #
plane-surface $-1 -17.540932854988064 -89.892617859076012 73.196983537843153 1 0 0 0 0.62932039886446345 -0.77714595512881146 forward_v I I I I #
coedge $-1 $304 $305 $306 $307 reversed $125 $-1 #
coedge $-1 $203 $127 $308 $309 reversed $80 $-1 #
coedge $-1 $127 $202 $304 $310 reversed $80 $-1 #
coedge $-1 $306 $311 $127 $205 forward $301 $-1 #
edge $-1 $312 13.977455336832847 $313 22.345554790384703 $204 $314 forward 7 unknown #
loop $-1 $-1 $211 $128 #
plane-surface $-1 -5.3059553309297485 -30.968853592705159 0.43219608903204687 0 -0.62932039886446345 0.77714595512881146 1 0 0 forward_v I I I I #
loop $-1 $-1 $315 $82 #
coedge $-1 $209 $209 $210 $316 reversed $129 $-1 #
coedge $-1 $210 $210 $209 $316 forward $131 $-1 #
coedge $-1 $211 $211 $132 $212 forward $206 $-1 #
edge $-1 $317 0 $317 6.2831853071796004 $211 $318 forward 7 unknown #
loop $-1 $-1 $218 $133 #
plane-surface $-1 -5.3059553309297485 -30.968853592705159 0.43219608903204687 0 -0.62932039886446345 0.77714595512881146 1 0 0 forward_v I I I I #
loop $-1 $-1 $319 $85 #
coedge $-1 $216 $216 $217 $320 reversed $134 $-1 #
coedge $-1 $217 $217 $216 $320 forward $136 $-1 #
coedge $-1 $218 $218 $137 $219 forward $213 $-1 #
edge $-1 $321 0 $321 6.2831853071796004 $218 $322 forward 7 unknown #
face $-1 $323 $324 $33 $-1 $325 reversed single #
loop $-1 $-1 $229 $138 #
plane-surface $-1 0 -30.968853592705159 0 0 1 0 0 0 1 forward_v I I I I #
coedge $-1 $234 $233 $326 $327 forward $139 $-1 #
coedge $-1 $328 $141 $329 $330 forward $89 $-1 #
coedge $-1 $141 $328 $331 $332 forward $89 $-1 #
coedge $-1 $333 $334 $141 $227 reversed $335 $-1 #
edge $-1 $336 -30.968853592705159 $337 30.968853592705159 $226 $338 forward 7 unknown #
coedge $-1 $143 $142 $328 $339 reversed $56 $-1 #
coedge $-1 $340 $331 $142 $230 forward $221 $-1 #
edge $-1 $341 -7.2085495540306264 $235 7.2085495540306264 $142 $342 forward 7 unknown #
coedge $-1 $329 $343 $143 $232 reversed $324 $-1 #
edge $-1 $344 -7.2085495540306264 $236 7.2085495540306264 $231 $345 forward 7 unknown #
coedge $-1 $223 $144 $343 $346 forward $139 $-1 #
coedge $-1 $144 $223 $340 $347 forward $139 $-1 #
vertex $-1 $145 $348 #
vertex $-1 $346 $349 #
straight-curve $-1 -46.815393536179691 0 -7.2085495540306264 0 1 0 I I #
face $-1 $350 $250 $34 $-1 $351 reversed single #
loop $-1 $-1 $352 $146 #
plane-surface $-1 -52.750867524176265 -18.051754484643908 0 1 0 0 0 0 -1 forward_v I I I I #
coedge $-1 $353 $354 $355 $356 forward $147 $-1 #
coedge $-1 $357 $149 $353 $358 forward $93 $-1 #
coedge $-1 $149 $357 $248 $359 forward $93 $-1 #
edge $-1 $251 16.551754484643908 $360 19.551754484643908 $149 $361 forward 7 unknown #
coedge $-1 $151 $150 $362 $363 forward $59 $-1 #
coedge $-1 $364 $365 $150 $247 forward $366 $-1 #
edge $-1 $367 -19.551754484643908 $252 -16.551754484643908 $246 $368 forward 7 unknown #
coedge $-1 $369 $152 $243 $359 reversed $250 $-1 #
coedge $-1 $152 $369 $364 $370 reversed $250 $-1 #
loop $-1 $-1 $152 $238 #
vertex $-1 $244 $371 #
vertex $-1 $370 $372 #
straight-curve $-1 -46.815393536179691 -16.551754484643908 0 0 0 1 I I #
face $-1 $-1 $373 $35 $-1 $374 reversed single #
loop $-1 $-1 $160 $154 #
plane-surface $-1 0 0 7.2085495540306264 0 0 1 1 0 0 forward_v I I I I #
coedge $-1 $375 $376 $377 $378 reversed $155 $-1 #
coedge $-1 $379 $157 $159 $264 forward $97 $-1 #
coedge $-1 $157 $379 $375 $380 forward $97 $-1 #
coedge $-1 $377 $160 $157 $261 forward $255 $-1 #
edge $-1 $267 -21.127917831018422 $381 -0.19125397019315393 $260 $382 forward 7 unknown #
coedge $-1 $383 $384 $158 $263 forward $373 $-1 #
edge $-1 $385 -53.69449671208573 $266 -49.815590965504377 $262 $386 forward 7 unknown #
edge $-1 $267 56.250148493760804 $385 61.937707185410304 $159 $387 forward 7 unknown #
coedge $-1 $160 $377 $383 $388 forward $255 $-1 #
vertex $-1 $263 $389 #
vertex $-1 $161 $390 #
straight-curve $-1 -31.787503731624213 24.763263317542837 7.2085495540306255 0 -1 0 I I #
coedge $-1 $269 $269 $-1 $391 reversed $164 $-1 #
edge $-1 $392 0 $392 6.2831853071796004 $165 $393 forward 7 unknown #
vertex $-1 $168 $394 #
ellipse-curve $-1 -25.805599771388422 28.889045063050563 5.2690966807399491 0 0.68199836817093118 0.7313536940579346 1 0 0 1 I I #
coedge $-1 $273 $273 $-1 $395 reversed $171 $-1 #
edge $-1 $396 0 $396 6.2831853071796004 $172 $397 forward 7 unknown #
vertex $-1 $175 $398 #
ellipse-curve $-1 -16.832743831034733 28.889045063050563 5.2690966807399491 0 0.68199836817093118 0.7313536940579346 1 0 0 1 I I #
face $-1 $-1 $399 $38 $-1 $400 reversed single #
loop $-1 $-1 $182 $176 #
plane-surface $-1 0 0 7.2085495540306264 0 0 1 1 0 0 forward_v I I I I #
coedge $-1 $401 $402 $403 $404 reversed $177 $-1 #
coedge $-1 $405 $179 $181 $287 forward $111 $-1 #
coedge $-1 $179 $405 $401 $406 forward $111 $-1 #
coedge $-1 $403 $182 $179 $284 forward $278 $-1 #
edge $-1 $290 3.1589909641914389 $407 24.095654825016712 $283 $408 forward 7 unknown #
coedge $-1 $409 $410 $180 $286 forward $399 $-1 #
edge $-1 $411 -53.69449671208573 $289 -49.815590965504377 $285 $412 forward 7 unknown #
edge $-1 $290 56.250148493760804 $411 61.937707185410304 $181 $413 forward 7 unknown #
coedge $-1 $182 $403 $409 $414 forward $278 $-1 #
vertex $-1 $183 $415 #
vertex $-1 $183 $416 #
straight-curve $-1 16.786313858795513 24.763263317542837 7.2085495540306255 0 -1 0 I I #
coedge $-1 $292 $292 $-1 $417 reversed $186 $-1 #
edge $-1 $418 0 $418 6.2831853071796004 $187 $419 forward 7 unknown #
vertex $-1 $190 $420 #
ellipse-curve $-1 22.7682178190313 28.889045063050563 5.2690966807399491 0 0.68199836817093118 0.7313536940579346 1 0 0 1 I I #
coedge $-1 $296 $296 $-1 $421 reversed $193 $-1 #
edge $-1 $422 0 $422 6.2831853071796004 $194 $423 forward 7 unknown #
vertex $-1 $197 $424 #
ellipse-curve $-1 31.741073759384996 28.889045063050563 5.2690966807399491 0 0.68199836817093118 0.7313536940579346 1 0 0 1 I I #
face $-1 $-1 $425 $41 $-1 $426 reversed single #
loop $-1 $-1 $204 $198 #
plane-surface $-1 0 0 7.2085495540306264 0 0 1 1 0 0 forward_v I I I I #
coedge $-1 $427 $428 $429 $430 reversed $199 $-1 #
coedge $-1 $431 $201 $203 $310 forward $125 $-1 #
coedge $-1 $201 $431 $427 $432 forward $125 $-1 #
coedge $-1 $429 $204 $201 $307 forward $301 $-1 #
edge $-1 $313 -9.5819998585934396 $433 14.88795518952319 $306 $434 forward 7 unknown #
coedge $-1 $435 $436 $202 $309 forward $425 $-1 #
edge $-1 $437 -36.166295679889529 $312 -29.389942214890951 $308 $438 forward 7 unknown #
edge $-1 $313 -10.767732107882939 $437 0 $203 $439 forward 7 unknown #
coedge $-1 $204 $429 $435 $440 forward $301 $-1 #
vertex $-1 $205 $441 #
vertex $-1 $205 $442 #
straight-curve $-1 6.9290221931285654 -44.946308929538006 7.2085495540306255 0 1 0 I I #
coedge $-1 $315 $315 $-1 $443 reversed $208 $-1 #
edge $-1 $444 0 $444 6.2831853071796004 $209 $445 forward 7 unknown #
vertex $-1 $212 $446 #
ellipse-curve $-1 -10.54951712695474 -26.784803865929231 3.8203728215313362 0 -0.62932039886446345 0.77714595512881146 2.5 0 0 1 I I #
coedge $-1 $319 $319 $-1 $447 reversed $215 $-1 #
edge $-1 $448 0 $448 6.2831853071796004 $216 $449 forward 7 unknown #
vertex $-1 $219 $450 #
ellipse-curve $-1 -0.062393534904757075 -26.784803865929231 3.8203728215313362 0 -0.62932039886446345 0.77714595512881146 2.5 0 0 1 I I #
face $-1 $-1 $335 $33 $-1 $451 reversed single #
loop $-1 $-1 $452 $220 #
plane-surface $-1 0 30.968853592705159 0 0 -1 0 0 0 -1 forward_v I I I I #
coedge $-1 $334 $333 $223 $327 reversed $335 $-1 #
edge $-1 $453 -30.968853592705159 $454 30.968853592705159 $326 $455 forward 7 unknown #
coedge $-1 $225 $224 $228 $339 forward $89 $-1 #
coedge $-1 $452 $231 $224 $330 reversed $324 $-1 #
edge $-1 $337 -46.815393536179691 $344 46.815393536179691 $329 $456 forward 7 unknown #
coedge $-1 $229 $457 $225 $332 reversed $221 $-1 #
edge $-1 $341 -46.815393536179691 $336 46.815393536179691 $331 $458 forward 7 unknown #
coedge $-1 $326 $226 $457 $459 forward $335 $-1 #
coedge $-1 $226 $326 $452 $460 reversed $335 $-1 #
loop $-1 $-1 $333 $323 #
vertex $-1 $227 $461 #
vertex $-1 $227 $462 #
straight-curve $-1 46.815393536179691 0 7.2085495540306264 0 1 0 I I #
edge $-1 $344 -30.968853592705159 $341 30.968853592705159 $228 $463 forward 7 unknown #
coedge $-1 $457 $229 $234 $347 reversed $221 $-1 #
vertex $-1 $339 $464 #
straight-curve $-1 -46.815393536179691 -30.968853592705159 0 0 0 -1 I I #
coedge $-1 $231 $452 $233 $346 reversed $324 $-1 #
vertex $-1 $330 $465 #
straight-curve $-1 -46.815393536179691 30.968853592705159 0 0 0 -1 I I #
edge $-1 $236 -46.815393536179691 $453 46.815393536179691 $343 $466 forward 7 unknown #
edge $-1 $454 -46.815393536179691 $235 46.815393536179691 $340 $467 forward 7 unknown #
point $-1 -46.815393536179691 -30.968853592705159 -7.2085495540306264 #
point $-1 -46.815393536179691 30.968853592705159 -7.2085495540306264 #
face $-1 $-1 $366 $34 $-1 $468 forward single #
plane-surface $-1 -49.783130530177978 -16.551754484643908 0 0 -1 0 0 0 -1 forward_v I I I I #
coedge $-1 $469 $470 $369 $471 forward $239 $-1 #
coedge $-1 $362 $241 $242 $358 reversed $147 $-1 #
coedge $-1 $241 $362 $365 $472 reversed $147 $-1 #
coedge $-1 $470 $469 $241 $356 reversed $239 $-1 #
edge $-1 $473 -7.2085495540306264 $474 7.2085495540306264 $355 $475 forward 7 unknown #
coedge $-1 $243 $242 $469 $476 forward $93 $-1 #
edge $-1 $360 -2.9677369939982867 $474 2.9677369939982867 $353 $477 forward 7 unknown #
edge $-1 $478 -2.9677369939982867 $251 2.9677369939982867 $248 $479 forward 7 unknown #
vertex $-1 $358 $480 #
straight-curve $-1 -46.815393536179691 0 -7.2085495540306264 0 -1 0 I I #
coedge $-1 $354 $353 $245 $363 reversed $147 $-1 #
edge $-1 $367 -7.2085495540306264 $360 7.2085495540306264 $362 $481 forward 7 unknown #
coedge $-1 $482 $246 $249 $370 forward $366 $-1 #
coedge $-1 $246 $482 $354 $472 forward $366 $-1 #
loop $-1 $-1 $246 $350 #
vertex $-1 $247 $483 #
straight-curve $-1 -46.815393536179691 0 7.2085495540306264 0 1 0 I I #
coedge $-1 $249 $248 $352 $471 reversed $250 $-1 #
edge $-1 $252 -2.9677369939982867 $484 2.9677369939982867 $249 $485 forward 7 unknown #
point $-1 -46.815393536179691 -16.551754484643908 -7.2085495540306264 #
point $-1 -46.815393536179691 -16.551754484643908 7.2085495540306264 #
loop $-1 $-1 $262 $254 #
plane-surface $-1 0 30.968853592705159 0 0 -1 0 0 0 -1 forward_v I I I I #
coedge $-1 $376 $257 $259 $380 reversed $155 $-1 #
coedge $-1 $257 $375 $486 $487 reversed $155 $-1 #
coedge $-1 $265 $260 $257 $378 forward $255 $-1 #
edge $-1 $381 2.0459732158531452 $488 6.2055902751623222 $377 $489 forward 7 unknown #
coedge $-1 $259 $258 $384 $490 reversed $97 $-1 #
edge $-1 $491 -61.937707185410304 $381 -56.250148493760804 $375 $492 forward 7 unknown #
vertex $-1 $261 $493 #
straight-curve $-1 -10.659585900605789 26.809236533395989 7.2085495540306219 1 0 0 I I #
coedge $-1 $486 $262 $265 $388 reversed $373 $-1 #
coedge $-1 $262 $486 $379 $490 forward $373 $-1 #
vertex $-1 $263 $494 #
straight-curve $-1 -31.787503731624213 30.968853592705159 57.024140519535003 0 0 1 I I #
straight-curve $-1 -31.787503731624213 -14.329517358823345 45.571059036148057 0 0.7313536940579346 -0.68199836817093118 I I #
edge $-1 $488 10.850839870798943 $266 31.787503731624213 $383 $495 forward 7 unknown #
point $-1 -31.787503731624213 30.968853592705159 7.2085495540306264 #
point $-1 -31.787503731624213 26.809236533395982 7.2085495540306255 #
edge $-1 $496 1 $496 0 $269 $-1 forward 7 unknown #
vertex $-1 $270 $497 #
ellipse-curve $-1 -25.805599771388422 26.210005115619008 2.396178132067158 0 0.68199836817093118 0.7313536940579346 1 0 0 1 I I #
point $-1 -24.805599771388422 28.889045063050556 5.2690966807399411 #
edge $-1 $498 1 $498 0 $273 $-1 forward 7 unknown #
vertex $-1 $274 $499 #
ellipse-curve $-1 -16.832743831034733 26.210005115619008 2.396178132067158 0 0.68199836817093118 0.7313536940579346 1 0 0 1 I I #
point $-1 -15.832743831034733 28.889045063050556 5.2690966807399411 #
loop $-1 $-1 $285 $277 #
plane-surface $-1 0 30.968853592705159 0 0 -1 0 0 0 -1 forward_v I I I I #
coedge $-1 $402 $280 $282 $406 reversed $177 $-1 #
coedge $-1 $280 $401 $500 $501 reversed $177 $-1 #
coedge $-1 $288 $283 $280 $404 forward $278 $-1 #
edge $-1 $407 2.0459732158531452 $502 6.2055902751623222 $403 $503 forward 7 unknown #
coedge $-1 $282 $281 $410 $504 reversed $111 $-1 #
edge $-1 $505 -61.937707185410304 $407 -56.250148493760804 $401 $506 forward 7 unknown #
vertex $-1 $284 $507 #
straight-curve $-1 13.627322894604074 26.809236533395989 7.2085495540306219 1 0 0 I I #
coedge $-1 $500 $285 $288 $414 reversed $399 $-1 #
coedge $-1 $285 $500 $405 $504 forward $399 $-1 #
vertex $-1 $286 $508 #
straight-curve $-1 16.786313858795513 30.968853592705159 57.024140519535003 0 0 1 I I #
straight-curve $-1 16.786313858795513 -14.329517358823345 45.571059036148057 0 0.7313536940579346 -0.68199836817093118 I I #
edge $-1 $502 -37.722977719620786 $289 -16.786313858795513 $409 $509 forward 7 unknown #
point $-1 16.786313858795513 30.968853592705159 7.2085495540306264 #
point $-1 16.786313858795513 26.809236533395982 7.2085495540306255 #
edge $-1 $510 1 $510 0 $292 $-1 forward 7 unknown #
vertex $-1 $293 $511 #
ellipse-curve $-1 22.7682178190313 26.210005115619008 2.396178132067158 0 0.68199836817093118 0.7313536940579346 1 0 0 1 I I #
point $-1 23.7682178190313 28.889045063050556 5.2690966807399411 #
edge $-1 $512 1 $512 0 $296 $-1 forward 7 unknown #
vertex $-1 $297 $513 #
ellipse-curve $-1 31.741073759384996 26.210005115619008 2.396178132067158 0 0.68199836817093118 0.7313536940579346 1 0 0 1 I I #
point $-1 32.741073759384996 28.889045063050556 5.2690966807399411 #
loop $-1 $-1 $308 $300 #
plane-surface $-1 0 -30.968853592705159 0 0 1 0 0 0 1 forward_v I I I I #
coedge $-1 $428 $303 $305 $432 reversed $199 $-1 #
coedge $-1 $303 $427 $514 $515 reversed $199 $-1 #
coedge $-1 $311 $306 $303 $430 forward $301 $-1 #
edge $-1 $433 -22.345554790384703 $516 -13.977455336832847 $429 $517 forward 7 unknown #
coedge $-1 $305 $304 $436 $518 reversed $125 $-1 #
edge $-1 $519 0 $433 10.767732107882939 $427 $520 forward 7 unknown #
vertex $-1 $307 $521 #
straight-curve $-1 -2.6529776654648742 -22.600754139153302 7.2085495540306264 -1 0 0 I I #
coedge $-1 $514 $308 $311 $440 reversed $425 $-1 #
coedge $-1 $308 $514 $431 $518 forward $425 $-1 #
vertex $-1 $309 $522 #
straight-curve $-1 6.9290221931285654 -30.968853592705159 36.598491768921576 0 0 1 I I #
straight-curve $-1 6.9290221931285654 -30.968853592705159 0.43219608903204687 0 -0.77714595512881146 -0.62932039886446345 I I #
edge $-1 $516 -17.540932854988064 $312 6.9290221931285654 $435 $523 forward 7 unknown #
point $-1 6.9290221931285654 -30.968853592705159 7.2085495540306264 #
point $-1 6.9290221931285654 -22.600754139153302 7.2085495540306264 #
edge $-1 $524 1 $524 0 $315 $-1 forward 7 unknown #
vertex $-1 $316 $525 #
ellipse-curve $-1 -10.54951712695474 -20.625561173163973 -3.7856583097908545 0 -0.62932039886446345 0.77714595512881146 2.5 0 0 1 I I #
point $-1 -8.0495171269547399 -26.784803865929231 3.8203728215313362 #
edge $-1 $526 1 $526 0 $319 $-1 forward 7 unknown #
vertex $-1 $320 $527 #
ellipse-curve $-1 -0.062393534904757075 -20.625561173163973 -3.7856583097908545 0 -0.62932039886446345 0.77714595512881146 2.5 0 0 1 I I #
point $-1 2.4376064650952429 -26.784803865929231 3.8203728215313362 #
plane-surface $-1 46.815393536179691 0 0 -1 0 0 0 0 1 forward_v I I I I #
coedge $-1 $343 $329 $334 $460 forward $324 $-1 #
vertex $-1 $327 $528 #
vertex $-1 $459 $529 #
straight-curve $-1 46.815393536179691 0 -7.2085495540306264 0 -1 0 I I #
straight-curve $-1 0 30.968853592705159 7.2085495540306264 -1 0 0 I I #
coedge $-1 $331 $340 $333 $459 reversed $221 $-1 #
straight-curve $-1 0 -30.968853592705159 7.2085495540306264 1 0 0 I I #
edge $-1 $336 -7.2085495540306264 $454 7.2085495540306264 $333 $530 forward 7 unknown #
edge $-1 $337 -7.2085495540306264 $453 7.2085495540306264 $334 $531 forward 7 unknown #
point $-1 46.815393536179691 -30.968853592705159 7.2085495540306264 #
point $-1 46.815393536179691 30.968853592705159 7.2085495540306264 #
straight-curve $-1 -46.815393536179691 0 7.2085495540306264 0 -1 0 I I #
point $-1 -46.815393536179691 -30.968853592705159 7.2085495540306264 #
point $-1 -46.815393536179691 30.968853592705159 7.2085495540306264 #
straight-curve $-1 0 30.968853592705159 -7.2085495540306264 1 0 0 I I #
straight-curve $-1 0 -30.968853592705159 -7.2085495540306264 -1 0 0 I I #
plane-surface $-1 0 0 7.2085495540306264 0 0 1 1 0 0 forward_v I I I I #
coedge $-1 $355 $352 $357 $476 reversed $239 $-1 #
coedge $-1 $352 $355 $482 $532 reversed $239 $-1 #
edge $-1 $484 -7.2085495540306264 $478 7.2085495540306264 $369 $533 forward 7 unknown #
edge $-1 $473 -2.9677369939982867 $367 2.9677369939982867 $354 $534 forward 7 unknown #
vertex $-1 $532 $535 #
vertex $-1 $476 $536 #
straight-curve $-1 -52.750867524176265 -19.551754484643908 0 0 0 -1 I I #
edge $-1 $474 -1.5 $478 1.5 $469 $537 forward 7 unknown #
straight-curve $-1 -49.783130530177978 -19.551754484643908 -7.2085495540306264 -1 0 0 I I #
vertex $-1 $359 $538 #
straight-curve $-1 -49.783130530177978 -16.551754484643908 -7.2085495540306264 1 0 0 I I #
point $-1 -46.815393536179691 -19.551754484643908 -7.2085495540306264 #
straight-curve $-1 -46.815393536179691 -19.551754484643908 0 0 0 -1 I I #
coedge $-1 $365 $364 $470 $532 forward $366 $-1 #
point $-1 -46.815393536179691 -19.551754484643908 7.2085495540306264 #
vertex $-1 $370 $539 #
straight-curve $-1 -49.783130530177978 -16.551754484643908 7.2085495540306264 -1 0 0 I I #
coedge $-1 $384 $383 $376 $487 forward $373 $-1 #
edge $-1 $488 49.815590965504377 $491 53.69449671208573 $486 $540 forward 7 unknown #
vertex $-1 $388 $541 #
straight-curve $-1 -10.850839870798943 24.763263317542837 7.2085495540306255 0 1 0 I I #
edge $-1 $491 0.19125397019315393 $385 21.127917831018422 $384 $542 forward 7 unknown #
vertex $-1 $490 $543 #
straight-curve $-1 -10.850839870798943 -14.329517358823345 45.571059036148057 0 -0.7313536940579346 0.68199836817093118 I I #
point $-1 -10.850839870798943 26.809236533395982 7.2085495540306255 #
point $-1 -31.787503731624213 30.968853592705159 3.3296438074492727 #
straight-curve $-1 0 30.968853592705159 7.2085495540306264 -1 0 0 I I #
vertex $-1 $391 $544 #
point $-1 -24.805599771388422 26.210005115619008 2.396178132067158 #
vertex $-1 $395 $545 #
point $-1 -15.832743831034733 26.210005115619008 2.396178132067158 #
coedge $-1 $410 $409 $402 $501 forward $399 $-1 #
edge $-1 $502 49.815590965504377 $505 53.69449671208573 $500 $546 forward 7 unknown #
vertex $-1 $414 $547 #
straight-curve $-1 37.722977719620786 24.763263317542837 7.2085495540306255 0 1 0 I I #
edge $-1 $505 -24.095654825016712 $411 -3.1589909641914389 $410 $548 forward 7 unknown #
vertex $-1 $504 $549 #
straight-curve $-1 37.722977719620786 -14.329517358823345 45.571059036148057 0 -0.7313536940579346 0.68199836817093118 I I #
point $-1 37.722977719620786 26.809236533395982 7.2085495540306255 #
point $-1 16.786313858795513 30.968853592705159 3.3296438074492727 #
straight-curve $-1 0 30.968853592705159 7.2085495540306264 -1 0 0 I I #
vertex $-1 $417 $550 #
point $-1 23.7682178190313 26.210005115619008 2.396178132067158 #
vertex $-1 $421 $551 #
point $-1 32.741073759384996 26.210005115619008 2.396178132067158 #
coedge $-1 $436 $435 $428 $515 forward $425 $-1 #
edge $-1 $516 29.389942214890951 $519 36.166295679889529 $514 $552 forward 7 unknown #
vertex $-1 $440 $553 #
straight-curve $-1 -17.540932854988064 -44.946308929538006 7.2085495540306255 0 -1 0 I I #
edge $-1 $519 -14.88795518952319 $437 9.5819998585934396 $436 $554 forward 7 unknown #
vertex $-1 $518 $555 #
straight-curve $-1 -17.540932854988064 -30.968853592705159 0.43219608903204687 0 0.77714595512881146 0.62932039886446345 I I #
point $-1 -17.540932854988064 -22.600754139153302 7.2085495540306264 #
point $-1 6.9290221931285654 -30.968853592705159 0.43219608903204687 #
straight-curve $-1 0 -30.968853592705159 7.2085495540306264 1 0 0 I I #
vertex $-1 $443 $556 #
point $-1 -8.0495171269547399 -20.625561173163973 -3.7856583097908545 #
vertex $-1 $447 $557 #
point $-1 2.4376064650952429 -20.625561173163973 -3.7856583097908545 #
point $-1 46.815393536179691 30.968853592705159 -7.2085495540306264 #
point $-1 46.815393536179691 -30.968853592705159 -7.2085495540306264 #
straight-curve $-1 46.815393536179691 -30.968853592705159 0 0 0 -1 I I #
straight-curve $-1 46.815393536179691 30.968853592705159 0 0 0 -1 I I #
edge $-1 $484 -1.5 $473 1.5 $470 $558 forward 7 unknown #
straight-curve $-1 -52.750867524176265 -16.551754484643908 0 0 0 -1 I I #
straight-curve $-1 -49.783130530177978 -19.551754484643908 7.2085495540306264 1 0 0 I I #
point $-1 -52.750867524176265 -19.551754484643908 7.2085495540306264 #
point $-1 -52.750867524176265 -19.551754484643908 -7.2085495540306264 #
straight-curve $-1 -52.750867524176265 -18.051754484643908 -7.2085495540306264 0 1 0 I I #
point $-1 -52.750867524176265 -16.551754484643908 -7.2085495540306264 #
point $-1 -52.750867524176265 -16.551754484643908 7.2085495540306264 #
straight-curve $-1 -10.850839870798943 30.968853592705159 57.024140519535003 0 0 -1 I I #
point $-1 -10.850839870798943 30.968853592705159 7.2085495540306264 #
straight-curve $-1 -10.659585900605789 30.968853592705159 3.3296438074492727 -1 0 0 I I #
point $-1 -10.850839870798943 30.968853592705159 3.3296438074492727 #
point $-1 -25.805599771388422 25.528006747448078 1.6648244380092232 #
point $-1 -16.832743831034733 25.528006747448078 1.6648244380092232 #
straight-curve $-1 37.722977719620786 30.968853592705159 57.024140519535003 0 0 -1 I I #
point $-1 37.722977719620786 30.968853592705159 7.2085495540306264 #
straight-curve $-1 13.627322894604074 30.968853592705159 3.3296438074492727 -1 0 0 I I #
point $-1 37.722977719620786 30.968853592705159 3.3296438074492727 #
point $-1 22.7682178190313 25.528006747448078 1.6648244380092232 #
point $-1 31.741073759384996 25.528006747448078 1.6648244380092232 #
straight-curve $-1 -17.540932854988064 -30.968853592705159 36.598491768921576 0 0 -1 I I #
point $-1 -17.540932854988064 -30.968853592705159 7.2085495540306264 #
straight-curve $-1 -2.6529776654648742 -30.968853592705159 0.43219608903204809 1 0 0 I I #
point $-1 -17.540932854988064 -30.968853592705159 0.43219608903204687 #
point $-1 -10.54951712695474 -19.052260176002818 -5.7285231976128834 #
point $-1 -0.062393534904757075 -19.052260176002818 -5.7285231976128834 #
straight-curve $-1 -52.750867524176265 -18.051754484643908 7.2085495540306264 0 -1 0 I I #
End-of-ACIS-data 