500 0 6 0           
7 Unknown 11 ACIS 5.0 NT 24 Thu Mar 25 23:47:19 1999 
-1 9.9999999999999995e-007 1e-010 
body $-1 $6 $-1 $7 #
body $-1 $8 $-1 $9 #
body $-1 $10 $-1 $11 #
body $-1 $12 $-1 $13 #
body $-1 $14 $-1 $15 #
body $-1 $16 $-1 $17 #
lump $-1 $-1 $18 $0 #
transform $-1 1 0 0 0 1 0 0 0 1 73.76689962462234 48.340315832382139 21.497403309619617 1 rotate no_reflect no_shear #
lump $-1 $-1 $19 $1 #
transform $-1 1 0 0 0 1 0 0 0 1 73.76689962462234 48.340315832382139 21.497403309619617 1 rotate no_reflect no_shear #
lump $-1 $-1 $20 $2 #
transform $-1 1 0 0 0 1 0 0 0 1 73.76689962462234 48.340315832382139 21.497403309619617 1 rotate no_reflect no_shear #
lump $-1 $-1 $21 $3 #
transform $-1 1 0 0 0 1 0 0 0 1 73.76689962462234 48.340315832382139 21.497403309619617 1 rotate no_reflect no_shear #
lump $-1 $-1 $22 $4 #
transform $-1 1 0 0 0 1 0 0 0 1 73.76689962462234 48.340315832382139 21.497403309619617 1 rotate no_reflect no_shear #
lump $-1 $-1 $23 $5 #
transform $-1 1 0 0 0 1 0 0 0 1 73.76689962462234 48.340315832382139 21.497403309619617 1 rotate no_reflect no_shear #
shell $-1 $-1 $-1 $24 $-1 $6 #
shell $-1 $-1 $-1 $25 $-1 $8 #
shell $-1 $-1 $-1 $26 $-1 $10 #
shell $-1 $-1 $-1 $27 $-1 $12 #
shell $-1 $-1 $-1 $28 $-1 $14 #
shell $-1 $-1 $-1 $29 $-1 $16 #
face $-1 $30 $31 $18 $-1 $32 forward single #
face $-1 $33 $34 $19 $-1 $35 forward single #
face $-1 $36 $37 $20 $-1 $38 reversed single #
face $-1 $39 $40 $21 $-1 $41 forward single #
face $-1 $42 $43 $22 $-1 $44 reversed single #
face $-1 $45 $46 $23 $-1 $47 forward single #
face $-1 $48 $49 $18 $-1 $50 reversed single #
loop $-1 $-1 $51 $24 #
plane-surface $-1 0 0 21.497403309619617 0 0 1 1 0 0 forward_v I I I I #
face $-1 $52 $53 $19 $-1 $54 reversed single #
loop $-1 $-1 $55 $25 #
plane-surface $-1 0 -48.340315832382139 0 0 1 0 0 0 1 forward_v I I I I #
face $-1 $56 $57 $20 $-1 $58 reversed single #
loop $-1 $-1 $59 $26 #
plane-surface $-1 -164.59777726987616 -19.111262709680915 116.94861905584696 0 1 0 -0.61566148304635926 0 0.78801074757464917 forward_v I I I I #
face $-1 $60 $61 $21 $-1 $62 forward single #
loop $-1 $63 $64 $27 #
cone-surface $-1 -58.637818362700223 -11.648891380048944 8.7731031547319613 0.61566148304635926 0 -0.78801074757464917 1.1820161213619738 0 0.92349222456953894 1 I I 0 1 1.5 forward I I I I #
face $-1 $65 $66 $22 $-1 $67 reversed single #
loop $-1 $-1 $68 $28 #
plane-surface $-1 -164.59777726987616 19.449525504444381 116.94861905584696 0 1 0 -0.61566148304635926 0 0.78801074757464917 forward_v I I I I #
face $-1 $69 $70 $23 $-1 $71 forward single #
loop $-1 $72 $73 $29 #
cone-surface $-1 -58.637818362700223 26.911896834076352 8.7731031547319613 0.61566148304635926 0 -0.78801074757464917 1.1820161213619738 0 0.92349222456953894 1 I I 0 1 1.5 forward I I I I #
face $-1 $74 $75 $18 $-1 $76 reversed single #
loop $-1 $-1 $77 $30 #
plane-surface $-1 0 0 -21.497403309619617 0 0 1 1 0 0 forward_v I I I I #
coedge $-1 $78 $79 $80 $81 forward $31 $-1 #
face $-1 $82 $83 $19 $-1 $84 forward single #
loop $-1 $-1 $85 $33 #
plane-surface $-1 -73.76689962462234 0 0 1 0 0 0 0 -1 forward_v I I I I #
coedge $-1 $86 $87 $88 $89 forward $34 $-1 #
face $-1 $90 $91 $20 $-1 $92 reversed single #
loop $-1 $-1 $93 $36 #
plane-surface $-1 -73.76689962462234 -11.648891380048944 0.69039961692143947 -0.61566148304635926 0 0.78801074757464917 0.78801074757464917 0 0.61566148304635926 forward_v I I I I #
coedge $-1 $94 $95 $96 $97 reversed $37 $-1 #
face $-1 $-1 $98 $21 $-1 $99 forward single #
loop $-1 $100 $101 $39 #
cone-surface $-1 -56.362865853314908 -11.648891380048944 5.8612967855124047 0.61566148304635926 0 -0.78801074757464917 0.59100806068098688 0 0.46174611228476947 1 I I -0.70710678118654757 0.70710678118654757 0.75 forward I I I I #
loop $-1 $-1 $102 $27 #
coedge $-1 $64 $64 $103 $104 reversed $40 $-1 #
face $-1 $105 $106 $22 $-1 $107 reversed single #
loop $-1 $-1 $108 $42 #
plane-surface $-1 -73.76689962462234 26.911896834076352 0.69039961692143947 -0.61566148304635926 0 0.78801074757464917 0.78801074757464917 0 0.61566148304635926 forward_v I I I I #
coedge $-1 $109 $110 $111 $112 reversed $43 $-1 #
face $-1 $-1 $113 $23 $-1 $114 forward single #
loop $-1 $115 $116 $45 #
cone-surface $-1 -56.362865853314908 26.911896834076352 5.8612967855124047 0.61566148304635926 0 -0.78801074757464917 0.59100806068098688 0 0.46174611228476947 1 I I -0.70710678118654757 0.70710678118654757 0.75 forward I I I I #
loop $-1 $-1 $117 $29 #
coedge $-1 $73 $73 $118 $119 reversed $46 $-1 #
face $-1 $120 $121 $18 $-1 $122 reversed single #
loop $-1 $-1 $123 $48 #
plane-surface $-1 0 -48.340315832382139 0 0 1 0 0 0 1 forward_v I I I I #
coedge $-1 $124 $125 $126 $127 forward $49 $-1 #
coedge $-1 $128 $51 $129 $130 forward $31 $-1 #
coedge $-1 $51 $128 $131 $132 forward $31 $-1 #
coedge $-1 $133 $134 $51 $81 reversed $135 $-1 #
edge $-1 $136 -48.340315832382139 $137 48.340315832382139 $80 $138 forward 7 unknown #
face $-1 $139 $140 $19 $-1 $141 reversed single #
loop $-1 $-1 $142 $52 #
plane-surface $-1 0 -55.971818559395842 0.60837810785893609 0 0 1 1 0 0 forward_v I I I I #
coedge $-1 $143 $144 $87 $145 forward $53 $-1 #
coedge $-1 $146 $55 $147 $148 reversed $34 $-1 #
coedge $-1 $55 $146 $85 $145 reversed $34 $-1 #
coedge $-1 $149 $142 $55 $89 reversed $83 $-1 #
edge $-1 $150 -73.76689962462234 $151 73.76689962462234 $88 $152 forward 7 unknown #
face $-1 $153 $154 $20 $-1 $155 forward single #
loop $-1 $-1 $156 $56 #
plane-surface $-1 -164.59777726987616 -4.1865200504169735 116.94861905584696 0 -1 0 0.61566148304635926 0 -0.78801074757464917 forward_v I I I I #
coedge $-1 $157 $158 $159 $160 reversed $57 $-1 #
coedge $-1 $95 $59 $161 $162 reversed $37 $-1 #
coedge $-1 $59 $94 $157 $163 reversed $37 $-1 #
coedge $-1 $159 $164 $59 $97 forward $154 $-1 #
edge $-1 $165 8.5319890103157405 $166 35.163738739958887 $96 $167 forward 7 unknown #
loop $-1 $-1 $103 $60 #
plane-surface $-1 -73.76689962462234 -11.648891380048944 0.69039961692143947 -0.61566148304635926 0 0.78801074757464917 0.78801074757464917 0 0.61566148304635926 forward_v I I I I #
loop $-1 $-1 $168 $39 #
coedge $-1 $101 $101 $102 $169 reversed $61 $-1 #
coedge $-1 $102 $102 $101 $169 forward $63 $-1 #
coedge $-1 $103 $103 $64 $104 forward $98 $-1 #
edge $-1 $170 0 $170 6.2831853071796004 $103 $171 forward 7 unknown #
face $-1 $172 $173 $22 $-1 $174 forward single #
loop $-1 $-1 $175 $65 #
plane-surface $-1 -164.59777726987616 34.374268163708322 116.94861905584696 0 -1 0 0.61566148304635926 0 -0.78801074757464917 forward_v I I I I #
coedge $-1 $176 $177 $178 $179 reversed $66 $-1 #
coedge $-1 $110 $68 $180 $181 reversed $43 $-1 #
coedge $-1 $68 $109 $176 $182 reversed $43 $-1 #
coedge $-1 $178 $183 $68 $112 forward $173 $-1 #
edge $-1 $184 8.5319890103157405 $185 35.163738739958887 $111 $186 forward 7 unknown #
loop $-1 $-1 $118 $69 #
plane-surface $-1 -73.76689962462234 26.911896834076352 0.69039961692143947 -0.61566148304635926 0 0.78801074757464917 0.78801074757464917 0 0.61566148304635926 forward_v I I I I #
loop $-1 $-1 $187 $45 #
coedge $-1 $116 $116 $117 $188 reversed $70 $-1 #
coedge $-1 $117 $117 $116 $188 forward $72 $-1 #
coedge $-1 $118 $118 $73 $119 forward $113 $-1 #
edge $-1 $189 0 $189 6.2831853071796004 $118 $190 forward 7 unknown #
face $-1 $191 $192 $18 $-1 $193 reversed single #
loop $-1 $-1 $194 $74 #
plane-surface $-1 -73.76689962462234 0 0 1 0 0 0 0 -1 forward_v I I I I #
coedge $-1 $195 $131 $196 $197 forward $75 $-1 #
coedge $-1 $198 $77 $195 $199 forward $49 $-1 #
coedge $-1 $77 $198 $200 $201 forward $49 $-1 #
coedge $-1 $134 $133 $77 $127 reversed $135 $-1 #
edge $-1 $202 -48.340315832382139 $203 48.340315832382139 $126 $204 forward 7 unknown #
coedge $-1 $79 $78 $205 $206 forward $31 $-1 #
coedge $-1 $207 $208 $78 $130 reversed $192 $-1 #
edge $-1 $137 -73.76689962462234 $209 73.76689962462234 $129 $210 forward 7 unknown #
coedge $-1 $123 $211 $79 $132 reversed $75 $-1 #
edge $-1 $212 -73.76689962462234 $136 73.76689962462234 $131 $213 forward 7 unknown #
coedge $-1 $126 $80 $211 $214 forward $135 $-1 #
coedge $-1 $80 $126 $207 $215 reversed $135 $-1 #
loop $-1 $-1 $133 $191 #
vertex $-1 $81 $216 #
vertex $-1 $81 $217 #
straight-curve $-1 73.76689962462234 0 21.497403309619617 0 1 0 I I #
face $-1 $218 $219 $19 $-1 $220 reversed single #
loop $-1 $-1 $221 $82 #
plane-surface $-1 0 -55.971818559395842 -8.2788598056750864 0 0 1 1 0 0 forward_v I I I I #
coedge $-1 $88 $222 $223 $224 forward $83 $-1 #
coedge $-1 $225 $85 $226 $227 reversed $53 $-1 #
coedge $-1 $85 $225 $149 $228 reversed $53 $-1 #
edge $-1 $150 -0.60837810785893609 $229 8.2788598056750864 $85 $230 forward 7 unknown #
coedge $-1 $87 $86 $231 $232 forward $34 $-1 #
coedge $-1 $223 $233 $86 $148 forward $234 $-1 #
edge $-1 $235 -8.2788598056750864 $151 0.60837810785893609 $147 $236 forward 7 unknown #
coedge $-1 $222 $88 $144 $228 forward $83 $-1 #
vertex $-1 $145 $237 #
vertex $-1 $224 $238 #
straight-curve $-1 0 -48.340315832382139 0.60837810785893609 1 0 0 I I #
face $-1 $-1 $239 $20 $-1 $240 reversed single #
loop $-1 $-1 $96 $90 #
plane-surface $-1 0 0 21.497403309619617 0 0 1 1 0 0 forward_v I I I I #
coedge $-1 $241 $242 $243 $244 reversed $91 $-1 #
coedge $-1 $245 $93 $95 $163 forward $57 $-1 #
coedge $-1 $93 $245 $241 $246 forward $57 $-1 #
coedge $-1 $243 $96 $93 $160 forward $154 $-1 #
edge $-1 $166 -13.286817019656443 $247 1.6379256396074986 $159 $248 forward 7 unknown #
coedge $-1 $249 $250 $94 $162 forward $239 $-1 #
edge $-1 $251 -57.783909911002041 $165 -36.976906218303867 $161 $252 forward 7 unknown #
edge $-1 $166 -33.79617576487469 $251 0 $95 $253 forward 7 unknown #
coedge $-1 $96 $243 $249 $254 forward $154 $-1 #
vertex $-1 $162 $255 #
vertex $-1 $97 $256 #
straight-curve $-1 -82.298888634938081 -19.111262709680915 21.497403309619614 1 0 0 I I #
coedge $-1 $168 $168 $-1 $257 reversed $100 $-1 #
edge $-1 $258 0 $258 6.2831853071796004 $101 $259 forward 7 unknown #
vertex $-1 $104 $260 #
ellipse-curve $-1 -60.451024759800767 -11.648891380048944 11.093901463270528 -0.61566148304635926 0 0.78801074757464917 1.1820161213619738 0 0.92349222456953894 1 I I #
face $-1 $-1 $261 $22 $-1 $262 reversed single #
loop $-1 $-1 $111 $105 #
plane-surface $-1 0 0 21.497403309619617 0 0 1 1 0 0 forward_v I I I I #
coedge $-1 $263 $264 $265 $266 reversed $106 $-1 #
coedge $-1 $267 $108 $110 $182 forward $66 $-1 #
coedge $-1 $108 $267 $263 $268 forward $66 $-1 #
coedge $-1 $265 $111 $108 $179 forward $173 $-1 #
edge $-1 $185 5.9935770874062051 $269 20.918319746670146 $178 $270 forward 7 unknown #
coedge $-1 $271 $272 $109 $181 forward $261 $-1 #
edge $-1 $273 -57.783909911002041 $184 -36.976906218303867 $180 $274 forward 7 unknown #
edge $-1 $185 -33.79617576487469 $273 0 $110 $275 forward 7 unknown #
coedge $-1 $111 $265 $271 $276 forward $173 $-1 #
vertex $-1 $112 $277 #
vertex $-1 $112 $278 #
straight-curve $-1 -82.298888634938081 19.449525504444381 21.497403309619614 1 0 0 I I #
coedge $-1 $187 $187 $-1 $279 reversed $115 $-1 #
edge $-1 $280 0 $280 6.2831853071796004 $116 $281 forward 7 unknown #
vertex $-1 $119 $282 #
ellipse-curve $-1 -60.451024759800767 26.911896834076352 11.093901463270528 -0.61566148304635926 0 0.78801074757464917 1.1820161213619738 0 0.92349222456953894 1 I I #
face $-1 $-1 $135 $18 $-1 $283 reversed single #
loop $-1 $-1 $207 $120 #
plane-surface $-1 0 48.340315832382139 0 0 -1 0 0 0 -1 forward_v I I I I #
coedge $-1 $284 $205 $208 $285 forward $121 $-1 #
coedge $-1 $211 $123 $124 $199 reversed $75 $-1 #
coedge $-1 $205 $284 $123 $197 reversed $121 $-1 #
edge $-1 $212 -21.497403309619617 $286 21.497403309619617 $196 $287 forward 7 unknown #
coedge $-1 $125 $124 $284 $288 forward $49 $-1 #
edge $-1 $203 -73.76689962462234 $286 73.76689962462234 $195 $289 forward 7 unknown #
coedge $-1 $208 $207 $125 $201 reversed $192 $-1 #
edge $-1 $290 -73.76689962462234 $202 73.76689962462234 $200 $291 forward 7 unknown #
vertex $-1 $127 $292 #
vertex $-1 $214 $293 #
straight-curve $-1 73.76689962462234 0 -21.497403309619617 0 -1 0 I I #
coedge $-1 $194 $196 $128 $206 reversed $121 $-1 #
edge $-1 $209 -48.340315832382139 $212 48.340315832382139 $205 $294 forward 7 unknown #
coedge $-1 $200 $129 $134 $215 forward $192 $-1 #
coedge $-1 $129 $200 $194 $285 reversed $192 $-1 #
vertex $-1 $130 $295 #
straight-curve $-1 0 48.340315832382139 21.497403309619617 -1 0 0 I I #
coedge $-1 $131 $195 $133 $214 reversed $75 $-1 #
vertex $-1 $206 $296 #
straight-curve $-1 0 -48.340315832382139 21.497403309619617 1 0 0 I I #
edge $-1 $136 -21.497403309619617 $203 21.497403309619617 $133 $297 forward 7 unknown #
edge $-1 $137 -21.497403309619617 $202 21.497403309619617 $134 $298 forward 7 unknown #
point $-1 73.76689962462234 -48.340315832382139 21.497403309619617 #
point $-1 73.76689962462234 48.340315832382139 21.497403309619617 #
face $-1 $-1 $234 $19 $-1 $299 reversed single #
loop $-1 $-1 $300 $139 #
plane-surface $-1 0 -63.603321286409546 -3.8352408489080752 0 1 0 0 0 1 forward_v I I I I #
coedge $-1 $301 $231 $233 $302 forward $140 $-1 #
coedge $-1 $142 $149 $303 $304 forward $83 $-1 #
coedge $-1 $305 $147 $142 $224 reversed $234 $-1 #
edge $-1 $306 -7.6315027270137037 $151 7.6315027270137037 $223 $307 forward 7 unknown #
coedge $-1 $144 $143 $300 $308 reversed $53 $-1 #
coedge $-1 $231 $301 $143 $227 forward $140 $-1 #
edge $-1 $309 -7.6315027270137037 $229 7.6315027270137037 $143 $310 forward 7 unknown #
edge $-1 $150 -7.6315027270137037 $311 7.6315027270137037 $144 $312 forward 7 unknown #
vertex $-1 $145 $313 #
straight-curve $-1 -73.76689962462234 -48.340315832382139 0 0 0 -1 I I #
coedge $-1 $221 $226 $146 $232 reversed $140 $-1 #
edge $-1 $235 -73.76689962462234 $229 73.76689962462234 $231 $314 forward 7 unknown #
coedge $-1 $147 $305 $221 $302 reversed $234 $-1 #
loop $-1 $-1 $147 $218 #
vertex $-1 $148 $315 #
straight-curve $-1 73.76689962462234 -48.340315832382139 0 0 0 1 I I #
point $-1 -73.76689962462234 -48.340315832382139 0.60837810785893609 #
point $-1 73.76689962462234 -48.340315832382139 0.60837810785893609 #
loop $-1 $-1 $161 $153 #
plane-surface $-1 -73.76689962462234 0 0 1 0 0 0 0 -1 forward_v I I I I #
coedge $-1 $242 $156 $158 $246 reversed $91 $-1 #
coedge $-1 $156 $241 $316 $317 reversed $91 $-1 #
coedge $-1 $164 $159 $156 $244 forward $154 $-1 #
edge $-1 $247 -35.163738739958887 $318 -8.5319890103157405 $243 $319 forward 7 unknown #
coedge $-1 $158 $157 $250 $320 reversed $57 $-1 #
edge $-1 $321 0 $247 33.79617576487469 $241 $322 forward 7 unknown #
vertex $-1 $160 $323 #
straight-curve $-1 -47.135149894979193 -5.8244456900244721 21.497403309619617 0 1 0 I I #
coedge $-1 $316 $161 $164 $254 reversed $239 $-1 #
coedge $-1 $161 $316 $245 $320 forward $239 $-1 #
vertex $-1 $162 $324 #
straight-curve $-1 -73.76689962462234 -19.111262709680915 58.474309527923481 0 0 1 I I #
straight-curve $-1 -73.76689962462234 -19.111262709680915 0.69039961692143947 -0.78801074757464917 0 -0.61566148304635926 I I #
edge $-1 $318 4.1865200504169735 $165 19.111262709680915 $249 $325 forward 7 unknown #
point $-1 -73.76689962462234 -19.111262709680915 21.497403309619617 #
point $-1 -47.135149894979193 -19.111262709680915 21.497403309619617 #
edge $-1 $326 1 $326 0 $168 $-1 forward 7 unknown #
vertex $-1 $169 $327 #
ellipse-curve $-1 -56.824611965599679 -11.648891380048944 6.4523048461933916 -0.61566148304635926 0 0.78801074757464917 1.1820161213619738 0 0.92349222456953894 1 I I #
point $-1 -59.269008638438791 -11.648891380048944 12.017393687840068 #
loop $-1 $-1 $180 $172 #
plane-surface $-1 -73.76689962462234 0 0 1 0 0 0 0 -1 forward_v I I I I #
coedge $-1 $264 $175 $177 $268 reversed $106 $-1 #
coedge $-1 $175 $263 $328 $329 reversed $106 $-1 #
coedge $-1 $183 $178 $175 $266 forward $173 $-1 #
edge $-1 $269 -35.163738739958887 $330 -8.5319890103157405 $265 $331 forward 7 unknown #
coedge $-1 $177 $176 $272 $332 reversed $66 $-1 #
edge $-1 $333 0 $269 33.79617576487469 $263 $334 forward 7 unknown #
vertex $-1 $179 $335 #
straight-curve $-1 -47.135149894979193 13.455948417038176 21.497403309619617 0 1 0 I I #
coedge $-1 $328 $180 $183 $276 reversed $261 $-1 #
coedge $-1 $180 $328 $267 $332 forward $261 $-1 #
vertex $-1 $181 $336 #
straight-curve $-1 -73.76689962462234 19.449525504444381 58.474309527923481 0 0 1 I I #
straight-curve $-1 -73.76689962462234 19.449525504444381 0.69039961692143947 -0.78801074757464917 0 -0.61566148304635926 I I #
edge $-1 $330 -34.374268163708322 $184 -19.449525504444381 $271 $337 forward 7 unknown #
point $-1 -73.76689962462234 19.449525504444381 21.497403309619617 #
point $-1 -47.135149894979193 19.449525504444381 21.497403309619617 #
edge $-1 $338 1 $338 0 $187 $-1 forward 7 unknown #
vertex $-1 $188 $339 #
ellipse-curve $-1 -56.824611965599679 26.911896834076352 6.4523048461933916 -0.61566148304635926 0 0.78801074757464917 1.1820161213619738 0 0.92349222456953894 1 I I #
point $-1 -59.269008638438791 26.911896834076352 12.017393687840068 #
plane-surface $-1 73.76689962462234 0 0 -1 0 0 0 0 1 forward_v I I I I #
coedge $-1 $196 $194 $198 $288 reversed $121 $-1 #
edge $-1 $209 -21.497403309619617 $290 21.497403309619617 $208 $340 forward 7 unknown #
vertex $-1 $288 $341 #
straight-curve $-1 -73.76689962462234 -48.340315832382139 0 0 0 -1 I I #
edge $-1 $286 -48.340315832382139 $290 48.340315832382139 $284 $342 forward 7 unknown #
straight-curve $-1 0 -48.340315832382139 -21.497403309619617 -1 0 0 I I #
vertex $-1 $201 $343 #
straight-curve $-1 0 48.340315832382139 -21.497403309619617 1 0 0 I I #
point $-1 73.76689962462234 48.340315832382139 -21.497403309619617 #
point $-1 73.76689962462234 -48.340315832382139 -21.497403309619617 #
straight-curve $-1 -73.76689962462234 0 21.497403309619617 0 -1 0 I I #
point $-1 -73.76689962462234 48.340315832382139 21.497403309619617 #
point $-1 -73.76689962462234 -48.340315832382139 21.497403309619617 #
straight-curve $-1 73.76689962462234 -48.340315832382139 0 0 0 -1 I I #
straight-curve $-1 73.76689962462234 48.340315832382139 0 0 0 -1 I I #
plane-surface $-1 73.76689962462234 0 0 -1 0 0 0 0 1 forward_v I I I I #
coedge $-1 $344 $303 $225 $308 forward $219 $-1 #
coedge $-1 $226 $221 $344 $345 forward $140 $-1 #
edge $-1 $235 -7.6315027270137037 $346 7.6315027270137037 $233 $347 forward 7 unknown #
coedge $-1 $300 $348 $222 $304 reversed $219 $-1 #
edge $-1 $311 -73.76689962462234 $306 73.76689962462234 $303 $349 forward 7 unknown #
coedge $-1 $233 $223 $348 $350 forward $234 $-1 #
vertex $-1 $224 $351 #
straight-curve $-1 73.76689962462234 -55.971818559395842 0.60837810785893609 0 1 0 I I #
edge $-1 $311 -4.4436189567670112 $309 4.4436189567670112 $225 $352 forward 7 unknown #
vertex $-1 $227 $353 #
straight-curve $-1 -73.76689962462234 -55.971818559395842 -8.2788598056750864 0 1 0 I I #
vertex $-1 $228 $354 #
straight-curve $-1 -73.76689962462234 -55.971818559395842 0.60837810785893609 0 -1 0 I I #
point $-1 -73.76689962462234 -48.340315832382139 -8.2788598056750864 #
straight-curve $-1 0 -48.340315832382139 -8.2788598056750864 -1 0 0 I I #
point $-1 73.76689962462234 -48.340315832382139 -8.2788598056750864 #
coedge $-1 $250 $249 $242 $317 forward $239 $-1 #
edge $-1 $318 36.976906218303867 $321 57.783909911002041 $316 $355 forward 7 unknown #
vertex $-1 $254 $356 #
straight-curve $-1 -82.298888634938081 -4.1865200504169735 21.497403309619614 -1 0 0 I I #
edge $-1 $321 -1.6379256396074986 $251 13.286817019656443 $250 $357 forward 7 unknown #
vertex $-1 $320 $358 #
straight-curve $-1 -73.76689962462234 -4.1865200504169735 0.69039961692143947 0.78801074757464917 0 0.61566148304635926 I I #
point $-1 -47.135149894979193 -4.1865200504169735 21.497403309619617 #
point $-1 -73.76689962462234 -19.111262709680915 0.69039961692143947 #
straight-curve $-1 -73.76689962462234 0 21.497403309619617 0 -1 0 I I #
vertex $-1 $257 $359 #
point $-1 -55.642595844237704 -11.648891380048944 7.3757970707629301 #
coedge $-1 $272 $271 $264 $329 forward $261 $-1 #
edge $-1 $330 36.976906218303867 $333 57.783909911002041 $328 $360 forward 7 unknown #
vertex $-1 $276 $361 #
straight-curve $-1 -82.298888634938081 34.374268163708322 21.497403309619614 -1 0 0 I I #
edge $-1 $333 -20.918319746670146 $273 -5.9935770874062051 $272 $362 forward 7 unknown #
vertex $-1 $332 $363 #
straight-curve $-1 -73.76689962462234 34.374268163708322 0.69039961692143947 0.78801074757464917 0 0.61566148304635926 I I #
point $-1 -47.135149894979193 34.374268163708322 21.497403309619617 #
point $-1 -73.76689962462234 19.449525504444381 0.69039961692143947 #
straight-curve $-1 -73.76689962462234 0 21.497403309619617 0 -1 0 I I #
vertex $-1 $279 $364 #
point $-1 -55.642595844237704 26.911896834076352 7.3757970707629301 #
straight-curve $-1 -73.76689962462234 48.340315832382139 0 0 0 -1 I I #
point $-1 -73.76689962462234 -48.340315832382139 -21.497403309619617 #
straight-curve $-1 -73.76689962462234 0 -21.497403309619617 0 1 0 I I #
point $-1 -73.76689962462234 48.340315832382139 -21.497403309619617 #
coedge $-1 $348 $300 $301 $345 reversed $219 $-1 #
edge $-1 $346 -73.76689962462234 $309 73.76689962462234 $344 $365 forward 7 unknown #
vertex $-1 $350 $366 #
straight-curve $-1 73.76689962462234 -55.971818559395842 -8.2788598056750864 0 -1 0 I I #
coedge $-1 $303 $344 $305 $350 reversed $219 $-1 #
straight-curve $-1 0 -63.603321286409546 0.60837810785893609 1 0 0 I I #
edge $-1 $306 -4.4436189567670112 $346 4.4436189567670112 $305 $367 forward 7 unknown #
point $-1 73.76689962462234 -63.603321286409546 0.60837810785893609 #
straight-curve $-1 -73.76689962462234 -63.603321286409546 -3.8352408489080752 0 0 -1 I I #
point $-1 -73.76689962462234 -63.603321286409546 -8.2788598056750864 #
point $-1 -73.76689962462234 -63.603321286409546 0.60837810785893609 #
straight-curve $-1 -73.76689962462234 -4.1865200504169735 58.474309527923481 0 0 -1 I I #
point $-1 -73.76689962462234 -4.1865200504169735 21.497403309619617 #
straight-curve $-1 -73.76689962462234 -5.8244456900244721 0.69039961692143592 0 -1 0 I I #
point $-1 -73.76689962462234 -4.1865200504169735 0.69039961692143947 #
point $-1 -55.901119741030136 -11.648891380048944 5.2702887248314179 #
straight-curve $-1 -73.76689962462234 34.374268163708322 58.474309527923481 0 0 -1 I I #
point $-1 -73.76689962462234 34.374268163708322 21.497403309619617 #
straight-curve $-1 -73.76689962462234 13.455948417038176 0.69039961692143592 0 -1 0 I I #
point $-1 -73.76689962462234 34.374268163708322 0.69039961692143947 #
point $-1 -55.901119741030136 26.911896834076352 5.2702887248314179 #
straight-curve $-1 0 -63.603321286409546 -8.2788598056750864 -1 0 0 I I #
point $-1 73.76689962462234 -63.603321286409546 -8.2788598056750864 #
straight-curve $-1 73.76689962462234 -63.603321286409546 -3.8352408489080752 0 0 -1 I I #
End-of-ACIS-data 