500 0 4 0           
7 Unknown 11 ACIS 5.0 NT 24 Thu Mar 25 23:13:57 1999 
-1 9.9999999999999995e-007 1e-010 
body $-1 $4 $-1 $5 #
body $-1 $6 $-1 $7 #
body $-1 $8 $-1 $9 #
body $-1 $10 $-1 $11 #
lump $-1 $-1 $12 $0 #
transform $-1 1 0 0 0 1 0 0 0 1 78.944059572130499 45.51998268818992 21.620151084209713 1 rotate no_reflect no_shear #
lump $-1 $-1 $13 $1 #
transform $-1 1 0 0 0 1 0 0 0 1 78.944059572130499 45.51998268818992 21.620151084209713 1 rotate no_reflect no_shear #
lump $-1 $-1 $14 $2 #
transform $-1 1 0 0 0 1 0 0 0 1 78.944059572130499 45.51998268818992 21.620151084209713 1 rotate no_reflect no_shear #
lump $-1 $-1 $15 $3 #
transform $-1 1 0 0 0 1 0 0 0 1 78.944059572130499 45.51998268818992 21.620151084209713 1 rotate no_reflect no_shear #
shell $-1 $-1 $-1 $16 $-1 $4 #
shell $-1 $-1 $-1 $17 $-1 $6 #
shell $-1 $-1 $-1 $18 $-1 $8 #
shell $-1 $-1 $-1 $19 $-1 $10 #
face $-1 $20 $21 $12 $-1 $22 forward single #
face $-1 $23 $24 $13 $-1 $25 forward single #
face $-1 $26 $27 $14 $-1 $28 forward single #
face $-1 $29 $30 $15 $-1 $31 reversed single #
face $-1 $32 $33 $12 $-1 $34 reversed single #
loop $-1 $-1 $35 $16 #
plane-surface $-1 0 0 21.620151084209713 0 0 1 1 0 0 forward_v I I I I #
face $-1 $36 $37 $13 $-1 $38 reversed single #
loop $-1 $-1 $39 $17 #
plane-surface $-1 0 -53.313510394719323 12.077468094298357 0 0 1 1 0 0 forward_v I I I I #
face $-1 $40 $41 $14 $-1 $42 forward single #
loop $-1 $-1 $43 $18 #
plane-surface $-1 -212.84077966934402 -29.93292727513111 94.670589665742881 0 1 0 -0.84804810408105047 0 0.52991925155115449 forward_v I I I I #
face $-1 $44 $45 $15 $-1 $46 reversed single #
loop $-1 $47 $48 $19 #
cone-surface $-1 -73.130386152027626 -22.497360426867253 14.751473635266143 0.84804810408105047 0 -0.52991925155115449 0.79487887732673168 0 1.2720721561215758 1 I I 0 1 1.5 forward I I I I #
face $-1 $49 $50 $12 $-1 $51 reversed single #
loop $-1 $-1 $52 $20 #
plane-surface $-1 0 0 -21.620151084209713 0 0 1 1 0 0 forward_v I I I I #
coedge $-1 $53 $54 $55 $56 forward $21 $-1 #
face $-1 $57 $58 $13 $-1 $59 reversed single #
loop $-1 $-1 $60 $23 #
plane-surface $-1 0 -53.313510394719323 3.6224694669208084 0 0 1 1 0 0 forward_v I I I I #
coedge $-1 $61 $62 $63 $64 forward $24 $-1 #
face $-1 $65 $66 $14 $-1 $67 forward single #
loop $-1 $-1 $68 $26 #
plane-surface $-1 -78.94405957213047 -22.497360426867253 11.002635739996592 -0.84804810408105047 0 0.52991925155115449 0.52991925155115449 0 0.84804810408105047 forward_v I I I I #
coedge $-1 $69 $70 $71 $72 reversed $27 $-1 #
face $-1 $73 $74 $15 $-1 $75 forward single #
loop $-1 $76 $77 $29 #
cone-surface $-1 -69.997956509489114 -22.497360426867253 12.794114419765773 0.84804810408105047 0 -0.52991925155115449 0.39743943866336584 0 0.63603607806078788 1 I I -0.70710678118654757 0.70710678118654757 0.75 forward I I I I #
loop $-1 $-1 $78 $19 #
coedge $-1 $48 $48 $79 $80 reversed $30 $-1 #
face $-1 $81 $82 $12 $-1 $83 reversed single #
loop $-1 $-1 $84 $32 #
plane-surface $-1 0 -45.51998268818992 0 0 1 0 0 0 1 forward_v I I I I #
coedge $-1 $85 $86 $87 $88 forward $33 $-1 #
coedge $-1 $89 $35 $90 $91 forward $21 $-1 #
coedge $-1 $35 $89 $92 $93 forward $21 $-1 #
coedge $-1 $94 $95 $35 $56 reversed $96 $-1 #
edge $-1 $97 -45.51998268818992 $98 45.51998268818992 $55 $99 forward 7 unknown #
face $-1 $100 $101 $13 $-1 $102 reversed single #
loop $-1 $-1 $103 $36 #
plane-surface $-1 0 -61.107038101248726 7.8499687806095828 0 1 0 0 0 1 forward_v I I I I #
coedge $-1 $104 $105 $106 $107 forward $37 $-1 #
coedge $-1 $108 $39 $109 $110 reversed $24 $-1 #
coedge $-1 $39 $108 $111 $112 forward $24 $-1 #
coedge $-1 $113 $114 $39 $64 reversed $115 $-1 #
edge $-1 $116 -7.7935277065294031 $117 7.7935277065294031 $63 $118 forward 7 unknown #
face $-1 $119 $120 $14 $-1 $121 forward single #
loop $-1 $-1 $122 $40 #
plane-surface $-1 -212.84077966934402 -15.061793578603396 94.670589665742881 0 -1 0 0.84804810408105047 0 -0.52991925155115449 forward_v I I I I #
coedge $-1 $123 $124 $125 $126 reversed $41 $-1 #
coedge $-1 $70 $43 $124 $127 forward $27 $-1 #
coedge $-1 $43 $69 $128 $129 reversed $27 $-1 #
coedge $-1 $130 $125 $43 $72 forward $120 $-1 #
edge $-1 $131 -34.110889973791814 $132 -27.476330262541509 $71 $133 forward 7 unknown #
face $-1 $134 $135 $15 $-1 $136 forward single #
loop $-1 $-1 $137 $44 #
plane-surface $-1 -212.84077966934402 -29.93292727513111 94.670589665742881 0 1 0 -0.84804810408105047 0 0.52991925155115449 forward_v I I I I #
loop $-1 $-1 $138 $29 #
coedge $-1 $77 $77 $78 $139 forward $45 $-1 #
coedge $-1 $78 $78 $77 $139 reversed $47 $-1 #
coedge $-1 $79 $79 $48 $80 forward $135 $-1 #
edge $-1 $140 0 $140 6.2831853071796004 $79 $141 forward 7 unknown #
face $-1 $142 $143 $12 $-1 $144 reversed single #
loop $-1 $-1 $145 $49 #
plane-surface $-1 -78.944059572130499 0 0 1 0 0 0 0 -1 forward_v I I I I #
coedge $-1 $146 $92 $147 $148 forward $50 $-1 #
coedge $-1 $149 $52 $146 $150 forward $33 $-1 #
coedge $-1 $52 $149 $151 $152 forward $33 $-1 #
coedge $-1 $95 $94 $52 $88 reversed $96 $-1 #
edge $-1 $153 -45.51998268818992 $154 45.51998268818992 $87 $155 forward 7 unknown #
coedge $-1 $54 $53 $156 $157 forward $21 $-1 #
coedge $-1 $158 $159 $53 $91 reversed $143 $-1 #
edge $-1 $98 -78.944059572130499 $160 78.944059572130499 $90 $161 forward 7 unknown #
coedge $-1 $84 $162 $54 $93 reversed $50 $-1 #
edge $-1 $163 -78.944059572130499 $97 78.944059572130499 $92 $164 forward 7 unknown #
coedge $-1 $87 $55 $162 $165 forward $96 $-1 #
coedge $-1 $55 $87 $158 $166 reversed $96 $-1 #
loop $-1 $-1 $94 $142 #
vertex $-1 $56 $167 #
vertex $-1 $56 $168 #
straight-curve $-1 78.944059572130499 0 21.620151084209713 0 1 0 I I #
face $-1 $169 $170 $13 $-1 $102 reversed single #
loop $-1 $-1 $171 $57 #
plane-surface $-1 0 -45.51998268818992 0 0 1 0 0 0 1 forward_v I I I I #
coedge $-1 $172 $111 $173 $174 forward $58 $-1 #
coedge $-1 $175 $60 $172 $176 forward $37 $-1 #
coedge $-1 $60 $175 $171 $177 reversed $37 $-1 #
coedge $-1 $178 $113 $60 $107 reversed $115 $-1 #
edge $-1 $179 -7.7935277065294031 $180 7.7935277065294031 $106 $181 forward 7 unknown #
coedge $-1 $62 $61 $182 $183 forward $24 $-1 #
coedge $-1 $184 $185 $61 $110 forward $170 $-1 #
edge $-1 $186 -78.944059572130499 $117 78.944059572130499 $109 $187 forward 7 unknown #
coedge $-1 $103 $188 $62 $112 reversed $58 $-1 #
edge $-1 $189 -78.944059572130499 $116 78.944059572130499 $111 $190 forward 7 unknown #
coedge $-1 $106 $63 $188 $191 forward $115 $-1 #
coedge $-1 $63 $192 $184 $193 forward $115 $-1 #
loop $-1 $-1 $114 $194 #
vertex $-1 $64 $195 #
vertex $-1 $64 $196 #
straight-curve $-1 78.944059572130499 -53.313510394719323 12.077468094298357 0 1 0 I I #
face $-1 $197 $198 $14 $-1 $199 forward single #
loop $-1 $-1 $200 $65 #
plane-surface $-1 0 0 21.620151084209713 0 0 1 1 0 0 forward_v I I I I #
coedge $-1 $201 $202 $200 $203 reversed $66 $-1 #
coedge $-1 $204 $68 $202 $205 reversed $41 $-1 #
coedge $-1 $68 $204 $69 $127 reversed $41 $-1 #
coedge $-1 $71 $200 $68 $126 forward $120 $-1 #
edge $-1 $206 3.8131133651697695 $131 18.684247061697484 $125 $207 forward 7 unknown #
edge $-1 $131 -12.51994467426859 $208 5.4228548284608603e-014 $69 $209 forward 7 unknown #
coedge $-1 $210 $211 $70 $129 forward $212 $-1 #
edge $-1 $132 25.715143748661728 $208 36.332659092874891 $128 $213 forward 7 unknown #
coedge $-1 $214 $71 $211 $215 forward $120 $-1 #
vertex $-1 $126 $216 #
vertex $-1 $215 $217 #
straight-curve $-1 -106.42038983467201 -29.93292727513111 21.620151084209709 -1 0 0 I I #
face $-1 $218 $219 $15 $-1 $220 forward single #
loop $-1 $221 $79 $73 #
plane-surface $-1 -78.94405957213047 -22.497360426867253 11.002635739996592 -0.84804810408105047 0 0.52991925155115449 0.52991925155115449 0 0.84804810408105047 forward_v I I I I #
coedge $-1 $222 $223 $224 $225 reversed $74 $-1 #
coedge $-1 $138 $138 $-1 $226 forward $76 $-1 #
edge $-1 $227 0 $227 6.2831853071796004 $77 $228 forward 7 unknown #
vertex $-1 $80 $229 #
ellipse-curve $-1 -75.626779716505339 -22.497360426867253 16.31139341210314 0.84804810408105047 0 -0.52991925155115449 0.79487887732673168 0 1.2720721561215758 1 I I #
face $-1 $-1 $96 $12 $-1 $230 reversed single #
loop $-1 $-1 $158 $81 #
plane-surface $-1 0 45.51998268818992 0 0 -1 0 0 0 -1 forward_v I I I I #
coedge $-1 $231 $156 $159 $232 forward $82 $-1 #
coedge $-1 $162 $84 $85 $150 reversed $50 $-1 #
coedge $-1 $156 $231 $84 $148 reversed $82 $-1 #
edge $-1 $163 -21.620151084209713 $233 21.620151084209713 $147 $234 forward 7 unknown #
coedge $-1 $86 $85 $231 $235 forward $33 $-1 #
edge $-1 $154 -78.944059572130499 $233 78.944059572130499 $146 $236 forward 7 unknown #
coedge $-1 $159 $158 $86 $152 reversed $143 $-1 #
edge $-1 $237 -78.944059572130499 $153 78.944059572130499 $151 $238 forward 7 unknown #
vertex $-1 $88 $239 #
vertex $-1 $165 $240 #
straight-curve $-1 78.944059572130499 0 -21.620151084209713 0 -1 0 I I #
coedge $-1 $145 $147 $89 $157 reversed $82 $-1 #
edge $-1 $160 -45.51998268818992 $163 45.51998268818992 $156 $241 forward 7 unknown #
coedge $-1 $151 $90 $95 $166 forward $143 $-1 #
coedge $-1 $90 $151 $145 $232 reversed $143 $-1 #
vertex $-1 $91 $242 #
straight-curve $-1 0 45.51998268818992 21.620151084209713 -1 0 0 I I #
coedge $-1 $92 $146 $94 $165 reversed $50 $-1 #
vertex $-1 $157 $243 #
straight-curve $-1 0 -45.51998268818992 21.620151084209713 1 0 0 I I #
edge $-1 $97 -21.620151084209713 $154 21.620151084209713 $94 $244 forward 7 unknown #
edge $-1 $98 -21.620151084209713 $153 21.620151084209713 $95 $245 forward 7 unknown #
point $-1 78.944059572130499 -45.51998268818992 21.620151084209713 #
point $-1 78.944059572130499 45.51998268818992 21.620151084209713 #
face $-1 $246 $247 $13 $-1 $248 forward single #
loop $-1 $-1 $109 $100 #
coedge $-1 $249 $250 $105 $177 forward $101 $-1 #
coedge $-1 $188 $103 $104 $176 reversed $58 $-1 #
coedge $-1 $182 $251 $103 $174 reversed $252 $-1 #
edge $-1 $189 -4.2274993136887744 $253 4.2274993136887744 $173 $254 forward 7 unknown #
coedge $-1 $105 $104 $251 $255 forward $37 $-1 #
edge $-1 $180 -78.944059572130499 $253 78.944059572130499 $172 $256 forward 7 unknown #
edge $-1 $179 -78.944059572130499 $257 78.944059572130499 $171 $258 forward 7 unknown #
coedge $-1 $259 $106 $250 $260 forward $115 $-1 #
vertex $-1 $260 $261 #
vertex $-1 $191 $262 #
straight-curve $-1 78.944059572130499 -53.313510394719323 3.6224694669208084 0 -1 0 I I #
coedge $-1 $263 $173 $108 $183 reversed $252 $-1 #
edge $-1 $186 -7.7935277065294031 $189 7.7935277065294031 $182 $264 forward 7 unknown #
coedge $-1 $265 $109 $114 $193 reversed $170 $-1 #
coedge $-1 $109 $265 $263 $266 forward $170 $-1 #
vertex $-1 $266 $267 #
straight-curve $-1 0 -45.51998268818992 12.077468094298357 1 0 0 I I #
coedge $-1 $111 $172 $113 $191 reversed $58 $-1 #
vertex $-1 $183 $268 #
straight-curve $-1 0 -61.107038101248726 12.077468094298357 1 0 0 I I #
edge $-1 $116 -4.2274993136887744 $180 4.2274993136887744 $113 $269 forward 7 unknown #
coedge $-1 $114 $270 $271 $272 reversed $115 $-1 #
edge $-1 $273 -21.620151084209713 $117 -12.077468094298357 $114 $274 forward 7 unknown #
face $-1 $-1 $115 $13 $-1 $275 reversed single #
point $-1 78.944059572130499 -61.107038101248726 12.077468094298357 #
point $-1 78.944059572130499 -45.51998268818992 12.077468094298357 #
face $-1 $276 $277 $14 $-1 $278 reversed single #
loop $-1 $-1 $279 $119 #
plane-surface $-1 0 -53.313510394719323 12.077468094298357 0 0 1 1 0 0 forward_v I I I I #
coedge $-1 $125 $280 $122 $203 forward $120 $-1 #
coedge $-1 $202 $122 $281 $282 reversed $66 $-1 #
coedge $-1 $122 $201 $123 $205 forward $66 $-1 #
edge $-1 $283 27.476330262541509 $206 34.110889973791814 $200 $284 forward 7 unknown #
coedge $-1 $124 $123 $210 $285 reversed $41 $-1 #
edge $-1 $286 -5.4228548284608603e-014 $206 12.51994467426859 $202 $287 forward 7 unknown #
vertex $-1 $126 $288 #
straight-curve $-1 -72.309499860880194 -11.248680213433627 21.620151084209713 0 -1 0 I I #
vertex $-1 $285 $289 #
straight-curve $-1 -78.94405957213047 -29.93292727513111 11.002635739996592 -0.52991925155115449 0 -0.84804810408105047 I I #
coedge $-1 $281 $128 $204 $285 forward $212 $-1 #
coedge $-1 $128 $290 $130 $215 reversed $212 $-1 #
loop $-1 $-1 $281 $291 #
straight-curve $-1 -78.944059572130499 -29.93292727513111 47.33529483287144 0 0 -1 I I #
coedge $-1 $292 $130 $293 $294 forward $120 $-1 #
edge $-1 $132 29.93292727513111 $295 45.51998268818992 $211 $296 forward 7 unknown #
point $-1 -72.309499860880194 -29.93292727513111 21.620151084209713 #
point $-1 -78.944059572130499 -29.93292727513111 21.620151084209713 #
face $-1 $297 $298 $15 $-1 $299 forward single #
loop $-1 $-1 $300 $134 #
plane-surface $-1 -212.84077966934402 -15.061793578603396 94.670589665742881 0 -1 0 0.84804810408105047 0 -0.52991925155115449 forward_v I I I I #
loop $-1 $-1 $301 $73 #
coedge $-1 $223 $137 $302 $303 forward $74 $-1 #
coedge $-1 $137 $222 $304 $305 reversed $74 $-1 #
coedge $-1 $306 $307 $137 $225 forward $298 $-1 #
edge $-1 $308 -34.110889973791814 $309 -27.476330262541509 $224 $310 forward 7 unknown #
edge $-1 $311 1 $311 0 $138 $-1 forward 7 unknown #
vertex $-1 $139 $312 #
ellipse-curve $-1 -70.633992587549898 -22.497360426867253 13.191553858429138 -0.84804810408105047 0 0.52991925155115449 0.79487887732673168 0 1.2720721561215758 1 I I #
point $-1 -74.83190083917863 -22.497360426867253 17.583465568224725 #
plane-surface $-1 78.944059572130499 0 0 -1 0 0 0 0 1 forward_v I I I I #
coedge $-1 $147 $145 $149 $235 reversed $82 $-1 #
edge $-1 $160 -21.620151084209713 $237 21.620151084209713 $159 $313 forward 7 unknown #
vertex $-1 $235 $314 #
straight-curve $-1 -78.944059572130499 -45.51998268818992 0 0 0 -1 I I #
edge $-1 $233 -45.51998268818992 $237 45.51998268818992 $231 $315 forward 7 unknown #
straight-curve $-1 0 -45.51998268818992 -21.620151084209713 -1 0 0 I I #
vertex $-1 $152 $316 #
straight-curve $-1 0 45.51998268818992 -21.620151084209713 1 0 0 I I #
point $-1 78.944059572130499 45.51998268818992 -21.620151084209713 #
point $-1 78.944059572130499 -45.51998268818992 -21.620151084209713 #
straight-curve $-1 -78.944059572130499 0 21.620151084209713 0 -1 0 I I #
point $-1 -78.944059572130499 45.51998268818992 21.620151084209713 #
point $-1 -78.944059572130499 -45.51998268818992 21.620151084209713 #
straight-curve $-1 78.944059572130499 -45.51998268818992 0 0 0 -1 I I #
straight-curve $-1 78.944059572130499 45.51998268818992 0 0 0 -1 I I #
face $-1 $317 $318 $13 $-1 $319 reversed single #
loop $-1 $-1 $271 $169 #
plane-surface $-1 0 0 21.620151084209713 0 0 1 1 0 0 forward_v I I I I #
coedge $-1 $320 $171 $321 $322 forward $101 $-1 #
coedge $-1 $171 $320 $178 $260 reversed $101 $-1 #
coedge $-1 $173 $321 $175 $255 reversed $252 $-1 #
loop $-1 $-1 $323 $317 #
vertex $-1 $255 $324 #
straight-curve $-1 -78.944059572130499 -61.107038101248726 7.8499687806095828 0 0 -1 I I #
edge $-1 $253 -7.7935277065294031 $257 7.7935277065294031 $251 $325 forward 7 unknown #
straight-curve $-1 0 -61.107038101248726 3.6224694669208084 -1 0 0 I I #
vertex $-1 $322 $326 #
straight-curve $-1 0 -45.51998268818992 3.6224694669208084 -1 0 0 I I #
coedge $-1 $270 $178 $327 $328 reversed $115 $-1 #
edge $-1 $179 -3.6224694669208084 $329 21.620151084209713 $178 $274 forward 7 unknown #
point $-1 78.944059572130499 -45.51998268818992 3.6224694669208084 #
point $-1 78.944059572130499 -61.107038101248726 3.6224694669208084 #
coedge $-1 $330 $182 $185 $266 reversed $252 $-1 #
straight-curve $-1 -78.944059572130499 -53.313510394719323 12.077468094298357 0 -1 0 I I #
coedge $-1 $185 $184 $331 $332 reversed $170 $-1 #
edge $-1 $333 -21.620151084209713 $186 -12.077468094298357 $263 $334 forward 7 unknown #
point $-1 -78.944059572130499 -45.51998268818992 12.077468094298357 #
point $-1 -78.944059572130499 -61.107038101248726 12.077468094298357 #
straight-curve $-1 78.944059572130499 -61.107038101248726 7.8499687806095828 0 0 -1 I I #
coedge $-1 $192 $259 $335 $336 reversed $115 $-1 #
coedge $-1 $337 $331 $192 $272 forward $247 $-1 #
edge $-1 $273 -45.51998268818992 $338 45.51998268818992 $192 $339 forward 7 unknown #
vertex $-1 $272 $340 #
straight-curve $-1 78.944059572130499 -45.51998268818992 0 0 0 -1 I I #
plane-surface $-1 78.944059572130499 0 0 -1 0 0 0 0 1 forward_v I I I I #
face $-1 $341 $342 $14 $-1 $343 reversed single #
loop $-1 $-1 $344 $197 #
plane-surface $-1 0 -53.313510394719323 3.6224694669208084 0 0 1 1 0 0 forward_v I I I I #
coedge $-1 $345 $346 $347 $348 forward $198 $-1 #
coedge $-1 $200 $349 $350 $351 forward $120 $-1 #
coedge $-1 $350 $210 $201 $282 forward $212 $-1 #
edge $-1 $286 -36.332659092874891 $283 -25.715143748661728 $281 $352 forward 7 unknown #
vertex $-1 $282 $353 #
straight-curve $-1 -106.42038983467201 -15.061793578603396 21.620151084209709 1 0 0 I I #
edge $-1 $208 -18.684247061697484 $286 -3.8131133651697695 $210 $354 forward 7 unknown #
vertex $-1 $285 $355 #
straight-curve $-1 -78.94405957213047 -15.061793578603396 11.002635739996592 0.52991925155115449 0 0.84804810408105047 I I #
point $-1 -72.309499860880194 -15.061793578603396 21.620151084209713 #
point $-1 -78.944059572130499 -29.93292727513111 11.002635739996546 #
coedge $-1 $211 $356 $357 $358 reversed $212 $-1 #
face $-1 $359 $212 $14 $-1 $360 reversed single #
coedge $-1 $349 $214 $361 $362 forward $120 $-1 #
coedge $-1 $357 $363 $214 $294 reversed $364 $-1 #
edge $-1 $295 -78.944059572130499 $365 78.944059572130499 $293 $366 forward 7 unknown #
vertex $-1 $215 $367 #
straight-curve $-1 -78.944059572130499 0 21.620151084209713 0 -1 0 I I #
face $-1 $368 $369 $15 $-1 $370 forward single #
loop $-1 $-1 $371 $218 #
plane-surface $-1 0 0 21.620151084209713 0 0 1 1 0 0 forward_v I I I I #
coedge $-1 $372 $373 $371 $374 reversed $219 $-1 #
coedge $-1 $375 $302 $307 $376 reversed $221 $-1 #
coedge $-1 $301 $377 $222 $303 reversed $221 $-1 #
edge $-1 $308 -12.51994467426859 $378 5.4228548284608603e-014 $222 $379 forward 7 unknown #
coedge $-1 $380 $381 $223 $305 forward $382 $-1 #
edge $-1 $309 25.715143748661728 $378 36.332659092874891 $304 $383 forward 7 unknown #
coedge $-1 $384 $224 $381 $385 forward $298 $-1 #
coedge $-1 $224 $371 $301 $376 forward $298 $-1 #
vertex $-1 $376 $386 #
vertex $-1 $385 $387 #
straight-curve $-1 -106.42038983467201 -29.93292727513111 21.620151084209709 -1 0 0 I I #
vertex $-1 $226 $388 #
point $-1 -69.839113710223174 -22.497360426867253 14.463626014550714 #
straight-curve $-1 -78.944059572130499 45.51998268818992 0 0 0 -1 I I #
point $-1 -78.944059572130499 -45.51998268818992 -21.620151084209713 #
straight-curve $-1 -78.944059572130499 0 -21.620151084209713 0 1 0 I I #
point $-1 -78.944059572130499 45.51998268818992 -21.620151084209713 #
face $-1 $389 $252 $13 $-1 $390 reversed single #
loop $-1 $-1 $327 $246 #
plane-surface $-1 0 0 -21.620151084209713 0 0 1 1 0 0 forward_v I I I I #
coedge $-1 $250 $249 $391 $392 reversed $101 $-1 #
coedge $-1 $251 $393 $249 $322 reversed $252 $-1 #
edge $-1 $257 -3.6224694669208084 $394 21.620151084209713 $321 $334 forward 7 unknown #
coedge $-1 $393 $330 $395 $396 forward $252 $-1 #
point $-1 -78.944059572130499 -61.107038101248726 3.6224694669208084 #
straight-curve $-1 -78.944059572130499 -53.313510394719323 3.6224694669208084 0 1 0 I I #
point $-1 -78.944059572130499 -45.51998268818992 3.6224694669208084 #
coedge $-1 $391 $397 $259 $328 forward $318 $-1 #
edge $-1 $398 -45.51998268818992 $329 45.51998268818992 $259 $399 forward 7 unknown #
vertex $-1 $260 $400 #
coedge $-1 $323 $263 $401 $402 reversed $252 $-1 #
coedge $-1 $271 $401 $265 $332 forward $247 $-1 #
edge $-1 $333 -78.944059572130499 $273 78.944059572130499 $265 $403 forward 7 unknown #
vertex $-1 $402 $404 #
straight-curve $-1 -78.944059572130499 -45.51998268818992 0 0 0 -1 I I #
coedge $-1 $405 $406 $270 $336 forward $407 $-1 #
edge $-1 $338 -21.620151084209713 $398 21.620151084209713 $270 $408 forward 7 unknown #
coedge $-1 $401 $271 $406 $409 forward $247 $-1 #
vertex $-1 $272 $410 #
straight-curve $-1 78.944059572130499 0 21.620151084209713 0 1 0 I I #
point $-1 78.944059572130499 -45.51998268818992 21.620151084209713 #
face $-1 $411 $412 $14 $-1 $413 reversed single #
loop $-1 $-1 $414 $276 #
plane-surface $-1 0 -61.107038101248726 7.8499687806095828 0 1 0 0 0 1 forward_v I I I I #
coedge $-1 $415 $416 $417 $418 forward $277 $-1 #
coedge $-1 $419 $279 $420 $421 reversed $198 $-1 #
coedge $-1 $279 $419 $422 $423 forward $198 $-1 #
coedge $-1 $424 $425 $279 $348 reversed $426 $-1 #
edge $-1 $427 -7.7935277065294031 $428 7.7935277065294031 $347 $429 forward 7 unknown #
coedge $-1 $280 $292 $430 $431 forward $120 $-1 #
coedge $-1 $432 $281 $280 $351 reversed $212 $-1 #
edge $-1 $433 -45.51998268818992 $283 15.061793578603396 $350 $296 forward 7 unknown #
straight-curve $-1 -78.944059572130499 -15.061793578603396 47.33529483287144 0 0 1 I I #
point $-1 -78.944059572130499 -15.061793578603396 21.620151084209713 #
straight-curve $-1 -78.944059572130499 -11.248680213433627 11.002635739996537 0 1 0 I I #
point $-1 -78.944059572130499 -15.061793578603396 11.002635739996546 #
coedge $-1 $290 $434 $419 $435 reversed $212 $-1 #
coedge $-1 $420 $293 $290 $358 forward $364 $-1 #
edge $-1 $295 -21.620151084209713 $436 -12.077468094298357 $290 $437 forward 7 unknown #
face $-1 $438 $439 $14 $-1 $440 reversed single #
plane-surface $-1 -78.944059572130499 0 0 1 0 0 0 0 -1 forward_v I I I I #
coedge $-1 $425 $441 $292 $362 reversed $426 $-1 #
edge $-1 $365 -45.51998268818992 $442 45.51998268818992 $361 $443 forward 7 unknown #
coedge $-1 $293 $420 $425 $444 reversed $364 $-1 #
loop $-1 $-1 $420 $411 #
vertex $-1 $362 $445 #
straight-curve $-1 0 -45.51998268818992 21.620151084209713 1 0 0 I I #
point $-1 -78.944059572130499 -45.51998268818992 21.620151084209713 #
face $-1 $446 $447 $15 $-1 $448 reversed single #
loop $-1 $-1 $449 $297 #
plane-surface $-1 0 -53.313510394719323 12.077468094298357 0 0 1 1 0 0 forward_v I I I I #
coedge $-1 $307 $450 $300 $374 forward $298 $-1 #
coedge $-1 $373 $300 $451 $452 reversed $219 $-1 #
coedge $-1 $300 $372 $375 $453 forward $219 $-1 #
edge $-1 $454 27.476330262541509 $455 34.110889973791814 $371 $456 forward 7 unknown #
coedge $-1 $377 $301 $373 $453 reversed $221 $-1 #
edge $-1 $455 3.8131133651697695 $308 18.684247061697484 $307 $457 forward 7 unknown #
coedge $-1 $302 $375 $380 $458 reversed $221 $-1 #
vertex $-1 $458 $459 #
straight-curve $-1 -78.94405957213047 -29.93292727513111 11.002635739996592 -0.52991925155115449 0 -0.84804810408105047 I I #
coedge $-1 $451 $304 $377 $458 forward $382 $-1 #
coedge $-1 $304 $460 $306 $385 reversed $382 $-1 #
loop $-1 $-1 $451 $461 #
straight-curve $-1 -78.944059572130499 -29.93292727513111 47.33529483287144 0 0 -1 I I #
coedge $-1 $462 $306 $463 $464 forward $298 $-1 #
edge $-1 $309 29.93292727513111 $465 45.51998268818992 $381 $466 forward 7 unknown #
point $-1 -72.309499860880194 -29.93292727513111 21.620151084209713 #
point $-1 -78.944059572130499 -29.93292727513111 21.620151084209713 #
point $-1 -69.361920431428331 -22.497360426867253 12.396674981102407 #
face $-1 $194 $407 $13 $-1 $467 reversed single #
plane-surface $-1 -78.944059572130499 0 0 1 0 0 0 0 -1 forward_v I I I I #
coedge $-1 $468 $327 $320 $392 forward $318 $-1 #
edge $-1 $329 -78.944059572130499 $394 78.944059572130499 $320 $469 forward 7 unknown #
coedge $-1 $321 $323 $468 $470 reversed $252 $-1 #
vertex $-1 $470 $471 #
coedge $-1 $406 $405 $323 $396 reversed $407 $-1 #
edge $-1 $472 -21.620151084209713 $473 21.620151084209713 $395 $474 forward 7 unknown #
coedge $-1 $327 $468 $405 $475 forward $318 $-1 #
vertex $-1 $328 $476 #
straight-curve $-1 78.944059572130499 0 -21.620151084209713 0 -1 0 I I #
point $-1 78.944059572130499 -45.51998268818992 -21.620151084209713 #
coedge $-1 $331 $337 $330 $402 forward $247 $-1 #
edge $-1 $472 -45.51998268818992 $333 45.51998268818992 $330 $477 forward 7 unknown #
straight-curve $-1 0 -45.51998268818992 21.620151084209713 1 0 0 I I #
point $-1 -78.944059572130499 -45.51998268818992 21.620151084209713 #
coedge $-1 $395 $335 $397 $475 reversed $407 $-1 #
coedge $-1 $335 $395 $337 $409 reversed $407 $-1 #
loop $-1 $-1 $335 $389 #
straight-curve $-1 78.944059572130499 45.51998268818992 0 0 0 -1 I I #
edge $-1 $338 -78.944059572130499 $472 78.944059572130499 $406 $478 forward 7 unknown #
point $-1 78.944059572130499 45.51998268818992 21.620151084209713 #
face $-1 $479 $364 $14 $-1 $413 reversed single #
loop $-1 $-1 $480 $341 #
plane-surface $-1 0 -45.51998268818992 0 0 1 0 0 0 1 forward_v I I I I #
coedge $-1 $481 $422 $434 $482 forward $342 $-1 #
coedge $-1 $483 $344 $481 $484 forward $277 $-1 #
coedge $-1 $344 $483 $480 $485 reversed $277 $-1 #
coedge $-1 $486 $424 $344 $418 reversed $426 $-1 #
edge $-1 $487 -7.7935277065294031 $488 7.7935277065294031 $417 $489 forward 7 unknown #
coedge $-1 $346 $345 $356 $435 forward $198 $-1 #
coedge $-1 $363 $357 $345 $421 forward $364 $-1 #
edge $-1 $436 -78.944059572130499 $428 78.944059572130499 $420 $490 forward 7 unknown #
coedge $-1 $414 $491 $346 $423 reversed $342 $-1 #
edge $-1 $492 -78.944059572130499 $427 78.944059572130499 $422 $493 forward 7 unknown #
coedge $-1 $417 $347 $491 $494 forward $426 $-1 #
coedge $-1 $347 $361 $363 $444 forward $426 $-1 #
loop $-1 $-1 $425 $438 #
vertex $-1 $348 $495 #
vertex $-1 $348 $496 #
straight-curve $-1 78.944059572130499 -53.313510394719323 12.077468094298357 0 1 0 I I #
coedge $-1 $497 $498 $349 $431 reversed $439 $-1 #
edge $-1 $442 -78.944059572130499 $433 78.944059572130499 $430 $499 forward 7 unknown #
coedge $-1 $500 $350 $498 $501 forward $212 $-1 #
vertex $-1 $431 $502 #
coedge $-1 $356 $503 $414 $482 reversed $212 $-1 #
edge $-1 $436 -7.7935277065294031 $492 7.7935277065294031 $356 $504 forward 7 unknown #
vertex $-1 $358 $505 #
straight-curve $-1 -78.944059572130499 -45.51998268818992 0 0 0 -1 I I #
face $-1 $-1 $426 $14 $-1 $506 reversed single #
loop $-1 $-1 $497 $359 #
plane-surface $-1 0 45.51998268818992 0 0 -1 0 0 0 -1 forward_v I I I I #
coedge $-1 $361 $507 $497 $508 reversed $426 $-1 #
vertex $-1 $362 $509 #
straight-curve $-1 78.944059572130499 0 21.620151084209713 0 1 0 I I #
edge $-1 $365 -21.620151084209713 $428 -12.077468094298357 $425 $510 forward 7 unknown #
point $-1 78.944059572130499 -45.51998268818992 21.620151084209713 #
face $-1 $511 $512 $15 $-1 $513 reversed single #
loop $-1 $-1 $514 $368 #
plane-surface $-1 0 -53.313510394719323 3.6224694669208084 0 0 1 1 0 0 forward_v I I I I #
coedge $-1 $515 $516 $517 $518 forward $369 $-1 #
coedge $-1 $371 $519 $520 $521 forward $298 $-1 #
coedge $-1 $520 $380 $372 $452 forward $382 $-1 #
edge $-1 $522 -36.332659092874891 $454 -25.715143748661728 $451 $523 forward 7 unknown #
edge $-1 $522 -5.4228548284608603e-014 $455 12.51994467426859 $373 $524 forward 7 unknown #
vertex $-1 $452 $525 #
vertex $-1 $376 $526 #
straight-curve $-1 -106.42038983467201 -15.061793578603396 21.620151084209709 1 0 0 I I #
straight-curve $-1 -72.309499860880194 -11.248680213433627 21.620151084209713 0 -1 0 I I #
edge $-1 $378 -18.684247061697484 $522 -3.8131133651697695 $380 $527 forward 7 unknown #
point $-1 -78.944059572130499 -29.93292727513111 11.002635739996546 #
coedge $-1 $381 $528 $529 $530 reversed $382 $-1 #
face $-1 $531 $382 $15 $-1 $532 reversed single #
coedge $-1 $519 $384 $533 $534 forward $298 $-1 #
coedge $-1 $529 $535 $384 $464 reversed $536 $-1 #
edge $-1 $465 -78.944059572130499 $537 78.944059572130499 $463 $538 forward 7 unknown #
vertex $-1 $385 $539 #
straight-curve $-1 -78.944059572130499 0 21.620151084209713 0 -1 0 I I #
plane-surface $-1 0 45.51998268818992 0 0 -1 0 0 0 -1 forward_v I I I I #
coedge $-1 $397 $391 $393 $470 forward $318 $-1 #
straight-curve $-1 0 -45.51998268818992 -21.620151084209713 -1 0 0 I I #
edge $-1 $394 -45.51998268818992 $473 45.51998268818992 $393 $540 forward 7 unknown #
point $-1 -78.944059572130499 -45.51998268818992 -21.620151084209713 #
vertex $-1 $409 $541 #
vertex $-1 $475 $542 #
straight-curve $-1 -78.944059572130499 45.51998268818992 0 0 0 -1 I I #
edge $-1 $473 -78.944059572130499 $398 78.944059572130499 $405 $543 forward 7 unknown #
point $-1 78.944059572130499 45.51998268818992 -21.620151084209713 #
straight-curve $-1 -78.944059572130499 0 21.620151084209713 0 -1 0 I I #
straight-curve $-1 0 45.51998268818992 21.620151084209713 -1 0 0 I I #
face $-1 $291 $544 $14 $-1 $545 reversed single #
coedge $-1 $546 $547 $416 $485 forward $412 $-1 #
coedge $-1 $491 $414 $415 $484 reversed $342 $-1 #
edge $-1 $492 -4.2274993136887744 $548 4.2274993136887744 $434 $549 forward 7 unknown #
coedge $-1 $416 $415 $503 $550 forward $277 $-1 #
edge $-1 $488 -78.944059572130499 $548 78.944059572130499 $481 $551 forward 7 unknown #
edge $-1 $487 -78.944059572130499 $552 78.944059572130499 $480 $553 forward 7 unknown #
coedge $-1 $507 $417 $547 $554 forward $426 $-1 #
vertex $-1 $554 $555 #
vertex $-1 $494 $556 #
straight-curve $-1 78.944059572130499 -53.313510394719323 3.6224694669208084 0 -1 0 I I #
straight-curve $-1 0 -45.51998268818992 12.077468094298357 1 0 0 I I #
coedge $-1 $422 $481 $424 $494 reversed $342 $-1 #
vertex $-1 $435 $557 #
straight-curve $-1 0 -61.107038101248726 12.077468094298357 1 0 0 I I #
edge $-1 $427 -4.2274993136887744 $488 4.2274993136887744 $424 $558 forward 7 unknown #
point $-1 78.944059572130499 -61.107038101248726 12.077468094298357 #
point $-1 78.944059572130499 -45.51998268818992 12.077468094298357 #
coedge $-1 $559 $430 $441 $508 forward $439 $-1 #
coedge $-1 $430 $559 $432 $501 reversed $439 $-1 #
straight-curve $-1 0 45.51998268818992 21.620151084209713 -1 0 0 I I #
coedge $-1 $560 $432 $561 $562 reversed $212 $-1 #
edge $-1 $433 -21.620151084209713 $563 21.620151084209713 $498 $564 forward 7 unknown #
point $-1 -78.944059572130499 45.51998268818992 21.620151084209713 #
coedge $-1 $434 $560 $483 $550 reversed $212 $-1 #
straight-curve $-1 -78.944059572130499 -53.313510394719323 12.077468094298357 0 -1 0 I I #
point $-1 -78.944059572130499 -45.51998268818992 12.077468094298357 #
plane-surface $-1 78.944059572130499 0 0 -1 0 0 0 0 1 forward_v I I I I #
coedge $-1 $441 $486 $565 $566 reversed $426 $-1 #
edge $-1 $442 -21.620151084209713 $567 21.620151084209713 $441 $568 forward 7 unknown #
point $-1 78.944059572130499 45.51998268818992 21.620151084209713 #
straight-curve $-1 78.944059572130499 -45.51998268818992 0 0 0 -1 I I #
face $-1 $569 $570 $15 $-1 $571 reversed single #
loop $-1 $-1 $572 $446 #
plane-surface $-1 0 -61.107038101248726 7.8499687806095828 0 1 0 0 0 1 forward_v I I I I #
coedge $-1 $573 $574 $575 $576 forward $447 $-1 #
coedge $-1 $577 $449 $578 $579 reversed $369 $-1 #
coedge $-1 $449 $577 $580 $581 forward $369 $-1 #
coedge $-1 $582 $583 $449 $518 reversed $584 $-1 #
edge $-1 $585 -7.7935277065294031 $586 7.7935277065294031 $517 $587 forward 7 unknown #
coedge $-1 $450 $462 $588 $589 forward $298 $-1 #
coedge $-1 $590 $451 $450 $521 reversed $382 $-1 #
edge $-1 $591 -45.51998268818992 $454 15.061793578603396 $520 $466 forward 7 unknown #
vertex $-1 $458 $592 #
straight-curve $-1 -78.944059572130499 -15.061793578603396 47.33529483287144 0 0 1 I I #
straight-curve $-1 -78.94405957213047 -15.061793578603396 11.002635739996592 0.52991925155115449 0 0.84804810408105047 I I #
point $-1 -78.944059572130499 -15.061793578603396 21.620151084209713 #
point $-1 -72.309499860880194 -15.061793578603396 21.620151084209713 #
straight-curve $-1 -78.944059572130499 -11.248680213433627 11.002635739996537 0 1 0 I I #
coedge $-1 $460 $593 $577 $594 reversed $382 $-1 #
coedge $-1 $578 $463 $460 $530 forward $536 $-1 #
edge $-1 $465 -21.620151084209713 $595 -12.077468094298357 $460 $596 forward 7 unknown #
face $-1 $597 $598 $15 $-1 $599 reversed single #
plane-surface $-1 -78.944059572130499 0 0 1 0 0 0 0 -1 forward_v I I I I #
coedge $-1 $583 $600 $462 $534 reversed $584 $-1 #
edge $-1 $537 -45.51998268818992 $601 45.51998268818992 $533 $602 forward 7 unknown #
coedge $-1 $463 $578 $583 $603 reversed $536 $-1 #
loop $-1 $-1 $578 $569 #
vertex $-1 $534 $604 #
straight-curve $-1 0 -45.51998268818992 21.620151084209713 1 0 0 I I #
point $-1 -78.944059572130499 -45.51998268818992 21.620151084209713 #
straight-curve $-1 -78.944059572130499 0 -21.620151084209713 0 1 0 I I #
point $-1 -78.944059572130499 45.51998268818992 21.620151084209713 #
point $-1 -78.944059572130499 45.51998268818992 -21.620151084209713 #
straight-curve $-1 0 45.51998268818992 -21.620151084209713 1 0 0 I I #
loop $-1 $-1 $565 $479 #
plane-surface $-1 0 0 -21.620151084209713 0 0 1 1 0 0 forward_v I I I I #
coedge $-1 $605 $480 $560 $606 forward $412 $-1 #
coedge $-1 $480 $605 $486 $554 reversed $412 $-1 #
vertex $-1 $550 $607 #
straight-curve $-1 -78.944059572130499 -61.107038101248726 7.8499687806095828 0 0 -1 I I #
edge $-1 $548 -7.7935277065294031 $552 7.7935277065294031 $503 $608 forward 7 unknown #
straight-curve $-1 0 -61.107038101248726 3.6224694669208084 -1 0 0 I I #
vertex $-1 $606 $609 #
straight-curve $-1 0 -45.51998268818992 3.6224694669208084 -1 0 0 I I #
edge $-1 $487 -3.6224694669208084 $610 21.620151084209713 $486 $510 forward 7 unknown #
point $-1 78.944059572130499 -45.51998268818992 3.6224694669208084 #
point $-1 78.944059572130499 -61.107038101248726 3.6224694669208084 #
point $-1 -78.944059572130499 -61.107038101248726 12.077468094298357 #
straight-curve $-1 78.944059572130499 -61.107038101248726 7.8499687806095828 0 0 -1 I I #
coedge $-1 $498 $497 $611 $612 reversed $439 $-1 #
coedge $-1 $503 $500 $546 $606 reversed $212 $-1 #
coedge $-1 $611 $613 $500 $562 forward $544 $-1 #
edge $-1 $614 -45.51998268818992 $563 45.51998268818992 $500 $615 forward 7 unknown #
vertex $-1 $612 $616 #
straight-curve $-1 -78.944059572130499 45.51998268818992 0 0 0 -1 I I #
coedge $-1 $613 $611 $507 $566 forward $544 $-1 #
edge $-1 $567 -45.51998268818992 $610 45.51998268818992 $507 $617 forward 7 unknown #
vertex $-1 $566 $618 #
straight-curve $-1 78.944059572130499 45.51998268818992 0 0 0 -1 I I #
face $-1 $619 $536 $15 $-1 $571 reversed single #
loop $-1 $-1 $620 $511 #
plane-surface $-1 0 -45.51998268818992 0 0 1 0 0 0 1 forward_v I I I I #
coedge $-1 $621 $580 $593 $622 forward $512 $-1 #
coedge $-1 $623 $514 $621 $624 forward $447 $-1 #
coedge $-1 $514 $623 $620 $625 reversed $447 $-1 #
coedge $-1 $626 $582 $514 $576 reversed $584 $-1 #
edge $-1 $627 -7.7935277065294031 $628 7.7935277065294031 $575 $629 forward 7 unknown #
coedge $-1 $516 $515 $528 $594 forward $369 $-1 #
coedge $-1 $535 $529 $515 $579 forward $536 $-1 #
edge $-1 $595 -78.944059572130499 $586 78.944059572130499 $578 $630 forward 7 unknown #
coedge $-1 $572 $631 $516 $581 reversed $512 $-1 #
edge $-1 $632 -78.944059572130499 $585 78.944059572130499 $580 $633 forward 7 unknown #
coedge $-1 $575 $517 $631 $634 forward $584 $-1 #
coedge $-1 $517 $533 $535 $603 forward $584 $-1 #
loop $-1 $-1 $583 $597 #
vertex $-1 $518 $635 #
vertex $-1 $518 $636 #
straight-curve $-1 78.944059572130499 -53.313510394719323 12.077468094298357 0 1 0 I I #
coedge $-1 $637 $638 $519 $589 reversed $598 $-1 #
edge $-1 $601 -78.944059572130499 $591 78.944059572130499 $588 $639 forward 7 unknown #
coedge $-1 $640 $520 $638 $641 forward $382 $-1 #
vertex $-1 $589 $642 #
point $-1 -78.944059572130499 -15.061793578603396 11.002635739996546 #
coedge $-1 $528 $643 $572 $622 reversed $382 $-1 #
edge $-1 $595 -7.7935277065294031 $632 7.7935277065294031 $528 $644 forward 7 unknown #
vertex $-1 $530 $645 #
straight-curve $-1 -78.944059572130499 -45.51998268818992 0 0 0 -1 I I #
face $-1 $-1 $584 $15 $-1 $646 reversed single #
loop $-1 $-1 $637 $531 #
plane-surface $-1 0 45.51998268818992 0 0 -1 0 0 0 -1 forward_v I I I I #
coedge $-1 $533 $647 $637 $648 reversed $584 $-1 #
vertex $-1 $534 $649 #
straight-curve $-1 78.944059572130499 0 21.620151084209713 0 1 0 I I #
edge $-1 $537 -21.620151084209713 $586 -12.077468094298357 $583 $650 forward 7 unknown #
point $-1 78.944059572130499 -45.51998268818992 21.620151084209713 #
coedge $-1 $547 $546 $613 $651 reversed $412 $-1 #
edge $-1 $552 -3.6224694669208084 $614 21.620151084209713 $560 $437 forward 7 unknown #
point $-1 -78.944059572130499 -61.107038101248726 3.6224694669208084 #
straight-curve $-1 -78.944059572130499 -53.313510394719323 3.6224694669208084 0 1 0 I I #
point $-1 -78.944059572130499 -45.51998268818992 3.6224694669208084 #
vertex $-1 $554 $652 #
coedge $-1 $565 $561 $559 $612 forward $544 $-1 #
edge $-1 $563 -78.944059572130499 $567 78.944059572130499 $559 $653 forward 7 unknown #
coedge $-1 $561 $565 $605 $651 forward $544 $-1 #
vertex $-1 $562 $654 #
straight-curve $-1 -78.944059572130499 0 -21.620151084209713 0 1 0 I I #
point $-1 -78.944059572130499 45.51998268818992 -21.620151084209713 #
straight-curve $-1 78.944059572130499 0 -21.620151084209713 0 -1 0 I I #
point $-1 78.944059572130499 45.51998268818992 -21.620151084209713 #
face $-1 $461 $655 $15 $-1 $656 reversed single #
coedge $-1 $657 $658 $574 $625 forward $570 $-1 #
coedge $-1 $631 $572 $573 $624 reversed $512 $-1 #
edge $-1 $632 -4.2274993136887744 $659 4.2274993136887744 $593 $660 forward 7 unknown #
coedge $-1 $574 $573 $643 $661 forward $447 $-1 #
edge $-1 $628 -78.944059572130499 $659 78.944059572130499 $621 $662 forward 7 unknown #
edge $-1 $627 -78.944059572130499 $663 78.944059572130499 $620 $664 forward 7 unknown #
coedge $-1 $647 $575 $658 $665 forward $584 $-1 #
vertex $-1 $665 $666 #
vertex $-1 $634 $667 #
straight-curve $-1 78.944059572130499 -53.313510394719323 3.6224694669208084 0 -1 0 I I #
straight-curve $-1 0 -45.51998268818992 12.077468094298357 1 0 0 I I #
coedge $-1 $580 $621 $582 $634 reversed $512 $-1 #
vertex $-1 $594 $668 #
straight-curve $-1 0 -61.107038101248726 12.077468094298357 1 0 0 I I #
edge $-1 $585 -4.2274993136887744 $628 4.2274993136887744 $582 $669 forward 7 unknown #
point $-1 78.944059572130499 -61.107038101248726 12.077468094298357 #
point $-1 78.944059572130499 -45.51998268818992 12.077468094298357 #
coedge $-1 $670 $588 $600 $648 forward $598 $-1 #
coedge $-1 $588 $670 $590 $641 reversed $598 $-1 #
straight-curve $-1 0 45.51998268818992 21.620151084209713 -1 0 0 I I #
coedge $-1 $671 $590 $672 $673 reversed $382 $-1 #
edge $-1 $591 -21.620151084209713 $674 21.620151084209713 $638 $675 forward 7 unknown #
point $-1 -78.944059572130499 45.51998268818992 21.620151084209713 #
coedge $-1 $593 $671 $623 $661 reversed $382 $-1 #
straight-curve $-1 -78.944059572130499 -53.313510394719323 12.077468094298357 0 -1 0 I I #
point $-1 -78.944059572130499 -45.51998268818992 12.077468094298357 #
plane-surface $-1 78.944059572130499 0 0 -1 0 0 0 0 1 forward_v I I I I #
coedge $-1 $600 $626 $676 $677 reversed $584 $-1 #
edge $-1 $601 -21.620151084209713 $678 21.620151084209713 $600 $679 forward 7 unknown #
point $-1 78.944059572130499 45.51998268818992 21.620151084209713 #
straight-curve $-1 78.944059572130499 -45.51998268818992 0 0 0 -1 I I #
edge $-1 $610 -78.944059572130499 $614 78.944059572130499 $605 $680 forward 7 unknown #
point $-1 78.944059572130499 -45.51998268818992 -21.620151084209713 #
straight-curve $-1 0 45.51998268818992 -21.620151084209713 1 0 0 I I #
point $-1 -78.944059572130499 -45.51998268818992 -21.620151084209713 #
loop $-1 $-1 $676 $619 #
plane-surface $-1 0 0 -21.620151084209713 0 0 1 1 0 0 forward_v I I I I #
coedge $-1 $681 $620 $671 $682 forward $570 $-1 #
coedge $-1 $620 $681 $626 $665 reversed $570 $-1 #
vertex $-1 $661 $683 #
straight-curve $-1 -78.944059572130499 -61.107038101248726 7.8499687806095828 0 0 -1 I I #
edge $-1 $659 -7.7935277065294031 $663 7.7935277065294031 $643 $684 forward 7 unknown #
straight-curve $-1 0 -61.107038101248726 3.6224694669208084 -1 0 0 I I #
vertex $-1 $682 $685 #
straight-curve $-1 0 -45.51998268818992 3.6224694669208084 -1 0 0 I I #
edge $-1 $627 -3.6224694669208084 $686 21.620151084209713 $626 $650 forward 7 unknown #
point $-1 78.944059572130499 -45.51998268818992 3.6224694669208084 #
point $-1 78.944059572130499 -61.107038101248726 3.6224694669208084 #
point $-1 -78.944059572130499 -61.107038101248726 12.077468094298357 #
straight-curve $-1 78.944059572130499 -61.107038101248726 7.8499687806095828 0 0 -1 I I #
coedge $-1 $638 $637 $687 $688 reversed $598 $-1 #
coedge $-1 $643 $640 $657 $682 reversed $382 $-1 #
coedge $-1 $687 $689 $640 $673 forward $655 $-1 #
edge $-1 $690 -45.51998268818992 $674 45.51998268818992 $640 $691 forward 7 unknown #
vertex $-1 $688 $692 #
straight-curve $-1 -78.944059572130499 45.51998268818992 0 0 0 -1 I I #
coedge $-1 $689 $687 $647 $677 forward $655 $-1 #
edge $-1 $678 -45.51998268818992 $686 45.51998268818992 $647 $693 forward 7 unknown #
vertex $-1 $677 $694 #
straight-curve $-1 78.944059572130499 45.51998268818992 0 0 0 -1 I I #
straight-curve $-1 0 -45.51998268818992 -21.620151084209713 -1 0 0 I I #
coedge $-1 $658 $657 $689 $695 reversed $570 $-1 #
edge $-1 $663 -3.6224694669208084 $690 21.620151084209713 $671 $596 forward 7 unknown #
point $-1 -78.944059572130499 -61.107038101248726 3.6224694669208084 #
straight-curve $-1 -78.944059572130499 -53.313510394719323 3.6224694669208084 0 1 0 I I #
point $-1 -78.944059572130499 -45.51998268818992 3.6224694669208084 #
vertex $-1 $665 $696 #
coedge $-1 $676 $672 $670 $688 forward $655 $-1 #
edge $-1 $674 -78.944059572130499 $678 78.944059572130499 $670 $697 forward 7 unknown #
coedge $-1 $672 $676 $681 $695 forward $655 $-1 #
vertex $-1 $673 $698 #
straight-curve $-1 -78.944059572130499 0 -21.620151084209713 0 1 0 I I #
point $-1 -78.944059572130499 45.51998268818992 -21.620151084209713 #
straight-curve $-1 78.944059572130499 0 -21.620151084209713 0 -1 0 I I #
point $-1 78.944059572130499 45.51998268818992 -21.620151084209713 #
edge $-1 $686 -78.944059572130499 $690 78.944059572130499 $681 $699 forward 7 unknown #
point $-1 78.944059572130499 -45.51998268818992 -21.620151084209713 #
straight-curve $-1 0 45.51998268818992 -21.620151084209713 1 0 0 I I #
point $-1 -78.944059572130499 -45.51998268818992 -21.620151084209713 #
straight-curve $-1 0 -45.51998268818992 -21.620151084209713 -1 0 0 I I #
End-of-ACIS-data 