500 0 11 0           
7 Unknown 11 ACIS 5.0 NT 24 Fri Mar 26 01:58:14 1999 
-1 9.9999999999999995e-007 1e-010 
body $-1 $11 $-1 $12 #
body $-1 $13 $-1 $14 #
body $-1 $15 $-1 $16 #
body $-1 $17 $-1 $18 #
body $-1 $19 $-1 $20 #
body $-1 $21 $-1 $22 #
body $-1 $23 $-1 $24 #
body $-1 $25 $-1 $26 #
body $-1 $27 $-1 $28 #
body $-1 $29 $-1 $30 #
body $-1 $31 $-1 $32 #
lump $-1 $-1 $33 $0 #
transform $-1 1 0 0 0 1 0 0 0 1 43.029877620777 28.204287655643661 10.759152025185371 1 rotate no_reflect no_shear #
lump $-1 $-1 $34 $1 #
transform $-1 1 0 0 0 1 0 0 0 1 43.029877620777 28.204287655643661 10.759152025185371 1 rotate no_reflect no_shear #
lump $-1 $-1 $35 $2 #
transform $-1 1 0 0 0 1 0 0 0 1 43.029877620777 28.204287655643661 10.759152025185371 1 rotate no_reflect no_shear #
lump $-1 $-1 $36 $3 #
transform $-1 1 0 0 0 1 0 0 0 1 43.029877620777 28.204287655643661 10.759152025185371 1 rotate no_reflect no_shear #
lump $-1 $-1 $37 $4 #
transform $-1 1 0 0 0 1 0 0 0 1 43.029877620777 28.204287655643661 10.759152025185371 1 rotate no_reflect no_shear #
lump $-1 $-1 $38 $5 #
transform $-1 1 0 0 0 1 0 0 0 1 43.029877620777 28.204287655643661 10.759152025185371 1 rotate no_reflect no_shear #
lump $-1 $-1 $39 $6 #
transform $-1 1 0 0 0 1 0 0 0 1 43.029877620777 28.204287655643661 10.759152025185371 1 rotate no_reflect no_shear #
lump $-1 $-1 $40 $7 #
transform $-1 1 0 0 0 1 0 0 0 1 43.029877620777 28.204287655643661 10.759152025185371 1 rotate no_reflect no_shear #
lump $-1 $-1 $41 $8 #
transform $-1 1 0 0 0 1 0 0 0 1 43.029877620777 28.204287655643661 10.759152025185371 1 rotate no_reflect no_shear #
lump $-1 $-1 $42 $9 #
transform $-1 1 0 0 0 1 0 0 0 1 43.029877620777 28.204287655643661 10.759152025185371 1 rotate no_reflect no_shear #
lump $-1 $-1 $43 $10 #
transform $-1 1 0 0 0 1 0 0 0 1 43.029877620777 28.204287655643661 10.759152025185371 1 rotate no_reflect no_shear #
shell $-1 $-1 $-1 $44 $-1 $11 #
shell $-1 $-1 $-1 $45 $-1 $13 #
shell $-1 $-1 $-1 $46 $-1 $15 #
shell $-1 $-1 $-1 $47 $-1 $17 #
shell $-1 $-1 $-1 $48 $-1 $19 #
shell $-1 $-1 $-1 $49 $-1 $21 #
shell $-1 $-1 $-1 $50 $-1 $23 #
shell $-1 $-1 $-1 $51 $-1 $25 #
shell $-1 $-1 $-1 $52 $-1 $27 #
shell $-1 $-1 $-1 $53 $-1 $29 #
shell $-1 $-1 $-1 $54 $-1 $31 #
face $-1 $55 $56 $33 $-1 $57 forward single #
face $-1 $58 $59 $34 $-1 $60 forward single #
face $-1 $61 $62 $35 $-1 $63 reversed single #
face $-1 $64 $65 $36 $-1 $66 forward single #
face $-1 $67 $68 $37 $-1 $69 forward single #
face $-1 $70 $71 $38 $-1 $72 reversed single #
face $-1 $73 $74 $39 $-1 $75 forward single #
face $-1 $76 $77 $40 $-1 $78 forward single #
face $-1 $79 $80 $41 $-1 $81 reversed single #
face $-1 $82 $83 $42 $-1 $84 forward single #
face $-1 $85 $86 $43 $-1 $87 forward single #
face $-1 $88 $89 $33 $-1 $90 reversed single #
loop $-1 $-1 $91 $44 #
plane-surface $-1 0 0 10.759152025185371 0 0 1 1 0 0 forward_v I I I I #
face $-1 $92 $93 $34 $-1 $94 reversed single #
loop $-1 $-1 $95 $45 #
plane-surface $-1 0 -23.213925207095699 -3.9698143178049019 0 0 1 1 0 0 forward_v I I I I #
face $-1 $96 $97 $35 $-1 $98 reversed single #
loop $-1 $-1 $99 $46 #
plane-surface $-1 40.905801186842183 -8.0008162061070749 125.19791603596805 0 1 0 0.69465837861970381 0 0.71933979245794832 forward_v I I I I #
face $-1 $100 $101 $36 $-1 $102 forward single #
loop $-1 $103 $104 $47 #
cone-surface $-1 38.720402178559674 -4.9198014257123397 6.5587150207335663 -0.69465837861970381 0 -0.71933979245794832 0.35966989622897416 0 -0.3473291893098519 1 I I 0 1 0.5 forward I I I I #
face $-1 $105 $106 $37 $-1 $107 forward single #
loop $-1 $108 $109 $48 #
cone-surface $-1 38.720402178559674 -0.29827925512023512 6.5587150207335663 -0.69465837861970381 0 -0.71933979245794832 0.35966989622897416 0 -0.3473291893098519 1 I I 0 1 0.5 forward I I I I #
face $-1 $110 $111 $38 $-1 $112 reversed single #
loop $-1 $-1 $113 $49 #
plane-surface $-1 40.905801186842183 7.1979893718214072 125.19791603596805 0 1 0 0.69465837861970381 0 0.71933979245794832 forward_v I I I I #
face $-1 $114 $115 $39 $-1 $116 forward single #
loop $-1 $117 $118 $50 #
cone-surface $-1 38.720402178559674 10.279004152216146 6.5587150207335663 -0.69465837861970381 0 -0.71933979245794832 0.35966989622897416 0 -0.3473291893098519 1 I I 0 1 0.5 forward I I I I #
face $-1 $119 $120 $40 $-1 $121 forward single #
loop $-1 $122 $123 $51 #
cone-surface $-1 38.720402178559674 14.900526322808247 6.5587150207335663 -0.69465837861970381 0 -0.71933979245794832 0.35966989622897416 0 -0.3473291893098519 1 I I 0 1 0.5 forward I I I I #
face $-1 $124 $125 $41 $-1 $126 reversed single #
loop $-1 $-1 $127 $52 #
plane-surface $-1 -116.01268989105611 -18.22356275854774 51.730205402436191 0 1 0 -0.84804810408105047 0 0.52991925155115449 forward_v I I I I #
face $-1 $128 $129 $42 $-1 $130 forward single #
loop $-1 $131 $132 $53 #
cone-surface $-1 -41.158135147759538 -15.278798707113955 8.1773585448952826 0.84804810408105047 0 -0.52991925155115449 0.26495962577557725 0 0.42402405204052523 1 I I 0 1 0.5 forward I I I I #
face $-1 $133 $134 $43 $-1 $135 forward single #
loop $-1 $136 $137 $54 #
cone-surface $-1 -41.158135147759538 -10.861652629963281 8.1773585448952826 0.84804810408105047 0 -0.52991925155115449 0.26495962577557725 0 0.42402405204052523 1 I I 0 1 0.5 forward I I I I #
face $-1 $138 $139 $33 $-1 $140 reversed single #
loop $-1 $-1 $141 $55 #
plane-surface $-1 0 0 -10.759152025185371 0 0 1 1 0 0 forward_v I I I I #
coedge $-1 $142 $143 $144 $145 forward $56 $-1 #
face $-1 $146 $147 $34 $-1 $148 reversed single #
loop $-1 $-1 $149 $58 #
plane-surface $-1 0 -23.213925207095699 -6.9698143178049019 0 0 1 1 0 0 forward_v I I I I #
coedge $-1 $150 $151 $152 $153 reversed $59 $-1 #
face $-1 $154 $155 $35 $-1 $156 reversed single #
loop $-1 $-1 $157 $61 #
plane-surface $-1 -18.876328853664276 -2.6090403404162856 63.291709561526766 0.69465837861970381 0 0.71933979245794832 0.71933979245794832 0 -0.69465837861970381 forward_v I I I I #
coedge $-1 $158 $159 $160 $161 reversed $62 $-1 #
face $-1 $-1 $162 $36 $-1 $163 forward single #
loop $-1 $164 $165 $64 #
cone-surface $-1 37.990838101511756 -4.9198014257123397 5.8032293202498 -0.69465837861970381 0 -0.71933979245794832 0.17983494811448708 0 -0.17366459465492595 1 I I -0.70710678118654879 0.70710678118654635 0.25 forward I I I I #
loop $-1 $-1 $166 $47 #
coedge $-1 $104 $104 $167 $168 reversed $65 $-1 #
face $-1 $-1 $169 $37 $-1 $170 forward single #
loop $-1 $171 $172 $67 #
cone-surface $-1 37.990838101511756 -0.29827925512023512 5.8032293202498 -0.69465837861970381 0 -0.71933979245794832 0.17983494811448708 0 -0.17366459465492595 1 I I -0.70710678118654879 0.70710678118654635 0.25 forward I I I I #
loop $-1 $-1 $173 $48 #
coedge $-1 $109 $109 $174 $175 reversed $68 $-1 #
face $-1 $176 $177 $38 $-1 $178 reversed single #
loop $-1 $-1 $179 $70 #
plane-surface $-1 -18.876328853664276 12.589765237512196 63.291709561526766 0.69465837861970381 0 0.71933979245794832 0.71933979245794832 0 -0.69465837861970381 forward_v I I I I #
coedge $-1 $180 $181 $182 $183 reversed $71 $-1 #
face $-1 $-1 $184 $39 $-1 $185 forward single #
loop $-1 $186 $187 $73 #
cone-surface $-1 37.990838101511756 10.279004152216146 5.8032293202498 -0.69465837861970381 0 -0.71933979245794832 0.17983494811448708 0 -0.17366459465492595 1 I I -0.70710678118654879 0.70710678118654635 0.25 forward I I I I #
loop $-1 $-1 $188 $50 #
coedge $-1 $118 $118 $189 $190 reversed $74 $-1 #
face $-1 $-1 $191 $40 $-1 $192 forward single #
loop $-1 $193 $194 $76 #
cone-surface $-1 37.990838101511756 14.900526322808247 5.8032293202498 -0.69465837861970381 0 -0.71933979245794832 0.17983494811448708 0 -0.17366459465492595 1 I I -0.70710678118654879 0.70710678118654635 0.25 forward I I I I #
loop $-1 $-1 $195 $51 #
coedge $-1 $123 $123 $196 $197 reversed $77 $-1 #
face $-1 $198 $199 $41 $-1 $200 reversed single #
loop $-1 $-1 $201 $79 #
plane-surface $-1 -43.029877620777 -13.070225668538617 6.1254843161563528 -0.84804810408105047 0 0.52991925155115449 0.52991925155115449 0 0.84804810408105047 forward_v I I I I #
coedge $-1 $202 $203 $204 $205 reversed $80 $-1 #
face $-1 $-1 $206 $42 $-1 $207 forward single #
loop $-1 $208 $209 $82 #
cone-surface $-1 -40.522099069698747 -15.278798707113955 7.7799191062319171 0.84804810408105047 0 -0.52991925155115449 0.13247981288778862 0 0.21201202602026262 1 I I -0.70710678118654746 0.70710678118654746 0.25 forward I I I I #
loop $-1 $-1 $210 $53 #
coedge $-1 $132 $132 $211 $212 reversed $83 $-1 #
face $-1 $-1 $213 $43 $-1 $214 forward single #
loop $-1 $215 $216 $85 #
cone-surface $-1 -40.522099069698747 -10.861652629963281 7.7799191062319171 0.84804810408105047 0 -0.52991925155115449 0.13247981288778862 0 0.21201202602026262 1 I I -0.70710678118654746 0.70710678118654746 0.25 forward I I I I #
loop $-1 $-1 $217 $54 #
coedge $-1 $137 $137 $218 $219 reversed $86 $-1 #
face $-1 $220 $221 $33 $-1 $222 reversed single #
loop $-1 $-1 $223 $88 #
plane-surface $-1 0 -28.204287655643661 0 0 1 0 0 0 1 forward_v I I I I #
coedge $-1 $224 $225 $226 $227 forward $89 $-1 #
coedge $-1 $228 $91 $229 $230 forward $56 $-1 #
coedge $-1 $91 $228 $231 $232 forward $56 $-1 #
coedge $-1 $233 $234 $91 $145 reversed $235 $-1 #
edge $-1 $236 -28.204287655643661 $237 28.204287655643661 $144 $238 forward 7 unknown #
face $-1 $239 $240 $34 $-1 $241 reversed single #
loop $-1 $-1 $242 $92 #
plane-surface $-1 0 -18.223562758547736 -5.4698143178049019 0 -1 0 0 0 -1 forward_v I I I I #
coedge $-1 $243 $244 $245 $246 reversed $93 $-1 #
coedge $-1 $247 $95 $248 $249 forward $59 $-1 #
coedge $-1 $95 $247 $250 $251 reversed $59 $-1 #
coedge $-1 $252 $253 $95 $153 forward $254 $-1 #
edge $-1 $255 6.6166001549998867 $256 16.597325052095812 $152 $257 forward 7 unknown #
face $-1 $258 $259 $35 $-1 $260 forward single #
loop $-1 $-1 $261 $96 #
plane-surface $-1 40.905801186842183 2.7827355252745036 125.19791603596805 0 -1 0 -0.69465837861970381 0 -0.71933979245794832 forward_v I I I I #
coedge $-1 $262 $263 $264 $265 reversed $97 $-1 #
coedge $-1 $159 $99 $266 $267 reversed $62 $-1 #
coedge $-1 $99 $158 $262 $268 reversed $62 $-1 #
coedge $-1 $264 $269 $99 $161 forward $270 $-1 #
edge $-1 $271 51.839805992798652 $272 59.089378496963711 $160 $273 forward 7 unknown #
loop $-1 $-1 $167 $100 #
plane-surface $-1 -18.876328853664276 -2.6090403404162856 63.291709561526766 0.69465837861970381 0 0.71933979245794832 0.71933979245794832 0 -0.69465837861970381 forward_v I I I I #
loop $-1 $-1 $274 $64 #
coedge $-1 $165 $165 $166 $275 reversed $101 $-1 #
coedge $-1 $166 $166 $165 $275 forward $103 $-1 #
coedge $-1 $167 $167 $104 $168 forward $162 $-1 #
edge $-1 $276 0 $276 6.2831853071796004 $167 $277 forward 7 unknown #
loop $-1 $-1 $174 $105 #
plane-surface $-1 -18.876328853664276 -2.6090403404162856 63.291709561526766 0.69465837861970381 0 0.71933979245794832 0.71933979245794832 0 -0.69465837861970381 forward_v I I I I #
loop $-1 $-1 $278 $67 #
coedge $-1 $172 $172 $173 $279 reversed $106 $-1 #
coedge $-1 $173 $173 $172 $279 forward $108 $-1 #
coedge $-1 $174 $174 $109 $175 forward $169 $-1 #
edge $-1 $280 0 $280 6.2831853071796004 $174 $281 forward 7 unknown #
face $-1 $282 $283 $38 $-1 $284 reversed single #
loop $-1 $-1 $285 $110 #
plane-surface $-1 40.905801186842183 17.981541103202986 125.19791603596805 0 -1 0 -0.69465837861970381 0 -0.71933979245794832 forward_v I I I I #
coedge $-1 $286 $287 $288 $289 reversed $111 $-1 #
coedge $-1 $181 $113 $290 $291 reversed $71 $-1 #
coedge $-1 $113 $180 $286 $292 reversed $71 $-1 #
coedge $-1 $288 $293 $113 $183 forward $283 $-1 #
edge $-1 $294 51.839805992798652 $295 59.089378496963711 $182 $296 forward 7 unknown #
loop $-1 $-1 $189 $114 #
plane-surface $-1 -18.876328853664276 12.589765237512196 63.291709561526766 0.69465837861970381 0 0.71933979245794832 0.71933979245794832 0 -0.69465837861970381 forward_v I I I I #
loop $-1 $-1 $297 $73 #
coedge $-1 $187 $187 $188 $298 reversed $115 $-1 #
coedge $-1 $188 $188 $187 $298 forward $117 $-1 #
coedge $-1 $189 $189 $118 $190 forward $184 $-1 #
edge $-1 $299 0 $299 6.2831853071796004 $189 $300 forward 7 unknown #
loop $-1 $-1 $196 $119 #
plane-surface $-1 -18.876328853664276 12.589765237512196 63.291709561526766 0.69465837861970381 0 0.71933979245794832 0.71933979245794832 0 -0.69465837861970381 forward_v I I I I #
loop $-1 $-1 $301 $76 #
coedge $-1 $194 $194 $195 $302 reversed $120 $-1 #
coedge $-1 $195 $195 $194 $302 forward $122 $-1 #
coedge $-1 $196 $196 $123 $197 forward $191 $-1 #
edge $-1 $303 0 $303 6.2831853071796004 $196 $304 forward 7 unknown #
face $-1 $305 $306 $41 $-1 $307 reversed single #
loop $-1 $-1 $308 $124 #
plane-surface $-1 -116.01268989105611 -7.9168885785294947 51.730205402436191 0 -1 0 0.84804810408105047 0 -0.52991925155115449 forward_v I I I I #
coedge $-1 $309 $310 $311 $312 reversed $125 $-1 #
coedge $-1 $203 $127 $313 $314 reversed $80 $-1 #
coedge $-1 $127 $202 $309 $315 reversed $80 $-1 #
coedge $-1 $311 $316 $127 $205 forward $317 $-1 #
edge $-1 $318 14.976467324751056 $319 17.87190416670493 $204 $320 forward 7 unknown #
loop $-1 $-1 $211 $128 #
plane-surface $-1 -43.029877620777 -13.070225668538617 6.1254843161563528 -0.84804810408105047 0 0.52991925155115449 0.52991925155115449 0 0.84804810408105047 forward_v I I I I #
loop $-1 $-1 $321 $82 #
coedge $-1 $209 $209 $210 $322 reversed $129 $-1 #
coedge $-1 $210 $210 $209 $322 forward $131 $-1 #
coedge $-1 $211 $211 $132 $212 forward $206 $-1 #
edge $-1 $323 0 $323 6.2831853071796004 $211 $324 forward 7 unknown #
loop $-1 $-1 $218 $133 #
plane-surface $-1 -43.029877620777 -13.070225668538617 6.1254843161563528 -0.84804810408105047 0 0.52991925155115449 0.52991925155115449 0 0.84804810408105047 forward_v I I I I #
loop $-1 $-1 $325 $85 #
coedge $-1 $216 $216 $217 $326 reversed $134 $-1 #
coedge $-1 $217 $217 $216 $326 forward $136 $-1 #
coedge $-1 $218 $218 $137 $219 forward $213 $-1 #
edge $-1 $327 0 $327 6.2831853071796004 $218 $328 forward 7 unknown #
face $-1 $329 $330 $33 $-1 $331 reversed single #
loop $-1 $-1 $332 $138 #
plane-surface $-1 -43.029877620777 0 0 1 0 0 0 0 -1 forward_v I I I I #
coedge $-1 $333 $231 $334 $335 forward $139 $-1 #
coedge $-1 $336 $141 $333 $337 forward $89 $-1 #
coedge $-1 $141 $336 $338 $339 forward $89 $-1 #
coedge $-1 $234 $233 $141 $227 reversed $235 $-1 #
edge $-1 $340 -28.204287655643661 $341 28.204287655643661 $226 $342 forward 7 unknown #
coedge $-1 $143 $142 $343 $344 forward $56 $-1 #
coedge $-1 $345 $346 $142 $230 reversed $330 $-1 #
edge $-1 $237 -43.029877620777 $347 43.029877620777 $229 $348 forward 7 unknown #
coedge $-1 $223 $349 $143 $232 reversed $139 $-1 #
edge $-1 $350 -43.029877620777 $236 43.029877620777 $231 $351 forward 7 unknown #
coedge $-1 $226 $144 $349 $352 forward $235 $-1 #
coedge $-1 $144 $226 $345 $353 reversed $235 $-1 #
loop $-1 $-1 $233 $329 #
vertex $-1 $145 $354 #
vertex $-1 $145 $355 #
straight-curve $-1 43.029877620777 0 10.759152025185371 0 1 0 I I #
face $-1 $356 $357 $34 $-1 $358 reversed single #
loop $-1 $-1 $359 $146 #
plane-surface $-1 -43.029877620777 0 0 1 0 0 0 0 -1 forward_v I I I I #
coedge $-1 $360 $248 $253 $361 reversed $147 $-1 #
coedge $-1 $362 $149 $363 $364 reversed $93 $-1 #
coedge $-1 $149 $362 $360 $365 forward $93 $-1 #
coedge $-1 $253 $252 $149 $246 forward $254 $-1 #
edge $-1 $366 -16.597325052095812 $367 -6.6166001549998867 $245 $368 forward 7 unknown #
coedge $-1 $151 $150 $359 $369 reversed $59 $-1 #
coedge $-1 $242 $370 $150 $249 reversed $147 $-1 #
edge $-1 $255 -43.029877620777 $371 43.029877620777 $248 $372 forward 7 unknown #
coedge $-1 $373 $374 $151 $251 forward $357 $-1 #
edge $-1 $256 -43.029877620777 $375 43.029877620777 $250 $376 forward 7 unknown #
coedge $-1 $245 $152 $374 $377 forward $254 $-1 #
coedge $-1 $152 $245 $242 $361 forward $254 $-1 #
loop $-1 $-1 $152 $356 #
vertex $-1 $153 $378 #
vertex $-1 $377 $379 #
straight-curve $-1 43.029877620777 -11.606962603547849 -3.9698143178049019 0 -1 0 I I #
face $-1 $-1 $270 $35 $-1 $380 reversed single #
loop $-1 $-1 $381 $154 #
plane-surface $-1 0 0 10.759152025185371 0 0 1 1 0 0 forward_v I I I I #
coedge $-1 $382 $383 $384 $385 reversed $155 $-1 #
coedge $-1 $386 $157 $159 $268 forward $97 $-1 #
coedge $-1 $157 $386 $382 $387 forward $97 $-1 #
coedge $-1 $384 $160 $157 $265 forward $270 $-1 #
edge $-1 $272 -6.6962960358989321 $388 4.0872556954826464 $264 $389 forward 7 unknown #
coedge $-1 $390 $391 $158 $267 forward $259 $-1 #
edge $-1 $392 15.069825107707238 $271 22.576977027355909 $266 $393 forward 7 unknown #
edge $-1 $272 -86.059755241553987 $392 -75.623585856294341 $159 $394 forward 7 unknown #
coedge $-1 $160 $384 $390 $395 reversed $270 $-1 #
loop $-1 $-1 $384 $258 #
vertex $-1 $395 $396 #
vertex $-1 $161 $397 #
straight-curve $-1 43.029877620777 -8.0008162061070749 62.598958017984025 0 0 -1 I I #
coedge $-1 $274 $274 $-1 $398 reversed $164 $-1 #
edge $-1 $399 0 $399 6.2831853071796004 $165 $400 forward 7 unknown #
vertex $-1 $168 $401 #
ellipse-curve $-1 39.276301660952669 -4.9198014257123397 7.1343657731028456 0.69465837861970381 0 0.71933979245794832 0.35966989622897416 0 -0.3473291893098519 1 I I #
coedge $-1 $278 $278 $-1 $402 reversed $171 $-1 #
edge $-1 $403 0 $403 6.2831853071796004 $172 $404 forward 7 unknown #
vertex $-1 $175 $405 #
ellipse-curve $-1 39.276301660952669 -0.29827925512023512 7.1343657731028456 0.69465837861970381 0 0.71933979245794832 0.35966989622897416 0 -0.3473291893098519 1 I I #
face $-1 $-1 $406 $38 $-1 $407 forward single #
loop $-1 $-1 $182 $176 #
plane-surface $-1 43.029877620777 0 0 -1 0 0 0 0 1 forward_v I I I I #
coedge $-1 $408 $409 $410 $411 reversed $177 $-1 #
coedge $-1 $412 $179 $181 $292 forward $111 $-1 #
coedge $-1 $179 $412 $408 $413 forward $111 $-1 #
coedge $-1 $410 $182 $179 $289 forward $283 $-1 #
edge $-1 $295 0.90310675306530896 $414 11.686658484446887 $288 $415 forward 7 unknown #
coedge $-1 $416 $417 $180 $291 forward $406 $-1 #
edge $-1 $418 15.069825107707238 $294 22.576977027355909 $290 $419 forward 7 unknown #
edge $-1 $295 -86.059755241553987 $418 -75.623585856294341 $181 $420 forward 7 unknown #
coedge $-1 $182 $410 $416 $421 reversed $283 $-1 #
vertex $-1 $421 $422 #
vertex $-1 $183 $423 #
straight-curve $-1 43.029877620777 7.1979893718214072 62.598958017984025 0 0 -1 I I #
coedge $-1 $297 $297 $-1 $424 reversed $186 $-1 #
edge $-1 $425 0 $425 6.2831853071796004 $187 $426 forward 7 unknown #
vertex $-1 $190 $427 #
ellipse-curve $-1 39.276301660952669 10.279004152216146 7.1343657731028456 0.69465837861970381 0 0.71933979245794832 0.35966989622897416 0 -0.3473291893098519 1 I I #
coedge $-1 $301 $301 $-1 $428 reversed $193 $-1 #
edge $-1 $429 0 $429 6.2831853071796004 $194 $430 forward 7 unknown #
vertex $-1 $197 $431 #
ellipse-curve $-1 39.276301660952669 14.900526322808247 7.1343657731028456 0.69465837861970381 0 0.71933979245794832 0.35966989622897416 0 -0.3473291893098519 1 I I #
face $-1 $-1 $317 $41 $-1 $432 forward single #
loop $-1 $-1 $433 $198 #
plane-surface $-1 -43.029877620777 0 0 1 0 0 0 0 -1 forward_v I I I I #
coedge $-1 $434 $435 $436 $437 reversed $199 $-1 #
coedge $-1 $438 $201 $203 $315 forward $125 $-1 #
coedge $-1 $201 $438 $434 $439 forward $125 $-1 #
coedge $-1 $436 $204 $201 $312 forward $317 $-1 #
edge $-1 $319 -11.68844992427843 $440 -1.3817757442601861 $311 $441 forward 7 unknown #
coedge $-1 $442 $443 $202 $314 forward $306 $-1 #
edge $-1 $444 -19.739618385061743 $318 -15.105950676032725 $313 $445 forward 7 unknown #
edge $-1 $319 -5.4639208397854784 $444 0 $203 $446 forward 7 unknown #
coedge $-1 $204 $436 $442 $447 forward $317 $-1 #
loop $-1 $-1 $436 $305 #
vertex $-1 $314 $448 #
vertex $-1 $205 $449 #
straight-curve $-1 -58.006344945528056 -18.22356275854774 10.759152025185369 1 0 0 I I #
coedge $-1 $321 $321 $-1 $450 reversed $208 $-1 #
edge $-1 $451 0 $451 6.2831853071796004 $209 $452 forward 7 unknown #
vertex $-1 $212 $453 #
ellipse-curve $-1 -41.58215919980006 -15.278798707113955 8.442318170670859 -0.84804810408105047 0 0.52991925155115449 0.26495962577557725 0 0.42402405204052523 1 I I #
coedge $-1 $325 $325 $-1 $454 reversed $215 $-1 #
edge $-1 $455 0 $455 6.2831853071796004 $216 $456 forward 7 unknown #
vertex $-1 $219 $457 #
ellipse-curve $-1 -41.58215919980006 -10.861652629963281 8.442318170670859 -0.84804810408105047 0 0.52991925155115449 0.26495962577557725 0 0.42402405204052523 1 I I #
face $-1 $-1 $235 $33 $-1 $458 reversed single #
loop $-1 $-1 $345 $220 #
plane-surface $-1 0 28.204287655643661 0 0 -1 0 0 0 -1 forward_v I I I I #
coedge $-1 $459 $343 $346 $460 forward $221 $-1 #
coedge $-1 $349 $223 $224 $337 reversed $139 $-1 #
coedge $-1 $343 $459 $223 $335 reversed $221 $-1 #
edge $-1 $350 -10.759152025185371 $461 10.759152025185371 $334 $462 forward 7 unknown #
coedge $-1 $225 $224 $459 $463 forward $89 $-1 #
edge $-1 $341 -43.029877620777 $461 43.029877620777 $333 $464 forward 7 unknown #
coedge $-1 $346 $345 $225 $339 reversed $330 $-1 #
edge $-1 $465 -43.029877620777 $340 43.029877620777 $338 $466 forward 7 unknown #
vertex $-1 $227 $467 #
vertex $-1 $352 $468 #
straight-curve $-1 43.029877620777 0 -10.759152025185371 0 -1 0 I I #
coedge $-1 $332 $334 $228 $344 reversed $221 $-1 #
edge $-1 $347 -28.204287655643661 $350 28.204287655643661 $343 $469 forward 7 unknown #
coedge $-1 $338 $229 $234 $353 forward $330 $-1 #
coedge $-1 $229 $338 $332 $460 reversed $330 $-1 #
vertex $-1 $230 $470 #
straight-curve $-1 0 28.204287655643661 10.759152025185371 -1 0 0 I I #
coedge $-1 $231 $333 $233 $352 reversed $139 $-1 #
vertex $-1 $344 $471 #
straight-curve $-1 0 -28.204287655643661 10.759152025185371 1 0 0 I I #
edge $-1 $236 -10.759152025185371 $341 10.759152025185371 $233 $472 forward 7 unknown #
edge $-1 $237 -10.759152025185371 $340 10.759152025185371 $234 $473 forward 7 unknown #
point $-1 43.029877620777 -28.204287655643661 10.759152025185371 #
point $-1 43.029877620777 28.204287655643661 10.759152025185371 #
face $-1 $-1 $254 $34 $-1 $474 reversed single #
loop $-1 $-1 $250 $239 #
plane-surface $-1 0 -28.204287655643661 0 0 1 0 0 0 1 forward_v I I I I #
coedge $-1 $475 $476 $247 $369 forward $240 $-1 #
coedge $-1 $370 $242 $244 $365 reversed $147 $-1 #
edge $-1 $367 -4.234907158902451 $255 -1.234907158902451 $253 $477 forward 7 unknown #
coedge $-1 $244 $243 $478 $479 reversed $93 $-1 #
coedge $-1 $374 $373 $243 $364 forward $357 $-1 #
edge $-1 $480 -43.029877620777 $366 43.029877620777 $363 $481 forward 7 unknown #
edge $-1 $482 -43.029877620777 $367 43.029877620777 $360 $483 forward 7 unknown #
vertex $-1 $364 $484 #
vertex $-1 $246 $485 #
straight-curve $-1 43.029877620777 -11.606962603547849 -6.9698143178049019 0 1 0 I I #
edge $-1 $375 -16.597325052095812 $371 -6.6166001549998867 $359 $486 forward 7 unknown #
coedge $-1 $248 $360 $475 $487 reversed $147 $-1 #
vertex $-1 $369 $488 #
straight-curve $-1 0 -18.223562758547736 -3.9698143178049019 -1 0 0 I I #
coedge $-1 $363 $250 $476 $489 forward $357 $-1 #
coedge $-1 $250 $363 $252 $377 reversed $357 $-1 #
vertex $-1 $489 $490 #
straight-curve $-1 0 -28.204287655643661 -3.9698143178049019 -1 0 0 I I #
edge $-1 $256 3.9698143178049019 $366 6.9698143178049019 $252 $491 forward 7 unknown #
point $-1 43.029877620777 -18.223562758547736 -3.9698143178049019 #
point $-1 43.029877620777 -28.204287655643661 -3.9698143178049019 #
plane-surface $-1 43.029877620777 0 0 -1 0 0 0 0 1 forward_v I I I I #
coedge $-1 $391 $390 $383 $492 forward $259 $-1 #
coedge $-1 $383 $261 $263 $387 reversed $155 $-1 #
coedge $-1 $261 $382 $381 $492 reversed $155 $-1 #
coedge $-1 $269 $264 $261 $385 forward $270 $-1 #
edge $-1 $388 -59.089378496963711 $493 -51.839805992798652 $384 $494 forward 7 unknown #
coedge $-1 $263 $262 $391 $495 reversed $97 $-1 #
edge $-1 $496 75.623585856294341 $388 86.059755241553987 $382 $497 forward 7 unknown #
vertex $-1 $265 $498 #
straight-curve $-1 43.029877620777 -1.3045201702081428 3.5095795210203136 0 1 0 I I #
coedge $-1 $381 $266 $269 $395 forward $259 $-1 #
coedge $-1 $266 $381 $386 $495 forward $259 $-1 #
vertex $-1 $267 $499 #
straight-curve $-1 20.452900593421091 -8.0008162061070749 10.759152025185372 1 0 0 I I #
straight-curve $-1 -18.876328853664276 -8.0008162061070749 63.291709561526766 -0.71933979245794832 0 0.69465837861970381 I I #
edge $-1 $271 -8.0008162061070749 $493 2.7827355252745036 $269 $500 forward 7 unknown #
point $-1 43.029877620777 -8.0008162061070749 10.759152025185371 #
point $-1 43.029877620777 -8.0008162061070749 3.5095795210203136 #
edge $-1 $501 1 $501 0 $274 $-1 forward 7 unknown #
vertex $-1 $275 $502 #
ellipse-curve $-1 38.164502696166679 -4.9198014257123397 5.9830642683642861 0.69465837861970381 0 0.71933979245794832 0.35966989622897416 0 -0.3473291893098519 1 I I #
point $-1 39.635971557181641 -4.9198014257123397 6.7870365837929949 #
edge $-1 $503 1 $503 0 $278 $-1 forward 7 unknown #
vertex $-1 $279 $504 #
ellipse-curve $-1 38.164502696166679 -0.29827925512023512 5.9830642683642861 0.69465837861970381 0 0.71933979245794832 0.35966989622897416 0 -0.3473291893098519 1 I I #
point $-1 39.635971557181641 -0.29827925512023512 6.7870365837929949 #
loop $-1 $-1 $290 $282 #
plane-surface $-1 0 0 10.759152025185371 0 0 1 1 0 0 forward_v I I I I #
coedge $-1 $409 $285 $287 $413 reversed $177 $-1 #
coedge $-1 $285 $408 $505 $506 reversed $177 $-1 #
coedge $-1 $293 $288 $285 $411 forward $283 $-1 #
edge $-1 $414 -59.089378496963711 $507 -51.839805992798652 $410 $508 forward 7 unknown #
coedge $-1 $287 $286 $417 $509 reversed $111 $-1 #
edge $-1 $510 75.623585856294341 $414 86.059755241553987 $408 $511 forward 7 unknown #
vertex $-1 $289 $512 #
straight-curve $-1 43.029877620777 6.2948826187560982 3.5095795210203136 0 1 0 I I #
coedge $-1 $505 $290 $293 $421 forward $406 $-1 #
coedge $-1 $290 $505 $412 $509 forward $406 $-1 #
vertex $-1 $291 $513 #
straight-curve $-1 20.452900593421091 7.1979893718214072 10.759152025185372 1 0 0 I I #
straight-curve $-1 -18.876328853664276 7.1979893718214072 63.291709561526766 -0.71933979245794832 0 0.69465837861970381 I I #
edge $-1 $294 7.1979893718214072 $507 17.981541103202986 $293 $514 forward 7 unknown #
point $-1 43.029877620777 7.1979893718214072 10.759152025185371 #
point $-1 43.029877620777 7.1979893718214072 3.5095795210203136 #
edge $-1 $515 1 $515 0 $297 $-1 forward 7 unknown #
vertex $-1 $298 $516 #
ellipse-curve $-1 38.164502696166679 10.279004152216146 5.9830642683642861 0.69465837861970381 0 0.71933979245794832 0.35966989622897416 0 -0.3473291893098519 1 I I #
point $-1 39.635971557181641 10.279004152216146 6.7870365837929949 #
edge $-1 $517 1 $517 0 $301 $-1 forward 7 unknown #
vertex $-1 $302 $518 #
ellipse-curve $-1 38.164502696166679 14.900526322808247 5.9830642683642861 0.69465837861970381 0 0.71933979245794832 0.35966989622897416 0 -0.3473291893098519 1 I I #
point $-1 39.635971557181641 14.900526322808247 6.7870365837929949 #
plane-surface $-1 0 0 10.759152025185371 0 0 1 1 0 0 forward_v I I I I #
coedge $-1 $443 $442 $435 $519 forward $306 $-1 #
coedge $-1 $435 $308 $310 $439 reversed $199 $-1 #
coedge $-1 $308 $434 $433 $519 reversed $199 $-1 #
coedge $-1 $316 $311 $308 $437 forward $317 $-1 #
edge $-1 $440 -17.87190416670493 $520 -14.976467324751056 $436 $521 forward 7 unknown #
coedge $-1 $310 $309 $443 $522 reversed $125 $-1 #
edge $-1 $523 0 $440 5.4639208397854784 $434 $524 forward 7 unknown #
vertex $-1 $312 $525 #
straight-curve $-1 -40.134440778823127 -6.5351128342693086 10.759152025185371 0 1 0 I I #
coedge $-1 $433 $313 $316 $447 reversed $306 $-1 #
coedge $-1 $313 $433 $438 $522 forward $306 $-1 #
vertex $-1 $314 $526 #
straight-curve $-1 -43.029877620777 -18.22356275854774 25.865102701218095 0 0 1 I I #
straight-curve $-1 -43.029877620777 -18.22356275854774 6.1254843161563528 -0.52991925155115449 0 -0.84804810408105047 I I #
edge $-1 $520 7.9168885785294947 $318 18.22356275854774 $442 $527 forward 7 unknown #
point $-1 -43.029877620777 -18.22356275854774 10.759152025185371 #
point $-1 -40.134440778823127 -18.22356275854774 10.759152025185371 #
edge $-1 $528 1 $528 0 $321 $-1 forward 7 unknown #
vertex $-1 $322 $529 #
ellipse-curve $-1 -40.734111095719008 -15.278798707113955 7.9123989191197053 -0.84804810408105047 0 0.52991925155115449 0.26495962577557725 0 0.42402405204052523 1 I I #
point $-1 -41.317199574024485 -15.278798707113955 8.8663422227113848 #
edge $-1 $530 1 $530 0 $325 $-1 forward 7 unknown #
vertex $-1 $326 $531 #
ellipse-curve $-1 -40.734111095719008 -10.861652629963281 7.9123989191197053 -0.84804810408105047 0 0.52991925155115449 0.26495962577557725 0 0.42402405204052523 1 I I #
point $-1 -41.317199574024485 -10.861652629963281 8.8663422227113848 #
plane-surface $-1 43.029877620777 0 0 -1 0 0 0 0 1 forward_v I I I I #
coedge $-1 $334 $332 $336 $463 reversed $221 $-1 #
edge $-1 $347 -10.759152025185371 $465 10.759152025185371 $346 $532 forward 7 unknown #
vertex $-1 $463 $533 #
straight-curve $-1 -43.029877620777 -28.204287655643661 0 0 0 -1 I I #
edge $-1 $461 -28.204287655643661 $465 28.204287655643661 $459 $534 forward 7 unknown #
straight-curve $-1 0 -28.204287655643661 -10.759152025185371 -1 0 0 I I #
vertex $-1 $339 $535 #
straight-curve $-1 0 28.204287655643661 -10.759152025185371 1 0 0 I I #
point $-1 43.029877620777 28.204287655643661 -10.759152025185371 #
point $-1 43.029877620777 -28.204287655643661 -10.759152025185371 #
straight-curve $-1 -43.029877620777 0 10.759152025185371 0 -1 0 I I #
point $-1 -43.029877620777 28.204287655643661 10.759152025185371 #
point $-1 -43.029877620777 -28.204287655643661 10.759152025185371 #
straight-curve $-1 43.029877620777 -28.204287655643661 0 0 0 -1 I I #
straight-curve $-1 43.029877620777 28.204287655643661 0 0 0 -1 I I #
plane-surface $-1 43.029877620777 0 0 -1 0 0 0 0 1 forward_v I I I I #
coedge $-1 $478 $359 $370 $487 forward $240 $-1 #
coedge $-1 $359 $478 $373 $489 reversed $240 $-1 #
straight-curve $-1 43.029877620777 -18.223562758547736 -2.734907158902451 0 0 1 I I #
coedge $-1 $476 $475 $362 $479 forward $240 $-1 #
edge $-1 $482 6.6166001549998867 $480 16.597325052095812 $478 $536 forward 7 unknown #
vertex $-1 $364 $537 #
straight-curve $-1 0 -28.204287655643661 -6.9698143178049019 1 0 0 I I #
vertex $-1 $479 $538 #
straight-curve $-1 0 -18.223562758547736 -6.9698143178049019 1 0 0 I I #
point $-1 43.029877620777 -28.204287655643661 -6.9698143178049019 #
point $-1 43.029877620777 -18.223562758547736 -6.9698143178049019 #
straight-curve $-1 -43.029877620777 -11.606962603547849 -3.9698143178049019 0 1 0 I I #
edge $-1 $371 1.234907158902451 $482 4.234907158902451 $475 $539 forward 7 unknown #
point $-1 -43.029877620777 -18.223562758547736 -3.9698143178049019 #
edge $-1 $375 3.9698143178049019 $480 6.9698143178049019 $476 $540 forward 7 unknown #
point $-1 -43.029877620777 -28.204287655643661 -3.9698143178049019 #
straight-curve $-1 43.029877620777 -28.204287655643661 0 0 0 -1 I I #
edge $-1 $493 -22.576977027355909 $496 -15.069825107707238 $381 $541 forward 7 unknown #
vertex $-1 $492 $542 #
straight-curve $-1 43.029877620777 2.7827355252745036 62.598958017984025 0 0 1 I I #
edge $-1 $496 -4.0872556954826464 $392 6.6962960358989321 $391 $543 forward 7 unknown #
vertex $-1 $495 $544 #
straight-curve $-1 -18.876328853664276 2.7827355252745036 63.291709561526766 0.71933979245794832 0 -0.69465837861970381 I I #
point $-1 43.029877620777 2.7827355252745036 3.5095795210203136 #
point $-1 35.52272570112833 -8.0008162061070749 10.759152025185372 #
straight-curve $-1 43.029877620777 0 10.759152025185371 0 1 0 I I #
vertex $-1 $398 $545 #
point $-1 38.524172592395658 -4.9198014257123397 5.6357350790544345 #
vertex $-1 $402 $546 #
point $-1 38.524172592395658 -0.29827925512023512 5.6357350790544345 #
coedge $-1 $417 $416 $409 $506 forward $406 $-1 #
edge $-1 $507 -22.576977027355909 $510 -15.069825107707238 $505 $547 forward 7 unknown #
vertex $-1 $506 $548 #
straight-curve $-1 43.029877620777 17.981541103202986 62.598958017984025 0 0 1 I I #
edge $-1 $510 -11.686658484446887 $418 -0.90310675306530896 $417 $549 forward 7 unknown #
vertex $-1 $509 $550 #
straight-curve $-1 -18.876328853664276 17.981541103202986 63.291709561526766 0.71933979245794832 0 -0.69465837861970381 I I #
point $-1 43.029877620777 17.981541103202986 3.5095795210203136 #
point $-1 35.52272570112833 7.1979893718214072 10.759152025185372 #
straight-curve $-1 43.029877620777 0 10.759152025185371 0 1 0 I I #
vertex $-1 $424 $551 #
point $-1 38.524172592395658 10.279004152216146 5.6357350790544345 #
vertex $-1 $428 $552 #
point $-1 38.524172592395658 14.900526322808247 5.6357350790544345 #
edge $-1 $520 15.105950676032725 $523 19.739618385061743 $433 $553 forward 7 unknown #
vertex $-1 $447 $554 #
straight-curve $-1 -58.006344945528056 -7.9168885785294947 10.759152025185369 -1 0 0 I I #
edge $-1 $523 1.3817757442601861 $444 11.68844992427843 $443 $555 forward 7 unknown #
vertex $-1 $522 $556 #
straight-curve $-1 -43.029877620777 -7.9168885785294947 6.1254843161563528 0.52991925155115449 0 0.84804810408105047 I I #
point $-1 -40.134440778823127 -7.9168885785294947 10.759152025185371 #
point $-1 -43.029877620777 -18.22356275854774 6.1254843161563528 #
straight-curve $-1 -43.029877620777 0 10.759152025185371 0 -1 0 I I #
vertex $-1 $450 $557 #
point $-1 -40.469151469943434 -15.278798707113955 8.3364229711602302 #
vertex $-1 $454 $558 #
point $-1 -40.469151469943434 -10.861652629963281 8.3364229711602302 #
straight-curve $-1 -43.029877620777 28.204287655643661 0 0 0 -1 I I #
point $-1 -43.029877620777 -28.204287655643661 -10.759152025185371 #
straight-curve $-1 -43.029877620777 0 -10.759152025185371 0 1 0 I I #
point $-1 -43.029877620777 28.204287655643661 -10.759152025185371 #
straight-curve $-1 -43.029877620777 -11.606962603547849 -6.9698143178049019 0 -1 0 I I #
point $-1 -43.029877620777 -28.204287655643661 -6.9698143178049019 #
point $-1 -43.029877620777 -18.223562758547736 -6.9698143178049019 #
straight-curve $-1 -43.029877620777 -18.223562758547736 -2.734907158902451 0 0 -1 I I #
straight-curve $-1 -43.029877620777 -28.204287655643661 0 0 0 -1 I I #
straight-curve $-1 20.452900593421091 2.7827355252745036 10.759152025185372 -1 0 0 I I #
point $-1 43.029877620777 2.7827355252745036 10.759152025185371 #
straight-curve $-1 35.52272570112833 -1.3045201702081428 10.759152025185372 0 -1 0 I I #
point $-1 35.52272570112833 2.7827355252745036 10.759152025185372 #
point $-1 37.817173506856832 -4.9198014257123397 5.6233943721353139 #
point $-1 37.817173506856832 -0.29827925512023512 5.6233943721353139 #
straight-curve $-1 20.452900593421091 17.981541103202986 10.759152025185372 -1 0 0 I I #
point $-1 43.029877620777 17.981541103202986 10.759152025185371 #
straight-curve $-1 35.52272570112833 6.2948826187560982 10.759152025185372 0 -1 0 I I #
point $-1 35.52272570112833 17.981541103202986 10.759152025185372 #
point $-1 37.817173506856832 10.279004152216146 5.6233943721353139 #
point $-1 37.817173506856832 14.900526322808247 5.6233943721353139 #
straight-curve $-1 -43.029877620777 -7.9168885785294947 25.865102701218095 0 0 -1 I I #
point $-1 -43.029877620777 -7.9168885785294947 10.759152025185371 #
straight-curve $-1 -43.029877620777 -6.5351128342693086 6.1254843161563564 0 -1 0 I I #
point $-1 -43.029877620777 -7.9168885785294947 6.1254843161563528 #
point $-1 -40.310087043678486 -15.278798707113955 7.6474392933441289 #
point $-1 -40.310087043678486 -10.861652629963281 7.6474392933441289 #
End-of-ACIS-data 