500 0 10 0           
7 Unknown 11 ACIS 5.0 NT 24 Fri Mar 26 20:35:57 1999 
-1 9.9999999999999995e-007 1e-010 
body $-1 $10 $-1 $11 #
body $-1 $12 $-1 $13 #
body $-1 $14 $-1 $15 #
body $-1 $16 $-1 $17 #
body $-1 $18 $-1 $19 #
body $-1 $20 $-1 $21 #
body $-1 $22 $-1 $23 #
body $-1 $24 $-1 $25 #
body $-1 $26 $-1 $27 #
body $-1 $28 $-1 $29 #
lump $-1 $-1 $30 $0 #
transform $-1 1 0 0 0 1 0 0 0 1 70.748008667256698 43.682960348954865 14.406964809078813 1 rotate no_reflect no_shear #
lump $-1 $-1 $31 $1 #
transform $-1 1 0 0 0 1 0 0 0 1 70.748008667256698 43.682960348954865 14.406964809078813 1 rotate no_reflect no_shear #
lump $-1 $-1 $32 $2 #
transform $-1 1 0 0 0 1 0 0 0 1 70.748008667256698 43.682960348954865 14.406964809078813 1 rotate no_reflect no_shear #
lump $-1 $-1 $33 $3 #
transform $-1 1 0 0 0 1 0 0 0 1 70.748008667256698 43.682960348954865 14.406964809078813 1 rotate no_reflect no_shear #
lump $-1 $-1 $34 $4 #
transform $-1 1 0 0 0 1 0 0 0 1 70.748008667256698 43.682960348954865 14.406964809078813 1 rotate no_reflect no_shear #
lump $-1 $-1 $35 $5 #
transform $-1 1 0 0 0 1 0 0 0 1 70.748008667256698 43.682960348954865 14.406964809078813 1 rotate no_reflect no_shear #
lump $-1 $-1 $36 $6 #
transform $-1 1 0 0 0 1 0 0 0 1 70.748008667256698 43.682960348954865 14.406964809078813 1 rotate no_reflect no_shear #
lump $-1 $-1 $37 $7 #
transform $-1 1 0 0 0 1 0 0 0 1 70.748008667256698 43.682960348954865 14.406964809078813 1 rotate no_reflect no_shear #
lump $-1 $-1 $38 $8 #
transform $-1 1 0 0 0 1 0 0 0 1 70.748008667256698 43.682960348954865 14.406964809078813 1 rotate no_reflect no_shear #
lump $-1 $-1 $39 $9 #
transform $-1 1 0 0 0 1 0 0 0 1 70.748008667256698 43.682960348954865 14.406964809078813 1 rotate no_reflect no_shear #
shell $-1 $-1 $-1 $40 $-1 $10 #
shell $-1 $-1 $-1 $41 $-1 $12 #
shell $-1 $-1 $-1 $42 $-1 $14 #
shell $-1 $-1 $-1 $43 $-1 $16 #
shell $-1 $-1 $-1 $44 $-1 $18 #
shell $-1 $-1 $-1 $45 $-1 $20 #
shell $-1 $-1 $-1 $46 $-1 $22 #
shell $-1 $-1 $-1 $47 $-1 $24 #
shell $-1 $-1 $-1 $48 $-1 $26 #
shell $-1 $-1 $-1 $49 $-1 $28 #
face $-1 $50 $51 $30 $-1 $52 forward single #
face $-1 $53 $54 $31 $-1 $55 forward single #
face $-1 $56 $57 $32 $-1 $58 reversed single #
face $-1 $59 $60 $33 $-1 $61 forward single #
face $-1 $62 $63 $34 $-1 $64 reversed single #
face $-1 $65 $66 $35 $-1 $67 forward single #
face $-1 $68 $69 $36 $-1 $70 forward single #
face $-1 $71 $72 $37 $-1 $73 reversed single #
face $-1 $74 $75 $38 $-1 $76 forward single #
face $-1 $77 $78 $39 $-1 $79 forward single #
face $-1 $80 $81 $30 $-1 $82 reversed single #
loop $-1 $-1 $83 $40 #
plane-surface $-1 0 0 14.406964809078813 0 0 1 1 0 0 forward_v I I I I #
face $-1 $84 $85 $31 $-1 $86 reversed single #
loop $-1 $-1 $87 $41 #
plane-surface $-1 -70.748008667256698 0 0 1 0 0 0 0 -1 forward_v I I I I #
face $-1 $88 $89 $32 $-1 $90 reversed single #
loop $-1 $-1 $91 $42 #
plane-surface $-1 49.006509983210066 87.583183693304179 162.52943818828342 1 0 0 0 -0.73135370988377701 -0.68199835119979291 forward_v I I I I #
face $-1 $92 $93 $33 $-1 $94 forward single #
loop $-1 $95 $96 $43 #
cone-surface $-1 58.593055262253444 35.638219074337286 6.1048288414267802 0 -0.73135370988377701 -0.68199835119979291 2 0 0 1 I I 0 1 2 forward I I I I #
face $-1 $97 $98 $34 $-1 $99 reversed single #
loop $-1 $-1 $100 $44 #
plane-surface $-1 -20.552161712018307 -147.16659756033047 97.328584604886885 -1 0 0 0 -0.73135370988377701 0.68199835119979291 forward_v I I I I #
face $-1 $101 $102 $35 $-1 $103 forward single #
loop $-1 $104 $105 $45 #
cone-surface $-1 -34.117634233255103 -34.021741044687488 4.5123122982714143 0 0.73135370988377701 -0.68199835119979291 2.5 0 0 1 I I 0 1 2.5 forward I I I I #
face $-1 $106 $107 $36 $-1 $108 forward single #
loop $-1 $109 $110 $46 #
cone-surface $-1 -25.978350720513028 -34.021741044687488 4.5123122982714143 0 0.73135370988377701 -0.68199835119979291 2.5 0 0 1 I I 0 1 2.5 forward I I I I #
face $-1 $111 $112 $37 $-1 $113 reversed single #
loop $-1 $-1 $114 $47 #
plane-surface $-1 43.647460017102347 -147.16659756033047 97.328584604886885 -1 0 0 0 -0.73135370988377701 0.68199835119979291 forward_v I I I I #
face $-1 $115 $116 $38 $-1 $117 forward single #
loop $-1 $118 $119 $48 #
cone-surface $-1 30.081987495865548 -34.021741044687488 4.5123122982714143 0 0.73135370988377701 -0.68199835119979291 2.5 0 0 1 I I 0 1 2.5 forward I I I I #
face $-1 $120 $121 $39 $-1 $122 forward single #
loop $-1 $123 $124 $49 #
cone-surface $-1 38.22127100860763 -34.021741044687488 4.5123122982714143 0 0.73135370988377701 -0.68199835119979291 2.5 0 0 1 I I 0 1 2.5 forward I I I I #
face $-1 $125 $126 $30 $-1 $127 reversed single #
loop $-1 $-1 $128 $50 #
plane-surface $-1 0 0 -14.406964809078813 0 0 1 1 0 0 forward_v I I I I #
coedge $-1 $129 $130 $131 $132 forward $51 $-1 #
face $-1 $133 $134 $31 $-1 $135 reversed single #
loop $-1 $-1 $136 $53 #
plane-surface $-1 0 0 -14.406964809078813 0 0 1 1 0 0 forward_v I I I I #
coedge $-1 $137 $138 $139 $140 forward $54 $-1 #
face $-1 $141 $142 $32 $-1 $143 reversed single #
loop $-1 $-1 $144 $56 #
plane-surface $-1 58.593055262253444 -15.900453518071416 66.02938766480797 0 0.73135370988377701 0.68199835119979291 1 0 0 forward_v I I I I #
coedge $-1 $145 $146 $147 $148 reversed $57 $-1 #
face $-1 $-1 $149 $33 $-1 $150 forward single #
loop $-1 $151 $152 $59 #
cone-surface $-1 58.593055262253444 32.58448756015629 3.2571782046244468 0 -0.73135370988377701 -0.68199835119979291 1 0 0 1 I I -0.70710678118654746 0.70710678118654746 1 forward I I I I #
loop $-1 $-1 $153 $43 #
coedge $-1 $96 $96 $154 $155 reversed $60 $-1 #
face $-1 $156 $157 $34 $-1 $158 reversed single #
loop $-1 $-1 $159 $62 #
plane-surface $-1 -30.047992476884062 -43.682960348954879 0.82853408141143348 0 -0.73135370988377701 0.68199835119979291 1 0 0 forward_v I I I I #
coedge $-1 $160 $161 $162 $163 reversed $63 $-1 #
face $-1 $-1 $164 $35 $-1 $165 forward single #
loop $-1 $166 $167 $65 #
cone-surface $-1 -34.117634233255103 -29.777375199061208 0.5543772122979771 0 0.73135370988377701 -0.68199835119979291 1.25 0 0 1 I I -0.70710678118654746 0.70710678118654746 1.25 forward I I I I #
loop $-1 $-1 $168 $45 #
coedge $-1 $105 $105 $169 $170 reversed $66 $-1 #
face $-1 $-1 $171 $36 $-1 $172 forward single #
loop $-1 $173 $174 $68 #
cone-surface $-1 -25.978350720513028 -29.777375199061208 0.5543772122979771 0 0.73135370988377701 -0.68199835119979291 1.25 0 0 1 I I -0.70710678118654746 0.70710678118654746 1.25 forward I I I I #
loop $-1 $-1 $175 $46 #
coedge $-1 $110 $110 $176 $177 reversed $69 $-1 #
face $-1 $178 $179 $37 $-1 $180 reversed single #
loop $-1 $-1 $181 $71 #
plane-surface $-1 34.151629252236589 -43.682960348954879 0.82853408141143348 0 -0.73135370988377701 0.68199835119979291 1 0 0 forward_v I I I I #
coedge $-1 $182 $183 $184 $185 reversed $72 $-1 #
face $-1 $-1 $186 $38 $-1 $187 forward single #
loop $-1 $188 $189 $74 #
cone-surface $-1 30.081987495865548 -29.777375199061208 0.5543772122979771 0 0.73135370988377701 -0.68199835119979291 1.25 0 0 1 I I -0.70710678118654746 0.70710678118654746 1.25 forward I I I I #
loop $-1 $-1 $190 $48 #
coedge $-1 $119 $119 $191 $192 reversed $75 $-1 #
face $-1 $-1 $193 $39 $-1 $194 forward single #
loop $-1 $195 $196 $77 #
cone-surface $-1 38.22127100860763 -29.777375199061208 0.5543772122979771 0 0.73135370988377701 -0.68199835119979291 1.25 0 0 1 I I -0.70710678118654746 0.70710678118654746 1.25 forward I I I I #
loop $-1 $-1 $197 $49 #
coedge $-1 $124 $124 $198 $199 reversed $78 $-1 #
face $-1 $200 $201 $30 $-1 $202 reversed single #
loop $-1 $-1 $203 $80 #
plane-surface $-1 0 -43.682960348954865 0 0 1 0 0 0 1 forward_v I I I I #
coedge $-1 $204 $205 $206 $207 forward $81 $-1 #
coedge $-1 $208 $83 $209 $210 forward $51 $-1 #
coedge $-1 $83 $208 $211 $212 forward $51 $-1 #
coedge $-1 $213 $214 $83 $132 reversed $215 $-1 #
edge $-1 $216 -43.682960348954865 $217 43.682960348954865 $131 $218 forward 7 unknown #
face $-1 $219 $220 $31 $-1 $221 reversed single #
loop $-1 $-1 $222 $84 #
plane-surface $-1 -77.296395605392746 -25.07705555198325 0 0 1 0 0 0 1 forward_v I I I I #
coedge $-1 $223 $224 $138 $225 forward $85 $-1 #
coedge $-1 $226 $87 $227 $228 reversed $54 $-1 #
coedge $-1 $87 $226 $136 $225 reversed $54 $-1 #
coedge $-1 $229 $230 $87 $140 reversed $231 $-1 #
edge $-1 $232 -14.406964809078813 $233 14.406964809078813 $139 $234 forward 7 unknown #
face $-1 $235 $236 $32 $-1 $237 forward single #
loop $-1 $-1 $238 $88 #
plane-surface $-1 68.179600541296821 87.583183693304179 162.52943818828342 -1 0 0 0 0.73135370988377701 0.68199835119979291 forward_v I I I I #
coedge $-1 $239 $240 $241 $242 reversed $89 $-1 #
coedge $-1 $146 $91 $243 $244 reversed $57 $-1 #
coedge $-1 $91 $145 $239 $245 reversed $57 $-1 #
coedge $-1 $241 $246 $91 $148 forward $236 $-1 #
edge $-1 $247 0.10863149769722469 $248 11.553358438337902 $147 $249 forward 7 unknown #
loop $-1 $-1 $154 $92 #
plane-surface $-1 58.593055262253444 -15.900453518071416 66.02938766480797 0 0.73135370988377701 0.68199835119979291 1 0 0 forward_v I I I I #
loop $-1 $-1 $250 $59 #
coedge $-1 $152 $152 $153 $251 reversed $93 $-1 #
coedge $-1 $153 $153 $152 $251 forward $95 $-1 #
coedge $-1 $154 $154 $96 $155 forward $149 $-1 #
edge $-1 $252 -1.4226813731031049e-015 $252 6.2831853071795987 $154 $253 forward 7 unknown #
face $-1 $254 $255 $34 $-1 $256 forward single #
loop $-1 $-1 $257 $97 #
plane-surface $-1 -39.54382324174982 -147.16659756033047 97.328584604886885 1 0 0 0 0.73135370988377701 -0.68199835119979291 forward_v I I I I #
coedge $-1 $258 $259 $260 $261 reversed $98 $-1 #
coedge $-1 $161 $100 $262 $263 reversed $63 $-1 #
coedge $-1 $100 $160 $258 $264 reversed $63 $-1 #
coedge $-1 $260 $265 $100 $163 forward $255 $-1 #
edge $-1 $266 29.900338431210372 $267 42.562429623201965 $162 $268 forward 7 unknown #
loop $-1 $-1 $169 $101 #
plane-surface $-1 -30.047992476884062 -43.682960348954879 0.82853408141143348 0 -0.73135370988377701 0.68199835119979291 1 0 0 forward_v I I I I #
loop $-1 $-1 $269 $65 #
coedge $-1 $167 $167 $168 $270 reversed $102 $-1 #
coedge $-1 $168 $168 $167 $270 forward $104 $-1 #
coedge $-1 $169 $169 $105 $170 forward $164 $-1 #
edge $-1 $271 -1.5796978972427061e-015 $271 6.2831853071795987 $169 $272 forward 7 unknown #
loop $-1 $-1 $176 $106 #
plane-surface $-1 -30.047992476884062 -43.682960348954879 0.82853408141143348 0 -0.73135370988377701 0.68199835119979291 1 0 0 forward_v I I I I #
loop $-1 $-1 $273 $68 #
coedge $-1 $174 $174 $175 $274 reversed $107 $-1 #
coedge $-1 $175 $175 $174 $274 forward $109 $-1 #
coedge $-1 $176 $176 $110 $177 forward $171 $-1 #
edge $-1 $275 -1.5796978972427061e-015 $275 6.2831853071795987 $176 $276 forward 7 unknown #
face $-1 $277 $278 $37 $-1 $279 reversed single #
loop $-1 $-1 $280 $111 #
plane-surface $-1 24.655798487370834 -147.16659756033047 97.328584604886885 1 0 0 0 0.73135370988377701 -0.68199835119979291 forward_v I I I I #
coedge $-1 $281 $282 $283 $284 reversed $112 $-1 #
coedge $-1 $183 $114 $285 $286 reversed $72 $-1 #
coedge $-1 $114 $182 $281 $287 reversed $72 $-1 #
coedge $-1 $283 $288 $114 $185 forward $289 $-1 #
edge $-1 $290 29.900338431210372 $291 42.562429623201965 $184 $292 forward 7 unknown #
loop $-1 $-1 $191 $115 #
plane-surface $-1 34.151629252236589 -43.682960348954879 0.82853408141143348 0 -0.73135370988377701 0.68199835119979291 1 0 0 forward_v I I I I #
loop $-1 $-1 $293 $74 #
coedge $-1 $189 $189 $190 $294 reversed $116 $-1 #
coedge $-1 $190 $190 $189 $294 forward $118 $-1 #
coedge $-1 $191 $191 $119 $192 forward $186 $-1 #
edge $-1 $295 -1.5796978972427061e-015 $295 6.2831853071795987 $191 $296 forward 7 unknown #
loop $-1 $-1 $198 $120 #
plane-surface $-1 34.151629252236589 -43.682960348954879 0.82853408141143348 0 -0.73135370988377701 0.68199835119979291 1 0 0 forward_v I I I I #
loop $-1 $-1 $297 $77 #
coedge $-1 $196 $196 $197 $298 reversed $121 $-1 #
coedge $-1 $197 $197 $196 $298 forward $123 $-1 #
coedge $-1 $198 $198 $124 $199 forward $193 $-1 #
edge $-1 $299 -1.5796978972427061e-015 $299 6.2831853071795987 $198 $300 forward 7 unknown #
face $-1 $301 $302 $30 $-1 $303 reversed single #
loop $-1 $-1 $304 $125 #
plane-surface $-1 -70.748008667256698 0 0 1 0 0 0 0 -1 forward_v I I I I #
coedge $-1 $305 $211 $306 $307 forward $126 $-1 #
coedge $-1 $308 $128 $305 $309 forward $81 $-1 #
coedge $-1 $128 $308 $310 $311 forward $81 $-1 #
coedge $-1 $214 $213 $128 $207 reversed $215 $-1 #
edge $-1 $312 -43.682960348954865 $313 43.682960348954865 $206 $314 forward 7 unknown #
coedge $-1 $130 $129 $315 $316 forward $51 $-1 #
coedge $-1 $317 $318 $129 $210 reversed $302 $-1 #
edge $-1 $217 -70.748008667256698 $319 70.748008667256698 $209 $320 forward 7 unknown #
coedge $-1 $203 $321 $130 $212 reversed $126 $-1 #
edge $-1 $322 -70.748008667256698 $216 70.748008667256698 $211 $323 forward 7 unknown #
coedge $-1 $206 $131 $321 $324 forward $215 $-1 #
coedge $-1 $131 $206 $317 $325 reversed $215 $-1 #
loop $-1 $-1 $213 $301 #
vertex $-1 $132 $326 #
vertex $-1 $132 $327 #
straight-curve $-1 70.748008667256698 0 14.406964809078813 0 1 0 I I #
face $-1 $328 $231 $31 $-1 $329 reversed single #
loop $-1 $-1 $330 $133 #
plane-surface $-1 -83.844782543528794 -20.943060824836984 0 1 0 0 0 0 -1 forward_v I I I I #
coedge $-1 $331 $332 $333 $334 forward $134 $-1 #
coedge $-1 $335 $136 $331 $336 forward $85 $-1 #
coedge $-1 $136 $335 $229 $337 forward $85 $-1 #
edge $-1 $232 16.809066097690717 $338 25.07705555198325 $136 $339 forward 7 unknown #
coedge $-1 $138 $137 $340 $341 forward $54 $-1 #
coedge $-1 $342 $343 $137 $228 forward $344 $-1 #
edge $-1 $345 -25.07705555198325 $233 -16.809066097690717 $227 $346 forward 7 unknown #
coedge $-1 $347 $139 $224 $337 reversed $231 $-1 #
coedge $-1 $139 $347 $342 $348 reversed $231 $-1 #
loop $-1 $-1 $139 $219 #
vertex $-1 $225 $349 #
vertex $-1 $348 $350 #
straight-curve $-1 -70.748008667256698 -16.809066097690717 0 0 0 1 I I #
face $-1 $-1 $351 $32 $-1 $352 reversed single #
loop $-1 $-1 $147 $141 #
plane-surface $-1 0 0 14.406964809078813 0 0 1 1 0 0 forward_v I I I I #
coedge $-1 $353 $354 $355 $356 reversed $142 $-1 #
coedge $-1 $357 $144 $146 $245 forward $89 $-1 #
coedge $-1 $144 $357 $353 $358 forward $89 $-1 #
coedge $-1 $355 $147 $144 $242 forward $236 $-1 #
edge $-1 $248 19.709982352083344 $359 38.8830729101701 $241 $360 forward 7 unknown #
coedge $-1 $361 $362 $145 $244 forward $351 $-1 #
edge $-1 $363 -79.13072164916187 $247 -66.857754285062896 $243 $364 forward 7 unknown #
edge $-1 $248 70.584755581444611 $363 87.365920697909701 $146 $365 forward 7 unknown #
coedge $-1 $147 $355 $361 $366 forward $236 $-1 #
vertex $-1 $244 $367 #
vertex $-1 $148 $368 #
straight-curve $-1 49.006509983210066 43.791591846652089 14.406964809078815 0 -1 0 I I #
coedge $-1 $250 $250 $-1 $369 reversed $151 $-1 #
edge $-1 $370 0 $370 6.2831853071796004 $152 $371 forward 7 unknown #
vertex $-1 $155 $372 #
ellipse-curve $-1 58.593055262253444 37.960596878634526 8.2704811270293366 0 0.73135370988377701 0.68199835119979291 2 0 0 1 I I #
face $-1 $-1 $373 $34 $-1 $374 reversed single #
loop $-1 $-1 $162 $156 #
plane-surface $-1 0 0 14.406964809078813 0 0 1 1 0 0 forward_v I I I I #
coedge $-1 $375 $376 $377 $378 reversed $157 $-1 #
coedge $-1 $379 $159 $161 $264 forward $98 $-1 #
coedge $-1 $159 $379 $375 $380 forward $98 $-1 #
coedge $-1 $377 $162 $159 $261 forward $255 $-1 #
edge $-1 $267 5.5281654735762764 $381 24.519827003307789 $260 $382 forward 7 unknown #
coedge $-1 $383 $384 $160 $263 forward $373 $-1 #
edge $-1 $385 -47.835758221031995 $266 -34.257327493364627 $262 $386 forward 7 unknown #
edge $-1 $267 -18.56616100275911 $385 -2.0815709956562115e-014 $161 $387 forward 7 unknown #
coedge $-1 $162 $377 $383 $388 forward $255 $-1 #
vertex $-1 $163 $389 #
vertex $-1 $163 $390 #
straight-curve $-1 -20.552161712018307 -73.583298780165237 14.406964809078815 0 1 0 I I #
coedge $-1 $269 $269 $-1 $391 reversed $166 $-1 #
edge $-1 $392 0 $392 6.2831853071796004 $167 $393 forward 7 unknown #
vertex $-1 $170 $394 #
ellipse-curve $-1 -34.117634233255103 -37.351914752959068 7.6177494452451295 0 -0.73135370988377701 0.68199835119979291 2.5 0 0 1 I I #
coedge $-1 $273 $273 $-1 $395 reversed $173 $-1 #
edge $-1 $396 0 $396 6.2831853071796004 $174 $397 forward 7 unknown #
vertex $-1 $177 $398 #
ellipse-curve $-1 -25.978350720513028 -37.351914752959068 7.6177494452451295 0 -0.73135370988377701 0.68199835119979291 2.5 0 0 1 I I #
face $-1 $-1 $289 $37 $-1 $399 forward single #
loop $-1 $-1 $400 $178 #
plane-surface $-1 0 -43.682960348954865 0 0 1 0 0 0 1 forward_v I I I I #
coedge $-1 $401 $402 $403 $404 reversed $179 $-1 #
coedge $-1 $405 $181 $183 $287 forward $112 $-1 #
coedge $-1 $181 $405 $401 $406 forward $112 $-1 #
coedge $-1 $403 $184 $181 $284 forward $289 $-1 #
edge $-1 $291 -26.571645390984052 $407 -7.5799838612525399 $283 $408 forward 7 unknown #
coedge $-1 $409 $410 $182 $286 forward $278 $-1 #
edge $-1 $411 -47.835758221031995 $290 -34.257327493364627 $285 $412 forward 7 unknown #
edge $-1 $291 -18.56616100275911 $411 -2.0815709956562115e-014 $183 $413 forward 7 unknown #
coedge $-1 $184 $403 $409 $414 forward $289 $-1 #
loop $-1 $-1 $403 $277 #
vertex $-1 $286 $415 #
vertex $-1 $185 $416 #
straight-curve $-1 43.647460017102347 -73.583298780165237 14.406964809078815 0 1 0 I I #
coedge $-1 $293 $293 $-1 $417 reversed $188 $-1 #
edge $-1 $418 0 $418 6.2831853071796004 $189 $419 forward 7 unknown #
vertex $-1 $192 $420 #
ellipse-curve $-1 30.081987495865548 -37.351914752959068 7.6177494452451295 0 -0.73135370988377701 0.68199835119979291 2.5 0 0 1 I I #
coedge $-1 $297 $297 $-1 $421 reversed $195 $-1 #
edge $-1 $422 0 $422 6.2831853071796004 $196 $423 forward 7 unknown #
vertex $-1 $199 $424 #
ellipse-curve $-1 38.22127100860763 -37.351914752959068 7.6177494452451295 0 -0.73135370988377701 0.68199835119979291 2.5 0 0 1 I I #
face $-1 $-1 $215 $30 $-1 $425 reversed single #
loop $-1 $-1 $317 $200 #
plane-surface $-1 0 43.682960348954865 0 0 -1 0 0 0 -1 forward_v I I I I #
coedge $-1 $426 $315 $318 $427 forward $201 $-1 #
coedge $-1 $321 $203 $204 $309 reversed $126 $-1 #
coedge $-1 $315 $426 $203 $307 reversed $201 $-1 #
edge $-1 $322 -14.406964809078813 $428 14.406964809078813 $306 $429 forward 7 unknown #
coedge $-1 $205 $204 $426 $430 forward $81 $-1 #
edge $-1 $313 -70.748008667256698 $428 70.748008667256698 $305 $431 forward 7 unknown #
coedge $-1 $318 $317 $205 $311 reversed $302 $-1 #
edge $-1 $432 -70.748008667256698 $312 70.748008667256698 $310 $433 forward 7 unknown #
vertex $-1 $207 $434 #
vertex $-1 $324 $435 #
straight-curve $-1 70.748008667256698 0 -14.406964809078813 0 -1 0 I I #
coedge $-1 $304 $306 $208 $316 reversed $201 $-1 #
edge $-1 $319 -43.682960348954865 $322 43.682960348954865 $315 $436 forward 7 unknown #
coedge $-1 $310 $209 $214 $325 forward $302 $-1 #
coedge $-1 $209 $310 $304 $427 reversed $302 $-1 #
vertex $-1 $210 $437 #
straight-curve $-1 0 43.682960348954865 14.406964809078813 -1 0 0 I I #
coedge $-1 $211 $305 $213 $324 reversed $126 $-1 #
vertex $-1 $316 $438 #
straight-curve $-1 0 -43.682960348954865 14.406964809078813 1 0 0 I I #
edge $-1 $216 -14.406964809078813 $313 14.406964809078813 $213 $439 forward 7 unknown #
edge $-1 $217 -14.406964809078813 $312 14.406964809078813 $214 $440 forward 7 unknown #
point $-1 70.748008667256698 -43.682960348954865 14.406964809078813 #
point $-1 70.748008667256698 43.682960348954865 14.406964809078813 #
face $-1 $-1 $344 $31 $-1 $441 forward single #
plane-surface $-1 -77.296395605392746 -16.809066097690717 0 0 -1 0 0 0 -1 forward_v I I I I #
coedge $-1 $442 $443 $347 $444 forward $220 $-1 #
coedge $-1 $340 $222 $223 $336 reversed $134 $-1 #
coedge $-1 $222 $340 $343 $445 reversed $134 $-1 #
coedge $-1 $443 $442 $222 $334 reversed $220 $-1 #
edge $-1 $446 -14.406964809078813 $447 14.406964809078813 $333 $448 forward 7 unknown #
coedge $-1 $224 $223 $442 $449 forward $85 $-1 #
edge $-1 $338 -6.5483869381360478 $447 6.5483869381360478 $331 $450 forward 7 unknown #
edge $-1 $451 -6.5483869381360478 $232 6.5483869381360478 $229 $452 forward 7 unknown #
vertex $-1 $336 $453 #
straight-curve $-1 -70.748008667256698 0 -14.406964809078813 0 -1 0 I I #
coedge $-1 $332 $331 $226 $341 reversed $134 $-1 #
edge $-1 $345 -14.406964809078813 $338 14.406964809078813 $340 $454 forward 7 unknown #
coedge $-1 $455 $227 $230 $348 forward $344 $-1 #
coedge $-1 $227 $455 $332 $445 forward $344 $-1 #
loop $-1 $-1 $227 $328 #
vertex $-1 $228 $456 #
straight-curve $-1 -70.748008667256698 0 14.406964809078813 0 1 0 I I #
coedge $-1 $230 $229 $330 $444 reversed $231 $-1 #
edge $-1 $233 -6.5483869381360478 $457 6.5483869381360478 $230 $458 forward 7 unknown #
point $-1 -70.748008667256698 -16.809066097690717 -14.406964809078813 #
point $-1 -70.748008667256698 -16.809066097690717 14.406964809078813 #
loop $-1 $-1 $243 $235 #
plane-surface $-1 0 43.682960348954865 0 0 -1 0 0 0 -1 forward_v I I I I #
coedge $-1 $354 $238 $240 $358 reversed $142 $-1 #
coedge $-1 $238 $353 $459 $460 reversed $142 $-1 #
coedge $-1 $246 $241 $238 $356 forward $236 $-1 #
edge $-1 $359 -11.553358438337902 $461 -0.10863149769722469 $355 $462 forward 7 unknown #
coedge $-1 $240 $239 $362 $463 reversed $89 $-1 #
edge $-1 $464 -87.365920697909701 $359 -70.584755581444611 $353 $465 forward 7 unknown #
vertex $-1 $242 $466 #
straight-curve $-1 29.296527631126722 32.238233408314194 14.406964809078815 1 0 0 I I #
coedge $-1 $459 $243 $246 $366 reversed $351 $-1 #
coedge $-1 $243 $459 $357 $463 forward $351 $-1 #
vertex $-1 $244 $467 #
straight-curve $-1 49.006509983210066 43.682960348954865 81.264719094141711 0 0 1 I I #
straight-curve $-1 49.006509983210066 -15.900453518071416 66.02938766480797 0 0.68199835119979291 -0.73135370988377701 I I #
edge $-1 $461 -68.179600541296821 $247 -49.006509983210066 $361 $468 forward 7 unknown #
point $-1 49.006509983210066 43.682960348954865 14.406964809078813 #
point $-1 49.006509983210066 32.238233408314187 14.406964809078815 #
edge $-1 $469 1 $469 0 $250 $-1 forward 7 unknown #
vertex $-1 $251 $470 #
ellipse-curve $-1 58.593055262253444 33.315841270040067 3.9391765558242398 0 0.73135370988377701 0.68199835119979291 2 0 0 1 I I #
point $-1 60.593055262253444 37.960596878634504 8.2704811270293206 #
loop $-1 $-1 $262 $254 #
plane-surface $-1 0 -43.682960348954865 0 0 1 0 0 0 1 forward_v I I I I #
coedge $-1 $376 $257 $259 $380 reversed $157 $-1 #
coedge $-1 $257 $375 $471 $472 reversed $157 $-1 #
coedge $-1 $265 $260 $257 $378 forward $255 $-1 #
edge $-1 $381 -42.562429623201965 $473 -29.900338431210372 $377 $474 forward 7 unknown #
coedge $-1 $259 $258 $384 $475 reversed $98 $-1 #
edge $-1 $476 2.0815709956562115e-014 $381 18.56616100275911 $375 $477 forward 7 unknown #
vertex $-1 $261 $478 #
straight-curve $-1 -15.023996238442031 -31.020869156963272 14.406964809078813 -1 0 0 I I #
coedge $-1 $471 $262 $265 $388 reversed $373 $-1 #
coedge $-1 $262 $471 $379 $475 forward $373 $-1 #
vertex $-1 $263 $479 #
straight-curve $-1 -20.552161712018307 -43.682960348954865 48.664292302443442 0 0 1 I I #
straight-curve $-1 -20.552161712018307 -43.682960348954879 0.82853408141143348 0 -0.68199835119979291 -0.73135370988377701 I I #
edge $-1 $473 -39.54382324174982 $266 -20.552161712018307 $383 $480 forward 7 unknown #
point $-1 -20.552161712018307 -43.682960348954865 14.406964809078813 #
point $-1 -20.552161712018307 -31.020869156963272 14.406964809078813 #
edge $-1 $481 1 $481 0 $269 $-1 forward 7 unknown #
vertex $-1 $270 $482 #
ellipse-curve $-1 -34.117634233255103 -30.691567336415929 1.4068751512977182 0 -0.73135370988377701 0.68199835119979291 2.5 0 0 1 I I #
point $-1 -31.617634233255103 -37.351914752959054 7.6177494452451109 #
edge $-1 $483 1 $483 0 $273 $-1 forward 7 unknown #
vertex $-1 $274 $484 #
ellipse-curve $-1 -25.978350720513028 -30.691567336415929 1.4068751512977182 0 -0.73135370988377701 0.68199835119979291 2.5 0 0 1 I I #
point $-1 -23.478350720513028 -37.351914752959054 7.6177494452451109 #
plane-surface $-1 0 0 14.406964809078813 0 0 1 1 0 0 forward_v I I I I #
coedge $-1 $410 $409 $402 $485 forward $278 $-1 #
coedge $-1 $402 $280 $282 $406 reversed $179 $-1 #
coedge $-1 $280 $401 $400 $485 reversed $179 $-1 #
coedge $-1 $288 $283 $280 $404 forward $289 $-1 #
edge $-1 $407 -42.562429623201965 $486 -29.900338431210372 $403 $487 forward 7 unknown #
coedge $-1 $282 $281 $410 $488 reversed $112 $-1 #
edge $-1 $489 2.0815709956562115e-014 $407 18.56616100275911 $401 $490 forward 7 unknown #
vertex $-1 $284 $491 #
straight-curve $-1 17.075814626118294 -31.020869156963272 14.406964809078813 -1 0 0 I I #
coedge $-1 $400 $285 $288 $414 reversed $278 $-1 #
coedge $-1 $285 $400 $405 $488 forward $278 $-1 #
vertex $-1 $286 $492 #
straight-curve $-1 43.647460017102347 -43.682960348954865 48.664292302443442 0 0 1 I I #
straight-curve $-1 43.647460017102347 -43.682960348954879 0.82853408141143348 0 -0.68199835119979291 -0.73135370988377701 I I #
edge $-1 $486 24.655798487370834 $290 43.647460017102347 $409 $493 forward 7 unknown #
point $-1 43.647460017102347 -43.682960348954865 14.406964809078813 #
point $-1 43.647460017102347 -31.020869156963272 14.406964809078813 #
edge $-1 $494 1 $494 0 $293 $-1 forward 7 unknown #
vertex $-1 $294 $495 #
ellipse-curve $-1 30.081987495865548 -30.691567336415929 1.4068751512977182 0 -0.73135370988377701 0.68199835119979291 2.5 0 0 1 I I #
point $-1 32.581987495865548 -37.351914752959054 7.6177494452451109 #
edge $-1 $496 1 $496 0 $297 $-1 forward 7 unknown #
vertex $-1 $298 $497 #
ellipse-curve $-1 38.22127100860763 -30.691567336415929 1.4068751512977182 0 -0.73135370988377701 0.68199835119979291 2.5 0 0 1 I I #
point $-1 40.72127100860763 -37.351914752959054 7.6177494452451109 #
plane-surface $-1 70.748008667256698 0 0 -1 0 0 0 0 1 forward_v I I I I #
coedge $-1 $306 $304 $308 $430 reversed $201 $-1 #
edge $-1 $319 -14.406964809078813 $432 14.406964809078813 $318 $498 forward 7 unknown #
vertex $-1 $430 $499 #
straight-curve $-1 -70.748008667256698 -43.682960348954865 0 0 0 -1 I I #
edge $-1 $428 -43.682960348954865 $432 43.682960348954865 $426 $500 forward 7 unknown #
straight-curve $-1 0 -43.682960348954865 -14.406964809078813 -1 0 0 I I #
vertex $-1 $311 $501 #
straight-curve $-1 0 43.682960348954865 -14.406964809078813 1 0 0 I I #
point $-1 70.748008667256698 43.682960348954865 -14.406964809078813 #
point $-1 70.748008667256698 -43.682960348954865 -14.406964809078813 #
straight-curve $-1 -70.748008667256698 0 14.406964809078813 0 -1 0 I I #
point $-1 -70.748008667256698 43.682960348954865 14.406964809078813 #
point $-1 -70.748008667256698 -43.682960348954865 14.406964809078813 #
straight-curve $-1 70.748008667256698 -43.682960348954865 0 0 0 -1 I I #
straight-curve $-1 70.748008667256698 43.682960348954865 0 0 0 -1 I I #
plane-surface $-1 0 0 14.406964809078813 0 0 1 1 0 0 forward_v I I I I #
coedge $-1 $333 $330 $335 $449 reversed $220 $-1 #
coedge $-1 $330 $333 $455 $502 reversed $220 $-1 #
edge $-1 $457 -14.406964809078813 $451 14.406964809078813 $347 $503 forward 7 unknown #
edge $-1 $446 -6.5483869381360478 $345 6.5483869381360478 $332 $504 forward 7 unknown #
vertex $-1 $502 $505 #
vertex $-1 $449 $506 #
straight-curve $-1 -83.844782543528794 -25.07705555198325 0 0 0 -1 I I #
edge $-1 $447 -4.1339947271462663 $451 4.1339947271462663 $442 $507 forward 7 unknown #
straight-curve $-1 -77.296395605392746 -25.07705555198325 -14.406964809078813 -1 0 0 I I #
vertex $-1 $337 $508 #
straight-curve $-1 -77.296395605392746 -16.809066097690717 -14.406964809078813 1 0 0 I I #
point $-1 -70.748008667256698 -25.07705555198325 -14.406964809078813 #
straight-curve $-1 -70.748008667256698 -25.07705555198325 0 0 0 -1 I I #
coedge $-1 $343 $342 $443 $502 forward $344 $-1 #
point $-1 -70.748008667256698 -25.07705555198325 14.406964809078813 #
vertex $-1 $348 $509 #
straight-curve $-1 -77.296395605392746 -16.809066097690717 14.406964809078813 -1 0 0 I I #
coedge $-1 $362 $361 $354 $460 forward $351 $-1 #
edge $-1 $461 66.857754285062896 $464 79.13072164916187 $459 $510 forward 7 unknown #
vertex $-1 $366 $511 #
straight-curve $-1 68.179600541296821 43.791591846652089 14.406964809078815 0 1 0 I I #
edge $-1 $464 -38.8830729101701 $363 -19.709982352083344 $362 $512 forward 7 unknown #
vertex $-1 $463 $513 #
straight-curve $-1 68.179600541296821 -15.900453518071416 66.02938766480797 0 -0.68199835119979291 0.73135370988377701 I I #
point $-1 68.179600541296821 32.238233408314187 14.406964809078815 #
point $-1 49.006509983210066 43.682960348954857 2.1339974449798476 #
straight-curve $-1 0 43.682960348954865 14.406964809078813 -1 0 0 I I #
vertex $-1 $369 $514 #
point $-1 60.593055262253444 33.315841270040067 3.9391765558242398 #
coedge $-1 $384 $383 $376 $472 forward $373 $-1 #
edge $-1 $473 34.257327493364627 $476 47.835758221031995 $471 $515 forward 7 unknown #
vertex $-1 $388 $516 #
straight-curve $-1 -39.54382324174982 -73.583298780165237 14.406964809078815 0 -1 0 I I #
edge $-1 $476 -24.519827003307789 $385 -5.5281654735762764 $384 $517 forward 7 unknown #
vertex $-1 $475 $518 #
straight-curve $-1 -39.54382324174982 -43.682960348954879 0.82853408141143348 0 0.68199835119979291 0.73135370988377701 I I #
point $-1 -39.54382324174982 -31.020869156963272 14.406964809078813 #
point $-1 -20.552161712018307 -43.682960348954865 0.82853408141144869 #
straight-curve $-1 0 -43.682960348954865 14.406964809078813 1 0 0 I I #
vertex $-1 $391 $519 #
point $-1 -31.617634233255103 -30.691567336415929 1.4068751512977182 #
vertex $-1 $395 $520 #
point $-1 -23.478350720513028 -30.691567336415929 1.4068751512977182 #
edge $-1 $486 34.257327493364627 $489 47.835758221031995 $400 $521 forward 7 unknown #
vertex $-1 $414 $522 #
straight-curve $-1 24.655798487370834 -73.583298780165237 14.406964809078815 0 -1 0 I I #
edge $-1 $489 7.5799838612525399 $411 26.571645390984052 $410 $523 forward 7 unknown #
vertex $-1 $488 $524 #
straight-curve $-1 24.655798487370834 -43.682960348954879 0.82853408141143348 0 0.68199835119979291 0.73135370988377701 I I #
point $-1 24.655798487370834 -31.020869156963272 14.406964809078813 #
point $-1 43.647460017102347 -43.682960348954865 0.82853408141144869 #
straight-curve $-1 0 -43.682960348954865 14.406964809078813 1 0 0 I I #
vertex $-1 $417 $525 #
point $-1 32.581987495865548 -30.691567336415929 1.4068751512977182 #
vertex $-1 $421 $526 #
point $-1 40.72127100860763 -30.691567336415929 1.4068751512977182 #
straight-curve $-1 -70.748008667256698 43.682960348954865 0 0 0 -1 I I #
point $-1 -70.748008667256698 -43.682960348954865 -14.406964809078813 #
straight-curve $-1 -70.748008667256698 0 -14.406964809078813 0 1 0 I I #
point $-1 -70.748008667256698 43.682960348954865 -14.406964809078813 #
edge $-1 $457 -4.1339947271462663 $446 4.1339947271462663 $443 $527 forward 7 unknown #
straight-curve $-1 -83.844782543528794 -16.809066097690717 0 0 0 -1 I I #
straight-curve $-1 -77.296395605392746 -25.07705555198325 14.406964809078813 1 0 0 I I #
point $-1 -83.844782543528794 -25.07705555198325 14.406964809078813 #
point $-1 -83.844782543528794 -25.07705555198325 -14.406964809078813 #
straight-curve $-1 -83.844782543528794 -20.943060824836984 -14.406964809078813 0 1 0 I I #
point $-1 -83.844782543528794 -16.809066097690717 -14.406964809078813 #
point $-1 -83.844782543528794 -16.809066097690717 14.406964809078813 #
straight-curve $-1 68.179600541296821 43.682960348954865 81.264719094141711 0 0 -1 I I #
point $-1 68.179600541296821 43.682960348954865 14.406964809078813 #
straight-curve $-1 29.296527631126722 43.682960348954865 2.1339974449798369 -1 0 0 I I #
point $-1 68.179600541296821 43.682960348954857 2.1339974449798476 #
point $-1 58.593055262253444 31.853133850272513 2.5751798534246539 #
straight-curve $-1 -39.54382324174982 -43.682960348954865 48.664292302443442 0 0 -1 I I #
point $-1 -39.54382324174982 -43.682960348954865 14.406964809078813 #
straight-curve $-1 -15.023996238442031 -43.682960348954865 0.82853408141144491 1 0 0 I I #
point $-1 -39.54382324174982 -43.682960348954865 0.82853408141144869 #
point $-1 -34.117634233255103 -28.863183061706486 -0.29812072670176404 #
point $-1 -25.978350720513028 -28.863183061706486 -0.29812072670176404 #
straight-curve $-1 24.655798487370834 -43.682960348954865 48.664292302443442 0 0 -1 I I #
point $-1 24.655798487370834 -43.682960348954865 14.406964809078813 #
straight-curve $-1 17.075814626118294 -43.682960348954865 0.82853408141144491 1 0 0 I I #
point $-1 24.655798487370834 -43.682960348954865 0.82853408141144869 #
point $-1 30.081987495865548 -28.863183061706486 -0.29812072670176404 #
point $-1 38.22127100860763 -28.863183061706486 -0.29812072670176404 #
straight-curve $-1 -83.844782543528794 -20.943060824836984 14.406964809078813 0 -1 0 I I #
End-of-ACIS-data 