500 0 9 0           
7 Unknown 11 ACIS 5.0 NT 24 Fri Mar 26 17:00:55 1999 
-1 9.9999999999999995e-007 1e-010 
body $-1 $9 $-1 $10 #
body $-1 $11 $-1 $12 #
body $-1 $13 $-1 $14 #
body $-1 $15 $-1 $16 #
body $-1 $17 $-1 $18 #
body $-1 $19 $-1 $20 #
body $-1 $21 $-1 $22 #
body $-1 $23 $-1 $24 #
body $-1 $25 $-1 $26 #
lump $-1 $-1 $27 $0 #
transform $-1 1 0 0 0 1 0 0 0 1 56.187017426068905 30.333650305655574 14.196744518186334 1 rotate no_reflect no_shear #
lump $-1 $-1 $28 $1 #
transform $-1 1 0 0 0 1 0 0 0 1 56.187017426068905 30.333650305655574 14.196744518186334 1 rotate no_reflect no_shear #
lump $-1 $-1 $29 $2 #
transform $-1 1 0 0 0 1 0 0 0 1 56.187017426068905 30.333650305655574 14.196744518186334 1 rotate no_reflect no_shear #
lump $-1 $-1 $30 $3 #
transform $-1 1 0 0 0 1 0 0 0 1 56.187017426068905 30.333650305655574 14.196744518186334 1 rotate no_reflect no_shear #
lump $-1 $-1 $31 $4 #
transform $-1 1 0 0 0 1 0 0 0 1 56.187017426068905 30.333650305655574 14.196744518186334 1 rotate no_reflect no_shear #
lump $-1 $-1 $32 $5 #
transform $-1 1 0 0 0 1 0 0 0 1 56.187017426068905 30.333650305655574 14.196744518186334 1 rotate no_reflect no_shear #
lump $-1 $-1 $33 $6 #
transform $-1 1 0 0 0 1 0 0 0 1 56.187017426068905 30.333650305655574 14.196744518186334 1 rotate no_reflect no_shear #
lump $-1 $-1 $34 $7 #
transform $-1 1 0 0 0 1 0 0 0 1 56.187017426068905 30.333650305655574 14.196744518186334 1 rotate no_reflect no_shear #
lump $-1 $-1 $35 $8 #
transform $-1 1 0 0 0 1 0 0 0 1 56.187017426068905 30.333650305655574 14.196744518186334 1 rotate no_reflect no_shear #
shell $-1 $-1 $-1 $36 $-1 $9 #
shell $-1 $-1 $-1 $37 $-1 $11 #
shell $-1 $-1 $-1 $38 $-1 $13 #
shell $-1 $-1 $-1 $39 $-1 $15 #
shell $-1 $-1 $-1 $40 $-1 $17 #
shell $-1 $-1 $-1 $41 $-1 $19 #
shell $-1 $-1 $-1 $42 $-1 $21 #
shell $-1 $-1 $-1 $43 $-1 $23 #
shell $-1 $-1 $-1 $44 $-1 $25 #
face $-1 $45 $46 $27 $-1 $47 forward single #
face $-1 $48 $49 $28 $-1 $50 reversed single #
face $-1 $51 $52 $29 $-1 $53 forward single #
face $-1 $54 $55 $30 $-1 $56 reversed single #
face $-1 $57 $58 $31 $-1 $59 forward single #
face $-1 $60 $61 $32 $-1 $62 forward single #
face $-1 $63 $64 $33 $-1 $65 reversed single #
face $-1 $66 $67 $34 $-1 $68 forward single #
face $-1 $69 $70 $35 $-1 $71 forward single #
face $-1 $72 $73 $27 $-1 $74 reversed single #
loop $-1 $-1 $75 $36 #
plane-surface $-1 0 0 14.196744518186334 0 0 1 1 0 0 forward_v I I I I #
face $-1 $76 $77 $28 $-1 $78 reversed single #
loop $-1 $-1 $79 $37 #
plane-surface $-1 -30.793528389696238 -24.175204177279245 0 1 0 0 0 0 -1 forward_v I I I I #
face $-1 $80 $81 $29 $-1 $82 reversed single #
loop $-1 $-1 $83 $38 #
plane-surface $-1 0 25.102981599957815 3.6998886311683217 0 0 1 1 0 0 forward_v I I I I #
face $-1 $84 $85 $30 $-1 $86 reversed single #
loop $-1 $-1 $87 $39 #
plane-surface $-1 89.228529439769716 3.5068630712040605 161.49699524479632 0 -1 0 -0.83867057594974714 0 -0.54463902268945019 forward_v I I I I #
face $-1 $88 $89 $31 $-1 $90 forward single #
loop $-1 $91 $92 $40 #
cone-surface $-1 53.092066269276735 -2.9466538681609578 9.8310376751261863 -0.83867057594974714 0 -0.54463902268945019 0.54463902268945019 0 -0.83867057594974714 1 I I 0 1 1 forward I I I I #
face $-1 $93 $94 $32 $-1 $95 forward single #
loop $-1 $96 $97 $41 #
cone-surface $-1 53.092066269276735 0.92545629545805497 9.8310376751261863 -0.83867057594974714 0 -0.54463902268945019 0.54463902268945019 0 -0.83867057594974714 1 I I 0 1 1 forward I I I I #
face $-1 $98 $99 $33 $-1 $100 reversed single #
loop $-1 $-1 $101 $42 #
plane-surface $-1 -135.64746042125284 -0.8956928857593347 84.749396858333384 0 1 0 -0.70710678939079041 0 0.70710677298230451 forward_v I I I I #
face $-1 $102 $103 $34 $-1 $104 forward single #
loop $-1 $105 $106 $43 #
cone-surface $-1 -50.460753867910952 1.2816813349597851 8.4704808862007575 0.70710678939079041 0 -0.70710677298230451 0.70710677298230451 0 0.70710678939079041 1 I I 0 1 1 forward I I I I #
face $-1 $107 $108 $35 $-1 $109 forward single #
loop $-1 $110 $111 $44 #
cone-surface $-1 -50.460753867910952 4.5477426660384666 8.4704808862007575 0.70710678939079041 0 -0.70710677298230451 0.70710677298230451 0 0.70710678939079041 1 I I 0 1 1 forward I I I I #
face $-1 $112 $113 $27 $-1 $114 reversed single #
loop $-1 $-1 $115 $45 #
plane-surface $-1 0 0 -14.196744518186334 0 0 1 1 0 0 forward_v I I I I #
coedge $-1 $116 $117 $118 $119 forward $46 $-1 #
face $-1 $120 $121 $28 $-1 $122 reversed single #
loop $-1 $-1 $123 $48 #
plane-surface $-1 -29.293528389696238 -18.016758048902915 0 0 -1 0 0 0 -1 forward_v I I I I #
coedge $-1 $124 $125 $126 $127 forward $49 $-1 #
face $-1 $128 $129 $29 $-1 $130 reversed single #
loop $-1 $-1 $131 $51 #
plane-surface $-1 0 25.102981599957815 0.093836669595250832 0 0 1 1 0 0 forward_v I I I I #
coedge $-1 $132 $133 $134 $135 reversed $52 $-1 #
face $-1 $136 $137 $30 $-1 $138 reversed single #
loop $-1 $-1 $139 $54 #
plane-surface $-1 -5.0162670914696577 -1.0105987863514514 100.29371072725777 0.83867057594974714 0 0.54463902268945019 0.54463902268945019 0 -0.83867057594974714 forward_v I I I I #
coedge $-1 $140 $141 $142 $143 reversed $55 $-1 #
face $-1 $-1 $144 $31 $-1 $145 forward single #
loop $-1 $146 $147 $57 #
cone-surface $-1 52.223411179037456 -2.9466538681609578 9.266926481805287 -0.83867057594974714 0 -0.54463902268945019 0.2723195113447251 0 -0.41933528797487357 1 I I -0.70710678118654879 0.70710678118654635 0.5 forward I I I I #
loop $-1 $-1 $148 $40 #
coedge $-1 $92 $92 $149 $150 reversed $58 $-1 #
face $-1 $-1 $151 $32 $-1 $152 forward single #
loop $-1 $153 $154 $60 #
cone-surface $-1 52.223411179037456 0.92545629545805497 9.266926481805287 -0.83867057594974714 0 -0.54463902268945019 0.2723195113447251 0 -0.41933528797487357 1 I I -0.70710678118654879 0.70710678118654635 0.5 forward I I I I #
loop $-1 $-1 $155 $41 #
coedge $-1 $97 $97 $156 $157 reversed $61 $-1 #
face $-1 $158 $159 $33 $-1 $160 reversed single #
loop $-1 $-1 $161 $63 #
plane-surface $-1 -56.187017426068891 2.9147120004991294 5.2889557070372035 -0.70710678939079041 0 0.70710677298230451 0.70710677298230451 0 0.70710678939079041 forward_v I I I I #
coedge $-1 $162 $163 $164 $165 reversed $64 $-1 #
face $-1 $-1 $166 $34 $-1 $167 forward single #
loop $-1 $168 $169 $66 #
cone-surface $-1 -48.834831217279081 1.2816813349597851 6.8445582732985901 0.70710678939079041 0 -0.70710677298230451 0.35355338649115226 0 0.35355339469539521 1 I I -0.70710678118654746 0.70710678118654746 0.5 forward I I I I #
loop $-1 $-1 $170 $43 #
coedge $-1 $106 $106 $171 $172 reversed $67 $-1 #
face $-1 $-1 $173 $35 $-1 $174 forward single #
loop $-1 $175 $176 $69 #
cone-surface $-1 -48.834831217279081 4.5477426660384666 6.8445582732985901 0.70710678939079041 0 -0.70710677298230451 0.35355338649115226 0 0.35355339469539521 1 I I -0.70710678118654746 0.70710678118654746 0.5 forward I I I I #
loop $-1 $-1 $177 $44 #
coedge $-1 $111 $111 $178 $179 reversed $70 $-1 #
face $-1 $180 $181 $27 $-1 $182 reversed single #
loop $-1 $-1 $183 $72 #
plane-surface $-1 0 -30.333650305655574 0 0 1 0 0 0 1 forward_v I I I I #
coedge $-1 $184 $185 $186 $187 forward $73 $-1 #
coedge $-1 $188 $75 $189 $190 forward $46 $-1 #
coedge $-1 $75 $188 $191 $192 forward $46 $-1 #
coedge $-1 $193 $194 $75 $119 reversed $195 $-1 #
edge $-1 $196 -30.333650305655574 $197 30.333650305655574 $118 $198 forward 7 unknown #
face $-1 $199 $200 $28 $-1 $201 forward single #
loop $-1 $-1 $202 $76 #
plane-surface $-1 -27.793528389696238 -24.175204177279245 0 -1 0 0 0 0 1 forward_v I I I I #
coedge $-1 $203 $204 $205 $206 forward $77 $-1 #
coedge $-1 $207 $79 $208 $209 reversed $49 $-1 #
coedge $-1 $79 $207 $210 $211 reversed $49 $-1 #
coedge $-1 $204 $203 $79 $127 reversed $77 $-1 #
edge $-1 $212 -14.196744518186334 $213 14.196744518186334 $126 $214 forward 7 unknown #
face $-1 $215 $216 $29 $-1 $217 reversed single #
loop $-1 $-1 $218 $80 #
plane-surface $-1 0 19.872312894260055 1.8968626503817863 0 1 0 0 0 1 forward_v I I I I #
coedge $-1 $219 $220 $221 $222 reversed $81 $-1 #
coedge $-1 $223 $83 $224 $225 reversed $52 $-1 #
coedge $-1 $83 $223 $226 $227 forward $52 $-1 #
coedge $-1 $228 $229 $83 $135 forward $230 $-1 #
edge $-1 $231 -17.782159505676667 $232 -7.3208220942811479 $134 $233 forward 7 unknown #
face $-1 $234 $235 $30 $-1 $236 forward single #
loop $-1 $-1 $237 $84 #
plane-surface $-1 89.228529439769716 -5.5280606439069633 161.49699524479632 0 1 0 0.83867057594974714 0 0.54463902268945019 forward_v I I I I #
coedge $-1 $238 $239 $240 $241 reversed $85 $-1 #
coedge $-1 $141 $87 $242 $243 reversed $55 $-1 #
coedge $-1 $87 $140 $238 $244 reversed $55 $-1 #
coedge $-1 $240 $245 $87 $143 forward $235 $-1 #
edge $-1 $246 -11.572752706184048 $247 -6.2814899971285172 $142 $248 forward 7 unknown #
loop $-1 $-1 $149 $88 #
plane-surface $-1 -5.0162670914696577 -1.0105987863514514 100.29371072725777 0.83867057594974714 0 0.54463902268945019 0.54463902268945019 0 -0.83867057594974714 forward_v I I I I #
loop $-1 $-1 $249 $57 #
coedge $-1 $147 $147 $148 $250 reversed $89 $-1 #
coedge $-1 $148 $148 $147 $250 forward $91 $-1 #
coedge $-1 $149 $149 $92 $150 forward $144 $-1 #
edge $-1 $251 0 $251 6.2831853071796004 $149 $252 forward 7 unknown #
loop $-1 $-1 $156 $93 #
plane-surface $-1 -5.0162670914696577 -1.0105987863514514 100.29371072725777 0.83867057594974714 0 0.54463902268945019 0.54463902268945019 0 -0.83867057594974714 forward_v I I I I #
loop $-1 $-1 $253 $60 #
coedge $-1 $154 $154 $155 $254 reversed $94 $-1 #
coedge $-1 $155 $155 $154 $254 forward $96 $-1 #
coedge $-1 $156 $156 $97 $157 forward $151 $-1 #
edge $-1 $255 0 $255 6.2831853071796004 $156 $256 forward 7 unknown #
face $-1 $257 $258 $33 $-1 $259 reversed single #
loop $-1 $-1 $260 $98 #
plane-surface $-1 -135.64746042125284 6.7251168867575934 84.749396858333384 0 -1 0 0.70710678939079041 0 -0.70710677298230451 forward_v I I I I #
coedge $-1 $261 $262 $263 $264 reversed $99 $-1 #
coedge $-1 $163 $101 $265 $266 reversed $64 $-1 #
coedge $-1 $101 $162 $261 $267 reversed $64 $-1 #
coedge $-1 $263 $268 $101 $165 forward $269 $-1 #
edge $-1 $270 11.636712784557517 $271 20.544501389000501 $164 $272 forward 7 unknown #
loop $-1 $-1 $171 $102 #
plane-surface $-1 -56.187017426068891 2.9147120004991294 5.2889557070372035 -0.70710678939079041 0 0.70710677298230451 0.70710677298230451 0 0.70710678939079041 forward_v I I I I #
loop $-1 $-1 $273 $66 #
coedge $-1 $169 $169 $170 $274 reversed $103 $-1 #
coedge $-1 $170 $170 $169 $274 forward $105 $-1 #
coedge $-1 $171 $171 $106 $172 forward $166 $-1 #
edge $-1 $275 0 $275 6.2831853071796004 $171 $276 forward 7 unknown #
loop $-1 $-1 $178 $107 #
plane-surface $-1 -56.187017426068891 2.9147120004991294 5.2889557070372035 -0.70710678939079041 0 0.70710677298230451 0.70710677298230451 0 0.70710678939079041 forward_v I I I I #
loop $-1 $-1 $277 $69 #
coedge $-1 $176 $176 $177 $278 reversed $108 $-1 #
coedge $-1 $177 $177 $176 $278 forward $110 $-1 #
coedge $-1 $178 $178 $111 $179 forward $173 $-1 #
edge $-1 $279 0 $279 6.2831853071796004 $178 $280 forward 7 unknown #
face $-1 $281 $282 $27 $-1 $283 reversed single #
loop $-1 $-1 $284 $112 #
plane-surface $-1 -56.187017426068905 0 0 1 0 0 0 0 -1 forward_v I I I I #
coedge $-1 $285 $191 $286 $287 forward $113 $-1 #
coedge $-1 $288 $115 $285 $289 forward $73 $-1 #
coedge $-1 $115 $288 $290 $291 forward $73 $-1 #
coedge $-1 $194 $193 $115 $187 reversed $195 $-1 #
edge $-1 $292 -30.333650305655574 $293 30.333650305655574 $186 $294 forward 7 unknown #
coedge $-1 $117 $116 $295 $296 forward $46 $-1 #
coedge $-1 $297 $298 $116 $190 reversed $282 $-1 #
edge $-1 $197 -56.187017426068905 $299 56.187017426068905 $189 $300 forward 7 unknown #
coedge $-1 $183 $301 $117 $192 reversed $113 $-1 #
edge $-1 $302 -56.187017426068905 $196 56.187017426068905 $191 $303 forward 7 unknown #
coedge $-1 $186 $118 $301 $304 forward $195 $-1 #
coedge $-1 $118 $186 $297 $305 reversed $195 $-1 #
loop $-1 $-1 $193 $281 #
vertex $-1 $119 $306 #
vertex $-1 $119 $307 #
straight-curve $-1 56.187017426068905 0 14.196744518186334 0 1 0 I I #
face $-1 $308 $309 $28 $-1 $310 reversed single #
loop $-1 $-1 $311 $120 #
plane-surface $-1 0 0 14.196744518186334 0 0 1 1 0 0 forward_v I I I I #
coedge $-1 $312 $313 $314 $315 reversed $121 $-1 #
coedge $-1 $126 $123 $316 $317 reversed $77 $-1 #
coedge $-1 $123 $126 $318 $319 reversed $77 $-1 #
coedge $-1 $313 $312 $123 $206 reversed $121 $-1 #
edge $-1 $320 -14.196744518186334 $321 14.196744518186334 $205 $322 forward 7 unknown #
coedge $-1 $125 $124 $323 $324 reversed $49 $-1 #
coedge $-1 $316 $325 $124 $209 forward $309 $-1 #
edge $-1 $326 -18.246048217015954 $213 -5.9291559602632926 $208 $327 forward 7 unknown #
coedge $-1 $328 $318 $125 $211 forward $200 $-1 #
edge $-1 $212 5.9291559602632926 $329 18.246048217015954 $210 $330 forward 7 unknown #
vertex $-1 $211 $331 #
vertex $-1 $209 $332 #
straight-curve $-1 -30.793528389696238 -18.016758048902915 0 0 0 -1 I I #
face $-1 $333 $230 $29 $-1 $334 reversed single #
loop $-1 $-1 $335 $128 #
plane-surface $-1 -56.187017426068905 0 0 1 0 0 0 0 -1 forward_v I I I I #
coedge $-1 $336 $226 $337 $338 reversed $129 $-1 #
coedge $-1 $339 $131 $336 $340 forward $81 $-1 #
coedge $-1 $131 $339 $341 $342 reversed $81 $-1 #
coedge $-1 $229 $228 $131 $222 forward $230 $-1 #
edge $-1 $343 7.3208220942811479 $344 17.782159505676667 $221 $345 forward 7 unknown #
coedge $-1 $133 $132 $346 $347 reversed $52 $-1 #
coedge $-1 $348 $349 $132 $225 forward $350 $-1 #
edge $-1 $351 -56.187017426068905 $231 56.187017426068905 $224 $352 forward 7 unknown #
coedge $-1 $218 $353 $133 $227 reversed $129 $-1 #
edge $-1 $354 -56.187017426068905 $232 56.187017426068905 $226 $355 forward 7 unknown #
coedge $-1 $221 $134 $353 $356 forward $230 $-1 #
coedge $-1 $134 $221 $348 $357 reversed $230 $-1 #
loop $-1 $-1 $134 $215 #
vertex $-1 $357 $358 #
vertex $-1 $135 $359 #
straight-curve $-1 56.187017426068905 12.551490799978907 3.6998886311683217 0 -1 0 I I #
face $-1 $-1 $360 $30 $-1 $361 reversed single #
loop $-1 $-1 $142 $136 #
plane-surface $-1 0 0 14.196744518186334 0 0 1 1 0 0 forward_v I I I I #
coedge $-1 $362 $363 $364 $365 reversed $137 $-1 #
coedge $-1 $366 $139 $141 $244 forward $85 $-1 #
coedge $-1 $139 $366 $362 $367 forward $85 $-1 #
coedge $-1 $364 $142 $139 $241 forward $235 $-1 #
edge $-1 $247 -4.0121624643797862 $368 5.0227612507312376 $240 $369 forward 7 unknown #
coedge $-1 $370 $371 $140 $243 forward $360 $-1 #
edge $-1 $372 -74.699583426379775 $246 -66.551753104211826 $242 $373 forward 7 unknown #
edge $-1 $247 102.65886115245129 $372 112.37403485213784 $141 $374 forward 7 unknown #
coedge $-1 $142 $364 $370 $375 forward $235 $-1 #
vertex $-1 $243 $376 #
vertex $-1 $143 $377 #
straight-curve $-1 44.614264719884858 3.5068630712040605 14.196744518186335 -1 0 0 I I #
coedge $-1 $249 $249 $-1 $378 reversed $146 $-1 #
edge $-1 $379 0 $379 6.2831853071796004 $147 $380 forward 7 unknown #
vertex $-1 $150 $381 #
ellipse-curve $-1 53.54138607154114 -2.9466538681609578 10.12282935710236 0.83867057594974714 0 0.54463902268945019 0.54463902268945019 0 -0.83867057594974714 1 I I #
coedge $-1 $253 $253 $-1 $382 reversed $153 $-1 #
edge $-1 $383 0 $383 6.2831853071796004 $154 $384 forward 7 unknown #
vertex $-1 $157 $385 #
ellipse-curve $-1 53.54138607154114 0.92545629545805497 10.12282935710236 0.83867057594974714 0 0.54463902268945019 0.54463902268945019 0 -0.83867057594974714 1 I I #
face $-1 $-1 $269 $33 $-1 $386 forward single #
loop $-1 $-1 $387 $158 #
plane-surface $-1 -56.187017426068905 0 0 1 0 0 0 0 -1 forward_v I I I I #
coedge $-1 $388 $389 $390 $391 reversed $159 $-1 #
coedge $-1 $392 $161 $163 $267 forward $99 $-1 #
coedge $-1 $161 $392 $388 $393 forward $99 $-1 #
coedge $-1 $390 $164 $161 $264 forward $269 $-1 #
edge $-1 $271 -2.3530488860088994 $394 5.2677608865080288 $263 $395 forward 7 unknown #
coedge $-1 $396 $397 $162 $266 forward $258 $-1 #
edge $-1 $398 -37.085742722129503 $270 -28.177953910980357 $265 $399 forward 7 unknown #
edge $-1 $271 -12.597515601319087 $398 2.0097183471152325e-014 $163 $400 forward 7 unknown #
coedge $-1 $164 $390 $396 $401 forward $269 $-1 #
loop $-1 $-1 $390 $257 #
vertex $-1 $266 $402 #
vertex $-1 $165 $403 #
straight-curve $-1 -67.823730210626422 -0.8956928857593347 14.196744518186335 1 0 0 I I #
coedge $-1 $273 $273 $-1 $404 reversed $168 $-1 #
edge $-1 $405 0 $405 6.2831853071796004 $169 $406 forward 7 unknown #
vertex $-1 $172 $407 #
ellipse-curve $-1 -51.733123123847413 1.2816813349597851 9.7428501126117588 -0.70710678939079041 0 0.70710677298230451 0.70710677298230451 0 0.70710678939079041 1 I I #
coedge $-1 $277 $277 $-1 $408 reversed $175 $-1 #
edge $-1 $409 0 $409 6.2831853071796004 $176 $410 forward 7 unknown #
vertex $-1 $179 $411 #
ellipse-curve $-1 -51.733123123847413 4.5477426660384666 9.7428501126117588 -0.70710678939079041 0 0.70710677298230451 0.70710677298230451 0 0.70710678939079041 1 I I #
face $-1 $-1 $195 $27 $-1 $412 reversed single #
loop $-1 $-1 $297 $180 #
plane-surface $-1 0 30.333650305655574 0 0 -1 0 0 0 -1 forward_v I I I I #
coedge $-1 $413 $295 $298 $414 forward $181 $-1 #
coedge $-1 $301 $183 $184 $289 reversed $113 $-1 #
coedge $-1 $295 $413 $183 $287 reversed $181 $-1 #
edge $-1 $302 -14.196744518186334 $415 14.196744518186334 $286 $416 forward 7 unknown #
coedge $-1 $185 $184 $413 $417 forward $73 $-1 #
edge $-1 $293 -56.187017426068905 $415 56.187017426068905 $285 $418 forward 7 unknown #
coedge $-1 $298 $297 $185 $291 reversed $282 $-1 #
edge $-1 $419 -56.187017426068905 $292 56.187017426068905 $290 $420 forward 7 unknown #
vertex $-1 $187 $421 #
vertex $-1 $304 $422 #
straight-curve $-1 56.187017426068905 0 -14.196744518186334 0 -1 0 I I #
coedge $-1 $284 $286 $188 $296 reversed $181 $-1 #
edge $-1 $299 -30.333650305655574 $302 30.333650305655574 $295 $423 forward 7 unknown #
coedge $-1 $290 $189 $194 $305 forward $282 $-1 #
coedge $-1 $189 $290 $284 $414 reversed $282 $-1 #
vertex $-1 $190 $424 #
straight-curve $-1 0 30.333650305655574 14.196744518186334 -1 0 0 I I #
coedge $-1 $191 $285 $193 $304 reversed $113 $-1 #
vertex $-1 $296 $425 #
straight-curve $-1 0 -30.333650305655574 14.196744518186334 1 0 0 I I #
edge $-1 $196 -14.196744518186334 $293 14.196744518186334 $193 $426 forward 7 unknown #
edge $-1 $197 -14.196744518186334 $292 14.196744518186334 $194 $427 forward 7 unknown #
point $-1 56.187017426068905 -30.333650305655574 14.196744518186334 #
point $-1 56.187017426068905 30.333650305655574 14.196744518186334 #
face $-1 $-1 $428 $28 $-1 $429 reversed single #
loop $-1 $-1 $430 $199 #
plane-surface $-1 0 0 -14.196744518186334 0 0 1 1 0 0 forward_v I I I I #
coedge $-1 $318 $328 $313 $431 forward $200 $-1 #
coedge $-1 $205 $202 $430 $432 reversed $121 $-1 #
coedge $-1 $202 $205 $311 $431 reversed $121 $-1 #
coedge $-1 $433 $434 $202 $315 forward $428 $-1 #
edge $-1 $435 -14.196744518186334 $436 14.196744518186334 $314 $437 forward 7 unknown #
coedge $-1 $430 $208 $203 $317 forward $309 $-1 #
edge $-1 $213 -16.146764194848117 $321 -13.146764194848119 $316 $438 forward 7 unknown #
coedge $-1 $210 $311 $204 $319 forward $200 $-1 #
edge $-1 $320 13.146764194848119 $212 16.146764194848117 $318 $439 forward 7 unknown #
vertex $-1 $319 $440 #
vertex $-1 $317 $441 #
straight-curve $-1 -27.793528389696238 -18.016758048902915 0 0 0 -1 I I #
coedge $-1 $434 $433 $207 $324 forward $428 $-1 #
edge $-1 $329 -14.196744518186334 $326 14.196744518186334 $323 $442 forward 7 unknown #
coedge $-1 $208 $430 $434 $443 forward $309 $-1 #
vertex $-1 $209 $444 #
straight-curve $-1 -30.793528389696238 -12.087602088639622 -14.196744518186334 0 1 0 I I #
coedge $-1 $311 $210 $433 $445 forward $200 $-1 #
vertex $-1 $445 $446 #
straight-curve $-1 -30.793528389696238 -12.087602088639622 14.196744518186334 0 -1 0 I I #
point $-1 -30.793528389696238 -18.016758048902915 14.196744518186334 #
point $-1 -30.793528389696238 -18.016758048902915 -14.196744518186334 #
face $-1 $-1 $350 $29 $-1 $447 reversed single #
plane-surface $-1 56.187017426068905 0 0 -1 0 0 0 0 1 forward_v I I I I #
coedge $-1 $337 $448 $339 $449 forward $216 $-1 #
coedge $-1 $353 $218 $219 $340 reversed $129 $-1 #
coedge $-1 $346 $335 $218 $338 forward $216 $-1 #
edge $-1 $450 -0.85459465559564229 $354 2.7514573059774285 $337 $451 forward 7 unknown #
coedge $-1 $220 $219 $335 $449 reversed $81 $-1 #
edge $-1 $343 -56.187017426068905 $450 56.187017426068905 $336 $452 forward 7 unknown #
coedge $-1 $349 $348 $220 $342 forward $350 $-1 #
edge $-1 $344 -56.187017426068905 $453 56.187017426068905 $341 $454 forward 7 unknown #
vertex $-1 $222 $455 #
vertex $-1 $222 $456 #
straight-curve $-1 56.187017426068905 12.551490799978907 0.093836669595250832 0 1 0 I I #
coedge $-1 $448 $337 $223 $347 forward $216 $-1 #
edge $-1 $354 7.3208220942811479 $351 17.782159505676667 $346 $457 forward 7 unknown #
coedge $-1 $341 $224 $229 $357 forward $350 $-1 #
coedge $-1 $224 $341 $448 $458 reversed $350 $-1 #
loop $-1 $-1 $341 $333 #
vertex $-1 $458 $459 #
straight-curve $-1 0 30.333650305655574 3.6998886311683217 1 0 0 I I #
coedge $-1 $226 $336 $228 $356 reversed $129 $-1 #
vertex $-1 $347 $460 #
straight-curve $-1 0 19.872312894260055 3.6998886311683217 1 0 0 I I #
edge $-1 $232 -2.7514573059774285 $343 0.85459465559564229 $228 $461 forward 7 unknown #
edge $-1 $231 -3.6998886311683217 $344 -0.093836669595250832 $229 $462 forward 7 unknown #
point $-1 56.187017426068905 30.333650305655574 3.6998886311683217 #
point $-1 56.187017426068905 19.872312894260055 3.6998886311683217 #
loop $-1 $-1 $242 $234 #
plane-surface $-1 56.187017426068905 0 0 -1 0 0 0 0 1 forward_v I I I I #
coedge $-1 $363 $237 $239 $367 reversed $137 $-1 #
coedge $-1 $237 $362 $463 $464 reversed $137 $-1 #
coedge $-1 $245 $240 $237 $365 forward $235 $-1 #
edge $-1 $368 6.2814899971285172 $465 11.572752706184048 $364 $466 forward 7 unknown #
coedge $-1 $239 $238 $371 $467 reversed $85 $-1 #
edge $-1 $468 -112.37403485213784 $368 -102.65886115245129 $362 $469 forward 7 unknown #
vertex $-1 $241 $470 #
straight-curve $-1 50.895754717013375 -0.5052993931757257 14.196744518186335 0 -1 0 I I #
coedge $-1 $463 $242 $245 $375 reversed $360 $-1 #
coedge $-1 $242 $463 $366 $467 forward $360 $-1 #
vertex $-1 $243 $471 #
straight-curve $-1 56.187017426068905 3.5068630712040605 80.748497622398162 0 0 1 I I #
straight-curve $-1 -5.0162670914696577 3.5068630712040605 100.29371072725777 0.54463902268945019 0 -0.83867057594974714 I I #
edge $-1 $465 -5.5280606439069633 $246 3.5068630712040605 $370 $472 forward 7 unknown #
point $-1 56.187017426068905 3.5068630712040605 14.196744518186334 #
point $-1 50.895754717013375 3.5068630712040605 14.196744518186335 #
edge $-1 $473 1 $473 0 $249 $-1 forward 7 unknown #
vertex $-1 $250 $474 #
ellipse-curve $-1 52.64274646701233 -2.9466538681609578 9.5392459931500113 0.83867057594974714 0 0.54463902268945019 0.54463902268945019 0 -0.83867057594974714 1 I I #
point $-1 54.086025094230592 -2.9466538681609578 9.2841587811526125 #
edge $-1 $475 1 $475 0 $253 $-1 forward 7 unknown #
vertex $-1 $254 $476 #
ellipse-curve $-1 52.64274646701233 0.92545629545805497 9.5392459931500113 0.83867057594974714 0 0.54463902268945019 0.54463902268945019 0 -0.83867057594974714 1 I I #
point $-1 54.086025094230592 0.92545629545805497 9.2841587811526125 #
plane-surface $-1 0 0 14.196744518186334 0 0 1 1 0 0 forward_v I I I I #
coedge $-1 $397 $396 $389 $477 forward $258 $-1 #
coedge $-1 $389 $260 $262 $393 reversed $159 $-1 #
coedge $-1 $260 $388 $387 $477 reversed $159 $-1 #
coedge $-1 $268 $263 $260 $391 forward $269 $-1 #
edge $-1 $394 -20.544501389000501 $478 -11.636712784557517 $390 $479 forward 7 unknown #
coedge $-1 $262 $261 $397 $480 reversed $99 $-1 #
edge $-1 $481 -2.0097183471152325e-014 $394 12.597515601319087 $388 $482 forward 7 unknown #
vertex $-1 $264 $483 #
straight-curve $-1 -47.279228821625921 1.4573560002495647 14.196744518186332 0 1 0 I I #
coedge $-1 $387 $265 $268 $401 reversed $258 $-1 #
coedge $-1 $265 $387 $392 $480 forward $258 $-1 #
vertex $-1 $266 $484 #
straight-curve $-1 -56.187017426068905 -0.8956928857593347 42.374698429166692 0 0 1 I I #
straight-curve $-1 -56.187017426068891 -0.8956928857593347 5.2889557070372035 -0.70710677298230451 0 -0.70710678939079041 I I #
edge $-1 $478 -6.7251168867575934 $270 0.8956928857593347 $396 $485 forward 7 unknown #
point $-1 -56.187017426068905 -0.8956928857593347 14.196744518186334 #
point $-1 -47.279228821625921 -0.8956928857593347 14.196744518186334 #
edge $-1 $486 1 $486 0 $273 $-1 forward 7 unknown #
vertex $-1 $274 $487 #
ellipse-curve $-1 -49.188384611974477 1.2816813349597851 7.1981116597897428 -0.70710678939079041 0 0.70710677298230451 0.70710677298230451 0 0.70710678939079041 1 I I #
point $-1 -51.02601635086512 1.2816813349597851 10.44995690200256 #
edge $-1 $488 1 $488 0 $277 $-1 forward 7 unknown #
vertex $-1 $278 $489 #
ellipse-curve $-1 -49.188384611974477 4.5477426660384666 7.1981116597897428 -0.70710678939079041 0 0.70710677298230451 0.70710677298230451 0 0.70710678939079041 1 I I #
point $-1 -51.02601635086512 4.5477426660384666 10.44995690200256 #
plane-surface $-1 56.187017426068905 0 0 -1 0 0 0 0 1 forward_v I I I I #
coedge $-1 $286 $284 $288 $417 reversed $181 $-1 #
edge $-1 $299 -14.196744518186334 $419 14.196744518186334 $298 $490 forward 7 unknown #
vertex $-1 $417 $491 #
straight-curve $-1 -56.187017426068905 -30.333650305655574 0 0 0 -1 I I #
edge $-1 $415 -30.333650305655574 $419 30.333650305655574 $413 $492 forward 7 unknown #
straight-curve $-1 0 -30.333650305655574 -14.196744518186334 -1 0 0 I I #
vertex $-1 $291 $493 #
straight-curve $-1 0 30.333650305655574 -14.196744518186334 1 0 0 I I #
point $-1 56.187017426068905 30.333650305655574 -14.196744518186334 #
point $-1 56.187017426068905 -30.333650305655574 -14.196744518186334 #
straight-curve $-1 -56.187017426068905 0 14.196744518186334 0 -1 0 I I #
point $-1 -56.187017426068905 30.333650305655574 14.196744518186334 #
point $-1 -56.187017426068905 -30.333650305655574 14.196744518186334 #
straight-curve $-1 56.187017426068905 -30.333650305655574 0 0 0 -1 I I #
straight-curve $-1 56.187017426068905 30.333650305655574 0 0 0 -1 I I #
loop $-1 $-1 $314 $308 #
plane-surface $-1 0 -30.333650305655574 0 0 1 0 0 0 1 forward_v I I I I #
coedge $-1 $325 $316 $312 $432 forward $309 $-1 #
edge $-1 $436 -18.246048217015954 $320 -5.9291559602632926 $311 $494 forward 7 unknown #
edge $-1 $321 5.9291559602632926 $435 18.246048217015954 $430 $495 forward 7 unknown #
coedge $-1 $323 $314 $328 $445 reversed $428 $-1 #
coedge $-1 $314 $323 $325 $443 reversed $428 $-1 #
vertex $-1 $443 $496 #
vertex $-1 $315 $497 #
straight-curve $-1 -27.793528389696238 -30.333650305655574 0 0 0 1 I I #
straight-curve $-1 -14.646764194848119 -18.016758048902915 -14.196744518186334 1 0 0 I I #
straight-curve $-1 -14.646764194848119 -18.016758048902915 14.196744518186334 -1 0 0 I I #
point $-1 -27.793528389696238 -18.016758048902915 14.196744518186334 #
point $-1 -27.793528389696238 -18.016758048902915 -14.196744518186334 #
straight-curve $-1 -30.793528389696238 -30.333650305655574 0 0 0 -1 I I #
edge $-1 $435 27.793528389696238 $326 30.793528389696238 $434 $498 forward 7 unknown #
point $-1 -30.793528389696238 -30.333650305655574 -14.196744518186334 #
edge $-1 $329 -30.793528389696238 $436 -27.793528389696238 $433 $499 forward 7 unknown #
point $-1 -30.793528389696238 -30.333650305655574 14.196744518186334 #
plane-surface $-1 0 30.333650305655574 0 0 -1 0 0 0 -1 forward_v I I I I #
coedge $-1 $335 $346 $349 $458 forward $216 $-1 #
edge $-1 $453 -17.782159505676667 $450 -7.3208220942811479 $335 $500 forward 7 unknown #
vertex $-1 $449 $501 #
straight-curve $-1 -56.187017426068905 19.872312894260055 0.94843132519089313 0 0 1 I I #
straight-curve $-1 0 19.872312894260055 0.093836669595250832 -1 0 0 I I #
vertex $-1 $342 $502 #
straight-curve $-1 0 30.333650305655574 0.093836669595250832 -1 0 0 I I #
point $-1 56.187017426068905 19.872312894260055 0.093836669595250832 #
point $-1 56.187017426068905 30.333650305655574 0.093836669595250832 #
straight-curve $-1 -56.187017426068905 12.551490799978907 3.6998886311683217 0 1 0 I I #
edge $-1 $351 -3.6998886311683217 $453 -0.093836669595250832 $349 $503 forward 7 unknown #
point $-1 -56.187017426068905 30.333650305655574 3.6998886311683217 #
point $-1 -56.187017426068905 19.872312894260055 3.6998886311683217 #
straight-curve $-1 56.187017426068905 19.872312894260055 0.94843132519089313 0 0 -1 I I #
straight-curve $-1 56.187017426068905 30.333650305655574 0 0 0 -1 I I #
coedge $-1 $371 $370 $363 $464 forward $360 $-1 #
edge $-1 $465 66.551753104211826 $468 74.699583426379775 $463 $504 forward 7 unknown #
vertex $-1 $375 $505 #
straight-curve $-1 44.614264719884858 -5.5280606439069633 14.196744518186335 1 0 0 I I #
edge $-1 $468 -5.0227612507312376 $372 4.0121624643797862 $371 $506 forward 7 unknown #
vertex $-1 $467 $507 #
straight-curve $-1 -5.0162670914696577 -5.5280606439069633 100.29371072725777 -0.54463902268945019 0 0.83867057594974714 I I #
point $-1 50.895754717013375 -5.5280606439069633 14.196744518186335 #
point $-1 56.187017426068905 3.5068630712040605 6.0489141960183872 #
straight-curve $-1 56.187017426068905 0 14.196744518186334 0 1 0 I I #
vertex $-1 $378 $508 #
point $-1 53.187385489701775 -2.9466538681609578 8.7005754172002643 #
vertex $-1 $382 $509 #
point $-1 53.187385489701775 0.92545629545805497 8.7005754172002643 #
edge $-1 $478 28.177953910980357 $481 37.085742722129503 $387 $510 forward 7 unknown #
vertex $-1 $401 $511 #
straight-curve $-1 -67.823730210626422 6.7251168867575934 14.196744518186335 -1 0 0 I I #
edge $-1 $481 -5.2677608865080288 $398 2.3530488860088994 $397 $512 forward 7 unknown #
vertex $-1 $480 $513 #
straight-curve $-1 -56.187017426068891 6.7251168867575934 5.2889557070372035 0.70710677298230451 0 0.70710678939079041 I I #
point $-1 -47.279228821625921 6.7251168867575934 14.196744518186334 #
point $-1 -56.187017426068905 -0.8956928857593347 5.2889557070371893 #
straight-curve $-1 -56.187017426068905 0 14.196744518186334 0 -1 0 I I #
vertex $-1 $404 $514 #
point $-1 -48.48127783899217 1.2816813349597851 7.9052184491805324 #
vertex $-1 $408 $515 #
point $-1 -48.48127783899217 4.5477426660384666 7.9052184491805324 #
straight-curve $-1 -56.187017426068905 30.333650305655574 0 0 0 -1 I I #
point $-1 -56.187017426068905 -30.333650305655574 -14.196744518186334 #
straight-curve $-1 -56.187017426068905 0 -14.196744518186334 0 1 0 I I #
point $-1 -56.187017426068905 30.333650305655574 -14.196744518186334 #
straight-curve $-1 -27.793528389696238 -12.087602088639622 14.196744518186334 0 1 0 I I #
straight-curve $-1 -27.793528389696238 -12.087602088639622 -14.196744518186334 0 -1 0 I I #
point $-1 -27.793528389696238 -30.333650305655574 -14.196744518186334 #
point $-1 -27.793528389696238 -30.333650305655574 14.196744518186334 #
straight-curve $-1 0 -30.333650305655574 -14.196744518186334 -1 0 0 I I #
straight-curve $-1 0 -30.333650305655574 14.196744518186334 1 0 0 I I #
straight-curve $-1 -56.187017426068905 12.551490799978907 0.093836669595250832 0 -1 0 I I #
point $-1 -56.187017426068905 19.872312894260055 0.093836669595250832 #
point $-1 -56.187017426068905 30.333650305655574 0.093836669595250832 #
straight-curve $-1 -56.187017426068905 30.333650305655574 0 0 0 -1 I I #
straight-curve $-1 56.187017426068905 -5.5280606439069633 80.748497622398162 0 0 -1 I I #
point $-1 56.187017426068905 -5.5280606439069633 14.196744518186334 #
straight-curve $-1 56.187017426068905 -0.5052993931757257 6.0489141960183801 0 1 0 I I #
point $-1 56.187017426068905 -5.5280606439069633 6.0489141960183872 #
point $-1 51.804075891062581 -2.9466538681609578 8.9946069704605627 #
point $-1 51.804075891062581 0.92545629545805497 8.9946069704605627 #
straight-curve $-1 -56.187017426068905 6.7251168867575934 42.374698429166692 0 0 -1 I I #
point $-1 -56.187017426068905 6.7251168867575934 14.196744518186334 #
straight-curve $-1 -56.187017426068905 1.4573560002495647 5.2889557070371893 0 -1 0 I I #
point $-1 -56.187017426068905 6.7251168867575934 5.2889557070371893 #
point $-1 -48.481277822583685 1.2816813349597851 6.4910048868074375 #
point $-1 -48.481277822583685 4.5477426660384666 6.4910048868074375 #
End-of-ACIS-data 