500 0 9 0           
7 Unknown 11 ACIS 5.0 NT 24 Fri Mar 26 16:43:36 1999 
-1 9.9999999999999995e-007 1e-010 
body $-1 $9 $-1 $10 #
body $-1 $11 $-1 $12 #
body $-1 $13 $-1 $14 #
body $-1 $15 $-1 $16 #
body $-1 $17 $-1 $18 #
body $-1 $19 $-1 $20 #
body $-1 $21 $-1 $22 #
body $-1 $23 $-1 $24 #
body $-1 $25 $-1 $26 #
lump $-1 $-1 $27 $0 #
transform $-1 1 0 0 0 1 0 0 0 1 70.275582140568247 41.063399331527933 15.895384099281813 1 rotate no_reflect no_shear #
lump $-1 $-1 $28 $1 #
transform $-1 1 0 0 0 1 0 0 0 1 70.275582140568247 41.063399331527933 15.895384099281813 1 rotate no_reflect no_shear #
lump $-1 $-1 $29 $2 #
transform $-1 1 0 0 0 1 0 0 0 1 70.275582140568247 41.063399331527933 15.895384099281813 1 rotate no_reflect no_shear #
lump $-1 $-1 $30 $3 #
transform $-1 1 0 0 0 1 0 0 0 1 70.275582140568247 41.063399331527933 15.895384099281813 1 rotate no_reflect no_shear #
lump $-1 $-1 $31 $4 #
transform $-1 1 0 0 0 1 0 0 0 1 70.275582140568247 41.063399331527933 15.895384099281813 1 rotate no_reflect no_shear #
lump $-1 $-1 $32 $5 #
transform $-1 1 0 0 0 1 0 0 0 1 70.275582140568247 41.063399331527933 15.895384099281813 1 rotate no_reflect no_shear #
lump $-1 $-1 $33 $6 #
transform $-1 1 0 0 0 1 0 0 0 1 70.275582140568247 41.063399331527933 15.895384099281813 1 rotate no_reflect no_shear #
lump $-1 $-1 $34 $7 #
transform $-1 1 0 0 0 1 0 0 0 1 70.275582140568247 41.063399331527933 15.895384099281813 1 rotate no_reflect no_shear #
lump $-1 $-1 $35 $8 #
transform $-1 1 0 0 0 1 0 0 0 1 70.275582140568247 41.063399331527933 15.895384099281813 1 rotate no_reflect no_shear #
shell $-1 $-1 $-1 $36 $-1 $9 #
shell $-1 $-1 $-1 $37 $-1 $11 #
shell $-1 $-1 $-1 $38 $-1 $13 #
shell $-1 $-1 $-1 $39 $-1 $15 #
shell $-1 $-1 $-1 $40 $-1 $17 #
shell $-1 $-1 $-1 $41 $-1 $19 #
shell $-1 $-1 $-1 $42 $-1 $21 #
shell $-1 $-1 $-1 $43 $-1 $23 #
shell $-1 $-1 $-1 $44 $-1 $25 #
face $-1 $45 $46 $27 $-1 $47 forward single #
face $-1 $48 $49 $28 $-1 $50 reversed single #
face $-1 $51 $52 $29 $-1 $53 reversed single #
face $-1 $54 $55 $30 $-1 $56 forward single #
face $-1 $57 $58 $31 $-1 $59 reversed single #
face $-1 $60 $61 $32 $-1 $62 forward single #
face $-1 $63 $64 $33 $-1 $65 reversed single #
face $-1 $66 $67 $34 $-1 $68 forward single #
face $-1 $69 $70 $35 $-1 $71 forward single #
face $-1 $72 $73 $27 $-1 $74 reversed single #
loop $-1 $-1 $75 $36 #
plane-surface $-1 0 0 15.895384099281813 0 0 1 1 0 0 forward_v I I I I #
face $-1 $76 $77 $28 $-1 $78 reversed single #
loop $-1 $-1 $79 $37 #
plane-surface $-1 -66.227927628833953 -27.11526891164695 0 0 -1 0 0 0 -1 forward_v I I I I #
face $-1 $80 $81 $29 $-1 $82 reversed single #
loop $-1 $-1 $83 $38 #
plane-surface $-1 87.599476137832397 6.9740652099404805 199.65368627779577 0 -1 0 -0.7660444514056185 0 -0.64278759981090561 forward_v I I I I #
face $-1 $84 $85 $30 $-1 $86 forward single #
loop $-1 $87 $88 $39 #
cone-surface $-1 63.182962570914533 1.518960273066682 7.8349050263292783 -0.7660444514056185 0 -0.64278759981090561 0.96418139971635841 0 -1.1490666771084277 1 I I 0 1 1.5 forward I I I I #
face $-1 $89 $90 $31 $-1 $91 reversed single #
loop $-1 $-1 $92 $40 #
plane-surface $-1 -20.068963398331775 1.518960273066682 109.30914073889575 0.7660444514056185 0 0.64278759981090561 0.64278759981090561 0 -0.7660444514056185 forward_v I I I I #
face $-1 $93 $94 $32 $-1 $95 forward single #
loop $-1 $96 $97 $41 #
cone-surface $-1 63.182962570914533 12.429170146814279 7.8349050263292783 -0.7660444514056185 0 -0.64278759981090561 0.96418139971635841 0 -1.1490666771084277 1 I I 0 1 1.5 forward I I I I #
face $-1 $98 $99 $33 $-1 $100 reversed single #
loop $-1 $-1 $101 $42 #
plane-surface $-1 -176.35089349997583 -14.697375606123343 99.355114727259462 0 -1 0 0.75470958851134928 0 -0.65605901945558964 forward_v I I I I #
face $-1 $102 $103 $34 $-1 $104 forward single #
loop $-1 $105 $106 $43 #
cone-surface $-1 -65.050190761505448 -23.567299395783067 10.284014952239442 0.75470958851134928 0 -0.65605901945558964 0.98408852918338452 0 1.132064382767024 1 I I 0 1 1.5 forward I I I I #
face $-1 $107 $108 $35 $-1 $109 forward single #
loop $-1 $110 $111 $44 #
cone-surface $-1 -65.050190761505448 -18.245345121987235 10.284014952239442 0.75470958851134928 0 -0.65605901945558964 0.98408852918338452 0 1.132064382767024 1 I I 0 1 1.5 forward I I I I #
face $-1 $112 $113 $27 $-1 $114 reversed single #
loop $-1 $-1 $115 $45 #
plane-surface $-1 0 0 -15.895384099281813 0 0 1 1 0 0 forward_v I I I I #
coedge $-1 $116 $117 $118 $119 forward $46 $-1 #
face $-1 $120 $121 $28 $-1 $122 forward single #
loop $-1 $-1 $123 $48 #
plane-surface $-1 -62.180273117099659 -34.089334121587441 0 -1 0 0 0 0 1 forward_v I I I I #
coedge $-1 $124 $125 $126 $127 forward $49 $-1 #
face $-1 $128 $129 $29 $-1 $130 reversed single #
loop $-1 $-1 $131 $51 #
plane-surface $-1 -20.068963398331775 1.518960273066682 109.30914073889575 0.7660444514056185 0 0.64278759981090561 0.64278759981090561 0 -0.7660444514056185 forward_v I I I I #
coedge $-1 $132 $133 $134 $135 reversed $52 $-1 #
face $-1 $-1 $136 $30 $-1 $137 forward single #
loop $-1 $138 $139 $54 #
cone-surface $-1 61.496359086650841 1.518960273066682 6.4196767017936764 -0.7660444514056185 0 -0.64278759981090561 0.48209069985817921 0 -0.57453333855421385 1 I I -0.70710678118654757 0.70710678118654757 0.75 forward I I I I #
loop $-1 $-1 $140 $39 #
coedge $-1 $88 $88 $141 $142 reversed $55 $-1 #
face $-1 $143 $144 $31 $-1 $145 reversed single #
loop $-1 $-1 $146 $57 #
plane-surface $-1 87.599476137832397 17.884275083688078 199.65368627779577 0 -1 0 -0.7660444514056185 0 -0.64278759981090561 forward_v I I I I #
coedge $-1 $147 $148 $149 $150 reversed $58 $-1 #
face $-1 $-1 $151 $32 $-1 $152 forward single #
loop $-1 $153 $154 $60 #
cone-surface $-1 61.496359086650841 12.429170146814279 6.4196767017936764 -0.7660444514056185 0 -0.64278759981090561 0.48209069985817921 0 -0.57453333855421385 1 I I -0.70710678118654757 0.70710678118654757 0.75 forward I I I I #
loop $-1 $-1 $155 $41 #
coedge $-1 $97 $97 $156 $157 reversed $61 $-1 #
face $-1 $158 $159 $33 $-1 $160 reversed single #
loop $-1 $-1 $161 $63 #
plane-surface $-1 -70.275582140568247 -20.906322258885147 7.145255705635563 -0.75470958851134928 0 0.65605901945558964 0.65605901945558964 0 0.75470958851134928 forward_v I I I I #
coedge $-1 $162 $163 $164 $165 reversed $64 $-1 #
face $-1 $-1 $166 $34 $-1 $167 forward single #
loop $-1 $168 $169 $66 #
cone-surface $-1 -63.061952377409611 -23.567299395783067 8.5556657374285052 0.75470958851134928 0 -0.65605901945558964 0.49204426459169226 0 0.56603219138351202 1 I I -0.70710678118654757 0.70710678118654757 0.75 forward I I I I #
loop $-1 $-1 $170 $43 #
coedge $-1 $106 $106 $171 $172 reversed $67 $-1 #
face $-1 $-1 $173 $35 $-1 $174 forward single #
loop $-1 $175 $176 $69 #
cone-surface $-1 -63.061952377409611 -18.245345121987235 8.5556657374285052 0.75470958851134928 0 -0.65605901945558964 0.49204426459169226 0 0.56603219138351202 1 I I -0.70710678118654757 0.70710678118654757 0.75 forward I I I I #
loop $-1 $-1 $177 $44 #
coedge $-1 $111 $111 $178 $179 reversed $70 $-1 #
face $-1 $180 $181 $27 $-1 $182 reversed single #
loop $-1 $-1 $183 $72 #
plane-surface $-1 0 -41.063399331527933 0 0 1 0 0 0 1 forward_v I I I I #
coedge $-1 $184 $185 $186 $187 forward $73 $-1 #
coedge $-1 $188 $75 $189 $190 forward $46 $-1 #
coedge $-1 $75 $188 $191 $192 forward $46 $-1 #
coedge $-1 $193 $194 $75 $119 reversed $195 $-1 #
edge $-1 $196 -41.063399331527933 $197 41.063399331527933 $118 $198 forward 7 unknown #
face $-1 $199 $200 $28 $-1 $201 reversed single #
loop $-1 $-1 $202 $76 #
plane-surface $-1 0 0 15.895384099281813 0 0 1 1 0 0 forward_v I I I I #
coedge $-1 $203 $204 $205 $206 reversed $77 $-1 #
coedge $-1 $207 $79 $208 $209 reversed $49 $-1 #
coedge $-1 $79 $207 $210 $211 reversed $49 $-1 #
coedge $-1 $204 $203 $79 $127 reversed $77 $-1 #
edge $-1 $212 -15.895384099281813 $213 15.895384099281813 $126 $214 forward 7 unknown #
face $-1 $215 $216 $29 $-1 $217 reversed single #
loop $-1 $-1 $218 $80 #
plane-surface $-1 87.599476137832397 -3.9361446638071165 199.65368627779577 0 1 0 0.7660444514056185 0 0.64278759981090561 forward_v I I I I #
coedge $-1 $219 $220 $221 $222 reversed $81 $-1 #
coedge $-1 $133 $83 $223 $224 reversed $52 $-1 #
coedge $-1 $83 $132 $219 $225 reversed $52 $-1 #
coedge $-1 $221 $226 $83 $135 forward $227 $-1 #
edge $-1 $228 -26.475844071652048 $229 -14.514745223763583 $134 $230 forward 7 unknown #
loop $-1 $-1 $141 $84 #
plane-surface $-1 -20.068963398331775 1.518960273066682 109.30914073889575 0.7660444514056185 0 0.64278759981090561 0.64278759981090561 0 -0.7660444514056185 forward_v I I I I #
loop $-1 $-1 $231 $54 #
coedge $-1 $139 $139 $140 $232 reversed $85 $-1 #
coedge $-1 $140 $140 $139 $232 forward $87 $-1 #
coedge $-1 $141 $141 $88 $142 forward $136 $-1 #
edge $-1 $233 0 $233 6.2831853071796004 $141 $234 forward 7 unknown #
face $-1 $235 $236 $31 $-1 $237 forward single #
loop $-1 $-1 $238 $89 #
plane-surface $-1 70.275582140568247 0 0 -1 0 0 0 0 1 forward_v I I I I #
coedge $-1 $239 $240 $241 $242 reversed $90 $-1 #
coedge $-1 $243 $92 $244 $245 reversed $58 $-1 #
coedge $-1 $92 $243 $238 $246 reversed $58 $-1 #
coedge $-1 $247 $248 $92 $150 forward $236 $-1 #
edge $-1 $249 121.94299752215242 $250 140.55116428113658 $149 $251 forward 7 unknown #
loop $-1 $-1 $156 $93 #
plane-surface $-1 -20.068963398331775 1.518960273066682 109.30914073889575 0.7660444514056185 0 0.64278759981090561 0.64278759981090561 0 -0.7660444514056185 forward_v I I I I #
loop $-1 $-1 $252 $60 #
coedge $-1 $154 $154 $155 $253 reversed $94 $-1 #
coedge $-1 $155 $155 $154 $253 forward $96 $-1 #
coedge $-1 $156 $156 $97 $157 forward $151 $-1 #
edge $-1 $254 0 $254 6.2831853071796004 $156 $255 forward 7 unknown #
face $-1 $256 $257 $33 $-1 $258 forward single #
loop $-1 $-1 $164 $98 #
plane-surface $-1 -70.275582140568247 0 0 1 0 0 0 0 -1 forward_v I I I I #
coedge $-1 $259 $260 $261 $262 reversed $99 $-1 #
coedge $-1 $163 $101 $263 $264 reversed $64 $-1 #
coedge $-1 $101 $162 $259 $265 reversed $64 $-1 #
coedge $-1 $261 $266 $101 $165 forward $159 $-1 #
edge $-1 $267 33.782173264347918 $268 42.532301657994168 $164 $269 forward 7 unknown #
loop $-1 $-1 $171 $102 #
plane-surface $-1 -70.275582140568247 -20.906322258885147 7.145255705635563 -0.75470958851134928 0 0.65605901945558964 0.65605901945558964 0 0.75470958851134928 forward_v I I I I #
loop $-1 $-1 $270 $66 #
coedge $-1 $169 $169 $170 $271 reversed $103 $-1 #
coedge $-1 $170 $170 $169 $271 forward $105 $-1 #
coedge $-1 $171 $171 $106 $172 forward $166 $-1 #
edge $-1 $272 0 $272 6.2831853071796004 $171 $273 forward 7 unknown #
loop $-1 $-1 $178 $107 #
plane-surface $-1 -70.275582140568247 -20.906322258885147 7.145255705635563 -0.75470958851134928 0 0.65605901945558964 0.65605901945558964 0 0.75470958851134928 forward_v I I I I #
loop $-1 $-1 $274 $69 #
coedge $-1 $176 $176 $177 $275 reversed $108 $-1 #
coedge $-1 $177 $177 $176 $275 forward $110 $-1 #
coedge $-1 $178 $178 $111 $179 forward $173 $-1 #
edge $-1 $276 0 $276 6.2831853071796004 $178 $277 forward 7 unknown #
face $-1 $278 $279 $27 $-1 $280 reversed single #
loop $-1 $-1 $281 $112 #
plane-surface $-1 -70.275582140568247 0 0 1 0 0 0 0 -1 forward_v I I I I #
coedge $-1 $282 $191 $283 $284 forward $113 $-1 #
coedge $-1 $285 $115 $282 $286 forward $73 $-1 #
coedge $-1 $115 $285 $287 $288 forward $73 $-1 #
coedge $-1 $194 $193 $115 $187 reversed $195 $-1 #
edge $-1 $289 -41.063399331527933 $290 41.063399331527933 $186 $291 forward 7 unknown #
coedge $-1 $117 $116 $292 $293 forward $46 $-1 #
coedge $-1 $294 $295 $116 $190 reversed $279 $-1 #
edge $-1 $197 -70.275582140568247 $296 70.275582140568247 $189 $297 forward 7 unknown #
coedge $-1 $183 $298 $117 $192 reversed $113 $-1 #
edge $-1 $299 -70.275582140568247 $196 70.275582140568247 $191 $300 forward 7 unknown #
coedge $-1 $186 $118 $298 $301 forward $195 $-1 #
coedge $-1 $118 $186 $294 $302 reversed $195 $-1 #
loop $-1 $-1 $193 $278 #
vertex $-1 $119 $303 #
vertex $-1 $119 $304 #
straight-curve $-1 70.275582140568247 0 15.895384099281813 0 1 0 I I #
face $-1 $305 $306 $28 $-1 $307 reversed single #
loop $-1 $-1 $308 $120 #
plane-surface $-1 -70.275582140568247 0 0 1 0 0 0 0 -1 forward_v I I I I #
coedge $-1 $210 $309 $204 $310 forward $121 $-1 #
coedge $-1 $126 $123 $311 $312 reversed $77 $-1 #
coedge $-1 $123 $126 $202 $310 reversed $77 $-1 #
coedge $-1 $313 $314 $123 $206 forward $315 $-1 #
edge $-1 $316 -15.895384099281813 $317 15.895384099281813 $205 $318 forward 7 unknown #
coedge $-1 $125 $124 $308 $319 reversed $49 $-1 #
coedge $-1 $311 $320 $124 $209 forward $306 $-1 #
edge $-1 $321 -37.16161832615127 $213 -29.066309302682683 $208 $322 forward 7 unknown #
coedge $-1 $323 $202 $125 $211 forward $121 $-1 #
edge $-1 $212 29.066309302682683 $324 37.16161832615127 $210 $325 forward 7 unknown #
vertex $-1 $211 $326 #
vertex $-1 $209 $327 #
straight-curve $-1 -62.180273117099659 -27.11526891164695 0 0 0 -1 I I #
face $-1 $-1 $227 $29 $-1 $328 forward single #
loop $-1 $-1 $329 $128 #
plane-surface $-1 70.275582140568247 0 0 -1 0 0 0 0 1 forward_v I I I I #
coedge $-1 $330 $331 $332 $333 reversed $129 $-1 #
coedge $-1 $334 $131 $133 $225 forward $81 $-1 #
coedge $-1 $131 $334 $330 $335 forward $81 $-1 #
coedge $-1 $332 $134 $131 $222 forward $227 $-1 #
edge $-1 $229 -6.2145850734071395 $336 4.6956248003404575 $221 $337 forward 7 unknown #
coedge $-1 $338 $339 $132 $224 forward $216 $-1 #
edge $-1 $340 -98.186141936166322 $228 -83.931459039616072 $223 $341 forward 7 unknown #
edge $-1 $229 121.94299752215242 $340 140.55116428113658 $133 $342 forward 7 unknown #
coedge $-1 $134 $332 $338 $343 forward $227 $-1 #
loop $-1 $-1 $332 $215 #
vertex $-1 $224 $344 #
vertex $-1 $135 $345 #
straight-curve $-1 43.799738068916199 6.9740652099404805 15.895384099281813 -1 0 0 I I #
coedge $-1 $231 $231 $-1 $346 reversed $138 $-1 #
edge $-1 $347 0 $347 6.2831853071796004 $139 $348 forward 7 unknown #
vertex $-1 $142 $349 #
ellipse-curve $-1 64.295032716624007 1.518960273066682 8.7680426510066951 0.7660444514056185 0 0.64278759981090561 0.96418139971635841 0 -1.1490666771084277 1 I I #
face $-1 $-1 $350 $31 $-1 $351 forward single #
loop $-1 $-1 $248 $143 #
plane-surface $-1 87.599476137832397 6.9740652099404805 199.65368627779577 0 -1 0 -0.7660444514056185 0 -0.64278759981090561 forward_v I I I I #
coedge $-1 $241 $352 $148 $246 forward $144 $-1 #
coedge $-1 $240 $146 $243 $353 reversed $90 $-1 #
coedge $-1 $146 $239 $354 $355 reversed $90 $-1 #
coedge $-1 $356 $238 $146 $242 forward $144 $-1 #
edge $-1 $357 -98.186141936166322 $358 -83.931459039616072 $241 $359 forward 7 unknown #
coedge $-1 $148 $147 $239 $353 forward $58 $-1 #
coedge $-1 $360 $354 $147 $245 forward $350 $-1 #
edge $-1 $361 -17.124794947154736 $249 -6.2145850734071395 $244 $362 forward 7 unknown #
edge $-1 $250 6.2145850734071395 $357 17.124794947154736 $238 $363 forward 7 unknown #
coedge $-1 $248 $149 $352 $364 reversed $236 $-1 #
coedge $-1 $149 $247 $360 $365 reversed $236 $-1 #
vertex $-1 $245 $366 #
vertex $-1 $246 $367 #
straight-curve $-1 -20.068963398331775 6.9740652099404805 109.30914073889575 0.64278759981090561 0 -0.7660444514056185 I I #
coedge $-1 $252 $252 $-1 $368 reversed $153 $-1 #
edge $-1 $369 0 $369 6.2831853071796004 $154 $370 forward 7 unknown #
vertex $-1 $157 $371 #
ellipse-curve $-1 64.295032716624007 12.429170146814279 8.7680426510066951 0.7660444514056185 0 0.64278759981090561 0.96418139971635841 0 -1.1490666771084277 1 I I #
face $-1 $-1 $372 $33 $-1 $373 forward single #
loop $-1 $-1 $374 $158 #
plane-surface $-1 -66.227927628833953 -27.11526891164695 0 0 -1 0 0 0 -1 forward_v I I I I #
coedge $-1 $375 $161 $163 $265 forward $99 $-1 #
coedge $-1 $161 $375 $374 $376 reversed $99 $-1 #
coedge $-1 $377 $164 $161 $262 forward $159 $-1 #
edge $-1 $268 4.244214476680769 $378 16.662107782204377 $261 $379 forward 7 unknown #
coedge $-1 $380 $381 $162 $264 forward $372 $-1 #
edge $-1 $382 -25.506234982120645 $267 -17.899864609419666 $263 $383 forward 7 unknown #
edge $-1 $268 0 $382 11.594033687720492 $163 $384 forward 7 unknown #
coedge $-1 $164 $377 $380 $385 reversed $159 $-1 #
vertex $-1 $385 $386 #
vertex $-1 $165 $387 #
straight-curve $-1 -70.275582140568247 -14.697375606123343 49.677557363629731 0 0 -1 I I #
coedge $-1 $270 $270 $-1 $388 reversed $168 $-1 #
edge $-1 $389 0 $389 6.2831853071796004 $169 $390 forward 7 unknown #
vertex $-1 $172 $391 #
ellipse-curve $-1 -66.472396954217757 -23.567299395783067 11.520319902458684 -0.75470958851134928 0 0.65605901945558964 0.98408852918338452 0 1.132064382767024 1 I I #
coedge $-1 $274 $274 $-1 $392 reversed $175 $-1 #
edge $-1 $393 0 $393 6.2831853071796004 $176 $394 forward 7 unknown #
vertex $-1 $179 $395 #
ellipse-curve $-1 -66.472396954217757 -18.245345121987235 11.520319902458684 -0.75470958851134928 0 0.65605901945558964 0.98408852918338452 0 1.132064382767024 1 I I #
face $-1 $-1 $195 $27 $-1 $396 reversed single #
loop $-1 $-1 $294 $180 #
plane-surface $-1 0 41.063399331527933 0 0 -1 0 0 0 -1 forward_v I I I I #
coedge $-1 $397 $292 $295 $398 forward $181 $-1 #
coedge $-1 $298 $183 $184 $286 reversed $113 $-1 #
coedge $-1 $292 $397 $183 $284 reversed $181 $-1 #
edge $-1 $299 -15.895384099281813 $399 15.895384099281813 $283 $400 forward 7 unknown #
coedge $-1 $185 $184 $397 $401 forward $73 $-1 #
edge $-1 $290 -70.275582140568247 $399 70.275582140568247 $282 $402 forward 7 unknown #
coedge $-1 $295 $294 $185 $288 reversed $279 $-1 #
edge $-1 $403 -70.275582140568247 $289 70.275582140568247 $287 $404 forward 7 unknown #
vertex $-1 $187 $405 #
vertex $-1 $301 $406 #
straight-curve $-1 70.275582140568247 0 -15.895384099281813 0 -1 0 I I #
coedge $-1 $281 $283 $188 $293 reversed $181 $-1 #
edge $-1 $296 -41.063399331527933 $299 41.063399331527933 $292 $407 forward 7 unknown #
coedge $-1 $287 $189 $194 $302 forward $279 $-1 #
coedge $-1 $189 $287 $281 $398 reversed $279 $-1 #
vertex $-1 $190 $408 #
straight-curve $-1 0 41.063399331527933 15.895384099281813 -1 0 0 I I #
coedge $-1 $191 $282 $193 $301 reversed $113 $-1 #
vertex $-1 $293 $409 #
straight-curve $-1 0 -41.063399331527933 15.895384099281813 1 0 0 I I #
edge $-1 $196 -15.895384099281813 $290 15.895384099281813 $193 $410 forward 7 unknown #
edge $-1 $197 -15.895384099281813 $289 15.895384099281813 $194 $411 forward 7 unknown #
point $-1 70.275582140568247 -41.063399331527933 15.895384099281813 #
point $-1 70.275582140568247 41.063399331527933 15.895384099281813 #
face $-1 $-1 $315 $28 $-1 $412 reversed single #
loop $-1 $-1 $311 $199 #
plane-surface $-1 0 0 -15.895384099281813 0 0 1 1 0 0 forward_v I I I I #
coedge $-1 $413 $414 $207 $319 forward $200 $-1 #
coedge $-1 $202 $323 $313 $415 forward $121 $-1 #
edge $-1 $317 -24.018732270734212 $212 -10.07060185085323 $202 $416 forward 7 unknown #
coedge $-1 $417 $208 $203 $312 forward $306 $-1 #
edge $-1 $213 10.07060185085323 $316 24.018732270734212 $311 $418 forward 7 unknown #
coedge $-1 $419 $205 $309 $415 reversed $315 $-1 #
coedge $-1 $205 $419 $417 $420 reversed $315 $-1 #
loop $-1 $-1 $205 $305 #
vertex $-1 $420 $421 #
vertex $-1 $206 $422 #
straight-curve $-1 -62.180273117099659 -41.063399331527933 0 0 0 1 I I #
edge $-1 $324 -15.895384099281813 $321 15.895384099281813 $308 $423 forward 7 unknown #
coedge $-1 $208 $417 $413 $424 forward $306 $-1 #
vertex $-1 $209 $425 #
straight-curve $-1 -33.113963814416977 -27.11526891164695 -15.895384099281813 1 0 0 I I #
coedge $-1 $309 $210 $414 $426 forward $121 $-1 #
vertex $-1 $426 $427 #
straight-curve $-1 -33.113963814416977 -27.11526891164695 15.895384099281813 -1 0 0 I I #
point $-1 -62.180273117099659 -27.11526891164695 15.895384099281813 #
point $-1 -62.180273117099659 -27.11526891164695 -15.895384099281813 #
plane-surface $-1 0 0 15.895384099281813 0 0 1 1 0 0 forward_v I I I I #
coedge $-1 $339 $338 $331 $428 forward $216 $-1 #
coedge $-1 $331 $218 $220 $335 reversed $129 $-1 #
coedge $-1 $218 $330 $329 $428 reversed $129 $-1 #
coedge $-1 $226 $221 $218 $333 forward $227 $-1 #
edge $-1 $336 14.514745223763583 $429 26.475844071652048 $332 $430 forward 7 unknown #
coedge $-1 $220 $219 $339 $431 reversed $81 $-1 #
edge $-1 $432 -140.55116428113658 $336 -121.94299752215242 $330 $433 forward 7 unknown #
vertex $-1 $222 $434 #
straight-curve $-1 58.314483292679782 0.75948013653334101 15.89538409928182 0 -1 0 I I #
coedge $-1 $329 $223 $226 $343 reversed $216 $-1 #
coedge $-1 $223 $329 $334 $431 forward $216 $-1 #
vertex $-1 $224 $435 #
straight-curve $-1 70.275582140568247 6.9740652099404805 99.826843138897885 0 0 1 I I #
straight-curve $-1 -20.068963398331775 6.9740652099404805 109.30914073889575 0.64278759981090561 0 -0.7660444514056185 I I #
edge $-1 $429 -3.9361446638071165 $228 6.9740652099404805 $338 $436 forward 7 unknown #
point $-1 70.275582140568247 6.9740652099404805 15.895384099281813 #
point $-1 58.314483292679782 6.9740652099404805 15.895384099281813 #
edge $-1 $437 1 $437 0 $231 $-1 forward 7 unknown #
vertex $-1 $232 $438 #
ellipse-curve $-1 62.070892425205052 1.518960273066682 6.9017674016518553 0.7660444514056185 0 0.64278759981090561 0.96418139971635841 0 -1.1490666771084277 1 I I #
point $-1 65.25921411634036 1.518960273066682 7.6189759738982747 #
loop $-1 $-1 $244 $235 #
plane-surface $-1 0 0 15.895384099281813 0 0 1 1 0 0 forward_v I I I I #
coedge $-1 $238 $356 $247 $364 forward $144 $-1 #
edge $-1 $361 121.94299752215242 $357 140.55116428113658 $239 $439 forward 7 unknown #
coedge $-1 $244 $440 $240 $355 forward $350 $-1 #
edge $-1 $358 -26.475844071652048 $361 -14.514745223763583 $354 $441 forward 7 unknown #
coedge $-1 $352 $241 $440 $442 reversed $144 $-1 #
vertex $-1 $242 $443 #
vertex $-1 $242 $444 #
straight-curve $-1 70.275582140568247 17.884275083688078 99.826843138897885 0 0 1 I I #
coedge $-1 $440 $244 $248 $365 forward $350 $-1 #
vertex $-1 $355 $445 #
straight-curve $-1 58.314483292679782 0.75948013653334101 15.89538409928182 0 -1 0 I I #
straight-curve $-1 70.275582140568247 0.75948013653334101 1.6407012027315631 0 1 0 I I #
edge $-1 $446 83.931459039616072 $250 98.186141936166322 $352 $447 forward 7 unknown #
edge $-1 $249 14.514745223763583 $446 26.475844071652048 $360 $448 forward 7 unknown #
point $-1 58.314483292679782 6.9740652099404805 15.895384099281813 #
point $-1 70.275582140568261 6.9740652099404805 1.6407012027315631 #
edge $-1 $449 1 $449 0 $252 $-1 forward 7 unknown #
vertex $-1 $253 $450 #
ellipse-curve $-1 62.070892425205052 12.429170146814279 6.9017674016518553 0.7660444514056185 0 0.64278759981090561 0.96418139971635841 0 -1.1490666771084277 1 I I #
point $-1 65.25921411634036 12.429170146814279 7.6189759738982747 #
loop $-1 $-1 $263 $256 #
plane-surface $-1 0 0 15.895384099281813 0 0 1 1 0 0 forward_v I I I I #
coedge $-1 $451 $452 $260 $376 forward $257 $-1 #
coedge $-1 $260 $259 $381 $453 reversed $99 $-1 #
edge $-1 $378 1.3685463716725974 $454 12.962580059393087 $374 $455 forward 7 unknown #
coedge $-1 $266 $261 $452 $456 forward $159 $-1 #
vertex $-1 $456 $457 #
straight-curve $-1 -70.275582140568247 -10.453161129442574 7.1452557056355648 0 -1 0 I I #
coedge $-1 $458 $263 $266 $385 forward $372 $-1 #
coedge $-1 $263 $458 $375 $453 forward $372 $-1 #
vertex $-1 $264 $459 #
straight-curve $-1 -88.175446749987913 -14.697375606123343 15.895384099281813 -1 0 0 I I #
straight-curve $-1 -70.275582140568247 -14.697375606123343 7.145255705635563 0.65605901945558964 0 0.75470958851134928 I I #
edge $-1 $267 14.697375606123343 $460 27.11526891164695 $266 $461 forward 7 unknown #
point $-1 -70.275582140568247 -14.697375606123343 15.895384099281813 #
point $-1 -70.275582140568247 -14.697375606123343 7.145255705635563 #
edge $-1 $462 1 $462 0 $270 $-1 forward 7 unknown #
vertex $-1 $271 $463 #
ellipse-curve $-1 -63.627984568793124 -23.567299395783067 9.0477100020201977 -0.75470958851134928 0 0.65605901945558964 0.98408852918338452 0 1.132064382767024 1 I I #
point $-1 -65.488308425034376 -23.567299395783067 12.652384285225713 #
edge $-1 $464 1 $464 0 $274 $-1 forward 7 unknown #
vertex $-1 $275 $465 #
ellipse-curve $-1 -63.627984568793124 -18.245345121987235 9.0477100020201977 -0.75470958851134928 0 0.65605901945558964 0.98408852918338452 0 1.132064382767024 1 I I #
point $-1 -65.488308425034376 -18.245345121987235 12.652384285225713 #
plane-surface $-1 70.275582140568247 0 0 -1 0 0 0 0 1 forward_v I I I I #
coedge $-1 $283 $281 $285 $401 reversed $181 $-1 #
edge $-1 $296 -15.895384099281813 $403 15.895384099281813 $295 $466 forward 7 unknown #
vertex $-1 $401 $467 #
straight-curve $-1 -70.275582140568247 -41.063399331527933 0 0 0 -1 I I #
edge $-1 $399 -41.063399331527933 $403 41.063399331527933 $397 $468 forward 7 unknown #
straight-curve $-1 0 -41.063399331527933 -15.895384099281813 -1 0 0 I I #
vertex $-1 $288 $469 #
straight-curve $-1 0 41.063399331527933 -15.895384099281813 1 0 0 I I #
point $-1 70.275582140568247 41.063399331527933 -15.895384099281813 #
point $-1 70.275582140568247 -41.063399331527933 -15.895384099281813 #
straight-curve $-1 -70.275582140568247 0 15.895384099281813 0 -1 0 I I #
point $-1 -70.275582140568247 41.063399331527933 15.895384099281813 #
point $-1 -70.275582140568247 -41.063399331527933 15.895384099281813 #
straight-curve $-1 70.275582140568247 -41.063399331527933 0 0 0 -1 I I #
straight-curve $-1 70.275582140568247 41.063399331527933 0 0 0 -1 I I #
plane-surface $-1 0 -41.063399331527933 0 0 1 0 0 0 1 forward_v I I I I #
coedge $-1 $470 $308 $320 $424 reversed $200 $-1 #
coedge $-1 $308 $470 $323 $426 reversed $200 $-1 #
edge $-1 $471 -70.275582140568247 $317 -62.180273117099659 $313 $472 forward 7 unknown #
straight-curve $-1 -62.180273117099659 -17.044667060793721 15.895384099281813 0 1 0 I I #
coedge $-1 $320 $311 $314 $420 forward $306 $-1 #
straight-curve $-1 -62.180273117099659 -17.044667060793721 -15.895384099281813 0 -1 0 I I #
coedge $-1 $314 $313 $470 $473 forward $315 $-1 #
edge $-1 $316 62.180273117099659 $474 70.275582140568247 $314 $475 forward 7 unknown #
point $-1 -62.180273117099659 -41.063399331527933 -15.895384099281813 #
point $-1 -62.180273117099659 -41.063399331527933 15.895384099281813 #
straight-curve $-1 -70.275582140568247 -27.11526891164695 0 0 0 -1 I I #
edge $-1 $474 -41.063399331527933 $321 -27.11526891164695 $413 $476 forward 7 unknown #
point $-1 -70.275582140568247 -27.11526891164695 -15.895384099281813 #
edge $-1 $324 27.11526891164695 $471 41.063399331527933 $414 $477 forward 7 unknown #
point $-1 -70.275582140568247 -27.11526891164695 15.895384099281813 #
edge $-1 $429 83.931459039616072 $432 98.186141936166322 $329 $478 forward 7 unknown #
vertex $-1 $343 $479 #
straight-curve $-1 43.799738068916199 -3.9361446638071165 15.895384099281813 1 0 0 I I #
edge $-1 $432 -4.6956248003404575 $340 6.2145850734071395 $339 $480 forward 7 unknown #
vertex $-1 $431 $481 #
straight-curve $-1 -20.068963398331775 -3.9361446638071165 109.30914073889575 -0.64278759981090561 0 0.7660444514056185 I I #
point $-1 58.314483292679782 -3.9361446638071165 15.895384099281813 #
point $-1 70.275582140568261 6.9740652099404805 1.6407012027315631 #
straight-curve $-1 70.275582140568247 0 15.895384099281813 0 1 0 I I #
vertex $-1 $346 $482 #
point $-1 63.035073824921412 1.518960273066682 5.7527007245434278 #
straight-curve $-1 -20.068963398331775 17.884275083688078 109.30914073889575 0.64278759981090561 0 -0.7660444514056185 I I #
coedge $-1 $354 $360 $356 $442 forward $350 $-1 #
straight-curve $-1 43.799738068916199 17.884275083688078 15.895384099281813 -1 0 0 I I #
edge $-1 $446 6.9740652099404805 $358 17.884275083688078 $356 $483 forward 7 unknown #
point $-1 70.275582140568261 17.884275083688078 1.6407012027315631 #
point $-1 70.275582140568247 17.884275083688078 15.895384099281813 #
point $-1 58.314483292679782 17.884275083688078 15.895384099281813 #
vertex $-1 $442 $484 #
straight-curve $-1 70.275582140568247 6.9740652099404805 99.826843138897885 0 0 -1 I I #
straight-curve $-1 43.799738068916199 6.9740652099404805 15.895384099281813 1 0 0 I I #
vertex $-1 $368 $485 #
point $-1 63.035073824921412 12.429170146814279 5.7527007245434278 #
coedge $-1 $452 $374 $458 $486 reversed $257 $-1 #
coedge $-1 $374 $451 $377 $456 reversed $257 $-1 #
edge $-1 $454 -16.662107782204377 $382 -4.244214476680769 $381 $487 forward 7 unknown #
vertex $-1 $453 $488 #
straight-curve $-1 -71.173429331247277 -27.11526891164695 6.112400636611838 0.65605901945558975 0 0.75470958851134939 I I #
edge $-1 $378 7.145255705635563 $460 15.895384099281813 $377 $489 forward 7 unknown #
point $-1 -70.275582140568247 -27.11526891164695 7.145255705635563 #
coedge $-1 $381 $380 $451 $486 forward $372 $-1 #
point $-1 -62.669211767867267 -14.697375606123343 15.895384099281813 #
vertex $-1 $456 $490 #
straight-curve $-1 -70.275582140568247 0 15.895384099281813 0 -1 0 I I #
vertex $-1 $388 $491 #
point $-1 -62.643896039609736 -23.567299395783067 10.179774384787221 #
vertex $-1 $392 $492 #
point $-1 -62.643896039609736 -18.245345121987235 10.179774384787221 #
straight-curve $-1 -70.275582140568247 41.063399331527933 0 0 0 -1 I I #
point $-1 -70.275582140568247 -41.063399331527933 -15.895384099281813 #
straight-curve $-1 -70.275582140568247 0 -15.895384099281813 0 1 0 I I #
point $-1 -70.275582140568247 41.063399331527933 -15.895384099281813 #
coedge $-1 $414 $413 $419 $473 reversed $200 $-1 #
vertex $-1 $426 $493 #
straight-curve $-1 0 -41.063399331527933 15.895384099281813 1 0 0 I I #
edge $-1 $471 -15.895384099281813 $474 15.895384099281813 $470 $494 forward 7 unknown #
vertex $-1 $424 $495 #
straight-curve $-1 0 -41.063399331527933 -15.895384099281813 -1 0 0 I I #
straight-curve $-1 -70.275582140568247 0 -15.895384099281813 0 1 0 I I #
straight-curve $-1 -70.275582140568247 0 15.895384099281813 0 -1 0 I I #
straight-curve $-1 70.275582140568247 -3.9361446638071165 99.826843138897885 0 0 -1 I I #
point $-1 70.275582140568247 -3.9361446638071165 15.895384099281813 #
straight-curve $-1 70.275582140568247 0.75948013653334101 1.6407012027315631 0 1 0 I I #
point $-1 70.275582140568261 -3.9361446638071165 1.6407012027315631 #
point $-1 60.92182574809663 1.518960273066682 5.9375860019354976 #
straight-curve $-1 70.275582140568247 0 15.895384099281813 0 1 0 I I #
point $-1 70.275582140568247 6.9740652099404805 15.895384099281813 #
point $-1 60.92182574809663 12.429170146814279 5.9375860019354976 #
edge $-1 $460 -37.16161832615127 $454 -29.555247953450291 $458 $496 forward 7 unknown #
straight-curve $-1 -62.669211767867267 -10.453161129442574 15.895384099281813 0 1 0 I I #
point $-1 -62.669211767867267 -27.11526891164695 15.895384099281813 #
straight-curve $-1 -70.275582140568247 -27.11526891164695 0 0 0 1 I I #
point $-1 -70.275582140568247 -27.11526891164695 15.895384099281813 #
point $-1 -62.495920186026098 -23.567299395783067 8.0636214728368127 #
point $-1 -62.495920186026098 -18.245345121987235 8.0636214728368127 #
point $-1 -70.275582140568247 -41.063399331527933 15.895384099281813 #
straight-curve $-1 -70.275582140568247 -41.063399331527933 0 0 0 -1 I I #
point $-1 -70.275582140568247 -41.063399331527933 -15.895384099281813 #
straight-curve $-1 -33.113963814416977 -27.11526891164695 15.895384099281813 1 0 0 I I #
End-of-ACIS-data 