500 0 9 0           
7 Unknown 11 ACIS 5.0 NT 24 Fri Mar 26 15:35:15 1999 
-1 9.9999999999999995e-007 1e-010 
body $-1 $9 $-1 $10 #
body $-1 $11 $-1 $12 #
body $-1 $13 $-1 $14 #
body $-1 $15 $-1 $16 #
body $-1 $17 $-1 $18 #
body $-1 $19 $-1 $20 #
body $-1 $21 $-1 $22 #
body $-1 $23 $-1 $24 #
body $-1 $25 $-1 $26 #
lump $-1 $-1 $27 $0 #
transform $-1 1 0 0 0 1 0 0 0 1 52.004760887478255 31.533451084715161 9.0990563678695597 1 rotate no_reflect no_shear #
lump $-1 $-1 $28 $1 #
transform $-1 1 0 0 0 1 0 0 0 1 52.004760887478255 31.533451084715161 9.0990563678695597 1 rotate no_reflect no_shear #
lump $-1 $-1 $29 $2 #
transform $-1 1 0 0 0 1 0 0 0 1 52.004760887478255 31.533451084715161 9.0990563678695597 1 rotate no_reflect no_shear #
lump $-1 $-1 $30 $3 #
transform $-1 1 0 0 0 1 0 0 0 1 52.004760887478255 31.533451084715161 9.0990563678695597 1 rotate no_reflect no_shear #
lump $-1 $-1 $31 $4 #
transform $-1 1 0 0 0 1 0 0 0 1 52.004760887478255 31.533451084715161 9.0990563678695597 1 rotate no_reflect no_shear #
lump $-1 $-1 $32 $5 #
transform $-1 1 0 0 0 1 0 0 0 1 52.004760887478255 31.533451084715161 9.0990563678695597 1 rotate no_reflect no_shear #
lump $-1 $-1 $33 $6 #
transform $-1 1 0 0 0 1 0 0 0 1 52.004760887478255 31.533451084715161 9.0990563678695597 1 rotate no_reflect no_shear #
lump $-1 $-1 $34 $7 #
transform $-1 1 0 0 0 1 0 0 0 1 52.004760887478255 31.533451084715161 9.0990563678695597 1 rotate no_reflect no_shear #
lump $-1 $-1 $35 $8 #
transform $-1 1 0 0 0 1 0 0 0 1 52.004760887478255 31.533451084715161 9.0990563678695597 1 rotate no_reflect no_shear #
shell $-1 $-1 $-1 $36 $-1 $9 #
shell $-1 $-1 $-1 $37 $-1 $11 #
shell $-1 $-1 $-1 $38 $-1 $13 #
shell $-1 $-1 $-1 $39 $-1 $15 #
shell $-1 $-1 $-1 $40 $-1 $17 #
shell $-1 $-1 $-1 $41 $-1 $19 #
shell $-1 $-1 $-1 $42 $-1 $21 #
shell $-1 $-1 $-1 $43 $-1 $23 #
shell $-1 $-1 $-1 $44 $-1 $25 #
face $-1 $45 $46 $27 $-1 $47 forward single #
face $-1 $48 $49 $28 $-1 $50 forward single #
face $-1 $51 $52 $29 $-1 $53 reversed single #
face $-1 $54 $55 $30 $-1 $56 reversed single #
face $-1 $57 $58 $31 $-1 $59 forward single #
face $-1 $60 $61 $32 $-1 $62 forward single #
face $-1 $63 $64 $33 $-1 $65 reversed single #
face $-1 $66 $67 $34 $-1 $68 forward single #
face $-1 $69 $70 $35 $-1 $71 forward single #
face $-1 $72 $73 $27 $-1 $74 reversed single #
loop $-1 $-1 $75 $36 #
plane-surface $-1 0 0 9.0990563678695597 0 0 1 1 0 0 forward_v I I I I #
face $-1 $76 $77 $28 $-1 $78 reversed single #
loop $-1 $-1 $79 $37 #
plane-surface $-1 0 -31.533451084715161 0 0 1 0 0 0 1 forward_v I I I I #
face $-1 $80 $81 $29 $-1 $82 reversed single #
loop $-1 $-1 $83 $38 #
plane-surface $-1 -41.5787884915501 22.317826160612064 0 0 1 0 0 0 1 forward_v I I I I #
face $-1 $84 $85 $30 $-1 $86 reversed single #
loop $-1 $-1 $87 $39 #
plane-surface $-1 -104.00952247168888 -14.920640545972461 95.235828146024375 0 1 0 -0.50000000669873634 0 0.8660253999169214 forward_v I I I I #
face $-1 $88 $89 $31 $-1 $90 forward single #
loop $-1 $91 $92 $40 #
cone-surface $-1 -48.344252522065176 -13.182073681765836 6.6969857118262794 0.50000000669873634 0 -0.8660253999169214 0.4330126999584607 0 0.25000000334936817 1 I I 0 1 0.5 forward I I I I #
face $-1 $93 $94 $32 $-1 $95 forward single #
loop $-1 $96 $97 $41 #
cone-surface $-1 -48.344252522065176 -10.574223385455898 6.6969857118262794 0.50000000669873634 0 -0.8660253999169214 0.4330126999584607 0 0.25000000334936817 1 I I 0 1 0.5 forward I I I I #
face $-1 $98 $99 $33 $-1 $100 reversed single #
loop $-1 $-1 $101 $42 #
plane-surface $-1 -104.00952247168888 9.6867863692602221 95.235828146024375 0 1 0 -0.50000000669873634 0 0.8660253999169214 forward_v I I I I #
face $-1 $102 $103 $34 $-1 $104 forward single #
loop $-1 $105 $106 $43 #
cone-surface $-1 -48.344252522065176 11.425353233466851 6.6969857118262794 0.50000000669873634 0 -0.8660253999169214 0.4330126999584607 0 0.25000000334936817 1 I I 0 1 0.5 forward I I I I #
face $-1 $107 $108 $35 $-1 $109 forward single #
loop $-1 $110 $111 $44 #
cone-surface $-1 -48.344252522065176 14.033203529776792 6.6969857118262794 0.50000000669873634 0 -0.8660253999169214 0.4330126999584607 0 0.25000000334936817 1 I I 0 1 0.5 forward I I I I #
face $-1 $112 $113 $27 $-1 $114 reversed single #
loop $-1 $-1 $115 $45 #
plane-surface $-1 0 0 -9.0990563678695597 0 0 1 1 0 0 forward_v I I I I #
coedge $-1 $116 $117 $118 $119 forward $46 $-1 #
face $-1 $120 $121 $28 $-1 $122 reversed single #
loop $-1 $-1 $123 $48 #
plane-surface $-1 0 0 -9.0990563678695597 0 0 1 1 0 0 forward_v I I I I #
coedge $-1 $124 $125 $126 $127 forward $49 $-1 #
face $-1 $128 $129 $29 $-1 $130 reversed single #
loop $-1 $-1 $131 $51 #
plane-surface $-1 -44.214479690489092 26.925638622663612 0 1 0 0 0 0 -1 forward_v I I I I #
coedge $-1 $132 $133 $134 $135 forward $52 $-1 #
face $-1 $136 $137 $30 $-1 $138 reversed single #
loop $-1 $-1 $139 $54 #
plane-surface $-1 -52.004760887478263 -11.878148533610865 5.1609404556999152 -0.50000000669873634 0 0.8660253999169214 0.8660253999169214 0 0.50000000669873634 forward_v I I I I #
coedge $-1 $140 $141 $142 $143 reversed $55 $-1 #
face $-1 $-1 $144 $31 $-1 $145 forward single #
loop $-1 $146 $147 $57 #
cone-surface $-1 -47.969252517041127 -13.182073681765836 6.0474666618885884 0.50000000669873634 0 -0.8660253999169214 0.21650634997923035 0 0.12500000167468409 1 I I -0.70710678118654746 0.70710678118654746 0.25 forward I I I I #
loop $-1 $-1 $148 $40 #
coedge $-1 $92 $92 $149 $150 reversed $58 $-1 #
face $-1 $-1 $151 $32 $-1 $152 forward single #
loop $-1 $153 $154 $60 #
cone-surface $-1 -47.969252517041127 -10.574223385455898 6.0474666618885884 0.50000000669873634 0 -0.8660253999169214 0.21650634997923035 0 0.12500000167468409 1 I I -0.70710678118654746 0.70710678118654746 0.25 forward I I I I #
loop $-1 $-1 $155 $41 #
coedge $-1 $97 $97 $156 $157 reversed $61 $-1 #
face $-1 $158 $159 $33 $-1 $160 reversed single #
loop $-1 $-1 $161 $63 #
plane-surface $-1 -52.004760887478263 12.729278381621818 5.1609404556999152 -0.50000000669873634 0 0.8660253999169214 0.8660253999169214 0 0.50000000669873634 forward_v I I I I #
coedge $-1 $162 $163 $164 $165 reversed $64 $-1 #
face $-1 $-1 $166 $34 $-1 $167 forward single #
loop $-1 $168 $169 $66 #
cone-surface $-1 -47.969252517041127 11.425353233466851 6.0474666618885884 0.50000000669873634 0 -0.8660253999169214 0.21650634997923035 0 0.12500000167468409 1 I I -0.70710678118654746 0.70710678118654746 0.25 forward I I I I #
loop $-1 $-1 $170 $43 #
coedge $-1 $106 $106 $171 $172 reversed $67 $-1 #
face $-1 $-1 $173 $35 $-1 $174 forward single #
loop $-1 $175 $176 $69 #
cone-surface $-1 -47.969252517041127 14.033203529776792 6.0474666618885884 0.50000000669873634 0 -0.8660253999169214 0.21650634997923035 0 0.12500000167468409 1 I I -0.70710678118654746 0.70710678118654746 0.25 forward I I I I #
loop $-1 $-1 $177 $44 #
coedge $-1 $111 $111 $178 $179 reversed $70 $-1 #
face $-1 $180 $181 $27 $-1 $182 reversed single #
loop $-1 $-1 $183 $72 #
plane-surface $-1 0 -31.533451084715161 0 0 1 0 0 0 1 forward_v I I I I #
coedge $-1 $184 $185 $186 $187 forward $73 $-1 #
coedge $-1 $188 $75 $189 $190 forward $46 $-1 #
coedge $-1 $75 $188 $191 $192 forward $46 $-1 #
coedge $-1 $193 $194 $75 $119 reversed $195 $-1 #
edge $-1 $196 -31.533451084715161 $197 31.533451084715161 $118 $198 forward 7 unknown #
face $-1 $199 $200 $28 $-1 $201 forward single #
loop $-1 $-1 $202 $76 #
plane-surface $-1 52.004760887478255 0 0 -1 0 0 0 0 1 forward_v I I I I #
coedge $-1 $203 $204 $205 $206 forward $77 $-1 #
coedge $-1 $205 $79 $202 $207 reversed $49 $-1 #
coedge $-1 $79 $205 $208 $209 reversed $49 $-1 #
coedge $-1 $210 $211 $79 $127 reversed $200 $-1 #
edge $-1 $212 -52.004760887478255 $213 52.004760887478255 $126 $214 forward 7 unknown #
face $-1 $215 $216 $29 $-1 $217 forward single #
loop $-1 $-1 $218 $80 #
plane-surface $-1 -38.943097292611107 26.925638622663612 0 -1 0 0 0 0 1 forward_v I I I I #
coedge $-1 $219 $220 $221 $222 reversed $81 $-1 #
coedge $-1 $223 $83 $224 $225 reversed $52 $-1 #
coedge $-1 $83 $223 $226 $227 reversed $52 $-1 #
coedge $-1 $220 $219 $83 $135 reversed $81 $-1 #
edge $-1 $228 -9.0990563678695597 $229 9.0990563678695597 $134 $230 forward 7 unknown #
face $-1 $231 $232 $30 $-1 $233 forward single #
loop $-1 $-1 $234 $84 #
plane-surface $-1 -104.00952247168888 -8.8356565212492697 95.235828146024375 0 -1 0 0.50000000669873634 0 -0.8660253999169214 forward_v I I I I #
coedge $-1 $235 $236 $237 $238 reversed $85 $-1 #
coedge $-1 $141 $87 $239 $240 reversed $55 $-1 #
coedge $-1 $87 $140 $235 $241 reversed $55 $-1 #
coedge $-1 $237 $242 $87 $143 forward $232 $-1 #
edge $-1 $243 3.48366185676241e-007 $244 6.8210170724936106 $142 $245 forward 7 unknown #
loop $-1 $-1 $149 $88 #
plane-surface $-1 -52.004760887478263 -11.878148533610865 5.1609404556999152 -0.50000000669873634 0 0.8660253999169214 0.8660253999169214 0 0.50000000669873634 forward_v I I I I #
loop $-1 $-1 $246 $57 #
coedge $-1 $147 $147 $148 $247 reversed $89 $-1 #
coedge $-1 $148 $148 $147 $247 forward $91 $-1 #
coedge $-1 $149 $149 $92 $150 forward $144 $-1 #
edge $-1 $248 0 $248 6.2831853071796004 $149 $249 forward 7 unknown #
loop $-1 $-1 $156 $93 #
plane-surface $-1 -52.004760887478263 -11.878148533610865 5.1609404556999152 -0.50000000669873634 0 0.8660253999169214 0.8660253999169214 0 0.50000000669873634 forward_v I I I I #
loop $-1 $-1 $250 $60 #
coedge $-1 $154 $154 $155 $251 reversed $94 $-1 #
coedge $-1 $155 $155 $154 $251 forward $96 $-1 #
coedge $-1 $156 $156 $97 $157 forward $151 $-1 #
edge $-1 $252 0 $252 6.2831853071796004 $156 $253 forward 7 unknown #
face $-1 $254 $255 $33 $-1 $256 forward single #
loop $-1 $-1 $257 $98 #
plane-surface $-1 -104.00952247168888 15.771770393983413 95.235828146024375 0 -1 0 0.50000000669873634 0 -0.8660253999169214 forward_v I I I I #
coedge $-1 $258 $259 $260 $261 reversed $99 $-1 #
coedge $-1 $163 $101 $262 $263 reversed $64 $-1 #
coedge $-1 $101 $162 $258 $264 reversed $64 $-1 #
coedge $-1 $260 $265 $101 $165 forward $255 $-1 #
edge $-1 $266 3.48366185676241e-007 $267 6.8210170724936106 $164 $268 forward 7 unknown #
loop $-1 $-1 $171 $102 #
plane-surface $-1 -52.004760887478263 12.729278381621818 5.1609404556999152 -0.50000000669873634 0 0.8660253999169214 0.8660253999169214 0 0.50000000669873634 forward_v I I I I #
loop $-1 $-1 $269 $66 #
coedge $-1 $169 $169 $170 $270 reversed $103 $-1 #
coedge $-1 $170 $170 $169 $270 forward $105 $-1 #
coedge $-1 $171 $171 $106 $172 forward $166 $-1 #
edge $-1 $271 0 $271 6.2831853071796004 $171 $272 forward 7 unknown #
loop $-1 $-1 $178 $107 #
plane-surface $-1 -52.004760887478263 12.729278381621818 5.1609404556999152 -0.50000000669873634 0 0.8660253999169214 0.8660253999169214 0 0.50000000669873634 forward_v I I I I #
loop $-1 $-1 $273 $69 #
coedge $-1 $176 $176 $177 $274 reversed $108 $-1 #
coedge $-1 $177 $177 $176 $274 forward $110 $-1 #
coedge $-1 $178 $178 $111 $179 forward $173 $-1 #
edge $-1 $275 0 $275 6.2831853071796004 $178 $276 forward 7 unknown #
face $-1 $277 $278 $27 $-1 $279 reversed single #
loop $-1 $-1 $280 $112 #
plane-surface $-1 -52.004760887478255 0 0 1 0 0 0 0 -1 forward_v I I I I #
coedge $-1 $281 $191 $282 $283 forward $113 $-1 #
coedge $-1 $284 $115 $281 $285 forward $73 $-1 #
coedge $-1 $115 $284 $286 $287 forward $73 $-1 #
coedge $-1 $194 $193 $115 $187 reversed $195 $-1 #
edge $-1 $288 -31.533451084715161 $289 31.533451084715161 $186 $290 forward 7 unknown #
coedge $-1 $117 $116 $291 $292 forward $46 $-1 #
coedge $-1 $293 $294 $116 $190 reversed $278 $-1 #
edge $-1 $197 -52.004760887478255 $295 52.004760887478255 $189 $296 forward 7 unknown #
coedge $-1 $183 $297 $117 $192 reversed $113 $-1 #
edge $-1 $298 -52.004760887478255 $196 52.004760887478255 $191 $299 forward 7 unknown #
coedge $-1 $186 $118 $297 $300 forward $195 $-1 #
coedge $-1 $118 $186 $293 $301 reversed $195 $-1 #
loop $-1 $-1 $193 $277 #
vertex $-1 $119 $302 #
vertex $-1 $119 $303 #
straight-curve $-1 52.004760887478255 0 9.0990563678695597 0 1 0 I I #
face $-1 $304 $305 $28 $-1 $306 reversed single #
loop $-1 $-1 $211 $120 #
plane-surface $-1 0 -36.566828470772187 -4.2929707274000144 0 0 1 1 0 0 forward_v I I I I #
coedge $-1 $307 $308 $124 $207 forward $121 $-1 #
coedge $-1 $309 $123 $308 $310 forward $77 $-1 #
coedge $-1 $123 $309 $311 $312 forward $77 $-1 #
coedge $-1 $125 $124 $123 $206 reversed $49 $-1 #
edge $-1 $313 -52.004760887478255 $314 52.004760887478255 $123 $315 forward 7 unknown #
edge $-1 $314 -9.0990563678695597 $213 -4.2929707274000144 $202 $316 forward 7 unknown #
coedge $-1 $311 $317 $125 $209 forward $318 $-1 #
edge $-1 $212 4.2929707274000144 $313 9.0990563678695597 $208 $319 forward 7 unknown #
coedge $-1 $320 $126 $317 $321 forward $200 $-1 #
coedge $-1 $126 $320 $307 $322 forward $200 $-1 #
vertex $-1 $209 $323 #
vertex $-1 $322 $324 #
straight-curve $-1 0 -31.533451084715161 -4.2929707274000144 1 0 0 I I #
face $-1 $325 $326 $29 $-1 $327 reversed single #
loop $-1 $-1 $328 $128 #
plane-surface $-1 0 0 9.0990563678695597 0 0 1 1 0 0 forward_v I I I I #
coedge $-1 $329 $330 $223 $331 forward $129 $-1 #
coedge $-1 $134 $131 $332 $333 reversed $81 $-1 #
coedge $-1 $131 $134 $328 $334 reversed $81 $-1 #
coedge $-1 $335 $336 $131 $222 forward $337 $-1 #
edge $-1 $338 -9.0990563678695597 $339 9.0990563678695597 $221 $340 forward 7 unknown #
coedge $-1 $133 $132 $218 $331 reversed $52 $-1 #
coedge $-1 $332 $341 $132 $225 forward $326 $-1 #
edge $-1 $342 18.153703046836057 $229 23.425085444714043 $224 $343 forward 7 unknown #
coedge $-1 $344 $328 $133 $227 forward $216 $-1 #
edge $-1 $228 -23.425085444714043 $345 -18.153703046836057 $226 $346 forward 7 unknown #
vertex $-1 $227 $347 #
vertex $-1 $225 $348 #
straight-curve $-1 -44.214479690489092 22.317826160612064 0 0 0 -1 I I #
face $-1 $-1 $349 $30 $-1 $350 reversed single #
loop $-1 $-1 $142 $136 #
plane-surface $-1 0 0 9.0990563678695597 0 0 1 1 0 0 forward_v I I I I #
coedge $-1 $351 $352 $353 $354 reversed $137 $-1 #
coedge $-1 $355 $139 $141 $241 forward $85 $-1 #
coedge $-1 $139 $355 $351 $356 forward $85 $-1 #
coedge $-1 $353 $142 $139 $238 forward $232 $-1 #
edge $-1 $244 -8.9815662791670281 $357 -2.8965822544438371 $237 $358 forward 7 unknown #
coedge $-1 $359 $360 $140 $240 forward $349 $-1 #
edge $-1 $361 -42.456973617312265 $243 -38.518857705142629 $239 $362 forward 7 unknown #
edge $-1 $244 -7.8762317188176905 $361 -8.3739266479457192e-015 $141 $363 forward 7 unknown #
coedge $-1 $142 $353 $359 $364 forward $232 $-1 #
vertex $-1 $240 $365 #
vertex $-1 $143 $366 #
straight-curve $-1 -52.004761235844441 -14.920640545972461 9.099056367869558 1 0 0 I I #
coedge $-1 $246 $246 $-1 $367 reversed $146 $-1 #
edge $-1 $368 0 $368 6.2831853071796004 $147 $369 forward 7 unknown #
vertex $-1 $150 $370 #
ellipse-curve $-1 -48.594252525414547 -13.182073681765836 7.1299984117847393 -0.50000000669873634 0 0.8660253999169214 0.4330126999584607 0 0.25000000334936817 1 I I #
coedge $-1 $250 $250 $-1 $371 reversed $153 $-1 #
edge $-1 $372 0 $372 6.2831853071796004 $154 $373 forward 7 unknown #
vertex $-1 $157 $374 #
ellipse-curve $-1 -48.594252525414547 -10.574223385455898 7.1299984117847393 -0.50000000669873634 0 0.8660253999169214 0.4330126999584607 0 0.25000000334936817 1 I I #
face $-1 $-1 $375 $33 $-1 $376 reversed single #
loop $-1 $-1 $164 $158 #
plane-surface $-1 0 0 9.0990563678695597 0 0 1 1 0 0 forward_v I I I I #
coedge $-1 $377 $378 $379 $380 reversed $159 $-1 #
coedge $-1 $381 $161 $163 $264 forward $99 $-1 #
coedge $-1 $161 $381 $377 $382 forward $99 $-1 #
coedge $-1 $379 $164 $161 $261 forward $255 $-1 #
edge $-1 $267 3.3221471784493133 $383 9.4071312031725043 $260 $384 forward 7 unknown #
coedge $-1 $385 $386 $162 $263 forward $375 $-1 #
edge $-1 $387 -42.456973617312265 $266 -38.518857705142629 $262 $388 forward 7 unknown #
edge $-1 $267 -7.8762317188176905 $387 -8.3739266479457192e-015 $163 $389 forward 7 unknown #
coedge $-1 $164 $379 $385 $390 forward $255 $-1 #
vertex $-1 $165 $391 #
vertex $-1 $165 $392 #
straight-curve $-1 -52.004761235844441 9.6867863692602221 9.099056367869558 1 0 0 I I #
coedge $-1 $269 $269 $-1 $393 reversed $168 $-1 #
edge $-1 $394 0 $394 6.2831853071796004 $169 $395 forward 7 unknown #
vertex $-1 $172 $396 #
ellipse-curve $-1 -48.594252525414547 11.425353233466851 7.1299984117847393 -0.50000000669873634 0 0.8660253999169214 0.4330126999584607 0 0.25000000334936817 1 I I #
coedge $-1 $273 $273 $-1 $397 reversed $175 $-1 #
edge $-1 $398 0 $398 6.2831853071796004 $176 $399 forward 7 unknown #
vertex $-1 $179 $400 #
ellipse-curve $-1 -48.594252525414547 14.033203529776792 7.1299984117847393 -0.50000000669873634 0 0.8660253999169214 0.4330126999584607 0 0.25000000334936817 1 I I #
face $-1 $-1 $195 $27 $-1 $401 reversed single #
loop $-1 $-1 $293 $180 #
plane-surface $-1 0 31.533451084715161 0 0 -1 0 0 0 -1 forward_v I I I I #
coedge $-1 $402 $291 $294 $403 forward $181 $-1 #
coedge $-1 $297 $183 $184 $285 reversed $113 $-1 #
coedge $-1 $291 $402 $183 $283 reversed $181 $-1 #
edge $-1 $298 -9.0990563678695597 $404 9.0990563678695597 $282 $405 forward 7 unknown #
coedge $-1 $185 $184 $402 $406 forward $73 $-1 #
edge $-1 $289 -52.004760887478255 $404 52.004760887478255 $281 $407 forward 7 unknown #
coedge $-1 $294 $293 $185 $287 reversed $278 $-1 #
edge $-1 $408 -52.004760887478255 $288 52.004760887478255 $286 $409 forward 7 unknown #
vertex $-1 $187 $410 #
vertex $-1 $300 $411 #
straight-curve $-1 52.004760887478255 0 -9.0990563678695597 0 -1 0 I I #
coedge $-1 $280 $282 $188 $292 reversed $181 $-1 #
edge $-1 $295 -31.533451084715161 $298 31.533451084715161 $291 $412 forward 7 unknown #
coedge $-1 $286 $189 $194 $301 forward $278 $-1 #
coedge $-1 $189 $286 $280 $403 reversed $278 $-1 #
vertex $-1 $190 $413 #
straight-curve $-1 0 31.533451084715161 9.0990563678695597 -1 0 0 I I #
coedge $-1 $191 $281 $193 $300 reversed $113 $-1 #
vertex $-1 $292 $414 #
straight-curve $-1 0 -31.533451084715161 9.0990563678695597 1 0 0 I I #
edge $-1 $196 -9.0990563678695597 $289 9.0990563678695597 $193 $415 forward 7 unknown #
edge $-1 $197 -9.0990563678695597 $288 9.0990563678695597 $194 $416 forward 7 unknown #
point $-1 52.004760887478255 -31.533451084715161 9.0990563678695597 #
point $-1 52.004760887478255 31.533451084715161 9.0990563678695597 #
face $-1 $-1 $318 $28 $-1 $417 reversed single #
loop $-1 $-1 $418 $199 #
plane-surface $-1 0 -41.600205856829213 -6.6960135476347871 0 1 0 0 0 1 forward_v I I I I #
coedge $-1 $419 $202 $211 $322 reversed $121 $-1 #
coedge $-1 $202 $419 $203 $310 reversed $121 $-1 #
coedge $-1 $204 $203 $420 $421 forward $77 $-1 #
edge $-1 $314 31.533451084715161 $422 41.600205856829213 $308 $423 forward 7 unknown #
coedge $-1 $424 $208 $204 $312 reversed $318 $-1 #
edge $-1 $425 -41.600205856829213 $313 -31.533451084715161 $311 $426 forward 7 unknown #
vertex $-1 $209 $427 #
vertex $-1 $310 $428 #
straight-curve $-1 0 -31.533451084715161 -9.0990563678695597 1 0 0 I I #
straight-curve $-1 52.004760887478255 -31.533451084715161 0 0 0 1 I I #
coedge $-1 $208 $424 $210 $321 reversed $318 $-1 #
loop $-1 $-1 $208 $304 #
straight-curve $-1 -52.004760887478255 -31.533451084715161 0 0 0 -1 I I #
coedge $-1 $211 $210 $429 $430 forward $200 $-1 #
edge $-1 $212 -5.0333773860570261 $431 5.0333773860570261 $317 $432 forward 7 unknown #
edge $-1 $433 -5.0333773860570261 $213 5.0333773860570261 $307 $434 forward 7 unknown #
point $-1 -52.004760887478255 -31.533451084715161 -4.2929707274000144 #
point $-1 52.004760887478255 -31.533451084715161 -4.2929707274000144 #
face $-1 $-1 $337 $29 $-1 $435 reversed single #
loop $-1 $-1 $332 $215 #
plane-surface $-1 0 0 -9.0990563678695597 0 0 1 1 0 0 forward_v I I I I #
coedge $-1 $226 $436 $220 $334 forward $216 $-1 #
coedge $-1 $437 $218 $341 $438 reversed $129 $-1 #
coedge $-1 $218 $437 $344 $439 reversed $129 $-1 #
edge $-1 $345 -9.0990563678695597 $342 9.0990563678695597 $218 $440 forward 7 unknown #
coedge $-1 $441 $224 $219 $333 forward $326 $-1 #
edge $-1 $229 8.8550068492802581 $338 18.070631773383354 $332 $442 forward 7 unknown #
edge $-1 $339 -18.070631773383354 $228 -8.8550068492802581 $328 $443 forward 7 unknown #
coedge $-1 $444 $221 $436 $445 reversed $337 $-1 #
coedge $-1 $221 $444 $441 $446 reversed $337 $-1 #
loop $-1 $-1 $221 $325 #
vertex $-1 $446 $447 #
vertex $-1 $222 $448 #
straight-curve $-1 -44.214479690489092 31.533451084715161 0 0 0 1 I I #
coedge $-1 $224 $441 $329 $438 forward $326 $-1 #
vertex $-1 $225 $449 #
straight-curve $-1 -20.78939424577505 22.317826160612064 -9.0990563678695597 -1 0 0 I I #
coedge $-1 $436 $226 $330 $439 forward $216 $-1 #
vertex $-1 $227 $450 #
straight-curve $-1 -20.78939424577505 22.317826160612064 9.0990563678695597 1 0 0 I I #
point $-1 -44.214479690489092 22.317826160612064 9.0990563678695597 #
point $-1 -44.214479690489092 22.317826160612064 -9.0990563678695597 #
loop $-1 $-1 $239 $231 #
plane-surface $-1 -52.004760887478255 0 0 1 0 0 0 0 -1 forward_v I I I I #
coedge $-1 $352 $234 $236 $356 reversed $137 $-1 #
coedge $-1 $234 $351 $451 $452 reversed $137 $-1 #
coedge $-1 $242 $237 $234 $354 forward $232 $-1 #
edge $-1 $357 -6.8210170724936106 $453 -3.48366185676241e-007 $353 $454 forward 7 unknown #
coedge $-1 $236 $235 $360 $455 reversed $85 $-1 #
edge $-1 $456 8.3739266479457192e-015 $357 7.8762317188176905 $351 $457 forward 7 unknown #
vertex $-1 $238 $458 #
straight-curve $-1 -45.183744163350831 -5.9390742668054326 9.0990563678695615 0 1 0 I I #
coedge $-1 $451 $239 $242 $364 reversed $349 $-1 #
coedge $-1 $239 $451 $355 $455 forward $349 $-1 #
vertex $-1 $240 $459 #
straight-curve $-1 -52.004760887478255 -14.920640545972461 47.617914073012187 0 0 1 I I #
straight-curve $-1 -52.004760887478263 -14.920640545972461 5.1609404556999152 -0.8660253999169214 0 -0.50000000669873634 I I #
edge $-1 $453 8.8356565212492697 $243 14.920640545972461 $359 $460 forward 7 unknown #
point $-1 -52.004760887478255 -14.920640545972461 9.0990563678695597 #
point $-1 -45.183744163350831 -14.920640545972461 9.0990563678695597 #
edge $-1 $461 1 $461 0 $246 $-1 forward 7 unknown #
vertex $-1 $247 $462 #
ellipse-curve $-1 -48.094252518715813 -13.182073681765836 6.2639730118678187 -0.50000000669873634 0 0.8660253999169214 0.4330126999584607 0 0.25000000334936817 1 I I #
point $-1 -48.161239825456086 -13.182073681765836 7.379998415134108 #
edge $-1 $463 1 $463 0 $250 $-1 forward 7 unknown #
vertex $-1 $251 $464 #
ellipse-curve $-1 -48.094252518715813 -10.574223385455898 6.2639730118678187 -0.50000000669873634 0 0.8660253999169214 0.4330126999584607 0 0.25000000334936817 1 I I #
point $-1 -48.161239825456086 -10.574223385455898 7.379998415134108 #
loop $-1 $-1 $262 $254 #
plane-surface $-1 -52.004760887478255 0 0 1 0 0 0 0 -1 forward_v I I I I #
coedge $-1 $378 $257 $259 $382 reversed $159 $-1 #
coedge $-1 $257 $377 $465 $466 reversed $159 $-1 #
coedge $-1 $265 $260 $257 $380 forward $255 $-1 #
edge $-1 $383 -6.8210170724936106 $467 -3.48366185676241e-007 $379 $468 forward 7 unknown #
coedge $-1 $259 $258 $386 $469 reversed $99 $-1 #
edge $-1 $470 8.3739266479457192e-015 $383 7.8762317188176905 $377 $471 forward 7 unknown #
vertex $-1 $261 $472 #
straight-curve $-1 -45.183744163350831 6.3646391908109088 9.0990563678695615 0 1 0 I I #
coedge $-1 $465 $262 $265 $390 reversed $375 $-1 #
coedge $-1 $262 $465 $381 $469 forward $375 $-1 #
vertex $-1 $263 $473 #
straight-curve $-1 -52.004760887478255 9.6867863692602221 47.617914073012187 0 0 1 I I #
straight-curve $-1 -52.004760887478263 9.6867863692602221 5.1609404556999152 -0.8660253999169214 0 -0.50000000669873634 I I #
edge $-1 $467 -15.771770393983413 $266 -9.6867863692602221 $385 $474 forward 7 unknown #
point $-1 -52.004760887478255 9.6867863692602221 9.0990563678695597 #
point $-1 -45.183744163350831 9.6867863692602221 9.0990563678695597 #
edge $-1 $475 1 $475 0 $269 $-1 forward 7 unknown #
vertex $-1 $270 $476 #
ellipse-curve $-1 -48.094252518715813 11.425353233466851 6.2639730118678187 -0.50000000669873634 0 0.8660253999169214 0.4330126999584607 0 0.25000000334936817 1 I I #
point $-1 -48.161239825456086 11.425353233466851 7.379998415134108 #
edge $-1 $477 1 $477 0 $273 $-1 forward 7 unknown #
vertex $-1 $274 $478 #
ellipse-curve $-1 -48.094252518715813 14.033203529776792 6.2639730118678187 -0.50000000669873634 0 0.8660253999169214 0.4330126999584607 0 0.25000000334936817 1 I I #
point $-1 -48.161239825456086 14.033203529776792 7.379998415134108 #
plane-surface $-1 52.004760887478255 0 0 -1 0 0 0 0 1 forward_v I I I I #
coedge $-1 $282 $280 $284 $406 reversed $181 $-1 #
edge $-1 $295 -9.0990563678695597 $408 9.0990563678695597 $294 $479 forward 7 unknown #
vertex $-1 $406 $480 #
straight-curve $-1 -52.004760887478255 -31.533451084715161 0 0 0 -1 I I #
edge $-1 $404 -31.533451084715161 $408 31.533451084715161 $402 $481 forward 7 unknown #
straight-curve $-1 0 -31.533451084715161 -9.0990563678695597 -1 0 0 I I #
vertex $-1 $287 $482 #
straight-curve $-1 0 31.533451084715161 -9.0990563678695597 1 0 0 I I #
point $-1 52.004760887478255 31.533451084715161 -9.0990563678695597 #
point $-1 52.004760887478255 -31.533451084715161 -9.0990563678695597 #
straight-curve $-1 -52.004760887478255 0 9.0990563678695597 0 -1 0 I I #
point $-1 -52.004760887478255 31.533451084715161 9.0990563678695597 #
point $-1 -52.004760887478255 -31.533451084715161 9.0990563678695597 #
straight-curve $-1 52.004760887478255 -31.533451084715161 0 0 0 -1 I I #
straight-curve $-1 52.004760887478255 31.533451084715161 0 0 0 -1 I I #
plane-surface $-1 -52.004760887478255 0 0 1 0 0 0 0 -1 forward_v I I I I #
coedge $-1 $420 $429 $424 $483 forward $305 $-1 #
coedge $-1 $308 $307 $484 $485 forward $121 $-1 #
coedge $-1 $484 $418 $309 $421 reversed $305 $-1 #
edge $-1 $422 -52.004760887478255 $425 52.004760887478255 $420 $486 forward 7 unknown #
vertex $-1 $485 $487 #
straight-curve $-1 52.004760887478255 0 -9.0990563678695597 0 -1 0 I I #
coedge $-1 $317 $311 $418 $483 reversed $318 $-1 #
vertex $-1 $312 $488 #
straight-curve $-1 -52.004760887478255 0 -9.0990563678695597 0 1 0 I I #
point $-1 -52.004760887478255 -31.533451084715161 -9.0990563678695597 #
point $-1 52.004760887478255 -31.533451084715161 -9.0990563678695597 #
coedge $-1 $418 $484 $320 $430 reversed $305 $-1 #
edge $-1 $431 -52.004760887478255 $433 52.004760887478255 $429 $489 forward 7 unknown #
vertex $-1 $321 $490 #
straight-curve $-1 -52.004760887478255 -36.566828470772187 -4.2929707274000144 0 -1 0 I I #
vertex $-1 $322 $491 #
straight-curve $-1 52.004760887478255 -36.566828470772187 -4.2929707274000144 0 1 0 I I #
plane-surface $-1 0 31.533451084715161 0 0 -1 0 0 0 -1 forward_v I I I I #
coedge $-1 $328 $344 $335 $445 forward $216 $-1 #
coedge $-1 $330 $329 $444 $492 reversed $129 $-1 #
edge $-1 $493 -18.070631773383354 $342 -8.8550068492802581 $341 $494 forward 7 unknown #
edge $-1 $345 8.8550068492802581 $495 18.070631773383354 $344 $496 forward 7 unknown #
straight-curve $-1 -38.943097292611107 22.317826160612064 0 0 0 -1 I I #
coedge $-1 $341 $332 $336 $446 forward $326 $-1 #
straight-curve $-1 -44.214479690489092 13.462819311331806 -9.0990563678695597 0 1 0 I I #
straight-curve $-1 -44.214479690489092 13.462819311331806 9.0990563678695597 0 -1 0 I I #
coedge $-1 $336 $335 $437 $492 forward $337 $-1 #
edge $-1 $495 38.943097292611107 $339 44.214479690489092 $335 $497 forward 7 unknown #
edge $-1 $338 -44.214479690489092 $493 -38.943097292611107 $336 $498 forward 7 unknown #
point $-1 -44.214479690489092 31.533451084715161 -9.0990563678695597 #
point $-1 -44.214479690489092 31.533451084715161 9.0990563678695597 #
point $-1 -38.943097292611107 22.317826160612064 -9.0990563678695597 #
point $-1 -38.943097292611107 22.317826160612064 9.0990563678695597 #
coedge $-1 $360 $359 $352 $452 forward $349 $-1 #
edge $-1 $453 38.518857705142629 $456 42.456973617312265 $451 $499 forward 7 unknown #
vertex $-1 $364 $500 #
straight-curve $-1 -52.004761235844441 -8.8356565212492697 9.099056367869558 -1 0 0 I I #
edge $-1 $456 2.8965822544438371 $361 8.9815662791670281 $360 $501 forward 7 unknown #
vertex $-1 $455 $502 #
straight-curve $-1 -52.004760887478263 -8.8356565212492697 5.1609404556999152 0.8660253999169214 0 0.50000000669873634 I I #
point $-1 -45.183744163350831 -8.8356565212492697 9.0990563678695597 #
point $-1 -52.004760887478255 -14.920640545972461 5.1609404556999197 #
straight-curve $-1 -52.004760887478255 0 9.0990563678695597 0 -1 0 I I #
vertex $-1 $367 $503 #
point $-1 -47.661239818757352 -13.182073681765836 6.5139730152171866 #
vertex $-1 $371 $504 #
point $-1 -47.661239818757352 -10.574223385455898 6.5139730152171866 #
coedge $-1 $386 $385 $378 $466 forward $375 $-1 #
edge $-1 $467 38.518857705142629 $470 42.456973617312265 $465 $505 forward 7 unknown #
vertex $-1 $390 $506 #
straight-curve $-1 -52.004761235844441 15.771770393983413 9.099056367869558 -1 0 0 I I #
edge $-1 $470 -9.4071312031725043 $387 -3.3221471784493133 $386 $507 forward 7 unknown #
vertex $-1 $469 $508 #
straight-curve $-1 -52.004760887478263 15.771770393983413 5.1609404556999152 0.8660253999169214 0 0.50000000669873634 I I #
point $-1 -45.183744163350831 15.771770393983413 9.0990563678695597 #
point $-1 -52.004760887478255 9.6867863692602221 5.1609404556999197 #
straight-curve $-1 -52.004760887478255 0 9.0990563678695597 0 -1 0 I I #
vertex $-1 $393 $509 #
point $-1 -47.661239818757352 11.425353233466851 6.5139730152171866 #
vertex $-1 $397 $510 #
point $-1 -47.661239818757352 14.033203529776792 6.5139730152171866 #
straight-curve $-1 -52.004760887478255 31.533451084715161 0 0 0 -1 I I #
point $-1 -52.004760887478255 -31.533451084715161 -9.0990563678695597 #
straight-curve $-1 -52.004760887478255 0 -9.0990563678695597 0 1 0 I I #
point $-1 -52.004760887478255 31.533451084715161 -9.0990563678695597 #
edge $-1 $431 -2.4030428202347727 $425 2.4030428202347727 $424 $511 forward 7 unknown #
coedge $-1 $429 $420 $419 $485 reversed $305 $-1 #
edge $-1 $433 -2.4030428202347727 $422 2.4030428202347727 $419 $512 forward 7 unknown #
straight-curve $-1 0 -41.600205856829213 -9.0990563678695597 -1 0 0 I I #
point $-1 52.004760887478255 -41.600205856829213 -9.0990563678695597 #
point $-1 -52.004760887478255 -41.600205856829213 -9.0990563678695597 #
straight-curve $-1 0 -41.600205856829213 -4.2929707274000144 1 0 0 I I #
point $-1 -52.004760887478255 -41.600205856829213 -4.2929707274000144 #
point $-1 52.004760887478255 -41.600205856829213 -4.2929707274000144 #
edge $-1 $495 -9.0990563678695597 $493 9.0990563678695597 $444 $513 forward 7 unknown #
vertex $-1 $492 $514 #
straight-curve $-1 -38.943097292611107 13.462819311331806 -9.0990563678695597 0 -1 0 I I #
vertex $-1 $445 $515 #
straight-curve $-1 -38.943097292611107 13.462819311331806 9.0990563678695597 0 1 0 I I #
straight-curve $-1 0 31.533451084715161 9.0990563678695597 -1 0 0 I I #
straight-curve $-1 0 31.533451084715161 -9.0990563678695597 1 0 0 I I #
straight-curve $-1 -52.004760887478255 -8.8356565212492697 47.617914073012187 0 0 -1 I I #
point $-1 -52.004760887478255 -8.8356565212492697 9.0990563678695597 #
straight-curve $-1 -52.004760887478255 -5.9390742668054326 5.1609404556999188 0 -1 0 I I #
point $-1 -52.004760887478255 -8.8356565212492697 5.1609404556999197 #
point $-1 -47.844252515366442 -13.182073681765836 5.830960311909358 #
point $-1 -47.844252515366442 -10.574223385455898 5.830960311909358 #
straight-curve $-1 -52.004760887478255 15.771770393983413 47.617914073012187 0 0 -1 I I #
point $-1 -52.004760887478255 15.771770393983413 9.0990563678695597 #
straight-curve $-1 -52.004760887478255 6.3646391908109088 5.1609404556999188 0 -1 0 I I #
point $-1 -52.004760887478255 15.771770393983413 5.1609404556999197 #
point $-1 -47.844252515366442 11.425353233466851 5.830960311909358 #
point $-1 -47.844252515366442 14.033203529776792 5.830960311909358 #
straight-curve $-1 -52.004760887478255 -41.600205856829213 -6.6960135476347871 0 0 -1 I I #
straight-curve $-1 52.004760887478255 -41.600205856829213 -6.6960135476347871 0 0 -1 I I #
straight-curve $-1 -38.943097292611107 31.533451084715161 0 0 0 -1 I I #
point $-1 -38.943097292611107 31.533451084715161 -9.0990563678695597 #
point $-1 -38.943097292611107 31.533451084715161 9.0990563678695597 #
End-of-ACIS-data 