500 0 6 0           
7 Unknown 11 ACIS 5.0 NT 24 Thu Mar 25 15:45:42 1999 
-1 9.9999999999999995e-007 1e-010 
body $-1 $6 $-1 $7 #
body $-1 $8 $-1 $9 #
body $-1 $10 $-1 $11 #
body $-1 $12 $-1 $13 #
body $-1 $14 $-1 $15 #
body $-1 $16 $-1 $17 #
lump $-1 $-1 $18 $0 #
transform $-1 1 0 0 0 1 0 0 0 1 59.227881710257272 32.034968863878859 12.717003723068656 1 rotate no_reflect no_shear #
lump $-1 $-1 $19 $1 #
transform $-1 1 0 0 0 1 0 0 0 1 59.227881710257272 32.034968863878859 12.717003723068656 1 rotate no_reflect no_shear #
lump $-1 $-1 $20 $2 #
transform $-1 1 0 0 0 1 0 0 0 1 59.227881710257272 32.034968863878859 12.717003723068656 1 rotate no_reflect no_shear #
lump $-1 $-1 $21 $3 #
transform $-1 1 0 0 0 1 0 0 0 1 59.227881710257272 32.034968863878859 12.717003723068656 1 rotate no_reflect no_shear #
lump $-1 $-1 $22 $4 #
transform $-1 1 0 0 0 1 0 0 0 1 59.227881710257272 32.034968863878859 12.717003723068656 1 rotate no_reflect no_shear #
lump $-1 $-1 $23 $5 #
transform $-1 1 0 0 0 1 0 0 0 1 59.227881710257272 32.034968863878859 12.717003723068656 1 rotate no_reflect no_shear #
shell $-1 $-1 $-1 $24 $-1 $6 #
shell $-1 $-1 $-1 $25 $-1 $8 #
shell $-1 $-1 $-1 $26 $-1 $10 #
shell $-1 $-1 $-1 $27 $-1 $12 #
shell $-1 $-1 $-1 $28 $-1 $14 #
shell $-1 $-1 $-1 $29 $-1 $16 #
face $-1 $30 $31 $18 $-1 $32 forward single #
face $-1 $33 $34 $19 $-1 $35 reversed single #
face $-1 $36 $37 $20 $-1 $38 reversed single #
face $-1 $39 $40 $21 $-1 $41 forward single #
face $-1 $42 $43 $22 $-1 $44 forward single #
face $-1 $45 $46 $23 $-1 $47 forward single #
face $-1 $48 $49 $18 $-1 $50 reversed single #
loop $-1 $-1 $51 $24 #
plane-surface $-1 0 0 12.717003723068656 0 0 1 1 0 0 forward_v I I I I #
face $-1 $52 $53 $19 $-1 $54 reversed single #
loop $-1 $-1 $55 $25 #
plane-surface $-1 -52.477852772826274 -28.249169598854735 0 0 -1 0 0 0 -1 forward_v I I I I #
face $-1 $56 $57 $20 $-1 $58 reversed single #
loop $-1 $-1 $59 $26 #
plane-surface $-1 52.364136673223008 -32.034968863878859 9.1470375633427707 0 -0.85716730853699208 0.51503806187062418 1 0 0 forward_v I I I I #
face $-1 $60 $61 $21 $-1 $62 forward single #
loop $-1 $63 $64 $27 #
cone-surface $-1 48.245889651002464 -30.533859208247126 10.674501612270401 0 0.85716730853699208 -0.51503806187062418 0.25 0 0 1 I I 0 1 0.25 forward I I I I #
face $-1 $65 $66 $22 $-1 $67 forward single #
loop $-1 $68 $69 $28 #
cone-surface $-1 52.364136673223022 -30.533859208247126 10.674501612270401 0 0.85716730853699208 -0.51503806187062418 0.25 0 0 1 I I 0 1 0.25 forward I I I I #
face $-1 $70 $71 $23 $-1 $72 forward single #
loop $-1 $73 $74 $29 #
cone-surface $-1 56.482383695443581 -30.533859208247126 10.674501612270401 0 0.85716730853699208 -0.51503806187062418 0.25 0 0 1 I I 0 1 0.25 forward I I I I #
face $-1 $75 $76 $18 $-1 $77 reversed single #
loop $-1 $-1 $78 $30 #
plane-surface $-1 0 0 -12.717003723068656 0 0 1 1 0 0 forward_v I I I I #
coedge $-1 $79 $80 $81 $82 forward $31 $-1 #
face $-1 $83 $84 $19 $-1 $85 forward single #
loop $-1 $-1 $86 $33 #
plane-surface $-1 -45.727823835395277 -30.142069231366797 0 -1 0 0 0 0 1 forward_v I I I I #
coedge $-1 $87 $88 $89 $90 forward $34 $-1 #
face $-1 $91 $92 $20 $-1 $93 reversed single #
loop $-1 $-1 $94 $36 #
plane-surface $-1 45.500391636188752 -133.57137677573598 70.156264372849762 1 0 0 0 0.85716730853699208 -0.51503806187062418 forward_v I I I I #
coedge $-1 $95 $96 $97 $98 reversed $37 $-1 #
face $-1 $-1 $99 $21 $-1 $100 forward single #
loop $-1 $101 $102 $39 #
cone-surface $-1 48.245889651002464 -29.998129640411506 10.352602823601261 0 0.85716730853699208 -0.51503806187062418 0.125 0 0 1 I I -0.70710678118654746 0.70710678118654746 0.125 forward I I I I #
loop $-1 $-1 $103 $27 #
coedge $-1 $64 $64 $104 $105 reversed $40 $-1 #
face $-1 $-1 $106 $22 $-1 $107 forward single #
loop $-1 $108 $109 $42 #
cone-surface $-1 52.364136673223022 -29.998129640411506 10.352602823601261 0 0.85716730853699208 -0.51503806187062418 0.125 0 0 1 I I -0.70710678118654746 0.70710678118654746 0.125 forward I I I I #
loop $-1 $-1 $110 $28 #
coedge $-1 $69 $69 $111 $112 reversed $43 $-1 #
face $-1 $-1 $113 $23 $-1 $114 forward single #
loop $-1 $115 $116 $45 #
cone-surface $-1 56.482383695443581 -29.998129640411506 10.352602823601261 0 0.85716730853699208 -0.51503806187062418 0.125 0 0 1 I I -0.70710678118654746 0.70710678118654746 0.125 forward I I I I #
loop $-1 $-1 $117 $29 #
coedge $-1 $74 $74 $118 $119 reversed $46 $-1 #
face $-1 $120 $121 $18 $-1 $122 reversed single #
loop $-1 $-1 $123 $48 #
plane-surface $-1 0 -32.034968863878859 0 0 1 0 0 0 1 forward_v I I I I #
coedge $-1 $124 $125 $126 $127 forward $49 $-1 #
coedge $-1 $128 $51 $129 $130 forward $31 $-1 #
coedge $-1 $51 $128 $131 $132 forward $31 $-1 #
coedge $-1 $133 $134 $51 $82 reversed $135 $-1 #
edge $-1 $136 -32.034968863878859 $137 32.034968863878859 $81 $138 forward 7 unknown #
face $-1 $139 $140 $19 $-1 $141 reversed single #
loop $-1 $-1 $142 $52 #
plane-surface $-1 0 0 12.717003723068656 0 0 1 1 0 0 forward_v I I I I #
coedge $-1 $143 $144 $145 $146 reversed $53 $-1 #
coedge $-1 $147 $55 $148 $149 reversed $34 $-1 #
coedge $-1 $55 $147 $150 $151 reversed $34 $-1 #
coedge $-1 $144 $143 $55 $90 reversed $53 $-1 #
edge $-1 $152 -12.717003723068656 $153 12.717003723068656 $89 $154 forward 7 unknown #
face $-1 $155 $156 $20 $-1 $157 forward single #
loop $-1 $-1 $158 $56 #
plane-surface $-1 59.227881710257272 0 0 -1 0 0 0 0 1 forward_v I I I I #
coedge $-1 $159 $160 $161 $162 reversed $57 $-1 #
coedge $-1 $163 $59 $158 $164 reversed $37 $-1 #
coedge $-1 $59 $163 $159 $165 forward $37 $-1 #
coedge $-1 $161 $166 $59 $98 forward $156 $-1 #
edge $-1 $167 -33.045813373645757 $168 -19.318323299577248 $97 $169 forward 7 unknown #
loop $-1 $-1 $104 $60 #
plane-surface $-1 52.364136673223008 -32.034968863878859 9.1470375633427707 0 -0.85716730853699208 0.51503806187062418 1 0 0 forward_v I I I I #
loop $-1 $-1 $170 $39 #
coedge $-1 $102 $102 $103 $171 reversed $61 $-1 #
coedge $-1 $103 $103 $102 $171 forward $63 $-1 #
coedge $-1 $104 $104 $64 $105 forward $99 $-1 #
edge $-1 $172 0 $172 6.2831853071796004 $104 $173 forward 7 unknown #
loop $-1 $-1 $111 $65 #
plane-surface $-1 52.364136673223008 -32.034968863878859 9.1470375633427707 0 -0.85716730853699208 0.51503806187062418 1 0 0 forward_v I I I I #
loop $-1 $-1 $174 $42 #
coedge $-1 $109 $109 $110 $175 reversed $66 $-1 #
coedge $-1 $110 $110 $109 $175 forward $68 $-1 #
coedge $-1 $111 $111 $69 $112 forward $106 $-1 #
edge $-1 $176 0 $176 6.2831853071796004 $111 $177 forward 7 unknown #
loop $-1 $-1 $118 $70 #
plane-surface $-1 52.364136673223008 -32.034968863878859 9.1470375633427707 0 -0.85716730853699208 0.51503806187062418 1 0 0 forward_v I I I I #
loop $-1 $-1 $178 $45 #
coedge $-1 $116 $116 $117 $179 reversed $71 $-1 #
coedge $-1 $117 $117 $116 $179 forward $73 $-1 #
coedge $-1 $118 $118 $74 $119 forward $113 $-1 #
edge $-1 $180 0 $180 6.2831853071796004 $118 $181 forward 7 unknown #
face $-1 $182 $183 $18 $-1 $184 reversed single #
loop $-1 $-1 $185 $75 #
plane-surface $-1 -59.227881710257272 0 0 1 0 0 0 0 -1 forward_v I I I I #
coedge $-1 $186 $131 $187 $188 forward $76 $-1 #
coedge $-1 $189 $78 $186 $190 forward $49 $-1 #
coedge $-1 $78 $189 $191 $192 forward $49 $-1 #
coedge $-1 $134 $133 $78 $127 reversed $135 $-1 #
edge $-1 $193 -32.034968863878859 $194 32.034968863878859 $126 $195 forward 7 unknown #
coedge $-1 $80 $79 $196 $197 forward $31 $-1 #
coedge $-1 $198 $199 $79 $130 reversed $183 $-1 #
edge $-1 $137 -59.227881710257272 $200 59.227881710257272 $129 $201 forward 7 unknown #
coedge $-1 $123 $202 $80 $132 reversed $76 $-1 #
edge $-1 $203 -59.227881710257272 $136 59.227881710257272 $131 $204 forward 7 unknown #
coedge $-1 $126 $81 $202 $205 forward $135 $-1 #
coedge $-1 $81 $126 $198 $206 reversed $135 $-1 #
loop $-1 $-1 $133 $182 #
vertex $-1 $82 $207 #
vertex $-1 $82 $208 #
straight-curve $-1 59.227881710257272 0 12.717003723068656 0 1 0 I I #
face $-1 $209 $210 $19 $-1 $211 reversed single #
loop $-1 $-1 $212 $83 #
plane-surface $-1 -59.227881710257272 0 0 1 0 0 0 0 -1 forward_v I I I I #
coedge $-1 $150 $213 $144 $214 forward $84 $-1 #
coedge $-1 $89 $86 $215 $216 reversed $53 $-1 #
coedge $-1 $86 $89 $142 $214 reversed $53 $-1 #
coedge $-1 $217 $218 $86 $146 forward $219 $-1 #
edge $-1 $220 -12.717003723068656 $221 12.717003723068656 $145 $222 forward 7 unknown #
coedge $-1 $88 $87 $212 $223 reversed $34 $-1 #
coedge $-1 $215 $224 $87 $149 forward $210 $-1 #
edge $-1 $225 -32.988955323844138 $153 -19.48889744898214 $148 $226 forward 7 unknown #
coedge $-1 $227 $142 $88 $151 forward $84 $-1 #
edge $-1 $152 19.48889744898214 $228 32.988955323844138 $150 $229 forward 7 unknown #
vertex $-1 $151 $230 #
vertex $-1 $149 $231 #
straight-curve $-1 -45.727823835395277 -28.249169598854735 0 0 0 -1 I I #
face $-1 $-1 $232 $20 $-1 $233 reversed single #
loop $-1 $-1 $97 $91 #
plane-surface $-1 0 0 12.717003723068656 0 0 1 1 0 0 forward_v I I I I #
coedge $-1 $234 $235 $95 $164 forward $92 $-1 #
coedge $-1 $160 $94 $96 $165 reversed $57 $-1 #
coedge $-1 $94 $159 $236 $237 reversed $57 $-1 #
coedge $-1 $238 $97 $94 $162 forward $156 $-1 #
edge $-1 $168 -36.895771526715606 $239 -34.750719523989133 $161 $240 forward 7 unknown #
coedge $-1 $96 $95 $241 $242 reversed $37 $-1 #
edge $-1 $243 -4.3293433532403363 $167 -0.16450164244401416 $158 $244 forward 7 unknown #
edge $-1 $245 0 $168 4.1648417107963231 $159 $246 forward 7 unknown #
coedge $-1 $97 $238 $234 $247 forward $156 $-1 #
vertex $-1 $164 $248 #
vertex $-1 $98 $249 #
straight-curve $-1 26.182068336611504 -29.889916861152383 12.717003723068657 -1 0 0 I I #
coedge $-1 $170 $170 $-1 $250 reversed $101 $-1 #
edge $-1 $251 0 $251 6.2831853071796004 $102 $252 forward 7 unknown #
vertex $-1 $105 $253 #
ellipse-curve $-1 48.245889651002464 -30.962442862515623 10.932020643205714 0 -0.85716730853699208 0.51503806187062418 0.25 0 0 1 I I #
coedge $-1 $174 $174 $-1 $254 reversed $108 $-1 #
edge $-1 $255 0 $255 6.2831853071796004 $109 $256 forward 7 unknown #
vertex $-1 $112 $257 #
ellipse-curve $-1 52.364136673223022 -30.962442862515623 10.932020643205714 0 -0.85716730853699208 0.51503806187062418 0.25 0 0 1 I I #
coedge $-1 $178 $178 $-1 $258 reversed $115 $-1 #
edge $-1 $259 0 $259 6.2831853071796004 $116 $260 forward 7 unknown #
vertex $-1 $119 $261 #
ellipse-curve $-1 56.482383695443581 -30.962442862515623 10.932020643205714 0 -0.85716730853699208 0.51503806187062418 0.25 0 0 1 I I #
face $-1 $-1 $135 $18 $-1 $262 reversed single #
loop $-1 $-1 $198 $120 #
plane-surface $-1 0 32.034968863878859 0 0 -1 0 0 0 -1 forward_v I I I I #
coedge $-1 $263 $196 $199 $264 forward $121 $-1 #
coedge $-1 $202 $123 $124 $190 reversed $76 $-1 #
coedge $-1 $196 $263 $123 $188 reversed $121 $-1 #
edge $-1 $203 -12.717003723068656 $265 12.717003723068656 $187 $266 forward 7 unknown #
coedge $-1 $125 $124 $263 $267 forward $49 $-1 #
edge $-1 $194 -59.227881710257272 $265 59.227881710257272 $186 $268 forward 7 unknown #
coedge $-1 $199 $198 $125 $192 reversed $183 $-1 #
edge $-1 $269 -59.227881710257272 $193 59.227881710257272 $191 $270 forward 7 unknown #
vertex $-1 $127 $271 #
vertex $-1 $205 $272 #
straight-curve $-1 59.227881710257272 0 -12.717003723068656 0 -1 0 I I #
coedge $-1 $185 $187 $128 $197 reversed $121 $-1 #
edge $-1 $200 -32.034968863878859 $203 32.034968863878859 $196 $273 forward 7 unknown #
coedge $-1 $191 $129 $134 $206 forward $183 $-1 #
coedge $-1 $129 $191 $185 $264 reversed $183 $-1 #
vertex $-1 $130 $274 #
straight-curve $-1 0 32.034968863878859 12.717003723068656 -1 0 0 I I #
coedge $-1 $131 $186 $133 $205 reversed $76 $-1 #
vertex $-1 $197 $275 #
straight-curve $-1 0 -32.034968863878859 12.717003723068656 1 0 0 I I #
edge $-1 $136 -12.717003723068656 $194 12.717003723068656 $133 $276 forward 7 unknown #
edge $-1 $137 -12.717003723068656 $193 12.717003723068656 $134 $277 forward 7 unknown #
point $-1 59.227881710257272 -32.034968863878859 12.717003723068656 #
point $-1 59.227881710257272 32.034968863878859 12.717003723068656 #
face $-1 $-1 $219 $19 $-1 $278 reversed single #
loop $-1 $-1 $215 $139 #
plane-surface $-1 0 0 -12.717003723068656 0 0 1 1 0 0 forward_v I I I I #
coedge $-1 $279 $280 $147 $223 forward $140 $-1 #
coedge $-1 $142 $227 $217 $281 forward $84 $-1 #
edge $-1 $221 -16.963934248195461 $152 -13.178134983171336 $142 $282 forward 7 unknown #
coedge $-1 $283 $148 $143 $216 forward $210 $-1 #
edge $-1 $153 13.178134983171336 $220 16.963934248195461 $215 $284 forward 7 unknown #
coedge $-1 $285 $145 $213 $281 reversed $219 $-1 #
coedge $-1 $145 $285 $283 $286 reversed $219 $-1 #
loop $-1 $-1 $145 $209 #
vertex $-1 $286 $287 #
vertex $-1 $146 $288 #
straight-curve $-1 -45.727823835395277 -32.034968863878859 0 0 0 1 I I #
edge $-1 $228 -12.717003723068656 $225 12.717003723068656 $212 $289 forward 7 unknown #
coedge $-1 $148 $283 $279 $290 forward $210 $-1 #
vertex $-1 $149 $291 #
straight-curve $-1 -26.238926386413137 -28.249169598854735 -12.717003723068656 1 0 0 I I #
coedge $-1 $213 $150 $280 $292 forward $84 $-1 #
vertex $-1 $292 $293 #
straight-curve $-1 -26.238926386413137 -28.249169598854735 12.717003723068656 -1 0 0 I I #
point $-1 -45.727823835395277 -28.249169598854735 12.717003723068656 #
point $-1 -45.727823835395277 -28.249169598854735 -12.717003723068656 #
loop $-1 $-1 $241 $155 #
plane-surface $-1 0 -32.034968863878859 0 0 1 0 0 0 1 forward_v I I I I #
coedge $-1 $235 $158 $166 $247 reversed $92 $-1 #
coedge $-1 $158 $234 $294 $295 forward $92 $-1 #
coedge $-1 $241 $296 $160 $237 forward $232 $-1 #
edge $-1 $239 22.361128463356224 $245 25.93109462308211 $236 $297 forward 7 unknown #
coedge $-1 $166 $161 $296 $298 forward $156 $-1 #
vertex $-1 $298 $299 #
straight-curve $-1 45.500391636188752 -66.785688387867992 12.717003723068657 0 -1 0 I I #
coedge $-1 $294 $236 $163 $242 forward $232 $-1 #
edge $-1 $245 19.318323299577248 $243 33.045813373645757 $241 $300 forward 7 unknown #
vertex $-1 $164 $301 #
straight-curve $-1 59.227881710257272 -29.805192254053484 12.858009153172304 0 0.51503806187062429 0.85716730853699219 I I #
vertex $-1 $242 $302 #
straight-curve $-1 45.500391636188752 -32.034968863878859 9.1470375633427707 0 0.51503806187062418 0.85716730853699208 I I #
edge $-1 $303 -32.034968863878859 $167 -29.889916861152386 $234 $304 forward 7 unknown #
point $-1 59.227881710257265 -29.889916861152386 12.717003723068656 #
point $-1 45.500391636188752 -29.889916861152386 12.717003723068656 #
edge $-1 $305 1 $305 0 $170 $-1 forward 7 unknown #
vertex $-1 $171 $306 #
ellipse-curve $-1 48.245889651002464 -30.105275553978629 10.416982581335089 0 -0.85716730853699208 0.51503806187062418 0.25 0 0 1 I I #
point $-1 48.495889651002464 -30.962442862515623 10.932020643205714 #
edge $-1 $307 1 $307 0 $174 $-1 forward 7 unknown #
vertex $-1 $175 $308 #
ellipse-curve $-1 52.364136673223022 -30.105275553978629 10.416982581335089 0 -0.85716730853699208 0.51503806187062418 0.25 0 0 1 I I #
point $-1 52.614136673223022 -30.962442862515623 10.932020643205714 #
edge $-1 $309 1 $309 0 $178 $-1 forward 7 unknown #
vertex $-1 $179 $310 #
ellipse-curve $-1 56.482383695443581 -30.105275553978629 10.416982581335089 0 -0.85716730853699208 0.51503806187062418 0.25 0 0 1 I I #
point $-1 56.732383695443581 -30.962442862515623 10.932020643205714 #
plane-surface $-1 59.227881710257272 0 0 -1 0 0 0 0 1 forward_v I I I I #
coedge $-1 $187 $185 $189 $267 reversed $121 $-1 #
edge $-1 $200 -12.717003723068656 $269 12.717003723068656 $199 $311 forward 7 unknown #
vertex $-1 $267 $312 #
straight-curve $-1 -59.227881710257272 -32.034968863878859 0 0 0 -1 I I #
edge $-1 $265 -32.034968863878859 $269 32.034968863878859 $263 $313 forward 7 unknown #
straight-curve $-1 0 -32.034968863878859 -12.717003723068656 -1 0 0 I I #
vertex $-1 $192 $314 #
straight-curve $-1 0 32.034968863878859 -12.717003723068656 1 0 0 I I #
point $-1 59.227881710257272 32.034968863878859 -12.717003723068656 #
point $-1 59.227881710257272 -32.034968863878859 -12.717003723068656 #
straight-curve $-1 -59.227881710257272 0 12.717003723068656 0 -1 0 I I #
point $-1 -59.227881710257272 32.034968863878859 12.717003723068656 #
point $-1 -59.227881710257272 -32.034968863878859 12.717003723068656 #
straight-curve $-1 59.227881710257272 -32.034968863878859 0 0 0 -1 I I #
straight-curve $-1 59.227881710257272 32.034968863878859 0 0 0 -1 I I #
plane-surface $-1 0 -32.034968863878859 0 0 1 0 0 0 1 forward_v I I I I #
coedge $-1 $315 $212 $224 $290 reversed $140 $-1 #
coedge $-1 $212 $315 $227 $292 reversed $140 $-1 #
edge $-1 $316 -59.227881710257272 $221 -45.727823835395277 $217 $317 forward 7 unknown #
straight-curve $-1 -45.727823835395277 -15.071034615683399 12.717003723068656 0 1 0 I I #
coedge $-1 $224 $215 $218 $286 forward $210 $-1 #
straight-curve $-1 -45.727823835395277 -15.071034615683399 -12.717003723068656 0 -1 0 I I #
coedge $-1 $218 $217 $315 $318 forward $219 $-1 #
edge $-1 $220 45.727823835395277 $319 59.227881710257272 $218 $320 forward 7 unknown #
point $-1 -45.727823835395277 -32.034968863878859 -12.717003723068656 #
point $-1 -45.727823835395277 -32.034968863878859 12.717003723068656 #
straight-curve $-1 -59.227881710257272 -28.249169598854735 0 0 0 -1 I I #
edge $-1 $319 -32.034968863878859 $225 -28.249169598854735 $279 $321 forward 7 unknown #
point $-1 -59.227881710257272 -28.249169598854735 -12.717003723068656 #
edge $-1 $228 28.249169598854735 $316 32.034968863878859 $280 $322 forward 7 unknown #
point $-1 -59.227881710257272 -28.249169598854735 12.717003723068656 #
coedge $-1 $296 $241 $235 $295 reversed $232 $-1 #
edge $-1 $303 -12.717003723068656 $243 -9.1470375633427707 $235 $323 forward 7 unknown #
coedge $-1 $236 $294 $238 $298 reversed $232 $-1 #
straight-curve $-1 45.500391636188752 -32.034968863878859 35.078132186424881 0 0 -1 I I #
edge $-1 $239 45.500391636188752 $303 59.227881710257272 $296 $324 forward 7 unknown #
point $-1 45.500391636188752 -32.034968863878859 12.717003723068656 #
straight-curve $-1 26.182068336611504 -32.034968863878859 9.147037563342769 1 0 0 I I #
point $-1 59.227881710257265 -32.034968863878859 9.1470375633427707 #
point $-1 45.500391636188752 -32.034968863878859 9.1470375633427707 #
vertex $-1 $247 $325 #
straight-curve $-1 59.227881710257272 0 12.717003723068656 0 1 0 I I #
vertex $-1 $250 $326 #
point $-1 48.495889651002464 -30.105275553978629 10.416982581335089 #
vertex $-1 $254 $327 #
point $-1 52.614136673223022 -30.105275553978629 10.416982581335089 #
vertex $-1 $258 $328 #
point $-1 56.732383695443581 -30.105275553978629 10.416982581335089 #
straight-curve $-1 -59.227881710257272 32.034968863878859 0 0 0 -1 I I #
point $-1 -59.227881710257272 -32.034968863878859 -12.717003723068656 #
straight-curve $-1 -59.227881710257272 0 -12.717003723068656 0 1 0 I I #
point $-1 -59.227881710257272 32.034968863878859 -12.717003723068656 #
coedge $-1 $280 $279 $285 $318 reversed $140 $-1 #
vertex $-1 $292 $329 #
straight-curve $-1 0 -32.034968863878859 12.717003723068656 1 0 0 I I #
edge $-1 $316 -12.717003723068656 $319 12.717003723068656 $315 $330 forward 7 unknown #
vertex $-1 $290 $331 #
straight-curve $-1 0 -32.034968863878859 -12.717003723068656 -1 0 0 I I #
straight-curve $-1 -59.227881710257272 0 -12.717003723068656 0 1 0 I I #
straight-curve $-1 -59.227881710257272 0 12.717003723068656 0 -1 0 I I #
straight-curve $-1 59.227881710257272 -32.034968863878859 0 0 0 -1 I I #
straight-curve $-1 0 -32.034968863878859 12.717003723068656 1 0 0 I I #
point $-1 59.227881710257272 -32.034968863878859 12.717003723068656 #
point $-1 48.245889651002464 -29.890983726844382 10.288223065867433 #
point $-1 52.364136673223022 -29.890983726844382 10.288223065867433 #
point $-1 56.482383695443581 -29.890983726844382 10.288223065867433 #
point $-1 -59.227881710257272 -32.034968863878859 12.717003723068656 #
straight-curve $-1 -59.227881710257272 -32.034968863878859 0 0 0 -1 I I #
point $-1 -59.227881710257272 -32.034968863878859 -12.717003723068656 #
End-of-ACIS-data 