500 0 6 0           
7 Unknown 11 ACIS 5.0 NT 24 Fri Mar 26 19:55:17 1999 
-1 9.9999999999999995e-007 1e-010 
body $-1 $6 $-1 $7 #
body $-1 $8 $-1 $9 #
body $-1 $10 $-1 $11 #
body $-1 $12 $-1 $13 #
body $-1 $14 $-1 $15 #
body $-1 $16 $-1 $17 #
lump $-1 $-1 $18 $0 #
transform $-1 1 0 0 0 1 0 0 0 1 76.920072023682366 49.467867114275073 22.202643759765024 1 rotate no_reflect no_shear #
lump $-1 $-1 $19 $1 #
transform $-1 1 0 0 0 1 0 0 0 1 76.920072023682366 49.467867114275073 22.202643759765024 1 rotate no_reflect no_shear #
lump $-1 $-1 $20 $2 #
transform $-1 1 0 0 0 1 0 0 0 1 76.920072023682366 49.467867114275073 22.202643759765024 1 rotate no_reflect no_shear #
lump $-1 $-1 $21 $3 #
transform $-1 1 0 0 0 1 0 0 0 1 76.920072023682366 49.467867114275073 22.202643759765024 1 rotate no_reflect no_shear #
lump $-1 $-1 $22 $4 #
transform $-1 1 0 0 0 1 0 0 0 1 76.920072023682366 49.467867114275073 22.202643759765024 1 rotate no_reflect no_shear #
lump $-1 $-1 $23 $5 #
transform $-1 1 0 0 0 1 0 0 0 1 76.920072023682366 49.467867114275073 22.202643759765024 1 rotate no_reflect no_shear #
shell $-1 $-1 $-1 $24 $-1 $6 #
shell $-1 $-1 $-1 $25 $-1 $8 #
shell $-1 $-1 $-1 $26 $-1 $10 #
shell $-1 $-1 $-1 $27 $-1 $12 #
shell $-1 $-1 $-1 $28 $-1 $14 #
shell $-1 $-1 $-1 $29 $-1 $16 #
face $-1 $30 $31 $18 $-1 $32 forward single #
face $-1 $33 $34 $19 $-1 $35 forward single #
face $-1 $36 $37 $20 $-1 $38 forward single #
face $-1 $39 $40 $21 $-1 $41 reversed single #
face $-1 $42 $43 $22 $-1 $44 forward single #
face $-1 $45 $46 $23 $-1 $47 forward single #
face $-1 $48 $49 $18 $-1 $50 reversed single #
loop $-1 $-1 $51 $24 #
plane-surface $-1 0 0 22.202643759765024 0 0 1 1 0 0 forward_v I I I I #
face $-1 $52 $53 $19 $-1 $54 forward single #
loop $-1 $-1 $55 $25 #
plane-surface $-1 0 -49.467867114275073 0 0 1 0 0 0 1 forward_v I I I I #
face $-1 $56 $57 $20 $-1 $58 reversed single #
loop $-1 $-1 $59 $26 #
plane-surface $-1 0 39.300537487527116 0.24192610580721663 0 0 1 1 0 0 forward_v I I I I #
face $-1 $60 $61 $21 $-1 $62 reversed single #
loop $-1 $-1 $63 $27 #
plane-surface $-1 -199.78227519587045 29.133207860779166 98.058057096975489 0 -1 0 0.79863551827123203 0 -0.60181501223851219 forward_v I I I I #
face $-1 $64 $65 $22 $-1 $66 forward single #
loop $-1 $67 $68 $28 #
cone-surface $-1 -69.002956006266402 18.214153025480719 12.622136303577324 0.79863551827123203 0 -0.60181501223851219 1.2036300244770244 0 1.5972710365424641 1 I I 0 1 2 forward I I I I #
face $-1 $69 $70 $23 $-1 $71 forward single #
loop $-1 $72 $73 $29 #
cone-surface $-1 -69.002956006266402 24.765585926659789 12.622136303577324 0.79863551827123203 0 -0.60181501223851219 1.2036300244770244 0 1.5972710365424641 1 I I 0 1 2 forward I I I I #
face $-1 $74 $75 $18 $-1 $76 reversed single #
loop $-1 $-1 $77 $30 #
plane-surface $-1 0 0 -22.202643759765024 0 0 1 1 0 0 forward_v I I I I #
coedge $-1 $78 $79 $80 $81 forward $31 $-1 #
face $-1 $82 $83 $19 $-1 $84 reversed single #
loop $-1 $-1 $85 $33 #
plane-surface $-1 0 0 22.202643759765024 0 0 1 1 0 0 forward_v I I I I #
coedge $-1 $86 $87 $88 $89 forward $34 $-1 #
face $-1 $90 $91 $20 $-1 $92 reversed single #
loop $-1 $-1 $93 $36 #
plane-surface $-1 0 39.300537487527116 -12.786940581454779 0 0 1 1 0 0 forward_v I I I I #
coedge $-1 $94 $95 $96 $97 reversed $37 $-1 #
face $-1 $98 $99 $21 $-1 $100 reversed single #
loop $-1 $-1 $101 $39 #
plane-surface $-1 -76.920072023682337 21.489869476070247 5.4747489243362111 -0.79863551827123203 0 0.60181501223851219 0.60181501223851219 0 0.79863551827123203 forward_v I I I I #
coedge $-1 $102 $103 $104 $105 reversed $40 $-1 #
face $-1 $-1 $106 $22 $-1 $107 forward single #
loop $-1 $108 $109 $42 #
cone-surface $-1 -66.589890742847615 18.214153025480719 10.803761252865513 0.79863551827123203 0 -0.60181501223851219 0.60181501223851219 0 0.79863551827123203 1 I I -0.70710678118654746 0.70710678118654746 1 forward I I I I #
loop $-1 $-1 $110 $28 #
coedge $-1 $68 $68 $111 $112 reversed $43 $-1 #
face $-1 $-1 $113 $23 $-1 $114 forward single #
loop $-1 $115 $116 $45 #
cone-surface $-1 -66.589890742847615 24.765585926659789 10.803761252865513 0.79863551827123203 0 -0.60181501223851219 0.60181501223851219 0 0.79863551827123203 1 I I -0.70710678118654746 0.70710678118654746 1 forward I I I I #
loop $-1 $-1 $117 $29 #
coedge $-1 $73 $73 $118 $119 reversed $46 $-1 #
face $-1 $120 $121 $18 $-1 $122 reversed single #
loop $-1 $-1 $123 $48 #
plane-surface $-1 0 -49.467867114275073 0 0 1 0 0 0 1 forward_v I I I I #
coedge $-1 $124 $125 $126 $127 forward $49 $-1 #
coedge $-1 $128 $51 $129 $130 forward $31 $-1 #
coedge $-1 $51 $128 $131 $132 forward $31 $-1 #
coedge $-1 $133 $134 $51 $81 reversed $135 $-1 #
edge $-1 $136 -49.467867114275073 $137 49.467867114275073 $80 $138 forward 7 unknown #
face $-1 $139 $140 $19 $-1 $141 reversed single #
loop $-1 $-1 $142 $52 #
plane-surface $-1 -76.920072023682366 0 0 1 0 0 0 0 -1 forward_v I I I I #
coedge $-1 $143 $144 $145 $146 forward $53 $-1 #
coedge $-1 $145 $55 $142 $147 reversed $34 $-1 #
coedge $-1 $55 $145 $148 $149 reversed $34 $-1 #
coedge $-1 $150 $151 $55 $89 reversed $140 $-1 #
edge $-1 $152 -76.920072023682366 $153 76.920072023682366 $88 $154 forward 7 unknown #
face $-1 $155 $156 $20 $-1 $157 reversed single #
loop $-1 $-1 $158 $56 #
plane-surface $-1 0 29.133207860779166 -6.2725072378237812 0 1 0 0 0 1 forward_v I I I I #
coedge $-1 $159 $160 $161 $162 reversed $57 $-1 #
coedge $-1 $163 $59 $164 $165 reversed $37 $-1 #
coedge $-1 $59 $163 $166 $167 forward $37 $-1 #
coedge $-1 $168 $169 $59 $97 forward $156 $-1 #
edge $-1 $170 -29.817598370511508 $171 -9.4829391170156079 $96 $172 forward 7 unknown #
face $-1 $173 $174 $21 $-1 $175 reversed single #
loop $-1 $-1 $176 $60 #
plane-surface $-1 -199.78227519587045 13.846531091361328 98.058057096975489 0 1 0 -0.79863551827123203 0 0.60181501223851219 forward_v I I I I #
coedge $-1 $177 $178 $179 $180 reversed $61 $-1 #
coedge $-1 $103 $63 $181 $182 reversed $40 $-1 #
coedge $-1 $63 $102 $177 $183 reversed $40 $-1 #
coedge $-1 $179 $184 $63 $105 forward $174 $-1 #
edge $-1 $185 26.82638478872272 $186 43.554279624151569 $104 $187 forward 7 unknown #
loop $-1 $-1 $111 $64 #
plane-surface $-1 -76.920072023682337 21.489869476070247 5.4747489243362111 -0.79863551827123203 0 0.60181501223851219 0.60181501223851219 0 0.79863551827123203 forward_v I I I I #
loop $-1 $-1 $188 $42 #
coedge $-1 $109 $109 $110 $189 reversed $65 $-1 #
coedge $-1 $110 $110 $109 $189 forward $67 $-1 #
coedge $-1 $111 $111 $68 $112 forward $106 $-1 #
edge $-1 $190 0 $190 6.2831853071796004 $111 $191 forward 7 unknown #
loop $-1 $-1 $118 $69 #
plane-surface $-1 -76.920072023682337 21.489869476070247 5.4747489243362111 -0.79863551827123203 0 0.60181501223851219 0.60181501223851219 0 0.79863551827123203 forward_v I I I I #
loop $-1 $-1 $192 $45 #
coedge $-1 $116 $116 $117 $193 reversed $70 $-1 #
coedge $-1 $117 $117 $116 $193 forward $72 $-1 #
coedge $-1 $118 $118 $73 $119 forward $113 $-1 #
edge $-1 $194 0 $194 6.2831853071796004 $118 $195 forward 7 unknown #
face $-1 $196 $197 $18 $-1 $198 reversed single #
loop $-1 $-1 $199 $74 #
plane-surface $-1 -76.920072023682366 0 0 1 0 0 0 0 -1 forward_v I I I I #
coedge $-1 $200 $131 $201 $202 forward $75 $-1 #
coedge $-1 $203 $77 $200 $204 forward $49 $-1 #
coedge $-1 $77 $203 $205 $206 forward $49 $-1 #
coedge $-1 $134 $133 $77 $127 reversed $135 $-1 #
edge $-1 $207 -49.467867114275073 $208 49.467867114275073 $126 $209 forward 7 unknown #
coedge $-1 $79 $78 $210 $211 forward $31 $-1 #
coedge $-1 $212 $213 $78 $130 reversed $197 $-1 #
edge $-1 $137 -76.920072023682366 $214 76.920072023682366 $129 $215 forward 7 unknown #
coedge $-1 $123 $216 $79 $132 reversed $75 $-1 #
edge $-1 $217 -76.920072023682366 $136 76.920072023682366 $131 $218 forward 7 unknown #
coedge $-1 $126 $80 $216 $219 forward $135 $-1 #
coedge $-1 $80 $126 $212 $220 reversed $135 $-1 #
loop $-1 $-1 $133 $196 #
vertex $-1 $81 $221 #
vertex $-1 $81 $222 #
straight-curve $-1 76.920072023682366 0 22.202643759765024 0 1 0 I I #
face $-1 $223 $224 $19 $-1 $225 reversed single #
loop $-1 $-1 $150 $82 #
plane-surface $-1 0 -63.19029622938163 10.263615392251737 0 0 1 1 0 0 forward_v I I I I #
coedge $-1 $226 $227 $86 $147 forward $83 $-1 #
coedge $-1 $228 $85 $227 $229 forward $53 $-1 #
coedge $-1 $85 $228 $230 $231 forward $53 $-1 #
coedge $-1 $87 $86 $85 $146 reversed $34 $-1 #
edge $-1 $232 -76.920072023682366 $233 76.920072023682366 $85 $234 forward 7 unknown #
edge $-1 $233 -22.202643759765024 $153 -10.263615392251737 $142 $235 forward 7 unknown #
coedge $-1 $230 $236 $87 $149 forward $237 $-1 #
edge $-1 $152 10.263615392251737 $232 22.202643759765024 $148 $238 forward 7 unknown #
coedge $-1 $239 $88 $236 $240 forward $140 $-1 #
coedge $-1 $88 $239 $226 $241 forward $140 $-1 #
vertex $-1 $149 $242 #
vertex $-1 $147 $243 #
straight-curve $-1 0 -49.467867114275073 10.263615392251737 -1 0 0 I I #
face $-1 $244 $245 $20 $-1 $246 reversed single #
loop $-1 $-1 $96 $90 #
plane-surface $-1 76.920072023682366 0 0 -1 0 0 0 0 1 forward_v I I I I #
coedge $-1 $247 $166 $248 $249 reversed $91 $-1 #
coedge $-1 $250 $93 $247 $251 forward $57 $-1 #
coedge $-1 $93 $250 $252 $253 reversed $57 $-1 #
coedge $-1 $169 $168 $93 $162 forward $156 $-1 #
edge $-1 $254 9.4829391170156079 $255 29.817598370511508 $161 $256 forward 7 unknown #
coedge $-1 $95 $94 $257 $258 reversed $37 $-1 #
coedge $-1 $259 $260 $94 $165 forward $261 $-1 #
edge $-1 $262 -76.920072023682366 $170 76.920072023682366 $164 $263 forward 7 unknown #
coedge $-1 $158 $264 $95 $167 reversed $91 $-1 #
edge $-1 $265 -76.920072023682366 $171 76.920072023682366 $166 $266 forward 7 unknown #
coedge $-1 $161 $96 $264 $267 forward $156 $-1 #
coedge $-1 $96 $161 $259 $268 reversed $156 $-1 #
vertex $-1 $268 $269 #
vertex $-1 $97 $270 #
straight-curve $-1 76.920072023682366 19.650268743763558 0.24192610580721663 0 -1 0 I I #
face $-1 $-1 $271 $21 $-1 $272 forward single #
loop $-1 $-1 $104 $98 #
plane-surface $-1 -76.920072023682366 0 0 1 0 0 0 0 -1 forward_v I I I I #
coedge $-1 $273 $274 $275 $276 reversed $99 $-1 #
coedge $-1 $277 $101 $103 $183 forward $61 $-1 #
coedge $-1 $101 $277 $273 $278 forward $61 $-1 #
coedge $-1 $275 $104 $101 $180 forward $174 $-1 #
edge $-1 $186 -18.388273122744042 $279 -3.1015963533262045 $179 $280 forward 7 unknown #
coedge $-1 $281 $282 $102 $182 forward $271 $-1 #
edge $-1 $283 -35.576438118789724 $185 -22.971065574252862 $181 $284 forward 7 unknown #
edge $-1 $186 -4.6896506375148425e-014 $283 20.945593393640795 $103 $285 forward 7 unknown #
coedge $-1 $104 $275 $281 $286 reversed $174 $-1 #
vertex $-1 $286 $287 #
vertex $-1 $105 $288 #
straight-curve $-1 -76.920072023682366 29.133207860779166 49.029028548487744 0 0 -1 I I #
coedge $-1 $188 $188 $-1 $289 reversed $108 $-1 #
edge $-1 $290 0 $290 6.2831853071796004 $109 $291 forward 7 unknown #
vertex $-1 $112 $292 #
ellipse-curve $-1 -70.617385751413934 18.214153025480719 13.838696342050604 -0.79863551827123203 0 0.60181501223851219 1.2036300244770244 0 1.5972710365424641 1 I I #
coedge $-1 $192 $192 $-1 $293 reversed $115 $-1 #
edge $-1 $294 0 $294 6.2831853071796004 $116 $295 forward 7 unknown #
vertex $-1 $119 $296 #
ellipse-curve $-1 -70.617385751413934 24.765585926659789 13.838696342050604 -0.79863551827123203 0 0.60181501223851219 1.2036300244770244 0 1.5972710365424641 1 I I #
face $-1 $-1 $135 $18 $-1 $297 reversed single #
loop $-1 $-1 $212 $120 #
plane-surface $-1 0 49.467867114275073 0 0 -1 0 0 0 -1 forward_v I I I I #
coedge $-1 $298 $210 $213 $299 forward $121 $-1 #
coedge $-1 $216 $123 $124 $204 reversed $75 $-1 #
coedge $-1 $210 $298 $123 $202 reversed $121 $-1 #
edge $-1 $217 -22.202643759765024 $300 22.202643759765024 $201 $301 forward 7 unknown #
coedge $-1 $125 $124 $298 $302 forward $49 $-1 #
edge $-1 $208 -76.920072023682366 $300 76.920072023682366 $200 $303 forward 7 unknown #
coedge $-1 $213 $212 $125 $206 reversed $197 $-1 #
edge $-1 $304 -76.920072023682366 $207 76.920072023682366 $205 $305 forward 7 unknown #
vertex $-1 $127 $306 #
vertex $-1 $219 $307 #
straight-curve $-1 76.920072023682366 0 -22.202643759765024 0 -1 0 I I #
coedge $-1 $199 $201 $128 $211 reversed $121 $-1 #
edge $-1 $214 -49.467867114275073 $217 49.467867114275073 $210 $308 forward 7 unknown #
coedge $-1 $205 $129 $134 $220 forward $197 $-1 #
coedge $-1 $129 $205 $199 $299 reversed $197 $-1 #
vertex $-1 $130 $309 #
straight-curve $-1 0 49.467867114275073 22.202643759765024 -1 0 0 I I #
coedge $-1 $131 $200 $133 $219 reversed $75 $-1 #
vertex $-1 $211 $310 #
straight-curve $-1 0 -49.467867114275073 22.202643759765024 1 0 0 I I #
edge $-1 $136 -22.202643759765024 $208 22.202643759765024 $133 $311 forward 7 unknown #
edge $-1 $137 -22.202643759765024 $207 22.202643759765024 $134 $312 forward 7 unknown #
point $-1 76.920072023682366 -49.467867114275073 22.202643759765024 #
point $-1 76.920072023682366 49.467867114275073 22.202643759765024 #
face $-1 $-1 $237 $19 $-1 $313 reversed single #
loop $-1 $-1 $314 $139 #
plane-surface $-1 0 -76.91272534448818 16.23312957600838 0 1 0 0 0 1 forward_v I I I I #
coedge $-1 $315 $142 $151 $241 reversed $83 $-1 #
coedge $-1 $142 $315 $143 $229 reversed $83 $-1 #
coedge $-1 $144 $143 $316 $317 forward $53 $-1 #
edge $-1 $233 49.467867114275073 $318 76.91272534448818 $227 $319 forward 7 unknown #
coedge $-1 $320 $148 $144 $231 reversed $237 $-1 #
edge $-1 $321 -76.91272534448818 $232 -49.467867114275073 $230 $322 forward 7 unknown #
vertex $-1 $149 $323 #
vertex $-1 $229 $324 #
straight-curve $-1 0 -49.467867114275073 22.202643759765024 -1 0 0 I I #
straight-curve $-1 -76.920072023682366 -49.467867114275073 0 0 0 -1 I I #
coedge $-1 $148 $320 $150 $240 reversed $237 $-1 #
loop $-1 $-1 $148 $223 #
straight-curve $-1 76.920072023682366 -49.467867114275073 0 0 0 1 I I #
coedge $-1 $151 $150 $325 $326 forward $140 $-1 #
edge $-1 $152 -13.722429115106557 $327 13.72242911510655 $236 $328 forward 7 unknown #
edge $-1 $329 -13.72242911510655 $153 13.722429115106557 $226 $330 forward 7 unknown #
point $-1 76.920072023682366 -49.467867114275073 10.263615392251737 #
point $-1 -76.920072023682366 -49.467867114275073 10.263615392251737 #
face $-1 $-1 $261 $20 $-1 $331 reversed single #
loop $-1 $-1 $257 $155 #
plane-surface $-1 -76.920072023682366 0 0 1 0 0 0 0 -1 forward_v I I I I #
coedge $-1 $264 $158 $159 $251 reversed $91 $-1 #
coedge $-1 $257 $332 $158 $249 forward $245 $-1 #
edge $-1 $333 -9.6506869625428884 $265 3.3781797247191072 $248 $334 forward 7 unknown #
coedge $-1 $160 $159 $332 $335 reversed $57 $-1 #
edge $-1 $254 -76.920072023682366 $333 76.920072023682366 $247 $336 forward 7 unknown #
coedge $-1 $260 $259 $160 $253 forward $261 $-1 #
edge $-1 $255 -76.920072023682366 $337 76.920072023682366 $252 $338 forward 7 unknown #
vertex $-1 $162 $339 #
vertex $-1 $253 $340 #
straight-curve $-1 76.920072023682366 19.650268743763558 -12.786940581454779 0 1 0 I I #
coedge $-1 $341 $248 $163 $258 forward $245 $-1 #
edge $-1 $265 9.4829391170156079 $262 29.817598370511508 $257 $342 forward 7 unknown #
coedge $-1 $252 $164 $169 $268 forward $261 $-1 #
coedge $-1 $164 $252 $341 $343 reversed $261 $-1 #
loop $-1 $-1 $164 $244 #
vertex $-1 $343 $344 #
straight-curve $-1 0 49.467867114275073 0.24192610580721663 1 0 0 I I #
coedge $-1 $166 $247 $168 $267 reversed $91 $-1 #
vertex $-1 $258 $345 #
straight-curve $-1 0 29.133207860779166 0.24192610580721663 1 0 0 I I #
edge $-1 $171 -3.3781797247191072 $254 9.6506869625428884 $168 $346 forward 7 unknown #
edge $-1 $170 -0.24192610580721663 $255 12.786940581454779 $169 $347 forward 7 unknown #
point $-1 76.920072023682366 49.467867114275066 0.24192610580721663 #
point $-1 76.920072023682366 29.133207860779166 0.24192610580721663 #
loop $-1 $-1 $181 $173 #
plane-surface $-1 0 0 22.202643759765024 0 0 1 1 0 0 forward_v I I I I #
coedge $-1 $274 $176 $178 $278 reversed $99 $-1 #
coedge $-1 $176 $273 $348 $349 reversed $99 $-1 #
coedge $-1 $184 $179 $176 $276 forward $174 $-1 #
edge $-1 $279 -43.554279624151569 $350 -26.82638478872272 $275 $351 forward 7 unknown #
coedge $-1 $178 $177 $282 $352 reversed $61 $-1 #
edge $-1 $353 -20.945593393640795 $279 4.6896506375148425e-014 $273 $354 forward 7 unknown #
vertex $-1 $180 $355 #
straight-curve $-1 -76.920072023682366 10.744934738035123 5.4747489243361658 0 -1 0 I I #
coedge $-1 $348 $181 $184 $286 forward $271 $-1 #
coedge $-1 $181 $348 $277 $352 forward $271 $-1 #
vertex $-1 $182 $356 #
straight-curve $-1 -99.891137597935227 29.133207860779166 22.202643759765024 -1 0 0 I I #
straight-curve $-1 -76.920072023682337 29.133207860779166 5.4747489243362111 0.60181501223851219 0 0.79863551827123203 I I #
edge $-1 $185 -29.133207860779166 $350 -13.846531091361328 $184 $357 forward 7 unknown #
point $-1 -76.920072023682366 29.133207860779166 22.202643759765024 #
point $-1 -76.920072023682366 29.133207860779166 5.4747489243361738 #
edge $-1 $358 1 $358 0 $188 $-1 forward 7 unknown #
vertex $-1 $189 $359 #
ellipse-curve $-1 -67.388526261118841 18.214153025480719 11.405576265104026 -0.79863551827123203 0 0.60181501223851219 1.2036300244770244 0 1.5972710365424641 1 I I #
point $-1 -69.413755726936927 18.214153025480719 15.435967378593086 #
edge $-1 $360 1 $360 0 $192 $-1 forward 7 unknown #
vertex $-1 $193 $361 #
ellipse-curve $-1 -67.388526261118841 24.765585926659789 11.405576265104026 -0.79863551827123203 0 0.60181501223851219 1.2036300244770244 0 1.5972710365424641 1 I I #
point $-1 -69.413755726936927 24.765585926659789 15.435967378593086 #
plane-surface $-1 76.920072023682366 0 0 -1 0 0 0 0 1 forward_v I I I I #
coedge $-1 $201 $199 $203 $302 reversed $121 $-1 #
edge $-1 $214 -22.202643759765024 $304 22.202643759765024 $213 $362 forward 7 unknown #
vertex $-1 $302 $363 #
straight-curve $-1 -76.920072023682366 -49.467867114275073 0 0 0 -1 I I #
edge $-1 $300 -49.467867114275073 $304 49.467867114275073 $298 $364 forward 7 unknown #
straight-curve $-1 0 -49.467867114275073 -22.202643759765024 -1 0 0 I I #
vertex $-1 $206 $365 #
straight-curve $-1 0 49.467867114275073 -22.202643759765024 1 0 0 I I #
point $-1 76.920072023682366 49.467867114275073 -22.202643759765024 #
point $-1 76.920072023682366 -49.467867114275073 -22.202643759765024 #
straight-curve $-1 -76.920072023682366 0 22.202643759765024 0 -1 0 I I #
point $-1 -76.920072023682366 49.467867114275073 22.202643759765024 #
point $-1 -76.920072023682366 -49.467867114275073 22.202643759765024 #
straight-curve $-1 76.920072023682366 -49.467867114275073 0 0 0 -1 I I #
straight-curve $-1 76.920072023682366 49.467867114275073 0 0 0 -1 I I #
plane-surface $-1 76.920072023682366 0 0 -1 0 0 0 0 1 forward_v I I I I #
coedge $-1 $325 $316 $315 $366 forward $224 $-1 #
coedge $-1 $227 $226 $314 $366 reversed $83 $-1 #
coedge $-1 $314 $367 $228 $317 reversed $224 $-1 #
edge $-1 $318 -76.920072023682366 $321 76.920072023682366 $316 $368 forward 7 unknown #
vertex $-1 $229 $369 #
straight-curve $-1 -76.920072023682366 0 22.202643759765024 0 -1 0 I I #
coedge $-1 $236 $230 $367 $370 forward $237 $-1 #
vertex $-1 $231 $371 #
straight-curve $-1 76.920072023682366 0 22.202643759765024 0 1 0 I I #
point $-1 76.920072023682366 -49.467867114275073 22.202643759765024 #
point $-1 -76.920072023682366 -49.467867114275073 22.202643759765024 #
coedge $-1 $367 $314 $239 $326 reversed $224 $-1 #
edge $-1 $327 -76.920072023682366 $329 76.920072023682366 $325 $372 forward 7 unknown #
vertex $-1 $370 $373 #
straight-curve $-1 76.920072023682366 -63.19029622938163 10.263615392251737 0 -1 0 I I #
vertex $-1 $241 $374 #
straight-curve $-1 -76.920072023682366 -63.19029622938163 10.263615392251737 0 1 0 I I #
plane-surface $-1 0 49.467867114275073 0 0 -1 0 0 0 -1 forward_v I I I I #
coedge $-1 $248 $341 $250 $335 forward $245 $-1 #
vertex $-1 $335 $375 #
straight-curve $-1 -76.920072023682366 29.133207860779166 -3.1362536189118906 0 0 1 I I #
edge $-1 $337 -29.817598370511508 $333 -9.4829391170156079 $332 $376 forward 7 unknown #
straight-curve $-1 0 29.133207860779166 -12.786940581454779 -1 0 0 I I #
vertex $-1 $253 $377 #
straight-curve $-1 0 49.467867114275073 -12.786940581454779 -1 0 0 I I #
point $-1 76.920072023682366 29.133207860779166 -12.786940581454779 #
point $-1 76.920072023682366 49.467867114275066 -12.786940581454779 #
coedge $-1 $332 $257 $260 $343 forward $245 $-1 #
straight-curve $-1 -76.920072023682366 19.650268743763558 0.24192610580721663 0 1 0 I I #
edge $-1 $262 -0.24192610580721663 $337 12.786940581454779 $260 $378 forward 7 unknown #
point $-1 -76.920072023682366 49.467867114275066 0.24192610580721663 #
point $-1 -76.920072023682366 29.133207860779166 0.24192610580721663 #
straight-curve $-1 76.920072023682366 29.133207860779166 -3.1362536189118906 0 0 -1 I I #
straight-curve $-1 76.920072023682366 49.467867114275073 0 0 0 -1 I I #
coedge $-1 $282 $281 $274 $349 forward $271 $-1 #
edge $-1 $350 22.971065574252862 $353 35.576438118789724 $348 $379 forward 7 unknown #
vertex $-1 $349 $380 #
straight-curve $-1 -76.920072023682366 13.846531091361328 49.029028548487744 0 0 1 I I #
edge $-1 $353 3.1015963533262045 $283 18.388273122744042 $282 $381 forward 7 unknown #
vertex $-1 $352 $382 #
straight-curve $-1 -76.920072023682337 13.846531091361328 5.4747489243362111 -0.60181501223851219 0 -0.79863551827123203 I I #
point $-1 -76.920072023682366 13.846531091361328 5.4747489243361738 #
point $-1 -64.314699479145503 29.133207860779166 22.202643759765024 #
straight-curve $-1 -76.920072023682366 0 22.202643759765024 0 -1 0 I I #
vertex $-1 $289 $383 #
point $-1 -66.184896236641819 18.214153025480719 13.00284730164649 #
vertex $-1 $293 $384 #
point $-1 -66.184896236641819 24.765585926659789 13.00284730164649 #
straight-curve $-1 -76.920072023682366 49.467867114275073 0 0 0 -1 I I #
point $-1 -76.920072023682366 -49.467867114275073 -22.202643759765024 #
straight-curve $-1 -76.920072023682366 0 -22.202643759765024 0 1 0 I I #
point $-1 -76.920072023682366 49.467867114275073 -22.202643759765024 #
edge $-1 $318 -5.9695141837566439 $329 5.9695141837566439 $315 $385 forward 7 unknown #
coedge $-1 $316 $325 $320 $370 reversed $224 $-1 #
straight-curve $-1 0 -76.91272534448818 22.202643759765024 1 0 0 I I #
point $-1 -76.920072023682366 -76.91272534448818 22.202643759765024 #
edge $-1 $321 -5.9695141837566439 $327 5.9695141837566439 $320 $386 forward 7 unknown #
point $-1 76.920072023682366 -76.91272534448818 22.202643759765024 #
straight-curve $-1 0 -76.91272534448818 10.263615392251737 -1 0 0 I I #
point $-1 76.920072023682366 -76.91272534448818 10.263615392251737 #
point $-1 -76.920072023682366 -76.91272534448818 10.263615392251737 #
point $-1 -76.920072023682366 29.133207860779166 -12.786940581454779 #
straight-curve $-1 -76.920072023682366 19.650268743763558 -12.786940581454779 0 -1 0 I I #
point $-1 -76.920072023682366 49.467867114275066 -12.786940581454779 #
straight-curve $-1 -76.920072023682366 49.467867114275073 0 0 0 -1 I I #
straight-curve $-1 -99.891137597935227 13.846531091361328 22.202643759765024 1 0 0 I I #
point $-1 -76.920072023682366 13.846531091361328 22.202643759765024 #
straight-curve $-1 -64.314699479145503 10.744934738035123 22.202643759765024 0 1 0 I I #
point $-1 -64.314699479145503 13.846531091361328 22.202643759765024 #
point $-1 -65.791255224576389 18.214153025480719 10.201946240627001 #
point $-1 -65.791255224576389 24.765585926659789 10.201946240627001 #
straight-curve $-1 -76.920072023682366 -76.91272534448818 16.23312957600838 0 0 -1 I I #
straight-curve $-1 76.920072023682366 -76.91272534448818 16.23312957600838 0 0 -1 I I #
End-of-ACIS-data 