500 0 8 0           
7 Unknown 11 ACIS 5.0 NT 24 Fri Mar 26 01:40:01 1999 
-1 9.9999999999999995e-007 1e-010 
body $-1 $8 $-1 $9 #
body $-1 $10 $-1 $11 #
body $-1 $12 $-1 $13 #
body $-1 $14 $-1 $15 #
body $-1 $16 $-1 $17 #
body $-1 $18 $-1 $19 #
body $-1 $20 $-1 $21 #
body $-1 $22 $-1 $23 #
lump $-1 $-1 $24 $0 #
transform $-1 1 0 0 0 1 0 0 0 1 55.878170110171823 29.212787415853981 11.189067268408269 1 rotate no_reflect no_shear #
lump $-1 $-1 $25 $1 #
transform $-1 1 0 0 0 1 0 0 0 1 55.878170110171823 29.212787415853981 11.189067268408269 1 rotate no_reflect no_shear #
lump $-1 $-1 $26 $2 #
transform $-1 1 0 0 0 1 0 0 0 1 55.878170110171823 29.212787415853981 11.189067268408269 1 rotate no_reflect no_shear #
lump $-1 $-1 $27 $3 #
transform $-1 1 0 0 0 1 0 0 0 1 55.878170110171823 29.212787415853981 11.189067268408269 1 rotate no_reflect no_shear #
lump $-1 $-1 $28 $4 #
transform $-1 1 0 0 0 1 0 0 0 1 55.878170110171823 29.212787415853981 11.189067268408269 1 rotate no_reflect no_shear #
lump $-1 $-1 $29 $5 #
transform $-1 1 0 0 0 1 0 0 0 1 55.878170110171823 29.212787415853981 11.189067268408269 1 rotate no_reflect no_shear #
lump $-1 $-1 $30 $6 #
transform $-1 1 0 0 0 1 0 0 0 1 55.878170110171823 29.212787415853981 11.189067268408269 1 rotate no_reflect no_shear #
lump $-1 $-1 $31 $7 #
transform $-1 1 0 0 0 1 0 0 0 1 55.878170110171823 29.212787415853981 11.189067268408269 1 rotate no_reflect no_shear #
shell $-1 $-1 $-1 $32 $-1 $8 #
shell $-1 $-1 $-1 $33 $-1 $10 #
shell $-1 $-1 $-1 $34 $-1 $12 #
shell $-1 $-1 $-1 $35 $-1 $14 #
shell $-1 $-1 $-1 $36 $-1 $16 #
shell $-1 $-1 $-1 $37 $-1 $18 #
shell $-1 $-1 $-1 $38 $-1 $20 #
shell $-1 $-1 $-1 $39 $-1 $22 #
face $-1 $40 $41 $24 $-1 $42 forward single #
face $-1 $43 $44 $25 $-1 $45 reversed single #
face $-1 $46 $47 $26 $-1 $48 reversed single #
face $-1 $49 $50 $27 $-1 $51 forward single #
face $-1 $52 $53 $28 $-1 $54 forward single #
face $-1 $55 $56 $29 $-1 $57 forward single #
face $-1 $58 $59 $30 $-1 $60 reversed single #
face $-1 $61 $62 $31 $-1 $63 forward single #
face $-1 $64 $65 $24 $-1 $66 reversed single #
loop $-1 $-1 $67 $32 #
plane-surface $-1 0 0 11.189067268408269 0 0 1 1 0 0 forward_v I I I I #
face $-1 $68 $69 $25 $-1 $70 reversed single #
loop $-1 $-1 $71 $33 #
plane-surface $-1 -49.699805308284091 0 4.8019391325194398 0 0 1 1 0 0 forward_v I I I I #
face $-1 $72 $73 $26 $-1 $74 reversed single #
loop $-1 $-1 $75 $34 #
plane-surface $-1 -21.44069384918215 43.269144149934235 131.73227151236225 -1 0 0 0 0.55919291073839883 0.82903756765294845 forward_v I I I I #
face $-1 $76 $77 $27 $-1 $78 forward single #
loop $-1 $79 $80 $35 #
cone-surface $-1 -39.105291174953521 24.640903861877334 7.2730624075845807 0 -0.55919291073839883 -0.82903756765294845 1.5 0 0 1 I I 0 1 1.5 forward I I I I #
face $-1 $81 $82 $28 $-1 $83 forward single #
loop $-1 $84 $85 $36 #
cone-surface $-1 -32.481067177789257 24.640903861877334 7.2730624075845807 0 -0.55919291073839883 -0.82903756765294845 1.5 0 0 1 I I 0 1 1.5 forward I I I I #
face $-1 $86 $87 $29 $-1 $88 forward single #
loop $-1 $89 $90 $37 #
cone-surface $-1 -25.856843180624988 24.640903861877334 7.2730624075845807 0 -0.55919291073839883 -0.82903756765294845 1.5 0 0 1 I I 0 1 1.5 forward I I I I #
face $-1 $91 $92 $30 $-1 $93 reversed single #
loop $-1 $-1 $94 $38 #
plane-surface $-1 50.113472932605596 -119.62556679784866 67.682574190324729 -1 0 0 0 -0.80901700255871778 0.5877852410284794 forward_v I I I I #
face $-1 $95 $96 $31 $-1 $97 forward single #
loop $-1 $98 $99 $39 #
cone-surface $-1 38.996654699443965 -24.075317632880555 5.2857798573841812 0 0.80901700255871778 -0.5877852410284794 2 0 0 1 I I 0 1 2 forward I I I I #
face $-1 $100 $101 $24 $-1 $102 reversed single #
loop $-1 $-1 $103 $40 #
plane-surface $-1 0 0 -11.189067268408269 0 0 1 1 0 0 forward_v I I I I #
coedge $-1 $104 $105 $106 $107 forward $41 $-1 #
face $-1 $108 $109 $25 $-1 $110 reversed single #
loop $-1 $-1 $111 $43 #
plane-surface $-1 -43.52144050639636 0 7.9955032004638547 -1 0 0 0 0 1 forward_v I I I I #
coedge $-1 $112 $113 $114 $115 forward $44 $-1 #
face $-1 $116 $117 $26 $-1 $118 forward single #
loop $-1 $-1 $119 $46 #
plane-surface $-1 -32.481067177789257 -19.224209031350519 39.082067046293176 0 0.55919291073839883 0.82903756765294845 1 0 0 forward_v I I I I #
coedge $-1 $120 $121 $122 $123 reversed $47 $-1 #
face $-1 $-1 $124 $27 $-1 $125 forward single #
loop $-1 $126 $127 $49 #
cone-surface $-1 -39.105291174953521 23.191587856722336 5.1243631079321723 0 -0.55919291073839883 -0.82903756765294845 0.75 0 0 1 I I -0.70710678118654757 0.70710678118654757 0.75 forward I I I I #
loop $-1 $-1 $128 $35 #
coedge $-1 $80 $80 $129 $130 reversed $50 $-1 #
face $-1 $-1 $131 $28 $-1 $132 forward single #
loop $-1 $133 $134 $52 #
cone-surface $-1 -32.481067177789257 23.191587856722336 5.1243631079321723 0 -0.55919291073839883 -0.82903756765294845 0.75 0 0 1 I I -0.70710678118654757 0.70710678118654757 0.75 forward I I I I #
loop $-1 $-1 $135 $36 #
coedge $-1 $85 $85 $136 $137 reversed $53 $-1 #
face $-1 $-1 $138 $29 $-1 $139 forward single #
loop $-1 $140 $141 $55 #
cone-surface $-1 -25.856843180624988 23.191587856722336 5.1243631079321723 0 -0.55919291073839883 -0.82903756765294845 0.75 0 0 1 I I -0.70710678118654757 0.70710678118654757 0.75 forward I I I I #
loop $-1 $-1 $142 $37 #
coedge $-1 $90 $90 $143 $144 reversed $56 $-1 #
face $-1 $145 $146 $30 $-1 $147 reversed single #
loop $-1 $-1 $148 $58 #
plane-surface $-1 38.99665469944398 -29.212787415853967 1.9938468174492954 0 -0.80901700255871778 0.5877852410284794 1 0 0 forward_v I I I I #
coedge $-1 $149 $150 $151 $152 reversed $59 $-1 #
face $-1 $-1 $153 $31 $-1 $154 forward single #
loop $-1 $155 $156 $61 #
cone-surface $-1 38.996654699443965 -21.469190105548698 3.3923174308111008 0 0.80901700255871778 -0.5877852410284794 1 0 0 1 I I -0.70710678118654746 0.70710678118654746 1 forward I I I I #
loop $-1 $-1 $157 $39 #
coedge $-1 $99 $99 $158 $159 reversed $62 $-1 #
face $-1 $160 $161 $24 $-1 $162 reversed single #
loop $-1 $-1 $163 $64 #
plane-surface $-1 0 -29.212787415853981 0 0 1 0 0 0 1 forward_v I I I I #
coedge $-1 $164 $165 $166 $167 forward $65 $-1 #
coedge $-1 $168 $67 $169 $170 forward $41 $-1 #
coedge $-1 $67 $168 $171 $172 forward $41 $-1 #
coedge $-1 $173 $174 $67 $107 reversed $175 $-1 #
edge $-1 $176 -29.212787415853981 $177 29.212787415853981 $106 $178 forward 7 unknown #
face $-1 $179 $180 $25 $-1 $181 reversed single #
loop $-1 $-1 $182 $68 #
plane-surface $-1 0 29.212787415853981 0 0 -1 0 0 0 -1 forward_v I I I I #
coedge $-1 $114 $183 $184 $185 reversed $69 $-1 #
coedge $-1 $186 $71 $187 $188 reversed $44 $-1 #
coedge $-1 $71 $186 $189 $190 reversed $44 $-1 #
coedge $-1 $191 $111 $71 $115 reversed $69 $-1 #
edge $-1 $192 -29.212787415853981 $193 29.212787415853981 $114 $194 forward 7 unknown #
face $-1 $195 $196 $26 $-1 $197 forward single #
loop $-1 $-1 $198 $72 #
plane-surface $-1 -43.52144050639636 0 7.9955032004638547 -1 0 0 0 0 1 forward_v I I I I #
coedge $-1 $199 $200 $201 $202 reversed $73 $-1 #
coedge $-1 $121 $75 $203 $204 reversed $47 $-1 #
coedge $-1 $75 $120 $199 $205 reversed $47 $-1 #
coedge $-1 $201 $206 $75 $123 forward $207 $-1 #
edge $-1 $208 54.677068487772857 $209 59.455235961594866 $122 $210 forward 7 unknown #
loop $-1 $-1 $129 $76 #
plane-surface $-1 -32.481067177789257 -19.224209031350519 39.082067046293176 0 0.55919291073839883 0.82903756765294845 1 0 0 forward_v I I I I #
loop $-1 $-1 $211 $49 #
coedge $-1 $127 $127 $128 $212 reversed $77 $-1 #
coedge $-1 $128 $128 $127 $212 forward $79 $-1 #
coedge $-1 $129 $129 $80 $130 forward $124 $-1 #
edge $-1 $213 5.6982984032221986e-016 $213 6.2831853071796013 $129 $214 forward 7 unknown #
loop $-1 $-1 $136 $81 #
plane-surface $-1 -32.481067177789257 -19.224209031350519 39.082067046293176 0 0.55919291073839883 0.82903756765294845 1 0 0 forward_v I I I I #
loop $-1 $-1 $215 $52 #
coedge $-1 $134 $134 $135 $216 reversed $82 $-1 #
coedge $-1 $135 $135 $134 $216 forward $84 $-1 #
coedge $-1 $136 $136 $85 $137 forward $131 $-1 #
edge $-1 $217 5.6982984032221986e-016 $217 6.2831853071796013 $136 $218 forward 7 unknown #
loop $-1 $-1 $143 $86 #
plane-surface $-1 -32.481067177789257 -19.224209031350519 39.082067046293176 0 0.55919291073839883 0.82903756765294845 1 0 0 forward_v I I I I #
loop $-1 $-1 $219 $55 #
coedge $-1 $141 $141 $142 $220 reversed $87 $-1 #
coedge $-1 $142 $142 $141 $220 forward $89 $-1 #
coedge $-1 $143 $143 $90 $144 forward $138 $-1 #
edge $-1 $221 5.6982984032221986e-016 $221 6.2831853071796013 $143 $222 forward 7 unknown #
face $-1 $223 $224 $30 $-1 $225 reversed single #
loop $-1 $-1 $226 $91 #
plane-surface $-1 27.879836466282363 -119.62556679784866 67.682574190324729 1 0 0 0 0.80901700255871778 -0.5877852410284794 forward_v I I I I #
coedge $-1 $227 $228 $229 $230 reversed $92 $-1 #
coedge $-1 $150 $94 $231 $232 reversed $59 $-1 #
coedge $-1 $94 $149 $227 $233 reversed $59 $-1 #
coedge $-1 $229 $234 $94 $152 forward $235 $-1 #
edge $-1 $236 30.59999598307035 $237 37.280714499470946 $151 $238 forward 7 unknown #
loop $-1 $-1 $158 $95 #
plane-surface $-1 38.99665469944398 -29.212787415853967 1.9938468174492954 0 -0.80901700255871778 0.5877852410284794 1 0 0 forward_v I I I I #
loop $-1 $-1 $239 $61 #
coedge $-1 $156 $156 $157 $240 reversed $96 $-1 #
coedge $-1 $157 $157 $156 $240 forward $98 $-1 #
coedge $-1 $158 $158 $99 $159 forward $153 $-1 #
edge $-1 $241 1.5045245482167423e-015 $241 6.2831853071796022 $158 $242 forward 7 unknown #
face $-1 $243 $244 $24 $-1 $245 reversed single #
loop $-1 $-1 $246 $100 #
plane-surface $-1 -55.878170110171823 0 0 1 0 0 0 0 -1 forward_v I I I I #
coedge $-1 $247 $171 $248 $249 forward $101 $-1 #
coedge $-1 $250 $103 $247 $251 forward $65 $-1 #
coedge $-1 $103 $250 $252 $253 forward $65 $-1 #
coedge $-1 $174 $173 $103 $167 reversed $175 $-1 #
edge $-1 $254 -29.212787415853981 $255 29.212787415853981 $166 $256 forward 7 unknown #
coedge $-1 $105 $104 $257 $258 forward $41 $-1 #
coedge $-1 $259 $260 $104 $170 reversed $244 $-1 #
edge $-1 $177 -55.878170110171823 $261 55.878170110171823 $169 $262 forward 7 unknown #
coedge $-1 $163 $263 $105 $172 reversed $101 $-1 #
edge $-1 $264 -55.878170110171823 $176 55.878170110171823 $171 $265 forward 7 unknown #
coedge $-1 $166 $106 $263 $266 forward $175 $-1 #
coedge $-1 $106 $166 $259 $267 reversed $175 $-1 #
loop $-1 $-1 $173 $243 #
vertex $-1 $107 $268 #
vertex $-1 $107 $269 #
straight-curve $-1 55.878170110171823 0 11.189067268408269 0 1 0 I I #
face $-1 $270 $271 $25 $-1 $272 forward single #
loop $-1 $-1 $273 $108 #
plane-surface $-1 -55.878170110171823 0 0 1 0 0 0 0 -1 forward_v I I I I #
coedge $-1 $189 $274 $191 $275 forward $109 $-1 #
coedge $-1 $111 $191 $276 $277 reversed $69 $-1 #
coedge $-1 $278 $187 $111 $185 forward $279 $-1 #
edge $-1 $193 0.8041875322875125 $280 7.1913156681763422 $184 $281 forward 7 unknown #
coedge $-1 $113 $112 $273 $282 reversed $44 $-1 #
coedge $-1 $184 $283 $112 $188 forward $279 $-1 #
edge $-1 $284 -31.028267456029777 $193 -18.671537852254314 $187 $285 forward 7 unknown #
coedge $-1 $286 $182 $113 $190 forward $109 $-1 #
edge $-1 $192 18.671537852254314 $287 31.028267456029777 $189 $288 forward 7 unknown #
coedge $-1 $183 $114 $182 $275 reversed $69 $-1 #
vertex $-1 $190 $289 #
vertex $-1 $188 $290 #
straight-curve $-1 -43.52144050639636 0 4.8019391325194398 0 -1 0 I I #
face $-1 $-1 $207 $26 $-1 $291 reversed single #
loop $-1 $-1 $292 $116 #
plane-surface $-1 0 0 11.189067268408269 0 0 1 1 0 0 forward_v I I I I #
coedge $-1 $293 $294 $200 $295 forward $117 $-1 #
coedge $-1 $296 $119 $121 $205 forward $73 $-1 #
coedge $-1 $119 $296 $198 $295 reversed $73 $-1 #
coedge $-1 $297 $122 $119 $202 forward $207 $-1 #
edge $-1 $209 5.2001602602875217 $298 27.280906917501731 $201 $299 forward 7 unknown #
coedge $-1 $300 $292 $120 $204 forward $196 $-1 #
edge $-1 $301 0.49429087713593844 $208 7.5782153408868638 $203 $302 forward 7 unknown #
edge $-1 $209 -58.425574831707969 $301 -49.880817947160615 $121 $303 forward 7 unknown #
coedge $-1 $122 $297 $300 $304 reversed $207 $-1 #
loop $-1 $-1 $201 $195 #
vertex $-1 $304 $305 #
vertex $-1 $123 $306 #
straight-curve $-1 -21.44069384918215 29.212787415853981 65.866135756181123 0 0 -1 I I #
coedge $-1 $211 $211 $-1 $307 reversed $126 $-1 #
edge $-1 $308 0 $308 6.2831853071796004 $127 $309 forward 7 unknown #
vertex $-1 $130 $310 #
ellipse-curve $-1 -39.105291174953521 25.670825183978522 8.7999835314972579 0 0.55919291073839883 0.82903756765294845 1.5 0 0 1 I I #
coedge $-1 $215 $215 $-1 $311 reversed $133 $-1 #
edge $-1 $312 0 $312 6.2831853071796004 $134 $313 forward 7 unknown #
vertex $-1 $137 $314 #
ellipse-curve $-1 -32.481067177789257 25.670825183978522 8.7999835314972579 0 0.55919291073839883 0.82903756765294845 1.5 0 0 1 I I #
coedge $-1 $219 $219 $-1 $315 reversed $140 $-1 #
edge $-1 $316 0 $316 6.2831853071796004 $141 $317 forward 7 unknown #
vertex $-1 $144 $318 #
ellipse-curve $-1 -25.856843180624988 25.670825183978522 8.7999835314972579 0 0.55919291073839883 0.82903756765294845 1.5 0 0 1 I I #
face $-1 $-1 $235 $30 $-1 $319 forward single #
loop $-1 $-1 $320 $145 #
plane-surface $-1 0 -29.212787415853981 0 0 1 0 0 0 1 forward_v I I I I #
coedge $-1 $321 $322 $323 $324 reversed $146 $-1 #
coedge $-1 $325 $148 $150 $233 forward $92 $-1 #
coedge $-1 $148 $325 $321 $326 forward $92 $-1 #
coedge $-1 $323 $151 $148 $230 forward $235 $-1 #
edge $-1 $237 -30.615145582883606 $327 -8.3815091165603732 $229 $328 forward 7 unknown #
coedge $-1 $329 $330 $149 $232 forward $224 $-1 #
edge $-1 $331 -31.84744027771309 $236 -22.652219826754095 $231 $332 forward 7 unknown #
edge $-1 $237 -11.365917430507391 $331 2.4161062406544664e-014 $150 $333 forward 7 unknown #
coedge $-1 $151 $323 $329 $334 forward $235 $-1 #
loop $-1 $-1 $323 $223 #
vertex $-1 $232 $335 #
vertex $-1 $152 $336 #
straight-curve $-1 50.113472932605596 -59.812783398924331 11.189067268408269 0 1 0 I I #
coedge $-1 $239 $239 $-1 $337 reversed $155 $-1 #
edge $-1 $338 0 $338 6.2831853071796004 $156 $339 forward 7 unknown #
vertex $-1 $159 $340 #
ellipse-curve $-1 38.996654699443965 -25.872428157653683 6.5914570429287735 0 -0.80901700255871778 0.5877852410284794 2 0 0 1 I I #
face $-1 $-1 $175 $24 $-1 $341 reversed single #
loop $-1 $-1 $259 $160 #
plane-surface $-1 0 29.212787415853981 0 0 -1 0 0 0 -1 forward_v I I I I #
coedge $-1 $342 $257 $260 $343 forward $161 $-1 #
coedge $-1 $263 $163 $164 $251 reversed $101 $-1 #
coedge $-1 $257 $342 $163 $249 reversed $161 $-1 #
edge $-1 $264 -11.189067268408269 $344 11.189067268408269 $248 $345 forward 7 unknown #
coedge $-1 $165 $164 $342 $346 forward $65 $-1 #
edge $-1 $255 -55.878170110171823 $344 55.878170110171823 $247 $347 forward 7 unknown #
coedge $-1 $260 $259 $165 $253 reversed $244 $-1 #
edge $-1 $348 -55.878170110171823 $254 55.878170110171823 $252 $349 forward 7 unknown #
vertex $-1 $167 $350 #
vertex $-1 $266 $351 #
straight-curve $-1 55.878170110171823 0 -11.189067268408269 0 -1 0 I I #
coedge $-1 $246 $248 $168 $258 reversed $161 $-1 #
edge $-1 $261 -29.212787415853981 $264 29.212787415853981 $257 $352 forward 7 unknown #
coedge $-1 $252 $169 $174 $267 forward $244 $-1 #
coedge $-1 $169 $252 $246 $343 reversed $244 $-1 #
vertex $-1 $170 $353 #
straight-curve $-1 0 29.212787415853981 11.189067268408269 -1 0 0 I I #
coedge $-1 $171 $247 $173 $266 reversed $101 $-1 #
vertex $-1 $258 $354 #
straight-curve $-1 0 -29.212787415853981 11.189067268408269 1 0 0 I I #
edge $-1 $176 -11.189067268408269 $255 11.189067268408269 $173 $355 forward 7 unknown #
edge $-1 $177 -11.189067268408269 $254 11.189067268408269 $174 $356 forward 7 unknown #
point $-1 55.878170110171823 -29.212787415853981 11.189067268408269 #
point $-1 55.878170110171823 29.212787415853981 11.189067268408269 #
face $-1 $-1 $279 $25 $-1 $357 reversed single #
loop $-1 $-1 $276 $179 #
plane-surface $-1 0 0 11.189067268408269 0 0 1 1 0 0 forward_v I I I I #
coedge $-1 $358 $359 $186 $282 forward $180 $-1 #
coedge $-1 $182 $286 $360 $361 reversed $109 $-1 #
edge $-1 $362 -7.1913156681763422 $192 -0.8041875322875125 $182 $363 forward 7 unknown #
coedge $-1 $360 $364 $183 $277 forward $271 $-1 #
edge $-1 $280 -29.212787415853981 $362 29.212787415853981 $276 $365 forward 7 unknown #
coedge $-1 $283 $184 $364 $366 reversed $279 $-1 #
loop $-1 $-1 $184 $270 #
vertex $-1 $185 $367 #
straight-curve $-1 -43.52144050639636 -29.212787415853981 3.9977516002319273 0 0 1 I I #
edge $-1 $287 -29.212787415853981 $284 29.212787415853981 $273 $368 forward 7 unknown #
coedge $-1 $187 $278 $358 $369 forward $279 $-1 #
vertex $-1 $282 $370 #
straight-curve $-1 -24.849902654142046 -29.212787415853981 4.8019391325194398 1 0 0 I I #
coedge $-1 $274 $189 $359 $371 reversed $109 $-1 #
vertex $-1 $282 $372 #
straight-curve $-1 -24.849902654142046 29.212787415853981 4.8019391325194398 -1 0 0 I I #
point $-1 -43.52144050639636 29.212787415853981 4.8019391325194398 #
point $-1 -43.52144050639636 -29.212787415853981 4.8019391325194398 #
plane-surface $-1 0 29.212787415853981 0 0 -1 0 0 0 -1 forward_v I I I I #
coedge $-1 $203 $373 $296 $374 forward $196 $-1 #
coedge $-1 $294 $198 $373 $375 reversed $117 $-1 #
coedge $-1 $198 $293 $297 $376 reversed $117 $-1 #
edge $-1 $298 -41.765086023104445 $377 -33.220329138557084 $198 $378 forward 7 unknown #
coedge $-1 $200 $199 $292 $374 reversed $73 $-1 #
coedge $-1 $206 $201 $294 $376 forward $207 $-1 #
vertex $-1 $376 $379 #
straight-curve $-1 -16.240533588894628 29.212787415853981 6.4108997945862587 -1 0 0 I I #
coedge $-1 $373 $203 $206 $304 forward $196 $-1 #
vertex $-1 $204 $380 #
straight-curve $-1 -21.44069384918215 21.634572074967117 11.189067268408266 0 1 0 I I #
straight-curve $-1 -21.44069384918215 -19.224209031350519 39.082067046293176 0 -0.82903756765294845 0.55919291073839883 I I #
edge $-1 $208 21.44069384918215 $381 43.52144050639636 $206 $382 forward 7 unknown #
point $-1 -21.44069384918215 29.212787415853981 11.189067268408269 #
point $-1 -21.44069384918215 29.212787415853981 6.4108997945862569 #
edge $-1 $383 1 $383 0 $211 $-1 forward 7 unknown #
vertex $-1 $212 $384 #
ellipse-curve $-1 -39.105291174953521 23.610982539776135 5.7461412836718839 0 0.55919291073839883 0.82903756765294845 1.5 0 0 1 I I #
point $-1 -37.605291174953521 25.670825183978536 8.7999835314972774 #
edge $-1 $385 1 $385 0 $215 $-1 forward 7 unknown #
vertex $-1 $216 $386 #
ellipse-curve $-1 -32.481067177789257 23.610982539776135 5.7461412836718839 0 0.55919291073839883 0.82903756765294845 1.5 0 0 1 I I #
point $-1 -30.981067177789257 25.670825183978536 8.7999835314972774 #
edge $-1 $387 1 $387 0 $219 $-1 forward 7 unknown #
vertex $-1 $220 $388 #
ellipse-curve $-1 -25.856843180624988 23.610982539776135 5.7461412836718839 0 0.55919291073839883 0.82903756765294845 1.5 0 0 1 I I #
point $-1 -24.356843180624988 25.670825183978536 8.7999835314972774 #
plane-surface $-1 0 0 11.189067268408269 0 0 1 1 0 0 forward_v I I I I #
coedge $-1 $330 $329 $322 $389 forward $224 $-1 #
coedge $-1 $322 $226 $228 $326 reversed $146 $-1 #
coedge $-1 $226 $321 $320 $389 reversed $146 $-1 #
coedge $-1 $234 $229 $226 $324 forward $235 $-1 #
edge $-1 $327 -37.280714499470946 $390 -30.59999598307035 $323 $391 forward 7 unknown #
coedge $-1 $228 $227 $330 $392 reversed $92 $-1 #
edge $-1 $393 -2.4161062406544664e-014 $327 11.365917430507391 $321 $394 forward 7 unknown #
vertex $-1 $230 $395 #
straight-curve $-1 19.49832734972199 -22.532068899453385 11.189067268408269 -1 0 0 I I #
coedge $-1 $320 $231 $234 $334 reversed $224 $-1 #
coedge $-1 $231 $320 $325 $392 forward $224 $-1 #
vertex $-1 $232 $396 #
straight-curve $-1 50.113472932605596 -29.212787415853981 33.841287095162365 0 0 1 I I #
straight-curve $-1 50.113472932605596 -29.212787415853967 1.9938468174492954 0 -0.5877852410284794 -0.80901700255871778 I I #
edge $-1 $390 27.879836466282363 $236 50.113472932605596 $329 $397 forward 7 unknown #
point $-1 50.113472932605596 -29.212787415853981 11.189067268408269 #
point $-1 50.113472932605596 -22.532068899453385 11.189067268408269 #
edge $-1 $398 1 $398 0 $239 $-1 forward 7 unknown #
vertex $-1 $240 $399 #
ellipse-curve $-1 38.996654699443965 -22.278207108107416 3.98010267183958 0 -0.80901700255871778 0.5877852410284794 2 0 0 1 I I #
point $-1 40.996654699443965 -25.87242815765369 6.5914570429287824 #
plane-surface $-1 55.878170110171823 0 0 -1 0 0 0 0 1 forward_v I I I I #
coedge $-1 $248 $246 $250 $346 reversed $161 $-1 #
edge $-1 $261 -11.189067268408269 $348 11.189067268408269 $260 $400 forward 7 unknown #
vertex $-1 $346 $401 #
straight-curve $-1 -55.878170110171823 -29.212787415853981 0 0 0 -1 I I #
edge $-1 $344 -29.212787415853981 $348 29.212787415853981 $342 $402 forward 7 unknown #
straight-curve $-1 0 -29.212787415853981 -11.189067268408269 -1 0 0 I I #
vertex $-1 $253 $403 #
straight-curve $-1 0 29.212787415853981 -11.189067268408269 1 0 0 I I #
point $-1 55.878170110171823 29.212787415853981 -11.189067268408269 #
point $-1 55.878170110171823 -29.212787415853981 -11.189067268408269 #
straight-curve $-1 -55.878170110171823 0 11.189067268408269 0 -1 0 I I #
point $-1 -55.878170110171823 29.212787415853981 11.189067268408269 #
point $-1 -55.878170110171823 -29.212787415853981 11.189067268408269 #
straight-curve $-1 55.878170110171823 -29.212787415853981 0 0 0 -1 I I #
straight-curve $-1 55.878170110171823 29.212787415853981 0 0 0 -1 I I #
plane-surface $-1 0 -29.212787415853981 0 0 1 0 0 0 1 forward_v I I I I #
coedge $-1 $404 $273 $283 $369 reversed $180 $-1 #
coedge $-1 $273 $404 $286 $371 forward $180 $-1 #
coedge $-1 $405 $276 $274 $361 forward $271 $-1 #
edge $-1 $362 43.52144050639636 $406 55.878170110171823 $274 $407 forward 7 unknown #
vertex $-1 $361 $408 #
straight-curve $-1 -43.52144050639636 29.212787415853981 3.9977516002319273 0 0 -1 I I #
coedge $-1 $276 $405 $278 $366 forward $271 $-1 #
straight-curve $-1 -43.52144050639636 0 11.189067268408269 0 1 0 I I #
edge $-1 $409 -55.878170110171823 $280 -43.52144050639636 $278 $410 forward 7 unknown #
point $-1 -43.52144050639636 -29.212787415853981 11.189067268408269 #
straight-curve $-1 -55.878170110171823 0 4.8019391325194398 0 -1 0 I I #
edge $-1 $409 -11.189067268408269 $284 -4.8019391325194398 $358 $411 forward 7 unknown #
point $-1 -55.878170110171823 -29.212787415853981 4.8019391325194398 #
edge $-1 $406 -11.189067268408269 $287 -4.8019391325194398 $286 $412 forward 7 unknown #
point $-1 -55.878170110171823 29.212787415853981 4.8019391325194398 #
coedge $-1 $292 $300 $293 $375 forward $196 $-1 #
edge $-1 $377 -27.280906917501731 $301 -5.2001602602875217 $292 $413 forward 7 unknown #
edge $-1 $381 -29.212787415853981 $377 -22.128862952103052 $373 $414 forward 7 unknown #
edge $-1 $298 2.4131481943543296 $381 7.1913156681763422 $297 $415 forward 7 unknown #
vertex $-1 $295 $416 #
straight-curve $-1 -43.52144050639636 -5.4120379135566825 29.765639815085652 0 -0.82903756765294845 0.55919291073839883 I I #
point $-1 -43.52144050639636 29.212787415853981 6.4108997945862569 #
point $-1 -21.44069384918215 22.128862952103056 11.189067268408266 #
vertex $-1 $375 $417 #
straight-curve $-1 0 29.212787415853981 11.189067268408269 -1 0 0 I I #
vertex $-1 $307 $418 #
point $-1 -37.605291174953521 23.610982539776135 5.7461412836718839 #
vertex $-1 $311 $419 #
point $-1 -30.981067177789257 23.610982539776135 5.7461412836718839 #
vertex $-1 $315 $420 #
point $-1 -24.356843180624988 23.610982539776135 5.7461412836718839 #
edge $-1 $390 22.652219826754095 $393 31.84744027771309 $320 $421 forward 7 unknown #
vertex $-1 $334 $422 #
straight-curve $-1 27.879836466282363 -59.812783398924331 11.189067268408269 0 -1 0 I I #
edge $-1 $393 8.3815091165603732 $331 30.615145582883606 $330 $423 forward 7 unknown #
vertex $-1 $392 $424 #
straight-curve $-1 27.879836466282363 -29.212787415853967 1.9938468174492954 0 0.5877852410284794 0.80901700255871778 I I #
point $-1 27.879836466282363 -22.532068899453385 11.189067268408269 #
point $-1 50.113472932605596 -29.212787415853981 1.9938468174492758 #
straight-curve $-1 0 -29.212787415853981 11.189067268408269 1 0 0 I I #
vertex $-1 $337 $425 #
point $-1 40.996654699443965 -22.278207108107416 3.98010267183958 #
straight-curve $-1 -55.878170110171823 29.212787415853981 0 0 0 -1 I I #
point $-1 -55.878170110171823 -29.212787415853981 -11.189067268408269 #
straight-curve $-1 -55.878170110171823 0 -11.189067268408269 0 1 0 I I #
point $-1 -55.878170110171823 29.212787415853981 -11.189067268408269 #
coedge $-1 $359 $358 $405 $426 reversed $180 $-1 #
coedge $-1 $364 $360 $404 $426 forward $271 $-1 #
vertex $-1 $361 $427 #
straight-curve $-1 0 29.212787415853981 11.189067268408269 -1 0 0 I I #
point $-1 -43.52144050639636 29.212787415853981 11.189067268408269 #
vertex $-1 $426 $428 #
straight-curve $-1 0 -29.212787415853981 11.189067268408269 1 0 0 I I #
straight-curve $-1 -55.878170110171823 -29.212787415853981 0 0 0 -1 I I #
straight-curve $-1 -55.878170110171823 29.212787415853981 0 0 0 -1 I I #
straight-curve $-1 -16.240533588894628 22.128862952103049 11.189067268408269 1 0 0 I I #
straight-curve $-1 -43.52144050639636 0 11.189067268408269 0 -1 0 I I #
straight-curve $-1 -43.52144050639636 29.212787415853981 3.9977516002319273 0 0 1 I I #
point $-1 -43.52144050639636 22.128862952103052 11.189067268408269 #
point $-1 -43.52144050639636 29.212787415853981 11.189067268408269 #
point $-1 -39.105291174953521 22.772193173668537 4.5025849321924607 #
point $-1 -32.481067177789257 22.772193173668537 4.5025849321924607 #
point $-1 -25.856843180624988 22.772193173668537 4.5025849321924607 #
straight-curve $-1 27.879836466282363 -29.212787415853981 33.841287095162365 0 0 -1 I I #
point $-1 27.879836466282363 -29.212787415853981 11.189067268408269 #
straight-curve $-1 19.49832734972199 -29.212787415853981 1.9938468174492749 1 0 0 I I #
point $-1 27.879836466282363 -29.212787415853981 1.9938468174492758 #
point $-1 38.996654699443965 -20.66017310298998 2.8045321897826216 #
edge $-1 $406 -29.212787415853981 $409 29.212787415853981 $404 $429 forward 7 unknown #
point $-1 -55.878170110171823 29.212787415853981 11.189067268408269 #
point $-1 -55.878170110171823 -29.212787415853981 11.189067268408269 #
straight-curve $-1 -55.878170110171823 0 11.189067268408269 0 -1 0 I I #
End-of-ACIS-data 