500 0 18 0           
7 Unknown 11 ACIS 5.0 NT 24 Thu Mar 25 15:22:14 1999 
-1 9.9999999999999995e-007 1e-010 
body $-1 $18 $-1 $19 #
body $-1 $20 $-1 $21 #
body $-1 $22 $-1 $23 #
body $-1 $24 $-1 $25 #
body $-1 $26 $-1 $27 #
body $-1 $28 $-1 $29 #
body $-1 $30 $-1 $31 #
body $-1 $32 $-1 $33 #
body $-1 $34 $-1 $35 #
body $-1 $36 $-1 $37 #
body $-1 $38 $-1 $39 #
body $-1 $40 $-1 $41 #
body $-1 $42 $-1 $43 #
body $-1 $44 $-1 $45 #
body $-1 $46 $-1 $47 #
body $-1 $48 $-1 $49 #
body $-1 $50 $-1 $51 #
body $-1 $52 $-1 $53 #
lump $-1 $-1 $54 $0 #
transform $-1 1 0 0 0 1 0 0 0 1 56.959746086001161 39.568310444452777 11.115402202798515 1 rotate no_reflect no_shear #
lump $-1 $-1 $55 $1 #
transform $-1 1 0 0 0 1 0 0 0 1 56.959746086001161 39.568310444452777 11.115402202798515 1 rotate no_reflect no_shear #
lump $-1 $-1 $56 $2 #
transform $-1 1 0 0 0 1 0 0 0 1 56.959746086001161 39.568310444452777 11.115402202798515 1 rotate no_reflect no_shear #
lump $-1 $-1 $57 $3 #
transform $-1 1 0 0 0 1 0 0 0 1 56.959746086001161 39.568310444452777 11.115402202798515 1 rotate no_reflect no_shear #
lump $-1 $-1 $58 $4 #
transform $-1 1 0 0 0 1 0 0 0 1 56.959746086001161 39.568310444452777 11.115402202798515 1 rotate no_reflect no_shear #
lump $-1 $-1 $59 $5 #
transform $-1 1 0 0 0 1 0 0 0 1 56.959746086001161 39.568310444452777 11.115402202798515 1 rotate no_reflect no_shear #
lump $-1 $-1 $60 $6 #
transform $-1 1 0 0 0 1 0 0 0 1 56.959746086001161 39.568310444452777 11.115402202798515 1 rotate no_reflect no_shear #
lump $-1 $-1 $61 $7 #
transform $-1 1 0 0 0 1 0 0 0 1 56.959746086001161 39.568310444452777 11.115402202798515 1 rotate no_reflect no_shear #
lump $-1 $-1 $62 $8 #
transform $-1 1 0 0 0 1 0 0 0 1 56.959746086001161 39.568310444452777 11.115402202798515 1 rotate no_reflect no_shear #
lump $-1 $-1 $63 $9 #
transform $-1 1 0 0 0 1 0 0 0 1 56.959746086001161 39.568310444452777 11.115402202798515 1 rotate no_reflect no_shear #
lump $-1 $-1 $64 $10 #
transform $-1 1 0 0 0 1 0 0 0 1 56.959746086001161 39.568310444452777 11.115402202798515 1 rotate no_reflect no_shear #
lump $-1 $-1 $65 $11 #
transform $-1 1 0 0 0 1 0 0 0 1 56.959746086001161 39.568310444452777 11.115402202798515 1 rotate no_reflect no_shear #
lump $-1 $-1 $66 $12 #
transform $-1 1 0 0 0 1 0 0 0 1 56.959746086001161 39.568310444452777 11.115402202798515 1 rotate no_reflect no_shear #
lump $-1 $-1 $67 $13 #
transform $-1 1 0 0 0 1 0 0 0 1 56.959746086001161 39.568310444452777 11.115402202798515 1 rotate no_reflect no_shear #
lump $-1 $-1 $68 $14 #
transform $-1 1 0 0 0 1 0 0 0 1 56.959746086001161 39.568310444452777 11.115402202798515 1 rotate no_reflect no_shear #
lump $-1 $-1 $69 $15 #
transform $-1 1 0 0 0 1 0 0 0 1 56.959746086001161 39.568310444452777 11.115402202798515 1 rotate no_reflect no_shear #
lump $-1 $-1 $70 $16 #
transform $-1 1 0 0 0 1 0 0 0 1 56.959746086001161 39.568310444452777 11.115402202798515 1 rotate no_reflect no_shear #
lump $-1 $-1 $71 $17 #
transform $-1 1 0 0 0 1 0 0 0 1 56.959746086001161 39.568310444452777 11.115402202798515 1 rotate no_reflect no_shear #
shell $-1 $-1 $-1 $72 $-1 $18 #
shell $-1 $-1 $-1 $73 $-1 $20 #
shell $-1 $-1 $-1 $74 $-1 $22 #
shell $-1 $-1 $-1 $75 $-1 $24 #
shell $-1 $-1 $-1 $76 $-1 $26 #
shell $-1 $-1 $-1 $77 $-1 $28 #
shell $-1 $-1 $-1 $78 $-1 $30 #
shell $-1 $-1 $-1 $79 $-1 $32 #
shell $-1 $-1 $-1 $80 $-1 $34 #
shell $-1 $-1 $-1 $81 $-1 $36 #
shell $-1 $-1 $-1 $82 $-1 $38 #
shell $-1 $-1 $-1 $83 $-1 $40 #
shell $-1 $-1 $-1 $84 $-1 $42 #
shell $-1 $-1 $-1 $85 $-1 $44 #
shell $-1 $-1 $-1 $86 $-1 $46 #
shell $-1 $-1 $-1 $87 $-1 $48 #
shell $-1 $-1 $-1 $88 $-1 $50 #
shell $-1 $-1 $-1 $89 $-1 $52 #
face $-1 $90 $91 $54 $-1 $92 forward single #
face $-1 $93 $94 $55 $-1 $95 reversed single #
face $-1 $96 $97 $56 $-1 $98 reversed single #
face $-1 $99 $100 $57 $-1 $101 forward single #
face $-1 $102 $103 $58 $-1 $104 forward single #
face $-1 $105 $106 $59 $-1 $107 forward single #
face $-1 $108 $109 $60 $-1 $110 reversed single #
face $-1 $111 $112 $61 $-1 $113 forward single #
face $-1 $114 $115 $62 $-1 $116 forward single #
face $-1 $117 $118 $63 $-1 $119 reversed single #
face $-1 $120 $121 $64 $-1 $122 forward single #
face $-1 $123 $124 $65 $-1 $125 forward single #
face $-1 $126 $127 $66 $-1 $128 reversed single #
face $-1 $129 $130 $67 $-1 $131 forward single #
face $-1 $132 $133 $68 $-1 $134 forward single #
face $-1 $135 $136 $69 $-1 $137 reversed single #
face $-1 $138 $139 $70 $-1 $140 forward single #
face $-1 $141 $142 $71 $-1 $143 forward single #
face $-1 $144 $145 $54 $-1 $146 reversed single #
loop $-1 $-1 $147 $72 #
plane-surface $-1 0 0 11.115402202798515 0 0 1 1 0 0 forward_v I I I I #
face $-1 $148 $149 $55 $-1 $150 reversed single #
loop $-1 $-1 $151 $73 #
plane-surface $-1 -51.01661696303082 0 8.1154022027985153 0 0 1 1 0 0 forward_v I I I I #
face $-1 $152 $153 $56 $-1 $154 reversed single #
loop $-1 $-1 $155 $74 #
plane-surface $-1 -18.689082969949915 -121.51513613671466 81.441678338483001 -1 0 0 0 -0.71933980857756763 0.69465836192734942 forward_v I I I I #
face $-1 $156 $157 $57 $-1 $158 forward single #
loop $-1 $159 $160 $75 #
cone-surface $-1 -39.796606866038367 -33.49390195709649 4.9523567183922683 0 0.71933980857756763 -0.69465836192734942 2 0 0 1 I I 0 1 2 forward I I I I #
face $-1 $161 $162 $58 $-1 $163 forward single #
loop $-1 $164 $165 $76 #
cone-surface $-1 -31.881285405005197 -33.49390195709649 4.9523567183922683 0 0.71933980857756763 -0.69465836192734942 2 0 0 1 I I 0 1 2 forward I I I I #
face $-1 $166 $167 $59 $-1 $168 forward single #
loop $-1 $169 $170 $77 #
cone-surface $-1 -23.965963943972028 -33.49390195709649 4.9523567183922683 0 0.71933980857756763 -0.69465836192734942 2 0 0 1 I I 0 1 2 forward I I I I #
face $-1 $171 $172 $60 $-1 $173 reversed single #
loop $-1 $-1 $174 $78 #
plane-surface $-1 -42.130762451028943 82.922856647664204 131.96459988619961 1 0 0 0 -0.79863551827123203 -0.60181501223851219 forward_v I I I I #
face $-1 $175 $176 $61 $-1 $177 forward single #
loop $-1 $178 $179 $79 #
cone-surface $-1 -37.174030660742417 34.710411395169807 5.097174908338971 0 -0.79863551827123203 -0.60181501223851219 1.5 0 0 1 I I 0 1 1.5 forward I I I I #
face $-1 $180 $181 $62 $-1 $182 forward single #
loop $-1 $183 $184 $80 #
cone-surface $-1 -29.738932975312625 34.710411395169807 5.097174908338971 0 -0.79863551827123203 -0.60181501223851219 1.5 0 0 1 I I 0 1 1.5 forward I I I I #
face $-1 $185 $186 $63 $-1 $187 reversed single #
loop $-1 $-1 $188 $81 #
plane-surface $-1 -15.864355157030367 82.922856647664204 131.96459988619961 1 0 0 0 -0.79863551827123203 -0.60181501223851219 forward_v I I I I #
face $-1 $189 $190 $64 $-1 $191 forward single #
loop $-1 $192 $193 $82 #
cone-surface $-1 -10.907623366743849 34.710411395169807 5.097174908338971 0 -0.79863551827123203 -0.60181501223851219 1.5 0 0 1 I I 0 1 1.5 forward I I I I #
face $-1 $194 $195 $65 $-1 $196 forward single #
loop $-1 $197 $198 $83 #
cone-surface $-1 -3.4725256813140533 34.710411395169807 5.097174908338971 0 -0.79863551827123203 -0.60181501223851219 1.5 0 0 1 I I 0 1 1.5 forward I I I I #
face $-1 $199 $200 $66 $-1 $201 reversed single #
loop $-1 $-1 $202 $84 #
plane-surface $-1 10.402052136968202 82.922856647664204 131.96459988619961 1 0 0 0 -0.79863551827123203 -0.60181501223851219 forward_v I I I I #
face $-1 $203 $204 $67 $-1 $205 forward single #
loop $-1 $206 $207 $85 #
cone-surface $-1 15.35878392725472 34.710411395169807 5.097174908338971 0 -0.79863551827123203 -0.60181501223851219 1.5 0 0 1 I I 0 1 1.5 forward I I I I #
face $-1 $208 $209 $68 $-1 $210 forward single #
loop $-1 $211 $212 $86 #
cone-surface $-1 22.793881612684515 34.710411395169807 5.097174908338971 0 -0.79863551827123203 -0.60181501223851219 1.5 0 0 1 I I 0 1 1.5 forward I I I I #
face $-1 $213 $214 $69 $-1 $215 reversed single #
loop $-1 $-1 $216 $87 #
plane-surface $-1 36.66845943096677 82.922856647664204 131.96459988619961 1 0 0 0 -0.79863551827123203 -0.60181501223851219 forward_v I I I I #
face $-1 $217 $218 $70 $-1 $219 forward single #
loop $-1 $220 $221 $88 #
cone-surface $-1 41.625191221253289 34.710411395169807 5.097174908338971 0 -0.79863551827123203 -0.60181501223851219 1.5 0 0 1 I I 0 1 1.5 forward I I I I #
face $-1 $222 $223 $71 $-1 $224 forward single #
loop $-1 $225 $226 $89 #
cone-surface $-1 49.060288906683084 34.710411395169807 5.097174908338971 0 -0.79863551827123203 -0.60181501223851219 1.5 0 0 1 I I 0 1 1.5 forward I I I I #
face $-1 $227 $228 $54 $-1 $229 reversed single #
loop $-1 $-1 $230 $90 #
plane-surface $-1 0 0 -11.115402202798515 0 0 1 1 0 0 forward_v I I I I #
coedge $-1 $231 $232 $233 $234 forward $91 $-1 #
face $-1 $235 $236 $55 $-1 $237 reversed single #
loop $-1 $-1 $238 $93 #
plane-surface $-1 -45.07348784006048 0 9.6154022027985153 -1 0 0 0 0 1 forward_v I I I I #
coedge $-1 $239 $240 $241 $242 forward $94 $-1 #
face $-1 $243 $244 $56 $-1 $245 forward single #
loop $-1 $-1 $246 $96 #
plane-surface $-1 -31.881285405005197 -39.568310444452791 2.3065505146843606 0 -0.71933980857756763 0.69465836192734942 1 0 0 forward_v I I I I #
coedge $-1 $247 $248 $249 $250 reversed $97 $-1 #
face $-1 $-1 $251 $57 $-1 $252 forward single #
loop $-1 $253 $254 $99 #
cone-surface $-1 -39.796606866038367 -30.953458157285564 2.4990787161157453 0 0.71933980857756763 -0.69465836192734942 1 0 0 1 I I -0.70710678118654746 0.70710678118654746 1 forward I I I I #
loop $-1 $-1 $255 $75 #
coedge $-1 $160 $160 $256 $257 reversed $100 $-1 #
face $-1 $-1 $258 $58 $-1 $259 forward single #
loop $-1 $260 $261 $102 #
cone-surface $-1 -31.881285405005197 -30.953458157285564 2.4990787161157453 0 0.71933980857756763 -0.69465836192734942 1 0 0 1 I I -0.70710678118654746 0.70710678118654746 1 forward I I I I #
loop $-1 $-1 $262 $76 #
coedge $-1 $165 $165 $263 $264 reversed $103 $-1 #
face $-1 $-1 $265 $59 $-1 $266 forward single #
loop $-1 $267 $268 $105 #
cone-surface $-1 -23.965963943972028 -30.953458157285564 2.4990787161157453 0 0.71933980857756763 -0.69465836192734942 1 0 0 1 I I -0.70710678118654746 0.70710678118654746 1 forward I I I I #
loop $-1 $-1 $269 $77 #
coedge $-1 $170 $170 $270 $271 reversed $106 $-1 #
face $-1 $272 $273 $60 $-1 $274 reversed single #
loop $-1 $-1 $275 $108 #
plane-surface $-1 -33.45648181802752 -8.0572960243184326 63.406139310500933 0 0.79863551827123203 0.60181501223851219 1 0 0 forward_v I I I I #
coedge $-1 $276 $277 $278 $279 reversed $109 $-1 #
face $-1 $-1 $280 $61 $-1 $281 forward single #
loop $-1 $282 $283 $111 #
cone-surface $-1 -37.174030660742417 33.364391136547169 4.0828759197718778 0 -0.79863551827123203 -0.60181501223851219 0.75 0 0 1 I I -0.70710678118654757 0.70710678118654757 0.75 forward I I I I #
loop $-1 $-1 $284 $79 #
coedge $-1 $179 $179 $285 $286 reversed $112 $-1 #
face $-1 $-1 $287 $62 $-1 $288 forward single #
loop $-1 $289 $290 $114 #
cone-surface $-1 -29.738932975312625 33.364391136547169 4.0828759197718778 0 -0.79863551827123203 -0.60181501223851219 0.75 0 0 1 I I -0.70710678118654757 0.70710678118654757 0.75 forward I I I I #
loop $-1 $-1 $291 $80 #
coedge $-1 $184 $184 $292 $293 reversed $115 $-1 #
face $-1 $294 $295 $63 $-1 $296 reversed single #
loop $-1 $-1 $297 $117 #
plane-surface $-1 -7.1900745240289439 -8.0572960243184326 63.406139310500933 0 0.79863551827123203 0.60181501223851219 1 0 0 forward_v I I I I #
coedge $-1 $298 $299 $300 $301 reversed $118 $-1 #
face $-1 $-1 $302 $64 $-1 $303 forward single #
loop $-1 $304 $305 $120 #
cone-surface $-1 -10.907623366743849 33.364391136547169 4.0828759197718778 0 -0.79863551827123203 -0.60181501223851219 0.75 0 0 1 I I -0.70710678118654757 0.70710678118654757 0.75 forward I I I I #
loop $-1 $-1 $306 $82 #
coedge $-1 $193 $193 $307 $308 reversed $121 $-1 #
face $-1 $-1 $309 $65 $-1 $310 forward single #
loop $-1 $311 $312 $123 #
cone-surface $-1 -3.4725256813140533 33.364391136547169 4.0828759197718778 0 -0.79863551827123203 -0.60181501223851219 0.75 0 0 1 I I -0.70710678118654757 0.70710678118654757 0.75 forward I I I I #
loop $-1 $-1 $313 $83 #
coedge $-1 $198 $198 $314 $315 reversed $124 $-1 #
face $-1 $316 $317 $66 $-1 $318 reversed single #
loop $-1 $-1 $319 $126 #
plane-surface $-1 19.076332769969625 -8.0572960243184326 63.406139310500933 0 0.79863551827123203 0.60181501223851219 1 0 0 forward_v I I I I #
coedge $-1 $320 $321 $322 $323 reversed $127 $-1 #
face $-1 $-1 $324 $67 $-1 $325 forward single #
loop $-1 $326 $327 $129 #
cone-surface $-1 15.35878392725472 33.364391136547169 4.0828759197718778 0 -0.79863551827123203 -0.60181501223851219 0.75 0 0 1 I I -0.70710678118654757 0.70710678118654757 0.75 forward I I I I #
loop $-1 $-1 $328 $85 #
coedge $-1 $207 $207 $329 $330 reversed $130 $-1 #
face $-1 $-1 $331 $68 $-1 $332 forward single #
loop $-1 $333 $334 $132 #
cone-surface $-1 22.793881612684515 33.364391136547169 4.0828759197718778 0 -0.79863551827123203 -0.60181501223851219 0.75 0 0 1 I I -0.70710678118654757 0.70710678118654757 0.75 forward I I I I #
loop $-1 $-1 $335 $86 #
coedge $-1 $212 $212 $336 $337 reversed $133 $-1 #
face $-1 $338 $339 $69 $-1 $340 reversed single #
loop $-1 $-1 $341 $135 #
plane-surface $-1 45.342740063968193 -8.0572960243184326 63.406139310500933 0 0.79863551827123203 0.60181501223851219 1 0 0 forward_v I I I I #
coedge $-1 $342 $343 $344 $345 reversed $136 $-1 #
face $-1 $-1 $346 $70 $-1 $347 forward single #
loop $-1 $348 $349 $138 #
cone-surface $-1 41.625191221253289 33.364391136547169 4.0828759197718778 0 -0.79863551827123203 -0.60181501223851219 0.75 0 0 1 I I -0.70710678118654757 0.70710678118654757 0.75 forward I I I I #
loop $-1 $-1 $350 $88 #
coedge $-1 $221 $221 $351 $352 reversed $139 $-1 #
face $-1 $-1 $353 $71 $-1 $354 forward single #
loop $-1 $355 $356 $141 #
cone-surface $-1 49.060288906683084 33.364391136547169 4.0828759197718778 0 -0.79863551827123203 -0.60181501223851219 0.75 0 0 1 I I -0.70710678118654757 0.70710678118654757 0.75 forward I I I I #
loop $-1 $-1 $357 $89 #
coedge $-1 $226 $226 $358 $359 reversed $142 $-1 #
face $-1 $360 $361 $54 $-1 $362 reversed single #
loop $-1 $-1 $363 $144 #
plane-surface $-1 0 -39.568310444452777 0 0 1 0 0 0 1 forward_v I I I I #
coedge $-1 $364 $365 $366 $367 forward $145 $-1 #
coedge $-1 $368 $147 $369 $370 forward $91 $-1 #
coedge $-1 $147 $368 $371 $372 forward $91 $-1 #
coedge $-1 $373 $374 $147 $234 reversed $375 $-1 #
edge $-1 $376 -39.568310444452777 $377 39.568310444452777 $233 $378 forward 7 unknown #
face $-1 $379 $380 $55 $-1 $381 reversed single #
loop $-1 $-1 $382 $148 #
plane-surface $-1 0 39.568310444452777 0 0 -1 0 0 0 -1 forward_v I I I I #
coedge $-1 $241 $383 $384 $385 reversed $149 $-1 #
coedge $-1 $386 $151 $387 $388 reversed $94 $-1 #
coedge $-1 $151 $386 $389 $390 reversed $94 $-1 #
coedge $-1 $391 $238 $151 $242 reversed $149 $-1 #
edge $-1 $392 -39.568310444452777 $393 39.568310444452777 $241 $394 forward 7 unknown #
face $-1 $395 $396 $56 $-1 $397 forward single #
loop $-1 $-1 $398 $152 #
plane-surface $-1 -45.07348784006048 0 9.6154022027985153 -1 0 0 0 0 1 forward_v I I I I #
coedge $-1 $399 $400 $401 $402 reversed $153 $-1 #
coedge $-1 $248 $155 $403 $404 reversed $97 $-1 #
coedge $-1 $155 $247 $399 $405 reversed $97 $-1 #
coedge $-1 $401 $406 $155 $250 forward $396 $-1 #
edge $-1 $407 21.189257623904552 $408 29.69586661615039 $249 $409 forward 7 unknown #
loop $-1 $-1 $256 $156 #
plane-surface $-1 -31.881285405005197 -39.568310444452791 2.3065505146843606 0 -0.71933980857756763 0.69465836192734942 1 0 0 forward_v I I I I #
loop $-1 $-1 $410 $99 #
coedge $-1 $254 $254 $255 $411 reversed $157 $-1 #
coedge $-1 $255 $255 $254 $411 forward $159 $-1 #
coedge $-1 $256 $256 $160 $257 forward $251 $-1 #
edge $-1 $412 -2.5556083776392588e-015 $412 6.2831853071795978 $256 $413 forward 7 unknown #
loop $-1 $-1 $263 $161 #
plane-surface $-1 -31.881285405005197 -39.568310444452791 2.3065505146843606 0 -0.71933980857756763 0.69465836192734942 1 0 0 forward_v I I I I #
loop $-1 $-1 $414 $102 #
coedge $-1 $261 $261 $262 $415 reversed $162 $-1 #
coedge $-1 $262 $262 $261 $415 forward $164 $-1 #
coedge $-1 $263 $263 $165 $264 forward $258 $-1 #
edge $-1 $416 -2.5556083776392588e-015 $416 6.2831853071795978 $263 $417 forward 7 unknown #
loop $-1 $-1 $270 $166 #
plane-surface $-1 -31.881285405005197 -39.568310444452791 2.3065505146843606 0 -0.71933980857756763 0.69465836192734942 1 0 0 forward_v I I I I #
loop $-1 $-1 $418 $105 #
coedge $-1 $268 $268 $269 $419 reversed $167 $-1 #
coedge $-1 $269 $269 $268 $419 forward $169 $-1 #
coedge $-1 $270 $270 $170 $271 forward $265 $-1 #
edge $-1 $420 -2.5556083776392588e-015 $420 6.2831853071795978 $270 $421 forward 7 unknown #
face $-1 $422 $423 $60 $-1 $424 forward single #
loop $-1 $-1 $425 $171 #
plane-surface $-1 -24.782201185026096 82.922856647664204 131.96459988619961 -1 0 0 0 0.79863551827123203 0.60181501223851219 forward_v I I I I #
coedge $-1 $426 $427 $428 $429 reversed $172 $-1 #
coedge $-1 $277 $174 $430 $431 reversed $109 $-1 #
coedge $-1 $174 $276 $426 $432 reversed $109 $-1 #
coedge $-1 $428 $433 $174 $279 forward $423 $-1 #
edge $-1 $434 1.8931178793793251 $435 10.114828738106858 $278 $436 forward 7 unknown #
loop $-1 $-1 $285 $175 #
plane-surface $-1 -33.45648181802752 -8.0572960243184326 63.406139310500933 0 0.79863551827123203 0.60181501223851219 1 0 0 forward_v I I I I #
loop $-1 $-1 $437 $111 #
coedge $-1 $283 $283 $284 $438 reversed $176 $-1 #
coedge $-1 $284 $284 $283 $438 forward $178 $-1 #
coedge $-1 $285 $285 $179 $286 forward $280 $-1 #
edge $-1 $439 -9.1888396742296944e-016 $439 6.2831853071795996 $285 $440 forward 7 unknown #
loop $-1 $-1 $292 $180 #
plane-surface $-1 -33.45648181802752 -8.0572960243184326 63.406139310500933 0 0.79863551827123203 0.60181501223851219 1 0 0 forward_v I I I I #
loop $-1 $-1 $441 $114 #
coedge $-1 $290 $290 $291 $442 reversed $181 $-1 #
coedge $-1 $291 $291 $290 $442 forward $183 $-1 #
coedge $-1 $292 $292 $184 $293 forward $287 $-1 #
edge $-1 $443 -9.1888396742296944e-016 $443 6.2831853071795996 $292 $444 forward 7 unknown #
face $-1 $445 $446 $63 $-1 $447 forward single #
loop $-1 $-1 $448 $185 #
plane-surface $-1 1.4842061089724794 82.922856647664204 131.96459988619961 -1 0 0 0 0.79863551827123203 0.60181501223851219 forward_v I I I I #
coedge $-1 $449 $450 $451 $452 reversed $186 $-1 #
coedge $-1 $299 $188 $453 $454 reversed $118 $-1 #
coedge $-1 $188 $298 $449 $455 reversed $118 $-1 #
coedge $-1 $451 $456 $188 $301 forward $446 $-1 #
edge $-1 $457 1.8931178793793251 $458 10.114828738106858 $300 $459 forward 7 unknown #
loop $-1 $-1 $307 $189 #
plane-surface $-1 -7.1900745240289439 -8.0572960243184326 63.406139310500933 0 0.79863551827123203 0.60181501223851219 1 0 0 forward_v I I I I #
loop $-1 $-1 $460 $120 #
coedge $-1 $305 $305 $306 $461 reversed $190 $-1 #
coedge $-1 $306 $306 $305 $461 forward $192 $-1 #
coedge $-1 $307 $307 $193 $308 forward $302 $-1 #
edge $-1 $462 -9.1888396742296944e-016 $462 6.2831853071795996 $307 $463 forward 7 unknown #
loop $-1 $-1 $314 $194 #
plane-surface $-1 -7.1900745240289439 -8.0572960243184326 63.406139310500933 0 0.79863551827123203 0.60181501223851219 1 0 0 forward_v I I I I #
loop $-1 $-1 $464 $123 #
coedge $-1 $312 $312 $313 $465 reversed $195 $-1 #
coedge $-1 $313 $313 $312 $465 forward $197 $-1 #
coedge $-1 $314 $314 $198 $315 forward $309 $-1 #
edge $-1 $466 -9.1888396742296944e-016 $466 6.2831853071795996 $314 $467 forward 7 unknown #
face $-1 $468 $469 $66 $-1 $470 forward single #
loop $-1 $-1 $471 $199 #
plane-surface $-1 27.750613402971048 82.922856647664204 131.96459988619961 -1 0 0 0 0.79863551827123203 0.60181501223851219 forward_v I I I I #
coedge $-1 $472 $473 $474 $475 reversed $200 $-1 #
coedge $-1 $321 $202 $476 $477 reversed $127 $-1 #
coedge $-1 $202 $320 $472 $478 reversed $127 $-1 #
coedge $-1 $474 $479 $202 $323 forward $469 $-1 #
edge $-1 $480 1.8931178793793251 $481 10.114828738106858 $322 $482 forward 7 unknown #
loop $-1 $-1 $329 $203 #
plane-surface $-1 19.076332769969625 -8.0572960243184326 63.406139310500933 0 0.79863551827123203 0.60181501223851219 1 0 0 forward_v I I I I #
loop $-1 $-1 $483 $129 #
coedge $-1 $327 $327 $328 $484 reversed $204 $-1 #
coedge $-1 $328 $328 $327 $484 forward $206 $-1 #
coedge $-1 $329 $329 $207 $330 forward $324 $-1 #
edge $-1 $485 -9.1888396742296944e-016 $485 6.2831853071795996 $329 $486 forward 7 unknown #
loop $-1 $-1 $336 $208 #
plane-surface $-1 19.076332769969625 -8.0572960243184326 63.406139310500933 0 0.79863551827123203 0.60181501223851219 1 0 0 forward_v I I I I #
loop $-1 $-1 $487 $132 #
coedge $-1 $334 $334 $335 $488 reversed $209 $-1 #
coedge $-1 $335 $335 $334 $488 forward $211 $-1 #
coedge $-1 $336 $336 $212 $337 forward $331 $-1 #
edge $-1 $489 -9.1888396742296944e-016 $489 6.2831853071795996 $336 $490 forward 7 unknown #
face $-1 $491 $492 $69 $-1 $493 forward single #
loop $-1 $-1 $494 $213 #
plane-surface $-1 54.017020696969617 82.922856647664204 131.96459988619961 -1 0 0 0 0.79863551827123203 0.60181501223851219 forward_v I I I I #
coedge $-1 $495 $496 $497 $498 reversed $214 $-1 #
coedge $-1 $343 $216 $499 $500 reversed $136 $-1 #
coedge $-1 $216 $342 $495 $501 reversed $136 $-1 #
coedge $-1 $497 $502 $216 $345 forward $492 $-1 #
edge $-1 $503 1.8931178793793251 $504 10.114828738106858 $344 $505 forward 7 unknown #
loop $-1 $-1 $351 $217 #
plane-surface $-1 45.342740063968193 -8.0572960243184326 63.406139310500933 0 0.79863551827123203 0.60181501223851219 1 0 0 forward_v I I I I #
loop $-1 $-1 $506 $138 #
coedge $-1 $349 $349 $350 $507 reversed $218 $-1 #
coedge $-1 $350 $350 $349 $507 forward $220 $-1 #
coedge $-1 $351 $351 $221 $352 forward $346 $-1 #
edge $-1 $508 -9.1888396742296944e-016 $508 6.2831853071795996 $351 $509 forward 7 unknown #
loop $-1 $-1 $358 $222 #
plane-surface $-1 45.342740063968193 -8.0572960243184326 63.406139310500933 0 0.79863551827123203 0.60181501223851219 1 0 0 forward_v I I I I #
loop $-1 $-1 $510 $141 #
coedge $-1 $356 $356 $357 $511 reversed $223 $-1 #
coedge $-1 $357 $357 $356 $511 forward $225 $-1 #
coedge $-1 $358 $358 $226 $359 forward $353 $-1 #
edge $-1 $512 -9.1888396742296944e-016 $512 6.2831853071795996 $358 $513 forward 7 unknown #
face $-1 $514 $515 $54 $-1 $516 reversed single #
loop $-1 $-1 $517 $227 #
plane-surface $-1 -56.959746086001161 0 0 1 0 0 0 0 -1 forward_v I I I I #
coedge $-1 $518 $371 $519 $520 forward $228 $-1 #
coedge $-1 $521 $230 $518 $522 forward $145 $-1 #
coedge $-1 $230 $521 $523 $524 forward $145 $-1 #
coedge $-1 $374 $373 $230 $367 reversed $375 $-1 #
edge $-1 $525 -39.568310444452777 $526 39.568310444452777 $366 $527 forward 7 unknown #
coedge $-1 $232 $231 $528 $529 forward $91 $-1 #
coedge $-1 $530 $531 $231 $370 reversed $515 $-1 #
edge $-1 $377 -56.959746086001161 $532 56.959746086001161 $369 $533 forward 7 unknown #
coedge $-1 $363 $534 $232 $372 reversed $228 $-1 #
edge $-1 $535 -56.959746086001161 $376 56.959746086001161 $371 $536 forward 7 unknown #
coedge $-1 $366 $233 $534 $537 forward $375 $-1 #
coedge $-1 $233 $366 $530 $538 reversed $375 $-1 #
loop $-1 $-1 $373 $514 #
vertex $-1 $234 $539 #
vertex $-1 $234 $540 #
straight-curve $-1 56.959746086001161 0 11.115402202798515 0 1 0 I I #
face $-1 $541 $542 $55 $-1 $543 forward single #
loop $-1 $-1 $544 $235 #
plane-surface $-1 -56.959746086001161 0 0 1 0 0 0 0 -1 forward_v I I I I #
coedge $-1 $389 $545 $391 $546 forward $236 $-1 #
coedge $-1 $238 $391 $547 $548 reversed $149 $-1 #
coedge $-1 $549 $387 $238 $385 forward $550 $-1 #
edge $-1 $393 3.3077011013992577 $551 6.3077011013992577 $384 $552 forward 7 unknown #
coedge $-1 $240 $239 $544 $553 reversed $94 $-1 #
coedge $-1 $384 $554 $239 $388 forward $550 $-1 #
edge $-1 $555 -31.451437604485751 $393 -19.56517935854507 $387 $556 forward 7 unknown #
coedge $-1 $557 $382 $240 $390 forward $236 $-1 #
edge $-1 $392 19.56517935854507 $558 31.451437604485751 $389 $559 forward 7 unknown #
coedge $-1 $383 $241 $382 $546 reversed $149 $-1 #
vertex $-1 $390 $560 #
vertex $-1 $388 $561 #
straight-curve $-1 -45.07348784006048 0 8.1154022027985153 0 -1 0 I I #
face $-1 $-1 $562 $56 $-1 $563 reversed single #
loop $-1 $-1 $401 $243 #
plane-surface $-1 0 0 11.115402202798515 0 0 1 1 0 0 forward_v I I I I #
coedge $-1 $564 $565 $400 $566 reversed $244 $-1 #
coedge $-1 $567 $246 $248 $405 forward $153 $-1 #
coedge $-1 $246 $567 $398 $566 forward $153 $-1 #
coedge $-1 $568 $249 $246 $402 forward $396 $-1 #
edge $-1 $408 2.7484402674473163 $569 29.132845137557879 $401 $570 forward 7 unknown #
coedge $-1 $571 $572 $247 $404 forward $562 $-1 #
edge $-1 $573 -38.414288654557126 $407 -29.605436966442987 $403 $574 forward 7 unknown #
edge $-1 $408 -12.245744755226184 $573 -2.0413573615811715e-014 $248 $575 forward 7 unknown #
coedge $-1 $249 $568 $571 $576 forward $396 $-1 #
vertex $-1 $404 $577 #
vertex $-1 $250 $578 #
straight-curve $-1 -18.689082969949915 -60.75756806835733 11.115402202798514 0 1 0 I I #
coedge $-1 $410 $410 $-1 $579 reversed $253 $-1 #
edge $-1 $580 0 $580 6.2831853071796004 $254 $581 forward 7 unknown #
vertex $-1 $257 $582 #
ellipse-curve $-1 -39.796606866038367 -35.315005948329855 6.7109763587414477 0 -0.71933980857756763 0.69465836192734942 2 0 0 1 I I #
coedge $-1 $414 $414 $-1 $583 reversed $260 $-1 #
edge $-1 $584 0 $584 6.2831853071796004 $261 $585 forward 7 unknown #
vertex $-1 $264 $586 #
ellipse-curve $-1 -31.881285405005197 -35.315005948329855 6.7109763587414477 0 -0.71933980857756763 0.69465836192734942 2 0 0 1 I I #
coedge $-1 $418 $418 $-1 $587 reversed $267 $-1 #
edge $-1 $588 0 $588 6.2831853071796004 $268 $589 forward 7 unknown #
vertex $-1 $271 $590 #
ellipse-curve $-1 -23.965963943972028 -35.315005948329855 6.7109763587414477 0 -0.71933980857756763 0.69465836192734942 2 0 0 1 I I #
face $-1 $-1 $591 $60 $-1 $592 reversed single #
loop $-1 $-1 $278 $272 #
plane-surface $-1 0 0 11.115402202798515 0 0 1 1 0 0 forward_v I I I I #
coedge $-1 $593 $594 $595 $596 reversed $273 $-1 #
coedge $-1 $597 $275 $277 $432 forward $172 $-1 #
coedge $-1 $275 $597 $593 $598 forward $172 $-1 #
coedge $-1 $595 $278 $275 $429 forward $423 $-1 #
edge $-1 $435 -25.402521542015183 $599 -8.0539602760123365 $428 $600 forward 7 unknown #
coedge $-1 $601 $602 $276 $431 forward $591 $-1 #
edge $-1 $603 -65.777476870443991 $434 -54.86689774030129 $430 $604 forward 7 unknown #
edge $-1 $435 65.475095849598162 $603 79.136620888905583 $277 $605 forward 7 unknown #
coedge $-1 $278 $595 $601 $606 forward $423 $-1 #
vertex $-1 $431 $607 #
vertex $-1 $279 $608 #
straight-curve $-1 -42.130762451028943 41.461428323832102 11.115402202798514 0 -1 0 I I #
coedge $-1 $437 $437 $-1 $609 reversed $282 $-1 #
edge $-1 $610 0 $610 6.2831853071796004 $283 $611 forward 7 unknown #
vertex $-1 $286 $612 #
ellipse-curve $-1 -37.174030660742417 35.457455015089003 5.6601126377271687 0 0.79863551827123203 0.60181501223851219 1.5 0 0 1 I I #
coedge $-1 $441 $441 $-1 $613 reversed $289 $-1 #
edge $-1 $614 0 $614 6.2831853071796004 $290 $615 forward 7 unknown #
vertex $-1 $293 $616 #
ellipse-curve $-1 -29.738932975312625 35.457455015089003 5.6601126377271687 0 0.79863551827123203 0.60181501223851219 1.5 0 0 1 I I #
face $-1 $-1 $617 $63 $-1 $618 reversed single #
loop $-1 $-1 $300 $294 #
plane-surface $-1 0 0 11.115402202798515 0 0 1 1 0 0 forward_v I I I I #
coedge $-1 $619 $620 $621 $622 reversed $295 $-1 #
coedge $-1 $623 $297 $299 $455 forward $186 $-1 #
coedge $-1 $297 $623 $619 $624 forward $186 $-1 #
coedge $-1 $621 $300 $297 $452 forward $446 $-1 #
edge $-1 $458 -12.269317895015895 $625 5.0792433709869513 $451 $626 forward 7 unknown #
coedge $-1 $627 $628 $298 $454 forward $617 $-1 #
edge $-1 $629 -65.777476870443991 $457 -54.86689774030129 $453 $630 forward 7 unknown #
edge $-1 $458 65.475095849598162 $629 79.136620888905583 $299 $631 forward 7 unknown #
coedge $-1 $300 $621 $627 $632 forward $446 $-1 #
vertex $-1 $301 $633 #
vertex $-1 $301 $634 #
straight-curve $-1 -15.864355157030367 41.461428323832102 11.115402202798514 0 -1 0 I I #
coedge $-1 $460 $460 $-1 $635 reversed $304 $-1 #
edge $-1 $636 0 $636 6.2831853071796004 $305 $637 forward 7 unknown #
vertex $-1 $308 $638 #
ellipse-curve $-1 -10.907623366743849 35.457455015089003 5.6601126377271687 0 0.79863551827123203 0.60181501223851219 1.5 0 0 1 I I #
coedge $-1 $464 $464 $-1 $639 reversed $311 $-1 #
edge $-1 $640 0 $640 6.2831853071796004 $312 $641 forward 7 unknown #
vertex $-1 $315 $642 #
ellipse-curve $-1 -3.4725256813140533 35.457455015089003 5.6601126377271687 0 0.79863551827123203 0.60181501223851219 1.5 0 0 1 I I #
face $-1 $-1 $643 $66 $-1 $644 reversed single #
loop $-1 $-1 $322 $316 #
plane-surface $-1 0 0 11.115402202798515 0 0 1 1 0 0 forward_v I I I I #
coedge $-1 $645 $646 $647 $648 reversed $317 $-1 #
coedge $-1 $649 $319 $321 $478 forward $200 $-1 #
coedge $-1 $319 $649 $645 $650 forward $200 $-1 #
coedge $-1 $647 $322 $319 $475 forward $469 $-1 #
edge $-1 $481 0.86388575198338913 $651 18.212447017986236 $474 $652 forward 7 unknown #
coedge $-1 $653 $654 $320 $477 forward $643 $-1 #
edge $-1 $655 -65.777476870443991 $480 -54.86689774030129 $476 $656 forward 7 unknown #
edge $-1 $481 65.475095849598162 $655 79.136620888905583 $321 $657 forward 7 unknown #
coedge $-1 $322 $647 $653 $658 forward $469 $-1 #
vertex $-1 $323 $659 #
vertex $-1 $323 $660 #
straight-curve $-1 10.402052136968202 41.461428323832102 11.115402202798514 0 -1 0 I I #
coedge $-1 $483 $483 $-1 $661 reversed $326 $-1 #
edge $-1 $662 0 $662 6.2831853071796004 $327 $663 forward 7 unknown #
vertex $-1 $330 $664 #
ellipse-curve $-1 15.35878392725472 35.457455015089003 5.6601126377271687 0 0.79863551827123203 0.60181501223851219 1.5 0 0 1 I I #
coedge $-1 $487 $487 $-1 $665 reversed $333 $-1 #
edge $-1 $666 0 $666 6.2831853071796004 $334 $667 forward 7 unknown #
vertex $-1 $337 $668 #
ellipse-curve $-1 22.793881612684515 35.457455015089003 5.6601126377271687 0 0.79863551827123203 0.60181501223851219 1.5 0 0 1 I I #
face $-1 $-1 $669 $69 $-1 $670 reversed single #
loop $-1 $-1 $344 $338 #
plane-surface $-1 0 0 11.115402202798515 0 0 1 1 0 0 forward_v I I I I #
coedge $-1 $671 $672 $673 $674 reversed $339 $-1 #
coedge $-1 $675 $341 $343 $501 forward $214 $-1 #
coedge $-1 $341 $675 $671 $676 forward $214 $-1 #
coedge $-1 $673 $344 $341 $498 forward $492 $-1 #
edge $-1 $504 13.997089398982673 $677 31.34565066498552 $497 $678 forward 7 unknown #
coedge $-1 $679 $680 $342 $500 forward $669 $-1 #
edge $-1 $681 -65.777476870443991 $503 -54.86689774030129 $499 $682 forward 7 unknown #
edge $-1 $504 65.475095849598162 $681 79.136620888905583 $343 $683 forward 7 unknown #
coedge $-1 $344 $673 $679 $684 forward $492 $-1 #
vertex $-1 $345 $685 #
vertex $-1 $345 $686 #
straight-curve $-1 36.66845943096677 41.461428323832102 11.115402202798514 0 -1 0 I I #
coedge $-1 $506 $506 $-1 $687 reversed $348 $-1 #
edge $-1 $688 0 $688 6.2831853071796004 $349 $689 forward 7 unknown #
vertex $-1 $352 $690 #
ellipse-curve $-1 41.625191221253289 35.457455015089003 5.6601126377271687 0 0.79863551827123203 0.60181501223851219 1.5 0 0 1 I I #
coedge $-1 $510 $510 $-1 $691 reversed $355 $-1 #
edge $-1 $692 0 $692 6.2831853071796004 $356 $693 forward 7 unknown #
vertex $-1 $359 $694 #
ellipse-curve $-1 49.060288906683084 35.457455015089003 5.6601126377271687 0 0.79863551827123203 0.60181501223851219 1.5 0 0 1 I I #
face $-1 $-1 $375 $54 $-1 $695 reversed single #
loop $-1 $-1 $530 $360 #
plane-surface $-1 0 39.568310444452777 0 0 -1 0 0 0 -1 forward_v I I I I #
coedge $-1 $696 $528 $531 $697 forward $361 $-1 #
coedge $-1 $534 $363 $364 $522 reversed $228 $-1 #
coedge $-1 $528 $696 $363 $520 reversed $361 $-1 #
edge $-1 $535 -11.115402202798515 $698 11.115402202798515 $519 $699 forward 7 unknown #
coedge $-1 $365 $364 $696 $700 forward $145 $-1 #
edge $-1 $526 -56.959746086001161 $698 56.959746086001161 $518 $701 forward 7 unknown #
coedge $-1 $531 $530 $365 $524 reversed $515 $-1 #
edge $-1 $702 -56.959746086001161 $525 56.959746086001161 $523 $703 forward 7 unknown #
vertex $-1 $367 $704 #
vertex $-1 $537 $705 #
straight-curve $-1 56.959746086001161 0 -11.115402202798515 0 -1 0 I I #
coedge $-1 $517 $519 $368 $529 reversed $361 $-1 #
edge $-1 $532 -39.568310444452777 $535 39.568310444452777 $528 $706 forward 7 unknown #
coedge $-1 $523 $369 $374 $538 forward $515 $-1 #
coedge $-1 $369 $523 $517 $697 reversed $515 $-1 #
vertex $-1 $370 $707 #
straight-curve $-1 0 39.568310444452777 11.115402202798515 -1 0 0 I I #
coedge $-1 $371 $518 $373 $537 reversed $228 $-1 #
vertex $-1 $529 $708 #
straight-curve $-1 0 -39.568310444452777 11.115402202798515 1 0 0 I I #
edge $-1 $376 -11.115402202798515 $526 11.115402202798515 $373 $709 forward 7 unknown #
edge $-1 $377 -11.115402202798515 $525 11.115402202798515 $374 $710 forward 7 unknown #
point $-1 56.959746086001161 -39.568310444452777 11.115402202798515 #
point $-1 56.959746086001161 39.568310444452777 11.115402202798515 #
face $-1 $-1 $550 $55 $-1 $711 reversed single #
loop $-1 $-1 $547 $379 #
plane-surface $-1 0 0 11.115402202798515 0 0 1 1 0 0 forward_v I I I I #
coedge $-1 $712 $713 $386 $553 forward $380 $-1 #
coedge $-1 $382 $557 $714 $715 reversed $236 $-1 #
edge $-1 $716 -6.3077011013992577 $392 -3.3077011013992577 $382 $717 forward 7 unknown #
coedge $-1 $714 $718 $383 $548 forward $542 $-1 #
edge $-1 $551 -39.568310444452777 $716 39.568310444452777 $547 $719 forward 7 unknown #
coedge $-1 $554 $384 $718 $720 reversed $550 $-1 #
loop $-1 $-1 $384 $541 #
vertex $-1 $385 $721 #
straight-curve $-1 -45.07348784006048 -39.568310444452777 4.8077011013992577 0 0 1 I I #
edge $-1 $558 -39.568310444452777 $555 39.568310444452777 $544 $722 forward 7 unknown #
coedge $-1 $387 $549 $712 $723 forward $550 $-1 #
vertex $-1 $553 $724 #
straight-curve $-1 -25.50830848151541 -39.568310444452777 8.1154022027985153 1 0 0 I I #
coedge $-1 $545 $389 $713 $725 reversed $236 $-1 #
vertex $-1 $553 $726 #
straight-curve $-1 -25.50830848151541 39.568310444452777 8.1154022027985153 -1 0 0 I I #
point $-1 -45.07348784006048 39.568310444452777 8.1154022027985153 #
point $-1 -45.07348784006048 -39.568310444452777 8.1154022027985153 #
loop $-1 $-1 $403 $395 #
plane-surface $-1 0 -39.568310444452777 0 0 1 0 0 0 1 forward_v I I I I #
coedge $-1 $565 $398 $727 $728 reversed $244 $-1 #
coedge $-1 $398 $564 $568 $729 reversed $244 $-1 #
edge $-1 $730 2.0413573615811715e-014 $569 12.245744755226184 $398 $731 forward 7 unknown #
coedge $-1 $400 $399 $572 $732 reversed $153 $-1 #
coedge $-1 $406 $401 $565 $729 forward $396 $-1 #
vertex $-1 $729 $733 #
straight-curve $-1 -15.940642702502599 -31.06170145220694 11.115402202798515 -1 0 0 I I #
coedge $-1 $727 $403 $406 $576 reversed $562 $-1 #
coedge $-1 $403 $727 $567 $732 forward $562 $-1 #
vertex $-1 $404 $734 #
straight-curve $-1 -18.689082969949915 -39.568310444452777 40.720839169241501 0 0 1 I I #
straight-curve $-1 -18.689082969949915 -39.568310444452791 2.3065505146843606 0 -0.69465836192734942 -0.71933980857756763 I I #
edge $-1 $735 -45.07348784006048 $407 -18.689082969949915 $571 $736 forward 7 unknown #
point $-1 -18.689082969949915 -39.568310444452777 11.115402202798515 #
point $-1 -18.689082969949915 -31.06170145220694 11.115402202798515 #
edge $-1 $737 1 $737 0 $410 $-1 forward 7 unknown #
vertex $-1 $411 $738 #
ellipse-curve $-1 -39.796606866038367 -31.672797965863133 3.1937370780430947 0 -0.71933980857756763 0.69465836192734942 2 0 0 1 I I #
point $-1 -37.796606866038367 -35.315005948329855 6.7109763587414406 #
edge $-1 $739 1 $739 0 $414 $-1 forward 7 unknown #
vertex $-1 $415 $740 #
ellipse-curve $-1 -31.881285405005197 -31.672797965863133 3.1937370780430947 0 -0.71933980857756763 0.69465836192734942 2 0 0 1 I I #
point $-1 -29.881285405005197 -35.315005948329855 6.7109763587414406 #
edge $-1 $741 1 $741 0 $418 $-1 forward 7 unknown #
vertex $-1 $419 $742 #
ellipse-curve $-1 -23.965963943972028 -31.672797965863133 3.1937370780430947 0 -0.71933980857756763 0.69465836192734942 2 0 0 1 I I #
point $-1 -21.965963943972028 -35.315005948329855 6.7109763587414406 #
loop $-1 $-1 $430 $422 #
plane-surface $-1 0 39.568310444452777 0 0 -1 0 0 0 -1 forward_v I I I I #
coedge $-1 $594 $425 $427 $598 reversed $273 $-1 #
coedge $-1 $425 $593 $743 $744 reversed $273 $-1 #
coedge $-1 $433 $428 $425 $596 forward $423 $-1 #
edge $-1 $599 -10.114828738106858 $745 -1.8931178793793251 $595 $746 forward 7 unknown #
coedge $-1 $427 $426 $602 $747 reversed $172 $-1 #
edge $-1 $748 -79.136620888905583 $599 -65.475095849598162 $593 $749 forward 7 unknown #
vertex $-1 $429 $750 #
straight-curve $-1 -16.72824090901376 31.34659958572524 11.115402202798521 1 0 0 I I #
coedge $-1 $743 $430 $433 $606 reversed $591 $-1 #
coedge $-1 $430 $743 $597 $747 forward $591 $-1 #
vertex $-1 $431 $751 #
straight-curve $-1 -42.130762451028943 39.568310444452777 65.982299943099804 0 0 1 I I #
straight-curve $-1 -42.130762451028943 -8.0572960243184326 63.406139310500933 0 0.60181501223851219 -0.79863551827123203 I I #
edge $-1 $745 24.782201185026096 $434 42.130762451028943 $601 $752 forward 7 unknown #
point $-1 -42.130762451028943 39.568310444452777 11.115402202798515 #
point $-1 -42.130762451028943 31.346599585725244 11.115402202798514 #
edge $-1 $753 1 $753 0 $437 $-1 forward 7 unknown #
vertex $-1 $438 $754 #
ellipse-curve $-1 -37.174030660742417 33.963367775250596 4.5342371789507618 0 0.79863551827123203 0.60181501223851219 1.5 0 0 1 I I #
point $-1 -35.674030660742417 35.457455015089018 5.6601126377271811 #
edge $-1 $755 1 $755 0 $441 $-1 forward 7 unknown #
vertex $-1 $442 $756 #
ellipse-curve $-1 -29.738932975312625 33.963367775250596 4.5342371789507618 0 0.79863551827123203 0.60181501223851219 1.5 0 0 1 I I #
point $-1 -28.238932975312625 35.457455015089018 5.6601126377271811 #
loop $-1 $-1 $453 $445 #
plane-surface $-1 0 39.568310444452777 0 0 -1 0 0 0 -1 forward_v I I I I #
coedge $-1 $620 $448 $450 $624 reversed $295 $-1 #
coedge $-1 $448 $619 $757 $758 reversed $295 $-1 #
coedge $-1 $456 $451 $448 $622 forward $446 $-1 #
edge $-1 $625 -10.114828738106858 $759 -1.8931178793793251 $621 $760 forward 7 unknown #
coedge $-1 $450 $449 $628 $761 reversed $186 $-1 #
edge $-1 $762 -79.136620888905583 $625 -65.475095849598162 $619 $763 forward 7 unknown #
vertex $-1 $452 $764 #
straight-curve $-1 -3.5950372620144719 31.34659958572524 11.115402202798521 1 0 0 I I #
coedge $-1 $757 $453 $456 $632 reversed $617 $-1 #
coedge $-1 $453 $757 $623 $761 forward $617 $-1 #
vertex $-1 $454 $765 #
straight-curve $-1 -15.864355157030367 39.568310444452777 65.982299943099804 0 0 1 I I #
straight-curve $-1 -15.864355157030367 -8.0572960243184326 63.406139310500933 0 0.60181501223851219 -0.79863551827123203 I I #
edge $-1 $759 -1.4842061089724794 $457 15.864355157030367 $627 $766 forward 7 unknown #
point $-1 -15.864355157030367 39.568310444452777 11.115402202798515 #
point $-1 -15.864355157030367 31.346599585725244 11.115402202798514 #
edge $-1 $767 1 $767 0 $460 $-1 forward 7 unknown #
vertex $-1 $461 $768 #
ellipse-curve $-1 -10.907623366743849 33.963367775250596 4.5342371789507618 0 0.79863551827123203 0.60181501223851219 1.5 0 0 1 I I #
point $-1 -9.4076233667438487 35.457455015089018 5.6601126377271811 #
edge $-1 $769 1 $769 0 $464 $-1 forward 7 unknown #
vertex $-1 $465 $770 #
ellipse-curve $-1 -3.4725256813140533 33.963367775250596 4.5342371789507618 0 0.79863551827123203 0.60181501223851219 1.5 0 0 1 I I #
point $-1 -1.9725256813140533 35.457455015089018 5.6601126377271811 #
loop $-1 $-1 $476 $468 #
plane-surface $-1 0 39.568310444452777 0 0 -1 0 0 0 -1 forward_v I I I I #
coedge $-1 $646 $471 $473 $650 reversed $317 $-1 #
coedge $-1 $471 $645 $771 $772 reversed $317 $-1 #
coedge $-1 $479 $474 $471 $648 forward $469 $-1 #
edge $-1 $651 -10.114828738106858 $773 -1.8931178793793251 $647 $774 forward 7 unknown #
coedge $-1 $473 $472 $654 $775 reversed $200 $-1 #
edge $-1 $776 -79.136620888905583 $651 -65.475095849598162 $645 $777 forward 7 unknown #
vertex $-1 $475 $778 #
straight-curve $-1 9.5381663849848124 31.34659958572524 11.115402202798521 1 0 0 I I #
coedge $-1 $771 $476 $479 $658 reversed $643 $-1 #
coedge $-1 $476 $771 $649 $775 forward $643 $-1 #
vertex $-1 $477 $779 #
straight-curve $-1 10.402052136968202 39.568310444452777 65.982299943099804 0 0 1 I I #
straight-curve $-1 10.402052136968202 -8.0572960243184326 63.406139310500933 0 0.60181501223851219 -0.79863551827123203 I I #
edge $-1 $773 -27.750613402971048 $480 -10.402052136968202 $653 $780 forward 7 unknown #
point $-1 10.402052136968202 39.568310444452777 11.115402202798515 #
point $-1 10.402052136968202 31.346599585725244 11.115402202798514 #
edge $-1 $781 1 $781 0 $483 $-1 forward 7 unknown #
vertex $-1 $484 $782 #
ellipse-curve $-1 15.35878392725472 33.963367775250596 4.5342371789507618 0 0.79863551827123203 0.60181501223851219 1.5 0 0 1 I I #
point $-1 16.85878392725472 35.457455015089018 5.6601126377271811 #
edge $-1 $783 1 $783 0 $487 $-1 forward 7 unknown #
vertex $-1 $488 $784 #
ellipse-curve $-1 22.793881612684515 33.963367775250596 4.5342371789507618 0 0.79863551827123203 0.60181501223851219 1.5 0 0 1 I I #
point $-1 24.293881612684515 35.457455015089018 5.6601126377271811 #
loop $-1 $-1 $499 $491 #
plane-surface $-1 0 39.568310444452777 0 0 -1 0 0 0 -1 forward_v I I I I #
coedge $-1 $672 $494 $496 $676 reversed $339 $-1 #
coedge $-1 $494 $671 $785 $786 reversed $339 $-1 #
coedge $-1 $502 $497 $494 $674 forward $492 $-1 #
edge $-1 $677 -10.114828738106858 $787 -1.8931178793793251 $673 $788 forward 7 unknown #
coedge $-1 $496 $495 $680 $789 reversed $214 $-1 #
edge $-1 $790 -79.136620888905583 $677 -65.475095849598162 $671 $791 forward 7 unknown #
vertex $-1 $498 $792 #
straight-curve $-1 22.671370031984097 31.34659958572524 11.115402202798521 1 0 0 I I #
coedge $-1 $785 $499 $502 $684 reversed $669 $-1 #
coedge $-1 $499 $785 $675 $789 forward $669 $-1 #
vertex $-1 $500 $793 #
straight-curve $-1 36.66845943096677 39.568310444452777 65.982299943099804 0 0 1 I I #
straight-curve $-1 36.66845943096677 -8.0572960243184326 63.406139310500933 0 0.60181501223851219 -0.79863551827123203 I I #
edge $-1 $787 -54.017020696969617 $503 -36.66845943096677 $679 $794 forward 7 unknown #
point $-1 36.66845943096677 39.568310444452777 11.115402202798515 #
point $-1 36.66845943096677 31.346599585725244 11.115402202798514 #
edge $-1 $795 1 $795 0 $506 $-1 forward 7 unknown #
vertex $-1 $507 $796 #
ellipse-curve $-1 41.625191221253289 33.963367775250596 4.5342371789507618 0 0.79863551827123203 0.60181501223851219 1.5 0 0 1 I I #
point $-1 43.125191221253289 35.457455015089018 5.6601126377271811 #
edge $-1 $797 1 $797 0 $510 $-1 forward 7 unknown #
vertex $-1 $511 $798 #
ellipse-curve $-1 49.060288906683084 33.963367775250596 4.5342371789507618 0 0.79863551827123203 0.60181501223851219 1.5 0 0 1 I I #
point $-1 50.560288906683084 35.457455015089018 5.6601126377271811 #
plane-surface $-1 56.959746086001161 0 0 -1 0 0 0 0 1 forward_v I I I I #
coedge $-1 $519 $517 $521 $700 reversed $361 $-1 #
edge $-1 $532 -11.115402202798515 $702 11.115402202798515 $531 $799 forward 7 unknown #
vertex $-1 $700 $800 #
straight-curve $-1 -56.959746086001161 -39.568310444452777 0 0 0 -1 I I #
edge $-1 $698 -39.568310444452777 $702 39.568310444452777 $696 $801 forward 7 unknown #
straight-curve $-1 0 -39.568310444452777 -11.115402202798515 -1 0 0 I I #
vertex $-1 $524 $802 #
straight-curve $-1 0 39.568310444452777 -11.115402202798515 1 0 0 I I #
point $-1 56.959746086001161 39.568310444452777 -11.115402202798515 #
point $-1 56.959746086001161 -39.568310444452777 -11.115402202798515 #
straight-curve $-1 -56.959746086001161 0 11.115402202798515 0 -1 0 I I #
point $-1 -56.959746086001161 39.568310444452777 11.115402202798515 #
point $-1 -56.959746086001161 -39.568310444452777 11.115402202798515 #
straight-curve $-1 56.959746086001161 -39.568310444452777 0 0 0 -1 I I #
straight-curve $-1 56.959746086001161 39.568310444452777 0 0 0 -1 I I #
plane-surface $-1 0 -39.568310444452777 0 0 1 0 0 0 1 forward_v I I I I #
coedge $-1 $803 $544 $554 $723 reversed $380 $-1 #
coedge $-1 $544 $803 $557 $725 forward $380 $-1 #
coedge $-1 $804 $547 $545 $715 forward $542 $-1 #
edge $-1 $716 45.07348784006048 $805 56.959746086001161 $545 $806 forward 7 unknown #
vertex $-1 $715 $807 #
straight-curve $-1 -45.07348784006048 39.568310444452777 4.8077011013992577 0 0 -1 I I #
coedge $-1 $547 $804 $549 $720 forward $542 $-1 #
straight-curve $-1 -45.07348784006048 0 11.115402202798515 0 1 0 I I #
edge $-1 $808 -56.959746086001161 $551 -45.07348784006048 $549 $809 forward 7 unknown #
point $-1 -45.07348784006048 -39.568310444452777 11.115402202798515 #
straight-curve $-1 -56.959746086001161 0 8.1154022027985153 0 -1 0 I I #
edge $-1 $808 -11.115402202798515 $555 -8.1154022027985153 $712 $810 forward 7 unknown #
point $-1 -56.959746086001161 -39.568310444452777 8.1154022027985153 #
edge $-1 $805 -11.115402202798515 $558 -8.1154022027985153 $557 $811 forward 7 unknown #
point $-1 -56.959746086001161 39.568310444452777 8.1154022027985153 #
coedge $-1 $572 $571 $564 $728 forward $562 $-1 #
edge $-1 $735 29.605436966442987 $730 38.414288654557126 $727 $812 forward 7 unknown #
edge $-1 $569 31.06170145220694 $735 39.568310444452777 $568 $813 forward 7 unknown #
vertex $-1 $728 $814 #
straight-curve $-1 -45.07348784006048 -39.568310444452791 2.3065505146843606 0 0.69465836192734942 0.71933980857756763 I I #
edge $-1 $730 -29.132845137557879 $573 -2.7484402674473163 $572 $815 forward 7 unknown #
point $-1 -45.07348784006048 -31.06170145220694 11.115402202798515 #
point $-1 -18.689082969949915 -39.568310444452777 2.3065505146843752 #
vertex $-1 $576 $816 #
straight-curve $-1 0 -39.568310444452777 11.115402202798515 1 0 0 I I #
vertex $-1 $579 $817 #
point $-1 -37.796606866038367 -31.672797965863133 3.1937370780430947 #
vertex $-1 $583 $818 #
point $-1 -29.881285405005197 -31.672797965863133 3.1937370780430947 #
vertex $-1 $587 $819 #
point $-1 -21.965963943972028 -31.672797965863133 3.1937370780430947 #
coedge $-1 $602 $601 $594 $744 forward $591 $-1 #
edge $-1 $745 54.86689774030129 $748 65.777476870443991 $743 $820 forward 7 unknown #
vertex $-1 $606 $821 #
straight-curve $-1 -24.782201185026096 41.461428323832102 11.115402202798514 0 1 0 I I #
edge $-1 $748 8.0539602760123365 $603 25.402521542015183 $602 $822 forward 7 unknown #
vertex $-1 $747 $823 #
straight-curve $-1 -24.782201185026096 -8.0572960243184326 63.406139310500933 0 -0.60181501223851219 0.79863551827123203 I I #
point $-1 -24.782201185026096 31.346599585725244 11.115402202798514 #
point $-1 -42.130762451028943 39.568310444452777 0.20482307265581312 #
straight-curve $-1 0 39.568310444452777 11.115402202798515 -1 0 0 I I #
vertex $-1 $609 $824 #
point $-1 -35.674030660742417 33.963367775250596 4.5342371789507618 #
vertex $-1 $613 $825 #
point $-1 -28.238932975312625 33.963367775250596 4.5342371789507618 #
coedge $-1 $628 $627 $620 $758 forward $617 $-1 #
edge $-1 $759 54.86689774030129 $762 65.777476870443991 $757 $826 forward 7 unknown #
vertex $-1 $632 $827 #
straight-curve $-1 1.4842061089724794 41.461428323832102 11.115402202798514 0 1 0 I I #
edge $-1 $762 -5.0792433709869513 $629 12.269317895015895 $628 $828 forward 7 unknown #
vertex $-1 $761 $829 #
straight-curve $-1 1.4842061089724794 -8.0572960243184326 63.406139310500933 0 -0.60181501223851219 0.79863551827123203 I I #
point $-1 1.4842061089724794 31.346599585725244 11.115402202798514 #
point $-1 -15.864355157030367 39.568310444452777 0.20482307265581312 #
straight-curve $-1 0 39.568310444452777 11.115402202798515 -1 0 0 I I #
vertex $-1 $635 $830 #
point $-1 -9.4076233667438487 33.963367775250596 4.5342371789507618 #
vertex $-1 $639 $831 #
point $-1 -1.9725256813140533 33.963367775250596 4.5342371789507618 #
coedge $-1 $654 $653 $646 $772 forward $643 $-1 #
edge $-1 $773 54.86689774030129 $776 65.777476870443991 $771 $832 forward 7 unknown #
vertex $-1 $658 $833 #
straight-curve $-1 27.750613402971048 41.461428323832102 11.115402202798514 0 1 0 I I #
edge $-1 $776 -18.212447017986236 $655 -0.86388575198338913 $654 $834 forward 7 unknown #
vertex $-1 $775 $835 #
straight-curve $-1 27.750613402971048 -8.0572960243184326 63.406139310500933 0 -0.60181501223851219 0.79863551827123203 I I #
point $-1 27.750613402971048 31.346599585725244 11.115402202798514 #
point $-1 10.402052136968202 39.568310444452777 0.20482307265581312 #
straight-curve $-1 0 39.568310444452777 11.115402202798515 -1 0 0 I I #
vertex $-1 $661 $836 #
point $-1 16.85878392725472 33.963367775250596 4.5342371789507618 #
vertex $-1 $665 $837 #
point $-1 24.293881612684515 33.963367775250596 4.5342371789507618 #
coedge $-1 $680 $679 $672 $786 forward $669 $-1 #
edge $-1 $787 54.86689774030129 $790 65.777476870443991 $785 $838 forward 7 unknown #
vertex $-1 $684 $839 #
straight-curve $-1 54.017020696969617 41.461428323832102 11.115402202798514 0 1 0 I I #
edge $-1 $790 -31.34565066498552 $681 -13.997089398982673 $680 $840 forward 7 unknown #
vertex $-1 $789 $841 #
straight-curve $-1 54.017020696969617 -8.0572960243184326 63.406139310500933 0 -0.60181501223851219 0.79863551827123203 I I #
point $-1 54.017020696969617 31.346599585725244 11.115402202798514 #
point $-1 36.66845943096677 39.568310444452777 0.20482307265581312 #
straight-curve $-1 0 39.568310444452777 11.115402202798515 -1 0 0 I I #
vertex $-1 $687 $842 #
point $-1 43.125191221253289 33.963367775250596 4.5342371789507618 #
vertex $-1 $691 $843 #
point $-1 50.560288906683084 33.963367775250596 4.5342371789507618 #
straight-curve $-1 -56.959746086001161 39.568310444452777 0 0 0 -1 I I #
point $-1 -56.959746086001161 -39.568310444452777 -11.115402202798515 #
straight-curve $-1 -56.959746086001161 0 -11.115402202798515 0 1 0 I I #
point $-1 -56.959746086001161 39.568310444452777 -11.115402202798515 #
coedge $-1 $713 $712 $804 $844 reversed $380 $-1 #
coedge $-1 $718 $714 $803 $844 forward $542 $-1 #
vertex $-1 $715 $845 #
straight-curve $-1 0 39.568310444452777 11.115402202798515 -1 0 0 I I #
point $-1 -45.07348784006048 39.568310444452777 11.115402202798515 #
vertex $-1 $844 $846 #
straight-curve $-1 0 -39.568310444452777 11.115402202798515 1 0 0 I I #
straight-curve $-1 -56.959746086001161 -39.568310444452777 0 0 0 -1 I I #
straight-curve $-1 -56.959746086001161 39.568310444452777 0 0 0 -1 I I #
straight-curve $-1 -45.07348784006048 -39.568310444452777 40.720839169241501 0 0 -1 I I #
straight-curve $-1 -45.07348784006048 0 11.115402202798515 0 -1 0 I I #
point $-1 -45.07348784006048 -39.568310444452777 2.3065505146843752 #
straight-curve $-1 -15.940642702502599 -39.568310444452777 2.3065505146843726 1 0 0 I I #
point $-1 -45.07348784006048 -39.568310444452777 11.115402202798515 #
point $-1 -39.796606866038367 -30.234118348707995 1.8044203541883959 #
point $-1 -31.881285405005197 -30.234118348707995 1.8044203541883959 #
point $-1 -23.965963943972028 -30.234118348707995 1.8044203541883959 #
straight-curve $-1 -24.782201185026096 39.568310444452777 65.982299943099804 0 0 -1 I I #
point $-1 -24.782201185026096 39.568310444452777 11.115402202798515 #
straight-curve $-1 -16.72824090901376 39.568310444452777 0.20482307265581667 -1 0 0 I I #
point $-1 -24.782201185026096 39.568310444452777 0.20482307265581312 #
point $-1 -37.174030660742417 32.765414497843743 3.6315146605929938 #
point $-1 -29.738932975312625 32.765414497843743 3.6315146605929938 #
straight-curve $-1 1.4842061089724794 39.568310444452777 65.982299943099804 0 0 -1 I I #
point $-1 1.4842061089724794 39.568310444452777 11.115402202798515 #
straight-curve $-1 -3.5950372620144719 39.568310444452777 0.20482307265581667 -1 0 0 I I #
point $-1 1.4842061089724794 39.568310444452777 0.20482307265581312 #
point $-1 -10.907623366743849 32.765414497843743 3.6315146605929938 #
point $-1 -3.4725256813140533 32.765414497843743 3.6315146605929938 #
straight-curve $-1 27.750613402971048 39.568310444452777 65.982299943099804 0 0 -1 I I #
point $-1 27.750613402971048 39.568310444452777 11.115402202798515 #
straight-curve $-1 9.5381663849848124 39.568310444452777 0.20482307265581667 -1 0 0 I I #
point $-1 27.750613402971048 39.568310444452777 0.20482307265581312 #
point $-1 15.35878392725472 32.765414497843743 3.6315146605929938 #
point $-1 22.793881612684515 32.765414497843743 3.6315146605929938 #
straight-curve $-1 54.017020696969617 39.568310444452777 65.982299943099804 0 0 -1 I I #
point $-1 54.017020696969617 39.568310444452777 11.115402202798515 #
straight-curve $-1 22.671370031984097 39.568310444452777 0.20482307265581667 -1 0 0 I I #
point $-1 54.017020696969617 39.568310444452777 0.20482307265581312 #
point $-1 41.625191221253289 32.765414497843743 3.6315146605929938 #
point $-1 49.060288906683084 32.765414497843743 3.6315146605929938 #
edge $-1 $805 -39.568310444452777 $808 39.568310444452777 $803 $847 forward 7 unknown #
point $-1 -56.959746086001161 39.568310444452777 11.115402202798515 #
point $-1 -56.959746086001161 -39.568310444452777 11.115402202798515 #
straight-curve $-1 -56.959746086001161 0 11.115402202798515 0 -1 0 I I #
End-of-ACIS-data 