500 0 16 0           
7 Unknown 11 ACIS 5.0 NT 24 Thu Mar 25 18:28:55 1999 
-1 9.9999999999999995e-007 1e-010 
body $-1 $16 $-1 $17 #
body $-1 $18 $-1 $19 #
body $-1 $20 $-1 $21 #
body $-1 $22 $-1 $23 #
body $-1 $24 $-1 $25 #
body $-1 $26 $-1 $27 #
body $-1 $28 $-1 $29 #
body $-1 $30 $-1 $31 #
body $-1 $32 $-1 $33 #
body $-1 $34 $-1 $35 #
body $-1 $36 $-1 $37 #
body $-1 $38 $-1 $39 #
body $-1 $40 $-1 $41 #
body $-1 $42 $-1 $43 #
body $-1 $44 $-1 $45 #
body $-1 $46 $-1 $47 #
lump $-1 $-1 $48 $0 #
transform $-1 1 0 0 0 1 0 0 0 1 50.22614215521714 31.464799580760786 8.4901280402019257 1 rotate no_reflect no_shear #
lump $-1 $-1 $49 $1 #
transform $-1 1 0 0 0 1 0 0 0 1 50.22614215521714 31.464799580760786 8.4901280402019257 1 rotate no_reflect no_shear #
lump $-1 $-1 $50 $2 #
transform $-1 1 0 0 0 1 0 0 0 1 50.22614215521714 31.464799580760786 8.4901280402019257 1 rotate no_reflect no_shear #
lump $-1 $-1 $51 $3 #
transform $-1 1 0 0 0 1 0 0 0 1 50.22614215521714 31.464799580760786 8.4901280402019257 1 rotate no_reflect no_shear #
lump $-1 $-1 $52 $4 #
transform $-1 1 0 0 0 1 0 0 0 1 50.22614215521714 31.464799580760786 8.4901280402019257 1 rotate no_reflect no_shear #
lump $-1 $-1 $53 $5 #
transform $-1 1 0 0 0 1 0 0 0 1 50.22614215521714 31.464799580760786 8.4901280402019257 1 rotate no_reflect no_shear #
lump $-1 $-1 $54 $6 #
transform $-1 1 0 0 0 1 0 0 0 1 50.22614215521714 31.464799580760786 8.4901280402019257 1 rotate no_reflect no_shear #
lump $-1 $-1 $55 $7 #
transform $-1 1 0 0 0 1 0 0 0 1 50.22614215521714 31.464799580760786 8.4901280402019257 1 rotate no_reflect no_shear #
lump $-1 $-1 $56 $8 #
transform $-1 1 0 0 0 1 0 0 0 1 50.22614215521714 31.464799580760786 8.4901280402019257 1 rotate no_reflect no_shear #
lump $-1 $-1 $57 $9 #
transform $-1 1 0 0 0 1 0 0 0 1 50.22614215521714 31.464799580760786 8.4901280402019257 1 rotate no_reflect no_shear #
lump $-1 $-1 $58 $10 #
transform $-1 1 0 0 0 1 0 0 0 1 50.22614215521714 31.464799580760786 8.4901280402019257 1 rotate no_reflect no_shear #
lump $-1 $-1 $59 $11 #
transform $-1 1 0 0 0 1 0 0 0 1 50.22614215521714 31.464799580760786 8.4901280402019257 1 rotate no_reflect no_shear #
lump $-1 $-1 $60 $12 #
transform $-1 1 0 0 0 1 0 0 0 1 50.22614215521714 31.464799580760786 8.4901280402019257 1 rotate no_reflect no_shear #
lump $-1 $-1 $61 $13 #
transform $-1 1 0 0 0 1 0 0 0 1 50.22614215521714 31.464799580760786 8.4901280402019257 1 rotate no_reflect no_shear #
lump $-1 $-1 $62 $14 #
transform $-1 1 0 0 0 1 0 0 0 1 50.22614215521714 31.464799580760786 8.4901280402019257 1 rotate no_reflect no_shear #
lump $-1 $-1 $63 $15 #
transform $-1 1 0 0 0 1 0 0 0 1 50.22614215521714 31.464799580760786 8.4901280402019257 1 rotate no_reflect no_shear #
shell $-1 $-1 $-1 $64 $-1 $16 #
shell $-1 $-1 $-1 $65 $-1 $18 #
shell $-1 $-1 $-1 $66 $-1 $20 #
shell $-1 $-1 $-1 $67 $-1 $22 #
shell $-1 $-1 $-1 $68 $-1 $24 #
shell $-1 $-1 $-1 $69 $-1 $26 #
shell $-1 $-1 $-1 $70 $-1 $28 #
shell $-1 $-1 $-1 $71 $-1 $30 #
shell $-1 $-1 $-1 $72 $-1 $32 #
shell $-1 $-1 $-1 $73 $-1 $34 #
shell $-1 $-1 $-1 $74 $-1 $36 #
shell $-1 $-1 $-1 $75 $-1 $38 #
shell $-1 $-1 $-1 $76 $-1 $40 #
shell $-1 $-1 $-1 $77 $-1 $42 #
shell $-1 $-1 $-1 $78 $-1 $44 #
shell $-1 $-1 $-1 $79 $-1 $46 #
face $-1 $80 $81 $48 $-1 $82 forward single #
face $-1 $83 $84 $49 $-1 $85 forward single #
face $-1 $86 $87 $50 $-1 $88 reversed single #
face $-1 $89 $90 $51 $-1 $91 forward single #
face $-1 $92 $93 $52 $-1 $94 forward single #
face $-1 $95 $96 $53 $-1 $97 reversed single #
face $-1 $98 $99 $54 $-1 $100 forward single #
face $-1 $101 $102 $55 $-1 $103 forward single #
face $-1 $104 $105 $56 $-1 $106 reversed single #
face $-1 $107 $108 $57 $-1 $109 forward single #
face $-1 $110 $111 $58 $-1 $112 reversed single #
face $-1 $113 $114 $59 $-1 $115 forward single #
face $-1 $116 $117 $60 $-1 $118 reversed single #
face $-1 $119 $120 $61 $-1 $121 forward single #
face $-1 $122 $123 $62 $-1 $124 reversed single #
face $-1 $125 $126 $63 $-1 $127 forward single #
face $-1 $128 $129 $48 $-1 $130 reversed single #
loop $-1 $-1 $131 $64 #
plane-surface $-1 0 0 8.4901280402019257 0 0 1 1 0 0 forward_v I I I I #
face $-1 $132 $133 $49 $-1 $134 reversed single #
loop $-1 $-1 $135 $65 #
plane-surface $-1 -46.964126500377752 0 -0.22994542106250426 0 0 1 1 0 0 forward_v I I I I #
face $-1 $136 $137 $50 $-1 $138 reversed single #
loop $-1 $-1 $139 $66 #
plane-surface $-1 -34.564806524844094 47.827414765633122 121.38998843851657 1 0 0 0 -0.64278761758704617 -0.76604443648966558 forward_v I I I I #
face $-1 $140 $141 $51 $-1 $142 forward single #
loop $-1 $143 $144 $67 #
cone-surface $-1 -28.257494994653719 27.012115058676457 4.1295460980176237 0 -0.64278761758704617 -0.76604443648966558 1.5 0 0 1 I I 0 1 1.5 forward I I I I #
face $-1 $145 $146 $52 $-1 $147 forward single #
loop $-1 $148 $149 $68 #
cone-surface $-1 -18.796527699368156 27.012115058676457 4.1295460980176237 0 -0.64278761758704617 -0.76604443648966558 1.5 0 0 1 I I 0 1 1.5 forward I I I I #
face $-1 $150 $151 $53 $-1 $152 reversed single #
loop $-1 $-1 $153 $69 #
plane-surface $-1 12.399319975533651 47.827414765633122 121.38998843851657 1 0 0 0 -0.64278761758704617 -0.76604443648966558 forward_v I I I I #
face $-1 $154 $155 $54 $-1 $156 forward single #
loop $-1 $157 $158 $70 #
cone-surface $-1 18.706631505724026 27.012115058676457 4.1295460980176237 0 -0.64278761758704617 -0.76604443648966558 1.5 0 0 1 I I 0 1 1.5 forward I I I I #
face $-1 $159 $160 $55 $-1 $161 forward single #
loop $-1 $162 $163 $71 #
cone-surface $-1 28.167598801009596 27.012115058676457 4.1295460980176237 0 -0.64278761758704617 -0.76604443648966558 1.5 0 0 1 I I 0 1 1.5 forward I I I I #
face $-1 $164 $165 $56 $-1 $166 reversed single #
loop $-1 $-1 $167 $72 #
plane-surface $-1 -23.687157404769106 -110.62228067091768 67.235371076201659 -1 0 0 0 -0.78801076186113728 0.61566146476048833 forward_v I I I I #
face $-1 $168 $169 $57 $-1 $170 forward single #
loop $-1 $171 $172 $73 #
cone-surface $-1 -29.828848873735023 -29.687393338041367 6.4977224474387416 0 0.78801076186113728 -0.61566146476048833 0.5 0 0 1 I I 0 1 0.5 forward I I I I #
face $-1 $173 $174 $58 $-1 $175 reversed single #
loop $-1 $-1 $176 $74 #
plane-surface $-1 -1.6265810523861646 -110.62228067091768 67.235371076201659 -1 0 0 0 -0.78801076186113728 0.61566146476048833 forward_v I I I I #
face $-1 $177 $178 $59 $-1 $179 forward single #
loop $-1 $180 $181 $75 #
cone-surface $-1 -7.7682725213520811 -29.687393338041367 6.4977224474387416 0 0.78801076186113728 -0.61566146476048833 0.5 0 0 1 I I 0 1 0.5 forward I I I I #
face $-1 $182 $183 $60 $-1 $184 reversed single #
loop $-1 $-1 $185 $76 #
plane-surface $-1 20.433995299996774 -110.62228067091768 67.235371076201659 -1 0 0 0 -0.78801076186113728 0.61566146476048833 forward_v I I I I #
face $-1 $186 $187 $61 $-1 $188 forward single #
loop $-1 $189 $190 $77 #
cone-surface $-1 14.292303831030857 -29.687393338041367 6.4977224474387416 0 0.78801076186113728 -0.61566146476048833 0.5 0 0 1 I I 0 1 0.5 forward I I I I #
face $-1 $191 $192 $62 $-1 $193 reversed single #
loop $-1 $-1 $194 $78 #
plane-surface $-1 42.494571652379712 -110.62228067091768 67.235371076201659 -1 0 0 0 -0.78801076186113728 0.61566146476048833 forward_v I I I I #
face $-1 $195 $196 $63 $-1 $197 forward single #
loop $-1 $198 $199 $79 #
cone-surface $-1 36.352880183413795 -29.687393338041367 6.4977224474387416 0 0.78801076186113728 -0.61566146476048833 0.5 0 0 1 I I 0 1 0.5 forward I I I I #
face $-1 $200 $201 $48 $-1 $202 reversed single #
loop $-1 $-1 $203 $80 #
plane-surface $-1 0 0 -8.4901280402019257 0 0 1 1 0 0 forward_v I I I I #
coedge $-1 $204 $205 $206 $207 forward $81 $-1 #
face $-1 $208 $209 $49 $-1 $210 reversed single #
loop $-1 $-1 $211 $83 #
plane-surface $-1 -46.964126500377752 0 -3.7798538114427793 0 0 1 1 0 0 forward_v I I I I #
coedge $-1 $212 $213 $214 $215 forward $84 $-1 #
face $-1 $216 $217 $50 $-1 $218 reversed single #
loop $-1 $-1 $219 $86 #
plane-surface $-1 -23.527011347010934 -16.742069747447545 44.439074909830268 0 0.64278761758704617 0.76604443648966558 1 0 0 forward_v I I I I #
coedge $-1 $220 $221 $222 $223 reversed $87 $-1 #
face $-1 $-1 $224 $51 $-1 $225 forward single #
loop $-1 $226 $227 $89 #
cone-surface $-1 -28.257494994653719 24.75963164524202 1.4451409540230227 0 -0.64278761758704617 -0.76604443648966558 0.75 0 0 1 I I -0.70710678118654757 0.70710678118654757 0.75 forward I I I I #
loop $-1 $-1 $228 $67 #
coedge $-1 $144 $144 $229 $230 reversed $90 $-1 #
face $-1 $-1 $231 $52 $-1 $232 forward single #
loop $-1 $233 $234 $92 #
cone-surface $-1 -18.796527699368156 24.75963164524202 1.4451409540230227 0 -0.64278761758704617 -0.76604443648966558 0.75 0 0 1 I I -0.70710678118654757 0.70710678118654757 0.75 forward I I I I #
loop $-1 $-1 $235 $68 #
coedge $-1 $149 $149 $236 $237 reversed $93 $-1 #
face $-1 $238 $239 $53 $-1 $240 reversed single #
loop $-1 $-1 $241 $95 #
plane-surface $-1 23.437115153366811 -16.742069747447545 44.439074909830268 0 0.64278761758704617 0.76604443648966558 1 0 0 forward_v I I I I #
coedge $-1 $242 $243 $244 $245 reversed $96 $-1 #
face $-1 $-1 $246 $54 $-1 $247 forward single #
loop $-1 $248 $249 $98 #
cone-surface $-1 18.706631505724026 24.75963164524202 1.4451409540230227 0 -0.64278761758704617 -0.76604443648966558 0.75 0 0 1 I I -0.70710678118654757 0.70710678118654757 0.75 forward I I I I #
loop $-1 $-1 $250 $70 #
coedge $-1 $158 $158 $251 $252 reversed $99 $-1 #
face $-1 $-1 $253 $55 $-1 $254 forward single #
loop $-1 $255 $256 $101 #
cone-surface $-1 28.167598801009596 24.75963164524202 1.4451409540230227 0 -0.64278761758704617 -0.76604443648966558 0.75 0 0 1 I I -0.70710678118654757 0.70710678118654757 0.75 forward I I I I #
loop $-1 $-1 $257 $71 #
coedge $-1 $163 $163 $258 $259 reversed $102 $-1 #
face $-1 $260 $261 $56 $-1 $262 reversed single #
loop $-1 $-1 $263 $104 #
plane-surface $-1 -29.828848873735023 -31.464799580760797 5.3907705791026714 0 -0.78801076186113728 0.61566146476048833 1 0 0 forward_v I I I I #
coedge $-1 $264 $265 $266 $267 reversed $105 $-1 #
face $-1 $-1 $268 $57 $-1 $269 forward single #
loop $-1 $270 $271 $107 #
cone-surface $-1 -29.828848873735023 -28.923726089278588 5.9010802190350695 0 0.78801076186113728 -0.61566146476048833 0.25 0 0 1 I I -0.70710678118654746 0.70710678118654746 0.25 forward I I I I #
loop $-1 $-1 $272 $73 #
coedge $-1 $172 $172 $273 $274 reversed $108 $-1 #
face $-1 $275 $276 $58 $-1 $277 reversed single #
loop $-1 $-1 $278 $110 #
plane-surface $-1 -7.7682725213520811 -31.464799580760797 5.3907705791026714 0 -0.78801076186113728 0.61566146476048833 1 0 0 forward_v I I I I #
coedge $-1 $279 $280 $281 $282 reversed $111 $-1 #
face $-1 $-1 $283 $59 $-1 $284 forward single #
loop $-1 $285 $286 $113 #
cone-surface $-1 -7.7682725213520811 -28.923726089278588 5.9010802190350695 0 0.78801076186113728 -0.61566146476048833 0.25 0 0 1 I I -0.70710678118654746 0.70710678118654746 0.25 forward I I I I #
loop $-1 $-1 $287 $75 #
coedge $-1 $181 $181 $288 $289 reversed $114 $-1 #
face $-1 $290 $291 $60 $-1 $292 reversed single #
loop $-1 $-1 $293 $116 #
plane-surface $-1 14.292303831030857 -31.464799580760797 5.3907705791026714 0 -0.78801076186113728 0.61566146476048833 1 0 0 forward_v I I I I #
coedge $-1 $294 $295 $296 $297 reversed $117 $-1 #
face $-1 $-1 $298 $61 $-1 $299 forward single #
loop $-1 $300 $301 $119 #
cone-surface $-1 14.292303831030857 -28.923726089278588 5.9010802190350695 0 0.78801076186113728 -0.61566146476048833 0.25 0 0 1 I I -0.70710678118654746 0.70710678118654746 0.25 forward I I I I #
loop $-1 $-1 $302 $77 #
coedge $-1 $190 $190 $303 $304 reversed $120 $-1 #
face $-1 $305 $306 $62 $-1 $307 reversed single #
loop $-1 $-1 $308 $122 #
plane-surface $-1 36.352880183413795 -31.464799580760797 5.3907705791026714 0 -0.78801076186113728 0.61566146476048833 1 0 0 forward_v I I I I #
coedge $-1 $309 $310 $311 $312 reversed $123 $-1 #
face $-1 $-1 $313 $63 $-1 $314 forward single #
loop $-1 $315 $316 $125 #
cone-surface $-1 36.352880183413795 -28.923726089278588 5.9010802190350695 0 0.78801076186113728 -0.61566146476048833 0.25 0 0 1 I I -0.70710678118654746 0.70710678118654746 0.25 forward I I I I #
loop $-1 $-1 $317 $79 #
coedge $-1 $199 $199 $318 $319 reversed $126 $-1 #
face $-1 $320 $321 $48 $-1 $322 reversed single #
loop $-1 $-1 $323 $128 #
plane-surface $-1 0 -31.464799580760786 0 0 1 0 0 0 1 forward_v I I I I #
coedge $-1 $324 $325 $326 $327 forward $129 $-1 #
coedge $-1 $328 $131 $329 $330 forward $81 $-1 #
coedge $-1 $131 $328 $331 $332 forward $81 $-1 #
coedge $-1 $333 $334 $131 $207 reversed $335 $-1 #
edge $-1 $336 -31.464799580760786 $337 31.464799580760786 $206 $338 forward 7 unknown #
face $-1 $339 $340 $49 $-1 $341 reversed single #
loop $-1 $-1 $342 $132 #
plane-surface $-1 -43.702110845538364 0 -2.0048996162526418 -1 0 0 0 0 1 forward_v I I I I #
coedge $-1 $343 $344 $345 $346 forward $133 $-1 #
coedge $-1 $347 $135 $348 $349 reversed $84 $-1 #
coedge $-1 $135 $347 $350 $351 reversed $84 $-1 #
coedge $-1 $342 $352 $135 $215 reversed $209 $-1 #
edge $-1 $353 -31.464799580760786 $354 31.464799580760786 $214 $355 forward 7 unknown #
face $-1 $356 $357 $50 $-1 $358 forward single #
loop $-1 $-1 $359 $136 #
plane-surface $-1 -12.489216169177773 47.827414765633122 121.38998843851657 -1 0 0 0 0.64278761758704617 0.76604443648966558 forward_v I I I I #
coedge $-1 $360 $361 $362 $363 reversed $137 $-1 #
coedge $-1 $221 $139 $364 $365 reversed $87 $-1 #
coedge $-1 $139 $220 $360 $366 reversed $87 $-1 #
coedge $-1 $362 $367 $139 $223 forward $357 $-1 #
edge $-1 $368 -7.5510921979442251 $369 -2.1865085542639022 $222 $370 forward 7 unknown #
loop $-1 $-1 $229 $140 #
plane-surface $-1 -23.527011347010934 -16.742069747447545 44.439074909830268 0 0.64278761758704617 0.76604443648966558 1 0 0 forward_v I I I I #
loop $-1 $-1 $371 $89 #
coedge $-1 $227 $227 $228 $372 reversed $141 $-1 #
coedge $-1 $228 $228 $227 $372 forward $143 $-1 #
coedge $-1 $229 $229 $144 $230 forward $224 $-1 #
edge $-1 $373 -5.8386158202769635e-016 $373 6.2831853071795996 $229 $374 forward 7 unknown #
loop $-1 $-1 $236 $145 #
plane-surface $-1 -23.527011347010934 -16.742069747447545 44.439074909830268 0 0.64278761758704617 0.76604443648966558 1 0 0 forward_v I I I I #
loop $-1 $-1 $375 $92 #
coedge $-1 $234 $234 $235 $376 reversed $146 $-1 #
coedge $-1 $235 $235 $234 $376 forward $148 $-1 #
coedge $-1 $236 $236 $149 $237 forward $231 $-1 #
edge $-1 $377 -5.8386158202769635e-016 $377 6.2831853071795996 $236 $378 forward 7 unknown #
face $-1 $379 $380 $53 $-1 $381 forward single #
loop $-1 $-1 $382 $150 #
plane-surface $-1 34.474910331199972 47.827414765633122 121.38998843851657 -1 0 0 0 0.64278761758704617 0.76604443648966558 forward_v I I I I #
coedge $-1 $383 $384 $385 $386 reversed $151 $-1 #
coedge $-1 $243 $153 $387 $388 reversed $96 $-1 #
coedge $-1 $153 $242 $383 $389 reversed $96 $-1 #
coedge $-1 $385 $390 $153 $245 forward $380 $-1 #
edge $-1 $391 -7.5510921979442251 $392 -2.1865085542639022 $244 $393 forward 7 unknown #
loop $-1 $-1 $251 $154 #
plane-surface $-1 23.437115153366811 -16.742069747447545 44.439074909830268 0 0.64278761758704617 0.76604443648966558 1 0 0 forward_v I I I I #
loop $-1 $-1 $394 $98 #
coedge $-1 $249 $249 $250 $395 reversed $155 $-1 #
coedge $-1 $250 $250 $249 $395 forward $157 $-1 #
coedge $-1 $251 $251 $158 $252 forward $246 $-1 #
edge $-1 $396 -5.8386158202769635e-016 $396 6.2831853071795996 $251 $397 forward 7 unknown #
loop $-1 $-1 $258 $159 #
plane-surface $-1 23.437115153366811 -16.742069747447545 44.439074909830268 0 0.64278761758704617 0.76604443648966558 1 0 0 forward_v I I I I #
loop $-1 $-1 $398 $101 #
coedge $-1 $256 $256 $257 $399 reversed $160 $-1 #
coedge $-1 $257 $257 $256 $399 forward $162 $-1 #
coedge $-1 $258 $258 $163 $259 forward $253 $-1 #
edge $-1 $400 -5.8386158202769635e-016 $400 6.2831853071795996 $258 $401 forward 7 unknown #
face $-1 $402 $403 $56 $-1 $404 reversed single #
loop $-1 $-1 $405 $164 #
plane-surface $-1 -35.970540342700943 -110.62228067091768 67.235371076201659 1 0 0 0 0.78801076186113728 -0.61566146476048833 forward_v I I I I #
coedge $-1 $406 $407 $408 $409 reversed $165 $-1 #
coedge $-1 $265 $167 $410 $411 reversed $105 $-1 #
coedge $-1 $167 $264 $406 $412 reversed $105 $-1 #
coedge $-1 $408 $413 $167 $267 forward $414 $-1 #
edge $-1 $415 23.846340754698051 $416 26.267824123541889 $266 $417 forward 7 unknown #
loop $-1 $-1 $273 $168 #
plane-surface $-1 -29.828848873735023 -31.464799580760797 5.3907705791026714 0 -0.78801076186113728 0.61566146476048833 1 0 0 forward_v I I I I #
loop $-1 $-1 $418 $107 #
coedge $-1 $271 $271 $272 $419 reversed $169 $-1 #
coedge $-1 $272 $272 $271 $419 forward $171 $-1 #
coedge $-1 $273 $273 $172 $274 forward $268 $-1 #
edge $-1 $420 5.2551868701233767e-016 $420 6.2831853071796013 $273 $421 forward 7 unknown #
face $-1 $422 $423 $58 $-1 $424 reversed single #
loop $-1 $-1 $425 $173 #
plane-surface $-1 -13.909963990317998 -110.62228067091768 67.235371076201659 1 0 0 0 0.78801076186113728 -0.61566146476048833 forward_v I I I I #
coedge $-1 $426 $427 $428 $429 reversed $174 $-1 #
coedge $-1 $280 $176 $430 $431 reversed $111 $-1 #
coedge $-1 $176 $279 $426 $432 reversed $111 $-1 #
coedge $-1 $428 $433 $176 $282 forward $434 $-1 #
edge $-1 $435 23.846340754698051 $436 26.267824123541889 $281 $437 forward 7 unknown #
loop $-1 $-1 $288 $177 #
plane-surface $-1 -7.7682725213520811 -31.464799580760797 5.3907705791026714 0 -0.78801076186113728 0.61566146476048833 1 0 0 forward_v I I I I #
loop $-1 $-1 $438 $113 #
coedge $-1 $286 $286 $287 $439 reversed $178 $-1 #
coedge $-1 $287 $287 $286 $439 forward $180 $-1 #
coedge $-1 $288 $288 $181 $289 forward $283 $-1 #
edge $-1 $440 5.2551868701233767e-016 $440 6.2831853071796013 $288 $441 forward 7 unknown #
face $-1 $442 $443 $60 $-1 $444 reversed single #
loop $-1 $-1 $445 $182 #
plane-surface $-1 8.1506123620649404 -110.62228067091768 67.235371076201659 1 0 0 0 0.78801076186113728 -0.61566146476048833 forward_v I I I I #
coedge $-1 $446 $447 $448 $449 reversed $183 $-1 #
coedge $-1 $295 $185 $450 $451 reversed $117 $-1 #
coedge $-1 $185 $294 $446 $452 reversed $117 $-1 #
coedge $-1 $448 $453 $185 $297 forward $454 $-1 #
edge $-1 $455 23.846340754698051 $456 26.267824123541889 $296 $457 forward 7 unknown #
loop $-1 $-1 $303 $186 #
plane-surface $-1 14.292303831030857 -31.464799580760797 5.3907705791026714 0 -0.78801076186113728 0.61566146476048833 1 0 0 forward_v I I I I #
loop $-1 $-1 $458 $119 #
coedge $-1 $301 $301 $302 $459 reversed $187 $-1 #
coedge $-1 $302 $302 $301 $459 forward $189 $-1 #
coedge $-1 $303 $303 $190 $304 forward $298 $-1 #
edge $-1 $460 5.2551868701233767e-016 $460 6.2831853071796013 $303 $461 forward 7 unknown #
face $-1 $462 $463 $62 $-1 $464 reversed single #
loop $-1 $-1 $465 $191 #
plane-surface $-1 30.211188714447879 -110.62228067091768 67.235371076201659 1 0 0 0 0.78801076186113728 -0.61566146476048833 forward_v I I I I #
coedge $-1 $466 $467 $468 $469 reversed $192 $-1 #
coedge $-1 $310 $194 $470 $471 reversed $123 $-1 #
coedge $-1 $194 $309 $466 $472 reversed $123 $-1 #
coedge $-1 $468 $473 $194 $312 forward $474 $-1 #
edge $-1 $475 23.846340754698051 $476 26.267824123541889 $311 $477 forward 7 unknown #
loop $-1 $-1 $318 $195 #
plane-surface $-1 36.352880183413795 -31.464799580760797 5.3907705791026714 0 -0.78801076186113728 0.61566146476048833 1 0 0 forward_v I I I I #
loop $-1 $-1 $478 $125 #
coedge $-1 $316 $316 $317 $479 reversed $196 $-1 #
coedge $-1 $317 $317 $316 $479 forward $198 $-1 #
coedge $-1 $318 $318 $199 $319 forward $313 $-1 #
edge $-1 $480 5.2551868701233767e-016 $480 6.2831853071796013 $318 $481 forward 7 unknown #
face $-1 $482 $483 $48 $-1 $484 reversed single #
loop $-1 $-1 $485 $200 #
plane-surface $-1 -50.22614215521714 0 0 1 0 0 0 0 -1 forward_v I I I I #
coedge $-1 $486 $331 $487 $488 forward $201 $-1 #
coedge $-1 $489 $203 $486 $490 forward $129 $-1 #
coedge $-1 $203 $489 $491 $492 forward $129 $-1 #
coedge $-1 $334 $333 $203 $327 reversed $335 $-1 #
edge $-1 $493 -31.464799580760786 $494 31.464799580760786 $326 $495 forward 7 unknown #
coedge $-1 $205 $204 $496 $497 forward $81 $-1 #
coedge $-1 $498 $499 $204 $330 reversed $483 $-1 #
edge $-1 $337 -50.22614215521714 $500 50.22614215521714 $329 $501 forward 7 unknown #
coedge $-1 $323 $502 $205 $332 reversed $201 $-1 #
edge $-1 $503 -50.22614215521714 $336 50.22614215521714 $331 $504 forward 7 unknown #
coedge $-1 $326 $206 $502 $505 forward $335 $-1 #
coedge $-1 $206 $326 $498 $506 reversed $335 $-1 #
loop $-1 $-1 $333 $482 #
vertex $-1 $207 $507 #
vertex $-1 $207 $508 #
straight-curve $-1 50.22614215521714 0 8.4901280402019257 0 1 0 I I #
face $-1 $509 $510 $49 $-1 $511 reversed single #
loop $-1 $-1 $512 $208 #
plane-surface $-1 0 -31.464799580760786 0 0 1 0 0 0 1 forward_v I I I I #
coedge $-1 $345 $214 $513 $514 reversed $209 $-1 #
coedge $-1 $515 $211 $512 $516 reversed $133 $-1 #
coedge $-1 $211 $515 $517 $518 reversed $133 $-1 #
coedge $-1 $352 $342 $211 $346 reversed $209 $-1 #
edge $-1 $519 -31.464799580760786 $520 31.464799580760786 $345 $521 forward 7 unknown #
coedge $-1 $213 $212 $522 $523 reversed $84 $-1 #
coedge $-1 $524 $525 $212 $349 forward $526 $-1 #
edge $-1 $527 -26.744078905028264 $354 -20.220047595349488 $348 $528 forward 7 unknown #
coedge $-1 $529 $513 $213 $351 forward $340 $-1 #
edge $-1 $353 20.220047595349488 $530 26.744078905028264 $350 $531 forward 7 unknown #
coedge $-1 $214 $345 $524 $532 reversed $209 $-1 #
vertex $-1 $351 $533 #
vertex $-1 $349 $534 #
straight-curve $-1 -43.702110845538364 0 -0.22994542106250426 0 1 0 I I #
face $-1 $-1 $535 $50 $-1 $536 reversed single #
loop $-1 $-1 $222 $216 #
plane-surface $-1 0 0 8.4901280402019257 0 0 1 1 0 0 forward_v I I I I #
coedge $-1 $537 $538 $539 $540 reversed $217 $-1 #
coedge $-1 $541 $219 $221 $366 forward $137 $-1 #
coedge $-1 $219 $541 $537 $542 forward $137 $-1 #
coedge $-1 $539 $222 $219 $363 forward $357 $-1 #
edge $-1 $369 -22.801300851338627 $543 -0.72571049567230617 $362 $544 forward 7 unknown #
coedge $-1 $545 $546 $220 $365 forward $535 $-1 #
edge $-1 $547 -56.706286430170245 $368 -52.20486617905636 $364 $548 forward 7 unknown #
edge $-1 $369 55.926632508225232 $547 62.92959916152158 $221 $549 forward 7 unknown #
coedge $-1 $222 $539 $545 $550 forward $357 $-1 #
vertex $-1 $365 $551 #
vertex $-1 $223 $552 #
straight-curve $-1 -34.564806524844094 23.913707382816561 8.4901280402019239 0 -1 0 I I #
coedge $-1 $371 $371 $-1 $553 reversed $226 $-1 #
edge $-1 $554 0 $554 6.2831853071796004 $227 $555 forward 7 unknown #
vertex $-1 $230 $556 #
ellipse-curve $-1 -28.257494994653719 28.782507758920616 6.2394179146449842 0 0.64278761758704617 0.76604443648966558 1.5 0 0 1 I I #
coedge $-1 $375 $375 $-1 $557 reversed $233 $-1 #
edge $-1 $558 0 $558 6.2831853071796004 $234 $559 forward 7 unknown #
vertex $-1 $237 $560 #
ellipse-curve $-1 -18.796527699368156 28.782507758920616 6.2394179146449842 0 0.64278761758704617 0.76604443648966558 1.5 0 0 1 I I #
face $-1 $-1 $561 $53 $-1 $562 reversed single #
loop $-1 $-1 $244 $238 #
plane-surface $-1 0 0 8.4901280402019257 0 0 1 1 0 0 forward_v I I I I #
coedge $-1 $563 $564 $565 $566 reversed $239 $-1 #
coedge $-1 $567 $241 $243 $389 forward $151 $-1 #
coedge $-1 $241 $567 $563 $568 forward $151 $-1 #
coedge $-1 $565 $244 $241 $386 forward $380 $-1 #
edge $-1 $392 0.68076239885024492 $569 22.756352754516566 $385 $570 forward 7 unknown #
coedge $-1 $571 $572 $242 $388 forward $561 $-1 #
edge $-1 $573 -56.706286430170245 $391 -52.20486617905636 $387 $574 forward 7 unknown #
edge $-1 $392 55.926632508225232 $573 62.92959916152158 $243 $575 forward 7 unknown #
coedge $-1 $244 $565 $571 $576 forward $380 $-1 #
vertex $-1 $245 $577 #
vertex $-1 $245 $578 #
straight-curve $-1 12.399319975533651 23.913707382816561 8.4901280402019239 0 -1 0 I I #
coedge $-1 $394 $394 $-1 $579 reversed $248 $-1 #
edge $-1 $580 0 $580 6.2831853071796004 $249 $581 forward 7 unknown #
vertex $-1 $252 $582 #
ellipse-curve $-1 18.706631505724026 28.782507758920616 6.2394179146449842 0 0.64278761758704617 0.76604443648966558 1.5 0 0 1 I I #
coedge $-1 $398 $398 $-1 $583 reversed $255 $-1 #
edge $-1 $584 0 $584 6.2831853071796004 $256 $585 forward 7 unknown #
vertex $-1 $259 $586 #
ellipse-curve $-1 28.167598801009596 28.782507758920616 6.2394179146449842 0 0.64278761758704617 0.76604443648966558 1.5 0 0 1 I I #
face $-1 $-1 $414 $56 $-1 $587 forward single #
loop $-1 $-1 $588 $260 #
plane-surface $-1 0 -31.464799580760786 0 0 1 0 0 0 1 forward_v I I I I #
coedge $-1 $589 $590 $591 $592 reversed $261 $-1 #
coedge $-1 $593 $263 $265 $412 forward $165 $-1 #
coedge $-1 $263 $593 $589 $594 forward $165 $-1 #
coedge $-1 $591 $266 $263 $409 forward $414 $-1 #
edge $-1 $416 8.7727329679015948 $595 21.05611590583343 $408 $596 forward 7 unknown #
coedge $-1 $597 $598 $264 $411 forward $403 $-1 #
edge $-1 $599 -28.226914958998144 $415 -25.127557497898906 $410 $600 forward 7 unknown #
edge $-1 $416 -3.9331410319563891 $599 -1.7060219019742567e-014 $265 $601 forward 7 unknown #
coedge $-1 $266 $591 $597 $602 forward $414 $-1 #
loop $-1 $-1 $591 $402 #
vertex $-1 $411 $603 #
vertex $-1 $267 $604 #
straight-curve $-1 -23.687157404769106 -55.311140335458838 8.4901280402019239 0 1 0 I I #
coedge $-1 $418 $418 $-1 $605 reversed $270 $-1 #
edge $-1 $606 0 $606 6.2831853071796004 $271 $607 forward 7 unknown #
vertex $-1 $274 $608 #
ellipse-curve $-1 -29.828848873735023 -30.254057896338871 6.9404493096522994 0 -0.78801076186113728 0.61566146476048833 0.5 0 0 1 I I #
face $-1 $-1 $434 $58 $-1 $609 forward single #
loop $-1 $-1 $610 $275 #
plane-surface $-1 0 -31.464799580760786 0 0 1 0 0 0 1 forward_v I I I I #
coedge $-1 $611 $612 $613 $614 reversed $276 $-1 #
coedge $-1 $615 $278 $280 $432 forward $174 $-1 #
coedge $-1 $278 $615 $611 $616 forward $174 $-1 #
coedge $-1 $613 $281 $278 $429 forward $434 $-1 #
edge $-1 $436 -2.257555208289876 $617 10.025827729641957 $428 $618 forward 7 unknown #
coedge $-1 $619 $620 $279 $431 forward $423 $-1 #
edge $-1 $621 -28.226914958998144 $435 -25.127557497898906 $430 $622 forward 7 unknown #
edge $-1 $436 -3.9331410319563891 $621 -1.7060219019742567e-014 $280 $623 forward 7 unknown #
coedge $-1 $281 $613 $619 $624 forward $434 $-1 #
loop $-1 $-1 $613 $422 #
vertex $-1 $431 $625 #
vertex $-1 $282 $626 #
straight-curve $-1 -1.6265810523861646 -55.311140335458838 8.4901280402019239 0 1 0 I I #
coedge $-1 $438 $438 $-1 $627 reversed $285 $-1 #
edge $-1 $628 0 $628 6.2831853071796004 $286 $629 forward 7 unknown #
vertex $-1 $289 $630 #
ellipse-curve $-1 -7.7682725213520811 -30.254057896338871 6.9404493096522994 0 -0.78801076186113728 0.61566146476048833 0.5 0 0 1 I I #
face $-1 $-1 $454 $60 $-1 $631 forward single #
loop $-1 $-1 $632 $290 #
plane-surface $-1 0 -31.464799580760786 0 0 1 0 0 0 1 forward_v I I I I #
coedge $-1 $633 $634 $635 $636 reversed $291 $-1 #
coedge $-1 $637 $293 $295 $452 forward $183 $-1 #
coedge $-1 $293 $637 $633 $638 forward $183 $-1 #
coedge $-1 $635 $296 $293 $449 forward $454 $-1 #
edge $-1 $456 -13.287843384481345 $639 -1.0044604465495119 $448 $640 forward 7 unknown #
coedge $-1 $641 $642 $294 $451 forward $443 $-1 #
edge $-1 $643 -28.226914958998144 $455 -25.127557497898906 $450 $644 forward 7 unknown #
edge $-1 $456 -3.9331410319563891 $643 -1.7060219019742567e-014 $295 $645 forward 7 unknown #
coedge $-1 $296 $635 $641 $646 forward $454 $-1 #
loop $-1 $-1 $635 $442 #
vertex $-1 $451 $647 #
vertex $-1 $297 $648 #
straight-curve $-1 20.433995299996774 -55.311140335458838 8.4901280402019239 0 1 0 I I #
coedge $-1 $458 $458 $-1 $649 reversed $300 $-1 #
edge $-1 $650 0 $650 6.2831853071796004 $301 $651 forward 7 unknown #
vertex $-1 $304 $652 #
ellipse-curve $-1 14.292303831030857 -30.254057896338871 6.9404493096522994 0 -0.78801076186113728 0.61566146476048833 0.5 0 0 1 I I #
face $-1 $-1 $474 $62 $-1 $653 forward single #
loop $-1 $-1 $654 $305 #
plane-surface $-1 0 -31.464799580760786 0 0 1 0 0 0 1 forward_v I I I I #
coedge $-1 $655 $656 $657 $658 reversed $306 $-1 #
coedge $-1 $659 $308 $310 $472 forward $192 $-1 #
coedge $-1 $308 $659 $655 $660 forward $192 $-1 #
coedge $-1 $657 $311 $308 $469 forward $474 $-1 #
edge $-1 $476 -24.318131560672814 $661 -12.034748622740981 $468 $662 forward 7 unknown #
coedge $-1 $663 $664 $309 $471 forward $463 $-1 #
edge $-1 $665 -28.226914958998144 $475 -25.127557497898906 $470 $666 forward 7 unknown #
edge $-1 $476 -3.9331410319563891 $665 -1.7060219019742567e-014 $310 $667 forward 7 unknown #
coedge $-1 $311 $657 $663 $668 forward $474 $-1 #
loop $-1 $-1 $657 $462 #
vertex $-1 $471 $669 #
vertex $-1 $312 $670 #
straight-curve $-1 42.494571652379712 -55.311140335458838 8.4901280402019239 0 1 0 I I #
coedge $-1 $478 $478 $-1 $671 reversed $315 $-1 #
edge $-1 $672 0 $672 6.2831853071796004 $316 $673 forward 7 unknown #
vertex $-1 $319 $674 #
ellipse-curve $-1 36.352880183413795 -30.254057896338871 6.9404493096522994 0 -0.78801076186113728 0.61566146476048833 0.5 0 0 1 I I #
face $-1 $-1 $335 $48 $-1 $675 reversed single #
loop $-1 $-1 $498 $320 #
plane-surface $-1 0 31.464799580760786 0 0 -1 0 0 0 -1 forward_v I I I I #
coedge $-1 $676 $496 $499 $677 forward $321 $-1 #
coedge $-1 $502 $323 $324 $490 reversed $201 $-1 #
coedge $-1 $496 $676 $323 $488 reversed $321 $-1 #
edge $-1 $503 -8.4901280402019257 $678 8.4901280402019257 $487 $679 forward 7 unknown #
coedge $-1 $325 $324 $676 $680 forward $129 $-1 #
edge $-1 $494 -50.22614215521714 $678 50.22614215521714 $486 $681 forward 7 unknown #
coedge $-1 $499 $498 $325 $492 reversed $483 $-1 #
edge $-1 $682 -50.22614215521714 $493 50.22614215521714 $491 $683 forward 7 unknown #
vertex $-1 $327 $684 #
vertex $-1 $505 $685 #
straight-curve $-1 50.22614215521714 0 -8.4901280402019257 0 -1 0 I I #
coedge $-1 $485 $487 $328 $497 reversed $321 $-1 #
edge $-1 $500 -31.464799580760786 $503 31.464799580760786 $496 $686 forward 7 unknown #
coedge $-1 $491 $329 $334 $506 forward $483 $-1 #
coedge $-1 $329 $491 $485 $677 reversed $483 $-1 #
vertex $-1 $330 $687 #
straight-curve $-1 0 31.464799580760786 8.4901280402019257 -1 0 0 I I #
coedge $-1 $331 $486 $333 $505 reversed $201 $-1 #
vertex $-1 $497 $688 #
straight-curve $-1 0 -31.464799580760786 8.4901280402019257 1 0 0 I I #
edge $-1 $336 -8.4901280402019257 $494 8.4901280402019257 $333 $689 forward 7 unknown #
edge $-1 $337 -8.4901280402019257 $493 8.4901280402019257 $334 $690 forward 7 unknown #
point $-1 50.22614215521714 -31.464799580760786 8.4901280402019257 #
point $-1 50.22614215521714 31.464799580760786 8.4901280402019257 #
face $-1 $-1 $526 $49 $-1 $691 reversed single #
loop $-1 $-1 $692 $339 #
plane-surface $-1 -50.22614215521714 0 0 1 0 0 0 0 -1 forward_v I I I I #
coedge $-1 $513 $529 $343 $516 forward $340 $-1 #
coedge $-1 $350 $512 $342 $514 forward $340 $-1 #
edge $-1 $520 -2.7774040033164584 $353 0.77250438706381663 $513 $693 forward 7 unknown #
coedge $-1 $344 $343 $692 $694 reversed $133 $-1 #
edge $-1 $695 -26.744078905028264 $520 -20.220047595349488 $512 $696 forward 7 unknown #
coedge $-1 $525 $524 $344 $518 forward $526 $-1 #
edge $-1 $519 20.220047595349488 $697 26.744078905028264 $517 $698 forward 7 unknown #
vertex $-1 $518 $699 #
vertex $-1 $516 $700 #
straight-curve $-1 -43.702110845538364 0 -3.7798538114427793 0 -1 0 I I #
coedge $-1 $701 $702 $347 $523 forward $510 $-1 #
edge $-1 $530 -31.464799580760786 $527 31.464799580760786 $522 $703 forward 7 unknown #
coedge $-1 $517 $348 $352 $532 forward $526 $-1 #
coedge $-1 $348 $517 $701 $704 reversed $526 $-1 #
loop $-1 $-1 $517 $509 #
vertex $-1 $704 $705 #
straight-curve $-1 -23.482063250188876 31.464799580760786 -0.22994542106250426 1 0 0 I I #
coedge $-1 $512 $350 $702 $706 forward $340 $-1 #
vertex $-1 $706 $707 #
straight-curve $-1 -23.482063250188876 -31.464799580760786 -0.22994542106250426 -1 0 0 I I #
edge $-1 $354 -0.77250438706381663 $519 2.7774040033164584 $524 $708 forward 7 unknown #
point $-1 -43.702110845538364 -31.464799580760786 -0.22994542106250426 #
point $-1 -43.702110845538364 31.464799580760786 -0.22994542106250426 #
loop $-1 $-1 $364 $356 #
plane-surface $-1 0 31.464799580760786 0 0 -1 0 0 0 -1 forward_v I I I I #
coedge $-1 $538 $359 $361 $542 reversed $217 $-1 #
coedge $-1 $359 $537 $709 $710 reversed $217 $-1 #
coedge $-1 $367 $362 $359 $540 forward $357 $-1 #
edge $-1 $543 2.1865085542639022 $711 7.5510921979442251 $539 $712 forward 7 unknown #
coedge $-1 $361 $360 $546 $713 reversed $137 $-1 #
edge $-1 $714 -62.92959916152158 $543 -55.926632508225232 $537 $715 forward 7 unknown #
vertex $-1 $363 $716 #
straight-curve $-1 -11.763505673505467 26.100215937080463 8.4901280402019239 1 0 0 I I #
coedge $-1 $709 $364 $367 $550 reversed $535 $-1 #
coedge $-1 $364 $709 $541 $713 forward $535 $-1 #
vertex $-1 $365 $717 #
straight-curve $-1 -34.564806524844094 31.464799580760786 60.694994219258284 0 0 1 I I #
straight-curve $-1 -34.564806524844094 -16.742069747447545 44.439074909830268 0 0.76604443648966558 -0.64278761758704617 I I #
edge $-1 $711 12.489216169177773 $368 34.564806524844094 $545 $718 forward 7 unknown #
point $-1 -34.564806524844094 31.464799580760786 8.4901280402019257 #
point $-1 -34.564806524844094 26.100215937080463 8.4901280402019239 #
edge $-1 $719 1 $719 0 $371 $-1 forward 7 unknown #
vertex $-1 $372 $720 #
ellipse-curve $-1 -28.257494994653719 25.241722358432305 2.0196742813902717 0 0.64278761758704617 0.76604443648966558 1.5 0 0 1 I I #
point $-1 -26.757494994653719 28.782507758920609 6.2394179146449771 #
edge $-1 $721 1 $721 0 $375 $-1 forward 7 unknown #
vertex $-1 $376 $722 #
ellipse-curve $-1 -18.796527699368156 25.241722358432305 2.0196742813902717 0 0.64278761758704617 0.76604443648966558 1.5 0 0 1 I I #
point $-1 -17.296527699368156 28.782507758920609 6.2394179146449771 #
loop $-1 $-1 $387 $379 #
plane-surface $-1 0 31.464799580760786 0 0 -1 0 0 0 -1 forward_v I I I I #
coedge $-1 $564 $382 $384 $568 reversed $239 $-1 #
coedge $-1 $382 $563 $723 $724 reversed $239 $-1 #
coedge $-1 $390 $385 $382 $566 forward $380 $-1 #
edge $-1 $569 2.1865085542639022 $725 7.5510921979442251 $565 $726 forward 7 unknown #
coedge $-1 $384 $383 $572 $727 reversed $151 $-1 #
edge $-1 $728 -62.92959916152158 $569 -55.926632508225232 $563 $729 forward 7 unknown #
vertex $-1 $386 $730 #
straight-curve $-1 11.718557576683406 26.100215937080463 8.4901280402019239 1 0 0 I I #
coedge $-1 $723 $387 $390 $576 reversed $561 $-1 #
coedge $-1 $387 $723 $567 $727 forward $561 $-1 #
vertex $-1 $388 $731 #
straight-curve $-1 12.399319975533651 31.464799580760786 60.694994219258284 0 0 1 I I #
straight-curve $-1 12.399319975533651 -16.742069747447545 44.439074909830268 0 0.76604443648966558 -0.64278761758704617 I I #
edge $-1 $725 -34.474910331199972 $391 -12.399319975533651 $571 $732 forward 7 unknown #
point $-1 12.399319975533651 31.464799580760786 8.4901280402019257 #
point $-1 12.399319975533651 26.100215937080463 8.4901280402019239 #
edge $-1 $733 1 $733 0 $394 $-1 forward 7 unknown #
vertex $-1 $395 $734 #
ellipse-curve $-1 18.706631505724026 25.241722358432305 2.0196742813902717 0 0.64278761758704617 0.76604443648966558 1.5 0 0 1 I I #
point $-1 20.206631505724026 28.782507758920609 6.2394179146449771 #
edge $-1 $735 1 $735 0 $398 $-1 forward 7 unknown #
vertex $-1 $399 $736 #
ellipse-curve $-1 28.167598801009596 25.241722358432305 2.0196742813902717 0 0.64278761758704617 0.76604443648966558 1.5 0 0 1 I I #
point $-1 29.667598801009596 28.782507758920609 6.2394179146449771 #
plane-surface $-1 0 0 8.4901280402019257 0 0 1 1 0 0 forward_v I I I I #
coedge $-1 $598 $597 $590 $737 forward $403 $-1 #
coedge $-1 $590 $405 $407 $594 reversed $261 $-1 #
coedge $-1 $405 $589 $588 $737 reversed $261 $-1 #
coedge $-1 $413 $408 $405 $592 forward $414 $-1 #
edge $-1 $595 -26.267824123541889 $738 -23.846340754698051 $591 $739 forward 7 unknown #
coedge $-1 $407 $406 $598 $740 reversed $165 $-1 #
edge $-1 $741 1.7060219019742567e-014 $595 3.9331410319563891 $589 $742 forward 7 unknown #
vertex $-1 $409 $743 #
straight-curve $-1 -14.914424436867511 -29.043316211916949 8.4901280402019257 -1 0 0 I I #
coedge $-1 $588 $410 $413 $602 reversed $403 $-1 #
coedge $-1 $410 $588 $593 $740 forward $403 $-1 #
vertex $-1 $411 $744 #
straight-curve $-1 -23.687157404769106 -31.464799580760783 33.617685538100829 0 0 1 I I #
straight-curve $-1 -23.687157404769106 -31.464799580760797 5.3907705791026714 0 -0.61566146476048833 -0.78801076186113728 I I #
edge $-1 $738 -35.970540342700943 $415 -23.687157404769106 $597 $745 forward 7 unknown #
point $-1 -23.687157404769106 -31.464799580760786 8.4901280402019257 #
point $-1 -23.687157404769106 -29.043316211916949 8.4901280402019257 #
edge $-1 $746 1 $746 0 $418 $-1 forward 7 unknown #
vertex $-1 $419 $747 #
ellipse-curve $-1 -29.828848873735023 -29.120728779743871 6.0549955852251918 0 -0.78801076186113728 0.61566146476048833 0.5 0 0 1 I I #
point $-1 -29.328848873735023 -30.25405789633886 6.9404493096522915 #
plane-surface $-1 0 0 8.4901280402019257 0 0 1 1 0 0 forward_v I I I I #
coedge $-1 $620 $619 $612 $748 forward $423 $-1 #
coedge $-1 $612 $425 $427 $616 reversed $276 $-1 #
coedge $-1 $425 $611 $610 $748 reversed $276 $-1 #
coedge $-1 $433 $428 $425 $614 forward $434 $-1 #
edge $-1 $617 -26.267824123541889 $749 -23.846340754698051 $613 $750 forward 7 unknown #
coedge $-1 $427 $426 $620 $751 reversed $174 $-1 #
edge $-1 $752 1.7060219019742567e-014 $617 3.9331410319563891 $611 $753 forward 7 unknown #
vertex $-1 $429 $754 #
straight-curve $-1 -3.8841362606760406 -29.043316211916949 8.4901280402019257 -1 0 0 I I #
coedge $-1 $610 $430 $433 $624 reversed $423 $-1 #
coedge $-1 $430 $610 $615 $751 forward $423 $-1 #
vertex $-1 $431 $755 #
straight-curve $-1 -1.6265810523861646 -31.464799580760783 33.617685538100829 0 0 1 I I #
straight-curve $-1 -1.6265810523861646 -31.464799580760797 5.3907705791026714 0 -0.61566146476048833 -0.78801076186113728 I I #
edge $-1 $749 -13.909963990317998 $435 -1.6265810523861646 $619 $756 forward 7 unknown #
point $-1 -1.6265810523861646 -31.464799580760786 8.4901280402019257 #
point $-1 -1.6265810523861646 -29.043316211916949 8.4901280402019257 #
edge $-1 $757 1 $757 0 $438 $-1 forward 7 unknown #
vertex $-1 $439 $758 #
ellipse-curve $-1 -7.7682725213520811 -29.120728779743871 6.0549955852251918 0 -0.78801076186113728 0.61566146476048833 0.5 0 0 1 I I #
point $-1 -7.2682725213520811 -30.25405789633886 6.9404493096522915 #
plane-surface $-1 0 0 8.4901280402019257 0 0 1 1 0 0 forward_v I I I I #
coedge $-1 $642 $641 $634 $759 forward $443 $-1 #
coedge $-1 $634 $445 $447 $638 reversed $291 $-1 #
coedge $-1 $445 $633 $632 $759 reversed $291 $-1 #
coedge $-1 $453 $448 $445 $636 forward $454 $-1 #
edge $-1 $639 -26.267824123541889 $760 -23.846340754698051 $635 $761 forward 7 unknown #
coedge $-1 $447 $446 $642 $762 reversed $183 $-1 #
edge $-1 $763 1.7060219019742567e-014 $639 3.9331410319563891 $633 $764 forward 7 unknown #
vertex $-1 $449 $765 #
straight-curve $-1 7.1461519155154285 -29.043316211916949 8.4901280402019257 -1 0 0 I I #
coedge $-1 $632 $450 $453 $646 reversed $443 $-1 #
coedge $-1 $450 $632 $637 $762 forward $443 $-1 #
vertex $-1 $451 $766 #
straight-curve $-1 20.433995299996774 -31.464799580760783 33.617685538100829 0 0 1 I I #
straight-curve $-1 20.433995299996774 -31.464799580760797 5.3907705791026714 0 -0.61566146476048833 -0.78801076186113728 I I #
edge $-1 $760 8.1506123620649404 $455 20.433995299996774 $641 $767 forward 7 unknown #
point $-1 20.433995299996774 -31.464799580760786 8.4901280402019257 #
point $-1 20.433995299996774 -29.043316211916949 8.4901280402019257 #
edge $-1 $768 1 $768 0 $458 $-1 forward 7 unknown #
vertex $-1 $459 $769 #
ellipse-curve $-1 14.292303831030857 -29.120728779743871 6.0549955852251918 0 -0.78801076186113728 0.61566146476048833 0.5 0 0 1 I I #
point $-1 14.792303831030857 -30.25405789633886 6.9404493096522915 #
plane-surface $-1 0 0 8.4901280402019257 0 0 1 1 0 0 forward_v I I I I #
coedge $-1 $664 $663 $656 $770 forward $463 $-1 #
coedge $-1 $656 $465 $467 $660 reversed $306 $-1 #
coedge $-1 $465 $655 $654 $770 reversed $306 $-1 #
coedge $-1 $473 $468 $465 $658 forward $474 $-1 #
edge $-1 $661 -26.267824123541889 $771 -23.846340754698051 $657 $772 forward 7 unknown #
coedge $-1 $467 $466 $664 $773 reversed $192 $-1 #
edge $-1 $774 1.7060219019742567e-014 $661 3.9331410319563891 $655 $775 forward 7 unknown #
vertex $-1 $469 $776 #
straight-curve $-1 18.176440091706898 -29.043316211916949 8.4901280402019257 -1 0 0 I I #
coedge $-1 $654 $470 $473 $668 reversed $463 $-1 #
coedge $-1 $470 $654 $659 $773 forward $463 $-1 #
vertex $-1 $471 $777 #
straight-curve $-1 42.494571652379712 -31.464799580760783 33.617685538100829 0 0 1 I I #
straight-curve $-1 42.494571652379712 -31.464799580760797 5.3907705791026714 0 -0.61566146476048833 -0.78801076186113728 I I #
edge $-1 $771 30.211188714447879 $475 42.494571652379712 $663 $778 forward 7 unknown #
point $-1 42.494571652379712 -31.464799580760786 8.4901280402019257 #
point $-1 42.494571652379712 -29.043316211916949 8.4901280402019257 #
edge $-1 $779 1 $779 0 $478 $-1 forward 7 unknown #
vertex $-1 $479 $780 #
ellipse-curve $-1 36.352880183413795 -29.120728779743871 6.0549955852251918 0 -0.78801076186113728 0.61566146476048833 0.5 0 0 1 I I #
point $-1 36.852880183413795 -30.25405789633886 6.9404493096522915 #
plane-surface $-1 50.22614215521714 0 0 -1 0 0 0 0 1 forward_v I I I I #
coedge $-1 $487 $485 $489 $680 reversed $321 $-1 #
edge $-1 $500 -8.4901280402019257 $682 8.4901280402019257 $499 $781 forward 7 unknown #
vertex $-1 $680 $782 #
straight-curve $-1 -50.22614215521714 -31.464799580760786 0 0 0 -1 I I #
edge $-1 $678 -31.464799580760786 $682 31.464799580760786 $676 $783 forward 7 unknown #
straight-curve $-1 0 -31.464799580760786 -8.4901280402019257 -1 0 0 I I #
vertex $-1 $492 $784 #
straight-curve $-1 0 31.464799580760786 -8.4901280402019257 1 0 0 I I #
point $-1 50.22614215521714 31.464799580760786 -8.4901280402019257 #
point $-1 50.22614215521714 -31.464799580760786 -8.4901280402019257 #
straight-curve $-1 -50.22614215521714 0 8.4901280402019257 0 -1 0 I I #
point $-1 -50.22614215521714 31.464799580760786 8.4901280402019257 #
point $-1 -50.22614215521714 -31.464799580760786 8.4901280402019257 #
straight-curve $-1 50.22614215521714 -31.464799580760786 0 0 0 -1 I I #
straight-curve $-1 50.22614215521714 31.464799580760786 0 0 0 -1 I I #
plane-surface $-1 0 31.464799580760786 0 0 -1 0 0 0 -1 forward_v I I I I #
coedge $-1 $702 $701 $515 $694 forward $510 $-1 #
straight-curve $-1 -43.702110845538364 -31.464799580760786 -1.0024498081263209 0 0 1 I I #
edge $-1 $697 -31.464799580760786 $695 31.464799580760786 $692 $785 forward 7 unknown #
vertex $-1 $516 $786 #
straight-curve $-1 -23.482063250188876 -31.464799580760786 -3.7798538114427793 1 0 0 I I #
vertex $-1 $518 $787 #
straight-curve $-1 -23.482063250188876 31.464799580760786 -3.7798538114427793 -1 0 0 I I #
point $-1 -43.702110845538364 31.464799580760786 -3.7798538114427793 #
point $-1 -43.702110845538364 -31.464799580760786 -3.7798538114427793 #
coedge $-1 $692 $522 $525 $704 forward $510 $-1 #
coedge $-1 $522 $692 $529 $706 reversed $510 $-1 #
straight-curve $-1 -50.22614215521714 0 -0.22994542106250426 0 1 0 I I #
edge $-1 $527 0.22994542106250426 $697 3.7798538114427793 $525 $788 forward 7 unknown #
point $-1 -50.22614215521714 31.464799580760786 -0.22994542106250426 #
edge $-1 $530 0.22994542106250426 $695 3.7798538114427793 $702 $789 forward 7 unknown #
point $-1 -50.22614215521714 -31.464799580760786 -0.22994542106250426 #
straight-curve $-1 -43.702110845538364 31.464799580760786 -1.0024498081263209 0 0 -1 I I #
coedge $-1 $546 $545 $538 $710 forward $535 $-1 #
edge $-1 $711 52.20486617905636 $714 56.706286430170245 $709 $790 forward 7 unknown #
vertex $-1 $550 $791 #
straight-curve $-1 -12.489216169177773 23.913707382816561 8.4901280402019239 0 1 0 I I #
edge $-1 $714 0.72571049567230617 $547 22.801300851338627 $546 $792 forward 7 unknown #
vertex $-1 $713 $793 #
straight-curve $-1 -12.489216169177773 -16.742069747447545 44.439074909830268 0 -0.76604443648966558 0.64278761758704617 I I #
point $-1 -12.489216169177773 26.100215937080463 8.4901280402019239 #
point $-1 -34.564806524844094 31.464799580760783 3.9887077890880391 #
straight-curve $-1 0 31.464799580760786 8.4901280402019257 -1 0 0 I I #
vertex $-1 $553 $794 #
point $-1 -26.757494994653719 25.241722358432305 2.0196742813902717 #
vertex $-1 $557 $795 #
point $-1 -17.296527699368156 25.241722358432305 2.0196742813902717 #
coedge $-1 $572 $571 $564 $724 forward $561 $-1 #
edge $-1 $725 52.20486617905636 $728 56.706286430170245 $723 $796 forward 7 unknown #
vertex $-1 $576 $797 #
straight-curve $-1 34.474910331199972 23.913707382816561 8.4901280402019239 0 1 0 I I #
edge $-1 $728 -22.756352754516566 $573 -0.68076239885024492 $572 $798 forward 7 unknown #
vertex $-1 $727 $799 #
straight-curve $-1 34.474910331199972 -16.742069747447545 44.439074909830268 0 -0.76604443648966558 0.64278761758704617 I I #
point $-1 34.474910331199972 26.100215937080463 8.4901280402019239 #
point $-1 12.399319975533651 31.464799580760783 3.9887077890880391 #
straight-curve $-1 0 31.464799580760786 8.4901280402019257 -1 0 0 I I #
vertex $-1 $579 $800 #
point $-1 20.206631505724026 25.241722358432305 2.0196742813902717 #
vertex $-1 $583 $801 #
point $-1 29.667598801009596 25.241722358432305 2.0196742813902717 #
edge $-1 $738 25.127557497898906 $741 28.226914958998144 $588 $802 forward 7 unknown #
vertex $-1 $602 $803 #
straight-curve $-1 -35.970540342700943 -55.311140335458838 8.4901280402019239 0 -1 0 I I #
edge $-1 $741 -21.05611590583343 $599 -8.7727329679015948 $598 $804 forward 7 unknown #
vertex $-1 $740 $805 #
straight-curve $-1 -35.970540342700943 -31.464799580760797 5.3907705791026714 0 0.61566146476048833 0.78801076186113728 I I #
point $-1 -35.970540342700943 -29.043316211916949 8.4901280402019257 #
point $-1 -23.687157404769106 -31.464799580760786 5.3907705791026848 #
straight-curve $-1 0 -31.464799580760786 8.4901280402019257 1 0 0 I I #
vertex $-1 $605 $806 #
point $-1 -29.328848873735023 -29.120728779743871 6.0549955852251918 #
edge $-1 $749 25.127557497898906 $752 28.226914958998144 $610 $807 forward 7 unknown #
vertex $-1 $624 $808 #
straight-curve $-1 -13.909963990317998 -55.311140335458838 8.4901280402019239 0 -1 0 I I #
edge $-1 $752 -10.025827729641957 $621 2.257555208289876 $620 $809 forward 7 unknown #
vertex $-1 $751 $810 #
straight-curve $-1 -13.909963990317998 -31.464799580760797 5.3907705791026714 0 0.61566146476048833 0.78801076186113728 I I #
point $-1 -13.909963990317998 -29.043316211916949 8.4901280402019257 #
point $-1 -1.6265810523861646 -31.464799580760786 5.3907705791026848 #
straight-curve $-1 0 -31.464799580760786 8.4901280402019257 1 0 0 I I #
vertex $-1 $627 $811 #
point $-1 -7.2682725213520811 -29.120728779743871 6.0549955852251918 #
edge $-1 $760 25.127557497898906 $763 28.226914958998144 $632 $812 forward 7 unknown #
vertex $-1 $646 $813 #
straight-curve $-1 8.1506123620649404 -55.311140335458838 8.4901280402019239 0 -1 0 I I #
edge $-1 $763 1.0044604465495119 $643 13.287843384481345 $642 $814 forward 7 unknown #
vertex $-1 $762 $815 #
straight-curve $-1 8.1506123620649404 -31.464799580760797 5.3907705791026714 0 0.61566146476048833 0.78801076186113728 I I #
point $-1 8.1506123620649404 -29.043316211916949 8.4901280402019257 #
point $-1 20.433995299996774 -31.464799580760786 5.3907705791026848 #
straight-curve $-1 0 -31.464799580760786 8.4901280402019257 1 0 0 I I #
vertex $-1 $649 $816 #
point $-1 14.792303831030857 -29.120728779743871 6.0549955852251918 #
edge $-1 $771 25.127557497898906 $774 28.226914958998144 $654 $817 forward 7 unknown #
vertex $-1 $668 $818 #
straight-curve $-1 30.211188714447879 -55.311140335458838 8.4901280402019239 0 -1 0 I I #
edge $-1 $774 12.034748622740981 $665 24.318131560672814 $664 $819 forward 7 unknown #
vertex $-1 $773 $820 #
straight-curve $-1 30.211188714447879 -31.464799580760797 5.3907705791026714 0 0.61566146476048833 0.78801076186113728 I I #
point $-1 30.211188714447879 -29.043316211916949 8.4901280402019257 #
point $-1 42.494571652379712 -31.464799580760786 5.3907705791026848 #
straight-curve $-1 0 -31.464799580760786 8.4901280402019257 1 0 0 I I #
vertex $-1 $671 $821 #
point $-1 36.852880183413795 -29.120728779743871 6.0549955852251918 #
straight-curve $-1 -50.22614215521714 31.464799580760786 0 0 0 -1 I I #
point $-1 -50.22614215521714 -31.464799580760786 -8.4901280402019257 #
straight-curve $-1 -50.22614215521714 0 -8.4901280402019257 0 1 0 I I #
point $-1 -50.22614215521714 31.464799580760786 -8.4901280402019257 #
straight-curve $-1 -50.22614215521714 0 -3.7798538114427793 0 -1 0 I I #
point $-1 -50.22614215521714 -31.464799580760786 -3.7798538114427793 #
point $-1 -50.22614215521714 31.464799580760786 -3.7798538114427793 #
straight-curve $-1 -50.22614215521714 31.464799580760786 0 0 0 -1 I I #
straight-curve $-1 -50.22614215521714 -31.464799580760786 0 0 0 -1 I I #
straight-curve $-1 -12.489216169177773 31.464799580760786 60.694994219258284 0 0 -1 I I #
point $-1 -12.489216169177773 31.464799580760786 8.4901280402019257 #
straight-curve $-1 -11.763505673505467 31.464799580760783 3.9887077890880427 -1 0 0 I I #
point $-1 -12.489216169177773 31.464799580760783 3.9887077890880391 #
point $-1 -28.257494994653719 24.277540932051735 0.87060762665577351 #
point $-1 -18.796527699368156 24.277540932051735 0.87060762665577351 #
straight-curve $-1 34.474910331199972 31.464799580760786 60.694994219258284 0 0 -1 I I #
point $-1 34.474910331199972 31.464799580760786 8.4901280402019257 #
straight-curve $-1 11.718557576683406 31.464799580760783 3.9887077890880427 -1 0 0 I I #
point $-1 34.474910331199972 31.464799580760783 3.9887077890880391 #
point $-1 18.706631505724026 24.277540932051735 0.87060762665577351 #
point $-1 28.167598801009596 24.277540932051735 0.87060762665577351 #
straight-curve $-1 -35.970540342700943 -31.464799580760783 33.617685538100829 0 0 -1 I I #
point $-1 -35.970540342700943 -31.464799580760786 8.4901280402019257 #
straight-curve $-1 -14.914424436867511 -31.464799580760786 5.3907705791026874 1 0 0 I I #
point $-1 -35.970540342700943 -31.464799580760786 5.3907705791026848 #
point $-1 -29.828848873735023 -28.726723398813306 5.7471648528449473 #
straight-curve $-1 -13.909963990317998 -31.464799580760783 33.617685538100829 0 0 -1 I I #
point $-1 -13.909963990317998 -31.464799580760786 8.4901280402019257 #
straight-curve $-1 -3.8841362606760406 -31.464799580760786 5.3907705791026874 1 0 0 I I #
point $-1 -13.909963990317998 -31.464799580760786 5.3907705791026848 #
point $-1 -7.7682725213520811 -28.726723398813306 5.7471648528449473 #
straight-curve $-1 8.1506123620649404 -31.464799580760783 33.617685538100829 0 0 -1 I I #
point $-1 8.1506123620649404 -31.464799580760786 8.4901280402019257 #
straight-curve $-1 7.1461519155154285 -31.464799580760786 5.3907705791026874 1 0 0 I I #
point $-1 8.1506123620649404 -31.464799580760786 5.3907705791026848 #
point $-1 14.292303831030857 -28.726723398813306 5.7471648528449473 #
straight-curve $-1 30.211188714447879 -31.464799580760783 33.617685538100829 0 0 -1 I I #
point $-1 30.211188714447879 -31.464799580760786 8.4901280402019257 #
straight-curve $-1 18.176440091706898 -31.464799580760786 5.3907705791026874 1 0 0 I I #
point $-1 30.211188714447879 -31.464799580760786 5.3907705791026848 #
point $-1 36.352880183413795 -28.726723398813306 5.7471648528449473 #
End-of-ACIS-data 