500 0 7 0           
7 Unknown 11 ACIS 5.0 NT 24 Fri Mar 26 03:13:10 1999 
-1 9.9999999999999995e-007 1e-010 
body $-1 $7 $-1 $8 #
body $-1 $9 $-1 $10 #
body $-1 $11 $-1 $12 #
body $-1 $13 $-1 $14 #
body $-1 $15 $-1 $16 #
body $-1 $17 $-1 $18 #
body $-1 $19 $-1 $20 #
lump $-1 $-1 $21 $0 #
transform $-1 1 0 0 0 1 0 0 0 1 54.213080233161413 36.029271574982133 7.734302690463708 1 rotate no_reflect no_shear #
lump $-1 $-1 $22 $1 #
transform $-1 1 0 0 0 1 0 0 0 1 54.213080233161413 36.029271574982133 7.734302690463708 1 rotate no_reflect no_shear #
lump $-1 $-1 $23 $2 #
transform $-1 1 0 0 0 1 0 0 0 1 54.213080233161413 36.029271574982133 7.734302690463708 1 rotate no_reflect no_shear #
lump $-1 $-1 $24 $3 #
transform $-1 1 0 0 0 1 0 0 0 1 54.213080233161413 36.029271574982133 7.734302690463708 1 rotate no_reflect no_shear #
lump $-1 $-1 $25 $4 #
transform $-1 1 0 0 0 1 0 0 0 1 54.213080233161413 36.029271574982133 7.734302690463708 1 rotate no_reflect no_shear #
lump $-1 $-1 $26 $5 #
transform $-1 1 0 0 0 1 0 0 0 1 54.213080233161413 36.029271574982133 7.734302690463708 1 rotate no_reflect no_shear #
lump $-1 $-1 $27 $6 #
transform $-1 1 0 0 0 1 0 0 0 1 54.213080233161413 36.029271574982133 7.734302690463708 1 rotate no_reflect no_shear #
shell $-1 $-1 $-1 $28 $-1 $7 #
shell $-1 $-1 $-1 $29 $-1 $9 #
shell $-1 $-1 $-1 $30 $-1 $11 #
shell $-1 $-1 $-1 $31 $-1 $13 #
shell $-1 $-1 $-1 $32 $-1 $15 #
shell $-1 $-1 $-1 $33 $-1 $17 #
shell $-1 $-1 $-1 $34 $-1 $19 #
face $-1 $35 $36 $21 $-1 $37 forward single #
face $-1 $38 $39 $22 $-1 $40 reversed single #
face $-1 $41 $42 $23 $-1 $43 forward single #
face $-1 $44 $45 $24 $-1 $46 forward single #
face $-1 $47 $48 $25 $-1 $49 reversed single #
face $-1 $50 $51 $26 $-1 $52 forward single #
face $-1 $53 $54 $27 $-1 $55 forward single #
face $-1 $56 $57 $21 $-1 $58 reversed single #
loop $-1 $-1 $59 $28 #
plane-surface $-1 0 0 7.734302690463708 0 0 1 1 0 0 forward_v I I I I #
face $-1 $60 $61 $22 $-1 $62 reversed single #
loop $-1 $-1 $63 $29 #
plane-surface $-1 -16.987176903622839 -115.32714628048105 76.476519564053291 -1 0 0 0 -0.73135370988377701 0.68199835119979291 forward_v I I I I #
face $-1 $64 $65 $23 $-1 $66 forward single #
loop $-1 $67 $68 $30 #
cone-surface $-1 -25.994524342054135 -32.938570581558054 4.5128198919565223 0 0.73135370988377701 -0.68199835119979291 1 0 0 1 I I 0 1 1 forward I I I I #
face $-1 $69 $70 $24 $-1 $71 forward single #
loop $-1 $72 $73 $31 #
cone-surface $-1 -20.590115878995356 -32.938570581558054 4.5128198919565223 0 0.73135370988377701 -0.68199835119979291 1 0 0 1 I I 0 1 1 forward I I I I #
face $-1 $74 $75 $25 $-1 $76 reversed single #
loop $-1 $-1 $77 $32 #
plane-surface $-1 -29.597463317426659 66.183338662346287 129.17680242559987 1 0 0 0 -0.73135370988377701 -0.68199835119979291 forward_v I I I I #
face $-1 $78 $79 $26 $-1 $80 forward single #
loop $-1 $81 $82 $33 #
cone-surface $-1 -25.994524342054135 32.938570581558054 4.5128198919565259 0 -0.73135370988377701 -0.68199835119979291 1 0 0 1 I I 0 1 1 forward I I I I #
face $-1 $83 $84 $27 $-1 $85 forward single #
loop $-1 $86 $87 $34 #
cone-surface $-1 -20.590115878995356 32.938570581558054 4.5128198919565259 0 -0.73135370988377701 -0.68199835119979291 1 0 0 1 I I 0 1 1 forward I I I I #
face $-1 $88 $89 $21 $-1 $90 reversed single #
loop $-1 $-1 $91 $35 #
plane-surface $-1 0 0 -7.734302690463708 0 0 1 1 0 0 forward_v I I I I #
coedge $-1 $92 $93 $94 $95 forward $36 $-1 #
face $-1 $96 $97 $22 $-1 $98 reversed single #
loop $-1 $-1 $99 $38 #
plane-surface $-1 -23.292320110524749 -36.029271574982133 2.5300568990969481 0 -0.73135370988377701 0.68199835119979291 1 0 0 forward_v I I I I #
coedge $-1 $100 $101 $102 $103 reversed $39 $-1 #
face $-1 $-1 $104 $23 $-1 $105 forward single #
loop $-1 $106 $107 $41 #
cone-surface $-1 -25.994524342054135 -31.90871153044726 3.5524608135328135 0 0.73135370988377701 -0.68199835119979291 0.5 0 0 1 I I -0.70710678118654746 0.70710678118654746 0.5 forward I I I I #
loop $-1 $-1 $108 $30 #
coedge $-1 $68 $68 $109 $110 reversed $42 $-1 #
face $-1 $-1 $111 $24 $-1 $112 forward single #
loop $-1 $113 $114 $44 #
cone-surface $-1 -20.590115878995356 -31.90871153044726 3.5524608135328135 0 0.73135370988377701 -0.68199835119979291 0.5 0 0 1 I I -0.70710678118654746 0.70710678118654746 0.5 forward I I I I #
loop $-1 $-1 $115 $31 #
coedge $-1 $73 $73 $116 $117 reversed $45 $-1 #
face $-1 $118 $119 $25 $-1 $120 reversed single #
loop $-1 $-1 $121 $47 #
plane-surface $-1 -23.292320110524749 -13.114536043152626 55.230339760643531 0 0.73135370988377701 0.68199835119979291 1 0 0 forward_v I I I I #
coedge $-1 $122 $123 $124 $125 reversed $48 $-1 #
face $-1 $-1 $126 $26 $-1 $127 forward single #
loop $-1 $128 $129 $50 #
cone-surface $-1 -25.994524342054135 31.908711530447263 3.5524608135328171 0 -0.73135370988377701 -0.68199835119979291 0.5 0 0 1 I I -0.70710678118654746 0.70710678118654746 0.5 forward I I I I #
loop $-1 $-1 $130 $33 #
coedge $-1 $82 $82 $131 $132 reversed $51 $-1 #
face $-1 $-1 $133 $27 $-1 $134 forward single #
loop $-1 $135 $136 $53 #
cone-surface $-1 -20.590115878995356 31.908711530447263 3.5524608135328171 0 -0.73135370988377701 -0.68199835119979291 0.5 0 0 1 I I -0.70710678118654746 0.70710678118654746 0.5 forward I I I I #
loop $-1 $-1 $137 $34 #
coedge $-1 $87 $87 $138 $139 reversed $54 $-1 #
face $-1 $140 $141 $21 $-1 $142 reversed single #
loop $-1 $-1 $143 $56 #
plane-surface $-1 0 -36.029271574982133 0 0 1 0 0 0 1 forward_v I I I I #
coedge $-1 $144 $145 $146 $147 forward $57 $-1 #
coedge $-1 $148 $59 $149 $150 forward $36 $-1 #
coedge $-1 $59 $148 $151 $152 forward $36 $-1 #
coedge $-1 $153 $154 $59 $95 reversed $155 $-1 #
edge $-1 $156 -36.029271574982133 $157 36.029271574982133 $94 $158 forward 7 unknown #
face $-1 $159 $160 $22 $-1 $161 reversed single #
loop $-1 $-1 $162 $60 #
plane-surface $-1 -29.597463317426659 -115.32714628048105 76.476519564053291 1 0 0 0 0.73135370988377701 -0.68199835119979291 forward_v I I I I #
coedge $-1 $163 $164 $165 $166 reversed $61 $-1 #
coedge $-1 $101 $63 $167 $168 reversed $39 $-1 #
coedge $-1 $63 $100 $163 $169 reversed $39 $-1 #
coedge $-1 $165 $170 $63 $103 forward $171 $-1 #
edge $-1 $172 21.63430156525839 $173 26.487339159768748 $102 $174 forward 7 unknown #
loop $-1 $-1 $109 $64 #
plane-surface $-1 -23.292320110524749 -36.029271574982133 2.5300568990969481 0 -0.73135370988377701 0.68199835119979291 1 0 0 forward_v I I I I #
loop $-1 $-1 $175 $41 #
coedge $-1 $107 $107 $108 $176 reversed $65 $-1 #
coedge $-1 $108 $108 $107 $176 forward $67 $-1 #
coedge $-1 $109 $109 $68 $110 forward $104 $-1 #
edge $-1 $177 3.2478629114319846e-015 $177 6.283185307179604 $109 $178 forward 7 unknown #
loop $-1 $-1 $116 $69 #
plane-surface $-1 -23.292320110524749 -36.029271574982133 2.5300568990969481 0 -0.73135370988377701 0.68199835119979291 1 0 0 forward_v I I I I #
loop $-1 $-1 $179 $44 #
coedge $-1 $114 $114 $115 $180 reversed $70 $-1 #
coedge $-1 $115 $115 $114 $180 forward $72 $-1 #
coedge $-1 $116 $116 $73 $117 forward $111 $-1 #
edge $-1 $181 3.2478629114319846e-015 $181 6.283185307179604 $116 $182 forward 7 unknown #
face $-1 $183 $184 $25 $-1 $185 reversed single #
loop $-1 $-1 $186 $74 #
plane-surface $-1 -16.987176903622839 66.183338662346287 129.17680242559987 -1 0 0 0 0.73135370988377701 0.68199835119979291 forward_v I I I I #
coedge $-1 $187 $188 $189 $190 reversed $75 $-1 #
coedge $-1 $123 $77 $191 $192 reversed $48 $-1 #
coedge $-1 $77 $122 $187 $193 reversed $48 $-1 #
coedge $-1 $189 $194 $77 $125 forward $195 $-1 #
edge $-1 $196 -2.937602243808989 $197 1.9154353507013724 $124 $198 forward 7 unknown #
loop $-1 $-1 $131 $78 #
plane-surface $-1 -23.292320110524749 -13.114536043152626 55.230339760643531 0 0.73135370988377701 0.68199835119979291 1 0 0 forward_v I I I I #
loop $-1 $-1 $199 $50 #
coedge $-1 $129 $129 $130 $200 reversed $79 $-1 #
coedge $-1 $130 $130 $129 $200 forward $81 $-1 #
coedge $-1 $131 $131 $82 $132 forward $126 $-1 #
edge $-1 $201 3.8456262443299968e-015 $201 6.283185307179604 $131 $202 forward 7 unknown #
loop $-1 $-1 $138 $83 #
plane-surface $-1 -23.292320110524749 -13.114536043152626 55.230339760643531 0 0.73135370988377701 0.68199835119979291 1 0 0 forward_v I I I I #
loop $-1 $-1 $203 $53 #
coedge $-1 $136 $136 $137 $204 reversed $84 $-1 #
coedge $-1 $137 $137 $136 $204 forward $86 $-1 #
coedge $-1 $138 $138 $87 $139 forward $133 $-1 #
edge $-1 $205 3.8456262443299968e-015 $205 6.283185307179604 $138 $206 forward 7 unknown #
face $-1 $207 $208 $21 $-1 $209 reversed single #
loop $-1 $-1 $210 $88 #
plane-surface $-1 -54.213080233161413 0 0 1 0 0 0 0 -1 forward_v I I I I #
coedge $-1 $211 $151 $212 $213 forward $89 $-1 #
coedge $-1 $214 $91 $211 $215 forward $57 $-1 #
coedge $-1 $91 $214 $216 $217 forward $57 $-1 #
coedge $-1 $154 $153 $91 $147 reversed $155 $-1 #
edge $-1 $218 -36.029271574982133 $219 36.029271574982133 $146 $220 forward 7 unknown #
coedge $-1 $93 $92 $221 $222 forward $36 $-1 #
coedge $-1 $223 $224 $92 $150 reversed $208 $-1 #
edge $-1 $157 -54.213080233161413 $225 54.213080233161413 $149 $226 forward 7 unknown #
coedge $-1 $143 $227 $93 $152 reversed $89 $-1 #
edge $-1 $228 -54.213080233161413 $156 54.213080233161413 $151 $229 forward 7 unknown #
coedge $-1 $146 $94 $227 $230 forward $155 $-1 #
coedge $-1 $94 $146 $223 $231 reversed $155 $-1 #
loop $-1 $-1 $153 $207 #
vertex $-1 $95 $232 #
vertex $-1 $95 $233 #
straight-curve $-1 54.213080233161413 0 7.734302690463708 0 1 0 I I #
face $-1 $-1 $171 $22 $-1 $234 forward single #
loop $-1 $-1 $235 $96 #
plane-surface $-1 0 -36.029271574982133 0 0 1 0 0 0 1 forward_v I I I I #
coedge $-1 $236 $237 $238 $239 reversed $97 $-1 #
coedge $-1 $240 $99 $101 $169 forward $61 $-1 #
coedge $-1 $99 $240 $236 $241 forward $61 $-1 #
coedge $-1 $238 $102 $99 $166 forward $171 $-1 #
edge $-1 $173 5.3410168483604643 $242 17.951303262164284 $165 $243 forward 7 unknown #
coedge $-1 $244 $245 $100 $168 forward $160 $-1 #
edge $-1 $246 -35.708202882929697 $172 -30.503957091562938 $167 $247 forward 7 unknown #
edge $-1 $173 -7.1159081044297858 $246 0 $101 $248 forward 7 unknown #
coedge $-1 $102 $238 $244 $249 forward $171 $-1 #
loop $-1 $-1 $238 $159 #
vertex $-1 $168 $250 #
vertex $-1 $103 $251 #
straight-curve $-1 -16.987176903622839 -57.663573140240523 7.7343026904637071 0 1 0 I I #
coedge $-1 $175 $175 $-1 $252 reversed $106 $-1 #
edge $-1 $253 0 $253 6.2831853071796004 $107 $254 forward 7 unknown #
vertex $-1 $110 $255 #
ellipse-curve $-1 -25.994524342054135 -33.602752777726955 5.1321797947803294 0 -0.73135370988377701 0.68199835119979291 1 0 0 1 I I #
coedge $-1 $179 $179 $-1 $256 reversed $113 $-1 #
edge $-1 $257 0 $257 6.2831853071796004 $114 $258 forward 7 unknown #
vertex $-1 $117 $259 #
ellipse-curve $-1 -20.590115878995356 -33.602752777726955 5.1321797947803294 0 -0.73135370988377701 0.68199835119979291 1 0 0 1 I I #
face $-1 $-1 $195 $25 $-1 $260 forward single #
loop $-1 $-1 $261 $118 #
plane-surface $-1 0 36.029271574982133 0 0 -1 0 0 0 -1 forward_v I I I I #
coedge $-1 $262 $263 $264 $265 reversed $119 $-1 #
coedge $-1 $266 $121 $123 $193 forward $75 $-1 #
coedge $-1 $121 $266 $262 $267 forward $75 $-1 #
coedge $-1 $264 $124 $121 $190 forward $195 $-1 #
edge $-1 $197 -17.951303262164284 $268 -5.3410168483604643 $189 $269 forward 7 unknown #
coedge $-1 $270 $271 $122 $192 forward $184 $-1 #
edge $-1 $272 -62.058344313702996 $196 -56.85409852233623 $191 $273 forward 7 unknown #
edge $-1 $197 64.942635045534473 $272 72.058543149964265 $123 $274 forward 7 unknown #
coedge $-1 $124 $264 $270 $275 forward $195 $-1 #
loop $-1 $-1 $264 $183 #
vertex $-1 $192 $276 #
vertex $-1 $125 $277 #
straight-curve $-1 -29.597463317426659 33.091669331173144 7.7343026904637071 0 -1 0 I I #
coedge $-1 $199 $199 $-1 $278 reversed $128 $-1 #
edge $-1 $279 0 $279 6.2831853071796004 $129 $280 forward 7 unknown #
vertex $-1 $132 $281 #
ellipse-curve $-1 -25.994524342054135 33.602752777726948 5.1321797947803294 0 0.73135370988377701 0.68199835119979291 1 0 0 1 I I #
coedge $-1 $203 $203 $-1 $282 reversed $135 $-1 #
edge $-1 $283 0 $283 6.2831853071796004 $136 $284 forward 7 unknown #
vertex $-1 $139 $285 #
ellipse-curve $-1 -20.590115878995356 33.602752777726948 5.1321797947803294 0 0.73135370988377701 0.68199835119979291 1 0 0 1 I I #
face $-1 $-1 $155 $21 $-1 $286 reversed single #
loop $-1 $-1 $223 $140 #
plane-surface $-1 0 36.029271574982133 0 0 -1 0 0 0 -1 forward_v I I I I #
coedge $-1 $287 $221 $224 $288 forward $141 $-1 #
coedge $-1 $227 $143 $144 $215 reversed $89 $-1 #
coedge $-1 $221 $287 $143 $213 reversed $141 $-1 #
edge $-1 $228 -7.734302690463708 $289 7.734302690463708 $212 $290 forward 7 unknown #
coedge $-1 $145 $144 $287 $291 forward $57 $-1 #
edge $-1 $219 -54.213080233161413 $289 54.213080233161413 $211 $292 forward 7 unknown #
coedge $-1 $224 $223 $145 $217 reversed $208 $-1 #
edge $-1 $293 -54.213080233161413 $218 54.213080233161413 $216 $294 forward 7 unknown #
vertex $-1 $147 $295 #
vertex $-1 $230 $296 #
straight-curve $-1 54.213080233161413 0 -7.734302690463708 0 -1 0 I I #
coedge $-1 $210 $212 $148 $222 reversed $141 $-1 #
edge $-1 $225 -36.029271574982133 $228 36.029271574982133 $221 $297 forward 7 unknown #
coedge $-1 $216 $149 $154 $231 forward $208 $-1 #
coedge $-1 $149 $216 $210 $288 reversed $208 $-1 #
vertex $-1 $150 $298 #
straight-curve $-1 0 36.029271574982133 7.734302690463708 -1 0 0 I I #
coedge $-1 $151 $211 $153 $230 reversed $89 $-1 #
vertex $-1 $222 $299 #
straight-curve $-1 0 -36.029271574982133 7.734302690463708 1 0 0 I I #
edge $-1 $156 -7.734302690463708 $219 7.734302690463708 $153 $300 forward 7 unknown #
edge $-1 $157 -7.734302690463708 $218 7.734302690463708 $154 $301 forward 7 unknown #
point $-1 54.213080233161413 -36.029271574982133 7.734302690463708 #
point $-1 54.213080233161413 36.029271574982133 7.734302690463708 #
plane-surface $-1 0 0 7.734302690463708 0 0 1 1 0 0 forward_v I I I I #
coedge $-1 $245 $244 $237 $302 forward $160 $-1 #
coedge $-1 $237 $162 $164 $241 reversed $97 $-1 #
coedge $-1 $162 $236 $235 $302 reversed $97 $-1 #
coedge $-1 $170 $165 $162 $239 forward $171 $-1 #
edge $-1 $242 -26.487339159768748 $303 -21.63430156525839 $238 $304 forward 7 unknown #
coedge $-1 $164 $163 $245 $305 reversed $61 $-1 #
edge $-1 $306 0 $242 7.1159081044297858 $236 $307 forward 7 unknown #
vertex $-1 $166 $308 #
straight-curve $-1 -11.646160055262374 -31.176233980471771 7.734302690463708 -1 0 0 I I #
coedge $-1 $235 $167 $170 $249 reversed $160 $-1 #
coedge $-1 $167 $235 $240 $305 forward $160 $-1 #
vertex $-1 $168 $309 #
straight-curve $-1 -16.987176903622839 -36.029271574982133 38.238259782026645 0 0 1 I I #
straight-curve $-1 -16.987176903622839 -36.029271574982133 2.5300568990969481 0 -0.68199835119979291 -0.73135370988377701 I I #
edge $-1 $303 -29.597463317426659 $172 -16.987176903622839 $244 $310 forward 7 unknown #
point $-1 -16.987176903622839 -36.029271574982133 7.734302690463708 #
point $-1 -16.987176903622839 -31.176233980471775 7.734302690463708 #
edge $-1 $311 1 $311 0 $175 $-1 forward 7 unknown #
vertex $-1 $176 $312 #
ellipse-curve $-1 -25.994524342054135 -32.274388385389145 3.89345998913271 0 -0.73135370988377701 0.68199835119979291 1 0 0 1 I I #
point $-1 -24.994524342054135 -33.602752777726955 5.1321797947803338 #
edge $-1 $313 1 $313 0 $179 $-1 forward 7 unknown #
vertex $-1 $180 $314 #
ellipse-curve $-1 -20.590115878995356 -32.274388385389145 3.89345998913271 0 -0.73135370988377701 0.68199835119979291 1 0 0 1 I I #
point $-1 -19.590115878995356 -33.602752777726955 5.1321797947803338 #
plane-surface $-1 0 0 7.734302690463708 0 0 1 1 0 0 forward_v I I I I #
coedge $-1 $271 $270 $263 $315 forward $184 $-1 #
coedge $-1 $263 $186 $188 $267 reversed $119 $-1 #
coedge $-1 $186 $262 $261 $315 reversed $119 $-1 #
coedge $-1 $194 $189 $186 $265 forward $195 $-1 #
edge $-1 $268 -1.9154353507013724 $316 2.937602243808989 $264 $317 forward 7 unknown #
coedge $-1 $188 $187 $271 $318 reversed $75 $-1 #
edge $-1 $319 -72.058543149964265 $268 -64.942635045534473 $262 $320 forward 7 unknown #
vertex $-1 $190 $321 #
straight-curve $-1 -11.646160055262374 31.176233980471771 7.7343026904637036 1 0 0 I I #
coedge $-1 $261 $191 $194 $275 reversed $184 $-1 #
coedge $-1 $191 $261 $266 $318 forward $184 $-1 #
vertex $-1 $192 $322 #
straight-curve $-1 -29.597463317426659 36.029271574982133 64.588401212799937 0 0 1 I I #
straight-curve $-1 -29.597463317426659 -13.114536043152626 55.230339760643531 0 0.68199835119979291 -0.73135370988377701 I I #
edge $-1 $316 16.987176903622839 $196 29.597463317426659 $270 $323 forward 7 unknown #
point $-1 -29.597463317426659 36.029271574982133 7.734302690463708 #
point $-1 -29.597463317426659 31.176233980471771 7.7343026904637 #
edge $-1 $324 1 $324 0 $199 $-1 forward 7 unknown #
vertex $-1 $200 $325 #
ellipse-curve $-1 -25.994524342054135 32.274388385389152 3.8934599891327135 0 0.73135370988377701 0.68199835119979291 1 0 0 1 I I #
point $-1 -24.994524342054135 33.602752777726963 5.1321797947803374 #
edge $-1 $326 1 $326 0 $203 $-1 forward 7 unknown #
vertex $-1 $204 $327 #
ellipse-curve $-1 -20.590115878995356 32.274388385389152 3.8934599891327135 0 0.73135370988377701 0.68199835119979291 1 0 0 1 I I #
point $-1 -19.590115878995356 33.602752777726963 5.1321797947803374 #
plane-surface $-1 54.213080233161413 0 0 -1 0 0 0 0 1 forward_v I I I I #
coedge $-1 $212 $210 $214 $291 reversed $141 $-1 #
edge $-1 $225 -7.734302690463708 $293 7.734302690463708 $224 $328 forward 7 unknown #
vertex $-1 $291 $329 #
straight-curve $-1 -54.213080233161413 -36.029271574982133 0 0 0 -1 I I #
edge $-1 $289 -36.029271574982133 $293 36.029271574982133 $287 $330 forward 7 unknown #
straight-curve $-1 0 -36.029271574982133 -7.734302690463708 -1 0 0 I I #
vertex $-1 $217 $331 #
straight-curve $-1 0 36.029271574982133 -7.734302690463708 1 0 0 I I #
point $-1 54.213080233161413 36.029271574982133 -7.734302690463708 #
point $-1 54.213080233161413 -36.029271574982133 -7.734302690463708 #
straight-curve $-1 -54.213080233161413 0 7.734302690463708 0 -1 0 I I #
point $-1 -54.213080233161413 36.029271574982133 7.734302690463708 #
point $-1 -54.213080233161413 -36.029271574982133 7.734302690463708 #
straight-curve $-1 54.213080233161413 -36.029271574982133 0 0 0 -1 I I #
straight-curve $-1 54.213080233161413 36.029271574982133 0 0 0 -1 I I #
edge $-1 $303 30.503957091562938 $306 35.708202882929697 $235 $332 forward 7 unknown #
vertex $-1 $249 $333 #
straight-curve $-1 -29.597463317426659 -57.663573140240523 7.7343026904637071 0 -1 0 I I #
edge $-1 $306 -17.951303262164284 $246 -5.3410168483604643 $245 $334 forward 7 unknown #
vertex $-1 $305 $335 #
straight-curve $-1 -29.597463317426659 -36.029271574982133 2.5300568990969481 0 0.68199835119979291 0.73135370988377701 I I #
point $-1 -29.597463317426659 -31.176233980471775 7.734302690463708 #
point $-1 -16.987176903622839 -36.029271574982133 2.5300568990969481 #
straight-curve $-1 0 -36.029271574982133 7.734302690463708 1 0 0 I I #
vertex $-1 $252 $336 #
point $-1 -24.994524342054135 -32.274388385389145 3.89345998913271 #
vertex $-1 $256 $337 #
point $-1 -19.590115878995356 -32.274388385389145 3.89345998913271 #
edge $-1 $316 56.85409852233623 $319 62.058344313702996 $261 $338 forward 7 unknown #
vertex $-1 $275 $339 #
straight-curve $-1 -16.987176903622839 33.091669331173144 7.7343026904637071 0 1 0 I I #
edge $-1 $319 5.3410168483604643 $272 17.951303262164284 $271 $340 forward 7 unknown #
vertex $-1 $318 $341 #
straight-curve $-1 -16.987176903622839 -13.114536043152626 55.230339760643531 0 -0.68199835119979291 0.73135370988377701 I I #
point $-1 -16.987176903622839 31.176233980471771 7.7343026904637 #
point $-1 -29.597463317426659 36.029271574982133 2.530056899096941 #
straight-curve $-1 0 36.029271574982133 7.734302690463708 -1 0 0 I I #
vertex $-1 $278 $342 #
point $-1 -24.994524342054135 32.274388385389152 3.8934599891327135 #
vertex $-1 $282 $343 #
point $-1 -19.590115878995356 32.274388385389152 3.8934599891327135 #
straight-curve $-1 -54.213080233161413 36.029271574982133 0 0 0 -1 I I #
point $-1 -54.213080233161413 -36.029271574982133 -7.734302690463708 #
straight-curve $-1 -54.213080233161413 0 -7.734302690463708 0 1 0 I I #
point $-1 -54.213080233161413 36.029271574982133 -7.734302690463708 #
straight-curve $-1 -29.597463317426659 -36.029271574982133 38.238259782026645 0 0 -1 I I #
point $-1 -29.597463317426659 -36.029271574982133 7.734302690463708 #
straight-curve $-1 -11.646160055262374 -36.029271574982133 2.5300568990969445 1 0 0 I I #
point $-1 -29.597463317426659 -36.029271574982133 2.5300568990969481 #
point $-1 -25.994524342054135 -31.543034675505371 3.2114616379329171 #
point $-1 -20.590115878995356 -31.543034675505371 3.2114616379329171 #
straight-curve $-1 -16.987176903622839 36.029271574982133 64.588401212799937 0 0 -1 I I #
point $-1 -16.987176903622839 36.029271574982133 7.734302690463708 #
straight-curve $-1 -11.646160055262374 36.029271574982133 2.5300568990969374 -1 0 0 I I #
point $-1 -16.987176903622839 36.029271574982133 2.530056899096941 #
point $-1 -25.994524342054135 31.543034675505375 3.2114616379329206 #
point $-1 -20.590115878995356 31.543034675505375 3.2114616379329206 #
End-of-ACIS-data 