500 0 9 0           
7 Unknown 11 ACIS 5.0 NT 24 Fri Mar 26 15:05:55 1999 
-1 9.9999999999999995e-007 1e-010 
body $-1 $9 $-1 $10 #
body $-1 $11 $-1 $12 #
body $-1 $13 $-1 $14 #
body $-1 $15 $-1 $16 #
body $-1 $17 $-1 $18 #
body $-1 $19 $-1 $20 #
body $-1 $21 $-1 $22 #
body $-1 $23 $-1 $24 #
body $-1 $25 $-1 $26 #
lump $-1 $-1 $27 $0 #
transform $-1 1 0 0 0 1 0 0 0 1 60.789208655049286 36.850501028434273 13.206890279162421 1 rotate no_reflect no_shear #
lump $-1 $-1 $28 $1 #
transform $-1 1 0 0 0 1 0 0 0 1 60.789208655049286 36.850501028434273 13.206890279162421 1 rotate no_reflect no_shear #
lump $-1 $-1 $29 $2 #
transform $-1 1 0 0 0 1 0 0 0 1 60.789208655049286 36.850501028434273 13.206890279162421 1 rotate no_reflect no_shear #
lump $-1 $-1 $30 $3 #
transform $-1 1 0 0 0 1 0 0 0 1 60.789208655049286 36.850501028434273 13.206890279162421 1 rotate no_reflect no_shear #
lump $-1 $-1 $31 $4 #
transform $-1 1 0 0 0 1 0 0 0 1 60.789208655049286 36.850501028434273 13.206890279162421 1 rotate no_reflect no_shear #
lump $-1 $-1 $32 $5 #
transform $-1 1 0 0 0 1 0 0 0 1 60.789208655049286 36.850501028434273 13.206890279162421 1 rotate no_reflect no_shear #
lump $-1 $-1 $33 $6 #
transform $-1 1 0 0 0 1 0 0 0 1 60.789208655049286 36.850501028434273 13.206890279162421 1 rotate no_reflect no_shear #
lump $-1 $-1 $34 $7 #
transform $-1 1 0 0 0 1 0 0 0 1 60.789208655049286 36.850501028434273 13.206890279162421 1 rotate no_reflect no_shear #
lump $-1 $-1 $35 $8 #
transform $-1 1 0 0 0 1 0 0 0 1 60.789208655049286 36.850501028434273 13.206890279162421 1 rotate no_reflect no_shear #
shell $-1 $-1 $-1 $36 $-1 $9 #
shell $-1 $-1 $-1 $37 $-1 $11 #
shell $-1 $-1 $-1 $38 $-1 $13 #
shell $-1 $-1 $-1 $39 $-1 $15 #
shell $-1 $-1 $-1 $40 $-1 $17 #
shell $-1 $-1 $-1 $41 $-1 $19 #
shell $-1 $-1 $-1 $42 $-1 $21 #
shell $-1 $-1 $-1 $43 $-1 $23 #
shell $-1 $-1 $-1 $44 $-1 $25 #
face $-1 $45 $46 $27 $-1 $47 forward single #
face $-1 $48 $49 $28 $-1 $50 forward single #
face $-1 $51 $52 $29 $-1 $53 forward single #
face $-1 $54 $55 $30 $-1 $56 reversed single #
face $-1 $57 $58 $31 $-1 $59 forward single #
face $-1 $60 $61 $32 $-1 $62 forward single #
face $-1 $63 $64 $33 $-1 $65 forward single #
face $-1 $66 $67 $34 $-1 $68 reversed single #
face $-1 $69 $70 $35 $-1 $71 forward single #
face $-1 $72 $73 $27 $-1 $74 reversed single #
loop $-1 $-1 $75 $36 #
plane-surface $-1 0 0 13.206890279162421 0 0 1 1 0 0 forward_v I I I I #
face $-1 $76 $77 $28 $-1 $78 reversed single #
loop $-1 $-1 $79 $37 #
plane-surface $-1 0 -31.715194383330967 -9.959318095705795 0 0 1 1 0 0 forward_v I I I I #
face $-1 $80 $81 $29 $-1 $82 reversed single #
loop $-1 $-1 $83 $38 #
plane-surface $-1 0 31.71519438333096 -9.959318095705795 0 0 1 1 0 0 forward_v I I I I #
face $-1 $84 $85 $30 $-1 $86 reversed single #
loop $-1 $-1 $87 $39 #
plane-surface $-1 -163.89355495205317 -16.878444371954181 70.872905819770324 0 -1 0 0.84804810408105047 0 -0.52991925155115449 forward_v I I I I #
face $-1 $88 $89 $31 $-1 $90 forward single #
loop $-1 $91 $92 $40 #
cone-surface $-1 -58.252898697320461 -24.639599064972963 9.5615664708201162 0.84804810408105047 0 -0.52991925155115449 0.13247981288778862 0 0.21201202602026262 1 I I 0 1 0.25 forward I I I I #
face $-1 $93 $94 $32 $-1 $95 forward single #
loop $-1 $96 $97 $41 #
cone-surface $-1 -58.252898697320461 -21.729166055090921 9.5615664708201162 0.84804810408105047 0 -0.52991925155115449 0.13247981288778862 0 0.21201202602026262 1 I I 0 1 0.25 forward I I I I #
face $-1 $98 $99 $33 $-1 $100 forward single #
loop $-1 $101 $102 $42 #
cone-surface $-1 -58.252898697320461 -18.81873304520888 9.5615664708201162 0.84804810408105047 0 -0.52991925155115449 0.13247981288778862 0 0.21201202602026262 1 I I 0 1 0.25 forward I I I I #
face $-1 $103 $104 $34 $-1 $105 reversed single #
loop $-1 $-1 $106 $43 #
plane-surface $-1 78.761609791632424 18.878376364064035 171.40900067839274 0 -1 0 -0.77714596973225614 0 -0.62932038083071107 forward_v I I I I #
face $-1 $107 $108 $35 $-1 $109 forward single #
loop $-1 $110 $111 $44 #
cone-surface $-1 52.677016502634466 11.820663001865206 4.4356275644201695 -0.77714596973225614 0 -0.62932038083071107 1.8879611424921332 0 -2.3314379091967683 1 I I 0 1 3 forward I I I I #
face $-1 $112 $113 $27 $-1 $114 reversed single #
loop $-1 $-1 $115 $45 #
plane-surface $-1 0 0 -13.206890279162421 0 0 1 1 0 0 forward_v I I I I #
coedge $-1 $116 $117 $118 $119 forward $46 $-1 #
face $-1 $120 $121 $28 $-1 $122 reversed single #
loop $-1 $-1 $123 $48 #
plane-surface $-1 0 -26.579887738227661 -11.583104187434108 0 -1 0 0 0 -1 forward_v I I I I #
coedge $-1 $124 $125 $126 $127 reversed $49 $-1 #
face $-1 $128 $129 $29 $-1 $130 reversed single #
loop $-1 $-1 $131 $51 #
plane-surface $-1 0 26.579887738227654 -11.583104187434108 0 1 0 0 0 1 forward_v I I I I #
coedge $-1 $132 $133 $134 $135 reversed $52 $-1 #
face $-1 $136 $137 $30 $-1 $138 reversed single #
loop $-1 $-1 $139 $54 #
plane-surface $-1 -60.789208655049322 -21.729166055090921 6.446161914028977 -0.84804810408105047 0 0.52991925155115449 0.52991925155115449 0 0.84804810408105047 forward_v I I I I #
coedge $-1 $140 $141 $142 $143 reversed $55 $-1 #
face $-1 $-1 $144 $31 $-1 $145 forward single #
loop $-1 $146 $147 $57 #
cone-surface $-1 -57.722868632269801 -24.639599064972963 9.2303669386006444 0.84804810408105047 0 -0.52991925155115449 0.066239906443894311 0 0.10600601301013131 1 I I -0.70710678118654746 0.70710678118654746 0.125 forward I I I I #
loop $-1 $-1 $148 $40 #
coedge $-1 $92 $92 $149 $150 reversed $58 $-1 #
face $-1 $-1 $151 $32 $-1 $152 forward single #
loop $-1 $153 $154 $60 #
cone-surface $-1 -57.722868632269801 -21.729166055090921 9.2303669386006444 0.84804810408105047 0 -0.52991925155115449 0.066239906443894311 0 0.10600601301013131 1 I I -0.70710678118654746 0.70710678118654746 0.125 forward I I I I #
loop $-1 $-1 $155 $41 #
coedge $-1 $97 $97 $156 $157 reversed $61 $-1 #
face $-1 $-1 $158 $33 $-1 $159 forward single #
loop $-1 $160 $161 $63 #
cone-surface $-1 -57.722868632269801 -18.81873304520888 9.2303669386006444 0.84804810408105047 0 -0.52991925155115449 0.066239906443894311 0 0.10600601301013131 1 I I -0.70710678118654746 0.70710678118654746 0.125 forward I I I I #
loop $-1 $-1 $162 $42 #
coedge $-1 $102 $102 $163 $164 reversed $64 $-1 #
face $-1 $165 $166 $34 $-1 $167 reversed single #
loop $-1 $-1 $168 $66 #
plane-surface $-1 -15.722567227337038 11.820663001865206 94.897224796006398 0.77714596973225614 0 0.62932038083071107 0.62932038083071107 0 -0.77714596973225614 forward_v I I I I #
coedge $-1 $169 $170 $171 $172 reversed $67 $-1 #
face $-1 $-1 $173 $35 $-1 $174 forward single #
loop $-1 $175 $176 $69 #
cone-surface $-1 48.579229947061471 11.820663001865206 1.1173055294945744 -0.77714596973225614 0 -0.62932038083071107 0.9439805712460666 0 -1.1657189545983841 1 I I -0.70710678118654757 0.70710678118654757 1.5 forward I I I I #
loop $-1 $-1 $177 $44 #
coedge $-1 $111 $111 $178 $179 reversed $70 $-1 #
face $-1 $180 $181 $27 $-1 $182 reversed single #
loop $-1 $-1 $183 $72 #
plane-surface $-1 0 -36.850501028434273 0 0 1 0 0 0 1 forward_v I I I I #
coedge $-1 $184 $185 $186 $187 forward $73 $-1 #
coedge $-1 $188 $75 $189 $190 forward $46 $-1 #
coedge $-1 $75 $188 $191 $192 forward $46 $-1 #
coedge $-1 $193 $194 $75 $119 reversed $195 $-1 #
edge $-1 $196 -36.850501028434273 $197 36.850501028434273 $118 $198 forward 7 unknown #
face $-1 $199 $200 $28 $-1 $201 reversed single #
loop $-1 $-1 $202 $76 #
plane-surface $-1 0 0 -13.206890279162421 0 0 1 1 0 0 forward_v I I I I #
coedge $-1 $203 $204 $205 $206 reversed $77 $-1 #
coedge $-1 $207 $79 $204 $208 forward $49 $-1 #
coedge $-1 $79 $207 $209 $210 reversed $49 $-1 #
coedge $-1 $211 $205 $79 $127 forward $200 $-1 #
edge $-1 $212 10.722290546562178 $213 20.992903836768789 $126 $214 forward 7 unknown #
face $-1 $215 $216 $29 $-1 $217 reversed single #
loop $-1 $-1 $134 $80 #
plane-surface $-1 60.789208655049286 0 0 -1 0 0 0 0 1 forward_v I I I I #
coedge $-1 $218 $219 $220 $221 reversed $81 $-1 #
coedge $-1 $222 $83 $223 $224 reversed $52 $-1 #
coedge $-1 $83 $222 $219 $225 forward $52 $-1 #
coedge $-1 $226 $227 $83 $135 forward $129 $-1 #
edge $-1 $228 -20.992903836768786 $229 -10.722290546562174 $134 $230 forward 7 unknown #
face $-1 $231 $232 $30 $-1 $233 reversed single #
loop $-1 $-1 $234 $84 #
plane-surface $-1 -163.89355495205317 -26.579887738227661 70.872905819770324 0 1 0 -0.84804810408105047 0 0.52991925155115449 forward_v I I I I #
coedge $-1 $235 $236 $237 $238 reversed $85 $-1 #
coedge $-1 $141 $87 $239 $240 reversed $55 $-1 #
coedge $-1 $87 $140 $235 $241 reversed $55 $-1 #
coedge $-1 $237 $242 $87 $143 forward $232 $-1 #
edge $-1 $243 22.229562630722739 $244 28.990290995856128 $142 $245 forward 7 unknown #
loop $-1 $-1 $149 $88 #
plane-surface $-1 -60.789208655049322 -21.729166055090921 6.446161914028977 -0.84804810408105047 0 0.52991925155115449 0.52991925155115449 0 0.84804810408105047 forward_v I I I I #
loop $-1 $-1 $246 $57 #
coedge $-1 $147 $147 $148 $247 reversed $89 $-1 #
coedge $-1 $148 $148 $147 $247 forward $91 $-1 #
coedge $-1 $149 $149 $92 $150 forward $144 $-1 #
edge $-1 $248 0 $248 6.2831853071796004 $149 $249 forward 7 unknown #
loop $-1 $-1 $156 $93 #
plane-surface $-1 -60.789208655049322 -21.729166055090921 6.446161914028977 -0.84804810408105047 0 0.52991925155115449 0.52991925155115449 0 0.84804810408105047 forward_v I I I I #
loop $-1 $-1 $250 $60 #
coedge $-1 $154 $154 $155 $251 reversed $94 $-1 #
coedge $-1 $155 $155 $154 $251 forward $96 $-1 #
coedge $-1 $156 $156 $97 $157 forward $151 $-1 #
edge $-1 $252 0 $252 6.2831853071796004 $156 $253 forward 7 unknown #
loop $-1 $-1 $163 $98 #
plane-surface $-1 -60.789208655049322 -21.729166055090921 6.446161914028977 -0.84804810408105047 0 0.52991925155115449 0.52991925155115449 0 0.84804810408105047 forward_v I I I I #
loop $-1 $-1 $254 $63 #
coedge $-1 $161 $161 $162 $255 reversed $99 $-1 #
coedge $-1 $162 $162 $161 $255 forward $101 $-1 #
coedge $-1 $163 $163 $102 $164 forward $158 $-1 #
edge $-1 $256 0 $256 6.2831853071796004 $163 $257 forward 7 unknown #
face $-1 $258 $259 $34 $-1 $260 forward single #
loop $-1 $-1 $261 $103 #
plane-surface $-1 78.761609791632424 4.7629496396663775 171.40900067839274 0 1 0 0.77714596973225614 0 0.62932038083071107 forward_v I I I I #
coedge $-1 $262 $263 $264 $265 reversed $104 $-1 #
coedge $-1 $170 $106 $266 $267 reversed $67 $-1 #
coedge $-1 $106 $169 $262 $268 reversed $67 $-1 #
coedge $-1 $264 $269 $106 $172 forward $259 $-1 #
edge $-1 $270 -21.408403759233074 $271 -11.048154656352665 $171 $272 forward 7 unknown #
loop $-1 $-1 $178 $107 #
plane-surface $-1 -15.722567227337038 11.820663001865206 94.897224796006398 0.77714596973225614 0 0.62932038083071107 0.62932038083071107 0 -0.77714596973225614 forward_v I I I I #
loop $-1 $-1 $273 $69 #
coedge $-1 $176 $176 $177 $274 reversed $108 $-1 #
coedge $-1 $177 $177 $176 $274 forward $110 $-1 #
coedge $-1 $178 $178 $111 $179 forward $173 $-1 #
edge $-1 $275 0 $275 6.2831853071796004 $178 $276 forward 7 unknown #
face $-1 $277 $278 $27 $-1 $279 reversed single #
loop $-1 $-1 $280 $112 #
plane-surface $-1 -60.789208655049286 0 0 1 0 0 0 0 -1 forward_v I I I I #
coedge $-1 $281 $191 $282 $283 forward $113 $-1 #
coedge $-1 $284 $115 $281 $285 forward $73 $-1 #
coedge $-1 $115 $284 $286 $287 forward $73 $-1 #
coedge $-1 $194 $193 $115 $187 reversed $195 $-1 #
edge $-1 $288 -36.850501028434273 $289 36.850501028434273 $186 $290 forward 7 unknown #
coedge $-1 $117 $116 $291 $292 forward $46 $-1 #
coedge $-1 $293 $294 $116 $190 reversed $278 $-1 #
edge $-1 $197 -60.789208655049286 $295 60.789208655049286 $189 $296 forward 7 unknown #
coedge $-1 $183 $297 $117 $192 reversed $113 $-1 #
edge $-1 $298 -60.789208655049286 $196 60.789208655049286 $191 $299 forward 7 unknown #
coedge $-1 $186 $118 $297 $300 forward $195 $-1 #
coedge $-1 $118 $186 $293 $301 reversed $195 $-1 #
loop $-1 $-1 $193 $277 #
vertex $-1 $119 $302 #
vertex $-1 $119 $303 #
straight-curve $-1 60.789208655049286 0 13.206890279162421 0 1 0 I I #
face $-1 $304 $305 $28 $-1 $306 reversed single #
loop $-1 $-1 $205 $120 #
plane-surface $-1 60.789208655049286 0 0 -1 0 0 0 0 1 forward_v I I I I #
coedge $-1 $307 $308 $203 $309 forward $121 $-1 #
coedge $-1 $310 $123 $202 $309 reversed $77 $-1 #
coedge $-1 $123 $310 $124 $208 reversed $77 $-1 #
coedge $-1 $126 $311 $123 $206 forward $200 $-1 #
edge $-1 $312 -7.4153381854453668 $212 -4.167766001988741 $205 $313 forward 7 unknown #
coedge $-1 $125 $124 $314 $315 reversed $49 $-1 #
edge $-1 $212 -60.789208655049286 $316 60.789208655049286 $204 $317 forward 7 unknown #
coedge $-1 $318 $319 $125 $210 forward $305 $-1 #
edge $-1 $213 -60.789208655049286 $320 60.789208655049286 $209 $321 forward 7 unknown #
coedge $-1 $311 $126 $319 $322 forward $200 $-1 #
vertex $-1 $127 $323 #
vertex $-1 $322 $324 #
straight-curve $-1 60.789208655049286 -15.857597191665484 -9.959318095705795 0 -1 0 I I #
face $-1 $325 $326 $29 $-1 $327 reversed single #
loop $-1 $-1 $328 $128 #
plane-surface $-1 0 0 -13.206890279162421 0 0 1 1 0 0 forward_v I I I I #
coedge $-1 $329 $131 $328 $330 reversed $81 $-1 #
coedge $-1 $131 $329 $133 $225 reversed $81 $-1 #
coedge $-1 $331 $332 $131 $221 forward $326 $-1 #
edge $-1 $333 -7.4153381854453668 $334 -4.167766001988741 $220 $335 forward 7 unknown #
coedge $-1 $133 $132 $331 $336 reversed $52 $-1 #
coedge $-1 $337 $338 $132 $224 forward $339 $-1 #
edge $-1 $340 -60.789208655049286 $228 60.789208655049286 $223 $341 forward 7 unknown #
edge $-1 $334 -60.789208655049286 $229 60.789208655049286 $219 $342 forward 7 unknown #
coedge $-1 $343 $134 $329 $344 forward $129 $-1 #
coedge $-1 $134 $343 $337 $345 reversed $129 $-1 #
vertex $-1 $345 $346 #
vertex $-1 $135 $347 #
straight-curve $-1 60.789208655049286 15.85759719166548 -9.959318095705795 0 -1 0 I I #
face $-1 $-1 $348 $30 $-1 $349 forward single #
loop $-1 $-1 $142 $136 #
plane-surface $-1 -60.789208655049286 0 0 1 0 0 0 0 -1 forward_v I I I I #
coedge $-1 $350 $351 $352 $353 reversed $137 $-1 #
coedge $-1 $354 $139 $141 $241 forward $85 $-1 #
coedge $-1 $139 $354 $350 $355 forward $85 $-1 #
coedge $-1 $352 $142 $139 $238 forward $232 $-1 #
edge $-1 $244 6.0138613444087206 $356 15.715304710682201 $237 $357 forward 7 unknown #
coedge $-1 $358 $359 $140 $240 forward $348 $-1 #
edge $-1 $360 -25.38214063235386 $243 -21.157568820977296 $239 $361 forward 7 unknown #
edge $-1 $244 6.7032467330848362e-014 $360 7.9721048046671896 $141 $362 forward 7 unknown #
coedge $-1 $142 $352 $358 $363 reversed $232 $-1 #
vertex $-1 $363 $364 #
vertex $-1 $143 $365 #
straight-curve $-1 -60.789208655049286 -16.878444371954181 35.436452909885162 0 0 -1 I I #
coedge $-1 $246 $246 $-1 $366 reversed $146 $-1 #
edge $-1 $367 0 $367 6.2831853071796004 $147 $368 forward 7 unknown #
vertex $-1 $150 $369 #
ellipse-curve $-1 -58.676922749361012 -24.639599064972963 9.8265260965957104 -0.84804810408105047 0 0.52991925155115449 0.13247981288778862 0 0.21201202602026262 1 I I #
coedge $-1 $250 $250 $-1 $370 reversed $153 $-1 #
edge $-1 $371 0 $371 6.2831853071796004 $154 $372 forward 7 unknown #
vertex $-1 $157 $373 #
ellipse-curve $-1 -58.676922749361012 -21.729166055090921 9.8265260965957104 -0.84804810408105047 0 0.52991925155115449 0.13247981288778862 0 0.21201202602026262 1 I I #
coedge $-1 $254 $254 $-1 $374 reversed $160 $-1 #
edge $-1 $375 0 $375 6.2831853071796004 $161 $376 forward 7 unknown #
vertex $-1 $164 $377 #
ellipse-curve $-1 -58.676922749361012 -18.81873304520888 9.8265260965957104 -0.84804810408105047 0 0.52991925155115449 0.13247981288778862 0 0.21201202602026262 1 I I #
face $-1 $-1 $378 $34 $-1 $379 reversed single #
loop $-1 $-1 $171 $165 #
plane-surface $-1 0 0 13.206890279162421 0 0 1 1 0 0 forward_v I I I I #
coedge $-1 $380 $381 $382 $383 reversed $166 $-1 #
coedge $-1 $384 $168 $170 $268 forward $104 $-1 #
coedge $-1 $168 $384 $380 $385 forward $104 $-1 #
coedge $-1 $382 $171 $168 $265 forward $259 $-1 #
edge $-1 $271 -12.968044863131432 $386 1.1473818612662257 $264 $387 forward 7 unknown #
coedge $-1 $388 $389 $169 $267 forward $378 $-1 #
edge $-1 $390 -85.291452562159421 $270 -72.497610060033949 $266 $391 forward 7 unknown #
edge $-1 $271 105.11581826125675 $390 121.57841731009853 $170 $392 forward 7 unknown #
coedge $-1 $171 $382 $388 $393 forward $259 $-1 #
vertex $-1 $172 $394 #
vertex $-1 $172 $395 #
straight-curve $-1 39.380804895816212 18.878376364064035 13.206890279162423 -1 0 0 I I #
coedge $-1 $273 $273 $-1 $396 reversed $175 $-1 #
edge $-1 $397 0 $397 6.2831853071796004 $176 $398 forward 7 unknown #
vertex $-1 $179 $399 #
ellipse-curve $-1 55.609084103609071 11.820663001865206 6.8099690280996921 0.77714596973225614 0 0.62932038083071107 1.8879611424921332 0 -2.3314379091967683 1 I I #
face $-1 $-1 $195 $27 $-1 $400 reversed single #
loop $-1 $-1 $293 $180 #
plane-surface $-1 0 36.850501028434273 0 0 -1 0 0 0 -1 forward_v I I I I #
coedge $-1 $401 $291 $294 $402 forward $181 $-1 #
coedge $-1 $297 $183 $184 $285 reversed $113 $-1 #
coedge $-1 $291 $401 $183 $283 reversed $181 $-1 #
edge $-1 $298 -13.206890279162421 $403 13.206890279162421 $282 $404 forward 7 unknown #
coedge $-1 $185 $184 $401 $405 forward $73 $-1 #
edge $-1 $289 -60.789208655049286 $403 60.789208655049286 $281 $406 forward 7 unknown #
coedge $-1 $294 $293 $185 $287 reversed $278 $-1 #
edge $-1 $407 -60.789208655049286 $288 60.789208655049286 $286 $408 forward 7 unknown #
vertex $-1 $187 $409 #
vertex $-1 $300 $410 #
straight-curve $-1 60.789208655049286 0 -13.206890279162421 0 -1 0 I I #
coedge $-1 $280 $282 $188 $292 reversed $181 $-1 #
edge $-1 $295 -36.850501028434273 $298 36.850501028434273 $291 $411 forward 7 unknown #
coedge $-1 $286 $189 $194 $301 forward $278 $-1 #
coedge $-1 $189 $286 $280 $402 reversed $278 $-1 #
vertex $-1 $190 $412 #
straight-curve $-1 0 36.850501028434273 13.206890279162421 -1 0 0 I I #
coedge $-1 $191 $281 $193 $300 reversed $113 $-1 #
vertex $-1 $292 $413 #
straight-curve $-1 0 -36.850501028434273 13.206890279162421 1 0 0 I I #
edge $-1 $196 -13.206890279162421 $289 13.206890279162421 $193 $414 forward 7 unknown #
edge $-1 $197 -13.206890279162421 $288 13.206890279162421 $194 $415 forward 7 unknown #
point $-1 60.789208655049286 -36.850501028434273 13.206890279162421 #
point $-1 60.789208655049286 36.850501028434273 13.206890279162421 #
face $-1 $-1 $416 $28 $-1 $417 reversed single #
loop $-1 $-1 $209 $199 #
plane-surface $-1 0 -36.850501028434273 0 0 1 0 0 0 1 forward_v I I I I #
coedge $-1 $418 $202 $311 $419 forward $121 $-1 #
coedge $-1 $202 $418 $420 $421 forward $121 $-1 #
edge $-1 $422 -60.789208655049286 $312 60.789208655049286 $202 $423 forward 7 unknown #
coedge $-1 $204 $203 $424 $425 reversed $77 $-1 #
coedge $-1 $205 $211 $307 $419 reversed $200 $-1 #
vertex $-1 $419 $426 #
straight-curve $-1 60.789208655049286 -26.579887738227661 -5.7915520937170539 0 0 1 I I #
coedge $-1 $424 $427 $207 $315 forward $416 $-1 #
edge $-1 $320 -20.992903836768789 $316 -10.722290546562178 $314 $428 forward 7 unknown #
vertex $-1 $315 $429 #
straight-curve $-1 0 -26.579887738227661 -9.959318095705795 -1 0 0 I I #
coedge $-1 $430 $209 $427 $431 forward $305 $-1 #
coedge $-1 $209 $430 $211 $322 reversed $305 $-1 #
vertex $-1 $431 $432 #
straight-curve $-1 0 -36.850501028434273 -9.959318095705795 -1 0 0 I I #
edge $-1 $213 9.959318095705795 $433 13.206890279162421 $211 $434 forward 7 unknown #
point $-1 60.789208655049286 -26.579887738227661 -9.959318095705795 #
point $-1 60.789208655049286 -36.850501028434273 -9.959318095705795 #
face $-1 $-1 $339 $29 $-1 $435 reversed single #
loop $-1 $-1 $331 $215 #
plane-surface $-1 -60.789208655049286 0 0 1 0 0 0 0 -1 forward_v I I I I #
coedge $-1 $436 $437 $218 $330 forward $216 $-1 #
coedge $-1 $219 $218 $226 $344 reversed $81 $-1 #
edge $-1 $438 -60.789208655049286 $333 60.789208655049286 $328 $439 forward 7 unknown #
coedge $-1 $440 $220 $222 $336 forward $326 $-1 #
coedge $-1 $220 $440 $436 $441 reversed $326 $-1 #
vertex $-1 $441 $442 #
vertex $-1 $336 $443 #
straight-curve $-1 -60.789208655049286 26.579887738227654 -5.7915520937170539 0 0 1 I I #
edge $-1 $334 10.722290546562174 $340 20.992903836768786 $331 $444 forward 7 unknown #
coedge $-1 $445 $223 $227 $345 forward $339 $-1 #
coedge $-1 $223 $445 $440 $446 reversed $339 $-1 #
loop $-1 $-1 $223 $325 #
vertex $-1 $446 $447 #
straight-curve $-1 0 36.850501028434273 -9.959318095705795 1 0 0 I I #
straight-curve $-1 0 26.579887738227654 -9.959318095705795 1 0 0 I I #
coedge $-1 $227 $226 $437 $448 reversed $129 $-1 #
edge $-1 $229 4.167766001988741 $438 7.4153381854453668 $226 $449 forward 7 unknown #
edge $-1 $228 9.959318095705795 $450 13.206890279162421 $227 $451 forward 7 unknown #
point $-1 60.789208655049286 36.850501028434266 -9.959318095705795 #
point $-1 60.789208655049286 26.579887738227654 -9.959318095705795 #
loop $-1 $-1 $239 $231 #
plane-surface $-1 0 0 13.206890279162421 0 0 1 1 0 0 forward_v I I I I #
coedge $-1 $351 $234 $236 $355 reversed $137 $-1 #
coedge $-1 $234 $350 $452 $453 reversed $137 $-1 #
coedge $-1 $242 $237 $234 $353 forward $232 $-1 #
edge $-1 $356 -28.990290995856128 $454 -22.229562630722739 $352 $455 forward 7 unknown #
coedge $-1 $236 $235 $359 $456 reversed $85 $-1 #
edge $-1 $457 -7.9721048046671896 $356 -6.7032467330848362e-014 $350 $458 forward 7 unknown #
vertex $-1 $238 $459 #
straight-curve $-1 -60.789208655049286 -10.864583027545461 6.4461619140290392 0 -1 0 I I #
coedge $-1 $452 $239 $242 $363 forward $348 $-1 #
coedge $-1 $239 $452 $354 $456 forward $348 $-1 #
vertex $-1 $240 $460 #
straight-curve $-1 -81.946777476026583 -16.878444371954181 13.206890279162423 -1 0 0 I I #
straight-curve $-1 -60.789208655049322 -16.878444371954181 6.446161914028977 0.52991925155115449 0 0.84804810408105047 I I #
edge $-1 $243 16.878444371954181 $454 26.579887738227661 $242 $461 forward 7 unknown #
point $-1 -60.789208655049286 -16.878444371954181 13.206890279162421 #
point $-1 -60.789208655049286 -16.878444371954181 6.4461619140290338 #
edge $-1 $462 1 $462 0 $246 $-1 forward 7 unknown #
vertex $-1 $247 $463 #
ellipse-curve $-1 -57.828874645279932 -24.639599064972963 9.296606845044538 -0.84804810408105047 0 0.52991925155115449 0.13247981288778862 0 0.21201202602026262 1 I I #
point $-1 -58.544442936473196 -24.639599064972963 10.038538122615956 #
edge $-1 $464 1 $464 0 $250 $-1 forward 7 unknown #
vertex $-1 $251 $465 #
ellipse-curve $-1 -57.828874645279932 -21.729166055090921 9.296606845044538 -0.84804810408105047 0 0.52991925155115449 0.13247981288778862 0 0.21201202602026262 1 I I #
point $-1 -58.544442936473196 -21.729166055090921 10.038538122615956 #
edge $-1 $466 1 $466 0 $254 $-1 forward 7 unknown #
vertex $-1 $255 $467 #
ellipse-curve $-1 -57.828874645279932 -18.81873304520888 9.296606845044538 -0.84804810408105047 0 0.52991925155115449 0.13247981288778862 0 0.21201202602026262 1 I I #
point $-1 -58.544442936473196 -18.81873304520888 10.038538122615956 #
loop $-1 $-1 $266 $258 #
plane-surface $-1 60.789208655049286 0 0 -1 0 0 0 0 1 forward_v I I I I #
coedge $-1 $381 $261 $263 $385 reversed $166 $-1 #
coedge $-1 $261 $380 $468 $469 reversed $166 $-1 #
coedge $-1 $269 $264 $261 $383 forward $259 $-1 #
edge $-1 $386 11.048154656352665 $470 21.408403759233074 $382 $471 forward 7 unknown #
coedge $-1 $263 $262 $389 $472 reversed $104 $-1 #
edge $-1 $473 -121.57841731009853 $386 -105.11581826125675 $380 $474 forward 7 unknown #
vertex $-1 $265 $475 #
straight-curve $-1 50.42895955216887 5.9103315009326032 13.206890279162423 0 -1 0 I I #
coedge $-1 $468 $266 $269 $393 reversed $378 $-1 #
coedge $-1 $266 $468 $384 $472 forward $378 $-1 #
vertex $-1 $267 $476 #
straight-curve $-1 60.789208655049286 18.878376364064035 85.704500339196372 0 0 1 I I #
straight-curve $-1 -15.722567227337038 18.878376364064035 94.897224796006398 0.62932038083071107 0 -0.77714596973225614 I I #
edge $-1 $470 4.7629496396663775 $270 18.878376364064035 $388 $477 forward 7 unknown #
point $-1 60.789208655049286 18.878376364064035 13.206890279162421 #
point $-1 50.428959552168877 18.878376364064035 13.206890279162423 #
edge $-1 $478 1 $478 0 $273 $-1 forward 7 unknown #
vertex $-1 $274 $479 #
ellipse-curve $-1 49.744948901659853 11.820663001865206 2.0612861007406411 0.77714596973225614 0 0.62932038083071107 1.8879611424921332 0 -2.3314379091967683 1 I I #
point $-1 57.497045246101209 11.820663001865206 4.4785311189029287 #
plane-surface $-1 60.789208655049286 0 0 -1 0 0 0 0 1 forward_v I I I I #
coedge $-1 $282 $280 $284 $405 reversed $181 $-1 #
edge $-1 $295 -13.206890279162421 $407 13.206890279162421 $294 $480 forward 7 unknown #
vertex $-1 $405 $481 #
straight-curve $-1 -60.789208655049286 -36.850501028434273 0 0 0 -1 I I #
edge $-1 $403 -36.850501028434273 $407 36.850501028434273 $401 $482 forward 7 unknown #
straight-curve $-1 0 -36.850501028434273 -13.206890279162421 -1 0 0 I I #
vertex $-1 $287 $483 #
straight-curve $-1 0 36.850501028434273 -13.206890279162421 1 0 0 I I #
point $-1 60.789208655049286 36.850501028434273 -13.206890279162421 #
point $-1 60.789208655049286 -36.850501028434273 -13.206890279162421 #
straight-curve $-1 -60.789208655049286 0 13.206890279162421 0 -1 0 I I #
point $-1 -60.789208655049286 36.850501028434273 13.206890279162421 #
point $-1 -60.789208655049286 -36.850501028434273 13.206890279162421 #
straight-curve $-1 60.789208655049286 -36.850501028434273 0 0 0 -1 I I #
straight-curve $-1 60.789208655049286 36.850501028434273 0 0 0 -1 I I #
loop $-1 $-1 $424 $304 #
plane-surface $-1 -60.789208655049286 0 0 1 0 0 0 0 -1 forward_v I I I I #
coedge $-1 $308 $307 $430 $484 forward $121 $-1 #
edge $-1 $312 26.579887738227661 $433 36.850501028434273 $311 $485 forward 7 unknown #
coedge $-1 $427 $424 $308 $421 reversed $416 $-1 #
edge $-1 $486 -36.850501028434273 $422 -26.579887738227661 $420 $487 forward 7 unknown #
vertex $-1 $425 $488 #
straight-curve $-1 0 -26.579887738227661 -13.206890279162421 1 0 0 I I #
coedge $-1 $420 $314 $310 $425 forward $416 $-1 #
edge $-1 $316 4.167766001988741 $422 7.4153381854453668 $424 $489 forward 7 unknown #
point $-1 60.789208655049286 -26.579887738227661 -13.206890279162421 #
coedge $-1 $314 $420 $318 $431 reversed $416 $-1 #
straight-curve $-1 -60.789208655049286 -15.857597191665484 -9.959318095705795 0 1 0 I I #
point $-1 -60.789208655049286 -26.579887738227661 -9.959318095705795 #
coedge $-1 $319 $318 $418 $484 reversed $305 $-1 #
edge $-1 $320 9.959318095705795 $486 13.206890279162421 $427 $490 forward 7 unknown #
point $-1 -60.789208655049286 -36.850501028434273 -9.959318095705795 #
vertex $-1 $322 $491 #
straight-curve $-1 60.789208655049286 -36.850501028434273 0 0 0 -1 I I #
plane-surface $-1 0 36.850501028434273 0 0 -1 0 0 0 -1 forward_v I I I I #
coedge $-1 $492 $328 $332 $441 forward $216 $-1 #
coedge $-1 $328 $492 $343 $448 forward $216 $-1 #
vertex $-1 $330 $493 #
straight-curve $-1 0 26.579887738227654 -13.206890279162421 -1 0 0 I I #
coedge $-1 $332 $331 $338 $446 forward $326 $-1 #
edge $-1 $333 26.579887738227654 $494 36.850501028434273 $332 $495 forward 7 unknown #
point $-1 -60.789208655049286 26.579887738227654 -13.206890279162421 #
point $-1 -60.789208655049286 26.579887738227654 -9.959318095705795 #
straight-curve $-1 -60.789208655049286 15.85759719166548 -9.959318095705795 0 1 0 I I #
coedge $-1 $338 $337 $492 $496 reversed $339 $-1 #
edge $-1 $340 9.959318095705795 $494 13.206890279162421 $338 $497 forward 7 unknown #
point $-1 -60.789208655049286 36.850501028434266 -9.959318095705795 #
edge $-1 $450 -36.850501028434273 $438 -26.579887738227654 $343 $498 forward 7 unknown #
straight-curve $-1 60.789208655049286 26.579887738227654 -5.7915520937170539 0 0 -1 I I #
vertex $-1 $448 $499 #
straight-curve $-1 60.789208655049286 36.850501028434273 0 0 0 -1 I I #
coedge $-1 $359 $358 $351 $453 forward $348 $-1 #
edge $-1 $454 21.157568820977296 $457 25.38214063235386 $452 $500 forward 7 unknown #
vertex $-1 $453 $501 #
straight-curve $-1 -60.789208655049286 -26.579887738227661 35.436452909885162 0 0 1 I I #
edge $-1 $457 -15.715304710682201 $360 -6.0138613444087206 $359 $502 forward 7 unknown #
vertex $-1 $456 $503 #
straight-curve $-1 -60.789208655049322 -26.579887738227661 6.446161914028977 -0.52991925155115449 0 -0.84804810408105047 I I #
point $-1 -60.789208655049286 -26.579887738227661 6.4461619140290338 #
point $-1 -56.564636843672723 -16.878444371954181 13.206890279162421 #
straight-curve $-1 -60.789208655049286 0 13.206890279162421 0 -1 0 I I #
vertex $-1 $366 $504 #
point $-1 -57.696394832392144 -24.639599064972963 9.508618871064801 #
vertex $-1 $370 $505 #
point $-1 -57.696394832392144 -21.729166055090921 9.508618871064801 #
vertex $-1 $374 $506 #
point $-1 -57.696394832392144 -18.81873304520888 9.508618871064801 #
coedge $-1 $389 $388 $381 $469 forward $378 $-1 #
edge $-1 $470 72.497610060033949 $473 85.291452562159421 $468 $507 forward 7 unknown #
vertex $-1 $393 $508 #
straight-curve $-1 39.380804895816212 4.7629496396663775 13.206890279162423 1 0 0 I I #
edge $-1 $473 -1.1473818612662257 $390 12.968044863131432 $389 $509 forward 7 unknown #
vertex $-1 $472 $510 #
straight-curve $-1 -15.722567227337038 4.7629496396663775 94.897224796006398 -0.62932038083071107 0 0.77714596973225614 I I #
point $-1 50.428959552168877 4.7629496396663775 13.206890279162423 #
point $-1 60.789208655049293 18.878376364064035 0.41304777703695095 #
straight-curve $-1 60.789208655049286 0 13.206890279162421 0 1 0 I I #
vertex $-1 $396 $511 #
point $-1 51.632910044151991 11.820663001865206 -0.27015180845612718 #
straight-curve $-1 -60.789208655049286 36.850501028434273 0 0 0 -1 I I #
point $-1 -60.789208655049286 -36.850501028434273 -13.206890279162421 #
straight-curve $-1 -60.789208655049286 0 -13.206890279162421 0 1 0 I I #
point $-1 -60.789208655049286 36.850501028434273 -13.206890279162421 #
edge $-1 $433 -60.789208655049286 $486 60.789208655049286 $430 $512 forward 7 unknown #
straight-curve $-1 60.789208655049286 0 -13.206890279162421 0 -1 0 I I #
vertex $-1 $421 $513 #
straight-curve $-1 -60.789208655049286 0 -13.206890279162421 0 1 0 I I #
point $-1 -60.789208655049286 -26.579887738227661 -13.206890279162421 #
straight-curve $-1 -60.789208655049286 -26.579887738227661 -5.7915520937170539 0 0 -1 I I #
straight-curve $-1 -60.789208655049286 -36.850501028434273 0 0 0 -1 I I #
point $-1 60.789208655049286 -36.850501028434273 -13.206890279162421 #
coedge $-1 $437 $436 $445 $496 forward $216 $-1 #
point $-1 60.789208655049286 26.579887738227654 -13.206890279162421 #
vertex $-1 $496 $514 #
straight-curve $-1 -60.789208655049286 0 -13.206890279162421 0 1 0 I I #
edge $-1 $494 -60.789208655049286 $450 60.789208655049286 $445 $515 forward 7 unknown #
straight-curve $-1 -60.789208655049286 36.850501028434273 0 0 0 -1 I I #
straight-curve $-1 60.789208655049286 0 -13.206890279162421 0 -1 0 I I #
point $-1 60.789208655049286 36.850501028434273 -13.206890279162421 #
straight-curve $-1 -81.946777476026583 -26.579887738227661 13.206890279162423 1 0 0 I I #
point $-1 -60.789208655049286 -26.579887738227661 13.206890279162421 #
straight-curve $-1 -56.564636843672723 -10.864583027545461 13.206890279162421 0 1 0 I I #
point $-1 -56.564636843672723 -26.579887738227661 13.206890279162421 #
point $-1 -57.61686261925967 -24.639599064972963 9.1641270321567507 #
point $-1 -57.61686261925967 -21.729166055090921 9.1641270321567507 #
point $-1 -57.61686261925967 -18.81873304520888 9.1641270321567507 #
straight-curve $-1 60.789208655049286 4.7629496396663775 85.704500339196372 0 0 -1 I I #
point $-1 60.789208655049286 4.7629496396663775 13.206890279162421 #
straight-curve $-1 60.789208655049286 5.9103315009326032 0.41304777703695095 0 1 0 I I #
point $-1 60.789208655049293 4.7629496396663775 0.41304777703695095 #
point $-1 47.413510992463088 11.820663001865206 0.1733249582485078 #
straight-curve $-1 0 -36.850501028434273 -13.206890279162421 -1 0 0 I I #
point $-1 -60.789208655049286 -36.850501028434273 -13.206890279162421 #
point $-1 -60.789208655049286 36.850501028434273 -13.206890279162421 #
straight-curve $-1 0 36.850501028434273 -13.206890279162421 1 0 0 I I #
End-of-ACIS-data 