500 0 8 0           
7 Unknown 11 ACIS 5.0 NT 24 Thu Mar 25 23:52:14 1999 
-1 9.9999999999999995e-007 1e-010 
body $-1 $8 $-1 $9 #
body $-1 $10 $-1 $11 #
body $-1 $12 $-1 $13 #
body $-1 $14 $-1 $15 #
body $-1 $16 $-1 $17 #
body $-1 $18 $-1 $19 #
body $-1 $20 $-1 $21 #
body $-1 $22 $-1 $23 #
lump $-1 $-1 $24 $0 #
transform $-1 1 0 0 0 1 0 0 0 1 70.927457502975557 35.303764790506612 15.434878799885238 1 rotate no_reflect no_shear #
lump $-1 $-1 $25 $1 #
transform $-1 1 0 0 0 1 0 0 0 1 70.927457502975557 35.303764790506612 15.434878799885238 1 rotate no_reflect no_shear #
lump $-1 $-1 $26 $2 #
transform $-1 1 0 0 0 1 0 0 0 1 70.927457502975557 35.303764790506612 15.434878799885238 1 rotate no_reflect no_shear #
lump $-1 $-1 $27 $3 #
transform $-1 1 0 0 0 1 0 0 0 1 70.927457502975557 35.303764790506612 15.434878799885238 1 rotate no_reflect no_shear #
lump $-1 $-1 $28 $4 #
transform $-1 1 0 0 0 1 0 0 0 1 70.927457502975557 35.303764790506612 15.434878799885238 1 rotate no_reflect no_shear #
lump $-1 $-1 $29 $5 #
transform $-1 1 0 0 0 1 0 0 0 1 70.927457502975557 35.303764790506612 15.434878799885238 1 rotate no_reflect no_shear #
lump $-1 $-1 $30 $6 #
transform $-1 1 0 0 0 1 0 0 0 1 70.927457502975557 35.303764790506612 15.434878799885238 1 rotate no_reflect no_shear #
lump $-1 $-1 $31 $7 #
transform $-1 1 0 0 0 1 0 0 0 1 70.927457502975557 35.303764790506612 15.434878799885238 1 rotate no_reflect no_shear #
shell $-1 $-1 $-1 $32 $-1 $8 #
shell $-1 $-1 $-1 $33 $-1 $10 #
shell $-1 $-1 $-1 $34 $-1 $12 #
shell $-1 $-1 $-1 $35 $-1 $14 #
shell $-1 $-1 $-1 $36 $-1 $16 #
shell $-1 $-1 $-1 $37 $-1 $18 #
shell $-1 $-1 $-1 $38 $-1 $20 #
shell $-1 $-1 $-1 $39 $-1 $22 #
face $-1 $40 $41 $24 $-1 $42 forward single #
face $-1 $43 $44 $25 $-1 $45 reversed single #
face $-1 $46 $47 $26 $-1 $48 reversed single #
face $-1 $49 $50 $27 $-1 $51 forward single #
face $-1 $52 $53 $28 $-1 $54 forward single #
face $-1 $55 $56 $29 $-1 $57 reversed single #
face $-1 $58 $59 $30 $-1 $60 forward single #
face $-1 $61 $62 $31 $-1 $63 forward single #
face $-1 $64 $65 $24 $-1 $66 reversed single #
loop $-1 $-1 $67 $32 #
plane-surface $-1 0 0 15.434878799885238 0 0 1 1 0 0 forward_v I I I I #
face $-1 $68 $69 $25 $-1 $70 reversed single #
loop $-1 $-1 $71 $33 #
plane-surface $-1 0 -28.853519189310028 10.179756424712668 0 0 1 1 0 0 forward_v I I I I #
face $-1 $72 $73 $26 $-1 $74 reversed single #
loop $-1 $-1 $75 $34 #
plane-surface $-1 102.31027023146433 -13.76158294502862 200.80503422512473 0 -1 0 -0.80901700255871778 0 -0.5877852410284794 forward_v I I I I #
face $-1 $76 $77 $27 $-1 $78 forward single #
loop $-1 $79 $80 $35 #
cone-surface $-1 65.339468638703934 -19.934219118660636 8.3596453654033578 -0.80901700255871778 0 -0.5877852410284794 0.5877852410284794 0 -0.80901700255871778 1 I I 0 1 1 forward I I I I #
face $-1 $81 $82 $28 $-1 $83 forward single #
loop $-1 $84 $85 $36 #
cone-surface $-1 65.339468638703934 -16.230637414481428 8.3596453654033578 -0.80901700255871778 0 -0.5877852410284794 0.5877852410284794 0 -0.80901700255871778 1 I I 0 1 1 forward I I I I #
face $-1 $86 $87 $29 $-1 $88 reversed single #
loop $-1 $-1 $89 $37 #
plane-surface $-1 -70.927457502975543 -18.082428266571029 2.6617706809410464 -0.80901700255871778 0 0.5877852410284794 0.5877852410284794 0 0.80901700255871778 forward_v I I I I #
face $-1 $90 $91 $30 $-1 $92 forward single #
loop $-1 $93 $94 $38 #
cone-surface $-1 -65.339468638703948 -19.934219118660636 8.3596453654033791 0.80901700255871778 0 -0.5877852410284794 0.5877852410284794 0 0.80901700255871778 1 I I 0 1 1 forward I I I I #
face $-1 $95 $96 $31 $-1 $97 forward single #
loop $-1 $98 $99 $39 #
cone-surface $-1 -65.339468638703948 -16.230637414481428 8.3596453654033791 0.80901700255871778 0 -0.5877852410284794 0.5877852410284794 0 0.80901700255871778 1 I I 0 1 1 forward I I I I #
face $-1 $100 $101 $24 $-1 $102 reversed single #
loop $-1 $-1 $103 $40 #
plane-surface $-1 0 0 -15.434878799885238 0 0 1 1 0 0 forward_v I I I I #
coedge $-1 $104 $105 $106 $107 forward $41 $-1 #
face $-1 $108 $109 $25 $-1 $110 reversed single #
loop $-1 $-1 $111 $43 #
plane-surface $-1 0 -22.403273588113443 12.807317612298954 0 -1 0 0 0 -1 forward_v I I I I #
coedge $-1 $112 $113 $114 $115 reversed $44 $-1 #
face $-1 $116 $117 $26 $-1 $118 forward single #
loop $-1 $-1 $119 $46 #
plane-surface $-1 -12.452767904871919 -18.082428266571029 117.4248088172773 0.80901700255871778 0 0.5877852410284794 0.5877852410284794 0 -0.80901700255871778 forward_v I I I I #
coedge $-1 $120 $121 $122 $123 reversed $47 $-1 #
face $-1 $-1 $124 $27 $-1 $125 forward single #
loop $-1 $126 $127 $49 #
cone-surface $-1 63.987074268906468 -19.934219118660636 7.3770733698793567 -0.80901700255871778 0 -0.5877852410284794 0.2938926205142397 0 -0.40450850127935889 1 I I -0.70710678118654746 0.70710678118654746 0.5 forward I I I I #
loop $-1 $-1 $128 $35 #
coedge $-1 $80 $80 $129 $130 reversed $50 $-1 #
face $-1 $-1 $131 $28 $-1 $132 forward single #
loop $-1 $133 $134 $52 #
cone-surface $-1 63.987074268906468 -16.230637414481428 7.3770733698793567 -0.80901700255871778 0 -0.5877852410284794 0.2938926205142397 0 -0.40450850127935889 1 I I -0.70710678118654746 0.70710678118654746 0.5 forward I I I I #
loop $-1 $-1 $135 $36 #
coedge $-1 $85 $85 $136 $137 reversed $53 $-1 #
face $-1 $138 $139 $29 $-1 $140 forward single #
loop $-1 $-1 $141 $55 #
plane-surface $-1 -185.69049563931179 -13.76158294502862 86.04199608878848 0 -1 0 0.80901700255871778 0 -0.5877852410284794 forward_v I I I I #
coedge $-1 $142 $143 $144 $145 reversed $56 $-1 #
face $-1 $-1 $146 $30 $-1 $147 forward single #
loop $-1 $148 $149 $58 #
cone-surface $-1 -63.987074268906476 -19.934219118660636 7.377073369879378 0.80901700255871778 0 -0.5877852410284794 0.2938926205142397 0 0.40450850127935889 1 I I -0.70710678118654746 0.70710678118654746 0.5 forward I I I I #
loop $-1 $-1 $150 $38 #
coedge $-1 $94 $94 $151 $152 reversed $59 $-1 #
face $-1 $-1 $153 $31 $-1 $154 forward single #
loop $-1 $155 $156 $61 #
cone-surface $-1 -63.987074268906476 -16.230637414481428 7.377073369879378 0.80901700255871778 0 -0.5877852410284794 0.2938926205142397 0 0.40450850127935889 1 I I -0.70710678118654746 0.70710678118654746 0.5 forward I I I I #
loop $-1 $-1 $157 $39 #
coedge $-1 $99 $99 $158 $159 reversed $62 $-1 #
face $-1 $160 $161 $24 $-1 $162 reversed single #
loop $-1 $-1 $163 $64 #
plane-surface $-1 0 -35.303764790506612 0 0 1 0 0 0 1 forward_v I I I I #
coedge $-1 $164 $165 $166 $167 forward $65 $-1 #
coedge $-1 $168 $67 $169 $170 forward $41 $-1 #
coedge $-1 $67 $168 $171 $172 forward $41 $-1 #
coedge $-1 $173 $174 $67 $107 reversed $175 $-1 #
edge $-1 $176 -35.303764790506612 $177 35.303764790506612 $106 $178 forward 7 unknown #
face $-1 $179 $180 $25 $-1 $181 reversed single #
loop $-1 $-1 $182 $68 #
plane-surface $-1 -70.927457502975557 0 0 1 0 0 0 0 -1 forward_v I I I I #
coedge $-1 $183 $184 $185 $186 reversed $69 $-1 #
coedge $-1 $187 $71 $188 $189 reversed $44 $-1 #
coedge $-1 $71 $187 $190 $191 forward $44 $-1 #
coedge $-1 $192 $193 $71 $115 forward $194 $-1 #
edge $-1 $195 -20.877005195851599 $196 -7.976513993458429 $114 $197 forward 7 unknown #
face $-1 $198 $199 $26 $-1 $200 forward single #
loop $-1 $-1 $201 $72 #
plane-surface $-1 0 -22.403273588113443 12.807317612298954 0 -1 0 0 0 -1 forward_v I I I I #
coedge $-1 $202 $203 $204 $205 reversed $73 $-1 #
coedge $-1 $121 $75 $206 $207 reversed $47 $-1 #
coedge $-1 $75 $120 $202 $208 reversed $47 $-1 #
coedge $-1 $204 $209 $75 $123 forward $199 $-1 #
edge $-1 $210 -19.772322387243392 $211 -10.49211639573636 $122 $212 forward 7 unknown #
loop $-1 $-1 $129 $76 #
plane-surface $-1 -12.452767904871919 -18.082428266571029 117.4248088172773 0.80901700255871778 0 0.5877852410284794 0.5877852410284794 0 -0.80901700255871778 forward_v I I I I #
loop $-1 $-1 $213 $49 #
coedge $-1 $127 $127 $128 $214 reversed $77 $-1 #
coedge $-1 $128 $128 $127 $214 forward $79 $-1 #
coedge $-1 $129 $129 $80 $130 forward $124 $-1 #
edge $-1 $215 0 $215 6.2831853071796004 $129 $216 forward 7 unknown #
loop $-1 $-1 $136 $81 #
plane-surface $-1 -12.452767904871919 -18.082428266571029 117.4248088172773 0.80901700255871778 0 0.5877852410284794 0.5877852410284794 0 -0.80901700255871778 forward_v I I I I #
loop $-1 $-1 $217 $52 #
coedge $-1 $134 $134 $135 $218 reversed $82 $-1 #
coedge $-1 $135 $135 $134 $218 forward $84 $-1 #
coedge $-1 $136 $136 $85 $137 forward $131 $-1 #
edge $-1 $219 0 $219 6.2831853071796004 $136 $220 forward 7 unknown #
face $-1 $221 $222 $29 $-1 $223 reversed single #
loop $-1 $-1 $144 $86 #
plane-surface $-1 0 0 15.434878799885238 0 0 1 1 0 0 forward_v I I I I #
coedge $-1 $224 $225 $226 $227 reversed $87 $-1 #
coedge $-1 $228 $89 $229 $230 reversed $56 $-1 #
coedge $-1 $89 $228 $224 $231 forward $56 $-1 #
coedge $-1 $226 $232 $89 $145 forward $139 $-1 #
edge $-1 $233 -13.362059454827921 $234 -4.7203688117431053 $144 $235 forward 7 unknown #
loop $-1 $-1 $151 $90 #
plane-surface $-1 -70.927457502975543 -18.082428266571029 2.6617706809410464 -0.80901700255871778 0 0.5877852410284794 0.5877852410284794 0 0.80901700255871778 forward_v I I I I #
loop $-1 $-1 $236 $58 #
coedge $-1 $149 $149 $150 $237 reversed $91 $-1 #
coedge $-1 $150 $150 $149 $237 forward $93 $-1 #
coedge $-1 $151 $151 $94 $152 forward $146 $-1 #
edge $-1 $238 0 $238 6.2831853071796004 $151 $239 forward 7 unknown #
loop $-1 $-1 $158 $95 #
plane-surface $-1 -70.927457502975543 -18.082428266571029 2.6617706809410464 -0.80901700255871778 0 0.5877852410284794 0.5877852410284794 0 0.80901700255871778 forward_v I I I I #
loop $-1 $-1 $240 $61 #
coedge $-1 $156 $156 $157 $241 reversed $96 $-1 #
coedge $-1 $157 $157 $156 $241 forward $98 $-1 #
coedge $-1 $158 $158 $99 $159 forward $153 $-1 #
edge $-1 $242 0 $242 6.2831853071796004 $158 $243 forward 7 unknown #
face $-1 $244 $245 $24 $-1 $246 reversed single #
loop $-1 $-1 $247 $100 #
plane-surface $-1 -70.927457502975557 0 0 1 0 0 0 0 -1 forward_v I I I I #
coedge $-1 $248 $171 $249 $250 forward $101 $-1 #
coedge $-1 $251 $103 $248 $252 forward $65 $-1 #
coedge $-1 $103 $251 $253 $254 forward $65 $-1 #
coedge $-1 $174 $173 $103 $167 reversed $175 $-1 #
edge $-1 $255 -35.303764790506612 $256 35.303764790506612 $166 $257 forward 7 unknown #
coedge $-1 $105 $104 $258 $259 forward $41 $-1 #
coedge $-1 $260 $261 $104 $170 reversed $245 $-1 #
edge $-1 $177 -70.927457502975557 $262 70.927457502975557 $169 $263 forward 7 unknown #
coedge $-1 $163 $264 $105 $172 reversed $101 $-1 #
edge $-1 $265 -70.927457502975557 $176 70.927457502975557 $171 $266 forward 7 unknown #
coedge $-1 $166 $106 $264 $267 forward $175 $-1 #
coedge $-1 $106 $166 $260 $268 reversed $175 $-1 #
loop $-1 $-1 $173 $244 #
vertex $-1 $107 $269 #
vertex $-1 $107 $270 #
straight-curve $-1 70.927457502975557 0 15.434878799885238 0 1 0 I I #
face $-1 $271 $272 $25 $-1 $273 forward single #
loop $-1 $-1 $188 $108 #
plane-surface $-1 0 -35.303764790506612 0 0 1 0 0 0 1 forward_v I I I I #
coedge $-1 $274 $275 $184 $276 forward $109 $-1 #
coedge $-1 $190 $111 $192 $277 reversed $69 $-1 #
coedge $-1 $111 $190 $182 $276 reversed $69 $-1 #
coedge $-1 $278 $279 $111 $186 forward $272 $-1 #
edge $-1 $280 -70.927457502975557 $281 70.927457502975557 $185 $282 forward 7 unknown #
coedge $-1 $113 $112 $274 $283 reversed $44 $-1 #
coedge $-1 $284 $285 $112 $189 forward $180 $-1 #
edge $-1 $286 -70.927457502975557 $195 70.927457502975557 $188 $287 forward 7 unknown #
coedge $-1 $184 $183 $113 $191 reversed $69 $-1 #
edge $-1 $288 -70.927457502975557 $196 70.927457502975557 $190 $289 forward 7 unknown #
coedge $-1 $290 $114 $183 $277 forward $194 $-1 #
coedge $-1 $114 $290 $284 $291 forward $194 $-1 #
loop $-1 $-1 $192 $271 #
vertex $-1 $189 $292 #
vertex $-1 $115 $293 #
straight-curve $-1 70.927457502975557 -14.426759594655014 10.179756424712668 0 1 0 I I #
face $-1 $-1 $294 $26 $-1 $295 reversed single #
loop $-1 $-1 $204 $116 #
plane-surface $-1 0 0 15.434878799885238 0 0 1 1 0 0 forward_v I I I I #
coedge $-1 $296 $297 $203 $298 reversed $117 $-1 #
coedge $-1 $299 $119 $121 $208 forward $73 $-1 #
coedge $-1 $119 $299 $201 $298 forward $73 $-1 #
coedge $-1 $300 $122 $119 $205 forward $199 $-1 #
edge $-1 $211 4.7203688117431053 $301 13.362059454827929 $204 $302 forward 7 unknown #
coedge $-1 $303 $304 $120 $207 forward $294 $-1 #
edge $-1 $305 -97.740746431621361 $210 -84.967638312677124 $206 $306 forward 7 unknown #
edge $-1 $211 126.06648524669259 $305 141.85491500595117 $121 $307 forward 7 unknown #
coedge $-1 $122 $300 $303 $308 forward $199 $-1 #
vertex $-1 $207 $309 #
vertex $-1 $123 $310 #
straight-curve $-1 51.155135115732165 -13.76158294502862 15.43487879988524 -1 0 0 I I #
coedge $-1 $213 $213 $-1 $311 reversed $126 $-1 #
edge $-1 $312 0 $312 6.2831853071796004 $127 $313 forward 7 unknown #
vertex $-1 $130 $314 #
ellipse-curve $-1 66.287354507222034 -19.934219118660636 9.0483247404131131 0.80901700255871778 0 0.5877852410284794 0.5877852410284794 0 -0.80901700255871778 1 I I #
coedge $-1 $217 $217 $-1 $315 reversed $133 $-1 #
edge $-1 $316 0 $316 6.2831853071796004 $134 $317 forward 7 unknown #
vertex $-1 $137 $318 #
ellipse-curve $-1 66.287354507222034 -16.230637414481428 9.0483247404131131 0.80901700255871778 0 0.5877852410284794 0.5877852410284794 0 -0.80901700255871778 1 I I #
face $-1 $-1 $319 $29 $-1 $320 forward single #
loop $-1 $-1 $321 $138 #
plane-surface $-1 -70.927457502975557 0 0 1 0 0 0 0 -1 forward_v I I I I #
coedge $-1 $225 $141 $143 $231 reversed $87 $-1 #
coedge $-1 $141 $224 $321 $322 reversed $87 $-1 #
coedge $-1 $323 $144 $141 $227 forward $139 $-1 #
edge $-1 $234 -31.197996308187342 $324 -21.917790316680339 $226 $325 forward 7 unknown #
coedge $-1 $143 $142 $326 $327 reversed $56 $-1 #
coedge $-1 $328 $329 $142 $230 forward $319 $-1 #
edge $-1 $330 -24.949016335824862 $233 -9.1605865765663133 $229 $331 forward 7 unknown #
edge $-1 $332 -2.4161062406544664e-014 $234 15.788429759258527 $224 $333 forward 7 unknown #
coedge $-1 $144 $323 $328 $334 forward $139 $-1 #
vertex $-1 $230 $335 #
vertex $-1 $145 $336 #
straight-curve $-1 -61.647251511468546 -9.0412141332855143 15.43487879988524 0 1 0 I I #
coedge $-1 $236 $236 $-1 $337 reversed $148 $-1 #
edge $-1 $338 0 $338 6.2831853071796004 $149 $339 forward 7 unknown #
vertex $-1 $152 $340 #
ellipse-curve $-1 -66.287354507222048 -19.934219118660636 9.0483247404131344 -0.80901700255871778 0 0.5877852410284794 0.5877852410284794 0 0.80901700255871778 1 I I #
coedge $-1 $240 $240 $-1 $341 reversed $155 $-1 #
edge $-1 $342 0 $342 6.2831853071796004 $156 $343 forward 7 unknown #
vertex $-1 $159 $344 #
ellipse-curve $-1 -66.287354507222048 -16.230637414481428 9.0483247404131344 -0.80901700255871778 0 0.5877852410284794 0.5877852410284794 0 0.80901700255871778 1 I I #
face $-1 $-1 $175 $24 $-1 $345 reversed single #
loop $-1 $-1 $260 $160 #
plane-surface $-1 0 35.303764790506612 0 0 -1 0 0 0 -1 forward_v I I I I #
coedge $-1 $346 $258 $261 $347 forward $161 $-1 #
coedge $-1 $264 $163 $164 $252 reversed $101 $-1 #
coedge $-1 $258 $346 $163 $250 reversed $161 $-1 #
edge $-1 $265 -15.434878799885238 $348 15.434878799885238 $249 $349 forward 7 unknown #
coedge $-1 $165 $164 $346 $350 forward $65 $-1 #
edge $-1 $256 -70.927457502975557 $348 70.927457502975557 $248 $351 forward 7 unknown #
coedge $-1 $261 $260 $165 $254 reversed $245 $-1 #
edge $-1 $352 -70.927457502975557 $255 70.927457502975557 $253 $353 forward 7 unknown #
vertex $-1 $167 $354 #
vertex $-1 $267 $355 #
straight-curve $-1 70.927457502975557 0 -15.434878799885238 0 -1 0 I I #
coedge $-1 $247 $249 $168 $259 reversed $161 $-1 #
edge $-1 $262 -35.303764790506612 $265 35.303764790506612 $258 $356 forward 7 unknown #
coedge $-1 $253 $169 $174 $268 forward $245 $-1 #
coedge $-1 $169 $253 $247 $347 reversed $245 $-1 #
vertex $-1 $170 $357 #
straight-curve $-1 0 35.303764790506612 15.434878799885238 -1 0 0 I I #
coedge $-1 $171 $248 $173 $267 reversed $101 $-1 #
vertex $-1 $259 $358 #
straight-curve $-1 0 -35.303764790506612 15.434878799885238 1 0 0 I I #
edge $-1 $176 -15.434878799885238 $256 15.434878799885238 $173 $359 forward 7 unknown #
edge $-1 $177 -15.434878799885238 $255 15.434878799885238 $174 $360 forward 7 unknown #
point $-1 70.927457502975557 -35.303764790506612 15.434878799885238 #
point $-1 70.927457502975557 35.303764790506612 15.434878799885238 #
face $-1 $-1 $194 $25 $-1 $361 reversed single #
loop $-1 $-1 $185 $179 #
plane-surface $-1 0 0 15.434878799885238 0 0 1 1 0 0 forward_v I I I I #
coedge $-1 $362 $182 $187 $283 forward $109 $-1 #
coedge $-1 $182 $362 $278 $363 reversed $109 $-1 #
edge $-1 $281 -9.031219993735764 $288 -3.7760976185631909 $182 $364 forward 7 unknown #
edge $-1 $196 3.7760976185631909 $280 9.031219993735764 $192 $365 forward 7 unknown #
coedge $-1 $366 $185 $275 $363 forward $272 $-1 #
coedge $-1 $185 $366 $290 $367 forward $272 $-1 #
vertex $-1 $277 $368 #
vertex $-1 $363 $369 #
straight-curve $-1 0 -22.403273588113443 15.434878799885238 -1 0 0 I I #
edge $-1 $288 7.976513993458429 $286 20.877005195851599 $274 $370 forward 7 unknown #
coedge $-1 $371 $188 $193 $291 reversed $180 $-1 #
coedge $-1 $188 $371 $362 $372 forward $180 $-1 #
vertex $-1 $189 $373 #
straight-curve $-1 0 -35.303764790506612 10.179756424712668 1 0 0 I I #
vertex $-1 $283 $374 #
straight-curve $-1 0 -22.403273588113443 10.179756424712668 1 0 0 I I #
coedge $-1 $193 $192 $279 $367 reversed $194 $-1 #
edge $-1 $375 -15.434878799885238 $195 -10.179756424712668 $193 $376 forward 7 unknown #
point $-1 70.927457502975557 -35.303764790506612 10.179756424712668 #
point $-1 70.927457502975557 -22.403273588113443 10.179756424712668 #
loop $-1 $-1 $206 $198 #
plane-surface $-1 70.927457502975557 0 0 -1 0 0 0 0 1 forward_v I I I I #
coedge $-1 $297 $201 $377 $378 reversed $117 $-1 #
coedge $-1 $201 $296 $300 $379 reversed $117 $-1 #
edge $-1 $380 -141.85491500595117 $301 -126.06648524669259 $201 $381 forward 7 unknown #
coedge $-1 $203 $202 $304 $382 reversed $73 $-1 #
coedge $-1 $209 $204 $297 $379 forward $199 $-1 #
vertex $-1 $379 $383 #
straight-curve $-1 61.647251511468525 -9.0412141332855143 15.434878799885254 0 -1 0 I I #
coedge $-1 $377 $206 $209 $308 reversed $294 $-1 #
coedge $-1 $206 $377 $299 $382 forward $294 $-1 #
vertex $-1 $207 $384 #
straight-curve $-1 70.927457502975557 -13.76158294502862 100.40251711256236 0 0 1 I I #
straight-curve $-1 -12.452767904871919 -13.76158294502862 117.4248088172773 0.5877852410284794 0 -0.80901700255871778 I I #
edge $-1 $385 -22.403273588113443 $210 -13.76158294502862 $303 $386 forward 7 unknown #
point $-1 70.927457502975557 -13.76158294502862 15.434878799885238 #
point $-1 61.647251511468525 -13.76158294502862 15.43487879988524 #
edge $-1 $387 1 $387 0 $213 $-1 forward 7 unknown #
vertex $-1 $214 $388 #
ellipse-curve $-1 64.391582770185821 -19.934219118660636 7.6709659903935963 0.80901700255871778 0 0.5877852410284794 0.5877852410284794 0 -0.80901700255871778 1 I I #
point $-1 66.875139748250533 -19.934219118660636 8.2393077378544017 #
edge $-1 $389 1 $389 0 $217 $-1 forward 7 unknown #
vertex $-1 $218 $390 #
ellipse-curve $-1 64.391582770185821 -16.230637414481428 7.6709659903935963 0.80901700255871778 0 0.5877852410284794 0.5877852410284794 0 -0.80901700255871778 1 I I #
point $-1 66.875139748250533 -16.230637414481428 8.2393077378544017 #
loop $-1 $-1 $229 $221 #
plane-surface $-1 0 -22.403273588113443 12.807317612298954 0 -1 0 0 0 -1 forward_v I I I I #
coedge $-1 $326 $391 $225 $322 forward $222 $-1 #
edge $-1 $324 27.586119244509 $332 40.359227363453215 $321 $392 forward 7 unknown #
coedge $-1 $232 $226 $391 $393 forward $139 $-1 #
vertex $-1 $393 $394 #
straight-curve $-1 -92.845247819655896 -13.76158294502862 15.43487879988524 -1 0 0 I I #
coedge $-1 $395 $321 $228 $327 forward $222 $-1 #
edge $-1 $332 4.7203688117431053 $330 13.362059454827921 $326 $396 forward 7 unknown #
coedge $-1 $329 $229 $232 $334 reversed $319 $-1 #
coedge $-1 $229 $328 $395 $397 reversed $319 $-1 #
vertex $-1 $397 $398 #
straight-curve $-1 -56.262793922599272 -22.403273588113443 22.845949093738543 0.5877852410284794 0 0.80901700255871778 I I #
vertex $-1 $327 $399 #
straight-curve $-1 -70.927457502975543 -13.76158294502862 2.6617706809410464 0.5877852410284794 0 0.80901700255871778 I I #
edge $-1 $400 -70.927457502975557 $233 -61.647251511468554 $232 $401 forward 7 unknown #
point $-1 -61.647251511468554 -22.403273588113436 15.434878799885238 #
point $-1 -61.647251511468554 -13.76158294502862 15.434878799885238 #
edge $-1 $402 1 $402 0 $236 $-1 forward 7 unknown #
vertex $-1 $237 $403 #
ellipse-curve $-1 -64.391582770185835 -19.934219118660636 7.6709659903936176 -0.80901700255871778 0 0.5877852410284794 0.5877852410284794 0 0.80901700255871778 1 I I #
point $-1 -65.699569266193578 -19.934219118660636 9.8573417429718582 #
edge $-1 $404 1 $404 0 $240 $-1 forward 7 unknown #
vertex $-1 $241 $405 #
ellipse-curve $-1 -64.391582770185835 -16.230637414481428 7.6709659903936176 -0.80901700255871778 0 0.5877852410284794 0.5877852410284794 0 0.80901700255871778 1 I I #
point $-1 -65.699569266193578 -16.230637414481428 9.8573417429718582 #
plane-surface $-1 70.927457502975557 0 0 -1 0 0 0 0 1 forward_v I I I I #
coedge $-1 $249 $247 $251 $350 reversed $161 $-1 #
edge $-1 $262 -15.434878799885238 $352 15.434878799885238 $261 $406 forward 7 unknown #
vertex $-1 $350 $407 #
straight-curve $-1 -70.927457502975557 -35.303764790506612 0 0 0 -1 I I #
edge $-1 $348 -35.303764790506612 $352 35.303764790506612 $346 $408 forward 7 unknown #
straight-curve $-1 0 -35.303764790506612 -15.434878799885238 -1 0 0 I I #
vertex $-1 $254 $409 #
straight-curve $-1 0 35.303764790506612 -15.434878799885238 1 0 0 I I #
point $-1 70.927457502975557 35.303764790506612 -15.434878799885238 #
point $-1 70.927457502975557 -35.303764790506612 -15.434878799885238 #
straight-curve $-1 -70.927457502975557 0 15.434878799885238 0 -1 0 I I #
point $-1 -70.927457502975557 35.303764790506612 15.434878799885238 #
point $-1 -70.927457502975557 -35.303764790506612 15.434878799885238 #
straight-curve $-1 70.927457502975557 -35.303764790506612 0 0 0 -1 I I #
straight-curve $-1 70.927457502975557 35.303764790506612 0 0 0 -1 I I #
plane-surface $-1 70.927457502975557 0 0 -1 0 0 0 0 1 forward_v I I I I #
coedge $-1 $275 $274 $285 $372 reversed $109 $-1 #
edge $-1 $281 22.403273588113443 $410 35.303764790506612 $275 $411 forward 7 unknown #
straight-curve $-1 -70.927457502975557 -22.403273588113443 6.403658806149477 0 0 -1 I I #
straight-curve $-1 70.927457502975557 -22.403273588113443 6.403658806149477 0 0 1 I I #
coedge $-1 $279 $278 $371 $412 forward $272 $-1 #
edge $-1 $375 -35.303764790506612 $280 -22.403273588113443 $290 $413 forward 7 unknown #
point $-1 70.927457502975557 -22.403273588113443 15.43487879988524 #
point $-1 -70.927457502975557 -22.403273588113443 15.43487879988524 #
straight-curve $-1 -70.927457502975557 -14.426759594655014 10.179756424712668 0 -1 0 I I #
coedge $-1 $285 $284 $366 $412 reversed $180 $-1 #
edge $-1 $410 -15.434878799885238 $286 -10.179756424712668 $362 $414 forward 7 unknown #
point $-1 -70.927457502975557 -35.303764790506612 10.179756424712668 #
point $-1 -70.927457502975557 -22.403273588113443 10.179756424712668 #
vertex $-1 $367 $415 #
straight-curve $-1 70.927457502975557 -35.303764790506612 0 0 0 -1 I I #
coedge $-1 $304 $303 $296 $378 forward $294 $-1 #
edge $-1 $385 84.967638312677124 $380 97.740746431621361 $377 $416 forward 7 unknown #
edge $-1 $301 61.647251511468525 $385 70.927457502975557 $300 $417 forward 7 unknown #
vertex $-1 $378 $418 #
straight-curve $-1 -12.452767904871919 -22.403273588113436 117.4248088172773 -0.5877852410284794 0 0.80901700255871778 I I #
edge $-1 $380 -13.362059454827921 $305 -4.7203688117431053 $304 $419 forward 7 unknown #
point $-1 61.647251511468525 -22.403273588113443 15.434878799885238 #
point $-1 70.927457502975543 -13.76158294502862 2.6617706809410038 #
vertex $-1 $308 $420 #
straight-curve $-1 70.927457502975557 0 15.434878799885238 0 1 0 I I #
vertex $-1 $311 $421 #
point $-1 64.979368011214305 -19.934219118660636 6.8619489878348787 #
vertex $-1 $315 $422 #
point $-1 64.979368011214305 -16.230637414481428 6.8619489878348787 #
coedge $-1 $321 $395 $323 $393 reversed $222 $-1 #
straight-curve $-1 -70.927457502975557 -13.76158294502862 43.02099804439424 0 0 -1 I I #
edge $-1 $324 13.76158294502862 $400 22.403273588113443 $391 $423 forward 7 unknown #
point $-1 -70.927457502975557 -13.76158294502862 15.434878799885238 #
coedge $-1 $391 $326 $329 $397 forward $222 $-1 #
straight-curve $-1 -70.927457502975557 -9.0412141332855143 2.6617706809410326 0 -1 0 I I #
edge $-1 $330 -40.359227363453215 $400 -27.586119244509 $395 $424 forward 7 unknown #
point $-1 -70.927457502975557 -22.403273588113436 2.6617706809410269 #
point $-1 -70.927457502975557 -13.76158294502862 2.6617706809410269 #
vertex $-1 $397 $425 #
straight-curve $-1 0 -22.403273588113443 15.434878799885238 1 0 0 I I #
vertex $-1 $337 $426 #
point $-1 -63.803797529157357 -19.934219118660636 8.4799829929523352 #
vertex $-1 $341 $427 #
point $-1 -63.803797529157357 -16.230637414481428 8.4799829929523352 #
straight-curve $-1 -70.927457502975557 35.303764790506612 0 0 0 -1 I I #
point $-1 -70.927457502975557 -35.303764790506612 -15.434878799885238 #
straight-curve $-1 -70.927457502975557 0 -15.434878799885238 0 1 0 I I #
point $-1 -70.927457502975557 35.303764790506612 -15.434878799885238 #
vertex $-1 $363 $428 #
straight-curve $-1 -70.927457502975557 0 15.434878799885238 0 -1 0 I I #
edge $-1 $410 -70.927457502975557 $375 70.927457502975557 $371 $429 forward 7 unknown #
straight-curve $-1 70.927457502975557 0 15.434878799885238 0 1 0 I I #
straight-curve $-1 -70.927457502975557 -35.303764790506612 0 0 0 -1 I I #
point $-1 70.927457502975557 -35.303764790506612 15.434878799885238 #
straight-curve $-1 70.927457502975557 -22.403273588113436 100.40251711256236 0 0 -1 I I #
straight-curve $-1 0 -22.403273588113443 15.434878799885238 1 0 0 I I #
point $-1 70.927457502975543 -22.403273588113436 2.6617706809410038 #
straight-curve $-1 70.927457502975557 -9.0412141332855143 2.6617706809410038 0 1 0 I I #
point $-1 70.927457502975557 -22.403273588113443 15.43487879988524 #
point $-1 63.582565767627109 -19.934219118660636 7.0831807493651171 #
point $-1 63.582565767627109 -16.230637414481428 7.0831807493651171 #
straight-curve $-1 -70.927457502975557 0 15.434878799885238 0 -1 0 I I #
straight-curve $-1 -70.927457502975557 -22.403273588113436 43.02099804439424 0 0 1 I I #
point $-1 -70.927457502975557 -22.403273588113443 15.43487879988524 #
point $-1 -63.582565767627116 -19.934219118660636 7.0831807493651384 #
point $-1 -63.582565767627116 -16.230637414481428 7.0831807493651384 #
point $-1 -70.927457502975557 -35.303764790506612 15.434878799885238 #
straight-curve $-1 0 -35.303764790506612 15.434878799885238 1 0 0 I I #
End-of-ACIS-data 