500 0 11 0           
7 Unknown 11 ACIS 5.0 NT 24 Fri Mar 26 03:33:38 1999 
-1 9.9999999999999995e-007 1e-010 
body $-1 $11 $-1 $12 #
body $-1 $13 $-1 $14 #
body $-1 $15 $-1 $16 #
body $-1 $17 $-1 $18 #
body $-1 $19 $-1 $20 #
body $-1 $21 $-1 $22 #
body $-1 $23 $-1 $24 #
body $-1 $25 $-1 $26 #
body $-1 $27 $-1 $28 #
body $-1 $29 $-1 $30 #
body $-1 $31 $-1 $32 #
lump $-1 $-1 $33 $0 #
transform $-1 1 0 0 0 1 0 0 0 1 61.029694509720144 34.052174316014906 9.3793906696298404 1 rotate no_reflect no_shear #
lump $-1 $-1 $34 $1 #
transform $-1 1 0 0 0 1 0 0 0 1 61.029694509720144 34.052174316014906 9.3793906696298404 1 rotate no_reflect no_shear #
lump $-1 $-1 $35 $2 #
transform $-1 1 0 0 0 1 0 0 0 1 61.029694509720144 34.052174316014906 9.3793906696298404 1 rotate no_reflect no_shear #
lump $-1 $-1 $36 $3 #
transform $-1 1 0 0 0 1 0 0 0 1 61.029694509720144 34.052174316014906 9.3793906696298404 1 rotate no_reflect no_shear #
lump $-1 $-1 $37 $4 #
transform $-1 1 0 0 0 1 0 0 0 1 61.029694509720144 34.052174316014906 9.3793906696298404 1 rotate no_reflect no_shear #
lump $-1 $-1 $38 $5 #
transform $-1 1 0 0 0 1 0 0 0 1 61.029694509720144 34.052174316014906 9.3793906696298404 1 rotate no_reflect no_shear #
lump $-1 $-1 $39 $6 #
transform $-1 1 0 0 0 1 0 0 0 1 61.029694509720144 34.052174316014906 9.3793906696298404 1 rotate no_reflect no_shear #
lump $-1 $-1 $40 $7 #
transform $-1 1 0 0 0 1 0 0 0 1 61.029694509720144 34.052174316014906 9.3793906696298404 1 rotate no_reflect no_shear #
lump $-1 $-1 $41 $8 #
transform $-1 1 0 0 0 1 0 0 0 1 61.029694509720144 34.052174316014906 9.3793906696298404 1 rotate no_reflect no_shear #
lump $-1 $-1 $42 $9 #
transform $-1 1 0 0 0 1 0 0 0 1 61.029694509720144 34.052174316014906 9.3793906696298404 1 rotate no_reflect no_shear #
lump $-1 $-1 $43 $10 #
transform $-1 1 0 0 0 1 0 0 0 1 61.029694509720144 34.052174316014906 9.3793906696298404 1 rotate no_reflect no_shear #
shell $-1 $-1 $-1 $44 $-1 $11 #
shell $-1 $-1 $-1 $45 $-1 $13 #
shell $-1 $-1 $-1 $46 $-1 $15 #
shell $-1 $-1 $-1 $47 $-1 $17 #
shell $-1 $-1 $-1 $48 $-1 $19 #
shell $-1 $-1 $-1 $49 $-1 $21 #
shell $-1 $-1 $-1 $50 $-1 $23 #
shell $-1 $-1 $-1 $51 $-1 $25 #
shell $-1 $-1 $-1 $52 $-1 $27 #
shell $-1 $-1 $-1 $53 $-1 $29 #
shell $-1 $-1 $-1 $54 $-1 $31 #
face $-1 $55 $56 $33 $-1 $57 forward single #
face $-1 $58 $59 $34 $-1 $60 forward single #
face $-1 $61 $62 $35 $-1 $63 reversed single #
face $-1 $64 $65 $36 $-1 $66 forward single #
face $-1 $67 $68 $37 $-1 $69 forward single #
face $-1 $70 $71 $38 $-1 $72 reversed single #
face $-1 $73 $74 $39 $-1 $75 forward single #
face $-1 $76 $77 $40 $-1 $78 forward single #
face $-1 $79 $80 $41 $-1 $81 reversed single #
face $-1 $82 $83 $42 $-1 $84 forward single #
face $-1 $85 $86 $43 $-1 $87 forward single #
face $-1 $88 $89 $33 $-1 $90 reversed single #
loop $-1 $-1 $91 $44 #
plane-surface $-1 0 0 9.3793906696298404 0 0 1 1 0 0 forward_v I I I I #
face $-1 $92 $93 $34 $-1 $94 reversed single #
loop $-1 $-1 $95 $45 #
plane-surface $-1 0 -34.052174316014906 0 0 1 0 0 0 1 forward_v I I I I #
face $-1 $96 $97 $35 $-1 $98 reversed single #
loop $-1 $-1 $99 $46 #
plane-surface $-1 -134.48686946833575 -25.029462119782046 98.324940663929794 0 1 0 -0.6018150307709319 0 0.79863550430605224 forward_v I I I I #
face $-1 $100 $101 $36 $-1 $102 forward single #
loop $-1 $103 $104 $47 #
cone-surface $-1 -54.971322866243817 -22.508459212375534 4.5875886429398518 0.6018150307709319 0 -0.79863550430605224 0.79863550430605224 0 0.6018150307709319 1 I I 0 1 1 forward I I I I #
face $-1 $105 $106 $37 $-1 $107 forward single #
loop $-1 $108 $109 $48 #
cone-surface $-1 -54.971322866243817 -18.726954851265766 4.5875886429398518 0.6018150307709319 0 -0.79863550430605224 0.79863550430605224 0 0.6018150307709319 1 I I 0 1 1 forward I I I I #
face $-1 $110 $111 $38 $-1 $112 reversed single #
loop $-1 $-1 $113 $49 #
plane-surface $-1 48.988470320216081 4.5113560981164298 176.37325489589645 0 -1 0 -0.6560590369687036 0 -0.75470957328743171 forward_v I I I I #
face $-1 $114 $115 $39 $-1 $116 forward single #
loop $-1 $117 $118 $50 #
cone-surface $-1 56.433472026618091 -3.4694019129631393 4.9333415654788624 -0.6560590369687036 0 -0.75470957328743171 1.1320643599311475 0 -0.9840885554530554 1 I I 0 1 1.5 forward I I I I #
face $-1 $119 $120 $40 $-1 $121 forward single #
loop $-1 $122 $123 $51 #
cone-surface $-1 56.433472026618091 1.3190528936845993 4.9333415654788624 -0.6560590369687036 0 -0.75470957328743171 1.1320643599311475 0 -0.9840885554530554 1 I I 0 1 1.5 forward I I I I #
face $-1 $124 $125 $41 $-1 $126 reversed single #
loop $-1 $-1 $127 $52 #
plane-surface $-1 48.988470320216081 15.684417313627826 176.37325489589645 0 -1 0 -0.6560590369687036 0 -0.75470957328743171 forward_v I I I I #
face $-1 $128 $129 $42 $-1 $130 forward single #
loop $-1 $131 $132 $53 #
cone-surface $-1 56.433472026618091 7.7036593025482532 4.9333415654788624 -0.6560590369687036 0 -0.75470957328743171 1.1320643599311475 0 -0.9840885554530554 1 I I 0 1 1.5 forward I I I I #
face $-1 $133 $134 $43 $-1 $135 forward single #
loop $-1 $136 $137 $54 #
cone-surface $-1 56.433472026618091 12.492114109195995 4.9333415654788624 -0.6560590369687036 0 -0.75470957328743171 1.1320643599311475 0 -0.9840885554530554 1 I I 0 1 1.5 forward I I I I #
face $-1 $138 $139 $33 $-1 $140 reversed single #
loop $-1 $-1 $141 $55 #
plane-surface $-1 0 0 -9.3793906696298404 0 0 1 1 0 0 forward_v I I I I #
coedge $-1 $142 $143 $144 $145 forward $56 $-1 #
face $-1 $146 $147 $34 $-1 $148 reversed single #
loop $-1 $-1 $149 $58 #
plane-surface $-1 0 0 -9.3793906696298404 0 0 1 1 0 0 forward_v I I I I #
coedge $-1 $150 $151 $152 $153 forward $59 $-1 #
face $-1 $154 $155 $35 $-1 $156 reversed single #
loop $-1 $-1 $157 $61 #
plane-surface $-1 -61.029694509720144 -20.61770703182065 0.84397895910048248 -0.6018150307709319 0 0.79863550430605224 0.79863550430605224 0 0.6018150307709319 forward_v I I I I #
coedge $-1 $158 $159 $160 $161 reversed $62 $-1 #
face $-1 $-1 $162 $36 $-1 $163 forward single #
loop $-1 $164 $165 $64 #
cone-surface $-1 -54.27548055039852 -22.508459212375534 3.6641747193615188 0.6018150307709319 0 -0.79863550430605224 0.39931775215302612 0 0.30090751538546595 1 I I -0.70710678118654746 0.70710678118654746 0.5 forward I I I I #
loop $-1 $-1 $166 $47 #
coedge $-1 $104 $104 $167 $168 reversed $65 $-1 #
face $-1 $-1 $169 $37 $-1 $170 forward single #
loop $-1 $171 $172 $67 #
cone-surface $-1 -54.27548055039852 -18.726954851265766 3.6641747193615188 0.6018150307709319 0 -0.79863550430605224 0.39931775215302612 0 0.30090751538546595 1 I I -0.70710678118654746 0.70710678118654746 0.5 forward I I I I #
loop $-1 $-1 $173 $48 #
coedge $-1 $109 $109 $174 $175 reversed $68 $-1 #
face $-1 $176 $177 $38 $-1 $178 reversed single #
loop $-1 $-1 $179 $70 #
plane-surface $-1 -31.089694892866262 -1.0751745096392682 84.253865493310059 0.6560590369687036 0 0.75470957328743171 0.75470957328743171 0 -0.6560590369687036 forward_v I I I I #
coedge $-1 $180 $181 $182 $183 reversed $71 $-1 #
face $-1 $-1 $184 $39 $-1 $185 forward single #
loop $-1 $186 $187 $73 #
cone-surface $-1 54.338285714350519 -3.4694019129631393 2.5231054760633942 -0.6560590369687036 0 -0.75470957328743171 0.56603217996557376 0 -0.4920442777265277 1 I I -0.70710678118654724 0.70710678118654768 0.75 forward I I I I #
loop $-1 $-1 $188 $50 #
coedge $-1 $118 $118 $189 $190 reversed $74 $-1 #
face $-1 $-1 $191 $40 $-1 $192 forward single #
loop $-1 $193 $194 $76 #
cone-surface $-1 54.338285714350519 1.3190528936845993 2.5231054760633942 -0.6560590369687036 0 -0.75470957328743171 0.56603217996557376 0 -0.4920442777265277 1 I I -0.70710678118654724 0.70710678118654768 0.75 forward I I I I #
loop $-1 $-1 $195 $51 #
coedge $-1 $123 $123 $196 $197 reversed $77 $-1 #
face $-1 $198 $199 $41 $-1 $200 reversed single #
loop $-1 $-1 $201 $79 #
plane-surface $-1 -31.089694892866262 -1.0751745096392682 84.253865493310059 0.6560590369687036 0 0.75470957328743171 0.75470957328743171 0 -0.6560590369687036 forward_v I I I I #
coedge $-1 $202 $203 $204 $205 reversed $80 $-1 #
face $-1 $-1 $206 $42 $-1 $207 forward single #
loop $-1 $208 $209 $82 #
cone-surface $-1 54.338285714350519 7.7036593025482532 2.5231054760633942 -0.6560590369687036 0 -0.75470957328743171 0.56603217996557376 0 -0.4920442777265277 1 I I -0.70710678118654724 0.70710678118654768 0.75 forward I I I I #
loop $-1 $-1 $210 $53 #
coedge $-1 $132 $132 $211 $212 reversed $83 $-1 #
face $-1 $-1 $213 $43 $-1 $214 forward single #
loop $-1 $215 $216 $85 #
cone-surface $-1 54.338285714350519 12.492114109195995 2.5231054760633942 -0.6560590369687036 0 -0.75470957328743171 0.56603217996557376 0 -0.4920442777265277 1 I I -0.70710678118654724 0.70710678118654768 0.75 forward I I I I #
loop $-1 $-1 $217 $54 #
coedge $-1 $137 $137 $218 $219 reversed $86 $-1 #
face $-1 $220 $221 $33 $-1 $222 reversed single #
loop $-1 $-1 $223 $88 #
plane-surface $-1 0 -34.052174316014906 0 0 1 0 0 0 1 forward_v I I I I #
coedge $-1 $224 $225 $226 $227 forward $89 $-1 #
coedge $-1 $228 $91 $229 $230 forward $56 $-1 #
coedge $-1 $91 $228 $231 $232 forward $56 $-1 #
coedge $-1 $233 $234 $91 $145 reversed $235 $-1 #
edge $-1 $236 -34.052174316014906 $237 34.052174316014906 $144 $238 forward 7 unknown #
face $-1 $239 $240 $34 $-1 $241 forward single #
loop $-1 $-1 $242 $92 #
plane-surface $-1 61.029694509720144 0 0 -1 0 0 0 0 1 forward_v I I I I #
coedge $-1 $243 $244 $245 $246 forward $93 $-1 #
coedge $-1 $245 $95 $242 $247 reversed $59 $-1 #
coedge $-1 $95 $245 $248 $249 reversed $59 $-1 #
coedge $-1 $250 $251 $95 $153 reversed $240 $-1 #
edge $-1 $252 -61.029694509720144 $253 61.029694509720144 $152 $254 forward 7 unknown #
face $-1 $255 $256 $35 $-1 $257 forward single #
loop $-1 $-1 $258 $96 #
plane-surface $-1 -134.48686946833575 -16.205951943859255 98.324940663929794 0 -1 0 0.6018150307709319 0 -0.79863550430605224 forward_v I I I I #
coedge $-1 $259 $260 $261 $262 reversed $97 $-1 #
coedge $-1 $159 $99 $263 $264 reversed $62 $-1 #
coedge $-1 $99 $158 $259 $265 reversed $62 $-1 #
coedge $-1 $261 $266 $99 $161 forward $256 $-1 #
edge $-1 $267 6.2137402244477329 $268 17.540613910480715 $160 $269 forward 7 unknown #
loop $-1 $-1 $167 $100 #
plane-surface $-1 -61.029694509720144 -20.61770703182065 0.84397895910048248 -0.6018150307709319 0 0.79863550430605224 0.79863550430605224 0 0.6018150307709319 forward_v I I I I #
loop $-1 $-1 $270 $64 #
coedge $-1 $165 $165 $166 $271 reversed $101 $-1 #
coedge $-1 $166 $166 $165 $271 forward $103 $-1 #
coedge $-1 $167 $167 $104 $168 forward $162 $-1 #
edge $-1 $272 0 $272 6.2831853071796004 $167 $273 forward 7 unknown #
loop $-1 $-1 $174 $105 #
plane-surface $-1 -61.029694509720144 -20.61770703182065 0.84397895910048248 -0.6018150307709319 0 0.79863550430605224 0.79863550430605224 0 0.6018150307709319 forward_v I I I I #
loop $-1 $-1 $274 $67 #
coedge $-1 $172 $172 $173 $275 reversed $106 $-1 #
coedge $-1 $173 $173 $172 $275 forward $108 $-1 #
coedge $-1 $174 $174 $109 $175 forward $169 $-1 #
edge $-1 $276 0 $276 6.2831853071796004 $174 $277 forward 7 unknown #
face $-1 $278 $279 $38 $-1 $280 reversed single #
loop $-1 $-1 $281 $110 #
plane-surface $-1 48.988470320216081 -6.6617051173949662 176.37325489589645 0 1 0 0.6560590369687036 0 0.75470957328743171 forward_v I I I I #
coedge $-1 $282 $283 $284 $285 reversed $111 $-1 #
coedge $-1 $181 $113 $286 $287 reversed $71 $-1 #
coedge $-1 $113 $180 $282 $288 reversed $71 $-1 #
coedge $-1 $284 $289 $113 $183 forward $290 $-1 #
edge $-1 $291 -36.535459349612104 $292 -30.549298452490071 $182 $293 forward 7 unknown #
loop $-1 $-1 $189 $114 #
plane-surface $-1 -31.089694892866262 -1.0751745096392682 84.253865493310059 0.6560590369687036 0 0.75470957328743171 0.75470957328743171 0 -0.6560590369687036 forward_v I I I I #
loop $-1 $-1 $294 $73 #
coedge $-1 $187 $187 $188 $295 reversed $115 $-1 #
coedge $-1 $188 $188 $187 $295 forward $117 $-1 #
coedge $-1 $189 $189 $118 $190 forward $184 $-1 #
edge $-1 $296 0 $296 6.2831853071796004 $189 $297 forward 7 unknown #
loop $-1 $-1 $196 $119 #
plane-surface $-1 -31.089694892866262 -1.0751745096392682 84.253865493310059 0.6560590369687036 0 0.75470957328743171 0.75470957328743171 0 -0.6560590369687036 forward_v I I I I #
loop $-1 $-1 $298 $76 #
coedge $-1 $194 $194 $195 $299 reversed $120 $-1 #
coedge $-1 $195 $195 $194 $299 forward $122 $-1 #
coedge $-1 $196 $196 $123 $197 forward $191 $-1 #
edge $-1 $300 0 $300 6.2831853071796004 $196 $301 forward 7 unknown #
face $-1 $302 $303 $41 $-1 $304 forward single #
loop $-1 $-1 $305 $124 #
plane-surface $-1 61.029694509720144 0 0 -1 0 0 0 0 1 forward_v I I I I #
coedge $-1 $306 $307 $308 $309 reversed $125 $-1 #
coedge $-1 $203 $127 $310 $311 reversed $80 $-1 #
coedge $-1 $127 $202 $312 $313 reversed $80 $-1 #
coedge $-1 $314 $305 $127 $205 forward $199 $-1 #
edge $-1 $315 -84.010927167720524 $316 -78.807236778318384 $204 $317 forward 7 unknown #
loop $-1 $-1 $211 $128 #
plane-surface $-1 -31.089694892866262 -1.0751745096392682 84.253865493310059 0.6560590369687036 0 0.75470957328743171 0.75470957328743171 0 -0.6560590369687036 forward_v I I I I #
loop $-1 $-1 $318 $82 #
coedge $-1 $209 $209 $210 $319 reversed $129 $-1 #
coedge $-1 $210 $210 $209 $319 forward $131 $-1 #
coedge $-1 $211 $211 $132 $212 forward $206 $-1 #
edge $-1 $320 0 $320 6.2831853071796004 $211 $321 forward 7 unknown #
loop $-1 $-1 $218 $133 #
plane-surface $-1 -31.089694892866262 -1.0751745096392682 84.253865493310059 0.6560590369687036 0 0.75470957328743171 0.75470957328743171 0 -0.6560590369687036 forward_v I I I I #
loop $-1 $-1 $322 $85 #
coedge $-1 $216 $216 $217 $323 reversed $134 $-1 #
coedge $-1 $217 $217 $216 $323 forward $136 $-1 #
coedge $-1 $218 $218 $137 $219 forward $213 $-1 #
edge $-1 $324 0 $324 6.2831853071796004 $218 $325 forward 7 unknown #
face $-1 $326 $327 $33 $-1 $328 reversed single #
loop $-1 $-1 $329 $138 #
plane-surface $-1 -61.029694509720144 0 0 1 0 0 0 0 -1 forward_v I I I I #
coedge $-1 $231 $330 $233 $331 reversed $139 $-1 #
coedge $-1 $332 $141 $330 $333 forward $89 $-1 #
coedge $-1 $141 $332 $334 $335 forward $89 $-1 #
coedge $-1 $234 $233 $141 $227 reversed $235 $-1 #
edge $-1 $336 -34.052174316014906 $337 34.052174316014906 $226 $338 forward 7 unknown #
coedge $-1 $143 $142 $339 $340 forward $56 $-1 #
coedge $-1 $341 $342 $142 $230 reversed $327 $-1 #
edge $-1 $237 -61.029694509720144 $343 61.029694509720144 $229 $344 forward 7 unknown #
coedge $-1 $345 $223 $143 $232 reversed $139 $-1 #
edge $-1 $346 -61.029694509720144 $236 61.029694509720144 $231 $347 forward 7 unknown #
coedge $-1 $226 $144 $223 $331 forward $235 $-1 #
coedge $-1 $144 $226 $341 $348 reversed $235 $-1 #
loop $-1 $-1 $233 $326 #
vertex $-1 $145 $349 #
vertex $-1 $145 $350 #
straight-curve $-1 61.029694509720144 0 9.3793906696298404 0 1 0 I I #
face $-1 $351 $352 $34 $-1 $353 reversed single #
loop $-1 $-1 $251 $146 #
plane-surface $-1 0 -38.563530414131336 -5.1627152353722892 0 0 1 1 0 0 forward_v I I I I #
coedge $-1 $354 $355 $150 $247 forward $147 $-1 #
coedge $-1 $356 $149 $355 $357 forward $93 $-1 #
coedge $-1 $149 $356 $358 $359 forward $93 $-1 #
coedge $-1 $151 $150 $149 $246 reversed $59 $-1 #
edge $-1 $360 -61.029694509720144 $361 61.029694509720144 $149 $362 forward 7 unknown #
edge $-1 $361 -9.3793906696298404 $253 -5.1627152353722892 $242 $363 forward 7 unknown #
coedge $-1 $358 $364 $151 $249 forward $365 $-1 #
edge $-1 $252 5.1627152353722892 $360 9.3793906696298404 $248 $366 forward 7 unknown #
coedge $-1 $367 $152 $364 $368 forward $240 $-1 #
coedge $-1 $152 $367 $354 $369 forward $240 $-1 #
vertex $-1 $249 $370 #
vertex $-1 $369 $371 #
straight-curve $-1 0 -34.052174316014906 -5.1627152353722892 1 0 0 I I #
face $-1 $-1 $372 $35 $-1 $373 reversed single #
loop $-1 $-1 $160 $154 #
plane-surface $-1 0 0 9.3793906696298404 0 0 1 1 0 0 forward_v I I I I #
coedge $-1 $374 $375 $376 $377 reversed $155 $-1 #
coedge $-1 $378 $157 $159 $265 forward $97 $-1 #
coedge $-1 $157 $378 $374 $379 forward $97 $-1 #
coedge $-1 $376 $160 $157 $262 forward $256 $-1 #
edge $-1 $268 -14.720608603871721 $380 -5.8970984279489294 $261 $381 forward 7 unknown #
coedge $-1 $382 $383 $158 $264 forward $372 $-1 #
edge $-1 $384 -48.318491372864415 $267 -39.783079662335055 $263 $385 forward 7 unknown #
edge $-1 $268 -14.182782539670701 $384 0 $159 $386 forward 7 unknown #
coedge $-1 $160 $376 $382 $387 forward $256 $-1 #
vertex $-1 $264 $388 #
vertex $-1 $161 $389 #
straight-curve $-1 -67.243434734167877 -25.029462119782046 9.3793906696298421 1 0 0 I I #
coedge $-1 $270 $270 $-1 $390 reversed $164 $-1 #
edge $-1 $391 0 $391 6.2831853071796004 $165 $392 forward 7 unknown #
vertex $-1 $168 $393 #
ellipse-curve $-1 -55.366257666703653 -22.508459212375534 5.1116848143651623 -0.6018150307709319 0 0.79863550430605224 0.79863550430605224 0 0.6018150307709319 1 I I #
coedge $-1 $274 $274 $-1 $394 reversed $171 $-1 #
edge $-1 $395 0 $395 6.2831853071796004 $172 $396 forward 7 unknown #
vertex $-1 $175 $397 #
ellipse-curve $-1 -55.366257666703653 -18.726954851265766 5.1116848143651623 -0.6018150307709319 0 0.79863550430605224 0.79863550430605224 0 0.6018150307709319 1 I I #
face $-1 $-1 $290 $38 $-1 $398 forward single #
loop $-1 $-1 $399 $176 #
plane-surface $-1 61.029694509720144 0 0 -1 0 0 0 0 1 forward_v I I I I #
coedge $-1 $400 $401 $402 $403 reversed $177 $-1 #
coedge $-1 $404 $179 $181 $288 forward $111 $-1 #
coedge $-1 $179 $404 $400 $405 forward $111 $-1 #
coedge $-1 $402 $182 $179 $285 forward $290 $-1 #
edge $-1 $292 -5.0489433529360639 $406 6.1241178625753321 $284 $407 forward 7 unknown #
coedge $-1 $408 $409 $180 $287 forward $279 $-1 #
edge $-1 $410 -84.010927167720524 $291 -78.807236778318384 $286 $411 forward 7 unknown #
edge $-1 $292 114.12764797758895 $410 122.05938901944029 $181 $412 forward 7 unknown #
coedge $-1 $182 $402 $408 $413 forward $290 $-1 #
loop $-1 $-1 $402 $278 #
vertex $-1 $287 $414 #
vertex $-1 $183 $415 #
straight-curve $-1 24.49423516010804 4.5113560981164298 9.3793906696298421 -1 0 0 I I #
coedge $-1 $294 $294 $-1 $416 reversed $186 $-1 #
edge $-1 $417 0 $417 6.2831853071796004 $187 $418 forward 7 unknown #
vertex $-1 $190 $419 #
ellipse-curve $-1 58.036614061159142 -3.4694019129631393 6.7775454749287682 0.6560590369687036 0 0.75470957328743171 1.1320643599311475 0 -0.9840885554530554 1 I I #
coedge $-1 $298 $298 $-1 $420 reversed $193 $-1 #
edge $-1 $421 0 $421 6.2831853071796004 $194 $422 forward 7 unknown #
vertex $-1 $197 $423 #
ellipse-curve $-1 58.036614061159142 1.3190528936845993 6.7775454749287682 0.6560590369687036 0 0.75470957328743171 1.1320643599311475 0 -0.9840885554530554 1 I I #
face $-1 $-1 $424 $41 $-1 $425 forward single #
loop $-1 $-1 $426 $198 #
plane-surface $-1 48.988470320216081 4.5113560981164298 176.37325489589645 0 -1 0 -0.6560590369687036 0 -0.75470957328743171 forward_v I I I I #
coedge $-1 $204 $427 $307 $428 forward $199 $-1 #
coedge $-1 $310 $201 $429 $430 reversed $125 $-1 #
coedge $-1 $201 $310 $305 $428 reversed $125 $-1 #
coedge $-1 $431 $426 $201 $309 forward $303 $-1 #
edge $-1 $432 114.12764797758895 $433 122.05938901944029 $308 $434 forward 7 unknown #
coedge $-1 $307 $306 $202 $311 forward $125 $-1 #
edge $-1 $435 114.12764797758895 $315 122.05938901944029 $202 $436 forward 7 unknown #
coedge $-1 $429 $437 $203 $313 forward $424 $-1 #
edge $-1 $316 -36.535459349612104 $435 -30.549298452490071 $312 $438 forward 7 unknown #
coedge $-1 $427 $204 $437 $439 reversed $199 $-1 #
vertex $-1 $205 $440 #
vertex $-1 $205 $441 #
straight-curve $-1 61.029694509720144 15.684417313627826 88.186627447948226 0 0 1 I I #
coedge $-1 $318 $318 $-1 $442 reversed $208 $-1 #
edge $-1 $443 0 $443 6.2831853071796004 $209 $444 forward 7 unknown #
vertex $-1 $212 $445 #
ellipse-curve $-1 58.036614061159142 7.7036593025482532 6.7775454749287682 0.6560590369687036 0 0.75470957328743171 1.1320643599311475 0 -0.9840885554530554 1 I I #
coedge $-1 $322 $322 $-1 $446 reversed $215 $-1 #
edge $-1 $447 0 $447 6.2831853071796004 $216 $448 forward 7 unknown #
vertex $-1 $219 $449 #
ellipse-curve $-1 58.036614061159142 12.492114109195995 6.7775454749287682 0.6560590369687036 0 0.75470957328743171 1.1320643599311475 0 -0.9840885554530554 1 I I #
face $-1 $-1 $235 $33 $-1 $450 reversed single #
loop $-1 $-1 $341 $220 #
plane-surface $-1 0 34.052174316014906 0 0 -1 0 0 0 -1 forward_v I I I I #
coedge $-1 $451 $339 $342 $452 forward $221 $-1 #
coedge $-1 $223 $345 $224 $333 reversed $139 $-1 #
edge $-1 $236 -9.3793906696298404 $337 9.3793906696298404 $233 $453 forward 7 unknown #
coedge $-1 $225 $224 $451 $454 forward $89 $-1 #
edge $-1 $337 -61.029694509720144 $455 61.029694509720144 $330 $456 forward 7 unknown #
coedge $-1 $342 $341 $225 $335 reversed $327 $-1 #
edge $-1 $457 -61.029694509720144 $336 61.029694509720144 $334 $458 forward 7 unknown #
vertex $-1 $227 $459 #
vertex $-1 $331 $460 #
straight-curve $-1 61.029694509720144 0 -9.3793906696298404 0 -1 0 I I #
coedge $-1 $329 $461 $228 $340 reversed $221 $-1 #
edge $-1 $343 -34.052174316014906 $346 34.052174316014906 $339 $462 forward 7 unknown #
coedge $-1 $334 $229 $234 $348 forward $327 $-1 #
coedge $-1 $229 $334 $329 $452 reversed $327 $-1 #
vertex $-1 $230 $463 #
straight-curve $-1 0 34.052174316014906 9.3793906696298404 -1 0 0 I I #
coedge $-1 $330 $231 $461 $464 forward $139 $-1 #
vertex $-1 $340 $465 #
straight-curve $-1 0 -34.052174316014906 9.3793906696298404 1 0 0 I I #
edge $-1 $237 -9.3793906696298404 $336 9.3793906696298404 $234 $466 forward 7 unknown #
point $-1 61.029694509720144 -34.052174316014906 9.3793906696298404 #
point $-1 61.029694509720144 34.052174316014906 9.3793906696298404 #
face $-1 $-1 $365 $34 $-1 $467 reversed single #
loop $-1 $-1 $468 $239 #
plane-surface $-1 0 -43.074886512247765 -7.2710529525010648 0 1 0 0 0 1 forward_v I I I I #
coedge $-1 $469 $242 $251 $369 reversed $147 $-1 #
coedge $-1 $242 $469 $243 $357 reversed $147 $-1 #
coedge $-1 $244 $243 $470 $471 forward $93 $-1 #
edge $-1 $361 34.052174316014906 $472 43.074886512247765 $355 $473 forward 7 unknown #
coedge $-1 $474 $248 $244 $359 reversed $365 $-1 #
edge $-1 $475 -43.074886512247765 $360 -34.052174316014906 $358 $476 forward 7 unknown #
vertex $-1 $249 $477 #
vertex $-1 $357 $478 #
straight-curve $-1 0 -34.052174316014906 -9.3793906696298404 1 0 0 I I #
straight-curve $-1 61.029694509720144 -34.052174316014906 0 0 0 1 I I #
coedge $-1 $248 $474 $250 $368 reversed $365 $-1 #
loop $-1 $-1 $248 $351 #
straight-curve $-1 -61.029694509720144 -34.052174316014906 0 0 0 -1 I I #
coedge $-1 $251 $250 $479 $480 forward $240 $-1 #
edge $-1 $252 -4.5113560981164298 $481 4.5113560981164298 $364 $482 forward 7 unknown #
edge $-1 $483 -4.5113560981164298 $253 4.5113560981164298 $354 $484 forward 7 unknown #
point $-1 -61.029694509720144 -34.052174316014906 -5.1627152353722892 #
point $-1 61.029694509720144 -34.052174316014906 -5.1627152353722892 #
loop $-1 $-1 $263 $255 #
plane-surface $-1 -61.029694509720144 0 0 1 0 0 0 0 -1 forward_v I I I I #
coedge $-1 $375 $258 $260 $379 reversed $155 $-1 #
coedge $-1 $258 $374 $485 $486 reversed $155 $-1 #
coedge $-1 $266 $261 $258 $377 forward $256 $-1 #
edge $-1 $380 -17.540613910480715 $487 -6.2137402244477329 $376 $488 forward 7 unknown #
coedge $-1 $260 $259 $383 $489 reversed $97 $-1 #
edge $-1 $490 0 $380 14.182782539670701 $374 $491 forward 7 unknown #
vertex $-1 $262 $492 #
straight-curve $-1 -49.702820823687162 -10.308853515910325 9.3793906696298404 0 1 0 I I #
coedge $-1 $485 $263 $266 $387 reversed $372 $-1 #
coedge $-1 $263 $485 $378 $489 forward $372 $-1 #
vertex $-1 $264 $493 #
straight-curve $-1 -61.029694509720144 -25.029462119782046 49.162470331964897 0 0 1 I I #
straight-curve $-1 -61.029694509720144 -25.029462119782046 0.84397895910048248 -0.79863550430605224 0 -0.6018150307709319 I I #
edge $-1 $487 16.205951943859255 $267 25.029462119782046 $382 $494 forward 7 unknown #
point $-1 -61.029694509720144 -25.029462119782046 9.3793906696298404 #
point $-1 -49.702820823687162 -25.029462119782046 9.3793906696298404 #
edge $-1 $495 1 $495 0 $270 $-1 forward 7 unknown #
vertex $-1 $271 $496 #
ellipse-curve $-1 -54.576388065783988 -22.508459212375534 4.0634924715145448 -0.6018150307709319 0 0.79863550430605224 0.79863550430605224 0 0.6018150307709319 1 I I #
point $-1 -54.567622162397598 -22.508459212375534 5.7134998451360905 #
edge $-1 $497 1 $497 0 $274 $-1 forward 7 unknown #
vertex $-1 $275 $498 #
ellipse-curve $-1 -54.576388065783988 -18.726954851265766 4.0634924715145448 -0.6018150307709319 0 0.79863550430605224 0.79863550430605224 0 0.6018150307709319 1 I I #
point $-1 -54.567622162397598 -18.726954851265766 5.7134998451360905 #
plane-surface $-1 0 0 9.3793906696298404 0 0 1 1 0 0 forward_v I I I I #
coedge $-1 $409 $408 $401 $499 forward $279 $-1 #
coedge $-1 $401 $281 $283 $405 reversed $177 $-1 #
coedge $-1 $281 $400 $399 $499 reversed $177 $-1 #
coedge $-1 $289 $284 $281 $403 forward $290 $-1 #
edge $-1 $406 30.549298452490071 $500 36.535459349612104 $402 $501 forward 7 unknown #
coedge $-1 $283 $282 $409 $502 reversed $111 $-1 #
edge $-1 $503 -122.05938901944029 $406 -114.12764797758895 $400 $504 forward 7 unknown #
vertex $-1 $285 $505 #
straight-curve $-1 55.043533612598097 -0.5375872548196341 9.3793906696298563 0 -1 0 I I #
coedge $-1 $399 $286 $289 $413 reversed $279 $-1 #
coedge $-1 $286 $399 $404 $502 forward $279 $-1 #
vertex $-1 $287 $506 #
straight-curve $-1 61.029694509720144 4.5113560981164298 88.186627447948226 0 0 1 I I #
straight-curve $-1 -31.089694892866262 4.5113560981164298 84.253865493310059 0.75470957328743171 0 -0.6560590369687036 I I #
edge $-1 $500 -6.6617051173949662 $291 4.5113560981164298 $408 $507 forward 7 unknown #
point $-1 61.029694509720144 4.5113560981164298 9.3793906696298404 #
point $-1 55.043533612598111 4.5113560981164298 9.3793906696298421 #
edge $-1 $508 1 $508 0 $294 $-1 forward 7 unknown #
vertex $-1 $295 $509 #
ellipse-curve $-1 54.830329992077047 -3.4694019129631393 3.0891376560289681 0.6560590369687036 0 0.75470957328743171 1.1320643599311475 0 -0.9840885554530554 1 I I #
point $-1 59.168678421090277 -3.4694019129631393 5.7934569194757017 #
edge $-1 $510 1 $510 0 $298 $-1 forward 7 unknown #
vertex $-1 $299 $511 #
ellipse-curve $-1 54.830329992077047 1.3190528936845993 3.0891376560289681 0.6560590369687036 0 0.75470957328743171 1.1320643599311475 0 -0.9840885554530554 1 I I #
point $-1 59.168678421090277 1.3190528936845993 5.7934569194757017 #
loop $-1 $-1 $429 $302 #
plane-surface $-1 0 0 9.3793906696298404 0 0 1 1 0 0 forward_v I I I I #
coedge $-1 $308 $431 $512 $513 reversed $303 $-1 #
coedge $-1 $305 $314 $431 $514 forward $199 $-1 #
edge $-1 $433 5.0489433529360639 $315 16.22200456844746 $305 $515 forward 7 unknown #
coedge $-1 $512 $312 $306 $430 forward $424 $-1 #
edge $-1 $435 -16.22200456844746 $432 -5.0489433529360639 $429 $516 forward 7 unknown #
coedge $-1 $426 $308 $427 $514 reversed $303 $-1 #
vertex $-1 $430 $517 #
vertex $-1 $428 $518 #
straight-curve $-1 -31.089694892866262 4.5113560981164298 84.253865493310059 0.75470957328743171 0 -0.6560590369687036 I I #
vertex $-1 $313 $519 #
straight-curve $-1 -31.089694892866262 15.684417313627826 84.253865493310059 0.75470957328743171 0 -0.6560590369687036 I I #
coedge $-1 $312 $512 $314 $439 forward $424 $-1 #
straight-curve $-1 24.49423516010804 15.684417313627826 9.3793906696298421 -1 0 0 I I #
edge $-1 $520 4.5113560981164298 $316 15.684417313627826 $314 $521 forward 7 unknown #
point $-1 61.029694509720144 15.684417313627826 4.1757002802277015 #
point $-1 61.029694509720144 15.684417313627826 9.3793906696298404 #
edge $-1 $522 1 $522 0 $318 $-1 forward 7 unknown #
vertex $-1 $319 $523 #
ellipse-curve $-1 54.830329992077047 7.7036593025482532 3.0891376560289681 0.6560590369687036 0 0.75470957328743171 1.1320643599311475 0 -0.9840885554530554 1 I I #
point $-1 59.168678421090277 7.7036593025482532 5.7934569194757017 #
edge $-1 $524 1 $524 0 $322 $-1 forward 7 unknown #
vertex $-1 $323 $525 #
ellipse-curve $-1 54.830329992077047 12.492114109195995 3.0891376560289681 0.6560590369687036 0 0.75470957328743171 1.1320643599311475 0 -0.9840885554530554 1 I I #
point $-1 59.168678421090277 12.492114109195995 5.7934569194757017 #
plane-surface $-1 61.029694509720144 0 0 -1 0 0 0 0 1 forward_v I I I I #
coedge $-1 $461 $329 $332 $454 reversed $221 $-1 #
edge $-1 $343 -9.3793906696298404 $457 9.3793906696298404 $342 $526 forward 7 unknown #
straight-curve $-1 61.029694509720144 -34.052174316014906 0 0 0 -1 I I #
edge $-1 $455 -34.052174316014906 $457 34.052174316014906 $451 $527 forward 7 unknown #
vertex $-1 $454 $528 #
straight-curve $-1 0 -34.052174316014906 -9.3793906696298404 -1 0 0 I I #
vertex $-1 $335 $529 #
straight-curve $-1 0 34.052174316014906 -9.3793906696298404 1 0 0 I I #
point $-1 61.029694509720144 34.052174316014906 -9.3793906696298404 #
point $-1 61.029694509720144 -34.052174316014906 -9.3793906696298404 #
coedge $-1 $339 $451 $345 $464 reversed $221 $-1 #
straight-curve $-1 -61.029694509720144 0 9.3793906696298404 0 -1 0 I I #
point $-1 -61.029694509720144 34.052174316014906 9.3793906696298404 #
edge $-1 $346 -9.3793906696298404 $455 9.3793906696298404 $461 $530 forward 7 unknown #
point $-1 -61.029694509720144 -34.052174316014906 9.3793906696298404 #
straight-curve $-1 61.029694509720144 34.052174316014906 0 0 0 -1 I I #
plane-surface $-1 -61.029694509720144 0 0 1 0 0 0 0 -1 forward_v I I I I #
coedge $-1 $470 $479 $474 $531 forward $352 $-1 #
coedge $-1 $355 $354 $532 $533 forward $147 $-1 #
coedge $-1 $532 $468 $356 $471 reversed $352 $-1 #
edge $-1 $472 -61.029694509720144 $475 61.029694509720144 $470 $534 forward 7 unknown #
vertex $-1 $533 $535 #
straight-curve $-1 61.029694509720144 0 -9.3793906696298404 0 -1 0 I I #
coedge $-1 $364 $358 $468 $531 reversed $365 $-1 #
vertex $-1 $359 $536 #
straight-curve $-1 -61.029694509720144 0 -9.3793906696298404 0 1 0 I I #
point $-1 -61.029694509720144 -34.052174316014906 -9.3793906696298404 #
point $-1 61.029694509720144 -34.052174316014906 -9.3793906696298404 #
coedge $-1 $468 $532 $367 $480 reversed $352 $-1 #
edge $-1 $481 -61.029694509720144 $483 61.029694509720144 $479 $537 forward 7 unknown #
vertex $-1 $368 $538 #
straight-curve $-1 -61.029694509720144 -38.563530414131336 -5.1627152353722892 0 -1 0 I I #
vertex $-1 $369 $539 #
straight-curve $-1 61.029694509720144 -38.563530414131336 -5.1627152353722892 0 1 0 I I #
coedge $-1 $383 $382 $375 $486 forward $372 $-1 #
edge $-1 $487 39.783079662335055 $490 48.318491372864415 $485 $540 forward 7 unknown #
vertex $-1 $387 $541 #
straight-curve $-1 -67.243434734167877 -16.205951943859255 9.3793906696298421 -1 0 0 I I #
edge $-1 $490 5.8970984279489294 $384 14.720608603871721 $383 $542 forward 7 unknown #
vertex $-1 $489 $543 #
straight-curve $-1 -61.029694509720144 -16.205951943859255 0.84397895910048248 0.79863550430605224 0 0.6018150307709319 I I #
point $-1 -49.702820823687162 -16.205951943859255 9.3793906696298404 #
point $-1 -61.029694509720144 -25.029462119782046 0.84397895910048248 #
straight-curve $-1 -61.029694509720144 0 9.3793906696298404 0 -1 0 I I #
vertex $-1 $390 $544 #
point $-1 -53.777752561477932 -22.508459212375534 4.6653075022854766 #
vertex $-1 $394 $545 #
point $-1 -53.777752561477932 -18.726954851265766 4.6653075022854766 #
edge $-1 $500 78.807236778318384 $503 84.010927167720524 $399 $546 forward 7 unknown #
vertex $-1 $413 $547 #
straight-curve $-1 24.49423516010804 -6.6617051173949662 9.3793906696298421 1 0 0 I I #
edge $-1 $503 -6.1241178625753321 $410 5.0489433529360639 $409 $548 forward 7 unknown #
vertex $-1 $502 $549 #
straight-curve $-1 -31.089694892866262 -6.6617051173949662 84.253865493310059 -0.75470957328743171 0 0.6560590369687036 I I #
point $-1 55.043533612598111 -6.6617051173949662 9.3793906696298421 #
point $-1 61.029694509720144 4.5113560981164298 4.1757002802277015 #
straight-curve $-1 61.029694509720144 0 9.3793906696298404 0 1 0 I I #
vertex $-1 $416 $550 #
point $-1 55.962394352008197 -3.4694019129631393 2.1050491005759131 #
vertex $-1 $420 $551 #
point $-1 55.962394352008197 1.3190528936845993 2.1050491005759131 #
coedge $-1 $437 $429 $426 $513 forward $424 $-1 #
edge $-1 $432 30.549298452490071 $520 36.535459349612104 $512 $552 forward 7 unknown #
edge $-1 $520 78.807236778318384 $433 84.010927167720524 $427 $553 forward 7 unknown #
straight-curve $-1 61.02969450972013 -0.5375872548196341 4.1757002802277157 0 1 0 I I #
straight-curve $-1 55.043533612598097 -0.5375872548196341 9.3793906696298563 0 -1 0 I I #
point $-1 55.043533612598111 4.5113560981164298 9.3793906696298421 #
point $-1 61.029694509720144 4.5113560981164298 4.1757002802277015 #
point $-1 55.043533612598111 15.684417313627826 9.3793906696298421 #
vertex $-1 $439 $554 #
straight-curve $-1 61.029694509720144 0 9.3793906696298404 0 1 0 I I #
vertex $-1 $442 $555 #
point $-1 55.962394352008197 7.7036593025482532 2.1050491005759131 #
vertex $-1 $446 $556 #
point $-1 55.962394352008197 12.492114109195995 2.1050491005759131 #
straight-curve $-1 -61.029694509720144 34.052174316014906 0 0 0 -1 I I #
straight-curve $-1 -61.029694509720144 0 -9.3793906696298404 0 1 0 I I #
point $-1 -61.029694509720144 -34.052174316014906 -9.3793906696298404 #
point $-1 -61.029694509720144 34.052174316014906 -9.3793906696298404 #
straight-curve $-1 -61.029694509720144 -34.052174316014906 0 0 0 -1 I I #
edge $-1 $481 -2.1083377171287756 $475 2.1083377171287756 $474 $557 forward 7 unknown #
coedge $-1 $479 $470 $469 $533 reversed $352 $-1 #
edge $-1 $483 -2.1083377171287756 $472 2.1083377171287756 $469 $558 forward 7 unknown #
straight-curve $-1 0 -43.074886512247765 -9.3793906696298404 -1 0 0 I I #
point $-1 61.029694509720144 -43.074886512247765 -9.3793906696298404 #
point $-1 -61.029694509720144 -43.074886512247765 -9.3793906696298404 #
straight-curve $-1 0 -43.074886512247765 -5.1627152353722892 1 0 0 I I #
point $-1 -61.029694509720144 -43.074886512247765 -5.1627152353722892 #
point $-1 61.029694509720144 -43.074886512247765 -5.1627152353722892 #
straight-curve $-1 -61.029694509720144 -16.205951943859255 49.162470331964897 0 0 -1 I I #
point $-1 -61.029694509720144 -16.205951943859255 9.3793906696298404 #
straight-curve $-1 -61.029694509720144 -10.308853515910325 0.84397895910048226 0 -1 0 I I #
point $-1 -61.029694509720144 -16.205951943859255 0.84397895910048248 #
point $-1 -53.974573035013051 -22.508459212375534 3.2648569672084928 #
point $-1 -53.974573035013051 -18.726954851265766 3.2648569672084928 #
straight-curve $-1 61.029694509720144 -6.6617051173949662 88.186627447948226 0 0 -1 I I #
point $-1 61.029694509720144 -6.6617051173949662 9.3793906696298404 #
straight-curve $-1 61.02969450972013 -0.5375872548196341 4.1757002802277157 0 1 0 I I #
point $-1 61.029694509720144 -6.6617051173949662 4.1757002802277015 #
point $-1 53.846241436623991 -3.4694019129631393 1.9570732960978201 #
point $-1 53.846241436623991 1.3190528936845993 1.9570732960978201 #
straight-curve $-1 24.49423516010804 4.5113560981164298 9.3793906696298421 1 0 0 I I #
straight-curve $-1 61.029694509720144 4.5113560981164298 88.186627447948226 0 0 -1 I I #
point $-1 61.029694509720144 4.5113560981164298 9.3793906696298404 #
point $-1 53.846241436623991 7.7036593025482532 1.9570732960978201 #
point $-1 53.846241436623991 12.492114109195995 1.9570732960978201 #
straight-curve $-1 -61.029694509720144 -43.074886512247765 -7.2710529525010648 0 0 -1 I I #
straight-curve $-1 61.029694509720144 -43.074886512247765 -7.2710529525010648 0 0 -1 I I #
End-of-ACIS-data 