500 0 3 0           
7 Unknown 11 ACIS 5.0 NT 24 Fri Mar 26 20:36:48 1999 
-1 9.9999999999999995e-007 1e-010 
body $-1 $3 $-1 $4 #
body $-1 $5 $-1 $6 #
body $-1 $7 $-1 $8 #
lump $-1 $-1 $9 $0 #
transform $-1 1 0 0 0 1 0 0 0 1 65.591601306192203 33.779264312318254 13.951278413997786 1 rotate no_reflect no_shear #
lump $-1 $-1 $10 $1 #
transform $-1 1 0 0 0 1 0 0 0 1 65.591601306192203 33.779264312318254 13.951278413997786 1 rotate no_reflect no_shear #
lump $-1 $-1 $11 $2 #
transform $-1 1 0 0 0 1 0 0 0 1 65.591601306192203 33.779264312318254 13.951278413997786 1 rotate no_reflect no_shear #
shell $-1 $-1 $-1 $12 $-1 $3 #
shell $-1 $-1 $-1 $13 $-1 $5 #
shell $-1 $-1 $-1 $14 $-1 $7 #
face $-1 $15 $16 $9 $-1 $17 forward single #
face $-1 $18 $19 $10 $-1 $20 forward single #
face $-1 $21 $22 $11 $-1 $23 reversed single #
face $-1 $24 $25 $9 $-1 $26 reversed single #
loop $-1 $-1 $27 $12 #
plane-surface $-1 0 0 13.951278413997786 0 0 1 1 0 0 forward_v I I I I #
face $-1 $28 $29 $10 $-1 $30 reversed single #
loop $-1 $-1 $31 $13 #
plane-surface $-1 -65.591601306192203 0 0 1 0 0 0 0 -1 forward_v I I I I #
face $-1 $32 $33 $11 $-1 $34 reversed single #
loop $-1 $-1 $35 $14 #
plane-surface $-1 48.387908492781868 -31.767958910545612 0 1 0 0 0 0 -1 forward_v I I I I #
face $-1 $36 $37 $9 $-1 $38 reversed single #
loop $-1 $-1 $39 $15 #
plane-surface $-1 0 0 -13.951278413997786 0 0 1 1 0 0 forward_v I I I I #
coedge $-1 $40 $41 $42 $43 forward $16 $-1 #
face $-1 $44 $45 $10 $-1 $46 forward single #
loop $-1 $-1 $47 $18 #
plane-surface $-1 0 33.779264312318254 0 0 -1 0 0 0 -1 forward_v I I I I #
coedge $-1 $48 $49 $50 $51 forward $19 $-1 #
face $-1 $52 $53 $11 $-1 $54 forward single #
loop $-1 $-1 $55 $21 #
plane-surface $-1 56.989754899487039 -29.75665350877297 0 0 -1 0 0 0 -1 forward_v I I I I #
coedge $-1 $56 $57 $58 $59 forward $22 $-1 #
face $-1 $60 $61 $9 $-1 $62 reversed single #
loop $-1 $-1 $63 $24 #
plane-surface $-1 0 -33.779264312318254 0 0 1 0 0 0 1 forward_v I I I I #
coedge $-1 $64 $65 $66 $67 forward $25 $-1 #
coedge $-1 $68 $27 $69 $70 forward $16 $-1 #
coedge $-1 $27 $68 $71 $72 forward $16 $-1 #
coedge $-1 $73 $74 $27 $43 reversed $75 $-1 #
edge $-1 $76 -33.779264312318254 $77 33.779264312318254 $42 $78 forward 7 unknown #
face $-1 $79 $80 $10 $-1 $81 reversed single #
loop $-1 $-1 $50 $28 #
plane-surface $-1 -72.77940706937504 0 -7.0427834864839678 0 0 1 1 0 0 forward_v I I I I #
coedge $-1 $82 $83 $49 $84 forward $29 $-1 #
coedge $-1 $85 $31 $86 $87 reversed $19 $-1 #
coedge $-1 $31 $85 $47 $84 reversed $19 $-1 #
coedge $-1 $88 $89 $31 $51 reversed $45 $-1 #
edge $-1 $90 -33.779264312318254 $91 33.779264312318254 $50 $92 forward 7 unknown #
face $-1 $93 $94 $11 $-1 $95 reversed single #
loop $-1 $-1 $96 $32 #
plane-surface $-1 0 0 13.951278413997786 0 0 1 1 0 0 forward_v I I I I #
coedge $-1 $97 $98 $99 $100 reversed $33 $-1 #
coedge $-1 $101 $35 $102 $103 reversed $22 $-1 #
coedge $-1 $35 $101 $104 $105 reversed $22 $-1 #
coedge $-1 $98 $97 $35 $59 reversed $33 $-1 #
edge $-1 $106 -13.951278413997786 $107 13.951278413997786 $58 $108 forward 7 unknown #
face $-1 $109 $110 $9 $-1 $111 reversed single #
loop $-1 $-1 $112 $36 #
plane-surface $-1 -65.591601306192203 0 0 1 0 0 0 0 -1 forward_v I I I I #
coedge $-1 $113 $71 $112 $114 forward $37 $-1 #
coedge $-1 $115 $39 $113 $116 forward $25 $-1 #
coedge $-1 $39 $115 $117 $118 forward $25 $-1 #
coedge $-1 $74 $73 $39 $67 reversed $75 $-1 #
edge $-1 $119 -33.779264312318254 $120 33.779264312318254 $66 $121 forward 7 unknown #
coedge $-1 $41 $40 $122 $123 forward $16 $-1 #
coedge $-1 $124 $125 $40 $70 reversed $110 $-1 #
edge $-1 $77 -65.591601306192203 $126 65.591601306192203 $69 $127 forward 7 unknown #
coedge $-1 $63 $128 $41 $72 reversed $37 $-1 #
edge $-1 $129 -65.591601306192203 $76 65.591601306192203 $71 $130 forward 7 unknown #
coedge $-1 $66 $42 $128 $131 forward $75 $-1 #
coedge $-1 $42 $66 $124 $132 reversed $75 $-1 #
loop $-1 $-1 $73 $109 #
vertex $-1 $43 $133 #
vertex $-1 $43 $134 #
straight-curve $-1 65.591601306192203 0 13.951278413997786 0 1 0 I I #
face $-1 $135 $136 $10 $-1 $137 reversed single #
loop $-1 $-1 $138 $44 #
plane-surface $-1 -79.967212832557877 0 -10.497030950240877 1 0 0 0 0 -1 forward_v I I I I #
coedge $-1 $139 $47 $140 $141 reversed $29 $-1 #
coedge $-1 $47 $139 $88 $142 reversed $29 $-1 #
edge $-1 $90 7.0427834864839678 $143 13.951278413997786 $47 $144 forward 7 unknown #
coedge $-1 $49 $48 $145 $146 reversed $19 $-1 #
coedge $-1 $147 $148 $48 $87 forward $149 $-1 #
edge $-1 $150 -13.951278413997786 $91 -7.0427834864839678 $86 $151 forward 7 unknown #
coedge $-1 $152 $50 $83 $142 forward $45 $-1 #
coedge $-1 $50 $152 $147 $153 forward $45 $-1 #
vertex $-1 $84 $154 #
vertex $-1 $153 $155 #
straight-curve $-1 -65.591601306192203 0 -7.0427834864839678 0 -1 0 I I #
face $-1 $156 $157 $11 $-1 $158 reversed single #
loop $-1 $-1 $159 $52 #
plane-surface $-1 0 -33.779264312318254 0 0 1 0 0 0 1 forward_v I I I I #
coedge $-1 $104 $160 $98 $161 forward $53 $-1 #
coedge $-1 $58 $55 $162 $163 reversed $33 $-1 #
coedge $-1 $55 $58 $96 $161 reversed $33 $-1 #
coedge $-1 $164 $165 $55 $100 forward $166 $-1 #
edge $-1 $167 -13.951278413997786 $168 13.951278413997786 $99 $169 forward 7 unknown #
coedge $-1 $57 $56 $159 $170 reversed $22 $-1 #
coedge $-1 $162 $171 $56 $103 forward $157 $-1 #
edge $-1 $172 -17.895284857045446 $107 -13.872674053500164 $102 $173 forward 7 unknown #
coedge $-1 $174 $96 $57 $105 forward $53 $-1 #
edge $-1 $106 13.872674053500164 $175 17.895284857045446 $104 $176 forward 7 unknown #
vertex $-1 $105 $177 #
vertex $-1 $103 $178 #
straight-curve $-1 48.387908492781868 -29.75665350877297 0 0 0 -1 I I #
face $-1 $-1 $75 $9 $-1 $179 reversed single #
loop $-1 $-1 $124 $60 #
plane-surface $-1 0 33.779264312318254 0 0 -1 0 0 0 -1 forward_v I I I I #
coedge $-1 $122 $180 $63 $114 reversed $61 $-1 #
coedge $-1 $128 $63 $64 $116 reversed $37 $-1 #
edge $-1 $129 -13.951278413997786 $181 13.951278413997786 $112 $182 forward 7 unknown #
coedge $-1 $65 $64 $180 $183 forward $25 $-1 #
edge $-1 $120 -65.591601306192203 $181 65.591601306192203 $113 $184 forward 7 unknown #
coedge $-1 $125 $124 $65 $118 reversed $110 $-1 #
edge $-1 $185 -65.591601306192203 $119 65.591601306192203 $117 $186 forward 7 unknown #
vertex $-1 $67 $187 #
vertex $-1 $131 $188 #
straight-curve $-1 65.591601306192203 0 -13.951278413997786 0 -1 0 I I #
coedge $-1 $189 $112 $68 $123 reversed $61 $-1 #
edge $-1 $126 -33.779264312318254 $129 33.779264312318254 $122 $190 forward 7 unknown #
coedge $-1 $117 $69 $74 $132 forward $110 $-1 #
coedge $-1 $69 $117 $189 $191 reversed $110 $-1 #
vertex $-1 $70 $192 #
straight-curve $-1 0 33.779264312318254 13.951278413997786 -1 0 0 I I #
coedge $-1 $71 $113 $73 $131 reversed $37 $-1 #
vertex $-1 $123 $193 #
straight-curve $-1 0 -33.779264312318254 13.951278413997786 1 0 0 I I #
edge $-1 $76 -13.951278413997786 $120 13.951278413997786 $73 $194 forward 7 unknown #
edge $-1 $77 -13.951278413997786 $119 13.951278413997786 $74 $195 forward 7 unknown #
point $-1 65.591601306192203 -33.779264312318254 13.951278413997786 #
point $-1 65.591601306192203 33.779264312318254 13.951278413997786 #
face $-1 $-1 $149 $10 $-1 $196 reversed single #
loop $-1 $-1 $145 $79 #
plane-surface $-1 0 0 -13.951278413997786 0 0 1 1 0 0 forward_v I I I I #
coedge $-1 $197 $198 $139 $199 forward $80 $-1 #
coedge $-1 $83 $82 $138 $199 reversed $29 $-1 #
coedge $-1 $145 $200 $82 $141 forward $136 $-1 #
edge $-1 $201 -79.967212832557877 $143 -65.591601306192203 $82 $202 forward 7 unknown #
edge $-1 $90 -7.1878057631828369 $203 7.1878057631828369 $83 $204 forward 7 unknown #
vertex $-1 $84 $205 #
straight-curve $-1 -65.591601306192203 33.779264312318254 0 0 0 -1 I I #
coedge $-1 $206 $140 $85 $146 forward $136 $-1 #
edge $-1 $143 -33.779264312318254 $150 33.779264312318254 $145 $207 forward 7 unknown #
coedge $-1 $208 $86 $89 $153 reversed $149 $-1 #
coedge $-1 $86 $208 $206 $209 reversed $149 $-1 #
loop $-1 $-1 $86 $135 #
vertex $-1 $209 $210 #
straight-curve $-1 -65.591601306192203 -33.779264312318254 0 0 0 1 I I #
coedge $-1 $89 $88 $198 $211 forward $45 $-1 #
edge $-1 $212 -7.1878057631828369 $91 7.1878057631828369 $147 $213 forward 7 unknown #
point $-1 -65.591601306192203 33.779264312318254 -7.0427834864839678 #
point $-1 -65.591601306192203 -33.779264312318254 -7.0427834864839678 #
face $-1 $-1 $166 $11 $-1 $214 reversed single #
loop $-1 $-1 $162 $93 #
plane-surface $-1 0 0 -13.951278413997786 0 0 1 1 0 0 forward_v I I I I #
coedge $-1 $215 $216 $101 $170 forward $94 $-1 #
coedge $-1 $96 $174 $164 $217 forward $53 $-1 #
edge $-1 $168 -37.096723856448698 $106 -19.893031043038349 $96 $218 forward 7 unknown #
coedge $-1 $219 $102 $97 $163 forward $157 $-1 #
edge $-1 $107 19.893031043038349 $167 37.096723856448698 $162 $220 forward 7 unknown #
coedge $-1 $221 $99 $160 $217 reversed $166 $-1 #
coedge $-1 $99 $221 $219 $222 reversed $166 $-1 #
loop $-1 $-1 $99 $156 #
vertex $-1 $222 $223 #
vertex $-1 $100 $224 #
straight-curve $-1 65.591601306192203 -29.75665350877297 0 0 0 1 I I #
edge $-1 $175 -13.951278413997786 $172 13.951278413997786 $159 $225 forward 7 unknown #
coedge $-1 $102 $219 $215 $226 forward $157 $-1 #
vertex $-1 $170 $227 #
straight-curve $-1 48.387908492781868 -15.883979455272806 -13.951278413997786 0 1 0 I I #
coedge $-1 $160 $104 $216 $228 forward $53 $-1 #
vertex $-1 $228 $229 #
straight-curve $-1 48.387908492781868 -15.883979455272806 13.951278413997786 0 -1 0 I I #
point $-1 48.387908492781868 -29.75665350877297 13.951278413997786 #
point $-1 48.387908492781868 -29.75665350877297 -13.951278413997786 #
plane-surface $-1 65.591601306192203 0 0 -1 0 0 0 0 1 forward_v I I I I #
coedge $-1 $112 $189 $115 $183 reversed $61 $-1 #
vertex $-1 $183 $230 #
straight-curve $-1 -65.591601306192203 -33.779264312318254 0 0 0 -1 I I #
edge $-1 $181 -33.779264312318254 $185 33.779264312318254 $180 $231 forward 7 unknown #
straight-curve $-1 0 -33.779264312318254 -13.951278413997786 -1 0 0 I I #
vertex $-1 $118 $232 #
straight-curve $-1 0 33.779264312318254 -13.951278413997786 1 0 0 I I #
point $-1 65.591601306192203 33.779264312318254 -13.951278413997786 #
point $-1 65.591601306192203 -33.779264312318254 -13.951278413997786 #
coedge $-1 $180 $122 $125 $191 forward $61 $-1 #
straight-curve $-1 -65.591601306192203 0 13.951278413997786 0 -1 0 I I #
edge $-1 $126 -13.951278413997786 $185 13.951278413997786 $125 $233 forward 7 unknown #
point $-1 -65.591601306192203 33.779264312318254 13.951278413997786 #
point $-1 -65.591601306192203 -33.779264312318254 13.951278413997786 #
straight-curve $-1 65.591601306192203 -33.779264312318254 0 0 0 -1 I I #
straight-curve $-1 65.591601306192203 33.779264312318254 0 0 0 -1 I I #
plane-surface $-1 0 -33.779264312318254 0 0 1 0 0 0 1 forward_v I I I I #
coedge $-1 $234 $138 $200 $235 reversed $80 $-1 #
coedge $-1 $138 $234 $152 $211 reversed $80 $-1 #
edge $-1 $203 -3.4542474637569089 $201 3.4542474637569089 $139 $236 forward 7 unknown #
coedge $-1 $140 $206 $197 $235 forward $136 $-1 #
vertex $-1 $141 $237 #
straight-curve $-1 0 33.779264312318254 -13.951278413997786 1 0 0 I I #
vertex $-1 $142 $238 #
straight-curve $-1 -72.77940706937504 33.779264312318254 -7.0427834864839678 -1 0 0 I I #
point $-1 -65.591601306192203 33.779264312318254 -13.951278413997786 #
coedge $-1 $200 $145 $148 $209 forward $136 $-1 #
straight-curve $-1 -65.591601306192203 0 -13.951278413997786 0 -1 0 I I #
coedge $-1 $148 $147 $234 $239 forward $149 $-1 #
edge $-1 $150 -7.1878057631828369 $240 7.1878057631828369 $148 $241 forward 7 unknown #
point $-1 -65.591601306192203 -33.779264312318254 -13.951278413997786 #
edge $-1 $203 -33.779264312318254 $212 33.779264312318254 $198 $242 forward 7 unknown #
vertex $-1 $211 $243 #
straight-curve $-1 -72.77940706937504 -33.779264312318254 -7.0427834864839678 1 0 0 I I #
plane-surface $-1 65.591601306192203 0 0 -1 0 0 0 0 1 forward_v I I I I #
coedge $-1 $244 $159 $171 $226 reversed $94 $-1 #
coedge $-1 $159 $244 $174 $228 reversed $94 $-1 #
edge $-1 $245 -33.779264312318254 $168 -29.75665350877297 $164 $246 forward 7 unknown #
straight-curve $-1 28.49487744974352 -29.75665350877297 13.951278413997786 -1 0 0 I I #
coedge $-1 $171 $162 $165 $222 forward $157 $-1 #
straight-curve $-1 28.49487744974352 -29.75665350877297 -13.951278413997786 1 0 0 I I #
coedge $-1 $165 $164 $244 $247 forward $166 $-1 #
edge $-1 $167 29.75665350877297 $248 33.779264312318254 $165 $249 forward 7 unknown #
point $-1 65.591601306192217 -29.75665350877297 -13.951278413997786 #
point $-1 65.591601306192217 -29.75665350877297 13.951278413997786 #
straight-curve $-1 48.387908492781868 -33.779264312318254 0 0 0 -1 I I #
edge $-1 $248 -138.37100837556724 $172 -121.16731556215692 $215 $250 forward 7 unknown #
point $-1 48.387908492781868 -33.779264312318254 -13.951278413997786 #
edge $-1 $175 48.387908492781868 $245 65.591601306192203 $216 $251 forward 7 unknown #
point $-1 48.387908492781868 -33.779264312318254 13.951278413997786 #
point $-1 -65.591601306192203 -33.779264312318254 -13.951278413997786 #
straight-curve $-1 -65.591601306192203 0 -13.951278413997786 0 1 0 I I #
point $-1 -65.591601306192203 33.779264312318254 -13.951278413997786 #
straight-curve $-1 -65.591601306192203 33.779264312318254 0 0 0 -1 I I #
coedge $-1 $198 $197 $208 $239 reversed $80 $-1 #
edge $-1 $240 -33.779264312318254 $201 33.779264312318254 $197 $252 forward 7 unknown #
straight-curve $-1 -79.967212832557877 33.779264312318254 -10.497030950240877 0 0 -1 I I #
point $-1 -79.967212832557877 33.779264312318254 -13.951278413997786 #
point $-1 -79.967212832557877 33.779264312318254 -7.0427834864839678 #
edge $-1 $212 -3.4542474637569089 $240 3.4542474637569089 $234 $253 forward 7 unknown #
vertex $-1 $235 $254 #
straight-curve $-1 -72.77940706937504 -33.779264312318254 -13.951278413997786 -1 0 0 I I #
straight-curve $-1 -79.967212832557877 0 -7.0427834864839678 0 -1 0 I I #
point $-1 -79.967212832557877 -33.779264312318254 -7.0427834864839678 #
coedge $-1 $216 $215 $221 $247 reversed $94 $-1 #
vertex $-1 $217 $255 #
straight-curve $-1 65.591601306192203 0 13.951278413997786 0 1 0 I I #
edge $-1 $245 -13.951278413997786 $248 13.951278413997786 $221 $256 forward 7 unknown #
vertex $-1 $247 $257 #
straight-curve $-1 65.591601306192203 0 -13.951278413997786 0 -1 0 I I #
straight-curve $-1 -72.77940706937504 -33.779264312318254 -13.951278413997786 -1 0 0 I I #
straight-curve $-1 0 -33.779264312318254 13.951278413997786 1 0 0 I I #
straight-curve $-1 -79.967212832557877 0 -13.951278413997786 0 1 0 I I #
straight-curve $-1 -79.967212832557877 -33.779264312318254 -10.497030950240877 0 0 -1 I I #
point $-1 -79.967212832557877 -33.779264312318254 -13.951278413997786 #
point $-1 65.591601306192203 -33.779264312318254 13.951278413997786 #
straight-curve $-1 65.591601306192203 -33.779264312318254 0 0 0 -1 I I #
point $-1 65.591601306192203 -33.779264312318254 -13.951278413997786 #
End-of-ACIS-data 