500 0 14 0           
7 Unknown 11 ACIS 5.0 NT 24 Thu Mar 25 17:03:11 1999 
-1 9.9999999999999995e-007 1e-010 
body $-1 $14 $-1 $15 #
body $-1 $16 $-1 $17 #
body $-1 $18 $-1 $19 #
body $-1 $20 $-1 $21 #
body $-1 $22 $-1 $23 #
body $-1 $24 $-1 $25 #
body $-1 $26 $-1 $27 #
body $-1 $28 $-1 $29 #
body $-1 $30 $-1 $31 #
body $-1 $32 $-1 $33 #
body $-1 $34 $-1 $35 #
body $-1 $36 $-1 $37 #
body $-1 $38 $-1 $39 #
body $-1 $40 $-1 $41 #
lump $-1 $-1 $42 $0 #
transform $-1 1 0 0 0 1 0 0 0 1 41.038850062562943 22.468980193712742 6.1374663632864319 1 rotate no_reflect no_shear #
lump $-1 $-1 $43 $1 #
transform $-1 1 0 0 0 1 0 0 0 1 41.038850062562943 22.468980193712742 6.1374663632864319 1 rotate no_reflect no_shear #
lump $-1 $-1 $44 $2 #
transform $-1 1 0 0 0 1 0 0 0 1 41.038850062562943 22.468980193712742 6.1374663632864319 1 rotate no_reflect no_shear #
lump $-1 $-1 $45 $3 #
transform $-1 1 0 0 0 1 0 0 0 1 41.038850062562943 22.468980193712742 6.1374663632864319 1 rotate no_reflect no_shear #
lump $-1 $-1 $46 $4 #
transform $-1 1 0 0 0 1 0 0 0 1 41.038850062562943 22.468980193712742 6.1374663632864319 1 rotate no_reflect no_shear #
lump $-1 $-1 $47 $5 #
transform $-1 1 0 0 0 1 0 0 0 1 41.038850062562943 22.468980193712742 6.1374663632864319 1 rotate no_reflect no_shear #
lump $-1 $-1 $48 $6 #
transform $-1 1 0 0 0 1 0 0 0 1 41.038850062562943 22.468980193712742 6.1374663632864319 1 rotate no_reflect no_shear #
lump $-1 $-1 $49 $7 #
transform $-1 1 0 0 0 1 0 0 0 1 41.038850062562943 22.468980193712742 6.1374663632864319 1 rotate no_reflect no_shear #
lump $-1 $-1 $50 $8 #
transform $-1 1 0 0 0 1 0 0 0 1 41.038850062562943 22.468980193712742 6.1374663632864319 1 rotate no_reflect no_shear #
lump $-1 $-1 $51 $9 #
transform $-1 1 0 0 0 1 0 0 0 1 41.038850062562943 22.468980193712742 6.1374663632864319 1 rotate no_reflect no_shear #
lump $-1 $-1 $52 $10 #
transform $-1 1 0 0 0 1 0 0 0 1 41.038850062562943 22.468980193712742 6.1374663632864319 1 rotate no_reflect no_shear #
lump $-1 $-1 $53 $11 #
transform $-1 1 0 0 0 1 0 0 0 1 41.038850062562943 22.468980193712742 6.1374663632864319 1 rotate no_reflect no_shear #
lump $-1 $-1 $54 $12 #
transform $-1 1 0 0 0 1 0 0 0 1 41.038850062562943 22.468980193712742 6.1374663632864319 1 rotate no_reflect no_shear #
lump $-1 $-1 $55 $13 #
transform $-1 1 0 0 0 1 0 0 0 1 41.038850062562943 22.468980193712742 6.1374663632864319 1 rotate no_reflect no_shear #
shell $-1 $-1 $-1 $56 $-1 $14 #
shell $-1 $-1 $-1 $57 $-1 $16 #
shell $-1 $-1 $-1 $58 $-1 $18 #
shell $-1 $-1 $-1 $59 $-1 $20 #
shell $-1 $-1 $-1 $60 $-1 $22 #
shell $-1 $-1 $-1 $61 $-1 $24 #
shell $-1 $-1 $-1 $62 $-1 $26 #
shell $-1 $-1 $-1 $63 $-1 $28 #
shell $-1 $-1 $-1 $64 $-1 $30 #
shell $-1 $-1 $-1 $65 $-1 $32 #
shell $-1 $-1 $-1 $66 $-1 $34 #
shell $-1 $-1 $-1 $67 $-1 $36 #
shell $-1 $-1 $-1 $68 $-1 $38 #
shell $-1 $-1 $-1 $69 $-1 $40 #
face $-1 $70 $71 $42 $-1 $72 forward single #
face $-1 $73 $74 $43 $-1 $75 forward single #
face $-1 $76 $77 $44 $-1 $78 reversed single #
face $-1 $79 $80 $45 $-1 $81 forward single #
face $-1 $82 $83 $46 $-1 $84 forward single #
face $-1 $85 $86 $47 $-1 $87 forward single #
face $-1 $88 $89 $48 $-1 $90 reversed single #
face $-1 $91 $92 $49 $-1 $93 forward single #
face $-1 $94 $95 $50 $-1 $96 forward single #
face $-1 $97 $98 $51 $-1 $99 forward single #
face $-1 $100 $101 $52 $-1 $102 reversed single #
face $-1 $103 $104 $53 $-1 $105 forward single #
face $-1 $106 $107 $54 $-1 $108 forward single #
face $-1 $109 $110 $55 $-1 $111 forward single #
face $-1 $112 $113 $42 $-1 $114 reversed single #
loop $-1 $-1 $115 $56 #
plane-surface $-1 0 0 6.1374663632864319 0 0 1 1 0 0 forward_v I I I I #
face $-1 $116 $117 $43 $-1 $118 reversed single #
loop $-1 $-1 $119 $57 #
plane-surface $-1 -41.038850062562943 0 0 1 0 0 0 0 -1 forward_v I I I I #
face $-1 $120 $121 $44 $-1 $122 reversed single #
loop $-1 $-1 $123 $58 #
plane-surface $-1 8.6122932763140554 47.159279184892796 93.187877857772008 1 0 0 0 -0.69465837861970381 -0.71933979245794832 forward_v I I I I #
face $-1 $124 $125 $45 $-1 $126 forward single #
loop $-1 $127 $128 $59 #
cone-surface $-1 10.981468256180868 20.35812804825801 4.067616570730431 0 -0.69465837861970381 -0.71933979245794832 0.5 0 0 1 I I 0 1 0.5 forward I I I I #
face $-1 $129 $130 $46 $-1 $131 forward single #
loop $-1 $132 $133 $60 #
cone-surface $-1 14.53523072598108 20.35812804825801 4.067616570730431 0 -0.69465837861970381 -0.71933979245794832 0.5 0 0 1 I I 0 1 0.5 forward I I I I #
face $-1 $134 $135 $47 $-1 $136 forward single #
loop $-1 $137 $138 $61 #
cone-surface $-1 18.088993195781292 20.35812804825801 4.067616570730431 0 -0.69465837861970381 -0.71933979245794832 0.5 0 0 1 I I 0 1 0.5 forward I I I I #
face $-1 $139 $140 $48 $-1 $141 reversed single #
loop $-1 $-1 $142 $62 #
plane-surface $-1 -18.237791369688679 -83.464599008486928 55.663056427045674 -1 0 0 0 -0.74314483375859142 0.66913059716165679 forward_v I I I I #
face $-1 $143 $144 $49 $-1 $145 forward single #
loop $-1 $146 $147 $63 #
cone-surface $-1 -25.983064582447625 -19.636562551135956 3.076572843720339 0 0.74314483375859142 -0.66913059716165679 0.5 0 0 1 I I 0 1 0.5 forward I I I I #
face $-1 $148 $149 $50 $-1 $150 forward single #
loop $-1 $151 $152 $64 #
cone-surface $-1 -23.07858712766302 -19.636562551135956 3.076572843720339 0 0.74314483375859142 -0.66913059716165679 0.5 0 0 1 I I 0 1 0.5 forward I I I I #
face $-1 $153 $154 $51 $-1 $155 forward single #
loop $-1 $156 $157 $65 #
cone-surface $-1 -20.174109672878416 -19.636562551135956 3.076572843720339 0 0.74314483375859142 -0.66913059716165679 0.5 0 0 1 I I 0 1 0.5 forward I I I I #
face $-1 $158 $159 $52 $-1 $160 reversed single #
loop $-1 $-1 $161 $66 #
plane-surface $-1 33.084688212879705 -83.464599008486928 55.663056427045674 -1 0 0 0 -0.74314483375859142 0.66913059716165679 forward_v I I I I #
face $-1 $162 $163 $53 $-1 $164 forward single #
loop $-1 $165 $166 $67 #
cone-surface $-1 25.339415000120752 -19.636562551135956 3.076572843720339 0 0.74314483375859142 -0.66913059716165679 0.5 0 0 1 I I 0 1 0.5 forward I I I I #
face $-1 $167 $168 $54 $-1 $169 forward single #
loop $-1 $170 $171 $68 #
cone-surface $-1 28.243892454905364 -19.636562551135956 3.076572843720339 0 0.74314483375859142 -0.66913059716165679 0.5 0 0 1 I I 0 1 0.5 forward I I I I #
face $-1 $172 $173 $55 $-1 $174 forward single #
loop $-1 $175 $176 $69 #
cone-surface $-1 31.148369909689961 -19.636562551135956 3.076572843720339 0 0.74314483375859142 -0.66913059716165679 0.5 0 0 1 I I 0 1 0.5 forward I I I I #
face $-1 $177 $178 $42 $-1 $179 reversed single #
loop $-1 $-1 $180 $70 #
plane-surface $-1 0 0 -6.1374663632864319 0 0 1 1 0 0 forward_v I I I I #
coedge $-1 $181 $182 $183 $184 forward $71 $-1 #
face $-1 $185 $186 $43 $-1 $187 forward single #
loop $-1 $-1 $188 $73 #
plane-surface $-1 0 22.468980193712742 0 0 -1 0 0 0 -1 forward_v I I I I #
coedge $-1 $189 $190 $191 $192 forward $74 $-1 #
face $-1 $193 $194 $44 $-1 $195 reversed single #
loop $-1 $-1 $196 $76 #
plane-surface $-1 14.53523072598108 -9.8566829048614153 34.146122084338231 0 0.69465837861970381 0.71933979245794832 1 0 0 forward_v I I I I #
coedge $-1 $197 $198 $199 $200 reversed $77 $-1 #
face $-1 $-1 $201 $45 $-1 $202 forward single #
loop $-1 $203 $204 $79 #
cone-surface $-1 10.981468256180868 19.734537162839633 3.4218693201367714 0 -0.69465837861970381 -0.71933979245794832 0.25 0 0 1 I I -0.70710678118654746 0.70710678118654746 0.25 forward I I I I #
loop $-1 $-1 $205 $59 #
coedge $-1 $128 $128 $206 $207 reversed $80 $-1 #
face $-1 $-1 $208 $46 $-1 $209 forward single #
loop $-1 $210 $211 $82 #
cone-surface $-1 14.53523072598108 19.734537162839633 3.4218693201367714 0 -0.69465837861970381 -0.71933979245794832 0.25 0 0 1 I I -0.70710678118654746 0.70710678118654746 0.25 forward I I I I #
loop $-1 $-1 $212 $60 #
coedge $-1 $133 $133 $213 $214 reversed $83 $-1 #
face $-1 $-1 $215 $47 $-1 $216 forward single #
loop $-1 $217 $218 $85 #
cone-surface $-1 18.088993195781292 19.734537162839633 3.4218693201367714 0 -0.69465837861970381 -0.71933979245794832 0.25 0 0 1 I I -0.70710678118654746 0.70710678118654746 0.25 forward I I I I #
loop $-1 $-1 $219 $61 #
coedge $-1 $138 $138 $220 $221 reversed $86 $-1 #
face $-1 $222 $223 $48 $-1 $224 reversed single #
loop $-1 $-1 $225 $88 #
plane-surface $-1 -23.07858712766302 -22.468980193712731 0.74235592866480005 0 -0.74314483375859142 0.66913059716165679 1 0 0 forward_v I I I I #
coedge $-1 $226 $227 $228 $229 reversed $89 $-1 #
face $-1 $-1 $230 $49 $-1 $231 forward single #
loop $-1 $232 $233 $91 #
cone-surface $-1 -25.983064582447625 -19.047248267051611 2.545951892174644 0 0.74314483375859142 -0.66913059716165679 0.25 0 0 1 I I -0.70710678118654746 0.70710678118654746 0.25 forward I I I I #
loop $-1 $-1 $234 $63 #
coedge $-1 $147 $147 $235 $236 reversed $92 $-1 #
face $-1 $-1 $237 $50 $-1 $238 forward single #
loop $-1 $239 $240 $94 #
cone-surface $-1 -23.07858712766302 -19.047248267051611 2.545951892174644 0 0.74314483375859142 -0.66913059716165679 0.25 0 0 1 I I -0.70710678118654746 0.70710678118654746 0.25 forward I I I I #
loop $-1 $-1 $241 $64 #
coedge $-1 $152 $152 $242 $243 reversed $95 $-1 #
face $-1 $-1 $244 $51 $-1 $245 forward single #
loop $-1 $246 $247 $97 #
cone-surface $-1 -20.174109672878416 -19.047248267051611 2.545951892174644 0 0.74314483375859142 -0.66913059716165679 0.25 0 0 1 I I -0.70710678118654746 0.70710678118654746 0.25 forward I I I I #
loop $-1 $-1 $248 $65 #
coedge $-1 $157 $157 $249 $250 reversed $98 $-1 #
face $-1 $251 $252 $52 $-1 $253 reversed single #
loop $-1 $-1 $254 $100 #
plane-surface $-1 28.243892454905364 -22.468980193712731 0.74235592866480005 0 -0.74314483375859142 0.66913059716165679 1 0 0 forward_v I I I I #
coedge $-1 $255 $256 $257 $258 reversed $101 $-1 #
face $-1 $-1 $259 $53 $-1 $260 forward single #
loop $-1 $261 $262 $103 #
cone-surface $-1 25.339415000120752 -19.047248267051611 2.545951892174644 0 0.74314483375859142 -0.66913059716165679 0.25 0 0 1 I I -0.70710678118654746 0.70710678118654746 0.25 forward I I I I #
loop $-1 $-1 $263 $67 #
coedge $-1 $166 $166 $264 $265 reversed $104 $-1 #
face $-1 $-1 $266 $54 $-1 $267 forward single #
loop $-1 $268 $269 $106 #
cone-surface $-1 28.243892454905364 -19.047248267051611 2.545951892174644 0 0.74314483375859142 -0.66913059716165679 0.25 0 0 1 I I -0.70710678118654746 0.70710678118654746 0.25 forward I I I I #
loop $-1 $-1 $270 $68 #
coedge $-1 $171 $171 $271 $272 reversed $107 $-1 #
face $-1 $-1 $273 $55 $-1 $274 forward single #
loop $-1 $275 $276 $109 #
cone-surface $-1 31.148369909689961 -19.047248267051611 2.545951892174644 0 0.74314483375859142 -0.66913059716165679 0.25 0 0 1 I I -0.70710678118654746 0.70710678118654746 0.25 forward I I I I #
loop $-1 $-1 $277 $69 #
coedge $-1 $176 $176 $278 $279 reversed $110 $-1 #
face $-1 $280 $281 $42 $-1 $282 reversed single #
loop $-1 $-1 $283 $112 #
plane-surface $-1 0 -22.468980193712742 0 0 1 0 0 0 1 forward_v I I I I #
coedge $-1 $284 $285 $286 $287 forward $113 $-1 #
coedge $-1 $288 $115 $289 $290 forward $71 $-1 #
coedge $-1 $115 $288 $291 $292 forward $71 $-1 #
coedge $-1 $293 $294 $115 $184 reversed $295 $-1 #
edge $-1 $296 -22.468980193712742 $297 22.468980193712742 $183 $298 forward 7 unknown #
face $-1 $299 $300 $43 $-1 $301 reversed single #
loop $-1 $-1 $191 $116 #
plane-surface $-1 -43.621502726184119 0 -3.1374663632864319 0 0 1 1 0 0 forward_v I I I I #
coedge $-1 $302 $303 $190 $304 forward $117 $-1 #
coedge $-1 $305 $119 $306 $307 reversed $74 $-1 #
coedge $-1 $119 $305 $188 $304 reversed $74 $-1 #
coedge $-1 $308 $309 $119 $192 reversed $186 $-1 #
edge $-1 $310 -22.468980193712742 $311 22.468980193712742 $191 $312 forward 7 unknown #
face $-1 $313 $314 $44 $-1 $315 forward single #
loop $-1 $-1 $316 $120 #
plane-surface $-1 20.458168175648105 47.159279184892796 93.187877857772008 -1 0 0 0 0.69465837861970381 0.71933979245794832 forward_v I I I I #
coedge $-1 $317 $318 $319 $320 reversed $121 $-1 #
coedge $-1 $198 $123 $321 $322 reversed $77 $-1 #
coedge $-1 $123 $197 $317 $323 reversed $77 $-1 #
coedge $-1 $319 $324 $123 $200 forward $314 $-1 #
edge $-1 $325 1.1106593987336559 $326 4.4325111081162234 $199 $327 forward 7 unknown #
loop $-1 $-1 $206 $124 #
plane-surface $-1 14.53523072598108 -9.8566829048614153 34.146122084338231 0 0.69465837861970381 0.71933979245794832 1 0 0 forward_v I I I I #
loop $-1 $-1 $328 $79 #
coedge $-1 $204 $204 $205 $329 reversed $125 $-1 #
coedge $-1 $205 $205 $204 $329 forward $127 $-1 #
coedge $-1 $206 $206 $128 $207 forward $201 $-1 #
edge $-1 $330 1.7537199311053519e-016 $330 6.2831853071796004 $206 $331 forward 7 unknown #
loop $-1 $-1 $213 $129 #
plane-surface $-1 14.53523072598108 -9.8566829048614153 34.146122084338231 0 0.69465837861970381 0.71933979245794832 1 0 0 forward_v I I I I #
loop $-1 $-1 $332 $82 #
coedge $-1 $211 $211 $212 $333 reversed $130 $-1 #
coedge $-1 $212 $212 $211 $333 forward $132 $-1 #
coedge $-1 $213 $213 $133 $214 forward $208 $-1 #
edge $-1 $334 1.7537199311053519e-016 $334 6.2831853071796004 $213 $335 forward 7 unknown #
loop $-1 $-1 $220 $134 #
plane-surface $-1 14.53523072598108 -9.8566829048614153 34.146122084338231 0 0.69465837861970381 0.71933979245794832 1 0 0 forward_v I I I I #
loop $-1 $-1 $336 $85 #
coedge $-1 $218 $218 $219 $337 reversed $135 $-1 #
coedge $-1 $219 $219 $218 $337 forward $137 $-1 #
coedge $-1 $220 $220 $138 $221 forward $215 $-1 #
edge $-1 $338 1.7537199311053519e-016 $338 6.2831853071796004 $220 $339 forward 7 unknown #
face $-1 $340 $341 $48 $-1 $342 reversed single #
loop $-1 $-1 $343 $139 #
plane-surface $-1 -27.919382885637361 -83.464599008486928 55.663056427045674 1 0 0 0 0.74314483375859142 -0.66913059716165679 forward_v I I I I #
coedge $-1 $344 $345 $346 $347 reversed $140 $-1 #
coedge $-1 $227 $142 $348 $349 reversed $89 $-1 #
coedge $-1 $142 $226 $344 $350 reversed $89 $-1 #
coedge $-1 $346 $351 $142 $229 forward $352 $-1 #
edge $-1 $353 19.263319310530722 $354 24.121098444394924 $228 $355 forward 7 unknown #
loop $-1 $-1 $235 $143 #
plane-surface $-1 -23.07858712766302 -22.468980193712731 0.74235592866480005 0 -0.74314483375859142 0.66913059716165679 1 0 0 forward_v I I I I #
loop $-1 $-1 $356 $91 #
coedge $-1 $233 $233 $234 $357 reversed $144 $-1 #
coedge $-1 $234 $234 $233 $357 forward $146 $-1 #
coedge $-1 $235 $235 $147 $236 forward $230 $-1 #
edge $-1 $358 4.3520315834157144e-015 $358 6.2831853071796049 $235 $359 forward 7 unknown #
loop $-1 $-1 $242 $148 #
plane-surface $-1 -23.07858712766302 -22.468980193712731 0.74235592866480005 0 -0.74314483375859142 0.66913059716165679 1 0 0 forward_v I I I I #
loop $-1 $-1 $360 $94 #
coedge $-1 $240 $240 $241 $361 reversed $149 $-1 #
coedge $-1 $241 $241 $240 $361 forward $151 $-1 #
coedge $-1 $242 $242 $152 $243 forward $237 $-1 #
edge $-1 $362 4.3520315834157144e-015 $362 6.2831853071796049 $242 $363 forward 7 unknown #
loop $-1 $-1 $249 $153 #
plane-surface $-1 -23.07858712766302 -22.468980193712731 0.74235592866480005 0 -0.74314483375859142 0.66913059716165679 1 0 0 forward_v I I I I #
loop $-1 $-1 $364 $97 #
coedge $-1 $247 $247 $248 $365 reversed $154 $-1 #
coedge $-1 $248 $248 $247 $365 forward $156 $-1 #
coedge $-1 $249 $249 $157 $250 forward $244 $-1 #
edge $-1 $366 4.3520315834157144e-015 $366 6.2831853071796049 $249 $367 forward 7 unknown #
face $-1 $368 $369 $52 $-1 $370 reversed single #
loop $-1 $-1 $371 $158 #
plane-surface $-1 23.403096696931023 -83.464599008486928 55.663056427045674 1 0 0 0 0.74314483375859142 -0.66913059716165679 forward_v I I I I #
coedge $-1 $372 $373 $374 $375 reversed $159 $-1 #
coedge $-1 $256 $161 $376 $377 reversed $101 $-1 #
coedge $-1 $161 $255 $372 $378 reversed $101 $-1 #
coedge $-1 $374 $379 $161 $258 forward $380 $-1 #
edge $-1 $381 19.263319310530722 $382 24.121098444394924 $257 $383 forward 7 unknown #
loop $-1 $-1 $264 $162 #
plane-surface $-1 28.243892454905364 -22.468980193712731 0.74235592866480005 0 -0.74314483375859142 0.66913059716165679 1 0 0 forward_v I I I I #
loop $-1 $-1 $384 $103 #
coedge $-1 $262 $262 $263 $385 reversed $163 $-1 #
coedge $-1 $263 $263 $262 $385 forward $165 $-1 #
coedge $-1 $264 $264 $166 $265 forward $259 $-1 #
edge $-1 $386 4.3520315834157144e-015 $386 6.2831853071796049 $264 $387 forward 7 unknown #
loop $-1 $-1 $271 $167 #
plane-surface $-1 28.243892454905364 -22.468980193712731 0.74235592866480005 0 -0.74314483375859142 0.66913059716165679 1 0 0 forward_v I I I I #
loop $-1 $-1 $388 $106 #
coedge $-1 $269 $269 $270 $389 reversed $168 $-1 #
coedge $-1 $270 $270 $269 $389 forward $170 $-1 #
coedge $-1 $271 $271 $171 $272 forward $266 $-1 #
edge $-1 $390 4.3520315834157144e-015 $390 6.2831853071796049 $271 $391 forward 7 unknown #
loop $-1 $-1 $278 $172 #
plane-surface $-1 28.243892454905364 -22.468980193712731 0.74235592866480005 0 -0.74314483375859142 0.66913059716165679 1 0 0 forward_v I I I I #
loop $-1 $-1 $392 $109 #
coedge $-1 $276 $276 $277 $393 reversed $173 $-1 #
coedge $-1 $277 $277 $276 $393 forward $175 $-1 #
coedge $-1 $278 $278 $176 $279 forward $273 $-1 #
edge $-1 $394 4.3520315834157144e-015 $394 6.2831853071796049 $278 $395 forward 7 unknown #
face $-1 $396 $397 $42 $-1 $398 reversed single #
loop $-1 $-1 $399 $177 #
plane-surface $-1 -41.038850062562943 0 0 1 0 0 0 0 -1 forward_v I I I I #
coedge $-1 $400 $291 $401 $402 forward $178 $-1 #
coedge $-1 $403 $180 $400 $404 forward $113 $-1 #
coedge $-1 $180 $403 $405 $406 forward $113 $-1 #
coedge $-1 $294 $293 $180 $287 reversed $295 $-1 #
edge $-1 $407 -22.468980193712742 $408 22.468980193712742 $286 $409 forward 7 unknown #
coedge $-1 $182 $181 $410 $411 forward $71 $-1 #
coedge $-1 $412 $413 $181 $290 reversed $397 $-1 #
edge $-1 $297 -41.038850062562943 $414 41.038850062562943 $289 $415 forward 7 unknown #
coedge $-1 $283 $416 $182 $292 reversed $178 $-1 #
edge $-1 $417 -41.038850062562943 $296 41.038850062562943 $291 $418 forward 7 unknown #
coedge $-1 $286 $183 $416 $419 forward $295 $-1 #
coedge $-1 $183 $286 $412 $420 reversed $295 $-1 #
loop $-1 $-1 $293 $396 #
vertex $-1 $184 $421 #
vertex $-1 $184 $422 #
straight-curve $-1 41.038850062562943 0 6.1374663632864319 0 1 0 I I #
face $-1 $423 $424 $43 $-1 $425 reversed single #
loop $-1 $-1 $426 $185 #
plane-surface $-1 -46.204155389805294 0 -4.6374663632864319 1 0 0 0 0 -1 forward_v I I I I #
coedge $-1 $427 $188 $428 $429 reversed $117 $-1 #
coedge $-1 $188 $427 $308 $430 reversed $117 $-1 #
edge $-1 $310 3.1374663632864319 $431 6.1374663632864319 $188 $432 forward 7 unknown #
coedge $-1 $190 $189 $433 $434 reversed $74 $-1 #
coedge $-1 $435 $436 $189 $307 forward $437 $-1 #
edge $-1 $438 -6.1374663632864319 $311 -3.1374663632864319 $306 $439 forward 7 unknown #
coedge $-1 $440 $191 $303 $430 forward $186 $-1 #
coedge $-1 $191 $440 $435 $441 forward $186 $-1 #
vertex $-1 $304 $442 #
vertex $-1 $441 $443 #
straight-curve $-1 -41.038850062562943 0 -3.1374663632864319 0 -1 0 I I #
face $-1 $-1 $444 $44 $-1 $445 reversed single #
loop $-1 $-1 $199 $193 #
plane-surface $-1 0 0 6.1374663632864319 0 0 1 1 0 0 forward_v I I I I #
coedge $-1 $446 $447 $448 $449 reversed $194 $-1 #
coedge $-1 $450 $196 $198 $323 forward $121 $-1 #
coedge $-1 $196 $450 $446 $451 forward $121 $-1 #
coedge $-1 $448 $199 $196 $320 forward $314 $-1 #
edge $-1 $326 1.3446779133235154 $452 13.190552812657565 $319 $453 forward 7 unknown #
coedge $-1 $454 $455 $197 $322 forward $444 $-1 #
edge $-1 $456 -43.664347545753245 $325 -40.456472565599569 $321 $457 forward 7 unknown #
edge $-1 $326 40.320043035693885 $456 44.937960387425491 $198 $458 forward 7 unknown #
coedge $-1 $199 $448 $454 $459 forward $314 $-1 #
vertex $-1 $322 $460 #
vertex $-1 $200 $461 #
straight-curve $-1 8.6122932763140554 23.579639592446398 6.1374663632864284 0 -1 0 I I #
coedge $-1 $328 $328 $-1 $462 reversed $203 $-1 #
edge $-1 $463 0 $463 6.2831853071796004 $204 $464 forward 7 unknown #
vertex $-1 $207 $465 #
ellipse-curve $-1 10.981468256180868 20.808054339021457 4.5335288732096002 0 0.69465837861970381 0.71933979245794832 0.5 0 0 1 I I #
coedge $-1 $332 $332 $-1 $466 reversed $210 $-1 #
edge $-1 $467 0 $467 6.2831853071796004 $211 $468 forward 7 unknown #
vertex $-1 $214 $469 #
ellipse-curve $-1 14.53523072598108 20.808054339021457 4.5335288732096002 0 0.69465837861970381 0.71933979245794832 0.5 0 0 1 I I #
coedge $-1 $336 $336 $-1 $470 reversed $217 $-1 #
edge $-1 $471 0 $471 6.2831853071796004 $218 $472 forward 7 unknown #
vertex $-1 $221 $473 #
ellipse-curve $-1 18.088993195781292 20.808054339021457 4.5335288732096002 0 0.69465837861970381 0.71933979245794832 0.5 0 0 1 I I #
face $-1 $-1 $352 $48 $-1 $474 forward single #
loop $-1 $-1 $475 $222 #
plane-surface $-1 0 -22.468980193712742 0 0 1 0 0 0 1 forward_v I I I I #
coedge $-1 $476 $477 $478 $479 reversed $223 $-1 #
coedge $-1 $480 $225 $227 $350 forward $140 $-1 #
coedge $-1 $225 $480 $476 $481 forward $140 $-1 #
coedge $-1 $478 $228 $225 $347 forward $352 $-1 #
edge $-1 $354 6.6984978058571691 $482 16.380089321805851 $346 $483 forward 7 unknown #
coedge $-1 $484 $485 $226 $349 forward $341 $-1 #
edge $-1 $486 -27.089172284858048 $353 -21.694061850236405 $348 $487 forward 7 unknown #
edge $-1 $354 -7.2598370997681165 $486 1.5959792880569736e-014 $227 $488 forward 7 unknown #
coedge $-1 $228 $478 $484 $489 forward $352 $-1 #
loop $-1 $-1 $478 $340 #
vertex $-1 $349 $490 #
vertex $-1 $229 $491 #
straight-curve $-1 -18.237791369688679 -41.732299504243464 6.1374663632864319 0 1 0 I I #
coedge $-1 $356 $356 $-1 $492 reversed $232 $-1 #
edge $-1 $493 0 $493 6.2831853071796004 $233 $494 forward 7 unknown #
vertex $-1 $236 $495 #
ellipse-curve $-1 -25.983064582447625 -20.040090626780643 3.4399111459756102 0 -0.74314483375859142 0.66913059716165679 0.5 0 0 1 I I #
coedge $-1 $360 $360 $-1 $496 reversed $239 $-1 #
edge $-1 $497 0 $497 6.2831853071796004 $240 $498 forward 7 unknown #
vertex $-1 $243 $499 #
ellipse-curve $-1 -23.07858712766302 -20.040090626780643 3.4399111459756102 0 -0.74314483375859142 0.66913059716165679 0.5 0 0 1 I I #
coedge $-1 $364 $364 $-1 $500 reversed $246 $-1 #
edge $-1 $501 0 $501 6.2831853071796004 $247 $502 forward 7 unknown #
vertex $-1 $250 $503 #
ellipse-curve $-1 -20.174109672878416 -20.040090626780643 3.4399111459756102 0 -0.74314483375859142 0.66913059716165679 0.5 0 0 1 I I #
face $-1 $-1 $380 $52 $-1 $504 forward single #
loop $-1 $-1 $505 $251 #
plane-surface $-1 0 -22.468980193712742 0 0 1 0 0 0 1 forward_v I I I I #
coedge $-1 $506 $507 $508 $509 reversed $252 $-1 #
coedge $-1 $510 $254 $256 $378 forward $159 $-1 #
coedge $-1 $254 $510 $506 $511 forward $159 $-1 #
coedge $-1 $508 $257 $254 $375 forward $380 $-1 #
edge $-1 $382 -18.962741985427023 $512 -9.2811504694783409 $374 $513 forward 7 unknown #
coedge $-1 $514 $515 $255 $377 forward $369 $-1 #
edge $-1 $516 -27.089172284858048 $381 -21.694061850236405 $376 $517 forward 7 unknown #
edge $-1 $382 -7.2598370997681165 $516 1.5959792880569736e-014 $256 $518 forward 7 unknown #
coedge $-1 $257 $508 $514 $519 forward $380 $-1 #
loop $-1 $-1 $508 $368 #
vertex $-1 $377 $520 #
vertex $-1 $258 $521 #
straight-curve $-1 33.084688212879705 -41.732299504243464 6.1374663632864319 0 1 0 I I #
coedge $-1 $384 $384 $-1 $522 reversed $261 $-1 #
edge $-1 $523 0 $523 6.2831853071796004 $262 $524 forward 7 unknown #
vertex $-1 $265 $525 #
ellipse-curve $-1 25.339415000120752 -20.040090626780643 3.4399111459756102 0 -0.74314483375859142 0.66913059716165679 0.5 0 0 1 I I #
coedge $-1 $388 $388 $-1 $526 reversed $268 $-1 #
edge $-1 $527 0 $527 6.2831853071796004 $269 $528 forward 7 unknown #
vertex $-1 $272 $529 #
ellipse-curve $-1 28.243892454905364 -20.040090626780643 3.4399111459756102 0 -0.74314483375859142 0.66913059716165679 0.5 0 0 1 I I #
coedge $-1 $392 $392 $-1 $530 reversed $275 $-1 #
edge $-1 $531 0 $531 6.2831853071796004 $276 $532 forward 7 unknown #
vertex $-1 $279 $533 #
ellipse-curve $-1 31.148369909689961 -20.040090626780643 3.4399111459756102 0 -0.74314483375859142 0.66913059716165679 0.5 0 0 1 I I #
face $-1 $-1 $295 $42 $-1 $534 reversed single #
loop $-1 $-1 $412 $280 #
plane-surface $-1 0 22.468980193712742 0 0 -1 0 0 0 -1 forward_v I I I I #
coedge $-1 $535 $410 $413 $536 forward $281 $-1 #
coedge $-1 $416 $283 $284 $404 reversed $178 $-1 #
coedge $-1 $410 $535 $283 $402 reversed $281 $-1 #
edge $-1 $417 -6.1374663632864319 $537 6.1374663632864319 $401 $538 forward 7 unknown #
coedge $-1 $285 $284 $535 $539 forward $113 $-1 #
edge $-1 $408 -41.038850062562943 $537 41.038850062562943 $400 $540 forward 7 unknown #
coedge $-1 $413 $412 $285 $406 reversed $397 $-1 #
edge $-1 $541 -41.038850062562943 $407 41.038850062562943 $405 $542 forward 7 unknown #
vertex $-1 $287 $543 #
vertex $-1 $419 $544 #
straight-curve $-1 41.038850062562943 0 -6.1374663632864319 0 -1 0 I I #
coedge $-1 $399 $401 $288 $411 reversed $281 $-1 #
edge $-1 $414 -22.468980193712742 $417 22.468980193712742 $410 $545 forward 7 unknown #
coedge $-1 $405 $289 $294 $420 forward $397 $-1 #
coedge $-1 $289 $405 $399 $536 reversed $397 $-1 #
vertex $-1 $290 $546 #
straight-curve $-1 0 22.468980193712742 6.1374663632864319 -1 0 0 I I #
coedge $-1 $291 $400 $293 $419 reversed $178 $-1 #
vertex $-1 $411 $547 #
straight-curve $-1 0 -22.468980193712742 6.1374663632864319 1 0 0 I I #
edge $-1 $296 -6.1374663632864319 $408 6.1374663632864319 $293 $548 forward 7 unknown #
edge $-1 $297 -6.1374663632864319 $407 6.1374663632864319 $294 $549 forward 7 unknown #
point $-1 41.038850062562943 -22.468980193712742 6.1374663632864319 #
point $-1 41.038850062562943 22.468980193712742 6.1374663632864319 #
face $-1 $-1 $437 $43 $-1 $550 reversed single #
loop $-1 $-1 $433 $299 #
plane-surface $-1 0 0 -6.1374663632864319 0 0 1 1 0 0 forward_v I I I I #
coedge $-1 $551 $552 $427 $553 forward $300 $-1 #
coedge $-1 $303 $302 $426 $553 reversed $117 $-1 #
coedge $-1 $433 $554 $302 $429 forward $424 $-1 #
edge $-1 $555 -46.204155389805294 $431 -41.038850062562943 $302 $556 forward 7 unknown #
edge $-1 $310 -2.5826526636211753 $557 2.5826526636211753 $303 $558 forward 7 unknown #
vertex $-1 $304 $559 #
straight-curve $-1 -41.038850062562943 22.468980193712742 0 0 0 -1 I I #
coedge $-1 $560 $428 $305 $434 forward $424 $-1 #
edge $-1 $431 -22.468980193712742 $438 22.468980193712742 $433 $561 forward 7 unknown #
coedge $-1 $562 $306 $309 $441 reversed $437 $-1 #
coedge $-1 $306 $562 $560 $563 reversed $437 $-1 #
loop $-1 $-1 $306 $423 #
vertex $-1 $563 $564 #
straight-curve $-1 -41.038850062562943 -22.468980193712742 0 0 0 1 I I #
coedge $-1 $309 $308 $552 $565 forward $186 $-1 #
edge $-1 $566 -2.5826526636211753 $311 2.5826526636211753 $435 $567 forward 7 unknown #
point $-1 -41.038850062562943 22.468980193712742 -3.1374663632864319 #
point $-1 -41.038850062562943 -22.468980193712742 -3.1374663632864319 #
loop $-1 $-1 $321 $313 #
plane-surface $-1 0 22.468980193712742 0 0 -1 0 0 0 -1 forward_v I I I I #
coedge $-1 $447 $316 $318 $451 reversed $194 $-1 #
coedge $-1 $316 $446 $568 $569 reversed $194 $-1 #
coedge $-1 $324 $319 $316 $449 forward $314 $-1 #
edge $-1 $452 -4.4325111081162234 $570 -1.1106593987336559 $448 $571 forward 7 unknown #
coedge $-1 $318 $317 $455 $572 reversed $121 $-1 #
edge $-1 $573 -44.937960387425491 $452 -40.320043035693885 $446 $574 forward 7 unknown #
vertex $-1 $320 $575 #
straight-curve $-1 7.26761536299054 19.147128484330175 6.1374663632864319 1 0 0 I I #
coedge $-1 $568 $321 $324 $459 reversed $444 $-1 #
coedge $-1 $321 $568 $450 $572 forward $444 $-1 #
vertex $-1 $322 $576 #
straight-curve $-1 8.6122932763140554 22.468980193712742 46.593938928886004 0 0 1 I I #
straight-curve $-1 8.6122932763140554 -9.8566829048614153 34.146122084338231 0 0.71933979245794832 -0.69465837861970381 I I #
edge $-1 $570 -20.458168175648105 $325 -8.6122932763140554 $454 $577 forward 7 unknown #
point $-1 8.6122932763140554 22.468980193712742 6.1374663632864319 #
point $-1 8.6122932763140554 19.147128484330175 6.1374663632864319 #
edge $-1 $578 1 $578 0 $328 $-1 forward 7 unknown #
vertex $-1 $329 $579 #
ellipse-curve $-1 10.981468256180868 19.90820175749456 3.6017042682512583 0 0.69465837861970381 0.71933979245794832 0.5 0 0 1 I I #
point $-1 11.481468256180868 20.80805433902146 4.5335288732096037 #
edge $-1 $580 1 $580 0 $332 $-1 forward 7 unknown #
vertex $-1 $333 $581 #
ellipse-curve $-1 14.53523072598108 19.90820175749456 3.6017042682512583 0 0.69465837861970381 0.71933979245794832 0.5 0 0 1 I I #
point $-1 15.03523072598108 20.80805433902146 4.5335288732096037 #
edge $-1 $582 1 $582 0 $336 $-1 forward 7 unknown #
vertex $-1 $337 $583 #
ellipse-curve $-1 18.088993195781292 19.90820175749456 3.6017042682512583 0 0.69465837861970381 0.71933979245794832 0.5 0 0 1 I I #
point $-1 18.588993195781292 20.80805433902146 4.5335288732096037 #
plane-surface $-1 0 0 6.1374663632864319 0 0 1 1 0 0 forward_v I I I I #
coedge $-1 $485 $484 $477 $584 forward $341 $-1 #
coedge $-1 $477 $343 $345 $481 reversed $223 $-1 #
coedge $-1 $343 $476 $475 $584 reversed $223 $-1 #
coedge $-1 $351 $346 $343 $479 forward $352 $-1 #
edge $-1 $482 -24.121098444394924 $585 -19.263319310530722 $478 $586 forward 7 unknown #
coedge $-1 $345 $344 $485 $587 reversed $140 $-1 #
edge $-1 $588 -1.5959792880569736e-014 $482 7.2598370997681165 $476 $589 forward 7 unknown #
vertex $-1 $347 $590 #
straight-curve $-1 -11.53929356383151 -17.611201059848543 6.1374663632864319 -1 0 0 I I #
coedge $-1 $475 $348 $351 $489 reversed $341 $-1 #
coedge $-1 $348 $475 $480 $587 forward $341 $-1 #
vertex $-1 $349 $591 #
straight-curve $-1 -18.237791369688679 -22.468980193712742 27.831528213522837 0 0 1 I I #
straight-curve $-1 -18.237791369688679 -22.468980193712731 0.74235592866480005 0 -0.66913059716165679 -0.74314483375859142 I I #
edge $-1 $585 -27.919382885637361 $353 -18.237791369688679 $484 $592 forward 7 unknown #
point $-1 -18.237791369688679 -22.468980193712742 6.1374663632864319 #
point $-1 -18.237791369688679 -17.61120105984854 6.1374663632864319 #
edge $-1 $593 1 $593 0 $356 $-1 forward 7 unknown #
vertex $-1 $357 $594 #
ellipse-curve $-1 -25.983064582447625 -19.233034475491259 2.713234541465058 0 -0.74314483375859142 0.66913059716165679 0.5 0 0 1 I I #
point $-1 -25.483064582447625 -20.04009062678065 3.4399111459756195 #
edge $-1 $595 1 $595 0 $360 $-1 forward 7 unknown #
vertex $-1 $361 $596 #
ellipse-curve $-1 -23.07858712766302 -19.233034475491259 2.713234541465058 0 -0.74314483375859142 0.66913059716165679 0.5 0 0 1 I I #
point $-1 -22.57858712766302 -20.04009062678065 3.4399111459756195 #
edge $-1 $597 1 $597 0 $364 $-1 forward 7 unknown #
vertex $-1 $365 $598 #
ellipse-curve $-1 -20.174109672878416 -19.233034475491259 2.713234541465058 0 -0.74314483375859142 0.66913059716165679 0.5 0 0 1 I I #
point $-1 -19.674109672878416 -20.04009062678065 3.4399111459756195 #
plane-surface $-1 0 0 6.1374663632864319 0 0 1 1 0 0 forward_v I I I I #
coedge $-1 $515 $514 $507 $599 forward $369 $-1 #
coedge $-1 $507 $371 $373 $511 reversed $252 $-1 #
coedge $-1 $371 $506 $505 $599 reversed $252 $-1 #
coedge $-1 $379 $374 $371 $509 forward $380 $-1 #
edge $-1 $512 -24.121098444394924 $600 -19.263319310530722 $508 $601 forward 7 unknown #
coedge $-1 $373 $372 $515 $602 reversed $159 $-1 #
edge $-1 $603 -1.5959792880569736e-014 $512 7.2598370997681165 $506 $604 forward 7 unknown #
vertex $-1 $375 $605 #
straight-curve $-1 14.121946227452682 -17.611201059848543 6.1374663632864319 -1 0 0 I I #
coedge $-1 $505 $376 $379 $519 reversed $369 $-1 #
coedge $-1 $376 $505 $510 $602 forward $369 $-1 #
vertex $-1 $377 $606 #
straight-curve $-1 33.084688212879705 -22.468980193712742 27.831528213522837 0 0 1 I I #
straight-curve $-1 33.084688212879705 -22.468980193712731 0.74235592866480005 0 -0.66913059716165679 -0.74314483375859142 I I #
edge $-1 $600 23.403096696931023 $381 33.084688212879705 $514 $607 forward 7 unknown #
point $-1 33.084688212879705 -22.468980193712742 6.1374663632864319 #
point $-1 33.084688212879705 -17.61120105984854 6.1374663632864319 #
edge $-1 $608 1 $608 0 $384 $-1 forward 7 unknown #
vertex $-1 $385 $609 #
ellipse-curve $-1 25.339415000120752 -19.233034475491259 2.713234541465058 0 -0.74314483375859142 0.66913059716165679 0.5 0 0 1 I I #
point $-1 25.839415000120752 -20.04009062678065 3.4399111459756195 #
edge $-1 $610 1 $610 0 $388 $-1 forward 7 unknown #
vertex $-1 $389 $611 #
ellipse-curve $-1 28.243892454905364 -19.233034475491259 2.713234541465058 0 -0.74314483375859142 0.66913059716165679 0.5 0 0 1 I I #
point $-1 28.743892454905364 -20.04009062678065 3.4399111459756195 #
edge $-1 $612 1 $612 0 $392 $-1 forward 7 unknown #
vertex $-1 $393 $613 #
ellipse-curve $-1 31.148369909689961 -19.233034475491259 2.713234541465058 0 -0.74314483375859142 0.66913059716165679 0.5 0 0 1 I I #
point $-1 31.648369909689961 -20.04009062678065 3.4399111459756195 #
plane-surface $-1 41.038850062562943 0 0 -1 0 0 0 0 1 forward_v I I I I #
coedge $-1 $401 $399 $403 $539 reversed $281 $-1 #
edge $-1 $414 -6.1374663632864319 $541 6.1374663632864319 $413 $614 forward 7 unknown #
vertex $-1 $539 $615 #
straight-curve $-1 -41.038850062562943 -22.468980193712742 0 0 0 -1 I I #
edge $-1 $537 -22.468980193712742 $541 22.468980193712742 $535 $616 forward 7 unknown #
straight-curve $-1 0 -22.468980193712742 -6.1374663632864319 -1 0 0 I I #
vertex $-1 $406 $617 #
straight-curve $-1 0 22.468980193712742 -6.1374663632864319 1 0 0 I I #
point $-1 41.038850062562943 22.468980193712742 -6.1374663632864319 #
point $-1 41.038850062562943 -22.468980193712742 -6.1374663632864319 #
straight-curve $-1 -41.038850062562943 0 6.1374663632864319 0 -1 0 I I #
point $-1 -41.038850062562943 22.468980193712742 6.1374663632864319 #
point $-1 -41.038850062562943 -22.468980193712742 6.1374663632864319 #
straight-curve $-1 41.038850062562943 -22.468980193712742 0 0 0 -1 I I #
straight-curve $-1 41.038850062562943 22.468980193712742 0 0 0 -1 I I #
plane-surface $-1 0 -22.468980193712742 0 0 1 0 0 0 1 forward_v I I I I #
coedge $-1 $618 $426 $554 $619 reversed $300 $-1 #
coedge $-1 $426 $618 $440 $565 reversed $300 $-1 #
edge $-1 $557 -1.5 $555 1.5 $427 $620 forward 7 unknown #
coedge $-1 $428 $560 $551 $619 forward $424 $-1 #
vertex $-1 $429 $621 #
straight-curve $-1 0 22.468980193712742 -6.1374663632864319 1 0 0 I I #
vertex $-1 $430 $622 #
straight-curve $-1 -43.621502726184119 22.468980193712742 -3.1374663632864319 -1 0 0 I I #
point $-1 -41.038850062562943 22.468980193712742 -6.1374663632864319 #
coedge $-1 $554 $433 $436 $563 forward $424 $-1 #
straight-curve $-1 -41.038850062562943 0 -6.1374663632864319 0 -1 0 I I #
coedge $-1 $436 $435 $618 $623 forward $437 $-1 #
edge $-1 $438 -2.5826526636211753 $624 2.5826526636211753 $436 $625 forward 7 unknown #
point $-1 -41.038850062562943 -22.468980193712742 -6.1374663632864319 #
edge $-1 $557 -22.468980193712742 $566 22.468980193712742 $552 $626 forward 7 unknown #
vertex $-1 $565 $627 #
straight-curve $-1 -43.621502726184119 -22.468980193712742 -3.1374663632864319 1 0 0 I I #
coedge $-1 $455 $454 $447 $569 forward $444 $-1 #
edge $-1 $570 40.456472565599569 $573 43.664347545753245 $568 $628 forward 7 unknown #
vertex $-1 $459 $629 #
straight-curve $-1 20.458168175648105 23.579639592446398 6.1374663632864284 0 1 0 I I #
edge $-1 $573 -13.190552812657565 $456 -1.3446779133235154 $455 $630 forward 7 unknown #
vertex $-1 $572 $631 #
straight-curve $-1 20.458168175648105 -9.8566829048614153 34.146122084338231 0 -0.71933979245794832 0.69465837861970381 I I #
point $-1 20.458168175648105 19.147128484330175 6.1374663632864319 #
point $-1 8.6122932763140554 22.468980193712738 2.9295913831327631 #
straight-curve $-1 0 22.468980193712742 6.1374663632864319 -1 0 0 I I #
vertex $-1 $462 $632 #
point $-1 11.481468256180868 19.90820175749456 3.6017042682512583 #
vertex $-1 $466 $633 #
point $-1 15.03523072598108 19.90820175749456 3.6017042682512583 #
vertex $-1 $470 $634 #
point $-1 18.588993195781292 19.90820175749456 3.6017042682512583 #
edge $-1 $585 21.694061850236405 $588 27.089172284858048 $475 $635 forward 7 unknown #
vertex $-1 $489 $636 #
straight-curve $-1 -27.919382885637361 -41.732299504243464 6.1374663632864319 0 -1 0 I I #
edge $-1 $588 -16.380089321805851 $486 -6.6984978058571691 $485 $637 forward 7 unknown #
vertex $-1 $587 $638 #
straight-curve $-1 -27.919382885637361 -22.468980193712731 0.74235592866480005 0 0.66913059716165679 0.74314483375859142 I I #
point $-1 -27.919382885637361 -17.61120105984854 6.1374663632864319 #
point $-1 -18.237791369688679 -22.468980193712742 0.74235592866478817 #
straight-curve $-1 0 -22.468980193712742 6.1374663632864319 1 0 0 I I #
vertex $-1 $492 $639 #
point $-1 -25.483064582447625 -19.233034475491259 2.713234541465058 #
vertex $-1 $496 $640 #
point $-1 -22.57858712766302 -19.233034475491259 2.713234541465058 #
vertex $-1 $500 $641 #
point $-1 -19.674109672878416 -19.233034475491259 2.713234541465058 #
edge $-1 $600 21.694061850236405 $603 27.089172284858048 $505 $642 forward 7 unknown #
vertex $-1 $519 $643 #
straight-curve $-1 23.403096696931023 -41.732299504243464 6.1374663632864319 0 -1 0 I I #
edge $-1 $603 9.2811504694783409 $516 18.962741985427023 $515 $644 forward 7 unknown #
vertex $-1 $602 $645 #
straight-curve $-1 23.403096696931023 -22.468980193712731 0.74235592866480005 0 0.66913059716165679 0.74314483375859142 I I #
point $-1 23.403096696931023 -17.61120105984854 6.1374663632864319 #
point $-1 33.084688212879705 -22.468980193712742 0.74235592866478817 #
straight-curve $-1 0 -22.468980193712742 6.1374663632864319 1 0 0 I I #
vertex $-1 $522 $646 #
point $-1 25.839415000120752 -19.233034475491259 2.713234541465058 #
vertex $-1 $526 $647 #
point $-1 28.743892454905364 -19.233034475491259 2.713234541465058 #
vertex $-1 $530 $648 #
point $-1 31.648369909689961 -19.233034475491259 2.713234541465058 #
straight-curve $-1 -41.038850062562943 22.468980193712742 0 0 0 -1 I I #
point $-1 -41.038850062562943 -22.468980193712742 -6.1374663632864319 #
straight-curve $-1 -41.038850062562943 0 -6.1374663632864319 0 1 0 I I #
point $-1 -41.038850062562943 22.468980193712742 -6.1374663632864319 #
coedge $-1 $552 $551 $562 $623 reversed $300 $-1 #
edge $-1 $624 -22.468980193712742 $555 22.468980193712742 $551 $649 forward 7 unknown #
straight-curve $-1 -46.204155389805294 22.468980193712742 -4.6374663632864319 0 0 -1 I I #
point $-1 -46.204155389805294 22.468980193712742 -6.1374663632864319 #
point $-1 -46.204155389805294 22.468980193712742 -3.1374663632864319 #
edge $-1 $566 -1.5 $624 1.5 $618 $650 forward 7 unknown #
vertex $-1 $619 $651 #
straight-curve $-1 -43.621502726184119 -22.468980193712742 -6.1374663632864319 -1 0 0 I I #
straight-curve $-1 -46.204155389805294 0 -3.1374663632864319 0 -1 0 I I #
point $-1 -46.204155389805294 -22.468980193712742 -3.1374663632864319 #
straight-curve $-1 20.458168175648105 22.468980193712742 46.593938928886004 0 0 -1 I I #
point $-1 20.458168175648105 22.468980193712742 6.1374663632864319 #
straight-curve $-1 7.26761536299054 22.468980193712742 2.9295913831327631 -1 0 0 I I #
point $-1 20.458168175648105 22.468980193712738 2.9295913831327631 #
point $-1 10.981468256180868 19.560872568184706 3.2420343720222844 #
point $-1 14.53523072598108 19.560872568184706 3.2420343720222844 #
point $-1 18.088993195781292 19.560872568184706 3.2420343720222844 #
straight-curve $-1 -27.919382885637361 -22.468980193712742 27.831528213522837 0 0 -1 I I #
point $-1 -27.919382885637361 -22.468980193712742 6.1374663632864319 #
straight-curve $-1 -11.53929356383151 -22.468980193712742 0.74235592866478983 1 0 0 I I #
point $-1 -27.919382885637361 -22.468980193712742 0.74235592866478817 #
point $-1 -25.983064582447625 -18.861462058611963 2.37866924288423 #
point $-1 -23.07858712766302 -18.861462058611963 2.37866924288423 #
point $-1 -20.174109672878416 -18.861462058611963 2.37866924288423 #
straight-curve $-1 23.403096696931023 -22.468980193712742 27.831528213522837 0 0 -1 I I #
point $-1 23.403096696931023 -22.468980193712742 6.1374663632864319 #
straight-curve $-1 14.121946227452682 -22.468980193712742 0.74235592866478983 1 0 0 I I #
point $-1 23.403096696931023 -22.468980193712742 0.74235592866478817 #
point $-1 25.339415000120752 -18.861462058611963 2.37866924288423 #
point $-1 28.243892454905364 -18.861462058611963 2.37866924288423 #
point $-1 31.148369909689961 -18.861462058611963 2.37866924288423 #
straight-curve $-1 -46.204155389805294 0 -6.1374663632864319 0 1 0 I I #
straight-curve $-1 -46.204155389805294 -22.468980193712742 -4.6374663632864319 0 0 -1 I I #
point $-1 -46.204155389805294 -22.468980193712742 -6.1374663632864319 #
End-of-ACIS-data 