500 0 8 0           
7 Unknown 11 ACIS 5.0 NT 24 Thu Mar 25 16:02:11 1999 
-1 9.9999999999999995e-007 1e-010 
body $-1 $8 $-1 $9 #
body $-1 $10 $-1 $11 #
body $-1 $12 $-1 $13 #
body $-1 $14 $-1 $15 #
body $-1 $16 $-1 $17 #
body $-1 $18 $-1 $19 #
body $-1 $20 $-1 $21 #
body $-1 $22 $-1 $23 #
lump $-1 $-1 $24 $0 #
transform $-1 1 0 0 0 1 0 0 0 1 77.802667317728208 46.292195274510718 19.927951587393974 1 rotate no_reflect no_shear #
lump $-1 $-1 $25 $1 #
transform $-1 1 0 0 0 1 0 0 0 1 77.802667317728208 46.292195274510718 19.927951587393974 1 rotate no_reflect no_shear #
lump $-1 $-1 $26 $2 #
transform $-1 1 0 0 0 1 0 0 0 1 77.802667317728208 46.292195274510718 19.927951587393974 1 rotate no_reflect no_shear #
lump $-1 $-1 $27 $3 #
transform $-1 1 0 0 0 1 0 0 0 1 77.802667317728208 46.292195274510718 19.927951587393974 1 rotate no_reflect no_shear #
lump $-1 $-1 $28 $4 #
transform $-1 1 0 0 0 1 0 0 0 1 77.802667317728208 46.292195274510718 19.927951587393974 1 rotate no_reflect no_shear #
lump $-1 $-1 $29 $5 #
transform $-1 1 0 0 0 1 0 0 0 1 77.802667317728208 46.292195274510718 19.927951587393974 1 rotate no_reflect no_shear #
lump $-1 $-1 $30 $6 #
transform $-1 1 0 0 0 1 0 0 0 1 77.802667317728208 46.292195274510718 19.927951587393974 1 rotate no_reflect no_shear #
lump $-1 $-1 $31 $7 #
transform $-1 1 0 0 0 1 0 0 0 1 77.802667317728208 46.292195274510718 19.927951587393974 1 rotate no_reflect no_shear #
shell $-1 $-1 $-1 $32 $-1 $8 #
shell $-1 $-1 $-1 $33 $-1 $10 #
shell $-1 $-1 $-1 $34 $-1 $12 #
shell $-1 $-1 $-1 $35 $-1 $14 #
shell $-1 $-1 $-1 $36 $-1 $16 #
shell $-1 $-1 $-1 $37 $-1 $18 #
shell $-1 $-1 $-1 $38 $-1 $20 #
shell $-1 $-1 $-1 $39 $-1 $22 #
face $-1 $40 $41 $24 $-1 $42 forward single #
face $-1 $43 $44 $25 $-1 $45 forward single #
face $-1 $46 $47 $26 $-1 $48 reversed single #
face $-1 $49 $50 $27 $-1 $51 forward single #
face $-1 $52 $53 $28 $-1 $54 forward single #
face $-1 $55 $56 $29 $-1 $57 reversed single #
face $-1 $58 $59 $30 $-1 $60 forward single #
face $-1 $61 $62 $31 $-1 $63 forward single #
face $-1 $64 $65 $24 $-1 $66 reversed single #
loop $-1 $-1 $67 $32 #
plane-surface $-1 0 0 19.927951587393974 0 0 1 1 0 0 forward_v I I I I #
face $-1 $68 $69 $25 $-1 $70 reversed single #
loop $-1 $-1 $71 $33 #
plane-surface $-1 -77.802667317728208 0 0 1 0 0 0 0 -1 forward_v I I I I #
face $-1 $72 $73 $26 $-1 $74 reversed single #
loop $-1 $-1 $75 $34 #
plane-surface $-1 -41.416288366264411 -146.31337760867083 128.46558955616661 -1 0 0 0 -0.64278761758704617 0.76604443648966558 forward_v I I I I #
face $-1 $76 $77 $27 $-1 $78 forward single #
loop $-1 $79 $80 $35 #
cone-surface $-1 -56.816661956712657 -38.438787393318265 12.80932144575991 0 0.64278761758704617 -0.76604443648966558 2 0 0 1 I I 0 1 2 forward I I I I #
face $-1 $81 $82 $28 $-1 $83 forward single #
loop $-1 $84 $85 $36 #
cone-surface $-1 -47.576437802443706 -38.438787393318265 12.80932144575991 0 0.64278761758704617 -0.76604443648966558 2 0 0 1 I I 0 1 2 forward I I I I #
face $-1 $86 $87 $29 $-1 $88 reversed single #
loop $-1 $-1 $89 $37 #
plane-surface $-1 43.179430979788378 99.978447278212215 182.07781827196823 1 0 0 0 -0.74314483375859142 -0.66913059716165679 forward_v I I I I #
face $-1 $90 $91 $30 $-1 $92 forward single #
loop $-1 $93 $94 $38 #
cone-surface $-1 53.07178421919977 38.888062483488333 12.241625818737521 0 -0.74314483375859142 -0.66913059716165679 3 0 0 1 I I 0 1 3 forward I I I I #
face $-1 $95 $96 $31 $-1 $97 forward single #
loop $-1 $98 $99 $39 #
cone-surface $-1 67.910314078316844 38.888062483488333 12.241625818737521 0 -0.74314483375859142 -0.66913059716165679 3 0 0 1 I I 0 1 3 forward I I I I #
face $-1 $100 $101 $24 $-1 $102 reversed single #
loop $-1 $-1 $103 $40 #
plane-surface $-1 0 0 -19.927951587393974 0 0 1 1 0 0 forward_v I I I I #
coedge $-1 $104 $105 $106 $107 forward $41 $-1 #
face $-1 $108 $109 $25 $-1 $110 reversed single #
loop $-1 $-1 $111 $43 #
plane-surface $-1 0 0 -19.927951587393974 0 0 1 1 0 0 forward_v I I I I #
coedge $-1 $112 $113 $114 $115 forward $44 $-1 #
face $-1 $116 $117 $26 $-1 $118 reversed single #
loop $-1 $-1 $119 $46 #
plane-surface $-1 -52.196549879578185 -46.292195274510732 9.264988670562559 0 -0.64278761758704617 0.76604443648966558 1 0 0 forward_v I I I I #
coedge $-1 $120 $121 $122 $123 reversed $47 $-1 #
face $-1 $-1 $124 $27 $-1 $125 forward single #
loop $-1 $126 $127 $49 #
cone-surface $-1 -56.816661956712657 -36.296403943374756 10.256128326051883 0 0.64278761758704617 -0.76604443648966558 1 0 0 1 I I -0.70710678118654746 0.70710678118654746 1 forward I I I I #
loop $-1 $-1 $128 $35 #
coedge $-1 $80 $80 $129 $130 reversed $50 $-1 #
face $-1 $-1 $131 $28 $-1 $132 forward single #
loop $-1 $133 $134 $52 #
cone-surface $-1 -47.576437802443706 -36.296403943374756 10.256128326051883 0 0.64278761758704617 -0.76604443648966558 1 0 0 1 I I -0.70710678118654746 0.70710678118654746 1 forward I I I I #
loop $-1 $-1 $135 $36 #
coedge $-1 $85 $85 $136 $137 reversed $53 $-1 #
face $-1 $138 $139 $29 $-1 $140 reversed single #
loop $-1 $-1 $141 $55 #
plane-surface $-1 60.491049148758293 -15.658853261404033 77.957527785805837 0 0.74314483375859142 0.66913059716165679 1 0 0 forward_v I I I I #
coedge $-1 $142 $143 $144 $145 reversed $56 $-1 #
face $-1 $-1 $146 $30 $-1 $147 forward single #
loop $-1 $148 $149 $58 #
cone-surface $-1 53.07178421919977 35.219704811027199 8.9386218167291638 0 -0.74314483375859142 -0.66913059716165679 1.5 0 0 1 I I -0.70710678118654757 0.70710678118654757 1.5 forward I I I I #
loop $-1 $-1 $150 $38 #
coedge $-1 $94 $94 $151 $152 reversed $59 $-1 #
face $-1 $-1 $153 $31 $-1 $154 forward single #
loop $-1 $155 $156 $61 #
cone-surface $-1 67.910314078316844 35.219704811027199 8.9386218167291638 0 -0.74314483375859142 -0.66913059716165679 1.5 0 0 1 I I -0.70710678118654757 0.70710678118654757 1.5 forward I I I I #
loop $-1 $-1 $157 $39 #
coedge $-1 $99 $99 $158 $159 reversed $62 $-1 #
face $-1 $160 $161 $24 $-1 $162 reversed single #
loop $-1 $-1 $163 $64 #
plane-surface $-1 0 -46.292195274510718 0 0 1 0 0 0 1 forward_v I I I I #
coedge $-1 $164 $165 $166 $167 forward $65 $-1 #
coedge $-1 $168 $67 $169 $170 forward $41 $-1 #
coedge $-1 $67 $168 $171 $172 forward $41 $-1 #
coedge $-1 $173 $174 $67 $107 reversed $175 $-1 #
edge $-1 $176 -46.292195274510718 $177 46.292195274510718 $106 $178 forward 7 unknown #
face $-1 $179 $180 $25 $-1 $181 reversed single #
loop $-1 $-1 $182 $68 #
plane-surface $-1 -85.215595280146331 -10.497295668241843 0 0 1 0 0 0 1 forward_v I I I I #
coedge $-1 $183 $184 $113 $185 forward $69 $-1 #
coedge $-1 $186 $71 $187 $188 reversed $44 $-1 #
coedge $-1 $71 $186 $111 $185 reversed $44 $-1 #
coedge $-1 $189 $190 $71 $115 reversed $191 $-1 #
edge $-1 $192 -19.927951587393974 $193 19.927951587393974 $114 $194 forward 7 unknown #
face $-1 $195 $196 $26 $-1 $197 forward single #
loop $-1 $-1 $198 $72 #
plane-surface $-1 -62.97681139289196 -146.31337760867083 128.46558955616661 1 0 0 0 0.64278761758704617 -0.76604443648966558 forward_v I I I I #
coedge $-1 $199 $200 $201 $202 reversed $73 $-1 #
coedge $-1 $121 $75 $203 $204 reversed $47 $-1 #
coedge $-1 $75 $120 $199 $205 reversed $47 $-1 #
coedge $-1 $201 $206 $75 $123 forward $196 $-1 #
edge $-1 $207 26.864493529824699 $208 39.572117627496688 $122 $209 forward 7 unknown #
loop $-1 $-1 $129 $76 #
plane-surface $-1 -52.196549879578185 -46.292195274510732 9.264988670562559 0 -0.64278761758704617 0.76604443648966558 1 0 0 forward_v I I I I #
loop $-1 $-1 $210 $49 #
coedge $-1 $127 $127 $128 $211 reversed $77 $-1 #
coedge $-1 $128 $128 $127 $211 forward $79 $-1 #
coedge $-1 $129 $129 $80 $130 forward $124 $-1 #
edge $-1 $212 -5.7091009039127109e-016 $212 6.2831853071795996 $129 $213 forward 7 unknown #
loop $-1 $-1 $136 $81 #
plane-surface $-1 -52.196549879578185 -46.292195274510732 9.264988670562559 0 -0.64278761758704617 0.76604443648966558 1 0 0 forward_v I I I I #
loop $-1 $-1 $214 $52 #
coedge $-1 $134 $134 $135 $215 reversed $82 $-1 #
coedge $-1 $135 $135 $134 $215 forward $84 $-1 #
coedge $-1 $136 $136 $85 $137 forward $131 $-1 #
edge $-1 $216 -5.7091009039127109e-016 $216 6.2831853071795996 $136 $217 forward 7 unknown #
face $-1 $218 $219 $29 $-1 $220 forward single #
loop $-1 $-1 $221 $86 #
plane-surface $-1 0 46.292195274510718 0 0 -1 0 0 0 -1 forward_v I I I I #
coedge $-1 $222 $223 $224 $225 reversed $87 $-1 #
coedge $-1 $143 $89 $226 $227 reversed $56 $-1 #
coedge $-1 $89 $142 $222 $228 reversed $56 $-1 #
coedge $-1 $224 $229 $89 $145 forward $219 $-1 #
edge $-1 $230 3.6970283645953899 $231 13.398013102993644 $144 $232 forward 7 unknown #
loop $-1 $-1 $151 $90 #
plane-surface $-1 60.491049148758293 -15.658853261404033 77.957527785805837 0 0.74314483375859142 0.66913059716165679 1 0 0 forward_v I I I I #
loop $-1 $-1 $233 $58 #
coedge $-1 $149 $149 $150 $234 reversed $91 $-1 #
coedge $-1 $150 $150 $149 $234 forward $93 $-1 #
coedge $-1 $151 $151 $94 $152 forward $146 $-1 #
edge $-1 $235 -7.0475934488541969e-016 $235 6.2831853071795996 $151 $236 forward 7 unknown #
loop $-1 $-1 $158 $95 #
plane-surface $-1 60.491049148758293 -15.658853261404033 77.957527785805837 0 0.74314483375859142 0.66913059716165679 1 0 0 forward_v I I I I #
loop $-1 $-1 $237 $61 #
coedge $-1 $156 $156 $157 $238 reversed $96 $-1 #
coedge $-1 $157 $157 $156 $238 forward $98 $-1 #
coedge $-1 $158 $158 $99 $159 forward $153 $-1 #
edge $-1 $239 -7.0475934488541969e-016 $239 6.2831853071795996 $158 $240 forward 7 unknown #
face $-1 $241 $242 $24 $-1 $243 reversed single #
loop $-1 $-1 $244 $100 #
plane-surface $-1 -77.802667317728208 0 0 1 0 0 0 0 -1 forward_v I I I I #
coedge $-1 $245 $171 $246 $247 forward $101 $-1 #
coedge $-1 $248 $103 $245 $249 forward $65 $-1 #
coedge $-1 $103 $248 $250 $251 forward $65 $-1 #
coedge $-1 $174 $173 $103 $167 reversed $175 $-1 #
edge $-1 $252 -46.292195274510718 $253 46.292195274510718 $166 $254 forward 7 unknown #
coedge $-1 $105 $104 $255 $256 forward $41 $-1 #
coedge $-1 $257 $258 $104 $170 reversed $242 $-1 #
edge $-1 $177 -77.802667317728208 $259 77.802667317728208 $169 $260 forward 7 unknown #
coedge $-1 $163 $261 $105 $172 reversed $101 $-1 #
edge $-1 $262 -77.802667317728208 $176 77.802667317728208 $171 $263 forward 7 unknown #
coedge $-1 $166 $106 $261 $264 forward $175 $-1 #
coedge $-1 $106 $166 $257 $265 reversed $175 $-1 #
loop $-1 $-1 $173 $241 #
vertex $-1 $107 $266 #
vertex $-1 $107 $267 #
straight-curve $-1 77.802667317728208 0 19.927951587393974 0 1 0 I I #
face $-1 $268 $191 $25 $-1 $269 reversed single #
loop $-1 $-1 $270 $108 #
plane-surface $-1 -92.628523242564455 -8.4667938839823051 0 1 0 0 0 0 -1 forward_v I I I I #
coedge $-1 $271 $272 $273 $274 forward $109 $-1 #
coedge $-1 $275 $111 $271 $276 forward $69 $-1 #
coedge $-1 $111 $275 $189 $277 forward $69 $-1 #
edge $-1 $192 6.4362920997227668 $278 10.497295668241843 $111 $279 forward 7 unknown #
coedge $-1 $113 $112 $280 $281 forward $44 $-1 #
coedge $-1 $282 $283 $112 $188 forward $284 $-1 #
edge $-1 $285 -10.497295668241843 $193 -6.4362920997227668 $187 $286 forward 7 unknown #
coedge $-1 $287 $114 $184 $277 reversed $191 $-1 #
coedge $-1 $114 $287 $282 $288 reversed $191 $-1 #
loop $-1 $-1 $114 $179 #
vertex $-1 $185 $289 #
vertex $-1 $288 $290 #
straight-curve $-1 -77.802667317728208 -6.4362920997227668 0 0 0 1 I I #
face $-1 $-1 $291 $26 $-1 $292 reversed single #
loop $-1 $-1 $122 $116 #
plane-surface $-1 0 0 19.927951587393974 0 0 1 1 0 0 forward_v I I I I #
coedge $-1 $293 $294 $295 $296 reversed $117 $-1 #
coedge $-1 $297 $119 $121 $205 forward $73 $-1 #
coedge $-1 $119 $297 $293 $298 forward $73 $-1 #
coedge $-1 $295 $122 $119 $202 forward $196 $-1 #
edge $-1 $208 15.318013426475318 $299 36.878536453102868 $201 $300 forward 7 unknown #
coedge $-1 $301 $302 $120 $204 forward $291 $-1 #
edge $-1 $303 -54.96780610752073 $207 -44.304843190689326 $203 $304 forward 7 unknown #
edge $-1 $208 -16.588625270752729 $303 -1.8878887457821222e-014 $121 $305 forward 7 unknown #
coedge $-1 $122 $295 $301 $306 forward $196 $-1 #
vertex $-1 $123 $307 #
vertex $-1 $123 $308 #
straight-curve $-1 -41.416288366264411 -73.156688804335417 19.927951587393977 0 1 0 I I #
coedge $-1 $210 $210 $-1 $309 reversed $126 $-1 #
edge $-1 $310 0 $310 6.2831853071796004 $127 $311 forward 7 unknown #
vertex $-1 $130 $312 #
ellipse-curve $-1 -56.816661956712657 -39.938383225674727 14.59647012897827 0 -0.64278761758704617 0.76604443648966558 2 0 0 1 I I #
coedge $-1 $214 $214 $-1 $313 reversed $133 $-1 #
edge $-1 $314 0 $314 6.2831853071796004 $134 $315 forward 7 unknown #
vertex $-1 $137 $316 #
ellipse-curve $-1 -47.576437802443706 -39.938383225674727 14.59647012897827 0 -0.64278761758704617 0.76604443648966558 2 0 0 1 I I #
face $-1 $-1 $317 $29 $-1 $318 reversed single #
loop $-1 $-1 $224 $138 #
plane-surface $-1 0 0 19.927951587393974 0 0 1 1 0 0 forward_v I I I I #
coedge $-1 $226 $319 $320 $321 forward $139 $-1 #
coedge $-1 $320 $141 $143 $228 forward $87 $-1 #
coedge $-1 $141 $320 $322 $323 reversed $87 $-1 #
coedge $-1 $324 $144 $141 $225 forward $219 $-1 #
edge $-1 $231 12.933906405409232 $325 47.557142743349061 $224 $326 forward 7 unknown #
coedge $-1 $327 $221 $142 $227 forward $139 $-1 #
edge $-1 $328 -81.884992873371289 $230 -71.110957548590136 $226 $329 forward 7 unknown #
edge $-1 $231 78.086496147617169 $328 92.584390549021407 $143 $330 forward 7 unknown #
coedge $-1 $144 $324 $327 $331 forward $219 $-1 #
vertex $-1 $227 $332 #
vertex $-1 $145 $333 #
straight-curve $-1 43.179430979788378 49.989223639106108 19.927951587393977 0 -1 0 I I #
coedge $-1 $233 $233 $-1 $334 reversed $148 $-1 #
edge $-1 $335 0 $335 6.2831853071796004 $149 $336 forward 7 unknown #
vertex $-1 $152 $337 #
ellipse-curve $-1 53.07178421919977 41.441702905311587 14.540933925003401 0 0.74314483375859142 0.66913059716165679 3 0 0 1 I I #
coedge $-1 $237 $237 $-1 $338 reversed $155 $-1 #
edge $-1 $339 0 $339 6.2831853071796004 $156 $340 forward 7 unknown #
vertex $-1 $159 $341 #
ellipse-curve $-1 67.910314078316844 41.441702905311587 14.540933925003401 0 0.74314483375859142 0.66913059716165679 3 0 0 1 I I #
face $-1 $-1 $175 $24 $-1 $342 reversed single #
loop $-1 $-1 $257 $160 #
plane-surface $-1 0 46.292195274510718 0 0 -1 0 0 0 -1 forward_v I I I I #
coedge $-1 $343 $255 $258 $344 forward $161 $-1 #
coedge $-1 $261 $163 $164 $249 reversed $101 $-1 #
coedge $-1 $255 $343 $163 $247 reversed $161 $-1 #
edge $-1 $262 -19.927951587393974 $345 19.927951587393974 $246 $346 forward 7 unknown #
coedge $-1 $165 $164 $343 $347 forward $65 $-1 #
edge $-1 $253 -77.802667317728208 $345 77.802667317728208 $245 $348 forward 7 unknown #
coedge $-1 $258 $257 $165 $251 reversed $242 $-1 #
edge $-1 $349 -77.802667317728208 $252 77.802667317728208 $250 $350 forward 7 unknown #
vertex $-1 $167 $351 #
vertex $-1 $264 $352 #
straight-curve $-1 77.802667317728208 0 -19.927951587393974 0 -1 0 I I #
coedge $-1 $244 $246 $168 $256 reversed $161 $-1 #
edge $-1 $259 -46.292195274510718 $262 46.292195274510718 $255 $353 forward 7 unknown #
coedge $-1 $250 $169 $174 $265 forward $242 $-1 #
coedge $-1 $169 $250 $244 $344 reversed $242 $-1 #
vertex $-1 $170 $354 #
straight-curve $-1 0 46.292195274510718 19.927951587393974 -1 0 0 I I #
coedge $-1 $171 $245 $173 $264 reversed $101 $-1 #
vertex $-1 $256 $355 #
straight-curve $-1 0 -46.292195274510718 19.927951587393974 1 0 0 I I #
edge $-1 $176 -19.927951587393974 $253 19.927951587393974 $173 $356 forward 7 unknown #
edge $-1 $177 -19.927951587393974 $252 19.927951587393974 $174 $357 forward 7 unknown #
point $-1 77.802667317728208 -46.292195274510718 19.927951587393974 #
point $-1 77.802667317728208 46.292195274510718 19.927951587393974 #
face $-1 $-1 $284 $25 $-1 $358 forward single #
plane-surface $-1 -85.215595280146331 -6.4362920997227668 0 0 -1 0 0 0 -1 forward_v I I I I #
coedge $-1 $359 $360 $287 $361 forward $180 $-1 #
coedge $-1 $280 $182 $183 $276 reversed $109 $-1 #
coedge $-1 $182 $280 $283 $362 reversed $109 $-1 #
coedge $-1 $360 $359 $182 $274 reversed $180 $-1 #
edge $-1 $363 -19.927951587393974 $364 19.927951587393974 $273 $365 forward 7 unknown #
coedge $-1 $184 $183 $359 $366 forward $69 $-1 #
edge $-1 $278 -7.4129279624181237 $364 7.4129279624181237 $271 $367 forward 7 unknown #
edge $-1 $368 -7.4129279624181237 $192 7.4129279624181237 $189 $369 forward 7 unknown #
vertex $-1 $276 $370 #
straight-curve $-1 -77.802667317728208 0 -19.927951587393974 0 -1 0 I I #
coedge $-1 $272 $271 $186 $281 reversed $109 $-1 #
edge $-1 $285 -19.927951587393974 $278 19.927951587393974 $280 $371 forward 7 unknown #
coedge $-1 $372 $187 $190 $288 forward $284 $-1 #
coedge $-1 $187 $372 $272 $362 forward $284 $-1 #
loop $-1 $-1 $187 $268 #
vertex $-1 $188 $373 #
straight-curve $-1 -77.802667317728208 0 19.927951587393974 0 1 0 I I #
coedge $-1 $190 $189 $270 $361 reversed $191 $-1 #
edge $-1 $193 -7.4129279624181237 $374 7.4129279624181237 $190 $375 forward 7 unknown #
point $-1 -77.802667317728208 -6.4362920997227668 -19.927951587393974 #
point $-1 -77.802667317728208 -6.4362920997227668 19.927951587393974 #
loop $-1 $-1 $203 $195 #
plane-surface $-1 0 -46.292195274510718 0 0 1 0 0 0 1 forward_v I I I I #
coedge $-1 $294 $198 $200 $298 reversed $117 $-1 #
coedge $-1 $198 $293 $376 $377 reversed $117 $-1 #
coedge $-1 $206 $201 $198 $296 forward $196 $-1 #
edge $-1 $299 -39.572117627496688 $378 -26.864493529824699 $295 $379 forward 7 unknown #
coedge $-1 $200 $199 $302 $380 reversed $73 $-1 #
edge $-1 $381 1.8878887457821222e-014 $299 16.588625270752729 $293 $382 forward 7 unknown #
vertex $-1 $202 $383 #
straight-curve $-1 -26.098274939789093 -33.584571176838729 19.927951587393974 -1 0 0 I I #
coedge $-1 $376 $203 $206 $306 reversed $291 $-1 #
coedge $-1 $203 $376 $297 $380 forward $291 $-1 #
vertex $-1 $204 $384 #
straight-curve $-1 -41.416288366264411 -46.292195274510718 64.232794778083303 0 0 1 I I #
straight-curve $-1 -41.416288366264411 -46.292195274510732 9.264988670562559 0 -0.76604443648966558 -0.64278761758704617 I I #
edge $-1 $378 -62.97681139289196 $207 -41.416288366264411 $301 $385 forward 7 unknown #
point $-1 -41.416288366264411 -46.292195274510718 19.927951587393974 #
point $-1 -41.416288366264411 -33.584571176838729 19.927951587393974 #
edge $-1 $386 1 $386 0 $210 $-1 forward 7 unknown #
vertex $-1 $211 $387 #
ellipse-curve $-1 -56.816661956712657 -36.939191560961802 11.022172762541548 0 -0.64278761758704617 0.76604443648966558 2 0 0 1 I I #
point $-1 -54.816661956712657 -39.938383225674727 14.596470128978268 #
edge $-1 $388 1 $388 0 $214 $-1 forward 7 unknown #
vertex $-1 $215 $389 #
ellipse-curve $-1 -47.576437802443706 -36.939191560961802 11.022172762541548 0 -0.64278761758704617 0.76604443648966558 2 0 0 1 I I #
point $-1 -45.576437802443706 -39.938383225674727 14.596470128978268 #
loop $-1 $-1 $322 $218 #
plane-surface $-1 77.802667317728208 0 0 -1 0 0 0 0 1 forward_v I I I I #
coedge $-1 $221 $327 $390 $391 forward $139 $-1 #
coedge $-1 $223 $222 $221 $321 reversed $87 $-1 #
edge $-1 $392 -47.557142743349061 $328 -12.933906405409232 $221 $393 forward 7 unknown #
coedge $-1 $390 $394 $223 $323 forward $317 $-1 #
edge $-1 $325 43.880720217475428 $392 58.378614618879652 $322 $395 forward 7 unknown #
coedge $-1 $229 $224 $394 $396 forward $219 $-1 #
vertex $-1 $396 $397 #
straight-curve $-1 30.245524574379147 36.591210536112463 19.92795158739397 1 0 0 I I #
coedge $-1 $319 $226 $229 $331 reversed $139 $-1 #
vertex $-1 $227 $398 #
straight-curve $-1 43.179430979788378 46.292195274510718 91.038909135984113 0 0 1 I I #
straight-curve $-1 43.179430979788378 -15.658853261404033 77.957527785805837 0 0.66913059716165679 -0.74314483375859142 I I #
edge $-1 $399 -77.802667317728208 $230 -43.179430979788378 $327 $400 forward 7 unknown #
point $-1 43.179430979788378 46.292195274510718 19.927951587393974 #
point $-1 43.179430979788378 36.591210536112463 19.927951587393977 #
edge $-1 $401 1 $401 0 $233 $-1 forward 7 unknown #
vertex $-1 $234 $402 #
ellipse-curve $-1 53.07178421919977 36.334422061665087 9.9423177124716489 0 0.74314483375859142 0.66913059716165679 3 0 0 1 I I #
point $-1 56.07178421919977 41.44170290531158 14.540933925003397 #
edge $-1 $403 1 $403 0 $237 $-1 forward 7 unknown #
vertex $-1 $238 $404 #
ellipse-curve $-1 67.910314078316844 36.334422061665087 9.9423177124716489 0 0.74314483375859142 0.66913059716165679 3 0 0 1 I I #
point $-1 70.910314078316844 41.44170290531158 14.540933925003397 #
plane-surface $-1 77.802667317728208 0 0 -1 0 0 0 0 1 forward_v I I I I #
coedge $-1 $246 $244 $248 $347 reversed $161 $-1 #
edge $-1 $259 -19.927951587393974 $349 19.927951587393974 $258 $405 forward 7 unknown #
vertex $-1 $347 $406 #
straight-curve $-1 -77.802667317728208 -46.292195274510718 0 0 0 -1 I I #
edge $-1 $345 -46.292195274510718 $349 46.292195274510718 $343 $407 forward 7 unknown #
straight-curve $-1 0 -46.292195274510718 -19.927951587393974 -1 0 0 I I #
vertex $-1 $251 $408 #
straight-curve $-1 0 46.292195274510718 -19.927951587393974 1 0 0 I I #
point $-1 77.802667317728208 46.292195274510718 -19.927951587393974 #
point $-1 77.802667317728208 -46.292195274510718 -19.927951587393974 #
straight-curve $-1 -77.802667317728208 0 19.927951587393974 0 -1 0 I I #
point $-1 -77.802667317728208 46.292195274510718 19.927951587393974 #
point $-1 -77.802667317728208 -46.292195274510718 19.927951587393974 #
straight-curve $-1 77.802667317728208 -46.292195274510718 0 0 0 -1 I I #
straight-curve $-1 77.802667317728208 46.292195274510718 0 0 0 -1 I I #
plane-surface $-1 0 0 19.927951587393974 0 0 1 1 0 0 forward_v I I I I #
coedge $-1 $273 $270 $275 $366 reversed $180 $-1 #
coedge $-1 $270 $273 $372 $409 reversed $180 $-1 #
edge $-1 $374 -19.927951587393974 $368 19.927951587393974 $287 $410 forward 7 unknown #
edge $-1 $363 -7.4129279624181237 $285 7.4129279624181237 $272 $411 forward 7 unknown #
vertex $-1 $409 $412 #
vertex $-1 $366 $413 #
straight-curve $-1 -92.628523242564455 -10.497295668241843 0 0 0 -1 I I #
edge $-1 $364 -2.0305017842595383 $368 2.0305017842595383 $359 $414 forward 7 unknown #
straight-curve $-1 -85.215595280146331 -10.497295668241843 -19.927951587393974 -1 0 0 I I #
vertex $-1 $277 $415 #
straight-curve $-1 -85.215595280146331 -6.4362920997227668 -19.927951587393974 1 0 0 I I #
point $-1 -77.802667317728208 -10.497295668241843 -19.927951587393974 #
straight-curve $-1 -77.802667317728208 -10.497295668241843 0 0 0 -1 I I #
coedge $-1 $283 $282 $360 $409 forward $284 $-1 #
point $-1 -77.802667317728208 -10.497295668241843 19.927951587393974 #
vertex $-1 $288 $416 #
straight-curve $-1 -85.215595280146331 -6.4362920997227668 19.927951587393974 -1 0 0 I I #
coedge $-1 $302 $301 $294 $377 forward $291 $-1 #
edge $-1 $378 44.304843190689326 $381 54.96780610752073 $376 $417 forward 7 unknown #
vertex $-1 $306 $418 #
straight-curve $-1 -62.97681139289196 -73.156688804335417 19.927951587393977 0 -1 0 I I #
edge $-1 $381 -36.878536453102868 $303 -15.318013426475318 $302 $419 forward 7 unknown #
vertex $-1 $380 $420 #
straight-curve $-1 -62.97681139289196 -46.292195274510732 9.264988670562559 0 0.76604443648966558 0.64278761758704617 I I #
point $-1 -62.97681139289196 -33.584571176838729 19.927951587393974 #
point $-1 -41.416288366264411 -46.292195274510718 9.2649886705625715 #
straight-curve $-1 0 -46.292195274510718 19.927951587393974 1 0 0 I I #
vertex $-1 $309 $421 #
point $-1 -54.816661956712657 -36.939191560961802 11.022172762541548 #
vertex $-1 $313 $422 #
point $-1 -45.576437802443706 -36.939191560961802 11.022172762541548 #
coedge $-1 $394 $322 $319 $391 reversed $317 $-1 #
edge $-1 $399 -19.927951587393974 $392 -9.1539162626128245 $390 $423 forward 7 unknown #
vertex $-1 $323 $424 #
straight-curve $-1 30.245524574379147 46.292195274510718 9.1539162626128174 -1 0 0 I I #
coedge $-1 $322 $390 $324 $396 reversed $317 $-1 #
straight-curve $-1 77.802667317728208 7.2292780131095391 52.53768211861702 0 0.66913059716165679 -0.74314483375859142 I I #
edge $-1 $325 36.591210536112463 $399 46.292195274510718 $394 $425 forward 7 unknown #
point $-1 77.802667317728208 36.591210536112463 19.927951587393977 #
point $-1 43.179430979788378 46.292195274510718 9.1539162626128245 #
vertex $-1 $396 $426 #
straight-curve $-1 0 46.292195274510718 19.927951587393974 -1 0 0 I I #
vertex $-1 $334 $427 #
point $-1 56.07178421919977 36.334422061665087 9.9423177124716489 #
vertex $-1 $338 $428 #
point $-1 70.910314078316844 36.334422061665087 9.9423177124716489 #
straight-curve $-1 -77.802667317728208 46.292195274510718 0 0 0 -1 I I #
point $-1 -77.802667317728208 -46.292195274510718 -19.927951587393974 #
straight-curve $-1 -77.802667317728208 0 -19.927951587393974 0 1 0 I I #
point $-1 -77.802667317728208 46.292195274510718 -19.927951587393974 #
edge $-1 $374 -2.0305017842595383 $363 2.0305017842595383 $360 $429 forward 7 unknown #
straight-curve $-1 -92.628523242564455 -6.4362920997227668 0 0 0 -1 I I #
straight-curve $-1 -85.215595280146331 -10.497295668241843 19.927951587393974 1 0 0 I I #
point $-1 -92.628523242564455 -10.497295668241843 19.927951587393974 #
point $-1 -92.628523242564455 -10.497295668241843 -19.927951587393974 #
straight-curve $-1 -92.628523242564455 -8.4667938839823051 -19.927951587393974 0 1 0 I I #
point $-1 -92.628523242564455 -6.4362920997227668 -19.927951587393974 #
point $-1 -92.628523242564455 -6.4362920997227668 19.927951587393974 #
straight-curve $-1 -62.97681139289196 -46.292195274510718 64.232794778083303 0 0 -1 I I #
point $-1 -62.97681139289196 -46.292195274510718 19.927951587393974 #
straight-curve $-1 -26.098274939789093 -46.292195274510718 9.2649886705625697 1 0 0 I I #
point $-1 -62.97681139289196 -46.292195274510718 9.2649886705625715 #
point $-1 -56.816661956712657 -35.653616325787709 9.4900838895622179 #
point $-1 -47.576437802443706 -35.653616325787709 9.4900838895622179 #
straight-curve $-1 77.802667317728208 46.292195274510718 0 0 0 -1 I I #
point $-1 77.802667317728208 46.292195274510718 9.1539162626128245 #
straight-curve $-1 77.802667317728208 0 19.927951587393974 0 1 0 I I #
point $-1 77.802667317728208 46.292195274510718 19.927951587393974 #
point $-1 53.07178421919977 34.104987560389311 7.9349259209866787 #
point $-1 67.910314078316844 34.104987560389311 7.9349259209866787 #
straight-curve $-1 -92.628523242564455 -8.4667938839823051 19.927951587393974 0 -1 0 I I #
End-of-ACIS-data 