500 0 8 0           
7 Unknown 11 ACIS 5.0 NT 24 Thu Mar 25 18:51:25 1999 
-1 9.9999999999999995e-007 1e-010 
body $-1 $8 $-1 $9 #
body $-1 $10 $-1 $11 #
body $-1 $12 $-1 $13 #
body $-1 $14 $-1 $15 #
body $-1 $16 $-1 $17 #
body $-1 $18 $-1 $19 #
body $-1 $20 $-1 $21 #
body $-1 $22 $-1 $23 #
lump $-1 $-1 $24 $0 #
transform $-1 1 0 0 0 1 0 0 0 1 66.944181646168403 33.188108729855728 16.175341509038635 1 rotate no_reflect no_shear #
lump $-1 $-1 $25 $1 #
transform $-1 1 0 0 0 1 0 0 0 1 66.944181646168403 33.188108729855728 16.175341509038635 1 rotate no_reflect no_shear #
lump $-1 $-1 $26 $2 #
transform $-1 1 0 0 0 1 0 0 0 1 66.944181646168403 33.188108729855728 16.175341509038635 1 rotate no_reflect no_shear #
lump $-1 $-1 $27 $3 #
transform $-1 1 0 0 0 1 0 0 0 1 66.944181646168403 33.188108729855728 16.175341509038635 1 rotate no_reflect no_shear #
lump $-1 $-1 $28 $4 #
transform $-1 1 0 0 0 1 0 0 0 1 66.944181646168403 33.188108729855728 16.175341509038635 1 rotate no_reflect no_shear #
lump $-1 $-1 $29 $5 #
transform $-1 1 0 0 0 1 0 0 0 1 66.944181646168403 33.188108729855728 16.175341509038635 1 rotate no_reflect no_shear #
lump $-1 $-1 $30 $6 #
transform $-1 1 0 0 0 1 0 0 0 1 66.944181646168403 33.188108729855728 16.175341509038635 1 rotate no_reflect no_shear #
lump $-1 $-1 $31 $7 #
transform $-1 1 0 0 0 1 0 0 0 1 66.944181646168403 33.188108729855728 16.175341509038635 1 rotate no_reflect no_shear #
shell $-1 $-1 $-1 $32 $-1 $8 #
shell $-1 $-1 $-1 $33 $-1 $10 #
shell $-1 $-1 $-1 $34 $-1 $12 #
shell $-1 $-1 $-1 $35 $-1 $14 #
shell $-1 $-1 $-1 $36 $-1 $16 #
shell $-1 $-1 $-1 $37 $-1 $18 #
shell $-1 $-1 $-1 $38 $-1 $20 #
shell $-1 $-1 $-1 $39 $-1 $22 #
face $-1 $40 $41 $24 $-1 $42 forward single #
face $-1 $43 $44 $25 $-1 $45 forward single #
face $-1 $46 $47 $26 $-1 $48 reversed single #
face $-1 $49 $50 $27 $-1 $51 forward single #
face $-1 $52 $53 $28 $-1 $54 forward single #
face $-1 $55 $56 $29 $-1 $57 reversed single #
face $-1 $58 $59 $30 $-1 $60 forward single #
face $-1 $61 $62 $31 $-1 $63 forward single #
face $-1 $64 $65 $24 $-1 $66 reversed single #
loop $-1 $-1 $67 $32 #
plane-surface $-1 0 0 16.175341509038635 0 0 1 1 0 0 forward_v I I I I #
face $-1 $68 $69 $25 $-1 $70 reversed single #
loop $-1 $-1 $71 $33 #
plane-surface $-1 0 -23.244960883035048 -0.8006699782061597 0 0 1 1 0 0 forward_v I I I I #
face $-1 $72 $73 $26 $-1 $74 reversed single #
loop $-1 $-1 $75 $34 #
plane-surface $-1 -172.44965280850346 -13.301813036214375 90.126344709754989 0 1 0 -0.78801076186113728 0 0.61566146476048833 forward_v I I I I #
face $-1 $76 $77 $27 $-1 $78 forward single #
loop $-1 $79 $80 $35 #
cone-surface $-1 -62.290162223228776 -10.1878527458015 10.887563400067435 0.78801076186113728 0 -0.61566146476048833 0.61566146476048833 0 0.78801076186113728 1 I I 0 1 1 forward I I I I #
face $-1 $81 $82 $28 $-1 $83 forward single #
loop $-1 $84 $85 $36 #
cone-surface $-1 -62.290162223228776 -5.5169123101821924 10.887563400067435 0.78801076186113728 0 -0.61566146476048833 0.61566146476048833 0 0.78801076186113728 1 I I 0 1 1 forward I I I I #
face $-1 $86 $87 $29 $-1 $88 reversed single #
loop $-1 $-1 $89 $37 #
plane-surface $-1 -34.102647882343732 26.632984505410967 97.063058315530697 0.6560590369687036 0 0.75470957328743171 0.75470957328743171 0 -0.6560590369687036 forward_v I I I I #
face $-1 $90 $91 $30 $-1 $92 forward single #
loop $-1 $93 $94 $38 #
cone-surface $-1 61.703631119846833 23.823645552077501 11.27056436254842 -0.6560590369687036 0 -0.75470957328743171 0.75470957328743171 0 -0.6560590369687036 1 I I 0 1 1 forward I I I I #
face $-1 $95 $96 $31 $-1 $97 forward single #
loop $-1 $98 $99 $39 #
cone-surface $-1 61.703631119846833 29.44232345874444 11.27056436254842 -0.6560590369687036 0 -0.75470957328743171 0.75470957328743171 0 -0.6560590369687036 1 I I 0 1 1 forward I I I I #
face $-1 $100 $101 $24 $-1 $102 reversed single #
loop $-1 $-1 $103 $40 #
plane-surface $-1 0 0 -16.175341509038635 0 0 1 1 0 0 forward_v I I I I #
coedge $-1 $104 $105 $106 $107 forward $41 $-1 #
face $-1 $108 $109 $25 $-1 $110 reversed single #
loop $-1 $-1 $111 $43 #
plane-surface $-1 0 -23.244960883035048 -6.538925075388291 0 0 1 1 0 0 forward_v I I I I #
coedge $-1 $112 $113 $114 $115 reversed $44 $-1 #
face $-1 $116 $117 $26 $-1 $118 reversed single #
loop $-1 $-1 $119 $46 #
plane-surface $-1 -66.944181646168403 -7.8523825279918498 7.6964388508105088 -0.78801076186113728 0 0.61566146476048833 0.61566146476048833 0 0.78801076186113728 forward_v I I I I #
coedge $-1 $120 $121 $122 $123 reversed $47 $-1 #
face $-1 $-1 $124 $27 $-1 $125 forward single #
loop $-1 $126 $127 $49 #
cone-surface $-1 -60.554359715534659 -10.1878527458015 9.5314058878300472 0.78801076186113728 0 -0.61566146476048833 0.30783073238024417 0 0.39400538093056864 1 I I -0.70710678118654746 0.70710678118654746 0.5 forward I I I I #
loop $-1 $-1 $128 $35 #
coedge $-1 $80 $80 $129 $130 reversed $50 $-1 #
face $-1 $-1 $131 $28 $-1 $132 forward single #
loop $-1 $133 $134 $52 #
cone-surface $-1 -60.554359715534659 -5.5169123101821924 9.5314058878300472 0.78801076186113728 0 -0.61566146476048833 0.30783073238024417 0 0.39400538093056864 1 I I -0.70710678118654746 0.70710678118654746 0.5 forward I I I I #
loop $-1 $-1 $135 $36 #
coedge $-1 $85 $85 $136 $137 reversed $53 $-1 #
face $-1 $138 $139 $29 $-1 $140 forward single #
loop $-1 $-1 $141 $55 #
plane-surface $-1 53.736022800542685 20.077860280966206 198.10988784404285 0 1 0 0.6560590369687036 0 0.75470957328743171 forward_v I I I I #
coedge $-1 $142 $143 $144 $145 reversed $56 $-1 #
face $-1 $-1 $146 $30 $-1 $147 forward single #
loop $-1 $148 $149 $58 #
cone-surface $-1 60.133129859408342 23.823645552077501 9.4639093676116595 -0.6560590369687036 0 -0.75470957328743171 0.37735478664371586 0 -0.3280295184843518 1 I I -0.70710678118654746 0.70710678118654746 0.5 forward I I I I #
loop $-1 $-1 $150 $38 #
coedge $-1 $94 $94 $151 $152 reversed $59 $-1 #
face $-1 $-1 $153 $31 $-1 $154 forward single #
loop $-1 $155 $156 $61 #
cone-surface $-1 60.133129859408342 29.44232345874444 9.4639093676116595 -0.6560590369687036 0 -0.75470957328743171 0.37735478664371586 0 -0.3280295184843518 1 I I -0.70710678118654746 0.70710678118654746 0.5 forward I I I I #
loop $-1 $-1 $157 $39 #
coedge $-1 $99 $99 $158 $159 reversed $62 $-1 #
face $-1 $160 $161 $24 $-1 $162 reversed single #
loop $-1 $-1 $163 $64 #
plane-surface $-1 0 -33.188108729855728 0 0 1 0 0 0 1 forward_v I I I I #
coedge $-1 $164 $165 $166 $167 forward $65 $-1 #
coedge $-1 $168 $67 $169 $170 forward $41 $-1 #
coedge $-1 $67 $168 $171 $172 forward $41 $-1 #
coedge $-1 $173 $174 $67 $107 reversed $175 $-1 #
edge $-1 $176 -33.188108729855728 $177 33.188108729855728 $106 $178 forward 7 unknown #
face $-1 $179 $180 $25 $-1 $181 reversed single #
loop $-1 $-1 $182 $68 #
plane-surface $-1 0 -13.301813036214371 -3.6697975267972254 0 -1 0 0 0 -1 forward_v I I I I #
coedge $-1 $183 $184 $185 $186 reversed $69 $-1 #
coedge $-1 $187 $71 $188 $189 forward $44 $-1 #
coedge $-1 $71 $187 $190 $191 reversed $44 $-1 #
coedge $-1 $192 $193 $71 $115 forward $194 $-1 #
edge $-1 $195 1.6793325946968469 $196 21.565628288338203 $114 $197 forward 7 unknown #
face $-1 $198 $199 $26 $-1 $200 reversed single #
loop $-1 $-1 $201 $72 #
plane-surface $-1 -172.44965280850346 -2.4029520197693248 90.126344709754989 0 -1 0 0.78801076186113728 0 -0.61566146476048833 forward_v I I I I #
coedge $-1 $202 $203 $204 $205 reversed $73 $-1 #
coedge $-1 $121 $75 $206 $207 reversed $47 $-1 #
coedge $-1 $75 $120 $202 $208 reversed $47 $-1 #
coedge $-1 $204 $209 $75 $123 forward $210 $-1 #
edge $-1 $211 19.280644758083326 $212 25.905089350435496 $122 $213 forward 7 unknown #
loop $-1 $-1 $129 $76 #
plane-surface $-1 -66.944181646168403 -7.8523825279918498 7.6964388508105088 -0.78801076186113728 0 0.61566146476048833 0.61566146476048833 0 0.78801076186113728 forward_v I I I I #
loop $-1 $-1 $214 $49 #
coedge $-1 $127 $127 $128 $215 reversed $77 $-1 #
coedge $-1 $128 $128 $127 $215 forward $79 $-1 #
coedge $-1 $129 $129 $80 $130 forward $124 $-1 #
edge $-1 $216 0 $216 6.2831853071796004 $129 $217 forward 7 unknown #
loop $-1 $-1 $136 $81 #
plane-surface $-1 -66.944181646168403 -7.8523825279918498 7.6964388508105088 -0.78801076186113728 0 0.61566146476048833 0.61566146476048833 0 0.78801076186113728 forward_v I I I I #
loop $-1 $-1 $218 $52 #
coedge $-1 $134 $134 $135 $219 reversed $82 $-1 #
coedge $-1 $135 $135 $134 $219 forward $84 $-1 #
coedge $-1 $136 $136 $85 $137 forward $131 $-1 #
edge $-1 $220 0 $220 6.2831853071796004 $136 $221 forward 7 unknown #
face $-1 $222 $223 $29 $-1 $224 reversed single #
loop $-1 $-1 $144 $86 #
plane-surface $-1 0 0 16.175341509038635 0 0 1 1 0 0 forward_v I I I I #
coedge $-1 $225 $226 $227 $228 reversed $87 $-1 #
coedge $-1 $229 $89 $230 $231 reversed $56 $-1 #
coedge $-1 $89 $229 $225 $232 forward $56 $-1 #
coedge $-1 $227 $233 $89 $145 forward $139 $-1 #
edge $-1 $234 -19.871616477150244 $235 -6.7613680282607227 $144 $236 forward 7 unknown #
loop $-1 $-1 $151 $90 #
plane-surface $-1 -34.102647882343732 26.632984505410967 97.063058315530697 0.6560590369687036 0 0.75470957328743171 0.75470957328743171 0 -0.6560590369687036 forward_v I I I I #
loop $-1 $-1 $237 $58 #
coedge $-1 $149 $149 $150 $238 reversed $91 $-1 #
coedge $-1 $150 $150 $149 $238 forward $93 $-1 #
coedge $-1 $151 $151 $94 $152 forward $146 $-1 #
edge $-1 $239 0 $239 6.2831853071796004 $151 $240 forward 7 unknown #
loop $-1 $-1 $158 $95 #
plane-surface $-1 -34.102647882343732 26.632984505410967 97.063058315530697 0.6560590369687036 0 0.75470957328743171 0.75470957328743171 0 -0.6560590369687036 forward_v I I I I #
loop $-1 $-1 $241 $61 #
coedge $-1 $156 $156 $157 $242 reversed $96 $-1 #
coedge $-1 $157 $157 $156 $242 forward $98 $-1 #
coedge $-1 $158 $158 $99 $159 forward $153 $-1 #
edge $-1 $243 0 $243 6.2831853071796004 $158 $244 forward 7 unknown #
face $-1 $245 $246 $24 $-1 $247 reversed single #
loop $-1 $-1 $248 $100 #
plane-surface $-1 -66.944181646168403 0 0 1 0 0 0 0 -1 forward_v I I I I #
coedge $-1 $249 $171 $250 $251 forward $101 $-1 #
coedge $-1 $252 $103 $249 $253 forward $65 $-1 #
coedge $-1 $103 $252 $254 $255 forward $65 $-1 #
coedge $-1 $174 $173 $103 $167 reversed $175 $-1 #
edge $-1 $256 -33.188108729855728 $257 33.188108729855728 $166 $258 forward 7 unknown #
coedge $-1 $105 $104 $259 $260 forward $41 $-1 #
coedge $-1 $261 $262 $104 $170 reversed $246 $-1 #
edge $-1 $177 -66.944181646168403 $263 66.944181646168403 $169 $264 forward 7 unknown #
coedge $-1 $163 $265 $105 $172 reversed $101 $-1 #
edge $-1 $266 -66.944181646168403 $176 66.944181646168403 $171 $267 forward 7 unknown #
coedge $-1 $166 $106 $265 $268 forward $175 $-1 #
coedge $-1 $106 $166 $261 $269 reversed $175 $-1 #
loop $-1 $-1 $173 $245 #
vertex $-1 $107 $270 #
vertex $-1 $107 $271 #
straight-curve $-1 66.944181646168403 0 16.175341509038635 0 1 0 I I #
face $-1 $272 $273 $25 $-1 $274 reversed single #
loop $-1 $-1 $275 $108 #
plane-surface $-1 -66.944181646168403 0 0 1 0 0 0 0 -1 forward_v I I I I #
coedge $-1 $276 $188 $193 $277 reversed $109 $-1 #
coedge $-1 $278 $111 $279 $280 reversed $69 $-1 #
coedge $-1 $111 $278 $276 $281 forward $69 $-1 #
coedge $-1 $193 $192 $111 $186 forward $194 $-1 #
edge $-1 $282 -21.565628288338203 $283 -1.6793325946968469 $185 $284 forward 7 unknown #
coedge $-1 $113 $112 $275 $285 reversed $44 $-1 #
coedge $-1 $182 $286 $112 $189 reversed $109 $-1 #
edge $-1 $195 -66.944181646168403 $287 66.944181646168403 $188 $288 forward 7 unknown #
coedge $-1 $289 $290 $113 $191 forward $273 $-1 #
edge $-1 $196 -66.944181646168403 $291 66.944181646168403 $190 $292 forward 7 unknown #
coedge $-1 $185 $114 $290 $293 forward $194 $-1 #
coedge $-1 $114 $185 $182 $277 forward $194 $-1 #
loop $-1 $-1 $114 $272 #
vertex $-1 $115 $294 #
vertex $-1 $293 $295 #
straight-curve $-1 66.944181646168403 -11.622480441517524 -0.8006699782061597 0 -1 0 I I #
face $-1 $-1 $210 $26 $-1 $296 forward single #
loop $-1 $-1 $297 $116 #
plane-surface $-1 -66.944181646168403 0 0 1 0 0 0 0 -1 forward_v I I I I #
coedge $-1 $298 $299 $300 $301 reversed $117 $-1 #
coedge $-1 $302 $119 $121 $208 forward $73 $-1 #
coedge $-1 $119 $302 $298 $303 forward $73 $-1 #
coedge $-1 $300 $122 $119 $205 forward $210 $-1 #
edge $-1 $212 -9.3756217722184498 $304 1.5232392442266001 $204 $305 forward 7 unknown #
coedge $-1 $306 $307 $120 $207 forward $199 $-1 #
edge $-1 $308 -37.366733504066985 $211 -28.88783084583886 $206 $309 forward 7 unknown #
edge $-1 $212 -10.759881804409002 $308 0 $121 $310 forward 7 unknown #
coedge $-1 $122 $300 $306 $311 forward $210 $-1 #
loop $-1 $-1 $300 $198 #
vertex $-1 $207 $312 #
vertex $-1 $123 $313 #
straight-curve $-1 -86.224826404251729 -13.301813036214375 16.175341509038638 1 0 0 I I #
coedge $-1 $214 $214 $-1 $314 reversed $126 $-1 #
edge $-1 $315 0 $315 6.2831853071796004 $127 $316 forward 7 unknown #
vertex $-1 $130 $317 #
ellipse-curve $-1 -63.631959349992314 -10.1878527458015 11.935890179924572 -0.78801076186113728 0 0.61566146476048833 0.61566146476048833 0 0.78801076186113728 1 I I #
coedge $-1 $218 $218 $-1 $318 reversed $133 $-1 #
edge $-1 $319 0 $319 6.2831853071796004 $134 $320 forward 7 unknown #
vertex $-1 $137 $321 #
ellipse-curve $-1 -63.631959349992314 -5.5169123101821924 11.935890179924572 -0.78801076186113728 0 0.61566146476048833 0.61566146476048833 0 0.78801076186113728 1 I I #
face $-1 $-1 $322 $29 $-1 $323 reversed single #
loop $-1 $-1 $324 $138 #
plane-surface $-1 66.944181646168403 0 0 -1 0 0 0 0 1 forward_v I I I I #
coedge $-1 $226 $141 $143 $232 reversed $87 $-1 #
coedge $-1 $141 $225 $325 $326 reversed $87 $-1 #
coedge $-1 $327 $144 $141 $228 forward $139 $-1 #
edge $-1 $235 32.08001267716223 $328 40.07617024589706 $227 $329 forward 7 unknown #
coedge $-1 $143 $142 $324 $330 reversed $56 $-1 #
coedge $-1 $331 $332 $142 $231 forward $322 $-1 #
edge $-1 $333 -89.180017594847101 $234 -78.58500482204704 $230 $334 forward 7 unknown #
edge $-1 $335 -133.88836329233678 $235 -123.29335051953672 $225 $336 forward 7 unknown #
coedge $-1 $144 $327 $331 $337 forward $139 $-1 #
vertex $-1 $231 $338 #
vertex $-1 $145 $339 #
straight-curve $-1 58.948024077433551 13.316492252705483 16.175341509038638 0 -1 0 I I #
coedge $-1 $237 $237 $-1 $340 reversed $148 $-1 #
edge $-1 $341 0 $341 6.2831853071796004 $149 $342 forward 7 unknown #
vertex $-1 $152 $343 #
ellipse-curve $-1 62.946102861800988 23.823645552077501 12.699864570841479 0.6560590369687036 0 0.75470957328743171 0.75470957328743171 0 -0.6560590369687036 1 I I #
coedge $-1 $241 $241 $-1 $344 reversed $155 $-1 #
edge $-1 $345 0 $345 6.2831853071796004 $156 $346 forward 7 unknown #
vertex $-1 $159 $347 #
ellipse-curve $-1 62.946102861800988 29.44232345874444 12.699864570841479 0.6560590369687036 0 0.75470957328743171 0.75470957328743171 0 -0.6560590369687036 1 I I #
face $-1 $-1 $175 $24 $-1 $348 reversed single #
loop $-1 $-1 $261 $160 #
plane-surface $-1 0 33.188108729855728 0 0 -1 0 0 0 -1 forward_v I I I I #
coedge $-1 $349 $259 $262 $350 forward $161 $-1 #
coedge $-1 $265 $163 $164 $253 reversed $101 $-1 #
coedge $-1 $259 $349 $163 $251 reversed $161 $-1 #
edge $-1 $266 -16.175341509038635 $351 16.175341509038635 $250 $352 forward 7 unknown #
coedge $-1 $165 $164 $349 $353 forward $65 $-1 #
edge $-1 $257 -66.944181646168403 $351 66.944181646168403 $249 $354 forward 7 unknown #
coedge $-1 $262 $261 $165 $255 reversed $246 $-1 #
edge $-1 $355 -66.944181646168403 $256 66.944181646168403 $254 $356 forward 7 unknown #
vertex $-1 $167 $357 #
vertex $-1 $268 $358 #
straight-curve $-1 66.944181646168403 0 -16.175341509038635 0 -1 0 I I #
coedge $-1 $248 $250 $168 $260 reversed $161 $-1 #
edge $-1 $263 -33.188108729855728 $266 33.188108729855728 $259 $359 forward 7 unknown #
coedge $-1 $254 $169 $174 $269 forward $246 $-1 #
coedge $-1 $169 $254 $248 $350 reversed $246 $-1 #
vertex $-1 $170 $360 #
straight-curve $-1 0 33.188108729855728 16.175341509038635 -1 0 0 I I #
coedge $-1 $171 $249 $173 $268 reversed $101 $-1 #
vertex $-1 $260 $361 #
straight-curve $-1 0 -33.188108729855728 16.175341509038635 1 0 0 I I #
edge $-1 $176 -16.175341509038635 $257 16.175341509038635 $173 $362 forward 7 unknown #
edge $-1 $177 -16.175341509038635 $256 16.175341509038635 $174 $363 forward 7 unknown #
point $-1 66.944181646168403 -33.188108729855728 16.175341509038635 #
point $-1 66.944181646168403 33.188108729855728 16.175341509038635 #
face $-1 $-1 $194 $25 $-1 $364 reversed single #
loop $-1 $-1 $190 $179 #
plane-surface $-1 0 -33.188108729855728 0 0 1 0 0 0 1 forward_v I I I I #
coedge $-1 $365 $366 $187 $285 forward $180 $-1 #
coedge $-1 $286 $182 $184 $281 reversed $109 $-1 #
edge $-1 $283 -4.7040263119896784 $195 1.034228785192453 $193 $367 forward 7 unknown #
coedge $-1 $184 $183 $368 $369 reversed $69 $-1 #
coedge $-1 $290 $289 $183 $280 forward $273 $-1 #
edge $-1 $370 -66.944181646168403 $282 66.944181646168403 $279 $371 forward 7 unknown #
edge $-1 $372 -66.944181646168403 $283 66.944181646168403 $276 $373 forward 7 unknown #
vertex $-1 $280 $374 #
vertex $-1 $186 $375 #
straight-curve $-1 66.944181646168403 -11.622480441517524 -6.538925075388291 0 1 0 I I #
edge $-1 $291 -21.565628288338203 $287 -1.6793325946968469 $275 $376 forward 7 unknown #
coedge $-1 $188 $276 $365 $377 reversed $109 $-1 #
vertex $-1 $285 $378 #
straight-curve $-1 0 -13.301813036214371 -0.8006699782061597 -1 0 0 I I #
coedge $-1 $279 $190 $366 $379 forward $273 $-1 #
coedge $-1 $190 $279 $192 $293 reversed $273 $-1 #
vertex $-1 $379 $380 #
straight-curve $-1 0 -33.188108729855728 -0.8006699782061597 -1 0 0 I I #
edge $-1 $196 0.8006699782061597 $282 6.538925075388291 $192 $381 forward 7 unknown #
point $-1 66.944181646168403 -13.301813036214371 -0.8006699782061597 #
point $-1 66.944181646168403 -33.188108729855728 -0.8006699782061597 #
plane-surface $-1 0 0 16.175341509038635 0 0 1 1 0 0 forward_v I I I I #
coedge $-1 $307 $306 $299 $382 forward $199 $-1 #
coedge $-1 $299 $201 $203 $303 reversed $117 $-1 #
coedge $-1 $201 $298 $297 $382 reversed $117 $-1 #
coedge $-1 $209 $204 $201 $301 forward $210 $-1 #
edge $-1 $304 -25.905089350435496 $383 -19.280644758083326 $300 $384 forward 7 unknown #
coedge $-1 $203 $202 $307 $385 reversed $73 $-1 #
edge $-1 $386 0 $304 10.759881804409002 $298 $387 forward 7 unknown #
vertex $-1 $205 $388 #
straight-curve $-1 -60.319737053816233 -3.9261912639959249 16.175341509038635 0 1 0 I I #
coedge $-1 $297 $206 $209 $311 reversed $199 $-1 #
coedge $-1 $206 $297 $302 $385 forward $199 $-1 #
vertex $-1 $207 $389 #
straight-curve $-1 -66.944181646168403 -13.301813036214375 45.063172354877494 0 0 1 I I #
straight-curve $-1 -66.944181646168403 -13.301813036214375 7.6964388508105088 -0.61566146476048833 0 -0.78801076186113728 I I #
edge $-1 $383 2.4029520197693248 $211 13.301813036214375 $306 $390 forward 7 unknown #
point $-1 -66.944181646168403 -13.301813036214375 16.175341509038635 #
point $-1 -60.319737053816233 -13.301813036214375 16.175341509038635 #
edge $-1 $391 1 $391 0 $214 $-1 forward 7 unknown #
vertex $-1 $215 $392 #
ellipse-curve $-1 -60.948365096465224 -10.1878527458015 9.8392366202102917 -0.78801076186113728 0 0.61566146476048833 0.61566146476048833 0 0.78801076186113728 1 I I #
point $-1 -63.016297885231836 -10.1878527458015 12.723900941785717 #
edge $-1 $393 1 $393 0 $218 $-1 forward 7 unknown #
vertex $-1 $219 $394 #
ellipse-curve $-1 -60.948365096465224 -5.5169123101821924 9.8392366202102917 -0.78801076186113728 0 0.61566146476048833 0.61566146476048833 0 0.78801076186113728 1 I I #
point $-1 -63.016297885231836 -5.5169123101821924 12.723900941785717 #
loop $-1 $-1 $230 $222 #
plane-surface $-1 0 33.188108729855728 0 0 -1 0 0 0 -1 forward_v I I I I #
coedge $-1 $395 $325 $229 $330 forward $223 $-1 #
coedge $-1 $324 $396 $226 $326 forward $223 $-1 #
edge $-1 $328 82.879602412982791 $335 89.830556289377114 $325 $397 forward 7 unknown #
coedge $-1 $233 $227 $396 $398 forward $139 $-1 #
vertex $-1 $398 $399 #
straight-curve $-1 26.868011400271342 20.077860280966206 16.175341509038631 1 0 0 I I #
edge $-1 $335 6.7613680282607227 $333 19.871616477150244 $324 $400 forward 7 unknown #
coedge $-1 $332 $230 $233 $337 reversed $322 $-1 #
coedge $-1 $230 $331 $395 $401 forward $322 $-1 #
vertex $-1 $231 $402 #
straight-curve $-1 -0.36083137860431336 33.188108729855728 67.731744092771734 -0.75470957328743171 0 0.6560590369687036 I I #
vertex $-1 $330 $403 #
straight-curve $-1 -34.102647882343732 20.077860280966206 97.063058315530697 -0.75470957328743171 0 0.6560590369687036 I I #
edge $-1 $404 -66.944181646168403 $234 -58.948024077433573 $331 $405 forward 7 unknown #
point $-1 58.948024077433573 33.188108729855728 16.175341509038631 #
point $-1 58.948024077433573 20.077860280966206 16.175341509038631 #
edge $-1 $406 1 $406 0 $237 $-1 forward 7 unknown #
vertex $-1 $238 $407 #
ellipse-curve $-1 60.461159377892692 23.823645552077501 9.8412641542553754 0.6560590369687036 0 0.75470957328743171 0.75470957328743171 0 -0.6560590369687036 1 I I #
point $-1 63.700812435088409 23.823645552077501 12.043805533872762 #
edge $-1 $408 1 $408 0 $241 $-1 forward 7 unknown #
vertex $-1 $242 $409 #
ellipse-curve $-1 60.461159377892692 29.44232345874444 9.8412641542553754 0.6560590369687036 0 0.75470957328743171 0.75470957328743171 0 -0.6560590369687036 1 I I #
point $-1 63.700812435088409 29.44232345874444 12.043805533872762 #
plane-surface $-1 66.944181646168403 0 0 -1 0 0 0 0 1 forward_v I I I I #
coedge $-1 $250 $248 $252 $353 reversed $161 $-1 #
edge $-1 $263 -16.175341509038635 $355 16.175341509038635 $262 $410 forward 7 unknown #
vertex $-1 $353 $411 #
straight-curve $-1 -66.944181646168403 -33.188108729855728 0 0 0 -1 I I #
edge $-1 $351 -33.188108729855728 $355 33.188108729855728 $349 $412 forward 7 unknown #
straight-curve $-1 0 -33.188108729855728 -16.175341509038635 -1 0 0 I I #
vertex $-1 $255 $413 #
straight-curve $-1 0 33.188108729855728 -16.175341509038635 1 0 0 I I #
point $-1 66.944181646168403 33.188108729855728 -16.175341509038635 #
point $-1 66.944181646168403 -33.188108729855728 -16.175341509038635 #
straight-curve $-1 -66.944181646168403 0 16.175341509038635 0 -1 0 I I #
point $-1 -66.944181646168403 33.188108729855728 16.175341509038635 #
point $-1 -66.944181646168403 -33.188108729855728 16.175341509038635 #
straight-curve $-1 66.944181646168403 -33.188108729855728 0 0 0 -1 I I #
straight-curve $-1 66.944181646168403 33.188108729855728 0 0 0 -1 I I #
plane-surface $-1 66.944181646168403 0 0 -1 0 0 0 0 1 forward_v I I I I #
coedge $-1 $368 $275 $286 $377 forward $180 $-1 #
coedge $-1 $275 $368 $289 $379 reversed $180 $-1 #
straight-curve $-1 66.944181646168403 -13.301813036214371 -1.8348987633986127 0 0 1 I I #
coedge $-1 $366 $365 $278 $369 forward $180 $-1 #
edge $-1 $372 1.6793325946968469 $370 21.565628288338203 $368 $414 forward 7 unknown #
vertex $-1 $280 $415 #
straight-curve $-1 0 -33.188108729855728 -6.538925075388291 1 0 0 I I #
vertex $-1 $369 $416 #
straight-curve $-1 0 -13.301813036214371 -6.538925075388291 1 0 0 I I #
point $-1 66.944181646168403 -33.188108729855728 -6.538925075388291 #
point $-1 66.944181646168403 -13.301813036214371 -6.538925075388291 #
straight-curve $-1 -66.944181646168403 -11.622480441517524 -0.8006699782061597 0 1 0 I I #
edge $-1 $287 -1.034228785192453 $372 4.7040263119896784 $365 $417 forward 7 unknown #
point $-1 -66.944181646168403 -13.301813036214371 -0.8006699782061597 #
edge $-1 $291 0.8006699782061597 $370 6.538925075388291 $366 $418 forward 7 unknown #
point $-1 -66.944181646168403 -33.188108729855728 -0.8006699782061597 #
straight-curve $-1 66.944181646168403 -33.188108729855728 0 0 0 -1 I I #
edge $-1 $383 28.88783084583886 $386 37.366733504066985 $297 $419 forward 7 unknown #
vertex $-1 $311 $420 #
straight-curve $-1 -86.224826404251729 -2.4029520197693248 16.175341509038638 -1 0 0 I I #
edge $-1 $386 -1.5232392442266001 $308 9.3756217722184498 $307 $421 forward 7 unknown #
vertex $-1 $385 $422 #
straight-curve $-1 -66.944181646168403 -2.4029520197693248 7.6964388508105088 0.61566146476048833 0 0.78801076186113728 I I #
point $-1 -60.319737053816233 -2.4029520197693248 16.175341509038635 #
point $-1 -66.944181646168403 -13.301813036214375 7.6964388508105088 #
straight-curve $-1 -66.944181646168403 0 16.175341509038635 0 -1 0 I I #
vertex $-1 $314 $423 #
point $-1 -60.332703631704739 -10.1878527458015 10.627247382071429 #
vertex $-1 $318 $424 #
point $-1 -60.332703631704739 -5.5169123101821924 10.627247382071429 #
coedge $-1 $396 $324 $332 $401 reversed $223 $-1 #
coedge $-1 $325 $395 $327 $398 reversed $223 $-1 #
straight-curve $-1 66.944181646168403 20.077860280966206 99.054943922021423 0 0 -1 I I #
edge $-1 $328 20.077860280966206 $404 33.188108729855728 $396 $425 forward 7 unknown #
point $-1 66.944181646168403 20.077860280966206 16.175341509038635 #
straight-curve $-1 66.944181646168389 13.316492252705483 9.2243876326443015 0 1 0 I I #
edge $-1 $404 -16.175341509038635 $333 -9.2243876326443086 $395 $426 forward 7 unknown #
point $-1 66.944181646168389 33.188108729855728 9.2243876326443086 #
point $-1 66.944181646168389 20.077860280966206 9.2243876326443086 #
vertex $-1 $398 $427 #
straight-curve $-1 0 33.188108729855728 16.175341509038635 -1 0 0 I I #
vertex $-1 $340 $428 #
point $-1 61.215868951180127 23.823645552077501 9.1852051172866709 #
vertex $-1 $344 $429 #
point $-1 61.215868951180127 29.44232345874444 9.1852051172866709 #
straight-curve $-1 -66.944181646168403 33.188108729855728 0 0 0 -1 I I #
point $-1 -66.944181646168403 -33.188108729855728 -16.175341509038635 #
straight-curve $-1 -66.944181646168403 0 -16.175341509038635 0 1 0 I I #
point $-1 -66.944181646168403 33.188108729855728 -16.175341509038635 #
straight-curve $-1 -66.944181646168403 -11.622480441517524 -6.538925075388291 0 -1 0 I I #
point $-1 -66.944181646168403 -33.188108729855728 -6.538925075388291 #
point $-1 -66.944181646168403 -13.301813036214371 -6.538925075388291 #
straight-curve $-1 -66.944181646168403 -13.301813036214371 -1.8348987633986127 0 0 -1 I I #
straight-curve $-1 -66.944181646168403 -33.188108729855728 0 0 0 -1 I I #
straight-curve $-1 -66.944181646168403 -2.4029520197693248 45.063172354877494 0 0 -1 I I #
point $-1 -66.944181646168403 -2.4029520197693248 16.175341509038635 #
straight-curve $-1 -66.944181646168403 -3.9261912639959249 7.6964388508105106 0 -1 0 I I #
point $-1 -66.944181646168403 -2.4029520197693248 7.6964388508105088 #
point $-1 -60.160354334604094 -10.1878527458015 9.2235751554498027 #
point $-1 -60.160354334604094 -5.5169123101821924 9.2235751554498027 #
straight-curve $-1 66.944181646168403 0 16.175341509038635 0 1 0 I I #
straight-curve $-1 66.944181646168403 33.188108729855728 0 0 0 -1 I I #
point $-1 66.944181646168403 33.188108729855728 16.175341509038635 #
point $-1 59.805100340923993 23.823645552077501 9.0865545809679436 #
point $-1 59.805100340923993 29.44232345874444 9.0865545809679436 #
End-of-ACIS-data 