500 0 13 0           
7 Unknown 11 ACIS 5.0 NT 24 Fri Mar 26 17:40:53 1999 
-1 9.9999999999999995e-007 1e-010 
body $-1 $13 $-1 $14 #
body $-1 $15 $-1 $16 #
body $-1 $17 $-1 $18 #
body $-1 $19 $-1 $20 #
body $-1 $21 $-1 $22 #
body $-1 $23 $-1 $24 #
body $-1 $25 $-1 $26 #
body $-1 $27 $-1 $28 #
body $-1 $29 $-1 $30 #
body $-1 $31 $-1 $32 #
body $-1 $33 $-1 $34 #
body $-1 $35 $-1 $36 #
body $-1 $37 $-1 $38 #
lump $-1 $-1 $39 $0 #
transform $-1 1 0 0 0 1 0 0 0 1 40.915555284279918 23.706597849624298 9.1614819150366991 1 rotate no_reflect no_shear #
lump $-1 $-1 $40 $1 #
transform $-1 1 0 0 0 1 0 0 0 1 40.915555284279918 23.706597849624298 9.1614819150366991 1 rotate no_reflect no_shear #
lump $-1 $-1 $41 $2 #
transform $-1 1 0 0 0 1 0 0 0 1 40.915555284279918 23.706597849624298 9.1614819150366991 1 rotate no_reflect no_shear #
lump $-1 $-1 $42 $3 #
transform $-1 1 0 0 0 1 0 0 0 1 40.915555284279918 23.706597849624298 9.1614819150366991 1 rotate no_reflect no_shear #
lump $-1 $-1 $43 $4 #
transform $-1 1 0 0 0 1 0 0 0 1 40.915555284279918 23.706597849624298 9.1614819150366991 1 rotate no_reflect no_shear #
lump $-1 $-1 $44 $5 #
transform $-1 1 0 0 0 1 0 0 0 1 40.915555284279918 23.706597849624298 9.1614819150366991 1 rotate no_reflect no_shear #
lump $-1 $-1 $45 $6 #
transform $-1 1 0 0 0 1 0 0 0 1 40.915555284279918 23.706597849624298 9.1614819150366991 1 rotate no_reflect no_shear #
lump $-1 $-1 $46 $7 #
transform $-1 1 0 0 0 1 0 0 0 1 40.915555284279918 23.706597849624298 9.1614819150366991 1 rotate no_reflect no_shear #
lump $-1 $-1 $47 $8 #
transform $-1 1 0 0 0 1 0 0 0 1 40.915555284279918 23.706597849624298 9.1614819150366991 1 rotate no_reflect no_shear #
lump $-1 $-1 $48 $9 #
transform $-1 1 0 0 0 1 0 0 0 1 40.915555284279918 23.706597849624298 9.1614819150366991 1 rotate no_reflect no_shear #
lump $-1 $-1 $49 $10 #
transform $-1 1 0 0 0 1 0 0 0 1 40.915555284279918 23.706597849624298 9.1614819150366991 1 rotate no_reflect no_shear #
lump $-1 $-1 $50 $11 #
transform $-1 1 0 0 0 1 0 0 0 1 40.915555284279918 23.706597849624298 9.1614819150366991 1 rotate no_reflect no_shear #
lump $-1 $-1 $51 $12 #
transform $-1 1 0 0 0 1 0 0 0 1 40.915555284279918 23.706597849624298 9.1614819150366991 1 rotate no_reflect no_shear #
shell $-1 $-1 $-1 $52 $-1 $13 #
shell $-1 $-1 $-1 $53 $-1 $15 #
shell $-1 $-1 $-1 $54 $-1 $17 #
shell $-1 $-1 $-1 $55 $-1 $19 #
shell $-1 $-1 $-1 $56 $-1 $21 #
shell $-1 $-1 $-1 $57 $-1 $23 #
shell $-1 $-1 $-1 $58 $-1 $25 #
shell $-1 $-1 $-1 $59 $-1 $27 #
shell $-1 $-1 $-1 $60 $-1 $29 #
shell $-1 $-1 $-1 $61 $-1 $31 #
shell $-1 $-1 $-1 $62 $-1 $33 #
shell $-1 $-1 $-1 $63 $-1 $35 #
shell $-1 $-1 $-1 $64 $-1 $37 #
face $-1 $65 $66 $39 $-1 $67 forward single #
face $-1 $68 $69 $40 $-1 $70 reversed single #
face $-1 $71 $72 $41 $-1 $73 reversed single #
face $-1 $74 $75 $42 $-1 $76 reversed single #
face $-1 $77 $78 $43 $-1 $79 forward single #
face $-1 $80 $81 $44 $-1 $82 forward single #
face $-1 $83 $84 $45 $-1 $85 forward single #
face $-1 $86 $87 $46 $-1 $88 reversed single #
face $-1 $89 $90 $47 $-1 $91 forward single #
face $-1 $92 $93 $48 $-1 $94 forward single #
face $-1 $95 $96 $49 $-1 $97 reversed single #
face $-1 $98 $99 $50 $-1 $100 forward single #
face $-1 $101 $102 $51 $-1 $103 forward single #
face $-1 $104 $105 $39 $-1 $106 reversed single #
loop $-1 $-1 $107 $52 #
plane-surface $-1 0 0 9.1614819150366991 0 0 1 1 0 0 forward_v I I I I #
face $-1 $108 $109 $40 $-1 $110 reversed single #
loop $-1 $-1 $111 $53 #
plane-surface $-1 -35.239880405984735 -20.199833536816172 0 1 0 0 0 0 -1 forward_v I I I I #
face $-1 $112 $113 $41 $-1 $114 reversed single #
loop $-1 $-1 $115 $54 #
plane-surface $-1 -32.694365717454552 16.693069224008049 0 0 1 0 0 0 1 forward_v I I I I #
face $-1 $116 $117 $42 $-1 $118 reversed single #
loop $-1 $-1 $119 $55 #
plane-surface $-1 32.842872339134331 2.6646868166789908 118.44380003843229 0 -1 0 -0.6560590369687036 0 -0.75470957328743171 forward_v I I I I #
face $-1 $120 $121 $43 $-1 $122 forward single #
loop $-1 $123 $124 $56 #
cone-surface $-1 37.042985391787788 -2.2453207934556509 5.7029051238291357 -0.6560590369687036 0 -0.75470957328743171 0.37735478664371586 0 -0.3280295184843518 1 I I 0 1 0.5 forward I I I I #
face $-1 $125 $126 $44 $-1 $127 forward single #
loop $-1 $128 $129 $57 #
cone-surface $-1 37.042985391787788 -0.4040679396551603 5.7029051238291357 -0.6560590369687036 0 -0.75470957328743171 0.37735478664371586 0 -0.3280295184843518 1 I I 0 1 0.5 forward I I I I #
face $-1 $130 $131 $45 $-1 $132 forward single #
loop $-1 $133 $134 $58 #
cone-surface $-1 37.042985391787788 1.4371849141453303 5.7029051238291357 -0.6560590369687036 0 -0.75470957328743171 0.37735478664371586 0 -0.3280295184843518 1 I I 0 1 0.5 forward I I I I #
face $-1 $135 $136 $46 $-1 $137 reversed single #
loop $-1 $-1 $138 $59 #
plane-surface $-1 -84.279437760728925 -12.170676558391527 69.843310371249927 0 1 0 -0.52991927123019833 0 0.84804809178421925 forward_v I I I I #
face $-1 $139 $140 $47 $-1 $141 forward single #
loop $-1 $142 $143 $60 #
cone-surface $-1 -33.67722711698093 -10.102910365427514 4.3800135141258902 0.52991927123019833 0 -0.84804809178421925 0.42402404589210962 0 0.26495963561509916 1 I I 0 1 0.5 forward I I I I #
face $-1 $144 $145 $48 $-1 $146 forward single #
loop $-1 $147 $148 $61 #
cone-surface $-1 -33.67722711698093 -7.0012610759814926 4.3800135141258902 0.52991927123019833 0 -0.84804809178421925 0.42402404589210962 0 0.26495963561509916 1 I I 0 1 0.5 forward I I I I #
face $-1 $149 $150 $49 $-1 $151 reversed single #
loop $-1 $-1 $152 $62 #
plane-surface $-1 -84.279437760728925 4.9334948830174756 69.843310371249927 0 1 0 -0.52991927123019833 0 0.84804809178421925 forward_v I I I I #
face $-1 $153 $154 $50 $-1 $155 forward single #
loop $-1 $156 $157 $63 #
cone-surface $-1 -33.67722711698093 7.0012610759814855 4.3800135141258902 0.52991927123019833 0 -0.84804809178421925 0.42402404589210962 0 0.26495963561509916 1 I I 0 1 0.5 forward I I I I #
face $-1 $158 $159 $51 $-1 $160 forward single #
loop $-1 $161 $162 $64 #
cone-surface $-1 -33.67722711698093 10.102910365427508 4.3800135141258902 0.52991927123019833 0 -0.84804809178421925 0.42402404589210962 0 0.26495963561509916 1 I I 0 1 0.5 forward I I I I #
face $-1 $163 $164 $39 $-1 $165 reversed single #
loop $-1 $-1 $166 $65 #
plane-surface $-1 0 0 -9.1614819150366991 0 0 1 1 0 0 forward_v I I I I #
coedge $-1 $167 $168 $169 $170 forward $66 $-1 #
face $-1 $171 $172 $40 $-1 $173 reversed single #
loop $-1 $-1 $174 $68 #
plane-surface $-1 -32.694365717454552 -16.693069224008042 0 0 -1 0 0 0 -1 forward_v I I I I #
coedge $-1 $175 $176 $177 $178 forward $69 $-1 #
face $-1 $179 $180 $41 $-1 $181 reversed single #
loop $-1 $-1 $182 $71 #
plane-surface $-1 -35.239880405984735 20.199833536816175 0 1 0 0 0 0 -1 forward_v I I I I #
coedge $-1 $183 $184 $185 $186 forward $72 $-1 #
face $-1 $187 $188 $42 $-1 $189 reversed single #
loop $-1 $-1 $190 $74 #
plane-surface $-1 -20.843167254554537 -0.4040679396551603 56.685077499597845 0.6560590369687036 0 0.75470957328743171 0.75470957328743171 0 -0.6560590369687036 forward_v I I I I #
coedge $-1 $191 $192 $193 $194 reversed $75 $-1 #
face $-1 $-1 $195 $43 $-1 $196 forward single #
loop $-1 $197 $198 $77 #
cone-surface $-1 36.55094111406126 -2.2453207934556509 5.1368729438635619 -0.6560590369687036 0 -0.75470957328743171 0.18867739332185793 0 -0.1640147592421759 1 I I -0.70710678118654746 0.70710678118654746 0.25 forward I I I I #
loop $-1 $-1 $199 $56 #
coedge $-1 $124 $124 $200 $201 reversed $78 $-1 #
face $-1 $-1 $202 $44 $-1 $203 forward single #
loop $-1 $204 $205 $80 #
cone-surface $-1 36.55094111406126 -0.4040679396551603 5.1368729438635619 -0.6560590369687036 0 -0.75470957328743171 0.18867739332185793 0 -0.1640147592421759 1 I I -0.70710678118654746 0.70710678118654746 0.25 forward I I I I #
loop $-1 $-1 $206 $57 #
coedge $-1 $129 $129 $207 $208 reversed $81 $-1 #
face $-1 $-1 $209 $45 $-1 $210 forward single #
loop $-1 $211 $212 $83 #
cone-surface $-1 36.55094111406126 1.4371849141453303 5.1368729438635619 -0.6560590369687036 0 -0.75470957328743171 0.18867739332185793 0 -0.1640147592421759 1 I I -0.70710678118654746 0.70710678118654746 0.25 forward I I I I #
loop $-1 $-1 $213 $58 #
coedge $-1 $134 $134 $214 $215 reversed $84 $-1 #
face $-1 $216 $217 $46 $-1 $218 reversed single #
loop $-1 $-1 $219 $86 #
plane-surface $-1 -40.915555284279918 -8.5520857207045022 0.44659320499930288 -0.52991927123019833 0 0.84804809178421925 0.84804809178421925 0 0.52991927123019833 forward_v I I I I #
coedge $-1 $220 $221 $222 $223 reversed $87 $-1 #
face $-1 $-1 $224 $47 $-1 $225 forward single #
loop $-1 $226 $227 $89 #
cone-surface $-1 -33.279787663558281 -10.102910365427514 3.7439774452877259 0.52991927123019833 0 -0.84804809178421925 0.21201202294605481 0 0.13247981780754958 1 I I -0.70710678118654746 0.70710678118654746 0.25 forward I I I I #
loop $-1 $-1 $228 $60 #
coedge $-1 $143 $143 $229 $230 reversed $90 $-1 #
face $-1 $-1 $231 $48 $-1 $232 forward single #
loop $-1 $233 $234 $92 #
cone-surface $-1 -33.279787663558281 -7.0012610759814926 3.7439774452877259 0.52991927123019833 0 -0.84804809178421925 0.21201202294605481 0 0.13247981780754958 1 I I -0.70710678118654746 0.70710678118654746 0.25 forward I I I I #
loop $-1 $-1 $235 $61 #
coedge $-1 $148 $148 $236 $237 reversed $93 $-1 #
face $-1 $238 $239 $49 $-1 $240 reversed single #
loop $-1 $-1 $241 $95 #
plane-surface $-1 -40.915555284279918 8.5520857207045005 0.44659320499930288 -0.52991927123019833 0 0.84804809178421925 0.84804809178421925 0 0.52991927123019833 forward_v I I I I #
coedge $-1 $242 $243 $244 $245 reversed $96 $-1 #
face $-1 $-1 $246 $50 $-1 $247 forward single #
loop $-1 $248 $249 $98 #
cone-surface $-1 -33.279787663558281 7.0012610759814855 3.7439774452877259 0.52991927123019833 0 -0.84804809178421925 0.21201202294605481 0 0.13247981780754958 1 I I -0.70710678118654746 0.70710678118654746 0.25 forward I I I I #
loop $-1 $-1 $250 $63 #
coedge $-1 $157 $157 $251 $252 reversed $99 $-1 #
face $-1 $-1 $253 $51 $-1 $254 forward single #
loop $-1 $255 $256 $101 #
cone-surface $-1 -33.279787663558281 10.102910365427508 3.7439774452877259 0.52991927123019833 0 -0.84804809178421925 0.21201202294605481 0 0.13247981780754958 1 I I -0.70710678118654746 0.70710678118654746 0.25 forward I I I I #
loop $-1 $-1 $257 $64 #
coedge $-1 $162 $162 $258 $259 reversed $102 $-1 #
face $-1 $260 $261 $39 $-1 $262 reversed single #
loop $-1 $-1 $263 $104 #
plane-surface $-1 0 -23.706597849624298 0 0 1 0 0 0 1 forward_v I I I I #
coedge $-1 $264 $265 $266 $267 forward $105 $-1 #
coedge $-1 $268 $107 $269 $270 forward $66 $-1 #
coedge $-1 $107 $268 $271 $272 forward $66 $-1 #
coedge $-1 $273 $274 $107 $170 reversed $275 $-1 #
edge $-1 $276 -23.706597849624298 $277 23.706597849624298 $169 $278 forward 7 unknown #
face $-1 $279 $280 $40 $-1 $281 forward single #
loop $-1 $-1 $282 $108 #
plane-surface $-1 -30.148851028924366 -20.199833536816172 0 -1 0 0 0 0 1 forward_v I I I I #
coedge $-1 $283 $284 $285 $286 forward $109 $-1 #
coedge $-1 $287 $111 $288 $289 reversed $69 $-1 #
coedge $-1 $111 $287 $290 $291 reversed $69 $-1 #
coedge $-1 $284 $283 $111 $178 reversed $109 $-1 #
edge $-1 $292 -9.1614819150366991 $293 9.1614819150366991 $177 $294 forward 7 unknown #
face $-1 $295 $296 $41 $-1 $297 reversed single #
loop $-1 $-1 $298 $112 #
plane-surface $-1 -30.148851028924366 20.199833536816175 0 -1 0 0 0 0 1 forward_v I I I I #
coedge $-1 $299 $300 $301 $302 reversed $113 $-1 #
coedge $-1 $303 $115 $304 $305 reversed $72 $-1 #
coedge $-1 $115 $303 $306 $307 reversed $72 $-1 #
coedge $-1 $300 $299 $115 $186 reversed $113 $-1 #
edge $-1 $308 -9.1614819150366991 $309 9.1614819150366991 $185 $310 forward 7 unknown #
face $-1 $311 $312 $42 $-1 $313 forward single #
loop $-1 $-1 $314 $116 #
plane-surface $-1 32.842872339134331 -3.4728226959893114 118.44380003843229 0 1 0 0.6560590369687036 0 0.75470957328743171 forward_v I I I I #
coedge $-1 $315 $316 $317 $318 reversed $117 $-1 #
coedge $-1 $192 $119 $319 $320 reversed $75 $-1 #
coedge $-1 $119 $191 $315 $321 reversed $75 $-1 #
coedge $-1 $317 $322 $119 $194 forward $312 $-1 #
edge $-1 $323 -24.494119114712753 $324 -17.405038366697163 $193 $325 forward 7 unknown #
loop $-1 $-1 $200 $120 #
plane-surface $-1 -20.843167254554537 -0.4040679396551603 56.685077499597845 0.6560590369687036 0 0.75470957328743171 0.75470957328743171 0 -0.6560590369687036 forward_v I I I I #
loop $-1 $-1 $326 $77 #
coedge $-1 $198 $198 $199 $327 reversed $121 $-1 #
coedge $-1 $199 $199 $198 $327 forward $123 $-1 #
coedge $-1 $200 $200 $124 $201 forward $195 $-1 #
edge $-1 $328 0 $328 6.2831853071796004 $200 $329 forward 7 unknown #
loop $-1 $-1 $207 $125 #
plane-surface $-1 -20.843167254554537 -0.4040679396551603 56.685077499597845 0.6560590369687036 0 0.75470957328743171 0.75470957328743171 0 -0.6560590369687036 forward_v I I I I #
loop $-1 $-1 $330 $80 #
coedge $-1 $205 $205 $206 $331 reversed $126 $-1 #
coedge $-1 $206 $206 $205 $331 forward $128 $-1 #
coedge $-1 $207 $207 $129 $208 forward $202 $-1 #
edge $-1 $332 0 $332 6.2831853071796004 $207 $333 forward 7 unknown #
loop $-1 $-1 $214 $130 #
plane-surface $-1 -20.843167254554537 -0.4040679396551603 56.685077499597845 0.6560590369687036 0 0.75470957328743171 0.75470957328743171 0 -0.6560590369687036 forward_v I I I I #
loop $-1 $-1 $334 $83 #
coedge $-1 $212 $212 $213 $335 reversed $131 $-1 #
coedge $-1 $213 $213 $212 $335 forward $133 $-1 #
coedge $-1 $214 $214 $134 $215 forward $209 $-1 #
edge $-1 $336 0 $336 6.2831853071796004 $214 $337 forward 7 unknown #
face $-1 $338 $339 $46 $-1 $340 reversed single #
loop $-1 $-1 $341 $135 #
plane-surface $-1 -84.279437760728925 -4.9334948830174774 69.843310371249927 0 -1 0 0.52991927123019833 0 -0.84804809178421925 forward_v I I I I #
coedge $-1 $342 $343 $344 $345 reversed $136 $-1 #
coedge $-1 $221 $138 $346 $347 reversed $87 $-1 #
coedge $-1 $138 $220 $342 $348 reversed $87 $-1 #
coedge $-1 $344 $349 $138 $223 forward $350 $-1 #
edge $-1 $351 1.2241635960845443 $352 15.170900659452322 $222 $353 forward 7 unknown #
loop $-1 $-1 $229 $139 #
plane-surface $-1 -40.915555284279918 -8.5520857207045022 0.44659320499930288 -0.52991927123019833 0 0.84804809178421925 0.84804809178421925 0 0.52991927123019833 forward_v I I I I #
loop $-1 $-1 $354 $89 #
coedge $-1 $227 $227 $228 $355 reversed $140 $-1 #
coedge $-1 $228 $228 $227 $355 forward $142 $-1 #
coedge $-1 $229 $229 $143 $230 forward $224 $-1 #
edge $-1 $356 0 $356 6.2831853071796004 $229 $357 forward 7 unknown #
loop $-1 $-1 $236 $144 #
plane-surface $-1 -40.915555284279918 -8.5520857207045022 0.44659320499930288 -0.52991927123019833 0 0.84804809178421925 0.84804809178421925 0 0.52991927123019833 forward_v I I I I #
loop $-1 $-1 $358 $92 #
coedge $-1 $234 $234 $235 $359 reversed $145 $-1 #
coedge $-1 $235 $235 $234 $359 forward $147 $-1 #
coedge $-1 $236 $236 $148 $237 forward $231 $-1 #
edge $-1 $360 0 $360 6.2831853071796004 $236 $361 forward 7 unknown #
face $-1 $362 $363 $49 $-1 $364 forward single #
loop $-1 $-1 $365 $149 #
plane-surface $-1 -84.279437760728925 12.170676558391525 69.843310371249927 0 -1 0 0.52991927123019833 0 -0.84804809178421925 forward_v I I I I #
coedge $-1 $366 $367 $368 $369 reversed $150 $-1 #
coedge $-1 $243 $152 $370 $371 reversed $96 $-1 #
coedge $-1 $152 $242 $366 $372 reversed $96 $-1 #
coedge $-1 $368 $373 $152 $245 forward $363 $-1 #
edge $-1 $374 1.2241635960845443 $375 15.170900659452322 $244 $376 forward 7 unknown #
loop $-1 $-1 $251 $153 #
plane-surface $-1 -40.915555284279918 8.5520857207045005 0.44659320499930288 -0.52991927123019833 0 0.84804809178421925 0.84804809178421925 0 0.52991927123019833 forward_v I I I I #
loop $-1 $-1 $377 $98 #
coedge $-1 $249 $249 $250 $378 reversed $154 $-1 #
coedge $-1 $250 $250 $249 $378 forward $156 $-1 #
coedge $-1 $251 $251 $157 $252 forward $246 $-1 #
edge $-1 $379 0 $379 6.2831853071796004 $251 $380 forward 7 unknown #
loop $-1 $-1 $258 $158 #
plane-surface $-1 -40.915555284279918 8.5520857207045005 0.44659320499930288 -0.52991927123019833 0 0.84804809178421925 0.84804809178421925 0 0.52991927123019833 forward_v I I I I #
loop $-1 $-1 $381 $101 #
coedge $-1 $256 $256 $257 $382 reversed $159 $-1 #
coedge $-1 $257 $257 $256 $382 forward $161 $-1 #
coedge $-1 $258 $258 $162 $259 forward $253 $-1 #
edge $-1 $383 0 $383 6.2831853071796004 $258 $384 forward 7 unknown #
face $-1 $385 $386 $39 $-1 $387 reversed single #
loop $-1 $-1 $388 $163 #
plane-surface $-1 -40.915555284279918 0 0 1 0 0 0 0 -1 forward_v I I I I #
coedge $-1 $389 $271 $390 $391 forward $164 $-1 #
coedge $-1 $392 $166 $389 $393 forward $105 $-1 #
coedge $-1 $166 $392 $394 $395 forward $105 $-1 #
coedge $-1 $274 $273 $166 $267 reversed $275 $-1 #
edge $-1 $396 -23.706597849624298 $397 23.706597849624298 $266 $398 forward 7 unknown #
coedge $-1 $168 $167 $399 $400 forward $66 $-1 #
coedge $-1 $401 $402 $167 $270 reversed $386 $-1 #
edge $-1 $277 -40.915555284279918 $403 40.915555284279918 $269 $404 forward 7 unknown #
coedge $-1 $263 $405 $168 $272 reversed $164 $-1 #
edge $-1 $406 -40.915555284279918 $276 40.915555284279918 $271 $407 forward 7 unknown #
coedge $-1 $266 $169 $405 $408 forward $275 $-1 #
coedge $-1 $169 $266 $401 $409 reversed $275 $-1 #
loop $-1 $-1 $273 $385 #
vertex $-1 $170 $410 #
vertex $-1 $170 $411 #
straight-curve $-1 40.915555284279918 0 9.1614819150366991 0 1 0 I I #
face $-1 $412 $413 $40 $-1 $414 reversed single #
loop $-1 $-1 $415 $171 #
plane-surface $-1 0 0 9.1614819150366991 0 0 1 1 0 0 forward_v I I I I #
coedge $-1 $416 $417 $418 $419 reversed $172 $-1 #
coedge $-1 $177 $174 $420 $421 reversed $109 $-1 #
coedge $-1 $174 $177 $422 $423 reversed $109 $-1 #
coedge $-1 $417 $416 $174 $286 reversed $172 $-1 #
edge $-1 $424 -9.1614819150366991 $425 9.1614819150366991 $285 $426 forward 7 unknown #
coedge $-1 $176 $175 $427 $428 reversed $69 $-1 #
coedge $-1 $420 $429 $175 $289 forward $413 $-1 #
edge $-1 $430 -13.606681081216216 $293 -6.5931524555999559 $288 $431 forward 7 unknown #
coedge $-1 $432 $422 $176 $291 forward $280 $-1 #
edge $-1 $292 6.5931524555999559 $433 13.606681081216216 $290 $434 forward 7 unknown #
vertex $-1 $291 $435 #
vertex $-1 $289 $436 #
straight-curve $-1 -35.239880405984735 -16.693069224008042 0 0 0 -1 I I #
face $-1 $437 $438 $41 $-1 $439 forward single #
loop $-1 $-1 $440 $179 #
plane-surface $-1 0 0 -9.1614819150366991 0 0 1 1 0 0 forward_v I I I I #
coedge $-1 $441 $442 $303 $443 forward $180 $-1 #
coedge $-1 $185 $182 $444 $445 reversed $113 $-1 #
coedge $-1 $182 $185 $446 $447 reversed $113 $-1 #
coedge $-1 $448 $449 $182 $302 forward $450 $-1 #
edge $-1 $451 -9.1614819150366991 $452 9.1614819150366991 $301 $453 forward 7 unknown #
coedge $-1 $184 $183 $298 $443 reversed $72 $-1 #
coedge $-1 $444 $440 $183 $305 forward $296 $-1 #
edge $-1 $454 13.80166817019709 $309 18.892697547257459 $304 $455 forward 7 unknown #
coedge $-1 $456 $446 $184 $307 forward $438 $-1 #
edge $-1 $308 -18.892697547257459 $457 -13.80166817019709 $306 $458 forward 7 unknown #
vertex $-1 $307 $459 #
vertex $-1 $305 $460 #
straight-curve $-1 -35.239880405984735 16.693069224008049 0 0 0 -1 I I #
face $-1 $-1 $461 $42 $-1 $462 reversed single #
loop $-1 $-1 $193 $187 #
plane-surface $-1 0 0 9.1614819150366991 0 0 1 1 0 0 forward_v I I I I #
coedge $-1 $463 $464 $465 $466 reversed $188 $-1 #
coedge $-1 $467 $190 $192 $321 forward $117 $-1 #
coedge $-1 $190 $467 $463 $468 forward $117 $-1 #
coedge $-1 $465 $193 $190 $318 forward $312 $-1 #
edge $-1 $324 -2.8667207865065709 $469 3.2707887261617312 $317 $470 forward 7 unknown #
coedge $-1 $471 $472 $191 $320 forward $461 $-1 #
edge $-1 $473 -56.222862113307187 $323 -50.060418104179448 $319 $474 forward 7 unknown #
edge $-1 $324 72.437986380222981 $473 81.831110568559865 $192 $475 forward 7 unknown #
coedge $-1 $193 $465 $471 $476 forward $312 $-1 #
vertex $-1 $194 $477 #
vertex $-1 $194 $478 #
straight-curve $-1 16.421436169567166 2.6646868166789908 9.1614819150367026 -1 0 0 I I #
coedge $-1 $326 $326 $-1 $479 reversed $197 $-1 #
edge $-1 $480 0 $480 6.2831853071796004 $198 $481 forward 7 unknown #
vertex $-1 $201 $482 #
ellipse-curve $-1 37.371014910272123 -2.2453207934556509 6.0802599104728356 0.6560590369687036 0 0.75470957328743171 0.37735478664371586 0 -0.3280295184843518 1 I I #
coedge $-1 $330 $330 $-1 $483 reversed $204 $-1 #
edge $-1 $484 0 $484 6.2831853071796004 $205 $485 forward 7 unknown #
vertex $-1 $208 $486 #
ellipse-curve $-1 37.371014910272123 -0.4040679396551603 6.0802599104728356 0.6560590369687036 0 0.75470957328743171 0.37735478664371586 0 -0.3280295184843518 1 I I #
coedge $-1 $334 $334 $-1 $487 reversed $211 $-1 #
edge $-1 $488 0 $488 6.2831853071796004 $212 $489 forward 7 unknown #
vertex $-1 $215 $490 #
ellipse-curve $-1 37.371014910272123 1.4371849141453303 6.0802599104728356 0.6560590369687036 0 0.75470957328743171 0.37735478664371586 0 -0.3280295184843518 1 I I #
face $-1 $-1 $350 $46 $-1 $491 forward single #
loop $-1 $-1 $492 $216 #
plane-surface $-1 -40.915555284279918 0 0 1 0 0 0 0 -1 forward_v I I I I #
coedge $-1 $493 $494 $495 $496 reversed $217 $-1 #
coedge $-1 $497 $219 $221 $348 forward $136 $-1 #
coedge $-1 $219 $497 $493 $498 forward $136 $-1 #
coedge $-1 $495 $222 $219 $345 forward $350 $-1 #
edge $-1 $352 -7.8946336980392759 $499 -0.65745202266522629 $344 $500 forward 7 unknown #
coedge $-1 $501 $502 $220 $347 forward $339 $-1 #
edge $-1 $503 -34.475061980625661 $351 -25.760173270588265 $346 $504 forward 7 unknown #
edge $-1 $352 -16.445691227280591 $503 0 $221 $505 forward 7 unknown #
coedge $-1 $222 $495 $501 $506 forward $350 $-1 #
loop $-1 $-1 $495 $338 #
vertex $-1 $347 $507 #
vertex $-1 $223 $508 #
straight-curve $-1 -42.139718880364462 -12.170676558391527 9.1614819150366991 1 0 0 I I #
coedge $-1 $354 $354 $-1 $509 reversed $226 $-1 #
edge $-1 $510 0 $510 6.2831853071796004 $227 $511 forward 7 unknown #
vertex $-1 $230 $512 #
ellipse-curve $-1 -33.942186752596029 -10.102910365427514 4.8040375600180001 -0.52991927123019833 0 0.84804809178421925 0.42402404589210962 0 0.26495963561509916 1 I I #
coedge $-1 $358 $358 $-1 $513 reversed $233 $-1 #
edge $-1 $514 0 $514 6.2831853071796004 $234 $515 forward 7 unknown #
vertex $-1 $237 $516 #
ellipse-curve $-1 -33.942186752596029 -7.0012610759814926 4.8040375600180001 -0.52991927123019833 0 0.84804809178421925 0.42402404589210962 0 0.26495963561509916 1 I I #
face $-1 $-1 $517 $49 $-1 $518 reversed single #
loop $-1 $-1 $244 $238 #
plane-surface $-1 0 0 9.1614819150366991 0 0 1 1 0 0 forward_v I I I I #
coedge $-1 $519 $520 $521 $522 reversed $239 $-1 #
coedge $-1 $523 $241 $243 $372 forward $150 $-1 #
coedge $-1 $241 $523 $519 $524 forward $150 $-1 #
coedge $-1 $521 $244 $241 $369 forward $363 $-1 #
edge $-1 $375 0.6574520226652254 $525 7.8946336980392751 $368 $526 forward 7 unknown #
coedge $-1 $527 $528 $242 $371 forward $517 $-1 #
edge $-1 $529 -34.475061980625661 $374 -25.760173270588265 $370 $530 forward 7 unknown #
edge $-1 $375 -16.445691227280591 $529 0 $243 $531 forward 7 unknown #
coedge $-1 $244 $521 $527 $532 forward $363 $-1 #
vertex $-1 $371 $533 #
vertex $-1 $245 $534 #
straight-curve $-1 -42.139718880364462 4.9334948830174756 9.1614819150366991 1 0 0 I I #
coedge $-1 $377 $377 $-1 $535 reversed $248 $-1 #
edge $-1 $536 0 $536 6.2831853071796004 $249 $537 forward 7 unknown #
vertex $-1 $252 $538 #
ellipse-curve $-1 -33.942186752596029 7.0012610759814855 4.8040375600180001 -0.52991927123019833 0 0.84804809178421925 0.42402404589210962 0 0.26495963561509916 1 I I #
coedge $-1 $381 $381 $-1 $539 reversed $255 $-1 #
edge $-1 $540 0 $540 6.2831853071796004 $256 $541 forward 7 unknown #
vertex $-1 $259 $542 #
ellipse-curve $-1 -33.942186752596029 10.102910365427508 4.8040375600180001 -0.52991927123019833 0 0.84804809178421925 0.42402404589210962 0 0.26495963561509916 1 I I #
face $-1 $-1 $275 $39 $-1 $543 reversed single #
loop $-1 $-1 $401 $260 #
plane-surface $-1 0 23.706597849624298 0 0 -1 0 0 0 -1 forward_v I I I I #
coedge $-1 $544 $399 $402 $545 forward $261 $-1 #
coedge $-1 $405 $263 $264 $393 reversed $164 $-1 #
coedge $-1 $399 $544 $263 $391 reversed $261 $-1 #
edge $-1 $406 -9.1614819150366991 $546 9.1614819150366991 $390 $547 forward 7 unknown #
coedge $-1 $265 $264 $544 $548 forward $105 $-1 #
edge $-1 $397 -40.915555284279918 $546 40.915555284279918 $389 $549 forward 7 unknown #
coedge $-1 $402 $401 $265 $395 reversed $386 $-1 #
edge $-1 $550 -40.915555284279918 $396 40.915555284279918 $394 $551 forward 7 unknown #
vertex $-1 $267 $552 #
vertex $-1 $408 $553 #
straight-curve $-1 40.915555284279918 0 -9.1614819150366991 0 -1 0 I I #
coedge $-1 $388 $390 $268 $400 reversed $261 $-1 #
edge $-1 $403 -23.706597849624298 $406 23.706597849624298 $399 $554 forward 7 unknown #
coedge $-1 $394 $269 $274 $409 forward $386 $-1 #
coedge $-1 $269 $394 $388 $545 reversed $386 $-1 #
vertex $-1 $270 $555 #
straight-curve $-1 0 23.706597849624298 9.1614819150366991 -1 0 0 I I #
coedge $-1 $271 $389 $273 $408 reversed $164 $-1 #
vertex $-1 $400 $556 #
straight-curve $-1 0 -23.706597849624298 9.1614819150366991 1 0 0 I I #
edge $-1 $276 -9.1614819150366991 $397 9.1614819150366991 $273 $557 forward 7 unknown #
edge $-1 $277 -9.1614819150366991 $396 9.1614819150366991 $274 $558 forward 7 unknown #
point $-1 40.915555284279918 -23.706597849624298 9.1614819150366991 #
point $-1 40.915555284279918 23.706597849624298 9.1614819150366991 #
face $-1 $-1 $559 $40 $-1 $560 reversed single #
loop $-1 $-1 $561 $279 #
plane-surface $-1 0 0 -9.1614819150366991 0 0 1 1 0 0 forward_v I I I I #
coedge $-1 $422 $432 $417 $562 forward $280 $-1 #
coedge $-1 $285 $282 $561 $563 reversed $172 $-1 #
coedge $-1 $282 $285 $415 $562 reversed $172 $-1 #
coedge $-1 $564 $565 $282 $419 forward $559 $-1 #
edge $-1 $566 -9.1614819150366991 $567 9.1614819150366991 $418 $568 forward 7 unknown #
coedge $-1 $561 $288 $283 $421 forward $413 $-1 #
edge $-1 $293 -18.892697547257459 $425 -13.80166817019709 $420 $569 forward 7 unknown #
coedge $-1 $290 $415 $284 $423 forward $280 $-1 #
edge $-1 $424 13.80166817019709 $292 18.892697547257459 $422 $570 forward 7 unknown #
vertex $-1 $423 $571 #
vertex $-1 $421 $572 #
straight-curve $-1 -30.148851028924366 -16.693069224008042 0 0 0 -1 I I #
coedge $-1 $565 $564 $287 $428 forward $559 $-1 #
edge $-1 $433 -9.1614819150366991 $430 9.1614819150366991 $427 $573 forward 7 unknown #
coedge $-1 $288 $561 $565 $574 forward $413 $-1 #
vertex $-1 $289 $575 #
straight-curve $-1 -35.239880405984735 -10.099916768408086 -9.1614819150366991 0 1 0 I I #
coedge $-1 $415 $290 $564 $576 forward $280 $-1 #
vertex $-1 $576 $577 #
straight-curve $-1 -35.239880405984735 -10.099916768408086 9.1614819150366991 0 -1 0 I I #
point $-1 -35.239880405984735 -16.693069224008042 9.1614819150366991 #
point $-1 -35.239880405984735 -16.693069224008042 -9.1614819150366991 #
face $-1 $-1 $450 $41 $-1 $578 reversed single #
loop $-1 $-1 $456 $295 #
plane-surface $-1 0 0 9.1614819150366991 0 0 1 1 0 0 forward_v I I I I #
coedge $-1 $304 $579 $441 $580 forward $296 $-1 #
coedge $-1 $581 $298 $440 $580 reversed $180 $-1 #
coedge $-1 $298 $581 $456 $582 reversed $180 $-1 #
edge $-1 $457 -9.1614819150366991 $454 9.1614819150366991 $298 $583 forward 7 unknown #
coedge $-1 $579 $304 $299 $445 forward $296 $-1 #
edge $-1 $309 6.5931524555999612 $451 13.606681081216214 $444 $584 forward 7 unknown #
coedge $-1 $306 $585 $300 $447 forward $438 $-1 #
edge $-1 $452 -13.606681081216214 $308 -6.5931524555999612 $446 $586 forward 7 unknown #
coedge $-1 $587 $301 $585 $588 reversed $450 $-1 #
coedge $-1 $301 $587 $579 $589 reversed $450 $-1 #
loop $-1 $-1 $587 $437 #
vertex $-1 $589 $590 #
vertex $-1 $302 $591 #
straight-curve $-1 -35.239880405984735 23.706597849624298 0 0 0 1 I I #
vertex $-1 $305 $592 #
straight-curve $-1 -16.347182858727276 16.693069224008049 -9.1614819150366991 -1 0 0 I I #
coedge $-1 $585 $306 $442 $582 forward $438 $-1 #
vertex $-1 $307 $593 #
straight-curve $-1 -16.347182858727276 16.693069224008049 9.1614819150366991 1 0 0 I I #
point $-1 -35.239880405984735 16.693069224008049 9.1614819150366991 #
point $-1 -35.239880405984735 16.693069224008049 -9.1614819150366991 #
loop $-1 $-1 $319 $311 #
plane-surface $-1 40.915555284279918 0 0 -1 0 0 0 0 1 forward_v I I I I #
coedge $-1 $464 $314 $316 $468 reversed $188 $-1 #
coedge $-1 $314 $463 $594 $595 reversed $188 $-1 #
coedge $-1 $322 $317 $314 $466 forward $312 $-1 #
edge $-1 $469 17.405038366697163 $596 24.494119114712753 $465 $597 forward 7 unknown #
coedge $-1 $316 $315 $472 $598 reversed $117 $-1 #
edge $-1 $599 -81.831110568559865 $469 -72.437986380222981 $463 $600 forward 7 unknown #
vertex $-1 $318 $601 #
straight-curve $-1 33.826474536264328 -0.20203396982758015 9.1614819150367026 0 -1 0 I I #
coedge $-1 $594 $319 $322 $476 reversed $461 $-1 #
coedge $-1 $319 $594 $467 $598 forward $461 $-1 #
vertex $-1 $320 $602 #
straight-curve $-1 40.915555284279918 2.6646868166789908 59.221900019216143 0 0 1 I I #
straight-curve $-1 -20.843167254554537 2.6646868166789908 56.685077499597845 0.75470957328743171 0 -0.6560590369687036 I I #
edge $-1 $596 -3.4728226959893114 $323 2.6646868166789908 $471 $603 forward 7 unknown #
point $-1 40.915555284279918 2.6646868166789908 9.1614819150366991 #
point $-1 33.826474536264328 2.6646868166789908 9.1614819150366955 #
edge $-1 $604 1 $604 0 $326 $-1 forward 7 unknown #
vertex $-1 $327 $605 #
ellipse-curve $-1 36.714955873303438 -2.2453207934556509 5.3255503371854198 0.6560590369687036 0 0.75470957328743171 0.37735478664371586 0 -0.3280295184843518 1 I I #
point $-1 37.748369696915859 -2.2453207934556509 5.7522303919884994 #
edge $-1 $606 1 $606 0 $330 $-1 forward 7 unknown #
vertex $-1 $331 $607 #
ellipse-curve $-1 36.714955873303438 -0.4040679396551603 5.3255503371854198 0.6560590369687036 0 0.75470957328743171 0.37735478664371586 0 -0.3280295184843518 1 I I #
point $-1 37.748369696915859 -0.4040679396551603 5.7522303919884994 #
edge $-1 $608 1 $608 0 $334 $-1 forward 7 unknown #
vertex $-1 $335 $609 #
ellipse-curve $-1 36.714955873303438 1.4371849141453303 5.3255503371854198 0.6560590369687036 0 0.75470957328743171 0.37735478664371586 0 -0.3280295184843518 1 I I #
point $-1 37.748369696915859 1.4371849141453303 5.7522303919884994 #
plane-surface $-1 0 0 9.1614819150366991 0 0 1 1 0 0 forward_v I I I I #
coedge $-1 $502 $501 $494 $610 forward $339 $-1 #
coedge $-1 $494 $341 $343 $498 reversed $217 $-1 #
coedge $-1 $341 $493 $492 $610 reversed $217 $-1 #
coedge $-1 $349 $344 $341 $496 forward $350 $-1 #
edge $-1 $499 -15.170900659452322 $611 -1.2241635960845443 $495 $612 forward 7 unknown #
coedge $-1 $343 $342 $502 $613 reversed $136 $-1 #
edge $-1 $614 0 $499 16.445691227280591 $493 $615 forward 7 unknown #
vertex $-1 $345 $616 #
straight-curve $-1 -26.968818220912144 -4.2760428603522511 9.1614819150366991 0 1 0 I I #
coedge $-1 $492 $346 $349 $506 reversed $339 $-1 #
coedge $-1 $346 $492 $497 $613 forward $339 $-1 #
vertex $-1 $347 $617 #
straight-curve $-1 -40.915555284279918 -12.170676558391527 34.921655185624964 0 0 1 I I #
straight-curve $-1 -40.915555284279918 -12.170676558391527 0.44659320499930288 -0.84804809178421925 0 -0.52991927123019833 I I #
edge $-1 $611 4.9334948830174774 $351 12.170676558391527 $501 $618 forward 7 unknown #
point $-1 -40.915555284279918 -12.170676558391527 9.1614819150366991 #
point $-1 -26.968818220912141 -12.170676558391527 9.1614819150366991 #
edge $-1 $619 1 $619 0 $354 $-1 forward 7 unknown #
vertex $-1 $355 $620 #
ellipse-curve $-1 -33.412267481365831 -10.102910365427514 3.9559894682337808 -0.52991927123019833 0 0.84804809178421925 0.42402404589210962 0 0.26495963561509916 1 I I #
point $-1 -33.518162706703919 -10.102910365427514 5.0689971956330995 #
edge $-1 $621 1 $621 0 $358 $-1 forward 7 unknown #
vertex $-1 $359 $622 #
ellipse-curve $-1 -33.412267481365831 -7.0012610759814926 3.9559894682337808 -0.52991927123019833 0 0.84804809178421925 0.42402404589210962 0 0.26495963561509916 1 I I #
point $-1 -33.518162706703919 -7.0012610759814926 5.0689971956330995 #
loop $-1 $-1 $370 $362 #
plane-surface $-1 -40.915555284279918 0 0 1 0 0 0 0 -1 forward_v I I I I #
coedge $-1 $520 $365 $367 $524 reversed $239 $-1 #
coedge $-1 $365 $519 $623 $624 reversed $239 $-1 #
coedge $-1 $373 $368 $365 $522 forward $363 $-1 #
edge $-1 $525 -15.170900659452322 $625 -1.2241635960845443 $521 $626 forward 7 unknown #
coedge $-1 $367 $366 $528 $627 reversed $150 $-1 #
edge $-1 $628 0 $525 16.445691227280591 $519 $629 forward 7 unknown #
vertex $-1 $369 $630 #
straight-curve $-1 -26.968818220912144 4.2760428603522502 9.1614819150366991 0 1 0 I I #
coedge $-1 $623 $370 $373 $532 reversed $517 $-1 #
coedge $-1 $370 $623 $523 $627 forward $517 $-1 #
vertex $-1 $371 $631 #
straight-curve $-1 -40.915555284279918 4.9334948830174756 34.921655185624964 0 0 1 I I #
straight-curve $-1 -40.915555284279918 4.9334948830174756 0.44659320499930288 -0.84804809178421925 0 -0.52991927123019833 I I #
edge $-1 $625 -12.170676558391525 $374 -4.9334948830174756 $527 $632 forward 7 unknown #
point $-1 -40.915555284279918 4.9334948830174756 9.1614819150366991 #
point $-1 -26.968818220912141 4.9334948830174756 9.1614819150366991 #
edge $-1 $633 1 $633 0 $377 $-1 forward 7 unknown #
vertex $-1 $378 $634 #
ellipse-curve $-1 -33.412267481365831 7.0012610759814855 3.9559894682337808 -0.52991927123019833 0 0.84804809178421925 0.42402404589210962 0 0.26495963561509916 1 I I #
point $-1 -33.518162706703919 7.0012610759814855 5.0689971956330995 #
edge $-1 $635 1 $635 0 $381 $-1 forward 7 unknown #
vertex $-1 $382 $636 #
ellipse-curve $-1 -33.412267481365831 10.102910365427508 3.9559894682337808 -0.52991927123019833 0 0.84804809178421925 0.42402404589210962 0 0.26495963561509916 1 I I #
point $-1 -33.518162706703919 10.102910365427508 5.0689971956330995 #
plane-surface $-1 40.915555284279918 0 0 -1 0 0 0 0 1 forward_v I I I I #
coedge $-1 $390 $388 $392 $548 reversed $261 $-1 #
edge $-1 $403 -9.1614819150366991 $550 9.1614819150366991 $402 $637 forward 7 unknown #
vertex $-1 $548 $638 #
straight-curve $-1 -40.915555284279918 -23.706597849624298 0 0 0 -1 I I #
edge $-1 $546 -23.706597849624298 $550 23.706597849624298 $544 $639 forward 7 unknown #
straight-curve $-1 0 -23.706597849624298 -9.1614819150366991 -1 0 0 I I #
vertex $-1 $395 $640 #
straight-curve $-1 0 23.706597849624298 -9.1614819150366991 1 0 0 I I #
point $-1 40.915555284279918 23.706597849624298 -9.1614819150366991 #
point $-1 40.915555284279918 -23.706597849624298 -9.1614819150366991 #
straight-curve $-1 -40.915555284279918 0 9.1614819150366991 0 -1 0 I I #
point $-1 -40.915555284279918 23.706597849624298 9.1614819150366991 #
point $-1 -40.915555284279918 -23.706597849624298 9.1614819150366991 #
straight-curve $-1 40.915555284279918 -23.706597849624298 0 0 0 -1 I I #
straight-curve $-1 40.915555284279918 23.706597849624298 0 0 0 -1 I I #
loop $-1 $-1 $418 $412 #
plane-surface $-1 0 -23.706597849624298 0 0 1 0 0 0 1 forward_v I I I I #
coedge $-1 $429 $420 $416 $563 forward $413 $-1 #
edge $-1 $567 -13.606681081216216 $424 -6.5931524555999559 $415 $641 forward 7 unknown #
edge $-1 $425 6.5931524555999559 $566 13.606681081216216 $561 $642 forward 7 unknown #
coedge $-1 $427 $418 $432 $576 reversed $559 $-1 #
coedge $-1 $418 $427 $429 $574 reversed $559 $-1 #
vertex $-1 $574 $643 #
vertex $-1 $419 $644 #
straight-curve $-1 -30.148851028924366 -23.706597849624298 0 0 0 1 I I #
straight-curve $-1 -16.347182858727276 -16.693069224008042 -9.1614819150366991 1 0 0 I I #
straight-curve $-1 -16.347182858727276 -16.693069224008042 9.1614819150366991 -1 0 0 I I #
point $-1 -30.148851028924366 -16.693069224008042 9.1614819150366991 #
point $-1 -30.148851028924366 -16.693069224008042 -9.1614819150366991 #
straight-curve $-1 -35.239880405984735 -23.706597849624298 0 0 0 -1 I I #
edge $-1 $566 30.148851028924366 $430 35.239880405984735 $565 $645 forward 7 unknown #
point $-1 -35.239880405984735 -23.706597849624302 -9.1614819150366991 #
edge $-1 $433 -35.239880405984735 $567 -30.148851028924366 $564 $646 forward 7 unknown #
point $-1 -35.239880405984735 -23.706597849624302 9.1614819150366991 #
plane-surface $-1 0 23.706597849624298 0 0 -1 0 0 0 -1 forward_v I I I I #
coedge $-1 $440 $444 $449 $589 forward $296 $-1 #
edge $-1 $647 -13.606681081216214 $454 -6.5931524555999612 $440 $648 forward 7 unknown #
coedge $-1 $442 $441 $587 $649 reversed $180 $-1 #
edge $-1 $457 6.5931524555999612 $650 13.606681081216214 $456 $651 forward 7 unknown #
straight-curve $-1 -30.148851028924366 16.693069224008049 0 0 0 -1 I I #
straight-curve $-1 -35.239880405984735 10.099916768408088 -9.1614819150366991 0 1 0 I I #
coedge $-1 $446 $456 $448 $588 forward $438 $-1 #
straight-curve $-1 -35.239880405984735 10.099916768408088 9.1614819150366991 0 -1 0 I I #
coedge $-1 $449 $448 $581 $649 forward $450 $-1 #
edge $-1 $650 30.148851028924366 $452 35.239880405984735 $448 $652 forward 7 unknown #
edge $-1 $451 -35.239880405984735 $647 -30.148851028924366 $449 $653 forward 7 unknown #
point $-1 -35.239880405984735 23.706597849624302 -9.1614819150366991 #
point $-1 -35.239880405984735 23.706597849624302 9.1614819150366991 #
point $-1 -30.148851028924366 16.693069224008049 -9.1614819150366991 #
point $-1 -30.148851028924366 16.693069224008049 9.1614819150366991 #
coedge $-1 $472 $471 $464 $595 forward $461 $-1 #
edge $-1 $596 50.060418104179448 $599 56.222862113307187 $594 $654 forward 7 unknown #
vertex $-1 $476 $655 #
straight-curve $-1 16.421436169567166 -3.4728226959893114 9.1614819150367026 1 0 0 I I #
edge $-1 $599 -3.2707887261617312 $473 2.8667207865065709 $472 $656 forward 7 unknown #
vertex $-1 $598 $657 #
straight-curve $-1 -20.843167254554537 -3.4728226959893114 56.685077499597845 -0.75470957328743171 0 0.6560590369687036 I I #
point $-1 33.826474536264328 -3.4728226959893114 9.1614819150366955 #
point $-1 40.915555284279925 2.6646868166789908 2.9990379059089562 #
straight-curve $-1 40.915555284279918 0 9.1614819150366991 0 1 0 I I #
vertex $-1 $479 $658 #
point $-1 37.092310659947152 -2.2453207934556509 4.9975208187010676 #
vertex $-1 $483 $659 #
point $-1 37.092310659947152 -0.4040679396551603 4.9975208187010676 #
vertex $-1 $487 $660 #
point $-1 37.092310659947152 1.4371849141453303 4.9975208187010676 #
edge $-1 $611 25.760173270588265 $614 34.475061980625661 $492 $661 forward 7 unknown #
vertex $-1 $506 $662 #
straight-curve $-1 -42.139718880364462 -4.9334948830174774 9.1614819150366991 -1 0 0 I I #
edge $-1 $614 0.65745202266522629 $503 7.8946336980392759 $502 $663 forward 7 unknown #
vertex $-1 $613 $664 #
straight-curve $-1 -40.915555284279918 -4.9334948830174774 0.44659320499930288 0.84804809178421925 0 0.52991927123019833 I I #
point $-1 -26.968818220912141 -4.9334948830174774 9.1614819150366991 #
point $-1 -40.915555284279918 -12.170676558391527 0.44659320499930288 #
straight-curve $-1 -40.915555284279918 0 9.1614819150366991 0 -1 0 I I #
vertex $-1 $509 $665 #
point $-1 -32.98824343547372 -10.102910365427514 4.2209491038488798 #
vertex $-1 $513 $666 #
point $-1 -32.98824343547372 -7.0012610759814926 4.2209491038488798 #
coedge $-1 $528 $527 $520 $624 forward $517 $-1 #
edge $-1 $625 25.760173270588265 $628 34.475061980625661 $623 $667 forward 7 unknown #
vertex $-1 $532 $668 #
straight-curve $-1 -42.139718880364462 12.170676558391525 9.1614819150366991 -1 0 0 I I #
edge $-1 $628 -7.8946336980392751 $529 -0.6574520226652254 $528 $669 forward 7 unknown #
vertex $-1 $627 $670 #
straight-curve $-1 -40.915555284279918 12.170676558391525 0.44659320499930288 0.84804809178421925 0 0.52991927123019833 I I #
point $-1 -26.968818220912141 12.170676558391525 9.1614819150366991 #
point $-1 -40.915555284279918 4.9334948830174756 0.44659320499930288 #
straight-curve $-1 -40.915555284279918 0 9.1614819150366991 0 -1 0 I I #
vertex $-1 $535 $671 #
point $-1 -32.98824343547372 7.0012610759814855 4.2209491038488798 #
vertex $-1 $539 $672 #
point $-1 -32.98824343547372 10.102910365427508 4.2209491038488798 #
straight-curve $-1 -40.915555284279918 23.706597849624298 0 0 0 -1 I I #
point $-1 -40.915555284279918 -23.706597849624298 -9.1614819150366991 #
straight-curve $-1 -40.915555284279918 0 -9.1614819150366991 0 1 0 I I #
point $-1 -40.915555284279918 23.706597849624298 -9.1614819150366991 #
straight-curve $-1 -30.148851028924366 -10.099916768408086 9.1614819150366991 0 1 0 I I #
straight-curve $-1 -30.148851028924366 -10.099916768408086 -9.1614819150366991 0 -1 0 I I #
point $-1 -30.148851028924366 -23.706597849624302 -9.1614819150366991 #
point $-1 -30.148851028924366 -23.706597849624302 9.1614819150366991 #
straight-curve $-1 0 -23.706597849624298 -9.1614819150366991 -1 0 0 I I #
straight-curve $-1 0 -23.706597849624298 9.1614819150366991 1 0 0 I I #
vertex $-1 $649 $673 #
straight-curve $-1 -30.148851028924366 10.099916768408088 -9.1614819150366991 0 -1 0 I I #
edge $-1 $650 -9.1614819150366991 $647 9.1614819150366991 $587 $674 forward 7 unknown #
vertex $-1 $588 $675 #
straight-curve $-1 -30.148851028924366 10.099916768408088 9.1614819150366991 0 1 0 I I #
straight-curve $-1 0 23.706597849624298 9.1614819150366991 -1 0 0 I I #
straight-curve $-1 0 23.706597849624298 -9.1614819150366991 1 0 0 I I #
straight-curve $-1 40.915555284279918 -3.4728226959893114 59.221900019216143 0 0 -1 I I #
point $-1 40.915555284279918 -3.4728226959893114 9.1614819150366991 #
straight-curve $-1 40.915555284279918 -0.20203396982758015 2.9990379059089634 0 1 0 I I #
point $-1 40.915555284279925 -3.4728226959893114 2.9990379059089562 #
point $-1 36.386926354819082 -2.2453207934556509 4.9481955505417039 #
point $-1 36.386926354819082 -0.4040679396551603 4.9481955505417039 #
point $-1 36.386926354819082 1.4371849141453303 4.9481955505417039 #
straight-curve $-1 -40.915555284279918 -4.9334948830174774 34.921655185624964 0 0 -1 I I #
point $-1 -40.915555284279918 -4.9334948830174774 9.1614819150366991 #
straight-curve $-1 -40.915555284279918 -4.2760428603522511 0.44659320499930233 0 -1 0 I I #
point $-1 -40.915555284279918 -4.9334948830174774 0.44659320499930288 #
point $-1 -33.147307845750731 -10.102910365427514 3.531965422341671 #
point $-1 -33.147307845750731 -7.0012610759814926 3.531965422341671 #
straight-curve $-1 -40.915555284279918 12.170676558391525 34.921655185624964 0 0 -1 I I #
point $-1 -40.915555284279918 12.170676558391525 9.1614819150366991 #
straight-curve $-1 -40.915555284279918 4.2760428603522502 0.44659320499930233 0 -1 0 I I #
point $-1 -40.915555284279918 12.170676558391525 0.44659320499930288 #
point $-1 -33.147307845750731 7.0012610759814855 3.531965422341671 #
point $-1 -33.147307845750731 10.102910365427508 3.531965422341671 #
point $-1 -30.148851028924366 23.706597849624302 -9.1614819150366991 #
straight-curve $-1 -30.148851028924366 23.706597849624298 0 0 0 -1 I I #
point $-1 -30.148851028924366 23.706597849624302 9.1614819150366991 #
End-of-ACIS-data 