500 0 6 0           
7 Unknown 11 ACIS 5.0 NT 24 Fri Mar 26 15:48:37 1999 
-1 9.9999999999999995e-007 1e-010 
body $-1 $6 $-1 $7 #
body $-1 $8 $-1 $9 #
body $-1 $10 $-1 $11 #
body $-1 $12 $-1 $13 #
body $-1 $14 $-1 $15 #
body $-1 $16 $-1 $17 #
lump $-1 $-1 $18 $0 #
transform $-1 1 0 0 0 1 0 0 0 1 41.96417126987518 28.79592267125124 7.4043143062947534 1 rotate no_reflect no_shear #
lump $-1 $-1 $19 $1 #
transform $-1 1 0 0 0 1 0 0 0 1 41.96417126987518 28.79592267125124 7.4043143062947534 1 rotate no_reflect no_shear #
lump $-1 $-1 $20 $2 #
transform $-1 1 0 0 0 1 0 0 0 1 41.96417126987518 28.79592267125124 7.4043143062947534 1 rotate no_reflect no_shear #
lump $-1 $-1 $21 $3 #
transform $-1 1 0 0 0 1 0 0 0 1 41.96417126987518 28.79592267125124 7.4043143062947534 1 rotate no_reflect no_shear #
lump $-1 $-1 $22 $4 #
transform $-1 1 0 0 0 1 0 0 0 1 41.96417126987518 28.79592267125124 7.4043143062947534 1 rotate no_reflect no_shear #
lump $-1 $-1 $23 $5 #
transform $-1 1 0 0 0 1 0 0 0 1 41.96417126987518 28.79592267125124 7.4043143062947534 1 rotate no_reflect no_shear #
shell $-1 $-1 $-1 $24 $-1 $6 #
shell $-1 $-1 $-1 $25 $-1 $8 #
shell $-1 $-1 $-1 $26 $-1 $10 #
shell $-1 $-1 $-1 $27 $-1 $12 #
shell $-1 $-1 $-1 $28 $-1 $14 #
shell $-1 $-1 $-1 $29 $-1 $16 #
face $-1 $30 $31 $18 $-1 $32 forward single #
face $-1 $33 $34 $19 $-1 $35 forward single #
face $-1 $36 $37 $20 $-1 $38 reversed single #
face $-1 $39 $40 $21 $-1 $41 forward single #
face $-1 $42 $43 $22 $-1 $44 reversed single #
face $-1 $45 $46 $23 $-1 $47 forward single #
face $-1 $48 $49 $18 $-1 $50 reversed single #
loop $-1 $-1 $51 $24 #
plane-surface $-1 0 0 7.4043143062947534 0 0 1 1 0 0 forward_v I I I I #
face $-1 $52 $53 $19 $-1 $54 reversed single #
loop $-1 $-1 $55 $25 #
plane-surface $-1 0 -28.79592267125124 0 0 1 0 0 0 1 forward_v I I I I #
face $-1 $56 $57 $20 $-1 $58 reversed single #
loop $-1 $-1 $59 $26 #
plane-surface $-1 46.106484719676843 -12.373950301592441 120.96015929406668 0 -1 0 -0.73135370988377701 0 -0.68199835119979291 forward_v I I I I #
face $-1 $60 $61 $21 $-1 $62 forward single #
loop $-1 $63 $64 $27 #
cone-surface $-1 38.978937970558626 -15.873775139633313 4.2902974409392733 -0.73135370988377701 0 -0.68199835119979291 1.0229975267996894 0 -1.0970305648256655 1 I I 0 1 1.5 forward I I I I #
face $-1 $65 $66 $22 $-1 $67 reversed single #
loop $-1 $-1 $68 $28 #
plane-surface $-1 -103.34547595071803 -19.373599977674186 59.578854613223839 0 1 0 -0.73135370988377701 0 0.68199835119979291 forward_v I I I I #
face $-1 $69 $70 $23 $-1 $71 forward single #
loop $-1 $72 $73 $29 #
cone-surface $-1 -38.978937970558626 -15.873775139633313 4.2902974409392804 0.73135370988377701 0 -0.68199835119979291 1.0229975267996894 0 1.0970305648256655 1 I I 0 1 1.5 forward I I I I #
face $-1 $74 $75 $18 $-1 $76 reversed single #
loop $-1 $-1 $77 $30 #
plane-surface $-1 0 0 -7.4043143062947534 0 0 1 1 0 0 forward_v I I I I #
coedge $-1 $78 $79 $80 $81 forward $31 $-1 #
face $-1 $82 $83 $19 $-1 $84 reversed single #
loop $-1 $-1 $85 $33 #
plane-surface $-1 0 0 -7.4043143062947534 0 0 1 1 0 0 forward_v I I I I #
coedge $-1 $86 $87 $88 $89 forward $34 $-1 #
face $-1 $90 $91 $20 $-1 $92 reversed single #
loop $-1 $-1 $93 $36 #
plane-surface $-1 -15.274819961166003 -15.873775139633313 63.721168063025502 0.73135370988377701 0 0.68199835119979291 0.68199835119979291 0 -0.73135370988377701 forward_v I I I I #
coedge $-1 $94 $95 $96 $97 reversed $37 $-1 #
face $-1 $-1 $98 $21 $-1 $99 forward single #
loop $-1 $100 $101 $39 #
cone-surface $-1 37.806527776328224 -15.873775139633313 3.1970072742400051 -0.73135370988377701 0 -0.68199835119979291 0.51149876339984468 0 -0.54851528241283276 1 I I -0.70710678118654724 0.70710678118654768 0.75 forward I I I I #
loop $-1 $-1 $102 $27 #
coedge $-1 $64 $64 $103 $104 reversed $40 $-1 #
face $-1 $105 $106 $22 $-1 $107 reversed single #
loop $-1 $-1 $108 $42 #
plane-surface $-1 -41.96417126987518 -15.873775139633313 2.3398633821826564 -0.73135370988377701 0 0.68199835119979291 0.68199835119979291 0 0.73135370988377701 forward_v I I I I #
coedge $-1 $109 $110 $111 $112 reversed $43 $-1 #
face $-1 $-1 $113 $23 $-1 $114 forward single #
loop $-1 $115 $116 $45 #
cone-surface $-1 -37.806527776328224 -15.873775139633313 3.1970072742400122 0.73135370988377701 0 -0.68199835119979291 0.51149876339984468 0 0.54851528241283276 1 I I -0.70710678118654724 0.70710678118654768 0.75 forward I I I I #
loop $-1 $-1 $117 $29 #
coedge $-1 $73 $73 $118 $119 reversed $46 $-1 #
face $-1 $120 $121 $18 $-1 $122 reversed single #
loop $-1 $-1 $123 $48 #
plane-surface $-1 0 -28.79592267125124 0 0 1 0 0 0 1 forward_v I I I I #
coedge $-1 $124 $125 $126 $127 forward $49 $-1 #
coedge $-1 $128 $51 $129 $130 forward $31 $-1 #
coedge $-1 $51 $128 $131 $132 forward $31 $-1 #
coedge $-1 $133 $134 $51 $81 reversed $135 $-1 #
edge $-1 $136 -28.79592267125124 $137 28.79592267125124 $80 $138 forward 7 unknown #
face $-1 $139 $140 $19 $-1 $141 forward single #
loop $-1 $-1 $142 $52 #
plane-surface $-1 41.96417126987518 0 0 -1 0 0 0 0 1 forward_v I I I I #
coedge $-1 $143 $144 $145 $146 forward $53 $-1 #
coedge $-1 $145 $55 $142 $147 reversed $34 $-1 #
coedge $-1 $55 $145 $148 $149 reversed $34 $-1 #
coedge $-1 $150 $151 $55 $89 reversed $140 $-1 #
edge $-1 $152 -41.96417126987518 $153 41.96417126987518 $88 $154 forward 7 unknown #
face $-1 $155 $156 $20 $-1 $157 reversed single #
loop $-1 $-1 $158 $56 #
plane-surface $-1 46.106484719676843 -19.373599977674186 120.96015929406668 0 1 0 0.73135370988377701 0 0.68199835119979291 forward_v I I I I #
coedge $-1 $159 $160 $161 $162 reversed $57 $-1 #
coedge $-1 $95 $59 $163 $164 reversed $37 $-1 #
coedge $-1 $59 $94 $159 $165 reversed $37 $-1 #
coedge $-1 $161 $166 $59 $97 forward $167 $-1 #
edge $-1 $168 -18.910928910036759 $169 -14.188252135038795 $96 $170 forward 7 unknown #
loop $-1 $-1 $103 $60 #
plane-surface $-1 -15.274819961166003 -15.873775139633313 63.721168063025502 0.73135370988377701 0 0.68199835119979291 0.68199835119979291 0 -0.73135370988377701 forward_v I I I I #
loop $-1 $-1 $171 $39 #
coedge $-1 $101 $101 $102 $172 reversed $61 $-1 #
coedge $-1 $102 $102 $101 $172 forward $63 $-1 #
coedge $-1 $103 $103 $64 $104 forward $98 $-1 #
edge $-1 $173 0 $173 6.2831853071796004 $103 $174 forward 7 unknown #
face $-1 $175 $176 $22 $-1 $177 forward single #
loop $-1 $-1 $178 $65 #
plane-surface $-1 -103.34547595071803 -12.373950301592441 59.578854613223839 0 -1 0 0.73135370988377701 0 -0.68199835119979291 forward_v I I I I #
coedge $-1 $179 $180 $181 $182 reversed $66 $-1 #
coedge $-1 $110 $68 $183 $184 reversed $43 $-1 #
coedge $-1 $68 $109 $179 $185 reversed $43 $-1 #
coedge $-1 $181 $186 $68 $112 forward $176 $-1 #
edge $-1 $187 9.7085667054838325 $188 14.431243480481804 $111 $189 forward 7 unknown #
loop $-1 $-1 $118 $69 #
plane-surface $-1 -41.96417126987518 -15.873775139633313 2.3398633821826564 -0.73135370988377701 0 0.68199835119979291 0.68199835119979291 0 0.73135370988377701 forward_v I I I I #
loop $-1 $-1 $190 $45 #
coedge $-1 $116 $116 $117 $191 reversed $70 $-1 #
coedge $-1 $117 $117 $116 $191 forward $72 $-1 #
coedge $-1 $118 $118 $73 $119 forward $113 $-1 #
edge $-1 $192 0 $192 6.2831853071796004 $118 $193 forward 7 unknown #
face $-1 $194 $195 $18 $-1 $196 reversed single #
loop $-1 $-1 $197 $74 #
plane-surface $-1 -41.96417126987518 0 0 1 0 0 0 0 -1 forward_v I I I I #
coedge $-1 $131 $198 $133 $199 reversed $75 $-1 #
coedge $-1 $200 $77 $198 $201 forward $49 $-1 #
coedge $-1 $77 $200 $202 $203 forward $49 $-1 #
coedge $-1 $134 $133 $77 $127 reversed $135 $-1 #
edge $-1 $204 -28.79592267125124 $205 28.79592267125124 $126 $206 forward 7 unknown #
coedge $-1 $79 $78 $207 $208 forward $31 $-1 #
coedge $-1 $209 $210 $78 $130 reversed $195 $-1 #
edge $-1 $137 -41.96417126987518 $211 41.96417126987518 $129 $212 forward 7 unknown #
coedge $-1 $213 $123 $79 $132 reversed $75 $-1 #
edge $-1 $214 -41.96417126987518 $136 41.96417126987518 $131 $215 forward 7 unknown #
coedge $-1 $126 $80 $123 $199 forward $135 $-1 #
coedge $-1 $80 $126 $209 $216 reversed $135 $-1 #
loop $-1 $-1 $133 $194 #
vertex $-1 $81 $217 #
vertex $-1 $81 $218 #
straight-curve $-1 41.96417126987518 0 7.4043143062947534 0 1 0 I I #
face $-1 $219 $220 $19 $-1 $221 reversed single #
loop $-1 $-1 $151 $82 #
plane-surface $-1 0 -33.50708401803977 -3.081127549949346 0 0 1 1 0 0 forward_v I I I I #
coedge $-1 $222 $223 $86 $147 forward $83 $-1 #
coedge $-1 $224 $85 $223 $225 forward $53 $-1 #
coedge $-1 $85 $224 $226 $227 forward $53 $-1 #
coedge $-1 $87 $86 $85 $146 reversed $34 $-1 #
edge $-1 $228 -41.96417126987518 $229 41.96417126987518 $85 $230 forward 7 unknown #
edge $-1 $229 -7.4043143062947534 $153 -3.081127549949346 $142 $231 forward 7 unknown #
coedge $-1 $226 $232 $87 $149 forward $233 $-1 #
edge $-1 $152 3.081127549949346 $228 7.4043143062947534 $148 $234 forward 7 unknown #
coedge $-1 $235 $88 $232 $236 forward $140 $-1 #
coedge $-1 $88 $235 $222 $237 forward $140 $-1 #
vertex $-1 $149 $238 #
vertex $-1 $237 $239 #
straight-curve $-1 0 -28.79592267125124 -3.081127549949346 1 0 0 I I #
face $-1 $-1 $167 $20 $-1 $240 forward single #
loop $-1 $-1 $241 $90 #
plane-surface $-1 41.96417126987518 0 0 -1 0 0 0 0 1 forward_v I I I I #
coedge $-1 $242 $243 $244 $245 reversed $91 $-1 #
coedge $-1 $246 $93 $95 $165 forward $57 $-1 #
coedge $-1 $93 $246 $242 $247 forward $57 $-1 #
coedge $-1 $244 $96 $93 $162 forward $167 $-1 #
edge $-1 $169 4.437062731775784 $248 11.436712407857529 $161 $249 forward 7 unknown #
coedge $-1 $250 $251 $94 $164 forward $156 $-1 #
edge $-1 $252 -58.140216264850686 $168 -53.075765340738592 $163 $253 forward 7 unknown #
edge $-1 $169 77.00357979407849 $252 83.928342539750361 $95 $254 forward 7 unknown #
coedge $-1 $96 $244 $250 $255 forward $167 $-1 #
loop $-1 $-1 $244 $155 #
vertex $-1 $164 $256 #
vertex $-1 $97 $257 #
straight-curve $-1 23.053242359838421 -12.373950301592441 7.4043143062947507 -1 0 0 I I #
coedge $-1 $171 $171 $-1 $258 reversed $100 $-1 #
edge $-1 $259 0 $259 6.2831853071796004 $101 $260 forward 7 unknown #
vertex $-1 $104 $261 #
ellipse-curve $-1 39.602832882376205 -15.873775139633313 4.8720888442387045 0.73135370988377701 0 0.68199835119979291 1.0229975267996894 0 -1.0970305648256655 1 I I #
face $-1 $-1 $262 $22 $-1 $263 reversed single #
loop $-1 $-1 $111 $105 #
plane-surface $-1 0 0 7.4043143062947534 0 0 1 1 0 0 forward_v I I I I #
coedge $-1 $264 $265 $266 $267 reversed $106 $-1 #
coedge $-1 $268 $108 $110 $185 forward $66 $-1 #
coedge $-1 $108 $268 $264 $269 forward $66 $-1 #
coedge $-1 $266 $111 $108 $182 forward $176 $-1 #
edge $-1 $188 -11.436712407857529 $270 -4.437062731775784 $181 $271 forward 7 unknown #
coedge $-1 $272 $273 $109 $184 forward $262 $-1 #
edge $-1 $274 -27.449563924429263 $187 -22.385113000317165 $183 $275 forward 7 unknown #
edge $-1 $188 -6.9247627456718774 $274 0 $110 $276 forward 7 unknown #
coedge $-1 $111 $266 $272 $277 forward $176 $-1 #
vertex $-1 $184 $278 #
vertex $-1 $112 $279 #
straight-curve $-1 -51.672737975359013 -19.373599977674186 7.4043143062947543 1 0 0 I I #
coedge $-1 $190 $190 $-1 $280 reversed $115 $-1 #
edge $-1 $281 0 $281 6.2831853071796004 $116 $282 forward 7 unknown #
vertex $-1 $119 $283 #
ellipse-curve $-1 -39.602832882376198 -15.873775139633313 4.8720888442387045 -0.73135370988377701 0 0.68199835119979291 1.0229975267996894 0 1.0970305648256655 1 I I #
face $-1 $-1 $135 $18 $-1 $284 reversed single #
loop $-1 $-1 $209 $120 #
plane-surface $-1 0 28.79592267125124 0 0 -1 0 0 0 -1 forward_v I I I I #
coedge $-1 $285 $207 $210 $286 forward $121 $-1 #
coedge $-1 $123 $213 $124 $201 reversed $75 $-1 #
edge $-1 $136 -7.4043143062947534 $205 7.4043143062947534 $133 $287 forward 7 unknown #
coedge $-1 $125 $124 $285 $288 forward $49 $-1 #
edge $-1 $205 -41.96417126987518 $289 41.96417126987518 $198 $290 forward 7 unknown #
coedge $-1 $210 $209 $125 $203 reversed $195 $-1 #
edge $-1 $291 -41.96417126987518 $204 41.96417126987518 $202 $292 forward 7 unknown #
vertex $-1 $127 $293 #
vertex $-1 $199 $294 #
straight-curve $-1 41.96417126987518 0 -7.4043143062947534 0 -1 0 I I #
coedge $-1 $197 $295 $128 $208 reversed $121 $-1 #
edge $-1 $211 -28.79592267125124 $214 28.79592267125124 $207 $296 forward 7 unknown #
coedge $-1 $202 $129 $134 $216 forward $195 $-1 #
coedge $-1 $129 $202 $197 $286 reversed $195 $-1 #
vertex $-1 $130 $297 #
straight-curve $-1 0 28.79592267125124 7.4043143062947534 -1 0 0 I I #
coedge $-1 $198 $131 $295 $298 forward $75 $-1 #
vertex $-1 $208 $299 #
straight-curve $-1 0 -28.79592267125124 7.4043143062947534 1 0 0 I I #
edge $-1 $137 -7.4043143062947534 $204 7.4043143062947534 $134 $300 forward 7 unknown #
point $-1 41.96417126987518 -28.79592267125124 7.4043143062947534 #
point $-1 41.96417126987518 28.79592267125124 7.4043143062947534 #
face $-1 $-1 $233 $19 $-1 $301 reversed single #
loop $-1 $-1 $302 $139 #
plane-surface $-1 0 -38.218245364828299 -5.2427209281220497 0 1 0 0 0 1 forward_v I I I I #
coedge $-1 $303 $142 $151 $237 reversed $83 $-1 #
coedge $-1 $142 $303 $143 $225 reversed $83 $-1 #
coedge $-1 $144 $143 $304 $305 forward $53 $-1 #
edge $-1 $229 28.79592267125124 $306 38.218245364828299 $223 $307 forward 7 unknown #
coedge $-1 $308 $148 $144 $227 reversed $233 $-1 #
edge $-1 $309 -38.218245364828299 $228 -28.79592267125124 $226 $310 forward 7 unknown #
vertex $-1 $149 $311 #
vertex $-1 $225 $312 #
straight-curve $-1 0 -28.79592267125124 -7.4043143062947534 1 0 0 I I #
straight-curve $-1 41.96417126987518 -28.79592267125124 0 0 0 1 I I #
coedge $-1 $148 $308 $150 $236 reversed $233 $-1 #
loop $-1 $-1 $148 $219 #
straight-curve $-1 -41.96417126987518 -28.79592267125124 0 0 0 -1 I I #
coedge $-1 $151 $150 $313 $314 forward $140 $-1 #
edge $-1 $152 -4.7111613467885292 $315 4.7111613467885292 $232 $316 forward 7 unknown #
edge $-1 $317 -4.7111613467885292 $153 4.7111613467885292 $222 $318 forward 7 unknown #
point $-1 -41.96417126987518 -28.79592267125124 -3.081127549949346 #
point $-1 41.96417126987518 -28.79592267125124 -3.081127549949346 #
plane-surface $-1 0 0 7.4043143062947534 0 0 1 1 0 0 forward_v I I I I #
coedge $-1 $251 $250 $243 $319 forward $156 $-1 #
coedge $-1 $243 $158 $160 $247 reversed $91 $-1 #
coedge $-1 $158 $242 $241 $319 reversed $91 $-1 #
coedge $-1 $166 $161 $158 $245 forward $167 $-1 #
edge $-1 $248 14.188252135038795 $320 18.910928910036759 $244 $321 forward 7 unknown #
coedge $-1 $160 $159 $251 $322 reversed $57 $-1 #
edge $-1 $323 -83.928342539750361 $248 -77.00357979407849 $242 $324 forward 7 unknown #
vertex $-1 $162 $325 #
straight-curve $-1 37.241494494877209 -7.9368875698166566 7.4043143062947507 0 -1 0 I I #
coedge $-1 $241 $163 $166 $255 reversed $156 $-1 #
coedge $-1 $163 $241 $246 $322 forward $156 $-1 #
vertex $-1 $164 $326 #
straight-curve $-1 41.96417126987518 -12.373950301592441 60.480079647033342 0 0 1 I I #
straight-curve $-1 -15.274819961166003 -12.373950301592441 63.721168063025502 0.68199835119979291 0 -0.73135370988377701 I I #
edge $-1 $320 -19.373599977674186 $168 -12.373950301592441 $250 $327 forward 7 unknown #
point $-1 41.96417126987518 -12.373950301592441 7.4043143062947534 #
point $-1 37.241494494877216 -12.373950301592441 7.4043143062947507 #
edge $-1 $328 1 $328 0 $171 $-1 forward 7 unknown #
vertex $-1 $172 $329 #
ellipse-curve $-1 38.35504305874106 -15.873775139633313 3.7085060376398502 0.73135370988377701 0 0.68199835119979291 1.0229975267996894 0 -1.0970305648256655 1 I I #
point $-1 40.625830409175883 -15.873775139633313 3.7750582794130318 #
loop $-1 $-1 $183 $175 #
plane-surface $-1 -41.96417126987518 0 0 1 0 0 0 0 -1 forward_v I I I I #
coedge $-1 $265 $178 $180 $269 reversed $106 $-1 #
coedge $-1 $178 $264 $330 $331 reversed $106 $-1 #
coedge $-1 $186 $181 $178 $267 forward $176 $-1 #
edge $-1 $270 -14.431243480481804 $332 -9.7085667054838325 $266 $333 forward 7 unknown #
coedge $-1 $180 $179 $273 $334 reversed $66 $-1 #
edge $-1 $335 0 $270 6.9247627456718774 $264 $336 forward 7 unknown #
vertex $-1 $182 $337 #
straight-curve $-1 -37.241494494877209 -7.9368875698166566 7.4043143062947534 0 1 0 I I #
coedge $-1 $330 $183 $186 $277 reversed $262 $-1 #
coedge $-1 $183 $330 $268 $334 forward $262 $-1 #
vertex $-1 $184 $338 #
straight-curve $-1 -41.96417126987518 -19.373599977674186 29.78942730661192 0 0 1 I I #
straight-curve $-1 -41.96417126987518 -19.373599977674186 2.3398633821826564 -0.68199835119979291 0 -0.73135370988377701 I I #
edge $-1 $332 12.373950301592441 $187 19.373599977674186 $272 $339 forward 7 unknown #
point $-1 -41.96417126987518 -19.373599977674186 7.4043143062947534 #
point $-1 -37.241494494877209 -19.373599977674186 7.4043143062947534 #
edge $-1 $340 1 $340 0 $190 $-1 forward 7 unknown #
vertex $-1 $191 $341 #
ellipse-curve $-1 -38.35504305874106 -15.873775139633313 3.7085060376398573 -0.73135370988377701 0 0.68199835119979291 1.0229975267996894 0 1.0970305648256655 1 I I #
point $-1 -38.579835355576506 -15.873775139633313 5.96911940906437 #
plane-surface $-1 41.96417126987518 0 0 -1 0 0 0 0 1 forward_v I I I I #
coedge $-1 $295 $197 $200 $288 reversed $121 $-1 #
edge $-1 $211 -7.4043143062947534 $291 7.4043143062947534 $210 $342 forward 7 unknown #
straight-curve $-1 41.96417126987518 -28.79592267125124 0 0 0 -1 I I #
edge $-1 $289 -28.79592267125124 $291 28.79592267125124 $285 $343 forward 7 unknown #
vertex $-1 $288 $344 #
straight-curve $-1 0 -28.79592267125124 -7.4043143062947534 -1 0 0 I I #
vertex $-1 $203 $345 #
straight-curve $-1 0 28.79592267125124 -7.4043143062947534 1 0 0 I I #
point $-1 41.96417126987518 28.79592267125124 -7.4043143062947534 #
point $-1 41.96417126987518 -28.79592267125124 -7.4043143062947534 #
coedge $-1 $207 $285 $213 $298 reversed $121 $-1 #
straight-curve $-1 -41.96417126987518 0 7.4043143062947534 0 -1 0 I I #
point $-1 -41.96417126987518 28.79592267125124 7.4043143062947534 #
edge $-1 $214 -7.4043143062947534 $289 7.4043143062947534 $295 $346 forward 7 unknown #
point $-1 -41.96417126987518 -28.79592267125124 7.4043143062947534 #
straight-curve $-1 41.96417126987518 28.79592267125124 0 0 0 -1 I I #
plane-surface $-1 -41.96417126987518 0 0 1 0 0 0 0 -1 forward_v I I I I #
coedge $-1 $304 $313 $308 $347 forward $220 $-1 #
coedge $-1 $223 $222 $348 $349 forward $83 $-1 #
coedge $-1 $348 $302 $224 $305 reversed $220 $-1 #
edge $-1 $306 -41.96417126987518 $309 41.96417126987518 $304 $350 forward 7 unknown #
vertex $-1 $349 $351 #
straight-curve $-1 41.96417126987518 0 -7.4043143062947534 0 -1 0 I I #
coedge $-1 $232 $226 $302 $347 reversed $233 $-1 #
vertex $-1 $227 $352 #
straight-curve $-1 -41.96417126987518 0 -7.4043143062947534 0 1 0 I I #
point $-1 -41.96417126987518 -28.79592267125124 -7.4043143062947534 #
point $-1 41.96417126987518 -28.79592267125124 -7.4043143062947534 #
coedge $-1 $302 $348 $235 $314 reversed $220 $-1 #
edge $-1 $315 -41.96417126987518 $317 41.96417126987518 $313 $353 forward 7 unknown #
vertex $-1 $236 $354 #
straight-curve $-1 -41.96417126987518 -33.50708401803977 -3.081127549949346 0 -1 0 I I #
vertex $-1 $237 $355 #
straight-curve $-1 41.96417126987518 -33.50708401803977 -3.081127549949346 0 1 0 I I #
edge $-1 $320 53.075765340738592 $323 58.140216264850686 $241 $356 forward 7 unknown #
vertex $-1 $255 $357 #
straight-curve $-1 23.053242359838421 -19.373599977674186 7.4043143062947507 1 0 0 I I #
edge $-1 $323 -11.436712407857529 $252 -4.437062731775784 $251 $358 forward 7 unknown #
vertex $-1 $322 $359 #
straight-curve $-1 -15.274819961166003 -19.373599977674186 63.721168063025502 -0.68199835119979291 0 0.73135370988377701 I I #
point $-1 37.241494494877216 -19.373599977674186 7.4043143062947507 #
point $-1 41.96417126987518 -12.373950301592441 2.3398633821826564 #
straight-curve $-1 41.96417126987518 0 7.4043143062947534 0 1 0 I I #
vertex $-1 $258 $360 #
point $-1 39.378040585540745 -15.873775139633313 2.6114754728141847 #
coedge $-1 $273 $272 $265 $331 forward $262 $-1 #
edge $-1 $332 22.385113000317165 $335 27.449563924429263 $330 $361 forward 7 unknown #
vertex $-1 $277 $362 #
straight-curve $-1 -51.672737975359013 -12.373950301592441 7.4043143062947543 -1 0 0 I I #
edge $-1 $335 4.437062731775784 $274 11.436712407857529 $273 $363 forward 7 unknown #
vertex $-1 $334 $364 #
straight-curve $-1 -41.96417126987518 -12.373950301592441 2.3398633821826564 0.68199835119979291 0 0.73135370988377701 I I #
point $-1 -37.241494494877209 -12.373950301592441 7.4043143062947534 #
point $-1 -41.96417126987518 -19.373599977674186 2.3398633821826564 #
straight-curve $-1 -41.96417126987518 0 7.4043143062947534 0 -1 0 I I #
vertex $-1 $280 $365 #
point $-1 -37.332045531941368 -15.873775139633313 4.8055366024655228 #
straight-curve $-1 -41.96417126987518 28.79592267125124 0 0 0 -1 I I #
straight-curve $-1 -41.96417126987518 0 -7.4043143062947534 0 1 0 I I #
point $-1 -41.96417126987518 -28.79592267125124 -7.4043143062947534 #
point $-1 -41.96417126987518 28.79592267125124 -7.4043143062947534 #
straight-curve $-1 -41.96417126987518 -28.79592267125124 0 0 0 -1 I I #
edge $-1 $315 -2.1615933781727037 $309 2.1615933781727037 $308 $366 forward 7 unknown #
coedge $-1 $313 $304 $303 $349 reversed $220 $-1 #
edge $-1 $317 -2.1615933781727037 $306 2.1615933781727037 $303 $367 forward 7 unknown #
straight-curve $-1 0 -38.218245364828299 -7.4043143062947534 -1 0 0 I I #
point $-1 41.96417126987518 -38.218245364828299 -7.4043143062947534 #
point $-1 -41.96417126987518 -38.218245364828299 -7.4043143062947534 #
straight-curve $-1 0 -38.218245364828299 -3.081127549949346 1 0 0 I I #
point $-1 -41.96417126987518 -38.218245364828299 -3.081127549949346 #
point $-1 41.96417126987518 -38.218245364828299 -3.081127549949346 #
straight-curve $-1 41.96417126987518 -19.373599977674186 60.480079647033342 0 0 -1 I I #
point $-1 41.96417126987518 -19.373599977674186 7.4043143062947534 #
straight-curve $-1 41.96417126987518 -7.9368875698166566 2.3398633821826671 0 1 0 I I #
point $-1 41.96417126987518 -19.373599977674186 2.3398633821826564 #
point $-1 37.258012493915388 -15.873775139633313 2.68550851084016 #
straight-curve $-1 -41.96417126987518 -12.373950301592441 29.78942730661192 0 0 -1 I I #
point $-1 -41.96417126987518 -12.373950301592441 7.4043143062947534 #
straight-curve $-1 -41.96417126987518 -7.9368875698166566 2.3398633821826529 0 -1 0 I I #
point $-1 -41.96417126987518 -12.373950301592441 2.3398633821826564 #
point $-1 -37.258012493915388 -15.873775139633313 2.6855085108401671 #
straight-curve $-1 -41.96417126987518 -38.218245364828299 -5.2427209281220497 0 0 -1 I I #
straight-curve $-1 41.96417126987518 -38.218245364828299 -5.2427209281220497 0 0 -1 I I #
End-of-ACIS-data 