500 0 6 0           
7 Unknown 11 ACIS 5.0 NT 24 Thu Mar 25 23:24:11 1999 
-1 9.9999999999999995e-007 1e-010 
body $-1 $6 $-1 $7 #
body $-1 $8 $-1 $9 #
body $-1 $10 $-1 $11 #
body $-1 $12 $-1 $13 #
body $-1 $14 $-1 $15 #
body $-1 $16 $-1 $17 #
lump $-1 $-1 $18 $0 #
transform $-1 1 0 0 0 1 0 0 0 1 52.823877681814018 36.627048583355645 10.47996136336103 1 rotate no_reflect no_shear #
lump $-1 $-1 $19 $1 #
transform $-1 1 0 0 0 1 0 0 0 1 52.823877681814018 36.627048583355645 10.47996136336103 1 rotate no_reflect no_shear #
lump $-1 $-1 $20 $2 #
transform $-1 1 0 0 0 1 0 0 0 1 52.823877681814018 36.627048583355645 10.47996136336103 1 rotate no_reflect no_shear #
lump $-1 $-1 $21 $3 #
transform $-1 1 0 0 0 1 0 0 0 1 52.823877681814018 36.627048583355645 10.47996136336103 1 rotate no_reflect no_shear #
lump $-1 $-1 $22 $4 #
transform $-1 1 0 0 0 1 0 0 0 1 52.823877681814018 36.627048583355645 10.47996136336103 1 rotate no_reflect no_shear #
lump $-1 $-1 $23 $5 #
transform $-1 1 0 0 0 1 0 0 0 1 52.823877681814018 36.627048583355645 10.47996136336103 1 rotate no_reflect no_shear #
shell $-1 $-1 $-1 $24 $-1 $6 #
shell $-1 $-1 $-1 $25 $-1 $8 #
shell $-1 $-1 $-1 $26 $-1 $10 #
shell $-1 $-1 $-1 $27 $-1 $12 #
shell $-1 $-1 $-1 $28 $-1 $14 #
shell $-1 $-1 $-1 $29 $-1 $16 #
face $-1 $30 $31 $18 $-1 $32 forward single #
face $-1 $33 $34 $19 $-1 $35 forward single #
face $-1 $36 $37 $20 $-1 $38 reversed single #
face $-1 $39 $40 $21 $-1 $41 forward single #
face $-1 $42 $43 $22 $-1 $44 reversed single #
face $-1 $45 $46 $23 $-1 $47 forward single #
face $-1 $48 $49 $18 $-1 $50 reversed single #
loop $-1 $-1 $51 $24 #
plane-surface $-1 0 0 10.47996136336103 0 0 1 1 0 0 forward_v I I I I #
face $-1 $52 $53 $19 $-1 $54 reversed single #
loop $-1 $-1 $55 $25 #
plane-surface $-1 -52.823877681814018 0 0 1 0 0 0 0 -1 forward_v I I I I #
face $-1 $56 $57 $20 $-1 $58 reversed single #
loop $-1 $-1 $59 $26 #
plane-surface $-1 -45.54191809075499 72.630479549093863 130.32057121193293 1 0 0 0 -0.77714596973225614 -0.62932038083071107 forward_v I I I I #
face $-1 $60 $61 $21 $-1 $62 forward single #
loop $-1 $63 $64 $27 #
cone-surface $-1 -31.943710644214431 34.472276126618731 8.11974851553693 0 -0.77714596973225614 -0.62932038083071107 0.5 0 0 1 I I 0 1 0.5 forward I I I I #
face $-1 $65 $66 $22 $-1 $67 reversed single #
loop $-1 $-1 $68 $28 #
plane-surface $-1 -18.345503197673871 -118.73077587545852 73.391444832448187 -1 0 0 0 -0.77714596973225614 0.62932038083071107 forward_v I I I I #
face $-1 $69 $70 $23 $-1 $71 forward single #
loop $-1 $72 $73 $29 #
cone-surface $-1 -31.943710644214431 -34.472276126618723 8.11974851553693 0 0.77714596973225614 -0.62932038083071107 0.5 0 0 1 I I 0 1 0.5 forward I I I I #
face $-1 $74 $75 $18 $-1 $76 reversed single #
loop $-1 $-1 $77 $30 #
plane-surface $-1 0 0 -10.47996136336103 0 0 1 1 0 0 forward_v I I I I #
coedge $-1 $78 $79 $80 $81 forward $31 $-1 #
face $-1 $82 $83 $19 $-1 $84 forward single #
loop $-1 $-1 $85 $33 #
plane-surface $-1 0 36.627048583355645 0 0 -1 0 0 0 -1 forward_v I I I I #
coedge $-1 $86 $87 $88 $89 forward $34 $-1 #
face $-1 $90 $91 $20 $-1 $92 reversed single #
loop $-1 $-1 $93 $36 #
plane-surface $-1 -31.943710644214431 -9.4732477430090114 63.834285572584733 0 0.77714596973225614 0.62932038083071107 1 0 0 forward_v I I I I #
coedge $-1 $94 $95 $96 $97 reversed $37 $-1 #
face $-1 $-1 $98 $21 $-1 $99 forward single #
loop $-1 $100 $101 $39 #
cone-surface $-1 -31.943710644214431 33.570625998186884 7.3896066576356656 0 -0.77714596973225614 -0.62932038083071107 0.25 0 0 1 I I -0.70710678118654746 0.70710678118654746 0.25 forward I I I I #
loop $-1 $-1 $102 $27 #
coedge $-1 $64 $64 $103 $104 reversed $40 $-1 #
face $-1 $105 $106 $22 $-1 $107 reversed single #
loop $-1 $-1 $108 $42 #
plane-surface $-1 -31.943710644214431 -36.627048583355645 6.9051591930999905 0 -0.77714596973225614 0.62932038083071107 1 0 0 forward_v I I I I #
coedge $-1 $109 $110 $111 $112 reversed $43 $-1 #
face $-1 $-1 $113 $23 $-1 $114 forward single #
loop $-1 $115 $116 $45 #
cone-surface $-1 -31.943710644214431 -33.570625998186877 7.3896066576356656 0 0.77714596973225614 -0.62932038083071107 0.25 0 0 1 I I -0.70710678118654746 0.70710678118654746 0.25 forward I I I I #
loop $-1 $-1 $117 $29 #
coedge $-1 $73 $73 $118 $119 reversed $46 $-1 #
face $-1 $120 $121 $18 $-1 $122 reversed single #
loop $-1 $-1 $123 $48 #
plane-surface $-1 0 -36.627048583355645 0 0 1 0 0 0 1 forward_v I I I I #
coedge $-1 $124 $125 $126 $127 forward $49 $-1 #
coedge $-1 $128 $51 $129 $130 forward $31 $-1 #
coedge $-1 $51 $128 $131 $132 forward $31 $-1 #
coedge $-1 $133 $134 $51 $81 reversed $135 $-1 #
edge $-1 $136 -36.627048583355645 $137 36.627048583355645 $80 $138 forward 7 unknown #
face $-1 $139 $140 $19 $-1 $141 reversed single #
loop $-1 $-1 $88 $52 #
plane-surface $-1 -56.464857477343536 0 -6.5474891520792777 0 0 1 1 0 0 forward_v I I I I #
coedge $-1 $142 $143 $87 $144 forward $53 $-1 #
coedge $-1 $145 $55 $146 $147 reversed $34 $-1 #
coedge $-1 $55 $145 $85 $144 reversed $34 $-1 #
coedge $-1 $148 $149 $55 $89 reversed $83 $-1 #
edge $-1 $150 -36.627048583355645 $151 36.627048583355645 $88 $152 forward 7 unknown #
face $-1 $153 $154 $20 $-1 $155 forward single #
loop $-1 $-1 $156 $56 #
plane-surface $-1 -18.345503197673871 72.630479549093863 130.32057121193293 -1 0 0 0 0.77714596973225614 0.62932038083071107 forward_v I I I I #
coedge $-1 $157 $158 $159 $160 reversed $57 $-1 #
coedge $-1 $95 $59 $161 $162 reversed $37 $-1 #
coedge $-1 $59 $94 $157 $163 reversed $37 $-1 #
coedge $-1 $159 $164 $59 $97 forward $154 $-1 #
edge $-1 $165 -0.31180880880871342 $166 2.5830088326675806 $96 $167 forward 7 unknown #
loop $-1 $-1 $103 $60 #
plane-surface $-1 -31.943710644214431 -9.4732477430090114 63.834285572584733 0 0.77714596973225614 0.62932038083071107 1 0 0 forward_v I I I I #
loop $-1 $-1 $168 $39 #
coedge $-1 $101 $101 $102 $169 reversed $61 $-1 #
coedge $-1 $102 $102 $101 $169 forward $63 $-1 #
coedge $-1 $103 $103 $64 $104 forward $98 $-1 #
edge $-1 $170 1.3204983000468654e-015 $170 6.2831853071796013 $103 $171 forward 7 unknown #
face $-1 $172 $173 $22 $-1 $174 reversed single #
loop $-1 $-1 $175 $65 #
plane-surface $-1 -45.54191809075499 -118.73077587545852 73.391444832448187 1 0 0 0 0.77714596973225614 -0.62932038083071107 forward_v I I I I #
coedge $-1 $176 $177 $178 $179 reversed $66 $-1 #
coedge $-1 $110 $68 $180 $181 reversed $43 $-1 #
coedge $-1 $68 $109 $176 $182 reversed $43 $-1 #
coedge $-1 $178 $183 $68 $112 forward $184 $-1 #
edge $-1 $185 22.738339354373615 $186 25.633156995849902 $111 $187 forward 7 unknown #
loop $-1 $-1 $118 $69 #
plane-surface $-1 -31.943710644214431 -36.627048583355645 6.9051591930999905 0 -0.77714596973225614 0.62932038083071107 1 0 0 forward_v I I I I #
loop $-1 $-1 $188 $45 #
coedge $-1 $116 $116 $117 $189 reversed $70 $-1 #
coedge $-1 $117 $117 $116 $189 forward $72 $-1 #
coedge $-1 $118 $118 $73 $119 forward $113 $-1 #
edge $-1 $190 -3.4212262671158982e-015 $190 6.2831853071795969 $118 $191 forward 7 unknown #
face $-1 $192 $193 $18 $-1 $194 reversed single #
loop $-1 $-1 $195 $74 #
plane-surface $-1 -52.823877681814018 0 0 1 0 0 0 0 -1 forward_v I I I I #
coedge $-1 $196 $131 $195 $197 forward $75 $-1 #
coedge $-1 $198 $77 $196 $199 forward $49 $-1 #
coedge $-1 $77 $198 $200 $201 forward $49 $-1 #
coedge $-1 $134 $133 $77 $127 reversed $135 $-1 #
edge $-1 $202 -36.627048583355645 $203 36.627048583355645 $126 $204 forward 7 unknown #
coedge $-1 $79 $78 $205 $206 forward $31 $-1 #
coedge $-1 $207 $208 $78 $130 reversed $193 $-1 #
edge $-1 $137 -52.823877681814018 $209 52.823877681814018 $129 $210 forward 7 unknown #
coedge $-1 $123 $211 $79 $132 reversed $75 $-1 #
edge $-1 $212 -52.823877681814018 $136 52.823877681814018 $131 $213 forward 7 unknown #
coedge $-1 $126 $80 $211 $214 forward $135 $-1 #
coedge $-1 $80 $126 $207 $215 reversed $135 $-1 #
loop $-1 $-1 $133 $192 #
vertex $-1 $81 $216 #
vertex $-1 $81 $217 #
straight-curve $-1 52.823877681814018 0 10.47996136336103 0 1 0 I I #
face $-1 $218 $219 $19 $-1 $220 reversed single #
loop $-1 $-1 $221 $82 #
plane-surface $-1 -60.105837272873053 0 -8.5137252577201536 1 0 0 0 0 -1 forward_v I I I I #
coedge $-1 $222 $85 $223 $224 reversed $53 $-1 #
coedge $-1 $85 $222 $148 $225 reversed $53 $-1 #
edge $-1 $150 6.5474891520792777 $226 10.47996136336103 $85 $227 forward 7 unknown #
coedge $-1 $87 $86 $228 $229 reversed $34 $-1 #
coedge $-1 $230 $231 $86 $147 forward $232 $-1 #
edge $-1 $233 -10.47996136336103 $151 -6.5474891520792777 $146 $234 forward 7 unknown #
coedge $-1 $235 $88 $143 $225 forward $83 $-1 #
coedge $-1 $88 $235 $230 $236 forward $83 $-1 #
vertex $-1 $144 $237 #
vertex $-1 $236 $238 #
straight-curve $-1 -52.823877681814018 0 -6.5474891520792777 0 -1 0 I I #
face $-1 $-1 $239 $20 $-1 $240 reversed single #
loop $-1 $-1 $96 $90 #
plane-surface $-1 0 0 10.47996136336103 0 0 1 1 0 0 forward_v I I I I #
coedge $-1 $241 $242 $243 $244 reversed $91 $-1 #
coedge $-1 $245 $93 $95 $163 forward $57 $-1 #
coedge $-1 $93 $245 $241 $246 forward $57 $-1 #
coedge $-1 $243 $96 $93 $160 forward $154 $-1 #
edge $-1 $166 -29.570062768647773 $247 -2.3736478755666557 $159 $248 forward 7 unknown #
coedge $-1 $249 $250 $94 $162 forward $239 $-1 #
edge $-1 $251 -58.255126412866481 $165 -54.680324242605437 $161 $252 forward 7 unknown #
edge $-1 $166 68.654186326933456 $251 73.254097166711276 $95 $253 forward 7 unknown #
coedge $-1 $96 $243 $249 $254 forward $154 $-1 #
vertex $-1 $162 $255 #
vertex $-1 $97 $256 #
straight-curve $-1 -45.54191809075499 36.315239774546932 10.479961363361028 0 -1 0 I I #
coedge $-1 $168 $168 $-1 $257 reversed $100 $-1 #
edge $-1 $258 0 $258 6.2831853071796004 $101 $259 forward 7 unknown #
vertex $-1 $104 $260 #
ellipse-curve $-1 -31.943710644214431 35.179639762617498 8.6925602782305056 0 0.77714596973225614 0.62932038083071107 0.5 0 0 1 I I #
face $-1 $-1 $184 $22 $-1 $261 forward single #
loop $-1 $-1 $262 $105 #
plane-surface $-1 0 -36.627048583355645 0 0 1 0 0 0 1 forward_v I I I I #
coedge $-1 $263 $264 $265 $266 reversed $106 $-1 #
coedge $-1 $267 $108 $110 $182 forward $66 $-1 #
coedge $-1 $108 $267 $263 $268 forward $66 $-1 #
coedge $-1 $265 $111 $108 $179 forward $184 $-1 #
edge $-1 $186 2.3736478755666557 $269 29.570062768647773 $178 $270 forward 7 unknown #
coedge $-1 $271 $272 $109 $181 forward $173 $-1 #
edge $-1 $273 -29.790563223124103 $185 -26.215761052863066 $180 $274 forward 7 unknown #
edge $-1 $186 -4.5999108397778068 $273 0 $110 $275 forward 7 unknown #
coedge $-1 $111 $265 $271 $276 forward $184 $-1 #
loop $-1 $-1 $265 $172 #
vertex $-1 $181 $277 #
vertex $-1 $112 $278 #
straight-curve $-1 -18.345503197673871 -59.36538793772926 10.479961363361028 0 1 0 I I #
coedge $-1 $188 $188 $-1 $279 reversed $115 $-1 #
edge $-1 $280 0 $280 6.2831853071796004 $116 $281 forward 7 unknown #
vertex $-1 $119 $282 #
ellipse-curve $-1 -31.943710644214431 -35.179639762617498 8.6925602782305127 0 -0.77714596973225614 0.62932038083071107 0.5 0 0 1 I I #
face $-1 $-1 $135 $18 $-1 $283 reversed single #
loop $-1 $-1 $207 $120 #
plane-surface $-1 0 36.627048583355645 0 0 -1 0 0 0 -1 forward_v I I I I #
coedge $-1 $205 $284 $123 $197 reversed $121 $-1 #
coedge $-1 $211 $123 $124 $199 reversed $75 $-1 #
edge $-1 $212 -10.47996136336103 $285 10.47996136336103 $195 $286 forward 7 unknown #
coedge $-1 $125 $124 $284 $287 forward $49 $-1 #
edge $-1 $203 -52.823877681814018 $285 52.823877681814018 $196 $288 forward 7 unknown #
coedge $-1 $208 $207 $125 $201 reversed $193 $-1 #
edge $-1 $289 -52.823877681814018 $202 52.823877681814018 $200 $290 forward 7 unknown #
vertex $-1 $127 $291 #
vertex $-1 $214 $292 #
straight-curve $-1 52.823877681814018 0 -10.47996136336103 0 -1 0 I I #
coedge $-1 $293 $195 $128 $206 reversed $121 $-1 #
edge $-1 $209 -36.627048583355645 $212 36.627048583355645 $205 $294 forward 7 unknown #
coedge $-1 $200 $129 $134 $215 forward $193 $-1 #
coedge $-1 $129 $200 $293 $295 reversed $193 $-1 #
vertex $-1 $130 $296 #
straight-curve $-1 0 36.627048583355645 10.47996136336103 -1 0 0 I I #
coedge $-1 $131 $196 $133 $214 reversed $75 $-1 #
vertex $-1 $206 $297 #
straight-curve $-1 0 -36.627048583355645 10.47996136336103 1 0 0 I I #
edge $-1 $136 -10.47996136336103 $203 10.47996136336103 $133 $298 forward 7 unknown #
edge $-1 $137 -10.47996136336103 $202 10.47996136336103 $134 $299 forward 7 unknown #
point $-1 52.823877681814018 -36.627048583355645 10.47996136336103 #
point $-1 52.823877681814018 36.627048583355645 10.47996136336103 #
face $-1 $-1 $232 $19 $-1 $300 reversed single #
loop $-1 $-1 $228 $139 #
plane-surface $-1 0 0 -10.47996136336103 0 0 1 1 0 0 forward_v I I I I #
coedge $-1 $301 $302 $222 $303 forward $140 $-1 #
coedge $-1 $143 $142 $221 $303 reversed $53 $-1 #
coedge $-1 $228 $304 $142 $224 forward $219 $-1 #
edge $-1 $305 -60.105837272873053 $226 -52.823877681814018 $142 $306 forward 7 unknown #
edge $-1 $150 -3.6409797955295176 $307 3.6409797955295176 $143 $308 forward 7 unknown #
vertex $-1 $144 $309 #
straight-curve $-1 -52.823877681814018 36.627048583355645 0 0 0 -1 I I #
coedge $-1 $310 $223 $145 $229 forward $219 $-1 #
edge $-1 $226 -36.627048583355645 $233 36.627048583355645 $228 $311 forward 7 unknown #
coedge $-1 $312 $146 $149 $236 reversed $232 $-1 #
coedge $-1 $146 $312 $310 $313 reversed $232 $-1 #
loop $-1 $-1 $146 $218 #
vertex $-1 $313 $314 #
straight-curve $-1 -52.823877681814018 -36.627048583355645 0 0 0 1 I I #
coedge $-1 $149 $148 $302 $315 forward $83 $-1 #
edge $-1 $316 -3.6409797955295176 $151 3.6409797955295176 $230 $317 forward 7 unknown #
point $-1 -52.823877681814018 36.627048583355645 -6.5474891520792777 #
point $-1 -52.823877681814018 -36.627048583355645 -6.5474891520792777 #
loop $-1 $-1 $161 $153 #
plane-surface $-1 0 36.627048583355645 0 0 -1 0 0 0 -1 forward_v I I I I #
coedge $-1 $242 $156 $158 $246 reversed $91 $-1 #
coedge $-1 $156 $241 $318 $319 reversed $91 $-1 #
coedge $-1 $164 $159 $156 $244 forward $154 $-1 #
edge $-1 $247 -2.5830088326675806 $320 0.31180880880871342 $243 $321 forward 7 unknown #
coedge $-1 $158 $157 $250 $322 reversed $57 $-1 #
edge $-1 $323 -73.254097166711276 $247 -68.654186326933456 $241 $324 forward 7 unknown #
vertex $-1 $160 $325 #
straight-curve $-1 -15.971855322107215 33.732230941879351 10.479961363361028 1 0 0 I I #
coedge $-1 $318 $161 $164 $254 reversed $239 $-1 #
coedge $-1 $161 $318 $245 $322 forward $239 $-1 #
vertex $-1 $162 $326 #
straight-curve $-1 -45.54191809075499 36.627048583355645 65.160285605966465 0 0 1 I I #
straight-curve $-1 -45.54191809075499 -9.4732477430090114 63.834285572584733 0 0.62932038083071107 -0.77714596973225614 I I #
edge $-1 $320 18.345503197673871 $165 45.54191809075499 $249 $327 forward 7 unknown #
point $-1 -45.54191809075499 36.627048583355645 10.47996136336103 #
point $-1 -45.54191809075499 33.732230941879351 10.479961363361035 #
edge $-1 $328 1 $328 0 $168 $-1 forward 7 unknown #
vertex $-1 $169 $329 #
ellipse-curve $-1 -31.943710644214431 33.764912490619949 7.5469367528433438 0 0.77714596973225614 0.62932038083071107 0.5 0 0 1 I I #
point $-1 -31.443710644214431 35.179639762617512 8.6925602782305162 #
plane-surface $-1 0 0 10.47996136336103 0 0 1 1 0 0 forward_v I I I I #
coedge $-1 $272 $271 $264 $330 forward $173 $-1 #
coedge $-1 $264 $175 $177 $268 reversed $106 $-1 #
coedge $-1 $175 $263 $262 $330 reversed $106 $-1 #
coedge $-1 $183 $178 $175 $266 forward $184 $-1 #
edge $-1 $269 -25.633156995849902 $331 -22.738339354373615 $265 $332 forward 7 unknown #
coedge $-1 $177 $176 $272 $333 reversed $66 $-1 #
edge $-1 $334 0 $269 4.5999108397778068 $263 $335 forward 7 unknown #
vertex $-1 $179 $336 #
straight-curve $-1 -15.971855322107215 -33.732230941879358 10.47996136336103 -1 0 0 I I #
coedge $-1 $262 $180 $183 $276 reversed $173 $-1 #
coedge $-1 $180 $262 $267 $333 forward $173 $-1 #
vertex $-1 $181 $337 #
straight-curve $-1 -18.345503197673871 -36.627048583355645 36.695722416224093 0 0 1 I I #
straight-curve $-1 -18.345503197673871 -36.627048583355645 6.9051591930999905 0 -0.62932038083071107 -0.77714596973225614 I I #
edge $-1 $331 -45.54191809075499 $185 -18.345503197673871 $271 $338 forward 7 unknown #
point $-1 -18.345503197673871 -36.627048583355645 10.47996136336103 #
point $-1 -18.345503197673871 -33.732230941879358 10.47996136336103 #
edge $-1 $339 1 $339 0 $188 $-1 forward 7 unknown #
vertex $-1 $189 $340 #
ellipse-curve $-1 -31.943710644214431 -33.764912490619942 7.5469367528433438 0 -0.77714596973225614 0.62932038083071107 0.5 0 0 1 I I #
point $-1 -31.443710644214431 -35.179639762617505 8.6925602782305162 #
plane-surface $-1 52.823877681814018 0 0 -1 0 0 0 0 1 forward_v I I I I #
coedge $-1 $195 $293 $198 $287 reversed $121 $-1 #
vertex $-1 $287 $341 #
straight-curve $-1 -52.823877681814018 -36.627048583355645 0 0 0 -1 I I #
edge $-1 $285 -36.627048583355645 $289 36.627048583355645 $284 $342 forward 7 unknown #
straight-curve $-1 0 -36.627048583355645 -10.47996136336103 -1 0 0 I I #
vertex $-1 $201 $343 #
straight-curve $-1 0 36.627048583355645 -10.47996136336103 1 0 0 I I #
point $-1 52.823877681814018 36.627048583355645 -10.47996136336103 #
point $-1 52.823877681814018 -36.627048583355645 -10.47996136336103 #
coedge $-1 $284 $205 $208 $295 forward $121 $-1 #
straight-curve $-1 -52.823877681814018 0 10.47996136336103 0 -1 0 I I #
edge $-1 $209 -10.47996136336103 $289 10.47996136336103 $208 $344 forward 7 unknown #
point $-1 -52.823877681814018 36.627048583355645 10.47996136336103 #
point $-1 -52.823877681814018 -36.627048583355645 10.47996136336103 #
straight-curve $-1 52.823877681814018 -36.627048583355645 0 0 0 -1 I I #
straight-curve $-1 52.823877681814018 36.627048583355645 0 0 0 -1 I I #
plane-surface $-1 0 -36.627048583355645 0 0 1 0 0 0 1 forward_v I I I I #
coedge $-1 $345 $221 $304 $346 reversed $140 $-1 #
coedge $-1 $221 $345 $235 $315 reversed $140 $-1 #
edge $-1 $307 -1.9662361056408759 $305 1.9662361056408759 $222 $347 forward 7 unknown #
coedge $-1 $223 $310 $301 $346 forward $219 $-1 #
vertex $-1 $224 $348 #
straight-curve $-1 0 36.627048583355645 -10.47996136336103 1 0 0 I I #
vertex $-1 $225 $349 #
straight-curve $-1 -56.464857477343536 36.627048583355645 -6.5474891520792777 -1 0 0 I I #
point $-1 -52.823877681814018 36.627048583355645 -10.47996136336103 #
coedge $-1 $304 $228 $231 $313 forward $219 $-1 #
straight-curve $-1 -52.823877681814018 0 -10.47996136336103 0 -1 0 I I #
coedge $-1 $231 $230 $345 $350 forward $232 $-1 #
edge $-1 $233 -3.6409797955295176 $351 3.6409797955295176 $231 $352 forward 7 unknown #
point $-1 -52.823877681814018 -36.627048583355645 -10.47996136336103 #
edge $-1 $307 -36.627048583355645 $316 36.627048583355645 $302 $353 forward 7 unknown #
vertex $-1 $315 $354 #
straight-curve $-1 -56.464857477343536 -36.627048583355645 -6.5474891520792777 1 0 0 I I #
coedge $-1 $250 $249 $242 $319 forward $239 $-1 #
edge $-1 $320 54.680324242605437 $323 58.255126412866481 $318 $355 forward 7 unknown #
vertex $-1 $254 $356 #
straight-curve $-1 -18.345503197673871 36.315239774546932 10.479961363361028 0 1 0 I I #
edge $-1 $323 2.3736478755666557 $251 29.570062768647773 $250 $357 forward 7 unknown #
vertex $-1 $322 $358 #
straight-curve $-1 -18.345503197673871 -9.4732477430090114 63.834285572584733 0 -0.62932038083071107 0.77714596973225614 I I #
point $-1 -18.345503197673871 33.732230941879351 10.479961363361035 #
point $-1 -45.54191809075499 36.627048583355638 6.9051591930999834 #
straight-curve $-1 0 36.627048583355645 10.47996136336103 -1 0 0 I I #
vertex $-1 $257 $359 #
point $-1 -31.443710644214431 33.764912490619949 7.5469367528433438 #
edge $-1 $331 26.215761052863066 $334 29.790563223124103 $262 $360 forward 7 unknown #
vertex $-1 $276 $361 #
straight-curve $-1 -45.54191809075499 -59.36538793772926 10.479961363361028 0 -1 0 I I #
edge $-1 $334 -29.570062768647773 $273 -2.3736478755666557 $272 $362 forward 7 unknown #
vertex $-1 $333 $363 #
straight-curve $-1 -45.54191809075499 -36.627048583355645 6.9051591930999905 0 0.62932038083071107 0.77714596973225614 I I #
point $-1 -45.54191809075499 -33.732230941879358 10.47996136336103 #
point $-1 -18.345503197673871 -36.627048583355645 6.9051591930999905 #
straight-curve $-1 0 -36.627048583355645 10.47996136336103 1 0 0 I I #
vertex $-1 $279 $364 #
point $-1 -31.443710644214431 -33.764912490619942 7.5469367528433438 #
point $-1 -52.823877681814018 -36.627048583355645 -10.47996136336103 #
straight-curve $-1 -52.823877681814018 0 -10.47996136336103 0 1 0 I I #
point $-1 -52.823877681814018 36.627048583355645 -10.47996136336103 #
straight-curve $-1 -52.823877681814018 36.627048583355645 0 0 0 -1 I I #
coedge $-1 $302 $301 $312 $350 reversed $140 $-1 #
edge $-1 $351 -36.627048583355645 $305 36.627048583355645 $301 $365 forward 7 unknown #
straight-curve $-1 -60.105837272873053 36.627048583355645 -8.5137252577201536 0 0 -1 I I #
point $-1 -60.105837272873053 36.627048583355645 -10.47996136336103 #
point $-1 -60.105837272873053 36.627048583355645 -6.5474891520792777 #
edge $-1 $316 -1.9662361056408759 $351 1.9662361056408759 $345 $366 forward 7 unknown #
vertex $-1 $346 $367 #
straight-curve $-1 -56.464857477343536 -36.627048583355645 -10.47996136336103 -1 0 0 I I #
straight-curve $-1 -60.105837272873053 0 -6.5474891520792777 0 -1 0 I I #
point $-1 -60.105837272873053 -36.627048583355645 -6.5474891520792777 #
straight-curve $-1 -18.345503197673871 36.627048583355645 65.160285605966465 0 0 -1 I I #
point $-1 -18.345503197673871 36.627048583355645 10.47996136336103 #
straight-curve $-1 -15.971855322107215 36.627048583355645 6.9051591930999763 -1 0 0 I I #
point $-1 -18.345503197673871 36.627048583355638 6.9051591930999834 #
point $-1 -31.943710644214431 33.376339505753819 7.2322765624279874 #
straight-curve $-1 -45.54191809075499 -36.627048583355645 36.695722416224093 0 0 -1 I I #
point $-1 -45.54191809075499 -36.627048583355645 10.47996136336103 #
straight-curve $-1 -15.971855322107215 -36.627048583355645 6.9051591930999923 1 0 0 I I #
point $-1 -45.54191809075499 -36.627048583355645 6.9051591930999905 #
point $-1 -31.943710644214431 -33.376339505753812 7.2322765624279874 #
straight-curve $-1 -60.105837272873053 0 -10.47996136336103 0 1 0 I I #
straight-curve $-1 -60.105837272873053 -36.627048583355645 -8.5137252577201536 0 0 -1 I I #
point $-1 -60.105837272873053 -36.627048583355645 -10.47996136336103 #
End-of-ACIS-data 