500 0 9 0           
7 Unknown 11 ACIS 5.0 NT 24 Thu Mar 25 21:08:34 1999 
-1 9.9999999999999995e-007 1e-010 
body $-1 $9 $-1 $10 #
body $-1 $11 $-1 $12 #
body $-1 $13 $-1 $14 #
body $-1 $15 $-1 $16 #
body $-1 $17 $-1 $18 #
body $-1 $19 $-1 $20 #
body $-1 $21 $-1 $22 #
body $-1 $23 $-1 $24 #
body $-1 $25 $-1 $26 #
lump $-1 $-1 $27 $0 #
transform $-1 1 0 0 0 1 0 0 0 1 57.307657094027533 31.363642808358602 6.7456670641775958 1 rotate no_reflect no_shear #
lump $-1 $-1 $28 $1 #
transform $-1 1 0 0 0 1 0 0 0 1 57.307657094027533 31.363642808358602 6.7456670641775958 1 rotate no_reflect no_shear #
lump $-1 $-1 $29 $2 #
transform $-1 1 0 0 0 1 0 0 0 1 57.307657094027533 31.363642808358602 6.7456670641775958 1 rotate no_reflect no_shear #
lump $-1 $-1 $30 $3 #
transform $-1 1 0 0 0 1 0 0 0 1 57.307657094027533 31.363642808358602 6.7456670641775958 1 rotate no_reflect no_shear #
lump $-1 $-1 $31 $4 #
transform $-1 1 0 0 0 1 0 0 0 1 57.307657094027533 31.363642808358602 6.7456670641775958 1 rotate no_reflect no_shear #
lump $-1 $-1 $32 $5 #
transform $-1 1 0 0 0 1 0 0 0 1 57.307657094027533 31.363642808358602 6.7456670641775958 1 rotate no_reflect no_shear #
lump $-1 $-1 $33 $6 #
transform $-1 1 0 0 0 1 0 0 0 1 57.307657094027533 31.363642808358602 6.7456670641775958 1 rotate no_reflect no_shear #
lump $-1 $-1 $34 $7 #
transform $-1 1 0 0 0 1 0 0 0 1 57.307657094027533 31.363642808358602 6.7456670641775958 1 rotate no_reflect no_shear #
lump $-1 $-1 $35 $8 #
transform $-1 1 0 0 0 1 0 0 0 1 57.307657094027533 31.363642808358602 6.7456670641775958 1 rotate no_reflect no_shear #
shell $-1 $-1 $-1 $36 $-1 $9 #
shell $-1 $-1 $-1 $37 $-1 $11 #
shell $-1 $-1 $-1 $38 $-1 $13 #
shell $-1 $-1 $-1 $39 $-1 $15 #
shell $-1 $-1 $-1 $40 $-1 $17 #
shell $-1 $-1 $-1 $41 $-1 $19 #
shell $-1 $-1 $-1 $42 $-1 $21 #
shell $-1 $-1 $-1 $43 $-1 $23 #
shell $-1 $-1 $-1 $44 $-1 $25 #
face $-1 $45 $46 $27 $-1 $47 forward single #
face $-1 $48 $49 $28 $-1 $50 reversed single #
face $-1 $51 $52 $29 $-1 $53 reversed single #
face $-1 $54 $55 $30 $-1 $56 forward single #
face $-1 $57 $58 $31 $-1 $59 forward single #
face $-1 $60 $61 $32 $-1 $62 reversed single #
face $-1 $63 $64 $33 $-1 $65 forward single #
face $-1 $66 $67 $34 $-1 $68 forward single #
face $-1 $69 $70 $35 $-1 $71 forward single #
face $-1 $72 $73 $27 $-1 $74 reversed single #
loop $-1 $-1 $75 $36 #
plane-surface $-1 0 0 6.7456670641775958 0 0 1 1 0 0 forward_v I I I I #
face $-1 $76 $77 $28 $-1 $78 reversed single #
loop $-1 $-1 $79 $37 #
plane-surface $-1 -49.469333451452272 -28.642384677480273 0 1 0 0 0 0 -1 forward_v I I I I #
face $-1 $80 $81 $29 $-1 $82 reversed single #
loop $-1 $-1 $83 $38 #
plane-surface $-1 -156.56743173017162 18.68215114981821 59.107157829790197 0 1 0 -0.86602541151947299 0 0.49999998660252726 forward_v I I I I #
face $-1 $84 $85 $30 $-1 $86 forward single #
loop $-1 $87 $88 $39 #
cone-surface $-1 -55.316180342104957 22.305434480829749 3.9471658099249241 0.86602541151947299 0 -0.49999998660252726 0.49999998660252726 0 0.86602541151947299 1 I I 0 1 1 forward I I I I #
face $-1 $89 $90 $31 $-1 $91 forward single #
loop $-1 $92 $93 $40 #
cone-surface $-1 -55.316180342104957 27.740359477347059 3.9471658099249241 0.86602541151947299 0 -0.49999998660252726 0.49999998660252726 0 0.86602541151947299 1 I I 0 1 1 forward I I I I #
face $-1 $94 $95 $32 $-1 $96 reversed single #
loop $-1 $-1 $97 $41 #
plane-surface $-1 91.008175952158311 1.4544855995027479 160.62471631629467 0 -1 0 -0.83867057594974714 0 -0.54463902268945019 forward_v I I I I #
face $-1 $98 $99 $33 $-1 $100 forward single #
loop $-1 $101 $102 $42 #
cone-surface $-1 54.215149780024092 -8.8731319414165135 3.3872785418071802 -0.83867057594974714 0 -0.54463902268945019 0.54463902268945019 0 -0.83867057594974714 1 I I 0 1 1 forward I I I I #
face $-1 $103 $104 $34 $-1 $105 forward single #
loop $-1 $106 $107 $43 #
cone-surface $-1 54.215149780024092 -5.000275363571788 3.3872785418071802 -0.83867057594974714 0 -0.54463902268945019 0.54463902268945019 0 -0.83867057594974714 1 I I 0 1 1 forward I I I I #
face $-1 $108 $109 $35 $-1 $110 forward single #
loop $-1 $111 $112 $44 #
cone-surface $-1 54.215149780024092 -1.1274187857270626 3.3872785418071802 -0.83867057594974714 0 -0.54463902268945019 0.54463902268945019 0 -0.83867057594974714 1 I I 0 1 1 forward I I I I #
face $-1 $113 $114 $27 $-1 $115 reversed single #
loop $-1 $-1 $116 $45 #
plane-surface $-1 0 0 -6.7456670641775958 0 0 1 1 0 0 forward_v I I I I #
coedge $-1 $117 $118 $119 $120 forward $46 $-1 #
face $-1 $121 $122 $28 $-1 $123 reversed single #
loop $-1 $-1 $124 $48 #
plane-surface $-1 -47.969333451452272 -25.921126546601943 0 0 -1 0 0 0 -1 forward_v I I I I #
coedge $-1 $125 $126 $127 $128 forward $49 $-1 #
face $-1 $129 $130 $29 $-1 $131 forward single #
loop $-1 $-1 $132 $51 #
plane-surface $-1 -57.307657094027547 25.022896979088404 1.7995022713182109 -0.86602541151947299 0 0.49999998660252726 0.49999998660252726 0 0.86602541151947299 forward_v I I I I #
coedge $-1 $133 $134 $135 $136 reversed $52 $-1 #
face $-1 $-1 $137 $30 $-1 $138 forward single #
loop $-1 $139 $140 $54 #
cone-surface $-1 -54.319525620717783 22.305434480829749 3.3717469588006832 0.86602541151947299 0 -0.49999998660252726 0.24999999330126363 0 0.43301270575973649 1 I I -0.70710678118654746 0.70710678118654746 0.5 forward I I I I #
loop $-1 $-1 $141 $39 #
coedge $-1 $88 $88 $142 $143 reversed $55 $-1 #
face $-1 $-1 $144 $31 $-1 $145 forward single #
loop $-1 $146 $147 $57 #
cone-surface $-1 -54.319525620717783 27.740359477347059 3.3717469588006832 0.86602541151947299 0 -0.49999998660252726 0.24999999330126363 0 0.43301270575973649 1 I I -0.70710678118654746 0.70710678118654746 0.5 forward I I I I #
loop $-1 $-1 $148 $40 #
coedge $-1 $93 $93 $149 $150 reversed $58 $-1 #
face $-1 $151 $152 $32 $-1 $153 reversed single #
loop $-1 $-1 $154 $60 #
plane-surface $-1 -5.1163156105990595 -5.0002753635717916 98.200743611668088 0.83867057594974714 0 0.54463902268945019 0.54463902268945019 0 -0.83867057594974714 forward_v I I I I #
coedge $-1 $155 $156 $157 $158 reversed $61 $-1 #
face $-1 $-1 $159 $33 $-1 $160 forward single #
loop $-1 $161 $162 $63 #
cone-surface $-1 52.219483912615487 -8.8731319414165135 2.0912780157254787 -0.83867057594974714 0 -0.54463902268945019 0.2723195113447251 0 -0.41933528797487357 1 I I -0.70710678118654746 0.70710678118654746 0.5 forward I I I I #
loop $-1 $-1 $163 $42 #
coedge $-1 $102 $102 $164 $165 reversed $64 $-1 #
face $-1 $-1 $166 $34 $-1 $167 forward single #
loop $-1 $168 $169 $66 #
cone-surface $-1 52.219483912615487 -5.000275363571788 2.0912780157254787 -0.83867057594974714 0 -0.54463902268945019 0.2723195113447251 0 -0.41933528797487357 1 I I -0.70710678118654746 0.70710678118654746 0.5 forward I I I I #
loop $-1 $-1 $170 $43 #
coedge $-1 $107 $107 $171 $172 reversed $67 $-1 #
face $-1 $-1 $173 $35 $-1 $174 forward single #
loop $-1 $175 $176 $69 #
cone-surface $-1 52.219483912615487 -1.1274187857270626 2.0912780157254787 -0.83867057594974714 0 -0.54463902268945019 0.2723195113447251 0 -0.41933528797487357 1 I I -0.70710678118654746 0.70710678118654746 0.5 forward I I I I #
loop $-1 $-1 $177 $44 #
coedge $-1 $112 $112 $178 $179 reversed $70 $-1 #
face $-1 $180 $181 $27 $-1 $182 reversed single #
loop $-1 $-1 $183 $72 #
plane-surface $-1 0 -31.363642808358602 0 0 1 0 0 0 1 forward_v I I I I #
coedge $-1 $184 $185 $186 $187 forward $73 $-1 #
coedge $-1 $188 $75 $189 $190 forward $46 $-1 #
coedge $-1 $75 $188 $191 $192 forward $46 $-1 #
coedge $-1 $193 $194 $75 $120 reversed $195 $-1 #
edge $-1 $196 -31.363642808358602 $197 31.363642808358602 $119 $198 forward 7 unknown #
face $-1 $199 $200 $28 $-1 $201 forward single #
loop $-1 $-1 $202 $76 #
plane-surface $-1 -46.469333451452272 -28.642384677480273 0 -1 0 0 0 0 1 forward_v I I I I #
coedge $-1 $203 $204 $205 $206 forward $77 $-1 #
coedge $-1 $207 $79 $208 $209 reversed $49 $-1 #
coedge $-1 $79 $207 $210 $211 reversed $49 $-1 #
coedge $-1 $204 $203 $79 $128 reversed $77 $-1 #
edge $-1 $212 -6.7456670641775958 $213 6.7456670641775958 $127 $214 forward 7 unknown #
face $-1 $215 $216 $29 $-1 $217 reversed single #
loop $-1 $-1 $135 $80 #
plane-surface $-1 0 0 6.7456670641775958 0 0 1 1 0 0 forward_v I I I I #
coedge $-1 $218 $219 $220 $221 reversed $81 $-1 #
coedge $-1 $134 $83 $222 $223 reversed $52 $-1 #
coedge $-1 $83 $133 $218 $224 reversed $52 $-1 #
coedge $-1 $220 $225 $83 $136 forward $130 $-1 #
edge $-1 $226 20.976058771058277 $227 23.831728243648534 $135 $228 forward 7 unknown #
loop $-1 $-1 $142 $84 #
plane-surface $-1 -57.307657094027547 25.022896979088404 1.7995022713182109 -0.86602541151947299 0 0.49999998660252726 0.49999998660252726 0 0.86602541151947299 forward_v I I I I #
loop $-1 $-1 $229 $54 #
coedge $-1 $140 $140 $141 $230 reversed $85 $-1 #
coedge $-1 $141 $141 $140 $230 forward $87 $-1 #
coedge $-1 $142 $142 $88 $143 forward $137 $-1 #
edge $-1 $231 0 $231 6.2831853071796004 $142 $232 forward 7 unknown #
loop $-1 $-1 $149 $89 #
plane-surface $-1 -57.307657094027547 25.022896979088404 1.7995022713182109 -0.86602541151947299 0 0.49999998660252726 0.49999998660252726 0 0.86602541151947299 forward_v I I I I #
loop $-1 $-1 $233 $57 #
coedge $-1 $147 $147 $148 $234 reversed $90 $-1 #
coedge $-1 $148 $148 $147 $234 forward $92 $-1 #
coedge $-1 $149 $149 $93 $150 forward $144 $-1 #
edge $-1 $235 0 $235 6.2831853071796004 $149 $236 forward 7 unknown #
face $-1 $237 $238 $32 $-1 $239 reversed single #
loop $-1 $-1 $240 $94 #
plane-surface $-1 91.008175952158311 -11.455036326646331 160.62471631629467 0 1 0 0.83867057594974714 0 0.54463902268945019 forward_v I I I I #
coedge $-1 $241 $242 $243 $244 reversed $95 $-1 #
coedge $-1 $156 $97 $245 $246 reversed $61 $-1 #
coedge $-1 $97 $155 $241 $247 reversed $61 $-1 #
coedge $-1 $243 $248 $97 $158 forward $249 $-1 #
edge $-1 $250 -11.803569117948378 $251 -8.7712156488089192 $157 $252 forward 7 unknown #
loop $-1 $-1 $164 $98 #
plane-surface $-1 -5.1163156105990595 -5.0002753635717916 98.200743611668088 0.83867057594974714 0 0.54463902268945019 0.54463902268945019 0 -0.83867057594974714 forward_v I I I I #
loop $-1 $-1 $253 $63 #
coedge $-1 $162 $162 $163 $254 reversed $99 $-1 #
coedge $-1 $163 $163 $162 $254 forward $101 $-1 #
coedge $-1 $164 $164 $102 $165 forward $159 $-1 #
edge $-1 $255 0 $255 6.2831853071796004 $164 $256 forward 7 unknown #
loop $-1 $-1 $171 $103 #
plane-surface $-1 -5.1163156105990595 -5.0002753635717916 98.200743611668088 0.83867057594974714 0 0.54463902268945019 0.54463902268945019 0 -0.83867057594974714 forward_v I I I I #
loop $-1 $-1 $257 $66 #
coedge $-1 $169 $169 $170 $258 reversed $104 $-1 #
coedge $-1 $170 $170 $169 $258 forward $106 $-1 #
coedge $-1 $171 $171 $107 $172 forward $166 $-1 #
edge $-1 $259 0 $259 6.2831853071796004 $171 $260 forward 7 unknown #
loop $-1 $-1 $178 $108 #
plane-surface $-1 -5.1163156105990595 -5.0002753635717916 98.200743611668088 0.83867057594974714 0 0.54463902268945019 0.54463902268945019 0 -0.83867057594974714 forward_v I I I I #
loop $-1 $-1 $261 $69 #
coedge $-1 $176 $176 $177 $262 reversed $109 $-1 #
coedge $-1 $177 $177 $176 $262 forward $111 $-1 #
coedge $-1 $178 $178 $112 $179 forward $173 $-1 #
edge $-1 $263 0 $263 6.2831853071796004 $178 $264 forward 7 unknown #
face $-1 $265 $266 $27 $-1 $267 reversed single #
loop $-1 $-1 $268 $113 #
plane-surface $-1 -57.307657094027533 0 0 1 0 0 0 0 -1 forward_v I I I I #
coedge $-1 $269 $191 $270 $271 forward $114 $-1 #
coedge $-1 $272 $116 $269 $273 forward $73 $-1 #
coedge $-1 $116 $272 $274 $275 forward $73 $-1 #
coedge $-1 $194 $193 $116 $187 reversed $195 $-1 #
edge $-1 $276 -31.363642808358602 $277 31.363642808358602 $186 $278 forward 7 unknown #
coedge $-1 $118 $117 $279 $280 forward $46 $-1 #
coedge $-1 $281 $282 $117 $190 reversed $266 $-1 #
edge $-1 $197 -57.307657094027533 $283 57.307657094027533 $189 $284 forward 7 unknown #
coedge $-1 $183 $285 $118 $192 reversed $114 $-1 #
edge $-1 $286 -57.307657094027533 $196 57.307657094027533 $191 $287 forward 7 unknown #
coedge $-1 $186 $119 $285 $288 forward $195 $-1 #
coedge $-1 $119 $186 $281 $289 reversed $195 $-1 #
loop $-1 $-1 $193 $265 #
vertex $-1 $120 $290 #
vertex $-1 $120 $291 #
straight-curve $-1 57.307657094027533 0 6.7456670641775958 0 1 0 I I #
face $-1 $292 $293 $28 $-1 $294 reversed single #
loop $-1 $-1 $295 $121 #
plane-surface $-1 0 0 6.7456670641775958 0 0 1 1 0 0 forward_v I I I I #
coedge $-1 $296 $297 $298 $299 reversed $122 $-1 #
coedge $-1 $127 $124 $300 $301 reversed $77 $-1 #
coedge $-1 $124 $127 $302 $303 reversed $77 $-1 #
coedge $-1 $297 $296 $124 $206 reversed $122 $-1 #
edge $-1 $304 -6.7456670641775958 $305 6.7456670641775958 $205 $306 forward 7 unknown #
coedge $-1 $126 $125 $307 $308 reversed $49 $-1 #
coedge $-1 $300 $309 $125 $209 forward $293 $-1 #
edge $-1 $310 -17.042450469618466 $213 -11.599934207861807 $208 $311 forward 7 unknown #
coedge $-1 $312 $302 $126 $211 forward $200 $-1 #
edge $-1 $212 11.599934207861807 $313 17.042450469618466 $210 $314 forward 7 unknown #
vertex $-1 $211 $315 #
vertex $-1 $209 $316 #
straight-curve $-1 -49.469333451452272 -25.921126546601943 0 0 0 -1 I I #
face $-1 $-1 $317 $29 $-1 $318 reversed single #
loop $-1 $-1 $319 $129 #
plane-surface $-1 0 31.363642808358602 0 0 -1 0 0 0 -1 forward_v I I I I #
coedge $-1 $320 $132 $134 $224 forward $81 $-1 #
coedge $-1 $132 $320 $319 $321 reversed $81 $-1 #
coedge $-1 $322 $135 $132 $221 forward $130 $-1 #
edge $-1 $227 6.1707026602740083 $323 18.852194318814398 $220 $324 forward 7 unknown #
coedge $-1 $325 $326 $133 $223 forward $317 $-1 #
edge $-1 $327 -27.754076643576862 $226 -22.807911850717502 $222 $328 forward 7 unknown #
edge $-1 $227 -5.711339098215559 $327 -2.8450313176714033e-014 $134 $329 forward 7 unknown #
coedge $-1 $135 $322 $325 $330 forward $130 $-1 #
vertex $-1 $223 $331 #
vertex $-1 $136 $332 #
straight-curve $-1 -78.28371586508581 18.68215114981821 6.7456670641775958 1 0 0 I I #
coedge $-1 $229 $229 $-1 $333 reversed $139 $-1 #
edge $-1 $334 0 $334 6.2831853071796004 $140 $335 forward 7 unknown #
vertex $-1 $143 $336 #
ellipse-curve $-1 -55.879822357732408 22.305434480829749 4.2725846677479096 -0.86602541151947299 0 0.49999998660252726 0.49999998660252726 0 0.86602541151947299 1 I I #
coedge $-1 $233 $233 $-1 $337 reversed $146 $-1 #
edge $-1 $338 0 $338 6.2831853071796004 $147 $339 forward 7 unknown #
vertex $-1 $150 $340 #
ellipse-curve $-1 -55.879822357732408 27.740359477347059 4.2725846677479096 -0.86602541151947299 0 0.49999998660252726 0.49999998660252726 0 0.86602541151947299 1 I I #
face $-1 $-1 $249 $32 $-1 $341 forward single #
loop $-1 $-1 $342 $151 #
plane-surface $-1 57.307657094027533 0 0 -1 0 0 0 0 1 forward_v I I I I #
coedge $-1 $343 $344 $345 $346 reversed $152 $-1 #
coedge $-1 $347 $154 $156 $247 forward $95 $-1 #
coedge $-1 $154 $347 $343 $348 forward $95 $-1 #
coedge $-1 $345 $157 $154 $244 forward $249 $-1 #
edge $-1 $251 -3.9546232812886437 $349 8.9548986448604353 $243 $350 forward 7 unknown #
coedge $-1 $351 $352 $155 $246 forward $238 $-1 #
edge $-1 $353 -78.23610610923663 $250 -73.566691093969737 $245 $354 forward 7 unknown #
edge $-1 $251 109.04767517797171 $353 114.61531418805509 $156 $355 forward 7 unknown #
coedge $-1 $157 $345 $351 $356 forward $249 $-1 #
loop $-1 $-1 $345 $237 #
vertex $-1 $246 $357 #
vertex $-1 $158 $358 #
straight-curve $-1 45.504087976079155 1.4544855995027479 6.7456670641775958 -1 0 0 I I #
coedge $-1 $253 $253 $-1 $359 reversed $161 $-1 #
edge $-1 $360 0 $360 6.2831853071796004 $162 $361 forward 7 unknown #
vertex $-1 $165 $362 #
ellipse-curve $-1 55.791480359457807 -8.8731319414165135 4.4109595565441468 0.83867057594974714 0 0.54463902268945019 0.54463902268945019 0 -0.83867057594974714 1 I I #
coedge $-1 $257 $257 $-1 $363 reversed $168 $-1 #
edge $-1 $364 0 $364 6.2831853071796004 $169 $365 forward 7 unknown #
vertex $-1 $172 $366 #
ellipse-curve $-1 55.791480359457807 -5.000275363571788 4.4109595565441468 0.83867057594974714 0 0.54463902268945019 0.54463902268945019 0 -0.83867057594974714 1 I I #
coedge $-1 $261 $261 $-1 $367 reversed $175 $-1 #
edge $-1 $368 0 $368 6.2831853071796004 $176 $369 forward 7 unknown #
vertex $-1 $179 $370 #
ellipse-curve $-1 55.791480359457807 -1.1274187857270626 4.4109595565441468 0.83867057594974714 0 0.54463902268945019 0.54463902268945019 0 -0.83867057594974714 1 I I #
face $-1 $-1 $195 $27 $-1 $371 reversed single #
loop $-1 $-1 $281 $180 #
plane-surface $-1 0 31.363642808358602 0 0 -1 0 0 0 -1 forward_v I I I I #
coedge $-1 $372 $279 $282 $373 forward $181 $-1 #
coedge $-1 $285 $183 $184 $273 reversed $114 $-1 #
coedge $-1 $279 $372 $183 $271 reversed $181 $-1 #
edge $-1 $286 -6.7456670641775958 $374 6.7456670641775958 $270 $375 forward 7 unknown #
coedge $-1 $185 $184 $372 $376 forward $73 $-1 #
edge $-1 $277 -57.307657094027533 $374 57.307657094027533 $269 $377 forward 7 unknown #
coedge $-1 $282 $281 $185 $275 reversed $266 $-1 #
edge $-1 $378 -57.307657094027533 $276 57.307657094027533 $274 $379 forward 7 unknown #
vertex $-1 $187 $380 #
vertex $-1 $288 $381 #
straight-curve $-1 57.307657094027533 0 -6.7456670641775958 0 -1 0 I I #
coedge $-1 $268 $270 $188 $280 reversed $181 $-1 #
edge $-1 $283 -31.363642808358602 $286 31.363642808358602 $279 $382 forward 7 unknown #
coedge $-1 $274 $189 $194 $289 forward $266 $-1 #
coedge $-1 $189 $274 $268 $373 reversed $266 $-1 #
vertex $-1 $190 $383 #
straight-curve $-1 0 31.363642808358602 6.7456670641775958 -1 0 0 I I #
coedge $-1 $191 $269 $193 $288 reversed $114 $-1 #
vertex $-1 $280 $384 #
straight-curve $-1 0 -31.363642808358602 6.7456670641775958 1 0 0 I I #
edge $-1 $196 -6.7456670641775958 $277 6.7456670641775958 $193 $385 forward 7 unknown #
edge $-1 $197 -6.7456670641775958 $276 6.7456670641775958 $194 $386 forward 7 unknown #
point $-1 57.307657094027533 -31.363642808358602 6.7456670641775958 #
point $-1 57.307657094027533 31.363642808358602 6.7456670641775958 #
face $-1 $-1 $387 $28 $-1 $388 reversed single #
loop $-1 $-1 $389 $199 #
plane-surface $-1 0 0 -6.7456670641775958 0 0 1 1 0 0 forward_v I I I I #
coedge $-1 $302 $312 $297 $390 forward $200 $-1 #
coedge $-1 $205 $202 $389 $391 reversed $122 $-1 #
coedge $-1 $202 $205 $295 $390 reversed $122 $-1 #
coedge $-1 $392 $393 $202 $299 forward $387 $-1 #
edge $-1 $394 -6.7456670641775958 $395 6.7456670641775958 $298 $396 forward 7 unknown #
coedge $-1 $389 $208 $203 $301 forward $293 $-1 #
edge $-1 $213 -25.484666725726136 $305 -22.484666725726136 $300 $397 forward 7 unknown #
coedge $-1 $210 $295 $204 $303 forward $200 $-1 #
edge $-1 $304 22.484666725726136 $212 25.484666725726136 $302 $398 forward 7 unknown #
vertex $-1 $303 $399 #
vertex $-1 $301 $400 #
straight-curve $-1 -46.469333451452272 -25.921126546601943 0 0 0 -1 I I #
coedge $-1 $393 $392 $207 $308 forward $387 $-1 #
edge $-1 $313 -6.7456670641775958 $310 6.7456670641775958 $307 $401 forward 7 unknown #
coedge $-1 $208 $389 $393 $402 forward $293 $-1 #
vertex $-1 $209 $403 #
straight-curve $-1 -49.469333451452272 -14.321192338740136 -6.7456670641775958 0 1 0 I I #
coedge $-1 $295 $210 $392 $404 forward $200 $-1 #
vertex $-1 $404 $405 #
straight-curve $-1 -49.469333451452272 -14.321192338740136 6.7456670641775958 0 -1 0 I I #
point $-1 -49.469333451452272 -25.921126546601943 6.7456670641775958 #
point $-1 -49.469333451452272 -25.921126546601943 -6.7456670641775958 #
loop $-1 $-1 $222 $215 #
plane-surface $-1 -57.307657094027533 0 0 1 0 0 0 0 -1 forward_v I I I I #
coedge $-1 $406 $407 $219 $321 forward $216 $-1 #
coedge $-1 $219 $218 $326 $408 reversed $81 $-1 #
edge $-1 $323 7.836367443878153 $409 13.547706542093682 $319 $410 forward 7 unknown #
coedge $-1 $225 $220 $407 $411 forward $130 $-1 #
vertex $-1 $411 $412 #
straight-curve $-1 -54.451987621437283 12.511448489544202 6.7456670641775958 0 1 0 I I #
coedge $-1 $413 $222 $225 $330 reversed $317 $-1 #
coedge $-1 $222 $413 $320 $408 forward $317 $-1 #
vertex $-1 $223 $414 #
straight-curve $-1 -57.307657094027533 18.68215114981821 29.553578914895098 0 0 1 I I #
straight-curve $-1 -57.307657094027547 18.68215114981821 1.7995022713182109 -0.49999998660252726 0 -0.86602541151947299 I I #
edge $-1 $415 -31.363642808358602 $226 -18.68215114981821 $325 $416 forward 7 unknown #
point $-1 -57.307657094027533 18.68215114981821 6.7456670641775958 #
point $-1 -54.451987621437276 18.68215114981821 6.7456670641775958 #
edge $-1 $417 1 $417 0 $229 $-1 forward 7 unknown #
vertex $-1 $230 $418 #
ellipse-curve $-1 -54.75253832647752 22.305434480829749 3.621746952101947 -0.86602541151947299 0 0.49999998660252726 0.49999998660252726 0 0.86602541151947299 1 I I #
point $-1 -55.379822371129869 22.305434480829749 5.1386100792673748 #
edge $-1 $419 1 $419 0 $233 $-1 forward 7 unknown #
vertex $-1 $234 $420 #
ellipse-curve $-1 -54.75253832647752 27.740359477347059 3.621746952101947 -0.86602541151947299 0 0.49999998660252726 0.49999998660252726 0 0.86602541151947299 1 I I #
point $-1 -55.379822371129869 27.740359477347059 5.1386100792673748 #
plane-surface $-1 0 0 6.7456670641775958 0 0 1 1 0 0 forward_v I I I I #
coedge $-1 $352 $351 $344 $421 forward $238 $-1 #
coedge $-1 $344 $240 $242 $348 reversed $152 $-1 #
coedge $-1 $240 $343 $342 $421 reversed $152 $-1 #
coedge $-1 $248 $243 $240 $346 forward $249 $-1 #
edge $-1 $349 8.7712156488089192 $422 11.803569117948378 $345 $423 forward 7 unknown #
coedge $-1 $242 $241 $352 $424 reversed $95 $-1 #
edge $-1 $425 -114.61531418805509 $349 -109.04767517797171 $343 $426 forward 7 unknown #
vertex $-1 $244 $427 #
straight-curve $-1 54.275303624888075 -2.5001376817858958 6.7456670641776029 0 -1 0 I I #
coedge $-1 $342 $245 $248 $356 reversed $238 $-1 #
coedge $-1 $245 $342 $347 $424 forward $238 $-1 #
vertex $-1 $246 $428 #
straight-curve $-1 57.307657094027533 1.4544855995027479 80.312358158147333 0 0 1 I I #
straight-curve $-1 -5.1163156105990595 1.4544855995027479 98.200743611668088 0.54463902268945019 0 -0.83867057594974714 I I #
edge $-1 $422 -11.455036326646331 $250 1.4544855995027479 $351 $429 forward 7 unknown #
point $-1 57.307657094027533 1.4544855995027479 6.7456670641775958 #
point $-1 54.275303624888075 1.4544855995027479 6.7456670641775958 #
edge $-1 $430 1 $430 0 $253 $-1 forward 7 unknown #
vertex $-1 $254 $431 #
ellipse-curve $-1 52.638819200590362 -8.8731319414165135 2.3635975270702039 0.83867057594974714 0 0.54463902268945019 0.54463902268945019 0 -0.83867057594974714 1 I I #
point $-1 56.336119382147274 -8.8731319414165135 3.57228898059441 #
edge $-1 $432 1 $432 0 $257 $-1 forward 7 unknown #
vertex $-1 $258 $433 #
ellipse-curve $-1 52.638819200590362 -5.000275363571788 2.3635975270702039 0.83867057594974714 0 0.54463902268945019 0.54463902268945019 0 -0.83867057594974714 1 I I #
point $-1 56.336119382147274 -5.000275363571788 3.57228898059441 #
edge $-1 $434 1 $434 0 $261 $-1 forward 7 unknown #
vertex $-1 $262 $435 #
ellipse-curve $-1 52.638819200590362 -1.1274187857270626 2.3635975270702039 0.83867057594974714 0 0.54463902268945019 0.54463902268945019 0 -0.83867057594974714 1 I I #
point $-1 56.336119382147274 -1.1274187857270626 3.57228898059441 #
plane-surface $-1 57.307657094027533 0 0 -1 0 0 0 0 1 forward_v I I I I #
coedge $-1 $270 $268 $272 $376 reversed $181 $-1 #
edge $-1 $283 -6.7456670641775958 $378 6.7456670641775958 $282 $436 forward 7 unknown #
vertex $-1 $376 $437 #
straight-curve $-1 -57.307657094027533 -31.363642808358602 0 0 0 -1 I I #
edge $-1 $374 -31.363642808358602 $378 31.363642808358602 $372 $438 forward 7 unknown #
straight-curve $-1 0 -31.363642808358602 -6.7456670641775958 -1 0 0 I I #
vertex $-1 $275 $439 #
straight-curve $-1 0 31.363642808358602 -6.7456670641775958 1 0 0 I I #
point $-1 57.307657094027533 31.363642808358602 -6.7456670641775958 #
point $-1 57.307657094027533 -31.363642808358602 -6.7456670641775958 #
straight-curve $-1 -57.307657094027533 0 6.7456670641775958 0 -1 0 I I #
point $-1 -57.307657094027533 31.363642808358602 6.7456670641775958 #
point $-1 -57.307657094027533 -31.363642808358602 6.7456670641775958 #
straight-curve $-1 57.307657094027533 -31.363642808358602 0 0 0 -1 I I #
straight-curve $-1 57.307657094027533 31.363642808358602 0 0 0 -1 I I #
loop $-1 $-1 $298 $292 #
plane-surface $-1 0 -31.363642808358602 0 0 1 0 0 0 1 forward_v I I I I #
coedge $-1 $309 $300 $296 $391 forward $293 $-1 #
edge $-1 $395 -17.042450469618466 $304 -11.599934207861807 $295 $440 forward 7 unknown #
edge $-1 $305 11.599934207861807 $394 17.042450469618466 $389 $441 forward 7 unknown #
coedge $-1 $307 $298 $312 $404 reversed $387 $-1 #
coedge $-1 $298 $307 $309 $402 reversed $387 $-1 #
vertex $-1 $402 $442 #
vertex $-1 $299 $443 #
straight-curve $-1 -46.469333451452272 -31.363642808358602 0 0 0 1 I I #
straight-curve $-1 -23.984666725726136 -25.921126546601943 -6.7456670641775958 1 0 0 I I #
straight-curve $-1 -23.984666725726136 -25.921126546601943 6.7456670641775958 -1 0 0 I I #
point $-1 -46.469333451452272 -25.921126546601943 6.7456670641775958 #
point $-1 -46.469333451452272 -25.921126546601943 -6.7456670641775958 #
straight-curve $-1 -49.469333451452272 -31.363642808358602 0 0 0 -1 I I #
edge $-1 $394 46.469333451452272 $310 49.469333451452272 $393 $444 forward 7 unknown #
point $-1 -49.469333451452272 -31.363642808358602 -6.7456670641775958 #
edge $-1 $313 -49.469333451452272 $395 -46.469333451452272 $392 $445 forward 7 unknown #
point $-1 -49.469333451452272 -31.363642808358602 6.7456670641775958 #
coedge $-1 $407 $319 $413 $446 reversed $216 $-1 #
coedge $-1 $319 $406 $322 $411 reversed $216 $-1 #
edge $-1 $409 -18.852194318814398 $327 -6.1707026602740083 $326 $447 forward 7 unknown #
vertex $-1 $321 $448 #
straight-curve $-1 -50.533804004485717 31.363642808358602 13.532160404579972 -0.49999998660252726 0 -0.86602541151947299 I I #
edge $-1 $323 54.451987621437276 $415 57.307657094027533 $407 $449 forward 7 unknown #
point $-1 -54.451987621437276 31.363642808358598 6.7456670641775958 #
coedge $-1 $326 $325 $406 $446 forward $317 $-1 #
point $-1 -57.307657094027533 18.68215114981821 1.7995022713182356 #
vertex $-1 $411 $450 #
straight-curve $-1 -57.307657094027533 0 6.7456670641775958 0 -1 0 I I #
vertex $-1 $333 $451 #
point $-1 -54.252538339874995 22.305434480829749 4.4877723636214197 #
vertex $-1 $337 $452 #
point $-1 -54.252538339874995 27.740359477347059 4.4877723636214197 #
edge $-1 $422 73.566691093969737 $425 78.23610610923663 $342 $453 forward 7 unknown #
vertex $-1 $356 $454 #
straight-curve $-1 45.504087976079155 -11.455036326646331 6.7456670641775958 1 0 0 I I #
edge $-1 $425 -8.9548986448604353 $353 3.9546232812886437 $352 $455 forward 7 unknown #
vertex $-1 $424 $456 #
straight-curve $-1 -5.1163156105990595 -11.455036326646331 98.200743611668088 -0.54463902268945019 0 0.83867057594974714 I I #
point $-1 54.275303624888075 -11.455036326646331 6.7456670641775958 #
point $-1 57.307657094027533 1.4544855995027479 2.0762520489107033 #
straight-curve $-1 57.307657094027533 0 6.7456670641775958 0 1 0 I I #
vertex $-1 $359 $457 #
point $-1 53.183458223279814 -8.8731319414165135 1.5249269511204566 #
vertex $-1 $363 $458 #
point $-1 53.183458223279814 -5.000275363571788 1.5249269511204566 #
vertex $-1 $367 $459 #
point $-1 53.183458223279814 -1.1274187857270626 1.5249269511204566 #
straight-curve $-1 -57.307657094027533 31.363642808358602 0 0 0 -1 I I #
point $-1 -57.307657094027533 -31.363642808358602 -6.7456670641775958 #
straight-curve $-1 -57.307657094027533 0 -6.7456670641775958 0 1 0 I I #
point $-1 -57.307657094027533 31.363642808358602 -6.7456670641775958 #
straight-curve $-1 -46.469333451452272 -14.321192338740136 6.7456670641775958 0 1 0 I I #
straight-curve $-1 -46.469333451452272 -14.321192338740136 -6.7456670641775958 0 -1 0 I I #
point $-1 -46.469333451452272 -31.363642808358602 -6.7456670641775958 #
point $-1 -46.469333451452272 -31.363642808358602 6.7456670641775958 #
straight-curve $-1 0 -31.363642808358602 -6.7456670641775958 -1 0 0 I I #
straight-curve $-1 0 -31.363642808358602 6.7456670641775958 1 0 0 I I #
edge $-1 $415 -6.7456670641775958 $409 -1.7995022713182356 $406 $460 forward 7 unknown #
straight-curve $-1 -57.307657094027533 12.511448489544202 1.7995022713182305 0 -1 0 I I #
point $-1 -57.307657094027533 31.363642808358598 1.7995022713182356 #
straight-curve $-1 0 31.363642808358602 6.7456670641775958 -1 0 0 I I #
point $-1 -57.307657094027533 31.363642808358602 6.7456670641775958 #
point $-1 -53.886512914958047 22.305434480829749 3.1217469654994194 #
point $-1 -53.886512914958047 27.740359477347059 3.1217469654994194 #
straight-curve $-1 57.307657094027533 -11.455036326646331 80.312358158147333 0 0 -1 I I #
point $-1 57.307657094027533 -11.455036326646331 6.7456670641775958 #
straight-curve $-1 57.307657094027533 -2.5001376817858958 2.0762520489107033 0 1 0 I I #
point $-1 57.307657094027533 -11.455036326646331 2.0762520489107033 #
point $-1 51.800148624640613 -8.8731319414165135 1.8189585043807535 #
point $-1 51.800148624640613 -5.000275363571788 1.8189585043807535 #
point $-1 51.800148624640613 -1.1274187857270626 1.8189585043807535 #
straight-curve $-1 -57.307657094027533 31.363642808358602 0 0 0 -1 I I #
End-of-ACIS-data 