500 0 6 0           
7 Unknown 11 ACIS 5.0 NT 24 Thu Mar 25 22:37:55 1999 
-1 9.9999999999999995e-007 1e-010 
body $-1 $6 $-1 $7 #
body $-1 $8 $-1 $9 #
body $-1 $10 $-1 $11 #
body $-1 $12 $-1 $13 #
body $-1 $14 $-1 $15 #
body $-1 $16 $-1 $17 #
lump $-1 $-1 $18 $0 #
transform $-1 1 0 0 0 1 0 0 0 1 53.11441389202551 29.430543231452507 8.994517228565682 1 rotate no_reflect no_shear #
lump $-1 $-1 $19 $1 #
transform $-1 1 0 0 0 1 0 0 0 1 53.11441389202551 29.430543231452507 8.994517228565682 1 rotate no_reflect no_shear #
lump $-1 $-1 $20 $2 #
transform $-1 1 0 0 0 1 0 0 0 1 53.11441389202551 29.430543231452507 8.994517228565682 1 rotate no_reflect no_shear #
lump $-1 $-1 $21 $3 #
transform $-1 1 0 0 0 1 0 0 0 1 53.11441389202551 29.430543231452507 8.994517228565682 1 rotate no_reflect no_shear #
lump $-1 $-1 $22 $4 #
transform $-1 1 0 0 0 1 0 0 0 1 53.11441389202551 29.430543231452507 8.994517228565682 1 rotate no_reflect no_shear #
lump $-1 $-1 $23 $5 #
transform $-1 1 0 0 0 1 0 0 0 1 53.11441389202551 29.430543231452507 8.994517228565682 1 rotate no_reflect no_shear #
shell $-1 $-1 $-1 $24 $-1 $6 #
shell $-1 $-1 $-1 $25 $-1 $8 #
shell $-1 $-1 $-1 $26 $-1 $10 #
shell $-1 $-1 $-1 $27 $-1 $12 #
shell $-1 $-1 $-1 $28 $-1 $14 #
shell $-1 $-1 $-1 $29 $-1 $16 #
face $-1 $30 $31 $18 $-1 $32 forward single #
face $-1 $33 $34 $19 $-1 $35 forward single #
face $-1 $36 $37 $20 $-1 $38 reversed single #
face $-1 $39 $40 $21 $-1 $41 forward single #
face $-1 $42 $43 $22 $-1 $44 forward single #
face $-1 $45 $46 $23 $-1 $47 forward single #
face $-1 $48 $49 $18 $-1 $50 reversed single #
loop $-1 $-1 $51 $24 #
plane-surface $-1 0 0 8.994517228565682 0 0 1 1 0 0 forward_v I I I I #
face $-1 $52 $53 $19 $-1 $54 reversed single #
loop $-1 $-1 $55 $25 #
plane-surface $-1 -53.11441389202551 0 0 1 0 0 0 0 -1 forward_v I I I I #
face $-1 $56 $57 $20 $-1 $58 reversed single #
loop $-1 $-1 $59 $26 #
plane-surface $-1 50.49253623193573 15.39242867684009 156.07583720038517 0 1 0 0.69465837861970381 0 0.71933979245794832 forward_v I I I I #
face $-1 $60 $61 $21 $-1 $62 forward single #
loop $-1 $63 $64 $27 #
cone-surface $-1 51.062369337614662 18.200051587762577 6.9826055005611378 -0.69465837861970381 0 -0.71933979245794832 0.35966989622897416 0 -0.3473291893098519 1 I I 0 1 0.5 forward I I I I #
face $-1 $65 $66 $22 $-1 $67 forward single #
loop $-1 $68 $69 $28 #
cone-surface $-1 51.062369337614662 22.411485954146304 6.9826055005611378 -0.69465837861970381 0 -0.71933979245794832 0.35966989622897416 0 -0.3473291893098519 1 I I 0 1 0.5 forward I I I I #
face $-1 $70 $71 $23 $-1 $72 forward single #
loop $-1 $73 $74 $29 #
cone-surface $-1 51.062369337614662 26.622920320530032 6.9826055005611378 -0.69465837861970381 0 -0.71933979245794832 0.35966989622897416 0 -0.3473291893098519 1 I I 0 1 0.5 forward I I I I #
face $-1 $75 $76 $18 $-1 $77 reversed single #
loop $-1 $-1 $78 $30 #
plane-surface $-1 0 0 -8.994517228565682 0 0 1 1 0 0 forward_v I I I I #
coedge $-1 $79 $80 $81 $82 forward $31 $-1 #
face $-1 $83 $84 $19 $-1 $85 reversed single #
loop $-1 $-1 $86 $33 #
plane-surface $-1 0 0 -8.994517228565682 0 0 1 1 0 0 forward_v I I I I #
coedge $-1 $87 $88 $89 $90 forward $34 $-1 #
face $-1 $91 $92 $20 $-1 $93 reversed single #
loop $-1 $-1 $94 $36 #
plane-surface $-1 -23.300209039204901 22.411485954146297 79.661214269154769 0.69465837861970381 0 0.71933979245794832 0.71933979245794832 0 -0.69465837861970381 forward_v I I I I #
coedge $-1 $95 $96 $97 $98 reversed $37 $-1 #
face $-1 $-1 $99 $21 $-1 $100 forward single #
loop $-1 $101 $102 $39 #
cone-surface $-1 50.455219004356067 18.200051587762577 6.353882939717872 -0.69465837861970381 0 -0.71933979245794832 0.17983494811448708 0 -0.17366459465492595 1 I I -0.70710678118654746 0.70710678118654746 0.25 forward I I I I #
loop $-1 $-1 $103 $27 #
coedge $-1 $64 $64 $104 $105 reversed $40 $-1 #
face $-1 $-1 $106 $22 $-1 $107 forward single #
loop $-1 $108 $109 $42 #
cone-surface $-1 50.455219004356067 22.411485954146304 6.353882939717872 -0.69465837861970381 0 -0.71933979245794832 0.17983494811448708 0 -0.17366459465492595 1 I I -0.70710678118654746 0.70710678118654746 0.25 forward I I I I #
loop $-1 $-1 $110 $28 #
coedge $-1 $69 $69 $111 $112 reversed $43 $-1 #
face $-1 $-1 $113 $23 $-1 $114 forward single #
loop $-1 $115 $116 $45 #
cone-surface $-1 50.455219004356067 26.622920320530032 6.353882939717872 -0.69465837861970381 0 -0.71933979245794832 0.17983494811448708 0 -0.17366459465492595 1 I I -0.70710678118654746 0.70710678118654746 0.25 forward I I I I #
loop $-1 $-1 $117 $29 #
coedge $-1 $74 $74 $118 $119 reversed $46 $-1 #
face $-1 $120 $121 $18 $-1 $122 reversed single #
loop $-1 $-1 $123 $48 #
plane-surface $-1 0 -29.430543231452507 0 0 1 0 0 0 1 forward_v I I I I #
coedge $-1 $124 $125 $126 $127 forward $49 $-1 #
coedge $-1 $128 $51 $129 $130 forward $31 $-1 #
coedge $-1 $51 $128 $131 $132 forward $31 $-1 #
coedge $-1 $133 $134 $51 $82 reversed $135 $-1 #
edge $-1 $136 -29.430543231452507 $137 29.430543231452507 $81 $138 forward 7 unknown #
face $-1 $139 $140 $19 $-1 $141 reversed single #
loop $-1 $-1 $142 $52 #
plane-surface $-1 -56.135687244210203 -26.375476528453543 0 0 1 0 0 0 1 forward_v I I I I #
coedge $-1 $143 $144 $88 $145 forward $53 $-1 #
coedge $-1 $146 $55 $147 $148 reversed $34 $-1 #
coedge $-1 $55 $146 $86 $145 reversed $34 $-1 #
coedge $-1 $149 $150 $55 $90 reversed $151 $-1 #
edge $-1 $152 -8.994517228565682 $153 8.994517228565682 $89 $154 forward 7 unknown #
face $-1 $155 $156 $20 $-1 $157 forward single #
loop $-1 $-1 $158 $56 #
plane-surface $-1 0 29.430543231452507 0 0 -1 0 0 0 -1 forward_v I I I I #
coedge $-1 $159 $160 $161 $162 reversed $57 $-1 #
coedge $-1 $96 $59 $163 $164 reversed $37 $-1 #
coedge $-1 $59 $95 $159 $165 reversed $37 $-1 #
coedge $-1 $161 $166 $59 $98 forward $167 $-1 #
edge $-1 $168 69.043401371626899 $169 72.16944960217846 $97 $170 forward 7 unknown #
loop $-1 $-1 $104 $60 #
plane-surface $-1 -23.300209039204901 22.411485954146297 79.661214269154769 0.69465837861970381 0 0.71933979245794832 0.71933979245794832 0 -0.69465837861970381 forward_v I I I I #
loop $-1 $-1 $171 $39 #
coedge $-1 $102 $102 $103 $172 reversed $61 $-1 #
coedge $-1 $103 $103 $102 $172 forward $63 $-1 #
coedge $-1 $104 $104 $64 $105 forward $99 $-1 #
edge $-1 $173 0 $173 6.2831853071796004 $104 $174 forward 7 unknown #
loop $-1 $-1 $111 $65 #
plane-surface $-1 -23.300209039204901 22.411485954146297 79.661214269154769 0.69465837861970381 0 0.71933979245794832 0.71933979245794832 0 -0.69465837861970381 forward_v I I I I #
loop $-1 $-1 $175 $42 #
coedge $-1 $109 $109 $110 $176 reversed $66 $-1 #
coedge $-1 $110 $110 $109 $176 forward $68 $-1 #
coedge $-1 $111 $111 $69 $112 forward $106 $-1 #
edge $-1 $177 0 $177 6.2831853071796004 $111 $178 forward 7 unknown #
loop $-1 $-1 $118 $70 #
plane-surface $-1 -23.300209039204901 22.411485954146297 79.661214269154769 0.69465837861970381 0 0.71933979245794832 0.71933979245794832 0 -0.69465837861970381 forward_v I I I I #
loop $-1 $-1 $179 $45 #
coedge $-1 $116 $116 $117 $180 reversed $71 $-1 #
coedge $-1 $117 $117 $116 $180 forward $73 $-1 #
coedge $-1 $118 $118 $74 $119 forward $113 $-1 #
edge $-1 $181 0 $181 6.2831853071796004 $118 $182 forward 7 unknown #
face $-1 $183 $184 $18 $-1 $185 reversed single #
loop $-1 $-1 $186 $75 #
plane-surface $-1 -53.11441389202551 0 0 1 0 0 0 0 -1 forward_v I I I I #
coedge $-1 $187 $131 $188 $189 forward $76 $-1 #
coedge $-1 $190 $78 $187 $191 forward $49 $-1 #
coedge $-1 $78 $190 $192 $193 forward $49 $-1 #
coedge $-1 $134 $133 $78 $127 reversed $135 $-1 #
edge $-1 $194 -29.430543231452507 $195 29.430543231452507 $126 $196 forward 7 unknown #
coedge $-1 $80 $79 $197 $198 forward $31 $-1 #
coedge $-1 $199 $200 $79 $130 reversed $184 $-1 #
edge $-1 $137 -53.11441389202551 $201 53.11441389202551 $129 $202 forward 7 unknown #
coedge $-1 $123 $203 $80 $132 reversed $76 $-1 #
edge $-1 $204 -53.11441389202551 $136 53.11441389202551 $131 $205 forward 7 unknown #
coedge $-1 $126 $81 $203 $206 forward $135 $-1 #
coedge $-1 $81 $126 $199 $207 reversed $135 $-1 #
loop $-1 $-1 $133 $183 #
vertex $-1 $82 $208 #
vertex $-1 $82 $209 #
straight-curve $-1 53.11441389202551 0 8.994517228565682 0 1 0 I I #
face $-1 $210 $151 $19 $-1 $211 reversed single #
loop $-1 $-1 $212 $83 #
plane-surface $-1 -59.156960596394896 -24.747064572674248 0 1 0 0 0 0 -1 forward_v I I I I #
coedge $-1 $213 $214 $215 $216 forward $84 $-1 #
coedge $-1 $217 $86 $213 $218 forward $53 $-1 #
coedge $-1 $86 $217 $149 $219 forward $53 $-1 #
edge $-1 $152 23.118652616894952 $220 26.375476528453543 $86 $221 forward 7 unknown #
coedge $-1 $88 $87 $222 $223 forward $34 $-1 #
coedge $-1 $224 $225 $87 $148 forward $226 $-1 #
edge $-1 $227 -26.375476528453543 $153 -23.118652616894952 $147 $228 forward 7 unknown #
coedge $-1 $229 $89 $144 $219 reversed $151 $-1 #
coedge $-1 $89 $229 $224 $230 reversed $151 $-1 #
loop $-1 $-1 $89 $139 #
vertex $-1 $145 $231 #
vertex $-1 $230 $232 #
straight-curve $-1 -53.11441389202551 -23.118652616894952 0 0 0 1 I I #
face $-1 $-1 $167 $20 $-1 $233 reversed single #
loop $-1 $-1 $234 $91 #
plane-surface $-1 0 0 8.994517228565682 0 0 1 1 0 0 forward_v I I I I #
coedge $-1 $235 $236 $160 $237 forward $92 $-1 #
coedge $-1 $238 $94 $96 $165 forward $57 $-1 #
coedge $-1 $94 $238 $158 $237 reversed $57 $-1 #
coedge $-1 $239 $97 $94 $162 forward $167 $-1 #
edge $-1 $169 4.1866856997669419 $240 18.22480025437936 $161 $241 forward 7 unknown #
coedge $-1 $242 $234 $95 $164 forward $156 $-1 #
edge $-1 $243 24.631028144443277 $168 27.868145776057645 $163 $244 forward 7 unknown #
edge $-1 $169 -106.22882778405105 $243 -101.72870466344165 $96 $245 forward 7 unknown #
coedge $-1 $97 $239 $242 $246 reversed $167 $-1 #
loop $-1 $-1 $161 $155 #
vertex $-1 $246 $247 #
vertex $-1 $98 $248 #
straight-curve $-1 53.11441389202551 15.39242867684009 78.037918600192583 0 0 -1 I I #
coedge $-1 $171 $171 $-1 $249 reversed $101 $-1 #
edge $-1 $250 0 $250 6.2831853071796004 $102 $251 forward 7 unknown #
vertex $-1 $105 $252 #
ellipse-curve $-1 51.495855076218326 18.200051587762577 7.431493113289914 0.69465837861970381 0 0.71933979245794832 0.35966989622897416 0 -0.3473291893098519 1 I I #
coedge $-1 $175 $175 $-1 $253 reversed $108 $-1 #
edge $-1 $254 0 $254 6.2831853071796004 $109 $255 forward 7 unknown #
vertex $-1 $112 $256 #
ellipse-curve $-1 51.495855076218326 22.411485954146304 7.431493113289914 0.69465837861970381 0 0.71933979245794832 0.35966989622897416 0 -0.3473291893098519 1 I I #
coedge $-1 $179 $179 $-1 $257 reversed $115 $-1 #
edge $-1 $258 0 $258 6.2831853071796004 $116 $259 forward 7 unknown #
vertex $-1 $119 $260 #
ellipse-curve $-1 51.495855076218326 26.622920320530032 7.431493113289914 0.69465837861970381 0 0.71933979245794832 0.35966989622897416 0 -0.3473291893098519 1 I I #
face $-1 $-1 $135 $18 $-1 $261 reversed single #
loop $-1 $-1 $199 $120 #
plane-surface $-1 0 29.430543231452507 0 0 -1 0 0 0 -1 forward_v I I I I #
coedge $-1 $262 $197 $200 $263 forward $121 $-1 #
coedge $-1 $203 $123 $124 $191 reversed $76 $-1 #
coedge $-1 $197 $262 $123 $189 reversed $121 $-1 #
edge $-1 $204 -8.994517228565682 $264 8.994517228565682 $188 $265 forward 7 unknown #
coedge $-1 $125 $124 $262 $266 forward $49 $-1 #
edge $-1 $195 -53.11441389202551 $264 53.11441389202551 $187 $267 forward 7 unknown #
coedge $-1 $200 $199 $125 $193 reversed $184 $-1 #
edge $-1 $268 -53.11441389202551 $194 53.11441389202551 $192 $269 forward 7 unknown #
vertex $-1 $127 $270 #
vertex $-1 $206 $271 #
straight-curve $-1 53.11441389202551 0 -8.994517228565682 0 -1 0 I I #
coedge $-1 $186 $188 $128 $198 reversed $121 $-1 #
edge $-1 $201 -29.430543231452507 $204 29.430543231452507 $197 $272 forward 7 unknown #
coedge $-1 $192 $129 $134 $207 forward $184 $-1 #
coedge $-1 $129 $192 $186 $263 reversed $184 $-1 #
vertex $-1 $130 $273 #
straight-curve $-1 0 29.430543231452507 8.994517228565682 -1 0 0 I I #
coedge $-1 $131 $187 $133 $206 reversed $76 $-1 #
vertex $-1 $198 $274 #
straight-curve $-1 0 -29.430543231452507 8.994517228565682 1 0 0 I I #
edge $-1 $136 -8.994517228565682 $195 8.994517228565682 $133 $275 forward 7 unknown #
edge $-1 $137 -8.994517228565682 $194 8.994517228565682 $134 $276 forward 7 unknown #
point $-1 53.11441389202551 -29.430543231452507 8.994517228565682 #
point $-1 53.11441389202551 29.430543231452507 8.994517228565682 #
face $-1 $-1 $226 $19 $-1 $277 forward single #
plane-surface $-1 -56.135687244210203 -23.118652616894952 0 0 -1 0 0 0 -1 forward_v I I I I #
coedge $-1 $278 $279 $229 $280 forward $140 $-1 #
coedge $-1 $222 $142 $143 $218 reversed $84 $-1 #
coedge $-1 $142 $222 $225 $281 reversed $84 $-1 #
coedge $-1 $279 $278 $142 $216 reversed $140 $-1 #
edge $-1 $282 -8.994517228565682 $283 8.994517228565682 $215 $284 forward 7 unknown #
coedge $-1 $144 $143 $278 $285 forward $53 $-1 #
edge $-1 $220 -3.0212733521846928 $283 3.0212733521846928 $213 $286 forward 7 unknown #
edge $-1 $287 -3.0212733521846928 $152 3.0212733521846928 $149 $288 forward 7 unknown #
vertex $-1 $218 $289 #
straight-curve $-1 -53.11441389202551 0 -8.994517228565682 0 -1 0 I I #
coedge $-1 $214 $213 $146 $223 reversed $84 $-1 #
edge $-1 $227 -8.994517228565682 $220 8.994517228565682 $222 $290 forward 7 unknown #
coedge $-1 $291 $147 $150 $230 forward $226 $-1 #
coedge $-1 $147 $291 $214 $281 forward $226 $-1 #
loop $-1 $-1 $147 $210 #
vertex $-1 $148 $292 #
straight-curve $-1 -53.11441389202551 0 8.994517228565682 0 1 0 I I #
coedge $-1 $150 $149 $212 $280 reversed $151 $-1 #
edge $-1 $153 -3.0212733521846928 $293 3.0212733521846928 $150 $294 forward 7 unknown #
point $-1 -53.11441389202551 -23.118652616894952 -8.994517228565682 #
point $-1 -53.11441389202551 -23.118652616894952 8.994517228565682 #
plane-surface $-1 53.11441389202551 0 0 -1 0 0 0 0 1 forward_v I I I I #
coedge $-1 $163 $295 $238 $296 forward $156 $-1 #
coedge $-1 $236 $158 $295 $297 reversed $92 $-1 #
coedge $-1 $158 $235 $239 $298 forward $92 $-1 #
edge $-1 $240 -70.179779045262876 $299 -65.679655924653488 $158 $300 forward 7 unknown #
coedge $-1 $160 $159 $234 $296 reversed $57 $-1 #
coedge $-1 $166 $161 $236 $298 reversed $167 $-1 #
vertex $-1 $162 $301 #
straight-curve $-1 53.11441389202551 11.205742977073148 5.8684689980141371 0 1 0 I I #
coedge $-1 $295 $163 $166 $246 forward $156 $-1 #
vertex $-1 $164 $302 #
straight-curve $-1 25.246268115967865 15.39242867684009 8.9945172285656838 1 0 0 I I #
straight-curve $-1 -23.300209039204901 15.39242867684009 79.661214269154769 -0.71933979245794832 0 0.69465837861970381 I I #
edge $-1 $168 15.39242867684009 $303 29.430543231452507 $166 $304 forward 7 unknown #
point $-1 53.11441389202551 15.39242867684009 8.994517228565682 #
point $-1 53.11441389202551 15.39242867684009 5.8684689980141229 #
edge $-1 $305 1 $305 0 $171 $-1 forward 7 unknown #
vertex $-1 $172 $306 #
ellipse-curve $-1 50.62888359901099 18.200051587762577 6.533717887832359 0.69465837861970381 0 0.71933979245794832 0.35966989622897416 0 -0.3473291893098519 1 I I #
point $-1 51.855524972447306 18.200051587762577 7.0841639239800651 #
edge $-1 $307 1 $307 0 $175 $-1 forward 7 unknown #
vertex $-1 $176 $308 #
ellipse-curve $-1 50.62888359901099 22.411485954146304 6.533717887832359 0.69465837861970381 0 0.71933979245794832 0.35966989622897416 0 -0.3473291893098519 1 I I #
point $-1 51.855524972447306 22.411485954146304 7.0841639239800651 #
edge $-1 $309 1 $309 0 $179 $-1 forward 7 unknown #
vertex $-1 $180 $310 #
ellipse-curve $-1 50.62888359901099 26.622920320530032 6.533717887832359 0.69465837861970381 0 0.71933979245794832 0.35966989622897416 0 -0.3473291893098519 1 I I #
point $-1 51.855524972447306 26.622920320530032 7.0841639239800651 #
plane-surface $-1 53.11441389202551 0 0 -1 0 0 0 0 1 forward_v I I I I #
coedge $-1 $188 $186 $190 $266 reversed $121 $-1 #
edge $-1 $201 -8.994517228565682 $268 8.994517228565682 $200 $311 forward 7 unknown #
vertex $-1 $266 $312 #
straight-curve $-1 -53.11441389202551 -29.430543231452507 0 0 0 -1 I I #
edge $-1 $264 -29.430543231452507 $268 29.430543231452507 $262 $313 forward 7 unknown #
straight-curve $-1 0 -29.430543231452507 -8.994517228565682 -1 0 0 I I #
vertex $-1 $193 $314 #
straight-curve $-1 0 29.430543231452507 -8.994517228565682 1 0 0 I I #
point $-1 53.11441389202551 29.430543231452507 -8.994517228565682 #
point $-1 53.11441389202551 -29.430543231452507 -8.994517228565682 #
straight-curve $-1 -53.11441389202551 0 8.994517228565682 0 -1 0 I I #
point $-1 -53.11441389202551 29.430543231452507 8.994517228565682 #
point $-1 -53.11441389202551 -29.430543231452507 8.994517228565682 #
straight-curve $-1 53.11441389202551 -29.430543231452507 0 0 0 -1 I I #
straight-curve $-1 53.11441389202551 29.430543231452507 0 0 0 -1 I I #
plane-surface $-1 0 0 8.994517228565682 0 0 1 1 0 0 forward_v I I I I #
coedge $-1 $215 $212 $217 $285 reversed $140 $-1 #
coedge $-1 $212 $215 $291 $315 reversed $140 $-1 #
edge $-1 $293 -8.994517228565682 $287 8.994517228565682 $229 $316 forward 7 unknown #
edge $-1 $282 -3.0212733521846928 $227 3.0212733521846928 $214 $317 forward 7 unknown #
vertex $-1 $315 $318 #
vertex $-1 $285 $319 #
straight-curve $-1 -59.156960596394896 -26.375476528453543 0 0 0 -1 I I #
edge $-1 $283 -1.6284119557792955 $287 1.6284119557792955 $278 $320 forward 7 unknown #
straight-curve $-1 -56.135687244210203 -26.375476528453543 -8.994517228565682 -1 0 0 I I #
vertex $-1 $219 $321 #
straight-curve $-1 -56.135687244210203 -23.118652616894952 -8.994517228565682 1 0 0 I I #
point $-1 -53.11441389202551 -26.375476528453543 -8.994517228565682 #
straight-curve $-1 -53.11441389202551 -26.375476528453543 0 0 0 -1 I I #
coedge $-1 $225 $224 $279 $315 forward $226 $-1 #
point $-1 -53.11441389202551 -26.375476528453543 8.994517228565682 #
vertex $-1 $230 $322 #
straight-curve $-1 -56.135687244210203 -23.118652616894952 8.994517228565682 -1 0 0 I I #
coedge $-1 $234 $242 $235 $297 forward $156 $-1 #
edge $-1 $299 -18.224800254379353 $243 -4.1866856997669419 $234 $323 forward 7 unknown #
edge $-1 $303 -53.11441389202551 $299 -49.877296260411143 $235 $324 forward 7 unknown #
edge $-1 $303 -8.994517228565682 $240 -5.8684689980141247 $239 $325 forward 7 unknown #
vertex $-1 $296 $326 #
straight-curve $-1 2.6313061988614415 29.430543231452507 54.619440521485501 -0.71933979245794832 0 0.69465837861970381 I I #
point $-1 53.11441389202551 29.430543231452507 5.8684689980141247 #
point $-1 49.877296260411143 15.39242867684009 8.9945172285656838 #
vertex $-1 $246 $327 #
straight-curve $-1 53.11441389202551 0 8.994517228565682 0 1 0 I I #
vertex $-1 $249 $328 #
point $-1 50.988553495239969 18.200051587762577 6.1863886985225074 #
vertex $-1 $253 $329 #
point $-1 50.988553495239969 22.411485954146304 6.1863886985225074 #
vertex $-1 $257 $330 #
point $-1 50.988553495239969 26.622920320530032 6.1863886985225074 #
straight-curve $-1 -53.11441389202551 29.430543231452507 0 0 0 -1 I I #
point $-1 -53.11441389202551 -29.430543231452507 -8.994517228565682 #
straight-curve $-1 -53.11441389202551 0 -8.994517228565682 0 1 0 I I #
point $-1 -53.11441389202551 29.430543231452507 -8.994517228565682 #
edge $-1 $293 -1.6284119557792955 $282 1.6284119557792955 $279 $331 forward 7 unknown #
straight-curve $-1 -59.156960596394896 -23.118652616894952 0 0 0 -1 I I #
straight-curve $-1 -56.135687244210203 -26.375476528453543 8.994517228565682 1 0 0 I I #
point $-1 -59.156960596394896 -26.375476528453543 8.994517228565682 #
point $-1 -59.156960596394896 -26.375476528453543 -8.994517228565682 #
straight-curve $-1 -59.156960596394896 -24.747064572674248 -8.994517228565682 0 1 0 I I #
point $-1 -59.156960596394896 -23.118652616894952 -8.994517228565682 #
point $-1 -59.156960596394896 -23.118652616894952 8.994517228565682 #
straight-curve $-1 49.877296260411143 11.205742977073148 8.9945172285656767 0 -1 0 I I #
straight-curve $-1 0 29.430543231452507 8.994517228565682 -1 0 0 I I #
straight-curve $-1 53.11441389202551 29.430543231452507 0 0 0 -1 I I #
point $-1 49.877296260411143 29.430543231452504 8.9945172285656838 #
point $-1 53.11441389202551 29.430543231452507 8.994517228565682 #
point $-1 50.281554409701144 18.200051587762577 6.174047991603385 #
point $-1 50.281554409701144 22.411485954146304 6.174047991603385 #
point $-1 50.281554409701144 26.622920320530032 6.174047991603385 #
straight-curve $-1 -59.156960596394896 -24.747064572674248 8.994517228565682 0 -1 0 I I #
End-of-ACIS-data 