500 0 9 0           
7 Unknown 11 ACIS 5.0 NT 24 Fri Mar 26 00:22:06 1999 
-1 9.9999999999999995e-007 1e-010 
body $-1 $9 $-1 $10 #
body $-1 $11 $-1 $12 #
body $-1 $13 $-1 $14 #
body $-1 $15 $-1 $16 #
body $-1 $17 $-1 $18 #
body $-1 $19 $-1 $20 #
body $-1 $21 $-1 $22 #
body $-1 $23 $-1 $24 #
body $-1 $25 $-1 $26 #
lump $-1 $-1 $27 $0 #
transform $-1 1 0 0 0 1 0 0 0 1 52.698141422772913 34.528403810172996 9.6332212882424244 1 rotate no_reflect no_shear #
lump $-1 $-1 $28 $1 #
transform $-1 1 0 0 0 1 0 0 0 1 52.698141422772913 34.528403810172996 9.6332212882424244 1 rotate no_reflect no_shear #
lump $-1 $-1 $29 $2 #
transform $-1 1 0 0 0 1 0 0 0 1 52.698141422772913 34.528403810172996 9.6332212882424244 1 rotate no_reflect no_shear #
lump $-1 $-1 $30 $3 #
transform $-1 1 0 0 0 1 0 0 0 1 52.698141422772913 34.528403810172996 9.6332212882424244 1 rotate no_reflect no_shear #
lump $-1 $-1 $31 $4 #
transform $-1 1 0 0 0 1 0 0 0 1 52.698141422772913 34.528403810172996 9.6332212882424244 1 rotate no_reflect no_shear #
lump $-1 $-1 $32 $5 #
transform $-1 1 0 0 0 1 0 0 0 1 52.698141422772913 34.528403810172996 9.6332212882424244 1 rotate no_reflect no_shear #
lump $-1 $-1 $33 $6 #
transform $-1 1 0 0 0 1 0 0 0 1 52.698141422772913 34.528403810172996 9.6332212882424244 1 rotate no_reflect no_shear #
lump $-1 $-1 $34 $7 #
transform $-1 1 0 0 0 1 0 0 0 1 52.698141422772913 34.528403810172996 9.6332212882424244 1 rotate no_reflect no_shear #
lump $-1 $-1 $35 $8 #
transform $-1 1 0 0 0 1 0 0 0 1 52.698141422772913 34.528403810172996 9.6332212882424244 1 rotate no_reflect no_shear #
shell $-1 $-1 $-1 $36 $-1 $9 #
shell $-1 $-1 $-1 $37 $-1 $11 #
shell $-1 $-1 $-1 $38 $-1 $13 #
shell $-1 $-1 $-1 $39 $-1 $15 #
shell $-1 $-1 $-1 $40 $-1 $17 #
shell $-1 $-1 $-1 $41 $-1 $19 #
shell $-1 $-1 $-1 $42 $-1 $21 #
shell $-1 $-1 $-1 $43 $-1 $23 #
shell $-1 $-1 $-1 $44 $-1 $25 #
face $-1 $45 $46 $27 $-1 $47 forward single #
face $-1 $48 $49 $28 $-1 $50 reversed single #
face $-1 $51 $52 $29 $-1 $53 reversed single #
face $-1 $54 $55 $30 $-1 $56 forward single #
face $-1 $57 $58 $31 $-1 $59 forward single #
face $-1 $60 $61 $32 $-1 $62 forward single #
face $-1 $63 $64 $33 $-1 $65 reversed single #
face $-1 $66 $67 $34 $-1 $68 forward single #
face $-1 $69 $70 $35 $-1 $71 forward single #
face $-1 $72 $73 $27 $-1 $74 reversed single #
loop $-1 $-1 $75 $36 #
plane-surface $-1 0 0 9.6332212882424244 0 0 1 1 0 0 forward_v I I I I #
face $-1 $76 $77 $28 $-1 $78 reversed single #
loop $-1 $-1 $79 $37 #
plane-surface $-1 -50.828678522604918 -24.146785859428618 0 0 -1 0 0 0 -1 forward_v I I I I #
face $-1 $80 $81 $29 $-1 $82 reversed single #
loop $-1 $-1 $83 $38 #
plane-surface $-1 -119.02617218196363 -9.505860658702689 83.776172117772944 0 -1 0 0.62932039886446345 0 -0.77714595512881146 forward_v I I I I #
face $-1 $84 $85 $30 $-1 $86 forward single #
loop $-1 $87 $88 $39 #
cone-surface $-1 -47.395386649411641 -21.218600819283431 5.1231545591053109 0.62932039886446345 0 -0.77714595512881146 0.77714595512881146 0 0.62932039886446345 1 I I 0 1 1 forward I I I I #
face $-1 $89 $90 $31 $-1 $91 forward single #
loop $-1 $92 $93 $40 #
cone-surface $-1 -47.395386649411641 -16.826323259065653 5.1231545591053109 0.62932039886446345 0 -0.77714595512881146 0.77714595512881146 0 0.62932039886446345 1 I I 0 1 1 forward I I I I #
face $-1 $94 $95 $32 $-1 $96 forward single #
loop $-1 $97 $98 $41 #
cone-surface $-1 -47.395386649411641 -12.434045698847875 5.1231545591053109 0.62932039886446345 0 -0.77714595512881146 0.77714595512881146 0 0.62932039886446345 1 I I 0 1 1 forward I I I I #
face $-1 $99 $100 $33 $-1 $101 reversed single #
loop $-1 $-1 $102 $42 #
plane-surface $-1 76.015146735432239 4.8858660051491825 150.63873076031578 0 -1 0 -0.80901700255871778 0 -0.5877852410284794 forward_v I I I I #
face $-1 $103 $104 $34 $-1 $105 forward single #
loop $-1 $106 $107 $43 #
cone-surface $-1 49.855575998764444 -3.0378982886800827 6.1014621400928322 -0.80901700255871778 0 -0.5877852410284794 0.5877852410284794 0 -0.80901700255871778 1 I I 0 1 1 forward I I I I #
face $-1 $108 $109 $35 $-1 $110 forward single #
loop $-1 $111 $112 $44 #
cone-surface $-1 49.855575998764444 1.7163602876174764 6.1014621400928322 -0.80901700255871778 0 -0.5877852410284794 0.5877852410284794 0 -0.80901700255871778 1 I I 0 1 1 forward I I I I #
face $-1 $113 $114 $27 $-1 $115 reversed single #
loop $-1 $-1 $116 $45 #
plane-surface $-1 0 0 -9.6332212882424244 0 0 1 1 0 0 forward_v I I I I #
coedge $-1 $117 $118 $119 $120 forward $46 $-1 #
face $-1 $121 $122 $28 $-1 $123 forward single #
loop $-1 $-1 $124 $48 #
plane-surface $-1 -48.959215622436922 -29.337594834800807 0 -1 0 0 0 0 1 forward_v I I I I #
coedge $-1 $125 $126 $127 $128 forward $49 $-1 #
face $-1 $129 $130 $29 $-1 $131 forward single #
loop $-1 $-1 $132 $51 #
plane-surface $-1 -52.69814142277292 -16.826323259065653 1.8678772187448658 -0.62932039886446345 0 0.77714595512881146 0.77714595512881146 0 0.62932039886446345 forward_v I I I I #
coedge $-1 $133 $134 $135 $136 reversed $52 $-1 #
face $-1 $-1 $137 $30 $-1 $138 forward single #
loop $-1 $139 $140 $54 #
cone-surface $-1 -46.572672233506687 -21.218600819283431 4.1071868871525741 0.62932039886446345 0 -0.77714595512881146 0.38857297756440573 0 0.31466019943223172 1 I I -0.70710678118654746 0.70710678118654746 0.5 forward I I I I #
loop $-1 $-1 $141 $39 #
coedge $-1 $88 $88 $142 $143 reversed $55 $-1 #
face $-1 $-1 $144 $31 $-1 $145 forward single #
loop $-1 $146 $147 $57 #
cone-surface $-1 -46.572672233506687 -16.826323259065653 4.1071868871525741 0.62932039886446345 0 -0.77714595512881146 0.38857297756440573 0 0.31466019943223172 1 I I -0.70710678118654746 0.70710678118654746 0.5 forward I I I I #
loop $-1 $-1 $148 $40 #
coedge $-1 $93 $93 $149 $150 reversed $58 $-1 #
face $-1 $-1 $151 $32 $-1 $152 forward single #
loop $-1 $153 $154 $60 #
cone-surface $-1 -46.572672233506687 -12.434045698847875 4.1071868871525741 0.62932039886446345 0 -0.77714595512881146 0.38857297756440573 0 0.31466019943223172 1 I I -0.70710678118654746 0.70710678118654746 0.5 forward I I I I #
loop $-1 $-1 $155 $41 #
coedge $-1 $98 $98 $156 $157 reversed $61 $-1 #
face $-1 $158 $159 $33 $-1 $160 reversed single #
loop $-1 $-1 $161 $63 #
plane-surface $-1 -9.2522380931020507 -0.66076900053130316 88.688351244440838 0.80901700255871778 0 0.5877852410284794 0.5877852410284794 0 -0.80901700255871778 forward_v I I I I #
coedge $-1 $162 $163 $164 $165 reversed $64 $-1 #
face $-1 $-1 $166 $34 $-1 $167 forward single #
loop $-1 $168 $169 $66 #
cone-surface $-1 48.865235687181674 -3.0378982886800827 5.3819378075969269 -0.80901700255871778 0 -0.5877852410284794 0.2938926205142397 0 -0.40450850127935889 1 I I -0.70710678118654746 0.70710678118654746 0.5 forward I I I I #
loop $-1 $-1 $170 $43 #
coedge $-1 $107 $107 $171 $172 reversed $67 $-1 #
face $-1 $-1 $173 $35 $-1 $174 forward single #
loop $-1 $175 $176 $69 #
cone-surface $-1 48.865235687181674 1.7163602876174764 5.3819378075969269 -0.80901700255871778 0 -0.5877852410284794 0.2938926205142397 0 -0.40450850127935889 1 I I -0.70710678118654746 0.70710678118654746 0.5 forward I I I I #
loop $-1 $-1 $177 $44 #
coedge $-1 $112 $112 $178 $179 reversed $70 $-1 #
face $-1 $180 $181 $27 $-1 $182 reversed single #
loop $-1 $-1 $183 $72 #
plane-surface $-1 0 -34.528403810172996 0 0 1 0 0 0 1 forward_v I I I I #
coedge $-1 $184 $185 $186 $187 forward $73 $-1 #
coedge $-1 $188 $75 $189 $190 forward $46 $-1 #
coedge $-1 $75 $188 $191 $192 forward $46 $-1 #
coedge $-1 $193 $194 $75 $120 reversed $195 $-1 #
edge $-1 $196 -34.528403810172996 $197 34.528403810172996 $119 $198 forward 7 unknown #
face $-1 $199 $200 $28 $-1 $201 reversed single #
loop $-1 $-1 $202 $76 #
plane-surface $-1 0 0 9.6332212882424244 0 0 1 1 0 0 forward_v I I I I #
coedge $-1 $203 $204 $205 $206 reversed $77 $-1 #
coedge $-1 $207 $79 $208 $209 reversed $49 $-1 #
coedge $-1 $79 $207 $210 $211 reversed $49 $-1 #
coedge $-1 $204 $203 $79 $128 reversed $77 $-1 #
edge $-1 $212 -9.6332212882424244 $213 9.6332212882424244 $127 $214 forward 7 unknown #
face $-1 $215 $216 $29 $-1 $217 forward single #
loop $-1 $-1 $218 $80 #
plane-surface $-1 0 0 9.6332212882424244 0 0 1 1 0 0 forward_v I I I I #
coedge $-1 $219 $220 $221 $222 reversed $81 $-1 #
coedge $-1 $134 $83 $223 $224 reversed $52 $-1 #
coedge $-1 $83 $133 $219 $225 reversed $52 $-1 #
coedge $-1 $221 $226 $83 $136 forward $227 $-1 #
edge $-1 $228 32.254864770644048 $229 40.020208840141599 $135 $230 forward 7 unknown #
loop $-1 $-1 $142 $84 #
plane-surface $-1 -52.69814142277292 -16.826323259065653 1.8678772187448658 -0.62932039886446345 0 0.77714595512881146 0.77714595512881146 0 0.62932039886446345 forward_v I I I I #
loop $-1 $-1 $231 $54 #
coedge $-1 $140 $140 $141 $232 reversed $85 $-1 #
coedge $-1 $141 $141 $140 $232 forward $87 $-1 #
coedge $-1 $142 $142 $88 $143 forward $137 $-1 #
edge $-1 $233 0 $233 6.2831853071796004 $142 $234 forward 7 unknown #
loop $-1 $-1 $149 $89 #
plane-surface $-1 -52.69814142277292 -16.826323259065653 1.8678772187448658 -0.62932039886446345 0 0.77714595512881146 0.77714595512881146 0 0.62932039886446345 forward_v I I I I #
loop $-1 $-1 $235 $57 #
coedge $-1 $147 $147 $148 $236 reversed $90 $-1 #
coedge $-1 $148 $148 $147 $236 forward $92 $-1 #
coedge $-1 $149 $149 $93 $150 forward $144 $-1 #
edge $-1 $237 0 $237 6.2831853071796004 $149 $238 forward 7 unknown #
loop $-1 $-1 $156 $94 #
plane-surface $-1 -52.69814142277292 -16.826323259065653 1.8678772187448658 -0.62932039886446345 0 0.77714595512881146 0.77714595512881146 0 0.62932039886446345 forward_v I I I I #
loop $-1 $-1 $239 $60 #
coedge $-1 $154 $154 $155 $240 reversed $95 $-1 #
coedge $-1 $155 $155 $154 $240 forward $97 $-1 #
coedge $-1 $156 $156 $98 $157 forward $151 $-1 #
edge $-1 $241 0 $241 6.2831853071796004 $156 $242 forward 7 unknown #
face $-1 $243 $244 $33 $-1 $245 reversed single #
loop $-1 $-1 $246 $99 #
plane-surface $-1 76.015146735432239 -6.2074040062117888 150.63873076031578 0 1 0 0.80901700255871778 0 0.5877852410284794 forward_v I I I I #
coedge $-1 $247 $248 $249 $250 reversed $100 $-1 #
coedge $-1 $163 $102 $251 $252 reversed $64 $-1 #
coedge $-1 $102 $162 $247 $253 reversed $64 $-1 #
coedge $-1 $249 $254 $102 $165 forward $255 $-1 #
edge $-1 $256 -14.690568055056794 $257 -10.177100827646719 $164 $258 forward 7 unknown #
loop $-1 $-1 $171 $103 #
plane-surface $-1 -9.2522380931020507 -0.66076900053130316 88.688351244440838 0.80901700255871778 0 0.5877852410284794 0.5877852410284794 0 -0.80901700255871778 forward_v I I I I #
loop $-1 $-1 $259 $66 #
coedge $-1 $169 $169 $170 $260 reversed $104 $-1 #
coedge $-1 $170 $170 $169 $260 forward $106 $-1 #
coedge $-1 $171 $171 $107 $172 forward $166 $-1 #
edge $-1 $261 0 $261 6.2831853071796004 $171 $262 forward 7 unknown #
loop $-1 $-1 $178 $108 #
plane-surface $-1 -9.2522380931020507 -0.66076900053130316 88.688351244440838 0.80901700255871778 0 0.5877852410284794 0.5877852410284794 0 -0.80901700255871778 forward_v I I I I #
loop $-1 $-1 $263 $69 #
coedge $-1 $176 $176 $177 $264 reversed $109 $-1 #
coedge $-1 $177 $177 $176 $264 forward $111 $-1 #
coedge $-1 $178 $178 $112 $179 forward $173 $-1 #
edge $-1 $265 0 $265 6.2831853071796004 $178 $266 forward 7 unknown #
face $-1 $267 $268 $27 $-1 $269 reversed single #
loop $-1 $-1 $270 $113 #
plane-surface $-1 -52.698141422772913 0 0 1 0 0 0 0 -1 forward_v I I I I #
coedge $-1 $271 $191 $272 $273 forward $114 $-1 #
coedge $-1 $274 $116 $271 $275 forward $73 $-1 #
coedge $-1 $116 $274 $276 $277 forward $73 $-1 #
coedge $-1 $194 $193 $116 $187 reversed $195 $-1 #
edge $-1 $278 -34.528403810172996 $279 34.528403810172996 $186 $280 forward 7 unknown #
coedge $-1 $118 $117 $281 $282 forward $46 $-1 #
coedge $-1 $283 $284 $117 $190 reversed $268 $-1 #
edge $-1 $197 -52.698141422772913 $285 52.698141422772913 $189 $286 forward 7 unknown #
coedge $-1 $183 $287 $118 $192 reversed $114 $-1 #
edge $-1 $288 -52.698141422772913 $196 52.698141422772913 $191 $289 forward 7 unknown #
coedge $-1 $186 $119 $287 $290 forward $195 $-1 #
coedge $-1 $119 $186 $283 $291 reversed $195 $-1 #
loop $-1 $-1 $193 $267 #
vertex $-1 $120 $292 #
vertex $-1 $120 $293 #
straight-curve $-1 52.698141422772913 0 9.6332212882424244 0 1 0 I I #
face $-1 $294 $295 $28 $-1 $296 reversed single #
loop $-1 $-1 $297 $121 #
plane-surface $-1 -52.698141422772913 0 0 1 0 0 0 0 -1 forward_v I I I I #
coedge $-1 $210 $298 $204 $299 forward $122 $-1 #
coedge $-1 $127 $124 $300 $301 reversed $77 $-1 #
coedge $-1 $124 $127 $202 $299 reversed $77 $-1 #
coedge $-1 $302 $303 $124 $206 forward $304 $-1 #
edge $-1 $305 -9.6332212882424244 $306 9.6332212882424244 $205 $307 forward 7 unknown #
coedge $-1 $126 $125 $297 $308 reversed $49 $-1 #
coedge $-1 $300 $309 $125 $209 forward $295 $-1 #
edge $-1 $310 -27.283802161470454 $213 -23.544876361134463 $208 $311 forward 7 unknown #
coedge $-1 $312 $202 $126 $211 forward $122 $-1 #
edge $-1 $212 23.544876361134463 $313 27.283802161470454 $210 $314 forward 7 unknown #
vertex $-1 $211 $315 #
vertex $-1 $209 $316 #
straight-curve $-1 -48.959215622436922 -24.146785859428618 0 0 0 -1 I I #
face $-1 $-1 $227 $29 $-1 $317 reversed single #
loop $-1 $-1 $318 $129 #
plane-surface $-1 -50.828678522604918 -24.146785859428618 0 0 -1 0 0 0 -1 forward_v I I I I #
coedge $-1 $319 $320 $321 $322 forward $130 $-1 #
coedge $-1 $323 $132 $134 $225 forward $81 $-1 #
coedge $-1 $132 $323 $318 $324 reversed $81 $-1 #
coedge $-1 $325 $135 $132 $222 forward $227 $-1 #
edge $-1 $229 1.0926990291698626 $326 15.733624229895792 $221 $327 forward 7 unknown #
coedge $-1 $320 $319 $133 $224 forward $130 $-1 #
edge $-1 $328 -16.404345781985995 $228 -6.8149446682089021 $223 $329 forward 7 unknown #
edge $-1 $229 9.1551213131864128e-015 $328 12.339253714815593 $134 $330 forward 7 unknown #
coedge $-1 $135 $325 $320 $331 reversed $227 $-1 #
loop $-1 $-1 $221 $215 #
vertex $-1 $331 $332 #
vertex $-1 $136 $333 #
straight-curve $-1 -52.698141422772913 -9.505860658702689 41.888086058886472 0 0 -1 I I #
coedge $-1 $231 $231 $-1 $334 reversed $139 $-1 #
edge $-1 $335 0 $335 6.2831853071796004 $140 $336 forward 7 unknown #
vertex $-1 $143 $337 #
ellipse-curve $-1 -47.90344086588437 -21.218600819283431 5.7505492534936495 -0.62932039886446345 0 0.77714595512881146 0.77714595512881146 0 0.62932039886446345 1 I I #
coedge $-1 $235 $235 $-1 $338 reversed $146 $-1 #
edge $-1 $339 0 $339 6.2831853071796004 $147 $340 forward 7 unknown #
vertex $-1 $150 $341 #
ellipse-curve $-1 -47.90344086588437 -16.826323259065653 5.7505492534936495 -0.62932039886446345 0 0.77714595512881146 0.77714595512881146 0 0.62932039886446345 1 I I #
coedge $-1 $239 $239 $-1 $342 reversed $153 $-1 #
edge $-1 $343 0 $343 6.2831853071796004 $154 $344 forward 7 unknown #
vertex $-1 $157 $345 #
ellipse-curve $-1 -47.90344086588437 -12.434045698847875 5.7505492534936495 -0.62932039886446345 0 0.77714595512881146 0.77714595512881146 0 0.62932039886446345 1 I I #
face $-1 $-1 $255 $33 $-1 $346 forward single #
loop $-1 $-1 $347 $158 #
plane-surface $-1 52.698141422772913 0 0 -1 0 0 0 0 1 forward_v I I I I #
coedge $-1 $348 $349 $350 $351 reversed $159 $-1 #
coedge $-1 $352 $161 $163 $253 forward $100 $-1 #
coedge $-1 $161 $352 $348 $353 forward $100 $-1 #
coedge $-1 $350 $164 $161 $250 forward $255 $-1 #
edge $-1 $257 -5.216250505414834 $354 5.8770195059461372 $249 $355 forward 7 unknown #
coedge $-1 $356 $357 $162 $252 forward $244 $-1 #
edge $-1 $358 -71.898398964251371 $256 -65.686144091915466 $251 $359 forward 7 unknown #
edge $-1 $257 97.717513607460504 $358 105.39628284554587 $163 $360 forward 7 unknown #
coedge $-1 $164 $350 $356 $361 forward $255 $-1 #
loop $-1 $-1 $350 $243 #
vertex $-1 $252 $362 #
vertex $-1 $165 $363 #
straight-curve $-1 38.00757336771612 4.8858660051491825 9.6332212882424244 -1 0 0 I I #
coedge $-1 $259 $259 $-1 $364 reversed $168 $-1 #
edge $-1 $365 0 $365 6.2831853071796004 $169 $366 forward 7 unknown #
vertex $-1 $172 $367 #
ellipse-curve $-1 50.441407809067854 -3.0378982886800827 6.5270938520744943 0.80901700255871778 0 0.5877852410284794 0.5877852410284794 0 -0.80901700255871778 1 I I #
coedge $-1 $263 $263 $-1 $368 reversed $175 $-1 #
edge $-1 $369 0 $369 6.2831853071796004 $176 $370 forward 7 unknown #
vertex $-1 $179 $371 #
ellipse-curve $-1 50.441407809067854 1.7163602876174764 6.5270938520744943 0.80901700255871778 0 0.5877852410284794 0.5877852410284794 0 -0.80901700255871778 1 I I #
face $-1 $-1 $195 $27 $-1 $372 reversed single #
loop $-1 $-1 $283 $180 #
plane-surface $-1 0 34.528403810172996 0 0 -1 0 0 0 -1 forward_v I I I I #
coedge $-1 $373 $281 $284 $374 forward $181 $-1 #
coedge $-1 $287 $183 $184 $275 reversed $114 $-1 #
coedge $-1 $281 $373 $183 $273 reversed $181 $-1 #
edge $-1 $288 -9.6332212882424244 $375 9.6332212882424244 $272 $376 forward 7 unknown #
coedge $-1 $185 $184 $373 $377 forward $73 $-1 #
edge $-1 $279 -52.698141422772913 $375 52.698141422772913 $271 $378 forward 7 unknown #
coedge $-1 $284 $283 $185 $277 reversed $268 $-1 #
edge $-1 $379 -52.698141422772913 $278 52.698141422772913 $276 $380 forward 7 unknown #
vertex $-1 $187 $381 #
vertex $-1 $290 $382 #
straight-curve $-1 52.698141422772913 0 -9.6332212882424244 0 -1 0 I I #
coedge $-1 $270 $272 $188 $282 reversed $181 $-1 #
edge $-1 $285 -34.528403810172996 $288 34.528403810172996 $281 $383 forward 7 unknown #
coedge $-1 $276 $189 $194 $291 forward $268 $-1 #
coedge $-1 $189 $276 $270 $374 reversed $268 $-1 #
vertex $-1 $190 $384 #
straight-curve $-1 0 34.528403810172996 9.6332212882424244 -1 0 0 I I #
coedge $-1 $191 $271 $193 $290 reversed $114 $-1 #
vertex $-1 $282 $385 #
straight-curve $-1 0 -34.528403810172996 9.6332212882424244 1 0 0 I I #
edge $-1 $196 -9.6332212882424244 $279 9.6332212882424244 $193 $386 forward 7 unknown #
edge $-1 $197 -9.6332212882424244 $278 9.6332212882424244 $194 $387 forward 7 unknown #
point $-1 52.698141422772913 -34.528403810172996 9.6332212882424244 #
point $-1 52.698141422772913 34.528403810172996 9.6332212882424244 #
face $-1 $-1 $304 $28 $-1 $388 reversed single #
loop $-1 $-1 $300 $199 #
plane-surface $-1 0 0 -9.6332212882424244 0 0 1 1 0 0 forward_v I I I I #
coedge $-1 $389 $390 $207 $308 forward $200 $-1 #
coedge $-1 $202 $312 $302 $391 forward $122 $-1 #
edge $-1 $306 -19.859606392772591 $212 -9.4779884420282148 $202 $392 forward 7 unknown #
coedge $-1 $393 $208 $203 $301 forward $295 $-1 #
edge $-1 $213 9.4779884420282148 $305 19.859606392772591 $300 $394 forward 7 unknown #
coedge $-1 $395 $205 $298 $391 reversed $304 $-1 #
coedge $-1 $205 $395 $393 $396 reversed $304 $-1 #
loop $-1 $-1 $205 $294 #
vertex $-1 $396 $397 #
vertex $-1 $206 $398 #
straight-curve $-1 -48.959215622436922 -34.528403810172996 0 0 0 1 I I #
edge $-1 $313 -9.6332212882424244 $310 9.6332212882424244 $297 $399 forward 7 unknown #
coedge $-1 $208 $393 $389 $400 forward $295 $-1 #
vertex $-1 $209 $401 #
straight-curve $-1 -25.414339261302459 -24.146785859428618 -9.6332212882424244 1 0 0 I I #
coedge $-1 $298 $210 $390 $402 forward $122 $-1 #
vertex $-1 $402 $403 #
straight-curve $-1 -25.414339261302459 -24.146785859428618 9.6332212882424244 -1 0 0 I I #
point $-1 -48.959215622436922 -24.146785859428618 9.6332212882424244 #
point $-1 -48.959215622436922 -24.146785859428618 -9.6332212882424244 #
plane-surface $-1 -52.698141422772913 0 0 1 0 0 0 0 -1 forward_v I I I I #
coedge $-1 $321 $404 $220 $324 forward $216 $-1 #
coedge $-1 $223 $218 $323 $405 forward $130 $-1 #
coedge $-1 $218 $223 $226 $331 forward $130 $-1 #
coedge $-1 $404 $318 $218 $322 reversed $216 $-1 #
edge $-1 $406 -27.283802161470454 $407 -17.694401047693361 $218 $408 forward 7 unknown #
coedge $-1 $220 $219 $319 $405 reversed $81 $-1 #
edge $-1 $326 -0.13867614739928003 $407 12.200577567416303 $318 $409 forward 7 unknown #
coedge $-1 $226 $221 $404 $410 forward $227 $-1 #
vertex $-1 $410 $411 #
straight-curve $-1 -52.698141422772913 -8.4131616295328264 1.8678772187448751 0 -1 0 I I #
vertex $-1 $224 $412 #
straight-curve $-1 -59.513086090981815 -9.505860658702689 9.6332212882424244 -1 0 0 I I #
straight-curve $-1 -52.69814142277292 -9.505860658702689 1.8678772187448658 0.77714595512881146 0 0.62932039886446345 I I #
edge $-1 $228 9.505860658702689 $406 24.146785859428618 $226 $413 forward 7 unknown #
point $-1 -52.698141422772913 -9.505860658702689 9.6332212882424244 #
point $-1 -52.698141422772913 -9.505860658702689 1.8678772187448716 #
edge $-1 $414 1 $414 0 $231 $-1 forward 7 unknown #
vertex $-1 $232 $415 #
ellipse-curve $-1 -46.887332432938919 -21.218600819283431 4.4957598647169794 -0.62932039886446345 0 0.77714595512881146 0.77714595512881146 0 0.62932039886446345 1 I I #
point $-1 -47.126294910755547 -21.218600819283431 6.3798696523581064 #
edge $-1 $416 1 $416 0 $235 $-1 forward 7 unknown #
vertex $-1 $236 $417 #
ellipse-curve $-1 -46.887332432938919 -16.826323259065653 4.4957598647169794 -0.62932039886446345 0 0.77714595512881146 0.77714595512881146 0 0.62932039886446345 1 I I #
point $-1 -47.126294910755547 -16.826323259065653 6.3798696523581064 #
edge $-1 $418 1 $418 0 $239 $-1 forward 7 unknown #
vertex $-1 $240 $419 #
ellipse-curve $-1 -46.887332432938919 -12.434045698847875 4.4957598647169794 -0.62932039886446345 0 0.77714595512881146 0.77714595512881146 0 0.62932039886446345 1 I I #
point $-1 -47.126294910755547 -12.434045698847875 6.3798696523581064 #
plane-surface $-1 0 0 9.6332212882424244 0 0 1 1 0 0 forward_v I I I I #
coedge $-1 $357 $356 $349 $420 forward $244 $-1 #
coedge $-1 $349 $246 $248 $353 reversed $159 $-1 #
coedge $-1 $246 $348 $347 $420 reversed $159 $-1 #
coedge $-1 $254 $249 $246 $351 forward $255 $-1 #
edge $-1 $354 10.177100827646719 $421 14.690568055056794 $350 $422 forward 7 unknown #
coedge $-1 $248 $247 $357 $423 reversed $100 $-1 #
edge $-1 $424 -105.39628284554587 $354 -97.717513607460504 $348 $425 forward 7 unknown #
vertex $-1 $250 $426 #
straight-curve $-1 48.184674195362838 -0.33038450026565158 9.6332212882424244 0 -1 0 I I #
coedge $-1 $347 $251 $254 $361 reversed $244 $-1 #
coedge $-1 $251 $347 $352 $423 forward $244 $-1 #
vertex $-1 $252 $427 #
straight-curve $-1 52.698141422772913 4.8858660051491825 75.31936538015789 0 0 1 I I #
straight-curve $-1 -9.2522380931020507 4.8858660051491825 88.688351244440838 0.5877852410284794 0 -0.80901700255871778 I I #
edge $-1 $421 -6.2074040062117888 $256 4.8858660051491825 $356 $428 forward 7 unknown #
point $-1 52.698141422772913 4.8858660051491825 9.6332212882424244 #
point $-1 48.184674195362838 4.8858660051491825 9.6332212882424244 #
edge $-1 $429 1 $429 0 $259 $-1 forward 7 unknown #
vertex $-1 $260 $430 #
ellipse-curve $-1 49.269744188461033 -3.0378982886800827 5.6758304281111664 0.80901700255871778 0 0.5877852410284794 0.5877852410284794 0 -0.80901700255871778 1 I I #
point $-1 51.029193050096339 -3.0378982886800827 5.7180768495157803 #
edge $-1 $431 1 $431 0 $263 $-1 forward 7 unknown #
vertex $-1 $264 $432 #
ellipse-curve $-1 49.269744188461033 1.7163602876174764 5.6758304281111664 0.80901700255871778 0 0.5877852410284794 0.5877852410284794 0 -0.80901700255871778 1 I I #
point $-1 51.029193050096339 1.7163602876174764 5.7180768495157803 #
plane-surface $-1 52.698141422772913 0 0 -1 0 0 0 0 1 forward_v I I I I #
coedge $-1 $272 $270 $274 $377 reversed $181 $-1 #
edge $-1 $285 -9.6332212882424244 $379 9.6332212882424244 $284 $433 forward 7 unknown #
vertex $-1 $377 $434 #
straight-curve $-1 -52.698141422772913 -34.528403810172996 0 0 0 -1 I I #
edge $-1 $375 -34.528403810172996 $379 34.528403810172996 $373 $435 forward 7 unknown #
straight-curve $-1 0 -34.528403810172996 -9.6332212882424244 -1 0 0 I I #
vertex $-1 $277 $436 #
straight-curve $-1 0 34.528403810172996 -9.6332212882424244 1 0 0 I I #
point $-1 52.698141422772913 34.528403810172996 -9.6332212882424244 #
point $-1 52.698141422772913 -34.528403810172996 -9.6332212882424244 #
straight-curve $-1 -52.698141422772913 0 9.6332212882424244 0 -1 0 I I #
point $-1 -52.698141422772913 34.528403810172996 9.6332212882424244 #
point $-1 -52.698141422772913 -34.528403810172996 9.6332212882424244 #
straight-curve $-1 52.698141422772913 -34.528403810172996 0 0 0 -1 I I #
straight-curve $-1 52.698141422772913 34.528403810172996 0 0 0 -1 I I #
plane-surface $-1 0 -34.528403810172996 0 0 1 0 0 0 1 forward_v I I I I #
coedge $-1 $437 $297 $309 $400 reversed $200 $-1 #
coedge $-1 $297 $437 $312 $402 reversed $200 $-1 #
edge $-1 $438 -52.698141422772913 $306 -48.959215622436922 $302 $439 forward 7 unknown #
straight-curve $-1 -48.959215622436922 -14.668797417400404 9.6332212882424244 0 1 0 I I #
coedge $-1 $309 $300 $303 $396 forward $295 $-1 #
straight-curve $-1 -48.959215622436922 -14.668797417400404 -9.6332212882424244 0 -1 0 I I #
coedge $-1 $303 $302 $437 $440 forward $304 $-1 #
edge $-1 $305 48.959215622436922 $441 52.698141422772913 $303 $442 forward 7 unknown #
point $-1 -48.959215622436922 -34.528403810172996 -9.6332212882424244 #
point $-1 -48.959215622436922 -34.528403810172996 9.6332212882424244 #
straight-curve $-1 -52.698141422772913 -24.146785859428618 0 0 0 -1 I I #
edge $-1 $441 -34.528403810172996 $310 -24.146785859428618 $389 $443 forward 7 unknown #
point $-1 -52.698141422772913 -24.146785859428618 -9.6332212882424244 #
edge $-1 $313 24.146785859428618 $438 34.528403810172996 $390 $444 forward 7 unknown #
point $-1 -52.698141422772913 -24.146785859428618 9.6332212882424244 #
coedge $-1 $318 $321 $325 $410 reversed $216 $-1 #
edge $-1 $407 -15.733624229895792 $328 -1.0926990291698626 $319 $445 forward 7 unknown #
vertex $-1 $410 $446 #
vertex $-1 $322 $447 #
straight-curve $-1 -25.414339261302459 -24.146785859428618 9.6332212882424244 1 0 0 I I #
straight-curve $-1 -52.590369815748716 -24.146785859428618 1.9551489471391732 0.77714595512881146 0 0.62932039886446345 I I #
edge $-1 $326 1.8678772187448716 $406 9.6332212882424244 $325 $448 forward 7 unknown #
point $-1 -52.698141422772913 -24.146785859428618 1.8678772187448716 #
point $-1 -43.10874030899582 -9.505860658702689 9.6332212882424244 #
straight-curve $-1 -52.698141422772913 0 9.6332212882424244 0 -1 0 I I #
vertex $-1 $334 $449 #
point $-1 -46.11018647781011 -21.218600819283431 5.1250802635814434 #
vertex $-1 $338 $450 #
point $-1 -46.11018647781011 -16.826323259065653 5.1250802635814434 #
vertex $-1 $342 $451 #
point $-1 -46.11018647781011 -12.434045698847875 5.1250802635814434 #
edge $-1 $421 65.686144091915466 $424 71.898398964251371 $347 $452 forward 7 unknown #
vertex $-1 $361 $453 #
straight-curve $-1 38.00757336771612 -6.2074040062117888 9.6332212882424244 1 0 0 I I #
edge $-1 $424 -5.8770195059461372 $358 5.216250505414834 $357 $454 forward 7 unknown #
vertex $-1 $423 $455 #
straight-curve $-1 -9.2522380931020507 -6.2074040062117888 88.688351244440838 -0.5877852410284794 0 0.80901700255871778 I I #
point $-1 48.184674195362838 -6.2074040062117888 9.6332212882424244 #
point $-1 52.698141422772913 4.8858660051491825 3.4209664159065198 #
straight-curve $-1 52.698141422772913 0 9.6332212882424244 0 1 0 I I #
vertex $-1 $364 $456 #
point $-1 49.85752942948951 -3.0378982886800827 4.8668134255524489 #
vertex $-1 $368 $457 #
point $-1 49.85752942948951 1.7163602876174764 4.8668134255524489 #
straight-curve $-1 -52.698141422772913 34.528403810172996 0 0 0 -1 I I #
point $-1 -52.698141422772913 -34.528403810172996 -9.6332212882424244 #
straight-curve $-1 -52.698141422772913 0 -9.6332212882424244 0 1 0 I I #
point $-1 -52.698141422772913 34.528403810172996 -9.6332212882424244 #
coedge $-1 $390 $389 $395 $440 reversed $200 $-1 #
vertex $-1 $402 $458 #
straight-curve $-1 0 -34.528403810172996 9.6332212882424244 1 0 0 I I #
edge $-1 $438 -9.6332212882424244 $441 9.6332212882424244 $437 $459 forward 7 unknown #
vertex $-1 $400 $460 #
straight-curve $-1 0 -34.528403810172996 -9.6332212882424244 -1 0 0 I I #
straight-curve $-1 -52.698141422772913 0 -9.6332212882424244 0 1 0 I I #
straight-curve $-1 -52.698141422772913 0 9.6332212882424244 0 -1 0 I I #
straight-curve $-1 -43.10874030899582 -8.4131616295328264 9.6332212882424244 0 1 0 I I #
point $-1 -52.698141422772913 -24.146785859428618 9.6332212882424244 #
point $-1 -43.10874030899582 -24.146785859428618 9.6332212882424244 #
straight-curve $-1 -52.698141422772913 -24.146785859428618 0 0 0 1 I I #
point $-1 -46.258012034074454 -21.218600819283431 3.7186139095881683 #
point $-1 -46.258012034074454 -16.826323259065653 3.7186139095881683 #
point $-1 -46.258012034074454 -12.434045698847875 3.7186139095881683 #
straight-curve $-1 52.698141422772913 -6.2074040062117888 75.31936538015789 0 0 -1 I I #
point $-1 52.698141422772913 -6.2074040062117888 9.6332212882424244 #
straight-curve $-1 52.698141422772913 -0.33038450026565158 3.4209664159065127 0 1 0 I I #
point $-1 52.698141422772913 -6.2074040062117888 3.4209664159065198 #
point $-1 48.460727185902314 -3.0378982886800827 5.0880451870826873 #
point $-1 48.460727185902314 1.7163602876174764 5.0880451870826873 #
point $-1 -52.698141422772913 -34.528403810172996 9.6332212882424244 #
straight-curve $-1 -52.698141422772913 -34.528403810172996 0 0 0 -1 I I #
point $-1 -52.698141422772913 -34.528403810172996 -9.6332212882424244 #
End-of-ACIS-data 