500 0 10 0           
7 Unknown 11 ACIS 5.0 NT 24 Thu Mar 25 21:57:47 1999 
-1 9.9999999999999995e-007 1e-010 
body $-1 $10 $-1 $11 #
body $-1 $12 $-1 $13 #
body $-1 $14 $-1 $15 #
body $-1 $16 $-1 $17 #
body $-1 $18 $-1 $19 #
body $-1 $20 $-1 $21 #
body $-1 $22 $-1 $23 #
body $-1 $24 $-1 $25 #
body $-1 $26 $-1 $27 #
body $-1 $28 $-1 $29 #
lump $-1 $-1 $30 $0 #
transform $-1 1 0 0 0 1 0 0 0 1 76.087527085177157 48.488005594766371 18.496826793203564 1 rotate no_reflect no_shear #
lump $-1 $-1 $31 $1 #
transform $-1 1 0 0 0 1 0 0 0 1 76.087527085177157 48.488005594766371 18.496826793203564 1 rotate no_reflect no_shear #
lump $-1 $-1 $32 $2 #
transform $-1 1 0 0 0 1 0 0 0 1 76.087527085177157 48.488005594766371 18.496826793203564 1 rotate no_reflect no_shear #
lump $-1 $-1 $33 $3 #
transform $-1 1 0 0 0 1 0 0 0 1 76.087527085177157 48.488005594766371 18.496826793203564 1 rotate no_reflect no_shear #
lump $-1 $-1 $34 $4 #
transform $-1 1 0 0 0 1 0 0 0 1 76.087527085177157 48.488005594766371 18.496826793203564 1 rotate no_reflect no_shear #
lump $-1 $-1 $35 $5 #
transform $-1 1 0 0 0 1 0 0 0 1 76.087527085177157 48.488005594766371 18.496826793203564 1 rotate no_reflect no_shear #
lump $-1 $-1 $36 $6 #
transform $-1 1 0 0 0 1 0 0 0 1 76.087527085177157 48.488005594766371 18.496826793203564 1 rotate no_reflect no_shear #
lump $-1 $-1 $37 $7 #
transform $-1 1 0 0 0 1 0 0 0 1 76.087527085177157 48.488005594766371 18.496826793203564 1 rotate no_reflect no_shear #
lump $-1 $-1 $38 $8 #
transform $-1 1 0 0 0 1 0 0 0 1 76.087527085177157 48.488005594766371 18.496826793203564 1 rotate no_reflect no_shear #
lump $-1 $-1 $39 $9 #
transform $-1 1 0 0 0 1 0 0 0 1 76.087527085177157 48.488005594766371 18.496826793203564 1 rotate no_reflect no_shear #
shell $-1 $-1 $-1 $40 $-1 $10 #
shell $-1 $-1 $-1 $41 $-1 $12 #
shell $-1 $-1 $-1 $42 $-1 $14 #
shell $-1 $-1 $-1 $43 $-1 $16 #
shell $-1 $-1 $-1 $44 $-1 $18 #
shell $-1 $-1 $-1 $45 $-1 $20 #
shell $-1 $-1 $-1 $46 $-1 $22 #
shell $-1 $-1 $-1 $47 $-1 $24 #
shell $-1 $-1 $-1 $48 $-1 $26 #
shell $-1 $-1 $-1 $49 $-1 $28 #
face $-1 $50 $51 $30 $-1 $52 reversed single #
face $-1 $53 $54 $31 $-1 $55 forward single #
face $-1 $56 $57 $32 $-1 $58 forward single #
face $-1 $59 $60 $33 $-1 $61 reversed single #
face $-1 $62 $63 $34 $-1 $64 forward single #
face $-1 $65 $66 $35 $-1 $67 forward single #
face $-1 $68 $69 $36 $-1 $70 reversed single #
face $-1 $71 $72 $37 $-1 $73 forward single #
face $-1 $74 $75 $38 $-1 $76 forward single #
face $-1 $77 $78 $39 $-1 $79 forward single #
face $-1 $80 $81 $30 $-1 $82 forward single #
loop $-1 $-1 $83 $40 #
plane-surface $-1 76.087527085177157 0 0 -1 0 0 0 0 1 forward_v I I I I #
face $-1 $84 $85 $31 $-1 $86 reversed single #
loop $-1 $-1 $87 $41 #
plane-surface $-1 -68.432204900295687 0 10.853271042165099 0 0 1 1 0 0 forward_v I I I I #
face $-1 $88 $89 $32 $-1 $90 reversed single #
loop $-1 $-1 $91 $42 #
plane-surface $-1 76.087527085177157 0 0 -1 0 0 0 0 1 forward_v I I I I #
face $-1 $92 $93 $33 $-1 $94 reversed single #
loop $-1 $-1 $95 $43 #
plane-surface $-1 -42.368532816505493 81.347380196802675 183.10749593808816 -1 0 0 0 0.68199836817093118 0.7313536940579346 forward_v I I I I #
face $-1 $96 $97 $34 $-1 $98 forward single #
loop $-1 $99 $100 $44 #
cone-surface $-1 -55.517354172868863 40.948603861320983 11.373190653059396 0 -0.68199836817093118 -0.7313536940579346 1.5 0 0 1 I I 0 1 1.5 forward I I I I #
face $-1 $101 $102 $35 $-1 $103 forward single #
loop $-1 $104 $105 $45 #
cone-surface $-1 -47.628061359050847 40.948603861320983 11.373190653059396 0 -0.68199836817093118 -0.7313536940579346 1.5 0 0 1 I I 0 1 1.5 forward I I I I #
face $-1 $106 $107 $36 $-1 $108 reversed single #
loop $-1 $-1 $109 $46 #
plane-surface $-1 32.872864044840391 -174.64684433625573 99.766282012351539 1 0 0 0 0.82903758062907751 -0.55919289150049634 forward_v I I I I #
face $-1 $110 $111 $37 $-1 $112 forward single #
loop $-1 $113 $114 $47 #
cone-surface $-1 37.071220352298823 -46.668666026519027 16.227075771159974 0 0.82903758062907751 -0.55919289150049634 0.5 0 0 1 I I 0 1 0.5 forward I I I I #
face $-1 $115 $116 $38 $-1 $117 forward single #
loop $-1 $118 $119 $48 #
cone-surface $-1 43.368754813486461 -46.668666026519027 16.227075771159974 0 0.82903758062907751 -0.55919289150049634 0.5 0 0 1 I I 0 1 0.5 forward I I I I #
face $-1 $120 $121 $39 $-1 $122 forward single #
loop $-1 $123 $124 $49 #
cone-surface $-1 49.666289274674099 -46.668666026519027 16.227075771159974 0 0.82903758062907751 -0.55919289150049634 0.5 0 0 1 I I 0 1 0.5 forward I I I I #
face $-1 $125 $126 $30 $-1 $127 reversed single #
loop $-1 $-1 $128 $50 #
plane-surface $-1 0 0 18.496826793203564 0 0 1 1 0 0 forward_v I I I I #
coedge $-1 $129 $130 $131 $132 reversed $51 $-1 #
face $-1 $133 $134 $31 $-1 $135 reversed single #
loop $-1 $-1 $136 $53 #
plane-surface $-1 -68.432204900295687 0 0.4671167964864491 0 0 1 1 0 0 forward_v I I I I #
coedge $-1 $137 $138 $139 $140 forward $54 $-1 #
face $-1 $141 $142 $32 $-1 $143 forward single #
loop $-1 $-1 $144 $56 #
plane-surface $-1 0 48.488005594766371 0 0 -1 0 0 0 -1 forward_v I I I I #
coedge $-1 $145 $146 $147 $148 forward $57 $-1 #
face $-1 $149 $150 $33 $-1 $151 forward single #
loop $-1 $-1 $152 $59 #
plane-surface $-1 -51.572707765959855 -22.435758423702026 71.813707927133223 0 0.68199836817093118 0.7313536940579346 1 0 0 forward_v I I I I #
coedge $-1 $153 $154 $155 $156 reversed $60 $-1 #
face $-1 $-1 $157 $34 $-1 $158 forward single #
loop $-1 $159 $160 $62 #
cone-surface $-1 -55.517354172868863 39.77190847436021 10.111339366900598 0 -0.68199836817093118 -0.7313536940579346 0.75 0 0 1 I I -0.70710678118654757 0.70710678118654757 0.75 forward I I I I #
loop $-1 $-1 $161 $44 #
coedge $-1 $100 $100 $162 $163 reversed $63 $-1 #
face $-1 $-1 $164 $35 $-1 $165 forward single #
loop $-1 $166 $167 $65 #
cone-surface $-1 -47.628061359050847 39.77190847436021 10.111339366900598 0 -0.68199836817093118 -0.7313536940579346 0.75 0 0 1 I I -0.70710678118654757 0.70710678118654757 0.75 forward I I I I #
loop $-1 $-1 $168 $45 #
coedge $-1 $105 $105 $169 $170 reversed $66 $-1 #
face $-1 $171 $172 $36 $-1 $173 reversed single #
loop $-1 $-1 $174 $68 #
plane-surface $-1 43.368754813486447 -48.488005594766378 14.671073456586441 0 -0.82903758062907751 0.55919289150049634 1 0 0 forward_v I I I I #
coedge $-1 $175 $176 $177 $178 reversed $69 $-1 #
face $-1 $-1 $179 $37 $-1 $180 forward single #
loop $-1 $181 $182 $71 #
cone-surface $-1 37.071220352298823 -45.932318627372375 15.730403194549826 0 0.82903758062907751 -0.55919289150049634 0.25 0 0 1 I I -0.70710678118654746 0.70710678118654746 0.25 forward I I I I #
loop $-1 $-1 $183 $47 #
coedge $-1 $114 $114 $184 $185 reversed $72 $-1 #
face $-1 $-1 $186 $38 $-1 $187 forward single #
loop $-1 $188 $189 $74 #
cone-surface $-1 43.368754813486461 -45.932318627372375 15.730403194549826 0 0.82903758062907751 -0.55919289150049634 0.25 0 0 1 I I -0.70710678118654746 0.70710678118654746 0.25 forward I I I I #
loop $-1 $-1 $190 $48 #
coedge $-1 $119 $119 $191 $192 reversed $75 $-1 #
face $-1 $-1 $193 $39 $-1 $194 forward single #
loop $-1 $195 $196 $77 #
cone-surface $-1 49.666289274674099 -45.932318627372375 15.730403194549826 0 0.82903758062907751 -0.55919289150049634 0.25 0 0 1 I I -0.70710678118654746 0.70710678118654746 0.25 forward I I I I #
loop $-1 $-1 $197 $49 #
coedge $-1 $124 $124 $198 $199 reversed $78 $-1 #
face $-1 $200 $201 $30 $-1 $202 reversed single #
loop $-1 $-1 $203 $80 #
plane-surface $-1 0 0 -18.496826793203564 0 0 1 1 0 0 forward_v I I I I #
coedge $-1 $204 $205 $129 $206 forward $81 $-1 #
coedge $-1 $207 $83 $128 $206 reversed $51 $-1 #
coedge $-1 $83 $207 $203 $208 reversed $51 $-1 #
coedge $-1 $209 $210 $83 $132 forward $211 $-1 #
edge $-1 $212 -18.496826793203564 $213 18.496826793203564 $83 $214 forward 7 unknown #
face $-1 $215 $216 $31 $-1 $217 reversed single #
loop $-1 $-1 $139 $84 #
plane-surface $-1 -60.776882715414217 0 5.6601939193257742 -1 0 0 0 0 1 forward_v I I I I #
coedge $-1 $218 $219 $220 $221 forward $85 $-1 #
coedge $-1 $222 $87 $223 $224 reversed $54 $-1 #
coedge $-1 $87 $222 $225 $226 reversed $54 $-1 #
coedge $-1 $227 $228 $87 $140 reversed $134 $-1 #
edge $-1 $229 -48.488005594766371 $230 48.488005594766371 $139 $231 forward 7 unknown #
face $-1 $232 $233 $32 $-1 $234 reversed single #
loop $-1 $-1 $235 $88 #
plane-surface $-1 87.198967836699467 0 17.974814833187182 0 0 1 1 0 0 forward_v I I I I #
coedge $-1 $236 $237 $146 $238 forward $89 $-1 #
coedge $-1 $239 $91 $240 $241 reversed $57 $-1 #
coedge $-1 $91 $239 $144 $238 reversed $57 $-1 #
coedge $-1 $242 $243 $91 $148 reversed $233 $-1 #
edge $-1 $244 -48.488005594766371 $245 48.488005594766371 $147 $246 forward 7 unknown #
face $-1 $247 $248 $33 $-1 $249 reversed single #
loop $-1 $-1 $250 $92 #
plane-surface $-1 0 0 18.496826793203564 0 0 1 1 0 0 forward_v I I I I #
coedge $-1 $251 $252 $253 $254 reversed $93 $-1 #
coedge $-1 $154 $95 $255 $256 reversed $60 $-1 #
coedge $-1 $95 $153 $251 $257 reversed $60 $-1 #
coedge $-1 $253 $258 $95 $156 forward $248 $-1 #
edge $-1 $259 73.056921175840515 $260 85.877521424898177 $155 $261 forward 7 unknown #
loop $-1 $-1 $162 $96 #
plane-surface $-1 -51.572707765959855 -22.435758423702026 71.813707927133223 0 0.68199836817093118 0.7313536940579346 1 0 0 forward_v I I I I #
loop $-1 $-1 $262 $62 #
coedge $-1 $160 $160 $161 $263 reversed $97 $-1 #
coedge $-1 $161 $161 $160 $263 forward $99 $-1 #
coedge $-1 $162 $162 $100 $163 forward $157 $-1 #
edge $-1 $264 -1.3815028324797736e-015 $264 6.2831853071795987 $162 $265 forward 7 unknown #
loop $-1 $-1 $169 $101 #
plane-surface $-1 -51.572707765959855 -22.435758423702026 71.813707927133223 0 0.68199836817093118 0.7313536940579346 1 0 0 forward_v I I I I #
loop $-1 $-1 $266 $65 #
coedge $-1 $167 $167 $168 $267 reversed $102 $-1 #
coedge $-1 $168 $168 $167 $267 forward $104 $-1 #
coedge $-1 $169 $169 $105 $170 forward $164 $-1 #
edge $-1 $268 -1.3815028324797736e-015 $268 6.2831853071795987 $169 $269 forward 7 unknown #
face $-1 $270 $271 $36 $-1 $272 reversed single #
loop $-1 $-1 $273 $106 #
plane-surface $-1 53.864645582132503 -174.64684433625573 99.766282012351539 -1 0 0 0 -0.82903758062907751 0.55919289150049634 forward_v I I I I #
coedge $-1 $274 $275 $276 $277 reversed $107 $-1 #
coedge $-1 $176 $109 $278 $279 reversed $69 $-1 #
coedge $-1 $109 $175 $274 $280 reversed $69 $-1 #
coedge $-1 $276 $281 $109 $178 forward $271 $-1 #
edge $-1 $282 31.386314212972206 $283 35.212067549589321 $177 $284 forward 7 unknown #
loop $-1 $-1 $184 $110 #
plane-surface $-1 43.368754813486447 -48.488005594766378 14.671073456586441 0 -0.82903758062907751 0.55919289150049634 1 0 0 forward_v I I I I #
loop $-1 $-1 $285 $71 #
coedge $-1 $182 $182 $183 $286 reversed $111 $-1 #
coedge $-1 $183 $183 $182 $286 forward $113 $-1 #
coedge $-1 $184 $184 $114 $185 forward $179 $-1 #
edge $-1 $287 -3.834723672875115e-015 $287 6.2831853071795969 $184 $288 forward 7 unknown #
loop $-1 $-1 $191 $115 #
plane-surface $-1 43.368754813486447 -48.488005594766378 14.671073456586441 0 -0.82903758062907751 0.55919289150049634 1 0 0 forward_v I I I I #
loop $-1 $-1 $289 $74 #
coedge $-1 $189 $189 $190 $290 reversed $116 $-1 #
coedge $-1 $190 $190 $189 $290 forward $118 $-1 #
coedge $-1 $191 $191 $119 $192 forward $186 $-1 #
edge $-1 $291 -3.834723672875115e-015 $291 6.2831853071795969 $191 $292 forward 7 unknown #
loop $-1 $-1 $198 $120 #
plane-surface $-1 43.368754813486447 -48.488005594766378 14.671073456586441 0 -0.82903758062907751 0.55919289150049634 1 0 0 forward_v I I I I #
loop $-1 $-1 $293 $77 #
coedge $-1 $196 $196 $197 $294 reversed $121 $-1 #
coedge $-1 $197 $197 $196 $294 forward $123 $-1 #
coedge $-1 $198 $198 $124 $199 forward $193 $-1 #
edge $-1 $295 -3.834723672875115e-015 $295 6.2831853071795969 $198 $296 forward 7 unknown #
face $-1 $297 $298 $30 $-1 $299 reversed single #
loop $-1 $-1 $300 $125 #
plane-surface $-1 0 -48.488005594766371 0 0 1 0 0 0 1 forward_v I I I I #
coedge $-1 $301 $302 $130 $208 forward $126 $-1 #
coedge $-1 $303 $128 $210 $304 forward $81 $-1 #
coedge $-1 $128 $303 $305 $306 forward $81 $-1 #
edge $-1 $307 -48.488005594766371 $212 48.488005594766371 $129 $308 forward 7 unknown #
coedge $-1 $130 $129 $309 $310 forward $51 $-1 #
edge $-1 $213 -48.488005594766371 $311 48.488005594766371 $130 $312 forward 7 unknown #
coedge $-1 $313 $131 $302 $314 reversed $211 $-1 #
coedge $-1 $131 $313 $204 $304 reversed $211 $-1 #
loop $-1 $-1 $131 $297 #
vertex $-1 $206 $315 #
vertex $-1 $208 $316 #
straight-curve $-1 76.087527085177157 48.488005594766371 0 0 0 -1 I I #
face $-1 $317 $318 $31 $-1 $319 reversed single #
loop $-1 $-1 $320 $133 #
plane-surface $-1 0 -48.488005594766371 0 0 1 0 0 0 1 forward_v I I I I #
coedge $-1 $321 $136 $320 $322 reversed $85 $-1 #
coedge $-1 $136 $321 $323 $324 reversed $85 $-1 #
coedge $-1 $228 $227 $136 $221 reversed $134 $-1 #
edge $-1 $325 -48.488005594766371 $326 48.488005594766371 $220 $327 forward 7 unknown #
coedge $-1 $138 $137 $328 $329 reversed $54 $-1 #
coedge $-1 $330 $331 $137 $224 forward $332 $-1 #
edge $-1 $333 -41.871424635029314 $230 -26.560780265266374 $223 $334 forward 7 unknown #
coedge $-1 $335 $336 $138 $226 forward $216 $-1 #
edge $-1 $229 26.560780265266374 $337 41.871424635029314 $225 $338 forward 7 unknown #
coedge $-1 $220 $139 $336 $339 reversed $134 $-1 #
coedge $-1 $139 $220 $330 $340 reversed $134 $-1 #
vertex $-1 $226 $341 #
vertex $-1 $224 $342 #
straight-curve $-1 -60.776882715414217 0 10.853271042165099 0 1 0 I I #
face $-1 $343 $344 $32 $-1 $345 reversed single #
loop $-1 $-1 $346 $141 #
plane-surface $-1 87.198967836699467 0 9.6323603989686646 0 0 1 1 0 0 forward_v I I I I #
coedge $-1 $347 $348 $349 $350 forward $142 $-1 #
coedge $-1 $351 $144 $347 $352 reversed $89 $-1 #
coedge $-1 $144 $351 $242 $353 reversed $89 $-1 #
edge $-1 $244 9.6323603989686646 $354 17.974814833187182 $144 $355 forward 7 unknown #
coedge $-1 $146 $145 $356 $357 forward $57 $-1 #
coedge $-1 $358 $359 $145 $241 forward $360 $-1 #
edge $-1 $361 -17.974814833187182 $245 -9.6323603989686646 $240 $362 forward 7 unknown #
coedge $-1 $346 $147 $237 $353 forward $233 $-1 #
coedge $-1 $147 $346 $358 $363 forward $233 $-1 #
vertex $-1 $238 $364 #
vertex $-1 $241 $365 #
straight-curve $-1 76.087527085177157 0 9.6323603989686646 0 -1 0 I I #
face $-1 $-1 $366 $33 $-1 $367 forward single #
loop $-1 $-1 $368 $149 #
plane-surface $-1 0 48.488005594766371 0 0 -1 0 0 0 -1 forward_v I I I I #
coedge $-1 $369 $370 $371 $372 forward $150 $-1 #
coedge $-1 $373 $152 $154 $257 forward $93 $-1 #
coedge $-1 $152 $373 $374 $375 forward $93 $-1 #
coedge $-1 $368 $155 $152 $254 forward $248 $-1 #
edge $-1 $260 16.582178933525565 $376 34.990528832434293 $253 $377 forward 7 unknown #
coedge $-1 $370 $369 $153 $256 forward $150 $-1 #
edge $-1 $378 -5.9340947488606091 $259 7.8143154963650332 $255 $379 forward 7 unknown #
edge $-1 $260 -96.976011189532784 $378 -78.177432120433892 $154 $380 forward 7 unknown #
coedge $-1 $155 $368 $370 $381 reversed $248 $-1 #
vertex $-1 $381 $382 #
vertex $-1 $156 $383 #
straight-curve $-1 -42.368532816505493 48.488005594766371 91.553747969044082 0 0 -1 I I #
coedge $-1 $262 $262 $-1 $384 reversed $159 $-1 #
edge $-1 $385 0 $385 6.2831853071796004 $160 $386 forward 7 unknown #
vertex $-1 $163 $387 #
ellipse-curve $-1 -55.517354172868863 41.613800472153549 12.086526668674733 0 0.68199836817093118 0.7313536940579346 1.5 0 0 1 I I #
coedge $-1 $266 $266 $-1 $388 reversed $166 $-1 #
edge $-1 $389 0 $389 6.2831853071796004 $167 $390 forward 7 unknown #
vertex $-1 $170 $391 #
ellipse-curve $-1 -47.628061359050847 41.613800472153549 12.086526668674733 0 0.68199836817093118 0.7313536940579346 1.5 0 0 1 I I #
face $-1 $-1 $392 $36 $-1 $393 forward single #
loop $-1 $-1 $177 $171 #
plane-surface $-1 0 -48.488005594766371 0 0 1 0 0 0 1 forward_v I I I I #
coedge $-1 $394 $395 $396 $397 reversed $172 $-1 #
coedge $-1 $398 $174 $176 $280 forward $107 $-1 #
coedge $-1 $174 $398 $394 $399 forward $107 $-1 #
coedge $-1 $396 $177 $174 $277 forward $271 $-1 #
edge $-1 $283 11.188486638097167 $400 32.18026817538928 $276 $401 forward 7 unknown #
coedge $-1 $402 $403 $175 $279 forward $392 $-1 #
edge $-1 $404 -41.415919701877399 $282 -38.835416573361492 $278 $405 forward 7 unknown #
edge $-1 $283 1.2809303928265426e-014 $404 4.6146922962335708 $176 $406 forward 7 unknown #
coedge $-1 $177 $396 $402 $407 reversed $271 $-1 #
vertex $-1 $407 $408 #
vertex $-1 $178 $409 #
straight-curve $-1 32.872864044840391 -48.488005594766371 49.883141006175769 0 0 -1 I I #
coedge $-1 $285 $285 $-1 $410 reversed $181 $-1 #
edge $-1 $411 0 $411 6.2831853071796004 $182 $412 forward 7 unknown #
vertex $-1 $185 $413 #
ellipse-curve $-1 37.071220352298823 -47.19775403050842 16.583950124895004 0 -0.82903758062907751 0.55919289150049634 0.5 0 0 1 I I #
coedge $-1 $289 $289 $-1 $414 reversed $188 $-1 #
edge $-1 $415 0 $415 6.2831853071796004 $189 $416 forward 7 unknown #
vertex $-1 $192 $417 #
ellipse-curve $-1 43.368754813486461 -47.19775403050842 16.583950124895004 0 -0.82903758062907751 0.55919289150049634 0.5 0 0 1 I I #
coedge $-1 $293 $293 $-1 $418 reversed $195 $-1 #
edge $-1 $419 0 $419 6.2831853071796004 $196 $420 forward 7 unknown #
vertex $-1 $199 $421 #
ellipse-curve $-1 49.666289274674099 -47.19775403050842 16.583950124895004 0 -0.82903758062907751 0.55919289150049634 0.5 0 0 1 I I #
face $-1 $-1 $211 $30 $-1 $422 reversed single #
loop $-1 $-1 $423 $200 #
plane-surface $-1 -76.087527085177157 0 0 1 0 0 0 0 -1 forward_v I I I I #
coedge $-1 $424 $305 $425 $426 forward $201 $-1 #
coedge $-1 $427 $203 $424 $428 forward $126 $-1 #
coedge $-1 $203 $427 $209 $314 forward $126 $-1 #
coedge $-1 $205 $204 $429 $430 forward $81 $-1 #
edge $-1 $212 -76.087527085177157 $431 76.087527085177157 $210 $432 forward 7 unknown #
coedge $-1 $300 $309 $205 $306 reversed $201 $-1 #
edge $-1 $433 -76.087527085177157 $307 76.087527085177157 $305 $434 forward 7 unknown #
vertex $-1 $206 $435 #
straight-curve $-1 76.087527085177157 0 18.496826793203564 0 1 0 I I #
coedge $-1 $305 $424 $207 $310 reversed $201 $-1 #
edge $-1 $307 -18.496826793203564 $311 18.496826793203564 $207 $436 forward 7 unknown #
vertex $-1 $310 $437 #
straight-curve $-1 76.087527085177157 0 -18.496826793203564 0 -1 0 I I #
coedge $-1 $210 $209 $423 $438 reversed $211 $-1 #
edge $-1 $439 -76.087527085177157 $213 76.087527085177157 $209 $440 forward 7 unknown #
point $-1 76.087527085177157 48.488005594766371 18.496826793203564 #
point $-1 76.087527085177157 48.488005594766371 -18.496826793203564 #
face $-1 $-1 $332 $31 $-1 $441 reversed single #
loop $-1 $-1 $442 $215 #
plane-surface $-1 -76.087527085177157 0 0 1 0 0 0 0 -1 forward_v I I I I #
coedge $-1 $336 $335 $218 $322 forward $216 $-1 #
coedge $-1 $219 $218 $442 $443 reversed $85 $-1 #
edge $-1 $444 -41.871424635029314 $326 -26.560780265266374 $320 $445 forward 7 unknown #
coedge $-1 $331 $330 $219 $324 forward $332 $-1 #
edge $-1 $325 26.560780265266374 $446 41.871424635029314 $323 $447 forward 7 unknown #
vertex $-1 $324 $448 #
vertex $-1 $322 $449 #
straight-curve $-1 -60.776882715414217 0 0.4671167964864491 0 -1 0 I I #
coedge $-1 $450 $451 $222 $329 forward $318 $-1 #
edge $-1 $337 -48.488005594766371 $333 48.488005594766371 $328 $452 forward 7 unknown #
coedge $-1 $323 $223 $228 $340 forward $332 $-1 #
coedge $-1 $223 $323 $450 $453 reversed $332 $-1 #
loop $-1 $-1 $323 $317 #
vertex $-1 $453 $454 #
straight-curve $-1 -34.216102450147844 48.488005594766371 10.853271042165099 1 0 0 I I #
coedge $-1 $320 $225 $451 $455 forward $216 $-1 #
coedge $-1 $225 $320 $227 $339 forward $216 $-1 #
vertex $-1 $455 $456 #
straight-curve $-1 -34.216102450147844 -48.488005594766371 10.853271042165099 -1 0 0 I I #
edge $-1 $326 -2.362980163176438 $229 8.0231740825022122 $336 $457 forward 7 unknown #
edge $-1 $230 -8.0231740825022122 $325 2.362980163176438 $330 $458 forward 7 unknown #
point $-1 -60.776882715414217 -48.488005594766371 10.853271042165099 #
point $-1 -60.776882715414217 48.488005594766371 10.853271042165099 #
face $-1 $-1 $360 $32 $-1 $459 reversed single #
loop $-1 $-1 $460 $232 #
plane-surface $-1 98.31040858822179 0 13.803587616077923 -1 0 0 0 0 1 forward_v I I I I #
coedge $-1 $243 $242 $461 $462 forward $233 $-1 #
coedge $-1 $356 $235 $236 $352 forward $142 $-1 #
coedge $-1 $235 $356 $359 $463 forward $142 $-1 #
coedge $-1 $460 $464 $235 $350 reversed $344 $-1 #
edge $-1 $465 -48.488005594766371 $466 48.488005594766371 $349 $467 forward 7 unknown #
coedge $-1 $237 $236 $464 $468 forward $89 $-1 #
edge $-1 $466 -11.111440751522323 $354 11.111440751522323 $236 $469 forward 7 unknown #
edge $-1 $244 -11.111440751522323 $470 11.111440751522323 $237 $471 forward 7 unknown #
vertex $-1 $352 $472 #
straight-curve $-1 76.087527085177157 48.488005594766371 0 0 0 1 I I #
coedge $-1 $348 $347 $239 $357 reversed $142 $-1 #
edge $-1 $361 -48.488005594766371 $354 48.488005594766371 $356 $473 forward 7 unknown #
coedge $-1 $474 $240 $243 $363 reversed $360 $-1 #
coedge $-1 $240 $474 $348 $463 reversed $360 $-1 #
loop $-1 $-1 $240 $343 #
vertex $-1 $241 $475 #
straight-curve $-1 76.087527085177157 -48.488005594766371 0 0 0 -1 I I #
edge $-1 $476 -11.111440751522323 $245 11.111440751522323 $358 $477 forward 7 unknown #
point $-1 76.087527085177143 48.488005594766371 9.6323603989686646 #
point $-1 76.087527085177143 -48.488005594766371 9.6323603989686646 #
loop $-1 $-1 $374 $247 #
plane-surface $-1 -60.776882715414217 0 5.6601939193257742 -1 0 0 0 0 1 forward_v I I I I #
coedge $-1 $258 $253 $478 $479 forward $248 $-1 #
coedge $-1 $255 $250 $373 $480 forward $150 $-1 #
coedge $-1 $250 $255 $258 $381 forward $150 $-1 #
coedge $-1 $478 $374 $250 $372 reversed $366 $-1 #
edge $-1 $481 -7.8143154963650332 $482 5.9340947488606091 $250 $483 forward 7 unknown #
coedge $-1 $252 $251 $369 $480 reversed $93 $-1 #
coedge $-1 $371 $478 $252 $375 reversed $366 $-1 #
edge $-1 $482 78.177432120433892 $376 96.976011189532784 $374 $484 forward 7 unknown #
vertex $-1 $479 $485 #
straight-curve $-1 -25.786353882979927 48.488005594766371 5.676226544145905 -1 0 0 I I #
vertex $-1 $256 $486 #
straight-curve $-1 -42.368532816505493 40.673690098401337 18.496826793203567 0 1 0 I I #
straight-curve $-1 -42.368532816505493 -22.435758423702026 71.813707927133223 0 -0.7313536940579346 0.68199836817093118 I I #
edge $-1 $259 42.368532816505493 $481 60.776882715414217 $258 $487 forward 7 unknown #
point $-1 -42.368532816505493 48.488005594766371 18.496826793203564 #
point $-1 -42.368532816505493 48.488005594766378 5.676226544145905 #
edge $-1 $488 1 $488 0 $262 $-1 forward 7 unknown #
vertex $-1 $263 $489 #
ellipse-curve $-1 -55.517354172868863 40.283407250488409 10.659854637444049 0 0.68199836817093118 0.7313536940579346 1.5 0 0 1 I I #
point $-1 -54.017354172868863 41.613800472153557 12.086526668674743 #
edge $-1 $490 1 $490 0 $266 $-1 forward 7 unknown #
vertex $-1 $267 $491 #
ellipse-curve $-1 -47.628061359050847 40.283407250488409 10.659854637444049 0 0.68199836817093118 0.7313536940579346 1.5 0 0 1 I I #
point $-1 -46.128061359050847 41.613800472153557 12.086526668674743 #
loop $-1 $-1 $278 $270 #
plane-surface $-1 0 0 18.496826793203564 0 0 1 1 0 0 forward_v I I I I #
coedge $-1 $395 $273 $275 $399 reversed $172 $-1 #
coedge $-1 $273 $394 $492 $493 reversed $172 $-1 #
coedge $-1 $281 $276 $273 $397 forward $271 $-1 #
edge $-1 $400 -35.212067549589321 $494 -31.386314212972206 $396 $495 forward 7 unknown #
coedge $-1 $275 $274 $403 $496 reversed $107 $-1 #
edge $-1 $497 -4.6146922962335708 $400 -1.2809303928265426e-014 $394 $498 forward 7 unknown #
vertex $-1 $277 $499 #
straight-curve $-1 21.684377406743224 -48.488005594766371 14.671073456586459 1 0 0 I I #
coedge $-1 $492 $278 $281 $407 forward $392 $-1 #
coedge $-1 $278 $492 $398 $496 forward $392 $-1 #
vertex $-1 $279 $500 #
straight-curve $-1 32.872864044840391 -87.323422168127863 18.496826793203567 0 -1 0 I I #
straight-curve $-1 32.872864044840391 -48.488005594766378 14.671073456586441 0 0.55919289150049634 0.82903758062907751 I I #
edge $-1 $282 32.872864044840391 $494 53.864645582132503 $281 $501 forward 7 unknown #
point $-1 32.872864044840391 -48.488005594766371 18.496826793203564 #
point $-1 32.872864044840391 -48.488005594766371 14.671073456586452 #
edge $-1 $502 1 $502 0 $285 $-1 forward 7 unknown #
vertex $-1 $286 $503 #
ellipse-curve $-1 37.071220352298823 -46.139578022529648 15.870201417424949 0 -0.82903758062907751 0.55919289150049634 0.5 0 0 1 I I #
point $-1 37.571220352298823 -47.197754030508413 16.583950124894997 #
edge $-1 $504 1 $504 0 $289 $-1 forward 7 unknown #
vertex $-1 $290 $505 #
ellipse-curve $-1 43.368754813486461 -46.139578022529648 15.870201417424949 0 -0.82903758062907751 0.55919289150049634 0.5 0 0 1 I I #
point $-1 43.868754813486461 -47.197754030508413 16.583950124894997 #
edge $-1 $506 1 $506 0 $293 $-1 forward 7 unknown #
vertex $-1 $294 $507 #
ellipse-curve $-1 49.666289274674099 -46.139578022529648 15.870201417424949 0 -0.82903758062907751 0.55919289150049634 0.5 0 0 1 I I #
point $-1 50.166289274674099 -47.197754030508413 16.583950124894997 #
plane-surface $-1 0 48.488005594766371 0 0 -1 0 0 0 -1 forward_v I I I I #
coedge $-1 $508 $429 $313 $438 forward $298 $-1 #
coedge $-1 $309 $300 $301 $428 reversed $201 $-1 #
coedge $-1 $429 $508 $300 $426 reversed $298 $-1 #
edge $-1 $433 -18.496826793203564 $509 18.496826793203564 $425 $510 forward 7 unknown #
coedge $-1 $302 $301 $508 $511 forward $126 $-1 #
edge $-1 $311 -76.087527085177157 $509 76.087527085177157 $424 $512 forward 7 unknown #
coedge $-1 $423 $425 $303 $430 reversed $298 $-1 #
edge $-1 $431 -48.488005594766371 $433 48.488005594766371 $429 $513 forward 7 unknown #
vertex $-1 $304 $514 #
straight-curve $-1 0 48.488005594766371 18.496826793203564 -1 0 0 I I #
vertex $-1 $430 $515 #
straight-curve $-1 0 -48.488005594766371 18.496826793203564 1 0 0 I I #
point $-1 76.087527085177157 -48.488005594766371 18.496826793203564 #
straight-curve $-1 76.087527085177157 -48.488005594766371 0 0 0 -1 I I #
point $-1 76.087527085177157 -48.488005594766371 -18.496826793203564 #
edge $-1 $431 -18.496826793203564 $439 18.496826793203564 $313 $516 forward 7 unknown #
vertex $-1 $314 $517 #
straight-curve $-1 0 48.488005594766371 -18.496826793203564 1 0 0 I I #
plane-surface $-1 0 48.488005594766371 0 0 -1 0 0 0 -1 forward_v I I I I #
coedge $-1 $451 $450 $321 $443 forward $318 $-1 #
edge $-1 $446 -48.488005594766371 $444 48.488005594766371 $442 $518 forward 7 unknown #
vertex $-1 $322 $519 #
straight-curve $-1 -34.216102450147844 -48.488005594766371 0.4671167964864491 1 0 0 I I #
vertex $-1 $324 $520 #
straight-curve $-1 -34.216102450147844 48.488005594766371 0.4671167964864491 -1 0 0 I I #
point $-1 -60.776882715414217 48.488005594766371 0.4671167964864491 #
point $-1 -60.776882715414217 -48.488005594766371 0.4671167964864491 #
coedge $-1 $442 $328 $331 $453 forward $318 $-1 #
coedge $-1 $328 $442 $335 $455 reversed $318 $-1 #
straight-curve $-1 -76.087527085177157 0 10.853271042165099 0 1 0 I I #
edge $-1 $333 -10.853271042165099 $446 -0.4671167964864491 $331 $521 forward 7 unknown #
point $-1 -76.087527085177157 48.488005594766371 10.853271042165099 #
edge $-1 $337 -10.853271042165099 $444 -0.4671167964864491 $451 $522 forward 7 unknown #
point $-1 -76.087527085177157 -48.488005594766371 10.853271042165099 #
straight-curve $-1 -60.776882715414217 -48.488005594766371 2.8300969596628871 0 0 1 I I #
straight-curve $-1 -60.776882715414217 48.488005594766371 2.8300969596628871 0 0 -1 I I #
plane-surface $-1 0 -48.488005594766371 0 0 1 0 0 0 1 forward_v I I I I #
coedge $-1 $461 $349 $474 $523 forward $344 $-1 #
coedge $-1 $464 $460 $346 $462 reversed $344 $-1 #
edge $-1 $470 -48.488005594766371 $476 48.488005594766371 $461 $524 forward 7 unknown #
edge $-1 $361 -11.111440751522323 $465 11.111440751522323 $359 $525 forward 7 unknown #
coedge $-1 $349 $461 $351 $468 reversed $344 $-1 #
vertex $-1 $350 $526 #
vertex $-1 $350 $527 #
straight-curve $-1 98.31040858822179 0 17.974814833187182 0 1 0 I I #
edge $-1 $466 -4.1712272171092586 $470 4.1712272171092586 $464 $528 forward 7 unknown #
straight-curve $-1 87.198967836699467 48.488005594766371 17.974814833187182 -1 0 0 I I #
vertex $-1 $462 $529 #
straight-curve $-1 87.198967836699467 48.488005594766371 9.6323603989686646 1 0 0 I I #
point $-1 76.087527085177143 48.488005594766371 17.974814833187182 #
straight-curve $-1 76.087527085177157 0 17.974814833187182 0 1 0 I I #
coedge $-1 $359 $358 $460 $523 reversed $360 $-1 #
point $-1 76.087527085177143 -48.488005594766371 17.974814833187182 #
vertex $-1 $523 $530 #
straight-curve $-1 87.198967836699467 -48.488005594766371 9.6323603989686646 -1 0 0 I I #
coedge $-1 $374 $371 $368 $479 reversed $366 $-1 #
edge $-1 $376 -85.877521424898177 $481 -73.056921175840515 $368 $531 forward 7 unknown #
edge $-1 $482 -34.990528832434293 $378 -16.582178933525565 $369 $532 forward 7 unknown #
vertex $-1 $372 $533 #
vertex $-1 $480 $534 #
straight-curve $-1 -60.776882715414217 40.673690098401337 18.496826793203567 0 -1 0 I I #
straight-curve $-1 -60.776882715414217 -22.435758423702026 71.813707927133223 0 0.7313536940579346 -0.68199836817093118 I I #
point $-1 -60.776882715414217 48.488005594766371 5.6762265441459085 #
point $-1 -42.368532816505493 34.739595349540728 18.496826793203567 #
straight-curve $-1 0 48.488005594766371 18.496826793203564 -1 0 0 I I #
vertex $-1 $384 $535 #
point $-1 -54.017354172868863 40.283407250488409 10.659854637444049 #
vertex $-1 $388 $536 #
point $-1 -46.128061359050847 40.283407250488409 10.659854637444049 #
coedge $-1 $403 $402 $395 $493 forward $392 $-1 #
edge $-1 $494 38.835416573361492 $497 41.415919701877399 $492 $537 forward 7 unknown #
vertex $-1 $493 $538 #
straight-curve $-1 53.864645582132503 -48.488005594766371 49.883141006175769 0 0 1 I I #
edge $-1 $497 -32.18026817538928 $404 -11.188486638097167 $403 $539 forward 7 unknown #
vertex $-1 $496 $540 #
straight-curve $-1 53.864645582132503 -48.488005594766378 14.671073456586441 0 -0.55919289150049634 -0.82903758062907751 I I #
point $-1 53.864645582132503 -48.488005594766371 14.671073456586452 #
point $-1 32.872864044840391 -45.907502466250463 18.496826793203564 #
straight-curve $-1 0 -48.488005594766371 18.496826793203564 1 0 0 I I #
vertex $-1 $410 $541 #
point $-1 37.571220352298823 -46.139578022529648 15.870201417424949 #
vertex $-1 $414 $542 #
point $-1 43.868754813486461 -46.139578022529648 15.870201417424949 #
vertex $-1 $418 $543 #
point $-1 50.166289274674099 -46.139578022529648 15.870201417424949 #
coedge $-1 $425 $423 $427 $511 reversed $298 $-1 #
vertex $-1 $511 $544 #
straight-curve $-1 -76.087527085177157 -48.488005594766371 0 0 0 -1 I I #
edge $-1 $509 -48.488005594766371 $439 48.488005594766371 $508 $545 forward 7 unknown #
straight-curve $-1 0 -48.488005594766371 -18.496826793203564 -1 0 0 I I #
straight-curve $-1 -76.087527085177157 0 18.496826793203564 0 -1 0 I I #
point $-1 -76.087527085177157 48.488005594766371 18.496826793203564 #
point $-1 -76.087527085177157 -48.488005594766371 18.496826793203564 #
straight-curve $-1 -76.087527085177157 48.488005594766371 0 0 0 -1 I I #
point $-1 -76.087527085177157 48.488005594766371 -18.496826793203564 #
straight-curve $-1 -76.087527085177157 0 0.4671167964864491 0 -1 0 I I #
point $-1 -76.087527085177157 -48.488005594766371 0.4671167964864491 #
point $-1 -76.087527085177157 48.488005594766371 0.4671167964864491 #
straight-curve $-1 -76.087527085177157 48.488005594766371 0 0 0 -1 I I #
straight-curve $-1 -76.087527085177157 -48.488005594766371 0 0 0 -1 I I #
edge $-1 $465 -4.1712272171092586 $476 4.1712272171092586 $460 $546 forward 7 unknown #
straight-curve $-1 98.31040858822179 0 9.6323603989686646 0 -1 0 I I #
straight-curve $-1 87.198967836699467 -48.488005594766371 17.974814833187182 1 0 0 I I #
point $-1 98.31040858822179 -48.488005594766371 17.974814833187182 #
point $-1 98.31040858822179 48.488005594766371 17.974814833187182 #
straight-curve $-1 98.31040858822179 48.488005594766371 13.803587616077923 0 0 -1 I I #
point $-1 98.31040858822179 48.488005594766371 9.6323603989686646 #
point $-1 98.31040858822179 -48.488005594766371 9.6323603989686646 #
straight-curve $-1 -60.776882715414217 48.488005594766371 91.553747969044082 0 0 1 I I #
straight-curve $-1 -25.786353882979927 34.739595349540728 18.496826793203567 1 0 0 I I #
point $-1 -60.776882715414217 48.488005594766371 18.496826793203564 #
point $-1 -60.776882715414217 34.739595349540728 18.496826793203567 #
point $-1 -55.517354172868863 39.26040969823201 9.5628240963571471 #
point $-1 -47.628061359050847 39.26040969823201 9.5628240963571471 #
straight-curve $-1 53.864645582132503 -87.323422168127863 18.496826793203567 0 1 0 I I #
point $-1 53.864645582132503 -48.488005594766371 18.496826793203564 #
straight-curve $-1 21.684377406743224 -45.907502466250463 18.496826793203564 -1 0 0 I I #
point $-1 53.864645582132503 -45.907502466250463 18.496826793203564 #
point $-1 37.071220352298823 -45.725059232215102 15.590604971674702 #
point $-1 43.368754813486461 -45.725059232215102 15.590604971674702 #
point $-1 49.666289274674099 -45.725059232215102 15.590604971674702 #
point $-1 -76.087527085177157 -48.488005594766371 -18.496826793203564 #
straight-curve $-1 -76.087527085177157 0 -18.496826793203564 0 1 0 I I #
straight-curve $-1 98.31040858822179 -48.488005594766371 13.803587616077923 0 0 -1 I I #
End-of-ACIS-data 