500 0 8 0           
7 Unknown 11 ACIS 5.0 NT 24 Fri Mar 26 18:23:34 1999 
-1 9.9999999999999995e-007 1e-010 
body $-1 $8 $-1 $9 #
body $-1 $10 $-1 $11 #
body $-1 $12 $-1 $13 #
body $-1 $14 $-1 $15 #
body $-1 $16 $-1 $17 #
body $-1 $18 $-1 $19 #
body $-1 $20 $-1 $21 #
body $-1 $22 $-1 $23 #
lump $-1 $-1 $24 $0 #
transform $-1 1 0 0 0 1 0 0 0 1 65.691702017273471 37.408805010874183 11.346854216821114 1 rotate no_reflect no_shear #
lump $-1 $-1 $25 $1 #
transform $-1 1 0 0 0 1 0 0 0 1 65.691702017273471 37.408805010874183 11.346854216821114 1 rotate no_reflect no_shear #
lump $-1 $-1 $26 $2 #
transform $-1 1 0 0 0 1 0 0 0 1 65.691702017273471 37.408805010874183 11.346854216821114 1 rotate no_reflect no_shear #
lump $-1 $-1 $27 $3 #
transform $-1 1 0 0 0 1 0 0 0 1 65.691702017273471 37.408805010874183 11.346854216821114 1 rotate no_reflect no_shear #
lump $-1 $-1 $28 $4 #
transform $-1 1 0 0 0 1 0 0 0 1 65.691702017273471 37.408805010874183 11.346854216821114 1 rotate no_reflect no_shear #
lump $-1 $-1 $29 $5 #
transform $-1 1 0 0 0 1 0 0 0 1 65.691702017273471 37.408805010874183 11.346854216821114 1 rotate no_reflect no_shear #
lump $-1 $-1 $30 $6 #
transform $-1 1 0 0 0 1 0 0 0 1 65.691702017273471 37.408805010874183 11.346854216821114 1 rotate no_reflect no_shear #
lump $-1 $-1 $31 $7 #
transform $-1 1 0 0 0 1 0 0 0 1 65.691702017273471 37.408805010874183 11.346854216821114 1 rotate no_reflect no_shear #
shell $-1 $-1 $-1 $32 $-1 $8 #
shell $-1 $-1 $-1 $33 $-1 $10 #
shell $-1 $-1 $-1 $34 $-1 $12 #
shell $-1 $-1 $-1 $35 $-1 $14 #
shell $-1 $-1 $-1 $36 $-1 $16 #
shell $-1 $-1 $-1 $37 $-1 $18 #
shell $-1 $-1 $-1 $38 $-1 $20 #
shell $-1 $-1 $-1 $39 $-1 $22 #
face $-1 $40 $41 $24 $-1 $42 forward single #
face $-1 $43 $44 $25 $-1 $45 forward single #
face $-1 $46 $47 $26 $-1 $48 reversed single #
face $-1 $49 $50 $27 $-1 $51 forward single #
face $-1 $52 $53 $28 $-1 $54 forward single #
face $-1 $55 $56 $29 $-1 $57 reversed single #
face $-1 $58 $59 $30 $-1 $60 forward single #
face $-1 $61 $62 $31 $-1 $63 forward single #
face $-1 $64 $65 $24 $-1 $66 reversed single #
loop $-1 $-1 $67 $32 #
plane-surface $-1 0 0 11.346854216821114 0 0 1 1 0 0 forward_v I I I I #
face $-1 $68 $69 $25 $-1 $70 reversed single #
loop $-1 $-1 $71 $33 #
plane-surface $-1 -60.53993862743306 0 -8.0821100478295662 0 0 1 1 0 0 forward_v I I I I #
face $-1 $72 $73 $26 $-1 $74 reversed single #
loop $-1 $-1 $75 $34 #
plane-surface $-1 62.448973850819542 -14.928359248117973 188.16962417955881 0 -1 0 -0.69465837861970381 0 -0.71933979245794832 forward_v I I I I #
face $-1 $76 $77 $27 $-1 $78 forward single #
loop $-1 $79 $80 $35 #
cone-surface $-1 59.01179810941845 -26.233657005623435 4.7533696631395985 -0.69465837861970381 0 -0.71933979245794832 1.0790096886869225 0 -1.0419875679295556 1 I I 0 1 1.5 forward I I I I #
face $-1 $81 $82 $28 $-1 $83 forward single #
loop $-1 $84 $85 $36 #
cone-surface $-1 59.01179810941845 -19.450478351120161 4.7533696631395985 -0.69465837861970381 0 -0.71933979245794832 1.0790096886869225 0 -1.0419875679295556 1 I I 0 1 1.5 forward I I I I #
face $-1 $86 $87 $29 $-1 $88 reversed single #
loop $-1 $-1 $89 $37 #
plane-surface $-1 62.448973850819542 30.755776108625618 188.16962417955881 0 -1 0 -0.69465837861970381 0 -0.71933979245794832 forward_v I I I I #
face $-1 $90 $91 $30 $-1 $92 forward single #
loop $-1 $93 $94 $38 #
cone-surface $-1 59.01179810941845 19.450478351120154 4.7533696631395985 -0.69465837861970381 0 -0.71933979245794832 1.0790096886869225 0 -1.0419875679295556 1 I I 0 1 1.5 forward I I I I #
face $-1 $95 $96 $31 $-1 $97 forward single #
loop $-1 $98 $99 $39 #
cone-surface $-1 59.01179810941845 26.233657005623428 4.7533696631395985 -0.69465837861970381 0 -0.71933979245794832 1.0790096886869225 0 -1.0419875679295556 1 I I 0 1 1.5 forward I I I I #
face $-1 $100 $101 $24 $-1 $102 reversed single #
loop $-1 $-1 $103 $40 #
plane-surface $-1 0 0 -11.346854216821114 0 0 1 1 0 0 forward_v I I I I #
coedge $-1 $104 $105 $106 $107 forward $41 $-1 #
face $-1 $108 $109 $25 $-1 $110 reversed single #
loop $-1 $-1 $111 $43 #
plane-surface $-1 -55.388175237592648 0 -9.7144821323253403 -1 0 0 0 0 1 forward_v I I I I #
coedge $-1 $112 $113 $114 $115 forward $44 $-1 #
face $-1 $116 $117 $26 $-1 $118 reversed single #
loop $-1 $-1 $119 $46 #
plane-surface $-1 -28.817608573356296 -22.842067678371798 93.660313588929043 0.69465837861970381 0 0.71933979245794832 0.71933979245794832 0 -0.69465837861970381 forward_v I I I I #
coedge $-1 $120 $121 $122 $123 reversed $47 $-1 #
face $-1 $-1 $124 $27 $-1 $125 forward single #
loop $-1 $126 $127 $49 #
cone-surface $-1 56.446515474111791 -26.233657005623435 2.0969417911485806 -0.69465837861970381 0 -0.71933979245794832 0.53950484434346124 0 -0.5209937839647778 1 I I -0.70710678118654757 0.70710678118654757 0.75 forward I I I I #
loop $-1 $-1 $128 $35 #
coedge $-1 $80 $80 $129 $130 reversed $50 $-1 #
face $-1 $-1 $131 $28 $-1 $132 forward single #
loop $-1 $133 $134 $52 #
cone-surface $-1 56.446515474111791 -19.450478351120161 2.0969417911485806 -0.69465837861970381 0 -0.71933979245794832 0.53950484434346124 0 -0.5209937839647778 1 I I -0.70710678118654757 0.70710678118654757 0.75 forward I I I I #
loop $-1 $-1 $135 $36 #
coedge $-1 $85 $85 $136 $137 reversed $53 $-1 #
face $-1 $138 $139 $29 $-1 $140 reversed single #
loop $-1 $-1 $141 $55 #
plane-surface $-1 -28.817608573356296 22.842067678371791 93.660313588929043 0.69465837861970381 0 0.71933979245794832 0.71933979245794832 0 -0.69465837861970381 forward_v I I I I #
coedge $-1 $142 $143 $144 $145 reversed $56 $-1 #
face $-1 $-1 $146 $30 $-1 $147 forward single #
loop $-1 $148 $149 $58 #
cone-surface $-1 56.446515474111791 19.450478351120154 2.0969417911485806 -0.69465837861970381 0 -0.71933979245794832 0.53950484434346124 0 -0.5209937839647778 1 I I -0.70710678118654757 0.70710678118654757 0.75 forward I I I I #
loop $-1 $-1 $150 $38 #
coedge $-1 $94 $94 $151 $152 reversed $59 $-1 #
face $-1 $-1 $153 $31 $-1 $154 forward single #
loop $-1 $155 $156 $61 #
cone-surface $-1 56.446515474111791 26.233657005623428 2.0969417911485806 -0.69465837861970381 0 -0.71933979245794832 0.53950484434346124 0 -0.5209937839647778 1 I I -0.70710678118654757 0.70710678118654757 0.75 forward I I I I #
loop $-1 $-1 $157 $39 #
coedge $-1 $99 $99 $158 $159 reversed $62 $-1 #
face $-1 $160 $161 $24 $-1 $162 reversed single #
loop $-1 $-1 $163 $64 #
plane-surface $-1 0 -37.408805010874183 0 0 1 0 0 0 1 forward_v I I I I #
coedge $-1 $164 $165 $166 $167 forward $65 $-1 #
coedge $-1 $168 $67 $169 $170 forward $41 $-1 #
coedge $-1 $67 $168 $171 $172 forward $41 $-1 #
coedge $-1 $173 $174 $67 $107 reversed $175 $-1 #
edge $-1 $176 -37.408805010874183 $177 37.408805010874183 $106 $178 forward 7 unknown #
face $-1 $179 $180 $25 $-1 $181 reversed single #
loop $-1 $-1 $182 $68 #
plane-surface $-1 0 0 -11.346854216821114 0 0 1 1 0 0 forward_v I I I I #
coedge $-1 $183 $114 $184 $185 reversed $69 $-1 #
coedge $-1 $186 $71 $187 $188 reversed $44 $-1 #
coedge $-1 $71 $186 $189 $190 reversed $44 $-1 #
coedge $-1 $111 $191 $71 $115 reversed $69 $-1 #
edge $-1 $192 -37.408805010874183 $193 37.408805010874183 $114 $194 forward 7 unknown #
face $-1 $195 $196 $26 $-1 $197 forward single #
loop $-1 $-1 $198 $72 #
plane-surface $-1 62.448973850819542 -30.755776108625625 188.16962417955881 0 1 0 0.69465837861970381 0 0.71933979245794832 forward_v I I I I #
coedge $-1 $199 $200 $201 $202 reversed $73 $-1 #
coedge $-1 $121 $75 $203 $204 reversed $47 $-1 #
coedge $-1 $75 $120 $199 $205 reversed $47 $-1 #
coedge $-1 $201 $206 $75 $123 forward $196 $-1 #
edge $-1 $207 -34.4672150918637 $208 -25.195984978837437 $122 $209 forward 7 unknown #
loop $-1 $-1 $129 $76 #
plane-surface $-1 -28.817608573356296 -22.842067678371798 93.660313588929043 0.69465837861970381 0 0.71933979245794832 0.71933979245794832 0 -0.69465837861970381 forward_v I I I I #
loop $-1 $-1 $210 $49 #
coedge $-1 $127 $127 $128 $211 reversed $77 $-1 #
coedge $-1 $128 $128 $127 $211 forward $79 $-1 #
coedge $-1 $129 $129 $80 $130 forward $124 $-1 #
edge $-1 $212 0 $212 6.2831853071796004 $129 $213 forward 7 unknown #
loop $-1 $-1 $136 $81 #
plane-surface $-1 -28.817608573356296 -22.842067678371798 93.660313588929043 0.69465837861970381 0 0.71933979245794832 0.71933979245794832 0 -0.69465837861970381 forward_v I I I I #
loop $-1 $-1 $214 $52 #
coedge $-1 $134 $134 $135 $215 reversed $82 $-1 #
coedge $-1 $135 $135 $134 $215 forward $84 $-1 #
coedge $-1 $136 $136 $85 $137 forward $131 $-1 #
edge $-1 $216 0 $216 6.2831853071796004 $136 $217 forward 7 unknown #
face $-1 $218 $219 $29 $-1 $220 reversed single #
loop $-1 $-1 $221 $86 #
plane-surface $-1 62.448973850819542 14.928359248117966 188.16962417955881 0 1 0 0.69465837861970381 0 0.71933979245794832 forward_v I I I I #
coedge $-1 $222 $223 $224 $225 reversed $87 $-1 #
coedge $-1 $143 $89 $226 $227 reversed $56 $-1 #
coedge $-1 $89 $142 $222 $228 reversed $56 $-1 #
coedge $-1 $224 $229 $89 $145 forward $230 $-1 #
edge $-1 $231 -34.4672150918637 $232 -25.195984978837437 $144 $233 forward 7 unknown #
loop $-1 $-1 $151 $90 #
plane-surface $-1 -28.817608573356296 22.842067678371791 93.660313588929043 0.69465837861970381 0 0.71933979245794832 0.71933979245794832 0 -0.69465837861970381 forward_v I I I I #
loop $-1 $-1 $234 $58 #
coedge $-1 $149 $149 $150 $235 reversed $91 $-1 #
coedge $-1 $150 $150 $149 $235 forward $93 $-1 #
coedge $-1 $151 $151 $94 $152 forward $146 $-1 #
edge $-1 $236 0 $236 6.2831853071796004 $151 $237 forward 7 unknown #
loop $-1 $-1 $158 $95 #
plane-surface $-1 -28.817608573356296 22.842067678371791 93.660313588929043 0.69465837861970381 0 0.71933979245794832 0.71933979245794832 0 -0.69465837861970381 forward_v I I I I #
loop $-1 $-1 $238 $61 #
coedge $-1 $156 $156 $157 $239 reversed $96 $-1 #
coedge $-1 $157 $157 $156 $239 forward $98 $-1 #
coedge $-1 $158 $158 $99 $159 forward $153 $-1 #
edge $-1 $240 0 $240 6.2831853071796004 $158 $241 forward 7 unknown #
face $-1 $242 $243 $24 $-1 $244 reversed single #
loop $-1 $-1 $245 $100 #
plane-surface $-1 -65.691702017273471 0 0 1 0 0 0 0 -1 forward_v I I I I #
coedge $-1 $246 $171 $247 $248 forward $101 $-1 #
coedge $-1 $249 $103 $246 $250 forward $65 $-1 #
coedge $-1 $103 $249 $251 $252 forward $65 $-1 #
coedge $-1 $174 $173 $103 $167 reversed $175 $-1 #
edge $-1 $253 -37.408805010874183 $254 37.408805010874183 $166 $255 forward 7 unknown #
coedge $-1 $105 $104 $256 $257 forward $41 $-1 #
coedge $-1 $258 $259 $104 $170 reversed $243 $-1 #
edge $-1 $177 -65.691702017273471 $260 65.691702017273471 $169 $261 forward 7 unknown #
coedge $-1 $163 $262 $105 $172 reversed $101 $-1 #
edge $-1 $263 -65.691702017273471 $176 65.691702017273471 $171 $264 forward 7 unknown #
coedge $-1 $166 $106 $262 $265 forward $175 $-1 #
coedge $-1 $106 $166 $258 $266 reversed $175 $-1 #
loop $-1 $-1 $173 $242 #
vertex $-1 $107 $267 #
vertex $-1 $107 $268 #
straight-curve $-1 65.691702017273471 0 11.346854216821114 0 1 0 I I #
face $-1 $269 $270 $25 $-1 $271 reversed single #
loop $-1 $-1 $184 $108 #
plane-surface $-1 0 -37.408805010874183 0 0 1 0 0 0 1 forward_v I I I I #
coedge $-1 $272 $273 $183 $274 forward $109 $-1 #
coedge $-1 $191 $111 $182 $274 reversed $69 $-1 #
coedge $-1 $189 $275 $111 $185 forward $180 $-1 #
edge $-1 $276 -6.4896131506584442 $192 -3.2248689816668961 $184 $277 forward 7 unknown #
coedge $-1 $113 $112 $278 $279 reversed $44 $-1 #
coedge $-1 $280 $281 $112 $188 forward $282 $-1 #
edge $-1 $283 -35.421732703556941 $193 -25.118205923876118 $187 $284 forward 7 unknown #
coedge $-1 $285 $184 $113 $190 forward $180 $-1 #
edge $-1 $192 25.118205923876118 $286 35.421732703556941 $189 $287 forward 7 unknown #
coedge $-1 $114 $183 $280 $288 reversed $69 $-1 #
vertex $-1 $190 $289 #
vertex $-1 $188 $290 #
straight-curve $-1 -55.388175237592648 0 -8.0821100478295662 0 1 0 I I #
face $-1 $-1 $291 $26 $-1 $292 reversed single #
loop $-1 $-1 $122 $116 #
plane-surface $-1 0 0 11.346854216821114 0 0 1 1 0 0 forward_v I I I I #
coedge $-1 $293 $294 $295 $296 reversed $117 $-1 #
coedge $-1 $297 $119 $121 $205 forward $73 $-1 #
coedge $-1 $119 $297 $293 $298 forward $73 $-1 #
coedge $-1 $295 $122 $119 $202 forward $196 $-1 #
edge $-1 $208 3.5073254089320738 $299 19.334742269439726 $201 $300 forward 7 unknown #
coedge $-1 $301 $302 $120 $204 forward $291 $-1 #
edge $-1 $303 -91.691080925026199 $207 -82.73795787295829 $203 $304 forward 7 unknown #
edge $-1 $208 118.49487734628056 $303 131.38340403454694 $121 $305 forward 7 unknown #
coedge $-1 $122 $295 $301 $306 forward $196 $-1 #
vertex $-1 $204 $307 #
vertex $-1 $123 $308 #
straight-curve $-1 31.224486925409771 -14.928359248117973 11.346854216821114 -1 0 0 I I #
coedge $-1 $210 $210 $-1 $309 reversed $126 $-1 #
edge $-1 $310 0 $310 6.2831853071796004 $127 $311 forward 7 unknown #
vertex $-1 $130 $312 #
ellipse-curve $-1 61.056086960760339 -26.233657005623435 6.8702926907871671 0.69465837861970381 0 0.71933979245794832 1.0790096886869225 0 -1.0419875679295556 1 I I #
coedge $-1 $214 $214 $-1 $313 reversed $133 $-1 #
edge $-1 $314 0 $314 6.2831853071796004 $134 $315 forward 7 unknown #
vertex $-1 $137 $316 #
ellipse-curve $-1 61.056086960760339 -19.450478351120161 6.8702926907871671 0.69465837861970381 0 0.71933979245794832 1.0790096886869225 0 -1.0419875679295556 1 I I #
face $-1 $-1 $230 $29 $-1 $317 forward single #
loop $-1 $-1 $318 $138 #
plane-surface $-1 65.691702017273471 0 0 -1 0 0 0 0 1 forward_v I I I I #
coedge $-1 $319 $320 $321 $322 reversed $139 $-1 #
coedge $-1 $323 $141 $143 $228 forward $87 $-1 #
coedge $-1 $141 $323 $319 $324 forward $87 $-1 #
coedge $-1 $321 $144 $141 $225 forward $230 $-1 #
edge $-1 $232 -19.334742269439722 $325 -3.5073254089320702 $224 $326 forward 7 unknown #
coedge $-1 $327 $328 $142 $227 forward $219 $-1 #
edge $-1 $329 -91.691080925026199 $231 -82.73795787295829 $226 $330 forward 7 unknown #
edge $-1 $232 118.49487734628056 $329 131.38340403454694 $143 $331 forward 7 unknown #
coedge $-1 $144 $321 $327 $332 forward $230 $-1 #
loop $-1 $-1 $321 $218 #
vertex $-1 $227 $333 #
vertex $-1 $145 $334 #
straight-curve $-1 31.224486925409771 30.755776108625618 11.346854216821114 -1 0 0 I I #
coedge $-1 $234 $234 $-1 $335 reversed $148 $-1 #
edge $-1 $336 0 $336 6.2831853071796004 $149 $337 forward 7 unknown #
vertex $-1 $152 $338 #
ellipse-curve $-1 61.056086960760339 19.450478351120154 6.8702926907871671 0.69465837861970381 0 0.71933979245794832 1.0790096886869225 0 -1.0419875679295556 1 I I #
coedge $-1 $238 $238 $-1 $339 reversed $155 $-1 #
edge $-1 $340 0 $340 6.2831853071796004 $156 $341 forward 7 unknown #
vertex $-1 $159 $342 #
ellipse-curve $-1 61.056086960760339 26.233657005623428 6.8702926907871671 0.69465837861970381 0 0.71933979245794832 1.0790096886869225 0 -1.0419875679295556 1 I I #
face $-1 $-1 $175 $24 $-1 $343 reversed single #
loop $-1 $-1 $258 $160 #
plane-surface $-1 0 37.408805010874183 0 0 -1 0 0 0 -1 forward_v I I I I #
coedge $-1 $344 $256 $259 $345 forward $161 $-1 #
coedge $-1 $262 $163 $164 $250 reversed $101 $-1 #
coedge $-1 $256 $344 $163 $248 reversed $161 $-1 #
edge $-1 $263 -11.346854216821114 $346 11.346854216821114 $247 $347 forward 7 unknown #
coedge $-1 $165 $164 $344 $348 forward $65 $-1 #
edge $-1 $254 -65.691702017273471 $346 65.691702017273471 $246 $349 forward 7 unknown #
coedge $-1 $259 $258 $165 $252 reversed $243 $-1 #
edge $-1 $350 -65.691702017273471 $253 65.691702017273471 $251 $351 forward 7 unknown #
vertex $-1 $167 $352 #
vertex $-1 $265 $353 #
straight-curve $-1 65.691702017273471 0 -11.346854216821114 0 -1 0 I I #
coedge $-1 $245 $247 $168 $257 reversed $161 $-1 #
edge $-1 $260 -37.408805010874183 $263 37.408805010874183 $256 $354 forward 7 unknown #
coedge $-1 $251 $169 $174 $266 forward $243 $-1 #
coedge $-1 $169 $251 $245 $345 reversed $243 $-1 #
vertex $-1 $170 $355 #
straight-curve $-1 0 37.408805010874183 11.346854216821114 -1 0 0 I I #
coedge $-1 $171 $246 $173 $265 reversed $101 $-1 #
vertex $-1 $257 $356 #
straight-curve $-1 0 -37.408805010874183 11.346854216821114 1 0 0 I I #
edge $-1 $176 -11.346854216821114 $254 11.346854216821114 $173 $357 forward 7 unknown #
edge $-1 $177 -11.346854216821114 $253 11.346854216821114 $174 $358 forward 7 unknown #
point $-1 65.691702017273471 -37.408805010874183 11.346854216821114 #
point $-1 65.691702017273471 37.408805010874183 11.346854216821114 #
face $-1 $-1 $282 $25 $-1 $359 reversed single #
loop $-1 $-1 $278 $179 #
plane-surface $-1 -65.691702017273471 0 0 1 0 0 0 0 -1 forward_v I I I I #
coedge $-1 $360 $182 $275 $361 forward $109 $-1 #
coedge $-1 $182 $360 $362 $363 forward $109 $-1 #
edge $-1 $364 -37.408805010874183 $276 37.408805010874183 $182 $365 forward 7 unknown #
coedge $-1 $184 $285 $272 $361 reversed $180 $-1 #
vertex $-1 $361 $366 #
straight-curve $-1 -55.388175237592648 -37.408805010874183 -4.8572410661626702 0 0 1 I I #
coedge $-1 $367 $368 $186 $279 forward $270 $-1 #
edge $-1 $286 -37.408805010874183 $283 37.408805010874183 $278 $369 forward 7 unknown #
coedge $-1 $362 $187 $191 $288 forward $282 $-1 #
coedge $-1 $187 $362 $367 $370 reversed $282 $-1 #
loop $-1 $-1 $280 $269 #
vertex $-1 $370 $371 #
straight-curve $-1 -30.26996931371653 37.408805010874183 -8.0821100478295662 1 0 0 I I #
coedge $-1 $275 $189 $368 $372 forward $180 $-1 #
vertex $-1 $372 $373 #
straight-curve $-1 -30.26996931371653 -37.408805010874183 -8.0821100478295662 -1 0 0 I I #
edge $-1 $193 3.2248689816668961 $364 6.4896131506584442 $280 $374 forward 7 unknown #
point $-1 -55.388175237592648 -37.408805010874183 -8.0821100478295662 #
point $-1 -55.388175237592648 37.408805010874183 -8.0821100478295662 #
loop $-1 $-1 $203 $195 #
plane-surface $-1 65.691702017273471 0 0 -1 0 0 0 0 1 forward_v I I I I #
coedge $-1 $294 $198 $200 $298 reversed $117 $-1 #
coedge $-1 $198 $293 $375 $376 reversed $117 $-1 #
coedge $-1 $206 $201 $198 $296 forward $196 $-1 #
edge $-1 $299 25.195984978837437 $377 34.4672150918637 $295 $378 forward 7 unknown #
coedge $-1 $200 $199 $302 $379 reversed $73 $-1 #
edge $-1 $380 -131.38340403454694 $299 -118.49487734628056 $293 $381 forward 7 unknown #
vertex $-1 $202 $382 #
straight-curve $-1 56.420471904247208 -11.421033839185899 11.346854216821114 0 -1 0 I I #
coedge $-1 $375 $203 $206 $306 reversed $291 $-1 #
coedge $-1 $203 $375 $297 $379 forward $291 $-1 #
vertex $-1 $204 $383 #
straight-curve $-1 65.691702017273471 -14.928359248117973 94.084812089779405 0 0 1 I I #
straight-curve $-1 -28.817608573356296 -14.928359248117973 93.660313588929043 0.71933979245794832 0 -0.69465837861970381 I I #
edge $-1 $377 -30.755776108625625 $207 -14.928359248117973 $301 $384 forward 7 unknown #
point $-1 65.691702017273471 -14.928359248117973 11.346854216821114 #
point $-1 56.420471904247208 -14.928359248117973 11.346854216821114 #
edge $-1 $385 1 $385 0 $210 $-1 forward 7 unknown #
vertex $-1 $211 $386 #
ellipse-curve $-1 56.967509258076568 -26.233657005623435 2.6364466354920419 0.69465837861970381 0 0.71933979245794832 1.0790096886869225 0 -1.0419875679295556 1 I I #
point $-1 62.135096649447256 -26.233657005623435 5.8283051228575999 #
edge $-1 $387 1 $387 0 $214 $-1 forward 7 unknown #
vertex $-1 $215 $388 #
ellipse-curve $-1 56.967509258076568 -19.450478351120161 2.6364466354920419 0.69465837861970381 0 0.71933979245794832 1.0790096886869225 0 -1.0419875679295556 1 I I #
point $-1 62.135096649447256 -19.450478351120161 5.8283051228575999 #
plane-surface $-1 0 0 11.346854216821114 0 0 1 1 0 0 forward_v I I I I #
coedge $-1 $328 $327 $320 $389 forward $219 $-1 #
coedge $-1 $320 $221 $223 $324 reversed $139 $-1 #
coedge $-1 $221 $319 $318 $389 reversed $139 $-1 #
coedge $-1 $229 $224 $221 $322 forward $230 $-1 #
edge $-1 $325 25.195984978837437 $390 34.4672150918637 $321 $391 forward 7 unknown #
coedge $-1 $223 $222 $328 $392 reversed $87 $-1 #
edge $-1 $393 -131.38340403454694 $325 -118.49487734628056 $319 $394 forward 7 unknown #
vertex $-1 $225 $395 #
straight-curve $-1 56.420471904247208 11.421033839185895 11.346854216821114 0 -1 0 I I #
coedge $-1 $318 $226 $229 $332 reversed $219 $-1 #
coedge $-1 $226 $318 $323 $392 forward $219 $-1 #
vertex $-1 $227 $396 #
straight-curve $-1 65.691702017273471 30.755776108625618 94.084812089779405 0 0 1 I I #
straight-curve $-1 -28.817608573356296 30.755776108625618 93.660313588929043 0.71933979245794832 0 -0.69465837861970381 I I #
edge $-1 $390 14.928359248117966 $231 30.755776108625618 $327 $397 forward 7 unknown #
point $-1 65.691702017273471 30.755776108625618 11.346854216821114 #
point $-1 56.420471904247208 30.755776108625618 11.346854216821114 #
edge $-1 $398 1 $398 0 $234 $-1 forward 7 unknown #
vertex $-1 $235 $399 #
ellipse-curve $-1 56.967509258076568 19.450478351120154 2.6364466354920419 0.69465837861970381 0 0.71933979245794832 1.0790096886869225 0 -1.0419875679295556 1 I I #
point $-1 62.135096649447256 19.450478351120154 5.8283051228575999 #
edge $-1 $400 1 $400 0 $238 $-1 forward 7 unknown #
vertex $-1 $239 $401 #
ellipse-curve $-1 56.967509258076568 26.233657005623428 2.6364466354920419 0.69465837861970381 0 0.71933979245794832 1.0790096886869225 0 -1.0419875679295556 1 I I #
point $-1 62.135096649447256 26.233657005623428 5.8283051228575999 #
plane-surface $-1 65.691702017273471 0 0 -1 0 0 0 0 1 forward_v I I I I #
coedge $-1 $247 $245 $249 $348 reversed $161 $-1 #
edge $-1 $260 -11.346854216821114 $350 11.346854216821114 $259 $402 forward 7 unknown #
vertex $-1 $348 $403 #
straight-curve $-1 -65.691702017273471 -37.408805010874183 0 0 0 -1 I I #
edge $-1 $346 -37.408805010874183 $350 37.408805010874183 $344 $404 forward 7 unknown #
straight-curve $-1 0 -37.408805010874183 -11.346854216821114 -1 0 0 I I #
vertex $-1 $252 $405 #
straight-curve $-1 0 37.408805010874183 -11.346854216821114 1 0 0 I I #
point $-1 65.691702017273471 37.408805010874183 -11.346854216821114 #
point $-1 65.691702017273471 -37.408805010874183 -11.346854216821114 #
straight-curve $-1 -65.691702017273471 0 11.346854216821114 0 -1 0 I I #
point $-1 -65.691702017273471 37.408805010874183 11.346854216821114 #
point $-1 -65.691702017273471 -37.408805010874183 11.346854216821114 #
straight-curve $-1 65.691702017273471 -37.408805010874183 0 0 0 -1 I I #
straight-curve $-1 65.691702017273471 37.408805010874183 0 0 0 -1 I I #
plane-surface $-1 0 37.408805010874183 0 0 -1 0 0 0 -1 forward_v I I I I #
coedge $-1 $273 $272 $406 $407 forward $109 $-1 #
edge $-1 $276 55.388175237592648 $408 65.691702017273471 $275 $409 forward 7 unknown #
coedge $-1 $281 $280 $273 $363 reversed $282 $-1 #
edge $-1 $410 -65.691702017273471 $364 -55.388175237592648 $362 $411 forward 7 unknown #
vertex $-1 $288 $412 #
straight-curve $-1 -55.388175237592648 0 -11.346854216821114 0 -1 0 I I #
point $-1 -55.388175237592648 -37.408805010874183 -11.346854216821114 #
coedge $-1 $406 $278 $281 $370 forward $270 $-1 #
coedge $-1 $278 $406 $285 $372 reversed $270 $-1 #
straight-curve $-1 -65.691702017273471 0 -8.0821100478295662 0 1 0 I I #
edge $-1 $283 8.0821100478295662 $410 11.346854216821114 $281 $413 forward 7 unknown #
point $-1 -65.691702017273471 37.408805010874183 -8.0821100478295662 #
edge $-1 $286 8.0821100478295662 $408 11.346854216821114 $368 $414 forward 7 unknown #
point $-1 -65.691702017273471 -37.408805010874183 -8.0821100478295662 #
straight-curve $-1 -55.388175237592648 37.408805010874183 -4.8572410661626702 0 0 -1 I I #
coedge $-1 $302 $301 $294 $376 forward $291 $-1 #
edge $-1 $377 82.73795787295829 $380 91.691080925026199 $375 $415 forward 7 unknown #
vertex $-1 $306 $416 #
straight-curve $-1 31.224486925409771 -30.755776108625625 11.346854216821114 1 0 0 I I #
edge $-1 $380 -19.334742269439726 $303 -3.5073254089320738 $302 $417 forward 7 unknown #
vertex $-1 $379 $418 #
straight-curve $-1 -28.817608573356296 -30.755776108625625 93.660313588929043 -0.71933979245794832 0 0.69465837861970381 I I #
point $-1 56.420471904247208 -30.755776108625625 11.346854216821114 #
point $-1 65.691702017273471 -14.928359248117973 2.3937311647532056 #
straight-curve $-1 65.691702017273471 0 11.346854216821114 0 1 0 I I #
vertex $-1 $309 $419 #
point $-1 58.046518946763491 -26.233657005623435 1.5944590675624863 #
vertex $-1 $313 $420 #
point $-1 58.046518946763491 -19.450478351120161 1.5944590675624863 #
edge $-1 $390 82.73795787295829 $393 91.691080925026199 $318 $421 forward 7 unknown #
vertex $-1 $332 $422 #
straight-curve $-1 31.224486925409771 14.928359248117966 11.346854216821114 1 0 0 I I #
edge $-1 $393 3.5073254089320702 $329 19.334742269439722 $328 $423 forward 7 unknown #
vertex $-1 $392 $424 #
straight-curve $-1 -28.817608573356296 14.928359248117966 93.660313588929043 -0.71933979245794832 0 0.69465837861970381 I I #
point $-1 56.420471904247208 14.928359248117966 11.346854216821114 #
point $-1 65.691702017273471 30.755776108625618 2.3937311647532056 #
straight-curve $-1 65.691702017273471 0 11.346854216821114 0 1 0 I I #
vertex $-1 $335 $425 #
point $-1 58.046518946763491 19.450478351120154 1.5944590675624863 #
vertex $-1 $339 $426 #
point $-1 58.046518946763491 26.233657005623428 1.5944590675624863 #
straight-curve $-1 -65.691702017273471 37.408805010874183 0 0 0 -1 I I #
point $-1 -65.691702017273471 -37.408805010874183 -11.346854216821114 #
straight-curve $-1 -65.691702017273471 0 -11.346854216821114 0 1 0 I I #
point $-1 -65.691702017273471 37.408805010874183 -11.346854216821114 #
coedge $-1 $368 $367 $360 $407 reversed $270 $-1 #
edge $-1 $408 -37.408805010874183 $410 37.408805010874183 $406 $427 forward 7 unknown #
vertex $-1 $407 $428 #
straight-curve $-1 0 -37.408805010874183 -11.346854216821114 -1 0 0 I I #
vertex $-1 $363 $429 #
straight-curve $-1 0 37.408805010874183 -11.346854216821114 1 0 0 I I #
point $-1 -55.388175237592648 37.408805010874183 -11.346854216821114 #
straight-curve $-1 -65.691702017273471 37.408805010874183 0 0 0 -1 I I #
straight-curve $-1 -65.691702017273471 -37.408805010874183 0 0 0 -1 I I #
straight-curve $-1 65.691702017273471 -30.755776108625625 94.084812089779405 0 0 -1 I I #
point $-1 65.691702017273471 -30.755776108625625 11.346854216821114 #
straight-curve $-1 65.691702017273471 -11.421033839185899 2.3937311647532127 0 1 0 I I #
point $-1 65.691702017273471 -30.755776108625625 2.3937311647532056 #
point $-1 55.925521690147015 -26.233657005623435 1.5574369468051192 #
point $-1 55.925521690147015 -19.450478351120161 1.5574369468051192 #
straight-curve $-1 65.691702017273471 14.928359248117966 94.084812089779405 0 0 -1 I I #
point $-1 65.691702017273471 14.928359248117966 11.346854216821114 #
straight-curve $-1 65.691702017273471 11.421033839185895 2.3937311647532127 0 1 0 I I #
point $-1 65.691702017273471 14.928359248117966 2.3937311647532056 #
point $-1 55.925521690147015 19.450478351120154 1.5574369468051192 #
point $-1 55.925521690147015 26.233657005623428 1.5574369468051192 #
straight-curve $-1 -65.691702017273471 0 -11.346854216821114 0 1 0 I I #
point $-1 -65.691702017273471 -37.408805010874183 -11.346854216821114 #
point $-1 -65.691702017273471 37.408805010874183 -11.346854216821114 #
End-of-ACIS-data 