500 0 9 0           
7 Unknown 11 ACIS 5.0 NT 24 Fri Mar 26 03:26:10 1999 
-1 9.9999999999999995e-007 1e-010 
body $-1 $9 $-1 $10 #
body $-1 $11 $-1 $12 #
body $-1 $13 $-1 $14 #
body $-1 $15 $-1 $16 #
body $-1 $17 $-1 $18 #
body $-1 $19 $-1 $20 #
body $-1 $21 $-1 $22 #
body $-1 $23 $-1 $24 #
body $-1 $25 $-1 $26 #
lump $-1 $-1 $27 $0 #
transform $-1 1 0 0 0 1 0 0 0 1 48.553727835932492 29.900098933823056 12.657103252704839 1 rotate no_reflect no_shear #
lump $-1 $-1 $28 $1 #
transform $-1 1 0 0 0 1 0 0 0 1 48.553727835932492 29.900098933823056 12.657103252704839 1 rotate no_reflect no_shear #
lump $-1 $-1 $29 $2 #
transform $-1 1 0 0 0 1 0 0 0 1 48.553727835932492 29.900098933823056 12.657103252704839 1 rotate no_reflect no_shear #
lump $-1 $-1 $30 $3 #
transform $-1 1 0 0 0 1 0 0 0 1 48.553727835932492 29.900098933823056 12.657103252704839 1 rotate no_reflect no_shear #
lump $-1 $-1 $31 $4 #
transform $-1 1 0 0 0 1 0 0 0 1 48.553727835932492 29.900098933823056 12.657103252704839 1 rotate no_reflect no_shear #
lump $-1 $-1 $32 $5 #
transform $-1 1 0 0 0 1 0 0 0 1 48.553727835932492 29.900098933823056 12.657103252704839 1 rotate no_reflect no_shear #
lump $-1 $-1 $33 $6 #
transform $-1 1 0 0 0 1 0 0 0 1 48.553727835932492 29.900098933823056 12.657103252704839 1 rotate no_reflect no_shear #
lump $-1 $-1 $34 $7 #
transform $-1 1 0 0 0 1 0 0 0 1 48.553727835932492 29.900098933823056 12.657103252704839 1 rotate no_reflect no_shear #
lump $-1 $-1 $35 $8 #
transform $-1 1 0 0 0 1 0 0 0 1 48.553727835932492 29.900098933823056 12.657103252704839 1 rotate no_reflect no_shear #
shell $-1 $-1 $-1 $36 $-1 $9 #
shell $-1 $-1 $-1 $37 $-1 $11 #
shell $-1 $-1 $-1 $38 $-1 $13 #
shell $-1 $-1 $-1 $39 $-1 $15 #
shell $-1 $-1 $-1 $40 $-1 $17 #
shell $-1 $-1 $-1 $41 $-1 $19 #
shell $-1 $-1 $-1 $42 $-1 $21 #
shell $-1 $-1 $-1 $43 $-1 $23 #
shell $-1 $-1 $-1 $44 $-1 $25 #
face $-1 $45 $46 $27 $-1 $47 forward single #
face $-1 $48 $49 $28 $-1 $50 forward single #
face $-1 $51 $52 $29 $-1 $53 reversed single #
face $-1 $54 $55 $30 $-1 $56 forward single #
face $-1 $57 $58 $31 $-1 $59 forward single #
face $-1 $60 $61 $32 $-1 $62 reversed single #
face $-1 $63 $64 $33 $-1 $65 forward single #
face $-1 $66 $67 $34 $-1 $68 forward single #
face $-1 $69 $70 $35 $-1 $71 forward single #
face $-1 $72 $73 $27 $-1 $74 reversed single #
loop $-1 $-1 $75 $36 #
plane-surface $-1 0 0 12.657103252704839 0 0 1 1 0 0 forward_v I I I I #
face $-1 $76 $77 $28 $-1 $78 reversed single #
loop $-1 $-1 $79 $37 #
plane-surface $-1 -44.251069830826935 0 -8.8761572381741978 0 0 1 1 0 0 forward_v I I I I #
face $-1 $80 $81 $29 $-1 $82 reversed single #
loop $-1 $-1 $83 $38 #
plane-surface $-1 -39.948411825721379 -82.788610576657348 84.443186515203621 1 0 0 0 0.54463904215088732 -0.83867056331134215 forward_v I I I I #
face $-1 $84 $85 $30 $-1 $86 forward single #
loop $-1 $87 $88 $39 #
cone-surface $-1 -34.398878654727469 -21.723067393369369 6.6850256892447106 0 0.54463904215088732 -0.83867056331134215 1.5 0 0 1 I I 0 1 1.5 forward I I I I #
face $-1 $89 $90 $31 $-1 $91 forward single #
loop $-1 $92 $93 $40 #
cone-surface $-1 -26.074578898236599 -21.723067393369369 6.6850256892447106 0 0.54463904215088732 -0.83867056331134215 1.5 0 0 1 I I 0 1 1.5 forward I I I I #
face $-1 $94 $95 $32 $-1 $96 reversed single #
loop $-1 $-1 $97 $41 #
plane-surface $-1 -31.827924668601213 65.849900885810811 117.49744517342296 1 0 0 0 -0.7660444514056185 -0.64278759981090561 forward_v I I I I #
face $-1 $98 $99 $33 $-1 $100 forward single #
loop $-1 $101 $102 $42 #
cone-surface $-1 -27.693251203320504 28.095333095955201 10.641341350893233 0 -0.7660444514056185 -0.64278759981090561 0.25 0 0 1 I I 0 1 0.25 forward I I I I #
face $-1 $103 $104 $34 $-1 $105 forward single #
loop $-1 $106 $107 $43 #
cone-surface $-1 -21.491241005399441 28.095333095955201 10.641341350893233 0 -0.7660444514056185 -0.64278759981090561 0.25 0 0 1 I I 0 1 0.25 forward I I I I #
face $-1 $108 $109 $35 $-1 $110 forward single #
loop $-1 $111 $112 $44 #
cone-surface $-1 -15.289230807478376 28.095333095955201 10.641341350893233 0 -0.7660444514056185 -0.64278759981090561 0.25 0 0 1 I I 0 1 0.25 forward I I I I #
face $-1 $113 $114 $27 $-1 $115 reversed single #
loop $-1 $-1 $116 $45 #
plane-surface $-1 0 0 -12.657103252704839 0 0 1 1 0 0 forward_v I I I I #
coedge $-1 $117 $118 $119 $120 forward $46 $-1 #
face $-1 $121 $122 $28 $-1 $123 reversed single #
loop $-1 $-1 $124 $48 #
plane-surface $-1 -39.948411825721379 0 -10.766630245439519 -1 0 0 0 0 1 forward_v I I I I #
coedge $-1 $125 $126 $127 $128 forward $49 $-1 #
face $-1 $129 $130 $29 $-1 $131 reversed single #
loop $-1 $-1 $132 $51 #
plane-surface $-1 -30.236728776482032 -29.900098933823053 3.0020219651494244 0 -0.54463904215088732 0.83867056331134215 1 0 0 forward_v I I I I #
coedge $-1 $133 $134 $135 $136 reversed $52 $-1 #
face $-1 $-1 $137 $30 $-1 $138 forward single #
loop $-1 $139 $140 $54 #
cone-surface $-1 -34.398878654727469 -20.571317131574261 4.9114858470787759 0 0.54463904215088732 -0.83867056331134215 0.75 0 0 1 I I -0.70710678118654757 0.70710678118654757 0.75 forward I I I I #
loop $-1 $-1 $141 $39 #
coedge $-1 $88 $88 $142 $143 reversed $55 $-1 #
face $-1 $-1 $144 $31 $-1 $145 forward single #
loop $-1 $146 $147 $57 #
cone-surface $-1 -26.074578898236599 -20.571317131574261 4.9114858470787759 0 0.54463904215088732 -0.83867056331134215 0.75 0 0 1 I I -0.70710678118654757 0.70710678118654757 0.75 forward I I I I #
loop $-1 $-1 $148 $40 #
coedge $-1 $93 $93 $149 $150 reversed $58 $-1 #
face $-1 $151 $152 $32 $-1 $153 reversed single #
loop $-1 $-1 $154 $60 #
plane-surface $-1 -21.491241005399441 -8.5387267217384135 55.077976818360959 0 0.7660444514056185 0.64278759981090561 1 0 0 forward_v I I I I #
coedge $-1 $155 $156 $157 $158 reversed $61 $-1 #
face $-1 $-1 $159 $33 $-1 $160 forward single #
loop $-1 $161 $162 $63 #
cone-surface $-1 -27.693251203320504 27.616555313826691 10.239599101011418 0 -0.7660444514056185 -0.64278759981090561 0.125 0 0 1 I I -0.70710678118654746 0.70710678118654746 0.125 forward I I I I #
loop $-1 $-1 $163 $42 #
coedge $-1 $102 $102 $164 $165 reversed $64 $-1 #
face $-1 $-1 $166 $34 $-1 $167 forward single #
loop $-1 $168 $169 $66 #
cone-surface $-1 -21.491241005399441 27.616555313826691 10.239599101011418 0 -0.7660444514056185 -0.64278759981090561 0.125 0 0 1 I I -0.70710678118654746 0.70710678118654746 0.125 forward I I I I #
loop $-1 $-1 $170 $43 #
coedge $-1 $107 $107 $171 $172 reversed $67 $-1 #
face $-1 $-1 $173 $35 $-1 $174 forward single #
loop $-1 $175 $176 $69 #
cone-surface $-1 -15.289230807478376 27.616555313826691 10.239599101011418 0 -0.7660444514056185 -0.64278759981090561 0.125 0 0 1 I I -0.70710678118654746 0.70710678118654746 0.125 forward I I I I #
loop $-1 $-1 $177 $44 #
coedge $-1 $112 $112 $178 $179 reversed $70 $-1 #
face $-1 $180 $181 $27 $-1 $182 reversed single #
loop $-1 $-1 $183 $72 #
plane-surface $-1 0 -29.900098933823056 0 0 1 0 0 0 1 forward_v I I I I #
coedge $-1 $184 $185 $186 $187 forward $73 $-1 #
coedge $-1 $188 $75 $189 $190 forward $46 $-1 #
coedge $-1 $75 $188 $191 $192 forward $46 $-1 #
coedge $-1 $193 $194 $75 $120 reversed $195 $-1 #
edge $-1 $196 -29.900098933823056 $197 29.900098933823056 $119 $198 forward 7 unknown #
face $-1 $199 $200 $28 $-1 $201 reversed single #
loop $-1 $-1 $202 $76 #
plane-surface $-1 0 0 -12.657103252704839 0 0 1 1 0 0 forward_v I I I I #
coedge $-1 $203 $127 $204 $205 reversed $77 $-1 #
coedge $-1 $206 $79 $207 $208 reversed $49 $-1 #
coedge $-1 $79 $206 $209 $210 reversed $49 $-1 #
coedge $-1 $124 $211 $79 $128 reversed $77 $-1 #
edge $-1 $212 -29.900098933823056 $213 29.900098933823056 $127 $214 forward 7 unknown #
face $-1 $215 $216 $29 $-1 $217 forward single #
loop $-1 $-1 $218 $80 #
plane-surface $-1 -20.525045727242684 -82.788610576657348 84.443186515203621 -1 0 0 0 -0.54463904215088732 0.83867056331134215 forward_v I I I I #
coedge $-1 $219 $220 $221 $222 reversed $81 $-1 #
coedge $-1 $134 $83 $223 $224 reversed $52 $-1 #
coedge $-1 $83 $133 $219 $225 reversed $52 $-1 #
coedge $-1 $221 $226 $83 $136 forward $227 $-1 #
edge $-1 $228 29.564490004896971 $229 39.219571292452386 $135 $230 forward 7 unknown #
loop $-1 $-1 $142 $84 #
plane-surface $-1 -30.236728776482032 -29.900098933823053 3.0020219651494244 0 -0.54463904215088732 0.83867056331134215 1 0 0 forward_v I I I I #
loop $-1 $-1 $231 $54 #
coedge $-1 $140 $140 $141 $232 reversed $85 $-1 #
coedge $-1 $141 $141 $140 $232 forward $87 $-1 #
coedge $-1 $142 $142 $88 $143 forward $137 $-1 #
edge $-1 $233 -2.4117107102935771e-015 $233 6.2831853071795978 $142 $234 forward 7 unknown #
loop $-1 $-1 $149 $89 #
plane-surface $-1 -30.236728776482032 -29.900098933823053 3.0020219651494244 0 -0.54463904215088732 0.83867056331134215 1 0 0 forward_v I I I I #
loop $-1 $-1 $235 $57 #
coedge $-1 $147 $147 $148 $236 reversed $90 $-1 #
coedge $-1 $148 $148 $147 $236 forward $92 $-1 #
coedge $-1 $149 $149 $93 $150 forward $144 $-1 #
edge $-1 $237 -2.4117107102935771e-015 $237 6.2831853071795978 $149 $238 forward 7 unknown #
face $-1 $239 $240 $32 $-1 $241 reversed single #
loop $-1 $-1 $242 $94 #
plane-surface $-1 -11.15455734219767 65.849900885810811 117.49744517342296 -1 0 0 0 0.7660444514056185 0.64278759981090561 forward_v I I I I #
coedge $-1 $243 $244 $245 $246 reversed $95 $-1 #
coedge $-1 $156 $97 $247 $248 reversed $61 $-1 #
coedge $-1 $97 $155 $243 $249 reversed $61 $-1 #
coedge $-1 $245 $250 $97 $158 forward $251 $-1 #
edge $-1 $252 3.0248515090823496 $253 5.8683387334124077 $157 $254 forward 7 unknown #
loop $-1 $-1 $164 $98 #
plane-surface $-1 -21.491241005399441 -8.5387267217384135 55.077976818360959 0 0.7660444514056185 0.64278759981090561 1 0 0 forward_v I I I I #
loop $-1 $-1 $255 $63 #
coedge $-1 $162 $162 $163 $256 reversed $99 $-1 #
coedge $-1 $163 $163 $162 $256 forward $101 $-1 #
coedge $-1 $164 $164 $102 $165 forward $159 $-1 #
edge $-1 $257 7.0063408426627188e-015 $257 6.2831853071796075 $164 $258 forward 7 unknown #
loop $-1 $-1 $171 $103 #
plane-surface $-1 -21.491241005399441 -8.5387267217384135 55.077976818360959 0 0.7660444514056185 0.64278759981090561 1 0 0 forward_v I I I I #
loop $-1 $-1 $259 $66 #
coedge $-1 $169 $169 $170 $260 reversed $104 $-1 #
coedge $-1 $170 $170 $169 $260 forward $106 $-1 #
coedge $-1 $171 $171 $107 $172 forward $166 $-1 #
edge $-1 $261 7.0063408426627188e-015 $261 6.2831853071796075 $171 $262 forward 7 unknown #
loop $-1 $-1 $178 $108 #
plane-surface $-1 -21.491241005399441 -8.5387267217384135 55.077976818360959 0 0.7660444514056185 0.64278759981090561 1 0 0 forward_v I I I I #
loop $-1 $-1 $263 $69 #
coedge $-1 $176 $176 $177 $264 reversed $109 $-1 #
coedge $-1 $177 $177 $176 $264 forward $111 $-1 #
coedge $-1 $178 $178 $112 $179 forward $173 $-1 #
edge $-1 $265 7.0063408426627188e-015 $265 6.2831853071796075 $178 $266 forward 7 unknown #
face $-1 $267 $268 $27 $-1 $269 reversed single #
loop $-1 $-1 $270 $113 #
plane-surface $-1 -48.553727835932492 0 0 1 0 0 0 0 -1 forward_v I I I I #
coedge $-1 $271 $191 $272 $273 forward $114 $-1 #
coedge $-1 $274 $116 $271 $275 forward $73 $-1 #
coedge $-1 $116 $274 $276 $277 forward $73 $-1 #
coedge $-1 $194 $193 $116 $187 reversed $195 $-1 #
edge $-1 $278 -29.900098933823056 $279 29.900098933823056 $186 $280 forward 7 unknown #
coedge $-1 $118 $117 $281 $282 forward $46 $-1 #
coedge $-1 $283 $284 $117 $190 reversed $268 $-1 #
edge $-1 $197 -48.553727835932492 $285 48.553727835932492 $189 $286 forward 7 unknown #
coedge $-1 $183 $287 $118 $192 reversed $114 $-1 #
edge $-1 $288 -48.553727835932492 $196 48.553727835932492 $191 $289 forward 7 unknown #
coedge $-1 $186 $119 $287 $290 forward $195 $-1 #
coedge $-1 $119 $186 $283 $291 reversed $195 $-1 #
loop $-1 $-1 $193 $267 #
vertex $-1 $120 $292 #
vertex $-1 $120 $293 #
straight-curve $-1 48.553727835932492 0 12.657103252704839 0 1 0 I I #
face $-1 $294 $295 $28 $-1 $296 reversed single #
loop $-1 $-1 $204 $121 #
plane-surface $-1 0 -29.900098933823056 0 0 1 0 0 0 1 forward_v I I I I #
coedge $-1 $297 $298 $203 $299 forward $122 $-1 #
coedge $-1 $211 $124 $202 $299 reversed $77 $-1 #
coedge $-1 $209 $300 $124 $205 forward $200 $-1 #
edge $-1 $301 -7.2737881299850802 $212 -3.4928421154544385 $204 $302 forward 7 unknown #
coedge $-1 $126 $125 $303 $304 reversed $49 $-1 #
coedge $-1 $305 $306 $125 $208 forward $307 $-1 #
edge $-1 $308 -26.428192920519024 $213 -17.822876910307912 $207 $309 forward 7 unknown #
coedge $-1 $310 $204 $126 $210 forward $200 $-1 #
edge $-1 $212 17.822876910307912 $311 26.428192920519024 $209 $312 forward 7 unknown #
coedge $-1 $127 $203 $305 $313 reversed $77 $-1 #
vertex $-1 $210 $314 #
vertex $-1 $208 $315 #
straight-curve $-1 -39.948411825721379 0 -8.8761572381741978 0 1 0 I I #
face $-1 $-1 $227 $29 $-1 $316 reversed single #
loop $-1 $-1 $317 $129 #
plane-surface $-1 0 0 12.657103252704839 0 0 1 1 0 0 forward_v I I I I #
coedge $-1 $318 $319 $320 $321 reversed $130 $-1 #
coedge $-1 $322 $132 $134 $225 forward $81 $-1 #
coedge $-1 $132 $322 $318 $323 forward $81 $-1 #
coedge $-1 $320 $135 $132 $222 forward $227 $-1 #
edge $-1 $229 -24.830047437480363 $324 -5.4066813390016684 $221 $325 forward 7 unknown #
coedge $-1 $326 $327 $133 $224 forward $216 $-1 #
edge $-1 $328 -26.361727475049122 $228 -11.494206354505618 $223 $329 forward 7 unknown #
edge $-1 $229 -4.1888979916949389e-015 $328 17.727486537552629 $134 $330 forward 7 unknown #
coedge $-1 $135 $320 $326 $331 reversed $227 $-1 #
loop $-1 $-1 $320 $215 #
vertex $-1 $331 $332 #
vertex $-1 $136 $333 #
straight-curve $-1 -39.948411825721379 -29.900098933823056 42.22159325760181 0 0 -1 I I #
coedge $-1 $231 $231 $-1 $334 reversed $139 $-1 #
edge $-1 $335 0 $335 6.2831853071796004 $140 $336 forward 7 unknown #
vertex $-1 $143 $337 #
ellipse-curve $-1 -34.398878654727469 -22.466338373551306 7.8295626089271293 0 -0.54463904215088732 0.83867056331134215 1.5 0 0 1 I I #
coedge $-1 $235 $235 $-1 $338 reversed $146 $-1 #
edge $-1 $339 0 $339 6.2831853071796004 $147 $340 forward 7 unknown #
vertex $-1 $150 $341 #
ellipse-curve $-1 -26.074578898236599 -22.466338373551306 7.8295626089271293 0 -0.54463904215088732 0.83867056331134215 1.5 0 0 1 I I #
face $-1 $-1 $251 $32 $-1 $342 forward single #
loop $-1 $-1 $343 $151 #
plane-surface $-1 0 29.900098933823056 0 0 -1 0 0 0 -1 forward_v I I I I #
coedge $-1 $344 $345 $346 $347 reversed $152 $-1 #
coedge $-1 $348 $154 $156 $249 forward $95 $-1 #
coedge $-1 $154 $348 $344 $349 forward $95 $-1 #
coedge $-1 $346 $157 $154 $246 forward $251 $-1 #
edge $-1 $253 -21.08230416590149 $350 -0.40893683949794912 $245 $351 forward 7 unknown #
coedge $-1 $352 $353 $155 $248 forward $240 $-1 #
edge $-1 $354 -49.480355537818916 $252 -46.091619334006637 $247 $355 forward 7 unknown #
edge $-1 $253 55.376516973418283 $354 59.800197867646112 $156 $356 forward 7 unknown #
coedge $-1 $157 $346 $352 $357 forward $251 $-1 #
loop $-1 $-1 $346 $239 #
vertex $-1 $248 $358 #
vertex $-1 $158 $359 #
straight-curve $-1 -31.827924668601213 32.924950442905406 12.657103252704843 0 -1 0 I I #
coedge $-1 $255 $255 $-1 $360 reversed $161 $-1 #
edge $-1 $361 0 $361 6.2831853071796004 $162 $362 forward 7 unknown #
vertex $-1 $165 $363 #
ellipse-curve $-1 -27.693251203320504 28.478355321658025 10.9627351507987 0 0.7660444514056185 0.64278759981090561 0.25 0 0 1 I I #
coedge $-1 $259 $259 $-1 $364 reversed $168 $-1 #
edge $-1 $365 0 $365 6.2831853071796004 $169 $366 forward 7 unknown #
vertex $-1 $172 $367 #
ellipse-curve $-1 -21.491241005399441 28.478355321658025 10.9627351507987 0 0.7660444514056185 0.64278759981090561 0.25 0 0 1 I I #
coedge $-1 $263 $263 $-1 $368 reversed $175 $-1 #
edge $-1 $369 0 $369 6.2831853071796004 $176 $370 forward 7 unknown #
vertex $-1 $179 $371 #
ellipse-curve $-1 -15.289230807478376 28.478355321658025 10.9627351507987 0 0.7660444514056185 0.64278759981090561 0.25 0 0 1 I I #
face $-1 $-1 $195 $27 $-1 $372 reversed single #
loop $-1 $-1 $283 $180 #
plane-surface $-1 0 29.900098933823056 0 0 -1 0 0 0 -1 forward_v I I I I #
coedge $-1 $373 $281 $284 $374 forward $181 $-1 #
coedge $-1 $287 $183 $184 $275 reversed $114 $-1 #
coedge $-1 $281 $373 $183 $273 reversed $181 $-1 #
edge $-1 $288 -12.657103252704839 $375 12.657103252704839 $272 $376 forward 7 unknown #
coedge $-1 $185 $184 $373 $377 forward $73 $-1 #
edge $-1 $279 -48.553727835932492 $375 48.553727835932492 $271 $378 forward 7 unknown #
coedge $-1 $284 $283 $185 $277 reversed $268 $-1 #
edge $-1 $379 -48.553727835932492 $278 48.553727835932492 $276 $380 forward 7 unknown #
vertex $-1 $187 $381 #
vertex $-1 $290 $382 #
straight-curve $-1 48.553727835932492 0 -12.657103252704839 0 -1 0 I I #
coedge $-1 $270 $272 $188 $282 reversed $181 $-1 #
edge $-1 $285 -29.900098933823056 $288 29.900098933823056 $281 $383 forward 7 unknown #
coedge $-1 $276 $189 $194 $291 forward $268 $-1 #
coedge $-1 $189 $276 $270 $374 reversed $268 $-1 #
vertex $-1 $190 $384 #
straight-curve $-1 0 29.900098933823056 12.657103252704839 -1 0 0 I I #
coedge $-1 $191 $271 $193 $290 reversed $114 $-1 #
vertex $-1 $282 $385 #
straight-curve $-1 0 -29.900098933823056 12.657103252704839 1 0 0 I I #
edge $-1 $196 -12.657103252704839 $279 12.657103252704839 $193 $386 forward 7 unknown #
edge $-1 $197 -12.657103252704839 $278 12.657103252704839 $194 $387 forward 7 unknown #
point $-1 48.553727835932492 -29.900098933823056 12.657103252704839 #
point $-1 48.553727835932492 29.900098933823056 12.657103252704839 #
face $-1 $-1 $307 $28 $-1 $388 reversed single #
loop $-1 $-1 $303 $199 #
plane-surface $-1 -48.553727835932492 0 0 1 0 0 0 0 -1 forward_v I I I I #
coedge $-1 $389 $202 $300 $390 forward $122 $-1 #
coedge $-1 $202 $389 $391 $392 forward $122 $-1 #
edge $-1 $393 -29.900098933823056 $301 29.900098933823056 $202 $394 forward 7 unknown #
coedge $-1 $204 $310 $297 $390 reversed $200 $-1 #
vertex $-1 $390 $395 #
straight-curve $-1 -39.948411825721379 -29.900098933823056 -5.3833151227197593 0 0 1 I I #
coedge $-1 $396 $397 $206 $304 forward $295 $-1 #
edge $-1 $311 -29.900098933823056 $308 29.900098933823056 $303 $398 forward 7 unknown #
coedge $-1 $391 $207 $211 $313 forward $307 $-1 #
coedge $-1 $207 $391 $396 $399 reversed $307 $-1 #
loop $-1 $-1 $305 $294 #
vertex $-1 $399 $400 #
straight-curve $-1 -22.125534915413468 29.900098933823056 -8.8761572381741978 1 0 0 I I #
coedge $-1 $300 $209 $397 $401 forward $200 $-1 #
vertex $-1 $401 $402 #
straight-curve $-1 -22.125534915413468 -29.900098933823056 -8.8761572381741978 -1 0 0 I I #
edge $-1 $213 3.4928421154544385 $393 7.2737881299850802 $305 $403 forward 7 unknown #
point $-1 -39.948411825721379 -29.900098933823056 -8.8761572381741978 #
point $-1 -39.948411825721379 29.900098933823056 -8.8761572381741978 #
plane-surface $-1 0 -29.900098933823056 0 0 1 0 0 0 1 forward_v I I I I #
coedge $-1 $327 $326 $319 $404 forward $216 $-1 #
coedge $-1 $319 $218 $220 $323 reversed $130 $-1 #
coedge $-1 $218 $318 $317 $404 reversed $130 $-1 #
coedge $-1 $226 $221 $218 $321 forward $227 $-1 #
edge $-1 $324 -39.219571292452386 $405 -29.564490004896971 $320 $406 forward 7 unknown #
coedge $-1 $220 $219 $327 $407 reversed $81 $-1 #
edge $-1 $408 -17.727486537552629 $324 4.1888979916949389e-015 $318 $409 forward 7 unknown #
vertex $-1 $222 $410 #
straight-curve $-1 -15.118364388241016 -29.900098933823056 3.0020219651494218 1 0 0 I I #
coedge $-1 $317 $223 $226 $331 forward $216 $-1 #
coedge $-1 $223 $317 $322 $407 forward $216 $-1 #
vertex $-1 $224 $411 #
straight-curve $-1 -39.948411825721379 -41.394305288328674 12.657103252704843 0 -1 0 I I #
straight-curve $-1 -39.948411825721379 -29.900098933823053 3.0020219651494244 0 0.83867056331134215 0.54463904215088732 I I #
edge $-1 $228 -39.948411825721379 $405 -20.525045727242684 $226 $412 forward 7 unknown #
point $-1 -39.948411825721379 -29.900098933823056 12.657103252704839 #
point $-1 -39.948411825721379 -29.900098933823056 3.0020219651494222 #
edge $-1 $413 1 $413 0 $231 $-1 forward 7 unknown #
vertex $-1 $232 $414 #
ellipse-curve $-1 -34.398878654727469 -20.979796413187426 5.5404887695622822 0 -0.54463904215088732 0.83867056331134215 1.5 0 0 1 I I #
point $-1 -32.898878654727469 -22.466338373551316 7.8295626089271391 #
edge $-1 $415 1 $415 0 $235 $-1 forward 7 unknown #
vertex $-1 $236 $416 #
ellipse-curve $-1 -26.074578898236599 -20.979796413187426 5.5404887695622822 0 -0.54463904215088732 0.83867056331134215 1.5 0 0 1 I I #
point $-1 -24.574578898236599 -22.466338373551316 7.8295626089271391 #
plane-surface $-1 0 0 12.657103252704839 0 0 1 1 0 0 forward_v I I I I #
coedge $-1 $353 $352 $345 $417 forward $240 $-1 #
coedge $-1 $345 $242 $244 $349 reversed $152 $-1 #
coedge $-1 $242 $344 $343 $417 reversed $152 $-1 #
coedge $-1 $250 $245 $242 $347 forward $251 $-1 #
edge $-1 $350 -5.8683387334124077 $418 -3.0248515090823496 $346 $419 forward 7 unknown #
coedge $-1 $244 $243 $353 $420 reversed $95 $-1 #
edge $-1 $421 -59.800197867646112 $350 -55.376516973418283 $344 $422 forward 7 unknown #
vertex $-1 $246 $423 #
straight-curve $-1 -10.745620502699721 27.056611709492991 12.657103252704839 1 0 0 I I #
coedge $-1 $343 $247 $250 $357 reversed $240 $-1 #
coedge $-1 $247 $343 $348 $420 forward $240 $-1 #
vertex $-1 $248 $424 #
straight-curve $-1 -31.827924668601213 29.900098933823056 58.74872258671148 0 0 1 I I #
straight-curve $-1 -31.827924668601213 -8.5387267217384135 55.077976818360959 0 0.64278759981090561 -0.7660444514056185 I I #
edge $-1 $418 11.15455734219767 $252 31.827924668601213 $352 $425 forward 7 unknown #
point $-1 -31.827924668601213 29.900098933823056 12.657103252704839 #
point $-1 -31.827924668601213 27.056611709492998 12.657103252704836 #
edge $-1 $426 1 $426 0 $255 $-1 forward 7 unknown #
vertex $-1 $256 $427 #
ellipse-curve $-1 -27.693251203320504 27.712310870252391 10.319947550987781 0 0.7660444514056185 0.64278759981090561 0.25 0 0 1 I I #
point $-1 -27.443251203320504 28.478355321658011 10.962735150798686 #
edge $-1 $428 1 $428 0 $259 $-1 forward 7 unknown #
vertex $-1 $260 $429 #
ellipse-curve $-1 -21.491241005399441 27.712310870252391 10.319947550987781 0 0.7660444514056185 0.64278759981090561 0.25 0 0 1 I I #
point $-1 -21.241241005399441 28.478355321658011 10.962735150798686 #
edge $-1 $430 1 $430 0 $263 $-1 forward 7 unknown #
vertex $-1 $264 $431 #
ellipse-curve $-1 -15.289230807478376 27.712310870252391 10.319947550987781 0 0.7660444514056185 0.64278759981090561 0.25 0 0 1 I I #
point $-1 -15.039230807478376 28.478355321658011 10.962735150798686 #
plane-surface $-1 48.553727835932492 0 0 -1 0 0 0 0 1 forward_v I I I I #
coedge $-1 $272 $270 $274 $377 reversed $181 $-1 #
edge $-1 $285 -12.657103252704839 $379 12.657103252704839 $284 $432 forward 7 unknown #
vertex $-1 $377 $433 #
straight-curve $-1 -48.553727835932492 -29.900098933823056 0 0 0 -1 I I #
edge $-1 $375 -29.900098933823056 $379 29.900098933823056 $373 $434 forward 7 unknown #
straight-curve $-1 0 -29.900098933823056 -12.657103252704839 -1 0 0 I I #
vertex $-1 $277 $435 #
straight-curve $-1 0 29.900098933823056 -12.657103252704839 1 0 0 I I #
point $-1 48.553727835932492 29.900098933823056 -12.657103252704839 #
point $-1 48.553727835932492 -29.900098933823056 -12.657103252704839 #
straight-curve $-1 -48.553727835932492 0 12.657103252704839 0 -1 0 I I #
point $-1 -48.553727835932492 29.900098933823056 12.657103252704839 #
point $-1 -48.553727835932492 -29.900098933823056 12.657103252704839 #
straight-curve $-1 48.553727835932492 -29.900098933823056 0 0 0 -1 I I #
straight-curve $-1 48.553727835932492 29.900098933823056 0 0 0 -1 I I #
plane-surface $-1 0 29.900098933823056 0 0 -1 0 0 0 -1 forward_v I I I I #
coedge $-1 $298 $297 $436 $437 forward $122 $-1 #
edge $-1 $301 39.948411825721379 $438 48.553727835932492 $300 $439 forward 7 unknown #
coedge $-1 $306 $305 $298 $392 reversed $307 $-1 #
edge $-1 $440 -48.553727835932492 $393 -39.948411825721379 $391 $441 forward 7 unknown #
vertex $-1 $313 $442 #
straight-curve $-1 -39.948411825721379 0 -12.657103252704839 0 -1 0 I I #
point $-1 -39.948411825721379 -29.900098933823056 -12.657103252704839 #
coedge $-1 $436 $303 $306 $399 forward $295 $-1 #
coedge $-1 $303 $436 $310 $401 reversed $295 $-1 #
straight-curve $-1 -48.553727835932492 0 -8.8761572381741978 0 1 0 I I #
edge $-1 $308 8.8761572381741978 $440 12.657103252704839 $306 $443 forward 7 unknown #
point $-1 -48.553727835932492 29.900098933823056 -8.8761572381741978 #
edge $-1 $311 8.8761572381741978 $438 12.657103252704839 $397 $444 forward 7 unknown #
point $-1 -48.553727835932492 -29.900098933823056 -8.8761572381741978 #
straight-curve $-1 -39.948411825721379 29.900098933823056 -5.3833151227197593 0 0 -1 I I #
edge $-1 $405 11.494206354505618 $408 26.361727475049122 $317 $445 forward 7 unknown #
vertex $-1 $321 $446 #
straight-curve $-1 -20.525045727242684 -29.900098933823056 42.22159325760181 0 0 1 I I #
edge $-1 $408 5.4066813390016684 $328 24.830047437480363 $327 $447 forward 7 unknown #
vertex $-1 $407 $448 #
straight-curve $-1 -20.525045727242684 -29.900098933823053 3.0020219651494244 0 -0.83867056331134215 -0.54463904215088732 I I #
point $-1 -20.525045727242684 -29.900098933823056 3.0020219651494222 #
point $-1 -39.948411825721379 -15.032577813279552 12.657103252704839 #
straight-curve $-1 0 -29.900098933823056 12.657103252704839 1 0 0 I I #
vertex $-1 $334 $449 #
point $-1 -32.898878654727469 -20.979796413187426 5.5404887695622822 #
vertex $-1 $338 $450 #
point $-1 -24.574578898236599 -20.979796413187426 5.5404887695622822 #
edge $-1 $418 46.091619334006637 $421 49.480355537818916 $343 $451 forward 7 unknown #
vertex $-1 $357 $452 #
straight-curve $-1 -11.15455734219767 32.924950442905406 12.657103252704843 0 1 0 I I #
edge $-1 $421 0.40893683949794912 $354 21.08230416590149 $353 $453 forward 7 unknown #
vertex $-1 $420 $454 #
straight-curve $-1 -11.15455734219767 -8.5387267217384135 55.077976818360959 0 -0.64278759981090561 0.7660444514056185 I I #
point $-1 -11.15455734219767 27.056611709492998 12.657103252704836 #
point $-1 -31.827924668601213 29.90009893382306 9.2683670488925642 #
straight-curve $-1 0 29.900098933823056 12.657103252704839 -1 0 0 I I #
vertex $-1 $360 $455 #
point $-1 -27.443251203320504 27.712310870252391 10.319947550987781 #
vertex $-1 $364 $456 #
point $-1 -21.241241005399441 27.712310870252391 10.319947550987781 #
vertex $-1 $368 $457 #
point $-1 -15.039230807478376 27.712310870252391 10.319947550987781 #
straight-curve $-1 -48.553727835932492 29.900098933823056 0 0 0 -1 I I #
point $-1 -48.553727835932492 -29.900098933823056 -12.657103252704839 #
straight-curve $-1 -48.553727835932492 0 -12.657103252704839 0 1 0 I I #
point $-1 -48.553727835932492 29.900098933823056 -12.657103252704839 #
coedge $-1 $397 $396 $389 $437 reversed $295 $-1 #
edge $-1 $438 -29.900098933823056 $440 29.900098933823056 $436 $458 forward 7 unknown #
vertex $-1 $437 $459 #
straight-curve $-1 0 -29.900098933823056 -12.657103252704839 -1 0 0 I I #
vertex $-1 $392 $460 #
straight-curve $-1 0 29.900098933823056 -12.657103252704839 1 0 0 I I #
point $-1 -39.948411825721379 29.900098933823056 -12.657103252704839 #
straight-curve $-1 -48.553727835932492 29.900098933823056 0 0 0 -1 I I #
straight-curve $-1 -48.553727835932492 -29.900098933823056 0 0 0 -1 I I #
straight-curve $-1 -20.525045727242684 -41.394305288328674 12.657103252704843 0 1 0 I I #
point $-1 -20.525045727242684 -29.900098933823056 12.657103252704839 #
straight-curve $-1 -15.118364388241016 -15.032577813279554 12.657103252704839 -1 0 0 I I #
point $-1 -20.525045727242684 -15.032577813279552 12.657103252704839 #
point $-1 -34.398878654727469 -20.162837849961097 4.2824829245952696 #
point $-1 -26.074578898236599 -20.162837849961097 4.2824829245952696 #
straight-curve $-1 -11.15455734219767 29.900098933823056 58.74872258671148 0 0 -1 I I #
point $-1 -11.15455734219767 29.900098933823056 12.657103252704839 #
straight-curve $-1 -10.745620502699721 29.900098933823056 9.2683670488925607 -1 0 0 I I #
point $-1 -11.15455734219767 29.90009893382306 9.2683670488925642 #
point $-1 -27.693251203320504 27.52079975740099 10.159250651035055 #
point $-1 -21.491241005399441 27.52079975740099 10.159250651035055 #
point $-1 -15.289230807478376 27.52079975740099 10.159250651035055 #
straight-curve $-1 -48.553727835932492 0 -12.657103252704839 0 1 0 I I #
point $-1 -48.553727835932492 -29.900098933823056 -12.657103252704839 #
point $-1 -48.553727835932492 29.900098933823056 -12.657103252704839 #
End-of-ACIS-data 