500 0 8 0           
7 Unknown 11 ACIS 5.0 NT 24 Fri Mar 26 01:52:57 1999 
-1 9.9999999999999995e-007 1e-010 
body $-1 $8 $-1 $9 #
body $-1 $10 $-1 $11 #
body $-1 $12 $-1 $13 #
body $-1 $14 $-1 $15 #
body $-1 $16 $-1 $17 #
body $-1 $18 $-1 $19 #
body $-1 $20 $-1 $21 #
body $-1 $22 $-1 $23 #
lump $-1 $-1 $24 $0 #
transform $-1 1 0 0 0 1 0 0 0 1 59.851680043946658 31.004620570511641 14.289641389013635 1 rotate no_reflect no_shear #
lump $-1 $-1 $25 $1 #
transform $-1 1 0 0 0 1 0 0 0 1 59.851680043946658 31.004620570511641 14.289641389013635 1 rotate no_reflect no_shear #
lump $-1 $-1 $26 $2 #
transform $-1 1 0 0 0 1 0 0 0 1 59.851680043946658 31.004620570511641 14.289641389013635 1 rotate no_reflect no_shear #
lump $-1 $-1 $27 $3 #
transform $-1 1 0 0 0 1 0 0 0 1 59.851680043946658 31.004620570511641 14.289641389013635 1 rotate no_reflect no_shear #
lump $-1 $-1 $28 $4 #
transform $-1 1 0 0 0 1 0 0 0 1 59.851680043946658 31.004620570511641 14.289641389013635 1 rotate no_reflect no_shear #
lump $-1 $-1 $29 $5 #
transform $-1 1 0 0 0 1 0 0 0 1 59.851680043946658 31.004620570511641 14.289641389013635 1 rotate no_reflect no_shear #
lump $-1 $-1 $30 $6 #
transform $-1 1 0 0 0 1 0 0 0 1 59.851680043946658 31.004620570511641 14.289641389013635 1 rotate no_reflect no_shear #
lump $-1 $-1 $31 $7 #
transform $-1 1 0 0 0 1 0 0 0 1 59.851680043946658 31.004620570511641 14.289641389013635 1 rotate no_reflect no_shear #
shell $-1 $-1 $-1 $32 $-1 $8 #
shell $-1 $-1 $-1 $33 $-1 $10 #
shell $-1 $-1 $-1 $34 $-1 $12 #
shell $-1 $-1 $-1 $35 $-1 $14 #
shell $-1 $-1 $-1 $36 $-1 $16 #
shell $-1 $-1 $-1 $37 $-1 $18 #
shell $-1 $-1 $-1 $38 $-1 $20 #
shell $-1 $-1 $-1 $39 $-1 $22 #
face $-1 $40 $41 $24 $-1 $42 forward single #
face $-1 $43 $44 $25 $-1 $45 reversed single #
face $-1 $46 $47 $26 $-1 $48 forward single #
face $-1 $49 $50 $27 $-1 $51 forward single #
face $-1 $52 $53 $28 $-1 $54 forward single #
face $-1 $55 $56 $29 $-1 $57 reversed single #
face $-1 $58 $59 $30 $-1 $60 forward single #
face $-1 $61 $62 $31 $-1 $63 forward single #
face $-1 $64 $65 $24 $-1 $66 reversed single #
loop $-1 $-1 $67 $32 #
plane-surface $-1 0 0 14.289641389013635 0 0 1 1 0 0 forward_v I I I I #
face $-1 $68 $69 $25 $-1 $70 reversed single #
loop $-1 $-1 $71 $33 #
plane-surface $-1 -160.24336599198011 -25.399218102742054 71.664605482247183 0 1 0 -0.83867057594974714 0 0.54463902268945019 forward_v I I I I #
face $-1 $72 $73 $26 $-1 $74 forward single #
loop $-1 $75 $76 $34 #
cone-surface $-1 -56.893110183514253 -22.976718954677725 10.107243398828905 0.83867057594974714 0 -0.54463902268945019 0.2723195113447251 0 0.41933528797487357 1 I I 0 1 0.5 forward I I I I #
face $-1 $77 $78 $27 $-1 $79 forward single #
loop $-1 $80 $81 $35 #
cone-surface $-1 -56.893110183514253 -19.34297023258123 10.107243398828905 0.83867057594974714 0 -0.54463902268945019 0.2723195113447251 0 0.41933528797487357 1 I I 0 1 0.5 forward I I I I #
face $-1 $82 $83 $28 $-1 $84 forward single #
loop $-1 $85 $86 $36 #
cone-surface $-1 -56.893110183514253 -15.709221510484735 10.107243398828905 0.83867057594974714 0 -0.54463902268945019 0.2723195113447251 0 0.41933528797487357 1 I I 0 1 0.5 forward I I I I #
face $-1 $87 $88 $29 $-1 $89 reversed single #
loop $-1 $-1 $90 $37 #
plane-surface $-1 62.806132139807858 21.232681775995761 172.7870745992245 0 1 0 0.71933980857756763 0 0.69465836192734942 forward_v I I I I #
face $-1 $91 $92 $30 $-1 $93 forward single #
loop $-1 $94 $95 $38 #
cone-surface $-1 53.517370855856178 24.024664288714582 7.8097171331708823 -0.71933980857756763 0 -0.69465836192734942 0.69465836192734942 0 -0.71933980857756763 1 I I 0 1 1 forward I I I I #
face $-1 $96 $97 $31 $-1 $98 forward single #
loop $-1 $99 $100 $39 #
cone-surface $-1 53.517370855856178 28.212638057792816 7.8097171331708823 -0.71933980857756763 0 -0.69465836192734942 0.69465836192734942 0 -0.71933980857756763 1 I I 0 1 1 forward I I I I #
face $-1 $101 $102 $24 $-1 $103 reversed single #
loop $-1 $-1 $104 $40 #
plane-surface $-1 0 0 -14.289641389013635 0 0 1 1 0 0 forward_v I I I I #
coedge $-1 $105 $106 $107 $108 forward $41 $-1 #
face $-1 $109 $110 $25 $-1 $111 reversed single #
loop $-1 $-1 $112 $43 #
plane-surface $-1 -59.851680043946658 -19.34297023258123 6.4694844313336262 -0.83867057594974714 0 0.54463902268945019 0.54463902268945019 0 0.83867057594974714 forward_v I I I I #
coedge $-1 $113 $114 $115 $116 reversed $44 $-1 #
face $-1 $-1 $117 $26 $-1 $118 forward single #
loop $-1 $119 $120 $46 #
cone-surface $-1 -56.264107251551941 -22.976718954677725 9.6987641318118172 0.83867057594974714 0 -0.54463902268945019 0.13615975567236255 0 0.20966764398743679 1 I I -0.70710678118654746 0.70710678118654746 0.25 forward I I I I #
loop $-1 $-1 $121 $34 #
coedge $-1 $76 $76 $122 $123 reversed $47 $-1 #
face $-1 $-1 $124 $27 $-1 $125 forward single #
loop $-1 $126 $127 $49 #
cone-surface $-1 -56.264107251551941 -19.34297023258123 9.6987641318118172 0.83867057594974714 0 -0.54463902268945019 0.13615975567236255 0 0.20966764398743679 1 I I -0.70710678118654746 0.70710678118654746 0.25 forward I I I I #
loop $-1 $-1 $128 $35 #
coedge $-1 $81 $81 $129 $130 reversed $50 $-1 #
face $-1 $-1 $131 $28 $-1 $132 forward single #
loop $-1 $133 $134 $52 #
cone-surface $-1 -56.264107251551941 -15.709221510484735 9.6987641318118172 0.83867057594974714 0 -0.54463902268945019 0.13615975567236255 0 0.20966764398743679 1 I I -0.70710678118654746 0.70710678118654746 0.25 forward I I I I #
loop $-1 $-1 $135 $36 #
coedge $-1 $86 $86 $136 $137 reversed $53 $-1 #
face $-1 $138 $139 $29 $-1 $140 reversed single #
loop $-1 $-1 $141 $55 #
plane-surface $-1 -23.301259991908964 26.118651173253703 89.634134563368875 0.71933980857756763 0 0.69465836192734942 0.69465836192734942 0 -0.71933980857756763 forward_v I I I I #
coedge $-1 $142 $143 $144 $145 reversed $56 $-1 #
face $-1 $-1 $146 $30 $-1 $147 forward single #
loop $-1 $148 $149 $58 #
cone-surface $-1 52.020196993882934 24.024664288714582 6.3639131750452584 -0.71933980857756763 0 -0.69465836192734942 0.34732918096367471 0 -0.35966990428878381 1 I I -0.70710678118654746 0.70710678118654746 0.5 forward I I I I #
loop $-1 $-1 $150 $38 #
coedge $-1 $95 $95 $151 $152 reversed $59 $-1 #
face $-1 $-1 $153 $31 $-1 $154 forward single #
loop $-1 $155 $156 $61 #
cone-surface $-1 52.020196993882934 28.212638057792816 6.3639131750452584 -0.71933980857756763 0 -0.69465836192734942 0.34732918096367471 0 -0.35966990428878381 1 I I -0.70710678118654746 0.70710678118654746 0.5 forward I I I I #
loop $-1 $-1 $157 $39 #
coedge $-1 $100 $100 $158 $159 reversed $62 $-1 #
face $-1 $160 $161 $24 $-1 $162 reversed single #
loop $-1 $-1 $163 $64 #
plane-surface $-1 0 -31.004620570511641 0 0 1 0 0 0 1 forward_v I I I I #
coedge $-1 $164 $165 $166 $167 forward $65 $-1 #
coedge $-1 $168 $67 $169 $170 forward $41 $-1 #
coedge $-1 $67 $168 $171 $172 forward $41 $-1 #
coedge $-1 $173 $174 $67 $108 reversed $175 $-1 #
edge $-1 $176 -31.004620570511641 $177 31.004620570511641 $107 $178 forward 7 unknown #
face $-1 $179 $180 $25 $-1 $181 reversed single #
loop $-1 $-1 $182 $68 #
plane-surface $-1 -160.24336599198011 -13.286722362420406 71.664605482247183 0 -1 0 0.83867057594974714 0 -0.54463902268945019 forward_v I I I I #
coedge $-1 $183 $184 $185 $186 reversed $69 $-1 #
coedge $-1 $114 $71 $187 $188 reversed $44 $-1 #
coedge $-1 $71 $113 $183 $189 reversed $44 $-1 #
coedge $-1 $185 $190 $71 $116 forward $191 $-1 #
edge $-1 $192 20.270002952043399 $193 25.348472096958474 $115 $194 forward 7 unknown #
loop $-1 $-1 $122 $72 #
plane-surface $-1 -59.851680043946658 -19.34297023258123 6.4694844313336262 -0.83867057594974714 0 0.54463902268945019 0.54463902268945019 0 0.83867057594974714 forward_v I I I I #
loop $-1 $-1 $195 $46 #
coedge $-1 $120 $120 $121 $196 reversed $73 $-1 #
coedge $-1 $121 $121 $120 $196 forward $75 $-1 #
coedge $-1 $122 $122 $76 $123 forward $117 $-1 #
edge $-1 $197 0 $197 6.2831853071796004 $122 $198 forward 7 unknown #
loop $-1 $-1 $129 $77 #
plane-surface $-1 -59.851680043946658 -19.34297023258123 6.4694844313336262 -0.83867057594974714 0 0.54463902268945019 0.54463902268945019 0 0.83867057594974714 forward_v I I I I #
loop $-1 $-1 $199 $49 #
coedge $-1 $127 $127 $128 $200 reversed $78 $-1 #
coedge $-1 $128 $128 $127 $200 forward $80 $-1 #
coedge $-1 $129 $129 $81 $130 forward $124 $-1 #
edge $-1 $201 0 $201 6.2831853071796004 $129 $202 forward 7 unknown #
loop $-1 $-1 $136 $82 #
plane-surface $-1 -59.851680043946658 -19.34297023258123 6.4694844313336262 -0.83867057594974714 0 0.54463902268945019 0.54463902268945019 0 0.83867057594974714 forward_v I I I I #
loop $-1 $-1 $203 $52 #
coedge $-1 $134 $134 $135 $204 reversed $83 $-1 #
coedge $-1 $135 $135 $134 $204 forward $85 $-1 #
coedge $-1 $136 $136 $86 $137 forward $131 $-1 #
edge $-1 $205 0 $205 6.2831853071796004 $136 $206 forward 7 unknown #
face $-1 $207 $208 $29 $-1 $209 forward single #
loop $-1 $-1 $210 $87 #
plane-surface $-1 0 31.004620570511641 0 0 -1 0 0 0 -1 forward_v I I I I #
coedge $-1 $211 $212 $213 $214 reversed $88 $-1 #
coedge $-1 $143 $90 $215 $216 reversed $56 $-1 #
coedge $-1 $90 $142 $211 $217 reversed $56 $-1 #
coedge $-1 $213 $218 $90 $145 forward $219 $-1 #
edge $-1 $220 72.103895910598609 $221 82.866794867960195 $144 $222 forward 7 unknown #
loop $-1 $-1 $151 $91 #
plane-surface $-1 -23.301259991908964 26.118651173253703 89.634134563368875 0.71933980857756763 0 0.69465836192734942 0.69465836192734942 0 -0.71933980857756763 forward_v I I I I #
loop $-1 $-1 $223 $58 #
coedge $-1 $149 $149 $150 $224 reversed $92 $-1 #
coedge $-1 $150 $150 $149 $224 forward $94 $-1 #
coedge $-1 $151 $151 $95 $152 forward $146 $-1 #
edge $-1 $225 0 $225 6.2831853071796004 $151 $226 forward 7 unknown #
loop $-1 $-1 $158 $96 #
plane-surface $-1 -23.301259991908964 26.118651173253703 89.634134563368875 0.71933980857756763 0 0.69465836192734942 0.69465836192734942 0 -0.71933980857756763 forward_v I I I I #
loop $-1 $-1 $227 $61 #
coedge $-1 $156 $156 $157 $228 reversed $97 $-1 #
coedge $-1 $157 $157 $156 $228 forward $99 $-1 #
coedge $-1 $158 $158 $100 $159 forward $153 $-1 #
edge $-1 $229 0 $229 6.2831853071796004 $158 $230 forward 7 unknown #
face $-1 $231 $232 $24 $-1 $233 reversed single #
loop $-1 $-1 $234 $101 #
plane-surface $-1 -59.851680043946658 0 0 1 0 0 0 0 -1 forward_v I I I I #
coedge $-1 $235 $171 $236 $237 forward $102 $-1 #
coedge $-1 $238 $104 $235 $239 forward $65 $-1 #
coedge $-1 $104 $238 $240 $241 forward $65 $-1 #
coedge $-1 $174 $173 $104 $167 reversed $175 $-1 #
edge $-1 $242 -31.004620570511641 $243 31.004620570511641 $166 $244 forward 7 unknown #
coedge $-1 $106 $105 $245 $246 forward $41 $-1 #
coedge $-1 $247 $248 $105 $170 reversed $232 $-1 #
edge $-1 $177 -59.851680043946658 $249 59.851680043946658 $169 $250 forward 7 unknown #
coedge $-1 $163 $251 $106 $172 reversed $102 $-1 #
edge $-1 $252 -59.851680043946658 $176 59.851680043946658 $171 $253 forward 7 unknown #
coedge $-1 $166 $107 $251 $254 forward $175 $-1 #
coedge $-1 $107 $166 $247 $255 reversed $175 $-1 #
loop $-1 $-1 $173 $231 #
vertex $-1 $108 $256 #
vertex $-1 $108 $257 #
straight-curve $-1 59.851680043946658 0 14.289641389013635 0 1 0 I I #
face $-1 $-1 $191 $25 $-1 $258 forward single #
loop $-1 $-1 $259 $109 #
plane-surface $-1 -59.851680043946658 0 0 1 0 0 0 0 -1 forward_v I I I I #
coedge $-1 $260 $261 $262 $263 reversed $110 $-1 #
coedge $-1 $264 $112 $114 $189 forward $69 $-1 #
coedge $-1 $112 $264 $260 $265 forward $69 $-1 #
coedge $-1 $262 $115 $112 $186 forward $191 $-1 #
edge $-1 $193 -15.727732986451439 $266 -3.6152372461297908 $185 $267 forward 7 unknown #
coedge $-1 $268 $269 $113 $188 forward $180 $-1 #
edge $-1 $270 -29.362818309789965 $192 -21.542661352109956 $187 $271 forward 7 unknown #
edge $-1 $193 -9.3244680115599898 $270 0 $114 $272 forward 7 unknown #
coedge $-1 $115 $262 $268 $273 forward $191 $-1 #
loop $-1 $-1 $262 $179 #
vertex $-1 $188 $274 #
vertex $-1 $116 $275 #
straight-curve $-1 -80.121682995990056 -25.399218102742054 14.289641389013635 1 0 0 I I #
coedge $-1 $195 $195 $-1 $276 reversed $119 $-1 #
edge $-1 $277 0 $277 6.2831853071796004 $120 $278 forward 7 unknown #
vertex $-1 $123 $279 #
ellipse-curve $-1 -57.31244547148912 -22.976718954677725 10.379562910173627 -0.83867057594974714 0 0.54463902268945019 0.2723195113447251 0 0.41933528797487357 1 I I #
coedge $-1 $199 $199 $-1 $280 reversed $126 $-1 #
edge $-1 $281 0 $281 6.2831853071796004 $127 $282 forward 7 unknown #
vertex $-1 $130 $283 #
ellipse-curve $-1 -57.31244547148912 -19.34297023258123 10.379562910173627 -0.83867057594974714 0 0.54463902268945019 0.2723195113447251 0 0.41933528797487357 1 I I #
coedge $-1 $203 $203 $-1 $284 reversed $133 $-1 #
edge $-1 $285 0 $285 6.2831853071796004 $134 $286 forward 7 unknown #
vertex $-1 $137 $287 #
ellipse-curve $-1 -57.31244547148912 -15.709221510484735 10.379562910173627 -0.83867057594974714 0 0.54463902268945019 0.2723195113447251 0 0.41933528797487357 1 I I #
face $-1 $-1 $219 $29 $-1 $288 reversed single #
loop $-1 $-1 $289 $138 #
plane-surface $-1 0 0 14.289641389013635 0 0 1 1 0 0 forward_v I I I I #
coedge $-1 $290 $291 $212 $292 forward $139 $-1 #
coedge $-1 $293 $141 $143 $217 forward $88 $-1 #
coedge $-1 $141 $293 $210 $292 reversed $88 $-1 #
coedge $-1 $294 $144 $141 $214 forward $219 $-1 #
edge $-1 $221 8.17335618936891 $295 17.945294983884789 $213 $296 forward 7 unknown #
coedge $-1 $297 $289 $142 $216 forward $208 $-1 #
edge $-1 $298 18.055003513230631 $220 28.448613974042729 $215 $299 forward 7 unknown #
edge $-1 $221 -119.70336008789332 $298 -104.74116999494643 $143 $300 forward 7 unknown #
coedge $-1 $144 $294 $297 $301 reversed $219 $-1 #
loop $-1 $-1 $213 $207 #
vertex $-1 $301 $302 #
vertex $-1 $145 $303 #
straight-curve $-1 59.851680043946658 21.232681775995761 86.393537299612248 0 0 -1 I I #
coedge $-1 $223 $223 $-1 $304 reversed $148 $-1 #
edge $-1 $305 0 $305 6.2831853071796004 $149 $306 forward 7 unknown #
vertex $-1 $152 $307 #
ellipse-curve $-1 54.65487481354063 24.024664288714582 8.9081919103328246 0.71933980857756763 0 0.69465836192734942 0.69465836192734942 0 -0.71933980857756763 1 I I #
coedge $-1 $227 $227 $-1 $308 reversed $155 $-1 #
edge $-1 $309 0 $309 6.2831853071796004 $156 $310 forward 7 unknown #
vertex $-1 $159 $311 #
ellipse-curve $-1 54.65487481354063 28.212638057792816 8.9081919103328246 0.71933980857756763 0 0.69465836192734942 0.69465836192734942 0 -0.71933980857756763 1 I I #
face $-1 $-1 $175 $24 $-1 $312 reversed single #
loop $-1 $-1 $247 $160 #
plane-surface $-1 0 31.004620570511641 0 0 -1 0 0 0 -1 forward_v I I I I #
coedge $-1 $313 $245 $248 $314 forward $161 $-1 #
coedge $-1 $251 $163 $164 $239 reversed $102 $-1 #
coedge $-1 $245 $313 $163 $237 reversed $161 $-1 #
edge $-1 $252 -14.289641389013635 $315 14.289641389013635 $236 $316 forward 7 unknown #
coedge $-1 $165 $164 $313 $317 forward $65 $-1 #
edge $-1 $243 -59.851680043946658 $315 59.851680043946658 $235 $318 forward 7 unknown #
coedge $-1 $248 $247 $165 $241 reversed $232 $-1 #
edge $-1 $319 -59.851680043946658 $242 59.851680043946658 $240 $320 forward 7 unknown #
vertex $-1 $167 $321 #
vertex $-1 $254 $322 #
straight-curve $-1 59.851680043946658 0 -14.289641389013635 0 -1 0 I I #
coedge $-1 $234 $236 $168 $246 reversed $161 $-1 #
edge $-1 $249 -31.004620570511641 $252 31.004620570511641 $245 $323 forward 7 unknown #
coedge $-1 $240 $169 $174 $255 forward $232 $-1 #
coedge $-1 $169 $240 $234 $314 reversed $232 $-1 #
vertex $-1 $170 $324 #
straight-curve $-1 0 31.004620570511641 14.289641389013635 -1 0 0 I I #
coedge $-1 $171 $235 $173 $254 reversed $102 $-1 #
vertex $-1 $246 $325 #
straight-curve $-1 0 -31.004620570511641 14.289641389013635 1 0 0 I I #
edge $-1 $176 -14.289641389013635 $243 14.289641389013635 $173 $326 forward 7 unknown #
edge $-1 $177 -14.289641389013635 $242 14.289641389013635 $174 $327 forward 7 unknown #
point $-1 59.851680043946658 -31.004620570511641 14.289641389013635 #
point $-1 59.851680043946658 31.004620570511641 14.289641389013635 #
plane-surface $-1 0 0 14.289641389013635 0 0 1 1 0 0 forward_v I I I I #
coedge $-1 $269 $268 $261 $328 forward $180 $-1 #
coedge $-1 $261 $182 $184 $265 reversed $110 $-1 #
coedge $-1 $182 $260 $259 $328 reversed $110 $-1 #
coedge $-1 $190 $185 $182 $263 forward $191 $-1 #
edge $-1 $266 -25.348472096958474 $329 -20.270002952043399 $262 $330 forward 7 unknown #
coedge $-1 $184 $183 $269 $331 reversed $69 $-1 #
edge $-1 $332 0 $266 9.3244680115599898 $260 $333 forward 7 unknown #
vertex $-1 $186 $334 #
straight-curve $-1 -54.773210899031582 -9.671485116290615 14.289641389013635 0 1 0 I I #
coedge $-1 $259 $187 $190 $273 reversed $180 $-1 #
coedge $-1 $187 $259 $264 $331 forward $180 $-1 #
vertex $-1 $188 $335 #
straight-curve $-1 -59.851680043946658 -25.399218102742054 35.832302741123591 0 0 1 I I #
straight-curve $-1 -59.851680043946658 -25.399218102742054 6.4694844313336262 -0.54463902268945019 0 -0.83867057594974714 I I #
edge $-1 $329 13.286722362420406 $192 25.399218102742054 $268 $336 forward 7 unknown #
point $-1 -59.851680043946658 -25.399218102742054 14.289641389013635 #
point $-1 -54.773210899031582 -25.399218102742054 14.289641389013635 #
edge $-1 $337 1 $337 0 $195 $-1 forward 7 unknown #
vertex $-1 $196 $338 #
ellipse-curve $-1 -56.473774895539378 -22.976718954677725 9.8349238874841802 -0.83867057594974714 0 0.54463902268945019 0.2723195113447251 0 0.41933528797487357 1 I I #
point $-1 -57.040125960144401 -22.976718954677725 10.798898198148503 #
edge $-1 $339 1 $339 0 $199 $-1 forward 7 unknown #
vertex $-1 $200 $340 #
ellipse-curve $-1 -56.473774895539378 -19.34297023258123 9.8349238874841802 -0.83867057594974714 0 0.54463902268945019 0.2723195113447251 0 0.41933528797487357 1 I I #
point $-1 -57.040125960144401 -19.34297023258123 10.798898198148503 #
edge $-1 $341 1 $341 0 $203 $-1 forward 7 unknown #
vertex $-1 $204 $342 #
ellipse-curve $-1 -56.473774895539378 -15.709221510484735 9.8349238874841802 -0.83867057594974714 0 0.54463902268945019 0.2723195113447251 0 0.41933528797487357 1 I I #
point $-1 -57.040125960144401 -15.709221510484735 10.798898198148503 #
plane-surface $-1 59.851680043946658 0 0 -1 0 0 0 0 1 forward_v I I I I #
coedge $-1 $215 $343 $293 $344 forward $208 $-1 #
coedge $-1 $291 $210 $343 $345 reversed $139 $-1 #
coedge $-1 $210 $290 $294 $346 forward $139 $-1 #
edge $-1 $295 -79.371451940067075 $347 -64.409261847120192 $210 $348 forward 7 unknown #
coedge $-1 $212 $211 $289 $344 reversed $88 $-1 #
coedge $-1 $218 $213 $291 $346 reversed $219 $-1 #
vertex $-1 $292 $349 #
straight-curve $-1 59.851680043946658 13.059325586626851 3.5267424316520533 0 1 0 I I #
coedge $-1 $343 $215 $218 $301 forward $208 $-1 #
vertex $-1 $216 $350 #
straight-curve $-1 31.403066069903929 21.232681775995761 14.289641389013639 1 0 0 I I #
straight-curve $-1 -23.301259991908964 21.232681775995761 89.634134563368875 -0.69465836192734942 0 0.71933980857756763 I I #
edge $-1 $220 21.232681775995761 $351 31.004620570511641 $218 $352 forward 7 unknown #
point $-1 59.851680043946658 21.232681775995761 14.289641389013635 #
point $-1 59.851680043946658 21.232681775995761 3.5267424316520533 #
edge $-1 $353 1 $353 0 $223 $-1 forward 7 unknown #
vertex $-1 $224 $354 #
ellipse-curve $-1 52.37986689817172 24.024664288714582 6.7112423560089329 0.71933980857756763 0 0.69465836192734942 0.69465836192734942 0 -0.71933980857756763 1 I I #
point $-1 55.349533175467982 24.024664288714582 8.1888521017552645 #
edge $-1 $355 1 $355 0 $227 $-1 forward 7 unknown #
vertex $-1 $228 $356 #
ellipse-curve $-1 52.37986689817172 28.212638057792816 6.7112423560089329 0.71933980857756763 0 0.69465836192734942 0.69465836192734942 0 -0.71933980857756763 1 I I #
point $-1 55.349533175467982 28.212638057792816 8.1888521017552645 #
plane-surface $-1 59.851680043946658 0 0 -1 0 0 0 0 1 forward_v I I I I #
coedge $-1 $236 $234 $238 $317 reversed $161 $-1 #
edge $-1 $249 -14.289641389013635 $319 14.289641389013635 $248 $357 forward 7 unknown #
vertex $-1 $317 $358 #
straight-curve $-1 -59.851680043946658 -31.004620570511641 0 0 0 -1 I I #
edge $-1 $315 -31.004620570511641 $319 31.004620570511641 $313 $359 forward 7 unknown #
straight-curve $-1 0 -31.004620570511641 -14.289641389013635 -1 0 0 I I #
vertex $-1 $241 $360 #
straight-curve $-1 0 31.004620570511641 -14.289641389013635 1 0 0 I I #
point $-1 59.851680043946658 31.004620570511641 -14.289641389013635 #
point $-1 59.851680043946658 -31.004620570511641 -14.289641389013635 #
straight-curve $-1 -59.851680043946658 0 14.289641389013635 0 -1 0 I I #
point $-1 -59.851680043946658 31.004620570511641 14.289641389013635 #
point $-1 -59.851680043946658 -31.004620570511641 14.289641389013635 #
straight-curve $-1 59.851680043946658 -31.004620570511641 0 0 0 -1 I I #
straight-curve $-1 59.851680043946658 31.004620570511641 0 0 0 -1 I I #
edge $-1 $329 21.542661352109956 $332 29.362818309789965 $259 $361 forward 7 unknown #
vertex $-1 $273 $362 #
straight-curve $-1 -80.121682995990056 -13.286722362420406 14.289641389013635 -1 0 0 I I #
edge $-1 $332 3.6152372461297908 $270 15.727732986451439 $269 $363 forward 7 unknown #
vertex $-1 $331 $364 #
straight-curve $-1 -59.851680043946658 -13.286722362420406 6.4694844313336262 0.54463902268945019 0 0.83867057594974714 I I #
point $-1 -54.773210899031582 -13.286722362420406 14.289641389013635 #
point $-1 -59.851680043946658 -25.399218102742054 6.4694844313336262 #
straight-curve $-1 -59.851680043946658 0 14.289641389013635 0 -1 0 I I #
vertex $-1 $276 $365 #
point $-1 -56.201455384194652 -22.976718954677725 10.254259175459053 #
vertex $-1 $280 $366 #
point $-1 -56.201455384194652 -19.34297023258123 10.254259175459053 #
vertex $-1 $284 $367 #
point $-1 -56.201455384194652 -15.709221510484735 10.254259175459053 #
coedge $-1 $289 $297 $290 $345 forward $208 $-1 #
edge $-1 $347 -17.945294983884793 $298 -8.17335618936891 $289 $368 forward 7 unknown #
edge $-1 $351 -59.851680043946658 $347 -49.458069583134559 $290 $369 forward 7 unknown #
edge $-1 $351 -14.289641389013635 $295 -3.5267424316520555 $294 $370 forward 7 unknown #
vertex $-1 $292 $371 #
straight-curve $-1 4.7156372554643262 31.004620570511641 60.621787476743513 -0.69465836192734942 0 0.71933980857756763 I I #
point $-1 59.851680043946658 31.004620570511641 3.5267424316520555 #
point $-1 49.458069583134559 21.232681775995761 14.289641389013639 #
vertex $-1 $301 $372 #
straight-curve $-1 59.851680043946658 0 14.289641389013635 0 1 0 I I #
vertex $-1 $304 $373 #
point $-1 53.074525260099065 24.024664288714582 5.9919025474313656 #
vertex $-1 $308 $374 #
point $-1 53.074525260099065 28.212638057792816 5.9919025474313656 #
straight-curve $-1 -59.851680043946658 31.004620570511641 0 0 0 -1 I I #
point $-1 -59.851680043946658 -31.004620570511641 -14.289641389013635 #
straight-curve $-1 -59.851680043946658 0 -14.289641389013635 0 1 0 I I #
point $-1 -59.851680043946658 31.004620570511641 -14.289641389013635 #
straight-curve $-1 -59.851680043946658 -13.286722362420406 35.832302741123591 0 0 -1 I I #
point $-1 -59.851680043946658 -13.286722362420406 14.289641389013635 #
straight-curve $-1 -59.851680043946658 -9.671485116290615 6.4694844313336262 0 -1 0 I I #
point $-1 -59.851680043946658 -13.286722362420406 6.4694844313336262 #
point $-1 -56.054439607564504 -22.976718954677725 9.5626043761394541 #
point $-1 -56.054439607564504 -19.34297023258123 9.5626043761394541 #
point $-1 -56.054439607564504 -15.709221510484735 9.5626043761394541 #
straight-curve $-1 49.458069583134559 13.059325586626851 14.289641389013646 0 -1 0 I I #
straight-curve $-1 0 31.004620570511641 14.289641389013635 -1 0 0 I I #
straight-curve $-1 59.851680043946658 31.004620570511641 0 0 0 -1 I I #
point $-1 49.458069583134559 31.004620570511644 14.289641389013639 #
point $-1 59.851680043946658 31.004620570511641 14.289641389013635 #
point $-1 51.660527089594147 24.024664288714582 6.016583994081584 #
point $-1 51.660527089594147 28.212638057792816 6.016583994081584 #
End-of-ACIS-data 