500 0 6 0           
7 Unknown 11 ACIS 5.0 NT 24 Fri Mar 26 00:38:58 1999 
-1 9.9999999999999995e-007 1e-010 
body $-1 $6 $-1 $7 #
body $-1 $8 $-1 $9 #
body $-1 $10 $-1 $11 #
body $-1 $12 $-1 $13 #
body $-1 $14 $-1 $15 #
body $-1 $16 $-1 $17 #
lump $-1 $-1 $18 $0 #
transform $-1 1 0 0 0 1 0 0 0 1 50.174871059297459 34.964842853114355 12.197199506592717 1 rotate no_reflect no_shear #
lump $-1 $-1 $19 $1 #
transform $-1 1 0 0 0 1 0 0 0 1 50.174871059297459 34.964842853114355 12.197199506592717 1 rotate no_reflect no_shear #
lump $-1 $-1 $20 $2 #
transform $-1 1 0 0 0 1 0 0 0 1 50.174871059297459 34.964842853114355 12.197199506592717 1 rotate no_reflect no_shear #
lump $-1 $-1 $21 $3 #
transform $-1 1 0 0 0 1 0 0 0 1 50.174871059297459 34.964842853114355 12.197199506592717 1 rotate no_reflect no_shear #
lump $-1 $-1 $22 $4 #
transform $-1 1 0 0 0 1 0 0 0 1 50.174871059297459 34.964842853114355 12.197199506592717 1 rotate no_reflect no_shear #
lump $-1 $-1 $23 $5 #
transform $-1 1 0 0 0 1 0 0 0 1 50.174871059297459 34.964842853114355 12.197199506592717 1 rotate no_reflect no_shear #
shell $-1 $-1 $-1 $24 $-1 $6 #
shell $-1 $-1 $-1 $25 $-1 $8 #
shell $-1 $-1 $-1 $26 $-1 $10 #
shell $-1 $-1 $-1 $27 $-1 $12 #
shell $-1 $-1 $-1 $28 $-1 $14 #
shell $-1 $-1 $-1 $29 $-1 $16 #
face $-1 $30 $31 $18 $-1 $32 forward single #
face $-1 $33 $34 $19 $-1 $35 forward single #
face $-1 $36 $37 $20 $-1 $38 reversed single #
face $-1 $39 $40 $21 $-1 $41 forward single #
face $-1 $42 $43 $22 $-1 $44 reversed single #
face $-1 $45 $46 $23 $-1 $47 forward single #
face $-1 $48 $49 $18 $-1 $50 reversed single #
loop $-1 $-1 $51 $24 #
plane-surface $-1 0 0 12.197199506592717 0 0 1 1 0 0 forward_v I I I I #
face $-1 $52 $53 $19 $-1 $54 reversed single #
loop $-1 $-1 $55 $25 #
plane-surface $-1 0 -34.964842853114355 0 0 1 0 0 0 1 forward_v I I I I #
face $-1 $56 $57 $20 $-1 $58 reversed single #
loop $-1 $-1 $59 $26 #
plane-surface $-1 55.12766857540602 7.6154233382885614 147.72838703583187 0 -1 0 -0.73135370988377701 0 -0.68199835119979291 forward_v I I I I #
face $-1 $60 $61 $21 $-1 $62 forward single #
loop $-1 $63 $64 $27 #
cone-surface $-1 46.127828367372658 3.5396476519029463 8.0125709878391085 -0.73135370988377701 0 -0.68199835119979291 0.68199835119979291 0 -0.73135370988377701 1 I I 0 1 1 forward I I I I #
face $-1 $65 $66 $22 $-1 $67 reversed single #
loop $-1 $-1 $68 $28 #
plane-surface $-1 55.12766857540602 26.813291480343128 147.72838703583187 0 1 0 0.73135370988377701 0 0.68199835119979291 forward_v I I I I #
face $-1 $69 $70 $23 $-1 $71 forward single #
loop $-1 $72 $73 $29 #
cone-surface $-1 46.127828367372658 30.889067166728744 8.0125709878391085 -0.73135370988377701 0 -0.68199835119979291 0.68199835119979291 0 -0.73135370988377701 1 I I 0 1 1 forward I I I I #
face $-1 $74 $75 $18 $-1 $76 reversed single #
loop $-1 $-1 $77 $30 #
plane-surface $-1 0 0 -12.197199506592717 0 0 1 1 0 0 forward_v I I I I #
coedge $-1 $78 $79 $80 $81 forward $31 $-1 #
face $-1 $82 $83 $19 $-1 $84 forward single #
loop $-1 $-1 $85 $33 #
plane-surface $-1 -50.174871059297459 0 0 1 0 0 0 0 -1 forward_v I I I I #
coedge $-1 $86 $87 $88 $89 forward $34 $-1 #
face $-1 $90 $91 $20 $-1 $92 reversed single #
loop $-1 $-1 $93 $36 #
plane-surface $-1 -18.26348760890869 3.5396476519029463 79.290028367625723 0.73135370988377701 0 0.68199835119979291 0.68199835119979291 0 -0.73135370988377701 forward_v I I I I #
coedge $-1 $94 $95 $96 $97 reversed $37 $-1 #
face $-1 $-1 $98 $21 $-1 $99 forward single #
loop $-1 $100 $101 $39 #
cone-surface $-1 44.651751372354994 3.5396476519029463 6.6361069551264436 -0.73135370988377701 0 -0.68199835119979291 0.34099917559989645 0 -0.36567685494188851 1 I I -0.70710678118654746 0.70710678118654746 0.5 forward I I I I #
loop $-1 $-1 $102 $27 #
coedge $-1 $64 $64 $103 $104 reversed $40 $-1 #
face $-1 $105 $106 $22 $-1 $107 reversed single #
loop $-1 $-1 $108 $42 #
plane-surface $-1 -18.26348760890869 30.889067166728744 79.290028367625723 0.73135370988377701 0 0.68199835119979291 0.68199835119979291 0 -0.73135370988377701 forward_v I I I I #
coedge $-1 $109 $110 $111 $112 reversed $43 $-1 #
face $-1 $-1 $113 $23 $-1 $114 forward single #
loop $-1 $115 $116 $45 #
cone-surface $-1 44.651751372354994 30.889067166728744 6.6361069551264436 -0.73135370988377701 0 -0.68199835119979291 0.34099917559989645 0 -0.36567685494188851 1 I I -0.70710678118654746 0.70710678118654746 0.5 forward I I I I #
loop $-1 $-1 $117 $29 #
coedge $-1 $73 $73 $118 $119 reversed $46 $-1 #
face $-1 $120 $121 $18 $-1 $122 reversed single #
loop $-1 $-1 $123 $48 #
plane-surface $-1 0 -34.964842853114355 0 0 1 0 0 0 1 forward_v I I I I #
coedge $-1 $124 $125 $126 $127 forward $49 $-1 #
coedge $-1 $128 $51 $129 $130 forward $31 $-1 #
coedge $-1 $51 $128 $131 $132 forward $31 $-1 #
coedge $-1 $133 $134 $51 $81 reversed $135 $-1 #
edge $-1 $136 -34.964842853114355 $137 34.964842853114355 $80 $138 forward 7 unknown #
face $-1 $139 $140 $19 $-1 $141 reversed single #
loop $-1 $-1 $142 $52 #
plane-surface $-1 0 -42.580266191402913 3.0905773944370623 0 0 1 1 0 0 forward_v I I I I #
coedge $-1 $143 $144 $87 $145 forward $53 $-1 #
coedge $-1 $146 $55 $147 $148 reversed $34 $-1 #
coedge $-1 $55 $146 $85 $145 reversed $34 $-1 #
coedge $-1 $149 $142 $55 $89 reversed $83 $-1 #
edge $-1 $150 -50.174871059297459 $151 50.174871059297459 $88 $152 forward 7 unknown #
face $-1 $153 $154 $20 $-1 $155 reversed single #
loop $-1 $-1 $156 $56 #
plane-surface $-1 55.12766857540602 -0.53612803448266888 147.72838703583187 0 1 0 0.73135370988377701 0 0.68199835119979291 forward_v I I I I #
coedge $-1 $157 $158 $159 $160 reversed $57 $-1 #
coedge $-1 $95 $59 $161 $162 reversed $37 $-1 #
coedge $-1 $59 $94 $157 $163 reversed $37 $-1 #
coedge $-1 $159 $164 $59 $97 forward $165 $-1 #
edge $-1 $166 -22.611036771594449 $167 -16.737751667896362 $96 $168 forward 7 unknown #
loop $-1 $-1 $103 $60 #
plane-surface $-1 -18.26348760890869 3.5396476519029463 79.290028367625723 0.73135370988377701 0 0.68199835119979291 0.68199835119979291 0 -0.73135370988377701 forward_v I I I I #
loop $-1 $-1 $169 $39 #
coedge $-1 $101 $101 $102 $170 reversed $61 $-1 #
coedge $-1 $102 $102 $101 $170 forward $63 $-1 #
coedge $-1 $103 $103 $64 $104 forward $98 $-1 #
edge $-1 $171 0 $171 6.2831853071796004 $103 $172 forward 7 unknown #
face $-1 $173 $174 $22 $-1 $175 forward single #
loop $-1 $-1 $111 $65 #
plane-surface $-1 50.174871059297459 0 0 -1 0 0 0 0 1 forward_v I I I I #
coedge $-1 $176 $177 $178 $179 reversed $66 $-1 #
coedge $-1 $110 $68 $180 $181 reversed $43 $-1 #
coedge $-1 $68 $109 $176 $182 reversed $43 $-1 #
coedge $-1 $178 $183 $68 $112 forward $106 $-1 #
edge $-1 $184 61.666994011323219 $185 67.965321334604923 $111 $186 forward 7 unknown #
loop $-1 $-1 $118 $69 #
plane-surface $-1 -18.26348760890869 30.889067166728744 79.290028367625723 0.73135370988377701 0 0.68199835119979291 0.68199835119979291 0 -0.73135370988377701 forward_v I I I I #
loop $-1 $-1 $187 $45 #
coedge $-1 $116 $116 $117 $188 reversed $70 $-1 #
coedge $-1 $117 $117 $116 $188 forward $72 $-1 #
coedge $-1 $118 $118 $73 $119 forward $113 $-1 #
edge $-1 $189 0 $189 6.2831853071796004 $118 $190 forward 7 unknown #
face $-1 $191 $192 $18 $-1 $193 reversed single #
loop $-1 $-1 $194 $74 #
plane-surface $-1 -50.174871059297459 0 0 1 0 0 0 0 -1 forward_v I I I I #
coedge $-1 $195 $131 $196 $197 forward $75 $-1 #
coedge $-1 $198 $77 $195 $199 forward $49 $-1 #
coedge $-1 $77 $198 $200 $201 forward $49 $-1 #
coedge $-1 $134 $133 $77 $127 reversed $135 $-1 #
edge $-1 $202 -34.964842853114355 $203 34.964842853114355 $126 $204 forward 7 unknown #
coedge $-1 $79 $78 $205 $206 forward $31 $-1 #
coedge $-1 $207 $208 $78 $130 reversed $192 $-1 #
edge $-1 $137 -50.174871059297459 $209 50.174871059297459 $129 $210 forward 7 unknown #
coedge $-1 $123 $211 $79 $132 reversed $75 $-1 #
edge $-1 $212 -50.174871059297459 $136 50.174871059297459 $131 $213 forward 7 unknown #
coedge $-1 $126 $80 $211 $214 forward $135 $-1 #
coedge $-1 $80 $126 $207 $215 reversed $135 $-1 #
loop $-1 $-1 $133 $191 #
vertex $-1 $81 $216 #
vertex $-1 $81 $217 #
straight-curve $-1 50.174871059297459 0 12.197199506592717 0 1 0 I I #
face $-1 $218 $219 $19 $-1 $220 reversed single #
loop $-1 $-1 $221 $82 #
plane-surface $-1 0 -42.580266191402913 -1.4040759202485802 0 0 1 1 0 0 forward_v I I I I #
coedge $-1 $88 $222 $223 $224 forward $83 $-1 #
coedge $-1 $225 $85 $226 $227 reversed $53 $-1 #
coedge $-1 $85 $225 $149 $228 reversed $53 $-1 #
edge $-1 $150 -3.0905773944370623 $229 1.4040759202485802 $85 $230 forward 7 unknown #
coedge $-1 $87 $86 $231 $232 forward $34 $-1 #
coedge $-1 $223 $233 $86 $148 forward $234 $-1 #
edge $-1 $235 -1.4040759202485802 $151 3.0905773944370623 $147 $236 forward 7 unknown #
coedge $-1 $222 $88 $144 $228 forward $83 $-1 #
vertex $-1 $145 $237 #
vertex $-1 $224 $238 #
straight-curve $-1 0 -34.964842853114355 3.0905773944370623 1 0 0 I I #
face $-1 $-1 $165 $20 $-1 $239 forward single #
loop $-1 $-1 $240 $90 #
plane-surface $-1 50.174871059297459 0 0 -1 0 0 0 0 1 forward_v I I I I #
coedge $-1 $241 $242 $243 $244 reversed $91 $-1 #
coedge $-1 $245 $93 $95 $163 forward $57 $-1 #
coedge $-1 $93 $245 $241 $246 forward $57 $-1 #
coedge $-1 $243 $96 $93 $160 forward $165 $-1 #
edge $-1 $167 -5.8455995123370883 $247 2.305951860434142 $159 $248 forward 7 unknown #
coedge $-1 $249 $250 $94 $162 forward $154 $-1 #
edge $-1 $251 -67.965321334604923 $166 -61.666994011323219 $161 $252 forward 7 unknown #
edge $-1 $167 91.737866307802094 $251 100.34974211859492 $95 $253 forward 7 unknown #
coedge $-1 $96 $243 $249 $254 forward $165 $-1 #
loop $-1 $-1 $243 $153 #
vertex $-1 $162 $255 #
vertex $-1 $97 $256 #
straight-curve $-1 27.56383428770301 7.6154233382885614 12.19719950659271 -1 0 0 I I #
coedge $-1 $169 $169 $-1 $257 reversed $100 $-1 #
edge $-1 $258 0 $258 6.2831853071796004 $101 $259 forward 7 unknown #
vertex $-1 $104 $260 #
ellipse-curve $-1 47.238228507448412 3.5396476519029463 9.0480358449518583 0.73135370988377701 0 0.68199835119979291 0.68199835119979291 0 -0.73135370988377701 1 I I #
face $-1 $-1 $261 $22 $-1 $262 reversed single #
loop $-1 $-1 $180 $105 #
plane-surface $-1 0 0 12.197199506592717 0 0 1 1 0 0 forward_v I I I I #
coedge $-1 $263 $108 $110 $182 forward $66 $-1 #
coedge $-1 $108 $263 $264 $265 reversed $66 $-1 #
coedge $-1 $266 $111 $108 $179 forward $106 $-1 #
edge $-1 $185 11.368757896978757 $267 19.520309269749983 $178 $268 forward 7 unknown #
coedge $-1 $269 $270 $109 $181 forward $174 $-1 #
edge $-1 $271 16.737751667896362 $184 22.611036771594449 $180 $272 forward 7 unknown #
edge $-1 $185 -100.34974211859492 $271 -91.737866307802094 $110 $273 forward 7 unknown #
coedge $-1 $111 $266 $269 $274 reversed $106 $-1 #
vertex $-1 $274 $275 #
vertex $-1 $112 $276 #
straight-curve $-1 50.174871059297459 26.813291480343128 73.864193517915936 0 0 -1 I I #
coedge $-1 $187 $187 $-1 $277 reversed $115 $-1 #
edge $-1 $278 0 $278 6.2831853071796004 $116 $279 forward 7 unknown #
vertex $-1 $119 $280 #
ellipse-curve $-1 47.238228507448412 30.889067166728744 9.0480358449518583 0.73135370988377701 0 0.68199835119979291 0.68199835119979291 0 -0.73135370988377701 1 I I #
face $-1 $-1 $135 $18 $-1 $281 reversed single #
loop $-1 $-1 $207 $120 #
plane-surface $-1 0 34.964842853114355 0 0 -1 0 0 0 -1 forward_v I I I I #
coedge $-1 $282 $205 $208 $283 forward $121 $-1 #
coedge $-1 $211 $123 $124 $199 reversed $75 $-1 #
coedge $-1 $205 $282 $123 $197 reversed $121 $-1 #
edge $-1 $212 -12.197199506592717 $284 12.197199506592717 $196 $285 forward 7 unknown #
coedge $-1 $125 $124 $282 $286 forward $49 $-1 #
edge $-1 $203 -50.174871059297459 $284 50.174871059297459 $195 $287 forward 7 unknown #
coedge $-1 $208 $207 $125 $201 reversed $192 $-1 #
edge $-1 $288 -50.174871059297459 $202 50.174871059297459 $200 $289 forward 7 unknown #
vertex $-1 $127 $290 #
vertex $-1 $214 $291 #
straight-curve $-1 50.174871059297459 0 -12.197199506592717 0 -1 0 I I #
coedge $-1 $194 $196 $128 $206 reversed $121 $-1 #
edge $-1 $209 -34.964842853114355 $212 34.964842853114355 $205 $292 forward 7 unknown #
coedge $-1 $200 $129 $134 $215 forward $192 $-1 #
coedge $-1 $129 $200 $194 $283 reversed $192 $-1 #
vertex $-1 $130 $293 #
straight-curve $-1 0 34.964842853114355 12.197199506592717 -1 0 0 I I #
coedge $-1 $131 $195 $133 $214 reversed $75 $-1 #
vertex $-1 $206 $294 #
straight-curve $-1 0 -34.964842853114355 12.197199506592717 1 0 0 I I #
edge $-1 $136 -12.197199506592717 $203 12.197199506592717 $133 $295 forward 7 unknown #
edge $-1 $137 -12.197199506592717 $202 12.197199506592717 $134 $296 forward 7 unknown #
point $-1 50.174871059297459 -34.964842853114355 12.197199506592717 #
point $-1 50.174871059297459 34.964842853114355 12.197199506592717 #
face $-1 $-1 $234 $19 $-1 $297 reversed single #
loop $-1 $-1 $298 $139 #
plane-surface $-1 0 -50.195689529691471 0.84325073709424103 0 1 0 0 0 1 forward_v I I I I #
coedge $-1 $299 $231 $233 $300 forward $140 $-1 #
coedge $-1 $142 $149 $301 $302 forward $83 $-1 #
coedge $-1 $303 $147 $142 $224 reversed $234 $-1 #
edge $-1 $304 -7.6154233382885579 $151 7.6154233382885579 $223 $305 forward 7 unknown #
coedge $-1 $144 $143 $298 $306 reversed $53 $-1 #
coedge $-1 $231 $299 $143 $227 forward $140 $-1 #
edge $-1 $307 -7.6154233382885579 $229 7.6154233382885579 $143 $308 forward 7 unknown #
edge $-1 $150 -7.6154233382885579 $309 7.6154233382885579 $144 $310 forward 7 unknown #
vertex $-1 $145 $311 #
straight-curve $-1 -50.174871059297459 -34.964842853114355 0 0 0 -1 I I #
coedge $-1 $221 $226 $146 $232 reversed $140 $-1 #
edge $-1 $235 -50.174871059297459 $229 50.174871059297459 $231 $312 forward 7 unknown #
coedge $-1 $147 $303 $221 $300 reversed $234 $-1 #
loop $-1 $-1 $147 $218 #
vertex $-1 $148 $313 #
straight-curve $-1 50.174871059297459 -34.964842853114355 0 0 0 1 I I #
point $-1 -50.174871059297459 -34.964842853114355 3.0905773944370623 #
point $-1 50.174871059297459 -34.964842853114355 3.0905773944370623 #
plane-surface $-1 0 0 12.197199506592717 0 0 1 1 0 0 forward_v I I I I #
coedge $-1 $250 $249 $242 $314 forward $154 $-1 #
coedge $-1 $242 $156 $158 $246 reversed $91 $-1 #
coedge $-1 $156 $241 $240 $314 reversed $91 $-1 #
coedge $-1 $164 $159 $156 $244 forward $165 $-1 #
edge $-1 $247 16.737751667896362 $315 22.611036771594449 $243 $316 forward 7 unknown #
coedge $-1 $158 $157 $250 $317 reversed $57 $-1 #
edge $-1 $318 -100.34974211859492 $247 -91.737866307802094 $241 $319 forward 7 unknown #
vertex $-1 $160 $320 #
straight-curve $-1 44.301585955599357 1.7698238259514731 12.197199506592717 0 -1 0 I I #
coedge $-1 $240 $161 $164 $254 reversed $154 $-1 #
coedge $-1 $161 $240 $245 $317 forward $154 $-1 #
vertex $-1 $162 $321 #
straight-curve $-1 50.174871059297459 7.6154233382885614 73.864193517915936 0 0 1 I I #
straight-curve $-1 -18.26348760890869 7.6154233382885614 79.290028367625723 0.68199835119979291 0 -0.73135370988377701 I I #
edge $-1 $315 -0.53612803448266888 $166 7.6154233382885614 $249 $322 forward 7 unknown #
point $-1 50.174871059297459 7.6154233382885614 12.197199506592717 #
point $-1 44.301585955599371 7.6154233382885614 12.19719950659271 #
edge $-1 $323 1 $323 0 $169 $-1 forward 7 unknown #
vertex $-1 $170 $324 #
ellipse-curve $-1 45.017428227296882 3.5396476519029463 6.97710613072634 0.73135370988377701 0 0.68199835119979291 0.68199835119979291 0 -0.73135370988377701 1 I I #
point $-1 47.920226858648228 3.5396476519029463 8.3166821350680991 #
loop $-1 $-1 $264 $173 #
plane-surface $-1 0 34.964842853114355 0 0 -1 0 0 0 -1 forward_v I I I I #
coedge $-1 $177 $176 $270 $325 reversed $66 $-1 #
coedge $-1 $326 $327 $177 $265 forward $261 $-1 #
edge $-1 $267 -65.127379698651637 $328 -56.515503887858806 $264 $329 forward 7 unknown #
coedge $-1 $183 $178 $327 $330 reversed $106 $-1 #
vertex $-1 $179 $331 #
straight-curve $-1 50.174871059297459 15.444533583364372 5.8988721833110134 0 1 0 I I #
coedge $-1 $332 $180 $183 $274 forward $174 $-1 #
coedge $-1 $180 $332 $263 $325 forward $174 $-1 #
vertex $-1 $181 $333 #
straight-curve $-1 27.56383428770301 26.813291480343128 12.19719950659271 1 0 0 I I #
straight-curve $-1 -18.26348760890869 26.813291480343128 79.290028367625723 -0.68199835119979291 0 0.73135370988377701 I I #
edge $-1 $184 26.813291480343128 $334 34.964842853114355 $183 $335 forward 7 unknown #
point $-1 50.174871059297459 26.813291480343128 12.197199506592717 #
point $-1 50.174871059297459 26.813291480343128 5.8988721833110134 #
edge $-1 $336 1 $336 0 $187 $-1 forward 7 unknown #
vertex $-1 $188 $337 #
ellipse-curve $-1 45.017428227296882 30.889067166728744 6.97710613072634 0.73135370988377701 0 0.68199835119979291 0.68199835119979291 0 -0.73135370988377701 1 I I #
point $-1 47.920226858648228 30.889067166728744 8.3166821350680991 #
plane-surface $-1 50.174871059297459 0 0 -1 0 0 0 0 1 forward_v I I I I #
coedge $-1 $196 $194 $198 $286 reversed $121 $-1 #
edge $-1 $209 -12.197199506592717 $288 12.197199506592717 $208 $338 forward 7 unknown #
vertex $-1 $286 $339 #
straight-curve $-1 -50.174871059297459 -34.964842853114355 0 0 0 -1 I I #
edge $-1 $284 -34.964842853114355 $288 34.964842853114355 $282 $340 forward 7 unknown #
straight-curve $-1 0 -34.964842853114355 -12.197199506592717 -1 0 0 I I #
vertex $-1 $201 $341 #
straight-curve $-1 0 34.964842853114355 -12.197199506592717 1 0 0 I I #
point $-1 50.174871059297459 34.964842853114355 -12.197199506592717 #
point $-1 50.174871059297459 -34.964842853114355 -12.197199506592717 #
straight-curve $-1 -50.174871059297459 0 12.197199506592717 0 -1 0 I I #
point $-1 -50.174871059297459 34.964842853114355 12.197199506592717 #
point $-1 -50.174871059297459 -34.964842853114355 12.197199506592717 #
straight-curve $-1 50.174871059297459 -34.964842853114355 0 0 0 -1 I I #
straight-curve $-1 50.174871059297459 34.964842853114355 0 0 0 -1 I I #
plane-surface $-1 50.174871059297459 0 0 -1 0 0 0 0 1 forward_v I I I I #
coedge $-1 $342 $301 $225 $306 forward $219 $-1 #
coedge $-1 $226 $221 $342 $343 forward $140 $-1 #
edge $-1 $235 -7.6154233382885579 $344 7.6154233382885579 $233 $345 forward 7 unknown #
coedge $-1 $298 $346 $222 $302 reversed $219 $-1 #
edge $-1 $309 -50.174871059297459 $304 50.174871059297459 $301 $347 forward 7 unknown #
coedge $-1 $233 $223 $346 $348 forward $234 $-1 #
vertex $-1 $224 $349 #
straight-curve $-1 50.174871059297459 -42.580266191402913 3.0905773944370623 0 1 0 I I #
edge $-1 $309 -2.2473266573428212 $307 2.2473266573428212 $225 $350 forward 7 unknown #
vertex $-1 $227 $351 #
straight-curve $-1 -50.174871059297459 -42.580266191402913 -1.4040759202485802 0 1 0 I I #
vertex $-1 $228 $352 #
straight-curve $-1 -50.174871059297459 -42.580266191402913 3.0905773944370623 0 -1 0 I I #
point $-1 -50.174871059297459 -34.964842853114355 -1.4040759202485802 #
straight-curve $-1 0 -34.964842853114355 -1.4040759202485802 -1 0 0 I I #
point $-1 50.174871059297459 -34.964842853114355 -1.4040759202485802 #
edge $-1 $315 61.666994011323219 $318 67.965321334604923 $240 $353 forward 7 unknown #
vertex $-1 $254 $354 #
straight-curve $-1 27.56383428770301 -0.53612803448266888 12.19719950659271 1 0 0 I I #
edge $-1 $318 -2.305951860434142 $251 5.8455995123370883 $250 $355 forward 7 unknown #
vertex $-1 $317 $356 #
straight-curve $-1 -18.26348760890869 -0.53612803448266888 79.290028367625723 -0.68199835119979291 0 0.73135370988377701 I I #
point $-1 44.301585955599371 -0.53612803448266888 12.19719950659271 #
point $-1 50.174871059297459 7.6154233382885614 5.8988721833110134 #
straight-curve $-1 50.174871059297459 0 12.197199506592717 0 1 0 I I #
vertex $-1 $257 $357 #
point $-1 45.699426578496677 3.5396476519029463 6.245752420842563 #
edge $-1 $328 -19.52030926974999 $271 -11.368757896978757 $270 $358 forward 7 unknown #
coedge $-1 $327 $264 $332 $359 reversed $261 $-1 #
coedge $-1 $264 $326 $266 $330 forward $261 $-1 #
vertex $-1 $265 $360 #
straight-curve $-1 5.7581054868541788 34.964842853114355 53.530022940929271 -0.68199835119979291 0 0.73135370988377701 I I #
edge $-1 $334 -12.197199506592717 $267 -5.8988721833110143 $266 $361 forward 7 unknown #
point $-1 50.174871059297459 34.964842853114355 5.8988721833110143 #
coedge $-1 $270 $269 $326 $359 forward $174 $-1 #
point $-1 44.301585955599371 26.813291480343128 12.19719950659271 #
vertex $-1 $274 $362 #
straight-curve $-1 50.174871059297459 0 12.197199506592717 0 1 0 I I #
vertex $-1 $277 $363 #
point $-1 45.699426578496677 30.889067166728744 6.245752420842563 #
straight-curve $-1 -50.174871059297459 34.964842853114355 0 0 0 -1 I I #
point $-1 -50.174871059297459 -34.964842853114355 -12.197199506592717 #
straight-curve $-1 -50.174871059297459 0 -12.197199506592717 0 1 0 I I #
point $-1 -50.174871059297459 34.964842853114355 -12.197199506592717 #
coedge $-1 $346 $298 $299 $343 reversed $219 $-1 #
edge $-1 $344 -50.174871059297459 $307 50.174871059297459 $342 $364 forward 7 unknown #
vertex $-1 $348 $365 #
straight-curve $-1 50.174871059297459 -42.580266191402913 -1.4040759202485802 0 -1 0 I I #
coedge $-1 $301 $342 $303 $348 reversed $219 $-1 #
straight-curve $-1 0 -50.195689529691471 3.0905773944370623 1 0 0 I I #
edge $-1 $304 -2.2473266573428212 $344 2.2473266573428212 $303 $366 forward 7 unknown #
point $-1 50.174871059297459 -50.195689529691471 3.0905773944370623 #
straight-curve $-1 -50.174871059297459 -50.195689529691471 0.84325073709424103 0 0 -1 I I #
point $-1 -50.174871059297459 -50.195689529691471 -1.4040759202485802 #
point $-1 -50.174871059297459 -50.195689529691471 3.0905773944370623 #
straight-curve $-1 50.174871059297459 -0.53612803448266888 73.864193517915936 0 0 -1 I I #
point $-1 50.174871059297459 -0.53612803448266888 12.197199506592717 #
straight-curve $-1 50.174871059297459 1.7698238259514731 5.8988721833110134 0 1 0 I I #
point $-1 50.174871059297459 -0.53612803448266888 5.8988721833110134 #
point $-1 44.286074517413105 3.5396476519029463 6.2951077795265471 #
straight-curve $-1 44.301585955599357 15.444533583364372 12.197199506592717 0 -1 0 I I #
edge $-1 $334 -50.174871059297459 $328 -44.301585955599371 $326 $367 forward 7 unknown #
point $-1 44.301585955599371 34.964842853114362 12.19719950659271 #
straight-curve $-1 50.174871059297459 34.964842853114355 0 0 0 -1 I I #
point $-1 50.174871059297459 34.964842853114355 12.197199506592717 #
point $-1 44.286074517413105 30.889067166728744 6.2951077795265471 #
straight-curve $-1 0 -50.195689529691471 -1.4040759202485802 -1 0 0 I I #
point $-1 50.174871059297459 -50.195689529691471 -1.4040759202485802 #
straight-curve $-1 50.174871059297459 -50.195689529691471 0.84325073709424103 0 0 -1 I I #
straight-curve $-1 0 34.964842853114355 12.197199506592717 -1 0 0 I I #
End-of-ACIS-data 