500 0 12 0           
7 Unknown 11 ACIS 5.0 NT 24 Thu Mar 25 19:19:08 1999 
-1 9.9999999999999995e-007 1e-010 
body $-1 $12 $-1 $13 #
body $-1 $14 $-1 $15 #
body $-1 $16 $-1 $17 #
body $-1 $18 $-1 $19 #
body $-1 $20 $-1 $21 #
body $-1 $22 $-1 $23 #
body $-1 $24 $-1 $25 #
body $-1 $26 $-1 $27 #
body $-1 $28 $-1 $29 #
body $-1 $30 $-1 $31 #
body $-1 $32 $-1 $33 #
body $-1 $34 $-1 $35 #
lump $-1 $-1 $36 $0 #
transform $-1 1 0 0 0 1 0 0 0 1 59.743034150212104 24.687600491473649 7.1232169587264158 1 rotate no_reflect no_shear #
lump $-1 $-1 $37 $1 #
transform $-1 1 0 0 0 1 0 0 0 1 59.743034150212104 24.687600491473649 7.1232169587264158 1 rotate no_reflect no_shear #
lump $-1 $-1 $38 $2 #
transform $-1 1 0 0 0 1 0 0 0 1 59.743034150212104 24.687600491473649 7.1232169587264158 1 rotate no_reflect no_shear #
lump $-1 $-1 $39 $3 #
transform $-1 1 0 0 0 1 0 0 0 1 59.743034150212104 24.687600491473649 7.1232169587264158 1 rotate no_reflect no_shear #
lump $-1 $-1 $40 $4 #
transform $-1 1 0 0 0 1 0 0 0 1 59.743034150212104 24.687600491473649 7.1232169587264158 1 rotate no_reflect no_shear #
lump $-1 $-1 $41 $5 #
transform $-1 1 0 0 0 1 0 0 0 1 59.743034150212104 24.687600491473649 7.1232169587264158 1 rotate no_reflect no_shear #
lump $-1 $-1 $42 $6 #
transform $-1 1 0 0 0 1 0 0 0 1 59.743034150212104 24.687600491473649 7.1232169587264158 1 rotate no_reflect no_shear #
lump $-1 $-1 $43 $7 #
transform $-1 1 0 0 0 1 0 0 0 1 59.743034150212104 24.687600491473649 7.1232169587264158 1 rotate no_reflect no_shear #
lump $-1 $-1 $44 $8 #
transform $-1 1 0 0 0 1 0 0 0 1 59.743034150212104 24.687600491473649 7.1232169587264158 1 rotate no_reflect no_shear #
lump $-1 $-1 $45 $9 #
transform $-1 1 0 0 0 1 0 0 0 1 59.743034150212104 24.687600491473649 7.1232169587264158 1 rotate no_reflect no_shear #
lump $-1 $-1 $46 $10 #
transform $-1 1 0 0 0 1 0 0 0 1 59.743034150212104 24.687600491473649 7.1232169587264158 1 rotate no_reflect no_shear #
lump $-1 $-1 $47 $11 #
transform $-1 1 0 0 0 1 0 0 0 1 59.743034150212104 24.687600491473649 7.1232169587264158 1 rotate no_reflect no_shear #
shell $-1 $-1 $-1 $48 $-1 $12 #
shell $-1 $-1 $-1 $49 $-1 $14 #
shell $-1 $-1 $-1 $50 $-1 $16 #
shell $-1 $-1 $-1 $51 $-1 $18 #
shell $-1 $-1 $-1 $52 $-1 $20 #
shell $-1 $-1 $-1 $53 $-1 $22 #
shell $-1 $-1 $-1 $54 $-1 $24 #
shell $-1 $-1 $-1 $55 $-1 $26 #
shell $-1 $-1 $-1 $56 $-1 $28 #
shell $-1 $-1 $-1 $57 $-1 $30 #
shell $-1 $-1 $-1 $58 $-1 $32 #
shell $-1 $-1 $-1 $59 $-1 $34 #
face $-1 $60 $61 $36 $-1 $62 forward single #
face $-1 $63 $64 $37 $-1 $65 reversed single #
face $-1 $66 $67 $38 $-1 $68 reversed single #
face $-1 $69 $70 $39 $-1 $71 forward single #
face $-1 $72 $73 $40 $-1 $74 forward single #
face $-1 $75 $76 $41 $-1 $77 forward single #
face $-1 $78 $79 $42 $-1 $80 reversed single #
face $-1 $81 $82 $43 $-1 $83 forward single #
face $-1 $84 $85 $44 $-1 $86 forward single #
face $-1 $87 $88 $45 $-1 $89 reversed single #
face $-1 $90 $91 $46 $-1 $92 forward single #
face $-1 $93 $94 $47 $-1 $95 forward single #
face $-1 $96 $97 $36 $-1 $98 reversed single #
loop $-1 $-1 $99 $48 #
plane-surface $-1 0 0 7.1232169587264158 0 0 1 1 0 0 forward_v I I I I #
face $-1 $100 $101 $37 $-1 $102 reversed single #
loop $-1 $-1 $103 $49 #
plane-surface $-1 0 -20.31448179724741 4.1232169587264158 0 0 1 1 0 0 forward_v I I I I #
face $-1 $104 $105 $38 $-1 $106 reversed single #
loop $-1 $-1 $107 $50 #
plane-surface $-1 -24.746374022044073 20.046890569185589 88.208950221436737 0.70710678939079041 0 0.70710677298230451 0.70710677298230451 0 -0.70710678939079041 forward_v I I I I #
face $-1 $108 $109 $39 $-1 $110 forward single #
loop $-1 $111 $112 $51 #
cone-surface $-1 57.687642359942359 17.26246461581275 5.067825137169593 -0.70710678939079041 0 -0.70710677298230451 0.35355338649115226 0 -0.35355339469539521 1 I I 0 1 0.5 forward I I I I #
face $-1 $113 $114 $40 $-1 $115 forward single #
loop $-1 $116 $117 $52 #
cone-surface $-1 57.687642359942359 20.046890569185589 5.067825137169593 -0.70710678939079041 0 -0.70710677298230451 0.35355338649115226 0 -0.35355339469539521 1 I I 0 1 0.5 forward I I I I #
face $-1 $118 $119 $41 $-1 $120 forward single #
loop $-1 $121 $122 $53 #
cone-surface $-1 57.687642359942359 22.831316522558428 5.067825137169593 -0.70710678939079041 0 -0.70710677298230451 0.35355338649115226 0 -0.35355339469539521 1 I I 0 1 0.5 forward I I I I #
face $-1 $123 $124 $42 $-1 $125 reversed single #
loop $-1 $-1 $126 $54 #
plane-surface $-1 -156.40929497414751 -7.6183444447876614 71.327913722687214 0 1 0 -0.80901700255871778 0 0.5877852410284794 forward_v I I I I #
face $-1 $127 $128 $43 $-1 $129 forward single #
loop $-1 $130 $131 $55 #
cone-surface $-1 -57.148926081609375 -5.1797238148307052 3.8155989924374816 0.80901700255871778 0 -0.5877852410284794 0.2938926205142397 0 0.40450850127935889 1 I I 0 1 0.5 forward I I I I #
face $-1 $132 $133 $44 $-1 $134 forward single #
loop $-1 $135 $136 $56 #
cone-surface $-1 -57.148926081609375 -1.5217928698952683 3.8155989924374816 0.80901700255871778 0 -0.5877852410284794 0.2938926205142397 0 0.40450850127935889 1 I I 0 1 0.5 forward I I I I #
face $-1 $137 $138 $45 $-1 $139 reversed single #
loop $-1 $-1 $140 $57 #
plane-surface $-1 -156.40929497414751 12.696137352459749 71.327913722687214 0 1 0 -0.80901700255871778 0 0.5877852410284794 forward_v I I I I #
face $-1 $141 $142 $46 $-1 $143 forward single #
loop $-1 $144 $145 $58 #
cone-surface $-1 -57.148926081609375 15.134757982416705 3.8155989924374816 0.80901700255871778 0 -0.5877852410284794 0.2938926205142397 0 0.40450850127935889 1 I I 0 1 0.5 forward I I I I #
face $-1 $146 $147 $47 $-1 $148 forward single #
loop $-1 $149 $150 $59 #
cone-surface $-1 -57.148926081609375 18.792688927352142 3.8155989924374816 0.80901700255871778 0 -0.5877852410284794 0.2938926205142397 0 0.40450850127935889 1 I I 0 1 0.5 forward I I I I #
face $-1 $151 $152 $36 $-1 $153 reversed single #
loop $-1 $-1 $154 $60 #
plane-surface $-1 0 0 -7.1232169587264158 0 0 1 1 0 0 forward_v I I I I #
coedge $-1 $155 $156 $157 $158 forward $61 $-1 #
face $-1 $159 $160 $37 $-1 $161 reversed single #
loop $-1 $-1 $162 $63 #
plane-surface $-1 0 -15.941363103021171 5.6232169587264158 0 -1 0 0 0 -1 forward_v I I I I #
coedge $-1 $163 $164 $165 $166 reversed $64 $-1 #
face $-1 $167 $168 $38 $-1 $169 reversed single #
loop $-1 $-1 $170 $66 #
plane-surface $-1 59.743036110797583 15.406180646897525 172.69835839369293 0 1 0 0.70710678939079041 0 0.70710677298230451 forward_v I I I I #
coedge $-1 $171 $172 $173 $174 reversed $67 $-1 #
face $-1 $-1 $175 $39 $-1 $176 forward single #
loop $-1 $177 $178 $69 #
cone-surface $-1 57.157312267899265 17.26246461581275 4.5374950574328645 -0.70710678939079041 0 -0.70710677298230451 0.17677669324557613 0 -0.1767766973476976 1 I I -0.70710678118654746 0.70710678118654746 0.25 forward I I I I #
loop $-1 $-1 $179 $51 #
coedge $-1 $112 $112 $180 $181 reversed $70 $-1 #
face $-1 $-1 $182 $40 $-1 $183 forward single #
loop $-1 $184 $185 $72 #
cone-surface $-1 57.157312267899265 20.046890569185589 4.5374950574328645 -0.70710678939079041 0 -0.70710677298230451 0.17677669324557613 0 -0.1767766973476976 1 I I -0.70710678118654746 0.70710678118654746 0.25 forward I I I I #
loop $-1 $-1 $186 $52 #
coedge $-1 $117 $117 $187 $188 reversed $73 $-1 #
face $-1 $-1 $189 $41 $-1 $190 forward single #
loop $-1 $191 $192 $75 #
cone-surface $-1 57.157312267899265 22.831316522558428 4.5374950574328645 -0.70710678939079041 0 -0.70710677298230451 0.17677669324557613 0 -0.1767766973476976 1 I I -0.70710678118654746 0.70710678118654746 0.25 forward I I I I #
loop $-1 $-1 $193 $53 #
coedge $-1 $122 $122 $194 $195 reversed $76 $-1 #
face $-1 $196 $197 $42 $-1 $198 reversed single #
loop $-1 $-1 $199 $78 #
plane-surface $-1 -59.743034150212111 -3.3507583423629832 1.0957662671770265 -0.80901700255871778 0 0.5877852410284794 0.5877852410284794 0 0.80901700255871778 forward_v I I I I #
coedge $-1 $200 $201 $202 $203 reversed $79 $-1 #
face $-1 $-1 $204 $43 $-1 $205 forward single #
loop $-1 $206 $207 $81 #
cone-surface $-1 -56.542163329690339 -5.1797238148307052 3.3747600616661222 0.80901700255871778 0 -0.5877852410284794 0.14694631025711985 0 0.20225425063967944 1 I I -0.70710678118654746 0.70710678118654746 0.25 forward I I I I #
loop $-1 $-1 $208 $55 #
coedge $-1 $131 $131 $209 $210 reversed $82 $-1 #
face $-1 $-1 $211 $44 $-1 $212 forward single #
loop $-1 $213 $214 $84 #
cone-surface $-1 -56.542163329690339 -1.5217928698952683 3.3747600616661222 0.80901700255871778 0 -0.5877852410284794 0.14694631025711985 0 0.20225425063967944 1 I I -0.70710678118654746 0.70710678118654746 0.25 forward I I I I #
loop $-1 $-1 $215 $56 #
coedge $-1 $136 $136 $216 $217 reversed $85 $-1 #
face $-1 $218 $219 $45 $-1 $220 reversed single #
loop $-1 $-1 $221 $87 #
plane-surface $-1 -59.743034150212111 16.963723454884427 1.0957662671770265 -0.80901700255871778 0 0.5877852410284794 0.5877852410284794 0 0.80901700255871778 forward_v I I I I #
coedge $-1 $222 $223 $224 $225 reversed $88 $-1 #
face $-1 $-1 $226 $46 $-1 $227 forward single #
loop $-1 $228 $229 $90 #
cone-surface $-1 -56.542163329690339 15.134757982416705 3.3747600616661222 0.80901700255871778 0 -0.5877852410284794 0.14694631025711985 0 0.20225425063967944 1 I I -0.70710678118654746 0.70710678118654746 0.25 forward I I I I #
loop $-1 $-1 $230 $58 #
coedge $-1 $145 $145 $231 $232 reversed $91 $-1 #
face $-1 $-1 $233 $47 $-1 $234 forward single #
loop $-1 $235 $236 $93 #
cone-surface $-1 -56.542163329690339 18.792688927352142 3.3747600616661222 0.80901700255871778 0 -0.5877852410284794 0.14694631025711985 0 0.20225425063967944 1 I I -0.70710678118654746 0.70710678118654746 0.25 forward I I I I #
loop $-1 $-1 $237 $59 #
coedge $-1 $150 $150 $238 $239 reversed $94 $-1 #
face $-1 $240 $241 $36 $-1 $242 reversed single #
loop $-1 $-1 $243 $96 #
plane-surface $-1 0 -24.687600491473649 0 0 1 0 0 0 1 forward_v I I I I #
coedge $-1 $244 $245 $246 $247 forward $97 $-1 #
coedge $-1 $248 $99 $249 $250 forward $61 $-1 #
coedge $-1 $99 $248 $251 $252 forward $61 $-1 #
coedge $-1 $253 $254 $99 $158 reversed $255 $-1 #
edge $-1 $256 -24.687600491473649 $257 24.687600491473649 $157 $258 forward 7 unknown #
face $-1 $259 $260 $37 $-1 $261 reversed single #
loop $-1 $-1 $262 $100 #
plane-surface $-1 -59.743034150212104 0 0 1 0 0 0 0 -1 forward_v I I I I #
coedge $-1 $263 $264 $265 $266 reversed $101 $-1 #
coedge $-1 $267 $103 $268 $269 reversed $64 $-1 #
coedge $-1 $103 $267 $263 $270 forward $64 $-1 #
coedge $-1 $265 $271 $103 $166 forward $272 $-1 #
edge $-1 $273 -14.530359592849944 $274 -5.784122204397466 $165 $275 forward 7 unknown #
face $-1 $276 $277 $38 $-1 $278 forward single #
loop $-1 $-1 $279 $104 #
plane-surface $-1 0 24.687600491473649 0 0 -1 0 0 0 -1 forward_v I I I I #
coedge $-1 $280 $281 $282 $283 reversed $105 $-1 #
coedge $-1 $284 $107 $279 $285 reversed $67 $-1 #
coedge $-1 $107 $284 $280 $286 forward $67 $-1 #
coedge $-1 $282 $287 $107 $174 forward $277 $-1 #
edge $-1 $288 -14.664155206880858 $289 -5.3827353623047305 $173 $290 forward 7 unknown #
loop $-1 $-1 $180 $108 #
plane-surface $-1 -24.746374022044073 20.046890569185589 88.208950221436737 0.70710678939079041 0 0.70710677298230451 0.70710677298230451 0 -0.70710678939079041 forward_v I I I I #
loop $-1 $-1 $291 $69 #
coedge $-1 $178 $178 $179 $292 reversed $109 $-1 #
coedge $-1 $179 $179 $178 $292 forward $111 $-1 #
coedge $-1 $180 $180 $112 $181 forward $175 $-1 #
edge $-1 $293 0 $293 6.2831853071796004 $180 $294 forward 7 unknown #
loop $-1 $-1 $187 $113 #
plane-surface $-1 -24.746374022044073 20.046890569185589 88.208950221436737 0.70710678939079041 0 0.70710677298230451 0.70710677298230451 0 -0.70710678939079041 forward_v I I I I #
loop $-1 $-1 $295 $72 #
coedge $-1 $185 $185 $186 $296 reversed $114 $-1 #
coedge $-1 $186 $186 $185 $296 forward $116 $-1 #
coedge $-1 $187 $187 $117 $188 forward $182 $-1 #
edge $-1 $297 0 $297 6.2831853071796004 $187 $298 forward 7 unknown #
loop $-1 $-1 $194 $118 #
plane-surface $-1 -24.746374022044073 20.046890569185589 88.208950221436737 0.70710678939079041 0 0.70710677298230451 0.70710677298230451 0 -0.70710678939079041 forward_v I I I I #
loop $-1 $-1 $299 $75 #
coedge $-1 $192 $192 $193 $300 reversed $119 $-1 #
coedge $-1 $193 $193 $192 $300 forward $121 $-1 #
coedge $-1 $194 $194 $122 $195 forward $189 $-1 #
edge $-1 $301 0 $301 6.2831853071796004 $194 $302 forward 7 unknown #
face $-1 $303 $304 $42 $-1 $305 reversed single #
loop $-1 $-1 $306 $123 #
plane-surface $-1 -156.40929497414751 0.91682776006169497 71.327913722687214 0 -1 0 0.80901700255871778 0 -0.5877852410284794 forward_v I I I I #
coedge $-1 $307 $308 $309 $310 reversed $124 $-1 #
coedge $-1 $201 $126 $311 $312 reversed $79 $-1 #
coedge $-1 $126 $200 $307 $313 reversed $79 $-1 #
coedge $-1 $309 $314 $126 $203 forward $315 $-1 #
edge $-1 $316 18.461613336861653 $317 22.840812471508379 $202 $318 forward 7 unknown #
loop $-1 $-1 $209 $127 #
plane-surface $-1 -59.743034150212111 -3.3507583423629832 1.0957662671770265 -0.80901700255871778 0 0.5877852410284794 0.5877852410284794 0 0.80901700255871778 forward_v I I I I #
loop $-1 $-1 $319 $81 #
coedge $-1 $207 $207 $208 $320 reversed $128 $-1 #
coedge $-1 $208 $208 $207 $320 forward $130 $-1 #
coedge $-1 $209 $209 $131 $210 forward $204 $-1 #
edge $-1 $321 0 $321 6.2831853071796004 $209 $322 forward 7 unknown #
loop $-1 $-1 $216 $132 #
plane-surface $-1 -59.743034150212111 -3.3507583423629832 1.0957662671770265 -0.80901700255871778 0 0.5877852410284794 0.5877852410284794 0 0.80901700255871778 forward_v I I I I #
loop $-1 $-1 $323 $84 #
coedge $-1 $214 $214 $215 $324 reversed $133 $-1 #
coedge $-1 $215 $215 $214 $324 forward $135 $-1 #
coedge $-1 $216 $216 $136 $217 forward $211 $-1 #
edge $-1 $325 0 $325 6.2831853071796004 $216 $326 forward 7 unknown #
face $-1 $327 $328 $45 $-1 $329 forward single #
loop $-1 $-1 $330 $137 #
plane-surface $-1 -156.40929497414751 21.231309557309103 71.327913722687214 0 -1 0 0.80901700255871778 0 -0.5877852410284794 forward_v I I I I #
coedge $-1 $331 $332 $333 $334 reversed $138 $-1 #
coedge $-1 $223 $140 $335 $336 reversed $88 $-1 #
coedge $-1 $140 $222 $331 $337 reversed $88 $-1 #
coedge $-1 $333 $338 $140 $225 forward $328 $-1 #
edge $-1 $339 18.461613336861653 $340 22.840812471508379 $224 $341 forward 7 unknown #
loop $-1 $-1 $231 $141 #
plane-surface $-1 -59.743034150212111 16.963723454884427 1.0957662671770265 -0.80901700255871778 0 0.5877852410284794 0.5877852410284794 0 0.80901700255871778 forward_v I I I I #
loop $-1 $-1 $342 $90 #
coedge $-1 $229 $229 $230 $343 reversed $142 $-1 #
coedge $-1 $230 $230 $229 $343 forward $144 $-1 #
coedge $-1 $231 $231 $145 $232 forward $226 $-1 #
edge $-1 $344 0 $344 6.2831853071796004 $231 $345 forward 7 unknown #
loop $-1 $-1 $238 $146 #
plane-surface $-1 -59.743034150212111 16.963723454884427 1.0957662671770265 -0.80901700255871778 0 0.5877852410284794 0.5877852410284794 0 0.80901700255871778 forward_v I I I I #
loop $-1 $-1 $346 $93 #
coedge $-1 $236 $236 $237 $347 reversed $147 $-1 #
coedge $-1 $237 $237 $236 $347 forward $149 $-1 #
coedge $-1 $238 $238 $150 $239 forward $233 $-1 #
edge $-1 $348 0 $348 6.2831853071796004 $238 $349 forward 7 unknown #
face $-1 $350 $351 $36 $-1 $352 reversed single #
loop $-1 $-1 $353 $151 #
plane-surface $-1 -59.743034150212104 0 0 1 0 0 0 0 -1 forward_v I I I I #
coedge $-1 $354 $251 $355 $356 forward $152 $-1 #
coedge $-1 $357 $154 $354 $358 forward $97 $-1 #
coedge $-1 $154 $357 $359 $360 forward $97 $-1 #
coedge $-1 $254 $253 $154 $247 reversed $255 $-1 #
edge $-1 $361 -24.687600491473649 $362 24.687600491473649 $246 $363 forward 7 unknown #
coedge $-1 $156 $155 $364 $365 forward $61 $-1 #
coedge $-1 $366 $367 $155 $250 reversed $351 $-1 #
edge $-1 $257 -59.743034150212104 $368 59.743034150212104 $249 $369 forward 7 unknown #
coedge $-1 $243 $370 $156 $252 reversed $152 $-1 #
edge $-1 $371 -59.743034150212104 $256 59.743034150212104 $251 $372 forward 7 unknown #
coedge $-1 $246 $157 $370 $373 forward $255 $-1 #
coedge $-1 $157 $246 $366 $374 reversed $255 $-1 #
loop $-1 $-1 $253 $350 #
vertex $-1 $158 $375 #
vertex $-1 $158 $376 #
straight-curve $-1 59.743034150212104 0 7.1232169587264158 0 1 0 I I #
face $-1 $377 $378 $37 $-1 $379 forward single #
loop $-1 $-1 $268 $159 #
plane-surface $-1 0 -24.687600491473649 0 0 1 0 0 0 1 forward_v I I I I #
coedge $-1 $380 $381 $382 $383 forward $160 $-1 #
coedge $-1 $382 $162 $164 $270 reversed $101 $-1 #
coedge $-1 $162 $382 $384 $385 reversed $101 $-1 #
coedge $-1 $386 $165 $162 $266 forward $272 $-1 #
edge $-1 $274 1.3116084793632079 $387 4.3116084793632083 $265 $388 forward 7 unknown #
coedge $-1 $164 $163 $380 $389 reversed $64 $-1 #
coedge $-1 $390 $391 $163 $269 forward $260 $-1 #
edge $-1 $392 -59.743034150212104 $273 59.743034150212104 $268 $393 forward 7 unknown #
edge $-1 $394 -59.743034150212104 $274 59.743034150212104 $263 $395 forward 7 unknown #
coedge $-1 $165 $386 $390 $396 forward $272 $-1 #
loop $-1 $-1 $265 $377 #
vertex $-1 $269 $397 #
vertex $-1 $166 $398 #
straight-curve $-1 59.743034150212104 -10.157240898623705 4.1232169587264158 0 1 0 I I #
face $-1 $-1 $399 $38 $-1 $400 reversed single #
loop $-1 $-1 $173 $167 #
plane-surface $-1 0 0 7.1232169587264158 0 0 1 1 0 0 forward_v I I I I #
coedge $-1 $401 $402 $171 $285 forward $168 $-1 #
coedge $-1 $281 $170 $172 $286 reversed $105 $-1 #
coedge $-1 $170 $280 $403 $404 reversed $105 $-1 #
coedge $-1 $405 $173 $170 $283 forward $277 $-1 #
edge $-1 $289 26.467839303664658 $406 29.871516094813312 $282 $407 forward 7 unknown #
coedge $-1 $172 $171 $408 $409 reversed $67 $-1 #
edge $-1 $410 -79.55033016824774 $288 -74.736804232421605 $279 $411 forward 7 unknown #
edge $-1 $412 -119.48606830042421 $289 -114.67254236459807 $280 $413 forward 7 unknown #
coedge $-1 $173 $405 $401 $414 forward $277 $-1 #
vertex $-1 $174 $415 #
vertex $-1 $174 $416 #
straight-curve $-1 56.339357359063456 10.023445284592794 7.1232169587264096 0 -1 0 I I #
coedge $-1 $291 $291 $-1 $417 reversed $177 $-1 #
edge $-1 $418 0 $418 6.2831853071796004 $178 $419 forward 7 unknown #
vertex $-1 $181 $420 #
ellipse-curve $-1 58.041195754637776 17.26246461581275 5.4213785236607652 0.70710678939079041 0 0.70710677298230451 0.35355338649115226 0 -0.35355339469539521 1 I I #
coedge $-1 $295 $295 $-1 $421 reversed $184 $-1 #
edge $-1 $422 0 $422 6.2831853071796004 $185 $423 forward 7 unknown #
vertex $-1 $188 $424 #
ellipse-curve $-1 58.041195754637776 20.046890569185589 5.4213785236607652 0.70710678939079041 0 0.70710677298230451 0.35355338649115226 0 -0.35355339469539521 1 I I #
coedge $-1 $299 $299 $-1 $425 reversed $191 $-1 #
edge $-1 $426 0 $426 6.2831853071796004 $192 $427 forward 7 unknown #
vertex $-1 $195 $428 #
ellipse-curve $-1 58.041195754637776 22.831316522558428 5.4213785236607652 0.70710678939079041 0 0.70710677298230451 0.35355338649115226 0 -0.35355339469539521 1 I I #
face $-1 $-1 $315 $42 $-1 $429 forward single #
loop $-1 $-1 $430 $196 #
plane-surface $-1 -59.743034150212104 0 0 1 0 0 0 0 -1 forward_v I I I I #
coedge $-1 $431 $432 $433 $434 reversed $197 $-1 #
coedge $-1 $435 $199 $201 $313 forward $124 $-1 #
coedge $-1 $199 $435 $431 $436 forward $124 $-1 #
coedge $-1 $433 $202 $199 $310 forward $315 $-1 #
edge $-1 $317 -5.9429652736061698 $437 2.5922069312431866 $309 $438 forward 7 unknown #
coedge $-1 $439 $440 $200 $312 forward $304 $-1 #
edge $-1 $441 -34.568190594166573 $316 -28.54073990261719 $311 $442 forward 7 unknown #
edge $-1 $317 -7.4503387104177952 $441 -1.2080531203272332e-014 $201 $443 forward 7 unknown #
coedge $-1 $202 $433 $439 $444 forward $315 $-1 #
loop $-1 $-1 $433 $303 #
vertex $-1 $312 $445 #
vertex $-1 $203 $446 #
straight-curve $-1 -78.204647487073757 -7.6183444447876614 7.1232169587264167 1 0 0 I I #
coedge $-1 $319 $319 $-1 $447 reversed $206 $-1 #
edge $-1 $448 0 $448 6.2831853071796004 $207 $449 forward 7 unknown #
vertex $-1 $210 $450 #
ellipse-curve $-1 -57.553434582888741 -5.1797238148307052 4.109491612951726 -0.80901700255871778 0 0.5877852410284794 0.2938926205142397 0 0.40450850127935889 1 I I #
coedge $-1 $323 $323 $-1 $451 reversed $213 $-1 #
edge $-1 $452 0 $452 6.2831853071796004 $214 $453 forward 7 unknown #
vertex $-1 $217 $454 #
ellipse-curve $-1 -57.553434582888741 -1.5217928698952683 4.109491612951726 -0.80901700255871778 0 0.5877852410284794 0.2938926205142397 0 0.40450850127935889 1 I I #
face $-1 $-1 $455 $45 $-1 $456 reversed single #
loop $-1 $-1 $224 $218 #
plane-surface $-1 0 0 7.1232169587264158 0 0 1 1 0 0 forward_v I I I I #
coedge $-1 $457 $458 $459 $460 reversed $219 $-1 #
coedge $-1 $461 $221 $223 $337 forward $138 $-1 #
coedge $-1 $221 $461 $457 $462 forward $138 $-1 #
coedge $-1 $459 $224 $221 $334 forward $328 $-1 #
edge $-1 $340 4.2142756250175353 $463 12.74944782986689 $333 $464 forward 7 unknown #
coedge $-1 $465 $466 $222 $336 forward $455 $-1 #
edge $-1 $467 -34.568190594166573 $339 -28.54073990261719 $335 $468 forward 7 unknown #
edge $-1 $340 -7.4503387104177952 $467 -1.2080531203272332e-014 $223 $469 forward 7 unknown #
coedge $-1 $224 $459 $465 $470 forward $328 $-1 #
vertex $-1 $336 $471 #
vertex $-1 $225 $472 #
straight-curve $-1 -78.204647487073757 12.696137352459749 7.1232169587264167 1 0 0 I I #
coedge $-1 $342 $342 $-1 $473 reversed $228 $-1 #
edge $-1 $474 0 $474 6.2831853071796004 $229 $475 forward 7 unknown #
vertex $-1 $232 $476 #
ellipse-curve $-1 -57.553434582888741 15.134757982416705 4.109491612951726 -0.80901700255871778 0 0.5877852410284794 0.2938926205142397 0 0.40450850127935889 1 I I #
coedge $-1 $346 $346 $-1 $477 reversed $235 $-1 #
edge $-1 $478 0 $478 6.2831853071796004 $236 $479 forward 7 unknown #
vertex $-1 $239 $480 #
ellipse-curve $-1 -57.553434582888741 18.792688927352142 4.109491612951726 -0.80901700255871778 0 0.5877852410284794 0.2938926205142397 0 0.40450850127935889 1 I I #
face $-1 $-1 $255 $36 $-1 $481 reversed single #
loop $-1 $-1 $366 $240 #
plane-surface $-1 0 24.687600491473649 0 0 -1 0 0 0 -1 forward_v I I I I #
coedge $-1 $482 $364 $367 $483 forward $241 $-1 #
coedge $-1 $370 $243 $244 $358 reversed $152 $-1 #
coedge $-1 $364 $482 $243 $356 reversed $241 $-1 #
edge $-1 $371 -7.1232169587264158 $484 7.1232169587264158 $355 $485 forward 7 unknown #
coedge $-1 $245 $244 $482 $486 forward $97 $-1 #
edge $-1 $362 -59.743034150212104 $484 59.743034150212104 $354 $487 forward 7 unknown #
coedge $-1 $367 $366 $245 $360 reversed $351 $-1 #
edge $-1 $488 -59.743034150212104 $361 59.743034150212104 $359 $489 forward 7 unknown #
vertex $-1 $247 $490 #
vertex $-1 $373 $491 #
straight-curve $-1 59.743034150212104 0 -7.1232169587264158 0 -1 0 I I #
coedge $-1 $353 $355 $248 $365 reversed $241 $-1 #
edge $-1 $368 -24.687600491473649 $371 24.687600491473649 $364 $492 forward 7 unknown #
coedge $-1 $359 $249 $254 $374 forward $351 $-1 #
coedge $-1 $249 $359 $353 $483 reversed $351 $-1 #
vertex $-1 $250 $493 #
straight-curve $-1 0 24.687600491473649 7.1232169587264158 -1 0 0 I I #
coedge $-1 $251 $354 $253 $373 reversed $152 $-1 #
vertex $-1 $365 $494 #
straight-curve $-1 0 -24.687600491473649 7.1232169587264158 1 0 0 I I #
edge $-1 $256 -7.1232169587264158 $362 7.1232169587264158 $253 $495 forward 7 unknown #
edge $-1 $257 -7.1232169587264158 $361 7.1232169587264158 $254 $496 forward 7 unknown #
point $-1 59.743034150212104 -24.687600491473649 7.1232169587264158 #
point $-1 59.743034150212104 24.687600491473649 7.1232169587264158 #
face $-1 $-1 $272 $37 $-1 $497 reversed single #
loop $-1 $-1 $384 $259 #
plane-surface $-1 0 0 7.1232169587264158 0 0 1 1 0 0 forward_v I I I I #
coedge $-1 $498 $262 $267 $389 forward $160 $-1 #
coedge $-1 $262 $498 $499 $500 reversed $160 $-1 #
coedge $-1 $264 $263 $262 $383 reversed $101 $-1 #
edge $-1 $501 -4.3116084793632083 $394 -1.3116084793632079 $262 $502 forward 7 unknown #
coedge $-1 $499 $503 $264 $385 forward $378 $-1 #
edge $-1 $387 -59.743034150212104 $501 59.743034150212104 $384 $504 forward 7 unknown #
coedge $-1 $271 $265 $503 $505 reversed $272 $-1 #
vertex $-1 $266 $506 #
straight-curve $-1 59.743034150212104 -15.941363103021171 2.8116084793632079 0 0 1 I I #
edge $-1 $394 5.784122204397466 $392 14.530359592849944 $380 $507 forward 7 unknown #
coedge $-1 $508 $268 $271 $396 reversed $260 $-1 #
coedge $-1 $268 $508 $498 $509 forward $260 $-1 #
vertex $-1 $269 $510 #
straight-curve $-1 0 -24.687600491473649 4.1232169587264158 1 0 0 I I #
vertex $-1 $389 $511 #
straight-curve $-1 0 -15.941363103021171 4.1232169587264158 1 0 0 I I #
edge $-1 $512 -7.1232169587264158 $273 -4.1232169587264158 $271 $513 forward 7 unknown #
point $-1 59.743034150212104 -24.687600491473649 4.1232169587264158 #
point $-1 59.743034150212104 -15.941363103021171 4.1232169587264158 #
loop $-1 $-1 $408 $276 #
plane-surface $-1 59.743034150212104 0 0 -1 0 0 0 0 1 forward_v I I I I #
coedge $-1 $402 $279 $287 $414 reversed $168 $-1 #
coedge $-1 $279 $401 $514 $515 forward $168 $-1 #
coedge $-1 $408 $516 $281 $404 forward $399 $-1 #
edge $-1 $406 79.225962238120047 $412 82.629639108251368 $403 $517 forward 7 unknown #
coedge $-1 $287 $282 $516 $518 forward $277 $-1 #
vertex $-1 $518 $519 #
straight-curve $-1 29.871518055398791 15.406180646897525 7.1232169587264167 1 0 0 I I #
coedge $-1 $514 $403 $284 $409 forward $399 $-1 #
edge $-1 $412 5.3827353623047305 $410 14.664155206880858 $408 $520 forward 7 unknown #
vertex $-1 $409 $521 #
straight-curve $-1 3.4924568952655815 24.687600491473649 59.970118648842082 -0.70710677298230462 0 0.70710678939079052 I I #
vertex $-1 $409 $522 #
straight-curve $-1 -24.746374022044073 15.406180646897525 88.208950221436737 -0.70710677298230451 0 0.70710678939079041 I I #
edge $-1 $523 -59.743034150212104 $288 -56.339357359063449 $401 $524 forward 7 unknown #
point $-1 56.339357359063449 24.687600491473653 7.1232169587264167 #
point $-1 56.339357359063449 15.406180646897525 7.1232169587264167 #
edge $-1 $525 1 $525 0 $291 $-1 forward 7 unknown #
vertex $-1 $292 $526 #
ellipse-curve $-1 57.334088965246963 17.26246461581275 4.7142717506784404 0.70710678939079041 0 0.70710677298230451 0.35355338649115226 0 -0.35355339469539521 1 I I #
point $-1 58.394749141128905 17.26246461581275 5.0678251289653495 #
edge $-1 $527 1 $527 0 $295 $-1 forward 7 unknown #
vertex $-1 $296 $528 #
ellipse-curve $-1 57.334088965246963 20.046890569185589 4.7142717506784404 0.70710678939079041 0 0.70710677298230451 0.35355338649115226 0 -0.35355339469539521 1 I I #
point $-1 58.394749141128905 20.046890569185589 5.0678251289653495 #
edge $-1 $529 1 $529 0 $299 $-1 forward 7 unknown #
vertex $-1 $300 $530 #
ellipse-curve $-1 57.334088965246963 22.831316522558428 4.7142717506784404 0.70710678939079041 0 0.70710677298230451 0.35355338649115226 0 -0.35355339469539521 1 I I #
point $-1 58.394749141128905 22.831316522558428 5.0678251289653495 #
plane-surface $-1 0 0 7.1232169587264158 0 0 1 1 0 0 forward_v I I I I #
coedge $-1 $440 $439 $432 $531 forward $304 $-1 #
coedge $-1 $432 $306 $308 $436 reversed $197 $-1 #
coedge $-1 $306 $431 $430 $531 reversed $197 $-1 #
coedge $-1 $314 $309 $306 $434 forward $315 $-1 #
edge $-1 $437 -22.840812471508379 $532 -18.461613336861653 $433 $533 forward 7 unknown #
coedge $-1 $308 $307 $440 $534 reversed $124 $-1 #
edge $-1 $535 1.2080531203272332e-014 $437 7.4503387104177952 $431 $536 forward 7 unknown #
vertex $-1 $310 $537 #
straight-curve $-1 -55.363835015565378 -1.6753791711814916 7.1232169587264167 0 1 0 I I #
coedge $-1 $430 $311 $314 $444 reversed $304 $-1 #
coedge $-1 $311 $430 $435 $534 forward $304 $-1 #
vertex $-1 $312 $538 #
straight-curve $-1 -59.743034150212104 -7.6183444447876614 35.663956861343607 0 0 1 I I #
straight-curve $-1 -59.743034150212111 -7.6183444447876614 1.0957662671770265 -0.5877852410284794 0 -0.80901700255871778 I I #
edge $-1 $532 -0.91682776006169497 $316 7.6183444447876614 $439 $539 forward 7 unknown #
point $-1 -59.743034150212104 -7.6183444447876614 7.1232169587264158 #
point $-1 -55.363835015565378 -7.6183444447876614 7.1232169587264158 #
edge $-1 $540 1 $540 0 $319 $-1 forward 7 unknown #
vertex $-1 $320 $541 #
ellipse-curve $-1 -56.744417580330015 -5.1797238148307052 3.521706371923242 -0.80901700255871778 0 0.5877852410284794 0.2938926205142397 0 0.40450850127935889 1 I I #
point $-1 -57.259541962374499 -5.1797238148307052 4.5140001142310808 #
edge $-1 $542 1 $542 0 $323 $-1 forward 7 unknown #
vertex $-1 $324 $543 #
ellipse-curve $-1 -56.744417580330015 -1.5217928698952683 3.521706371923242 -0.80901700255871778 0 0.5877852410284794 0.2938926205142397 0 0.40450850127935889 1 I I #
point $-1 -57.259541962374499 -1.5217928698952683 4.5140001142310808 #
loop $-1 $-1 $335 $327 #
plane-surface $-1 -59.743034150212104 0 0 1 0 0 0 0 -1 forward_v I I I I #
coedge $-1 $458 $330 $332 $462 reversed $219 $-1 #
coedge $-1 $330 $457 $544 $545 reversed $219 $-1 #
coedge $-1 $338 $333 $330 $460 forward $328 $-1 #
edge $-1 $463 -22.840812471508379 $546 -18.461613336861653 $459 $547 forward 7 unknown #
coedge $-1 $332 $331 $466 $548 reversed $138 $-1 #
edge $-1 $549 1.2080531203272332e-014 $463 7.4503387104177952 $457 $550 forward 7 unknown #
vertex $-1 $334 $551 #
straight-curve $-1 -55.363835015565378 8.4818617274422134 7.1232169587264167 0 1 0 I I #
coedge $-1 $544 $335 $338 $470 reversed $455 $-1 #
coedge $-1 $335 $544 $461 $548 forward $455 $-1 #
vertex $-1 $336 $552 #
straight-curve $-1 -59.743034150212104 12.696137352459749 35.663956861343607 0 0 1 I I #
straight-curve $-1 -59.743034150212111 12.696137352459749 1.0957662671770265 -0.5877852410284794 0 -0.80901700255871778 I I #
edge $-1 $546 -21.231309557309103 $339 -12.696137352459749 $465 $553 forward 7 unknown #
point $-1 -59.743034150212104 12.696137352459749 7.1232169587264158 #
point $-1 -55.363835015565378 12.696137352459749 7.1232169587264158 #
edge $-1 $554 1 $554 0 $342 $-1 forward 7 unknown #
vertex $-1 $343 $555 #
ellipse-curve $-1 -56.744417580330015 15.134757982416705 3.521706371923242 -0.80901700255871778 0 0.5877852410284794 0.2938926205142397 0 0.40450850127935889 1 I I #
point $-1 -57.259541962374499 15.134757982416705 4.5140001142310808 #
edge $-1 $556 1 $556 0 $346 $-1 forward 7 unknown #
vertex $-1 $347 $557 #
ellipse-curve $-1 -56.744417580330015 18.792688927352142 3.521706371923242 -0.80901700255871778 0 0.5877852410284794 0.2938926205142397 0 0.40450850127935889 1 I I #
point $-1 -57.259541962374499 18.792688927352142 4.5140001142310808 #
plane-surface $-1 59.743034150212104 0 0 -1 0 0 0 0 1 forward_v I I I I #
coedge $-1 $355 $353 $357 $486 reversed $241 $-1 #
edge $-1 $368 -7.1232169587264158 $488 7.1232169587264158 $367 $558 forward 7 unknown #
vertex $-1 $486 $559 #
straight-curve $-1 -59.743034150212104 -24.687600491473649 0 0 0 -1 I I #
edge $-1 $484 -24.687600491473649 $488 24.687600491473649 $482 $560 forward 7 unknown #
straight-curve $-1 0 -24.687600491473649 -7.1232169587264158 -1 0 0 I I #
vertex $-1 $360 $561 #
straight-curve $-1 0 24.687600491473649 -7.1232169587264158 1 0 0 I I #
point $-1 59.743034150212104 24.687600491473649 -7.1232169587264158 #
point $-1 59.743034150212104 -24.687600491473649 -7.1232169587264158 #
straight-curve $-1 -59.743034150212104 0 7.1232169587264158 0 -1 0 I I #
point $-1 -59.743034150212104 24.687600491473649 7.1232169587264158 #
point $-1 -59.743034150212104 -24.687600491473649 7.1232169587264158 #
straight-curve $-1 59.743034150212104 -24.687600491473649 0 0 0 -1 I I #
straight-curve $-1 59.743034150212104 24.687600491473649 0 0 0 -1 I I #
plane-surface $-1 59.743034150212104 0 0 -1 0 0 0 0 1 forward_v I I I I #
coedge $-1 $381 $380 $391 $509 reversed $160 $-1 #
coedge $-1 $562 $384 $381 $500 forward $378 $-1 #
edge $-1 $501 15.941363103021171 $563 24.687600491473649 $381 $564 forward 7 unknown #
vertex $-1 $500 $565 #
straight-curve $-1 -59.743034150212104 -15.941363103021171 2.8116084793632079 0 0 -1 I I #
coedge $-1 $384 $562 $386 $505 forward $378 $-1 #
straight-curve $-1 0 -15.941363103021171 7.1232169587264158 -1 0 0 I I #
edge $-1 $512 -24.687600491473649 $387 -15.941363103021171 $386 $566 forward 7 unknown #
point $-1 59.743034150212104 -15.941363103021171 7.1232169587264158 #
straight-curve $-1 -59.743034150212104 -10.157240898623705 4.1232169587264158 0 -1 0 I I #
coedge $-1 $391 $390 $562 $567 reversed $260 $-1 #
edge $-1 $563 -7.1232169587264158 $392 -4.1232169587264158 $498 $568 forward 7 unknown #
point $-1 -59.743034150212104 -24.687600491473649 4.1232169587264158 #
point $-1 -59.743034150212104 -15.941363103021171 4.1232169587264158 #
vertex $-1 $505 $569 #
straight-curve $-1 59.743034150212104 -24.687600491473649 0 0 0 -1 I I #
coedge $-1 $516 $408 $402 $515 reversed $399 $-1 #
edge $-1 $523 -7.1232169587264158 $410 -3.719540088595096 $514 $570 forward 7 unknown #
coedge $-1 $403 $514 $405 $518 reversed $399 $-1 #
straight-curve $-1 59.743034150212104 15.406180646897525 86.349179196846464 0 0 -1 I I #
edge $-1 $406 15.406180646897525 $523 24.687600491473649 $516 $571 forward 7 unknown #
point $-1 59.743034150212104 15.406180646897525 7.1232169587264158 #
straight-curve $-1 59.743034150212097 10.023445284592794 3.719540088595096 0 1 0 I I #
point $-1 59.743034150212104 24.687600491473653 3.719540088595096 #
point $-1 59.743034150212104 15.406180646897525 3.719540088595096 #
vertex $-1 $518 $572 #
straight-curve $-1 0 24.687600491473649 7.1232169587264158 -1 0 0 I I #
vertex $-1 $417 $573 #
point $-1 57.687642351738113 17.26246461581275 4.3607183559830451 #
vertex $-1 $421 $574 #
point $-1 57.687642351738113 20.046890569185589 4.3607183559830451 #
vertex $-1 $425 $575 #
point $-1 57.687642351738113 22.831316522558428 4.3607183559830451 #
edge $-1 $532 28.54073990261719 $535 34.568190594166573 $430 $576 forward 7 unknown #
vertex $-1 $444 $577 #
straight-curve $-1 -78.204647487073757 0.91682776006169497 7.1232169587264167 -1 0 0 I I #
edge $-1 $535 -2.5922069312431866 $441 5.9429652736061698 $440 $578 forward 7 unknown #
vertex $-1 $534 $579 #
straight-curve $-1 -59.743034150212111 0.91682776006169497 1.0957662671770265 0.5877852410284794 0 0.80901700255871778 I I #
point $-1 -55.363835015565378 0.91682776006169497 7.1232169587264158 #
point $-1 -59.743034150212104 -7.6183444447876614 1.0957662671770363 #
straight-curve $-1 -59.743034150212104 0 7.1232169587264158 0 -1 0 I I #
vertex $-1 $447 $580 #
point $-1 -56.45052495981578 -5.1797238148307052 3.9262148732026008 #
vertex $-1 $451 $581 #
point $-1 -56.45052495981578 -1.5217928698952683 3.9262148732026008 #
coedge $-1 $466 $465 $458 $545 forward $455 $-1 #
edge $-1 $546 28.54073990261719 $549 34.568190594166573 $544 $582 forward 7 unknown #
vertex $-1 $470 $583 #
straight-curve $-1 -78.204647487073757 21.231309557309103 7.1232169587264167 -1 0 0 I I #
edge $-1 $549 -12.74944782986689 $467 -4.2142756250175353 $466 $584 forward 7 unknown #
vertex $-1 $548 $585 #
straight-curve $-1 -59.743034150212111 21.231309557309103 1.0957662671770265 0.5877852410284794 0 0.80901700255871778 I I #
point $-1 -55.363835015565378 21.231309557309103 7.1232169587264158 #
point $-1 -59.743034150212104 12.696137352459749 1.0957662671770363 #
straight-curve $-1 -59.743034150212104 0 7.1232169587264158 0 -1 0 I I #
vertex $-1 $473 $586 #
point $-1 -56.45052495981578 15.134757982416705 3.9262148732026008 #
vertex $-1 $477 $587 #
point $-1 -56.45052495981578 18.792688927352142 3.9262148732026008 #
straight-curve $-1 -59.743034150212104 24.687600491473649 0 0 0 -1 I I #
point $-1 -59.743034150212104 -24.687600491473649 -7.1232169587264158 #
straight-curve $-1 -59.743034150212104 0 -7.1232169587264158 0 1 0 I I #
point $-1 -59.743034150212104 24.687600491473649 -7.1232169587264158 #
coedge $-1 $503 $499 $508 $567 forward $378 $-1 #
vertex $-1 $500 $588 #
straight-curve $-1 -59.743034150212104 0 7.1232169587264158 0 -1 0 I I #
point $-1 -59.743034150212104 -15.941363103021171 7.1232169587264158 #
straight-curve $-1 59.743034150212104 0 7.1232169587264158 0 1 0 I I #
edge $-1 $563 -59.743034150212104 $512 59.743034150212104 $508 $589 forward 7 unknown #
straight-curve $-1 -59.743034150212104 -24.687600491473649 0 0 0 -1 I I #
point $-1 59.743034150212104 -24.687600491473649 7.1232169587264158 #
straight-curve $-1 59.743034150212104 24.687600491473649 0 0 0 -1 I I #
straight-curve $-1 59.743034150212104 0 7.1232169587264158 0 1 0 I I #
point $-1 59.743034150212104 24.687600491473649 7.1232169587264158 #
point $-1 56.980535570551567 17.26246461581275 4.3607183641872886 #
point $-1 56.980535570551567 20.046890569185589 4.3607183641872886 #
point $-1 56.980535570551567 22.831316522558428 4.3607183641872886 #
straight-curve $-1 -59.743034150212104 0.91682776006169497 35.663956861343607 0 0 -1 I I #
point $-1 -59.743034150212104 0.91682776006169497 7.1232169587264158 #
straight-curve $-1 -59.743034150212104 -1.6753791711814916 1.0957662671770376 0 -1 0 I I #
point $-1 -59.743034150212104 0.91682776006169497 1.0957662671770363 #
point $-1 -56.339909079050663 -5.1797238148307052 3.2278137514090024 #
point $-1 -56.339909079050663 -1.5217928698952683 3.2278137514090024 #
straight-curve $-1 -59.743034150212104 21.231309557309103 35.663956861343607 0 0 -1 I I #
point $-1 -59.743034150212104 21.231309557309103 7.1232169587264158 #
straight-curve $-1 -59.743034150212104 8.4818617274422134 1.0957662671770376 0 -1 0 I I #
point $-1 -59.743034150212104 21.231309557309103 1.0957662671770363 #
point $-1 -56.339909079050663 15.134757982416705 3.2278137514090024 #
point $-1 -56.339909079050663 18.792688927352142 3.2278137514090024 #
point $-1 -59.743034150212104 -24.687600491473649 7.1232169587264158 #
straight-curve $-1 0 -24.687600491473649 7.1232169587264158 1 0 0 I I #
End-of-ACIS-data 