500 0 5 0           
7 Unknown 11 ACIS 5.0 NT 24 Thu Mar 25 18:19:46 1999 
-1 9.9999999999999995e-007 1e-010 
body $-1 $5 $-1 $6 #
body $-1 $7 $-1 $8 #
body $-1 $9 $-1 $10 #
body $-1 $11 $-1 $12 #
body $-1 $13 $-1 $14 #
lump $-1 $-1 $15 $0 #
transform $-1 1 0 0 0 1 0 0 0 1 78.308053834650707 35.28869148008166 16.696083987417399 1 rotate no_reflect no_shear #
lump $-1 $-1 $16 $1 #
transform $-1 1 0 0 0 1 0 0 0 1 78.308053834650707 35.28869148008166 16.696083987417399 1 rotate no_reflect no_shear #
lump $-1 $-1 $17 $2 #
transform $-1 1 0 0 0 1 0 0 0 1 78.308053834650707 35.28869148008166 16.696083987417399 1 rotate no_reflect no_shear #
lump $-1 $-1 $18 $3 #
transform $-1 1 0 0 0 1 0 0 0 1 78.308053834650707 35.28869148008166 16.696083987417399 1 rotate no_reflect no_shear #
lump $-1 $-1 $19 $4 #
transform $-1 1 0 0 0 1 0 0 0 1 78.308053834650707 35.28869148008166 16.696083987417399 1 rotate no_reflect no_shear #
shell $-1 $-1 $-1 $20 $-1 $5 #
shell $-1 $-1 $-1 $21 $-1 $7 #
shell $-1 $-1 $-1 $22 $-1 $9 #
shell $-1 $-1 $-1 $23 $-1 $11 #
shell $-1 $-1 $-1 $24 $-1 $13 #
face $-1 $25 $26 $15 $-1 $27 forward single #
face $-1 $28 $29 $16 $-1 $30 forward single #
face $-1 $31 $32 $17 $-1 $33 reversed single #
face $-1 $34 $35 $18 $-1 $36 forward single #
face $-1 $37 $38 $19 $-1 $39 forward single #
face $-1 $40 $41 $15 $-1 $42 reversed single #
loop $-1 $-1 $43 $20 #
plane-surface $-1 0 0 16.696083987417399 0 0 1 1 0 0 forward_v I I I I #
face $-1 $44 $45 $16 $-1 $46 reversed single #
loop $-1 $-1 $47 $21 #
plane-surface $-1 0 -35.28869148008166 0 0 1 0 0 0 1 forward_v I I I I #
face $-1 $48 $49 $17 $-1 $50 reversed single #
loop $-1 $-1 $51 $22 #
plane-surface $-1 20.982581440693053 15.524519441428872 217.73102573065648 0 -1 0 -0.50000000669873634 0 -0.8660253999169214 forward_v I I I I #
face $-1 $52 $53 $18 $-1 $54 forward single #
loop $-1 $55 $56 $23 #
cone-surface $-1 66.861486223293525 9.6384748218077618 9.7766873930472862 -0.50000000669873634 0 -0.8660253999169214 0.8660253999169214 0 -0.50000000669873634 1 I I 0 1 1 forward I I I I #
face $-1 $57 $58 $19 $-1 $59 forward single #
loop $-1 $60 $61 $24 #
cone-surface $-1 66.861486223293525 13.170101593580426 9.7766873930472862 -0.50000000669873634 0 -0.8660253999169214 0.8660253999169214 0 -0.50000000669873634 1 I I 0 1 1 forward I I I I #
face $-1 $62 $63 $15 $-1 $64 reversed single #
loop $-1 $-1 $65 $25 #
plane-surface $-1 0 0 -16.696083987417399 0 0 1 1 0 0 forward_v I I I I #
coedge $-1 $66 $67 $68 $69 forward $26 $-1 #
face $-1 $70 $71 $16 $-1 $72 forward single #
loop $-1 $-1 $73 $28 #
plane-surface $-1 -78.308053834650707 0 0 1 0 0 0 0 -1 forward_v I I I I #
coedge $-1 $74 $75 $76 $77 forward $29 $-1 #
face $-1 $78 $79 $17 $-1 $80 reversed single #
loop $-1 $-1 $81 $31 #
plane-surface $-1 -57.32547344308766 11.404288207694094 82.097498452918103 0.50000000669873634 0 0.8660253999169214 0.8660253999169214 0 -0.50000000669873634 forward_v I I I I #
coedge $-1 $82 $83 $84 $85 reversed $32 $-1 #
face $-1 $-1 $86 $18 $-1 $87 forward single #
loop $-1 $88 $89 $34 #
cone-surface $-1 66.342396888661796 9.6384748218077618 8.8775983078587153 -0.50000000669873634 0 -0.8660253999169214 0.4330126999584607 0 -0.25000000334936817 1 I I -0.70710678118654746 0.70710678118654746 0.5 forward I I I I #
loop $-1 $-1 $90 $23 #
coedge $-1 $56 $56 $91 $92 reversed $35 $-1 #
face $-1 $-1 $93 $19 $-1 $94 forward single #
loop $-1 $95 $96 $37 #
cone-surface $-1 66.342396888661796 13.170101593580426 8.8775983078587153 -0.50000000669873634 0 -0.8660253999169214 0.4330126999584607 0 -0.25000000334936817 1 I I -0.70710678118654746 0.70710678118654746 0.5 forward I I I I #
loop $-1 $-1 $97 $24 #
coedge $-1 $61 $61 $98 $99 reversed $38 $-1 #
face $-1 $100 $101 $15 $-1 $102 reversed single #
loop $-1 $-1 $103 $40 #
plane-surface $-1 0 -35.28869148008166 0 0 1 0 0 0 1 forward_v I I I I #
coedge $-1 $104 $105 $106 $107 forward $41 $-1 #
coedge $-1 $108 $43 $109 $110 forward $26 $-1 #
coedge $-1 $43 $108 $111 $112 forward $26 $-1 #
coedge $-1 $113 $114 $43 $69 reversed $115 $-1 #
edge $-1 $116 -35.28869148008166 $117 35.28869148008166 $68 $118 forward 7 unknown #
face $-1 $119 $120 $16 $-1 $121 reversed single #
loop $-1 $-1 $122 $44 #
plane-surface $-1 0 -44.230637542310944 0.9721081001870191 0 0 1 1 0 0 forward_v I I I I #
coedge $-1 $123 $124 $75 $125 forward $45 $-1 #
coedge $-1 $126 $47 $127 $128 reversed $29 $-1 #
coedge $-1 $47 $126 $73 $125 reversed $29 $-1 #
coedge $-1 $129 $122 $47 $77 reversed $71 $-1 #
edge $-1 $130 -78.308053834650707 $131 78.308053834650707 $76 $132 forward 7 unknown #
face $-1 $133 $134 $17 $-1 $135 reversed single #
loop $-1 $-1 $136 $48 #
plane-surface $-1 20.982581440693053 7.2840569739593164 217.73102573065648 0 1 0 0.50000000669873634 0 0.8660253999169214 forward_v I I I I #
coedge $-1 $137 $138 $139 $140 reversed $49 $-1 #
coedge $-1 $83 $51 $141 $142 reversed $32 $-1 #
coedge $-1 $51 $82 $137 $143 reversed $32 $-1 #
coedge $-1 $139 $144 $51 $85 forward $145 $-1 #
edge $-1 $146 -67.81676311430418 $147 -45.461806554154421 $84 $148 forward 7 unknown #
loop $-1 $-1 $91 $52 #
plane-surface $-1 -57.32547344308766 11.404288207694094 82.097498452918103 0.50000000669873634 0 0.8660253999169214 0.8660253999169214 0 -0.50000000669873634 forward_v I I I I #
loop $-1 $-1 $149 $34 #
coedge $-1 $89 $89 $90 $150 reversed $53 $-1 #
coedge $-1 $90 $90 $89 $150 forward $55 $-1 #
coedge $-1 $91 $91 $56 $92 forward $86 $-1 #
edge $-1 $151 0 $151 6.2831853071796004 $91 $152 forward 7 unknown #
loop $-1 $-1 $98 $57 #
plane-surface $-1 -57.32547344308766 11.404288207694094 82.097498452918103 0.50000000669873634 0 0.8660253999169214 0.8660253999169214 0 -0.50000000669873634 forward_v I I I I #
loop $-1 $-1 $153 $37 #
coedge $-1 $96 $96 $97 $154 reversed $58 $-1 #
coedge $-1 $97 $97 $96 $154 forward $60 $-1 #
coedge $-1 $98 $98 $61 $99 forward $93 $-1 #
edge $-1 $155 0 $155 6.2831853071796004 $98 $156 forward 7 unknown #
face $-1 $157 $158 $15 $-1 $159 reversed single #
loop $-1 $-1 $160 $62 #
plane-surface $-1 -78.308053834650707 0 0 1 0 0 0 0 -1 forward_v I I I I #
coedge $-1 $161 $111 $162 $163 forward $63 $-1 #
coedge $-1 $164 $65 $161 $165 forward $41 $-1 #
coedge $-1 $65 $164 $166 $167 forward $41 $-1 #
coedge $-1 $114 $113 $65 $107 reversed $115 $-1 #
edge $-1 $168 -35.28869148008166 $169 35.28869148008166 $106 $170 forward 7 unknown #
coedge $-1 $67 $66 $171 $172 forward $26 $-1 #
coedge $-1 $173 $174 $66 $110 reversed $158 $-1 #
edge $-1 $117 -78.308053834650707 $175 78.308053834650707 $109 $176 forward 7 unknown #
coedge $-1 $103 $177 $67 $112 reversed $63 $-1 #
edge $-1 $178 -78.308053834650707 $116 78.308053834650707 $111 $179 forward 7 unknown #
coedge $-1 $106 $68 $177 $180 forward $115 $-1 #
coedge $-1 $68 $106 $173 $181 reversed $115 $-1 #
loop $-1 $-1 $113 $157 #
vertex $-1 $69 $182 #
vertex $-1 $69 $183 #
straight-curve $-1 78.308053834650707 0 16.696083987417399 0 1 0 I I #
face $-1 $184 $185 $16 $-1 $186 reversed single #
loop $-1 $-1 $187 $70 #
plane-surface $-1 0 -44.230637542310944 -7.3469410904306445 0 0 1 1 0 0 forward_v I I I I #
coedge $-1 $76 $188 $189 $190 forward $71 $-1 #
coedge $-1 $191 $73 $192 $193 reversed $45 $-1 #
coedge $-1 $73 $191 $129 $194 reversed $45 $-1 #
edge $-1 $130 -0.9721081001870191 $195 7.3469410904306445 $73 $196 forward 7 unknown #
coedge $-1 $75 $74 $197 $198 forward $29 $-1 #
coedge $-1 $189 $199 $74 $128 forward $200 $-1 #
edge $-1 $201 -7.3469410904306445 $131 0.9721081001870191 $127 $202 forward 7 unknown #
coedge $-1 $188 $76 $124 $194 forward $71 $-1 #
vertex $-1 $125 $203 #
vertex $-1 $190 $204 #
straight-curve $-1 0 -35.28869148008166 0.9721081001870191 1 0 0 I I #
face $-1 $-1 $145 $17 $-1 $205 forward single #
loop $-1 $-1 $206 $78 #
plane-surface $-1 78.308053834650707 0 0 -1 0 0 0 0 1 forward_v I I I I #
coedge $-1 $207 $208 $209 $210 reversed $79 $-1 #
coedge $-1 $211 $81 $83 $143 forward $49 $-1 #
coedge $-1 $81 $211 $207 $212 forward $49 $-1 #
coedge $-1 $209 $84 $81 $140 forward $145 $-1 #
edge $-1 $147 -9.8223753375818248 $213 -1.5819128701122693 $139 $214 forward 7 unknown #
coedge $-1 $215 $216 $82 $142 forward $134 $-1 #
edge $-1 $217 -105.07606929619085 $146 -92.169428877910846 $141 $218 forward 7 unknown #
edge $-1 $147 130.80282717857412 $217 156.61610766930141 $83 $219 forward 7 unknown #
coedge $-1 $84 $209 $215 $220 forward $145 $-1 #
loop $-1 $-1 $209 $133 #
vertex $-1 $142 $221 #
vertex $-1 $85 $222 #
straight-curve $-1 10.491290720346527 15.524519441428872 16.696083987417396 -1 0 0 I I #
coedge $-1 $149 $149 $-1 $223 reversed $88 $-1 #
edge $-1 $224 0 $224 6.2831853071796004 $89 $225 forward 7 unknown #
vertex $-1 $92 $226 #
ellipse-curve $-1 67.13057555457587 9.6384748218077618 10.242763778277375 0.50000000669873634 0 0.8660253999169214 0.8660253999169214 0 -0.50000000669873634 1 I I #
coedge $-1 $153 $153 $-1 $227 reversed $95 $-1 #
edge $-1 $228 0 $228 6.2831853071796004 $96 $229 forward 7 unknown #
vertex $-1 $99 $230 #
ellipse-curve $-1 67.13057555457587 13.170101593580426 10.242763778277375 0.50000000669873634 0 0.8660253999169214 0.8660253999169214 0 -0.50000000669873634 1 I I #
face $-1 $-1 $115 $15 $-1 $231 reversed single #
loop $-1 $-1 $173 $100 #
plane-surface $-1 0 35.28869148008166 0 0 -1 0 0 0 -1 forward_v I I I I #
coedge $-1 $232 $171 $174 $233 forward $101 $-1 #
coedge $-1 $177 $103 $104 $165 reversed $63 $-1 #
coedge $-1 $171 $232 $103 $163 reversed $101 $-1 #
edge $-1 $178 -16.696083987417399 $234 16.696083987417399 $162 $235 forward 7 unknown #
coedge $-1 $105 $104 $232 $236 forward $41 $-1 #
edge $-1 $169 -78.308053834650707 $234 78.308053834650707 $161 $237 forward 7 unknown #
coedge $-1 $174 $173 $105 $167 reversed $158 $-1 #
edge $-1 $238 -78.308053834650707 $168 78.308053834650707 $166 $239 forward 7 unknown #
vertex $-1 $107 $240 #
vertex $-1 $180 $241 #
straight-curve $-1 78.308053834650707 0 -16.696083987417399 0 -1 0 I I #
coedge $-1 $160 $162 $108 $172 reversed $101 $-1 #
edge $-1 $175 -35.28869148008166 $178 35.28869148008166 $171 $242 forward 7 unknown #
coedge $-1 $166 $109 $114 $181 forward $158 $-1 #
coedge $-1 $109 $166 $160 $233 reversed $158 $-1 #
vertex $-1 $110 $243 #
straight-curve $-1 0 35.28869148008166 16.696083987417399 -1 0 0 I I #
coedge $-1 $111 $161 $113 $180 reversed $63 $-1 #
vertex $-1 $172 $244 #
straight-curve $-1 0 -35.28869148008166 16.696083987417399 1 0 0 I I #
edge $-1 $116 -16.696083987417399 $169 16.696083987417399 $113 $245 forward 7 unknown #
edge $-1 $117 -16.696083987417399 $168 16.696083987417399 $114 $246 forward 7 unknown #
point $-1 78.308053834650707 -35.28869148008166 16.696083987417399 #
point $-1 78.308053834650707 35.28869148008166 16.696083987417399 #
face $-1 $-1 $200 $16 $-1 $247 reversed single #
loop $-1 $-1 $248 $119 #
plane-surface $-1 0 -53.172583604540236 -3.1874164951218127 0 1 0 0 0 1 forward_v I I I I #
coedge $-1 $249 $197 $199 $250 forward $120 $-1 #
coedge $-1 $122 $129 $251 $252 forward $71 $-1 #
coedge $-1 $253 $127 $122 $190 reversed $200 $-1 #
edge $-1 $254 -8.9419460622292917 $131 8.9419460622292917 $189 $255 forward 7 unknown #
coedge $-1 $124 $123 $248 $256 reversed $45 $-1 #
coedge $-1 $197 $249 $123 $193 forward $120 $-1 #
edge $-1 $257 -8.9419460622292917 $195 8.9419460622292917 $123 $258 forward 7 unknown #
edge $-1 $130 -8.9419460622292917 $259 8.9419460622292917 $124 $260 forward 7 unknown #
vertex $-1 $125 $261 #
straight-curve $-1 -78.308053834650707 -35.28869148008166 0 0 0 -1 I I #
coedge $-1 $187 $192 $126 $198 reversed $120 $-1 #
edge $-1 $201 -78.308053834650707 $195 78.308053834650707 $197 $262 forward 7 unknown #
coedge $-1 $127 $253 $187 $250 reversed $200 $-1 #
loop $-1 $-1 $127 $184 #
vertex $-1 $128 $263 #
straight-curve $-1 78.308053834650707 -35.28869148008166 0 0 0 1 I I #
point $-1 -78.308053834650707 -35.288691480081653 0.9721081001870191 #
point $-1 78.308053834650707 -35.288691480081653 0.9721081001870191 #
plane-surface $-1 0 0 16.696083987417399 0 0 1 1 0 0 forward_v I I I I #
coedge $-1 $216 $215 $208 $264 forward $134 $-1 #
coedge $-1 $208 $136 $138 $212 reversed $79 $-1 #
coedge $-1 $136 $207 $206 $264 reversed $79 $-1 #
coedge $-1 $144 $139 $136 $210 forward $145 $-1 #
edge $-1 $213 45.461806554154421 $265 67.81676311430418 $209 $266 forward 7 unknown #
coedge $-1 $138 $137 $216 $267 reversed $49 $-1 #
edge $-1 $268 -156.61610766930141 $213 -130.80282717857412 $207 $269 forward 7 unknown #
vertex $-1 $140 $270 #
straight-curve $-1 55.953097274500919 5.7021441038470471 16.69608398741741 0 -1 0 I I #
coedge $-1 $206 $141 $144 $220 reversed $134 $-1 #
coedge $-1 $141 $206 $211 $267 forward $134 $-1 #
vertex $-1 $142 $271 #
straight-curve $-1 78.308053834650707 15.524519441428872 108.86551286532824 0 0 1 I I #
straight-curve $-1 -57.32547344308766 15.524519441428872 82.097498452918103 0.8660253999169214 0 -0.50000000669873634 I I #
edge $-1 $265 7.2840569739593164 $146 15.524519441428872 $215 $272 forward 7 unknown #
point $-1 78.308053834650707 15.524519441428872 16.696083987417399 #
point $-1 55.953097274500948 15.524519441428872 16.696083987417396 #
edge $-1 $273 1 $273 0 $149 $-1 forward 7 unknown #
vertex $-1 $150 $274 #
ellipse-curve $-1 66.592396892011166 9.6384748218077618 9.310611007817176 0.50000000669873634 0 0.8660253999169214 0.8660253999169214 0 -0.50000000669873634 1 I I #
point $-1 67.996600954492791 9.6384748218077618 9.7427637715786588 #
edge $-1 $275 1 $275 0 $153 $-1 forward 7 unknown #
vertex $-1 $154 $276 #
ellipse-curve $-1 66.592396892011166 13.170101593580426 9.310611007817176 0.50000000669873634 0 0.8660253999169214 0.8660253999169214 0 -0.50000000669873634 1 I I #
point $-1 67.996600954492791 13.170101593580426 9.7427637715786588 #
plane-surface $-1 78.308053834650707 0 0 -1 0 0 0 0 1 forward_v I I I I #
coedge $-1 $162 $160 $164 $236 reversed $101 $-1 #
edge $-1 $175 -16.696083987417399 $238 16.696083987417399 $174 $277 forward 7 unknown #
vertex $-1 $236 $278 #
straight-curve $-1 -78.308053834650707 -35.28869148008166 0 0 0 -1 I I #
edge $-1 $234 -35.28869148008166 $238 35.28869148008166 $232 $279 forward 7 unknown #
straight-curve $-1 0 -35.28869148008166 -16.696083987417399 -1 0 0 I I #
vertex $-1 $167 $280 #
straight-curve $-1 0 35.28869148008166 -16.696083987417399 1 0 0 I I #
point $-1 78.308053834650707 35.28869148008166 -16.696083987417399 #
point $-1 78.308053834650707 -35.28869148008166 -16.696083987417399 #
straight-curve $-1 -78.308053834650707 0 16.696083987417399 0 -1 0 I I #
point $-1 -78.308053834650707 35.28869148008166 16.696083987417399 #
point $-1 -78.308053834650707 -35.28869148008166 16.696083987417399 #
straight-curve $-1 78.308053834650707 -35.28869148008166 0 0 0 -1 I I #
straight-curve $-1 78.308053834650707 35.28869148008166 0 0 0 -1 I I #
plane-surface $-1 78.308053834650707 0 0 -1 0 0 0 0 1 forward_v I I I I #
coedge $-1 $281 $251 $191 $256 forward $185 $-1 #
coedge $-1 $192 $187 $281 $282 forward $120 $-1 #
edge $-1 $201 -8.9419460622292917 $283 8.9419460622292917 $199 $284 forward 7 unknown #
coedge $-1 $248 $285 $188 $252 reversed $185 $-1 #
edge $-1 $259 -78.308053834650707 $254 78.308053834650707 $251 $286 forward 7 unknown #
coedge $-1 $199 $189 $285 $287 forward $200 $-1 #
vertex $-1 $190 $288 #
straight-curve $-1 78.308053834650707 -44.230637542310944 0.9721081001870191 0 1 0 I I #
edge $-1 $259 -4.1595245953088318 $257 4.1595245953088318 $191 $289 forward 7 unknown #
vertex $-1 $193 $290 #
straight-curve $-1 -78.308053834650707 -44.230637542310944 -7.3469410904306445 0 1 0 I I #
vertex $-1 $194 $291 #
straight-curve $-1 -78.308053834650707 -44.230637542310944 0.9721081001870191 0 -1 0 I I #
point $-1 -78.308053834650707 -35.288691480081653 -7.3469410904306445 #
straight-curve $-1 0 -35.28869148008166 -7.3469410904306445 -1 0 0 I I #
point $-1 78.308053834650707 -35.288691480081653 -7.3469410904306445 #
edge $-1 $265 92.169428877910846 $268 105.07606929619085 $206 $292 forward 7 unknown #
vertex $-1 $220 $293 #
straight-curve $-1 10.491290720346527 7.2840569739593164 16.696083987417396 1 0 0 I I #
edge $-1 $268 1.5819128701122693 $217 9.8223753375818248 $216 $294 forward 7 unknown #
vertex $-1 $267 $295 #
straight-curve $-1 -57.32547344308766 7.2840569739593164 82.097498452918103 -0.8660253999169214 0 0.50000000669873634 I I #
point $-1 55.953097274500948 7.2840569739593164 16.696083987417396 #
point $-1 78.308053834650721 15.524519441428872 3.78944356913739 #
straight-curve $-1 78.308053834650707 0 16.696083987417399 0 1 0 I I #
vertex $-1 $223 $296 #
point $-1 67.458422291928088 9.6384748218077618 8.8106110011184402 #
vertex $-1 $227 $297 #
point $-1 67.458422291928088 13.170101593580426 8.8106110011184402 #
straight-curve $-1 -78.308053834650707 35.28869148008166 0 0 0 -1 I I #
point $-1 -78.308053834650707 -35.28869148008166 -16.696083987417399 #
straight-curve $-1 -78.308053834650707 0 -16.696083987417399 0 1 0 I I #
point $-1 -78.308053834650707 35.28869148008166 -16.696083987417399 #
coedge $-1 $285 $248 $249 $282 reversed $185 $-1 #
edge $-1 $283 -78.308053834650707 $257 78.308053834650707 $281 $298 forward 7 unknown #
vertex $-1 $287 $299 #
straight-curve $-1 78.308053834650707 -44.230637542310944 -7.3469410904306445 0 -1 0 I I #
coedge $-1 $251 $281 $253 $287 reversed $185 $-1 #
straight-curve $-1 0 -53.172583604540236 0.9721081001870191 1 0 0 I I #
edge $-1 $254 -4.1595245953088318 $283 4.1595245953088318 $253 $300 forward 7 unknown #
point $-1 78.308053834650707 -53.172583604540236 0.9721081001870191 #
straight-curve $-1 -78.308053834650707 -53.172583604540236 -3.1874164951218127 0 0 -1 I I #
point $-1 -78.308053834650707 -53.172583604540236 -7.3469410904306445 #
point $-1 -78.308053834650707 -53.172583604540236 0.9721081001870191 #
straight-curve $-1 78.308053834650707 7.2840569739593164 108.86551286532824 0 0 -1 I I #
point $-1 78.308053834650707 7.2840569739593164 16.696083987417399 #
straight-curve $-1 78.308053834650707 5.7021441038470471 3.78944356913739 0 1 0 I I #
point $-1 78.308053834650721 7.2840569739593164 3.78944356913739 #
point $-1 66.092396885312425 9.6384748218077618 8.4445856079002546 #
point $-1 66.092396885312425 13.170101593580426 8.4445856079002546 #
straight-curve $-1 0 -53.172583604540236 -7.3469410904306445 -1 0 0 I I #
point $-1 78.308053834650707 -53.172583604540236 -7.3469410904306445 #
straight-curve $-1 78.308053834650707 -53.172583604540236 -3.1874164951218127 0 0 -1 I I #
End-of-ACIS-data 