500 0 6 0           
7 Unknown 11 ACIS 5.0 NT 24 Fri Mar 26 17:53:48 1999 
-1 9.9999999999999995e-007 1e-010 
body $-1 $6 $-1 $7 #
body $-1 $8 $-1 $9 #
body $-1 $10 $-1 $11 #
body $-1 $12 $-1 $13 #
body $-1 $14 $-1 $15 #
body $-1 $16 $-1 $17 #
lump $-1 $-1 $18 $0 #
transform $-1 1 0 0 0 1 0 0 0 1 55.159154026917321 27.298621698443782 8.9230594104184746 1 rotate no_reflect no_shear #
lump $-1 $-1 $19 $1 #
transform $-1 1 0 0 0 1 0 0 0 1 55.159154026917321 27.298621698443782 8.9230594104184746 1 rotate no_reflect no_shear #
lump $-1 $-1 $20 $2 #
transform $-1 1 0 0 0 1 0 0 0 1 55.159154026917321 27.298621698443782 8.9230594104184746 1 rotate no_reflect no_shear #
lump $-1 $-1 $21 $3 #
transform $-1 1 0 0 0 1 0 0 0 1 55.159154026917321 27.298621698443782 8.9230594104184746 1 rotate no_reflect no_shear #
lump $-1 $-1 $22 $4 #
transform $-1 1 0 0 0 1 0 0 0 1 55.159154026917321 27.298621698443782 8.9230594104184746 1 rotate no_reflect no_shear #
lump $-1 $-1 $23 $5 #
transform $-1 1 0 0 0 1 0 0 0 1 55.159154026917321 27.298621698443782 8.9230594104184746 1 rotate no_reflect no_shear #
shell $-1 $-1 $-1 $24 $-1 $6 #
shell $-1 $-1 $-1 $25 $-1 $8 #
shell $-1 $-1 $-1 $26 $-1 $10 #
shell $-1 $-1 $-1 $27 $-1 $12 #
shell $-1 $-1 $-1 $28 $-1 $14 #
shell $-1 $-1 $-1 $29 $-1 $16 #
face $-1 $30 $31 $18 $-1 $32 reversed single #
face $-1 $33 $34 $19 $-1 $35 forward single #
face $-1 $36 $37 $20 $-1 $38 reversed single #
face $-1 $39 $40 $21 $-1 $41 forward single #
face $-1 $42 $43 $22 $-1 $44 reversed single #
face $-1 $45 $46 $23 $-1 $47 forward single #
face $-1 $48 $49 $18 $-1 $50 forward single #
loop $-1 $-1 $51 $24 #
plane-surface $-1 0 -27.298621698443782 0 0 1 0 0 0 1 forward_v I I I I #
face $-1 $52 $53 $19 $-1 $54 forward single #
loop $-1 $-1 $55 $25 #
plane-surface $-1 0 -27.298621698443782 0 0 1 0 0 0 1 forward_v I I I I #
face $-1 $56 $57 $20 $-1 $58 reversed single #
loop $-1 $-1 $59 $26 #
plane-surface $-1 74.172436877328579 9.1141036728449265 155.19021791328521 0 -1 0 -0.78801076186113728 0 -0.61566146476048833 forward_v I I I I #
face $-1 $60 $61 $21 $-1 $62 forward single #
loop $-1 $63 $64 $27 #
cone-surface $-1 50.405717543534422 3.9022185850072191 3.537216128022092 -0.78801076186113728 0 -0.61566146476048833 1.2313229295209767 0 -1.5760215237222746 1 I I 0 1 2 forward I I I I #
face $-1 $65 $66 $22 $-1 $67 reversed single #
loop $-1 $-1 $68 $28 #
plane-surface $-1 -130.39606009901064 10.170858006698165 82.355205459830813 0 1 0 -0.68199836817093118 0 0.7313536940579346 forward_v I I I I #
face $-1 $69 $70 $23 $-1 $71 forward single #
loop $-1 $72 $73 $29 #
cone-surface $-1 -49.691930683638972 14.781929023641467 3.603804929225376 0.68199836817093118 0 -0.7313536940579346 1.0970305410869019 0 1.0229975522563968 1 I I 0 1 1.5 forward I I I I #
face $-1 $74 $75 $18 $-1 $76 reversed single #
loop $-1 $-1 $77 $30 #
plane-surface $-1 0 0 8.9230594104184746 0 0 1 1 0 0 forward_v I I I I #
coedge $-1 $78 $79 $80 $81 reversed $31 $-1 #
face $-1 $82 $83 $19 $-1 $84 reversed single #
loop $-1 $-1 $85 $33 #
plane-surface $-1 0 0 8.9230594104184746 0 0 1 1 0 0 forward_v I I I I #
coedge $-1 $86 $87 $88 $89 forward $34 $-1 #
face $-1 $90 $91 $20 $-1 $92 reversed single #
loop $-1 $-1 $93 $36 #
plane-surface $-1 -12.759577099405291 3.9022185850072191 87.271486786962598 0.78801076186113728 0 0.61566146476048833 0.61566146476048833 0 -0.78801076186113728 forward_v I I I I #
coedge $-1 $94 $95 $96 $97 reversed $37 $-1 #
face $-1 $-1 $98 $21 $-1 $99 forward single #
loop $-1 $100 $101 $39 #
cone-surface $-1 48.217386622926668 3.9022185850072191 1.8275046809600894 -0.78801076186113728 0 -0.61566146476048833 0.61566146476048833 0 -0.78801076186113728 1 I I -0.70710678118654746 0.70710678118654746 1 forward I I I I #
loop $-1 $-1 $102 $27 #
coedge $-1 $64 $64 $103 $104 reversed $40 $-1 #
face $-1 $105 $106 $22 $-1 $107 reversed single #
loop $-1 $-1 $108 $42 #
plane-surface $-1 -55.159154026917321 14.781929023641467 1.6735033424376553 -0.68199836817093118 0 0.7313536940579346 0.7313536940579346 0 0.68199836817093118 forward_v I I I I #
coedge $-1 $109 $110 $111 $112 reversed $43 $-1 #
face $-1 $-1 $113 $23 $-1 $114 forward single #
loop $-1 $115 $116 $45 #
cone-surface $-1 -47.600307022266449 14.781929023641467 1.3608132114792433 0.68199836817093118 0 -0.7313536940579346 0.54851527054345095 0 0.51149877612819838 1 I I -0.70710678118654757 0.70710678118654757 0.75 forward I I I I #
loop $-1 $-1 $117 $29 #
coedge $-1 $73 $73 $118 $119 reversed $46 $-1 #
face $-1 $120 $121 $18 $-1 $122 reversed single #
loop $-1 $-1 $123 $48 #
plane-surface $-1 0 0 -8.9230594104184746 0 0 1 1 0 0 forward_v I I I I #
coedge $-1 $124 $125 $126 $127 forward $49 $-1 #
coedge $-1 $128 $51 $129 $130 reversed $31 $-1 #
coedge $-1 $51 $128 $131 $132 forward $31 $-1 #
coedge $-1 $133 $123 $51 $81 forward $75 $-1 #
edge $-1 $134 -55.159154026917321 $135 55.159154026917321 $51 $136 forward 7 unknown #
face $-1 $137 $138 $19 $-1 $139 reversed single #
loop $-1 $-1 $140 $52 #
plane-surface $-1 -55.159154026917321 0 0 1 0 0 0 0 -1 forward_v I I I I #
coedge $-1 $141 $142 $87 $143 forward $53 $-1 #
coedge $-1 $144 $55 $145 $146 reversed $34 $-1 #
coedge $-1 $55 $144 $85 $143 reversed $34 $-1 #
coedge $-1 $147 $148 $55 $89 reversed $149 $-1 #
edge $-1 $150 -8.9230594104184746 $151 8.9230594104184746 $88 $152 forward 7 unknown #
face $-1 $153 $154 $20 $-1 $155 forward single #
loop $-1 $-1 $156 $56 #
plane-surface $-1 74.172436877328579 -1.3096665028304884 155.19021791328521 0 1 0 0.78801076186113728 0 0.61566146476048833 forward_v I I I I #
coedge $-1 $157 $158 $159 $160 reversed $57 $-1 #
coedge $-1 $95 $59 $161 $162 reversed $37 $-1 #
coedge $-1 $59 $94 $157 $163 reversed $37 $-1 #
coedge $-1 $159 $164 $59 $97 forward $154 $-1 #
edge $-1 $165 -18.072935588253031 $166 -11.366702938980445 $96 $167 forward 7 unknown #
loop $-1 $-1 $103 $60 #
plane-surface $-1 -12.759577099405291 3.9022185850072191 87.271486786962598 0.78801076186113728 0 0.61566146476048833 0.61566146476048833 0 -0.78801076186113728 forward_v I I I I #
loop $-1 $-1 $168 $39 #
coedge $-1 $101 $101 $102 $169 reversed $61 $-1 #
coedge $-1 $102 $102 $101 $169 forward $63 $-1 #
coedge $-1 $103 $103 $64 $104 forward $98 $-1 #
edge $-1 $170 0 $170 6.2831853071796004 $103 $171 forward 7 unknown #
face $-1 $172 $173 $22 $-1 $174 reversed single #
loop $-1 $-1 $175 $65 #
plane-surface $-1 -130.39606009901064 19.39300004058477 82.355205459830813 0 -1 0 0.68199836817093118 0 -0.7313536940579346 forward_v I I I I #
coedge $-1 $176 $177 $178 $179 reversed $66 $-1 #
coedge $-1 $110 $68 $180 $181 reversed $43 $-1 #
coedge $-1 $68 $109 $176 $182 reversed $43 $-1 #
coedge $-1 $178 $183 $68 $112 forward $184 $-1 #
edge $-1 $185 10.038876022587999 $186 17.813072938656035 $111 $187 forward 7 unknown #
loop $-1 $-1 $118 $69 #
plane-surface $-1 -55.159154026917321 14.781929023641467 1.6735033424376553 -0.68199836817093118 0 0.7313536940579346 0.7313536940579346 0 0.68199836817093118 forward_v I I I I #
loop $-1 $-1 $188 $45 #
coedge $-1 $116 $116 $117 $189 reversed $70 $-1 #
coedge $-1 $117 $117 $116 $189 forward $72 $-1 #
coedge $-1 $118 $118 $73 $119 forward $113 $-1 #
edge $-1 $190 0 $190 6.2831853071796004 $118 $191 forward 7 unknown #
face $-1 $192 $193 $18 $-1 $194 reversed single #
loop $-1 $-1 $195 $74 #
plane-surface $-1 -55.159154026917321 0 0 1 0 0 0 0 -1 forward_v I I I I #
coedge $-1 $80 $196 $197 $198 forward $75 $-1 #
coedge $-1 $199 $77 $200 $201 forward $49 $-1 #
coedge $-1 $77 $199 $128 $202 forward $49 $-1 #
coedge $-1 $129 $203 $77 $127 reversed $204 $-1 #
edge $-1 $205 -27.298621698443782 $206 27.298621698443782 $126 $207 forward 7 unknown #
coedge $-1 $79 $78 $125 $202 reversed $31 $-1 #
coedge $-1 $197 $126 $78 $130 forward $204 $-1 #
edge $-1 $205 -8.9230594104184746 $134 8.9230594104184746 $129 $208 forward 7 unknown #
coedge $-1 $209 $210 $79 $132 reversed $121 $-1 #
edge $-1 $211 -8.9230594104184746 $135 8.9230594104184746 $131 $212 forward 7 unknown #
coedge $-1 $196 $80 $210 $213 forward $75 $-1 #
vertex $-1 $130 $214 #
vertex $-1 $213 $215 #
straight-curve $-1 0 -27.298621698443782 -8.9230594104184746 -1 0 0 I I #
face $-1 $216 $149 $19 $-1 $217 reversed single #
loop $-1 $-1 $218 $82 #
plane-surface $-1 -52.741319999167374 -38.658288772152659 0 0 1 0 0 0 1 forward_v I I I I #
coedge $-1 $219 $220 $144 $221 forward $83 $-1 #
coedge $-1 $222 $85 $220 $223 forward $53 $-1 #
coedge $-1 $85 $222 $147 $224 forward $53 $-1 #
edge $-1 $150 50.323485971417426 $225 55.159154026917321 $85 $226 forward 7 unknown #
coedge $-1 $87 $86 $140 $221 reversed $34 $-1 #
coedge $-1 $227 $228 $86 $146 forward $229 $-1 #
edge $-1 $230 -55.159154026917321 $151 -50.323485971417426 $145 $231 forward 7 unknown #
coedge $-1 $232 $88 $142 $224 reversed $149 $-1 #
coedge $-1 $88 $232 $227 $233 reversed $149 $-1 #
loop $-1 $-1 $232 $137 #
vertex $-1 $143 $234 #
vertex $-1 $233 $235 #
straight-curve $-1 -50.323485971417426 -27.298621698443782 0 0 0 -1 I I #
face $-1 $-1 $236 $20 $-1 $237 reversed single #
loop $-1 $-1 $96 $90 #
plane-surface $-1 0 0 8.9230594104184746 0 0 1 1 0 0 forward_v I I I I #
coedge $-1 $238 $239 $240 $241 reversed $91 $-1 #
coedge $-1 $242 $93 $95 $163 forward $57 $-1 #
coedge $-1 $93 $242 $238 $243 forward $57 $-1 #
coedge $-1 $240 $96 $93 $160 forward $154 $-1 #
edge $-1 $166 -7.162994380341317 $244 3.2607757953340979 $159 $245 forward 7 unknown #
coedge $-1 $246 $247 $94 $162 forward $236 $-1 #
edge $-1 $248 -77.255636146413877 $165 -68.67204954622413 $161 $249 forward 7 unknown #
edge $-1 $166 99.425580421642294 $248 110.31830805383464 $95 $250 forward 7 unknown #
coedge $-1 $96 $240 $246 $251 forward $154 $-1 #
vertex $-1 $162 $252 #
vertex $-1 $97 $253 #
straight-curve $-1 37.086218438664289 9.1141036728449265 8.9230594104184746 -1 0 0 I I #
coedge $-1 $168 $168 $-1 $254 reversed $100 $-1 #
edge $-1 $255 0 $255 6.2831853071796004 $101 $256 forward 7 unknown #
vertex $-1 $104 $257 #
ellipse-curve $-1 51.806037702281024 3.9022185850072191 4.6312661103235966 0.78801076186113728 0 0.61566146476048833 1.2313229295209767 0 -1.5760215237222746 1 I I #
face $-1 $-1 $184 $22 $-1 $258 forward single #
loop $-1 $-1 $259 $105 #
plane-surface $-1 -55.159154026917321 0 0 1 0 0 0 0 -1 forward_v I I I I #
coedge $-1 $260 $261 $262 $263 reversed $106 $-1 #
coedge $-1 $264 $108 $110 $182 forward $66 $-1 #
coedge $-1 $108 $264 $260 $265 forward $66 $-1 #
coedge $-1 $262 $111 $108 $179 forward $184 $-1 #
edge $-1 $186 2.779893494877431 $266 12.002035528764036 $178 $267 forward 7 unknown #
coedge $-1 $268 $269 $109 $181 forward $173 $-1 #
edge $-1 $270 -39.504099387477751 $185 -32.254543319496932 $180 $271 forward 7 unknown #
edge $-1 $186 -10.629873041226752 $270 0 $110 $272 forward 7 unknown #
coedge $-1 $111 $262 $268 $273 forward $184 $-1 #
loop $-1 $-1 $262 $172 #
vertex $-1 $181 $274 #
vertex $-1 $112 $275 #
straight-curve $-1 -65.19803004950532 10.170858006698165 8.9230594104184746 1 0 0 I I #
coedge $-1 $188 $188 $-1 $276 reversed $115 $-1 #
edge $-1 $277 0 $277 6.2831853071796004 $116 $278 forward 7 unknown #
vertex $-1 $119 $279 #
ellipse-curve $-1 -51.272055568883303 14.781929023641467 5.298281376428065 -0.68199836817093118 0 0.7313536940579346 1.0970305410869019 0 1.0229975522563968 1 I I #
face $-1 $-1 $204 $18 $-1 $280 reversed single #
loop $-1 $-1 $281 $120 #
plane-surface $-1 0 27.298621698443782 0 0 -1 0 0 0 -1 forward_v I I I I #
coedge $-1 $210 $209 $282 $283 forward $121 $-1 #
coedge $-1 $123 $133 $284 $285 forward $75 $-1 #
coedge $-1 $203 $129 $123 $198 reversed $204 $-1 #
edge $-1 $286 -27.298621698443782 $134 27.298621698443782 $197 $287 forward 7 unknown #
coedge $-1 $125 $124 $209 $288 forward $49 $-1 #
coedge $-1 $281 $282 $124 $201 reversed $193 $-1 #
edge $-1 $206 -55.159154026917321 $289 55.159154026917321 $200 $290 forward 7 unknown #
edge $-1 $211 -55.159154026917321 $205 55.159154026917321 $128 $291 forward 7 unknown #
coedge $-1 $126 $197 $281 $292 reversed $204 $-1 #
loop $-1 $-1 $129 $192 #
vertex $-1 $127 $293 #
vertex $-1 $127 $294 #
straight-curve $-1 55.159154026917321 0 8.9230594104184746 0 1 0 I I #
straight-curve $-1 55.159154026917321 -27.298621698443782 0 0 0 -1 I I #
coedge $-1 $195 $131 $199 $288 reversed $121 $-1 #
coedge $-1 $131 $195 $133 $213 reversed $121 $-1 #
vertex $-1 $288 $295 #
straight-curve $-1 -55.159154026917321 -27.298621698443782 0 0 0 -1 I I #
edge $-1 $135 -27.298621698443782 $296 27.298621698443782 $210 $297 forward 7 unknown #
point $-1 55.159154026917321 -27.298621698443782 -8.9230594104184746 #
point $-1 -55.159154026917321 -27.298621698443782 -8.9230594104184746 #
face $-1 $-1 $229 $19 $-1 $298 reversed single #
plane-surface $-1 -50.323485971417426 -32.97845523529822 0 -1 0 0 0 0 1 forward_v I I I I #
coedge $-1 $299 $300 $301 $302 forward $138 $-1 #
coedge $-1 $301 $140 $228 $303 reversed $83 $-1 #
coedge $-1 $140 $301 $141 $223 reversed $83 $-1 #
edge $-1 $225 -8.9230594104184746 $230 8.9230594104184746 $140 $304 forward 7 unknown #
coedge $-1 $142 $141 $300 $305 forward $53 $-1 #
edge $-1 $225 27.298621698443782 $306 38.658288772152659 $220 $307 forward 7 unknown #
edge $-1 $308 -5.6798335368544386 $150 5.6798335368544421 $147 $309 forward 7 unknown #
vertex $-1 $223 $310 #
straight-curve $-1 0 -27.298621698443782 8.9230594104184746 -1 0 0 I I #
coedge $-1 $311 $145 $148 $233 forward $229 $-1 #
coedge $-1 $145 $311 $219 $303 forward $229 $-1 #
loop $-1 $-1 $145 $216 #
vertex $-1 $221 $312 #
straight-curve $-1 0 -27.298621698443782 -8.9230594104184746 1 0 0 I I #
coedge $-1 $148 $147 $313 $314 forward $149 $-1 #
edge $-1 $151 -5.6798335368544421 $315 5.6798335368544386 $148 $316 forward 7 unknown #
point $-1 -50.323485971417426 -27.298621698443778 8.9230594104184746 #
point $-1 -50.323485971417426 -27.298621698443778 -8.9230594104184746 #
loop $-1 $-1 $161 $153 #
plane-surface $-1 55.159154026917321 0 0 -1 0 0 0 0 1 forward_v I I I I #
coedge $-1 $239 $156 $158 $243 reversed $91 $-1 #
coedge $-1 $156 $238 $317 $318 reversed $91 $-1 #
coedge $-1 $164 $159 $156 $241 forward $154 $-1 #
edge $-1 $244 11.366702938980445 $319 18.072935588253031 $240 $320 forward 7 unknown #
coedge $-1 $158 $157 $247 $321 reversed $57 $-1 #
edge $-1 $322 -110.31830805383464 $244 -99.425580421642294 $238 $323 forward 7 unknown #
vertex $-1 $160 $324 #
straight-curve $-1 48.452921377644742 1.9511092925036095 8.9230594104184746 0 -1 0 I I #
coedge $-1 $317 $161 $164 $251 reversed $236 $-1 #
coedge $-1 $161 $317 $242 $321 forward $236 $-1 #
vertex $-1 $162 $325 #
straight-curve $-1 55.159154026917321 9.1141036728449265 77.595108956642605 0 0 1 I I #
straight-curve $-1 -12.759577099405291 9.1141036728449265 87.271486786962598 0.61566146476048833 0 -0.78801076186113728 I I #
edge $-1 $319 -1.3096665028304884 $165 9.1141036728449265 $246 $326 forward 7 unknown #
point $-1 55.159154026917321 9.1141036728449265 8.9230594104184746 #
point $-1 48.452921377644735 9.1141036728449265 8.9230594104184746 #
edge $-1 $327 1 $327 0 $168 $-1 forward 7 unknown #
vertex $-1 $169 $328 #
ellipse-curve $-1 49.005397384787805 3.9022185850072191 2.4431661457205776 0.78801076186113728 0 0.61566146476048833 1.2313229295209767 0 -1.5760215237222746 1 I I #
point $-1 53.037360631802009 3.9022185850072191 3.055244586601332 #
plane-surface $-1 0 0 8.9230594104184746 0 0 1 1 0 0 forward_v I I I I #
coedge $-1 $269 $268 $261 $329 forward $173 $-1 #
coedge $-1 $261 $175 $177 $265 reversed $106 $-1 #
coedge $-1 $175 $260 $259 $329 reversed $106 $-1 #
coedge $-1 $183 $178 $175 $263 forward $184 $-1 #
edge $-1 $266 -17.813072938656035 $330 -10.038876022587999 $262 $331 forward 7 unknown #
coedge $-1 $177 $176 $269 $332 reversed $66 $-1 #
edge $-1 $333 0 $266 10.629873041226752 $260 $334 forward 7 unknown #
vertex $-1 $179 $335 #
straight-curve $-1 -47.384957110849285 7.3909645118207337 8.9230594104184746 0 1 0 I I #
coedge $-1 $259 $180 $183 $273 reversed $173 $-1 #
coedge $-1 $180 $259 $264 $332 forward $173 $-1 #
vertex $-1 $181 $336 #
straight-curve $-1 -55.159154026917321 10.170858006698165 41.177602729915407 0 0 1 I I #
straight-curve $-1 -55.159154026917321 10.170858006698165 1.6735033424376553 -0.7313536940579346 0 -0.68199836817093118 I I #
edge $-1 $330 -19.39300004058477 $185 -10.170858006698165 $268 $337 forward 7 unknown #
point $-1 -55.159154026917321 10.170858006698165 8.9230594104184746 #
point $-1 -47.384957110849285 10.170858006698165 8.9230594104184746 #
edge $-1 $338 1 $338 0 $188 $-1 forward 7 unknown #
vertex $-1 $189 $339 #
ellipse-curve $-1 -48.111805798394649 14.781929023641467 1.9093284820226941 -0.68199836817093118 0 0.7313536940579346 1.0970305410869019 0 1.0229975522563968 1 I I #
point $-1 -50.175025027796394 14.781929023641467 6.3212789286844551 #
plane-surface $-1 55.159154026917321 0 0 -1 0 0 0 0 1 forward_v I I I I #
coedge $-1 $284 $200 $203 $292 forward $193 $-1 #
coedge $-1 $200 $284 $195 $283 reversed $193 $-1 #
edge $-1 $289 -8.9230594104184746 $296 8.9230594104184746 $282 $340 forward 7 unknown #
coedge $-1 $282 $281 $196 $285 reversed $193 $-1 #
edge $-1 $296 -55.159154026917321 $286 55.159154026917321 $284 $341 forward 7 unknown #
vertex $-1 $198 $342 #
straight-curve $-1 55.159154026917321 0 -8.9230594104184746 0 -1 0 I I #
edge $-1 $289 -27.298621698443782 $211 27.298621698443782 $209 $343 forward 7 unknown #
vertex $-1 $201 $344 #
straight-curve $-1 0 27.298621698443782 8.9230594104184746 -1 0 0 I I #
straight-curve $-1 0 -27.298621698443782 8.9230594104184746 1 0 0 I I #
edge $-1 $206 -8.9230594104184746 $286 8.9230594104184746 $203 $345 forward 7 unknown #
point $-1 55.159154026917321 -27.298621698443782 8.9230594104184746 #
point $-1 55.159154026917321 27.298621698443782 8.9230594104184746 #
point $-1 -55.159154026917321 -27.298621698443782 8.9230594104184746 #
vertex $-1 $285 $346 #
straight-curve $-1 -55.159154026917321 0 -8.9230594104184746 0 1 0 I I #
plane-surface $-1 0 0 -8.9230594104184746 0 0 1 1 0 0 forward_v I I I I #
coedge $-1 $313 $218 $311 $347 reversed $138 $-1 #
coedge $-1 $218 $313 $222 $305 reversed $138 $-1 #
coedge $-1 $220 $219 $218 $302 reversed $83 $-1 #
edge $-1 $306 -8.9230594104184746 $348 8.9230594104184746 $301 $349 forward 7 unknown #
edge $-1 $348 -38.658288772152659 $230 -27.298621698443782 $219 $350 forward 7 unknown #
straight-curve $-1 -55.159154026917321 -27.298621698443782 0 0 0 -1 I I #
edge $-1 $306 -2.4178340277499473 $308 2.4178340277499473 $300 $351 forward 7 unknown #
vertex $-1 $223 $352 #
straight-curve $-1 -55.159154026917321 0 8.9230594104184746 0 -1 0 I I #
vertex $-1 $224 $353 #
straight-curve $-1 -50.323485971417426 -32.97845523529822 8.9230594104184746 0 1 0 I I #
point $-1 -55.159154026917321 -27.298621698443782 8.9230594104184746 #
coedge $-1 $228 $227 $299 $347 forward $229 $-1 #
point $-1 -55.159154026917321 -27.298621698443782 -8.9230594104184746 #
coedge $-1 $300 $299 $232 $314 reversed $138 $-1 #
edge $-1 $308 -8.9230594104184746 $315 8.9230594104184746 $232 $354 forward 7 unknown #
vertex $-1 $314 $355 #
straight-curve $-1 -50.323485971417426 -32.97845523529822 -8.9230594104184746 0 -1 0 I I #
coedge $-1 $247 $246 $239 $318 forward $236 $-1 #
edge $-1 $319 68.67204954622413 $322 77.255636146413877 $317 $356 forward 7 unknown #
vertex $-1 $251 $357 #
straight-curve $-1 37.086218438664289 -1.3096665028304884 8.9230594104184746 1 0 0 I I #
edge $-1 $322 -3.2607757953340979 $248 7.162994380341317 $247 $358 forward 7 unknown #
vertex $-1 $321 $359 #
straight-curve $-1 -12.759577099405291 -1.3096665028304884 87.271486786962598 -0.61566146476048833 0 0.78801076186113728 I I #
point $-1 48.452921377644735 -1.3096665028304884 8.9230594104184746 #
point $-1 55.159154026917321 9.1141036728449265 0.33947281022872744 #
straight-curve $-1 55.159154026917321 0 8.9230594104184746 0 1 0 I I #
vertex $-1 $254 $360 #
point $-1 50.236720314308783 3.9022185850072191 0.86714462199830322 #
edge $-1 $330 32.254543319496932 $333 39.504099387477751 $259 $361 forward 7 unknown #
vertex $-1 $273 $362 #
straight-curve $-1 -65.19803004950532 19.39300004058477 8.9230594104184746 -1 0 0 I I #
edge $-1 $333 -12.002035528764036 $270 -2.779893494877431 $269 $363 forward 7 unknown #
vertex $-1 $332 $364 #
straight-curve $-1 -55.159154026917321 19.39300004058477 1.6735033424376553 0.7313536940579346 0 0.68199836817093118 I I #
point $-1 -47.384957110849285 19.39300004058477 8.9230594104184746 #
point $-1 -55.159154026917321 10.170858006698165 1.6735033424376553 #
straight-curve $-1 -55.159154026917321 0 8.9230594104184746 0 -1 0 I I #
vertex $-1 $276 $365 #
point $-1 -47.014775257307747 14.781929023641467 2.9323260342790909 #
straight-curve $-1 -55.159154026917321 27.298621698443782 0 0 0 -1 I I #
straight-curve $-1 0 27.298621698443782 -8.9230594104184746 1 0 0 I I #
point $-1 55.159154026917321 27.298621698443782 -8.9230594104184746 #
straight-curve $-1 -55.159154026917321 0 8.9230594104184746 0 -1 0 I I #
point $-1 -55.159154026917321 27.298621698443782 8.9230594104184746 #
straight-curve $-1 55.159154026917321 27.298621698443782 0 0 0 -1 I I #
point $-1 -55.159154026917321 27.298621698443782 -8.9230594104184746 #
edge $-1 $315 -2.4178340277499473 $348 2.4178340277499473 $299 $366 forward 7 unknown #
vertex $-1 $303 $367 #
straight-curve $-1 -55.159154026917321 -38.658288772152659 0 0 0 -1 I I #
straight-curve $-1 -55.159154026917321 0 -8.9230594104184746 0 1 0 I I #
straight-curve $-1 -52.741319999167374 -38.658288772152659 8.9230594104184746 1 0 0 I I #
point $-1 -55.159154026917321 -38.658288772152659 8.9230594104184746 #
point $-1 -50.323485971417426 -38.658288772152659 8.9230594104184746 #
straight-curve $-1 -50.323485971417426 -38.658288772152659 0 0 0 -1 I I #
point $-1 -50.323485971417426 -38.658288772152659 -8.9230594104184746 #
straight-curve $-1 55.159154026917321 -1.3096665028304884 77.595108956642605 0 0 -1 I I #
point $-1 55.159154026917321 -1.3096665028304884 8.9230594104184746 #
straight-curve $-1 55.159154026917321 1.9511092925036095 0.33947281022872033 0 1 0 I I #
point $-1 55.159154026917321 -1.3096665028304884 0.33947281022872744 #
point $-1 47.42937586106553 3.9022185850072191 1.2118432161996011 #
straight-curve $-1 -55.159154026917321 19.39300004058477 41.177602729915407 0 0 -1 I I #
point $-1 -55.159154026917321 19.39300004058477 8.9230594104184746 #
straight-curve $-1 -55.159154026917321 7.3909645118207337 1.6735033424376566 0 -1 0 I I #
point $-1 -55.159154026917321 19.39300004058477 1.6735033424376553 #
point $-1 -47.08880824613825 14.781929023641467 0.81229794093579233 #
straight-curve $-1 -52.741319999167374 -38.658288772152659 -8.9230594104184746 -1 0 0 I I #
point $-1 -55.159154026917321 -38.658288772152659 -8.9230594104184746 #
End-of-ACIS-data 