500 0 8 0           
7 Unknown 11 ACIS 5.0 NT 24 Fri Mar 26 15:20:32 1999 
-1 9.9999999999999995e-007 1e-010 
body $-1 $8 $-1 $9 #
body $-1 $10 $-1 $11 #
body $-1 $12 $-1 $13 #
body $-1 $14 $-1 $15 #
body $-1 $16 $-1 $17 #
body $-1 $18 $-1 $19 #
body $-1 $20 $-1 $21 #
body $-1 $22 $-1 $23 #
lump $-1 $-1 $24 $0 #
transform $-1 1 0 0 0 1 0 0 0 1 77.485274819177832 41.312631509551757 17.445058317267765 1 rotate no_reflect no_shear #
lump $-1 $-1 $25 $1 #
transform $-1 1 0 0 0 1 0 0 0 1 77.485274819177832 41.312631509551757 17.445058317267765 1 rotate no_reflect no_shear #
lump $-1 $-1 $26 $2 #
transform $-1 1 0 0 0 1 0 0 0 1 77.485274819177832 41.312631509551757 17.445058317267765 1 rotate no_reflect no_shear #
lump $-1 $-1 $27 $3 #
transform $-1 1 0 0 0 1 0 0 0 1 77.485274819177832 41.312631509551757 17.445058317267765 1 rotate no_reflect no_shear #
lump $-1 $-1 $28 $4 #
transform $-1 1 0 0 0 1 0 0 0 1 77.485274819177832 41.312631509551757 17.445058317267765 1 rotate no_reflect no_shear #
lump $-1 $-1 $29 $5 #
transform $-1 1 0 0 0 1 0 0 0 1 77.485274819177832 41.312631509551757 17.445058317267765 1 rotate no_reflect no_shear #
lump $-1 $-1 $30 $6 #
transform $-1 1 0 0 0 1 0 0 0 1 77.485274819177832 41.312631509551757 17.445058317267765 1 rotate no_reflect no_shear #
lump $-1 $-1 $31 $7 #
transform $-1 1 0 0 0 1 0 0 0 1 77.485274819177832 41.312631509551757 17.445058317267765 1 rotate no_reflect no_shear #
shell $-1 $-1 $-1 $32 $-1 $8 #
shell $-1 $-1 $-1 $33 $-1 $10 #
shell $-1 $-1 $-1 $34 $-1 $12 #
shell $-1 $-1 $-1 $35 $-1 $14 #
shell $-1 $-1 $-1 $36 $-1 $16 #
shell $-1 $-1 $-1 $37 $-1 $18 #
shell $-1 $-1 $-1 $38 $-1 $20 #
shell $-1 $-1 $-1 $39 $-1 $22 #
face $-1 $40 $41 $24 $-1 $42 forward single #
face $-1 $43 $44 $25 $-1 $45 reversed single #
face $-1 $46 $47 $26 $-1 $48 reversed single #
face $-1 $49 $50 $27 $-1 $51 forward single #
face $-1 $52 $53 $28 $-1 $54 forward single #
face $-1 $55 $56 $29 $-1 $57 forward single #
face $-1 $58 $59 $30 $-1 $60 reversed single #
face $-1 $61 $62 $31 $-1 $63 forward single #
face $-1 $64 $65 $24 $-1 $66 reversed single #
loop $-1 $-1 $67 $32 #
plane-surface $-1 0 0 17.445058317267765 0 0 1 1 0 0 forward_v I I I I #
face $-1 $68 $69 $25 $-1 $70 reversed single #
loop $-1 $-1 $71 $33 #
plane-surface $-1 -68.77872822381444 -13.920685152290934 0 0 1 0 0 0 1 forward_v I I I I #
face $-1 $72 $73 $26 $-1 $74 reversed single #
loop $-1 $-1 $75 $34 #
plane-surface $-1 45.802957002887069 92.468476214203122 180.27687786345348 1 0 0 0 -0.70710678939079041 -0.70710677298230451 forward_v I I I I #
face $-1 $76 $77 $27 $-1 $78 forward single #
loop $-1 $79 $80 $35 #
cone-surface $-1 50.960595475814969 37.433486795258581 13.565913572932201 0 -0.70710678939079041 -0.70710677298230451 1.5 0 0 1 I I 0 1 1.5 forward I I I I #
face $-1 $81 $82 $28 $-1 $83 forward single #
loop $-1 $84 $85 $36 #
cone-surface $-1 58.697053185206798 37.433486795258581 13.565913572932201 0 -0.70710678939079041 -0.70710677298230451 1.5 0 0 1 I I 0 1 1.5 forward I I I I #
face $-1 $86 $87 $29 $-1 $88 forward single #
loop $-1 $89 $90 $37 #
cone-surface $-1 66.433510894598626 37.433486795258581 13.565913572932201 0 -0.70710678939079041 -0.70710677298230451 1.5 0 0 1 I I 0 1 1.5 forward I I I I #
face $-1 $91 $92 $30 $-1 $93 reversed single #
loop $-1 $-1 $94 $38 #
plane-surface $-1 65.956384021445345 -41.312631509551736 13.08197593813658 0 -0.61566148304635926 0.78801074757464917 1 0 0 forward_v I I I I #
face $-1 $95 $96 $31 $-1 $97 forward single #
loop $-1 $98 $99 $39 #
cone-surface $-1 65.956384021445345 -37.386296650392815 13.811948759744823 0 0.61566148304635926 -0.78801074757464917 1 0 0 1 I I 0 1 1 forward I I I I #
face $-1 $100 $101 $24 $-1 $102 reversed single #
loop $-1 $-1 $103 $40 #
plane-surface $-1 0 0 -17.445058317267765 0 0 1 1 0 0 forward_v I I I I #
coedge $-1 $104 $105 $106 $107 forward $41 $-1 #
face $-1 $108 $109 $25 $-1 $110 reversed single #
loop $-1 $-1 $111 $43 #
plane-surface $-1 -68.77872822381444 -7.7136794179332586 0 0 -1 0 0 0 -1 forward_v I I I I #
coedge $-1 $112 $113 $114 $115 reversed $44 $-1 #
face $-1 $116 $117 $26 $-1 $118 reversed single #
loop $-1 $-1 $119 $46 #
plane-surface $-1 58.697053185206769 -17.112251590700666 70.696152601381769 0 0.70710678939079041 0.70710677298230451 1 0 0 forward_v I I I I #
coedge $-1 $120 $121 $122 $123 reversed $47 $-1 #
face $-1 $-1 $124 $27 $-1 $125 forward single #
loop $-1 $126 $127 $49 #
cone-surface $-1 50.960595475814969 35.610907014840087 11.743333834806862 0 -0.70710678939079041 -0.70710677298230451 0.75 0 0 1 I I -0.70710678118654757 0.70710678118654757 0.75 forward I I I I #
loop $-1 $-1 $128 $35 #
coedge $-1 $80 $80 $129 $130 reversed $50 $-1 #
face $-1 $-1 $131 $28 $-1 $132 forward single #
loop $-1 $133 $134 $52 #
cone-surface $-1 58.697053185206798 35.610907014840087 11.743333834806862 0 -0.70710678939079041 -0.70710677298230451 0.75 0 0 1 I I -0.70710678118654757 0.70710678118654757 0.75 forward I I I I #
loop $-1 $-1 $135 $36 #
coedge $-1 $85 $85 $136 $137 reversed $53 $-1 #
face $-1 $-1 $138 $29 $-1 $139 forward single #
loop $-1 $140 $141 $55 #
cone-surface $-1 66.433510894598626 35.610907014840087 11.743333834806862 0 -0.70710678939079041 -0.70710677298230451 0.75 0 0 1 I I -0.70710678118654757 0.70710678118654757 0.75 forward I I I I #
loop $-1 $-1 $142 $37 #
coedge $-1 $90 $90 $143 $144 reversed $56 $-1 #
face $-1 $145 $146 $30 $-1 $147 reversed single #
loop $-1 $-1 $148 $58 #
plane-surface $-1 54.427493223712844 -136.72202992841122 135.20043461071151 1 0 0 0 0.61566148304635926 -0.78801074757464917 forward_v I I I I #
coedge $-1 $149 $150 $151 $152 reversed $59 $-1 #
face $-1 $-1 $153 $31 $-1 $154 forward single #
loop $-1 $155 $156 $61 #
cone-surface $-1 65.956384021445345 -35.944376384189468 11.966375018000157 0 0.61566148304635926 -0.78801074757464917 0.5 0 0 1 I I -0.70710678118654746 0.70710678118654746 0.5 forward I I I I #
loop $-1 $-1 $157 $39 #
coedge $-1 $99 $99 $158 $159 reversed $62 $-1 #
face $-1 $160 $161 $24 $-1 $162 reversed single #
loop $-1 $-1 $163 $64 #
plane-surface $-1 0 -41.312631509551757 0 0 1 0 0 0 1 forward_v I I I I #
coedge $-1 $164 $165 $166 $167 forward $65 $-1 #
coedge $-1 $168 $67 $169 $170 forward $41 $-1 #
coedge $-1 $67 $168 $171 $172 forward $41 $-1 #
coedge $-1 $173 $174 $67 $107 reversed $175 $-1 #
edge $-1 $176 -41.312631509551757 $177 41.312631509551757 $106 $178 forward 7 unknown #
face $-1 $179 $180 $25 $-1 $181 reversed single #
loop $-1 $-1 $182 $68 #
plane-surface $-1 -60.072181628451055 -10.817182285112096 0 -1 0 0 0 0 1 forward_v I I I I #
coedge $-1 $183 $184 $185 $186 forward $69 $-1 #
coedge $-1 $187 $71 $188 $189 reversed $44 $-1 #
coedge $-1 $71 $187 $190 $191 reversed $44 $-1 #
coedge $-1 $192 $193 $71 $115 forward $194 $-1 #
edge $-1 $195 -17.445058317267765 $196 17.445058317267765 $114 $197 forward 7 unknown #
face $-1 $198 $199 $26 $-1 $200 reversed single #
loop $-1 $-1 $201 $72 #
plane-surface $-1 71.591149367526469 92.468476214203122 180.27687786345348 -1 0 0 0 0.70710678939079041 0.70710677298230451 forward_v I I I I #
coedge $-1 $202 $203 $204 $205 reversed $73 $-1 #
coedge $-1 $121 $75 $206 $207 reversed $47 $-1 #
coedge $-1 $75 $120 $202 $208 reversed $47 $-1 #
coedge $-1 $204 $209 $75 $123 forward $210 $-1 #
edge $-1 $211 4.921606597549804 $212 10.095396649385357 $122 $213 forward 7 unknown #
loop $-1 $-1 $129 $76 #
plane-surface $-1 58.697053185206769 -17.112251590700666 70.696152601381769 0 0.70710678939079041 0.70710677298230451 1 0 0 forward_v I I I I #
loop $-1 $-1 $214 $49 #
coedge $-1 $127 $127 $128 $215 reversed $77 $-1 #
coedge $-1 $128 $128 $127 $215 forward $79 $-1 #
coedge $-1 $129 $129 $80 $130 forward $124 $-1 #
edge $-1 $216 -3.3495304619360825e-015 $216 6.2831853071795969 $129 $217 forward 7 unknown #
loop $-1 $-1 $136 $81 #
plane-surface $-1 58.697053185206769 -17.112251590700666 70.696152601381769 0 0.70710678939079041 0.70710677298230451 1 0 0 forward_v I I I I #
loop $-1 $-1 $218 $52 #
coedge $-1 $134 $134 $135 $219 reversed $82 $-1 #
coedge $-1 $135 $135 $134 $219 forward $84 $-1 #
coedge $-1 $136 $136 $85 $137 forward $131 $-1 #
edge $-1 $220 -3.3495304619360825e-015 $220 6.2831853071795969 $136 $221 forward 7 unknown #
loop $-1 $-1 $143 $86 #
plane-surface $-1 58.697053185206769 -17.112251590700666 70.696152601381769 0 0.70710678939079041 0.70710677298230451 1 0 0 forward_v I I I I #
loop $-1 $-1 $222 $55 #
coedge $-1 $141 $141 $142 $223 reversed $87 $-1 #
coedge $-1 $142 $142 $141 $223 forward $89 $-1 #
coedge $-1 $143 $143 $90 $144 forward $138 $-1 #
edge $-1 $224 -3.3495304619360825e-015 $224 6.2831853071795969 $143 $225 forward 7 unknown #
face $-1 $226 $227 $30 $-1 $228 forward single #
loop $-1 $-1 $229 $91 #
plane-surface $-1 0 -41.312631509551757 0 0 1 0 0 0 1 forward_v I I I I #
coedge $-1 $230 $231 $232 $233 reversed $92 $-1 #
coedge $-1 $234 $94 $235 $236 reversed $59 $-1 #
coedge $-1 $94 $234 $230 $237 forward $59 $-1 #
coedge $-1 $232 $238 $94 $152 forward $227 $-1 #
edge $-1 $239 -44.507082808455174 $240 -21.449301212990171 $151 $241 forward 7 unknown #
loop $-1 $-1 $158 $95 #
plane-surface $-1 65.956384021445345 -41.312631509551736 13.08197593813658 0 -0.61566148304635926 0.78801074757464917 1 0 0 forward_v I I I I #
loop $-1 $-1 $242 $61 #
coedge $-1 $156 $156 $157 $243 reversed $96 $-1 #
coedge $-1 $157 $157 $156 $243 forward $98 $-1 #
coedge $-1 $158 $158 $99 $159 forward $153 $-1 #
edge $-1 $244 -4.5055186377358273e-015 $244 6.283185307179596 $158 $245 forward 7 unknown #
face $-1 $246 $247 $24 $-1 $248 reversed single #
loop $-1 $-1 $249 $100 #
plane-surface $-1 -77.485274819177832 0 0 1 0 0 0 0 -1 forward_v I I I I #
coedge $-1 $250 $171 $251 $252 forward $101 $-1 #
coedge $-1 $253 $103 $250 $254 forward $65 $-1 #
coedge $-1 $103 $253 $255 $256 forward $65 $-1 #
coedge $-1 $174 $173 $103 $167 reversed $175 $-1 #
edge $-1 $257 -41.312631509551757 $258 41.312631509551757 $166 $259 forward 7 unknown #
coedge $-1 $105 $104 $260 $261 forward $41 $-1 #
coedge $-1 $262 $263 $104 $170 reversed $247 $-1 #
edge $-1 $177 -77.485274819177832 $264 77.485274819177832 $169 $265 forward 7 unknown #
coedge $-1 $163 $266 $105 $172 reversed $101 $-1 #
edge $-1 $267 -77.485274819177832 $176 77.485274819177832 $171 $268 forward 7 unknown #
coedge $-1 $166 $106 $266 $269 forward $175 $-1 #
coedge $-1 $106 $166 $262 $270 reversed $175 $-1 #
loop $-1 $-1 $173 $246 #
vertex $-1 $107 $271 #
vertex $-1 $107 $272 #
straight-curve $-1 77.485274819177832 0 17.445058317267765 0 1 0 I I #
face $-1 $273 $274 $25 $-1 $275 forward single #
loop $-1 $-1 $276 $108 #
plane-surface $-1 0 0 -17.445058317267765 0 0 1 1 0 0 forward_v I I I I #
coedge $-1 $277 $278 $187 $279 forward $109 $-1 #
coedge $-1 $280 $111 $276 $281 reversed $69 $-1 #
coedge $-1 $111 $280 $282 $283 reversed $69 $-1 #
coedge $-1 $278 $277 $111 $186 reversed $109 $-1 #
edge $-1 $284 -17.445058317267765 $285 17.445058317267765 $185 $286 forward 7 unknown #
coedge $-1 $113 $112 $182 $279 reversed $44 $-1 #
coedge $-1 $287 $288 $112 $189 forward $180 $-1 #
edge $-1 $289 25.682817516543835 $195 43.095910707270612 $188 $290 forward 7 unknown #
coedge $-1 $291 $292 $113 $191 forward $274 $-1 #
edge $-1 $196 -43.095910707270612 $293 -25.682817516543835 $190 $294 forward 7 unknown #
coedge $-1 $295 $114 $292 $296 reversed $194 $-1 #
coedge $-1 $114 $295 $287 $297 reversed $194 $-1 #
loop $-1 $-1 $295 $273 #
vertex $-1 $297 $298 #
vertex $-1 $115 $299 #
straight-curve $-1 -77.485274819177832 -13.920685152290934 0 0 0 1 I I #
face $-1 $-1 $210 $26 $-1 $300 forward single #
loop $-1 $-1 $301 $116 #
plane-surface $-1 0 41.312631509551757 0 0 -1 0 0 0 -1 forward_v I I I I #
coedge $-1 $302 $303 $304 $305 reversed $117 $-1 #
coedge $-1 $306 $119 $121 $208 forward $73 $-1 #
coedge $-1 $119 $306 $302 $307 forward $73 $-1 #
coedge $-1 $304 $122 $119 $205 forward $210 $-1 #
edge $-1 $212 16.454430410283685 $308 42.242622774923085 $204 $309 forward 7 unknown #
coedge $-1 $310 $311 $120 $207 forward $199 $-1 #
edge $-1 $312 -77.867170786352858 $211 -72.693380614458974 $206 $313 forward 7 unknown #
edge $-1 $212 75.308418874032625 $312 82.625263019103542 $121 $314 forward 7 unknown #
coedge $-1 $122 $304 $310 $315 forward $210 $-1 #
loop $-1 $-1 $304 $198 #
vertex $-1 $207 $316 #
vertex $-1 $123 $317 #
straight-curve $-1 45.802957002887069 46.234238107101561 17.445058317267765 0 -1 0 I I #
coedge $-1 $214 $214 $-1 $318 reversed $126 $-1 #
edge $-1 $319 0 $319 6.2831853071796004 $127 $320 forward 7 unknown #
vertex $-1 $130 $321 #
ellipse-curve $-1 50.960595475814969 38.725736483633987 14.85816323132082 0 0.70710678939079041 0.70710677298230451 1.5 0 0 1 I I #
coedge $-1 $218 $218 $-1 $322 reversed $133 $-1 #
edge $-1 $323 0 $323 6.2831853071796004 $134 $324 forward 7 unknown #
vertex $-1 $137 $325 #
ellipse-curve $-1 58.697053185206798 38.725736483633987 14.85816323132082 0 0.70710678939079041 0.70710677298230451 1.5 0 0 1 I I #
coedge $-1 $222 $222 $-1 $326 reversed $140 $-1 #
edge $-1 $327 0 $327 6.2831853071796004 $141 $328 forward 7 unknown #
vertex $-1 $144 $329 #
ellipse-curve $-1 66.433510894598626 38.725736483633987 14.85816323132082 0 0.70710678939079041 0.70710677298230451 1.5 0 0 1 I I #
face $-1 $-1 $330 $30 $-1 $331 reversed single #
loop $-1 $-1 $232 $145 #
plane-surface $-1 0 0 17.445058317267765 0 0 1 1 0 0 forward_v I I I I #
coedge $-1 $332 $333 $231 $334 forward $146 $-1 #
coedge $-1 $231 $148 $150 $237 reversed $92 $-1 #
coedge $-1 $148 $230 $229 $334 reversed $92 $-1 #
coedge $-1 $335 $151 $148 $233 forward $227 $-1 #
edge $-1 $240 -32.632874123611401 $336 -27.048383454653852 $232 $337 forward 7 unknown #
coedge $-1 $150 $149 $332 $338 reversed $59 $-1 #
coedge $-1 $339 $340 $149 $236 forward $330 $-1 #
edge $-1 $341 -12.250364466433986 $239 -5.163544031375741 $235 $342 forward 7 unknown #
edge $-1 $343 -2.6640169747183902e-014 $240 7.0868204350582182 $230 $344 forward 7 unknown #
coedge $-1 $151 $335 $339 $345 forward $227 $-1 #
vertex $-1 $236 $346 #
vertex $-1 $152 $347 #
straight-curve $-1 32.978192010722672 -35.728140840594214 17.445058317267765 -1 0 0 I I #
coedge $-1 $242 $242 $-1 $348 reversed $155 $-1 #
edge $-1 $349 0 $349 6.2831853071796004 $156 $350 forward 7 unknown #
vertex $-1 $159 $351 #
ellipse-curve $-1 65.956384021445345 -38.520386175072986 15.263517127702164 0 -0.61566148304635926 0.78801074757464917 1 0 0 1 I I #
face $-1 $-1 $175 $24 $-1 $352 reversed single #
loop $-1 $-1 $262 $160 #
plane-surface $-1 0 41.312631509551757 0 0 -1 0 0 0 -1 forward_v I I I I #
coedge $-1 $353 $260 $263 $354 forward $161 $-1 #
coedge $-1 $266 $163 $164 $254 reversed $101 $-1 #
coedge $-1 $260 $353 $163 $252 reversed $161 $-1 #
edge $-1 $267 -17.445058317267765 $355 17.445058317267765 $251 $356 forward 7 unknown #
coedge $-1 $165 $164 $353 $357 forward $65 $-1 #
edge $-1 $258 -77.485274819177832 $355 77.485274819177832 $250 $358 forward 7 unknown #
coedge $-1 $263 $262 $165 $256 reversed $247 $-1 #
edge $-1 $359 -77.485274819177832 $257 77.485274819177832 $255 $360 forward 7 unknown #
vertex $-1 $167 $361 #
vertex $-1 $269 $362 #
straight-curve $-1 77.485274819177832 0 -17.445058317267765 0 -1 0 I I #
coedge $-1 $249 $251 $168 $261 reversed $161 $-1 #
edge $-1 $264 -41.312631509551757 $267 41.312631509551757 $260 $363 forward 7 unknown #
coedge $-1 $255 $169 $174 $270 forward $247 $-1 #
coedge $-1 $169 $255 $249 $354 reversed $247 $-1 #
vertex $-1 $170 $364 #
straight-curve $-1 0 41.312631509551757 17.445058317267765 -1 0 0 I I #
coedge $-1 $171 $250 $173 $269 reversed $101 $-1 #
vertex $-1 $261 $365 #
straight-curve $-1 0 -41.312631509551757 17.445058317267765 1 0 0 I I #
edge $-1 $176 -17.445058317267765 $258 17.445058317267765 $173 $366 forward 7 unknown #
edge $-1 $177 -17.445058317267765 $257 17.445058317267765 $174 $367 forward 7 unknown #
point $-1 77.485274819177832 -41.312631509551757 17.445058317267765 #
point $-1 77.485274819177832 41.312631509551757 17.445058317267765 #
face $-1 $-1 $194 $25 $-1 $368 reversed single #
loop $-1 $-1 $282 $179 #
plane-surface $-1 0 0 17.445058317267765 0 0 1 1 0 0 forward_v I I I I #
coedge $-1 $288 $287 $183 $281 forward $180 $-1 #
coedge $-1 $185 $182 $288 $369 reversed $109 $-1 #
coedge $-1 $182 $185 $291 $370 reversed $109 $-1 #
edge $-1 $293 -17.445058317267765 $289 17.445058317267765 $182 $371 forward 7 unknown #
coedge $-1 $184 $183 $295 $372 reversed $69 $-1 #
edge $-1 $373 -43.095910707270612 $285 -25.682817516543835 $276 $374 forward 7 unknown #
coedge $-1 $292 $291 $184 $283 forward $274 $-1 #
edge $-1 $284 25.682817516543835 $375 43.095910707270612 $282 $376 forward 7 unknown #
vertex $-1 $283 $377 #
vertex $-1 $281 $378 #
straight-curve $-1 -60.072181628451055 -7.7136794179332586 0 0 0 -1 I I #
coedge $-1 $276 $188 $193 $297 forward $180 $-1 #
coedge $-1 $188 $276 $277 $369 forward $180 $-1 #
vertex $-1 $189 $379 #
straight-curve $-1 -34.38936411190722 -13.920685152290934 -17.445058317267765 -1 0 0 I I #
coedge $-1 $282 $190 $278 $370 forward $274 $-1 #
coedge $-1 $190 $282 $192 $296 forward $274 $-1 #
vertex $-1 $191 $380 #
straight-curve $-1 -34.38936411190722 -13.920685152290934 17.445058317267765 1 0 0 I I #
coedge $-1 $193 $192 $280 $372 forward $194 $-1 #
edge $-1 $375 7.7136794179332586 $196 13.920685152290934 $192 $381 forward 7 unknown #
edge $-1 $195 -13.920685152290934 $373 -7.7136794179332586 $193 $382 forward 7 unknown #
point $-1 -77.485274819177832 -13.920685152290934 -17.445058317267765 #
point $-1 -77.485274819177832 -13.920685152290934 17.445058317267765 #
plane-surface $-1 0 0 17.445058317267765 0 0 1 1 0 0 forward_v I I I I #
coedge $-1 $311 $310 $303 $383 forward $199 $-1 #
coedge $-1 $303 $201 $203 $307 reversed $117 $-1 #
coedge $-1 $201 $302 $301 $383 reversed $117 $-1 #
coedge $-1 $209 $204 $201 $305 forward $210 $-1 #
edge $-1 $308 -10.095396649385357 $384 -4.921606597549804 $304 $385 forward 7 unknown #
coedge $-1 $203 $202 $311 $386 reversed $73 $-1 #
edge $-1 $387 -82.625263019103542 $308 -75.308418874032625 $302 $388 forward 7 unknown #
vertex $-1 $205 $389 #
straight-curve $-1 29.348526592603385 36.138841457716211 17.445058317267758 1 0 0 I I #
coedge $-1 $301 $206 $209 $315 reversed $199 $-1 #
coedge $-1 $206 $301 $306 $386 forward $199 $-1 #
vertex $-1 $207 $390 #
straight-curve $-1 45.802957002887069 41.312631509551757 90.138438931726739 0 0 1 I I #
straight-curve $-1 45.802957002887069 -17.112251590700666 70.696152601381769 0 0.70710677298230451 -0.70710678939079041 I I #
edge $-1 $384 -71.591149367526469 $211 -45.802957002887069 $310 $391 forward 7 unknown #
point $-1 45.802957002887069 41.312631509551757 17.445058317267765 #
point $-1 45.802957002887069 36.138841457716204 17.445058317267765 #
edge $-1 $392 1 $392 0 $214 $-1 forward 7 unknown #
vertex $-1 $215 $393 #
ellipse-curve $-1 50.960595475814969 36.141237106883182 12.27366391454359 0 0.70710678939079041 0.70710677298230451 1.5 0 0 1 I I #
point $-1 52.460595475814969 38.725736483633973 14.858163231320813 #
edge $-1 $394 1 $394 0 $218 $-1 forward 7 unknown #
vertex $-1 $219 $395 #
ellipse-curve $-1 58.697053185206798 36.141237106883182 12.27366391454359 0 0.70710678939079041 0.70710677298230451 1.5 0 0 1 I I #
point $-1 60.197053185206798 38.725736483633973 14.858163231320813 #
edge $-1 $396 1 $396 0 $222 $-1 forward 7 unknown #
vertex $-1 $223 $397 #
ellipse-curve $-1 66.433510894598626 36.141237106883182 12.27366391454359 0 0.70710678939079041 0.70710677298230451 1.5 0 0 1 I I #
point $-1 67.933510894598626 38.725736483633973 14.858163231320813 #
loop $-1 $-1 $235 $226 #
plane-surface $-1 77.485274819177832 0 0 -1 0 0 0 0 1 forward_v I I I I #
coedge $-1 $398 $229 $234 $338 forward $146 $-1 #
coedge $-1 $229 $398 $335 $399 reversed $146 $-1 #
edge $-1 $336 50.15515898808799 $343 54.51824136721919 $229 $400 forward 7 unknown #
coedge $-1 $238 $232 $333 $399 forward $227 $-1 #
vertex $-1 $399 $401 #
straight-curve $-1 54.427493223712844 -68.361014964205609 17.445058317267765 0 -1 0 I I #
edge $-1 $343 21.449301212990171 $341 44.507082808455174 $332 $402 forward 7 unknown #
coedge $-1 $340 $235 $238 $345 reversed $330 $-1 #
coedge $-1 $235 $339 $398 $403 forward $330 $-1 #
vertex $-1 $338 $404 #
straight-curve $-1 77.485274819177832 -31.659212648295192 20.624053493399732 0 0.78801074757464917 0.61566148304635926 I I #
vertex $-1 $338 $405 #
straight-curve $-1 54.427493223712844 -41.312631509551736 13.08197593813658 0 0.78801074757464917 0.61566148304635926 I I #
edge $-1 $406 -41.312631509551757 $239 -35.728140840594207 $339 $407 forward 7 unknown #
point $-1 77.485274819177846 -35.728140840594207 17.445058317267765 #
point $-1 54.427493223712844 -35.728140840594207 17.445058317267765 #
edge $-1 $408 1 $408 0 $242 $-1 forward 7 unknown #
vertex $-1 $243 $409 #
ellipse-curve $-1 65.956384021445345 -36.252207125712644 12.360380391787482 0 -0.61566148304635926 0.78801074757464917 1 0 0 1 I I #
point $-1 66.956384021445345 -38.520386175072993 15.263517127702166 #
plane-surface $-1 77.485274819177832 0 0 -1 0 0 0 0 1 forward_v I I I I #
coedge $-1 $251 $249 $253 $357 reversed $161 $-1 #
edge $-1 $264 -17.445058317267765 $359 17.445058317267765 $263 $410 forward 7 unknown #
vertex $-1 $357 $411 #
straight-curve $-1 -77.485274819177832 -41.312631509551757 0 0 0 -1 I I #
edge $-1 $355 -41.312631509551757 $359 41.312631509551757 $353 $412 forward 7 unknown #
straight-curve $-1 0 -41.312631509551757 -17.445058317267765 -1 0 0 I I #
vertex $-1 $256 $413 #
straight-curve $-1 0 41.312631509551757 -17.445058317267765 1 0 0 I I #
point $-1 77.485274819177832 41.312631509551757 -17.445058317267765 #
point $-1 77.485274819177832 -41.312631509551757 -17.445058317267765 #
straight-curve $-1 -77.485274819177832 0 17.445058317267765 0 -1 0 I I #
point $-1 -77.485274819177832 41.312631509551757 17.445058317267765 #
point $-1 -77.485274819177832 -41.312631509551757 17.445058317267765 #
straight-curve $-1 77.485274819177832 -41.312631509551757 0 0 0 -1 I I #
straight-curve $-1 77.485274819177832 41.312631509551757 0 0 0 -1 I I #
plane-surface $-1 -77.485274819177832 0 0 1 0 0 0 0 -1 forward_v I I I I #
edge $-1 $285 2.3050882753772104 $289 8.5120940097348861 $288 $414 forward 7 unknown #
edge $-1 $293 -8.5120940097348861 $284 -2.3050882753772104 $291 $415 forward 7 unknown #
straight-curve $-1 -60.072181628451055 -13.920685152290934 0 0 0 -1 I I #
edge $-1 $375 -17.445058317267765 $373 17.445058317267765 $295 $416 forward 7 unknown #
vertex $-1 $372 $417 #
straight-curve $-1 -34.38936411190722 -7.7136794179332586 -17.445058317267765 1 0 0 I I #
vertex $-1 $296 $418 #
straight-curve $-1 -34.38936411190722 -7.7136794179332586 17.445058317267765 -1 0 0 I I #
point $-1 -60.072181628451055 -7.7136794179332586 17.445058317267765 #
point $-1 -60.072181628451055 -7.7136794179332586 -17.445058317267765 #
point $-1 -60.072181628451055 -13.920685152290934 -17.445058317267765 #
point $-1 -60.072181628451055 -13.920685152290934 17.445058317267765 #
straight-curve $-1 -77.485274819177832 0 17.445058317267765 0 -1 0 I I #
straight-curve $-1 -77.485274819177832 0 -17.445058317267765 0 1 0 I I #
edge $-1 $384 72.693380614458974 $387 77.867170786352858 $301 $419 forward 7 unknown #
vertex $-1 $315 $420 #
straight-curve $-1 71.591149367526469 46.234238107101561 17.445058317267765 0 1 0 I I #
edge $-1 $387 -42.242622774923085 $312 -16.454430410283685 $311 $421 forward 7 unknown #
vertex $-1 $386 $422 #
straight-curve $-1 71.591149367526469 -17.112251590700666 70.696152601381769 0 -0.70710677298230451 0.70710678939079041 I I #
point $-1 71.591149367526469 36.138841457716204 17.445058317267765 #
point $-1 45.802957002887069 41.312631509551764 12.271268145373881 #
straight-curve $-1 0 41.312631509551757 17.445058317267765 -1 0 0 I I #
vertex $-1 $318 $423 #
point $-1 52.460595475814969 36.141237106883182 12.27366391454359 #
vertex $-1 $322 $424 #
point $-1 60.197053185206798 36.141237106883182 12.27366391454359 #
vertex $-1 $326 $425 #
point $-1 67.933510894598626 36.141237106883182 12.27366391454359 #
coedge $-1 $333 $332 $340 $403 reversed $146 $-1 #
edge $-1 $336 54.427493223712844 $406 77.485274819177832 $333 $426 forward 7 unknown #
straight-curve $-1 54.427493223712844 -41.312631509551757 67.600217305355756 0 0 -1 I I #
point $-1 54.427493223712844 -41.312631509551757 17.445058317267765 #
straight-curve $-1 32.978192010722672 -41.312631509551757 13.081975938136567 1 0 0 I I #
edge $-1 $406 -17.445058317267765 $341 -13.081975938136564 $340 $427 forward 7 unknown #
point $-1 77.485274819177846 -41.312631509551757 13.081975938136564 #
point $-1 54.427493223712844 -41.312631509551757 13.081975938136564 #
vertex $-1 $345 $428 #
straight-curve $-1 77.485274819177832 0 17.445058317267765 0 1 0 I I #
vertex $-1 $348 $429 #
point $-1 66.956384021445345 -36.252207125712644 12.360380391787482 #
straight-curve $-1 -77.485274819177832 41.312631509551757 0 0 0 -1 I I #
point $-1 -77.485274819177832 -41.312631509551757 -17.445058317267765 #
straight-curve $-1 -77.485274819177832 0 -17.445058317267765 0 1 0 I I #
point $-1 -77.485274819177832 41.312631509551757 -17.445058317267765 #
straight-curve $-1 -60.072181628451055 -5.4085911425560482 -17.445058317267765 0 -1 0 I I #
straight-curve $-1 -60.072181628451055 -5.4085911425560482 17.445058317267765 0 1 0 I I #
straight-curve $-1 -77.485274819177832 -7.7136794179332586 0 0 0 -1 I I #
point $-1 -77.485274819177832 -7.7136794179332586 -17.445058317267765 #
point $-1 -77.485274819177832 -7.7136794179332586 17.445058317267765 #
straight-curve $-1 71.591149367526469 41.312631509551757 90.138438931726739 0 0 -1 I I #
point $-1 71.591149367526469 41.312631509551757 17.445058317267765 #
straight-curve $-1 29.348526592603385 41.312631509551757 12.271268145373881 -1 0 0 I I #
point $-1 71.591149367526469 41.312631509551764 12.271268145373881 #
point $-1 50.960595475814969 35.080576922796993 11.213003755070133 #
point $-1 58.697053185206798 35.080576922796993 11.213003755070133 #
point $-1 66.433510894598626 35.080576922796993 11.213003755070133 #
straight-curve $-1 0 -41.312631509551757 17.445058317267765 1 0 0 I I #
straight-curve $-1 77.485274819177832 -41.312631509551757 0 0 0 -1 I I #
point $-1 77.485274819177832 -41.312631509551757 17.445058317267765 #
point $-1 65.956384021445345 -35.636545642666292 11.572369644212833 #
End-of-ACIS-data 