500 0 8 0           
7 Unknown 11 ACIS 5.0 NT 24 Fri Mar 26 19:08:31 1999 
-1 9.9999999999999995e-007 1e-010 
body $-1 $8 $-1 $9 #
body $-1 $10 $-1 $11 #
body $-1 $12 $-1 $13 #
body $-1 $14 $-1 $15 #
body $-1 $16 $-1 $17 #
body $-1 $18 $-1 $19 #
body $-1 $20 $-1 $21 #
body $-1 $22 $-1 $23 #
lump $-1 $-1 $24 $0 #
transform $-1 1 0 0 0 1 0 0 0 1 49.647511215552228 30.991853187883891 13.201827655765964 1 rotate no_reflect no_shear #
lump $-1 $-1 $25 $1 #
transform $-1 1 0 0 0 1 0 0 0 1 49.647511215552228 30.991853187883891 13.201827655765964 1 rotate no_reflect no_shear #
lump $-1 $-1 $26 $2 #
transform $-1 1 0 0 0 1 0 0 0 1 49.647511215552228 30.991853187883891 13.201827655765964 1 rotate no_reflect no_shear #
lump $-1 $-1 $27 $3 #
transform $-1 1 0 0 0 1 0 0 0 1 49.647511215552228 30.991853187883891 13.201827655765964 1 rotate no_reflect no_shear #
lump $-1 $-1 $28 $4 #
transform $-1 1 0 0 0 1 0 0 0 1 49.647511215552228 30.991853187883891 13.201827655765964 1 rotate no_reflect no_shear #
lump $-1 $-1 $29 $5 #
transform $-1 1 0 0 0 1 0 0 0 1 49.647511215552228 30.991853187883891 13.201827655765964 1 rotate no_reflect no_shear #
lump $-1 $-1 $30 $6 #
transform $-1 1 0 0 0 1 0 0 0 1 49.647511215552228 30.991853187883891 13.201827655765964 1 rotate no_reflect no_shear #
lump $-1 $-1 $31 $7 #
transform $-1 1 0 0 0 1 0 0 0 1 49.647511215552228 30.991853187883891 13.201827655765964 1 rotate no_reflect no_shear #
shell $-1 $-1 $-1 $32 $-1 $8 #
shell $-1 $-1 $-1 $33 $-1 $10 #
shell $-1 $-1 $-1 $34 $-1 $12 #
shell $-1 $-1 $-1 $35 $-1 $14 #
shell $-1 $-1 $-1 $36 $-1 $16 #
shell $-1 $-1 $-1 $37 $-1 $18 #
shell $-1 $-1 $-1 $38 $-1 $20 #
shell $-1 $-1 $-1 $39 $-1 $22 #
face $-1 $40 $41 $24 $-1 $42 forward single #
face $-1 $43 $44 $25 $-1 $45 forward single #
face $-1 $46 $47 $26 $-1 $48 reversed single #
face $-1 $49 $50 $27 $-1 $51 forward single #
face $-1 $52 $53 $28 $-1 $54 forward single #
face $-1 $55 $56 $29 $-1 $57 reversed single #
face $-1 $58 $59 $30 $-1 $60 forward single #
face $-1 $61 $62 $31 $-1 $63 forward single #
face $-1 $64 $65 $24 $-1 $66 reversed single #
loop $-1 $-1 $67 $32 #
plane-surface $-1 0 0 13.201827655765964 0 0 1 1 0 0 forward_v I I I I #
face $-1 $68 $69 $25 $-1 $70 reversed single #
loop $-1 $-1 $71 $33 #
plane-surface $-1 -49.647511215552228 0 0 1 0 0 0 0 -1 forward_v I I I I #
face $-1 $72 $73 $26 $-1 $74 reversed single #
loop $-1 $-1 $75 $34 #
plane-surface $-1 -22.147867883569354 -108.15857968469069 69.961273795724239 -1 0 0 0 -0.77714596973225614 0.62932038083071107 forward_v I I I I #
face $-1 $76 $77 $27 $-1 $78 forward single #
loop $-1 $79 $80 $35 #
cone-surface $-1 -33.940307110985223 -27.699142664085826 9.5493507653979712 0 0.77714596973225614 -0.62932038083071107 1.5 0 0 1 I I 0 1 1.5 forward I I I I #
face $-1 $81 $82 $28 $-1 $83 forward single #
loop $-1 $84 $85 $36 #
cone-surface $-1 -26.864843574535705 -27.699142664085826 9.5493507653979712 0 0.77714596973225614 -0.62932038083071107 1.5 0 0 1 I I 0 1 1.5 forward I I I I #
face $-1 $86 $87 $29 $-1 $88 reversed single #
loop $-1 $-1 $89 $37 #
plane-surface $-1 39.007116360383613 67.213896324764193 117.76330188537629 1 0 0 0 -0.7660444514056185 -0.64278759981090561 forward_v I I I I #
face $-1 $90 $91 $30 $-1 $92 forward single #
loop $-1 $93 $94 $38 #
cone-surface $-1 42.047229176146075 27.363044915022503 9.1587248438863718 0 -0.7660444514056185 -0.64278759981090561 1.5 0 0 1 I I 0 1 1.5 forward I I I I #
face $-1 $95 $96 $31 $-1 $97 forward single #
loop $-1 $98 $99 $39 #
cone-surface $-1 46.607398399789773 27.363044915022503 9.1587248438863718 0 -0.7660444514056185 -0.64278759981090561 1.5 0 0 1 I I 0 1 1.5 forward I I I I #
face $-1 $100 $101 $24 $-1 $102 reversed single #
loop $-1 $-1 $103 $40 #
plane-surface $-1 0 0 -13.201827655765964 0 0 1 1 0 0 forward_v I I I I #
coedge $-1 $104 $105 $106 $107 forward $41 $-1 #
face $-1 $108 $109 $25 $-1 $110 reversed single #
loop $-1 $-1 $111 $43 #
plane-surface $-1 0 0 -13.201827655765964 0 0 1 1 0 0 forward_v I I I I #
coedge $-1 $112 $113 $114 $115 forward $44 $-1 #
face $-1 $116 $117 $26 $-1 $118 reversed single #
loop $-1 $-1 $119 $46 #
plane-surface $-1 -30.402575342760461 -30.991853187883891 7.4728924647875843 0 -0.77714596973225614 0.62932038083071107 1 0 0 forward_v I I I I #
coedge $-1 $120 $121 $122 $123 reversed $47 $-1 #
face $-1 $-1 $124 $27 $-1 $125 forward single #
loop $-1 $126 $127 $49 #
cone-surface $-1 -33.940307110985223 -26.143172723053929 8.2893511848961374 0 0.77714596973225614 -0.62932038083071107 0.75 0 0 1 I I -0.70710678118654757 0.70710678118654757 0.75 forward I I I I #
loop $-1 $-1 $128 $35 #
coedge $-1 $80 $80 $129 $130 reversed $50 $-1 #
face $-1 $-1 $131 $28 $-1 $132 forward single #
loop $-1 $133 $134 $52 #
cone-surface $-1 -26.864843574535705 -26.143172723053929 8.2893511848961374 0 0.77714596973225614 -0.62932038083071107 0.75 0 0 1 I I -0.70710678118654757 0.70710678118654757 0.75 forward I I I I #
loop $-1 $-1 $135 $36 #
coedge $-1 $85 $85 $136 $137 reversed $53 $-1 #
face $-1 $138 $139 $29 $-1 $140 reversed single #
loop $-1 $-1 $141 $55 #
plane-surface $-1 44.327313787967924 -8.850504660779805 53.937692743716624 0 0.7660444514056185 0.64278759981090561 1 0 0 forward_v I I I I #
coedge $-1 $142 $143 $144 $145 reversed $56 $-1 #
face $-1 $-1 $146 $30 $-1 $147 forward single #
loop $-1 $148 $149 $58 #
cone-surface $-1 42.047229176146075 25.990157989900993 8.0067359615292553 0 -0.7660444514056185 -0.64278759981090561 0.75 0 0 1 I I -0.70710678118654757 0.70710678118654757 0.75 forward I I I I #
loop $-1 $-1 $150 $38 #
coedge $-1 $94 $94 $151 $152 reversed $59 $-1 #
face $-1 $-1 $153 $31 $-1 $154 forward single #
loop $-1 $155 $156 $61 #
cone-surface $-1 46.607398399789773 25.990157989900993 8.0067359615292553 0 -0.7660444514056185 -0.64278759981090561 0.75 0 0 1 I I -0.70710678118654757 0.70710678118654757 0.75 forward I I I I #
loop $-1 $-1 $157 $39 #
coedge $-1 $99 $99 $158 $159 reversed $62 $-1 #
face $-1 $160 $161 $24 $-1 $162 reversed single #
loop $-1 $-1 $163 $64 #
plane-surface $-1 0 -30.991853187883891 0 0 1 0 0 0 1 forward_v I I I I #
coedge $-1 $164 $165 $166 $167 forward $65 $-1 #
coedge $-1 $168 $67 $169 $170 forward $41 $-1 #
coedge $-1 $67 $168 $171 $172 forward $41 $-1 #
coedge $-1 $173 $174 $67 $107 reversed $175 $-1 #
edge $-1 $176 -30.991853187883891 $177 30.991853187883891 $106 $178 forward 7 unknown #
face $-1 $179 $180 $25 $-1 $181 reversed single #
loop $-1 $-1 $182 $68 #
plane-surface $-1 -55.142625422352559 -18.514283313079957 0 0 1 0 0 0 1 forward_v I I I I #
coedge $-1 $183 $184 $113 $185 forward $69 $-1 #
coedge $-1 $186 $71 $187 $188 reversed $44 $-1 #
coedge $-1 $71 $186 $111 $185 reversed $44 $-1 #
coedge $-1 $189 $190 $71 $115 reversed $191 $-1 #
edge $-1 $192 -13.201827655765964 $193 13.201827655765964 $114 $194 forward 7 unknown #
face $-1 $195 $196 $26 $-1 $197 forward single #
loop $-1 $-1 $198 $72 #
plane-surface $-1 -38.657282801951567 -108.15857968469069 69.961273795724239 1 0 0 0 0.77714596973225614 -0.62932038083071107 forward_v I I I I #
coedge $-1 $199 $200 $201 $202 reversed $73 $-1 #
coedge $-1 $121 $75 $203 $204 reversed $47 $-1 #
coedge $-1 $75 $120 $199 $205 reversed $47 $-1 #
coedge $-1 $201 $206 $75 $123 forward $196 $-1 #
edge $-1 $207 23.087436654461456 $208 27.726636774592162 $122 $209 forward 7 unknown #
loop $-1 $-1 $129 $76 #
plane-surface $-1 -30.402575342760461 -30.991853187883891 7.4728924647875843 0 -0.77714596973225614 0.62932038083071107 1 0 0 forward_v I I I I #
loop $-1 $-1 $210 $49 #
coedge $-1 $127 $127 $128 $211 reversed $77 $-1 #
coedge $-1 $128 $128 $127 $211 forward $79 $-1 #
coedge $-1 $129 $129 $80 $130 forward $124 $-1 #
edge $-1 $212 -1.8406514113949776e-015 $212 6.2831853071795987 $129 $213 forward 7 unknown #
loop $-1 $-1 $136 $81 #
plane-surface $-1 -30.402575342760461 -30.991853187883891 7.4728924647875843 0 -0.77714596973225614 0.62932038083071107 1 0 0 forward_v I I I I #
loop $-1 $-1 $214 $52 #
coedge $-1 $134 $134 $135 $215 reversed $82 $-1 #
coedge $-1 $135 $135 $134 $215 forward $84 $-1 #
coedge $-1 $136 $136 $85 $137 forward $131 $-1 #
edge $-1 $216 -1.8406514113949776e-015 $216 6.2831853071795987 $136 $217 forward 7 unknown #
face $-1 $218 $219 $29 $-1 $220 forward single #
loop $-1 $-1 $221 $86 #
plane-surface $-1 0 30.991853187883891 0 0 -1 0 0 0 -1 forward_v I I I I #
coedge $-1 $222 $223 $224 $225 reversed $87 $-1 #
coedge $-1 $143 $89 $226 $227 reversed $56 $-1 #
coedge $-1 $89 $142 $222 $228 reversed $56 $-1 #
coedge $-1 $224 $229 $89 $145 forward $219 $-1 #
edge $-1 $230 2.6150949744982057 $231 8.2760043470864062 $144 $232 forward 7 unknown #
loop $-1 $-1 $151 $90 #
plane-surface $-1 44.327313787967924 -8.850504660779805 53.937692743716624 0 0.7660444514056185 0.64278759981090561 1 0 0 forward_v I I I I #
loop $-1 $-1 $233 $58 #
coedge $-1 $149 $149 $150 $234 reversed $91 $-1 #
coedge $-1 $150 $150 $149 $234 forward $93 $-1 #
coedge $-1 $151 $151 $94 $152 forward $146 $-1 #
edge $-1 $235 -6.1524799858170891e-016 $235 6.2831853071795996 $151 $236 forward 7 unknown #
loop $-1 $-1 $158 $95 #
plane-surface $-1 44.327313787967924 -8.850504660779805 53.937692743716624 0 0.7660444514056185 0.64278759981090561 1 0 0 forward_v I I I I #
loop $-1 $-1 $237 $61 #
coedge $-1 $156 $156 $157 $238 reversed $96 $-1 #
coedge $-1 $157 $157 $156 $238 forward $98 $-1 #
coedge $-1 $158 $158 $99 $159 forward $153 $-1 #
edge $-1 $239 -6.1524799858170891e-016 $239 6.2831853071795996 $158 $240 forward 7 unknown #
face $-1 $241 $242 $24 $-1 $243 reversed single #
loop $-1 $-1 $244 $100 #
plane-surface $-1 -49.647511215552228 0 0 1 0 0 0 0 -1 forward_v I I I I #
coedge $-1 $245 $171 $246 $247 forward $101 $-1 #
coedge $-1 $248 $103 $245 $249 forward $65 $-1 #
coedge $-1 $103 $248 $250 $251 forward $65 $-1 #
coedge $-1 $174 $173 $103 $167 reversed $175 $-1 #
edge $-1 $252 -30.991853187883891 $253 30.991853187883891 $166 $254 forward 7 unknown #
coedge $-1 $105 $104 $255 $256 forward $41 $-1 #
coedge $-1 $257 $258 $104 $170 reversed $242 $-1 #
edge $-1 $177 -49.647511215552228 $259 49.647511215552228 $169 $260 forward 7 unknown #
coedge $-1 $163 $261 $105 $172 reversed $101 $-1 #
edge $-1 $262 -49.647511215552228 $176 49.647511215552228 $171 $263 forward 7 unknown #
coedge $-1 $166 $106 $261 $264 forward $175 $-1 #
coedge $-1 $106 $166 $257 $265 reversed $175 $-1 #
loop $-1 $-1 $173 $241 #
vertex $-1 $107 $266 #
vertex $-1 $107 $267 #
straight-curve $-1 49.647511215552228 0 13.201827655765964 0 1 0 I I #
face $-1 $268 $191 $25 $-1 $269 reversed single #
loop $-1 $-1 $270 $108 #
plane-surface $-1 -60.63773962915289 -15.702080888247629 0 1 0 0 0 0 -1 forward_v I I I I #
coedge $-1 $271 $272 $273 $274 forward $109 $-1 #
coedge $-1 $275 $111 $271 $276 forward $69 $-1 #
coedge $-1 $111 $275 $189 $277 forward $69 $-1 #
edge $-1 $192 12.8898784634153 $278 18.514283313079957 $111 $279 forward 7 unknown #
coedge $-1 $113 $112 $280 $281 forward $44 $-1 #
coedge $-1 $282 $283 $112 $188 forward $284 $-1 #
edge $-1 $285 -18.514283313079957 $193 -12.8898784634153 $187 $286 forward 7 unknown #
coedge $-1 $287 $114 $184 $277 reversed $191 $-1 #
coedge $-1 $114 $287 $282 $288 reversed $191 $-1 #
loop $-1 $-1 $114 $179 #
vertex $-1 $185 $289 #
vertex $-1 $288 $290 #
straight-curve $-1 -49.647511215552228 -12.8898784634153 0 0 0 1 I I #
face $-1 $-1 $291 $26 $-1 $292 reversed single #
loop $-1 $-1 $122 $116 #
plane-surface $-1 0 0 13.201827655765964 0 0 1 1 0 0 forward_v I I I I #
coedge $-1 $293 $294 $295 $296 reversed $117 $-1 #
coedge $-1 $297 $119 $121 $205 forward $73 $-1 #
coedge $-1 $119 $297 $293 $298 forward $73 $-1 #
coedge $-1 $295 $122 $119 $202 forward $196 $-1 #
edge $-1 $208 6.946580212189124 $299 23.455995130571338 $201 $300 forward 7 unknown #
coedge $-1 $301 $302 $120 $204 forward $291 $-1 #
edge $-1 $303 -27.507744433074535 $207 -21.778809242096155 $203 $304 forward 7 unknown #
edge $-1 $208 -7.3717620808766764 $303 0 $121 $305 forward 7 unknown #
coedge $-1 $122 $295 $301 $306 forward $196 $-1 #
vertex $-1 $123 $307 #
vertex $-1 $123 $308 #
straight-curve $-1 -22.147867883569354 -54.079289842345347 13.201827655765964 0 1 0 I I #
coedge $-1 $210 $210 $-1 $309 reversed $126 $-1 #
edge $-1 $310 0 $310 6.2831853071796004 $127 $311 forward 7 unknown #
vertex $-1 $130 $312 #
ellipse-curve $-1 -33.940307110985223 -28.672253127818536 10.337360060276776 0 -0.77714596973225614 0.62932038083071107 1.5 0 0 1 I I #
coedge $-1 $214 $214 $-1 $313 reversed $133 $-1 #
edge $-1 $314 0 $314 6.2831853071796004 $134 $315 forward 7 unknown #
vertex $-1 $137 $316 #
ellipse-curve $-1 -26.864843574535705 -28.672253127818536 10.337360060276776 0 -0.77714596973225614 0.62932038083071107 1.5 0 0 1 I I #
face $-1 $-1 $317 $29 $-1 $318 reversed single #
loop $-1 $-1 $224 $138 #
plane-surface $-1 0 0 13.201827655765964 0 0 1 1 0 0 forward_v I I I I #
coedge $-1 $226 $319 $320 $321 forward $139 $-1 #
coedge $-1 $320 $141 $143 $228 forward $87 $-1 #
coedge $-1 $141 $320 $322 $323 reversed $87 $-1 #
coedge $-1 $324 $144 $141 $225 forward $219 $-1 #
edge $-1 $231 16.843459466399651 $325 27.483854321568273 $224 $326 forward 7 unknown #
coedge $-1 $327 $221 $142 $227 forward $139 $-1 #
edge $-1 $328 -52.426232545683483 $230 -45.679823286922186 $226 $329 forward 7 unknown #
edge $-1 $231 53.176894647829165 $328 61.983706375767788 $143 $330 forward 7 unknown #
coedge $-1 $144 $324 $327 $331 forward $219 $-1 #
vertex $-1 $227 $332 #
vertex $-1 $145 $333 #
straight-curve $-1 39.007116360383613 33.606948162382096 13.201827655765968 0 -1 0 I I #
coedge $-1 $233 $233 $-1 $334 reversed $148 $-1 #
edge $-1 $335 0 $335 6.2831853071796004 $149 $336 forward 7 unknown #
vertex $-1 $152 $337 #
ellipse-curve $-1 42.047229176146075 28.161398501589797 9.8286230263853085 0 0.7660444514056185 0.64278759981090561 1.5 0 0 1 I I #
coedge $-1 $237 $237 $-1 $338 reversed $155 $-1 #
edge $-1 $339 0 $339 6.2831853071796004 $156 $340 forward 7 unknown #
vertex $-1 $159 $341 #
ellipse-curve $-1 46.607398399789773 28.161398501589797 9.8286230263853085 0 0.7660444514056185 0.64278759981090561 1.5 0 0 1 I I #
face $-1 $-1 $175 $24 $-1 $342 reversed single #
loop $-1 $-1 $257 $160 #
plane-surface $-1 0 30.991853187883891 0 0 -1 0 0 0 -1 forward_v I I I I #
coedge $-1 $343 $255 $258 $344 forward $161 $-1 #
coedge $-1 $261 $163 $164 $249 reversed $101 $-1 #
coedge $-1 $255 $343 $163 $247 reversed $161 $-1 #
edge $-1 $262 -13.201827655765964 $345 13.201827655765964 $246 $346 forward 7 unknown #
coedge $-1 $165 $164 $343 $347 forward $65 $-1 #
edge $-1 $253 -49.647511215552228 $345 49.647511215552228 $245 $348 forward 7 unknown #
coedge $-1 $258 $257 $165 $251 reversed $242 $-1 #
edge $-1 $349 -49.647511215552228 $252 49.647511215552228 $250 $350 forward 7 unknown #
vertex $-1 $167 $351 #
vertex $-1 $264 $352 #
straight-curve $-1 49.647511215552228 0 -13.201827655765964 0 -1 0 I I #
coedge $-1 $244 $246 $168 $256 reversed $161 $-1 #
edge $-1 $259 -30.991853187883891 $262 30.991853187883891 $255 $353 forward 7 unknown #
coedge $-1 $250 $169 $174 $265 forward $242 $-1 #
coedge $-1 $169 $250 $244 $344 reversed $242 $-1 #
vertex $-1 $170 $354 #
straight-curve $-1 0 30.991853187883891 13.201827655765964 -1 0 0 I I #
coedge $-1 $171 $245 $173 $264 reversed $101 $-1 #
vertex $-1 $256 $355 #
straight-curve $-1 0 -30.991853187883891 13.201827655765964 1 0 0 I I #
edge $-1 $176 -13.201827655765964 $253 13.201827655765964 $173 $356 forward 7 unknown #
edge $-1 $177 -13.201827655765964 $252 13.201827655765964 $174 $357 forward 7 unknown #
point $-1 49.647511215552228 -30.991853187883891 13.201827655765964 #
point $-1 49.647511215552228 30.991853187883891 13.201827655765964 #
face $-1 $-1 $284 $25 $-1 $358 forward single #
plane-surface $-1 -55.142625422352559 -12.8898784634153 0 0 -1 0 0 0 -1 forward_v I I I I #
coedge $-1 $359 $360 $287 $361 forward $180 $-1 #
coedge $-1 $280 $182 $183 $276 reversed $109 $-1 #
coedge $-1 $182 $280 $283 $362 reversed $109 $-1 #
coedge $-1 $360 $359 $182 $274 reversed $180 $-1 #
edge $-1 $363 -13.201827655765964 $364 13.201827655765964 $273 $365 forward 7 unknown #
coedge $-1 $184 $183 $359 $366 forward $69 $-1 #
edge $-1 $278 -5.4951142068003307 $364 5.4951142068003307 $271 $367 forward 7 unknown #
edge $-1 $368 -5.4951142068003307 $192 5.4951142068003307 $189 $369 forward 7 unknown #
vertex $-1 $276 $370 #
straight-curve $-1 -49.647511215552228 0 -13.201827655765964 0 -1 0 I I #
coedge $-1 $272 $271 $186 $281 reversed $109 $-1 #
edge $-1 $285 -13.201827655765964 $278 13.201827655765964 $280 $371 forward 7 unknown #
coedge $-1 $372 $187 $190 $288 forward $284 $-1 #
coedge $-1 $187 $372 $272 $362 forward $284 $-1 #
loop $-1 $-1 $187 $268 #
vertex $-1 $188 $373 #
straight-curve $-1 -49.647511215552228 0 13.201827655765964 0 1 0 I I #
coedge $-1 $190 $189 $270 $361 reversed $191 $-1 #
edge $-1 $193 -5.4951142068003307 $374 5.4951142068003307 $190 $375 forward 7 unknown #
point $-1 -49.647511215552228 -12.8898784634153 -13.201827655765964 #
point $-1 -49.647511215552228 -12.8898784634153 13.201827655765964 #
loop $-1 $-1 $203 $195 #
plane-surface $-1 0 -30.991853187883891 0 0 1 0 0 0 1 forward_v I I I I #
coedge $-1 $294 $198 $200 $298 reversed $117 $-1 #
coedge $-1 $198 $293 $376 $377 reversed $117 $-1 #
coedge $-1 $206 $201 $198 $296 forward $196 $-1 #
edge $-1 $299 -27.726636774592162 $378 -23.087436654461456 $295 $379 forward 7 unknown #
coedge $-1 $200 $199 $302 $380 reversed $73 $-1 #
edge $-1 $381 0 $299 7.3717620808766764 $293 $382 forward 7 unknown #
vertex $-1 $202 $383 #
straight-curve $-1 -15.20128767138023 -26.352653067753185 13.201827655765964 -1 0 0 I I #
coedge $-1 $376 $203 $206 $306 reversed $291 $-1 #
coedge $-1 $203 $376 $297 $380 forward $291 $-1 #
vertex $-1 $204 $384 #
straight-curve $-1 -22.147867883569354 -30.991853187883891 34.980636897862119 0 0 1 I I #
straight-curve $-1 -22.147867883569354 -30.991853187883891 7.4728924647875843 0 -0.62932038083071107 -0.77714596973225614 I I #
edge $-1 $378 -38.657282801951567 $207 -22.147867883569354 $301 $385 forward 7 unknown #
point $-1 -22.147867883569354 -30.991853187883891 13.201827655765964 #
point $-1 -22.147867883569354 -26.352653067753185 13.201827655765964 #
edge $-1 $386 1 $386 0 $210 $-1 forward 7 unknown #
vertex $-1 $211 $387 #
ellipse-curve $-1 -33.940307110985223 -26.726032200353121 8.7613414705191701 0 -0.77714596973225614 0.62932038083071107 1.5 0 0 1 I I #
point $-1 -32.440307110985223 -28.672253127818536 10.337360060276772 #
edge $-1 $388 1 $388 0 $214 $-1 forward 7 unknown #
vertex $-1 $215 $389 #
ellipse-curve $-1 -26.864843574535705 -26.726032200353121 8.7613414705191701 0 -0.77714596973225614 0.62932038083071107 1.5 0 0 1 I I #
point $-1 -25.364843574535705 -28.672253127818536 10.337360060276772 #
loop $-1 $-1 $322 $218 #
plane-surface $-1 49.647511215552228 0 0 -1 0 0 0 0 1 forward_v I I I I #
coedge $-1 $221 $327 $390 $391 forward $139 $-1 #
coedge $-1 $223 $222 $221 $321 reversed $87 $-1 #
edge $-1 $392 -27.483854321568273 $328 -16.843459466399651 $221 $393 forward 7 unknown #
coedge $-1 $390 $394 $223 $323 forward $317 $-1 #
edge $-1 $325 29.673062199847607 $392 38.47987392778623 $322 $395 forward 7 unknown #
coedge $-1 $229 $224 $394 $396 forward $219 $-1 #
vertex $-1 $396 $397 #
straight-curve $-1 22.163656893983962 25.330943815295697 13.20182765576596 1 0 0 I I #
coedge $-1 $319 $226 $229 $331 reversed $139 $-1 #
vertex $-1 $227 $398 #
straight-curve $-1 39.007116360383613 30.991853187883891 58.881650942688147 0 0 1 I I #
straight-curve $-1 39.007116360383613 -8.850504660779805 53.937692743716624 0 0.64278759981090561 -0.7660444514056185 I I #
edge $-1 $399 -49.647511215552228 $230 -39.007116360383613 $327 $400 forward 7 unknown #
point $-1 39.007116360383613 30.991853187883891 13.201827655765964 #
point $-1 39.007116360383613 25.33094381529569 13.201827655765968 #
edge $-1 $401 1 $401 0 $233 $-1 forward 7 unknown #
vertex $-1 $234 $402 #
ellipse-curve $-1 42.047229176146075 26.564691328455208 8.488826661387435 0 0.7660444514056185 0.64278759981090561 1.5 0 0 1 I I #
point $-1 43.547229176146075 28.161398501589794 9.8286230263853067 #
edge $-1 $403 1 $403 0 $237 $-1 forward 7 unknown #
vertex $-1 $238 $404 #
ellipse-curve $-1 46.607398399789773 26.564691328455208 8.488826661387435 0 0.7660444514056185 0.64278759981090561 1.5 0 0 1 I I #
point $-1 48.107398399789773 28.161398501589794 9.8286230263853067 #
plane-surface $-1 49.647511215552228 0 0 -1 0 0 0 0 1 forward_v I I I I #
coedge $-1 $246 $244 $248 $347 reversed $161 $-1 #
edge $-1 $259 -13.201827655765964 $349 13.201827655765964 $258 $405 forward 7 unknown #
vertex $-1 $347 $406 #
straight-curve $-1 -49.647511215552228 -30.991853187883891 0 0 0 -1 I I #
edge $-1 $345 -30.991853187883891 $349 30.991853187883891 $343 $407 forward 7 unknown #
straight-curve $-1 0 -30.991853187883891 -13.201827655765964 -1 0 0 I I #
vertex $-1 $251 $408 #
straight-curve $-1 0 30.991853187883891 -13.201827655765964 1 0 0 I I #
point $-1 49.647511215552228 30.991853187883891 -13.201827655765964 #
point $-1 49.647511215552228 -30.991853187883891 -13.201827655765964 #
straight-curve $-1 -49.647511215552228 0 13.201827655765964 0 -1 0 I I #
point $-1 -49.647511215552228 30.991853187883891 13.201827655765964 #
point $-1 -49.647511215552228 -30.991853187883891 13.201827655765964 #
straight-curve $-1 49.647511215552228 -30.991853187883891 0 0 0 -1 I I #
straight-curve $-1 49.647511215552228 30.991853187883891 0 0 0 -1 I I #
plane-surface $-1 0 0 13.201827655765964 0 0 1 1 0 0 forward_v I I I I #
coedge $-1 $273 $270 $275 $366 reversed $180 $-1 #
coedge $-1 $270 $273 $372 $409 reversed $180 $-1 #
edge $-1 $374 -13.201827655765964 $368 13.201827655765964 $287 $410 forward 7 unknown #
edge $-1 $363 -5.4951142068003307 $285 5.4951142068003307 $272 $411 forward 7 unknown #
vertex $-1 $409 $412 #
vertex $-1 $366 $413 #
straight-curve $-1 -60.63773962915289 -18.514283313079957 0 0 0 -1 I I #
edge $-1 $364 -2.8122024248323285 $368 2.8122024248323285 $359 $414 forward 7 unknown #
straight-curve $-1 -55.142625422352559 -18.514283313079957 -13.201827655765964 -1 0 0 I I #
vertex $-1 $277 $415 #
straight-curve $-1 -55.142625422352559 -12.8898784634153 -13.201827655765964 1 0 0 I I #
point $-1 -49.647511215552228 -18.514283313079957 -13.201827655765964 #
straight-curve $-1 -49.647511215552228 -18.514283313079957 0 0 0 -1 I I #
coedge $-1 $283 $282 $360 $409 forward $284 $-1 #
point $-1 -49.647511215552228 -18.514283313079957 13.201827655765964 #
vertex $-1 $288 $416 #
straight-curve $-1 -55.142625422352559 -12.8898784634153 13.201827655765964 -1 0 0 I I #
coedge $-1 $302 $301 $294 $377 forward $291 $-1 #
edge $-1 $378 21.778809242096155 $381 27.507744433074535 $376 $417 forward 7 unknown #
vertex $-1 $306 $418 #
straight-curve $-1 -38.657282801951567 -54.079289842345347 13.201827655765964 0 -1 0 I I #
edge $-1 $381 -23.455995130571338 $303 -6.946580212189124 $302 $419 forward 7 unknown #
vertex $-1 $380 $420 #
straight-curve $-1 -38.657282801951567 -30.991853187883891 7.4728924647875843 0 0.62932038083071107 0.77714596973225614 I I #
point $-1 -38.657282801951567 -26.352653067753185 13.201827655765964 #
point $-1 -22.147867883569354 -30.991853187883891 7.4728924647875843 #
straight-curve $-1 0 -30.991853187883891 13.201827655765964 1 0 0 I I #
vertex $-1 $309 $421 #
point $-1 -32.440307110985223 -26.726032200353121 8.7613414705191701 #
vertex $-1 $313 $422 #
point $-1 -25.364843574535705 -26.726032200353121 8.7613414705191701 #
coedge $-1 $394 $322 $319 $391 reversed $317 $-1 #
edge $-1 $399 -13.201827655765964 $392 -6.4554183970046637 $390 $423 forward 7 unknown #
vertex $-1 $323 $424 #
straight-curve $-1 22.163656893983962 30.991853187883891 6.4554183970046637 -1 0 0 I I #
coedge $-1 $322 $390 $324 $396 reversed $317 $-1 #
straight-curve $-1 49.647511215552228 6.2574673848159375 35.932712310173024 0 0.64278759981090572 -0.76604445140561861 I I #
edge $-1 $325 25.33094381529569 $399 30.991853187883891 $394 $425 forward 7 unknown #
point $-1 49.647511215552235 25.33094381529569 13.201827655765968 #
point $-1 39.007116360383613 30.991853187883891 6.4554183970046637 #
vertex $-1 $396 $426 #
straight-curve $-1 0 30.991853187883891 13.201827655765964 -1 0 0 I I #
vertex $-1 $334 $427 #
point $-1 43.547229176146075 26.564691328455208 8.488826661387435 #
vertex $-1 $338 $428 #
point $-1 48.107398399789773 26.564691328455208 8.488826661387435 #
straight-curve $-1 -49.647511215552228 30.991853187883891 0 0 0 -1 I I #
point $-1 -49.647511215552228 -30.991853187883891 -13.201827655765964 #
straight-curve $-1 -49.647511215552228 0 -13.201827655765964 0 1 0 I I #
point $-1 -49.647511215552228 30.991853187883891 -13.201827655765964 #
edge $-1 $374 -2.8122024248323285 $363 2.8122024248323285 $360 $429 forward 7 unknown #
straight-curve $-1 -60.63773962915289 -12.8898784634153 0 0 0 -1 I I #
straight-curve $-1 -55.142625422352559 -18.514283313079957 13.201827655765964 1 0 0 I I #
point $-1 -60.63773962915289 -18.514283313079957 13.201827655765964 #
point $-1 -60.63773962915289 -18.514283313079957 -13.201827655765964 #
straight-curve $-1 -60.63773962915289 -15.702080888247629 -13.201827655765964 0 1 0 I I #
point $-1 -60.63773962915289 -12.8898784634153 -13.201827655765964 #
point $-1 -60.63773962915289 -12.8898784634153 13.201827655765964 #
straight-curve $-1 -38.657282801951567 -30.991853187883891 34.980636897862119 0 0 -1 I I #
point $-1 -38.657282801951567 -30.991853187883891 13.201827655765964 #
straight-curve $-1 -15.20128767138023 -30.991853187883891 7.4728924647875825 1 0 0 I I #
point $-1 -38.657282801951567 -30.991853187883891 7.4728924647875843 #
point $-1 -33.940307110985223 -25.560313245754738 7.8173608992731038 #
point $-1 -26.864843574535705 -25.560313245754738 7.8173608992731038 #
straight-curve $-1 49.647511215552228 30.991853187883891 0 0 0 -1 I I #
point $-1 49.647511215552235 30.991853187883891 6.4554183970046637 #
straight-curve $-1 49.647511215552228 0 13.201827655765964 0 1 0 I I #
point $-1 49.647511215552228 30.991853187883891 13.201827655765964 #
point $-1 42.047229176146075 25.415624651346779 7.5246452616710764 #
point $-1 46.607398399789773 25.415624651346779 7.5246452616710764 #
straight-curve $-1 -60.63773962915289 -15.702080888247629 13.201827655765964 0 -1 0 I I #
End-of-ACIS-data 