500 0 8 0           
7 Unknown 11 ACIS 5.0 NT 24 Fri Mar 26 18:20:11 1999 
-1 9.9999999999999995e-007 1e-010 
body $-1 $8 $-1 $9 #
body $-1 $10 $-1 $11 #
body $-1 $12 $-1 $13 #
body $-1 $14 $-1 $15 #
body $-1 $16 $-1 $17 #
body $-1 $18 $-1 $19 #
body $-1 $20 $-1 $21 #
body $-1 $22 $-1 $23 #
lump $-1 $-1 $24 $0 #
transform $-1 1 0 0 0 1 0 0 0 1 42.824793237098298 22.254463767896429 5.2231125266466476 1 rotate no_reflect no_shear #
lump $-1 $-1 $25 $1 #
transform $-1 1 0 0 0 1 0 0 0 1 42.824793237098298 22.254463767896429 5.2231125266466476 1 rotate no_reflect no_shear #
lump $-1 $-1 $26 $2 #
transform $-1 1 0 0 0 1 0 0 0 1 42.824793237098298 22.254463767896429 5.2231125266466476 1 rotate no_reflect no_shear #
lump $-1 $-1 $27 $3 #
transform $-1 1 0 0 0 1 0 0 0 1 42.824793237098298 22.254463767896429 5.2231125266466476 1 rotate no_reflect no_shear #
lump $-1 $-1 $28 $4 #
transform $-1 1 0 0 0 1 0 0 0 1 42.824793237098298 22.254463767896429 5.2231125266466476 1 rotate no_reflect no_shear #
lump $-1 $-1 $29 $5 #
transform $-1 1 0 0 0 1 0 0 0 1 42.824793237098298 22.254463767896429 5.2231125266466476 1 rotate no_reflect no_shear #
lump $-1 $-1 $30 $6 #
transform $-1 1 0 0 0 1 0 0 0 1 42.824793237098298 22.254463767896429 5.2231125266466476 1 rotate no_reflect no_shear #
lump $-1 $-1 $31 $7 #
transform $-1 1 0 0 0 1 0 0 0 1 42.824793237098298 22.254463767896429 5.2231125266466476 1 rotate no_reflect no_shear #
shell $-1 $-1 $-1 $32 $-1 $8 #
shell $-1 $-1 $-1 $33 $-1 $10 #
shell $-1 $-1 $-1 $34 $-1 $12 #
shell $-1 $-1 $-1 $35 $-1 $14 #
shell $-1 $-1 $-1 $36 $-1 $16 #
shell $-1 $-1 $-1 $37 $-1 $18 #
shell $-1 $-1 $-1 $38 $-1 $20 #
shell $-1 $-1 $-1 $39 $-1 $22 #
face $-1 $40 $41 $24 $-1 $42 forward single #
face $-1 $43 $44 $25 $-1 $45 reversed single #
face $-1 $46 $47 $26 $-1 $48 reversed single #
face $-1 $49 $50 $27 $-1 $51 forward single #
face $-1 $52 $53 $28 $-1 $54 forward single #
face $-1 $55 $56 $29 $-1 $57 reversed single #
face $-1 $58 $59 $30 $-1 $60 forward single #
face $-1 $61 $62 $31 $-1 $63 forward single #
face $-1 $64 $65 $24 $-1 $66 reversed single #
loop $-1 $-1 $67 $32 #
plane-surface $-1 0 0 5.2231125266466476 0 0 1 1 0 0 forward_v I I I I #
face $-1 $68 $69 $25 $-1 $70 reversed single #
loop $-1 $-1 $71 $33 #
plane-surface $-1 -39.851908594211629 -14.808238714603133 0 0 1 0 0 0 1 forward_v I I I I #
face $-1 $72 $73 $26 $-1 $74 reversed single #
loop $-1 $-1 $75 $34 #
plane-surface $-1 -24.663069549238543 74.174718969095935 83.56846031362727 1 0 0 0 -0.86602541151947299 -0.49999998660252726 forward_v I I I I #
face $-1 $76 $77 $27 $-1 $78 forward single #
loop $-1 $79 $80 $35 #
cone-surface $-1 -20.90703207255396 20.694916170081438 3.3142717680062215 0 -0.86602541151947299 -0.49999998660252726 0.5 0 0 1 I I 0 1 0.5 forward I I I I #
face $-1 $81 $82 $28 $-1 $83 forward single #
loop $-1 $84 $85 $36 #
cone-surface $-1 -15.272975857527079 20.694916170081438 3.3142717680062215 0 -0.86602541151947299 -0.49999998660252726 0.5 0 0 1 I I 0 1 0.5 forward I I I I #
face $-1 $86 $87 $29 $-1 $88 reversed single #
loop $-1 $-1 $89 $37 #
plane-surface $-1 37.912842089924546 -22.254463767896425 1.2511495743855505 0 -0.77714596973225614 0.62932038083071107 1 0 0 forward_v I I I I #
face $-1 $90 $91 $30 $-1 $92 forward single #
loop $-1 $93 $94 $38 #
cone-surface $-1 35.807720169707217 -19.233690585849537 2.0932648668094518 0 0.77714596973225614 -0.62932038083071107 1 0 0 1 I I 0 1 1 forward I I I I #
face $-1 $95 $96 $31 $-1 $97 forward single #
loop $-1 $98 $99 $39 #
cone-surface $-1 40.017964010141874 -19.233690585849537 2.0932648668094518 0 0.77714596973225614 -0.62932038083071107 1 0 0 1 I I 0 1 1 forward I I I I #
face $-1 $100 $101 $24 $-1 $102 reversed single #
loop $-1 $-1 $103 $40 #
plane-surface $-1 0 0 -5.2231125266466476 0 0 1 1 0 0 forward_v I I I I #
coedge $-1 $104 $105 $106 $107 forward $41 $-1 #
face $-1 $108 $109 $25 $-1 $110 reversed single #
loop $-1 $-1 $111 $43 #
plane-surface $-1 -39.851908594211629 -11.808238714603133 0 0 -1 0 0 0 -1 forward_v I I I I #
coedge $-1 $112 $113 $114 $115 reversed $44 $-1 #
face $-1 $116 $117 $26 $-1 $118 reversed single #
loop $-1 $-1 $119 $46 #
plane-surface $-1 -18.090003965040516 5.9630714588365663e-007 40.743668224016972 0 0.86602541151947299 0.49999998660252726 1 0 0 forward_v I I I I #
coedge $-1 $120 $121 $122 $123 reversed $47 $-1 #
face $-1 $-1 $124 $27 $-1 $125 forward single #
loop $-1 $126 $127 $49 #
cone-surface $-1 -20.90703207255396 19.792192974697262 2.7930843067677005 0 -0.86602541151947299 -0.49999998660252726 0.25 0 0 1 I I -0.70710678118654746 0.70710678118654746 0.25 forward I I I I #
loop $-1 $-1 $128 $35 #
coedge $-1 $80 $80 $129 $130 reversed $50 $-1 #
face $-1 $-1 $131 $28 $-1 $132 forward single #
loop $-1 $133 $134 $52 #
cone-surface $-1 -15.272975857527079 19.792192974697262 2.7930843067677005 0 -0.86602541151947299 -0.49999998660252726 0.25 0 0 1 I I -0.70710678118654746 0.70710678118654746 0.25 forward I I I I #
loop $-1 $-1 $135 $36 #
coedge $-1 $85 $85 $136 $137 reversed $53 $-1 #
face $-1 $138 $139 $29 $-1 $140 reversed single #
loop $-1 $-1 $141 $55 #
plane-surface $-1 33.000890942750786 -88.816694705552663 55.152179952319869 1 0 0 0 0.77714596973225614 -0.62932038083071107 forward_v I I I I #
coedge $-1 $142 $143 $144 $145 reversed $56 $-1 #
face $-1 $-1 $146 $30 $-1 $147 forward single #
loop $-1 $148 $149 $58 #
cone-surface $-1 35.807720169707217 -17.432560465288542 0.63473849268745575 0 0.77714596973225614 -0.62932038083071107 0.5 0 0 1 I I -0.70710678118654768 0.70710678118654735 0.5 forward I I I I #
loop $-1 $-1 $150 $38 #
coedge $-1 $94 $94 $151 $152 reversed $59 $-1 #
face $-1 $-1 $153 $31 $-1 $154 forward single #
loop $-1 $155 $156 $61 #
cone-surface $-1 40.017964010141874 -17.432560465288542 0.63473849268745575 0 0.77714596973225614 -0.62932038083071107 0.5 0 0 1 I I -0.70710678118654768 0.70710678118654735 0.5 forward I I I I #
loop $-1 $-1 $157 $39 #
coedge $-1 $99 $99 $158 $159 reversed $62 $-1 #
face $-1 $160 $161 $24 $-1 $162 reversed single #
loop $-1 $-1 $163 $64 #
plane-surface $-1 0 -22.254463767896429 0 0 1 0 0 0 1 forward_v I I I I #
coedge $-1 $164 $165 $166 $167 forward $65 $-1 #
coedge $-1 $168 $67 $169 $170 forward $41 $-1 #
coedge $-1 $67 $168 $171 $172 forward $41 $-1 #
coedge $-1 $173 $174 $67 $107 reversed $175 $-1 #
edge $-1 $176 -22.254463767896429 $177 22.254463767896429 $106 $178 forward 7 unknown #
face $-1 $179 $180 $25 $-1 $181 reversed single #
loop $-1 $-1 $182 $68 #
plane-surface $-1 -36.87902395132496 -13.308238714603133 0 -1 0 0 0 0 1 forward_v I I I I #
coedge $-1 $183 $184 $185 $186 forward $69 $-1 #
coedge $-1 $187 $71 $188 $189 reversed $44 $-1 #
coedge $-1 $71 $187 $190 $191 reversed $44 $-1 #
coedge $-1 $192 $193 $71 $115 forward $194 $-1 #
edge $-1 $195 -5.2231125266466476 $196 5.2231125266466476 $114 $197 forward 7 unknown #
face $-1 $198 $199 $26 $-1 $200 reversed single #
loop $-1 $-1 $201 $72 #
plane-surface $-1 -11.516938380842488 74.174718969095935 83.56846031362727 -1 0 0 0 0.86602541151947299 0.49999998660252726 forward_v I I I I #
coedge $-1 $202 $203 $204 $205 reversed $73 $-1 #
coedge $-1 $121 $75 $206 $207 reversed $47 $-1 #
coedge $-1 $75 $120 $202 $208 reversed $47 $-1 #
coedge $-1 $204 $209 $75 $123 forward $210 $-1 #
edge $-1 $211 14.832895716651539 $212 16.57955722727289 $122 $213 forward 7 unknown #
loop $-1 $-1 $129 $76 #
plane-surface $-1 -18.090003965040516 5.9630714588365663e-007 40.743668224016972 0 0.86602541151947299 0.49999998660252726 1 0 0 forward_v I I I I #
loop $-1 $-1 $214 $49 #
coedge $-1 $127 $127 $128 $215 reversed $77 $-1 #
coedge $-1 $128 $128 $127 $215 forward $79 $-1 #
coedge $-1 $129 $129 $80 $130 forward $124 $-1 #
edge $-1 $216 2.3075552442705486e-015 $216 6.2831853071796031 $129 $217 forward 7 unknown #
loop $-1 $-1 $136 $81 #
plane-surface $-1 -18.090003965040516 5.9630714588365663e-007 40.743668224016972 0 0.86602541151947299 0.49999998660252726 1 0 0 forward_v I I I I #
loop $-1 $-1 $218 $52 #
coedge $-1 $134 $134 $135 $219 reversed $82 $-1 #
coedge $-1 $135 $135 $134 $219 forward $84 $-1 #
coedge $-1 $136 $136 $85 $137 forward $131 $-1 #
edge $-1 $220 2.3075552442705486e-015 $220 6.2831853071796031 $136 $221 forward 7 unknown #
face $-1 $222 $223 $29 $-1 $224 forward single #
loop $-1 $-1 $225 $86 #
plane-surface $-1 0 -22.254463767896429 0 0 1 0 0 0 1 forward_v I I I I #
coedge $-1 $226 $227 $228 $229 reversed $87 $-1 #
coedge $-1 $230 $89 $231 $232 reversed $56 $-1 #
coedge $-1 $89 $230 $226 $233 forward $56 $-1 #
coedge $-1 $228 $234 $89 $145 forward $223 $-1 #
edge $-1 $235 -23.868372192136032 $236 -14.044469897788513 $144 $237 forward 7 unknown #
loop $-1 $-1 $151 $90 #
plane-surface $-1 37.912842089924546 -22.254463767896425 1.2511495743855505 0 -0.77714596973225614 0.62932038083071107 1 0 0 forward_v I I I I #
loop $-1 $-1 $238 $58 #
coedge $-1 $149 $149 $150 $239 reversed $91 $-1 #
coedge $-1 $150 $150 $149 $239 forward $93 $-1 #
coedge $-1 $151 $151 $94 $152 forward $146 $-1 #
edge $-1 $240 -8.7030413140381694e-016 $240 6.2831853071795996 $151 $241 forward 7 unknown #
loop $-1 $-1 $158 $95 #
plane-surface $-1 37.912842089924546 -22.254463767896425 1.2511495743855505 0 -0.77714596973225614 0.62932038083071107 1 0 0 forward_v I I I I #
loop $-1 $-1 $242 $61 #
coedge $-1 $156 $156 $157 $243 reversed $96 $-1 #
coedge $-1 $157 $157 $156 $243 forward $98 $-1 #
coedge $-1 $158 $158 $99 $159 forward $153 $-1 #
edge $-1 $244 -8.7030413140381694e-016 $244 6.2831853071795996 $158 $245 forward 7 unknown #
face $-1 $246 $247 $24 $-1 $248 reversed single #
loop $-1 $-1 $249 $100 #
plane-surface $-1 -42.824793237098298 0 0 1 0 0 0 0 -1 forward_v I I I I #
coedge $-1 $250 $171 $251 $252 forward $101 $-1 #
coedge $-1 $253 $103 $250 $254 forward $65 $-1 #
coedge $-1 $103 $253 $255 $256 forward $65 $-1 #
coedge $-1 $174 $173 $103 $167 reversed $175 $-1 #
edge $-1 $257 -22.254463767896429 $258 22.254463767896429 $166 $259 forward 7 unknown #
coedge $-1 $105 $104 $260 $261 forward $41 $-1 #
coedge $-1 $262 $263 $104 $170 reversed $247 $-1 #
edge $-1 $177 -42.824793237098298 $264 42.824793237098298 $169 $265 forward 7 unknown #
coedge $-1 $163 $266 $105 $172 reversed $101 $-1 #
edge $-1 $267 -42.824793237098298 $176 42.824793237098298 $171 $268 forward 7 unknown #
coedge $-1 $166 $106 $266 $269 forward $175 $-1 #
coedge $-1 $106 $166 $262 $270 reversed $175 $-1 #
loop $-1 $-1 $173 $246 #
vertex $-1 $107 $271 #
vertex $-1 $107 $272 #
straight-curve $-1 42.824793237098298 0 5.2231125266466476 0 1 0 I I #
face $-1 $273 $274 $25 $-1 $275 forward single #
loop $-1 $-1 $276 $108 #
plane-surface $-1 0 0 -5.2231125266466476 0 0 1 1 0 0 forward_v I I I I #
coedge $-1 $277 $278 $187 $279 forward $109 $-1 #
coedge $-1 $280 $111 $276 $281 reversed $69 $-1 #
coedge $-1 $111 $280 $282 $283 reversed $69 $-1 #
coedge $-1 $278 $277 $111 $186 reversed $109 $-1 #
edge $-1 $284 -5.2231125266466476 $285 5.2231125266466476 $185 $286 forward 7 unknown #
coedge $-1 $113 $112 $182 $279 reversed $44 $-1 #
coedge $-1 $287 $288 $112 $189 forward $180 $-1 #
edge $-1 $289 16.953069654219146 $195 22.898838939992483 $188 $290 forward 7 unknown #
coedge $-1 $291 $292 $113 $191 forward $274 $-1 #
edge $-1 $196 -22.898838939992483 $293 -16.953069654219146 $190 $294 forward 7 unknown #
coedge $-1 $295 $114 $292 $296 reversed $194 $-1 #
coedge $-1 $114 $295 $287 $297 reversed $194 $-1 #
loop $-1 $-1 $295 $273 #
vertex $-1 $297 $298 #
vertex $-1 $115 $299 #
straight-curve $-1 -42.824793237098298 -14.808238714603133 0 0 0 1 I I #
face $-1 $-1 $210 $26 $-1 $300 forward single #
loop $-1 $-1 $301 $116 #
plane-surface $-1 0 22.254463767896429 0 0 -1 0 0 0 -1 forward_v I I I I #
coedge $-1 $302 $303 $304 $305 reversed $117 $-1 #
coedge $-1 $306 $119 $121 $208 forward $73 $-1 #
coedge $-1 $119 $306 $302 $307 forward $73 $-1 #
coedge $-1 $304 $122 $119 $205 forward $210 $-1 #
edge $-1 $212 -15.618067566718285 $308 -2.4719363983222298 $204 $309 forward 7 unknown #
coedge $-1 $310 $311 $120 $207 forward $199 $-1 #
edge $-1 $312 -39.586424218272072 $211 -36.56111763016699 $206 $313 forward 7 unknown #
edge $-1 $212 41.015604420946751 $312 44.50892753579285 $121 $314 forward 7 unknown #
coedge $-1 $122 $304 $310 $315 forward $210 $-1 #
loop $-1 $-1 $304 $198 #
vertex $-1 $207 $316 #
vertex $-1 $123 $317 #
straight-curve $-1 -24.663069549238543 37.087359484547967 5.2231125266466449 0 -1 0 I I #
coedge $-1 $214 $214 $-1 $318 reversed $126 $-1 #
edge $-1 $319 0 $319 6.2831853071796004 $127 $320 forward 7 unknown #
vertex $-1 $130 $321 #
ellipse-curve $-1 -20.90703207255396 21.381133012585749 3.7104592325941121 0 0.86602541151947299 0.49999998660252726 0.5 0 0 1 I I #
coedge $-1 $218 $218 $-1 $322 reversed $133 $-1 #
edge $-1 $323 0 $323 6.2831853071796004 $134 $324 forward 7 unknown #
vertex $-1 $137 $325 #
ellipse-curve $-1 -15.272975857527079 21.381133012585749 3.7104592325941121 0 0.86602541151947299 0.49999998660252726 0.5 0 0 1 I I #
face $-1 $-1 $326 $29 $-1 $327 reversed single #
loop $-1 $-1 $228 $138 #
plane-surface $-1 0 0 5.2231125266466476 0 0 1 1 0 0 forward_v I I I I #
coedge $-1 $328 $329 $227 $330 forward $139 $-1 #
coedge $-1 $227 $141 $143 $233 reversed $87 $-1 #
coedge $-1 $141 $226 $225 $330 reversed $87 $-1 #
coedge $-1 $331 $144 $141 $229 forward $223 $-1 #
edge $-1 $236 -25.370315677583946 $332 -22.153883584879903 $228 $333 forward 7 unknown #
coedge $-1 $143 $142 $328 $334 reversed $56 $-1 #
coedge $-1 $335 $336 $142 $232 forward $326 $-1 #
edge $-1 $337 -6.5164308821649453 $235 -1.4054696123927681 $231 $338 forward 7 unknown #
edge $-1 $339 -5.6870165216907905e-015 $236 5.1109612697721722 $226 $340 forward 7 unknown #
coedge $-1 $144 $331 $335 $341 forward $223 $-1 #
vertex $-1 $232 $342 #
vertex $-1 $145 $343 #
straight-curve $-1 18.956421044962273 -19.038031675192389 5.2231125266466476 -1 0 0 I I #
coedge $-1 $238 $238 $-1 $344 reversed $148 $-1 #
edge $-1 $345 0 $345 6.2831853071796004 $149 $346 forward 7 unknown #
vertex $-1 $152 $347 #
ellipse-curve $-1 35.807720169707217 -20.646247721544409 3.237131050516096 0 -0.77714596973225614 0.62932038083071107 1 0 0 1 I I #
coedge $-1 $242 $242 $-1 $348 reversed $155 $-1 #
edge $-1 $349 0 $349 6.2831853071796004 $156 $350 forward 7 unknown #
vertex $-1 $159 $351 #
ellipse-curve $-1 40.017964010141874 -20.646247721544409 3.237131050516096 0 -0.77714596973225614 0.62932038083071107 1 0 0 1 I I #
face $-1 $-1 $175 $24 $-1 $352 reversed single #
loop $-1 $-1 $262 $160 #
plane-surface $-1 0 22.254463767896429 0 0 -1 0 0 0 -1 forward_v I I I I #
coedge $-1 $353 $260 $263 $354 forward $161 $-1 #
coedge $-1 $266 $163 $164 $254 reversed $101 $-1 #
coedge $-1 $260 $353 $163 $252 reversed $161 $-1 #
edge $-1 $267 -5.2231125266466476 $355 5.2231125266466476 $251 $356 forward 7 unknown #
coedge $-1 $165 $164 $353 $357 forward $65 $-1 #
edge $-1 $258 -42.824793237098298 $355 42.824793237098298 $250 $358 forward 7 unknown #
coedge $-1 $263 $262 $165 $256 reversed $247 $-1 #
edge $-1 $359 -42.824793237098298 $257 42.824793237098298 $255 $360 forward 7 unknown #
vertex $-1 $167 $361 #
vertex $-1 $269 $362 #
straight-curve $-1 42.824793237098298 0 -5.2231125266466476 0 -1 0 I I #
coedge $-1 $249 $251 $168 $261 reversed $161 $-1 #
edge $-1 $264 -22.254463767896429 $267 22.254463767896429 $260 $363 forward 7 unknown #
coedge $-1 $255 $169 $174 $270 forward $247 $-1 #
coedge $-1 $169 $255 $249 $354 reversed $247 $-1 #
vertex $-1 $170 $364 #
straight-curve $-1 0 22.254463767896429 5.2231125266466476 -1 0 0 I I #
coedge $-1 $171 $250 $173 $269 reversed $101 $-1 #
vertex $-1 $261 $365 #
straight-curve $-1 0 -22.254463767896429 5.2231125266466476 1 0 0 I I #
edge $-1 $176 -5.2231125266466476 $258 5.2231125266466476 $173 $366 forward 7 unknown #
edge $-1 $177 -5.2231125266466476 $257 5.2231125266466476 $174 $367 forward 7 unknown #
point $-1 42.824793237098298 -22.254463767896429 5.2231125266466476 #
point $-1 42.824793237098298 22.254463767896429 5.2231125266466476 #
face $-1 $-1 $194 $25 $-1 $368 reversed single #
loop $-1 $-1 $282 $179 #
plane-surface $-1 0 0 5.2231125266466476 0 0 1 1 0 0 forward_v I I I I #
coedge $-1 $288 $287 $183 $281 forward $180 $-1 #
coedge $-1 $185 $182 $288 $369 reversed $109 $-1 #
coedge $-1 $182 $185 $291 $370 reversed $109 $-1 #
edge $-1 $293 -5.2231125266466476 $289 5.2231125266466476 $182 $371 forward 7 unknown #
coedge $-1 $184 $183 $295 $372 reversed $69 $-1 #
edge $-1 $373 -22.898838939992483 $285 -16.953069654219146 $276 $374 forward 7 unknown #
coedge $-1 $292 $291 $184 $283 forward $274 $-1 #
edge $-1 $284 16.953069654219146 $375 22.898838939992483 $282 $376 forward 7 unknown #
vertex $-1 $283 $377 #
vertex $-1 $281 $378 #
straight-curve $-1 -36.87902395132496 -11.808238714603133 0 0 0 -1 I I #
coedge $-1 $276 $188 $193 $297 forward $180 $-1 #
coedge $-1 $188 $276 $277 $369 forward $180 $-1 #
vertex $-1 $189 $379 #
straight-curve $-1 -19.925954297105815 -14.808238714603133 -5.2231125266466476 -1 0 0 I I #
coedge $-1 $282 $190 $278 $370 forward $274 $-1 #
coedge $-1 $190 $282 $192 $296 forward $274 $-1 #
vertex $-1 $191 $380 #
straight-curve $-1 -19.925954297105815 -14.808238714603133 5.2231125266466476 1 0 0 I I #
coedge $-1 $193 $192 $280 $372 forward $194 $-1 #
edge $-1 $375 11.808238714603133 $196 14.808238714603133 $192 $381 forward 7 unknown #
edge $-1 $195 -14.808238714603133 $373 -11.808238714603133 $193 $382 forward 7 unknown #
point $-1 -42.824793237098298 -14.808238714603133 -5.2231125266466476 #
point $-1 -42.824793237098298 -14.808238714603133 5.2231125266466476 #
plane-surface $-1 0 0 5.2231125266466476 0 0 1 1 0 0 forward_v I I I I #
coedge $-1 $311 $310 $303 $383 forward $199 $-1 #
coedge $-1 $303 $201 $203 $307 reversed $117 $-1 #
coedge $-1 $201 $302 $301 $383 reversed $117 $-1 #
coedge $-1 $209 $204 $201 $305 forward $210 $-1 #
edge $-1 $308 -16.57955722727289 $384 -14.832895716651539 $304 $385 forward 7 unknown #
coedge $-1 $203 $202 $311 $386 reversed $73 $-1 #
edge $-1 $387 -44.50892753579285 $308 -41.015604420946751 $302 $388 forward 7 unknown #
vertex $-1 $205 $389 #
straight-curve $-1 -9.0450019825202581 20.507802257275081 5.2231125266466485 1 0 0 I I #
coedge $-1 $301 $206 $209 $315 reversed $199 $-1 #
coedge $-1 $206 $301 $306 $386 forward $199 $-1 #
vertex $-1 $207 $390 #
straight-curve $-1 -24.663069549238543 22.254463767896429 41.784230156813635 0 0 1 I I #
straight-curve $-1 -24.663069549238543 5.9630714588365663e-007 40.743668224016972 0 0.49999998660252726 -0.86602541151947299 I I #
edge $-1 $384 11.516938380842488 $211 24.663069549238543 $310 $391 forward 7 unknown #
point $-1 -24.663069549238543 22.254463767896429 5.2231125266466476 #
point $-1 -24.663069549238543 20.507802257275078 5.2231125266466449 #
edge $-1 $392 1 $392 0 $214 $-1 forward 7 unknown #
vertex $-1 $215 $393 #
ellipse-curve $-1 -20.90703207255396 20.00869932757713 2.9180843034183321 0 0.86602541151947299 0.49999998660252726 0.5 0 0 1 I I #
point $-1 -20.40703207255396 21.381133012585749 3.7104592325941108 #
edge $-1 $394 1 $394 0 $218 $-1 forward 7 unknown #
vertex $-1 $219 $395 #
ellipse-curve $-1 -15.272975857527079 20.00869932757713 2.9180843034183321 0 0.86602541151947299 0.49999998660252726 0.5 0 0 1 I I #
point $-1 -14.772975857527079 21.381133012585749 3.7104592325941108 #
loop $-1 $-1 $231 $222 #
plane-surface $-1 42.824793237098298 0 0 -1 0 0 0 0 1 forward_v I I I I #
coedge $-1 $396 $225 $230 $334 forward $139 $-1 #
coedge $-1 $225 $396 $331 $397 reversed $139 $-1 #
edge $-1 $332 22.352977449513286 $339 26.324940401774388 $225 $398 forward 7 unknown #
coedge $-1 $234 $228 $329 $397 forward $223 $-1 #
vertex $-1 $397 $399 #
straight-curve $-1 33.000890942750786 -44.408347352776332 5.2231125266466485 0 -1 0 I I #
edge $-1 $339 14.044469897788513 $337 23.868372192136032 $328 $400 forward 7 unknown #
coedge $-1 $336 $231 $234 $341 reversed $326 $-1 #
coedge $-1 $231 $335 $396 $401 forward $326 $-1 #
vertex $-1 $334 $402 #
straight-curve $-1 42.824793237098298 -18.153541003475379 6.3153675714988449 0 0.62932038083071107 0.77714596973225614 I I #
vertex $-1 $334 $403 #
straight-curve $-1 33.000890942750786 -22.254463767896425 1.2511495743855505 0 0.62932038083071107 0.77714596973225614 I I #
edge $-1 $404 -22.254463767896429 $235 -19.038031675192386 $335 $405 forward 7 unknown #
point $-1 42.824793237098305 -19.038031675192386 5.2231125266466476 #
point $-1 33.000890942750786 -19.038031675192386 5.2231125266466476 #
edge $-1 $406 1 $406 0 $238 $-1 forward 7 unknown #
vertex $-1 $239 $407 #
ellipse-curve $-1 35.807720169707217 -17.821133450154669 0.94939868310281117 0 -0.77714596973225614 0.62932038083071107 1 0 0 1 I I #
point $-1 36.807720169707217 -20.646247721544405 3.237131050516092 #
edge $-1 $408 1 $408 0 $242 $-1 forward 7 unknown #
vertex $-1 $243 $409 #
ellipse-curve $-1 40.017964010141874 -17.821133450154669 0.94939868310281117 0 -0.77714596973225614 0.62932038083071107 1 0 0 1 I I #
point $-1 41.017964010141874 -20.646247721544405 3.237131050516092 #
plane-surface $-1 42.824793237098298 0 0 -1 0 0 0 0 1 forward_v I I I I #
coedge $-1 $251 $249 $253 $357 reversed $161 $-1 #
edge $-1 $264 -5.2231125266466476 $359 5.2231125266466476 $263 $410 forward 7 unknown #
vertex $-1 $357 $411 #
straight-curve $-1 -42.824793237098298 -22.254463767896429 0 0 0 -1 I I #
edge $-1 $355 -22.254463767896429 $359 22.254463767896429 $353 $412 forward 7 unknown #
straight-curve $-1 0 -22.254463767896429 -5.2231125266466476 -1 0 0 I I #
vertex $-1 $256 $413 #
straight-curve $-1 0 22.254463767896429 -5.2231125266466476 1 0 0 I I #
point $-1 42.824793237098298 22.254463767896429 -5.2231125266466476 #
point $-1 42.824793237098298 -22.254463767896429 -5.2231125266466476 #
straight-curve $-1 -42.824793237098298 0 5.2231125266466476 0 -1 0 I I #
point $-1 -42.824793237098298 22.254463767896429 5.2231125266466476 #
point $-1 -42.824793237098298 -22.254463767896429 5.2231125266466476 #
straight-curve $-1 42.824793237098298 -22.254463767896429 0 0 0 -1 I I #
straight-curve $-1 42.824793237098298 22.254463767896429 0 0 0 -1 I I #
plane-surface $-1 -42.824793237098298 0 0 1 0 0 0 0 -1 forward_v I I I I #
edge $-1 $285 5.1541193573015667 $289 8.1541193573015676 $288 $414 forward 7 unknown #
edge $-1 $293 -8.1541193573015676 $284 -5.1541193573015667 $291 $415 forward 7 unknown #
straight-curve $-1 -36.87902395132496 -14.808238714603133 0 0 0 -1 I I #
edge $-1 $375 -5.2231125266466476 $373 5.2231125266466476 $295 $416 forward 7 unknown #
vertex $-1 $372 $417 #
straight-curve $-1 -19.925954297105815 -11.808238714603133 -5.2231125266466476 1 0 0 I I #
vertex $-1 $296 $418 #
straight-curve $-1 -19.925954297105815 -11.808238714603133 5.2231125266466476 -1 0 0 I I #
point $-1 -36.87902395132496 -11.808238714603133 5.2231125266466476 #
point $-1 -36.87902395132496 -11.808238714603133 -5.2231125266466476 #
point $-1 -36.87902395132496 -14.808238714603133 -5.2231125266466476 #
point $-1 -36.87902395132496 -14.808238714603133 5.2231125266466476 #
straight-curve $-1 -42.824793237098298 0 5.2231125266466476 0 -1 0 I I #
straight-curve $-1 -42.824793237098298 0 -5.2231125266466476 0 1 0 I I #
edge $-1 $384 36.56111763016699 $387 39.586424218272072 $301 $419 forward 7 unknown #
vertex $-1 $315 $420 #
straight-curve $-1 -11.516938380842488 37.087359484547967 5.2231125266466449 0 1 0 I I #
edge $-1 $387 2.4719363983222298 $312 15.618067566718285 $311 $421 forward 7 unknown #
vertex $-1 $386 $422 #
straight-curve $-1 -11.516938380842488 5.9630714588365663e-007 40.743668224016972 0 -0.49999998660252726 0.86602541151947299 I I #
point $-1 -11.516938380842488 20.507802257275078 5.2231125266466449 #
point $-1 -24.663069549238543 22.254463767896429 2.1978059385415634 #
straight-curve $-1 0 22.254463767896429 5.2231125266466476 -1 0 0 I I #
vertex $-1 $318 $423 #
point $-1 -20.40703207255396 20.00869932757713 2.9180843034183321 #
vertex $-1 $322 $424 #
point $-1 -14.772975857527079 20.00869932757713 2.9180843034183321 #
coedge $-1 $329 $328 $336 $401 reversed $139 $-1 #
edge $-1 $332 33.000890942750786 $404 42.824793237098298 $329 $425 forward 7 unknown #
straight-curve $-1 33.000890942750786 -22.254463767896425 27.576089976159935 0 0 -1 I I #
point $-1 33.000890942750786 -22.254463767896429 5.2231125266466476 #
straight-curve $-1 18.956421044962273 -22.254463767896429 1.2511495743855428 1 0 0 I I #
edge $-1 $404 -5.2231125266466476 $337 -1.2511495743855461 $336 $426 forward 7 unknown #
point $-1 42.824793237098305 -22.254463767896429 1.2511495743855461 #
point $-1 33.000890942750786 -22.254463767896429 1.2511495743855461 #
vertex $-1 $341 $427 #
straight-curve $-1 42.824793237098298 0 5.2231125266466476 0 1 0 I I #
vertex $-1 $344 $428 #
point $-1 36.807720169707217 -17.821133450154669 0.94939868310281117 #
vertex $-1 $348 $429 #
point $-1 41.017964010141874 -17.821133450154669 0.94939868310281117 #
straight-curve $-1 -42.824793237098298 22.254463767896429 0 0 0 -1 I I #
point $-1 -42.824793237098298 -22.254463767896429 -5.2231125266466476 #
straight-curve $-1 -42.824793237098298 0 -5.2231125266466476 0 1 0 I I #
point $-1 -42.824793237098298 22.254463767896429 -5.2231125266466476 #
straight-curve $-1 -36.87902395132496 -6.6541193573015667 -5.2231125266466476 0 -1 0 I I #
straight-curve $-1 -36.87902395132496 -6.6541193573015667 5.2231125266466476 0 1 0 I I #
straight-curve $-1 -42.824793237098298 -11.808238714603133 0 0 0 -1 I I #
point $-1 -42.824793237098298 -11.808238714603133 -5.2231125266466476 #
point $-1 -42.824793237098298 -11.808238714603133 5.2231125266466476 #
straight-curve $-1 -11.516938380842488 22.254463767896429 41.784230156813635 0 0 -1 I I #
point $-1 -11.516938380842488 22.254463767896429 5.2231125266466476 #
straight-curve $-1 -9.0450019825202581 22.254463767896429 2.1978059385415598 -1 0 0 I I #
point $-1 -11.516938380842488 22.254463767896429 2.1978059385415634 #
point $-1 -20.90703207255396 19.575686621817393 2.6680843101170688 #
point $-1 -15.272975857527079 19.575686621817393 2.6680843101170688 #
straight-curve $-1 0 -22.254463767896429 5.2231125266466476 1 0 0 I I #
straight-curve $-1 42.824793237098298 -22.254463767896429 0 0 0 -1 I I #
point $-1 42.824793237098298 -22.254463767896429 5.2231125266466476 #
point $-1 35.807720169707217 -17.043987480422416 0.32007830227210038 #
point $-1 40.017964010141874 -17.043987480422416 0.32007830227210038 #
End-of-ACIS-data 