500 0 5 0           
7 Unknown 11 ACIS 5.0 NT 24 Fri Mar 26 02:45:22 1999 
-1 9.9999999999999995e-007 1e-010 
body $-1 $5 $-1 $6 #
body $-1 $7 $-1 $8 #
body $-1 $9 $-1 $10 #
body $-1 $11 $-1 $12 #
body $-1 $13 $-1 $14 #
lump $-1 $-1 $15 $0 #
transform $-1 1 0 0 0 1 0 0 0 1 77.967467268898588 50.950943933902963 23.528833986335218 1 rotate no_reflect no_shear #
lump $-1 $-1 $16 $1 #
transform $-1 1 0 0 0 1 0 0 0 1 77.967467268898588 50.950943933902963 23.528833986335218 1 rotate no_reflect no_shear #
lump $-1 $-1 $17 $2 #
transform $-1 1 0 0 0 1 0 0 0 1 77.967467268898588 50.950943933902963 23.528833986335218 1 rotate no_reflect no_shear #
lump $-1 $-1 $18 $3 #
transform $-1 1 0 0 0 1 0 0 0 1 77.967467268898588 50.950943933902963 23.528833986335218 1 rotate no_reflect no_shear #
lump $-1 $-1 $19 $4 #
transform $-1 1 0 0 0 1 0 0 0 1 77.967467268898588 50.950943933902963 23.528833986335218 1 rotate no_reflect no_shear #
shell $-1 $-1 $-1 $20 $-1 $5 #
shell $-1 $-1 $-1 $21 $-1 $7 #
shell $-1 $-1 $-1 $22 $-1 $9 #
shell $-1 $-1 $-1 $23 $-1 $11 #
shell $-1 $-1 $-1 $24 $-1 $13 #
face $-1 $25 $26 $15 $-1 $27 forward single #
face $-1 $28 $29 $16 $-1 $30 forward single #
face $-1 $31 $32 $17 $-1 $33 reversed single #
face $-1 $34 $35 $18 $-1 $36 reversed single #
face $-1 $37 $38 $19 $-1 $39 forward single #
face $-1 $40 $41 $15 $-1 $42 reversed single #
loop $-1 $-1 $43 $20 #
plane-surface $-1 0 0 23.528833986335218 0 0 1 1 0 0 forward_v I I I I #
face $-1 $44 $45 $16 $-1 $46 reversed single #
loop $-1 $-1 $47 $21 #
plane-surface $-1 0 -50.950943933902963 0 0 1 0 0 0 1 forward_v I I I I #
face $-1 $48 $49 $17 $-1 $50 reversed single #
loop $-1 $-1 $51 $22 #
plane-surface $-1 0 39.745511776240662 16.831155037266246 0 0 1 1 0 0 forward_v I I I I #
face $-1 $52 $53 $18 $-1 $54 reversed single #
loop $-1 $-1 $55 $23 #
plane-surface $-1 32.117681264694156 7.4976247679373955 218.6252001356153 0 -1 0 -0.54463904215088732 0 -0.83867056331134215 forward_v I I I I #
face $-1 $56 $57 $19 $-1 $58 forward single #
loop $-1 $59 $60 $24 #
cone-surface $-1 61.03959040669141 1.6956863718117887 11.592190984075234 -0.54463904215088732 0 -0.83867056331134215 1.2580058449670133 0 -0.81695856322633098 1 I I 0 1 1.5 forward I I I I #
face $-1 $61 $62 $15 $-1 $63 reversed single #
loop $-1 $-1 $64 $25 #
plane-surface $-1 0 0 -23.528833986335218 0 0 1 1 0 0 forward_v I I I I #
coedge $-1 $65 $66 $67 $68 forward $26 $-1 #
face $-1 $69 $70 $16 $-1 $71 reversed single #
loop $-1 $-1 $72 $28 #
plane-surface $-1 0 0 -23.528833986335218 0 0 1 1 0 0 forward_v I I I I #
coedge $-1 $73 $74 $75 $76 forward $29 $-1 #
face $-1 $77 $78 $17 $-1 $79 reversed single #
loop $-1 $-1 $80 $31 #
plane-surface $-1 0 28.540079618578361 20.179994511800732 0 1 0 0 0 1 forward_v I I I I #
coedge $-1 $81 $82 $83 $84 reversed $32 $-1 #
face $-1 $85 $86 $18 $-1 $87 reversed single #
loop $-1 $-1 $88 $34 #
plane-surface $-1 -52.810572119833012 1.6956863718117887 87.847160746883674 0.54463904215088732 0 0.83867056331134215 0.83867056331134215 0 -0.54463904215088732 forward_v I I I I #
coedge $-1 $89 $90 $91 $92 reversed $35 $-1 #
face $-1 $-1 $93 $19 $-1 $94 forward single #
loop $-1 $95 $96 $37 #
cone-surface $-1 59.571485924812151 1.6956863718117887 9.3315083713210889 -0.54463904215088732 0 -0.83867056331134215 0.62900292248350664 0 -0.40847928161316549 1 I I -0.70710678118654757 0.70710678118654757 0.75 forward I I I I #
loop $-1 $-1 $97 $24 #
coedge $-1 $60 $60 $98 $99 reversed $38 $-1 #
face $-1 $100 $101 $15 $-1 $102 reversed single #
loop $-1 $-1 $103 $40 #
plane-surface $-1 0 -50.950943933902963 0 0 1 0 0 0 1 forward_v I I I I #
coedge $-1 $104 $105 $106 $107 forward $41 $-1 #
coedge $-1 $108 $43 $109 $110 forward $26 $-1 #
coedge $-1 $43 $108 $111 $112 forward $26 $-1 #
coedge $-1 $113 $114 $43 $68 reversed $115 $-1 #
edge $-1 $116 -50.950943933902963 $117 50.950943933902963 $67 $118 forward 7 unknown #
face $-1 $119 $120 $16 $-1 $121 forward single #
loop $-1 $-1 $122 $44 #
plane-surface $-1 77.967467268898588 0 0 -1 0 0 0 0 1 forward_v I I I I #
coedge $-1 $123 $124 $125 $126 forward $45 $-1 #
coedge $-1 $125 $47 $122 $127 reversed $29 $-1 #
coedge $-1 $47 $125 $128 $129 reversed $29 $-1 #
coedge $-1 $130 $131 $47 $76 reversed $120 $-1 #
edge $-1 $132 -77.967467268898588 $133 77.967467268898588 $75 $134 forward 7 unknown #
face $-1 $135 $136 $17 $-1 $137 reversed single #
loop $-1 $-1 $138 $48 #
plane-surface $-1 0 50.950943933902963 0 0 -1 0 0 0 -1 forward_v I I I I #
coedge $-1 $139 $140 $141 $142 reversed $49 $-1 #
coedge $-1 $143 $51 $139 $144 forward $32 $-1 #
coedge $-1 $51 $143 $138 $145 reversed $32 $-1 #
coedge $-1 $146 $147 $51 $84 forward $148 $-1 #
edge $-1 $149 8.6673237304580297 $150 31.078188045782632 $83 $151 forward 7 unknown #
face $-1 $152 $153 $18 $-1 $154 forward single #
loop $-1 $-1 $155 $52 #
plane-surface $-1 32.117681264694156 -4.1062520243138181 218.6252001356153 0 1 0 0.54463904215088732 0 0.83867056331134215 forward_v I I I I #
coedge $-1 $156 $157 $158 $159 reversed $53 $-1 #
coedge $-1 $90 $55 $160 $161 reversed $35 $-1 #
coedge $-1 $55 $89 $156 $162 reversed $35 $-1 #
coedge $-1 $158 $163 $55 $92 forward $153 $-1 #
edge $-1 $164 -61.90862663655151 $165 -30.172123312669335 $91 $166 forward 7 unknown #
loop $-1 $-1 $98 $56 #
plane-surface $-1 -52.810572119833012 1.6956863718117887 87.847160746883674 0.54463904215088732 0 0.83867056331134215 0.83867056331134215 0 -0.54463904215088732 forward_v I I I I #
loop $-1 $-1 $167 $37 #
coedge $-1 $96 $96 $97 $168 reversed $57 $-1 #
coedge $-1 $97 $97 $96 $168 forward $59 $-1 #
coedge $-1 $98 $98 $60 $99 forward $93 $-1 #
edge $-1 $169 0 $169 6.2831853071796004 $98 $170 forward 7 unknown #
face $-1 $171 $172 $15 $-1 $173 reversed single #
loop $-1 $-1 $174 $61 #
plane-surface $-1 -77.967467268898588 0 0 1 0 0 0 0 -1 forward_v I I I I #
coedge $-1 $111 $175 $113 $176 reversed $62 $-1 #
coedge $-1 $177 $64 $175 $178 forward $41 $-1 #
coedge $-1 $64 $177 $179 $180 forward $41 $-1 #
coedge $-1 $114 $113 $64 $107 reversed $115 $-1 #
edge $-1 $181 -50.950943933902963 $182 50.950943933902963 $106 $183 forward 7 unknown #
coedge $-1 $66 $65 $184 $185 forward $26 $-1 #
coedge $-1 $186 $187 $65 $110 reversed $172 $-1 #
edge $-1 $117 -77.967467268898588 $188 77.967467268898588 $109 $189 forward 7 unknown #
coedge $-1 $190 $103 $66 $112 reversed $62 $-1 #
edge $-1 $191 -77.967467268898588 $116 77.967467268898588 $111 $192 forward 7 unknown #
coedge $-1 $106 $67 $103 $176 forward $115 $-1 #
coedge $-1 $67 $106 $186 $193 reversed $115 $-1 #
loop $-1 $-1 $113 $171 #
vertex $-1 $68 $194 #
vertex $-1 $68 $195 #
straight-curve $-1 77.967467268898588 0 23.528833986335218 0 1 0 I I #
face $-1 $196 $197 $16 $-1 $198 reversed single #
loop $-1 $-1 $131 $69 #
plane-surface $-1 0 -59.652167686850007 -14.585909573584093 0 0 1 1 0 0 forward_v I I I I #
coedge $-1 $199 $200 $73 $127 forward $70 $-1 #
coedge $-1 $201 $72 $200 $202 forward $45 $-1 #
coedge $-1 $72 $201 $203 $204 forward $45 $-1 #
coedge $-1 $74 $73 $72 $126 reversed $29 $-1 #
edge $-1 $205 -77.967467268898588 $206 77.967467268898588 $72 $207 forward 7 unknown #
edge $-1 $206 -23.528833986335218 $133 -14.585909573584093 $122 $208 forward 7 unknown #
coedge $-1 $203 $209 $74 $129 forward $210 $-1 #
edge $-1 $132 14.585909573584093 $205 23.528833986335218 $128 $211 forward 7 unknown #
coedge $-1 $212 $75 $209 $213 forward $120 $-1 #
coedge $-1 $75 $212 $199 $214 forward $120 $-1 #
vertex $-1 $129 $215 #
vertex $-1 $214 $216 #
straight-curve $-1 0 -50.950943933902963 -14.585909573584093 1 0 0 I I #
face $-1 $217 $218 $17 $-1 $219 forward single #
loop $-1 $-1 $220 $77 #
plane-surface $-1 -77.967467268898588 0 0 1 0 0 0 0 -1 forward_v I I I I #
coedge $-1 $221 $222 $82 $145 forward $78 $-1 #
coedge $-1 $223 $80 $81 $144 reversed $49 $-1 #
coedge $-1 $80 $223 $224 $225 reversed $49 $-1 #
coedge $-1 $226 $220 $80 $142 forward $136 $-1 #
edge $-1 $227 6.7411577813658798 $228 13.438836730434852 $141 $229 forward 7 unknown #
coedge $-1 $82 $81 $220 $230 reversed $32 $-1 #
edge $-1 $149 -77.967467268898588 $227 77.967467268898588 $139 $231 forward 7 unknown #
edge $-1 $150 -77.967467268898588 $232 77.967467268898588 $138 $233 forward 7 unknown #
coedge $-1 $234 $83 $222 $235 reversed $148 $-1 #
coedge $-1 $83 $234 $223 $236 forward $148 $-1 #
loop $-1 $-1 $83 $217 #
vertex $-1 $84 $237 #
vertex $-1 $145 $238 #
straight-curve $-1 77.967467268898588 19.872755888120331 16.831155037266246 0 1 0 I I #
face $-1 $-1 $239 $18 $-1 $240 reversed single #
loop $-1 $-1 $91 $85 #
plane-surface $-1 0 0 23.528833986335218 0 0 1 1 0 0 forward_v I I I I #
coedge $-1 $241 $242 $243 $244 reversed $86 $-1 #
coedge $-1 $245 $88 $90 $162 forward $53 $-1 #
coedge $-1 $88 $245 $241 $246 forward $53 $-1 #
coedge $-1 $243 $91 $88 $159 forward $153 $-1 #
edge $-1 $165 -6.6497815820315012 $247 4.9540952102197124 $158 $248 forward 7 unknown #
coedge $-1 $249 $250 $89 $161 forward $239 $-1 #
edge $-1 $251 -106.39369270545113 $164 -85.783766081472436 $160 $252 forward 7 unknown #
edge $-1 $165 118.09349272234077 $251 155.93493453779715 $90 $253 forward 7 unknown #
coedge $-1 $91 $243 $249 $254 forward $153 $-1 #
vertex $-1 $161 $255 #
vertex $-1 $92 $256 #
straight-curve $-1 16.058840632347078 7.4976247679373955 23.528833986335215 -1 0 0 I I #
coedge $-1 $167 $167 $-1 $257 reversed $95 $-1 #
edge $-1 $258 0 $258 6.2831853071796004 $96 $259 forward 7 unknown #
vertex $-1 $99 $260 #
ellipse-curve $-1 62.099215606957493 1.6956863718117887 13.223870674345864 0.54463904215088732 0 0.83867056331134215 1.2580058449670133 0 -0.81695856322633098 1 I I #
face $-1 $-1 $115 $15 $-1 $261 reversed single #
loop $-1 $-1 $186 $100 #
plane-surface $-1 0 50.950943933902963 0 0 -1 0 0 0 -1 forward_v I I I I #
coedge $-1 $262 $184 $187 $263 forward $101 $-1 #
coedge $-1 $103 $190 $104 $178 reversed $62 $-1 #
edge $-1 $116 -23.528833986335218 $182 23.528833986335218 $113 $264 forward 7 unknown #
coedge $-1 $105 $104 $262 $265 forward $41 $-1 #
edge $-1 $182 -77.967467268898588 $266 77.967467268898588 $175 $267 forward 7 unknown #
coedge $-1 $187 $186 $105 $180 reversed $172 $-1 #
edge $-1 $268 -77.967467268898588 $181 77.967467268898588 $179 $269 forward 7 unknown #
vertex $-1 $107 $270 #
vertex $-1 $176 $271 #
straight-curve $-1 77.967467268898588 0 -23.528833986335218 0 -1 0 I I #
coedge $-1 $174 $272 $108 $185 reversed $101 $-1 #
edge $-1 $188 -50.950943933902963 $191 50.950943933902963 $184 $273 forward 7 unknown #
coedge $-1 $179 $109 $114 $193 forward $172 $-1 #
coedge $-1 $109 $179 $174 $263 reversed $172 $-1 #
vertex $-1 $110 $274 #
straight-curve $-1 0 50.950943933902963 23.528833986335218 -1 0 0 I I #
coedge $-1 $175 $111 $272 $275 forward $62 $-1 #
vertex $-1 $185 $276 #
straight-curve $-1 0 -50.950943933902963 23.528833986335218 1 0 0 I I #
edge $-1 $117 -23.528833986335218 $181 23.528833986335218 $114 $277 forward 7 unknown #
point $-1 77.967467268898588 -50.950943933902963 23.528833986335218 #
point $-1 77.967467268898588 50.950943933902963 23.528833986335218 #
face $-1 $-1 $210 $16 $-1 $278 reversed single #
loop $-1 $-1 $279 $119 #
plane-surface $-1 0 -68.353391439797051 -19.057371779959656 0 1 0 0 0 1 forward_v I I I I #
coedge $-1 $280 $122 $131 $214 reversed $70 $-1 #
coedge $-1 $122 $280 $123 $202 reversed $70 $-1 #
coedge $-1 $124 $123 $281 $282 forward $45 $-1 #
edge $-1 $206 50.950943933902963 $283 68.353391439797051 $200 $284 forward 7 unknown #
coedge $-1 $285 $128 $124 $204 reversed $210 $-1 #
edge $-1 $286 -68.353391439797051 $205 -50.950943933902963 $203 $287 forward 7 unknown #
vertex $-1 $129 $288 #
vertex $-1 $202 $289 #
straight-curve $-1 0 -50.950943933902963 -23.528833986335218 1 0 0 I I #
straight-curve $-1 77.967467268898588 -50.950943933902963 0 0 0 1 I I #
coedge $-1 $128 $285 $130 $213 reversed $210 $-1 #
loop $-1 $-1 $128 $196 #
straight-curve $-1 -77.967467268898588 -50.950943933902963 0 0 0 -1 I I #
coedge $-1 $131 $130 $290 $291 forward $120 $-1 #
edge $-1 $132 -8.701223752947044 $292 8.701223752947044 $209 $293 forward 7 unknown #
edge $-1 $294 -8.701223752947044 $133 8.701223752947044 $199 $295 forward 7 unknown #
point $-1 -77.967467268898588 -50.950943933902963 -14.585909573584093 #
point $-1 77.967467268898588 -50.950943933902963 -14.585909573584093 #
face $-1 $-1 $148 $17 $-1 $296 reversed single #
loop $-1 $-1 $224 $135 #
plane-surface $-1 0 0 23.528833986335218 0 0 1 1 0 0 forward_v I I I I #
coedge $-1 $141 $297 $143 $230 forward $136 $-1 #
coedge $-1 $298 $138 $297 $299 reversed $78 $-1 #
coedge $-1 $138 $298 $146 $235 forward $78 $-1 #
coedge $-1 $140 $139 $147 $236 reversed $49 $-1 #
coedge $-1 $300 $301 $140 $225 forward $218 $-1 #
edge $-1 $228 -77.967467268898588 $302 77.967467268898588 $224 $303 forward 7 unknown #
coedge $-1 $297 $141 $301 $304 reversed $136 $-1 #
vertex $-1 $230 $305 #
vertex $-1 $142 $306 #
straight-curve $-1 -77.967467268898588 28.540079618578361 10.089997255900366 0 0 1 I I #
edge $-1 $232 -31.078188045782632 $227 -8.6673237304580297 $220 $307 forward 7 unknown #
straight-curve $-1 0 28.540079618578361 16.831155037266246 -1 0 0 I I #
vertex $-1 $145 $308 #
straight-curve $-1 0 50.950943933902963 16.831155037266246 -1 0 0 I I #
coedge $-1 $147 $146 $300 $309 reversed $148 $-1 #
edge $-1 $310 -23.528833986335218 $150 -16.831155037266246 $146 $311 forward 7 unknown #
edge $-1 $302 -13.438836730434852 $149 -6.7411577813658798 $147 $312 forward 7 unknown #
point $-1 77.967467268898588 28.540079618578361 16.831155037266246 #
point $-1 77.967467268898588 50.950943933902963 16.831155037266246 #
loop $-1 $-1 $160 $152 #
plane-surface $-1 77.967467268898588 0 0 -1 0 0 0 0 1 forward_v I I I I #
coedge $-1 $242 $155 $157 $246 reversed $86 $-1 #
coedge $-1 $155 $241 $313 $314 reversed $86 $-1 #
coedge $-1 $163 $158 $155 $244 forward $153 $-1 #
edge $-1 $247 30.172123312669335 $315 61.90862663655151 $243 $316 forward 7 unknown #
coedge $-1 $157 $156 $250 $317 reversed $53 $-1 #
edge $-1 $318 -155.93493453779715 $247 -118.09349272234077 $241 $319 forward 7 unknown #
vertex $-1 $159 $320 #
straight-curve $-1 46.230963945016413 0.84784318590589436 23.528833986335215 0 -1 0 I I #
coedge $-1 $313 $160 $163 $254 reversed $239 $-1 #
coedge $-1 $160 $313 $245 $317 forward $239 $-1 #
vertex $-1 $161 $321 #
straight-curve $-1 77.967467268898588 7.4976247679373955 109.31260006780765 0 0 1 I I #
straight-curve $-1 -52.810572119833012 7.4976247679373955 87.847160746883674 0.83867056331134215 0 -0.54463904215088732 I I #
edge $-1 $315 -4.1062520243138181 $164 7.4976247679373955 $249 $322 forward 7 unknown #
point $-1 77.967467268898588 7.4976247679373955 23.528833986335218 #
point $-1 46.230963945016413 7.4976247679373955 23.528833986335215 #
edge $-1 $323 1 $323 0 $167 $-1 forward 7 unknown #
vertex $-1 $168 $324 #
ellipse-curve $-1 59.979965206425319 1.6956863718117887 9.9605112938045952 0.54463904215088732 0 0.83867056331134215 1.2580058449670133 0 -0.81695856322633098 1 I I #
point $-1 63.357221451924516 1.6956863718117887 12.406912111119542 #
plane-surface $-1 77.967467268898588 0 0 -1 0 0 0 0 1 forward_v I I I I #
coedge $-1 $272 $174 $177 $265 reversed $101 $-1 #
edge $-1 $188 -23.528833986335218 $268 23.528833986335218 $187 $325 forward 7 unknown #
straight-curve $-1 77.967467268898588 -50.950943933902963 0 0 0 -1 I I #
edge $-1 $266 -50.950943933902963 $268 50.950943933902963 $262 $326 forward 7 unknown #
vertex $-1 $265 $327 #
straight-curve $-1 0 -50.950943933902963 -23.528833986335218 -1 0 0 I I #
vertex $-1 $180 $328 #
straight-curve $-1 0 50.950943933902963 -23.528833986335218 1 0 0 I I #
point $-1 77.967467268898588 50.950943933902963 -23.528833986335218 #
point $-1 77.967467268898588 -50.950943933902963 -23.528833986335218 #
coedge $-1 $184 $262 $190 $275 reversed $101 $-1 #
straight-curve $-1 -77.967467268898588 0 23.528833986335218 0 -1 0 I I #
point $-1 -77.967467268898588 50.950943933902963 23.528833986335218 #
edge $-1 $191 -23.528833986335218 $266 23.528833986335218 $272 $329 forward 7 unknown #
point $-1 -77.967467268898588 -50.950943933902963 23.528833986335218 #
straight-curve $-1 77.967467268898588 50.950943933902963 0 0 0 -1 I I #
plane-surface $-1 -77.967467268898588 0 0 1 0 0 0 0 -1 forward_v I I I I #
coedge $-1 $281 $290 $285 $330 forward $197 $-1 #
coedge $-1 $200 $199 $331 $332 forward $70 $-1 #
coedge $-1 $331 $279 $201 $282 reversed $197 $-1 #
edge $-1 $283 -77.967467268898588 $286 77.967467268898588 $281 $333 forward 7 unknown #
vertex $-1 $332 $334 #
straight-curve $-1 77.967467268898588 0 -23.528833986335218 0 -1 0 I I #
coedge $-1 $209 $203 $279 $330 reversed $210 $-1 #
vertex $-1 $204 $335 #
straight-curve $-1 -77.967467268898588 0 -23.528833986335218 0 1 0 I I #
point $-1 -77.967467268898588 -50.950943933902963 -23.528833986335218 #
point $-1 77.967467268898588 -50.950943933902963 -23.528833986335218 #
coedge $-1 $279 $331 $212 $291 reversed $197 $-1 #
edge $-1 $292 -77.967467268898588 $294 77.967467268898588 $290 $336 forward 7 unknown #
vertex $-1 $213 $337 #
straight-curve $-1 -77.967467268898588 -59.652167686850007 -14.585909573584093 0 -1 0 I I #
vertex $-1 $214 $338 #
straight-curve $-1 77.967467268898588 -59.652167686850007 -14.585909573584093 0 1 0 I I #
plane-surface $-1 77.967467268898588 0 0 -1 0 0 0 0 1 forward_v I I I I #
coedge $-1 $220 $226 $221 $299 forward $136 $-1 #
coedge $-1 $222 $221 $339 $340 reversed $78 $-1 #
edge $-1 $341 -23.528833986335218 $232 -16.831155037266246 $221 $342 forward 7 unknown #
coedge $-1 $339 $224 $234 $309 forward $218 $-1 #
coedge $-1 $224 $339 $226 $304 forward $218 $-1 #
vertex $-1 $309 $343 #
straight-curve $-1 0 28.540079618578361 23.528833986335218 1 0 0 I I #
edge $-1 $341 -50.950943933902963 $228 -28.540079618578361 $226 $344 forward 7 unknown #
point $-1 -77.967467268898588 28.540079618578361 16.831155037266246 #
point $-1 -77.967467268898588 28.540079618578361 23.528833986335218 #
straight-curve $-1 -77.967467268898588 19.872755888120331 16.831155037266246 0 -1 0 I I #
point $-1 -77.967467268898588 50.950943933902963 16.831155037266246 #
edge $-1 $302 28.540079618578361 $310 50.950943933902963 $234 $345 forward 7 unknown #
vertex $-1 $309 $346 #
straight-curve $-1 77.967467268898588 50.950943933902963 0 0 0 -1 I I #
straight-curve $-1 77.967467268898588 28.540079618578361 10.089997255900366 0 0 -1 I I #
coedge $-1 $250 $249 $242 $314 forward $239 $-1 #
edge $-1 $315 85.783766081472436 $318 106.39369270545113 $313 $347 forward 7 unknown #
vertex $-1 $254 $348 #
straight-curve $-1 16.058840632347078 -4.1062520243138181 23.528833986335215 1 0 0 I I #
edge $-1 $318 -4.9540952102197124 $251 6.6497815820315012 $250 $349 forward 7 unknown #
vertex $-1 $317 $350 #
straight-curve $-1 -52.810572119833012 -4.1062520243138181 87.847160746883674 -0.83867056331134215 0 0.54463904215088732 I I #
point $-1 46.230963945016413 -4.1062520243138181 23.528833986335215 #
point $-1 77.967467268898588 7.4976247679373955 2.9189073623565207 #
straight-curve $-1 77.967467268898588 0 23.528833986335218 0 1 0 I I #
vertex $-1 $257 $351 #
point $-1 61.237971051392329 1.6956863718117887 9.1435527305782642 #
straight-curve $-1 -77.967467268898588 50.950943933902963 0 0 0 -1 I I #
straight-curve $-1 -77.967467268898588 0 -23.528833986335218 0 1 0 I I #
point $-1 -77.967467268898588 -50.950943933902963 -23.528833986335218 #
point $-1 -77.967467268898588 50.950943933902963 -23.528833986335218 #
straight-curve $-1 -77.967467268898588 -50.950943933902963 0 0 0 -1 I I #
edge $-1 $292 -4.4714622063755627 $286 4.4714622063755627 $285 $352 forward 7 unknown #
coedge $-1 $290 $281 $280 $332 reversed $197 $-1 #
edge $-1 $294 -4.4714622063755627 $283 4.4714622063755627 $280 $353 forward 7 unknown #
straight-curve $-1 0 -68.353391439797051 -23.528833986335218 -1 0 0 I I #
point $-1 77.967467268898588 -68.353391439797051 -23.528833986335218 #
point $-1 -77.967467268898588 -68.353391439797051 -23.528833986335218 #
straight-curve $-1 0 -68.353391439797051 -14.585909573584093 1 0 0 I I #
point $-1 -77.967467268898588 -68.353391439797051 -14.585909573584093 #
point $-1 77.967467268898588 -68.353391439797051 -14.585909573584093 #
coedge $-1 $301 $300 $298 $340 forward $218 $-1 #
edge $-1 $310 -77.967467268898588 $341 77.967467268898588 $298 $354 forward 7 unknown #
vertex $-1 $340 $355 #
straight-curve $-1 -77.967467268898588 50.950943933902963 0 0 0 -1 I I #
point $-1 77.967467268898588 28.540079618578361 23.528833986335218 #
straight-curve $-1 -77.967467268898588 0 23.528833986335218 0 -1 0 I I #
straight-curve $-1 77.967467268898588 0 23.528833986335218 0 1 0 I I #
point $-1 77.967467268898588 50.950943933902963 23.528833986335218 #
straight-curve $-1 77.967467268898588 -4.1062520243138181 109.31260006780765 0 0 -1 I I #
point $-1 77.967467268898588 -4.1062520243138181 23.528833986335218 #
straight-curve $-1 77.967467268898574 0.84784318590589436 2.9189073623565207 0 1 0 I I #
point $-1 77.967467268898588 -4.1062520243138181 2.9189073623565207 #
point $-1 59.163006643198983 1.6956863718117887 8.7025054488375826 #
straight-curve $-1 -77.967467268898588 -68.353391439797051 -19.057371779959656 0 0 -1 I I #
straight-curve $-1 77.967467268898588 -68.353391439797051 -19.057371779959656 0 0 -1 I I #
straight-curve $-1 0 50.950943933902963 23.528833986335218 -1 0 0 I I #
point $-1 -77.967467268898588 50.950943933902963 23.528833986335218 #
End-of-ACIS-data 