500 0 18 0           
7 Unknown 11 ACIS 5.0 NT 24 Fri Mar 26 14:39:57 1999 
-1 9.9999999999999995e-007 1e-010 
body $-1 $18 $-1 $19 #
body $-1 $20 $-1 $21 #
body $-1 $22 $-1 $23 #
body $-1 $24 $-1 $25 #
body $-1 $26 $-1 $27 #
body $-1 $28 $-1 $29 #
body $-1 $30 $-1 $31 #
body $-1 $32 $-1 $33 #
body $-1 $34 $-1 $35 #
body $-1 $36 $-1 $37 #
body $-1 $38 $-1 $39 #
body $-1 $40 $-1 $41 #
body $-1 $42 $-1 $43 #
body $-1 $44 $-1 $45 #
body $-1 $46 $-1 $47 #
body $-1 $48 $-1 $49 #
body $-1 $50 $-1 $51 #
body $-1 $52 $-1 $53 #
lump $-1 $-1 $54 $0 #
transform $-1 1 0 0 0 1 0 0 0 1 55.936765648365736 35.016685018737519 17.061430137932984 1 rotate no_reflect no_shear #
lump $-1 $-1 $55 $1 #
transform $-1 1 0 0 0 1 0 0 0 1 55.936765648365736 35.016685018737519 17.061430137932984 1 rotate no_reflect no_shear #
lump $-1 $-1 $56 $2 #
transform $-1 1 0 0 0 1 0 0 0 1 55.936765648365736 35.016685018737519 17.061430137932984 1 rotate no_reflect no_shear #
lump $-1 $-1 $57 $3 #
transform $-1 1 0 0 0 1 0 0 0 1 55.936765648365736 35.016685018737519 17.061430137932984 1 rotate no_reflect no_shear #
lump $-1 $-1 $58 $4 #
transform $-1 1 0 0 0 1 0 0 0 1 55.936765648365736 35.016685018737519 17.061430137932984 1 rotate no_reflect no_shear #
lump $-1 $-1 $59 $5 #
transform $-1 1 0 0 0 1 0 0 0 1 55.936765648365736 35.016685018737519 17.061430137932984 1 rotate no_reflect no_shear #
lump $-1 $-1 $60 $6 #
transform $-1 1 0 0 0 1 0 0 0 1 55.936765648365736 35.016685018737519 17.061430137932984 1 rotate no_reflect no_shear #
lump $-1 $-1 $61 $7 #
transform $-1 1 0 0 0 1 0 0 0 1 55.936765648365736 35.016685018737519 17.061430137932984 1 rotate no_reflect no_shear #
lump $-1 $-1 $62 $8 #
transform $-1 1 0 0 0 1 0 0 0 1 55.936765648365736 35.016685018737519 17.061430137932984 1 rotate no_reflect no_shear #
lump $-1 $-1 $63 $9 #
transform $-1 1 0 0 0 1 0 0 0 1 55.936765648365736 35.016685018737519 17.061430137932984 1 rotate no_reflect no_shear #
lump $-1 $-1 $64 $10 #
transform $-1 1 0 0 0 1 0 0 0 1 55.936765648365736 35.016685018737519 17.061430137932984 1 rotate no_reflect no_shear #
lump $-1 $-1 $65 $11 #
transform $-1 1 0 0 0 1 0 0 0 1 55.936765648365736 35.016685018737519 17.061430137932984 1 rotate no_reflect no_shear #
lump $-1 $-1 $66 $12 #
transform $-1 1 0 0 0 1 0 0 0 1 55.936765648365736 35.016685018737519 17.061430137932984 1 rotate no_reflect no_shear #
lump $-1 $-1 $67 $13 #
transform $-1 1 0 0 0 1 0 0 0 1 55.936765648365736 35.016685018737519 17.061430137932984 1 rotate no_reflect no_shear #
lump $-1 $-1 $68 $14 #
transform $-1 1 0 0 0 1 0 0 0 1 55.936765648365736 35.016685018737519 17.061430137932984 1 rotate no_reflect no_shear #
lump $-1 $-1 $69 $15 #
transform $-1 1 0 0 0 1 0 0 0 1 55.936765648365736 35.016685018737519 17.061430137932984 1 rotate no_reflect no_shear #
lump $-1 $-1 $70 $16 #
transform $-1 1 0 0 0 1 0 0 0 1 55.936765648365736 35.016685018737519 17.061430137932984 1 rotate no_reflect no_shear #
lump $-1 $-1 $71 $17 #
transform $-1 1 0 0 0 1 0 0 0 1 55.936765648365736 35.016685018737519 17.061430137932984 1 rotate no_reflect no_shear #
shell $-1 $-1 $-1 $72 $-1 $18 #
shell $-1 $-1 $-1 $73 $-1 $20 #
shell $-1 $-1 $-1 $74 $-1 $22 #
shell $-1 $-1 $-1 $75 $-1 $24 #
shell $-1 $-1 $-1 $76 $-1 $26 #
shell $-1 $-1 $-1 $77 $-1 $28 #
shell $-1 $-1 $-1 $78 $-1 $30 #
shell $-1 $-1 $-1 $79 $-1 $32 #
shell $-1 $-1 $-1 $80 $-1 $34 #
shell $-1 $-1 $-1 $81 $-1 $36 #
shell $-1 $-1 $-1 $82 $-1 $38 #
shell $-1 $-1 $-1 $83 $-1 $40 #
shell $-1 $-1 $-1 $84 $-1 $42 #
shell $-1 $-1 $-1 $85 $-1 $44 #
shell $-1 $-1 $-1 $86 $-1 $46 #
shell $-1 $-1 $-1 $87 $-1 $48 #
shell $-1 $-1 $-1 $88 $-1 $50 #
shell $-1 $-1 $-1 $89 $-1 $52 #
face $-1 $90 $91 $54 $-1 $92 forward single #
face $-1 $93 $94 $55 $-1 $95 reversed single #
face $-1 $96 $97 $56 $-1 $98 reversed single #
face $-1 $99 $100 $57 $-1 $101 reversed single #
face $-1 $102 $103 $58 $-1 $104 forward single #
face $-1 $105 $106 $59 $-1 $107 forward single #
face $-1 $108 $109 $60 $-1 $110 forward single #
face $-1 $111 $112 $61 $-1 $113 reversed single #
face $-1 $114 $115 $62 $-1 $116 forward single #
face $-1 $117 $118 $63 $-1 $119 forward single #
face $-1 $120 $121 $64 $-1 $122 forward single #
face $-1 $123 $124 $65 $-1 $125 reversed single #
face $-1 $126 $127 $66 $-1 $128 forward single #
face $-1 $129 $130 $67 $-1 $131 forward single #
face $-1 $132 $133 $68 $-1 $134 forward single #
face $-1 $135 $136 $69 $-1 $137 reversed single #
face $-1 $138 $139 $70 $-1 $140 forward single #
face $-1 $141 $142 $71 $-1 $143 forward single #
face $-1 $144 $145 $54 $-1 $146 reversed single #
loop $-1 $-1 $147 $72 #
plane-surface $-1 0 0 17.061430137932984 0 0 1 1 0 0 forward_v I I I I #
face $-1 $148 $149 $55 $-1 $150 reversed single #
loop $-1 $-1 $151 $73 #
plane-surface $-1 0 -24.793979274340991 12.199753048242737 0 0 1 1 0 0 forward_v I I I I #
face $-1 $152 $153 $56 $-1 $154 reversed single #
loop $-1 $-1 $155 $74 #
plane-surface $-1 0 24.793979274340991 12.199753048242737 0 0 1 1 0 0 forward_v I I I I #
face $-1 $156 $157 $57 $-1 $158 reversed single #
loop $-1 $-1 $159 $75 #
plane-surface $-1 -55.936765648365743 -11.651243505376435 6.4696225092159239 -0.54463904215088732 0 0.83867056331134215 0.83867056331134215 0 0.54463904215088732 forward_v I I I I #
face $-1 $160 $161 $58 $-1 $162 forward single #
loop $-1 $163 $164 $76 #
cone-surface $-1 -47.254328417082156 -13.403261520117251 10.95330816747714 0.54463904215088732 0 -0.83867056331134215 0.41933528165567108 0 0.27231952107544366 1 I I 0 1 0.5 forward I I I I #
face $-1 $165 $166 $59 $-1 $167 forward single #
loop $-1 $168 $169 $77 #
cone-surface $-1 -47.254328417082156 -11.651243505376435 10.95330816747714 0.54463904215088732 0 -0.83867056331134215 0.41933528165567108 0 0.27231952107544366 1 I I 0 1 0.5 forward I I I I #
face $-1 $170 $171 $60 $-1 $172 forward single #
loop $-1 $173 $174 $78 #
cone-surface $-1 -47.254328417082156 -9.8992254906356187 10.95330816747714 0.54463904215088732 0 -0.83867056331134215 0.41933528165567108 0 0.27231952107544366 1 I I 0 1 0.5 forward I I I I #
face $-1 $175 $176 $61 $-1 $177 reversed single #
loop $-1 $-1 $178 $79 #
plane-surface $-1 -116.86745857585488 -2.9200300245680282 100.29466002147477 0 1 0 -0.54463904215088732 0 0.83867056331134215 forward_v I I I I #
face $-1 $179 $180 $62 $-1 $181 forward single #
loop $-1 $182 $183 $80 #
cone-surface $-1 -47.254328417082156 -1.7520180147408126 10.95330816747714 0.54463904215088732 0 -0.83867056331134215 0.41933528165567108 0 0.27231952107544366 1 I I 0 1 0.5 forward I I I I #
face $-1 $184 $185 $63 $-1 $186 forward single #
loop $-1 $187 $188 $81 #
cone-surface $-1 -47.254328417082156 0 10.95330816747714 0.54463904215088732 0 -0.83867056331134215 0.41933528165567108 0 0.27231952107544366 1 I I 0 1 0.5 forward I I I I #
face $-1 $189 $190 $64 $-1 $191 forward single #
loop $-1 $192 $193 $82 #
cone-surface $-1 -47.254328417082156 1.7520180147408126 10.95330816747714 0.54463904215088732 0 -0.83867056331134215 0.41933528165567108 0 0.27231952107544366 1 I I 0 1 0.5 forward I I I I #
face $-1 $194 $195 $65 $-1 $196 reversed single #
loop $-1 $-1 $197 $83 #
plane-surface $-1 -116.86745857585488 8.7312134808084068 100.29466002147477 0 1 0 -0.54463904215088732 0 0.83867056331134215 forward_v I I I I #
face $-1 $198 $199 $66 $-1 $200 forward single #
loop $-1 $201 $202 $84 #
cone-surface $-1 -47.254328417082156 9.8992254906356223 10.95330816747714 0.54463904215088732 0 -0.83867056331134215 0.41933528165567108 0 0.27231952107544366 1 I I 0 1 0.5 forward I I I I #
face $-1 $203 $204 $67 $-1 $205 forward single #
loop $-1 $206 $207 $85 #
cone-surface $-1 -47.254328417082156 11.651243505376435 10.95330816747714 0.54463904215088732 0 -0.83867056331134215 0.41933528165567108 0 0.27231952107544366 1 I I 0 1 0.5 forward I I I I #
face $-1 $208 $209 $68 $-1 $210 forward single #
loop $-1 $211 $212 $86 #
cone-surface $-1 -47.254328417082156 13.403261520117248 10.95330816747714 0.54463904215088732 0 -0.83867056331134215 0.41933528165567108 0 0.27231952107544366 1 I I 0 1 0.5 forward I I I I #
face $-1 $213 $214 $69 $-1 $215 reversed single #
loop $-1 $-1 $216 $87 #
plane-surface $-1 -14.467527672169794 10.408568217263529 92.323402933908952 0.77714596973225614 0 0.62932038083071107 0.62932038083071107 0 -0.77714596973225614 forward_v I I I I #
face $-1 $217 $218 $70 $-1 $219 forward single #
loop $-1 $220 $221 $88 #
cone-surface $-1 50.558179783335596 8.6245516546859875 10.695502455276461 -0.77714596973225614 0 -0.62932038083071107 0.31466019041535553 0 -0.38857298486612807 1 I I 0 1 0.5 forward I I I I #
face $-1 $222 $223 $71 $-1 $224 forward single #
loop $-1 $225 $226 $89 #
cone-surface $-1 50.558179783335596 12.19258477984107 10.695502455276461 -0.77714596973225614 0 -0.62932038083071107 0.31466019041535553 0 -0.38857298486612807 1 I I 0 1 0.5 forward I I I I #
face $-1 $227 $228 $54 $-1 $229 reversed single #
loop $-1 $-1 $230 $90 #
plane-surface $-1 0 0 -17.061430137932984 0 0 1 1 0 0 forward_v I I I I #
coedge $-1 $231 $232 $233 $234 forward $91 $-1 #
face $-1 $235 $236 $55 $-1 $237 reversed single #
loop $-1 $-1 $238 $93 #
plane-surface $-1 0 -14.571273529944463 14.630591593087861 0 -1 0 0 0 -1 forward_v I I I I #
coedge $-1 $239 $240 $241 $242 reversed $94 $-1 #
face $-1 $243 $244 $56 $-1 $245 forward single #
loop $-1 $-1 $246 $96 #
plane-surface $-1 0 14.571273529944463 14.630591593087861 0 1 0 0 0 1 forward_v I I I I #
coedge $-1 $247 $248 $249 $250 reversed $97 $-1 #
face $-1 $251 $252 $57 $-1 $253 reversed single #
loop $-1 $-1 $254 $99 #
plane-surface $-1 -116.86745857585488 -8.7312134808084068 100.29466002147477 0 -1 0 0.54463904215088732 0 -0.83867056331134215 forward_v I I I I #
coedge $-1 $255 $256 $257 $258 reversed $100 $-1 #
face $-1 $-1 $259 $58 $-1 $260 forward single #
loop $-1 $261 $262 $102 #
cone-surface $-1 -46.590708008816684 -13.403261520117251 9.9314223705519957 0.54463904215088732 0 -0.83867056331134215 0.20966764082783554 0 0.13615976053772183 1 I I -0.70710678118654746 0.70710678118654746 0.25 forward I I I I #
loop $-1 $-1 $263 $76 #
coedge $-1 $164 $164 $264 $265 reversed $103 $-1 #
face $-1 $-1 $266 $59 $-1 $267 forward single #
loop $-1 $268 $269 $105 #
cone-surface $-1 -46.590708008816684 -11.651243505376435 9.9314223705519957 0.54463904215088732 0 -0.83867056331134215 0.20966764082783554 0 0.13615976053772183 1 I I -0.70710678118654746 0.70710678118654746 0.25 forward I I I I #
loop $-1 $-1 $270 $77 #
coedge $-1 $169 $169 $271 $272 reversed $106 $-1 #
face $-1 $-1 $273 $60 $-1 $274 forward single #
loop $-1 $275 $276 $108 #
cone-surface $-1 -46.590708008816684 -9.8992254906356187 9.9314223705519957 0.54463904215088732 0 -0.83867056331134215 0.20966764082783554 0 0.13615976053772183 1 I I -0.70710678118654746 0.70710678118654746 0.25 forward I I I I #
loop $-1 $-1 $277 $78 #
coedge $-1 $174 $174 $278 $279 reversed $109 $-1 #
face $-1 $280 $281 $61 $-1 $282 reversed single #
loop $-1 $-1 $283 $111 #
plane-surface $-1 -55.936765648365743 0 6.4696225092159239 -0.54463904215088732 0 0.83867056331134215 0.83867056331134215 0 0.54463904215088732 forward_v I I I I #
coedge $-1 $284 $285 $286 $287 reversed $112 $-1 #
face $-1 $-1 $288 $62 $-1 $289 forward single #
loop $-1 $290 $291 $114 #
cone-surface $-1 -46.590708008816684 -1.7520180147408126 9.9314223705519957 0.54463904215088732 0 -0.83867056331134215 0.20966764082783554 0 0.13615976053772183 1 I I -0.70710678118654746 0.70710678118654746 0.25 forward I I I I #
loop $-1 $-1 $292 $80 #
coedge $-1 $183 $183 $293 $294 reversed $115 $-1 #
face $-1 $-1 $295 $63 $-1 $296 forward single #
loop $-1 $297 $298 $117 #
cone-surface $-1 -46.590708008816684 0 9.9314223705519957 0.54463904215088732 0 -0.83867056331134215 0.20966764082783554 0 0.13615976053772183 1 I I -0.70710678118654746 0.70710678118654746 0.25 forward I I I I #
loop $-1 $-1 $299 $81 #
coedge $-1 $188 $188 $300 $301 reversed $118 $-1 #
face $-1 $-1 $302 $64 $-1 $303 forward single #
loop $-1 $304 $305 $120 #
cone-surface $-1 -46.590708008816684 1.7520180147408126 9.9314223705519957 0.54463904215088732 0 -0.83867056331134215 0.20966764082783554 0 0.13615976053772183 1 I I -0.70710678118654746 0.70710678118654746 0.25 forward I I I I #
loop $-1 $-1 $306 $82 #
coedge $-1 $193 $193 $307 $308 reversed $121 $-1 #
face $-1 $309 $310 $65 $-1 $311 forward single #
loop $-1 $-1 $312 $123 #
plane-surface $-1 -55.936765648365743 11.651243505376435 6.4696225092159239 -0.54463904215088732 0 0.83867056331134215 0.83867056331134215 0 0.54463904215088732 forward_v I I I I #
coedge $-1 $313 $314 $315 $316 reversed $124 $-1 #
face $-1 $-1 $317 $66 $-1 $318 forward single #
loop $-1 $319 $320 $126 #
cone-surface $-1 -46.590708008816684 9.8992254906356223 9.9314223705519957 0.54463904215088732 0 -0.83867056331134215 0.20966764082783554 0 0.13615976053772183 1 I I -0.70710678118654746 0.70710678118654746 0.25 forward I I I I #
loop $-1 $-1 $321 $84 #
coedge $-1 $202 $202 $322 $323 reversed $127 $-1 #
face $-1 $-1 $324 $67 $-1 $325 forward single #
loop $-1 $326 $327 $129 #
cone-surface $-1 -46.590708008816684 11.651243505376435 9.9314223705519957 0.54463904215088732 0 -0.83867056331134215 0.20966764082783554 0 0.13615976053772183 1 I I -0.70710678118654746 0.70710678118654746 0.25 forward I I I I #
loop $-1 $-1 $328 $85 #
coedge $-1 $207 $207 $329 $330 reversed $130 $-1 #
face $-1 $-1 $331 $68 $-1 $332 forward single #
loop $-1 $333 $334 $132 #
cone-surface $-1 -46.590708008816684 13.403261520117248 9.9314223705519957 0.54463904215088732 0 -0.83867056331134215 0.20966764082783554 0 0.13615976053772183 1 I I -0.70710678118654746 0.70710678118654746 0.25 forward I I I I #
loop $-1 $-1 $335 $86 #
coedge $-1 $212 $212 $336 $337 reversed $133 $-1 #
face $-1 $338 $339 $69 $-1 $340 forward single #
loop $-1 $-1 $341 $135 #
plane-surface $-1 72.474536294800487 6.2458629045825944 162.72769625444448 0 1 0 0.77714596973225614 0 0.62932038083071107 forward_v I I I I #
coedge $-1 $342 $343 $344 $345 reversed $136 $-1 #
face $-1 $-1 $346 $70 $-1 $347 forward single #
loop $-1 $348 $349 $138 #
cone-surface $-1 49.714482966987276 8.6245516546859875 10.012290262909421 -0.77714596973225614 0 -0.62932038083071107 0.15733009520767777 0 -0.19428649243306403 1 I I -0.70710678118654746 0.70710678118654746 0.25 forward I I I I #
loop $-1 $-1 $350 $88 #
coedge $-1 $221 $221 $351 $352 reversed $139 $-1 #
face $-1 $-1 $353 $71 $-1 $354 forward single #
loop $-1 $355 $356 $141 #
cone-surface $-1 49.714482966987276 12.19258477984107 10.012290262909421 -0.77714596973225614 0 -0.62932038083071107 0.15733009520767777 0 -0.19428649243306403 1 I I -0.70710678118654746 0.70710678118654746 0.25 forward I I I I #
loop $-1 $-1 $357 $89 #
coedge $-1 $226 $226 $358 $359 reversed $142 $-1 #
face $-1 $360 $361 $54 $-1 $362 reversed single #
loop $-1 $-1 $363 $144 #
plane-surface $-1 0 -35.016685018737519 0 0 1 0 0 0 1 forward_v I I I I #
coedge $-1 $364 $365 $366 $367 forward $145 $-1 #
coedge $-1 $368 $147 $369 $370 forward $91 $-1 #
coedge $-1 $147 $368 $371 $372 forward $91 $-1 #
coedge $-1 $373 $374 $147 $234 reversed $375 $-1 #
edge $-1 $376 -35.016685018737519 $377 35.016685018737519 $233 $378 forward 7 unknown #
face $-1 $379 $380 $55 $-1 $381 reversed single #
loop $-1 $-1 $382 $148 #
plane-surface $-1 -55.936765648365736 0 0 1 0 0 0 0 -1 forward_v I I I I #
coedge $-1 $383 $384 $385 $386 reversed $149 $-1 #
coedge $-1 $387 $151 $388 $389 reversed $94 $-1 #
coedge $-1 $151 $387 $383 $390 forward $94 $-1 #
coedge $-1 $385 $391 $151 $242 forward $392 $-1 #
edge $-1 $393 -22.619695381567023 $394 -2.1742838927739676 $241 $395 forward 7 unknown #
face $-1 $396 $397 $56 $-1 $398 reversed single #
loop $-1 $-1 $399 $152 #
plane-surface $-1 0 0 17.061430137932984 0 0 1 1 0 0 forward_v I I I I #
coedge $-1 $400 $401 $402 $403 reversed $153 $-1 #
coedge $-1 $404 $155 $400 $405 forward $97 $-1 #
coedge $-1 $155 $404 $406 $407 reversed $97 $-1 #
coedge $-1 $408 $409 $155 $250 forward $397 $-1 #
edge $-1 $410 2.1742838927739676 $411 22.619695381567023 $249 $412 forward 7 unknown #
face $-1 $413 $414 $57 $-1 $415 forward single #
loop $-1 $-1 $416 $156 #
plane-surface $-1 -55.936765648365736 0 0 1 0 0 0 0 -1 forward_v I I I I #
coedge $-1 $417 $418 $419 $420 reversed $157 $-1 #
coedge $-1 $421 $159 $422 $423 reversed $100 $-1 #
coedge $-1 $159 $421 $417 $424 forward $100 $-1 #
coedge $-1 $419 $425 $159 $258 forward $414 $-1 #
edge $-1 $426 -8.7456517772562457 $427 -2.9055917281201893 $257 $428 forward 7 unknown #
loop $-1 $-1 $264 $160 #
plane-surface $-1 -55.936765648365743 -11.651243505376435 6.4696225092159239 -0.54463904215088732 0 0.83867056331134215 0.83867056331134215 0 0.54463904215088732 forward_v I I I I #
loop $-1 $-1 $429 $102 #
coedge $-1 $262 $262 $263 $430 reversed $161 $-1 #
coedge $-1 $263 $263 $262 $430 forward $163 $-1 #
coedge $-1 $264 $264 $164 $265 forward $259 $-1 #
edge $-1 $431 0 $431 6.2831853071796004 $264 $432 forward 7 unknown #
loop $-1 $-1 $271 $165 #
plane-surface $-1 -55.936765648365743 -11.651243505376435 6.4696225092159239 -0.54463904215088732 0 0.83867056331134215 0.83867056331134215 0 0.54463904215088732 forward_v I I I I #
loop $-1 $-1 $433 $105 #
coedge $-1 $269 $269 $270 $434 reversed $166 $-1 #
coedge $-1 $270 $270 $269 $434 forward $168 $-1 #
coedge $-1 $271 $271 $169 $272 forward $266 $-1 #
edge $-1 $435 0 $435 6.2831853071796004 $271 $436 forward 7 unknown #
loop $-1 $-1 $278 $170 #
plane-surface $-1 -55.936765648365743 -11.651243505376435 6.4696225092159239 -0.54463904215088732 0 0.83867056331134215 0.83867056331134215 0 0.54463904215088732 forward_v I I I I #
loop $-1 $-1 $437 $108 #
coedge $-1 $276 $276 $277 $438 reversed $171 $-1 #
coedge $-1 $277 $277 $276 $438 forward $173 $-1 #
coedge $-1 $278 $278 $174 $279 forward $273 $-1 #
edge $-1 $439 0 $439 6.2831853071796004 $278 $440 forward 7 unknown #
face $-1 $441 $442 $61 $-1 $443 forward single #
loop $-1 $-1 $444 $175 #
plane-surface $-1 -116.86745857585488 2.9200300245680282 100.29466002147477 0 -1 0 0.54463904215088732 0 -0.83867056331134215 forward_v I I I I #
coedge $-1 $445 $446 $447 $448 reversed $176 $-1 #
coedge $-1 $285 $178 $449 $450 reversed $112 $-1 #
coedge $-1 $178 $284 $445 $451 reversed $112 $-1 #
coedge $-1 $447 $452 $178 $287 forward $442 $-1 #
edge $-1 $453 2.4969636395617059 $454 18.806916806673321 $286 $455 forward 7 unknown #
loop $-1 $-1 $293 $179 #
plane-surface $-1 -55.936765648365743 0 6.4696225092159239 -0.54463904215088732 0 0.83867056331134215 0.83867056331134215 0 0.54463904215088732 forward_v I I I I #
loop $-1 $-1 $456 $114 #
coedge $-1 $291 $291 $292 $457 reversed $180 $-1 #
coedge $-1 $292 $292 $291 $457 forward $182 $-1 #
coedge $-1 $293 $293 $183 $294 forward $288 $-1 #
edge $-1 $458 0 $458 6.2831853071796004 $293 $459 forward 7 unknown #
loop $-1 $-1 $300 $184 #
plane-surface $-1 -55.936765648365743 0 6.4696225092159239 -0.54463904215088732 0 0.83867056331134215 0.83867056331134215 0 0.54463904215088732 forward_v I I I I #
loop $-1 $-1 $460 $117 #
coedge $-1 $298 $298 $299 $461 reversed $185 $-1 #
coedge $-1 $299 $299 $298 $461 forward $187 $-1 #
coedge $-1 $300 $300 $188 $301 forward $295 $-1 #
edge $-1 $462 0 $462 6.2831853071796004 $300 $463 forward 7 unknown #
loop $-1 $-1 $307 $189 #
plane-surface $-1 -55.936765648365743 0 6.4696225092159239 -0.54463904215088732 0 0.83867056331134215 0.83867056331134215 0 0.54463904215088732 forward_v I I I I #
loop $-1 $-1 $464 $120 #
coedge $-1 $305 $305 $306 $465 reversed $190 $-1 #
coedge $-1 $306 $306 $305 $465 forward $192 $-1 #
coedge $-1 $307 $307 $193 $308 forward $302 $-1 #
edge $-1 $466 0 $466 6.2831853071796004 $307 $467 forward 7 unknown #
face $-1 $468 $469 $65 $-1 $470 forward single #
loop $-1 $-1 $315 $194 #
plane-surface $-1 0 0 17.061430137932984 0 0 1 1 0 0 forward_v I I I I #
coedge $-1 $471 $472 $473 $474 reversed $195 $-1 #
coedge $-1 $314 $197 $475 $476 reversed $124 $-1 #
coedge $-1 $197 $313 $471 $477 reversed $124 $-1 #
coedge $-1 $473 $478 $197 $316 forward $310 $-1 #
edge $-1 $479 2.4969636395617059 $480 18.806916806673321 $315 $481 forward 7 unknown #
loop $-1 $-1 $322 $198 #
plane-surface $-1 -55.936765648365743 11.651243505376435 6.4696225092159239 -0.54463904215088732 0 0.83867056331134215 0.83867056331134215 0 0.54463904215088732 forward_v I I I I #
loop $-1 $-1 $482 $126 #
coedge $-1 $320 $320 $321 $483 reversed $199 $-1 #
coedge $-1 $321 $321 $320 $483 forward $201 $-1 #
coedge $-1 $322 $322 $202 $323 forward $317 $-1 #
edge $-1 $484 0 $484 6.2831853071796004 $322 $485 forward 7 unknown #
loop $-1 $-1 $329 $203 #
plane-surface $-1 -55.936765648365743 11.651243505376435 6.4696225092159239 -0.54463904215088732 0 0.83867056331134215 0.83867056331134215 0 0.54463904215088732 forward_v I I I I #
loop $-1 $-1 $486 $129 #
coedge $-1 $327 $327 $328 $487 reversed $204 $-1 #
coedge $-1 $328 $328 $327 $487 forward $206 $-1 #
coedge $-1 $329 $329 $207 $330 forward $324 $-1 #
edge $-1 $488 0 $488 6.2831853071796004 $329 $489 forward 7 unknown #
loop $-1 $-1 $336 $208 #
plane-surface $-1 -55.936765648365743 11.651243505376435 6.4696225092159239 -0.54463904215088732 0 0.83867056331134215 0.83867056331134215 0 0.54463904215088732 forward_v I I I I #
loop $-1 $-1 $490 $132 #
coedge $-1 $334 $334 $335 $491 reversed $209 $-1 #
coedge $-1 $335 $335 $334 $491 forward $211 $-1 #
coedge $-1 $336 $336 $212 $337 forward $331 $-1 #
edge $-1 $492 0 $492 6.2831853071796004 $336 $493 forward 7 unknown #
face $-1 $494 $495 $69 $-1 $496 reversed single #
loop $-1 $-1 $344 $213 #
plane-surface $-1 0 0 17.061430137932984 0 0 1 1 0 0 forward_v I I I I #
coedge $-1 $497 $498 $499 $500 reversed $214 $-1 #
coedge $-1 $501 $216 $502 $503 reversed $136 $-1 #
coedge $-1 $216 $501 $497 $504 forward $136 $-1 #
coedge $-1 $499 $505 $216 $345 forward $339 $-1 #
edge $-1 $506 -9.3669894213126987 $507 -1.04157879595083 $344 $508 forward 7 unknown #
loop $-1 $-1 $351 $217 #
plane-surface $-1 -14.467527672169794 10.408568217263529 92.323402933908952 0.77714596973225614 0 0.62932038083071107 0.62932038083071107 0 -0.77714596973225614 forward_v I I I I #
loop $-1 $-1 $509 $138 #
coedge $-1 $349 $349 $350 $510 reversed $218 $-1 #
coedge $-1 $350 $350 $349 $510 forward $220 $-1 #
coedge $-1 $351 $351 $221 $352 forward $346 $-1 #
edge $-1 $511 0 $511 6.2831853071796004 $351 $512 forward 7 unknown #
loop $-1 $-1 $358 $222 #
plane-surface $-1 -14.467527672169794 10.408568217263529 92.323402933908952 0.77714596973225614 0 0.62932038083071107 0.62932038083071107 0 -0.77714596973225614 forward_v I I I I #
loop $-1 $-1 $513 $141 #
coedge $-1 $356 $356 $357 $514 reversed $223 $-1 #
coedge $-1 $357 $357 $356 $514 forward $225 $-1 #
coedge $-1 $358 $358 $226 $359 forward $353 $-1 #
edge $-1 $515 0 $515 6.2831853071796004 $358 $516 forward 7 unknown #
face $-1 $517 $518 $54 $-1 $519 reversed single #
loop $-1 $-1 $520 $227 #
plane-surface $-1 -55.936765648365736 0 0 1 0 0 0 0 -1 forward_v I I I I #
coedge $-1 $521 $371 $522 $523 forward $228 $-1 #
coedge $-1 $524 $230 $521 $525 forward $145 $-1 #
coedge $-1 $230 $524 $526 $527 forward $145 $-1 #
coedge $-1 $374 $373 $230 $367 reversed $375 $-1 #
edge $-1 $528 -35.016685018737519 $529 35.016685018737519 $366 $530 forward 7 unknown #
coedge $-1 $232 $231 $531 $532 forward $91 $-1 #
coedge $-1 $533 $534 $231 $370 reversed $518 $-1 #
edge $-1 $377 -55.936765648365736 $535 55.936765648365736 $369 $536 forward 7 unknown #
coedge $-1 $363 $537 $232 $372 reversed $228 $-1 #
edge $-1 $538 -55.936765648365736 $376 55.936765648365736 $371 $539 forward 7 unknown #
coedge $-1 $366 $233 $537 $540 forward $375 $-1 #
coedge $-1 $233 $366 $533 $541 reversed $375 $-1 #
loop $-1 $-1 $373 $517 #
vertex $-1 $234 $542 #
vertex $-1 $234 $543 #
straight-curve $-1 55.936765648365736 0 17.061430137932984 0 1 0 I I #
face $-1 $544 $545 $55 $-1 $546 forward single #
loop $-1 $-1 $388 $235 #
plane-surface $-1 0 -35.016685018737519 0 0 1 0 0 0 1 forward_v I I I I #
coedge $-1 $547 $548 $549 $550 forward $236 $-1 #
coedge $-1 $549 $238 $240 $390 reversed $149 $-1 #
coedge $-1 $238 $549 $551 $552 reversed $149 $-1 #
coedge $-1 $553 $241 $238 $386 forward $392 $-1 #
edge $-1 $394 4.884457251698807 $554 9.7461343413890535 $385 $555 forward 7 unknown #
coedge $-1 $240 $239 $547 $556 reversed $94 $-1 #
coedge $-1 $557 $558 $239 $389 forward $380 $-1 #
edge $-1 $559 -55.936765648365736 $393 55.936765648365736 $388 $560 forward 7 unknown #
edge $-1 $561 -55.936765648365736 $394 55.936765648365736 $383 $562 forward 7 unknown #
coedge $-1 $241 $553 $557 $563 forward $392 $-1 #
loop $-1 $-1 $385 $544 #
vertex $-1 $389 $564 #
vertex $-1 $242 $565 #
straight-curve $-1 55.936765648365736 -12.396989637170496 12.199753048242737 0 1 0 I I #
face $-1 $566 $567 $56 $-1 $568 reversed single #
loop $-1 $-1 $409 $243 #
plane-surface $-1 55.936765648365736 0 0 -1 0 0 0 0 1 forward_v I I I I #
coedge $-1 $569 $570 $401 $571 forward $244 $-1 #
coedge $-1 $572 $246 $247 $405 reversed $153 $-1 #
coedge $-1 $246 $572 $399 $571 reversed $153 $-1 #
coedge $-1 $573 $574 $246 $403 forward $567 $-1 #
edge $-1 $575 4.884457251698807 $576 9.7461343413890535 $402 $577 forward 7 unknown #
coedge $-1 $248 $247 $574 $578 reversed $97 $-1 #
edge $-1 $410 -55.936765648365736 $575 55.936765648365736 $400 $579 forward 7 unknown #
coedge $-1 $580 $581 $248 $407 forward $582 $-1 #
edge $-1 $411 -55.936765648365736 $583 55.936765648365736 $406 $584 forward 7 unknown #
coedge $-1 $585 $249 $581 $586 reversed $397 $-1 #
coedge $-1 $249 $585 $572 $587 forward $397 $-1 #
vertex $-1 $250 $588 #
vertex $-1 $407 $589 #
straight-curve $-1 55.936765648365736 12.396989637170496 12.199753048242737 0 1 0 I I #
face $-1 $-1 $590 $57 $-1 $591 forward single #
loop $-1 $-1 $419 $251 #
plane-surface $-1 0 0 17.061430137932984 0 0 1 1 0 0 forward_v I I I I #
coedge $-1 $592 $593 $418 $594 forward $252 $-1 #
coedge $-1 $418 $254 $256 $424 reversed $157 $-1 #
coedge $-1 $254 $417 $416 $594 reversed $157 $-1 #
coedge $-1 $595 $257 $254 $420 forward $414 $-1 #
edge $-1 $427 -18.806916806673321 $596 -2.4969636395617059 $419 $597 forward 7 unknown #
coedge $-1 $256 $255 $592 $598 reversed $100 $-1 #
coedge $-1 $599 $600 $255 $423 forward $590 $-1 #
edge $-1 $601 -25.678650570496213 $426 -6.2312609987021874 $422 $602 forward 7 unknown #
edge $-1 $603 8.3777959833898778e-015 $427 19.447389571794034 $417 $604 forward 7 unknown #
coedge $-1 $257 $595 $599 $605 forward $414 $-1 #
vertex $-1 $423 $606 #
vertex $-1 $258 $607 #
straight-curve $-1 -39.62681248125412 -5.8256217526882175 17.061430137932984 0 1 0 I I #
coedge $-1 $429 $429 $-1 $608 reversed $261 $-1 #
edge $-1 $609 0 $609 6.2831853071796004 $262 $610 forward 7 unknown #
vertex $-1 $265 $611 #
ellipse-curve $-1 -47.781789064809914 -13.403261520117251 11.765526323574463 -0.54463904215088732 0 0.83867056331134215 0.41933528165567108 0 0.27231952107544366 1 I I #
coedge $-1 $433 $433 $-1 $612 reversed $268 $-1 #
edge $-1 $613 0 $613 6.2831853071796004 $269 $614 forward 7 unknown #
vertex $-1 $272 $615 #
ellipse-curve $-1 -47.781789064809914 -11.651243505376435 11.765526323574463 -0.54463904215088732 0 0.83867056331134215 0.41933528165567108 0 0.27231952107544366 1 I I #
coedge $-1 $437 $437 $-1 $616 reversed $275 $-1 #
edge $-1 $617 0 $617 6.2831853071796004 $276 $618 forward 7 unknown #
vertex $-1 $279 $619 #
ellipse-curve $-1 -47.781789064809914 -9.8992254906356187 11.765526323574463 -0.54463904215088732 0 0.83867056331134215 0.41933528165567108 0 0.27231952107544366 1 I I #
face $-1 $-1 $620 $61 $-1 $621 reversed single #
loop $-1 $-1 $286 $280 #
plane-surface $-1 0 0 17.061430137932984 0 0 1 1 0 0 forward_v I I I I #
coedge $-1 $622 $623 $624 $625 reversed $281 $-1 #
coedge $-1 $626 $283 $285 $451 forward $176 $-1 #
coedge $-1 $283 $626 $622 $627 forward $176 $-1 #
coedge $-1 $624 $286 $283 $448 forward $442 $-1 #
edge $-1 $454 -2.9200300245680282 $628 2.9200300245680282 $447 $629 forward 7 unknown #
coedge $-1 $630 $631 $284 $450 forward $620 $-1 #
edge $-1 $632 -43.677707501521454 $453 -33.085899872804404 $449 $633 forward 7 unknown #
edge $-1 $454 -19.447389571794034 $632 -8.3777959833898778e-015 $285 $634 forward 7 unknown #
coedge $-1 $286 $624 $630 $635 forward $442 $-1 #
vertex $-1 $450 $636 #
vertex $-1 $287 $637 #
straight-curve $-1 -58.433729287927441 -2.9200300245680282 17.061430137932987 1 0 0 I I #
coedge $-1 $456 $456 $-1 $638 reversed $290 $-1 #
edge $-1 $639 0 $639 6.2831853071796004 $291 $640 forward 7 unknown #
vertex $-1 $294 $641 #
ellipse-curve $-1 -47.781789064809914 -1.7520180147408126 11.765526323574463 -0.54463904215088732 0 0.83867056331134215 0.41933528165567108 0 0.27231952107544366 1 I I #
coedge $-1 $460 $460 $-1 $642 reversed $297 $-1 #
edge $-1 $643 0 $643 6.2831853071796004 $298 $644 forward 7 unknown #
vertex $-1 $301 $645 #
ellipse-curve $-1 -47.781789064809914 0 11.765526323574463 -0.54463904215088732 0 0.83867056331134215 0.41933528165567108 0 0.27231952107544366 1 I I #
coedge $-1 $464 $464 $-1 $646 reversed $304 $-1 #
edge $-1 $647 0 $647 6.2831853071796004 $305 $648 forward 7 unknown #
vertex $-1 $308 $649 #
ellipse-curve $-1 -47.781789064809914 1.7520180147408126 11.765526323574463 -0.54463904215088732 0 0.83867056331134215 0.41933528165567108 0 0.27231952107544366 1 I I #
face $-1 $-1 $650 $65 $-1 $651 reversed single #
loop $-1 $-1 $652 $309 #
plane-surface $-1 0 14.571273529944463 14.630591593087861 0 1 0 0 0 1 forward_v I I I I #
coedge $-1 $653 $312 $314 $477 forward $195 $-1 #
coedge $-1 $312 $653 $652 $654 forward $195 $-1 #
coedge $-1 $655 $315 $312 $474 forward $310 $-1 #
edge $-1 $480 2.9055917281201893 $656 8.7456517772562457 $473 $657 forward 7 unknown #
coedge $-1 $658 $659 $313 $476 forward $650 $-1 #
edge $-1 $660 -43.677707501521454 $479 -33.085899872804404 $475 $661 forward 7 unknown #
edge $-1 $480 -19.447389571794034 $660 -8.3777959833898778e-015 $314 $662 forward 7 unknown #
coedge $-1 $315 $655 $658 $663 forward $310 $-1 #
vertex $-1 $476 $664 #
vertex $-1 $316 $665 #
straight-curve $-1 -58.433729287927441 8.7312134808084068 17.061430137932987 1 0 0 I I #
coedge $-1 $482 $482 $-1 $666 reversed $319 $-1 #
edge $-1 $667 0 $667 6.2831853071796004 $320 $668 forward 7 unknown #
vertex $-1 $323 $669 #
ellipse-curve $-1 -47.781789064809914 9.8992254906356223 11.765526323574463 -0.54463904215088732 0 0.83867056331134215 0.41933528165567108 0 0.27231952107544366 1 I I #
coedge $-1 $486 $486 $-1 $670 reversed $326 $-1 #
edge $-1 $671 0 $671 6.2831853071796004 $327 $672 forward 7 unknown #
vertex $-1 $330 $673 #
ellipse-curve $-1 -47.781789064809914 11.651243505376435 11.765526323574463 -0.54463904215088732 0 0.83867056331134215 0.41933528165567108 0 0.27231952107544366 1 I I #
coedge $-1 $490 $490 $-1 $674 reversed $333 $-1 #
edge $-1 $675 0 $675 6.2831853071796004 $334 $676 forward 7 unknown #
vertex $-1 $337 $677 #
ellipse-curve $-1 -47.781789064809914 13.403261520117248 11.765526323574463 -0.54463904215088732 0 0.83867056331134215 0.41933528165567108 0 0.27231952107544366 1 I I #
face $-1 $-1 $678 $69 $-1 $679 forward single #
loop $-1 $-1 $680 $338 #
plane-surface $-1 55.936765648365736 0 0 -1 0 0 0 0 1 forward_v I I I I #
coedge $-1 $498 $341 $343 $504 reversed $214 $-1 #
coedge $-1 $341 $497 $680 $681 reversed $214 $-1 #
coedge $-1 $682 $344 $341 $500 forward $339 $-1 #
edge $-1 $507 10.241146418735738 $683 19.699497500965492 $499 $684 forward 7 unknown #
coedge $-1 $343 $342 $685 $686 reversed $136 $-1 #
coedge $-1 $687 $688 $342 $503 forward $678 $-1 #
edge $-1 $689 -77.131848679223282 $506 -62.102379794480335 $502 $690 forward 7 unknown #
edge $-1 $691 -111.87353129673147 $507 -96.844062411988531 $497 $692 forward 7 unknown #
coedge $-1 $344 $682 $687 $693 forward $339 $-1 #
vertex $-1 $503 $694 #
vertex $-1 $345 $695 #
straight-curve $-1 46.478414566135974 5.2042841086317644 17.061430137932987 0 -1 0 I I #
coedge $-1 $509 $509 $-1 $696 reversed $348 $-1 #
edge $-1 $697 0 $697 6.2831853071796004 $349 $698 forward 7 unknown #
vertex $-1 $352 $699 #
ellipse-curve $-1 51.207590107250851 8.6245516546859875 11.22138455243582 0.77714596973225614 0 0.62932038083071107 0.31466019041535553 0 -0.38857298486612807 1 I I #
coedge $-1 $513 $513 $-1 $700 reversed $355 $-1 #
edge $-1 $701 0 $701 6.2831853071796004 $356 $702 forward 7 unknown #
vertex $-1 $359 $703 #
ellipse-curve $-1 51.207590107250851 12.19258477984107 11.22138455243582 0.77714596973225614 0 0.62932038083071107 0.31466019041535553 0 -0.38857298486612807 1 I I #
face $-1 $-1 $375 $54 $-1 $704 reversed single #
loop $-1 $-1 $533 $360 #
plane-surface $-1 0 35.016685018737519 0 0 -1 0 0 0 -1 forward_v I I I I #
coedge $-1 $705 $531 $534 $706 forward $361 $-1 #
coedge $-1 $537 $363 $364 $525 reversed $228 $-1 #
coedge $-1 $531 $705 $363 $523 reversed $361 $-1 #
edge $-1 $538 -17.061430137932984 $707 17.061430137932984 $522 $708 forward 7 unknown #
coedge $-1 $365 $364 $705 $709 forward $145 $-1 #
edge $-1 $529 -55.936765648365736 $707 55.936765648365736 $521 $710 forward 7 unknown #
coedge $-1 $534 $533 $365 $527 reversed $518 $-1 #
edge $-1 $711 -55.936765648365736 $528 55.936765648365736 $526 $712 forward 7 unknown #
vertex $-1 $367 $713 #
vertex $-1 $540 $714 #
straight-curve $-1 55.936765648365736 0 -17.061430137932984 0 -1 0 I I #
coedge $-1 $520 $522 $368 $532 reversed $361 $-1 #
edge $-1 $535 -35.016685018737519 $538 35.016685018737519 $531 $715 forward 7 unknown #
coedge $-1 $526 $369 $374 $541 forward $518 $-1 #
coedge $-1 $369 $526 $520 $706 reversed $518 $-1 #
vertex $-1 $370 $716 #
straight-curve $-1 0 35.016685018737519 17.061430137932984 -1 0 0 I I #
coedge $-1 $371 $521 $373 $540 reversed $228 $-1 #
vertex $-1 $532 $717 #
straight-curve $-1 0 -35.016685018737519 17.061430137932984 1 0 0 I I #
edge $-1 $376 -17.061430137932984 $529 17.061430137932984 $373 $718 forward 7 unknown #
edge $-1 $377 -17.061430137932984 $528 17.061430137932984 $374 $719 forward 7 unknown #
point $-1 55.936765648365736 -35.016685018737519 17.061430137932984 #
point $-1 55.936765648365736 35.016685018737519 17.061430137932984 #
face $-1 $-1 $392 $55 $-1 $720 reversed single #
loop $-1 $-1 $551 $379 #
plane-surface $-1 0 0 17.061430137932984 0 0 1 1 0 0 forward_v I I I I #
coedge $-1 $721 $382 $387 $556 forward $236 $-1 #
coedge $-1 $382 $721 $722 $723 reversed $236 $-1 #
coedge $-1 $384 $383 $382 $550 reversed $149 $-1 #
edge $-1 $724 -9.7461343413890535 $561 -4.884457251698807 $382 $725 forward 7 unknown #
coedge $-1 $722 $726 $384 $552 forward $545 $-1 #
edge $-1 $554 -55.936765648365736 $724 55.936765648365736 $551 $727 forward 7 unknown #
coedge $-1 $391 $385 $726 $728 reversed $392 $-1 #
vertex $-1 $386 $729 #
straight-curve $-1 55.936765648365736 -14.571273529944463 7.3152957965439303 0 0 1 I I #
edge $-1 $561 2.1742838927739676 $559 22.619695381567023 $547 $730 forward 7 unknown #
coedge $-1 $731 $388 $391 $563 reversed $380 $-1 #
coedge $-1 $388 $731 $721 $732 forward $380 $-1 #
vertex $-1 $389 $733 #
straight-curve $-1 0 -35.016685018737519 12.199753048242737 1 0 0 I I #
vertex $-1 $556 $734 #
straight-curve $-1 0 -14.571273529944463 12.199753048242737 1 0 0 I I #
edge $-1 $735 -17.061430137932984 $393 -12.199753048242737 $391 $736 forward 7 unknown #
point $-1 55.936765648365736 -35.016685018737519 12.199753048242737 #
point $-1 55.936765648365736 -14.571273529944463 12.199753048242737 #
face $-1 $-1 $582 $56 $-1 $737 reversed single #
loop $-1 $-1 $402 $396 #
plane-surface $-1 -55.936765648365736 0 0 1 0 0 0 0 -1 forward_v I I I I #
coedge $-1 $738 $399 $585 $739 forward $244 $-1 #
coedge $-1 $399 $738 $573 $740 forward $244 $-1 #
edge $-1 $576 -55.936765648365736 $741 55.936765648365736 $399 $742 forward 7 unknown #
coedge $-1 $401 $400 $409 $587 reversed $153 $-1 #
coedge $-1 $743 $402 $570 $740 reversed $567 $-1 #
coedge $-1 $402 $743 $404 $578 forward $567 $-1 #
vertex $-1 $578 $744 #
vertex $-1 $403 $745 #
straight-curve $-1 -55.936765648365736 14.571273529944463 7.3152957965439303 0 0 1 I I #
edge $-1 $583 -22.619695381567023 $575 -2.1742838927739676 $574 $746 forward 7 unknown #
straight-curve $-1 0 14.571273529944463 12.199753048242737 -1 0 0 I I #
coedge $-1 $747 $406 $743 $748 reversed $582 $-1 #
coedge $-1 $406 $747 $408 $586 forward $582 $-1 #
loop $-1 $-1 $406 $566 #
vertex $-1 $407 $749 #
straight-curve $-1 0 35.016685018737519 12.199753048242737 -1 0 0 I I #
coedge $-1 $409 $408 $569 $739 reversed $397 $-1 #
edge $-1 $750 -17.061430137932984 $411 -12.199753048242737 $408 $751 forward 7 unknown #
edge $-1 $741 -9.7461343413890535 $410 -4.884457251698807 $409 $752 forward 7 unknown #
point $-1 55.936765648365736 14.571273529944463 12.199753048242737 #
point $-1 55.936765648365736 35.016685018737519 12.199753048242737 #
loop $-1 $-1 $422 $413 #
plane-surface $-1 0 -14.571273529944463 14.630591593087861 0 -1 0 0 0 -1 forward_v I I I I #
coedge $-1 $753 $416 $421 $598 forward $252 $-1 #
coedge $-1 $416 $753 $595 $754 reversed $252 $-1 #
edge $-1 $596 33.085899872804404 $603 43.677707501521454 $416 $755 forward 7 unknown #
coedge $-1 $425 $419 $593 $754 forward $414 $-1 #
vertex $-1 $754 $756 #
straight-curve $-1 -58.433729287927441 -8.7312134808084068 17.061430137932987 -1 0 0 I I #
edge $-1 $603 2.9055917281201893 $601 8.7456517772562457 $592 $757 forward 7 unknown #
coedge $-1 $600 $422 $425 $605 reversed $590 $-1 #
coedge $-1 $422 $599 $753 $758 reversed $590 $-1 #
vertex $-1 $758 $759 #
straight-curve $-1 -34.400837309332559 -14.571273529944463 20.455218159658322 0.83867056331134215 0 0.54463904215088732 I I #
vertex $-1 $598 $760 #
straight-curve $-1 -55.936765648365743 -8.7312134808084068 6.4696225092159239 0.83867056331134215 0 0.54463904215088732 I I #
edge $-1 $761 -55.936765648365736 $426 -39.62681248125412 $425 $762 forward 7 unknown #
point $-1 -39.62681248125412 -14.571273529944463 17.061430137932984 #
point $-1 -39.62681248125412 -8.7312134808084068 17.061430137932984 #
edge $-1 $763 1 $763 0 $429 $-1 forward 7 unknown #
vertex $-1 $430 $764 #
ellipse-curve $-1 -46.726867769354406 -13.403261520117251 10.141090011379831 -0.54463904215088732 0 0.83867056331134215 0.41933528165567108 0 0.27231952107544366 1 I I #
point $-1 -47.362453783154237 -13.403261520117251 12.03784584464989 #
edge $-1 $765 1 $765 0 $433 $-1 forward 7 unknown #
vertex $-1 $434 $766 #
ellipse-curve $-1 -46.726867769354406 -11.651243505376435 10.141090011379831 -0.54463904215088732 0 0.83867056331134215 0.41933528165567108 0 0.27231952107544366 1 I I #
point $-1 -47.362453783154237 -11.651243505376435 12.03784584464989 #
edge $-1 $767 1 $767 0 $437 $-1 forward 7 unknown #
vertex $-1 $438 $768 #
ellipse-curve $-1 -46.726867769354406 -9.8992254906356187 10.141090011379831 -0.54463904215088732 0 0.83867056331134215 0.41933528165567108 0 0.27231952107544366 1 I I #
point $-1 -47.362453783154237 -9.8992254906356187 12.03784584464989 #
loop $-1 $-1 $449 $441 #
plane-surface $-1 -55.936765648365736 0 0 1 0 0 0 0 -1 forward_v I I I I #
coedge $-1 $623 $444 $446 $627 reversed $281 $-1 #
coedge $-1 $444 $622 $769 $770 reversed $281 $-1 #
coedge $-1 $452 $447 $444 $625 forward $442 $-1 #
edge $-1 $628 -18.806916806673321 $771 -2.4969636395617059 $624 $772 forward 7 unknown #
coedge $-1 $446 $445 $631 $773 reversed $176 $-1 #
edge $-1 $774 8.3777959833898778e-015 $628 19.447389571794034 $622 $775 forward 7 unknown #
vertex $-1 $448 $776 #
straight-curve $-1 -39.62681248125412 0 17.061430137932984 0 1 0 I I #
coedge $-1 $769 $449 $452 $635 reversed $620 $-1 #
coedge $-1 $449 $769 $626 $773 forward $620 $-1 #
vertex $-1 $450 $777 #
straight-curve $-1 -55.936765648365736 -2.9200300245680282 50.147330010737384 0 0 1 I I #
straight-curve $-1 -55.936765648365743 -2.9200300245680282 6.4696225092159239 -0.83867056331134215 0 -0.54463904215088732 I I #
edge $-1 $771 -2.9200300245680282 $453 2.9200300245680282 $630 $778 forward 7 unknown #
point $-1 -55.936765648365736 -2.9200300245680282 17.061430137932984 #
point $-1 -39.62681248125412 -2.9200300245680282 17.061430137932984 #
edge $-1 $779 1 $779 0 $456 $-1 forward 7 unknown #
vertex $-1 $457 $780 #
ellipse-curve $-1 -46.726867769354406 -1.7520180147408126 10.141090011379831 -0.54463904215088732 0 0.83867056331134215 0.41933528165567108 0 0.27231952107544366 1 I I #
point $-1 -47.362453783154237 -1.7520180147408126 12.03784584464989 #
edge $-1 $781 1 $781 0 $460 $-1 forward 7 unknown #
vertex $-1 $461 $782 #
ellipse-curve $-1 -46.726867769354406 0 10.141090011379831 -0.54463904215088732 0 0.83867056331134215 0.41933528165567108 0 0.27231952107544366 1 I I #
point $-1 -47.362453783154237 0 12.03784584464989 #
edge $-1 $783 1 $783 0 $464 $-1 forward 7 unknown #
vertex $-1 $465 $784 #
ellipse-curve $-1 -46.726867769354406 1.7520180147408126 10.141090011379831 -0.54463904215088732 0 0.83867056331134215 0.41933528165567108 0 0.27231952107544366 1 I I #
point $-1 -47.362453783154237 1.7520180147408126 12.03784584464989 #
loop $-1 $-1 $475 $468 #
plane-surface $-1 -55.936765648365736 0 0 1 0 0 0 0 -1 forward_v I I I I #
coedge $-1 $785 $786 $472 $654 reversed $469 $-1 #
coedge $-1 $472 $471 $659 $787 reversed $195 $-1 #
edge $-1 $788 8.3777959833898778e-015 $656 19.447389571794034 $652 $789 forward 7 unknown #
coedge $-1 $478 $473 $786 $790 forward $310 $-1 #
vertex $-1 $790 $791 #
straight-curve $-1 -39.62681248125412 5.8256217526882175 17.061430137932984 0 1 0 I I #
coedge $-1 $792 $475 $478 $663 reversed $650 $-1 #
coedge $-1 $475 $792 $653 $787 forward $650 $-1 #
vertex $-1 $476 $793 #
straight-curve $-1 -55.936765648365736 8.7312134808084068 50.147330010737384 0 0 1 I I #
straight-curve $-1 -55.936765648365743 8.7312134808084068 6.4696225092159239 -0.83867056331134215 0 -0.54463904215088732 I I #
edge $-1 $794 -14.571273529944463 $479 -8.7312134808084068 $658 $795 forward 7 unknown #
point $-1 -55.936765648365736 8.7312134808084068 17.061430137932984 #
point $-1 -39.62681248125412 8.7312134808084068 17.061430137932984 #
edge $-1 $796 1 $796 0 $482 $-1 forward 7 unknown #
vertex $-1 $483 $797 #
ellipse-curve $-1 -46.726867769354406 9.8992254906356223 10.141090011379831 -0.54463904215088732 0 0.83867056331134215 0.41933528165567108 0 0.27231952107544366 1 I I #
point $-1 -47.362453783154237 9.8992254906356223 12.03784584464989 #
edge $-1 $798 1 $798 0 $486 $-1 forward 7 unknown #
vertex $-1 $487 $799 #
ellipse-curve $-1 -46.726867769354406 11.651243505376435 10.141090011379831 -0.54463904215088732 0 0.83867056331134215 0.41933528165567108 0 0.27231952107544366 1 I I #
point $-1 -47.362453783154237 11.651243505376435 12.03784584464989 #
edge $-1 $800 1 $800 0 $490 $-1 forward 7 unknown #
vertex $-1 $491 $801 #
ellipse-curve $-1 -46.726867769354406 13.403261520117248 10.141090011379831 -0.54463904215088732 0 0.83867056331134215 0.41933528165567108 0 0.27231952107544366 1 I I #
point $-1 -47.362453783154237 13.403261520117248 12.03784584464989 #
loop $-1 $-1 $502 $494 #
plane-surface $-1 0 14.571273529944463 14.630591593087861 0 1 0 0 0 1 forward_v I I I I #
coedge $-1 $685 $802 $498 $681 forward $495 $-1 #
edge $-1 $683 64.302417989289253 $691 75.982509160283584 $680 $803 forward 7 unknown #
coedge $-1 $505 $499 $802 $804 forward $339 $-1 #
vertex $-1 $804 $805 #
straight-curve $-1 36.237268147400243 6.2458629045825944 17.061430137932987 1 0 0 I I #
coedge $-1 $806 $680 $501 $686 forward $495 $-1 #
edge $-1 $691 1.04157879595083 $689 9.3669894213126987 $685 $807 forward 7 unknown #
coedge $-1 $688 $502 $505 $693 reversed $678 $-1 #
coedge $-1 $502 $687 $806 $808 reversed $678 $-1 #
vertex $-1 $808 $809 #
straight-curve $-1 7.3961212633801541 14.571273529944463 65.324044305995272 -0.62932038083071107 0 0.77714596973225614 I I #
vertex $-1 $686 $810 #
straight-curve $-1 -14.467527672169794 6.2458629045825944 92.323402933908952 -0.62932038083071107 0 0.77714596973225614 I I #
edge $-1 $811 -55.936765648365736 $506 -46.478414566135982 $505 $812 forward 7 unknown #
point $-1 46.478414566135982 14.571273529944463 17.061430137932987 #
point $-1 46.478414566135982 6.2458629045825944 17.061430137932987 #
edge $-1 $813 1 $813 0 $509 $-1 forward 7 unknown #
vertex $-1 $510 $814 #
ellipse-curve $-1 49.908769459420341 8.6245516546859875 10.169620358117099 0.77714596973225614 0 0.62932038083071107 0.31466019041535553 0 -0.38857298486612807 1 I I #
point $-1 51.522250297666211 8.6245516546859875 10.832811567569697 #
edge $-1 $815 1 $815 0 $513 $-1 forward 7 unknown #
vertex $-1 $514 $816 #
ellipse-curve $-1 49.908769459420341 12.19258477984107 10.169620358117099 0.77714596973225614 0 0.62932038083071107 0.31466019041535553 0 -0.38857298486612807 1 I I #
point $-1 51.522250297666211 12.19258477984107 10.832811567569697 #
plane-surface $-1 55.936765648365736 0 0 -1 0 0 0 0 1 forward_v I I I I #
coedge $-1 $522 $520 $524 $709 reversed $361 $-1 #
edge $-1 $535 -17.061430137932984 $711 17.061430137932984 $534 $817 forward 7 unknown #
vertex $-1 $709 $818 #
straight-curve $-1 -55.936765648365736 -35.016685018737519 0 0 0 -1 I I #
edge $-1 $707 -35.016685018737519 $711 35.016685018737519 $705 $819 forward 7 unknown #
straight-curve $-1 0 -35.016685018737519 -17.061430137932984 -1 0 0 I I #
vertex $-1 $527 $820 #
straight-curve $-1 0 35.016685018737519 -17.061430137932984 1 0 0 I I #
point $-1 55.936765648365736 35.016685018737519 -17.061430137932984 #
point $-1 55.936765648365736 -35.016685018737519 -17.061430137932984 #
straight-curve $-1 -55.936765648365736 0 17.061430137932984 0 -1 0 I I #
point $-1 -55.936765648365736 35.016685018737519 17.061430137932984 #
point $-1 -55.936765648365736 -35.016685018737519 17.061430137932984 #
straight-curve $-1 55.936765648365736 -35.016685018737519 0 0 0 -1 I I #
straight-curve $-1 55.936765648365736 35.016685018737519 0 0 0 -1 I I #
plane-surface $-1 55.936765648365736 0 0 -1 0 0 0 0 1 forward_v I I I I #
coedge $-1 $548 $547 $558 $732 reversed $236 $-1 #
coedge $-1 $821 $551 $548 $723 forward $545 $-1 #
edge $-1 $724 14.571273529944463 $822 35.016685018737519 $548 $823 forward 7 unknown #
vertex $-1 $723 $824 #
straight-curve $-1 -55.936765648365736 -14.571273529944463 7.3152957965439303 0 0 -1 I I #
coedge $-1 $551 $821 $553 $728 forward $545 $-1 #
straight-curve $-1 0 -14.571273529944463 17.061430137932984 -1 0 0 I I #
edge $-1 $735 -35.016685018737519 $554 -14.571273529944463 $553 $825 forward 7 unknown #
point $-1 55.936765648365736 -14.571273529944463 17.061430137932984 #
straight-curve $-1 -55.936765648365736 -12.396989637170496 12.199753048242737 0 -1 0 I I #
coedge $-1 $558 $557 $821 $826 reversed $380 $-1 #
edge $-1 $822 -17.061430137932984 $559 -12.199753048242737 $721 $827 forward 7 unknown #
point $-1 -55.936765648365736 -35.016685018737519 12.199753048242737 #
point $-1 -55.936765648365736 -14.571273529944463 12.199753048242737 #
vertex $-1 $728 $828 #
straight-curve $-1 55.936765648365736 -35.016685018737519 0 0 0 -1 I I #
plane-surface $-1 0 35.016685018737519 0 0 -1 0 0 0 -1 forward_v I I I I #
coedge $-1 $570 $569 $747 $829 forward $244 $-1 #
edge $-1 $741 14.571273529944463 $750 35.016685018737519 $585 $830 forward 7 unknown #
edge $-1 $831 -35.016685018737519 $576 -14.571273529944463 $573 $832 forward 7 unknown #
vertex $-1 $739 $833 #
straight-curve $-1 0 14.571273529944463 17.061430137932984 1 0 0 I I #
coedge $-1 $574 $573 $580 $748 forward $567 $-1 #
point $-1 -55.936765648365736 14.571273529944463 12.199753048242737 #
point $-1 -55.936765648365736 14.571273529944463 17.061430137932984 #
straight-curve $-1 -55.936765648365736 12.396989637170496 12.199753048242737 0 -1 0 I I #
coedge $-1 $581 $580 $738 $829 reversed $582 $-1 #
edge $-1 $831 -17.061430137932984 $583 -12.199753048242737 $580 $834 forward 7 unknown #
point $-1 -55.936765648365736 35.016685018737519 12.199753048242737 #
vertex $-1 $739 $835 #
straight-curve $-1 55.936765648365736 35.016685018737519 0 0 0 -1 I I #
straight-curve $-1 55.936765648365736 14.571273529944463 7.3152957965439303 0 0 -1 I I #
coedge $-1 $593 $592 $600 $758 forward $252 $-1 #
edge $-1 $596 8.7312134808084068 $761 14.571273529944463 $593 $836 forward 7 unknown #
straight-curve $-1 -55.936765648365736 -8.7312134808084068 50.147330010737384 0 0 -1 I I #
point $-1 -55.936765648365736 -8.7312134808084068 17.061430137932984 #
straight-curve $-1 -55.936765648365736 -5.8256217526882175 6.4696225092159239 0 -1 0 I I #
edge $-1 $601 -43.677707501521454 $761 -33.085899872804404 $753 $837 forward 7 unknown #
point $-1 -55.936765648365736 -14.571273529944463 6.4696225092159283 #
point $-1 -55.936765648365736 -8.7312134808084068 6.4696225092159283 #
vertex $-1 $758 $838 #
straight-curve $-1 0 -14.571273529944463 17.061430137932984 1 0 0 I I #
vertex $-1 $608 $839 #
point $-1 -46.307532487698737 -13.403261520117251 10.413409532455274 #
vertex $-1 $612 $840 #
point $-1 -46.307532487698737 -11.651243505376435 10.413409532455274 #
vertex $-1 $616 $841 #
point $-1 -46.307532487698737 -9.8992254906356187 10.413409532455274 #
coedge $-1 $631 $630 $623 $770 forward $620 $-1 #
edge $-1 $771 33.085899872804404 $774 43.677707501521454 $769 $842 forward 7 unknown #
vertex $-1 $635 $843 #
straight-curve $-1 -58.433729287927441 2.9200300245680282 17.061430137932987 -1 0 0 I I #
edge $-1 $774 -2.9200300245680282 $632 2.9200300245680282 $631 $844 forward 7 unknown #
vertex $-1 $773 $845 #
straight-curve $-1 -55.936765648365743 2.9200300245680282 6.4696225092159239 0.83867056331134215 0 0.54463904215088732 I I #
point $-1 -39.62681248125412 2.9200300245680282 17.061430137932984 #
point $-1 -55.936765648365736 -2.9200300245680282 6.4696225092159283 #
straight-curve $-1 -55.936765648365736 0 17.061430137932984 0 -1 0 I I #
vertex $-1 $638 $846 #
point $-1 -46.307532487698737 -1.7520180147408126 10.413409532455274 #
vertex $-1 $642 $847 #
point $-1 -46.307532487698737 0 10.413409532455274 #
vertex $-1 $646 $848 #
point $-1 -46.307532487698737 1.7520180147408126 10.413409532455274 #
coedge $-1 $786 $652 $792 $849 reversed $469 $-1 #
coedge $-1 $652 $785 $655 $790 reversed $469 $-1 #
edge $-1 $788 -8.7456517772562457 $660 -2.9055917281201893 $659 $850 forward 7 unknown #
vertex $-1 $849 $851 #
straight-curve $-1 -55.936765648365743 14.571273529944463 6.4696225092159239 0.83867056331134215 0 0.54463904215088732 I I #
edge $-1 $656 39.62681248125412 $794 55.936765648365736 $655 $852 forward 7 unknown #
point $-1 -39.62681248125412 14.571273529944463 17.061430137932984 #
coedge $-1 $659 $658 $785 $849 forward $650 $-1 #
point $-1 -55.936765648365736 8.7312134808084068 6.4696225092159283 #
vertex $-1 $663 $853 #
straight-curve $-1 -55.936765648365736 0 17.061430137932984 0 -1 0 I I #
vertex $-1 $666 $854 #
point $-1 -46.307532487698737 9.8992254906356223 10.413409532455274 #
vertex $-1 $670 $855 #
point $-1 -46.307532487698737 11.651243505376435 10.413409532455274 #
vertex $-1 $674 $856 #
point $-1 -46.307532487698737 13.403261520117248 10.413409532455274 #
coedge $-1 $680 $806 $682 $804 reversed $495 $-1 #
straight-curve $-1 55.936765648365736 6.2458629045825944 81.363848127222241 0 0 -1 I I #
edge $-1 $683 6.2458629045825944 $811 14.571273529944463 $802 $857 forward 7 unknown #
point $-1 55.936765648365736 6.2458629045825944 17.061430137932984 #
coedge $-1 $802 $685 $688 $808 forward $495 $-1 #
straight-curve $-1 55.936765648365729 5.2042841086317644 5.3813389669386567 0 1 0 I I #
edge $-1 $689 -75.982509160283584 $811 -64.302417989289253 $806 $858 forward 7 unknown #
point $-1 55.936765648365736 14.571273529944463 5.3813389669386567 #
point $-1 55.936765648365736 6.2458629045825944 5.3813389669386567 #
vertex $-1 $693 $859 #
straight-curve $-1 0 14.571273529944463 17.061430137932984 -1 0 0 I I #
vertex $-1 $696 $860 #
point $-1 50.223429649835694 8.6245516546859875 9.7810473732509706 #
vertex $-1 $700 $861 #
point $-1 50.223429649835694 12.19258477984107 9.7810473732509706 #
straight-curve $-1 -55.936765648365736 35.016685018737519 0 0 0 -1 I I #
point $-1 -55.936765648365736 -35.016685018737519 -17.061430137932984 #
straight-curve $-1 -55.936765648365736 0 -17.061430137932984 0 1 0 I I #
point $-1 -55.936765648365736 35.016685018737519 -17.061430137932984 #
coedge $-1 $726 $722 $731 $826 forward $545 $-1 #
vertex $-1 $723 $862 #
straight-curve $-1 -55.936765648365736 0 17.061430137932984 0 -1 0 I I #
point $-1 -55.936765648365736 -14.571273529944463 17.061430137932984 #
straight-curve $-1 55.936765648365736 0 17.061430137932984 0 1 0 I I #
edge $-1 $822 -55.936765648365736 $735 55.936765648365736 $731 $863 forward 7 unknown #
straight-curve $-1 -55.936765648365736 -35.016685018737519 0 0 0 -1 I I #
point $-1 55.936765648365736 -35.016685018737519 17.061430137932984 #
edge $-1 $750 -55.936765648365736 $831 55.936765648365736 $747 $864 forward 7 unknown #
straight-curve $-1 55.936765648365736 0 17.061430137932984 0 1 0 I I #
vertex $-1 $829 $865 #
straight-curve $-1 -55.936765648365736 0 17.061430137932984 0 -1 0 I I #
point $-1 55.936765648365736 14.571273529944463 17.061430137932984 #
straight-curve $-1 -55.936765648365736 35.016685018737519 0 0 0 -1 I I #
point $-1 55.936765648365736 35.016685018737519 17.061430137932984 #
straight-curve $-1 -55.936765648365736 0 17.061430137932984 0 -1 0 I I #
straight-curve $-1 -55.936765648365736 -14.571273529944463 50.147330010737384 0 0 1 I I #
point $-1 -55.936765648365736 -14.571273529944463 17.061430137932984 #
point $-1 -46.454548248278961 -13.403261520117251 9.7217547297241609 #
point $-1 -46.454548248278961 -11.651243505376435 9.7217547297241609 #
point $-1 -46.454548248278961 -9.8992254906356187 9.7217547297241609 #
straight-curve $-1 -55.936765648365736 2.9200300245680282 50.147330010737384 0 0 -1 I I #
point $-1 -55.936765648365736 2.9200300245680282 17.061430137932984 #
straight-curve $-1 -55.936765648365736 0 6.4696225092159239 0 -1 0 I I #
point $-1 -55.936765648365736 2.9200300245680282 6.4696225092159283 #
point $-1 -46.454548248278961 -1.7520180147408126 9.7217547297241609 #
point $-1 -46.454548248278961 0 9.7217547297241609 #
point $-1 -46.454548248278961 1.7520180147408126 9.7217547297241609 #
edge $-1 $794 33.085899872804404 $788 43.677707501521454 $792 $866 forward 7 unknown #
straight-curve $-1 -55.936765648365736 5.8256217526882175 6.4696225092159239 0 -1 0 I I #
point $-1 -55.936765648365736 14.571273529944463 6.4696225092159283 #
straight-curve $-1 0 14.571273529944463 17.061430137932984 -1 0 0 I I #
point $-1 -55.936765648365736 14.571273529944463 17.061430137932984 #
point $-1 -46.454548248278961 9.8992254906356223 9.7217547297241609 #
point $-1 -46.454548248278961 11.651243505376435 9.7217547297241609 #
point $-1 -46.454548248278961 13.403261520117248 9.7217547297241609 #
straight-curve $-1 55.936765648365736 0 17.061430137932984 0 1 0 I I #
straight-curve $-1 55.936765648365736 14.571273529944463 81.363848127222241 0 0 1 I I #
point $-1 55.936765648365736 14.571273529944463 17.061430137932984 #
point $-1 49.520196474554211 8.6245516546859875 9.8549601677017424 #
point $-1 49.520196474554211 12.19258477984107 9.8549601677017424 #
point $-1 -55.936765648365736 -35.016685018737519 17.061430137932984 #
straight-curve $-1 0 -35.016685018737519 17.061430137932984 1 0 0 I I #
straight-curve $-1 0 35.016685018737519 17.061430137932984 -1 0 0 I I #
point $-1 -55.936765648365736 35.016685018737519 17.061430137932984 #
straight-curve $-1 -55.936765648365736 14.571273529944463 50.147330010737384 0 0 -1 I I #
End-of-ACIS-data 