500 0 13 0           
7 Unknown 11 ACIS 5.0 NT 24 Thu Mar 25 20:16:32 1999 
-1 9.9999999999999995e-007 1e-010 
body $-1 $13 $-1 $14 #
body $-1 $15 $-1 $16 #
body $-1 $17 $-1 $18 #
body $-1 $19 $-1 $20 #
body $-1 $21 $-1 $22 #
body $-1 $23 $-1 $24 #
body $-1 $25 $-1 $26 #
body $-1 $27 $-1 $28 #
body $-1 $29 $-1 $30 #
body $-1 $31 $-1 $32 #
body $-1 $33 $-1 $34 #
body $-1 $35 $-1 $36 #
body $-1 $37 $-1 $38 #
lump $-1 $-1 $39 $0 #
transform $-1 1 0 0 0 1 0 0 0 1 68.333384197515784 41.340581732824312 11.829384087195471 1 rotate no_reflect no_shear #
lump $-1 $-1 $40 $1 #
transform $-1 1 0 0 0 1 0 0 0 1 68.333384197515784 41.340581732824312 11.829384087195471 1 rotate no_reflect no_shear #
lump $-1 $-1 $41 $2 #
transform $-1 1 0 0 0 1 0 0 0 1 68.333384197515784 41.340581732824312 11.829384087195471 1 rotate no_reflect no_shear #
lump $-1 $-1 $42 $3 #
transform $-1 1 0 0 0 1 0 0 0 1 68.333384197515784 41.340581732824312 11.829384087195471 1 rotate no_reflect no_shear #
lump $-1 $-1 $43 $4 #
transform $-1 1 0 0 0 1 0 0 0 1 68.333384197515784 41.340581732824312 11.829384087195471 1 rotate no_reflect no_shear #
lump $-1 $-1 $44 $5 #
transform $-1 1 0 0 0 1 0 0 0 1 68.333384197515784 41.340581732824312 11.829384087195471 1 rotate no_reflect no_shear #
lump $-1 $-1 $45 $6 #
transform $-1 1 0 0 0 1 0 0 0 1 68.333384197515784 41.340581732824312 11.829384087195471 1 rotate no_reflect no_shear #
lump $-1 $-1 $46 $7 #
transform $-1 1 0 0 0 1 0 0 0 1 68.333384197515784 41.340581732824312 11.829384087195471 1 rotate no_reflect no_shear #
lump $-1 $-1 $47 $8 #
transform $-1 1 0 0 0 1 0 0 0 1 68.333384197515784 41.340581732824312 11.829384087195471 1 rotate no_reflect no_shear #
lump $-1 $-1 $48 $9 #
transform $-1 1 0 0 0 1 0 0 0 1 68.333384197515784 41.340581732824312 11.829384087195471 1 rotate no_reflect no_shear #
lump $-1 $-1 $49 $10 #
transform $-1 1 0 0 0 1 0 0 0 1 68.333384197515784 41.340581732824312 11.829384087195471 1 rotate no_reflect no_shear #
lump $-1 $-1 $50 $11 #
transform $-1 1 0 0 0 1 0 0 0 1 68.333384197515784 41.340581732824312 11.829384087195471 1 rotate no_reflect no_shear #
lump $-1 $-1 $51 $12 #
transform $-1 1 0 0 0 1 0 0 0 1 68.333384197515784 41.340581732824312 11.829384087195471 1 rotate no_reflect no_shear #
shell $-1 $-1 $-1 $52 $-1 $13 #
shell $-1 $-1 $-1 $53 $-1 $15 #
shell $-1 $-1 $-1 $54 $-1 $17 #
shell $-1 $-1 $-1 $55 $-1 $19 #
shell $-1 $-1 $-1 $56 $-1 $21 #
shell $-1 $-1 $-1 $57 $-1 $23 #
shell $-1 $-1 $-1 $58 $-1 $25 #
shell $-1 $-1 $-1 $59 $-1 $27 #
shell $-1 $-1 $-1 $60 $-1 $29 #
shell $-1 $-1 $-1 $61 $-1 $31 #
shell $-1 $-1 $-1 $62 $-1 $33 #
shell $-1 $-1 $-1 $63 $-1 $35 #
shell $-1 $-1 $-1 $64 $-1 $37 #
face $-1 $65 $66 $39 $-1 $67 forward single #
face $-1 $68 $69 $40 $-1 $70 reversed single #
face $-1 $71 $72 $41 $-1 $73 reversed single #
face $-1 $74 $75 $42 $-1 $76 forward single #
face $-1 $77 $78 $43 $-1 $79 reversed single #
face $-1 $80 $81 $44 $-1 $82 forward single #
face $-1 $83 $84 $45 $-1 $85 reversed single #
face $-1 $86 $87 $46 $-1 $88 forward single #
face $-1 $89 $90 $47 $-1 $91 reversed single #
face $-1 $92 $93 $48 $-1 $94 forward single #
face $-1 $95 $96 $49 $-1 $97 reversed single #
face $-1 $98 $99 $50 $-1 $100 forward single #
face $-1 $101 $102 $51 $-1 $103 forward single #
face $-1 $104 $105 $39 $-1 $106 reversed single #
loop $-1 $-1 $107 $52 #
plane-surface $-1 0 0 11.829384087195471 0 0 1 1 0 0 forward_v I I I I #
face $-1 $108 $109 $40 $-1 $110 reversed single #
loop $-1 $-1 $111 $53 #
plane-surface $-1 0 -35.803305778776327 6.5109808004818177 0 0 1 1 0 0 forward_v I I I I #
face $-1 $112 $113 $41 $-1 $114 reversed single #
loop $-1 $-1 $115 $54 #
plane-surface $-1 -68.333384197515812 -24.806427247311014 0.97490498451104202 -0.69465837861970381 0 0.71933979245794832 0.71933979245794832 0 0.69465837861970381 forward_v I I I I #
face $-1 $116 $117 $42 $-1 $118 forward single #
loop $-1 $119 $120 $55 #
cone-surface $-1 -60.669957195435529 -24.806427247311014 4.2861874480496915 0.69465837861970381 0 -0.71933979245794832 1.4386795849158966 0 1.3893167572394076 1 I I 0 1 2 forward I I I I #
face $-1 $121 $122 $43 $-1 $123 reversed single #
loop $-1 $-1 $124 $56 #
plane-surface $-1 -163.27009994200301 -12.364376935340188 99.284749797691546 0 1 0 -0.69465837861970381 0 0.71933979245794832 forward_v I I I I #
face $-1 $125 $126 $44 $-1 $127 forward single #
loop $-1 $128 $129 $57 #
cone-surface $-1 -60.669957195435529 -6.9047743579228538 4.2861874480496915 0.69465837861970381 0 -0.71933979245794832 1.4386795849158966 0 1.3893167572394076 1 I I 0 1 2 forward I I I I #
face $-1 $130 $131 $45 $-1 $132 reversed single #
loop $-1 $-1 $133 $58 #
plane-surface $-1 -163.27009994200301 5.5372759540479723 99.284749797691546 0 1 0 -0.69465837861970381 0 0.71933979245794832 forward_v I I I I #
face $-1 $134 $135 $46 $-1 $136 forward single #
loop $-1 $137 $138 $59 #
cone-surface $-1 -60.669957195435529 10.996878531465306 4.2861874480496915 0.69465837861970381 0 -0.71933979245794832 1.4386795849158966 0 1.3893167572394076 1 I I 0 1 2 forward I I I I #
face $-1 $139 $140 $47 $-1 $141 reversed single #
loop $-1 $-1 $142 $60 #
plane-surface $-1 -163.27009994200301 23.43892884343613 99.284749797691546 0 1 0 -0.69465837861970381 0 0.71933979245794832 forward_v I I I I #
face $-1 $143 $144 $48 $-1 $145 forward single #
loop $-1 $146 $147 $61 #
cone-surface $-1 -60.669957195435529 28.898531420853466 4.2861874480496915 0.69465837861970381 0 -0.71933979245794832 1.4386795849158966 0 1.3893167572394076 1 I I 0 1 2 forward I I I I #
face $-1 $148 $149 $49 $-1 $150 reversed single #
loop $-1 $-1 $151 $62 #
plane-surface $-1 21.575690033962815 -4.5788107395132105 187.68280797635424 0 -1 0 -0.51503808176128008 0 -0.85716729658548041 forward_v I I I I #
face $-1 $152 $153 $50 $-1 $154 forward single #
loop $-1 $155 $156 $63 #
cone-surface $-1 56.700980968419699 -16.863314580415498 2.8068825904358237 -0.51503808176128008 0 -0.85716729658548041 1.7143345931709608 0 -1.0300761635225602 1 I I 0 1 2 forward I I I I #
face $-1 $157 $158 $51 $-1 $159 forward single #
loop $-1 $160 $161 $64 #
cone-surface $-1 56.700980968419699 -9.4926122758741229 2.8068825904358237 -0.51503808176128008 0 -0.85716729658548041 1.7143345931709608 0 -1.0300761635225602 1 I I 0 1 2 forward I I I I #
face $-1 $162 $163 $39 $-1 $164 reversed single #
loop $-1 $-1 $165 $65 #
plane-surface $-1 0 0 -11.829384087195471 0 0 1 1 0 0 forward_v I I I I #
coedge $-1 $166 $167 $168 $169 forward $66 $-1 #
face $-1 $170 $171 $40 $-1 $172 reversed single #
loop $-1 $-1 $173 $68 #
plane-surface $-1 0 -30.266029824728342 9.1701824438386446 0 -1 0 0 0 -1 forward_v I I I I #
coedge $-1 $174 $175 $176 $177 reversed $69 $-1 #
face $-1 $178 $179 $41 $-1 $180 forward single #
loop $-1 $-1 $181 $71 #
plane-surface $-1 -163.27009994200301 -19.346824669893678 99.284749797691546 0 -1 0 0.69465837861970381 0 -0.71933979245794832 forward_v I I I I #
coedge $-1 $182 $183 $184 $185 reversed $72 $-1 #
face $-1 $-1 $186 $42 $-1 $187 forward single #
loop $-1 $188 $189 $74 #
cone-surface $-1 -57.931942762759604 -24.806427247311014 1.4508905677881803 0.69465837861970381 0 -0.71933979245794832 0.71933979245794832 0 0.69465837861970381 1 I I -0.70710678118654746 0.70710678118654746 1 forward I I I I #
loop $-1 $-1 $190 $55 #
coedge $-1 $120 $120 $191 $192 reversed $75 $-1 #
face $-1 $193 $194 $43 $-1 $195 reversed single #
loop $-1 $-1 $196 $77 #
plane-surface $-1 -68.333384197515812 -6.9047743579228538 0.97490498451104202 -0.69465837861970381 0 0.71933979245794832 0.71933979245794832 0 0.69465837861970381 forward_v I I I I #
coedge $-1 $197 $198 $199 $200 reversed $78 $-1 #
face $-1 $-1 $201 $44 $-1 $202 forward single #
loop $-1 $203 $204 $80 #
cone-surface $-1 -57.931942762759604 -6.9047743579228538 1.4508905677881803 0.69465837861970381 0 -0.71933979245794832 0.71933979245794832 0 0.69465837861970381 1 I I -0.70710678118654746 0.70710678118654746 1 forward I I I I #
loop $-1 $-1 $205 $57 #
coedge $-1 $129 $129 $206 $207 reversed $81 $-1 #
face $-1 $208 $209 $45 $-1 $210 reversed single #
loop $-1 $-1 $211 $83 #
plane-surface $-1 -68.333384197515812 10.996878531465306 0.97490498451104202 -0.69465837861970381 0 0.71933979245794832 0.71933979245794832 0 0.69465837861970381 forward_v I I I I #
coedge $-1 $212 $213 $214 $215 reversed $84 $-1 #
face $-1 $-1 $216 $46 $-1 $217 forward single #
loop $-1 $218 $219 $86 #
cone-surface $-1 -57.931942762759604 10.996878531465306 1.4508905677881803 0.69465837861970381 0 -0.71933979245794832 0.71933979245794832 0 0.69465837861970381 1 I I -0.70710678118654746 0.70710678118654746 1 forward I I I I #
loop $-1 $-1 $220 $59 #
coedge $-1 $138 $138 $221 $222 reversed $87 $-1 #
face $-1 $223 $224 $47 $-1 $225 reversed single #
loop $-1 $-1 $226 $89 #
plane-surface $-1 -68.333384197515812 28.898531420853466 0.97490498451104202 -0.69465837861970381 0 0.71933979245794832 0.71933979245794832 0 0.69465837861970381 forward_v I I I I #
coedge $-1 $227 $228 $229 $230 reversed $90 $-1 #
face $-1 $-1 $231 $48 $-1 $232 forward single #
loop $-1 $233 $234 $92 #
cone-surface $-1 -57.931942762759604 28.898531420853466 1.4508905677881803 0.69465837861970381 0 -0.71933979245794832 0.71933979245794832 0 0.69465837861970381 1 I I -0.70710678118654746 0.70710678118654746 1 forward I I I I #
loop $-1 $-1 $235 $61 #
coedge $-1 $147 $147 $236 $237 reversed $93 $-1 #
face $-1 $238 $239 $49 $-1 $240 reversed single #
loop $-1 $-1 $241 $95 #
plane-surface $-1 -48.812900200727384 -13.177963428144814 70.536523578111058 0.51503808176128008 0 0.85716729658548041 0.85716729658548041 0 -0.51503808176128008 forward_v I I I I #
coedge $-1 $242 $243 $244 $245 reversed $96 $-1 #
face $-1 $-1 $246 $50 $-1 $247 forward single #
loop $-1 $248 $249 $98 #
cone-surface $-1 54.27413888004736 -16.863314580415498 -1.2320608310219967 -0.51503808176128008 0 -0.85716729658548041 0.85716729658548041 0 -0.51503808176128008 1 I I -0.70710678118654768 0.70710678118654735 1 forward I I I I #
loop $-1 $-1 $250 $63 #
coedge $-1 $156 $156 $251 $252 reversed $99 $-1 #
face $-1 $-1 $253 $51 $-1 $254 forward single #
loop $-1 $255 $256 $101 #
cone-surface $-1 54.27413888004736 -9.4926122758741229 -1.2320608310219967 -0.51503808176128008 0 -0.85716729658548041 0.85716729658548041 0 -0.51503808176128008 1 I I -0.70710678118654768 0.70710678118654735 1 forward I I I I #
loop $-1 $-1 $257 $64 #
coedge $-1 $161 $161 $258 $259 reversed $102 $-1 #
face $-1 $260 $261 $39 $-1 $262 reversed single #
loop $-1 $-1 $263 $104 #
plane-surface $-1 0 -41.340581732824312 0 0 1 0 0 0 1 forward_v I I I I #
coedge $-1 $264 $265 $266 $267 forward $105 $-1 #
coedge $-1 $268 $107 $269 $270 forward $66 $-1 #
coedge $-1 $107 $268 $271 $272 forward $66 $-1 #
coedge $-1 $273 $274 $107 $169 reversed $275 $-1 #
edge $-1 $276 -41.340581732824312 $277 41.340581732824312 $168 $278 forward 7 unknown #
face $-1 $279 $280 $40 $-1 $281 reversed single #
loop $-1 $-1 $282 $108 #
plane-surface $-1 -68.333384197515784 0 0 1 0 0 0 0 -1 forward_v I I I I #
coedge $-1 $283 $284 $285 $286 reversed $109 $-1 #
coedge $-1 $287 $111 $288 $289 reversed $69 $-1 #
coedge $-1 $111 $287 $283 $290 forward $69 $-1 #
coedge $-1 $285 $291 $111 $177 forward $292 $-1 #
edge $-1 $293 -23.438928843436148 $294 -12.364376935340179 $176 $295 forward 7 unknown #
face $-1 $296 $297 $41 $-1 $298 reversed single #
loop $-1 $-1 $184 $112 #
plane-surface $-1 0 0 11.829384087195471 0 0 1 1 0 0 forward_v I I I I #
coedge $-1 $299 $300 $301 $302 reversed $113 $-1 #
coedge $-1 $303 $115 $304 $305 reversed $72 $-1 #
coedge $-1 $115 $303 $299 $306 forward $72 $-1 #
coedge $-1 $301 $307 $115 $185 forward $179 $-1 #
edge $-1 $308 -17.862816201072835 $309 -6.9436110462381713 $184 $310 forward 7 unknown #
loop $-1 $-1 $191 $116 #
plane-surface $-1 -68.333384197515812 -24.806427247311014 0.97490498451104202 -0.69465837861970381 0 0.71933979245794832 0.71933979245794832 0 0.69465837861970381 forward_v I I I I #
loop $-1 $-1 $311 $74 #
coedge $-1 $189 $189 $190 $312 reversed $117 $-1 #
coedge $-1 $190 $190 $189 $312 forward $119 $-1 #
coedge $-1 $191 $191 $120 $192 forward $186 $-1 #
edge $-1 $313 0 $313 6.2831853071796004 $191 $314 forward 7 unknown #
face $-1 $315 $316 $43 $-1 $317 forward single #
loop $-1 $-1 $318 $121 #
plane-surface $-1 -163.27009994200301 -1.44517178050552 99.284749797691546 0 -1 0 0.69465837861970381 0 -0.71933979245794832 forward_v I I I I #
coedge $-1 $319 $320 $321 $322 reversed $122 $-1 #
coedge $-1 $198 $124 $323 $324 reversed $78 $-1 #
coedge $-1 $124 $197 $319 $325 reversed $78 $-1 #
coedge $-1 $321 $326 $124 $200 forward $316 $-1 #
edge $-1 $327 13.301665773485723 $328 24.541807669533767 $199 $329 forward 7 unknown #
loop $-1 $-1 $206 $125 #
plane-surface $-1 -68.333384197515812 -6.9047743579228538 0.97490498451104202 -0.69465837861970381 0 0.71933979245794832 0.71933979245794832 0 0.69465837861970381 forward_v I I I I #
loop $-1 $-1 $330 $80 #
coedge $-1 $204 $204 $205 $331 reversed $126 $-1 #
coedge $-1 $205 $205 $204 $331 forward $128 $-1 #
coedge $-1 $206 $206 $129 $207 forward $201 $-1 #
edge $-1 $332 0 $332 6.2831853071796004 $206 $333 forward 7 unknown #
face $-1 $334 $335 $45 $-1 $336 forward single #
loop $-1 $-1 $337 $130 #
plane-surface $-1 -163.27009994200301 16.456481108882642 99.284749797691546 0 -1 0 0.69465837861970381 0 -0.71933979245794832 forward_v I I I I #
coedge $-1 $338 $339 $340 $341 reversed $131 $-1 #
coedge $-1 $213 $133 $342 $343 reversed $84 $-1 #
coedge $-1 $133 $212 $338 $344 reversed $84 $-1 #
coedge $-1 $340 $345 $133 $215 forward $335 $-1 #
edge $-1 $346 13.301665773485723 $347 24.541807669533767 $214 $348 forward 7 unknown #
loop $-1 $-1 $221 $134 #
plane-surface $-1 -68.333384197515812 10.996878531465306 0.97490498451104202 -0.69465837861970381 0 0.71933979245794832 0.71933979245794832 0 0.69465837861970381 forward_v I I I I #
loop $-1 $-1 $349 $86 #
coedge $-1 $219 $219 $220 $350 reversed $135 $-1 #
coedge $-1 $220 $220 $219 $350 forward $137 $-1 #
coedge $-1 $221 $221 $138 $222 forward $216 $-1 #
edge $-1 $351 0 $351 6.2831853071796004 $221 $352 forward 7 unknown #
face $-1 $353 $354 $47 $-1 $355 forward single #
loop $-1 $-1 $356 $139 #
plane-surface $-1 -163.27009994200301 34.358133998270802 99.284749797691546 0 -1 0 0.69465837861970381 0 -0.71933979245794832 forward_v I I I I #
coedge $-1 $357 $358 $359 $360 reversed $140 $-1 #
coedge $-1 $228 $142 $361 $362 reversed $90 $-1 #
coedge $-1 $142 $227 $357 $363 reversed $90 $-1 #
coedge $-1 $359 $364 $142 $230 forward $354 $-1 #
edge $-1 $365 13.301665773485723 $366 24.541807669533767 $229 $367 forward 7 unknown #
loop $-1 $-1 $236 $143 #
plane-surface $-1 -68.333384197515812 28.898531420853466 0.97490498451104202 -0.69465837861970381 0 0.71933979245794832 0.71933979245794832 0 0.69465837861970381 forward_v I I I I #
loop $-1 $-1 $368 $92 #
coedge $-1 $234 $234 $235 $369 reversed $144 $-1 #
coedge $-1 $235 $235 $234 $369 forward $146 $-1 #
coedge $-1 $236 $236 $147 $237 forward $231 $-1 #
edge $-1 $370 0 $370 6.2831853071796004 $236 $371 forward 7 unknown #
face $-1 $372 $373 $49 $-1 $374 reversed single #
loop $-1 $-1 $375 $148 #
plane-surface $-1 21.575690033962815 -21.777116116776419 187.68280797635424 0 1 0 0.51503808176128008 0 0.85716729658548041 forward_v I I I I #
coedge $-1 $376 $377 $378 $379 reversed $149 $-1 #
coedge $-1 $243 $151 $380 $381 reversed $96 $-1 #
coedge $-1 $151 $242 $376 $382 reversed $96 $-1 #
coedge $-1 $378 $383 $151 $245 forward $384 $-1 #
edge $-1 $385 -57.545539180534377 $386 -38.104340735564392 $244 $387 forward 7 unknown #
loop $-1 $-1 $251 $152 #
plane-surface $-1 -48.812900200727384 -13.177963428144814 70.536523578111058 0.51503808176128008 0 0.85716729658548041 0.85716729658548041 0 -0.51503808176128008 forward_v I I I I #
loop $-1 $-1 $388 $98 #
coedge $-1 $249 $249 $250 $389 reversed $153 $-1 #
coedge $-1 $250 $250 $249 $389 forward $155 $-1 #
coedge $-1 $251 $251 $156 $252 forward $246 $-1 #
edge $-1 $390 0 $390 6.2831853071796004 $251 $391 forward 7 unknown #
loop $-1 $-1 $258 $157 #
plane-surface $-1 -48.812900200727384 -13.177963428144814 70.536523578111058 0.51503808176128008 0 0.85716729658548041 0.85716729658548041 0 -0.51503808176128008 forward_v I I I I #
loop $-1 $-1 $392 $101 #
coedge $-1 $256 $256 $257 $393 reversed $158 $-1 #
coedge $-1 $257 $257 $256 $393 forward $160 $-1 #
coedge $-1 $258 $258 $161 $259 forward $253 $-1 #
edge $-1 $394 0 $394 6.2831853071796004 $258 $395 forward 7 unknown #
face $-1 $396 $397 $39 $-1 $398 reversed single #
loop $-1 $-1 $399 $162 #
plane-surface $-1 -68.333384197515784 0 0 1 0 0 0 0 -1 forward_v I I I I #
coedge $-1 $400 $271 $401 $402 forward $163 $-1 #
coedge $-1 $403 $165 $400 $404 forward $105 $-1 #
coedge $-1 $165 $403 $405 $406 forward $105 $-1 #
coedge $-1 $274 $273 $165 $267 reversed $275 $-1 #
edge $-1 $407 -41.340581732824312 $408 41.340581732824312 $266 $409 forward 7 unknown #
coedge $-1 $167 $166 $410 $411 forward $66 $-1 #
coedge $-1 $412 $413 $166 $270 reversed $397 $-1 #
edge $-1 $277 -68.333384197515784 $414 68.333384197515784 $269 $415 forward 7 unknown #
coedge $-1 $263 $416 $167 $272 reversed $163 $-1 #
edge $-1 $417 -68.333384197515784 $276 68.333384197515784 $271 $418 forward 7 unknown #
coedge $-1 $266 $168 $416 $419 forward $275 $-1 #
coedge $-1 $168 $266 $412 $420 reversed $275 $-1 #
loop $-1 $-1 $273 $396 #
vertex $-1 $169 $421 #
vertex $-1 $169 $422 #
straight-curve $-1 68.333384197515784 0 11.829384087195471 0 1 0 I I #
face $-1 $423 $424 $40 $-1 $425 forward single #
loop $-1 $-1 $288 $170 #
plane-surface $-1 0 -41.340581732824312 0 0 1 0 0 0 1 forward_v I I I I #
coedge $-1 $426 $427 $428 $429 forward $171 $-1 #
coedge $-1 $428 $173 $175 $290 reversed $109 $-1 #
coedge $-1 $173 $428 $430 $431 reversed $109 $-1 #
coedge $-1 $432 $176 $173 $286 forward $292 $-1 #
edge $-1 $294 1.9258895785624954 $433 7.2442928652761491 $285 $434 forward 7 unknown #
coedge $-1 $175 $174 $426 $435 reversed $69 $-1 #
coedge $-1 $436 $437 $174 $289 forward $280 $-1 #
edge $-1 $438 -68.333384197515784 $293 68.333384197515784 $288 $439 forward 7 unknown #
edge $-1 $440 -68.333384197515784 $294 68.333384197515784 $283 $441 forward 7 unknown #
coedge $-1 $176 $432 $436 $442 forward $292 $-1 #
loop $-1 $-1 $285 $423 #
vertex $-1 $289 $443 #
vertex $-1 $177 $444 #
straight-curve $-1 68.333384197515784 -17.901652889388163 6.5109808004818177 0 1 0 I I #
face $-1 $-1 $445 $41 $-1 $446 forward single #
loop $-1 $-1 $447 $178 #
plane-surface $-1 -68.333384197515784 0 0 1 0 0 0 0 -1 forward_v I I I I #
coedge $-1 $300 $181 $183 $306 reversed $113 $-1 #
coedge $-1 $181 $299 $447 $448 reversed $113 $-1 #
coedge $-1 $449 $184 $181 $302 forward $179 $-1 #
edge $-1 $309 -24.541807669533767 $450 -13.301665773485723 $301 $451 forward 7 unknown #
coedge $-1 $183 $182 $452 $453 reversed $72 $-1 #
coedge $-1 $454 $455 $182 $305 forward $445 $-1 #
edge $-1 $456 -27.423920279412656 $308 -11.798284086479363 $304 $457 forward 7 unknown #
edge $-1 $458 3.9494141999918586e-014 $309 15.625636192933332 $299 $459 forward 7 unknown #
coedge $-1 $184 $449 $454 $460 forward $179 $-1 #
vertex $-1 $305 $461 #
vertex $-1 $185 $462 #
straight-curve $-1 -57.09324230146774 -12.403213623655507 11.829384087195471 0 1 0 I I #
coedge $-1 $311 $311 $-1 $463 reversed $188 $-1 #
edge $-1 $464 0 $464 6.2831853071796004 $189 $465 forward 7 unknown #
vertex $-1 $192 $466 #
ellipse-curve $-1 -62.713313249491762 -24.806427247311014 6.40214453585327 -0.69465837861970381 0 0.71933979245794832 1.4386795849158966 0 1.3893167572394076 1 I I #
face $-1 $-1 $467 $43 $-1 $468 reversed single #
loop $-1 $-1 $199 $193 #
plane-surface $-1 0 0 11.829384087195471 0 0 1 1 0 0 forward_v I I I I #
coedge $-1 $469 $470 $471 $472 reversed $194 $-1 #
coedge $-1 $473 $196 $198 $325 forward $122 $-1 #
coedge $-1 $196 $473 $469 $474 forward $122 $-1 #
coedge $-1 $471 $199 $196 $322 forward $316 $-1 #
edge $-1 $328 -8.9119897563787607 $475 2.0072153984559069 $321 $476 forward 7 unknown #
coedge $-1 $477 $478 $197 $324 forward $467 $-1 #
edge $-1 $479 -48.667469914334703 $327 -37.812990811650302 $323 $480 forward 7 unknown #
edge $-1 $328 -15.625636192933332 $479 -3.9494141999918586e-014 $198 $481 forward 7 unknown #
coedge $-1 $199 $471 $477 $482 forward $316 $-1 #
vertex $-1 $200 $483 #
vertex $-1 $200 $484 #
straight-curve $-1 -81.635049971001507 -12.364376935340188 11.829384087195471 1 0 0 I I #
coedge $-1 $330 $330 $-1 $485 reversed $203 $-1 #
edge $-1 $486 0 $486 6.2831853071796004 $204 $487 forward 7 unknown #
vertex $-1 $207 $488 #
ellipse-curve $-1 -62.713313249491762 -6.9047743579228538 6.40214453585327 -0.69465837861970381 0 0.71933979245794832 1.4386795849158966 0 1.3893167572394076 1 I I #
face $-1 $-1 $489 $45 $-1 $490 reversed single #
loop $-1 $-1 $214 $208 #
plane-surface $-1 0 0 11.829384087195471 0 0 1 1 0 0 forward_v I I I I #
coedge $-1 $491 $492 $493 $494 reversed $209 $-1 #
coedge $-1 $495 $211 $213 $344 forward $131 $-1 #
coedge $-1 $211 $495 $491 $496 forward $131 $-1 #
coedge $-1 $493 $214 $211 $341 forward $335 $-1 #
edge $-1 $347 0.038836688315319279 $497 10.958041843149989 $340 $498 forward 7 unknown #
coedge $-1 $499 $500 $212 $343 forward $489 $-1 #
edge $-1 $501 -48.667469914334703 $346 -37.812990811650302 $342 $502 forward 7 unknown #
edge $-1 $347 -15.625636192933332 $501 -3.9494141999918586e-014 $213 $503 forward 7 unknown #
coedge $-1 $214 $493 $499 $504 forward $335 $-1 #
vertex $-1 $215 $505 #
vertex $-1 $215 $506 #
straight-curve $-1 -81.635049971001507 5.5372759540479723 11.829384087195471 1 0 0 I I #
coedge $-1 $349 $349 $-1 $507 reversed $218 $-1 #
edge $-1 $508 0 $508 6.2831853071796004 $219 $509 forward 7 unknown #
vertex $-1 $222 $510 #
ellipse-curve $-1 -62.713313249491762 10.996878531465306 6.40214453585327 -0.69465837861970381 0 0.71933979245794832 1.4386795849158966 0 1.3893167572394076 1 I I #
face $-1 $-1 $511 $47 $-1 $512 reversed single #
loop $-1 $-1 $229 $223 #
plane-surface $-1 0 0 11.829384087195471 0 0 1 1 0 0 forward_v I I I I #
coedge $-1 $513 $514 $515 $516 reversed $224 $-1 #
coedge $-1 $517 $226 $228 $363 forward $140 $-1 #
coedge $-1 $226 $517 $513 $518 forward $140 $-1 #
coedge $-1 $515 $229 $226 $360 forward $354 $-1 #
edge $-1 $366 8.9896631330093975 $519 19.908868287844069 $359 $520 forward 7 unknown #
coedge $-1 $521 $522 $227 $362 forward $511 $-1 #
edge $-1 $523 -48.667469914334703 $365 -37.812990811650302 $361 $524 forward 7 unknown #
edge $-1 $366 -15.625636192933332 $523 -3.9494141999918586e-014 $228 $525 forward 7 unknown #
coedge $-1 $229 $515 $521 $526 forward $354 $-1 #
vertex $-1 $230 $527 #
vertex $-1 $230 $528 #
straight-curve $-1 -81.635049971001507 23.43892884343613 11.829384087195471 1 0 0 I I #
coedge $-1 $368 $368 $-1 $529 reversed $233 $-1 #
edge $-1 $530 0 $530 6.2831853071796004 $234 $531 forward 7 unknown #
vertex $-1 $237 $532 #
ellipse-curve $-1 -62.713313249491762 28.898531420853466 6.40214453585327 -0.69465837861970381 0 0.71933979245794832 1.4386795849158966 0 1.3893167572394076 1 I I #
face $-1 $-1 $384 $49 $-1 $533 forward single #
loop $-1 $-1 $534 $238 #
plane-surface $-1 68.333384197515784 0 0 -1 0 0 0 0 1 forward_v I I I I #
coedge $-1 $535 $536 $537 $538 reversed $239 $-1 #
coedge $-1 $539 $241 $243 $382 forward $149 $-1 #
coedge $-1 $241 $539 $535 $540 forward $149 $-1 #
coedge $-1 $537 $244 $241 $379 forward $384 $-1 #
edge $-1 $386 -2.0101709745591965 $541 15.188134402704012 $378 $542 forward 7 unknown #
coedge $-1 $543 $544 $242 $381 forward $373 $-1 #
edge $-1 $545 -93.693470644756246 $385 -82.012019900981642 $380 $546 forward 7 unknown #
edge $-1 $386 113.98601689831223 $545 136.66676839503154 $243 $547 forward 7 unknown #
coedge $-1 $244 $537 $543 $548 forward $384 $-1 #
loop $-1 $-1 $537 $372 #
vertex $-1 $381 $549 #
vertex $-1 $245 $550 #
straight-curve $-1 10.787845016981407 -4.5788107395132105 11.829384087195479 -1 0 0 I I #
coedge $-1 $388 $388 $-1 $551 reversed $248 $-1 #
edge $-1 $552 0 $552 6.2831853071796004 $249 $553 forward 7 unknown #
vertex $-1 $252 $554 #
ellipse-curve $-1 58.61278497503077 -16.863314580415498 5.9886587153081896 0.51503808176128008 0 0.85716729658548041 1.7143345931709608 0 -1.0300761635225602 1 I I #
coedge $-1 $392 $392 $-1 $555 reversed $255 $-1 #
edge $-1 $556 0 $556 6.2831853071796004 $256 $557 forward 7 unknown #
vertex $-1 $259 $558 #
ellipse-curve $-1 58.61278497503077 -9.4926122758741229 5.9886587153081896 0.51503808176128008 0 0.85716729658548041 1.7143345931709608 0 -1.0300761635225602 1 I I #
face $-1 $-1 $275 $39 $-1 $559 reversed single #
loop $-1 $-1 $412 $260 #
plane-surface $-1 0 41.340581732824312 0 0 -1 0 0 0 -1 forward_v I I I I #
coedge $-1 $560 $410 $413 $561 forward $261 $-1 #
coedge $-1 $416 $263 $264 $404 reversed $163 $-1 #
coedge $-1 $410 $560 $263 $402 reversed $261 $-1 #
edge $-1 $417 -11.829384087195471 $562 11.829384087195471 $401 $563 forward 7 unknown #
coedge $-1 $265 $264 $560 $564 forward $105 $-1 #
edge $-1 $408 -68.333384197515784 $562 68.333384197515784 $400 $565 forward 7 unknown #
coedge $-1 $413 $412 $265 $406 reversed $397 $-1 #
edge $-1 $566 -68.333384197515784 $407 68.333384197515784 $405 $567 forward 7 unknown #
vertex $-1 $267 $568 #
vertex $-1 $419 $569 #
straight-curve $-1 68.333384197515784 0 -11.829384087195471 0 -1 0 I I #
coedge $-1 $399 $401 $268 $411 reversed $261 $-1 #
edge $-1 $414 -41.340581732824312 $417 41.340581732824312 $410 $570 forward 7 unknown #
coedge $-1 $405 $269 $274 $420 forward $397 $-1 #
coedge $-1 $269 $405 $399 $561 reversed $397 $-1 #
vertex $-1 $270 $571 #
straight-curve $-1 0 41.340581732824312 11.829384087195471 -1 0 0 I I #
coedge $-1 $271 $400 $273 $419 reversed $163 $-1 #
vertex $-1 $411 $572 #
straight-curve $-1 0 -41.340581732824312 11.829384087195471 1 0 0 I I #
edge $-1 $276 -11.829384087195471 $408 11.829384087195471 $273 $573 forward 7 unknown #
edge $-1 $277 -11.829384087195471 $407 11.829384087195471 $274 $574 forward 7 unknown #
point $-1 68.333384197515784 -41.340581732824312 11.829384087195471 #
point $-1 68.333384197515784 41.340581732824312 11.829384087195471 #
face $-1 $-1 $292 $40 $-1 $575 reversed single #
loop $-1 $-1 $430 $279 #
plane-surface $-1 0 0 11.829384087195471 0 0 1 1 0 0 forward_v I I I I #
coedge $-1 $576 $282 $287 $435 forward $171 $-1 #
coedge $-1 $282 $576 $577 $578 reversed $171 $-1 #
coedge $-1 $284 $283 $282 $429 reversed $109 $-1 #
edge $-1 $579 -7.2442928652761491 $440 -1.9258895785624954 $282 $580 forward 7 unknown #
coedge $-1 $577 $581 $284 $431 forward $424 $-1 #
edge $-1 $433 -68.333384197515784 $579 68.333384197515784 $430 $582 forward 7 unknown #
coedge $-1 $291 $285 $581 $583 reversed $292 $-1 #
vertex $-1 $286 $584 #
straight-curve $-1 68.333384197515784 -30.266029824728342 4.5850912219193223 0 0 1 I I #
edge $-1 $440 12.364376935340179 $438 23.438928843436148 $426 $585 forward 7 unknown #
coedge $-1 $586 $288 $291 $442 reversed $280 $-1 #
coedge $-1 $288 $586 $576 $587 forward $280 $-1 #
vertex $-1 $289 $588 #
straight-curve $-1 0 -41.340581732824312 6.5109808004818177 1 0 0 I I #
vertex $-1 $435 $589 #
straight-curve $-1 0 -30.266029824728342 6.5109808004818177 1 0 0 I I #
edge $-1 $590 -11.829384087195471 $293 -6.5109808004818177 $291 $591 forward 7 unknown #
point $-1 68.333384197515784 -41.340581732824312 6.5109808004818177 #
point $-1 68.333384197515784 -30.266029824728342 6.5109808004818177 #
loop $-1 $-1 $304 $296 #
plane-surface $-1 0 -30.266029824728342 9.1701824438386446 0 -1 0 0 0 -1 forward_v I I I I #
coedge $-1 $452 $592 $300 $448 forward $297 $-1 #
edge $-1 $450 37.812990811650302 $458 48.667469914334703 $447 $593 forward 7 unknown #
coedge $-1 $307 $301 $592 $594 forward $179 $-1 #
vertex $-1 $594 $595 #
straight-curve $-1 -81.635049971001507 -19.346824669893678 11.829384087195471 -1 0 0 I I #
coedge $-1 $596 $447 $303 $453 forward $297 $-1 #
edge $-1 $458 6.9436110462381713 $456 17.862816201072842 $452 $597 forward 7 unknown #
coedge $-1 $455 $304 $307 $460 reversed $445 $-1 #
coedge $-1 $304 $454 $596 $598 reversed $445 $-1 #
vertex $-1 $598 $599 #
straight-curve $-1 -48.606267075339758 -30.266029824728342 20.025160981203879 0.71933979245794832 0 0.69465837861970381 I I #
vertex $-1 $453 $600 #
straight-curve $-1 -68.333384197515812 -19.346824669893678 0.97490498451104202 0.71933979245794832 0 0.69465837861970381 I I #
edge $-1 $601 -68.333384197515784 $308 -57.09324230146774 $307 $602 forward 7 unknown #
point $-1 -57.09324230146774 -30.266029824728342 11.829384087195471 #
point $-1 -57.09324230146774 -19.346824669893678 11.829384087195471 #
edge $-1 $603 1 $603 0 $311 $-1 forward 7 unknown #
vertex $-1 $312 $604 #
ellipse-curve $-1 -58.626601141379311 -24.806427247311014 2.1702303602461286 -0.69465837861970381 0 0.71933979245794832 1.4386795849158966 0 1.3893167572394076 1 I I #
point $-1 -61.274633664575852 -24.806427247311014 7.7914612930926612 #
loop $-1 $-1 $323 $315 #
plane-surface $-1 -68.333384197515784 0 0 1 0 0 0 0 -1 forward_v I I I I #
coedge $-1 $470 $318 $320 $474 reversed $194 $-1 #
coedge $-1 $318 $469 $605 $606 reversed $194 $-1 #
coedge $-1 $326 $321 $318 $472 forward $316 $-1 #
edge $-1 $475 -24.541807669533767 $607 -13.301665773485723 $471 $608 forward 7 unknown #
coedge $-1 $320 $319 $478 $609 reversed $122 $-1 #
edge $-1 $610 3.9494141999918586e-014 $475 15.625636192933332 $469 $611 forward 7 unknown #
vertex $-1 $322 $612 #
straight-curve $-1 -57.09324230146774 -3.4523871789614269 11.829384087195471 0 1 0 I I #
coedge $-1 $605 $323 $326 $482 reversed $467 $-1 #
coedge $-1 $323 $605 $473 $609 forward $467 $-1 #
vertex $-1 $324 $613 #
straight-curve $-1 -68.333384197515784 -12.364376935340188 49.642374898845773 0 0 1 I I #
straight-curve $-1 -68.333384197515812 -12.364376935340188 0.97490498451104202 -0.71933979245794832 0 -0.69465837861970381 I I #
edge $-1 $607 1.44517178050552 $327 12.364376935340188 $477 $614 forward 7 unknown #
point $-1 -68.333384197515784 -12.364376935340188 11.829384087195471 #
point $-1 -57.09324230146774 -12.364376935340188 11.829384087195471 #
edge $-1 $615 1 $615 0 $330 $-1 forward 7 unknown #
vertex $-1 $331 $616 #
ellipse-curve $-1 -58.626601141379311 -6.9047743579228538 2.1702303602461286 -0.69465837861970381 0 0.71933979245794832 1.4386795849158966 0 1.3893167572394076 1 I I #
point $-1 -61.274633664575852 -6.9047743579228538 7.7914612930926612 #
loop $-1 $-1 $342 $334 #
plane-surface $-1 -68.333384197515784 0 0 1 0 0 0 0 -1 forward_v I I I I #
coedge $-1 $492 $337 $339 $496 reversed $209 $-1 #
coedge $-1 $337 $491 $617 $618 reversed $209 $-1 #
coedge $-1 $345 $340 $337 $494 forward $335 $-1 #
edge $-1 $497 -24.541807669533767 $619 -13.301665773485723 $493 $620 forward 7 unknown #
coedge $-1 $339 $338 $500 $621 reversed $131 $-1 #
edge $-1 $622 3.9494141999918586e-014 $497 15.625636192933332 $491 $623 forward 7 unknown #
vertex $-1 $341 $624 #
straight-curve $-1 -57.09324230146774 5.4984392657326531 11.829384087195471 0 1 0 I I #
coedge $-1 $617 $342 $345 $504 reversed $489 $-1 #
coedge $-1 $342 $617 $495 $621 forward $489 $-1 #
vertex $-1 $343 $625 #
straight-curve $-1 -68.333384197515784 5.5372759540479723 49.642374898845773 0 0 1 I I #
straight-curve $-1 -68.333384197515812 5.5372759540479723 0.97490498451104202 -0.71933979245794832 0 -0.69465837861970381 I I #
edge $-1 $619 -16.456481108882642 $346 -5.5372759540479723 $499 $626 forward 7 unknown #
point $-1 -68.333384197515784 5.5372759540479723 11.829384087195471 #
point $-1 -57.09324230146774 5.5372759540479723 11.829384087195471 #
edge $-1 $627 1 $627 0 $349 $-1 forward 7 unknown #
vertex $-1 $350 $628 #
ellipse-curve $-1 -58.626601141379311 10.996878531465306 2.1702303602461286 -0.69465837861970381 0 0.71933979245794832 1.4386795849158966 0 1.3893167572394076 1 I I #
point $-1 -61.274633664575852 10.996878531465306 7.7914612930926612 #
loop $-1 $-1 $361 $353 #
plane-surface $-1 -68.333384197515784 0 0 1 0 0 0 0 -1 forward_v I I I I #
coedge $-1 $514 $356 $358 $518 reversed $224 $-1 #
coedge $-1 $356 $513 $629 $630 reversed $224 $-1 #
coedge $-1 $364 $359 $356 $516 forward $354 $-1 #
edge $-1 $519 -24.541807669533767 $631 -13.301665773485723 $515 $632 forward 7 unknown #
coedge $-1 $358 $357 $522 $633 reversed $140 $-1 #
edge $-1 $634 3.9494141999918586e-014 $519 15.625636192933332 $513 $635 forward 7 unknown #
vertex $-1 $360 $636 #
straight-curve $-1 -57.09324230146774 14.449265710426733 11.829384087195471 0 1 0 I I #
coedge $-1 $629 $361 $364 $526 reversed $511 $-1 #
coedge $-1 $361 $629 $517 $633 forward $511 $-1 #
vertex $-1 $362 $637 #
straight-curve $-1 -68.333384197515784 23.43892884343613 49.642374898845773 0 0 1 I I #
straight-curve $-1 -68.333384197515812 23.43892884343613 0.97490498451104202 -0.71933979245794832 0 -0.69465837861970381 I I #
edge $-1 $631 -34.358133998270802 $365 -23.43892884343613 $521 $638 forward 7 unknown #
point $-1 -68.333384197515784 23.43892884343613 11.829384087195471 #
point $-1 -57.09324230146774 23.43892884343613 11.829384087195471 #
edge $-1 $639 1 $639 0 $368 $-1 forward 7 unknown #
vertex $-1 $369 $640 #
ellipse-curve $-1 -58.626601141379311 28.898531420853466 2.1702303602461286 -0.69465837861970381 0 0.71933979245794832 1.4386795849158966 0 1.3893167572394076 1 I I #
point $-1 -61.274633664575852 28.898531420853466 7.7914612930926612 #
plane-surface $-1 0 0 11.829384087195471 0 0 1 1 0 0 forward_v I I I I #
coedge $-1 $544 $543 $536 $641 forward $373 $-1 #
coedge $-1 $536 $375 $377 $540 reversed $239 $-1 #
coedge $-1 $375 $535 $534 $641 reversed $239 $-1 #
coedge $-1 $383 $378 $375 $538 forward $384 $-1 #
edge $-1 $541 38.104340735564392 $642 57.545539180534377 $537 $643 forward 7 unknown #
coedge $-1 $377 $376 $544 $644 reversed $149 $-1 #
edge $-1 $645 -136.66676839503154 $541 -113.98601689831223 $535 $646 forward 7 unknown #
vertex $-1 $379 $647 #
straight-curve $-1 48.892185752545807 -6.588981714072407 11.829384087195464 0 -1 0 I I #
coedge $-1 $534 $380 $383 $548 reversed $373 $-1 #
coedge $-1 $380 $534 $539 $644 forward $373 $-1 #
vertex $-1 $381 $648 #
straight-curve $-1 68.333384197515784 -4.5788107395132105 93.84140398817712 0 0 1 I I #
straight-curve $-1 -48.812900200727384 -4.5788107395132105 70.536523578111058 0.85716729658548041 0 -0.51503808176128008 I I #
edge $-1 $642 -21.777116116776419 $385 -4.5788107395132105 $543 $649 forward 7 unknown #
point $-1 68.333384197515784 -4.5788107395132105 11.829384087195471 #
point $-1 48.892185752545799 -4.5788107395132105 11.829384087195471 #
edge $-1 $650 1 $650 0 $388 $-1 forward 7 unknown #
vertex $-1 $389 $651 #
ellipse-curve $-1 54.789176961808643 -16.863314580415498 -0.37489353443651663 0.51503808176128008 0 0.85716729658548041 1.7143345931709608 0 -1.0300761635225602 1 I I #
point $-1 60.327119568201709 -16.863314580415498 4.9585825517856037 #
edge $-1 $652 1 $652 0 $392 $-1 forward 7 unknown #
vertex $-1 $393 $653 #
ellipse-curve $-1 54.789176961808643 -9.4926122758741229 -0.37489353443651663 0.51503808176128008 0 0.85716729658548041 1.7143345931709608 0 -1.0300761635225602 1 I I #
point $-1 60.327119568201709 -9.4926122758741229 4.9585825517856037 #
plane-surface $-1 68.333384197515784 0 0 -1 0 0 0 0 1 forward_v I I I I #
coedge $-1 $401 $399 $403 $564 reversed $261 $-1 #
edge $-1 $414 -11.829384087195471 $566 11.829384087195471 $413 $654 forward 7 unknown #
vertex $-1 $564 $655 #
straight-curve $-1 -68.333384197515784 -41.340581732824312 0 0 0 -1 I I #
edge $-1 $562 -41.340581732824312 $566 41.340581732824312 $560 $656 forward 7 unknown #
straight-curve $-1 0 -41.340581732824312 -11.829384087195471 -1 0 0 I I #
vertex $-1 $406 $657 #
straight-curve $-1 0 41.340581732824312 -11.829384087195471 1 0 0 I I #
point $-1 68.333384197515784 41.340581732824312 -11.829384087195471 #
point $-1 68.333384197515784 -41.340581732824312 -11.829384087195471 #
straight-curve $-1 -68.333384197515784 0 11.829384087195471 0 -1 0 I I #
point $-1 -68.333384197515784 41.340581732824312 11.829384087195471 #
point $-1 -68.333384197515784 -41.340581732824312 11.829384087195471 #
straight-curve $-1 68.333384197515784 -41.340581732824312 0 0 0 -1 I I #
straight-curve $-1 68.333384197515784 41.340581732824312 0 0 0 -1 I I #
plane-surface $-1 68.333384197515784 0 0 -1 0 0 0 0 1 forward_v I I I I #
coedge $-1 $427 $426 $437 $587 reversed $171 $-1 #
coedge $-1 $658 $430 $427 $578 forward $424 $-1 #
edge $-1 $579 30.266029824728342 $659 41.340581732824312 $427 $660 forward 7 unknown #
vertex $-1 $578 $661 #
straight-curve $-1 -68.333384197515784 -30.266029824728342 4.5850912219193223 0 0 -1 I I #
coedge $-1 $430 $658 $432 $583 forward $424 $-1 #
straight-curve $-1 0 -30.266029824728342 11.829384087195471 -1 0 0 I I #
edge $-1 $590 -41.340581732824312 $433 -30.266029824728342 $432 $662 forward 7 unknown #
point $-1 68.333384197515784 -30.266029824728342 11.829384087195471 #
straight-curve $-1 -68.333384197515784 -17.901652889388163 6.5109808004818177 0 -1 0 I I #
coedge $-1 $437 $436 $658 $663 reversed $280 $-1 #
edge $-1 $659 -11.829384087195471 $438 -6.5109808004818177 $576 $664 forward 7 unknown #
point $-1 -68.333384197515784 -41.340581732824312 6.5109808004818177 #
point $-1 -68.333384197515784 -30.266029824728342 6.5109808004818177 #
vertex $-1 $583 $665 #
straight-curve $-1 68.333384197515784 -41.340581732824312 0 0 0 -1 I I #
coedge $-1 $447 $596 $449 $594 reversed $297 $-1 #
straight-curve $-1 -68.333384197515784 -19.346824669893678 49.642374898845773 0 0 -1 I I #
edge $-1 $450 19.346824669893678 $601 30.266029824728342 $592 $666 forward 7 unknown #
point $-1 -68.333384197515784 -19.346824669893678 11.829384087195471 #
coedge $-1 $592 $452 $455 $598 forward $297 $-1 #
straight-curve $-1 -68.333384197515784 -12.403213623655507 0.97490498451106877 0 -1 0 I I #
edge $-1 $456 -48.667469914334703 $601 -37.812990811650302 $596 $667 forward 7 unknown #
point $-1 -68.333384197515784 -30.266029824728349 0.97490498451106944 #
point $-1 -68.333384197515784 -19.346824669893678 0.97490498451106944 #
vertex $-1 $598 $668 #
straight-curve $-1 0 -30.266029824728342 11.829384087195471 1 0 0 I I #
vertex $-1 $463 $669 #
point $-1 -57.187921556463408 -24.806427247311014 3.5595471174855362 #
coedge $-1 $478 $477 $470 $606 forward $467 $-1 #
edge $-1 $607 37.812990811650302 $610 48.667469914334703 $605 $670 forward 7 unknown #
vertex $-1 $482 $671 #
straight-curve $-1 -81.635049971001507 -1.44517178050552 11.829384087195471 -1 0 0 I I #
edge $-1 $610 -2.0072153984559069 $479 8.9119897563787607 $478 $672 forward 7 unknown #
vertex $-1 $609 $673 #
straight-curve $-1 -68.333384197515812 -1.44517178050552 0.97490498451104202 0.71933979245794832 0 0.69465837861970381 I I #
point $-1 -57.09324230146774 -1.44517178050552 11.829384087195471 #
point $-1 -68.333384197515784 -12.364376935340188 0.97490498451106944 #
straight-curve $-1 -68.333384197515784 0 11.829384087195471 0 -1 0 I I #
vertex $-1 $485 $674 #
point $-1 -57.187921556463408 -6.9047743579228538 3.5595471174855362 #
coedge $-1 $500 $499 $492 $618 forward $489 $-1 #
edge $-1 $619 37.812990811650302 $622 48.667469914334703 $617 $675 forward 7 unknown #
vertex $-1 $504 $676 #
straight-curve $-1 -81.635049971001507 16.456481108882642 11.829384087195471 -1 0 0 I I #
edge $-1 $622 -10.958041843149989 $501 -0.038836688315319279 $500 $677 forward 7 unknown #
vertex $-1 $621 $678 #
straight-curve $-1 -68.333384197515812 16.456481108882642 0.97490498451104202 0.71933979245794832 0 0.69465837861970381 I I #
point $-1 -57.09324230146774 16.456481108882642 11.829384087195471 #
point $-1 -68.333384197515784 5.5372759540479723 0.97490498451106944 #
straight-curve $-1 -68.333384197515784 0 11.829384087195471 0 -1 0 I I #
vertex $-1 $507 $679 #
point $-1 -57.187921556463408 10.996878531465306 3.5595471174855362 #
coedge $-1 $522 $521 $514 $630 forward $511 $-1 #
edge $-1 $631 37.812990811650302 $634 48.667469914334703 $629 $680 forward 7 unknown #
vertex $-1 $526 $681 #
straight-curve $-1 -81.635049971001507 34.358133998270802 11.829384087195471 -1 0 0 I I #
edge $-1 $634 -19.908868287844069 $523 -8.9896631330093975 $522 $682 forward 7 unknown #
vertex $-1 $633 $683 #
straight-curve $-1 -68.333384197515812 34.358133998270802 0.97490498451104202 0.71933979245794832 0 0.69465837861970381 I I #
point $-1 -57.09324230146774 34.358133998270802 11.829384087195471 #
point $-1 -68.333384197515784 23.43892884343613 0.97490498451106944 #
straight-curve $-1 -68.333384197515784 0 11.829384087195471 0 -1 0 I I #
vertex $-1 $529 $684 #
point $-1 -57.187921556463408 28.898531420853466 3.5595471174855362 #
edge $-1 $642 82.012019900981642 $645 93.693470644756246 $534 $685 forward 7 unknown #
vertex $-1 $548 $686 #
straight-curve $-1 10.787845016981407 -21.777116116776419 11.829384087195479 1 0 0 I I #
edge $-1 $645 -15.188134402704012 $545 2.0101709745591965 $544 $687 forward 7 unknown #
vertex $-1 $644 $688 #
straight-curve $-1 -48.812900200727384 -21.777116116776419 70.536523578111058 -0.85716729658548041 0 0.51503808176128008 I I #
point $-1 48.892185752545799 -21.777116116776419 11.829384087195471 #
point $-1 68.33338419751577 -4.5788107395132105 0.14793334342087405 #
straight-curve $-1 68.333384197515784 0 11.829384087195471 0 1 0 I I #
vertex $-1 $551 $689 #
point $-1 56.503511554979603 -16.863314580415498 -1.4049696979590767 #
vertex $-1 $555 $690 #
point $-1 56.503511554979603 -9.4926122758741229 -1.4049696979590767 #
straight-curve $-1 -68.333384197515784 41.340581732824312 0 0 0 -1 I I #
point $-1 -68.333384197515784 -41.340581732824312 -11.829384087195471 #
straight-curve $-1 -68.333384197515784 0 -11.829384087195471 0 1 0 I I #
point $-1 -68.333384197515784 41.340581732824312 -11.829384087195471 #
coedge $-1 $581 $577 $586 $663 forward $424 $-1 #
vertex $-1 $578 $691 #
straight-curve $-1 -68.333384197515784 0 11.829384087195471 0 -1 0 I I #
point $-1 -68.333384197515784 -30.266029824728342 11.829384087195471 #
straight-curve $-1 68.333384197515784 0 11.829384087195471 0 1 0 I I #
edge $-1 $659 -68.333384197515784 $590 68.333384197515784 $586 $692 forward 7 unknown #
straight-curve $-1 -68.333384197515784 -41.340581732824312 0 0 0 -1 I I #
point $-1 68.333384197515784 -41.340581732824312 11.829384087195471 #
straight-curve $-1 -68.333384197515784 0 11.829384087195471 0 -1 0 I I #
straight-curve $-1 -68.333384197515784 -30.266029824728349 49.642374898845773 0 0 1 I I #
point $-1 -68.333384197515784 -30.266029824728342 11.829384087195471 #
point $-1 -57.237284384139897 -24.806427247311014 0.73155077533023194 #
straight-curve $-1 -68.333384197515784 -1.44517178050552 49.642374898845773 0 0 -1 I I #
point $-1 -68.333384197515784 -1.44517178050552 11.829384087195471 #
straight-curve $-1 -68.333384197515784 -3.4523871789614269 0.97490498451106877 0 -1 0 I I #
point $-1 -68.333384197515784 -1.44517178050552 0.97490498451106944 #
point $-1 -57.237284384139897 -6.9047743579228538 0.73155077533023194 #
straight-curve $-1 -68.333384197515784 16.456481108882642 49.642374898845773 0 0 -1 I I #
point $-1 -68.333384197515784 16.456481108882642 11.829384087195471 #
straight-curve $-1 -68.333384197515784 5.4984392657326531 0.97490498451106877 0 -1 0 I I #
point $-1 -68.333384197515784 16.456481108882642 0.97490498451106944 #
point $-1 -57.237284384139897 10.996878531465306 0.73155077533023194 #
straight-curve $-1 -68.333384197515784 34.358133998270802 49.642374898845773 0 0 -1 I I #
point $-1 -68.333384197515784 34.358133998270802 11.829384087195471 #
straight-curve $-1 -68.333384197515784 14.449265710426733 0.97490498451106877 0 -1 0 I I #
point $-1 -68.333384197515784 34.358133998270802 0.97490498451106944 #
point $-1 -57.237284384139897 28.898531420853466 0.73155077533023194 #
straight-curve $-1 68.333384197515784 -21.777116116776419 93.84140398817712 0 0 -1 I I #
point $-1 68.333384197515784 -21.777116116776419 11.829384087195471 #
straight-curve $-1 68.333384197515784 -6.588981714072407 0.14793334342087405 0 1 0 I I #
point $-1 68.33338419751577 -21.777116116776419 0.14793334342087405 #
point $-1 53.759100798286077 -16.863314580415498 -2.0892281276074769 #
point $-1 53.759100798286077 -9.4926122758741229 -2.0892281276074769 #
point $-1 -68.333384197515784 -41.340581732824312 11.829384087195471 #
straight-curve $-1 0 -41.340581732824312 11.829384087195471 1 0 0 I I #
End-of-ACIS-data 