500 0 13 0           
7 Unknown 11 ACIS 5.0 NT 24 Thu Mar 25 20:37:14 1999 
-1 9.9999999999999995e-007 1e-010 
body $-1 $13 $-1 $14 #
body $-1 $15 $-1 $16 #
body $-1 $17 $-1 $18 #
body $-1 $19 $-1 $20 #
body $-1 $21 $-1 $22 #
body $-1 $23 $-1 $24 #
body $-1 $25 $-1 $26 #
body $-1 $27 $-1 $28 #
body $-1 $29 $-1 $30 #
body $-1 $31 $-1 $32 #
body $-1 $33 $-1 $34 #
body $-1 $35 $-1 $36 #
body $-1 $37 $-1 $38 #
lump $-1 $-1 $39 $0 #
transform $-1 1 0 0 0 1 0 0 0 1 53.630787072359382 35.299064871125225 16.892639128929336 1 rotate no_reflect no_shear #
lump $-1 $-1 $40 $1 #
transform $-1 1 0 0 0 1 0 0 0 1 53.630787072359382 35.299064871125225 16.892639128929336 1 rotate no_reflect no_shear #
lump $-1 $-1 $41 $2 #
transform $-1 1 0 0 0 1 0 0 0 1 53.630787072359382 35.299064871125225 16.892639128929336 1 rotate no_reflect no_shear #
lump $-1 $-1 $42 $3 #
transform $-1 1 0 0 0 1 0 0 0 1 53.630787072359382 35.299064871125225 16.892639128929336 1 rotate no_reflect no_shear #
lump $-1 $-1 $43 $4 #
transform $-1 1 0 0 0 1 0 0 0 1 53.630787072359382 35.299064871125225 16.892639128929336 1 rotate no_reflect no_shear #
lump $-1 $-1 $44 $5 #
transform $-1 1 0 0 0 1 0 0 0 1 53.630787072359382 35.299064871125225 16.892639128929336 1 rotate no_reflect no_shear #
lump $-1 $-1 $45 $6 #
transform $-1 1 0 0 0 1 0 0 0 1 53.630787072359382 35.299064871125225 16.892639128929336 1 rotate no_reflect no_shear #
lump $-1 $-1 $46 $7 #
transform $-1 1 0 0 0 1 0 0 0 1 53.630787072359382 35.299064871125225 16.892639128929336 1 rotate no_reflect no_shear #
lump $-1 $-1 $47 $8 #
transform $-1 1 0 0 0 1 0 0 0 1 53.630787072359382 35.299064871125225 16.892639128929336 1 rotate no_reflect no_shear #
lump $-1 $-1 $48 $9 #
transform $-1 1 0 0 0 1 0 0 0 1 53.630787072359382 35.299064871125225 16.892639128929336 1 rotate no_reflect no_shear #
lump $-1 $-1 $49 $10 #
transform $-1 1 0 0 0 1 0 0 0 1 53.630787072359382 35.299064871125225 16.892639128929336 1 rotate no_reflect no_shear #
lump $-1 $-1 $50 $11 #
transform $-1 1 0 0 0 1 0 0 0 1 53.630787072359382 35.299064871125225 16.892639128929336 1 rotate no_reflect no_shear #
lump $-1 $-1 $51 $12 #
transform $-1 1 0 0 0 1 0 0 0 1 53.630787072359382 35.299064871125225 16.892639128929336 1 rotate no_reflect no_shear #
shell $-1 $-1 $-1 $52 $-1 $13 #
shell $-1 $-1 $-1 $53 $-1 $15 #
shell $-1 $-1 $-1 $54 $-1 $17 #
shell $-1 $-1 $-1 $55 $-1 $19 #
shell $-1 $-1 $-1 $56 $-1 $21 #
shell $-1 $-1 $-1 $57 $-1 $23 #
shell $-1 $-1 $-1 $58 $-1 $25 #
shell $-1 $-1 $-1 $59 $-1 $27 #
shell $-1 $-1 $-1 $60 $-1 $29 #
shell $-1 $-1 $-1 $61 $-1 $31 #
shell $-1 $-1 $-1 $62 $-1 $33 #
shell $-1 $-1 $-1 $63 $-1 $35 #
shell $-1 $-1 $-1 $64 $-1 $37 #
face $-1 $65 $66 $39 $-1 $67 forward single #
face $-1 $68 $69 $40 $-1 $70 forward single #
face $-1 $71 $72 $41 $-1 $73 reversed single #
face $-1 $74 $75 $42 $-1 $76 forward single #
face $-1 $77 $78 $43 $-1 $79 forward single #
face $-1 $80 $81 $44 $-1 $82 forward single #
face $-1 $83 $84 $45 $-1 $85 reversed single #
face $-1 $86 $87 $46 $-1 $88 forward single #
face $-1 $89 $90 $47 $-1 $91 forward single #
face $-1 $92 $93 $48 $-1 $94 forward single #
face $-1 $95 $96 $49 $-1 $97 reversed single #
face $-1 $98 $99 $50 $-1 $100 forward single #
face $-1 $101 $102 $51 $-1 $103 forward single #
face $-1 $104 $105 $39 $-1 $106 reversed single #
loop $-1 $-1 $107 $52 #
plane-surface $-1 0 0 16.892639128929336 0 0 1 1 0 0 forward_v I I I I #
face $-1 $108 $109 $40 $-1 $110 forward single #
loop $-1 $-1 $111 $53 #
plane-surface $-1 -53.630787072359382 0 0 1 0 0 0 0 -1 forward_v I I I I #
face $-1 $112 $113 $41 $-1 $114 reversed single #
loop $-1 $-1 $115 $54 #
plane-surface $-1 -13.172727024649003 84.744968489433077 125.45452004447843 1 0 0 0 -0.82903758062907751 -0.55919289150049634 forward_v I I I I #
face $-1 $116 $117 $42 $-1 $118 forward single #
loop $-1 $119 $120 $55 #
cone-surface $-1 -10.852665717535821 31.371405171624101 11.532779022310702 0 -0.82903758062907751 -0.55919289150049634 0.5 0 0 1 I I 0 1 0.5 forward I I I I #
face $-1 $121 $122 $43 $-1 $123 forward single #
loop $-1 $124 $125 $56 #
cone-surface $-1 -7.3725737568660534 31.371405171624101 11.532779022310702 0 -0.82903758062907751 -0.55919289150049634 0.5 0 0 1 I I 0 1 0.5 forward I I I I #
face $-1 $126 $127 $44 $-1 $128 forward single #
loop $-1 $129 $130 $57 #
cone-surface $-1 -3.8924817961962859 31.371405171624101 11.532779022310702 0 -0.82903758062907751 -0.55919289150049634 0.5 0 0 1 I I 0 1 0.5 forward I I I I #
face $-1 $131 $132 $45 $-1 $133 reversed single #
loop $-1 $-1 $134 $58 #
plane-surface $-1 34.163168897005718 84.744968489433077 125.45452004447843 1 0 0 0 -0.82903758062907751 -0.55919289150049634 forward_v I I I I #
face $-1 $135 $136 $46 $-1 $137 forward single #
loop $-1 $138 $139 $59 #
cone-surface $-1 36.483230204118897 31.371405171624101 11.532779022310702 0 -0.82903758062907751 -0.55919289150049634 0.5 0 0 1 I I 0 1 0.5 forward I I I I #
face $-1 $140 $141 $47 $-1 $142 forward single #
loop $-1 $143 $144 $60 #
cone-surface $-1 39.963322164788664 31.371405171624101 11.532779022310702 0 -0.82903758062907751 -0.55919289150049634 0.5 0 0 1 I I 0 1 0.5 forward I I I I #
face $-1 $145 $146 $48 $-1 $147 forward single #
loop $-1 $148 $149 $61 #
cone-surface $-1 43.443414125458432 31.371405171624101 11.532779022310702 0 -0.82903758062907751 -0.55919289150049634 0.5 0 0 1 I I 0 1 0.5 forward I I I I #
face $-1 $150 $151 $49 $-1 $152 reversed single #
loop $-1 $-1 $153 $62 #
plane-surface $-1 37.232229421009535 -116.25040335696551 72.216367551069098 -1 0 0 0 -0.75470958851134928 0.65605901945558964 forward_v I I I I #
face $-1 $154 $155 $50 $-1 $156 forward single #
loop $-1 $157 $158 $63 #
cone-surface $-1 25.337426578269614 -27.069669630212605 7.9007369981856792 0 0.75470958851134928 -0.65605901945558964 1.5 0 0 1 I I 0 1 1.5 forward I I I I #
face $-1 $159 $160 $51 $-1 $161 forward single #
loop $-1 $162 $163 $64 #
cone-surface $-1 32.474308283913572 -27.069669630212605 7.9007369981856792 0 0.75470958851134928 -0.65605901945558964 1.5 0 0 1 I I 0 1 1.5 forward I I I I #
face $-1 $164 $165 $39 $-1 $166 reversed single #
loop $-1 $-1 $167 $65 #
plane-surface $-1 0 0 -16.892639128929336 0 0 1 1 0 0 forward_v I I I I #
coedge $-1 $168 $169 $170 $171 forward $66 $-1 #
face $-1 $172 $173 $40 $-1 $174 reversed single #
loop $-1 $-1 $175 $68 #
plane-surface $-1 0 0 16.892639128929336 0 0 1 1 0 0 forward_v I I I I #
coedge $-1 $176 $177 $178 $179 forward $69 $-1 #
face $-1 $180 $181 $41 $-1 $182 reversed single #
loop $-1 $-1 $183 $71 #
plane-surface $-1 -7.3725737568660605 -4.1789074339709771 65.474610251598264 0 0.82903758062907751 0.55919289150049634 1 0 0 forward_v I I I I #
coedge $-1 $184 $185 $186 $187 reversed $72 $-1 #
face $-1 $-1 $188 $42 $-1 $189 forward single #
loop $-1 $190 $191 $74 #
cone-surface $-1 -10.852665717535821 30.590996096197486 11.006386470709007 0 -0.82903758062907751 -0.55919289150049634 0.25 0 0 1 I I -0.70710678118654746 0.70710678118654746 0.25 forward I I I I #
loop $-1 $-1 $192 $55 #
coedge $-1 $120 $120 $193 $194 reversed $75 $-1 #
face $-1 $-1 $195 $43 $-1 $196 forward single #
loop $-1 $197 $198 $77 #
cone-surface $-1 -7.3725737568660534 30.590996096197486 11.006386470709007 0 -0.82903758062907751 -0.55919289150049634 0.25 0 0 1 I I -0.70710678118654746 0.70710678118654746 0.25 forward I I I I #
loop $-1 $-1 $199 $56 #
coedge $-1 $125 $125 $200 $201 reversed $78 $-1 #
face $-1 $-1 $202 $44 $-1 $203 forward single #
loop $-1 $204 $205 $80 #
cone-surface $-1 -3.8924817961962859 30.590996096197486 11.006386470709007 0 -0.82903758062907751 -0.55919289150049634 0.25 0 0 1 I I -0.70710678118654746 0.70710678118654746 0.25 forward I I I I #
loop $-1 $-1 $206 $57 #
coedge $-1 $130 $130 $207 $208 reversed $81 $-1 #
face $-1 $209 $210 $45 $-1 $211 reversed single #
loop $-1 $-1 $212 $83 #
plane-surface $-1 39.963322164788664 -4.1789074339709771 65.474610251598264 0 0.82903758062907751 0.55919289150049634 1 0 0 forward_v I I I I #
coedge $-1 $213 $214 $215 $216 reversed $84 $-1 #
face $-1 $-1 $217 $46 $-1 $218 forward single #
loop $-1 $219 $220 $86 #
cone-surface $-1 36.483230204118897 30.590996096197486 11.006386470709007 0 -0.82903758062907751 -0.55919289150049634 0.25 0 0 1 I I -0.70710678118654746 0.70710678118654746 0.25 forward I I I I #
loop $-1 $-1 $221 $59 #
coedge $-1 $139 $139 $222 $223 reversed $87 $-1 #
face $-1 $-1 $224 $47 $-1 $225 forward single #
loop $-1 $226 $227 $89 #
cone-surface $-1 39.963322164788664 30.590996096197486 11.006386470709007 0 -0.82903758062907751 -0.55919289150049634 0.25 0 0 1 I I -0.70710678118654746 0.70710678118654746 0.25 forward I I I I #
loop $-1 $-1 $228 $60 #
coedge $-1 $144 $144 $229 $230 reversed $90 $-1 #
face $-1 $-1 $231 $48 $-1 $232 forward single #
loop $-1 $233 $234 $92 #
cone-surface $-1 43.443414125458432 30.590996096197486 11.006386470709007 0 -0.82903758062907751 -0.55919289150049634 0.25 0 0 1 I I -0.70710678118654746 0.70710678118654746 0.25 forward I I I I #
loop $-1 $-1 $235 $61 #
coedge $-1 $149 $149 $236 $237 reversed $93 $-1 #
face $-1 $238 $239 $49 $-1 $240 reversed single #
loop $-1 $-1 $241 $95 #
plane-surface $-1 28.905867431091593 -35.299064871125225 1.8464443924218727 0 -0.75470958851134928 0.65605901945558964 1 0 0 forward_v I I I I #
coedge $-1 $242 $243 $244 $245 reversed $96 $-1 #
face $-1 $-1 $246 $50 $-1 $247 forward single #
loop $-1 $248 $249 $98 #
cone-surface $-1 25.337426578269614 -24.813970800571227 5.9398879711040671 0 0.75470958851134928 -0.65605901945558964 0.75 0 0 1 I I -0.70710678118654757 0.70710678118654757 0.75 forward I I I I #
loop $-1 $-1 $250 $63 #
coedge $-1 $158 $158 $251 $252 reversed $99 $-1 #
face $-1 $-1 $253 $51 $-1 $254 forward single #
loop $-1 $255 $256 $101 #
cone-surface $-1 32.474308283913572 -24.813970800571227 5.9398879711040671 0 0.75470958851134928 -0.65605901945558964 0.75 0 0 1 I I -0.70710678118654757 0.70710678118654757 0.75 forward I I I I #
loop $-1 $-1 $257 $64 #
coedge $-1 $163 $163 $258 $259 reversed $102 $-1 #
face $-1 $260 $261 $39 $-1 $262 reversed single #
loop $-1 $-1 $263 $104 #
plane-surface $-1 0 -35.299064871125225 0 0 1 0 0 0 1 forward_v I I I I #
coedge $-1 $264 $265 $266 $267 forward $105 $-1 #
coedge $-1 $268 $107 $269 $270 forward $66 $-1 #
coedge $-1 $107 $268 $271 $272 forward $66 $-1 #
coedge $-1 $273 $274 $107 $171 reversed $275 $-1 #
edge $-1 $276 -35.299064871125225 $277 35.299064871125225 $170 $278 forward 7 unknown #
face $-1 $279 $280 $40 $-1 $281 reversed single #
loop $-1 $-1 $282 $108 #
plane-surface $-1 -66.220569373768711 -32.249089519379297 0 1 0 0 0 0 -1 forward_v I I I I #
coedge $-1 $283 $284 $176 $285 forward $109 $-1 #
coedge $-1 $286 $111 $175 $285 reversed $69 $-1 #
coedge $-1 $111 $286 $287 $288 reversed $69 $-1 #
coedge $-1 $289 $290 $111 $179 reversed $280 $-1 #
edge $-1 $291 -16.892639128929336 $292 16.892639128929336 $178 $293 forward 7 unknown #
face $-1 $294 $295 $41 $-1 $296 forward single #
loop $-1 $-1 $297 $112 #
plane-surface $-1 -1.5724204890831182 84.744968489433077 125.45452004447843 -1 0 0 0 0.82903758062907751 0.55919289150049634 forward_v I I I I #
coedge $-1 $298 $299 $300 $301 reversed $113 $-1 #
coedge $-1 $185 $115 $302 $303 reversed $72 $-1 #
coedge $-1 $115 $184 $298 $304 reversed $72 $-1 #
coedge $-1 $300 $305 $115 $187 forward $295 $-1 #
edge $-1 $306 7.0734193735913138 $307 13.78243941205487 $186 $308 forward 7 unknown #
loop $-1 $-1 $193 $116 #
plane-surface $-1 -7.3725737568660605 -4.1789074339709771 65.474610251598264 0 0.82903758062907751 0.55919289150049634 1 0 0 forward_v I I I I #
loop $-1 $-1 $309 $74 #
coedge $-1 $191 $191 $192 $310 reversed $117 $-1 #
coedge $-1 $192 $192 $191 $310 forward $119 $-1 #
coedge $-1 $193 $193 $120 $194 forward $188 $-1 #
edge $-1 $311 -1.0279713165030387e-015 $311 6.2831853071795996 $193 $312 forward 7 unknown #
loop $-1 $-1 $200 $121 #
plane-surface $-1 -7.3725737568660605 -4.1789074339709771 65.474610251598264 0 0.82903758062907751 0.55919289150049634 1 0 0 forward_v I I I I #
loop $-1 $-1 $313 $77 #
coedge $-1 $198 $198 $199 $314 reversed $122 $-1 #
coedge $-1 $199 $199 $198 $314 forward $124 $-1 #
coedge $-1 $200 $200 $125 $201 forward $195 $-1 #
edge $-1 $315 -1.0279713165030387e-015 $315 6.2831853071795996 $200 $316 forward 7 unknown #
loop $-1 $-1 $207 $126 #
plane-surface $-1 -7.3725737568660605 -4.1789074339709771 65.474610251598264 0 0.82903758062907751 0.55919289150049634 1 0 0 forward_v I I I I #
loop $-1 $-1 $317 $80 #
coedge $-1 $205 $205 $206 $318 reversed $127 $-1 #
coedge $-1 $206 $206 $205 $318 forward $129 $-1 #
coedge $-1 $207 $207 $130 $208 forward $202 $-1 #
edge $-1 $319 -1.0279713165030387e-015 $319 6.2831853071795996 $207 $320 forward 7 unknown #
face $-1 $321 $322 $45 $-1 $323 forward single #
loop $-1 $-1 $324 $131 #
plane-surface $-1 45.76347543257161 84.744968489433077 125.45452004447843 -1 0 0 0 0.82903758062907751 0.55919289150049634 forward_v I I I I #
coedge $-1 $325 $326 $327 $328 reversed $132 $-1 #
coedge $-1 $214 $134 $329 $330 reversed $84 $-1 #
coedge $-1 $134 $213 $325 $331 reversed $84 $-1 #
coedge $-1 $327 $332 $134 $216 forward $322 $-1 #
edge $-1 $333 7.0734193735913138 $334 13.78243941205487 $215 $335 forward 7 unknown #
loop $-1 $-1 $222 $135 #
plane-surface $-1 39.963322164788664 -4.1789074339709771 65.474610251598264 0 0.82903758062907751 0.55919289150049634 1 0 0 forward_v I I I I #
loop $-1 $-1 $336 $86 #
coedge $-1 $220 $220 $221 $337 reversed $136 $-1 #
coedge $-1 $221 $221 $220 $337 forward $138 $-1 #
coedge $-1 $222 $222 $139 $223 forward $217 $-1 #
edge $-1 $338 -1.0279713165030387e-015 $338 6.2831853071795996 $222 $339 forward 7 unknown #
loop $-1 $-1 $229 $140 #
plane-surface $-1 39.963322164788664 -4.1789074339709771 65.474610251598264 0 0.82903758062907751 0.55919289150049634 1 0 0 forward_v I I I I #
loop $-1 $-1 $340 $89 #
coedge $-1 $227 $227 $228 $341 reversed $141 $-1 #
coedge $-1 $228 $228 $227 $341 forward $143 $-1 #
coedge $-1 $229 $229 $144 $230 forward $224 $-1 #
edge $-1 $342 -1.0279713165030387e-015 $342 6.2831853071795996 $229 $343 forward 7 unknown #
loop $-1 $-1 $236 $145 #
plane-surface $-1 39.963322164788664 -4.1789074339709771 65.474610251598264 0 0.82903758062907751 0.55919289150049634 1 0 0 forward_v I I I I #
loop $-1 $-1 $344 $92 #
coedge $-1 $234 $234 $235 $345 reversed $146 $-1 #
coedge $-1 $235 $235 $234 $345 forward $148 $-1 #
coedge $-1 $236 $236 $149 $237 forward $231 $-1 #
edge $-1 $346 -1.0279713165030387e-015 $346 6.2831853071795996 $236 $347 forward 7 unknown #
face $-1 $348 $349 $49 $-1 $350 forward single #
loop $-1 $-1 $351 $150 #
plane-surface $-1 20.579505441173652 -116.25040335696551 72.216367551069098 1 0 0 0 0.75470958851134928 -0.65605901945558964 forward_v I I I I #
coedge $-1 $352 $353 $354 $355 reversed $151 $-1 #
coedge $-1 $243 $153 $356 $357 reversed $96 $-1 #
coedge $-1 $153 $242 $352 $358 reversed $96 $-1 #
coedge $-1 $354 $359 $153 $245 forward $349 $-1 #
edge $-1 $360 22.826136807357528 $361 35.905594012667038 $244 $362 forward 7 unknown #
loop $-1 $-1 $251 $154 #
plane-surface $-1 28.905867431091593 -35.299064871125225 1.8464443924218727 0 -0.75470958851134928 0.65605901945558964 1 0 0 forward_v I I I I #
loop $-1 $-1 $363 $98 #
coedge $-1 $249 $249 $250 $364 reversed $155 $-1 #
coedge $-1 $250 $250 $249 $364 forward $157 $-1 #
coedge $-1 $251 $251 $158 $252 forward $246 $-1 #
edge $-1 $365 -2.3365148407056718e-016 $365 6.2831853071796004 $251 $366 forward 7 unknown #
loop $-1 $-1 $258 $159 #
plane-surface $-1 28.905867431091593 -35.299064871125225 1.8464443924218727 0 -0.75470958851134928 0.65605901945558964 1 0 0 forward_v I I I I #
loop $-1 $-1 $367 $101 #
coedge $-1 $256 $256 $257 $368 reversed $160 $-1 #
coedge $-1 $257 $257 $256 $368 forward $162 $-1 #
coedge $-1 $258 $258 $163 $259 forward $253 $-1 #
edge $-1 $369 -2.3365148407056718e-016 $369 6.2831853071796004 $258 $370 forward 7 unknown #
face $-1 $371 $372 $39 $-1 $373 reversed single #
loop $-1 $-1 $374 $164 #
plane-surface $-1 -53.630787072359382 0 0 1 0 0 0 0 -1 forward_v I I I I #
coedge $-1 $375 $271 $376 $377 forward $165 $-1 #
coedge $-1 $378 $167 $375 $379 forward $105 $-1 #
coedge $-1 $167 $378 $380 $381 forward $105 $-1 #
coedge $-1 $274 $273 $167 $267 reversed $275 $-1 #
edge $-1 $382 -35.299064871125225 $383 35.299064871125225 $266 $384 forward 7 unknown #
coedge $-1 $169 $168 $374 $385 forward $66 $-1 #
coedge $-1 $386 $387 $168 $270 reversed $372 $-1 #
edge $-1 $277 -53.630787072359382 $388 53.630787072359382 $269 $389 forward 7 unknown #
coedge $-1 $263 $390 $169 $272 reversed $165 $-1 #
edge $-1 $391 -53.630787072359382 $276 53.630787072359382 $271 $392 forward 7 unknown #
coedge $-1 $266 $170 $390 $393 forward $275 $-1 #
coedge $-1 $170 $266 $386 $394 reversed $275 $-1 #
loop $-1 $-1 $273 $371 #
vertex $-1 $171 $395 #
vertex $-1 $171 $396 #
straight-curve $-1 53.630787072359382 0 16.892639128929336 0 1 0 I I #
face $-1 $397 $398 $40 $-1 $399 reversed single #
loop $-1 $-1 $178 $172 #
plane-surface $-1 -59.925678223064047 -29.199114167633368 0 0 -1 0 0 0 -1 forward_v I I I I #
coedge $-1 $400 $401 $402 $403 forward $173 $-1 #
coedge $-1 $404 $175 $290 $405 forward $109 $-1 #
coedge $-1 $175 $404 $406 $407 forward $109 $-1 #
edge $-1 $408 -35.299064871125225 $292 -29.199114167633368 $175 $409 forward 7 unknown #
coedge $-1 $177 $176 $410 $411 reversed $69 $-1 #
coedge $-1 $412 $413 $177 $288 forward $398 $-1 #
edge $-1 $291 29.199114167633368 $414 35.299064871125225 $287 $415 forward 7 unknown #
coedge $-1 $402 $178 $413 $416 reversed $280 $-1 #
coedge $-1 $178 $402 $283 $405 reversed $280 $-1 #
vertex $-1 $288 $417 #
vertex $-1 $405 $418 #
straight-curve $-1 -53.630787072359382 -29.199114167633368 0 0 0 1 I I #
face $-1 $-1 $419 $41 $-1 $420 reversed single #
loop $-1 $-1 $186 $180 #
plane-surface $-1 0 0 16.892639128929336 0 0 1 1 0 0 forward_v I I I I #
coedge $-1 $421 $422 $423 $424 reversed $181 $-1 #
coedge $-1 $425 $183 $185 $304 forward $113 $-1 #
coedge $-1 $183 $425 $421 $426 forward $113 $-1 #
coedge $-1 $423 $186 $183 $301 forward $295 $-1 #
edge $-1 $307 -9.4864401462159726 $427 2.1138663893499121 $300 $428 forward 7 unknown #
coedge $-1 $429 $430 $184 $303 forward $419 $-1 #
edge $-1 $431 -55.781152449093959 $306 -45.834620893309875 $302 $432 forward 7 unknown #
edge $-1 $307 58.600444971149216 $431 70.598129742250421 $185 $433 forward 7 unknown #
coedge $-1 $186 $423 $429 $434 forward $295 $-1 #
vertex $-1 $303 $435 #
vertex $-1 $187 $436 #
straight-curve $-1 -13.172727024649003 42.372484244716539 16.892639128929332 0 -1 0 I I #
coedge $-1 $309 $309 $-1 $437 reversed $190 $-1 #
edge $-1 $438 0 $438 6.2831853071796004 $191 $439 forward 7 unknown #
vertex $-1 $194 $440 #
ellipse-curve $-1 -10.852665717535821 31.94455485189345 11.919373351037278 0 0.82903758062907751 0.55919289150049634 0.5 0 0 1 I I #
coedge $-1 $313 $313 $-1 $441 reversed $197 $-1 #
edge $-1 $442 0 $442 6.2831853071796004 $198 $443 forward 7 unknown #
vertex $-1 $201 $444 #
ellipse-curve $-1 -7.3725737568660534 31.94455485189345 11.919373351037278 0 0.82903758062907751 0.55919289150049634 0.5 0 0 1 I I #
coedge $-1 $317 $317 $-1 $445 reversed $204 $-1 #
edge $-1 $446 0 $446 6.2831853071796004 $205 $447 forward 7 unknown #
vertex $-1 $208 $448 #
ellipse-curve $-1 -3.8924817961962859 31.94455485189345 11.919373351037278 0 0.82903758062907751 0.55919289150049634 0.5 0 0 1 I I #
face $-1 $-1 $449 $45 $-1 $450 reversed single #
loop $-1 $-1 $215 $209 #
plane-surface $-1 0 0 16.892639128929336 0 0 1 1 0 0 forward_v I I I I #
coedge $-1 $451 $452 $453 $454 reversed $210 $-1 #
coedge $-1 $455 $212 $214 $331 forward $132 $-1 #
coedge $-1 $212 $455 $451 $456 forward $132 $-1 #
coedge $-1 $453 $215 $212 $328 forward $322 $-1 #
edge $-1 $334 14.181507814611386 $457 25.781814350177278 $327 $458 forward 7 unknown #
coedge $-1 $459 $460 $213 $330 forward $449 $-1 #
edge $-1 $461 -55.781152449093959 $333 -45.834620893309875 $329 $462 forward 7 unknown #
edge $-1 $334 58.600444971149216 $461 70.598129742250421 $214 $463 forward 7 unknown #
coedge $-1 $215 $453 $459 $464 forward $322 $-1 #
vertex $-1 $216 $465 #
vertex $-1 $216 $466 #
straight-curve $-1 34.163168897005718 42.372484244716539 16.892639128929332 0 -1 0 I I #
coedge $-1 $336 $336 $-1 $467 reversed $219 $-1 #
edge $-1 $468 0 $468 6.2831853071796004 $220 $469 forward 7 unknown #
vertex $-1 $223 $470 #
ellipse-curve $-1 36.483230204118897 31.94455485189345 11.919373351037278 0 0.82903758062907751 0.55919289150049634 0.5 0 0 1 I I #
coedge $-1 $340 $340 $-1 $471 reversed $226 $-1 #
edge $-1 $472 0 $472 6.2831853071796004 $227 $473 forward 7 unknown #
vertex $-1 $230 $474 #
ellipse-curve $-1 39.963322164788664 31.94455485189345 11.919373351037278 0 0.82903758062907751 0.55919289150049634 0.5 0 0 1 I I #
coedge $-1 $344 $344 $-1 $475 reversed $233 $-1 #
edge $-1 $476 0 $476 6.2831853071796004 $234 $477 forward 7 unknown #
vertex $-1 $237 $478 #
ellipse-curve $-1 43.443414125458432 31.94455485189345 11.919373351037278 0 0.82903758062907751 0.55919289150049634 0.5 0 0 1 I I #
face $-1 $-1 $479 $49 $-1 $480 reversed single #
loop $-1 $-1 $244 $238 #
plane-surface $-1 0 0 16.892639128929336 0 0 1 1 0 0 forward_v I I I I #
coedge $-1 $481 $482 $483 $484 reversed $239 $-1 #
coedge $-1 $485 $241 $243 $358 forward $151 $-1 #
coedge $-1 $241 $485 $481 $486 forward $151 $-1 #
coedge $-1 $483 $244 $241 $355 forward $349 $-1 #
edge $-1 $361 -22.779295705463738 $487 -6.1265717256278549 $354 $488 forward 7 unknown #
coedge $-1 $489 $490 $242 $357 forward $479 $-1 #
edge $-1 $491 -34.261739383112676 $360 -19.215544646605213 $356 $492 forward 7 unknown #
edge $-1 $361 -19.936403307377883 $491 0 $243 $493 forward 7 unknown #
coedge $-1 $244 $483 $489 $494 forward $349 $-1 #
vertex $-1 $245 $495 #
vertex $-1 $245 $496 #
straight-curve $-1 37.232229421009535 -58.125201678482753 16.892639128929336 0 1 0 I I #
coedge $-1 $363 $363 $-1 $497 reversed $248 $-1 #
edge $-1 $498 0 $498 6.2831853071796004 $249 $499 forward 7 unknown #
vertex $-1 $252 $500 #
ellipse-curve $-1 25.337426578269614 -28.759336268470474 9.3695417606756024 0 -0.75470958851134928 0.65605901945558964 1.5 0 0 1 I I #
coedge $-1 $367 $367 $-1 $501 reversed $255 $-1 #
edge $-1 $502 0 $502 6.2831853071796004 $256 $503 forward 7 unknown #
vertex $-1 $259 $504 #
ellipse-curve $-1 32.474308283913572 -28.759336268470474 9.3695417606756024 0 -0.75470958851134928 0.65605901945558964 1.5 0 0 1 I I #
face $-1 $-1 $275 $39 $-1 $505 reversed single #
loop $-1 $-1 $386 $260 #
plane-surface $-1 0 35.299064871125225 0 0 -1 0 0 0 -1 forward_v I I I I #
coedge $-1 $506 $376 $268 $385 reversed $261 $-1 #
coedge $-1 $390 $263 $264 $379 reversed $165 $-1 #
coedge $-1 $374 $507 $263 $377 reversed $261 $-1 #
edge $-1 $391 -16.892639128929336 $508 16.892639128929336 $376 $509 forward 7 unknown #
coedge $-1 $265 $264 $507 $510 forward $105 $-1 #
edge $-1 $383 -53.630787072359382 $508 53.630787072359382 $375 $511 forward 7 unknown #
coedge $-1 $387 $386 $265 $381 reversed $372 $-1 #
edge $-1 $512 -53.630787072359382 $382 53.630787072359382 $380 $513 forward 7 unknown #
vertex $-1 $267 $514 #
vertex $-1 $393 $515 #
straight-curve $-1 53.630787072359382 0 -16.892639128929336 0 -1 0 I I #
edge $-1 $388 -35.299064871125225 $391 35.299064871125225 $374 $516 forward 7 unknown #
coedge $-1 $380 $269 $274 $394 forward $372 $-1 #
coedge $-1 $269 $380 $506 $517 reversed $372 $-1 #
vertex $-1 $270 $518 #
straight-curve $-1 0 35.299064871125225 16.892639128929336 -1 0 0 I I #
coedge $-1 $271 $375 $273 $393 reversed $165 $-1 #
vertex $-1 $385 $519 #
straight-curve $-1 0 -35.299064871125225 16.892639128929336 1 0 0 I I #
edge $-1 $276 -16.892639128929336 $383 16.892639128929336 $273 $520 forward 7 unknown #
edge $-1 $277 -16.892639128929336 $382 16.892639128929336 $274 $521 forward 7 unknown #
point $-1 53.630787072359382 -35.299064871125225 16.892639128929336 #
point $-1 53.630787072359382 35.299064871125225 16.892639128929336 #
face $-1 $-1 $522 $40 $-1 $523 reversed single #
loop $-1 $-1 $287 $279 #
plane-surface $-1 0 0 -16.892639128929336 0 0 1 1 0 0 forward_v I I I I #
coedge $-1 $524 $282 $525 $526 reversed $173 $-1 #
coedge $-1 $282 $524 $404 $527 reversed $173 $-1 #
coedge $-1 $290 $289 $282 $403 reversed $280 $-1 #
edge $-1 $528 -16.892639128929336 $529 16.892639128929336 $402 $530 forward 7 unknown #
coedge $-1 $284 $283 $401 $527 forward $109 $-1 #
edge $-1 $292 -6.2948911507046645 $528 6.2948911507046645 $290 $531 forward 7 unknown #
coedge $-1 $532 $410 $284 $407 reversed $522 $-1 #
edge $-1 $533 -66.220569373768711 $408 -53.630787072359382 $406 $534 forward 7 unknown #
vertex $-1 $411 $535 #
straight-curve $-1 -53.630787072359382 0 16.892639128929336 0 1 0 I I #
coedge $-1 $406 $536 $286 $411 forward $522 $-1 #
edge $-1 $414 -16.892639128929336 $408 16.892639128929336 $410 $537 forward 7 unknown #
coedge $-1 $525 $287 $536 $538 forward $398 $-1 #
coedge $-1 $287 $525 $289 $416 forward $398 $-1 #
vertex $-1 $538 $539 #
straight-curve $-1 -53.630787072359382 0 -16.892639128929336 0 -1 0 I I #
edge $-1 $529 -6.2948911507046645 $291 6.2948911507046645 $289 $540 forward 7 unknown #
point $-1 -53.630787072359382 -29.199114167633368 -16.892639128929336 #
point $-1 -53.630787072359382 -29.199114167633368 16.892639128929336 #
loop $-1 $-1 $302 $294 #
plane-surface $-1 0 35.299064871125225 0 0 -1 0 0 0 -1 forward_v I I I I #
coedge $-1 $422 $297 $299 $426 reversed $181 $-1 #
coedge $-1 $297 $421 $541 $542 reversed $181 $-1 #
coedge $-1 $305 $300 $297 $424 forward $295 $-1 #
edge $-1 $427 -13.78243941205487 $543 -7.0734193735913138 $423 $544 forward 7 unknown #
coedge $-1 $299 $298 $430 $545 reversed $113 $-1 #
edge $-1 $546 -70.598129742250421 $427 -58.600444971149216 $421 $547 forward 7 unknown #
vertex $-1 $301 $548 #
straight-curve $-1 -3.6862868784330303 28.590044832661668 16.892639128929336 1 0 0 I I #
coedge $-1 $541 $302 $305 $434 reversed $419 $-1 #
coedge $-1 $302 $541 $425 $545 forward $419 $-1 #
vertex $-1 $303 $549 #
straight-curve $-1 -13.172727024649003 35.299064871125225 62.727260022239214 0 0 1 I I #
straight-curve $-1 -13.172727024649003 -4.1789074339709771 65.474610251598264 0 0.55919289150049634 -0.82903758062907751 I I #
edge $-1 $543 1.5724204890831182 $306 13.172727024649003 $429 $550 forward 7 unknown #
point $-1 -13.172727024649003 35.299064871125225 16.892639128929336 #
point $-1 -13.172727024649003 28.590044832661668 16.892639128929332 #
edge $-1 $551 1 $551 0 $309 $-1 forward 7 unknown #
vertex $-1 $310 $552 #
ellipse-curve $-1 -10.852665717535821 30.798255491354755 11.14618469358413 0 0.82903758062907751 0.55919289150049634 0.5 0 0 1 I I #
point $-1 -10.352665717535821 31.944554851893447 11.919373351037276 #
edge $-1 $553 1 $553 0 $313 $-1 forward 7 unknown #
vertex $-1 $314 $554 #
ellipse-curve $-1 -7.3725737568660534 30.798255491354755 11.14618469358413 0 0.82903758062907751 0.55919289150049634 0.5 0 0 1 I I #
point $-1 -6.8725737568660534 31.944554851893447 11.919373351037276 #
edge $-1 $555 1 $555 0 $317 $-1 forward 7 unknown #
vertex $-1 $318 $556 #
ellipse-curve $-1 -3.8924817961962859 30.798255491354755 11.14618469358413 0 0.82903758062907751 0.55919289150049634 0.5 0 0 1 I I #
point $-1 -3.3924817961962859 31.944554851893447 11.919373351037276 #
loop $-1 $-1 $329 $321 #
plane-surface $-1 0 35.299064871125225 0 0 -1 0 0 0 -1 forward_v I I I I #
coedge $-1 $452 $324 $326 $456 reversed $210 $-1 #
coedge $-1 $324 $451 $557 $558 reversed $210 $-1 #
coedge $-1 $332 $327 $324 $454 forward $322 $-1 #
edge $-1 $457 -13.78243941205487 $559 -7.0734193735913138 $453 $560 forward 7 unknown #
coedge $-1 $326 $325 $460 $561 reversed $132 $-1 #
edge $-1 $562 -70.598129742250421 $457 -58.600444971149216 $451 $563 forward 7 unknown #
vertex $-1 $328 $564 #
straight-curve $-1 19.981661082394332 28.590044832661668 16.892639128929336 1 0 0 I I #
coedge $-1 $557 $329 $332 $464 reversed $449 $-1 #
coedge $-1 $329 $557 $455 $561 forward $449 $-1 #
vertex $-1 $330 $565 #
straight-curve $-1 34.163168897005718 35.299064871125225 62.727260022239214 0 0 1 I I #
straight-curve $-1 34.163168897005718 -4.1789074339709771 65.474610251598264 0 0.55919289150049634 -0.82903758062907751 I I #
edge $-1 $559 -45.76347543257161 $333 -34.163168897005718 $459 $566 forward 7 unknown #
point $-1 34.163168897005718 35.299064871125225 16.892639128929336 #
point $-1 34.163168897005718 28.590044832661668 16.892639128929332 #
edge $-1 $567 1 $567 0 $336 $-1 forward 7 unknown #
vertex $-1 $337 $568 #
ellipse-curve $-1 36.483230204118897 30.798255491354755 11.14618469358413 0 0.82903758062907751 0.55919289150049634 0.5 0 0 1 I I #
point $-1 36.983230204118897 31.944554851893447 11.919373351037276 #
edge $-1 $569 1 $569 0 $340 $-1 forward 7 unknown #
vertex $-1 $341 $570 #
ellipse-curve $-1 39.963322164788664 30.798255491354755 11.14618469358413 0 0.82903758062907751 0.55919289150049634 0.5 0 0 1 I I #
point $-1 40.463322164788664 31.944554851893447 11.919373351037276 #
edge $-1 $571 1 $571 0 $344 $-1 forward 7 unknown #
vertex $-1 $345 $572 #
ellipse-curve $-1 43.443414125458432 30.798255491354755 11.14618469358413 0 0.82903758062907751 0.55919289150049634 0.5 0 0 1 I I #
point $-1 43.943414125458432 31.944554851893447 11.919373351037276 #
loop $-1 $-1 $356 $348 #
plane-surface $-1 0 -35.299064871125225 0 0 1 0 0 0 1 forward_v I I I I #
coedge $-1 $482 $351 $353 $486 reversed $239 $-1 #
coedge $-1 $351 $481 $573 $574 reversed $239 $-1 #
coedge $-1 $359 $354 $351 $484 forward $349 $-1 #
edge $-1 $487 -35.905594012667038 $575 -22.826136807357528 $483 $576 forward 7 unknown #
coedge $-1 $353 $352 $490 $577 reversed $151 $-1 #
edge $-1 $578 0 $487 19.936403307377883 $481 $579 forward 7 unknown #
vertex $-1 $355 $580 #
straight-curve $-1 14.452933715545797 -22.219607665815719 16.892639128929336 -1 0 0 I I #
coedge $-1 $573 $356 $359 $494 reversed $479 $-1 #
coedge $-1 $356 $573 $485 $577 forward $479 $-1 #
vertex $-1 $357 $581 #
straight-curve $-1 37.232229421009535 -35.299064871125225 36.108183775534549 0 0 1 I I #
straight-curve $-1 37.232229421009535 -35.299064871125225 1.8464443924218727 0 -0.65605901945558964 -0.75470958851134928 I I #
edge $-1 $575 20.579505441173652 $360 37.232229421009535 $489 $582 forward 7 unknown #
point $-1 37.232229421009535 -35.299064871125225 16.892639128929336 #
point $-1 37.232229421009535 -22.219607665815719 16.892639128929336 #
edge $-1 $583 1 $583 0 $363 $-1 forward 7 unknown #
vertex $-1 $364 $584 #
ellipse-curve $-1 25.337426578269614 -25.38000299195474 6.4319322356957596 0 -0.75470958851134928 0.65605901945558964 1.5 0 0 1 I I #
point $-1 26.837426578269614 -28.75933626847047 9.3695417606755989 #
edge $-1 $585 1 $585 0 $367 $-1 forward 7 unknown #
vertex $-1 $368 $586 #
ellipse-curve $-1 32.474308283913572 -25.38000299195474 6.4319322356957596 0 -0.75470958851134928 0.65605901945558964 1.5 0 0 1 I I #
point $-1 33.974308283913572 -28.75933626847047 9.3695417606755989 #
plane-surface $-1 53.630787072359382 0 0 -1 0 0 0 0 1 forward_v I I I I #
coedge $-1 $507 $374 $387 $517 forward $261 $-1 #
coedge $-1 $376 $506 $378 $510 reversed $261 $-1 #
vertex $-1 $510 $587 #
straight-curve $-1 -53.630787072359382 -35.299064871125225 0 0 0 -1 I I #
edge $-1 $508 -35.299064871125225 $512 35.299064871125225 $507 $588 forward 7 unknown #
straight-curve $-1 0 -35.299064871125225 -16.892639128929336 -1 0 0 I I #
vertex $-1 $381 $589 #
straight-curve $-1 0 35.299064871125225 -16.892639128929336 1 0 0 I I #
point $-1 53.630787072359382 35.299064871125225 -16.892639128929336 #
point $-1 53.630787072359382 -35.299064871125225 -16.892639128929336 #
straight-curve $-1 -53.630787072359382 0 16.892639128929336 0 -1 0 I I #
edge $-1 $388 -16.892639128929336 $512 16.892639128929336 $387 $590 forward 7 unknown #
point $-1 -53.630787072359382 35.299064871125225 16.892639128929336 #
point $-1 -53.630787072359382 -35.299064871125225 16.892639128929336 #
straight-curve $-1 53.630787072359382 -35.299064871125225 0 0 0 -1 I I #
straight-curve $-1 53.630787072359382 35.299064871125225 0 0 0 -1 I I #
loop $-1 $-1 $410 $397 #
plane-surface $-1 0 -35.299064871125225 0 0 1 0 0 0 1 forward_v I I I I #
coedge $-1 $401 $400 $532 $591 reversed $173 $-1 #
coedge $-1 $413 $412 $400 $526 forward $398 $-1 #
edge $-1 $592 -3.0499753517459283 $529 3.0499753517459283 $400 $593 forward 7 unknown #
edge $-1 $528 -3.0499753517459283 $533 3.0499753517459283 $401 $594 forward 7 unknown #
vertex $-1 $405 $595 #
vertex $-1 $416 $596 #
straight-curve $-1 -66.220569373768711 -29.199114167633368 0 0 0 -1 I I #
straight-curve $-1 -59.925678223064047 -29.199114167633368 16.892639128929336 -1 0 0 I I #
coedge $-1 $536 $406 $524 $591 forward $522 $-1 #
vertex $-1 $527 $597 #
straight-curve $-1 0 -35.299064871125225 16.892639128929336 1 0 0 I I #
point $-1 -53.630787072359382 -35.299064871125225 16.892639128929336 #
coedge $-1 $410 $532 $412 $538 reversed $522 $-1 #
straight-curve $-1 -53.630787072359382 -35.299064871125225 0 0 0 1 I I #
edge $-1 $414 -6.2948911507046645 $592 6.2948911507046645 $536 $598 forward 7 unknown #
point $-1 -53.630787072359382 -35.299064871125225 -16.892639128929336 #
straight-curve $-1 -59.925678223064047 -29.199114167633368 -16.892639128929336 1 0 0 I I #
coedge $-1 $430 $429 $422 $542 forward $419 $-1 #
edge $-1 $543 45.834620893309875 $546 55.781152449093959 $541 $599 forward 7 unknown #
vertex $-1 $434 $600 #
straight-curve $-1 -1.5724204890831182 42.372484244716539 16.892639128929332 0 1 0 I I #
edge $-1 $546 -2.1138663893499121 $431 9.4864401462159726 $430 $601 forward 7 unknown #
vertex $-1 $545 $602 #
straight-curve $-1 -1.5724204890831182 -4.1789074339709771 65.474610251598264 0 -0.55919289150049634 0.82903758062907751 I I #
point $-1 -1.5724204890831182 28.590044832661668 16.892639128929332 #
point $-1 -13.172727024649003 35.299064871125225 6.9461075731452553 #
straight-curve $-1 0 35.299064871125225 16.892639128929336 -1 0 0 I I #
vertex $-1 $437 $603 #
point $-1 -10.352665717535821 30.798255491354755 11.14618469358413 #
vertex $-1 $441 $604 #
point $-1 -6.8725737568660534 30.798255491354755 11.14618469358413 #
vertex $-1 $445 $605 #
point $-1 -3.3924817961962859 30.798255491354755 11.14618469358413 #
coedge $-1 $460 $459 $452 $558 forward $449 $-1 #
edge $-1 $559 45.834620893309875 $562 55.781152449093959 $557 $606 forward 7 unknown #
vertex $-1 $464 $607 #
straight-curve $-1 45.76347543257161 42.372484244716539 16.892639128929332 0 1 0 I I #
edge $-1 $562 -25.781814350177278 $461 -14.181507814611386 $460 $608 forward 7 unknown #
vertex $-1 $561 $609 #
straight-curve $-1 45.76347543257161 -4.1789074339709771 65.474610251598264 0 -0.55919289150049634 0.82903758062907751 I I #
point $-1 45.76347543257161 28.590044832661668 16.892639128929332 #
point $-1 34.163168897005718 35.299064871125225 6.9461075731452553 #
straight-curve $-1 0 35.299064871125225 16.892639128929336 -1 0 0 I I #
vertex $-1 $467 $610 #
point $-1 36.983230204118897 30.798255491354755 11.14618469358413 #
vertex $-1 $471 $611 #
point $-1 40.463322164788664 30.798255491354755 11.14618469358413 #
vertex $-1 $475 $612 #
point $-1 43.943414125458432 30.798255491354755 11.14618469358413 #
coedge $-1 $490 $489 $482 $574 forward $479 $-1 #
edge $-1 $575 19.215544646605213 $578 34.261739383112676 $573 $613 forward 7 unknown #
vertex $-1 $494 $614 #
straight-curve $-1 20.579505441173652 -58.125201678482753 16.892639128929336 0 -1 0 I I #
edge $-1 $578 6.1265717256278549 $491 22.779295705463738 $490 $615 forward 7 unknown #
vertex $-1 $577 $616 #
straight-curve $-1 20.579505441173652 -35.299064871125225 1.8464443924218727 0 0.65605901945558964 0.75470958851134928 I I #
point $-1 20.579505441173652 -22.219607665815719 16.892639128929336 #
point $-1 37.232229421009535 -35.299064871125225 1.8464443924218727 #
straight-curve $-1 0 -35.299064871125225 16.892639128929336 1 0 0 I I #
vertex $-1 $497 $617 #
point $-1 26.837426578269614 -25.38000299195474 6.4319322356957596 #
vertex $-1 $501 $618 #
point $-1 33.974308283913572 -25.38000299195474 6.4319322356957596 #
point $-1 -53.630787072359382 -35.299064871125225 -16.892639128929336 #
straight-curve $-1 -53.630787072359382 0 -16.892639128929336 0 1 0 I I #
point $-1 -53.630787072359382 35.299064871125225 -16.892639128929336 #
straight-curve $-1 -53.630787072359382 35.299064871125225 0 0 0 -1 I I #
edge $-1 $533 -16.892639128929336 $592 16.892639128929336 $524 $619 forward 7 unknown #
vertex $-1 $526 $620 #
straight-curve $-1 -66.220569373768711 -32.249089519379297 -16.892639128929336 0 1 0 I I #
straight-curve $-1 -66.220569373768711 -32.249089519379297 16.892639128929336 0 -1 0 I I #
point $-1 -66.220569373768711 -29.199114167633368 16.892639128929336 #
point $-1 -66.220569373768711 -29.199114167633368 -16.892639128929336 #
point $-1 -66.220569373768711 -35.299064871125225 16.892639128929336 #
straight-curve $-1 -59.925678223064047 -35.299064871125225 -16.892639128929336 -1 0 0 I I #
straight-curve $-1 -1.5724204890831182 35.299064871125225 62.727260022239214 0 0 -1 I I #
point $-1 -1.5724204890831182 35.299064871125225 16.892639128929336 #
straight-curve $-1 -3.6862868784330303 35.299064871125225 6.9461075731452553 -1 0 0 I I #
point $-1 -1.5724204890831182 35.299064871125225 6.9461075731452553 #
point $-1 -10.852665717535821 30.383736701040217 10.866588247833883 #
point $-1 -7.3725737568660534 30.383736701040217 10.866588247833883 #
point $-1 -3.8924817961962859 30.383736701040217 10.866588247833883 #
straight-curve $-1 45.76347543257161 35.299064871125225 62.727260022239214 0 0 -1 I I #
point $-1 45.76347543257161 35.299064871125225 16.892639128929336 #
straight-curve $-1 19.981661082394332 35.299064871125225 6.9461075731452553 -1 0 0 I I #
point $-1 45.76347543257161 35.299064871125225 6.9461075731452553 #
point $-1 36.483230204118897 30.383736701040217 10.866588247833883 #
point $-1 39.963322164788664 30.383736701040217 10.866588247833883 #
point $-1 43.443414125458432 30.383736701040217 10.866588247833883 #
straight-curve $-1 20.579505441173652 -35.299064871125225 36.108183775534549 0 0 -1 I I #
point $-1 20.579505441173652 -35.299064871125225 16.892639128929336 #
straight-curve $-1 14.452933715545797 -35.299064871125225 1.8464443924218719 1 0 0 I I #
point $-1 20.579505441173652 -35.299064871125225 1.8464443924218727 #
point $-1 25.337426578269614 -24.247938609187713 5.4478437065123746 #
point $-1 32.474308283913572 -24.247938609187713 5.4478437065123746 #
straight-curve $-1 -66.220569373768711 -35.299064871125225 0 0 0 -1 I I #
point $-1 -66.220569373768711 -35.299064871125225 -16.892639128929336 #
End-of-ACIS-data 