500 0 9 0           
7 Unknown 11 ACIS 5.0 NT 24 Thu Mar 25 18:19:19 1999 
-1 9.9999999999999995e-007 1e-010 
body $-1 $9 $-1 $10 #
body $-1 $11 $-1 $12 #
body $-1 $13 $-1 $14 #
body $-1 $15 $-1 $16 #
body $-1 $17 $-1 $18 #
body $-1 $19 $-1 $20 #
body $-1 $21 $-1 $22 #
body $-1 $23 $-1 $24 #
body $-1 $25 $-1 $26 #
lump $-1 $-1 $27 $0 #
transform $-1 1 0 0 0 1 0 0 0 1 73.68633075960571 32.760024696792023 13.150000086427385 1 rotate no_reflect no_shear #
lump $-1 $-1 $28 $1 #
transform $-1 1 0 0 0 1 0 0 0 1 73.68633075960571 32.760024696792023 13.150000086427385 1 rotate no_reflect no_shear #
lump $-1 $-1 $29 $2 #
transform $-1 1 0 0 0 1 0 0 0 1 73.68633075960571 32.760024696792023 13.150000086427385 1 rotate no_reflect no_shear #
lump $-1 $-1 $30 $3 #
transform $-1 1 0 0 0 1 0 0 0 1 73.68633075960571 32.760024696792023 13.150000086427385 1 rotate no_reflect no_shear #
lump $-1 $-1 $31 $4 #
transform $-1 1 0 0 0 1 0 0 0 1 73.68633075960571 32.760024696792023 13.150000086427385 1 rotate no_reflect no_shear #
lump $-1 $-1 $32 $5 #
transform $-1 1 0 0 0 1 0 0 0 1 73.68633075960571 32.760024696792023 13.150000086427385 1 rotate no_reflect no_shear #
lump $-1 $-1 $33 $6 #
transform $-1 1 0 0 0 1 0 0 0 1 73.68633075960571 32.760024696792023 13.150000086427385 1 rotate no_reflect no_shear #
lump $-1 $-1 $34 $7 #
transform $-1 1 0 0 0 1 0 0 0 1 73.68633075960571 32.760024696792023 13.150000086427385 1 rotate no_reflect no_shear #
lump $-1 $-1 $35 $8 #
transform $-1 1 0 0 0 1 0 0 0 1 73.68633075960571 32.760024696792023 13.150000086427385 1 rotate no_reflect no_shear #
shell $-1 $-1 $-1 $36 $-1 $9 #
shell $-1 $-1 $-1 $37 $-1 $11 #
shell $-1 $-1 $-1 $38 $-1 $13 #
shell $-1 $-1 $-1 $39 $-1 $15 #
shell $-1 $-1 $-1 $40 $-1 $17 #
shell $-1 $-1 $-1 $41 $-1 $19 #
shell $-1 $-1 $-1 $42 $-1 $21 #
shell $-1 $-1 $-1 $43 $-1 $23 #
shell $-1 $-1 $-1 $44 $-1 $25 #
face $-1 $45 $46 $27 $-1 $47 forward single #
face $-1 $48 $49 $28 $-1 $50 reversed single #
face $-1 $51 $52 $29 $-1 $53 reversed single #
face $-1 $54 $55 $30 $-1 $56 reversed single #
face $-1 $57 $58 $31 $-1 $59 forward single #
face $-1 $60 $61 $32 $-1 $62 forward single #
face $-1 $63 $64 $33 $-1 $65 reversed single #
face $-1 $66 $67 $34 $-1 $68 forward single #
face $-1 $69 $70 $35 $-1 $71 forward single #
face $-1 $72 $73 $27 $-1 $74 reversed single #
loop $-1 $-1 $75 $36 #
plane-surface $-1 0 0 13.150000086427385 0 0 1 1 0 0 forward_v I I I I #
face $-1 $76 $77 $28 $-1 $78 reversed single #
loop $-1 $-1 $79 $37 #
plane-surface $-1 0 -17.313327552513336 11.182616883091926 0 -1 0 0 0 -1 forward_v I I I I #
face $-1 $80 $81 $29 $-1 $82 reversed single #
loop $-1 $-1 $83 $38 #
plane-surface $-1 0 25.036676124652679 9.2152336797564676 0 0 1 1 0 0 forward_v I I I I #
face $-1 $84 $85 $30 $-1 $86 reversed single #
loop $-1 $-1 $87 $39 #
plane-surface $-1 33.918605473370064 -7.6140564509057134 210.12268295776661 0 -1 0 -0.55919291073839883 0 -0.82903756765294845 forward_v I I I I #
face $-1 $88 $89 $31 $-1 $90 forward single #
loop $-1 $91 $92 $40 #
cone-surface $-1 66.935698706271296 -14.542107237768302 7.7028349474166458 -0.55919291073839883 0 -0.82903756765294845 0.82903756765294845 0 -0.55919291073839883 1 I I 0 1 1 forward I I I I #
face $-1 $93 $94 $32 $-1 $95 forward single #
loop $-1 $96 $97 $41 #
cone-surface $-1 66.935698706271296 -10.385276765650751 7.7028349474166458 -0.55919291073839883 0 -0.82903756765294845 0.82903756765294845 0 -0.55919291073839883 1 I I 0 1 1 forward I I I I #
face $-1 $98 $99 $33 $-1 $100 reversed single #
loop $-1 $-1 $101 $42 #
plane-surface $-1 -73.686330759605724 -12.463692001709525 5.5354625551456706 -0.55919291073839883 0 0.82903756765294845 0.82903756765294845 0 0.55919291073839883 forward_v I I I I #
face $-1 $102 $103 $34 $-1 $104 forward single #
loop $-1 $105 $106 $43 #
cone-surface $-1 -66.935698706271268 -14.542107237768302 7.7028349474166706 0.55919291073839883 0 -0.82903756765294845 0.82903756765294845 0 0.55919291073839883 1 I I 0 1 1 forward I I I I #
face $-1 $107 $108 $35 $-1 $109 forward single #
loop $-1 $110 $111 $44 #
cone-surface $-1 -66.935698706271268 -10.385276765650751 7.7028349474166706 0.55919291073839883 0 -0.82903756765294845 0.82903756765294845 0 0.55919291073839883 1 I I 0 1 1 forward I I I I #
face $-1 $112 $113 $27 $-1 $114 reversed single #
loop $-1 $-1 $115 $45 #
plane-surface $-1 0 0 -13.150000086427385 0 0 1 1 0 0 forward_v I I I I #
coedge $-1 $116 $117 $118 $119 forward $46 $-1 #
face $-1 $120 $121 $28 $-1 $122 reversed single #
loop $-1 $-1 $123 $48 #
plane-surface $-1 0 -25.036676124652679 9.2152336797564676 0 0 1 1 0 0 forward_v I I I I #
coedge $-1 $124 $125 $126 $127 reversed $49 $-1 #
face $-1 $128 $129 $29 $-1 $130 forward single #
loop $-1 $-1 $131 $51 #
plane-surface $-1 0 17.313327552513336 11.182616883091926 0 1 0 0 0 1 forward_v I I I I #
coedge $-1 $132 $133 $134 $135 reversed $52 $-1 #
face $-1 $136 $137 $30 $-1 $138 forward single #
loop $-1 $-1 $139 $54 #
plane-surface $-1 -48.491142084822584 -12.463692001709525 87.945210113338305 0.55919291073839883 0 0.82903756765294845 0.82903756765294845 0 -0.55919291073839883 forward_v I I I I #
coedge $-1 $140 $141 $142 $143 reversed $55 $-1 #
face $-1 $-1 $144 $31 $-1 $145 forward single #
loop $-1 $146 $147 $57 #
cone-surface $-1 65.549978159408681 -14.542107237768302 5.6484197902203288 -0.55919291073839883 0 -0.82903756765294845 0.41451878382647422 0 -0.27959645536919941 1 I I -0.70710678118654746 0.70710678118654746 0.5 forward I I I I #
loop $-1 $-1 $148 $40 #
coedge $-1 $92 $92 $149 $150 reversed $58 $-1 #
face $-1 $-1 $151 $32 $-1 $152 forward single #
loop $-1 $153 $154 $60 #
cone-surface $-1 65.549978159408681 -10.385276765650751 5.6484197902203288 -0.55919291073839883 0 -0.82903756765294845 0.41451878382647422 0 -0.27959645536919941 1 I I -0.70710678118654746 0.70710678118654746 0.5 forward I I I I #
loop $-1 $-1 $155 $41 #
coedge $-1 $97 $97 $156 $157 reversed $61 $-1 #
face $-1 $158 $159 $33 $-1 $160 reversed single #
loop $-1 $-1 $161 $63 #
plane-surface $-1 -156.09607831779837 -7.6140564509057134 127.71293539957398 0 -1 0 0.55919291073839883 0 -0.82903756765294845 forward_v I I I I #
coedge $-1 $162 $163 $164 $165 reversed $64 $-1 #
face $-1 $-1 $166 $34 $-1 $167 forward single #
loop $-1 $168 $169 $66 #
cone-surface $-1 -65.549978159408653 -14.542107237768302 5.6484197902203537 0.55919291073839883 0 -0.82903756765294845 0.41451878382647422 0 0.27959645536919941 1 I I -0.70710678118654746 0.70710678118654746 0.5 forward I I I I #
loop $-1 $-1 $170 $43 #
coedge $-1 $106 $106 $171 $172 reversed $67 $-1 #
face $-1 $-1 $173 $35 $-1 $174 forward single #
loop $-1 $175 $176 $69 #
cone-surface $-1 -65.549978159408653 -10.385276765650751 5.6484197902203537 0.55919291073839883 0 -0.82903756765294845 0.41451878382647422 0 0.27959645536919941 1 I I -0.70710678118654746 0.70710678118654746 0.5 forward I I I I #
loop $-1 $-1 $177 $44 #
coedge $-1 $111 $111 $178 $179 reversed $70 $-1 #
face $-1 $180 $181 $27 $-1 $182 reversed single #
loop $-1 $-1 $183 $72 #
plane-surface $-1 0 -32.760024696792023 0 0 1 0 0 0 1 forward_v I I I I #
coedge $-1 $184 $185 $186 $187 forward $73 $-1 #
coedge $-1 $188 $75 $189 $190 forward $46 $-1 #
coedge $-1 $75 $188 $191 $192 forward $46 $-1 #
coedge $-1 $193 $194 $75 $119 reversed $195 $-1 #
edge $-1 $196 -32.760024696792023 $197 32.760024696792023 $118 $198 forward 7 unknown #
face $-1 $199 $200 $28 $-1 $201 reversed single #
loop $-1 $-1 $202 $76 #
plane-surface $-1 -73.68633075960571 0 0 1 0 0 0 0 -1 forward_v I I I I #
coedge $-1 $203 $204 $205 $206 reversed $77 $-1 #
coedge $-1 $207 $79 $208 $209 reversed $49 $-1 #
coedge $-1 $79 $207 $202 $210 reversed $49 $-1 #
coedge $-1 $211 $212 $79 $127 forward $213 $-1 #
edge $-1 $214 -73.68633075960571 $215 73.68633075960571 $126 $216 forward 7 unknown #
face $-1 $217 $218 $29 $-1 $219 reversed single #
loop $-1 $-1 $220 $80 #
plane-surface $-1 0 0 13.150000086427385 0 0 1 1 0 0 forward_v I I I I #
coedge $-1 $221 $222 $223 $224 reversed $81 $-1 #
coedge $-1 $225 $83 $221 $226 forward $52 $-1 #
coedge $-1 $83 $225 $227 $228 reversed $52 $-1 #
coedge $-1 $229 $230 $83 $135 forward $218 $-1 #
edge $-1 $231 4.7949894901869961 $232 20.241686634465683 $134 $233 forward 7 unknown #
face $-1 $234 $235 $30 $-1 $236 forward single #
loop $-1 $-1 $142 $84 #
plane-surface $-1 0 0 13.150000086427385 0 0 1 1 0 0 forward_v I I I I #
coedge $-1 $237 $238 $239 $240 reversed $85 $-1 #
coedge $-1 $141 $87 $241 $242 reversed $55 $-1 #
coedge $-1 $87 $140 $237 $243 reversed $55 $-1 #
coedge $-1 $239 $244 $87 $143 forward $137 $-1 #
edge $-1 $245 -56.727028022920678 $246 -45.438012099238662 $142 $247 forward 7 unknown #
loop $-1 $-1 $149 $88 #
plane-surface $-1 -48.491142084822584 -12.463692001709525 87.945210113338305 0.55919291073839883 0 0.82903756765294845 0.82903756765294845 0 -0.55919291073839883 forward_v I I I I #
loop $-1 $-1 $248 $57 #
coedge $-1 $147 $147 $148 $249 reversed $89 $-1 #
coedge $-1 $148 $148 $147 $249 forward $91 $-1 #
coedge $-1 $149 $149 $92 $150 forward $144 $-1 #
edge $-1 $250 0 $250 6.2831853071796004 $149 $251 forward 7 unknown #
loop $-1 $-1 $156 $93 #
plane-surface $-1 -48.491142084822584 -12.463692001709525 87.945210113338305 0.55919291073839883 0 0.82903756765294845 0.82903756765294845 0 -0.55919291073839883 forward_v I I I I #
loop $-1 $-1 $252 $60 #
coedge $-1 $154 $154 $155 $253 reversed $94 $-1 #
coedge $-1 $155 $155 $154 $253 forward $96 $-1 #
coedge $-1 $156 $156 $97 $157 forward $151 $-1 #
edge $-1 $254 0 $254 6.2831853071796004 $156 $255 forward 7 unknown #
face $-1 $256 $257 $33 $-1 $258 forward single #
loop $-1 $-1 $259 $98 #
plane-surface $-1 -73.68633075960571 0 0 1 0 0 0 0 -1 forward_v I I I I #
coedge $-1 $260 $261 $262 $263 reversed $99 $-1 #
coedge $-1 $264 $101 $265 $266 reversed $64 $-1 #
coedge $-1 $101 $264 $260 $267 forward $64 $-1 #
coedge $-1 $262 $268 $101 $165 forward $257 $-1 #
edge $-1 $269 -11.081481551658573 $270 -1.3822104500509509 $164 $271 forward 7 unknown #
loop $-1 $-1 $171 $102 #
plane-surface $-1 -73.686330759605724 -12.463692001709525 5.5354625551456706 -0.55919291073839883 0 0.82903756765294845 0.82903756765294845 0 0.55919291073839883 forward_v I I I I #
loop $-1 $-1 $272 $66 #
coedge $-1 $169 $169 $170 $273 reversed $103 $-1 #
coedge $-1 $170 $170 $169 $273 forward $105 $-1 #
coedge $-1 $171 $171 $106 $172 forward $166 $-1 #
edge $-1 $274 0 $274 6.2831853071796004 $171 $275 forward 7 unknown #
loop $-1 $-1 $178 $107 #
plane-surface $-1 -73.686330759605724 -12.463692001709525 5.5354625551456706 -0.55919291073839883 0 0.82903756765294845 0.82903756765294845 0 0.55919291073839883 forward_v I I I I #
loop $-1 $-1 $276 $69 #
coedge $-1 $176 $176 $177 $277 reversed $108 $-1 #
coedge $-1 $177 $177 $176 $277 forward $110 $-1 #
coedge $-1 $178 $178 $111 $179 forward $173 $-1 #
edge $-1 $278 0 $278 6.2831853071796004 $178 $279 forward 7 unknown #
face $-1 $280 $281 $27 $-1 $282 reversed single #
loop $-1 $-1 $283 $112 #
plane-surface $-1 -73.68633075960571 0 0 1 0 0 0 0 -1 forward_v I I I I #
coedge $-1 $284 $191 $285 $286 forward $113 $-1 #
coedge $-1 $287 $115 $284 $288 forward $73 $-1 #
coedge $-1 $115 $287 $289 $290 forward $73 $-1 #
coedge $-1 $194 $193 $115 $187 reversed $195 $-1 #
edge $-1 $291 -32.760024696792023 $292 32.760024696792023 $186 $293 forward 7 unknown #
coedge $-1 $117 $116 $294 $295 forward $46 $-1 #
coedge $-1 $296 $297 $116 $190 reversed $281 $-1 #
edge $-1 $197 -73.68633075960571 $298 73.68633075960571 $189 $299 forward 7 unknown #
coedge $-1 $183 $300 $117 $192 reversed $113 $-1 #
edge $-1 $301 -73.68633075960571 $196 73.68633075960571 $191 $302 forward 7 unknown #
coedge $-1 $186 $118 $300 $303 forward $195 $-1 #
coedge $-1 $118 $186 $296 $304 reversed $195 $-1 #
loop $-1 $-1 $193 $280 #
vertex $-1 $119 $305 #
vertex $-1 $119 $306 #
straight-curve $-1 73.68633075960571 0 13.150000086427385 0 1 0 I I #
face $-1 $307 $213 $28 $-1 $308 forward single #
loop $-1 $-1 $309 $120 #
plane-surface $-1 0 -32.760024696792023 0 0 1 0 0 0 1 forward_v I I I I #
coedge $-1 $310 $311 $125 $210 forward $121 $-1 #
coedge $-1 $312 $123 $309 $313 reversed $77 $-1 #
coedge $-1 $123 $312 $207 $314 forward $77 $-1 #
coedge $-1 $208 $315 $123 $206 forward $316 $-1 #
edge $-1 $317 -20.241686634465683 $318 -4.7949894901869961 $205 $319 forward 7 unknown #
coedge $-1 $125 $124 $204 $314 reversed $49 $-1 #
coedge $-1 $320 $205 $124 $209 forward $316 $-1 #
edge $-1 $318 3.6239252382105045 $214 7.5586916448814216 $208 $321 forward 7 unknown #
edge $-1 $215 -7.5586916448814216 $322 -3.6239252382105045 $202 $323 forward 7 unknown #
coedge $-1 $324 $126 $311 $325 forward $213 $-1 #
coedge $-1 $126 $324 $320 $326 forward $213 $-1 #
loop $-1 $-1 $126 $199 #
vertex $-1 $209 $327 #
vertex $-1 $325 $328 #
straight-curve $-1 0 -17.313327552513336 13.150000086427385 -1 0 0 I I #
face $-1 $329 $330 $29 $-1 $331 reversed single #
loop $-1 $-1 $230 $128 #
plane-surface $-1 73.68633075960571 0 0 -1 0 0 0 0 1 forward_v I I I I #
coedge $-1 $332 $333 $222 $334 forward $129 $-1 #
coedge $-1 $335 $131 $132 $226 reversed $81 $-1 #
coedge $-1 $131 $335 $220 $334 reversed $81 $-1 #
coedge $-1 $336 $337 $131 $224 forward $330 $-1 #
edge $-1 $338 3.6239252382105045 $339 7.5586916448814216 $223 $340 forward 7 unknown #
coedge $-1 $133 $132 $337 $341 reversed $52 $-1 #
edge $-1 $231 -73.68633075960571 $338 73.68633075960571 $221 $342 forward 7 unknown #
coedge $-1 $343 $344 $133 $228 forward $345 $-1 #
edge $-1 $232 -73.68633075960571 $346 73.68633075960571 $227 $347 forward 7 unknown #
coedge $-1 $348 $134 $344 $349 reversed $218 $-1 #
coedge $-1 $134 $348 $335 $350 forward $218 $-1 #
vertex $-1 $135 $351 #
vertex $-1 $228 $352 #
straight-curve $-1 73.68633075960571 12.51833806232634 9.2152336797564676 0 1 0 I I #
face $-1 $-1 $353 $30 $-1 $354 reversed single #
loop $-1 $-1 $355 $136 #
plane-surface $-1 0 -17.313327552513336 11.182616883091926 0 -1 0 0 0 -1 forward_v I I I I #
coedge $-1 $356 $139 $141 $243 forward $85 $-1 #
coedge $-1 $139 $356 $355 $357 forward $85 $-1 #
coedge $-1 $358 $142 $139 $240 forward $137 $-1 #
edge $-1 $246 1.3822104500509509 $359 11.081481551658573 $239 $360 forward 7 unknown #
coedge $-1 $361 $362 $140 $242 forward $353 $-1 #
edge $-1 $363 -99.525878923737636 $245 -91.911341392455924 $241 $364 forward 7 unknown #
edge $-1 $246 133.75564781060245 $363 147.37266151921136 $141 $365 forward 7 unknown #
coedge $-1 $142 $358 $361 $366 forward $137 $-1 #
vertex $-1 $242 $367 #
vertex $-1 $143 $368 #
straight-curve $-1 16.959302736685032 -7.6140564509057134 13.150000086427383 -1 0 0 I I #
coedge $-1 $248 $248 $-1 $369 reversed $146 $-1 #
edge $-1 $370 0 $370 6.2831853071796004 $147 $371 forward 7 unknown #
vertex $-1 $150 $372 #
ellipse-curve $-1 68.041822797764723 -14.542107237768302 9.3427313207865019 0.55919291073839883 0 0.82903756765294845 0.82903756765294845 0 -0.55919291073839883 1 I I #
coedge $-1 $252 $252 $-1 $373 reversed $153 $-1 #
edge $-1 $374 0 $374 6.2831853071796004 $154 $375 forward 7 unknown #
vertex $-1 $157 $376 #
ellipse-curve $-1 68.041822797764723 -10.385276765650751 9.3427313207865019 0.55919291073839883 0 0.82903756765294845 0.82903756765294845 0 -0.55919291073839883 1 I I #
face $-1 $-1 $377 $33 $-1 $378 forward single #
loop $-1 $-1 $262 $158 #
plane-surface $-1 0 0 13.150000086427385 0 0 1 1 0 0 forward_v I I I I #
coedge $-1 $379 $380 $261 $381 forward $159 $-1 #
coedge $-1 $261 $161 $163 $267 reversed $99 $-1 #
coedge $-1 $161 $260 $259 $381 reversed $99 $-1 #
coedge $-1 $382 $164 $161 $263 forward $257 $-1 #
edge $-1 $270 -15.650724322975478 $383 -4.3617083992934766 $262 $384 forward 7 unknown #
coedge $-1 $163 $162 $379 $385 reversed $64 $-1 #
coedge $-1 $386 $387 $162 $266 forward $377 $-1 #
edge $-1 $388 -32.123292544123672 $269 -18.506278835514749 $265 $389 forward 7 unknown #
edge $-1 $390 1.7244626260799089e-014 $270 13.617013708608944 $260 $391 forward 7 unknown #
coedge $-1 $164 $382 $386 $392 forward $257 $-1 #
vertex $-1 $266 $393 #
vertex $-1 $165 $394 #
straight-curve $-1 -62.397314835923709 -6.2318460008547625 13.150000086427385 0 1 0 I I #
coedge $-1 $272 $272 $-1 $395 reversed $168 $-1 #
edge $-1 $396 0 $396 6.2831853071796004 $169 $397 forward 7 unknown #
vertex $-1 $172 $398 #
ellipse-curve $-1 -68.041822797764695 -14.542107237768302 9.342731320786541 -0.55919291073839883 0 0.82903756765294845 0.82903756765294845 0 0.55919291073839883 1 I I #
coedge $-1 $276 $276 $-1 $399 reversed $175 $-1 #
edge $-1 $400 0 $400 6.2831853071796004 $176 $401 forward 7 unknown #
vertex $-1 $179 $402 #
ellipse-curve $-1 -68.041822797764695 -10.385276765650751 9.342731320786541 -0.55919291073839883 0 0.82903756765294845 0.82903756765294845 0 0.55919291073839883 1 I I #
face $-1 $-1 $195 $27 $-1 $403 reversed single #
loop $-1 $-1 $296 $180 #
plane-surface $-1 0 32.760024696792023 0 0 -1 0 0 0 -1 forward_v I I I I #
coedge $-1 $404 $294 $297 $405 forward $181 $-1 #
coedge $-1 $300 $183 $184 $288 reversed $113 $-1 #
coedge $-1 $294 $404 $183 $286 reversed $181 $-1 #
edge $-1 $301 -13.150000086427385 $406 13.150000086427385 $285 $407 forward 7 unknown #
coedge $-1 $185 $184 $404 $408 forward $73 $-1 #
edge $-1 $292 -73.68633075960571 $406 73.68633075960571 $284 $409 forward 7 unknown #
coedge $-1 $297 $296 $185 $290 reversed $281 $-1 #
edge $-1 $410 -73.68633075960571 $291 73.68633075960571 $289 $411 forward 7 unknown #
vertex $-1 $187 $412 #
vertex $-1 $303 $413 #
straight-curve $-1 73.68633075960571 0 -13.150000086427385 0 -1 0 I I #
coedge $-1 $283 $285 $188 $295 reversed $181 $-1 #
edge $-1 $298 -32.760024696792023 $301 32.760024696792023 $294 $414 forward 7 unknown #
coedge $-1 $289 $189 $194 $304 forward $281 $-1 #
coedge $-1 $189 $289 $283 $405 reversed $281 $-1 #
vertex $-1 $190 $415 #
straight-curve $-1 0 32.760024696792023 13.150000086427385 -1 0 0 I I #
coedge $-1 $191 $284 $193 $303 reversed $113 $-1 #
vertex $-1 $295 $416 #
straight-curve $-1 0 -32.760024696792023 13.150000086427385 1 0 0 I I #
edge $-1 $196 -13.150000086427385 $292 13.150000086427385 $193 $417 forward 7 unknown #
edge $-1 $197 -13.150000086427385 $291 13.150000086427385 $194 $418 forward 7 unknown #
point $-1 73.68633075960571 -32.760024696792023 13.150000086427385 #
point $-1 73.68633075960571 32.760024696792023 13.150000086427385 #
face $-1 $-1 $316 $28 $-1 $419 reversed single #
plane-surface $-1 0 0 13.150000086427385 0 0 1 1 0 0 forward_v I I I I #
coedge $-1 $420 $421 $203 $313 forward $200 $-1 #
coedge $-1 $422 $202 $312 $423 forward $121 $-1 #
coedge $-1 $202 $422 $211 $325 reversed $121 $-1 #
coedge $-1 $204 $203 $310 $423 reversed $77 $-1 #
edge $-1 $424 -73.68633075960571 $317 73.68633075960571 $309 $425 forward 7 unknown #
edge $-1 $322 -73.68633075960571 $318 73.68633075960571 $207 $426 forward 7 unknown #
coedge $-1 $205 $320 $420 $427 forward $316 $-1 #
loop $-1 $-1 $208 $307 #
vertex $-1 $313 $428 #
vertex $-1 $206 $429 #
straight-curve $-1 73.68633075960571 -12.51833806232634 9.2152336797564676 0 1 0 I I #
coedge $-1 $315 $208 $212 $326 reversed $316 $-1 #
straight-curve $-1 73.68633075960571 -17.313327552513336 5.5913084415459631 0 0 1 I I #
vertex $-1 $423 $430 #
straight-curve $-1 -73.68633075960571 -17.313327552513336 5.5913084415459631 0 0 -1 I I #
coedge $-1 $212 $211 $431 $432 forward $213 $-1 #
edge $-1 $215 17.313327552513336 $433 32.760024696792023 $311 $434 forward 7 unknown #
edge $-1 $435 -32.760024696792023 $214 -17.313327552513336 $320 $436 forward 7 unknown #
point $-1 73.68633075960571 -17.313327552513336 13.150000086427385 #
point $-1 -73.68633075960571 -17.313327552513336 13.150000086427385 #
face $-1 $-1 $345 $29 $-1 $437 reversed single #
loop $-1 $-1 $223 $217 #
plane-surface $-1 -73.68633075960571 0 0 1 0 0 0 0 -1 forward_v I I I I #
coedge $-1 $438 $220 $348 $439 forward $129 $-1 #
coedge $-1 $220 $438 $336 $440 forward $129 $-1 #
edge $-1 $339 -73.68633075960571 $441 73.68633075960571 $220 $442 forward 7 unknown #
coedge $-1 $222 $221 $230 $350 reversed $81 $-1 #
coedge $-1 $443 $223 $333 $440 reversed $330 $-1 #
coedge $-1 $223 $443 $225 $341 forward $330 $-1 #
vertex $-1 $341 $444 #
vertex $-1 $224 $445 #
straight-curve $-1 -73.68633075960571 17.313327552513336 5.5913084415459631 0 0 1 I I #
edge $-1 $346 -20.241686634465683 $338 -4.7949894901869961 $337 $446 forward 7 unknown #
straight-curve $-1 0 17.313327552513336 9.2152336797564676 -1 0 0 I I #
coedge $-1 $447 $227 $443 $448 reversed $345 $-1 #
coedge $-1 $227 $447 $229 $349 forward $345 $-1 #
loop $-1 $-1 $227 $329 #
vertex $-1 $228 $449 #
straight-curve $-1 0 32.760024696792023 9.2152336797564676 -1 0 0 I I #
coedge $-1 $230 $229 $332 $439 reversed $218 $-1 #
edge $-1 $450 -13.150000086427385 $232 -9.2152336797564676 $229 $451 forward 7 unknown #
edge $-1 $441 -7.5586916448814216 $231 -3.6239252382105045 $230 $452 forward 7 unknown #
point $-1 73.68633075960571 17.313327552513336 9.2152336797564676 #
point $-1 73.68633075960571 32.760024696792023 9.2152336797564676 #
loop $-1 $-1 $241 $234 #
plane-surface $-1 73.68633075960571 0 0 -1 0 0 0 0 1 forward_v I I I I #
coedge $-1 $453 $454 $238 $357 reversed $235 $-1 #
coedge $-1 $238 $237 $362 $455 reversed $85 $-1 #
edge $-1 $456 -147.37266151921136 $359 -133.75564781060245 $355 $457 forward 7 unknown #
coedge $-1 $244 $239 $454 $458 forward $137 $-1 #
vertex $-1 $458 $459 #
straight-curve $-1 62.397314835923673 -6.2318460008547625 13.150000086427383 0 -1 0 I I #
coedge $-1 $460 $241 $244 $366 reversed $353 $-1 #
coedge $-1 $241 $460 $356 $455 forward $353 $-1 #
vertex $-1 $242 $461 #
straight-curve $-1 73.68633075960571 -7.6140564509057134 105.06134147888331 0 0 1 I I #
straight-curve $-1 -48.491142084822584 -7.6140564509057134 87.945210113338305 0.82903756765294845 0 -0.55919291073839883 I I #
edge $-1 $462 -17.313327552513336 $245 -7.6140564509057134 $361 $463 forward 7 unknown #
point $-1 73.68633075960571 -7.6140564509057134 13.150000086427385 #
point $-1 62.397314835923694 -7.6140564509057134 13.150000086427383 #
edge $-1 $464 1 $464 0 $248 $-1 forward 7 unknown #
vertex $-1 $249 $465 #
ellipse-curve $-1 65.829574614777883 -14.542107237768302 6.0629385740468029 0.55919291073839883 0 0.82903756765294845 0.82903756765294845 0 -0.55919291073839883 1 I I #
point $-1 68.870860365417656 -14.542107237768302 8.7835384100480915 #
edge $-1 $466 1 $466 0 $252 $-1 forward 7 unknown #
vertex $-1 $253 $467 #
ellipse-curve $-1 65.829574614777883 -10.385276765650751 6.0629385740468029 0.55919291073839883 0 0.82903756765294845 0.82903756765294845 0 -0.55919291073839883 1 I I #
point $-1 68.870860365417656 -10.385276765650751 8.7835384100480915 #
loop $-1 $-1 $265 $256 #
plane-surface $-1 0 -17.313327552513336 11.182616883091926 0 -1 0 0 0 -1 forward_v I I I I #
coedge $-1 $468 $259 $264 $385 forward $159 $-1 #
coedge $-1 $259 $468 $382 $469 reversed $159 $-1 #
edge $-1 $383 50.706467613359607 $390 58.321005144641312 $259 $470 forward 7 unknown #
coedge $-1 $268 $262 $380 $469 forward $257 $-1 #
vertex $-1 $469 $471 #
straight-curve $-1 -78.048039158899186 -7.6140564509057134 13.150000086427383 -1 0 0 I I #
edge $-1 $390 1.3822104500509509 $388 11.081481551658573 $379 $472 forward 7 unknown #
coedge $-1 $387 $265 $268 $392 reversed $377 $-1 #
coedge $-1 $265 $386 $468 $473 reversed $377 $-1 #
vertex $-1 $473 $474 #
straight-curve $-1 -47.054914443821325 -17.313327552513336 23.498580015395305 0.82903756765294845 0 0.55919291073839883 I I #
vertex $-1 $385 $475 #
straight-curve $-1 -73.686330759605724 -7.6140564509057134 5.5354625551456706 0.82903756765294845 0 0.55919291073839883 I I #
edge $-1 $476 -73.68633075960571 $269 -62.397314835923709 $268 $477 forward 7 unknown #
point $-1 -62.397314835923709 -17.313327552513336 13.150000086427385 #
point $-1 -62.397314835923709 -7.6140564509057134 13.150000086427385 #
edge $-1 $478 1 $478 0 $272 $-1 forward 7 unknown #
vertex $-1 $273 $479 #
ellipse-curve $-1 -65.829574614777854 -14.542107237768302 6.0629385740468278 -0.55919291073839883 0 0.82903756765294845 0.82903756765294845 0 0.55919291073839883 1 I I #
point $-1 -67.212785230111734 -14.542107237768302 9.9019242315249141 #
edge $-1 $480 1 $480 0 $276 $-1 forward 7 unknown #
vertex $-1 $277 $481 #
ellipse-curve $-1 -65.829574614777854 -10.385276765650751 6.0629385740468278 -0.55919291073839883 0 0.82903756765294845 0.82903756765294845 0 0.55919291073839883 1 I I #
point $-1 -67.212785230111734 -10.385276765650751 9.9019242315249141 #
plane-surface $-1 73.68633075960571 0 0 -1 0 0 0 0 1 forward_v I I I I #
coedge $-1 $285 $283 $287 $408 reversed $181 $-1 #
edge $-1 $298 -13.150000086427385 $410 13.150000086427385 $297 $482 forward 7 unknown #
vertex $-1 $408 $483 #
straight-curve $-1 -73.68633075960571 -32.760024696792023 0 0 0 -1 I I #
edge $-1 $406 -32.760024696792023 $410 32.760024696792023 $404 $484 forward 7 unknown #
straight-curve $-1 0 -32.760024696792023 -13.150000086427385 -1 0 0 I I #
vertex $-1 $290 $485 #
straight-curve $-1 0 32.760024696792023 -13.150000086427385 1 0 0 I I #
point $-1 73.68633075960571 32.760024696792023 -13.150000086427385 #
point $-1 73.68633075960571 -32.760024696792023 -13.150000086427385 #
straight-curve $-1 -73.68633075960571 0 13.150000086427385 0 -1 0 I I #
point $-1 -73.68633075960571 32.760024696792023 13.150000086427385 #
point $-1 -73.68633075960571 -32.760024696792023 13.150000086427385 #
straight-curve $-1 73.68633075960571 -32.760024696792023 0 0 0 -1 I I #
straight-curve $-1 73.68633075960571 32.760024696792023 0 0 0 -1 I I #
plane-surface $-1 73.68633075960571 0 0 -1 0 0 0 0 1 forward_v I I I I #
coedge $-1 $431 $309 $315 $427 reversed $200 $-1 #
coedge $-1 $309 $431 $422 $486 forward $200 $-1 #
coedge $-1 $311 $310 $421 $486 reversed $121 $-1 #
edge $-1 $322 4.7949894901869961 $424 20.241686634465683 $310 $487 forward 7 unknown #
vertex $-1 $313 $488 #
straight-curve $-1 0 -32.760024696792023 9.2152336797564676 1 0 0 I I #
straight-curve $-1 0 -17.313327552513336 9.2152336797564676 1 0 0 I I #
edge $-1 $435 -13.150000086427385 $317 -9.2152336797564676 $315 $489 forward 7 unknown #
point $-1 73.68633075960571 -32.760024696792023 9.2152336797564676 #
point $-1 73.68633075960571 -17.313327552513336 9.2152336797564676 #
point $-1 -73.68633075960571 -17.313327552513336 9.2152336797564676 #
coedge $-1 $421 $420 $324 $432 reversed $200 $-1 #
edge $-1 $433 -73.68633075960571 $435 73.68633075960571 $431 $490 forward 7 unknown #
vertex $-1 $325 $491 #
straight-curve $-1 -73.68633075960571 0 13.150000086427385 0 -1 0 I I #
vertex $-1 $326 $492 #
straight-curve $-1 73.68633075960571 0 13.150000086427385 0 1 0 I I #
plane-surface $-1 0 32.760024696792023 0 0 -1 0 0 0 -1 forward_v I I I I #
coedge $-1 $333 $332 $447 $493 forward $129 $-1 #
edge $-1 $441 17.313327552513336 $450 32.760024696792023 $348 $494 forward 7 unknown #
edge $-1 $495 -32.760024696792023 $339 -17.313327552513336 $336 $496 forward 7 unknown #
vertex $-1 $439 $497 #
straight-curve $-1 0 17.313327552513336 13.150000086427385 1 0 0 I I #
coedge $-1 $337 $336 $343 $448 forward $330 $-1 #
point $-1 -73.68633075960571 17.313327552513336 9.2152336797564676 #
point $-1 -73.68633075960571 17.313327552513336 13.150000086427385 #
straight-curve $-1 -73.68633075960571 12.51833806232634 9.2152336797564676 0 -1 0 I I #
coedge $-1 $344 $343 $438 $493 reversed $345 $-1 #
edge $-1 $495 -13.150000086427385 $346 -9.2152336797564676 $343 $498 forward 7 unknown #
point $-1 -73.68633075960571 32.760024696792023 9.2152336797564676 #
vertex $-1 $439 $499 #
straight-curve $-1 73.68633075960571 32.760024696792023 0 0 0 -1 I I #
straight-curve $-1 73.68633075960571 17.313327552513336 5.5913084415459631 0 0 -1 I I #
coedge $-1 $454 $355 $460 $500 reversed $235 $-1 #
coedge $-1 $355 $453 $358 $458 reversed $235 $-1 #
edge $-1 $456 -11.081481551658573 $363 -1.3822104500509509 $362 $501 forward 7 unknown #
vertex $-1 $500 $502 #
straight-curve $-1 -48.491142084822584 -17.313327552513336 87.945210113338305 -0.82903756765294845 0 0.55919291073839883 I I #
edge $-1 $359 62.397314835923694 $462 73.68633075960571 $358 $503 forward 7 unknown #
point $-1 62.397314835923694 -17.313327552513336 13.150000086427383 #
coedge $-1 $362 $361 $453 $500 forward $353 $-1 #
point $-1 73.686330759605696 -7.6140564509057134 5.5354625551456706 #
vertex $-1 $366 $504 #
straight-curve $-1 73.68633075960571 0 13.150000086427385 0 1 0 I I #
vertex $-1 $369 $505 #
point $-1 66.658612182430829 -14.542107237768302 5.5037456633084041 #
vertex $-1 $373 $506 #
point $-1 66.658612182430829 -10.385276765650751 5.5037456633084041 #
coedge $-1 $380 $379 $387 $473 forward $159 $-1 #
edge $-1 $383 7.6140564509057134 $476 17.313327552513336 $380 $507 forward 7 unknown #
straight-curve $-1 -73.68633075960571 -7.6140564509057134 63.85646769978699 0 0 -1 I I #
point $-1 -73.68633075960571 -7.6140564509057134 13.150000086427385 #
straight-curve $-1 -73.68633075960571 -6.2318460008547625 5.5354625551456742 0 -1 0 I I #
edge $-1 $388 -58.321005144641312 $476 -50.706467613359607 $468 $508 forward 7 unknown #
point $-1 -73.68633075960571 -17.313327552513336 5.5354625551456804 #
point $-1 -73.68633075960571 -7.6140564509057134 5.5354625551456804 #
vertex $-1 $473 $509 #
straight-curve $-1 0 -17.313327552513336 13.150000086427385 1 0 0 I I #
vertex $-1 $395 $510 #
point $-1 -65.000537047124908 -14.542107237768302 6.6221314847852266 #
vertex $-1 $399 $511 #
point $-1 -65.000537047124908 -10.385276765650751 6.6221314847852266 #
straight-curve $-1 -73.68633075960571 32.760024696792023 0 0 0 -1 I I #
point $-1 -73.68633075960571 -32.760024696792023 -13.150000086427385 #
straight-curve $-1 -73.68633075960571 0 -13.150000086427385 0 1 0 I I #
point $-1 -73.68633075960571 32.760024696792023 -13.150000086427385 #
edge $-1 $433 -13.150000086427385 $424 -9.2152336797564676 $422 $512 forward 7 unknown #
straight-curve $-1 -73.68633075960571 -12.51833806232634 9.2152336797564676 0 -1 0 I I #
point $-1 -73.68633075960571 -32.760024696792023 9.2152336797564676 #
straight-curve $-1 73.68633075960571 -32.760024696792023 0 0 0 -1 I I #
straight-curve $-1 0 -32.760024696792023 13.150000086427385 1 0 0 I I #
point $-1 -73.68633075960571 -32.760024696792023 13.150000086427385 #
point $-1 73.68633075960571 -32.760024696792023 13.150000086427385 #
edge $-1 $450 -73.68633075960571 $495 73.68633075960571 $447 $513 forward 7 unknown #
straight-curve $-1 73.68633075960571 0 13.150000086427385 0 1 0 I I #
vertex $-1 $493 $514 #
straight-curve $-1 -73.68633075960571 0 13.150000086427385 0 -1 0 I I #
point $-1 73.68633075960571 17.313327552513336 13.150000086427385 #
straight-curve $-1 -73.68633075960571 32.760024696792023 0 0 0 -1 I I #
point $-1 73.68633075960571 32.760024696792023 13.150000086427385 #
edge $-1 $462 91.911341392455924 $456 99.525878923737636 $460 $515 forward 7 unknown #
straight-curve $-1 73.68633075960571 -6.2318460008547625 5.5354625551456564 0 1 0 I I #
point $-1 73.686330759605696 -17.313327552513336 5.5354625551456706 #
straight-curve $-1 0 -17.313327552513336 13.150000086427385 1 0 0 I I #
point $-1 73.68633075960571 -17.313327552513336 13.150000086427385 #
point $-1 65.27038170403948 -14.542107237768302 5.2339010063938547 #
point $-1 65.27038170403948 -10.385276765650751 5.2339010063938547 #
straight-curve $-1 -73.68633075960571 0 13.150000086427385 0 -1 0 I I #
straight-curve $-1 -73.68633075960571 -17.313327552513336 63.85646769978699 0 0 1 I I #
point $-1 -73.68633075960571 -17.313327552513336 13.150000086427385 #
point $-1 -65.270381704039451 -14.542107237768302 5.2339010063938796 #
point $-1 -65.270381704039451 -10.385276765650751 5.2339010063938796 #
straight-curve $-1 -73.68633075960571 -32.760024696792023 0 0 0 -1 I I #
straight-curve $-1 0 32.760024696792023 13.150000086427385 -1 0 0 I I #
point $-1 -73.68633075960571 32.760024696792023 13.150000086427385 #
straight-curve $-1 73.68633075960571 -17.313327552513336 105.06134147888331 0 0 -1 I I #
End-of-ACIS-data 