500 0 11 0           
7 Unknown 11 ACIS 5.0 NT 24 Fri Mar 26 16:46:40 1999 
-1 9.9999999999999995e-007 1e-010 
body $-1 $11 $-1 $12 #
body $-1 $13 $-1 $14 #
body $-1 $15 $-1 $16 #
body $-1 $17 $-1 $18 #
body $-1 $19 $-1 $20 #
body $-1 $21 $-1 $22 #
body $-1 $23 $-1 $24 #
body $-1 $25 $-1 $26 #
body $-1 $27 $-1 $28 #
body $-1 $29 $-1 $30 #
body $-1 $31 $-1 $32 #
lump $-1 $-1 $33 $0 #
transform $-1 1 0 0 0 1 0 0 0 1 68.64955595568712 41.372843751046084 18.729207449469495 1 rotate no_reflect no_shear #
lump $-1 $-1 $34 $1 #
transform $-1 1 0 0 0 1 0 0 0 1 68.64955595568712 41.372843751046084 18.729207449469495 1 rotate no_reflect no_shear #
lump $-1 $-1 $35 $2 #
transform $-1 1 0 0 0 1 0 0 0 1 68.64955595568712 41.372843751046084 18.729207449469495 1 rotate no_reflect no_shear #
lump $-1 $-1 $36 $3 #
transform $-1 1 0 0 0 1 0 0 0 1 68.64955595568712 41.372843751046084 18.729207449469495 1 rotate no_reflect no_shear #
lump $-1 $-1 $37 $4 #
transform $-1 1 0 0 0 1 0 0 0 1 68.64955595568712 41.372843751046084 18.729207449469495 1 rotate no_reflect no_shear #
lump $-1 $-1 $38 $5 #
transform $-1 1 0 0 0 1 0 0 0 1 68.64955595568712 41.372843751046084 18.729207449469495 1 rotate no_reflect no_shear #
lump $-1 $-1 $39 $6 #
transform $-1 1 0 0 0 1 0 0 0 1 68.64955595568712 41.372843751046084 18.729207449469495 1 rotate no_reflect no_shear #
lump $-1 $-1 $40 $7 #
transform $-1 1 0 0 0 1 0 0 0 1 68.64955595568712 41.372843751046084 18.729207449469495 1 rotate no_reflect no_shear #
lump $-1 $-1 $41 $8 #
transform $-1 1 0 0 0 1 0 0 0 1 68.64955595568712 41.372843751046084 18.729207449469495 1 rotate no_reflect no_shear #
lump $-1 $-1 $42 $9 #
transform $-1 1 0 0 0 1 0 0 0 1 68.64955595568712 41.372843751046084 18.729207449469495 1 rotate no_reflect no_shear #
lump $-1 $-1 $43 $10 #
transform $-1 1 0 0 0 1 0 0 0 1 68.64955595568712 41.372843751046084 18.729207449469495 1 rotate no_reflect no_shear #
shell $-1 $-1 $-1 $44 $-1 $11 #
shell $-1 $-1 $-1 $45 $-1 $13 #
shell $-1 $-1 $-1 $46 $-1 $15 #
shell $-1 $-1 $-1 $47 $-1 $17 #
shell $-1 $-1 $-1 $48 $-1 $19 #
shell $-1 $-1 $-1 $49 $-1 $21 #
shell $-1 $-1 $-1 $50 $-1 $23 #
shell $-1 $-1 $-1 $51 $-1 $25 #
shell $-1 $-1 $-1 $52 $-1 $27 #
shell $-1 $-1 $-1 $53 $-1 $29 #
shell $-1 $-1 $-1 $54 $-1 $31 #
face $-1 $55 $56 $33 $-1 $57 forward single #
face $-1 $58 $59 $34 $-1 $60 reversed single #
face $-1 $61 $62 $35 $-1 $63 reversed single #
face $-1 $64 $65 $36 $-1 $66 reversed single #
face $-1 $67 $68 $37 $-1 $69 forward single #
face $-1 $70 $71 $38 $-1 $72 forward single #
face $-1 $73 $74 $39 $-1 $75 forward single #
face $-1 $76 $77 $40 $-1 $78 reversed single #
face $-1 $79 $80 $41 $-1 $81 forward single #
face $-1 $82 $83 $42 $-1 $84 forward single #
face $-1 $85 $86 $43 $-1 $87 forward single #
face $-1 $88 $89 $33 $-1 $90 reversed single #
loop $-1 $-1 $91 $44 #
plane-surface $-1 0 0 18.729207449469495 0 0 1 1 0 0 forward_v I I I I #
face $-1 $92 $93 $34 $-1 $94 reversed single #
loop $-1 $-1 $95 $45 #
plane-surface $-1 -62.274143047579607 -30.215741641914342 0 1 0 0 0 0 -1 forward_v I I I I #
face $-1 $96 $97 $35 $-1 $98 reversed single #
loop $-1 $-1 $99 $46 #
plane-surface $-1 -58.432560652269096 19.0586395327826 0 0 1 0 0 0 1 forward_v I I I I #
face $-1 $100 $101 $36 $-1 $102 reversed single #
loop $-1 $-1 $103 $47 #
plane-surface $-1 -182.47567951721376 -9.1135348646991048 87.722376292506354 0 1 0 -0.82903758062907751 0 0.55919289150049634 forward_v I I I I #
face $-1 $104 $105 $37 $-1 $106 forward single #
loop $-1 $107 $108 $48 #
cone-surface $-1 -65.486277973849283 -7.8755166113177069 14.474391760185664 0.82903758062907751 0 -0.55919289150049634 0.27959644575024817 0 0.41451879031453875 1 I I 0 1 0.5 forward I I I I #
face $-1 $109 $110 $38 $-1 $111 forward single #
loop $-1 $112 $113 $49 #
cone-surface $-1 -65.486277973849283 -6.01848923124561 14.474391760185664 0.82903758062907751 0 -0.55919289150049634 0.27959644575024817 0 0.41451879031453875 1 I I 0 1 0.5 forward I I I I #
face $-1 $114 $115 $39 $-1 $116 forward single #
loop $-1 $117 $118 $50 #
cone-surface $-1 -65.486277973849283 -4.1614618511735131 14.474391760185664 0.82903758062907751 0 -0.55919289150049634 0.27959644575024817 0 0.41451879031453875 1 I I 0 1 0.5 forward I I I I #
face $-1 $119 $120 $40 $-1 $121 reversed single #
loop $-1 $-1 $122 $51 #
plane-surface $-1 105.69899212704216 -2.9234435977921152 201.548499854033 0 -1 0 -0.82903758062907751 0 -0.55919289150049634 forward_v I I I I #
face $-1 $123 $124 $41 $-1 $125 forward single #
loop $-1 $126 $127 $52 #
cone-surface $-1 65.486277973849269 -7.8755166113177069 14.474391760185664 -0.82903758062907751 0 -0.55919289150049634 0.27959644575024817 0 -0.41451879031453875 1 I I 0 1 0.5 forward I I I I #
face $-1 $128 $129 $42 $-1 $130 forward single #
loop $-1 $131 $132 $53 #
cone-surface $-1 65.486277973849269 -6.01848923124561 14.474391760185664 -0.82903758062907751 0 -0.55919289150049634 0.27959644575024817 0 -0.41451879031453875 1 I I 0 1 0.5 forward I I I I #
face $-1 $133 $134 $43 $-1 $135 forward single #
loop $-1 $136 $137 $54 #
cone-surface $-1 65.486277973849269 -4.1614618511735131 14.474391760185664 -0.82903758062907751 0 -0.55919289150049634 0.27959644575024817 0 -0.41451879031453875 1 I I 0 1 0.5 forward I I I I #
face $-1 $138 $139 $33 $-1 $140 reversed single #
loop $-1 $-1 $141 $55 #
plane-surface $-1 0 0 -18.729207449469495 0 0 1 1 0 0 forward_v I I I I #
coedge $-1 $142 $143 $144 $145 forward $56 $-1 #
face $-1 $146 $147 $34 $-1 $148 reversed single #
loop $-1 $-1 $149 $58 #
plane-surface $-1 -58.432560652269096 -19.0586395327826 0 0 -1 0 0 0 -1 forward_v I I I I #
coedge $-1 $150 $151 $152 $153 forward $59 $-1 #
face $-1 $154 $155 $35 $-1 $156 reversed single #
loop $-1 $-1 $157 $61 #
plane-surface $-1 -62.274143047579607 30.215741641914342 0 1 0 0 0 0 -1 forward_v I I I I #
coedge $-1 $158 $159 $160 $161 forward $62 $-1 #
face $-1 $162 $163 $36 $-1 $164 reversed single #
loop $-1 $-1 $165 $64 #
plane-surface $-1 -68.649555955687106 -6.01848923124561 10.945688902334751 -0.82903758062907751 0 0.55919289150049634 0.55919289150049634 0 0.82903758062907751 forward_v I I I I #
coedge $-1 $166 $167 $168 $169 reversed $65 $-1 #
face $-1 $-1 $170 $37 $-1 $171 forward single #
loop $-1 $172 $173 $67 #
cone-surface $-1 -64.740765290618555 -7.8755166113177069 13.971537121594071 0.82903758062907751 0 -0.55919289150049634 0.13979822287512408 0 0.20725939515726938 1 I I -0.70710678118654746 0.70710678118654746 0.25 forward I I I I #
loop $-1 $-1 $174 $48 #
coedge $-1 $108 $108 $175 $176 reversed $68 $-1 #
face $-1 $-1 $177 $38 $-1 $178 forward single #
loop $-1 $179 $180 $70 #
cone-surface $-1 -64.740765290618555 -6.01848923124561 13.971537121594071 0.82903758062907751 0 -0.55919289150049634 0.13979822287512408 0 0.20725939515726938 1 I I -0.70710678118654746 0.70710678118654746 0.25 forward I I I I #
loop $-1 $-1 $181 $49 #
coedge $-1 $113 $113 $182 $183 reversed $71 $-1 #
face $-1 $-1 $184 $39 $-1 $185 forward single #
loop $-1 $186 $187 $73 #
cone-surface $-1 -64.740765290618555 -4.1614618511735131 13.971537121594071 0.82903758062907751 0 -0.55919289150049634 0.13979822287512408 0 0.20725939515726938 1 I I -0.70710678118654746 0.70710678118654746 0.25 forward I I I I #
loop $-1 $-1 $188 $50 #
coedge $-1 $118 $118 $189 $190 reversed $74 $-1 #
face $-1 $191 $192 $40 $-1 $193 reversed single #
loop $-1 $-1 $194 $76 #
plane-surface $-1 -8.1271314344844967 -6.01848923124561 124.77181246386139 0.82903758062907751 0 0.55919289150049634 0.55919289150049634 0 -0.82903758062907751 forward_v I I I I #
coedge $-1 $195 $196 $197 $198 reversed $77 $-1 #
face $-1 $-1 $199 $41 $-1 $200 forward single #
loop $-1 $201 $202 $79 #
cone-surface $-1 64.74076529061854 -7.8755166113177069 13.971537121594071 -0.82903758062907751 0 -0.55919289150049634 0.13979822287512408 0 -0.20725939515726938 1 I I -0.70710678118654746 0.70710678118654746 0.25 forward I I I I #
loop $-1 $-1 $203 $52 #
coedge $-1 $127 $127 $204 $205 reversed $80 $-1 #
face $-1 $-1 $206 $42 $-1 $207 forward single #
loop $-1 $208 $209 $82 #
cone-surface $-1 64.74076529061854 -6.01848923124561 13.971537121594071 -0.82903758062907751 0 -0.55919289150049634 0.13979822287512408 0 -0.20725939515726938 1 I I -0.70710678118654746 0.70710678118654746 0.25 forward I I I I #
loop $-1 $-1 $210 $53 #
coedge $-1 $132 $132 $211 $212 reversed $83 $-1 #
face $-1 $-1 $213 $43 $-1 $214 forward single #
loop $-1 $215 $216 $85 #
cone-surface $-1 64.74076529061854 -4.1614618511735131 13.971537121594071 -0.82903758062907751 0 -0.55919289150049634 0.13979822287512408 0 -0.20725939515726938 1 I I -0.70710678118654746 0.70710678118654746 0.25 forward I I I I #
loop $-1 $-1 $217 $54 #
coedge $-1 $137 $137 $218 $219 reversed $86 $-1 #
face $-1 $220 $221 $33 $-1 $222 reversed single #
loop $-1 $-1 $223 $88 #
plane-surface $-1 0 -41.372843751046084 0 0 1 0 0 0 1 forward_v I I I I #
coedge $-1 $224 $225 $226 $227 forward $89 $-1 #
coedge $-1 $228 $91 $229 $230 forward $56 $-1 #
coedge $-1 $91 $228 $231 $232 forward $56 $-1 #
coedge $-1 $233 $234 $91 $145 reversed $235 $-1 #
edge $-1 $236 -41.372843751046084 $237 41.372843751046084 $144 $238 forward 7 unknown #
face $-1 $239 $240 $34 $-1 $241 forward single #
loop $-1 $-1 $242 $92 #
plane-surface $-1 -54.590978256958586 -30.215741641914342 0 -1 0 0 0 0 1 forward_v I I I I #
coedge $-1 $243 $244 $245 $246 forward $93 $-1 #
coedge $-1 $247 $95 $248 $249 reversed $59 $-1 #
coedge $-1 $95 $247 $250 $251 reversed $59 $-1 #
coedge $-1 $244 $243 $95 $153 reversed $93 $-1 #
edge $-1 $252 -18.729207449469495 $253 18.729207449469495 $152 $254 forward 7 unknown #
face $-1 $255 $256 $35 $-1 $257 reversed single #
loop $-1 $-1 $258 $96 #
plane-surface $-1 -54.590978256958586 30.215741641914342 0 -1 0 0 0 0 1 forward_v I I I I #
coedge $-1 $259 $260 $261 $262 reversed $97 $-1 #
coedge $-1 $263 $99 $264 $265 reversed $62 $-1 #
coedge $-1 $99 $263 $266 $267 reversed $62 $-1 #
coedge $-1 $260 $259 $99 $161 reversed $97 $-1 #
edge $-1 $268 -18.729207449469495 $269 18.729207449469495 $160 $270 forward 7 unknown #
face $-1 $271 $272 $36 $-1 $273 reversed single #
loop $-1 $-1 $274 $100 #
plane-surface $-1 -182.47567951721376 -2.9234435977921152 87.722376292506354 0 -1 0 0.82903758062907751 0 -0.55919289150049634 forward_v I I I I #
coedge $-1 $275 $276 $277 $278 reversed $101 $-1 #
coedge $-1 $167 $103 $279 $280 reversed $65 $-1 #
coedge $-1 $103 $166 $275 $281 reversed $65 $-1 #
coedge $-1 $277 $282 $103 $169 forward $283 $-1 #
edge $-1 $284 22.588283802919761 $285 27.838333190448544 $168 $286 forward 7 unknown #
loop $-1 $-1 $175 $104 #
plane-surface $-1 -68.649555955687106 -6.01848923124561 10.945688902334751 -0.82903758062907751 0 0.55919289150049634 0.55919289150049634 0 0.82903758062907751 forward_v I I I I #
loop $-1 $-1 $287 $67 #
coedge $-1 $173 $173 $174 $288 reversed $105 $-1 #
coedge $-1 $174 $174 $173 $288 forward $107 $-1 #
coedge $-1 $175 $175 $108 $176 forward $170 $-1 #
edge $-1 $289 0 $289 6.2831853071796004 $175 $290 forward 7 unknown #
loop $-1 $-1 $182 $109 #
plane-surface $-1 -68.649555955687106 -6.01848923124561 10.945688902334751 -0.82903758062907751 0 0.55919289150049634 0.55919289150049634 0 0.82903758062907751 forward_v I I I I #
loop $-1 $-1 $291 $70 #
coedge $-1 $180 $180 $181 $292 reversed $110 $-1 #
coedge $-1 $181 $181 $180 $292 forward $112 $-1 #
coedge $-1 $182 $182 $113 $183 forward $177 $-1 #
edge $-1 $293 0 $293 6.2831853071796004 $182 $294 forward 7 unknown #
loop $-1 $-1 $189 $114 #
plane-surface $-1 -68.649555955687106 -6.01848923124561 10.945688902334751 -0.82903758062907751 0 0.55919289150049634 0.55919289150049634 0 0.82903758062907751 forward_v I I I I #
loop $-1 $-1 $295 $73 #
coedge $-1 $187 $187 $188 $296 reversed $115 $-1 #
coedge $-1 $188 $188 $187 $296 forward $117 $-1 #
coedge $-1 $189 $189 $118 $190 forward $184 $-1 #
edge $-1 $297 0 $297 6.2831853071796004 $189 $298 forward 7 unknown #
face $-1 $299 $300 $40 $-1 $301 forward single #
loop $-1 $-1 $302 $119 #
plane-surface $-1 105.69899212704216 -9.1135348646991048 201.548499854033 0 1 0 0.82903758062907751 0 0.55919289150049634 forward_v I I I I #
coedge $-1 $303 $304 $305 $306 reversed $120 $-1 #
coedge $-1 $196 $122 $307 $308 reversed $77 $-1 #
coedge $-1 $122 $195 $303 $309 reversed $77 $-1 #
coedge $-1 $305 $310 $122 $198 forward $300 $-1 #
edge $-1 $311 -15.80005989216604 $312 -10.550010504637235 $197 $313 forward 7 unknown #
loop $-1 $-1 $204 $123 #
plane-surface $-1 -8.1271314344844967 -6.01848923124561 124.77181246386139 0.82903758062907751 0 0.55919289150049634 0.55919289150049634 0 -0.82903758062907751 forward_v I I I I #
loop $-1 $-1 $314 $79 #
coedge $-1 $202 $202 $203 $315 reversed $124 $-1 #
coedge $-1 $203 $203 $202 $315 forward $126 $-1 #
coedge $-1 $204 $204 $127 $205 forward $199 $-1 #
edge $-1 $316 0 $316 6.2831853071796004 $204 $317 forward 7 unknown #
loop $-1 $-1 $211 $128 #
plane-surface $-1 -8.1271314344844967 -6.01848923124561 124.77181246386139 0.82903758062907751 0 0.55919289150049634 0.55919289150049634 0 -0.82903758062907751 forward_v I I I I #
loop $-1 $-1 $318 $82 #
coedge $-1 $209 $209 $210 $319 reversed $129 $-1 #
coedge $-1 $210 $210 $209 $319 forward $131 $-1 #
coedge $-1 $211 $211 $132 $212 forward $206 $-1 #
edge $-1 $320 0 $320 6.2831853071796004 $211 $321 forward 7 unknown #
loop $-1 $-1 $218 $133 #
plane-surface $-1 -8.1271314344844967 -6.01848923124561 124.77181246386139 0.82903758062907751 0 0.55919289150049634 0.55919289150049634 0 -0.82903758062907751 forward_v I I I I #
loop $-1 $-1 $322 $85 #
coedge $-1 $216 $216 $217 $323 reversed $134 $-1 #
coedge $-1 $217 $217 $216 $323 forward $136 $-1 #
coedge $-1 $218 $218 $137 $219 forward $213 $-1 #
edge $-1 $324 0 $324 6.2831853071796004 $218 $325 forward 7 unknown #
face $-1 $326 $327 $33 $-1 $328 reversed single #
loop $-1 $-1 $329 $138 #
plane-surface $-1 -68.64955595568712 0 0 1 0 0 0 0 -1 forward_v I I I I #
coedge $-1 $330 $231 $331 $332 forward $139 $-1 #
coedge $-1 $333 $141 $330 $334 forward $89 $-1 #
coedge $-1 $141 $333 $335 $336 forward $89 $-1 #
coedge $-1 $234 $233 $141 $227 reversed $235 $-1 #
edge $-1 $337 -41.372843751046084 $338 41.372843751046084 $226 $339 forward 7 unknown #
coedge $-1 $143 $142 $340 $341 forward $56 $-1 #
coedge $-1 $342 $343 $142 $230 reversed $327 $-1 #
edge $-1 $237 -68.64955595568712 $344 68.64955595568712 $229 $345 forward 7 unknown #
coedge $-1 $223 $346 $143 $232 reversed $139 $-1 #
edge $-1 $347 -68.64955595568712 $236 68.64955595568712 $231 $348 forward 7 unknown #
coedge $-1 $226 $144 $346 $349 forward $235 $-1 #
coedge $-1 $144 $226 $342 $350 reversed $235 $-1 #
loop $-1 $-1 $233 $326 #
vertex $-1 $145 $351 #
vertex $-1 $145 $352 #
straight-curve $-1 68.64955595568712 0 18.729207449469495 0 1 0 I I #
face $-1 $353 $354 $34 $-1 $355 reversed single #
loop $-1 $-1 $356 $146 #
plane-surface $-1 0 0 18.729207449469495 0 0 1 1 0 0 forward_v I I I I #
coedge $-1 $357 $358 $359 $360 reversed $147 $-1 #
coedge $-1 $152 $149 $361 $362 reversed $93 $-1 #
coedge $-1 $149 $152 $363 $364 reversed $93 $-1 #
coedge $-1 $358 $357 $149 $246 reversed $147 $-1 #
edge $-1 $365 -18.729207449469495 $366 18.729207449469495 $245 $367 forward 7 unknown #
coedge $-1 $151 $150 $368 $369 reversed $59 $-1 #
coedge $-1 $361 $370 $150 $249 forward $354 $-1 #
edge $-1 $371 -26.264972930088913 $253 -3.9507687118254289 $248 $372 forward 7 unknown #
coedge $-1 $373 $363 $151 $251 forward $240 $-1 #
edge $-1 $252 3.9507687118254289 $374 26.264972930088913 $250 $375 forward 7 unknown #
vertex $-1 $251 $376 #
vertex $-1 $249 $377 #
straight-curve $-1 -62.274143047579607 -19.0586395327826 0 0 0 -1 I I #
face $-1 $378 $379 $35 $-1 $380 forward single #
loop $-1 $-1 $381 $154 #
plane-surface $-1 0 0 -18.729207449469495 0 0 1 1 0 0 forward_v I I I I #
coedge $-1 $382 $383 $263 $384 forward $155 $-1 #
coedge $-1 $160 $157 $385 $386 reversed $97 $-1 #
coedge $-1 $157 $160 $387 $388 reversed $97 $-1 #
coedge $-1 $389 $390 $157 $262 forward $391 $-1 #
edge $-1 $392 -18.729207449469495 $393 18.729207449469495 $261 $394 forward 7 unknown #
coedge $-1 $159 $158 $258 $384 reversed $62 $-1 #
coedge $-1 $385 $381 $158 $265 forward $256 $-1 #
edge $-1 $395 25.374697930824038 $269 33.057862721445062 $264 $396 forward 7 unknown #
coedge $-1 $397 $387 $159 $267 forward $379 $-1 #
edge $-1 $268 -33.057862721445062 $398 -25.374697930824038 $266 $399 forward 7 unknown #
vertex $-1 $267 $400 #
vertex $-1 $265 $401 #
straight-curve $-1 -62.274143047579607 19.0586395327826 0 0 0 -1 I I #
face $-1 $-1 $283 $36 $-1 $402 forward single #
loop $-1 $-1 $403 $162 #
plane-surface $-1 -68.64955595568712 0 0 1 0 0 0 0 -1 forward_v I I I I #
coedge $-1 $404 $405 $406 $407 reversed $163 $-1 #
coedge $-1 $408 $165 $167 $281 forward $101 $-1 #
coedge $-1 $165 $408 $404 $409 forward $101 $-1 #
coedge $-1 $406 $168 $165 $278 forward $283 $-1 #
edge $-1 $285 -6.1042902490762998 $410 0.08580101783068983 $277 $411 forward 7 unknown #
coedge $-1 $412 $413 $166 $280 forward $272 $-1 #
edge $-1 $414 -32.915499243918447 $284 -25.131980696783682 $279 $415 forward 7 unknown #
edge $-1 $285 -9.3886196826307629 $414 2.5618607856530852e-014 $167 $416 forward 7 unknown #
coedge $-1 $168 $406 $412 $417 forward $283 $-1 #
loop $-1 $-1 $406 $271 #
vertex $-1 $280 $418 #
vertex $-1 $169 $419 #
straight-curve $-1 -91.237839758606881 -9.1135348646991048 18.729207449469492 1 0 0 I I #
coedge $-1 $287 $287 $-1 $420 reversed $172 $-1 #
edge $-1 $421 0 $421 6.2831853071796004 $173 $422 forward 7 unknown #
vertex $-1 $176 $423 #
ellipse-curve $-1 -66.024531261922718 -7.8755166113177069 14.837448175902122 -0.82903758062907751 0 0.55919289150049634 0.27959644575024817 0 0.41451879031453875 1 I I #
coedge $-1 $291 $291 $-1 $424 reversed $179 $-1 #
edge $-1 $425 0 $425 6.2831853071796004 $180 $426 forward 7 unknown #
vertex $-1 $183 $427 #
ellipse-curve $-1 -66.024531261922718 -6.01848923124561 14.837448175902122 -0.82903758062907751 0 0.55919289150049634 0.27959644575024817 0 0.41451879031453875 1 I I #
coedge $-1 $295 $295 $-1 $428 reversed $186 $-1 #
edge $-1 $429 0 $429 6.2831853071796004 $187 $430 forward 7 unknown #
vertex $-1 $190 $431 #
ellipse-curve $-1 -66.024531261922718 -4.1614618511735131 14.837448175902122 -0.82903758062907751 0 0.55919289150049634 0.27959644575024817 0 0.41451879031453875 1 I I #
face $-1 $-1 $432 $40 $-1 $433 reversed single #
loop $-1 $-1 $197 $191 #
plane-surface $-1 0 0 18.729207449469495 0 0 1 1 0 0 forward_v I I I I #
coedge $-1 $434 $435 $436 $437 reversed $192 $-1 #
coedge $-1 $438 $194 $196 $309 forward $120 $-1 #
coedge $-1 $194 $438 $434 $439 forward $120 $-1 #
coedge $-1 $436 $197 $194 $306 forward $300 $-1 #
edge $-1 $312 -0.08580101783068983 $440 6.1042902490762998 $305 $441 forward 7 unknown #
coedge $-1 $442 $443 $195 $308 forward $432 $-1 #
edge $-1 $444 -89.82856102468179 $311 -82.045042477547 $307 $445 forward 7 unknown #
edge $-1 $312 127.91049222874345 $444 137.29911191137427 $196 $446 forward 7 unknown #
coedge $-1 $197 $436 $442 $447 forward $300 $-1 #
vertex $-1 $198 $448 #
vertex $-1 $198 $449 #
straight-curve $-1 52.84949606352108 -2.9234435977921152 18.729207449469499 -1 0 0 I I #
coedge $-1 $314 $314 $-1 $450 reversed $201 $-1 #
edge $-1 $451 0 $451 6.2831853071796004 $202 $452 forward 7 unknown #
vertex $-1 $205 $453 #
ellipse-curve $-1 66.024531261922704 -7.8755166113177069 14.83744817590212 0.82903758062907751 0 0.55919289150049634 0.27959644575024817 0 -0.41451879031453875 1 I I #
coedge $-1 $318 $318 $-1 $454 reversed $208 $-1 #
edge $-1 $455 0 $455 6.2831853071796004 $209 $456 forward 7 unknown #
vertex $-1 $212 $457 #
ellipse-curve $-1 66.024531261922704 -6.01848923124561 14.83744817590212 0.82903758062907751 0 0.55919289150049634 0.27959644575024817 0 -0.41451879031453875 1 I I #
coedge $-1 $322 $322 $-1 $458 reversed $215 $-1 #
edge $-1 $459 0 $459 6.2831853071796004 $216 $460 forward 7 unknown #
vertex $-1 $219 $461 #
ellipse-curve $-1 66.024531261922704 -4.1614618511735131 14.83744817590212 0.82903758062907751 0 0.55919289150049634 0.27959644575024817 0 -0.41451879031453875 1 I I #
face $-1 $-1 $235 $33 $-1 $462 reversed single #
loop $-1 $-1 $342 $220 #
plane-surface $-1 0 41.372843751046084 0 0 -1 0 0 0 -1 forward_v I I I I #
coedge $-1 $463 $340 $343 $464 forward $221 $-1 #
coedge $-1 $346 $223 $224 $334 reversed $139 $-1 #
coedge $-1 $340 $463 $223 $332 reversed $221 $-1 #
edge $-1 $347 -18.729207449469495 $465 18.729207449469495 $331 $466 forward 7 unknown #
coedge $-1 $225 $224 $463 $467 forward $89 $-1 #
edge $-1 $338 -68.64955595568712 $465 68.64955595568712 $330 $468 forward 7 unknown #
coedge $-1 $343 $342 $225 $336 reversed $327 $-1 #
edge $-1 $469 -68.64955595568712 $337 68.64955595568712 $335 $470 forward 7 unknown #
vertex $-1 $227 $471 #
vertex $-1 $349 $472 #
straight-curve $-1 68.64955595568712 0 -18.729207449469495 0 -1 0 I I #
coedge $-1 $329 $331 $228 $341 reversed $221 $-1 #
edge $-1 $344 -41.372843751046084 $347 41.372843751046084 $340 $473 forward 7 unknown #
coedge $-1 $335 $229 $234 $350 forward $327 $-1 #
coedge $-1 $229 $335 $329 $464 reversed $327 $-1 #
vertex $-1 $230 $474 #
straight-curve $-1 0 41.372843751046084 18.729207449469495 -1 0 0 I I #
coedge $-1 $231 $330 $233 $349 reversed $139 $-1 #
vertex $-1 $341 $475 #
straight-curve $-1 0 -41.372843751046084 18.729207449469495 1 0 0 I I #
edge $-1 $236 -18.729207449469495 $338 18.729207449469495 $233 $476 forward 7 unknown #
edge $-1 $237 -18.729207449469495 $337 18.729207449469495 $234 $477 forward 7 unknown #
point $-1 68.64955595568712 -41.372843751046084 18.729207449469495 #
point $-1 68.64955595568712 41.372843751046084 18.729207449469495 #
face $-1 $-1 $478 $34 $-1 $479 reversed single #
loop $-1 $-1 $480 $239 #
plane-surface $-1 0 0 -18.729207449469495 0 0 1 1 0 0 forward_v I I I I #
coedge $-1 $363 $373 $358 $481 forward $240 $-1 #
coedge $-1 $245 $242 $480 $482 reversed $147 $-1 #
coedge $-1 $242 $245 $356 $481 reversed $147 $-1 #
coedge $-1 $483 $484 $242 $360 forward $478 $-1 #
edge $-1 $485 -18.729207449469495 $486 18.729207449469495 $359 $487 forward 7 unknown #
coedge $-1 $480 $248 $243 $362 forward $354 $-1 #
edge $-1 $253 -33.057862721445062 $366 -25.374697930824038 $361 $488 forward 7 unknown #
coedge $-1 $250 $356 $244 $364 forward $240 $-1 #
edge $-1 $365 25.374697930824038 $252 33.057862721445062 $363 $489 forward 7 unknown #
vertex $-1 $364 $490 #
vertex $-1 $362 $491 #
straight-curve $-1 -54.590978256958586 -19.0586395327826 0 0 0 -1 I I #
coedge $-1 $484 $483 $247 $369 forward $478 $-1 #
edge $-1 $374 -18.729207449469495 $371 18.729207449469495 $368 $492 forward 7 unknown #
coedge $-1 $248 $480 $484 $493 forward $354 $-1 #
vertex $-1 $249 $494 #
straight-curve $-1 -62.274143047579607 -15.107870820957171 -18.729207449469495 0 1 0 I I #
coedge $-1 $356 $250 $483 $495 forward $240 $-1 #
vertex $-1 $495 $496 #
straight-curve $-1 -62.274143047579607 -15.107870820957171 18.729207449469495 0 -1 0 I I #
point $-1 -62.274143047579607 -19.0586395327826 18.729207449469495 #
point $-1 -62.274143047579607 -19.0586395327826 -18.729207449469495 #
face $-1 $-1 $391 $35 $-1 $497 reversed single #
loop $-1 $-1 $397 $255 #
plane-surface $-1 0 0 18.729207449469495 0 0 1 1 0 0 forward_v I I I I #
coedge $-1 $264 $498 $382 $499 forward $256 $-1 #
coedge $-1 $500 $258 $381 $499 reversed $155 $-1 #
coedge $-1 $258 $500 $397 $501 reversed $155 $-1 #
edge $-1 $398 -18.729207449469495 $395 18.729207449469495 $258 $502 forward 7 unknown #
coedge $-1 $498 $264 $259 $386 forward $256 $-1 #
edge $-1 $269 3.9507687118254289 $392 26.264972930088913 $385 $503 forward 7 unknown #
coedge $-1 $266 $504 $260 $388 forward $379 $-1 #
edge $-1 $393 -26.264972930088913 $268 -3.9507687118254289 $387 $505 forward 7 unknown #
coedge $-1 $506 $261 $504 $507 reversed $391 $-1 #
coedge $-1 $261 $506 $498 $508 reversed $391 $-1 #
loop $-1 $-1 $506 $378 #
vertex $-1 $508 $509 #
vertex $-1 $262 $510 #
straight-curve $-1 -62.274143047579607 41.372843751046084 0 0 0 1 I I #
vertex $-1 $265 $511 #
straight-curve $-1 -29.216280326134548 19.0586395327826 -18.729207449469495 -1 0 0 I I #
coedge $-1 $504 $266 $383 $501 forward $379 $-1 #
vertex $-1 $267 $512 #
straight-curve $-1 -29.216280326134548 19.0586395327826 18.729207449469495 1 0 0 I I #
point $-1 -62.274143047579607 19.0586395327826 18.729207449469495 #
point $-1 -62.274143047579607 19.0586395327826 -18.729207449469495 #
plane-surface $-1 0 0 18.729207449469495 0 0 1 1 0 0 forward_v I I I I #
coedge $-1 $413 $412 $405 $513 forward $272 $-1 #
coedge $-1 $405 $274 $276 $409 reversed $163 $-1 #
coedge $-1 $274 $404 $403 $513 reversed $163 $-1 #
coedge $-1 $282 $277 $274 $407 forward $283 $-1 #
edge $-1 $410 -27.838333190448544 $514 -22.588283802919761 $406 $515 forward 7 unknown #
coedge $-1 $276 $275 $413 $516 reversed $101 $-1 #
edge $-1 $517 -2.5618607856530852e-014 $410 9.3886196826307629 $404 $518 forward 7 unknown #
vertex $-1 $278 $519 #
straight-curve $-1 -63.399506568158344 -3.009244615622805 18.729207449469495 0 1 0 I I #
coedge $-1 $403 $279 $282 $417 reversed $272 $-1 #
coedge $-1 $279 $403 $408 $516 forward $272 $-1 #
vertex $-1 $280 $520 #
straight-curve $-1 -68.64955595568712 -9.1135348646991048 43.861188146253177 0 0 1 I I #
straight-curve $-1 -68.649555955687106 -9.1135348646991048 10.945688902334751 -0.55919289150049634 0 -0.82903758062907751 I I #
edge $-1 $514 2.9234435977921152 $284 9.1135348646991048 $412 $521 forward 7 unknown #
point $-1 -68.64955595568712 -9.1135348646991048 18.729207449469495 #
point $-1 -63.399506568158337 -9.1135348646991048 18.729207449469495 #
edge $-1 $522 1 $522 0 $287 $-1 forward 7 unknown #
vertex $-1 $288 $523 #
ellipse-curve $-1 -64.94802468577582 -7.8755166113177069 14.111335344469195 -0.82903758062907751 0 0.55919289150049634 0.27959644575024817 0 0.41451879031453875 1 I I #
point $-1 -65.744934816172488 -7.8755166113177069 15.251966966216672 #
edge $-1 $524 1 $524 0 $291 $-1 forward 7 unknown #
vertex $-1 $292 $525 #
ellipse-curve $-1 -64.94802468577582 -6.01848923124561 14.111335344469195 -0.82903758062907751 0 0.55919289150049634 0.27959644575024817 0 0.41451879031453875 1 I I #
point $-1 -65.744934816172488 -6.01848923124561 15.251966966216672 #
edge $-1 $526 1 $526 0 $295 $-1 forward 7 unknown #
vertex $-1 $296 $527 #
ellipse-curve $-1 -64.94802468577582 -4.1614618511735131 14.111335344469195 -0.82903758062907751 0 0.55919289150049634 0.27959644575024817 0 0.41451879031453875 1 I I #
point $-1 -65.744934816172488 -4.1614618511735131 15.251966966216672 #
loop $-1 $-1 $307 $299 #
plane-surface $-1 68.64955595568712 0 0 -1 0 0 0 0 1 forward_v I I I I #
coedge $-1 $435 $302 $304 $439 reversed $192 $-1 #
coedge $-1 $302 $434 $528 $529 reversed $192 $-1 #
coedge $-1 $310 $305 $302 $437 forward $300 $-1 #
edge $-1 $440 10.550010504637235 $530 15.80005989216604 $436 $531 forward 7 unknown #
coedge $-1 $304 $303 $443 $532 reversed $120 $-1 #
edge $-1 $533 -137.29911191137427 $440 -127.91049222874345 $434 $534 forward 7 unknown #
vertex $-1 $306 $535 #
straight-curve $-1 63.399506568158323 -3.009244615622805 18.729207449469499 0 -1 0 I I #
coedge $-1 $528 $307 $310 $447 reversed $432 $-1 #
coedge $-1 $307 $528 $438 $532 forward $432 $-1 #
vertex $-1 $308 $536 #
straight-curve $-1 68.64955595568712 -2.9234435977921152 100.7742499270165 0 0 1 I I #
straight-curve $-1 -8.1271314344844967 -2.9234435977921152 124.77181246386139 0.55919289150049634 0 -0.82903758062907751 I I #
edge $-1 $530 -9.1135348646991048 $311 -2.9234435977921152 $442 $537 forward 7 unknown #
point $-1 68.64955595568712 -2.9234435977921152 18.729207449469495 #
point $-1 63.399506568158316 -2.9234435977921152 18.729207449469499 #
edge $-1 $538 1 $538 0 $314 $-1 forward 7 unknown #
vertex $-1 $315 $539 #
ellipse-curve $-1 64.948024685775806 -7.8755166113177069 14.111335344469195 0.82903758062907751 0 0.55919289150049634 0.27959644575024817 0 -0.41451879031453875 1 I I #
point $-1 66.304127707672976 -7.8755166113177069 14.422929385587596 #
edge $-1 $540 1 $540 0 $318 $-1 forward 7 unknown #
vertex $-1 $319 $541 #
ellipse-curve $-1 64.948024685775806 -6.01848923124561 14.111335344469195 0.82903758062907751 0 0.55919289150049634 0.27959644575024817 0 -0.41451879031453875 1 I I #
point $-1 66.304127707672976 -6.01848923124561 14.422929385587596 #
edge $-1 $542 1 $542 0 $322 $-1 forward 7 unknown #
vertex $-1 $323 $543 #
ellipse-curve $-1 64.948024685775806 -4.1614618511735131 14.111335344469195 0.82903758062907751 0 0.55919289150049634 0.27959644575024817 0 -0.41451879031453875 1 I I #
point $-1 66.304127707672976 -4.1614618511735131 14.422929385587596 #
plane-surface $-1 68.64955595568712 0 0 -1 0 0 0 0 1 forward_v I I I I #
coedge $-1 $331 $329 $333 $467 reversed $221 $-1 #
edge $-1 $344 -18.729207449469495 $469 18.729207449469495 $343 $544 forward 7 unknown #
vertex $-1 $467 $545 #
straight-curve $-1 -68.64955595568712 -41.372843751046084 0 0 0 -1 I I #
edge $-1 $465 -41.372843751046084 $469 41.372843751046084 $463 $546 forward 7 unknown #
straight-curve $-1 0 -41.372843751046084 -18.729207449469495 -1 0 0 I I #
vertex $-1 $336 $547 #
straight-curve $-1 0 41.372843751046084 -18.729207449469495 1 0 0 I I #
point $-1 68.64955595568712 41.372843751046084 -18.729207449469495 #
point $-1 68.64955595568712 -41.372843751046084 -18.729207449469495 #
straight-curve $-1 -68.64955595568712 0 18.729207449469495 0 -1 0 I I #
point $-1 -68.64955595568712 41.372843751046084 18.729207449469495 #
point $-1 -68.64955595568712 -41.372843751046084 18.729207449469495 #
straight-curve $-1 68.64955595568712 -41.372843751046084 0 0 0 -1 I I #
straight-curve $-1 68.64955595568712 41.372843751046084 0 0 0 -1 I I #
loop $-1 $-1 $359 $353 #
plane-surface $-1 0 -41.372843751046084 0 0 1 0 0 0 1 forward_v I I I I #
coedge $-1 $370 $361 $357 $482 forward $354 $-1 #
edge $-1 $486 -26.264972930088913 $365 -3.9507687118254289 $356 $548 forward 7 unknown #
edge $-1 $366 3.9507687118254289 $485 26.264972930088913 $480 $549 forward 7 unknown #
coedge $-1 $368 $359 $373 $495 reversed $478 $-1 #
coedge $-1 $359 $368 $370 $493 reversed $478 $-1 #
vertex $-1 $493 $550 #
vertex $-1 $360 $551 #
straight-curve $-1 -54.590978256958586 -41.372843751046084 0 0 0 1 I I #
straight-curve $-1 -29.216280326134548 -19.0586395327826 -18.729207449469495 1 0 0 I I #
straight-curve $-1 -29.216280326134548 -19.0586395327826 18.729207449469495 -1 0 0 I I #
point $-1 -54.590978256958586 -19.0586395327826 18.729207449469495 #
point $-1 -54.590978256958586 -19.0586395327826 -18.729207449469495 #
straight-curve $-1 -62.274143047579607 -41.372843751046084 0 0 0 -1 I I #
edge $-1 $485 54.590978256958586 $371 62.274143047579607 $484 $552 forward 7 unknown #
point $-1 -62.274143047579607 -41.372843751046084 -18.729207449469495 #
edge $-1 $374 -62.274143047579607 $486 -54.590978256958586 $483 $553 forward 7 unknown #
point $-1 -62.274143047579607 -41.372843751046084 18.729207449469495 #
plane-surface $-1 0 41.372843751046084 0 0 -1 0 0 0 -1 forward_v I I I I #
coedge $-1 $381 $385 $390 $508 forward $256 $-1 #
edge $-1 $554 -26.264972930088913 $395 -3.9507687118254289 $381 $555 forward 7 unknown #
coedge $-1 $383 $382 $506 $556 reversed $155 $-1 #
edge $-1 $398 3.9507687118254289 $557 26.264972930088913 $397 $558 forward 7 unknown #
straight-curve $-1 -54.590978256958586 19.0586395327826 0 0 0 -1 I I #
straight-curve $-1 -62.274143047579607 15.107870820957171 -18.729207449469495 0 1 0 I I #
coedge $-1 $387 $397 $389 $507 forward $379 $-1 #
straight-curve $-1 -62.274143047579607 15.107870820957171 18.729207449469495 0 -1 0 I I #
coedge $-1 $390 $389 $500 $556 forward $391 $-1 #
edge $-1 $557 54.590978256958586 $393 62.274143047579607 $389 $559 forward 7 unknown #
edge $-1 $392 -62.274143047579607 $554 -54.590978256958586 $390 $560 forward 7 unknown #
point $-1 -62.274143047579607 41.372843751046084 -18.729207449469495 #
point $-1 -62.274143047579607 41.372843751046084 18.729207449469495 #
point $-1 -54.590978256958586 19.0586395327826 -18.729207449469495 #
point $-1 -54.590978256958586 19.0586395327826 18.729207449469495 #
edge $-1 $514 25.131980696783682 $517 32.915499243918447 $403 $561 forward 7 unknown #
vertex $-1 $417 $562 #
straight-curve $-1 -91.237839758606881 -2.9234435977921152 18.729207449469492 -1 0 0 I I #
edge $-1 $517 -0.08580101783068983 $414 6.1042902490762998 $413 $563 forward 7 unknown #
vertex $-1 $516 $564 #
straight-curve $-1 -68.649555955687106 -2.9234435977921152 10.945688902334751 0.55919289150049634 0 0.82903758062907751 I I #
point $-1 -63.399506568158337 -2.9234435977921152 18.729207449469495 #
point $-1 -68.64955595568712 -9.1135348646991048 10.94568890233473 #
straight-curve $-1 -68.64955595568712 0 18.729207449469495 0 -1 0 I I #
vertex $-1 $420 $565 #
point $-1 -64.668428240025577 -7.8755166113177069 14.525854134783735 #
vertex $-1 $424 $566 #
point $-1 -64.668428240025577 -6.01848923124561 14.525854134783735 #
vertex $-1 $428 $567 #
point $-1 -64.668428240025577 -4.1614618511735131 14.525854134783735 #
coedge $-1 $443 $442 $435 $529 forward $432 $-1 #
edge $-1 $530 82.045042477547 $533 89.82856102468179 $528 $568 forward 7 unknown #
vertex $-1 $447 $569 #
straight-curve $-1 52.84949606352108 -9.1135348646991048 18.729207449469499 1 0 0 I I #
edge $-1 $533 -6.1042902490762998 $444 0.08580101783068983 $443 $570 forward 7 unknown #
vertex $-1 $532 $571 #
straight-curve $-1 -8.1271314344844967 -9.1135348646991048 124.77181246386139 -0.55919289150049634 0 0.82903758062907751 I I #
point $-1 63.399506568158316 -9.1135348646991048 18.729207449469499 #
point $-1 68.64955595568712 -2.9234435977921152 10.945688902334709 #
straight-curve $-1 68.64955595568712 0 18.729207449469495 0 1 0 I I #
vertex $-1 $450 $572 #
point $-1 65.227621131526064 -7.8755166113177069 13.696816554154656 #
vertex $-1 $454 $573 #
point $-1 65.227621131526064 -6.01848923124561 13.696816554154656 #
vertex $-1 $458 $574 #
point $-1 65.227621131526064 -4.1614618511735131 13.696816554154656 #
straight-curve $-1 -68.64955595568712 41.372843751046084 0 0 0 -1 I I #
point $-1 -68.64955595568712 -41.372843751046084 -18.729207449469495 #
straight-curve $-1 -68.64955595568712 0 -18.729207449469495 0 1 0 I I #
point $-1 -68.64955595568712 41.372843751046084 -18.729207449469495 #
straight-curve $-1 -54.590978256958586 -15.107870820957171 18.729207449469495 0 1 0 I I #
straight-curve $-1 -54.590978256958586 -15.107870820957171 -18.729207449469495 0 -1 0 I I #
point $-1 -54.590978256958586 -41.372843751046084 -18.729207449469495 #
point $-1 -54.590978256958586 -41.372843751046084 18.729207449469495 #
straight-curve $-1 0 -41.372843751046084 -18.729207449469495 -1 0 0 I I #
straight-curve $-1 0 -41.372843751046084 18.729207449469495 1 0 0 I I #
vertex $-1 $556 $575 #
straight-curve $-1 -54.590978256958586 15.107870820957171 -18.729207449469495 0 -1 0 I I #
edge $-1 $557 -18.729207449469495 $554 18.729207449469495 $506 $576 forward 7 unknown #
vertex $-1 $507 $577 #
straight-curve $-1 -54.590978256958586 15.107870820957171 18.729207449469495 0 1 0 I I #
straight-curve $-1 0 41.372843751046084 18.729207449469495 -1 0 0 I I #
straight-curve $-1 0 41.372843751046084 -18.729207449469495 1 0 0 I I #
straight-curve $-1 -68.64955595568712 -2.9234435977921152 43.861188146253177 0 0 -1 I I #
point $-1 -68.64955595568712 -2.9234435977921152 18.729207449469495 #
straight-curve $-1 -68.64955595568712 -3.009244615622805 10.94568890233473 0 -1 0 I I #
point $-1 -68.64955595568712 -2.9234435977921152 10.94568890233473 #
point $-1 -64.533505895461289 -7.8755166113177069 13.831738898718948 #
point $-1 -64.533505895461289 -6.01848923124561 13.831738898718948 #
point $-1 -64.533505895461289 -4.1614618511735131 13.831738898718948 #
straight-curve $-1 68.64955595568712 -9.1135348646991048 100.7742499270165 0 0 -1 I I #
point $-1 68.64955595568712 -9.1135348646991048 18.729207449469495 #
straight-curve $-1 68.649555955687134 -3.009244615622805 10.945688902334709 0 1 0 I I #
point $-1 68.64955595568712 -9.1135348646991048 10.945688902334709 #
point $-1 64.533505895461275 -7.8755166113177069 13.831738898718948 #
point $-1 64.533505895461275 -6.01848923124561 13.831738898718948 #
point $-1 64.533505895461275 -4.1614618511735131 13.831738898718948 #
point $-1 -54.590978256958586 41.372843751046084 -18.729207449469495 #
straight-curve $-1 -54.590978256958586 41.372843751046084 0 0 0 -1 I I #
point $-1 -54.590978256958586 41.372843751046084 18.729207449469495 #
End-of-ACIS-data 