500 0 4 0           
7 Unknown 11 ACIS 5.0 NT 24 Fri Mar 26 18:04:33 1999 
-1 9.9999999999999995e-007 1e-010 
body $-1 $4 $-1 $5 #
body $-1 $6 $-1 $7 #
body $-1 $8 $-1 $9 #
body $-1 $10 $-1 $11 #
lump $-1 $-1 $12 $0 #
transform $-1 1 0 0 0 1 0 0 0 1 45.948667867061374 20.463122213924574 6.0165338822953194 1 rotate no_reflect no_shear #
lump $-1 $-1 $13 $1 #
transform $-1 1 0 0 0 1 0 0 0 1 45.948667867061374 20.463122213924574 6.0165338822953194 1 rotate no_reflect no_shear #
lump $-1 $-1 $14 $2 #
transform $-1 1 0 0 0 1 0 0 0 1 45.948667867061374 20.463122213924574 6.0165338822953194 1 rotate no_reflect no_shear #
lump $-1 $-1 $15 $3 #
transform $-1 1 0 0 0 1 0 0 0 1 45.948667867061374 20.463122213924574 6.0165338822953194 1 rotate no_reflect no_shear #
shell $-1 $-1 $-1 $16 $-1 $4 #
shell $-1 $-1 $-1 $17 $-1 $6 #
shell $-1 $-1 $-1 $18 $-1 $8 #
shell $-1 $-1 $-1 $19 $-1 $10 #
face $-1 $20 $21 $12 $-1 $22 forward single #
face $-1 $23 $24 $13 $-1 $25 forward single #
face $-1 $26 $27 $14 $-1 $28 reversed single #
face $-1 $29 $30 $15 $-1 $31 forward single #
face $-1 $32 $33 $12 $-1 $34 reversed single #
loop $-1 $-1 $35 $16 #
plane-surface $-1 0 0 6.0165338822953194 0 0 1 1 0 0 forward_v I I I I #
face $-1 $36 $37 $13 $-1 $38 reversed single #
loop $-1 $-1 $39 $17 #
plane-surface $-1 -45.948667867061374 0 0 1 0 0 0 0 -1 forward_v I I I I #
face $-1 $40 $41 $14 $-1 $42 reversed single #
loop $-1 $-1 $43 $18 #
plane-surface $-1 -19.032560649565568 -16.430253317987795 65.470161310538614 0.70710678939079041 0 0.70710677298230451 0.70710677298230451 0 -0.70710678939079041 forward_v I I I I #
face $-1 $44 $45 $15 $-1 $46 forward single #
loop $-1 $47 $48 $19 #
cone-surface $-1 41.921625651661138 -16.430253317987795 1.9894916320744165 -0.70710678939079041 0 -0.70710677298230451 0.70710677298230451 0 -0.70710678939079041 1 I I 0 1 1 forward I I I I #
face $-1 $49 $50 $12 $-1 $51 reversed single #
loop $-1 $-1 $52 $20 #
plane-surface $-1 0 0 -6.0165338822953194 0 0 1 1 0 0 forward_v I I I I #
coedge $-1 $53 $54 $55 $56 forward $21 $-1 #
face $-1 $57 $58 $13 $-1 $59 reversed single #
loop $-1 $-1 $60 $23 #
plane-surface $-1 0 0 -6.0165338822953194 0 0 1 1 0 0 forward_v I I I I #
coedge $-1 $61 $62 $63 $64 forward $24 $-1 #
face $-1 $65 $66 $14 $-1 $67 reversed single #
loop $-1 $-1 $68 $26 #
plane-surface $-1 45.948669374957518 -12.397384422051015 130.45138982716557 0 -1 0 -0.70710678939079041 0 -0.70710677298230451 forward_v I I I I #
coedge $-1 $69 $70 $71 $72 reversed $27 $-1 #
face $-1 $-1 $73 $15 $-1 $74 forward single #
loop $-1 $75 $76 $29 #
cone-surface $-1 40.304831275571104 -16.430253317987795 0.37269729350226388 -0.70710678939079041 0 -0.70710677298230451 0.35355338649115226 0 -0.35355339469539521 1 I I -0.70710678118654768 0.70710678118654735 0.5 forward I I I I #
loop $-1 $-1 $77 $19 #
coedge $-1 $48 $48 $78 $79 reversed $30 $-1 #
face $-1 $80 $81 $12 $-1 $82 reversed single #
loop $-1 $-1 $83 $32 #
plane-surface $-1 0 -20.463122213924574 0 0 1 0 0 0 1 forward_v I I I I #
coedge $-1 $84 $85 $86 $87 forward $33 $-1 #
coedge $-1 $88 $35 $89 $90 forward $21 $-1 #
coedge $-1 $35 $88 $91 $92 forward $21 $-1 #
coedge $-1 $93 $94 $35 $56 reversed $95 $-1 #
edge $-1 $96 -20.463122213924574 $97 20.463122213924574 $55 $98 forward 7 unknown #
face $-1 $99 $100 $13 $-1 $101 reversed single #
loop $-1 $-1 $102 $36 #
plane-surface $-1 -49.415202738243295 -11.430054449333936 0 0 1 0 0 0 1 forward_v I I I I #
coedge $-1 $103 $104 $62 $105 forward $37 $-1 #
coedge $-1 $106 $39 $107 $108 reversed $24 $-1 #
coedge $-1 $39 $106 $60 $105 reversed $24 $-1 #
coedge $-1 $109 $110 $39 $64 reversed $111 $-1 #
edge $-1 $112 -6.0165338822953194 $113 6.0165338822953194 $63 $114 forward 7 unknown #
face $-1 $115 $116 $14 $-1 $117 reversed single #
loop $-1 $-1 $118 $40 #
plane-surface $-1 0 -20.463122213924574 0 0 1 0 0 0 1 forward_v I I I I #
coedge $-1 $119 $120 $121 $122 reversed $41 $-1 #
coedge $-1 $123 $43 $118 $124 reversed $27 $-1 #
coedge $-1 $43 $123 $119 $125 forward $27 $-1 #
coedge $-1 $121 $126 $43 $72 forward $116 $-1 #
edge $-1 $127 -12.247995554930677 $128 -4.1822577630571178 $71 $129 forward 7 unknown #
loop $-1 $-1 $78 $44 #
plane-surface $-1 -19.032560649565568 -16.430253317987795 65.470161310538614 0.70710678939079041 0 0.70710677298230451 0.70710677298230451 0 -0.70710678939079041 forward_v I I I I #
loop $-1 $-1 $130 $29 #
coedge $-1 $76 $76 $77 $131 reversed $45 $-1 #
coedge $-1 $77 $77 $76 $131 forward $47 $-1 #
coedge $-1 $78 $78 $48 $79 forward $73 $-1 #
edge $-1 $132 0 $132 6.2831853071796004 $78 $133 forward 7 unknown #
face $-1 $134 $135 $12 $-1 $136 reversed single #
loop $-1 $-1 $137 $49 #
plane-surface $-1 -45.948667867061374 0 0 1 0 0 0 0 -1 forward_v I I I I #
coedge $-1 $138 $91 $139 $140 forward $50 $-1 #
coedge $-1 $141 $52 $138 $142 forward $33 $-1 #
coedge $-1 $52 $141 $143 $144 forward $33 $-1 #
coedge $-1 $94 $93 $52 $87 reversed $95 $-1 #
edge $-1 $145 -20.463122213924574 $146 20.463122213924574 $86 $147 forward 7 unknown #
coedge $-1 $54 $53 $148 $149 forward $21 $-1 #
coedge $-1 $150 $151 $53 $90 reversed $135 $-1 #
edge $-1 $97 -45.948667867061374 $152 45.948667867061374 $89 $153 forward 7 unknown #
coedge $-1 $83 $154 $54 $92 reversed $50 $-1 #
edge $-1 $155 -45.948667867061374 $96 45.948667867061374 $91 $156 forward 7 unknown #
coedge $-1 $86 $55 $154 $157 forward $95 $-1 #
coedge $-1 $55 $86 $150 $158 reversed $95 $-1 #
loop $-1 $-1 $93 $134 #
vertex $-1 $56 $159 #
vertex $-1 $56 $160 #
straight-curve $-1 45.948667867061374 0 6.0165338822953194 0 1 0 I I #
face $-1 $161 $111 $13 $-1 $162 reversed single #
loop $-1 $-1 $163 $57 #
plane-surface $-1 -52.881737609425215 -9.9300544493339356 0 1 0 0 0 0 -1 forward_v I I I I #
coedge $-1 $164 $165 $166 $167 forward $58 $-1 #
coedge $-1 $168 $60 $164 $169 forward $37 $-1 #
coedge $-1 $60 $168 $109 $170 forward $37 $-1 #
edge $-1 $112 8.4300544493339356 $171 11.430054449333936 $60 $172 forward 7 unknown #
coedge $-1 $62 $61 $173 $174 forward $24 $-1 #
coedge $-1 $175 $176 $61 $108 forward $177 $-1 #
edge $-1 $178 -11.430054449333936 $113 -8.4300544493339356 $107 $179 forward 7 unknown #
coedge $-1 $180 $63 $104 $170 reversed $111 $-1 #
coedge $-1 $63 $180 $175 $181 reversed $111 $-1 #
loop $-1 $-1 $63 $99 #
vertex $-1 $105 $182 #
vertex $-1 $181 $183 #
straight-curve $-1 -45.948667867061374 -8.4300544493339356 0 0 0 1 I I #
face $-1 $-1 $184 $14 $-1 $185 forward single #
loop $-1 $-1 $71 $65 #
plane-surface $-1 45.948667867061374 0 0 -1 0 0 0 0 1 forward_v I I I I #
coedge $-1 $186 $187 $69 $124 forward $66 $-1 #
coedge $-1 $120 $68 $70 $125 reversed $41 $-1 #
coedge $-1 $68 $119 $188 $189 reversed $41 $-1 #
coedge $-1 $190 $71 $68 $122 forward $116 $-1 #
edge $-1 $128 -64.736763627567257 $191 -59.209161031287465 $121 $192 forward 7 unknown #
coedge $-1 $70 $69 $193 $194 reversed $27 $-1 #
edge $-1 $195 54.203901211906519 $127 62.021111680274537 $118 $196 forward 7 unknown #
edge $-1 $197 84.080125265754745 $128 91.897335734122763 $119 $198 forward 7 unknown #
coedge $-1 $71 $190 $186 $199 forward $116 $-1 #
vertex $-1 $72 $200 #
vertex $-1 $72 $201 #
straight-curve $-1 45.948667867061374 -8.2151266589938974 0.48893128601554281 0 1 0 I I #
coedge $-1 $130 $130 $-1 $202 reversed $75 $-1 #
edge $-1 $203 0 $203 6.2831853071796004 $76 $204 forward 7 unknown #
vertex $-1 $79 $205 #
ellipse-curve $-1 43.184866633055783 -16.430253317987795 3.2527325841554209 0.70710678939079041 0 0.70710677298230451 0.70710677298230451 0 -0.70710678939079041 1 I I #
face $-1 $-1 $95 $12 $-1 $206 reversed single #
loop $-1 $-1 $150 $80 #
plane-surface $-1 0 20.463122213924574 0 0 -1 0 0 0 -1 forward_v I I I I #
coedge $-1 $207 $148 $151 $208 forward $81 $-1 #
coedge $-1 $154 $83 $84 $142 reversed $50 $-1 #
coedge $-1 $148 $207 $83 $140 reversed $81 $-1 #
edge $-1 $155 -6.0165338822953194 $209 6.0165338822953194 $139 $210 forward 7 unknown #
coedge $-1 $85 $84 $207 $211 forward $33 $-1 #
edge $-1 $146 -45.948667867061374 $209 45.948667867061374 $138 $212 forward 7 unknown #
coedge $-1 $151 $150 $85 $144 reversed $135 $-1 #
edge $-1 $213 -45.948667867061374 $145 45.948667867061374 $143 $214 forward 7 unknown #
vertex $-1 $87 $215 #
vertex $-1 $157 $216 #
straight-curve $-1 45.948667867061374 0 -6.0165338822953194 0 -1 0 I I #
coedge $-1 $137 $139 $88 $149 reversed $81 $-1 #
edge $-1 $152 -20.463122213924574 $155 20.463122213924574 $148 $217 forward 7 unknown #
coedge $-1 $143 $89 $94 $158 forward $135 $-1 #
coedge $-1 $89 $143 $137 $208 reversed $135 $-1 #
vertex $-1 $90 $218 #
straight-curve $-1 0 20.463122213924574 6.0165338822953194 -1 0 0 I I #
coedge $-1 $91 $138 $93 $157 reversed $50 $-1 #
vertex $-1 $149 $219 #
straight-curve $-1 0 -20.463122213924574 6.0165338822953194 1 0 0 I I #
edge $-1 $96 -6.0165338822953194 $146 6.0165338822953194 $93 $220 forward 7 unknown #
edge $-1 $97 -6.0165338822953194 $145 6.0165338822953194 $94 $221 forward 7 unknown #
point $-1 45.948667867061374 -20.463122213924574 6.0165338822953194 #
point $-1 45.948667867061374 20.463122213924574 6.0165338822953194 #
face $-1 $-1 $177 $13 $-1 $222 forward single #
plane-surface $-1 -49.415202738243295 -8.4300544493339356 0 0 -1 0 0 0 -1 forward_v I I I I #
coedge $-1 $223 $224 $180 $225 forward $100 $-1 #
coedge $-1 $173 $102 $103 $169 reversed $58 $-1 #
coedge $-1 $102 $173 $176 $226 reversed $58 $-1 #
coedge $-1 $224 $223 $102 $167 reversed $100 $-1 #
edge $-1 $227 -6.0165338822953194 $228 6.0165338822953194 $166 $229 forward 7 unknown #
coedge $-1 $104 $103 $223 $230 forward $37 $-1 #
edge $-1 $171 -3.4665348711819206 $228 3.4665348711819206 $164 $231 forward 7 unknown #
edge $-1 $232 -3.4665348711819206 $112 3.4665348711819206 $109 $233 forward 7 unknown #
vertex $-1 $169 $234 #
straight-curve $-1 -45.948667867061374 0 -6.0165338822953194 0 -1 0 I I #
coedge $-1 $165 $164 $106 $174 reversed $58 $-1 #
edge $-1 $178 -6.0165338822953194 $171 6.0165338822953194 $173 $235 forward 7 unknown #
coedge $-1 $236 $107 $110 $181 forward $177 $-1 #
coedge $-1 $107 $236 $165 $226 forward $177 $-1 #
loop $-1 $-1 $107 $161 #
vertex $-1 $108 $237 #
straight-curve $-1 -45.948667867061374 0 6.0165338822953194 0 1 0 I I #
coedge $-1 $110 $109 $163 $225 reversed $111 $-1 #
edge $-1 $113 -3.4665348711819206 $238 3.4665348711819206 $110 $239 forward 7 unknown #
point $-1 -45.948667867061374 -8.4300544493339356 -6.0165338822953194 #
point $-1 -45.948667867061374 -8.4300544493339356 6.0165338822953194 #
loop $-1 $-1 $193 $115 #
plane-surface $-1 0 0 6.0165338822953194 0 0 1 1 0 0 forward_v I I I I #
coedge $-1 $187 $118 $126 $199 reversed $66 $-1 #
coedge $-1 $118 $186 $240 $241 reversed $66 $-1 #
coedge $-1 $193 $242 $120 $189 forward $184 $-1 #
edge $-1 $191 -22.974333179582615 $197 -17.446730711571419 $188 $243 forward 7 unknown #
coedge $-1 $126 $121 $242 $244 reversed $116 $-1 #
vertex $-1 $122 $245 #
straight-curve $-1 45.948667867061374 -12.397384422051015 65.225694913582785 0 0 1 I I #
coedge $-1 $240 $188 $123 $194 forward $184 $-1 #
edge $-1 $197 4.1822577630571178 $195 12.247995554930677 $193 $246 forward 7 unknown #
vertex $-1 $241 $247 #
straight-curve $-1 2.0931197300473396 -20.463122213924574 44.344480440702107 0.70710677298230462 0 -0.70710678939079052 I I #
vertex $-1 $194 $248 #
straight-curve $-1 -19.032560649565568 -12.397384422051015 65.470161310538614 0.70710677298230451 0 -0.70710678939079041 I I #
edge $-1 $249 -6.0165338822953194 $127 -0.48893128601552904 $126 $250 forward 7 unknown #
point $-1 45.948667867061374 -20.463122213924574 0.48893128601552904 #
point $-1 45.948667867061374 -12.397384422051015 0.4889312860155286 #
edge $-1 $251 1 $251 0 $130 $-1 forward 7 unknown #
vertex $-1 $131 $252 #
ellipse-curve $-1 40.6583846702665 -16.430253317987795 0.72625067999341597 0.70710678939079041 0 0.70710677298230451 0.70710677298230451 0 -0.70710678939079041 1 I I #
point $-1 43.891973406038076 -16.430253317987795 2.5456257947646264 #
plane-surface $-1 45.948667867061374 0 0 -1 0 0 0 0 1 forward_v I I I I #
coedge $-1 $139 $137 $141 $211 reversed $81 $-1 #
edge $-1 $152 -6.0165338822953194 $213 6.0165338822953194 $151 $253 forward 7 unknown #
vertex $-1 $211 $254 #
straight-curve $-1 -45.948667867061374 -20.463122213924574 0 0 0 -1 I I #
edge $-1 $209 -20.463122213924574 $213 20.463122213924574 $207 $255 forward 7 unknown #
straight-curve $-1 0 -20.463122213924574 -6.0165338822953194 -1 0 0 I I #
vertex $-1 $144 $256 #
straight-curve $-1 0 20.463122213924574 -6.0165338822953194 1 0 0 I I #
point $-1 45.948667867061374 20.463122213924574 -6.0165338822953194 #
point $-1 45.948667867061374 -20.463122213924574 -6.0165338822953194 #
straight-curve $-1 -45.948667867061374 0 6.0165338822953194 0 -1 0 I I #
point $-1 -45.948667867061374 20.463122213924574 6.0165338822953194 #
point $-1 -45.948667867061374 -20.463122213924574 6.0165338822953194 #
straight-curve $-1 45.948667867061374 -20.463122213924574 0 0 0 -1 I I #
straight-curve $-1 45.948667867061374 20.463122213924574 0 0 0 -1 I I #
plane-surface $-1 0 0 6.0165338822953194 0 0 1 1 0 0 forward_v I I I I #
coedge $-1 $166 $163 $168 $230 reversed $100 $-1 #
coedge $-1 $163 $166 $236 $257 reversed $100 $-1 #
edge $-1 $238 -6.0165338822953194 $232 6.0165338822953194 $180 $258 forward 7 unknown #
edge $-1 $227 -3.4665348711819206 $178 3.4665348711819206 $165 $259 forward 7 unknown #
vertex $-1 $257 $260 #
vertex $-1 $230 $261 #
straight-curve $-1 -52.881737609425215 -11.430054449333936 0 0 0 -1 I I #
edge $-1 $228 -1.5 $232 1.5 $223 $262 forward 7 unknown #
straight-curve $-1 -49.415202738243295 -11.430054449333936 -6.0165338822953194 -1 0 0 I I #
vertex $-1 $170 $263 #
straight-curve $-1 -49.415202738243295 -8.4300544493339356 -6.0165338822953194 1 0 0 I I #
point $-1 -45.948667867061374 -11.430054449333936 -6.0165338822953194 #
straight-curve $-1 -45.948667867061374 -11.430054449333936 0 0 0 -1 I I #
coedge $-1 $176 $175 $224 $257 forward $177 $-1 #
point $-1 -45.948667867061374 -11.430054449333936 6.0165338822953194 #
vertex $-1 $181 $264 #
straight-curve $-1 -49.415202738243295 -8.4300544493339356 6.0165338822953194 -1 0 0 I I #
coedge $-1 $242 $193 $187 $241 forward $184 $-1 #
edge $-1 $195 40.421065399050178 $249 45.948667867061374 $187 $265 forward 7 unknown #
coedge $-1 $188 $240 $190 $244 forward $184 $-1 #
straight-curve $-1 22.974334687478759 -12.397384422051015 6.0165338822953203 -1 0 0 I I #
edge $-1 $249 -20.463122213924574 $191 -12.397384422051015 $190 $266 forward 7 unknown #
point $-1 45.948667867061374 -12.397384422051015 6.0165338822953194 #
straight-curve $-1 40.421065399050178 -8.2151266589938974 6.0165338822953132 0 -1 0 I I #
point $-1 40.421065399050178 -20.463122213924574 6.0165338822953203 #
point $-1 40.421065399050178 -12.397384422051015 6.0165338822953203 #
vertex $-1 $244 $267 #
straight-curve $-1 45.948667867061374 -20.463122213924574 0 0 0 -1 I I #
vertex $-1 $202 $268 #
point $-1 41.3654914432488 -16.430253317987795 0.019143890602625557 #
straight-curve $-1 -45.948667867061374 20.463122213924574 0 0 0 -1 I I #
point $-1 -45.948667867061374 -20.463122213924574 -6.0165338822953194 #
straight-curve $-1 -45.948667867061374 0 -6.0165338822953194 0 1 0 I I #
point $-1 -45.948667867061374 20.463122213924574 -6.0165338822953194 #
edge $-1 $238 -1.5 $227 1.5 $224 $269 forward 7 unknown #
straight-curve $-1 -52.881737609425215 -8.4300544493339356 0 0 0 -1 I I #
straight-curve $-1 -49.415202738243295 -11.430054449333936 6.0165338822953194 1 0 0 I I #
point $-1 -52.881737609425215 -11.430054449333936 6.0165338822953194 #
point $-1 -52.881737609425215 -11.430054449333936 -6.0165338822953194 #
straight-curve $-1 -52.881737609425215 -9.9300544493339356 -6.0165338822953194 0 1 0 I I #
point $-1 -52.881737609425215 -8.4300544493339356 -6.0165338822953194 #
point $-1 -52.881737609425215 -8.4300544493339356 6.0165338822953194 #
straight-curve $-1 0 -20.463122213924574 6.0165338822953194 1 0 0 I I #
straight-curve $-1 45.948667867061374 0 6.0165338822953194 0 1 0 I I #
point $-1 45.948667867061374 -20.463122213924574 6.0165338822953194 #
point $-1 39.951277880875708 -16.430253317987795 0.019143907011111794 #
straight-curve $-1 -52.881737609425215 -9.9300544493339356 6.0165338822953194 0 -1 0 I I #
End-of-ACIS-data 