500 0 15 0           
7 Unknown 11 ACIS 5.0 NT 24 Fri Mar 26 18:39:05 1999 
-1 9.9999999999999995e-007 1e-010 
body $-1 $15 $-1 $16 #
body $-1 $17 $-1 $18 #
body $-1 $19 $-1 $20 #
body $-1 $21 $-1 $22 #
body $-1 $23 $-1 $24 #
body $-1 $25 $-1 $26 #
body $-1 $27 $-1 $28 #
body $-1 $29 $-1 $30 #
body $-1 $31 $-1 $32 #
body $-1 $33 $-1 $34 #
body $-1 $35 $-1 $36 #
body $-1 $37 $-1 $38 #
body $-1 $39 $-1 $40 #
body $-1 $41 $-1 $42 #
body $-1 $43 $-1 $44 #
lump $-1 $-1 $45 $0 #
transform $-1 1 0 0 0 1 0 0 0 1 53.324381237220379 35.226769419697973 11.621275431777434 1 rotate no_reflect no_shear #
lump $-1 $-1 $46 $1 #
transform $-1 1 0 0 0 1 0 0 0 1 53.324381237220379 35.226769419697973 11.621275431777434 1 rotate no_reflect no_shear #
lump $-1 $-1 $47 $2 #
transform $-1 1 0 0 0 1 0 0 0 1 53.324381237220379 35.226769419697973 11.621275431777434 1 rotate no_reflect no_shear #
lump $-1 $-1 $48 $3 #
transform $-1 1 0 0 0 1 0 0 0 1 53.324381237220379 35.226769419697973 11.621275431777434 1 rotate no_reflect no_shear #
lump $-1 $-1 $49 $4 #
transform $-1 1 0 0 0 1 0 0 0 1 53.324381237220379 35.226769419697973 11.621275431777434 1 rotate no_reflect no_shear #
lump $-1 $-1 $50 $5 #
transform $-1 1 0 0 0 1 0 0 0 1 53.324381237220379 35.226769419697973 11.621275431777434 1 rotate no_reflect no_shear #
lump $-1 $-1 $51 $6 #
transform $-1 1 0 0 0 1 0 0 0 1 53.324381237220379 35.226769419697973 11.621275431777434 1 rotate no_reflect no_shear #
lump $-1 $-1 $52 $7 #
transform $-1 1 0 0 0 1 0 0 0 1 53.324381237220379 35.226769419697973 11.621275431777434 1 rotate no_reflect no_shear #
lump $-1 $-1 $53 $8 #
transform $-1 1 0 0 0 1 0 0 0 1 53.324381237220379 35.226769419697973 11.621275431777434 1 rotate no_reflect no_shear #
lump $-1 $-1 $54 $9 #
transform $-1 1 0 0 0 1 0 0 0 1 53.324381237220379 35.226769419697973 11.621275431777434 1 rotate no_reflect no_shear #
lump $-1 $-1 $55 $10 #
transform $-1 1 0 0 0 1 0 0 0 1 53.324381237220379 35.226769419697973 11.621275431777434 1 rotate no_reflect no_shear #
lump $-1 $-1 $56 $11 #
transform $-1 1 0 0 0 1 0 0 0 1 53.324381237220379 35.226769419697973 11.621275431777434 1 rotate no_reflect no_shear #
lump $-1 $-1 $57 $12 #
transform $-1 1 0 0 0 1 0 0 0 1 53.324381237220379 35.226769419697973 11.621275431777434 1 rotate no_reflect no_shear #
lump $-1 $-1 $58 $13 #
transform $-1 1 0 0 0 1 0 0 0 1 53.324381237220379 35.226769419697973 11.621275431777434 1 rotate no_reflect no_shear #
lump $-1 $-1 $59 $14 #
transform $-1 1 0 0 0 1 0 0 0 1 53.324381237220379 35.226769419697973 11.621275431777434 1 rotate no_reflect no_shear #
shell $-1 $-1 $-1 $60 $-1 $15 #
shell $-1 $-1 $-1 $61 $-1 $17 #
shell $-1 $-1 $-1 $62 $-1 $19 #
shell $-1 $-1 $-1 $63 $-1 $21 #
shell $-1 $-1 $-1 $64 $-1 $23 #
shell $-1 $-1 $-1 $65 $-1 $25 #
shell $-1 $-1 $-1 $66 $-1 $27 #
shell $-1 $-1 $-1 $67 $-1 $29 #
shell $-1 $-1 $-1 $68 $-1 $31 #
shell $-1 $-1 $-1 $69 $-1 $33 #
shell $-1 $-1 $-1 $70 $-1 $35 #
shell $-1 $-1 $-1 $71 $-1 $37 #
shell $-1 $-1 $-1 $72 $-1 $39 #
shell $-1 $-1 $-1 $73 $-1 $41 #
shell $-1 $-1 $-1 $74 $-1 $43 #
face $-1 $75 $76 $45 $-1 $77 forward single #
face $-1 $78 $79 $46 $-1 $80 forward single #
face $-1 $81 $82 $47 $-1 $83 reversed single #
face $-1 $84 $85 $48 $-1 $86 reversed single #
face $-1 $87 $88 $49 $-1 $89 forward single #
face $-1 $90 $91 $50 $-1 $92 forward single #
face $-1 $93 $94 $51 $-1 $95 forward single #
face $-1 $96 $97 $52 $-1 $98 reversed single #
face $-1 $99 $100 $53 $-1 $101 forward single #
face $-1 $102 $103 $54 $-1 $104 forward single #
face $-1 $105 $106 $55 $-1 $107 forward single #
face $-1 $108 $109 $56 $-1 $110 reversed single #
face $-1 $111 $112 $57 $-1 $113 forward single #
face $-1 $114 $115 $58 $-1 $116 forward single #
face $-1 $117 $118 $59 $-1 $119 forward single #
face $-1 $120 $121 $45 $-1 $122 reversed single #
loop $-1 $-1 $123 $60 #
plane-surface $-1 0 0 11.621275431777434 0 0 1 1 0 0 forward_v I I I I #
face $-1 $124 $125 $46 $-1 $126 reversed single #
loop $-1 $-1 $127 $61 #
plane-surface $-1 0 -35.226769419697973 0 0 1 0 0 0 1 forward_v I I I I #
face $-1 $128 $129 $47 $-1 $130 reversed single #
loop $-1 $-1 $131 $62 #
plane-surface $-1 0 30.864955441573983 8.3407043239904866 0 0 1 1 0 0 forward_v I I I I #
face $-1 $132 $133 $48 $-1 $134 reversed single #
loop $-1 $-1 $135 $63 #
plane-surface $-1 -111.4094610778773 -7.8180602888926671 94.500911934273574 0 1 0 -0.54463904215088732 0 0.83867056331134215 forward_v I I I I #
face $-1 $136 $137 $49 $-1 $138 forward single #
loop $-1 $139 $140 $64 #
cone-surface $-1 -47.256541416815274 -5.6459618387059933 6.7775330581723896 0.54463904215088732 0 -0.83867056331134215 0.83867056331134215 0 0.54463904215088732 1 I I 0 1 1 forward I I I I #
face $-1 $141 $142 $50 $-1 $143 forward single #
loop $-1 $144 $145 $65 #
cone-surface $-1 -47.256541416815274 -2.3878141634259791 6.7775330581723896 0.54463904215088732 0 -0.83867056331134215 0.83867056331134215 0 0.54463904215088732 1 I I 0 1 1 forward I I I I #
face $-1 $146 $147 $51 $-1 $148 forward single #
loop $-1 $149 $150 $66 #
cone-surface $-1 -47.256541416815274 0.87033351185403518 6.7775330581723896 0.54463904215088732 0 -0.83867056331134215 0.83867056331134215 0 0.54463904215088732 1 I I 0 1 1 forward I I I I #
face $-1 $151 $152 $52 $-1 $153 reversed single #
loop $-1 $-1 $154 $67 #
plane-surface $-1 -111.4094610778773 15.642649212516609 94.500911934273574 0 1 0 -0.54463904215088732 0 0.83867056331134215 forward_v I I I I #
face $-1 $155 $156 $53 $-1 $157 forward single #
loop $-1 $158 $159 $68 #
cone-surface $-1 -47.256541416815274 17.814747662703283 6.7775330581723896 0.54463904215088732 0 -0.83867056331134215 0.83867056331134215 0 0.54463904215088732 1 I I 0 1 1 forward I I I I #
face $-1 $160 $161 $54 $-1 $162 forward single #
loop $-1 $163 $164 $69 #
cone-surface $-1 -47.256541416815274 21.072895337983297 6.7775330581723896 0.54463904215088732 0 -0.83867056331134215 0.83867056331134215 0 0.54463904215088732 1 I I 0 1 1 forward I I I I #
face $-1 $165 $166 $55 $-1 $167 forward single #
loop $-1 $168 $169 $70 #
cone-surface $-1 -47.256541416815274 24.331043013263312 6.7775330581723896 0.54463904215088732 0 -0.83867056331134215 0.83867056331134215 0 0.54463904215088732 1 I I 0 1 1 forward I I I I #
face $-1 $170 $171 $56 $-1 $172 reversed single #
loop $-1 $-1 $173 $71 #
plane-surface $-1 -10.858445056557372 21.335838653075669 86.074636221923114 0.79863551827123203 0 0.60181501223851219 0.60181501223851219 0 -0.79863551827123203 forward_v I I I I #
face $-1 $174 $175 $57 $-1 $176 forward single #
loop $-1 $177 $178 $72 #
cone-surface $-1 48.667143036159736 18.235456966851082 5.7954090634039606 -0.79863551827123203 0 -0.60181501223851219 0.3009075061192561 0 -0.39931775913561601 1 I I 0 1 0.5 forward I I I I #
face $-1 $179 $180 $58 $-1 $181 forward single #
loop $-1 $182 $183 $73 #
cone-surface $-1 48.667143036159736 21.335838653075669 5.7954090634039606 -0.79863551827123203 0 -0.60181501223851219 0.3009075061192561 0 -0.39931775913561601 1 I I 0 1 0.5 forward I I I I #
face $-1 $184 $185 $59 $-1 $186 forward single #
loop $-1 $187 $188 $74 #
cone-surface $-1 48.667143036159736 24.436220339300256 5.7954090634039606 -0.79863551827123203 0 -0.60181501223851219 0.3009075061192561 0 -0.39931775913561601 1 I I 0 1 0.5 forward I I I I #
face $-1 $189 $190 $45 $-1 $191 reversed single #
loop $-1 $-1 $192 $75 #
plane-surface $-1 0 0 -11.621275431777434 0 0 1 1 0 0 forward_v I I I I #
coedge $-1 $193 $194 $195 $196 forward $76 $-1 #
face $-1 $197 $198 $46 $-1 $199 reversed single #
loop $-1 $-1 $200 $78 #
plane-surface $-1 0 0 -11.621275431777434 0 0 1 1 0 0 forward_v I I I I #
coedge $-1 $201 $202 $203 $204 forward $79 $-1 #
face $-1 $205 $206 $47 $-1 $207 reversed single #
loop $-1 $-1 $208 $81 #
plane-surface $-1 0 26.503141463449989 9.9809898778839603 0 1 0 0 0 1 forward_v I I I I #
coedge $-1 $209 $210 $211 $212 reversed $82 $-1 #
face $-1 $213 $214 $48 $-1 $215 reversed single #
loop $-1 $-1 $216 $84 #
plane-surface $-1 -53.324381237220386 -2.3878141634259791 5.05773423337682 -0.54463904215088732 0 0.83867056331134215 0.83867056331134215 0 0.54463904215088732 forward_v I I I I #
coedge $-1 $217 $218 $219 $220 reversed $85 $-1 #
face $-1 $-1 $221 $49 $-1 $222 forward single #
loop $-1 $223 $224 $87 #
cone-surface $-1 -45.969865546186284 -5.6459618387059933 4.7962260021119931 0.54463904215088732 0 -0.83867056331134215 0.41933528165567108 0 0.27231952107544366 1 I I -0.70710678118654746 0.70710678118654746 0.5 forward I I I I #
loop $-1 $-1 $225 $64 #
coedge $-1 $140 $140 $226 $227 reversed $88 $-1 #
face $-1 $-1 $228 $50 $-1 $229 forward single #
loop $-1 $230 $231 $90 #
cone-surface $-1 -45.969865546186284 -2.3878141634259791 4.7962260021119931 0.54463904215088732 0 -0.83867056331134215 0.41933528165567108 0 0.27231952107544366 1 I I -0.70710678118654746 0.70710678118654746 0.5 forward I I I I #
loop $-1 $-1 $232 $65 #
coedge $-1 $145 $145 $233 $234 reversed $91 $-1 #
face $-1 $-1 $235 $51 $-1 $236 forward single #
loop $-1 $237 $238 $93 #
cone-surface $-1 -45.969865546186284 0.87033351185403518 4.7962260021119931 0.54463904215088732 0 -0.83867056331134215 0.41933528165567108 0 0.27231952107544366 1 I I -0.70710678118654746 0.70710678118654746 0.5 forward I I I I #
loop $-1 $-1 $239 $66 #
coedge $-1 $150 $150 $240 $241 reversed $94 $-1 #
face $-1 $242 $243 $52 $-1 $244 forward single #
loop $-1 $-1 $245 $96 #
plane-surface $-1 -53.324381237220386 21.072895337983297 5.05773423337682 -0.54463904215088732 0 0.83867056331134215 0.83867056331134215 0 0.54463904215088732 forward_v I I I I #
coedge $-1 $246 $247 $248 $249 reversed $97 $-1 #
face $-1 $-1 $250 $53 $-1 $251 forward single #
loop $-1 $252 $253 $99 #
cone-surface $-1 -45.969865546186284 17.814747662703283 4.7962260021119931 0.54463904215088732 0 -0.83867056331134215 0.41933528165567108 0 0.27231952107544366 1 I I -0.70710678118654746 0.70710678118654746 0.5 forward I I I I #
loop $-1 $-1 $254 $68 #
coedge $-1 $159 $159 $255 $256 reversed $100 $-1 #
face $-1 $-1 $257 $54 $-1 $258 forward single #
loop $-1 $259 $260 $102 #
cone-surface $-1 -45.969865546186284 21.072895337983297 4.7962260021119931 0.54463904215088732 0 -0.83867056331134215 0.41933528165567108 0 0.27231952107544366 1 I I -0.70710678118654746 0.70710678118654746 0.5 forward I I I I #
loop $-1 $-1 $261 $69 #
coedge $-1 $164 $164 $262 $263 reversed $103 $-1 #
face $-1 $-1 $264 $55 $-1 $265 forward single #
loop $-1 $266 $267 $105 #
cone-surface $-1 -45.969865546186284 24.331043013263312 4.7962260021119931 0.54463904215088732 0 -0.83867056331134215 0.41933528165567108 0 0.27231952107544366 1 I I -0.70710678118654746 0.70710678118654746 0.5 forward I I I I #
loop $-1 $-1 $268 $70 #
coedge $-1 $169 $169 $269 $270 reversed $106 $-1 #
face $-1 $271 $272 $56 $-1 $273 forward single #
loop $-1 $-1 $274 $108 #
plane-surface $-1 74.315044635203151 16.168535842701356 150.25746251570087 0 1 0 0.79863551827123203 0 0.60181501223851219 forward_v I I I I #
coedge $-1 $275 $276 $277 $278 reversed $109 $-1 #
face $-1 $-1 $279 $57 $-1 $280 forward single #
loop $-1 $281 $282 $111 #
cone-surface $-1 47.849344116410165 18.235456966851082 5.1791533927782751 -0.79863551827123203 0 -0.60181501223851219 0.15045375305962805 0 -0.19965887956780801 1 I I -0.70710678118654746 0.70710678118654746 0.25 forward I I I I #
loop $-1 $-1 $283 $72 #
coedge $-1 $178 $178 $284 $285 reversed $112 $-1 #
face $-1 $-1 $286 $58 $-1 $287 forward single #
loop $-1 $288 $289 $114 #
cone-surface $-1 47.849344116410165 21.335838653075669 5.1791533927782751 -0.79863551827123203 0 -0.60181501223851219 0.15045375305962805 0 -0.19965887956780801 1 I I -0.70710678118654746 0.70710678118654746 0.25 forward I I I I #
loop $-1 $-1 $290 $73 #
coedge $-1 $183 $183 $291 $292 reversed $115 $-1 #
face $-1 $-1 $293 $59 $-1 $294 forward single #
loop $-1 $295 $296 $117 #
cone-surface $-1 47.849344116410165 24.436220339300256 5.1791533927782751 -0.79863551827123203 0 -0.60181501223851219 0.15045375305962805 0 -0.19965887956780801 1 I I -0.70710678118654746 0.70710678118654746 0.25 forward I I I I #
loop $-1 $-1 $297 $74 #
coedge $-1 $188 $188 $298 $299 reversed $118 $-1 #
face $-1 $300 $301 $45 $-1 $302 reversed single #
loop $-1 $-1 $303 $120 #
plane-surface $-1 0 -35.226769419697973 0 0 1 0 0 0 1 forward_v I I I I #
coedge $-1 $304 $305 $306 $307 forward $121 $-1 #
coedge $-1 $308 $123 $309 $310 forward $76 $-1 #
coedge $-1 $123 $308 $311 $312 forward $76 $-1 #
coedge $-1 $313 $314 $123 $196 reversed $315 $-1 #
edge $-1 $316 -35.226769419697973 $317 35.226769419697973 $195 $318 forward 7 unknown #
face $-1 $319 $320 $46 $-1 $321 reversed single #
loop $-1 $-1 $322 $124 #
plane-surface $-1 -47.08075624860593 -50.035261300027386 0 0 1 0 0 0 1 forward_v I I I I #
coedge $-1 $323 $324 $202 $325 forward $125 $-1 #
coedge $-1 $326 $127 $327 $328 reversed $79 $-1 #
coedge $-1 $127 $326 $200 $325 reversed $79 $-1 #
coedge $-1 $329 $330 $127 $204 reversed $320 $-1 #
edge $-1 $331 -11.621275431777434 $332 11.621275431777434 $203 $333 forward 7 unknown #
face $-1 $334 $335 $47 $-1 $336 forward single #
loop $-1 $-1 $337 $128 #
plane-surface $-1 -53.324381237220379 0 0 1 0 0 0 0 -1 forward_v I I I I #
coedge $-1 $338 $339 $340 $341 reversed $129 $-1 #
coedge $-1 $342 $131 $338 $343 forward $82 $-1 #
coedge $-1 $131 $342 $344 $345 reversed $82 $-1 #
coedge $-1 $346 $347 $131 $212 forward $348 $-1 #
edge $-1 $349 11.070663742662997 $350 19.794291698910982 $211 $351 forward 7 unknown #
face $-1 $352 $353 $48 $-1 $354 forward single #
loop $-1 $-1 $355 $132 #
plane-surface $-1 -111.4094610778773 3.042431962040709 94.500911934273574 0 -1 0 0.54463904215088732 0 -0.83867056331134215 forward_v I I I I #
coedge $-1 $356 $357 $358 $359 reversed $133 $-1 #
coedge $-1 $218 $135 $360 $361 reversed $85 $-1 #
coedge $-1 $135 $217 $356 $362 reversed $85 $-1 #
coedge $-1 $358 $363 $135 $220 forward $353 $-1 #
edge $-1 $364 2.3803493017182689 $365 12.487316243421333 $219 $366 forward 7 unknown #
loop $-1 $-1 $226 $136 #
plane-surface $-1 -53.324381237220386 -2.3878141634259791 5.05773423337682 -0.54463904215088732 0 0.83867056331134215 0.83867056331134215 0 0.54463904215088732 forward_v I I I I #
loop $-1 $-1 $367 $87 #
coedge $-1 $224 $224 $225 $368 reversed $137 $-1 #
coedge $-1 $225 $225 $224 $368 forward $139 $-1 #
coedge $-1 $226 $226 $140 $227 forward $221 $-1 #
edge $-1 $369 0 $369 6.2831853071796004 $226 $370 forward 7 unknown #
loop $-1 $-1 $233 $141 #
plane-surface $-1 -53.324381237220386 -2.3878141634259791 5.05773423337682 -0.54463904215088732 0 0.83867056331134215 0.83867056331134215 0 0.54463904215088732 forward_v I I I I #
loop $-1 $-1 $371 $90 #
coedge $-1 $231 $231 $232 $372 reversed $142 $-1 #
coedge $-1 $232 $232 $231 $372 forward $144 $-1 #
coedge $-1 $233 $233 $145 $234 forward $228 $-1 #
edge $-1 $373 0 $373 6.2831853071796004 $233 $374 forward 7 unknown #
loop $-1 $-1 $240 $146 #
plane-surface $-1 -53.324381237220386 -2.3878141634259791 5.05773423337682 -0.54463904215088732 0 0.83867056331134215 0.83867056331134215 0 0.54463904215088732 forward_v I I I I #
loop $-1 $-1 $375 $93 #
coedge $-1 $238 $238 $239 $376 reversed $147 $-1 #
coedge $-1 $239 $239 $238 $376 forward $149 $-1 #
coedge $-1 $240 $240 $150 $241 forward $235 $-1 #
edge $-1 $377 0 $377 6.2831853071796004 $240 $378 forward 7 unknown #
face $-1 $379 $380 $52 $-1 $381 forward single #
loop $-1 $-1 $248 $151 #
plane-surface $-1 0 0 11.621275431777434 0 0 1 1 0 0 forward_v I I I I #
coedge $-1 $382 $383 $384 $385 reversed $152 $-1 #
coedge $-1 $247 $154 $386 $387 reversed $97 $-1 #
coedge $-1 $154 $246 $382 $388 reversed $97 $-1 #
coedge $-1 $384 $389 $154 $249 forward $243 $-1 #
edge $-1 $390 2.3803493017182689 $391 12.487316243421333 $248 $392 forward 7 unknown #
loop $-1 $-1 $255 $155 #
plane-surface $-1 -53.324381237220386 21.072895337983297 5.05773423337682 -0.54463904215088732 0 0.83867056331134215 0.83867056331134215 0 0.54463904215088732 forward_v I I I I #
loop $-1 $-1 $393 $99 #
coedge $-1 $253 $253 $254 $394 reversed $156 $-1 #
coedge $-1 $254 $254 $253 $394 forward $158 $-1 #
coedge $-1 $255 $255 $159 $256 forward $250 $-1 #
edge $-1 $395 0 $395 6.2831853071796004 $255 $396 forward 7 unknown #
loop $-1 $-1 $262 $160 #
plane-surface $-1 -53.324381237220386 21.072895337983297 5.05773423337682 -0.54463904215088732 0 0.83867056331134215 0.83867056331134215 0 0.54463904215088732 forward_v I I I I #
loop $-1 $-1 $397 $102 #
coedge $-1 $260 $260 $261 $398 reversed $161 $-1 #
coedge $-1 $261 $261 $260 $398 forward $163 $-1 #
coedge $-1 $262 $262 $164 $263 forward $257 $-1 #
edge $-1 $399 0 $399 6.2831853071796004 $262 $400 forward 7 unknown #
loop $-1 $-1 $269 $165 #
plane-surface $-1 -53.324381237220386 21.072895337983297 5.05773423337682 -0.54463904215088732 0 0.83867056331134215 0.83867056331134215 0 0.54463904215088732 forward_v I I I I #
loop $-1 $-1 $401 $105 #
coedge $-1 $267 $267 $268 $402 reversed $166 $-1 #
coedge $-1 $268 $268 $267 $402 forward $168 $-1 #
coedge $-1 $269 $269 $169 $270 forward $264 $-1 #
edge $-1 $403 0 $403 6.2831853071796004 $269 $404 forward 7 unknown #
face $-1 $405 $406 $56 $-1 $407 forward single #
loop $-1 $-1 $408 $170 #
plane-surface $-1 0 26.503141463449989 9.9809898778839603 0 1 0 0 0 1 forward_v I I I I #
coedge $-1 $409 $410 $411 $412 reversed $171 $-1 #
coedge $-1 $413 $173 $408 $414 reversed $109 $-1 #
coedge $-1 $173 $413 $409 $415 forward $109 $-1 #
coedge $-1 $411 $416 $173 $278 forward $406 $-1 #
edge $-1 $417 -15.835222136912147 $418 -5.5006165161635217 $277 $419 forward 7 unknown #
loop $-1 $-1 $284 $174 #
plane-surface $-1 -10.858445056557372 21.335838653075669 86.074636221923114 0.79863551827123203 0 0.60181501223851219 0.60181501223851219 0 -0.79863551827123203 forward_v I I I I #
loop $-1 $-1 $420 $111 #
coedge $-1 $282 $282 $283 $421 reversed $175 $-1 #
coedge $-1 $283 $283 $282 $421 forward $177 $-1 #
coedge $-1 $284 $284 $178 $285 forward $279 $-1 #
edge $-1 $422 0 $422 6.2831853071796004 $284 $423 forward 7 unknown #
loop $-1 $-1 $291 $179 #
plane-surface $-1 -10.858445056557372 21.335838653075669 86.074636221923114 0.79863551827123203 0 0.60181501223851219 0.60181501223851219 0 -0.79863551827123203 forward_v I I I I #
loop $-1 $-1 $424 $114 #
coedge $-1 $289 $289 $290 $425 reversed $180 $-1 #
coedge $-1 $290 $290 $289 $425 forward $182 $-1 #
coedge $-1 $291 $291 $183 $292 forward $286 $-1 #
edge $-1 $426 0 $426 6.2831853071796004 $291 $427 forward 7 unknown #
loop $-1 $-1 $298 $184 #
plane-surface $-1 -10.858445056557372 21.335838653075669 86.074636221923114 0.79863551827123203 0 0.60181501223851219 0.60181501223851219 0 -0.79863551827123203 forward_v I I I I #
loop $-1 $-1 $428 $117 #
coedge $-1 $296 $296 $297 $429 reversed $185 $-1 #
coedge $-1 $297 $297 $296 $429 forward $187 $-1 #
coedge $-1 $298 $298 $188 $299 forward $293 $-1 #
edge $-1 $430 0 $430 6.2831853071796004 $298 $431 forward 7 unknown #
face $-1 $432 $433 $45 $-1 $434 reversed single #
loop $-1 $-1 $435 $189 #
plane-surface $-1 -53.324381237220379 0 0 1 0 0 0 0 -1 forward_v I I I I #
coedge $-1 $436 $311 $437 $438 forward $190 $-1 #
coedge $-1 $439 $192 $436 $440 forward $121 $-1 #
coedge $-1 $192 $439 $441 $442 forward $121 $-1 #
coedge $-1 $314 $313 $192 $307 reversed $315 $-1 #
edge $-1 $443 -35.226769419697973 $444 35.226769419697973 $306 $445 forward 7 unknown #
coedge $-1 $194 $193 $446 $447 forward $76 $-1 #
coedge $-1 $448 $449 $193 $310 reversed $433 $-1 #
edge $-1 $317 -53.324381237220379 $450 53.324381237220379 $309 $451 forward 7 unknown #
coedge $-1 $303 $452 $194 $312 reversed $190 $-1 #
edge $-1 $453 -53.324381237220379 $316 53.324381237220379 $311 $454 forward 7 unknown #
coedge $-1 $306 $195 $452 $455 forward $315 $-1 #
coedge $-1 $195 $306 $448 $456 reversed $315 $-1 #
loop $-1 $-1 $313 $432 #
vertex $-1 $196 $457 #
vertex $-1 $196 $458 #
straight-curve $-1 53.324381237220379 0 11.621275431777434 0 1 0 I I #
face $-1 $459 $460 $46 $-1 $461 reversed single #
loop $-1 $-1 $203 $197 #
plane-surface $-1 -49.235020877658307 -42.63101535986268 0 1 0 0 0 0 -1 forward_v I I I I #
coedge $-1 $462 $463 $464 $465 forward $198 $-1 #
coedge $-1 $466 $200 $467 $468 forward $125 $-1 #
coedge $-1 $200 $466 $329 $469 forward $125 $-1 #
edge $-1 $331 -49.235020877658307 $470 -44.926491619553552 $200 $471 forward 7 unknown #
coedge $-1 $202 $201 $472 $473 forward $79 $-1 #
coedge $-1 $474 $475 $201 $328 forward $476 $-1 #
edge $-1 $477 44.926491619553552 $332 49.235020877658307 $327 $478 forward 7 unknown #
coedge $-1 $464 $203 $324 $469 reversed $320 $-1 #
coedge $-1 $203 $464 $474 $479 reversed $320 $-1 #
vertex $-1 $325 $480 #
vertex $-1 $479 $481 #
straight-curve $-1 -49.235020877658307 -35.226769419697973 0 0 0 1 I I #
face $-1 $482 $483 $47 $-1 $484 reversed single #
loop $-1 $-1 $485 $205 #
plane-surface $-1 0 0 11.621275431777434 0 0 1 1 0 0 forward_v I I I I #
coedge $-1 $340 $486 $342 $487 forward $206 $-1 #
coedge $-1 $488 $208 $209 $343 reversed $129 $-1 #
coedge $-1 $208 $488 $485 $489 reversed $129 $-1 #
coedge $-1 $490 $337 $208 $341 forward $206 $-1 #
edge $-1 $491 3.3502093850485064 $492 6.6307804928354539 $340 $493 forward 7 unknown #
coedge $-1 $210 $209 $337 $487 reversed $82 $-1 #
edge $-1 $349 -53.324381237220379 $491 53.324381237220379 $338 $494 forward 7 unknown #
coedge $-1 $495 $496 $210 $345 forward $483 $-1 #
edge $-1 $350 -53.324381237220379 $497 53.324381237220379 $344 $498 forward 7 unknown #
coedge $-1 $499 $211 $496 $500 reversed $348 $-1 #
coedge $-1 $211 $499 $488 $501 forward $348 $-1 #
loop $-1 $-1 $211 $482 #
vertex $-1 $212 $502 #
vertex $-1 $212 $503 #
straight-curve $-1 53.324381237220379 15.432477720786991 8.3407043239904866 0 1 0 I I #
face $-1 $-1 $504 $48 $-1 $505 reversed single #
loop $-1 $-1 $219 $213 #
plane-surface $-1 0 0 11.621275431777434 0 0 1 1 0 0 forward_v I I I I #
coedge $-1 $506 $507 $508 $509 reversed $214 $-1 #
coedge $-1 $510 $216 $218 $362 forward $133 $-1 #
coedge $-1 $216 $510 $506 $511 forward $133 $-1 #
coedge $-1 $508 $219 $216 $359 forward $353 $-1 #
edge $-1 $365 -6.6241532071796776 $512 4.2363390437536985 $358 $513 forward 7 unknown #
coedge $-1 $514 $515 $217 $361 forward $504 $-1 #
edge $-1 $516 -42.19272173375996 $364 -35.629180535359353 $360 $517 forward 7 unknown #
edge $-1 $365 -12.051176449782025 $516 -8.3777959833898778e-015 $218 $518 forward 7 unknown #
coedge $-1 $219 $508 $514 $519 forward $353 $-1 #
vertex $-1 $220 $520 #
vertex $-1 $220 $521 #
straight-curve $-1 -55.704730538938648 -7.8180602888926671 11.621275431777434 1 0 0 I I #
coedge $-1 $367 $367 $-1 $522 reversed $223 $-1 #
edge $-1 $523 0 $523 6.2831853071796004 $224 $524 forward 7 unknown #
vertex $-1 $227 $525 #
ellipse-curve $-1 -48.270897766368833 -5.6459618387059933 8.3395048325771359 -0.54463904215088732 0 0.83867056331134215 0.83867056331134215 0 0.54463904215088732 1 I I #
coedge $-1 $371 $371 $-1 $526 reversed $230 $-1 #
edge $-1 $527 0 $527 6.2831853071796004 $231 $528 forward 7 unknown #
vertex $-1 $234 $529 #
ellipse-curve $-1 -48.270897766368833 -2.3878141634259791 8.3395048325771359 -0.54463904215088732 0 0.83867056331134215 0.83867056331134215 0 0.54463904215088732 1 I I #
coedge $-1 $375 $375 $-1 $530 reversed $237 $-1 #
edge $-1 $531 0 $531 6.2831853071796004 $238 $532 forward 7 unknown #
vertex $-1 $241 $533 #
ellipse-curve $-1 -48.270897766368833 0.87033351185403518 8.3395048325771359 -0.54463904215088732 0 0.83867056331134215 0.83867056331134215 0 0.54463904215088732 1 I I #
face $-1 $-1 $534 $52 $-1 $535 reversed single #
loop $-1 $-1 $536 $242 #
plane-surface $-1 0 26.503141463449989 9.9809898778839603 0 1 0 0 0 1 forward_v I I I I #
coedge $-1 $537 $245 $247 $388 forward $152 $-1 #
coedge $-1 $245 $537 $536 $538 forward $152 $-1 #
coedge $-1 $539 $248 $245 $385 forward $243 $-1 #
edge $-1 $391 5.1062015435249606 $540 15.966693794458337 $384 $541 forward 7 unknown #
coedge $-1 $542 $543 $246 $387 forward $534 $-1 #
edge $-1 $544 -42.19272173375996 $390 -35.629180535359353 $386 $545 forward 7 unknown #
edge $-1 $391 -12.051176449782025 $544 -8.3777959833898778e-015 $247 $546 forward 7 unknown #
coedge $-1 $248 $539 $542 $547 forward $243 $-1 #
vertex $-1 $249 $548 #
vertex $-1 $249 $549 #
straight-curve $-1 -55.704730538938648 15.642649212516609 11.621275431777434 1 0 0 I I #
coedge $-1 $393 $393 $-1 $550 reversed $252 $-1 #
edge $-1 $551 0 $551 6.2831853071796004 $253 $552 forward 7 unknown #
vertex $-1 $256 $553 #
ellipse-curve $-1 -48.270897766368833 17.814747662703283 8.3395048325771359 -0.54463904215088732 0 0.83867056331134215 0.83867056331134215 0 0.54463904215088732 1 I I #
coedge $-1 $397 $397 $-1 $554 reversed $259 $-1 #
edge $-1 $555 0 $555 6.2831853071796004 $260 $556 forward 7 unknown #
vertex $-1 $263 $557 #
ellipse-curve $-1 -48.270897766368833 21.072895337983297 8.3395048325771359 -0.54463904215088732 0 0.83867056331134215 0.83867056331134215 0 0.54463904215088732 1 I I #
coedge $-1 $401 $401 $-1 $558 reversed $266 $-1 #
edge $-1 $559 0 $559 6.2831853071796004 $267 $560 forward 7 unknown #
vertex $-1 $270 $561 #
ellipse-curve $-1 -48.270897766368833 24.331043013263312 8.3395048325771359 -0.54463904215088732 0 0.83867056331134215 0.83867056331134215 0 0.54463904215088732 1 I I #
face $-1 $-1 $562 $56 $-1 $563 reversed single #
loop $-1 $-1 $277 $271 #
plane-surface $-1 0 0 11.621275431777434 0 0 1 1 0 0 forward_v I I I I #
coedge $-1 $564 $565 $275 $414 forward $272 $-1 #
coedge $-1 $410 $274 $276 $415 reversed $171 $-1 #
coedge $-1 $274 $409 $566 $567 reversed $171 $-1 #
coedge $-1 $568 $277 $274 $412 forward $406 $-1 #
edge $-1 $418 8.0886625978610454 $569 16.166858919618804 $411 $570 forward 7 unknown #
coedge $-1 $276 $275 $571 $572 reversed $109 $-1 #
edge $-1 $573 -72.995830509579335 $417 -59.572774990060005 $408 $574 forward 7 unknown #
edge $-1 $575 -106.64876247444076 $418 -93.225706954921435 $409 $576 forward 7 unknown #
coedge $-1 $277 $568 $564 $577 forward $406 $-1 #
vertex $-1 $278 $578 #
vertex $-1 $278 $579 #
straight-curve $-1 45.246184915462621 10.667919326537834 11.621275431777441 0 -1 0 I I #
coedge $-1 $420 $420 $-1 $580 reversed $281 $-1 #
edge $-1 $581 0 $581 6.2831853071796004 $282 $582 forward 7 unknown #
vertex $-1 $285 $583 #
ellipse-curve $-1 49.285283076341493 18.235456966851082 6.2612109809700138 0.79863551827123203 0 0.60181501223851219 0.3009075061192561 0 -0.39931775913561601 1 I I #
coedge $-1 $424 $424 $-1 $584 reversed $288 $-1 #
edge $-1 $585 0 $585 6.2831853071796004 $289 $586 forward 7 unknown #
vertex $-1 $292 $587 #
ellipse-curve $-1 49.285283076341493 21.335838653075669 6.2612109809700138 0.79863551827123203 0 0.60181501223851219 0.3009075061192561 0 -0.39931775913561601 1 I I #
coedge $-1 $428 $428 $-1 $588 reversed $295 $-1 #
edge $-1 $589 0 $589 6.2831853071796004 $296 $590 forward 7 unknown #
vertex $-1 $299 $591 #
ellipse-curve $-1 49.285283076341493 24.436220339300256 6.2612109809700138 0.79863551827123203 0 0.60181501223851219 0.3009075061192561 0 -0.39931775913561601 1 I I #
face $-1 $-1 $315 $45 $-1 $592 reversed single #
loop $-1 $-1 $448 $300 #
plane-surface $-1 0 35.226769419697973 0 0 -1 0 0 0 -1 forward_v I I I I #
coedge $-1 $593 $446 $449 $594 forward $301 $-1 #
coedge $-1 $452 $303 $304 $440 reversed $190 $-1 #
coedge $-1 $446 $593 $303 $438 reversed $301 $-1 #
edge $-1 $453 -11.621275431777434 $595 11.621275431777434 $437 $596 forward 7 unknown #
coedge $-1 $305 $304 $593 $597 forward $121 $-1 #
edge $-1 $444 -53.324381237220379 $595 53.324381237220379 $436 $598 forward 7 unknown #
coedge $-1 $449 $448 $305 $442 reversed $433 $-1 #
edge $-1 $599 -53.324381237220379 $443 53.324381237220379 $441 $600 forward 7 unknown #
vertex $-1 $307 $601 #
vertex $-1 $455 $602 #
straight-curve $-1 53.324381237220379 0 -11.621275431777434 0 -1 0 I I #
coedge $-1 $435 $437 $308 $447 reversed $301 $-1 #
edge $-1 $450 -35.226769419697973 $453 35.226769419697973 $446 $603 forward 7 unknown #
coedge $-1 $441 $309 $314 $456 forward $433 $-1 #
coedge $-1 $309 $441 $435 $594 reversed $433 $-1 #
vertex $-1 $310 $604 #
straight-curve $-1 0 35.226769419697973 11.621275431777434 -1 0 0 I I #
coedge $-1 $311 $436 $313 $455 reversed $190 $-1 #
vertex $-1 $447 $605 #
straight-curve $-1 0 -35.226769419697973 11.621275431777434 1 0 0 I I #
edge $-1 $316 -11.621275431777434 $444 11.621275431777434 $313 $606 forward 7 unknown #
edge $-1 $317 -11.621275431777434 $443 11.621275431777434 $314 $607 forward 7 unknown #
point $-1 53.324381237220379 -35.226769419697973 11.621275431777434 #
point $-1 53.324381237220379 35.226769419697973 11.621275431777434 #
face $-1 $-1 $476 $46 $-1 $608 forward single #
loop $-1 $-1 $609 $319 #
plane-surface $-1 -44.926491619553552 -42.63101535986268 0 -1 0 0 0 0 1 forward_v I I I I #
coedge $-1 $610 $322 $466 $611 reversed $198 $-1 #
coedge $-1 $322 $610 $612 $613 reversed $198 $-1 #
coedge $-1 $330 $329 $322 $465 reversed $320 $-1 #
edge $-1 $614 -11.621275431777434 $615 11.621275431777434 $464 $616 forward 7 unknown #
coedge $-1 $324 $323 $462 $611 forward $125 $-1 #
coedge $-1 $472 $609 $323 $468 reversed $460 $-1 #
edge $-1 $470 -7.4042459401647065 $617 7.4042459401647065 $467 $618 forward 7 unknown #
edge $-1 $615 -7.4042459401647065 $331 7.4042459401647065 $329 $619 forward 7 unknown #
vertex $-1 $468 $620 #
straight-curve $-1 0 -35.226769419697973 -11.621275431777434 1 0 0 I I #
coedge $-1 $621 $467 $326 $473 reversed $460 $-1 #
edge $-1 $477 -11.621275431777434 $470 11.621275431777434 $472 $622 forward 7 unknown #
coedge $-1 $612 $327 $330 $479 forward $476 $-1 #
coedge $-1 $327 $612 $621 $623 forward $476 $-1 #
loop $-1 $-1 $327 $459 #
vertex $-1 $328 $624 #
straight-curve $-1 0 -35.226769419697973 11.621275431777434 -1 0 0 I I #
edge $-1 $332 -7.4042459401647065 $614 7.4042459401647065 $330 $625 forward 7 unknown #
point $-1 -49.235020877658307 -35.226769419697973 -11.621275431777434 #
point $-1 -49.235020877658307 -35.226769419697973 11.621275431777434 #
face $-1 $-1 $348 $47 $-1 $626 reversed single #
loop $-1 $-1 $344 $334 #
plane-surface $-1 0 35.226769419697973 0 0 -1 0 0 0 -1 forward_v I I I I #
coedge $-1 $627 $628 $339 $489 forward $335 $-1 #
coedge $-1 $337 $490 $495 $629 forward $206 $-1 #
edge $-1 $497 -19.794291698910982 $491 -11.070663742662997 $337 $630 forward 7 unknown #
coedge $-1 $339 $338 $347 $501 reversed $129 $-1 #
edge $-1 $492 -53.324381237220379 $631 53.324381237220379 $485 $632 forward 7 unknown #
coedge $-1 $486 $340 $628 $633 reversed $206 $-1 #
vertex $-1 $487 $634 #
vertex $-1 $489 $635 #
straight-curve $-1 -53.324381237220379 26.503141463449989 4.9904949389419802 0 0 1 I I #
straight-curve $-1 0 26.503141463449989 8.3407043239904866 -1 0 0 I I #
coedge $-1 $636 $344 $486 $629 reversed $483 $-1 #
coedge $-1 $344 $636 $346 $500 forward $483 $-1 #
vertex $-1 $487 $637 #
straight-curve $-1 0 35.226769419697973 8.3407043239904866 -1 0 0 I I #
coedge $-1 $347 $346 $627 $638 reversed $348 $-1 #
edge $-1 $639 -11.621275431777434 $350 -8.3407043239904866 $346 $640 forward 7 unknown #
edge $-1 $631 -6.6307804928354539 $349 -3.3502093850485064 $347 $641 forward 7 unknown #
point $-1 53.324381237220379 26.503141463449989 8.3407043239904866 #
point $-1 53.324381237220379 35.226769419697973 8.3407043239904866 #
loop $-1 $-1 $360 $352 #
plane-surface $-1 -53.324381237220379 0 0 1 0 0 0 0 -1 forward_v I I I I #
coedge $-1 $507 $355 $357 $511 reversed $214 $-1 #
coedge $-1 $355 $506 $642 $643 reversed $214 $-1 #
coedge $-1 $363 $358 $355 $509 forward $353 $-1 #
edge $-1 $512 -12.487316243421333 $644 -2.3803493017182689 $508 $645 forward 7 unknown #
coedge $-1 $357 $356 $515 $646 reversed $133 $-1 #
edge $-1 $647 8.3777959833898778e-015 $512 12.051176449782025 $506 $648 forward 7 unknown #
vertex $-1 $359 $649 #
straight-curve $-1 -43.217414295517315 -1.1939070817129895 11.621275431777434 0 1 0 I I #
coedge $-1 $642 $360 $363 $519 reversed $504 $-1 #
coedge $-1 $360 $642 $510 $646 forward $504 $-1 #
vertex $-1 $361 $650 #
straight-curve $-1 -53.324381237220379 -7.8180602888926671 47.250455967136787 0 0 1 I I #
straight-curve $-1 -53.324381237220386 -7.8180602888926671 5.05773423337682 -0.83867056331134215 0 -0.54463904215088732 I I #
edge $-1 $644 -3.042431962040709 $364 7.8180602888926671 $514 $651 forward 7 unknown #
point $-1 -53.324381237220379 -7.8180602888926671 11.621275431777434 #
point $-1 -43.217414295517315 -7.8180602888926671 11.621275431777434 #
edge $-1 $652 1 $652 0 $367 $-1 forward 7 unknown #
vertex $-1 $368 $653 #
ellipse-curve $-1 -46.24218506726173 -5.6459618387059933 5.2155612837676646 -0.54463904215088732 0 0.83867056331134215 0.83867056331134215 0 0.54463904215088732 1 I I #
point $-1 -47.432227203057487 -5.6459618387059933 8.8841438747280019 #
edge $-1 $654 1 $654 0 $371 $-1 forward 7 unknown #
vertex $-1 $372 $655 #
ellipse-curve $-1 -46.24218506726173 -2.3878141634259791 5.2155612837676646 -0.54463904215088732 0 0.83867056331134215 0.83867056331134215 0 0.54463904215088732 1 I I #
point $-1 -47.432227203057487 -2.3878141634259791 8.8841438747280019 #
edge $-1 $656 1 $656 0 $375 $-1 forward 7 unknown #
vertex $-1 $376 $657 #
ellipse-curve $-1 -46.24218506726173 0.87033351185403518 5.2155612837676646 -0.54463904215088732 0 0.83867056331134215 0.83867056331134215 0 0.54463904215088732 1 I I #
point $-1 -47.432227203057487 0.87033351185403518 8.8841438747280019 #
loop $-1 $-1 $386 $379 #
plane-surface $-1 -53.324381237220379 0 0 1 0 0 0 0 -1 forward_v I I I I #
coedge $-1 $658 $659 $383 $538 reversed $380 $-1 #
coedge $-1 $383 $382 $543 $660 reversed $152 $-1 #
edge $-1 $661 8.3777959833898778e-015 $540 12.051176449782025 $536 $662 forward 7 unknown #
coedge $-1 $389 $384 $659 $663 forward $243 $-1 #
vertex $-1 $663 $664 #
straight-curve $-1 -43.217414295517315 10.536447668991649 11.621275431777434 0 1 0 I I #
coedge $-1 $665 $386 $389 $547 reversed $534 $-1 #
coedge $-1 $386 $665 $537 $660 forward $534 $-1 #
vertex $-1 $387 $666 #
straight-curve $-1 -53.324381237220379 15.642649212516609 47.250455967136787 0 0 1 I I #
straight-curve $-1 -53.324381237220386 15.642649212516609 5.05773423337682 -0.83867056331134215 0 -0.54463904215088732 I I #
edge $-1 $667 -26.503141463449989 $390 -15.642649212516609 $542 $668 forward 7 unknown #
point $-1 -53.324381237220379 15.642649212516609 11.621275431777434 #
point $-1 -43.217414295517315 15.642649212516609 11.621275431777434 #
edge $-1 $669 1 $669 0 $393 $-1 forward 7 unknown #
vertex $-1 $394 $670 #
ellipse-curve $-1 -46.24218506726173 17.814747662703283 5.2155612837676646 -0.54463904215088732 0 0.83867056331134215 0.83867056331134215 0 0.54463904215088732 1 I I #
point $-1 -47.432227203057487 17.814747662703283 8.8841438747280019 #
edge $-1 $671 1 $671 0 $397 $-1 forward 7 unknown #
vertex $-1 $398 $672 #
ellipse-curve $-1 -46.24218506726173 21.072895337983297 5.2155612837676646 -0.54463904215088732 0 0.83867056331134215 0.83867056331134215 0 0.54463904215088732 1 I I #
point $-1 -47.432227203057487 21.072895337983297 8.8841438747280019 #
edge $-1 $673 1 $673 0 $401 $-1 forward 7 unknown #
vertex $-1 $402 $674 #
ellipse-curve $-1 -46.24218506726173 24.331043013263312 5.2155612837676646 -0.54463904215088732 0 0.83867056331134215 0.83867056331134215 0 0.54463904215088732 1 I I #
point $-1 -47.432227203057487 24.331043013263312 8.8841438747280019 #
loop $-1 $-1 $675 $405 #
plane-surface $-1 53.324381237220379 0 0 -1 0 0 0 0 1 forward_v I I I I #
coedge $-1 $565 $408 $416 $577 reversed $272 $-1 #
coedge $-1 $408 $564 $675 $676 reversed $272 $-1 #
coedge $-1 $571 $677 $410 $567 forward $562 $-1 #
edge $-1 $569 63.507455826072999 $575 74.227584727687841 $566 $678 forward 7 unknown #
coedge $-1 $416 $411 $677 $679 forward $406 $-1 #
vertex $-1 $679 $680 #
straight-curve $-1 37.157522317601575 16.168535842701356 11.621275431777434 1 0 0 I I #
coedge $-1 $675 $566 $413 $572 forward $562 $-1 #
edge $-1 $575 5.5006165161635217 $573 15.835222136912147 $571 $681 forward 7 unknown #
vertex $-1 $676 $682 #
straight-curve $-1 9.3943946057375225 26.503141463449989 59.198209460819498 -0.60181501223851219 0 0.79863551827123203 I I #
vertex $-1 $572 $683 #
straight-curve $-1 -10.858445056557372 16.168535842701356 86.074636221923114 -0.60181501223851219 0 0.79863551827123203 I I #
edge $-1 $684 -53.324381237220379 $417 -45.246184915462621 $416 $685 forward 7 unknown #
point $-1 45.246184915462621 26.503141463449982 11.621275431777434 #
point $-1 45.246184915462621 16.168535842701356 11.621275431777434 #
edge $-1 $686 1 $686 0 $420 $-1 forward 7 unknown #
vertex $-1 $421 $687 #
ellipse-curve $-1 48.049002995977972 18.235456966851082 5.3296071458379028 0.79863551827123203 0 0.60181501223851219 0.3009075061192561 0 -0.39931775913561601 1 I I #
point $-1 49.586190582460759 18.235456966851082 5.8618932218344035 #
edge $-1 $688 1 $688 0 $424 $-1 forward 7 unknown #
vertex $-1 $425 $689 #
ellipse-curve $-1 48.049002995977972 21.335838653075669 5.3296071458379028 0.79863551827123203 0 0.60181501223851219 0.3009075061192561 0 -0.39931775913561601 1 I I #
point $-1 49.586190582460759 21.335838653075669 5.8618932218344035 #
edge $-1 $690 1 $690 0 $428 $-1 forward 7 unknown #
vertex $-1 $429 $691 #
ellipse-curve $-1 48.049002995977972 24.436220339300256 5.3296071458379028 0.79863551827123203 0 0.60181501223851219 0.3009075061192561 0 -0.39931775913561601 1 I I #
point $-1 49.586190582460759 24.436220339300256 5.8618932218344035 #
plane-surface $-1 53.324381237220379 0 0 -1 0 0 0 0 1 forward_v I I I I #
coedge $-1 $437 $435 $439 $597 reversed $301 $-1 #
edge $-1 $450 -11.621275431777434 $599 11.621275431777434 $449 $692 forward 7 unknown #
vertex $-1 $597 $693 #
straight-curve $-1 -53.324381237220379 -35.226769419697973 0 0 0 -1 I I #
edge $-1 $595 -35.226769419697973 $599 35.226769419697973 $593 $694 forward 7 unknown #
straight-curve $-1 0 -35.226769419697973 -11.621275431777434 -1 0 0 I I #
vertex $-1 $442 $695 #
straight-curve $-1 0 35.226769419697973 -11.621275431777434 1 0 0 I I #
point $-1 53.324381237220379 35.226769419697973 -11.621275431777434 #
point $-1 53.324381237220379 -35.226769419697973 -11.621275431777434 #
straight-curve $-1 -53.324381237220379 0 11.621275431777434 0 -1 0 I I #
point $-1 -53.324381237220379 35.226769419697973 11.621275431777434 #
point $-1 -53.324381237220379 -35.226769419697973 11.621275431777434 #
straight-curve $-1 53.324381237220379 -35.226769419697973 0 0 0 -1 I I #
straight-curve $-1 53.324381237220379 35.226769419697973 0 0 0 -1 I I #
plane-surface $-1 0 0 11.621275431777434 0 0 1 1 0 0 forward_v I I I I #
coedge $-1 $467 $621 $610 $696 forward $460 $-1 #
coedge $-1 $463 $462 $609 $696 reversed $198 $-1 #
edge $-1 $617 -2.1542646290523777 $615 2.1542646290523777 $462 $697 forward 7 unknown #
coedge $-1 $475 $474 $463 $613 forward $476 $-1 #
edge $-1 $614 -2.1542646290523777 $698 2.1542646290523777 $463 $699 forward 7 unknown #
vertex $-1 $479 $700 #
vertex $-1 $469 $701 #
straight-curve $-1 -49.235020877658307 -50.035261300027386 0 0 0 -1 I I #
vertex $-1 $696 $702 #
straight-curve $-1 -44.926491619553552 -42.63101535986268 -11.621275431777434 0 -1 0 I I #
straight-curve $-1 -49.235020877658307 -42.63101535986268 -11.621275431777434 0 1 0 I I #
point $-1 -44.926491619553552 -35.226769419697973 -11.621275431777434 #
coedge $-1 $609 $472 $475 $623 reversed $460 $-1 #
straight-curve $-1 -44.926491619553552 -35.226769419697973 0 0 0 -1 I I #
edge $-1 $698 -7.4042459401647065 $477 7.4042459401647065 $621 $703 forward 7 unknown #
point $-1 -44.926491619553552 -35.226769419697973 11.621275431777434 #
straight-curve $-1 -49.235020877658307 -42.63101535986268 11.621275431777434 0 -1 0 I I #
plane-surface $-1 53.324381237220379 0 0 -1 0 0 0 0 1 forward_v I I I I #
coedge $-1 $704 $485 $499 $638 forward $335 $-1 #
coedge $-1 $485 $704 $490 $633 forward $335 $-1 #
edge $-1 $705 -11.621275431777434 $497 -8.3407043239904866 $495 $706 forward 7 unknown #
straight-curve $-1 -53.324381237220379 15.432477720786991 8.3407043239904866 0 -1 0 I I #
vertex $-1 $638 $707 #
straight-curve $-1 0 26.503141463449989 11.621275431777434 1 0 0 I I #
edge $-1 $705 -35.226769419697973 $492 -26.503141463449989 $490 $708 forward 7 unknown #
point $-1 -53.324381237220379 26.503141463449989 8.3407043239904866 #
point $-1 -53.324381237220379 26.503141463449989 11.621275431777434 #
coedge $-1 $496 $495 $704 $709 reversed $483 $-1 #
point $-1 -53.324381237220379 35.226769419697973 8.3407043239904866 #
edge $-1 $631 26.503141463449989 $639 35.226769419697973 $499 $710 forward 7 unknown #
vertex $-1 $638 $711 #
straight-curve $-1 53.324381237220379 35.226769419697973 0 0 0 -1 I I #
straight-curve $-1 53.324381237220379 26.503141463449989 4.9904949389419802 0 0 -1 I I #
coedge $-1 $515 $514 $507 $643 forward $504 $-1 #
edge $-1 $644 35.629180535359353 $647 42.19272173375996 $642 $712 forward 7 unknown #
vertex $-1 $519 $713 #
straight-curve $-1 -55.704730538938648 3.042431962040709 11.621275431777434 -1 0 0 I I #
edge $-1 $647 -4.2363390437536985 $516 6.6241532071796776 $515 $714 forward 7 unknown #
vertex $-1 $646 $715 #
straight-curve $-1 -53.324381237220386 3.042431962040709 5.05773423337682 0.83867056331134215 0 0.54463904215088732 I I #
point $-1 -43.217414295517315 3.042431962040709 11.621275431777434 #
point $-1 -53.324381237220379 -7.8180602888926671 5.0577342333768245 #
straight-curve $-1 -53.324381237220379 0 11.621275431777434 0 -1 0 I I #
vertex $-1 $522 $716 #
point $-1 -45.403514503950383 -5.6459618387059933 5.7602003259185519 #
vertex $-1 $526 $717 #
point $-1 -45.403514503950383 -2.3878141634259791 5.7602003259185519 #
vertex $-1 $530 $718 #
point $-1 -45.403514503950383 0.87033351185403518 5.7602003259185519 #
coedge $-1 $659 $536 $665 $719 reversed $380 $-1 #
coedge $-1 $536 $658 $539 $663 reversed $380 $-1 #
edge $-1 $661 -15.966693794458337 $544 -5.1062015435249606 $543 $720 forward 7 unknown #
vertex $-1 $719 $721 #
straight-curve $-1 -53.324381237220386 26.503141463449985 5.05773423337682 0.83867056331134215 0 0.54463904215088732 I I #
edge $-1 $540 43.217414295517315 $667 53.324381237220379 $539 $722 forward 7 unknown #
point $-1 -43.217414295517315 26.503141463449985 11.621275431777434 #
coedge $-1 $543 $542 $658 $719 forward $534 $-1 #
point $-1 -53.324381237220379 15.642649212516609 5.0577342333768245 #
vertex $-1 $547 $723 #
straight-curve $-1 -53.324381237220379 0 11.621275431777434 0 -1 0 I I #
vertex $-1 $550 $724 #
point $-1 -45.403514503950383 17.814747662703283 5.7602003259185519 #
vertex $-1 $554 $725 #
point $-1 -45.403514503950383 21.072895337983297 5.7602003259185519 #
vertex $-1 $558 $726 #
point $-1 -45.403514503950383 24.331043013263312 5.7602003259185519 #
coedge $-1 $677 $571 $565 $676 forward $562 $-1 #
edge $-1 $573 -74.227584727687841 $684 -63.507455826072999 $675 $727 forward 7 unknown #
coedge $-1 $566 $675 $568 $679 reversed $562 $-1 #
straight-curve $-1 53.324381237220379 16.168535842701356 75.128731257850433 0 0 -1 I I #
edge $-1 $569 16.168535842701356 $684 26.503141463449989 $677 $728 forward 7 unknown #
point $-1 53.324381237220379 16.168535842701356 11.621275431777434 #
straight-curve $-1 53.324381237220379 10.667919326537834 0.90114653016259183 0 1 0 I I #
point $-1 53.324381237220379 26.503141463449982 0.90114653016259183 #
point $-1 53.324381237220379 16.168535842701356 0.90114653016259183 #
vertex $-1 $577 $729 #
straight-curve $-1 0 26.503141463449989 11.621275431777434 -1 0 0 I I #
vertex $-1 $580 $730 #
point $-1 48.349910502097231 18.235456966851082 4.9302893867022872 #
vertex $-1 $584 $731 #
point $-1 48.349910502097231 21.335838653075669 4.9302893867022872 #
vertex $-1 $588 $732 #
point $-1 48.349910502097231 24.436220339300256 4.9302893867022872 #
straight-curve $-1 -53.324381237220379 35.226769419697973 0 0 0 -1 I I #
point $-1 -53.324381237220379 -35.226769419697973 -11.621275431777434 #
straight-curve $-1 -53.324381237220379 0 -11.621275431777434 0 1 0 I I #
point $-1 -53.324381237220379 35.226769419697973 -11.621275431777434 #
edge $-1 $698 -11.621275431777434 $617 11.621275431777434 $609 $733 forward 7 unknown #
straight-curve $-1 -47.08075624860593 -50.035261300027386 -11.621275431777434 -1 0 0 I I #
vertex $-1 $623 $734 #
straight-curve $-1 -47.08075624860593 -50.035261300027386 11.621275431777434 1 0 0 I I #
point $-1 -49.235020877658307 -50.035261300027386 11.621275431777434 #
point $-1 -49.235020877658307 -50.035261300027386 -11.621275431777434 #
point $-1 -44.926491619553552 -50.035261300027386 -11.621275431777434 #
straight-curve $-1 -44.926491619553552 -42.63101535986268 11.621275431777434 0 1 0 I I #
coedge $-1 $628 $627 $636 $709 forward $335 $-1 #
vertex $-1 $709 $735 #
straight-curve $-1 -53.324381237220379 35.226769419697973 0 0 0 -1 I I #
point $-1 53.324381237220379 26.503141463449989 11.621275431777434 #
straight-curve $-1 -53.324381237220379 0 11.621275431777434 0 -1 0 I I #
edge $-1 $639 -53.324381237220379 $705 53.324381237220379 $636 $736 forward 7 unknown #
straight-curve $-1 53.324381237220379 0 11.621275431777434 0 1 0 I I #
point $-1 53.324381237220379 35.226769419697973 11.621275431777434 #
straight-curve $-1 -53.324381237220379 3.042431962040709 47.250455967136787 0 0 -1 I I #
point $-1 -53.324381237220379 3.042431962040709 11.621275431777434 #
straight-curve $-1 -53.324381237220379 -1.1939070817129895 5.0577342333768209 0 -1 0 I I #
point $-1 -53.324381237220379 3.042431962040709 5.0577342333768245 #
point $-1 -45.697546025110839 -5.6459618387059933 4.3768907204563217 #
point $-1 -45.697546025110839 -2.3878141634259791 4.3768907204563217 #
point $-1 -45.697546025110839 0.87033351185403518 4.3768907204563217 #
edge $-1 $667 35.629180535359353 $661 42.19272173375996 $665 $737 forward 7 unknown #
straight-curve $-1 -53.324381237220379 10.536447668991649 5.0577342333768209 0 -1 0 I I #
point $-1 -53.324381237220379 26.503141463449985 5.0577342333768245 #
straight-curve $-1 0 26.503141463449989 11.621275431777434 -1 0 0 I I #
point $-1 -53.324381237220379 26.503141463449989 11.621275431777434 #
point $-1 -45.697546025110839 17.814747662703283 4.3768907204563217 #
point $-1 -45.697546025110839 21.072895337983297 4.3768907204563217 #
point $-1 -45.697546025110839 24.331043013263312 4.3768907204563217 #
straight-curve $-1 53.324381237220379 26.503141463449982 75.128731257850433 0 0 1 I I #
straight-curve $-1 53.324381237220379 0 11.621275431777434 0 1 0 I I #
point $-1 53.324381237220379 26.503141463449989 11.621275431777434 #
point $-1 47.649685236842359 18.235456966851082 5.0286996397186474 #
point $-1 47.649685236842359 21.335838653075669 5.0286996397186474 #
point $-1 47.649685236842359 24.436220339300256 5.0286996397186474 #
straight-curve $-1 -44.926491619553552 -50.035261300027386 0 0 0 -1 I I #
point $-1 -44.926491619553552 -50.035261300027386 11.621275431777434 #
point $-1 -53.324381237220379 35.226769419697973 11.621275431777434 #
straight-curve $-1 0 35.226769419697973 11.621275431777434 -1 0 0 I I #
straight-curve $-1 -53.324381237220379 26.503141463449985 47.250455967136787 0 0 -1 I I #
End-of-ACIS-data 