500 0 10 0           
7 Unknown 11 ACIS 5.0 NT 24 Thu Mar 25 17:03:54 1999 
-1 9.9999999999999995e-007 1e-010 
body $-1 $10 $-1 $11 #
body $-1 $12 $-1 $13 #
body $-1 $14 $-1 $15 #
body $-1 $16 $-1 $17 #
body $-1 $18 $-1 $19 #
body $-1 $20 $-1 $21 #
body $-1 $22 $-1 $23 #
body $-1 $24 $-1 $25 #
body $-1 $26 $-1 $27 #
body $-1 $28 $-1 $29 #
lump $-1 $-1 $30 $0 #
transform $-1 1 0 0 0 1 0 0 0 1 57.50175481429487 28.381126751323837 10.470623705518616 1 rotate no_reflect no_shear #
lump $-1 $-1 $31 $1 #
transform $-1 1 0 0 0 1 0 0 0 1 57.50175481429487 28.381126751323837 10.470623705518616 1 rotate no_reflect no_shear #
lump $-1 $-1 $32 $2 #
transform $-1 1 0 0 0 1 0 0 0 1 57.50175481429487 28.381126751323837 10.470623705518616 1 rotate no_reflect no_shear #
lump $-1 $-1 $33 $3 #
transform $-1 1 0 0 0 1 0 0 0 1 57.50175481429487 28.381126751323837 10.470623705518616 1 rotate no_reflect no_shear #
lump $-1 $-1 $34 $4 #
transform $-1 1 0 0 0 1 0 0 0 1 57.50175481429487 28.381126751323837 10.470623705518616 1 rotate no_reflect no_shear #
lump $-1 $-1 $35 $5 #
transform $-1 1 0 0 0 1 0 0 0 1 57.50175481429487 28.381126751323837 10.470623705518616 1 rotate no_reflect no_shear #
lump $-1 $-1 $36 $6 #
transform $-1 1 0 0 0 1 0 0 0 1 57.50175481429487 28.381126751323837 10.470623705518616 1 rotate no_reflect no_shear #
lump $-1 $-1 $37 $7 #
transform $-1 1 0 0 0 1 0 0 0 1 57.50175481429487 28.381126751323837 10.470623705518616 1 rotate no_reflect no_shear #
lump $-1 $-1 $38 $8 #
transform $-1 1 0 0 0 1 0 0 0 1 57.50175481429487 28.381126751323837 10.470623705518616 1 rotate no_reflect no_shear #
lump $-1 $-1 $39 $9 #
transform $-1 1 0 0 0 1 0 0 0 1 57.50175481429487 28.381126751323837 10.470623705518616 1 rotate no_reflect no_shear #
shell $-1 $-1 $-1 $40 $-1 $10 #
shell $-1 $-1 $-1 $41 $-1 $12 #
shell $-1 $-1 $-1 $42 $-1 $14 #
shell $-1 $-1 $-1 $43 $-1 $16 #
shell $-1 $-1 $-1 $44 $-1 $18 #
shell $-1 $-1 $-1 $45 $-1 $20 #
shell $-1 $-1 $-1 $46 $-1 $22 #
shell $-1 $-1 $-1 $47 $-1 $24 #
shell $-1 $-1 $-1 $48 $-1 $26 #
shell $-1 $-1 $-1 $49 $-1 $28 #
face $-1 $50 $51 $30 $-1 $52 forward single #
face $-1 $53 $54 $31 $-1 $55 forward single #
face $-1 $56 $57 $32 $-1 $58 forward single #
face $-1 $59 $60 $33 $-1 $61 reversed single #
face $-1 $62 $63 $34 $-1 $64 forward single #
face $-1 $65 $66 $35 $-1 $67 forward single #
face $-1 $68 $69 $36 $-1 $70 forward single #
face $-1 $71 $72 $37 $-1 $73 reversed single #
face $-1 $74 $75 $38 $-1 $76 forward single #
face $-1 $77 $78 $39 $-1 $79 forward single #
face $-1 $80 $81 $30 $-1 $82 reversed single #
loop $-1 $-1 $83 $40 #
plane-surface $-1 0 0 10.470623705518616 0 0 1 1 0 0 forward_v I I I I #
face $-1 $84 $85 $31 $-1 $86 reversed single #
loop $-1 $-1 $87 $41 #
plane-surface $-1 0 -22.350712795524625 -4.4984665143836438 0 0 1 1 0 0 forward_v I I I I #
face $-1 $88 $89 $32 $-1 $90 reversed single #
loop $-1 $-1 $91 $42 #
plane-surface $-1 0 22.350712795524625 -4.4984665143836438 0 0 1 1 0 0 forward_v I I I I #
face $-1 $92 $93 $33 $-1 $94 reversed single #
loop $-1 $-1 $95 $43 #
plane-surface $-1 51.82571911842669 -1.3905293005082378 166.30688029888142 0 -1 0 -0.68199836817093118 0 -0.7313536940579346 forward_v I I I I #
face $-1 $96 $97 $34 $-1 $98 forward single #
loop $-1 $99 $100 $44 #
cone-surface $-1 53.524805321320969 -9.1440938495154249 6.7085967742990453 -0.68199836817093118 0 -0.7313536940579346 0.3656768470289673 0 -0.34099918408546559 1 I I 0 1 0.5 forward I I I I #
face $-1 $101 $102 $35 $-1 $103 forward single #
loop $-1 $104 $105 $45 #
cone-surface $-1 53.524805321320969 -6.2365071436377271 6.7085967742990453 -0.68199836817093118 0 -0.7313536940579346 0.3656768470289673 0 -0.34099918408546559 1 I I 0 1 0.5 forward I I I I #
face $-1 $106 $107 $36 $-1 $108 forward single #
loop $-1 $109 $110 $46 #
cone-surface $-1 53.524805321320969 -3.3289204377600292 6.7085967742990453 -0.68199836817093118 0 -0.7313536940579346 0.3656768470289673 0 -0.34099918408546559 1 I I 0 1 0.5 forward I I I I #
face $-1 $111 $112 $37 $-1 $113 reversed single #
loop $-1 $-1 $114 $47 #
plane-surface $-1 -121.81090210863745 -9.9524304947734272 102.03836375527331 0 1 0 -0.55919291073839883 0 0.82903756765294845 forward_v I I I I #
face $-1 $115 $116 $38 $-1 $117 forward single #
loop $-1 $118 $119 $48 #
cone-surface $-1 -54.281827598702129 -8.0469560781366951 7.9577801580164893 0.55919291073839883 0 -0.82903756765294845 0.41451878382647422 0 0.27959645536919941 1 I I 0 1 0.5 forward I I I I #
face $-1 $120 $121 $39 $-1 $122 forward single #
loop $-1 $123 $124 $49 #
cone-surface $-1 -54.281827598702129 -5.1887444531815952 7.9577801580164893 0.55919291073839883 0 -0.82903756765294845 0.41451878382647422 0 0.27959645536919941 1 I I 0 1 0.5 forward I I I I #
face $-1 $125 $126 $30 $-1 $127 reversed single #
loop $-1 $-1 $128 $50 #
plane-surface $-1 0 0 -10.470623705518616 0 0 1 1 0 0 forward_v I I I I #
coedge $-1 $129 $130 $131 $132 forward $51 $-1 #
face $-1 $133 $134 $31 $-1 $135 reversed single #
loop $-1 $-1 $136 $53 #
plane-surface $-1 0 -16.320298839725414 -7.4845451099511298 0 -1 0 0 0 -1 forward_v I I I I #
coedge $-1 $137 $138 $139 $140 reversed $54 $-1 #
face $-1 $141 $142 $32 $-1 $143 reversed single #
loop $-1 $-1 $144 $56 #
plane-surface $-1 0 16.320298839725414 -7.4845451099511298 0 1 0 0 0 1 forward_v I I I I #
coedge $-1 $145 $146 $147 $148 reversed $57 $-1 #
face $-1 $149 $150 $33 $-1 $151 reversed single #
loop $-1 $-1 $152 $59 #
plane-surface $-1 -26.606486782201486 -6.2365071436377306 82.198638702385068 0.68199836817093118 0 0.7313536940579346 0.7313536940579346 0 -0.68199836817093118 forward_v I I I I #
coedge $-1 $153 $154 $155 $156 reversed $60 $-1 #
face $-1 $-1 $157 $34 $-1 $158 forward single #
loop $-1 $159 $160 $62 #
cone-surface $-1 52.972038432015154 -9.1440938495154249 6.1158268714458508 -0.68199836817093118 0 -0.7313536940579346 0.18283842351448365 0 -0.17049959204273279 1 I I -0.70710678118654746 0.70710678118654746 0.25 forward I I I I #
loop $-1 $-1 $161 $44 #
coedge $-1 $100 $100 $162 $163 reversed $63 $-1 #
face $-1 $-1 $164 $35 $-1 $165 forward single #
loop $-1 $166 $167 $65 #
cone-surface $-1 52.972038432015154 -6.2365071436377271 6.1158268714458508 -0.68199836817093118 0 -0.7313536940579346 0.18283842351448365 0 -0.17049959204273279 1 I I -0.70710678118654746 0.70710678118654746 0.25 forward I I I I #
loop $-1 $-1 $168 $45 #
coedge $-1 $105 $105 $169 $170 reversed $66 $-1 #
face $-1 $-1 $171 $36 $-1 $172 forward single #
loop $-1 $173 $174 $68 #
cone-surface $-1 52.972038432015154 -3.3289204377600292 6.1158268714458508 -0.68199836817093118 0 -0.7313536940579346 0.18283842351448365 0 -0.17049959204273279 1 I I -0.70710678118654746 0.70710678118654746 0.25 forward I I I I #
loop $-1 $-1 $175 $46 #
coedge $-1 $110 $110 $176 $177 reversed $69 $-1 #
face $-1 $178 $179 $37 $-1 $180 reversed single #
loop $-1 $-1 $181 $71 #
plane-surface $-1 -57.501754814294884 -6.6178502656591434 6.6961338612348413 -0.55919291073839883 0 0.82903756765294845 0.82903756765294845 0 0.55919291073839883 forward_v I I I I #
coedge $-1 $182 $183 $184 $185 reversed $72 $-1 #
face $-1 $-1 $186 $38 $-1 $187 forward single #
loop $-1 $188 $189 $74 #
cone-surface $-1 -53.720057762107793 -8.0469560781366951 7.1249221407430205 0.55919291073839883 0 -0.82903756765294845 0.20725939191323711 0 0.13979822768459971 1 I I -0.70710678118654746 0.70710678118654746 0.25 forward I I I I #
loop $-1 $-1 $190 $48 #
coedge $-1 $119 $119 $191 $192 reversed $75 $-1 #
face $-1 $-1 $193 $39 $-1 $194 forward single #
loop $-1 $195 $196 $77 #
cone-surface $-1 -53.720057762107793 -5.1887444531815952 7.1249221407430205 0.55919291073839883 0 -0.82903756765294845 0.20725939191323711 0 0.13979822768459971 1 I I -0.70710678118654746 0.70710678118654746 0.25 forward I I I I #
loop $-1 $-1 $197 $49 #
coedge $-1 $124 $124 $198 $199 reversed $78 $-1 #
face $-1 $200 $201 $30 $-1 $202 reversed single #
loop $-1 $-1 $203 $80 #
plane-surface $-1 0 -28.381126751323837 0 0 1 0 0 0 1 forward_v I I I I #
coedge $-1 $204 $205 $206 $207 forward $81 $-1 #
coedge $-1 $208 $83 $209 $210 forward $51 $-1 #
coedge $-1 $83 $208 $211 $212 forward $51 $-1 #
coedge $-1 $213 $214 $83 $132 reversed $215 $-1 #
edge $-1 $216 -28.381126751323837 $217 28.381126751323837 $131 $218 forward 7 unknown #
face $-1 $219 $220 $31 $-1 $221 reversed single #
loop $-1 $-1 $222 $84 #
plane-surface $-1 0 0 -10.470623705518616 0 0 1 1 0 0 forward_v I I I I #
coedge $-1 $223 $224 $225 $226 reversed $85 $-1 #
coedge $-1 $227 $87 $224 $228 forward $54 $-1 #
coedge $-1 $87 $227 $229 $230 reversed $54 $-1 #
coedge $-1 $231 $225 $87 $140 forward $220 $-1 #
edge $-1 $232 5.1449424419631011 $233 17.205770353561526 $139 $234 forward 7 unknown #
face $-1 $235 $236 $32 $-1 $237 reversed single #
loop $-1 $-1 $147 $88 #
plane-surface $-1 57.50175481429487 0 0 -1 0 0 0 0 1 forward_v I I I I #
coedge $-1 $238 $239 $240 $241 reversed $89 $-1 #
coedge $-1 $242 $91 $243 $244 reversed $57 $-1 #
coedge $-1 $91 $242 $239 $245 forward $57 $-1 #
coedge $-1 $246 $247 $91 $148 forward $142 $-1 #
edge $-1 $248 -17.205770353561526 $249 -5.1449424419631011 $147 $250 forward 7 unknown #
face $-1 $251 $252 $33 $-1 $253 forward single #
loop $-1 $-1 $254 $92 #
plane-surface $-1 51.82571911842669 -11.082484986767223 166.30688029888142 0 1 0 0.68199836817093118 0 0.7313536940579346 forward_v I I I I #
coedge $-1 $255 $256 $257 $258 reversed $93 $-1 #
coedge $-1 $154 $95 $259 $260 reversed $60 $-1 #
coedge $-1 $95 $153 $255 $261 reversed $60 $-1 #
coedge $-1 $257 $262 $95 $156 forward $252 $-1 #
edge $-1 $263 -31.588895255081525 $264 -24.399530863659905 $155 $265 forward 7 unknown #
loop $-1 $-1 $162 $96 #
plane-surface $-1 -26.606486782201486 -6.2365071436377306 82.198638702385068 0.68199836817093118 0 0.7313536940579346 0.7313536940579346 0 -0.68199836817093118 forward_v I I I I #
loop $-1 $-1 $266 $62 #
coedge $-1 $160 $160 $161 $267 reversed $97 $-1 #
coedge $-1 $161 $161 $160 $267 forward $99 $-1 #
coedge $-1 $162 $162 $100 $163 forward $157 $-1 #
edge $-1 $268 0 $268 6.2831853071796004 $162 $269 forward 7 unknown #
loop $-1 $-1 $169 $101 #
plane-surface $-1 -26.606486782201486 -6.2365071436377306 82.198638702385068 0.68199836817093118 0 0.7313536940579346 0.7313536940579346 0 -0.68199836817093118 forward_v I I I I #
loop $-1 $-1 $270 $65 #
coedge $-1 $167 $167 $168 $271 reversed $102 $-1 #
coedge $-1 $168 $168 $167 $271 forward $104 $-1 #
coedge $-1 $169 $169 $105 $170 forward $164 $-1 #
edge $-1 $272 0 $272 6.2831853071796004 $169 $273 forward 7 unknown #
loop $-1 $-1 $176 $106 #
plane-surface $-1 -26.606486782201486 -6.2365071436377306 82.198638702385068 0.68199836817093118 0 0.7313536940579346 0.7313536940579346 0 -0.68199836817093118 forward_v I I I I #
loop $-1 $-1 $274 $68 #
coedge $-1 $174 $174 $175 $275 reversed $107 $-1 #
coedge $-1 $175 $175 $174 $275 forward $109 $-1 #
coedge $-1 $176 $176 $110 $177 forward $171 $-1 #
edge $-1 $276 0 $276 6.2831853071796004 $176 $277 forward 7 unknown #
face $-1 $278 $279 $37 $-1 $280 reversed single #
loop $-1 $-1 $281 $111 #
plane-surface $-1 -121.81090210863745 -3.2832700365448595 102.03836375527331 0 -1 0 0.55919291073839883 0 -0.82903756765294845 forward_v I I I I #
coedge $-1 $282 $283 $284 $285 reversed $112 $-1 #
coedge $-1 $183 $114 $286 $287 reversed $72 $-1 #
coedge $-1 $114 $182 $282 $288 reversed $72 $-1 #
coedge $-1 $284 $289 $114 $185 forward $290 $-1 #
edge $-1 $291 3.4036962400238551 $292 8.9996074533898351 $184 $293 forward 7 unknown #
loop $-1 $-1 $191 $115 #
plane-surface $-1 -57.501754814294884 -6.6178502656591434 6.6961338612348413 -0.55919291073839883 0 0.82903756765294845 0.82903756765294845 0 0.55919291073839883 forward_v I I I I #
loop $-1 $-1 $294 $74 #
coedge $-1 $189 $189 $190 $295 reversed $116 $-1 #
coedge $-1 $190 $190 $189 $295 forward $118 $-1 #
coedge $-1 $191 $191 $119 $192 forward $186 $-1 #
edge $-1 $296 0 $296 6.2831853071796004 $191 $297 forward 7 unknown #
loop $-1 $-1 $198 $120 #
plane-surface $-1 -57.501754814294884 -6.6178502656591434 6.6961338612348413 -0.55919291073839883 0 0.82903756765294845 0.82903756765294845 0 0.55919291073839883 forward_v I I I I #
loop $-1 $-1 $298 $77 #
coedge $-1 $196 $196 $197 $299 reversed $121 $-1 #
coedge $-1 $197 $197 $196 $299 forward $123 $-1 #
coedge $-1 $198 $198 $124 $199 forward $193 $-1 #
edge $-1 $300 0 $300 6.2831853071796004 $198 $301 forward 7 unknown #
face $-1 $302 $303 $30 $-1 $304 reversed single #
loop $-1 $-1 $305 $125 #
plane-surface $-1 -57.50175481429487 0 0 1 0 0 0 0 -1 forward_v I I I I #
coedge $-1 $306 $211 $307 $308 forward $126 $-1 #
coedge $-1 $309 $128 $306 $310 forward $81 $-1 #
coedge $-1 $128 $309 $311 $312 forward $81 $-1 #
coedge $-1 $214 $213 $128 $207 reversed $215 $-1 #
edge $-1 $313 -28.381126751323837 $314 28.381126751323837 $206 $315 forward 7 unknown #
coedge $-1 $130 $129 $316 $317 forward $51 $-1 #
coedge $-1 $318 $319 $129 $210 reversed $303 $-1 #
edge $-1 $217 -57.50175481429487 $320 57.50175481429487 $209 $321 forward 7 unknown #
coedge $-1 $203 $322 $130 $212 reversed $126 $-1 #
edge $-1 $323 -57.50175481429487 $216 57.50175481429487 $211 $324 forward 7 unknown #
coedge $-1 $206 $131 $322 $325 forward $215 $-1 #
coedge $-1 $131 $206 $318 $326 reversed $215 $-1 #
loop $-1 $-1 $213 $302 #
vertex $-1 $132 $327 #
vertex $-1 $132 $328 #
straight-curve $-1 57.50175481429487 0 10.470623705518616 0 1 0 I I #
face $-1 $329 $330 $31 $-1 $331 reversed single #
loop $-1 $-1 $225 $133 #
plane-surface $-1 57.50175481429487 0 0 -1 0 0 0 0 1 forward_v I I I I #
coedge $-1 $332 $333 $223 $334 forward $134 $-1 #
coedge $-1 $335 $136 $222 $334 reversed $85 $-1 #
coedge $-1 $136 $335 $137 $228 reversed $85 $-1 #
coedge $-1 $139 $336 $136 $226 forward $220 $-1 #
edge $-1 $337 -6.7283511505430509 $232 -0.75619395940807888 $225 $338 forward 7 unknown #
coedge $-1 $138 $137 $339 $340 reversed $54 $-1 #
edge $-1 $232 -57.50175481429487 $341 57.50175481429487 $224 $342 forward 7 unknown #
coedge $-1 $343 $344 $138 $230 forward $330 $-1 #
edge $-1 $233 -57.50175481429487 $345 57.50175481429487 $229 $346 forward 7 unknown #
coedge $-1 $336 $139 $344 $347 forward $220 $-1 #
vertex $-1 $140 $348 #
vertex $-1 $347 $349 #
straight-curve $-1 57.50175481429487 -11.175356397762313 -4.4984665143836438 0 -1 0 I I #
face $-1 $350 $351 $32 $-1 $352 reversed single #
loop $-1 $-1 $353 $141 #
plane-surface $-1 0 0 -10.470623705518616 0 0 1 1 0 0 forward_v I I I I #
coedge $-1 $354 $144 $353 $355 reversed $89 $-1 #
coedge $-1 $144 $354 $146 $245 reversed $89 $-1 #
coedge $-1 $356 $357 $144 $241 forward $351 $-1 #
edge $-1 $358 -6.7283511505430509 $359 -0.75619395940807888 $240 $360 forward 7 unknown #
coedge $-1 $146 $145 $356 $361 reversed $57 $-1 #
coedge $-1 $362 $363 $145 $244 forward $364 $-1 #
edge $-1 $365 -57.50175481429487 $248 57.50175481429487 $243 $366 forward 7 unknown #
edge $-1 $359 -57.50175481429487 $249 57.50175481429487 $239 $367 forward 7 unknown #
coedge $-1 $368 $147 $354 $369 forward $142 $-1 #
coedge $-1 $147 $368 $362 $370 reversed $142 $-1 #
vertex $-1 $370 $371 #
vertex $-1 $148 $372 #
straight-curve $-1 57.50175481429487 11.175356397762313 -4.4984665143836438 0 -1 0 I I #
face $-1 $-1 $373 $33 $-1 $374 reversed single #
loop $-1 $-1 $155 $149 #
plane-surface $-1 0 0 10.470623705518616 0 0 1 1 0 0 forward_v I I I I #
coedge $-1 $375 $376 $377 $378 reversed $150 $-1 #
coedge $-1 $379 $152 $154 $261 forward $93 $-1 #
coedge $-1 $152 $379 $375 $380 forward $93 $-1 #
coedge $-1 $377 $155 $152 $258 forward $252 $-1 #
edge $-1 $264 -1.7277242713106276 $381 7.9642314149483582 $257 $382 forward 7 unknown #
coedge $-1 $383 $384 $153 $260 forward $373 $-1 #
edge $-1 $385 -79.38700734768382 $263 -72.682816443922093 $259 $386 forward 7 unknown #
edge $-1 $264 105.17329416672307 $385 115.00350962858974 $154 $387 forward 7 unknown #
coedge $-1 $155 $377 $383 $388 forward $252 $-1 #
vertex $-1 $260 $389 #
vertex $-1 $156 $390 #
straight-curve $-1 25.912859559213345 -1.3905293005082378 10.470623705518619 -1 0 0 I I #
coedge $-1 $266 $266 $-1 $391 reversed $159 $-1 #
edge $-1 $392 0 $392 6.2831853071796004 $160 $393 forward 7 unknown #
vertex $-1 $163 $394 #
ellipse-curve $-1 53.90707261858406 -9.1440938495154249 7.1185282536377654 0.68199836817093118 0 0.7313536940579346 0.3656768470289673 0 -0.34099918408546559 1 I I #
coedge $-1 $270 $270 $-1 $395 reversed $166 $-1 #
edge $-1 $396 0 $396 6.2831853071796004 $167 $397 forward 7 unknown #
vertex $-1 $170 $398 #
ellipse-curve $-1 53.90707261858406 -6.2365071436377271 7.1185282536377654 0.68199836817093118 0 0.7313536940579346 0.3656768470289673 0 -0.34099918408546559 1 I I #
coedge $-1 $274 $274 $-1 $399 reversed $173 $-1 #
edge $-1 $400 0 $400 6.2831853071796004 $174 $401 forward 7 unknown #
vertex $-1 $177 $402 #
ellipse-curve $-1 53.90707261858406 -3.3289204377600292 7.1185282536377654 0.68199836817093118 0 0.7313536940579346 0.3656768470289673 0 -0.34099918408546559 1 I I #
face $-1 $-1 $290 $37 $-1 $403 forward single #
loop $-1 $-1 $404 $178 #
plane-surface $-1 -57.50175481429487 0 0 1 0 0 0 0 -1 forward_v I I I I #
coedge $-1 $405 $406 $407 $408 reversed $179 $-1 #
coedge $-1 $409 $181 $183 $288 forward $112 $-1 #
coedge $-1 $181 $409 $405 $410 forward $112 $-1 #
coedge $-1 $407 $184 $181 $285 forward $290 $-1 #
edge $-1 $292 -6.6435053619438555 $411 0.025655096284712187 $284 $412 forward 7 unknown #
coedge $-1 $413 $414 $182 $287 forward $279 $-1 #
edge $-1 $415 -44.323048016401806 $291 -40.548558172118035 $286 $416 forward 7 unknown #
edge $-1 $292 -6.7498885837083726 $415 -1.7244626260799089e-014 $183 $417 forward 7 unknown #
coedge $-1 $184 $407 $413 $418 forward $290 $-1 #
loop $-1 $-1 $407 $278 #
vertex $-1 $287 $419 #
vertex $-1 $185 $420 #
straight-curve $-1 -60.905451054318725 -9.9524304947734272 10.470623705518619 1 0 0 I I #
coedge $-1 $294 $294 $-1 $421 reversed $188 $-1 #
edge $-1 $422 0 $422 6.2831853071796004 $189 $423 forward 7 unknown #
vertex $-1 $192 $424 #
ellipse-curve $-1 -54.703799207611873 -8.0469560781366951 8.5833787833767357 -0.55919291073839883 0 0.82903756765294845 0.41451878382647422 0 0.27959645536919941 1 I I #
coedge $-1 $298 $298 $-1 $425 reversed $195 $-1 #
edge $-1 $426 0 $426 6.2831853071796004 $196 $427 forward 7 unknown #
vertex $-1 $199 $428 #
ellipse-curve $-1 -54.703799207611873 -5.1887444531815952 8.5833787833767357 -0.55919291073839883 0 0.82903756765294845 0.41451878382647422 0 0.27959645536919941 1 I I #
face $-1 $-1 $215 $30 $-1 $429 reversed single #
loop $-1 $-1 $318 $200 #
plane-surface $-1 0 28.381126751323837 0 0 -1 0 0 0 -1 forward_v I I I I #
coedge $-1 $430 $316 $319 $431 forward $201 $-1 #
coedge $-1 $322 $203 $204 $310 reversed $126 $-1 #
coedge $-1 $316 $430 $203 $308 reversed $201 $-1 #
edge $-1 $323 -10.470623705518616 $432 10.470623705518616 $307 $433 forward 7 unknown #
coedge $-1 $205 $204 $430 $434 forward $81 $-1 #
edge $-1 $314 -57.50175481429487 $432 57.50175481429487 $306 $435 forward 7 unknown #
coedge $-1 $319 $318 $205 $312 reversed $303 $-1 #
edge $-1 $436 -57.50175481429487 $313 57.50175481429487 $311 $437 forward 7 unknown #
vertex $-1 $207 $438 #
vertex $-1 $325 $439 #
straight-curve $-1 57.50175481429487 0 -10.470623705518616 0 -1 0 I I #
coedge $-1 $305 $307 $208 $317 reversed $201 $-1 #
edge $-1 $320 -28.381126751323837 $323 28.381126751323837 $316 $440 forward 7 unknown #
coedge $-1 $311 $209 $214 $326 forward $303 $-1 #
coedge $-1 $209 $311 $305 $431 reversed $303 $-1 #
vertex $-1 $210 $441 #
straight-curve $-1 0 28.381126751323837 10.470623705518616 -1 0 0 I I #
coedge $-1 $211 $306 $213 $325 reversed $126 $-1 #
vertex $-1 $317 $442 #
straight-curve $-1 0 -28.381126751323837 10.470623705518616 1 0 0 I I #
edge $-1 $216 -10.470623705518616 $314 10.470623705518616 $213 $443 forward 7 unknown #
edge $-1 $217 -10.470623705518616 $313 10.470623705518616 $214 $444 forward 7 unknown #
point $-1 57.50175481429487 -28.381126751323837 10.470623705518616 #
point $-1 57.50175481429487 28.381126751323837 10.470623705518616 #
face $-1 $-1 $445 $31 $-1 $446 reversed single #
loop $-1 $-1 $229 $219 #
plane-surface $-1 0 -28.381126751323837 0 0 1 0 0 0 1 forward_v I I I I #
coedge $-1 $447 $222 $336 $448 forward $134 $-1 #
coedge $-1 $222 $447 $449 $450 forward $134 $-1 #
edge $-1 $451 -57.50175481429487 $337 57.50175481429487 $222 $452 forward 7 unknown #
coedge $-1 $224 $223 $453 $454 reversed $85 $-1 #
coedge $-1 $225 $231 $332 $448 reversed $220 $-1 #
vertex $-1 $448 $455 #
straight-curve $-1 57.50175481429487 -16.320298839725414 -3.7422725549755649 0 0 1 I I #
coedge $-1 $453 $456 $227 $340 forward $445 $-1 #
edge $-1 $345 -17.205770353561526 $341 -5.1449424419631011 $339 $457 forward 7 unknown #
vertex $-1 $340 $458 #
straight-curve $-1 0 -16.320298839725414 -4.4984665143836438 -1 0 0 I I #
coedge $-1 $459 $229 $456 $460 forward $330 $-1 #
coedge $-1 $229 $459 $231 $347 reversed $330 $-1 #
vertex $-1 $460 $461 #
straight-curve $-1 0 -28.381126751323837 -4.4984665143836438 -1 0 0 I I #
edge $-1 $233 4.4984665143836438 $462 10.470623705518616 $231 $463 forward 7 unknown #
point $-1 57.50175481429487 -16.320298839725414 -4.4984665143836438 #
point $-1 57.50175481429487 -28.381126751323837 -4.4984665143836438 #
face $-1 $-1 $364 $32 $-1 $464 reversed single #
loop $-1 $-1 $356 $235 #
plane-surface $-1 -57.50175481429487 0 0 1 0 0 0 0 -1 forward_v I I I I #
coedge $-1 $465 $466 $238 $355 forward $236 $-1 #
coedge $-1 $239 $238 $246 $369 reversed $89 $-1 #
edge $-1 $467 -57.50175481429487 $358 57.50175481429487 $353 $468 forward 7 unknown #
coedge $-1 $469 $240 $242 $361 forward $351 $-1 #
coedge $-1 $240 $469 $465 $470 reversed $351 $-1 #
vertex $-1 $470 $471 #
vertex $-1 $361 $472 #
straight-curve $-1 -57.50175481429487 16.320298839725414 -3.7422725549755649 0 0 1 I I #
edge $-1 $359 5.1449424419631011 $365 17.205770353561526 $356 $473 forward 7 unknown #
coedge $-1 $474 $243 $247 $370 forward $364 $-1 #
coedge $-1 $243 $474 $469 $475 reversed $364 $-1 #
loop $-1 $-1 $243 $350 #
vertex $-1 $475 $476 #
straight-curve $-1 0 28.381126751323837 -4.4984665143836438 1 0 0 I I #
straight-curve $-1 0 16.320298839725414 -4.4984665143836438 1 0 0 I I #
coedge $-1 $247 $246 $466 $477 reversed $142 $-1 #
edge $-1 $249 0.75619395940807888 $467 6.7283511505430509 $246 $478 forward 7 unknown #
edge $-1 $248 4.4984665143836438 $479 10.470623705518616 $247 $480 forward 7 unknown #
point $-1 57.50175481429487 28.381126751323837 -4.4984665143836438 #
point $-1 57.50175481429487 16.320298839725414 -4.4984665143836438 #
loop $-1 $-1 $259 $251 #
plane-surface $-1 57.50175481429487 0 0 -1 0 0 0 0 1 forward_v I I I I #
coedge $-1 $376 $254 $256 $380 reversed $150 $-1 #
coedge $-1 $254 $375 $481 $482 reversed $150 $-1 #
coedge $-1 $262 $257 $254 $378 forward $252 $-1 #
edge $-1 $381 24.399530863659905 $483 31.588895255081525 $377 $484 forward 7 unknown #
coedge $-1 $256 $255 $384 $485 reversed $93 $-1 #
edge $-1 $486 -115.00350962858974 $381 -105.17329416672307 $375 $487 forward 7 unknown #
vertex $-1 $258 $488 #
straight-curve $-1 50.312390422873264 -3.1182535718188653 10.470623705518612 0 -1 0 I I #
coedge $-1 $481 $259 $262 $388 reversed $373 $-1 #
coedge $-1 $259 $481 $379 $485 forward $373 $-1 #
vertex $-1 $260 $489 #
straight-curve $-1 57.50175481429487 -1.3905293005082378 83.153440149440712 0 0 1 I I #
straight-curve $-1 -26.606486782201486 -1.3905293005082378 82.198638702385068 0.7313536940579346 0 -0.68199836817093118 I I #
edge $-1 $483 -11.082484986767223 $263 -1.3905293005082378 $383 $490 forward 7 unknown #
point $-1 57.50175481429487 -1.3905293005082378 10.470623705518616 #
point $-1 50.31239042287325 -1.3905293005082378 10.470623705518619 #
edge $-1 $491 1 $491 0 $266 $-1 forward 7 unknown #
vertex $-1 $267 $492 #
ellipse-curve $-1 53.142538024057885 -9.1440938495154249 6.2986652949603341 0.68199836817093118 0 0.7313536940579346 0.3656768470289673 0 -0.34099918408546559 1 I I #
point $-1 54.272749465613018 -9.1440938495154249 6.7775290695522905 #
edge $-1 $493 1 $493 0 $270 $-1 forward 7 unknown #
vertex $-1 $271 $494 #
ellipse-curve $-1 53.142538024057885 -6.2365071436377271 6.2986652949603341 0.68199836817093118 0 0.7313536940579346 0.3656768470289673 0 -0.34099918408546559 1 I I #
point $-1 54.272749465613018 -6.2365071436377271 6.7775290695522905 #
edge $-1 $495 1 $495 0 $274 $-1 forward 7 unknown #
vertex $-1 $275 $496 #
ellipse-curve $-1 53.142538024057885 -3.3289204377600292 6.2986652949603341 0.68199836817093118 0 0.7313536940579346 0.3656768470289673 0 -0.34099918408546559 1 I I #
point $-1 54.272749465613018 -3.3289204377600292 6.7775290695522905 #
plane-surface $-1 0 0 10.470623705518616 0 0 1 1 0 0 forward_v I I I I #
coedge $-1 $414 $413 $406 $497 forward $279 $-1 #
coedge $-1 $406 $281 $283 $410 reversed $179 $-1 #
coedge $-1 $281 $405 $404 $497 reversed $179 $-1 #
coedge $-1 $289 $284 $281 $408 forward $290 $-1 #
edge $-1 $411 -8.9996074533898351 $498 -3.4036962400238551 $407 $499 forward 7 unknown #
coedge $-1 $283 $282 $414 $500 reversed $112 $-1 #
edge $-1 $501 1.7244626260799089e-014 $411 6.7498885837083726 $405 $502 forward 7 unknown #
vertex $-1 $285 $503 #
straight-curve $-1 -51.905843600928883 -3.3089251328295717 10.470623705518616 0 1 0 I I #
coedge $-1 $404 $286 $289 $418 reversed $279 $-1 #
coedge $-1 $286 $404 $409 $500 forward $279 $-1 #
vertex $-1 $287 $504 #
straight-curve $-1 -57.50175481429487 -9.9524304947734272 51.019181877636655 0 0 1 I I #
straight-curve $-1 -57.501754814294884 -9.9524304947734272 6.6961338612348413 -0.82903756765294845 0 -0.55919291073839883 I I #
edge $-1 $498 3.2832700365448595 $291 9.9524304947734272 $413 $505 forward 7 unknown #
point $-1 -57.50175481429487 -9.9524304947734272 10.470623705518616 #
point $-1 -51.90584360092889 -9.9524304947734272 10.470623705518616 #
edge $-1 $506 1 $506 0 $294 $-1 forward 7 unknown #
vertex $-1 $295 $507 #
ellipse-curve $-1 -53.859855989792393 -8.0469560781366951 7.332181532656258 -0.55919291073839883 0 0.82903756765294845 0.41451878382647422 0 0.27959645536919941 1 I I #
point $-1 -54.289280423785392 -8.0469560781366951 8.8629752387459213 #
edge $-1 $508 1 $508 0 $298 $-1 forward 7 unknown #
vertex $-1 $299 $509 #
ellipse-curve $-1 -53.859855989792393 -5.1887444531815952 7.332181532656258 -0.55919291073839883 0 0.82903756765294845 0.41451878382647422 0 0.27959645536919941 1 I I #
point $-1 -54.289280423785392 -5.1887444531815952 8.8629752387459213 #
plane-surface $-1 57.50175481429487 0 0 -1 0 0 0 0 1 forward_v I I I I #
coedge $-1 $307 $305 $309 $434 reversed $201 $-1 #
edge $-1 $320 -10.470623705518616 $436 10.470623705518616 $319 $510 forward 7 unknown #
vertex $-1 $434 $511 #
straight-curve $-1 -57.50175481429487 -28.381126751323837 0 0 0 -1 I I #
edge $-1 $432 -28.381126751323837 $436 28.381126751323837 $430 $512 forward 7 unknown #
straight-curve $-1 0 -28.381126751323837 -10.470623705518616 -1 0 0 I I #
vertex $-1 $312 $513 #
straight-curve $-1 0 28.381126751323837 -10.470623705518616 1 0 0 I I #
point $-1 57.50175481429487 28.381126751323837 -10.470623705518616 #
point $-1 57.50175481429487 -28.381126751323837 -10.470623705518616 #
straight-curve $-1 -57.50175481429487 0 10.470623705518616 0 -1 0 I I #
point $-1 -57.50175481429487 28.381126751323837 10.470623705518616 #
point $-1 -57.50175481429487 -28.381126751323837 10.470623705518616 #
straight-curve $-1 57.50175481429487 -28.381126751323837 0 0 0 -1 I I #
straight-curve $-1 57.50175481429487 28.381126751323837 0 0 0 -1 I I #
loop $-1 $-1 $453 $329 #
plane-surface $-1 -57.50175481429487 0 0 1 0 0 0 0 -1 forward_v I I I I #
coedge $-1 $333 $332 $459 $514 forward $134 $-1 #
edge $-1 $337 16.320298839725414 $462 28.381126751323837 $336 $515 forward 7 unknown #
coedge $-1 $456 $453 $333 $450 reversed $445 $-1 #
edge $-1 $516 -28.381126751323837 $451 -16.320298839725414 $449 $517 forward 7 unknown #
vertex $-1 $454 $518 #
straight-curve $-1 0 -16.320298839725414 -10.470623705518616 1 0 0 I I #
coedge $-1 $449 $339 $335 $454 forward $445 $-1 #
edge $-1 $341 0.75619395940807888 $451 6.7283511505430509 $453 $519 forward 7 unknown #
point $-1 57.50175481429487 -16.320298839725414 -10.470623705518616 #
coedge $-1 $339 $449 $343 $460 reversed $445 $-1 #
straight-curve $-1 -57.50175481429487 -11.175356397762313 -4.4984665143836438 0 1 0 I I #
point $-1 -57.50175481429487 -16.320298839725414 -4.4984665143836438 #
coedge $-1 $344 $343 $447 $514 reversed $330 $-1 #
edge $-1 $345 4.4984665143836438 $516 10.470623705518616 $456 $520 forward 7 unknown #
point $-1 -57.50175481429487 -28.381126751323837 -4.4984665143836438 #
vertex $-1 $347 $521 #
straight-curve $-1 57.50175481429487 -28.381126751323837 0 0 0 -1 I I #
plane-surface $-1 0 28.381126751323837 0 0 -1 0 0 0 -1 forward_v I I I I #
coedge $-1 $522 $353 $357 $470 forward $236 $-1 #
coedge $-1 $353 $522 $368 $477 forward $236 $-1 #
vertex $-1 $355 $523 #
straight-curve $-1 0 16.320298839725414 -10.470623705518616 -1 0 0 I I #
coedge $-1 $357 $356 $363 $475 forward $351 $-1 #
edge $-1 $358 16.320298839725414 $524 28.381126751323837 $357 $525 forward 7 unknown #
point $-1 -57.50175481429487 16.320298839725414 -10.470623705518616 #
point $-1 -57.50175481429487 16.320298839725414 -4.4984665143836438 #
straight-curve $-1 -57.50175481429487 11.175356397762313 -4.4984665143836438 0 1 0 I I #
coedge $-1 $363 $362 $522 $526 reversed $364 $-1 #
edge $-1 $365 4.4984665143836438 $524 10.470623705518616 $363 $527 forward 7 unknown #
point $-1 -57.50175481429487 28.381126751323837 -4.4984665143836438 #
edge $-1 $479 -28.381126751323837 $467 -16.320298839725414 $368 $528 forward 7 unknown #
straight-curve $-1 57.50175481429487 16.320298839725414 -3.7422725549755649 0 0 -1 I I #
vertex $-1 $477 $529 #
straight-curve $-1 57.50175481429487 28.381126751323837 0 0 0 -1 I I #
coedge $-1 $384 $383 $376 $482 forward $373 $-1 #
edge $-1 $483 72.682816443922093 $486 79.38700734768382 $481 $530 forward 7 unknown #
vertex $-1 $388 $531 #
straight-curve $-1 25.912859559213345 -11.082484986767223 10.470623705518619 1 0 0 I I #
edge $-1 $486 -7.9642314149483582 $385 1.7277242713106276 $384 $532 forward 7 unknown #
vertex $-1 $485 $533 #
straight-curve $-1 -26.606486782201486 -11.082484986767223 82.198638702385068 -0.7313536940579346 0 0.68199836817093118 I I #
point $-1 50.31239042287325 -11.082484986767223 10.470623705518619 #
point $-1 57.50175481429487 -1.3905293005082378 3.766432801756892 #
straight-curve $-1 57.50175481429487 0 10.470623705518616 0 1 0 I I #
vertex $-1 $391 $534 #
point $-1 53.508214871086857 -9.1440938495154249 5.957666110874869 #
vertex $-1 $395 $535 #
point $-1 53.508214871086857 -6.2365071436377271 5.957666110874869 #
vertex $-1 $399 $536 #
point $-1 53.508214871086857 -3.3289204377600292 5.957666110874869 #
edge $-1 $498 40.548558172118035 $501 44.323048016401806 $404 $537 forward 7 unknown #
vertex $-1 $418 $538 #
straight-curve $-1 -60.905451054318725 -3.2832700365448595 10.470623705518619 -1 0 0 I I #
edge $-1 $501 -0.025655096284712187 $415 6.6435053619438555 $414 $539 forward 7 unknown #
vertex $-1 $500 $540 #
straight-curve $-1 -57.501754814294884 -3.2832700365448595 6.6961338612348413 0.82903756765294845 0 0.55919291073839883 I I #
point $-1 -51.90584360092889 -3.2832700365448595 10.470623705518616 #
point $-1 -57.50175481429487 -9.9524304947734272 6.6961338612348511 #
straight-curve $-1 -57.50175481429487 0 10.470623705518616 0 -1 0 I I #
vertex $-1 $421 $541 #
point $-1 -53.44533720596592 -8.0469560781366951 7.611777988025457 #
vertex $-1 $425 $542 #
point $-1 -53.44533720596592 -5.1887444531815952 7.611777988025457 #
straight-curve $-1 -57.50175481429487 28.381126751323837 0 0 0 -1 I I #
point $-1 -57.50175481429487 -28.381126751323837 -10.470623705518616 #
straight-curve $-1 -57.50175481429487 0 -10.470623705518616 0 1 0 I I #
point $-1 -57.50175481429487 28.381126751323837 -10.470623705518616 #
edge $-1 $462 -57.50175481429487 $516 57.50175481429487 $459 $543 forward 7 unknown #
straight-curve $-1 57.50175481429487 0 -10.470623705518616 0 -1 0 I I #
vertex $-1 $450 $544 #
straight-curve $-1 -57.50175481429487 0 -10.470623705518616 0 1 0 I I #
point $-1 -57.50175481429487 -16.320298839725414 -10.470623705518616 #
straight-curve $-1 -57.50175481429487 -16.320298839725414 -3.7422725549755649 0 0 -1 I I #
straight-curve $-1 -57.50175481429487 -28.381126751323837 0 0 0 -1 I I #
point $-1 57.50175481429487 -28.381126751323837 -10.470623705518616 #
coedge $-1 $466 $465 $474 $526 forward $236 $-1 #
point $-1 57.50175481429487 16.320298839725414 -10.470623705518616 #
vertex $-1 $526 $545 #
straight-curve $-1 -57.50175481429487 0 -10.470623705518616 0 1 0 I I #
edge $-1 $524 -57.50175481429487 $479 57.50175481429487 $474 $546 forward 7 unknown #
straight-curve $-1 -57.50175481429487 28.381126751323837 0 0 0 -1 I I #
straight-curve $-1 57.50175481429487 0 -10.470623705518616 0 -1 0 I I #
point $-1 57.50175481429487 28.381126751323837 -10.470623705518616 #
straight-curve $-1 57.50175481429487 -11.082484986767223 83.153440149440712 0 0 -1 I I #
point $-1 57.50175481429487 -11.082484986767223 10.470623705518616 #
straight-curve $-1 57.501754814294856 -3.1182535718188653 3.7664328017569062 0 1 0 I I #
point $-1 57.50175481429487 -11.082484986767223 3.766432801756892 #
point $-1 52.801538839972423 -9.1440938495154249 5.9329884479313675 #
point $-1 52.801538839972423 -6.2365071436377271 5.9329884479313675 #
point $-1 52.801538839972423 -3.3289204377600292 5.9329884479313675 #
straight-curve $-1 -57.50175481429487 -3.2832700365448595 51.019181877636655 0 0 -1 I I #
point $-1 -57.50175481429487 -3.2832700365448595 10.470623705518616 #
straight-curve $-1 -57.50175481429487 -3.3089251328295717 6.6961338612348502 0 -1 0 I I #
point $-1 -57.50175481429487 -3.2832700365448595 6.6961338612348511 #
point $-1 -53.580259534423192 -8.0469560781366951 6.917662748829783 #
point $-1 -53.580259534423192 -5.1887444531815952 6.917662748829783 #
straight-curve $-1 0 -28.381126751323837 -10.470623705518616 -1 0 0 I I #
point $-1 -57.50175481429487 -28.381126751323837 -10.470623705518616 #
point $-1 -57.50175481429487 28.381126751323837 -10.470623705518616 #
straight-curve $-1 0 28.381126751323837 -10.470623705518616 1 0 0 I I #
End-of-ACIS-data 