500 0 6 0           
7 Unknown 11 ACIS 5.0 NT 24 Thu Mar 25 17:36:32 1999 
-1 9.9999999999999995e-007 1e-010 
body $-1 $6 $-1 $7 #
body $-1 $8 $-1 $9 #
body $-1 $10 $-1 $11 #
body $-1 $12 $-1 $13 #
body $-1 $14 $-1 $15 #
body $-1 $16 $-1 $17 #
lump $-1 $-1 $18 $0 #
transform $-1 1 0 0 0 1 0 0 0 1 76.043580431531723 41.47342195427769 18.252254665787433 1 rotate no_reflect no_shear #
lump $-1 $-1 $19 $1 #
transform $-1 1 0 0 0 1 0 0 0 1 76.043580431531723 41.47342195427769 18.252254665787433 1 rotate no_reflect no_shear #
lump $-1 $-1 $20 $2 #
transform $-1 1 0 0 0 1 0 0 0 1 76.043580431531723 41.47342195427769 18.252254665787433 1 rotate no_reflect no_shear #
lump $-1 $-1 $21 $3 #
transform $-1 1 0 0 0 1 0 0 0 1 76.043580431531723 41.47342195427769 18.252254665787433 1 rotate no_reflect no_shear #
lump $-1 $-1 $22 $4 #
transform $-1 1 0 0 0 1 0 0 0 1 76.043580431531723 41.47342195427769 18.252254665787433 1 rotate no_reflect no_shear #
lump $-1 $-1 $23 $5 #
transform $-1 1 0 0 0 1 0 0 0 1 76.043580431531723 41.47342195427769 18.252254665787433 1 rotate no_reflect no_shear #
shell $-1 $-1 $-1 $24 $-1 $6 #
shell $-1 $-1 $-1 $25 $-1 $8 #
shell $-1 $-1 $-1 $26 $-1 $10 #
shell $-1 $-1 $-1 $27 $-1 $12 #
shell $-1 $-1 $-1 $28 $-1 $14 #
shell $-1 $-1 $-1 $29 $-1 $16 #
face $-1 $30 $31 $18 $-1 $32 forward single #
face $-1 $33 $34 $19 $-1 $35 reversed single #
face $-1 $36 $37 $20 $-1 $38 reversed single #
face $-1 $39 $40 $21 $-1 $41 reversed single #
face $-1 $42 $43 $22 $-1 $44 forward single #
face $-1 $45 $46 $23 $-1 $47 forward single #
face $-1 $48 $49 $18 $-1 $50 reversed single #
loop $-1 $-1 $51 $24 #
plane-surface $-1 0 0 18.252254665787433 0 0 1 1 0 0 forward_v I I I I #
face $-1 $52 $53 $19 $-1 $54 reversed single #
loop $-1 $-1 $55 $25 #
plane-surface $-1 -69.334318545934323 -21.876352744511188 0 0 1 0 0 0 1 forward_v I I I I #
face $-1 $56 $57 $20 $-1 $58 reversed single #
loop $-1 $-1 $59 $26 #
plane-surface $-1 69.334318545934309 -21.876352744511188 0 0 1 0 0 0 1 forward_v I I I I #
face $-1 $60 $61 $21 $-1 $62 reversed single #
loop $-1 $-1 $63 $27 #
plane-surface $-1 -62.625056660336931 101.837035465517 177.57905340713691 1 0 0 0 -0.75470958851134928 -0.65605901945558964 forward_v I I I I #
face $-1 $64 $65 $22 $-1 $66 forward single #
loop $-1 $67 $68 $28 #
cone-surface $-1 -57.861086644196021 39.769477684963306 16.398158495660947 0 -0.75470958851134928 -0.65605901945558964 0.25 0 0 1 I I 0 1 0.25 forward I I I I #
face $-1 $69 $70 $23 $-1 $71 forward single #
loop $-1 $72 $73 $29 #
cone-surface $-1 -50.715131619984668 39.769477684963306 16.398158495660947 0 -0.75470958851134928 -0.65605901945558964 0.25 0 0 1 I I 0 1 0.25 forward I I I I #
face $-1 $74 $75 $18 $-1 $76 reversed single #
loop $-1 $-1 $77 $30 #
plane-surface $-1 0 0 -18.252254665787433 0 0 1 1 0 0 forward_v I I I I #
coedge $-1 $78 $79 $80 $81 forward $31 $-1 #
face $-1 $82 $83 $19 $-1 $84 reversed single #
loop $-1 $-1 $85 $33 #
plane-surface $-1 -69.334318545934323 -15.961456922674266 0 0 -1 0 0 0 -1 forward_v I I I I #
coedge $-1 $86 $87 $88 $89 reversed $34 $-1 #
face $-1 $90 $91 $20 $-1 $92 reversed single #
loop $-1 $-1 $93 $36 #
plane-surface $-1 62.625056660336909 -18.918904833592727 0 1 0 0 0 0 -1 forward_v I I I I #
coedge $-1 $94 $95 $96 $97 forward $37 $-1 #
face $-1 $98 $99 $21 $-1 $100 reversed single #
loop $-1 $-1 $101 $39 #
plane-surface $-1 -54.288109132090348 -12.944603127304987 77.80089977953098 0 0.75470958851134928 0.65605901945558964 1 0 0 forward_v I I I I #
coedge $-1 $102 $103 $104 $105 reversed $40 $-1 #
face $-1 $-1 $106 $22 $-1 $107 forward single #
loop $-1 $108 $109 $42 #
cone-surface $-1 -57.861086644196021 39.297784192143716 15.988121608501203 0 -0.75470958851134928 -0.65605901945558964 0.125 0 0 1 I I -0.70710678118654746 0.70710678118654746 0.125 forward I I I I #
loop $-1 $-1 $110 $28 #
coedge $-1 $68 $68 $111 $112 reversed $43 $-1 #
face $-1 $-1 $113 $23 $-1 $114 forward single #
loop $-1 $115 $116 $45 #
cone-surface $-1 -50.715131619984668 39.297784192143716 15.988121608501203 0 -0.75470958851134928 -0.65605901945558964 0.125 0 0 1 I I -0.70710678118654746 0.70710678118654746 0.125 forward I I I I #
loop $-1 $-1 $117 $29 #
coedge $-1 $73 $73 $118 $119 reversed $46 $-1 #
face $-1 $120 $121 $18 $-1 $122 reversed single #
loop $-1 $-1 $123 $48 #
plane-surface $-1 0 -41.47342195427769 0 0 1 0 0 0 1 forward_v I I I I #
coedge $-1 $124 $125 $126 $127 forward $49 $-1 #
coedge $-1 $128 $51 $129 $130 forward $31 $-1 #
coedge $-1 $51 $128 $131 $132 forward $31 $-1 #
coedge $-1 $133 $134 $51 $81 reversed $135 $-1 #
edge $-1 $136 -41.47342195427769 $137 41.47342195427769 $80 $138 forward 7 unknown #
face $-1 $139 $140 $19 $-1 $141 reversed single #
loop $-1 $-1 $142 $52 #
plane-surface $-1 -62.625056660336924 -18.918904833592727 0 -1 0 0 0 0 1 forward_v I I I I #
coedge $-1 $143 $144 $145 $146 forward $53 $-1 #
coedge $-1 $147 $55 $148 $149 reversed $34 $-1 #
coedge $-1 $55 $147 $150 $151 reversed $34 $-1 #
coedge $-1 $152 $153 $55 $89 forward $154 $-1 #
edge $-1 $155 -18.252254665787433 $156 18.252254665787433 $88 $157 forward 7 unknown #
face $-1 $158 $159 $20 $-1 $160 reversed single #
loop $-1 $-1 $161 $56 #
plane-surface $-1 69.334318545934309 -15.961456922674266 0 0 -1 0 0 0 -1 forward_v I I I I #
coedge $-1 $162 $163 $164 $165 forward $57 $-1 #
coedge $-1 $166 $59 $167 $168 reversed $37 $-1 #
coedge $-1 $59 $166 $169 $170 reversed $37 $-1 #
coedge $-1 $163 $162 $59 $97 reversed $57 $-1 #
edge $-1 $171 -18.252254665787433 $172 18.252254665787433 $96 $173 forward 7 unknown #
face $-1 $174 $175 $21 $-1 $176 reversed single #
loop $-1 $-1 $177 $60 #
plane-surface $-1 -45.951161603843765 101.837035465517 177.57905340713691 -1 0 0 0 0.75470958851134928 0.65605901945558964 forward_v I I I I #
coedge $-1 $178 $179 $180 $181 reversed $61 $-1 #
coedge $-1 $103 $63 $182 $183 reversed $40 $-1 #
coedge $-1 $63 $102 $178 $184 reversed $40 $-1 #
coedge $-1 $180 $185 $63 $105 forward $186 $-1 #
edge $-1 $187 9.4450957784808125 $188 12.098274728598192 $104 $189 forward 7 unknown #
loop $-1 $-1 $111 $64 #
plane-surface $-1 -54.288109132090348 -12.944603127304987 77.80089977953098 0 0.75470958851134928 0.65605901945558964 1 0 0 forward_v I I I I #
loop $-1 $-1 $190 $42 #
coedge $-1 $109 $109 $110 $191 reversed $65 $-1 #
coedge $-1 $110 $110 $109 $191 forward $67 $-1 #
coedge $-1 $111 $111 $68 $112 forward $106 $-1 #
edge $-1 $192 1.0725068314504672e-014 $192 6.2831853071796111 $111 $193 forward 7 unknown #
loop $-1 $-1 $118 $69 #
plane-surface $-1 -54.288109132090348 -12.944603127304987 77.80089977953098 0 0.75470958851134928 0.65605901945558964 1 0 0 forward_v I I I I #
loop $-1 $-1 $194 $45 #
coedge $-1 $116 $116 $117 $195 reversed $70 $-1 #
coedge $-1 $117 $117 $116 $195 forward $72 $-1 #
coedge $-1 $118 $118 $73 $119 forward $113 $-1 #
edge $-1 $196 1.0725068314504672e-014 $196 6.2831853071796111 $118 $197 forward 7 unknown #
face $-1 $198 $199 $18 $-1 $200 reversed single #
loop $-1 $-1 $201 $74 #
plane-surface $-1 -76.043580431531723 0 0 1 0 0 0 0 -1 forward_v I I I I #
coedge $-1 $202 $131 $203 $204 forward $75 $-1 #
coedge $-1 $205 $77 $202 $206 forward $49 $-1 #
coedge $-1 $77 $205 $207 $208 forward $49 $-1 #
coedge $-1 $134 $133 $77 $127 reversed $135 $-1 #
edge $-1 $209 -41.47342195427769 $210 41.47342195427769 $126 $211 forward 7 unknown #
coedge $-1 $79 $78 $212 $213 forward $31 $-1 #
coedge $-1 $214 $215 $78 $130 reversed $199 $-1 #
edge $-1 $137 -76.043580431531723 $216 76.043580431531723 $129 $217 forward 7 unknown #
coedge $-1 $123 $218 $79 $132 reversed $75 $-1 #
edge $-1 $219 -76.043580431531723 $136 76.043580431531723 $131 $220 forward 7 unknown #
coedge $-1 $126 $80 $218 $221 forward $135 $-1 #
coedge $-1 $80 $126 $214 $222 reversed $135 $-1 #
loop $-1 $-1 $133 $198 #
vertex $-1 $81 $223 #
vertex $-1 $81 $224 #
straight-curve $-1 76.043580431531723 0 18.252254665787433 0 1 0 I I #
face $-1 $225 $226 $19 $-1 $227 forward single #
loop $-1 $-1 $228 $82 #
plane-surface $-1 0 0 -18.252254665787433 0 0 1 1 0 0 forward_v I I I I #
coedge $-1 $229 $230 $147 $231 forward $83 $-1 #
coedge $-1 $232 $85 $228 $233 reversed $53 $-1 #
coedge $-1 $85 $232 $234 $235 reversed $53 $-1 #
coedge $-1 $230 $229 $85 $146 reversed $83 $-1 #
edge $-1 $236 -18.252254665787433 $237 18.252254665787433 $145 $238 forward 7 unknown #
coedge $-1 $87 $86 $142 $231 reversed $34 $-1 #
coedge $-1 $239 $240 $86 $149 forward $140 $-1 #
edge $-1 $241 27.957897387369762 $155 41.376421158564561 $148 $242 forward 7 unknown #
coedge $-1 $243 $244 $87 $151 forward $226 $-1 #
edge $-1 $156 -41.376421158564561 $245 -27.957897387369762 $150 $246 forward 7 unknown #
coedge $-1 $247 $88 $244 $248 reversed $154 $-1 #
coedge $-1 $88 $247 $239 $249 reversed $154 $-1 #
loop $-1 $-1 $247 $225 #
vertex $-1 $249 $250 #
vertex $-1 $89 $251 #
straight-curve $-1 -76.043580431531723 -21.876352744511188 0 0 0 1 I I #
face $-1 $252 $253 $20 $-1 $254 forward single #
loop $-1 $-1 $167 $90 #
plane-surface $-1 0 0 -18.252254665787433 0 0 1 1 0 0 forward_v I I I I #
coedge $-1 $255 $256 $257 $258 reversed $91 $-1 #
coedge $-1 $96 $93 $259 $260 reversed $57 $-1 #
coedge $-1 $93 $96 $261 $262 reversed $57 $-1 #
coedge $-1 $256 $255 $93 $165 reversed $91 $-1 #
edge $-1 $263 -18.252254665787433 $264 18.252254665787433 $164 $265 forward 7 unknown #
coedge $-1 $95 $94 $266 $267 reversed $37 $-1 #
coedge $-1 $259 $268 $94 $168 forward $159 $-1 #
edge $-1 $269 -41.376421158564554 $172 -27.957897387369755 $167 $270 forward 7 unknown #
coedge $-1 $271 $261 $95 $170 forward $253 $-1 #
edge $-1 $171 27.957897387369755 $272 41.376421158564554 $169 $273 forward 7 unknown #
vertex $-1 $170 $274 #
vertex $-1 $168 $275 #
straight-curve $-1 62.625056660336909 -21.876352744511188 0 0 0 -1 I I #
face $-1 $-1 $186 $21 $-1 $276 forward single #
loop $-1 $-1 $277 $98 #
plane-surface $-1 0 41.47342195427769 0 0 -1 0 0 0 -1 forward_v I I I I #
coedge $-1 $278 $279 $280 $281 reversed $99 $-1 #
coedge $-1 $282 $101 $103 $184 forward $61 $-1 #
coedge $-1 $101 $282 $278 $283 forward $61 $-1 #
coedge $-1 $280 $104 $101 $181 forward $186 $-1 #
edge $-1 $188 -35.481002094291753 $284 -18.807107037798591 $180 $285 forward 7 unknown #
coedge $-1 $286 $287 $102 $183 forward $175 $-1 #
edge $-1 $288 -73.589405358578404 $187 -70.537272037781023 $182 $289 forward 7 unknown #
edge $-1 $188 78.902727645480383 $288 82.946843908555365 $103 $290 forward 7 unknown #
coedge $-1 $104 $280 $286 $291 forward $186 $-1 #
loop $-1 $-1 $280 $174 #
vertex $-1 $183 $292 #
vertex $-1 $105 $293 #
straight-curve $-1 -62.625056660336931 50.918517732758502 18.252254665787433 0 -1 0 I I #
coedge $-1 $190 $190 $-1 $294 reversed $108 $-1 #
edge $-1 $295 0 $295 6.2831853071796004 $109 $296 forward 7 unknown #
vertex $-1 $112 $297 #
ellipse-curve $-1 -57.861086644196021 40.146832479218986 16.726188005388746 0 0.75470958851134928 0.65605901945558964 0.25 0 0 1 I I #
coedge $-1 $194 $194 $-1 $298 reversed $115 $-1 #
edge $-1 $299 0 $299 6.2831853071796004 $116 $300 forward 7 unknown #
vertex $-1 $119 $301 #
ellipse-curve $-1 -50.715131619984668 40.146832479218986 16.726188005388746 0 0.75470958851134928 0.65605901945558964 0.25 0 0 1 I I #
face $-1 $-1 $135 $18 $-1 $302 reversed single #
loop $-1 $-1 $214 $120 #
plane-surface $-1 0 41.47342195427769 0 0 -1 0 0 0 -1 forward_v I I I I #
coedge $-1 $303 $212 $215 $304 forward $121 $-1 #
coedge $-1 $218 $123 $124 $206 reversed $75 $-1 #
coedge $-1 $212 $303 $123 $204 reversed $121 $-1 #
edge $-1 $219 -18.252254665787433 $305 18.252254665787433 $203 $306 forward 7 unknown #
coedge $-1 $125 $124 $303 $307 forward $49 $-1 #
edge $-1 $210 -76.043580431531723 $305 76.043580431531723 $202 $308 forward 7 unknown #
coedge $-1 $215 $214 $125 $208 reversed $199 $-1 #
edge $-1 $309 -76.043580431531723 $209 76.043580431531723 $207 $310 forward 7 unknown #
vertex $-1 $127 $311 #
vertex $-1 $221 $312 #
straight-curve $-1 76.043580431531723 0 -18.252254665787433 0 -1 0 I I #
coedge $-1 $201 $203 $128 $213 reversed $121 $-1 #
edge $-1 $216 -41.47342195427769 $219 41.47342195427769 $212 $313 forward 7 unknown #
coedge $-1 $207 $129 $134 $222 forward $199 $-1 #
coedge $-1 $129 $207 $201 $304 reversed $199 $-1 #
vertex $-1 $130 $314 #
straight-curve $-1 0 41.47342195427769 18.252254665787433 -1 0 0 I I #
coedge $-1 $131 $202 $133 $221 reversed $75 $-1 #
vertex $-1 $213 $315 #
straight-curve $-1 0 -41.47342195427769 18.252254665787433 1 0 0 I I #
edge $-1 $136 -18.252254665787433 $210 18.252254665787433 $133 $316 forward 7 unknown #
edge $-1 $137 -18.252254665787433 $209 18.252254665787433 $134 $317 forward 7 unknown #
point $-1 76.043580431531723 -41.47342195427769 18.252254665787433 #
point $-1 76.043580431531723 41.47342195427769 18.252254665787433 #
face $-1 $-1 $154 $19 $-1 $318 reversed single #
loop $-1 $-1 $234 $139 #
plane-surface $-1 0 0 18.252254665787433 0 0 1 1 0 0 forward_v I I I I #
coedge $-1 $240 $239 $143 $233 forward $140 $-1 #
coedge $-1 $145 $142 $240 $319 reversed $83 $-1 #
coedge $-1 $142 $145 $243 $320 reversed $83 $-1 #
edge $-1 $245 -18.252254665787433 $241 18.252254665787433 $142 $321 forward 7 unknown #
coedge $-1 $144 $143 $247 $322 reversed $53 $-1 #
edge $-1 $323 -41.376421158564561 $237 -27.957897387369762 $228 $324 forward 7 unknown #
coedge $-1 $244 $243 $144 $235 forward $226 $-1 #
edge $-1 $236 27.957897387369762 $325 41.376421158564561 $234 $326 forward 7 unknown #
vertex $-1 $235 $327 #
vertex $-1 $233 $328 #
straight-curve $-1 -62.625056660336924 -15.961456922674266 0 0 0 -1 I I #
coedge $-1 $228 $148 $153 $249 forward $140 $-1 #
coedge $-1 $148 $228 $229 $319 forward $140 $-1 #
vertex $-1 $149 $329 #
straight-curve $-1 -34.667159272967162 -21.876352744511188 -18.252254665787433 -1 0 0 I I #
coedge $-1 $234 $150 $230 $320 forward $226 $-1 #
coedge $-1 $150 $234 $152 $248 forward $226 $-1 #
vertex $-1 $151 $330 #
straight-curve $-1 -34.667159272967162 -21.876352744511188 18.252254665787433 1 0 0 I I #
coedge $-1 $153 $152 $232 $322 forward $154 $-1 #
edge $-1 $325 15.961456922674266 $156 21.876352744511188 $152 $331 forward 7 unknown #
edge $-1 $155 -21.876352744511188 $323 -15.961456922674266 $153 $332 forward 7 unknown #
point $-1 -76.043580431531723 -21.876352744511188 -18.252254665787433 #
point $-1 -76.043580431531723 -21.876352744511188 18.252254665787433 #
face $-1 $-1 $333 $20 $-1 $334 reversed single #
loop $-1 $-1 $169 $158 #
plane-surface $-1 0 0 18.252254665787433 0 0 1 1 0 0 forward_v I I I I #
coedge $-1 $164 $161 $335 $336 reversed $91 $-1 #
coedge $-1 $161 $164 $337 $338 reversed $91 $-1 #
coedge $-1 $339 $340 $161 $258 forward $333 $-1 #
edge $-1 $341 -18.252254665787433 $342 18.252254665787433 $257 $343 forward 7 unknown #
coedge $-1 $335 $167 $162 $260 forward $159 $-1 #
edge $-1 $172 -12.416900327714824 $264 -6.5020045058779026 $259 $344 forward 7 unknown #
coedge $-1 $169 $337 $163 $262 forward $253 $-1 #
edge $-1 $263 6.5020045058779026 $171 12.416900327714824 $261 $345 forward 7 unknown #
vertex $-1 $262 $346 #
vertex $-1 $260 $347 #
straight-curve $-1 62.625056660336909 -15.961456922674266 0 0 0 -1 I I #
coedge $-1 $340 $339 $166 $267 forward $333 $-1 #
edge $-1 $272 -18.252254665787433 $269 18.252254665787433 $266 $348 forward 7 unknown #
coedge $-1 $167 $335 $340 $349 forward $159 $-1 #
vertex $-1 $267 $350 #
straight-curve $-1 34.667159272967154 -21.876352744511188 -18.252254665787433 -1 0 0 I I #
coedge $-1 $337 $169 $339 $351 forward $253 $-1 #
vertex $-1 $351 $352 #
straight-curve $-1 34.667159272967154 -21.876352744511188 18.252254665787433 1 0 0 I I #
point $-1 62.625056660336909 -21.876352744511188 18.252254665787433 #
point $-1 62.625056660336909 -21.876352744511188 -18.252254665787433 #
plane-surface $-1 0 0 18.252254665787433 0 0 1 1 0 0 forward_v I I I I #
coedge $-1 $287 $286 $279 $353 forward $175 $-1 #
coedge $-1 $279 $177 $179 $283 reversed $99 $-1 #
coedge $-1 $177 $278 $277 $353 reversed $99 $-1 #
coedge $-1 $185 $180 $177 $281 forward $186 $-1 #
edge $-1 $284 -12.098274728598192 $354 -9.4450957784808125 $280 $355 forward 7 unknown #
coedge $-1 $179 $178 $287 $356 reversed $61 $-1 #
edge $-1 $357 -82.946843908555365 $284 -78.902727645480383 $278 $358 forward 7 unknown #
vertex $-1 $181 $359 #
straight-curve $-1 -27.144054566045174 38.820243004160304 18.252254665787426 1 0 0 I I #
coedge $-1 $277 $182 $185 $291 reversed $175 $-1 #
coedge $-1 $182 $277 $282 $356 forward $175 $-1 #
vertex $-1 $183 $360 #
straight-curve $-1 -62.625056660336931 41.47342195427769 88.789526703568455 0 0 1 I I #
straight-curve $-1 -62.625056660336931 -12.944603127304987 77.80089977953098 0 0.65605901945558964 -0.75470958851134928 I I #
edge $-1 $354 45.951161603843765 $187 62.625056660336931 $286 $361 forward 7 unknown #
point $-1 -62.625056660336931 41.47342195427769 18.252254665787433 #
point $-1 -62.625056660336931 38.820243004160311 18.252254665787433 #
edge $-1 $362 1 $362 0 $190 $-1 forward 7 unknown #
vertex $-1 $191 $363 #
ellipse-curve $-1 -57.861086644196021 39.392122890707633 16.070128985933152 0 0.75470958851134928 0.65605901945558964 0.25 0 0 1 I I #
point $-1 -57.611086644196021 40.146832479218986 16.726188005388742 #
edge $-1 $364 1 $364 0 $194 $-1 forward 7 unknown #
vertex $-1 $195 $365 #
ellipse-curve $-1 -50.715131619984668 39.392122890707633 16.070128985933152 0 0.75470958851134928 0.65605901945558964 0.25 0 0 1 I I #
point $-1 -50.465131619984668 40.146832479218986 16.726188005388742 #
plane-surface $-1 76.043580431531723 0 0 -1 0 0 0 0 1 forward_v I I I I #
coedge $-1 $203 $201 $205 $307 reversed $121 $-1 #
edge $-1 $216 -18.252254665787433 $309 18.252254665787433 $215 $366 forward 7 unknown #
vertex $-1 $307 $367 #
straight-curve $-1 -76.043580431531723 -41.47342195427769 0 0 0 -1 I I #
edge $-1 $305 -41.47342195427769 $309 41.47342195427769 $303 $368 forward 7 unknown #
straight-curve $-1 0 -41.47342195427769 -18.252254665787433 -1 0 0 I I #
vertex $-1 $208 $369 #
straight-curve $-1 0 41.47342195427769 -18.252254665787433 1 0 0 I I #
point $-1 76.043580431531723 41.47342195427769 -18.252254665787433 #
point $-1 76.043580431531723 -41.47342195427769 -18.252254665787433 #
straight-curve $-1 -76.043580431531723 0 18.252254665787433 0 -1 0 I I #
point $-1 -76.043580431531723 41.47342195427769 18.252254665787433 #
point $-1 -76.043580431531723 -41.47342195427769 18.252254665787433 #
straight-curve $-1 76.043580431531723 -41.47342195427769 0 0 0 -1 I I #
straight-curve $-1 76.043580431531723 41.47342195427769 0 0 0 -1 I I #
plane-surface $-1 -76.043580431531723 0 0 1 0 0 0 0 -1 forward_v I I I I #
edge $-1 $237 6.5020045058779026 $241 12.416900327714824 $240 $370 forward 7 unknown #
edge $-1 $245 -12.416900327714824 $236 -6.5020045058779026 $243 $371 forward 7 unknown #
straight-curve $-1 -62.625056660336924 -21.876352744511188 0 0 0 -1 I I #
edge $-1 $325 -18.252254665787433 $323 18.252254665787433 $247 $372 forward 7 unknown #
vertex $-1 $322 $373 #
straight-curve $-1 -34.667159272967162 -15.961456922674266 -18.252254665787433 1 0 0 I I #
vertex $-1 $248 $374 #
straight-curve $-1 -34.667159272967162 -15.961456922674266 18.252254665787433 -1 0 0 I I #
point $-1 -62.625056660336924 -15.961456922674266 18.252254665787433 #
point $-1 -62.625056660336924 -15.961456922674266 -18.252254665787433 #
point $-1 -62.625056660336924 -21.876352744511188 -18.252254665787433 #
point $-1 -62.625056660336924 -21.876352744511188 18.252254665787433 #
straight-curve $-1 -76.043580431531723 0 18.252254665787433 0 -1 0 I I #
straight-curve $-1 -76.043580431531723 0 -18.252254665787433 0 1 0 I I #
loop $-1 $-1 $266 $252 #
plane-surface $-1 76.043580431531723 0 0 -1 0 0 0 0 1 forward_v I I I I #
coedge $-1 $268 $259 $255 $336 forward $159 $-1 #
edge $-1 $264 27.957897387369755 $341 41.376421158564554 $335 $375 forward 7 unknown #
coedge $-1 $261 $271 $256 $338 forward $253 $-1 #
edge $-1 $342 -41.376421158564554 $263 -27.957897387369755 $337 $376 forward 7 unknown #
coedge $-1 $266 $257 $271 $351 reversed $333 $-1 #
coedge $-1 $257 $266 $268 $349 reversed $333 $-1 #
vertex $-1 $349 $377 #
vertex $-1 $258 $378 #
straight-curve $-1 76.043580431531723 -15.961456922674266 0 0 0 1 I I #
straight-curve $-1 62.625056660336909 -9.4594524167963634 -18.252254665787433 0 1 0 I I #
straight-curve $-1 62.625056660336909 -9.4594524167963634 18.252254665787433 0 -1 0 I I #
point $-1 62.625056660336909 -15.961456922674266 18.252254665787433 #
point $-1 62.625056660336909 -15.961456922674266 -18.252254665787433 #
straight-curve $-1 76.043580431531723 -21.876352744511188 0 0 0 -1 I I #
edge $-1 $341 15.961456922674266 $269 21.876352744511188 $340 $379 forward 7 unknown #
point $-1 76.043580431531709 -21.876352744511188 -18.252254665787433 #
edge $-1 $272 -21.876352744511188 $342 -15.961456922674266 $339 $380 forward 7 unknown #
point $-1 76.043580431531709 -21.876352744511188 18.252254665787433 #
edge $-1 $354 70.537272037781023 $357 73.589405358578404 $277 $381 forward 7 unknown #
vertex $-1 $291 $382 #
straight-curve $-1 -45.951161603843765 50.918517732758502 18.252254665787433 0 1 0 I I #
edge $-1 $357 18.807107037798591 $288 35.481002094291753 $287 $383 forward 7 unknown #
vertex $-1 $356 $384 #
straight-curve $-1 -45.951161603843765 -12.944603127304987 77.80089977953098 0 -0.65605901945558964 0.75470958851134928 I I #
point $-1 -45.951161603843765 38.820243004160311 18.252254665787433 #
point $-1 -62.625056660336931 41.473421954277683 15.200121344990052 #
straight-curve $-1 0 41.47342195427769 18.252254665787433 -1 0 0 I I #
vertex $-1 $294 $385 #
point $-1 -57.611086644196021 39.392122890707633 16.070128985933152 #
vertex $-1 $298 $386 #
point $-1 -50.465131619984668 39.392122890707633 16.070128985933152 #
straight-curve $-1 -76.043580431531723 41.47342195427769 0 0 0 -1 I I #
point $-1 -76.043580431531723 -41.47342195427769 -18.252254665787433 #
straight-curve $-1 -76.043580431531723 0 -18.252254665787433 0 1 0 I I #
point $-1 -76.043580431531723 41.47342195427769 -18.252254665787433 #
straight-curve $-1 -62.625056660336924 -9.4594524167963634 -18.252254665787433 0 -1 0 I I #
straight-curve $-1 -62.625056660336924 -9.4594524167963634 18.252254665787433 0 1 0 I I #
straight-curve $-1 -76.043580431531723 -15.961456922674266 0 0 0 -1 I I #
point $-1 -76.043580431531723 -15.961456922674266 -18.252254665787433 #
point $-1 -76.043580431531723 -15.961456922674266 18.252254665787433 #
straight-curve $-1 34.667159272967154 -15.961456922674266 -18.252254665787433 1 0 0 I I #
straight-curve $-1 34.667159272967154 -15.961456922674266 18.252254665787433 -1 0 0 I I #
point $-1 76.043580431531709 -15.961456922674266 -18.252254665787433 #
point $-1 76.043580431531709 -15.961456922674266 18.252254665787433 #
straight-curve $-1 76.043580431531723 0 -18.252254665787433 0 -1 0 I I #
straight-curve $-1 76.043580431531723 0 18.252254665787433 0 1 0 I I #
straight-curve $-1 -45.951161603843765 41.47342195427769 88.789526703568455 0 0 -1 I I #
point $-1 -45.951161603843765 41.47342195427769 18.252254665787433 #
straight-curve $-1 -27.144054566045174 41.47342195427769 15.200121344990048 -1 0 0 I I #
point $-1 -45.951161603843765 41.473421954277683 15.200121344990052 #
point $-1 -57.861086644196021 39.2034454935798 15.906114231069255 #
point $-1 -50.715131619984668 39.2034454935798 15.906114231069255 #
End-of-ACIS-data 