500 0 9 0           
7 Unknown 11 ACIS 5.0 NT 24 Thu Mar 25 22:58:18 1999 
-1 9.9999999999999995e-007 1e-010 
body $-1 $9 $-1 $10 #
body $-1 $11 $-1 $12 #
body $-1 $13 $-1 $14 #
body $-1 $15 $-1 $16 #
body $-1 $17 $-1 $18 #
body $-1 $19 $-1 $20 #
body $-1 $21 $-1 $22 #
body $-1 $23 $-1 $24 #
body $-1 $25 $-1 $26 #
lump $-1 $-1 $27 $0 #
transform $-1 1 0 0 0 1 0 0 0 1 75.887325663014622 45.775803641687752 11.839094990137852 1 rotate no_reflect no_shear #
lump $-1 $-1 $28 $1 #
transform $-1 1 0 0 0 1 0 0 0 1 75.887325663014622 45.775803641687752 11.839094990137852 1 rotate no_reflect no_shear #
lump $-1 $-1 $29 $2 #
transform $-1 1 0 0 0 1 0 0 0 1 75.887325663014622 45.775803641687752 11.839094990137852 1 rotate no_reflect no_shear #
lump $-1 $-1 $30 $3 #
transform $-1 1 0 0 0 1 0 0 0 1 75.887325663014622 45.775803641687752 11.839094990137852 1 rotate no_reflect no_shear #
lump $-1 $-1 $31 $4 #
transform $-1 1 0 0 0 1 0 0 0 1 75.887325663014622 45.775803641687752 11.839094990137852 1 rotate no_reflect no_shear #
lump $-1 $-1 $32 $5 #
transform $-1 1 0 0 0 1 0 0 0 1 75.887325663014622 45.775803641687752 11.839094990137852 1 rotate no_reflect no_shear #
lump $-1 $-1 $33 $6 #
transform $-1 1 0 0 0 1 0 0 0 1 75.887325663014622 45.775803641687752 11.839094990137852 1 rotate no_reflect no_shear #
lump $-1 $-1 $34 $7 #
transform $-1 1 0 0 0 1 0 0 0 1 75.887325663014622 45.775803641687752 11.839094990137852 1 rotate no_reflect no_shear #
lump $-1 $-1 $35 $8 #
transform $-1 1 0 0 0 1 0 0 0 1 75.887325663014622 45.775803641687752 11.839094990137852 1 rotate no_reflect no_shear #
shell $-1 $-1 $-1 $36 $-1 $9 #
shell $-1 $-1 $-1 $37 $-1 $11 #
shell $-1 $-1 $-1 $38 $-1 $13 #
shell $-1 $-1 $-1 $39 $-1 $15 #
shell $-1 $-1 $-1 $40 $-1 $17 #
shell $-1 $-1 $-1 $41 $-1 $19 #
shell $-1 $-1 $-1 $42 $-1 $21 #
shell $-1 $-1 $-1 $43 $-1 $23 #
shell $-1 $-1 $-1 $44 $-1 $25 #
face $-1 $45 $46 $27 $-1 $47 forward single #
face $-1 $48 $49 $28 $-1 $50 forward single #
face $-1 $51 $52 $29 $-1 $53 reversed single #
face $-1 $54 $55 $30 $-1 $56 forward single #
face $-1 $57 $58 $31 $-1 $59 forward single #
face $-1 $60 $61 $32 $-1 $62 forward single #
face $-1 $63 $64 $33 $-1 $65 reversed single #
face $-1 $66 $67 $34 $-1 $68 forward single #
face $-1 $69 $70 $35 $-1 $71 forward single #
face $-1 $72 $73 $27 $-1 $74 reversed single #
loop $-1 $-1 $75 $36 #
plane-surface $-1 0 0 11.839094990137852 0 0 1 1 0 0 forward_v I I I I #
face $-1 $76 $77 $28 $-1 $78 reversed single #
loop $-1 $-1 $79 $37 #
plane-surface $-1 -68.732641919833682 0 -0.83086335113238174 0 0 1 1 0 0 forward_v I I I I #
face $-1 $80 $81 $29 $-1 $82 reversed single #
loop $-1 $-1 $83 $38 #
plane-surface $-1 -27.786694656733385 -145.34893522690328 117.85757680187317 1 0 0 0 0.6560590369687036 -0.75470957328743171 forward_v I I I I #
face $-1 $84 $85 $30 $-1 $86 forward single #
loop $-1 $87 $88 $39 #
cone-surface $-1 -22.827506692413465 -38.988792256661235 5.4101719746301633 0 0.6560590369687036 -0.75470957328743171 2 0 0 1 I I 0 1 2 forward I I I I #
face $-1 $89 $90 $31 $-1 $91 forward single #
loop $-1 $92 $93 $40 #
cone-surface $-1 -15.388724745933587 -38.988792256661235 5.4101719746301633 0 0.6560590369687036 -0.75470957328743171 2 0 0 1 I I 0 1 2 forward I I I I #
face $-1 $94 $95 $32 $-1 $96 forward single #
loop $-1 $97 $98 $41 #
cone-surface $-1 -7.9499427994537086 -38.988792256661235 5.4101719746301633 0 0.6560590369687036 -0.75470957328743171 2 0 0 1 I I 0 1 2 forward I I I I #
face $-1 $99 $100 $33 $-1 $101 reversed single #
loop $-1 $-1 $102 $42 #
plane-surface $-1 -61.577958176652736 88.359928464252022 180.83415860653693 1 0 0 0 -0.70710678939079041 -0.70710677298230451 forward_v I I I I #
face $-1 $103 $104 $34 $-1 $105 forward single #
loop $-1 $106 $107 $43 #
cone-surface $-1 -52.105955312392929 43.890958586037101 9.9542499071576813 0 -0.70710678939079041 -0.70710677298230451 0.5 0 0 1 I I 0 1 0.5 forward I I I I #
face $-1 $108 $109 $35 $-1 $110 forward single #
loop $-1 $111 $112 $44 #
cone-surface $-1 -37.897951016003219 43.890958586037101 9.9542499071576813 0 -0.70710678939079041 -0.70710677298230451 0.5 0 0 1 I I 0 1 0.5 forward I I I I #
face $-1 $113 $114 $27 $-1 $115 reversed single #
loop $-1 $-1 $116 $45 #
plane-surface $-1 0 0 -11.839094990137852 0 0 1 1 0 0 forward_v I I I I #
coedge $-1 $117 $118 $119 $120 forward $46 $-1 #
face $-1 $121 $122 $28 $-1 $123 reversed single #
loop $-1 $-1 $124 $48 #
plane-surface $-1 -68.732641919833682 0 -6.293243363947167 0 0 1 1 0 0 forward_v I I I I #
coedge $-1 $125 $126 $127 $128 forward $49 $-1 #
face $-1 $129 $130 $29 $-1 $131 reversed single #
loop $-1 $-1 $132 $51 #
plane-surface $-1 -15.388724745933587 -45.775803641687759 3.3117944637568968 0 -0.6560590369687036 0.75470957328743171 1 0 0 forward_v I I I I #
coedge $-1 $133 $134 $135 $136 reversed $52 $-1 #
face $-1 $-1 $137 $30 $-1 $138 forward single #
loop $-1 $139 $140 $54 #
cone-surface $-1 -22.827506692413465 -36.450490292162065 2.4901896490255169 0 0.6560590369687036 -0.75470957328743171 1 0 0 1 I I -0.70710678118654735 0.70710678118654768 1 forward I I I I #
loop $-1 $-1 $141 $39 #
coedge $-1 $88 $88 $142 $143 reversed $55 $-1 #
face $-1 $-1 $144 $31 $-1 $145 forward single #
loop $-1 $146 $147 $57 #
cone-surface $-1 -15.388724745933587 -36.450490292162065 2.4901896490255169 0 0.6560590369687036 -0.75470957328743171 1 0 0 1 I I -0.70710678118654735 0.70710678118654768 1 forward I I I I #
loop $-1 $-1 $148 $40 #
coedge $-1 $93 $93 $149 $150 reversed $58 $-1 #
face $-1 $-1 $151 $32 $-1 $152 forward single #
loop $-1 $153 $154 $60 #
cone-surface $-1 -7.9499427994537086 -36.450490292162065 2.4901896490255169 0 0.6560590369687036 -0.75470957328743171 1 0 0 1 I I -0.70710678118654735 0.70710678118654768 1 forward I I I I #
loop $-1 $-1 $155 $41 #
coedge $-1 $98 $98 $156 $157 reversed $61 $-1 #
face $-1 $158 $159 $33 $-1 $160 reversed single #
loop $-1 $-1 $161 $63 #
plane-surface $-1 -45.001953164198078 -18.960957945803187 73.513274686873956 0 0.70710678939079041 0.70710677298230451 1 0 0 forward_v I I I I #
coedge $-1 $162 $163 $164 $165 reversed $64 $-1 #
face $-1 $-1 $166 $34 $-1 $167 forward single #
loop $-1 $168 $169 $66 #
cone-surface $-1 -52.105955312392929 43.360628493994007 9.4239198274209528 0 -0.70710678939079041 -0.70710677298230451 0.25 0 0 1 I I -0.70710678118654746 0.70710678118654746 0.25 forward I I I I #
loop $-1 $-1 $170 $43 #
coedge $-1 $107 $107 $171 $172 reversed $67 $-1 #
face $-1 $-1 $173 $35 $-1 $174 forward single #
loop $-1 $175 $176 $69 #
cone-surface $-1 -37.897951016003219 43.360628493994007 9.4239198274209528 0 -0.70710678939079041 -0.70710677298230451 0.25 0 0 1 I I -0.70710678118654746 0.70710678118654746 0.25 forward I I I I #
loop $-1 $-1 $177 $44 #
coedge $-1 $112 $112 $178 $179 reversed $70 $-1 #
face $-1 $180 $181 $27 $-1 $182 reversed single #
loop $-1 $-1 $183 $72 #
plane-surface $-1 0 -45.775803641687752 0 0 1 0 0 0 1 forward_v I I I I #
coedge $-1 $184 $185 $186 $187 forward $73 $-1 #
coedge $-1 $188 $75 $189 $190 forward $46 $-1 #
coedge $-1 $75 $188 $191 $192 forward $46 $-1 #
coedge $-1 $193 $194 $75 $120 reversed $195 $-1 #
edge $-1 $196 -45.775803641687752 $197 45.775803641687752 $119 $198 forward 7 unknown #
face $-1 $199 $200 $28 $-1 $201 reversed single #
loop $-1 $-1 $202 $76 #
plane-surface $-1 -61.577958176652743 0 -3.5620533575397744 -1 0 0 0 0 1 forward_v I I I I #
coedge $-1 $203 $204 $205 $206 forward $77 $-1 #
coedge $-1 $207 $79 $208 $209 reversed $49 $-1 #
coedge $-1 $79 $207 $210 $211 reversed $49 $-1 #
coedge $-1 $202 $212 $79 $128 reversed $122 $-1 #
edge $-1 $213 -45.775803641687752 $214 45.775803641687752 $127 $215 forward 7 unknown #
face $-1 $216 $217 $29 $-1 $218 forward single #
loop $-1 $-1 $219 $80 #
plane-surface $-1 -2.9907548351337887 -145.34893522690328 117.85757680187317 -1 0 0 0 -0.6560590369687036 0.75470957328743171 forward_v I I I I #
coedge $-1 $220 $221 $222 $223 reversed $81 $-1 #
coedge $-1 $134 $83 $224 $225 reversed $52 $-1 #
coedge $-1 $83 $133 $220 $226 reversed $52 $-1 #
coedge $-1 $222 $227 $83 $136 forward $228 $-1 #
edge $-1 $229 47.089693410798731 $230 55.616993937179679 $135 $231 forward 7 unknown #
loop $-1 $-1 $142 $84 #
plane-surface $-1 -15.388724745933587 -45.775803641687759 3.3117944637568968 0 -0.6560590369687036 0.75470957328743171 1 0 0 forward_v I I I I #
loop $-1 $-1 $232 $54 #
coedge $-1 $140 $140 $141 $233 reversed $85 $-1 #
coedge $-1 $141 $141 $140 $233 forward $87 $-1 #
coedge $-1 $142 $142 $88 $143 forward $137 $-1 #
edge $-1 $234 -8.740462180272739e-016 $234 6.2831853071795996 $142 $235 forward 7 unknown #
loop $-1 $-1 $149 $89 #
plane-surface $-1 -15.388724745933587 -45.775803641687759 3.3117944637568968 0 -0.6560590369687036 0.75470957328743171 1 0 0 forward_v I I I I #
loop $-1 $-1 $236 $57 #
coedge $-1 $147 $147 $148 $237 reversed $90 $-1 #
coedge $-1 $148 $148 $147 $237 forward $92 $-1 #
coedge $-1 $149 $149 $93 $150 forward $144 $-1 #
edge $-1 $238 -8.740462180272739e-016 $238 6.2831853071795996 $149 $239 forward 7 unknown #
loop $-1 $-1 $156 $94 #
plane-surface $-1 -15.388724745933587 -45.775803641687759 3.3117944637568968 0 -0.6560590369687036 0.75470957328743171 1 0 0 forward_v I I I I #
loop $-1 $-1 $240 $60 #
coedge $-1 $154 $154 $155 $241 reversed $95 $-1 #
coedge $-1 $155 $155 $154 $241 forward $97 $-1 #
coedge $-1 $156 $156 $98 $157 forward $151 $-1 #
edge $-1 $242 -8.740462180272739e-016 $242 6.2831853071795996 $156 $243 forward 7 unknown #
face $-1 $244 $245 $33 $-1 $246 reversed single #
loop $-1 $-1 $247 $99 #
plane-surface $-1 -28.42594815174342 88.359928464252022 180.83415860653693 -1 0 0 0 0.70710678939079041 0.70710677298230451 forward_v I I I I #
coedge $-1 $248 $249 $250 $251 reversed $100 $-1 #
coedge $-1 $163 $102 $252 $253 reversed $64 $-1 #
coedge $-1 $102 $162 $248 $254 reversed $64 $-1 #
coedge $-1 $250 $255 $102 $165 forward $256 $-1 #
edge $-1 $257 -1.5958394095617408 $258 1.4667439123487895 $164 $259 forward 7 unknown #
loop $-1 $-1 $171 $103 #
plane-surface $-1 -45.001953164198078 -18.960957945803187 73.513274686873956 0 0.70710678939079041 0.70710677298230451 1 0 0 forward_v I I I I #
loop $-1 $-1 $260 $66 #
coedge $-1 $169 $169 $170 $261 reversed $104 $-1 #
coedge $-1 $170 $170 $169 $261 forward $106 $-1 #
coedge $-1 $171 $171 $107 $172 forward $166 $-1 #
edge $-1 $262 2.5121472635055386e-015 $262 6.2831853071796031 $171 $263 forward 7 unknown #
loop $-1 $-1 $178 $108 #
plane-surface $-1 -45.001953164198078 -18.960957945803187 73.513274686873956 0 0.70710678939079041 0.70710677298230451 1 0 0 forward_v I I I I #
loop $-1 $-1 $264 $69 #
coedge $-1 $176 $176 $177 $265 reversed $109 $-1 #
coedge $-1 $177 $177 $176 $265 forward $111 $-1 #
coedge $-1 $178 $178 $112 $179 forward $173 $-1 #
edge $-1 $266 2.5121472635055386e-015 $266 6.2831853071796031 $178 $267 forward 7 unknown #
face $-1 $268 $269 $27 $-1 $270 reversed single #
loop $-1 $-1 $271 $113 #
plane-surface $-1 -75.887325663014622 0 0 1 0 0 0 0 -1 forward_v I I I I #
coedge $-1 $272 $191 $273 $274 forward $114 $-1 #
coedge $-1 $275 $116 $272 $276 forward $73 $-1 #
coedge $-1 $116 $275 $277 $278 forward $73 $-1 #
coedge $-1 $194 $193 $116 $187 reversed $195 $-1 #
edge $-1 $279 -45.775803641687752 $280 45.775803641687752 $186 $281 forward 7 unknown #
coedge $-1 $118 $117 $282 $283 forward $46 $-1 #
coedge $-1 $284 $285 $117 $190 reversed $269 $-1 #
edge $-1 $197 -75.887325663014622 $286 75.887325663014622 $189 $287 forward 7 unknown #
coedge $-1 $183 $288 $118 $192 reversed $114 $-1 #
edge $-1 $289 -75.887325663014622 $196 75.887325663014622 $191 $290 forward 7 unknown #
coedge $-1 $186 $119 $288 $291 forward $195 $-1 #
coedge $-1 $119 $186 $284 $292 reversed $195 $-1 #
loop $-1 $-1 $193 $268 #
vertex $-1 $120 $293 #
vertex $-1 $120 $294 #
straight-curve $-1 75.887325663014622 0 11.839094990137852 0 1 0 I I #
face $-1 $295 $296 $28 $-1 $297 reversed single #
loop $-1 $-1 $298 $121 #
plane-surface $-1 0 -45.775803641687752 0 0 1 0 0 0 1 forward_v I I I I #
coedge $-1 $205 $127 $299 $300 reversed $122 $-1 #
coedge $-1 $301 $124 $298 $302 reversed $77 $-1 #
coedge $-1 $124 $301 $303 $304 reversed $77 $-1 #
coedge $-1 $212 $202 $124 $206 reversed $122 $-1 #
edge $-1 $305 -45.775803641687752 $306 45.775803641687752 $205 $307 forward 7 unknown #
coedge $-1 $126 $125 $308 $309 reversed $49 $-1 #
coedge $-1 $310 $311 $125 $209 forward $312 $-1 #
edge $-1 $313 -41.52100470309778 $214 -27.211637216735902 $208 $314 forward 7 unknown #
coedge $-1 $315 $299 $126 $211 forward $200 $-1 #
edge $-1 $213 27.211637216735902 $316 41.52100470309778 $210 $317 forward 7 unknown #
coedge $-1 $127 $205 $310 $318 reversed $122 $-1 #
vertex $-1 $211 $319 #
vertex $-1 $209 $320 #
straight-curve $-1 -61.577958176652743 0 -0.83086335113238174 0 1 0 I I #
face $-1 $-1 $228 $29 $-1 $321 reversed single #
loop $-1 $-1 $322 $129 #
plane-surface $-1 0 0 11.839094990137852 0 0 1 1 0 0 forward_v I I I I #
coedge $-1 $323 $324 $325 $326 reversed $130 $-1 #
coedge $-1 $327 $132 $134 $226 forward $81 $-1 #
coedge $-1 $132 $327 $323 $328 forward $81 $-1 #
coedge $-1 $325 $135 $132 $223 forward $228 $-1 #
edge $-1 $230 -20.092332283766591 $329 4.7036075378330047 $222 $330 forward 7 unknown #
coedge $-1 $331 $332 $133 $225 forward $217 $-1 #
edge $-1 $333 -36.708200886755975 $229 -26.898663971763888 $224 $334 forward 7 unknown #
edge $-1 $230 9.44141639987384e-015 $333 12.997763990541202 $134 $335 forward 7 unknown #
coedge $-1 $135 $325 $331 $336 reversed $228 $-1 #
loop $-1 $-1 $325 $216 #
vertex $-1 $336 $337 #
vertex $-1 $136 $338 #
straight-curve $-1 -27.786694656733385 -45.775803641687752 58.928788400936583 0 0 -1 I I #
coedge $-1 $232 $232 $-1 $339 reversed $139 $-1 #
edge $-1 $340 0 $340 6.2831853071796004 $140 $341 forward 7 unknown #
vertex $-1 $143 $342 #
ellipse-curve $-1 -22.827506692413465 -40.871035184191705 7.5754447269473797 0 -0.6560590369687036 0.75470957328743171 2 0 0 1 I I #
coedge $-1 $236 $236 $-1 $343 reversed $146 $-1 #
edge $-1 $344 0 $344 6.2831853071796004 $147 $345 forward 7 unknown #
vertex $-1 $150 $346 #
ellipse-curve $-1 -15.388724745933587 -40.871035184191705 7.5754447269473797 0 -0.6560590369687036 0.75470957328743171 2 0 0 1 I I #
coedge $-1 $240 $240 $-1 $347 reversed $153 $-1 #
edge $-1 $348 0 $348 6.2831853071796004 $154 $349 forward 7 unknown #
vertex $-1 $157 $350 #
ellipse-curve $-1 -7.9499427994537086 -40.871035184191705 7.5754447269473797 0 -0.6560590369687036 0.75470957328743171 2 0 0 1 I I #
face $-1 $-1 $256 $33 $-1 $351 forward single #
loop $-1 $-1 $352 $158 #
plane-surface $-1 0 45.775803641687752 0 0 -1 0 0 0 -1 forward_v I I I I #
coedge $-1 $353 $354 $355 $356 reversed $159 $-1 #
coedge $-1 $357 $161 $163 $254 forward $100 $-1 #
coedge $-1 $161 $357 $353 $358 forward $100 $-1 #
coedge $-1 $355 $164 $161 $251 forward $256 $-1 #
edge $-1 $258 -39.0769815945537 $359 -5.9249715696443808 $250 $360 forward 7 unknown #
coedge $-1 $361 $362 $162 $253 forward $245 $-1 #
edge $-1 $363 -81.640567706108712 $257 -78.577984313130614 $252 $364 forward 7 unknown #
edge $-1 $258 87.220460363379715 $363 91.551607283375589 $163 $365 forward 7 unknown #
coedge $-1 $164 $355 $361 $366 forward $256 $-1 #
loop $-1 $-1 $355 $244 #
vertex $-1 $253 $367 #
vertex $-1 $165 $368 #
straight-curve $-1 -61.577958176652736 44.179964232126011 11.839094990137852 0 -1 0 I I #
coedge $-1 $260 $260 $-1 $369 reversed $168 $-1 #
edge $-1 $370 0 $370 6.2831853071796004 $169 $371 forward 7 unknown #
vertex $-1 $172 $372 #
ellipse-curve $-1 -52.105955312392929 44.244511980732476 10.307803293648814 0 0.70710678939079041 0.70710677298230451 0.5 0 0 1 I I #
coedge $-1 $264 $264 $-1 $373 reversed $175 $-1 #
edge $-1 $374 0 $374 6.2831853071796004 $176 $375 forward 7 unknown #
vertex $-1 $179 $376 #
ellipse-curve $-1 -37.897951016003219 44.244511980732476 10.307803293648814 0 0.70710678939079041 0.70710677298230451 0.5 0 0 1 I I #
face $-1 $-1 $195 $27 $-1 $377 reversed single #
loop $-1 $-1 $284 $180 #
plane-surface $-1 0 45.775803641687752 0 0 -1 0 0 0 -1 forward_v I I I I #
coedge $-1 $378 $282 $285 $379 forward $181 $-1 #
coedge $-1 $288 $183 $184 $276 reversed $114 $-1 #
coedge $-1 $282 $378 $183 $274 reversed $181 $-1 #
edge $-1 $289 -11.839094990137852 $380 11.839094990137852 $273 $381 forward 7 unknown #
coedge $-1 $185 $184 $378 $382 forward $73 $-1 #
edge $-1 $280 -75.887325663014622 $380 75.887325663014622 $272 $383 forward 7 unknown #
coedge $-1 $285 $284 $185 $278 reversed $269 $-1 #
edge $-1 $384 -75.887325663014622 $279 75.887325663014622 $277 $385 forward 7 unknown #
vertex $-1 $187 $386 #
vertex $-1 $291 $387 #
straight-curve $-1 75.887325663014622 0 -11.839094990137852 0 -1 0 I I #
coedge $-1 $271 $273 $188 $283 reversed $181 $-1 #
edge $-1 $286 -45.775803641687752 $289 45.775803641687752 $282 $388 forward 7 unknown #
coedge $-1 $277 $189 $194 $292 forward $269 $-1 #
coedge $-1 $189 $277 $271 $379 reversed $269 $-1 #
vertex $-1 $190 $389 #
straight-curve $-1 0 45.775803641687752 11.839094990137852 -1 0 0 I I #
coedge $-1 $191 $272 $193 $291 reversed $114 $-1 #
vertex $-1 $283 $390 #
straight-curve $-1 0 -45.775803641687752 11.839094990137852 1 0 0 I I #
edge $-1 $196 -11.839094990137852 $280 11.839094990137852 $193 $391 forward 7 unknown #
edge $-1 $197 -11.839094990137852 $279 11.839094990137852 $194 $392 forward 7 unknown #
point $-1 75.887325663014622 -45.775803641687752 11.839094990137852 #
point $-1 75.887325663014622 45.775803641687752 11.839094990137852 #
face $-1 $-1 $312 $28 $-1 $393 reversed single #
loop $-1 $-1 $394 $199 #
plane-surface $-1 -75.887325663014622 0 0 1 0 0 0 0 -1 forward_v I I I I #
coedge $-1 $299 $315 $203 $302 forward $200 $-1 #
coedge $-1 $210 $298 $202 $300 forward $200 $-1 #
edge $-1 $306 -4.5122166851772798 $213 0.95016332763750544 $299 $395 forward 7 unknown #
coedge $-1 $204 $203 $394 $396 reversed $77 $-1 #
edge $-1 $397 -41.52100470309778 $306 -27.211637216735902 $298 $398 forward 7 unknown #
coedge $-1 $311 $310 $204 $304 forward $312 $-1 #
edge $-1 $305 27.211637216735902 $399 41.52100470309778 $303 $400 forward 7 unknown #
vertex $-1 $304 $401 #
vertex $-1 $302 $402 #
straight-curve $-1 -61.577958176652743 0 -6.293243363947167 0 -1 0 I I #
coedge $-1 $403 $404 $207 $309 forward $296 $-1 #
edge $-1 $316 -45.775803641687752 $313 45.775803641687752 $308 $405 forward 7 unknown #
coedge $-1 $303 $208 $212 $318 forward $312 $-1 #
coedge $-1 $208 $303 $403 $406 reversed $312 $-1 #
loop $-1 $-1 $303 $295 #
vertex $-1 $406 $407 #
straight-curve $-1 -34.366320959916841 45.775803641687752 -0.83086335113238174 1 0 0 I I #
coedge $-1 $298 $210 $404 $408 forward $200 $-1 #
vertex $-1 $408 $409 #
straight-curve $-1 -34.366320959916841 -45.775803641687752 -0.83086335113238174 -1 0 0 I I #
edge $-1 $214 -0.95016332763750544 $305 4.5122166851772798 $310 $410 forward 7 unknown #
point $-1 -61.577958176652743 -45.775803641687752 -0.83086335113238174 #
point $-1 -61.577958176652743 45.775803641687752 -0.83086335113238174 #
plane-surface $-1 0 -45.775803641687752 0 0 1 0 0 0 1 forward_v I I I I #
coedge $-1 $332 $331 $324 $411 forward $217 $-1 #
coedge $-1 $324 $219 $221 $328 reversed $130 $-1 #
coedge $-1 $219 $323 $322 $411 reversed $130 $-1 #
coedge $-1 $227 $222 $219 $326 forward $228 $-1 #
edge $-1 $329 -55.616993937179679 $412 -47.089693410798731 $325 $413 forward 7 unknown #
coedge $-1 $221 $220 $332 $414 reversed $81 $-1 #
edge $-1 $415 -12.997763990541202 $329 -9.44141639987384e-015 $323 $416 forward 7 unknown #
vertex $-1 $223 $417 #
straight-curve $-1 -7.6943623729667934 -45.775803641687752 3.311794463756903 1 0 0 I I #
coedge $-1 $322 $224 $227 $336 forward $217 $-1 #
coedge $-1 $224 $322 $327 $414 forward $217 $-1 #
vertex $-1 $225 $418 #
straight-curve $-1 -27.786694656733385 -72.67446761345164 11.839094990137852 0 -1 0 I I #
straight-curve $-1 -27.786694656733385 -45.775803641687759 3.3117944637568968 0 0.75470957328743171 0.6560590369687036 I I #
edge $-1 $229 -27.786694656733385 $412 -2.9907548351337887 $227 $419 forward 7 unknown #
point $-1 -27.786694656733385 -45.775803641687752 11.839094990137852 #
point $-1 -27.786694656733385 -45.775803641687752 3.311794463756903 #
edge $-1 $420 1 $420 0 $232 $-1 forward 7 unknown #
vertex $-1 $233 $421 #
ellipse-curve $-1 -22.827506692413465 -37.106549329130772 3.2448992223129487 0 -0.6560590369687036 0.75470957328743171 2 0 0 1 I I #
point $-1 -20.827506692413465 -40.871035184191705 7.575444726947377 #
edge $-1 $422 1 $422 0 $236 $-1 forward 7 unknown #
vertex $-1 $237 $423 #
ellipse-curve $-1 -15.388724745933587 -37.106549329130772 3.2448992223129487 0 -0.6560590369687036 0.75470957328743171 2 0 0 1 I I #
point $-1 -13.388724745933587 -40.871035184191705 7.575444726947377 #
edge $-1 $424 1 $424 0 $240 $-1 forward 7 unknown #
vertex $-1 $241 $425 #
ellipse-curve $-1 -7.9499427994537086 -37.106549329130772 3.2448992223129487 0 -0.6560590369687036 0.75470957328743171 2 0 0 1 I I #
point $-1 -5.9499427994537086 -40.871035184191705 7.575444726947377 #
plane-surface $-1 0 0 11.839094990137852 0 0 1 1 0 0 forward_v I I I I #
coedge $-1 $362 $361 $354 $426 forward $245 $-1 #
coedge $-1 $354 $247 $249 $358 reversed $159 $-1 #
coedge $-1 $247 $353 $352 $426 reversed $159 $-1 #
coedge $-1 $255 $250 $247 $356 forward $256 $-1 #
edge $-1 $359 -1.4667439123487895 $427 1.5958394095617408 $355 $428 forward 7 unknown #
coedge $-1 $249 $248 $362 $429 reversed $100 $-1 #
edge $-1 $430 -91.551607283375589 $359 -87.220460363379715 $353 $431 forward 7 unknown #
vertex $-1 $251 $432 #
straight-curve $-1 -22.500976582099039 42.713220319777228 11.839094990137845 1 0 0 I I #
coedge $-1 $352 $252 $255 $366 reversed $245 $-1 #
coedge $-1 $252 $352 $357 $429 forward $245 $-1 #
vertex $-1 $253 $433 #
straight-curve $-1 -61.577958176652736 45.775803641687752 90.417079303268466 0 0 1 I I #
straight-curve $-1 -61.577958176652736 -18.960957945803187 73.513274686873956 0 0.70710677298230451 -0.70710678939079041 I I #
edge $-1 $427 28.42594815174342 $257 61.577958176652736 $361 $434 forward 7 unknown #
point $-1 -61.577958176652736 45.775803641687752 11.839094990137852 #
point $-1 -61.577958176652736 42.713220319777221 11.839094990137852 #
edge $-1 $435 1 $435 0 $260 $-1 forward 7 unknown #
vertex $-1 $261 $436 #
ellipse-curve $-1 -52.105955312392929 43.537405191341705 9.6006965206665296 0 0.70710678939079041 0.70710677298230451 0.5 0 0 1 I I #
point $-1 -51.605955312392929 44.244511980732497 10.307803293648833 #
edge $-1 $437 1 $437 0 $264 $-1 forward 7 unknown #
vertex $-1 $265 $438 #
ellipse-curve $-1 -37.897951016003219 43.537405191341705 9.6006965206665296 0 0.70710678939079041 0.70710677298230451 0.5 0 0 1 I I #
point $-1 -37.397951016003219 44.244511980732497 10.307803293648833 #
plane-surface $-1 75.887325663014622 0 0 -1 0 0 0 0 1 forward_v I I I I #
coedge $-1 $273 $271 $275 $382 reversed $181 $-1 #
edge $-1 $286 -11.839094990137852 $384 11.839094990137852 $285 $439 forward 7 unknown #
vertex $-1 $382 $440 #
straight-curve $-1 -75.887325663014622 -45.775803641687752 0 0 0 -1 I I #
edge $-1 $380 -45.775803641687752 $384 45.775803641687752 $378 $441 forward 7 unknown #
straight-curve $-1 0 -45.775803641687752 -11.839094990137852 -1 0 0 I I #
vertex $-1 $278 $442 #
straight-curve $-1 0 45.775803641687752 -11.839094990137852 1 0 0 I I #
point $-1 75.887325663014622 45.775803641687752 -11.839094990137852 #
point $-1 75.887325663014622 -45.775803641687752 -11.839094990137852 #
straight-curve $-1 -75.887325663014622 0 11.839094990137852 0 -1 0 I I #
point $-1 -75.887325663014622 45.775803641687752 11.839094990137852 #
point $-1 -75.887325663014622 -45.775803641687752 11.839094990137852 #
straight-curve $-1 75.887325663014622 -45.775803641687752 0 0 0 -1 I I #
straight-curve $-1 75.887325663014622 45.775803641687752 0 0 0 -1 I I #
plane-surface $-1 0 45.775803641687752 0 0 -1 0 0 0 -1 forward_v I I I I #
coedge $-1 $404 $403 $301 $396 forward $296 $-1 #
straight-curve $-1 -61.577958176652743 -45.775803641687752 -1.7810266787698872 0 0 1 I I #
edge $-1 $399 -45.775803641687752 $397 45.775803641687752 $394 $443 forward 7 unknown #
vertex $-1 $302 $444 #
straight-curve $-1 -34.366320959916841 -45.775803641687752 -6.293243363947167 1 0 0 I I #
vertex $-1 $304 $445 #
straight-curve $-1 -34.366320959916841 45.775803641687752 -6.293243363947167 -1 0 0 I I #
point $-1 -61.577958176652743 45.775803641687752 -6.293243363947167 #
point $-1 -61.577958176652743 -45.775803641687752 -6.293243363947167 #
coedge $-1 $394 $308 $311 $406 forward $296 $-1 #
coedge $-1 $308 $394 $315 $408 reversed $296 $-1 #
straight-curve $-1 -75.887325663014622 0 -0.83086335113238174 0 1 0 I I #
edge $-1 $313 0.83086335113238174 $399 6.293243363947167 $311 $446 forward 7 unknown #
point $-1 -75.887325663014622 45.775803641687752 -0.83086335113238174 #
edge $-1 $316 0.83086335113238174 $397 6.293243363947167 $404 $447 forward 7 unknown #
point $-1 -75.887325663014622 -45.775803641687752 -0.83086335113238174 #
straight-curve $-1 -61.577958176652743 45.775803641687752 -1.7810266787698872 0 0 -1 I I #
edge $-1 $412 26.898663971763888 $415 36.708200886755975 $322 $448 forward 7 unknown #
vertex $-1 $411 $449 #
straight-curve $-1 -2.9907548351337887 -45.775803641687752 58.928788400936583 0 0 1 I I #
edge $-1 $415 -4.7036075378330047 $333 20.092332283766591 $332 $450 forward 7 unknown #
vertex $-1 $414 $451 #
straight-curve $-1 -2.9907548351337887 -45.775803641687759 3.3117944637568968 0 -0.75470957328743171 -0.6560590369687036 I I #
point $-1 -2.9907548351337887 -45.775803641687752 3.311794463756903 #
point $-1 -27.786694656733385 -35.966266726695665 11.839094990137852 #
straight-curve $-1 0 -45.775803641687752 11.839094990137852 1 0 0 I I #
vertex $-1 $339 $452 #
point $-1 -20.827506692413465 -37.106549329130772 3.2448992223129487 #
vertex $-1 $343 $453 #
point $-1 -13.388724745933587 -37.106549329130772 3.2448992223129487 #
vertex $-1 $347 $454 #
point $-1 -5.9499427994537086 -37.106549329130772 3.2448992223129487 #
edge $-1 $427 78.577984313130614 $430 81.640567706108712 $352 $455 forward 7 unknown #
vertex $-1 $366 $456 #
straight-curve $-1 -28.42594815174342 44.179964232126011 11.839094990137852 0 1 0 I I #
edge $-1 $430 5.9249715696443808 $363 39.0769815945537 $362 $457 forward 7 unknown #
vertex $-1 $429 $458 #
straight-curve $-1 -28.42594815174342 -18.960957945803187 73.513274686873956 0 -0.70710677298230451 0.70710678939079041 I I #
point $-1 -28.42594815174342 42.713220319777221 11.839094990137852 #
point $-1 -61.577958176652736 45.775803641687759 8.7765115971597538 #
straight-curve $-1 0 45.775803641687752 11.839094990137852 -1 0 0 I I #
vertex $-1 $369 $459 #
point $-1 -51.605955312392929 43.537405191341705 9.6006965206665296 #
vertex $-1 $373 $460 #
point $-1 -37.397951016003219 43.537405191341705 9.6006965206665296 #
straight-curve $-1 -75.887325663014622 45.775803641687752 0 0 0 -1 I I #
point $-1 -75.887325663014622 -45.775803641687752 -11.839094990137852 #
straight-curve $-1 -75.887325663014622 0 -11.839094990137852 0 1 0 I I #
point $-1 -75.887325663014622 45.775803641687752 -11.839094990137852 #
straight-curve $-1 -75.887325663014622 0 -6.293243363947167 0 -1 0 I I #
point $-1 -75.887325663014622 -45.775803641687752 -6.293243363947167 #
point $-1 -75.887325663014622 45.775803641687752 -6.293243363947167 #
straight-curve $-1 -75.887325663014622 45.775803641687752 0 0 0 -1 I I #
straight-curve $-1 -75.887325663014622 -45.775803641687752 0 0 0 -1 I I #
straight-curve $-1 -2.9907548351337887 -72.67446761345164 11.839094990137852 0 1 0 I I #
point $-1 -2.9907548351337887 -45.775803641687752 11.839094990137852 #
straight-curve $-1 -7.6943623729667934 -35.966266726695665 11.839094990137852 -1 0 0 I I #
point $-1 -2.9907548351337887 -35.966266726695665 11.839094990137852 #
point $-1 -22.827506692413465 -35.794431255193359 1.7354800757380848 #
point $-1 -15.388724745933587 -35.794431255193359 1.7354800757380848 #
point $-1 -7.9499427994537086 -35.794431255193359 1.7354800757380848 #
straight-curve $-1 -28.42594815174342 45.775803641687752 90.417079303268466 0 0 -1 I I #
point $-1 -28.42594815174342 45.775803641687752 11.839094990137852 #
straight-curve $-1 -22.500976582099039 45.775803641687752 8.7765115971597538 -1 0 0 I I #
point $-1 -28.42594815174342 45.775803641687759 8.7765115971597538 #
point $-1 -52.105955312392929 43.183851796646309 9.247143134175376 #
point $-1 -37.897951016003219 43.183851796646309 9.247143134175376 #
End-of-ACIS-data 