500 0 7 0           
7 Unknown 11 ACIS 5.0 NT 24 Thu Mar 25 15:28:29 1999 
-1 9.9999999999999995e-007 1e-010 
body $-1 $7 $-1 $8 #
body $-1 $9 $-1 $10 #
body $-1 $11 $-1 $12 #
body $-1 $13 $-1 $14 #
body $-1 $15 $-1 $16 #
body $-1 $17 $-1 $18 #
body $-1 $19 $-1 $20 #
lump $-1 $-1 $21 $0 #
transform $-1 1 0 0 0 1 0 0 0 1 42.410962248603781 27.192484724788407 10.78346707853551 1 rotate no_reflect no_shear #
lump $-1 $-1 $22 $1 #
transform $-1 1 0 0 0 1 0 0 0 1 42.410962248603781 27.192484724788407 10.78346707853551 1 rotate no_reflect no_shear #
lump $-1 $-1 $23 $2 #
transform $-1 1 0 0 0 1 0 0 0 1 42.410962248603781 27.192484724788407 10.78346707853551 1 rotate no_reflect no_shear #
lump $-1 $-1 $24 $3 #
transform $-1 1 0 0 0 1 0 0 0 1 42.410962248603781 27.192484724788407 10.78346707853551 1 rotate no_reflect no_shear #
lump $-1 $-1 $25 $4 #
transform $-1 1 0 0 0 1 0 0 0 1 42.410962248603781 27.192484724788407 10.78346707853551 1 rotate no_reflect no_shear #
lump $-1 $-1 $26 $5 #
transform $-1 1 0 0 0 1 0 0 0 1 42.410962248603781 27.192484724788407 10.78346707853551 1 rotate no_reflect no_shear #
lump $-1 $-1 $27 $6 #
transform $-1 1 0 0 0 1 0 0 0 1 42.410962248603781 27.192484724788407 10.78346707853551 1 rotate no_reflect no_shear #
shell $-1 $-1 $-1 $28 $-1 $7 #
shell $-1 $-1 $-1 $29 $-1 $9 #
shell $-1 $-1 $-1 $30 $-1 $11 #
shell $-1 $-1 $-1 $31 $-1 $13 #
shell $-1 $-1 $-1 $32 $-1 $15 #
shell $-1 $-1 $-1 $33 $-1 $17 #
shell $-1 $-1 $-1 $34 $-1 $19 #
face $-1 $35 $36 $21 $-1 $37 forward single #
face $-1 $38 $39 $22 $-1 $40 reversed single #
face $-1 $41 $42 $23 $-1 $43 reversed single #
face $-1 $44 $45 $24 $-1 $46 reversed single #
face $-1 $47 $48 $25 $-1 $49 forward single #
face $-1 $50 $51 $26 $-1 $52 reversed single #
face $-1 $53 $54 $27 $-1 $55 forward single #
face $-1 $56 $57 $21 $-1 $58 reversed single #
loop $-1 $-1 $59 $28 #
plane-surface $-1 0 0 10.78346707853551 0 0 1 1 0 0 forward_v I I I I #
face $-1 $60 $61 $22 $-1 $62 reversed single #
loop $-1 $-1 $63 $29 #
plane-surface $-1 -36.603390416813184 -17.89179853477108 0 0 1 0 0 0 1 forward_v I I I I #
face $-1 $64 $65 $23 $-1 $66 reversed single #
loop $-1 $-1 $67 $30 #
plane-surface $-1 36.603390416813184 -17.89179853477108 0 0 1 0 0 0 1 forward_v I I I I #
face $-1 $68 $69 $24 $-1 $70 reversed single #
loop $-1 $-1 $71 $31 #
plane-surface $-1 -10.254124592601467 62.204595301490905 97.229686517114672 1 0 0 0 -0.79863551827123203 -0.60181501223851219 forward_v I I I I #
face $-1 $72 $73 $25 $-1 $74 forward single #
loop $-1 $75 $76 $32 #
cone-surface $-1 -6.6033064739601386 22.800453763039069 5.7377206686164941 0 -0.79863551827123203 -0.60181501223851219 1.5 0 0 1 I I 0 1 1.5 forward I I I I #
face $-1 $77 $78 $26 $-1 $79 reversed single #
loop $-1 $-1 $80 $33 #
plane-surface $-1 2.9524883553188097 62.204595301490905 97.229686517114672 1 0 0 0 -0.79863551827123203 -0.60181501223851219 forward_v I I I I #
face $-1 $81 $82 $27 $-1 $83 forward single #
loop $-1 $84 $85 $34 #
cone-surface $-1 6.6033064739601386 22.800453763039069 5.7377206686164941 0 -0.79863551827123203 -0.60181501223851219 1.5 0 0 1 I I 0 1 1.5 forward I I I I #
face $-1 $86 $87 $21 $-1 $88 reversed single #
loop $-1 $-1 $89 $35 #
plane-surface $-1 0 0 -10.78346707853551 0 0 1 1 0 0 forward_v I I I I #
coedge $-1 $90 $91 $92 $93 forward $36 $-1 #
face $-1 $94 $95 $22 $-1 $96 reversed single #
loop $-1 $-1 $97 $38 #
plane-surface $-1 -36.603390416813184 -12.986369182702393 0 0 -1 0 0 0 -1 forward_v I I I I #
coedge $-1 $98 $99 $100 $101 reversed $39 $-1 #
face $-1 $102 $103 $23 $-1 $104 reversed single #
loop $-1 $-1 $105 $41 #
plane-surface $-1 30.795818585022587 -15.439083858736737 0 1 0 0 0 0 -1 forward_v I I I I #
coedge $-1 $106 $107 $108 $109 forward $42 $-1 #
face $-1 $110 $111 $24 $-1 $112 reversed single #
loop $-1 $-1 $113 $44 #
plane-surface $-1 -6.6033064739601457 -5.5372063300997709 46.18257898773355 0 0.79863551827123203 0.60181501223851219 1 0 0 forward_v I I I I #
coedge $-1 $114 $115 $116 $117 reversed $45 $-1 #
face $-1 $-1 $118 $25 $-1 $119 forward single #
loop $-1 $120 $121 $47 #
cone-surface $-1 -6.6033064739601386 20.836719994633235 4.2579411761835342 0 -0.79863551827123203 -0.60181501223851219 0.75 0 0 1 I I -0.70710678118654757 0.70710678118654757 0.75 forward I I I I #
loop $-1 $-1 $122 $32 #
coedge $-1 $76 $76 $123 $124 reversed $48 $-1 #
face $-1 $125 $126 $26 $-1 $127 reversed single #
loop $-1 $-1 $128 $50 #
plane-surface $-1 6.6033064739601315 -5.5372063300997709 46.18257898773355 0 0.79863551827123203 0.60181501223851219 1 0 0 forward_v I I I I #
coedge $-1 $129 $130 $131 $132 reversed $51 $-1 #
face $-1 $-1 $133 $27 $-1 $134 forward single #
loop $-1 $135 $136 $53 #
cone-surface $-1 6.6033064739601386 20.836719994633235 4.2579411761835342 0 -0.79863551827123203 -0.60181501223851219 0.75 0 0 1 I I -0.70710678118654757 0.70710678118654757 0.75 forward I I I I #
loop $-1 $-1 $137 $34 #
coedge $-1 $85 $85 $138 $139 reversed $54 $-1 #
face $-1 $140 $141 $21 $-1 $142 reversed single #
loop $-1 $-1 $143 $56 #
plane-surface $-1 0 -27.192484724788407 0 0 1 0 0 0 1 forward_v I I I I #
coedge $-1 $144 $145 $146 $147 forward $57 $-1 #
coedge $-1 $148 $59 $149 $150 forward $36 $-1 #
coedge $-1 $59 $148 $151 $152 forward $36 $-1 #
coedge $-1 $153 $154 $59 $93 reversed $155 $-1 #
edge $-1 $156 -27.192484724788407 $157 27.192484724788407 $92 $158 forward 7 unknown #
face $-1 $159 $160 $22 $-1 $161 reversed single #
loop $-1 $-1 $162 $60 #
plane-surface $-1 -30.795818585022587 -15.439083858736737 0 -1 0 0 0 0 1 forward_v I I I I #
coedge $-1 $163 $164 $165 $166 forward $61 $-1 #
coedge $-1 $167 $63 $168 $169 reversed $39 $-1 #
coedge $-1 $63 $167 $170 $171 reversed $39 $-1 #
coedge $-1 $172 $173 $63 $101 forward $174 $-1 #
edge $-1 $175 -10.78346707853551 $176 10.78346707853551 $100 $177 forward 7 unknown #
face $-1 $178 $179 $23 $-1 $180 reversed single #
loop $-1 $-1 $181 $64 #
plane-surface $-1 36.603390416813184 -12.986369182702393 0 0 -1 0 0 0 -1 forward_v I I I I #
coedge $-1 $182 $183 $184 $185 forward $65 $-1 #
coedge $-1 $186 $67 $187 $188 reversed $42 $-1 #
coedge $-1 $67 $186 $189 $190 reversed $42 $-1 #
coedge $-1 $183 $182 $67 $109 reversed $65 $-1 #
edge $-1 $191 -10.78346707853551 $192 10.78346707853551 $108 $193 forward 7 unknown #
face $-1 $194 $195 $24 $-1 $196 reversed single #
loop $-1 $-1 $197 $68 #
plane-surface $-1 -2.9524883553188239 62.204595301490905 97.229686517114672 -1 0 0 0 0.79863551827123203 0.60181501223851219 forward_v I I I I #
coedge $-1 $198 $199 $200 $201 reversed $69 $-1 #
coedge $-1 $115 $71 $202 $203 reversed $45 $-1 #
coedge $-1 $71 $114 $198 $204 reversed $45 $-1 #
coedge $-1 $200 $205 $71 $117 forward $206 $-1 #
edge $-1 $207 3.9098129259570449 $208 9.9643605900508661 $116 $209 forward 7 unknown #
loop $-1 $-1 $123 $72 #
plane-surface $-1 -6.6033064739601457 -5.5372063300997709 46.18257898773355 0 0.79863551827123203 0.60181501223851219 1 0 0 forward_v I I I I #
loop $-1 $-1 $210 $47 #
coedge $-1 $121 $121 $122 $211 reversed $73 $-1 #
coedge $-1 $122 $122 $121 $211 forward $75 $-1 #
coedge $-1 $123 $123 $76 $124 forward $118 $-1 #
edge $-1 $212 4.5271936472238299e-016 $212 6.2831853071796013 $123 $213 forward 7 unknown #
face $-1 $214 $215 $26 $-1 $216 forward single #
loop $-1 $-1 $217 $77 #
plane-surface $-1 10.254124592601453 62.204595301490905 97.229686517114672 -1 0 0 0 0.79863551827123203 0.60181501223851219 forward_v I I I I #
coedge $-1 $218 $219 $220 $221 reversed $78 $-1 #
coedge $-1 $130 $80 $222 $223 reversed $51 $-1 #
coedge $-1 $80 $129 $218 $224 reversed $51 $-1 #
coedge $-1 $220 $225 $80 $132 forward $215 $-1 #
edge $-1 $226 3.9098129259570449 $227 9.9643605900508661 $131 $228 forward 7 unknown #
loop $-1 $-1 $138 $81 #
plane-surface $-1 6.6033064739601315 -5.5372063300997709 46.18257898773355 0 0.79863551827123203 0.60181501223851219 1 0 0 forward_v I I I I #
loop $-1 $-1 $229 $53 #
coedge $-1 $136 $136 $137 $230 reversed $82 $-1 #
coedge $-1 $137 $137 $136 $230 forward $84 $-1 #
coedge $-1 $138 $138 $85 $139 forward $133 $-1 #
edge $-1 $231 4.5271936472238299e-016 $231 6.2831853071796013 $138 $232 forward 7 unknown #
face $-1 $233 $234 $21 $-1 $235 reversed single #
loop $-1 $-1 $236 $86 #
plane-surface $-1 -42.410962248603781 0 0 1 0 0 0 0 -1 forward_v I I I I #
coedge $-1 $237 $151 $238 $239 forward $87 $-1 #
coedge $-1 $240 $89 $237 $241 forward $57 $-1 #
coedge $-1 $89 $240 $242 $243 forward $57 $-1 #
coedge $-1 $154 $153 $89 $147 reversed $155 $-1 #
edge $-1 $244 -27.192484724788407 $245 27.192484724788407 $146 $246 forward 7 unknown #
coedge $-1 $91 $90 $247 $248 forward $36 $-1 #
coedge $-1 $249 $250 $90 $150 reversed $234 $-1 #
edge $-1 $157 -42.410962248603781 $251 42.410962248603781 $149 $252 forward 7 unknown #
coedge $-1 $143 $253 $91 $152 reversed $87 $-1 #
edge $-1 $254 -42.410962248603781 $156 42.410962248603781 $151 $255 forward 7 unknown #
coedge $-1 $146 $92 $253 $256 forward $155 $-1 #
coedge $-1 $92 $146 $249 $257 reversed $155 $-1 #
loop $-1 $-1 $153 $233 #
vertex $-1 $93 $258 #
vertex $-1 $93 $259 #
straight-curve $-1 42.410962248603781 0 10.78346707853551 0 1 0 I I #
face $-1 $260 $261 $22 $-1 $262 forward single #
loop $-1 $-1 $263 $94 #
plane-surface $-1 0 0 -10.78346707853551 0 0 1 1 0 0 forward_v I I I I #
coedge $-1 $264 $265 $167 $266 forward $95 $-1 #
coedge $-1 $267 $97 $263 $268 reversed $61 $-1 #
coedge $-1 $97 $267 $269 $270 reversed $61 $-1 #
coedge $-1 $265 $264 $97 $166 reversed $95 $-1 #
edge $-1 $271 -10.78346707853551 $272 10.78346707853551 $165 $273 forward 7 unknown #
coedge $-1 $99 $98 $162 $266 reversed $39 $-1 #
coedge $-1 $274 $275 $98 $169 forward $160 $-1 #
edge $-1 $276 12.494123376615995 $175 24.109267040197189 $168 $277 forward 7 unknown #
coedge $-1 $278 $279 $99 $171 forward $261 $-1 #
edge $-1 $176 -24.109267040197189 $280 -12.494123376615995 $170 $281 forward 7 unknown #
coedge $-1 $282 $100 $279 $283 reversed $174 $-1 #
coedge $-1 $100 $282 $274 $284 reversed $174 $-1 #
loop $-1 $-1 $282 $260 #
vertex $-1 $284 $285 #
vertex $-1 $101 $286 #
straight-curve $-1 -42.410962248603781 -17.89179853477108 0 0 0 1 I I #
face $-1 $287 $288 $23 $-1 $289 forward single #
loop $-1 $-1 $187 $102 #
plane-surface $-1 0 0 -10.78346707853551 0 0 1 1 0 0 forward_v I I I I #
coedge $-1 $290 $291 $292 $293 reversed $103 $-1 #
coedge $-1 $108 $105 $294 $295 reversed $65 $-1 #
coedge $-1 $105 $108 $296 $297 reversed $65 $-1 #
coedge $-1 $291 $290 $105 $185 reversed $103 $-1 #
edge $-1 $298 -10.78346707853551 $299 10.78346707853551 $184 $300 forward 7 unknown #
coedge $-1 $107 $106 $301 $302 reversed $42 $-1 #
coedge $-1 $294 $303 $106 $188 forward $179 $-1 #
edge $-1 $304 -24.109267040197189 $192 -12.494123376615995 $187 $305 forward 7 unknown #
coedge $-1 $306 $296 $107 $190 forward $288 $-1 #
edge $-1 $191 12.494123376615995 $307 24.109267040197189 $189 $308 forward 7 unknown #
vertex $-1 $190 $309 #
vertex $-1 $188 $310 #
straight-curve $-1 30.795818585022587 -17.89179853477108 0 0 0 -1 I I #
face $-1 $-1 $206 $24 $-1 $311 forward single #
loop $-1 $-1 $312 $110 #
plane-surface $-1 0 27.192484724788407 0 0 -1 0 0 0 -1 forward_v I I I I #
coedge $-1 $313 $314 $315 $316 reversed $111 $-1 #
coedge $-1 $317 $113 $115 $204 forward $69 $-1 #
coedge $-1 $113 $317 $313 $318 forward $69 $-1 #
coedge $-1 $315 $116 $113 $201 forward $206 $-1 #
edge $-1 $208 -6.9524713556213946 $319 0.34916488166124893 $200 $320 forward 7 unknown #
coedge $-1 $321 $322 $114 $203 forward $195 $-1 #
edge $-1 $323 -45.866032533351678 $207 -37.831376180021827 $202 $324 forward 7 unknown #
edge $-1 $208 44.324489832138696 $323 54.384969449576801 $115 $325 forward 7 unknown #
coedge $-1 $116 $315 $321 $326 forward $206 $-1 #
loop $-1 $-1 $315 $194 #
vertex $-1 $203 $327 #
vertex $-1 $117 $328 #
straight-curve $-1 -10.254124592601467 31.102297650745452 10.783467078535509 0 -1 0 I I #
coedge $-1 $210 $210 $-1 $329 reversed $120 $-1 #
edge $-1 $330 0 $330 6.2831853071796004 $121 $331 forward 7 unknown #
vertex $-1 $124 $332 #
ellipse-curve $-1 -6.6033064739601386 24.165210892741495 6.7661389018705798 0 0.79863551827123203 0.60181501223851219 1.5 0 0 1 I I #
face $-1 $-1 $333 $26 $-1 $334 reversed single #
loop $-1 $-1 $131 $125 #
plane-surface $-1 0 0 10.78346707853551 0 0 1 1 0 0 forward_v I I I I #
coedge $-1 $335 $336 $337 $338 reversed $126 $-1 #
coedge $-1 $339 $128 $130 $224 forward $78 $-1 #
coedge $-1 $128 $339 $335 $340 forward $78 $-1 #
coedge $-1 $337 $131 $128 $221 forward $215 $-1 #
edge $-1 $227 -0.34916488166125603 $341 6.9524713556213875 $220 $342 forward 7 unknown #
coedge $-1 $343 $344 $129 $223 forward $333 $-1 #
edge $-1 $345 -45.866032533351678 $226 -37.831376180021827 $222 $346 forward 7 unknown #
edge $-1 $227 44.324489832138696 $345 54.384969449576801 $130 $347 forward 7 unknown #
coedge $-1 $131 $337 $343 $348 forward $215 $-1 #
vertex $-1 $223 $349 #
vertex $-1 $132 $350 #
straight-curve $-1 2.9524883553188097 31.102297650745452 10.783467078535509 0 -1 0 I I #
coedge $-1 $229 $229 $-1 $351 reversed $135 $-1 #
edge $-1 $352 0 $352 6.2831853071796004 $136 $353 forward 7 unknown #
vertex $-1 $139 $354 #
ellipse-curve $-1 6.6033064739601386 24.165210892741495 6.7661389018705798 0 0.79863551827123203 0.60181501223851219 1.5 0 0 1 I I #
face $-1 $-1 $155 $21 $-1 $355 reversed single #
loop $-1 $-1 $249 $140 #
plane-surface $-1 0 27.192484724788407 0 0 -1 0 0 0 -1 forward_v I I I I #
coedge $-1 $356 $247 $250 $357 forward $141 $-1 #
coedge $-1 $253 $143 $144 $241 reversed $87 $-1 #
coedge $-1 $247 $356 $143 $239 reversed $141 $-1 #
edge $-1 $254 -10.78346707853551 $358 10.78346707853551 $238 $359 forward 7 unknown #
coedge $-1 $145 $144 $356 $360 forward $57 $-1 #
edge $-1 $245 -42.410962248603781 $358 42.410962248603781 $237 $361 forward 7 unknown #
coedge $-1 $250 $249 $145 $243 reversed $234 $-1 #
edge $-1 $362 -42.410962248603781 $244 42.410962248603781 $242 $363 forward 7 unknown #
vertex $-1 $147 $364 #
vertex $-1 $256 $365 #
straight-curve $-1 42.410962248603781 0 -10.78346707853551 0 -1 0 I I #
coedge $-1 $236 $238 $148 $248 reversed $141 $-1 #
edge $-1 $251 -27.192484724788407 $254 27.192484724788407 $247 $366 forward 7 unknown #
coedge $-1 $242 $149 $154 $257 forward $234 $-1 #
coedge $-1 $149 $242 $236 $357 reversed $234 $-1 #
vertex $-1 $150 $367 #
straight-curve $-1 0 27.192484724788407 10.78346707853551 -1 0 0 I I #
coedge $-1 $151 $237 $153 $256 reversed $87 $-1 #
vertex $-1 $248 $368 #
straight-curve $-1 0 -27.192484724788407 10.78346707853551 1 0 0 I I #
edge $-1 $156 -10.78346707853551 $245 10.78346707853551 $153 $369 forward 7 unknown #
edge $-1 $157 -10.78346707853551 $244 10.78346707853551 $154 $370 forward 7 unknown #
point $-1 42.410962248603781 -27.192484724788407 10.78346707853551 #
point $-1 42.410962248603781 27.192484724788407 10.78346707853551 #
face $-1 $-1 $174 $22 $-1 $371 reversed single #
loop $-1 $-1 $269 $159 #
plane-surface $-1 0 0 10.78346707853551 0 0 1 1 0 0 forward_v I I I I #
coedge $-1 $275 $274 $163 $268 forward $160 $-1 #
coedge $-1 $165 $162 $275 $372 reversed $95 $-1 #
coedge $-1 $162 $165 $278 $373 reversed $95 $-1 #
edge $-1 $280 -10.78346707853551 $276 10.78346707853551 $162 $374 forward 7 unknown #
coedge $-1 $164 $163 $282 $375 reversed $61 $-1 #
edge $-1 $376 -24.109267040197189 $272 -12.494123376615995 $263 $377 forward 7 unknown #
coedge $-1 $279 $278 $164 $270 forward $261 $-1 #
edge $-1 $271 12.494123376615995 $378 24.109267040197189 $269 $379 forward 7 unknown #
vertex $-1 $270 $380 #
vertex $-1 $268 $381 #
straight-curve $-1 -30.795818585022587 -12.986369182702393 0 0 0 -1 I I #
coedge $-1 $263 $168 $173 $284 forward $160 $-1 #
coedge $-1 $168 $263 $264 $372 forward $160 $-1 #
vertex $-1 $169 $382 #
straight-curve $-1 -18.301695208406592 -17.89179853477108 -10.78346707853551 -1 0 0 I I #
coedge $-1 $269 $170 $265 $373 forward $261 $-1 #
coedge $-1 $170 $269 $172 $283 forward $261 $-1 #
vertex $-1 $171 $383 #
straight-curve $-1 -18.301695208406592 -17.89179853477108 10.78346707853551 1 0 0 I I #
coedge $-1 $173 $172 $267 $375 forward $174 $-1 #
edge $-1 $378 12.986369182702393 $176 17.89179853477108 $172 $384 forward 7 unknown #
edge $-1 $175 -17.89179853477108 $376 -12.986369182702393 $173 $385 forward 7 unknown #
point $-1 -42.410962248603781 -17.89179853477108 -10.78346707853551 #
point $-1 -42.410962248603781 -17.89179853477108 10.78346707853551 #
face $-1 $-1 $386 $23 $-1 $387 reversed single #
loop $-1 $-1 $189 $178 #
plane-surface $-1 0 0 10.78346707853551 0 0 1 1 0 0 forward_v I I I I #
coedge $-1 $184 $181 $388 $389 reversed $103 $-1 #
coedge $-1 $181 $184 $390 $391 reversed $103 $-1 #
coedge $-1 $392 $393 $181 $293 forward $386 $-1 #
edge $-1 $394 -10.78346707853551 $395 10.78346707853551 $292 $396 forward 7 unknown #
coedge $-1 $388 $187 $182 $295 forward $179 $-1 #
edge $-1 $192 -10.172256605402712 $299 -5.266827253334025 $294 $397 forward 7 unknown #
coedge $-1 $189 $390 $183 $297 forward $288 $-1 #
edge $-1 $298 5.266827253334025 $191 10.172256605402712 $296 $398 forward 7 unknown #
vertex $-1 $297 $399 #
vertex $-1 $295 $400 #
straight-curve $-1 30.795818585022587 -12.986369182702393 0 0 0 -1 I I #
coedge $-1 $393 $392 $186 $302 forward $386 $-1 #
edge $-1 $307 -10.78346707853551 $304 10.78346707853551 $301 $401 forward 7 unknown #
coedge $-1 $187 $388 $393 $402 forward $179 $-1 #
vertex $-1 $302 $403 #
straight-curve $-1 18.301695208406592 -17.89179853477108 -10.78346707853551 -1 0 0 I I #
coedge $-1 $390 $189 $392 $404 forward $288 $-1 #
vertex $-1 $404 $405 #
straight-curve $-1 18.301695208406592 -17.89179853477108 10.78346707853551 1 0 0 I I #
point $-1 30.795818585022587 -17.89179853477108 10.78346707853551 #
point $-1 30.795818585022587 -17.89179853477108 -10.78346707853551 #
plane-surface $-1 0 0 10.78346707853551 0 0 1 1 0 0 forward_v I I I I #
coedge $-1 $322 $321 $314 $406 forward $195 $-1 #
coedge $-1 $314 $197 $199 $318 reversed $111 $-1 #
coedge $-1 $197 $313 $312 $406 reversed $111 $-1 #
coedge $-1 $205 $200 $197 $316 forward $206 $-1 #
edge $-1 $319 -9.9643605900508661 $407 -3.9098129259570449 $315 $408 forward 7 unknown #
coedge $-1 $199 $198 $322 $409 reversed $69 $-1 #
edge $-1 $410 -54.384969449576801 $319 -44.324489832138696 $313 $411 forward 7 unknown #
vertex $-1 $201 $412 #
straight-curve $-1 -3.3016532369800728 21.137937060694583 10.783467078535512 1 0 0 I I #
coedge $-1 $312 $202 $205 $326 reversed $195 $-1 #
coedge $-1 $202 $312 $317 $409 forward $195 $-1 #
vertex $-1 $203 $413 #
straight-curve $-1 -10.254124592601467 27.192484724788407 48.614843258557336 0 0 1 I I #
straight-curve $-1 -10.254124592601467 -5.5372063300997709 46.18257898773355 0 0.60181501223851219 -0.79863551827123203 I I #
edge $-1 $407 2.9524883553188239 $207 10.254124592601467 $321 $414 forward 7 unknown #
point $-1 -10.254124592601467 27.192484724788407 10.78346707853551 #
point $-1 -10.254124592601467 21.137937060694586 10.783467078535509 #
edge $-1 $415 1 $415 0 $210 $-1 forward 7 unknown #
vertex $-1 $211 $416 #
ellipse-curve $-1 -6.6033064739601386 21.435696633336658 4.7093024353624182 0 0.79863551827123203 0.60181501223851219 1.5 0 0 1 I I #
point $-1 -5.1033064739601386 24.165210892741484 6.7661389018705709 #
loop $-1 $-1 $222 $214 #
plane-surface $-1 0 27.192484724788407 0 0 -1 0 0 0 -1 forward_v I I I I #
coedge $-1 $336 $217 $219 $340 reversed $126 $-1 #
coedge $-1 $217 $335 $417 $418 reversed $126 $-1 #
coedge $-1 $225 $220 $217 $338 forward $215 $-1 #
edge $-1 $341 -9.9643605900508661 $419 -3.9098129259570449 $337 $420 forward 7 unknown #
coedge $-1 $219 $218 $344 $421 reversed $78 $-1 #
edge $-1 $422 -54.384969449576801 $341 -44.324489832138696 $335 $423 forward 7 unknown #
vertex $-1 $221 $424 #
straight-curve $-1 3.3016532369800657 21.137937060694583 10.783467078535512 1 0 0 I I #
coedge $-1 $417 $222 $225 $348 reversed $333 $-1 #
coedge $-1 $222 $417 $339 $421 forward $333 $-1 #
vertex $-1 $223 $425 #
straight-curve $-1 2.9524883553188097 27.192484724788407 48.614843258557336 0 0 1 I I #
straight-curve $-1 2.9524883553188097 -5.5372063300997709 46.18257898773355 0 0.60181501223851219 -0.79863551827123203 I I #
edge $-1 $419 -10.254124592601453 $226 -2.9524883553188097 $343 $426 forward 7 unknown #
point $-1 2.9524883553188097 27.192484724788407 10.78346707853551 #
point $-1 2.9524883553188097 21.137937060694586 10.783467078535509 #
edge $-1 $427 1 $427 0 $229 $-1 forward 7 unknown #
vertex $-1 $230 $428 #
ellipse-curve $-1 6.6033064739601386 21.435696633336658 4.7093024353624182 0 0.79863551827123203 0.60181501223851219 1.5 0 0 1 I I #
point $-1 8.1033064739601386 24.165210892741484 6.7661389018705709 #
plane-surface $-1 42.410962248603781 0 0 -1 0 0 0 0 1 forward_v I I I I #
coedge $-1 $238 $236 $240 $360 reversed $141 $-1 #
edge $-1 $251 -10.78346707853551 $362 10.78346707853551 $250 $429 forward 7 unknown #
vertex $-1 $360 $430 #
straight-curve $-1 -42.410962248603781 -27.192484724788407 0 0 0 -1 I I #
edge $-1 $358 -27.192484724788407 $362 27.192484724788407 $356 $431 forward 7 unknown #
straight-curve $-1 0 -27.192484724788407 -10.78346707853551 -1 0 0 I I #
vertex $-1 $243 $432 #
straight-curve $-1 0 27.192484724788407 -10.78346707853551 1 0 0 I I #
point $-1 42.410962248603781 27.192484724788407 -10.78346707853551 #
point $-1 42.410962248603781 -27.192484724788407 -10.78346707853551 #
straight-curve $-1 -42.410962248603781 0 10.78346707853551 0 -1 0 I I #
point $-1 -42.410962248603781 27.192484724788407 10.78346707853551 #
point $-1 -42.410962248603781 -27.192484724788407 10.78346707853551 #
straight-curve $-1 42.410962248603781 -27.192484724788407 0 0 0 -1 I I #
straight-curve $-1 42.410962248603781 27.192484724788407 0 0 0 -1 I I #
plane-surface $-1 -42.410962248603781 0 0 1 0 0 0 0 -1 forward_v I I I I #
edge $-1 $272 5.266827253334025 $276 10.172256605402712 $275 $433 forward 7 unknown #
edge $-1 $280 -10.172256605402712 $271 -5.266827253334025 $278 $434 forward 7 unknown #
straight-curve $-1 -30.795818585022587 -17.89179853477108 0 0 0 -1 I I #
edge $-1 $378 -10.78346707853551 $376 10.78346707853551 $282 $435 forward 7 unknown #
vertex $-1 $375 $436 #
straight-curve $-1 -18.301695208406592 -12.986369182702393 -10.78346707853551 1 0 0 I I #
vertex $-1 $283 $437 #
straight-curve $-1 -18.301695208406592 -12.986369182702393 10.78346707853551 -1 0 0 I I #
point $-1 -30.795818585022587 -12.986369182702393 10.78346707853551 #
point $-1 -30.795818585022587 -12.986369182702393 -10.78346707853551 #
point $-1 -30.795818585022587 -17.89179853477108 -10.78346707853551 #
point $-1 -30.795818585022587 -17.89179853477108 10.78346707853551 #
straight-curve $-1 -42.410962248603781 0 10.78346707853551 0 -1 0 I I #
straight-curve $-1 -42.410962248603781 0 -10.78346707853551 0 1 0 I I #
loop $-1 $-1 $301 $287 #
plane-surface $-1 42.410962248603781 0 0 -1 0 0 0 0 1 forward_v I I I I #
coedge $-1 $303 $294 $290 $389 forward $179 $-1 #
edge $-1 $299 12.494123376615995 $394 24.109267040197189 $388 $438 forward 7 unknown #
coedge $-1 $296 $306 $291 $391 forward $288 $-1 #
edge $-1 $395 -24.109267040197189 $298 -12.494123376615995 $390 $439 forward 7 unknown #
coedge $-1 $301 $292 $306 $404 reversed $386 $-1 #
coedge $-1 $292 $301 $303 $402 reversed $386 $-1 #
vertex $-1 $402 $440 #
vertex $-1 $293 $441 #
straight-curve $-1 42.410962248603781 -12.986369182702393 0 0 0 1 I I #
straight-curve $-1 30.795818585022587 -7.7195419293683685 -10.78346707853551 0 1 0 I I #
straight-curve $-1 30.795818585022587 -7.7195419293683685 10.78346707853551 0 -1 0 I I #
point $-1 30.795818585022587 -12.986369182702393 10.78346707853551 #
point $-1 30.795818585022587 -12.986369182702393 -10.78346707853551 #
straight-curve $-1 42.410962248603781 -17.89179853477108 0 0 0 -1 I I #
edge $-1 $394 12.986369182702393 $304 17.89179853477108 $393 $442 forward 7 unknown #
point $-1 42.410962248603781 -17.89179853477108 -10.78346707853551 #
edge $-1 $307 -17.89179853477108 $395 -12.986369182702393 $392 $443 forward 7 unknown #
point $-1 42.410962248603781 -17.89179853477108 10.78346707853551 #
edge $-1 $407 37.831376180021827 $410 45.866032533351678 $312 $444 forward 7 unknown #
vertex $-1 $326 $445 #
straight-curve $-1 -2.9524883553188239 31.102297650745452 10.783467078535509 0 1 0 I I #
edge $-1 $410 -0.34916488166124893 $323 6.9524713556213946 $322 $446 forward 7 unknown #
vertex $-1 $409 $447 #
straight-curve $-1 -2.9524883553188239 -5.5372063300997709 46.18257898773355 0 -0.60181501223851219 0.79863551827123203 I I #
point $-1 -2.9524883553188239 21.137937060694586 10.783467078535509 #
point $-1 -10.254124592601467 27.192484724788407 2.7488107252056579 #
straight-curve $-1 0 27.192484724788407 10.78346707853551 -1 0 0 I I #
vertex $-1 $329 $448 #
point $-1 -5.1033064739601386 21.435696633336658 4.7093024353624182 #
coedge $-1 $344 $343 $336 $418 forward $333 $-1 #
edge $-1 $419 37.831376180021827 $422 45.866032533351678 $417 $449 forward 7 unknown #
vertex $-1 $348 $450 #
straight-curve $-1 10.254124592601453 31.102297650745452 10.783467078535509 0 1 0 I I #
edge $-1 $422 -6.9524713556213875 $345 0.34916488166125603 $344 $451 forward 7 unknown #
vertex $-1 $421 $452 #
straight-curve $-1 10.254124592601453 -5.5372063300997709 46.18257898773355 0 -0.60181501223851219 0.79863551827123203 I I #
point $-1 10.254124592601453 21.137937060694586 10.783467078535509 #
point $-1 2.9524883553188097 27.192484724788407 2.7488107252056579 #
straight-curve $-1 0 27.192484724788407 10.78346707853551 -1 0 0 I I #
vertex $-1 $351 $453 #
point $-1 8.1033064739601386 21.435696633336658 4.7093024353624182 #
straight-curve $-1 -42.410962248603781 27.192484724788407 0 0 0 -1 I I #
point $-1 -42.410962248603781 -27.192484724788407 -10.78346707853551 #
straight-curve $-1 -42.410962248603781 0 -10.78346707853551 0 1 0 I I #
point $-1 -42.410962248603781 27.192484724788407 -10.78346707853551 #
straight-curve $-1 -30.795818585022587 -7.7195419293683685 -10.78346707853551 0 -1 0 I I #
straight-curve $-1 -30.795818585022587 -7.7195419293683685 10.78346707853551 0 1 0 I I #
straight-curve $-1 -42.410962248603781 -12.986369182702393 0 0 0 -1 I I #
point $-1 -42.410962248603781 -12.986369182702393 -10.78346707853551 #
point $-1 -42.410962248603781 -12.986369182702393 10.78346707853551 #
straight-curve $-1 18.301695208406592 -12.986369182702393 -10.78346707853551 1 0 0 I I #
straight-curve $-1 18.301695208406592 -12.986369182702393 10.78346707853551 -1 0 0 I I #
point $-1 42.410962248603781 -12.986369182702393 -10.78346707853551 #
point $-1 42.410962248603781 -12.986369182702393 10.78346707853551 #
straight-curve $-1 42.410962248603781 0 -10.78346707853551 0 -1 0 I I #
straight-curve $-1 42.410962248603781 0 10.78346707853551 0 1 0 I I #
straight-curve $-1 -2.9524883553188239 27.192484724788407 48.614843258557336 0 0 -1 I I #
point $-1 -2.9524883553188239 27.192484724788407 10.78346707853551 #
straight-curve $-1 -3.3016532369800728 27.192484724788407 2.7488107252056508 -1 0 0 I I #
point $-1 -2.9524883553188239 27.192484724788407 2.7488107252056579 #
point $-1 -6.6033064739601386 20.237743355929812 3.8065799170046501 #
straight-curve $-1 10.254124592601453 27.192484724788407 48.614843258557336 0 0 -1 I I #
point $-1 10.254124592601453 27.192484724788407 10.78346707853551 #
straight-curve $-1 3.3016532369800657 27.192484724788407 2.7488107252056508 -1 0 0 I I #
point $-1 10.254124592601453 27.192484724788407 2.7488107252056579 #
point $-1 6.6033064739601386 20.237743355929812 3.8065799170046501 #
End-of-ACIS-data 