500 0 17 0           
7 Unknown 11 ACIS 5.0 NT 24 Thu Mar 25 17:11:45 1999 
-1 9.9999999999999995e-007 1e-010 
body $-1 $17 $-1 $18 #
body $-1 $19 $-1 $20 #
body $-1 $21 $-1 $22 #
body $-1 $23 $-1 $24 #
body $-1 $25 $-1 $26 #
body $-1 $27 $-1 $28 #
body $-1 $29 $-1 $30 #
body $-1 $31 $-1 $32 #
body $-1 $33 $-1 $34 #
body $-1 $35 $-1 $36 #
body $-1 $37 $-1 $38 #
body $-1 $39 $-1 $40 #
body $-1 $41 $-1 $42 #
body $-1 $43 $-1 $44 #
body $-1 $45 $-1 $46 #
body $-1 $47 $-1 $48 #
body $-1 $49 $-1 $50 #
lump $-1 $-1 $51 $0 #
transform $-1 1 0 0 0 1 0 0 0 1 74.881435590685754 32.005203572116883 7.1189527791685752 1 rotate no_reflect no_shear #
lump $-1 $-1 $52 $1 #
transform $-1 1 0 0 0 1 0 0 0 1 74.881435590685754 32.005203572116883 7.1189527791685752 1 rotate no_reflect no_shear #
lump $-1 $-1 $53 $2 #
transform $-1 1 0 0 0 1 0 0 0 1 74.881435590685754 32.005203572116883 7.1189527791685752 1 rotate no_reflect no_shear #
lump $-1 $-1 $54 $3 #
transform $-1 1 0 0 0 1 0 0 0 1 74.881435590685754 32.005203572116883 7.1189527791685752 1 rotate no_reflect no_shear #
lump $-1 $-1 $55 $4 #
transform $-1 1 0 0 0 1 0 0 0 1 74.881435590685754 32.005203572116883 7.1189527791685752 1 rotate no_reflect no_shear #
lump $-1 $-1 $56 $5 #
transform $-1 1 0 0 0 1 0 0 0 1 74.881435590685754 32.005203572116883 7.1189527791685752 1 rotate no_reflect no_shear #
lump $-1 $-1 $57 $6 #
transform $-1 1 0 0 0 1 0 0 0 1 74.881435590685754 32.005203572116883 7.1189527791685752 1 rotate no_reflect no_shear #
lump $-1 $-1 $58 $7 #
transform $-1 1 0 0 0 1 0 0 0 1 74.881435590685754 32.005203572116883 7.1189527791685752 1 rotate no_reflect no_shear #
lump $-1 $-1 $59 $8 #
transform $-1 1 0 0 0 1 0 0 0 1 74.881435590685754 32.005203572116883 7.1189527791685752 1 rotate no_reflect no_shear #
lump $-1 $-1 $60 $9 #
transform $-1 1 0 0 0 1 0 0 0 1 74.881435590685754 32.005203572116883 7.1189527791685752 1 rotate no_reflect no_shear #
lump $-1 $-1 $61 $10 #
transform $-1 1 0 0 0 1 0 0 0 1 74.881435590685754 32.005203572116883 7.1189527791685752 1 rotate no_reflect no_shear #
lump $-1 $-1 $62 $11 #
transform $-1 1 0 0 0 1 0 0 0 1 74.881435590685754 32.005203572116883 7.1189527791685752 1 rotate no_reflect no_shear #
lump $-1 $-1 $63 $12 #
transform $-1 1 0 0 0 1 0 0 0 1 74.881435590685754 32.005203572116883 7.1189527791685752 1 rotate no_reflect no_shear #
lump $-1 $-1 $64 $13 #
transform $-1 1 0 0 0 1 0 0 0 1 74.881435590685754 32.005203572116883 7.1189527791685752 1 rotate no_reflect no_shear #
lump $-1 $-1 $65 $14 #
transform $-1 1 0 0 0 1 0 0 0 1 74.881435590685754 32.005203572116883 7.1189527791685752 1 rotate no_reflect no_shear #
lump $-1 $-1 $66 $15 #
transform $-1 1 0 0 0 1 0 0 0 1 74.881435590685754 32.005203572116883 7.1189527791685752 1 rotate no_reflect no_shear #
lump $-1 $-1 $67 $16 #
transform $-1 1 0 0 0 1 0 0 0 1 74.881435590685754 32.005203572116883 7.1189527791685752 1 rotate no_reflect no_shear #
shell $-1 $-1 $-1 $68 $-1 $17 #
shell $-1 $-1 $-1 $69 $-1 $19 #
shell $-1 $-1 $-1 $70 $-1 $21 #
shell $-1 $-1 $-1 $71 $-1 $23 #
shell $-1 $-1 $-1 $72 $-1 $25 #
shell $-1 $-1 $-1 $73 $-1 $27 #
shell $-1 $-1 $-1 $74 $-1 $29 #
shell $-1 $-1 $-1 $75 $-1 $31 #
shell $-1 $-1 $-1 $76 $-1 $33 #
shell $-1 $-1 $-1 $77 $-1 $35 #
shell $-1 $-1 $-1 $78 $-1 $37 #
shell $-1 $-1 $-1 $79 $-1 $39 #
shell $-1 $-1 $-1 $80 $-1 $41 #
shell $-1 $-1 $-1 $81 $-1 $43 #
shell $-1 $-1 $-1 $82 $-1 $45 #
shell $-1 $-1 $-1 $83 $-1 $47 #
shell $-1 $-1 $-1 $84 $-1 $49 #
face $-1 $85 $86 $51 $-1 $87 forward single #
face $-1 $88 $89 $52 $-1 $90 reversed single #
face $-1 $91 $92 $53 $-1 $93 reversed single #
face $-1 $94 $95 $54 $-1 $96 reversed single #
face $-1 $97 $98 $55 $-1 $99 forward single #
face $-1 $100 $101 $56 $-1 $102 forward single #
face $-1 $103 $104 $57 $-1 $105 reversed single #
face $-1 $106 $107 $58 $-1 $108 forward single #
face $-1 $109 $110 $59 $-1 $111 forward single #
face $-1 $112 $113 $60 $-1 $114 reversed single #
face $-1 $115 $116 $61 $-1 $117 forward single #
face $-1 $118 $119 $62 $-1 $120 forward single #
face $-1 $121 $122 $63 $-1 $123 reversed single #
face $-1 $124 $125 $64 $-1 $126 forward single #
face $-1 $127 $128 $65 $-1 $129 forward single #
face $-1 $130 $131 $66 $-1 $132 reversed single #
face $-1 $133 $134 $67 $-1 $135 forward single #
face $-1 $136 $137 $51 $-1 $138 reversed single #
loop $-1 $-1 $139 $68 #
plane-surface $-1 0 0 7.1189527791685752 0 0 1 1 0 0 forward_v I I I I #
face $-1 $140 $141 $52 $-1 $142 reversed single #
loop $-1 $-1 $143 $69 #
plane-surface $-1 -72.490310859536834 -29.005203572116883 0 0 -1 0 0 0 -1 forward_v I I I I #
face $-1 $144 $145 $53 $-1 $146 reversed single #
loop $-1 $-1 $147 $70 #
plane-surface $-1 70.099186128387913 -30.505203572116883 0 1 0 0 0 0 -1 forward_v I I I I #
face $-1 $148 $149 $54 $-1 $150 reversed single #
loop $-1 $-1 $151 $71 #
plane-surface $-1 -60.996689039903409 -32.005203572116883 2.8112509522790106 0 -0.51503808176128008 0.85716729658548041 1 0 0 forward_v I I I I #
face $-1 $152 $153 $55 $-1 $154 forward single #
loop $-1 $155 $156 $72 #
cone-surface $-1 -64.897759220682474 -26.512514959232149 1.7895255348298642 0 0.51503808176128008 -0.85716729658548041 2 0 0 1 I I 0 1 2 forward I I I I #
face $-1 $157 $158 $56 $-1 $159 forward single #
loop $-1 $160 $161 $73 #
cone-surface $-1 -57.095618859124343 -26.512514959232149 1.7895255348298642 0 0.51503808176128008 -0.85716729658548041 2 0 0 1 I I 0 1 2 forward I I I I #
face $-1 $162 $163 $57 $-1 $164 reversed single #
loop $-1 $-1 $165 $74 #
plane-surface $-1 -11.229732591483305 -109.13878546443216 131.18308637169477 -1 0 0 0 -0.51503808176128008 0.85716729658548041 forward_v I I I I #
face $-1 $166 $167 $58 $-1 $168 forward single #
loop $-1 $169 $170 $75 #
cone-surface $-1 -24.233299860746868 -26.512514959232149 1.7895255348298642 0 0.51503808176128008 -0.85716729658548041 2 0 0 1 I I 0 1 2 forward I I I I #
face $-1 $171 $172 $59 $-1 $173 forward single #
loop $-1 $174 $175 $76 #
cone-surface $-1 -16.43115949918873 -26.512514959232149 1.7895255348298642 0 0.51503808176128008 -0.85716729658548041 2 0 0 1 I I 0 1 2 forward I I I I #
face $-1 $176 $177 $60 $-1 $178 reversed single #
loop $-1 $-1 $179 $77 #
plane-surface $-1 29.4347267684523 -109.13878546443216 131.18308637169477 -1 0 0 0 -0.51503808176128008 0.85716729658548041 forward_v I I I I #
face $-1 $180 $181 $61 $-1 $182 forward single #
loop $-1 $183 $184 $78 #
cone-surface $-1 16.431159499188738 -26.512514959232149 1.7895255348298642 0 0.51503808176128008 -0.85716729658548041 2 0 0 1 I I 0 1 2 forward I I I I #
face $-1 $185 $186 $62 $-1 $187 forward single #
loop $-1 $188 $189 $79 #
cone-surface $-1 24.233299860746882 -26.512514959232149 1.7895255348298642 0 0.51503808176128008 -0.85716729658548041 2 0 0 1 I I 0 1 2 forward I I I I #
face $-1 $190 $191 $63 $-1 $192 reversed single #
loop $-1 $-1 $193 $80 #
plane-surface $-1 60.99668903990343 -32.005203572116883 2.8112509522790106 0 -0.51503808176128008 0.85716729658548041 1 0 0 forward_v I I I I #
face $-1 $194 $195 $64 $-1 $196 forward single #
loop $-1 $197 $198 $81 #
cone-surface $-1 57.095618859124357 -26.512514959232149 1.7895255348298642 0 0.51503808176128008 -0.85716729658548041 2 0 0 1 I I 0 1 2 forward I I I I #
face $-1 $199 $200 $65 $-1 $201 forward single #
loop $-1 $202 $203 $82 #
cone-surface $-1 64.897759220682502 -26.512514959232149 1.7895255348298642 0 0.51503808176128008 -0.85716729658548041 2 0 0 1 I I 0 1 2 forward I I I I #
face $-1 $204 $205 $66 $-1 $206 reversed single #
loop $-1 $-1 $207 $83 #
plane-surface $-1 13.1388289535412 62.684507185237422 162.13179355074703 1 0 0 0 -0.55919291073839883 -0.82903756765294845 forward_v I I I I #
face $-1 $208 $209 $67 $-1 $210 forward single #
loop $-1 $211 $212 $84 #
cone-surface $-1 22.07884448477445 27.844563717423515 3.9098009560519467 0 -0.55919291073839883 -0.82903756765294845 1 0 0 1 I I 0 1 1 forward I I I I #
face $-1 $213 $214 $51 $-1 $215 reversed single #
loop $-1 $-1 $216 $85 #
plane-surface $-1 0 0 -7.1189527791685752 0 0 1 1 0 0 forward_v I I I I #
coedge $-1 $217 $218 $219 $220 forward $86 $-1 #
face $-1 $221 $222 $52 $-1 $223 forward single #
loop $-1 $-1 $224 $88 #
plane-surface $-1 -70.099186128387913 -30.505203572116883 0 -1 0 0 0 0 1 forward_v I I I I #
coedge $-1 $225 $226 $227 $228 forward $89 $-1 #
face $-1 $229 $230 $53 $-1 $231 forward single #
loop $-1 $-1 $232 $91 #
plane-surface $-1 72.490310859536834 -29.005203572116883 0 0 -1 0 0 0 -1 forward_v I I I I #
coedge $-1 $233 $234 $235 $236 forward $92 $-1 #
face $-1 $237 $238 $54 $-1 $239 forward single #
loop $-1 $-1 $240 $94 #
plane-surface $-1 -51.894191951418918 -109.13878546443216 131.18308637169477 -1 0 0 0 -0.51503808176128008 0.85716729658548041 forward_v I I I I #
coedge $-1 $241 $242 $243 $244 reversed $95 $-1 #
face $-1 $-1 $245 $55 $-1 $246 forward single #
loop $-1 $247 $248 $97 #
cone-surface $-1 -64.897759220682474 -24.089398082974974 -2.2432180926495402 0 0.51503808176128008 -0.85716729658548041 1 0 0 1 I I -0.70710678118654768 0.70710678118654735 1 forward I I I I #
loop $-1 $-1 $249 $72 #
coedge $-1 $156 $156 $250 $251 reversed $98 $-1 #
face $-1 $-1 $252 $56 $-1 $253 forward single #
loop $-1 $254 $255 $100 #
cone-surface $-1 -57.095618859124343 -24.089398082974974 -2.2432180926495402 0 0.51503808176128008 -0.85716729658548041 1 0 0 1 I I -0.70710678118654768 0.70710678118654735 1 forward I I I I #
loop $-1 $-1 $256 $73 #
coedge $-1 $161 $161 $257 $258 reversed $101 $-1 #
face $-1 $259 $260 $57 $-1 $261 reversed single #
loop $-1 $-1 $262 $103 #
plane-surface $-1 -20.332229679967796 -32.005203572116883 2.8112509522790106 0 -0.51503808176128008 0.85716729658548041 1 0 0 forward_v I I I I #
coedge $-1 $263 $264 $265 $266 reversed $104 $-1 #
face $-1 $-1 $267 $58 $-1 $268 forward single #
loop $-1 $269 $270 $106 #
cone-surface $-1 -24.233299860746868 -24.089398082974974 -2.2432180926495402 0 0.51503808176128008 -0.85716729658548041 1 0 0 1 I I -0.70710678118654768 0.70710678118654735 1 forward I I I I #
loop $-1 $-1 $271 $75 #
coedge $-1 $170 $170 $272 $273 reversed $107 $-1 #
face $-1 $-1 $274 $59 $-1 $275 forward single #
loop $-1 $276 $277 $109 #
cone-surface $-1 -16.43115949918873 -24.089398082974974 -2.2432180926495402 0 0.51503808176128008 -0.85716729658548041 1 0 0 1 I I -0.70710678118654768 0.70710678118654735 1 forward I I I I #
loop $-1 $-1 $278 $76 #
coedge $-1 $175 $175 $279 $280 reversed $110 $-1 #
face $-1 $281 $282 $60 $-1 $283 reversed single #
loop $-1 $-1 $284 $112 #
plane-surface $-1 20.33222967996781 -32.005203572116883 2.8112509522790106 0 -0.51503808176128008 0.85716729658548041 1 0 0 forward_v I I I I #
coedge $-1 $285 $286 $287 $288 reversed $113 $-1 #
face $-1 $-1 $289 $61 $-1 $290 forward single #
loop $-1 $291 $292 $115 #
cone-surface $-1 16.431159499188738 -24.089398082974974 -2.2432180926495402 0 0.51503808176128008 -0.85716729658548041 1 0 0 1 I I -0.70710678118654768 0.70710678118654735 1 forward I I I I #
loop $-1 $-1 $293 $78 #
coedge $-1 $184 $184 $294 $295 reversed $116 $-1 #
face $-1 $-1 $296 $62 $-1 $297 forward single #
loop $-1 $298 $299 $118 #
cone-surface $-1 24.233299860746882 -24.089398082974974 -2.2432180926495402 0 0.51503808176128008 -0.85716729658548041 1 0 0 1 I I -0.70710678118654768 0.70710678118654735 1 forward I I I I #
loop $-1 $-1 $300 $79 #
coedge $-1 $189 $189 $301 $302 reversed $119 $-1 #
face $-1 $303 $304 $63 $-1 $305 forward single #
loop $-1 $-1 $306 $121 #
plane-surface $-1 51.894191951418939 -109.13878546443216 131.18308637169477 1 0 0 0 0.51503808176128008 -0.85716729658548041 forward_v I I I I #
coedge $-1 $307 $308 $309 $310 reversed $122 $-1 #
face $-1 $-1 $311 $64 $-1 $312 forward single #
loop $-1 $313 $314 $124 #
cone-surface $-1 57.095618859124357 -24.089398082974974 -2.2432180926495402 0 0.51503808176128008 -0.85716729658548041 1 0 0 1 I I -0.70710678118654768 0.70710678118654735 1 forward I I I I #
loop $-1 $-1 $315 $81 #
coedge $-1 $198 $198 $316 $317 reversed $125 $-1 #
face $-1 $-1 $318 $65 $-1 $319 forward single #
loop $-1 $320 $321 $127 #
cone-surface $-1 64.897759220682502 -24.089398082974974 -2.2432180926495402 0 0.51503808176128008 -0.85716729658548041 1 0 0 1 I I -0.70710678118654768 0.70710678118654735 1 forward I I I I #
loop $-1 $-1 $322 $82 #
coedge $-1 $203 $203 $323 $324 reversed $128 $-1 #
face $-1 $325 $326 $66 $-1 $327 reversed single #
loop $-1 $-1 $328 $130 #
plane-surface $-1 22.078844484774464 -21.061828671213576 37.972747101820943 0 0.55919291073839883 0.82903756765294845 1 0 0 forward_v I I I I #
coedge $-1 $329 $330 $331 $332 reversed $131 $-1 #
face $-1 $-1 $333 $67 $-1 $334 forward single #
loop $-1 $335 $336 $133 #
cone-surface $-1 22.07884448477445 27.066528364873115 2.7563161320496956 0 -0.55919291073839883 -0.82903756765294845 0.5 0 0 1 I I -0.70710678118654746 0.70710678118654746 0.5 forward I I I I #
loop $-1 $-1 $337 $84 #
coedge $-1 $212 $212 $338 $339 reversed $134 $-1 #
face $-1 $340 $341 $51 $-1 $342 reversed single #
loop $-1 $-1 $343 $136 #
plane-surface $-1 0 -32.005203572116883 0 0 1 0 0 0 1 forward_v I I I I #
coedge $-1 $344 $345 $346 $347 forward $137 $-1 #
coedge $-1 $348 $139 $349 $350 forward $86 $-1 #
coedge $-1 $139 $348 $351 $352 forward $86 $-1 #
coedge $-1 $353 $354 $139 $220 reversed $355 $-1 #
edge $-1 $356 -32.005203572116883 $357 32.005203572116883 $219 $358 forward 7 unknown #
face $-1 $359 $360 $52 $-1 $361 reversed single #
loop $-1 $-1 $362 $140 #
plane-surface $-1 0 0 7.1189527791685752 0 0 1 1 0 0 forward_v I I I I #
coedge $-1 $363 $364 $365 $366 reversed $141 $-1 #
coedge $-1 $367 $143 $368 $369 reversed $89 $-1 #
coedge $-1 $143 $367 $370 $371 reversed $89 $-1 #
coedge $-1 $364 $363 $143 $228 reversed $141 $-1 #
edge $-1 $372 -7.1189527791685752 $373 7.1189527791685752 $227 $374 forward 7 unknown #
face $-1 $375 $376 $53 $-1 $377 reversed single #
loop $-1 $-1 $378 $144 #
plane-surface $-1 0 0 7.1189527791685752 0 0 1 1 0 0 forward_v I I I I #
coedge $-1 $379 $380 $381 $382 reversed $145 $-1 #
coedge $-1 $383 $147 $384 $385 reversed $92 $-1 #
coedge $-1 $147 $383 $386 $387 reversed $92 $-1 #
coedge $-1 $380 $379 $147 $236 reversed $145 $-1 #
edge $-1 $388 -7.1189527791685752 $389 7.1189527791685752 $235 $390 forward 7 unknown #
face $-1 $391 $392 $54 $-1 $393 reversed single #
loop $-1 $-1 $394 $148 #
plane-surface $-1 -70.099186128387913 -30.505203572116883 0 -1 0 0 0 0 1 forward_v I I I I #
coedge $-1 $395 $396 $397 $398 reversed $149 $-1 #
coedge $-1 $399 $151 $394 $400 reversed $95 $-1 #
coedge $-1 $151 $399 $395 $401 forward $95 $-1 #
coedge $-1 $397 $402 $151 $244 forward $392 $-1 #
edge $-1 $403 -39.600841608436212 $404 -21.395847431467214 $243 $405 forward 7 unknown #
loop $-1 $-1 $250 $152 #
plane-surface $-1 -60.996689039903409 -32.005203572116883 2.8112509522790106 0 -0.51503808176128008 0.85716729658548041 1 0 0 forward_v I I I I #
loop $-1 $-1 $406 $97 #
coedge $-1 $248 $248 $249 $407 reversed $153 $-1 #
coedge $-1 $249 $249 $248 $407 forward $155 $-1 #
coedge $-1 $250 $250 $156 $251 forward $245 $-1 #
edge $-1 $408 -5.3587070314868835e-016 $408 6.2831853071795996 $250 $409 forward 7 unknown #
loop $-1 $-1 $257 $157 #
plane-surface $-1 -60.996689039903409 -32.005203572116883 2.8112509522790106 0 -0.51503808176128008 0.85716729658548041 1 0 0 forward_v I I I I #
loop $-1 $-1 $410 $100 #
coedge $-1 $255 $255 $256 $411 reversed $158 $-1 #
coedge $-1 $256 $256 $255 $411 forward $160 $-1 #
coedge $-1 $257 $257 $161 $258 forward $252 $-1 #
edge $-1 $412 -5.3587070314868835e-016 $412 6.2831853071795996 $257 $413 forward 7 unknown #
face $-1 $414 $415 $57 $-1 $416 reversed single #
loop $-1 $-1 $417 $162 #
plane-surface $-1 -29.434726768452286 -109.13878546443216 131.18308637169477 1 0 0 0 0.51503808176128008 -0.85716729658548041 forward_v I I I I #
coedge $-1 $418 $419 $420 $421 reversed $163 $-1 #
coedge $-1 $264 $165 $422 $423 reversed $104 $-1 #
coedge $-1 $165 $263 $418 $424 reversed $104 $-1 #
coedge $-1 $420 $425 $165 $266 forward $426 $-1 #
edge $-1 $427 22.564189160099197 $428 29.733408796876851 $265 $429 forward 7 unknown #
loop $-1 $-1 $272 $166 #
plane-surface $-1 -20.332229679967796 -32.005203572116883 2.8112509522790106 0 -0.51503808176128008 0.85716729658548041 1 0 0 forward_v I I I I #
loop $-1 $-1 $430 $106 #
coedge $-1 $270 $270 $271 $431 reversed $167 $-1 #
coedge $-1 $271 $271 $270 $431 forward $169 $-1 #
coedge $-1 $272 $272 $170 $273 forward $267 $-1 #
edge $-1 $432 -5.3587070314868835e-016 $432 6.2831853071795996 $272 $433 forward 7 unknown #
loop $-1 $-1 $279 $171 #
plane-surface $-1 -20.332229679967796 -32.005203572116883 2.8112509522790106 0 -0.51503808176128008 0.85716729658548041 1 0 0 forward_v I I I I #
loop $-1 $-1 $434 $109 #
coedge $-1 $277 $277 $278 $435 reversed $172 $-1 #
coedge $-1 $278 $278 $277 $435 forward $174 $-1 #
coedge $-1 $279 $279 $175 $280 forward $274 $-1 #
edge $-1 $436 -5.3587070314868835e-016 $436 6.2831853071795996 $279 $437 forward 7 unknown #
face $-1 $438 $439 $60 $-1 $440 reversed single #
loop $-1 $-1 $441 $176 #
plane-surface $-1 11.229732591483319 -109.13878546443216 131.18308637169477 1 0 0 0 0.51503808176128008 -0.85716729658548041 forward_v I I I I #
coedge $-1 $442 $443 $444 $445 reversed $177 $-1 #
coedge $-1 $286 $179 $446 $447 reversed $113 $-1 #
coedge $-1 $179 $285 $442 $448 reversed $113 $-1 #
coedge $-1 $444 $449 $179 $288 forward $450 $-1 #
edge $-1 $451 22.564189160099197 $452 29.733408796876851 $287 $453 forward 7 unknown #
loop $-1 $-1 $294 $180 #
plane-surface $-1 20.33222967996781 -32.005203572116883 2.8112509522790106 0 -0.51503808176128008 0.85716729658548041 1 0 0 forward_v I I I I #
loop $-1 $-1 $454 $115 #
coedge $-1 $292 $292 $293 $455 reversed $181 $-1 #
coedge $-1 $293 $293 $292 $455 forward $183 $-1 #
coedge $-1 $294 $294 $184 $295 forward $289 $-1 #
edge $-1 $456 -5.3587070314868835e-016 $456 6.2831853071795996 $294 $457 forward 7 unknown #
loop $-1 $-1 $301 $185 #
plane-surface $-1 20.33222967996781 -32.005203572116883 2.8112509522790106 0 -0.51503808176128008 0.85716729658548041 1 0 0 forward_v I I I I #
loop $-1 $-1 $458 $118 #
coedge $-1 $299 $299 $300 $459 reversed $186 $-1 #
coedge $-1 $300 $300 $299 $459 forward $188 $-1 #
coedge $-1 $301 $301 $189 $302 forward $296 $-1 #
edge $-1 $460 -5.3587070314868835e-016 $460 6.2831853071795996 $301 $461 forward 7 unknown #
face $-1 $462 $463 $63 $-1 $464 reversed single #
loop $-1 $-1 $465 $190 #
plane-surface $-1 0 0 7.1189527791685752 0 0 1 1 0 0 forward_v I I I I #
coedge $-1 $466 $467 $468 $469 reversed $191 $-1 #
coedge $-1 $470 $193 $471 $472 reversed $122 $-1 #
coedge $-1 $193 $470 $466 $473 forward $122 $-1 #
coedge $-1 $468 $465 $193 $310 forward $304 $-1 #
edge $-1 $474 -39.600841608436198 $475 -21.395847431467224 $309 $476 forward 7 unknown #
loop $-1 $-1 $316 $194 #
plane-surface $-1 60.99668903990343 -32.005203572116883 2.8112509522790106 0 -0.51503808176128008 0.85716729658548041 1 0 0 forward_v I I I I #
loop $-1 $-1 $477 $124 #
coedge $-1 $314 $314 $315 $478 reversed $195 $-1 #
coedge $-1 $315 $315 $314 $478 forward $197 $-1 #
coedge $-1 $316 $316 $198 $317 forward $311 $-1 #
edge $-1 $479 -5.3587070314868835e-016 $479 6.2831853071795996 $316 $480 forward 7 unknown #
loop $-1 $-1 $323 $199 #
plane-surface $-1 60.99668903990343 -32.005203572116883 2.8112509522790106 0 -0.51503808176128008 0.85716729658548041 1 0 0 forward_v I I I I #
loop $-1 $-1 $481 $127 #
coedge $-1 $321 $321 $322 $482 reversed $200 $-1 #
coedge $-1 $322 $322 $321 $482 forward $202 $-1 #
coedge $-1 $323 $323 $203 $324 forward $318 $-1 #
edge $-1 $483 -5.3587070314868835e-016 $483 6.2831853071795996 $323 $484 forward 7 unknown #
face $-1 $485 $486 $66 $-1 $487 reversed single #
loop $-1 $-1 $488 $204 #
plane-surface $-1 31.018860016007729 62.684507185237422 162.13179355074703 -1 0 0 0 0.55919291073839883 0.82903756765294845 forward_v I I I I #
coedge $-1 $489 $490 $491 $492 reversed $205 $-1 #
coedge $-1 $330 $207 $493 $494 reversed $131 $-1 #
coedge $-1 $207 $329 $489 $495 reversed $131 $-1 #
coedge $-1 $491 $496 $207 $332 forward $497 $-1 #
edge $-1 $498 -0.66294997949817258 $499 6.6614519355261521 $331 $500 forward 7 unknown #
loop $-1 $-1 $338 $208 #
plane-surface $-1 22.078844484774464 -21.061828671213576 37.972747101820943 0 0.55919291073839883 0.82903756765294845 1 0 0 forward_v I I I I #
loop $-1 $-1 $501 $133 #
coedge $-1 $336 $336 $337 $502 reversed $209 $-1 #
coedge $-1 $337 $337 $336 $502 forward $211 $-1 #
coedge $-1 $338 $338 $212 $339 forward $333 $-1 #
edge $-1 $503 5.3130842352988438e-016 $503 6.2831853071796013 $338 $504 forward 7 unknown #
face $-1 $505 $506 $51 $-1 $507 reversed single #
loop $-1 $-1 $508 $213 #
plane-surface $-1 -74.881435590685754 0 0 1 0 0 0 0 -1 forward_v I I I I #
coedge $-1 $509 $351 $510 $511 forward $214 $-1 #
coedge $-1 $512 $216 $509 $513 forward $137 $-1 #
coedge $-1 $216 $512 $514 $515 forward $137 $-1 #
coedge $-1 $354 $353 $216 $347 reversed $355 $-1 #
edge $-1 $516 -32.005203572116883 $517 32.005203572116883 $346 $518 forward 7 unknown #
coedge $-1 $218 $217 $519 $520 forward $86 $-1 #
coedge $-1 $521 $522 $217 $350 reversed $506 $-1 #
edge $-1 $357 -74.881435590685754 $523 74.881435590685754 $349 $524 forward 7 unknown #
coedge $-1 $343 $525 $218 $352 reversed $214 $-1 #
edge $-1 $526 -74.881435590685754 $356 74.881435590685754 $351 $527 forward 7 unknown #
coedge $-1 $346 $219 $525 $528 forward $355 $-1 #
coedge $-1 $219 $346 $521 $529 reversed $355 $-1 #
loop $-1 $-1 $353 $505 #
vertex $-1 $220 $530 #
vertex $-1 $220 $531 #
straight-curve $-1 74.881435590685754 0 7.1189527791685752 0 1 0 I I #
face $-1 $532 $533 $52 $-1 $534 reversed single #
loop $-1 $-1 $535 $221 #
plane-surface $-1 -74.881435590685754 0 0 1 0 0 0 0 -1 forward_v I I I I #
coedge $-1 $370 $536 $364 $537 forward $222 $-1 #
coedge $-1 $227 $224 $538 $539 reversed $141 $-1 #
coedge $-1 $224 $227 $362 $537 reversed $141 $-1 #
coedge $-1 $540 $541 $224 $366 forward $542 $-1 #
edge $-1 $543 -7.1189527791685752 $544 7.1189527791685752 $365 $545 forward 7 unknown #
coedge $-1 $226 $225 $535 $546 reversed $89 $-1 #
coedge $-1 $538 $547 $225 $369 forward $533 $-1 #
edge $-1 $548 -38.636280160917337 $373 -33.854030698619496 $368 $549 forward 7 unknown #
coedge $-1 $550 $362 $226 $371 forward $222 $-1 #
edge $-1 $372 33.854030698619496 $551 38.636280160917337 $370 $552 forward 7 unknown #
vertex $-1 $371 $553 #
vertex $-1 $369 $554 #
straight-curve $-1 -70.099186128387913 -29.005203572116883 0 0 0 -1 I I #
face $-1 $555 $556 $53 $-1 $557 reversed single #
loop $-1 $-1 $558 $229 #
plane-surface $-1 0 -32.005203572116883 0 0 1 0 0 0 1 forward_v I I I I #
coedge $-1 $386 $559 $380 $560 forward $230 $-1 #
coedge $-1 $235 $232 $561 $562 reversed $145 $-1 #
coedge $-1 $232 $235 $378 $560 reversed $145 $-1 #
coedge $-1 $563 $564 $232 $382 forward $565 $-1 #
edge $-1 $566 -7.1189527791685752 $567 7.1189527791685752 $381 $568 forward 7 unknown #
coedge $-1 $234 $233 $558 $569 reversed $92 $-1 #
coedge $-1 $561 $570 $233 $385 forward $556 $-1 #
edge $-1 $571 -16.752601786058442 $389 -13.752601786058442 $384 $572 forward 7 unknown #
coedge $-1 $573 $378 $234 $387 forward $230 $-1 #
edge $-1 $388 13.752601786058442 $574 16.752601786058442 $386 $575 forward 7 unknown #
vertex $-1 $387 $576 #
vertex $-1 $385 $577 #
straight-curve $-1 70.099186128387913 -29.005203572116883 0 0 0 -1 I I #
face $-1 $-1 $578 $54 $-1 $579 forward single #
loop $-1 $-1 $243 $237 #
plane-surface $-1 0 -32.005203572116883 0 0 1 0 0 0 1 forward_v I I I I #
coedge $-1 $580 $581 $241 $400 forward $238 $-1 #
coedge $-1 $396 $240 $242 $401 reversed $149 $-1 #
coedge $-1 $240 $395 $582 $583 reversed $149 $-1 #
coedge $-1 $584 $243 $240 $398 forward $392 $-1 #
edge $-1 $404 -62.780292233568375 $585 -58.472590406678812 $397 $586 forward 7 unknown #
coedge $-1 $242 $241 $587 $588 reversed $95 $-1 #
edge $-1 $589 -8.4449262768715716 $403 -0.081075176466566395 $394 $590 forward 7 unknown #
edge $-1 $591 -8.3638511004050056 $404 0 $395 $592 forward 7 unknown #
coedge $-1 $243 $584 $580 $593 forward $392 $-1 #
vertex $-1 $244 $594 #
vertex $-1 $244 $595 #
straight-curve $-1 -30.498344519951704 -32.005203572116883 2.8112509522790106 1 0 0 I I #
coedge $-1 $406 $406 $-1 $596 reversed $247 $-1 #
edge $-1 $597 0 $597 6.2831853071796004 $248 $598 forward 7 unknown #
vertex $-1 $251 $599 #
ellipse-curve $-1 -64.897759220682474 -28.420593753728053 4.9651018657237964 0 -0.51503808176128008 0.85716729658548041 2 0 0 1 I I #
coedge $-1 $410 $410 $-1 $600 reversed $254 $-1 #
edge $-1 $601 0 $601 6.2831853071796004 $255 $602 forward 7 unknown #
vertex $-1 $258 $603 #
ellipse-curve $-1 -57.095618859124343 -28.420593753728053 4.9651018657237964 0 -0.51503808176128008 0.85716729658548041 2 0 0 1 I I #
face $-1 $-1 $426 $57 $-1 $604 forward single #
loop $-1 $-1 $605 $259 #
plane-surface $-1 0 -32.005203572116883 0 0 1 0 0 0 1 forward_v I I I I #
coedge $-1 $606 $607 $608 $609 reversed $260 $-1 #
coedge $-1 $610 $262 $264 $424 forward $163 $-1 #
coedge $-1 $262 $610 $606 $611 forward $163 $-1 #
coedge $-1 $608 $265 $262 $421 forward $426 $-1 #
edge $-1 $428 1.0636177514994074 $612 19.268611928468388 $420 $613 forward 7 unknown #
coedge $-1 $614 $615 $263 $423 forward $415 $-1 #
edge $-1 $616 -62.780292233568375 $427 -58.472590406678812 $422 $617 forward 7 unknown #
edge $-1 $428 -8.3638511004050056 $616 0 $264 $618 forward 7 unknown #
coedge $-1 $265 $608 $614 $619 forward $426 $-1 #
loop $-1 $-1 $608 $414 #
vertex $-1 $423 $620 #
vertex $-1 $266 $621 #
straight-curve $-1 -11.229732591483305 -54.56939273221608 7.1189527791685734 0 1 0 I I #
coedge $-1 $430 $430 $-1 $622 reversed $269 $-1 #
edge $-1 $623 0 $623 6.2831853071796004 $270 $624 forward 7 unknown #
vertex $-1 $273 $625 #
ellipse-curve $-1 -24.233299860746868 -28.420593753728053 4.9651018657237964 0 -0.51503808176128008 0.85716729658548041 2 0 0 1 I I #
coedge $-1 $434 $434 $-1 $626 reversed $276 $-1 #
edge $-1 $627 0 $627 6.2831853071796004 $277 $628 forward 7 unknown #
vertex $-1 $280 $629 #
ellipse-curve $-1 -16.43115949918873 -28.420593753728053 4.9651018657237964 0 -0.51503808176128008 0.85716729658548041 2 0 0 1 I I #
face $-1 $-1 $450 $60 $-1 $630 forward single #
loop $-1 $-1 $631 $281 #
plane-surface $-1 0 -32.005203572116883 0 0 1 0 0 0 1 forward_v I I I I #
coedge $-1 $632 $633 $634 $635 reversed $282 $-1 #
coedge $-1 $636 $284 $286 $448 forward $177 $-1 #
coedge $-1 $284 $636 $632 $637 forward $177 $-1 #
coedge $-1 $634 $287 $284 $445 forward $450 $-1 #
edge $-1 $452 -19.268611928468395 $638 -1.0636177514994145 $444 $639 forward 7 unknown #
coedge $-1 $640 $641 $285 $447 forward $439 $-1 #
edge $-1 $642 -62.780292233568375 $451 -58.472590406678812 $446 $643 forward 7 unknown #
edge $-1 $452 -8.3638511004050056 $642 0 $286 $644 forward 7 unknown #
coedge $-1 $287 $634 $640 $645 forward $450 $-1 #
loop $-1 $-1 $634 $438 #
vertex $-1 $447 $646 #
vertex $-1 $288 $647 #
straight-curve $-1 29.4347267684523 -54.56939273221608 7.1189527791685734 0 1 0 I I #
coedge $-1 $454 $454 $-1 $648 reversed $291 $-1 #
edge $-1 $649 0 $649 6.2831853071796004 $292 $650 forward 7 unknown #
vertex $-1 $295 $651 #
ellipse-curve $-1 16.431159499188738 -28.420593753728053 4.9651018657237964 0 -0.51503808176128008 0.85716729658548041 2 0 0 1 I I #
coedge $-1 $458 $458 $-1 $652 reversed $298 $-1 #
edge $-1 $653 0 $653 6.2831853071796004 $299 $654 forward 7 unknown #
vertex $-1 $302 $655 #
ellipse-curve $-1 24.233299860746882 -28.420593753728053 4.9651018657237964 0 -0.51503808176128008 0.85716729658548041 2 0 0 1 I I #
face $-1 $-1 $656 $63 $-1 $657 forward single #
loop $-1 $-1 $658 $303 #
plane-surface $-1 0 -32.005203572116883 0 0 1 0 0 0 1 forward_v I I I I #
coedge $-1 $309 $659 $660 $661 forward $304 $-1 #
coedge $-1 $467 $306 $308 $473 reversed $191 $-1 #
coedge $-1 $306 $466 $658 $662 reversed $191 $-1 #
coedge $-1 $659 $309 $306 $469 forward $304 $-1 #
edge $-1 $475 -29.733408796876851 $663 -22.564189160099197 $468 $664 forward 7 unknown #
coedge $-1 $308 $307 $665 $666 reversed $122 $-1 #
coedge $-1 $660 $667 $307 $472 forward $656 $-1 #
edge $-1 $668 0.081075176466566395 $474 8.4449262768715716 $471 $669 forward 7 unknown #
edge $-1 $670 0 $475 8.3638511004050056 $466 $671 forward 7 unknown #
vertex $-1 $310 $672 #
vertex $-1 $310 $673 #
straight-curve $-1 30.498344519951715 -24.835983935339232 7.1189527791685752 -1 0 0 I I #
coedge $-1 $477 $477 $-1 $674 reversed $313 $-1 #
edge $-1 $675 0 $675 6.2831853071796004 $314 $676 forward 7 unknown #
vertex $-1 $317 $677 #
ellipse-curve $-1 57.095618859124357 -28.420593753728053 4.9651018657237964 0 -0.51503808176128008 0.85716729658548041 2 0 0 1 I I #
coedge $-1 $481 $481 $-1 $678 reversed $320 $-1 #
edge $-1 $679 0 $679 6.2831853071796004 $321 $680 forward 7 unknown #
vertex $-1 $324 $681 #
ellipse-curve $-1 64.897759220682502 -28.420593753728053 4.9651018657237964 0 -0.51503808176128008 0.85716729658548041 2 0 0 1 I I #
face $-1 $-1 $497 $66 $-1 $682 forward single #
loop $-1 $-1 $683 $325 #
plane-surface $-1 0 32.005203572116883 0 0 -1 0 0 0 -1 forward_v I I I I #
coedge $-1 $684 $685 $686 $687 reversed $326 $-1 #
coedge $-1 $688 $328 $330 $495 forward $205 $-1 #
coedge $-1 $328 $688 $684 $689 forward $205 $-1 #
coedge $-1 $686 $331 $328 $492 forward $497 $-1 #
edge $-1 $499 2.0994067111539678 $690 19.979437773620496 $491 $691 forward 7 unknown #
coedge $-1 $692 $693 $329 $494 forward $486 $-1 #
edge $-1 $694 -78.887315562086656 $498 -73.946943996204936 $493 $695 forward 7 unknown #
edge $-1 $499 55.175582040034769 $694 64.010407144233753 $330 $696 forward 7 unknown #
coedge $-1 $331 $686 $692 $697 forward $497 $-1 #
loop $-1 $-1 $686 $485 #
vertex $-1 $494 $698 #
vertex $-1 $332 $699 #
straight-curve $-1 13.1388289535412 31.342253592618711 7.1189527791685805 0 -1 0 I I #
coedge $-1 $501 $501 $-1 $700 reversed $335 $-1 #
edge $-1 $701 0 $701 6.2831853071796004 $336 $702 forward 7 unknown #
vertex $-1 $339 $703 #
ellipse-curve $-1 22.07884448477445 28.343002614604721 4.6487669962277289 0 0.55919291073839883 0.82903756765294845 1 0 0 1 I I #
face $-1 $-1 $355 $51 $-1 $704 reversed single #
loop $-1 $-1 $521 $340 #
plane-surface $-1 0 32.005203572116883 0 0 -1 0 0 0 -1 forward_v I I I I #
coedge $-1 $705 $519 $522 $706 forward $341 $-1 #
coedge $-1 $525 $343 $344 $513 reversed $214 $-1 #
coedge $-1 $519 $705 $343 $511 reversed $341 $-1 #
edge $-1 $526 -7.1189527791685752 $707 7.1189527791685752 $510 $708 forward 7 unknown #
coedge $-1 $345 $344 $705 $709 forward $137 $-1 #
edge $-1 $517 -74.881435590685754 $707 74.881435590685754 $509 $710 forward 7 unknown #
coedge $-1 $522 $521 $345 $515 reversed $506 $-1 #
edge $-1 $711 -74.881435590685754 $516 74.881435590685754 $514 $712 forward 7 unknown #
vertex $-1 $347 $713 #
vertex $-1 $528 $714 #
straight-curve $-1 74.881435590685754 0 -7.1189527791685752 0 -1 0 I I #
coedge $-1 $508 $510 $348 $520 reversed $341 $-1 #
edge $-1 $523 -32.005203572116883 $526 32.005203572116883 $519 $715 forward 7 unknown #
coedge $-1 $514 $349 $354 $529 forward $506 $-1 #
coedge $-1 $349 $514 $508 $706 reversed $506 $-1 #
vertex $-1 $350 $716 #
straight-curve $-1 0 32.005203572116883 7.1189527791685752 -1 0 0 I I #
coedge $-1 $351 $509 $353 $528 reversed $214 $-1 #
vertex $-1 $520 $717 #
straight-curve $-1 0 -32.005203572116883 7.1189527791685752 1 0 0 I I #
edge $-1 $356 -7.1189527791685752 $517 7.1189527791685752 $353 $718 forward 7 unknown #
edge $-1 $357 -7.1189527791685752 $516 7.1189527791685752 $354 $719 forward 7 unknown #
point $-1 74.881435590685754 -32.005203572116883 7.1189527791685752 #
point $-1 74.881435590685754 32.005203572116883 7.1189527791685752 #
face $-1 $-1 $542 $52 $-1 $720 reversed single #
loop $-1 $-1 $538 $359 #
plane-surface $-1 0 0 -7.1189527791685752 0 0 1 1 0 0 forward_v I I I I #
coedge $-1 $721 $722 $367 $546 forward $360 $-1 #
coedge $-1 $362 $550 $540 $723 forward $222 $-1 #
edge $-1 $544 -16.752601786058442 $372 -13.752601786058442 $362 $724 forward 7 unknown #
coedge $-1 $725 $368 $363 $539 forward $533 $-1 #
edge $-1 $373 13.752601786058442 $543 16.752601786058442 $538 $726 forward 7 unknown #
coedge $-1 $727 $365 $536 $723 reversed $542 $-1 #
coedge $-1 $365 $727 $725 $728 reversed $542 $-1 #
loop $-1 $-1 $365 $532 #
vertex $-1 $728 $729 #
vertex $-1 $366 $730 #
straight-curve $-1 -70.099186128387913 -32.005203572116883 0 0 0 1 I I #
edge $-1 $551 -7.1189527791685752 $548 7.1189527791685752 $535 $731 forward 7 unknown #
coedge $-1 $368 $725 $721 $732 forward $533 $-1 #
vertex $-1 $369 $733 #
straight-curve $-1 -36.245155429768417 -29.005203572116883 -7.1189527791685752 1 0 0 I I #
coedge $-1 $536 $370 $722 $734 forward $222 $-1 #
vertex $-1 $734 $735 #
straight-curve $-1 -36.245155429768417 -29.005203572116883 7.1189527791685752 -1 0 0 I I #
point $-1 -70.099186128387913 -29.005203572116883 7.1189527791685752 #
point $-1 -70.099186128387913 -29.005203572116883 -7.1189527791685752 #
face $-1 $-1 $565 $53 $-1 $736 reversed single #
loop $-1 $-1 $561 $375 #
plane-surface $-1 0 0 -7.1189527791685752 0 0 1 1 0 0 forward_v I I I I #
coedge $-1 $737 $738 $383 $569 forward $376 $-1 #
coedge $-1 $378 $573 $563 $739 forward $230 $-1 #
edge $-1 $567 -38.636280160917337 $388 -33.854030698619496 $378 $740 forward 7 unknown #
coedge $-1 $741 $384 $379 $562 forward $556 $-1 #
edge $-1 $389 33.854030698619496 $566 38.636280160917337 $561 $742 forward 7 unknown #
coedge $-1 $743 $381 $559 $739 reversed $565 $-1 #
coedge $-1 $381 $743 $741 $744 reversed $565 $-1 #
loop $-1 $-1 $381 $555 #
vertex $-1 $744 $745 #
vertex $-1 $382 $746 #
straight-curve $-1 74.881435590685754 -29.005203572116883 0 0 0 1 I I #
edge $-1 $574 -7.1189527791685752 $571 7.1189527791685752 $558 $747 forward 7 unknown #
coedge $-1 $384 $741 $737 $748 forward $556 $-1 #
vertex $-1 $385 $749 #
straight-curve $-1 70.099186128387913 -15.252601786058442 -7.1189527791685752 0 1 0 I I #
coedge $-1 $559 $386 $738 $750 forward $230 $-1 #
vertex $-1 $750 $751 #
straight-curve $-1 70.099186128387913 -15.252601786058442 7.1189527791685752 0 -1 0 I I #
point $-1 70.099186128387913 -29.005203572116883 7.1189527791685752 #
point $-1 70.099186128387913 -29.005203572116883 -7.1189527791685752 #
loop $-1 $-1 $752 $391 #
plane-surface $-1 0 0 7.1189527791685752 0 0 1 1 0 0 forward_v I I I I #
coedge $-1 $581 $394 $402 $593 reversed $238 $-1 #
coedge $-1 $394 $580 $752 $753 reversed $238 $-1 #
coedge $-1 $587 $754 $396 $583 forward $578 $-1 #
edge $-1 $585 22.564189160099197 $591 29.733408796876851 $582 $755 forward 7 unknown #
coedge $-1 $402 $397 $754 $756 reversed $392 $-1 #
vertex $-1 $398 $757 #
straight-curve $-1 -51.894191951418918 -32.005203572116883 65.591543185847385 0 0 1 I I #
coedge $-1 $752 $582 $399 $588 forward $578 $-1 #
edge $-1 $591 21.395847431467214 $589 39.600841608436198 $587 $758 forward 7 unknown #
vertex $-1 $753 $759 #
straight-curve $-1 -70.099186128387913 -32.074698561948921 2.7694941489132128 0 -0.85716729658548041 -0.51503808176128008 I I #
vertex $-1 $588 $760 #
straight-curve $-1 -51.894191951418918 -32.005203572116883 2.8112509522790106 0 -0.85716729658548041 -0.51503808176128008 I I #
edge $-1 $761 -7.1189527791685752 $403 -2.8112509522790106 $402 $762 forward 7 unknown #
point $-1 -70.099186128387913 -32.005203572116883 2.8112509522790106 #
point $-1 -51.894191951418918 -32.005203572116883 2.8112509522790106 #
edge $-1 $763 1 $763 0 $406 $-1 forward 7 unknown #
vertex $-1 $407 $764 #
ellipse-curve $-1 -64.897759220682474 -24.604436164736253 -1.38605079606406 0 -0.51503808176128008 0.85716729658548041 2 0 0 1 I I #
point $-1 -62.897759220682474 -28.420593753728049 4.9651018657237884 #
edge $-1 $765 1 $765 0 $410 $-1 forward 7 unknown #
vertex $-1 $411 $766 #
ellipse-curve $-1 -57.095618859124343 -24.604436164736253 -1.38605079606406 0 -0.51503808176128008 0.85716729658548041 2 0 0 1 I I #
point $-1 -55.095618859124343 -28.420593753728049 4.9651018657237884 #
plane-surface $-1 0 0 7.1189527791685752 0 0 1 1 0 0 forward_v I I I I #
coedge $-1 $615 $614 $607 $767 forward $415 $-1 #
coedge $-1 $607 $417 $419 $611 reversed $260 $-1 #
coedge $-1 $417 $606 $605 $767 reversed $260 $-1 #
coedge $-1 $425 $420 $417 $609 forward $426 $-1 #
edge $-1 $612 -29.733408796876851 $768 -22.564189160099197 $608 $769 forward 7 unknown #
coedge $-1 $419 $418 $615 $770 reversed $163 $-1 #
edge $-1 $771 0 $612 8.3638511004050056 $606 $772 forward 7 unknown #
vertex $-1 $421 $773 #
straight-curve $-1 -10.166114839983898 -24.835983935339232 7.1189527791685752 -1 0 0 I I #
coedge $-1 $605 $422 $425 $619 reversed $415 $-1 #
coedge $-1 $422 $605 $610 $770 forward $415 $-1 #
vertex $-1 $423 $774 #
straight-curve $-1 -11.229732591483305 -32.005203572116883 65.591543185847385 0 0 1 I I #
straight-curve $-1 -11.229732591483305 -32.005203572116883 2.8112509522790106 0 -0.85716729658548041 -0.51503808176128008 I I #
edge $-1 $768 -29.434726768452286 $427 -11.229732591483305 $614 $775 forward 7 unknown #
point $-1 -11.229732591483305 -32.005203572116883 7.1189527791685752 #
point $-1 -11.229732591483305 -24.835983935339229 7.1189527791685752 #
edge $-1 $776 1 $776 0 $430 $-1 forward 7 unknown #
vertex $-1 $431 $777 #
ellipse-curve $-1 -24.233299860746868 -24.604436164736253 -1.38605079606406 0 -0.51503808176128008 0.85716729658548041 2 0 0 1 I I #
point $-1 -22.233299860746868 -28.420593753728049 4.9651018657237884 #
edge $-1 $778 1 $778 0 $434 $-1 forward 7 unknown #
vertex $-1 $435 $779 #
ellipse-curve $-1 -16.43115949918873 -24.604436164736253 -1.38605079606406 0 -0.51503808176128008 0.85716729658548041 2 0 0 1 I I #
point $-1 -14.43115949918873 -28.420593753728049 4.9651018657237884 #
plane-surface $-1 0 0 7.1189527791685752 0 0 1 1 0 0 forward_v I I I I #
coedge $-1 $641 $640 $633 $780 forward $439 $-1 #
coedge $-1 $633 $441 $443 $637 reversed $282 $-1 #
coedge $-1 $441 $632 $631 $780 reversed $282 $-1 #
coedge $-1 $449 $444 $441 $635 forward $450 $-1 #
edge $-1 $638 -29.733408796876851 $781 -22.564189160099197 $634 $782 forward 7 unknown #
coedge $-1 $443 $442 $641 $783 reversed $177 $-1 #
edge $-1 $784 0 $638 8.3638511004050056 $632 $785 forward 7 unknown #
vertex $-1 $445 $786 #
straight-curve $-1 10.166114839983905 -24.835983935339232 7.1189527791685752 -1 0 0 I I #
coedge $-1 $631 $446 $449 $645 reversed $439 $-1 #
coedge $-1 $446 $631 $636 $783 forward $439 $-1 #
vertex $-1 $447 $787 #
straight-curve $-1 29.4347267684523 -32.005203572116883 65.591543185847385 0 0 1 I I #
straight-curve $-1 29.4347267684523 -32.005203572116883 2.8112509522790106 0 -0.85716729658548041 -0.51503808176128008 I I #
edge $-1 $781 11.229732591483319 $451 29.4347267684523 $640 $788 forward 7 unknown #
point $-1 29.4347267684523 -32.005203572116883 7.1189527791685752 #
point $-1 29.4347267684523 -24.835983935339229 7.1189527791685752 #
edge $-1 $789 1 $789 0 $454 $-1 forward 7 unknown #
vertex $-1 $455 $790 #
ellipse-curve $-1 16.431159499188738 -24.604436164736253 -1.38605079606406 0 -0.51503808176128008 0.85716729658548041 2 0 0 1 I I #
point $-1 18.431159499188738 -28.420593753728049 4.9651018657237884 #
edge $-1 $791 1 $791 0 $458 $-1 forward 7 unknown #
vertex $-1 $459 $792 #
ellipse-curve $-1 24.233299860746882 -24.604436164736253 -1.38605079606406 0 -0.51503808176128008 0.85716729658548041 2 0 0 1 I I #
point $-1 26.233299860746882 -28.420593753728049 4.9651018657237884 #
loop $-1 $-1 $471 $462 #
plane-surface $-1 70.099186128387913 -30.505203572116883 0 1 0 0 0 0 -1 forward_v I I I I #
coedge $-1 $665 $793 $467 $662 forward $463 $-1 #
coedge $-1 $465 $468 $793 $794 forward $304 $-1 #
coedge $-1 $667 $471 $465 $661 reversed $656 $-1 #
edge $-1 $795 -16.752601786058442 $474 -9.5833821492807871 $465 $796 forward 7 unknown #
edge $-1 $663 58.472590406678812 $670 62.780292233568375 $658 $797 forward 7 unknown #
vertex $-1 $794 $798 #
straight-curve $-1 51.894191951418939 -54.56939273221608 7.1189527791685734 0 -1 0 I I #
coedge $-1 $799 $658 $470 $666 forward $463 $-1 #
edge $-1 $670 21.395847431467224 $668 39.600841608436198 $665 $800 forward 7 unknown #
coedge $-1 $471 $660 $799 $801 reversed $656 $-1 #
vertex $-1 $801 $802 #
straight-curve $-1 70.099186128387913 -32.074698561948921 2.7694941489132128 0 0.85716729658548041 0.51503808176128008 I I #
vertex $-1 $666 $803 #
straight-curve $-1 51.894191951418939 -32.005203572116883 2.8112509522790106 0 0.85716729658548041 0.51503808176128008 I I #
point $-1 70.099186128387913 -24.835983935339229 7.1189527791685752 #
point $-1 51.894191951418939 -24.835983935339229 7.1189527791685752 #
edge $-1 $804 1 $804 0 $477 $-1 forward 7 unknown #
vertex $-1 $478 $805 #
ellipse-curve $-1 57.095618859124357 -24.604436164736253 -1.38605079606406 0 -0.51503808176128008 0.85716729658548041 2 0 0 1 I I #
point $-1 59.095618859124357 -28.420593753728049 4.9651018657237884 #
edge $-1 $806 1 $806 0 $481 $-1 forward 7 unknown #
vertex $-1 $482 $807 #
ellipse-curve $-1 64.897759220682502 -24.604436164736253 -1.38605079606406 0 -0.51503808176128008 0.85716729658548041 2 0 0 1 I I #
point $-1 66.897759220682502 -28.420593753728049 4.9651018657237884 #
plane-surface $-1 0 0 7.1189527791685752 0 0 1 1 0 0 forward_v I I I I #
coedge $-1 $693 $692 $685 $808 forward $486 $-1 #
coedge $-1 $685 $488 $490 $689 reversed $326 $-1 #
coedge $-1 $488 $684 $683 $808 reversed $326 $-1 #
coedge $-1 $496 $491 $488 $687 forward $497 $-1 #
edge $-1 $690 -6.6614519355261521 $809 0.66294997949817258 $686 $810 forward 7 unknown #
coedge $-1 $490 $489 $693 $811 reversed $205 $-1 #
edge $-1 $812 -64.010407144233753 $690 -55.175582040034769 $684 $813 forward 7 unknown #
vertex $-1 $492 $814 #
straight-curve $-1 11.039422242387232 24.680801657092566 7.1189527791685698 1 0 0 I I #
coedge $-1 $683 $493 $496 $697 reversed $486 $-1 #
coedge $-1 $493 $683 $688 $811 forward $486 $-1 #
vertex $-1 $494 $815 #
straight-curve $-1 13.1388289535412 32.005203572116883 81.065896775373517 0 0 1 I I #
straight-curve $-1 13.1388289535412 -21.061828671213576 37.972747101820943 0 0.82903756765294845 -0.55919291073839883 I I #
edge $-1 $809 -31.018860016007729 $498 -13.1388289535412 $692 $816 forward 7 unknown #
point $-1 13.1388289535412 32.005203572116883 7.1189527791685752 #
point $-1 13.1388289535412 24.680801657092559 7.1189527791685734 #
edge $-1 $817 1 $817 0 $501 $-1 forward 7 unknown #
vertex $-1 $502 $818 #
ellipse-curve $-1 22.07884448477445 27.346124820242313 3.1708349158761697 0 0.55919291073839883 0.82903756765294845 1 0 0 1 I I #
point $-1 23.07884448477445 28.343002614604718 4.6487669962277227 #
plane-surface $-1 74.881435590685754 0 0 -1 0 0 0 0 1 forward_v I I I I #
coedge $-1 $510 $508 $512 $709 reversed $341 $-1 #
edge $-1 $523 -7.1189527791685752 $711 7.1189527791685752 $522 $819 forward 7 unknown #
vertex $-1 $709 $820 #
straight-curve $-1 -74.881435590685754 -32.005203572116883 0 0 0 -1 I I #
edge $-1 $707 -32.005203572116883 $711 32.005203572116883 $705 $821 forward 7 unknown #
straight-curve $-1 0 -32.005203572116883 -7.1189527791685752 -1 0 0 I I #
vertex $-1 $515 $822 #
straight-curve $-1 0 32.005203572116883 -7.1189527791685752 1 0 0 I I #
point $-1 74.881435590685754 32.005203572116883 -7.1189527791685752 #
point $-1 74.881435590685754 -32.005203572116883 -7.1189527791685752 #
straight-curve $-1 -74.881435590685754 0 7.1189527791685752 0 -1 0 I I #
point $-1 -74.881435590685754 32.005203572116883 7.1189527791685752 #
point $-1 -74.881435590685754 -32.005203572116883 7.1189527791685752 #
straight-curve $-1 74.881435590685754 -32.005203572116883 0 0 0 -1 I I #
straight-curve $-1 74.881435590685754 32.005203572116883 0 0 0 -1 I I #
plane-surface $-1 0 -32.005203572116883 0 0 1 0 0 0 1 forward_v I I I I #
coedge $-1 $823 $535 $547 $732 reversed $360 $-1 #
coedge $-1 $535 $823 $550 $734 reversed $360 $-1 #
edge $-1 $824 -74.881435590685754 $544 -70.099186128387913 $540 $825 forward 7 unknown #
straight-curve $-1 -70.099186128387913 -15.252601786058442 7.1189527791685752 0 1 0 I I #
coedge $-1 $547 $538 $541 $728 forward $533 $-1 #
straight-curve $-1 -70.099186128387913 -15.252601786058442 -7.1189527791685752 0 -1 0 I I #
coedge $-1 $541 $540 $823 $826 forward $542 $-1 #
edge $-1 $543 70.099186128387913 $827 74.881435590685754 $541 $828 forward 7 unknown #
point $-1 -70.099186128387913 -32.005203572116883 -7.1189527791685752 #
point $-1 -70.099186128387913 -32.005203572116883 7.1189527791685752 #
straight-curve $-1 -74.881435590685754 -29.005203572116883 0 0 0 -1 I I #
edge $-1 $827 -32.005203572116883 $548 -29.005203572116883 $721 $829 forward 7 unknown #
point $-1 -74.881435590685754 -29.005203572116883 -7.1189527791685752 #
edge $-1 $551 29.005203572116883 $824 32.005203572116883 $722 $830 forward 7 unknown #
point $-1 -74.881435590685754 -29.005203572116883 7.1189527791685752 #
plane-surface $-1 74.881435590685754 0 0 -1 0 0 0 0 1 forward_v I I I I #
coedge $-1 $831 $558 $570 $748 reversed $376 $-1 #
coedge $-1 $558 $831 $573 $750 reversed $376 $-1 #
edge $-1 $832 -32.005203572116883 $567 -29.005203572116883 $563 $833 forward 7 unknown #
straight-curve $-1 36.245155429768417 -29.005203572116883 7.1189527791685752 -1 0 0 I I #
coedge $-1 $570 $561 $564 $744 forward $556 $-1 #
straight-curve $-1 36.245155429768417 -29.005203572116883 -7.1189527791685752 1 0 0 I I #
coedge $-1 $564 $563 $831 $834 forward $565 $-1 #
edge $-1 $566 29.005203572116883 $835 32.005203572116883 $564 $836 forward 7 unknown #
point $-1 74.881435590685754 -29.005203572116883 -7.1189527791685752 #
point $-1 74.881435590685754 -29.005203572116883 7.1189527791685752 #
straight-curve $-1 70.099186128387913 -32.005203572116883 0 0 0 -1 I I #
edge $-1 $835 -74.881435590685754 $571 -70.099186128387913 $737 $837 forward 7 unknown #
point $-1 70.099186128387913 -32.005203572116883 -7.1189527791685752 #
edge $-1 $574 70.099186128387913 $832 74.881435590685754 $738 $838 forward 7 unknown #
point $-1 70.099186128387913 -32.005203572116883 7.1189527791685752 #
coedge $-1 $754 $587 $581 $753 forward $578 $-1 #
edge $-1 $589 -29.733408796876851 $761 -22.564189160099197 $752 $839 forward 7 unknown #
coedge $-1 $582 $752 $584 $756 forward $578 $-1 #
straight-curve $-1 -51.894191951418918 -54.56939273221608 7.1189527791685734 0 1 0 I I #
edge $-1 $761 -70.099186128387913 $585 -51.894191951418918 $584 $840 forward 7 unknown #
point $-1 -51.894191951418918 -32.005203572116883 7.1189527791685752 #
straight-curve $-1 -30.498344519951704 -24.835983935339232 7.1189527791685752 -1 0 0 I I #
point $-1 -70.099186128387899 -24.835983935339229 7.1189527791685752 #
point $-1 -51.894191951418918 -24.835983935339229 7.1189527791685752 #
vertex $-1 $756 $841 #
straight-curve $-1 -70.099186128387913 -32.005203572116883 0 0 0 -1 I I #
vertex $-1 $596 $842 #
point $-1 -62.897759220682474 -24.604436164736253 -1.38605079606406 #
vertex $-1 $600 $843 #
point $-1 -55.095618859124343 -24.604436164736253 -1.38605079606406 #
edge $-1 $768 58.472590406678812 $771 62.780292233568375 $605 $844 forward 7 unknown #
vertex $-1 $619 $845 #
straight-curve $-1 -29.434726768452286 -54.56939273221608 7.1189527791685734 0 -1 0 I I #
edge $-1 $771 -19.268611928468388 $616 -1.0636177514994074 $615 $846 forward 7 unknown #
vertex $-1 $770 $847 #
straight-curve $-1 -29.434726768452286 -32.005203572116883 2.8112509522790106 0 0.85716729658548041 0.51503808176128008 I I #
point $-1 -29.434726768452286 -24.835983935339229 7.1189527791685752 #
point $-1 -11.229732591483305 -32.005203572116883 2.8112509522790106 #
straight-curve $-1 0 -32.005203572116883 7.1189527791685752 1 0 0 I I #
vertex $-1 $622 $848 #
point $-1 -22.233299860746868 -24.604436164736253 -1.38605079606406 #
vertex $-1 $626 $849 #
point $-1 -14.43115949918873 -24.604436164736253 -1.38605079606406 #
edge $-1 $781 58.472590406678812 $784 62.780292233568375 $631 $850 forward 7 unknown #
vertex $-1 $645 $851 #
straight-curve $-1 11.229732591483319 -54.56939273221608 7.1189527791685734 0 -1 0 I I #
edge $-1 $784 1.0636177514994145 $642 19.268611928468395 $641 $852 forward 7 unknown #
vertex $-1 $783 $853 #
straight-curve $-1 11.229732591483319 -32.005203572116883 2.8112509522790106 0 0.85716729658548041 0.51503808176128008 I I #
point $-1 11.229732591483319 -24.835983935339229 7.1189527791685752 #
point $-1 29.4347267684523 -32.005203572116883 2.8112509522790106 #
straight-curve $-1 0 -32.005203572116883 7.1189527791685752 1 0 0 I I #
vertex $-1 $648 $854 #
point $-1 18.431159499188738 -24.604436164736253 -1.38605079606406 #
vertex $-1 $652 $855 #
point $-1 26.233299860746882 -24.604436164736253 -1.38605079606406 #
coedge $-1 $658 $799 $659 $794 reversed $463 $-1 #
edge $-1 $663 51.894191951418939 $795 70.099186128387913 $793 $856 forward 7 unknown #
vertex $-1 $801 $857 #
straight-curve $-1 70.099186128387913 -15.252601786058442 7.1189527791685752 0 1 0 I I #
straight-curve $-1 51.894191951418939 -32.005203572116883 65.591543185847385 0 0 -1 I I #
point $-1 51.894191951418939 -32.005203572116883 7.1189527791685752 #
coedge $-1 $793 $665 $667 $801 forward $463 $-1 #
straight-curve $-1 30.498344519951715 -32.005203572116883 2.8112509522790106 1 0 0 I I #
edge $-1 $668 2.8112509522790106 $795 7.1189527791685752 $799 $858 forward 7 unknown #
point $-1 70.099186128387913 -32.005203572116883 2.8112509522790106 #
point $-1 51.894191951418939 -32.005203572116883 2.8112509522790106 #
vertex $-1 $674 $859 #
point $-1 59.095618859124357 -24.604436164736253 -1.38605079606406 #
vertex $-1 $678 $860 #
point $-1 66.897759220682502 -24.604436164736253 -1.38605079606406 #
edge $-1 $809 73.946943996204936 $812 78.887315562086656 $683 $861 forward 7 unknown #
vertex $-1 $697 $862 #
straight-curve $-1 31.018860016007729 31.342253592618711 7.1189527791685805 0 1 0 I I #
edge $-1 $812 -19.979437773620496 $694 -2.0994067111539678 $693 $863 forward 7 unknown #
vertex $-1 $811 $864 #
straight-curve $-1 31.018860016007729 -21.061828671213576 37.972747101820943 0 -0.82903756765294845 0.55919291073839883 I I #
point $-1 31.018860016007729 24.680801657092559 7.1189527791685734 #
point $-1 13.1388289535412 32.005203572116891 2.1785812132868685 #
straight-curve $-1 0 32.005203572116883 7.1189527791685752 -1 0 0 I I #
vertex $-1 $700 $865 #
point $-1 23.07884448477445 27.346124820242313 3.1708349158761697 #
straight-curve $-1 -74.881435590685754 32.005203572116883 0 0 0 -1 I I #
point $-1 -74.881435590685754 -32.005203572116883 -7.1189527791685752 #
straight-curve $-1 -74.881435590685754 0 -7.1189527791685752 0 1 0 I I #
point $-1 -74.881435590685754 32.005203572116883 -7.1189527791685752 #
coedge $-1 $722 $721 $727 $826 reversed $360 $-1 #
vertex $-1 $734 $866 #
straight-curve $-1 0 -32.005203572116883 7.1189527791685752 1 0 0 I I #
edge $-1 $824 -7.1189527791685752 $827 7.1189527791685752 $823 $867 forward 7 unknown #
vertex $-1 $732 $868 #
straight-curve $-1 0 -32.005203572116883 -7.1189527791685752 -1 0 0 I I #
straight-curve $-1 -74.881435590685754 0 -7.1189527791685752 0 1 0 I I #
straight-curve $-1 -74.881435590685754 0 7.1189527791685752 0 -1 0 I I #
coedge $-1 $738 $737 $743 $834 reversed $376 $-1 #
vertex $-1 $739 $869 #
straight-curve $-1 74.881435590685754 0 7.1189527791685752 0 1 0 I I #
edge $-1 $832 -7.1189527791685752 $835 7.1189527791685752 $743 $870 forward 7 unknown #
vertex $-1 $834 $871 #
straight-curve $-1 74.881435590685754 0 -7.1189527791685752 0 -1 0 I I #
straight-curve $-1 0 -32.005203572116883 -7.1189527791685752 -1 0 0 I I #
straight-curve $-1 0 -32.005203572116883 7.1189527791685752 1 0 0 I I #
straight-curve $-1 -70.099186128387899 -54.56939273221608 7.1189527791685734 0 -1 0 I I #
straight-curve $-1 0 -32.005203572116883 7.1189527791685752 1 0 0 I I #
point $-1 -70.099186128387913 -32.005203572116883 7.1189527791685752 #
point $-1 -64.897759220682474 -23.574360001213694 -3.1003853892350204 #
point $-1 -57.095618859124343 -23.574360001213694 -3.1003853892350204 #
straight-curve $-1 -29.434726768452286 -32.005203572116883 65.591543185847385 0 0 -1 I I #
point $-1 -29.434726768452286 -32.005203572116883 7.1189527791685752 #
straight-curve $-1 -10.166114839983898 -32.005203572116883 2.8112509522790106 1 0 0 I I #
point $-1 -29.434726768452286 -32.005203572116883 2.8112509522790106 #
point $-1 -24.233299860746868 -23.574360001213694 -3.1003853892350204 #
point $-1 -16.43115949918873 -23.574360001213694 -3.1003853892350204 #
straight-curve $-1 11.229732591483319 -32.005203572116883 65.591543185847385 0 0 -1 I I #
point $-1 11.229732591483319 -32.005203572116883 7.1189527791685752 #
straight-curve $-1 10.166114839983905 -32.005203572116883 2.8112509522790106 1 0 0 I I #
point $-1 11.229732591483319 -32.005203572116883 2.8112509522790106 #
point $-1 16.431159499188738 -23.574360001213694 -3.1003853892350204 #
point $-1 24.233299860746882 -23.574360001213694 -3.1003853892350204 #
straight-curve $-1 0 -32.005203572116883 7.1189527791685752 1 0 0 I I #
point $-1 70.099186128387913 -32.005203572116883 7.1189527791685752 #
straight-curve $-1 70.099186128387913 -32.005203572116883 0 0 0 1 I I #
point $-1 57.095618859124357 -23.574360001213694 -3.1003853892350204 #
point $-1 64.897759220682502 -23.574360001213694 -3.1003853892350204 #
straight-curve $-1 31.018860016007729 32.005203572116883 81.065896775373517 0 0 -1 I I #
point $-1 31.018860016007729 32.005203572116883 7.1189527791685752 #
straight-curve $-1 11.039422242387232 32.005203572116883 2.178581213286872 -1 0 0 I I #
point $-1 31.018860016007729 32.005203572116891 2.1785812132868685 #
point $-1 22.07884448477445 26.786931909503917 2.3417973482232215 #
point $-1 -74.881435590685754 -32.005203572116883 7.1189527791685752 #
straight-curve $-1 -74.881435590685754 -32.005203572116883 0 0 0 -1 I I #
point $-1 -74.881435590685754 -32.005203572116883 -7.1189527791685752 #
point $-1 74.881435590685754 -32.005203572116883 7.1189527791685752 #
straight-curve $-1 74.881435590685754 -32.005203572116883 0 0 0 -1 I I #
point $-1 74.881435590685754 -32.005203572116883 -7.1189527791685752 #
End-of-ACIS-data 