500 0 7 0           
7 Unknown 11 ACIS 5.0 NT 24 Thu Mar 25 16:06:11 1999 
-1 9.9999999999999995e-007 1e-010 
body $-1 $7 $-1 $8 #
body $-1 $9 $-1 $10 #
body $-1 $11 $-1 $12 #
body $-1 $13 $-1 $14 #
body $-1 $15 $-1 $16 #
body $-1 $17 $-1 $18 #
body $-1 $19 $-1 $20 #
lump $-1 $-1 $21 $0 #
transform $-1 1 0 0 0 1 0 0 0 1 69.394207586901459 39.824739994793717 9.9645104318770645 1 rotate no_reflect no_shear #
lump $-1 $-1 $22 $1 #
transform $-1 1 0 0 0 1 0 0 0 1 69.394207586901459 39.824739994793717 9.9645104318770645 1 rotate no_reflect no_shear #
lump $-1 $-1 $23 $2 #
transform $-1 1 0 0 0 1 0 0 0 1 69.394207586901459 39.824739994793717 9.9645104318770645 1 rotate no_reflect no_shear #
lump $-1 $-1 $24 $3 #
transform $-1 1 0 0 0 1 0 0 0 1 69.394207586901459 39.824739994793717 9.9645104318770645 1 rotate no_reflect no_shear #
lump $-1 $-1 $25 $4 #
transform $-1 1 0 0 0 1 0 0 0 1 69.394207586901459 39.824739994793717 9.9645104318770645 1 rotate no_reflect no_shear #
lump $-1 $-1 $26 $5 #
transform $-1 1 0 0 0 1 0 0 0 1 69.394207586901459 39.824739994793717 9.9645104318770645 1 rotate no_reflect no_shear #
lump $-1 $-1 $27 $6 #
transform $-1 1 0 0 0 1 0 0 0 1 69.394207586901459 39.824739994793717 9.9645104318770645 1 rotate no_reflect no_shear #
shell $-1 $-1 $-1 $28 $-1 $7 #
shell $-1 $-1 $-1 $29 $-1 $9 #
shell $-1 $-1 $-1 $30 $-1 $11 #
shell $-1 $-1 $-1 $31 $-1 $13 #
shell $-1 $-1 $-1 $32 $-1 $15 #
shell $-1 $-1 $-1 $33 $-1 $17 #
shell $-1 $-1 $-1 $34 $-1 $19 #
face $-1 $35 $36 $21 $-1 $37 forward single #
face $-1 $38 $39 $22 $-1 $40 forward single #
face $-1 $41 $42 $23 $-1 $43 reversed single #
face $-1 $44 $45 $24 $-1 $46 forward single #
face $-1 $47 $48 $25 $-1 $49 reversed single #
face $-1 $50 $51 $26 $-1 $52 forward single #
face $-1 $53 $54 $27 $-1 $55 forward single #
face $-1 $56 $57 $21 $-1 $58 reversed single #
loop $-1 $-1 $59 $28 #
plane-surface $-1 0 0 9.9645104318770645 0 0 1 1 0 0 forward_v I I I I #
face $-1 $60 $61 $22 $-1 $62 reversed single #
loop $-1 $-1 $63 $29 #
plane-surface $-1 -65.948865663363236 0 -3.270400815146127 0 0 1 1 0 0 forward_v I I I I #
face $-1 $64 $65 $23 $-1 $66 reversed single #
loop $-1 $-1 $67 $30 #
plane-surface $-1 22.817521639380828 -150.66609787716672 88.044965169259768 1 0 0 0 0.79863551827123203 -0.60181501223851219 forward_v I I I I #
face $-1 $68 $69 $24 $-1 $70 forward single #
loop $-1 $71 $72 $31 #
cone-surface $-1 32.837957366734159 -36.022495742921379 5.9228770395866199 0 0.79863551827123203 -0.60181501223851219 1.5 0 0 1 I I 0 1 1.5 forward I I I I #
face $-1 $73 $74 $25 $-1 $75 reversed single #
loop $-1 $-1 $76 $32 #
plane-surface $-1 29.964164335735681 59.73879172406582 163.23653566708813 1 0 0 0 -0.6018150307709319 -0.79863550430605224 forward_v I I I I #
face $-1 $77 $78 $26 $-1 $79 forward single #
loop $-1 $80 $81 $33 #
cone-surface $-1 41.229890978925908 34.165144209484332 4.5482191584989184 0 -0.6018150307709319 -0.79863550430605224 2 0 0 1 I I 0 1 2 forward I I I I #
face $-1 $82 $83 $27 $-1 $84 forward single #
loop $-1 $85 $86 $34 #
cone-surface $-1 58.128480943711239 34.165144209484332 4.5482191584989184 0 -0.6018150307709319 -0.79863550430605224 2 0 0 1 I I 0 1 2 forward I I I I #
face $-1 $87 $88 $21 $-1 $89 reversed single #
loop $-1 $-1 $90 $35 #
plane-surface $-1 0 0 -9.9645104318770645 0 0 1 1 0 0 forward_v I I I I #
coedge $-1 $91 $92 $93 $94 forward $36 $-1 #
face $-1 $95 $96 $22 $-1 $97 reversed single #
loop $-1 $-1 $98 $38 #
plane-surface $-1 -65.948865663363236 0 -8.9227448013914028 0 0 1 1 0 0 forward_v I I I I #
coedge $-1 $99 $100 $101 $102 forward $39 $-1 #
face $-1 $103 $104 $23 $-1 $105 reversed single #
loop $-1 $-1 $106 $41 #
plane-surface $-1 32.837957366734159 -39.824739994793703 4.5200133928738495 0 -0.79863551827123203 0.60181501223851219 1 0 0 forward_v I I I I #
coedge $-1 $107 $108 $109 $110 reversed $42 $-1 #
face $-1 $-1 $111 $24 $-1 $112 forward single #
loop $-1 $113 $114 $44 #
cone-surface $-1 32.837957366734159 -33.672636191278372 4.152130907618897 0 0.79863551827123203 -0.60181501223851219 0.75 0 0 1 I I -0.70710678118654757 0.70710678118654757 0.75 forward I I I I #
loop $-1 $-1 $115 $31 #
coedge $-1 $72 $72 $116 $117 reversed $45 $-1 #
face $-1 $118 $119 $25 $-1 $120 forward single #
loop $-1 $-1 $121 $47 #
plane-surface $-1 49.679185961318566 -23.78616262440525 52.39517972292029 0 0.6018150307709319 0.79863550430605224 1 0 0 forward_v I I I I #
coedge $-1 $122 $123 $124 $125 reversed $48 $-1 #
face $-1 $-1 $126 $26 $-1 $127 forward single #
loop $-1 $128 $129 $50 #
cone-surface $-1 41.229890978925908 31.555485281533038 1.0850848607042369 0 -0.6018150307709319 -0.79863550430605224 1 0 0 1 I I -0.70710678118654768 0.70710678118654735 1 forward I I I I #
loop $-1 $-1 $130 $33 #
coedge $-1 $81 $81 $131 $132 reversed $51 $-1 #
face $-1 $-1 $133 $27 $-1 $134 forward single #
loop $-1 $135 $136 $53 #
cone-surface $-1 58.128480943711239 31.555485281533038 1.0850848607042369 0 -0.6018150307709319 -0.79863550430605224 1 0 0 1 I I -0.70710678118654768 0.70710678118654735 1 forward I I I I #
loop $-1 $-1 $137 $34 #
coedge $-1 $86 $86 $138 $139 reversed $54 $-1 #
face $-1 $140 $141 $21 $-1 $142 reversed single #
loop $-1 $-1 $143 $56 #
plane-surface $-1 0 -39.824739994793717 0 0 1 0 0 0 1 forward_v I I I I #
coedge $-1 $144 $145 $146 $147 forward $57 $-1 #
coedge $-1 $148 $59 $149 $150 forward $36 $-1 #
coedge $-1 $59 $148 $151 $152 forward $36 $-1 #
coedge $-1 $153 $154 $59 $94 reversed $155 $-1 #
edge $-1 $156 -39.824739994793717 $157 39.824739994793717 $93 $158 forward 7 unknown #
face $-1 $159 $160 $22 $-1 $161 reversed single #
loop $-1 $-1 $162 $60 #
plane-surface $-1 -62.503523739825006 0 -6.0965728082687649 -1 0 0 0 0 1 forward_v I I I I #
coedge $-1 $163 $164 $165 $166 forward $61 $-1 #
coedge $-1 $167 $63 $168 $169 reversed $39 $-1 #
coedge $-1 $63 $167 $170 $171 reversed $39 $-1 #
coedge $-1 $162 $172 $63 $102 reversed $96 $-1 #
edge $-1 $173 -39.824739994793717 $174 39.824739994793717 $101 $175 forward 7 unknown #
face $-1 $176 $177 $23 $-1 $178 forward single #
loop $-1 $-1 $179 $64 #
plane-surface $-1 42.858393094087489 -150.66609787716672 88.044965169259768 -1 0 0 0 -0.79863551827123203 0.60181501223851219 forward_v I I I I #
coedge $-1 $180 $181 $182 $183 reversed $65 $-1 #
coedge $-1 $108 $67 $184 $185 reversed $42 $-1 #
coedge $-1 $67 $107 $180 $186 reversed $42 $-1 #
coedge $-1 $182 $187 $67 $110 forward $188 $-1 #
edge $-1 $189 34.057972152752818 $190 39.502469191756056 $109 $191 forward 7 unknown #
loop $-1 $-1 $116 $68 #
plane-surface $-1 32.837957366734159 -39.824739994793703 4.5200133928738495 0 -0.79863551827123203 0.60181501223851219 1 0 0 forward_v I I I I #
loop $-1 $-1 $192 $44 #
coedge $-1 $114 $114 $115 $193 reversed $69 $-1 #
coedge $-1 $115 $115 $114 $193 forward $71 $-1 #
coedge $-1 $116 $116 $72 $117 forward $111 $-1 #
edge $-1 $194 -4.9977769764609677e-016 $194 6.2831853071795996 $116 $195 forward 7 unknown #
face $-1 $196 $197 $25 $-1 $198 reversed single #
loop $-1 $-1 $124 $73 #
plane-surface $-1 0 0 9.9645104318770645 0 0 1 1 0 0 forward_v I I I I #
coedge $-1 $199 $200 $201 $202 reversed $74 $-1 #
coedge $-1 $123 $76 $203 $204 reversed $48 $-1 #
coedge $-1 $76 $122 $199 $205 reversed $48 $-1 #
coedge $-1 $201 $206 $76 $125 forward $119 $-1 #
edge $-1 $207 -9.955344132760807 $208 -2.6518403565027597 $124 $209 forward 7 unknown #
loop $-1 $-1 $131 $77 #
plane-surface $-1 49.679185961318566 -23.78616262440525 52.39517972292029 0 0.6018150307709319 0.79863550430605224 1 0 0 forward_v I I I I #
loop $-1 $-1 $210 $50 #
coedge $-1 $129 $129 $130 $211 reversed $78 $-1 #
coedge $-1 $130 $130 $129 $211 forward $80 $-1 #
coedge $-1 $131 $131 $81 $132 forward $126 $-1 #
edge $-1 $212 3.5365700691200621e-015 $212 6.283185307179604 $131 $213 forward 7 unknown #
loop $-1 $-1 $138 $82 #
plane-surface $-1 49.679185961318566 -23.78616262440525 52.39517972292029 0 0.6018150307709319 0.79863550430605224 1 0 0 forward_v I I I I #
loop $-1 $-1 $214 $53 #
coedge $-1 $136 $136 $137 $215 reversed $83 $-1 #
coedge $-1 $137 $137 $136 $215 forward $85 $-1 #
coedge $-1 $138 $138 $86 $139 forward $133 $-1 #
edge $-1 $216 3.5365700691200621e-015 $216 6.283185307179604 $138 $217 forward 7 unknown #
face $-1 $218 $219 $21 $-1 $220 reversed single #
loop $-1 $-1 $221 $87 #
plane-surface $-1 -69.394207586901459 0 0 1 0 0 0 0 -1 forward_v I I I I #
coedge $-1 $222 $151 $223 $224 forward $88 $-1 #
coedge $-1 $225 $90 $222 $226 forward $57 $-1 #
coedge $-1 $90 $225 $227 $228 forward $57 $-1 #
coedge $-1 $154 $153 $90 $147 reversed $155 $-1 #
edge $-1 $229 -39.824739994793717 $230 39.824739994793717 $146 $231 forward 7 unknown #
coedge $-1 $92 $91 $232 $233 forward $36 $-1 #
coedge $-1 $234 $235 $91 $150 reversed $219 $-1 #
edge $-1 $157 -69.394207586901459 $236 69.394207586901459 $149 $237 forward 7 unknown #
coedge $-1 $143 $238 $92 $152 reversed $88 $-1 #
edge $-1 $239 -69.394207586901459 $156 69.394207586901459 $151 $240 forward 7 unknown #
coedge $-1 $146 $93 $238 $241 forward $155 $-1 #
coedge $-1 $93 $146 $234 $242 reversed $155 $-1 #
loop $-1 $-1 $153 $218 #
vertex $-1 $94 $243 #
vertex $-1 $94 $244 #
straight-curve $-1 69.394207586901459 0 9.9645104318770645 0 1 0 I I #
face $-1 $245 $246 $22 $-1 $247 reversed single #
loop $-1 $-1 $248 $95 #
plane-surface $-1 0 -39.824739994793717 0 0 1 0 0 0 1 forward_v I I I I #
coedge $-1 $165 $101 $249 $250 reversed $96 $-1 #
coedge $-1 $251 $98 $248 $252 reversed $61 $-1 #
coedge $-1 $98 $251 $253 $254 reversed $61 $-1 #
coedge $-1 $172 $162 $98 $166 reversed $96 $-1 #
edge $-1 $255 -39.824739994793717 $256 39.824739994793717 $165 $257 forward 7 unknown #
coedge $-1 $100 $99 $258 $259 reversed $39 $-1 #
coedge $-1 $260 $261 $99 $169 forward $262 $-1 #
edge $-1 $263 -36.419774755219841 $174 -29.529090908143388 $168 $264 forward 7 unknown #
coedge $-1 $265 $249 $100 $171 forward $160 $-1 #
edge $-1 $173 29.529090908143388 $266 36.419774755219841 $170 $267 forward 7 unknown #
coedge $-1 $101 $165 $260 $268 reversed $96 $-1 #
vertex $-1 $171 $269 #
vertex $-1 $169 $270 #
straight-curve $-1 -62.503523739825006 0 -3.270400815146127 0 1 0 I I #
face $-1 $-1 $188 $23 $-1 $271 reversed single #
loop $-1 $-1 $272 $103 #
plane-surface $-1 0 0 9.9645104318770645 0 0 1 1 0 0 forward_v I I I I #
coedge $-1 $273 $274 $275 $276 reversed $104 $-1 #
coedge $-1 $277 $106 $108 $186 forward $65 $-1 #
coedge $-1 $106 $277 $273 $278 forward $65 $-1 #
coedge $-1 $275 $109 $106 $183 forward $188 $-1 #
edge $-1 $190 6.398542956013749 $279 26.43941441072041 $182 $280 forward 7 unknown #
coedge $-1 $281 $282 $107 $185 forward $177 $-1 #
edge $-1 $283 -39.611031621655172 $189 -35.508308943789643 $184 $284 forward 7 unknown #
edge $-1 $190 -2.3448253187574213e-014 $283 6.8172488130613775 $108 $285 forward 7 unknown #
coedge $-1 $109 $275 $281 $286 reversed $188 $-1 #
loop $-1 $-1 $275 $176 #
vertex $-1 $286 $287 #
vertex $-1 $110 $288 #
straight-curve $-1 22.817521639380828 -39.824739994793717 44.022482584629884 0 0 -1 I I #
coedge $-1 $192 $192 $-1 $289 reversed $113 $-1 #
edge $-1 $290 0 $290 6.2831853071796004 $114 $291 forward 7 unknown #
vertex $-1 $117 $292 #
ellipse-curve $-1 32.837957366734159 -37.773378655860952 7.242261912375449 0 -0.79863551827123203 0.60181501223851219 1.5 0 0 1 I I #
face $-1 $-1 $293 $25 $-1 $294 reversed single #
loop $-1 $-1 $295 $118 #
plane-surface $-1 69.394207586901459 0 0 -1 0 0 0 0 1 forward_v I I I I #
coedge $-1 $296 $121 $123 $205 forward $74 $-1 #
coedge $-1 $121 $296 $295 $297 reversed $74 $-1 #
coedge $-1 $298 $124 $121 $202 forward $119 $-1 #
edge $-1 $208 5.124571355076398 $299 44.554614606242161 $201 $300 forward 7 unknown #
coedge $-1 $301 $302 $122 $204 forward $293 $-1 #
edge $-1 $303 -77.157342361446055 $207 -71.653757401667008 $203 $304 forward 7 unknown #
edge $-1 $208 70.504502416114548 $303 79.649479989587434 $123 $305 forward 7 unknown #
coedge $-1 $124 $298 $301 $306 forward $119 $-1 #
vertex $-1 $204 $307 #
vertex $-1 $125 $308 #
straight-curve $-1 29.964164335735681 29.86939586203291 9.9645104318770592 0 -1 0 I I #
coedge $-1 $210 $210 $-1 $309 reversed $128 $-1 #
edge $-1 $310 0 $310 6.2831853071796004 $129 $311 forward 7 unknown #
vertex $-1 $132 $312 #
ellipse-curve $-1 41.229890978925908 36.17298810666469 7.2127179519875408 0 0.6018150307709319 0.79863550430605224 2 0 0 1 I I #
coedge $-1 $214 $214 $-1 $313 reversed $135 $-1 #
edge $-1 $314 0 $314 6.2831853071796004 $136 $315 forward 7 unknown #
vertex $-1 $139 $316 #
ellipse-curve $-1 58.128480943711239 36.17298810666469 7.2127179519875408 0 0.6018150307709319 0.79863550430605224 2 0 0 1 I I #
face $-1 $-1 $155 $21 $-1 $317 reversed single #
loop $-1 $-1 $234 $140 #
plane-surface $-1 0 39.824739994793717 0 0 -1 0 0 0 -1 forward_v I I I I #
coedge $-1 $318 $232 $235 $319 forward $141 $-1 #
coedge $-1 $238 $143 $144 $226 reversed $88 $-1 #
coedge $-1 $232 $318 $143 $224 reversed $141 $-1 #
edge $-1 $239 -9.9645104318770645 $320 9.9645104318770645 $223 $321 forward 7 unknown #
coedge $-1 $145 $144 $318 $322 forward $57 $-1 #
edge $-1 $230 -69.394207586901459 $320 69.394207586901459 $222 $323 forward 7 unknown #
coedge $-1 $235 $234 $145 $228 reversed $219 $-1 #
edge $-1 $324 -69.394207586901459 $229 69.394207586901459 $227 $325 forward 7 unknown #
vertex $-1 $147 $326 #
vertex $-1 $241 $327 #
straight-curve $-1 69.394207586901459 0 -9.9645104318770645 0 -1 0 I I #
coedge $-1 $221 $223 $148 $233 reversed $141 $-1 #
edge $-1 $236 -39.824739994793717 $239 39.824739994793717 $232 $328 forward 7 unknown #
coedge $-1 $227 $149 $154 $242 forward $219 $-1 #
coedge $-1 $149 $227 $221 $319 reversed $219 $-1 #
vertex $-1 $150 $329 #
straight-curve $-1 0 39.824739994793717 9.9645104318770645 -1 0 0 I I #
coedge $-1 $151 $222 $153 $241 reversed $88 $-1 #
vertex $-1 $233 $330 #
straight-curve $-1 0 -39.824739994793717 9.9645104318770645 1 0 0 I I #
edge $-1 $156 -9.9645104318770645 $230 9.9645104318770645 $153 $331 forward 7 unknown #
edge $-1 $157 -9.9645104318770645 $229 9.9645104318770645 $154 $332 forward 7 unknown #
point $-1 69.394207586901459 -39.824739994793717 9.9645104318770645 #
point $-1 69.394207586901459 39.824739994793717 9.9645104318770645 #
face $-1 $-1 $262 $22 $-1 $333 reversed single #
loop $-1 $-1 $334 $159 #
plane-surface $-1 -69.394207586901459 0 0 1 0 0 0 0 -1 forward_v I I I I #
coedge $-1 $249 $265 $163 $252 forward $160 $-1 #
coedge $-1 $170 $248 $162 $250 forward $160 $-1 #
edge $-1 $256 -5.8744583972570208 $173 -0.22211441101174456 $249 $335 forward 7 unknown #
coedge $-1 $164 $163 $334 $336 reversed $61 $-1 #
edge $-1 $337 -36.419774755219841 $256 -29.529090908143388 $248 $338 forward 7 unknown #
coedge $-1 $261 $260 $164 $254 forward $262 $-1 #
edge $-1 $255 29.529090908143388 $339 36.419774755219841 $253 $340 forward 7 unknown #
vertex $-1 $254 $341 #
vertex $-1 $252 $342 #
straight-curve $-1 -62.503523739825006 0 -8.9227448013914028 0 -1 0 I I #
coedge $-1 $343 $344 $167 $259 forward $246 $-1 #
edge $-1 $266 -39.824739994793717 $263 39.824739994793717 $258 $345 forward 7 unknown #
coedge $-1 $253 $168 $172 $268 forward $262 $-1 #
coedge $-1 $168 $253 $343 $346 reversed $262 $-1 #
loop $-1 $-1 $253 $245 #
vertex $-1 $346 $347 #
straight-curve $-1 -32.974432831681618 39.824739994793717 -3.270400815146127 1 0 0 I I #
coedge $-1 $248 $170 $344 $348 forward $160 $-1 #
vertex $-1 $348 $349 #
straight-curve $-1 -32.974432831681618 -39.824739994793717 -3.270400815146127 -1 0 0 I I #
edge $-1 $174 0.22211441101174456 $255 5.8744583972570208 $260 $350 forward 7 unknown #
point $-1 -62.503523739825006 -39.824739994793717 -3.270400815146127 #
point $-1 -62.503523739825006 39.824739994793717 -3.270400815146127 #
plane-surface $-1 0 -39.824739994793717 0 0 1 0 0 0 1 forward_v I I I I #
coedge $-1 $282 $281 $274 $351 forward $177 $-1 #
coedge $-1 $274 $179 $181 $278 reversed $104 $-1 #
coedge $-1 $179 $273 $272 $351 reversed $104 $-1 #
coedge $-1 $187 $182 $179 $276 forward $188 $-1 #
edge $-1 $279 -39.502469191756056 $352 -34.057972152752818 $275 $353 forward 7 unknown #
coedge $-1 $181 $180 $282 $354 reversed $65 $-1 #
edge $-1 $355 -6.8172488130613775 $279 2.3448253187574213e-014 $273 $356 forward 7 unknown #
vertex $-1 $183 $357 #
straight-curve $-1 16.418978683367079 -39.824739994793717 4.5200133928738317 1 0 0 I I #
coedge $-1 $272 $184 $187 $286 forward $177 $-1 #
coedge $-1 $184 $272 $277 $354 forward $177 $-1 #
vertex $-1 $185 $358 #
straight-curve $-1 22.817521639380828 -75.33304893858336 9.9645104318770663 0 -1 0 I I #
straight-curve $-1 22.817521639380828 -39.824739994793703 4.5200133928738495 0 0.60181501223851219 0.79863551827123203 I I #
edge $-1 $189 22.817521639380828 $352 42.858393094087489 $187 $359 forward 7 unknown #
point $-1 22.817521639380828 -39.824739994793717 9.9645104318770645 #
point $-1 22.817521639380828 -39.824739994793717 4.5200133928738309 #
edge $-1 $360 1 $360 0 $192 $-1 forward 7 unknown #
vertex $-1 $193 $361 #
ellipse-curve $-1 32.837957366734159 -34.271612829981798 4.6034921667977811 0 -0.79863551827123203 0.60181501223851219 1.5 0 0 1 I I #
point $-1 34.337957366734159 -37.773378655860967 7.2422619123754588 #
loop $-1 $-1 $203 $196 #
plane-surface $-1 0 39.824739994793717 0 0 -1 0 0 0 -1 forward_v I I I I #
coedge $-1 $362 $363 $200 $297 forward $197 $-1 #
coedge $-1 $200 $199 $302 $364 reversed $74 $-1 #
edge $-1 $299 45.240162075991833 $365 54.385139649464712 $295 $366 forward 7 unknown #
coedge $-1 $206 $201 $363 $367 forward $119 $-1 #
vertex $-1 $367 $368 #
straight-curve $-1 24.839592980659283 32.521236218535677 9.9645104318770663 1 0 0 I I #
coedge $-1 $369 $203 $206 $306 reversed $293 $-1 #
coedge $-1 $203 $369 $296 $364 forward $293 $-1 #
vertex $-1 $204 $370 #
straight-curve $-1 29.964164335735681 39.824739994793717 81.618267833544067 0 0 1 I I #
straight-curve $-1 29.964164335735681 -23.78616262440525 52.39517972292029 0 0.79863550430605224 -0.6018150307709319 I I #
edge $-1 $371 -69.394207586901459 $207 -29.964164335735681 $301 $372 forward 7 unknown #
point $-1 29.964164335735681 39.824739994793717 9.9645104318770645 #
point $-1 29.964164335735681 32.52123621853567 9.9645104318770734 #
edge $-1 $373 1 $373 0 $210 $-1 forward 7 unknown #
vertex $-1 $211 $374 #
ellipse-curve $-1 41.229890978925908 32.157300312303967 1.8837203650102889 0 0.6018150307709319 0.79863550430605224 2 0 0 1 I I #
point $-1 43.229890978925908 36.172988106664704 7.2127179519875479 #
edge $-1 $375 1 $375 0 $214 $-1 forward 7 unknown #
vertex $-1 $215 $376 #
ellipse-curve $-1 58.128480943711239 32.157300312303967 1.8837203650102889 0 0.6018150307709319 0.79863550430605224 2 0 0 1 I I #
point $-1 60.128480943711239 36.172988106664704 7.2127179519875479 #
plane-surface $-1 69.394207586901459 0 0 -1 0 0 0 0 1 forward_v I I I I #
coedge $-1 $223 $221 $225 $322 reversed $141 $-1 #
edge $-1 $236 -9.9645104318770645 $324 9.9645104318770645 $235 $377 forward 7 unknown #
vertex $-1 $322 $378 #
straight-curve $-1 -69.394207586901459 -39.824739994793717 0 0 0 -1 I I #
edge $-1 $320 -39.824739994793717 $324 39.824739994793717 $318 $379 forward 7 unknown #
straight-curve $-1 0 -39.824739994793717 -9.9645104318770645 -1 0 0 I I #
vertex $-1 $228 $380 #
straight-curve $-1 0 39.824739994793717 -9.9645104318770645 1 0 0 I I #
point $-1 69.394207586901459 39.824739994793717 -9.9645104318770645 #
point $-1 69.394207586901459 -39.824739994793717 -9.9645104318770645 #
straight-curve $-1 -69.394207586901459 0 9.9645104318770645 0 -1 0 I I #
point $-1 -69.394207586901459 39.824739994793717 9.9645104318770645 #
point $-1 -69.394207586901459 -39.824739994793717 9.9645104318770645 #
straight-curve $-1 69.394207586901459 -39.824739994793717 0 0 0 -1 I I #
straight-curve $-1 69.394207586901459 39.824739994793717 0 0 0 -1 I I #
plane-surface $-1 0 39.824739994793717 0 0 -1 0 0 0 -1 forward_v I I I I #
coedge $-1 $344 $343 $251 $336 forward $246 $-1 #
straight-curve $-1 -62.503523739825006 -39.824739994793717 -3.0482864041343825 0 0 1 I I #
edge $-1 $339 -39.824739994793717 $337 39.824739994793717 $334 $381 forward 7 unknown #
vertex $-1 $252 $382 #
straight-curve $-1 -32.974432831681618 -39.824739994793717 -8.9227448013914028 1 0 0 I I #
vertex $-1 $254 $383 #
straight-curve $-1 -32.974432831681618 39.824739994793717 -8.9227448013914028 -1 0 0 I I #
point $-1 -62.503523739825006 39.824739994793717 -8.9227448013914028 #
point $-1 -62.503523739825006 -39.824739994793717 -8.9227448013914028 #
coedge $-1 $334 $258 $261 $346 forward $246 $-1 #
coedge $-1 $258 $334 $265 $348 reversed $246 $-1 #
straight-curve $-1 -69.394207586901459 0 -3.270400815146127 0 1 0 I I #
edge $-1 $263 3.270400815146127 $339 8.9227448013914028 $261 $384 forward 7 unknown #
point $-1 -69.394207586901459 39.824739994793717 -3.270400815146127 #
edge $-1 $266 3.270400815146127 $337 8.9227448013914028 $344 $385 forward 7 unknown #
point $-1 -69.394207586901459 -39.824739994793717 -3.270400815146127 #
straight-curve $-1 -62.503523739825006 39.824739994793717 -3.0482864041343825 0 0 -1 I I #
edge $-1 $352 35.508308943789643 $355 39.611031621655172 $272 $386 forward 7 unknown #
vertex $-1 $351 $387 #
straight-curve $-1 42.858393094087489 -39.824739994793717 44.022482584629884 0 0 1 I I #
edge $-1 $355 -26.43941441072041 $283 -6.398542956013749 $282 $388 forward 7 unknown #
vertex $-1 $354 $389 #
straight-curve $-1 42.858393094087489 -39.824739994793703 4.5200133928738495 0 -0.60181501223851219 -0.79863551827123203 I I #
point $-1 42.858393094087489 -39.824739994793717 4.5200133928738309 #
point $-1 22.817521639380828 -35.722017316928188 9.9645104318770645 #
straight-curve $-1 0 -39.824739994793717 9.9645104318770645 1 0 0 I I #
vertex $-1 $289 $390 #
point $-1 34.337957366734159 -34.271612829981798 4.6034921667977811 #
coedge $-1 $363 $295 $369 $391 reversed $197 $-1 #
coedge $-1 $295 $362 $298 $367 reversed $197 $-1 #
edge $-1 $365 -44.554614606242161 $303 -5.124571355076398 $302 $392 forward 7 unknown #
vertex $-1 $297 $393 #
straight-curve $-1 69.394207586901459 -3.6091634359116043 37.190719963722039 0 0.79863550430605224 -0.6018150307709319 I I #
edge $-1 $299 32.52123621853567 $371 39.824739994793717 $363 $394 forward 7 unknown #
point $-1 69.394207586901445 32.52123621853567 9.9645104318770734 #
coedge $-1 $302 $301 $362 $391 forward $293 $-1 #
point $-1 29.964164335735681 39.824739994793717 4.4609254720980118 #
vertex $-1 $367 $395 #
straight-curve $-1 0 39.824739994793717 9.9645104318770645 -1 0 0 I I #
vertex $-1 $309 $396 #
point $-1 43.229890978925908 32.157300312303967 1.8837203650102889 #
vertex $-1 $313 $397 #
point $-1 60.128480943711239 32.157300312303967 1.8837203650102889 #
straight-curve $-1 -69.394207586901459 39.824739994793717 0 0 0 -1 I I #
point $-1 -69.394207586901459 -39.824739994793717 -9.9645104318770645 #
straight-curve $-1 -69.394207586901459 0 -9.9645104318770645 0 1 0 I I #
point $-1 -69.394207586901459 39.824739994793717 -9.9645104318770645 #
straight-curve $-1 -69.394207586901459 0 -8.9227448013914028 0 -1 0 I I #
point $-1 -69.394207586901459 -39.824739994793717 -8.9227448013914028 #
point $-1 -69.394207586901459 39.824739994793717 -8.9227448013914028 #
straight-curve $-1 -69.394207586901459 39.824739994793717 0 0 0 -1 I I #
straight-curve $-1 -69.394207586901459 -39.824739994793717 0 0 0 -1 I I #
straight-curve $-1 42.858393094087489 -75.33304893858336 9.9645104318770663 0 1 0 I I #
point $-1 42.858393094087489 -39.824739994793717 9.9645104318770645 #
straight-curve $-1 16.418978683367079 -35.722017316928188 9.9645104318770645 -1 0 0 I I #
point $-1 42.858393094087489 -35.722017316928188 9.9645104318770645 #
point $-1 32.837957366734159 -33.073659552574945 3.700769648440013 #
edge $-1 $371 -9.9645104318770645 $365 -4.4609254720980118 $362 $398 forward 7 unknown #
straight-curve $-1 24.839592980659283 39.824739994793717 4.4609254720980083 -1 0 0 I I #
point $-1 69.394207586901445 39.824739994793717 4.4609254720980118 #
straight-curve $-1 69.394207586901459 0 9.9645104318770645 0 1 0 I I #
point $-1 69.394207586901459 39.824739994793717 9.9645104318770645 #
point $-1 41.229890978925908 30.953670250762105 0.28644935639818503 #
point $-1 58.128480943711239 30.953670250762105 0.28644935639818503 #
straight-curve $-1 69.394207586901459 39.824739994793717 0 0 0 -1 I I #
End-of-ACIS-data 