500 0 8 0           
7 Unknown 11 ACIS 5.0 NT 24 Fri Mar 26 17:52:51 1999 
-1 9.9999999999999995e-007 1e-010 
body $-1 $8 $-1 $9 #
body $-1 $10 $-1 $11 #
body $-1 $12 $-1 $13 #
body $-1 $14 $-1 $15 #
body $-1 $16 $-1 $17 #
body $-1 $18 $-1 $19 #
body $-1 $20 $-1 $21 #
body $-1 $22 $-1 $23 #
lump $-1 $-1 $24 $0 #
transform $-1 1 0 0 0 1 0 0 0 1 46.693319498275706 22.687734887661286 10.783649959849603 1 rotate no_reflect no_shear #
lump $-1 $-1 $25 $1 #
transform $-1 1 0 0 0 1 0 0 0 1 46.693319498275706 22.687734887661286 10.783649959849603 1 rotate no_reflect no_shear #
lump $-1 $-1 $26 $2 #
transform $-1 1 0 0 0 1 0 0 0 1 46.693319498275706 22.687734887661286 10.783649959849603 1 rotate no_reflect no_shear #
lump $-1 $-1 $27 $3 #
transform $-1 1 0 0 0 1 0 0 0 1 46.693319498275706 22.687734887661286 10.783649959849603 1 rotate no_reflect no_shear #
lump $-1 $-1 $28 $4 #
transform $-1 1 0 0 0 1 0 0 0 1 46.693319498275706 22.687734887661286 10.783649959849603 1 rotate no_reflect no_shear #
lump $-1 $-1 $29 $5 #
transform $-1 1 0 0 0 1 0 0 0 1 46.693319498275706 22.687734887661286 10.783649959849603 1 rotate no_reflect no_shear #
lump $-1 $-1 $30 $6 #
transform $-1 1 0 0 0 1 0 0 0 1 46.693319498275706 22.687734887661286 10.783649959849603 1 rotate no_reflect no_shear #
lump $-1 $-1 $31 $7 #
transform $-1 1 0 0 0 1 0 0 0 1 46.693319498275706 22.687734887661286 10.783649959849603 1 rotate no_reflect no_shear #
shell $-1 $-1 $-1 $32 $-1 $8 #
shell $-1 $-1 $-1 $33 $-1 $10 #
shell $-1 $-1 $-1 $34 $-1 $12 #
shell $-1 $-1 $-1 $35 $-1 $14 #
shell $-1 $-1 $-1 $36 $-1 $16 #
shell $-1 $-1 $-1 $37 $-1 $18 #
shell $-1 $-1 $-1 $38 $-1 $20 #
shell $-1 $-1 $-1 $39 $-1 $22 #
face $-1 $40 $41 $24 $-1 $42 forward single #
face $-1 $43 $44 $25 $-1 $45 reversed single #
face $-1 $46 $47 $26 $-1 $48 reversed single #
face $-1 $49 $50 $27 $-1 $51 forward single #
face $-1 $52 $53 $28 $-1 $54 reversed single #
face $-1 $55 $56 $29 $-1 $57 forward single #
face $-1 $58 $59 $30 $-1 $60 reversed single #
face $-1 $61 $62 $31 $-1 $63 forward single #
face $-1 $64 $65 $24 $-1 $66 reversed single #
loop $-1 $-1 $67 $32 #
plane-surface $-1 0 0 10.783649959849603 0 0 1 1 0 0 forward_v I I I I #
face $-1 $68 $69 $25 $-1 $70 reversed single #
loop $-1 $-1 $71 $33 #
plane-surface $-1 -45.619480733242114 -17.684923654342526 0 1 0 0 0 0 -1 forward_v I I I I #
face $-1 $72 $73 $26 $-1 $74 reversed single #
loop $-1 $-1 $75 $34 #
plane-surface $-1 -46.693319498275706 -7.6601850149001578 0.16438141337981449 -0.57357644374324357 0 0.81915203911291934 0.81915203911291934 0 0.57357644374324357 forward_v I I I I #
face $-1 $76 $77 $27 $-1 $78 forward single #
loop $-1 $79 $80 $35 #
cone-surface $-1 -36.516748679360902 -7.6601850149001578 1.7699320123307123 0.57357644374324357 0 -0.81915203911291934 2.0478800977822984 0 1.4339411093581089 1 I I 0 1 2.5 forward I I I I #
face $-1 $81 $82 $28 $-1 $83 reversed single #
loop $-1 $-1 $84 $36 #
plane-surface $-1 42.084191497108968 -2.0043773757121226 135.12997420542925 0 -1 0 -0.68199836817093118 0 -0.7313536940579346 forward_v I I I I #
face $-1 $85 $86 $29 $-1 $87 forward single #
loop $-1 $88 $89 $37 #
cone-surface $-1 42.254866820645432 -5.2582445145169174 6.5970358304111922 -0.68199836817093118 0 -0.7313536940579346 0.3656768470289673 0 -0.34099918408546559 1 I I 0 1 0.5 forward I I I I #
face $-1 $90 $91 $30 $-1 $92 reversed single #
loop $-1 $-1 $93 $38 #
plane-surface $-1 42.084191497108968 15.680546278630404 135.12997420542925 0 -1 0 -0.68199836817093118 0 -0.7313536940579346 forward_v I I I I #
face $-1 $94 $95 $31 $-1 $96 forward single #
loop $-1 $97 $98 $39 #
cone-surface $-1 42.254866820645432 12.426679139825609 6.5970358304111922 -0.68199836817093118 0 -0.7313536940579346 0.3656768470289673 0 -0.34099918408546559 1 I I 0 1 0.5 forward I I I I #
face $-1 $99 $100 $24 $-1 $101 reversed single #
loop $-1 $-1 $102 $40 #
plane-surface $-1 0 0 -10.783649959849603 0 0 1 1 0 0 forward_v I I I I #
coedge $-1 $103 $104 $105 $106 forward $41 $-1 #
face $-1 $107 $108 $25 $-1 $109 reversed single #
loop $-1 $-1 $110 $43 #
plane-surface $-1 -42.939579003207285 -12.682112421023767 0 0 -1 0 0 0 -1 forward_v I I I I #
coedge $-1 $111 $112 $113 $114 forward $44 $-1 #
face $-1 $115 $116 $26 $-1 $117 forward single #
loop $-1 $-1 $118 $46 #
plane-surface $-1 -100.25769578705177 -2.6382576087765477 76.662237173306977 0 -1 0 0.57357644374324357 0 -0.81915203911291934 forward_v I I I I #
coedge $-1 $119 $120 $121 $122 reversed $47 $-1 #
face $-1 $-1 $123 $27 $-1 $124 forward single #
loop $-1 $125 $126 $49 #
cone-surface $-1 -33.206150763973604 -7.6601850149001578 -2.9580917108444256 0.57357644374324357 0 -0.81915203911291934 1.0239400488911492 0 0.71697055467905446 1 I I -0.70710678118654746 0.70710678118654746 1.25 forward I I I I #
loop $-1 $-1 $127 $35 #
coedge $-1 $80 $80 $128 $129 reversed $50 $-1 #
face $-1 $130 $131 $28 $-1 $132 reversed single #
loop $-1 $-1 $133 $52 #
plane-surface $-1 -21.605343907506942 -5.2582445145169174 66.831310799646602 0.68199836817093118 0 0.7313536940579346 0.7313536940579346 0 -0.68199836817093118 forward_v I I I I #
coedge $-1 $134 $135 $136 $137 reversed $53 $-1 #
face $-1 $-1 $138 $29 $-1 $139 forward single #
loop $-1 $140 $141 $55 #
cone-surface $-1 41.743368044517233 -5.2582445145169174 6.0485205598677414 -0.68199836817093118 0 -0.7313536940579346 0.18283842351448365 0 -0.17049959204273279 1 I I -0.70710678118654746 0.70710678118654746 0.25 forward I I I I #
loop $-1 $-1 $142 $37 #
coedge $-1 $89 $89 $143 $144 reversed $56 $-1 #
face $-1 $145 $146 $30 $-1 $147 reversed single #
loop $-1 $-1 $148 $58 #
plane-surface $-1 -21.605343907506942 12.426679139825609 66.831310799646602 0.68199836817093118 0 0.7313536940579346 0.7313536940579346 0 -0.68199836817093118 forward_v I I I I #
coedge $-1 $149 $150 $151 $152 reversed $59 $-1 #
face $-1 $-1 $153 $31 $-1 $154 forward single #
loop $-1 $155 $156 $61 #
cone-surface $-1 41.743368044517233 12.426679139825609 6.0485205598677414 -0.68199836817093118 0 -0.7313536940579346 0.18283842351448365 0 -0.17049959204273279 1 I I -0.70710678118654746 0.70710678118654746 0.25 forward I I I I #
loop $-1 $-1 $157 $39 #
coedge $-1 $98 $98 $158 $159 reversed $62 $-1 #
face $-1 $160 $161 $24 $-1 $162 reversed single #
loop $-1 $-1 $163 $64 #
plane-surface $-1 0 -22.687734887661286 0 0 1 0 0 0 1 forward_v I I I I #
coedge $-1 $164 $165 $166 $167 forward $65 $-1 #
coedge $-1 $168 $67 $169 $170 forward $41 $-1 #
coedge $-1 $67 $168 $171 $172 forward $41 $-1 #
coedge $-1 $173 $174 $67 $106 reversed $175 $-1 #
edge $-1 $176 -22.687734887661286 $177 22.687734887661286 $105 $178 forward 7 unknown #
face $-1 $179 $180 $25 $-1 $181 forward single #
loop $-1 $-1 $182 $68 #
plane-surface $-1 -40.259677273172457 -17.684923654342526 0 -1 0 0 0 0 1 forward_v I I I I #
coedge $-1 $183 $184 $185 $186 forward $69 $-1 #
coedge $-1 $187 $71 $188 $189 reversed $44 $-1 #
coedge $-1 $71 $187 $190 $191 reversed $44 $-1 #
coedge $-1 $184 $183 $71 $114 reversed $69 $-1 #
edge $-1 $192 -10.783649959849603 $193 10.783649959849603 $113 $194 forward 7 unknown #
face $-1 $195 $196 $26 $-1 $197 forward single #
loop $-1 $-1 $198 $72 #
plane-surface $-1 -42.939579003207285 -12.682112421023767 0 0 -1 0 0 0 -1 forward_v I I I I #
coedge $-1 $199 $200 $201 $202 reversed $73 $-1 #
coedge $-1 $203 $75 $198 $204 reversed $47 $-1 #
coedge $-1 $75 $203 $199 $205 forward $47 $-1 #
coedge $-1 $201 $206 $75 $122 forward $196 $-1 #
edge $-1 $207 -8.8520199135736881 $208 1.1918348986735312 $121 $209 forward 7 unknown #
loop $-1 $-1 $128 $76 #
plane-surface $-1 -46.693319498275706 -7.6601850149001578 0.16438141337981449 -0.57357644374324357 0 0.81915203911291934 0.81915203911291934 0 0.57357644374324357 forward_v I I I I #
loop $-1 $-1 $210 $49 #
coedge $-1 $126 $126 $127 $211 reversed $77 $-1 #
coedge $-1 $127 $127 $126 $211 forward $79 $-1 #
coedge $-1 $128 $128 $80 $129 forward $123 $-1 #
edge $-1 $212 0 $212 6.2831853071796004 $128 $213 forward 7 unknown #
face $-1 $214 $215 $28 $-1 $216 forward single #
loop $-1 $-1 $217 $81 #
plane-surface $-1 42.084191497108968 -8.5121116533217123 135.12997420542925 0 1 0 0.68199836817093118 0 0.7313536940579346 forward_v I I I I #
coedge $-1 $218 $219 $220 $221 reversed $82 $-1 #
coedge $-1 $135 $84 $222 $223 reversed $53 $-1 #
coedge $-1 $84 $134 $218 $224 reversed $53 $-1 #
coedge $-1 $220 $225 $84 $137 forward $215 $-1 #
edge $-1 $226 -25.651223749721222 $227 -17.456316762631598 $136 $228 forward 7 unknown #
loop $-1 $-1 $143 $85 #
plane-surface $-1 -21.605343907506942 -5.2582445145169174 66.831310799646602 0.68199836817093118 0 0.7313536940579346 0.7313536940579346 0 -0.68199836817093118 forward_v I I I I #
loop $-1 $-1 $229 $55 #
coedge $-1 $141 $141 $142 $230 reversed $86 $-1 #
coedge $-1 $142 $142 $141 $230 forward $88 $-1 #
coedge $-1 $143 $143 $89 $144 forward $138 $-1 #
edge $-1 $231 0 $231 6.2831853071796004 $143 $232 forward 7 unknown #
face $-1 $233 $234 $30 $-1 $235 reversed single #
loop $-1 $-1 $236 $90 #
plane-surface $-1 42.084191497108968 9.1728120010208141 135.12997420542925 0 1 0 0.68199836817093118 0 0.7313536940579346 forward_v I I I I #
coedge $-1 $237 $238 $239 $240 reversed $91 $-1 #
coedge $-1 $150 $93 $241 $242 reversed $59 $-1 #
coedge $-1 $93 $149 $237 $243 reversed $59 $-1 #
coedge $-1 $239 $244 $93 $152 forward $245 $-1 #
edge $-1 $246 -25.651223749721222 $247 -17.456316762631598 $151 $248 forward 7 unknown #
loop $-1 $-1 $158 $94 #
plane-surface $-1 -21.605343907506942 12.426679139825609 66.831310799646602 0.68199836817093118 0 0.7313536940579346 0.7313536940579346 0 -0.68199836817093118 forward_v I I I I #
loop $-1 $-1 $249 $61 #
coedge $-1 $156 $156 $157 $250 reversed $95 $-1 #
coedge $-1 $157 $157 $156 $250 forward $97 $-1 #
coedge $-1 $158 $158 $98 $159 forward $153 $-1 #
edge $-1 $251 0 $251 6.2831853071796004 $158 $252 forward 7 unknown #
face $-1 $253 $254 $24 $-1 $255 reversed single #
loop $-1 $-1 $256 $99 #
plane-surface $-1 -46.693319498275706 0 0 1 0 0 0 0 -1 forward_v I I I I #
coedge $-1 $257 $171 $258 $259 forward $100 $-1 #
coedge $-1 $260 $102 $257 $261 forward $65 $-1 #
coedge $-1 $102 $260 $262 $263 forward $65 $-1 #
coedge $-1 $174 $173 $102 $167 reversed $175 $-1 #
edge $-1 $264 -22.687734887661286 $265 22.687734887661286 $166 $266 forward 7 unknown #
coedge $-1 $104 $103 $267 $268 forward $41 $-1 #
coedge $-1 $269 $270 $103 $170 reversed $254 $-1 #
edge $-1 $177 -46.693319498275706 $271 46.693319498275706 $169 $272 forward 7 unknown #
coedge $-1 $163 $273 $104 $172 reversed $100 $-1 #
edge $-1 $274 -46.693319498275706 $176 46.693319498275706 $171 $275 forward 7 unknown #
coedge $-1 $166 $105 $273 $276 forward $175 $-1 #
coedge $-1 $105 $166 $269 $277 reversed $175 $-1 #
loop $-1 $-1 $173 $253 #
vertex $-1 $106 $278 #
vertex $-1 $106 $279 #
straight-curve $-1 46.693319498275706 0 10.783649959849603 0 1 0 I I #
face $-1 $280 $281 $25 $-1 $282 reversed single #
loop $-1 $-1 $283 $107 #
plane-surface $-1 0 0 10.783649959849603 0 0 1 1 0 0 forward_v I I I I #
coedge $-1 $284 $285 $286 $287 reversed $108 $-1 #
coedge $-1 $113 $110 $288 $289 reversed $69 $-1 #
coedge $-1 $110 $113 $290 $291 reversed $69 $-1 #
coedge $-1 $285 $284 $110 $186 reversed $108 $-1 #
edge $-1 $292 -10.783649959849603 $293 10.783649959849603 $185 $294 forward 7 unknown #
coedge $-1 $112 $111 $295 $296 reversed $44 $-1 #
coedge $-1 $288 $297 $111 $189 forward $281 $-1 #
edge $-1 $298 -13.845273060490022 $193 -3.8396505938525038 $188 $299 forward 7 unknown #
coedge $-1 $300 $290 $112 $191 forward $180 $-1 #
edge $-1 $192 3.8396505938525038 $301 13.845273060490022 $190 $302 forward 7 unknown #
vertex $-1 $191 $303 #
vertex $-1 $189 $304 #
straight-curve $-1 -45.619480733242114 -12.682112421023767 0 0 0 -1 I I #
face $-1 $-1 $305 $26 $-1 $306 reversed single #
loop $-1 $-1 $206 $115 #
plane-surface $-1 0 0 10.783649959849603 0 0 1 1 0 0 forward_v I I I I #
coedge $-1 $307 $308 $119 $204 forward $116 $-1 #
coedge $-1 $200 $118 $120 $205 reversed $73 $-1 #
coedge $-1 $118 $199 $309 $310 reversed $73 $-1 #
coedge $-1 $311 $121 $118 $202 forward $196 $-1 #
edge $-1 $208 -18.601415311663288 $312 -3.4355283952501807 $201 $313 forward 7 unknown #
coedge $-1 $120 $119 $314 $315 reversed $47 $-1 #
edge $-1 $316 -1.4902994371660767 $207 17.023830043408289 $198 $317 forward 7 unknown #
edge $-1 $318 0 $208 18.514129480574368 $199 $319 forward 7 unknown #
coedge $-1 $121 $311 $307 $320 forward $196 $-1 #
vertex $-1 $122 $321 #
vertex $-1 $122 $322 #
straight-curve $-1 -31.527432581862602 -3.8300925074500789 10.783649959849603 0 1 0 I I #
coedge $-1 $210 $210 $-1 $323 reversed $125 $-1 #
edge $-1 $324 0 $324 6.2831853071796004 $126 $325 forward 7 unknown #
vertex $-1 $129 $326 #
ellipse-curve $-1 -39.110376040069148 -7.6601850149001578 5.4740156866147096 -0.57357644374324357 0 0.81915203911291934 2.0478800977822984 0 1.4339411093581089 1 I I #
face $-1 $-1 $327 $28 $-1 $328 reversed single #
loop $-1 $-1 $136 $130 #
plane-surface $-1 0 0 10.783649959849603 0 0 1 1 0 0 forward_v I I I I #
coedge $-1 $329 $330 $331 $332 reversed $131 $-1 #
coedge $-1 $333 $133 $135 $224 forward $82 $-1 #
coedge $-1 $133 $333 $329 $334 forward $82 $-1 #
coedge $-1 $331 $136 $133 $221 forward $215 $-1 #
edge $-1 $227 -0.62474488154633612 $335 5.8829893960632536 $220 $336 forward 7 unknown #
coedge $-1 $337 $338 $134 $223 forward $327 $-1 #
edge $-1 $339 -64.423211707683933 $226 -56.78133714286502 $222 $340 forward 7 unknown #
edge $-1 $227 82.181517516108798 $339 93.386638996551412 $135 $341 forward 7 unknown #
coedge $-1 $136 $331 $337 $342 forward $215 $-1 #
vertex $-1 $223 $343 #
vertex $-1 $137 $344 #
straight-curve $-1 21.042095748554484 -2.0043773757121226 10.783649959849605 -1 0 0 I I #
coedge $-1 $229 $229 $-1 $345 reversed $140 $-1 #
edge $-1 $346 0 $346 6.2831853071796004 $141 $347 forward 7 unknown #
vertex $-1 $144 $348 #
ellipse-curve $-1 42.595866004730887 -5.2582445145169174 6.9627126774401491 0.68199836817093118 0 0.7313536940579346 0.3656768470289673 0 -0.34099918408546559 1 I I #
face $-1 $-1 $245 $30 $-1 $349 forward single #
loop $-1 $-1 $350 $145 #
plane-surface $-1 46.693319498275706 0 0 -1 0 0 0 0 1 forward_v I I I I #
coedge $-1 $351 $352 $353 $354 reversed $146 $-1 #
coedge $-1 $355 $148 $150 $243 forward $91 $-1 #
coedge $-1 $148 $355 $351 $356 forward $91 $-1 #
coedge $-1 $353 $151 $148 $240 forward $245 $-1 #
edge $-1 $247 -9.4672067087175993 $357 -2.9594724311080096 $239 $358 forward 7 unknown #
coedge $-1 $359 $360 $149 $242 forward $234 $-1 #
edge $-1 $361 -64.423211707683933 $246 -56.78133714286502 $241 $362 forward 7 unknown #
edge $-1 $247 82.181517516108798 $361 93.386638996551412 $150 $363 forward 7 unknown #
coedge $-1 $151 $353 $359 $364 forward $245 $-1 #
loop $-1 $-1 $353 $233 #
vertex $-1 $242 $365 #
vertex $-1 $152 $366 #
straight-curve $-1 21.042095748554484 15.680546278630404 10.783649959849605 -1 0 0 I I #
coedge $-1 $249 $249 $-1 $367 reversed $155 $-1 #
edge $-1 $368 0 $368 6.2831853071796004 $156 $369 forward 7 unknown #
vertex $-1 $159 $370 #
ellipse-curve $-1 42.595866004730887 12.426679139825609 6.9627126774401491 0.68199836817093118 0 0.7313536940579346 0.3656768470289673 0 -0.34099918408546559 1 I I #
face $-1 $-1 $175 $24 $-1 $371 reversed single #
loop $-1 $-1 $269 $160 #
plane-surface $-1 0 22.687734887661286 0 0 -1 0 0 0 -1 forward_v I I I I #
coedge $-1 $372 $267 $270 $373 forward $161 $-1 #
coedge $-1 $273 $163 $164 $261 reversed $100 $-1 #
coedge $-1 $267 $372 $163 $259 reversed $161 $-1 #
edge $-1 $274 -10.783649959849603 $374 10.783649959849603 $258 $375 forward 7 unknown #
coedge $-1 $165 $164 $372 $376 forward $65 $-1 #
edge $-1 $265 -46.693319498275706 $374 46.693319498275706 $257 $377 forward 7 unknown #
coedge $-1 $270 $269 $165 $263 reversed $254 $-1 #
edge $-1 $378 -46.693319498275706 $264 46.693319498275706 $262 $379 forward 7 unknown #
vertex $-1 $167 $380 #
vertex $-1 $276 $381 #
straight-curve $-1 46.693319498275706 0 -10.783649959849603 0 -1 0 I I #
coedge $-1 $256 $258 $168 $268 reversed $161 $-1 #
edge $-1 $271 -22.687734887661286 $274 22.687734887661286 $267 $382 forward 7 unknown #
coedge $-1 $262 $169 $174 $277 forward $254 $-1 #
coedge $-1 $169 $262 $256 $373 reversed $254 $-1 #
vertex $-1 $170 $383 #
straight-curve $-1 0 22.687734887661286 10.783649959849603 -1 0 0 I I #
coedge $-1 $171 $257 $173 $276 reversed $100 $-1 #
vertex $-1 $268 $384 #
straight-curve $-1 0 -22.687734887661286 10.783649959849603 1 0 0 I I #
edge $-1 $176 -10.783649959849603 $265 10.783649959849603 $173 $385 forward 7 unknown #
edge $-1 $177 -10.783649959849603 $264 10.783649959849603 $174 $386 forward 7 unknown #
point $-1 46.693319498275706 -22.687734887661286 10.783649959849603 #
point $-1 46.693319498275706 22.687734887661286 10.783649959849603 #
face $-1 $-1 $387 $25 $-1 $388 reversed single #
loop $-1 $-1 $389 $179 #
plane-surface $-1 0 0 -10.783649959849603 0 0 1 1 0 0 forward_v I I I I #
coedge $-1 $290 $300 $285 $390 forward $180 $-1 #
coedge $-1 $185 $182 $389 $391 reversed $108 $-1 #
coedge $-1 $182 $185 $283 $390 reversed $108 $-1 #
coedge $-1 $392 $393 $182 $287 forward $387 $-1 #
edge $-1 $394 -10.783649959849603 $395 10.783649959849603 $286 $396 forward 7 unknown #
coedge $-1 $389 $188 $183 $289 forward $281 $-1 #
edge $-1 $193 -24.149691231638471 $293 -18.789887771568814 $288 $397 forward 7 unknown #
coedge $-1 $190 $283 $184 $291 forward $180 $-1 #
edge $-1 $292 18.789887771568814 $192 24.149691231638471 $290 $398 forward 7 unknown #
vertex $-1 $291 $399 #
vertex $-1 $289 $400 #
straight-curve $-1 -40.259677273172457 -12.682112421023767 0 0 0 -1 I I #
coedge $-1 $393 $392 $187 $296 forward $387 $-1 #
edge $-1 $301 -10.783649959849603 $298 10.783649959849603 $295 $401 forward 7 unknown #
coedge $-1 $188 $389 $393 $402 forward $281 $-1 #
vertex $-1 $189 $403 #
straight-curve $-1 -45.619480733242114 -8.8424618271712632 -10.783649959849603 0 1 0 I I #
coedge $-1 $283 $190 $392 $404 forward $180 $-1 #
vertex $-1 $404 $405 #
straight-curve $-1 -45.619480733242114 -8.8424618271712632 10.783649959849603 0 -1 0 I I #
point $-1 -45.619480733242114 -12.682112421023767 10.783649959849603 #
point $-1 -45.619480733242114 -12.682112421023767 -10.783649959849603 #
loop $-1 $-1 $406 $195 #
plane-surface $-1 -46.693319498275706 0 0 1 0 0 0 0 -1 forward_v I I I I #
coedge $-1 $308 $198 $206 $320 reversed $116 $-1 #
coedge $-1 $198 $307 $406 $407 reversed $116 $-1 #
coedge $-1 $314 $408 $200 $310 forward $305 $-1 #
edge $-1 $312 27.547468626803884 $318 38.166737173273674 $309 $409 forward 7 unknown #
coedge $-1 $206 $201 $408 $410 forward $196 $-1 #
vertex $-1 $410 $411 #
straight-curve $-1 -50.128847893525887 -2.6382576087765477 10.783649959849605 -1 0 0 I I #
coedge $-1 $406 $309 $203 $315 forward $305 $-1 #
edge $-1 $318 -1.1918348986735312 $316 8.8520199135736881 $314 $412 forward 7 unknown #
vertex $-1 $407 $413 #
straight-curve $-1 -45.472537675432278 -12.682112421023767 1.0191820646620906 0.81915203911291934 0 0.57357644374324357 I I #
vertex $-1 $315 $414 #
straight-curve $-1 -46.693319498275706 -2.6382576087765477 0.16438141337981449 0.81915203911291934 0 0.57357644374324357 I I #
edge $-1 $415 3.4355283952501807 $207 18.601415311663288 $206 $416 forward 7 unknown #
point $-1 -31.527432581862598 -12.682112421023767 10.783649959849605 #
point $-1 -31.527432581862598 -2.6382576087765477 10.783649959849605 #
edge $-1 $417 1 $417 0 $210 $-1 forward 7 unknown #
vertex $-1 $211 $418 #
ellipse-curve $-1 -33.923121318652655 -7.6601850149001578 -1.9341516619532764 -0.57357644374324357 0 0.81915203911291934 2.0478800977822984 0 1.4339411093581089 1 I I #
point $-1 -37.062495942286844 -7.6601850149001578 6.9079567959728108 #
loop $-1 $-1 $222 $214 #
plane-surface $-1 46.693319498275706 0 0 -1 0 0 0 0 1 forward_v I I I I #
coedge $-1 $330 $217 $219 $334 reversed $131 $-1 #
coedge $-1 $217 $329 $419 $420 reversed $131 $-1 #
coedge $-1 $225 $220 $217 $332 forward $215 $-1 #
edge $-1 $335 17.456316762631598 $421 25.651223749721222 $331 $422 forward 7 unknown #
coedge $-1 $219 $218 $338 $423 reversed $82 $-1 #
edge $-1 $424 -93.386638996551412 $335 -82.181517516108798 $329 $425 forward 7 unknown #
vertex $-1 $221 $426 #
straight-curve $-1 38.498412511186082 -2.6291222572584587 10.783649959849605 0 -1 0 I I #
coedge $-1 $419 $222 $225 $342 reversed $327 $-1 #
coedge $-1 $222 $419 $333 $423 forward $327 $-1 #
vertex $-1 $223 $427 #
straight-curve $-1 46.693319498275706 -2.0043773757121226 67.564987102714625 0 0 1 I I #
straight-curve $-1 -21.605343907506942 -2.0043773757121226 66.831310799646602 0.7313536940579346 0 -0.68199836817093118 I I #
edge $-1 $421 -8.5121116533217123 $226 -2.0043773757121226 $337 $428 forward 7 unknown #
point $-1 46.693319498275706 -2.0043773757121226 10.783649959849603 #
point $-1 38.498412511186082 -2.0043773757121226 10.783649959849605 #
edge $-1 $429 1 $429 0 $229 $-1 forward 7 unknown #
vertex $-1 $230 $430 #
ellipse-curve $-1 41.913867636559964 -5.2582445145169174 6.2313589833822247 0.68199836817093118 0 0.7313536940579346 0.3656768470289673 0 -0.34099918408546559 1 I I #
point $-1 42.961542851759866 -5.2582445145169174 6.6217134933546937 #
plane-surface $-1 0 0 10.783649959849603 0 0 1 1 0 0 forward_v I I I I #
coedge $-1 $360 $359 $352 $431 forward $234 $-1 #
coedge $-1 $352 $236 $238 $356 reversed $146 $-1 #
coedge $-1 $236 $351 $350 $431 reversed $146 $-1 #
coedge $-1 $244 $239 $236 $354 forward $245 $-1 #
edge $-1 $357 17.456316762631598 $432 25.651223749721222 $353 $433 forward 7 unknown #
coedge $-1 $238 $237 $360 $434 reversed $91 $-1 #
edge $-1 $435 -93.386638996551412 $357 -82.181517516108798 $351 $436 forward 7 unknown #
vertex $-1 $240 $437 #
straight-curve $-1 38.498412511186082 6.2133395699128044 10.783649959849605 0 -1 0 I I #
coedge $-1 $350 $241 $244 $364 reversed $234 $-1 #
coedge $-1 $241 $350 $355 $434 forward $234 $-1 #
vertex $-1 $242 $438 #
straight-curve $-1 46.693319498275706 15.680546278630404 67.564987102714625 0 0 1 I I #
straight-curve $-1 -21.605343907506942 15.680546278630404 66.831310799646602 0.7313536940579346 0 -0.68199836817093118 I I #
edge $-1 $432 9.1728120010208141 $246 15.680546278630404 $359 $439 forward 7 unknown #
point $-1 46.693319498275706 15.680546278630404 10.783649959849603 #
point $-1 38.498412511186082 15.680546278630404 10.783649959849605 #
edge $-1 $440 1 $440 0 $249 $-1 forward 7 unknown #
vertex $-1 $250 $441 #
ellipse-curve $-1 41.913867636559964 12.426679139825609 6.2313589833822247 0.68199836817093118 0 0.7313536940579346 0.3656768470289673 0 -0.34099918408546559 1 I I #
point $-1 42.961542851759866 12.426679139825609 6.6217134933546937 #
plane-surface $-1 46.693319498275706 0 0 -1 0 0 0 0 1 forward_v I I I I #
coedge $-1 $258 $256 $260 $376 reversed $161 $-1 #
edge $-1 $271 -10.783649959849603 $378 10.783649959849603 $270 $442 forward 7 unknown #
vertex $-1 $376 $443 #
straight-curve $-1 -46.693319498275706 -22.687734887661286 0 0 0 -1 I I #
edge $-1 $374 -22.687734887661286 $378 22.687734887661286 $372 $444 forward 7 unknown #
straight-curve $-1 0 -22.687734887661286 -10.783649959849603 -1 0 0 I I #
vertex $-1 $263 $445 #
straight-curve $-1 0 22.687734887661286 -10.783649959849603 1 0 0 I I #
point $-1 46.693319498275706 22.687734887661286 -10.783649959849603 #
point $-1 46.693319498275706 -22.687734887661286 -10.783649959849603 #
straight-curve $-1 -46.693319498275706 0 10.783649959849603 0 -1 0 I I #
point $-1 -46.693319498275706 22.687734887661286 10.783649959849603 #
point $-1 -46.693319498275706 -22.687734887661286 10.783649959849603 #
straight-curve $-1 46.693319498275706 -22.687734887661286 0 0 0 -1 I I #
straight-curve $-1 46.693319498275706 22.687734887661286 0 0 0 -1 I I #
loop $-1 $-1 $286 $280 #
plane-surface $-1 0 -22.687734887661286 0 0 1 0 0 0 1 forward_v I I I I #
coedge $-1 $297 $288 $284 $391 forward $281 $-1 #
edge $-1 $395 -13.845273060490022 $292 -3.8396505938525038 $283 $446 forward 7 unknown #
edge $-1 $293 3.8396505938525038 $394 13.845273060490022 $389 $447 forward 7 unknown #
coedge $-1 $295 $286 $300 $404 reversed $387 $-1 #
coedge $-1 $286 $295 $297 $402 reversed $387 $-1 #
vertex $-1 $402 $448 #
vertex $-1 $287 $449 #
straight-curve $-1 -40.259677273172457 -22.687734887661286 0 0 0 1 I I #
straight-curve $-1 -21.469789501603643 -12.682112421023767 -10.783649959849603 1 0 0 I I #
straight-curve $-1 -21.469789501603643 -12.682112421023767 10.783649959849603 -1 0 0 I I #
point $-1 -40.259677273172457 -12.682112421023767 10.783649959849603 #
point $-1 -40.259677273172457 -12.682112421023767 -10.783649959849603 #
straight-curve $-1 -45.619480733242114 -22.687734887661286 0 0 0 -1 I I #
edge $-1 $394 40.259677273172457 $298 45.619480733242114 $393 $450 forward 7 unknown #
point $-1 -45.619480733242114 -22.687734887661286 -10.783649959849603 #
edge $-1 $301 -45.619480733242114 $395 -40.259677273172457 $392 $451 forward 7 unknown #
point $-1 -45.619480733242114 -22.687734887661286 10.783649959849603 #
coedge $-1 $408 $314 $308 $407 forward $305 $-1 #
edge $-1 $316 -38.166737173273674 $415 -27.547468626803884 $406 $452 forward 7 unknown #
coedge $-1 $309 $406 $311 $410 reversed $305 $-1 #
straight-curve $-1 -46.693319498275706 -2.6382576087765477 38.331118586653488 0 0 -1 I I #
edge $-1 $312 2.6382576087765477 $415 12.682112421023767 $408 $453 forward 7 unknown #
point $-1 -46.693319498275706 -2.6382576087765477 10.783649959849603 #
straight-curve $-1 -46.693319498275706 -3.8300925074500789 0.1643814133798133 0 -1 0 I I #
point $-1 -46.693319498275706 -12.682112421023767 0.16438141337981449 #
point $-1 -46.693319498275706 -2.6382576087765477 0.16438141337981449 #
vertex $-1 $407 $454 #
straight-curve $-1 -50.128847893525887 -12.682112421023767 10.783649959849605 1 0 0 I I #
vertex $-1 $323 $455 #
point $-1 -31.875241220870361 -7.6601850149001578 -0.50021055259516745 #
coedge $-1 $338 $337 $330 $420 forward $327 $-1 #
edge $-1 $421 56.78133714286502 $424 64.423211707683933 $419 $456 forward 7 unknown #
vertex $-1 $342 $457 #
straight-curve $-1 21.042095748554484 -8.5121116533217123 10.783649959849605 1 0 0 I I #
edge $-1 $424 -5.8829893960632536 $339 0.62474488154633612 $338 $458 forward 7 unknown #
vertex $-1 $423 $459 #
straight-curve $-1 -21.605343907506942 -8.5121116533217123 66.831310799646602 -0.7313536940579346 0 0.68199836817093118 I I #
point $-1 38.498412511186082 -8.5121116533217123 10.783649959849605 #
point $-1 46.693319498275706 -2.0043773757121226 3.1417753950306917 #
straight-curve $-1 46.693319498275706 0 10.783649959849603 0 1 0 I I #
vertex $-1 $345 $460 #
point $-1 42.279544483588936 -5.2582445145169174 5.8903597992967596 #
edge $-1 $432 56.78133714286502 $435 64.423211707683933 $350 $461 forward 7 unknown #
vertex $-1 $364 $462 #
straight-curve $-1 21.042095748554484 9.1728120010208141 10.783649959849605 1 0 0 I I #
edge $-1 $435 2.9594724311080096 $361 9.4672067087175993 $360 $463 forward 7 unknown #
vertex $-1 $434 $464 #
straight-curve $-1 -21.605343907506942 9.1728120010208141 66.831310799646602 -0.7313536940579346 0 0.68199836817093118 I I #
point $-1 38.498412511186082 9.1728120010208141 10.783649959849605 #
point $-1 46.693319498275706 15.680546278630404 3.1417753950306917 #
straight-curve $-1 46.693319498275706 0 10.783649959849603 0 1 0 I I #
vertex $-1 $367 $465 #
point $-1 42.279544483588936 12.426679139825609 5.8903597992967596 #
straight-curve $-1 -46.693319498275706 22.687734887661286 0 0 0 -1 I I #
point $-1 -46.693319498275706 -22.687734887661286 -10.783649959849603 #
straight-curve $-1 -46.693319498275706 0 -10.783649959849603 0 1 0 I I #
point $-1 -46.693319498275706 22.687734887661286 -10.783649959849603 #
straight-curve $-1 -40.259677273172457 -8.8424618271712632 10.783649959849603 0 1 0 I I #
straight-curve $-1 -40.259677273172457 -8.8424618271712632 -10.783649959849603 0 -1 0 I I #
point $-1 -40.259677273172457 -22.687734887661286 -10.783649959849603 #
point $-1 -40.259677273172457 -22.687734887661286 10.783649959849603 #
straight-curve $-1 0 -22.687734887661286 -10.783649959849603 -1 0 0 I I #
straight-curve $-1 0 -22.687734887661286 10.783649959849603 1 0 0 I I #
straight-curve $-1 -46.693319498275706 -12.682112421023767 38.331118586653488 0 0 1 I I #
straight-curve $-1 -46.693319498275706 0 10.783649959849603 0 -1 0 I I #
point $-1 -46.693319498275706 -12.682112421023767 10.783649959849603 #
point $-1 -32.489180209294553 -7.6601850149001578 -3.982031759735575 #
straight-curve $-1 46.693319498275706 -8.5121116533217123 67.564987102714625 0 0 -1 I I #
point $-1 46.693319498275706 -8.5121116533217123 10.783649959849603 #
straight-curve $-1 46.693319498275706 -2.6291222572584587 3.1417753950306917 0 1 0 I I #
point $-1 46.693319498275706 -8.5121116533217123 3.1417753950306917 #
point $-1 41.572868452474502 -5.2582445145169174 5.8656821363532581 #
straight-curve $-1 46.693319498275706 9.1728120010208141 67.564987102714625 0 0 -1 I I #
point $-1 46.693319498275706 9.1728120010208141 10.783649959849603 #
straight-curve $-1 46.693319498275706 6.2133395699128044 3.1417753950306917 0 1 0 I I #
point $-1 46.693319498275706 9.1728120010208141 3.1417753950306917 #
point $-1 41.572868452474502 12.426679139825609 5.8656821363532581 #
End-of-ACIS-data 