500 0 9 0           
7 Unknown 11 ACIS 5.0 NT 24 Thu Mar 25 15:46:44 1999 
-1 9.9999999999999995e-007 1e-010 
body $-1 $9 $-1 $10 #
body $-1 $11 $-1 $12 #
body $-1 $13 $-1 $14 #
body $-1 $15 $-1 $16 #
body $-1 $17 $-1 $18 #
body $-1 $19 $-1 $20 #
body $-1 $21 $-1 $22 #
body $-1 $23 $-1 $24 #
body $-1 $25 $-1 $26 #
lump $-1 $-1 $27 $0 #
transform $-1 1 0 0 0 1 0 0 0 1 58.890957365642265 40.24613813558846 10.725097756888283 1 rotate no_reflect no_shear #
lump $-1 $-1 $28 $1 #
transform $-1 1 0 0 0 1 0 0 0 1 58.890957365642265 40.24613813558846 10.725097756888283 1 rotate no_reflect no_shear #
lump $-1 $-1 $29 $2 #
transform $-1 1 0 0 0 1 0 0 0 1 58.890957365642265 40.24613813558846 10.725097756888283 1 rotate no_reflect no_shear #
lump $-1 $-1 $30 $3 #
transform $-1 1 0 0 0 1 0 0 0 1 58.890957365642265 40.24613813558846 10.725097756888283 1 rotate no_reflect no_shear #
lump $-1 $-1 $31 $4 #
transform $-1 1 0 0 0 1 0 0 0 1 58.890957365642265 40.24613813558846 10.725097756888283 1 rotate no_reflect no_shear #
lump $-1 $-1 $32 $5 #
transform $-1 1 0 0 0 1 0 0 0 1 58.890957365642265 40.24613813558846 10.725097756888283 1 rotate no_reflect no_shear #
lump $-1 $-1 $33 $6 #
transform $-1 1 0 0 0 1 0 0 0 1 58.890957365642265 40.24613813558846 10.725097756888283 1 rotate no_reflect no_shear #
lump $-1 $-1 $34 $7 #
transform $-1 1 0 0 0 1 0 0 0 1 58.890957365642265 40.24613813558846 10.725097756888283 1 rotate no_reflect no_shear #
lump $-1 $-1 $35 $8 #
transform $-1 1 0 0 0 1 0 0 0 1 58.890957365642265 40.24613813558846 10.725097756888283 1 rotate no_reflect no_shear #
shell $-1 $-1 $-1 $36 $-1 $9 #
shell $-1 $-1 $-1 $37 $-1 $11 #
shell $-1 $-1 $-1 $38 $-1 $13 #
shell $-1 $-1 $-1 $39 $-1 $15 #
shell $-1 $-1 $-1 $40 $-1 $17 #
shell $-1 $-1 $-1 $41 $-1 $19 #
shell $-1 $-1 $-1 $42 $-1 $21 #
shell $-1 $-1 $-1 $43 $-1 $23 #
shell $-1 $-1 $-1 $44 $-1 $25 #
face $-1 $45 $46 $27 $-1 $47 reversed single #
face $-1 $48 $49 $28 $-1 $50 forward single #
face $-1 $51 $52 $29 $-1 $53 reversed single #
face $-1 $54 $55 $30 $-1 $56 forward single #
face $-1 $57 $58 $31 $-1 $59 forward single #
face $-1 $60 $61 $32 $-1 $62 reversed single #
face $-1 $63 $64 $33 $-1 $65 forward single #
face $-1 $66 $67 $34 $-1 $68 forward single #
face $-1 $69 $70 $35 $-1 $71 forward single #
face $-1 $72 $73 $27 $-1 $74 forward single #
loop $-1 $-1 $75 $36 #
plane-surface $-1 -58.890957365642265 0 0 1 0 0 0 0 -1 forward_v I I I I #
face $-1 $76 $77 $28 $-1 $78 reversed single #
loop $-1 $-1 $79 $37 #
plane-surface $-1 -58.890957365642265 0 0 1 0 0 0 0 -1 forward_v I I I I #
face $-1 $80 $81 $29 $-1 $82 reversed single #
loop $-1 $-1 $83 $38 #
plane-surface $-1 -4.8934712787480024 76.329594692298286 141.79985996772686 1 0 0 0 -0.75470958851134928 -0.65605901945558964 forward_v I I I I #
face $-1 $84 $85 $30 $-1 $86 forward single #
loop $-1 $87 $88 $39 #
cone-surface $-1 1.5233234864216598 36.232718038281376 6.3877611628475455 0 -0.75470958851134928 -0.65605901945558964 1 0 0 1 I I 0 1 1 forward I I I I #
face $-1 $89 $90 $31 $-1 $91 forward single #
loop $-1 $92 $93 $40 #
cone-surface $-1 11.148515634176164 36.232718038281376 6.3877611628475455 0 -0.75470958851134928 -0.65605901945558964 1 0 0 1 I I 0 1 1 forward I I I I #
face $-1 $94 $95 $32 $-1 $96 reversed single #
loop $-1 $-1 $97 $41 #
plane-surface $-1 -31.890624675718765 -139.02636439973887 66.350139514163018 -1 0 0 0 -0.83867057594974714 0.54463902268945019 forward_v I I I I #
face $-1 $98 $99 $33 $-1 $100 forward single #
loop $-1 $101 $102 $42 #
cone-surface $-1 -45.681246928032301 -35.916065250995189 5.4486496690671844 0 0.83867057594974714 -0.54463902268945019 1 0 0 1 I I 0 1 1 forward I I I I #
face $-1 $103 $104 $34 $-1 $105 forward single #
loop $-1 $106 $107 $43 #
cone-surface $-1 -40.509763583414724 -35.916065250995189 5.4486496690671844 0 0.83867057594974714 -0.54463902268945019 1 0 0 1 I I 0 1 1 forward I I I I #
face $-1 $108 $109 $35 $-1 $110 forward single #
loop $-1 $111 $112 $44 #
cone-surface $-1 -35.338280238797154 -35.916065250995189 5.4486496690671844 0 0.83867057594974714 -0.54463902268945019 1 0 0 1 I I 0 1 1 forward I I I I #
face $-1 $113 $114 $27 $-1 $115 reversed single #
loop $-1 $-1 $116 $45 #
plane-surface $-1 0 0 10.725097756888283 0 0 1 1 0 0 forward_v I I I I #
coedge $-1 $117 $118 $119 $120 reversed $46 $-1 #
face $-1 $121 $122 $28 $-1 $123 reversed single #
loop $-1 $-1 $124 $48 #
plane-surface $-1 0 0 -10.725097756888283 0 0 1 1 0 0 forward_v I I I I #
coedge $-1 $125 $126 $127 $128 forward $49 $-1 #
face $-1 $129 $130 $29 $-1 $131 reversed single #
loop $-1 $-1 $132 $51 #
plane-surface $-1 6.3359195602989189 -12.561545708628287 64.527972479518468 0 0.75470958851134928 0.65605901945558964 1 0 0 forward_v I I I I #
coedge $-1 $133 $134 $135 $136 reversed $52 $-1 #
face $-1 $-1 $137 $30 $-1 $138 forward single #
loop $-1 $139 $140 $54 #
cone-surface $-1 1.5233234864216598 34.860722939137425 5.1951040492448097 0 -0.75470958851134928 -0.65605901945558964 0.5 0 0 1 I I -0.70710678118654746 0.70710678118654746 0.5 forward I I I I #
loop $-1 $-1 $141 $39 #
coedge $-1 $88 $88 $142 $143 reversed $55 $-1 #
face $-1 $-1 $144 $31 $-1 $145 forward single #
loop $-1 $146 $147 $57 #
cone-surface $-1 11.148515634176164 34.860722939137425 5.1951040492448097 0 -0.75470958851134928 -0.65605901945558964 0.5 0 0 1 I I -0.70710678118654746 0.70710678118654746 0.5 forward I I I I #
loop $-1 $-1 $148 $40 #
coedge $-1 $93 $93 $149 $150 reversed $58 $-1 #
face $-1 $151 $152 $32 $-1 $153 reversed single #
loop $-1 $-1 $154 $60 #
plane-surface $-1 -40.509763583414724 -40.246138135588467 2.2015125844240515 0 -0.83867057594974714 0.54463902268945019 1 0 0 forward_v I I I I #
coedge $-1 $155 $156 $157 $158 reversed $61 $-1 #
face $-1 $-1 $159 $33 $-1 $160 forward single #
loop $-1 $161 $162 $63 #
cone-surface $-1 -45.681246928032301 -33.934297455510801 4.1616746561334779 0 0.83867057594974714 -0.54463902268945019 0.5 0 0 1 I I -0.70710678118654746 0.70710678118654746 0.5 forward I I I I #
loop $-1 $-1 $163 $42 #
coedge $-1 $102 $102 $164 $165 reversed $64 $-1 #
face $-1 $-1 $166 $34 $-1 $167 forward single #
loop $-1 $168 $169 $66 #
cone-surface $-1 -40.509763583414724 -33.934297455510801 4.1616746561334779 0 0.83867057594974714 -0.54463902268945019 0.5 0 0 1 I I -0.70710678118654746 0.70710678118654746 0.5 forward I I I I #
loop $-1 $-1 $170 $43 #
coedge $-1 $107 $107 $171 $172 reversed $67 $-1 #
face $-1 $-1 $173 $35 $-1 $174 forward single #
loop $-1 $175 $176 $69 #
cone-surface $-1 -35.338280238797154 -33.934297455510801 4.1616746561334779 0 0.83867057594974714 -0.54463902268945019 0.5 0 0 1 I I -0.70710678118654746 0.70710678118654746 0.5 forward I I I I #
loop $-1 $-1 $177 $44 #
coedge $-1 $112 $112 $178 $179 reversed $70 $-1 #
face $-1 $180 $181 $27 $-1 $182 reversed single #
loop $-1 $-1 $183 $72 #
plane-surface $-1 0 0 -10.725097756888283 0 0 1 1 0 0 forward_v I I I I #
coedge $-1 $184 $185 $186 $187 forward $73 $-1 #
coedge $-1 $188 $75 $189 $190 reversed $46 $-1 #
coedge $-1 $75 $188 $191 $192 forward $46 $-1 #
coedge $-1 $193 $194 $75 $120 forward $114 $-1 #
edge $-1 $195 -40.24613813558846 $196 40.24613813558846 $75 $197 forward 7 unknown #
face $-1 $198 $199 $28 $-1 $200 reversed single #
loop $-1 $-1 $201 $76 #
plane-surface $-1 -63.771984802908058 -22.315157260396795 0 0 1 0 0 0 1 forward_v I I I I #
coedge $-1 $202 $203 $126 $204 forward $77 $-1 #
coedge $-1 $205 $79 $206 $207 reversed $49 $-1 #
coedge $-1 $79 $205 $124 $204 reversed $49 $-1 #
coedge $-1 $208 $209 $79 $128 reversed $210 $-1 #
edge $-1 $211 -10.725097756888283 $212 10.725097756888283 $127 $213 forward 7 unknown #
face $-1 $214 $215 $29 $-1 $216 forward single #
loop $-1 $-1 $217 $80 #
plane-surface $-1 17.56531039934584 76.329594692298286 141.79985996772686 -1 0 0 0 0.75470958851134928 0.65605901945558964 forward_v I I I I #
coedge $-1 $218 $219 $220 $221 reversed $81 $-1 #
coedge $-1 $134 $83 $222 $223 reversed $52 $-1 #
coedge $-1 $83 $133 $218 $224 reversed $52 $-1 #
coedge $-1 $220 $225 $83 $136 forward $215 $-1 #
edge $-1 $226 -2.0813407894393166 $227 3.956218795398307 $135 $228 forward 7 unknown #
loop $-1 $-1 $142 $84 #
plane-surface $-1 6.3359195602989189 -12.561545708628287 64.527972479518468 0 0.75470958851134928 0.65605901945558964 1 0 0 forward_v I I I I #
loop $-1 $-1 $229 $54 #
coedge $-1 $140 $140 $141 $230 reversed $85 $-1 #
coedge $-1 $141 $141 $140 $230 forward $87 $-1 #
coedge $-1 $142 $142 $88 $143 forward $137 $-1 #
edge $-1 $231 -1.340633539313084e-015 $231 6.2831853071795987 $142 $232 forward 7 unknown #
loop $-1 $-1 $149 $89 #
plane-surface $-1 6.3359195602989189 -12.561545708628287 64.527972479518468 0 0.75470958851134928 0.65605901945558964 1 0 0 forward_v I I I I #
loop $-1 $-1 $233 $57 #
coedge $-1 $147 $147 $148 $234 reversed $90 $-1 #
coedge $-1 $148 $148 $147 $234 forward $92 $-1 #
coedge $-1 $149 $149 $93 $150 forward $144 $-1 #
edge $-1 $235 -1.340633539313084e-015 $235 6.2831853071795987 $149 $236 forward 7 unknown #
face $-1 $237 $238 $32 $-1 $239 forward single #
loop $-1 $-1 $240 $94 #
plane-surface $-1 -49.128902491110679 -139.02636439973887 66.350139514163018 1 0 0 0 0.83867057594974714 -0.54463902268945019 forward_v I I I I #
coedge $-1 $241 $242 $243 $244 reversed $95 $-1 #
coedge $-1 $156 $97 $245 $246 reversed $61 $-1 #
coedge $-1 $97 $155 $241 $247 reversed $61 $-1 #
coedge $-1 $243 $248 $97 $158 forward $238 $-1 #
edge $-1 $249 29.267044064280974 $250 34.802324818448469 $157 $251 forward 7 unknown #
loop $-1 $-1 $164 $98 #
plane-surface $-1 -40.509763583414724 -40.246138135588467 2.2015125844240515 0 -0.83867057594974714 0.54463902268945019 1 0 0 forward_v I I I I #
loop $-1 $-1 $252 $63 #
coedge $-1 $162 $162 $163 $253 reversed $99 $-1 #
coedge $-1 $163 $163 $162 $253 forward $101 $-1 #
coedge $-1 $164 $164 $102 $165 forward $159 $-1 #
edge $-1 $254 -1.3443307357375898e-015 $254 6.2831853071795987 $164 $255 forward 7 unknown #
loop $-1 $-1 $171 $103 #
plane-surface $-1 -40.509763583414724 -40.246138135588467 2.2015125844240515 0 -0.83867057594974714 0.54463902268945019 1 0 0 forward_v I I I I #
loop $-1 $-1 $256 $66 #
coedge $-1 $169 $169 $170 $257 reversed $104 $-1 #
coedge $-1 $170 $170 $169 $257 forward $106 $-1 #
coedge $-1 $171 $171 $107 $172 forward $166 $-1 #
edge $-1 $258 -1.3443307357375898e-015 $258 6.2831853071795987 $171 $259 forward 7 unknown #
loop $-1 $-1 $178 $108 #
plane-surface $-1 -40.509763583414724 -40.246138135588467 2.2015125844240515 0 -0.83867057594974714 0.54463902268945019 1 0 0 forward_v I I I I #
loop $-1 $-1 $260 $69 #
coedge $-1 $176 $176 $177 $261 reversed $109 $-1 #
coedge $-1 $177 $177 $176 $261 forward $111 $-1 #
coedge $-1 $178 $178 $112 $179 forward $173 $-1 #
edge $-1 $262 -1.3443307357375898e-015 $262 6.2831853071795987 $178 $263 forward 7 unknown #
face $-1 $264 $265 $27 $-1 $266 reversed single #
loop $-1 $-1 $189 $113 #
plane-surface $-1 0 -40.24613813558846 0 0 1 0 0 0 1 forward_v I I I I #
coedge $-1 $194 $193 $267 $268 forward $114 $-1 #
coedge $-1 $269 $116 $270 $271 forward $73 $-1 #
coedge $-1 $116 $269 $272 $273 forward $73 $-1 #
coedge $-1 $274 $275 $116 $187 reversed $276 $-1 #
edge $-1 $277 -40.24613813558846 $278 40.24613813558846 $186 $279 forward 7 unknown #
coedge $-1 $118 $117 $269 $280 reversed $46 $-1 #
coedge $-1 $281 $272 $117 $190 forward $181 $-1 #
edge $-1 $282 -10.725097756888283 $195 10.725097756888283 $117 $283 forward 7 unknown #
coedge $-1 $270 $284 $118 $192 reversed $265 $-1 #
edge $-1 $285 -10.725097756888283 $196 10.725097756888283 $191 $286 forward 7 unknown #
coedge $-1 $183 $119 $284 $287 forward $114 $-1 #
coedge $-1 $119 $183 $281 $288 forward $114 $-1 #
vertex $-1 $120 $289 #
vertex $-1 $287 $290 #
straight-curve $-1 -58.890957365642265 0 -10.725097756888283 0 1 0 I I #
face $-1 $291 $210 $28 $-1 $292 reversed single #
loop $-1 $-1 $293 $121 #
plane-surface $-1 -68.653012240173851 -20.555549941104346 0 1 0 0 0 0 -1 forward_v I I I I #
coedge $-1 $294 $295 $296 $297 forward $122 $-1 #
coedge $-1 $298 $124 $294 $299 forward $77 $-1 #
coedge $-1 $124 $298 $208 $300 forward $77 $-1 #
edge $-1 $211 18.795942621811896 $301 22.315157260396795 $124 $302 forward 7 unknown #
coedge $-1 $126 $125 $303 $304 forward $49 $-1 #
coedge $-1 $305 $306 $125 $207 forward $307 $-1 #
edge $-1 $308 -22.315157260396795 $212 -18.795942621811896 $206 $309 forward 7 unknown #
coedge $-1 $310 $127 $203 $300 reversed $210 $-1 #
coedge $-1 $127 $310 $305 $311 reversed $210 $-1 #
loop $-1 $-1 $127 $198 #
vertex $-1 $204 $312 #
vertex $-1 $311 $313 #
straight-curve $-1 -58.890957365642265 -18.795942621811896 0 0 0 1 I I #
face $-1 $-1 $314 $29 $-1 $315 reversed single #
loop $-1 $-1 $135 $129 #
plane-surface $-1 0 0 10.725097756888283 0 0 1 1 0 0 forward_v I I I I #
coedge $-1 $316 $317 $318 $319 reversed $130 $-1 #
coedge $-1 $320 $132 $134 $224 forward $81 $-1 #
coedge $-1 $132 $320 $316 $321 forward $81 $-1 #
coedge $-1 $318 $135 $132 $221 forward $215 $-1 #
edge $-1 $227 -8.0614310588974618 $322 14.397350619196381 $220 $323 forward 7 unknown #
coedge $-1 $324 $325 $133 $223 forward $314 $-1 #
edge $-1 $326 -67.120250207306725 $226 -60.174832226975148 $222 $327 forward 7 unknown #
edge $-1 $227 71.28950730406828 $326 80.49227627117692 $134 $328 forward 7 unknown #
coedge $-1 $135 $318 $324 $329 forward $215 $-1 #
vertex $-1 $223 $330 #
vertex $-1 $136 $331 #
straight-curve $-1 -4.8934712787480024 38.164797346149143 10.725097756888289 0 -1 0 I I #
coedge $-1 $229 $229 $-1 $332 reversed $139 $-1 #
edge $-1 $333 0 $333 6.2831853071796004 $140 $334 forward 7 unknown #
vertex $-1 $143 $335 #
ellipse-curve $-1 1.5233234864216598 37.227358343169648 7.2523887667224844 0 0.75470958851134928 0.65605901945558964 1 0 0 1 I I #
coedge $-1 $233 $233 $-1 $336 reversed $146 $-1 #
edge $-1 $337 0 $337 6.2831853071796004 $147 $338 forward 7 unknown #
vertex $-1 $150 $339 #
ellipse-curve $-1 11.148515634176164 37.227358343169648 7.2523887667224844 0 0.75470958851134928 0.65605901945558964 1 0 0 1 I I #
face $-1 $-1 $340 $32 $-1 $341 reversed single #
loop $-1 $-1 $157 $151 #
plane-surface $-1 0 0 10.725097756888283 0 0 1 1 0 0 forward_v I I I I #
coedge $-1 $342 $343 $344 $345 reversed $152 $-1 #
coedge $-1 $346 $154 $156 $247 forward $95 $-1 #
coedge $-1 $154 $346 $342 $347 forward $95 $-1 #
coedge $-1 $344 $157 $154 $244 forward $238 $-1 #
edge $-1 $250 11.635742884011403 $348 28.874020699403317 $243 $349 forward 7 unknown #
coedge $-1 $350 $351 $155 $246 forward $340 $-1 #
edge $-1 $352 -30.973557172657447 $249 -22.449972000193227 $245 $353 forward 7 unknown #
edge $-1 $250 -10.163209986008813 $352 -1.3181006846785195e-014 $156 $354 forward 7 unknown #
coedge $-1 $157 $344 $350 $355 forward $238 $-1 #
vertex $-1 $158 $356 #
vertex $-1 $158 $357 #
straight-curve $-1 -31.890624675718765 -69.513182199869433 10.725097756888282 0 1 0 I I #
coedge $-1 $252 $252 $-1 $358 reversed $161 $-1 #
edge $-1 $359 0 $359 6.2831853071796004 $162 $360 forward 7 unknown #
vertex $-1 $165 $361 #
ellipse-curve $-1 -45.681246928032301 -37.478497758504716 6.4633051706561711 0 -0.83867057594974714 0.54463902268945019 1 0 0 1 I I #
coedge $-1 $256 $256 $-1 $362 reversed $168 $-1 #
edge $-1 $363 0 $363 6.2831853071796004 $169 $364 forward 7 unknown #
vertex $-1 $172 $365 #
ellipse-curve $-1 -40.509763583414724 -37.478497758504716 6.4633051706561711 0 -0.83867057594974714 0.54463902268945019 1 0 0 1 I I #
coedge $-1 $260 $260 $-1 $366 reversed $175 $-1 #
edge $-1 $367 0 $367 6.2831853071796004 $176 $368 forward 7 unknown #
vertex $-1 $179 $369 #
ellipse-curve $-1 -35.338280238797154 -37.478497758504716 6.4633051706561711 0 -0.83867057594974714 0.54463902268945019 1 0 0 1 I I #
face $-1 $-1 $276 $27 $-1 $370 reversed single #
loop $-1 $-1 $371 $180 #
plane-surface $-1 0 40.24613813558846 0 0 -1 0 0 0 -1 forward_v I I I I #
coedge $-1 $275 $274 $183 $268 reversed $276 $-1 #
edge $-1 $372 -40.24613813558846 $373 40.24613813558846 $267 $374 forward 7 unknown #
coedge $-1 $185 $184 $188 $280 forward $73 $-1 #
coedge $-1 $371 $191 $184 $271 reversed $265 $-1 #
edge $-1 $278 -58.890957365642265 $285 58.890957365642265 $270 $375 forward 7 unknown #
coedge $-1 $189 $376 $185 $273 reversed $181 $-1 #
edge $-1 $282 -58.890957365642265 $277 58.890957365642265 $272 $377 forward 7 unknown #
coedge $-1 $267 $186 $376 $378 forward $276 $-1 #
coedge $-1 $186 $267 $371 $379 reversed $276 $-1 #
loop $-1 $-1 $274 $264 #
vertex $-1 $187 $380 #
vertex $-1 $187 $381 #
straight-curve $-1 58.890957365642265 0 10.725097756888283 0 1 0 I I #
edge $-1 $285 -40.24613813558846 $282 40.24613813558846 $188 $382 forward 7 unknown #
coedge $-1 $376 $189 $194 $288 reversed $181 $-1 #
vertex $-1 $280 $383 #
straight-curve $-1 -58.890957365642265 -40.24613813558846 0 0 0 -1 I I #
coedge $-1 $191 $371 $193 $287 reversed $265 $-1 #
vertex $-1 $271 $384 #
straight-curve $-1 -58.890957365642265 40.24613813558846 0 0 0 -1 I I #
edge $-1 $196 -58.890957365642265 $372 58.890957365642265 $284 $385 forward 7 unknown #
edge $-1 $373 -58.890957365642265 $195 58.890957365642265 $281 $386 forward 7 unknown #
point $-1 -58.890957365642265 -40.24613813558846 -10.725097756888283 #
point $-1 -58.890957365642265 40.24613813558846 -10.725097756888283 #
face $-1 $-1 $307 $28 $-1 $387 forward single #
plane-surface $-1 -63.771984802908058 -18.795942621811896 0 0 -1 0 0 0 -1 forward_v I I I I #
coedge $-1 $388 $389 $310 $390 forward $199 $-1 #
coedge $-1 $303 $201 $202 $299 reversed $122 $-1 #
coedge $-1 $201 $303 $306 $391 reversed $122 $-1 #
coedge $-1 $389 $388 $201 $297 reversed $199 $-1 #
edge $-1 $392 -10.725097756888283 $393 10.725097756888283 $296 $394 forward 7 unknown #
coedge $-1 $203 $202 $388 $395 forward $77 $-1 #
edge $-1 $301 -4.8810274372657929 $393 4.8810274372657929 $294 $396 forward 7 unknown #
edge $-1 $397 -4.8810274372657929 $211 4.8810274372657929 $208 $398 forward 7 unknown #
vertex $-1 $299 $399 #
straight-curve $-1 -58.890957365642265 0 -10.725097756888283 0 -1 0 I I #
coedge $-1 $295 $294 $205 $304 reversed $122 $-1 #
edge $-1 $308 -10.725097756888283 $301 10.725097756888283 $303 $400 forward 7 unknown #
coedge $-1 $401 $206 $209 $311 forward $307 $-1 #
coedge $-1 $206 $401 $295 $391 forward $307 $-1 #
loop $-1 $-1 $206 $291 #
vertex $-1 $207 $402 #
straight-curve $-1 -58.890957365642265 0 10.725097756888283 0 1 0 I I #
coedge $-1 $209 $208 $293 $390 reversed $210 $-1 #
edge $-1 $212 -4.8810274372657929 $403 4.8810274372657929 $209 $404 forward 7 unknown #
point $-1 -58.890957365642265 -18.795942621811896 -10.725097756888283 #
point $-1 -58.890957365642265 -18.795942621811896 10.725097756888283 #
loop $-1 $-1 $222 $214 #
plane-surface $-1 0 40.24613813558846 0 0 -1 0 0 0 -1 forward_v I I I I #
coedge $-1 $317 $217 $219 $321 reversed $130 $-1 #
coedge $-1 $217 $316 $405 $406 reversed $130 $-1 #
coedge $-1 $225 $220 $217 $319 forward $215 $-1 #
edge $-1 $322 -3.956218795398307 $407 2.0813407894393166 $318 $408 forward 7 unknown #
coedge $-1 $219 $218 $325 $409 reversed $81 $-1 #
edge $-1 $410 -80.49227627117692 $322 -71.28950730406828 $316 $411 forward 7 unknown #
vertex $-1 $221 $412 #
straight-curve $-1 3.1679597801494594 34.208578550750836 10.725097756888275 1 0 0 I I #
coedge $-1 $405 $222 $225 $329 reversed $314 $-1 #
coedge $-1 $222 $405 $320 $409 forward $314 $-1 #
vertex $-1 $223 $413 #
straight-curve $-1 -4.8934712787480024 40.24613813558846 70.89992998386343 0 0 1 I I #
straight-curve $-1 -4.8934712787480024 -12.561545708628287 64.527972479518468 0 0.65605901945558964 -0.75470958851134928 I I #
edge $-1 $407 -17.56531039934584 $226 4.8934712787480024 $324 $414 forward 7 unknown #
point $-1 -4.8934712787480024 40.24613813558846 10.725097756888283 #
point $-1 -4.8934712787480024 34.208578550750836 10.725097756888282 #
edge $-1 $415 1 $415 0 $229 $-1 forward 7 unknown #
vertex $-1 $230 $416 #
ellipse-curve $-1 1.5233234864216598 35.238077733393098 5.5231335589726047 0 0.75470958851134928 0.65605901945558964 1 0 0 1 I I #
point $-1 2.5233234864216598 37.227358343169648 7.2523887667224862 #
edge $-1 $417 1 $417 0 $233 $-1 forward 7 unknown #
vertex $-1 $234 $418 #
ellipse-curve $-1 11.148515634176164 35.238077733393098 5.5231335589726047 0 0.75470958851134928 0.65605901945558964 1 0 0 1 I I #
point $-1 12.148515634176164 37.227358343169648 7.2523887667224862 #
loop $-1 $-1 $245 $237 #
plane-surface $-1 0 -40.24613813558846 0 0 1 0 0 0 1 forward_v I I I I #
coedge $-1 $343 $240 $242 $347 reversed $152 $-1 #
coedge $-1 $240 $342 $419 $420 reversed $152 $-1 #
coedge $-1 $248 $243 $240 $345 forward $238 $-1 #
edge $-1 $348 -34.802324818448469 $421 -29.267044064280974 $344 $422 forward 7 unknown #
coedge $-1 $242 $241 $351 $423 reversed $95 $-1 #
edge $-1 $424 1.3181006846785195e-014 $348 10.163209986008813 $342 $425 forward 7 unknown #
vertex $-1 $244 $426 #
straight-curve $-1 -20.254881791707362 -34.710857381420965 10.725097756888283 -1 0 0 I I #
coedge $-1 $419 $245 $248 $355 reversed $340 $-1 #
coedge $-1 $245 $419 $346 $423 forward $340 $-1 #
vertex $-1 $246 $427 #
straight-curve $-1 -31.890624675718765 -40.24613813558846 33.175069757081509 0 0 1 I I #
straight-curve $-1 -31.890624675718765 -40.246138135588467 2.2015125844240515 0 -0.54463902268945019 -0.83867057594974714 I I #
edge $-1 $421 -49.128902491110679 $249 -31.890624675718765 $350 $428 forward 7 unknown #
point $-1 -31.890624675718765 -40.24613813558846 10.725097756888283 #
point $-1 -31.890624675718765 -34.710857381420965 10.725097756888283 #
edge $-1 $429 1 $429 0 $252 $-1 forward 7 unknown #
vertex $-1 $253 $430 #
ellipse-curve $-1 -45.681246928032301 -34.353632743485676 4.4339941674782031 0 -0.83867057594974714 0.54463902268945019 1 0 0 1 I I #
point $-1 -44.681246928032301 -37.478497758504709 6.4633051706561648 #
edge $-1 $431 1 $431 0 $256 $-1 forward 7 unknown #
vertex $-1 $257 $432 #
ellipse-curve $-1 -40.509763583414724 -34.353632743485676 4.4339941674782031 0 -0.83867057594974714 0.54463902268945019 1 0 0 1 I I #
point $-1 -39.509763583414724 -37.478497758504709 6.4633051706561648 #
edge $-1 $433 1 $433 0 $260 $-1 forward 7 unknown #
vertex $-1 $261 $434 #
ellipse-curve $-1 -35.338280238797154 -34.353632743485676 4.4339941674782031 0 -0.83867057594974714 0.54463902268945019 1 0 0 1 I I #
point $-1 -34.338280238797154 -37.478497758504709 6.4633051706561648 #
plane-surface $-1 58.890957365642265 0 0 -1 0 0 0 0 1 forward_v I I I I #
coedge $-1 $284 $270 $275 $379 forward $265 $-1 #
vertex $-1 $268 $435 #
vertex $-1 $378 $436 #
straight-curve $-1 58.890957365642265 0 -10.725097756888283 0 -1 0 I I #
straight-curve $-1 0 40.24613813558846 10.725097756888283 -1 0 0 I I #
coedge $-1 $272 $281 $274 $378 reversed $181 $-1 #
straight-curve $-1 0 -40.24613813558846 10.725097756888283 1 0 0 I I #
edge $-1 $277 -10.725097756888283 $373 10.725097756888283 $274 $437 forward 7 unknown #
edge $-1 $278 -10.725097756888283 $372 10.725097756888283 $275 $438 forward 7 unknown #
point $-1 58.890957365642265 -40.24613813558846 10.725097756888283 #
point $-1 58.890957365642265 40.24613813558846 10.725097756888283 #
straight-curve $-1 -58.890957365642265 0 10.725097756888283 0 -1 0 I I #
point $-1 -58.890957365642265 -40.24613813558846 10.725097756888283 #
point $-1 -58.890957365642265 40.24613813558846 10.725097756888283 #
straight-curve $-1 0 40.24613813558846 -10.725097756888283 1 0 0 I I #
straight-curve $-1 0 -40.24613813558846 -10.725097756888283 -1 0 0 I I #
plane-surface $-1 0 0 10.725097756888283 0 0 1 1 0 0 forward_v I I I I #
coedge $-1 $296 $293 $298 $395 reversed $199 $-1 #
coedge $-1 $293 $296 $401 $439 reversed $199 $-1 #
edge $-1 $403 -10.725097756888283 $397 10.725097756888283 $310 $440 forward 7 unknown #
edge $-1 $392 -4.8810274372657929 $308 4.8810274372657929 $295 $441 forward 7 unknown #
vertex $-1 $439 $442 #
vertex $-1 $395 $443 #
straight-curve $-1 -68.653012240173851 -22.315157260396795 0 0 0 -1 I I #
edge $-1 $393 -1.7596073192924493 $397 1.7596073192924493 $388 $444 forward 7 unknown #
straight-curve $-1 -63.771984802908058 -22.315157260396795 -10.725097756888283 -1 0 0 I I #
vertex $-1 $300 $445 #
straight-curve $-1 -63.771984802908058 -18.795942621811896 -10.725097756888283 1 0 0 I I #
point $-1 -58.890957365642265 -22.315157260396795 -10.725097756888283 #
straight-curve $-1 -58.890957365642265 -22.315157260396795 0 0 0 -1 I I #
coedge $-1 $306 $305 $389 $439 forward $307 $-1 #
point $-1 -58.890957365642265 -22.315157260396795 10.725097756888283 #
vertex $-1 $311 $446 #
straight-curve $-1 -63.771984802908058 -18.795942621811896 10.725097756888283 -1 0 0 I I #
coedge $-1 $325 $324 $317 $406 forward $314 $-1 #
edge $-1 $407 60.174832226975148 $410 67.120250207306725 $405 $447 forward 7 unknown #
vertex $-1 $329 $448 #
straight-curve $-1 17.56531039934584 38.164797346149143 10.725097756888289 0 1 0 I I #
edge $-1 $410 -14.397350619196381 $326 8.0614310588974618 $325 $449 forward 7 unknown #
vertex $-1 $409 $450 #
straight-curve $-1 17.56531039934584 -12.561545708628287 64.527972479518468 0 -0.65605901945558964 0.75470958851134928 I I #
point $-1 17.56531039934584 34.208578550750836 10.725097756888282 #
point $-1 -4.8934712787480024 40.24613813558846 3.779679776556705 #
straight-curve $-1 0 40.24613813558846 10.725097756888283 -1 0 0 I I #
vertex $-1 $332 $451 #
point $-1 2.5233234864216598 35.238077733393098 5.5231335589726047 #
vertex $-1 $336 $452 #
point $-1 12.148515634176164 35.238077733393098 5.5231335589726047 #
coedge $-1 $351 $350 $343 $420 forward $340 $-1 #
edge $-1 $421 22.449972000193227 $424 30.973557172657447 $419 $453 forward 7 unknown #
vertex $-1 $355 $454 #
straight-curve $-1 -49.128902491110679 -69.513182199869433 10.725097756888282 0 -1 0 I I #
edge $-1 $424 -28.874020699403317 $352 -11.635742884011403 $351 $455 forward 7 unknown #
vertex $-1 $423 $456 #
straight-curve $-1 -49.128902491110679 -40.246138135588467 2.2015125844240515 0 0.54463902268945019 0.83867057594974714 I I #
point $-1 -49.128902491110679 -34.710857381420965 10.725097756888283 #
point $-1 -31.890624675718765 -40.24613813558846 2.2015125844240626 #
straight-curve $-1 0 -40.24613813558846 10.725097756888283 1 0 0 I I #
vertex $-1 $358 $457 #
point $-1 -44.681246928032301 -34.353632743485676 4.4339941674782031 #
vertex $-1 $362 $458 #
point $-1 -39.509763583414724 -34.353632743485676 4.4339941674782031 #
vertex $-1 $366 $459 #
point $-1 -34.338280238797154 -34.353632743485676 4.4339941674782031 #
point $-1 58.890957365642265 40.24613813558846 -10.725097756888283 #
point $-1 58.890957365642265 -40.24613813558846 -10.725097756888283 #
straight-curve $-1 58.890957365642265 -40.24613813558846 0 0 0 -1 I I #
straight-curve $-1 58.890957365642265 40.24613813558846 0 0 0 -1 I I #
edge $-1 $403 -1.7596073192924493 $392 1.7596073192924493 $389 $460 forward 7 unknown #
straight-curve $-1 -68.653012240173851 -18.795942621811896 0 0 0 -1 I I #
straight-curve $-1 -63.771984802908058 -22.315157260396795 10.725097756888283 1 0 0 I I #
point $-1 -68.653012240173851 -22.315157260396795 10.725097756888283 #
point $-1 -68.653012240173851 -22.315157260396795 -10.725097756888283 #
straight-curve $-1 -68.653012240173851 -20.555549941104346 -10.725097756888283 0 1 0 I I #
point $-1 -68.653012240173851 -18.795942621811896 -10.725097756888283 #
point $-1 -68.653012240173851 -18.795942621811896 10.725097756888283 #
straight-curve $-1 17.56531039934584 40.24613813558846 70.89992998386343 0 0 -1 I I #
point $-1 17.56531039934584 40.24613813558846 10.725097756888283 #
straight-curve $-1 3.1679597801494594 40.246138135588467 3.7796797765566907 -1 0 0 I I #
point $-1 17.56531039934584 40.24613813558846 3.779679776556705 #
point $-1 1.5233234864216598 34.483368144881752 4.8670745395170147 #
point $-1 11.148515634176164 34.483368144881752 4.8670745395170147 #
straight-curve $-1 -49.128902491110679 -40.24613813558846 33.175069757081509 0 0 -1 I I #
point $-1 -49.128902491110679 -40.24613813558846 10.725097756888283 #
straight-curve $-1 -20.254881791707362 -40.24613813558846 2.2015125844240728 1 0 0 I I #
point $-1 -49.128902491110679 -40.24613813558846 2.2015125844240626 #
point $-1 -45.681246928032301 -33.514962167535927 3.8893551447887527 #
point $-1 -40.509763583414724 -33.514962167535927 3.8893551447887527 #
point $-1 -35.338280238797154 -33.514962167535927 3.8893551447887527 #
straight-curve $-1 -68.653012240173851 -20.555549941104346 10.725097756888283 0 -1 0 I I #
End-of-ACIS-data 