500 0 5 0           
7 Unknown 11 ACIS 5.0 NT 24 Fri Mar 26 14:48:37 1999 
-1 9.9999999999999995e-007 1e-010 
body $-1 $5 $-1 $6 #
body $-1 $7 $-1 $8 #
body $-1 $9 $-1 $10 #
body $-1 $11 $-1 $12 #
body $-1 $13 $-1 $14 #
lump $-1 $-1 $15 $0 #
transform $-1 1 0 0 0 1 0 0 0 1 49.696340830713829 27.964296452857592 8.0632791929759779 1 rotate no_reflect no_shear #
lump $-1 $-1 $16 $1 #
transform $-1 1 0 0 0 1 0 0 0 1 49.696340830713829 27.964296452857592 8.0632791929759779 1 rotate no_reflect no_shear #
lump $-1 $-1 $17 $2 #
transform $-1 1 0 0 0 1 0 0 0 1 49.696340830713829 27.964296452857592 8.0632791929759779 1 rotate no_reflect no_shear #
lump $-1 $-1 $18 $3 #
transform $-1 1 0 0 0 1 0 0 0 1 49.696340830713829 27.964296452857592 8.0632791929759779 1 rotate no_reflect no_shear #
lump $-1 $-1 $19 $4 #
transform $-1 1 0 0 0 1 0 0 0 1 49.696340830713829 27.964296452857592 8.0632791929759779 1 rotate no_reflect no_shear #
shell $-1 $-1 $-1 $20 $-1 $5 #
shell $-1 $-1 $-1 $21 $-1 $7 #
shell $-1 $-1 $-1 $22 $-1 $9 #
shell $-1 $-1 $-1 $23 $-1 $11 #
shell $-1 $-1 $-1 $24 $-1 $13 #
face $-1 $25 $26 $15 $-1 $27 forward single #
face $-1 $28 $29 $16 $-1 $30 forward single #
face $-1 $31 $32 $17 $-1 $33 reversed single #
face $-1 $34 $35 $18 $-1 $36 forward single #
face $-1 $37 $38 $19 $-1 $39 forward single #
face $-1 $40 $41 $15 $-1 $42 reversed single #
loop $-1 $-1 $43 $20 #
plane-surface $-1 0 0 8.0632791929759779 0 0 1 1 0 0 forward_v I I I I #
face $-1 $44 $45 $16 $-1 $46 reversed single #
loop $-1 $-1 $47 $21 #
plane-surface $-1 0 -24.491109134592804 3.9979599846065685 0 0 1 1 0 0 forward_v I I I I #
face $-1 $48 $49 $17 $-1 $50 reversed single #
loop $-1 $-1 $51 $22 #
plane-surface $-1 -102.36643826235266 -14.701626725136856 87.263892329174269 0 -1 0 0.52991927123019833 0 -0.84804809178421925 forward_v I I I I #
face $-1 $52 $53 $18 $-1 $54 forward single #
loop $-1 $55 $56 $23 #
cone-surface $-1 -45.359201326533331 -19.21326607598769 5.0946747050379813 0.52991927123019833 0 -0.84804809178421925 0.42402404589210962 0 0.26495963561509916 1 I I 0 1 0.5 forward I I I I #
face $-1 $57 $58 $19 $-1 $59 forward single #
loop $-1 $60 $61 $24 #
cone-surface $-1 -45.359201326533331 -16.506282465477192 5.0946747050379813 0.52991927123019833 0 -0.84804809178421925 0.42402404589210962 0 0.26495963561509916 1 I I 0 1 0.5 forward I I I I #
face $-1 $62 $63 $15 $-1 $64 reversed single #
loop $-1 $-1 $65 $25 #
plane-surface $-1 0 0 -8.0632791929759779 0 0 1 1 0 0 forward_v I I I I #
coedge $-1 $66 $67 $68 $69 forward $26 $-1 #
face $-1 $70 $71 $16 $-1 $72 reversed single #
loop $-1 $-1 $73 $28 #
plane-surface $-1 0 -24.491109134592804 0.99795998460656854 0 0 1 1 0 0 forward_v I I I I #
coedge $-1 $74 $75 $76 $77 reversed $29 $-1 #
face $-1 $78 $79 $17 $-1 $80 forward single #
loop $-1 $-1 $81 $31 #
plane-surface $-1 -49.696340830713815 -17.859774270732437 2.9741183088841865 -0.52991927123019833 0 0.84804809178421925 0.84804809178421925 0 0.52991927123019833 forward_v I I I I #
coedge $-1 $82 $83 $84 $85 reversed $32 $-1 #
face $-1 $-1 $86 $18 $-1 $87 forward single #
loop $-1 $88 $89 $34 #
cone-surface $-1 -44.961761873110682 -19.21326607598769 4.4586386361998169 0.52991927123019833 0 -0.84804809178421925 0.21201202294605481 0 0.13247981780754958 1 I I -0.70710678118654746 0.70710678118654746 0.25 forward I I I I #
loop $-1 $-1 $90 $23 #
coedge $-1 $56 $56 $91 $92 reversed $35 $-1 #
face $-1 $-1 $93 $19 $-1 $94 forward single #
loop $-1 $95 $96 $37 #
cone-surface $-1 -44.961761873110682 -16.506282465477192 4.4586386361998169 0.52991927123019833 0 -0.84804809178421925 0.21201202294605481 0 0.13247981780754958 1 I I -0.70710678118654746 0.70710678118654746 0.25 forward I I I I #
loop $-1 $-1 $97 $24 #
coedge $-1 $61 $61 $98 $99 reversed $38 $-1 #
face $-1 $100 $101 $15 $-1 $102 reversed single #
loop $-1 $-1 $103 $40 #
plane-surface $-1 0 -27.964296452857592 0 0 1 0 0 0 1 forward_v I I I I #
coedge $-1 $104 $105 $106 $107 forward $41 $-1 #
coedge $-1 $108 $43 $109 $110 forward $26 $-1 #
coedge $-1 $43 $108 $111 $112 forward $26 $-1 #
coedge $-1 $113 $114 $43 $69 reversed $115 $-1 #
edge $-1 $116 -27.964296452857592 $117 27.964296452857592 $68 $118 forward 7 unknown #
face $-1 $119 $120 $16 $-1 $121 reversed single #
loop $-1 $-1 $122 $44 #
plane-surface $-1 0 -21.01792181632802 2.4979599846065685 0 -1 0 0 0 -1 forward_v I I I I #
coedge $-1 $123 $124 $125 $126 reversed $45 $-1 #
coedge $-1 $127 $47 $122 $128 forward $29 $-1 #
coedge $-1 $47 $127 $129 $130 reversed $29 $-1 #
coedge $-1 $131 $132 $47 $77 forward $133 $-1 #
edge $-1 $134 8.7723672490316176 $135 15.718741885561187 $76 $136 forward 7 unknown #
face $-1 $137 $138 $17 $-1 $139 forward single #
loop $-1 $-1 $140 $48 #
plane-surface $-1 0 -21.01792181632802 2.4979599846065685 0 -1 0 0 0 -1 forward_v I I I I #
coedge $-1 $141 $142 $143 $144 reversed $49 $-1 #
coedge $-1 $83 $51 $145 $146 reversed $32 $-1 #
coedge $-1 $51 $82 $141 $147 reversed $32 $-1 #
coedge $-1 $143 $148 $51 $85 forward $149 $-1 #
edge $-1 $150 35.568666971611158 $151 40.657827855702955 $84 $152 forward 7 unknown #
loop $-1 $-1 $91 $52 #
plane-surface $-1 -49.696340830713815 -17.859774270732437 2.9741183088841865 -0.52991927123019833 0 0.84804809178421925 0.84804809178421925 0 0.52991927123019833 forward_v I I I I #
loop $-1 $-1 $153 $34 #
coedge $-1 $89 $89 $90 $154 reversed $53 $-1 #
coedge $-1 $90 $90 $89 $154 forward $55 $-1 #
coedge $-1 $91 $91 $56 $92 forward $86 $-1 #
edge $-1 $155 0 $155 6.2831853071796004 $91 $156 forward 7 unknown #
loop $-1 $-1 $98 $57 #
plane-surface $-1 -49.696340830713815 -17.859774270732437 2.9741183088841865 -0.52991927123019833 0 0.84804809178421925 0.84804809178421925 0 0.52991927123019833 forward_v I I I I #
loop $-1 $-1 $157 $37 #
coedge $-1 $96 $96 $97 $158 reversed $58 $-1 #
coedge $-1 $97 $97 $96 $158 forward $60 $-1 #
coedge $-1 $98 $98 $61 $99 forward $93 $-1 #
edge $-1 $159 0 $159 6.2831853071796004 $98 $160 forward 7 unknown #
face $-1 $161 $162 $15 $-1 $163 reversed single #
loop $-1 $-1 $164 $62 #
plane-surface $-1 -49.696340830713829 0 0 1 0 0 0 0 -1 forward_v I I I I #
coedge $-1 $165 $111 $166 $167 forward $63 $-1 #
coedge $-1 $168 $65 $165 $169 forward $41 $-1 #
coedge $-1 $65 $168 $170 $171 forward $41 $-1 #
coedge $-1 $114 $113 $65 $107 reversed $115 $-1 #
edge $-1 $172 -27.964296452857592 $173 27.964296452857592 $106 $174 forward 7 unknown #
coedge $-1 $67 $66 $175 $176 forward $26 $-1 #
coedge $-1 $177 $178 $66 $110 reversed $162 $-1 #
edge $-1 $117 -49.696340830713829 $179 49.696340830713829 $109 $180 forward 7 unknown #
coedge $-1 $103 $181 $67 $112 reversed $63 $-1 #
edge $-1 $182 -49.696340830713829 $116 49.696340830713829 $111 $183 forward 7 unknown #
coedge $-1 $106 $68 $181 $184 forward $115 $-1 #
coedge $-1 $68 $106 $177 $185 reversed $115 $-1 #
loop $-1 $-1 $113 $161 #
vertex $-1 $69 $186 #
vertex $-1 $69 $187 #
straight-curve $-1 49.696340830713829 0 8.0632791929759779 0 1 0 I I #
face $-1 $188 $189 $16 $-1 $190 reversed single #
loop $-1 $-1 $191 $70 #
plane-surface $-1 -49.696340830713829 0 0 1 0 0 0 0 -1 forward_v I I I I #
coedge $-1 $192 $193 $74 $128 reversed $71 $-1 #
coedge $-1 $194 $73 $195 $196 reversed $45 $-1 #
coedge $-1 $73 $194 $197 $198 forward $45 $-1 #
coedge $-1 $132 $131 $73 $126 forward $133 $-1 #
edge $-1 $199 -15.718741885561187 $200 -8.7723672490316176 $125 $201 forward 7 unknown #
coedge $-1 $75 $74 $191 $202 reversed $29 $-1 #
edge $-1 $134 -49.696340830713829 $203 49.696340830713829 $122 $204 forward 7 unknown #
coedge $-1 $205 $206 $75 $130 forward $189 $-1 #
edge $-1 $135 -49.696340830713829 $207 49.696340830713829 $129 $208 forward 7 unknown #
coedge $-1 $125 $76 $206 $209 forward $133 $-1 #
coedge $-1 $76 $125 $192 $210 forward $133 $-1 #
loop $-1 $-1 $76 $188 #
vertex $-1 $77 $211 #
vertex $-1 $209 $212 #
straight-curve $-1 49.696340830713829 -12.245554567296402 3.9979599846065685 0 -1 0 I I #
face $-1 $-1 $149 $17 $-1 $213 reversed single #
loop $-1 $-1 $145 $78 #
plane-surface $-1 0 0 8.0632791929759779 0 0 1 1 0 0 forward_v I I I I #
coedge $-1 $214 $215 $142 $216 reversed $79 $-1 #
coedge $-1 $217 $81 $83 $147 forward $49 $-1 #
coedge $-1 $81 $217 $140 $216 forward $49 $-1 #
coedge $-1 $218 $84 $81 $144 forward $149 $-1 #
edge $-1 $151 5.7717395897706378 $219 12.088034680961801 $143 $220 forward 7 unknown #
coedge $-1 $221 $222 $82 $146 forward $138 $-1 #
edge $-1 $223 -9.6312380375933344 $150 -1.4868783004625001 $145 $224 forward 7 unknown #
edge $-1 $151 -1.675811683274863e-014 $223 9.6036531607491717 $83 $225 forward 7 unknown #
coedge $-1 $84 $218 $221 $226 reversed $149 $-1 #
loop $-1 $-1 $143 $137 #
vertex $-1 $226 $227 #
vertex $-1 $85 $228 #
straight-curve $-1 -49.696340830713829 -14.701626725136856 43.631946164587134 0 0 -1 I I #
coedge $-1 $153 $153 $-1 $229 reversed $88 $-1 #
edge $-1 $230 0 $230 6.2831853071796004 $89 $231 forward 7 unknown #
vertex $-1 $92 $232 #
ellipse-curve $-1 -45.624160962148416 -19.21326607598769 5.5186987509300733 -0.52991927123019833 0 0.84804809178421925 0.42402404589210962 0 0.26495963561509916 1 I I #
coedge $-1 $157 $157 $-1 $233 reversed $95 $-1 #
edge $-1 $234 0 $234 6.2831853071796004 $96 $235 forward 7 unknown #
vertex $-1 $99 $236 #
ellipse-curve $-1 -45.624160962148416 -16.506282465477192 5.5186987509300733 -0.52991927123019833 0 0.84804809178421925 0.42402404589210962 0 0.26495963561509916 1 I I #
face $-1 $-1 $115 $15 $-1 $237 reversed single #
loop $-1 $-1 $177 $100 #
plane-surface $-1 0 27.964296452857592 0 0 -1 0 0 0 -1 forward_v I I I I #
coedge $-1 $238 $175 $178 $239 forward $101 $-1 #
coedge $-1 $181 $103 $104 $169 reversed $63 $-1 #
coedge $-1 $175 $238 $103 $167 reversed $101 $-1 #
edge $-1 $182 -8.0632791929759779 $240 8.0632791929759779 $166 $241 forward 7 unknown #
coedge $-1 $105 $104 $238 $242 forward $41 $-1 #
edge $-1 $173 -49.696340830713829 $240 49.696340830713829 $165 $243 forward 7 unknown #
coedge $-1 $178 $177 $105 $171 reversed $162 $-1 #
edge $-1 $244 -49.696340830713829 $172 49.696340830713829 $170 $245 forward 7 unknown #
vertex $-1 $107 $246 #
vertex $-1 $184 $247 #
straight-curve $-1 49.696340830713829 0 -8.0632791929759779 0 -1 0 I I #
coedge $-1 $164 $166 $108 $176 reversed $101 $-1 #
edge $-1 $179 -27.964296452857592 $182 27.964296452857592 $175 $248 forward 7 unknown #
coedge $-1 $170 $109 $114 $185 forward $162 $-1 #
coedge $-1 $109 $170 $164 $239 reversed $162 $-1 #
vertex $-1 $110 $249 #
straight-curve $-1 0 27.964296452857592 8.0632791929759779 -1 0 0 I I #
coedge $-1 $111 $165 $113 $184 reversed $63 $-1 #
vertex $-1 $176 $250 #
straight-curve $-1 0 -27.964296452857592 8.0632791929759779 1 0 0 I I #
edge $-1 $116 -8.0632791929759779 $173 8.0632791929759779 $113 $251 forward 7 unknown #
edge $-1 $117 -8.0632791929759779 $172 8.0632791929759779 $114 $252 forward 7 unknown #
point $-1 49.696340830713829 -27.964296452857592 8.0632791929759779 #
point $-1 49.696340830713829 27.964296452857592 8.0632791929759779 #
face $-1 $-1 $133 $16 $-1 $253 reversed single #
loop $-1 $-1 $129 $119 #
plane-surface $-1 0 -27.964296452857592 0 0 1 0 0 0 1 forward_v I I I I #
coedge $-1 $254 $255 $127 $202 forward $120 $-1 #
coedge $-1 $197 $122 $132 $210 reversed $71 $-1 #
coedge $-1 $122 $197 $254 $256 reversed $71 $-1 #
coedge $-1 $124 $123 $257 $258 reversed $45 $-1 #
coedge $-1 $206 $205 $123 $196 forward $189 $-1 #
edge $-1 $259 -49.696340830713829 $199 49.696340830713829 $195 $260 forward 7 unknown #
coedge $-1 $193 $192 $124 $198 reversed $71 $-1 #
edge $-1 $261 -49.696340830713829 $200 49.696340830713829 $197 $262 forward 7 unknown #
vertex $-1 $196 $263 #
vertex $-1 $126 $264 #
straight-curve $-1 49.696340830713829 -12.245554567296402 0.99795998460656854 0 1 0 I I #
edge $-1 $207 -15.718741885561187 $203 -8.7723672490316176 $191 $265 forward 7 unknown #
vertex $-1 $202 $266 #
straight-curve $-1 0 -21.01792181632802 3.9979599846065685 -1 0 0 I I #
coedge $-1 $195 $129 $255 $267 forward $189 $-1 #
coedge $-1 $129 $195 $131 $209 reversed $189 $-1 #
vertex $-1 $267 $268 #
straight-curve $-1 0 -27.964296452857592 3.9979599846065685 -1 0 0 I I #
edge $-1 $135 -3.9979599846065685 $199 -0.99795998460656854 $131 $269 forward 7 unknown #
edge $-1 $200 -0.25102000769671573 $134 2.7489799923032843 $132 $270 forward 7 unknown #
point $-1 49.696340830713829 -21.01792181632802 3.9979599846065685 #
point $-1 49.696340830713829 -27.964296452857589 3.9979599846065685 #
plane-surface $-1 -49.696340830713829 0 0 1 0 0 0 0 -1 forward_v I I I I #
coedge $-1 $215 $140 $271 $272 reversed $79 $-1 #
coedge $-1 $140 $214 $218 $273 reversed $79 $-1 #
edge $-1 $274 -9.6036531607491717 $219 1.675811683274863e-014 $140 $275 forward 7 unknown #
coedge $-1 $142 $141 $222 $276 reversed $49 $-1 #
coedge $-1 $148 $143 $215 $273 forward $149 $-1 #
vertex $-1 $273 $277 #
straight-curve $-1 -49.696340830713829 -8.9298871353662186 2.9741183088841785 0 -1 0 I I #
coedge $-1 $271 $145 $148 $226 forward $138 $-1 #
coedge $-1 $145 $271 $217 $276 forward $138 $-1 #
vertex $-1 $146 $278 #
straight-curve $-1 -51.18321913117633 -14.701626725136856 8.0632791929759762 -1 0 0 I I #
straight-curve $-1 -49.696340830713815 -14.701626725136856 2.9741183088841865 0.84804809178421925 0 0.52991927123019833 I I #
edge $-1 $150 14.701626725136856 $279 21.01792181632802 $148 $280 forward 7 unknown #
point $-1 -49.696340830713829 -14.701626725136856 8.0632791929759779 #
point $-1 -49.696340830713829 -14.701626725136856 2.9741183088841776 #
edge $-1 $281 1 $281 0 $153 $-1 forward 7 unknown #
vertex $-1 $154 $282 #
ellipse-curve $-1 -45.094241690918231 -19.21326607598769 4.6706506591458714 -0.52991927123019833 0 0.84804809178421925 0.42402404589210962 0 0.26495963561509916 1 I I #
point $-1 -45.200136916256319 -19.21326607598769 5.7836583865451905 #
edge $-1 $283 1 $283 0 $157 $-1 forward 7 unknown #
vertex $-1 $158 $284 #
ellipse-curve $-1 -45.094241690918231 -16.506282465477192 4.6706506591458714 -0.52991927123019833 0 0.84804809178421925 0.42402404589210962 0 0.26495963561509916 1 I I #
point $-1 -45.200136916256319 -16.506282465477192 5.7836583865451905 #
plane-surface $-1 49.696340830713829 0 0 -1 0 0 0 0 1 forward_v I I I I #
coedge $-1 $166 $164 $168 $242 reversed $101 $-1 #
edge $-1 $179 -8.0632791929759779 $244 8.0632791929759779 $178 $285 forward 7 unknown #
vertex $-1 $242 $286 #
straight-curve $-1 -49.696340830713829 -27.964296452857592 0 0 0 -1 I I #
edge $-1 $240 -27.964296452857592 $244 27.964296452857592 $238 $287 forward 7 unknown #
straight-curve $-1 0 -27.964296452857592 -8.0632791929759779 -1 0 0 I I #
vertex $-1 $171 $288 #
straight-curve $-1 0 27.964296452857592 -8.0632791929759779 1 0 0 I I #
point $-1 49.696340830713829 27.964296452857592 -8.0632791929759779 #
point $-1 49.696340830713829 -27.964296452857592 -8.0632791929759779 #
straight-curve $-1 -49.696340830713829 0 8.0632791929759779 0 -1 0 I I #
point $-1 -49.696340830713829 27.964296452857592 8.0632791929759779 #
point $-1 -49.696340830713829 -27.964296452857592 8.0632791929759779 #
straight-curve $-1 49.696340830713829 -27.964296452857592 0 0 0 -1 I I #
straight-curve $-1 49.696340830713829 27.964296452857592 0 0 0 -1 I I #
plane-surface $-1 49.696340830713829 0 0 -1 0 0 0 0 1 forward_v I I I I #
coedge $-1 $257 $191 $193 $256 forward $120 $-1 #
coedge $-1 $191 $257 $205 $267 reversed $120 $-1 #
edge $-1 $203 -2.7489799923032843 $261 0.25102000769671573 $254 $289 forward 7 unknown #
coedge $-1 $255 $254 $194 $258 forward $120 $-1 #
edge $-1 $261 8.7723672490316176 $259 15.718741885561187 $257 $290 forward 7 unknown #
vertex $-1 $196 $291 #
straight-curve $-1 0 -27.964296452857592 0.99795998460656854 1 0 0 I I #
vertex $-1 $258 $292 #
straight-curve $-1 0 -21.01792181632802 0.99795998460656854 1 0 0 I I #
point $-1 49.696340830713829 -27.964296452857589 0.99795998460656854 #
point $-1 49.696340830713829 -21.01792181632802 0.99795998460656854 #
straight-curve $-1 -49.696340830713829 -12.245554567296402 3.9979599846065685 0 1 0 I I #
point $-1 -49.696340830713829 -21.01792181632802 3.9979599846065685 #
edge $-1 $207 -3.9979599846065685 $259 -0.99795998460656854 $255 $293 forward 7 unknown #
point $-1 -49.696340830713829 -27.964296452857589 3.9979599846065685 #
straight-curve $-1 49.696340830713829 -27.964296452857592 0 0 0 -1 I I #
straight-curve $-1 49.696340830713829 -21.01792181632802 1.2489799923032843 0 0 1 I I #
coedge $-1 $222 $221 $214 $272 forward $138 $-1 #
edge $-1 $279 1.4868783004625001 $274 9.6312380375933344 $271 $294 forward 7 unknown #
edge $-1 $219 -40.657827855702955 $279 -35.568666971611158 $218 $295 forward 7 unknown #
vertex $-1 $276 $296 #
straight-curve $-1 -49.696340830713815 -21.01792181632802 2.9741183088841865 -0.84804809178421925 0 -0.52991927123019833 I I #
edge $-1 $274 -12.088034680961801 $223 -5.7717395897706378 $222 $297 forward 7 unknown #
point $-1 -49.696340830713829 -21.01792181632802 2.9741183088841776 #
point $-1 -41.551981093582995 -14.701626725136856 8.0632791929759779 #
vertex $-1 $273 $298 #
straight-curve $-1 -49.696340830713829 0 8.0632791929759779 0 -1 0 I I #
vertex $-1 $229 $299 #
point $-1 -44.670217645026121 -19.21326607598769 4.9356102947609708 #
vertex $-1 $233 $300 #
point $-1 -44.670217645026121 -16.506282465477192 4.9356102947609708 #
straight-curve $-1 -49.696340830713829 27.964296452857592 0 0 0 -1 I I #
point $-1 -49.696340830713829 -27.964296452857592 -8.0632791929759779 #
straight-curve $-1 -49.696340830713829 0 -8.0632791929759779 0 1 0 I I #
point $-1 -49.696340830713829 27.964296452857592 -8.0632791929759779 #
straight-curve $-1 -49.696340830713829 -21.01792181632802 1.2489799923032843 0 0 -1 I I #
straight-curve $-1 -49.696340830713829 -12.245554567296402 0.99795998460656854 0 -1 0 I I #
point $-1 -49.696340830713829 -27.964296452857589 0.99795998460656854 #
point $-1 -49.696340830713829 -21.01792181632802 0.99795998460656854 #
straight-curve $-1 -49.696340830713829 -27.964296452857592 0 0 0 -1 I I #
straight-curve $-1 -51.18321913117633 -21.01792181632802 8.0632791929759762 1 0 0 I I #
straight-curve $-1 -49.696340830713829 -21.01792181632802 43.631946164587134 0 0 1 I I #
point $-1 -41.551981093582995 -21.01792181632802 8.0632791929759779 #
straight-curve $-1 -41.551981093582995 -8.9298871353662186 8.0632791929759762 0 1 0 I I #
point $-1 -49.696340830713829 -21.01792181632802 8.0632791929759779 #
point $-1 -44.829282055303132 -19.21326607598769 4.2466266132537625 #
point $-1 -44.829282055303132 -16.506282465477192 4.2466266132537625 #
End-of-ACIS-data 