500 0 13 0           
7 Unknown 11 ACIS 5.0 NT 24 Fri Mar 26 03:00:12 1999 
-1 9.9999999999999995e-007 1e-010 
body $-1 $13 $-1 $14 #
body $-1 $15 $-1 $16 #
body $-1 $17 $-1 $18 #
body $-1 $19 $-1 $20 #
body $-1 $21 $-1 $22 #
body $-1 $23 $-1 $24 #
body $-1 $25 $-1 $26 #
body $-1 $27 $-1 $28 #
body $-1 $29 $-1 $30 #
body $-1 $31 $-1 $32 #
body $-1 $33 $-1 $34 #
body $-1 $35 $-1 $36 #
body $-1 $37 $-1 $38 #
lump $-1 $-1 $39 $0 #
transform $-1 1 0 0 0 1 0 0 0 1 49.428998687704095 21.162285039527404 4.5376170677576706 1 rotate no_reflect no_shear #
lump $-1 $-1 $40 $1 #
transform $-1 1 0 0 0 1 0 0 0 1 49.428998687704095 21.162285039527404 4.5376170677576706 1 rotate no_reflect no_shear #
lump $-1 $-1 $41 $2 #
transform $-1 1 0 0 0 1 0 0 0 1 49.428998687704095 21.162285039527404 4.5376170677576706 1 rotate no_reflect no_shear #
lump $-1 $-1 $42 $3 #
transform $-1 1 0 0 0 1 0 0 0 1 49.428998687704095 21.162285039527404 4.5376170677576706 1 rotate no_reflect no_shear #
lump $-1 $-1 $43 $4 #
transform $-1 1 0 0 0 1 0 0 0 1 49.428998687704095 21.162285039527404 4.5376170677576706 1 rotate no_reflect no_shear #
lump $-1 $-1 $44 $5 #
transform $-1 1 0 0 0 1 0 0 0 1 49.428998687704095 21.162285039527404 4.5376170677576706 1 rotate no_reflect no_shear #
lump $-1 $-1 $45 $6 #
transform $-1 1 0 0 0 1 0 0 0 1 49.428998687704095 21.162285039527404 4.5376170677576706 1 rotate no_reflect no_shear #
lump $-1 $-1 $46 $7 #
transform $-1 1 0 0 0 1 0 0 0 1 49.428998687704095 21.162285039527404 4.5376170677576706 1 rotate no_reflect no_shear #
lump $-1 $-1 $47 $8 #
transform $-1 1 0 0 0 1 0 0 0 1 49.428998687704095 21.162285039527404 4.5376170677576706 1 rotate no_reflect no_shear #
lump $-1 $-1 $48 $9 #
transform $-1 1 0 0 0 1 0 0 0 1 49.428998687704095 21.162285039527404 4.5376170677576706 1 rotate no_reflect no_shear #
lump $-1 $-1 $49 $10 #
transform $-1 1 0 0 0 1 0 0 0 1 49.428998687704095 21.162285039527404 4.5376170677576706 1 rotate no_reflect no_shear #
lump $-1 $-1 $50 $11 #
transform $-1 1 0 0 0 1 0 0 0 1 49.428998687704095 21.162285039527404 4.5376170677576706 1 rotate no_reflect no_shear #
lump $-1 $-1 $51 $12 #
transform $-1 1 0 0 0 1 0 0 0 1 49.428998687704095 21.162285039527404 4.5376170677576706 1 rotate no_reflect no_shear #
shell $-1 $-1 $-1 $52 $-1 $13 #
shell $-1 $-1 $-1 $53 $-1 $15 #
shell $-1 $-1 $-1 $54 $-1 $17 #
shell $-1 $-1 $-1 $55 $-1 $19 #
shell $-1 $-1 $-1 $56 $-1 $21 #
shell $-1 $-1 $-1 $57 $-1 $23 #
shell $-1 $-1 $-1 $58 $-1 $25 #
shell $-1 $-1 $-1 $59 $-1 $27 #
shell $-1 $-1 $-1 $60 $-1 $29 #
shell $-1 $-1 $-1 $61 $-1 $31 #
shell $-1 $-1 $-1 $62 $-1 $33 #
shell $-1 $-1 $-1 $63 $-1 $35 #
shell $-1 $-1 $-1 $64 $-1 $37 #
face $-1 $65 $66 $39 $-1 $67 forward single #
face $-1 $68 $69 $40 $-1 $70 reversed single #
face $-1 $71 $72 $41 $-1 $73 forward single #
face $-1 $74 $75 $42 $-1 $76 forward single #
face $-1 $77 $78 $43 $-1 $79 forward single #
face $-1 $80 $81 $44 $-1 $82 reversed single #
face $-1 $83 $84 $45 $-1 $85 forward single #
face $-1 $86 $87 $46 $-1 $88 reversed single #
face $-1 $89 $90 $47 $-1 $91 forward single #
face $-1 $92 $93 $48 $-1 $94 reversed single #
face $-1 $95 $96 $49 $-1 $97 forward single #
face $-1 $98 $99 $50 $-1 $100 reversed single #
face $-1 $101 $102 $51 $-1 $103 forward single #
face $-1 $104 $105 $39 $-1 $106 reversed single #
loop $-1 $-1 $107 $52 #
plane-surface $-1 0 0 4.5376170677576706 0 0 1 1 0 0 forward_v I I I I #
face $-1 $108 $109 $40 $-1 $110 reversed single #
loop $-1 $-1 $111 $53 #
plane-surface $-1 -22.871162879970299 -16.487482397590927 67.482324886510597 0.68199836817093118 0 0.7313536940579346 0.7313536940579346 0 -0.68199836817093118 forward_v I I I I #
face $-1 $112 $113 $41 $-1 $114 forward single #
loop $-1 $115 $116 $54 #
cone-surface $-1 46.687885532828481 -19.292363982752814 1.9337976847678799 -0.68199836817093118 0 -0.7313536940579346 0.3656768470289673 0 -0.34099918408546559 1 I I 0 1 0.5 forward I I I I #
face $-1 $117 $118 $42 $-1 $119 forward single #
loop $-1 $120 $121 $55 #
cone-surface $-1 46.687885532828481 -16.487482397590927 1.9337976847678799 -0.68199836817093118 0 -0.7313536940579346 0.3656768470289673 0 -0.34099918408546559 1 I I 0 1 0.5 forward I I I I #
face $-1 $122 $123 $43 $-1 $124 forward single #
loop $-1 $125 $126 $56 #
cone-surface $-1 46.687885532828481 -13.68260081242904 1.9337976847678799 -0.68199836817093118 0 -0.7313536940579346 0.3656768470289673 0 -0.34099918408546559 1 I I 0 1 0.5 forward I I I I #
face $-1 $127 $128 $44 $-1 $129 reversed single #
loop $-1 $-1 $130 $57 #
plane-surface $-1 -116.84999157837868 -18.88066962910905 73.804649034008776 0 1 0 -0.68199836817093118 0 0.7313536940579346 forward_v I I I I #
face $-1 $131 $132 $45 $-1 $133 forward single #
loop $-1 $134 $135 $58 #
cone-surface $-1 -47.091378204959213 -15.787220734286974 2.2582722598915743 0.68199836817093118 0 -0.7313536940579346 0.7313536940579346 0 0.68199836817093118 1 I I 0 1 1 forward I I I I #
face $-1 $136 $137 $46 $-1 $138 reversed single #
loop $-1 $-1 $139 $59 #
plane-surface $-1 -116.84999157837868 -8.2995271093453482 73.804649034008776 0 1 0 -0.68199836817093118 0 0.7313536940579346 forward_v I I I I #
face $-1 $140 $141 $47 $-1 $142 forward single #
loop $-1 $143 $144 $60 #
cone-surface $-1 -47.091378204959213 -5.2060782145232718 2.2582722598915743 0.68199836817093118 0 -0.7313536940579346 0.7313536940579346 0 0.68199836817093118 1 I I 0 1 1 forward I I I I #
face $-1 $145 $146 $48 $-1 $147 reversed single #
loop $-1 $-1 $148 $61 #
plane-surface $-1 -116.84999157837868 2.281615410418353 73.804649034008776 0 1 0 -0.68199836817093118 0 0.7313536940579346 forward_v I I I I #
face $-1 $149 $150 $49 $-1 $151 forward single #
loop $-1 $152 $153 $62 #
cone-surface $-1 -47.091378204959213 5.3750643052404286 2.2582722598915743 0.68199836817093118 0 -0.7313536940579346 0.7313536940579346 0 0.68199836817093118 1 I I 0 1 1 forward I I I I #
face $-1 $154 $155 $50 $-1 $156 reversed single #
loop $-1 $-1 $157 $63 #
plane-surface $-1 -116.84999157837868 12.862757930182056 73.804649034008776 0 1 0 -0.68199836817093118 0 0.7313536940579346 forward_v I I I I #
face $-1 $158 $159 $51 $-1 $160 forward single #
loop $-1 $161 $162 $64 #
cone-surface $-1 -47.091378204959213 15.956206825004131 2.2582722598915743 0.68199836817093118 0 -0.7313536940579346 0.7313536940579346 0 0.68199836817093118 1 I I 0 1 1 forward I I I I #
face $-1 $163 $164 $39 $-1 $165 reversed single #
loop $-1 $-1 $166 $65 #
plane-surface $-1 0 0 -4.5376170677576706 0 0 1 1 0 0 forward_v I I I I #
coedge $-1 $167 $168 $169 $170 forward $66 $-1 #
face $-1 $171 $172 $40 $-1 $173 forward single #
loop $-1 $-1 $174 $68 #
plane-surface $-1 44.549830010704284 -11.81267975565445 139.78248645418498 0 -1 0 -0.68199836817093118 0 -0.7313536940579346 forward_v I I I I #
coedge $-1 $175 $176 $177 $178 reversed $69 $-1 #
face $-1 $-1 $179 $41 $-1 $180 forward single #
loop $-1 $181 $182 $71 #
cone-surface $-1 46.176386756700282 -19.292363982752814 1.3852824142244291 -0.68199836817093118 0 -0.7313536940579346 0.18283842351448365 0 -0.17049959204273279 1 I I -0.70710678118654746 0.70710678118654746 0.25 forward I I I I #
loop $-1 $-1 $183 $54 #
coedge $-1 $116 $116 $184 $185 reversed $72 $-1 #
face $-1 $-1 $186 $42 $-1 $187 forward single #
loop $-1 $188 $189 $74 #
cone-surface $-1 46.176386756700282 -16.487482397590927 1.3852824142244291 -0.68199836817093118 0 -0.7313536940579346 0.18283842351448365 0 -0.17049959204273279 1 I I -0.70710678118654746 0.70710678118654746 0.25 forward I I I I #
loop $-1 $-1 $190 $55 #
coedge $-1 $121 $121 $191 $192 reversed $75 $-1 #
face $-1 $-1 $193 $43 $-1 $194 forward single #
loop $-1 $195 $196 $77 #
cone-surface $-1 46.176386756700282 -13.68260081242904 1.3852824142244291 -0.68199836817093118 0 -0.7313536940579346 0.18283842351448365 0 -0.17049959204273279 1 I I -0.70710678118654746 0.70710678118654746 0.25 forward I I I I #
loop $-1 $-1 $197 $56 #
coedge $-1 $126 $126 $198 $199 reversed $78 $-1 #
face $-1 $200 $201 $44 $-1 $202 reversed single #
loop $-1 $-1 $203 $80 #
plane-surface $-1 -49.428998687704095 -15.787220734286976 1.5044874663343961 -0.68199836817093118 0 0.7313536940579346 0.7313536940579346 0 0.68199836817093118 forward_v I I I I #
coedge $-1 $204 $205 $206 $207 reversed $81 $-1 #
face $-1 $-1 $208 $45 $-1 $209 forward single #
loop $-1 $210 $211 $83 #
cone-surface $-1 -46.039075140987229 -15.787220734286974 1.1298154057081558 0.68199836817093118 0 -0.7313536940579346 0.3656768470289673 0 0.34099918408546559 1 I I -0.70710678118654746 0.70710678118654746 0.5 forward I I I I #
loop $-1 $-1 $212 $58 #
coedge $-1 $135 $135 $213 $214 reversed $84 $-1 #
face $-1 $215 $216 $46 $-1 $217 reversed single #
loop $-1 $-1 $218 $86 #
plane-surface $-1 -49.428998687704095 -5.2060782145232736 1.5044874663343961 -0.68199836817093118 0 0.7313536940579346 0.7313536940579346 0 0.68199836817093118 forward_v I I I I #
coedge $-1 $219 $220 $221 $222 reversed $87 $-1 #
face $-1 $-1 $223 $47 $-1 $224 forward single #
loop $-1 $225 $226 $89 #
cone-surface $-1 -46.039075140987229 -5.2060782145232718 1.1298154057081558 0.68199836817093118 0 -0.7313536940579346 0.3656768470289673 0 0.34099918408546559 1 I I -0.70710678118654746 0.70710678118654746 0.5 forward I I I I #
loop $-1 $-1 $227 $60 #
coedge $-1 $144 $144 $228 $229 reversed $90 $-1 #
face $-1 $230 $231 $48 $-1 $232 reversed single #
loop $-1 $-1 $233 $92 #
plane-surface $-1 -49.428998687704095 5.3750643052404286 1.5044874663343961 -0.68199836817093118 0 0.7313536940579346 0.7313536940579346 0 0.68199836817093118 forward_v I I I I #
coedge $-1 $234 $235 $236 $237 reversed $93 $-1 #
face $-1 $-1 $238 $49 $-1 $239 forward single #
loop $-1 $240 $241 $95 #
cone-surface $-1 -46.039075140987229 5.3750643052404286 1.1298154057081558 0.68199836817093118 0 -0.7313536940579346 0.3656768470289673 0 0.34099918408546559 1 I I -0.70710678118654746 0.70710678118654746 0.5 forward I I I I #
loop $-1 $-1 $242 $62 #
coedge $-1 $153 $153 $243 $244 reversed $96 $-1 #
face $-1 $245 $246 $50 $-1 $247 reversed single #
loop $-1 $-1 $248 $98 #
plane-surface $-1 -49.428998687704095 15.956206825004131 1.5044874663343961 -0.68199836817093118 0 0.7313536940579346 0.7313536940579346 0 0.68199836817093118 forward_v I I I I #
coedge $-1 $249 $250 $251 $252 reversed $99 $-1 #
face $-1 $-1 $253 $51 $-1 $254 forward single #
loop $-1 $255 $256 $101 #
cone-surface $-1 -46.039075140987229 15.956206825004131 1.1298154057081558 0.68199836817093118 0 -0.7313536940579346 0.3656768470289673 0 0.34099918408546559 1 I I -0.70710678118654746 0.70710678118654746 0.5 forward I I I I #
loop $-1 $-1 $257 $64 #
coedge $-1 $162 $162 $258 $259 reversed $102 $-1 #
face $-1 $260 $261 $39 $-1 $262 reversed single #
loop $-1 $-1 $263 $104 #
plane-surface $-1 0 -21.162285039527404 0 0 1 0 0 0 1 forward_v I I I I #
coedge $-1 $264 $265 $266 $267 forward $105 $-1 #
coedge $-1 $268 $107 $269 $270 forward $66 $-1 #
coedge $-1 $107 $268 $271 $272 forward $66 $-1 #
coedge $-1 $273 $274 $107 $170 reversed $275 $-1 #
edge $-1 $276 -21.162285039527404 $277 21.162285039527404 $169 $278 forward 7 unknown #
face $-1 $279 $280 $40 $-1 $281 reversed single #
loop $-1 $-1 $282 $108 #
plane-surface $-1 0 0 4.5376170677576706 0 0 1 1 0 0 forward_v I I I I #
coedge $-1 $283 $284 $285 $286 reversed $109 $-1 #
coedge $-1 $287 $111 $288 $289 reversed $69 $-1 #
coedge $-1 $111 $287 $283 $290 forward $69 $-1 #
coedge $-1 $285 $291 $111 $178 forward $292 $-1 #
edge $-1 $293 -12.918543840731941 $294 -3.5689385568589866 $177 $295 forward 7 unknown #
loop $-1 $-1 $184 $112 #
plane-surface $-1 -22.871162879970299 -16.487482397590927 67.482324886510597 0.68199836817093118 0 0.7313536940579346 0.7313536940579346 0 -0.68199836817093118 forward_v I I I I #
loop $-1 $-1 $296 $71 #
coedge $-1 $182 $182 $183 $297 reversed $113 $-1 #
coedge $-1 $183 $183 $182 $297 forward $115 $-1 #
coedge $-1 $184 $184 $116 $185 forward $179 $-1 #
edge $-1 $298 0 $298 6.2831853071796004 $184 $299 forward 7 unknown #
loop $-1 $-1 $191 $117 #
plane-surface $-1 -22.871162879970299 -16.487482397590927 67.482324886510597 0.68199836817093118 0 0.7313536940579346 0.7313536940579346 0 -0.68199836817093118 forward_v I I I I #
loop $-1 $-1 $300 $74 #
coedge $-1 $189 $189 $190 $301 reversed $118 $-1 #
coedge $-1 $190 $190 $189 $301 forward $120 $-1 #
coedge $-1 $191 $191 $121 $192 forward $186 $-1 #
edge $-1 $302 0 $302 6.2831853071796004 $191 $303 forward 7 unknown #
loop $-1 $-1 $198 $122 #
plane-surface $-1 -22.871162879970299 -16.487482397590927 67.482324886510597 0.68199836817093118 0 0.7313536940579346 0.7313536940579346 0 -0.68199836817093118 forward_v I I I I #
loop $-1 $-1 $304 $77 #
coedge $-1 $196 $196 $197 $305 reversed $123 $-1 #
coedge $-1 $197 $197 $196 $305 forward $125 $-1 #
coedge $-1 $198 $198 $126 $199 forward $193 $-1 #
edge $-1 $306 0 $306 6.2831853071796004 $198 $307 forward 7 unknown #
face $-1 $308 $309 $44 $-1 $310 reversed single #
loop $-1 $-1 $311 $127 #
plane-surface $-1 -116.84999157837868 -12.693771839464901 73.804649034008776 0 -1 0 0.68199836817093118 0 -0.7313536940579346 forward_v I I I I #
coedge $-1 $312 $313 $314 $315 reversed $128 $-1 #
coedge $-1 $205 $130 $316 $317 reversed $81 $-1 #
coedge $-1 $130 $204 $312 $318 reversed $81 $-1 #
coedge $-1 $314 $319 $130 $207 forward $320 $-1 #
edge $-1 $321 8.9959971014852442 $322 12.248630307201957 $206 $323 forward 7 unknown #
loop $-1 $-1 $213 $131 #
plane-surface $-1 -49.428998687704095 -15.787220734286976 1.5044874663343961 -0.68199836817093118 0 0.7313536940579346 0.7313536940579346 0 0.68199836817093118 forward_v I I I I #
loop $-1 $-1 $324 $83 #
coedge $-1 $211 $211 $212 $325 reversed $132 $-1 #
coedge $-1 $212 $212 $211 $325 forward $134 $-1 #
coedge $-1 $213 $213 $135 $214 forward $208 $-1 #
edge $-1 $326 0 $326 6.2831853071796004 $213 $327 forward 7 unknown #
face $-1 $328 $329 $46 $-1 $330 forward single #
loop $-1 $-1 $331 $136 #
plane-surface $-1 -116.84999157837868 -2.112629319701198 73.804649034008776 0 -1 0 0.68199836817093118 0 -0.7313536940579346 forward_v I I I I #
coedge $-1 $332 $333 $334 $335 reversed $137 $-1 #
coedge $-1 $220 $139 $336 $337 reversed $87 $-1 #
coedge $-1 $139 $219 $332 $338 reversed $87 $-1 #
coedge $-1 $334 $339 $139 $222 forward $329 $-1 #
edge $-1 $340 8.9959971014852442 $341 12.248630307201957 $221 $342 forward 7 unknown #
loop $-1 $-1 $228 $140 #
plane-surface $-1 -49.428998687704095 -5.2060782145232736 1.5044874663343961 -0.68199836817093118 0 0.7313536940579346 0.7313536940579346 0 0.68199836817093118 forward_v I I I I #
loop $-1 $-1 $343 $89 #
coedge $-1 $226 $226 $227 $344 reversed $141 $-1 #
coedge $-1 $227 $227 $226 $344 forward $143 $-1 #
coedge $-1 $228 $228 $144 $229 forward $223 $-1 #
edge $-1 $345 0 $345 6.2831853071796004 $228 $346 forward 7 unknown #
face $-1 $347 $348 $48 $-1 $349 forward single #
loop $-1 $-1 $350 $145 #
plane-surface $-1 -116.84999157837868 8.4685132000625032 73.804649034008776 0 -1 0 0.68199836817093118 0 -0.7313536940579346 forward_v I I I I #
coedge $-1 $351 $352 $353 $354 reversed $146 $-1 #
coedge $-1 $235 $148 $355 $356 reversed $93 $-1 #
coedge $-1 $148 $234 $351 $357 reversed $93 $-1 #
coedge $-1 $353 $358 $148 $237 forward $348 $-1 #
edge $-1 $359 8.9959971014852442 $360 12.248630307201957 $236 $361 forward 7 unknown #
loop $-1 $-1 $243 $149 #
plane-surface $-1 -49.428998687704095 5.3750643052404286 1.5044874663343961 -0.68199836817093118 0 0.7313536940579346 0.7313536940579346 0 0.68199836817093118 forward_v I I I I #
loop $-1 $-1 $362 $95 #
coedge $-1 $241 $241 $242 $363 reversed $150 $-1 #
coedge $-1 $242 $242 $241 $363 forward $152 $-1 #
coedge $-1 $243 $243 $153 $244 forward $238 $-1 #
edge $-1 $364 0 $364 6.2831853071796004 $243 $365 forward 7 unknown #
face $-1 $366 $367 $50 $-1 $368 forward single #
loop $-1 $-1 $369 $154 #
plane-surface $-1 -116.84999157837868 19.049655719826205 73.804649034008776 0 -1 0 0.68199836817093118 0 -0.7313536940579346 forward_v I I I I #
coedge $-1 $370 $371 $372 $373 reversed $155 $-1 #
coedge $-1 $250 $157 $374 $375 reversed $99 $-1 #
coedge $-1 $157 $249 $370 $376 reversed $99 $-1 #
coedge $-1 $372 $377 $157 $252 forward $367 $-1 #
edge $-1 $378 8.9959971014852442 $379 12.248630307201957 $251 $380 forward 7 unknown #
loop $-1 $-1 $258 $158 #
plane-surface $-1 -49.428998687704095 15.956206825004131 1.5044874663343961 -0.68199836817093118 0 0.7313536940579346 0.7313536940579346 0 0.68199836817093118 forward_v I I I I #
loop $-1 $-1 $381 $101 #
coedge $-1 $256 $256 $257 $382 reversed $159 $-1 #
coedge $-1 $257 $257 $256 $382 forward $161 $-1 #
coedge $-1 $258 $258 $162 $259 forward $253 $-1 #
edge $-1 $383 0 $383 6.2831853071796004 $258 $384 forward 7 unknown #
face $-1 $385 $386 $39 $-1 $387 reversed single #
loop $-1 $-1 $388 $163 #
plane-surface $-1 -49.428998687704095 0 0 1 0 0 0 0 -1 forward_v I I I I #
coedge $-1 $389 $271 $390 $391 forward $164 $-1 #
coedge $-1 $392 $166 $389 $393 forward $105 $-1 #
coedge $-1 $166 $392 $394 $395 forward $105 $-1 #
coedge $-1 $274 $273 $166 $267 reversed $275 $-1 #
edge $-1 $396 -21.162285039527404 $397 21.162285039527404 $266 $398 forward 7 unknown #
coedge $-1 $168 $167 $399 $400 forward $66 $-1 #
coedge $-1 $401 $402 $167 $270 reversed $386 $-1 #
edge $-1 $277 -49.428998687704095 $403 49.428998687704095 $269 $404 forward 7 unknown #
coedge $-1 $263 $405 $168 $272 reversed $164 $-1 #
edge $-1 $406 -49.428998687704095 $276 49.428998687704095 $271 $407 forward 7 unknown #
coedge $-1 $266 $169 $405 $408 forward $275 $-1 #
coedge $-1 $169 $266 $401 $409 reversed $275 $-1 #
loop $-1 $-1 $273 $385 #
vertex $-1 $170 $410 #
vertex $-1 $170 $411 #
straight-curve $-1 49.428998687704095 0 4.5376170677576706 0 1 0 I I #
face $-1 $-1 $292 $40 $-1 $412 reversed single #
loop $-1 $-1 $288 $171 #
plane-surface $-1 0 -21.162285039527404 0 0 1 0 0 0 1 forward_v I I I I #
coedge $-1 $413 $414 $284 $415 forward $172 $-1 #
coedge $-1 $284 $174 $176 $290 reversed $109 $-1 #
coedge $-1 $174 $283 $282 $415 reversed $109 $-1 #
coedge $-1 $416 $177 $174 $286 forward $292 $-1 #
edge $-1 $294 -69.829911231256489 $417 -65.353626159334823 $285 $418 forward 7 unknown #
coedge $-1 $176 $175 $413 $419 reversed $69 $-1 #
coedge $-1 $420 $421 $175 $289 forward $280 $-1 #
edge $-1 $422 60.919641367170911 $293 67.48312491908429 $288 $423 forward 7 unknown #
edge $-1 $424 92.294513823494825 $294 98.857997375408218 $283 $425 forward 7 unknown #
coedge $-1 $177 $416 $420 $426 forward $292 $-1 #
loop $-1 $-1 $285 $279 #
vertex $-1 $289 $427 #
vertex $-1 $178 $428 #
straight-curve $-1 49.428998687704087 -8.2437411987954636 0.06133199583600657 0 1 0 I I #
coedge $-1 $296 $296 $-1 $429 reversed $181 $-1 #
edge $-1 $430 0 $430 6.2831853071796004 $182 $431 forward 7 unknown #
vertex $-1 $185 $432 #
ellipse-curve $-1 47.028884716913936 -19.292363982752814 2.2994745317968368 0.68199836817093118 0 0.7313536940579346 0.3656768470289673 0 -0.34099918408546559 1 I I #
coedge $-1 $300 $300 $-1 $433 reversed $188 $-1 #
edge $-1 $434 0 $434 6.2831853071796004 $189 $435 forward 7 unknown #
vertex $-1 $192 $436 #
ellipse-curve $-1 47.028884716913936 -16.487482397590927 2.2994745317968368 0.68199836817093118 0 0.7313536940579346 0.3656768470289673 0 -0.34099918408546559 1 I I #
coedge $-1 $304 $304 $-1 $437 reversed $195 $-1 #
edge $-1 $438 0 $438 6.2831853071796004 $196 $439 forward 7 unknown #
vertex $-1 $199 $440 #
ellipse-curve $-1 47.028884716913936 -13.68260081242904 2.2994745317968368 0.68199836817093118 0 0.7313536940579346 0.3656768470289673 0 -0.34099918408546559 1 I I #
face $-1 $-1 $320 $44 $-1 $441 forward single #
loop $-1 $-1 $442 $200 #
plane-surface $-1 -49.428998687704095 0 0 1 0 0 0 0 -1 forward_v I I I I #
coedge $-1 $443 $444 $445 $446 reversed $201 $-1 #
coedge $-1 $447 $203 $205 $318 forward $128 $-1 #
coedge $-1 $203 $447 $443 $448 forward $128 $-1 #
coedge $-1 $445 $206 $203 $315 forward $320 $-1 #
edge $-1 $322 -10.987059261965562 $449 -4.8001614723214132 $314 $450 forward 7 unknown #
coedge $-1 $451 $452 $204 $317 forward $309 $-1 #
edge $-1 $453 -35.397837050669992 $321 -32.364707449246715 $316 $454 forward 7 unknown #
edge $-1 $322 -4.4474147490380398 $453 0 $205 $455 forward 7 unknown #
coedge $-1 $206 $445 $451 $456 forward $320 $-1 #
loop $-1 $-1 $445 $308 #
vertex $-1 $317 $457 #
vertex $-1 $207 $458 #
straight-curve $-1 -58.424995789189339 -18.88066962910905 4.5376170677576724 1 0 0 I I #
coedge $-1 $324 $324 $-1 $459 reversed $210 $-1 #
edge $-1 $460 0 $460 6.2831853071796004 $211 $461 forward 7 unknown #
vertex $-1 $214 $462 #
ellipse-curve $-1 -47.802682084845742 -15.787220734286974 3.0210522670460334 -0.68199836817093118 0 0.7313536940579346 0.7313536940579346 0 0.68199836817093118 1 I I #
face $-1 $-1 $463 $46 $-1 $464 reversed single #
loop $-1 $-1 $221 $215 #
plane-surface $-1 0 0 4.5376170677576706 0 0 1 1 0 0 forward_v I I I I #
coedge $-1 $465 $466 $467 $468 reversed $216 $-1 #
coedge $-1 $469 $218 $220 $338 forward $137 $-1 #
coedge $-1 $218 $469 $465 $470 forward $137 $-1 #
coedge $-1 $467 $221 $218 $335 forward $329 $-1 #
edge $-1 $341 -5.6964880020837114 $471 0.49040978756043874 $334 $472 forward 7 unknown #
coedge $-1 $473 $474 $219 $337 forward $463 $-1 #
edge $-1 $475 -35.397837050669992 $340 -32.364707449246715 $336 $476 forward 7 unknown #
edge $-1 $341 -4.4474147490380398 $475 0 $220 $477 forward 7 unknown #
coedge $-1 $221 $467 $473 $478 forward $329 $-1 #
vertex $-1 $337 $479 #
vertex $-1 $222 $480 #
straight-curve $-1 -58.424995789189339 -8.2995271093453482 4.5376170677576724 1 0 0 I I #
coedge $-1 $343 $343 $-1 $481 reversed $225 $-1 #
edge $-1 $482 0 $482 6.2831853071796004 $226 $483 forward 7 unknown #
vertex $-1 $229 $484 #
ellipse-curve $-1 -47.802682084845742 -5.2060782145232718 3.0210522670460334 -0.68199836817093118 0 0.7313536940579346 0.7313536940579346 0 0.68199836817093118 1 I I #
face $-1 $-1 $485 $48 $-1 $486 reversed single #
loop $-1 $-1 $236 $230 #
plane-surface $-1 0 0 4.5376170677576706 0 0 1 1 0 0 forward_v I I I I #
coedge $-1 $487 $488 $489 $490 reversed $231 $-1 #
coedge $-1 $491 $233 $235 $357 forward $146 $-1 #
coedge $-1 $233 $491 $487 $492 forward $146 $-1 #
coedge $-1 $489 $236 $233 $354 forward $348 $-1 #
edge $-1 $360 -0.40591674220186125 $493 5.7809810474422889 $353 $494 forward 7 unknown #
coedge $-1 $495 $496 $234 $356 forward $485 $-1 #
edge $-1 $497 -35.397837050669992 $359 -32.364707449246715 $355 $498 forward 7 unknown #
edge $-1 $360 -4.4474147490380398 $497 0 $235 $499 forward 7 unknown #
coedge $-1 $236 $489 $495 $500 forward $348 $-1 #
vertex $-1 $237 $501 #
vertex $-1 $237 $502 #
straight-curve $-1 -58.424995789189339 2.281615410418353 4.5376170677576724 1 0 0 I I #
coedge $-1 $362 $362 $-1 $503 reversed $240 $-1 #
edge $-1 $504 0 $504 6.2831853071796004 $241 $505 forward 7 unknown #
vertex $-1 $244 $506 #
ellipse-curve $-1 -47.802682084845742 5.3750643052404286 3.0210522670460334 -0.68199836817093118 0 0.7313536940579346 0.7313536940579346 0 0.68199836817093118 1 I I #
face $-1 $-1 $507 $50 $-1 $508 reversed single #
loop $-1 $-1 $251 $245 #
plane-surface $-1 0 0 4.5376170677576706 0 0 1 1 0 0 forward_v I I I I #
coedge $-1 $509 $510 $511 $512 reversed $246 $-1 #
coedge $-1 $513 $248 $250 $376 forward $155 $-1 #
coedge $-1 $248 $513 $509 $514 forward $155 $-1 #
coedge $-1 $511 $251 $248 $373 forward $367 $-1 #
edge $-1 $379 4.8846545176799907 $515 11.07155230732414 $372 $516 forward 7 unknown #
coedge $-1 $517 $518 $249 $375 forward $507 $-1 #
edge $-1 $519 -35.397837050669992 $378 -32.364707449246715 $374 $520 forward 7 unknown #
edge $-1 $379 -4.4474147490380398 $519 0 $250 $521 forward 7 unknown #
coedge $-1 $251 $511 $517 $522 forward $367 $-1 #
vertex $-1 $252 $523 #
vertex $-1 $252 $524 #
straight-curve $-1 -58.424995789189339 12.862757930182056 4.5376170677576724 1 0 0 I I #
coedge $-1 $381 $381 $-1 $525 reversed $255 $-1 #
edge $-1 $526 0 $526 6.2831853071796004 $256 $527 forward 7 unknown #
vertex $-1 $259 $528 #
ellipse-curve $-1 -47.802682084845742 15.956206825004131 3.0210522670460334 -0.68199836817093118 0 0.7313536940579346 0.7313536940579346 0 0.68199836817093118 1 I I #
face $-1 $-1 $275 $39 $-1 $529 reversed single #
loop $-1 $-1 $401 $260 #
plane-surface $-1 0 21.162285039527404 0 0 -1 0 0 0 -1 forward_v I I I I #
coedge $-1 $530 $399 $402 $531 forward $261 $-1 #
coedge $-1 $405 $263 $264 $393 reversed $164 $-1 #
coedge $-1 $399 $530 $263 $391 reversed $261 $-1 #
edge $-1 $406 -4.5376170677576706 $532 4.5376170677576706 $390 $533 forward 7 unknown #
coedge $-1 $265 $264 $530 $534 forward $105 $-1 #
edge $-1 $397 -49.428998687704095 $532 49.428998687704095 $389 $535 forward 7 unknown #
coedge $-1 $402 $401 $265 $395 reversed $386 $-1 #
edge $-1 $536 -49.428998687704095 $396 49.428998687704095 $394 $537 forward 7 unknown #
vertex $-1 $267 $538 #
vertex $-1 $408 $539 #
straight-curve $-1 49.428998687704095 0 -4.5376170677576706 0 -1 0 I I #
coedge $-1 $388 $390 $268 $400 reversed $261 $-1 #
edge $-1 $403 -21.162285039527404 $406 21.162285039527404 $399 $540 forward 7 unknown #
coedge $-1 $394 $269 $274 $409 forward $386 $-1 #
coedge $-1 $269 $394 $388 $531 reversed $386 $-1 #
vertex $-1 $270 $541 #
straight-curve $-1 0 21.162285039527404 4.5376170677576706 -1 0 0 I I #
coedge $-1 $271 $389 $273 $408 reversed $164 $-1 #
vertex $-1 $400 $542 #
straight-curve $-1 0 -21.162285039527404 4.5376170677576706 1 0 0 I I #
edge $-1 $276 -4.5376170677576706 $397 4.5376170677576706 $273 $543 forward 7 unknown #
edge $-1 $277 -4.5376170677576706 $396 4.5376170677576706 $274 $544 forward 7 unknown #
point $-1 49.428998687704095 -21.162285039527404 4.5376170677576706 #
point $-1 49.428998687704095 21.162285039527404 4.5376170677576706 #
plane-surface $-1 49.428998687704095 0 0 -1 0 0 0 0 1 forward_v I I I I #
coedge $-1 $545 $282 $287 $419 forward $172 $-1 #
coedge $-1 $282 $545 $416 $546 forward $172 $-1 #
edge $-1 $417 -27.154083682351953 $424 -22.353855740771607 $282 $547 forward 7 unknown #
coedge $-1 $291 $285 $414 $546 reversed $292 $-1 #
vertex $-1 $286 $548 #
straight-curve $-1 49.428998687704095 -11.81267975565445 69.891243227092488 0 0 1 I I #
edge $-1 $424 3.5689385568589866 $422 12.918543840731941 $413 $549 forward 7 unknown #
coedge $-1 $421 $288 $291 $426 reversed $280 $-1 #
coedge $-1 $288 $420 $545 $550 reversed $280 $-1 #
vertex $-1 $550 $551 #
straight-curve $-1 0.074965991558741507 -21.162285039527404 46.08471306972659 0.7313536940579346 0 -0.68199836817093118 I I #
vertex $-1 $419 $552 #
straight-curve $-1 -22.871162879970299 -11.81267975565445 67.482324886510597 0.7313536940579346 0 -0.68199836817093118 I I #
edge $-1 $553 -4.5376170677576706 $293 -0.061331995836001088 $291 $554 forward 7 unknown #
point $-1 49.428998687704095 -21.162285039527404 0.061331995836001088 #
point $-1 49.428998687704095 -11.81267975565445 0.061331995835999464 #
edge $-1 $555 1 $555 0 $296 $-1 forward 7 unknown #
vertex $-1 $297 $556 #
ellipse-curve $-1 46.346886348743013 -19.292363982752814 1.5681208377389129 0.68199836817093118 0 0.7313536940579346 0.3656768470289673 0 -0.34099918408546559 1 I I #
point $-1 47.394561563942915 -19.292363982752814 1.9584753477113819 #
edge $-1 $557 1 $557 0 $300 $-1 forward 7 unknown #
vertex $-1 $301 $558 #
ellipse-curve $-1 46.346886348743013 -16.487482397590927 1.5681208377389129 0.68199836817093118 0 0.7313536940579346 0.3656768470289673 0 -0.34099918408546559 1 I I #
point $-1 47.394561563942915 -16.487482397590927 1.9584753477113819 #
edge $-1 $559 1 $559 0 $304 $-1 forward 7 unknown #
vertex $-1 $305 $560 #
ellipse-curve $-1 46.346886348743013 -13.68260081242904 1.5681208377389129 0.68199836817093118 0 0.7313536940579346 0.3656768470289673 0 -0.34099918408546559 1 I I #
point $-1 47.394561563942915 -13.68260081242904 1.9584753477113819 #
plane-surface $-1 0 0 4.5376170677576706 0 0 1 1 0 0 forward_v I I I I #
coedge $-1 $452 $451 $444 $561 forward $309 $-1 #
coedge $-1 $444 $311 $313 $448 reversed $201 $-1 #
coedge $-1 $311 $443 $442 $561 reversed $201 $-1 #
coedge $-1 $319 $314 $311 $446 forward $320 $-1 #
edge $-1 $449 -12.248630307201957 $562 -8.9959971014852442 $445 $563 forward 7 unknown #
coedge $-1 $313 $312 $452 $564 reversed $128 $-1 #
edge $-1 $565 0 $449 4.4474147490380398 $443 $566 forward 7 unknown #
vertex $-1 $315 $567 #
straight-curve $-1 -46.176365481987382 -7.8936103671434878 4.5376170677576706 0 1 0 I I #
coedge $-1 $442 $316 $319 $456 reversed $309 $-1 #
coedge $-1 $316 $442 $447 $564 forward $309 $-1 #
vertex $-1 $317 $568 #
straight-curve $-1 -49.428998687704095 -18.88066962910905 36.902324517004388 0 0 1 I I #
straight-curve $-1 -49.428998687704095 -18.88066962910905 1.5044874663343961 -0.7313536940579346 0 -0.68199836817093118 I I #
edge $-1 $562 12.693771839464901 $321 18.88066962910905 $451 $569 forward 7 unknown #
point $-1 -49.428998687704095 -18.88066962910905 4.5376170677576706 #
point $-1 -46.176365481987382 -18.88066962910905 4.5376170677576706 #
edge $-1 $570 1 $570 0 $324 $-1 forward 7 unknown #
vertex $-1 $325 $571 #
ellipse-curve $-1 -46.380074325072698 -15.787220734286974 1.4954922527371231 -0.68199836817093118 0 0.7313536940579346 0.7313536940579346 0 0.68199836817093118 1 I I #
point $-1 -47.071328390787798 -15.787220734286974 3.7030506352169574 #
loop $-1 $-1 $336 $328 #
plane-surface $-1 -49.428998687704095 0 0 1 0 0 0 0 -1 forward_v I I I I #
coedge $-1 $466 $331 $333 $470 reversed $216 $-1 #
coedge $-1 $331 $465 $572 $573 reversed $216 $-1 #
coedge $-1 $339 $334 $331 $468 forward $329 $-1 #
edge $-1 $471 -12.248630307201957 $574 -8.9959971014852442 $467 $575 forward 7 unknown #
coedge $-1 $333 $332 $474 $576 reversed $137 $-1 #
edge $-1 $577 0 $471 4.4474147490380398 $465 $578 forward 7 unknown #
vertex $-1 $335 $579 #
straight-curve $-1 -46.176365481987382 -2.6030391072616368 4.5376170677576706 0 1 0 I I #
coedge $-1 $572 $336 $339 $478 reversed $463 $-1 #
coedge $-1 $336 $572 $469 $576 forward $463 $-1 #
vertex $-1 $337 $580 #
straight-curve $-1 -49.428998687704095 -8.2995271093453482 36.902324517004388 0 0 1 I I #
straight-curve $-1 -49.428998687704095 -8.2995271093453482 1.5044874663343961 -0.7313536940579346 0 -0.68199836817093118 I I #
edge $-1 $574 2.112629319701198 $340 8.2995271093453482 $473 $581 forward 7 unknown #
point $-1 -49.428998687704095 -8.2995271093453482 4.5376170677576706 #
point $-1 -46.176365481987382 -8.2995271093453482 4.5376170677576706 #
edge $-1 $582 1 $582 0 $343 $-1 forward 7 unknown #
vertex $-1 $344 $583 #
ellipse-curve $-1 -46.380074325072698 -5.2060782145232718 1.4954922527371231 -0.68199836817093118 0 0.7313536940579346 0.7313536940579346 0 0.68199836817093118 1 I I #
point $-1 -47.071328390787798 -5.2060782145232718 3.7030506352169574 #
loop $-1 $-1 $355 $347 #
plane-surface $-1 -49.428998687704095 0 0 1 0 0 0 0 -1 forward_v I I I I #
coedge $-1 $488 $350 $352 $492 reversed $231 $-1 #
coedge $-1 $350 $487 $584 $585 reversed $231 $-1 #
coedge $-1 $358 $353 $350 $490 forward $348 $-1 #
edge $-1 $493 -12.248630307201957 $586 -8.9959971014852442 $489 $587 forward 7 unknown #
coedge $-1 $352 $351 $496 $588 reversed $146 $-1 #
edge $-1 $589 0 $493 4.4474147490380398 $487 $590 forward 7 unknown #
vertex $-1 $354 $591 #
straight-curve $-1 -46.176365481987382 2.6875321526202143 4.5376170677576706 0 1 0 I I #
coedge $-1 $584 $355 $358 $500 reversed $485 $-1 #
coedge $-1 $355 $584 $491 $588 forward $485 $-1 #
vertex $-1 $356 $592 #
straight-curve $-1 -49.428998687704095 2.281615410418353 36.902324517004388 0 0 1 I I #
straight-curve $-1 -49.428998687704095 2.281615410418353 1.5044874663343961 -0.7313536940579346 0 -0.68199836817093118 I I #
edge $-1 $586 -8.4685132000625032 $359 -2.281615410418353 $495 $593 forward 7 unknown #
point $-1 -49.428998687704095 2.281615410418353 4.5376170677576706 #
point $-1 -46.176365481987382 2.281615410418353 4.5376170677576706 #
edge $-1 $594 1 $594 0 $362 $-1 forward 7 unknown #
vertex $-1 $363 $595 #
ellipse-curve $-1 -46.380074325072698 5.3750643052404286 1.4954922527371231 -0.68199836817093118 0 0.7313536940579346 0.7313536940579346 0 0.68199836817093118 1 I I #
point $-1 -47.071328390787798 5.3750643052404286 3.7030506352169574 #
loop $-1 $-1 $374 $366 #
plane-surface $-1 -49.428998687704095 0 0 1 0 0 0 0 -1 forward_v I I I I #
coedge $-1 $510 $369 $371 $514 reversed $246 $-1 #
coedge $-1 $369 $509 $596 $597 reversed $246 $-1 #
coedge $-1 $377 $372 $369 $512 forward $367 $-1 #
edge $-1 $515 -12.248630307201957 $598 -8.9959971014852442 $511 $599 forward 7 unknown #
coedge $-1 $371 $370 $518 $600 reversed $155 $-1 #
edge $-1 $601 0 $515 4.4474147490380398 $509 $602 forward 7 unknown #
vertex $-1 $373 $603 #
straight-curve $-1 -46.176365481987382 7.9781034125020653 4.5376170677576706 0 1 0 I I #
coedge $-1 $596 $374 $377 $522 reversed $507 $-1 #
coedge $-1 $374 $596 $513 $600 forward $507 $-1 #
vertex $-1 $375 $604 #
straight-curve $-1 -49.428998687704095 12.862757930182056 36.902324517004388 0 0 1 I I #
straight-curve $-1 -49.428998687704095 12.862757930182056 1.5044874663343961 -0.7313536940579346 0 -0.68199836817093118 I I #
edge $-1 $598 -19.049655719826205 $378 -12.862757930182056 $517 $605 forward 7 unknown #
point $-1 -49.428998687704095 12.862757930182056 4.5376170677576706 #
point $-1 -46.176365481987382 12.862757930182056 4.5376170677576706 #
edge $-1 $606 1 $606 0 $381 $-1 forward 7 unknown #
vertex $-1 $382 $607 #
ellipse-curve $-1 -46.380074325072698 15.956206825004131 1.4954922527371231 -0.68199836817093118 0 0.7313536940579346 0.7313536940579346 0 0.68199836817093118 1 I I #
point $-1 -47.071328390787798 15.956206825004131 3.7030506352169574 #
plane-surface $-1 49.428998687704095 0 0 -1 0 0 0 0 1 forward_v I I I I #
coedge $-1 $390 $388 $392 $534 reversed $261 $-1 #
edge $-1 $403 -4.5376170677576706 $536 4.5376170677576706 $402 $608 forward 7 unknown #
vertex $-1 $534 $609 #
straight-curve $-1 -49.428998687704095 -21.162285039527404 0 0 0 -1 I I #
edge $-1 $532 -21.162285039527404 $536 21.162285039527404 $530 $610 forward 7 unknown #
straight-curve $-1 0 -21.162285039527404 -4.5376170677576706 -1 0 0 I I #
vertex $-1 $395 $611 #
straight-curve $-1 0 21.162285039527404 -4.5376170677576706 1 0 0 I I #
point $-1 49.428998687704095 21.162285039527404 -4.5376170677576706 #
point $-1 49.428998687704095 -21.162285039527404 -4.5376170677576706 #
straight-curve $-1 -49.428998687704095 0 4.5376170677576706 0 -1 0 I I #
point $-1 -49.428998687704095 21.162285039527404 4.5376170677576706 #
point $-1 -49.428998687704095 -21.162285039527404 4.5376170677576706 #
straight-curve $-1 49.428998687704095 -21.162285039527404 0 0 0 -1 I I #
straight-curve $-1 49.428998687704095 21.162285039527404 0 0 0 -1 I I #
coedge $-1 $414 $413 $421 $550 forward $172 $-1 #
edge $-1 $553 -21.162285039527404 $417 -11.81267975565445 $416 $612 forward 7 unknown #
straight-curve $-1 22.274915005352142 -11.81267975565445 4.5376170677576653 -1 0 0 I I #
point $-1 49.428998687704095 -11.81267975565445 4.5376170677576706 #
straight-curve $-1 44.628770746123749 -8.2437411987954636 4.5376170677576724 0 -1 0 I I #
edge $-1 $422 44.628770746123749 $553 49.428998687704095 $421 $613 forward 7 unknown #
point $-1 44.628770746123749 -21.162285039527404 4.5376170677576795 #
point $-1 44.628770746123749 -11.81267975565445 4.5376170677576795 #
vertex $-1 $546 $614 #
straight-curve $-1 49.428998687704095 -21.162285039527404 0 0 0 -1 I I #
vertex $-1 $429 $615 #
point $-1 46.712563195771985 -19.292363982752814 1.2271216536534473 #
vertex $-1 $433 $616 #
point $-1 46.712563195771985 -16.487482397590927 1.2271216536534473 #
vertex $-1 $437 $617 #
point $-1 46.712563195771985 -13.68260081242904 1.2271216536534473 #
edge $-1 $562 32.364707449246715 $565 35.397837050669992 $442 $618 forward 7 unknown #
vertex $-1 $456 $619 #
straight-curve $-1 -58.424995789189339 -12.693771839464901 4.5376170677576724 -1 0 0 I I #
edge $-1 $565 4.8001614723214132 $453 10.987059261965562 $452 $620 forward 7 unknown #
vertex $-1 $564 $621 #
straight-curve $-1 -49.428998687704095 -12.693771839464901 1.5044874663343961 0.7313536940579346 0 0.68199836817093118 I I #
point $-1 -46.176365481987382 -12.693771839464901 4.5376170677576706 #
point $-1 -49.428998687704095 -18.88066962910905 1.5044874663343961 #
straight-curve $-1 -49.428998687704095 0 4.5376170677576706 0 -1 0 I I #
vertex $-1 $459 $622 #
point $-1 -45.648720631014761 -15.787220734286974 2.1774906209080545 #
coedge $-1 $474 $473 $466 $573 forward $463 $-1 #
edge $-1 $574 32.364707449246715 $577 35.397837050669992 $572 $623 forward 7 unknown #
vertex $-1 $478 $624 #
straight-curve $-1 -58.424995789189339 -2.112629319701198 4.5376170677576724 -1 0 0 I I #
edge $-1 $577 -0.49040978756043874 $475 5.6964880020837114 $474 $625 forward 7 unknown #
vertex $-1 $576 $626 #
straight-curve $-1 -49.428998687704095 -2.112629319701198 1.5044874663343961 0.7313536940579346 0 0.68199836817093118 I I #
point $-1 -46.176365481987382 -2.112629319701198 4.5376170677576706 #
point $-1 -49.428998687704095 -8.2995271093453482 1.5044874663343961 #
straight-curve $-1 -49.428998687704095 0 4.5376170677576706 0 -1 0 I I #
vertex $-1 $481 $627 #
point $-1 -45.648720631014761 -5.2060782145232718 2.1774906209080545 #
coedge $-1 $496 $495 $488 $585 forward $485 $-1 #
edge $-1 $586 32.364707449246715 $589 35.397837050669992 $584 $628 forward 7 unknown #
vertex $-1 $500 $629 #
straight-curve $-1 -58.424995789189339 8.4685132000625032 4.5376170677576724 -1 0 0 I I #
edge $-1 $589 -5.7809810474422889 $497 0.40591674220186125 $496 $630 forward 7 unknown #
vertex $-1 $588 $631 #
straight-curve $-1 -49.428998687704095 8.4685132000625032 1.5044874663343961 0.7313536940579346 0 0.68199836817093118 I I #
point $-1 -46.176365481987382 8.4685132000625032 4.5376170677576706 #
point $-1 -49.428998687704095 2.281615410418353 1.5044874663343961 #
straight-curve $-1 -49.428998687704095 0 4.5376170677576706 0 -1 0 I I #
vertex $-1 $503 $632 #
point $-1 -45.648720631014761 5.3750643052404286 2.1774906209080545 #
coedge $-1 $518 $517 $510 $597 forward $507 $-1 #
edge $-1 $598 32.364707449246715 $601 35.397837050669992 $596 $633 forward 7 unknown #
vertex $-1 $522 $634 #
straight-curve $-1 -58.424995789189339 19.049655719826205 4.5376170677576724 -1 0 0 I I #
edge $-1 $601 -11.07155230732414 $519 -4.8846545176799907 $518 $635 forward 7 unknown #
vertex $-1 $600 $636 #
straight-curve $-1 -49.428998687704095 19.049655719826205 1.5044874663343961 0.7313536940579346 0 0.68199836817093118 I I #
point $-1 -46.176365481987382 19.049655719826205 4.5376170677576706 #
point $-1 -49.428998687704095 12.862757930182056 1.5044874663343961 #
straight-curve $-1 -49.428998687704095 0 4.5376170677576706 0 -1 0 I I #
vertex $-1 $525 $637 #
point $-1 -45.648720631014761 15.956206825004131 2.1774906209080545 #
straight-curve $-1 -49.428998687704095 21.162285039527404 0 0 0 -1 I I #
point $-1 -49.428998687704095 -21.162285039527404 -4.5376170677576706 #
straight-curve $-1 -49.428998687704095 0 -4.5376170677576706 0 1 0 I I #
point $-1 -49.428998687704095 21.162285039527404 -4.5376170677576706 #
straight-curve $-1 49.428998687704095 0 4.5376170677576706 0 1 0 I I #
straight-curve $-1 0 -21.162285039527404 4.5376170677576706 1 0 0 I I #
point $-1 49.428998687704095 -21.162285039527404 4.5376170677576706 #
point $-1 46.005887164657551 -19.292363982752814 1.2024439907099453 #
point $-1 46.005887164657551 -16.487482397590927 1.2024439907099453 #
point $-1 46.005887164657551 -13.68260081242904 1.2024439907099453 #
straight-curve $-1 -49.428998687704095 -12.693771839464901 36.902324517004388 0 0 -1 I I #
point $-1 -49.428998687704095 -12.693771839464901 4.5376170677576706 #
straight-curve $-1 -49.428998687704095 -7.8936103671434878 1.5044874663343981 0 -1 0 I I #
point $-1 -49.428998687704095 -12.693771839464901 1.5044874663343961 #
point $-1 -45.698075956901761 -15.787220734286974 0.76413855867918845 #
straight-curve $-1 -49.428998687704095 -2.112629319701198 36.902324517004388 0 0 -1 I I #
point $-1 -49.428998687704095 -2.112629319701198 4.5376170677576706 #
straight-curve $-1 -49.428998687704095 -2.6030391072616368 1.5044874663343981 0 -1 0 I I #
point $-1 -49.428998687704095 -2.112629319701198 1.5044874663343961 #
point $-1 -45.698075956901761 -5.2060782145232718 0.76413855867918845 #
straight-curve $-1 -49.428998687704095 8.4685132000625032 36.902324517004388 0 0 -1 I I #
point $-1 -49.428998687704095 8.4685132000625032 4.5376170677576706 #
straight-curve $-1 -49.428998687704095 2.6875321526202143 1.5044874663343981 0 -1 0 I I #
point $-1 -49.428998687704095 8.4685132000625032 1.5044874663343961 #
point $-1 -45.698075956901761 5.3750643052404286 0.76413855867918845 #
straight-curve $-1 -49.428998687704095 19.049655719826205 36.902324517004388 0 0 -1 I I #
point $-1 -49.428998687704095 19.049655719826205 4.5376170677576706 #
straight-curve $-1 -49.428998687704095 7.9781034125020653 1.5044874663343981 0 -1 0 I I #
point $-1 -49.428998687704095 19.049655719826205 1.5044874663343961 #
point $-1 -45.698075956901761 15.956206825004131 0.76413855867918845 #
End-of-ACIS-data 