500 0 5 0           
7 Unknown 11 ACIS 5.0 NT 24 Thu Mar 25 21:41:51 1999 
-1 9.9999999999999995e-007 1e-010 
body $-1 $5 $-1 $6 #
body $-1 $7 $-1 $8 #
body $-1 $9 $-1 $10 #
body $-1 $11 $-1 $12 #
body $-1 $13 $-1 $14 #
lump $-1 $-1 $15 $0 #
transform $-1 1 0 0 0 1 0 0 0 1 53.805352946562088 30.055758498733127 12.760970421772674 1 rotate no_reflect no_shear #
lump $-1 $-1 $16 $1 #
transform $-1 1 0 0 0 1 0 0 0 1 53.805352946562088 30.055758498733127 12.760970421772674 1 rotate no_reflect no_shear #
lump $-1 $-1 $17 $2 #
transform $-1 1 0 0 0 1 0 0 0 1 53.805352946562088 30.055758498733127 12.760970421772674 1 rotate no_reflect no_shear #
lump $-1 $-1 $18 $3 #
transform $-1 1 0 0 0 1 0 0 0 1 53.805352946562088 30.055758498733127 12.760970421772674 1 rotate no_reflect no_shear #
lump $-1 $-1 $19 $4 #
transform $-1 1 0 0 0 1 0 0 0 1 53.805352946562088 30.055758498733127 12.760970421772674 1 rotate no_reflect no_shear #
shell $-1 $-1 $-1 $20 $-1 $5 #
shell $-1 $-1 $-1 $21 $-1 $7 #
shell $-1 $-1 $-1 $22 $-1 $9 #
shell $-1 $-1 $-1 $23 $-1 $11 #
shell $-1 $-1 $-1 $24 $-1 $13 #
face $-1 $25 $26 $15 $-1 $27 forward single #
face $-1 $28 $29 $16 $-1 $30 reversed single #
face $-1 $31 $32 $17 $-1 $33 reversed single #
face $-1 $34 $35 $18 $-1 $36 reversed single #
face $-1 $37 $38 $19 $-1 $39 forward single #
face $-1 $40 $41 $15 $-1 $42 reversed single #
loop $-1 $-1 $43 $20 #
plane-surface $-1 0 0 12.760970421772674 0 0 1 1 0 0 forward_v I I I I #
face $-1 $44 $45 $16 $-1 $46 reversed single #
loop $-1 $-1 $47 $21 #
plane-surface $-1 0 -24.545073213659336 8.1693265890512095 0 0 1 1 0 0 forward_v I I I I #
face $-1 $48 $49 $17 $-1 $50 reversed single #
loop $-1 $-1 $51 $22 #
plane-surface $-1 0 24.545073213659336 8.1693265890512095 0 0 1 1 0 0 forward_v I I I I #
face $-1 $52 $53 $18 $-1 $54 reversed single #
loop $-1 $-1 $55 $23 #
plane-surface $-1 -127.1956787633948 3.4442301237404571 81.66102709079604 0 1 0 -0.68199836817093118 0 0.7313536940579346 forward_v I I I I #
face $-1 $56 $57 $19 $-1 $58 forward single #
loop $-1 $59 $60 $24 #
cone-surface $-1 -47.01106530625654 6.7820374326214292 6.2099719243144857 0.68199836817093118 0 -0.7313536940579346 1.0970305410869019 0 1.0229975522563968 1 I I 0 1 1.5 forward I I I I #
face $-1 $61 $62 $15 $-1 $63 reversed single #
loop $-1 $-1 $64 $25 #
plane-surface $-1 0 0 -12.760970421772674 0 0 1 1 0 0 forward_v I I I I #
coedge $-1 $65 $66 $67 $68 forward $26 $-1 #
face $-1 $69 $70 $16 $-1 $71 reversed single #
loop $-1 $-1 $72 $28 #
plane-surface $-1 0 -19.034387928585545 10.465148505411941 0 -1 0 0 0 -1 forward_v I I I I #
coedge $-1 $73 $74 $75 $76 reversed $29 $-1 #
face $-1 $77 $78 $17 $-1 $79 forward single #
loop $-1 $-1 $80 $31 #
plane-surface $-1 0 19.034387928585545 10.465148505411941 0 1 0 0 0 1 forward_v I I I I #
coedge $-1 $81 $82 $83 $84 reversed $32 $-1 #
face $-1 $85 $86 $18 $-1 $87 reversed single #
loop $-1 $-1 $88 $34 #
plane-surface $-1 -53.805352946562095 6.7820374326214363 2.9595398156777151 -0.68199836817093118 0 0.7313536940579346 0.7313536940579346 0 0.68199836817093118 forward_v I I I I #
coedge $-1 $89 $90 $91 $92 reversed $35 $-1 #
face $-1 $-1 $93 $19 $-1 $94 forward single #
loop $-1 $95 $96 $37 #
cone-surface $-1 -44.960652520734065 6.7820374326214292 4.0111734593603305 0.68199836817093118 0 -0.7313536940579346 0.54851527054345095 0 0.51149877612819838 1 I I -0.70710678118654757 0.70710678118654757 0.75 forward I I I I #
loop $-1 $-1 $97 $24 #
coedge $-1 $60 $60 $98 $99 reversed $38 $-1 #
face $-1 $100 $101 $15 $-1 $102 reversed single #
loop $-1 $-1 $103 $40 #
plane-surface $-1 0 -30.055758498733127 0 0 1 0 0 0 1 forward_v I I I I #
coedge $-1 $104 $105 $106 $107 forward $41 $-1 #
coedge $-1 $108 $43 $109 $110 forward $26 $-1 #
coedge $-1 $43 $108 $111 $112 forward $26 $-1 #
coedge $-1 $113 $114 $43 $68 reversed $115 $-1 #
edge $-1 $116 -30.055758498733127 $117 30.055758498733127 $67 $118 forward 7 unknown #
face $-1 $119 $120 $16 $-1 $121 reversed single #
loop $-1 $-1 $122 $44 #
plane-surface $-1 -53.805352946562088 0 0 1 0 0 0 0 -1 forward_v I I I I #
coedge $-1 $123 $124 $125 $126 reversed $45 $-1 #
coedge $-1 $127 $47 $128 $129 reversed $29 $-1 #
coedge $-1 $47 $127 $123 $130 forward $29 $-1 #
coedge $-1 $125 $131 $47 $76 forward $132 $-1 #
edge $-1 $133 -17.783221891903459 $134 -6.7618513217558771 $75 $135 forward 7 unknown #
face $-1 $136 $137 $17 $-1 $138 reversed single #
loop $-1 $-1 $139 $48 #
plane-surface $-1 0 0 12.760970421772674 0 0 1 1 0 0 forward_v I I I I #
coedge $-1 $140 $141 $142 $143 reversed $49 $-1 #
coedge $-1 $144 $51 $140 $145 forward $32 $-1 #
coedge $-1 $51 $144 $146 $147 reversed $32 $-1 #
coedge $-1 $148 $149 $51 $84 forward $137 $-1 #
edge $-1 $150 6.7618513217558771 $151 17.783221891903459 $83 $152 forward 7 unknown #
face $-1 $153 $154 $18 $-1 $155 reversed single #
loop $-1 $-1 $156 $52 #
plane-surface $-1 -127.1956787633948 10.119844741502416 81.66102709079604 0 -1 0 0.68199836817093118 0 -0.7313536940579346 forward_v I I I I #
coedge $-1 $157 $158 $159 $160 reversed $53 $-1 #
coedge $-1 $90 $55 $161 $162 reversed $35 $-1 #
coedge $-1 $55 $89 $157 $163 reversed $35 $-1 #
coedge $-1 $159 $164 $55 $92 forward $165 $-1 #
edge $-1 $166 9.7924864351353094 $167 20.303233696957832 $91 $168 forward 7 unknown #
loop $-1 $-1 $98 $56 #
plane-surface $-1 -53.805352946562095 6.7820374326214363 2.9595398156777151 -0.68199836817093118 0 0.7313536940579346 0.7313536940579346 0 0.68199836817093118 forward_v I I I I #
loop $-1 $-1 $169 $37 #
coedge $-1 $96 $96 $97 $170 reversed $57 $-1 #
coedge $-1 $97 $97 $96 $170 forward $59 $-1 #
coedge $-1 $98 $98 $60 $99 forward $93 $-1 #
edge $-1 $171 0 $171 6.2831853071796004 $98 $172 forward 7 unknown #
face $-1 $173 $174 $15 $-1 $175 reversed single #
loop $-1 $-1 $176 $61 #
plane-surface $-1 -53.805352946562088 0 0 1 0 0 0 0 -1 forward_v I I I I #
coedge $-1 $177 $111 $178 $179 forward $62 $-1 #
coedge $-1 $180 $64 $177 $181 forward $41 $-1 #
coedge $-1 $64 $180 $182 $183 forward $41 $-1 #
coedge $-1 $114 $113 $64 $107 reversed $115 $-1 #
edge $-1 $184 -30.055758498733127 $185 30.055758498733127 $106 $186 forward 7 unknown #
coedge $-1 $66 $65 $187 $188 forward $26 $-1 #
coedge $-1 $189 $190 $65 $110 reversed $174 $-1 #
edge $-1 $117 -53.805352946562088 $191 53.805352946562088 $109 $192 forward 7 unknown #
coedge $-1 $103 $193 $66 $112 reversed $62 $-1 #
edge $-1 $194 -53.805352946562088 $116 53.805352946562088 $111 $195 forward 7 unknown #
coedge $-1 $106 $67 $193 $196 forward $115 $-1 #
coedge $-1 $67 $106 $189 $197 reversed $115 $-1 #
loop $-1 $-1 $113 $173 #
vertex $-1 $68 $198 #
vertex $-1 $68 $199 #
straight-curve $-1 53.805352946562088 0 12.760970421772674 0 1 0 I I #
face $-1 $200 $201 $16 $-1 $202 forward single #
loop $-1 $-1 $128 $69 #
plane-surface $-1 0 -30.055758498733127 0 0 1 0 0 0 1 forward_v I I I I #
coedge $-1 $203 $204 $205 $206 forward $70 $-1 #
coedge $-1 $205 $72 $74 $130 reversed $45 $-1 #
coedge $-1 $72 $205 $207 $208 reversed $45 $-1 #
coedge $-1 $209 $75 $72 $126 forward $132 $-1 #
edge $-1 $134 2.936752336345239 $210 7.5283961690667018 $125 $211 forward 7 unknown #
coedge $-1 $74 $73 $203 $212 reversed $29 $-1 #
coedge $-1 $213 $214 $73 $129 forward $120 $-1 #
edge $-1 $215 -53.805352946562088 $133 53.805352946562088 $128 $216 forward 7 unknown #
edge $-1 $217 -53.805352946562088 $134 53.805352946562088 $123 $218 forward 7 unknown #
coedge $-1 $75 $209 $213 $219 forward $132 $-1 #
loop $-1 $-1 $125 $200 #
vertex $-1 $129 $220 #
vertex $-1 $76 $221 #
straight-curve $-1 53.805352946562088 -12.272536606829668 8.1693265890512095 0 1 0 I I #
face $-1 $222 $223 $17 $-1 $224 reversed single #
loop $-1 $-1 $149 $77 #
plane-surface $-1 53.805352946562088 0 0 -1 0 0 0 0 1 forward_v I I I I #
coedge $-1 $225 $226 $141 $227 forward $78 $-1 #
coedge $-1 $228 $80 $81 $145 reversed $49 $-1 #
coedge $-1 $80 $228 $139 $227 reversed $49 $-1 #
coedge $-1 $229 $230 $80 $143 forward $223 $-1 #
edge $-1 $231 2.936752336345239 $232 7.5283961690667018 $142 $233 forward 7 unknown #
coedge $-1 $82 $81 $230 $234 reversed $32 $-1 #
edge $-1 $150 -53.805352946562088 $231 53.805352946562088 $140 $235 forward 7 unknown #
coedge $-1 $236 $237 $82 $147 forward $238 $-1 #
edge $-1 $151 -53.805352946562088 $239 53.805352946562088 $146 $240 forward 7 unknown #
coedge $-1 $241 $83 $237 $242 reversed $137 $-1 #
coedge $-1 $83 $241 $228 $243 forward $137 $-1 #
vertex $-1 $84 $244 #
vertex $-1 $147 $245 #
straight-curve $-1 53.805352946562088 12.272536606829668 8.1693265890512095 0 1 0 I I #
face $-1 $-1 $165 $18 $-1 $246 forward single #
loop $-1 $-1 $247 $85 #
plane-surface $-1 -53.805352946562088 0 0 1 0 0 0 0 -1 forward_v I I I I #
coedge $-1 $248 $249 $250 $251 reversed $86 $-1 #
coedge $-1 $252 $88 $90 $163 forward $53 $-1 #
coedge $-1 $88 $252 $248 $253 forward $53 $-1 #
coedge $-1 $250 $91 $88 $160 forward $165 $-1 #
edge $-1 $167 0.053211407429738955 $254 6.7288260251916974 $159 $255 forward 7 unknown #
coedge $-1 $256 $257 $89 $162 forward $154 $-1 #
edge $-1 $258 -37.870973729720298 $166 -28.069543123625344 $161 $259 forward 7 unknown #
edge $-1 $167 -14.371633516340612 $258 -9.739602292442716e-015 $90 $260 forward 7 unknown #
coedge $-1 $91 $250 $256 $261 forward $165 $-1 #
loop $-1 $-1 $250 $153 #
vertex $-1 $162 $262 #
vertex $-1 $92 $263 #
straight-curve $-1 -63.597839381697398 3.4442301237404571 12.760970421772676 1 0 0 I I #
coedge $-1 $169 $169 $-1 $264 reversed $95 $-1 #
edge $-1 $265 0 $265 6.2831853071796004 $96 $266 forward 7 unknown #
vertex $-1 $99 $267 #
ellipse-curve $-1 -48.549979315650823 6.7820374326214292 7.860255118725199 -0.68199836817093118 0 0.7313536940579346 1.0970305410869019 0 1.0229975522563968 1 I I #
face $-1 $-1 $115 $15 $-1 $268 reversed single #
loop $-1 $-1 $189 $100 #
plane-surface $-1 0 30.055758498733127 0 0 -1 0 0 0 -1 forward_v I I I I #
coedge $-1 $269 $187 $190 $270 forward $101 $-1 #
coedge $-1 $193 $103 $104 $181 reversed $62 $-1 #
coedge $-1 $187 $269 $103 $179 reversed $101 $-1 #
edge $-1 $194 -12.760970421772674 $271 12.760970421772674 $178 $272 forward 7 unknown #
coedge $-1 $105 $104 $269 $273 forward $41 $-1 #
edge $-1 $185 -53.805352946562088 $271 53.805352946562088 $177 $274 forward 7 unknown #
coedge $-1 $190 $189 $105 $183 reversed $174 $-1 #
edge $-1 $275 -53.805352946562088 $184 53.805352946562088 $182 $276 forward 7 unknown #
vertex $-1 $107 $277 #
vertex $-1 $196 $278 #
straight-curve $-1 53.805352946562088 0 -12.760970421772674 0 -1 0 I I #
coedge $-1 $176 $178 $108 $188 reversed $101 $-1 #
edge $-1 $191 -30.055758498733127 $194 30.055758498733127 $187 $279 forward 7 unknown #
coedge $-1 $182 $109 $114 $197 forward $174 $-1 #
coedge $-1 $109 $182 $176 $270 reversed $174 $-1 #
vertex $-1 $110 $280 #
straight-curve $-1 0 30.055758498733127 12.760970421772674 -1 0 0 I I #
coedge $-1 $111 $177 $113 $196 reversed $62 $-1 #
vertex $-1 $188 $281 #
straight-curve $-1 0 -30.055758498733127 12.760970421772674 1 0 0 I I #
edge $-1 $116 -12.760970421772674 $185 12.760970421772674 $113 $282 forward 7 unknown #
edge $-1 $117 -12.760970421772674 $184 12.760970421772674 $114 $283 forward 7 unknown #
point $-1 53.805352946562088 -30.055758498733127 12.760970421772674 #
point $-1 53.805352946562088 30.055758498733127 12.760970421772674 #
face $-1 $-1 $132 $16 $-1 $284 reversed single #
loop $-1 $-1 $207 $119 #
plane-surface $-1 0 0 12.760970421772674 0 0 1 1 0 0 forward_v I I I I #
coedge $-1 $285 $122 $127 $212 forward $70 $-1 #
coedge $-1 $122 $285 $286 $287 reversed $70 $-1 #
coedge $-1 $124 $123 $122 $206 reversed $45 $-1 #
edge $-1 $288 -7.5283961690667018 $217 -2.936752336345239 $122 $289 forward 7 unknown #
coedge $-1 $286 $290 $124 $208 forward $201 $-1 #
edge $-1 $210 -53.805352946562088 $288 53.805352946562088 $207 $291 forward 7 unknown #
coedge $-1 $131 $125 $290 $292 reversed $132 $-1 #
vertex $-1 $126 $293 #
straight-curve $-1 53.805352946562088 -19.034387928585545 5.2325742527059704 0 0 1 I I #
edge $-1 $217 6.7618513217558771 $215 17.783221891903459 $203 $294 forward 7 unknown #
coedge $-1 $295 $128 $131 $219 reversed $120 $-1 #
coedge $-1 $128 $295 $285 $296 forward $120 $-1 #
vertex $-1 $129 $297 #
straight-curve $-1 0 -30.055758498733127 8.1693265890512095 1 0 0 I I #
vertex $-1 $212 $298 #
straight-curve $-1 0 -19.034387928585545 8.1693265890512095 1 0 0 I I #
edge $-1 $299 -12.760970421772674 $133 -8.1693265890512095 $131 $300 forward 7 unknown #
point $-1 53.805352946562088 -30.055758498733127 8.1693265890512095 #
point $-1 53.805352946562088 -19.034387928585545 8.1693265890512095 #
face $-1 $-1 $238 $17 $-1 $301 reversed single #
loop $-1 $-1 $142 $136 #
plane-surface $-1 -53.805352946562088 0 0 1 0 0 0 0 -1 forward_v I I I I #
coedge $-1 $302 $139 $241 $303 forward $78 $-1 #
coedge $-1 $139 $302 $229 $304 forward $78 $-1 #
edge $-1 $232 -53.805352946562088 $305 53.805352946562088 $139 $306 forward 7 unknown #
coedge $-1 $141 $140 $149 $243 reversed $49 $-1 #
coedge $-1 $307 $142 $226 $304 reversed $223 $-1 #
coedge $-1 $142 $307 $144 $234 forward $223 $-1 #
vertex $-1 $234 $308 #
vertex $-1 $143 $309 #
straight-curve $-1 -53.805352946562088 19.034387928585545 5.2325742527059704 0 0 1 I I #
edge $-1 $239 -17.783221891903459 $231 -6.7618513217558771 $230 $310 forward 7 unknown #
straight-curve $-1 0 19.034387928585545 8.1693265890512095 -1 0 0 I I #
coedge $-1 $311 $146 $307 $312 reversed $238 $-1 #
coedge $-1 $146 $311 $148 $242 forward $238 $-1 #
loop $-1 $-1 $146 $222 #
vertex $-1 $147 $313 #
straight-curve $-1 0 30.055758498733127 8.1693265890512095 -1 0 0 I I #
coedge $-1 $149 $148 $225 $303 reversed $137 $-1 #
edge $-1 $314 -12.760970421772674 $151 -8.1693265890512095 $148 $315 forward 7 unknown #
edge $-1 $305 -7.5283961690667018 $150 -2.936752336345239 $149 $316 forward 7 unknown #
point $-1 53.805352946562088 19.034387928585545 8.1693265890512095 #
point $-1 53.805352946562088 30.055758498733127 8.1693265890512095 #
plane-surface $-1 0 0 12.760970421772674 0 0 1 1 0 0 forward_v I I I I #
coedge $-1 $257 $256 $249 $317 forward $154 $-1 #
coedge $-1 $249 $156 $158 $253 reversed $86 $-1 #
coedge $-1 $156 $248 $247 $317 reversed $86 $-1 #
coedge $-1 $164 $159 $156 $251 forward $165 $-1 #
edge $-1 $254 -20.303233696957832 $318 -9.7924864351353094 $250 $319 forward 7 unknown #
coedge $-1 $158 $157 $257 $320 reversed $53 $-1 #
edge $-1 $321 9.739602292442716e-015 $254 14.371633516340612 $248 $322 forward 7 unknown #
vertex $-1 $160 $323 #
straight-curve $-1 -43.294605684739558 3.3910187163107182 12.760970421772672 0 1 0 I I #
coedge $-1 $247 $161 $164 $261 reversed $154 $-1 #
coedge $-1 $161 $247 $252 $320 forward $154 $-1 #
vertex $-1 $162 $324 #
straight-curve $-1 -53.805352946562088 3.4442301237404571 40.83051354539802 0 0 1 I I #
straight-curve $-1 -53.805352946562095 3.4442301237404571 2.9595398156777151 -0.7313536940579346 0 -0.68199836817093118 I I #
edge $-1 $318 -10.119844741502416 $166 -3.4442301237404571 $256 $325 forward 7 unknown #
point $-1 -53.805352946562088 3.4442301237404571 12.760970421772674 #
point $-1 -43.294605684739565 3.4442301237404571 12.760970421772674 #
edge $-1 $326 1 $326 0 $169 $-1 forward 7 unknown #
vertex $-1 $170 $327 #
ellipse-curve $-1 -45.472151296862265 6.7820374326214292 4.5596887299037814 -0.68199836817093118 0 0.7313536940579346 1.0970305410869019 0 1.0229975522563968 1 I I #
point $-1 -47.452948774563922 6.7820374326214292 8.8832526709815873 #
plane-surface $-1 53.805352946562088 0 0 -1 0 0 0 0 1 forward_v I I I I #
coedge $-1 $178 $176 $180 $273 reversed $101 $-1 #
edge $-1 $191 -12.760970421772674 $275 12.760970421772674 $190 $328 forward 7 unknown #
vertex $-1 $273 $329 #
straight-curve $-1 -53.805352946562088 -30.055758498733127 0 0 0 -1 I I #
edge $-1 $271 -30.055758498733127 $275 30.055758498733127 $269 $330 forward 7 unknown #
straight-curve $-1 0 -30.055758498733127 -12.760970421772674 -1 0 0 I I #
vertex $-1 $183 $331 #
straight-curve $-1 0 30.055758498733127 -12.760970421772674 1 0 0 I I #
point $-1 53.805352946562088 30.055758498733127 -12.760970421772674 #
point $-1 53.805352946562088 -30.055758498733127 -12.760970421772674 #
straight-curve $-1 -53.805352946562088 0 12.760970421772674 0 -1 0 I I #
point $-1 -53.805352946562088 30.055758498733127 12.760970421772674 #
point $-1 -53.805352946562088 -30.055758498733127 12.760970421772674 #
straight-curve $-1 53.805352946562088 -30.055758498733127 0 0 0 -1 I I #
straight-curve $-1 53.805352946562088 30.055758498733127 0 0 0 -1 I I #
plane-surface $-1 53.805352946562088 0 0 -1 0 0 0 0 1 forward_v I I I I #
coedge $-1 $204 $203 $214 $296 reversed $70 $-1 #
coedge $-1 $332 $207 $204 $287 forward $201 $-1 #
edge $-1 $288 19.034387928585545 $333 30.055758498733127 $204 $334 forward 7 unknown #
vertex $-1 $287 $335 #
straight-curve $-1 -53.805352946562088 -19.034387928585545 5.2325742527059704 0 0 -1 I I #
coedge $-1 $207 $332 $209 $292 forward $201 $-1 #
straight-curve $-1 0 -19.034387928585545 12.760970421772674 -1 0 0 I I #
edge $-1 $299 -30.055758498733127 $210 -19.034387928585545 $209 $336 forward 7 unknown #
point $-1 53.805352946562088 -19.034387928585545 12.760970421772672 #
straight-curve $-1 -53.805352946562088 -12.272536606829668 8.1693265890512095 0 -1 0 I I #
coedge $-1 $214 $213 $332 $337 reversed $120 $-1 #
edge $-1 $333 -12.760970421772674 $215 -8.1693265890512095 $285 $338 forward 7 unknown #
point $-1 -53.805352946562088 -30.055758498733127 8.1693265890512095 #
point $-1 -53.805352946562088 -19.034387928585545 8.1693265890512095 #
vertex $-1 $292 $339 #
straight-curve $-1 53.805352946562088 -30.055758498733127 0 0 0 -1 I I #
plane-surface $-1 0 30.055758498733127 0 0 -1 0 0 0 -1 forward_v I I I I #
coedge $-1 $226 $225 $311 $340 forward $78 $-1 #
edge $-1 $305 19.034387928585545 $314 30.055758498733127 $241 $341 forward 7 unknown #
edge $-1 $342 -30.055758498733127 $232 -19.034387928585545 $229 $343 forward 7 unknown #
vertex $-1 $303 $344 #
straight-curve $-1 0 19.034387928585545 12.760970421772674 1 0 0 I I #
coedge $-1 $230 $229 $236 $312 forward $223 $-1 #
point $-1 -53.805352946562088 19.034387928585545 8.1693265890512095 #
point $-1 -53.805352946562088 19.034387928585545 12.760970421772672 #
straight-curve $-1 -53.805352946562088 12.272536606829668 8.1693265890512095 0 -1 0 I I #
coedge $-1 $237 $236 $302 $340 reversed $238 $-1 #
edge $-1 $342 -12.760970421772674 $239 -8.1693265890512095 $236 $345 forward 7 unknown #
point $-1 -53.805352946562088 30.055758498733127 8.1693265890512095 #
vertex $-1 $303 $346 #
straight-curve $-1 53.805352946562088 30.055758498733127 0 0 0 -1 I I #
straight-curve $-1 53.805352946562088 19.034387928585545 5.2325742527059704 0 0 -1 I I #
edge $-1 $318 28.069543123625344 $321 37.870973729720298 $247 $347 forward 7 unknown #
vertex $-1 $261 $348 #
straight-curve $-1 -63.597839381697398 10.119844741502416 12.760970421772676 -1 0 0 I I #
edge $-1 $321 -6.7288260251916974 $258 -0.053211407429738955 $257 $349 forward 7 unknown #
vertex $-1 $320 $350 #
straight-curve $-1 -53.805352946562095 10.119844741502416 2.9595398156777151 0.7313536940579346 0 0.68199836817093118 I I #
point $-1 -43.294605684739565 10.119844741502416 12.760970421772674 #
point $-1 -53.805352946562088 3.4442301237404571 2.9595398156777217 #
straight-curve $-1 -53.805352946562088 0 12.760970421772674 0 -1 0 I I #
vertex $-1 $264 $351 #
point $-1 -44.375120755775363 6.7820374326214292 5.5826862821601786 #
straight-curve $-1 -53.805352946562088 30.055758498733127 0 0 0 -1 I I #
point $-1 -53.805352946562088 -30.055758498733127 -12.760970421772674 #
straight-curve $-1 -53.805352946562088 0 -12.760970421772674 0 1 0 I I #
point $-1 -53.805352946562088 30.055758498733127 -12.760970421772674 #
coedge $-1 $290 $286 $295 $337 forward $201 $-1 #
vertex $-1 $287 $352 #
straight-curve $-1 -53.805352946562088 0 12.760970421772674 0 -1 0 I I #
point $-1 -53.805352946562088 -19.034387928585545 12.760970421772672 #
straight-curve $-1 53.805352946562088 0 12.760970421772674 0 1 0 I I #
edge $-1 $333 -53.805352946562088 $299 53.805352946562088 $295 $353 forward 7 unknown #
straight-curve $-1 -53.805352946562088 -30.055758498733127 0 0 0 -1 I I #
point $-1 53.805352946562088 -30.055758498733127 12.760970421772674 #
edge $-1 $314 -53.805352946562088 $342 53.805352946562088 $311 $354 forward 7 unknown #
straight-curve $-1 53.805352946562088 0 12.760970421772674 0 1 0 I I #
vertex $-1 $340 $355 #
straight-curve $-1 -53.805352946562088 0 12.760970421772674 0 -1 0 I I #
point $-1 53.805352946562088 19.034387928585545 12.760970421772672 #
straight-curve $-1 -53.805352946562088 30.055758498733127 0 0 0 -1 I I #
point $-1 53.805352946562088 30.055758498733127 12.760970421772674 #
straight-curve $-1 -53.805352946562088 10.119844741502416 40.83051354539802 0 0 -1 I I #
point $-1 -53.805352946562088 10.119844741502416 12.760970421772674 #
straight-curve $-1 -53.805352946562088 3.3910187163107182 2.959539815677724 0 -1 0 I I #
point $-1 -53.805352946562088 10.119844741502416 2.9595398156777217 #
point $-1 -44.449153744605866 6.7820374326214292 3.4626581888168797 #
point $-1 -53.805352946562088 -30.055758498733127 12.760970421772674 #
straight-curve $-1 0 -30.055758498733127 12.760970421772674 1 0 0 I I #
straight-curve $-1 0 30.055758498733127 12.760970421772674 -1 0 0 I I #
point $-1 -53.805352946562088 30.055758498733127 12.760970421772674 #
End-of-ACIS-data 