500 0 5 0           
7 Unknown 11 ACIS 5.0 NT 24 Thu Mar 25 18:44:59 1999 
-1 9.9999999999999995e-007 1e-010 
body $-1 $5 $-1 $6 #
body $-1 $7 $-1 $8 #
body $-1 $9 $-1 $10 #
body $-1 $11 $-1 $12 #
body $-1 $13 $-1 $14 #
lump $-1 $-1 $15 $0 #
transform $-1 1 0 0 0 1 0 0 0 1 46.264839625232703 27.916616796964586 6.3973840713744741 1 rotate no_reflect no_shear #
lump $-1 $-1 $16 $1 #
transform $-1 1 0 0 0 1 0 0 0 1 46.264839625232703 27.916616796964586 6.3973840713744741 1 rotate no_reflect no_shear #
lump $-1 $-1 $17 $2 #
transform $-1 1 0 0 0 1 0 0 0 1 46.264839625232703 27.916616796964586 6.3973840713744741 1 rotate no_reflect no_shear #
lump $-1 $-1 $18 $3 #
transform $-1 1 0 0 0 1 0 0 0 1 46.264839625232703 27.916616796964586 6.3973840713744741 1 rotate no_reflect no_shear #
lump $-1 $-1 $19 $4 #
transform $-1 1 0 0 0 1 0 0 0 1 46.264839625232703 27.916616796964586 6.3973840713744741 1 rotate no_reflect no_shear #
shell $-1 $-1 $-1 $20 $-1 $5 #
shell $-1 $-1 $-1 $21 $-1 $7 #
shell $-1 $-1 $-1 $22 $-1 $9 #
shell $-1 $-1 $-1 $23 $-1 $11 #
shell $-1 $-1 $-1 $24 $-1 $13 #
face $-1 $25 $26 $15 $-1 $27 forward single #
face $-1 $28 $29 $16 $-1 $30 forward single #
face $-1 $31 $32 $17 $-1 $33 reversed single #
face $-1 $34 $35 $18 $-1 $36 reversed single #
face $-1 $37 $38 $19 $-1 $39 forward single #
face $-1 $40 $41 $15 $-1 $42 reversed single #
loop $-1 $-1 $43 $20 #
plane-surface $-1 0 0 6.3973840713744741 0 0 1 1 0 0 forward_v I I I I #
face $-1 $44 $45 $16 $-1 $46 reversed single #
loop $-1 $-1 $47 $21 #
plane-surface $-1 -43.495241090269552 0 -2.5792353117472917 0 0 1 1 0 0 forward_v I I I I #
face $-1 $48 $49 $17 $-1 $50 reversed single #
loop $-1 $-1 $51 $22 #
plane-surface $-1 43.596651937596242 0 3.3973840713744741 0 0 1 1 0 0 forward_v I I I I #
face $-1 $52 $53 $18 $-1 $54 reversed single #
loop $-1 $-1 $55 $23 #
plane-surface $-1 -22.150809744375479 -100.83099983789049 59.453278550620425 -1 0 0 0 -0.78801076186113728 0.61566146476048833 forward_v I I I I #
face $-1 $56 $57 $19 $-1 $58 forward single #
loop $-1 $59 $60 $24 #
cone-surface $-1 -31.43822614984094 -25.947514515657193 4.097091730468259 0 0.78801076186113728 -0.61566146476048833 0.5 0 0 1 I I 0 1 0.5 forward I I I I #
face $-1 $61 $62 $15 $-1 $63 reversed single #
loop $-1 $-1 $64 $25 #
plane-surface $-1 0 0 -6.3973840713744741 0 0 1 1 0 0 forward_v I I I I #
coedge $-1 $65 $66 $67 $68 forward $26 $-1 #
face $-1 $69 $70 $16 $-1 $71 reversed single #
loop $-1 $-1 $72 $28 #
plane-surface $-1 -43.495241090269552 0 -5.5792353117472917 0 0 1 1 0 0 forward_v I I I I #
coedge $-1 $73 $74 $75 $76 forward $29 $-1 #
face $-1 $77 $78 $17 $-1 $79 reversed single #
loop $-1 $-1 $80 $31 #
plane-surface $-1 40.928464249959774 0 4.8973840713744741 1 0 0 0 0 -1 forward_v I I I I #
coedge $-1 $81 $82 $83 $84 reversed $32 $-1 #
face $-1 $85 $86 $18 $-1 $87 reversed single #
loop $-1 $-1 $88 $34 #
plane-surface $-1 -31.43822614984094 -27.916616796964576 2.4863206894607259 0 -0.78801076186113728 0.61566146476048833 1 0 0 forward_v I I I I #
coedge $-1 $89 $90 $91 $92 reversed $35 $-1 #
face $-1 $-1 $93 $19 $-1 $94 forward single #
loop $-1 $95 $96 $37 #
cone-surface $-1 -31.43822614984094 -25.309238303984902 3.5984157143287918 0 0.78801076186113728 -0.61566146476048833 0.25 0 0 1 I I -0.70710678118654746 0.70710678118654746 0.25 forward I I I I #
loop $-1 $-1 $97 $24 #
coedge $-1 $60 $60 $98 $99 reversed $38 $-1 #
face $-1 $100 $101 $15 $-1 $102 reversed single #
loop $-1 $-1 $103 $40 #
plane-surface $-1 0 -27.916616796964586 0 0 1 0 0 0 1 forward_v I I I I #
coedge $-1 $104 $105 $106 $107 forward $41 $-1 #
coedge $-1 $108 $43 $109 $110 forward $26 $-1 #
coedge $-1 $43 $108 $111 $112 forward $26 $-1 #
coedge $-1 $113 $114 $43 $68 reversed $115 $-1 #
edge $-1 $116 -27.916616796964586 $117 27.916616796964586 $67 $118 forward 7 unknown #
face $-1 $119 $120 $16 $-1 $121 reversed single #
loop $-1 $-1 $122 $44 #
plane-surface $-1 -40.725642555306401 0 -4.0792353117472917 -1 0 0 0 0 1 forward_v I I I I #
coedge $-1 $123 $124 $125 $126 forward $45 $-1 #
coedge $-1 $127 $47 $128 $129 reversed $29 $-1 #
coedge $-1 $47 $127 $130 $131 reversed $29 $-1 #
coedge $-1 $122 $132 $47 $76 reversed $70 $-1 #
edge $-1 $133 -27.916616796964586 $134 27.916616796964586 $75 $135 forward 7 unknown #
face $-1 $136 $137 $17 $-1 $138 reversed single #
loop $-1 $-1 $139 $48 #
plane-surface $-1 0 -27.916616796964586 0 0 1 0 0 0 1 forward_v I I I I #
coedge $-1 $140 $141 $142 $143 reversed $49 $-1 #
coedge $-1 $144 $51 $145 $146 reversed $32 $-1 #
coedge $-1 $51 $144 $147 $148 reversed $32 $-1 #
coedge $-1 $149 $150 $51 $84 forward $137 $-1 #
edge $-1 $151 -27.916616796964586 $152 27.916616796964586 $83 $153 forward 7 unknown #
face $-1 $154 $155 $18 $-1 $156 forward single #
loop $-1 $-1 $157 $52 #
plane-surface $-1 -40.725642555306401 -100.83099983789049 59.453278550620425 1 0 0 0 0.78801076186113728 -0.61566146476048833 forward_v I I I I #
coedge $-1 $158 $159 $160 $161 reversed $53 $-1 #
coedge $-1 $90 $55 $162 $163 reversed $35 $-1 #
coedge $-1 $55 $89 $158 $164 reversed $35 $-1 #
coedge $-1 $160 $165 $55 $92 forward $155 $-1 #
edge $-1 $166 22.498883121980658 $167 25.554540642181443 $91 $168 forward 7 unknown #
loop $-1 $-1 $98 $56 #
plane-surface $-1 -31.43822614984094 -27.916616796964576 2.4863206894607259 0 -0.78801076186113728 0.61566146476048833 1 0 0 forward_v I I I I #
loop $-1 $-1 $169 $37 #
coedge $-1 $96 $96 $97 $170 reversed $57 $-1 #
coedge $-1 $97 $97 $96 $170 forward $59 $-1 #
coedge $-1 $98 $98 $60 $99 forward $93 $-1 #
edge $-1 $171 8.7426961934069557e-016 $171 6.2831853071796013 $98 $172 forward 7 unknown #
face $-1 $173 $174 $15 $-1 $175 reversed single #
loop $-1 $-1 $176 $61 #
plane-surface $-1 -46.264839625232703 0 0 1 0 0 0 0 -1 forward_v I I I I #
coedge $-1 $177 $111 $178 $179 forward $62 $-1 #
coedge $-1 $180 $64 $177 $181 forward $41 $-1 #
coedge $-1 $64 $180 $182 $183 forward $41 $-1 #
coedge $-1 $114 $113 $64 $107 reversed $115 $-1 #
edge $-1 $184 -27.916616796964586 $185 27.916616796964586 $106 $186 forward 7 unknown #
coedge $-1 $66 $65 $187 $188 forward $26 $-1 #
coedge $-1 $189 $190 $65 $110 reversed $174 $-1 #
edge $-1 $117 -46.264839625232703 $191 46.264839625232703 $109 $192 forward 7 unknown #
coedge $-1 $103 $193 $66 $112 reversed $62 $-1 #
edge $-1 $194 -46.264839625232703 $116 46.264839625232703 $111 $195 forward 7 unknown #
coedge $-1 $106 $67 $193 $196 forward $115 $-1 #
coedge $-1 $67 $106 $189 $197 reversed $115 $-1 #
loop $-1 $-1 $113 $173 #
vertex $-1 $68 $198 #
vertex $-1 $68 $199 #
straight-curve $-1 46.264839625232703 0 6.3973840713744741 0 1 0 I I #
face $-1 $200 $201 $16 $-1 $202 reversed single #
loop $-1 $-1 $203 $69 #
plane-surface $-1 0 -27.916616796964586 0 0 1 0 0 0 1 forward_v I I I I #
coedge $-1 $125 $75 $204 $205 reversed $70 $-1 #
coedge $-1 $206 $72 $203 $207 reversed $45 $-1 #
coedge $-1 $72 $206 $208 $209 reversed $45 $-1 #
coedge $-1 $132 $122 $72 $126 reversed $70 $-1 #
edge $-1 $210 -27.916616796964586 $211 27.916616796964586 $125 $212 forward 7 unknown #
coedge $-1 $74 $73 $213 $214 reversed $29 $-1 #
coedge $-1 $215 $216 $73 $129 forward $217 $-1 #
edge $-1 $218 -24.517219080097927 $134 -18.978022010171625 $128 $219 forward 7 unknown #
coedge $-1 $220 $204 $74 $131 forward $120 $-1 #
edge $-1 $133 18.978022010171625 $221 24.517219080097927 $130 $222 forward 7 unknown #
coedge $-1 $75 $125 $215 $223 reversed $70 $-1 #
vertex $-1 $131 $224 #
vertex $-1 $129 $225 #
straight-curve $-1 -40.725642555306401 0 -2.5792353117472917 0 1 0 I I #
face $-1 $226 $227 $17 $-1 $228 forward single #
loop $-1 $-1 $83 $77 #
plane-surface $-1 46.264839625232703 0 0 -1 0 0 0 0 1 forward_v I I I I #
coedge $-1 $145 $229 $230 $231 forward $78 $-1 #
coedge $-1 $230 $80 $144 $232 reversed $49 $-1 #
coedge $-1 $80 $230 $233 $234 reversed $49 $-1 #
coedge $-1 $235 $147 $80 $143 forward $236 $-1 #
edge $-1 $237 0.94869203568723703 $238 3.948692035687237 $142 $239 forward 7 unknown #
coedge $-1 $82 $81 $140 $232 forward $32 $-1 #
coedge $-1 $240 $139 $81 $146 forward $78 $-1 #
edge $-1 $241 19.130138281161653 $151 24.466513656434589 $145 $242 forward 7 unknown #
coedge $-1 $142 $243 $82 $148 forward $236 $-1 #
edge $-1 $152 -24.466513656434589 $237 -19.130138281161653 $147 $244 forward 7 unknown #
coedge $-1 $245 $83 $243 $246 reversed $137 $-1 #
coedge $-1 $83 $245 $240 $247 forward $137 $-1 #
vertex $-1 $84 $248 #
vertex $-1 $84 $249 #
straight-curve $-1 46.264839625232703 0 3.3973840713744741 0 1 0 I I #
face $-1 $-1 $250 $18 $-1 $251 reversed single #
loop $-1 $-1 $91 $85 #
plane-surface $-1 0 0 6.3973840713744741 0 0 1 1 0 0 forward_v I I I I #
coedge $-1 $252 $253 $254 $255 reversed $86 $-1 #
coedge $-1 $256 $88 $90 $164 forward $53 $-1 #
coedge $-1 $88 $256 $252 $257 forward $53 $-1 #
coedge $-1 $254 $91 $88 $161 forward $155 $-1 #
edge $-1 $167 6.4316966694550093 $258 25.006529480385929 $160 $259 forward 7 unknown #
coedge $-1 $260 $261 $89 $163 forward $250 $-1 #
edge $-1 $262 -27.240318585849501 $166 -23.329255203935737 $162 $263 forward 7 unknown #
edge $-1 $167 -4.9632106199622594 $262 1.7410166096330825e-014 $90 $264 forward 7 unknown #
coedge $-1 $91 $254 $260 $265 forward $155 $-1 #
vertex $-1 $163 $266 #
vertex $-1 $92 $267 #
straight-curve $-1 -22.150809744375479 -50.415499918945244 6.397384071374475 0 1 0 I I #
coedge $-1 $169 $169 $-1 $268 reversed $95 $-1 #
edge $-1 $269 0 $269 6.2831853071796004 $96 $270 forward 7 unknown #
vertex $-1 $99 $271 #
ellipse-curve $-1 -31.43822614984094 -26.388788036864192 4.441852380417596 0 -0.78801076186113728 0.61566146476048833 0.5 0 0 1 I I #
face $-1 $-1 $115 $15 $-1 $272 reversed single #
loop $-1 $-1 $189 $100 #
plane-surface $-1 0 27.916616796964586 0 0 -1 0 0 0 -1 forward_v I I I I #
coedge $-1 $273 $187 $190 $274 forward $101 $-1 #
coedge $-1 $193 $103 $104 $181 reversed $62 $-1 #
coedge $-1 $187 $273 $103 $179 reversed $101 $-1 #
edge $-1 $194 -6.3973840713744741 $275 6.3973840713744741 $178 $276 forward 7 unknown #
coedge $-1 $105 $104 $273 $277 forward $41 $-1 #
edge $-1 $185 -46.264839625232703 $275 46.264839625232703 $177 $278 forward 7 unknown #
coedge $-1 $190 $189 $105 $183 reversed $174 $-1 #
edge $-1 $279 -46.264839625232703 $184 46.264839625232703 $182 $280 forward 7 unknown #
vertex $-1 $107 $281 #
vertex $-1 $196 $282 #
straight-curve $-1 46.264839625232703 0 -6.3973840713744741 0 -1 0 I I #
coedge $-1 $176 $178 $108 $188 reversed $101 $-1 #
edge $-1 $191 -27.916616796964586 $194 27.916616796964586 $187 $283 forward 7 unknown #
coedge $-1 $182 $109 $114 $197 forward $174 $-1 #
coedge $-1 $109 $182 $176 $274 reversed $174 $-1 #
vertex $-1 $110 $284 #
straight-curve $-1 0 27.916616796964586 6.3973840713744741 -1 0 0 I I #
coedge $-1 $111 $177 $113 $196 reversed $62 $-1 #
vertex $-1 $188 $285 #
straight-curve $-1 0 -27.916616796964586 6.3973840713744741 1 0 0 I I #
edge $-1 $116 -6.3973840713744741 $185 6.3973840713744741 $113 $286 forward 7 unknown #
edge $-1 $117 -6.3973840713744741 $184 6.3973840713744741 $114 $287 forward 7 unknown #
point $-1 46.264839625232703 -27.916616796964586 6.3973840713744741 #
point $-1 46.264839625232703 27.916616796964586 6.3973840713744741 #
face $-1 $-1 $217 $16 $-1 $288 reversed single #
loop $-1 $-1 $289 $119 #
plane-surface $-1 -46.264839625232703 0 0 1 0 0 0 0 -1 forward_v I I I I #
coedge $-1 $204 $220 $123 $207 forward $120 $-1 #
coedge $-1 $130 $203 $122 $205 forward $120 $-1 #
edge $-1 $211 -3.5396176558736459 $133 -0.53961765587364585 $204 $290 forward 7 unknown #
coedge $-1 $124 $123 $289 $291 reversed $45 $-1 #
edge $-1 $292 -24.517219080097927 $211 -18.978022010171625 $203 $293 forward 7 unknown #
coedge $-1 $216 $215 $124 $209 forward $217 $-1 #
edge $-1 $210 18.978022010171625 $294 24.517219080097927 $208 $295 forward 7 unknown #
vertex $-1 $209 $296 #
vertex $-1 $207 $297 #
straight-curve $-1 -40.725642555306401 0 -5.5792353117472917 0 -1 0 I I #
coedge $-1 $298 $299 $127 $214 forward $201 $-1 #
edge $-1 $221 -27.916616796964586 $218 27.916616796964586 $213 $300 forward 7 unknown #
coedge $-1 $208 $128 $132 $223 forward $217 $-1 #
coedge $-1 $128 $208 $298 $301 reversed $217 $-1 #
loop $-1 $-1 $208 $200 #
vertex $-1 $301 $302 #
straight-curve $-1 -21.747620545134776 27.916616796964586 -2.5792353117472917 1 0 0 I I #
coedge $-1 $203 $130 $299 $303 forward $120 $-1 #
vertex $-1 $303 $304 #
straight-curve $-1 -21.747620545134776 -27.916616796964586 -2.5792353117472917 -1 0 0 I I #
edge $-1 $134 0.53961765587364585 $210 3.5396176558736459 $215 $305 forward 7 unknown #
point $-1 -40.725642555306401 -27.916616796964586 -2.5792353117472917 #
point $-1 -40.725642555306401 27.916616796964586 -2.5792353117472917 #
face $-1 $-1 $236 $17 $-1 $306 reversed single #
loop $-1 $-1 $233 $136 #
plane-surface $-1 0 0 6.3973840713744741 0 0 1 1 0 0 forward_v I I I I #
coedge $-1 $139 $240 $307 $308 reversed $78 $-1 #
coedge $-1 $141 $140 $139 $231 reversed $49 $-1 #
edge $-1 $309 -3.948692035687237 $241 -0.94869203568723703 $139 $310 forward 7 unknown #
edge $-1 $241 -27.916616796964586 $237 27.916616796964586 $140 $311 forward 7 unknown #
coedge $-1 $307 $312 $141 $234 forward $227 $-1 #
edge $-1 $238 -27.916616796964586 $309 27.916616796964586 $233 $313 forward 7 unknown #
coedge $-1 $243 $142 $312 $314 reversed $236 $-1 #
loop $-1 $-1 $142 $226 #
vertex $-1 $148 $315 #
vertex $-1 $143 $316 #
straight-curve $-1 40.928464249959774 27.916616796964586 2.448692035687237 0 0 1 I I #
coedge $-1 $229 $145 $150 $247 reversed $78 $-1 #
vertex $-1 $146 $317 #
straight-curve $-1 21.798325968798121 -27.916616796964586 3.3973840713744741 1 0 0 I I #
coedge $-1 $147 $235 $149 $246 forward $236 $-1 #
straight-curve $-1 21.798325968798121 27.916616796964586 3.3973840713744741 -1 0 0 I I #
coedge $-1 $150 $149 $318 $319 reversed $137 $-1 #
edge $-1 $320 -6.3973840713744741 $152 -3.3973840713744741 $149 $321 forward 7 unknown #
edge $-1 $322 -6.3973840713744741 $151 -3.3973840713744741 $150 $323 forward 7 unknown #
point $-1 46.26483962523271 -27.916616796964586 3.3973840713744741 #
point $-1 46.26483962523271 27.916616796964586 3.3973840713744741 #
loop $-1 $-1 $162 $154 #
plane-surface $-1 0 -27.916616796964586 0 0 1 0 0 0 1 forward_v I I I I #
coedge $-1 $253 $157 $159 $257 reversed $86 $-1 #
coedge $-1 $157 $252 $324 $325 reversed $86 $-1 #
coedge $-1 $165 $160 $157 $255 forward $155 $-1 #
edge $-1 $258 -25.554540642181443 $326 -22.498883121980658 $254 $327 forward 7 unknown #
coedge $-1 $159 $158 $261 $328 reversed $53 $-1 #
edge $-1 $329 -1.7410166096330825e-014 $258 4.9632106199622594 $252 $330 forward 7 unknown #
vertex $-1 $161 $331 #
straight-curve $-1 -15.71911307492047 -24.860959276763801 6.3973840713744741 -1 0 0 I I #
coedge $-1 $324 $162 $165 $265 reversed $250 $-1 #
coedge $-1 $162 $324 $256 $328 forward $250 $-1 #
vertex $-1 $163 $332 #
straight-curve $-1 -22.150809744375479 -27.91661679696459 29.726639275310212 0 0 1 I I #
straight-curve $-1 -22.150809744375479 -27.916616796964576 2.4863206894607259 0 -0.61566146476048833 -0.78801076186113728 I I #
edge $-1 $326 -40.725642555306401 $166 -22.150809744375479 $260 $333 forward 7 unknown #
point $-1 -22.150809744375479 -27.916616796964586 6.3973840713744741 #
point $-1 -22.150809744375479 -24.860959276763801 6.3973840713744741 #
edge $-1 $334 1 $334 0 $169 $-1 forward 7 unknown #
vertex $-1 $170 $335 #
ellipse-curve $-1 -31.43822614984094 -25.506240994450184 3.7523310805189141 0 -0.78801076186113728 0.61566146476048833 0.5 0 0 1 I I #
point $-1 -30.93822614984094 -26.388788036864202 4.4418523804176049 #
plane-surface $-1 46.264839625232703 0 0 -1 0 0 0 0 1 forward_v I I I I #
coedge $-1 $178 $176 $180 $277 reversed $101 $-1 #
edge $-1 $191 -6.3973840713744741 $279 6.3973840713744741 $190 $336 forward 7 unknown #
vertex $-1 $277 $337 #
straight-curve $-1 -46.264839625232703 -27.916616796964586 0 0 0 -1 I I #
edge $-1 $275 -27.916616796964586 $279 27.916616796964586 $273 $338 forward 7 unknown #
straight-curve $-1 0 -27.916616796964586 -6.3973840713744741 -1 0 0 I I #
vertex $-1 $183 $339 #
straight-curve $-1 0 27.916616796964586 -6.3973840713744741 1 0 0 I I #
point $-1 46.264839625232703 27.916616796964586 -6.3973840713744741 #
point $-1 46.264839625232703 -27.916616796964586 -6.3973840713744741 #
straight-curve $-1 -46.264839625232703 0 6.3973840713744741 0 -1 0 I I #
point $-1 -46.264839625232703 27.916616796964586 6.3973840713744741 #
point $-1 -46.264839625232703 -27.916616796964586 6.3973840713744741 #
straight-curve $-1 46.264839625232703 -27.916616796964586 0 0 0 -1 I I #
straight-curve $-1 46.264839625232703 27.916616796964586 0 0 0 -1 I I #
plane-surface $-1 0 27.916616796964586 0 0 -1 0 0 0 -1 forward_v I I I I #
coedge $-1 $299 $298 $206 $291 forward $201 $-1 #
straight-curve $-1 -40.725642555306401 -27.916616796964586 -2.0396176558736459 0 0 1 I I #
edge $-1 $294 -27.916616796964586 $292 27.916616796964586 $289 $340 forward 7 unknown #
vertex $-1 $207 $341 #
straight-curve $-1 -21.747620545134776 -27.916616796964586 -5.5792353117472917 1 0 0 I I #
vertex $-1 $209 $342 #
straight-curve $-1 -21.747620545134776 27.916616796964586 -5.5792353117472917 -1 0 0 I I #
point $-1 -40.725642555306401 27.916616796964586 -5.5792353117472917 #
point $-1 -40.725642555306401 -27.916616796964586 -5.5792353117472917 #
coedge $-1 $289 $213 $216 $301 forward $201 $-1 #
coedge $-1 $213 $289 $220 $303 reversed $201 $-1 #
straight-curve $-1 -46.264839625232703 0 -2.5792353117472917 0 1 0 I I #
edge $-1 $218 2.5792353117472917 $294 5.5792353117472917 $216 $343 forward 7 unknown #
point $-1 -46.264839625232703 27.916616796964586 -2.5792353117472917 #
edge $-1 $221 2.5792353117472917 $292 5.5792353117472917 $299 $344 forward 7 unknown #
point $-1 -46.264839625232703 -27.916616796964586 -2.5792353117472917 #
straight-curve $-1 -40.725642555306401 27.916616796964586 -2.0396176558736459 0 0 -1 I I #
plane-surface $-1 0 27.916616796964586 0 0 -1 0 0 0 -1 forward_v I I I I #
coedge $-1 $318 $233 $229 $308 forward $227 $-1 #
edge $-1 $309 40.928464249959774 $322 46.264839625232703 $229 $345 forward 7 unknown #
vertex $-1 $308 $346 #
straight-curve $-1 40.928464249959774 -27.916616796964586 2.448692035687237 0 0 -1 I I #
straight-curve $-1 40.928464249959774 0 3.3973840713744741 0 1 0 I I #
coedge $-1 $233 $318 $235 $314 forward $227 $-1 #
straight-curve $-1 40.928464249959774 0 6.3973840713744741 0 -1 0 I I #
edge $-1 $320 -46.264839625232703 $238 -40.928464249959774 $235 $347 forward 7 unknown #
point $-1 40.928464249959774 27.916616796964586 3.3973840713744741 #
point $-1 40.928464249959774 27.916616796964586 6.3973840713744741 #
point $-1 40.928464249959774 -27.916616796964586 3.3973840713744741 #
coedge $-1 $312 $307 $245 $319 forward $227 $-1 #
edge $-1 $322 -27.916616796964586 $320 27.916616796964586 $245 $348 forward 7 unknown #
vertex $-1 $319 $349 #
straight-curve $-1 46.264839625232703 27.916616796964586 0 0 0 -1 I I #
vertex $-1 $319 $350 #
straight-curve $-1 46.264839625232703 -27.916616796964586 0 0 0 -1 I I #
coedge $-1 $261 $260 $253 $325 forward $250 $-1 #
edge $-1 $326 23.329255203935737 $329 27.240318585849501 $324 $351 forward 7 unknown #
vertex $-1 $265 $352 #
straight-curve $-1 -40.725642555306401 -50.415499918945244 6.397384071374475 0 -1 0 I I #
edge $-1 $329 -25.006529480385929 $262 -6.4316966694550093 $261 $353 forward 7 unknown #
vertex $-1 $328 $354 #
straight-curve $-1 -40.725642555306401 -27.916616796964576 2.4863206894607259 0 0.61566146476048833 0.78801076186113728 I I #
point $-1 -40.725642555306401 -24.860959276763801 6.3973840713744741 #
point $-1 -22.150809744375479 -27.916616796964586 2.4863206894607122 #
straight-curve $-1 0 -27.916616796964586 6.3973840713744741 1 0 0 I I #
vertex $-1 $268 $355 #
point $-1 -30.93822614984094 -25.506240994450184 3.7523310805189141 #
straight-curve $-1 -46.264839625232703 27.916616796964586 0 0 0 -1 I I #
point $-1 -46.264839625232703 -27.916616796964586 -6.3973840713744741 #
straight-curve $-1 -46.264839625232703 0 -6.3973840713744741 0 1 0 I I #
point $-1 -46.264839625232703 27.916616796964586 -6.3973840713744741 #
straight-curve $-1 -46.264839625232703 0 -5.5792353117472917 0 -1 0 I I #
point $-1 -46.264839625232703 -27.916616796964586 -5.5792353117472917 #
point $-1 -46.264839625232703 27.916616796964586 -5.5792353117472917 #
straight-curve $-1 -46.264839625232703 27.916616796964586 0 0 0 -1 I I #
straight-curve $-1 -46.264839625232703 -27.916616796964586 0 0 0 -1 I I #
straight-curve $-1 0 -27.916616796964586 6.3973840713744741 1 0 0 I I #
point $-1 40.928464249959774 -27.916616796964586 6.3973840713744741 #
straight-curve $-1 0 27.916616796964586 6.3973840713744741 -1 0 0 I I #
straight-curve $-1 46.264839625232703 0 6.3973840713744741 0 1 0 I I #
point $-1 46.264839625232703 27.916616796964586 6.3973840713744741 #
point $-1 46.264839625232703 -27.916616796964586 6.3973840713744741 #
straight-curve $-1 -40.725642555306401 -27.91661679696459 29.726639275310212 0 0 -1 I I #
point $-1 -40.725642555306401 -27.916616796964586 6.3973840713744741 #
straight-curve $-1 -15.71911307492047 -27.916616796964586 2.4863206894607135 1 0 0 I I #
point $-1 -40.725642555306401 -27.916616796964586 2.4863206894607122 #
point $-1 -31.43822614984094 -25.112235613519619 3.4445003481386696 #
End-of-ACIS-data 