500 0 8 0           
7 Unknown 11 ACIS 5.0 NT 24 Fri Mar 26 19:28:21 1999 
-1 9.9999999999999995e-007 1e-010 
body $-1 $8 $-1 $9 #
body $-1 $10 $-1 $11 #
body $-1 $12 $-1 $13 #
body $-1 $14 $-1 $15 #
body $-1 $16 $-1 $17 #
body $-1 $18 $-1 $19 #
body $-1 $20 $-1 $21 #
body $-1 $22 $-1 $23 #
lump $-1 $-1 $24 $0 #
transform $-1 1 0 0 0 1 0 0 0 1 58.170720542008731 36.348578415891609 14.178463703264779 1 rotate no_reflect no_shear #
lump $-1 $-1 $25 $1 #
transform $-1 1 0 0 0 1 0 0 0 1 58.170720542008731 36.348578415891609 14.178463703264779 1 rotate no_reflect no_shear #
lump $-1 $-1 $26 $2 #
transform $-1 1 0 0 0 1 0 0 0 1 58.170720542008731 36.348578415891609 14.178463703264779 1 rotate no_reflect no_shear #
lump $-1 $-1 $27 $3 #
transform $-1 1 0 0 0 1 0 0 0 1 58.170720542008731 36.348578415891609 14.178463703264779 1 rotate no_reflect no_shear #
lump $-1 $-1 $28 $4 #
transform $-1 1 0 0 0 1 0 0 0 1 58.170720542008731 36.348578415891609 14.178463703264779 1 rotate no_reflect no_shear #
lump $-1 $-1 $29 $5 #
transform $-1 1 0 0 0 1 0 0 0 1 58.170720542008731 36.348578415891609 14.178463703264779 1 rotate no_reflect no_shear #
lump $-1 $-1 $30 $6 #
transform $-1 1 0 0 0 1 0 0 0 1 58.170720542008731 36.348578415891609 14.178463703264779 1 rotate no_reflect no_shear #
lump $-1 $-1 $31 $7 #
transform $-1 1 0 0 0 1 0 0 0 1 58.170720542008731 36.348578415891609 14.178463703264779 1 rotate no_reflect no_shear #
shell $-1 $-1 $-1 $32 $-1 $8 #
shell $-1 $-1 $-1 $33 $-1 $10 #
shell $-1 $-1 $-1 $34 $-1 $12 #
shell $-1 $-1 $-1 $35 $-1 $14 #
shell $-1 $-1 $-1 $36 $-1 $16 #
shell $-1 $-1 $-1 $37 $-1 $18 #
shell $-1 $-1 $-1 $38 $-1 $20 #
shell $-1 $-1 $-1 $39 $-1 $22 #
face $-1 $40 $41 $24 $-1 $42 reversed single #
face $-1 $43 $44 $25 $-1 $45 forward single #
face $-1 $46 $47 $26 $-1 $48 reversed single #
face $-1 $49 $50 $27 $-1 $51 forward single #
face $-1 $52 $53 $28 $-1 $54 forward single #
face $-1 $55 $56 $29 $-1 $57 reversed single #
face $-1 $58 $59 $30 $-1 $60 forward single #
face $-1 $61 $62 $31 $-1 $63 forward single #
face $-1 $64 $65 $24 $-1 $66 forward single #
loop $-1 $-1 $67 $32 #
plane-surface $-1 0 -36.348578415891609 0 0 1 0 0 0 1 forward_v I I I I #
face $-1 $68 $69 $25 $-1 $70 forward single #
loop $-1 $-1 $71 $33 #
plane-surface $-1 0 -36.348578415891609 0 0 1 0 0 0 1 forward_v I I I I #
face $-1 $72 $73 $26 $-1 $74 reversed single #
loop $-1 $-1 $75 $34 #
plane-surface $-1 35.272343016094105 26.128171017576452 172.80536277821523 0 1 0 0.6018150307709319 0 0.79863550430605224 forward_v I I I I #
face $-1 $76 $77 $27 $-1 $78 forward single #
loop $-1 $79 $80 $35 #
cone-surface $-1 54.889300851193077 29.048287417095068 11.461470644159686 -0.6018150307709319 0 -0.79863550430605224 0.79863550430605224 0 -0.6018150307709319 1 I I 0 1 1 forward I I I I #
face $-1 $81 $82 $28 $-1 $83 forward single #
loop $-1 $84 $85 $36 #
cone-surface $-1 54.889300851193077 33.42846201637299 11.461470644159686 -0.6018150307709319 0 -0.79863550430605224 0.79863550430605224 0 -0.6018150307709319 1 I I 0 1 1 forward I I I I #
face $-1 $86 $87 $29 $-1 $88 reversed single #
loop $-1 $-1 $89 $37 #
plane-surface $-1 -128.18674848792125 26.128171017576452 102.7893348323027 0 1 0 -0.6018150307709319 0 0.79863550430605224 forward_v I I I I #
face $-1 $90 $91 $30 $-1 $92 forward single #
loop $-1 $93 $94 $38 #
cone-surface $-1 -54.889300851193084 29.048287417095068 11.461470644159679 0.6018150307709319 0 -0.79863550430605224 0.79863550430605224 0 0.6018150307709319 1 I I 0 1 1 forward I I I I #
face $-1 $95 $96 $31 $-1 $97 forward single #
loop $-1 $98 $99 $39 #
cone-surface $-1 -54.889300851193084 33.42846201637299 11.461470644159679 0.6018150307709319 0 -0.79863550430605224 0.79863550430605224 0 0.6018150307709319 1 I I 0 1 1 forward I I I I #
face $-1 $100 $101 $24 $-1 $102 reversed single #
loop $-1 $-1 $103 $40 #
plane-surface $-1 0 0 14.178463703264779 0 0 1 1 0 0 forward_v I I I I #
coedge $-1 $104 $105 $106 $107 reversed $41 $-1 #
face $-1 $108 $109 $25 $-1 $110 reversed single #
loop $-1 $-1 $111 $43 #
plane-surface $-1 0 0 14.178463703264779 0 0 1 1 0 0 forward_v I I I I #
coedge $-1 $112 $113 $114 $115 forward $44 $-1 #
face $-1 $116 $117 $26 $-1 $118 reversed single #
loop $-1 $-1 $119 $46 #
plane-surface $-1 -34.743684929818436 31.238374716734029 79.89095730638806 0.6018150307709319 0 0.79863550430605224 0.79863550430605224 0 -0.6018150307709319 forward_v I I I I #
coedge $-1 $120 $121 $122 $123 reversed $47 $-1 #
face $-1 $-1 $124 $27 $-1 $125 forward single #
loop $-1 $126 $127 $49 #
cone-surface $-1 54.162465070446324 29.048287417095068 10.496927004296172 -0.6018150307709319 0 -0.79863550430605224 0.39931775215302612 0 -0.30090751538546595 1 I I -0.70710678118654746 0.70710678118654746 0.5 forward I I I I #
loop $-1 $-1 $128 $35 #
coedge $-1 $80 $80 $129 $130 reversed $50 $-1 #
face $-1 $-1 $131 $28 $-1 $132 forward single #
loop $-1 $133 $134 $52 #
cone-surface $-1 54.162465070446324 33.42846201637299 10.496927004296172 -0.6018150307709319 0 -0.79863550430605224 0.39931775215302612 0 -0.30090751538546595 1 I I -0.70710678118654746 0.70710678118654746 0.5 forward I I I I #
loop $-1 $-1 $135 $36 #
coedge $-1 $85 $85 $136 $137 reversed $53 $-1 #
face $-1 $138 $139 $29 $-1 $140 reversed single #
loop $-1 $-1 $141 $55 #
plane-surface $-1 -58.170720542008709 31.238374716734029 9.8749293604755337 -0.6018150307709319 0 0.79863550430605224 0.79863550430605224 0 0.6018150307709319 forward_v I I I I #
coedge $-1 $142 $143 $144 $145 reversed $56 $-1 #
face $-1 $-1 $146 $30 $-1 $147 forward single #
loop $-1 $148 $149 $58 #
cone-surface $-1 -54.162465070446331 29.048287417095068 10.496927004296165 0.6018150307709319 0 -0.79863550430605224 0.39931775215302612 0 0.30090751538546595 1 I I -0.70710678118654746 0.70710678118654746 0.5 forward I I I I #
loop $-1 $-1 $150 $38 #
coedge $-1 $94 $94 $151 $152 reversed $59 $-1 #
face $-1 $-1 $153 $31 $-1 $154 forward single #
loop $-1 $155 $156 $61 #
cone-surface $-1 -54.162465070446331 33.42846201637299 10.496927004296165 0.6018150307709319 0 -0.79863550430605224 0.39931775215302612 0 0.30090751538546595 1 I I -0.70710678118654746 0.70710678118654746 0.5 forward I I I I #
loop $-1 $-1 $157 $39 #
coedge $-1 $99 $99 $158 $159 reversed $62 $-1 #
face $-1 $160 $161 $24 $-1 $162 reversed single #
loop $-1 $-1 $163 $64 #
plane-surface $-1 0 0 -14.178463703264779 0 0 1 1 0 0 forward_v I I I I #
coedge $-1 $164 $165 $166 $167 forward $65 $-1 #
coedge $-1 $168 $67 $169 $170 reversed $41 $-1 #
coedge $-1 $67 $168 $171 $172 forward $41 $-1 #
coedge $-1 $173 $163 $67 $107 forward $101 $-1 #
edge $-1 $174 -58.170720542008731 $175 58.170720542008731 $67 $176 forward 7 unknown #
face $-1 $177 $178 $25 $-1 $179 reversed single #
loop $-1 $-1 $180 $68 #
plane-surface $-1 -58.170720542008731 0 0 1 0 0 0 0 -1 forward_v I I I I #
coedge $-1 $181 $182 $113 $183 forward $69 $-1 #
coedge $-1 $184 $71 $185 $186 reversed $44 $-1 #
coedge $-1 $71 $184 $111 $183 reversed $44 $-1 #
coedge $-1 $187 $188 $71 $115 reversed $189 $-1 #
edge $-1 $190 -14.178463703264779 $191 14.178463703264779 $114 $192 forward 7 unknown #
face $-1 $193 $194 $26 $-1 $195 forward single #
loop $-1 $-1 $196 $72 #
plane-surface $-1 0 36.348578415891609 0 0 -1 0 0 0 -1 forward_v I I I I #
coedge $-1 $197 $198 $199 $200 reversed $73 $-1 #
coedge $-1 $121 $75 $201 $202 reversed $47 $-1 #
coedge $-1 $75 $120 $197 $203 reversed $47 $-1 #
coedge $-1 $199 $204 $75 $123 forward $205 $-1 #
edge $-1 $206 72.224217685842831 $207 76.527752028632094 $122 $208 forward 7 unknown #
loop $-1 $-1 $129 $76 #
plane-surface $-1 -34.743684929818436 31.238374716734029 79.89095730638806 0.6018150307709319 0 0.79863550430605224 0.79863550430605224 0 -0.6018150307709319 forward_v I I I I #
loop $-1 $-1 $209 $49 #
coedge $-1 $127 $127 $128 $210 reversed $77 $-1 #
coedge $-1 $128 $128 $127 $210 forward $79 $-1 #
coedge $-1 $129 $129 $80 $130 forward $124 $-1 #
edge $-1 $211 0 $211 6.2831853071796004 $129 $212 forward 7 unknown #
loop $-1 $-1 $136 $81 #
plane-surface $-1 -34.743684929818436 31.238374716734029 79.89095730638806 0.6018150307709319 0 0.79863550430605224 0.79863550430605224 0 -0.6018150307709319 forward_v I I I I #
loop $-1 $-1 $213 $52 #
coedge $-1 $134 $134 $135 $214 reversed $82 $-1 #
coedge $-1 $135 $135 $134 $214 forward $84 $-1 #
coedge $-1 $136 $136 $85 $137 forward $131 $-1 #
edge $-1 $215 0 $215 6.2831853071796004 $136 $216 forward 7 unknown #
face $-1 $217 $218 $29 $-1 $219 reversed single #
loop $-1 $-1 $220 $86 #
plane-surface $-1 0 36.348578415891609 0 0 -1 0 0 0 -1 forward_v I I I I #
coedge $-1 $221 $222 $223 $224 reversed $87 $-1 #
coedge $-1 $143 $89 $225 $226 reversed $56 $-1 #
coedge $-1 $89 $142 $221 $227 reversed $56 $-1 #
coedge $-1 $223 $228 $89 $145 forward $229 $-1 #
edge $-1 $230 5.9226537019518943 $231 11.633636552860651 $144 $232 forward 7 unknown #
loop $-1 $-1 $151 $90 #
plane-surface $-1 -58.170720542008709 31.238374716734029 9.8749293604755337 -0.6018150307709319 0 0.79863550430605224 0.79863550430605224 0 0.6018150307709319 forward_v I I I I #
loop $-1 $-1 $233 $58 #
coedge $-1 $149 $149 $150 $234 reversed $91 $-1 #
coedge $-1 $150 $150 $149 $234 forward $93 $-1 #
coedge $-1 $151 $151 $94 $152 forward $146 $-1 #
edge $-1 $235 0 $235 6.2831853071796004 $151 $236 forward 7 unknown #
loop $-1 $-1 $158 $95 #
plane-surface $-1 -58.170720542008709 31.238374716734029 9.8749293604755337 -0.6018150307709319 0 0.79863550430605224 0.79863550430605224 0 0.6018150307709319 forward_v I I I I #
loop $-1 $-1 $237 $61 #
coedge $-1 $156 $156 $157 $238 reversed $96 $-1 #
coedge $-1 $157 $157 $156 $238 forward $98 $-1 #
coedge $-1 $158 $158 $99 $159 forward $153 $-1 #
edge $-1 $239 0 $239 6.2831853071796004 $158 $240 forward 7 unknown #
face $-1 $241 $242 $24 $-1 $243 reversed single #
loop $-1 $-1 $244 $100 #
plane-surface $-1 -58.170720542008731 0 0 1 0 0 0 0 -1 forward_v I I I I #
coedge $-1 $106 $245 $246 $247 forward $101 $-1 #
coedge $-1 $248 $103 $249 $250 forward $65 $-1 #
coedge $-1 $103 $248 $168 $251 forward $65 $-1 #
coedge $-1 $169 $252 $103 $167 reversed $253 $-1 #
edge $-1 $254 -36.348578415891609 $255 36.348578415891609 $166 $256 forward 7 unknown #
coedge $-1 $105 $104 $165 $251 reversed $41 $-1 #
coedge $-1 $246 $166 $104 $170 forward $253 $-1 #
edge $-1 $254 -14.178463703264779 $174 14.178463703264779 $169 $257 forward 7 unknown #
coedge $-1 $258 $259 $105 $172 reversed $161 $-1 #
edge $-1 $260 -14.178463703264779 $175 14.178463703264779 $171 $261 forward 7 unknown #
coedge $-1 $245 $106 $259 $262 forward $101 $-1 #
vertex $-1 $170 $263 #
vertex $-1 $262 $264 #
straight-curve $-1 0 -36.348578415891609 -14.178463703264779 -1 0 0 I I #
face $-1 $265 $189 $25 $-1 $266 reversed single #
loop $-1 $-1 $267 $108 #
plane-surface $-1 -54.35083896218601 -52.397065819415786 0 0 1 0 0 0 1 forward_v I I I I #
coedge $-1 $268 $269 $184 $270 forward $109 $-1 #
coedge $-1 $271 $111 $269 $272 forward $69 $-1 #
coedge $-1 $111 $271 $187 $273 forward $69 $-1 #
edge $-1 $190 50.53095738236329 $274 58.170720542008731 $111 $275 forward 7 unknown #
coedge $-1 $113 $112 $180 $270 reversed $44 $-1 #
coedge $-1 $276 $277 $112 $186 forward $278 $-1 #
edge $-1 $279 -58.170720542008731 $191 -50.53095738236329 $185 $280 forward 7 unknown #
coedge $-1 $281 $114 $182 $273 reversed $189 $-1 #
coedge $-1 $114 $281 $276 $282 reversed $189 $-1 #
loop $-1 $-1 $281 $177 #
vertex $-1 $183 $283 #
vertex $-1 $282 $284 #
straight-curve $-1 -50.53095738236329 -36.348578415891609 0 0 0 -1 I I #
face $-1 $-1 $205 $26 $-1 $285 reversed single #
loop $-1 $-1 $201 $116 #
plane-surface $-1 0 0 14.178463703264779 0 0 1 1 0 0 forward_v I I I I #
coedge $-1 $286 $287 $198 $288 forward $117 $-1 #
coedge $-1 $289 $119 $121 $203 forward $73 $-1 #
coedge $-1 $119 $289 $196 $288 reversed $73 $-1 #
coedge $-1 $290 $122 $119 $200 forward $205 $-1 #
edge $-1 $207 10.508983659209438 $291 20.729391057524595 $199 $292 forward 7 unknown #
coedge $-1 $293 $294 $120 $202 forward $194 $-1 #
edge $-1 $295 34.823566183052918 $206 40.534549033961682 $201 $296 forward 7 unknown #
edge $-1 $207 -116.3414410840175 $295 -109.19051576186926 $121 $297 forward 7 unknown #
coedge $-1 $122 $290 $293 $298 reversed $205 $-1 #
loop $-1 $-1 $199 $193 #
vertex $-1 $298 $299 #
vertex $-1 $123 $300 #
straight-curve $-1 58.170720542008731 26.128171017576452 86.402681389107613 0 0 -1 I I #
coedge $-1 $209 $209 $-1 $301 reversed $126 $-1 #
edge $-1 $302 0 $302 6.2831853071796004 $127 $303 forward 7 unknown #
vertex $-1 $130 $304 #
ellipse-curve $-1 55.315229116554349 29.048287417095068 12.026696531870151 0.6018150307709319 0 0.79863550430605224 0.79863550430605224 0 -0.6018150307709319 1 I I #
coedge $-1 $213 $213 $-1 $305 reversed $133 $-1 #
edge $-1 $306 0 $306 6.2831853071796004 $134 $307 forward 7 unknown #
vertex $-1 $137 $308 #
ellipse-curve $-1 55.315229116554349 33.42846201637299 12.026696531870151 0.6018150307709319 0 0.79863550430605224 0.79863550430605224 0 -0.6018150307709319 1 I I #
face $-1 $-1 $229 $29 $-1 $309 forward single #
loop $-1 $-1 $310 $138 #
plane-surface $-1 -58.170720542008731 0 0 1 0 0 0 0 -1 forward_v I I I I #
coedge $-1 $311 $312 $222 $313 forward $139 $-1 #
coedge $-1 $314 $141 $143 $227 forward $87 $-1 #
coedge $-1 $141 $314 $220 $313 reversed $87 $-1 #
coedge $-1 $315 $144 $141 $224 forward $229 $-1 #
edge $-1 $231 10.508983659209438 $316 20.729391057524595 $223 $317 forward 7 unknown #
coedge $-1 $318 $310 $142 $226 forward $218 $-1 #
edge $-1 $319 -41.51973805567583 $230 -37.216203712886568 $225 $320 forward 7 unknown #
edge $-1 $231 -7.1509253221481845 $319 2.6645283896817444e-014 $143 $321 forward 7 unknown #
coedge $-1 $144 $315 $318 $322 forward $229 $-1 #
loop $-1 $-1 $223 $217 #
vertex $-1 $226 $323 #
vertex $-1 $145 $324 #
straight-curve $-1 -64.093374243960625 26.128171017576452 14.178463703264782 1 0 0 I I #
coedge $-1 $233 $233 $-1 $325 reversed $148 $-1 #
edge $-1 $326 0 $326 6.2831853071796004 $149 $327 forward 7 unknown #
vertex $-1 $152 $328 #
ellipse-curve $-1 -55.315229116554356 29.048287417095068 12.026696531870146 -0.6018150307709319 0 0.79863550430605224 0.79863550430605224 0 0.6018150307709319 1 I I #
coedge $-1 $237 $237 $-1 $329 reversed $155 $-1 #
edge $-1 $330 0 $330 6.2831853071796004 $156 $331 forward 7 unknown #
vertex $-1 $159 $332 #
ellipse-curve $-1 -55.315229116554356 33.42846201637299 12.026696531870146 -0.6018150307709319 0 0.79863550430605224 0.79863550430605224 0 0.6018150307709319 1 I I #
face $-1 $-1 $253 $24 $-1 $333 reversed single #
loop $-1 $-1 $334 $160 #
plane-surface $-1 0 36.348578415891609 0 0 -1 0 0 0 -1 forward_v I I I I #
coedge $-1 $259 $258 $335 $336 forward $161 $-1 #
coedge $-1 $163 $173 $337 $338 forward $101 $-1 #
coedge $-1 $252 $169 $163 $247 reversed $253 $-1 #
edge $-1 $339 -36.348578415891609 $174 36.348578415891609 $246 $340 forward 7 unknown #
coedge $-1 $165 $164 $258 $341 forward $65 $-1 #
coedge $-1 $334 $335 $164 $250 reversed $242 $-1 #
edge $-1 $255 -58.170720542008731 $342 58.170720542008731 $249 $343 forward 7 unknown #
edge $-1 $260 -58.170720542008731 $254 58.170720542008731 $168 $344 forward 7 unknown #
coedge $-1 $166 $246 $334 $345 reversed $253 $-1 #
loop $-1 $-1 $169 $241 #
vertex $-1 $167 $346 #
vertex $-1 $167 $347 #
straight-curve $-1 58.170720542008731 0 14.178463703264779 0 1 0 I I #
straight-curve $-1 58.170720542008731 -36.348578415891609 0 0 0 -1 I I #
coedge $-1 $244 $171 $248 $341 reversed $161 $-1 #
coedge $-1 $171 $244 $173 $262 reversed $161 $-1 #
vertex $-1 $341 $348 #
straight-curve $-1 -58.170720542008731 -36.348578415891609 0 0 0 -1 I I #
edge $-1 $175 -36.348578415891609 $349 36.348578415891609 $259 $350 forward 7 unknown #
point $-1 58.170720542008731 -36.348578415891609 -14.178463703264779 #
point $-1 -58.170720542008731 -36.348578415891609 -14.178463703264779 #
face $-1 $-1 $278 $25 $-1 $351 reversed single #
plane-surface $-1 -50.53095738236329 -44.372822117653698 0 -1 0 0 0 0 1 forward_v I I I I #
coedge $-1 $352 $353 $354 $355 forward $178 $-1 #
coedge $-1 $354 $180 $277 $356 reversed $109 $-1 #
coedge $-1 $180 $354 $181 $272 reversed $109 $-1 #
edge $-1 $274 -14.178463703264779 $279 14.178463703264779 $180 $357 forward 7 unknown #
coedge $-1 $182 $181 $353 $358 forward $69 $-1 #
edge $-1 $274 36.348578415891609 $359 52.397065819415786 $269 $360 forward 7 unknown #
edge $-1 $361 -8.0242437017620887 $190 8.0242437017620887 $187 $362 forward 7 unknown #
vertex $-1 $272 $363 #
straight-curve $-1 0 -36.348578415891609 14.178463703264779 -1 0 0 I I #
coedge $-1 $364 $185 $188 $282 forward $278 $-1 #
coedge $-1 $185 $364 $268 $356 forward $278 $-1 #
loop $-1 $-1 $185 $265 #
vertex $-1 $270 $365 #
straight-curve $-1 0 -36.348578415891609 -14.178463703264779 1 0 0 I I #
coedge $-1 $188 $187 $366 $367 forward $189 $-1 #
edge $-1 $191 -8.0242437017620887 $368 8.0242437017620887 $188 $369 forward 7 unknown #
point $-1 -50.53095738236329 -36.348578415891609 14.178463703264779 #
point $-1 -50.53095738236329 -36.348578415891609 -14.178463703264779 #
plane-surface $-1 58.170720542008731 0 0 -1 0 0 0 0 1 forward_v I I I I #
coedge $-1 $287 $196 $370 $371 reversed $117 $-1 #
coedge $-1 $196 $286 $290 $372 forward $117 $-1 #
edge $-1 $291 -78.427881451497854 $373 -71.276956129349642 $196 $374 forward 7 unknown #
coedge $-1 $198 $197 $294 $375 reversed $73 $-1 #
coedge $-1 $204 $199 $287 $372 reversed $205 $-1 #
vertex $-1 $288 $376 #
straight-curve $-1 58.170720542008723 15.619187358367014 9.8749293604755266 0 1 0 I I #
coedge $-1 $370 $201 $204 $298 forward $194 $-1 #
coedge $-1 $201 $370 $289 $375 forward $194 $-1 #
vertex $-1 $202 $377 #
straight-curve $-1 17.636171508047052 26.128171017576452 14.178463703264782 1 0 0 I I #
straight-curve $-1 -34.743684929818436 26.128171017576452 79.89095730638806 -0.79863550430605224 0 0.6018150307709319 I I #
edge $-1 $206 26.128171017576452 $378 36.348578415891609 $204 $379 forward 7 unknown #
point $-1 58.170720542008731 26.128171017576452 14.178463703264779 #
point $-1 58.170720542008731 26.128171017576452 9.8749293604755195 #
edge $-1 $380 1 $380 0 $209 $-1 forward 7 unknown #
vertex $-1 $210 $381 #
ellipse-curve $-1 54.463372585831792 29.048287417095068 10.896244756449198 0.6018150307709319 0 0.79863550430605224 0.79863550430605224 0 -0.6018150307709319 1 I I #
point $-1 56.113864620860419 29.048287417095068 11.42488150109924 #
edge $-1 $382 1 $382 0 $213 $-1 forward 7 unknown #
vertex $-1 $214 $383 #
ellipse-curve $-1 54.463372585831792 33.42846201637299 10.896244756449198 0.6018150307709319 0 0.79863550430605224 0.79863550430605224 0 -0.6018150307709319 1 I I #
point $-1 56.113864620860419 33.42846201637299 11.42488150109924 #
plane-surface $-1 0 0 14.178463703264779 0 0 1 1 0 0 forward_v I I I I #
coedge $-1 $225 $384 $314 $385 forward $218 $-1 #
coedge $-1 $312 $220 $384 $386 reversed $139 $-1 #
coedge $-1 $220 $311 $315 $387 reversed $139 $-1 #
edge $-1 $316 13.106235587340912 $388 20.257160909489123 $220 $389 forward 7 unknown #
coedge $-1 $222 $221 $310 $385 reversed $87 $-1 #
coedge $-1 $228 $223 $312 $387 forward $229 $-1 #
vertex $-1 $387 $390 #
straight-curve $-1 -52.459737691099974 15.619187358367014 14.178463703264779 0 1 0 I I #
coedge $-1 $384 $225 $228 $322 reversed $218 $-1 #
vertex $-1 $226 $391 #
straight-curve $-1 -58.170720542008731 26.128171017576452 51.39466741615135 0 0 1 I I #
straight-curve $-1 -58.170720542008709 26.128171017576452 9.8749293604755337 -0.79863550430605224 0 -0.6018150307709319 I I #
edge $-1 $392 -36.348578415891609 $230 -26.128171017576452 $318 $393 forward 7 unknown #
point $-1 -58.170720542008731 26.128171017576452 14.178463703264779 #
point $-1 -52.459737691099974 26.128171017576452 14.178463703264779 #
edge $-1 $394 1 $394 0 $233 $-1 forward 7 unknown #
vertex $-1 $234 $395 #
ellipse-curve $-1 -54.463372585831799 29.048287417095068 10.896244756449191 -0.6018150307709319 0 0.79863550430605224 0.79863550430605224 0 0.6018150307709319 1 I I #
point $-1 -54.516593612248322 29.048287417095068 12.628511562641096 #
edge $-1 $396 1 $396 0 $237 $-1 forward 7 unknown #
vertex $-1 $238 $397 #
ellipse-curve $-1 -54.463372585831799 33.42846201637299 10.896244756449191 -0.6018150307709319 0 0.79863550430605224 0.79863550430605224 0 0.6018150307709319 1 I I #
point $-1 -54.516593612248322 33.42846201637299 12.628511562641096 #
plane-surface $-1 58.170720542008731 0 0 -1 0 0 0 0 1 forward_v I I I I #
coedge $-1 $337 $249 $252 $345 forward $242 $-1 #
coedge $-1 $249 $337 $244 $336 reversed $242 $-1 #
edge $-1 $342 -14.178463703264779 $349 14.178463703264779 $335 $398 forward 7 unknown #
coedge $-1 $335 $334 $245 $338 reversed $242 $-1 #
edge $-1 $349 -58.170720542008731 $339 58.170720542008731 $337 $399 forward 7 unknown #
vertex $-1 $247 $400 #
straight-curve $-1 58.170720542008731 0 -14.178463703264779 0 -1 0 I I #
edge $-1 $342 -36.348578415891609 $260 36.348578415891609 $258 $401 forward 7 unknown #
vertex $-1 $250 $402 #
straight-curve $-1 0 36.348578415891609 14.178463703264779 -1 0 0 I I #
straight-curve $-1 0 -36.348578415891609 14.178463703264779 1 0 0 I I #
edge $-1 $255 -14.178463703264779 $339 14.178463703264779 $252 $403 forward 7 unknown #
point $-1 58.170720542008731 -36.348578415891609 14.178463703264779 #
point $-1 58.170720542008731 36.348578415891609 14.178463703264779 #
point $-1 -58.170720542008731 -36.348578415891609 14.178463703264779 #
vertex $-1 $338 $404 #
straight-curve $-1 -58.170720542008731 0 -14.178463703264779 0 1 0 I I #
plane-surface $-1 0 0 -14.178463703264779 0 0 1 1 0 0 forward_v I I I I #
coedge $-1 $366 $267 $364 $405 reversed $178 $-1 #
coedge $-1 $267 $366 $271 $358 reversed $178 $-1 #
coedge $-1 $269 $268 $267 $355 reversed $109 $-1 #
edge $-1 $359 -14.178463703264779 $406 14.178463703264779 $354 $407 forward 7 unknown #
edge $-1 $406 -52.397065819415786 $279 -36.348578415891609 $268 $408 forward 7 unknown #
straight-curve $-1 -58.170720542008731 -36.348578415891609 0 0 0 -1 I I #
edge $-1 $359 -3.8198815798227201 $361 3.8198815798227201 $353 $409 forward 7 unknown #
vertex $-1 $272 $410 #
straight-curve $-1 -58.170720542008731 0 14.178463703264779 0 -1 0 I I #
vertex $-1 $273 $411 #
straight-curve $-1 -50.53095738236329 -44.372822117653698 14.178463703264779 0 1 0 I I #
point $-1 -58.170720542008731 -36.348578415891609 14.178463703264779 #
coedge $-1 $277 $276 $352 $405 forward $278 $-1 #
point $-1 -58.170720542008731 -36.348578415891609 -14.178463703264779 #
coedge $-1 $353 $352 $281 $367 reversed $178 $-1 #
edge $-1 $361 -14.178463703264779 $368 14.178463703264779 $281 $412 forward 7 unknown #
vertex $-1 $367 $413 #
straight-curve $-1 -50.53095738236329 -44.372822117653698 -14.178463703264779 0 -1 0 I I #
coedge $-1 $294 $293 $286 $371 forward $194 $-1 #
edge $-1 $378 -58.170720542008731 $373 -52.459737691099967 $286 $414 forward 7 unknown #
edge $-1 $378 -14.178463703264779 $291 -9.8749293604755159 $290 $415 forward 7 unknown #
vertex $-1 $288 $416 #
straight-curve $-1 -4.4645701126635338 36.348578415891609 57.074007249507702 -0.79863550430605224 0 0.6018150307709319 I I #
edge $-1 $373 -20.729391057524595 $295 -10.508983659209438 $294 $417 forward 7 unknown #
point $-1 58.170720542008731 36.348578415891609 9.8749293604755159 #
point $-1 52.459737691099967 26.128171017576452 14.178463703264782 #
vertex $-1 $298 $418 #
straight-curve $-1 58.170720542008731 0 14.178463703264779 0 1 0 I I #
vertex $-1 $301 $419 #
point $-1 55.26200809013784 29.048287417095068 10.294429725678267 #
vertex $-1 $305 $420 #
point $-1 55.26200809013784 33.42846201637299 10.294429725678267 #
coedge $-1 $310 $318 $311 $386 forward $218 $-1 #
edge $-1 $388 -20.729391057524595 $319 -10.508983659209438 $310 $421 forward 7 unknown #
edge $-1 $392 -14.178463703264779 $388 -9.8749293604755177 $311 $422 forward 7 unknown #
edge $-1 $316 52.459737691099974 $392 58.170720542008731 $312 $423 forward 7 unknown #
vertex $-1 $385 $424 #
straight-curve $-1 -41.992632623250039 36.348578415891609 22.065993276551435 -0.79863550430605224 0 -0.6018150307709319 I I #
point $-1 -52.459737691099974 36.348578415891609 14.178463703264779 #
point $-1 -58.170720542008731 26.128171017576452 9.8749293604755177 #
vertex $-1 $387 $425 #
straight-curve $-1 -58.170720542008731 0 14.178463703264779 0 -1 0 I I #
vertex $-1 $325 $426 #
point $-1 -53.664737081525743 29.048287417095068 11.498059787220123 #
vertex $-1 $329 $427 #
point $-1 -53.664737081525743 33.42846201637299 11.498059787220123 #
straight-curve $-1 -58.170720542008731 36.348578415891609 0 0 0 -1 I I #
straight-curve $-1 0 36.348578415891609 -14.178463703264779 1 0 0 I I #
point $-1 58.170720542008731 36.348578415891609 -14.178463703264779 #
straight-curve $-1 -58.170720542008731 0 14.178463703264779 0 -1 0 I I #
point $-1 -58.170720542008731 36.348578415891609 14.178463703264779 #
straight-curve $-1 58.170720542008731 36.348578415891609 0 0 0 -1 I I #
point $-1 -58.170720542008731 36.348578415891609 -14.178463703264779 #
edge $-1 $368 -3.8198815798227201 $406 3.8198815798227201 $352 $428 forward 7 unknown #
vertex $-1 $356 $429 #
straight-curve $-1 -58.170720542008731 -52.397065819415786 0 0 0 -1 I I #
straight-curve $-1 -58.170720542008731 0 -14.178463703264779 0 1 0 I I #
straight-curve $-1 -54.35083896218601 -52.397065819415786 14.178463703264779 1 0 0 I I #
point $-1 -58.170720542008731 -52.397065819415786 14.178463703264779 #
point $-1 -50.53095738236329 -52.397065819415786 14.178463703264779 #
straight-curve $-1 -50.53095738236329 -52.397065819415786 0 0 0 -1 I I #
point $-1 -50.53095738236329 -52.397065819415786 -14.178463703264779 #
straight-curve $-1 0 36.348578415891609 14.178463703264779 -1 0 0 I I #
straight-curve $-1 58.170720542008731 36.348578415891609 0 0 0 -1 I I #
point $-1 52.459737691099967 36.348578415891609 14.178463703264782 #
straight-curve $-1 52.459737691099981 15.619187358367014 14.178463703264782 0 -1 0 I I #
point $-1 58.170720542008731 36.348578415891609 14.178463703264779 #
point $-1 53.861557555060855 29.048287417095068 10.097609252143146 #
point $-1 53.861557555060855 33.42846201637299 10.097609252143146 #
straight-curve $-1 -58.170720542008731 15.619187358367014 9.8749293604755231 0 -1 0 I I #
straight-curve $-1 -58.170720542008731 36.348578415891609 0 0 0 -1 I I #
straight-curve $-1 0 36.348578415891609 14.178463703264779 -1 0 0 I I #
point $-1 -58.170720542008731 36.348578415891609 9.8749293604755177 #
point $-1 -58.170720542008731 36.348578415891609 14.178463703264779 #
point $-1 -53.861557555060863 29.048287417095068 10.097609252143139 #
point $-1 -53.861557555060863 33.42846201637299 10.097609252143139 #
straight-curve $-1 -54.35083896218601 -52.397065819415786 -14.178463703264779 -1 0 0 I I #
point $-1 -58.170720542008731 -52.397065819415786 -14.178463703264779 #
End-of-ACIS-data 