500 0 3 0           
7 Unknown 11 ACIS 5.0 NT 24 Fri Mar 26 20:38:56 1999 
-1 9.9999999999999995e-007 1e-010 
body $-1 $3 $-1 $4 #
body $-1 $5 $-1 $6 #
body $-1 $7 $-1 $8 #
lump $-1 $-1 $9 $0 #
transform $-1 1 0 0 0 1 0 0 0 1 70.307321390423283 29.040204470790915 12.895314892754966 1 rotate no_reflect no_shear #
lump $-1 $-1 $10 $1 #
transform $-1 1 0 0 0 1 0 0 0 1 70.307321390423283 29.040204470790915 12.895314892754966 1 rotate no_reflect no_shear #
lump $-1 $-1 $11 $2 #
transform $-1 1 0 0 0 1 0 0 0 1 70.307321390423283 29.040204470790915 12.895314892754966 1 rotate no_reflect no_shear #
shell $-1 $-1 $-1 $12 $-1 $3 #
shell $-1 $-1 $-1 $13 $-1 $5 #
shell $-1 $-1 $-1 $14 $-1 $7 #
face $-1 $15 $16 $9 $-1 $17 forward single #
face $-1 $18 $19 $10 $-1 $20 reversed single #
face $-1 $21 $22 $11 $-1 $23 reversed single #
face $-1 $24 $25 $9 $-1 $26 reversed single #
loop $-1 $-1 $27 $12 #
plane-surface $-1 0 0 12.895314892754966 0 0 1 1 0 0 forward_v I I I I #
face $-1 $28 $29 $10 $-1 $30 reversed single #
loop $-1 $-1 $31 $13 #
plane-surface $-1 -56.765460342965994 -41.065137753102064 0 0 1 0 0 0 1 forward_v I I I I #
face $-1 $32 $33 $11 $-1 $34 reversed single #
loop $-1 $-1 $35 $14 #
plane-surface $-1 -60.198793167328418 35.052671111946495 0 1 0 0 0 0 -1 forward_v I I I I #
face $-1 $36 $37 $9 $-1 $38 reversed single #
loop $-1 $-1 $39 $15 #
plane-surface $-1 0 0 -12.895314892754966 0 0 1 1 0 0 forward_v I I I I #
coedge $-1 $40 $41 $42 $43 forward $16 $-1 #
face $-1 $44 $45 $10 $-1 $46 reversed single #
loop $-1 $-1 $47 $18 #
plane-surface $-1 -60.198793167328418 -35.052671111946488 0 1 0 0 0 0 -1 forward_v I I I I #
coedge $-1 $48 $49 $50 $51 forward $19 $-1 #
face $-1 $52 $53 $11 $-1 $54 reversed single #
loop $-1 $-1 $55 $21 #
plane-surface $-1 -56.765460342965994 41.065137753102064 0 0 -1 0 0 0 -1 forward_v I I I I #
coedge $-1 $56 $57 $58 $59 forward $22 $-1 #
face $-1 $60 $61 $9 $-1 $62 reversed single #
loop $-1 $-1 $63 $24 #
plane-surface $-1 0 -29.040204470790915 0 0 1 0 0 0 1 forward_v I I I I #
coedge $-1 $64 $65 $66 $67 forward $25 $-1 #
coedge $-1 $68 $27 $69 $70 forward $16 $-1 #
coedge $-1 $27 $68 $71 $72 forward $16 $-1 #
coedge $-1 $73 $74 $27 $43 reversed $75 $-1 #
edge $-1 $76 -29.040204470790915 $77 29.040204470790915 $42 $78 forward 7 unknown #
face $-1 $79 $80 $10 $-1 $81 reversed single #
loop $-1 $-1 $82 $28 #
plane-surface $-1 -53.332127518603571 -35.052671111946488 0 -1 0 0 0 0 1 forward_v I I I I #
coedge $-1 $83 $84 $85 $86 reversed $29 $-1 #
coedge $-1 $87 $31 $88 $89 reversed $19 $-1 #
coedge $-1 $31 $87 $90 $91 reversed $19 $-1 #
coedge $-1 $84 $83 $31 $51 reversed $29 $-1 #
edge $-1 $92 -12.895314892754966 $93 12.895314892754966 $50 $94 forward 7 unknown #
face $-1 $95 $96 $11 $-1 $97 reversed single #
loop $-1 $-1 $98 $32 #
plane-surface $-1 -53.332127518603571 35.052671111946495 0 -1 0 0 0 0 1 forward_v I I I I #
coedge $-1 $99 $100 $101 $102 forward $33 $-1 #
coedge $-1 $103 $35 $104 $105 reversed $22 $-1 #
coedge $-1 $35 $103 $106 $107 reversed $22 $-1 #
coedge $-1 $100 $99 $35 $59 reversed $33 $-1 #
edge $-1 $108 -12.895314892754966 $109 12.895314892754966 $58 $110 forward 7 unknown #
face $-1 $111 $112 $9 $-1 $113 reversed single #
loop $-1 $-1 $114 $36 #
plane-surface $-1 -70.307321390423283 0 0 1 0 0 0 0 -1 forward_v I I I I #
coedge $-1 $115 $71 $116 $117 forward $37 $-1 #
coedge $-1 $118 $39 $115 $119 forward $25 $-1 #
coedge $-1 $39 $118 $120 $121 forward $25 $-1 #
coedge $-1 $74 $73 $39 $67 reversed $75 $-1 #
edge $-1 $122 -29.040204470790915 $123 29.040204470790915 $66 $124 forward 7 unknown #
coedge $-1 $41 $40 $125 $126 forward $16 $-1 #
coedge $-1 $127 $128 $40 $70 reversed $112 $-1 #
edge $-1 $77 -70.307321390423283 $129 70.307321390423283 $69 $130 forward 7 unknown #
coedge $-1 $63 $131 $41 $72 reversed $37 $-1 #
edge $-1 $132 -70.307321390423283 $76 70.307321390423283 $71 $133 forward 7 unknown #
coedge $-1 $66 $42 $131 $134 forward $75 $-1 #
coedge $-1 $42 $66 $127 $135 reversed $75 $-1 #
loop $-1 $-1 $73 $111 #
vertex $-1 $43 $136 #
vertex $-1 $43 $137 #
straight-curve $-1 70.307321390423283 0 12.895314892754966 0 1 0 I I #
face $-1 $138 $139 $10 $-1 $81 reversed single #
loop $-1 $-1 $85 $44 #
plane-surface $-1 0 -29.040204470790915 0 0 1 0 0 0 1 forward_v I I I I #
coedge $-1 $140 $141 $87 $142 forward $45 $-1 #
coedge $-1 $50 $47 $143 $144 reversed $29 $-1 #
coedge $-1 $47 $50 $145 $146 reversed $29 $-1 #
coedge $-1 $147 $148 $47 $86 forward $80 $-1 #
edge $-1 $149 -12.895314892754966 $150 12.895314892754966 $85 $151 forward 7 unknown #
coedge $-1 $49 $48 $82 $142 reversed $19 $-1 #
coedge $-1 $143 $152 $48 $89 forward $153 $-1 #
edge $-1 $154 -3.4333328243624237 $93 3.4333328243624237 $48 $155 forward 7 unknown #
coedge $-1 $156 $145 $49 $91 forward $157 $-1 #
edge $-1 $92 -3.4333328243624237 $158 3.4333328243624237 $49 $159 forward 7 unknown #
vertex $-1 $146 $160 #
vertex $-1 $144 $161 #
straight-curve $-1 -60.198793167328418 -41.065137753102064 0 0 0 -1 I I #
face $-1 $162 $163 $11 $-1 $97 reversed single #
loop $-1 $-1 $164 $52 #
plane-surface $-1 0 29.040204470790915 0 0 -1 0 0 0 -1 forward_v I I I I #
coedge $-1 $165 $166 $164 $167 reversed $53 $-1 #
coedge $-1 $58 $55 $168 $169 reversed $33 $-1 #
coedge $-1 $55 $58 $170 $171 reversed $33 $-1 #
coedge $-1 $166 $165 $55 $102 reversed $53 $-1 #
edge $-1 $172 -12.895314892754966 $173 12.895314892754966 $101 $174 forward 7 unknown #
coedge $-1 $57 $56 $175 $176 reversed $22 $-1 #
coedge $-1 $168 $177 $56 $105 forward $178 $-1 #
edge $-1 $179 -6.0124666411555729 $109 6.0124666411555694 $56 $180 forward 7 unknown #
coedge $-1 $181 $170 $57 $107 forward $182 $-1 #
edge $-1 $108 -6.0124666411555694 $183 6.0124666411555729 $57 $184 forward 7 unknown #
vertex $-1 $171 $185 #
vertex $-1 $169 $186 #
straight-curve $-1 -60.198793167328418 41.065137753102064 0 0 0 -1 I I #
face $-1 $-1 $75 $9 $-1 $187 reversed single #
loop $-1 $-1 $127 $60 #
plane-surface $-1 0 29.040204470790915 0 0 -1 0 0 0 -1 forward_v I I I I #
coedge $-1 $188 $125 $128 $189 forward $61 $-1 #
coedge $-1 $131 $63 $64 $119 reversed $37 $-1 #
coedge $-1 $125 $188 $63 $117 reversed $61 $-1 #
edge $-1 $132 -12.895314892754966 $190 12.895314892754966 $116 $191 forward 7 unknown #
coedge $-1 $65 $64 $188 $192 forward $25 $-1 #
edge $-1 $123 -70.307321390423283 $190 70.307321390423283 $115 $193 forward 7 unknown #
coedge $-1 $128 $127 $65 $121 reversed $112 $-1 #
edge $-1 $194 -70.307321390423283 $122 70.307321390423283 $120 $195 forward 7 unknown #
vertex $-1 $67 $196 #
vertex $-1 $134 $197 #
straight-curve $-1 70.307321390423283 0 -12.895314892754966 0 -1 0 I I #
coedge $-1 $114 $116 $68 $126 reversed $61 $-1 #
edge $-1 $129 -29.040204470790915 $132 29.040204470790915 $125 $198 forward 7 unknown #
coedge $-1 $120 $69 $74 $135 forward $112 $-1 #
coedge $-1 $69 $120 $114 $189 reversed $112 $-1 #
vertex $-1 $70 $199 #
straight-curve $-1 0 29.040204470790915 12.895314892754966 -1 0 0 I I #
coedge $-1 $71 $115 $73 $134 reversed $37 $-1 #
vertex $-1 $126 $200 #
straight-curve $-1 0 -29.040204470790915 12.895314892754966 1 0 0 I I #
edge $-1 $76 -12.895314892754966 $123 12.895314892754966 $73 $201 forward 7 unknown #
edge $-1 $77 -12.895314892754966 $122 12.895314892754966 $74 $202 forward 7 unknown #
point $-1 70.307321390423283 -29.040204470790915 12.895314892754966 #
point $-1 70.307321390423283 29.040204470790915 12.895314892754966 #
face $-1 $203 $157 $10 $-1 $204 forward single #
loop $-1 $-1 $205 $79 #
coedge $-1 $206 $82 $152 $207 reversed $45 $-1 #
coedge $-1 $82 $206 $156 $208 reversed $45 $-1 #
edge $-1 $158 -12.895314892754966 $154 12.895314892754966 $82 $209 forward 7 unknown #
coedge $-1 $210 $88 $83 $144 forward $153 $-1 #
edge $-1 $93 -6.0124666411555765 $149 6.0124666411555729 $83 $211 forward 7 unknown #
coedge $-1 $90 $212 $84 $146 forward $157 $-1 #
edge $-1 $150 -6.0124666411555729 $92 6.0124666411555765 $84 $213 forward 7 unknown #
coedge $-1 $214 $85 $212 $215 reversed $80 $-1 #
coedge $-1 $85 $214 $210 $216 reversed $80 $-1 #
vertex $-1 $216 $217 #
vertex $-1 $146 $218 #
straight-curve $-1 -60.198793167328418 -29.040204470790915 0 0 0 1 I I #
coedge $-1 $88 $219 $140 $207 forward $153 $-1 #
loop $-1 $-1 $220 $203 #
vertex $-1 $142 $221 #
straight-curve $-1 -56.765460342965994 -41.065137753102064 -12.895314892754966 -1 0 0 I I #
coedge $-1 $222 $90 $141 $208 forward $157 $-1 #
loop $-1 $-1 $223 $138 #
vertex $-1 $208 $224 #
straight-curve $-1 -56.765460342965994 -41.065137753102064 12.895314892754966 1 0 0 I I #
point $-1 -60.198793167328418 -41.065137753102064 12.895314892754966 #
point $-1 -60.198793167328418 -41.065137753102064 -12.895314892754966 #
face $-1 $225 $226 $11 $-1 $227 reversed single #
loop $-1 $-1 $175 $95 #
coedge $-1 $228 $229 $98 $167 forward $96 $-1 #
coedge $-1 $101 $98 $230 $231 reversed $53 $-1 #
coedge $-1 $98 $101 $232 $233 reversed $53 $-1 #
edge $-1 $234 -12.895314892754966 $235 12.895314892754966 $164 $236 forward 7 unknown #
coedge $-1 $230 $104 $99 $169 forward $178 $-1 #
edge $-1 $109 -3.4333328243624237 $173 3.4333328243624237 $99 $237 forward 7 unknown #
coedge $-1 $106 $232 $100 $171 forward $182 $-1 #
edge $-1 $172 -3.4333328243624237 $108 3.4333328243624237 $100 $238 forward 7 unknown #
vertex $-1 $233 $239 #
vertex $-1 $231 $240 #
straight-curve $-1 -53.332127518603571 41.065137753102064 0 0 0 -1 I I #
coedge $-1 $241 $242 $103 $176 forward $163 $-1 #
edge $-1 $183 -12.895314892754966 $179 12.895314892754966 $175 $243 forward 7 unknown #
coedge $-1 $104 $244 $241 $245 forward $178 $-1 #
loop $-1 $-1 $246 $247 #
vertex $-1 $105 $248 #
straight-curve $-1 -60.198793167328418 35.052671111946495 -12.895314892754966 0 1 0 I I #
coedge $-1 $249 $106 $242 $250 forward $182 $-1 #
loop $-1 $-1 $251 $252 #
vertex $-1 $250 $253 #
straight-curve $-1 -60.198793167328418 35.052671111946495 12.895314892754966 0 -1 0 I I #
point $-1 -60.198793167328418 41.065137753102064 12.895314892754966 #
point $-1 -60.198793167328418 41.065137753102064 -12.895314892754966 #
plane-surface $-1 70.307321390423283 0 0 -1 0 0 0 0 1 forward_v I I I I #
coedge $-1 $116 $114 $118 $192 reversed $61 $-1 #
edge $-1 $129 -12.895314892754966 $194 12.895314892754966 $128 $254 forward 7 unknown #
vertex $-1 $192 $255 #
straight-curve $-1 -70.307321390423283 -29.040204470790915 0 0 0 -1 I I #
edge $-1 $190 -29.040204470790915 $194 29.040204470790915 $188 $256 forward 7 unknown #
straight-curve $-1 0 -29.040204470790915 -12.895314892754966 -1 0 0 I I #
vertex $-1 $121 $257 #
straight-curve $-1 0 29.040204470790915 -12.895314892754966 1 0 0 I I #
point $-1 70.307321390423283 29.040204470790915 -12.895314892754966 #
point $-1 70.307321390423283 -29.040204470790915 -12.895314892754966 #
straight-curve $-1 -70.307321390423283 0 12.895314892754966 0 -1 0 I I #
point $-1 -70.307321390423283 29.040204470790915 12.895314892754966 #
point $-1 -70.307321390423283 -29.040204470790915 12.895314892754966 #
straight-curve $-1 70.307321390423283 -29.040204470790915 0 0 0 -1 I I #
straight-curve $-1 70.307321390423283 29.040204470790915 0 0 0 -1 I I #
face $-1 $258 $153 $10 $-1 $259 reversed single #
plane-surface $-1 0 0 12.895314892754966 0 0 1 1 0 0 forward_v I I I I #
coedge $-1 $260 $261 $206 $262 forward $139 $-1 #
coedge $-1 $141 $140 $205 $262 reversed $45 $-1 #
edge $-1 $263 -6.0124666411555729 $154 6.0124666411555765 $140 $264 forward 7 unknown #
edge $-1 $158 -6.0124666411555765 $265 6.0124666411555729 $141 $266 forward 7 unknown #
straight-curve $-1 -53.332127518603571 -41.065137753102064 0 0 0 -1 I I #
coedge $-1 $267 $143 $148 $216 forward $153 $-1 #
straight-curve $-1 -60.198793167328418 -35.052671111946488 -12.895314892754966 0 1 0 I I #
coedge $-1 $145 $268 $147 $215 forward $157 $-1 #
straight-curve $-1 -60.198793167328418 -35.052671111946488 12.895314892754966 0 -1 0 I I #
coedge $-1 $148 $147 $269 $270 forward $80 $-1 #
edge $-1 $271 -70.307321390423283 $150 -60.198793167328418 $147 $272 forward 7 unknown #
edge $-1 $149 60.198793167328418 $273 70.307321390423283 $148 $274 forward 7 unknown #
point $-1 -60.198793167328418 -29.040204470790915 -12.895314892754966 #
point $-1 -60.198793167328418 -29.040204470790915 12.895314892754966 #
coedge $-1 $152 $220 $260 $275 forward $153 $-1 #
coedge $-1 $219 $276 $277 $278 forward $153 $-1 #
point $-1 -53.332127518603571 -41.065137753102064 -12.895314892754966 #
coedge $-1 $223 $156 $261 $279 forward $157 $-1 #
coedge $-1 $280 $222 $281 $282 forward $157 $-1 #
point $-1 -53.332127518603571 -41.065137753102064 12.895314892754966 #
face $-1 $283 $284 $11 $-1 $285 reversed single #
loop $-1 $-1 $286 $162 #
plane-surface $-1 -56.765460342965994 -41.065137753102064 0 0 1 0 0 0 1 forward_v I I I I #
coedge $-1 $287 $164 $288 $289 reversed $96 $-1 #
coedge $-1 $164 $287 $290 $291 reversed $96 $-1 #
coedge $-1 $290 $168 $165 $231 forward $178 $-1 #
edge $-1 $173 -6.0124666411555694 $234 6.0124666411555729 $165 $292 forward 7 unknown #
coedge $-1 $170 $288 $166 $233 forward $182 $-1 #
edge $-1 $235 -6.0124666411555729 $172 6.0124666411555694 $166 $293 forward 7 unknown #
vertex $-1 $291 $294 #
vertex $-1 $233 $295 #
straight-curve $-1 -53.332127518603571 29.040204470790915 0 0 0 1 I I #
straight-curve $-1 -56.765460342965994 41.065137753102064 -12.895314892754966 1 0 0 I I #
straight-curve $-1 -56.765460342965994 41.065137753102064 12.895314892754966 -1 0 0 I I #
point $-1 -53.332127518603571 41.065137753102064 12.895314892754966 #
point $-1 -53.332127518603571 41.065137753102064 -12.895314892754966 #
coedge $-1 $296 $175 $177 $245 reversed $163 $-1 #
coedge $-1 $175 $296 $181 $250 reversed $163 $-1 #
straight-curve $-1 -60.198793167328418 29.040204470790915 0 0 0 -1 I I #
coedge $-1 $177 $297 $298 $299 forward $178 $-1 #
edge $-1 $300 -70.307321390423283 $179 -60.198793167328418 $241 $301 forward 7 unknown #
coedge $-1 $302 $290 $303 $304 forward $178 $-1 #
face $-1 $305 $178 $11 $-1 $306 reversed single #
point $-1 -60.198793167328418 29.040204470790922 -12.895314892754966 #
coedge $-1 $307 $181 $308 $309 forward $182 $-1 #
edge $-1 $183 60.198793167328418 $310 70.307321390423283 $242 $311 forward 7 unknown #
coedge $-1 $288 $312 $313 $314 forward $182 $-1 #
face $-1 $247 $182 $11 $-1 $315 forward single #
point $-1 -60.198793167328418 29.040204470790922 12.895314892754966 #
straight-curve $-1 -70.307321390423283 29.040204470790915 0 0 0 -1 I I #
point $-1 -70.307321390423283 -29.040204470790915 -12.895314892754966 #
straight-curve $-1 -70.307321390423283 0 -12.895314892754966 0 1 0 I I #
point $-1 -70.307321390423283 29.040204470790915 -12.895314892754966 #
face $-1 $316 $317 $10 $-1 $318 reversed single #
plane-surface $-1 0 0 -12.895314892754966 0 0 1 1 0 0 forward_v I I I I #
coedge $-1 $319 $205 $219 $275 reversed $139 $-1 #
coedge $-1 $205 $319 $222 $279 reversed $139 $-1 #
edge $-1 $265 -12.895314892754966 $263 12.895314892754966 $205 $320 forward 7 unknown #
vertex $-1 $207 $321 #
straight-curve $-1 -53.332127518603571 -35.052671111946488 -12.895314892754966 0 -1 0 I I #
vertex $-1 $279 $322 #
straight-curve $-1 -53.332127518603571 -35.052671111946488 12.895314892754966 0 1 0 I I #
coedge $-1 $276 $210 $323 $324 forward $153 $-1 #
coedge $-1 $212 $280 $325 $326 forward $157 $-1 #
coedge $-1 $325 $323 $214 $270 reversed $317 $-1 #
edge $-1 $271 -12.895314892754966 $273 12.895314892754966 $269 $327 forward 7 unknown #
vertex $-1 $326 $328 #
straight-curve $-1 0 -29.040204470790915 12.895314892754966 1 0 0 I I #
vertex $-1 $324 $329 #
straight-curve $-1 0 -29.040204470790915 -12.895314892754966 -1 0 0 I I #
edge $-1 $330 -70.307321390423283 $263 53.332127518603571 $260 $274 forward 7 unknown #
coedge $-1 $220 $267 $331 $332 forward $153 $-1 #
coedge $-1 $333 $334 $220 $278 reversed $335 $-1 #
edge $-1 $336 -29.040204470790915 $330 29.040204470790915 $277 $337 forward 7 unknown #
edge $-1 $265 -53.332127518603571 $338 70.307321390423283 $261 $272 forward 7 unknown #
coedge $-1 $268 $223 $339 $340 forward $157 $-1 #
coedge $-1 $334 $333 $223 $282 reversed $335 $-1 #
edge $-1 $338 -29.040204470790915 $341 29.040204470790915 $281 $342 forward 7 unknown #
face $-1 $343 $344 $11 $-1 $345 reversed single #
loop $-1 $-1 $346 $225 #
plane-surface $-1 -60.198793167328418 -35.052671111946488 0 1 0 0 0 0 -1 forward_v I I I I #
coedge $-1 $347 $348 $349 $350 forward $226 $-1 #
coedge $-1 $229 $228 $351 $352 forward $96 $-1 #
coedge $-1 $232 $251 $228 $289 forward $182 $-1 #
edge $-1 $353 -70.307321390423283 $235 53.332127518603571 $228 $311 forward 7 unknown #
coedge $-1 $246 $230 $229 $291 forward $178 $-1 #
edge $-1 $234 -53.332127518603571 $354 70.307321390423283 $229 $301 forward 7 unknown #
straight-curve $-1 -53.332127518603571 35.052671111946495 -12.895314892754966 0 -1 0 I I #
straight-curve $-1 -53.332127518603571 35.052671111946495 12.895314892754966 0 1 0 I I #
point $-1 -53.332127518603571 29.040204470790922 -12.895314892754966 #
point $-1 -53.332127518603571 29.040204470790922 12.895314892754966 #
coedge $-1 $242 $241 $355 $356 reversed $163 $-1 #
coedge $-1 $244 $357 $358 $359 forward $178 $-1 #
coedge $-1 $360 $355 $244 $299 reversed $361 $-1 #
edge $-1 $362 -29.040204470790915 $300 29.040204470790915 $298 $363 forward 7 unknown #
vertex $-1 $245 $364 #
straight-curve $-1 0 29.040204470790915 -12.895314892754966 1 0 0 I I #
coedge $-1 $365 $246 $366 $367 forward $178 $-1 #
coedge $-1 $351 $368 $246 $304 reversed $369 $-1 #
edge $-1 $354 -29.040204470790915 $370 29.040204470790915 $303 $371 forward 7 unknown #
face $-1 $372 $361 $11 $-1 $373 reversed single #
plane-surface $-1 0 0 -12.895314892754966 0 0 1 1 0 0 forward_v I I I I #
coedge $-1 $374 $249 $375 $376 forward $182 $-1 #
coedge $-1 $355 $360 $249 $309 reversed $361 $-1 #
edge $-1 $310 -29.040204470790915 $377 29.040204470790915 $308 $378 forward 7 unknown #
vertex $-1 $250 $379 #
straight-curve $-1 0 29.040204470790915 12.895314892754966 -1 0 0 I I #
coedge $-1 $251 $380 $381 $382 forward $182 $-1 #
coedge $-1 $368 $351 $251 $314 reversed $369 $-1 #
edge $-1 $383 -29.040204470790915 $353 29.040204470790915 $313 $384 forward 7 unknown #
plane-surface $-1 0 0 12.895314892754966 0 0 1 1 0 0 forward_v I I I I #
face $-1 $385 $386 $10 $-1 $387 reversed single #
loop $-1 $-1 $388 $258 #
plane-surface $-1 -70.307321390423283 0 0 1 0 0 0 0 -1 forward_v I I I I #
coedge $-1 $261 $260 $334 $389 reversed $139 $-1 #
straight-curve $-1 -53.332127518603571 -29.040204470790915 0 0 0 -1 I I #
point $-1 -53.332127518603571 -29.040204470790915 -12.895314892754966 #
point $-1 -53.332127518603571 -29.040204470790915 12.895314892754966 #
coedge $-1 $269 $388 $267 $324 reversed $317 $-1 #
edge $-1 $273 -29.040204470790915 $390 29.040204470790915 $323 $391 forward 7 unknown #
coedge $-1 $388 $269 $268 $326 reversed $317 $-1 #
edge $-1 $392 -29.040204470790915 $271 29.040204470790915 $325 $393 forward 7 unknown #
straight-curve $-1 -70.307321390423283 -29.040204470790915 0 0 0 -1 I I #
point $-1 -70.307321390423283 -29.040204470790915 12.895314892754966 #
point $-1 -70.307321390423283 -29.040204470790915 -12.895314892754966 #
vertex $-1 $389 $394 #
coedge $-1 $395 $396 $276 $332 reversed $386 $-1 #
edge $-1 $390 -70.307321390423283 $336 70.307321390423283 $331 $397 forward 7 unknown #
coedge $-1 $281 $277 $396 $398 reversed $335 $-1 #
coedge $-1 $277 $281 $319 $389 forward $335 $-1 #
loop $-1 $-1 $334 $385 #
vertex $-1 $278 $399 #
straight-curve $-1 70.307321390423283 0 -12.895314892754966 0 -1 0 I I #
vertex $-1 $282 $400 #
coedge $-1 $396 $395 $280 $340 reversed $386 $-1 #
edge $-1 $341 -70.307321390423283 $392 70.307321390423283 $339 $401 forward 7 unknown #
vertex $-1 $282 $402 #
straight-curve $-1 70.307321390423283 0 12.895314892754966 0 1 0 I I #
face $-1 $403 $404 $11 $-1 $405 reversed single #
loop $-1 $-1 $406 $283 #
plane-surface $-1 -53.332127518603571 -35.052671111946488 0 -1 0 0 0 0 1 forward_v I I I I #
coedge $-1 $407 $408 $409 $410 reversed $284 $-1 #
coedge $-1 $411 $286 $412 $413 reversed $226 $-1 #
coedge $-1 $286 $411 $414 $415 reversed $226 $-1 #
coedge $-1 $408 $407 $286 $350 reversed $284 $-1 #
edge $-1 $416 -12.895314892754966 $417 12.895314892754966 $349 $418 forward 7 unknown #
coedge $-1 $313 $303 $287 $352 reversed $369 $-1 #
edge $-1 $353 -12.895314892754966 $354 12.895314892754966 $351 $419 forward 7 unknown #
vertex $-1 $314 $420 #
vertex $-1 $304 $421 #
coedge $-1 $298 $308 $296 $356 forward $361 $-1 #
edge $-1 $310 -12.895314892754966 $300 12.895314892754966 $296 $422 forward 7 unknown #
coedge $-1 $297 $412 $407 $423 forward $178 $-1 #
coedge $-1 $409 $424 $297 $359 reversed $404 $-1 #
edge $-1 $425 60.198793167328418 $362 70.307321390423283 $358 $426 forward 7 unknown #
coedge $-1 $308 $298 $424 $427 reversed $361 $-1 #
loop $-1 $-1 $355 $305 #
vertex $-1 $299 $428 #
straight-curve $-1 -70.307321390423283 0 -12.895314892754966 0 1 0 I I #
point $-1 -70.307321390423283 29.040204470790915 -12.895314892754966 #
coedge $-1 $412 $302 $429 $430 forward $178 $-1 #
coedge $-1 $431 $432 $302 $367 reversed $433 $-1 #
edge $-1 $370 -70.307321390423283 $434 53.332127518603571 $366 $426 forward 7 unknown #
coedge $-1 $303 $313 $431 $435 forward $369 $-1 #
loop $-1 $-1 $368 $372 #
vertex $-1 $435 $436 #
straight-curve $-1 70.307321390423283 0 -12.895314892754966 0 -1 0 I I #
face $-1 $-1 $369 $11 $-1 $437 reversed single #
plane-surface $-1 -70.307321390423283 0 0 1 0 0 0 0 -1 forward_v I I I I #
coedge $-1 $414 $307 $408 $438 forward $182 $-1 #
coedge $-1 $424 $409 $307 $376 reversed $404 $-1 #
edge $-1 $377 -70.307321390423283 $439 -60.198793167328418 $375 $440 forward 7 unknown #
vertex $-1 $309 $441 #
straight-curve $-1 -70.307321390423283 0 12.895314892754966 0 -1 0 I I #
point $-1 -70.307321390423283 29.040204470790915 12.895314892754966 #
coedge $-1 $312 $414 $442 $443 forward $182 $-1 #
coedge $-1 $432 $431 $312 $382 reversed $433 $-1 #
edge $-1 $444 -53.332127518603571 $383 70.307321390423283 $381 $440 forward 7 unknown #
vertex $-1 $314 $445 #
straight-curve $-1 70.307321390423283 0 12.895314892754966 0 1 0 I I #
face $-1 $-1 $335 $10 $-1 $446 reversed single #
loop $-1 $-1 $396 $316 #
plane-surface $-1 0 29.040204470790915 0 0 -1 0 0 0 -1 forward_v I I I I #
coedge $-1 $323 $325 $395 $447 forward $317 $-1 #
edge $-1 $338 -12.895314892754966 $330 12.895314892754966 $334 $448 forward 7 unknown #
vertex $-1 $332 $449 #
straight-curve $-1 -70.307321390423283 0 -12.895314892754966 0 1 0 I I #
vertex $-1 $340 $450 #
straight-curve $-1 -70.307321390423283 0 12.895314892754966 0 -1 0 I I #
point $-1 70.307321390423283 -29.040204470790915 -12.895314892754966 #
coedge $-1 $339 $331 $388 $447 reversed $386 $-1 #
coedge $-1 $331 $339 $333 $398 forward $386 $-1 #
straight-curve $-1 0 29.040204470790915 -12.895314892754966 1 0 0 I I #
edge $-1 $341 -12.895314892754966 $336 12.895314892754966 $333 $451 forward 7 unknown #
point $-1 70.307321390423283 29.040204470790915 -12.895314892754966 #
point $-1 70.307321390423283 -29.040204470790915 12.895314892754966 #
straight-curve $-1 0 29.040204470790915 12.895314892754966 -1 0 0 I I #
point $-1 70.307321390423283 29.040204470790915 12.895314892754966 #
face $-1 $252 $433 $11 $-1 $405 reversed single #
loop $-1 $-1 $409 $343 #
plane-surface $-1 0 -29.040204470790915 0 0 1 0 0 0 1 forward_v I I I I #
coedge $-1 $429 $442 $411 $452 forward $344 $-1 #
coedge $-1 $349 $346 $357 $423 reversed $284 $-1 #
coedge $-1 $346 $349 $374 $438 reversed $284 $-1 #
coedge $-1 $375 $358 $346 $410 forward $404 $-1 #
edge $-1 $425 -12.895314892754966 $439 12.895314892754966 $409 $453 forward 7 unknown #
coedge $-1 $348 $347 $406 $452 reversed $226 $-1 #
coedge $-1 $357 $365 $347 $413 forward $178 $-1 #
edge $-1 $454 -3.4333328243624237 $417 3.4333328243624237 $347 $455 forward 7 unknown #
coedge $-1 $380 $374 $348 $415 forward $182 $-1 #
edge $-1 $416 -3.4333328243624237 $456 3.4333328243624237 $348 $457 forward 7 unknown #
vertex $-1 $438 $458 #
vertex $-1 $423 $459 #
straight-curve $-1 -60.198793167328418 -41.065137753102064 0 0 0 -1 I I #
straight-curve $-1 70.307321390423283 29.040204470790915 0 0 0 -1 I I #
point $-1 70.307321390423283 29.040204470790915 12.895314892754966 #
point $-1 70.307321390423283 29.040204470790915 -12.895314892754966 #
straight-curve $-1 -70.307321390423283 29.040204470790915 0 0 0 -1 I I #
edge $-1 $417 -6.0124666411555765 $425 6.0124666411555729 $407 $460 forward 7 unknown #
coedge $-1 $358 $375 $360 $427 forward $404 $-1 #
vertex $-1 $359 $461 #
straight-curve $-1 0 -29.040204470790915 -12.895314892754966 -1 0 0 I I #
edge $-1 $377 -12.895314892754966 $362 12.895314892754966 $360 $462 forward 7 unknown #
point $-1 -70.307321390423283 -29.040204470790915 -12.895314892754966 #
coedge $-1 $463 $406 $365 $430 reversed $344 $-1 #
edge $-1 $434 -6.0124666411555729 $454 6.0124666411555765 $429 $464 forward 7 unknown #
coedge $-1 $381 $366 $368 $435 reversed $433 $-1 #
coedge $-1 $366 $381 $463 $465 forward $433 $-1 #
loop $-1 $-1 $432 $403 #
vertex $-1 $430 $466 #
edge $-1 $383 -12.895314892754966 $370 12.895314892754966 $368 $467 forward 7 unknown #
point $-1 70.307321390423283 -29.040204470790915 -12.895314892754966 #
plane-surface $-1 70.307321390423283 0 0 -1 0 0 0 0 1 forward_v I I I I #
edge $-1 $439 -6.0124666411555729 $416 6.0124666411555765 $408 $468 forward 7 unknown #
vertex $-1 $438 $469 #
straight-curve $-1 0 -29.040204470790915 12.895314892754966 1 0 0 I I #
point $-1 -70.307321390423283 -29.040204470790915 12.895314892754966 #
coedge $-1 $406 $463 $380 $443 reversed $344 $-1 #
edge $-1 $456 -6.0124666411555765 $444 6.0124666411555729 $442 $470 forward 7 unknown #
vertex $-1 $382 $471 #
point $-1 70.307321390423283 -29.040204470790915 12.895314892754966 #
plane-surface $-1 70.307321390423283 0 0 -1 0 0 0 0 1 forward_v I I I I #
edge $-1 $392 -12.895314892754966 $390 12.895314892754966 $395 $472 forward 7 unknown #
straight-curve $-1 70.307321390423283 -29.040204470790915 0 0 0 -1 I I #
point $-1 -70.307321390423283 29.040204470790915 -12.895314892754966 #
point $-1 -70.307321390423283 29.040204470790915 12.895314892754966 #
straight-curve $-1 70.307321390423283 29.040204470790915 0 0 0 -1 I I #
edge $-1 $456 -12.895314892754966 $454 12.895314892754966 $406 $473 forward 7 unknown #
straight-curve $-1 -60.198793167328418 -29.040204470790915 0 0 0 1 I I #
vertex $-1 $452 $474 #
straight-curve $-1 -56.765460342965994 -41.065137753102064 -12.895314892754966 -1 0 0 I I #
vertex $-1 $443 $475 #
straight-curve $-1 -56.765460342965994 -41.065137753102064 12.895314892754966 1 0 0 I I #
point $-1 -60.198793167328418 -41.065137753102064 12.895314892754966 #
point $-1 -60.198793167328418 -41.065137753102064 -12.895314892754966 #
straight-curve $-1 -60.198793167328418 -35.052671111946488 -12.895314892754966 0 1 0 I I #
point $-1 -60.198793167328418 -29.040204470790915 -12.895314892754966 #
straight-curve $-1 -70.307321390423283 -29.040204470790915 0 0 0 -1 I I #
coedge $-1 $442 $429 $432 $465 reversed $344 $-1 #
straight-curve $-1 -53.332127518603571 -35.052671111946488 -12.895314892754966 0 -1 0 I I #
edge $-1 $444 -12.895314892754966 $434 12.895314892754966 $432 $476 forward 7 unknown #
point $-1 -53.332127518603571 -29.040204470790915 -12.895314892754966 #
straight-curve $-1 70.307321390423283 -29.040204470790915 0 0 0 -1 I I #
straight-curve $-1 -60.198793167328418 -35.052671111946488 12.895314892754966 0 -1 0 I I #
point $-1 -60.198793167328418 -29.040204470790915 12.895314892754966 #
straight-curve $-1 -53.332127518603571 -35.052671111946488 12.895314892754966 0 1 0 I I #
point $-1 -53.332127518603571 -29.040204470790915 12.895314892754966 #
straight-curve $-1 -70.307321390423283 29.040204470790915 0 0 0 -1 I I #
straight-curve $-1 -53.332127518603571 -41.065137753102064 0 0 0 -1 I I #
point $-1 -53.332127518603571 -41.065137753102064 -12.895314892754966 #
point $-1 -53.332127518603571 -41.065137753102064 12.895314892754966 #
straight-curve $-1 -53.332127518603571 -29.040204470790915 0 0 0 -1 I I #
End-of-ACIS-data 