500 0 11 0           
7 Unknown 11 ACIS 5.0 NT 24 Fri Mar 26 03:32:48 1999 
-1 9.9999999999999995e-007 1e-010 
body $-1 $11 $-1 $12 #
body $-1 $13 $-1 $14 #
body $-1 $15 $-1 $16 #
body $-1 $17 $-1 $18 #
body $-1 $19 $-1 $20 #
body $-1 $21 $-1 $22 #
body $-1 $23 $-1 $24 #
body $-1 $25 $-1 $26 #
body $-1 $27 $-1 $28 #
body $-1 $29 $-1 $30 #
body $-1 $31 $-1 $32 #
lump $-1 $-1 $33 $0 #
transform $-1 1 0 0 0 1 0 0 0 1 73.823053682058173 45.001039355168253 16.801193733188462 1 rotate no_reflect no_shear #
lump $-1 $-1 $34 $1 #
transform $-1 1 0 0 0 1 0 0 0 1 73.823053682058173 45.001039355168253 16.801193733188462 1 rotate no_reflect no_shear #
lump $-1 $-1 $35 $2 #
transform $-1 1 0 0 0 1 0 0 0 1 73.823053682058173 45.001039355168253 16.801193733188462 1 rotate no_reflect no_shear #
lump $-1 $-1 $36 $3 #
transform $-1 1 0 0 0 1 0 0 0 1 73.823053682058173 45.001039355168253 16.801193733188462 1 rotate no_reflect no_shear #
lump $-1 $-1 $37 $4 #
transform $-1 1 0 0 0 1 0 0 0 1 73.823053682058173 45.001039355168253 16.801193733188462 1 rotate no_reflect no_shear #
lump $-1 $-1 $38 $5 #
transform $-1 1 0 0 0 1 0 0 0 1 73.823053682058173 45.001039355168253 16.801193733188462 1 rotate no_reflect no_shear #
lump $-1 $-1 $39 $6 #
transform $-1 1 0 0 0 1 0 0 0 1 73.823053682058173 45.001039355168253 16.801193733188462 1 rotate no_reflect no_shear #
lump $-1 $-1 $40 $7 #
transform $-1 1 0 0 0 1 0 0 0 1 73.823053682058173 45.001039355168253 16.801193733188462 1 rotate no_reflect no_shear #
lump $-1 $-1 $41 $8 #
transform $-1 1 0 0 0 1 0 0 0 1 73.823053682058173 45.001039355168253 16.801193733188462 1 rotate no_reflect no_shear #
lump $-1 $-1 $42 $9 #
transform $-1 1 0 0 0 1 0 0 0 1 73.823053682058173 45.001039355168253 16.801193733188462 1 rotate no_reflect no_shear #
lump $-1 $-1 $43 $10 #
transform $-1 1 0 0 0 1 0 0 0 1 73.823053682058173 45.001039355168253 16.801193733188462 1 rotate no_reflect no_shear #
shell $-1 $-1 $-1 $44 $-1 $11 #
shell $-1 $-1 $-1 $45 $-1 $13 #
shell $-1 $-1 $-1 $46 $-1 $15 #
shell $-1 $-1 $-1 $47 $-1 $17 #
shell $-1 $-1 $-1 $48 $-1 $19 #
shell $-1 $-1 $-1 $49 $-1 $21 #
shell $-1 $-1 $-1 $50 $-1 $23 #
shell $-1 $-1 $-1 $51 $-1 $25 #
shell $-1 $-1 $-1 $52 $-1 $27 #
shell $-1 $-1 $-1 $53 $-1 $29 #
shell $-1 $-1 $-1 $54 $-1 $31 #
face $-1 $55 $56 $33 $-1 $57 forward single #
face $-1 $58 $59 $34 $-1 $60 reversed single #
face $-1 $61 $62 $35 $-1 $63 forward single #
face $-1 $64 $65 $36 $-1 $66 forward single #
face $-1 $67 $68 $37 $-1 $69 forward single #
face $-1 $70 $71 $38 $-1 $72 reversed single #
face $-1 $73 $74 $39 $-1 $75 forward single #
face $-1 $76 $77 $40 $-1 $78 forward single #
face $-1 $79 $80 $41 $-1 $81 reversed single #
face $-1 $82 $83 $42 $-1 $84 forward single #
face $-1 $85 $86 $43 $-1 $87 forward single #
face $-1 $88 $89 $33 $-1 $90 reversed single #
loop $-1 $-1 $91 $44 #
plane-surface $-1 0 0 16.801193733188462 0 0 1 1 0 0 forward_v I I I I #
face $-1 $92 $93 $34 $-1 $94 reversed single #
loop $-1 $-1 $95 $45 #
plane-surface $-1 -197.64949958185983 -23.747122766749634 81.551470837216954 0 -1 0 0.83867057594974714 0 -0.54463902268945019 forward_v I I I I #
face $-1 $96 $97 $35 $-1 $98 forward single #
loop $-1 $99 $100 $46 #
cone-surface $-1 -67.579070326012399 -40.750256037484533 8.2174233527588179 0.83867057594974714 0 -0.54463902268945019 0.54463902268945019 0 0.83867057594974714 1 I I 0 1 1 forward I I I I #
face $-1 $101 $102 $36 $-1 $103 forward single #
loop $-1 $104 $105 $47 #
cone-surface $-1 -67.579070326012399 -34.374081060958943 8.2174233527588179 0.83867057594974714 0 -0.54463902268945019 0.54463902268945019 0 0.83867057594974714 1 I I 0 1 1 forward I I I I #
face $-1 $106 $107 $37 $-1 $108 forward single #
loop $-1 $109 $110 $48 #
cone-surface $-1 -67.579070326012399 -27.99790608443336 8.2174233527588179 0.83867057594974714 0 -0.54463902268945019 0.54463902268945019 0 0.83867057594974714 1 I I 0 1 1 forward I I I I #
face $-1 $111 $112 $38 $-1 $113 reversed single #
loop $-1 $-1 $114 $49 #
plane-surface $-1 120.79354039831031 -1.7763568394002505e-015 213.06985348830378 0 -1 0 -0.84804810408105047 0 -0.52991925155115449 forward_v I I I I #
face $-1 $115 $116 $39 $-1 $117 forward single #
loop $-1 $118 $119 $50 #
cone-surface $-1 71.154856299555348 -16.002641050029858 12.944805918010534 -0.84804810408105047 0 -0.52991925155115449 0.26495962577557725 0 -0.42402405204052523 1 I I 0 1 0.5 forward I I I I #
face $-1 $120 $121 $40 $-1 $122 forward single #
loop $-1 $123 $124 $51 #
cone-surface $-1 71.154856299555348 -6.4010564200119475 12.944805918010534 -0.84804810408105047 0 -0.52991925155115449 0.26495962577557725 0 -0.42402405204052523 1 I I 0 1 0.5 forward I I I I #
face $-1 $125 $126 $41 $-1 $127 reversed single #
loop $-1 $-1 $128 $52 #
plane-surface $-1 -4.4174610267757828 -11.201848735020903 134.82933877946985 0.84804810408105047 0 0.52991925155115449 0.52991925155115449 0 -0.84804810408105047 forward_v I I I I #
face $-1 $129 $130 $42 $-1 $131 forward single #
loop $-1 $132 $133 $53 #
cone-surface $-1 71.154856299555348 6.4010564200119404 12.944805918010534 -0.84804810408105047 0 -0.52991925155115449 0.26495962577557725 0 -0.42402405204052523 1 I I 0 1 0.5 forward I I I I #
face $-1 $134 $135 $43 $-1 $136 forward single #
loop $-1 $137 $138 $54 #
cone-surface $-1 71.154856299555348 16.002641050029851 12.944805918010534 -0.84804810408105047 0 -0.52991925155115449 0.26495962577557725 0 -0.42402405204052523 1 I I 0 1 0.5 forward I I I I #
face $-1 $139 $140 $33 $-1 $141 reversed single #
loop $-1 $-1 $142 $55 #
plane-surface $-1 0 0 -16.801193733188462 0 0 1 1 0 0 forward_v I I I I #
coedge $-1 $143 $144 $145 $146 forward $56 $-1 #
face $-1 $147 $148 $34 $-1 $149 forward single #
loop $-1 $-1 $150 $58 #
plane-surface $-1 -73.823053682058173 -34.374081060958943 1.1376392185229918 -0.83867057594974714 0 0.54463902268945019 0.54463902268945019 0 0.83867057594974714 forward_v I I I I #
coedge $-1 $151 $152 $153 $154 reversed $59 $-1 #
face $-1 $-1 $155 $35 $-1 $156 forward single #
loop $-1 $157 $158 $61 #
cone-surface $-1 -66.001767137493729 -40.750256037484533 7.1931107183171932 0.83867057594974714 0 -0.54463902268945019 0.2723195113447251 0 0.41933528797487357 1 I I -0.70710678118654746 0.70710678118654746 0.5 forward I I I I #
loop $-1 $-1 $159 $46 #
coedge $-1 $100 $100 $160 $161 reversed $62 $-1 #
face $-1 $-1 $162 $36 $-1 $163 forward single #
loop $-1 $164 $165 $64 #
cone-surface $-1 -66.001767137493729 -34.374081060958943 7.1931107183171932 0.83867057594974714 0 -0.54463902268945019 0.2723195113447251 0 0.41933528797487357 1 I I -0.70710678118654746 0.70710678118654746 0.5 forward I I I I #
loop $-1 $-1 $166 $47 #
coedge $-1 $105 $105 $167 $168 reversed $65 $-1 #
face $-1 $-1 $169 $37 $-1 $170 forward single #
loop $-1 $171 $172 $67 #
cone-surface $-1 -66.001767137493729 -27.99790608443336 7.1931107183171932 0.83867057594974714 0 -0.54463902268945019 0.2723195113447251 0 0.41933528797487357 1 I I -0.70710678118654746 0.70710678118654746 0.5 forward I I I I #
loop $-1 $-1 $173 $48 #
coedge $-1 $110 $110 $174 $175 reversed $68 $-1 #
face $-1 $176 $177 $38 $-1 $178 reversed single #
loop $-1 $-1 $179 $70 #
plane-surface $-1 -4.4174610267757828 -11.201848735020903 134.82933877946985 0.84804810408105047 0 0.52991925155115449 0.52991925155115449 0 -0.84804810408105047 forward_v I I I I #
coedge $-1 $180 $181 $182 $183 reversed $71 $-1 #
face $-1 $-1 $184 $39 $-1 $185 forward single #
loop $-1 $186 $187 $73 #
cone-surface $-1 70.518820221494565 -16.002641050029858 12.547366479347168 -0.84804810408105047 0 -0.52991925155115449 0.13247981288778862 0 -0.21201202602026262 1 I I -0.70710678118654746 0.70710678118654746 0.25 forward I I I I #
loop $-1 $-1 $188 $50 #
coedge $-1 $119 $119 $189 $190 reversed $74 $-1 #
face $-1 $-1 $191 $40 $-1 $192 forward single #
loop $-1 $193 $194 $76 #
cone-surface $-1 70.518820221494565 -6.4010564200119475 12.547366479347168 -0.84804810408105047 0 -0.52991925155115449 0.13247981288778862 0 -0.21201202602026262 1 I I -0.70710678118654746 0.70710678118654746 0.25 forward I I I I #
loop $-1 $-1 $195 $51 #
coedge $-1 $124 $124 $196 $197 reversed $77 $-1 #
face $-1 $198 $199 $41 $-1 $200 reversed single #
loop $-1 $-1 $201 $79 #
plane-surface $-1 120.79354039831031 22.403697470041799 213.06985348830378 0 -1 0 -0.84804810408105047 0 -0.52991925155115449 forward_v I I I I #
coedge $-1 $202 $203 $204 $205 reversed $80 $-1 #
face $-1 $-1 $206 $42 $-1 $207 forward single #
loop $-1 $208 $209 $82 #
cone-surface $-1 70.518820221494565 6.4010564200119404 12.547366479347168 -0.84804810408105047 0 -0.52991925155115449 0.13247981288778862 0 -0.21201202602026262 1 I I -0.70710678118654746 0.70710678118654746 0.25 forward I I I I #
loop $-1 $-1 $210 $53 #
coedge $-1 $133 $133 $211 $212 reversed $83 $-1 #
face $-1 $-1 $213 $43 $-1 $214 forward single #
loop $-1 $215 $216 $85 #
cone-surface $-1 70.518820221494565 16.002641050029851 12.547366479347168 -0.84804810408105047 0 -0.52991925155115449 0.13247981288778862 0 -0.21201202602026262 1 I I -0.70710678118654746 0.70710678118654746 0.25 forward I I I I #
loop $-1 $-1 $217 $54 #
coedge $-1 $138 $138 $218 $219 reversed $86 $-1 #
face $-1 $220 $221 $33 $-1 $222 reversed single #
loop $-1 $-1 $223 $88 #
plane-surface $-1 0 -45.001039355168253 0 0 1 0 0 0 1 forward_v I I I I #
coedge $-1 $224 $225 $226 $227 forward $89 $-1 #
coedge $-1 $228 $91 $229 $230 forward $56 $-1 #
coedge $-1 $91 $228 $231 $232 forward $56 $-1 #
coedge $-1 $233 $234 $91 $146 reversed $235 $-1 #
edge $-1 $236 -45.001039355168253 $237 45.001039355168253 $145 $238 forward 7 unknown #
face $-1 $239 $240 $34 $-1 $241 reversed single #
loop $-1 $-1 $242 $92 #
plane-surface $-1 0 0 16.801193733188462 0 0 1 1 0 0 forward_v I I I I #
coedge $-1 $243 $244 $245 $246 reversed $93 $-1 #
coedge $-1 $152 $95 $247 $248 reversed $59 $-1 #
coedge $-1 $95 $151 $243 $249 reversed $59 $-1 #
coedge $-1 $245 $250 $95 $154 forward $240 $-1 #
edge $-1 $251 23.974541685420014 $252 39.638096200085485 $153 $253 forward 7 unknown #
loop $-1 $-1 $160 $96 #
plane-surface $-1 -73.823053682058173 -34.374081060958943 1.1376392185229918 -0.83867057594974714 0 0.54463902268945019 0.54463902268945019 0 0.83867057594974714 forward_v I I I I #
loop $-1 $-1 $254 $61 #
coedge $-1 $158 $158 $159 $255 reversed $97 $-1 #
coedge $-1 $159 $159 $158 $255 forward $99 $-1 #
coedge $-1 $160 $160 $100 $161 forward $155 $-1 #
edge $-1 $256 0 $256 6.2831853071796004 $160 $257 forward 7 unknown #
loop $-1 $-1 $167 $101 #
plane-surface $-1 -73.823053682058173 -34.374081060958943 1.1376392185229918 -0.83867057594974714 0 0.54463902268945019 0.54463902268945019 0 0.83867057594974714 forward_v I I I I #
loop $-1 $-1 $258 $64 #
coedge $-1 $165 $165 $166 $259 reversed $102 $-1 #
coedge $-1 $166 $166 $165 $259 forward $104 $-1 #
coedge $-1 $167 $167 $105 $168 forward $162 $-1 #
edge $-1 $260 0 $260 6.2831853071796004 $167 $261 forward 7 unknown #
loop $-1 $-1 $174 $106 #
plane-surface $-1 -73.823053682058173 -34.374081060958943 1.1376392185229918 -0.83867057594974714 0 0.54463902268945019 0.54463902268945019 0 0.83867057594974714 forward_v I I I I #
loop $-1 $-1 $262 $67 #
coedge $-1 $172 $172 $173 $263 reversed $107 $-1 #
coedge $-1 $173 $173 $172 $263 forward $109 $-1 #
coedge $-1 $174 $174 $110 $175 forward $169 $-1 #
edge $-1 $264 0 $264 6.2831853071796004 $174 $265 forward 7 unknown #
face $-1 $266 $267 $38 $-1 $268 reversed single #
loop $-1 $-1 $269 $111 #
plane-surface $-1 120.79354039831031 -22.403697470041806 213.06985348830378 0 1 0 0.84804810408105047 0 0.52991925155115449 forward_v I I I I #
coedge $-1 $270 $271 $272 $273 reversed $112 $-1 #
coedge $-1 $181 $114 $274 $275 reversed $71 $-1 #
coedge $-1 $114 $180 $270 $276 reversed $71 $-1 #
coedge $-1 $272 $277 $114 $183 forward $278 $-1 #
edge $-1 $279 -13.426283482903017 $280 -8.9379368219783828 $182 $281 forward 7 unknown #
loop $-1 $-1 $189 $115 #
plane-surface $-1 -4.4174610267757828 -11.201848735020903 134.82933877946985 0.84804810408105047 0 0.52991925155115449 0.52991925155115449 0 -0.84804810408105047 forward_v I I I I #
loop $-1 $-1 $282 $73 #
coedge $-1 $187 $187 $188 $283 reversed $116 $-1 #
coedge $-1 $188 $188 $187 $283 forward $118 $-1 #
coedge $-1 $189 $189 $119 $190 forward $184 $-1 #
edge $-1 $284 0 $284 6.2831853071796004 $189 $285 forward 7 unknown #
loop $-1 $-1 $196 $120 #
plane-surface $-1 -4.4174610267757828 -11.201848735020903 134.82933877946985 0.84804810408105047 0 0.52991925155115449 0.52991925155115449 0 -0.84804810408105047 forward_v I I I I #
loop $-1 $-1 $286 $76 #
coedge $-1 $194 $194 $195 $287 reversed $121 $-1 #
coedge $-1 $195 $195 $194 $287 forward $123 $-1 #
coedge $-1 $196 $196 $124 $197 forward $191 $-1 #
edge $-1 $288 0 $288 6.2831853071796004 $196 $289 forward 7 unknown #
face $-1 $290 $291 $41 $-1 $292 forward single #
loop $-1 $-1 $293 $125 #
plane-surface $-1 73.823053682058173 0 0 -1 0 0 0 0 1 forward_v I I I I #
coedge $-1 $294 $295 $296 $297 reversed $126 $-1 #
coedge $-1 $298 $128 $299 $300 reversed $80 $-1 #
coedge $-1 $128 $298 $293 $301 reversed $80 $-1 #
coedge $-1 $302 $303 $128 $205 forward $291 $-1 #
edge $-1 $304 139.17623832692524 $305 147.64610736411635 $204 $306 forward 7 unknown #
loop $-1 $-1 $211 $129 #
plane-surface $-1 -4.4174610267757828 -11.201848735020903 134.82933877946985 0.84804810408105047 0 0.52991925155115449 0.52991925155115449 0 -0.84804810408105047 forward_v I I I I #
loop $-1 $-1 $307 $82 #
coedge $-1 $209 $209 $210 $308 reversed $130 $-1 #
coedge $-1 $210 $210 $209 $308 forward $132 $-1 #
coedge $-1 $211 $211 $133 $212 forward $206 $-1 #
edge $-1 $309 0 $309 6.2831853071796004 $211 $310 forward 7 unknown #
loop $-1 $-1 $218 $134 #
plane-surface $-1 -4.4174610267757828 -11.201848735020903 134.82933877946985 0.84804810408105047 0 0.52991925155115449 0.52991925155115449 0 -0.84804810408105047 forward_v I I I I #
loop $-1 $-1 $311 $85 #
coedge $-1 $216 $216 $217 $312 reversed $135 $-1 #
coedge $-1 $217 $217 $216 $312 forward $137 $-1 #
coedge $-1 $218 $218 $138 $219 forward $213 $-1 #
edge $-1 $313 0 $313 6.2831853071796004 $218 $314 forward 7 unknown #
face $-1 $315 $316 $33 $-1 $317 reversed single #
loop $-1 $-1 $318 $139 #
plane-surface $-1 -73.823053682058173 0 0 1 0 0 0 0 -1 forward_v I I I I #
coedge $-1 $319 $231 $320 $321 forward $140 $-1 #
coedge $-1 $322 $142 $319 $323 forward $89 $-1 #
coedge $-1 $142 $322 $324 $325 forward $89 $-1 #
coedge $-1 $234 $233 $142 $227 reversed $235 $-1 #
edge $-1 $326 -45.001039355168253 $327 45.001039355168253 $226 $328 forward 7 unknown #
coedge $-1 $144 $143 $329 $330 forward $56 $-1 #
coedge $-1 $331 $332 $143 $230 reversed $316 $-1 #
edge $-1 $237 -73.823053682058173 $333 73.823053682058173 $229 $334 forward 7 unknown #
coedge $-1 $223 $335 $144 $232 reversed $140 $-1 #
edge $-1 $336 -73.823053682058173 $236 73.823053682058173 $231 $337 forward 7 unknown #
coedge $-1 $226 $145 $335 $338 forward $235 $-1 #
coedge $-1 $145 $226 $331 $339 reversed $235 $-1 #
loop $-1 $-1 $233 $315 #
vertex $-1 $146 $340 #
vertex $-1 $146 $341 #
straight-curve $-1 73.823053682058173 0 16.801193733188462 0 1 0 I I #
face $-1 $-1 $342 $34 $-1 $343 reversed single #
loop $-1 $-1 $153 $147 #
plane-surface $-1 -73.823053682058173 0 0 1 0 0 0 0 -1 forward_v I I I I #
coedge $-1 $247 $344 $345 $346 forward $148 $-1 #
coedge $-1 $345 $150 $152 $249 forward $93 $-1 #
coedge $-1 $150 $345 $347 $348 reversed $93 $-1 #
coedge $-1 $349 $153 $150 $246 forward $240 $-1 #
edge $-1 $252 6.5600822362701621 $350 27.813998824688781 $245 $351 forward 7 unknown #
coedge $-1 $352 $242 $151 $248 forward $148 $-1 #
edge $-1 $353 -35.173727019875706 $251 -25.001696108871741 $247 $354 forward 7 unknown #
edge $-1 $252 0 $353 18.676647260370828 $152 $355 forward 7 unknown #
coedge $-1 $153 $349 $352 $356 reversed $240 $-1 #
vertex $-1 $356 $357 #
vertex $-1 $154 $358 #
straight-curve $-1 -73.823053682058173 -23.747122766749634 40.775735418608477 0 0 -1 I I #
coedge $-1 $254 $254 $-1 $359 reversed $157 $-1 #
edge $-1 $360 0 $360 6.2831853071796004 $158 $361 forward 7 unknown #
vertex $-1 $161 $362 #
ellipse-curve $-1 -68.737038226556194 -40.750256037484533 8.96941647585572 -0.83867057594974714 0 0.54463902268945019 0.54463902268945019 0 0.83867057594974714 1 I I #
coedge $-1 $258 $258 $-1 $363 reversed $164 $-1 #
edge $-1 $364 0 $364 6.2831853071796004 $165 $365 forward 7 unknown #
vertex $-1 $168 $366 #
ellipse-curve $-1 -68.737038226556194 -34.374081060958943 8.96941647585572 -0.83867057594974714 0 0.54463902268945019 0.54463902268945019 0 0.83867057594974714 1 I I #
coedge $-1 $262 $262 $-1 $367 reversed $171 $-1 #
edge $-1 $368 0 $368 6.2831853071796004 $172 $369 forward 7 unknown #
vertex $-1 $175 $370 #
ellipse-curve $-1 -68.737038226556194 -27.99790608443336 8.96941647585572 -0.83867057594974714 0 0.54463902268945019 0.54463902268945019 0 0.83867057594974714 1 I I #
face $-1 $-1 $278 $38 $-1 $371 forward single #
loop $-1 $-1 $372 $176 #
plane-surface $-1 73.823053682058173 0 0 -1 0 0 0 0 1 forward_v I I I I #
coedge $-1 $373 $374 $375 $376 reversed $177 $-1 #
coedge $-1 $377 $179 $181 $276 forward $112 $-1 #
coedge $-1 $179 $377 $373 $378 forward $112 $-1 #
coedge $-1 $375 $182 $179 $273 forward $278 $-1 #
edge $-1 $280 -5.6009243675104496 $379 16.802773102531354 $272 $380 forward 7 unknown #
coedge $-1 $381 $382 $180 $275 forward $267 $-1 #
edge $-1 $383 -96.916589389768149 $279 -89.733733010963419 $274 $384 forward 7 unknown #
edge $-1 $280 139.17623832692524 $383 147.64610736411635 $181 $385 forward 7 unknown #
coedge $-1 $182 $375 $381 $386 forward $278 $-1 #
loop $-1 $-1 $375 $266 #
vertex $-1 $275 $387 #
vertex $-1 $183 $388 #
straight-curve $-1 60.396770199155156 -1.7763568394002505e-015 16.801193733188455 -1 0 0 I I #
coedge $-1 $282 $282 $-1 $389 reversed $186 $-1 #
edge $-1 $390 0 $390 6.2831853071796004 $187 $391 forward 7 unknown #
vertex $-1 $190 $392 #
ellipse-curve $-1 71.578880351595856 -16.002641050029858 13.209765543786096 0.84804810408105047 0 0.52991925155115449 0.26495962577557725 0 -0.42402405204052523 1 I I #
coedge $-1 $286 $286 $-1 $393 reversed $193 $-1 #
edge $-1 $394 0 $394 6.2831853071796004 $194 $395 forward 7 unknown #
vertex $-1 $197 $396 #
ellipse-curve $-1 71.578880351595856 -6.4010564200119475 13.209765543786096 0.84804810408105047 0 0.52991925155115449 0.26495962577557725 0 -0.42402405204052523 1 I I #
face $-1 $-1 $397 $41 $-1 $398 forward single #
loop $-1 $-1 $303 $198 #
plane-surface $-1 120.79354039831031 -1.7763568394002505e-015 213.06985348830378 0 -1 0 -0.84804810408105047 0 -0.52991925155115449 forward_v I I I I #
coedge $-1 $296 $399 $203 $301 forward $199 $-1 #
coedge $-1 $295 $201 $298 $400 reversed $126 $-1 #
coedge $-1 $201 $294 $401 $402 reversed $126 $-1 #
coedge $-1 $403 $293 $201 $297 forward $199 $-1 #
edge $-1 $404 -96.916589389768149 $405 -89.733733010963419 $296 $406 forward 7 unknown #
coedge $-1 $203 $202 $294 $400 forward $80 $-1 #
coedge $-1 $407 $401 $202 $300 forward $397 $-1 #
edge $-1 $408 -28.00462183755225 $304 -5.6009243675104496 $299 $409 forward 7 unknown #
edge $-1 $305 5.6009243675104496 $404 28.00462183755225 $293 $410 forward 7 unknown #
coedge $-1 $303 $204 $399 $411 reversed $291 $-1 #
coedge $-1 $204 $302 $407 $412 reversed $291 $-1 #
vertex $-1 $300 $413 #
vertex $-1 $301 $414 #
straight-curve $-1 -4.4174610267757828 -1.7763568394002505e-015 134.82933877946985 0.52991925155115449 0 -0.84804810408105047 I I #
coedge $-1 $307 $307 $-1 $415 reversed $208 $-1 #
edge $-1 $416 0 $416 6.2831853071796004 $209 $417 forward 7 unknown #
vertex $-1 $212 $418 #
ellipse-curve $-1 71.578880351595856 6.4010564200119404 13.209765543786096 0.84804810408105047 0 0.52991925155115449 0.26495962577557725 0 -0.42402405204052523 1 I I #
coedge $-1 $311 $311 $-1 $419 reversed $215 $-1 #
edge $-1 $420 0 $420 6.2831853071796004 $216 $421 forward 7 unknown #
vertex $-1 $219 $422 #
ellipse-curve $-1 71.578880351595856 16.002641050029851 13.209765543786096 0.84804810408105047 0 0.52991925155115449 0.26495962577557725 0 -0.42402405204052523 1 I I #
face $-1 $-1 $235 $33 $-1 $423 reversed single #
loop $-1 $-1 $331 $220 #
plane-surface $-1 0 45.001039355168253 0 0 -1 0 0 0 -1 forward_v I I I I #
coedge $-1 $424 $329 $332 $425 forward $221 $-1 #
coedge $-1 $335 $223 $224 $323 reversed $140 $-1 #
coedge $-1 $329 $424 $223 $321 reversed $221 $-1 #
edge $-1 $336 -16.801193733188462 $426 16.801193733188462 $320 $427 forward 7 unknown #
coedge $-1 $225 $224 $424 $428 forward $89 $-1 #
edge $-1 $327 -73.823053682058173 $426 73.823053682058173 $319 $429 forward 7 unknown #
coedge $-1 $332 $331 $225 $325 reversed $316 $-1 #
edge $-1 $430 -73.823053682058173 $326 73.823053682058173 $324 $431 forward 7 unknown #
vertex $-1 $227 $432 #
vertex $-1 $338 $433 #
straight-curve $-1 73.823053682058173 0 -16.801193733188462 0 -1 0 I I #
coedge $-1 $318 $320 $228 $330 reversed $221 $-1 #
edge $-1 $333 -45.001039355168253 $336 45.001039355168253 $329 $434 forward 7 unknown #
coedge $-1 $324 $229 $234 $339 forward $316 $-1 #
coedge $-1 $229 $324 $318 $425 reversed $316 $-1 #
vertex $-1 $230 $435 #
straight-curve $-1 0 45.001039355168253 16.801193733188462 -1 0 0 I I #
coedge $-1 $231 $319 $233 $338 reversed $140 $-1 #
vertex $-1 $330 $436 #
straight-curve $-1 0 -45.001039355168253 16.801193733188462 1 0 0 I I #
edge $-1 $236 -16.801193733188462 $327 16.801193733188462 $233 $437 forward 7 unknown #
edge $-1 $237 -16.801193733188462 $326 16.801193733188462 $234 $438 forward 7 unknown #
point $-1 73.823053682058173 -45.001039355168253 16.801193733188462 #
point $-1 73.823053682058173 45.001039355168253 16.801193733188462 #
loop $-1 $-1 $347 $239 #
plane-surface $-1 0 -45.001039355168253 0 0 1 0 0 0 1 forward_v I I I I #
coedge $-1 $242 $352 $439 $440 forward $148 $-1 #
coedge $-1 $244 $243 $242 $346 reversed $93 $-1 #
edge $-1 $441 -27.813998824688781 $353 -6.5600822362701621 $242 $442 forward 7 unknown #
coedge $-1 $439 $443 $244 $348 forward $342 $-1 #
edge $-1 $350 -19.626405635362641 $441 -0.94975837499181104 $347 $444 forward 7 unknown #
coedge $-1 $250 $245 $443 $445 reversed $240 $-1 #
vertex $-1 $246 $446 #
straight-curve $-1 -73.823053682058173 -17.187040530479472 1.1376392185229913 0 -1 0 I I #
coedge $-1 $344 $247 $250 $356 forward $148 $-1 #
vertex $-1 $248 $447 #
straight-curve $-1 -98.824749790929914 -23.747122766749634 16.801193733188462 -1 0 0 I I #
straight-curve $-1 -73.823053682058173 -23.747122766749634 1.1376392185229918 0.54463902268945019 0 0.83867057594974714 I I #
edge $-1 $251 23.747122766749634 $448 45.001039355168253 $250 $449 forward 7 unknown #
point $-1 -73.823053682058173 -23.747122766749634 16.801193733188462 #
point $-1 -73.823053682058173 -23.747122766749634 1.1376392185229918 #
edge $-1 $450 1 $450 0 $254 $-1 forward 7 unknown #
vertex $-1 $255 $451 #
ellipse-curve $-1 -66.421102425468604 -40.750256037484533 7.4654302296619184 -0.83867057594974714 0 0.54463902268945019 0.54463902268945019 0 0.83867057594974714 1 I I #
point $-1 -68.192399203866742 -40.750256037484533 9.8080870518054653 #
edge $-1 $452 1 $452 0 $258 $-1 forward 7 unknown #
vertex $-1 $259 $453 #
ellipse-curve $-1 -66.421102425468604 -34.374081060958943 7.4654302296619184 -0.83867057594974714 0 0.54463902268945019 0.54463902268945019 0 0.83867057594974714 1 I I #
point $-1 -68.192399203866742 -34.374081060958943 9.8080870518054653 #
edge $-1 $454 1 $454 0 $262 $-1 forward 7 unknown #
vertex $-1 $263 $455 #
ellipse-curve $-1 -66.421102425468604 -27.99790608443336 7.4654302296619184 -0.83867057594974714 0 0.54463902268945019 0.54463902268945019 0 0.83867057594974714 1 I I #
point $-1 -68.192399203866742 -27.99790608443336 9.8080870518054653 #
plane-surface $-1 0 0 16.801193733188462 0 0 1 1 0 0 forward_v I I I I #
coedge $-1 $382 $381 $374 $456 forward $267 $-1 #
coedge $-1 $374 $269 $271 $378 reversed $177 $-1 #
coedge $-1 $269 $373 $372 $456 reversed $177 $-1 #
coedge $-1 $277 $272 $269 $376 forward $278 $-1 #
edge $-1 $379 8.9379368219783828 $457 13.426283482903017 $375 $458 forward 7 unknown #
coedge $-1 $271 $270 $382 $459 reversed $112 $-1 #
edge $-1 $460 -147.64610736411635 $379 -139.17623832692524 $373 $461 forward 7 unknown #
vertex $-1 $273 $462 #
straight-curve $-1 69.334707021133553 -5.6009243675104514 16.801193733188455 0 -1 0 I I #
coedge $-1 $372 $274 $277 $386 reversed $267 $-1 #
coedge $-1 $274 $372 $377 $459 forward $267 $-1 #
vertex $-1 $275 $463 #
straight-curve $-1 73.823053682058173 -1.7763568394002505e-015 106.53492674415189 0 0 1 I I #
straight-curve $-1 -4.4174610267757828 -1.7763568394002505e-015 134.82933877946985 0.52991925155115449 0 -0.84804810408105047 I I #
edge $-1 $457 -22.403697470041806 $279 -1.7763568394002505e-015 $381 $464 forward 7 unknown #
point $-1 73.823053682058173 -1.7763568394002505e-015 16.801193733188462 #
point $-1 69.334707021133539 -1.7763568394002505e-015 16.80119373318847 #
edge $-1 $465 1 $465 0 $282 $-1 forward 7 unknown #
vertex $-1 $283 $466 #
ellipse-curve $-1 70.730832247514826 -16.002641050029858 12.679846292234958 0.84804810408105047 0 0.52991925155115449 0.26495962577557725 0 -0.42402405204052523 1 I I #
point $-1 71.843839977371459 -16.002641050029858 12.785741491745586 #
edge $-1 $467 1 $467 0 $286 $-1 forward 7 unknown #
vertex $-1 $287 $468 #
ellipse-curve $-1 70.730832247514826 -6.4010564200119475 12.679846292234958 0.84804810408105047 0 0.52991925155115449 0.26495962577557725 0 -0.42402405204052523 1 I I #
point $-1 71.843839977371459 -6.4010564200119475 12.785741491745586 #
loop $-1 $-1 $299 $290 #
plane-surface $-1 0 0 16.801193733188462 0 0 1 1 0 0 forward_v I I I I #
coedge $-1 $293 $403 $302 $411 forward $199 $-1 #
edge $-1 $408 139.17623832692524 $404 147.64610736411635 $294 $469 forward 7 unknown #
coedge $-1 $299 $470 $295 $402 forward $397 $-1 #
edge $-1 $405 -13.426283482903017 $408 -8.9379368219783828 $401 $471 forward 7 unknown #
coedge $-1 $399 $296 $470 $472 reversed $199 $-1 #
vertex $-1 $297 $473 #
vertex $-1 $297 $474 #
straight-curve $-1 73.823053682058173 22.403697470041799 106.53492674415189 0 0 1 I I #
coedge $-1 $470 $299 $303 $412 forward $397 $-1 #
vertex $-1 $402 $475 #
straight-curve $-1 69.334707021133553 -5.6009243675104514 16.801193733188455 0 -1 0 I I #
straight-curve $-1 73.823053682058173 -5.6009243675104514 9.6183373543837263 0 1 0 I I #
edge $-1 $476 89.733733010963419 $305 96.916589389768149 $399 $477 forward 7 unknown #
edge $-1 $304 8.9379368219783828 $476 13.426283482903017 $407 $478 forward 7 unknown #
point $-1 69.334707021133539 -1.7763568394002505e-015 16.80119373318847 #
point $-1 73.823053682058159 -1.7763568394002505e-015 9.6183373543837405 #
edge $-1 $479 1 $479 0 $307 $-1 forward 7 unknown #
vertex $-1 $308 $480 #
ellipse-curve $-1 70.730832247514826 6.4010564200119404 12.679846292234958 0.84804810408105047 0 0.52991925155115449 0.26495962577557725 0 -0.42402405204052523 1 I I #
point $-1 71.843839977371459 6.4010564200119404 12.785741491745586 #
edge $-1 $481 1 $481 0 $311 $-1 forward 7 unknown #
vertex $-1 $312 $482 #
ellipse-curve $-1 70.730832247514826 16.002641050029851 12.679846292234958 0.84804810408105047 0 0.52991925155115449 0.26495962577557725 0 -0.42402405204052523 1 I I #
point $-1 71.843839977371459 16.002641050029851 12.785741491745586 #
plane-surface $-1 73.823053682058173 0 0 -1 0 0 0 0 1 forward_v I I I I #
coedge $-1 $320 $318 $322 $428 reversed $221 $-1 #
edge $-1 $333 -16.801193733188462 $430 16.801193733188462 $332 $483 forward 7 unknown #
vertex $-1 $428 $484 #
straight-curve $-1 -73.823053682058173 -45.001039355168253 0 0 0 -1 I I #
edge $-1 $426 -45.001039355168253 $430 45.001039355168253 $424 $485 forward 7 unknown #
straight-curve $-1 0 -45.001039355168253 -16.801193733188462 -1 0 0 I I #
vertex $-1 $325 $486 #
straight-curve $-1 0 45.001039355168253 -16.801193733188462 1 0 0 I I #
point $-1 73.823053682058173 45.001039355168253 -16.801193733188462 #
point $-1 73.823053682058173 -45.001039355168253 -16.801193733188462 #
straight-curve $-1 -73.823053682058173 0 16.801193733188462 0 -1 0 I I #
point $-1 -73.823053682058173 45.001039355168253 16.801193733188462 #
point $-1 -73.823053682058173 -45.001039355168253 16.801193733188462 #
straight-curve $-1 73.823053682058173 -45.001039355168253 0 0 0 -1 I I #
straight-curve $-1 73.823053682058173 45.001039355168253 0 0 0 -1 I I #
coedge $-1 $443 $347 $344 $440 reversed $342 $-1 #
edge $-1 $448 -73.823053682058173 $441 -63.651022771054208 $439 $487 forward 7 unknown #
vertex $-1 $348 $488 #
straight-curve $-1 -63.651022771054201 -17.187040530479472 16.801193733188462 0 1 0 I I #
coedge $-1 $347 $439 $349 $445 forward $342 $-1 #
straight-curve $-1 -63.133747297907547 -45.001039355168253 17.59772813655594 0.54463902268945019 0 0.83867057594974714 I I #
edge $-1 $448 -16.801193733188462 $350 -1.1376392185229918 $349 $489 forward 7 unknown #
point $-1 -73.823053682058173 -45.001039355168253 1.1376392185229918 #
point $-1 -63.651022771054208 -23.747122766749634 16.801193733188462 #
vertex $-1 $356 $490 #
straight-curve $-1 -73.823053682058173 0 16.801193733188462 0 -1 0 I I #
vertex $-1 $359 $491 #
point $-1 -65.876463402779152 -40.750256037484533 8.3041008056116645 #
vertex $-1 $363 $492 #
point $-1 -65.876463402779152 -34.374081060958943 8.3041008056116645 #
vertex $-1 $367 $493 #
point $-1 -65.876463402779152 -27.99790608443336 8.3041008056116645 #
edge $-1 $457 89.733733010963419 $460 96.916589389768149 $372 $494 forward 7 unknown #
vertex $-1 $386 $495 #
straight-curve $-1 60.396770199155156 -22.403697470041806 16.801193733188455 1 0 0 I I #
edge $-1 $460 -16.802773102531354 $383 5.6009243675104496 $382 $496 forward 7 unknown #
vertex $-1 $459 $497 #
straight-curve $-1 -4.4174610267757828 -22.403697470041806 134.82933877946985 -0.52991925155115449 0 0.84804810408105047 I I #
point $-1 69.334707021133539 -22.403697470041806 16.80119373318847 #
point $-1 73.823053682058159 -1.7763568394002505e-015 9.6183373543837405 #
straight-curve $-1 73.823053682058173 0 16.801193733188462 0 1 0 I I #
vertex $-1 $389 $498 #
point $-1 70.995791873290401 -16.002641050029858 12.255822240194432 #
vertex $-1 $393 $499 #
point $-1 70.995791873290401 -6.4010564200119475 12.255822240194432 #
straight-curve $-1 -4.4174610267757828 22.403697470041799 134.82933877946985 0.52991925155115449 0 -0.84804810408105047 I I #
coedge $-1 $401 $407 $403 $472 forward $397 $-1 #
straight-curve $-1 60.396770199155156 22.403697470041799 16.801193733188455 -1 0 0 I I #
edge $-1 $476 -1.7763568394002505e-015 $405 22.403697470041799 $403 $500 forward 7 unknown #
point $-1 73.823053682058159 22.403697470041799 9.6183373543837405 #
point $-1 73.823053682058173 22.403697470041799 16.801193733188462 #
point $-1 69.334707021133539 22.403697470041799 16.80119373318847 #
vertex $-1 $472 $501 #
straight-curve $-1 73.823053682058173 -1.7763568394002505e-015 106.53492674415189 0 0 -1 I I #
straight-curve $-1 60.396770199155156 -1.7763568394002505e-015 16.801193733188455 1 0 0 I I #
vertex $-1 $415 $502 #
point $-1 70.995791873290401 6.4010564200119404 12.255822240194432 #
vertex $-1 $419 $503 #
point $-1 70.995791873290401 16.002641050029851 12.255822240194432 #
straight-curve $-1 -73.823053682058173 45.001039355168253 0 0 0 -1 I I #
point $-1 -73.823053682058173 -45.001039355168253 -16.801193733188462 #
straight-curve $-1 -73.823053682058173 0 -16.801193733188462 0 1 0 I I #
point $-1 -73.823053682058173 45.001039355168253 -16.801193733188462 #
straight-curve $-1 0 -45.001039355168253 16.801193733188462 1 0 0 I I #
point $-1 -63.651022771054208 -45.001039355168253 16.801193733188462 #
straight-curve $-1 -73.823053682058173 -45.001039355168253 0 0 0 -1 I I #
point $-1 -73.823053682058173 -45.001039355168253 16.801193733188462 #
point $-1 -65.582431849518855 -40.750256037484533 6.920791206972468 #
point $-1 -65.582431849518855 -34.374081060958943 6.920791206972468 #
point $-1 -65.582431849518855 -27.99790608443336 6.920791206972468 #
straight-curve $-1 73.823053682058173 -22.403697470041806 106.53492674415189 0 0 -1 I I #
point $-1 73.823053682058173 -22.403697470041806 16.801193733188462 #
straight-curve $-1 73.823053682058173 -5.6009243675104514 9.6183373543837263 0 1 0 I I #
point $-1 73.823053682058159 -22.403697470041806 9.6183373543837405 #
point $-1 70.306808195474304 -16.002641050029858 12.414886666459379 #
point $-1 70.306808195474304 -6.4010564200119475 12.414886666459379 #
straight-curve $-1 73.823053682058173 0 16.801193733188462 0 1 0 I I #
point $-1 73.823053682058173 -1.7763568394002505e-015 16.801193733188462 #
point $-1 70.306808195474304 6.4010564200119404 12.414886666459379 #
point $-1 70.306808195474304 16.002641050029851 12.414886666459379 #
End-of-ACIS-data 