500 0 14 0           
7 Unknown 11 ACIS 5.0 NT 24 Thu Mar 25 19:25:25 1999 
-1 9.9999999999999995e-007 1e-010 
body $-1 $14 $-1 $15 #
body $-1 $16 $-1 $17 #
body $-1 $18 $-1 $19 #
body $-1 $20 $-1 $21 #
body $-1 $22 $-1 $23 #
body $-1 $24 $-1 $25 #
body $-1 $26 $-1 $27 #
body $-1 $28 $-1 $29 #
body $-1 $30 $-1 $31 #
body $-1 $32 $-1 $33 #
body $-1 $34 $-1 $35 #
body $-1 $36 $-1 $37 #
body $-1 $38 $-1 $39 #
body $-1 $40 $-1 $41 #
lump $-1 $-1 $42 $0 #
transform $-1 1 0 0 0 1 0 0 0 1 40.271004364146854 21.13456524697455 4.3894518976946504 1 rotate no_reflect no_shear #
lump $-1 $-1 $43 $1 #
transform $-1 1 0 0 0 1 0 0 0 1 40.271004364146854 21.13456524697455 4.3894518976946504 1 rotate no_reflect no_shear #
lump $-1 $-1 $44 $2 #
transform $-1 1 0 0 0 1 0 0 0 1 40.271004364146854 21.13456524697455 4.3894518976946504 1 rotate no_reflect no_shear #
lump $-1 $-1 $45 $3 #
transform $-1 1 0 0 0 1 0 0 0 1 40.271004364146854 21.13456524697455 4.3894518976946504 1 rotate no_reflect no_shear #
lump $-1 $-1 $46 $4 #
transform $-1 1 0 0 0 1 0 0 0 1 40.271004364146854 21.13456524697455 4.3894518976946504 1 rotate no_reflect no_shear #
lump $-1 $-1 $47 $5 #
transform $-1 1 0 0 0 1 0 0 0 1 40.271004364146854 21.13456524697455 4.3894518976946504 1 rotate no_reflect no_shear #
lump $-1 $-1 $48 $6 #
transform $-1 1 0 0 0 1 0 0 0 1 40.271004364146854 21.13456524697455 4.3894518976946504 1 rotate no_reflect no_shear #
lump $-1 $-1 $49 $7 #
transform $-1 1 0 0 0 1 0 0 0 1 40.271004364146854 21.13456524697455 4.3894518976946504 1 rotate no_reflect no_shear #
lump $-1 $-1 $50 $8 #
transform $-1 1 0 0 0 1 0 0 0 1 40.271004364146854 21.13456524697455 4.3894518976946504 1 rotate no_reflect no_shear #
lump $-1 $-1 $51 $9 #
transform $-1 1 0 0 0 1 0 0 0 1 40.271004364146854 21.13456524697455 4.3894518976946504 1 rotate no_reflect no_shear #
lump $-1 $-1 $52 $10 #
transform $-1 1 0 0 0 1 0 0 0 1 40.271004364146854 21.13456524697455 4.3894518976946504 1 rotate no_reflect no_shear #
lump $-1 $-1 $53 $11 #
transform $-1 1 0 0 0 1 0 0 0 1 40.271004364146854 21.13456524697455 4.3894518976946504 1 rotate no_reflect no_shear #
lump $-1 $-1 $54 $12 #
transform $-1 1 0 0 0 1 0 0 0 1 40.271004364146854 21.13456524697455 4.3894518976946504 1 rotate no_reflect no_shear #
lump $-1 $-1 $55 $13 #
transform $-1 1 0 0 0 1 0 0 0 1 40.271004364146854 21.13456524697455 4.3894518976946504 1 rotate no_reflect no_shear #
shell $-1 $-1 $-1 $56 $-1 $14 #
shell $-1 $-1 $-1 $57 $-1 $16 #
shell $-1 $-1 $-1 $58 $-1 $18 #
shell $-1 $-1 $-1 $59 $-1 $20 #
shell $-1 $-1 $-1 $60 $-1 $22 #
shell $-1 $-1 $-1 $61 $-1 $24 #
shell $-1 $-1 $-1 $62 $-1 $26 #
shell $-1 $-1 $-1 $63 $-1 $28 #
shell $-1 $-1 $-1 $64 $-1 $30 #
shell $-1 $-1 $-1 $65 $-1 $32 #
shell $-1 $-1 $-1 $66 $-1 $34 #
shell $-1 $-1 $-1 $67 $-1 $36 #
shell $-1 $-1 $-1 $68 $-1 $38 #
shell $-1 $-1 $-1 $69 $-1 $40 #
face $-1 $70 $71 $42 $-1 $72 forward single #
face $-1 $73 $74 $43 $-1 $75 reversed single #
face $-1 $76 $77 $44 $-1 $78 reversed single #
face $-1 $79 $80 $45 $-1 $81 forward single #
face $-1 $82 $83 $46 $-1 $84 forward single #
face $-1 $85 $86 $47 $-1 $87 reversed single #
face $-1 $88 $89 $48 $-1 $90 forward single #
face $-1 $91 $92 $49 $-1 $93 forward single #
face $-1 $94 $95 $50 $-1 $96 reversed single #
face $-1 $97 $98 $51 $-1 $99 forward single #
face $-1 $100 $101 $52 $-1 $102 forward single #
face $-1 $103 $104 $53 $-1 $105 reversed single #
face $-1 $106 $107 $54 $-1 $108 forward single #
face $-1 $109 $110 $55 $-1 $111 forward single #
face $-1 $112 $113 $42 $-1 $114 reversed single #
loop $-1 $-1 $115 $56 #
plane-surface $-1 0 0 4.3894518976946504 0 0 1 1 0 0 forward_v I I I I #
face $-1 $116 $117 $43 $-1 $118 reversed single #
loop $-1 $-1 $119 $57 #
plane-surface $-1 -38.574928027697965 0 1.3894518976946504 0 0 1 1 0 0 forward_v I I I I #
face $-1 $120 $121 $44 $-1 $122 reversed single #
loop $-1 $-1 $123 $58 #
plane-surface $-1 -25.561836382460868 -66.17308554446663 67.848182916979283 -1 0 0 0 -0.55919291073839883 0.82903756765294845 forward_v I I I I #
face $-1 $124 $125 $45 $-1 $126 forward single #
loop $-1 $127 $128 $59 #
cone-surface $-1 -33.645418745881017 -17.758374793041412 1.3688805432673228 0 0.55919291073839883 -0.82903756765294845 1 0 0 1 I I 0 1 1 forward I I I I #
face $-1 $129 $130 $46 $-1 $131 forward single #
loop $-1 $132 $133 $60 #
cone-surface $-1 -28.795269327828926 -17.758374793041412 1.3688805432673228 0 0.55919291073839883 -0.82903756765294845 1 0 0 1 I I 0 1 1 forward I I I I #
face $-1 $134 $135 $47 $-1 $136 reversed single #
loop $-1 $-1 $137 $61 #
plane-surface $-1 13.013091645237095 -66.17308554446663 67.848182916979283 -1 0 0 0 -0.55919291073839883 0.82903756765294845 forward_v I I I I #
face $-1 $138 $139 $48 $-1 $140 forward single #
loop $-1 $141 $142 $62 #
cone-surface $-1 4.9295092818169479 -17.758374793041412 1.3688805432673228 0 0.55919291073839883 -0.82903756765294845 1 0 0 1 I I 0 1 1 forward I I I I #
face $-1 $143 $144 $49 $-1 $145 forward single #
loop $-1 $146 $147 $63 #
cone-surface $-1 9.7796586998690387 -17.758374793041412 1.3688805432673228 0 0.55919291073839883 -0.82903756765294845 1 0 0 1 I I 0 1 1 forward I I I I #
face $-1 $148 $149 $50 $-1 $150 reversed single #
loop $-1 $-1 $151 $64 #
plane-surface $-1 -31.220344036854975 -13.908131884534082 24.712430022284735 0 0.55919291073839883 0.82903756765294845 1 0 0 forward_v I I I I #
face $-1 $152 $153 $51 $-1 $154 forward single #
loop $-1 $155 $156 $65 #
cone-surface $-1 -33.645418745881017 17.758374793041408 1.3688805432673254 0 -0.55919291073839883 -0.82903756765294845 1 0 0 1 I I 0 1 1 forward I I I I #
face $-1 $157 $158 $52 $-1 $159 forward single #
loop $-1 $160 $161 $66 #
cone-surface $-1 -28.795269327828926 17.758374793041408 1.3688805432673254 0 -0.55919291073839883 -0.82903756765294845 1 0 0 1 I I 0 1 1 forward I I I I #
face $-1 $162 $163 $53 $-1 $164 reversed single #
loop $-1 $-1 $165 $67 #
plane-surface $-1 1.6960763364488844 31.130388412958002 91.484781032271897 1 0 0 0 -0.55919291073839883 -0.82903756765294845 forward_v I I I I #
face $-1 $166 $167 $54 $-1 $168 forward single #
loop $-1 $169 $170 $68 #
cone-surface $-1 4.9295092818169479 17.758374793041408 1.3688805432673254 0 -0.55919291073839883 -0.82903756765294845 1 0 0 1 I I 0 1 1 forward I I I I #
face $-1 $171 $172 $55 $-1 $173 forward single #
loop $-1 $174 $175 $69 #
cone-surface $-1 9.7796586998690387 17.758374793041408 1.3688805432673254 0 -0.55919291073839883 -0.82903756765294845 1 0 0 1 I I 0 1 1 forward I I I I #
face $-1 $176 $177 $42 $-1 $178 reversed single #
loop $-1 $-1 $179 $70 #
plane-surface $-1 0 0 -4.3894518976946504 0 0 1 1 0 0 forward_v I I I I #
coedge $-1 $180 $181 $182 $183 forward $71 $-1 #
face $-1 $184 $185 $43 $-1 $186 reversed single #
loop $-1 $-1 $187 $73 #
plane-surface $-1 -36.878851691249075 0 2.8894518976946504 -1 0 0 0 0 1 forward_v I I I I #
coedge $-1 $188 $189 $190 $191 forward $74 $-1 #
face $-1 $192 $193 $44 $-1 $194 forward single #
loop $-1 $-1 $195 $76 #
plane-surface $-1 -31.220344036854975 -21.134565246974546 1.0758319069921214 0 -0.55919291073839883 0.82903756765294845 1 0 0 forward_v I I I I #
coedge $-1 $196 $197 $198 $199 reversed $77 $-1 #
face $-1 $-1 $200 $45 $-1 $201 forward single #
loop $-1 $202 $203 $79 #
cone-surface $-1 -33.645418745881017 -16.558909668640389 -0.40939959963521577 0 0.55919291073839883 -0.82903756765294845 0.5 0 0 1 I I -0.70710678118654746 0.70710678118654746 0.5 forward I I I I #
loop $-1 $-1 $204 $59 #
coedge $-1 $128 $128 $205 $206 reversed $80 $-1 #
face $-1 $-1 $207 $46 $-1 $208 forward single #
loop $-1 $209 $210 $82 #
cone-surface $-1 -28.795269327828926 -16.558909668640389 -0.40939959963521577 0 0.55919291073839883 -0.82903756765294845 0.5 0 0 1 I I -0.70710678118654746 0.70710678118654746 0.5 forward I I I I #
loop $-1 $-1 $211 $60 #
coedge $-1 $133 $133 $212 $213 reversed $83 $-1 #
face $-1 $214 $215 $47 $-1 $216 reversed single #
loop $-1 $-1 $217 $85 #
plane-surface $-1 7.3545839908429897 -21.134565246974546 1.0758319069921214 0 -0.55919291073839883 0.82903756765294845 1 0 0 forward_v I I I I #
coedge $-1 $218 $219 $220 $221 reversed $86 $-1 #
face $-1 $-1 $222 $48 $-1 $223 forward single #
loop $-1 $224 $225 $88 #
cone-surface $-1 4.9295092818169479 -16.558909668640389 -0.40939959963521577 0 0.55919291073839883 -0.82903756765294845 0.5 0 0 1 I I -0.70710678118654746 0.70710678118654746 0.5 forward I I I I #
loop $-1 $-1 $226 $62 #
coedge $-1 $142 $142 $227 $228 reversed $89 $-1 #
face $-1 $-1 $229 $49 $-1 $230 forward single #
loop $-1 $231 $232 $91 #
cone-surface $-1 9.7796586998690387 -16.558909668640389 -0.40939959963521577 0 0.55919291073839883 -0.82903756765294845 0.5 0 0 1 I I -0.70710678118654746 0.70710678118654746 0.5 forward I I I I #
loop $-1 $-1 $233 $63 #
coedge $-1 $147 $147 $234 $235 reversed $92 $-1 #
face $-1 $236 $237 $50 $-1 $238 forward single #
loop $-1 $-1 $239 $94 #
plane-surface $-1 -25.561836382460868 31.130388412958002 91.484781032271897 -1 0 0 0 0.55919291073839883 0.82903756765294845 forward_v I I I I #
coedge $-1 $240 $241 $242 $243 reversed $95 $-1 #
face $-1 $-1 $244 $51 $-1 $245 forward single #
loop $-1 $246 $247 $97 #
cone-surface $-1 -33.645418745881017 16.558909668640386 -0.40939959963521311 0 -0.55919291073839883 -0.82903756765294845 0.5 0 0 1 I I -0.70710678118654746 0.70710678118654746 0.5 forward I I I I #
loop $-1 $-1 $248 $65 #
coedge $-1 $156 $156 $249 $250 reversed $98 $-1 #
face $-1 $-1 $251 $52 $-1 $252 forward single #
loop $-1 $253 $254 $100 #
cone-surface $-1 -28.795269327828926 16.558909668640386 -0.40939959963521311 0 -0.55919291073839883 -0.82903756765294845 0.5 0 0 1 I I -0.70710678118654746 0.70710678118654746 0.5 forward I I I I #
loop $-1 $-1 $255 $66 #
coedge $-1 $161 $161 $256 $257 reversed $101 $-1 #
face $-1 $258 $259 $53 $-1 $260 reversed single #
loop $-1 $-1 $261 $103 #
plane-surface $-1 7.3545839908429897 -13.908131884534082 24.712430022284735 0 0.55919291073839883 0.82903756765294845 1 0 0 forward_v I I I I #
coedge $-1 $262 $263 $264 $265 reversed $104 $-1 #
face $-1 $-1 $266 $54 $-1 $267 forward single #
loop $-1 $268 $269 $106 #
cone-surface $-1 4.9295092818169479 16.558909668640386 -0.40939959963521311 0 -0.55919291073839883 -0.82903756765294845 0.5 0 0 1 I I -0.70710678118654746 0.70710678118654746 0.5 forward I I I I #
loop $-1 $-1 $270 $68 #
coedge $-1 $170 $170 $271 $272 reversed $107 $-1 #
face $-1 $-1 $273 $55 $-1 $274 forward single #
loop $-1 $275 $276 $109 #
cone-surface $-1 9.7796586998690387 16.558909668640386 -0.40939959963521311 0 -0.55919291073839883 -0.82903756765294845 0.5 0 0 1 I I -0.70710678118654746 0.70710678118654746 0.5 forward I I I I #
loop $-1 $-1 $277 $69 #
coedge $-1 $175 $175 $278 $279 reversed $110 $-1 #
face $-1 $280 $281 $42 $-1 $282 reversed single #
loop $-1 $-1 $283 $112 #
plane-surface $-1 0 -21.13456524697455 0 0 1 0 0 0 1 forward_v I I I I #
coedge $-1 $284 $285 $286 $287 forward $113 $-1 #
coedge $-1 $288 $115 $289 $290 forward $71 $-1 #
coedge $-1 $115 $288 $291 $292 forward $71 $-1 #
coedge $-1 $293 $294 $115 $183 reversed $295 $-1 #
edge $-1 $296 -21.13456524697455 $297 21.13456524697455 $182 $298 forward 7 unknown #
face $-1 $299 $300 $43 $-1 $301 reversed single #
loop $-1 $-1 $302 $116 #
plane-surface $-1 0 21.13456524697455 0 0 -1 0 0 0 -1 forward_v I I I I #
coedge $-1 $303 $304 $305 $306 reversed $117 $-1 #
coedge $-1 $307 $119 $308 $309 reversed $74 $-1 #
coedge $-1 $119 $307 $310 $311 reversed $74 $-1 #
coedge $-1 $304 $303 $119 $191 reversed $117 $-1 #
edge $-1 $312 -21.13456524697455 $313 21.13456524697455 $190 $314 forward 7 unknown #
face $-1 $315 $316 $44 $-1 $317 forward single #
loop $-1 $-1 $318 $120 #
plane-surface $-1 -36.878851691249075 0 2.8894518976946504 -1 0 0 0 0 1 forward_v I I I I #
coedge $-1 $319 $320 $321 $322 reversed $121 $-1 #
coedge $-1 $197 $123 $323 $324 reversed $77 $-1 #
coedge $-1 $123 $196 $319 $325 reversed $77 $-1 #
coedge $-1 $321 $326 $123 $199 forward $316 $-1 #
edge $-1 $327 11.951977525258766 $328 16.864621095061398 $198 $329 forward 7 unknown #
loop $-1 $-1 $205 $124 #
plane-surface $-1 -31.220344036854975 -21.134565246974546 1.0758319069921214 0 -0.55919291073839883 0.82903756765294845 1 0 0 forward_v I I I I #
loop $-1 $-1 $330 $79 #
coedge $-1 $203 $203 $204 $331 reversed $125 $-1 #
coedge $-1 $204 $204 $203 $331 forward $127 $-1 #
coedge $-1 $205 $205 $128 $206 forward $200 $-1 #
edge $-1 $332 -1.4553438795386929e-015 $332 6.2831853071795987 $205 $333 forward 7 unknown #
loop $-1 $-1 $212 $129 #
plane-surface $-1 -31.220344036854975 -21.134565246974546 1.0758319069921214 0 -0.55919291073839883 0.82903756765294845 1 0 0 forward_v I I I I #
loop $-1 $-1 $334 $82 #
coedge $-1 $210 $210 $211 $335 reversed $130 $-1 #
coedge $-1 $211 $211 $210 $335 forward $132 $-1 #
coedge $-1 $212 $212 $133 $213 forward $207 $-1 #
edge $-1 $336 -1.4553438795386929e-015 $336 6.2831853071795987 $212 $337 forward 7 unknown #
face $-1 $338 $339 $47 $-1 $340 reversed single #
loop $-1 $-1 $341 $134 #
plane-surface $-1 1.6960763364488844 -66.17308554446663 67.848182916979283 1 0 0 0 0.55919291073839883 -0.82903756765294845 forward_v I I I I #
coedge $-1 $342 $343 $344 $345 reversed $135 $-1 #
coedge $-1 $219 $137 $346 $347 reversed $86 $-1 #
coedge $-1 $137 $218 $342 $348 reversed $86 $-1 #
coedge $-1 $344 $349 $137 $221 forward $350 $-1 #
edge $-1 $351 11.951977525258766 $352 16.864621095061398 $220 $353 forward 7 unknown #
loop $-1 $-1 $227 $138 #
plane-surface $-1 7.3545839908429897 -21.134565246974546 1.0758319069921214 0 -0.55919291073839883 0.82903756765294845 1 0 0 forward_v I I I I #
loop $-1 $-1 $354 $88 #
coedge $-1 $225 $225 $226 $355 reversed $139 $-1 #
coedge $-1 $226 $226 $225 $355 forward $141 $-1 #
coedge $-1 $227 $227 $142 $228 forward $222 $-1 #
edge $-1 $356 -1.4553438795386929e-015 $356 6.2831853071795987 $227 $357 forward 7 unknown #
loop $-1 $-1 $234 $143 #
plane-surface $-1 7.3545839908429897 -21.134565246974546 1.0758319069921214 0 -0.55919291073839883 0.82903756765294845 1 0 0 forward_v I I I I #
loop $-1 $-1 $358 $91 #
coedge $-1 $232 $232 $233 $359 reversed $144 $-1 #
coedge $-1 $233 $233 $232 $359 forward $146 $-1 #
coedge $-1 $234 $234 $147 $235 forward $229 $-1 #
edge $-1 $360 -1.4553438795386929e-015 $360 6.2831853071795987 $234 $361 forward 7 unknown #
face $-1 $362 $363 $50 $-1 $364 reversed single #
loop $-1 $-1 $242 $148 #
plane-surface $-1 0 0 4.3894518976946504 0 0 1 1 0 0 forward_v I I I I #
coedge $-1 $365 $366 $367 $368 reversed $149 $-1 #
coedge $-1 $369 $151 $370 $371 reversed $95 $-1 #
coedge $-1 $151 $369 $365 $372 forward $95 $-1 #
coedge $-1 $367 $373 $151 $243 forward $237 $-1 #
edge $-1 $374 -21.268679672821595 $375 -9.9516643640333804 $242 $376 forward 7 unknown #
loop $-1 $-1 $249 $152 #
plane-surface $-1 -31.220344036854975 -13.908131884534082 24.712430022284735 0 0.55919291073839883 0.82903756765294845 1 0 0 forward_v I I I I #
loop $-1 $-1 $377 $97 #
coedge $-1 $247 $247 $248 $378 reversed $153 $-1 #
coedge $-1 $248 $248 $247 $378 forward $155 $-1 #
coedge $-1 $249 $249 $156 $250 forward $244 $-1 #
edge $-1 $379 0 $379 6.2831853071796004 $249 $380 forward 7 unknown #
loop $-1 $-1 $256 $157 #
plane-surface $-1 -31.220344036854975 -13.908131884534082 24.712430022284735 0 0.55919291073839883 0.82903756765294845 1 0 0 forward_v I I I I #
loop $-1 $-1 $381 $100 #
coedge $-1 $254 $254 $255 $382 reversed $158 $-1 #
coedge $-1 $255 $255 $254 $382 forward $160 $-1 #
coedge $-1 $256 $256 $161 $257 forward $251 $-1 #
edge $-1 $383 0 $383 6.2831853071796004 $256 $384 forward 7 unknown #
face $-1 $385 $386 $53 $-1 $387 forward single #
loop $-1 $-1 $388 $162 #
plane-surface $-1 13.013091645237095 31.130388412958002 91.484781032271897 -1 0 0 0 0.55919291073839883 0.82903756765294845 forward_v I I I I #
coedge $-1 $389 $390 $391 $392 reversed $163 $-1 #
coedge $-1 $263 $165 $393 $394 reversed $104 $-1 #
coedge $-1 $165 $262 $389 $395 reversed $104 $-1 #
coedge $-1 $391 $396 $165 $265 forward $386 $-1 #
edge $-1 $397 -5.5693710404955485 $398 -0.65672747069293003 $264 $399 forward 7 unknown #
loop $-1 $-1 $271 $166 #
plane-surface $-1 7.3545839908429897 -13.908131884534082 24.712430022284735 0 0.55919291073839883 0.82903756765294845 1 0 0 forward_v I I I I #
loop $-1 $-1 $400 $106 #
coedge $-1 $269 $269 $270 $401 reversed $167 $-1 #
coedge $-1 $270 $270 $269 $401 forward $169 $-1 #
coedge $-1 $271 $271 $170 $272 forward $266 $-1 #
edge $-1 $402 0 $402 6.2831853071796004 $271 $403 forward 7 unknown #
loop $-1 $-1 $278 $171 #
plane-surface $-1 7.3545839908429897 -13.908131884534082 24.712430022284735 0 0.55919291073839883 0.82903756765294845 1 0 0 forward_v I I I I #
loop $-1 $-1 $404 $109 #
coedge $-1 $276 $276 $277 $405 reversed $172 $-1 #
coedge $-1 $277 $277 $276 $405 forward $174 $-1 #
coedge $-1 $278 $278 $175 $279 forward $273 $-1 #
edge $-1 $406 0 $406 6.2831853071796004 $278 $407 forward 7 unknown #
face $-1 $408 $409 $42 $-1 $410 reversed single #
loop $-1 $-1 $411 $176 #
plane-surface $-1 -40.271004364146854 0 0 1 0 0 0 0 -1 forward_v I I I I #
coedge $-1 $412 $291 $413 $414 forward $177 $-1 #
coedge $-1 $415 $179 $412 $416 forward $113 $-1 #
coedge $-1 $179 $415 $417 $418 forward $113 $-1 #
coedge $-1 $294 $293 $179 $287 reversed $295 $-1 #
edge $-1 $419 -21.13456524697455 $420 21.13456524697455 $286 $421 forward 7 unknown #
coedge $-1 $181 $180 $422 $423 forward $71 $-1 #
coedge $-1 $424 $425 $180 $290 reversed $409 $-1 #
edge $-1 $297 -40.271004364146854 $426 40.271004364146854 $289 $427 forward 7 unknown #
coedge $-1 $283 $428 $181 $292 reversed $177 $-1 #
edge $-1 $429 -40.271004364146854 $296 40.271004364146854 $291 $430 forward 7 unknown #
coedge $-1 $286 $182 $428 $431 forward $295 $-1 #
coedge $-1 $182 $286 $424 $432 reversed $295 $-1 #
loop $-1 $-1 $293 $408 #
vertex $-1 $183 $433 #
vertex $-1 $183 $434 #
straight-curve $-1 40.271004364146854 0 4.3894518976946504 0 1 0 I I #
face $-1 $435 $436 $43 $-1 $437 forward single #
loop $-1 $-1 $438 $184 #
plane-surface $-1 -40.271004364146854 0 0 1 0 0 0 0 -1 forward_v I I I I #
coedge $-1 $310 $439 $304 $440 forward $185 $-1 #
coedge $-1 $190 $187 $441 $442 reversed $117 $-1 #
coedge $-1 $187 $190 $302 $440 reversed $117 $-1 #
coedge $-1 $443 $444 $187 $306 forward $436 $-1 #
edge $-1 $445 -21.13456524697455 $446 21.13456524697455 $305 $447 forward 7 unknown #
coedge $-1 $189 $188 $438 $448 reversed $74 $-1 #
coedge $-1 $441 $449 $188 $309 forward $450 $-1 #
edge $-1 $451 -20.983540350297872 $313 -17.591387677400093 $308 $452 forward 7 unknown #
coedge $-1 $453 $302 $189 $311 forward $185 $-1 #
edge $-1 $312 17.591387677400093 $454 20.983540350297872 $310 $455 forward 7 unknown #
vertex $-1 $311 $456 #
vertex $-1 $309 $457 #
straight-curve $-1 -36.878851691249075 0 1.3894518976946504 0 -1 0 I I #
face $-1 $-1 $458 $44 $-1 $459 reversed single #
loop $-1 $-1 $321 $192 #
plane-surface $-1 0 0 4.3894518976946504 0 0 1 1 0 0 forward_v I I I I #
coedge $-1 $460 $461 $320 $462 reversed $193 $-1 #
coedge $-1 $463 $195 $197 $325 forward $121 $-1 #
coedge $-1 $195 $463 $318 $462 forward $121 $-1 #
coedge $-1 $464 $198 $195 $322 forward $316 $-1 #
edge $-1 $328 9.9516643640333804 $465 21.268679672821587 $321 $466 forward 7 unknown #
coedge $-1 $467 $468 $196 $324 forward $458 $-1 #
edge $-1 $469 -32.84825955149752 $327 -29.534639560794993 $323 $470 forward 7 unknown #
edge $-1 $328 -5.9257188835369625 $469 4.3111565651997722e-015 $197 $471 forward 7 unknown #
coedge $-1 $198 $464 $467 $472 forward $316 $-1 #
vertex $-1 $324 $473 #
vertex $-1 $199 $474 #
straight-curve $-1 -25.561836382460868 -33.086542772233315 4.3894518976946486 0 1 0 I I #
coedge $-1 $330 $330 $-1 $475 reversed $202 $-1 #
edge $-1 $476 0 $476 6.2831853071796004 $203 $477 forward 7 unknown #
vertex $-1 $206 $478 #
ellipse-curve $-1 -33.645418745881017 -18.678243462073233 2.7326419023433841 0 -0.55919291073839883 0.82903756765294845 1 0 0 1 I I #
coedge $-1 $334 $334 $-1 $479 reversed $209 $-1 #
edge $-1 $480 0 $480 6.2831853071796004 $210 $481 forward 7 unknown #
vertex $-1 $213 $482 #
ellipse-curve $-1 -28.795269327828926 -18.678243462073233 2.7326419023433841 0 -0.55919291073839883 0.82903756765294845 1 0 0 1 I I #
face $-1 $-1 $350 $47 $-1 $483 forward single #
loop $-1 $-1 $484 $214 #
plane-surface $-1 0 -21.13456524697455 0 0 1 0 0 0 1 forward_v I I I I #
coedge $-1 $485 $486 $487 $488 reversed $215 $-1 #
coedge $-1 $489 $217 $219 $348 forward $135 $-1 #
coedge $-1 $217 $489 $485 $490 forward $135 $-1 #
coedge $-1 $487 $220 $217 $345 forward $350 $-1 #
edge $-1 $352 -9.3357996498156002 $491 1.9812156589726104 $344 $492 forward 7 unknown #
coedge $-1 $493 $494 $218 $347 forward $339 $-1 #
edge $-1 $495 -32.84825955149752 $351 -29.534639560794993 $346 $496 forward 7 unknown #
edge $-1 $352 -5.9257188835369625 $495 4.3111565651997722e-015 $219 $497 forward 7 unknown #
coedge $-1 $220 $487 $493 $498 forward $350 $-1 #
loop $-1 $-1 $487 $338 #
vertex $-1 $347 $499 #
vertex $-1 $221 $500 #
straight-curve $-1 13.013091645237095 -33.086542772233315 4.3894518976946486 0 1 0 I I #
coedge $-1 $354 $354 $-1 $501 reversed $224 $-1 #
edge $-1 $502 0 $502 6.2831853071796004 $225 $503 forward 7 unknown #
vertex $-1 $228 $504 #
ellipse-curve $-1 4.9295092818169479 -18.678243462073233 2.7326419023433841 0 -0.55919291073839883 0.82903756765294845 1 0 0 1 I I #
coedge $-1 $358 $358 $-1 $505 reversed $231 $-1 #
edge $-1 $506 0 $506 6.2831853071796004 $232 $507 forward 7 unknown #
vertex $-1 $235 $508 #
ellipse-curve $-1 9.7796586998690387 -18.678243462073233 2.7326419023433841 0 -0.55919291073839883 0.82903756765294845 1 0 0 1 I I #
face $-1 $-1 $509 $50 $-1 $510 forward single #
loop $-1 $-1 $511 $236 #
plane-surface $-1 0 21.13456524697455 0 0 -1 0 0 0 -1 forward_v I I I I #
coedge $-1 $366 $239 $241 $372 reversed $149 $-1 #
coedge $-1 $239 $365 $511 $512 reversed $149 $-1 #
coedge $-1 $513 $242 $239 $368 forward $237 $-1 #
edge $-1 $375 0.65672747069293003 $514 5.5693710404955485 $367 $515 forward 7 unknown #
coedge $-1 $241 $240 $516 $517 reversed $95 $-1 #
coedge $-1 $518 $519 $240 $371 forward $509 $-1 #
edge $-1 $520 -30.402321250638849 $374 -24.476602367101901 $370 $521 forward 7 unknown #
edge $-1 $522 -42.269130493949099 $375 -36.343411610412147 $365 $523 forward 7 unknown #
coedge $-1 $242 $513 $518 $524 forward $237 $-1 #
vertex $-1 $371 $525 #
vertex $-1 $243 $526 #
straight-curve $-1 -15.610172018427487 16.221921677171927 4.3894518976946486 1 0 0 I I #
coedge $-1 $377 $377 $-1 $527 reversed $246 $-1 #
edge $-1 $528 0 $528 6.2831853071796004 $247 $529 forward 7 unknown #
vertex $-1 $250 $530 #
ellipse-curve $-1 -33.645418745881017 18.678243462073233 2.7326419023433894 0 0.55919291073839883 0.82903756765294845 1 0 0 1 I I #
coedge $-1 $381 $381 $-1 $531 reversed $253 $-1 #
edge $-1 $532 0 $532 6.2831853071796004 $254 $533 forward 7 unknown #
vertex $-1 $257 $534 #
ellipse-curve $-1 -28.795269327828926 18.678243462073233 2.7326419023433894 0 0.55919291073839883 0.82903756765294845 1 0 0 1 I I #
face $-1 $-1 $535 $53 $-1 $536 reversed single #
loop $-1 $-1 $264 $258 #
plane-surface $-1 0 0 4.3894518976946504 0 0 1 1 0 0 forward_v I I I I #
coedge $-1 $537 $538 $539 $540 reversed $259 $-1 #
coedge $-1 $541 $261 $263 $395 forward $163 $-1 #
coedge $-1 $261 $541 $537 $542 forward $163 $-1 #
coedge $-1 $539 $264 $261 $392 forward $386 $-1 #
edge $-1 $398 -1.9812156589726104 $543 9.3357996498156002 $391 $544 forward 7 unknown #
coedge $-1 $545 $546 $262 $394 forward $535 $-1 #
edge $-1 $547 -44.66655860914382 $397 -41.3529386184413 $393 $548 forward 7 unknown #
edge $-1 $398 36.343411610412147 $547 42.269130493949099 $263 $549 forward 7 unknown #
coedge $-1 $264 $539 $545 $550 forward $386 $-1 #
vertex $-1 $265 $551 #
vertex $-1 $265 $552 #
straight-curve $-1 1.6960763364488844 15.565194206479001 4.3894518976946486 0 -1 0 I I #
coedge $-1 $400 $400 $-1 $553 reversed $268 $-1 #
edge $-1 $554 0 $554 6.2831853071796004 $269 $555 forward 7 unknown #
vertex $-1 $272 $556 #
ellipse-curve $-1 4.9295092818169479 18.678243462073233 2.7326419023433894 0 0.55919291073839883 0.82903756765294845 1 0 0 1 I I #
coedge $-1 $404 $404 $-1 $557 reversed $275 $-1 #
edge $-1 $558 0 $558 6.2831853071796004 $276 $559 forward 7 unknown #
vertex $-1 $279 $560 #
ellipse-curve $-1 9.7796586998690387 18.678243462073233 2.7326419023433894 0 0.55919291073839883 0.82903756765294845 1 0 0 1 I I #
face $-1 $-1 $295 $42 $-1 $561 reversed single #
loop $-1 $-1 $424 $280 #
plane-surface $-1 0 21.13456524697455 0 0 -1 0 0 0 -1 forward_v I I I I #
coedge $-1 $562 $422 $425 $563 forward $281 $-1 #
coedge $-1 $428 $283 $284 $416 reversed $177 $-1 #
coedge $-1 $422 $562 $283 $414 reversed $281 $-1 #
edge $-1 $429 -4.3894518976946504 $564 4.3894518976946504 $413 $565 forward 7 unknown #
coedge $-1 $285 $284 $562 $566 forward $113 $-1 #
edge $-1 $420 -40.271004364146854 $564 40.271004364146854 $412 $567 forward 7 unknown #
coedge $-1 $425 $424 $285 $418 reversed $409 $-1 #
edge $-1 $568 -40.271004364146854 $419 40.271004364146854 $417 $569 forward 7 unknown #
vertex $-1 $287 $570 #
vertex $-1 $431 $571 #
straight-curve $-1 40.271004364146854 0 -4.3894518976946504 0 -1 0 I I #
coedge $-1 $411 $413 $288 $423 reversed $281 $-1 #
edge $-1 $426 -21.13456524697455 $429 21.13456524697455 $422 $572 forward 7 unknown #
coedge $-1 $417 $289 $294 $432 forward $409 $-1 #
coedge $-1 $289 $417 $411 $563 reversed $409 $-1 #
vertex $-1 $290 $573 #
straight-curve $-1 0 21.13456524697455 4.3894518976946504 -1 0 0 I I #
coedge $-1 $291 $412 $293 $431 reversed $177 $-1 #
vertex $-1 $423 $574 #
straight-curve $-1 0 -21.13456524697455 4.3894518976946504 1 0 0 I I #
edge $-1 $296 -4.3894518976946504 $420 4.3894518976946504 $293 $575 forward 7 unknown #
edge $-1 $297 -4.3894518976946504 $419 4.3894518976946504 $294 $576 forward 7 unknown #
point $-1 40.271004364146854 -21.13456524697455 4.3894518976946504 #
point $-1 40.271004364146854 21.13456524697455 4.3894518976946504 #
face $-1 $-1 $450 $43 $-1 $577 reversed single #
loop $-1 $-1 $305 $299 #
plane-surface $-1 0 0 4.3894518976946504 0 0 1 1 0 0 forward_v I I I I #
coedge $-1 $578 $579 $307 $448 forward $300 $-1 #
coedge $-1 $302 $453 $443 $580 reversed $185 $-1 #
edge $-1 $446 -2.9447259488473252 $312 0.055274051152674808 $302 $581 forward 7 unknown #
coedge $-1 $582 $308 $303 $442 forward $450 $-1 #
edge $-1 $313 -0.055274051152674808 $445 2.9447259488473252 $441 $583 forward 7 unknown #
coedge $-1 $584 $305 $439 $580 forward $436 $-1 #
coedge $-1 $305 $584 $582 $585 forward $436 $-1 #
vertex $-1 $442 $586 #
vertex $-1 $580 $587 #
straight-curve $-1 -36.878851691249075 0 4.3894518976946504 0 1 0 I I #
edge $-1 $454 -21.13456524697455 $451 21.13456524697455 $438 $588 forward 7 unknown #
coedge $-1 $308 $582 $578 $589 forward $450 $-1 #
loop $-1 $-1 $441 $435 #
vertex $-1 $448 $590 #
straight-curve $-1 -19.287464013848982 -21.13456524697455 1.3894518976946504 1 0 0 I I #
coedge $-1 $439 $310 $579 $591 reversed $185 $-1 #
vertex $-1 $448 $592 #
straight-curve $-1 -19.287464013848982 21.13456524697455 1.3894518976946504 -1 0 0 I I #
point $-1 -36.878851691249075 21.13456524697455 1.3894518976946504 #
point $-1 -36.878851691249075 -21.13456524697455 1.3894518976946504 #
loop $-1 $-1 $323 $315 #
plane-surface $-1 0 -21.13456524697455 0 0 1 0 0 0 1 forward_v I I I I #
coedge $-1 $461 $318 $593 $594 reversed $193 $-1 #
coedge $-1 $318 $460 $464 $595 reversed $193 $-1 #
edge $-1 $596 -4.3111565651997722e-015 $465 5.9257188835369625 $318 $597 forward 7 unknown #
coedge $-1 $320 $319 $468 $598 reversed $121 $-1 #
coedge $-1 $326 $321 $461 $595 forward $316 $-1 #
vertex $-1 $595 $599 #
straight-curve $-1 -15.610172018427487 -16.221921677171917 4.3894518976946504 -1 0 0 I I #
coedge $-1 $593 $323 $326 $472 reversed $458 $-1 #
coedge $-1 $323 $593 $463 $598 forward $458 $-1 #
vertex $-1 $324 $600 #
straight-curve $-1 -25.561836382460868 -21.13456524697455 33.924091458489642 0 0 1 I I #
straight-curve $-1 -25.561836382460868 -21.134565246974546 1.0758319069921214 0 -0.82903756765294845 -0.55919291073839883 I I #
edge $-1 $601 -36.878851691249075 $327 -25.561836382460868 $467 $602 forward 7 unknown #
point $-1 -25.561836382460868 -21.13456524697455 4.3894518976946504 #
point $-1 -25.561836382460868 -16.221921677171917 4.3894518976946504 #
edge $-1 $603 1 $603 0 $330 $-1 forward 7 unknown #
vertex $-1 $331 $604 #
ellipse-curve $-1 -33.645418745881017 -16.838506124009587 0.0051191841912584524 0 -0.55919291073839883 0.82903756765294845 1 0 0 1 I I #
point $-1 -32.645418745881017 -18.678243462073237 2.7326419023433868 #
edge $-1 $605 1 $605 0 $334 $-1 forward 7 unknown #
vertex $-1 $335 $606 #
ellipse-curve $-1 -28.795269327828926 -16.838506124009587 0.0051191841912584524 0 -0.55919291073839883 0.82903756765294845 1 0 0 1 I I #
point $-1 -27.795269327828926 -18.678243462073237 2.7326419023433868 #
plane-surface $-1 0 0 4.3894518976946504 0 0 1 1 0 0 forward_v I I I I #
coedge $-1 $494 $493 $486 $607 forward $339 $-1 #
coedge $-1 $486 $341 $343 $490 reversed $215 $-1 #
coedge $-1 $341 $485 $484 $607 reversed $215 $-1 #
coedge $-1 $349 $344 $341 $488 forward $350 $-1 #
edge $-1 $491 -16.864621095061398 $608 -11.951977525258766 $487 $609 forward 7 unknown #
coedge $-1 $343 $342 $494 $610 reversed $135 $-1 #
edge $-1 $611 -4.3111565651997722e-015 $491 5.9257188835369625 $485 $612 forward 7 unknown #
vertex $-1 $345 $613 #
straight-curve $-1 3.6772919954214949 -16.221921677171917 4.3894518976946504 -1 0 0 I I #
coedge $-1 $484 $346 $349 $498 reversed $339 $-1 #
coedge $-1 $346 $484 $489 $610 forward $339 $-1 #
vertex $-1 $347 $614 #
straight-curve $-1 13.013091645237095 -21.13456524697455 33.924091458489642 0 0 1 I I #
straight-curve $-1 13.013091645237095 -21.134565246974546 1.0758319069921214 0 -0.82903756765294845 -0.55919291073839883 I I #
edge $-1 $608 1.6960763364488844 $351 13.013091645237095 $493 $615 forward 7 unknown #
point $-1 13.013091645237095 -21.13456524697455 4.3894518976946504 #
point $-1 13.013091645237095 -16.221921677171917 4.3894518976946504 #
edge $-1 $616 1 $616 0 $354 $-1 forward 7 unknown #
vertex $-1 $355 $617 #
ellipse-curve $-1 4.9295092818169479 -16.838506124009587 0.0051191841912584524 0 -0.55919291073839883 0.82903756765294845 1 0 0 1 I I #
point $-1 5.9295092818169479 -18.678243462073237 2.7326419023433868 #
edge $-1 $618 1 $618 0 $358 $-1 forward 7 unknown #
vertex $-1 $359 $619 #
ellipse-curve $-1 9.7796586998690387 -16.838506124009587 0.0051191841912584524 0 -0.55919291073839883 0.82903756765294845 1 0 0 1 I I #
point $-1 10.779658699869039 -18.678243462073237 2.7326419023433868 #
loop $-1 $-1 $370 $362 #
plane-surface $-1 -36.878851691249075 0 2.8894518976946504 -1 0 0 0 0 1 forward_v I I I I #
coedge $-1 $516 $620 $366 $512 forward $363 $-1 #
edge $-1 $514 41.3529386184413 $522 44.66655860914382 $511 $621 forward 7 unknown #
coedge $-1 $373 $367 $620 $622 forward $237 $-1 #
vertex $-1 $622 $623 #
straight-curve $-1 -25.561836382460868 15.565194206479001 4.3894518976946486 0 1 0 I I #
coedge $-1 $624 $511 $369 $517 forward $363 $-1 #
edge $-1 $522 9.9516643640333804 $520 21.268679672821595 $516 $625 forward 7 unknown #
coedge $-1 $519 $370 $373 $524 reversed $509 $-1 #
coedge $-1 $370 $518 $624 $626 reversed $509 $-1 #
vertex $-1 $626 $627 #
straight-curve $-1 -36.878851691249075 -4.0701012136586314 18.076594420340744 0 -0.82903756765294845 0.55919291073839883 I I #
vertex $-1 $517 $628 #
straight-curve $-1 -25.561836382460868 -13.908131884534082 24.712430022284735 0 -0.82903756765294845 0.55919291073839883 I I #
edge $-1 $629 -21.13456524697455 $374 -16.221921677171931 $373 $630 forward 7 unknown #
point $-1 -36.878851691249082 16.221921677171931 4.3894518976946486 #
point $-1 -25.561836382460868 16.221921677171931 4.3894518976946486 #
edge $-1 $631 1 $631 0 $377 $-1 forward 7 unknown #
vertex $-1 $378 $632 #
ellipse-curve $-1 -33.645418745881017 16.838506124009584 0.0051191841912611169 0 0.55919291073839883 0.82903756765294845 1 0 0 1 I I #
point $-1 -32.645418745881017 18.678243462073233 2.7326419023433894 #
edge $-1 $633 1 $633 0 $381 $-1 forward 7 unknown #
vertex $-1 $382 $634 #
ellipse-curve $-1 -28.795269327828926 16.838506124009584 0.0051191841912611169 0 0.55919291073839883 0.82903756765294845 1 0 0 1 I I #
point $-1 -27.795269327828926 18.678243462073233 2.7326419023433894 #
loop $-1 $-1 $393 $385 #
plane-surface $-1 0 21.13456524697455 0 0 -1 0 0 0 -1 forward_v I I I I #
coedge $-1 $538 $388 $390 $542 reversed $259 $-1 #
coedge $-1 $388 $537 $635 $636 reversed $259 $-1 #
coedge $-1 $396 $391 $388 $540 forward $386 $-1 #
edge $-1 $543 0.65672747069293003 $637 5.5693710404955485 $539 $638 forward 7 unknown #
coedge $-1 $390 $389 $546 $639 reversed $163 $-1 #
edge $-1 $640 -42.269130493949099 $543 -36.343411610412147 $537 $641 forward 7 unknown #
vertex $-1 $392 $642 #
straight-curve $-1 3.6772919954214949 16.221921677171927 4.3894518976946486 1 0 0 I I #
coedge $-1 $635 $393 $396 $550 reversed $535 $-1 #
coedge $-1 $393 $635 $541 $639 forward $535 $-1 #
vertex $-1 $394 $643 #
straight-curve $-1 1.6960763364488844 21.13456524697455 45.742390516135949 0 0 1 I I #
straight-curve $-1 1.6960763364488844 -13.908131884534082 24.712430022284735 0 0.82903756765294845 -0.55919291073839883 I I #
edge $-1 $637 -13.013091645237095 $397 -1.6960763364488844 $545 $644 forward 7 unknown #
point $-1 1.6960763364488844 21.13456524697455 4.3894518976946504 #
point $-1 1.6960763364488844 16.221921677171931 4.3894518976946486 #
edge $-1 $645 1 $645 0 $400 $-1 forward 7 unknown #
vertex $-1 $401 $646 #
ellipse-curve $-1 4.9295092818169479 16.838506124009584 0.0051191841912611169 0 0.55919291073839883 0.82903756765294845 1 0 0 1 I I #
point $-1 5.9295092818169479 18.678243462073233 2.7326419023433894 #
edge $-1 $647 1 $647 0 $404 $-1 forward 7 unknown #
vertex $-1 $405 $648 #
ellipse-curve $-1 9.7796586998690387 16.838506124009584 0.0051191841912611169 0 0.55919291073839883 0.82903756765294845 1 0 0 1 I I #
point $-1 10.779658699869039 18.678243462073233 2.7326419023433894 #
plane-surface $-1 40.271004364146854 0 0 -1 0 0 0 0 1 forward_v I I I I #
coedge $-1 $413 $411 $415 $566 reversed $281 $-1 #
edge $-1 $426 -4.3894518976946504 $568 4.3894518976946504 $425 $649 forward 7 unknown #
vertex $-1 $566 $650 #
straight-curve $-1 -40.271004364146854 -21.13456524697455 0 0 0 -1 I I #
edge $-1 $564 -21.13456524697455 $568 21.13456524697455 $562 $651 forward 7 unknown #
straight-curve $-1 0 -21.13456524697455 -4.3894518976946504 -1 0 0 I I #
vertex $-1 $418 $652 #
straight-curve $-1 0 21.13456524697455 -4.3894518976946504 1 0 0 I I #
point $-1 40.271004364146854 21.13456524697455 -4.3894518976946504 #
point $-1 40.271004364146854 -21.13456524697455 -4.3894518976946504 #
straight-curve $-1 -40.271004364146854 0 4.3894518976946504 0 -1 0 I I #
point $-1 -40.271004364146854 21.13456524697455 4.3894518976946504 #
point $-1 -40.271004364146854 -21.13456524697455 4.3894518976946504 #
straight-curve $-1 40.271004364146854 -21.13456524697455 0 0 0 -1 I I #
straight-curve $-1 40.271004364146854 21.13456524697455 0 0 0 -1 I I #
plane-surface $-1 0 -21.13456524697455 0 0 1 0 0 0 1 forward_v I I I I #
coedge $-1 $653 $438 $449 $589 reversed $300 $-1 #
coedge $-1 $438 $653 $453 $591 forward $300 $-1 #
edge $-1 $446 36.878851691249075 $654 40.271004364146854 $439 $655 forward 7 unknown #
straight-curve $-1 -36.878851691249075 21.13456524697455 1.4447259488473252 0 0 -1 I I #
coedge $-1 $449 $441 $444 $585 reversed $450 $-1 #
straight-curve $-1 -36.878851691249075 -21.13456524697455 1.4447259488473252 0 0 1 I I #
coedge $-1 $444 $443 $653 $656 forward $436 $-1 #
edge $-1 $657 -40.271004364146854 $445 -36.878851691249075 $582 $658 forward 7 unknown #
point $-1 -36.878851691249075 -21.13456524697455 4.3894518976946504 #
point $-1 -36.878851691249075 21.13456524697455 4.3894518976946504 #
straight-curve $-1 -40.271004364146854 0 1.3894518976946504 0 -1 0 I I #
edge $-1 $657 -4.3894518976946504 $451 -1.3894518976946504 $578 $659 forward 7 unknown #
point $-1 -40.271004364146854 -21.13456524697455 1.3894518976946504 #
edge $-1 $654 -4.3894518976946504 $454 -1.3894518976946504 $453 $660 forward 7 unknown #
point $-1 -40.271004364146854 21.13456524697455 1.3894518976946504 #
coedge $-1 $468 $467 $460 $594 forward $458 $-1 #
edge $-1 $601 29.534639560794993 $596 32.84825955149752 $593 $661 forward 7 unknown #
edge $-1 $465 16.221921677171917 $601 21.13456524697455 $464 $662 forward 7 unknown #
vertex $-1 $594 $663 #
straight-curve $-1 -36.878851691249082 -21.134565246974546 1.0758319069921214 0 0.82903756765294845 0.55919291073839883 I I #
edge $-1 $596 -21.268679672821595 $469 -9.9516643640333804 $468 $664 forward 7 unknown #
point $-1 -36.878851691249075 -16.221921677171917 4.3894518976946504 #
point $-1 -25.561836382460868 -21.13456524697455 1.0758319069921189 #
vertex $-1 $472 $665 #
straight-curve $-1 0 -21.13456524697455 4.3894518976946504 1 0 0 I I #
vertex $-1 $475 $666 #
point $-1 -32.645418745881017 -16.838506124009587 0.0051191841912584524 #
vertex $-1 $479 $667 #
point $-1 -27.795269327828926 -16.838506124009587 0.0051191841912584524 #
edge $-1 $608 29.534639560794993 $611 32.84825955149752 $484 $668 forward 7 unknown #
vertex $-1 $498 $669 #
straight-curve $-1 1.6960763364488844 -33.086542772233315 4.3894518976946486 0 -1 0 I I #
edge $-1 $611 -1.9812156589726104 $495 9.3357996498156002 $494 $670 forward 7 unknown #
vertex $-1 $610 $671 #
straight-curve $-1 1.6960763364488844 -21.134565246974546 1.0758319069921214 0 0.82903756765294845 0.55919291073839883 I I #
point $-1 1.6960763364488844 -16.221921677171917 4.3894518976946504 #
point $-1 13.013091645237095 -21.13456524697455 1.0758319069921189 #
straight-curve $-1 0 -21.13456524697455 4.3894518976946504 1 0 0 I I #
vertex $-1 $501 $672 #
point $-1 5.9295092818169479 -16.838506124009587 0.0051191841912584524 #
vertex $-1 $505 $673 #
point $-1 10.779658699869039 -16.838506124009587 0.0051191841912584524 #
coedge $-1 $511 $624 $513 $622 reversed $363 $-1 #
straight-curve $-1 -25.561836382460868 21.13456524697455 45.742390516135949 0 0 -1 I I #
edge $-1 $514 25.561836382460868 $629 36.878851691249075 $620 $674 forward 7 unknown #
point $-1 -25.561836382460868 21.13456524697455 4.3894518976946504 #
coedge $-1 $620 $516 $519 $626 forward $363 $-1 #
straight-curve $-1 -15.610172018427487 21.13456524697455 1.0758319069921214 -1 0 0 I I #
edge $-1 $520 -44.66655860914382 $629 -41.3529386184413 $624 $675 forward 7 unknown #
point $-1 -36.878851691249082 21.13456524697455 1.0758319069921249 #
point $-1 -25.561836382460868 21.13456524697455 1.0758319069921249 #
vertex $-1 $524 $676 #
straight-curve $-1 -36.878851691249075 0 4.3894518976946504 0 -1 0 I I #
vertex $-1 $527 $677 #
point $-1 -32.645418745881017 16.838506124009584 0.0051191841912611169 #
vertex $-1 $531 $678 #
point $-1 -27.795269327828926 16.838506124009584 0.0051191841912611169 #
coedge $-1 $546 $545 $538 $636 forward $535 $-1 #
edge $-1 $637 41.3529386184413 $640 44.66655860914382 $635 $679 forward 7 unknown #
vertex $-1 $550 $680 #
straight-curve $-1 13.013091645237095 15.565194206479001 4.3894518976946486 0 1 0 I I #
edge $-1 $640 -9.3357996498156002 $547 1.9812156589726104 $546 $681 forward 7 unknown #
vertex $-1 $639 $682 #
straight-curve $-1 13.013091645237095 -13.908131884534082 24.712430022284735 0 -0.82903756765294845 0.55919291073839883 I I #
point $-1 13.013091645237095 16.221921677171931 4.3894518976946486 #
point $-1 1.6960763364488844 21.13456524697455 1.0758319069921249 #
straight-curve $-1 0 21.13456524697455 4.3894518976946504 -1 0 0 I I #
vertex $-1 $553 $683 #
point $-1 5.9295092818169479 16.838506124009584 0.0051191841912611169 #
vertex $-1 $557 $684 #
point $-1 10.779658699869039 16.838506124009584 0.0051191841912611169 #
straight-curve $-1 -40.271004364146854 21.13456524697455 0 0 0 -1 I I #
point $-1 -40.271004364146854 -21.13456524697455 -4.3894518976946504 #
straight-curve $-1 -40.271004364146854 0 -4.3894518976946504 0 1 0 I I #
point $-1 -40.271004364146854 21.13456524697455 -4.3894518976946504 #
coedge $-1 $579 $578 $584 $656 reversed $300 $-1 #
vertex $-1 $580 $685 #
straight-curve $-1 0 21.13456524697455 4.3894518976946504 -1 0 0 I I #
edge $-1 $654 -21.13456524697455 $657 21.13456524697455 $653 $686 forward 7 unknown #
vertex $-1 $656 $687 #
straight-curve $-1 0 -21.13456524697455 4.3894518976946504 1 0 0 I I #
straight-curve $-1 -40.271004364146854 -21.13456524697455 0 0 0 -1 I I #
straight-curve $-1 -40.271004364146854 21.13456524697455 0 0 0 -1 I I #
straight-curve $-1 -36.878851691249082 -21.13456524697455 33.924091458489642 0 0 -1 I I #
straight-curve $-1 -36.878851691249075 0 4.3894518976946504 0 -1 0 I I #
point $-1 -36.878851691249082 -21.13456524697455 1.0758319069921189 #
straight-curve $-1 -15.610172018427487 -21.13456524697455 1.0758319069921178 1 0 0 I I #
point $-1 -36.878851691249075 -21.13456524697455 4.3894518976946504 #
point $-1 -33.645418745881017 -16.279313213271191 -0.82391838346169 #
point $-1 -28.795269327828926 -16.279313213271191 -0.82391838346169 #
straight-curve $-1 1.6960763364488844 -21.13456524697455 33.924091458489642 0 0 -1 I I #
point $-1 1.6960763364488844 -21.13456524697455 4.3894518976946504 #
straight-curve $-1 3.6772919954214949 -21.13456524697455 1.0758319069921178 1 0 0 I I #
point $-1 1.6960763364488844 -21.13456524697455 1.0758319069921189 #
point $-1 4.9295092818169479 -16.279313213271191 -0.82391838346169 #
point $-1 9.7796586998690387 -16.279313213271191 -0.82391838346169 #
straight-curve $-1 0 21.13456524697455 4.3894518976946504 -1 0 0 I I #
straight-curve $-1 -36.878851691249082 21.13456524697455 45.742390516135949 0 0 1 I I #
point $-1 -36.878851691249075 21.13456524697455 4.3894518976946504 #
point $-1 -33.645418745881017 16.279313213271188 -0.82391838346168733 #
point $-1 -28.795269327828926 16.279313213271188 -0.82391838346168733 #
straight-curve $-1 13.013091645237095 21.13456524697455 45.742390516135949 0 0 -1 I I #
point $-1 13.013091645237095 21.13456524697455 4.3894518976946504 #
straight-curve $-1 3.6772919954214949 21.13456524697455 1.0758319069921214 -1 0 0 I I #
point $-1 13.013091645237095 21.13456524697455 1.0758319069921249 #
point $-1 4.9295092818169479 16.279313213271188 -0.82391838346168733 #
point $-1 9.7796586998690387 16.279313213271188 -0.82391838346168733 #
point $-1 -40.271004364146854 21.13456524697455 4.3894518976946504 #
straight-curve $-1 -40.271004364146854 0 4.3894518976946504 0 -1 0 I I #
point $-1 -40.271004364146854 -21.13456524697455 4.3894518976946504 #
End-of-ACIS-data 