500 0 10 0           
7 Unknown 11 ACIS 5.0 NT 24 Thu Mar 25 21:05:43 1999 
-1 9.9999999999999995e-007 1e-010 
body $-1 $10 $-1 $11 #
body $-1 $12 $-1 $13 #
body $-1 $14 $-1 $15 #
body $-1 $16 $-1 $17 #
body $-1 $18 $-1 $19 #
body $-1 $20 $-1 $21 #
body $-1 $22 $-1 $23 #
body $-1 $24 $-1 $25 #
body $-1 $26 $-1 $27 #
body $-1 $28 $-1 $29 #
lump $-1 $-1 $30 $0 #
transform $-1 1 0 0 0 1 0 0 0 1 58.377025666066473 24.542687159965773 7.1784757146248355 1 rotate no_reflect no_shear #
lump $-1 $-1 $31 $1 #
transform $-1 1 0 0 0 1 0 0 0 1 58.377025666066473 24.542687159965773 7.1784757146248355 1 rotate no_reflect no_shear #
lump $-1 $-1 $32 $2 #
transform $-1 1 0 0 0 1 0 0 0 1 58.377025666066473 24.542687159965773 7.1784757146248355 1 rotate no_reflect no_shear #
lump $-1 $-1 $33 $3 #
transform $-1 1 0 0 0 1 0 0 0 1 58.377025666066473 24.542687159965773 7.1784757146248355 1 rotate no_reflect no_shear #
lump $-1 $-1 $34 $4 #
transform $-1 1 0 0 0 1 0 0 0 1 58.377025666066473 24.542687159965773 7.1784757146248355 1 rotate no_reflect no_shear #
lump $-1 $-1 $35 $5 #
transform $-1 1 0 0 0 1 0 0 0 1 58.377025666066473 24.542687159965773 7.1784757146248355 1 rotate no_reflect no_shear #
lump $-1 $-1 $36 $6 #
transform $-1 1 0 0 0 1 0 0 0 1 58.377025666066473 24.542687159965773 7.1784757146248355 1 rotate no_reflect no_shear #
lump $-1 $-1 $37 $7 #
transform $-1 1 0 0 0 1 0 0 0 1 58.377025666066473 24.542687159965773 7.1784757146248355 1 rotate no_reflect no_shear #
lump $-1 $-1 $38 $8 #
transform $-1 1 0 0 0 1 0 0 0 1 58.377025666066473 24.542687159965773 7.1784757146248355 1 rotate no_reflect no_shear #
lump $-1 $-1 $39 $9 #
transform $-1 1 0 0 0 1 0 0 0 1 58.377025666066473 24.542687159965773 7.1784757146248355 1 rotate no_reflect no_shear #
shell $-1 $-1 $-1 $40 $-1 $10 #
shell $-1 $-1 $-1 $41 $-1 $12 #
shell $-1 $-1 $-1 $42 $-1 $14 #
shell $-1 $-1 $-1 $43 $-1 $16 #
shell $-1 $-1 $-1 $44 $-1 $18 #
shell $-1 $-1 $-1 $45 $-1 $20 #
shell $-1 $-1 $-1 $46 $-1 $22 #
shell $-1 $-1 $-1 $47 $-1 $24 #
shell $-1 $-1 $-1 $48 $-1 $26 #
shell $-1 $-1 $-1 $49 $-1 $28 #
face $-1 $50 $51 $30 $-1 $52 forward single #
face $-1 $53 $54 $31 $-1 $55 reversed single #
face $-1 $56 $57 $32 $-1 $58 reversed single #
face $-1 $59 $60 $33 $-1 $61 forward single #
face $-1 $62 $63 $34 $-1 $64 reversed single #
face $-1 $65 $66 $35 $-1 $67 forward single #
face $-1 $68 $69 $36 $-1 $70 reversed single #
face $-1 $71 $72 $37 $-1 $73 forward single #
face $-1 $74 $75 $38 $-1 $76 reversed single #
face $-1 $77 $78 $39 $-1 $79 forward single #
face $-1 $80 $81 $30 $-1 $82 reversed single #
loop $-1 $-1 $83 $40 #
plane-surface $-1 0 0 7.1784757146248355 0 0 1 1 0 0 forward_v I I I I #
face $-1 $84 $85 $31 $-1 $86 reversed single #
loop $-1 $-1 $87 $41 #
plane-surface $-1 0 -21.054443513427671 4.1784757146248355 0 0 1 1 0 0 forward_v I I I I #
face $-1 $88 $89 $32 $-1 $90 reversed single #
loop $-1 $-1 $91 $42 #
plane-surface $-1 84.206730108066111 -11.000418040852914 164.13181744981327 0 -1 0 -0.80901700255871778 0 -0.5877852410284794 forward_v I I I I #
face $-1 $92 $93 $33 $-1 $94 forward single #
loop $-1 $95 $96 $43 #
cone-surface $-1 55.710407580411108 -14.283308953871243 3.7942085280020317 -0.80901700255871778 0 -0.5877852410284794 0.5877852410284794 0 -0.80901700255871778 1 I I 0 1 1 forward I I I I #
face $-1 $97 $98 $34 $-1 $99 reversed single #
loop $-1 $-1 $100 $44 #
plane-surface $-1 -10.249282537242749 21.259796246947445 95.505509246504047 0.80901700255871778 0 0.5877852410284794 0.5877852410284794 0 -0.80901700255871778 forward_v I I I I #
face $-1 $101 $102 $35 $-1 $103 forward single #
loop $-1 $104 $105 $45 #
cone-surface $-1 55.710407580411108 21.259796246947445 3.7942085280020317 -0.80901700255871778 0 -0.5877852410284794 0.5877852410284794 0 -0.80901700255871778 1 I I 0 1 1 forward I I I I #
face $-1 $106 $107 $36 $-1 $108 reversed single #
loop $-1 $-1 $109 $46 #
plane-surface $-1 -58.377025666066473 -14.283308953871243 1.0494966011951732 -0.80901700255871778 0 0.5877852410284794 0.5877852410284794 0 0.80901700255871778 forward_v I I I I #
face $-1 $110 $111 $37 $-1 $112 forward single #
loop $-1 $113 $114 $47 #
cone-surface $-1 -55.710407580411093 -14.283308953871243 3.7942085280020423 0.80901700255871778 0 -0.5877852410284794 0.5877852410284794 0 0.80901700255871778 1 I I 0 1 1 forward I I I I #
face $-1 $115 $116 $38 $-1 $117 reversed single #
loop $-1 $-1 $118 $48 #
plane-surface $-1 -58.377025666066473 21.259796246947445 1.0494966011951732 -0.80901700255871778 0 0.5877852410284794 0.5877852410284794 0 0.80901700255871778 forward_v I I I I #
face $-1 $119 $120 $39 $-1 $121 forward single #
loop $-1 $122 $123 $49 #
cone-surface $-1 -55.710407580411093 21.259796246947445 3.7942085280020423 0.80901700255871778 0 -0.5877852410284794 0.5877852410284794 0 0.80901700255871778 1 I I 0 1 1 forward I I I I #
face $-1 $124 $125 $30 $-1 $126 reversed single #
loop $-1 $-1 $127 $50 #
plane-surface $-1 0 0 -7.1784757146248355 0 0 1 1 0 0 forward_v I I I I #
coedge $-1 $128 $129 $130 $131 forward $51 $-1 #
face $-1 $132 $133 $31 $-1 $134 reversed single #
loop $-1 $-1 $135 $53 #
plane-surface $-1 0 -17.566199866889569 5.6784757146248355 0 -1 0 0 0 -1 forward_v I I I I #
coedge $-1 $136 $137 $138 $139 reversed $54 $-1 #
face $-1 $140 $141 $32 $-1 $142 forward single #
loop $-1 $-1 $143 $56 #
plane-surface $-1 -10.249282537242749 -14.283308953871243 95.505509246504047 0.80901700255871778 0 0.5877852410284794 0.5877852410284794 0 -0.80901700255871778 forward_v I I I I #
coedge $-1 $144 $145 $146 $147 reversed $57 $-1 #
face $-1 $-1 $148 $33 $-1 $149 forward single #
loop $-1 $150 $151 $59 #
cone-surface $-1 54.865762917868494 -14.283308953871243 3.1805382775798305 -0.80901700255871778 0 -0.5877852410284794 0.2938926205142397 0 -0.40450850127935889 1 I I -0.70710678118654746 0.70710678118654746 0.5 forward I I I I #
loop $-1 $-1 $152 $43 #
coedge $-1 $96 $96 $153 $154 reversed $60 $-1 #
face $-1 $155 $156 $34 $-1 $157 reversed single #
loop $-1 $-1 $158 $62 #
plane-surface $-1 84.206730108066111 17.976905333929118 164.13181744981327 0 1 0 0.80901700255871778 0 0.5877852410284794 forward_v I I I I #
coedge $-1 $159 $160 $161 $162 reversed $63 $-1 #
face $-1 $-1 $163 $35 $-1 $164 forward single #
loop $-1 $165 $166 $65 #
cone-surface $-1 54.865762917868494 21.259796246947445 3.1805382775798305 -0.80901700255871778 0 -0.5877852410284794 0.2938926205142397 0 -0.40450850127935889 1 I I -0.70710678118654746 0.70710678118654746 0.5 forward I I I I #
loop $-1 $-1 $167 $45 #
coedge $-1 $105 $105 $168 $169 reversed $66 $-1 #
face $-1 $170 $171 $36 $-1 $172 forward single #
loop $-1 $-1 $173 $68 #
plane-surface $-1 -152.83303831137533 -11.000418040852914 69.675804804504395 0 -1 0 0.80901700255871778 0 -0.5877852410284794 forward_v I I I I #
coedge $-1 $174 $175 $176 $177 reversed $69 $-1 #
face $-1 $-1 $178 $37 $-1 $179 forward single #
loop $-1 $180 $181 $71 #
cone-surface $-1 -54.86576291786848 -14.283308953871243 3.1805382775798412 0.80901700255871778 0 -0.5877852410284794 0.2938926205142397 0 0.40450850127935889 1 I I -0.70710678118654746 0.70710678118654746 0.5 forward I I I I #
loop $-1 $-1 $182 $47 #
coedge $-1 $114 $114 $183 $184 reversed $72 $-1 #
face $-1 $185 $186 $38 $-1 $187 reversed single #
loop $-1 $-1 $188 $74 #
plane-surface $-1 -152.83303831137533 17.976905333929118 69.675804804504395 0 1 0 -0.80901700255871778 0 0.5877852410284794 forward_v I I I I #
coedge $-1 $189 $190 $191 $192 reversed $75 $-1 #
face $-1 $-1 $193 $39 $-1 $194 forward single #
loop $-1 $195 $196 $77 #
cone-surface $-1 -54.86576291786848 21.259796246947445 3.1805382775798412 0.80901700255871778 0 -0.5877852410284794 0.2938926205142397 0 0.40450850127935889 1 I I -0.70710678118654746 0.70710678118654746 0.5 forward I I I I #
loop $-1 $-1 $197 $49 #
coedge $-1 $123 $123 $198 $199 reversed $78 $-1 #
face $-1 $200 $201 $30 $-1 $202 reversed single #
loop $-1 $-1 $203 $80 #
plane-surface $-1 0 -24.542687159965773 0 0 1 0 0 0 1 forward_v I I I I #
coedge $-1 $204 $205 $206 $207 forward $81 $-1 #
coedge $-1 $208 $83 $209 $210 forward $51 $-1 #
coedge $-1 $83 $208 $211 $212 forward $51 $-1 #
coedge $-1 $213 $214 $83 $131 reversed $215 $-1 #
edge $-1 $216 -24.542687159965773 $217 24.542687159965773 $130 $218 forward 7 unknown #
face $-1 $219 $220 $31 $-1 $221 reversed single #
loop $-1 $-1 $222 $84 #
plane-surface $-1 -58.377025666066473 0 0 1 0 0 0 0 -1 forward_v I I I I #
coedge $-1 $223 $224 $225 $226 reversed $85 $-1 #
coedge $-1 $227 $87 $228 $229 reversed $54 $-1 #
coedge $-1 $87 $227 $223 $230 forward $54 $-1 #
coedge $-1 $225 $231 $87 $139 forward $232 $-1 #
edge $-1 $233 -14.015465403251937 $234 -7.0389781101757336 $138 $235 forward 7 unknown #
face $-1 $236 $237 $32 $-1 $238 forward single #
loop $-1 $-1 $239 $88 #
plane-surface $-1 0 -17.566199866889569 5.6784757146248355 0 -1 0 0 0 -1 forward_v I I I I #
coedge $-1 $240 $241 $242 $243 reversed $89 $-1 #
coedge $-1 $145 $91 $244 $245 reversed $57 $-1 #
coedge $-1 $91 $144 $240 $246 reversed $57 $-1 #
coedge $-1 $242 $247 $91 $147 forward $237 $-1 #
edge $-1 $248 -16.273660612033417 $249 -11.820696763249167 $146 $250 forward 7 unknown #
loop $-1 $-1 $153 $92 #
plane-surface $-1 -10.249282537242749 -14.283308953871243 95.505509246504047 0.80901700255871778 0 0.5877852410284794 0.5877852410284794 0 -0.80901700255871778 forward_v I I I I #
loop $-1 $-1 $251 $59 #
coedge $-1 $151 $151 $152 $252 reversed $93 $-1 #
coedge $-1 $152 $152 $151 $252 forward $95 $-1 #
coedge $-1 $153 $153 $96 $154 forward $148 $-1 #
edge $-1 $253 0 $253 6.2831853071796004 $153 $254 forward 7 unknown #
face $-1 $255 $256 $34 $-1 $257 forward single #
loop $-1 $-1 $258 $97 #
plane-surface $-1 0 24.542687159965773 0 0 -1 0 0 0 -1 forward_v I I I I #
coedge $-1 $259 $260 $261 $262 reversed $98 $-1 #
coedge $-1 $263 $100 $258 $264 reversed $63 $-1 #
coedge $-1 $100 $263 $259 $265 forward $63 $-1 #
coedge $-1 $261 $266 $100 $162 forward $256 $-1 #
edge $-1 $267 -13.91278903649205 $268 -7.347007210455395 $161 $269 forward 7 unknown #
loop $-1 $-1 $168 $101 #
plane-surface $-1 -10.249282537242749 21.259796246947445 95.505509246504047 0.80901700255871778 0 0.5877852410284794 0.5877852410284794 0 -0.80901700255871778 forward_v I I I I #
loop $-1 $-1 $270 $65 #
coedge $-1 $166 $166 $167 $271 reversed $102 $-1 #
coedge $-1 $167 $167 $166 $271 forward $104 $-1 #
coedge $-1 $168 $168 $105 $169 forward $163 $-1 #
edge $-1 $272 0 $272 6.2831853071796004 $168 $273 forward 7 unknown #
face $-1 $274 $275 $36 $-1 $276 forward single #
loop $-1 $-1 $277 $106 #
plane-surface $-1 0 -17.566199866889569 5.6784757146248355 0 -1 0 0 0 -1 forward_v I I I I #
coedge $-1 $278 $279 $280 $281 reversed $107 $-1 #
coedge $-1 $282 $109 $277 $283 reversed $69 $-1 #
coedge $-1 $109 $282 $278 $284 forward $69 $-1 #
coedge $-1 $280 $285 $109 $177 forward $275 $-1 #
edge $-1 $286 -10.424545389953952 $287 -3.8587635639172921 $176 $288 forward 7 unknown #
loop $-1 $-1 $183 $110 #
plane-surface $-1 -58.377025666066473 -14.283308953871243 1.0494966011951732 -0.80901700255871778 0 0.5877852410284794 0.5877852410284794 0 0.80901700255871778 forward_v I I I I #
loop $-1 $-1 $289 $71 #
coedge $-1 $181 $181 $182 $290 reversed $111 $-1 #
coedge $-1 $182 $182 $181 $290 forward $113 $-1 #
coedge $-1 $183 $183 $114 $184 forward $178 $-1 #
edge $-1 $291 0 $291 6.2831853071796004 $183 $292 forward 7 unknown #
face $-1 $293 $294 $38 $-1 $295 forward single #
loop $-1 $-1 $191 $115 #
plane-surface $-1 -58.377025666066473 0 0 1 0 0 0 0 -1 forward_v I I I I #
coedge $-1 $296 $297 $298 $299 reversed $116 $-1 #
coedge $-1 $300 $118 $301 $302 reversed $75 $-1 #
coedge $-1 $118 $300 $296 $303 forward $75 $-1 #
coedge $-1 $298 $304 $118 $192 forward $186 $-1 #
edge $-1 $305 -13.91278903649205 $306 -7.347007210455395 $191 $307 forward 7 unknown #
loop $-1 $-1 $198 $119 #
plane-surface $-1 -58.377025666066473 21.259796246947445 1.0494966011951732 -0.80901700255871778 0 0.5877852410284794 0.5877852410284794 0 0.80901700255871778 forward_v I I I I #
loop $-1 $-1 $308 $77 #
coedge $-1 $196 $196 $197 $309 reversed $120 $-1 #
coedge $-1 $197 $197 $196 $309 forward $122 $-1 #
coedge $-1 $198 $198 $123 $199 forward $193 $-1 #
edge $-1 $310 0 $310 6.2831853071796004 $198 $311 forward 7 unknown #
face $-1 $312 $313 $30 $-1 $314 reversed single #
loop $-1 $-1 $315 $124 #
plane-surface $-1 -58.377025666066473 0 0 1 0 0 0 0 -1 forward_v I I I I #
coedge $-1 $316 $211 $317 $318 forward $125 $-1 #
coedge $-1 $319 $127 $316 $320 forward $81 $-1 #
coedge $-1 $127 $319 $321 $322 forward $81 $-1 #
coedge $-1 $214 $213 $127 $207 reversed $215 $-1 #
edge $-1 $323 -24.542687159965773 $324 24.542687159965773 $206 $325 forward 7 unknown #
coedge $-1 $129 $128 $326 $327 forward $51 $-1 #
coedge $-1 $328 $329 $128 $210 reversed $313 $-1 #
edge $-1 $217 -58.377025666066473 $330 58.377025666066473 $209 $331 forward 7 unknown #
coedge $-1 $203 $332 $129 $212 reversed $125 $-1 #
edge $-1 $333 -58.377025666066473 $216 58.377025666066473 $211 $334 forward 7 unknown #
coedge $-1 $206 $130 $332 $335 forward $215 $-1 #
coedge $-1 $130 $206 $328 $336 reversed $215 $-1 #
loop $-1 $-1 $213 $312 #
vertex $-1 $131 $337 #
vertex $-1 $131 $338 #
straight-curve $-1 58.377025666066473 0 7.1784757146248355 0 1 0 I I #
face $-1 $339 $340 $31 $-1 $341 forward single #
loop $-1 $-1 $228 $132 #
plane-surface $-1 0 -24.542687159965773 0 0 1 0 0 0 1 forward_v I I I I #
coedge $-1 $342 $343 $344 $345 forward $133 $-1 #
coedge $-1 $344 $135 $137 $230 reversed $85 $-1 #
coedge $-1 $135 $344 $346 $347 reversed $85 $-1 #
coedge $-1 $348 $138 $135 $226 forward $232 $-1 #
edge $-1 $234 1.3392378573124177 $349 4.3392378573124173 $225 $350 forward 7 unknown #
coedge $-1 $137 $136 $342 $351 reversed $54 $-1 #
coedge $-1 $352 $353 $136 $229 forward $220 $-1 #
edge $-1 $354 -58.377025666066473 $233 58.377025666066473 $228 $355 forward 7 unknown #
edge $-1 $356 -58.377025666066473 $234 58.377025666066473 $223 $357 forward 7 unknown #
coedge $-1 $138 $348 $352 $358 forward $232 $-1 #
loop $-1 $-1 $225 $339 #
vertex $-1 $229 $359 #
vertex $-1 $139 $360 #
straight-curve $-1 58.377025666066473 -10.527221756713836 4.1784757146248355 0 1 0 I I #
face $-1 $-1 $361 $32 $-1 $362 reversed single #
loop $-1 $-1 $242 $140 #
plane-surface $-1 0 0 7.1784757146248355 0 0 1 1 0 0 forward_v I I I I #
coedge $-1 $363 $364 $241 $365 reversed $141 $-1 #
coedge $-1 $366 $143 $145 $246 forward $89 $-1 #
coedge $-1 $143 $366 $239 $365 forward $89 $-1 #
coedge $-1 $367 $146 $143 $243 forward $237 $-1 #
edge $-1 $249 3.8587635639172921 $368 10.424545389953948 $242 $369 forward 7 unknown #
coedge $-1 $370 $371 $144 $245 forward $361 $-1 #
edge $-1 $372 -81.016412123711447 $248 -74.887433010281796 $244 $373 forward 7 unknown #
edge $-1 $249 109.17821659189234 $372 116.75405133213295 $145 $374 forward 7 unknown #
coedge $-1 $146 $367 $370 $375 forward $237 $-1 #
vertex $-1 $245 $376 #
vertex $-1 $147 $377 #
straight-curve $-1 42.103365054033056 -11.000418040852914 7.1784757146248381 -1 0 0 I I #
coedge $-1 $251 $251 $-1 $378 reversed $150 $-1 #
edge $-1 $379 0 $379 6.2831853071796004 $151 $380 forward 7 unknown #
vertex $-1 $154 $381 #
ellipse-curve $-1 56.150543741674362 -14.283308953871243 4.1139861579099968 0.80901700255871778 0 0.5877852410284794 0.5877852410284794 0 -0.80901700255871778 1 I I #
face $-1 $-1 $382 $34 $-1 $383 reversed single #
loop $-1 $-1 $161 $155 #
plane-surface $-1 0 0 7.1784757146248355 0 0 1 1 0 0 forward_v I I I I #
coedge $-1 $384 $385 $159 $264 forward $156 $-1 #
coedge $-1 $260 $158 $160 $265 reversed $98 $-1 #
coedge $-1 $158 $259 $386 $387 reversed $98 $-1 #
coedge $-1 $388 $161 $158 $262 forward $256 $-1 #
edge $-1 $268 11.820696763249167 $389 16.273660612033417 $261 $390 forward 7 unknown #
coedge $-1 $160 $159 $391 $392 reversed $63 $-1 #
edge $-1 $393 -75.109072419646537 $267 -67.533237679405929 $258 $394 forward 7 unknown #
edge $-1 $395 -116.75405133213295 $268 -109.17821659189234 $259 $396 forward 7 unknown #
coedge $-1 $161 $388 $384 $397 forward $256 $-1 #
vertex $-1 $264 $398 #
vertex $-1 $162 $399 #
straight-curve $-1 53.924061817282222 10.629898123473723 7.1784757146248452 0 -1 0 I I #
coedge $-1 $270 $270 $-1 $400 reversed $165 $-1 #
edge $-1 $401 0 $401 6.2831853071796004 $166 $402 forward 7 unknown #
vertex $-1 $169 $403 #
ellipse-curve $-1 56.150543741674362 21.259796246947445 4.1139861579099968 0.80901700255871778 0 0.5877852410284794 0.5877852410284794 0 -0.80901700255871778 1 I I #
face $-1 $-1 $404 $36 $-1 $405 reversed single #
loop $-1 $-1 $280 $170 #
plane-surface $-1 0 0 7.1784757146248355 0 0 1 1 0 0 forward_v I I I I #
coedge $-1 $406 $407 $174 $283 forward $171 $-1 #
coedge $-1 $279 $173 $175 $284 reversed $107 $-1 #
coedge $-1 $173 $278 $408 $409 reversed $107 $-1 #
coedge $-1 $410 $176 $173 $281 forward $275 $-1 #
edge $-1 $287 -22.492457338405451 $411 -18.039493489621194 $280 $412 forward 7 unknown #
coedge $-1 $175 $174 $413 $414 reversed $69 $-1 #
edge $-1 $415 -19.029038454454192 $286 -11.453203714213579 $277 $416 forward 7 unknown #
edge $-1 $417 0 $287 7.5758347402406141 $278 $418 forward 7 unknown #
coedge $-1 $176 $410 $406 $419 forward $275 $-1 #
vertex $-1 $177 $420 #
vertex $-1 $177 $421 #
straight-curve $-1 -53.924061817282208 -7.1416544769356216 7.1784757146248346 0 1 0 I I #
coedge $-1 $289 $289 $-1 $422 reversed $180 $-1 #
edge $-1 $423 0 $423 6.2831853071796004 $181 $424 forward 7 unknown #
vertex $-1 $184 $425 #
ellipse-curve $-1 -56.150543741674348 -14.283308953871243 4.1139861579100039 -0.80901700255871778 0 0.5877852410284794 0.5877852410284794 0 0.80901700255871778 1 I I #
face $-1 $-1 $426 $38 $-1 $427 reversed single #
loop $-1 $-1 $428 $185 #
plane-surface $-1 0 0 7.1784757146248355 0 0 1 1 0 0 forward_v I I I I #
coedge $-1 $297 $188 $190 $303 reversed $116 $-1 #
coedge $-1 $188 $296 $428 $429 reversed $116 $-1 #
coedge $-1 $430 $191 $188 $299 forward $186 $-1 #
edge $-1 $306 -33.788405801057024 $431 -27.659426687627363 $298 $432 forward 7 unknown #
coedge $-1 $190 $189 $433 $434 reversed $75 $-1 #
coedge $-1 $435 $436 $189 $302 forward $426 $-1 #
edge $-1 $437 9.1562120133394487 $305 16.732046753580065 $301 $438 forward 7 unknown #
edge $-1 $439 -7.5758347402406141 $306 0 $296 $440 forward 7 unknown #
coedge $-1 $191 $430 $435 $441 forward $186 $-1 #
vertex $-1 $302 $442 #
vertex $-1 $192 $443 #
straight-curve $-1 -58.377025666066473 10.629898123473723 1.0494966011951763 0 -1 0 I I #
coedge $-1 $308 $308 $-1 $444 reversed $195 $-1 #
edge $-1 $445 0 $445 6.2831853071796004 $196 $446 forward 7 unknown #
vertex $-1 $199 $447 #
ellipse-curve $-1 -56.150543741674348 21.259796246947445 4.1139861579100039 -0.80901700255871778 0 0.5877852410284794 0.5877852410284794 0 0.80901700255871778 1 I I #
face $-1 $-1 $215 $30 $-1 $448 reversed single #
loop $-1 $-1 $328 $200 #
plane-surface $-1 0 24.542687159965773 0 0 -1 0 0 0 -1 forward_v I I I I #
coedge $-1 $449 $326 $329 $450 forward $201 $-1 #
coedge $-1 $332 $203 $204 $320 reversed $125 $-1 #
coedge $-1 $326 $449 $203 $318 reversed $201 $-1 #
edge $-1 $333 -7.1784757146248355 $451 7.1784757146248355 $317 $452 forward 7 unknown #
coedge $-1 $205 $204 $449 $453 forward $81 $-1 #
edge $-1 $324 -58.377025666066473 $451 58.377025666066473 $316 $454 forward 7 unknown #
coedge $-1 $329 $328 $205 $322 reversed $313 $-1 #
edge $-1 $455 -58.377025666066473 $323 58.377025666066473 $321 $456 forward 7 unknown #
vertex $-1 $207 $457 #
vertex $-1 $335 $458 #
straight-curve $-1 58.377025666066473 0 -7.1784757146248355 0 -1 0 I I #
coedge $-1 $315 $317 $208 $327 reversed $201 $-1 #
edge $-1 $330 -24.542687159965773 $333 24.542687159965773 $326 $459 forward 7 unknown #
coedge $-1 $321 $209 $214 $336 forward $313 $-1 #
coedge $-1 $209 $321 $315 $450 reversed $313 $-1 #
vertex $-1 $210 $460 #
straight-curve $-1 0 24.542687159965773 7.1784757146248355 -1 0 0 I I #
coedge $-1 $211 $316 $213 $335 reversed $125 $-1 #
vertex $-1 $327 $461 #
straight-curve $-1 0 -24.542687159965773 7.1784757146248355 1 0 0 I I #
edge $-1 $216 -7.1784757146248355 $324 7.1784757146248355 $213 $462 forward 7 unknown #
edge $-1 $217 -7.1784757146248355 $323 7.1784757146248355 $214 $463 forward 7 unknown #
point $-1 58.377025666066473 -24.542687159965773 7.1784757146248355 #
point $-1 58.377025666066473 24.542687159965773 7.1784757146248355 #
face $-1 $-1 $232 $31 $-1 $464 reversed single #
loop $-1 $-1 $346 $219 #
plane-surface $-1 0 0 7.1784757146248355 0 0 1 1 0 0 forward_v I I I I #
coedge $-1 $465 $222 $227 $351 forward $133 $-1 #
coedge $-1 $222 $465 $466 $467 reversed $133 $-1 #
coedge $-1 $224 $223 $222 $345 reversed $85 $-1 #
edge $-1 $468 -4.3392378573124173 $356 -1.3392378573124177 $222 $469 forward 7 unknown #
coedge $-1 $466 $470 $224 $347 forward $340 $-1 #
edge $-1 $349 -58.377025666066473 $468 58.377025666066473 $346 $471 forward 7 unknown #
coedge $-1 $231 $225 $470 $472 reversed $232 $-1 #
vertex $-1 $226 $473 #
straight-curve $-1 58.377025666066473 -17.566199866889569 2.8392378573124177 0 0 1 I I #
edge $-1 $356 7.0389781101757336 $354 14.015465403251937 $342 $474 forward 7 unknown #
coedge $-1 $475 $228 $231 $358 reversed $220 $-1 #
coedge $-1 $228 $475 $465 $476 forward $220 $-1 #
vertex $-1 $229 $477 #
straight-curve $-1 0 -24.542687159965773 4.1784757146248355 1 0 0 I I #
vertex $-1 $351 $478 #
straight-curve $-1 0 -17.566199866889569 4.1784757146248355 1 0 0 I I #
edge $-1 $479 -7.1784757146248355 $233 -4.1784757146248355 $231 $480 forward 7 unknown #
point $-1 58.377025666066473 -24.542687159965773 4.1784757146248355 #
point $-1 58.377025666066473 -17.566199866889569 4.1784757146248355 #
loop $-1 $-1 $244 $236 #
plane-surface $-1 58.377025666066473 0 0 -1 0 0 0 0 1 forward_v I I I I #
coedge $-1 $364 $239 $481 $482 reversed $141 $-1 #
coedge $-1 $239 $363 $367 $483 reversed $141 $-1 #
edge $-1 $484 -116.75405133213295 $368 -109.17821659189234 $239 $485 forward 7 unknown #
coedge $-1 $241 $240 $371 $486 reversed $89 $-1 #
coedge $-1 $247 $242 $364 $483 forward $237 $-1 #
vertex $-1 $483 $487 #
straight-curve $-1 53.924061817282222 -7.1416544769356216 7.1784757146248452 0 -1 0 I I #
coedge $-1 $481 $244 $247 $375 reversed $361 $-1 #
coedge $-1 $244 $481 $366 $486 forward $361 $-1 #
vertex $-1 $245 $488 #
straight-curve $-1 58.377025666066473 -11.000418040852914 82.065908724906635 0 0 1 I I #
straight-curve $-1 -10.249282537242749 -11.000418040852914 95.505509246504047 0.5877852410284794 0 -0.80901700255871778 I I #
edge $-1 $489 -17.566199866889569 $248 -11.000418040852914 $370 $490 forward 7 unknown #
point $-1 58.377025666066473 -11.000418040852914 7.1784757146248355 #
point $-1 53.924061817282222 -11.000418040852914 7.1784757146248381 #
edge $-1 $491 1 $491 0 $251 $-1 forward 7 unknown #
vertex $-1 $252 $492 #
ellipse-curve $-1 55.270271419147853 -14.283308953871243 3.4744308980940701 0.80901700255871778 0 0.5877852410284794 0.5877852410284794 0 -0.80901700255871778 1 I I #
point $-1 56.738328982702839 -14.283308953871243 3.3049691553512761 #
loop $-1 $-1 $391 $255 #
plane-surface $-1 58.377025666066473 0 0 -1 0 0 0 0 1 forward_v I I I I #
coedge $-1 $385 $258 $266 $397 reversed $156 $-1 #
coedge $-1 $258 $384 $493 $494 forward $156 $-1 #
coedge $-1 $391 $495 $260 $387 forward $382 $-1 #
edge $-1 $389 74.887433010281796 $395 81.016412123711447 $386 $496 forward 7 unknown #
coedge $-1 $266 $261 $495 $497 forward $256 $-1 #
vertex $-1 $497 $498 #
straight-curve $-1 42.103365054033056 17.976905333929118 7.1784757146248381 1 0 0 I I #
coedge $-1 $493 $386 $263 $392 forward $382 $-1 #
edge $-1 $395 7.347007210455395 $393 13.91278903649205 $391 $499 forward 7 unknown #
vertex $-1 $264 $500 #
straight-curve $-1 14.229021430459021 24.542687159965773 61.814013235103282 -0.5877852410284794 0 0.80901700255871778 I I #
vertex $-1 $392 $501 #
straight-curve $-1 -10.249282537242749 17.976905333929118 95.505509246504047 -0.5877852410284794 0 0.80901700255871778 I I #
edge $-1 $502 -58.377025666066473 $267 -53.924061817282222 $384 $503 forward 7 unknown #
point $-1 53.924061817282222 24.542687159965773 7.1784757146248381 #
point $-1 53.924061817282222 17.976905333929118 7.1784757146248381 #
edge $-1 $504 1 $504 0 $270 $-1 forward 7 unknown #
vertex $-1 $271 $505 #
ellipse-curve $-1 55.270271419147853 21.259796246947445 3.4744308980940701 0.80901700255871778 0 0.5877852410284794 0.5877852410284794 0 -0.80901700255871778 1 I I #
point $-1 56.738328982702839 21.259796246947445 3.3049691553512761 #
loop $-1 $-1 $506 $274 #
plane-surface $-1 -58.377025666066473 0 0 1 0 0 0 0 -1 forward_v I I I I #
coedge $-1 $407 $277 $285 $419 reversed $171 $-1 #
coedge $-1 $277 $406 $506 $507 reversed $171 $-1 #
coedge $-1 $413 $508 $279 $409 forward $404 $-1 #
edge $-1 $411 27.659426687627363 $417 33.788405801057024 $408 $509 forward 7 unknown #
coedge $-1 $285 $280 $508 $510 forward $275 $-1 #
vertex $-1 $510 $511 #
straight-curve $-1 -76.416519155687666 -11.000418040852914 7.1784757146248346 -1 0 0 I I #
coedge $-1 $506 $408 $282 $414 forward $404 $-1 #
edge $-1 $417 3.8587635639172921 $415 10.424545389953952 $413 $512 forward 7 unknown #
vertex $-1 $507 $513 #
straight-curve $-1 -47.192037711574912 -17.566199866889569 16.44431225319228 0.5877852410284794 0 0.80901700255871778 I I #
vertex $-1 $414 $514 #
straight-curve $-1 -58.377025666066473 -11.000418040852914 1.0494966011951732 0.5877852410284794 0 0.80901700255871778 I I #
edge $-1 $515 -58.377025666066473 $286 -53.924061817282215 $285 $516 forward 7 unknown #
point $-1 -53.924061817282215 -17.566199866889573 7.1784757146248355 #
point $-1 -53.924061817282215 -11.000418040852914 7.1784757146248355 #
edge $-1 $517 1 $517 0 $289 $-1 forward 7 unknown #
vertex $-1 $290 $518 #
ellipse-curve $-1 -55.270271419147839 -14.283308953871243 3.4744308980940808 -0.80901700255871778 0 0.5877852410284794 0.5877852410284794 0 0.80901700255871778 1 I I #
point $-1 -55.562758500645863 -14.283308953871243 4.9230031604687223 #
loop $-1 $-1 $301 $293 #
plane-surface $-1 0 24.542687159965773 0 0 -1 0 0 0 -1 forward_v I I I I #
coedge $-1 $433 $519 $297 $429 forward $294 $-1 #
edge $-1 $431 18.039493489621194 $439 22.492457338405451 $428 $520 forward 7 unknown #
coedge $-1 $304 $298 $519 $521 reversed $186 $-1 #
vertex $-1 $299 $522 #
straight-curve $-1 -58.377025666066473 17.976905333929118 34.837902402252197 0 0 1 I I #
coedge $-1 $523 $428 $300 $434 forward $294 $-1 #
edge $-1 $439 7.347007210455395 $437 13.91278903649205 $433 $524 forward 7 unknown #
coedge $-1 $436 $301 $304 $441 reversed $426 $-1 #
coedge $-1 $301 $435 $523 $525 reversed $426 $-1 #
vertex $-1 $525 $526 #
straight-curve $-1 -48.542175532113632 24.542687159965773 14.586006912448841 -0.5877852410284794 0 -0.80901700255871778 I I #
vertex $-1 $434 $527 #
straight-curve $-1 -58.377025666066473 17.976905333929118 1.0494966011951732 -0.5877852410284794 0 -0.80901700255871778 I I #
edge $-1 $528 -7.1784757146248355 $305 -1.0494966011951732 $435 $529 forward 7 unknown #
point $-1 -58.377025666066473 24.542687159965773 1.0494966011951732 #
point $-1 -58.377025666066473 17.976905333929118 1.0494966011951732 #
edge $-1 $530 1 $530 0 $308 $-1 forward 7 unknown #
vertex $-1 $309 $531 #
ellipse-curve $-1 -55.270271419147839 21.259796246947445 3.4744308980940808 -0.80901700255871778 0 0.5877852410284794 0.5877852410284794 0 0.80901700255871778 1 I I #
point $-1 -55.562758500645863 21.259796246947445 4.9230031604687223 #
plane-surface $-1 58.377025666066473 0 0 -1 0 0 0 0 1 forward_v I I I I #
coedge $-1 $317 $315 $319 $453 reversed $201 $-1 #
edge $-1 $330 -7.1784757146248355 $455 7.1784757146248355 $329 $532 forward 7 unknown #
vertex $-1 $453 $533 #
straight-curve $-1 -58.377025666066473 -24.542687159965773 0 0 0 -1 I I #
edge $-1 $451 -24.542687159965773 $455 24.542687159965773 $449 $534 forward 7 unknown #
straight-curve $-1 0 -24.542687159965773 -7.1784757146248355 -1 0 0 I I #
vertex $-1 $322 $535 #
straight-curve $-1 0 24.542687159965773 -7.1784757146248355 1 0 0 I I #
point $-1 58.377025666066473 24.542687159965773 -7.1784757146248355 #
point $-1 58.377025666066473 -24.542687159965773 -7.1784757146248355 #
straight-curve $-1 -58.377025666066473 0 7.1784757146248355 0 -1 0 I I #
point $-1 -58.377025666066473 24.542687159965773 7.1784757146248355 #
point $-1 -58.377025666066473 -24.542687159965773 7.1784757146248355 #
straight-curve $-1 58.377025666066473 -24.542687159965773 0 0 0 -1 I I #
straight-curve $-1 58.377025666066473 24.542687159965773 0 0 0 -1 I I #
plane-surface $-1 58.377025666066473 0 0 -1 0 0 0 0 1 forward_v I I I I #
coedge $-1 $343 $342 $353 $476 reversed $133 $-1 #
coedge $-1 $536 $346 $343 $467 forward $340 $-1 #
edge $-1 $468 17.566199866889569 $537 24.542687159965773 $343 $538 forward 7 unknown #
vertex $-1 $467 $539 #
straight-curve $-1 -58.377025666066473 -17.566199866889569 2.8392378573124177 0 0 -1 I I #
coedge $-1 $346 $536 $348 $472 forward $340 $-1 #
straight-curve $-1 0 -17.566199866889569 7.1784757146248355 -1 0 0 I I #
edge $-1 $479 -24.542687159965773 $349 -17.566199866889569 $348 $540 forward 7 unknown #
point $-1 58.377025666066473 -17.566199866889569 7.1784757146248355 #
straight-curve $-1 -58.377025666066473 -10.527221756713836 4.1784757146248355 0 -1 0 I I #
coedge $-1 $353 $352 $536 $541 reversed $220 $-1 #
edge $-1 $537 -7.1784757146248355 $354 -4.1784757146248355 $465 $542 forward 7 unknown #
point $-1 -58.377025666066473 -24.542687159965773 4.1784757146248355 #
point $-1 -58.377025666066473 -17.566199866889569 4.1784757146248355 #
vertex $-1 $472 $543 #
straight-curve $-1 58.377025666066473 -24.542687159965773 0 0 0 -1 I I #
coedge $-1 $371 $370 $363 $482 forward $361 $-1 #
edge $-1 $489 74.887433010281796 $484 81.016412123711447 $481 $544 forward 7 unknown #
edge $-1 $368 53.924061817282222 $489 58.377025666066473 $367 $545 forward 7 unknown #
vertex $-1 $482 $546 #
straight-curve $-1 -10.249282537242749 -17.566199866889573 95.505509246504047 -0.5877852410284794 0 0.80901700255871778 I I #
edge $-1 $484 -10.424545389953952 $372 -3.8587635639172921 $371 $547 forward 7 unknown #
point $-1 53.924061817282222 -17.566199866889569 7.1784757146248355 #
point $-1 58.377025666066473 -11.000418040852914 1.0494966011951874 #
vertex $-1 $375 $548 #
straight-curve $-1 58.377025666066473 0 7.1784757146248355 0 1 0 I I #
vertex $-1 $378 $549 #
point $-1 55.858056660176331 -14.283308953871243 2.6654138955353526 #
coedge $-1 $495 $391 $385 $494 reversed $382 $-1 #
edge $-1 $502 -7.1784757146248355 $393 -1.0494966011951874 $493 $550 forward 7 unknown #
coedge $-1 $386 $493 $388 $497 reversed $382 $-1 #
straight-curve $-1 58.377025666066473 17.976905333929118 82.065908724906635 0 0 -1 I I #
edge $-1 $389 17.976905333929118 $502 24.542687159965773 $495 $551 forward 7 unknown #
point $-1 58.377025666066473 17.976905333929118 7.1784757146248355 #
straight-curve $-1 58.377025666066473 10.629898123473723 1.0494966011951803 0 1 0 I I #
point $-1 58.377025666066473 24.542687159965773 1.0494966011951874 #
point $-1 58.377025666066473 17.976905333929118 1.0494966011951874 #
vertex $-1 $497 $552 #
straight-curve $-1 0 24.542687159965773 7.1784757146248355 -1 0 0 I I #
vertex $-1 $400 $553 #
point $-1 55.858056660176331 21.259796246947445 2.6654138955353526 #
coedge $-1 $508 $413 $407 $507 forward $404 $-1 #
edge $-1 $415 -33.788405801057024 $515 -27.659426687627363 $506 $554 forward 7 unknown #
coedge $-1 $408 $506 $410 $510 reversed $404 $-1 #
straight-curve $-1 -58.377025666066473 -11.000418040852914 34.837902402252197 0 0 -1 I I #
edge $-1 $411 11.000418040852914 $515 17.566199866889569 $508 $555 forward 7 unknown #
point $-1 -58.377025666066473 -11.000418040852914 7.1784757146248355 #
straight-curve $-1 -58.377025666066473 -7.1416544769356216 1.0494966011951763 0 -1 0 I I #
point $-1 -58.377025666066473 -17.566199866889573 1.0494966011951732 #
point $-1 -58.377025666066473 -11.000418040852914 1.0494966011951732 #
vertex $-1 $507 $556 #
straight-curve $-1 0 -17.566199866889569 7.1784757146248355 1 0 0 I I #
vertex $-1 $422 $557 #
point $-1 -54.682486178119362 -14.283308953871243 4.2834479006527992 #
coedge $-1 $428 $523 $430 $521 forward $294 $-1 #
straight-curve $-1 -76.416519155687666 17.976905333929118 7.1784757146248346 1 0 0 I I #
edge $-1 $528 -24.542687159965773 $431 -17.976905333929118 $430 $558 forward 7 unknown #
point $-1 -58.377025666066473 17.976905333929118 7.1784757146248355 #
coedge $-1 $519 $433 $436 $525 forward $294 $-1 #
straight-curve $-1 -53.924061817282208 10.629898123473723 7.1784757146248346 0 1 0 I I #
edge $-1 $437 53.924061817282215 $528 58.377025666066473 $436 $559 forward 7 unknown #
point $-1 -53.924061817282215 24.542687159965773 7.1784757146248355 #
point $-1 -53.924061817282215 17.976905333929118 7.1784757146248355 #
vertex $-1 $525 $560 #
straight-curve $-1 -58.377025666066473 24.542687159965773 0 0 0 -1 I I #
vertex $-1 $444 $561 #
point $-1 -54.682486178119362 21.259796246947445 4.2834479006527992 #
straight-curve $-1 -58.377025666066473 24.542687159965773 0 0 0 -1 I I #
point $-1 -58.377025666066473 -24.542687159965773 -7.1784757146248355 #
straight-curve $-1 -58.377025666066473 0 -7.1784757146248355 0 1 0 I I #
point $-1 -58.377025666066473 24.542687159965773 -7.1784757146248355 #
coedge $-1 $470 $466 $475 $541 forward $340 $-1 #
vertex $-1 $467 $562 #
straight-curve $-1 -58.377025666066473 0 7.1784757146248355 0 -1 0 I I #
point $-1 -58.377025666066473 -17.566199866889569 7.1784757146248355 #
straight-curve $-1 58.377025666066473 0 7.1784757146248355 0 1 0 I I #
edge $-1 $537 -58.377025666066473 $479 58.377025666066473 $475 $563 forward 7 unknown #
straight-curve $-1 -58.377025666066473 -24.542687159965773 0 0 0 -1 I I #
point $-1 58.377025666066473 -24.542687159965773 7.1784757146248355 #
straight-curve $-1 58.377025666066473 -17.566199866889573 82.065908724906635 0 0 -1 I I #
straight-curve $-1 0 -17.566199866889569 7.1784757146248355 1 0 0 I I #
point $-1 58.377025666066473 -17.566199866889573 1.0494966011951874 #
straight-curve $-1 58.377025666066473 -7.1416544769356216 1.0494966011951803 0 1 0 I I #
point $-1 58.377025666066473 -17.566199866889569 7.1784757146248355 #
point $-1 54.461254416589135 -14.283308953871243 2.886645657065591 #
straight-curve $-1 58.377025666066473 24.542687159965773 0 0 0 -1 I I #
straight-curve $-1 58.377025666066473 0 7.1784757146248355 0 1 0 I I #
point $-1 58.377025666066473 24.542687159965773 7.1784757146248355 #
point $-1 54.461254416589135 21.259796246947445 2.886645657065591 #
straight-curve $-1 -58.377025666066473 -17.566199866889573 34.837902402252197 0 0 1 I I #
straight-curve $-1 -58.377025666066473 0 7.1784757146248355 0 -1 0 I I #
point $-1 -58.377025666066473 -17.566199866889569 7.1784757146248355 #
point $-1 -54.461254416589121 -14.283308953871243 2.8866456570656016 #
straight-curve $-1 -58.377025666066473 0 7.1784757146248355 0 -1 0 I I #
straight-curve $-1 0 24.542687159965773 7.1784757146248355 -1 0 0 I I #
point $-1 -58.377025666066473 24.542687159965773 7.1784757146248355 #
point $-1 -54.461254416589121 21.259796246947445 2.8866456570656016 #
point $-1 -58.377025666066473 -24.542687159965773 7.1784757146248355 #
straight-curve $-1 0 -24.542687159965773 7.1784757146248355 1 0 0 I I #
End-of-ACIS-data 