500 0 6 0           
7 Unknown 11 ACIS 5.0 NT 24 Thu Mar 25 17:42:26 1999 
-1 9.9999999999999995e-007 1e-010 
body $-1 $6 $-1 $7 #
body $-1 $8 $-1 $9 #
body $-1 $10 $-1 $11 #
body $-1 $12 $-1 $13 #
body $-1 $14 $-1 $15 #
body $-1 $16 $-1 $17 #
lump $-1 $-1 $18 $0 #
transform $-1 1 0 0 0 1 0 0 0 1 54.702597125156409 29.50621394601739 11.854173455859923 1 rotate no_reflect no_shear #
lump $-1 $-1 $19 $1 #
transform $-1 1 0 0 0 1 0 0 0 1 54.702597125156409 29.50621394601739 11.854173455859923 1 rotate no_reflect no_shear #
lump $-1 $-1 $20 $2 #
transform $-1 1 0 0 0 1 0 0 0 1 54.702597125156409 29.50621394601739 11.854173455859923 1 rotate no_reflect no_shear #
lump $-1 $-1 $21 $3 #
transform $-1 1 0 0 0 1 0 0 0 1 54.702597125156409 29.50621394601739 11.854173455859923 1 rotate no_reflect no_shear #
lump $-1 $-1 $22 $4 #
transform $-1 1 0 0 0 1 0 0 0 1 54.702597125156409 29.50621394601739 11.854173455859923 1 rotate no_reflect no_shear #
lump $-1 $-1 $23 $5 #
transform $-1 1 0 0 0 1 0 0 0 1 54.702597125156409 29.50621394601739 11.854173455859923 1 rotate no_reflect no_shear #
shell $-1 $-1 $-1 $24 $-1 $6 #
shell $-1 $-1 $-1 $25 $-1 $8 #
shell $-1 $-1 $-1 $26 $-1 $10 #
shell $-1 $-1 $-1 $27 $-1 $12 #
shell $-1 $-1 $-1 $28 $-1 $14 #
shell $-1 $-1 $-1 $29 $-1 $16 #
face $-1 $30 $31 $18 $-1 $32 reversed single #
face $-1 $33 $34 $19 $-1 $35 forward single #
face $-1 $36 $37 $20 $-1 $38 reversed single #
face $-1 $39 $40 $21 $-1 $41 forward single #
face $-1 $42 $43 $22 $-1 $44 reversed single #
face $-1 $45 $46 $23 $-1 $47 forward single #
face $-1 $48 $49 $18 $-1 $50 forward single #
loop $-1 $-1 $51 $24 #
plane-surface $-1 0 -29.50621394601739 0 0 1 0 0 0 1 forward_v I I I I #
face $-1 $52 $53 $19 $-1 $54 reversed single #
loop $-1 $-1 $55 $25 #
plane-surface $-1 0 -29.50621394601739 0 0 1 0 0 0 1 forward_v I I I I #
face $-1 $56 $57 $20 $-1 $58 reversed single #
loop $-1 $-1 $59 $26 #
plane-surface $-1 -13.698604105059086 65.139282142444188 124.63299735211044 1 0 0 0 -0.70710678939079041 -0.70710677298230451 forward_v I I I I #
face $-1 $60 $61 $21 $-1 $62 forward single #
loop $-1 $63 $64 $27 #
cone-surface $-1 -6.8493020525295449 25.269034548719951 7.6169940104527525 0 -0.70710678939079041 -0.70710677298230451 1 0 0 1 I I 0 1 1 forward I I I I #
face $-1 $65 $66 $22 $-1 $67 reversed single #
loop $-1 $-1 $68 $28 #
plane-surface $-1 41.003993020097312 65.139282142444188 124.63299735211044 1 0 0 0 -0.70710678939079041 -0.70710677298230451 forward_v I I I I #
face $-1 $69 $70 $23 $-1 $71 forward single #
loop $-1 $72 $73 $29 #
cone-surface $-1 47.853295072626857 25.269034548719951 7.6169940104527525 0 -0.70710678939079041 -0.70710677298230451 1 0 0 1 I I 0 1 1 forward I I I I #
face $-1 $74 $75 $18 $-1 $76 reversed single #
loop $-1 $-1 $77 $30 #
plane-surface $-1 0 0 11.854173455859923 0 0 1 1 0 0 forward_v I I I I #
coedge $-1 $78 $79 $80 $81 reversed $31 $-1 #
face $-1 $82 $83 $19 $-1 $84 reversed single #
loop $-1 $-1 $85 $33 #
plane-surface $-1 0 0 -11.854173455859923 0 0 1 1 0 0 forward_v I I I I #
coedge $-1 $86 $87 $88 $89 forward $34 $-1 #
face $-1 $90 $91 $20 $-1 $92 reversed single #
loop $-1 $-1 $93 $36 #
plane-surface $-1 -6.8493020525295449 -12.221873506570276 47.271843498269561 0 0.70710678939079041 0.70710677298230451 1 0 0 forward_v I I I I #
coedge $-1 $94 $95 $96 $97 reversed $37 $-1 #
face $-1 $-1 $98 $21 $-1 $99 forward single #
loop $-1 $100 $101 $39 #
cone-surface $-1 -6.8493020525295449 23.833510872751461 6.1814703677957379 0 -0.70710678939079041 -0.70710677298230451 0.5 0 0 1 I I -0.70710678118654746 0.70710678118654746 0.5 forward I I I I #
loop $-1 $-1 $102 $27 #
coedge $-1 $64 $64 $103 $104 reversed $40 $-1 #
face $-1 $105 $106 $22 $-1 $107 forward single #
loop $-1 $-1 $108 $42 #
plane-surface $-1 47.853295072626857 -12.221873506570276 47.271843498269561 0 0.70710678939079041 0.70710677298230451 1 0 0 forward_v I I I I #
coedge $-1 $109 $110 $111 $112 reversed $43 $-1 #
face $-1 $-1 $113 $23 $-1 $114 forward single #
loop $-1 $115 $116 $45 #
cone-surface $-1 47.853295072626857 23.833510872751461 6.1814703677957379 0 -0.70710678939079041 -0.70710677298230451 0.5 0 0 1 I I -0.70710678118654746 0.70710678118654746 0.5 forward I I I I #
loop $-1 $-1 $117 $29 #
coedge $-1 $73 $73 $118 $119 reversed $46 $-1 #
face $-1 $120 $121 $18 $-1 $122 reversed single #
loop $-1 $-1 $123 $48 #
plane-surface $-1 0 0 -11.854173455859923 0 0 1 1 0 0 forward_v I I I I #
coedge $-1 $124 $125 $126 $127 forward $49 $-1 #
coedge $-1 $128 $51 $129 $130 reversed $31 $-1 #
coedge $-1 $51 $128 $131 $132 forward $31 $-1 #
coedge $-1 $133 $123 $51 $81 forward $75 $-1 #
edge $-1 $134 -54.702597125156409 $135 54.702597125156409 $51 $136 forward 7 unknown #
face $-1 $137 $138 $19 $-1 $139 reversed single #
loop $-1 $-1 $140 $52 #
plane-surface $-1 -34.461144639073673 -41.538755323282295 0 0 1 0 0 0 1 forward_v I I I I #
coedge $-1 $141 $142 $87 $143 forward $53 $-1 #
coedge $-1 $144 $55 $145 $146 reversed $34 $-1 #
coedge $-1 $55 $144 $85 $143 reversed $34 $-1 #
coedge $-1 $147 $148 $55 $89 reversed $138 $-1 #
edge $-1 $149 -11.854173455859923 $150 11.854173455859923 $88 $151 forward 7 unknown #
face $-1 $152 $153 $20 $-1 $154 forward single #
loop $-1 $-1 $155 $56 #
plane-surface $-1 -3.5527136788005009e-015 65.139282142444188 124.63299735211044 -1 0 0 0 0.70710678939079041 0.70710677298230451 forward_v I I I I #
coedge $-1 $156 $157 $158 $159 reversed $57 $-1 #
coedge $-1 $95 $59 $160 $161 reversed $37 $-1 #
coedge $-1 $59 $94 $156 $162 reversed $37 $-1 #
coedge $-1 $158 $163 $59 $97 forward $153 $-1 #
edge $-1 $164 3.0634271252047043 $165 9.3738453572534155 $96 $166 forward 7 unknown #
loop $-1 $-1 $103 $60 #
plane-surface $-1 -6.8493020525295449 -12.221873506570276 47.271843498269561 0 0.70710678939079041 0.70710677298230451 1 0 0 forward_v I I I I #
loop $-1 $-1 $167 $39 #
coedge $-1 $101 $101 $102 $168 reversed $61 $-1 #
coedge $-1 $102 $102 $101 $168 forward $63 $-1 #
coedge $-1 $103 $103 $64 $104 forward $98 $-1 #
edge $-1 $169 -5.8294651990167239e-023 $169 6.2831853071796004 $103 $170 forward 7 unknown #
face $-1 $171 $172 $22 $-1 $173 reversed single #
loop $-1 $-1 $111 $65 #
plane-surface $-1 0 0 11.854173455859923 0 0 1 1 0 0 forward_v I I I I #
coedge $-1 $174 $175 $176 $177 reversed $66 $-1 #
coedge $-1 $110 $68 $178 $179 reversed $43 $-1 #
coedge $-1 $68 $109 $174 $180 reversed $43 $-1 #
coedge $-1 $176 $181 $68 $112 forward $106 $-1 #
edge $-1 $182 3.0634271252047043 $183 9.3738453572534155 $111 $184 forward 7 unknown #
loop $-1 $-1 $118 $69 #
plane-surface $-1 47.853295072626857 -12.221873506570276 47.271843498269561 0 0.70710678939079041 0.70710677298230451 1 0 0 forward_v I I I I #
loop $-1 $-1 $185 $45 #
coedge $-1 $116 $116 $117 $186 reversed $70 $-1 #
coedge $-1 $117 $117 $116 $186 forward $72 $-1 #
coedge $-1 $118 $118 $73 $119 forward $113 $-1 #
edge $-1 $187 -5.8294651990167239e-023 $187 6.2831853071796004 $118 $188 forward 7 unknown #
face $-1 $189 $190 $18 $-1 $191 reversed single #
loop $-1 $-1 $192 $74 #
plane-surface $-1 -54.702597125156409 0 0 1 0 0 0 0 -1 forward_v I I I I #
coedge $-1 $80 $193 $194 $195 forward $75 $-1 #
coedge $-1 $196 $77 $197 $198 forward $49 $-1 #
coedge $-1 $77 $196 $128 $199 forward $49 $-1 #
coedge $-1 $129 $200 $77 $127 reversed $201 $-1 #
edge $-1 $202 -29.50621394601739 $203 29.50621394601739 $126 $204 forward 7 unknown #
coedge $-1 $79 $78 $125 $199 reversed $31 $-1 #
coedge $-1 $194 $126 $78 $130 forward $201 $-1 #
edge $-1 $202 -11.854173455859923 $134 11.854173455859923 $129 $205 forward 7 unknown #
coedge $-1 $206 $207 $79 $132 reversed $121 $-1 #
edge $-1 $208 -11.854173455859923 $135 11.854173455859923 $131 $209 forward 7 unknown #
coedge $-1 $193 $80 $207 $210 forward $75 $-1 #
vertex $-1 $130 $211 #
vertex $-1 $210 $212 #
straight-curve $-1 0 -29.50621394601739 -11.854173455859923 -1 0 0 I I #
face $-1 $213 $214 $19 $-1 $215 reversed single #
loop $-1 $-1 $88 $82 #
plane-surface $-1 -37.928039064710788 -35.522484634649842 0 1 0 0 0 0 -1 forward_v I I I I #
coedge $-1 $216 $217 $218 $219 forward $83 $-1 #
coedge $-1 $220 $85 $221 $222 forward $53 $-1 #
coedge $-1 $85 $220 $147 $223 forward $53 $-1 #
edge $-1 $149 -37.928039064710788 $224 -30.994250213436562 $85 $225 forward 7 unknown #
coedge $-1 $87 $86 $226 $227 forward $34 $-1 #
coedge $-1 $228 $229 $86 $146 forward $230 $-1 #
edge $-1 $231 30.994250213436562 $150 37.928039064710788 $145 $232 forward 7 unknown #
coedge $-1 $218 $88 $142 $223 reversed $138 $-1 #
coedge $-1 $88 $218 $228 $233 reversed $138 $-1 #
vertex $-1 $143 $234 #
vertex $-1 $233 $235 #
straight-curve $-1 -37.928039064710788 -29.50621394601739 0 0 0 1 I I #
face $-1 $-1 $236 $20 $-1 $237 reversed single #
loop $-1 $-1 $96 $90 #
plane-surface $-1 0 0 11.854173455859923 0 0 1 1 0 0 forward_v I I I I #
coedge $-1 $238 $239 $240 $241 reversed $91 $-1 #
coedge $-1 $242 $93 $95 $162 forward $57 $-1 #
coedge $-1 $93 $242 $238 $243 forward $57 $-1 #
coedge $-1 $240 $96 $93 $159 forward $153 $-1 #
edge $-1 $165 -10.273953078794314 $244 3.4246510262647689 $158 $245 forward 7 unknown #
coedge $-1 $246 $247 $94 $161 forward $236 $-1 #
edge $-1 $248 -56.772743598677913 $164 -50.462325220195297 $160 $249 forward 7 unknown #
edge $-1 $165 50.088148740480669 $248 59.012427892034815 $95 $250 forward 7 unknown #
coedge $-1 $96 $240 $246 $251 forward $153 $-1 #
vertex $-1 $161 $252 #
vertex $-1 $97 $253 #
straight-curve $-1 -13.698604105059086 32.569641071222094 11.854173455859922 0 -1 0 I I #
coedge $-1 $167 $167 $-1 $254 reversed $100 $-1 #
edge $-1 $255 0 $255 6.2831853071796004 $101 $256 forward 7 unknown #
vertex $-1 $104 $257 #
ellipse-curve $-1 -6.8493020525295449 26.351004829993041 8.69896426661861 0 0.70710678939079041 0.70710677298230451 1 0 0 1 I I #
face $-1 $-1 $258 $22 $-1 $259 reversed single #
loop $-1 $-1 $260 $105 #
plane-surface $-1 54.702597125156409 0 0 -1 0 0 0 0 1 forward_v I I I I #
coedge $-1 $261 $108 $110 $180 forward $66 $-1 #
coedge $-1 $108 $261 $260 $262 reversed $66 $-1 #
coedge $-1 $263 $111 $108 $177 forward $106 $-1 #
edge $-1 $183 17.077345483783883 $264 30.775949588842973 $176 $265 forward 7 unknown #
coedge $-1 $266 $267 $109 $179 forward $258 $-1 #
edge $-1 $268 -56.772743598677913 $182 -50.462325220195297 $178 $269 forward 7 unknown #
edge $-1 $183 50.088148740480669 $268 59.012427892034815 $110 $270 forward 7 unknown #
coedge $-1 $111 $263 $266 $271 forward $106 $-1 #
vertex $-1 $179 $272 #
vertex $-1 $112 $273 #
straight-curve $-1 41.003993020097312 32.569641071222094 11.854173455859922 0 -1 0 I I #
coedge $-1 $185 $185 $-1 $274 reversed $115 $-1 #
edge $-1 $275 0 $275 6.2831853071796004 $116 $276 forward 7 unknown #
vertex $-1 $119 $277 #
ellipse-curve $-1 47.853295072626857 26.351004829993041 8.69896426661861 0 0.70710678939079041 0.70710677298230451 1 0 0 1 I I #
face $-1 $-1 $201 $18 $-1 $278 reversed single #
loop $-1 $-1 $279 $120 #
plane-surface $-1 0 29.50621394601739 0 0 -1 0 0 0 -1 forward_v I I I I #
coedge $-1 $207 $206 $280 $281 forward $121 $-1 #
coedge $-1 $123 $133 $282 $283 forward $75 $-1 #
coedge $-1 $200 $129 $123 $195 reversed $201 $-1 #
edge $-1 $284 -29.50621394601739 $134 29.50621394601739 $194 $285 forward 7 unknown #
coedge $-1 $125 $124 $206 $286 forward $49 $-1 #
coedge $-1 $279 $280 $124 $198 reversed $190 $-1 #
edge $-1 $203 -54.702597125156409 $287 54.702597125156409 $197 $288 forward 7 unknown #
edge $-1 $208 -54.702597125156409 $202 54.702597125156409 $128 $289 forward 7 unknown #
coedge $-1 $126 $194 $279 $290 reversed $201 $-1 #
loop $-1 $-1 $129 $189 #
vertex $-1 $127 $291 #
vertex $-1 $127 $292 #
straight-curve $-1 54.702597125156409 0 11.854173455859923 0 1 0 I I #
straight-curve $-1 54.702597125156409 -29.50621394601739 0 0 0 -1 I I #
coedge $-1 $192 $131 $196 $286 reversed $121 $-1 #
coedge $-1 $131 $192 $133 $210 reversed $121 $-1 #
vertex $-1 $286 $293 #
straight-curve $-1 -54.702597125156409 -29.50621394601739 0 0 0 -1 I I #
edge $-1 $135 -29.50621394601739 $294 29.50621394601739 $207 $295 forward 7 unknown #
point $-1 54.702597125156409 -29.50621394601739 -11.854173455859923 #
point $-1 -54.702597125156409 -29.50621394601739 -11.854173455859923 #
face $-1 $-1 $230 $19 $-1 $296 forward single #
loop $-1 $-1 $297 $137 #
plane-surface $-1 -30.994250213436562 -35.522484634649842 0 -1 0 0 0 0 1 forward_v I I I I #
coedge $-1 $298 $140 $220 $299 reversed $83 $-1 #
coedge $-1 $140 $298 $300 $301 reversed $83 $-1 #
coedge $-1 $148 $147 $140 $219 reversed $138 $-1 #
edge $-1 $302 -11.854173455859923 $303 11.854173455859923 $218 $304 forward 7 unknown #
coedge $-1 $142 $141 $216 $299 forward $53 $-1 #
coedge $-1 $226 $297 $141 $222 reversed $214 $-1 #
edge $-1 $224 -6.0162706886324528 $305 6.0162706886324528 $221 $306 forward 7 unknown #
edge $-1 $303 -6.0162706886324528 $149 6.0162706886324528 $147 $307 forward 7 unknown #
vertex $-1 $222 $308 #
straight-curve $-1 0 -29.50621394601739 -11.854173455859923 1 0 0 I I #
coedge $-1 $309 $221 $144 $227 reversed $214 $-1 #
edge $-1 $231 -11.854173455859923 $224 11.854173455859923 $226 $310 forward 7 unknown #
coedge $-1 $300 $145 $148 $233 forward $230 $-1 #
coedge $-1 $145 $300 $309 $311 forward $230 $-1 #
loop $-1 $-1 $145 $213 #
vertex $-1 $146 $312 #
straight-curve $-1 0 -29.50621394601739 11.854173455859923 -1 0 0 I I #
edge $-1 $150 -6.0162706886324528 $302 6.0162706886324528 $148 $313 forward 7 unknown #
point $-1 -37.928039064710788 -29.50621394601739 -11.854173455859923 #
point $-1 -37.928039064710788 -29.50621394601739 11.854173455859923 #
loop $-1 $-1 $160 $152 #
plane-surface $-1 0 29.50621394601739 0 0 -1 0 0 0 -1 forward_v I I I I #
coedge $-1 $239 $155 $157 $243 reversed $91 $-1 #
coedge $-1 $155 $238 $314 $315 reversed $91 $-1 #
coedge $-1 $163 $158 $155 $241 forward $153 $-1 #
edge $-1 $244 -9.3738453572534155 $316 -3.0634271252047043 $240 $317 forward 7 unknown #
coedge $-1 $157 $156 $247 $318 reversed $57 $-1 #
edge $-1 $319 -59.012427892034815 $244 -50.088148740480669 $238 $320 forward 7 unknown #
vertex $-1 $159 $321 #
straight-curve $-1 -3.4246510262647725 23.195795713968682 11.854173455859918 1 0 0 I I #
coedge $-1 $314 $160 $163 $251 reversed $236 $-1 #
coedge $-1 $160 $314 $242 $318 forward $236 $-1 #
vertex $-1 $161 $322 #
straight-curve $-1 -13.698604105059086 29.50621394601739 62.316498676055218 0 0 1 I I #
straight-curve $-1 -13.698604105059086 -12.221873506570276 47.271843498269561 0 0.70710677298230451 -0.70710678939079041 I I #
edge $-1 $316 3.5527136788005009e-015 $164 13.698604105059086 $246 $323 forward 7 unknown #
point $-1 -13.698604105059086 29.50621394601739 11.854173455859923 #
point $-1 -13.698604105059086 23.195795713968678 11.854173455859922 #
edge $-1 $324 1 $324 0 $167 $-1 forward 7 unknown #
vertex $-1 $168 $325 #
ellipse-curve $-1 -6.8493020525295449 24.187064267446857 6.5350237542868905 0 0.70710678939079041 0.70710677298230451 1 0 0 1 I I #
point $-1 -5.8493020525295449 26.351004829993045 8.6989642666186136 #
loop $-1 $-1 $178 $171 #
plane-surface $-1 0 29.50621394601739 0 0 -1 0 0 0 -1 forward_v I I I I #
coedge $-1 $326 $327 $175 $262 forward $172 $-1 #
coedge $-1 $175 $174 $267 $328 reversed $66 $-1 #
edge $-1 $264 29.05394323064359 $329 37.978222382197735 $260 $330 forward 7 unknown #
coedge $-1 $181 $176 $327 $331 forward $106 $-1 #
vertex $-1 $331 $332 #
straight-curve $-1 23.926647536313428 23.195795713968682 11.854173455859918 1 0 0 I I #
coedge $-1 $333 $178 $181 $271 reversed $258 $-1 #
coedge $-1 $178 $333 $261 $328 forward $258 $-1 #
vertex $-1 $179 $334 #
straight-curve $-1 41.003993020097312 29.50621394601739 62.316498676055218 0 0 1 I I #
straight-curve $-1 41.003993020097312 -12.221873506570276 47.271843498269561 0 0.70710677298230451 -0.70710678939079041 I I #
edge $-1 $335 -54.702597125156409 $182 -41.003993020097312 $266 $336 forward 7 unknown #
point $-1 41.003993020097312 29.50621394601739 11.854173455859923 #
point $-1 41.003993020097312 23.195795713968678 11.854173455859922 #
edge $-1 $337 1 $337 0 $185 $-1 forward 7 unknown #
vertex $-1 $186 $338 #
ellipse-curve $-1 47.853295072626857 24.187064267446857 6.5350237542868905 0 0.70710678939079041 0.70710677298230451 1 0 0 1 I I #
point $-1 48.853295072626857 26.351004829993045 8.6989642666186136 #
plane-surface $-1 54.702597125156409 0 0 -1 0 0 0 0 1 forward_v I I I I #
coedge $-1 $282 $197 $200 $290 forward $190 $-1 #
coedge $-1 $197 $282 $192 $281 reversed $190 $-1 #
edge $-1 $287 -11.854173455859923 $294 11.854173455859923 $280 $339 forward 7 unknown #
coedge $-1 $280 $279 $193 $283 reversed $190 $-1 #
edge $-1 $294 -54.702597125156409 $284 54.702597125156409 $282 $340 forward 7 unknown #
vertex $-1 $195 $341 #
straight-curve $-1 54.702597125156409 0 -11.854173455859923 0 -1 0 I I #
edge $-1 $287 -29.50621394601739 $208 29.50621394601739 $206 $342 forward 7 unknown #
vertex $-1 $198 $343 #
straight-curve $-1 0 29.50621394601739 11.854173455859923 -1 0 0 I I #
straight-curve $-1 0 -29.50621394601739 11.854173455859923 1 0 0 I I #
edge $-1 $203 -11.854173455859923 $284 11.854173455859923 $200 $344 forward 7 unknown #
point $-1 54.702597125156409 -29.50621394601739 11.854173455859923 #
point $-1 54.702597125156409 29.50621394601739 11.854173455859923 #
point $-1 -54.702597125156409 -29.50621394601739 11.854173455859923 #
vertex $-1 $283 $345 #
straight-curve $-1 -54.702597125156409 0 -11.854173455859923 0 1 0 I I #
plane-surface $-1 0 0 11.854173455859923 0 0 1 1 0 0 forward_v I I I I #
coedge $-1 $221 $309 $298 $346 forward $214 $-1 #
coedge $-1 $217 $216 $297 $346 reversed $83 $-1 #
edge $-1 $305 -3.4668944256371113 $303 3.4668944256371148 $216 $347 forward 7 unknown #
coedge $-1 $229 $228 $217 $301 forward $230 $-1 #
edge $-1 $302 -3.4668944256371148 $348 3.4668944256371113 $217 $349 forward 7 unknown #
vertex $-1 $233 $350 #
vertex $-1 $223 $351 #
straight-curve $-1 -37.928039064710788 -41.538755323282295 0 0 0 -1 I I #
vertex $-1 $346 $352 #
straight-curve $-1 -30.994250213436562 -35.522484634649842 -11.854173455859923 0 -1 0 I I #
straight-curve $-1 -37.928039064710788 -35.522484634649842 -11.854173455859923 0 1 0 I I #
point $-1 -30.994250213436562 -29.50621394601739 -11.854173455859923 #
coedge $-1 $297 $226 $229 $311 reversed $214 $-1 #
straight-curve $-1 -30.994250213436562 -29.50621394601739 0 0 0 -1 I I #
edge $-1 $348 -6.0162706886324528 $231 6.0162706886324528 $309 $353 forward 7 unknown #
point $-1 -30.994250213436562 -29.50621394601739 11.854173455859923 #
straight-curve $-1 -37.928039064710788 -35.522484634649842 11.854173455859923 0 -1 0 I I #
coedge $-1 $247 $246 $239 $315 forward $236 $-1 #
edge $-1 $316 50.462325220195297 $319 56.772743598677913 $314 $354 forward 7 unknown #
vertex $-1 $251 $355 #
straight-curve $-1 -3.5527136788005009e-015 32.569641071222094 11.854173455859922 0 1 0 I I #
edge $-1 $319 -3.4246510262647689 $248 10.273953078794314 $247 $356 forward 7 unknown #
vertex $-1 $318 $357 #
straight-curve $-1 -3.5527136788005009e-015 -12.221873506570276 47.271843498269561 0 -0.70710677298230451 0.70710678939079041 I I #
point $-1 -3.5527136788005009e-015 23.195795713968678 11.854173455859922 #
point $-1 -13.698604105059086 29.50621394601739 5.5437550773773054 #
straight-curve $-1 0 29.50621394601739 11.854173455859923 -1 0 0 I I #
vertex $-1 $254 $358 #
point $-1 -5.8493020525295449 24.187064267446857 6.5350237542868905 #
coedge $-1 $327 $260 $333 $359 reversed $172 $-1 #
coedge $-1 $260 $326 $263 $331 reversed $172 $-1 #
edge $-1 $329 -30.775949588842973 $268 -17.077345483783883 $267 $360 forward 7 unknown #
vertex $-1 $262 $361 #
straight-curve $-1 54.702597125156409 2.6515556737372208 32.398413972822595 0 0.70710677298230462 -0.70710678939079052 I I #
edge $-1 $264 23.195795713968678 $335 29.50621394601739 $327 $362 forward 7 unknown #
point $-1 54.702597125156402 23.195795713968678 11.854173455859922 #
coedge $-1 $267 $266 $326 $359 forward $258 $-1 #
point $-1 41.003993020097312 29.50621394601739 5.5437550773773054 #
vertex $-1 $331 $363 #
straight-curve $-1 0 29.50621394601739 11.854173455859923 -1 0 0 I I #
vertex $-1 $274 $364 #
point $-1 48.853295072626857 24.187064267446857 6.5350237542868905 #
straight-curve $-1 -54.702597125156409 29.50621394601739 0 0 0 -1 I I #
straight-curve $-1 0 29.50621394601739 -11.854173455859923 1 0 0 I I #
point $-1 54.702597125156409 29.50621394601739 -11.854173455859923 #
straight-curve $-1 -54.702597125156409 0 11.854173455859923 0 -1 0 I I #
point $-1 -54.702597125156409 29.50621394601739 11.854173455859923 #
straight-curve $-1 54.702597125156409 29.50621394601739 0 0 0 -1 I I #
point $-1 -54.702597125156409 29.50621394601739 -11.854173455859923 #
edge $-1 $348 -11.854173455859923 $305 11.854173455859923 $297 $365 forward 7 unknown #
straight-curve $-1 -34.461144639073673 -41.538755323282295 -11.854173455859923 -1 0 0 I I #
vertex $-1 $311 $366 #
straight-curve $-1 -34.461144639073673 -41.538755323282295 11.854173455859923 1 0 0 I I #
point $-1 -37.928039064710788 -41.538755323282295 11.854173455859923 #
point $-1 -37.928039064710788 -41.538755323282295 -11.854173455859923 #
point $-1 -30.994250213436562 -41.538755323282295 -11.854173455859923 #
straight-curve $-1 -30.994250213436562 -35.522484634649842 11.854173455859923 0 1 0 I I #
straight-curve $-1 -3.5527136788005009e-015 29.50621394601739 62.316498676055218 0 0 -1 I I #
point $-1 -3.5527136788005009e-015 29.50621394601739 11.854173455859923 #
straight-curve $-1 -3.4246510262647725 29.50621394601739 5.5437550773773019 -1 0 0 I I #
point $-1 -3.5527136788005009e-015 29.50621394601739 5.5437550773773054 #
point $-1 -6.8493020525295449 23.479957478056065 5.8279169813045852 #
edge $-1 $335 -11.854173455859923 $329 -5.5437550773773054 $326 $367 forward 7 unknown #
straight-curve $-1 23.926647536313428 29.50621394601739 5.5437550773773019 -1 0 0 I I #
point $-1 54.702597125156402 29.50621394601739 5.5437550773773054 #
straight-curve $-1 54.702597125156409 0 11.854173455859923 0 1 0 I I #
point $-1 54.702597125156409 29.50621394601739 11.854173455859923 #
point $-1 47.853295072626857 23.479957478056065 5.8279169813045852 #
straight-curve $-1 -30.994250213436562 -41.538755323282295 0 0 0 -1 I I #
point $-1 -30.994250213436562 -41.538755323282295 11.854173455859923 #
straight-curve $-1 54.702597125156409 29.50621394601739 0 0 0 -1 I I #
End-of-ACIS-data 