500 0 8 0           
7 Unknown 11 ACIS 5.0 NT 24 Fri Mar 26 15:10:21 1999 
-1 9.9999999999999995e-007 1e-010 
body $-1 $8 $-1 $9 #
body $-1 $10 $-1 $11 #
body $-1 $12 $-1 $13 #
body $-1 $14 $-1 $15 #
body $-1 $16 $-1 $17 #
body $-1 $18 $-1 $19 #
body $-1 $20 $-1 $21 #
body $-1 $22 $-1 $23 #
lump $-1 $-1 $24 $0 #
transform $-1 1 0 0 0 1 0 0 0 1 45.387127292703028 18.733704046620705 5.0168272847282953 1 rotate no_reflect no_shear #
lump $-1 $-1 $25 $1 #
transform $-1 1 0 0 0 1 0 0 0 1 45.387127292703028 18.733704046620705 5.0168272847282953 1 rotate no_reflect no_shear #
lump $-1 $-1 $26 $2 #
transform $-1 1 0 0 0 1 0 0 0 1 45.387127292703028 18.733704046620705 5.0168272847282953 1 rotate no_reflect no_shear #
lump $-1 $-1 $27 $3 #
transform $-1 1 0 0 0 1 0 0 0 1 45.387127292703028 18.733704046620705 5.0168272847282953 1 rotate no_reflect no_shear #
lump $-1 $-1 $28 $4 #
transform $-1 1 0 0 0 1 0 0 0 1 45.387127292703028 18.733704046620705 5.0168272847282953 1 rotate no_reflect no_shear #
lump $-1 $-1 $29 $5 #
transform $-1 1 0 0 0 1 0 0 0 1 45.387127292703028 18.733704046620705 5.0168272847282953 1 rotate no_reflect no_shear #
lump $-1 $-1 $30 $6 #
transform $-1 1 0 0 0 1 0 0 0 1 45.387127292703028 18.733704046620705 5.0168272847282953 1 rotate no_reflect no_shear #
lump $-1 $-1 $31 $7 #
transform $-1 1 0 0 0 1 0 0 0 1 45.387127292703028 18.733704046620705 5.0168272847282953 1 rotate no_reflect no_shear #
shell $-1 $-1 $-1 $32 $-1 $8 #
shell $-1 $-1 $-1 $33 $-1 $10 #
shell $-1 $-1 $-1 $34 $-1 $12 #
shell $-1 $-1 $-1 $35 $-1 $14 #
shell $-1 $-1 $-1 $36 $-1 $16 #
shell $-1 $-1 $-1 $37 $-1 $18 #
shell $-1 $-1 $-1 $38 $-1 $20 #
shell $-1 $-1 $-1 $39 $-1 $22 #
face $-1 $40 $41 $24 $-1 $42 reversed single #
face $-1 $43 $44 $25 $-1 $45 forward single #
face $-1 $46 $47 $26 $-1 $48 reversed single #
face $-1 $49 $50 $27 $-1 $51 forward single #
face $-1 $52 $53 $28 $-1 $54 forward single #
face $-1 $55 $56 $29 $-1 $57 forward single #
face $-1 $58 $59 $30 $-1 $60 reversed single #
face $-1 $61 $62 $31 $-1 $63 forward single #
face $-1 $64 $65 $24 $-1 $66 forward single #
loop $-1 $-1 $67 $32 #
plane-surface $-1 0 -18.733704046620705 0 0 1 0 0 0 1 forward_v I I I I #
face $-1 $68 $69 $25 $-1 $70 forward single #
loop $-1 $-1 $71 $33 #
plane-surface $-1 0 -18.733704046620705 0 0 1 0 0 0 1 forward_v I I I I #
face $-1 $72 $73 $26 $-1 $74 reversed single #
loop $-1 $-1 $75 $34 #
plane-surface $-1 -112.84554562613467 -8.1963210196738423 62.732284439575537 0 1 0 -0.74314483375859142 0 0.66913059716165679 forward_v I I I I #
face $-1 $76 $77 $27 $-1 $78 forward single #
loop $-1 $79 $80 $35 #
cone-surface $-1 -43.65397560891671 -6.7555741729594292 3.1700749747525823 0.74314483375859142 0 -0.66913059716165679 0.3345652985808284 0 0.37157241687929571 1 I I 0 1 0.5 forward I I I I #
face $-1 $81 $82 $28 $-1 $83 forward single #
loop $-1 $84 $85 $36 #
cone-surface $-1 -43.65397560891671 -4.5944539028878104 3.1700749747525823 0.74314483375859142 0 -0.66913059716165679 0.3345652985808284 0 0.37157241687929571 1 I I 0 1 0.5 forward I I I I #
face $-1 $86 $87 $29 $-1 $88 forward single #
loop $-1 $89 $90 $37 #
cone-surface $-1 -43.65397560891671 -2.4333336328161899 3.1700749747525823 0.74314483375859142 0 -0.66913059716165679 0.3345652985808284 0 0.37157241687929571 1 I I 0 1 0.5 forward I I I I #
face $-1 $91 $92 $30 $-1 $93 reversed single #
loop $-1 $-1 $94 $38 #
plane-surface $-1 47.627567214466055 -2.9111467448932622 129.89850267441832 0 -1 0 -0.71933980857756763 0 -0.69465836192734942 forward_v I I I I #
face $-1 $95 $96 $31 $-1 $97 forward single #
loop $-1 $98 $99 $39 #
cone-surface $-1 43.102407584607384 -7.4025674360854516 2.693382045335039 -0.71933980857756763 0 -0.69465836192734942 0.34732918096367471 0 -0.35966990428878381 1 I I 0 1 0.5 forward I I I I #
face $-1 $100 $101 $24 $-1 $102 reversed single #
loop $-1 $-1 $103 $40 #
plane-surface $-1 0 0 5.0168272847282953 0 0 1 1 0 0 forward_v I I I I #
coedge $-1 $104 $105 $106 $107 reversed $41 $-1 #
face $-1 $108 $109 $25 $-1 $110 reversed single #
loop $-1 $-1 $111 $43 #
plane-surface $-1 0 0 5.0168272847282953 0 0 1 1 0 0 forward_v I I I I #
coedge $-1 $112 $113 $114 $115 forward $44 $-1 #
face $-1 $116 $117 $26 $-1 $118 reversed single #
loop $-1 $-1 $119 $46 #
plane-surface $-1 -45.387127292703028 -4.5944539028878104 1.9924532619385218 -0.74314483375859142 0 0.66913059716165679 0.66913059716165679 0 0.74314483375859142 forward_v I I I I #
coedge $-1 $120 $121 $122 $123 reversed $47 $-1 #
face $-1 $-1 $124 $27 $-1 $125 forward single #
loop $-1 $126 $127 $49 #
cone-surface $-1 -43.096616983597769 -6.7555741729594292 2.6682270268813397 0.74314483375859142 0 -0.66913059716165679 0.1672826492904142 0 0.18578620843964785 1 I I -0.70710678118654746 0.70710678118654746 0.25 forward I I I I #
loop $-1 $-1 $128 $35 #
coedge $-1 $80 $80 $129 $130 reversed $50 $-1 #
face $-1 $-1 $131 $28 $-1 $132 forward single #
loop $-1 $133 $134 $52 #
cone-surface $-1 -43.096616983597769 -4.5944539028878104 2.6682270268813397 0.74314483375859142 0 -0.66913059716165679 0.1672826492904142 0 0.18578620843964785 1 I I -0.70710678118654746 0.70710678118654746 0.25 forward I I I I #
loop $-1 $-1 $135 $36 #
coedge $-1 $85 $85 $136 $137 reversed $53 $-1 #
face $-1 $-1 $138 $29 $-1 $139 forward single #
loop $-1 $140 $141 $55 #
cone-surface $-1 -43.096616983597769 -2.4333336328161899 2.6682270268813397 0.74314483375859142 0 -0.66913059716165679 0.1672826492904142 0 0.18578620843964785 1 I I -0.70710678118654746 0.70710678118654746 0.25 forward I I I I #
loop $-1 $-1 $142 $37 #
coedge $-1 $90 $90 $143 $144 reversed $56 $-1 #
face $-1 $145 $146 $30 $-1 $147 reversed single #
loop $-1 $-1 $148 $58 #
plane-surface $-1 -17.669967702771331 -7.4025674360854516 66.841407678943966 0.71933980857756763 0 0.69465836192734942 0.69465836192734942 0 -0.71933980857756763 forward_v I I I I #
coedge $-1 $149 $150 $151 $152 reversed $59 $-1 #
face $-1 $-1 $153 $31 $-1 $154 forward single #
loop $-1 $155 $156 $61 #
cone-surface $-1 42.314749483714579 -7.4025674360854516 1.9327494769707894 -0.71933980857756763 0 -0.69465836192734942 0.17366459048183736 0 -0.17983495214439191 1 I I -0.70710678118654746 0.70710678118654746 0.25 forward I I I I #
loop $-1 $-1 $157 $39 #
coedge $-1 $99 $99 $158 $159 reversed $62 $-1 #
face $-1 $160 $161 $24 $-1 $162 reversed single #
loop $-1 $-1 $163 $64 #
plane-surface $-1 0 0 -5.0168272847282953 0 0 1 1 0 0 forward_v I I I I #
coedge $-1 $164 $165 $166 $167 forward $65 $-1 #
coedge $-1 $168 $67 $169 $170 reversed $41 $-1 #
coedge $-1 $67 $168 $171 $172 forward $41 $-1 #
coedge $-1 $173 $163 $67 $107 forward $101 $-1 #
edge $-1 $174 -45.387127292703028 $175 45.387127292703028 $67 $176 forward 7 unknown #
face $-1 $177 $178 $25 $-1 $179 reversed single #
loop $-1 $-1 $180 $68 #
plane-surface $-1 -45.387127292703028 0 0 1 0 0 0 0 -1 forward_v I I I I #
coedge $-1 $181 $182 $113 $183 forward $69 $-1 #
coedge $-1 $184 $71 $185 $186 reversed $44 $-1 #
coedge $-1 $71 $184 $111 $183 reversed $44 $-1 #
coedge $-1 $187 $188 $71 $115 reversed $189 $-1 #
edge $-1 $190 -5.0168272847282953 $191 5.0168272847282953 $114 $192 forward 7 unknown #
face $-1 $193 $194 $26 $-1 $195 reversed single #
loop $-1 $-1 $196 $72 #
plane-surface $-1 -112.84554562613467 -0.99258678610177853 62.732284439575537 0 -1 0 0.74314483375859142 0 -0.66913059716165679 forward_v I I I I #
coedge $-1 $197 $198 $199 $200 reversed $73 $-1 #
coedge $-1 $121 $75 $201 $202 reversed $47 $-1 #
coedge $-1 $75 $120 $197 $203 reversed $47 $-1 #
coedge $-1 $199 $204 $75 $123 forward $205 $-1 #
edge $-1 $206 11.035645520364305 $207 13.758804054178341 $122 $208 forward 7 unknown #
loop $-1 $-1 $129 $76 #
plane-surface $-1 -45.387127292703028 -4.5944539028878104 1.9924532619385218 -0.74314483375859142 0 0.66913059716165679 0.66913059716165679 0 0.74314483375859142 forward_v I I I I #
loop $-1 $-1 $209 $49 #
coedge $-1 $127 $127 $128 $210 reversed $77 $-1 #
coedge $-1 $128 $128 $127 $210 forward $79 $-1 #
coedge $-1 $129 $129 $80 $130 forward $124 $-1 #
edge $-1 $211 0 $211 6.2831853071796004 $129 $212 forward 7 unknown #
loop $-1 $-1 $136 $81 #
plane-surface $-1 -45.387127292703028 -4.5944539028878104 1.9924532619385218 -0.74314483375859142 0 0.66913059716165679 0.66913059716165679 0 0.74314483375859142 forward_v I I I I #
loop $-1 $-1 $213 $52 #
coedge $-1 $134 $134 $135 $214 reversed $82 $-1 #
coedge $-1 $135 $135 $134 $214 forward $84 $-1 #
coedge $-1 $136 $136 $85 $137 forward $131 $-1 #
edge $-1 $215 0 $215 6.2831853071796004 $136 $216 forward 7 unknown #
loop $-1 $-1 $143 $86 #
plane-surface $-1 -45.387127292703028 -4.5944539028878104 1.9924532619385218 -0.74314483375859142 0 0.66913059716165679 0.66913059716165679 0 0.74314483375859142 forward_v I I I I #
loop $-1 $-1 $217 $55 #
coedge $-1 $141 $141 $142 $218 reversed $87 $-1 #
coedge $-1 $142 $142 $141 $218 forward $89 $-1 #
coedge $-1 $143 $143 $90 $144 forward $138 $-1 #
edge $-1 $219 0 $219 6.2831853071796004 $143 $220 forward 7 unknown #
face $-1 $221 $222 $30 $-1 $223 forward single #
loop $-1 $-1 $224 $91 #
plane-surface $-1 47.627567214466055 -11.893988127277641 129.89850267441832 0 1 0 0.71933980857756763 0 0.69465836192734942 forward_v I I I I #
coedge $-1 $225 $226 $227 $228 reversed $92 $-1 #
coedge $-1 $150 $94 $229 $230 reversed $59 $-1 #
coedge $-1 $94 $149 $225 $231 reversed $59 $-1 #
coedge $-1 $227 $232 $94 $152 forward $222 $-1 #
edge $-1 $233 -21.57334368547 $234 -18.219550566775538 $151 $235 forward 7 unknown #
loop $-1 $-1 $158 $95 #
plane-surface $-1 -17.669967702771331 -7.4025674360854516 66.841407678943966 0.71933980857756763 0 0.69465836192734942 0.69465836192734942 0 -0.71933980857756763 forward_v I I I I #
loop $-1 $-1 $236 $61 #
coedge $-1 $156 $156 $157 $237 reversed $96 $-1 #
coedge $-1 $157 $157 $156 $237 forward $98 $-1 #
coedge $-1 $158 $158 $99 $159 forward $153 $-1 #
edge $-1 $238 0 $238 6.2831853071796004 $158 $239 forward 7 unknown #
face $-1 $240 $241 $24 $-1 $242 reversed single #
loop $-1 $-1 $243 $100 #
plane-surface $-1 -45.387127292703028 0 0 1 0 0 0 0 -1 forward_v I I I I #
coedge $-1 $106 $244 $245 $246 forward $101 $-1 #
coedge $-1 $247 $103 $248 $249 forward $65 $-1 #
coedge $-1 $103 $247 $168 $250 forward $65 $-1 #
coedge $-1 $169 $251 $103 $167 reversed $252 $-1 #
edge $-1 $253 -18.733704046620705 $254 18.733704046620705 $166 $255 forward 7 unknown #
coedge $-1 $105 $104 $165 $250 reversed $41 $-1 #
coedge $-1 $245 $166 $104 $170 forward $252 $-1 #
edge $-1 $253 -5.0168272847282953 $174 5.0168272847282953 $169 $256 forward 7 unknown #
coedge $-1 $257 $258 $105 $172 reversed $161 $-1 #
edge $-1 $259 -5.0168272847282953 $175 5.0168272847282953 $171 $260 forward 7 unknown #
coedge $-1 $244 $106 $258 $261 forward $101 $-1 #
vertex $-1 $170 $262 #
vertex $-1 $261 $263 #
straight-curve $-1 0 -18.733704046620705 -5.0168272847282953 -1 0 0 I I #
face $-1 $264 $189 $25 $-1 $265 reversed single #
loop $-1 $-1 $266 $108 #
plane-surface $-1 -43.887127292703028 -22.772875449208836 0 0 1 0 0 0 1 forward_v I I I I #
coedge $-1 $267 $268 $184 $269 forward $109 $-1 #
coedge $-1 $270 $111 $268 $271 forward $69 $-1 #
coedge $-1 $111 $270 $187 $272 forward $69 $-1 #
edge $-1 $190 42.387127292703028 $273 45.387127292703028 $111 $274 forward 7 unknown #
coedge $-1 $113 $112 $180 $269 reversed $44 $-1 #
coedge $-1 $275 $276 $112 $186 forward $277 $-1 #
edge $-1 $278 -45.387127292703028 $191 -42.387127292703028 $185 $279 forward 7 unknown #
coedge $-1 $280 $114 $182 $272 reversed $189 $-1 #
coedge $-1 $114 $280 $275 $281 reversed $189 $-1 #
loop $-1 $-1 $280 $177 #
vertex $-1 $183 $282 #
vertex $-1 $281 $283 #
straight-curve $-1 -42.387127292703028 -18.733704046620705 0 0 0 -1 I I #
face $-1 $-1 $205 $26 $-1 $284 forward single #
loop $-1 $-1 $285 $116 #
plane-surface $-1 -45.387127292703028 0 0 1 0 0 0 0 -1 forward_v I I I I #
coedge $-1 $286 $287 $288 $289 reversed $117 $-1 #
coedge $-1 $290 $119 $121 $203 forward $73 $-1 #
coedge $-1 $119 $290 $286 $291 forward $73 $-1 #
coedge $-1 $288 $122 $119 $200 forward $205 $-1 #
edge $-1 $207 -5.8990940682299371 $292 1.3046401653421267 $199 $293 forward 7 unknown #
coedge $-1 $294 $295 $120 $202 forward $194 $-1 #
edge $-1 $296 -29.373688957849247 $206 -26.349314935059475 $201 $297 forward 7 unknown #
edge $-1 $207 -4.0696966262867562 $296 0 $121 $298 forward 7 unknown #
coedge $-1 $122 $288 $294 $299 forward $205 $-1 #
loop $-1 $-1 $288 $193 #
vertex $-1 $202 $300 #
vertex $-1 $123 $301 #
straight-curve $-1 -56.422772813067333 -8.1963210196738423 5.0168272847282935 1 0 0 I I #
coedge $-1 $209 $209 $-1 $302 reversed $126 $-1 #
edge $-1 $303 0 $303 6.2831853071796004 $127 $304 forward 7 unknown #
vertex $-1 $130 $305 #
ellipse-curve $-1 -44.025548025796006 -6.7555741729594292 3.5046402733334108 -0.74314483375859142 0 0.66913059716165679 0.3345652985808284 0 0.37157241687929571 1 I I #
coedge $-1 $213 $213 $-1 $306 reversed $133 $-1 #
edge $-1 $307 0 $307 6.2831853071796004 $134 $308 forward 7 unknown #
vertex $-1 $137 $309 #
ellipse-curve $-1 -44.025548025796006 -4.5944539028878104 3.5046402733334108 -0.74314483375859142 0 0.66913059716165679 0.3345652985808284 0 0.37157241687929571 1 I I #
coedge $-1 $217 $217 $-1 $310 reversed $140 $-1 #
edge $-1 $311 0 $311 6.2831853071796004 $141 $312 forward 7 unknown #
vertex $-1 $144 $313 #
ellipse-curve $-1 -44.025548025796006 -2.4333336328161899 3.5046402733334108 -0.74314483375859142 0 0.66913059716165679 0.3345652985808284 0 0.37157241687929571 1 I I #
face $-1 $-1 $314 $30 $-1 $315 reversed single #
loop $-1 $-1 $151 $145 #
plane-surface $-1 0 0 5.0168272847282953 0 0 1 1 0 0 forward_v I I I I #
coedge $-1 $316 $317 $318 $319 reversed $146 $-1 #
coedge $-1 $320 $148 $150 $231 forward $92 $-1 #
coedge $-1 $148 $320 $316 $321 forward $92 $-1 #
coedge $-1 $318 $151 $148 $228 forward $222 $-1 #
edge $-1 $234 -0.79013697314946363 $322 8.1927044092349153 $227 $323 forward 7 unknown #
coedge $-1 $324 $325 $149 $230 forward $314 $-1 #
edge $-1 $326 -63.405378575502581 $233 -59.932424052480869 $229 $327 forward 7 unknown #
edge $-1 $234 85.946279709541528 $326 90.774254585406055 $150 $328 forward 7 unknown #
coedge $-1 $151 $318 $324 $329 forward $222 $-1 #
vertex $-1 $152 $330 #
vertex $-1 $152 $331 #
straight-curve $-1 23.813783607233027 -2.9111467448932622 5.0168272847282935 -1 0 0 I I #
coedge $-1 $236 $236 $-1 $332 reversed $155 $-1 #
edge $-1 $333 0 $333 6.2831853071796004 $156 $334 forward 7 unknown #
vertex $-1 $159 $335 #
ellipse-curve $-1 43.710230733355793 -7.4025674360854516 3.2803500232174443 0.71933980857756763 0 0.69465836192734942 0.34732918096367471 0 -0.35966990428878381 1 I I #
face $-1 $-1 $252 $24 $-1 $336 reversed single #
loop $-1 $-1 $337 $160 #
plane-surface $-1 0 18.733704046620705 0 0 -1 0 0 0 -1 forward_v I I I I #
coedge $-1 $258 $257 $338 $339 forward $161 $-1 #
coedge $-1 $163 $173 $340 $341 forward $101 $-1 #
coedge $-1 $251 $169 $163 $246 reversed $252 $-1 #
edge $-1 $342 -18.733704046620705 $174 18.733704046620705 $245 $343 forward 7 unknown #
coedge $-1 $165 $164 $257 $344 forward $65 $-1 #
coedge $-1 $337 $338 $164 $249 reversed $241 $-1 #
edge $-1 $254 -45.387127292703028 $345 45.387127292703028 $248 $346 forward 7 unknown #
edge $-1 $259 -45.387127292703028 $253 45.387127292703028 $168 $347 forward 7 unknown #
coedge $-1 $166 $245 $337 $348 reversed $252 $-1 #
loop $-1 $-1 $169 $240 #
vertex $-1 $167 $349 #
vertex $-1 $167 $350 #
straight-curve $-1 45.387127292703028 0 5.0168272847282953 0 1 0 I I #
straight-curve $-1 45.387127292703028 -18.733704046620705 0 0 0 -1 I I #
coedge $-1 $243 $171 $247 $344 reversed $161 $-1 #
coedge $-1 $171 $243 $173 $261 reversed $161 $-1 #
vertex $-1 $344 $351 #
straight-curve $-1 -45.387127292703028 -18.733704046620705 0 0 0 -1 I I #
edge $-1 $175 -18.733704046620705 $352 18.733704046620705 $258 $353 forward 7 unknown #
point $-1 45.387127292703028 -18.733704046620705 -5.0168272847282953 #
point $-1 -45.387127292703028 -18.733704046620705 -5.0168272847282953 #
face $-1 $-1 $277 $25 $-1 $354 reversed single #
plane-surface $-1 -42.387127292703028 -20.753289747914771 0 -1 0 0 0 0 1 forward_v I I I I #
coedge $-1 $355 $356 $357 $358 forward $178 $-1 #
coedge $-1 $357 $180 $276 $359 reversed $109 $-1 #
coedge $-1 $180 $357 $181 $271 reversed $109 $-1 #
edge $-1 $273 -5.0168272847282953 $278 5.0168272847282953 $180 $360 forward 7 unknown #
coedge $-1 $182 $181 $356 $361 forward $69 $-1 #
edge $-1 $273 18.733704046620705 $362 22.772875449208836 $268 $363 forward 7 unknown #
edge $-1 $364 -2.0195857012940657 $190 2.0195857012940657 $187 $365 forward 7 unknown #
vertex $-1 $271 $366 #
straight-curve $-1 0 -18.733704046620705 5.0168272847282953 -1 0 0 I I #
coedge $-1 $367 $185 $188 $281 forward $277 $-1 #
coedge $-1 $185 $367 $267 $359 forward $277 $-1 #
loop $-1 $-1 $185 $264 #
vertex $-1 $269 $368 #
straight-curve $-1 0 -18.733704046620705 -5.0168272847282953 1 0 0 I I #
coedge $-1 $188 $187 $369 $370 forward $189 $-1 #
edge $-1 $191 -2.0195857012940657 $371 2.0195857012940657 $188 $372 forward 7 unknown #
point $-1 -42.387127292703028 -18.733704046620705 5.0168272847282953 #
point $-1 -42.387127292703028 -18.733704046620705 -5.0168272847282953 #
plane-surface $-1 0 0 5.0168272847282953 0 0 1 1 0 0 forward_v I I I I #
coedge $-1 $295 $294 $287 $373 forward $194 $-1 #
coedge $-1 $287 $196 $198 $291 reversed $117 $-1 #
coedge $-1 $196 $286 $285 $373 reversed $117 $-1 #
coedge $-1 $204 $199 $196 $289 forward $205 $-1 #
edge $-1 $292 -13.758804054178341 $374 -11.035645520364305 $288 $375 forward 7 unknown #
coedge $-1 $198 $197 $295 $376 reversed $73 $-1 #
edge $-1 $377 0 $292 4.0696966262867562 $286 $378 forward 7 unknown #
vertex $-1 $200 $379 #
straight-curve $-1 -42.663968758888984 -2.2972269514439052 5.0168272847282953 0 1 0 I I #
coedge $-1 $285 $201 $204 $299 reversed $194 $-1 #
coedge $-1 $201 $285 $290 $376 forward $194 $-1 #
vertex $-1 $202 $380 #
straight-curve $-1 -45.387127292703028 -8.1963210196738423 31.366142219787768 0 0 1 I I #
straight-curve $-1 -45.387127292703028 -8.1963210196738423 1.9924532619385218 -0.66913059716165679 0 -0.74314483375859142 I I #
edge $-1 $374 0.99258678610177853 $206 8.1963210196738423 $294 $381 forward 7 unknown #
point $-1 -45.387127292703028 -8.1963210196738423 5.0168272847282953 #
point $-1 -42.663968758888991 -8.1963210196738423 5.0168272847282953 #
edge $-1 $382 1 $382 0 $209 $-1 forward 7 unknown #
vertex $-1 $210 $383 #
ellipse-curve $-1 -43.282403192037414 -6.7555741729594292 2.8355096761717538 -0.74314483375859142 0 0.66913059716165679 0.3345652985808284 0 0.37157241687929571 1 I I #
point $-1 -43.690982727215179 -6.7555741729594292 3.8762126902127063 #
edge $-1 $384 1 $384 0 $213 $-1 forward 7 unknown #
vertex $-1 $214 $385 #
ellipse-curve $-1 -43.282403192037414 -4.5944539028878104 2.8355096761717538 -0.74314483375859142 0 0.66913059716165679 0.3345652985808284 0 0.37157241687929571 1 I I #
point $-1 -43.690982727215179 -4.5944539028878104 3.8762126902127063 #
edge $-1 $386 1 $386 0 $217 $-1 forward 7 unknown #
vertex $-1 $218 $387 #
ellipse-curve $-1 -43.282403192037414 -2.4333336328161899 2.8355096761717538 -0.74314483375859142 0 0.66913059716165679 0.3345652985808284 0 0.37157241687929571 1 I I #
point $-1 -43.690982727215179 -2.4333336328161899 3.8762126902127063 #
loop $-1 $-1 $229 $221 #
plane-surface $-1 45.387127292703028 0 0 -1 0 0 0 0 1 forward_v I I I I #
coedge $-1 $317 $224 $226 $321 reversed $146 $-1 #
coedge $-1 $224 $316 $388 $389 reversed $146 $-1 #
coedge $-1 $232 $227 $224 $319 forward $222 $-1 #
edge $-1 $322 18.219550566775538 $390 21.57334368547 $318 $391 forward 7 unknown #
coedge $-1 $226 $225 $325 $392 reversed $92 $-1 #
edge $-1 $393 -90.774254585406055 $322 -85.946279709541528 $316 $394 forward 7 unknown #
vertex $-1 $228 $395 #
straight-curve $-1 42.033334174008566 -3.7012837180427258 5.0168272847282935 0 -1 0 I I #
coedge $-1 $388 $229 $232 $329 reversed $314 $-1 #
coedge $-1 $229 $388 $320 $392 forward $314 $-1 #
vertex $-1 $230 $396 #
straight-curve $-1 45.387127292703028 -2.9111467448932622 64.949251337209162 0 0 1 I I #
straight-curve $-1 -17.669967702771331 -2.9111467448932622 66.841407678943966 0.69465836192734942 0 -0.71933980857756763 I I #
edge $-1 $390 -11.893988127277641 $233 -2.9111467448932622 $324 $397 forward 7 unknown #
point $-1 45.387127292703028 -2.9111467448932622 5.0168272847282953 #
point $-1 42.033334174008566 -2.9111467448932622 5.0168272847282864 #
edge $-1 $398 1 $398 0 $236 $-1 forward 7 unknown #
vertex $-1 $237 $399 #
ellipse-curve $-1 42.494584435858968 -7.4025674360854516 2.1064140674526266 0.71933980857756763 0 0.69465836192734942 0.34732918096367471 0 -0.35966990428878381 1 I I #
point $-1 44.057559914319469 -7.4025674360854516 2.9206801189286677 #
plane-surface $-1 45.387127292703028 0 0 -1 0 0 0 0 1 forward_v I I I I #
coedge $-1 $340 $248 $251 $348 forward $241 $-1 #
coedge $-1 $248 $340 $243 $339 reversed $241 $-1 #
edge $-1 $345 -5.0168272847282953 $352 5.0168272847282953 $338 $400 forward 7 unknown #
coedge $-1 $338 $337 $244 $341 reversed $241 $-1 #
edge $-1 $352 -45.387127292703028 $342 45.387127292703028 $340 $401 forward 7 unknown #
vertex $-1 $246 $402 #
straight-curve $-1 45.387127292703028 0 -5.0168272847282953 0 -1 0 I I #
edge $-1 $345 -18.733704046620705 $259 18.733704046620705 $257 $403 forward 7 unknown #
vertex $-1 $249 $404 #
straight-curve $-1 0 18.733704046620705 5.0168272847282953 -1 0 0 I I #
straight-curve $-1 0 -18.733704046620705 5.0168272847282953 1 0 0 I I #
edge $-1 $254 -5.0168272847282953 $342 5.0168272847282953 $251 $405 forward 7 unknown #
point $-1 45.387127292703028 -18.733704046620705 5.0168272847282953 #
point $-1 45.387127292703028 18.733704046620705 5.0168272847282953 #
point $-1 -45.387127292703028 -18.733704046620705 5.0168272847282953 #
vertex $-1 $341 $406 #
straight-curve $-1 -45.387127292703028 0 -5.0168272847282953 0 1 0 I I #
plane-surface $-1 0 0 -5.0168272847282953 0 0 1 1 0 0 forward_v I I I I #
coedge $-1 $369 $266 $367 $407 reversed $178 $-1 #
coedge $-1 $266 $369 $270 $361 reversed $178 $-1 #
coedge $-1 $268 $267 $266 $358 reversed $109 $-1 #
edge $-1 $362 -5.0168272847282953 $408 5.0168272847282953 $357 $409 forward 7 unknown #
edge $-1 $408 -22.772875449208836 $278 -18.733704046620705 $267 $410 forward 7 unknown #
straight-curve $-1 -45.387127292703028 -18.733704046620705 0 0 0 -1 I I #
edge $-1 $362 -1.5 $364 1.5 $356 $411 forward 7 unknown #
vertex $-1 $271 $412 #
straight-curve $-1 -45.387127292703028 0 5.0168272847282953 0 -1 0 I I #
vertex $-1 $272 $413 #
straight-curve $-1 -42.387127292703028 -20.753289747914771 5.0168272847282953 0 1 0 I I #
point $-1 -45.387127292703028 -18.733704046620705 5.0168272847282953 #
coedge $-1 $276 $275 $355 $407 forward $277 $-1 #
point $-1 -45.387127292703028 -18.733704046620705 -5.0168272847282953 #
coedge $-1 $356 $355 $280 $370 reversed $178 $-1 #
edge $-1 $364 -5.0168272847282953 $371 5.0168272847282953 $280 $414 forward 7 unknown #
vertex $-1 $370 $415 #
straight-curve $-1 -42.387127292703028 -20.753289747914771 -5.0168272847282953 0 -1 0 I I #
edge $-1 $374 26.349314935059475 $377 29.373688957849247 $285 $416 forward 7 unknown #
vertex $-1 $299 $417 #
straight-curve $-1 -56.422772813067333 -0.99258678610177853 5.0168272847282935 -1 0 0 I I #
edge $-1 $377 -1.3046401653421267 $296 5.8990940682299371 $295 $418 forward 7 unknown #
vertex $-1 $376 $419 #
straight-curve $-1 -45.387127292703028 -0.99258678610177853 1.9924532619385218 0.66913059716165679 0 0.74314483375859142 I I #
point $-1 -42.663968758888991 -0.99258678610177853 5.0168272847282953 #
point $-1 -45.387127292703028 -8.1963210196738423 1.9924532619385218 #
straight-curve $-1 -45.387127292703028 0 5.0168272847282953 0 -1 0 I I #
vertex $-1 $302 $420 #
point $-1 -42.947837893456587 -6.7555741729594292 3.2070820930510497 #
vertex $-1 $306 $421 #
point $-1 -42.947837893456587 -4.5944539028878104 3.2070820930510497 #
vertex $-1 $310 $422 #
point $-1 -42.947837893456587 -2.4333336328161899 3.2070820930510497 #
coedge $-1 $325 $324 $317 $389 forward $314 $-1 #
edge $-1 $390 59.932424052480869 $393 63.405378575502581 $388 $423 forward 7 unknown #
vertex $-1 $329 $424 #
straight-curve $-1 23.813783607233027 -11.893988127277641 5.0168272847282935 1 0 0 I I #
edge $-1 $393 -8.1927044092349153 $326 0.79013697314946363 $325 $425 forward 7 unknown #
vertex $-1 $392 $426 #
straight-curve $-1 -17.669967702771331 -11.893988127277641 66.841407678943966 -0.69465836192734942 0 0.71933980857756763 I I #
point $-1 42.033334174008566 -11.893988127277641 5.0168272847282864 #
point $-1 45.387127292703028 -2.9111467448932622 1.5438727617065808 #
straight-curve $-1 45.387127292703028 0 5.0168272847282953 0 1 0 I I #
vertex $-1 $332 $427 #
point $-1 42.841913616822644 -7.4025674360854516 1.746744163163843 #
straight-curve $-1 -45.387127292703028 18.733704046620705 0 0 0 -1 I I #
straight-curve $-1 0 18.733704046620705 -5.0168272847282953 1 0 0 I I #
point $-1 45.387127292703028 18.733704046620705 -5.0168272847282953 #
straight-curve $-1 -45.387127292703028 0 5.0168272847282953 0 -1 0 I I #
point $-1 -45.387127292703028 18.733704046620705 5.0168272847282953 #
straight-curve $-1 45.387127292703028 18.733704046620705 0 0 0 -1 I I #
point $-1 -45.387127292703028 18.733704046620705 -5.0168272847282953 #
edge $-1 $371 -1.5 $408 1.5 $355 $428 forward 7 unknown #
vertex $-1 $359 $429 #
straight-curve $-1 -45.387127292703028 -22.772875449208836 0 0 0 -1 I I #
straight-curve $-1 -45.387127292703028 0 -5.0168272847282953 0 1 0 I I #
straight-curve $-1 -43.887127292703028 -22.772875449208836 5.0168272847282953 1 0 0 I I #
point $-1 -45.387127292703028 -22.772875449208836 5.0168272847282953 #
point $-1 -42.387127292703028 -22.772875449208836 5.0168272847282953 #
straight-curve $-1 -42.387127292703028 -22.772875449208836 0 0 0 -1 I I #
point $-1 -42.387127292703028 -22.772875449208836 -5.0168272847282953 #
straight-curve $-1 -45.387127292703028 -0.99258678610177853 31.366142219787768 0 0 -1 I I #
point $-1 -45.387127292703028 -0.99258678610177853 5.0168272847282953 #
straight-curve $-1 -45.387127292703028 -2.2972269514439052 1.9924532619385231 0 -1 0 I I #
point $-1 -45.387127292703028 -0.99258678610177853 1.9924532619385218 #
point $-1 -42.910830775158125 -6.7555741729594292 2.5009443775909257 #
point $-1 -42.910830775158125 -4.5944539028878104 2.5009443775909257 #
point $-1 -42.910830775158125 -2.4333336328161899 2.5009443775909257 #
straight-curve $-1 45.387127292703028 -11.893988127277641 64.949251337209162 0 0 -1 I I #
point $-1 45.387127292703028 -11.893988127277641 5.0168272847282953 #
straight-curve $-1 45.387127292703028 -3.7012837180427258 1.5438727617065879 0 1 0 I I #
point $-1 45.387127292703028 -11.893988127277641 1.5438727617065808 #
point $-1 42.134914531570189 -7.4025674360854516 1.7590848864889521 #
straight-curve $-1 -43.887127292703028 -22.772875449208836 -5.0168272847282953 -1 0 0 I I #
point $-1 -45.387127292703028 -22.772875449208836 -5.0168272847282953 #
End-of-ACIS-data 