500 0 18 0           
7 Unknown 11 ACIS 5.0 NT 24 Fri Mar 26 19:58:17 1999 
-1 9.9999999999999995e-007 1e-010 
body $-1 $18 $-1 $19 #
body $-1 $20 $-1 $21 #
body $-1 $22 $-1 $23 #
body $-1 $24 $-1 $25 #
body $-1 $26 $-1 $27 #
body $-1 $28 $-1 $29 #
body $-1 $30 $-1 $31 #
body $-1 $32 $-1 $33 #
body $-1 $34 $-1 $35 #
body $-1 $36 $-1 $37 #
body $-1 $38 $-1 $39 #
body $-1 $40 $-1 $41 #
body $-1 $42 $-1 $43 #
body $-1 $44 $-1 $45 #
body $-1 $46 $-1 $47 #
body $-1 $48 $-1 $49 #
body $-1 $50 $-1 $51 #
body $-1 $52 $-1 $53 #
lump $-1 $-1 $54 $0 #
transform $-1 1 0 0 0 1 0 0 0 1 48.834498123111665 29.581630997534297 6.3594141994333055 1 rotate no_reflect no_shear #
lump $-1 $-1 $55 $1 #
transform $-1 1 0 0 0 1 0 0 0 1 48.834498123111665 29.581630997534297 6.3594141994333055 1 rotate no_reflect no_shear #
lump $-1 $-1 $56 $2 #
transform $-1 1 0 0 0 1 0 0 0 1 48.834498123111665 29.581630997534297 6.3594141994333055 1 rotate no_reflect no_shear #
lump $-1 $-1 $57 $3 #
transform $-1 1 0 0 0 1 0 0 0 1 48.834498123111665 29.581630997534297 6.3594141994333055 1 rotate no_reflect no_shear #
lump $-1 $-1 $58 $4 #
transform $-1 1 0 0 0 1 0 0 0 1 48.834498123111665 29.581630997534297 6.3594141994333055 1 rotate no_reflect no_shear #
lump $-1 $-1 $59 $5 #
transform $-1 1 0 0 0 1 0 0 0 1 48.834498123111665 29.581630997534297 6.3594141994333055 1 rotate no_reflect no_shear #
lump $-1 $-1 $60 $6 #
transform $-1 1 0 0 0 1 0 0 0 1 48.834498123111665 29.581630997534297 6.3594141994333055 1 rotate no_reflect no_shear #
lump $-1 $-1 $61 $7 #
transform $-1 1 0 0 0 1 0 0 0 1 48.834498123111665 29.581630997534297 6.3594141994333055 1 rotate no_reflect no_shear #
lump $-1 $-1 $62 $8 #
transform $-1 1 0 0 0 1 0 0 0 1 48.834498123111665 29.581630997534297 6.3594141994333055 1 rotate no_reflect no_shear #
lump $-1 $-1 $63 $9 #
transform $-1 1 0 0 0 1 0 0 0 1 48.834498123111665 29.581630997534297 6.3594141994333055 1 rotate no_reflect no_shear #
lump $-1 $-1 $64 $10 #
transform $-1 1 0 0 0 1 0 0 0 1 48.834498123111665 29.581630997534297 6.3594141994333055 1 rotate no_reflect no_shear #
lump $-1 $-1 $65 $11 #
transform $-1 1 0 0 0 1 0 0 0 1 48.834498123111665 29.581630997534297 6.3594141994333055 1 rotate no_reflect no_shear #
lump $-1 $-1 $66 $12 #
transform $-1 1 0 0 0 1 0 0 0 1 48.834498123111665 29.581630997534297 6.3594141994333055 1 rotate no_reflect no_shear #
lump $-1 $-1 $67 $13 #
transform $-1 1 0 0 0 1 0 0 0 1 48.834498123111665 29.581630997534297 6.3594141994333055 1 rotate no_reflect no_shear #
lump $-1 $-1 $68 $14 #
transform $-1 1 0 0 0 1 0 0 0 1 48.834498123111665 29.581630997534297 6.3594141994333055 1 rotate no_reflect no_shear #
lump $-1 $-1 $69 $15 #
transform $-1 1 0 0 0 1 0 0 0 1 48.834498123111665 29.581630997534297 6.3594141994333055 1 rotate no_reflect no_shear #
lump $-1 $-1 $70 $16 #
transform $-1 1 0 0 0 1 0 0 0 1 48.834498123111665 29.581630997534297 6.3594141994333055 1 rotate no_reflect no_shear #
lump $-1 $-1 $71 $17 #
transform $-1 1 0 0 0 1 0 0 0 1 48.834498123111665 29.581630997534297 6.3594141994333055 1 rotate no_reflect no_shear #
shell $-1 $-1 $-1 $72 $-1 $18 #
shell $-1 $-1 $-1 $73 $-1 $20 #
shell $-1 $-1 $-1 $74 $-1 $22 #
shell $-1 $-1 $-1 $75 $-1 $24 #
shell $-1 $-1 $-1 $76 $-1 $26 #
shell $-1 $-1 $-1 $77 $-1 $28 #
shell $-1 $-1 $-1 $78 $-1 $30 #
shell $-1 $-1 $-1 $79 $-1 $32 #
shell $-1 $-1 $-1 $80 $-1 $34 #
shell $-1 $-1 $-1 $81 $-1 $36 #
shell $-1 $-1 $-1 $82 $-1 $38 #
shell $-1 $-1 $-1 $83 $-1 $40 #
shell $-1 $-1 $-1 $84 $-1 $42 #
shell $-1 $-1 $-1 $85 $-1 $44 #
shell $-1 $-1 $-1 $86 $-1 $46 #
shell $-1 $-1 $-1 $87 $-1 $48 #
shell $-1 $-1 $-1 $88 $-1 $50 #
shell $-1 $-1 $-1 $89 $-1 $52 #
face $-1 $90 $91 $54 $-1 $92 forward single #
face $-1 $93 $94 $55 $-1 $95 reversed single #
face $-1 $96 $97 $56 $-1 $98 reversed single #
face $-1 $99 $100 $57 $-1 $101 forward single #
face $-1 $102 $103 $58 $-1 $104 forward single #
face $-1 $105 $106 $59 $-1 $107 reversed single #
face $-1 $108 $109 $60 $-1 $110 forward single #
face $-1 $111 $112 $61 $-1 $113 forward single #
face $-1 $114 $115 $62 $-1 $116 reversed single #
face $-1 $117 $118 $63 $-1 $119 forward single #
face $-1 $120 $121 $64 $-1 $122 forward single #
face $-1 $123 $124 $65 $-1 $125 reversed single #
face $-1 $126 $127 $66 $-1 $128 forward single #
face $-1 $129 $130 $67 $-1 $131 forward single #
face $-1 $132 $133 $68 $-1 $134 reversed single #
face $-1 $135 $136 $69 $-1 $137 forward single #
face $-1 $138 $139 $70 $-1 $140 forward single #
face $-1 $141 $142 $71 $-1 $143 forward single #
face $-1 $144 $145 $54 $-1 $146 reversed single #
loop $-1 $-1 $147 $72 #
plane-surface $-1 0 0 6.3594141994333055 0 0 1 1 0 0 forward_v I I I I #
face $-1 $148 $149 $55 $-1 $150 reversed single #
loop $-1 $-1 $151 $73 #
plane-surface $-1 -45.09047671012739 -26.581630997534297 0 0 -1 0 0 0 -1 forward_v I I I I #
face $-1 $152 $153 $56 $-1 $154 reversed single #
loop $-1 $-1 $155 $74 #
plane-surface $-1 -41.346455297143109 58.740573397482798 112.98632915741919 1 0 0 0 -0.71933980857756763 -0.69465836192734942 forward_v I I I I #
face $-1 $156 $157 $57 $-1 $158 forward single #
loop $-1 $159 $160 $75 #
cone-surface $-1 -37.569764927840318 26.979259442234909 3.7189238320819396 0 -0.71933980857756763 -0.69465836192734942 1 0 0 1 I I 0 1 1 forward I I I I #
face $-1 $161 $162 $58 $-1 $163 forward single #
loop $-1 $164 $165 $76 #
cone-surface $-1 -31.904729373886127 26.979259442234909 3.7189238320819396 0 -0.71933980857756763 -0.69465836192734942 1 0 0 1 I I 0 1 1 forward I I I I #
face $-1 $166 $167 $59 $-1 $168 reversed single #
loop $-1 $-1 $169 $77 #
plane-surface $-1 -18.801216942079417 58.740573397482798 112.98632915741919 1 0 0 0 -0.71933980857756763 -0.69465836192734942 forward_v I I I I #
face $-1 $170 $171 $60 $-1 $172 forward single #
loop $-1 $173 $174 $78 #
cone-surface $-1 -15.024526572776622 26.979259442234909 3.7189238320819396 0 -0.71933980857756763 -0.69465836192734942 1 0 0 1 I I 0 1 1 forward I I I I #
face $-1 $175 $176 $61 $-1 $177 forward single #
loop $-1 $178 $179 $79 #
cone-surface $-1 -9.3594910188224318 26.979259442234909 3.7189238320819396 0 -0.71933980857756763 -0.69465836192734942 1 0 0 1 I I 0 1 1 forward I I I I #
face $-1 $180 $181 $62 $-1 $182 reversed single #
loop $-1 $-1 $183 $80 #
plane-surface $-1 3.7440214129842779 58.740573397482798 112.98632915741919 1 0 0 0 -0.71933980857756763 -0.69465836192734942 forward_v I I I I #
face $-1 $184 $185 $63 $-1 $186 forward single #
loop $-1 $187 $188 $81 #
cone-surface $-1 7.5207117822870728 26.979259442234909 3.7189238320819396 0 -0.71933980857756763 -0.69465836192734942 1 0 0 1 I I 0 1 1 forward I I I I #
face $-1 $189 $190 $64 $-1 $191 forward single #
loop $-1 $192 $193 $82 #
cone-surface $-1 13.185747336241263 26.979259442234909 3.7189238320819396 0 -0.71933980857756763 -0.69465836192734942 1 0 0 1 I I 0 1 1 forward I I I I #
face $-1 $194 $195 $65 $-1 $196 reversed single #
loop $-1 $-1 $197 $83 #
plane-surface $-1 26.289259768047973 58.740573397482798 112.98632915741919 1 0 0 0 -0.71933980857756763 -0.69465836192734942 forward_v I I I I #
face $-1 $198 $199 $66 $-1 $200 forward single #
loop $-1 $201 $202 $84 #
cone-surface $-1 30.065950137350775 26.979259442234909 3.7189238320819396 0 -0.71933980857756763 -0.69465836192734942 1 0 0 1 I I 0 1 1 forward I I I I #
face $-1 $203 $204 $67 $-1 $205 forward single #
loop $-1 $206 $207 $85 #
cone-surface $-1 35.730985691304959 26.979259442234909 3.7189238320819396 0 -0.71933980857756763 -0.69465836192734942 1 0 0 1 I I 0 1 1 forward I I I I #
face $-1 $208 $209 $68 $-1 $210 reversed single #
loop $-1 $-1 $211 $86 #
plane-surface $-1 0.473035887373495 -89.712670074133456 78.208043725260978 -1 0 0 0 -0.61566148304635926 0.78801074757464917 forward_v I I I I #
face $-1 $212 $213 $69 $-1 $214 forward single #
loop $-1 $215 $216 $87 #
cone-surface $-1 -14.792361722383944 -25.810216990212535 3.1647382258017354 0 0.61566148304635926 -0.78801074757464917 0.5 0 0 1 I I 0 1 0.5 forward I I I I #
face $-1 $217 $218 $70 $-1 $219 forward single #
loop $-1 $220 $221 $88 #
cone-surface $-1 -9.0678376187249015 -25.810216990212535 3.1647382258017354 0 0.61566148304635926 -0.78801074757464917 0.5 0 0 1 I I 0 1 0.5 forward I I I I #
face $-1 $222 $223 $71 $-1 $224 forward single #
loop $-1 $225 $226 $89 #
cone-surface $-1 -3.3433135150658657 -25.810216990212535 3.1647382258017354 0 0.61566148304635926 -0.78801074757464917 0.5 0 0 1 I I 0 1 0.5 forward I I I I #
face $-1 $227 $228 $54 $-1 $229 reversed single #
loop $-1 $-1 $230 $90 #
plane-surface $-1 0 0 -6.3594141994333055 0 0 1 1 0 0 forward_v I I I I #
coedge $-1 $231 $232 $233 $234 forward $91 $-1 #
face $-1 $235 $236 $55 $-1 $237 forward single #
loop $-1 $-1 $238 $93 #
plane-surface $-1 -41.346455297143116 -28.081630997534297 0 -1 0 0 0 0 1 forward_v I I I I #
coedge $-1 $239 $240 $241 $242 forward $94 $-1 #
face $-1 $243 $244 $56 $-1 $245 reversed single #
loop $-1 $-1 $246 $96 #
plane-surface $-1 -34.737247150863226 -11.516623666238665 45.139744213929248 0 0.71933980857756763 0.69465836192734942 1 0 0 forward_v I I I I #
coedge $-1 $247 $248 $249 $250 reversed $97 $-1 #
face $-1 $-1 $251 $57 $-1 $252 forward single #
loop $-1 $253 $254 $99 #
cone-surface $-1 -37.569764927840318 25.841481069815892 2.620184055697476 0 -0.71933980857756763 -0.69465836192734942 0.5 0 0 1 I I -0.70710678118654746 0.70710678118654746 0.5 forward I I I I #
loop $-1 $-1 $255 $75 #
coedge $-1 $160 $160 $256 $257 reversed $100 $-1 #
face $-1 $-1 $258 $58 $-1 $259 forward single #
loop $-1 $260 $261 $102 #
cone-surface $-1 -31.904729373886127 25.841481069815892 2.620184055697476 0 -0.71933980857756763 -0.69465836192734942 0.5 0 0 1 I I -0.70710678118654746 0.70710678118654746 0.5 forward I I I I #
loop $-1 $-1 $262 $76 #
coedge $-1 $165 $165 $263 $264 reversed $103 $-1 #
face $-1 $265 $266 $59 $-1 $267 reversed single #
loop $-1 $-1 $268 $105 #
plane-surface $-1 -12.192008795799531 -11.516623666238665 45.139744213929248 0 0.71933980857756763 0.69465836192734942 1 0 0 forward_v I I I I #
coedge $-1 $269 $270 $271 $272 reversed $106 $-1 #
face $-1 $-1 $273 $60 $-1 $274 forward single #
loop $-1 $275 $276 $108 #
cone-surface $-1 -15.024526572776622 25.841481069815892 2.620184055697476 0 -0.71933980857756763 -0.69465836192734942 0.5 0 0 1 I I -0.70710678118654746 0.70710678118654746 0.5 forward I I I I #
loop $-1 $-1 $277 $78 #
coedge $-1 $174 $174 $278 $279 reversed $109 $-1 #
face $-1 $-1 $280 $61 $-1 $281 forward single #
loop $-1 $282 $283 $111 #
cone-surface $-1 -9.3594910188224318 25.841481069815892 2.620184055697476 0 -0.71933980857756763 -0.69465836192734942 0.5 0 0 1 I I -0.70710678118654746 0.70710678118654746 0.5 forward I I I I #
loop $-1 $-1 $284 $79 #
coedge $-1 $179 $179 $285 $286 reversed $112 $-1 #
face $-1 $287 $288 $62 $-1 $289 reversed single #
loop $-1 $-1 $290 $114 #
plane-surface $-1 10.353229559264165 -11.516623666238665 45.139744213929248 0 0.71933980857756763 0.69465836192734942 1 0 0 forward_v I I I I #
coedge $-1 $291 $292 $293 $294 reversed $115 $-1 #
face $-1 $-1 $295 $63 $-1 $296 forward single #
loop $-1 $297 $298 $117 #
cone-surface $-1 7.5207117822870728 25.841481069815892 2.620184055697476 0 -0.71933980857756763 -0.69465836192734942 0.5 0 0 1 I I -0.70710678118654746 0.70710678118654746 0.5 forward I I I I #
loop $-1 $-1 $299 $81 #
coedge $-1 $188 $188 $300 $301 reversed $118 $-1 #
face $-1 $-1 $302 $64 $-1 $303 forward single #
loop $-1 $304 $305 $120 #
cone-surface $-1 13.185747336241263 25.841481069815892 2.620184055697476 0 -0.71933980857756763 -0.69465836192734942 0.5 0 0 1 I I -0.70710678118654746 0.70710678118654746 0.5 forward I I I I #
loop $-1 $-1 $306 $82 #
coedge $-1 $193 $193 $307 $308 reversed $121 $-1 #
face $-1 $309 $310 $65 $-1 $311 reversed single #
loop $-1 $-1 $312 $123 #
plane-surface $-1 32.89846791432786 -11.516623666238665 45.139744213929248 0 0.71933980857756763 0.69465836192734942 1 0 0 forward_v I I I I #
coedge $-1 $313 $314 $315 $316 reversed $124 $-1 #
face $-1 $-1 $317 $66 $-1 $318 forward single #
loop $-1 $319 $320 $126 #
cone-surface $-1 30.065950137350775 25.841481069815892 2.620184055697476 0 -0.71933980857756763 -0.69465836192734942 0.5 0 0 1 I I -0.70710678118654746 0.70710678118654746 0.5 forward I I I I #
loop $-1 $-1 $321 $84 #
coedge $-1 $202 $202 $322 $323 reversed $127 $-1 #
face $-1 $-1 $324 $67 $-1 $325 forward single #
loop $-1 $326 $327 $129 #
cone-surface $-1 35.730985691304959 25.841481069815892 2.620184055697476 0 -0.71933980857756763 -0.69465836192734942 0.5 0 0 1 I I -0.70710678118654746 0.70710678118654746 0.5 forward I I I I #
loop $-1 $-1 $328 $85 #
coedge $-1 $207 $207 $329 $330 reversed $130 $-1 #
face $-1 $331 $332 $68 $-1 $333 reversed single #
loop $-1 $-1 $334 $132 #
plane-surface $-1 -9.0678376187249015 -29.581630997534305 1.2438249784089237 0 -0.61566148304635926 0.78801074757464917 1 0 0 forward_v I I I I #
coedge $-1 $335 $336 $337 $338 reversed $133 $-1 #
face $-1 $-1 $339 $69 $-1 $340 forward single #
loop $-1 $341 $342 $135 #
cone-surface $-1 -14.792361722383944 -25.158715354606866 2.3308541757886987 0 0.61566148304635926 -0.78801074757464917 0.25 0 0 1 I I -0.70710678118654746 0.70710678118654746 0.25 forward I I I I #
loop $-1 $-1 $343 $87 #
coedge $-1 $216 $216 $344 $345 reversed $136 $-1 #
face $-1 $-1 $346 $70 $-1 $347 forward single #
loop $-1 $348 $349 $138 #
cone-surface $-1 -9.0678376187249015 -25.158715354606866 2.3308541757886987 0 0.61566148304635926 -0.78801074757464917 0.25 0 0 1 I I -0.70710678118654746 0.70710678118654746 0.25 forward I I I I #
loop $-1 $-1 $350 $88 #
coedge $-1 $221 $221 $351 $352 reversed $139 $-1 #
face $-1 $-1 $353 $71 $-1 $354 forward single #
loop $-1 $355 $356 $141 #
cone-surface $-1 -3.3433135150658657 -25.158715354606866 2.3308541757886987 0 0.61566148304635926 -0.78801074757464917 0.25 0 0 1 I I -0.70710678118654746 0.70710678118654746 0.25 forward I I I I #
loop $-1 $-1 $357 $89 #
coedge $-1 $226 $226 $358 $359 reversed $142 $-1 #
face $-1 $360 $361 $54 $-1 $362 reversed single #
loop $-1 $-1 $363 $144 #
plane-surface $-1 0 -29.581630997534297 0 0 1 0 0 0 1 forward_v I I I I #
coedge $-1 $364 $365 $366 $367 forward $145 $-1 #
coedge $-1 $368 $147 $369 $370 forward $91 $-1 #
coedge $-1 $147 $368 $371 $372 forward $91 $-1 #
coedge $-1 $373 $374 $147 $234 reversed $375 $-1 #
edge $-1 $376 -29.581630997534297 $377 29.581630997534297 $233 $378 forward 7 unknown #
face $-1 $379 $380 $55 $-1 $381 reversed single #
loop $-1 $-1 $382 $148 #
plane-surface $-1 0 0 6.3594141994333055 0 0 1 1 0 0 forward_v I I I I #
coedge $-1 $383 $384 $385 $386 reversed $149 $-1 #
coedge $-1 $387 $151 $388 $389 reversed $94 $-1 #
coedge $-1 $151 $387 $390 $391 reversed $94 $-1 #
coedge $-1 $384 $383 $151 $242 reversed $149 $-1 #
edge $-1 $392 -6.3594141994333055 $393 6.3594141994333055 $241 $394 forward 7 unknown #
face $-1 $395 $396 $56 $-1 $397 reversed single #
loop $-1 $-1 $398 $152 #
plane-surface $-1 -28.128039004583339 58.740573397482798 112.98632915741919 -1 0 0 0 0.71933980857756763 0.69465836192734942 forward_v I I I I #
coedge $-1 $399 $400 $401 $402 reversed $153 $-1 #
coedge $-1 $248 $155 $403 $404 reversed $97 $-1 #
coedge $-1 $155 $247 $399 $405 reversed $97 $-1 #
coedge $-1 $401 $406 $155 $250 forward $407 $-1 #
edge $-1 $408 -0.2113442987928984 $409 3.437181875545452 $249 $410 forward 7 unknown #
loop $-1 $-1 $256 $156 #
plane-surface $-1 -34.737247150863226 -11.516623666238665 45.139744213929248 0 0.71933980857756763 0.69465836192734942 1 0 0 forward_v I I I I #
loop $-1 $-1 $411 $99 #
coedge $-1 $254 $254 $255 $412 reversed $157 $-1 #
coedge $-1 $255 $255 $254 $412 forward $159 $-1 #
coedge $-1 $256 $256 $160 $257 forward $251 $-1 #
edge $-1 $413 -5.261166787608898e-016 $413 6.2831853071795996 $256 $414 forward 7 unknown #
loop $-1 $-1 $263 $161 #
plane-surface $-1 -34.737247150863226 -11.516623666238665 45.139744213929248 0 0.71933980857756763 0.69465836192734942 1 0 0 forward_v I I I I #
loop $-1 $-1 $415 $102 #
coedge $-1 $261 $261 $262 $416 reversed $162 $-1 #
coedge $-1 $262 $262 $261 $416 forward $164 $-1 #
coedge $-1 $263 $263 $165 $264 forward $258 $-1 #
edge $-1 $417 -5.261166787608898e-016 $417 6.2831853071795996 $263 $418 forward 7 unknown #
face $-1 $419 $420 $59 $-1 $421 forward single #
loop $-1 $-1 $422 $166 #
plane-surface $-1 -5.5828006495196441 58.740573397482798 112.98632915741919 -1 0 0 0 0.71933980857756763 0.69465836192734942 forward_v I I I I #
coedge $-1 $423 $424 $425 $426 reversed $167 $-1 #
coedge $-1 $270 $169 $427 $428 reversed $106 $-1 #
coedge $-1 $169 $269 $423 $429 reversed $106 $-1 #
coedge $-1 $425 $430 $169 $272 forward $420 $-1 #
edge $-1 $431 -0.2113442987928984 $432 3.437181875545452 $271 $433 forward 7 unknown #
loop $-1 $-1 $278 $170 #
plane-surface $-1 -12.192008795799531 -11.516623666238665 45.139744213929248 0 0.71933980857756763 0.69465836192734942 1 0 0 forward_v I I I I #
loop $-1 $-1 $434 $108 #
coedge $-1 $276 $276 $277 $435 reversed $171 $-1 #
coedge $-1 $277 $277 $276 $435 forward $173 $-1 #
coedge $-1 $278 $278 $174 $279 forward $273 $-1 #
edge $-1 $436 -5.261166787608898e-016 $436 6.2831853071795996 $278 $437 forward 7 unknown #
loop $-1 $-1 $285 $175 #
plane-surface $-1 -12.192008795799531 -11.516623666238665 45.139744213929248 0 0.71933980857756763 0.69465836192734942 1 0 0 forward_v I I I I #
loop $-1 $-1 $438 $111 #
coedge $-1 $283 $283 $284 $439 reversed $176 $-1 #
coedge $-1 $284 $284 $283 $439 forward $178 $-1 #
coedge $-1 $285 $285 $179 $286 forward $280 $-1 #
edge $-1 $440 -5.261166787608898e-016 $440 6.2831853071795996 $285 $441 forward 7 unknown #
face $-1 $442 $443 $62 $-1 $444 forward single #
loop $-1 $-1 $445 $180 #
plane-surface $-1 16.962437705544051 58.740573397482798 112.98632915741919 -1 0 0 0 0.71933980857756763 0.69465836192734942 forward_v I I I I #
coedge $-1 $446 $447 $448 $449 reversed $181 $-1 #
coedge $-1 $292 $183 $450 $451 reversed $115 $-1 #
coedge $-1 $183 $291 $446 $452 reversed $115 $-1 #
coedge $-1 $448 $453 $183 $294 forward $443 $-1 #
edge $-1 $454 -0.2113442987928984 $455 3.437181875545452 $293 $456 forward 7 unknown #
loop $-1 $-1 $300 $184 #
plane-surface $-1 10.353229559264165 -11.516623666238665 45.139744213929248 0 0.71933980857756763 0.69465836192734942 1 0 0 forward_v I I I I #
loop $-1 $-1 $457 $117 #
coedge $-1 $298 $298 $299 $458 reversed $185 $-1 #
coedge $-1 $299 $299 $298 $458 forward $187 $-1 #
coedge $-1 $300 $300 $188 $301 forward $295 $-1 #
edge $-1 $459 -5.261166787608898e-016 $459 6.2831853071795996 $300 $460 forward 7 unknown #
loop $-1 $-1 $307 $189 #
plane-surface $-1 10.353229559264165 -11.516623666238665 45.139744213929248 0 0.71933980857756763 0.69465836192734942 1 0 0 forward_v I I I I #
loop $-1 $-1 $461 $120 #
coedge $-1 $305 $305 $306 $462 reversed $190 $-1 #
coedge $-1 $306 $306 $305 $462 forward $192 $-1 #
coedge $-1 $307 $307 $193 $308 forward $302 $-1 #
edge $-1 $463 -5.261166787608898e-016 $463 6.2831853071795996 $307 $464 forward 7 unknown #
face $-1 $465 $466 $65 $-1 $467 forward single #
loop $-1 $-1 $468 $194 #
plane-surface $-1 39.50767606060775 58.740573397482798 112.98632915741919 -1 0 0 0 0.71933980857756763 0.69465836192734942 forward_v I I I I #
coedge $-1 $469 $470 $471 $472 reversed $195 $-1 #
coedge $-1 $314 $197 $473 $474 reversed $124 $-1 #
coedge $-1 $197 $313 $469 $475 reversed $124 $-1 #
coedge $-1 $471 $476 $197 $316 forward $466 $-1 #
edge $-1 $477 -0.2113442987928984 $478 3.437181875545452 $315 $479 forward 7 unknown #
loop $-1 $-1 $322 $198 #
plane-surface $-1 32.89846791432786 -11.516623666238665 45.139744213929248 0 0.71933980857756763 0.69465836192734942 1 0 0 forward_v I I I I #
loop $-1 $-1 $480 $126 #
coedge $-1 $320 $320 $321 $481 reversed $199 $-1 #
coedge $-1 $321 $321 $320 $481 forward $201 $-1 #
coedge $-1 $322 $322 $202 $323 forward $317 $-1 #
edge $-1 $482 -5.261166787608898e-016 $482 6.2831853071795996 $322 $483 forward 7 unknown #
loop $-1 $-1 $329 $203 #
plane-surface $-1 32.89846791432786 -11.516623666238665 45.139744213929248 0 0.71933980857756763 0.69465836192734942 1 0 0 forward_v I I I I #
loop $-1 $-1 $484 $129 #
coedge $-1 $327 $327 $328 $485 reversed $204 $-1 #
coedge $-1 $328 $328 $327 $485 forward $206 $-1 #
coedge $-1 $329 $329 $207 $330 forward $324 $-1 #
edge $-1 $486 -5.261166787608898e-016 $486 6.2831853071795996 $329 $487 forward 7 unknown #
face $-1 $488 $489 $68 $-1 $490 forward single #
loop $-1 $-1 $491 $208 #
plane-surface $-1 -18.608711124823298 -89.712670074133456 78.208043725260978 1 0 0 0 0.61566148304635926 -0.78801074757464917 forward_v I I I I #
coedge $-1 $492 $493 $494 $495 reversed $209 $-1 #
coedge $-1 $336 $211 $496 $497 reversed $133 $-1 #
coedge $-1 $211 $335 $492 $498 reversed $133 $-1 #
coedge $-1 $494 $499 $211 $338 forward $489 $-1 #
edge $-1 $500 15.27470403953243 $501 21.822359524487773 $337 $502 forward 7 unknown #
loop $-1 $-1 $344 $212 #
plane-surface $-1 -9.0678376187249015 -29.581630997534305 1.2438249784089237 0 -0.61566148304635926 0.78801074757464917 1 0 0 forward_v I I I I #
loop $-1 $-1 $503 $135 #
coedge $-1 $342 $342 $343 $504 reversed $213 $-1 #
coedge $-1 $343 $343 $342 $504 forward $215 $-1 #
coedge $-1 $344 $344 $216 $345 forward $339 $-1 #
edge $-1 $505 -8.3167310001065899e-016 $505 6.2831853071795996 $344 $506 forward 7 unknown #
loop $-1 $-1 $351 $217 #
plane-surface $-1 -9.0678376187249015 -29.581630997534305 1.2438249784089237 0 -0.61566148304635926 0.78801074757464917 1 0 0 forward_v I I I I #
loop $-1 $-1 $507 $138 #
coedge $-1 $349 $349 $350 $508 reversed $218 $-1 #
coedge $-1 $350 $350 $349 $508 forward $220 $-1 #
coedge $-1 $351 $351 $221 $352 forward $346 $-1 #
edge $-1 $509 -8.3167310001065899e-016 $509 6.2831853071795996 $351 $510 forward 7 unknown #
loop $-1 $-1 $358 $222 #
plane-surface $-1 -9.0678376187249015 -29.581630997534305 1.2438249784089237 0 -0.61566148304635926 0.78801074757464917 1 0 0 forward_v I I I I #
loop $-1 $-1 $511 $141 #
coedge $-1 $356 $356 $357 $512 reversed $223 $-1 #
coedge $-1 $357 $357 $356 $512 forward $225 $-1 #
coedge $-1 $358 $358 $226 $359 forward $353 $-1 #
edge $-1 $513 -8.3167310001065899e-016 $513 6.2831853071795996 $358 $514 forward 7 unknown #
face $-1 $515 $516 $54 $-1 $517 reversed single #
loop $-1 $-1 $518 $227 #
plane-surface $-1 -48.834498123111665 0 0 1 0 0 0 0 -1 forward_v I I I I #
coedge $-1 $519 $371 $520 $521 forward $228 $-1 #
coedge $-1 $522 $230 $519 $523 forward $145 $-1 #
coedge $-1 $230 $522 $524 $525 forward $145 $-1 #
coedge $-1 $374 $373 $230 $367 reversed $375 $-1 #
edge $-1 $526 -29.581630997534297 $527 29.581630997534297 $366 $528 forward 7 unknown #
coedge $-1 $232 $231 $529 $530 forward $91 $-1 #
coedge $-1 $531 $532 $231 $370 reversed $516 $-1 #
edge $-1 $377 -48.834498123111665 $533 48.834498123111665 $369 $534 forward 7 unknown #
coedge $-1 $363 $535 $232 $372 reversed $228 $-1 #
edge $-1 $536 -48.834498123111665 $376 48.834498123111665 $371 $537 forward 7 unknown #
coedge $-1 $366 $233 $535 $538 forward $375 $-1 #
coedge $-1 $233 $366 $531 $539 reversed $375 $-1 #
loop $-1 $-1 $373 $515 #
vertex $-1 $234 $540 #
vertex $-1 $234 $541 #
straight-curve $-1 48.834498123111665 0 6.3594141994333055 0 1 0 I I #
face $-1 $542 $543 $55 $-1 $544 reversed single #
loop $-1 $-1 $545 $235 #
plane-surface $-1 -48.834498123111665 0 0 1 0 0 0 0 -1 forward_v I I I I #
coedge $-1 $390 $546 $384 $547 forward $236 $-1 #
coedge $-1 $241 $238 $548 $549 reversed $149 $-1 #
coedge $-1 $238 $241 $382 $547 reversed $149 $-1 #
coedge $-1 $550 $551 $238 $386 forward $552 $-1 #
edge $-1 $553 -6.3594141994333055 $554 6.3594141994333055 $385 $555 forward 7 unknown #
coedge $-1 $240 $239 $545 $556 reversed $94 $-1 #
coedge $-1 $548 $557 $239 $389 forward $543 $-1 #
edge $-1 $558 -26.28925976804797 $393 -18.801216942079421 $388 $559 forward 7 unknown #
coedge $-1 $560 $382 $240 $391 forward $236 $-1 #
edge $-1 $392 18.801216942079421 $561 26.28925976804797 $390 $562 forward 7 unknown #
vertex $-1 $391 $563 #
vertex $-1 $389 $564 #
straight-curve $-1 -41.346455297143116 -26.581630997534297 0 0 0 -1 I I #
face $-1 $-1 $407 $56 $-1 $565 forward single #
loop $-1 $-1 $566 $243 #
plane-surface $-1 0 29.581630997534297 0 0 -1 0 0 0 -1 forward_v I I I I #
coedge $-1 $567 $568 $569 $570 reversed $244 $-1 #
coedge $-1 $571 $246 $248 $405 forward $153 $-1 #
coedge $-1 $246 $571 $567 $572 forward $153 $-1 #
coedge $-1 $569 $249 $246 $402 forward $407 $-1 #
edge $-1 $409 -23.977831721711496 $573 -10.759415429151726 $401 $574 forward 7 unknown #
coedge $-1 $575 $576 $247 $404 forward $396 $-1 #
edge $-1 $577 -53.911909923137479 $408 -50.133750379276293 $403 $578 forward 7 unknown #
edge $-1 $409 53.911002216297049 $577 59.163261995068609 $248 $579 forward 7 unknown #
coedge $-1 $249 $569 $575 $580 forward $407 $-1 #
loop $-1 $-1 $569 $395 #
vertex $-1 $404 $581 #
vertex $-1 $250 $582 #
straight-curve $-1 -41.346455297143109 29.370286698741399 6.3594141994333029 0 -1 0 I I #
coedge $-1 $411 $411 $-1 $583 reversed $253 $-1 #
edge $-1 $584 0 $584 6.2831853071796004 $254 $585 forward 7 unknown #
vertex $-1 $257 $586 #
ellipse-curve $-1 -37.569764927840318 27.757367910365119 4.4703344275027064 0 0.71933980857756763 0.69465836192734942 1 0 0 1 I I #
coedge $-1 $415 $415 $-1 $587 reversed $260 $-1 #
edge $-1 $588 0 $588 6.2831853071796004 $261 $589 forward 7 unknown #
vertex $-1 $264 $590 #
ellipse-curve $-1 -31.904729373886127 27.757367910365119 4.4703344275027064 0 0.71933980857756763 0.69465836192734942 1 0 0 1 I I #
face $-1 $-1 $591 $59 $-1 $592 reversed single #
loop $-1 $-1 $271 $265 #
plane-surface $-1 0 0 6.3594141994333055 0 0 1 1 0 0 forward_v I I I I #
coedge $-1 $593 $594 $595 $596 reversed $266 $-1 #
coedge $-1 $597 $268 $270 $429 forward $167 $-1 #
coedge $-1 $268 $597 $593 $598 forward $167 $-1 #
coedge $-1 $595 $271 $268 $426 forward $420 $-1 #
edge $-1 $432 -12.705212544179652 $599 0.51320374838012128 $425 $600 forward 7 unknown #
coedge $-1 $601 $602 $269 $428 forward $591 $-1 #
edge $-1 $603 -53.911909923137479 $431 -50.133750379276293 $427 $604 forward 7 unknown #
edge $-1 $432 53.911002216297049 $603 59.163261995068609 $270 $605 forward 7 unknown #
coedge $-1 $271 $595 $601 $606 forward $420 $-1 #
vertex $-1 $428 $607 #
vertex $-1 $272 $608 #
straight-curve $-1 -18.801216942079417 29.370286698741399 6.3594141994333029 0 -1 0 I I #
coedge $-1 $434 $434 $-1 $609 reversed $275 $-1 #
edge $-1 $610 0 $610 6.2831853071796004 $276 $611 forward 7 unknown #
vertex $-1 $279 $612 #
ellipse-curve $-1 -15.024526572776622 27.757367910365119 4.4703344275027064 0 0.71933980857756763 0.69465836192734942 1 0 0 1 I I #
coedge $-1 $438 $438 $-1 $613 reversed $282 $-1 #
edge $-1 $614 0 $614 6.2831853071796004 $283 $615 forward 7 unknown #
vertex $-1 $286 $616 #
ellipse-curve $-1 -9.3594910188224318 27.757367910365119 4.4703344275027064 0 0.71933980857756763 0.69465836192734942 1 0 0 1 I I #
face $-1 $-1 $617 $62 $-1 $618 reversed single #
loop $-1 $-1 $293 $287 #
plane-surface $-1 0 0 6.3594141994333055 0 0 1 1 0 0 forward_v I I I I #
coedge $-1 $619 $620 $621 $622 reversed $288 $-1 #
coedge $-1 $623 $290 $292 $452 forward $181 $-1 #
coedge $-1 $290 $623 $619 $624 forward $181 $-1 #
coedge $-1 $621 $293 $290 $449 forward $443 $-1 #
edge $-1 $455 -1.4325933666478043 $625 11.785822925911969 $448 $626 forward 7 unknown #
coedge $-1 $627 $628 $291 $451 forward $617 $-1 #
edge $-1 $629 -53.911909923137479 $454 -50.133750379276293 $450 $630 forward 7 unknown #
edge $-1 $455 53.911002216297049 $629 59.163261995068609 $292 $631 forward 7 unknown #
coedge $-1 $293 $621 $627 $632 forward $443 $-1 #
vertex $-1 $294 $633 #
vertex $-1 $294 $634 #
straight-curve $-1 3.7440214129842779 29.370286698741399 6.3594141994333029 0 -1 0 I I #
coedge $-1 $457 $457 $-1 $635 reversed $297 $-1 #
edge $-1 $636 0 $636 6.2831853071796004 $298 $637 forward 7 unknown #
vertex $-1 $301 $638 #
ellipse-curve $-1 7.5207117822870728 27.757367910365119 4.4703344275027064 0 0.71933980857756763 0.69465836192734942 1 0 0 1 I I #
coedge $-1 $461 $461 $-1 $639 reversed $304 $-1 #
edge $-1 $640 0 $640 6.2831853071796004 $305 $641 forward 7 unknown #
vertex $-1 $308 $642 #
ellipse-curve $-1 13.185747336241263 27.757367910365119 4.4703344275027064 0 0.71933980857756763 0.69465836192734942 1 0 0 1 I I #
face $-1 $-1 $643 $65 $-1 $644 reversed single #
loop $-1 $-1 $315 $309 #
plane-surface $-1 0 0 6.3594141994333055 0 0 1 1 0 0 forward_v I I I I #
coedge $-1 $645 $646 $647 $648 reversed $310 $-1 #
coedge $-1 $649 $312 $314 $475 forward $195 $-1 #
coedge $-1 $312 $649 $645 $650 forward $195 $-1 #
coedge $-1 $647 $315 $312 $472 forward $466 $-1 #
edge $-1 $478 9.8400258108840433 $651 23.05844210344382 $471 $652 forward 7 unknown #
coedge $-1 $653 $654 $313 $474 forward $643 $-1 #
edge $-1 $655 -53.911909923137479 $477 -50.133750379276293 $473 $656 forward 7 unknown #
edge $-1 $478 53.911002216297049 $655 59.163261995068609 $314 $657 forward 7 unknown #
coedge $-1 $315 $647 $653 $658 forward $466 $-1 #
vertex $-1 $316 $659 #
vertex $-1 $316 $660 #
straight-curve $-1 26.289259768047973 29.370286698741399 6.3594141994333029 0 -1 0 I I #
coedge $-1 $480 $480 $-1 $661 reversed $319 $-1 #
edge $-1 $662 0 $662 6.2831853071796004 $320 $663 forward 7 unknown #
vertex $-1 $323 $664 #
ellipse-curve $-1 30.065950137350775 27.757367910365119 4.4703344275027064 0 0.71933980857756763 0.69465836192734942 1 0 0 1 I I #
coedge $-1 $484 $484 $-1 $665 reversed $326 $-1 #
edge $-1 $666 0 $666 6.2831853071796004 $327 $667 forward 7 unknown #
vertex $-1 $330 $668 #
ellipse-curve $-1 35.730985691304959 27.757367910365119 4.4703344275027064 0 0.71933980857756763 0.69465836192734942 1 0 0 1 I I #
face $-1 $-1 $669 $68 $-1 $670 reversed single #
loop $-1 $-1 $337 $331 #
plane-surface $-1 0 0 6.3594141994333055 0 0 1 1 0 0 forward_v I I I I #
coedge $-1 $671 $672 $673 $674 reversed $332 $-1 #
coedge $-1 $675 $334 $336 $498 forward $209 $-1 #
coedge $-1 $334 $675 $671 $676 forward $209 $-1 #
coedge $-1 $673 $337 $334 $495 forward $489 $-1 #
edge $-1 $501 -5.0069546967359457 $677 14.074792315460847 $494 $678 forward 7 unknown #
coedge $-1 $679 $680 $335 $497 forward $669 $-1 #
edge $-1 $681 -37.860196884221558 $500 -32.744607663197186 $496 $682 forward 7 unknown #
edge $-1 $501 -8.3090941400327569 $681 -9.0167608931652224e-015 $336 $683 forward 7 unknown #
coedge $-1 $337 $673 $679 $684 forward $489 $-1 #
vertex $-1 $338 $685 #
vertex $-1 $338 $686 #
straight-curve $-1 0.473035887373495 -44.856335037066728 6.3594141994333029 0 1 0 I I #
coedge $-1 $503 $503 $-1 $687 reversed $341 $-1 #
edge $-1 $688 0 $688 6.2831853071796004 $342 $689 forward 7 unknown #
vertex $-1 $345 $690 #
ellipse-curve $-1 -14.792361722383944 -26.307803255056623 3.8016195889211195 0 -0.61566148304635926 0.78801074757464917 0.5 0 0 1 I I #
coedge $-1 $507 $507 $-1 $691 reversed $348 $-1 #
edge $-1 $692 0 $692 6.2831853071796004 $349 $693 forward 7 unknown #
vertex $-1 $352 $694 #
ellipse-curve $-1 -9.0678376187249015 -26.307803255056623 3.8016195889211195 0 -0.61566148304635926 0.78801074757464917 0.5 0 0 1 I I #
coedge $-1 $511 $511 $-1 $695 reversed $355 $-1 #
edge $-1 $696 0 $696 6.2831853071796004 $356 $697 forward 7 unknown #
vertex $-1 $359 $698 #
ellipse-curve $-1 -3.3433135150658657 -26.307803255056623 3.8016195889211195 0 -0.61566148304635926 0.78801074757464917 0.5 0 0 1 I I #
face $-1 $-1 $375 $54 $-1 $699 reversed single #
loop $-1 $-1 $531 $360 #
plane-surface $-1 0 29.581630997534297 0 0 -1 0 0 0 -1 forward_v I I I I #
coedge $-1 $700 $529 $532 $701 forward $361 $-1 #
coedge $-1 $535 $363 $364 $523 reversed $228 $-1 #
coedge $-1 $529 $700 $363 $521 reversed $361 $-1 #
edge $-1 $536 -6.3594141994333055 $702 6.3594141994333055 $520 $703 forward 7 unknown #
coedge $-1 $365 $364 $700 $704 forward $145 $-1 #
edge $-1 $527 -48.834498123111665 $702 48.834498123111665 $519 $705 forward 7 unknown #
coedge $-1 $532 $531 $365 $525 reversed $516 $-1 #
edge $-1 $706 -48.834498123111665 $526 48.834498123111665 $524 $707 forward 7 unknown #
vertex $-1 $367 $708 #
vertex $-1 $538 $709 #
straight-curve $-1 48.834498123111665 0 -6.3594141994333055 0 -1 0 I I #
coedge $-1 $518 $520 $368 $530 reversed $361 $-1 #
edge $-1 $533 -29.581630997534297 $536 29.581630997534297 $529 $710 forward 7 unknown #
coedge $-1 $524 $369 $374 $539 forward $516 $-1 #
coedge $-1 $369 $524 $518 $701 reversed $516 $-1 #
vertex $-1 $370 $711 #
straight-curve $-1 0 29.581630997534297 6.3594141994333055 -1 0 0 I I #
coedge $-1 $371 $519 $373 $538 reversed $228 $-1 #
vertex $-1 $530 $712 #
straight-curve $-1 0 -29.581630997534297 6.3594141994333055 1 0 0 I I #
edge $-1 $376 -6.3594141994333055 $527 6.3594141994333055 $373 $713 forward 7 unknown #
edge $-1 $377 -6.3594141994333055 $526 6.3594141994333055 $374 $714 forward 7 unknown #
point $-1 48.834498123111665 -29.581630997534297 6.3594141994333055 #
point $-1 48.834498123111665 29.581630997534297 6.3594141994333055 #
face $-1 $-1 $552 $55 $-1 $715 reversed single #
loop $-1 $-1 $548 $379 #
plane-surface $-1 0 0 -6.3594141994333055 0 0 1 1 0 0 forward_v I I I I #
coedge $-1 $716 $717 $387 $556 forward $380 $-1 #
coedge $-1 $382 $560 $550 $718 forward $236 $-1 #
edge $-1 $554 -15.540815498767149 $392 -12.540815498767149 $382 $719 forward 7 unknown #
coedge $-1 $720 $388 $383 $549 forward $543 $-1 #
edge $-1 $393 12.540815498767149 $553 15.540815498767149 $548 $721 forward 7 unknown #
coedge $-1 $722 $385 $546 $718 reversed $552 $-1 #
coedge $-1 $385 $722 $720 $723 reversed $552 $-1 #
loop $-1 $-1 $385 $542 #
vertex $-1 $723 $724 #
vertex $-1 $386 $725 #
straight-curve $-1 -41.346455297143116 -29.581630997534297 0 0 0 1 I I #
edge $-1 $561 -6.3594141994333055 $558 6.3594141994333055 $545 $726 forward 7 unknown #
coedge $-1 $388 $720 $716 $727 forward $543 $-1 #
vertex $-1 $389 $728 #
straight-curve $-1 -22.545238355063695 -26.581630997534297 -6.3594141994333055 1 0 0 I I #
coedge $-1 $546 $390 $717 $729 forward $236 $-1 #
vertex $-1 $729 $730 #
straight-curve $-1 -22.545238355063695 -26.581630997534297 6.3594141994333055 -1 0 0 I I #
point $-1 -41.346455297143116 -26.581630997534297 6.3594141994333055 #
point $-1 -41.346455297143116 -26.581630997534297 -6.3594141994333055 #
plane-surface $-1 0 0 6.3594141994333055 0 0 1 1 0 0 forward_v I I I I #
coedge $-1 $576 $575 $568 $731 forward $396 $-1 #
coedge $-1 $568 $398 $400 $572 reversed $244 $-1 #
coedge $-1 $398 $567 $566 $731 reversed $244 $-1 #
coedge $-1 $406 $401 $398 $570 forward $407 $-1 #
edge $-1 $573 -3.437181875545452 $732 0.2113442987928984 $569 $733 forward 7 unknown #
coedge $-1 $400 $399 $576 $734 reversed $153 $-1 #
edge $-1 $735 -59.163261995068609 $573 -53.911002216297049 $567 $736 forward 7 unknown #
vertex $-1 $402 $737 #
straight-curve $-1 -17.368623575431613 25.93310482319594 6.35941419943331 1 0 0 I I #
coedge $-1 $566 $403 $406 $580 reversed $396 $-1 #
coedge $-1 $403 $566 $571 $734 forward $396 $-1 #
vertex $-1 $404 $738 #
straight-curve $-1 -41.346455297143109 29.581630997534297 56.493164578709596 0 0 1 I I #
straight-curve $-1 -41.346455297143109 -11.516623666238665 45.139744213929248 0 0.69465836192734942 -0.71933980857756763 I I #
edge $-1 $732 28.128039004583339 $408 41.346455297143109 $575 $739 forward 7 unknown #
point $-1 -41.346455297143109 29.581630997534297 6.3594141994333055 #
point $-1 -41.346455297143109 25.933104823195947 6.3594141994333029 #
edge $-1 $740 1 $740 0 $411 $-1 forward 7 unknown #
vertex $-1 $412 $741 #
ellipse-curve $-1 -37.569764927840318 26.201150974104674 2.9675132366611505 0 0.71933980857756763 0.69465836192734942 1 0 0 1 I I #
point $-1 -36.569764927840318 27.75736791036514 4.4703344275027277 #
edge $-1 $742 1 $742 0 $415 $-1 forward 7 unknown #
vertex $-1 $416 $743 #
ellipse-curve $-1 -31.904729373886127 26.201150974104674 2.9675132366611505 0 0.71933980857756763 0.69465836192734942 1 0 0 1 I I #
point $-1 -30.904729373886127 27.75736791036514 4.4703344275027277 #
loop $-1 $-1 $427 $419 #
plane-surface $-1 0 29.581630997534297 0 0 -1 0 0 0 -1 forward_v I I I I #
coedge $-1 $594 $422 $424 $598 reversed $266 $-1 #
coedge $-1 $422 $593 $744 $745 reversed $266 $-1 #
coedge $-1 $430 $425 $422 $596 forward $420 $-1 #
edge $-1 $599 -3.437181875545452 $746 0.2113442987928984 $595 $747 forward 7 unknown #
coedge $-1 $424 $423 $602 $748 reversed $167 $-1 #
edge $-1 $749 -59.163261995068609 $599 -53.911002216297049 $593 $750 forward 7 unknown #
vertex $-1 $426 $751 #
straight-curve $-1 -6.0960043978997653 25.93310482319594 6.35941419943331 1 0 0 I I #
coedge $-1 $744 $427 $430 $606 reversed $591 $-1 #
coedge $-1 $427 $744 $597 $748 forward $591 $-1 #
vertex $-1 $428 $752 #
straight-curve $-1 -18.801216942079417 29.581630997534297 56.493164578709596 0 0 1 I I #
straight-curve $-1 -18.801216942079417 -11.516623666238665 45.139744213929248 0 0.69465836192734942 -0.71933980857756763 I I #
edge $-1 $746 5.5828006495196441 $431 18.801216942079417 $601 $753 forward 7 unknown #
point $-1 -18.801216942079417 29.581630997534297 6.3594141994333055 #
point $-1 -18.801216942079417 25.933104823195947 6.3594141994333029 #
edge $-1 $754 1 $754 0 $434 $-1 forward 7 unknown #
vertex $-1 $435 $755 #
ellipse-curve $-1 -15.024526572776622 26.201150974104674 2.9675132366611505 0 0.71933980857756763 0.69465836192734942 1 0 0 1 I I #
point $-1 -14.024526572776622 27.75736791036514 4.4703344275027277 #
edge $-1 $756 1 $756 0 $438 $-1 forward 7 unknown #
vertex $-1 $439 $757 #
ellipse-curve $-1 -9.3594910188224318 26.201150974104674 2.9675132366611505 0 0.71933980857756763 0.69465836192734942 1 0 0 1 I I #
point $-1 -8.3594910188224318 27.75736791036514 4.4703344275027277 #
loop $-1 $-1 $450 $442 #
plane-surface $-1 0 29.581630997534297 0 0 -1 0 0 0 -1 forward_v I I I I #
coedge $-1 $620 $445 $447 $624 reversed $288 $-1 #
coedge $-1 $445 $619 $758 $759 reversed $288 $-1 #
coedge $-1 $453 $448 $445 $622 forward $443 $-1 #
edge $-1 $625 -3.437181875545452 $760 0.2113442987928984 $621 $761 forward 7 unknown #
coedge $-1 $447 $446 $628 $762 reversed $181 $-1 #
edge $-1 $763 -59.163261995068609 $625 -53.911002216297049 $619 $764 forward 7 unknown #
vertex $-1 $449 $765 #
straight-curve $-1 5.1766147796320823 25.93310482319594 6.35941419943331 1 0 0 I I #
coedge $-1 $758 $450 $453 $632 reversed $617 $-1 #
coedge $-1 $450 $758 $623 $762 forward $617 $-1 #
vertex $-1 $451 $766 #
straight-curve $-1 3.7440214129842779 29.581630997534297 56.493164578709596 0 0 1 I I #
straight-curve $-1 3.7440214129842779 -11.516623666238665 45.139744213929248 0 0.69465836192734942 -0.71933980857756763 I I #
edge $-1 $760 -16.962437705544051 $454 -3.7440214129842779 $627 $767 forward 7 unknown #
point $-1 3.7440214129842779 29.581630997534297 6.3594141994333055 #
point $-1 3.7440214129842779 25.933104823195947 6.3594141994333029 #
edge $-1 $768 1 $768 0 $457 $-1 forward 7 unknown #
vertex $-1 $458 $769 #
ellipse-curve $-1 7.5207117822870728 26.201150974104674 2.9675132366611505 0 0.71933980857756763 0.69465836192734942 1 0 0 1 I I #
point $-1 8.5207117822870728 27.75736791036514 4.4703344275027277 #
edge $-1 $770 1 $770 0 $461 $-1 forward 7 unknown #
vertex $-1 $462 $771 #
ellipse-curve $-1 13.185747336241263 26.201150974104674 2.9675132366611505 0 0.71933980857756763 0.69465836192734942 1 0 0 1 I I #
point $-1 14.185747336241263 27.75736791036514 4.4703344275027277 #
loop $-1 $-1 $473 $465 #
plane-surface $-1 0 29.581630997534297 0 0 -1 0 0 0 -1 forward_v I I I I #
coedge $-1 $646 $468 $470 $650 reversed $310 $-1 #
coedge $-1 $468 $645 $772 $773 reversed $310 $-1 #
coedge $-1 $476 $471 $468 $648 forward $466 $-1 #
edge $-1 $651 -3.437181875545452 $774 0.2113442987928984 $647 $775 forward 7 unknown #
coedge $-1 $470 $469 $654 $776 reversed $195 $-1 #
edge $-1 $777 -59.163261995068609 $651 -53.911002216297049 $645 $778 forward 7 unknown #
vertex $-1 $472 $779 #
straight-curve $-1 16.44923395716393 25.93310482319594 6.35941419943331 1 0 0 I I #
coedge $-1 $772 $473 $476 $658 reversed $643 $-1 #
coedge $-1 $473 $772 $649 $776 forward $643 $-1 #
vertex $-1 $474 $780 #
straight-curve $-1 26.289259768047973 29.581630997534297 56.493164578709596 0 0 1 I I #
straight-curve $-1 26.289259768047973 -11.516623666238665 45.139744213929248 0 0.69465836192734942 -0.71933980857756763 I I #
edge $-1 $774 -39.50767606060775 $477 -26.289259768047973 $653 $781 forward 7 unknown #
point $-1 26.289259768047973 29.581630997534297 6.3594141994333055 #
point $-1 26.289259768047973 25.933104823195947 6.3594141994333029 #
edge $-1 $782 1 $782 0 $480 $-1 forward 7 unknown #
vertex $-1 $481 $783 #
ellipse-curve $-1 30.065950137350775 26.201150974104674 2.9675132366611505 0 0.71933980857756763 0.69465836192734942 1 0 0 1 I I #
point $-1 31.065950137350775 27.75736791036514 4.4703344275027277 #
edge $-1 $784 1 $784 0 $484 $-1 forward 7 unknown #
vertex $-1 $485 $785 #
ellipse-curve $-1 35.730985691304959 26.201150974104674 2.9675132366611505 0 0.71933980857756763 0.69465836192734942 1 0 0 1 I I #
point $-1 36.730985691304959 27.75736791036514 4.4703344275027277 #
loop $-1 $-1 $496 $488 #
plane-surface $-1 0 -29.581630997534297 0 0 1 0 0 0 1 forward_v I I I I #
coedge $-1 $672 $491 $493 $676 reversed $332 $-1 #
coedge $-1 $491 $671 $786 $787 reversed $332 $-1 #
coedge $-1 $499 $494 $491 $674 forward $489 $-1 #
edge $-1 $677 -21.822359524487773 $788 -15.27470403953243 $673 $789 forward 7 unknown #
coedge $-1 $493 $492 $680 $790 reversed $209 $-1 #
edge $-1 $791 9.0167608931652224e-015 $677 8.3090941400327569 $671 $792 forward 7 unknown #
vertex $-1 $495 $793 #
straight-curve $-1 -4.5339188093624507 -23.033975512578955 6.3594141994333047 -1 0 0 I I #
coedge $-1 $786 $496 $499 $684 reversed $669 $-1 #
coedge $-1 $496 $786 $675 $790 forward $669 $-1 #
vertex $-1 $497 $794 #
straight-curve $-1 0.473035887373495 -29.581630997534297 39.104021862630489 0 0 1 I I #
straight-curve $-1 0.473035887373495 -29.581630997534305 1.2438249784089237 0 -0.78801074757464917 -0.61566148304635926 I I #
edge $-1 $788 -18.608711124823298 $500 0.473035887373495 $679 $795 forward 7 unknown #
point $-1 0.473035887373495 -29.581630997534297 6.3594141994333055 #
point $-1 0.473035887373495 -23.033975512578955 6.3594141994333047 #
edge $-1 $796 1 $796 0 $503 $-1 forward 7 unknown #
vertex $-1 $504 $797 #
ellipse-curve $-1 -14.792361722383944 -25.312630725368454 2.527856862682361 0 -0.61566148304635926 0.78801074757464917 0.5 0 0 1 I I #
point $-1 -14.292361722383944 -26.307803255056616 3.8016195889211097 #
edge $-1 $798 1 $798 0 $507 $-1 forward 7 unknown #
vertex $-1 $508 $799 #
ellipse-curve $-1 -9.0678376187249015 -25.312630725368454 2.527856862682361 0 -0.61566148304635926 0.78801074757464917 0.5 0 0 1 I I #
point $-1 -8.5678376187249015 -26.307803255056616 3.8016195889211097 #
edge $-1 $800 1 $800 0 $511 $-1 forward 7 unknown #
vertex $-1 $512 $801 #
ellipse-curve $-1 -3.3433135150658657 -25.312630725368454 2.527856862682361 0 -0.61566148304635926 0.78801074757464917 0.5 0 0 1 I I #
point $-1 -2.8433135150658657 -26.307803255056616 3.8016195889211097 #
plane-surface $-1 48.834498123111665 0 0 -1 0 0 0 0 1 forward_v I I I I #
coedge $-1 $520 $518 $522 $704 reversed $361 $-1 #
edge $-1 $533 -6.3594141994333055 $706 6.3594141994333055 $532 $802 forward 7 unknown #
vertex $-1 $704 $803 #
straight-curve $-1 -48.834498123111665 -29.581630997534297 0 0 0 -1 I I #
edge $-1 $702 -29.581630997534297 $706 29.581630997534297 $700 $804 forward 7 unknown #
straight-curve $-1 0 -29.581630997534297 -6.3594141994333055 -1 0 0 I I #
vertex $-1 $525 $805 #
straight-curve $-1 0 29.581630997534297 -6.3594141994333055 1 0 0 I I #
point $-1 48.834498123111665 29.581630997534297 -6.3594141994333055 #
point $-1 48.834498123111665 -29.581630997534297 -6.3594141994333055 #
straight-curve $-1 -48.834498123111665 0 6.3594141994333055 0 -1 0 I I #
point $-1 -48.834498123111665 29.581630997534297 6.3594141994333055 #
point $-1 -48.834498123111665 -29.581630997534297 6.3594141994333055 #
straight-curve $-1 48.834498123111665 -29.581630997534297 0 0 0 -1 I I #
straight-curve $-1 48.834498123111665 29.581630997534297 0 0 0 -1 I I #
plane-surface $-1 0 -29.581630997534297 0 0 1 0 0 0 1 forward_v I I I I #
coedge $-1 $806 $545 $557 $727 reversed $380 $-1 #
coedge $-1 $545 $806 $560 $729 reversed $380 $-1 #
edge $-1 $807 -48.834498123111665 $554 -41.346455297143116 $550 $808 forward 7 unknown #
straight-curve $-1 -41.346455297143116 -14.040815498767149 6.3594141994333055 0 1 0 I I #
coedge $-1 $557 $548 $551 $723 forward $543 $-1 #
straight-curve $-1 -41.346455297143116 -14.040815498767149 -6.3594141994333055 0 -1 0 I I #
coedge $-1 $551 $550 $806 $809 forward $552 $-1 #
edge $-1 $553 41.346455297143116 $810 48.834498123111665 $551 $811 forward 7 unknown #
point $-1 -41.346455297143116 -29.581630997534297 -6.3594141994333055 #
point $-1 -41.346455297143116 -29.581630997534297 6.3594141994333055 #
straight-curve $-1 -48.834498123111665 -26.581630997534297 0 0 0 -1 I I #
edge $-1 $810 -29.581630997534297 $558 -26.581630997534297 $716 $812 forward 7 unknown #
point $-1 -48.834498123111665 -26.581630997534297 -6.3594141994333055 #
edge $-1 $561 26.581630997534297 $807 29.581630997534297 $717 $813 forward 7 unknown #
point $-1 -48.834498123111665 -26.581630997534297 6.3594141994333055 #
edge $-1 $732 50.133750379276293 $735 53.911909923137479 $566 $814 forward 7 unknown #
vertex $-1 $580 $815 #
straight-curve $-1 -28.128039004583339 29.370286698741399 6.3594141994333029 0 1 0 I I #
edge $-1 $735 10.759415429151726 $577 23.977831721711496 $576 $816 forward 7 unknown #
vertex $-1 $734 $817 #
straight-curve $-1 -28.128039004583339 -11.516623666238665 45.139744213929248 0 -0.69465836192734942 0.71933980857756763 I I #
point $-1 -28.128039004583339 25.933104823195947 6.3594141994333029 #
point $-1 -41.346455297143109 29.581630997534297 2.581254655572117 #
straight-curve $-1 0 29.581630997534297 6.3594141994333055 -1 0 0 I I #
vertex $-1 $583 $818 #
point $-1 -36.569764927840318 26.201150974104674 2.9675132366611505 #
vertex $-1 $587 $819 #
point $-1 -30.904729373886127 26.201150974104674 2.9675132366611505 #
coedge $-1 $602 $601 $594 $745 forward $591 $-1 #
edge $-1 $746 50.133750379276293 $749 53.911909923137479 $744 $820 forward 7 unknown #
vertex $-1 $606 $821 #
straight-curve $-1 -5.5828006495196441 29.370286698741399 6.3594141994333029 0 1 0 I I #
edge $-1 $749 -0.51320374838012128 $603 12.705212544179652 $602 $822 forward 7 unknown #
vertex $-1 $748 $823 #
straight-curve $-1 -5.5828006495196441 -11.516623666238665 45.139744213929248 0 -0.69465836192734942 0.71933980857756763 I I #
point $-1 -5.5828006495196441 25.933104823195947 6.3594141994333029 #
point $-1 -18.801216942079417 29.581630997534297 2.581254655572117 #
straight-curve $-1 0 29.581630997534297 6.3594141994333055 -1 0 0 I I #
vertex $-1 $609 $824 #
point $-1 -14.024526572776622 26.201150974104674 2.9675132366611505 #
vertex $-1 $613 $825 #
point $-1 -8.3594910188224318 26.201150974104674 2.9675132366611505 #
coedge $-1 $628 $627 $620 $759 forward $617 $-1 #
edge $-1 $760 50.133750379276293 $763 53.911909923137479 $758 $826 forward 7 unknown #
vertex $-1 $632 $827 #
straight-curve $-1 16.962437705544051 29.370286698741399 6.3594141994333029 0 1 0 I I #
edge $-1 $763 -11.785822925911969 $629 1.4325933666478043 $628 $828 forward 7 unknown #
vertex $-1 $762 $829 #
straight-curve $-1 16.962437705544051 -11.516623666238665 45.139744213929248 0 -0.69465836192734942 0.71933980857756763 I I #
point $-1 16.962437705544051 25.933104823195947 6.3594141994333029 #
point $-1 3.7440214129842779 29.581630997534297 2.581254655572117 #
straight-curve $-1 0 29.581630997534297 6.3594141994333055 -1 0 0 I I #
vertex $-1 $635 $830 #
point $-1 8.5207117822870728 26.201150974104674 2.9675132366611505 #
vertex $-1 $639 $831 #
point $-1 14.185747336241263 26.201150974104674 2.9675132366611505 #
coedge $-1 $654 $653 $646 $773 forward $643 $-1 #
edge $-1 $774 50.133750379276293 $777 53.911909923137479 $772 $832 forward 7 unknown #
vertex $-1 $658 $833 #
straight-curve $-1 39.50767606060775 29.370286698741399 6.3594141994333029 0 1 0 I I #
edge $-1 $777 -23.05844210344382 $655 -9.8400258108840433 $654 $834 forward 7 unknown #
vertex $-1 $776 $835 #
straight-curve $-1 39.50767606060775 -11.516623666238665 45.139744213929248 0 -0.69465836192734942 0.71933980857756763 I I #
point $-1 39.50767606060775 25.933104823195947 6.3594141994333029 #
point $-1 26.289259768047973 29.581630997534297 2.581254655572117 #
straight-curve $-1 0 29.581630997534297 6.3594141994333055 -1 0 0 I I #
vertex $-1 $661 $836 #
point $-1 31.065950137350775 26.201150974104674 2.9675132366611505 #
vertex $-1 $665 $837 #
point $-1 36.730985691304959 26.201150974104674 2.9675132366611505 #
coedge $-1 $680 $679 $672 $787 forward $669 $-1 #
edge $-1 $788 32.744607663197186 $791 37.860196884221558 $786 $838 forward 7 unknown #
vertex $-1 $684 $839 #
straight-curve $-1 -18.608711124823298 -44.856335037066728 6.3594141994333029 0 -1 0 I I #
edge $-1 $791 -14.074792315460847 $681 5.0069546967359457 $680 $840 forward 7 unknown #
vertex $-1 $790 $841 #
straight-curve $-1 -18.608711124823298 -29.581630997534305 1.2438249784089237 0 0.78801074757464917 0.61566148304635926 I I #
point $-1 -18.608711124823298 -23.033975512578955 6.3594141994333047 #
point $-1 0.473035887373495 -29.581630997534297 1.2438249784089292 #
straight-curve $-1 0 -29.581630997534297 6.3594141994333055 1 0 0 I I #
vertex $-1 $687 $842 #
point $-1 -14.292361722383944 -25.312630725368454 2.527856862682361 #
vertex $-1 $691 $843 #
point $-1 -8.5678376187249015 -25.312630725368454 2.527856862682361 #
vertex $-1 $695 $844 #
point $-1 -2.8433135150658657 -25.312630725368454 2.527856862682361 #
straight-curve $-1 -48.834498123111665 29.581630997534297 0 0 0 -1 I I #
point $-1 -48.834498123111665 -29.581630997534297 -6.3594141994333055 #
straight-curve $-1 -48.834498123111665 0 -6.3594141994333055 0 1 0 I I #
point $-1 -48.834498123111665 29.581630997534297 -6.3594141994333055 #
coedge $-1 $717 $716 $722 $809 reversed $380 $-1 #
vertex $-1 $729 $845 #
straight-curve $-1 0 -29.581630997534297 6.3594141994333055 1 0 0 I I #
edge $-1 $807 -6.3594141994333055 $810 6.3594141994333055 $806 $846 forward 7 unknown #
vertex $-1 $727 $847 #
straight-curve $-1 0 -29.581630997534297 -6.3594141994333055 -1 0 0 I I #
straight-curve $-1 -48.834498123111665 0 -6.3594141994333055 0 1 0 I I #
straight-curve $-1 -48.834498123111665 0 6.3594141994333055 0 -1 0 I I #
straight-curve $-1 -28.128039004583339 29.581630997534297 56.493164578709596 0 0 -1 I I #
point $-1 -28.128039004583339 29.581630997534297 6.3594141994333055 #
straight-curve $-1 -17.368623575431613 29.581630997534297 2.581254655572117 -1 0 0 I I #
point $-1 -28.128039004583339 29.581630997534297 2.581254655572117 #
point $-1 -37.569764927840318 25.481811165527109 2.2728548747338015 #
point $-1 -31.904729373886127 25.481811165527109 2.2728548747338015 #
straight-curve $-1 -5.5828006495196441 29.581630997534297 56.493164578709596 0 0 -1 I I #
point $-1 -5.5828006495196441 29.581630997534297 6.3594141994333055 #
straight-curve $-1 -6.0960043978997653 29.581630997534297 2.581254655572117 -1 0 0 I I #
point $-1 -5.5828006495196441 29.581630997534297 2.581254655572117 #
point $-1 -15.024526572776622 25.481811165527109 2.2728548747338015 #
point $-1 -9.3594910188224318 25.481811165527109 2.2728548747338015 #
straight-curve $-1 16.962437705544051 29.581630997534297 56.493164578709596 0 0 -1 I I #
point $-1 16.962437705544051 29.581630997534297 6.3594141994333055 #
straight-curve $-1 5.1766147796320823 29.581630997534297 2.581254655572117 -1 0 0 I I #
point $-1 16.962437705544051 29.581630997534297 2.581254655572117 #
point $-1 7.5207117822870728 25.481811165527109 2.2728548747338015 #
point $-1 13.185747336241263 25.481811165527109 2.2728548747338015 #
straight-curve $-1 39.50767606060775 29.581630997534297 56.493164578709596 0 0 -1 I I #
point $-1 39.50767606060775 29.581630997534297 6.3594141994333055 #
straight-curve $-1 16.44923395716393 29.581630997534297 2.581254655572117 -1 0 0 I I #
point $-1 39.50767606060775 29.581630997534297 2.581254655572117 #
point $-1 30.065950137350775 25.481811165527109 2.2728548747338015 #
point $-1 35.730985691304959 25.481811165527109 2.2728548747338015 #
straight-curve $-1 -18.608711124823298 -29.581630997534297 39.104021862630489 0 0 -1 I I #
point $-1 -18.608711124823298 -29.581630997534297 6.3594141994333055 #
straight-curve $-1 -4.5339188093624507 -29.581630997534297 1.2438249784089304 1 0 0 I I #
point $-1 -18.608711124823298 -29.581630997534297 1.2438249784089292 #
point $-1 -14.792361722383944 -25.004799983845277 2.1338514888950364 #
point $-1 -9.0678376187249015 -25.004799983845277 2.1338514888950364 #
point $-1 -3.3433135150658657 -25.004799983845277 2.1338514888950364 #
point $-1 -48.834498123111665 -29.581630997534297 6.3594141994333055 #
straight-curve $-1 -48.834498123111665 -29.581630997534297 0 0 0 -1 I I #
point $-1 -48.834498123111665 -29.581630997534297 -6.3594141994333055 #
End-of-ACIS-data 