500 0 5 0           
7 Unknown 11 ACIS 5.0 NT 24 Thu Mar 25 21:20:30 1999 
-1 9.9999999999999995e-007 1e-010 
body $-1 $5 $-1 $6 #
body $-1 $7 $-1 $8 #
body $-1 $9 $-1 $10 #
body $-1 $11 $-1 $12 #
body $-1 $13 $-1 $14 #
lump $-1 $-1 $15 $0 #
transform $-1 1 0 0 0 1 0 0 0 1 46.469924008911406 25.267232310091558 5.6787462660972094 1 rotate no_reflect no_shear #
lump $-1 $-1 $16 $1 #
transform $-1 1 0 0 0 1 0 0 0 1 46.469924008911406 25.267232310091558 5.6787462660972094 1 rotate no_reflect no_shear #
lump $-1 $-1 $17 $2 #
transform $-1 1 0 0 0 1 0 0 0 1 46.469924008911406 25.267232310091558 5.6787462660972094 1 rotate no_reflect no_shear #
lump $-1 $-1 $18 $3 #
transform $-1 1 0 0 0 1 0 0 0 1 46.469924008911406 25.267232310091558 5.6787462660972094 1 rotate no_reflect no_shear #
lump $-1 $-1 $19 $4 #
transform $-1 1 0 0 0 1 0 0 0 1 46.469924008911406 25.267232310091558 5.6787462660972094 1 rotate no_reflect no_shear #
shell $-1 $-1 $-1 $20 $-1 $5 #
shell $-1 $-1 $-1 $21 $-1 $7 #
shell $-1 $-1 $-1 $22 $-1 $9 #
shell $-1 $-1 $-1 $23 $-1 $11 #
shell $-1 $-1 $-1 $24 $-1 $13 #
face $-1 $25 $26 $15 $-1 $27 reversed single #
face $-1 $28 $29 $16 $-1 $30 forward single #
face $-1 $31 $32 $17 $-1 $33 reversed single #
face $-1 $34 $35 $18 $-1 $36 forward single #
face $-1 $37 $38 $19 $-1 $39 forward single #
face $-1 $40 $41 $15 $-1 $42 forward single #
loop $-1 $-1 $43 $20 #
plane-surface $-1 0 -25.267232310091558 0 0 1 0 0 0 1 forward_v I I I I #
face $-1 $44 $45 $16 $-1 $46 reversed single #
loop $-1 $-1 $47 $21 #
plane-surface $-1 0 -25.267232310091558 0 0 1 0 0 0 1 forward_v I I I I #
face $-1 $48 $49 $17 $-1 $50 reversed single #
loop $-1 $-1 $51 $22 #
plane-surface $-1 -44.372806502359012 37.179930079089232 106.89787053049878 1 0 0 0 -0.57357644374324357 -0.81915203911291934 forward_v I I I I #
face $-1 $52 $53 $18 $-1 $54 forward single #
loop $-1 $55 $56 $23 #
cone-surface $-1 -41.691773762996995 22.084360099446929 3.1593896227689999 0 -0.57357644374324357 -0.81915203911291934 1 0 0 1 I I 0 1 1 forward I I I I #
face $-1 $57 $58 $19 $-1 $59 forward single #
loop $-1 $60 $61 $24 #
cone-surface $-1 -37.670224653953973 22.084360099446929 3.1593896227689999 0 -0.57357644374324357 -0.81915203911291934 1 0 0 1 I I 0 1 1 forward I I I I #
face $-1 $62 $63 $15 $-1 $64 reversed single #
loop $-1 $-1 $65 $25 #
plane-surface $-1 0 0 5.6787462660972094 0 0 1 1 0 0 forward_v I I I I #
coedge $-1 $66 $67 $68 $69 reversed $26 $-1 #
face $-1 $70 $71 $16 $-1 $72 reversed single #
loop $-1 $-1 $73 $28 #
plane-surface $-1 0 0 -5.6787462660972094 0 0 1 1 0 0 forward_v I I I I #
coedge $-1 $74 $75 $76 $77 forward $29 $-1 #
face $-1 $78 $79 $17 $-1 $80 reversed single #
loop $-1 $-1 $81 $31 #
plane-surface $-1 -39.680999208475484 -16.128177429011124 30.766004511854405 0 0.57357644374324357 0.81915203911291934 1 0 0 forward_v I I I I #
coedge $-1 $82 $83 $84 $85 reversed $32 $-1 #
face $-1 $-1 $86 $18 $-1 $87 forward single #
loop $-1 $88 $89 $34 #
cone-surface $-1 -41.691773762996995 21.398245951402856 2.17951708866243 0 -0.57357644374324357 -0.81915203911291934 0.5 0 0 1 I I -0.70710678118654746 0.70710678118654746 0.5 forward I I I I #
loop $-1 $-1 $90 $23 #
coedge $-1 $56 $56 $91 $92 reversed $35 $-1 #
face $-1 $-1 $93 $19 $-1 $94 forward single #
loop $-1 $95 $96 $37 #
cone-surface $-1 -37.670224653953973 21.398245951402856 2.17951708866243 0 -0.57357644374324357 -0.81915203911291934 0.5 0 0 1 I I -0.70710678118654746 0.70710678118654746 0.5 forward I I I I #
loop $-1 $-1 $97 $24 #
coedge $-1 $61 $61 $98 $99 reversed $38 $-1 #
face $-1 $100 $101 $15 $-1 $102 reversed single #
loop $-1 $-1 $103 $40 #
plane-surface $-1 0 0 -5.6787462660972094 0 0 1 1 0 0 forward_v I I I I #
coedge $-1 $104 $105 $106 $107 forward $41 $-1 #
coedge $-1 $108 $43 $109 $110 reversed $26 $-1 #
coedge $-1 $43 $108 $111 $112 forward $26 $-1 #
coedge $-1 $113 $103 $43 $69 forward $63 $-1 #
edge $-1 $114 -46.469924008911406 $115 46.469924008911406 $43 $116 forward 7 unknown #
face $-1 $117 $118 $16 $-1 $119 reversed single #
loop $-1 $-1 $120 $44 #
plane-surface $-1 -36.612431476716985 -31.79229842133811 0 0 1 0 0 0 1 forward_v I I I I #
coedge $-1 $121 $122 $75 $123 forward $45 $-1 #
coedge $-1 $124 $47 $125 $126 reversed $29 $-1 #
coedge $-1 $47 $124 $73 $123 reversed $29 $-1 #
coedge $-1 $127 $128 $47 $77 reversed $118 $-1 #
edge $-1 $129 -5.6787462660972094 $130 5.6787462660972094 $76 $131 forward 7 unknown #
face $-1 $132 $133 $17 $-1 $134 forward single #
loop $-1 $-1 $135 $48 #
plane-surface $-1 -34.989191914591956 37.179930079089232 106.89787053049878 -1 0 0 0 0.57357644374324357 0.81915203911291934 forward_v I I I I #
coedge $-1 $136 $137 $138 $139 reversed $49 $-1 #
coedge $-1 $83 $51 $140 $141 reversed $32 $-1 #
coedge $-1 $51 $82 $136 $142 reversed $32 $-1 #
coedge $-1 $138 $143 $51 $85 forward $133 $-1 #
edge $-1 $144 -6.6772672705469418 $145 -1.1101747016025882 $84 $146 forward 7 unknown #
loop $-1 $-1 $91 $52 #
plane-surface $-1 -39.680999208475484 -16.128177429011124 30.766004511854405 0 0.57357644374324357 0.81915203911291934 1 0 0 forward_v I I I I #
loop $-1 $-1 $147 $34 #
coedge $-1 $89 $89 $90 $148 reversed $53 $-1 #
coedge $-1 $90 $90 $89 $148 forward $55 $-1 #
coedge $-1 $91 $91 $56 $92 forward $86 $-1 #
edge $-1 $149 -1.0188764387621837e-015 $149 6.2831853071795996 $91 $150 forward 7 unknown #
loop $-1 $-1 $98 $57 #
plane-surface $-1 -39.680999208475484 -16.128177429011124 30.766004511854405 0 0.57357644374324357 0.81915203911291934 1 0 0 forward_v I I I I #
loop $-1 $-1 $151 $37 #
coedge $-1 $96 $96 $97 $152 reversed $58 $-1 #
coedge $-1 $97 $97 $96 $152 forward $60 $-1 #
coedge $-1 $98 $98 $61 $99 forward $93 $-1 #
edge $-1 $153 -1.0188764387621837e-015 $153 6.2831853071795996 $98 $154 forward 7 unknown #
face $-1 $155 $156 $15 $-1 $157 reversed single #
loop $-1 $-1 $158 $62 #
plane-surface $-1 -46.469924008911406 0 0 1 0 0 0 0 -1 forward_v I I I I #
coedge $-1 $68 $159 $160 $161 forward $63 $-1 #
coedge $-1 $162 $65 $163 $164 forward $41 $-1 #
coedge $-1 $65 $162 $108 $165 forward $41 $-1 #
coedge $-1 $109 $166 $65 $107 reversed $167 $-1 #
edge $-1 $168 -25.267232310091558 $169 25.267232310091558 $106 $170 forward 7 unknown #
coedge $-1 $67 $66 $105 $165 reversed $26 $-1 #
coedge $-1 $160 $106 $66 $110 forward $167 $-1 #
edge $-1 $168 -5.6787462660972094 $114 5.6787462660972094 $109 $171 forward 7 unknown #
coedge $-1 $172 $173 $67 $112 reversed $101 $-1 #
edge $-1 $174 -5.6787462660972094 $115 5.6787462660972094 $111 $175 forward 7 unknown #
coedge $-1 $159 $68 $173 $176 forward $63 $-1 #
vertex $-1 $110 $177 #
vertex $-1 $176 $178 #
straight-curve $-1 0 -25.267232310091558 -5.6787462660972094 -1 0 0 I I #
face $-1 $179 $180 $16 $-1 $181 reversed single #
loop $-1 $-1 $76 $70 #
plane-surface $-1 -38.112431476716985 -28.529765365714834 0 1 0 0 0 0 -1 forward_v I I I I #
coedge $-1 $182 $183 $184 $185 forward $71 $-1 #
coedge $-1 $186 $73 $187 $188 forward $45 $-1 #
coedge $-1 $73 $186 $127 $189 forward $45 $-1 #
edge $-1 $129 -38.112431476716985 $190 -35.112431476716985 $73 $191 forward 7 unknown #
coedge $-1 $75 $74 $192 $193 forward $29 $-1 #
coedge $-1 $194 $195 $74 $126 forward $196 $-1 #
edge $-1 $197 35.112431476716985 $130 38.112431476716985 $125 $198 forward 7 unknown #
coedge $-1 $184 $76 $122 $189 reversed $118 $-1 #
coedge $-1 $76 $184 $194 $199 reversed $118 $-1 #
vertex $-1 $123 $200 #
vertex $-1 $199 $201 #
straight-curve $-1 -38.112431476716985 -25.267232310091558 0 0 0 1 I I #
face $-1 $-1 $202 $17 $-1 $203 reversed single #
loop $-1 $-1 $84 $78 #
plane-surface $-1 0 0 5.6787462660972094 0 0 1 1 0 0 forward_v I I I I #
coedge $-1 $204 $205 $206 $207 reversed $79 $-1 #
coedge $-1 $208 $81 $83 $142 forward $49 $-1 #
coedge $-1 $81 $208 $204 $209 forward $49 $-1 #
coedge $-1 $206 $84 $81 $139 forward $133 $-1 #
edge $-1 $145 -24.53230689812127 $210 -15.148692310354214 $138 $211 forward 7 unknown #
coedge $-1 $212 $213 $82 $141 forward $202 $-1 #
edge $-1 $214 -51.668309256708383 $144 -47.770188999152182 $140 $215 forward 7 unknown #
edge $-1 $145 43.738299435789386 $214 50.534464620183115 $83 $216 forward 7 unknown #
coedge $-1 $84 $206 $212 $217 forward $133 $-1 #
vertex $-1 $141 $218 #
vertex $-1 $85 $219 #
straight-curve $-1 -44.372806502359012 18.589965039544616 5.6787462660972068 0 -1 0 I I #
coedge $-1 $147 $147 $-1 $220 reversed $88 $-1 #
edge $-1 $221 0 $221 6.2831853071796004 $89 $222 forward 7 unknown #
vertex $-1 $92 $223 #
ellipse-curve $-1 -41.691773762996995 22.483686025619381 3.729686137319109 0 0.57357644374324357 0.81915203911291934 1 0 0 1 I I #
coedge $-1 $151 $151 $-1 $224 reversed $95 $-1 #
edge $-1 $225 0 $225 6.2831853071796004 $96 $226 forward 7 unknown #
vertex $-1 $99 $227 #
ellipse-curve $-1 -37.670224653953973 22.483686025619381 3.729686137319109 0 0.57357644374324357 0.81915203911291934 1 0 0 1 I I #
face $-1 $-1 $167 $15 $-1 $228 reversed single #
loop $-1 $-1 $229 $100 #
plane-surface $-1 0 25.267232310091558 0 0 -1 0 0 0 -1 forward_v I I I I #
coedge $-1 $173 $172 $230 $231 forward $101 $-1 #
coedge $-1 $103 $113 $232 $233 forward $63 $-1 #
coedge $-1 $166 $109 $103 $161 reversed $167 $-1 #
edge $-1 $234 -25.267232310091558 $114 25.267232310091558 $160 $235 forward 7 unknown #
coedge $-1 $105 $104 $172 $236 forward $41 $-1 #
coedge $-1 $229 $230 $104 $164 reversed $156 $-1 #
edge $-1 $169 -46.469924008911406 $237 46.469924008911406 $163 $238 forward 7 unknown #
edge $-1 $174 -46.469924008911406 $168 46.469924008911406 $108 $239 forward 7 unknown #
coedge $-1 $106 $160 $229 $240 reversed $167 $-1 #
loop $-1 $-1 $109 $155 #
vertex $-1 $107 $241 #
vertex $-1 $107 $242 #
straight-curve $-1 46.469924008911406 0 5.6787462660972094 0 1 0 I I #
straight-curve $-1 46.469924008911406 -25.267232310091558 0 0 0 -1 I I #
coedge $-1 $158 $111 $162 $236 reversed $101 $-1 #
coedge $-1 $111 $158 $113 $176 reversed $101 $-1 #
vertex $-1 $236 $243 #
straight-curve $-1 -46.469924008911406 -25.267232310091558 0 0 0 -1 I I #
edge $-1 $115 -25.267232310091558 $244 25.267232310091558 $173 $245 forward 7 unknown #
point $-1 46.469924008911406 -25.267232310091558 -5.6787462660972094 #
point $-1 -46.469924008911406 -25.267232310091558 -5.6787462660972094 #
face $-1 $-1 $196 $16 $-1 $246 forward single #
loop $-1 $-1 $247 $117 #
plane-surface $-1 -35.112431476716985 -28.529765365714834 0 -1 0 0 0 0 1 forward_v I I I I #
coedge $-1 $248 $120 $186 $249 reversed $71 $-1 #
coedge $-1 $120 $248 $250 $251 reversed $71 $-1 #
coedge $-1 $128 $127 $120 $185 reversed $118 $-1 #
edge $-1 $252 -5.6787462660972094 $253 5.6787462660972094 $184 $254 forward 7 unknown #
coedge $-1 $122 $121 $182 $249 forward $45 $-1 #
coedge $-1 $192 $247 $121 $188 reversed $180 $-1 #
edge $-1 $190 -3.2625330556232761 $255 3.2625330556232761 $187 $256 forward 7 unknown #
edge $-1 $253 -3.2625330556232761 $129 3.2625330556232761 $127 $257 forward 7 unknown #
vertex $-1 $188 $258 #
straight-curve $-1 0 -25.267232310091558 -5.6787462660972094 1 0 0 I I #
coedge $-1 $259 $187 $124 $193 reversed $180 $-1 #
edge $-1 $197 -5.6787462660972094 $190 5.6787462660972094 $192 $260 forward 7 unknown #
coedge $-1 $250 $125 $128 $199 forward $196 $-1 #
coedge $-1 $125 $250 $259 $261 forward $196 $-1 #
loop $-1 $-1 $125 $179 #
vertex $-1 $126 $262 #
straight-curve $-1 0 -25.267232310091558 5.6787462660972094 -1 0 0 I I #
edge $-1 $130 -3.2625330556232761 $252 3.2625330556232761 $128 $263 forward 7 unknown #
point $-1 -38.112431476716985 -25.267232310091558 -5.6787462660972094 #
point $-1 -38.112431476716985 -25.267232310091558 5.6787462660972094 #
loop $-1 $-1 $140 $132 #
plane-surface $-1 0 25.267232310091558 0 0 -1 0 0 0 -1 forward_v I I I I #
coedge $-1 $205 $135 $137 $209 reversed $79 $-1 #
coedge $-1 $135 $204 $264 $265 reversed $79 $-1 #
coedge $-1 $143 $138 $135 $207 forward $133 $-1 #
edge $-1 $210 1.1101747016025882 $266 6.6772672705469418 $206 $267 forward 7 unknown #
coedge $-1 $137 $136 $213 $268 reversed $49 $-1 #
edge $-1 $269 -50.534464620183115 $210 -43.738299435789386 $204 $270 forward 7 unknown #
vertex $-1 $139 $271 #
straight-curve $-1 -19.840499604237742 19.700139741147201 5.6787462660972103 1 0 0 I I #
coedge $-1 $264 $140 $143 $217 reversed $202 $-1 #
coedge $-1 $140 $264 $208 $268 forward $202 $-1 #
vertex $-1 $141 $272 #
straight-curve $-1 -44.372806502359012 25.267232310091558 53.448935265249389 0 0 1 I I #
straight-curve $-1 -44.372806502359012 -16.128177429011124 30.766004511854405 0 0.81915203911291934 -0.57357644374324357 I I #
edge $-1 $266 34.989191914591956 $144 44.372806502359012 $212 $273 forward 7 unknown #
point $-1 -44.372806502359012 25.267232310091558 5.6787462660972094 #
point $-1 -44.372806502359012 19.700139741147204 5.6787462660972103 #
edge $-1 $274 1 $274 0 $147 $-1 forward 7 unknown #
vertex $-1 $148 $275 #
ellipse-curve $-1 -41.691773762996995 21.685034173274477 2.5890931082188895 0 0.57357644374324357 0.81915203911291934 1 0 0 1 I I #
point $-1 -40.691773762996995 22.483686025619381 3.7296861373191108 #
edge $-1 $276 1 $276 0 $151 $-1 forward 7 unknown #
vertex $-1 $152 $277 #
ellipse-curve $-1 -37.670224653953973 21.685034173274477 2.5890931082188895 0 0.57357644374324357 0.81915203911291934 1 0 0 1 I I #
point $-1 -36.670224653953973 22.483686025619381 3.7296861373191108 #
plane-surface $-1 46.469924008911406 0 0 -1 0 0 0 0 1 forward_v I I I I #
coedge $-1 $232 $163 $166 $240 forward $156 $-1 #
coedge $-1 $163 $232 $158 $231 reversed $156 $-1 #
edge $-1 $237 -5.6787462660972094 $244 5.6787462660972094 $230 $278 forward 7 unknown #
coedge $-1 $230 $229 $159 $233 reversed $156 $-1 #
edge $-1 $244 -46.469924008911406 $234 46.469924008911406 $232 $279 forward 7 unknown #
vertex $-1 $161 $280 #
straight-curve $-1 46.469924008911406 0 -5.6787462660972094 0 -1 0 I I #
edge $-1 $237 -25.267232310091558 $174 25.267232310091558 $172 $281 forward 7 unknown #
vertex $-1 $164 $282 #
straight-curve $-1 0 25.267232310091558 5.6787462660972094 -1 0 0 I I #
straight-curve $-1 0 -25.267232310091558 5.6787462660972094 1 0 0 I I #
edge $-1 $169 -5.6787462660972094 $234 5.6787462660972094 $166 $283 forward 7 unknown #
point $-1 46.469924008911406 -25.267232310091558 5.6787462660972094 #
point $-1 46.469924008911406 25.267232310091558 5.6787462660972094 #
point $-1 -46.469924008911406 -25.267232310091558 5.6787462660972094 #
vertex $-1 $233 $284 #
straight-curve $-1 -46.469924008911406 0 -5.6787462660972094 0 1 0 I I #
plane-surface $-1 0 0 5.6787462660972094 0 0 1 1 0 0 forward_v I I I I #
coedge $-1 $187 $259 $248 $285 forward $180 $-1 #
coedge $-1 $183 $182 $247 $285 reversed $71 $-1 #
edge $-1 $255 -1.5 $253 1.5 $182 $286 forward 7 unknown #
coedge $-1 $195 $194 $183 $251 forward $196 $-1 #
edge $-1 $252 -1.5 $287 1.5 $183 $288 forward 7 unknown #
vertex $-1 $199 $289 #
vertex $-1 $189 $290 #
straight-curve $-1 -38.112431476716985 -31.79229842133811 0 0 0 -1 I I #
vertex $-1 $285 $291 #
straight-curve $-1 -35.112431476716985 -28.529765365714834 -5.6787462660972094 0 -1 0 I I #
straight-curve $-1 -38.112431476716985 -28.529765365714834 -5.6787462660972094 0 1 0 I I #
point $-1 -35.112431476716985 -25.267232310091558 -5.6787462660972094 #
coedge $-1 $247 $192 $195 $261 reversed $180 $-1 #
straight-curve $-1 -35.112431476716985 -25.267232310091558 0 0 0 -1 I I #
edge $-1 $287 -3.2625330556232761 $197 3.2625330556232761 $259 $292 forward 7 unknown #
point $-1 -35.112431476716985 -25.267232310091558 5.6787462660972094 #
straight-curve $-1 -38.112431476716985 -28.529765365714834 5.6787462660972094 0 -1 0 I I #
coedge $-1 $213 $212 $205 $265 forward $202 $-1 #
edge $-1 $266 47.770188999152182 $269 51.668309256708383 $264 $293 forward 7 unknown #
vertex $-1 $217 $294 #
straight-curve $-1 -34.989191914591956 18.589965039544616 5.6787462660972068 0 1 0 I I #
edge $-1 $269 15.148692310354214 $214 24.53230689812127 $213 $295 forward 7 unknown #
vertex $-1 $268 $296 #
straight-curve $-1 -34.989191914591956 -16.128177429011124 30.766004511854405 0 -0.81915203911291934 0.57357644374324357 I I #
point $-1 -34.989191914591956 19.700139741147204 5.6787462660972103 #
point $-1 -44.372806502359012 25.267232310091558 1.7806260085410059 #
straight-curve $-1 0 25.267232310091558 5.6787462660972094 -1 0 0 I I #
vertex $-1 $220 $297 #
point $-1 -40.691773762996995 21.685034173274477 2.5890931082188895 #
vertex $-1 $224 $298 #
point $-1 -36.670224653953973 21.685034173274477 2.5890931082188895 #
straight-curve $-1 -46.469924008911406 25.267232310091558 0 0 0 -1 I I #
straight-curve $-1 0 25.267232310091558 -5.6787462660972094 1 0 0 I I #
point $-1 46.469924008911406 25.267232310091558 -5.6787462660972094 #
straight-curve $-1 -46.469924008911406 0 5.6787462660972094 0 -1 0 I I #
point $-1 -46.469924008911406 25.267232310091558 5.6787462660972094 #
straight-curve $-1 46.469924008911406 25.267232310091558 0 0 0 -1 I I #
point $-1 -46.469924008911406 25.267232310091558 -5.6787462660972094 #
edge $-1 $287 -5.6787462660972094 $255 5.6787462660972094 $247 $299 forward 7 unknown #
straight-curve $-1 -36.612431476716985 -31.79229842133811 -5.6787462660972094 -1 0 0 I I #
vertex $-1 $261 $300 #
straight-curve $-1 -36.612431476716985 -31.79229842133811 5.6787462660972094 1 0 0 I I #
point $-1 -38.112431476716985 -31.79229842133811 5.6787462660972094 #
point $-1 -38.112431476716985 -31.79229842133811 -5.6787462660972094 #
point $-1 -35.112431476716985 -31.79229842133811 -5.6787462660972094 #
straight-curve $-1 -35.112431476716985 -28.529765365714834 5.6787462660972094 0 1 0 I I #
straight-curve $-1 -34.989191914591956 25.267232310091558 53.448935265249389 0 0 -1 I I #
point $-1 -34.989191914591956 25.267232310091558 5.6787462660972094 #
straight-curve $-1 -19.840499604237742 25.267232310091561 1.7806260085410042 -1 0 0 I I #
point $-1 -34.989191914591956 25.267232310091558 1.7806260085410059 #
point $-1 -41.691773762996995 21.111457729531235 1.7699410691059703 #
point $-1 -37.670224653953973 21.111457729531235 1.7699410691059703 #
straight-curve $-1 -35.112431476716985 -31.79229842133811 0 0 0 -1 I I #
point $-1 -35.112431476716985 -31.79229842133811 5.6787462660972094 #
End-of-ACIS-data 