500 0 9 0           
7 Unknown 11 ACIS 5.0 NT 24 Thu Mar 25 21:10:05 1999 
-1 9.9999999999999995e-007 1e-010 
body $-1 $9 $-1 $10 #
body $-1 $11 $-1 $12 #
body $-1 $13 $-1 $14 #
body $-1 $15 $-1 $16 #
body $-1 $17 $-1 $18 #
body $-1 $19 $-1 $20 #
body $-1 $21 $-1 $22 #
body $-1 $23 $-1 $24 #
body $-1 $25 $-1 $26 #
lump $-1 $-1 $27 $0 #
transform $-1 1 0 0 0 1 0 0 0 1 75.099948118533888 42.114598732653945 12.948886358584611 1 rotate no_reflect no_shear #
lump $-1 $-1 $28 $1 #
transform $-1 1 0 0 0 1 0 0 0 1 75.099948118533888 42.114598732653945 12.948886358584611 1 rotate no_reflect no_shear #
lump $-1 $-1 $29 $2 #
transform $-1 1 0 0 0 1 0 0 0 1 75.099948118533888 42.114598732653945 12.948886358584611 1 rotate no_reflect no_shear #
lump $-1 $-1 $30 $3 #
transform $-1 1 0 0 0 1 0 0 0 1 75.099948118533888 42.114598732653945 12.948886358584611 1 rotate no_reflect no_shear #
lump $-1 $-1 $31 $4 #
transform $-1 1 0 0 0 1 0 0 0 1 75.099948118533888 42.114598732653945 12.948886358584611 1 rotate no_reflect no_shear #
lump $-1 $-1 $32 $5 #
transform $-1 1 0 0 0 1 0 0 0 1 75.099948118533888 42.114598732653945 12.948886358584611 1 rotate no_reflect no_shear #
lump $-1 $-1 $33 $6 #
transform $-1 1 0 0 0 1 0 0 0 1 75.099948118533888 42.114598732653945 12.948886358584611 1 rotate no_reflect no_shear #
lump $-1 $-1 $34 $7 #
transform $-1 1 0 0 0 1 0 0 0 1 75.099948118533888 42.114598732653945 12.948886358584611 1 rotate no_reflect no_shear #
lump $-1 $-1 $35 $8 #
transform $-1 1 0 0 0 1 0 0 0 1 75.099948118533888 42.114598732653945 12.948886358584611 1 rotate no_reflect no_shear #
shell $-1 $-1 $-1 $36 $-1 $9 #
shell $-1 $-1 $-1 $37 $-1 $11 #
shell $-1 $-1 $-1 $38 $-1 $13 #
shell $-1 $-1 $-1 $39 $-1 $15 #
shell $-1 $-1 $-1 $40 $-1 $17 #
shell $-1 $-1 $-1 $41 $-1 $19 #
shell $-1 $-1 $-1 $42 $-1 $21 #
shell $-1 $-1 $-1 $43 $-1 $23 #
shell $-1 $-1 $-1 $44 $-1 $25 #
face $-1 $45 $46 $27 $-1 $47 reversed single #
face $-1 $48 $49 $28 $-1 $50 forward single #
face $-1 $51 $52 $29 $-1 $53 reversed single #
face $-1 $54 $55 $30 $-1 $56 forward single #
face $-1 $57 $58 $31 $-1 $59 reversed single #
face $-1 $60 $61 $32 $-1 $62 forward single #
face $-1 $63 $64 $33 $-1 $65 reversed single #
face $-1 $66 $67 $34 $-1 $68 forward single #
face $-1 $69 $70 $35 $-1 $71 forward single #
face $-1 $72 $73 $27 $-1 $74 forward single #
loop $-1 $-1 $75 $36 #
plane-surface $-1 0 -42.114598732653945 0 0 1 0 0 0 1 forward_v I I I I #
face $-1 $76 $77 $28 $-1 $78 reversed single #
loop $-1 $-1 $79 $37 #
plane-surface $-1 0 -42.114598732653945 0 0 1 0 0 0 1 forward_v I I I I #
face $-1 $80 $81 $29 $-1 $82 reversed single #
loop $-1 $-1 $83 $38 #
plane-surface $-1 -156.90467573625313 -26.29653065235091 128.04533146068232 0 1 0 -0.54463904215088732 0 0.83867056331134215 forward_v I I I I #
face $-1 $84 $85 $30 $-1 $86 forward single #
loop $-1 $87 $88 $39 #
cone-surface $-1 -66.304322491984948 -17.679358818226063 6.8584208133684701 0.54463904215088732 0 -0.83867056331134215 1.2580058449670133 0 0.81695856322633098 1 I I 0 1 1.5 forward I I I I #
face $-1 $89 $90 $31 $-1 $91 reversed single #
loop $-1 $-1 $92 $40 #
plane-surface $-1 -156.90467573625313 19.759950133100105 128.04533146068232 0 1 0 -0.54463904215088732 0 0.83867056331134215 forward_v I I I I #
face $-1 $93 $94 $32 $-1 $95 forward single #
loop $-1 $96 $97 $41 #
cone-surface $-1 -66.304322491984948 28.377121967224952 6.8584208133684701 0.54463904215088732 0 -0.83867056331134215 1.2580058449670133 0 0.81695856322633098 1 I I 0 1 1.5 forward I I I I #
face $-1 $98 $99 $33 $-1 $100 reversed single #
loop $-1 $-1 $101 $42 #
plane-surface $-1 89.917253354436667 -0.18683331936025205 216.07639554459195 0 -1 0 -0.75470958851134928 0 -0.65605901945558964 forward_v I I I I #
face $-1 $102 $103 $34 $-1 $104 forward single #
loop $-1 $105 $106 $43 #
cone-surface $-1 69.314869629595236 -9.6537622464505048 6.8485866576134189 -0.75470958851134928 0 -0.65605901945558964 0.98408852918338452 0 -1.132064382767024 1 I I 0 1 1.5 forward I I I I #
face $-1 $107 $108 $35 $-1 $109 forward single #
loop $-1 $110 $111 $44 #
cone-surface $-1 69.314869629595236 -3.9736048901963557 6.8485866576134189 -0.75470958851134928 0 -0.65605901945558964 0.98408852918338452 0 -1.132064382767024 1 I I 0 1 1.5 forward I I I I #
face $-1 $112 $113 $27 $-1 $114 reversed single #
loop $-1 $-1 $115 $45 #
plane-surface $-1 0 0 12.948886358584611 0 0 1 1 0 0 forward_v I I I I #
coedge $-1 $116 $117 $118 $119 reversed $46 $-1 #
face $-1 $120 $121 $28 $-1 $122 reversed single #
loop $-1 $-1 $123 $48 #
plane-surface $-1 0 0 -12.948886358584611 0 0 1 1 0 0 forward_v I I I I #
coedge $-1 $124 $125 $126 $127 forward $49 $-1 #
face $-1 $128 $129 $29 $-1 $130 reversed single #
loop $-1 $-1 $131 $51 #
plane-surface $-1 -75.099948118533874 -17.679358818226063 2.0770998742355431 -0.54463904215088732 0 0.83867056331134215 0.83867056331134215 0 0.54463904215088732 forward_v I I I I #
coedge $-1 $132 $133 $134 $135 reversed $52 $-1 #
face $-1 $-1 $136 $30 $-1 $137 forward single #
loop $-1 $138 $139 $54 #
cone-surface $-1 -65.470758978561506 -17.679358818226063 5.574845587843333 0.54463904215088732 0 -0.83867056331134215 0.62900292248350664 0 0.40847928161316549 1 I I -0.70710678118654757 0.70710678118654757 0.75 forward I I I I #
loop $-1 $-1 $140 $39 #
coedge $-1 $88 $88 $141 $142 reversed $55 $-1 #
face $-1 $143 $144 $31 $-1 $145 reversed single #
loop $-1 $-1 $146 $57 #
plane-surface $-1 -75.099948118533874 28.377121967224952 2.0770998742355431 -0.54463904215088732 0 0.83867056331134215 0.83867056331134215 0 0.54463904215088732 forward_v I I I I #
coedge $-1 $147 $148 $149 $150 reversed $58 $-1 #
face $-1 $-1 $151 $32 $-1 $152 forward single #
loop $-1 $153 $154 $60 #
cone-surface $-1 -65.470758978561506 28.377121967224952 5.574845587843333 0.54463904215088732 0 -0.83867056331134215 0.62900292248350664 0 0.40847928161316549 1 I I -0.70710678118654757 0.70710678118654757 0.75 forward I I I I #
loop $-1 $-1 $155 $41 #
coedge $-1 $97 $97 $156 $157 reversed $61 $-1 #
face $-1 $158 $159 $33 $-1 $160 reversed single #
loop $-1 $-1 $161 $63 #
plane-surface $-1 -23.440048529088116 -6.8136835683234267 117.53639889696996 0.75470958851134928 0 0.65605901945558964 0.65605901945558964 0 -0.75470958851134928 forward_v I I I I #
coedge $-1 $162 $163 $164 $165 reversed $64 $-1 #
face $-1 $-1 $166 $34 $-1 $167 forward single #
loop $-1 $168 $169 $66 #
cone-surface $-1 66.77548963759844 -9.6537622464505048 4.6411373646202261 -0.75470958851134928 0 -0.65605901945558964 0.49204426459169226 0 -0.56603219138351202 1 I I -0.70710678118654757 0.70710678118654757 0.75 forward I I I I #
loop $-1 $-1 $170 $43 #
coedge $-1 $106 $106 $171 $172 reversed $67 $-1 #
face $-1 $-1 $173 $35 $-1 $174 forward single #
loop $-1 $175 $176 $69 #
cone-surface $-1 66.77548963759844 -3.9736048901963557 4.6411373646202261 -0.75470958851134928 0 -0.65605901945558964 0.49204426459169226 0 -0.56603219138351202 1 I I -0.70710678118654757 0.70710678118654757 0.75 forward I I I I #
loop $-1 $-1 $177 $44 #
coedge $-1 $111 $111 $178 $179 reversed $70 $-1 #
face $-1 $180 $181 $27 $-1 $182 reversed single #
loop $-1 $-1 $183 $72 #
plane-surface $-1 0 0 -12.948886358584611 0 0 1 1 0 0 forward_v I I I I #
coedge $-1 $184 $185 $186 $187 forward $73 $-1 #
coedge $-1 $188 $75 $189 $190 reversed $46 $-1 #
coedge $-1 $75 $188 $191 $192 forward $46 $-1 #
coedge $-1 $193 $183 $75 $119 forward $113 $-1 #
edge $-1 $194 -75.099948118533888 $195 75.099948118533888 $75 $196 forward 7 unknown #
face $-1 $197 $198 $28 $-1 $199 reversed single #
loop $-1 $-1 $200 $76 #
plane-surface $-1 -53.462752498597311 -52.812361881652819 0 0 1 0 0 0 1 forward_v I I I I #
coedge $-1 $201 $202 $125 $203 forward $77 $-1 #
coedge $-1 $204 $79 $205 $206 reversed $49 $-1 #
coedge $-1 $79 $204 $123 $203 reversed $49 $-1 #
coedge $-1 $207 $208 $79 $127 reversed $198 $-1 #
edge $-1 $209 -12.948886358584611 $210 12.948886358584611 $126 $211 forward 7 unknown #
face $-1 $212 $213 $29 $-1 $214 reversed single #
loop $-1 $-1 $215 $80 #
plane-surface $-1 -156.90467573625313 -9.0621869841012188 128.04533146068232 0 -1 0 0.54463904215088732 0 -0.83867056331134215 forward_v I I I I #
coedge $-1 $216 $217 $218 $219 reversed $81 $-1 #
coedge $-1 $133 $83 $220 $221 reversed $52 $-1 #
coedge $-1 $83 $132 $216 $222 reversed $52 $-1 #
coedge $-1 $218 $223 $83 $135 forward $224 $-1 #
edge $-1 $225 3.3523897495926747 $226 20.093472539070078 $134 $227 forward 7 unknown #
loop $-1 $-1 $141 $84 #
plane-surface $-1 -75.099948118533874 -17.679358818226063 2.0770998742355431 -0.54463904215088732 0 0.83867056331134215 0.83867056331134215 0 0.54463904215088732 forward_v I I I I #
loop $-1 $-1 $228 $54 #
coedge $-1 $139 $139 $140 $229 reversed $85 $-1 #
coedge $-1 $140 $140 $139 $229 forward $87 $-1 #
coedge $-1 $141 $141 $88 $142 forward $136 $-1 #
edge $-1 $230 0 $230 6.2831853071796004 $141 $231 forward 7 unknown #
face $-1 $232 $233 $31 $-1 $234 forward single #
loop $-1 $-1 $235 $89 #
plane-surface $-1 -156.90467573625313 36.994293801349798 128.04533146068232 0 -1 0 0.54463904215088732 0 -0.83867056331134215 forward_v I I I I #
coedge $-1 $236 $237 $238 $239 reversed $90 $-1 #
coedge $-1 $148 $92 $240 $241 reversed $58 $-1 #
coedge $-1 $92 $147 $236 $242 reversed $58 $-1 #
coedge $-1 $238 $243 $92 $150 forward $233 $-1 #
edge $-1 $244 3.3523897495926747 $245 20.093472539070078 $149 $246 forward 7 unknown #
loop $-1 $-1 $156 $93 #
plane-surface $-1 -75.099948118533874 28.377121967224952 2.0770998742355431 -0.54463904215088732 0 0.83867056331134215 0.83867056331134215 0 0.54463904215088732 forward_v I I I I #
loop $-1 $-1 $247 $60 #
coedge $-1 $154 $154 $155 $248 reversed $94 $-1 #
coedge $-1 $155 $155 $154 $248 forward $96 $-1 #
coedge $-1 $156 $156 $97 $157 forward $151 $-1 #
edge $-1 $249 0 $249 6.2831853071796004 $156 $250 forward 7 unknown #
face $-1 $251 $252 $33 $-1 $253 forward single #
loop $-1 $-1 $254 $98 #
plane-surface $-1 89.917253354436667 -13.440533817286601 216.07639554459195 0 1 0 0.75470958851134928 0 0.65605901945558964 forward_v I I I I #
coedge $-1 $255 $256 $257 $258 reversed $99 $-1 #
coedge $-1 $163 $101 $259 $260 reversed $64 $-1 #
coedge $-1 $101 $162 $255 $261 reversed $64 $-1 #
coedge $-1 $257 $262 $101 $165 forward $252 $-1 #
edge $-1 $263 -30.141321441315554 $264 -22.517860064664788 $164 $265 forward 7 unknown #
loop $-1 $-1 $171 $102 #
plane-surface $-1 -23.440048529088116 -6.8136835683234267 117.53639889696996 0.75470958851134928 0 0.65605901945558964 0.65605901945558964 0 -0.75470958851134928 forward_v I I I I #
loop $-1 $-1 $266 $66 #
coedge $-1 $169 $169 $170 $267 reversed $103 $-1 #
coedge $-1 $170 $170 $169 $267 forward $105 $-1 #
coedge $-1 $171 $171 $106 $172 forward $166 $-1 #
edge $-1 $268 0 $268 6.2831853071796004 $171 $269 forward 7 unknown #
loop $-1 $-1 $178 $107 #
plane-surface $-1 -23.440048529088116 -6.8136835683234267 117.53639889696996 0.75470958851134928 0 0.65605901945558964 0.65605901945558964 0 -0.75470958851134928 forward_v I I I I #
loop $-1 $-1 $270 $69 #
coedge $-1 $176 $176 $177 $271 reversed $108 $-1 #
coedge $-1 $177 $177 $176 $271 forward $110 $-1 #
coedge $-1 $178 $178 $111 $179 forward $173 $-1 #
edge $-1 $272 0 $272 6.2831853071796004 $178 $273 forward 7 unknown #
face $-1 $274 $275 $27 $-1 $276 reversed single #
loop $-1 $-1 $277 $112 #
plane-surface $-1 -75.099948118533888 0 0 1 0 0 0 0 -1 forward_v I I I I #
coedge $-1 $118 $278 $279 $280 forward $113 $-1 #
coedge $-1 $281 $115 $282 $283 forward $73 $-1 #
coedge $-1 $115 $281 $188 $284 forward $73 $-1 #
coedge $-1 $189 $285 $115 $187 reversed $286 $-1 #
edge $-1 $287 -42.114598732653945 $288 42.114598732653945 $186 $289 forward 7 unknown #
coedge $-1 $117 $116 $185 $284 reversed $46 $-1 #
coedge $-1 $279 $186 $116 $190 forward $286 $-1 #
edge $-1 $287 -12.948886358584611 $194 12.948886358584611 $189 $290 forward 7 unknown #
coedge $-1 $291 $292 $117 $192 reversed $181 $-1 #
edge $-1 $293 -12.948886358584611 $195 12.948886358584611 $191 $294 forward 7 unknown #
coedge $-1 $278 $118 $292 $295 forward $113 $-1 #
vertex $-1 $190 $296 #
vertex $-1 $295 $297 #
straight-curve $-1 0 -42.114598732653945 -12.948886358584611 -1 0 0 I I #
face $-1 $298 $299 $28 $-1 $300 reversed single #
loop $-1 $-1 $126 $120 #
plane-surface $-1 -55.995268085284813 -47.463480307153382 0 1 0 0 0 0 -1 forward_v I I I I #
coedge $-1 $301 $302 $303 $304 forward $121 $-1 #
coedge $-1 $305 $123 $306 $307 forward $77 $-1 #
coedge $-1 $123 $305 $207 $308 forward $77 $-1 #
edge $-1 $209 -55.995268085284813 $309 -50.930236911909809 $123 $310 forward 7 unknown #
coedge $-1 $125 $124 $311 $312 forward $49 $-1 #
coedge $-1 $313 $314 $124 $206 forward $315 $-1 #
edge $-1 $316 50.930236911909809 $210 55.995268085284813 $205 $317 forward 7 unknown #
coedge $-1 $303 $126 $202 $308 reversed $198 $-1 #
coedge $-1 $126 $303 $313 $318 reversed $198 $-1 #
vertex $-1 $203 $319 #
vertex $-1 $318 $320 #
straight-curve $-1 -55.995268085284813 -42.114598732653945 0 0 0 1 I I #
face $-1 $-1 $224 $29 $-1 $321 forward single #
loop $-1 $-1 $322 $128 #
plane-surface $-1 -75.099948118533888 0 0 1 0 0 0 0 -1 forward_v I I I I #
coedge $-1 $323 $324 $325 $326 reversed $129 $-1 #
coedge $-1 $327 $131 $133 $222 forward $81 $-1 #
coedge $-1 $131 $327 $323 $328 forward $81 $-1 #
coedge $-1 $325 $134 $131 $219 forward $224 $-1 #
edge $-1 $226 -17.456851243237878 $329 -0.22250757498818707 $218 $330 forward 7 unknown #
coedge $-1 $331 $332 $132 $221 forward $213 $-1 #
edge $-1 $333 -61.945565856105624 $225 -51.073779371756551 $220 $334 forward 7 unknown #
edge $-1 $226 -19.961452710797655 $333 1.699746028866204e-014 $133 $335 forward 7 unknown #
coedge $-1 $134 $325 $331 $336 forward $224 $-1 #
loop $-1 $-1 $325 $212 #
vertex $-1 $221 $337 #
vertex $-1 $135 $338 #
straight-curve $-1 -78.452337868126563 -26.29653065235091 12.948886358584609 1 0 0 I I #
coedge $-1 $228 $228 $-1 $339 reversed $138 $-1 #
edge $-1 $340 0 $340 6.2831853071796004 $139 $341 forward 7 unknown #
vertex $-1 $142 $342 #
ellipse-curve $-1 -66.729406723795194 -17.679358818226063 7.5129931164100636 -0.54463904215088732 0 0.83867056331134215 1.2580058449670133 0 0.81695856322633098 1 I I #
face $-1 $-1 $343 $31 $-1 $344 reversed single #
loop $-1 $-1 $149 $143 #
plane-surface $-1 0 0 12.948886358584611 0 0 1 1 0 0 forward_v I I I I #
coedge $-1 $345 $346 $347 $348 reversed $144 $-1 #
coedge $-1 $349 $146 $148 $242 forward $90 $-1 #
coedge $-1 $146 $349 $345 $350 forward $90 $-1 #
coedge $-1 $347 $149 $146 $239 forward $233 $-1 #
edge $-1 $245 5.5713891494876293 $351 22.805732817737322 $238 $352 forward 7 unknown #
coedge $-1 $353 $354 $147 $241 forward $343 $-1 #
edge $-1 $355 -61.945565856105624 $244 -51.073779371756551 $240 $356 forward 7 unknown #
edge $-1 $245 -19.961452710797655 $355 1.699746028866204e-014 $148 $357 forward 7 unknown #
coedge $-1 $149 $347 $353 $358 forward $233 $-1 #
vertex $-1 $150 $359 #
vertex $-1 $150 $360 #
straight-curve $-1 -78.452337868126563 19.759950133100105 12.948886358584609 1 0 0 I I #
coedge $-1 $247 $247 $-1 $361 reversed $153 $-1 #
edge $-1 $362 0 $362 6.2831853071796004 $154 $363 forward 7 unknown #
vertex $-1 $157 $364 #
ellipse-curve $-1 -66.729406723795194 28.377121967224952 7.5129931164100636 -0.54463904215088732 0 0.83867056331134215 1.2580058449670133 0 0.81695856322633098 1 I I #
face $-1 $-1 $365 $33 $-1 $366 reversed single #
loop $-1 $-1 $164 $158 #
plane-surface $-1 0 0 12.948886358584611 0 0 1 1 0 0 forward_v I I I I #
coedge $-1 $367 $368 $369 $370 reversed $159 $-1 #
coedge $-1 $371 $161 $163 $261 forward $99 $-1 #
coedge $-1 $161 $371 $367 $372 forward $99 $-1 #
coedge $-1 $369 $164 $161 $258 forward $252 $-1 #
edge $-1 $264 -3.2200084648014613 $373 10.033692033124888 $257 $374 forward 7 unknown #
coedge $-1 $375 $376 $162 $260 forward $365 $-1 #
edge $-1 $377 -103.85910075885081 $263 -95.089311413711357 $259 $378 forward 7 unknown #
edge $-1 $264 138.57981153344335 $377 150.19989623706783 $163 $379 forward 7 unknown #
coedge $-1 $164 $369 $375 $380 forward $252 $-1 #
vertex $-1 $165 $381 #
vertex $-1 $165 $382 #
straight-curve $-1 44.958626677218334 -0.18683331936025205 12.948886358584616 -1 0 0 I I #
coedge $-1 $266 $266 $-1 $383 reversed $168 $-1 #
edge $-1 $384 0 $384 6.2831853071796004 $169 $385 forward 7 unknown #
vertex $-1 $172 $386 #
ellipse-curve $-1 71.288217430208491 -9.6537622464505048 8.5639916860148944 0.75470958851134928 0 0.65605901945558964 0.98408852918338452 0 -1.132064382767024 1 I I #
coedge $-1 $270 $270 $-1 $387 reversed $175 $-1 #
edge $-1 $388 0 $388 6.2831853071796004 $176 $389 forward 7 unknown #
vertex $-1 $179 $390 #
ellipse-curve $-1 71.288217430208491 -3.9736048901963557 8.5639916860148944 0.75470958851134928 0 0.65605901945558964 0.98408852918338452 0 -1.132064382767024 1 I I #
face $-1 $-1 $286 $27 $-1 $391 reversed single #
loop $-1 $-1 $392 $180 #
plane-surface $-1 0 42.114598732653945 0 0 -1 0 0 0 -1 forward_v I I I I #
coedge $-1 $292 $291 $393 $394 forward $181 $-1 #
coedge $-1 $183 $193 $395 $396 forward $113 $-1 #
coedge $-1 $285 $189 $183 $280 reversed $286 $-1 #
edge $-1 $397 -42.114598732653945 $194 42.114598732653945 $279 $398 forward 7 unknown #
coedge $-1 $185 $184 $291 $399 forward $73 $-1 #
coedge $-1 $392 $393 $184 $283 reversed $275 $-1 #
edge $-1 $288 -75.099948118533888 $400 75.099948118533888 $282 $401 forward 7 unknown #
edge $-1 $293 -75.099948118533888 $287 75.099948118533888 $188 $402 forward 7 unknown #
coedge $-1 $186 $279 $392 $403 reversed $286 $-1 #
loop $-1 $-1 $189 $274 #
vertex $-1 $187 $404 #
vertex $-1 $187 $405 #
straight-curve $-1 75.099948118533888 0 12.948886358584611 0 1 0 I I #
straight-curve $-1 75.099948118533888 -42.114598732653945 0 0 0 -1 I I #
coedge $-1 $277 $191 $281 $399 reversed $181 $-1 #
coedge $-1 $191 $277 $193 $295 reversed $181 $-1 #
vertex $-1 $399 $406 #
straight-curve $-1 -75.099948118533888 -42.114598732653945 0 0 0 -1 I I #
edge $-1 $195 -42.114598732653945 $407 42.114598732653945 $292 $408 forward 7 unknown #
point $-1 75.099948118533888 -42.114598732653945 -12.948886358584611 #
point $-1 -75.099948118533888 -42.114598732653945 -12.948886358584611 #
face $-1 $-1 $315 $28 $-1 $409 forward single #
loop $-1 $-1 $410 $197 #
plane-surface $-1 -50.930236911909809 -47.463480307153382 0 -1 0 0 0 0 1 forward_v I I I I #
coedge $-1 $411 $200 $305 $412 reversed $121 $-1 #
coedge $-1 $200 $411 $413 $414 reversed $121 $-1 #
coedge $-1 $208 $207 $200 $304 reversed $198 $-1 #
edge $-1 $415 -12.948886358584611 $416 12.948886358584611 $303 $417 forward 7 unknown #
coedge $-1 $202 $201 $301 $412 forward $77 $-1 #
coedge $-1 $311 $410 $201 $307 reversed $299 $-1 #
edge $-1 $309 -5.3488815744994369 $418 5.3488815744994369 $306 $419 forward 7 unknown #
edge $-1 $416 -5.3488815744994369 $209 5.3488815744994369 $207 $420 forward 7 unknown #
vertex $-1 $307 $421 #
straight-curve $-1 0 -42.114598732653945 -12.948886358584611 1 0 0 I I #
coedge $-1 $422 $306 $204 $312 reversed $299 $-1 #
edge $-1 $316 -12.948886358584611 $309 12.948886358584611 $311 $423 forward 7 unknown #
coedge $-1 $413 $205 $208 $318 forward $315 $-1 #
coedge $-1 $205 $413 $422 $424 forward $315 $-1 #
loop $-1 $-1 $205 $298 #
vertex $-1 $206 $425 #
straight-curve $-1 0 -42.114598732653945 12.948886358584611 -1 0 0 I I #
edge $-1 $210 -5.3488815744994369 $415 5.3488815744994369 $208 $426 forward 7 unknown #
point $-1 -55.995268085284813 -42.114598732653945 -12.948886358584611 #
point $-1 -55.995268085284813 -42.114598732653945 12.948886358584611 #
plane-surface $-1 0 0 12.948886358584611 0 0 1 1 0 0 forward_v I I I I #
coedge $-1 $332 $331 $324 $427 forward $213 $-1 #
coedge $-1 $324 $215 $217 $328 reversed $129 $-1 #
coedge $-1 $215 $323 $322 $427 reversed $129 $-1 #
coedge $-1 $223 $218 $215 $326 forward $224 $-1 #
edge $-1 $329 -20.093472539070078 $428 -3.3523897495926747 $325 $429 forward 7 unknown #
coedge $-1 $217 $216 $332 $430 reversed $81 $-1 #
edge $-1 $431 -1.699746028866204e-014 $329 19.961452710797655 $323 $432 forward 7 unknown #
vertex $-1 $219 $433 #
straight-curve $-1 -58.358865329056485 -8.8396794091130317 12.948886358584611 0 1 0 I I #
coedge $-1 $322 $220 $223 $336 reversed $213 $-1 #
coedge $-1 $220 $322 $327 $430 forward $213 $-1 #
vertex $-1 $221 $434 #
straight-curve $-1 -75.099948118533888 -26.29653065235091 64.02266573034116 0 0 1 I I #
straight-curve $-1 -75.099948118533874 -26.29653065235091 2.0770998742355431 -0.83867056331134215 0 -0.54463904215088732 I I #
edge $-1 $428 9.0621869841012188 $225 26.29653065235091 $331 $435 forward 7 unknown #
point $-1 -75.099948118533888 -26.29653065235091 12.948886358584611 #
point $-1 -58.358865329056485 -26.29653065235091 12.948886358584611 #
edge $-1 $436 1 $436 0 $228 $-1 forward 7 unknown #
vertex $-1 $229 $437 #
ellipse-curve $-1 -65.879238260174674 -17.679358818226063 6.2038485103268393 -0.54463904215088732 0 0.83867056331134215 1.2580058449670133 0 0.81695856322633098 1 I I #
point $-1 -65.471400878828206 -17.679358818226063 8.3299516796364319 #
loop $-1 $-1 $240 $232 #
plane-surface $-1 -75.099948118533888 0 0 1 0 0 0 0 -1 forward_v I I I I #
coedge $-1 $346 $235 $237 $350 reversed $144 $-1 #
coedge $-1 $235 $345 $438 $439 reversed $144 $-1 #
coedge $-1 $243 $238 $235 $348 forward $233 $-1 #
edge $-1 $351 -20.093472539070078 $440 -3.3523897495926747 $347 $441 forward 7 unknown #
coedge $-1 $237 $236 $354 $442 reversed $90 $-1 #
edge $-1 $443 -1.699746028866204e-014 $351 19.961452710797655 $345 $444 forward 7 unknown #
vertex $-1 $239 $445 #
straight-curve $-1 -58.358865329056485 14.188560983612476 12.948886358584611 0 1 0 I I #
coedge $-1 $438 $240 $243 $358 reversed $343 $-1 #
coedge $-1 $240 $438 $349 $442 forward $343 $-1 #
vertex $-1 $241 $446 #
straight-curve $-1 -75.099948118533888 19.759950133100105 64.02266573034116 0 0 1 I I #
straight-curve $-1 -75.099948118533874 19.759950133100105 2.0770998742355431 -0.83867056331134215 0 -0.54463904215088732 I I #
edge $-1 $440 -36.994293801349798 $244 -19.759950133100105 $353 $447 forward 7 unknown #
point $-1 -75.099948118533888 19.759950133100105 12.948886358584611 #
point $-1 -58.358865329056485 19.759950133100105 12.948886358584611 #
edge $-1 $448 1 $448 0 $247 $-1 forward 7 unknown #
vertex $-1 $248 $449 #
ellipse-curve $-1 -65.879238260174674 28.377121967224952 6.2038485103268393 -0.54463904215088732 0 0.83867056331134215 1.2580058449670133 0 0.81695856322633098 1 I I #
point $-1 -65.471400878828206 28.377121967224952 8.3299516796364319 #
loop $-1 $-1 $259 $251 #
plane-surface $-1 75.099948118533888 0 0 -1 0 0 0 0 1 forward_v I I I I #
coedge $-1 $368 $254 $256 $372 reversed $159 $-1 #
coedge $-1 $254 $367 $450 $451 reversed $159 $-1 #
coedge $-1 $262 $257 $254 $370 forward $252 $-1 #
edge $-1 $373 22.517860064664788 $452 30.141321441315554 $369 $453 forward 7 unknown #
coedge $-1 $256 $255 $376 $454 reversed $99 $-1 #
edge $-1 $455 -150.19989623706783 $373 -138.57981153344335 $367 $456 forward 7 unknown #
vertex $-1 $258 $457 #
straight-curve $-1 67.476486741883122 -3.4068417841617133 12.948886358584616 0 -1 0 I I #
coedge $-1 $450 $259 $262 $380 reversed $365 $-1 #
coedge $-1 $259 $450 $371 $454 forward $365 $-1 #
vertex $-1 $260 $458 #
straight-curve $-1 75.099948118533888 -0.18683331936025205 108.03819777229597 0 0 1 I I #
straight-curve $-1 -23.440048529088116 -0.18683331936025205 117.53639889696996 0.65605901945558964 0 -0.75470958851134928 I I #
edge $-1 $452 -13.440533817286601 $263 -0.18683331936025205 $375 $459 forward 7 unknown #
point $-1 75.099948118533888 -0.18683331936025205 12.948886358584611 #
point $-1 67.476486741883122 -0.18683331936025205 12.948886358584616 #
edge $-1 $460 1 $460 0 $266 $-1 forward 7 unknown #
vertex $-1 $267 $461 #
ellipse-curve $-1 67.341521828981953 -9.6537622464505048 5.1331816292119186 0.75470958851134928 0 0.65605901945558964 0.98408852918338452 0 -1.132064382767024 1 I I #
point $-1 72.2723059593919 -9.6537622464505048 7.4319273032478952 #
edge $-1 $462 1 $462 0 $270 $-1 forward 7 unknown #
vertex $-1 $271 $463 #
ellipse-curve $-1 67.341521828981953 -3.9736048901963557 5.1331816292119186 0.75470958851134928 0 0.65605901945558964 0.98408852918338452 0 -1.132064382767024 1 I I #
point $-1 72.2723059593919 -3.9736048901963557 7.4319273032478952 #
plane-surface $-1 75.099948118533888 0 0 -1 0 0 0 0 1 forward_v I I I I #
coedge $-1 $395 $282 $285 $403 forward $275 $-1 #
coedge $-1 $282 $395 $277 $394 reversed $275 $-1 #
edge $-1 $400 -12.948886358584611 $407 12.948886358584611 $393 $464 forward 7 unknown #
coedge $-1 $393 $392 $278 $396 reversed $275 $-1 #
edge $-1 $407 -75.099948118533888 $397 75.099948118533888 $395 $465 forward 7 unknown #
vertex $-1 $280 $466 #
straight-curve $-1 75.099948118533888 0 -12.948886358584611 0 -1 0 I I #
edge $-1 $400 -42.114598732653945 $293 42.114598732653945 $291 $467 forward 7 unknown #
vertex $-1 $283 $468 #
straight-curve $-1 0 42.114598732653945 12.948886358584611 -1 0 0 I I #
straight-curve $-1 0 -42.114598732653945 12.948886358584611 1 0 0 I I #
edge $-1 $288 -12.948886358584611 $397 12.948886358584611 $285 $469 forward 7 unknown #
point $-1 75.099948118533888 -42.114598732653945 12.948886358584611 #
point $-1 75.099948118533888 42.114598732653945 12.948886358584611 #
point $-1 -75.099948118533888 -42.114598732653945 12.948886358584611 #
vertex $-1 $396 $470 #
straight-curve $-1 -75.099948118533888 0 -12.948886358584611 0 1 0 I I #
plane-surface $-1 0 0 12.948886358584611 0 0 1 1 0 0 forward_v I I I I #
coedge $-1 $306 $422 $411 $471 forward $299 $-1 #
coedge $-1 $302 $301 $410 $471 reversed $121 $-1 #
edge $-1 $418 -2.5325155866875022 $416 2.5325155866875022 $301 $472 forward 7 unknown #
coedge $-1 $314 $313 $302 $414 forward $315 $-1 #
edge $-1 $415 -2.5325155866875022 $473 2.5325155866875022 $302 $474 forward 7 unknown #
vertex $-1 $318 $475 #
vertex $-1 $308 $476 #
straight-curve $-1 -55.995268085284813 -52.812361881652819 0 0 0 -1 I I #
vertex $-1 $471 $477 #
straight-curve $-1 -50.930236911909809 -47.463480307153382 -12.948886358584611 0 -1 0 I I #
straight-curve $-1 -55.995268085284813 -47.463480307153382 -12.948886358584611 0 1 0 I I #
point $-1 -50.930236911909809 -42.114598732653945 -12.948886358584611 #
coedge $-1 $410 $311 $314 $424 reversed $299 $-1 #
straight-curve $-1 -50.930236911909809 -42.114598732653945 0 0 0 -1 I I #
edge $-1 $473 -5.3488815744994369 $316 5.3488815744994369 $422 $478 forward 7 unknown #
point $-1 -50.930236911909809 -42.114598732653945 12.948886358584611 #
straight-curve $-1 -55.995268085284813 -47.463480307153382 12.948886358584611 0 -1 0 I I #
edge $-1 $428 51.073779371756551 $431 61.945565856105624 $322 $479 forward 7 unknown #
vertex $-1 $336 $480 #
straight-curve $-1 -78.452337868126563 -9.0621869841012188 12.948886358584609 -1 0 0 I I #
edge $-1 $431 0.22250757498818707 $333 17.456851243237878 $332 $481 forward 7 unknown #
vertex $-1 $430 $482 #
straight-curve $-1 -75.099948118533874 -9.0621869841012188 2.0770998742355431 0.83867056331134215 0 0.54463904215088732 I I #
point $-1 -58.358865329056485 -9.0621869841012188 12.948886358584611 #
point $-1 -75.099948118533888 -26.29653065235091 2.0770998742355338 #
straight-curve $-1 -75.099948118533888 0 12.948886358584611 0 -1 0 I I #
vertex $-1 $339 $483 #
point $-1 -64.621232415207658 -17.679358818226063 7.0208070735531702 #
coedge $-1 $354 $353 $346 $439 forward $343 $-1 #
edge $-1 $440 51.073779371756551 $443 61.945565856105624 $438 $484 forward 7 unknown #
vertex $-1 $358 $485 #
straight-curve $-1 -78.452337868126563 36.994293801349798 12.948886358584609 -1 0 0 I I #
edge $-1 $443 -22.805732817737322 $355 -5.5713891494876293 $354 $486 forward 7 unknown #
vertex $-1 $442 $487 #
straight-curve $-1 -75.099948118533874 36.994293801349798 2.0770998742355431 0.83867056331134215 0 0.54463904215088732 I I #
point $-1 -58.358865329056485 36.994293801349798 12.948886358584611 #
point $-1 -75.099948118533888 19.759950133100105 2.0770998742355338 #
straight-curve $-1 -75.099948118533888 0 12.948886358584611 0 -1 0 I I #
vertex $-1 $361 $488 #
point $-1 -64.621232415207658 28.377121967224952 7.0208070735531702 #
coedge $-1 $376 $375 $368 $451 forward $365 $-1 #
edge $-1 $452 95.089311413711357 $455 103.85910075885081 $450 $489 forward 7 unknown #
vertex $-1 $380 $490 #
straight-curve $-1 44.958626677218334 -13.440533817286601 12.948886358584616 1 0 0 I I #
edge $-1 $455 -10.033692033124888 $377 3.2200084648014613 $376 $491 forward 7 unknown #
vertex $-1 $454 $492 #
straight-curve $-1 -23.440048529088116 -13.440533817286601 117.53639889696996 -0.65605901945558964 0 0.75470958851134928 I I #
point $-1 67.476486741883122 -13.440533817286601 12.948886358584616 #
point $-1 75.099948118533888 -0.18683331936025205 4.1790970134451584 #
straight-curve $-1 75.099948118533888 0 12.948886358584611 0 1 0 I I #
vertex $-1 $383 $493 #
point $-1 68.325610358165335 -9.6537622464505048 4.0011172464448945 #
vertex $-1 $387 $494 #
point $-1 68.325610358165335 -3.9736048901963557 4.0011172464448945 #
straight-curve $-1 -75.099948118533888 42.114598732653945 0 0 0 -1 I I #
straight-curve $-1 0 42.114598732653945 -12.948886358584611 1 0 0 I I #
point $-1 75.099948118533888 42.114598732653945 -12.948886358584611 #
straight-curve $-1 -75.099948118533888 0 12.948886358584611 0 -1 0 I I #
point $-1 -75.099948118533888 42.114598732653945 12.948886358584611 #
straight-curve $-1 75.099948118533888 42.114598732653945 0 0 0 -1 I I #
point $-1 -75.099948118533888 42.114598732653945 -12.948886358584611 #
edge $-1 $473 -12.948886358584611 $418 12.948886358584611 $410 $495 forward 7 unknown #
straight-curve $-1 -53.462752498597311 -52.812361881652819 -12.948886358584611 -1 0 0 I I #
vertex $-1 $424 $496 #
straight-curve $-1 -53.462752498597311 -52.812361881652819 12.948886358584611 1 0 0 I I #
point $-1 -55.995268085284813 -52.812361881652819 12.948886358584611 #
point $-1 -55.995268085284813 -52.812361881652819 -12.948886358584611 #
point $-1 -50.930236911909809 -52.812361881652819 -12.948886358584611 #
straight-curve $-1 -50.930236911909809 -47.463480307153382 12.948886358584611 0 1 0 I I #
straight-curve $-1 -75.099948118533888 -9.0621869841012188 64.02266573034116 0 0 -1 I I #
point $-1 -75.099948118533888 -9.0621869841012188 12.948886358584611 #
straight-curve $-1 -75.099948118533888 -8.8396794091130317 2.077099874235536 0 -1 0 I I #
point $-1 -75.099948118533888 -9.0621869841012188 2.0770998742355338 #
point $-1 -65.062279696948337 -17.679358818226063 4.9458426653598266 #
straight-curve $-1 -75.099948118533888 36.994293801349798 64.02266573034116 0 0 -1 I I #
point $-1 -75.099948118533888 36.994293801349798 12.948886358584611 #
straight-curve $-1 -75.099948118533888 14.188560983612476 2.077099874235536 0 -1 0 I I #
point $-1 -75.099948118533888 36.994293801349798 2.0770998742355338 #
point $-1 -65.062279696948337 28.377121967224952 4.9458426653598266 #
straight-curve $-1 75.099948118533888 -13.440533817286601 108.03819777229597 0 0 -1 I I #
point $-1 75.099948118533888 -13.440533817286601 12.948886358584611 #
straight-curve $-1 75.099948118533902 -3.4068417841617133 4.1790970134451655 0 1 0 I I #
point $-1 75.099948118533888 -13.440533817286601 4.1790970134451584 #
point $-1 66.209457446214927 -9.6537622464505048 4.1490931000285336 #
point $-1 66.209457446214927 -3.9736048901963557 4.1490931000285336 #
straight-curve $-1 -50.930236911909809 -52.812361881652819 0 0 0 -1 I I #
point $-1 -50.930236911909809 -52.812361881652819 12.948886358584611 #
End-of-ACIS-data 