500 0 8 0           
7 Unknown 11 ACIS 5.0 NT 24 Thu Mar 25 20:57:30 1999 
-1 9.9999999999999995e-007 1e-010 
body $-1 $8 $-1 $9 #
body $-1 $10 $-1 $11 #
body $-1 $12 $-1 $13 #
body $-1 $14 $-1 $15 #
body $-1 $16 $-1 $17 #
body $-1 $18 $-1 $19 #
body $-1 $20 $-1 $21 #
body $-1 $22 $-1 $23 #
lump $-1 $-1 $24 $0 #
transform $-1 1 0 0 0 1 0 0 0 1 48.526871547593615 27.010334829141414 9.3110518833755549 1 rotate no_reflect no_shear #
lump $-1 $-1 $25 $1 #
transform $-1 1 0 0 0 1 0 0 0 1 48.526871547593615 27.010334829141414 9.3110518833755549 1 rotate no_reflect no_shear #
lump $-1 $-1 $26 $2 #
transform $-1 1 0 0 0 1 0 0 0 1 48.526871547593615 27.010334829141414 9.3110518833755549 1 rotate no_reflect no_shear #
lump $-1 $-1 $27 $3 #
transform $-1 1 0 0 0 1 0 0 0 1 48.526871547593615 27.010334829141414 9.3110518833755549 1 rotate no_reflect no_shear #
lump $-1 $-1 $28 $4 #
transform $-1 1 0 0 0 1 0 0 0 1 48.526871547593615 27.010334829141414 9.3110518833755549 1 rotate no_reflect no_shear #
lump $-1 $-1 $29 $5 #
transform $-1 1 0 0 0 1 0 0 0 1 48.526871547593615 27.010334829141414 9.3110518833755549 1 rotate no_reflect no_shear #
lump $-1 $-1 $30 $6 #
transform $-1 1 0 0 0 1 0 0 0 1 48.526871547593615 27.010334829141414 9.3110518833755549 1 rotate no_reflect no_shear #
lump $-1 $-1 $31 $7 #
transform $-1 1 0 0 0 1 0 0 0 1 48.526871547593615 27.010334829141414 9.3110518833755549 1 rotate no_reflect no_shear #
shell $-1 $-1 $-1 $32 $-1 $8 #
shell $-1 $-1 $-1 $33 $-1 $10 #
shell $-1 $-1 $-1 $34 $-1 $12 #
shell $-1 $-1 $-1 $35 $-1 $14 #
shell $-1 $-1 $-1 $36 $-1 $16 #
shell $-1 $-1 $-1 $37 $-1 $18 #
shell $-1 $-1 $-1 $38 $-1 $20 #
shell $-1 $-1 $-1 $39 $-1 $22 #
face $-1 $40 $41 $24 $-1 $42 forward single #
face $-1 $43 $44 $25 $-1 $45 reversed single #
face $-1 $46 $47 $26 $-1 $48 reversed single #
face $-1 $49 $50 $27 $-1 $51 forward single #
face $-1 $52 $53 $28 $-1 $54 forward single #
face $-1 $55 $56 $29 $-1 $57 reversed single #
face $-1 $58 $59 $30 $-1 $60 forward single #
face $-1 $61 $62 $31 $-1 $63 forward single #
face $-1 $64 $65 $24 $-1 $66 reversed single #
loop $-1 $-1 $67 $32 #
plane-surface $-1 0 0 9.3110518833755549 0 0 1 1 0 0 forward_v I I I I #
face $-1 $68 $69 $25 $-1 $70 reversed single #
loop $-1 $-1 $71 $33 #
plane-surface $-1 -39.801330159707277 -24.613364830306068 0 -1 0 0 0 0 1 forward_v I I I I #
face $-1 $72 $73 $26 $-1 $74 reversed single #
loop $-1 $-1 $75 $34 #
plane-surface $-1 -31.76278180614252 -27.010334829141414 4.9643654376050534 0 -0.64278761758704617 0.76604443648966558 1 0 0 forward_v I I I I #
face $-1 $76 $77 $27 $-1 $78 forward single #
loop $-1 $79 $80 $35 #
cone-surface $-1 -35.207873957670273 -23.612371481743512 6.1749221678075559 0 0.64278761758704617 -0.76604443648966558 1.5 0 0 1 I I 0 1 1.5 forward I I I I #
face $-1 $81 $82 $28 $-1 $83 forward single #
loop $-1 $84 $85 $36 #
cone-surface $-1 -28.31768965461476 -23.612371481743512 6.1749221678075559 0 0.64278761758704617 -0.76604443648966558 1.5 0 0 1 I I 0 1 1.5 forward I I I I #
face $-1 $86 $87 $29 $-1 $88 reversed single #
loop $-1 $-1 $89 $37 #
plane-surface $-1 40.488323194028837 -27.010334829141414 4.9643654376050534 0 -0.64278761758704617 0.76604443648966558 1 0 0 forward_v I I I I #
face $-1 $90 $91 $30 $-1 $92 forward single #
loop $-1 $93 $94 $38 #
cone-surface $-1 37.043231042501091 -23.612371481743512 6.1749221678075559 0 0.64278761758704617 -0.76604443648966558 1.5 0 0 1 I I 0 1 1.5 forward I I I I #
face $-1 $95 $96 $31 $-1 $97 forward single #
loop $-1 $98 $99 $39 #
cone-surface $-1 43.933415345556611 -23.612371481743512 6.1749221678075559 0 0.64278761758704617 -0.76604443648966558 1.5 0 0 1 I I 0 1 1.5 forward I I I I #
face $-1 $100 $101 $24 $-1 $102 reversed single #
loop $-1 $-1 $103 $40 #
plane-surface $-1 0 0 -9.3110518833755549 0 0 1 1 0 0 forward_v I I I I #
coedge $-1 $104 $105 $106 $107 forward $41 $-1 #
face $-1 $108 $109 $25 $-1 $110 forward single #
loop $-1 $-1 $111 $43 #
plane-surface $-1 -44.164100853650446 -22.216394831470723 0 0 -1 0 0 0 -1 forward_v I I I I #
coedge $-1 $112 $113 $114 $115 reversed $44 $-1 #
face $-1 $116 $117 $26 $-1 $118 forward single #
loop $-1 $-1 $119 $46 #
plane-surface $-1 -23.724233452577757 -89.395279131202045 79.311845376170524 -1 0 0 0 -0.64278761758704617 0.76604443648966558 forward_v I I I I #
coedge $-1 $120 $121 $122 $123 reversed $47 $-1 #
face $-1 $-1 $124 $27 $-1 $125 forward single #
loop $-1 $126 $127 $49 #
cone-surface $-1 -35.207873957670273 -22.322406960719782 4.6376023477575572 0 0.64278761758704617 -0.76604443648966558 0.75 0 0 1 I I -0.70710678118654757 0.70710678118654757 0.75 forward I I I I #
loop $-1 $-1 $128 $35 #
coedge $-1 $80 $80 $129 $130 reversed $50 $-1 #
face $-1 $-1 $131 $28 $-1 $132 forward single #
loop $-1 $133 $134 $52 #
cone-surface $-1 -28.31768965461476 -22.322406960719782 4.6376023477575572 0 0.64278761758704617 -0.76604443648966558 0.75 0 0 1 I I -0.70710678118654757 0.70710678118654757 0.75 forward I I I I #
loop $-1 $-1 $135 $36 #
coedge $-1 $85 $85 $136 $137 reversed $53 $-1 #
face $-1 $138 $139 $29 $-1 $140 reversed single #
loop $-1 $-1 $141 $55 #
plane-surface $-1 32.449774840464073 -89.395279131202045 79.311845376170524 1 0 0 0 0.64278761758704617 -0.76604443648966558 forward_v I I I I #
coedge $-1 $142 $143 $144 $145 reversed $56 $-1 #
face $-1 $-1 $146 $30 $-1 $147 forward single #
loop $-1 $148 $149 $58 #
cone-surface $-1 37.043231042501091 -22.322406960719782 4.6376023477575572 0 0.64278761758704617 -0.76604443648966558 0.75 0 0 1 I I -0.70710678118654757 0.70710678118654757 0.75 forward I I I I #
loop $-1 $-1 $150 $38 #
coedge $-1 $94 $94 $151 $152 reversed $59 $-1 #
face $-1 $-1 $153 $31 $-1 $154 forward single #
loop $-1 $155 $156 $61 #
cone-surface $-1 43.933415345556611 -22.322406960719782 4.6376023477575572 0 0.64278761758704617 -0.76604443648966558 0.75 0 0 1 I I -0.70710678118654757 0.70710678118654757 0.75 forward I I I I #
loop $-1 $-1 $157 $39 #
coedge $-1 $99 $99 $158 $159 reversed $62 $-1 #
face $-1 $160 $161 $24 $-1 $162 reversed single #
loop $-1 $-1 $163 $64 #
plane-surface $-1 0 -27.010334829141414 0 0 1 0 0 0 1 forward_v I I I I #
coedge $-1 $164 $165 $166 $167 forward $65 $-1 #
coedge $-1 $168 $67 $169 $170 forward $41 $-1 #
coedge $-1 $67 $168 $171 $172 forward $41 $-1 #
coedge $-1 $173 $174 $67 $107 reversed $175 $-1 #
edge $-1 $176 -27.010334829141414 $177 27.010334829141414 $106 $178 forward 7 unknown #
face $-1 $179 $180 $25 $-1 $181 reversed single #
loop $-1 $-1 $182 $68 #
plane-surface $-1 0 0 9.3110518833755549 0 0 1 1 0 0 forward_v I I I I #
coedge $-1 $183 $184 $185 $186 forward $69 $-1 #
coedge $-1 $185 $71 $187 $188 reversed $44 $-1 #
coedge $-1 $71 $185 $182 $189 reversed $44 $-1 #
coedge $-1 $190 $191 $71 $115 forward $192 $-1 #
edge $-1 $193 -9.3110518833755549 $194 9.3110518833755549 $114 $195 forward 7 unknown #
face $-1 $196 $197 $26 $-1 $198 forward single #
loop $-1 $-1 $199 $72 #
plane-surface $-1 0 0 9.3110518833755549 0 0 1 1 0 0 forward_v I I I I #
coedge $-1 $200 $201 $202 $203 reversed $73 $-1 #
coedge $-1 $204 $75 $205 $206 reversed $47 $-1 #
coedge $-1 $75 $204 $200 $207 forward $47 $-1 #
coedge $-1 $202 $208 $75 $123 forward $209 $-1 #
edge $-1 $210 -23.919939256636017 $211 -7.8428425495064964 $122 $212 forward 7 unknown #
loop $-1 $-1 $129 $76 #
plane-surface $-1 -31.76278180614252 -27.010334829141414 4.9643654376050534 0 -0.64278761758704617 0.76604443648966558 1 0 0 forward_v I I I I #
loop $-1 $-1 $213 $49 #
coedge $-1 $127 $127 $128 $214 reversed $77 $-1 #
coedge $-1 $128 $128 $127 $214 forward $79 $-1 #
coedge $-1 $129 $129 $80 $130 forward $124 $-1 #
edge $-1 $215 3.8060672692751401e-016 $215 6.2831853071796004 $129 $216 forward 7 unknown #
loop $-1 $-1 $136 $81 #
plane-surface $-1 -31.76278180614252 -27.010334829141414 4.9643654376050534 0 -0.64278761758704617 0.76604443648966558 1 0 0 forward_v I I I I #
loop $-1 $-1 $217 $52 #
coedge $-1 $134 $134 $135 $218 reversed $82 $-1 #
coedge $-1 $135 $135 $134 $218 forward $84 $-1 #
coedge $-1 $136 $136 $85 $137 forward $131 $-1 #
edge $-1 $219 3.8060672692751401e-016 $219 6.2831853071796004 $136 $220 forward 7 unknown #
face $-1 $221 $222 $29 $-1 $223 forward single #
loop $-1 $-1 $224 $86 #
plane-surface $-1 48.526871547593615 0 0 -1 0 0 0 0 1 forward_v I I I I #
coedge $-1 $225 $226 $227 $228 reversed $87 $-1 #
coedge $-1 $229 $89 $224 $230 reversed $56 $-1 #
coedge $-1 $89 $229 $225 $231 forward $56 $-1 #
coedge $-1 $227 $232 $89 $145 forward $222 $-1 #
edge $-1 $233 -28.282709950579182 $234 -12.205613243449655 $144 $235 forward 7 unknown #
loop $-1 $-1 $151 $90 #
plane-surface $-1 40.488323194028837 -27.010334829141414 4.9643654376050534 0 -0.64278761758704617 0.76604443648966558 1 0 0 forward_v I I I I #
loop $-1 $-1 $236 $58 #
coedge $-1 $149 $149 $150 $237 reversed $91 $-1 #
coedge $-1 $150 $150 $149 $237 forward $93 $-1 #
coedge $-1 $151 $151 $94 $152 forward $146 $-1 #
edge $-1 $238 3.8060672692751401e-016 $238 6.2831853071796004 $151 $239 forward 7 unknown #
loop $-1 $-1 $158 $95 #
plane-surface $-1 40.488323194028837 -27.010334829141414 4.9643654376050534 0 -0.64278761758704617 0.76604443648966558 1 0 0 forward_v I I I I #
loop $-1 $-1 $240 $61 #
coedge $-1 $156 $156 $157 $241 reversed $96 $-1 #
coedge $-1 $157 $157 $156 $241 forward $98 $-1 #
coedge $-1 $158 $158 $99 $159 forward $153 $-1 #
edge $-1 $242 3.8060672692751401e-016 $242 6.2831853071796004 $158 $243 forward 7 unknown #
face $-1 $244 $245 $24 $-1 $246 reversed single #
loop $-1 $-1 $247 $100 #
plane-surface $-1 -48.526871547593615 0 0 1 0 0 0 0 -1 forward_v I I I I #
coedge $-1 $248 $171 $249 $250 forward $101 $-1 #
coedge $-1 $251 $103 $248 $252 forward $65 $-1 #
coedge $-1 $103 $251 $253 $254 forward $65 $-1 #
coedge $-1 $174 $173 $103 $167 reversed $175 $-1 #
edge $-1 $255 -27.010334829141414 $256 27.010334829141414 $166 $257 forward 7 unknown #
coedge $-1 $105 $104 $258 $259 forward $41 $-1 #
coedge $-1 $260 $261 $104 $170 reversed $245 $-1 #
edge $-1 $177 -48.526871547593615 $262 48.526871547593615 $169 $263 forward 7 unknown #
coedge $-1 $163 $264 $105 $172 reversed $101 $-1 #
edge $-1 $265 -48.526871547593615 $176 48.526871547593615 $171 $266 forward 7 unknown #
coedge $-1 $166 $106 $264 $267 forward $175 $-1 #
coedge $-1 $106 $166 $260 $268 reversed $175 $-1 #
loop $-1 $-1 $173 $244 #
vertex $-1 $107 $269 #
vertex $-1 $107 $270 #
straight-curve $-1 48.526871547593615 0 9.3110518833755549 0 1 0 I I #
face $-1 $271 $272 $25 $-1 $273 reversed single #
loop $-1 $-1 $274 $108 #
plane-surface $-1 -48.526871547593615 0 0 1 0 0 0 0 -1 forward_v I I I I #
coedge $-1 $275 $276 $113 $189 forward $109 $-1 #
coedge $-1 $277 $111 $278 $279 reversed $69 $-1 #
coedge $-1 $111 $277 $275 $280 reversed $69 $-1 #
coedge $-1 $113 $112 $111 $186 reversed $44 $-1 #
edge $-1 $281 -9.3110518833755549 $282 9.3110518833755549 $185 $283 forward 7 unknown #
coedge $-1 $284 $278 $112 $188 forward $272 $-1 #
edge $-1 $282 9.9097124163176886 $193 14.70365241398838 $187 $285 forward 7 unknown #
edge $-1 $194 -14.70365241398838 $281 -9.9097124163176886 $182 $286 forward 7 unknown #
coedge $-1 $287 $114 $276 $288 reversed $192 $-1 #
coedge $-1 $114 $287 $284 $289 reversed $192 $-1 #
loop $-1 $-1 $114 $271 #
vertex $-1 $289 $290 #
vertex $-1 $115 $291 #
straight-curve $-1 -39.801330159707277 -27.010334829141414 0 0 0 1 I I #
face $-1 $-1 $209 $26 $-1 $292 reversed single #
loop $-1 $-1 $205 $116 #
plane-surface $-1 -39.801330159707277 -24.613364830306068 0 -1 0 0 0 0 1 forward_v I I I I #
coedge $-1 $293 $294 $201 $295 forward $117 $-1 #
coedge $-1 $201 $119 $121 $207 reversed $73 $-1 #
coedge $-1 $119 $200 $199 $295 reversed $73 $-1 #
coedge $-1 $296 $122 $119 $203 forward $209 $-1 #
edge $-1 $211 -34.691557250480209 $297 -30.344870804709707 $202 $298 forward 7 unknown #
coedge $-1 $121 $120 $293 $299 reversed $47 $-1 #
coedge $-1 $300 $301 $120 $206 forward $197 $-1 #
edge $-1 $302 -7.4396671386761728 $210 -0.67742355021458489 $205 $303 forward 7 unknown #
edge $-1 $304 -6.7622435884615886 $211 0 $200 $305 forward 7 unknown #
coedge $-1 $122 $296 $300 $306 forward $209 $-1 #
loop $-1 $-1 $202 $196 #
vertex $-1 $206 $307 #
vertex $-1 $123 $308 #
straight-curve $-1 -15.88139090307126 -27.010334829141414 4.9643654376050534 1 0 0 I I #
coedge $-1 $213 $213 $-1 $309 reversed $126 $-1 #
edge $-1 $310 0 $310 6.2831853071796004 $127 $311 forward 7 unknown #
vertex $-1 $130 $312 #
ellipse-curve $-1 -35.207873957670273 -24.420245289576958 7.1377086604903042 0 -0.64278761758704617 0.76604443648966558 1.5 0 0 1 I I #
coedge $-1 $217 $217 $-1 $313 reversed $133 $-1 #
edge $-1 $314 0 $314 6.2831853071796004 $134 $315 forward 7 unknown #
vertex $-1 $137 $316 #
ellipse-curve $-1 -28.31768965461476 -24.420245289576958 7.1377086604903042 0 -0.64278761758704617 0.76604443648966558 1.5 0 0 1 I I #
face $-1 $-1 $317 $29 $-1 $318 reversed single #
loop $-1 $-1 $144 $138 #
plane-surface $-1 0 0 9.3110518833755549 0 0 1 1 0 0 forward_v I I I I #
coedge $-1 $319 $320 $142 $230 forward $139 $-1 #
coedge $-1 $226 $141 $143 $231 reversed $87 $-1 #
coedge $-1 $141 $225 $321 $322 reversed $87 $-1 #
coedge $-1 $323 $144 $141 $228 forward $222 $-1 #
edge $-1 $234 -22.867483815588521 $324 -17.687304736459609 $227 $325 forward 7 unknown #
coedge $-1 $143 $142 $326 $327 reversed $56 $-1 #
edge $-1 $328 -8.7500420455585974 $233 -1.9877984570970093 $224 $329 forward 7 unknown #
edge $-1 $330 0 $234 6.7622435884615886 $225 $331 forward 7 unknown #
coedge $-1 $144 $323 $319 $332 forward $222 $-1 #
vertex $-1 $230 $333 #
vertex $-1 $145 $334 #
straight-curve $-1 20.244161597014418 -21.830155750012501 9.3110518833755549 -1 0 0 I I #
coedge $-1 $236 $236 $-1 $335 reversed $148 $-1 #
edge $-1 $336 0 $336 6.2831853071796004 $149 $337 forward 7 unknown #
vertex $-1 $152 $338 #
ellipse-curve $-1 37.043231042501091 -24.420245289576958 7.1377086604903042 0 -0.64278761758704617 0.76604443648966558 1.5 0 0 1 I I #
coedge $-1 $240 $240 $-1 $339 reversed $155 $-1 #
edge $-1 $340 0 $340 6.2831853071796004 $156 $341 forward 7 unknown #
vertex $-1 $159 $342 #
ellipse-curve $-1 43.933415345556611 -24.420245289576958 7.1377086604903042 0 -0.64278761758704617 0.76604443648966558 1.5 0 0 1 I I #
face $-1 $-1 $175 $24 $-1 $343 reversed single #
loop $-1 $-1 $260 $160 #
plane-surface $-1 0 27.010334829141414 0 0 -1 0 0 0 -1 forward_v I I I I #
coedge $-1 $344 $258 $261 $345 forward $161 $-1 #
coedge $-1 $264 $163 $164 $252 reversed $101 $-1 #
coedge $-1 $258 $344 $163 $250 reversed $161 $-1 #
edge $-1 $265 -9.3110518833755549 $346 9.3110518833755549 $249 $347 forward 7 unknown #
coedge $-1 $165 $164 $344 $348 forward $65 $-1 #
edge $-1 $256 -48.526871547593615 $346 48.526871547593615 $248 $349 forward 7 unknown #
coedge $-1 $261 $260 $165 $254 reversed $245 $-1 #
edge $-1 $350 -48.526871547593615 $255 48.526871547593615 $253 $351 forward 7 unknown #
vertex $-1 $167 $352 #
vertex $-1 $267 $353 #
straight-curve $-1 48.526871547593615 0 -9.3110518833755549 0 -1 0 I I #
coedge $-1 $247 $249 $168 $259 reversed $161 $-1 #
edge $-1 $262 -27.010334829141414 $265 27.010334829141414 $258 $354 forward 7 unknown #
coedge $-1 $253 $169 $174 $268 forward $245 $-1 #
coedge $-1 $169 $253 $247 $345 reversed $245 $-1 #
vertex $-1 $170 $355 #
straight-curve $-1 0 27.010334829141414 9.3110518833755549 -1 0 0 I I #
coedge $-1 $171 $248 $173 $267 reversed $101 $-1 #
vertex $-1 $259 $356 #
straight-curve $-1 0 -27.010334829141414 9.3110518833755549 1 0 0 I I #
edge $-1 $176 -9.3110518833755549 $256 9.3110518833755549 $173 $357 forward 7 unknown #
edge $-1 $177 -9.3110518833755549 $255 9.3110518833755549 $174 $358 forward 7 unknown #
point $-1 48.526871547593615 -27.010334829141414 9.3110518833755549 #
point $-1 48.526871547593615 27.010334829141414 9.3110518833755549 #
face $-1 $-1 $192 $25 $-1 $359 reversed single #
loop $-1 $-1 $187 $179 #
plane-surface $-1 0 0 -9.3110518833755549 0 0 1 1 0 0 forward_v I I I I #
coedge $-1 $360 $361 $277 $362 forward $180 $-1 #
coedge $-1 $363 $182 $184 $280 forward $109 $-1 #
coedge $-1 $182 $363 $190 $288 forward $109 $-1 #
coedge $-1 $184 $183 $274 $362 reversed $69 $-1 #
coedge $-1 $187 $364 $183 $279 forward $272 $-1 #
edge $-1 $365 -26.444821120768392 $282 -17.719279732882054 $278 $366 forward 7 unknown #
edge $-1 $281 17.719279732882054 $367 26.444821120768392 $275 $368 forward 7 unknown #
vertex $-1 $280 $369 #
vertex $-1 $279 $370 #
straight-curve $-1 -39.801330159707277 -22.216394831470723 0 0 0 -1 I I #
coedge $-1 $364 $187 $191 $289 forward $272 $-1 #
straight-curve $-1 -39.801330159707277 -12.306682415153034 -9.3110518833755549 0 -1 0 I I #
straight-curve $-1 -39.801330159707277 -12.306682415153034 9.3110518833755549 0 1 0 I I #
coedge $-1 $191 $190 $371 $372 forward $192 $-1 #
edge $-1 $373 -48.526871547593615 $194 -39.801330159707277 $190 $374 forward 7 unknown #
edge $-1 $193 39.801330159707277 $375 48.526871547593615 $191 $376 forward 7 unknown #
point $-1 -39.801330159707277 -27.010334829141414 -9.3110518833755549 #
point $-1 -39.801330159707277 -27.010334829141414 9.3110518833755549 #
plane-surface $-1 0 -27.010334829141414 0 0 1 0 0 0 1 forward_v I I I I #
coedge $-1 $377 $199 $204 $299 forward $117 $-1 #
coedge $-1 $199 $377 $296 $378 forward $117 $-1 #
edge $-1 $297 17.687304736459609 $304 22.867483815588521 $199 $379 forward 7 unknown #
coedge $-1 $208 $202 $294 $378 reversed $209 $-1 #
vertex $-1 $295 $380 #
straight-curve $-1 -23.724233452577757 -27.010334829141414 39.655922688085262 0 0 1 I I #
edge $-1 $304 7.8428425495064964 $302 23.919939256636024 $293 $381 forward 7 unknown #
coedge $-1 $301 $205 $208 $306 reversed $197 $-1 #
coedge $-1 $205 $300 $377 $382 reversed $197 $-1 #
vertex $-1 $382 $383 #
straight-curve $-1 -39.801330159707277 -27.529271370930374 4.5289259676652618 0 -0.76604443648966558 -0.64278761758704617 I I #
vertex $-1 $299 $384 #
straight-curve $-1 -23.724233452577757 -27.010334829141414 4.9643654376050534 0 -0.76604443648966558 -0.64278761758704617 I I #
edge $-1 $385 -9.3110518833755549 $210 -4.9643654376050534 $208 $386 forward 7 unknown #
point $-1 -39.801330159707277 -27.010334829141414 4.9643654376050534 #
point $-1 -23.724233452577757 -27.010334829141414 4.9643654376050534 #
edge $-1 $387 1 $387 0 $213 $-1 forward 7 unknown #
vertex $-1 $214 $388 #
ellipse-curve $-1 -35.207873957670273 -22.804497673910067 5.2121356751248067 0 -0.64278761758704617 0.76604443648966558 1.5 0 0 1 I I #
point $-1 -33.707873957670273 -24.420245289576958 7.1377086604903051 #
edge $-1 $389 1 $389 0 $217 $-1 forward 7 unknown #
vertex $-1 $218 $390 #
ellipse-curve $-1 -28.31768965461476 -22.804497673910067 5.2121356751248067 0 -0.64278761758704617 0.76604443648966558 1.5 0 0 1 I I #
point $-1 -26.81768965461476 -24.420245289576958 7.1377086604903051 #
loop $-1 $-1 $326 $221 #
plane-surface $-1 0 -27.010334829141414 0 0 1 0 0 0 1 forward_v I I I I #
coedge $-1 $320 $224 $232 $332 reversed $139 $-1 #
coedge $-1 $224 $319 $391 $392 forward $139 $-1 #
coedge $-1 $326 $393 $226 $322 forward $317 $-1 #
edge $-1 $324 30.344870804709707 $330 34.691557250480209 $321 $394 forward 7 unknown #
coedge $-1 $232 $227 $393 $395 forward $222 $-1 #
vertex $-1 $395 $396 #
straight-curve $-1 32.449774840464073 -44.697639565601023 9.3110518833755549 0 -1 0 I I #
coedge $-1 $391 $321 $229 $327 forward $317 $-1 #
edge $-1 $330 12.205613243449655 $328 28.282709950579182 $326 $397 forward 7 unknown #
vertex $-1 $230 $398 #
straight-curve $-1 48.526871547593615 -20.307413801090597 10.588784117856148 0 0.76604443648966558 0.64278761758704617 I I #
vertex $-1 $327 $399 #
straight-curve $-1 32.449774840464073 -27.010334829141414 4.9643654376050534 0 0.76604443648966558 0.64278761758704617 I I #
edge $-1 $400 -27.010334829141414 $233 -21.830155750012501 $319 $401 forward 7 unknown #
point $-1 48.526871547593601 -21.830155750012501 9.3110518833755549 #
point $-1 32.449774840464073 -21.830155750012501 9.3110518833755549 #
edge $-1 $402 1 $402 0 $236 $-1 forward 7 unknown #
vertex $-1 $237 $403 #
ellipse-curve $-1 37.043231042501091 -22.804497673910067 5.2121356751248067 0 -0.64278761758704617 0.76604443648966558 1.5 0 0 1 I I #
point $-1 38.543231042501091 -24.420245289576958 7.1377086604903051 #
edge $-1 $404 1 $404 0 $240 $-1 forward 7 unknown #
vertex $-1 $241 $405 #
ellipse-curve $-1 43.933415345556611 -22.804497673910067 5.2121356751248067 0 -0.64278761758704617 0.76604443648966558 1.5 0 0 1 I I #
point $-1 45.433415345556611 -24.420245289576958 7.1377086604903051 #
plane-surface $-1 48.526871547593615 0 0 -1 0 0 0 0 1 forward_v I I I I #
coedge $-1 $249 $247 $251 $348 reversed $161 $-1 #
edge $-1 $262 -9.3110518833755549 $350 9.3110518833755549 $261 $406 forward 7 unknown #
vertex $-1 $348 $407 #
straight-curve $-1 -48.526871547593615 -27.010334829141414 0 0 0 -1 I I #
edge $-1 $346 -27.010334829141414 $350 27.010334829141414 $344 $408 forward 7 unknown #
straight-curve $-1 0 -27.010334829141414 -9.3110518833755549 -1 0 0 I I #
vertex $-1 $254 $409 #
straight-curve $-1 0 27.010334829141414 -9.3110518833755549 1 0 0 I I #
point $-1 48.526871547593615 27.010334829141414 -9.3110518833755549 #
point $-1 48.526871547593615 -27.010334829141414 -9.3110518833755549 #
straight-curve $-1 -48.526871547593615 0 9.3110518833755549 0 -1 0 I I #
point $-1 -48.526871547593615 27.010334829141414 9.3110518833755549 #
point $-1 -48.526871547593615 -27.010334829141414 9.3110518833755549 #
straight-curve $-1 48.526871547593615 -27.010334829141414 0 0 0 -1 I I #
straight-curve $-1 48.526871547593615 27.010334829141414 0 0 0 -1 I I #
plane-surface $-1 0 -27.010334829141414 0 0 1 0 0 0 1 forward_v I I I I #
coedge $-1 $371 $274 $364 $410 reversed $180 $-1 #
coedge $-1 $274 $371 $363 $411 reversed $180 $-1 #
edge $-1 $367 -9.3110518833755549 $365 9.3110518833755549 $274 $412 forward 7 unknown #
coedge $-1 $276 $275 $361 $411 forward $109 $-1 #
coedge $-1 $278 $284 $360 $410 forward $272 $-1 #
vertex $-1 $279 $413 #
straight-curve $-1 -22.082050426825223 -22.216394831470723 -9.3110518833755549 1 0 0 I I #
vertex $-1 $411 $414 #
straight-curve $-1 -22.082050426825223 -22.216394831470723 9.3110518833755549 -1 0 0 I I #
point $-1 -39.801330159707277 -22.216394831470723 9.3110518833755549 #
point $-1 -39.801330159707277 -22.216394831470723 -9.3110518833755549 #
coedge $-1 $361 $360 $287 $372 reversed $180 $-1 #
edge $-1 $373 -9.3110518833755549 $375 9.3110518833755549 $371 $415 forward 7 unknown #
vertex $-1 $411 $416 #
straight-curve $-1 0 -27.010334829141414 9.3110518833755549 1 0 0 I I #
vertex $-1 $410 $417 #
straight-curve $-1 0 -27.010334829141414 -9.3110518833755549 -1 0 0 I I #
coedge $-1 $294 $293 $301 $382 forward $117 $-1 #
edge $-1 $385 -39.801330159707277 $297 -23.724233452577757 $296 $418 forward 7 unknown #
straight-curve $-1 -23.724233452577757 -44.697639565601023 9.3110518833755549 0 1 0 I I #
point $-1 -23.724233452577757 -27.010334829141414 9.3110518833755549 #
straight-curve $-1 -15.88139090307126 -21.830155750012501 9.3110518833755549 -1 0 0 I I #
edge $-1 $302 -22.867483815588521 $385 -17.687304736459609 $377 $419 forward 7 unknown #
point $-1 -39.801330159707284 -21.830155750012501 9.3110518833755549 #
point $-1 -23.724233452577757 -21.830155750012501 9.3110518833755549 #
vertex $-1 $378 $420 #
straight-curve $-1 -39.801330159707277 -27.010334829141414 0 0 0 -1 I I #
vertex $-1 $309 $421 #
point $-1 -33.707873957670273 -22.804497673910067 5.2121356751248067 #
vertex $-1 $313 $422 #
point $-1 -26.81768965461476 -22.804497673910067 5.2121356751248067 #
coedge $-1 $393 $326 $320 $392 reversed $317 $-1 #
edge $-1 $400 -9.3110518833755549 $328 -4.9643654376050534 $320 $423 forward 7 unknown #
coedge $-1 $321 $391 $323 $395 reversed $317 $-1 #
straight-curve $-1 32.449774840464073 -27.010334829141414 39.655922688085262 0 0 -1 I I #
edge $-1 $324 32.449774840464073 $400 48.526871547593615 $393 $424 forward 7 unknown #
point $-1 32.449774840464073 -27.010334829141414 9.3110518833755549 #
straight-curve $-1 20.244161597014418 -27.010334829141414 4.9643654376050534 1 0 0 I I #
point $-1 48.526871547593601 -27.010334829141414 4.9643654376050534 #
point $-1 32.449774840464073 -27.010334829141414 4.9643654376050534 #
vertex $-1 $332 $425 #
straight-curve $-1 48.526871547593615 0 9.3110518833755549 0 1 0 I I #
vertex $-1 $335 $426 #
point $-1 38.543231042501091 -22.804497673910067 5.2121356751248067 #
vertex $-1 $339 $427 #
point $-1 45.433415345556611 -22.804497673910067 5.2121356751248067 #
straight-curve $-1 -48.526871547593615 27.010334829141414 0 0 0 -1 I I #
point $-1 -48.526871547593615 -27.010334829141414 -9.3110518833755549 #
straight-curve $-1 -48.526871547593615 0 -9.3110518833755549 0 1 0 I I #
point $-1 -48.526871547593615 27.010334829141414 -9.3110518833755549 #
edge $-1 $375 -27.010334829141414 $365 -22.216394831470723 $360 $428 forward 7 unknown #
edge $-1 $367 22.216394831470723 $373 27.010334829141414 $361 $429 forward 7 unknown #
straight-curve $-1 -48.526871547593615 -22.216394831470723 0 0 0 -1 I I #
point $-1 -48.526871547593615 -22.216394831470723 -9.3110518833755549 #
point $-1 -48.526871547593615 -22.216394831470723 9.3110518833755549 #
straight-curve $-1 -48.526871547593615 -27.010334829141414 0 0 0 -1 I I #
point $-1 -48.526871547593615 -27.010334829141414 9.3110518833755549 #
point $-1 -48.526871547593615 -27.010334829141414 -9.3110518833755549 #
straight-curve $-1 0 -27.010334829141414 9.3110518833755549 1 0 0 I I #
straight-curve $-1 -39.801330159707284 -44.697639565601023 9.3110518833755549 0 -1 0 I I #
point $-1 -39.801330159707277 -27.010334829141414 9.3110518833755549 #
point $-1 -35.207873957670273 -21.840316247529497 4.0630690203903077 #
point $-1 -28.31768965461476 -21.840316247529497 4.0630690203903077 #
straight-curve $-1 48.526871547593615 -27.010334829141414 0 0 0 -1 I I #
straight-curve $-1 0 -27.010334829141414 9.3110518833755549 1 0 0 I I #
point $-1 48.526871547593615 -27.010334829141414 9.3110518833755549 #
point $-1 37.043231042501091 -21.840316247529497 4.0630690203903077 #
point $-1 43.933415345556611 -21.840316247529497 4.0630690203903077 #
straight-curve $-1 -48.526871547593615 0 -9.3110518833755549 0 1 0 I I #
straight-curve $-1 -48.526871547593615 0 9.3110518833755549 0 -1 0 I I #
End-of-ACIS-data 