500 0 5 0           
7 Unknown 11 ACIS 5.0 NT 24 Fri Mar 26 19:43:57 1999 
-1 9.9999999999999995e-007 1e-010 
body $-1 $5 $-1 $6 #
body $-1 $7 $-1 $8 #
body $-1 $9 $-1 $10 #
body $-1 $11 $-1 $12 #
body $-1 $13 $-1 $14 #
lump $-1 $-1 $15 $0 #
transform $-1 1 0 0 0 1 0 0 0 1 72.333750419629496 32.561335655983733 14.583785697611978 1 rotate no_reflect no_shear #
lump $-1 $-1 $16 $1 #
transform $-1 1 0 0 0 1 0 0 0 1 72.333750419629496 32.561335655983733 14.583785697611978 1 rotate no_reflect no_shear #
lump $-1 $-1 $17 $2 #
transform $-1 1 0 0 0 1 0 0 0 1 72.333750419629496 32.561335655983733 14.583785697611978 1 rotate no_reflect no_shear #
lump $-1 $-1 $18 $3 #
transform $-1 1 0 0 0 1 0 0 0 1 72.333750419629496 32.561335655983733 14.583785697611978 1 rotate no_reflect no_shear #
lump $-1 $-1 $19 $4 #
transform $-1 1 0 0 0 1 0 0 0 1 72.333750419629496 32.561335655983733 14.583785697611978 1 rotate no_reflect no_shear #
shell $-1 $-1 $-1 $20 $-1 $5 #
shell $-1 $-1 $-1 $21 $-1 $7 #
shell $-1 $-1 $-1 $22 $-1 $9 #
shell $-1 $-1 $-1 $23 $-1 $11 #
shell $-1 $-1 $-1 $24 $-1 $13 #
face $-1 $25 $26 $15 $-1 $27 forward single #
face $-1 $28 $29 $16 $-1 $30 forward single #
face $-1 $31 $32 $17 $-1 $33 reversed single #
face $-1 $34 $35 $18 $-1 $36 forward single #
face $-1 $37 $38 $19 $-1 $39 forward single #
face $-1 $40 $41 $15 $-1 $42 reversed single #
loop $-1 $-1 $43 $20 #
plane-surface $-1 0 0 14.583785697611978 0 0 1 1 0 0 forward_v I I I I #
face $-1 $44 $45 $16 $-1 $46 reversed single #
loop $-1 $-1 $47 $21 #
plane-surface $-1 0 -27.053380681246086 12.789301423064162 0 0 1 1 0 0 forward_v I I I I #
face $-1 $48 $49 $17 $-1 $50 reversed single #
loop $-1 $-1 $51 $22 #
plane-surface $-1 -72.333750419629467 -16.542393807710511 4.0516912711059945 -0.62932039886446345 0 0.77714595512881146 0.77714595512881146 0 0.62932039886446345 forward_v I I I I #
face $-1 $52 $53 $18 $-1 $54 forward single #
loop $-1 $55 $56 $23 #
cone-surface $-1 -65.360582094213967 -18.686550335766768 8.7371618116212346 0.62932039886446345 0 -0.77714595512881146 0.77714595512881146 0 0.62932039886446345 1 I I 0 1 1 forward I I I I #
face $-1 $57 $58 $19 $-1 $59 forward single #
loop $-1 $60 $61 $24 #
cone-surface $-1 -65.360582094213967 -14.398237279654253 8.7371618116212346 0.62932039886446345 0 -0.77714595512881146 0.77714595512881146 0 0.62932039886446345 1 I I 0 1 1 forward I I I I #
face $-1 $62 $63 $15 $-1 $64 reversed single #
loop $-1 $-1 $65 $25 #
plane-surface $-1 0 0 -14.583785697611978 0 0 1 1 0 0 forward_v I I I I #
coedge $-1 $66 $67 $68 $69 forward $26 $-1 #
face $-1 $70 $71 $16 $-1 $72 reversed single #
loop $-1 $-1 $73 $28 #
plane-surface $-1 0 -27.053380681246086 9.5590331703669893 0 0 1 1 0 0 forward_v I I I I #
coedge $-1 $74 $75 $76 $77 reversed $29 $-1 #
face $-1 $78 $79 $17 $-1 $80 forward single #
loop $-1 $-1 $81 $31 #
plane-surface $-1 -163.37595975051704 -11.539361908912582 116.47945438693006 0 -1 0 0.62932039886446345 0 -0.77714595512881146 forward_v I I I I #
coedge $-1 $82 $83 $84 $85 reversed $32 $-1 #
face $-1 $-1 $86 $18 $-1 $87 forward single #
loop $-1 $88 $89 $34 #
cone-surface $-1 -64.575780165486918 -18.686550335766768 7.7680121613190689 0.62932039886446345 0 -0.77714595512881146 0.38857297756440573 0 0.31466019943223172 1 I I -0.70710678118654746 0.70710678118654746 0.5 forward I I I I #
loop $-1 $-1 $90 $23 #
coedge $-1 $56 $56 $91 $92 reversed $35 $-1 #
face $-1 $-1 $93 $19 $-1 $94 forward single #
loop $-1 $95 $96 $37 #
cone-surface $-1 -64.575780165486918 -14.398237279654253 7.7680121613190689 0.62932039886446345 0 -0.77714595512881146 0.38857297756440573 0 0.31466019943223172 1 I I -0.70710678118654746 0.70710678118654746 0.5 forward I I I I #
loop $-1 $-1 $97 $24 #
coedge $-1 $61 $61 $98 $99 reversed $38 $-1 #
face $-1 $100 $101 $15 $-1 $102 reversed single #
loop $-1 $-1 $103 $40 #
plane-surface $-1 0 -32.561335655983733 0 0 1 0 0 0 1 forward_v I I I I #
coedge $-1 $104 $105 $106 $107 forward $41 $-1 #
coedge $-1 $108 $43 $109 $110 forward $26 $-1 #
coedge $-1 $43 $108 $111 $112 forward $26 $-1 #
coedge $-1 $113 $114 $43 $69 reversed $115 $-1 #
edge $-1 $116 -32.561335655983733 $117 32.561335655983733 $68 $118 forward 7 unknown #
face $-1 $119 $120 $16 $-1 $121 reversed single #
loop $-1 $-1 $122 $44 #
plane-surface $-1 0 -21.545425706508439 11.174167296715575 0 -1 0 0 0 -1 forward_v I I I I #
coedge $-1 $123 $124 $125 $126 reversed $45 $-1 #
coedge $-1 $127 $47 $128 $129 forward $29 $-1 #
coedge $-1 $47 $127 $130 $131 reversed $29 $-1 #
coedge $-1 $132 $133 $47 $77 forward $134 $-1 #
edge $-1 $135 8.0187353658853961 $136 19.034645315360692 $76 $137 forward 7 unknown #
face $-1 $138 $139 $17 $-1 $140 forward single #
loop $-1 $-1 $141 $48 #
plane-surface $-1 0 -21.545425706508439 11.174167296715575 0 -1 0 0 0 -1 forward_v I I I I #
coedge $-1 $142 $143 $144 $145 reversed $49 $-1 #
coedge $-1 $146 $51 $141 $147 forward $32 $-1 #
coedge $-1 $51 $146 $142 $148 forward $32 $-1 #
coedge $-1 $144 $149 $51 $85 forward $139 $-1 #
edge $-1 $150 -13.274228802653184 $151 -3.2681650050573268 $84 $152 forward 7 unknown #
loop $-1 $-1 $91 $52 #
plane-surface $-1 -72.333750419629467 -16.542393807710511 4.0516912711059945 -0.62932039886446345 0 0.77714595512881146 0.77714595512881146 0 0.62932039886446345 forward_v I I I I #
loop $-1 $-1 $153 $34 #
coedge $-1 $89 $89 $90 $154 reversed $53 $-1 #
coedge $-1 $90 $90 $89 $154 forward $55 $-1 #
coedge $-1 $91 $91 $56 $92 forward $86 $-1 #
edge $-1 $155 0 $155 6.2831853071796004 $91 $156 forward 7 unknown #
loop $-1 $-1 $98 $57 #
plane-surface $-1 -72.333750419629467 -16.542393807710511 4.0516912711059945 -0.62932039886446345 0 0.77714595512881146 0.77714595512881146 0 0.62932039886446345 forward_v I I I I #
loop $-1 $-1 $157 $37 #
coedge $-1 $96 $96 $97 $158 reversed $58 $-1 #
coedge $-1 $97 $97 $96 $158 forward $60 $-1 #
coedge $-1 $98 $98 $61 $99 forward $93 $-1 #
edge $-1 $159 0 $159 6.2831853071796004 $98 $160 forward 7 unknown #
face $-1 $161 $162 $15 $-1 $163 reversed single #
loop $-1 $-1 $164 $62 #
plane-surface $-1 -72.333750419629496 0 0 1 0 0 0 0 -1 forward_v I I I I #
coedge $-1 $165 $111 $166 $167 forward $63 $-1 #
coedge $-1 $168 $65 $165 $169 forward $41 $-1 #
coedge $-1 $65 $168 $170 $171 forward $41 $-1 #
coedge $-1 $114 $113 $65 $107 reversed $115 $-1 #
edge $-1 $172 -32.561335655983733 $173 32.561335655983733 $106 $174 forward 7 unknown #
coedge $-1 $67 $66 $175 $176 forward $26 $-1 #
coedge $-1 $177 $178 $66 $110 reversed $162 $-1 #
edge $-1 $117 -72.333750419629496 $179 72.333750419629496 $109 $180 forward 7 unknown #
coedge $-1 $103 $181 $67 $112 reversed $63 $-1 #
edge $-1 $182 -72.333750419629496 $116 72.333750419629496 $111 $183 forward 7 unknown #
coedge $-1 $106 $68 $181 $184 forward $115 $-1 #
coedge $-1 $68 $106 $177 $185 reversed $115 $-1 #
loop $-1 $-1 $113 $161 #
vertex $-1 $69 $186 #
vertex $-1 $69 $187 #
straight-curve $-1 72.333750419629496 0 14.583785697611978 0 1 0 I I #
face $-1 $188 $189 $16 $-1 $190 reversed single #
loop $-1 $-1 $191 $70 #
plane-surface $-1 -72.333750419629496 0 0 1 0 0 0 0 -1 forward_v I I I I #
coedge $-1 $192 $128 $133 $193 reversed $71 $-1 #
coedge $-1 $194 $73 $195 $196 reversed $45 $-1 #
coedge $-1 $73 $194 $192 $197 forward $45 $-1 #
coedge $-1 $133 $132 $73 $126 forward $134 $-1 #
edge $-1 $198 -19.034645315360692 $199 -8.0187353658853961 $125 $200 forward 7 unknown #
coedge $-1 $75 $74 $191 $201 reversed $29 $-1 #
coedge $-1 $122 $202 $74 $129 reversed $71 $-1 #
edge $-1 $135 -72.333750419629496 $203 72.333750419629496 $128 $204 forward 7 unknown #
coedge $-1 $205 $206 $75 $131 forward $189 $-1 #
edge $-1 $136 -72.333750419629496 $207 72.333750419629496 $130 $208 forward 7 unknown #
coedge $-1 $125 $76 $206 $209 forward $134 $-1 #
coedge $-1 $76 $125 $122 $193 forward $134 $-1 #
loop $-1 $-1 $76 $188 #
vertex $-1 $77 $210 #
vertex $-1 $209 $211 #
straight-curve $-1 72.333750419629496 -13.526690340623043 12.789301423064162 0 -1 0 I I #
face $-1 $-1 $212 $17 $-1 $213 reversed single #
loop $-1 $-1 $144 $78 #
plane-surface $-1 0 0 14.583785697611978 0 0 1 1 0 0 forward_v I I I I #
coedge $-1 $214 $215 $82 $147 reversed $79 $-1 #
coedge $-1 $143 $81 $83 $148 reversed $49 $-1 #
coedge $-1 $81 $142 $216 $217 reversed $49 $-1 #
coedge $-1 $218 $84 $81 $145 forward $139 $-1 #
edge $-1 $151 -22.360282647870513 $219 -9.3542294556290244 $144 $220 forward 7 unknown #
coedge $-1 $83 $82 $221 $222 reversed $32 $-1 #
edge $-1 $150 -16.735663495907552 $223 3.6620485252745651e-014 $141 $224 forward 7 unknown #
edge $-1 $225 -3.6620485252745651e-014 $151 16.735663495907552 $142 $226 forward 7 unknown #
coedge $-1 $84 $218 $214 $227 forward $139 $-1 #
vertex $-1 $227 $228 #
vertex $-1 $85 $229 #
straight-curve $-1 -59.327697227388008 -8.2711969038552553 14.583785697611976 0 1 0 I I #
coedge $-1 $153 $153 $-1 $230 reversed $88 $-1 #
edge $-1 $231 0 $231 6.2831853071796004 $89 $232 forward 7 unknown #
vertex $-1 $92 $233 #
ellipse-curve $-1 -65.830723823508762 -18.686550335766768 9.3177384843589675 -0.62932039886446345 0 0.77714595512881146 0.77714595512881146 0 0.62932039886446345 1 I I #
coedge $-1 $157 $157 $-1 $234 reversed $95 $-1 #
edge $-1 $235 0 $235 6.2831853071796004 $96 $236 forward 7 unknown #
vertex $-1 $99 $237 #
ellipse-curve $-1 -65.830723823508762 -14.398237279654253 9.3177384843589675 -0.62932039886446345 0 0.77714595512881146 0.77714595512881146 0 0.62932039886446345 1 I I #
face $-1 $-1 $115 $15 $-1 $238 reversed single #
loop $-1 $-1 $177 $100 #
plane-surface $-1 0 32.561335655983733 0 0 -1 0 0 0 -1 forward_v I I I I #
coedge $-1 $239 $175 $178 $240 forward $101 $-1 #
coedge $-1 $181 $103 $104 $169 reversed $63 $-1 #
coedge $-1 $175 $239 $103 $167 reversed $101 $-1 #
edge $-1 $182 -14.583785697611978 $241 14.583785697611978 $166 $242 forward 7 unknown #
coedge $-1 $105 $104 $239 $243 forward $41 $-1 #
edge $-1 $173 -72.333750419629496 $241 72.333750419629496 $165 $244 forward 7 unknown #
coedge $-1 $178 $177 $105 $171 reversed $162 $-1 #
edge $-1 $245 -72.333750419629496 $172 72.333750419629496 $170 $246 forward 7 unknown #
vertex $-1 $107 $247 #
vertex $-1 $184 $248 #
straight-curve $-1 72.333750419629496 0 -14.583785697611978 0 -1 0 I I #
coedge $-1 $164 $166 $108 $176 reversed $101 $-1 #
edge $-1 $179 -32.561335655983733 $182 32.561335655983733 $175 $249 forward 7 unknown #
coedge $-1 $170 $109 $114 $185 forward $162 $-1 #
coedge $-1 $109 $170 $164 $240 reversed $162 $-1 #
vertex $-1 $110 $250 #
straight-curve $-1 0 32.561335655983733 14.583785697611978 -1 0 0 I I #
coedge $-1 $111 $165 $113 $184 reversed $63 $-1 #
vertex $-1 $176 $251 #
straight-curve $-1 0 -32.561335655983733 14.583785697611978 1 0 0 I I #
edge $-1 $116 -14.583785697611978 $173 14.583785697611978 $113 $252 forward 7 unknown #
edge $-1 $117 -14.583785697611978 $172 14.583785697611978 $114 $253 forward 7 unknown #
point $-1 72.333750419629496 -32.561335655983733 14.583785697611978 #
point $-1 72.333750419629496 32.561335655983733 14.583785697611978 #
face $-1 $-1 $134 $16 $-1 $254 reversed single #
loop $-1 $-1 $130 $119 #
plane-surface $-1 0 -32.561335655983733 0 0 1 0 0 0 1 forward_v I I I I #
coedge $-1 $255 $256 $127 $201 forward $120 $-1 #
coedge $-1 $202 $122 $124 $197 reversed $71 $-1 #
edge $-1 $199 3.9719495220092016 $135 7.2022177747063738 $133 $257 forward 7 unknown #
coedge $-1 $124 $123 $258 $259 reversed $45 $-1 #
coedge $-1 $206 $205 $123 $196 forward $189 $-1 #
edge $-1 $260 -72.333750419629496 $198 72.333750419629496 $195 $261 forward 7 unknown #
edge $-1 $262 -72.333750419629496 $199 72.333750419629496 $192 $263 forward 7 unknown #
vertex $-1 $196 $264 #
vertex $-1 $126 $265 #
straight-curve $-1 72.333750419629496 -13.526690340623043 9.5590331703669893 0 1 0 I I #
edge $-1 $207 -19.034645315360692 $203 -8.0187353658853961 $191 $266 forward 7 unknown #
coedge $-1 $128 $192 $255 $267 reversed $71 $-1 #
vertex $-1 $201 $268 #
straight-curve $-1 0 -21.545425706508439 12.789301423064162 -1 0 0 I I #
coedge $-1 $195 $130 $256 $269 forward $189 $-1 #
coedge $-1 $130 $195 $132 $209 reversed $189 $-1 #
vertex $-1 $269 $270 #
straight-curve $-1 0 -32.561335655983733 12.789301423064162 -1 0 0 I I #
edge $-1 $136 -12.789301423064162 $198 -9.5590331703669893 $132 $271 forward 7 unknown #
point $-1 72.333750419629496 -21.545425706508439 12.789301423064162 #
point $-1 72.333750419629496 -32.561335655983733 12.789301423064162 #
loop $-1 $-1 $272 $138 #
plane-surface $-1 -72.333750419629496 0 0 1 0 0 0 0 -1 forward_v I I I I #
coedge $-1 $215 $141 $149 $227 reversed $79 $-1 #
coedge $-1 $141 $214 $272 $273 reversed $79 $-1 #
coedge $-1 $221 $274 $143 $217 forward $212 $-1 #
edge $-1 $219 43.65594149585305 $225 54.188035922359056 $216 $275 forward 7 unknown #
coedge $-1 $149 $144 $274 $276 forward $139 $-1 #
vertex $-1 $276 $277 #
straight-curve $-1 -81.68797987525852 -11.539361908912582 14.58378569761198 -1 0 0 I I #
coedge $-1 $272 $216 $146 $222 forward $212 $-1 #
edge $-1 $225 3.2681650050573268 $223 13.274228802653184 $221 $278 forward 7 unknown #
vertex $-1 $273 $279 #
straight-curve $-1 -72.333750419629467 -21.545425706508439 4.0516912711059945 -0.77714595512881146 0 -0.62932039886446345 I I #
vertex $-1 $222 $280 #
straight-curve $-1 -72.333750419629467 -11.539361908912582 4.0516912711059945 0.77714595512881146 0 0.62932039886446345 I I #
edge $-1 $281 9.3542294556290244 $150 22.360282647870513 $149 $282 forward 7 unknown #
point $-1 -59.327697227388008 -21.545425706508439 14.583785697611978 #
point $-1 -59.327697227388008 -11.539361908912582 14.583785697611978 #
edge $-1 $283 1 $283 0 $153 $-1 forward 7 unknown #
vertex $-1 $154 $284 #
ellipse-curve $-1 -64.890440364919144 -18.686550335766768 8.1565851388834751 -0.62932039886446345 0 0.77714595512881146 0.77714595512881146 0 0.62932039886446345 1 I I #
point $-1 -65.053577868379975 -18.686550335766768 9.9470588832234572 #
edge $-1 $285 1 $285 0 $157 $-1 forward 7 unknown #
vertex $-1 $158 $286 #
ellipse-curve $-1 -64.890440364919144 -14.398237279654253 8.1565851388834751 -0.62932039886446345 0 0.77714595512881146 0.77714595512881146 0 0.62932039886446345 1 I I #
point $-1 -65.053577868379975 -14.398237279654253 9.9470588832234572 #
plane-surface $-1 72.333750419629496 0 0 -1 0 0 0 0 1 forward_v I I I I #
coedge $-1 $166 $164 $168 $243 reversed $101 $-1 #
edge $-1 $179 -14.583785697611978 $245 14.583785697611978 $178 $287 forward 7 unknown #
vertex $-1 $243 $288 #
straight-curve $-1 -72.333750419629496 -32.561335655983733 0 0 0 -1 I I #
edge $-1 $241 -32.561335655983733 $245 32.561335655983733 $239 $289 forward 7 unknown #
straight-curve $-1 0 -32.561335655983733 -14.583785697611978 -1 0 0 I I #
vertex $-1 $171 $290 #
straight-curve $-1 0 32.561335655983733 -14.583785697611978 1 0 0 I I #
point $-1 72.333750419629496 32.561335655983733 -14.583785697611978 #
point $-1 72.333750419629496 -32.561335655983733 -14.583785697611978 #
straight-curve $-1 -72.333750419629496 0 14.583785697611978 0 -1 0 I I #
point $-1 -72.333750419629496 32.561335655983733 14.583785697611978 #
point $-1 -72.333750419629496 -32.561335655983733 14.583785697611978 #
straight-curve $-1 72.333750419629496 -32.561335655983733 0 0 0 -1 I I #
straight-curve $-1 72.333750419629496 32.561335655983733 0 0 0 -1 I I #
plane-surface $-1 72.333750419629496 0 0 -1 0 0 0 0 1 forward_v I I I I #
coedge $-1 $258 $191 $202 $267 forward $120 $-1 #
coedge $-1 $191 $258 $205 $269 reversed $120 $-1 #
straight-curve $-1 72.333750419629496 -21.545425706508439 5.5870836483577877 0 0 1 I I #
coedge $-1 $256 $255 $194 $259 forward $120 $-1 #
edge $-1 $262 8.0187353658853961 $260 19.034645315360692 $258 $291 forward 7 unknown #
vertex $-1 $196 $292 #
straight-curve $-1 0 -32.561335655983733 9.5590331703669893 1 0 0 I I #
vertex $-1 $259 $293 #
straight-curve $-1 0 -21.545425706508439 9.5590331703669893 1 0 0 I I #
point $-1 72.333750419629496 -32.561335655983733 9.5590331703669893 #
point $-1 72.333750419629496 -21.545425706508439 9.5590331703669893 #
straight-curve $-1 -72.333750419629496 -13.526690340623043 12.789301423064162 0 1 0 I I #
edge $-1 $203 -7.2022177747063738 $262 -3.9719495220092016 $255 $294 forward 7 unknown #
point $-1 -72.333750419629496 -21.545425706508439 12.789301423064162 #
edge $-1 $207 -12.789301423064162 $260 -9.5590331703669893 $256 $295 forward 7 unknown #
point $-1 -72.333750419629496 -32.561335655983733 12.789301423064162 #
straight-curve $-1 72.333750419629496 -32.561335655983733 0 0 0 -1 I I #
coedge $-1 $274 $221 $215 $273 forward $212 $-1 #
edge $-1 $223 -54.188035922359056 $281 -43.65594149585305 $272 $296 forward 7 unknown #
coedge $-1 $216 $272 $218 $276 reversed $212 $-1 #
straight-curve $-1 -72.333750419629496 -11.539361908912582 58.239727193465029 0 0 -1 I I #
edge $-1 $219 11.539361908912582 $281 21.545425706508439 $274 $297 forward 7 unknown #
point $-1 -72.333750419629496 -11.539361908912582 14.583785697611978 #
straight-curve $-1 -72.333750419629496 -8.2711969038552553 4.0516912711059678 0 -1 0 I I #
point $-1 -72.333750419629496 -21.545425706508439 4.0516912711059714 #
point $-1 -72.333750419629496 -11.539361908912582 4.0516912711059714 #
vertex $-1 $273 $298 #
straight-curve $-1 -81.68797987525852 -21.545425706508439 14.58378569761198 1 0 0 I I #
vertex $-1 $230 $299 #
point $-1 -64.113294409790342 -18.686550335766768 8.7859055377479383 #
vertex $-1 $234 $300 #
point $-1 -64.113294409790342 -14.398237279654253 8.7859055377479383 #
straight-curve $-1 -72.333750419629496 32.561335655983733 0 0 0 -1 I I #
point $-1 -72.333750419629496 -32.561335655983733 -14.583785697611978 #
straight-curve $-1 -72.333750419629496 0 -14.583785697611978 0 1 0 I I #
point $-1 -72.333750419629496 32.561335655983733 -14.583785697611978 #
straight-curve $-1 -72.333750419629496 -13.526690340623043 9.5590331703669893 0 -1 0 I I #
point $-1 -72.333750419629496 -32.561335655983733 9.5590331703669893 #
point $-1 -72.333750419629496 -21.545425706508439 9.5590331703669893 #
straight-curve $-1 -72.333750419629496 -21.545425706508439 5.5870836483577877 0 0 -1 I I #
straight-curve $-1 -72.333750419629496 -32.561335655983733 0 0 0 -1 I I #
straight-curve $-1 -72.333750419629496 -21.545425706508439 58.239727193465029 0 0 1 I I #
straight-curve $-1 -72.333750419629496 0 14.583785697611978 0 -1 0 I I #
point $-1 -72.333750419629496 -21.545425706508439 14.583785697611978 #
point $-1 -64.261119966054693 -18.686550335766768 7.3794391837546636 #
point $-1 -64.261119966054693 -14.398237279654253 7.3794391837546636 #
End-of-ACIS-data 