500 0 12 0           
7 Unknown 11 ACIS 5.0 NT 24 Thu Mar 25 15:16:19 1999 
-1 9.9999999999999995e-007 1e-010 
body $-1 $12 $-1 $13 #
body $-1 $14 $-1 $15 #
body $-1 $16 $-1 $17 #
body $-1 $18 $-1 $19 #
body $-1 $20 $-1 $21 #
body $-1 $22 $-1 $23 #
body $-1 $24 $-1 $25 #
body $-1 $26 $-1 $27 #
body $-1 $28 $-1 $29 #
body $-1 $30 $-1 $31 #
body $-1 $32 $-1 $33 #
body $-1 $34 $-1 $35 #
lump $-1 $-1 $36 $0 #
transform $-1 1 0 0 0 1 0 0 0 1 46.35395367290262 30.130140620065422 14.134049240730784 1 rotate no_reflect no_shear #
lump $-1 $-1 $37 $1 #
transform $-1 1 0 0 0 0.65605901945558964 -0.75470958851134928 0 0.75470958851134928 0.65605901945558964 5.9351790714640629 90.693526822313515 127.56109217212219 1 rotate no_reflect no_shear #
lump $-1 $-1 $38 $2 #
transform $-1 1 0 0 0 -0.65605901945558964 0.75470958851134928 0 -0.75470958851134928 -0.65605901945558964 3.3915308979794645 52.599430490707782 20.752468218829222 1 rotate no_reflect no_shear #
lump $-1 $-1 $39 $3 #
transform $-1 1 0 0 0 -0.65605901945558964 0.75470958851134928 0 -0.75470958851134928 -0.65605901945558964 8.4788272449486612 52.599430490707782 20.752468218829222 1 rotate no_reflect no_shear #
lump $-1 $-1 $40 $4 #
transform $-1 1 0 0 0 0.79863550430605224 0.6018150307709319 0 -0.6018150307709319 0.79863550430605224 37.379957258234654 -55.793012112024485 99.138367318695018 1 rotate no_reflect no_shear #
lump $-1 $-1 $41 $5 #
transform $-1 1 0 0 0 -0.79863550430605224 -0.6018150307709319 0 0.6018150307709319 -0.79863550430605224 31.995559409433881 4.633544164257259 23.325270335931453 1 rotate no_reflect no_shear #
lump $-1 $-1 $42 $6 #
transform $-1 1 0 0 0 -0.79863550430605224 -0.6018150307709319 0 0.6018150307709319 -0.79863550430605224 37.379957258234654 4.633544164257259 23.325270335931453 1 rotate no_reflect no_shear #
lump $-1 $-1 $43 $7 #
transform $-1 1 0 0 0 -0.79863550430605224 -0.6018150307709319 0 0.6018150307709319 -0.79863550430605224 42.764355107035428 4.633544164257259 23.325270335931453 1 rotate no_reflect no_shear #
lump $-1 $-1 $44 $8 #
transform $-1 1 0 0 0 0.79863550430605224 0.6018150307709319 0 -0.6018150307709319 0.79863550430605224 55.327950087570571 -55.793012112024485 99.138367318695018 1 rotate no_reflect no_shear #
lump $-1 $-1 $45 $9 #
transform $-1 1 0 0 0 -0.79863550430605224 -0.6018150307709319 0 0.6018150307709319 -0.79863550430605224 49.943552238769797 4.633544164257259 23.325270335931453 1 rotate no_reflect no_shear #
lump $-1 $-1 $46 $10 #
transform $-1 1 0 0 0 -0.79863550430605224 -0.6018150307709319 0 0.6018150307709319 -0.79863550430605224 55.327950087570571 4.633544164257259 23.325270335931453 1 rotate no_reflect no_shear #
lump $-1 $-1 $47 $11 #
transform $-1 1 0 0 0 -0.79863550430605224 -0.6018150307709319 0 0.6018150307709319 -0.79863550430605224 60.712347936371344 4.633544164257259 23.325270335931453 1 rotate no_reflect no_shear #
shell $-1 $-1 $-1 $48 $-1 $12 #
shell $-1 $-1 $-1 $49 $-1 $14 #
shell $-1 $-1 $-1 $50 $-1 $16 #
shell $-1 $-1 $-1 $51 $-1 $18 #
shell $-1 $-1 $-1 $52 $-1 $20 #
shell $-1 $-1 $-1 $53 $-1 $22 #
shell $-1 $-1 $-1 $54 $-1 $24 #
shell $-1 $-1 $-1 $55 $-1 $26 #
shell $-1 $-1 $-1 $56 $-1 $28 #
shell $-1 $-1 $-1 $57 $-1 $30 #
shell $-1 $-1 $-1 $58 $-1 $32 #
shell $-1 $-1 $-1 $59 $-1 $34 #
face $-1 $60 $61 $36 $-1 $62 forward single #
face $-1 $63 $64 $37 $-1 $65 forward single #
face $-1 $66 $67 $38 $-1 $68 forward single #
face $-1 $69 $70 $39 $-1 $71 forward single #
face $-1 $72 $73 $40 $-1 $74 forward single #
face $-1 $75 $76 $41 $-1 $77 forward single #
face $-1 $78 $79 $42 $-1 $80 forward single #
face $-1 $81 $82 $43 $-1 $83 forward single #
face $-1 $84 $85 $44 $-1 $86 forward single #
face $-1 $87 $88 $45 $-1 $89 forward single #
face $-1 $90 $91 $46 $-1 $92 forward single #
face $-1 $93 $94 $47 $-1 $95 forward single #
face $-1 $96 $97 $36 $-1 $98 reversed single #
loop $-1 $-1 $99 $48 #
plane-surface $-1 0 0 14.134049240730784 0 0 1 1 0 0 forward_v I I I I #
face $-1 $100 $101 $37 $-1 $102 reversed single #
loop $-1 $-1 $103 $49 #
plane-surface $-1 0 0 92.707907345805239 0 0 1 1 0 0 forward_v I I I I #
face $-1 $104 $105 $38 $-1 $106 forward single #
loop $-1 $107 $108 $50 #
cone-surface $-1 0 0 -3.4324167607654026 0 0 1 1.5 0 0 1 I I 0 1 1.5 forward I I I I #
face $-1 $109 $110 $39 $-1 $111 forward single #
loop $-1 $112 $113 $51 #
cone-surface $-1 0 0 -3.4324167607654026 0 0 1 1.5 0 0 1 I I 0 1 1.5 forward I I I I #
face $-1 $114 $115 $40 $-1 $116 reversed single #
loop $-1 $-1 $117 $52 #
plane-surface $-1 0 0 92.707907345805239 0 0 1 1 0 0 forward_v I I I I #
face $-1 $118 $119 $41 $-1 $120 forward single #
loop $-1 $121 $122 $53 #
cone-surface $-1 0 0 -2.3523667104098642 0 0 1 1 0 0 1 I I 0 1 1 forward I I I I #
face $-1 $123 $124 $42 $-1 $125 forward single #
loop $-1 $126 $127 $54 #
cone-surface $-1 0 0 -2.3523667104098642 0 0 1 1 0 0 1 I I 0 1 1 forward I I I I #
face $-1 $128 $129 $43 $-1 $130 forward single #
loop $-1 $131 $132 $55 #
cone-surface $-1 0 0 -2.3523667104098642 0 0 1 1 0 0 1 I I 0 1 1 forward I I I I #
face $-1 $133 $134 $44 $-1 $135 reversed single #
loop $-1 $-1 $136 $56 #
plane-surface $-1 0 0 92.707907345805239 0 0 1 1 0 0 forward_v I I I I #
face $-1 $137 $138 $45 $-1 $139 forward single #
loop $-1 $140 $141 $57 #
cone-surface $-1 0 0 -2.3523667104098642 0 0 1 1 0 0 1 I I 0 1 1 forward I I I I #
face $-1 $142 $143 $46 $-1 $144 forward single #
loop $-1 $145 $146 $58 #
cone-surface $-1 0 0 -2.3523667104098642 0 0 1 1 0 0 1 I I 0 1 1 forward I I I I #
face $-1 $147 $148 $47 $-1 $149 forward single #
loop $-1 $150 $151 $59 #
cone-surface $-1 0 0 -2.3523667104098642 0 0 1 1 0 0 1 I I 0 1 1 forward I I I I #
face $-1 $152 $153 $36 $-1 $154 reversed single #
loop $-1 $-1 $155 $60 #
plane-surface $-1 0 0 -14.134049240730784 0 0 1 1 0 0 forward_v I I I I #
coedge $-1 $156 $157 $158 $159 forward $61 $-1 #
face $-1 $160 $161 $37 $-1 $162 reversed single #
loop $-1 $-1 $163 $63 #
plane-surface $-1 0 0 -92.707907345805239 0 0 1 1 0 0 forward_v I I I I #
coedge $-1 $164 $165 $166 $167 forward $64 $-1 #
face $-1 $-1 $168 $38 $-1 $169 forward single #
loop $-1 $-1 $170 $66 #
plane-surface $-1 0 0 -6.1148335215308069 0 0 -1 -1 0 0 forward_v I I I I #
loop $-1 $-1 $171 $50 #
coedge $-1 $108 $108 $170 $172 reversed $67 $-1 #
face $-1 $-1 $173 $39 $-1 $174 forward single #
loop $-1 $-1 $175 $69 #
plane-surface $-1 0 0 -6.1148335215308069 0 0 -1 -1 0 0 forward_v I I I I #
loop $-1 $-1 $176 $51 #
coedge $-1 $113 $113 $175 $177 reversed $70 $-1 #
face $-1 $178 $179 $40 $-1 $180 reversed single #
loop $-1 $-1 $181 $72 #
plane-surface $-1 0 0 -92.707907345805239 0 0 1 1 0 0 forward_v I I I I #
coedge $-1 $182 $183 $184 $185 forward $73 $-1 #
face $-1 $-1 $186 $41 $-1 $187 forward single #
loop $-1 $-1 $188 $75 #
plane-surface $-1 0 0 -4.2047334208197285 0 0 -1 -1 0 0 forward_v I I I I #
loop $-1 $-1 $189 $53 #
coedge $-1 $122 $122 $188 $190 reversed $76 $-1 #
face $-1 $-1 $191 $42 $-1 $192 forward single #
loop $-1 $-1 $193 $78 #
plane-surface $-1 0 0 -4.2047334208197285 0 0 -1 -1 0 0 forward_v I I I I #
loop $-1 $-1 $194 $54 #
coedge $-1 $127 $127 $193 $195 reversed $79 $-1 #
face $-1 $-1 $196 $43 $-1 $197 forward single #
loop $-1 $-1 $198 $81 #
plane-surface $-1 0 0 -4.2047334208197285 0 0 -1 -1 0 0 forward_v I I I I #
loop $-1 $-1 $199 $55 #
coedge $-1 $132 $132 $198 $200 reversed $82 $-1 #
face $-1 $201 $202 $44 $-1 $203 reversed single #
loop $-1 $-1 $204 $84 #
plane-surface $-1 0 0 -92.707907345805239 0 0 1 1 0 0 forward_v I I I I #
coedge $-1 $205 $206 $207 $208 forward $85 $-1 #
face $-1 $-1 $209 $45 $-1 $210 forward single #
loop $-1 $-1 $211 $87 #
plane-surface $-1 0 0 -4.2047334208197285 0 0 -1 -1 0 0 forward_v I I I I #
loop $-1 $-1 $212 $57 #
coedge $-1 $141 $141 $211 $213 reversed $88 $-1 #
face $-1 $-1 $214 $46 $-1 $215 forward single #
loop $-1 $-1 $216 $90 #
plane-surface $-1 0 0 -4.2047334208197285 0 0 -1 -1 0 0 forward_v I I I I #
loop $-1 $-1 $217 $58 #
coedge $-1 $146 $146 $216 $218 reversed $91 $-1 #
face $-1 $-1 $219 $47 $-1 $220 forward single #
loop $-1 $-1 $221 $93 #
plane-surface $-1 0 0 -4.2047334208197285 0 0 -1 -1 0 0 forward_v I I I I #
loop $-1 $-1 $222 $59 #
coedge $-1 $151 $151 $221 $223 reversed $94 $-1 #
face $-1 $224 $225 $36 $-1 $226 reversed single #
loop $-1 $-1 $227 $96 #
plane-surface $-1 0 -30.130140620065422 0 0 1 0 0 0 1 forward_v I I I I #
coedge $-1 $228 $229 $230 $231 forward $97 $-1 #
coedge $-1 $232 $99 $233 $234 forward $61 $-1 #
coedge $-1 $99 $232 $235 $236 forward $61 $-1 #
coedge $-1 $237 $238 $99 $159 reversed $239 $-1 #
edge $-1 $240 -30.130140620065422 $241 30.130140620065422 $158 $242 forward 7 unknown #
face $-1 $243 $244 $37 $-1 $245 reversed single #
loop $-1 $-1 $246 $100 #
plane-surface $-1 0 -185.41581469161048 0 0 1 0 0 0 1 forward_v I I I I #
coedge $-1 $247 $248 $249 $250 forward $101 $-1 #
coedge $-1 $251 $103 $252 $253 forward $64 $-1 #
coedge $-1 $103 $251 $254 $255 forward $64 $-1 #
coedge $-1 $256 $257 $103 $167 reversed $258 $-1 #
edge $-1 $259 -185.41581469161048 $260 185.41581469161048 $166 $261 forward 7 unknown #
loop $-1 $262 $263 $104 #
cone-surface $-1 0 0 0 0 0 1 0.75 0 0 1 I I -0.70710678118654757 0.70710678118654757 0.75 forward I I I I #
coedge $-1 $170 $170 $108 $172 forward $105 $-1 #
coedge $-1 $171 $171 $263 $264 forward $107 $-1 #
edge $-1 $265 0 $265 6.2831853071796004 $170 $266 forward 7 unknown #
loop $-1 $267 $268 $109 #
cone-surface $-1 0 0 0 0 0 1 0.75 0 0 1 I I -0.70710678118654757 0.70710678118654757 0.75 forward I I I I #
coedge $-1 $175 $175 $113 $177 forward $110 $-1 #
coedge $-1 $176 $176 $268 $269 forward $112 $-1 #
edge $-1 $270 0 $270 6.2831853071796004 $175 $271 forward 7 unknown #
face $-1 $272 $273 $40 $-1 $274 reversed single #
loop $-1 $-1 $275 $114 #
plane-surface $-1 0 -185.41581469161048 0 0 1 0 0 0 1 forward_v I I I I #
coedge $-1 $276 $277 $278 $279 forward $115 $-1 #
coedge $-1 $280 $117 $281 $282 forward $73 $-1 #
coedge $-1 $117 $280 $283 $284 forward $73 $-1 #
coedge $-1 $285 $286 $117 $185 reversed $287 $-1 #
edge $-1 $288 -185.41581469161048 $289 185.41581469161048 $184 $290 forward 7 unknown #
loop $-1 $291 $292 $118 #
cone-surface $-1 0 0 0 0 0 1 0.5 0 0 1 I I -0.70710678118654746 0.70710678118654746 0.5 forward I I I I #
coedge $-1 $188 $188 $122 $190 forward $119 $-1 #
coedge $-1 $189 $189 $292 $293 forward $121 $-1 #
edge $-1 $294 0 $294 6.2831853071796004 $188 $295 forward 7 unknown #
loop $-1 $296 $297 $123 #
cone-surface $-1 0 0 0 0 0 1 0.5 0 0 1 I I -0.70710678118654746 0.70710678118654746 0.5 forward I I I I #
coedge $-1 $193 $193 $127 $195 forward $124 $-1 #
coedge $-1 $194 $194 $297 $298 forward $126 $-1 #
edge $-1 $299 0 $299 6.2831853071796004 $193 $300 forward 7 unknown #
loop $-1 $301 $302 $128 #
cone-surface $-1 0 0 0 0 0 1 0.5 0 0 1 I I -0.70710678118654746 0.70710678118654746 0.5 forward I I I I #
coedge $-1 $198 $198 $132 $200 forward $129 $-1 #
coedge $-1 $199 $199 $302 $303 forward $131 $-1 #
edge $-1 $304 0 $304 6.2831853071796004 $198 $305 forward 7 unknown #
face $-1 $306 $307 $44 $-1 $308 reversed single #
loop $-1 $-1 $309 $133 #
plane-surface $-1 0 -185.41581469161048 0 0 1 0 0 0 1 forward_v I I I I #
coedge $-1 $310 $311 $312 $313 forward $134 $-1 #
coedge $-1 $314 $136 $315 $316 forward $85 $-1 #
coedge $-1 $136 $314 $317 $318 forward $85 $-1 #
coedge $-1 $319 $320 $136 $208 reversed $321 $-1 #
edge $-1 $322 -185.41581469161048 $323 185.41581469161048 $207 $324 forward 7 unknown #
loop $-1 $325 $326 $137 #
cone-surface $-1 0 0 0 0 0 1 0.5 0 0 1 I I -0.70710678118654746 0.70710678118654746 0.5 forward I I I I #
coedge $-1 $211 $211 $141 $213 forward $138 $-1 #
coedge $-1 $212 $212 $326 $327 forward $140 $-1 #
edge $-1 $328 0 $328 6.2831853071796004 $211 $329 forward 7 unknown #
loop $-1 $330 $331 $142 #
cone-surface $-1 0 0 0 0 0 1 0.5 0 0 1 I I -0.70710678118654746 0.70710678118654746 0.5 forward I I I I #
coedge $-1 $216 $216 $146 $218 forward $143 $-1 #
coedge $-1 $217 $217 $331 $332 forward $145 $-1 #
edge $-1 $333 0 $333 6.2831853071796004 $216 $334 forward 7 unknown #
loop $-1 $335 $336 $147 #
cone-surface $-1 0 0 0 0 0 1 0.5 0 0 1 I I -0.70710678118654746 0.70710678118654746 0.5 forward I I I I #
coedge $-1 $221 $221 $151 $223 forward $148 $-1 #
coedge $-1 $222 $222 $336 $337 forward $150 $-1 #
edge $-1 $338 0 $338 6.2831853071796004 $221 $339 forward 7 unknown #
face $-1 $340 $341 $36 $-1 $342 reversed single #
loop $-1 $-1 $343 $152 #
plane-surface $-1 -46.35395367290262 0 0 1 0 0 0 0 -1 forward_v I I I I #
coedge $-1 $344 $235 $345 $346 forward $153 $-1 #
coedge $-1 $347 $155 $344 $348 forward $97 $-1 #
coedge $-1 $155 $347 $349 $350 forward $97 $-1 #
coedge $-1 $238 $237 $155 $231 reversed $239 $-1 #
edge $-1 $351 -30.130140620065422 $352 30.130140620065422 $230 $353 forward 7 unknown #
coedge $-1 $157 $156 $354 $355 forward $61 $-1 #
coedge $-1 $356 $357 $156 $234 reversed $341 $-1 #
edge $-1 $241 -46.35395367290262 $358 46.35395367290262 $233 $359 forward 7 unknown #
coedge $-1 $227 $360 $157 $236 reversed $153 $-1 #
edge $-1 $361 -46.35395367290262 $240 46.35395367290262 $235 $362 forward 7 unknown #
coedge $-1 $230 $158 $360 $363 forward $239 $-1 #
coedge $-1 $158 $230 $356 $364 reversed $239 $-1 #
loop $-1 $-1 $237 $340 #
vertex $-1 $159 $365 #
vertex $-1 $159 $366 #
straight-curve $-1 46.35395367290262 0 14.134049240730784 0 1 0 I I #
face $-1 $367 $368 $37 $-1 $369 reversed single #
loop $-1 $-1 $370 $160 #
plane-surface $-1 -5.9351790714640629 0 0 1 0 0 0 0 -1 forward_v I I I I #
coedge $-1 $371 $254 $372 $373 forward $161 $-1 #
coedge $-1 $374 $163 $371 $375 forward $101 $-1 #
coedge $-1 $163 $374 $376 $377 forward $101 $-1 #
coedge $-1 $257 $256 $163 $250 reversed $258 $-1 #
edge $-1 $378 -185.41581469161048 $379 185.41581469161048 $249 $380 forward 7 unknown #
coedge $-1 $165 $164 $381 $382 forward $64 $-1 #
coedge $-1 $383 $384 $164 $253 reversed $368 $-1 #
edge $-1 $260 -5.9351790714640629 $385 5.9351790714640629 $252 $386 forward 7 unknown #
coedge $-1 $246 $387 $165 $255 reversed $161 $-1 #
edge $-1 $388 -5.9351790714640629 $259 5.9351790714640629 $254 $389 forward 7 unknown #
coedge $-1 $249 $166 $387 $390 forward $258 $-1 #
coedge $-1 $166 $249 $383 $391 reversed $258 $-1 #
loop $-1 $-1 $256 $367 #
vertex $-1 $167 $392 #
vertex $-1 $167 $393 #
straight-curve $-1 5.9351790714640629 0 92.707907345805239 0 1 0 I I #
loop $-1 $-1 $394 $104 #
coedge $-1 $263 $263 $171 $264 reversed $168 $-1 #
edge $-1 $395 0 $395 6.2831853071796004 $263 $396 forward 7 unknown #
vertex $-1 $172 $397 #
ellipse-curve $-1 0 0 -6.1148335215308069 0 0 -1 1.5 0 0 1 I I #
loop $-1 $-1 $398 $109 #
coedge $-1 $268 $268 $176 $269 reversed $173 $-1 #
edge $-1 $399 0 $399 6.2831853071796004 $268 $400 forward 7 unknown #
vertex $-1 $177 $401 #
ellipse-curve $-1 0 0 -6.1148335215308069 0 0 -1 1.5 0 0 1 I I #
face $-1 $402 $403 $40 $-1 $404 reversed single #
loop $-1 $-1 $405 $178 #
plane-surface $-1 -8.9739964146679618 0 0 1 0 0 0 0 -1 forward_v I I I I #
coedge $-1 $406 $283 $407 $408 forward $179 $-1 #
coedge $-1 $409 $181 $406 $410 forward $115 $-1 #
coedge $-1 $181 $409 $411 $412 forward $115 $-1 #
coedge $-1 $286 $285 $181 $279 reversed $287 $-1 #
edge $-1 $413 -185.41581469161048 $414 185.41581469161048 $278 $415 forward 7 unknown #
coedge $-1 $183 $182 $416 $417 forward $73 $-1 #
coedge $-1 $418 $419 $182 $282 reversed $403 $-1 #
edge $-1 $289 -8.9739964146679618 $420 8.9739964146679618 $281 $421 forward 7 unknown #
coedge $-1 $275 $422 $183 $284 reversed $179 $-1 #
edge $-1 $423 -8.9739964146679618 $288 8.9739964146679618 $283 $424 forward 7 unknown #
coedge $-1 $278 $184 $422 $425 forward $287 $-1 #
coedge $-1 $184 $278 $418 $426 reversed $287 $-1 #
loop $-1 $-1 $285 $402 #
vertex $-1 $185 $427 #
vertex $-1 $185 $428 #
straight-curve $-1 8.9739964146679618 0 92.707907345805239 0 1 0 I I #
loop $-1 $-1 $429 $118 #
coedge $-1 $292 $292 $189 $293 reversed $186 $-1 #
edge $-1 $430 0 $430 6.2831853071796004 $292 $431 forward 7 unknown #
vertex $-1 $190 $432 #
ellipse-curve $-1 0 0 -4.2047334208197285 0 0 -1 1 0 0 1 I I #
loop $-1 $-1 $433 $123 #
coedge $-1 $297 $297 $194 $298 reversed $191 $-1 #
edge $-1 $434 0 $434 6.2831853071796004 $297 $435 forward 7 unknown #
vertex $-1 $195 $436 #
ellipse-curve $-1 0 0 -4.2047334208197285 0 0 -1 1 0 0 1 I I #
loop $-1 $-1 $437 $128 #
coedge $-1 $302 $302 $199 $303 reversed $196 $-1 #
edge $-1 $438 0 $438 6.2831853071796004 $302 $439 forward 7 unknown #
vertex $-1 $200 $440 #
ellipse-curve $-1 0 0 -4.2047334208197285 0 0 -1 1 0 0 1 I I #
face $-1 $441 $442 $44 $-1 $443 reversed single #
loop $-1 $-1 $444 $201 #
plane-surface $-1 -8.9739964146679618 0 0 1 0 0 0 0 -1 forward_v I I I I #
coedge $-1 $445 $317 $446 $447 forward $202 $-1 #
coedge $-1 $448 $204 $445 $449 forward $134 $-1 #
coedge $-1 $204 $448 $450 $451 forward $134 $-1 #
coedge $-1 $320 $319 $204 $313 reversed $321 $-1 #
edge $-1 $452 -185.41581469161048 $453 185.41581469161048 $312 $454 forward 7 unknown #
coedge $-1 $206 $205 $455 $456 forward $85 $-1 #
coedge $-1 $457 $458 $205 $316 reversed $442 $-1 #
edge $-1 $323 -8.9739964146679618 $459 8.9739964146679618 $315 $460 forward 7 unknown #
coedge $-1 $309 $461 $206 $318 reversed $202 $-1 #
edge $-1 $462 -8.9739964146679618 $322 8.9739964146679618 $317 $463 forward 7 unknown #
coedge $-1 $312 $207 $461 $464 forward $321 $-1 #
coedge $-1 $207 $312 $457 $465 reversed $321 $-1 #
loop $-1 $-1 $319 $441 #
vertex $-1 $208 $466 #
vertex $-1 $208 $467 #
straight-curve $-1 8.9739964146679618 0 92.707907345805239 0 1 0 I I #
loop $-1 $-1 $468 $137 #
coedge $-1 $326 $326 $212 $327 reversed $209 $-1 #
edge $-1 $469 0 $469 6.2831853071796004 $326 $470 forward 7 unknown #
vertex $-1 $213 $471 #
ellipse-curve $-1 0 0 -4.2047334208197285 0 0 -1 1 0 0 1 I I #
loop $-1 $-1 $472 $142 #
coedge $-1 $331 $331 $217 $332 reversed $214 $-1 #
edge $-1 $473 0 $473 6.2831853071796004 $331 $474 forward 7 unknown #
vertex $-1 $218 $475 #
ellipse-curve $-1 0 0 -4.2047334208197285 0 0 -1 1 0 0 1 I I #
loop $-1 $-1 $476 $147 #
coedge $-1 $336 $336 $222 $337 reversed $219 $-1 #
edge $-1 $477 0 $477 6.2831853071796004 $336 $478 forward 7 unknown #
vertex $-1 $223 $479 #
ellipse-curve $-1 0 0 -4.2047334208197285 0 0 -1 1 0 0 1 I I #
face $-1 $-1 $239 $36 $-1 $480 reversed single #
loop $-1 $-1 $356 $224 #
plane-surface $-1 0 30.130140620065422 0 0 -1 0 0 0 -1 forward_v I I I I #
coedge $-1 $481 $354 $357 $482 forward $225 $-1 #
coedge $-1 $360 $227 $228 $348 reversed $153 $-1 #
coedge $-1 $354 $481 $227 $346 reversed $225 $-1 #
edge $-1 $361 -14.134049240730784 $483 14.134049240730784 $345 $484 forward 7 unknown #
coedge $-1 $229 $228 $481 $485 forward $97 $-1 #
edge $-1 $352 -46.35395367290262 $483 46.35395367290262 $344 $486 forward 7 unknown #
coedge $-1 $357 $356 $229 $350 reversed $341 $-1 #
edge $-1 $487 -46.35395367290262 $351 46.35395367290262 $349 $488 forward 7 unknown #
vertex $-1 $231 $489 #
vertex $-1 $363 $490 #
straight-curve $-1 46.35395367290262 0 -14.134049240730784 0 -1 0 I I #
coedge $-1 $343 $345 $232 $355 reversed $225 $-1 #
edge $-1 $358 -30.130140620065422 $361 30.130140620065422 $354 $491 forward 7 unknown #
coedge $-1 $349 $233 $238 $364 forward $341 $-1 #
coedge $-1 $233 $349 $343 $482 reversed $341 $-1 #
vertex $-1 $234 $492 #
straight-curve $-1 0 30.130140620065422 14.134049240730784 -1 0 0 I I #
coedge $-1 $235 $344 $237 $363 reversed $153 $-1 #
vertex $-1 $355 $493 #
straight-curve $-1 0 -30.130140620065422 14.134049240730784 1 0 0 I I #
edge $-1 $240 -14.134049240730784 $352 14.134049240730784 $237 $494 forward 7 unknown #
edge $-1 $241 -14.134049240730784 $351 14.134049240730784 $238 $495 forward 7 unknown #
point $-1 46.35395367290262 -30.130140620065422 14.134049240730784 #
point $-1 46.35395367290262 30.130140620065422 14.134049240730784 #
face $-1 $-1 $258 $37 $-1 $496 reversed single #
loop $-1 $-1 $383 $243 #
plane-surface $-1 0 185.41581469161048 0 0 -1 0 0 0 -1 forward_v I I I I #
coedge $-1 $497 $381 $384 $498 forward $244 $-1 #
coedge $-1 $387 $246 $247 $375 reversed $161 $-1 #
coedge $-1 $381 $497 $246 $373 reversed $244 $-1 #
edge $-1 $388 -92.707907345805239 $499 92.707907345805239 $372 $500 forward 7 unknown #
coedge $-1 $248 $247 $497 $501 forward $101 $-1 #
edge $-1 $379 -5.9351790714640629 $499 5.9351790714640629 $371 $502 forward 7 unknown #
coedge $-1 $384 $383 $248 $377 reversed $368 $-1 #
edge $-1 $503 -5.9351790714640629 $378 5.9351790714640629 $376 $504 forward 7 unknown #
vertex $-1 $250 $505 #
vertex $-1 $390 $506 #
straight-curve $-1 5.9351790714640629 0 -92.707907345805239 0 -1 0 I I #
coedge $-1 $370 $372 $251 $382 reversed $244 $-1 #
edge $-1 $385 -185.41581469161048 $388 185.41581469161048 $381 $507 forward 7 unknown #
coedge $-1 $376 $252 $257 $391 forward $368 $-1 #
coedge $-1 $252 $376 $370 $498 reversed $368 $-1 #
vertex $-1 $253 $508 #
straight-curve $-1 0 185.41581469161048 92.707907345805239 -1 0 0 I I #
coedge $-1 $254 $371 $256 $390 reversed $161 $-1 #
vertex $-1 $382 $509 #
straight-curve $-1 0 -185.41581469161048 92.707907345805239 1 0 0 I I #
edge $-1 $259 -92.707907345805239 $379 92.707907345805239 $256 $510 forward 7 unknown #
edge $-1 $260 -92.707907345805239 $378 92.707907345805239 $257 $511 forward 7 unknown #
point $-1 5.9351790714640629 -185.41581469161048 92.707907345805239 #
point $-1 5.9351790714640629 185.41581469161048 92.707907345805239 #
coedge $-1 $394 $394 $-1 $512 reversed $262 $-1 #
vertex $-1 $264 $513 #
ellipse-curve $-1 0 0 -0.75 0 0 -1 1.5 0 0 1 I I #
point $-1 1.5 0 -6.1148335215308069 #
coedge $-1 $398 $398 $-1 $514 reversed $267 $-1 #
vertex $-1 $269 $515 #
ellipse-curve $-1 0 0 -0.75 0 0 -1 1.5 0 0 1 I I #
point $-1 1.5 0 -6.1148335215308069 #
face $-1 $-1 $287 $40 $-1 $516 reversed single #
loop $-1 $-1 $418 $272 #
plane-surface $-1 0 185.41581469161048 0 0 -1 0 0 0 -1 forward_v I I I I #
coedge $-1 $517 $416 $419 $518 forward $273 $-1 #
coedge $-1 $422 $275 $276 $410 reversed $179 $-1 #
coedge $-1 $416 $517 $275 $408 reversed $273 $-1 #
edge $-1 $423 -92.707907345805239 $519 92.707907345805239 $407 $520 forward 7 unknown #
coedge $-1 $277 $276 $517 $521 forward $115 $-1 #
edge $-1 $414 -8.9739964146679618 $519 8.9739964146679618 $406 $522 forward 7 unknown #
coedge $-1 $419 $418 $277 $412 reversed $403 $-1 #
edge $-1 $523 -8.9739964146679618 $413 8.9739964146679618 $411 $524 forward 7 unknown #
vertex $-1 $279 $525 #
vertex $-1 $425 $526 #
straight-curve $-1 8.9739964146679618 0 -92.707907345805239 0 -1 0 I I #
coedge $-1 $405 $407 $280 $417 reversed $273 $-1 #
edge $-1 $420 -185.41581469161048 $423 185.41581469161048 $416 $527 forward 7 unknown #
coedge $-1 $411 $281 $286 $426 forward $403 $-1 #
coedge $-1 $281 $411 $405 $518 reversed $403 $-1 #
vertex $-1 $282 $528 #
straight-curve $-1 0 185.41581469161048 92.707907345805239 -1 0 0 I I #
coedge $-1 $283 $406 $285 $425 reversed $179 $-1 #
vertex $-1 $417 $529 #
straight-curve $-1 0 -185.41581469161048 92.707907345805239 1 0 0 I I #
edge $-1 $288 -92.707907345805239 $414 92.707907345805239 $285 $530 forward 7 unknown #
edge $-1 $289 -92.707907345805239 $413 92.707907345805239 $286 $531 forward 7 unknown #
point $-1 8.9739964146679618 -185.41581469161048 92.707907345805239 #
point $-1 8.9739964146679618 185.41581469161048 92.707907345805239 #
coedge $-1 $429 $429 $-1 $532 reversed $291 $-1 #
vertex $-1 $293 $533 #
ellipse-curve $-1 0 0 -0.5 0 0 -1 1 0 0 1 I I #
point $-1 1 0 -4.2047334208197285 #
coedge $-1 $433 $433 $-1 $534 reversed $296 $-1 #
vertex $-1 $298 $535 #
ellipse-curve $-1 0 0 -0.5 0 0 -1 1 0 0 1 I I #
point $-1 1 0 -4.2047334208197285 #
coedge $-1 $437 $437 $-1 $536 reversed $301 $-1 #
vertex $-1 $303 $537 #
ellipse-curve $-1 0 0 -0.5 0 0 -1 1 0 0 1 I I #
point $-1 1 0 -4.2047334208197285 #
face $-1 $-1 $321 $44 $-1 $538 reversed single #
loop $-1 $-1 $457 $306 #
plane-surface $-1 0 185.41581469161048 0 0 -1 0 0 0 -1 forward_v I I I I #
coedge $-1 $539 $455 $458 $540 forward $307 $-1 #
coedge $-1 $461 $309 $310 $449 reversed $202 $-1 #
coedge $-1 $455 $539 $309 $447 reversed $307 $-1 #
edge $-1 $462 -92.707907345805239 $541 92.707907345805239 $446 $542 forward 7 unknown #
coedge $-1 $311 $310 $539 $543 forward $134 $-1 #
edge $-1 $453 -8.9739964146679618 $541 8.9739964146679618 $445 $544 forward 7 unknown #
coedge $-1 $458 $457 $311 $451 reversed $442 $-1 #
edge $-1 $545 -8.9739964146679618 $452 8.9739964146679618 $450 $546 forward 7 unknown #
vertex $-1 $313 $547 #
vertex $-1 $464 $548 #
straight-curve $-1 8.9739964146679618 0 -92.707907345805239 0 -1 0 I I #
coedge $-1 $444 $446 $314 $456 reversed $307 $-1 #
edge $-1 $459 -185.41581469161048 $462 185.41581469161048 $455 $549 forward 7 unknown #
coedge $-1 $450 $315 $320 $465 forward $442 $-1 #
coedge $-1 $315 $450 $444 $540 reversed $442 $-1 #
vertex $-1 $316 $550 #
straight-curve $-1 0 185.41581469161048 92.707907345805239 -1 0 0 I I #
coedge $-1 $317 $445 $319 $464 reversed $202 $-1 #
vertex $-1 $456 $551 #
straight-curve $-1 0 -185.41581469161048 92.707907345805239 1 0 0 I I #
edge $-1 $322 -92.707907345805239 $453 92.707907345805239 $319 $552 forward 7 unknown #
edge $-1 $323 -92.707907345805239 $452 92.707907345805239 $320 $553 forward 7 unknown #
point $-1 8.9739964146679618 -185.41581469161048 92.707907345805239 #
point $-1 8.9739964146679618 185.41581469161048 92.707907345805239 #
coedge $-1 $468 $468 $-1 $554 reversed $325 $-1 #
vertex $-1 $327 $555 #
ellipse-curve $-1 0 0 -0.5 0 0 -1 1 0 0 1 I I #
point $-1 1 0 -4.2047334208197285 #
coedge $-1 $472 $472 $-1 $556 reversed $330 $-1 #
vertex $-1 $332 $557 #
ellipse-curve $-1 0 0 -0.5 0 0 -1 1 0 0 1 I I #
point $-1 1 0 -4.2047334208197285 #
coedge $-1 $476 $476 $-1 $558 reversed $335 $-1 #
vertex $-1 $337 $559 #
ellipse-curve $-1 0 0 -0.5 0 0 -1 1 0 0 1 I I #
point $-1 1 0 -4.2047334208197285 #
plane-surface $-1 46.35395367290262 0 0 -1 0 0 0 0 1 forward_v I I I I #
coedge $-1 $345 $343 $347 $485 reversed $225 $-1 #
edge $-1 $358 -14.134049240730784 $487 14.134049240730784 $357 $560 forward 7 unknown #
vertex $-1 $485 $561 #
straight-curve $-1 -46.35395367290262 -30.130140620065422 0 0 0 -1 I I #
edge $-1 $483 -30.130140620065422 $487 30.130140620065422 $481 $562 forward 7 unknown #
straight-curve $-1 0 -30.130140620065422 -14.134049240730784 -1 0 0 I I #
vertex $-1 $350 $563 #
straight-curve $-1 0 30.130140620065422 -14.134049240730784 1 0 0 I I #
point $-1 46.35395367290262 30.130140620065422 -14.134049240730784 #
point $-1 46.35395367290262 -30.130140620065422 -14.134049240730784 #
straight-curve $-1 -46.35395367290262 0 14.134049240730784 0 -1 0 I I #
point $-1 -46.35395367290262 30.130140620065422 14.134049240730784 #
point $-1 -46.35395367290262 -30.130140620065422 14.134049240730784 #
straight-curve $-1 46.35395367290262 -30.130140620065422 0 0 0 -1 I I #
straight-curve $-1 46.35395367290262 30.130140620065422 0 0 0 -1 I I #
plane-surface $-1 5.9351790714640629 0 0 -1 0 0 0 0 1 forward_v I I I I #
coedge $-1 $372 $370 $374 $501 reversed $244 $-1 #
edge $-1 $385 -92.707907345805239 $503 92.707907345805239 $384 $564 forward 7 unknown #
vertex $-1 $501 $565 #
straight-curve $-1 -5.9351790714640629 -185.41581469161048 0 0 0 -1 I I #
edge $-1 $499 -185.41581469161048 $503 185.41581469161048 $497 $566 forward 7 unknown #
straight-curve $-1 0 -185.41581469161048 -92.707907345805239 -1 0 0 I I #
vertex $-1 $377 $567 #
straight-curve $-1 0 185.41581469161048 -92.707907345805239 1 0 0 I I #
point $-1 5.9351790714640629 185.41581469161048 -92.707907345805239 #
point $-1 5.9351790714640629 -185.41581469161048 -92.707907345805239 #
straight-curve $-1 -5.9351790714640629 0 92.707907345805239 0 -1 0 I I #
point $-1 -5.9351790714640629 185.41581469161048 92.707907345805239 #
point $-1 -5.9351790714640629 -185.41581469161048 92.707907345805239 #
straight-curve $-1 5.9351790714640629 -185.41581469161048 0 0 0 -1 I I #
straight-curve $-1 5.9351790714640629 185.41581469161048 0 0 0 -1 I I #
edge $-1 $568 1 $568 0 $394 $-1 forward 7 unknown #
point $-1 1.5 0 -0.75 #
edge $-1 $569 1 $569 0 $398 $-1 forward 7 unknown #
point $-1 1.5 0 -0.75 #
plane-surface $-1 8.9739964146679618 0 0 -1 0 0 0 0 1 forward_v I I I I #
coedge $-1 $407 $405 $409 $521 reversed $273 $-1 #
edge $-1 $420 -92.707907345805239 $523 92.707907345805239 $419 $570 forward 7 unknown #
vertex $-1 $521 $571 #
straight-curve $-1 -8.9739964146679618 -185.41581469161048 0 0 0 -1 I I #
edge $-1 $519 -185.41581469161048 $523 185.41581469161048 $517 $572 forward 7 unknown #
straight-curve $-1 0 -185.41581469161048 -92.707907345805239 -1 0 0 I I #
vertex $-1 $412 $573 #
straight-curve $-1 0 185.41581469161048 -92.707907345805239 1 0 0 I I #
point $-1 8.9739964146679618 185.41581469161048 -92.707907345805239 #
point $-1 8.9739964146679618 -185.41581469161048 -92.707907345805239 #
straight-curve $-1 -8.9739964146679618 0 92.707907345805239 0 -1 0 I I #
point $-1 -8.9739964146679618 185.41581469161048 92.707907345805239 #
point $-1 -8.9739964146679618 -185.41581469161048 92.707907345805239 #
straight-curve $-1 8.9739964146679618 -185.41581469161048 0 0 0 -1 I I #
straight-curve $-1 8.9739964146679618 185.41581469161048 0 0 0 -1 I I #
edge $-1 $574 1 $574 0 $429 $-1 forward 7 unknown #
point $-1 1 0 -0.5 #
edge $-1 $575 1 $575 0 $433 $-1 forward 7 unknown #
point $-1 1 0 -0.5 #
edge $-1 $576 1 $576 0 $437 $-1 forward 7 unknown #
point $-1 1 0 -0.5 #
plane-surface $-1 8.9739964146679618 0 0 -1 0 0 0 0 1 forward_v I I I I #
coedge $-1 $446 $444 $448 $543 reversed $307 $-1 #
edge $-1 $459 -92.707907345805239 $545 92.707907345805239 $458 $577 forward 7 unknown #
vertex $-1 $543 $578 #
straight-curve $-1 -8.9739964146679618 -185.41581469161048 0 0 0 -1 I I #
edge $-1 $541 -185.41581469161048 $545 185.41581469161048 $539 $579 forward 7 unknown #
straight-curve $-1 0 -185.41581469161048 -92.707907345805239 -1 0 0 I I #
vertex $-1 $451 $580 #
straight-curve $-1 0 185.41581469161048 -92.707907345805239 1 0 0 I I #
point $-1 8.9739964146679618 185.41581469161048 -92.707907345805239 #
point $-1 8.9739964146679618 -185.41581469161048 -92.707907345805239 #
straight-curve $-1 -8.9739964146679618 0 92.707907345805239 0 -1 0 I I #
point $-1 -8.9739964146679618 185.41581469161048 92.707907345805239 #
point $-1 -8.9739964146679618 -185.41581469161048 92.707907345805239 #
straight-curve $-1 8.9739964146679618 -185.41581469161048 0 0 0 -1 I I #
straight-curve $-1 8.9739964146679618 185.41581469161048 0 0 0 -1 I I #
edge $-1 $581 1 $581 0 $468 $-1 forward 7 unknown #
point $-1 1 0 -0.5 #
edge $-1 $582 1 $582 0 $472 $-1 forward 7 unknown #
point $-1 1 0 -0.5 #
edge $-1 $583 1 $583 0 $476 $-1 forward 7 unknown #
point $-1 1 0 -0.5 #
straight-curve $-1 -46.35395367290262 30.130140620065422 0 0 0 -1 I I #
point $-1 -46.35395367290262 -30.130140620065422 -14.134049240730784 #
straight-curve $-1 -46.35395367290262 0 -14.134049240730784 0 1 0 I I #
point $-1 -46.35395367290262 30.130140620065422 -14.134049240730784 #
straight-curve $-1 -5.9351790714640629 185.41581469161048 0 0 0 -1 I I #
point $-1 -5.9351790714640629 -185.41581469161048 -92.707907345805239 #
straight-curve $-1 -5.9351790714640629 0 -92.707907345805239 0 1 0 I I #
point $-1 -5.9351790714640629 185.41581469161048 -92.707907345805239 #
vertex $-1 $512 $584 #
vertex $-1 $514 $585 #
straight-curve $-1 -8.9739964146679618 185.41581469161048 0 0 0 -1 I I #
point $-1 -8.9739964146679618 -185.41581469161048 -92.707907345805239 #
straight-curve $-1 -8.9739964146679618 0 -92.707907345805239 0 1 0 I I #
point $-1 -8.9739964146679618 185.41581469161048 -92.707907345805239 #
vertex $-1 $532 $586 #
vertex $-1 $534 $587 #
vertex $-1 $536 $588 #
straight-curve $-1 -8.9739964146679618 185.41581469161048 0 0 0 -1 I I #
point $-1 -8.9739964146679618 -185.41581469161048 -92.707907345805239 #
straight-curve $-1 -8.9739964146679618 0 -92.707907345805239 0 1 0 I I #
point $-1 -8.9739964146679618 185.41581469161048 -92.707907345805239 #
vertex $-1 $554 $589 #
vertex $-1 $556 $590 #
vertex $-1 $558 $591 #
point $-1 0 0 0.75 #
point $-1 0 0 0.75 #
point $-1 0 0 0.5 #
point $-1 0 0 0.5 #
point $-1 0 0 0.5 #
point $-1 0 0 0.5 #
point $-1 0 0 0.5 #
point $-1 0 0 0.5 #
End-of-ACIS-data 