500 0 8 0           
7 Unknown 11 ACIS 5.0 NT 24 Fri Mar 26 18:58:05 1999 
-1 9.9999999999999995e-007 1e-010 
body $-1 $8 $-1 $9 #
body $-1 $10 $-1 $11 #
body $-1 $12 $-1 $13 #
body $-1 $14 $-1 $15 #
body $-1 $16 $-1 $17 #
body $-1 $18 $-1 $19 #
body $-1 $20 $-1 $21 #
body $-1 $22 $-1 $23 #
lump $-1 $-1 $24 $0 #
transform $-1 1 0 0 0 1 0 0 0 1 58.867763298440508 34.664375929046898 8.673340632095826 1 rotate no_reflect no_shear #
lump $-1 $-1 $25 $1 #
transform $-1 1 0 0 0 1 0 0 0 1 58.867763298440508 34.664375929046898 8.673340632095826 1 rotate no_reflect no_shear #
lump $-1 $-1 $26 $2 #
transform $-1 1 0 0 0 1 0 0 0 1 58.867763298440508 34.664375929046898 8.673340632095826 1 rotate no_reflect no_shear #
lump $-1 $-1 $27 $3 #
transform $-1 1 0 0 0 1 0 0 0 1 58.867763298440508 34.664375929046898 8.673340632095826 1 rotate no_reflect no_shear #
lump $-1 $-1 $28 $4 #
transform $-1 1 0 0 0 1 0 0 0 1 58.867763298440508 34.664375929046898 8.673340632095826 1 rotate no_reflect no_shear #
lump $-1 $-1 $29 $5 #
transform $-1 1 0 0 0 1 0 0 0 1 58.867763298440508 34.664375929046898 8.673340632095826 1 rotate no_reflect no_shear #
lump $-1 $-1 $30 $6 #
transform $-1 1 0 0 0 1 0 0 0 1 58.867763298440508 34.664375929046898 8.673340632095826 1 rotate no_reflect no_shear #
lump $-1 $-1 $31 $7 #
transform $-1 1 0 0 0 1 0 0 0 1 58.867763298440508 34.664375929046898 8.673340632095826 1 rotate no_reflect no_shear #
shell $-1 $-1 $-1 $32 $-1 $8 #
shell $-1 $-1 $-1 $33 $-1 $10 #
shell $-1 $-1 $-1 $34 $-1 $12 #
shell $-1 $-1 $-1 $35 $-1 $14 #
shell $-1 $-1 $-1 $36 $-1 $16 #
shell $-1 $-1 $-1 $37 $-1 $18 #
shell $-1 $-1 $-1 $38 $-1 $20 #
shell $-1 $-1 $-1 $39 $-1 $22 #
face $-1 $40 $41 $24 $-1 $42 forward single #
face $-1 $43 $44 $25 $-1 $45 reversed single #
face $-1 $46 $47 $26 $-1 $48 reversed single #
face $-1 $49 $50 $27 $-1 $51 forward single #
face $-1 $52 $53 $28 $-1 $54 forward single #
face $-1 $55 $56 $29 $-1 $57 reversed single #
face $-1 $58 $59 $30 $-1 $60 forward single #
face $-1 $61 $62 $31 $-1 $63 forward single #
face $-1 $64 $65 $24 $-1 $66 reversed single #
loop $-1 $-1 $67 $32 #
plane-surface $-1 0 0 8.673340632095826 0 0 1 1 0 0 forward_v I I I I #
face $-1 $68 $69 $25 $-1 $70 reversed single #
loop $-1 $-1 $71 $33 #
plane-surface $-1 -55.976822690061702 0 4.1086334815940262 0 0 1 1 0 0 forward_v I I I I #
face $-1 $72 $73 $26 $-1 $74 reversed single #
loop $-1 $-1 $75 $34 #
plane-surface $-1 -41.210431691657448 -22.126412524664218 39.840482524454302 0 0.57357644374324357 0.81915203911291934 1 0 0 forward_v I I I I #
face $-1 $76 $77 $27 $-1 $78 forward single #
loop $-1 $79 $80 $35 #
cone-surface $-1 -46.299910430239777 25.986533353564131 0.74946871095703305 0 -0.57357644374324357 -0.81915203911291934 2.5 0 0 1 I I 0 1 2.5 forward I I I I #
face $-1 $81 $82 $28 $-1 $83 forward single #
loop $-1 $84 $85 $36 #
cone-surface $-1 -36.120952953075104 25.986533353564131 0.74946871095703305 0 -0.57357644374324357 -0.81915203911291934 2.5 0 0 1 I I 0 1 2.5 forward I I I I #
face $-1 $86 $87 $29 $-1 $88 reversed single #
loop $-1 $-1 $89 $37 #
plane-surface $-1 -29.334981301631995 -102.19470057672399 96.518440272399516 -1 0 0 0 -0.57357644374324357 0.81915203911291934 forward_v I I I I #
face $-1 $90 $91 $30 $-1 $92 forward single #
loop $-1 $93 $94 $38 #
cone-surface $-1 -46.299910430239777 -25.986533353564131 0.74946871095702949 0 0.57357644374324357 -0.81915203911291934 2.5 0 0 1 I I 0 1 2.5 forward I I I I #
face $-1 $95 $96 $31 $-1 $97 forward single #
loop $-1 $98 $99 $39 #
cone-surface $-1 -36.120952953075104 -25.986533353564131 0.74946871095702949 0 0.57357644374324357 -0.81915203911291934 2.5 0 0 1 I I 0 1 2.5 forward I I I I #
face $-1 $100 $101 $24 $-1 $102 reversed single #
loop $-1 $-1 $103 $40 #
plane-surface $-1 0 0 -8.673340632095826 0 0 1 1 0 0 forward_v I I I I #
coedge $-1 $104 $105 $106 $107 forward $41 $-1 #
face $-1 $108 $109 $25 $-1 $110 reversed single #
loop $-1 $-1 $111 $43 #
plane-surface $-1 -53.085882081682897 0 6.3909870568449261 -1 0 0 0 0 1 forward_v I I I I #
coedge $-1 $112 $113 $114 $115 forward $44 $-1 #
face $-1 $116 $117 $26 $-1 $118 forward single #
loop $-1 $-1 $119 $46 #
plane-surface $-1 -29.334981301631995 45.403912123012859 136.28377921232274 -1 0 0 0 0.57357644374324357 0.81915203911291934 forward_v I I I I #
coedge $-1 $120 $121 $122 $123 reversed $47 $-1 #
face $-1 $-1 $124 $27 $-1 $125 forward single #
loop $-1 $126 $127 $49 #
cone-surface $-1 -46.299910430239777 22.731469093005636 -3.8992447352905337 0 -0.57357644374324357 -0.81915203911291934 1.25 0 0 1 I I -0.70710678118654746 0.70710678118654746 1.25 forward I I I I #
loop $-1 $-1 $128 $35 #
coedge $-1 $80 $80 $129 $130 reversed $50 $-1 #
face $-1 $-1 $131 $28 $-1 $132 forward single #
loop $-1 $133 $134 $52 #
cone-surface $-1 -36.120952953075104 22.731469093005636 -3.8992447352905337 0 -0.57357644374324357 -0.81915203911291934 1.25 0 0 1 I I -0.70710678118654746 0.70710678118654746 1.25 forward I I I I #
loop $-1 $-1 $135 $36 #
coedge $-1 $85 $85 $136 $137 reversed $53 $-1 #
face $-1 $138 $139 $29 $-1 $140 forward single #
loop $-1 $-1 $141 $55 #
plane-surface $-1 -41.210431691657448 -34.664375929046912 0.075143584531076613 0 -0.57357644374324357 0.81915203911291934 1 0 0 forward_v I I I I #
coedge $-1 $142 $143 $144 $145 reversed $56 $-1 #
face $-1 $-1 $146 $30 $-1 $147 forward single #
loop $-1 $148 $149 $58 #
cone-surface $-1 -46.299910430239777 -22.731469093005636 -3.8992447352905373 0 0.57357644374324357 -0.81915203911291934 1.25 0 0 1 I I -0.70710678118654746 0.70710678118654746 1.25 forward I I I I #
loop $-1 $-1 $150 $38 #
coedge $-1 $94 $94 $151 $152 reversed $59 $-1 #
face $-1 $-1 $153 $31 $-1 $154 forward single #
loop $-1 $155 $156 $61 #
cone-surface $-1 -36.120952953075104 -22.731469093005636 -3.8992447352905373 0 0.57357644374324357 -0.81915203911291934 1.25 0 0 1 I I -0.70710678118654746 0.70710678118654746 1.25 forward I I I I #
loop $-1 $-1 $157 $39 #
coedge $-1 $99 $99 $158 $159 reversed $62 $-1 #
face $-1 $160 $161 $24 $-1 $162 reversed single #
loop $-1 $-1 $163 $64 #
plane-surface $-1 0 -34.664375929046898 0 0 1 0 0 0 1 forward_v I I I I #
coedge $-1 $164 $165 $166 $167 forward $65 $-1 #
coedge $-1 $168 $67 $169 $170 forward $41 $-1 #
coedge $-1 $67 $168 $171 $172 forward $41 $-1 #
coedge $-1 $173 $174 $67 $107 reversed $175 $-1 #
edge $-1 $176 -34.664375929046898 $177 34.664375929046898 $106 $178 forward 7 unknown #
face $-1 $179 $180 $25 $-1 $181 reversed single #
loop $-1 $-1 $182 $68 #
plane-surface $-1 0 34.664375929046898 0 0 -1 0 0 0 -1 forward_v I I I I #
coedge $-1 $114 $183 $184 $185 reversed $69 $-1 #
coedge $-1 $186 $71 $187 $188 reversed $44 $-1 #
coedge $-1 $71 $186 $189 $190 reversed $44 $-1 #
coedge $-1 $191 $111 $71 $115 reversed $69 $-1 #
edge $-1 $192 -34.664375929046898 $193 34.664375929046898 $114 $194 forward 7 unknown #
face $-1 $195 $196 $26 $-1 $197 reversed single #
loop $-1 $-1 $122 $72 #
plane-surface $-1 0 0 8.673340632095826 0 0 1 1 0 0 forward_v I I I I #
coedge $-1 $198 $199 $200 $201 reversed $73 $-1 #
coedge $-1 $202 $75 $203 $204 reversed $47 $-1 #
coedge $-1 $75 $202 $198 $205 forward $47 $-1 #
coedge $-1 $200 $206 $75 $123 forward $117 $-1 #
edge $-1 $207 -32.480666235854173 $208 -8.7297654558032711 $122 $209 forward 7 unknown #
loop $-1 $-1 $129 $76 #
plane-surface $-1 -41.210431691657448 -22.126412524664218 39.840482524454302 0 0.57357644374324357 0.81915203911291934 1 0 0 forward_v I I I I #
loop $-1 $-1 $210 $49 #
coedge $-1 $127 $127 $128 $211 reversed $77 $-1 #
coedge $-1 $128 $128 $127 $211 forward $79 $-1 #
coedge $-1 $129 $129 $80 $130 forward $124 $-1 #
edge $-1 $212 4.6611724026997726e-016 $212 6.2831853071796013 $129 $213 forward 7 unknown #
loop $-1 $-1 $136 $81 #
plane-surface $-1 -41.210431691657448 -22.126412524664218 39.840482524454302 0 0.57357644374324357 0.81915203911291934 1 0 0 forward_v I I I I #
loop $-1 $-1 $214 $52 #
coedge $-1 $134 $134 $135 $215 reversed $82 $-1 #
coedge $-1 $135 $135 $134 $215 forward $84 $-1 #
coedge $-1 $136 $136 $85 $137 forward $131 $-1 #
edge $-1 $216 4.6611724026997726e-016 $216 6.2831853071796013 $136 $217 forward 7 unknown #
face $-1 $218 $219 $29 $-1 $220 forward single #
loop $-1 $-1 $221 $86 #
plane-surface $-1 -53.085882081682897 0 6.3909870568449261 -1 0 0 0 0 1 forward_v I I I I #
coedge $-1 $222 $223 $224 $225 reversed $87 $-1 #
coedge $-1 $143 $89 $226 $227 reversed $56 $-1 #
coedge $-1 $89 $142 $222 $228 reversed $56 $-1 #
coedge $-1 $224 $229 $89 $145 forward $219 $-1 #
edge $-1 $230 16.432974359315097 $231 28.712472098521729 $144 $232 forward 7 unknown #
loop $-1 $-1 $151 $90 #
plane-surface $-1 -41.210431691657448 -34.664375929046912 0.075143584531076613 0 -0.57357644374324357 0.81915203911291934 1 0 0 forward_v I I I I #
loop $-1 $-1 $233 $58 #
coedge $-1 $149 $149 $150 $234 reversed $91 $-1 #
coedge $-1 $150 $150 $149 $234 forward $93 $-1 #
coedge $-1 $151 $151 $94 $152 forward $146 $-1 #
edge $-1 $235 -3.2090861728264434e-016 $235 6.2831853071796004 $151 $236 forward 7 unknown #
loop $-1 $-1 $158 $95 #
plane-surface $-1 -41.210431691657448 -34.664375929046912 0.075143584531076613 0 -0.57357644374324357 0.81915203911291934 1 0 0 forward_v I I I I #
loop $-1 $-1 $237 $61 #
coedge $-1 $156 $156 $157 $238 reversed $96 $-1 #
coedge $-1 $157 $157 $156 $238 forward $98 $-1 #
coedge $-1 $158 $158 $99 $159 forward $153 $-1 #
edge $-1 $239 -3.2090861728264434e-016 $239 6.2831853071796004 $158 $240 forward 7 unknown #
face $-1 $241 $242 $24 $-1 $243 reversed single #
loop $-1 $-1 $244 $100 #
plane-surface $-1 -58.867763298440508 0 0 1 0 0 0 0 -1 forward_v I I I I #
coedge $-1 $245 $171 $246 $247 forward $101 $-1 #
coedge $-1 $248 $103 $245 $249 forward $65 $-1 #
coedge $-1 $103 $248 $250 $251 forward $65 $-1 #
coedge $-1 $174 $173 $103 $167 reversed $175 $-1 #
edge $-1 $252 -34.664375929046898 $253 34.664375929046898 $166 $254 forward 7 unknown #
coedge $-1 $105 $104 $255 $256 forward $41 $-1 #
coedge $-1 $257 $258 $104 $170 reversed $242 $-1 #
edge $-1 $177 -58.867763298440508 $259 58.867763298440508 $169 $260 forward 7 unknown #
coedge $-1 $163 $261 $105 $172 reversed $101 $-1 #
edge $-1 $262 -58.867763298440508 $176 58.867763298440508 $171 $263 forward 7 unknown #
coedge $-1 $166 $106 $261 $264 forward $175 $-1 #
coedge $-1 $106 $166 $257 $265 reversed $175 $-1 #
loop $-1 $-1 $173 $241 #
vertex $-1 $107 $266 #
vertex $-1 $107 $267 #
straight-curve $-1 58.867763298440508 0 8.673340632095826 0 1 0 I I #
face $-1 $268 $269 $25 $-1 $270 forward single #
loop $-1 $-1 $271 $108 #
plane-surface $-1 -58.867763298440508 0 0 1 0 0 0 0 -1 forward_v I I I I #
coedge $-1 $189 $272 $191 $273 forward $109 $-1 #
coedge $-1 $111 $191 $274 $275 reversed $69 $-1 #
coedge $-1 $276 $187 $111 $185 forward $277 $-1 #
edge $-1 $193 0.91313995317156316 $278 5.4778471036733629 $184 $279 forward 7 unknown #
coedge $-1 $113 $112 $271 $280 reversed $44 $-1 #
coedge $-1 $184 $281 $112 $188 forward $277 $-1 #
edge $-1 $282 -30.879351953409657 $193 -25.097470736652046 $187 $283 forward 7 unknown #
coedge $-1 $284 $182 $113 $190 forward $109 $-1 #
edge $-1 $192 25.097470736652046 $285 30.879351953409657 $189 $286 forward 7 unknown #
coedge $-1 $183 $114 $182 $273 reversed $69 $-1 #
vertex $-1 $190 $287 #
vertex $-1 $188 $288 #
straight-curve $-1 -53.085882081682897 0 4.1086334815940262 0 -1 0 I I #
face $-1 $-1 $289 $26 $-1 $290 forward single #
loop $-1 $-1 $291 $116 #
plane-surface $-1 0 34.664375929046898 0 0 -1 0 0 0 -1 forward_v I I I I #
coedge $-1 $199 $119 $121 $205 reversed $73 $-1 #
coedge $-1 $119 $198 $291 $292 reversed $73 $-1 #
coedge $-1 $293 $122 $119 $201 forward $117 $-1 #
edge $-1 $208 -0.31707787166617152 $294 11.962419867540468 $200 $295 forward 7 unknown #
coedge $-1 $121 $120 $296 $297 reversed $47 $-1 #
coedge $-1 $298 $299 $120 $204 forward $289 $-1 #
edge $-1 $300 -50.673382561519048 $207 -35.682883664019606 $203 $301 forward 7 unknown #
edge $-1 $302 -69.328751858093767 $208 -54.338252960594332 $198 $303 forward 7 unknown #
coedge $-1 $122 $293 $298 $304 forward $117 $-1 #
vertex $-1 $204 $305 #
vertex $-1 $123 $306 #
straight-curve $-1 -20.605215845828724 22.384878189840261 8.6733406320958295 1 0 0 I I #
coedge $-1 $210 $210 $-1 $307 reversed $126 $-1 #
edge $-1 $308 0 $308 6.2831853071796004 $127 $309 forward 7 unknown #
vertex $-1 $130 $310 #
ellipse-curve $-1 -46.299910430239777 28.524627059443574 4.3742421083134584 0 0.57357644374324357 0.81915203911291934 2.5 0 0 1 I I #
coedge $-1 $214 $214 $-1 $311 reversed $133 $-1 #
edge $-1 $312 0 $312 6.2831853071796004 $134 $313 forward 7 unknown #
vertex $-1 $137 $314 #
ellipse-curve $-1 -36.120952953075104 28.524627059443574 4.3742421083134584 0 0.57357644374324357 0.81915203911291934 2.5 0 0 1 I I #
face $-1 $-1 $315 $29 $-1 $316 reversed single #
loop $-1 $-1 $224 $138 #
plane-surface $-1 0 0 8.673340632095826 0 0 1 1 0 0 forward_v I I I I #
coedge $-1 $317 $318 $223 $319 reversed $139 $-1 #
coedge $-1 $320 $141 $143 $228 forward $87 $-1 #
coedge $-1 $141 $320 $221 $319 forward $87 $-1 #
coedge $-1 $321 $144 $141 $225 forward $219 $-1 #
edge $-1 $231 8.7297654558032711 $322 32.480666235854173 $224 $323 forward 7 unknown #
coedge $-1 $324 $325 $142 $227 forward $315 $-1 #
edge $-1 $326 -48.184076551668674 $230 -39.585879504103929 $226 $327 forward 7 unknown #
edge $-1 $231 -14.990498897499453 $326 -1.7348150668998961e-014 $143 $328 forward 7 unknown #
coedge $-1 $144 $321 $324 $329 forward $219 $-1 #
vertex $-1 $227 $330 #
vertex $-1 $145 $331 #
straight-curve $-1 -29.334981301631995 -51.097350288361994 8.6733406320958295 0 1 0 I I #
coedge $-1 $233 $233 $-1 $332 reversed $148 $-1 #
edge $-1 $333 0 $333 6.2831853071796004 $149 $334 forward 7 unknown #
vertex $-1 $152 $335 #
ellipse-curve $-1 -46.299910430239777 -28.524627059443578 4.3742421083134593 0 -0.57357644374324357 0.81915203911291934 2.5 0 0 1 I I #
coedge $-1 $237 $237 $-1 $336 reversed $155 $-1 #
edge $-1 $337 0 $337 6.2831853071796004 $156 $338 forward 7 unknown #
vertex $-1 $159 $339 #
ellipse-curve $-1 -36.120952953075104 -28.524627059443578 4.3742421083134593 0 -0.57357644374324357 0.81915203911291934 2.5 0 0 1 I I #
face $-1 $-1 $175 $24 $-1 $340 reversed single #
loop $-1 $-1 $257 $160 #
plane-surface $-1 0 34.664375929046898 0 0 -1 0 0 0 -1 forward_v I I I I #
coedge $-1 $341 $255 $258 $342 forward $161 $-1 #
coedge $-1 $261 $163 $164 $249 reversed $101 $-1 #
coedge $-1 $255 $341 $163 $247 reversed $161 $-1 #
edge $-1 $262 -8.673340632095826 $343 8.673340632095826 $246 $344 forward 7 unknown #
coedge $-1 $165 $164 $341 $345 forward $65 $-1 #
edge $-1 $253 -58.867763298440508 $343 58.867763298440508 $245 $346 forward 7 unknown #
coedge $-1 $258 $257 $165 $251 reversed $242 $-1 #
edge $-1 $347 -58.867763298440508 $252 58.867763298440508 $250 $348 forward 7 unknown #
vertex $-1 $167 $349 #
vertex $-1 $264 $350 #
straight-curve $-1 58.867763298440508 0 -8.673340632095826 0 -1 0 I I #
coedge $-1 $244 $246 $168 $256 reversed $161 $-1 #
edge $-1 $259 -34.664375929046898 $262 34.664375929046898 $255 $351 forward 7 unknown #
coedge $-1 $250 $169 $174 $265 forward $242 $-1 #
coedge $-1 $169 $250 $244 $342 reversed $242 $-1 #
vertex $-1 $170 $352 #
straight-curve $-1 0 34.664375929046898 8.673340632095826 -1 0 0 I I #
coedge $-1 $171 $245 $173 $264 reversed $101 $-1 #
vertex $-1 $256 $353 #
straight-curve $-1 0 -34.664375929046898 8.673340632095826 1 0 0 I I #
edge $-1 $176 -8.673340632095826 $253 8.673340632095826 $173 $354 forward 7 unknown #
edge $-1 $177 -8.673340632095826 $252 8.673340632095826 $174 $355 forward 7 unknown #
point $-1 58.867763298440508 -34.664375929046898 8.673340632095826 #
point $-1 58.867763298440508 34.664375929046898 8.673340632095826 #
face $-1 $-1 $277 $25 $-1 $356 reversed single #
loop $-1 $-1 $274 $179 #
plane-surface $-1 0 0 8.673340632095826 0 0 1 1 0 0 forward_v I I I I #
coedge $-1 $357 $358 $186 $280 forward $180 $-1 #
coedge $-1 $182 $284 $359 $360 reversed $109 $-1 #
edge $-1 $361 -5.4778471036733629 $192 -0.91313995317156316 $182 $362 forward 7 unknown #
coedge $-1 $359 $363 $183 $275 forward $269 $-1 #
edge $-1 $278 -34.664375929046898 $361 34.664375929046898 $274 $364 forward 7 unknown #
coedge $-1 $281 $184 $363 $365 reversed $277 $-1 #
loop $-1 $-1 $184 $268 #
vertex $-1 $185 $366 #
straight-curve $-1 -53.085882081682897 -34.664375929046898 3.195493528422463 0 0 1 I I #
edge $-1 $285 -34.664375929046898 $282 34.664375929046898 $271 $367 forward 7 unknown #
coedge $-1 $187 $276 $357 $368 forward $277 $-1 #
vertex $-1 $280 $369 #
straight-curve $-1 -27.988411345030851 -34.664375929046898 4.1086334815940262 1 0 0 I I #
coedge $-1 $272 $189 $358 $370 reversed $109 $-1 #
vertex $-1 $280 $371 #
straight-curve $-1 -27.988411345030851 34.664375929046898 4.1086334815940262 -1 0 0 I I #
point $-1 -53.085882081682897 34.664375929046898 4.1086334815940262 #
point $-1 -53.085882081682897 -34.664375929046898 4.1086334815940262 #
loop $-1 $-1 $203 $195 #
plane-surface $-1 -53.085882081682897 0 6.3909870568449261 -1 0 0 0 0 1 forward_v I I I I #
coedge $-1 $296 $372 $199 $292 forward $196 $-1 #
edge $-1 $294 59.468548974065541 $302 68.06674602163028 $291 $373 forward 7 unknown #
coedge $-1 $206 $200 $372 $374 forward $117 $-1 #
vertex $-1 $374 $375 #
straight-curve $-1 -29.334981301631995 22.701956061506429 8.6733406320958295 0 1 0 I I #
coedge $-1 $376 $291 $202 $297 forward $196 $-1 #
edge $-1 $302 8.7297654558032711 $300 32.480666235854173 $296 $377 forward 7 unknown #
coedge $-1 $299 $203 $206 $304 reversed $289 $-1 #
coedge $-1 $203 $298 $376 $378 reversed $289 $-1 #
vertex $-1 $378 $379 #
straight-curve $-1 -53.085882081682897 -6.8448287249704798 29.140202146608072 0 -0.81915203911291934 0.57357644374324357 I I #
vertex $-1 $297 $380 #
straight-curve $-1 -29.334981301631995 -22.126412524664218 39.840482524454302 0 -0.81915203911291934 0.57357644374324357 I I #
edge $-1 $381 -34.664375929046898 $207 -22.384878189840258 $206 $382 forward 7 unknown #
point $-1 -53.085882081682897 22.384878189840258 8.673340632095826 #
point $-1 -29.334981301631995 22.384878189840258 8.673340632095826 #
edge $-1 $383 1 $383 0 $210 $-1 forward 7 unknown #
vertex $-1 $211 $384 #
ellipse-curve $-1 -46.299910430239777 23.44843964768469 -2.8753046863993843 0 0.57357644374324357 0.81915203911291934 2.5 0 0 1 I I #
point $-1 -43.799910430239777 28.524627059443571 4.3742421083134513 #
edge $-1 $385 1 $385 0 $214 $-1 forward 7 unknown #
vertex $-1 $215 $386 #
ellipse-curve $-1 -36.120952953075104 23.44843964768469 -2.8753046863993843 0 0.57357644374324357 0.81915203911291934 2.5 0 0 1 I I #
point $-1 -33.620952953075104 28.524627059443571 4.3742421083134513 #
loop $-1 $-1 $226 $218 #
plane-surface $-1 0 -34.664375929046898 0 0 1 0 0 0 1 forward_v I I I I #
coedge $-1 $318 $221 $387 $388 reversed $139 $-1 #
coedge $-1 $221 $317 $321 $389 reversed $139 $-1 #
edge $-1 $390 1.7348150668998961e-014 $322 14.990498897499453 $221 $391 forward 7 unknown #
coedge $-1 $223 $222 $325 $392 reversed $87 $-1 #
coedge $-1 $229 $224 $318 $389 forward $219 $-1 #
vertex $-1 $389 $393 #
straight-curve $-1 -20.605215845828724 -22.384878189840265 8.673340632095826 -1 0 0 I I #
coedge $-1 $387 $226 $229 $329 reversed $315 $-1 #
coedge $-1 $226 $387 $320 $392 forward $315 $-1 #
vertex $-1 $227 $394 #
straight-curve $-1 -29.334981301631995 -34.664375929046898 48.259220136199758 0 0 1 I I #
straight-curve $-1 -29.334981301631995 -34.664375929046912 0.075143584531076613 0 -0.81915203911291934 -0.57357644374324357 I I #
edge $-1 $395 -53.085882081682897 $230 -29.334981301631995 $324 $396 forward 7 unknown #
point $-1 -29.334981301631995 -34.664375929046898 8.673340632095826 #
point $-1 -29.334981301631995 -22.384878189840265 8.673340632095826 #
edge $-1 $397 1 $397 0 $233 $-1 forward 7 unknown #
vertex $-1 $234 $398 #
ellipse-curve $-1 -46.299910430239777 -23.44843964768469 -2.8753046863993879 0 -0.57357644374324357 0.81915203911291934 2.5 0 0 1 I I #
point $-1 -43.799910430239777 -28.524627059443571 4.3742421083134477 #
edge $-1 $399 1 $399 0 $237 $-1 forward 7 unknown #
vertex $-1 $238 $400 #
ellipse-curve $-1 -36.120952953075104 -23.44843964768469 -2.8753046863993879 0 -0.57357644374324357 0.81915203911291934 2.5 0 0 1 I I #
point $-1 -33.620952953075104 -28.524627059443571 4.3742421083134477 #
plane-surface $-1 58.867763298440508 0 0 -1 0 0 0 0 1 forward_v I I I I #
coedge $-1 $246 $244 $248 $345 reversed $161 $-1 #
edge $-1 $259 -8.673340632095826 $347 8.673340632095826 $258 $401 forward 7 unknown #
vertex $-1 $345 $402 #
straight-curve $-1 -58.867763298440508 -34.664375929046898 0 0 0 -1 I I #
edge $-1 $343 -34.664375929046898 $347 34.664375929046898 $341 $403 forward 7 unknown #
straight-curve $-1 0 -34.664375929046898 -8.673340632095826 -1 0 0 I I #
vertex $-1 $251 $404 #
straight-curve $-1 0 34.664375929046898 -8.673340632095826 1 0 0 I I #
point $-1 58.867763298440508 34.664375929046898 -8.673340632095826 #
point $-1 58.867763298440508 -34.664375929046898 -8.673340632095826 #
straight-curve $-1 -58.867763298440508 0 8.673340632095826 0 -1 0 I I #
point $-1 -58.867763298440508 34.664375929046898 8.673340632095826 #
point $-1 -58.867763298440508 -34.664375929046898 8.673340632095826 #
straight-curve $-1 58.867763298440508 -34.664375929046898 0 0 0 -1 I I #
straight-curve $-1 58.867763298440508 34.664375929046898 0 0 0 -1 I I #
plane-surface $-1 0 -34.664375929046898 0 0 1 0 0 0 1 forward_v I I I I #
coedge $-1 $405 $271 $281 $368 reversed $180 $-1 #
coedge $-1 $271 $405 $284 $370 forward $180 $-1 #
coedge $-1 $406 $274 $272 $360 forward $269 $-1 #
edge $-1 $361 53.085882081682897 $407 58.867763298440508 $272 $408 forward 7 unknown #
vertex $-1 $360 $409 #
straight-curve $-1 -53.085882081682897 34.664375929046898 3.195493528422463 0 0 -1 I I #
coedge $-1 $274 $406 $276 $365 forward $269 $-1 #
straight-curve $-1 -53.085882081682897 0 8.673340632095826 0 1 0 I I #
edge $-1 $410 -58.867763298440508 $278 -53.085882081682897 $276 $411 forward 7 unknown #
point $-1 -53.085882081682897 -34.664375929046898 8.673340632095826 #
straight-curve $-1 -58.867763298440508 0 4.1086334815940262 0 -1 0 I I #
edge $-1 $410 -8.673340632095826 $282 -4.1086334815940262 $357 $412 forward 7 unknown #
point $-1 -58.867763298440508 -34.664375929046898 4.1086334815940262 #
edge $-1 $407 -8.673340632095826 $285 -4.1086334815940262 $284 $413 forward 7 unknown #
point $-1 -58.867763298440508 34.664375929046898 4.1086334815940262 #
coedge $-1 $291 $376 $293 $374 reversed $196 $-1 #
straight-curve $-1 -29.334981301631995 34.664375929046898 68.141889606161371 0 0 -1 I I #
edge $-1 $294 29.334981301631995 $381 53.085882081682897 $372 $414 forward 7 unknown #
point $-1 -29.334981301631995 34.664375929046898 8.673340632095826 #
coedge $-1 $372 $296 $299 $378 forward $196 $-1 #
straight-curve $-1 -20.605215845828724 34.664375929046898 0.075143584531080165 -1 0 0 I I #
edge $-1 $300 -68.06674602163028 $381 -59.468548974065541 $376 $415 forward 7 unknown #
point $-1 -53.085882081682897 34.664375929046898 0.075143584531083718 #
point $-1 -29.334981301631995 34.664375929046898 0.075143584531083718 #
vertex $-1 $304 $416 #
straight-curve $-1 -53.085882081682897 0 8.673340632095826 0 -1 0 I I #
vertex $-1 $307 $417 #
point $-1 -43.799910430239777 23.44843964768469 -2.8753046863993843 #
vertex $-1 $311 $418 #
point $-1 -33.620952953075104 23.44843964768469 -2.8753046863993843 #
coedge $-1 $325 $324 $317 $388 forward $315 $-1 #
edge $-1 $395 39.585879504103929 $390 48.184076551668674 $387 $419 forward 7 unknown #
edge $-1 $322 22.384878189840265 $395 34.664375929046898 $321 $420 forward 7 unknown #
vertex $-1 $388 $421 #
straight-curve $-1 -53.085882081682897 -34.664375929046912 0.075143584531076613 0 0.81915203911291934 0.57357644374324357 I I #
edge $-1 $390 -32.480666235854173 $326 -8.7297654558032711 $325 $422 forward 7 unknown #
point $-1 -53.085882081682897 -22.384878189840265 8.673340632095826 #
point $-1 -29.334981301631995 -34.664375929046898 0.075143584531086563 #
vertex $-1 $329 $423 #
straight-curve $-1 0 -34.664375929046898 8.673340632095826 1 0 0 I I #
vertex $-1 $332 $424 #
point $-1 -43.799910430239777 -23.44843964768469 -2.8753046863993879 #
vertex $-1 $336 $425 #
point $-1 -33.620952953075104 -23.44843964768469 -2.8753046863993879 #
straight-curve $-1 -58.867763298440508 34.664375929046898 0 0 0 -1 I I #
point $-1 -58.867763298440508 -34.664375929046898 -8.673340632095826 #
straight-curve $-1 -58.867763298440508 0 -8.673340632095826 0 1 0 I I #
point $-1 -58.867763298440508 34.664375929046898 -8.673340632095826 #
coedge $-1 $358 $357 $406 $426 reversed $180 $-1 #
coedge $-1 $363 $359 $405 $426 forward $269 $-1 #
vertex $-1 $360 $427 #
straight-curve $-1 0 34.664375929046898 8.673340632095826 -1 0 0 I I #
point $-1 -53.085882081682897 34.664375929046898 8.673340632095826 #
vertex $-1 $426 $428 #
straight-curve $-1 0 -34.664375929046898 8.673340632095826 1 0 0 I I #
straight-curve $-1 -58.867763298440508 -34.664375929046898 0 0 0 -1 I I #
straight-curve $-1 -58.867763298440508 34.664375929046898 0 0 0 -1 I I #
straight-curve $-1 0 34.664375929046898 8.673340632095826 -1 0 0 I I #
straight-curve $-1 -53.085882081682897 34.664375929046898 68.141889606161371 0 0 1 I I #
point $-1 -53.085882081682897 34.664375929046898 8.673340632095826 #
point $-1 -46.299910430239777 22.014498538326581 -4.9231847841816831 #
point $-1 -36.120952953075104 22.014498538326581 -4.9231847841816831 #
straight-curve $-1 -53.085882081682897 -34.664375929046898 48.259220136199758 0 0 -1 I I #
straight-curve $-1 -53.085882081682897 0 8.673340632095826 0 -1 0 I I #
point $-1 -53.085882081682897 -34.664375929046898 0.075143584531086563 #
straight-curve $-1 -20.605215845828724 -34.664375929046898 0.075143584531085758 1 0 0 I I #
point $-1 -53.085882081682897 -34.664375929046898 8.673340632095826 #
point $-1 -46.299910430239777 -22.014498538326581 -4.9231847841816867 #
point $-1 -36.120952953075104 -22.014498538326581 -4.9231847841816867 #
edge $-1 $407 -34.664375929046898 $410 34.664375929046898 $405 $429 forward 7 unknown #
point $-1 -58.867763298440508 34.664375929046898 8.673340632095826 #
point $-1 -58.867763298440508 -34.664375929046898 8.673340632095826 #
straight-curve $-1 -58.867763298440508 0 8.673340632095826 0 -1 0 I I #
End-of-ACIS-data 