500 0 16 0           
7 Unknown 11 ACIS 5.0 NT 24 Thu Mar 25 15:43:32 1999 
-1 9.9999999999999995e-007 1e-010 
body $-1 $16 $-1 $17 #
body $-1 $18 $-1 $19 #
body $-1 $20 $-1 $21 #
body $-1 $22 $-1 $23 #
body $-1 $24 $-1 $25 #
body $-1 $26 $-1 $27 #
body $-1 $28 $-1 $29 #
body $-1 $30 $-1 $31 #
body $-1 $32 $-1 $33 #
body $-1 $34 $-1 $35 #
body $-1 $36 $-1 $37 #
body $-1 $38 $-1 $39 #
body $-1 $40 $-1 $41 #
body $-1 $42 $-1 $43 #
body $-1 $44 $-1 $45 #
body $-1 $46 $-1 $47 #
lump $-1 $-1 $48 $0 #
transform $-1 1 0 0 0 1 0 0 0 1 69.330729087191386 40.299927718716724 14.716908324905067 1 rotate no_reflect no_shear #
lump $-1 $-1 $49 $1 #
transform $-1 1 0 0 0 1 0 0 0 1 69.330729087191386 40.299927718716724 14.716908324905067 1 rotate no_reflect no_shear #
lump $-1 $-1 $50 $2 #
transform $-1 1 0 0 0 1 0 0 0 1 69.330729087191386 40.299927718716724 14.716908324905067 1 rotate no_reflect no_shear #
lump $-1 $-1 $51 $3 #
transform $-1 1 0 0 0 1 0 0 0 1 69.330729087191386 40.299927718716724 14.716908324905067 1 rotate no_reflect no_shear #
lump $-1 $-1 $52 $4 #
transform $-1 1 0 0 0 1 0 0 0 1 69.330729087191386 40.299927718716724 14.716908324905067 1 rotate no_reflect no_shear #
lump $-1 $-1 $53 $5 #
transform $-1 1 0 0 0 1 0 0 0 1 69.330729087191386 40.299927718716724 14.716908324905067 1 rotate no_reflect no_shear #
lump $-1 $-1 $54 $6 #
transform $-1 1 0 0 0 1 0 0 0 1 69.330729087191386 40.299927718716724 14.716908324905067 1 rotate no_reflect no_shear #
lump $-1 $-1 $55 $7 #
transform $-1 1 0 0 0 1 0 0 0 1 69.330729087191386 40.299927718716724 14.716908324905067 1 rotate no_reflect no_shear #
lump $-1 $-1 $56 $8 #
transform $-1 1 0 0 0 1 0 0 0 1 69.330729087191386 40.299927718716724 14.716908324905067 1 rotate no_reflect no_shear #
lump $-1 $-1 $57 $9 #
transform $-1 1 0 0 0 1 0 0 0 1 69.330729087191386 40.299927718716724 14.716908324905067 1 rotate no_reflect no_shear #
lump $-1 $-1 $58 $10 #
transform $-1 1 0 0 0 1 0 0 0 1 69.330729087191386 40.299927718716724 14.716908324905067 1 rotate no_reflect no_shear #
lump $-1 $-1 $59 $11 #
transform $-1 1 0 0 0 1 0 0 0 1 69.330729087191386 40.299927718716724 14.716908324905067 1 rotate no_reflect no_shear #
lump $-1 $-1 $60 $12 #
transform $-1 1 0 0 0 1 0 0 0 1 69.330729087191386 40.299927718716724 14.716908324905067 1 rotate no_reflect no_shear #
lump $-1 $-1 $61 $13 #
transform $-1 1 0 0 0 1 0 0 0 1 69.330729087191386 40.299927718716724 14.716908324905067 1 rotate no_reflect no_shear #
lump $-1 $-1 $62 $14 #
transform $-1 1 0 0 0 1 0 0 0 1 69.330729087191386 40.299927718716724 14.716908324905067 1 rotate no_reflect no_shear #
lump $-1 $-1 $63 $15 #
transform $-1 1 0 0 0 1 0 0 0 1 69.330729087191386 40.299927718716724 14.716908324905067 1 rotate no_reflect no_shear #
shell $-1 $-1 $-1 $64 $-1 $16 #
shell $-1 $-1 $-1 $65 $-1 $18 #
shell $-1 $-1 $-1 $66 $-1 $20 #
shell $-1 $-1 $-1 $67 $-1 $22 #
shell $-1 $-1 $-1 $68 $-1 $24 #
shell $-1 $-1 $-1 $69 $-1 $26 #
shell $-1 $-1 $-1 $70 $-1 $28 #
shell $-1 $-1 $-1 $71 $-1 $30 #
shell $-1 $-1 $-1 $72 $-1 $32 #
shell $-1 $-1 $-1 $73 $-1 $34 #
shell $-1 $-1 $-1 $74 $-1 $36 #
shell $-1 $-1 $-1 $75 $-1 $38 #
shell $-1 $-1 $-1 $76 $-1 $40 #
shell $-1 $-1 $-1 $77 $-1 $42 #
shell $-1 $-1 $-1 $78 $-1 $44 #
shell $-1 $-1 $-1 $79 $-1 $46 #
face $-1 $80 $81 $48 $-1 $82 forward single #
face $-1 $83 $84 $49 $-1 $85 reversed single #
face $-1 $86 $87 $50 $-1 $88 reversed single #
face $-1 $89 $90 $51 $-1 $91 forward single #
face $-1 $92 $93 $52 $-1 $94 reversed single #
face $-1 $95 $96 $53 $-1 $97 forward single #
face $-1 $98 $99 $54 $-1 $100 forward single #
face $-1 $101 $102 $55 $-1 $103 reversed single #
face $-1 $104 $105 $56 $-1 $106 forward single #
face $-1 $107 $108 $57 $-1 $109 forward single #
face $-1 $110 $111 $58 $-1 $112 reversed single #
face $-1 $113 $114 $59 $-1 $115 forward single #
face $-1 $116 $117 $60 $-1 $118 forward single #
face $-1 $119 $120 $61 $-1 $121 reversed single #
face $-1 $122 $123 $62 $-1 $124 forward single #
face $-1 $125 $126 $63 $-1 $127 forward single #
face $-1 $128 $129 $48 $-1 $130 reversed single #
loop $-1 $-1 $131 $64 #
plane-surface $-1 0 0 14.716908324905067 0 0 1 1 0 0 forward_v I I I I #
face $-1 $132 $133 $49 $-1 $134 reversed single #
loop $-1 $-1 $135 $65 #
plane-surface $-1 0 -32.798441034972974 10.236396405364433 0 0 1 1 0 0 forward_v I I I I #
face $-1 $136 $137 $50 $-1 $138 reversed single #
loop $-1 $-1 $139 $66 #
plane-surface $-1 -158.46059743824873 27.848591697401282 112.38234398712009 0 1 0 -0.64278761758704617 0 0.76604443648966558 forward_v I I I I #
face $-1 $140 $141 $51 $-1 $142 forward single #
loop $-1 $143 $144 $67 #
cone-surface $-1 -62.424083082459603 34.074259708058996 8.2837059898664727 0.64278761758704617 0 -0.76604443648966558 1.5320888729793312 0 1.2855752351740923 1 I I 0 1 2 forward I I I I #
face $-1 $145 $146 $52 $-1 $147 reversed single #
loop $-1 $-1 $148 $68 #
plane-surface $-1 31.913675478853918 -12.026767358579475 194.13250578708366 0 -1 0 -0.55919291073839883 0 -0.82903756765294845 forward_v I I I I #
face $-1 $149 $150 $53 $-1 $151 forward single #
loop $-1 $152 $153 $69 #
cone-surface $-1 58.741699565706867 -20.056822222054748 6.8519418782548644 -0.55919291073839883 0 -0.82903756765294845 0.82903756765294845 0 -0.55919291073839883 1 I I 0 1 1 forward I I I I #
face $-1 $154 $155 $54 $-1 $156 forward single #
loop $-1 $157 $158 $70 #
cone-surface $-1 58.741699565706867 -15.238789303969586 6.8519418782548644 -0.55919291073839883 0 -0.82903756765294845 0.82903756765294845 0 -0.55919291073839883 1 I I 0 1 1 forward I I I I #
face $-1 $159 $160 $55 $-1 $161 reversed single #
loop $-1 $-1 $162 $71 #
plane-surface $-1 31.913675478853918 4.7394276059244707 194.13250578708366 0 -1 0 -0.55919291073839883 0 -0.82903756765294845 forward_v I I I I #
face $-1 $163 $164 $56 $-1 $165 forward single #
loop $-1 $166 $167 $72 #
cone-surface $-1 58.741699565706867 -3.2906272575508027 6.8519418782548644 -0.55919291073839883 0 -0.82903756765294845 0.82903756765294845 0 -0.55919291073839883 1 I I 0 1 1 forward I I I I #
face $-1 $168 $169 $57 $-1 $170 forward single #
loop $-1 $171 $172 $73 #
cone-surface $-1 58.741699565706867 1.5274056605343631 6.8519418782548644 -0.55919291073839883 0 -0.82903756765294845 0.82903756765294845 0 -0.55919291073839883 1 I I 0 1 1 forward I I I I #
face $-1 $173 $174 $58 $-1 $175 reversed single #
loop $-1 $-1 $176 $74 #
plane-surface $-1 31.913675478853918 21.505622570428415 194.13250578708366 0 -1 0 -0.55919291073839883 0 -0.82903756765294845 forward_v I I I I #
face $-1 $177 $178 $59 $-1 $179 forward single #
loop $-1 $180 $181 $75 #
cone-surface $-1 58.741699565706867 13.475567706953143 6.8519418782548644 -0.55919291073839883 0 -0.82903756765294845 0.82903756765294845 0 -0.55919291073839883 1 I I 0 1 1 forward I I I I #
face $-1 $182 $183 $60 $-1 $184 forward single #
loop $-1 $185 $186 $76 #
cone-surface $-1 58.741699565706867 18.293600625038309 6.8519418782548644 -0.55919291073839883 0 -0.82903756765294845 0.82903756765294845 0 -0.55919291073839883 1 I I 0 1 1 forward I I I I #
face $-1 $187 $188 $61 $-1 $189 reversed single #
loop $-1 $-1 $190 $77 #
plane-surface $-1 31.913675478853918 38.271817534932367 194.13250578708366 0 -1 0 -0.55919291073839883 0 -0.82903756765294845 forward_v I I I I #
face $-1 $191 $192 $62 $-1 $193 forward single #
loop $-1 $194 $195 $78 #
cone-surface $-1 58.741699565706867 30.241762671457089 6.8519418782548644 -0.55919291073839883 0 -0.82903756765294845 0.82903756765294845 0 -0.55919291073839883 1 I I 0 1 1 forward I I I I #
face $-1 $196 $197 $63 $-1 $198 forward single #
loop $-1 $199 $200 $79 #
cone-surface $-1 58.741699565706867 35.059795589542254 6.8519418782548644 -0.55919291073839883 0 -0.82903756765294845 0.82903756765294845 0 -0.55919291073839883 1 I I 0 1 1 forward I I I I #
face $-1 $201 $202 $48 $-1 $203 reversed single #
loop $-1 $-1 $204 $80 #
plane-surface $-1 0 0 -14.716908324905067 0 0 1 1 0 0 forward_v I I I I #
coedge $-1 $205 $206 $207 $208 forward $81 $-1 #
face $-1 $209 $210 $49 $-1 $211 reversed single #
loop $-1 $-1 $212 $83 #
plane-surface $-1 0 -25.296954351229225 12.476652365134751 0 -1 0 0 0 -1 forward_v I I I I #
coedge $-1 $213 $214 $215 $216 reversed $84 $-1 #
face $-1 $217 $218 $50 $-1 $219 forward single #
loop $-1 $-1 $220 $86 #
plane-surface $-1 -69.330729087191372 34.074259708058996 6.1615053970897122 -0.64278761758704617 0 0.76604443648966558 0.76604443648966558 0 0.64278761758704617 forward_v I I I I #
coedge $-1 $221 $222 $223 $224 reversed $87 $-1 #
face $-1 $-1 $225 $51 $-1 $226 forward single #
loop $-1 $227 $228 $89 #
cone-surface $-1 -59.97261544102156 34.074259708058996 5.3621606822458752 0.64278761758704617 0 -0.76604443648966558 0.76604443648966558 0 0.64278761758704617 1 I I -0.70710678118654746 0.70710678118654746 1 forward I I I I #
loop $-1 $-1 $229 $67 #
coedge $-1 $144 $144 $230 $231 reversed $90 $-1 #
face $-1 $232 $233 $52 $-1 $234 reversed single #
loop $-1 $-1 $235 $92 #
plane-surface $-1 -45.624828924909934 -17.647805763012165 79.176947774982324 0.55919291073839883 0 0.82903756765294845 0.82903756765294845 0 -0.55919291073839883 forward_v I I I I #
coedge $-1 $236 $237 $238 $239 reversed $93 $-1 #
face $-1 $-1 $240 $53 $-1 $241 forward single #
loop $-1 $242 $243 $95 #
cone-surface $-1 57.567884239726197 -20.056822222054748 5.1116891246214813 -0.55919291073839883 0 -0.82903756765294845 0.41451878382647422 0 -0.27959645536919941 1 I I -0.70710678118654746 0.70710678118654746 0.5 forward I I I I #
loop $-1 $-1 $244 $69 #
coedge $-1 $153 $153 $245 $246 reversed $96 $-1 #
face $-1 $-1 $247 $54 $-1 $248 forward single #
loop $-1 $249 $250 $98 #
cone-surface $-1 57.567884239726197 -15.238789303969586 5.1116891246214813 -0.55919291073839883 0 -0.82903756765294845 0.41451878382647422 0 -0.27959645536919941 1 I I -0.70710678118654746 0.70710678118654746 0.5 forward I I I I #
loop $-1 $-1 $251 $70 #
coedge $-1 $158 $158 $252 $253 reversed $99 $-1 #
face $-1 $254 $255 $55 $-1 $256 reversed single #
loop $-1 $-1 $257 $101 #
plane-surface $-1 -45.624828924909934 -0.88161079850821977 79.176947774982324 0.55919291073839883 0 0.82903756765294845 0.82903756765294845 0 -0.55919291073839883 forward_v I I I I #
coedge $-1 $258 $259 $260 $261 reversed $102 $-1 #
face $-1 $-1 $262 $56 $-1 $263 forward single #
loop $-1 $264 $265 $104 #
cone-surface $-1 57.567884239726197 -3.2906272575508027 5.1116891246214813 -0.55919291073839883 0 -0.82903756765294845 0.41451878382647422 0 -0.27959645536919941 1 I I -0.70710678118654746 0.70710678118654746 0.5 forward I I I I #
loop $-1 $-1 $266 $72 #
coedge $-1 $167 $167 $267 $268 reversed $105 $-1 #
face $-1 $-1 $269 $57 $-1 $270 forward single #
loop $-1 $271 $272 $107 #
cone-surface $-1 57.567884239726197 1.5274056605343631 5.1116891246214813 -0.55919291073839883 0 -0.82903756765294845 0.41451878382647422 0 -0.27959645536919941 1 I I -0.70710678118654746 0.70710678118654746 0.5 forward I I I I #
loop $-1 $-1 $273 $73 #
coedge $-1 $172 $172 $274 $275 reversed $108 $-1 #
face $-1 $276 $277 $58 $-1 $278 reversed single #
loop $-1 $-1 $279 $110 #
plane-surface $-1 -45.624828924909934 15.884584165995726 79.176947774982324 0.55919291073839883 0 0.82903756765294845 0.82903756765294845 0 -0.55919291073839883 forward_v I I I I #
coedge $-1 $280 $281 $282 $283 reversed $111 $-1 #
face $-1 $-1 $284 $59 $-1 $285 forward single #
loop $-1 $286 $287 $113 #
cone-surface $-1 57.567884239726197 13.475567706953143 5.1116891246214813 -0.55919291073839883 0 -0.82903756765294845 0.41451878382647422 0 -0.27959645536919941 1 I I -0.70710678118654746 0.70710678118654746 0.5 forward I I I I #
loop $-1 $-1 $288 $75 #
coedge $-1 $181 $181 $289 $290 reversed $114 $-1 #
face $-1 $-1 $291 $60 $-1 $292 forward single #
loop $-1 $293 $294 $116 #
cone-surface $-1 57.567884239726197 18.293600625038309 5.1116891246214813 -0.55919291073839883 0 -0.82903756765294845 0.41451878382647422 0 -0.27959645536919941 1 I I -0.70710678118654746 0.70710678118654746 0.5 forward I I I I #
loop $-1 $-1 $295 $76 #
coedge $-1 $186 $186 $296 $297 reversed $117 $-1 #
face $-1 $298 $299 $61 $-1 $300 reversed single #
loop $-1 $-1 $301 $119 #
plane-surface $-1 -45.624828924909934 32.650779130499679 79.176947774982324 0.55919291073839883 0 0.82903756765294845 0.82903756765294845 0 -0.55919291073839883 forward_v I I I I #
coedge $-1 $302 $303 $304 $305 reversed $120 $-1 #
face $-1 $-1 $306 $62 $-1 $307 forward single #
loop $-1 $308 $309 $122 #
cone-surface $-1 57.567884239726197 30.241762671457089 5.1116891246214813 -0.55919291073839883 0 -0.82903756765294845 0.41451878382647422 0 -0.27959645536919941 1 I I -0.70710678118654746 0.70710678118654746 0.5 forward I I I I #
loop $-1 $-1 $310 $78 #
coedge $-1 $195 $195 $311 $312 reversed $123 $-1 #
face $-1 $-1 $313 $63 $-1 $314 forward single #
loop $-1 $315 $316 $125 #
cone-surface $-1 57.567884239726197 35.059795589542254 5.1116891246214813 -0.55919291073839883 0 -0.82903756765294845 0.41451878382647422 0 -0.27959645536919941 1 I I -0.70710678118654746 0.70710678118654746 0.5 forward I I I I #
loop $-1 $-1 $317 $79 #
coedge $-1 $200 $200 $318 $319 reversed $126 $-1 #
face $-1 $320 $321 $48 $-1 $322 reversed single #
loop $-1 $-1 $323 $128 #
plane-surface $-1 0 -40.299927718716724 0 0 1 0 0 0 1 forward_v I I I I #
coedge $-1 $324 $325 $326 $327 forward $129 $-1 #
coedge $-1 $328 $131 $329 $330 forward $81 $-1 #
coedge $-1 $131 $328 $331 $332 forward $81 $-1 #
coedge $-1 $333 $334 $131 $208 reversed $335 $-1 #
edge $-1 $336 -40.299927718716724 $337 40.299927718716724 $207 $338 forward 7 unknown #
face $-1 $339 $340 $49 $-1 $341 reversed single #
loop $-1 $-1 $342 $132 #
plane-surface $-1 -69.330729087191386 0 0 1 0 0 0 0 -1 forward_v I I I I #
coedge $-1 $343 $344 $345 $346 reversed $133 $-1 #
coedge $-1 $347 $135 $348 $349 reversed $84 $-1 #
coedge $-1 $135 $347 $343 $350 forward $84 $-1 #
coedge $-1 $345 $351 $135 $216 forward $352 $-1 #
edge $-1 $353 -23.900707201230237 $354 -8.8977338337427376 $215 $355 forward 7 unknown #
face $-1 $356 $357 $50 $-1 $358 reversed single #
loop $-1 $-1 $223 $136 #
plane-surface $-1 0 0 14.716908324905067 0 0 1 1 0 0 forward_v I I I I #
coedge $-1 $359 $360 $361 $362 reversed $137 $-1 #
coedge $-1 $222 $139 $363 $364 reversed $87 $-1 #
coedge $-1 $139 $221 $359 $365 reversed $87 $-1 #
coedge $-1 $361 $366 $139 $224 forward $218 $-1 #
edge $-1 $367 9.8995696319329767 $368 20.095501593694578 $223 $369 forward 7 unknown #
loop $-1 $-1 $230 $140 #
plane-surface $-1 -69.330729087191372 34.074259708058996 6.1615053970897122 -0.64278761758704617 0 0.76604443648966558 0.76604443648966558 0 0.64278761758704617 forward_v I I I I #
loop $-1 $-1 $370 $89 #
coedge $-1 $228 $228 $229 $371 reversed $141 $-1 #
coedge $-1 $229 $229 $228 $371 forward $143 $-1 #
coedge $-1 $230 $230 $144 $231 forward $225 $-1 #
edge $-1 $372 0 $372 6.2831853071796004 $230 $373 forward 7 unknown #
face $-1 $374 $375 $52 $-1 $376 reversed single #
loop $-1 $-1 $377 $145 #
plane-surface $-1 31.913675478853918 -23.268844167444854 194.13250578708366 0 1 0 0.55919291073839883 0 0.82903756765294845 forward_v I I I I #
coedge $-1 $378 $379 $380 $381 reversed $146 $-1 #
coedge $-1 $237 $148 $382 $383 reversed $93 $-1 #
coedge $-1 $148 $236 $378 $384 reversed $93 $-1 #
coedge $-1 $380 $385 $148 $239 forward $386 $-1 #
edge $-1 $387 -53.373891347764427 $388 -33.984270046018352 $238 $389 forward 7 unknown #
loop $-1 $-1 $245 $149 #
plane-surface $-1 -45.624828924909934 -17.647805763012165 79.176947774982324 0.55919291073839883 0 0.82903756765294845 0.82903756765294845 0 -0.55919291073839883 forward_v I I I I #
loop $-1 $-1 $390 $95 #
coedge $-1 $243 $243 $244 $391 reversed $150 $-1 #
coedge $-1 $244 $244 $243 $391 forward $152 $-1 #
coedge $-1 $245 $245 $153 $246 forward $240 $-1 #
edge $-1 $392 0 $392 6.2831853071796004 $245 $393 forward 7 unknown #
loop $-1 $-1 $252 $154 #
plane-surface $-1 -45.624828924909934 -17.647805763012165 79.176947774982324 0.55919291073839883 0 0.82903756765294845 0.82903756765294845 0 -0.55919291073839883 forward_v I I I I #
loop $-1 $-1 $394 $98 #
coedge $-1 $250 $250 $251 $395 reversed $155 $-1 #
coedge $-1 $251 $251 $250 $395 forward $157 $-1 #
coedge $-1 $252 $252 $158 $253 forward $247 $-1 #
edge $-1 $396 0 $396 6.2831853071796004 $252 $397 forward 7 unknown #
face $-1 $398 $399 $55 $-1 $400 reversed single #
loop $-1 $-1 $401 $159 #
plane-surface $-1 31.913675478853918 -6.5026492029409102 194.13250578708366 0 1 0 0.55919291073839883 0 0.82903756765294845 forward_v I I I I #
coedge $-1 $402 $403 $404 $405 reversed $160 $-1 #
coedge $-1 $259 $162 $406 $407 reversed $102 $-1 #
coedge $-1 $162 $258 $402 $408 reversed $102 $-1 #
coedge $-1 $404 $409 $162 $261 forward $410 $-1 #
edge $-1 $411 -53.373891347764427 $412 -33.984270046018352 $260 $413 forward 7 unknown #
loop $-1 $-1 $267 $163 #
plane-surface $-1 -45.624828924909934 -0.88161079850821977 79.176947774982324 0.55919291073839883 0 0.82903756765294845 0.82903756765294845 0 -0.55919291073839883 forward_v I I I I #
loop $-1 $-1 $414 $104 #
coedge $-1 $265 $265 $266 $415 reversed $164 $-1 #
coedge $-1 $266 $266 $265 $415 forward $166 $-1 #
coedge $-1 $267 $267 $167 $268 forward $262 $-1 #
edge $-1 $416 0 $416 6.2831853071796004 $267 $417 forward 7 unknown #
loop $-1 $-1 $274 $168 #
plane-surface $-1 -45.624828924909934 -0.88161079850821977 79.176947774982324 0.55919291073839883 0 0.82903756765294845 0.82903756765294845 0 -0.55919291073839883 forward_v I I I I #
loop $-1 $-1 $418 $107 #
coedge $-1 $272 $272 $273 $419 reversed $169 $-1 #
coedge $-1 $273 $273 $272 $419 forward $171 $-1 #
coedge $-1 $274 $274 $172 $275 forward $269 $-1 #
edge $-1 $420 0 $420 6.2831853071796004 $274 $421 forward 7 unknown #
face $-1 $422 $423 $58 $-1 $424 reversed single #
loop $-1 $-1 $425 $173 #
plane-surface $-1 31.913675478853918 10.263545761563035 194.13250578708366 0 1 0 0.55919291073839883 0 0.82903756765294845 forward_v I I I I #
coedge $-1 $426 $427 $428 $429 reversed $174 $-1 #
coedge $-1 $281 $176 $430 $431 reversed $111 $-1 #
coedge $-1 $176 $280 $426 $432 reversed $111 $-1 #
coedge $-1 $428 $433 $176 $283 forward $434 $-1 #
edge $-1 $435 -53.373891347764427 $436 -33.984270046018352 $282 $437 forward 7 unknown #
loop $-1 $-1 $289 $177 #
plane-surface $-1 -45.624828924909934 15.884584165995726 79.176947774982324 0.55919291073839883 0 0.82903756765294845 0.82903756765294845 0 -0.55919291073839883 forward_v I I I I #
loop $-1 $-1 $438 $113 #
coedge $-1 $287 $287 $288 $439 reversed $178 $-1 #
coedge $-1 $288 $288 $287 $439 forward $180 $-1 #
coedge $-1 $289 $289 $181 $290 forward $284 $-1 #
edge $-1 $440 0 $440 6.2831853071796004 $289 $441 forward 7 unknown #
loop $-1 $-1 $296 $182 #
plane-surface $-1 -45.624828924909934 15.884584165995726 79.176947774982324 0.55919291073839883 0 0.82903756765294845 0.82903756765294845 0 -0.55919291073839883 forward_v I I I I #
loop $-1 $-1 $442 $116 #
coedge $-1 $294 $294 $295 $443 reversed $183 $-1 #
coedge $-1 $295 $295 $294 $443 forward $185 $-1 #
coedge $-1 $296 $296 $186 $297 forward $291 $-1 #
edge $-1 $444 0 $444 6.2831853071796004 $296 $445 forward 7 unknown #
face $-1 $446 $447 $61 $-1 $448 reversed single #
loop $-1 $-1 $449 $187 #
plane-surface $-1 31.913675478853918 27.02974072606699 194.13250578708366 0 1 0 0.55919291073839883 0 0.82903756765294845 forward_v I I I I #
coedge $-1 $450 $451 $452 $453 reversed $188 $-1 #
coedge $-1 $303 $190 $454 $455 reversed $120 $-1 #
coedge $-1 $190 $302 $450 $456 reversed $120 $-1 #
coedge $-1 $452 $457 $190 $305 forward $458 $-1 #
edge $-1 $459 -53.373891347764427 $460 -33.984270046018352 $304 $461 forward 7 unknown #
loop $-1 $-1 $311 $191 #
plane-surface $-1 -45.624828924909934 32.650779130499679 79.176947774982324 0.55919291073839883 0 0.82903756765294845 0.82903756765294845 0 -0.55919291073839883 forward_v I I I I #
loop $-1 $-1 $462 $122 #
coedge $-1 $309 $309 $310 $463 reversed $192 $-1 #
coedge $-1 $310 $310 $309 $463 forward $194 $-1 #
coedge $-1 $311 $311 $195 $312 forward $306 $-1 #
edge $-1 $464 0 $464 6.2831853071796004 $311 $465 forward 7 unknown #
loop $-1 $-1 $318 $196 #
plane-surface $-1 -45.624828924909934 32.650779130499679 79.176947774982324 0.55919291073839883 0 0.82903756765294845 0.82903756765294845 0 -0.55919291073839883 forward_v I I I I #
loop $-1 $-1 $466 $125 #
coedge $-1 $316 $316 $317 $467 reversed $197 $-1 #
coedge $-1 $317 $317 $316 $467 forward $199 $-1 #
coedge $-1 $318 $318 $200 $319 forward $313 $-1 #
edge $-1 $468 0 $468 6.2831853071796004 $318 $469 forward 7 unknown #
face $-1 $470 $471 $48 $-1 $472 reversed single #
loop $-1 $-1 $473 $201 #
plane-surface $-1 -69.330729087191386 0 0 1 0 0 0 0 -1 forward_v I I I I #
coedge $-1 $474 $331 $475 $476 forward $202 $-1 #
coedge $-1 $477 $204 $474 $478 forward $129 $-1 #
coedge $-1 $204 $477 $479 $480 forward $129 $-1 #
coedge $-1 $334 $333 $204 $327 reversed $335 $-1 #
edge $-1 $481 -40.299927718716724 $482 40.299927718716724 $326 $483 forward 7 unknown #
coedge $-1 $206 $205 $484 $485 forward $81 $-1 #
coedge $-1 $486 $487 $205 $330 reversed $471 $-1 #
edge $-1 $337 -69.330729087191386 $488 69.330729087191386 $329 $489 forward 7 unknown #
coedge $-1 $323 $490 $206 $332 reversed $202 $-1 #
edge $-1 $491 -69.330729087191386 $336 69.330729087191386 $331 $492 forward 7 unknown #
coedge $-1 $326 $207 $490 $493 forward $335 $-1 #
coedge $-1 $207 $326 $486 $494 reversed $335 $-1 #
loop $-1 $-1 $333 $470 #
vertex $-1 $208 $495 #
vertex $-1 $208 $496 #
straight-curve $-1 69.330729087191386 0 14.716908324905067 0 1 0 I I #
face $-1 $497 $498 $49 $-1 $499 forward single #
loop $-1 $-1 $348 $209 #
plane-surface $-1 0 -40.299927718716724 0 0 1 0 0 0 1 forward_v I I I I #
coedge $-1 $500 $501 $502 $503 forward $210 $-1 #
coedge $-1 $502 $212 $214 $350 reversed $133 $-1 #
coedge $-1 $212 $502 $504 $505 reversed $133 $-1 #
coedge $-1 $506 $215 $212 $346 forward $352 $-1 #
edge $-1 $354 3.9980702227970575 $507 8.478582142337693 $345 $508 forward 7 unknown #
coedge $-1 $214 $213 $500 $509 reversed $84 $-1 #
coedge $-1 $510 $511 $213 $349 forward $340 $-1 #
edge $-1 $512 -69.330729087191386 $353 69.330729087191386 $348 $513 forward 7 unknown #
edge $-1 $514 -69.330729087191386 $354 69.330729087191386 $343 $515 forward 7 unknown #
coedge $-1 $215 $506 $510 $516 forward $352 $-1 #
loop $-1 $-1 $345 $497 #
vertex $-1 $349 $517 #
vertex $-1 $216 $518 #
straight-curve $-1 69.330729087191386 -16.399220517486487 10.236396405364433 0 1 0 I I #
face $-1 $-1 $519 $50 $-1 $520 reversed single #
loop $-1 $-1 $521 $217 #
plane-surface $-1 0 40.299927718716724 0 0 -1 0 0 0 -1 forward_v I I I I #
coedge $-1 $522 $220 $222 $365 forward $137 $-1 #
coedge $-1 $220 $522 $521 $523 reversed $137 $-1 #
coedge $-1 $524 $223 $220 $362 forward $218 $-1 #
edge $-1 $368 10.811461843371784 $525 23.262797864687212 $361 $526 forward 7 unknown #
coedge $-1 $527 $528 $221 $364 forward $519 $-1 #
edge $-1 $529 -50.029666596470349 $367 -41.474263668654984 $363 $530 forward 7 unknown #
edge $-1 $368 -13.309844019602297 $529 1.8307977367429951e-014 $222 $531 forward 7 unknown #
coedge $-1 $223 $524 $527 $532 forward $218 $-1 #
vertex $-1 $364 $533 #
vertex $-1 $224 $534 #
straight-curve $-1 -79.230298719124363 27.848591697401282 14.716908324905063 1 0 0 I I #
coedge $-1 $370 $370 $-1 $535 reversed $227 $-1 #
edge $-1 $536 0 $536 6.2831853071796004 $228 $537 forward 7 unknown #
vertex $-1 $231 $538 #
ellipse-curve $-1 -64.232763106310585 34.074259708058996 10.439206860997384 -0.64278761758704617 0 0.76604443648966558 1.5320888729793312 0 1.2855752351740923 1 I I #
face $-1 $-1 $386 $52 $-1 $539 forward single #
loop $-1 $-1 $540 $232 #
plane-surface $-1 69.330729087191386 0 0 -1 0 0 0 0 1 forward_v I I I I #
coedge $-1 $541 $542 $543 $544 reversed $233 $-1 #
coedge $-1 $545 $235 $237 $384 forward $146 $-1 #
coedge $-1 $235 $545 $541 $546 forward $146 $-1 #
coedge $-1 $543 $238 $235 $381 forward $386 $-1 #
edge $-1 $388 3.2028644770733923 $547 14.444941285938771 $380 $548 forward 7 unknown #
coedge $-1 $549 $550 $236 $383 forward $375 $-1 #
edge $-1 $551 -95.427809522323344 $387 -82.349344568636766 $382 $552 forward 7 unknown #
edge $-1 $388 115.27334880722924 $551 138.66145817438274 $237 $553 forward 7 unknown #
coedge $-1 $238 $543 $549 $554 forward $386 $-1 #
loop $-1 $-1 $543 $374 #
vertex $-1 $383 $555 #
vertex $-1 $239 $556 #
straight-curve $-1 15.956837739426959 -12.026767358579475 14.716908324905063 -1 0 0 I I #
coedge $-1 $390 $390 $-1 $557 reversed $242 $-1 #
edge $-1 $558 0 $558 6.2831853071796004 $243 $559 forward 7 unknown #
vertex $-1 $246 $560 #
ellipse-curve $-1 59.635918436318342 -20.056822222054748 8.1776758480617833 0.55919291073839883 0 0.82903756765294845 0.82903756765294845 0 -0.55919291073839883 1 I I #
coedge $-1 $394 $394 $-1 $561 reversed $249 $-1 #
edge $-1 $562 0 $562 6.2831853071796004 $250 $563 forward 7 unknown #
vertex $-1 $253 $564 #
ellipse-curve $-1 59.635918436318342 -15.238789303969586 8.1776758480617833 0.55919291073839883 0 0.82903756765294845 0.82903756765294845 0 -0.55919291073839883 1 I I #
face $-1 $-1 $410 $55 $-1 $565 forward single #
loop $-1 $-1 $566 $254 #
plane-surface $-1 69.330729087191386 0 0 -1 0 0 0 0 1 forward_v I I I I #
coedge $-1 $567 $568 $569 $570 reversed $255 $-1 #
coedge $-1 $571 $257 $259 $408 forward $160 $-1 #
coedge $-1 $257 $571 $567 $572 forward $160 $-1 #
coedge $-1 $569 $260 $257 $405 forward $410 $-1 #
edge $-1 $412 -5.1802330051785805 $573 6.0618438036868003 $404 $574 forward 7 unknown #
coedge $-1 $575 $576 $258 $407 forward $399 $-1 #
edge $-1 $577 -95.427809522323344 $411 -82.349344568636766 $406 $578 forward 7 unknown #
edge $-1 $412 115.27334880722924 $577 138.66145817438274 $259 $579 forward 7 unknown #
coedge $-1 $260 $569 $575 $580 forward $410 $-1 #
loop $-1 $-1 $569 $398 #
vertex $-1 $407 $581 #
vertex $-1 $261 $582 #
straight-curve $-1 15.956837739426959 4.7394276059244707 14.716908324905063 -1 0 0 I I #
coedge $-1 $414 $414 $-1 $583 reversed $264 $-1 #
edge $-1 $584 0 $584 6.2831853071796004 $265 $585 forward 7 unknown #
vertex $-1 $268 $586 #
ellipse-curve $-1 59.635918436318342 -3.2906272575508027 8.1776758480617833 0.55919291073839883 0 0.82903756765294845 0.82903756765294845 0 -0.55919291073839883 1 I I #
coedge $-1 $418 $418 $-1 $587 reversed $271 $-1 #
edge $-1 $588 0 $588 6.2831853071796004 $272 $589 forward 7 unknown #
vertex $-1 $275 $590 #
ellipse-curve $-1 59.635918436318342 1.5274056605343631 8.1776758480617833 0.55919291073839883 0 0.82903756765294845 0.82903756765294845 0 -0.55919291073839883 1 I I #
face $-1 $-1 $434 $58 $-1 $591 forward single #
loop $-1 $-1 $592 $276 #
plane-surface $-1 69.330729087191386 0 0 -1 0 0 0 0 1 forward_v I I I I #
coedge $-1 $593 $594 $595 $596 reversed $277 $-1 #
coedge $-1 $597 $279 $281 $432 forward $174 $-1 #
coedge $-1 $279 $597 $593 $598 forward $174 $-1 #
coedge $-1 $595 $282 $279 $429 forward $434 $-1 #
edge $-1 $436 -13.563330487430552 $599 -2.3212536785651725 $428 $600 forward 7 unknown #
coedge $-1 $601 $602 $280 $431 forward $423 $-1 #
edge $-1 $603 -95.427809522323344 $435 -82.349344568636766 $430 $604 forward 7 unknown #
edge $-1 $436 115.27334880722924 $603 138.66145817438274 $281 $605 forward 7 unknown #
coedge $-1 $282 $595 $601 $606 forward $434 $-1 #
loop $-1 $-1 $595 $422 #
vertex $-1 $431 $607 #
vertex $-1 $283 $608 #
straight-curve $-1 15.956837739426959 21.505622570428415 14.716908324905063 -1 0 0 I I #
coedge $-1 $438 $438 $-1 $609 reversed $286 $-1 #
edge $-1 $610 0 $610 6.2831853071796004 $287 $611 forward 7 unknown #
vertex $-1 $290 $612 #
ellipse-curve $-1 59.635918436318342 13.475567706953143 8.1776758480617833 0.55919291073839883 0 0.82903756765294845 0.82903756765294845 0 -0.55919291073839883 1 I I #
coedge $-1 $442 $442 $-1 $613 reversed $293 $-1 #
edge $-1 $614 0 $614 6.2831853071796004 $294 $615 forward 7 unknown #
vertex $-1 $297 $616 #
ellipse-curve $-1 59.635918436318342 18.293600625038309 8.1776758480617833 0.55919291073839883 0 0.82903756765294845 0.82903756765294845 0 -0.55919291073839883 1 I I #
face $-1 $-1 $458 $61 $-1 $617 forward single #
loop $-1 $-1 $618 $298 #
plane-surface $-1 69.330729087191386 0 0 -1 0 0 0 0 1 forward_v I I I I #
coedge $-1 $619 $620 $621 $622 reversed $299 $-1 #
coedge $-1 $623 $301 $303 $456 forward $188 $-1 #
coedge $-1 $301 $623 $619 $624 forward $188 $-1 #
coedge $-1 $621 $304 $301 $453 forward $458 $-1 #
edge $-1 $460 -21.946427969682528 $625 -10.704351160817151 $452 $626 forward 7 unknown #
coedge $-1 $627 $628 $302 $455 forward $447 $-1 #
edge $-1 $629 -95.427809522323344 $459 -82.349344568636766 $454 $630 forward 7 unknown #
edge $-1 $460 115.27334880722924 $629 138.66145817438274 $303 $631 forward 7 unknown #
coedge $-1 $304 $621 $627 $632 forward $458 $-1 #
loop $-1 $-1 $621 $446 #
vertex $-1 $455 $633 #
vertex $-1 $305 $634 #
straight-curve $-1 15.956837739426959 38.271817534932367 14.716908324905063 -1 0 0 I I #
coedge $-1 $462 $462 $-1 $635 reversed $308 $-1 #
edge $-1 $636 0 $636 6.2831853071796004 $309 $637 forward 7 unknown #
vertex $-1 $312 $638 #
ellipse-curve $-1 59.635918436318342 30.241762671457089 8.1776758480617833 0.55919291073839883 0 0.82903756765294845 0.82903756765294845 0 -0.55919291073839883 1 I I #
coedge $-1 $466 $466 $-1 $639 reversed $315 $-1 #
edge $-1 $640 0 $640 6.2831853071796004 $316 $641 forward 7 unknown #
vertex $-1 $319 $642 #
ellipse-curve $-1 59.635918436318342 35.059795589542254 8.1776758480617833 0.55919291073839883 0 0.82903756765294845 0.82903756765294845 0 -0.55919291073839883 1 I I #
face $-1 $-1 $335 $48 $-1 $643 reversed single #
loop $-1 $-1 $486 $320 #
plane-surface $-1 0 40.299927718716724 0 0 -1 0 0 0 -1 forward_v I I I I #
coedge $-1 $644 $484 $487 $645 forward $321 $-1 #
coedge $-1 $490 $323 $324 $478 reversed $202 $-1 #
coedge $-1 $484 $644 $323 $476 reversed $321 $-1 #
edge $-1 $491 -14.716908324905067 $646 14.716908324905067 $475 $647 forward 7 unknown #
coedge $-1 $325 $324 $644 $648 forward $129 $-1 #
edge $-1 $482 -69.330729087191386 $646 69.330729087191386 $474 $649 forward 7 unknown #
coedge $-1 $487 $486 $325 $480 reversed $471 $-1 #
edge $-1 $650 -69.330729087191386 $481 69.330729087191386 $479 $651 forward 7 unknown #
vertex $-1 $327 $652 #
vertex $-1 $493 $653 #
straight-curve $-1 69.330729087191386 0 -14.716908324905067 0 -1 0 I I #
coedge $-1 $473 $475 $328 $485 reversed $321 $-1 #
edge $-1 $488 -40.299927718716724 $491 40.299927718716724 $484 $654 forward 7 unknown #
coedge $-1 $479 $329 $334 $494 forward $471 $-1 #
coedge $-1 $329 $479 $473 $645 reversed $471 $-1 #
vertex $-1 $330 $655 #
straight-curve $-1 0 40.299927718716724 14.716908324905067 -1 0 0 I I #
coedge $-1 $331 $474 $333 $493 reversed $202 $-1 #
vertex $-1 $485 $656 #
straight-curve $-1 0 -40.299927718716724 14.716908324905067 1 0 0 I I #
edge $-1 $336 -14.716908324905067 $482 14.716908324905067 $333 $657 forward 7 unknown #
edge $-1 $337 -14.716908324905067 $481 14.716908324905067 $334 $658 forward 7 unknown #
point $-1 69.330729087191386 -40.299927718716724 14.716908324905067 #
point $-1 69.330729087191386 40.299927718716724 14.716908324905067 #
face $-1 $-1 $352 $49 $-1 $659 reversed single #
loop $-1 $-1 $504 $339 #
plane-surface $-1 0 0 14.716908324905067 0 0 1 1 0 0 forward_v I I I I #
coedge $-1 $660 $342 $347 $509 forward $210 $-1 #
coedge $-1 $342 $660 $661 $662 reversed $210 $-1 #
coedge $-1 $344 $343 $342 $503 reversed $133 $-1 #
edge $-1 $663 -8.478582142337693 $514 -3.9980702227970575 $342 $664 forward 7 unknown #
coedge $-1 $661 $665 $344 $505 forward $498 $-1 #
edge $-1 $507 -69.330729087191386 $663 69.330729087191386 $504 $666 forward 7 unknown #
coedge $-1 $351 $345 $665 $667 reversed $352 $-1 #
vertex $-1 $346 $668 #
straight-curve $-1 69.330729087191386 -25.296954351229225 6.2383261825673753 0 0 1 I I #
edge $-1 $514 8.8977338337427376 $512 23.900707201230237 $500 $669 forward 7 unknown #
coedge $-1 $670 $348 $351 $516 reversed $340 $-1 #
coedge $-1 $348 $670 $660 $671 forward $340 $-1 #
vertex $-1 $349 $672 #
straight-curve $-1 0 -40.299927718716724 10.236396405364433 1 0 0 I I #
vertex $-1 $509 $673 #
straight-curve $-1 0 -25.296954351229225 10.236396405364433 1 0 0 I I #
edge $-1 $674 -14.716908324905067 $353 -10.236396405364433 $351 $675 forward 7 unknown #
point $-1 69.330729087191386 -40.299927718716724 10.236396405364433 #
point $-1 69.330729087191386 -25.296954351229225 10.236396405364433 #
loop $-1 $-1 $363 $356 #
plane-surface $-1 -69.330729087191386 0 0 1 0 0 0 0 -1 forward_v I I I I #
coedge $-1 $676 $677 $360 $523 forward $357 $-1 #
coedge $-1 $360 $359 $528 $678 reversed $137 $-1 #
edge $-1 $525 11.265095940432783 $679 24.574939960035096 $521 $680 forward 7 unknown #
coedge $-1 $366 $361 $677 $681 forward $218 $-1 #
vertex $-1 $681 $682 #
straight-curve $-1 -59.134797125429778 17.037129854029498 14.716908324905067 0 1 0 I I #
coedge $-1 $683 $363 $366 $532 reversed $519 $-1 #
coedge $-1 $363 $683 $522 $678 forward $519 $-1 #
vertex $-1 $364 $684 #
straight-curve $-1 -69.330729087191386 27.848591697401282 56.191171993560047 0 0 1 I I #
straight-curve $-1 -69.330729087191372 27.848591697401282 6.1615053970897122 -0.76604443648966558 0 -0.64278761758704617 I I #
edge $-1 $685 -40.299927718716724 $367 -27.848591697401282 $527 $686 forward 7 unknown #
point $-1 -69.330729087191386 27.848591697401282 14.716908324905067 #
point $-1 -59.134797125429785 27.848591697401282 14.716908324905067 #
edge $-1 $687 1 $687 0 $370 $-1 forward 7 unknown #
vertex $-1 $371 $688 #
ellipse-curve $-1 -60.615403058608607 34.074259708058996 6.1282051187355409 -0.64278761758704617 0 0.76604443648966558 1.5320888729793312 0 1.2855752351740923 1 I I #
point $-1 -62.70067423333127 34.074259708058996 11.724782096171493 #
plane-surface $-1 0 0 14.716908324905067 0 0 1 1 0 0 forward_v I I I I #
coedge $-1 $550 $549 $542 $689 forward $375 $-1 #
coedge $-1 $542 $377 $379 $546 reversed $233 $-1 #
coedge $-1 $377 $541 $540 $689 reversed $233 $-1 #
coedge $-1 $385 $380 $377 $544 forward $386 $-1 #
edge $-1 $547 33.984270046018352 $690 53.373891347764427 $543 $691 forward 7 unknown #
coedge $-1 $379 $378 $550 $692 reversed $146 $-1 #
edge $-1 $693 -138.66145817438274 $547 -115.27334880722924 $541 $694 forward 7 unknown #
vertex $-1 $381 $695 #
straight-curve $-1 49.941107785445297 -8.8239028815060827 14.71690832490507 0 -1 0 I I #
coedge $-1 $540 $382 $385 $554 reversed $375 $-1 #
coedge $-1 $382 $540 $545 $692 forward $375 $-1 #
vertex $-1 $383 $696 #
straight-curve $-1 69.330729087191386 -12.026767358579475 97.066252893541829 0 0 1 I I #
straight-curve $-1 -45.624828924909934 -12.026767358579475 79.176947774982324 0.82903756765294845 0 -0.55919291073839883 I I #
edge $-1 $690 -23.268844167444854 $387 -12.026767358579475 $549 $697 forward 7 unknown #
point $-1 69.330729087191386 -12.026767358579475 14.716908324905067 #
point $-1 49.941107785445311 -12.026767358579475 14.716908324905063 #
edge $-1 $698 1 $698 0 $390 $-1 forward 7 unknown #
vertex $-1 $391 $699 #
ellipse-curve $-1 57.847480695095399 -20.056822222054748 5.5262079084479554 0.55919291073839883 0 0.82903756765294845 0.82903756765294845 0 -0.55919291073839883 1 I I #
point $-1 60.464956003971281 -20.056822222054748 7.6184829373233756 #
edge $-1 $700 1 $700 0 $394 $-1 forward 7 unknown #
vertex $-1 $395 $701 #
ellipse-curve $-1 57.847480695095399 -15.238789303969586 5.5262079084479554 0.55919291073839883 0 0.82903756765294845 0.82903756765294845 0 -0.55919291073839883 1 I I #
point $-1 60.464956003971281 -15.238789303969586 7.6184829373233756 #
plane-surface $-1 0 0 14.716908324905067 0 0 1 1 0 0 forward_v I I I I #
coedge $-1 $576 $575 $568 $702 forward $399 $-1 #
coedge $-1 $568 $401 $403 $572 reversed $255 $-1 #
coedge $-1 $401 $567 $566 $702 reversed $255 $-1 #
coedge $-1 $409 $404 $401 $570 forward $410 $-1 #
edge $-1 $573 33.984270046018352 $703 53.373891347764427 $569 $704 forward 7 unknown #
coedge $-1 $403 $402 $576 $705 reversed $160 $-1 #
edge $-1 $706 -138.66145817438274 $573 -115.27334880722924 $567 $707 forward 7 unknown #
vertex $-1 $405 $708 #
straight-curve $-1 49.941107785445297 -0.44080539925410989 14.71690832490507 0 -1 0 I I #
coedge $-1 $566 $406 $409 $580 reversed $399 $-1 #
coedge $-1 $406 $566 $571 $705 forward $399 $-1 #
vertex $-1 $407 $709 #
straight-curve $-1 69.330729087191386 4.7394276059244707 97.066252893541829 0 0 1 I I #
straight-curve $-1 -45.624828924909934 4.7394276059244707 79.176947774982324 0.82903756765294845 0 -0.55919291073839883 I I #
edge $-1 $703 -6.5026492029409102 $411 4.7394276059244707 $575 $710 forward 7 unknown #
point $-1 69.330729087191386 4.7394276059244707 14.716908324905067 #
point $-1 49.941107785445311 4.7394276059244707 14.716908324905063 #
edge $-1 $711 1 $711 0 $414 $-1 forward 7 unknown #
vertex $-1 $415 $712 #
ellipse-curve $-1 57.847480695095399 -3.2906272575508027 5.5262079084479554 0.55919291073839883 0 0.82903756765294845 0.82903756765294845 0 -0.55919291073839883 1 I I #
point $-1 60.464956003971281 -3.2906272575508027 7.6184829373233756 #
edge $-1 $713 1 $713 0 $418 $-1 forward 7 unknown #
vertex $-1 $419 $714 #
ellipse-curve $-1 57.847480695095399 1.5274056605343631 5.5262079084479554 0.55919291073839883 0 0.82903756765294845 0.82903756765294845 0 -0.55919291073839883 1 I I #
point $-1 60.464956003971281 1.5274056605343631 7.6184829373233756 #
plane-surface $-1 0 0 14.716908324905067 0 0 1 1 0 0 forward_v I I I I #
coedge $-1 $602 $601 $594 $715 forward $423 $-1 #
coedge $-1 $594 $425 $427 $598 reversed $277 $-1 #
coedge $-1 $425 $593 $592 $715 reversed $277 $-1 #
coedge $-1 $433 $428 $425 $596 forward $434 $-1 #
edge $-1 $599 33.984270046018352 $716 53.373891347764427 $595 $717 forward 7 unknown #
coedge $-1 $427 $426 $602 $718 reversed $174 $-1 #
edge $-1 $719 -138.66145817438274 $599 -115.27334880722924 $593 $720 forward 7 unknown #
vertex $-1 $429 $721 #
straight-curve $-1 49.941107785445297 7.9422920829978629 14.71690832490507 0 -1 0 I I #
coedge $-1 $592 $430 $433 $606 reversed $423 $-1 #
coedge $-1 $430 $592 $597 $718 forward $423 $-1 #
vertex $-1 $431 $722 #
straight-curve $-1 69.330729087191386 21.505622570428415 97.066252893541829 0 0 1 I I #
straight-curve $-1 -45.624828924909934 21.505622570428415 79.176947774982324 0.82903756765294845 0 -0.55919291073839883 I I #
edge $-1 $716 10.263545761563035 $435 21.505622570428415 $601 $723 forward 7 unknown #
point $-1 69.330729087191386 21.505622570428415 14.716908324905067 #
point $-1 49.941107785445311 21.505622570428415 14.716908324905063 #
edge $-1 $724 1 $724 0 $438 $-1 forward 7 unknown #
vertex $-1 $439 $725 #
ellipse-curve $-1 57.847480695095399 13.475567706953143 5.5262079084479554 0.55919291073839883 0 0.82903756765294845 0.82903756765294845 0 -0.55919291073839883 1 I I #
point $-1 60.464956003971281 13.475567706953143 7.6184829373233756 #
edge $-1 $726 1 $726 0 $442 $-1 forward 7 unknown #
vertex $-1 $443 $727 #
ellipse-curve $-1 57.847480695095399 18.293600625038309 5.5262079084479554 0.55919291073839883 0 0.82903756765294845 0.82903756765294845 0 -0.55919291073839883 1 I I #
point $-1 60.464956003971281 18.293600625038309 7.6184829373233756 #
plane-surface $-1 0 0 14.716908324905067 0 0 1 1 0 0 forward_v I I I I #
coedge $-1 $628 $627 $620 $728 forward $447 $-1 #
coedge $-1 $620 $449 $451 $624 reversed $299 $-1 #
coedge $-1 $449 $619 $618 $728 reversed $299 $-1 #
coedge $-1 $457 $452 $449 $622 forward $458 $-1 #
edge $-1 $625 33.984270046018352 $729 53.373891347764427 $621 $730 forward 7 unknown #
coedge $-1 $451 $450 $628 $731 reversed $188 $-1 #
edge $-1 $732 -138.66145817438274 $625 -115.27334880722924 $619 $733 forward 7 unknown #
vertex $-1 $453 $734 #
straight-curve $-1 49.941107785445297 16.325389565249839 14.71690832490507 0 -1 0 I I #
coedge $-1 $618 $454 $457 $632 reversed $447 $-1 #
coedge $-1 $454 $618 $623 $731 forward $447 $-1 #
vertex $-1 $455 $735 #
straight-curve $-1 69.330729087191386 38.271817534932367 97.066252893541829 0 0 1 I I #
straight-curve $-1 -45.624828924909934 38.271817534932367 79.176947774982324 0.82903756765294845 0 -0.55919291073839883 I I #
edge $-1 $729 27.02974072606699 $459 38.271817534932367 $627 $736 forward 7 unknown #
point $-1 69.330729087191386 38.271817534932367 14.716908324905067 #
point $-1 49.941107785445311 38.271817534932367 14.716908324905063 #
edge $-1 $737 1 $737 0 $462 $-1 forward 7 unknown #
vertex $-1 $463 $738 #
ellipse-curve $-1 57.847480695095399 30.241762671457089 5.5262079084479554 0.55919291073839883 0 0.82903756765294845 0.82903756765294845 0 -0.55919291073839883 1 I I #
point $-1 60.464956003971281 30.241762671457089 7.6184829373233756 #
edge $-1 $739 1 $739 0 $466 $-1 forward 7 unknown #
vertex $-1 $467 $740 #
ellipse-curve $-1 57.847480695095399 35.059795589542254 5.5262079084479554 0.55919291073839883 0 0.82903756765294845 0.82903756765294845 0 -0.55919291073839883 1 I I #
point $-1 60.464956003971281 35.059795589542254 7.6184829373233756 #
plane-surface $-1 69.330729087191386 0 0 -1 0 0 0 0 1 forward_v I I I I #
coedge $-1 $475 $473 $477 $648 reversed $321 $-1 #
edge $-1 $488 -14.716908324905067 $650 14.716908324905067 $487 $741 forward 7 unknown #
vertex $-1 $648 $742 #
straight-curve $-1 -69.330729087191386 -40.299927718716724 0 0 0 -1 I I #
edge $-1 $646 -40.299927718716724 $650 40.299927718716724 $644 $743 forward 7 unknown #
straight-curve $-1 0 -40.299927718716724 -14.716908324905067 -1 0 0 I I #
vertex $-1 $480 $744 #
straight-curve $-1 0 40.299927718716724 -14.716908324905067 1 0 0 I I #
point $-1 69.330729087191386 40.299927718716724 -14.716908324905067 #
point $-1 69.330729087191386 -40.299927718716724 -14.716908324905067 #
straight-curve $-1 -69.330729087191386 0 14.716908324905067 0 -1 0 I I #
point $-1 -69.330729087191386 40.299927718716724 14.716908324905067 #
point $-1 -69.330729087191386 -40.299927718716724 14.716908324905067 #
straight-curve $-1 69.330729087191386 -40.299927718716724 0 0 0 -1 I I #
straight-curve $-1 69.330729087191386 40.299927718716724 0 0 0 -1 I I #
plane-surface $-1 69.330729087191386 0 0 -1 0 0 0 0 1 forward_v I I I I #
coedge $-1 $501 $500 $511 $671 reversed $210 $-1 #
coedge $-1 $745 $504 $501 $662 forward $498 $-1 #
edge $-1 $663 25.296954351229225 $746 40.299927718716724 $501 $747 forward 7 unknown #
vertex $-1 $662 $748 #
straight-curve $-1 -69.330729087191386 -25.296954351229225 6.2383261825673753 0 0 -1 I I #
coedge $-1 $504 $745 $506 $667 forward $498 $-1 #
straight-curve $-1 0 -25.296954351229225 14.716908324905067 -1 0 0 I I #
edge $-1 $674 -40.299927718716724 $507 -25.296954351229225 $506 $749 forward 7 unknown #
point $-1 69.330729087191386 -25.296954351229225 14.716908324905068 #
straight-curve $-1 -69.330729087191386 -16.399220517486487 10.236396405364433 0 -1 0 I I #
coedge $-1 $511 $510 $745 $750 reversed $340 $-1 #
edge $-1 $746 -14.716908324905067 $512 -10.236396405364433 $660 $751 forward 7 unknown #
point $-1 -69.330729087191386 -40.299927718716724 10.236396405364433 #
point $-1 -69.330729087191386 -25.296954351229225 10.236396405364433 #
vertex $-1 $667 $752 #
straight-curve $-1 69.330729087191386 -40.299927718716724 0 0 0 -1 I I #
coedge $-1 $677 $521 $683 $753 reversed $357 $-1 #
coedge $-1 $521 $676 $524 $681 reversed $357 $-1 #
edge $-1 $679 -23.262797864687212 $529 -10.811461843371784 $528 $754 forward 7 unknown #
vertex $-1 $523 $755 #
straight-curve $-1 -50.505233053738934 40.299927718716724 21.95797250634536 -0.76604443648966558 0 -0.64278761758704617 I I #
edge $-1 $525 59.134797125429785 $685 69.330729087191386 $677 $756 forward 7 unknown #
point $-1 -59.134797125429785 40.29992771871671 14.716908324905067 #
coedge $-1 $528 $527 $676 $753 forward $519 $-1 #
point $-1 -69.330729087191386 27.848591697401282 6.1615053970897007 #
vertex $-1 $681 $757 #
straight-curve $-1 -69.330729087191386 0 14.716908324905067 0 -1 0 I I #
vertex $-1 $535 $758 #
point $-1 -59.083314185629277 34.074259708058996 7.4137803539096332 #
edge $-1 $690 82.349344568636766 $693 95.427809522323344 $540 $759 forward 7 unknown #
vertex $-1 $554 $760 #
straight-curve $-1 15.956837739426959 -23.268844167444854 14.716908324905063 1 0 0 I I #
edge $-1 $693 -14.444941285938771 $551 -3.2028644770733923 $550 $761 forward 7 unknown #
vertex $-1 $692 $762 #
straight-curve $-1 -45.624828924909934 -23.268844167444854 79.176947774982324 -0.82903756765294845 0 0.55919291073839883 I I #
point $-1 49.941107785445311 -23.268844167444854 14.716908324905063 #
point $-1 69.330729087191386 -12.026767358579475 1.6384433712184858 #
straight-curve $-1 69.330729087191386 0 14.716908324905067 0 1 0 I I #
vertex $-1 $557 $763 #
point $-1 58.676518262748345 -20.056822222054748 4.9670149977095566 #
vertex $-1 $561 $764 #
point $-1 58.676518262748345 -15.238789303969586 4.9670149977095566 #
edge $-1 $703 82.349344568636766 $706 95.427809522323344 $566 $765 forward 7 unknown #
vertex $-1 $580 $766 #
straight-curve $-1 15.956837739426959 -6.5026492029409102 14.716908324905063 1 0 0 I I #
edge $-1 $706 -6.0618438036868003 $577 5.1802330051785805 $576 $767 forward 7 unknown #
vertex $-1 $705 $768 #
straight-curve $-1 -45.624828924909934 -6.5026492029409102 79.176947774982324 -0.82903756765294845 0 0.55919291073839883 I I #
point $-1 49.941107785445311 -6.5026492029409102 14.716908324905063 #
point $-1 69.330729087191386 4.7394276059244707 1.6384433712184858 #
straight-curve $-1 69.330729087191386 0 14.716908324905067 0 1 0 I I #
vertex $-1 $583 $769 #
point $-1 58.676518262748345 -3.2906272575508027 4.9670149977095566 #
vertex $-1 $587 $770 #
point $-1 58.676518262748345 1.5274056605343631 4.9670149977095566 #
edge $-1 $716 82.349344568636766 $719 95.427809522323344 $592 $771 forward 7 unknown #
vertex $-1 $606 $772 #
straight-curve $-1 15.956837739426959 10.263545761563035 14.716908324905063 1 0 0 I I #
edge $-1 $719 2.3212536785651725 $603 13.563330487430552 $602 $773 forward 7 unknown #
vertex $-1 $718 $774 #
straight-curve $-1 -45.624828924909934 10.263545761563035 79.176947774982324 -0.82903756765294845 0 0.55919291073839883 I I #
point $-1 49.941107785445311 10.263545761563035 14.716908324905063 #
point $-1 69.330729087191386 21.505622570428415 1.6384433712184858 #
straight-curve $-1 69.330729087191386 0 14.716908324905067 0 1 0 I I #
vertex $-1 $609 $775 #
point $-1 58.676518262748345 13.475567706953143 4.9670149977095566 #
vertex $-1 $613 $776 #
point $-1 58.676518262748345 18.293600625038309 4.9670149977095566 #
edge $-1 $729 82.349344568636766 $732 95.427809522323344 $618 $777 forward 7 unknown #
vertex $-1 $632 $778 #
straight-curve $-1 15.956837739426959 27.02974072606699 14.716908324905063 1 0 0 I I #
edge $-1 $732 10.704351160817151 $629 21.946427969682528 $628 $779 forward 7 unknown #
vertex $-1 $731 $780 #
straight-curve $-1 -45.624828924909934 27.02974072606699 79.176947774982324 -0.82903756765294845 0 0.55919291073839883 I I #
point $-1 49.941107785445311 27.02974072606699 14.716908324905063 #
point $-1 69.330729087191386 38.271817534932367 1.6384433712184858 #
straight-curve $-1 69.330729087191386 0 14.716908324905067 0 1 0 I I #
vertex $-1 $635 $781 #
point $-1 58.676518262748345 30.241762671457089 4.9670149977095566 #
vertex $-1 $639 $782 #
point $-1 58.676518262748345 35.059795589542254 4.9670149977095566 #
straight-curve $-1 -69.330729087191386 40.299927718716724 0 0 0 -1 I I #
point $-1 -69.330729087191386 -40.299927718716724 -14.716908324905067 #
straight-curve $-1 -69.330729087191386 0 -14.716908324905067 0 1 0 I I #
point $-1 -69.330729087191386 40.299927718716724 -14.716908324905067 #
coedge $-1 $665 $661 $670 $750 forward $498 $-1 #
vertex $-1 $662 $783 #
straight-curve $-1 -69.330729087191386 0 14.716908324905067 0 -1 0 I I #
point $-1 -69.330729087191386 -25.296954351229225 14.716908324905068 #
straight-curve $-1 69.330729087191386 0 14.716908324905067 0 1 0 I I #
edge $-1 $746 -69.330729087191386 $674 69.330729087191386 $670 $784 forward 7 unknown #
straight-curve $-1 -69.330729087191386 -40.299927718716724 0 0 0 -1 I I #
point $-1 69.330729087191386 -40.299927718716724 14.716908324905067 #
edge $-1 $685 -14.716908324905067 $679 -6.1615053970897007 $676 $785 forward 7 unknown #
straight-curve $-1 -69.330729087191386 17.037129854029498 6.1615053970896927 0 -1 0 I I #
point $-1 -69.330729087191386 40.29992771871671 6.1615053970897007 #
straight-curve $-1 0 40.299927718716724 14.716908324905067 -1 0 0 I I #
point $-1 -69.330729087191386 40.299927718716724 14.716908324905067 #
point $-1 -59.329827823434513 34.074259708058996 4.5961162457562095 #
straight-curve $-1 69.330729087191386 -23.268844167444854 97.066252893541829 0 0 -1 I I #
point $-1 69.330729087191386 -23.268844167444854 14.716908324905067 #
straight-curve $-1 69.330729087191386 -8.8239028815060827 1.6384433712184858 0 1 0 I I #
point $-1 69.330729087191386 -23.268844167444854 1.6384433712184858 #
point $-1 57.288287784356996 -20.056822222054748 4.6971703407950072 #
point $-1 57.288287784356996 -15.238789303969586 4.6971703407950072 #
straight-curve $-1 69.330729087191386 -6.5026492029409102 97.066252893541829 0 0 -1 I I #
point $-1 69.330729087191386 -6.5026492029409102 14.716908324905067 #
straight-curve $-1 69.330729087191386 -0.44080539925410989 1.6384433712184858 0 1 0 I I #
point $-1 69.330729087191386 -6.5026492029409102 1.6384433712184858 #
point $-1 57.288287784356996 -3.2906272575508027 4.6971703407950072 #
point $-1 57.288287784356996 1.5274056605343631 4.6971703407950072 #
straight-curve $-1 69.330729087191386 10.263545761563035 97.066252893541829 0 0 -1 I I #
point $-1 69.330729087191386 10.263545761563035 14.716908324905067 #
straight-curve $-1 69.330729087191386 7.9422920829978629 1.6384433712184858 0 1 0 I I #
point $-1 69.330729087191386 10.263545761563035 1.6384433712184858 #
point $-1 57.288287784356996 13.475567706953143 4.6971703407950072 #
point $-1 57.288287784356996 18.293600625038309 4.6971703407950072 #
straight-curve $-1 69.330729087191386 27.02974072606699 97.066252893541829 0 0 -1 I I #
point $-1 69.330729087191386 27.02974072606699 14.716908324905067 #
straight-curve $-1 69.330729087191386 16.325389565249839 1.6384433712184858 0 1 0 I I #
point $-1 69.330729087191386 27.02974072606699 1.6384433712184858 #
point $-1 57.288287784356996 30.241762671457089 4.6971703407950072 #
point $-1 57.288287784356996 35.059795589542254 4.6971703407950072 #
point $-1 -69.330729087191386 -40.299927718716724 14.716908324905067 #
straight-curve $-1 0 -40.299927718716724 14.716908324905067 1 0 0 I I #
straight-curve $-1 -69.330729087191386 40.299927718716724 0 0 0 -1 I I #
End-of-ACIS-data 