500 0 8 0           
7 Unknown 11 ACIS 5.0 NT 24 Fri Mar 26 15:38:21 1999 
-1 9.9999999999999995e-007 1e-010 
body $-1 $8 $-1 $9 #
body $-1 $10 $-1 $11 #
body $-1 $12 $-1 $13 #
body $-1 $14 $-1 $15 #
body $-1 $16 $-1 $17 #
body $-1 $18 $-1 $19 #
body $-1 $20 $-1 $21 #
body $-1 $22 $-1 $23 #
lump $-1 $-1 $24 $0 #
transform $-1 1 0 0 0 1 0 0 0 1 41.920224616229746 29.144579758899752 13.577529968492099 1 rotate no_reflect no_shear #
lump $-1 $-1 $25 $1 #
transform $-1 1 0 0 0 1 0 0 0 1 41.920224616229746 29.144579758899752 13.577529968492099 1 rotate no_reflect no_shear #
lump $-1 $-1 $26 $2 #
transform $-1 1 0 0 0 1 0 0 0 1 41.920224616229746 29.144579758899752 13.577529968492099 1 rotate no_reflect no_shear #
lump $-1 $-1 $27 $3 #
transform $-1 1 0 0 0 1 0 0 0 1 41.920224616229746 29.144579758899752 13.577529968492099 1 rotate no_reflect no_shear #
lump $-1 $-1 $28 $4 #
transform $-1 1 0 0 0 1 0 0 0 1 41.920224616229746 29.144579758899752 13.577529968492099 1 rotate no_reflect no_shear #
lump $-1 $-1 $29 $5 #
transform $-1 1 0 0 0 1 0 0 0 1 41.920224616229746 29.144579758899752 13.577529968492099 1 rotate no_reflect no_shear #
lump $-1 $-1 $30 $6 #
transform $-1 1 0 0 0 1 0 0 0 1 41.920224616229746 29.144579758899752 13.577529968492099 1 rotate no_reflect no_shear #
lump $-1 $-1 $31 $7 #
transform $-1 1 0 0 0 1 0 0 0 1 41.920224616229746 29.144579758899752 13.577529968492099 1 rotate no_reflect no_shear #
shell $-1 $-1 $-1 $32 $-1 $8 #
shell $-1 $-1 $-1 $33 $-1 $10 #
shell $-1 $-1 $-1 $34 $-1 $12 #
shell $-1 $-1 $-1 $35 $-1 $14 #
shell $-1 $-1 $-1 $36 $-1 $16 #
shell $-1 $-1 $-1 $37 $-1 $18 #
shell $-1 $-1 $-1 $38 $-1 $20 #
shell $-1 $-1 $-1 $39 $-1 $22 #
face $-1 $40 $41 $24 $-1 $42 forward single #
face $-1 $43 $44 $25 $-1 $45 reversed single #
face $-1 $46 $47 $26 $-1 $48 forward single #
face $-1 $49 $50 $27 $-1 $51 forward single #
face $-1 $52 $53 $28 $-1 $54 forward single #
face $-1 $55 $56 $29 $-1 $57 reversed single #
face $-1 $58 $59 $30 $-1 $60 forward single #
face $-1 $61 $62 $31 $-1 $63 forward single #
face $-1 $64 $65 $24 $-1 $66 reversed single #
loop $-1 $-1 $67 $32 #
plane-surface $-1 0 0 13.577529968492099 0 0 1 1 0 0 forward_v I I I I #
face $-1 $68 $69 $25 $-1 $70 reversed single #
loop $-1 $-1 $71 $33 #
plane-surface $-1 -9.6693954313167687 72.607960329445632 98.34112034710013 1 0 0 0 -0.86602541151947299 -0.49999998660252726 forward_v I I I I #
face $-1 $72 $73 $26 $-1 $74 forward single #
loop $-1 $75 $76 $34 #
cone-surface $-1 -7.0999122339468457 26.318389626191593 9.4003194776454055 0 -0.86602541151947299 -0.49999998660252726 0.5 0 0 1 I I 0 1 0.5 forward I I I I #
face $-1 $77 $78 $27 $-1 $79 forward single #
loop $-1 $80 $81 $35 #
cone-surface $-1 -3.2456874378919522 26.318389626191593 9.4003194776454055 0 -0.86602541151947299 -0.49999998660252726 0.5 0 0 1 I I 0 1 0.5 forward I I I I #
face $-1 $82 $83 $28 $-1 $84 forward single #
loop $-1 $85 $86 $36 #
cone-surface $-1 0.60853735816294119 26.318389626191593 9.4003194776454055 0 -0.86602541151947299 -0.49999998660252726 0.5 0 0 1 I I 0 1 0.5 forward I I I I #
face $-1 $87 $88 $29 $-1 $89 reversed single #
loop $-1 $-1 $90 $37 #
plane-surface $-1 2.4959898796483078 -77.233486471489826 74.910576279570577 -1 0 0 0 -0.57357644374324357 0.81915203911291934 forward_v I I I I #
face $-1 $91 $92 $30 $-1 $93 forward single #
loop $-1 $94 $95 $38 #
cone-surface $-1 -7.0733112930523347 -22.983358669795898 8.5963648311461274 0 0.57357644374324357 -0.81915203911291934 1 0 0 1 I I 0 1 1 forward I I I I #
face $-1 $96 $97 $31 $-1 $98 forward single #
loop $-1 $99 $100 $39 #
cone-surface $-1 -1.3317305894319489 -22.983358669795898 8.5963648311461274 0 0.57357644374324357 -0.81915203911291934 1 0 0 1 I I 0 1 1 forward I I I I #
face $-1 $101 $102 $24 $-1 $103 reversed single #
loop $-1 $-1 $104 $40 #
plane-surface $-1 0 0 -13.577529968492099 0 0 1 1 0 0 forward_v I I I I #
coedge $-1 $105 $106 $107 $108 forward $41 $-1 #
face $-1 $109 $110 $25 $-1 $111 reversed single #
loop $-1 $-1 $112 $43 #
plane-surface $-1 -3.2456874378919451 7.8092742228363932e-007 56.420896854120521 0 0.86602541151947299 0.49999998660252726 1 0 0 forward_v I I I I #
coedge $-1 $113 $114 $115 $116 reversed $44 $-1 #
face $-1 $-1 $117 $26 $-1 $118 forward single #
loop $-1 $119 $120 $46 #
cone-surface $-1 -7.0999122339468457 25.480168369245881 8.9163722265971206 0 -0.86602541151947299 -0.49999998660252726 0.25 0 0 1 I I -0.70710678118654746 0.70710678118654746 0.25 forward I I I I #
loop $-1 $-1 $121 $34 #
coedge $-1 $76 $76 $122 $123 reversed $47 $-1 #
face $-1 $-1 $124 $27 $-1 $125 forward single #
loop $-1 $126 $127 $49 #
cone-surface $-1 -3.2456874378919522 25.480168369245881 8.9163722265971206 0 -0.86602541151947299 -0.49999998660252726 0.25 0 0 1 I I -0.70710678118654746 0.70710678118654746 0.25 forward I I I I #
loop $-1 $-1 $128 $35 #
coedge $-1 $81 $81 $129 $130 reversed $50 $-1 #
face $-1 $-1 $131 $28 $-1 $132 forward single #
loop $-1 $133 $134 $52 #
cone-surface $-1 0.60853735816294119 25.480168369245881 8.9163722265971206 0 -0.86602541151947299 -0.49999998660252726 0.25 0 0 1 I I -0.70710678118654746 0.70710678118654746 0.25 forward I I I I #
loop $-1 $-1 $135 $36 #
coedge $-1 $86 $86 $136 $137 reversed $53 $-1 #
face $-1 $138 $139 $29 $-1 $140 reversed single #
loop $-1 $-1 $141 $55 #
plane-surface $-1 -4.2025209412421418 -29.144579758899759 6.2325013306581951 0 -0.57357644374324357 0.81915203911291934 1 0 0 forward_v I I I I #
coedge $-1 $142 $143 $144 $145 reversed $56 $-1 #
face $-1 $-1 $146 $30 $-1 $147 forward single #
loop $-1 $148 $149 $58 #
cone-surface $-1 -7.0733112930523347 -21.780243262376334 6.8781379931606512 0 0.57357644374324357 -0.81915203911291934 0.5 0 0 1 I I -0.70710678118654813 0.70710678118654691 0.5 forward I I I I #
loop $-1 $-1 $150 $38 #
coedge $-1 $95 $95 $151 $152 reversed $59 $-1 #
face $-1 $-1 $153 $31 $-1 $154 forward single #
loop $-1 $155 $156 $61 #
cone-surface $-1 -1.3317305894319489 -21.780243262376334 6.8781379931606512 0 0.57357644374324357 -0.81915203911291934 0.5 0 0 1 I I -0.70710678118654813 0.70710678118654691 0.5 forward I I I I #
loop $-1 $-1 $157 $39 #
coedge $-1 $100 $100 $158 $159 reversed $62 $-1 #
face $-1 $160 $161 $24 $-1 $162 reversed single #
loop $-1 $-1 $163 $64 #
plane-surface $-1 0 -29.144579758899752 0 0 1 0 0 0 1 forward_v I I I I #
coedge $-1 $164 $165 $166 $167 forward $65 $-1 #
coedge $-1 $168 $67 $169 $170 forward $41 $-1 #
coedge $-1 $67 $168 $171 $172 forward $41 $-1 #
coedge $-1 $173 $174 $67 $108 reversed $175 $-1 #
edge $-1 $176 -29.144579758899752 $177 29.144579758899752 $107 $178 forward 7 unknown #
face $-1 $179 $180 $25 $-1 $181 reversed single #
loop $-1 $-1 $182 $68 #
plane-surface $-1 3.1780205555328784 72.607960329445632 98.34112034710013 -1 0 0 0 0.86602541151947299 0.49999998660252726 forward_v I I I I #
coedge $-1 $183 $184 $185 $186 reversed $69 $-1 #
coedge $-1 $114 $71 $187 $188 reversed $44 $-1 #
coedge $-1 $71 $113 $183 $189 reversed $44 $-1 #
coedge $-1 $185 $190 $71 $116 forward $191 $-1 #
edge $-1 $192 7.1594004058230638 $193 11.568350863107703 $115 $194 forward 7 unknown #
loop $-1 $-1 $122 $72 #
plane-surface $-1 -3.2456874378919451 7.8092742228363932e-007 56.420896854120521 0 0.86602541151947299 0.49999998660252726 1 0 0 forward_v I I I I #
loop $-1 $-1 $195 $46 #
coedge $-1 $120 $120 $121 $196 reversed $73 $-1 #
coedge $-1 $121 $121 $120 $196 forward $75 $-1 #
coedge $-1 $122 $122 $76 $123 forward $117 $-1 #
edge $-1 $197 9.5194651582333438e-016 $197 6.2831853071796013 $122 $198 forward 7 unknown #
loop $-1 $-1 $129 $77 #
plane-surface $-1 -3.2456874378919451 7.8092742228363932e-007 56.420896854120521 0 0.86602541151947299 0.49999998660252726 1 0 0 forward_v I I I I #
loop $-1 $-1 $199 $49 #
coedge $-1 $127 $127 $128 $200 reversed $78 $-1 #
coedge $-1 $128 $128 $127 $200 forward $80 $-1 #
coedge $-1 $129 $129 $81 $130 forward $124 $-1 #
edge $-1 $201 9.5194651582333438e-016 $201 6.2831853071796013 $129 $202 forward 7 unknown #
loop $-1 $-1 $136 $82 #
plane-surface $-1 -3.2456874378919451 7.8092742228363932e-007 56.420896854120521 0 0.86602541151947299 0.49999998660252726 1 0 0 forward_v I I I I #
loop $-1 $-1 $203 $52 #
coedge $-1 $134 $134 $135 $204 reversed $83 $-1 #
coedge $-1 $135 $135 $134 $204 forward $85 $-1 #
coedge $-1 $136 $136 $86 $137 forward $131 $-1 #
edge $-1 $205 9.5194651582333438e-016 $205 6.2831853071796013 $136 $206 forward 7 unknown #
face $-1 $207 $208 $29 $-1 $209 reversed single #
loop $-1 $-1 $210 $87 #
plane-surface $-1 -10.901031762132591 -77.233486471489826 74.910576279570577 1 0 0 0 0.57357644374324357 -0.81915203911291934 forward_v I I I I #
coedge $-1 $211 $212 $213 $214 reversed $88 $-1 #
coedge $-1 $143 $90 $215 $216 reversed $56 $-1 #
coedge $-1 $90 $142 $211 $217 reversed $56 $-1 #
coedge $-1 $213 $218 $90 $145 forward $219 $-1 #
edge $-1 $220 9.4721634768451608 $221 19.961951283956967 $144 $222 forward 7 unknown #
loop $-1 $-1 $151 $91 #
plane-surface $-1 -4.2025209412421418 -29.144579758899759 6.2325013306581951 0 -0.57357644374324357 0.81915203911291934 1 0 0 forward_v I I I I #
loop $-1 $-1 $223 $58 #
coedge $-1 $149 $149 $150 $224 reversed $92 $-1 #
coedge $-1 $150 $150 $149 $224 forward $94 $-1 #
coedge $-1 $151 $151 $95 $152 forward $146 $-1 #
edge $-1 $225 -2.1841695394371275e-015 $225 6.2831853071795987 $151 $226 forward 7 unknown #
loop $-1 $-1 $158 $96 #
plane-surface $-1 -4.2025209412421418 -29.144579758899759 6.2325013306581951 0 -0.57357644374324357 0.81915203911291934 1 0 0 forward_v I I I I #
loop $-1 $-1 $227 $61 #
coedge $-1 $156 $156 $157 $228 reversed $97 $-1 #
coedge $-1 $157 $157 $156 $228 forward $99 $-1 #
coedge $-1 $158 $158 $100 $159 forward $153 $-1 #
edge $-1 $229 -2.1841695394371275e-015 $229 6.2831853071795987 $158 $230 forward 7 unknown #
face $-1 $231 $232 $24 $-1 $233 reversed single #
loop $-1 $-1 $234 $101 #
plane-surface $-1 -41.920224616229746 0 0 1 0 0 0 0 -1 forward_v I I I I #
coedge $-1 $235 $171 $236 $237 forward $102 $-1 #
coedge $-1 $238 $104 $235 $239 forward $65 $-1 #
coedge $-1 $104 $238 $240 $241 forward $65 $-1 #
coedge $-1 $174 $173 $104 $167 reversed $175 $-1 #
edge $-1 $242 -29.144579758899752 $243 29.144579758899752 $166 $244 forward 7 unknown #
coedge $-1 $106 $105 $245 $246 forward $41 $-1 #
coedge $-1 $247 $248 $105 $170 reversed $232 $-1 #
edge $-1 $177 -41.920224616229746 $249 41.920224616229746 $169 $250 forward 7 unknown #
coedge $-1 $163 $251 $106 $172 reversed $102 $-1 #
edge $-1 $252 -41.920224616229746 $176 41.920224616229746 $171 $253 forward 7 unknown #
coedge $-1 $166 $107 $251 $254 forward $175 $-1 #
coedge $-1 $107 $166 $247 $255 reversed $175 $-1 #
loop $-1 $-1 $173 $231 #
vertex $-1 $108 $256 #
vertex $-1 $108 $257 #
straight-curve $-1 41.920224616229746 0 13.577529968492099 0 1 0 I I #
face $-1 $-1 $191 $25 $-1 $258 forward single #
loop $-1 $-1 $259 $109 #
plane-surface $-1 0 29.144579758899752 0 0 -1 0 0 0 -1 forward_v I I I I #
coedge $-1 $260 $261 $262 $263 reversed $110 $-1 #
coedge $-1 $264 $112 $114 $189 forward $69 $-1 #
coedge $-1 $112 $264 $260 $265 forward $69 $-1 #
coedge $-1 $262 $115 $112 $186 forward $191 $-1 #
edge $-1 $193 -8.0465517123707961 $266 4.800864274478851 $185 $267 forward 7 unknown #
coedge $-1 $268 $269 $113 $188 forward $180 $-1 #
edge $-1 $270 -43.229556677956069 $192 -35.593030205057964 $187 $271 forward 7 unknown #
edge $-1 $193 49.471258366955048 $270 58.289159517799504 $114 $272 forward 7 unknown #
coedge $-1 $115 $262 $268 $273 forward $191 $-1 #
loop $-1 $-1 $262 $179 #
vertex $-1 $188 $274 #
vertex $-1 $116 $275 #
straight-curve $-1 -9.6693954313167687 36.303980164722816 13.577529968492101 0 -1 0 I I #
coedge $-1 $195 $195 $-1 $276 reversed $119 $-1 #
edge $-1 $277 0 $277 6.2831853071796004 $120 $278 forward 7 unknown #
vertex $-1 $123 $279 #
ellipse-curve $-1 -7.0999122339468457 26.940104530257429 9.7592667320430557 0 0.86602541151947299 0.49999998660252726 0.5 0 0 1 I I #
coedge $-1 $199 $199 $-1 $280 reversed $126 $-1 #
edge $-1 $281 0 $281 6.2831853071796004 $127 $282 forward 7 unknown #
vertex $-1 $130 $283 #
ellipse-curve $-1 -3.2456874378919522 26.940104530257429 9.7592667320430557 0 0.86602541151947299 0.49999998660252726 0.5 0 0 1 I I #
coedge $-1 $203 $203 $-1 $284 reversed $133 $-1 #
edge $-1 $285 0 $285 6.2831853071796004 $134 $286 forward 7 unknown #
vertex $-1 $137 $287 #
ellipse-curve $-1 0.60853735816294119 26.940104530257429 9.7592667320430557 0 0.86602541151947299 0.49999998660252726 0.5 0 0 1 I I #
face $-1 $-1 $219 $29 $-1 $288 forward single #
loop $-1 $-1 $289 $138 #
plane-surface $-1 0 -29.144579758899752 0 0 1 0 0 0 1 forward_v I I I I #
coedge $-1 $290 $291 $292 $293 reversed $139 $-1 #
coedge $-1 $294 $141 $143 $217 forward $88 $-1 #
coedge $-1 $141 $294 $290 $295 forward $88 $-1 #
coedge $-1 $292 $144 $141 $214 forward $219 $-1 #
edge $-1 $221 -4.5972503502693787 $296 8.7997712915115205 $213 $297 forward 7 unknown #
coedge $-1 $298 $299 $142 $216 forward $208 $-1 #
edge $-1 $300 -31.222786809127086 $220 -23.877758171293188 $215 $301 forward 7 unknown #
edge $-1 $221 -12.805666477338532 $300 -8.8770546250341341e-015 $143 $302 forward 7 unknown #
coedge $-1 $144 $292 $298 $303 forward $219 $-1 #
loop $-1 $-1 $292 $207 #
vertex $-1 $216 $304 #
vertex $-1 $145 $305 #
straight-curve $-1 2.4959898796483078 -38.616743235744913 13.577529968492101 0 1 0 I I #
coedge $-1 $223 $223 $-1 $306 reversed $148 $-1 #
edge $-1 $307 0 $307 6.2831853071796004 $149 $308 forward 7 unknown #
vertex $-1 $152 $309 #
ellipse-curve $-1 -7.0733112930523347 -23.899685855343847 9.9050156495751516 0 -0.57357644374324357 0.81915203911291934 1 0 0 1 I I #
coedge $-1 $227 $227 $-1 $310 reversed $155 $-1 #
edge $-1 $311 0 $311 6.2831853071796004 $156 $312 forward 7 unknown #
vertex $-1 $159 $313 #
ellipse-curve $-1 -1.3317305894319489 -23.899685855343847 9.9050156495751516 0 -0.57357644374324357 0.81915203911291934 1 0 0 1 I I #
face $-1 $-1 $175 $24 $-1 $314 reversed single #
loop $-1 $-1 $247 $160 #
plane-surface $-1 0 29.144579758899752 0 0 -1 0 0 0 -1 forward_v I I I I #
coedge $-1 $315 $245 $248 $316 forward $161 $-1 #
coedge $-1 $251 $163 $164 $239 reversed $102 $-1 #
coedge $-1 $245 $315 $163 $237 reversed $161 $-1 #
edge $-1 $252 -13.577529968492099 $317 13.577529968492099 $236 $318 forward 7 unknown #
coedge $-1 $165 $164 $315 $319 forward $65 $-1 #
edge $-1 $243 -41.920224616229746 $317 41.920224616229746 $235 $320 forward 7 unknown #
coedge $-1 $248 $247 $165 $241 reversed $232 $-1 #
edge $-1 $321 -41.920224616229746 $242 41.920224616229746 $240 $322 forward 7 unknown #
vertex $-1 $167 $323 #
vertex $-1 $254 $324 #
straight-curve $-1 41.920224616229746 0 -13.577529968492099 0 -1 0 I I #
coedge $-1 $234 $236 $168 $246 reversed $161 $-1 #
edge $-1 $249 -29.144579758899752 $252 29.144579758899752 $245 $325 forward 7 unknown #
coedge $-1 $240 $169 $174 $255 forward $232 $-1 #
coedge $-1 $169 $240 $234 $316 reversed $232 $-1 #
vertex $-1 $170 $326 #
straight-curve $-1 0 29.144579758899752 13.577529968492099 -1 0 0 I I #
coedge $-1 $171 $235 $173 $254 reversed $102 $-1 #
vertex $-1 $246 $327 #
straight-curve $-1 0 -29.144579758899752 13.577529968492099 1 0 0 I I #
edge $-1 $176 -13.577529968492099 $243 13.577529968492099 $173 $328 forward 7 unknown #
edge $-1 $177 -13.577529968492099 $242 13.577529968492099 $174 $329 forward 7 unknown #
point $-1 41.920224616229746 -29.144579758899752 13.577529968492099 #
point $-1 41.920224616229746 29.144579758899752 13.577529968492099 #
plane-surface $-1 0 0 13.577529968492099 0 0 1 1 0 0 forward_v I I I I #
coedge $-1 $269 $268 $261 $330 forward $180 $-1 #
coedge $-1 $261 $182 $184 $265 reversed $110 $-1 #
coedge $-1 $182 $260 $259 $330 reversed $110 $-1 #
coedge $-1 $190 $185 $182 $263 forward $191 $-1 #
edge $-1 $266 -11.568350863107703 $331 -7.1594004058230638 $262 $332 forward 7 unknown #
coedge $-1 $184 $183 $269 $333 reversed $69 $-1 #
edge $-1 $334 -58.289159517799504 $266 -49.471258366955048 $260 $335 forward 7 unknown #
vertex $-1 $186 $336 #
straight-curve $-1 -1.6228437189459726 24.735629301615113 13.577529968492101 1 0 0 I I #
coedge $-1 $259 $187 $190 $273 reversed $180 $-1 #
coedge $-1 $187 $259 $264 $333 forward $180 $-1 #
vertex $-1 $188 $337 #
straight-curve $-1 -9.6693954313167687 29.144579758899752 49.170560173550065 0 0 1 I I #
straight-curve $-1 -9.6693954313167687 7.8092742228363932e-007 56.420896854120521 0 0.49999998660252726 -0.86602541151947299 I I #
edge $-1 $331 -3.1780205555328784 $192 9.6693954313167687 $268 $338 forward 7 unknown #
point $-1 -9.6693954313167687 29.144579758899752 13.577529968492099 #
point $-1 -9.6693954313167687 24.735629301615113 13.577529968492101 #
edge $-1 $339 1 $339 0 $195 $-1 forward 7 unknown #
vertex $-1 $196 $340 #
ellipse-curve $-1 -7.0999122339468457 25.696674722125749 9.0413722232477518 0 0.86602541151947299 0.49999998660252726 0.5 0 0 1 I I #
point $-1 -6.5999122339468457 26.940104530257436 9.7592667320430593 #
edge $-1 $341 1 $341 0 $199 $-1 forward 7 unknown #
vertex $-1 $200 $342 #
ellipse-curve $-1 -3.2456874378919522 25.696674722125749 9.0413722232477518 0 0.86602541151947299 0.49999998660252726 0.5 0 0 1 I I #
point $-1 -2.7456874378919522 26.940104530257436 9.7592667320430593 #
edge $-1 $343 1 $343 0 $203 $-1 forward 7 unknown #
vertex $-1 $204 $344 #
ellipse-curve $-1 0.60853735816294119 25.696674722125749 9.0413722232477518 0 0.86602541151947299 0.49999998660252726 0.5 0 0 1 I I #
point $-1 1.1085373581629412 26.940104530257436 9.7592667320430593 #
plane-surface $-1 0 0 13.577529968492099 0 0 1 1 0 0 forward_v I I I I #
coedge $-1 $299 $298 $291 $345 forward $208 $-1 #
coedge $-1 $291 $210 $212 $295 reversed $139 $-1 #
coedge $-1 $210 $290 $289 $345 reversed $139 $-1 #
coedge $-1 $218 $213 $210 $293 forward $219 $-1 #
edge $-1 $296 -19.961951283956967 $346 -9.4721634768451608 $292 $347 forward 7 unknown #
coedge $-1 $212 $211 $299 $348 reversed $88 $-1 #
edge $-1 $349 8.8770546250341341e-015 $296 12.805666477338532 $290 $350 forward 7 unknown #
vertex $-1 $214 $351 #
straight-curve $-1 -2.1012604706210709 -18.654791951787949 13.577529968492099 -1 0 0 I I #
coedge $-1 $289 $215 $218 $303 reversed $208 $-1 #
coedge $-1 $215 $289 $294 $348 forward $208 $-1 #
vertex $-1 $216 $352 #
straight-curve $-1 2.4959898796483078 -29.144579758899752 37.455288139785289 0 0 1 I I #
straight-curve $-1 2.4959898796483078 -29.144579758899759 6.2325013306581951 0 -0.81915203911291934 -0.57357644374324357 I I #
edge $-1 $346 -10.901031762132591 $220 2.4959898796483078 $298 $353 forward 7 unknown #
point $-1 2.4959898796483078 -29.144579758899752 13.577529968492099 #
point $-1 2.4959898796483078 -18.654791951787946 13.577529968492099 #
edge $-1 $354 1 $354 0 $223 $-1 forward 7 unknown #
vertex $-1 $224 $355 #
ellipse-curve $-1 -7.0733112930523347 -22.067031484247956 7.2877140127171103 0 -0.57357644374324357 0.81915203911291934 1 0 0 1 I I #
point $-1 -6.0733112930523347 -23.899685855343844 9.9050156495751427 #
edge $-1 $356 1 $356 0 $227 $-1 forward 7 unknown #
vertex $-1 $228 $357 #
ellipse-curve $-1 -1.3317305894319489 -22.067031484247956 7.2877140127171103 0 -0.57357644374324357 0.81915203911291934 1 0 0 1 I I #
point $-1 -0.33173058943194889 -23.899685855343844 9.9050156495751427 #
plane-surface $-1 41.920224616229746 0 0 -1 0 0 0 0 1 forward_v I I I I #
coedge $-1 $236 $234 $238 $319 reversed $161 $-1 #
edge $-1 $249 -13.577529968492099 $321 13.577529968492099 $248 $358 forward 7 unknown #
vertex $-1 $319 $359 #
straight-curve $-1 -41.920224616229746 -29.144579758899752 0 0 0 -1 I I #
edge $-1 $317 -29.144579758899752 $321 29.144579758899752 $315 $360 forward 7 unknown #
straight-curve $-1 0 -29.144579758899752 -13.577529968492099 -1 0 0 I I #
vertex $-1 $241 $361 #
straight-curve $-1 0 29.144579758899752 -13.577529968492099 1 0 0 I I #
point $-1 41.920224616229746 29.144579758899752 -13.577529968492099 #
point $-1 41.920224616229746 -29.144579758899752 -13.577529968492099 #
straight-curve $-1 -41.920224616229746 0 13.577529968492099 0 -1 0 I I #
point $-1 -41.920224616229746 29.144579758899752 13.577529968492099 #
point $-1 -41.920224616229746 -29.144579758899752 13.577529968492099 #
straight-curve $-1 41.920224616229746 -29.144579758899752 0 0 0 -1 I I #
straight-curve $-1 41.920224616229746 29.144579758899752 0 0 0 -1 I I #
edge $-1 $331 35.593030205057964 $334 43.229556677956069 $259 $362 forward 7 unknown #
vertex $-1 $273 $363 #
straight-curve $-1 3.1780205555328784 36.303980164722816 13.577529968492101 0 1 0 I I #
edge $-1 $334 -4.800864274478851 $270 8.0465517123707961 $269 $364 forward 7 unknown #
vertex $-1 $333 $365 #
straight-curve $-1 3.1780205555328784 7.8092742228363932e-007 56.420896854120521 0 -0.49999998660252726 0.86602541151947299 I I #
point $-1 3.1780205555328784 24.735629301615113 13.577529968492101 #
point $-1 -9.6693954313167687 29.144579758899752 5.9410034955939963 #
straight-curve $-1 0 29.144579758899752 13.577529968492099 -1 0 0 I I #
vertex $-1 $276 $366 #
point $-1 -6.5999122339468457 25.696674722125749 9.0413722232477518 #
vertex $-1 $280 $367 #
point $-1 -2.7456874378919522 25.696674722125749 9.0413722232477518 #
vertex $-1 $284 $368 #
point $-1 1.1085373581629412 25.696674722125749 9.0413722232477518 #
edge $-1 $346 23.877758171293188 $349 31.222786809127086 $289 $369 forward 7 unknown #
vertex $-1 $303 $370 #
straight-curve $-1 -10.901031762132591 -38.616743235744913 13.577529968492101 0 -1 0 I I #
edge $-1 $349 -8.7997712915115205 $300 4.5972503502693787 $299 $371 forward 7 unknown #
vertex $-1 $348 $372 #
straight-curve $-1 -10.901031762132591 -29.144579758899759 6.2325013306581951 0 0.81915203911291934 0.57357644374324357 I I #
point $-1 -10.901031762132591 -18.654791951787946 13.577529968492099 #
point $-1 2.4959898796483078 -29.144579758899752 6.2325013306582004 #
straight-curve $-1 0 -29.144579758899752 13.577529968492099 1 0 0 I I #
vertex $-1 $306 $373 #
point $-1 -6.0733112930523347 -22.067031484247956 7.2877140127171103 #
vertex $-1 $310 $374 #
point $-1 -0.33173058943194889 -22.067031484247956 7.2877140127171103 #
straight-curve $-1 -41.920224616229746 29.144579758899752 0 0 0 -1 I I #
point $-1 -41.920224616229746 -29.144579758899752 -13.577529968492099 #
straight-curve $-1 -41.920224616229746 0 -13.577529968492099 0 1 0 I I #
point $-1 -41.920224616229746 29.144579758899752 -13.577529968492099 #
straight-curve $-1 3.1780205555328784 29.144579758899752 49.170560173550065 0 0 -1 I I #
point $-1 3.1780205555328784 29.144579758899752 13.577529968492099 #
straight-curve $-1 -1.6228437189459726 29.144579758899752 5.9410034955939892 -1 0 0 I I #
point $-1 3.1780205555328784 29.144579758899752 5.9410034955939963 #
point $-1 -7.0999122339468457 25.263662016366013 8.7913722299464894 #
point $-1 -3.2456874378919522 25.263662016366013 8.7913722299464894 #
point $-1 0.60853735816294119 25.263662016366013 8.7913722299464894 #
straight-curve $-1 -10.901031762132591 -29.144579758899752 37.455288139785289 0 0 -1 I I #
point $-1 -10.901031762132591 -29.144579758899752 13.577529968492099 #
straight-curve $-1 -2.1012604706210709 -29.144579758899752 6.2325013306582013 1 0 0 I I #
point $-1 -10.901031762132591 -29.144579758899752 6.2325013306582004 #
point $-1 -7.0733112930523347 -21.493455040504713 6.4685619736041922 #
point $-1 -1.3317305894319489 -21.493455040504713 6.4685619736041922 #
End-of-ACIS-data 