500 0 12 0           
7 Unknown 11 ACIS 5.0 NT 24 Thu Mar 25 17:44:54 1999 
-1 9.9999999999999995e-007 1e-010 
body $-1 $12 $-1 $13 #
body $-1 $14 $-1 $15 #
body $-1 $16 $-1 $17 #
body $-1 $18 $-1 $19 #
body $-1 $20 $-1 $21 #
body $-1 $22 $-1 $23 #
body $-1 $24 $-1 $25 #
body $-1 $26 $-1 $27 #
body $-1 $28 $-1 $29 #
body $-1 $30 $-1 $31 #
body $-1 $32 $-1 $33 #
body $-1 $34 $-1 $35 #
lump $-1 $-1 $36 $0 #
transform $-1 1 0 0 0 1 0 0 0 1 41.582079531235692 26.660271548569142 5.7482269497813698 1 rotate no_reflect no_shear #
lump $-1 $-1 $37 $1 #
transform $-1 1 0 0 0 1 0 0 0 1 41.582079531235692 26.660271548569142 5.7482269497813698 1 rotate no_reflect no_shear #
lump $-1 $-1 $38 $2 #
transform $-1 1 0 0 0 1 0 0 0 1 41.582079531235692 26.660271548569142 5.7482269497813698 1 rotate no_reflect no_shear #
lump $-1 $-1 $39 $3 #
transform $-1 1 0 0 0 1 0 0 0 1 41.582079531235692 26.660271548569142 5.7482269497813698 1 rotate no_reflect no_shear #
lump $-1 $-1 $40 $4 #
transform $-1 1 0 0 0 1 0 0 0 1 41.582079531235692 26.660271548569142 5.7482269497813698 1 rotate no_reflect no_shear #
lump $-1 $-1 $41 $5 #
transform $-1 1 0 0 0 1 0 0 0 1 41.582079531235692 26.660271548569142 5.7482269497813698 1 rotate no_reflect no_shear #
lump $-1 $-1 $42 $6 #
transform $-1 1 0 0 0 1 0 0 0 1 41.582079531235692 26.660271548569142 5.7482269497813698 1 rotate no_reflect no_shear #
lump $-1 $-1 $43 $7 #
transform $-1 1 0 0 0 1 0 0 0 1 41.582079531235692 26.660271548569142 5.7482269497813698 1 rotate no_reflect no_shear #
lump $-1 $-1 $44 $8 #
transform $-1 1 0 0 0 1 0 0 0 1 41.582079531235692 26.660271548569142 5.7482269497813698 1 rotate no_reflect no_shear #
lump $-1 $-1 $45 $9 #
transform $-1 1 0 0 0 1 0 0 0 1 41.582079531235692 26.660271548569142 5.7482269497813698 1 rotate no_reflect no_shear #
lump $-1 $-1 $46 $10 #
transform $-1 1 0 0 0 1 0 0 0 1 41.582079531235692 26.660271548569142 5.7482269497813698 1 rotate no_reflect no_shear #
lump $-1 $-1 $47 $11 #
transform $-1 1 0 0 0 1 0 0 0 1 41.582079531235692 26.660271548569142 5.7482269497813698 1 rotate no_reflect no_shear #
shell $-1 $-1 $-1 $48 $-1 $12 #
shell $-1 $-1 $-1 $49 $-1 $14 #
shell $-1 $-1 $-1 $50 $-1 $16 #
shell $-1 $-1 $-1 $51 $-1 $18 #
shell $-1 $-1 $-1 $52 $-1 $20 #
shell $-1 $-1 $-1 $53 $-1 $22 #
shell $-1 $-1 $-1 $54 $-1 $24 #
shell $-1 $-1 $-1 $55 $-1 $26 #
shell $-1 $-1 $-1 $56 $-1 $28 #
shell $-1 $-1 $-1 $57 $-1 $30 #
shell $-1 $-1 $-1 $58 $-1 $32 #
shell $-1 $-1 $-1 $59 $-1 $34 #
face $-1 $60 $61 $36 $-1 $62 forward single #
face $-1 $63 $64 $37 $-1 $65 forward single #
face $-1 $66 $67 $38 $-1 $68 reversed single #
face $-1 $69 $70 $39 $-1 $71 forward single #
face $-1 $72 $73 $40 $-1 $74 forward single #
face $-1 $75 $76 $41 $-1 $77 forward single #
face $-1 $78 $79 $42 $-1 $80 reversed single #
face $-1 $81 $82 $43 $-1 $83 forward single #
face $-1 $84 $85 $44 $-1 $86 forward single #
face $-1 $87 $88 $45 $-1 $89 forward single #
face $-1 $90 $91 $46 $-1 $92 reversed single #
face $-1 $93 $94 $47 $-1 $95 forward single #
face $-1 $96 $97 $36 $-1 $98 reversed single #
loop $-1 $-1 $99 $48 #
plane-surface $-1 0 0 5.7482269497813698 0 0 1 1 0 0 forward_v I I I I #
face $-1 $100 $101 $37 $-1 $102 reversed single #
loop $-1 $-1 $103 $49 #
plane-surface $-1 0 -24.762719853974637 4.4929599638570163 0 0 1 1 0 0 forward_v I I I I #
face $-1 $104 $105 $38 $-1 $106 reversed single #
loop $-1 $-1 $107 $50 #
plane-surface $-1 -88.086887706490259 -8.586562334697641 70.740313609416901 0 1 0 -0.55919291073839883 0 0.82903756765294845 forward_v I I I I #
face $-1 $108 $109 $39 $-1 $110 forward single #
loop $-1 $111 $112 $51 #
cone-surface $-1 -38.371367076651353 -7.0163044077226893 3.3566454232455714 0.55919291073839883 0 -0.82903756765294845 0.41451878382647422 0 0.27959645536919941 1 I I 0 1 0.5 forward I I I I #
face $-1 $113 $114 $40 $-1 $115 forward single #
loop $-1 $116 $117 $52 #
cone-surface $-1 -38.371367076651353 -4.660917517260259 3.3566454232455714 0.55919291073839883 0 -0.82903756765294845 0.41451878382647422 0 0.27959645536919941 1 I I 0 1 0.5 forward I I I I #
face $-1 $118 $119 $41 $-1 $120 forward single #
loop $-1 $121 $122 $53 #
cone-surface $-1 -38.371367076651353 -2.3055306267978288 3.3566454232455714 0.55919291073839883 0 -0.82903756765294845 0.41451878382647422 0 0.27959645536919941 1 I I 0 1 0.5 forward I I I I #
face $-1 $123 $124 $42 $-1 $125 reversed single #
loop $-1 $-1 $126 $54 #
plane-surface $-1 -88.086887706490259 4.5303760890118863 70.740313609416901 0 1 0 -0.55919291073839883 0 0.82903756765294845 forward_v I I I I #
face $-1 $127 $128 $43 $-1 $129 forward single #
loop $-1 $130 $131 $55 #
cone-surface $-1 -38.371367076651353 6.1006340159868415 3.3566454232455714 0.55919291073839883 0 -0.82903756765294845 0.41451878382647422 0 0.27959645536919941 1 I I 0 1 0.5 forward I I I I #
face $-1 $132 $133 $44 $-1 $134 forward single #
loop $-1 $135 $136 $56 #
cone-surface $-1 -38.371367076651353 8.4560209064492682 3.3566454232455714 0.55919291073839883 0 -0.82903756765294845 0.41451878382647422 0 0.27959645536919941 1 I I 0 1 0.5 forward I I I I #
face $-1 $137 $138 $45 $-1 $139 forward single #
loop $-1 $140 $141 $57 #
cone-surface $-1 -38.371367076651353 10.811407796911702 3.3566454232455714 0.55919291073839883 0 -0.82903756765294845 0.41451878382647422 0 0.27959645536919941 1 I I 0 1 0.5 forward I I I I #
face $-1 $142 $143 $46 $-1 $144 reversed single #
loop $-1 $-1 $145 $58 #
plane-surface $-1 66.034966395960552 18.523915855530976 115.89182008764281 0 -1 0 -0.83867057594974714 0 -0.54463902268945019 forward_v I I I I #
face $-1 $146 $147 $47 $-1 $148 forward single #
loop $-1 $149 $150 $59 #
cone-surface $-1 39.486515823882357 12.469685863097133 2.9711153754233046 -0.83867057594974714 0 -0.54463902268945019 0.54463902268945019 0 -0.83867057594974714 1 I I 0 1 1 forward I I I I #
face $-1 $151 $152 $36 $-1 $153 reversed single #
loop $-1 $-1 $154 $60 #
plane-surface $-1 0 0 -5.7482269497813698 0 0 1 1 0 0 forward_v I I I I #
coedge $-1 $155 $156 $157 $158 forward $61 $-1 #
face $-1 $159 $160 $37 $-1 $161 reversed single #
loop $-1 $-1 $162 $63 #
plane-surface $-1 0 -24.762719853974637 1.4929599638570177 0 0 1 1 0 0 forward_v I I I I #
coedge $-1 $163 $164 $165 $166 reversed $64 $-1 #
face $-1 $167 $168 $38 $-1 $169 reversed single #
loop $-1 $-1 $170 $66 #
plane-surface $-1 -41.582079531235699 -4.660917517260259 1.7941014643627113 -0.55919291073839883 0 0.82903756765294845 0.82903756765294845 0 0.55919291073839883 forward_v I I I I #
coedge $-1 $171 $172 $173 $174 reversed $67 $-1 #
face $-1 $-1 $175 $39 $-1 $176 forward single #
loop $-1 $177 $178 $69 #
cone-surface $-1 -37.951972393597551 -7.0163044077226893 2.7348672475058597 0.55919291073839883 0 -0.82903756765294845 0.20725939191323711 0 0.13979822768459971 1 I I -0.70710678118654746 0.70710678118654746 0.25 forward I I I I #
loop $-1 $-1 $179 $51 #
coedge $-1 $112 $112 $180 $181 reversed $70 $-1 #
face $-1 $-1 $182 $40 $-1 $183 forward single #
loop $-1 $184 $185 $72 #
cone-surface $-1 -37.951972393597551 -4.660917517260259 2.7348672475058597 0.55919291073839883 0 -0.82903756765294845 0.20725939191323711 0 0.13979822768459971 1 I I -0.70710678118654746 0.70710678118654746 0.25 forward I I I I #
loop $-1 $-1 $186 $52 #
coedge $-1 $117 $117 $187 $188 reversed $73 $-1 #
face $-1 $-1 $189 $41 $-1 $190 forward single #
loop $-1 $191 $192 $75 #
cone-surface $-1 -37.951972393597551 -2.3055306267978288 2.7348672475058597 0.55919291073839883 0 -0.82903756765294845 0.20725939191323711 0 0.13979822768459971 1 I I -0.70710678118654746 0.70710678118654746 0.25 forward I I I I #
loop $-1 $-1 $193 $53 #
coedge $-1 $122 $122 $194 $195 reversed $76 $-1 #
face $-1 $196 $197 $42 $-1 $198 reversed single #
loop $-1 $-1 $199 $78 #
plane-surface $-1 -41.582079531235699 8.4560209064492682 1.7941014643627113 -0.55919291073839883 0 0.82903756765294845 0.82903756765294845 0 0.55919291073839883 forward_v I I I I #
coedge $-1 $200 $201 $202 $203 reversed $79 $-1 #
face $-1 $-1 $204 $43 $-1 $205 forward single #
loop $-1 $206 $207 $81 #
cone-surface $-1 -37.951972393597551 6.1006340159868415 2.7348672475058597 0.55919291073839883 0 -0.82903756765294845 0.20725939191323711 0 0.13979822768459971 1 I I -0.70710678118654746 0.70710678118654746 0.25 forward I I I I #
loop $-1 $-1 $208 $55 #
coedge $-1 $131 $131 $209 $210 reversed $82 $-1 #
face $-1 $-1 $211 $44 $-1 $212 forward single #
loop $-1 $213 $214 $84 #
cone-surface $-1 -37.951972393597551 8.4560209064492682 2.7348672475058597 0.55919291073839883 0 -0.82903756765294845 0.20725939191323711 0 0.13979822768459971 1 I I -0.70710678118654746 0.70710678118654746 0.25 forward I I I I #
loop $-1 $-1 $215 $56 #
coedge $-1 $136 $136 $216 $217 reversed $85 $-1 #
face $-1 $-1 $218 $45 $-1 $219 forward single #
loop $-1 $220 $221 $87 #
cone-surface $-1 -37.951972393597551 10.811407796911702 2.7348672475058597 0.55919291073839883 0 -0.82903756765294845 0.20725939191323711 0 0.13979822768459971 1 I I -0.70710678118654746 0.70710678118654746 0.25 forward I I I I #
loop $-1 $-1 $222 $57 #
coedge $-1 $141 $141 $223 $224 reversed $88 $-1 #
face $-1 $225 $226 $46 $-1 $227 reversed single #
loop $-1 $-1 $228 $90 #
plane-surface $-1 -3.7123667833387088 12.469685863097141 70.597373773068426 0.83867057594974714 0 0.54463902268945019 0.54463902268945019 0 -0.83867057594974714 forward_v I I I I #
coedge $-1 $229 $230 $231 $232 reversed $91 $-1 #
face $-1 $-1 $233 $47 $-1 $234 forward single #
loop $-1 $235 $236 $93 #
cone-surface $-1 38.562076483626825 12.469685863097133 2.3707774677266107 -0.83867057594974714 0 -0.54463902268945019 0.2723195113447251 0 -0.41933528797487357 1 I I -0.70710678118654746 0.70710678118654746 0.5 forward I I I I #
loop $-1 $-1 $237 $59 #
coedge $-1 $150 $150 $238 $239 reversed $94 $-1 #
face $-1 $240 $241 $36 $-1 $242 reversed single #
loop $-1 $-1 $243 $96 #
plane-surface $-1 0 -26.660271548569142 0 0 1 0 0 0 1 forward_v I I I I #
coedge $-1 $244 $245 $246 $247 forward $97 $-1 #
coedge $-1 $248 $99 $249 $250 forward $61 $-1 #
coedge $-1 $99 $248 $251 $252 forward $61 $-1 #
coedge $-1 $253 $254 $99 $158 reversed $255 $-1 #
edge $-1 $256 -26.660271548569142 $257 26.660271548569142 $157 $258 forward 7 unknown #
face $-1 $259 $260 $37 $-1 $261 reversed single #
loop $-1 $-1 $262 $100 #
plane-surface $-1 0 -22.865168159380133 2.9929599638570172 0 -1 0 0 0 -1 forward_v I I I I #
coedge $-1 $263 $264 $265 $266 reversed $101 $-1 #
coedge $-1 $267 $103 $268 $269 forward $64 $-1 #
coedge $-1 $103 $267 $270 $271 reversed $64 $-1 #
coedge $-1 $272 $273 $103 $166 forward $274 $-1 #
edge $-1 $275 10.483808232392814 $276 14.278911621581823 $165 $277 forward 7 unknown #
face $-1 $278 $279 $38 $-1 $280 reversed single #
loop $-1 $-1 $281 $104 #
plane-surface $-1 -88.086887706490259 -0.73527269982287713 70.740313609416901 0 -1 0 0.55919291073839883 0 -0.82903756765294845 forward_v I I I I #
coedge $-1 $282 $283 $284 $285 reversed $105 $-1 #
coedge $-1 $172 $107 $286 $287 reversed $67 $-1 #
coedge $-1 $107 $171 $282 $288 reversed $67 $-1 #
coedge $-1 $284 $289 $107 $174 forward $290 $-1 #
edge $-1 $291 2.4613643220094374 $292 8.3235963204397265 $173 $293 forward 7 unknown #
loop $-1 $-1 $180 $108 #
plane-surface $-1 -41.582079531235699 -4.660917517260259 1.7941014643627113 -0.55919291073839883 0 0.82903756765294845 0.82903756765294845 0 0.55919291073839883 forward_v I I I I #
loop $-1 $-1 $294 $69 #
coedge $-1 $178 $178 $179 $295 reversed $109 $-1 #
coedge $-1 $179 $179 $178 $295 forward $111 $-1 #
coedge $-1 $180 $180 $112 $181 forward $175 $-1 #
edge $-1 $296 0 $296 6.2831853071796004 $180 $297 forward 7 unknown #
loop $-1 $-1 $187 $113 #
plane-surface $-1 -41.582079531235699 -4.660917517260259 1.7941014643627113 -0.55919291073839883 0 0.82903756765294845 0.82903756765294845 0 0.55919291073839883 forward_v I I I I #
loop $-1 $-1 $298 $72 #
coedge $-1 $185 $185 $186 $299 reversed $114 $-1 #
coedge $-1 $186 $186 $185 $299 forward $116 $-1 #
coedge $-1 $187 $187 $117 $188 forward $182 $-1 #
edge $-1 $300 0 $300 6.2831853071796004 $187 $301 forward 7 unknown #
loop $-1 $-1 $194 $118 #
plane-surface $-1 -41.582079531235699 -4.660917517260259 1.7941014643627113 -0.55919291073839883 0 0.82903756765294845 0.82903756765294845 0 0.55919291073839883 forward_v I I I I #
loop $-1 $-1 $302 $75 #
coedge $-1 $192 $192 $193 $303 reversed $119 $-1 #
coedge $-1 $193 $193 $192 $303 forward $121 $-1 #
coedge $-1 $194 $194 $122 $195 forward $189 $-1 #
edge $-1 $304 0 $304 6.2831853071796004 $194 $305 forward 7 unknown #
face $-1 $306 $307 $42 $-1 $308 forward single #
loop $-1 $-1 $309 $123 #
plane-surface $-1 -88.086887706490259 12.38166572388665 70.740313609416901 0 -1 0 0.55919291073839883 0 -0.82903756765294845 forward_v I I I I #
coedge $-1 $310 $311 $312 $313 reversed $124 $-1 #
coedge $-1 $201 $126 $314 $315 reversed $79 $-1 #
coedge $-1 $126 $200 $310 $316 reversed $79 $-1 #
coedge $-1 $312 $317 $126 $203 forward $307 $-1 #
edge $-1 $318 2.4613643220094374 $319 8.3235963204397265 $202 $320 forward 7 unknown #
loop $-1 $-1 $209 $127 #
plane-surface $-1 -41.582079531235699 8.4560209064492682 1.7941014643627113 -0.55919291073839883 0 0.82903756765294845 0.82903756765294845 0 0.55919291073839883 forward_v I I I I #
loop $-1 $-1 $321 $81 #
coedge $-1 $207 $207 $208 $322 reversed $128 $-1 #
coedge $-1 $208 $208 $207 $322 forward $130 $-1 #
coedge $-1 $209 $209 $131 $210 forward $204 $-1 #
edge $-1 $323 0 $323 6.2831853071796004 $209 $324 forward 7 unknown #
loop $-1 $-1 $216 $132 #
plane-surface $-1 -41.582079531235699 8.4560209064492682 1.7941014643627113 -0.55919291073839883 0 0.82903756765294845 0.82903756765294845 0 0.55919291073839883 forward_v I I I I #
loop $-1 $-1 $325 $84 #
coedge $-1 $214 $214 $215 $326 reversed $133 $-1 #
coedge $-1 $215 $215 $214 $326 forward $135 $-1 #
coedge $-1 $216 $216 $136 $217 forward $211 $-1 #
edge $-1 $327 0 $327 6.2831853071796004 $216 $328 forward 7 unknown #
loop $-1 $-1 $223 $137 #
plane-surface $-1 -41.582079531235699 8.4560209064492682 1.7941014643627113 -0.55919291073839883 0 0.82903756765294845 0.82903756765294845 0 0.55919291073839883 forward_v I I I I #
loop $-1 $-1 $329 $87 #
coedge $-1 $221 $221 $222 $330 reversed $138 $-1 #
coedge $-1 $222 $222 $221 $330 forward $140 $-1 #
coedge $-1 $223 $223 $141 $224 forward $218 $-1 #
edge $-1 $331 0 $331 6.2831853071796004 $223 $332 forward 7 unknown #
face $-1 $333 $334 $46 $-1 $335 forward single #
loop $-1 $-1 $336 $142 #
plane-surface $-1 66.034966395960552 6.4154558706633047 115.89182008764281 0 1 0 0.83867057594974714 0 0.54463902268945019 forward_v I I I I #
coedge $-1 $337 $338 $339 $340 reversed $143 $-1 #
coedge $-1 $230 $145 $341 $342 reversed $91 $-1 #
coedge $-1 $145 $229 $337 $343 reversed $91 $-1 #
coedge $-1 $339 $344 $145 $232 forward $334 $-1 #
edge $-1 $345 -8.564596333255416 $346 -5.3836770231100459 $231 $347 forward 7 unknown #
loop $-1 $-1 $238 $146 #
plane-surface $-1 -3.7123667833387088 12.469685863097141 70.597373773068426 0.83867057594974714 0 0.54463902268945019 0.54463902268945019 0 -0.83867057594974714 forward_v I I I I #
loop $-1 $-1 $348 $93 #
coedge $-1 $236 $236 $237 $349 reversed $147 $-1 #
coedge $-1 $237 $237 $236 $349 forward $149 $-1 #
coedge $-1 $238 $238 $150 $239 forward $233 $-1 #
edge $-1 $350 0 $350 6.2831853071796004 $238 $351 forward 7 unknown #
face $-1 $352 $353 $36 $-1 $354 reversed single #
loop $-1 $-1 $355 $151 #
plane-surface $-1 -41.582079531235692 0 0 1 0 0 0 0 -1 forward_v I I I I #
coedge $-1 $356 $251 $357 $358 forward $152 $-1 #
coedge $-1 $359 $154 $356 $360 forward $97 $-1 #
coedge $-1 $154 $359 $361 $362 forward $97 $-1 #
coedge $-1 $254 $253 $154 $247 reversed $255 $-1 #
edge $-1 $363 -26.660271548569142 $364 26.660271548569142 $246 $365 forward 7 unknown #
coedge $-1 $156 $155 $366 $367 forward $61 $-1 #
coedge $-1 $368 $369 $155 $250 reversed $353 $-1 #
edge $-1 $257 -41.582079531235692 $370 41.582079531235692 $249 $371 forward 7 unknown #
coedge $-1 $243 $372 $156 $252 reversed $152 $-1 #
edge $-1 $373 -41.582079531235692 $256 41.582079531235692 $251 $374 forward 7 unknown #
coedge $-1 $246 $157 $372 $375 forward $255 $-1 #
coedge $-1 $157 $246 $368 $376 reversed $255 $-1 #
loop $-1 $-1 $253 $352 #
vertex $-1 $158 $377 #
vertex $-1 $158 $378 #
straight-curve $-1 41.582079531235692 0 5.7482269497813698 0 1 0 I I #
face $-1 $379 $380 $37 $-1 $381 reversed single #
loop $-1 $-1 $382 $159 #
plane-surface $-1 -41.582079531235692 0 0 1 0 0 0 0 -1 forward_v I I I I #
coedge $-1 $383 $268 $273 $384 reversed $160 $-1 #
coedge $-1 $385 $162 $386 $387 reversed $101 $-1 #
coedge $-1 $162 $385 $383 $388 forward $101 $-1 #
coedge $-1 $273 $272 $162 $266 forward $274 $-1 #
edge $-1 $389 -14.278911621581823 $390 -10.483808232392814 $265 $391 forward 7 unknown #
coedge $-1 $164 $163 $382 $392 reversed $64 $-1 #
coedge $-1 $262 $393 $163 $269 reversed $160 $-1 #
edge $-1 $275 -41.582079531235692 $394 41.582079531235692 $268 $395 forward 7 unknown #
coedge $-1 $396 $397 $164 $271 forward $380 $-1 #
edge $-1 $276 -41.582079531235692 $398 41.582079531235692 $270 $399 forward 7 unknown #
coedge $-1 $265 $165 $397 $400 forward $274 $-1 #
coedge $-1 $165 $265 $262 $384 forward $274 $-1 #
loop $-1 $-1 $165 $379 #
vertex $-1 $166 $401 #
vertex $-1 $400 $402 #
straight-curve $-1 41.582079531235692 -12.381359926987319 4.4929599638570163 0 -1 0 I I #
face $-1 $-1 $290 $38 $-1 $403 forward single #
loop $-1 $-1 $404 $167 #
plane-surface $-1 -41.582079531235692 0 0 1 0 0 0 0 -1 forward_v I I I I #
coedge $-1 $405 $406 $407 $408 reversed $168 $-1 #
coedge $-1 $409 $170 $172 $288 forward $105 $-1 #
coedge $-1 $170 $409 $405 $410 forward $105 $-1 #
coedge $-1 $407 $173 $170 $285 forward $290 $-1 #
edge $-1 $292 -6.2561035760675114 $411 1.5951860588072524 $284 $412 forward 7 unknown #
coedge $-1 $413 $414 $171 $287 forward $279 $-1 #
edge $-1 $415 -33.576055340345732 $291 -29.621929854927082 $286 $416 forward 7 unknown #
edge $-1 $292 -7.0711294966120795 $415 -8.6223131303995443e-015 $172 $417 forward 7 unknown #
coedge $-1 $173 $407 $413 $418 forward $290 $-1 #
loop $-1 $-1 $407 $278 #
vertex $-1 $287 $419 #
vertex $-1 $174 $420 #
straight-curve $-1 -44.04344385324513 -8.586562334697641 5.7482269497813689 1 0 0 I I #
coedge $-1 $294 $294 $-1 $421 reversed $177 $-1 #
edge $-1 $422 0 $422 6.2831853071796004 $178 $423 forward 7 unknown #
vertex $-1 $181 $424 #
ellipse-curve $-1 -38.650963532020548 -7.0163044077226893 3.771164207072041 -0.55919291073839883 0 0.82903756765294845 0.41451878382647422 0 0.27959645536919941 1 I I #
coedge $-1 $298 $298 $-1 $425 reversed $184 $-1 #
edge $-1 $426 0 $426 6.2831853071796004 $185 $427 forward 7 unknown #
vertex $-1 $188 $428 #
ellipse-curve $-1 -38.650963532020548 -4.660917517260259 3.771164207072041 -0.55919291073839883 0 0.82903756765294845 0.41451878382647422 0 0.27959645536919941 1 I I #
coedge $-1 $302 $302 $-1 $429 reversed $191 $-1 #
edge $-1 $430 0 $430 6.2831853071796004 $192 $431 forward 7 unknown #
vertex $-1 $195 $432 #
ellipse-curve $-1 -38.650963532020548 -2.3055306267978288 3.771164207072041 -0.55919291073839883 0 0.82903756765294845 0.41451878382647422 0 0.27959645536919941 1 I I #
face $-1 $-1 $433 $42 $-1 $434 reversed single #
loop $-1 $-1 $202 $196 #
plane-surface $-1 0 0 5.7482269497813698 0 0 1 1 0 0 forward_v I I I I #
coedge $-1 $435 $436 $437 $438 reversed $197 $-1 #
coedge $-1 $439 $199 $201 $316 forward $124 $-1 #
coedge $-1 $199 $439 $435 $440 forward $124 $-1 #
coedge $-1 $437 $202 $199 $313 forward $307 $-1 #
edge $-1 $319 0.30236563578725217 $441 8.153655270662016 $312 $442 forward 7 unknown #
coedge $-1 $443 $444 $200 $315 forward $433 $-1 #
edge $-1 $445 -33.576055340345732 $318 -29.621929854927082 $314 $446 forward 7 unknown #
edge $-1 $319 -7.0711294966120795 $445 -8.6223131303995443e-015 $201 $447 forward 7 unknown #
coedge $-1 $202 $437 $443 $448 forward $307 $-1 #
vertex $-1 $203 $449 #
vertex $-1 $203 $450 #
straight-curve $-1 -44.04344385324513 4.5303760890118863 5.7482269497813689 1 0 0 I I #
coedge $-1 $321 $321 $-1 $451 reversed $206 $-1 #
edge $-1 $452 0 $452 6.2831853071796004 $207 $453 forward 7 unknown #
vertex $-1 $210 $454 #
ellipse-curve $-1 -38.650963532020548 6.1006340159868415 3.771164207072041 -0.55919291073839883 0 0.82903756765294845 0.41451878382647422 0 0.27959645536919941 1 I I #
coedge $-1 $325 $325 $-1 $455 reversed $213 $-1 #
edge $-1 $456 0 $456 6.2831853071796004 $214 $457 forward 7 unknown #
vertex $-1 $217 $458 #
ellipse-curve $-1 -38.650963532020548 8.4560209064492682 3.771164207072041 -0.55919291073839883 0 0.82903756765294845 0.41451878382647422 0 0.27959645536919941 1 I I #
coedge $-1 $329 $329 $-1 $459 reversed $220 $-1 #
edge $-1 $460 0 $460 6.2831853071796004 $221 $461 forward 7 unknown #
vertex $-1 $224 $462 #
ellipse-curve $-1 -38.650963532020548 10.811407796911702 3.771164207072041 -0.55919291073839883 0 0.82903756765294845 0.41451878382647422 0 0.27959645536919941 1 I I #
face $-1 $-1 $463 $46 $-1 $464 reversed single #
loop $-1 $-1 $231 $225 #
plane-surface $-1 0 0 5.7482269497813698 0 0 1 1 0 0 forward_v I I I I #
coedge $-1 $465 $466 $467 $468 reversed $226 $-1 #
coedge $-1 $469 $228 $230 $343 forward $143 $-1 #
coedge $-1 $228 $469 $465 $470 forward $143 $-1 #
coedge $-1 $467 $231 $228 $340 forward $334 $-1 #
edge $-1 $346 -12.289072923982406 $471 -0.18061293911473442 $339 $472 forward 7 unknown #
coedge $-1 $473 $474 $229 $342 forward $463 $-1 #
edge $-1 $475 -57.095869450052255 $345 -52.197683094040038 $341 $476 forward 7 unknown #
edge $-1 $346 77.323741505833866 $475 83.164159062471398 $230 $477 forward 7 unknown #
coedge $-1 $231 $467 $473 $478 forward $334 $-1 #
vertex $-1 $342 $479 #
vertex $-1 $232 $480 #
straight-curve $-1 33.017483197980276 18.523915855530976 5.7482269497813689 -1 0 0 I I #
coedge $-1 $348 $348 $-1 $481 reversed $235 $-1 #
edge $-1 $482 0 $482 6.2831853071796004 $236 $483 forward 7 unknown #
vertex $-1 $239 $484 #
ellipse-curve $-1 39.991619876163 12.469685863097133 3.299133771775264 0.83867057594974714 0 0.54463902268945019 0.54463902268945019 0 -0.83867057594974714 1 I I #
face $-1 $-1 $255 $36 $-1 $485 reversed single #
loop $-1 $-1 $368 $240 #
plane-surface $-1 0 26.660271548569142 0 0 -1 0 0 0 -1 forward_v I I I I #
coedge $-1 $486 $366 $369 $487 forward $241 $-1 #
coedge $-1 $372 $243 $244 $360 reversed $152 $-1 #
coedge $-1 $366 $486 $243 $358 reversed $241 $-1 #
edge $-1 $373 -5.7482269497813698 $488 5.7482269497813698 $357 $489 forward 7 unknown #
coedge $-1 $245 $244 $486 $490 forward $97 $-1 #
edge $-1 $364 -41.582079531235692 $488 41.582079531235692 $356 $491 forward 7 unknown #
coedge $-1 $369 $368 $245 $362 reversed $353 $-1 #
edge $-1 $492 -41.582079531235692 $363 41.582079531235692 $361 $493 forward 7 unknown #
vertex $-1 $247 $494 #
vertex $-1 $375 $495 #
straight-curve $-1 41.582079531235692 0 -5.7482269497813698 0 -1 0 I I #
coedge $-1 $355 $357 $248 $367 reversed $241 $-1 #
edge $-1 $370 -26.660271548569142 $373 26.660271548569142 $366 $496 forward 7 unknown #
coedge $-1 $361 $249 $254 $376 forward $353 $-1 #
coedge $-1 $249 $361 $355 $487 reversed $353 $-1 #
vertex $-1 $250 $497 #
straight-curve $-1 0 26.660271548569142 5.7482269497813698 -1 0 0 I I #
coedge $-1 $251 $356 $253 $375 reversed $152 $-1 #
vertex $-1 $367 $498 #
straight-curve $-1 0 -26.660271548569142 5.7482269497813698 1 0 0 I I #
edge $-1 $256 -5.7482269497813698 $364 5.7482269497813698 $253 $499 forward 7 unknown #
edge $-1 $257 -5.7482269497813698 $363 5.7482269497813698 $254 $500 forward 7 unknown #
point $-1 41.582079531235692 -26.660271548569142 5.7482269497813698 #
point $-1 41.582079531235692 26.660271548569142 5.7482269497813698 #
face $-1 $-1 $274 $37 $-1 $501 reversed single #
loop $-1 $-1 $270 $259 #
plane-surface $-1 0 -26.660271548569142 0 0 1 0 0 0 1 forward_v I I I I #
coedge $-1 $502 $503 $267 $392 forward $260 $-1 #
coedge $-1 $393 $262 $264 $388 reversed $160 $-1 #
edge $-1 $390 -0.0035200180714909379 $275 2.9964799819285077 $273 $504 forward 7 unknown #
coedge $-1 $264 $263 $505 $506 reversed $101 $-1 #
coedge $-1 $397 $396 $263 $387 forward $380 $-1 #
edge $-1 $507 -41.582079531235692 $389 41.582079531235692 $386 $508 forward 7 unknown #
edge $-1 $509 -41.582079531235692 $390 41.582079531235692 $383 $510 forward 7 unknown #
vertex $-1 $387 $511 #
vertex $-1 $266 $512 #
straight-curve $-1 41.582079531235692 -12.381359926987319 1.4929599638570177 0 1 0 I I #
edge $-1 $398 -14.278911621581823 $394 -10.483808232392814 $382 $513 forward 7 unknown #
coedge $-1 $268 $383 $502 $514 reversed $160 $-1 #
vertex $-1 $392 $515 #
straight-curve $-1 0 -22.865168159380133 4.4929599638570163 -1 0 0 I I #
coedge $-1 $386 $270 $503 $516 forward $380 $-1 #
coedge $-1 $270 $386 $272 $400 reversed $380 $-1 #
vertex $-1 $516 $517 #
straight-curve $-1 0 -26.660271548569142 4.4929599638570163 -1 0 0 I I #
edge $-1 $276 -4.4929599638570163 $389 -1.4929599638570177 $272 $518 forward 7 unknown #
point $-1 41.582079531235692 -22.865168159380133 4.4929599638570163 #
point $-1 41.582079531235692 -26.660271548569142 4.4929599638570163 #
plane-surface $-1 0 0 5.7482269497813698 0 0 1 1 0 0 forward_v I I I I #
coedge $-1 $414 $413 $406 $519 forward $279 $-1 #
coedge $-1 $406 $281 $283 $410 reversed $168 $-1 #
coedge $-1 $281 $405 $404 $519 reversed $168 $-1 #
coedge $-1 $289 $284 $281 $408 forward $290 $-1 #
edge $-1 $411 -8.3235963204397265 $520 -2.4613643220094374 $407 $521 forward 7 unknown #
coedge $-1 $283 $282 $414 $522 reversed $105 $-1 #
edge $-1 $523 8.6223131303995443e-015 $411 7.0711294966120795 $405 $524 forward 7 unknown #
vertex $-1 $285 $525 #
straight-curve $-1 -35.719847532805403 -2.3304587586301295 5.7482269497813698 0 1 0 I I #
coedge $-1 $404 $286 $289 $418 reversed $279 $-1 #
coedge $-1 $286 $404 $409 $522 forward $279 $-1 #
vertex $-1 $287 $526 #
straight-curve $-1 -41.582079531235692 -8.586562334697641 35.370156804708451 0 0 1 I I #
straight-curve $-1 -41.582079531235699 -8.586562334697641 1.7941014643627113 -0.82903756765294845 0 -0.55919291073839883 I I #
edge $-1 $520 0.73527269982287713 $291 8.586562334697641 $413 $527 forward 7 unknown #
point $-1 -41.582079531235692 -8.586562334697641 5.7482269497813698 #
point $-1 -35.719847532805403 -8.586562334697641 5.7482269497813698 #
edge $-1 $528 1 $528 0 $294 $-1 forward 7 unknown #
vertex $-1 $295 $529 #
ellipse-curve $-1 -38.091770621282151 -7.0163044077226893 2.9421266394190968 -0.55919291073839883 0 0.82903756765294845 0.41451878382647422 0 0.27959645536919941 1 I I #
point $-1 -38.236444748194074 -7.0163044077226893 4.0507606624412444 #
edge $-1 $530 1 $530 0 $298 $-1 forward 7 unknown #
vertex $-1 $299 $531 #
ellipse-curve $-1 -38.091770621282151 -4.660917517260259 2.9421266394190968 -0.55919291073839883 0 0.82903756765294845 0.41451878382647422 0 0.27959645536919941 1 I I #
point $-1 -38.236444748194074 -4.660917517260259 4.0507606624412444 #
edge $-1 $532 1 $532 0 $302 $-1 forward 7 unknown #
vertex $-1 $303 $533 #
ellipse-curve $-1 -38.091770621282151 -2.3055306267978288 2.9421266394190968 -0.55919291073839883 0 0.82903756765294845 0.41451878382647422 0 0.27959645536919941 1 I I #
point $-1 -38.236444748194074 -2.3055306267978288 4.0507606624412444 #
loop $-1 $-1 $314 $306 #
plane-surface $-1 -41.582079531235692 0 0 1 0 0 0 0 -1 forward_v I I I I #
coedge $-1 $436 $309 $311 $440 reversed $197 $-1 #
coedge $-1 $309 $435 $534 $535 reversed $197 $-1 #
coedge $-1 $317 $312 $309 $438 forward $307 $-1 #
edge $-1 $441 -8.3235963204397265 $536 -2.4613643220094374 $437 $537 forward 7 unknown #
coedge $-1 $311 $310 $444 $538 reversed $124 $-1 #
edge $-1 $539 8.6223131303995443e-015 $441 7.0711294966120795 $435 $540 forward 7 unknown #
vertex $-1 $313 $541 #
straight-curve $-1 -35.719847532805403 4.2280104532246341 5.7482269497813698 0 1 0 I I #
coedge $-1 $534 $314 $317 $448 reversed $433 $-1 #
coedge $-1 $314 $534 $439 $538 forward $433 $-1 #
vertex $-1 $315 $542 #
straight-curve $-1 -41.582079531235692 4.5303760890118863 35.370156804708451 0 0 1 I I #
straight-curve $-1 -41.582079531235699 4.5303760890118863 1.7941014643627113 -0.82903756765294845 0 -0.55919291073839883 I I #
edge $-1 $536 -12.38166572388665 $318 -4.5303760890118863 $443 $543 forward 7 unknown #
point $-1 -41.582079531235692 4.5303760890118863 5.7482269497813698 #
point $-1 -35.719847532805403 4.5303760890118863 5.7482269497813698 #
edge $-1 $544 1 $544 0 $321 $-1 forward 7 unknown #
vertex $-1 $322 $545 #
ellipse-curve $-1 -38.091770621282151 6.1006340159868415 2.9421266394190968 -0.55919291073839883 0 0.82903756765294845 0.41451878382647422 0 0.27959645536919941 1 I I #
point $-1 -38.236444748194074 6.1006340159868415 4.0507606624412444 #
edge $-1 $546 1 $546 0 $325 $-1 forward 7 unknown #
vertex $-1 $326 $547 #
ellipse-curve $-1 -38.091770621282151 8.4560209064492682 2.9421266394190968 -0.55919291073839883 0 0.82903756765294845 0.41451878382647422 0 0.27959645536919941 1 I I #
point $-1 -38.236444748194074 8.4560209064492682 4.0507606624412444 #
edge $-1 $548 1 $548 0 $329 $-1 forward 7 unknown #
vertex $-1 $330 $549 #
ellipse-curve $-1 -38.091770621282151 10.811407796911702 2.9421266394190968 -0.55919291073839883 0 0.82903756765294845 0.41451878382647422 0 0.27959645536919941 1 I I #
point $-1 -38.236444748194074 10.811407796911702 4.0507606624412444 #
loop $-1 $-1 $341 $333 #
plane-surface $-1 41.582079531235692 0 0 -1 0 0 0 0 1 forward_v I I I I #
coedge $-1 $466 $336 $338 $470 reversed $226 $-1 #
coedge $-1 $336 $465 $550 $551 reversed $226 $-1 #
coedge $-1 $344 $339 $336 $468 forward $334 $-1 #
edge $-1 $471 5.3836770231100459 $552 8.564596333255416 $467 $553 forward 7 unknown #
coedge $-1 $338 $337 $474 $554 reversed $143 $-1 #
edge $-1 $555 -83.164159062471398 $471 -77.323741505833866 $465 $556 forward 7 unknown #
vertex $-1 $340 $557 #
straight-curve $-1 38.401160221090322 6.2348429315485703 5.748226949781376 0 -1 0 I I #
coedge $-1 $550 $341 $344 $478 reversed $463 $-1 #
coedge $-1 $341 $550 $469 $554 forward $463 $-1 #
vertex $-1 $342 $558 #
straight-curve $-1 41.582079531235692 18.523915855530976 57.945910043821407 0 0 1 I I #
straight-curve $-1 -3.7123667833387088 18.523915855530976 70.597373773068426 0.54463902268945019 0 -0.83867057594974714 I I #
edge $-1 $552 6.4154558706633047 $345 18.523915855530976 $473 $559 forward 7 unknown #
point $-1 41.582079531235692 18.523915855530976 5.7482269497813698 #
point $-1 38.401160221090322 18.523915855530976 5.7482269497813689 #
edge $-1 $560 1 $560 0 $348 $-1 forward 7 unknown #
vertex $-1 $349 $561 #
ellipse-curve $-1 38.981411771601699 12.469685863097133 2.6430969790713359 0.83867057594974714 0 0.54463902268945019 0.54463902268945019 0 -0.83867057594974714 1 I I #
point $-1 40.536258898852466 12.469685863097133 2.4604631958255263 #
plane-surface $-1 41.582079531235692 0 0 -1 0 0 0 0 1 forward_v I I I I #
coedge $-1 $357 $355 $359 $490 reversed $241 $-1 #
edge $-1 $370 -5.7482269497813698 $492 5.7482269497813698 $369 $562 forward 7 unknown #
vertex $-1 $490 $563 #
straight-curve $-1 -41.582079531235692 -26.660271548569142 0 0 0 -1 I I #
edge $-1 $488 -26.660271548569142 $492 26.660271548569142 $486 $564 forward 7 unknown #
straight-curve $-1 0 -26.660271548569142 -5.7482269497813698 -1 0 0 I I #
vertex $-1 $362 $565 #
straight-curve $-1 0 26.660271548569142 -5.7482269497813698 1 0 0 I I #
point $-1 41.582079531235692 26.660271548569142 -5.7482269497813698 #
point $-1 41.582079531235692 -26.660271548569142 -5.7482269497813698 #
straight-curve $-1 -41.582079531235692 0 5.7482269497813698 0 -1 0 I I #
point $-1 -41.582079531235692 26.660271548569142 5.7482269497813698 #
point $-1 -41.582079531235692 -26.660271548569142 5.7482269497813698 #
straight-curve $-1 41.582079531235692 -26.660271548569142 0 0 0 -1 I I #
straight-curve $-1 41.582079531235692 26.660271548569142 0 0 0 -1 I I #
plane-surface $-1 41.582079531235692 0 0 -1 0 0 0 0 1 forward_v I I I I #
coedge $-1 $505 $382 $393 $514 forward $260 $-1 #
coedge $-1 $382 $505 $396 $516 reversed $260 $-1 #
straight-curve $-1 41.582079531235692 -22.865168159380133 1.4964799819285086 0 0 1 I I #
coedge $-1 $503 $502 $385 $506 forward $260 $-1 #
edge $-1 $509 10.483808232392814 $507 14.278911621581823 $505 $566 forward 7 unknown #
vertex $-1 $387 $567 #
straight-curve $-1 0 -26.660271548569142 1.4929599638570177 1 0 0 I I #
vertex $-1 $506 $568 #
straight-curve $-1 0 -22.865168159380133 1.4929599638570177 1 0 0 I I #
point $-1 41.582079531235692 -26.660271548569142 1.4929599638570177 #
point $-1 41.582079531235692 -22.865168159380133 1.4929599638570177 #
straight-curve $-1 -41.582079531235692 -12.381359926987319 4.4929599638570163 0 1 0 I I #
edge $-1 $394 -2.9964799819285077 $509 0.0035200180714909379 $502 $569 forward 7 unknown #
point $-1 -41.582079531235692 -22.865168159380133 4.4929599638570163 #
edge $-1 $398 -4.4929599638570163 $507 -1.4929599638570177 $503 $570 forward 7 unknown #
point $-1 -41.582079531235692 -26.660271548569142 4.4929599638570163 #
straight-curve $-1 41.582079531235692 -26.660271548569142 0 0 0 -1 I I #
edge $-1 $520 29.621929854927082 $523 33.576055340345732 $404 $571 forward 7 unknown #
vertex $-1 $418 $572 #
straight-curve $-1 -44.04344385324513 -0.73527269982287713 5.7482269497813689 -1 0 0 I I #
edge $-1 $523 -1.5951860588072524 $415 6.2561035760675114 $414 $573 forward 7 unknown #
vertex $-1 $522 $574 #
straight-curve $-1 -41.582079531235699 -0.73527269982287713 1.7941014643627113 0.82903756765294845 0 0.55919291073839883 I I #
point $-1 -35.719847532805403 -0.73527269982287713 5.7482269497813698 #
point $-1 -41.582079531235692 -8.586562334697641 1.7941014643627162 #
straight-curve $-1 -41.582079531235692 0 5.7482269497813698 0 -1 0 I I #
vertex $-1 $421 $575 #
point $-1 -37.677251837455678 -7.0163044077226893 3.2217230947882962 #
vertex $-1 $425 $576 #
point $-1 -37.677251837455678 -4.660917517260259 3.2217230947882962 #
vertex $-1 $429 $577 #
point $-1 -37.677251837455678 -2.3055306267978288 3.2217230947882962 #
coedge $-1 $444 $443 $436 $535 forward $433 $-1 #
edge $-1 $536 29.621929854927082 $539 33.576055340345732 $534 $578 forward 7 unknown #
vertex $-1 $448 $579 #
straight-curve $-1 -44.04344385324513 12.38166572388665 5.7482269497813689 -1 0 0 I I #
edge $-1 $539 -8.153655270662016 $445 -0.30236563578725217 $444 $580 forward 7 unknown #
vertex $-1 $538 $581 #
straight-curve $-1 -41.582079531235699 12.38166572388665 1.7941014643627113 0.82903756765294845 0 0.55919291073839883 I I #
point $-1 -35.719847532805403 12.38166572388665 5.7482269497813698 #
point $-1 -41.582079531235692 4.5303760890118863 1.7941014643627162 #
straight-curve $-1 -41.582079531235692 0 5.7482269497813698 0 -1 0 I I #
vertex $-1 $451 $582 #
point $-1 -37.677251837455678 6.1006340159868415 3.2217230947882962 #
vertex $-1 $455 $583 #
point $-1 -37.677251837455678 8.4560209064492682 3.2217230947882962 #
vertex $-1 $459 $584 #
point $-1 -37.677251837455678 10.811407796911702 3.2217230947882962 #
coedge $-1 $474 $473 $466 $551 forward $463 $-1 #
edge $-1 $552 52.197683094040038 $555 57.095869450052255 $550 $585 forward 7 unknown #
vertex $-1 $478 $586 #
straight-curve $-1 33.017483197980276 6.4154558706633047 5.7482269497813689 1 0 0 I I #
edge $-1 $555 0.18061293911473442 $475 12.289072923982406 $474 $587 forward 7 unknown #
vertex $-1 $554 $588 #
straight-curve $-1 -3.7123667833387088 6.4154558706633047 70.597373773068426 -0.54463902268945019 0 0.83867057594974714 I I #
point $-1 38.401160221090322 6.4154558706633047 5.7482269497813689 #
point $-1 41.582079531235699 18.523915855530976 0.85004059376915109 #
straight-curve $-1 41.582079531235692 0 5.7482269497813698 0 1 0 I I #
vertex $-1 $481 $589 #
point $-1 39.526050794291152 12.469685863097133 1.8044264031215886 #
straight-curve $-1 -41.582079531235692 26.660271548569142 0 0 0 -1 I I #
point $-1 -41.582079531235692 -26.660271548569142 -5.7482269497813698 #
straight-curve $-1 -41.582079531235692 0 -5.7482269497813698 0 1 0 I I #
point $-1 -41.582079531235692 26.660271548569142 -5.7482269497813698 #
straight-curve $-1 -41.582079531235692 -12.381359926987319 1.4929599638570177 0 -1 0 I I #
point $-1 -41.582079531235692 -26.660271548569142 1.4929599638570177 #
point $-1 -41.582079531235692 -22.865168159380133 1.4929599638570177 #
straight-curve $-1 -41.582079531235692 -22.865168159380133 1.4964799819285086 0 0 -1 I I #
straight-curve $-1 -41.582079531235692 -26.660271548569142 0 0 0 -1 I I #
straight-curve $-1 -41.582079531235692 -0.73527269982287713 35.370156804708451 0 0 -1 I I #
point $-1 -41.582079531235692 -0.73527269982287713 5.7482269497813698 #
straight-curve $-1 -41.582079531235692 -2.3304587586301295 1.7941014643627153 0 -1 0 I I #
point $-1 -41.582079531235692 -0.73527269982287713 1.7941014643627162 #
point $-1 -37.81217416591295 -7.0163044077226893 2.5276078555926227 #
point $-1 -37.81217416591295 -4.660917517260259 2.5276078555926227 #
point $-1 -37.81217416591295 -2.3055306267978288 2.5276078555926227 #
straight-curve $-1 -41.582079531235692 12.38166572388665 35.370156804708451 0 0 -1 I I #
point $-1 -41.582079531235692 12.38166572388665 5.7482269497813698 #
straight-curve $-1 -41.582079531235692 4.2280104532246341 1.7941014643627153 0 -1 0 I I #
point $-1 -41.582079531235692 12.38166572388665 1.7941014643627162 #
point $-1 -37.81217416591295 6.1006340159868415 2.5276078555926227 #
point $-1 -37.81217416591295 8.4560209064492682 2.5276078555926227 #
point $-1 -37.81217416591295 10.811407796911702 2.5276078555926227 #
straight-curve $-1 41.582079531235692 6.4154558706633047 57.945910043821407 0 0 -1 I I #
point $-1 41.582079531235692 6.4154558706633047 5.7482269497813698 #
straight-curve $-1 41.582079531235692 6.2348429315485703 0.8500405937691653 0 1 0 I I #
point $-1 41.582079531235699 6.4154558706633047 0.85004059376915109 #
point $-1 38.142741195651951 12.469685863097133 2.0984579563818855 #
End-of-ACIS-data 