500 0 8 0           
7 Unknown 11 ACIS 5.0 NT 24 Thu Mar 25 18:54:30 1999 
-1 9.9999999999999995e-007 1e-010 
body $-1 $8 $-1 $9 #
body $-1 $10 $-1 $11 #
body $-1 $12 $-1 $13 #
body $-1 $14 $-1 $15 #
body $-1 $16 $-1 $17 #
body $-1 $18 $-1 $19 #
body $-1 $20 $-1 $21 #
body $-1 $22 $-1 $23 #
lump $-1 $-1 $24 $0 #
transform $-1 1 0 0 0 1 0 0 0 1 64.505142368846705 41.562281221244326 12.394355020398235 1 rotate no_reflect no_shear #
lump $-1 $-1 $25 $1 #
transform $-1 1 0 0 0 1 0 0 0 1 64.505142368846705 41.562281221244326 12.394355020398235 1 rotate no_reflect no_shear #
lump $-1 $-1 $26 $2 #
transform $-1 1 0 0 0 1 0 0 0 1 64.505142368846705 41.562281221244326 12.394355020398235 1 rotate no_reflect no_shear #
lump $-1 $-1 $27 $3 #
transform $-1 1 0 0 0 1 0 0 0 1 64.505142368846705 41.562281221244326 12.394355020398235 1 rotate no_reflect no_shear #
lump $-1 $-1 $28 $4 #
transform $-1 1 0 0 0 1 0 0 0 1 64.505142368846705 41.562281221244326 12.394355020398235 1 rotate no_reflect no_shear #
lump $-1 $-1 $29 $5 #
transform $-1 1 0 0 0 1 0 0 0 1 64.505142368846705 41.562281221244326 12.394355020398235 1 rotate no_reflect no_shear #
lump $-1 $-1 $30 $6 #
transform $-1 1 0 0 0 1 0 0 0 1 64.505142368846705 41.562281221244326 12.394355020398235 1 rotate no_reflect no_shear #
lump $-1 $-1 $31 $7 #
transform $-1 1 0 0 0 1 0 0 0 1 64.505142368846705 41.562281221244326 12.394355020398235 1 rotate no_reflect no_shear #
shell $-1 $-1 $-1 $32 $-1 $8 #
shell $-1 $-1 $-1 $33 $-1 $10 #
shell $-1 $-1 $-1 $34 $-1 $12 #
shell $-1 $-1 $-1 $35 $-1 $14 #
shell $-1 $-1 $-1 $36 $-1 $16 #
shell $-1 $-1 $-1 $37 $-1 $18 #
shell $-1 $-1 $-1 $38 $-1 $20 #
shell $-1 $-1 $-1 $39 $-1 $22 #
face $-1 $40 $41 $24 $-1 $42 reversed single #
face $-1 $43 $44 $25 $-1 $45 forward single #
face $-1 $46 $47 $26 $-1 $48 reversed single #
face $-1 $49 $50 $27 $-1 $51 forward single #
face $-1 $52 $53 $28 $-1 $54 reversed single #
face $-1 $55 $56 $29 $-1 $57 forward single #
face $-1 $58 $59 $30 $-1 $60 reversed single #
face $-1 $61 $62 $31 $-1 $63 forward single #
face $-1 $64 $65 $24 $-1 $66 forward single #
loop $-1 $-1 $67 $32 #
plane-surface $-1 0 -41.562281221244326 0 0 1 0 0 0 1 forward_v I I I I #
face $-1 $68 $69 $25 $-1 $70 forward single #
loop $-1 $-1 $71 $33 #
plane-surface $-1 0 -41.562281221244326 0 0 1 0 0 0 1 forward_v I I I I #
face $-1 $72 $73 $26 $-1 $74 reversed single #
loop $-1 $-1 $75 $34 #
plane-surface $-1 80.406543888952243 36.318077172519565 184.2077040341251 0 -1 0 -0.7660444514056185 0 -0.64278759981090561 forward_v I I I I #
face $-1 $76 $77 $27 $-1 $78 forward single #
loop $-1 $79 $80 $35 #
cone-surface $-1 55.993785162531083 28.448939123400173 3.7817263528549621 -0.7660444514056185 0 -0.64278759981090561 1.9283627994327168 0 -2.2981333542168554 1 I I 0 1 3 forward I I I I #
face $-1 $81 $82 $28 $-1 $83 reversed single #
loop $-1 $-1 $84 $36 #
plane-surface $-1 -152.48994603722082 -30.20870856498459 101.67106963646205 0 1 0 -0.68199836817093118 0 0.7313536940579346 forward_v I I I I #
face $-1 $85 $86 $29 $-1 $87 forward single #
loop $-1 $88 $89 $37 #
cone-surface $-1 -60.311406474393912 -25.291989455884192 8.2777170361683652 0.68199836817093118 0 -0.7313536940579346 1.0970305410869019 0 1.0229975522563968 1 I I 0 1 1.5 forward I I I I #
face $-1 $90 $91 $30 $-1 $92 reversed single #
loop $-1 $-1 $93 $38 #
plane-surface $-1 -152.48994603722082 5.6767863281298725 101.67106963646205 0 1 0 -0.68199836817093118 0 0.7313536940579346 forward_v I I I I #
face $-1 $94 $95 $31 $-1 $96 forward single #
loop $-1 $97 $98 $39 #
cone-surface $-1 -60.311406474393912 10.59350543723027 8.2777170361683652 0.68199836817093118 0 -0.7313536940579346 1.0970305410869019 0 1.0229975522563968 1 I I 0 1 1.5 forward I I I I #
face $-1 $99 $100 $24 $-1 $101 reversed single #
loop $-1 $-1 $102 $40 #
plane-surface $-1 0 0 12.394355020398235 0 0 1 1 0 0 forward_v I I I I #
coedge $-1 $103 $104 $105 $106 reversed $41 $-1 #
face $-1 $107 $108 $25 $-1 $109 reversed single #
loop $-1 $-1 $110 $43 #
plane-surface $-1 0 0 12.394355020398235 0 0 1 1 0 0 forward_v I I I I #
coedge $-1 $111 $112 $113 $114 forward $44 $-1 #
face $-1 $115 $116 $26 $-1 $117 reversed single #
loop $-1 $-1 $118 $46 #
plane-surface $-1 -18.421068908616746 28.448939123400173 101.28149275666165 0.7660444514056185 0 0.64278759981090561 0.64278759981090561 0 -0.7660444514056185 forward_v I I I I #
coedge $-1 $119 $120 $121 $122 reversed $47 $-1 #
face $-1 $-1 $123 $27 $-1 $124 forward single #
loop $-1 $125 $126 $49 #
cone-surface $-1 50.503885648751933 28.448939123400173 -0.82484618375185725 -0.7660444514056185 0 -0.64278759981090561 0.96418139971635841 0 -1.1490666771084277 1 I I -0.70710678118654757 0.70710678118654757 1.5 forward I I I I #
loop $-1 $-1 $127 $35 #
coedge $-1 $80 $80 $128 $129 reversed $50 $-1 #
face $-1 $130 $131 $28 $-1 $132 reversed single #
loop $-1 $-1 $133 $52 #
plane-surface $-1 -64.50514236884672 -25.291989455884192 7.3189213220839946 -0.68199836817093118 0 0.7313536940579346 0.7313536940579346 0 0.68199836817093118 forward_v I I I I #
coedge $-1 $134 $135 $136 $137 reversed $53 $-1 #
face $-1 $-1 $138 $29 $-1 $139 forward single #
loop $-1 $140 $141 $55 #
cone-surface $-1 -58.327539887261111 -25.291989455884192 6.150280630552162 0.68199836817093118 0 -0.7313536940579346 0.54851527054345095 0 0.51149877612819838 1 I I -0.70710678118654757 0.70710678118654757 0.75 forward I I I I #
loop $-1 $-1 $142 $37 #
coedge $-1 $89 $89 $143 $144 reversed $56 $-1 #
face $-1 $145 $146 $30 $-1 $147 reversed single #
loop $-1 $-1 $148 $58 #
plane-surface $-1 -64.50514236884672 10.59350543723027 7.3189213220839946 -0.68199836817093118 0 0.7313536940579346 0.7313536940579346 0 0.68199836817093118 forward_v I I I I #
coedge $-1 $149 $150 $151 $152 reversed $59 $-1 #
face $-1 $-1 $153 $31 $-1 $154 forward single #
loop $-1 $155 $156 $61 #
cone-surface $-1 -58.327539887261111 10.59350543723027 6.150280630552162 0.68199836817093118 0 -0.7313536940579346 0.54851527054345095 0 0.51149877612819838 1 I I -0.70710678118654757 0.70710678118654757 0.75 forward I I I I #
loop $-1 $-1 $157 $39 #
coedge $-1 $98 $98 $158 $159 reversed $62 $-1 #
face $-1 $160 $161 $24 $-1 $162 reversed single #
loop $-1 $-1 $163 $64 #
plane-surface $-1 0 0 -12.394355020398235 0 0 1 1 0 0 forward_v I I I I #
coedge $-1 $164 $165 $166 $167 forward $65 $-1 #
coedge $-1 $168 $67 $169 $170 reversed $41 $-1 #
coedge $-1 $67 $168 $171 $172 forward $41 $-1 #
coedge $-1 $173 $163 $67 $106 forward $100 $-1 #
edge $-1 $174 -64.505142368846705 $175 64.505142368846705 $67 $176 forward 7 unknown #
face $-1 $177 $178 $25 $-1 $179 reversed single #
loop $-1 $-1 $180 $68 #
plane-surface $-1 -64.505142368846705 0 0 1 0 0 0 0 -1 forward_v I I I I #
coedge $-1 $181 $182 $112 $183 forward $69 $-1 #
coedge $-1 $184 $71 $185 $186 reversed $44 $-1 #
coedge $-1 $71 $184 $110 $183 reversed $44 $-1 #
coedge $-1 $187 $188 $71 $114 reversed $189 $-1 #
edge $-1 $190 -12.394355020398235 $191 12.394355020398235 $113 $192 forward 7 unknown #
face $-1 $193 $194 $26 $-1 $195 forward single #
loop $-1 $-1 $196 $72 #
plane-surface $-1 80.406543888952243 20.579801074280777 184.2077040341251 0 1 0 0.7660444514056185 0 0.64278759981090561 forward_v I I I I #
coedge $-1 $197 $198 $199 $200 reversed $73 $-1 #
coedge $-1 $120 $75 $201 $202 reversed $47 $-1 #
coedge $-1 $75 $119 $197 $203 reversed $47 $-1 #
coedge $-1 $199 $204 $75 $122 forward $194 $-1 #
edge $-1 $205 -24.301870424370584 $206 -15.960821685080795 $121 $207 forward 7 unknown #
loop $-1 $-1 $128 $76 #
plane-surface $-1 -18.421068908616746 28.448939123400173 101.28149275666165 0.7660444514056185 0 0.64278759981090561 0.64278759981090561 0 -0.7660444514056185 forward_v I I I I #
loop $-1 $-1 $208 $49 #
coedge $-1 $126 $126 $127 $209 reversed $77 $-1 #
coedge $-1 $127 $127 $126 $209 forward $79 $-1 #
coedge $-1 $128 $128 $80 $129 forward $123 $-1 #
edge $-1 $210 0 $210 6.2831853071796004 $128 $211 forward 7 unknown #
face $-1 $212 $213 $28 $-1 $214 reversed single #
loop $-1 $-1 $215 $81 #
plane-surface $-1 -152.48994603722082 -20.375270346783793 101.67106963646205 0 -1 0 0.68199836817093118 0 -0.7313536940579346 forward_v I I I I #
coedge $-1 $216 $217 $218 $219 reversed $82 $-1 #
coedge $-1 $135 $84 $220 $221 reversed $53 $-1 #
coedge $-1 $84 $134 $216 $222 reversed $53 $-1 #
coedge $-1 $218 $223 $84 $137 forward $224 $-1 #
edge $-1 $225 11.739830649763704 $226 17.182566816660078 $136 $227 forward 7 unknown #
loop $-1 $-1 $143 $85 #
plane-surface $-1 -64.50514236884672 -25.291989455884192 7.3189213220839946 -0.68199836817093118 0 0.7313536940579346 0.7313536940579346 0 0.68199836817093118 forward_v I I I I #
loop $-1 $-1 $228 $55 #
coedge $-1 $141 $141 $142 $229 reversed $86 $-1 #
coedge $-1 $142 $142 $141 $229 forward $88 $-1 #
coedge $-1 $143 $143 $89 $144 forward $138 $-1 #
edge $-1 $230 0 $230 6.2831853071796004 $143 $231 forward 7 unknown #
face $-1 $232 $233 $30 $-1 $234 forward single #
loop $-1 $-1 $235 $90 #
plane-surface $-1 -152.48994603722082 15.510224546330669 101.67106963646205 0 -1 0 0.68199836817093118 0 -0.7313536940579346 forward_v I I I I #
coedge $-1 $236 $237 $238 $239 reversed $91 $-1 #
coedge $-1 $150 $93 $240 $241 reversed $59 $-1 #
coedge $-1 $93 $149 $236 $242 reversed $59 $-1 #
coedge $-1 $238 $243 $93 $152 forward $233 $-1 #
edge $-1 $244 11.739830649763704 $245 17.182566816660078 $151 $246 forward 7 unknown #
loop $-1 $-1 $158 $94 #
plane-surface $-1 -64.50514236884672 10.59350543723027 7.3189213220839946 -0.68199836817093118 0 0.7313536940579346 0.7313536940579346 0 0.68199836817093118 forward_v I I I I #
loop $-1 $-1 $247 $61 #
coedge $-1 $156 $156 $157 $248 reversed $95 $-1 #
coedge $-1 $157 $157 $156 $248 forward $97 $-1 #
coedge $-1 $158 $158 $98 $159 forward $153 $-1 #
edge $-1 $249 0 $249 6.2831853071796004 $158 $250 forward 7 unknown #
face $-1 $251 $252 $24 $-1 $253 reversed single #
loop $-1 $-1 $254 $99 #
plane-surface $-1 -64.505142368846705 0 0 1 0 0 0 0 -1 forward_v I I I I #
coedge $-1 $105 $255 $256 $257 forward $100 $-1 #
coedge $-1 $258 $102 $259 $260 forward $65 $-1 #
coedge $-1 $102 $258 $168 $261 forward $65 $-1 #
coedge $-1 $169 $262 $102 $167 reversed $263 $-1 #
edge $-1 $264 -41.562281221244326 $265 41.562281221244326 $166 $266 forward 7 unknown #
coedge $-1 $104 $103 $165 $261 reversed $41 $-1 #
coedge $-1 $256 $166 $103 $170 forward $263 $-1 #
edge $-1 $264 -12.394355020398235 $174 12.394355020398235 $169 $267 forward 7 unknown #
coedge $-1 $268 $269 $104 $172 reversed $161 $-1 #
edge $-1 $270 -12.394355020398235 $175 12.394355020398235 $171 $271 forward 7 unknown #
coedge $-1 $255 $105 $269 $272 forward $100 $-1 #
vertex $-1 $170 $273 #
vertex $-1 $272 $274 #
straight-curve $-1 0 -41.562281221244326 -12.394355020398235 -1 0 0 I I #
face $-1 $275 $189 $25 $-1 $276 reversed single #
loop $-1 $-1 $277 $107 #
plane-surface $-1 -62.470231888691785 -52.91585387750407 0 0 1 0 0 0 1 forward_v I I I I #
coedge $-1 $278 $279 $184 $280 forward $108 $-1 #
coedge $-1 $281 $110 $279 $282 forward $69 $-1 #
coedge $-1 $110 $281 $187 $283 forward $69 $-1 #
edge $-1 $190 60.435321408536865 $284 64.505142368846705 $110 $285 forward 7 unknown #
coedge $-1 $112 $111 $180 $280 reversed $44 $-1 #
coedge $-1 $286 $287 $111 $186 forward $288 $-1 #
edge $-1 $289 -64.505142368846705 $191 -60.435321408536865 $185 $290 forward 7 unknown #
coedge $-1 $291 $113 $182 $283 reversed $189 $-1 #
coedge $-1 $113 $291 $286 $292 reversed $189 $-1 #
loop $-1 $-1 $291 $177 #
vertex $-1 $183 $293 #
vertex $-1 $292 $294 #
straight-curve $-1 -60.435321408536865 -41.562281221244326 0 0 0 -1 I I #
face $-1 $-1 $295 $26 $-1 $296 reversed single #
loop $-1 $-1 $121 $115 #
plane-surface $-1 0 0 12.394355020398235 0 0 1 1 0 0 forward_v I I I I #
coedge $-1 $297 $298 $299 $300 reversed $116 $-1 #
coedge $-1 $301 $118 $120 $203 forward $73 $-1 #
coedge $-1 $118 $301 $297 $302 forward $73 $-1 #
coedge $-1 $299 $121 $118 $200 forward $194 $-1 #
edge $-1 $206 -22.093607610819479 $303 -6.3553315125806904 $199 $304 forward 7 unknown #
coedge $-1 $305 $306 $119 $202 forward $295 $-1 #
edge $-1 $307 -89.649972057969876 $205 -79.709496996664313 $201 $308 forward 7 unknown #
edge $-1 $206 116.0339162736105 $307 129.01028473769344 $120 $309 forward 7 unknown #
coedge $-1 $121 $299 $305 $310 forward $194 $-1 #
vertex $-1 $202 $311 #
vertex $-1 $122 $312 #
straight-curve $-1 40.203271944476121 36.318077172519565 12.394355020398237 -1 0 0 I I #
coedge $-1 $208 $208 $-1 $313 reversed $125 $-1 #
edge $-1 $314 0 $314 6.2831853071796004 $126 $315 forward 7 unknown #
vertex $-1 $129 $316 #
ellipse-curve $-1 60.334617999201825 28.448939123400173 7.4241174897454378 0.7660444514056185 0 0.64278759981090561 1.9283627994327168 0 -2.2981333542168554 1 I I #
face $-1 $-1 $224 $28 $-1 $317 forward single #
loop $-1 $-1 $318 $130 #
plane-surface $-1 -64.505142368846705 0 0 1 0 0 0 0 -1 forward_v I I I I #
coedge $-1 $319 $320 $321 $322 reversed $131 $-1 #
coedge $-1 $323 $133 $135 $222 forward $82 $-1 #
coedge $-1 $133 $323 $319 $324 forward $82 $-1 #
coedge $-1 $321 $136 $133 $219 forward $224 $-1 #
edge $-1 $226 -17.562713837042494 $325 -7.7292756188416973 $218 $326 forward 7 unknown #
coedge $-1 $327 $328 $134 $221 forward $213 $-1 #
edge $-1 $329 -43.516613496147016 $225 -38.441179797832788 $220 $330 forward 7 unknown #
edge $-1 $226 -7.4420027014524628 $329 -1.9479204584885432e-014 $135 $331 forward 7 unknown #
coedge $-1 $136 $321 $327 $332 forward $224 $-1 #
loop $-1 $-1 $321 $212 #
vertex $-1 $221 $333 #
vertex $-1 $137 $334 #
straight-curve $-1 -76.244973018610409 -30.20870856498459 12.394355020398237 1 0 0 I I #
coedge $-1 $228 $228 $-1 $335 reversed $140 $-1 #
edge $-1 $336 0 $336 6.2831853071796004 $141 $337 forward 7 unknown #
vertex $-1 $144 $338 #
ellipse-curve $-1 -61.783774285398522 -25.291989455884192 9.8566381712411211 -0.68199836817093118 0 0.7313536940579346 1.0970305410869019 0 1.0229975522563968 1 I I #
face $-1 $-1 $339 $30 $-1 $340 reversed single #
loop $-1 $-1 $151 $145 #
plane-surface $-1 0 0 12.394355020398235 0 0 1 1 0 0 forward_v I I I I #
coedge $-1 $341 $342 $343 $344 reversed $146 $-1 #
coedge $-1 $345 $148 $150 $242 forward $91 $-1 #
coedge $-1 $148 $345 $341 $346 forward $91 $-1 #
coedge $-1 $343 $151 $148 $239 forward $233 $-1 #
edge $-1 $245 0.38003360951473741 $347 10.213471827715534 $238 $348 forward 7 unknown #
coedge $-1 $349 $350 $149 $241 forward $339 $-1 #
edge $-1 $351 -43.516613496147016 $244 -38.441179797832788 $240 $352 forward 7 unknown #
edge $-1 $245 -7.4420027014524628 $351 -1.9479204584885432e-014 $150 $353 forward 7 unknown #
coedge $-1 $151 $343 $349 $354 forward $233 $-1 #
vertex $-1 $241 $355 #
vertex $-1 $152 $356 #
straight-curve $-1 -76.244973018610409 5.6767863281298725 12.394355020398237 1 0 0 I I #
coedge $-1 $247 $247 $-1 $357 reversed $155 $-1 #
edge $-1 $358 0 $358 6.2831853071796004 $156 $359 forward 7 unknown #
vertex $-1 $159 $360 #
ellipse-curve $-1 -61.783774285398522 10.59350543723027 9.8566381712411211 -0.68199836817093118 0 0.7313536940579346 1.0970305410869019 0 1.0229975522563968 1 I I #
face $-1 $-1 $263 $24 $-1 $361 reversed single #
loop $-1 $-1 $362 $160 #
plane-surface $-1 0 41.562281221244326 0 0 -1 0 0 0 -1 forward_v I I I I #
coedge $-1 $269 $268 $363 $364 forward $161 $-1 #
coedge $-1 $163 $173 $365 $366 forward $100 $-1 #
coedge $-1 $262 $169 $163 $257 reversed $263 $-1 #
edge $-1 $367 -41.562281221244326 $174 41.562281221244326 $256 $368 forward 7 unknown #
coedge $-1 $165 $164 $268 $369 forward $65 $-1 #
coedge $-1 $362 $363 $164 $260 reversed $252 $-1 #
edge $-1 $265 -64.505142368846705 $370 64.505142368846705 $259 $371 forward 7 unknown #
edge $-1 $270 -64.505142368846705 $264 64.505142368846705 $168 $372 forward 7 unknown #
coedge $-1 $166 $256 $362 $373 reversed $263 $-1 #
loop $-1 $-1 $169 $251 #
vertex $-1 $167 $374 #
vertex $-1 $167 $375 #
straight-curve $-1 64.505142368846705 0 12.394355020398235 0 1 0 I I #
straight-curve $-1 64.505142368846705 -41.562281221244326 0 0 0 -1 I I #
coedge $-1 $254 $171 $258 $369 reversed $161 $-1 #
coedge $-1 $171 $254 $173 $272 reversed $161 $-1 #
vertex $-1 $369 $376 #
straight-curve $-1 -64.505142368846705 -41.562281221244326 0 0 0 -1 I I #
edge $-1 $175 -41.562281221244326 $377 41.562281221244326 $269 $378 forward 7 unknown #
point $-1 64.505142368846705 -41.562281221244326 -12.394355020398235 #
point $-1 -64.505142368846705 -41.562281221244326 -12.394355020398235 #
face $-1 $-1 $288 $25 $-1 $379 reversed single #
plane-surface $-1 -60.435321408536865 -47.239067549374198 0 -1 0 0 0 0 1 forward_v I I I I #
coedge $-1 $380 $381 $382 $383 forward $178 $-1 #
coedge $-1 $382 $180 $287 $384 reversed $108 $-1 #
coedge $-1 $180 $382 $181 $282 reversed $108 $-1 #
edge $-1 $284 -12.394355020398235 $289 12.394355020398235 $180 $385 forward 7 unknown #
coedge $-1 $182 $181 $381 $386 forward $69 $-1 #
edge $-1 $284 41.562281221244326 $387 52.91585387750407 $279 $388 forward 7 unknown #
edge $-1 $389 -5.6767863281298716 $190 5.6767863281298716 $187 $390 forward 7 unknown #
vertex $-1 $282 $391 #
straight-curve $-1 0 -41.562281221244326 12.394355020398235 -1 0 0 I I #
coedge $-1 $392 $185 $188 $292 forward $288 $-1 #
coedge $-1 $185 $392 $278 $384 forward $288 $-1 #
loop $-1 $-1 $185 $275 #
vertex $-1 $280 $393 #
straight-curve $-1 0 -41.562281221244326 -12.394355020398235 1 0 0 I I #
coedge $-1 $188 $187 $394 $395 forward $189 $-1 #
edge $-1 $191 -5.6767863281298716 $396 5.6767863281298716 $188 $397 forward 7 unknown #
point $-1 -60.435321408536865 -41.562281221244326 12.394355020398235 #
point $-1 -60.435321408536865 -41.562281221244326 -12.394355020398235 #
loop $-1 $-1 $201 $193 #
plane-surface $-1 64.505142368846705 0 0 -1 0 0 0 0 1 forward_v I I I I #
coedge $-1 $298 $196 $198 $302 reversed $116 $-1 #
coedge $-1 $196 $297 $398 $399 reversed $116 $-1 #
coedge $-1 $204 $199 $196 $300 forward $194 $-1 #
edge $-1 $303 15.960821685080795 $400 24.301870424370584 $299 $401 forward 7 unknown #
coedge $-1 $198 $197 $306 $402 reversed $73 $-1 #
edge $-1 $403 -129.01028473769344 $303 -116.0339162736105 $297 $404 forward 7 unknown #
vertex $-1 $200 $405 #
straight-curve $-1 56.164093629556916 14.224469561700086 12.394355020398237 0 -1 0 I I #
coedge $-1 $398 $201 $204 $310 reversed $295 $-1 #
coedge $-1 $201 $398 $301 $402 forward $295 $-1 #
vertex $-1 $202 $406 #
straight-curve $-1 64.505142368846705 36.318077172519565 92.10385201706255 0 0 1 I I #
straight-curve $-1 -18.421068908616746 36.318077172519565 101.28149275666165 0.64278759981090561 0 -0.7660444514056185 I I #
edge $-1 $400 20.579801074280777 $205 36.318077172519565 $305 $407 forward 7 unknown #
point $-1 64.505142368846705 36.318077172519565 12.394355020398235 #
point $-1 56.164093629556916 36.318077172519565 12.394355020398237 #
edge $-1 $408 1 $408 0 $208 $-1 forward 7 unknown #
vertex $-1 $209 $409 #
ellipse-curve $-1 51.652952325860362 28.448939123400173 0.13933521596450116 0.7660444514056185 0 0.64278759981090561 1.9283627994327168 0 -2.2981333542168554 1 I I #
point $-1 62.26298079863453 28.448939123400173 5.1259841355285669 #
plane-surface $-1 0 0 12.394355020398235 0 0 1 1 0 0 forward_v I I I I #
coedge $-1 $328 $327 $320 $410 forward $213 $-1 #
coedge $-1 $320 $215 $217 $324 reversed $131 $-1 #
coedge $-1 $215 $319 $318 $410 reversed $131 $-1 #
coedge $-1 $223 $218 $215 $322 forward $224 $-1 #
edge $-1 $325 -17.182566816660078 $411 -11.739830649763704 $321 $412 forward 7 unknown #
coedge $-1 $217 $216 $328 $413 reversed $82 $-1 #
edge $-1 $414 1.9479204584885432e-014 $325 7.4420027014524628 $319 $415 forward 7 unknown #
vertex $-1 $219 $416 #
straight-curve $-1 -59.062406201950331 -12.645994727942096 12.394355020398237 0 1 0 I I #
coedge $-1 $318 $220 $223 $332 reversed $213 $-1 #
coedge $-1 $220 $318 $323 $413 forward $213 $-1 #
vertex $-1 $221 $417 #
straight-curve $-1 -64.505142368846705 -30.20870856498459 50.835534818231025 0 0 1 I I #
straight-curve $-1 -64.50514236884672 -30.20870856498459 7.3189213220839946 -0.7313536940579346 0 -0.68199836817093118 I I #
edge $-1 $411 20.375270346783793 $225 30.20870856498459 $327 $418 forward 7 unknown #
point $-1 -64.505142368846705 -30.20870856498459 12.394355020398235 #
point $-1 -59.062406201950331 -30.20870856498459 12.394355020398235 #
edge $-1 $419 1 $419 0 $228 $-1 forward 7 unknown #
vertex $-1 $229 $420 #
ellipse-curve $-1 -58.83903866338931 -25.291989455884192 6.6987959010956128 -0.68199836817093118 0 0.7313536940579346 1.0970305410869019 0 1.0229975522563968 1 I I #
point $-1 -60.686743744311613 -25.291989455884192 10.879635723497513 #
loop $-1 $-1 $240 $232 #
plane-surface $-1 -64.505142368846705 0 0 1 0 0 0 0 -1 forward_v I I I I #
coedge $-1 $342 $235 $237 $346 reversed $146 $-1 #
coedge $-1 $235 $341 $421 $422 reversed $146 $-1 #
coedge $-1 $243 $238 $235 $344 forward $233 $-1 #
edge $-1 $347 -17.182566816660078 $423 -11.739830649763704 $343 $424 forward 7 unknown #
coedge $-1 $237 $236 $350 $425 reversed $91 $-1 #
edge $-1 $426 1.9479204584885432e-014 $347 7.4420027014524628 $341 $427 forward 7 unknown #
vertex $-1 $239 $428 #
straight-curve $-1 -59.062406201950331 5.2967527186151351 12.394355020398237 0 1 0 I I #
coedge $-1 $421 $240 $243 $354 reversed $339 $-1 #
coedge $-1 $240 $421 $345 $425 forward $339 $-1 #
vertex $-1 $241 $429 #
straight-curve $-1 -64.505142368846705 5.6767863281298725 50.835534818231025 0 0 1 I I #
straight-curve $-1 -64.50514236884672 5.6767863281298725 7.3189213220839946 -0.7313536940579346 0 -0.68199836817093118 I I #
edge $-1 $423 -15.510224546330669 $244 -5.6767863281298725 $349 $430 forward 7 unknown #
point $-1 -64.505142368846705 5.6767863281298725 12.394355020398235 #
point $-1 -59.062406201950331 5.6767863281298725 12.394355020398235 #
edge $-1 $431 1 $431 0 $247 $-1 forward 7 unknown #
vertex $-1 $248 $432 #
ellipse-curve $-1 -58.83903866338931 10.59350543723027 6.6987959010956128 -0.68199836817093118 0 0.7313536940579346 1.0970305410869019 0 1.0229975522563968 1 I I #
point $-1 -60.686743744311613 10.59350543723027 10.879635723497513 #
plane-surface $-1 64.505142368846705 0 0 -1 0 0 0 0 1 forward_v I I I I #
coedge $-1 $365 $259 $262 $373 forward $252 $-1 #
coedge $-1 $259 $365 $254 $364 reversed $252 $-1 #
edge $-1 $370 -12.394355020398235 $377 12.394355020398235 $363 $433 forward 7 unknown #
coedge $-1 $363 $362 $255 $366 reversed $252 $-1 #
edge $-1 $377 -64.505142368846705 $367 64.505142368846705 $365 $434 forward 7 unknown #
vertex $-1 $257 $435 #
straight-curve $-1 64.505142368846705 0 -12.394355020398235 0 -1 0 I I #
edge $-1 $370 -41.562281221244326 $270 41.562281221244326 $268 $436 forward 7 unknown #
vertex $-1 $260 $437 #
straight-curve $-1 0 41.562281221244326 12.394355020398235 -1 0 0 I I #
straight-curve $-1 0 -41.562281221244326 12.394355020398235 1 0 0 I I #
edge $-1 $265 -12.394355020398235 $367 12.394355020398235 $262 $438 forward 7 unknown #
point $-1 64.505142368846705 -41.562281221244326 12.394355020398235 #
point $-1 64.505142368846705 41.562281221244326 12.394355020398235 #
point $-1 -64.505142368846705 -41.562281221244326 12.394355020398235 #
vertex $-1 $366 $439 #
straight-curve $-1 -64.505142368846705 0 -12.394355020398235 0 1 0 I I #
plane-surface $-1 0 0 -12.394355020398235 0 0 1 1 0 0 forward_v I I I I #
coedge $-1 $394 $277 $392 $440 reversed $178 $-1 #
coedge $-1 $277 $394 $281 $386 reversed $178 $-1 #
coedge $-1 $279 $278 $277 $383 reversed $108 $-1 #
edge $-1 $387 -12.394355020398235 $441 12.394355020398235 $382 $442 forward 7 unknown #
edge $-1 $441 -52.91585387750407 $289 -41.562281221244326 $278 $443 forward 7 unknown #
straight-curve $-1 -64.505142368846705 -41.562281221244326 0 0 0 -1 I I #
edge $-1 $387 -2.0349104801549203 $389 2.0349104801549203 $381 $444 forward 7 unknown #
vertex $-1 $282 $445 #
straight-curve $-1 -64.505142368846705 0 12.394355020398235 0 -1 0 I I #
vertex $-1 $283 $446 #
straight-curve $-1 -60.435321408536865 -47.239067549374198 12.394355020398235 0 1 0 I I #
point $-1 -64.505142368846705 -41.562281221244326 12.394355020398235 #
coedge $-1 $287 $286 $380 $440 forward $288 $-1 #
point $-1 -64.505142368846705 -41.562281221244326 -12.394355020398235 #
coedge $-1 $381 $380 $291 $395 reversed $178 $-1 #
edge $-1 $389 -12.394355020398235 $396 12.394355020398235 $291 $447 forward 7 unknown #
vertex $-1 $395 $448 #
straight-curve $-1 -60.435321408536865 -47.239067549374198 -12.394355020398235 0 -1 0 I I #
coedge $-1 $306 $305 $298 $399 forward $295 $-1 #
edge $-1 $400 79.709496996664313 $403 89.649972057969876 $398 $449 forward 7 unknown #
vertex $-1 $310 $450 #
straight-curve $-1 40.203271944476121 20.579801074280777 12.394355020398237 1 0 0 I I #
edge $-1 $403 6.3553315125806904 $307 22.093607610819479 $306 $451 forward 7 unknown #
vertex $-1 $402 $452 #
straight-curve $-1 -18.421068908616746 20.579801074280777 101.28149275666165 -0.64278759981090561 0 0.7660444514056185 I I #
point $-1 56.164093629556916 20.579801074280777 12.394355020398237 #
point $-1 64.505142368846705 36.318077172519565 2.4538799590926743 #
straight-curve $-1 64.505142368846705 0 12.394355020398235 0 1 0 I I #
vertex $-1 $313 $453 #
point $-1 53.581315125293074 28.448939123400173 -2.1587981382523544 #
edge $-1 $411 38.441179797832788 $414 43.516613496147016 $318 $454 forward 7 unknown #
vertex $-1 $332 $455 #
straight-curve $-1 -76.244973018610409 -20.375270346783793 12.394355020398237 -1 0 0 I I #
edge $-1 $414 7.7292756188416973 $329 17.562713837042494 $328 $456 forward 7 unknown #
vertex $-1 $413 $457 #
straight-curve $-1 -64.50514236884672 -20.375270346783793 7.3189213220839946 0.7313536940579346 0 0.68199836817093118 I I #
point $-1 -59.062406201950331 -20.375270346783793 12.394355020398235 #
point $-1 -64.505142368846705 -30.20870856498459 7.3189213220840079 #
straight-curve $-1 -64.505142368846705 0 12.394355020398235 0 -1 0 I I #
vertex $-1 $335 $458 #
point $-1 -57.742008122302408 -25.291989455884192 7.7217934533520101 #
coedge $-1 $350 $349 $342 $422 forward $339 $-1 #
edge $-1 $423 38.441179797832788 $426 43.516613496147016 $421 $459 forward 7 unknown #
vertex $-1 $354 $460 #
straight-curve $-1 -76.244973018610409 15.510224546330669 12.394355020398237 -1 0 0 I I #
edge $-1 $426 -10.213471827715534 $351 -0.38003360951473741 $350 $461 forward 7 unknown #
vertex $-1 $425 $462 #
straight-curve $-1 -64.50514236884672 15.510224546330669 7.3189213220839946 0.7313536940579346 0 0.68199836817093118 I I #
point $-1 -59.062406201950331 15.510224546330669 12.394355020398235 #
point $-1 -64.505142368846705 5.6767863281298725 7.3189213220840079 #
straight-curve $-1 -64.505142368846705 0 12.394355020398235 0 -1 0 I I #
vertex $-1 $357 $463 #
point $-1 -57.742008122302408 10.59350543723027 7.7217934533520101 #
straight-curve $-1 -64.505142368846705 41.562281221244326 0 0 0 -1 I I #
straight-curve $-1 0 41.562281221244326 -12.394355020398235 1 0 0 I I #
point $-1 64.505142368846705 41.562281221244326 -12.394355020398235 #
straight-curve $-1 -64.505142368846705 0 12.394355020398235 0 -1 0 I I #
point $-1 -64.505142368846705 41.562281221244326 12.394355020398235 #
straight-curve $-1 64.505142368846705 41.562281221244326 0 0 0 -1 I I #
point $-1 -64.505142368846705 41.562281221244326 -12.394355020398235 #
edge $-1 $396 -2.0349104801549203 $441 2.0349104801549203 $380 $464 forward 7 unknown #
vertex $-1 $384 $465 #
straight-curve $-1 -64.505142368846705 -52.91585387750407 0 0 0 -1 I I #
straight-curve $-1 -64.505142368846705 0 -12.394355020398235 0 1 0 I I #
straight-curve $-1 -62.470231888691785 -52.91585387750407 12.394355020398235 1 0 0 I I #
point $-1 -64.505142368846705 -52.91585387750407 12.394355020398235 #
point $-1 -60.435321408536865 -52.91585387750407 12.394355020398235 #
straight-curve $-1 -60.435321408536865 -52.91585387750407 0 0 0 -1 I I #
point $-1 -60.435321408536865 -52.91585387750407 -12.394355020398235 #
straight-curve $-1 64.505142368846705 20.579801074280777 92.10385201706255 0 0 -1 I I #
point $-1 64.505142368846705 20.579801074280777 12.394355020398235 #
straight-curve $-1 64.505142368846705 14.224469561700086 2.4538799590926814 0 1 0 I I #
point $-1 64.505142368846705 20.579801074280777 2.4538799590926743 #
point $-1 49.354818971643503 28.448939123400173 -1.7890275834682157 #
straight-curve $-1 -64.505142368846705 -20.375270346783793 50.835534818231025 0 0 -1 I I #
point $-1 -64.505142368846705 -20.375270346783793 12.394355020398235 #
straight-curve $-1 -64.505142368846705 -12.645994727942096 7.3189213220840106 0 -1 0 I I #
point $-1 -64.505142368846705 -20.375270346783793 7.3189213220840079 #
point $-1 -57.816041111132911 -25.291989455884192 5.6017653600087112 #
straight-curve $-1 -64.505142368846705 15.510224546330669 50.835534818231025 0 0 -1 I I #
point $-1 -64.505142368846705 15.510224546330669 12.394355020398235 #
straight-curve $-1 -64.505142368846705 5.2967527186151351 7.3189213220840106 0 -1 0 I I #
point $-1 -64.505142368846705 15.510224546330669 7.3189213220840079 #
point $-1 -57.816041111132911 10.59350543723027 5.6017653600087112 #
straight-curve $-1 -62.470231888691785 -52.91585387750407 -12.394355020398235 -1 0 0 I I #
point $-1 -64.505142368846705 -52.91585387750407 -12.394355020398235 #
End-of-ACIS-data 