500 0 8 0           
7 Unknown 11 ACIS 5.0 NT 24 Fri Mar 26 02:02:11 1999 
-1 9.9999999999999995e-007 1e-010 
body $-1 $8 $-1 $9 #
body $-1 $10 $-1 $11 #
body $-1 $12 $-1 $13 #
body $-1 $14 $-1 $15 #
body $-1 $16 $-1 $17 #
body $-1 $18 $-1 $19 #
body $-1 $20 $-1 $21 #
body $-1 $22 $-1 $23 #
lump $-1 $-1 $24 $0 #
transform $-1 1 0 0 0 1 0 0 0 1 44.110232856227299 23.986209571589036 6.1063192963446236 1 rotate no_reflect no_shear #
lump $-1 $-1 $25 $1 #
transform $-1 1 0 0 0 1 0 0 0 1 44.110232856227299 23.986209571589036 6.1063192963446236 1 rotate no_reflect no_shear #
lump $-1 $-1 $26 $2 #
transform $-1 1 0 0 0 1 0 0 0 1 44.110232856227299 23.986209571589036 6.1063192963446236 1 rotate no_reflect no_shear #
lump $-1 $-1 $27 $3 #
transform $-1 1 0 0 0 1 0 0 0 1 44.110232856227299 23.986209571589036 6.1063192963446236 1 rotate no_reflect no_shear #
lump $-1 $-1 $28 $4 #
transform $-1 1 0 0 0 1 0 0 0 1 44.110232856227299 23.986209571589036 6.1063192963446236 1 rotate no_reflect no_shear #
lump $-1 $-1 $29 $5 #
transform $-1 1 0 0 0 1 0 0 0 1 44.110232856227299 23.986209571589036 6.1063192963446236 1 rotate no_reflect no_shear #
lump $-1 $-1 $30 $6 #
transform $-1 1 0 0 0 1 0 0 0 1 44.110232856227299 23.986209571589036 6.1063192963446236 1 rotate no_reflect no_shear #
lump $-1 $-1 $31 $7 #
transform $-1 1 0 0 0 1 0 0 0 1 44.110232856227299 23.986209571589036 6.1063192963446236 1 rotate no_reflect no_shear #
shell $-1 $-1 $-1 $32 $-1 $8 #
shell $-1 $-1 $-1 $33 $-1 $10 #
shell $-1 $-1 $-1 $34 $-1 $12 #
shell $-1 $-1 $-1 $35 $-1 $14 #
shell $-1 $-1 $-1 $36 $-1 $16 #
shell $-1 $-1 $-1 $37 $-1 $18 #
shell $-1 $-1 $-1 $38 $-1 $20 #
shell $-1 $-1 $-1 $39 $-1 $22 #
face $-1 $40 $41 $24 $-1 $42 forward single #
face $-1 $43 $44 $25 $-1 $45 reversed single #
face $-1 $46 $47 $26 $-1 $48 forward single #
face $-1 $49 $50 $27 $-1 $51 forward single #
face $-1 $52 $53 $28 $-1 $54 forward single #
face $-1 $55 $56 $29 $-1 $57 reversed single #
face $-1 $58 $59 $30 $-1 $60 forward single #
face $-1 $61 $62 $31 $-1 $63 forward single #
face $-1 $64 $65 $24 $-1 $66 reversed single #
loop $-1 $-1 $67 $32 #
plane-surface $-1 0 0 6.1063192963446236 0 0 1 1 0 0 forward_v I I I I #
face $-1 $68 $69 $25 $-1 $70 reversed single #
loop $-1 $-1 $71 $33 #
plane-surface $-1 -4.2624270681372121 -100.3873746946571 45.673203146778512 -1 0 0 0 -0.86602541151947299 0.49999998660252726 forward_v I I I I #
face $-1 $72 $73 $26 $-1 $74 forward single #
loop $-1 $75 $76 $34 #
cone-surface $-1 -13.819433285678823 -22.241645368122118 3.5846453911122955 0 0.86602541151947299 -0.49999998660252726 0.5 0 0 1 I I 0 1 0.5 forward I I I I #
face $-1 $77 $78 $27 $-1 $79 forward single #
loop $-1 $80 $81 $35 #
cone-surface $-1 -10.235555954100718 -22.241645368122118 3.5846453911122955 0 0.86602541151947299 -0.49999998660252726 0.5 0 0 1 I I 0 1 0.5 forward I I I I #
face $-1 $82 $83 $28 $-1 $84 forward single #
loop $-1 $85 $86 $36 #
cone-surface $-1 -6.651678622522617 -22.241645368122118 3.5846453911122955 0 0.86602541151947299 -0.49999998660252726 0.5 0 0 1 I I 0 1 0.5 forward I I I I #
face $-1 $87 $88 $29 $-1 $89 reversed single #
loop $-1 $-1 $90 $37 #
plane-surface $-1 -31.246376672571238 30.053015956876756 103.18423589818381 1 0 0 0 -0.52991927123019833 -0.84804809178421925 forward_v I I I I #
face $-1 $91 $92 $30 $-1 $93 forward single #
loop $-1 $94 $95 $38 #
cone-surface $-1 -26.734986159783261 20.826682173306004 3.5155658647414736 0 -0.52991927123019833 -0.84804809178421925 1 0 0 1 I I 0 1 1 forward I I I I #
face $-1 $96 $97 $31 $-1 $98 forward single #
loop $-1 $99 $100 $39 #
cone-surface $-1 -19.967900390601301 20.826682173306004 3.5155658647414736 0 -0.52991927123019833 -0.84804809178421925 1 0 0 1 I I 0 1 1 forward I I I I #
face $-1 $101 $102 $24 $-1 $103 reversed single #
loop $-1 $-1 $104 $40 #
plane-surface $-1 0 0 -6.1063192963446236 0 0 1 1 0 0 forward_v I I I I #
coedge $-1 $105 $106 $107 $108 forward $41 $-1 #
face $-1 $109 $110 $25 $-1 $111 reversed single #
loop $-1 $-1 $112 $43 #
plane-surface $-1 -10.235555954100718 -23.986209571589043 1.562971472482495 0 -0.86602541151947299 0.49999998660252726 1 0 0 forward_v I I I I #
coedge $-1 $113 $114 $115 $116 reversed $44 $-1 #
face $-1 $-1 $117 $26 $-1 $118 forward single #
loop $-1 $119 $120 $46 #
cone-surface $-1 -13.819433285678823 -21.592126309482513 3.2096454011604001 0 0.86602541151947299 -0.49999998660252726 0.25 0 0 1 I I -0.70710678118654746 0.70710678118654746 0.25 forward I I I I #
loop $-1 $-1 $121 $34 #
coedge $-1 $76 $76 $122 $123 reversed $47 $-1 #
face $-1 $-1 $124 $27 $-1 $125 forward single #
loop $-1 $126 $127 $49 #
cone-surface $-1 -10.235555954100718 -21.592126309482513 3.2096454011604001 0 0.86602541151947299 -0.49999998660252726 0.25 0 0 1 I I -0.70710678118654746 0.70710678118654746 0.25 forward I I I I #
loop $-1 $-1 $128 $35 #
coedge $-1 $81 $81 $129 $130 reversed $50 $-1 #
face $-1 $-1 $131 $28 $-1 $132 forward single #
loop $-1 $133 $134 $52 #
cone-surface $-1 -6.651678622522617 -21.592126309482513 3.2096454011604001 0 0.86602541151947299 -0.49999998660252726 0.25 0 0 1 I I -0.70710678118654746 0.70710678118654746 0.25 forward I I I I #
loop $-1 $-1 $135 $36 #
coedge $-1 $86 $86 $136 $137 reversed $53 $-1 #
face $-1 $138 $139 $29 $-1 $140 reversed single #
loop $-1 $-1 $141 $55 #
plane-surface $-1 -23.351443275192281 -16.696708941055881 28.369038294421557 0 0.52991927123019833 0.84804809178421925 1 0 0 forward_v I I I I #
coedge $-1 $142 $143 $144 $145 reversed $56 $-1 #
face $-1 $-1 $146 $30 $-1 $147 forward single #
loop $-1 $148 $149 $58 #
cone-surface $-1 -26.734986159783261 19.929755761304222 2.0801835839590188 0 -0.52991927123019833 -0.84804809178421925 0.5 0 0 1 I I -0.70710678118654746 0.70710678118654746 0.5 forward I I I I #
loop $-1 $-1 $150 $38 #
coedge $-1 $95 $95 $151 $152 reversed $59 $-1 #
face $-1 $-1 $153 $31 $-1 $154 forward single #
loop $-1 $155 $156 $61 #
cone-surface $-1 -19.967900390601301 19.929755761304222 2.0801835839590188 0 -0.52991927123019833 -0.84804809178421925 0.5 0 0 1 I I -0.70710678118654746 0.70710678118654746 0.5 forward I I I I #
loop $-1 $-1 $157 $39 #
coedge $-1 $100 $100 $158 $159 reversed $62 $-1 #
face $-1 $160 $161 $24 $-1 $162 reversed single #
loop $-1 $-1 $163 $64 #
plane-surface $-1 0 -23.986209571589036 0 0 1 0 0 0 1 forward_v I I I I #
coedge $-1 $164 $165 $166 $167 forward $65 $-1 #
coedge $-1 $168 $67 $169 $170 forward $41 $-1 #
coedge $-1 $67 $168 $171 $172 forward $41 $-1 #
coedge $-1 $173 $174 $67 $108 reversed $175 $-1 #
edge $-1 $176 -23.986209571589036 $177 23.986209571589036 $107 $178 forward 7 unknown #
face $-1 $179 $180 $25 $-1 $181 reversed single #
loop $-1 $-1 $182 $68 #
plane-surface $-1 -16.208684840064222 -100.3873746946571 45.673203146778512 1 0 0 0 0.86602541151947299 -0.49999998660252726 forward_v I I I I #
coedge $-1 $183 $184 $185 $186 reversed $69 $-1 #
coedge $-1 $114 $71 $187 $188 reversed $44 $-1 #
coedge $-1 $71 $113 $183 $189 reversed $44 $-1 #
coedge $-1 $185 $190 $71 $116 forward $191 $-1 #
edge $-1 $192 26.207477775739513 $193 28.830580771153869 $115 $194 forward 7 unknown #
loop $-1 $-1 $122 $72 #
plane-surface $-1 -10.235555954100718 -23.986209571589043 1.562971472482495 0 -0.86602541151947299 0.49999998660252726 1 0 0 forward_v I I I I #
loop $-1 $-1 $195 $46 #
coedge $-1 $120 $120 $121 $196 reversed $73 $-1 #
coedge $-1 $121 $121 $120 $196 forward $75 $-1 #
coedge $-1 $122 $122 $76 $123 forward $117 $-1 #
edge $-1 $197 1.7211315972468495e-015 $197 6.2831853071796022 $122 $198 forward 7 unknown #
loop $-1 $-1 $129 $77 #
plane-surface $-1 -10.235555954100718 -23.986209571589043 1.562971472482495 0 -0.86602541151947299 0.49999998660252726 1 0 0 forward_v I I I I #
loop $-1 $-1 $199 $49 #
coedge $-1 $127 $127 $128 $200 reversed $78 $-1 #
coedge $-1 $128 $128 $127 $200 forward $80 $-1 #
coedge $-1 $129 $129 $81 $130 forward $124 $-1 #
edge $-1 $201 1.7211315972468495e-015 $201 6.2831853071796022 $129 $202 forward 7 unknown #
loop $-1 $-1 $136 $82 #
plane-surface $-1 -10.235555954100718 -23.986209571589043 1.562971472482495 0 -0.86602541151947299 0.49999998660252726 1 0 0 forward_v I I I I #
loop $-1 $-1 $203 $52 #
coedge $-1 $134 $134 $135 $204 reversed $83 $-1 #
coedge $-1 $135 $135 $134 $204 forward $85 $-1 #
coedge $-1 $136 $136 $86 $137 forward $131 $-1 #
edge $-1 $205 1.7211315972468495e-015 $205 6.2831853071796022 $136 $206 forward 7 unknown #
face $-1 $207 $208 $29 $-1 $209 reversed single #
loop $-1 $-1 $210 $87 #
plane-surface $-1 -15.456509877813325 30.053015956876756 103.18423589818381 -1 0 0 0 0.52991927123019833 0.84804809178421925 forward_v I I I I #
coedge $-1 $211 $212 $213 $214 reversed $88 $-1 #
coedge $-1 $143 $90 $215 $216 reversed $56 $-1 #
coedge $-1 $90 $142 $211 $217 reversed $56 $-1 #
coedge $-1 $213 $218 $90 $145 forward $219 $-1 #
edge $-1 $220 -8.9597015931506583 $221 -3.9045803493579818 $144 $222 forward 7 unknown #
loop $-1 $-1 $151 $91 #
plane-surface $-1 -23.351443275192281 -16.696708941055881 28.369038294421557 0 0.52991927123019833 0.84804809178421925 1 0 0 forward_v I I I I #
loop $-1 $-1 $223 $58 #
coedge $-1 $149 $149 $150 $224 reversed $92 $-1 #
coedge $-1 $150 $150 $149 $224 forward $94 $-1 #
coedge $-1 $151 $151 $95 $152 forward $146 $-1 #
edge $-1 $225 -6.5955775151306058e-016 $225 6.2831853071795996 $151 $226 forward 7 unknown #
loop $-1 $-1 $158 $96 #
plane-surface $-1 -23.351443275192281 -16.696708941055881 28.369038294421557 0 0.52991927123019833 0.84804809178421925 1 0 0 forward_v I I I I #
loop $-1 $-1 $227 $61 #
coedge $-1 $156 $156 $157 $228 reversed $97 $-1 #
coedge $-1 $157 $157 $156 $228 forward $99 $-1 #
coedge $-1 $158 $158 $100 $159 forward $153 $-1 #
edge $-1 $229 -6.5955775151306058e-016 $229 6.2831853071795996 $158 $230 forward 7 unknown #
face $-1 $231 $232 $24 $-1 $233 reversed single #
loop $-1 $-1 $234 $101 #
plane-surface $-1 -44.110232856227299 0 0 1 0 0 0 0 -1 forward_v I I I I #
coedge $-1 $235 $171 $236 $237 forward $102 $-1 #
coedge $-1 $238 $104 $235 $239 forward $65 $-1 #
coedge $-1 $104 $238 $240 $241 forward $65 $-1 #
coedge $-1 $174 $173 $104 $167 reversed $175 $-1 #
edge $-1 $242 -23.986209571589036 $243 23.986209571589036 $166 $244 forward 7 unknown #
coedge $-1 $106 $105 $245 $246 forward $41 $-1 #
coedge $-1 $247 $248 $105 $170 reversed $232 $-1 #
edge $-1 $177 -44.110232856227299 $249 44.110232856227299 $169 $250 forward 7 unknown #
coedge $-1 $163 $251 $106 $172 reversed $102 $-1 #
edge $-1 $252 -44.110232856227299 $176 44.110232856227299 $171 $253 forward 7 unknown #
coedge $-1 $166 $107 $251 $254 forward $175 $-1 #
coedge $-1 $107 $166 $247 $255 reversed $175 $-1 #
loop $-1 $-1 $173 $231 #
vertex $-1 $108 $256 #
vertex $-1 $108 $257 #
straight-curve $-1 44.110232856227299 0 6.1063192963446236 0 1 0 I I #
face $-1 $-1 $191 $25 $-1 $258 forward single #
loop $-1 $-1 $259 $109 #
plane-surface $-1 0 -23.986209571589036 0 0 1 0 0 0 1 forward_v I I I I #
coedge $-1 $260 $261 $262 $263 reversed $110 $-1 #
coedge $-1 $264 $112 $114 $189 forward $69 $-1 #
coedge $-1 $112 $264 $260 $265 forward $69 $-1 #
coedge $-1 $262 $115 $112 $186 forward $191 $-1 #
edge $-1 $193 -0.85535090891314702 $266 11.090906863013863 $185 $267 forward 7 unknown #
coedge $-1 $268 $269 $113 $188 forward $180 $-1 #
edge $-1 $270 -21.27363010090675 $192 -16.730282277044633 $187 $271 forward 7 unknown #
edge $-1 $193 -5.246206131400533 $270 -1.4129008453179079e-014 $114 $272 forward 7 unknown #
coedge $-1 $115 $262 $268 $273 forward $191 $-1 #
loop $-1 $-1 $262 $179 #
vertex $-1 $188 $274 #
vertex $-1 $116 $275 #
straight-curve $-1 -4.2624270681372121 -50.193687347328549 6.1063192963446227 0 1 0 I I #
coedge $-1 $195 $195 $-1 $276 reversed $119 $-1 #
edge $-1 $277 0 $277 6.2831853071796004 $120 $278 forward 7 unknown #
vertex $-1 $123 $279 #
ellipse-curve $-1 -13.819433285678823 -22.674658073881861 3.8346453844135624 0 -0.86602541151947299 0.49999998660252726 0.5 0 0 1 I I #
coedge $-1 $199 $199 $-1 $280 reversed $126 $-1 #
edge $-1 $281 0 $281 6.2831853071796004 $127 $282 forward 7 unknown #
vertex $-1 $130 $283 #
ellipse-curve $-1 -10.235555954100718 -22.674658073881861 3.8346453844135624 0 -0.86602541151947299 0.49999998660252726 0.5 0 0 1 I I #
coedge $-1 $203 $203 $-1 $284 reversed $133 $-1 #
edge $-1 $285 0 $285 6.2831853071796004 $134 $286 forward 7 unknown #
vertex $-1 $137 $287 #
ellipse-curve $-1 -6.651678622522617 -22.674658073881861 3.8346453844135624 0 -0.86602541151947299 0.49999998660252726 0.5 0 0 1 I I #
face $-1 $-1 $219 $29 $-1 $288 forward single #
loop $-1 $-1 $289 $138 #
plane-surface $-1 0 23.986209571589036 0 0 -1 0 0 0 -1 forward_v I I I I #
coedge $-1 $290 $291 $292 $293 reversed $139 $-1 #
coedge $-1 $294 $141 $143 $217 forward $88 $-1 #
coedge $-1 $141 $294 $290 $295 forward $88 $-1 #
coedge $-1 $292 $144 $141 $214 forward $219 $-1 #
edge $-1 $221 -19.570655034975097 $296 -3.7807882402171842 $213 $297 forward 7 unknown #
coedge $-1 $298 $299 $142 $216 forward $208 $-1 #
edge $-1 $300 -48.644589046172896 $220 -45.485798652747285 $215 $301 forward 7 unknown #
edge $-1 $221 42.011529315388785 $300 47.97241914317808 $143 $302 forward 7 unknown #
coedge $-1 $144 $292 $298 $303 forward $219 $-1 #
loop $-1 $-1 $292 $207 #
vertex $-1 $216 $304 #
vertex $-1 $145 $305 #
straight-curve $-1 -31.246376672571238 15.026507978438378 6.1063192963446227 0 -1 0 I I #
coedge $-1 $223 $223 $-1 $306 reversed $148 $-1 #
edge $-1 $307 0 $307 6.2831853071796004 $149 $308 forward 7 unknown #
vertex $-1 $152 $309 #
ellipse-curve $-1 -26.734986159783261 21.458648949692691 4.526924099631823 0 0.52991927123019833 0.84804809178421925 1 0 0 1 I I #
coedge $-1 $227 $227 $-1 $310 reversed $155 $-1 #
edge $-1 $311 0 $311 6.2831853071796004 $156 $312 forward 7 unknown #
vertex $-1 $159 $313 #
ellipse-curve $-1 -19.967900390601301 21.458648949692691 4.526924099631823 0 0.52991927123019833 0.84804809178421925 1 0 0 1 I I #
face $-1 $-1 $175 $24 $-1 $314 reversed single #
loop $-1 $-1 $247 $160 #
plane-surface $-1 0 23.986209571589036 0 0 -1 0 0 0 -1 forward_v I I I I #
coedge $-1 $315 $245 $248 $316 forward $161 $-1 #
coedge $-1 $251 $163 $164 $239 reversed $102 $-1 #
coedge $-1 $245 $315 $163 $237 reversed $161 $-1 #
edge $-1 $252 -6.1063192963446236 $317 6.1063192963446236 $236 $318 forward 7 unknown #
coedge $-1 $165 $164 $315 $319 forward $65 $-1 #
edge $-1 $243 -44.110232856227299 $317 44.110232856227299 $235 $320 forward 7 unknown #
coedge $-1 $248 $247 $165 $241 reversed $232 $-1 #
edge $-1 $321 -44.110232856227299 $242 44.110232856227299 $240 $322 forward 7 unknown #
vertex $-1 $167 $323 #
vertex $-1 $254 $324 #
straight-curve $-1 44.110232856227299 0 -6.1063192963446236 0 -1 0 I I #
coedge $-1 $234 $236 $168 $246 reversed $161 $-1 #
edge $-1 $249 -23.986209571589036 $252 23.986209571589036 $245 $325 forward 7 unknown #
coedge $-1 $240 $169 $174 $255 forward $232 $-1 #
coedge $-1 $169 $240 $234 $316 reversed $232 $-1 #
vertex $-1 $170 $326 #
straight-curve $-1 0 23.986209571589036 6.1063192963446236 -1 0 0 I I #
coedge $-1 $171 $235 $173 $254 reversed $102 $-1 #
vertex $-1 $246 $327 #
straight-curve $-1 0 -23.986209571589036 6.1063192963446236 1 0 0 I I #
edge $-1 $176 -6.1063192963446236 $243 6.1063192963446236 $173 $328 forward 7 unknown #
edge $-1 $177 -6.1063192963446236 $242 6.1063192963446236 $174 $329 forward 7 unknown #
point $-1 44.110232856227299 -23.986209571589036 6.1063192963446236 #
point $-1 44.110232856227299 23.986209571589036 6.1063192963446236 #
plane-surface $-1 0 0 6.1063192963446236 0 0 1 1 0 0 forward_v I I I I #
coedge $-1 $269 $268 $261 $330 forward $180 $-1 #
coedge $-1 $261 $182 $184 $265 reversed $110 $-1 #
coedge $-1 $182 $260 $259 $330 reversed $110 $-1 #
coedge $-1 $190 $185 $182 $263 forward $191 $-1 #
edge $-1 $266 -28.830580771153869 $331 -26.207477775739513 $262 $332 forward 7 unknown #
coedge $-1 $184 $183 $269 $333 reversed $69 $-1 #
edge $-1 $334 1.4129008453179079e-014 $266 5.246206131400533 $260 $335 forward 7 unknown #
vertex $-1 $186 $336 #
straight-curve $-1 -5.1177779770503591 -21.36310657617468 6.1063192963446236 -1 0 0 I I #
coedge $-1 $259 $187 $190 $273 reversed $180 $-1 #
coedge $-1 $187 $259 $264 $333 forward $180 $-1 #
vertex $-1 $188 $337 #
straight-curve $-1 -4.2624270681372121 -23.986209571589036 22.836601573389256 0 0 1 I I #
straight-curve $-1 -4.2624270681372121 -23.986209571589043 1.562971472482495 0 -0.49999998660252726 -0.86602541151947299 I I #
edge $-1 $331 -16.208684840064222 $192 -4.2624270681372121 $268 $338 forward 7 unknown #
point $-1 -4.2624270681372121 -23.986209571589036 6.1063192963446236 #
point $-1 -4.2624270681372121 -21.36310657617468 6.1063192963446236 #
edge $-1 $339 1 $339 0 $195 $-1 forward 7 unknown #
vertex $-1 $196 $340 #
ellipse-curve $-1 -13.819433285678823 -21.808632662362381 3.3346453978110318 0 -0.86602541151947299 0.49999998660252726 0.5 0 0 1 I I #
point $-1 -13.319433285678823 -22.674658073881854 3.8346453844135593 #
edge $-1 $341 1 $341 0 $199 $-1 forward 7 unknown #
vertex $-1 $200 $342 #
ellipse-curve $-1 -10.235555954100718 -21.808632662362381 3.3346453978110318 0 -0.86602541151947299 0.49999998660252726 0.5 0 0 1 I I #
point $-1 -9.7355559541007182 -22.674658073881854 3.8346453844135593 #
edge $-1 $343 1 $343 0 $203 $-1 forward 7 unknown #
vertex $-1 $204 $344 #
ellipse-curve $-1 -6.651678622522617 -21.808632662362381 3.3346453978110318 0 -0.86602541151947299 0.49999998660252726 0.5 0 0 1 I I #
point $-1 -6.151678622522617 -22.674658073881854 3.8346453844135593 #
plane-surface $-1 0 0 6.1063192963446236 0 0 1 1 0 0 forward_v I I I I #
coedge $-1 $299 $298 $291 $345 forward $208 $-1 #
coedge $-1 $291 $210 $212 $295 reversed $139 $-1 #
coedge $-1 $210 $290 $289 $345 reversed $139 $-1 #
coedge $-1 $218 $213 $210 $293 forward $219 $-1 #
edge $-1 $296 3.9045803493579818 $346 8.9597015931506583 $292 $347 forward 7 unknown #
coedge $-1 $212 $211 $299 $348 reversed $88 $-1 #
edge $-1 $349 -47.97241914317808 $296 -42.011529315388785 $290 $350 forward 7 unknown #
vertex $-1 $214 $351 #
straight-curve $-1 -11.675721637596141 18.931088327796363 6.1063192963446191 1 0 0 I I #
coedge $-1 $289 $215 $218 $303 reversed $208 $-1 #
coedge $-1 $215 $289 $294 $348 forward $208 $-1 #
vertex $-1 $216 $352 #
straight-curve $-1 -31.246376672571238 23.986209571589036 51.592117949091907 0 0 1 I I #
straight-curve $-1 -31.246376672571238 -16.696708941055881 28.369038294421557 0 0.84804809178421925 -0.52991927123019833 I I #
edge $-1 $346 15.456509877813325 $220 31.246376672571238 $298 $353 forward 7 unknown #
point $-1 -31.246376672571238 23.986209571589036 6.1063192963446236 #
point $-1 -31.246376672571238 18.93108832779636 6.1063192963446227 #
edge $-1 $354 1 $354 0 $223 $-1 forward 7 unknown #
vertex $-1 $224 $355 #
ellipse-curve $-1 -26.734986159783261 20.194715396919321 2.5042076298511287 0 0.52991927123019833 0.84804809178421925 1 0 0 1 I I #
point $-1 -25.734986159783261 21.458648949692687 4.5269240996318185 #
edge $-1 $356 1 $356 0 $227 $-1 forward 7 unknown #
vertex $-1 $228 $357 #
ellipse-curve $-1 -19.967900390601301 20.194715396919321 2.5042076298511287 0 0.52991927123019833 0.84804809178421925 1 0 0 1 I I #
point $-1 -18.967900390601301 21.458648949692687 4.5269240996318185 #
plane-surface $-1 44.110232856227299 0 0 -1 0 0 0 0 1 forward_v I I I I #
coedge $-1 $236 $234 $238 $319 reversed $161 $-1 #
edge $-1 $249 -6.1063192963446236 $321 6.1063192963446236 $248 $358 forward 7 unknown #
vertex $-1 $319 $359 #
straight-curve $-1 -44.110232856227299 -23.986209571589036 0 0 0 -1 I I #
edge $-1 $317 -23.986209571589036 $321 23.986209571589036 $315 $360 forward 7 unknown #
straight-curve $-1 0 -23.986209571589036 -6.1063192963446236 -1 0 0 I I #
vertex $-1 $241 $361 #
straight-curve $-1 0 23.986209571589036 -6.1063192963446236 1 0 0 I I #
point $-1 44.110232856227299 23.986209571589036 -6.1063192963446236 #
point $-1 44.110232856227299 -23.986209571589036 -6.1063192963446236 #
straight-curve $-1 -44.110232856227299 0 6.1063192963446236 0 -1 0 I I #
point $-1 -44.110232856227299 23.986209571589036 6.1063192963446236 #
point $-1 -44.110232856227299 -23.986209571589036 6.1063192963446236 #
straight-curve $-1 44.110232856227299 -23.986209571589036 0 0 0 -1 I I #
straight-curve $-1 44.110232856227299 23.986209571589036 0 0 0 -1 I I #
edge $-1 $331 16.730282277044633 $334 21.27363010090675 $259 $362 forward 7 unknown #
vertex $-1 $273 $363 #
straight-curve $-1 -16.208684840064222 -50.193687347328549 6.1063192963446227 0 -1 0 I I #
edge $-1 $334 -11.090906863013863 $270 0.85535090891314702 $269 $364 forward 7 unknown #
vertex $-1 $333 $365 #
straight-curve $-1 -16.208684840064222 -23.986209571589043 1.562971472482495 0 0.49999998660252726 0.86602541151947299 I I #
point $-1 -16.208684840064222 -21.36310657617468 6.1063192963446236 #
point $-1 -4.2624270681372121 -23.986209571589036 1.5629714724825072 #
straight-curve $-1 0 -23.986209571589036 6.1063192963446236 1 0 0 I I #
vertex $-1 $276 $366 #
point $-1 -13.319433285678823 -21.808632662362381 3.3346453978110318 #
vertex $-1 $280 $367 #
point $-1 -9.7355559541007182 -21.808632662362381 3.3346453978110318 #
vertex $-1 $284 $368 #
point $-1 -6.151678622522617 -21.808632662362381 3.3346453978110318 #
edge $-1 $346 45.485798652747285 $349 48.644589046172896 $289 $369 forward 7 unknown #
vertex $-1 $303 $370 #
straight-curve $-1 -15.456509877813325 15.026507978438378 6.1063192963446227 0 1 0 I I #
edge $-1 $349 3.7807882402171842 $300 19.570655034975097 $299 $371 forward 7 unknown #
vertex $-1 $348 $372 #
straight-curve $-1 -15.456509877813325 -16.696708941055881 28.369038294421557 0 -0.84804809178421925 0.52991927123019833 I I #
point $-1 -15.456509877813325 18.93108832779636 6.1063192963446227 #
point $-1 -31.246376672571238 23.986209571589036 2.9475289029190144 #
straight-curve $-1 0 23.986209571589036 6.1063192963446236 -1 0 0 I I #
vertex $-1 $306 $373 #
point $-1 -25.734986159783261 20.194715396919321 2.5042076298511287 #
vertex $-1 $310 $374 #
point $-1 -18.967900390601301 20.194715396919321 2.5042076298511287 #
straight-curve $-1 -44.110232856227299 23.986209571589036 0 0 0 -1 I I #
point $-1 -44.110232856227299 -23.986209571589036 -6.1063192963446236 #
straight-curve $-1 -44.110232856227299 0 -6.1063192963446236 0 1 0 I I #
point $-1 -44.110232856227299 23.986209571589036 -6.1063192963446236 #
straight-curve $-1 -16.208684840064222 -23.986209571589036 22.836601573389256 0 0 -1 I I #
point $-1 -16.208684840064222 -23.986209571589036 6.1063192963446236 #
straight-curve $-1 -5.1177779770503591 -23.986209571589036 1.5629714724825075 1 0 0 I I #
point $-1 -16.208684840064222 -23.986209571589036 1.5629714724825072 #
point $-1 -13.819433285678823 -21.375619956602645 3.0846454045097684 #
point $-1 -10.235555954100718 -21.375619956602645 3.0846454045097684 #
point $-1 -6.651678622522617 -21.375619956602645 3.0846454045097684 #
straight-curve $-1 -15.456509877813325 23.986209571589036 51.592117949091907 0 0 -1 I I #
point $-1 -15.456509877813325 23.986209571589036 6.1063192963446236 #
straight-curve $-1 -11.675721637596141 23.986209571589036 2.9475289029190161 -1 0 0 I I #
point $-1 -15.456509877813325 23.986209571589036 2.9475289029190144 #
point $-1 -26.734986159783261 19.664796125689122 1.6561595380669092 #
point $-1 -19.967900390601301 19.664796125689122 1.6561595380669092 #
End-of-ACIS-data 