500 0 7 0           
7 Unknown 11 ACIS 5.0 NT 24 Fri Mar 26 02:54:07 1999 
-1 9.9999999999999995e-007 1e-010 
body $-1 $7 $-1 $8 #
body $-1 $9 $-1 $10 #
body $-1 $11 $-1 $12 #
body $-1 $13 $-1 $14 #
body $-1 $15 $-1 $16 #
body $-1 $17 $-1 $18 #
body $-1 $19 $-1 $20 #
lump $-1 $-1 $21 $0 #
transform $-1 1 0 0 0 1 0 0 0 1 53.352458265938296 22.282267406950258 6.9014711046600992 1 rotate no_reflect no_shear #
lump $-1 $-1 $22 $1 #
transform $-1 1 0 0 0 1 0 0 0 1 53.352458265938296 22.282267406950258 6.9014711046600992 1 rotate no_reflect no_shear #
lump $-1 $-1 $23 $2 #
transform $-1 1 0 0 0 1 0 0 0 1 53.352458265938296 22.282267406950258 6.9014711046600992 1 rotate no_reflect no_shear #
lump $-1 $-1 $24 $3 #
transform $-1 1 0 0 0 1 0 0 0 1 53.352458265938296 22.282267406950258 6.9014711046600992 1 rotate no_reflect no_shear #
lump $-1 $-1 $25 $4 #
transform $-1 1 0 0 0 1 0 0 0 1 53.352458265938296 22.282267406950258 6.9014711046600992 1 rotate no_reflect no_shear #
lump $-1 $-1 $26 $5 #
transform $-1 1 0 0 0 1 0 0 0 1 53.352458265938296 22.282267406950258 6.9014711046600992 1 rotate no_reflect no_shear #
lump $-1 $-1 $27 $6 #
transform $-1 1 0 0 0 1 0 0 0 1 53.352458265938296 22.282267406950258 6.9014711046600992 1 rotate no_reflect no_shear #
shell $-1 $-1 $-1 $28 $-1 $7 #
shell $-1 $-1 $-1 $29 $-1 $9 #
shell $-1 $-1 $-1 $30 $-1 $11 #
shell $-1 $-1 $-1 $31 $-1 $13 #
shell $-1 $-1 $-1 $32 $-1 $15 #
shell $-1 $-1 $-1 $33 $-1 $17 #
shell $-1 $-1 $-1 $34 $-1 $19 #
face $-1 $35 $36 $21 $-1 $37 forward single #
face $-1 $38 $39 $22 $-1 $40 reversed single #
face $-1 $41 $42 $23 $-1 $43 forward single #
face $-1 $44 $45 $24 $-1 $46 forward single #
face $-1 $47 $48 $25 $-1 $49 reversed single #
face $-1 $50 $51 $26 $-1 $52 forward single #
face $-1 $53 $54 $27 $-1 $55 forward single #
face $-1 $56 $57 $21 $-1 $58 reversed single #
loop $-1 $-1 $59 $28 #
plane-surface $-1 0 0 6.9014711046600992 0 0 1 1 0 0 forward_v I I I I #
face $-1 $60 $61 $22 $-1 $62 reversed single #
loop $-1 $-1 $63 $29 #
plane-surface $-1 36.938999680519629 -77.239362932025472 94.812845609031754 -1 0 0 0 -0.51503808176128008 0.85716729658548041 forward_v I I I I #
face $-1 $64 $65 $23 $-1 $66 forward single #
loop $-1 $67 $68 $30 #
cone-surface $-1 15.453940615650694 -18.346402961575972 3.4948263185304906 0 0.51503808176128008 -0.85716729658548041 1.5 0 0 1 I I 0 1 1.5 forward I I I I #
face $-1 $69 $70 $24 $-1 $71 forward single #
loop $-1 $72 $73 $31 #
cone-surface $-1 28.344976054572058 -18.346402961575972 3.4948263185304906 0 0.51503808176128008 -0.85716729658548041 1.5 0 0 1 I I 0 1 1.5 forward I I I I #
face $-1 $74 $75 $25 $-1 $76 reversed single #
loop $-1 $-1 $77 $32 #
plane-surface $-1 1.5081621389835789 77.16219321968758 104.49255093077457 1 0 0 0 -0.77714596973225614 -0.62932038083071107 forward_v I I I I #
face $-1 $78 $79 $26 $-1 $80 forward single #
loop $-1 $81 $82 $33 #
cone-surface $-1 8.5403803519031669 19.395686872602596 3.8421330676829424 0 -0.77714596973225614 -0.62932038083071107 1 0 0 1 I I 0 1 1 forward I I I I #
face $-1 $83 $84 $27 $-1 $85 forward single #
loop $-1 $86 $87 $34 #
cone-surface $-1 19.088707671282549 19.395686872602596 3.8421330676829424 0 -0.77714596973225614 -0.62932038083071107 1 0 0 1 I I 0 1 1 forward I I I I #
face $-1 $88 $89 $21 $-1 $90 reversed single #
loop $-1 $-1 $91 $35 #
plane-surface $-1 0 0 -6.9014711046600992 0 0 1 1 0 0 forward_v I I I I #
coedge $-1 $92 $93 $94 $95 forward $36 $-1 #
face $-1 $96 $97 $22 $-1 $98 reversed single #
loop $-1 $-1 $99 $38 #
plane-surface $-1 21.899458335111376 -22.282267406950247 3.3488807730237653 0 -0.51503808176128008 0.85716729658548041 1 0 0 forward_v I I I I #
coedge $-1 $100 $101 $102 $103 reversed $39 $-1 #
face $-1 $-1 $104 $23 $-1 $105 forward single #
loop $-1 $106 $107 $41 #
cone-surface $-1 15.453940615650694 -16.980511500427468 1.2216012257799322 0 0.51503808176128008 -0.85716729658548041 0.75 0 0 1 I I -0.70710678118654757 0.70710678118654757 0.75 forward I I I I #
loop $-1 $-1 $108 $30 #
coedge $-1 $68 $68 $109 $110 reversed $42 $-1 #
face $-1 $-1 $111 $24 $-1 $112 forward single #
loop $-1 $113 $114 $44 #
cone-surface $-1 28.344976054572058 -16.980511500427468 1.2216012257799322 0 0.51503808176128008 -0.85716729658548041 0.75 0 0 1 I I -0.70710678118654757 0.70710678118654757 0.75 forward I I I I #
loop $-1 $-1 $115 $31 #
coedge $-1 $73 $73 $116 $117 reversed $45 $-1 #
face $-1 $118 $119 $25 $-1 $120 reversed single #
loop $-1 $-1 $121 $47 #
plane-surface $-1 13.814544011592858 -5.7631026136771055 37.340972222424753 0 0.77714596973225614 0.62932038083071107 1 0 0 forward_v I I I I #
coedge $-1 $122 $123 $124 $125 reversed $48 $-1 #
face $-1 $-1 $126 $26 $-1 $127 forward single #
loop $-1 $128 $129 $50 #
cone-surface $-1 8.5403803519031669 17.818507703279028 2.5649585932159029 0 -0.77714596973225614 -0.62932038083071107 0.5 0 0 1 I I -0.70710678118654746 0.70710678118654746 0.5 forward I I I I #
loop $-1 $-1 $130 $33 #
coedge $-1 $82 $82 $131 $132 reversed $51 $-1 #
face $-1 $-1 $133 $27 $-1 $134 forward single #
loop $-1 $135 $136 $53 #
cone-surface $-1 19.088707671282549 17.818507703279028 2.5649585932159029 0 -0.77714596973225614 -0.62932038083071107 0.5 0 0 1 I I -0.70710678118654746 0.70710678118654746 0.5 forward I I I I #
loop $-1 $-1 $137 $34 #
coedge $-1 $87 $87 $138 $139 reversed $54 $-1 #
face $-1 $140 $141 $21 $-1 $142 reversed single #
loop $-1 $-1 $143 $56 #
plane-surface $-1 0 -22.282267406950258 0 0 1 0 0 0 1 forward_v I I I I #
coedge $-1 $144 $145 $146 $147 forward $57 $-1 #
coedge $-1 $148 $59 $149 $150 forward $36 $-1 #
coedge $-1 $59 $148 $151 $152 forward $36 $-1 #
coedge $-1 $153 $154 $59 $95 reversed $155 $-1 #
edge $-1 $156 -22.282267406950258 $157 22.282267406950258 $94 $158 forward 7 unknown #
face $-1 $159 $160 $22 $-1 $161 reversed single #
loop $-1 $-1 $162 $60 #
plane-surface $-1 6.8599169897031196 -77.239362932025472 94.812845609031754 1 0 0 0 0.51503808176128008 -0.85716729658548041 forward_v I I I I #
coedge $-1 $163 $164 $165 $166 reversed $61 $-1 #
coedge $-1 $101 $63 $167 $168 reversed $39 $-1 #
coedge $-1 $63 $100 $163 $169 reversed $39 $-1 #
coedge $-1 $165 $170 $63 $103 forward $171 $-1 #
edge $-1 $172 16.337414059062478 $173 22.24991715015598 $102 $174 forward 7 unknown #
loop $-1 $-1 $109 $64 #
plane-surface $-1 21.899458335111376 -22.282267406950247 3.3488807730237653 0 -0.51503808176128008 0.85716729658548041 1 0 0 forward_v I I I I #
loop $-1 $-1 $175 $41 #
coedge $-1 $107 $107 $108 $176 reversed $65 $-1 #
coedge $-1 $108 $108 $107 $176 forward $67 $-1 #
coedge $-1 $109 $109 $68 $110 forward $104 $-1 #
edge $-1 $177 -2.1260104764836781e-015 $177 6.2831853071795987 $109 $178 forward 7 unknown #
loop $-1 $-1 $116 $69 #
plane-surface $-1 21.899458335111376 -22.282267406950247 3.3488807730237653 0 -0.51503808176128008 0.85716729658548041 1 0 0 forward_v I I I I #
loop $-1 $-1 $179 $44 #
coedge $-1 $114 $114 $115 $180 reversed $70 $-1 #
coedge $-1 $115 $115 $114 $180 forward $72 $-1 #
coedge $-1 $116 $116 $73 $117 forward $111 $-1 #
edge $-1 $181 -2.1260104764836781e-015 $181 6.2831853071795987 $116 $182 forward 7 unknown #
face $-1 $183 $184 $25 $-1 $185 reversed single #
loop $-1 $-1 $186 $74 #
plane-surface $-1 26.120925884202137 77.16219321968758 104.49255093077457 -1 0 0 0 0.77714596973225614 0.62932038083071107 forward_v I I I I #
coedge $-1 $187 $188 $189 $190 reversed $75 $-1 #
coedge $-1 $123 $77 $191 $192 reversed $48 $-1 #
coedge $-1 $77 $122 $187 $193 reversed $48 $-1 #
coedge $-1 $189 $194 $77 $125 forward $195 $-1 #
edge $-1 $196 16.298829202893533 $197 19.694777902674002 $124 $198 forward 7 unknown #
loop $-1 $-1 $131 $78 #
plane-surface $-1 13.814544011592858 -5.7631026136771055 37.340972222424753 0 0.77714596973225614 0.62932038083071107 1 0 0 forward_v I I I I #
loop $-1 $-1 $199 $50 #
coedge $-1 $129 $129 $130 $200 reversed $79 $-1 #
coedge $-1 $130 $130 $129 $200 forward $81 $-1 #
coedge $-1 $131 $131 $82 $132 forward $126 $-1 #
edge $-1 $201 -1.9505741675554339e-016 $201 6.2831853071796004 $131 $202 forward 7 unknown #
loop $-1 $-1 $138 $83 #
plane-surface $-1 13.814544011592858 -5.7631026136771055 37.340972222424753 0 0.77714596973225614 0.62932038083071107 1 0 0 forward_v I I I I #
loop $-1 $-1 $203 $53 #
coedge $-1 $136 $136 $137 $204 reversed $84 $-1 #
coedge $-1 $137 $137 $136 $204 forward $86 $-1 #
coedge $-1 $138 $138 $87 $139 forward $133 $-1 #
edge $-1 $205 -1.9505741675554339e-016 $205 6.2831853071796004 $138 $206 forward 7 unknown #
face $-1 $207 $208 $21 $-1 $209 reversed single #
loop $-1 $-1 $210 $88 #
plane-surface $-1 -53.352458265938296 0 0 1 0 0 0 0 -1 forward_v I I I I #
coedge $-1 $211 $151 $212 $213 forward $89 $-1 #
coedge $-1 $214 $91 $211 $215 forward $57 $-1 #
coedge $-1 $91 $214 $216 $217 forward $57 $-1 #
coedge $-1 $154 $153 $91 $147 reversed $155 $-1 #
edge $-1 $218 -22.282267406950258 $219 22.282267406950258 $146 $220 forward 7 unknown #
coedge $-1 $93 $92 $221 $222 forward $36 $-1 #
coedge $-1 $223 $224 $92 $150 reversed $208 $-1 #
edge $-1 $157 -53.352458265938296 $225 53.352458265938296 $149 $226 forward 7 unknown #
coedge $-1 $143 $227 $93 $152 reversed $89 $-1 #
edge $-1 $228 -53.352458265938296 $156 53.352458265938296 $151 $229 forward 7 unknown #
coedge $-1 $146 $94 $227 $230 forward $155 $-1 #
coedge $-1 $94 $146 $223 $231 reversed $155 $-1 #
loop $-1 $-1 $153 $207 #
vertex $-1 $95 $232 #
vertex $-1 $95 $233 #
straight-curve $-1 53.352458265938296 0 6.9014711046600992 0 1 0 I I #
face $-1 $-1 $171 $22 $-1 $234 forward single #
loop $-1 $-1 $235 $96 #
plane-surface $-1 0 -22.282267406950258 0 0 1 0 0 0 1 forward_v I I I I #
coedge $-1 $236 $237 $238 $239 reversed $97 $-1 #
coedge $-1 $240 $99 $101 $169 forward $61 $-1 #
coedge $-1 $99 $240 $236 $241 forward $61 $-1 #
coedge $-1 $238 $102 $99 $166 forward $171 $-1 #
edge $-1 $173 -25.989270512963941 $242 4.0898121778525685 $165 $243 forward 7 unknown #
coedge $-1 $244 $245 $100 $168 forward $160 $-1 #
edge $-1 $246 -44.057542031492119 $172 -40.504951699855781 $167 $247 forward 7 unknown #
edge $-1 $173 -6.8977236003355511 $246 1.2337929905607871e-014 $101 $248 forward 7 unknown #
coedge $-1 $102 $238 $244 $249 forward $171 $-1 #
loop $-1 $-1 $238 $159 #
vertex $-1 $168 $250 #
vertex $-1 $103 $251 #
straight-curve $-1 36.938999680519629 -38.619681466012736 6.9014711046600965 0 1 0 I I #
coedge $-1 $175 $175 $-1 $252 reversed $106 $-1 #
edge $-1 $253 0 $253 6.2831853071796004 $107 $254 forward 7 unknown #
vertex $-1 $110 $255 #
ellipse-curve $-1 15.453940615650694 -19.326015861403508 5.1251759388419265 0 -0.51503808176128008 0.85716729658548041 1.5 0 0 1 I I #
coedge $-1 $179 $179 $-1 $256 reversed $113 $-1 #
edge $-1 $257 0 $257 6.2831853071796004 $114 $258 forward 7 unknown #
vertex $-1 $117 $259 #
ellipse-curve $-1 28.344976054572058 -19.326015861403508 5.1251759388419265 0 -0.51503808176128008 0.85716729658548041 1.5 0 0 1 I I #
face $-1 $-1 $195 $25 $-1 $260 forward single #
loop $-1 $-1 $261 $118 #
plane-surface $-1 0 22.282267406950258 0 0 -1 0 0 0 -1 forward_v I I I I #
coedge $-1 $262 $263 $264 $265 reversed $119 $-1 #
coedge $-1 $266 $121 $123 $193 forward $75 $-1 #
coedge $-1 $121 $266 $262 $267 forward $75 $-1 #
coedge $-1 $264 $124 $121 $190 forward $195 $-1 #
edge $-1 $197 -5.3991098668128501 $268 19.213653878405708 $189 $269 forward 7 unknown #
coedge $-1 $270 $271 $122 $192 forward $184 $-1 #
edge $-1 $272 -49.53845186657815 $196 -45.344804360727188 $191 $273 forward 7 unknown #
edge $-1 $197 39.168318827223324 $272 44.564534813900529 $123 $274 forward 7 unknown #
coedge $-1 $124 $264 $270 $275 forward $195 $-1 #
loop $-1 $-1 $264 $183 #
vertex $-1 $192 $276 #
vertex $-1 $125 $277 #
straight-curve $-1 1.5081621389835789 38.58109660984379 6.9014711046600965 0 -1 0 I I #
coedge $-1 $199 $199 $-1 $278 reversed $128 $-1 #
edge $-1 $279 0 $279 6.2831853071796004 $129 $280 forward 7 unknown #
vertex $-1 $132 $281 #
ellipse-curve $-1 8.5403803519031669 20.584293057060023 4.8046473517346158 0 0.77714596973225614 0.62932038083071107 1 0 0 1 I I #
coedge $-1 $203 $203 $-1 $282 reversed $135 $-1 #
edge $-1 $283 0 $283 6.2831853071796004 $136 $284 forward 7 unknown #
vertex $-1 $139 $285 #
ellipse-curve $-1 19.088707671282549 20.584293057060023 4.8046473517346158 0 0.77714596973225614 0.62932038083071107 1 0 0 1 I I #
face $-1 $-1 $155 $21 $-1 $286 reversed single #
loop $-1 $-1 $223 $140 #
plane-surface $-1 0 22.282267406950258 0 0 -1 0 0 0 -1 forward_v I I I I #
coedge $-1 $287 $221 $224 $288 forward $141 $-1 #
coedge $-1 $227 $143 $144 $215 reversed $89 $-1 #
coedge $-1 $221 $287 $143 $213 reversed $141 $-1 #
edge $-1 $228 -6.9014711046600992 $289 6.9014711046600992 $212 $290 forward 7 unknown #
coedge $-1 $145 $144 $287 $291 forward $57 $-1 #
edge $-1 $219 -53.352458265938296 $289 53.352458265938296 $211 $292 forward 7 unknown #
coedge $-1 $224 $223 $145 $217 reversed $208 $-1 #
edge $-1 $293 -53.352458265938296 $218 53.352458265938296 $216 $294 forward 7 unknown #
vertex $-1 $147 $295 #
vertex $-1 $230 $296 #
straight-curve $-1 53.352458265938296 0 -6.9014711046600992 0 -1 0 I I #
coedge $-1 $210 $212 $148 $222 reversed $141 $-1 #
edge $-1 $225 -22.282267406950258 $228 22.282267406950258 $221 $297 forward 7 unknown #
coedge $-1 $216 $149 $154 $231 forward $208 $-1 #
coedge $-1 $149 $216 $210 $288 reversed $208 $-1 #
vertex $-1 $150 $298 #
straight-curve $-1 0 22.282267406950258 6.9014711046600992 -1 0 0 I I #
coedge $-1 $151 $211 $153 $230 reversed $89 $-1 #
vertex $-1 $222 $299 #
straight-curve $-1 0 -22.282267406950258 6.9014711046600992 1 0 0 I I #
edge $-1 $156 -6.9014711046600992 $219 6.9014711046600992 $153 $300 forward 7 unknown #
edge $-1 $157 -6.9014711046600992 $218 6.9014711046600992 $154 $301 forward 7 unknown #
point $-1 53.352458265938296 -22.282267406950258 6.9014711046600992 #
point $-1 53.352458265938296 22.282267406950258 6.9014711046600992 #
plane-surface $-1 0 0 6.9014711046600992 0 0 1 1 0 0 forward_v I I I I #
coedge $-1 $245 $244 $237 $302 forward $160 $-1 #
coedge $-1 $237 $162 $164 $241 reversed $97 $-1 #
coedge $-1 $162 $236 $235 $302 reversed $97 $-1 #
coedge $-1 $170 $165 $162 $239 forward $171 $-1 #
edge $-1 $242 -22.24991715015598 $303 -16.337414059062478 $238 $304 forward 7 unknown #
coedge $-1 $164 $163 $245 $305 reversed $61 $-1 #
edge $-1 $306 -1.2337929905607871e-014 $242 6.8977236003355511 $236 $307 forward 7 unknown #
vertex $-1 $166 $308 #
straight-curve $-1 10.949729167555688 -16.369764315856756 6.9014711046600992 -1 0 0 I I #
coedge $-1 $235 $167 $170 $249 reversed $160 $-1 #
coedge $-1 $167 $235 $240 $305 forward $160 $-1 #
vertex $-1 $168 $309 #
straight-curve $-1 36.938999680519629 -22.282267406950258 47.406422804515877 0 0 1 I I #
straight-curve $-1 36.938999680519629 -22.282267406950247 3.3488807730237653 0 -0.85716729658548041 -0.51503808176128008 I I #
edge $-1 $303 6.8599169897031196 $172 36.938999680519629 $244 $310 forward 7 unknown #
point $-1 36.938999680519629 -22.282267406950258 6.9014711046600992 #
point $-1 36.938999680519629 -16.369764315856756 6.9014711046600992 #
edge $-1 $311 1 $311 0 $175 $-1 forward 7 unknown #
vertex $-1 $176 $312 #
ellipse-curve $-1 15.453940615650694 -17.366790061748429 1.8644766982190426 0 -0.51503808176128008 0.85716729658548041 1.5 0 0 1 I I #
point $-1 16.953940615650694 -19.326015861403519 5.125175938841938 #
edge $-1 $313 1 $313 0 $179 $-1 forward 7 unknown #
vertex $-1 $180 $314 #
ellipse-curve $-1 28.344976054572058 -17.366790061748429 1.8644766982190426 0 -0.51503808176128008 0.85716729658548041 1.5 0 0 1 I I #
point $-1 29.844976054572058 -19.326015861403519 5.125175938841938 #
plane-surface $-1 0 0 6.9014711046600992 0 0 1 1 0 0 forward_v I I I I #
coedge $-1 $271 $270 $263 $315 forward $184 $-1 #
coedge $-1 $263 $186 $188 $267 reversed $119 $-1 #
coedge $-1 $186 $262 $261 $315 reversed $119 $-1 #
coedge $-1 $194 $189 $186 $265 forward $195 $-1 #
edge $-1 $268 -19.694777902674002 $316 -16.298829202893533 $264 $317 forward 7 unknown #
coedge $-1 $188 $187 $271 $318 reversed $75 $-1 #
edge $-1 $319 -44.564534813900529 $268 -39.168318827223324 $262 $320 forward 7 unknown #
vertex $-1 $190 $321 #
straight-curve $-1 6.907272005796429 18.886318707169782 6.9014711046601001 1 0 0 I I #
coedge $-1 $261 $191 $194 $275 reversed $184 $-1 #
coedge $-1 $191 $261 $266 $318 forward $184 $-1 #
vertex $-1 $192 $322 #
straight-curve $-1 1.5081621389835789 22.282267406950258 52.246275465387285 0 0 1 I I #
straight-curve $-1 1.5081621389835789 -5.7631026136771055 37.340972222424753 0 0.62932038083071107 -0.77714596973225614 I I #
edge $-1 $316 -26.120925884202137 $196 -1.5081621389835789 $270 $323 forward 7 unknown #
point $-1 1.5081621389835789 22.282267406950258 6.9014711046600992 #
point $-1 1.5081621389835789 18.886318707169789 6.9014711046600965 #
edge $-1 $324 1 $324 0 $199 $-1 forward 7 unknown #
vertex $-1 $200 $325 #
ellipse-curve $-1 8.5403803519031669 18.207080688145155 2.8796187836312583 0 0.77714596973225614 0.62932038083071107 1 0 0 1 I I #
point $-1 9.5403803519031669 20.584293057060034 4.8046473517346246 #
edge $-1 $326 1 $326 0 $203 $-1 forward 7 unknown #
vertex $-1 $204 $327 #
ellipse-curve $-1 19.088707671282549 18.207080688145155 2.8796187836312583 0 0.77714596973225614 0.62932038083071107 1 0 0 1 I I #
point $-1 20.088707671282549 20.584293057060034 4.8046473517346246 #
plane-surface $-1 53.352458265938296 0 0 -1 0 0 0 0 1 forward_v I I I I #
coedge $-1 $212 $210 $214 $291 reversed $141 $-1 #
edge $-1 $225 -6.9014711046600992 $293 6.9014711046600992 $224 $328 forward 7 unknown #
vertex $-1 $291 $329 #
straight-curve $-1 -53.352458265938296 -22.282267406950258 0 0 0 -1 I I #
edge $-1 $289 -22.282267406950258 $293 22.282267406950258 $287 $330 forward 7 unknown #
straight-curve $-1 0 -22.282267406950258 -6.9014711046600992 -1 0 0 I I #
vertex $-1 $217 $331 #
straight-curve $-1 0 22.282267406950258 -6.9014711046600992 1 0 0 I I #
point $-1 53.352458265938296 22.282267406950258 -6.9014711046600992 #
point $-1 53.352458265938296 -22.282267406950258 -6.9014711046600992 #
straight-curve $-1 -53.352458265938296 0 6.9014711046600992 0 -1 0 I I #
point $-1 -53.352458265938296 22.282267406950258 6.9014711046600992 #
point $-1 -53.352458265938296 -22.282267406950258 6.9014711046600992 #
straight-curve $-1 53.352458265938296 -22.282267406950258 0 0 0 -1 I I #
straight-curve $-1 53.352458265938296 22.282267406950258 0 0 0 -1 I I #
edge $-1 $303 40.504951699855781 $306 44.057542031492119 $235 $332 forward 7 unknown #
vertex $-1 $249 $333 #
straight-curve $-1 6.8599169897031196 -38.619681466012736 6.9014711046600965 0 -1 0 I I #
edge $-1 $306 -4.0898121778525685 $246 25.989270512963941 $245 $334 forward 7 unknown #
vertex $-1 $305 $335 #
straight-curve $-1 6.8599169897031196 -22.282267406950247 3.3488807730237653 0 0.85716729658548041 0.51503808176128008 I I #
point $-1 6.8599169897031196 -16.369764315856756 6.9014711046600992 #
point $-1 36.938999680519629 -22.282267406950258 3.3488807730237591 #
straight-curve $-1 0 -22.282267406950258 6.9014711046600992 1 0 0 I I #
vertex $-1 $252 $336 #
point $-1 16.953940615650694 -17.366790061748429 1.8644766982190426 #
vertex $-1 $256 $337 #
point $-1 29.844976054572058 -17.366790061748429 1.8644766982190426 #
edge $-1 $316 45.344804360727188 $319 49.53845186657815 $261 $338 forward 7 unknown #
vertex $-1 $275 $339 #
straight-curve $-1 26.120925884202137 38.58109660984379 6.9014711046600965 0 1 0 I I #
edge $-1 $319 -19.213653878405708 $272 5.3991098668128501 $271 $340 forward 7 unknown #
vertex $-1 $318 $341 #
straight-curve $-1 26.120925884202137 -5.7631026136771055 37.340972222424753 0 -0.62932038083071107 0.77714596973225614 I I #
point $-1 26.120925884202137 18.886318707169789 6.9014711046600965 #
point $-1 1.5081621389835789 22.282267406950258 2.707823598809135 #
straight-curve $-1 0 22.282267406950258 6.9014711046600992 -1 0 0 I I #
vertex $-1 $278 $342 #
point $-1 9.5403803519031669 18.207080688145155 2.8796187836312583 #
vertex $-1 $282 $343 #
point $-1 20.088707671282549 18.207080688145155 2.8796187836312583 #
straight-curve $-1 -53.352458265938296 22.282267406950258 0 0 0 -1 I I #
point $-1 -53.352458265938296 -22.282267406950258 -6.9014711046600992 #
straight-curve $-1 -53.352458265938296 0 -6.9014711046600992 0 1 0 I I #
point $-1 -53.352458265938296 22.282267406950258 -6.9014711046600992 #
straight-curve $-1 6.8599169897031196 -22.282267406950258 47.406422804515877 0 0 -1 I I #
point $-1 6.8599169897031196 -22.282267406950258 6.9014711046600992 #
straight-curve $-1 10.949729167555688 -22.282267406950258 3.3488807730237604 1 0 0 I I #
point $-1 6.8599169897031196 -22.282267406950258 3.3488807730237591 #
point $-1 15.453940615650694 -16.594232939106508 0.57872575334082188 #
point $-1 28.344976054572058 -16.594232939106508 0.57872575334082188 #
straight-curve $-1 26.120925884202137 22.282267406950258 52.246275465387285 0 0 -1 I I #
point $-1 26.120925884202137 22.282267406950258 6.9014711046600992 #
straight-curve $-1 6.907272005796429 22.282267406950254 2.707823598809135 -1 0 0 I I #
point $-1 26.120925884202137 22.282267406950258 2.707823598809135 #
point $-1 8.5403803519031669 17.429934718412902 2.2502984028005475 #
point $-1 19.088707671282549 17.429934718412902 2.2502984028005475 #
End-of-ACIS-data 