500 0 13 0           
7 Unknown 11 ACIS 5.0 NT 24 Thu Mar 25 19:07:50 1999 
-1 9.9999999999999995e-007 1e-010 
body $-1 $13 $-1 $14 #
body $-1 $15 $-1 $16 #
body $-1 $17 $-1 $18 #
body $-1 $19 $-1 $20 #
body $-1 $21 $-1 $22 #
body $-1 $23 $-1 $24 #
body $-1 $25 $-1 $26 #
body $-1 $27 $-1 $28 #
body $-1 $29 $-1 $30 #
body $-1 $31 $-1 $32 #
body $-1 $33 $-1 $34 #
body $-1 $35 $-1 $36 #
body $-1 $37 $-1 $38 #
lump $-1 $-1 $39 $0 #
transform $-1 1 0 0 0 1 0 0 0 1 42.860194708090454 24.005345357868844 11.181786132302383 1 rotate no_reflect no_shear #
lump $-1 $-1 $40 $1 #
transform $-1 1 0 0 0 0.81915203911291934 0.57357644374324357 0 -0.57357644374324357 0.81915203911291934 64.225847792560728 -49.167196117619021 88.108897526363506 1 rotate no_reflect no_shear #
lump $-1 $-1 $41 $2 #
transform $-1 1 0 0 0 -0.81915203911291934 -0.57357644374324357 0 0.57357644374324357 -0.81915203911291934 59.919161459469883 4.2258766309784672 18.653322816984918 1 rotate no_reflect no_shear #
lump $-1 $-1 $42 $3 #
transform $-1 1 0 0 0 -0.81915203911291934 -0.57357644374324357 0 0.57357644374324357 -0.81915203911291934 64.225847792560728 4.2258766309784672 18.653322816984918 1 rotate no_reflect no_shear #
lump $-1 $-1 $43 $4 #
transform $-1 1 0 0 0 -0.81915203911291934 -0.57357644374324357 0 0.57357644374324357 -0.81915203911291934 68.53253412565158 4.2258766309784672 18.653322816984918 1 rotate no_reflect no_shear #
lump $-1 $-1 $44 $5 #
transform $-1 1 0 0 0 0.51503806187062418 -0.85716730853699208 0 0.85716730853699208 0.51503806187062418 10.258284860009606 96.760073103044817 102.87171517018047 1 rotate no_reflect no_shear #
lump $-1 $-1 $45 $6 #
transform $-1 1 0 0 0 -0.51503806187062418 0.85716730853699208 0 -0.85716730853699208 -0.51503806187062418 4.1033139440038422 43.799770864752738 18.301693049995208 1 rotate no_reflect no_shear #
lump $-1 $-1 $46 $7 #
transform $-1 1 0 0 0 -0.51503806187062418 0.85716730853699208 0 -0.85716730853699208 -0.51503806187062418 10.258284860009606 43.799770864752738 18.301693049995208 1 rotate no_reflect no_shear #
lump $-1 $-1 $47 $8 #
transform $-1 1 0 0 0 -0.51503806187062418 0.85716730853699208 0 -0.85716730853699208 -0.51503806187062418 16.413255776015369 43.799770864752738 18.301693049995208 1 rotate no_reflect no_shear #
lump $-1 $-1 $48 $9 #
transform $-1 1 0 0 0 0.51503806187062418 -0.85716730853699208 0 0.85716730853699208 0.51503806187062418 53.118479568100071 96.760073103044817 102.87171517018047 1 rotate no_reflect no_shear #
lump $-1 $-1 $49 $10 #
transform $-1 1 0 0 0 -0.51503806187062418 0.85716730853699208 0 -0.85716730853699208 -0.51503806187062418 46.963508652094305 43.799770864752738 18.301693049995208 1 rotate no_reflect no_shear #
lump $-1 $-1 $50 $11 #
transform $-1 1 0 0 0 -0.51503806187062418 0.85716730853699208 0 -0.85716730853699208 -0.51503806187062418 53.118479568100071 43.799770864752738 18.301693049995208 1 rotate no_reflect no_shear #
lump $-1 $-1 $51 $12 #
transform $-1 1 0 0 0 -0.51503806187062418 0.85716730853699208 0 -0.85716730853699208 -0.51503806187062418 59.27345048410583 43.799770864752738 18.301693049995208 1 rotate no_reflect no_shear #
shell $-1 $-1 $-1 $52 $-1 $13 #
shell $-1 $-1 $-1 $53 $-1 $15 #
shell $-1 $-1 $-1 $54 $-1 $17 #
shell $-1 $-1 $-1 $55 $-1 $19 #
shell $-1 $-1 $-1 $56 $-1 $21 #
shell $-1 $-1 $-1 $57 $-1 $23 #
shell $-1 $-1 $-1 $58 $-1 $25 #
shell $-1 $-1 $-1 $59 $-1 $27 #
shell $-1 $-1 $-1 $60 $-1 $29 #
shell $-1 $-1 $-1 $61 $-1 $31 #
shell $-1 $-1 $-1 $62 $-1 $33 #
shell $-1 $-1 $-1 $63 $-1 $35 #
shell $-1 $-1 $-1 $64 $-1 $37 #
face $-1 $65 $66 $39 $-1 $67 forward single #
face $-1 $68 $69 $40 $-1 $70 forward single #
face $-1 $71 $72 $41 $-1 $73 forward single #
face $-1 $74 $75 $42 $-1 $76 forward single #
face $-1 $77 $78 $43 $-1 $79 forward single #
face $-1 $80 $81 $44 $-1 $82 forward single #
face $-1 $83 $84 $45 $-1 $85 forward single #
face $-1 $86 $87 $46 $-1 $88 forward single #
face $-1 $89 $90 $47 $-1 $91 forward single #
face $-1 $92 $93 $48 $-1 $94 forward single #
face $-1 $95 $96 $49 $-1 $97 forward single #
face $-1 $98 $99 $50 $-1 $100 forward single #
face $-1 $101 $102 $51 $-1 $103 forward single #
face $-1 $104 $105 $39 $-1 $106 reversed single #
loop $-1 $-1 $107 $52 #
plane-surface $-1 0 0 11.181786132302383 0 0 1 1 0 0 forward_v I I I I #
face $-1 $108 $109 $40 $-1 $110 reversed single #
loop $-1 $-1 $111 $53 #
plane-surface $-1 0 0 85.720389416180907 0 0 1 1 0 0 forward_v I I I I #
face $-1 $112 $113 $41 $-1 $114 forward single #
loop $-1 $115 $116 $54 #
cone-surface $-1 0 0 -1.1496475112155515 0 0 1 1 0 0 1 I I 0 1 1 forward I I I I #
face $-1 $117 $118 $42 $-1 $119 forward single #
loop $-1 $120 $121 $55 #
cone-surface $-1 0 0 -1.1496475112155515 0 0 1 1 0 0 1 I I 0 1 1 forward I I I I #
face $-1 $122 $123 $43 $-1 $124 forward single #
loop $-1 $125 $126 $56 #
cone-surface $-1 0 0 -1.1496475112155515 0 0 1 1 0 0 1 I I 0 1 1 forward I I I I #
face $-1 $127 $128 $44 $-1 $129 reversed single #
loop $-1 $-1 $130 $57 #
plane-surface $-1 0 0 85.720389416180907 0 0 1 1 0 0 forward_v I I I I #
face $-1 $131 $132 $45 $-1 $133 forward single #
loop $-1 $134 $135 $58 #
cone-surface $-1 0 0 -1.8661152989288006 0 0 1 1 0 0 1 I I 0 1 1 forward I I I I #
face $-1 $136 $137 $46 $-1 $138 forward single #
loop $-1 $139 $140 $59 #
cone-surface $-1 0 0 -1.8661152989288006 0 0 1 1 0 0 1 I I 0 1 1 forward I I I I #
face $-1 $141 $142 $47 $-1 $143 forward single #
loop $-1 $144 $145 $60 #
cone-surface $-1 0 0 -1.8661152989288006 0 0 1 1 0 0 1 I I 0 1 1 forward I I I I #
face $-1 $146 $147 $48 $-1 $148 reversed single #
loop $-1 $-1 $149 $61 #
plane-surface $-1 0 0 85.720389416180907 0 0 1 1 0 0 forward_v I I I I #
face $-1 $150 $151 $49 $-1 $152 forward single #
loop $-1 $153 $154 $62 #
cone-surface $-1 0 0 -1.8661152989288006 0 0 1 1 0 0 1 I I 0 1 1 forward I I I I #
face $-1 $155 $156 $50 $-1 $157 forward single #
loop $-1 $158 $159 $63 #
cone-surface $-1 0 0 -1.8661152989288006 0 0 1 1 0 0 1 I I 0 1 1 forward I I I I #
face $-1 $160 $161 $51 $-1 $162 forward single #
loop $-1 $163 $164 $64 #
cone-surface $-1 0 0 -1.8661152989288006 0 0 1 1 0 0 1 I I 0 1 1 forward I I I I #
face $-1 $165 $166 $39 $-1 $167 reversed single #
loop $-1 $-1 $168 $65 #
plane-surface $-1 0 0 -11.181786132302383 0 0 1 1 0 0 forward_v I I I I #
coedge $-1 $169 $170 $171 $172 forward $66 $-1 #
face $-1 $173 $174 $40 $-1 $175 reversed single #
loop $-1 $-1 $176 $68 #
plane-surface $-1 0 0 -85.720389416180907 0 0 1 1 0 0 forward_v I I I I #
coedge $-1 $177 $178 $179 $180 forward $69 $-1 #
face $-1 $-1 $181 $41 $-1 $182 forward single #
loop $-1 $-1 $183 $71 #
plane-surface $-1 0 0 -1.7992950224311031 0 0 -1 -1 0 0 forward_v I I I I #
loop $-1 $-1 $184 $54 #
coedge $-1 $116 $116 $183 $185 reversed $72 $-1 #
face $-1 $-1 $186 $42 $-1 $187 forward single #
loop $-1 $-1 $188 $74 #
plane-surface $-1 0 0 -1.7992950224311031 0 0 -1 -1 0 0 forward_v I I I I #
loop $-1 $-1 $189 $55 #
coedge $-1 $121 $121 $188 $190 reversed $75 $-1 #
face $-1 $-1 $191 $43 $-1 $192 forward single #
loop $-1 $-1 $193 $77 #
plane-surface $-1 0 0 -1.7992950224311031 0 0 -1 -1 0 0 forward_v I I I I #
loop $-1 $-1 $194 $56 #
coedge $-1 $126 $126 $193 $195 reversed $78 $-1 #
face $-1 $196 $197 $44 $-1 $198 reversed single #
loop $-1 $-1 $199 $80 #
plane-surface $-1 0 0 -85.720389416180907 0 0 1 1 0 0 forward_v I I I I #
coedge $-1 $200 $201 $202 $203 forward $81 $-1 #
face $-1 $-1 $204 $45 $-1 $205 forward single #
loop $-1 $-1 $206 $83 #
plane-surface $-1 0 0 -3.2322305978576011 0 0 -1 -1 0 0 forward_v I I I I #
loop $-1 $-1 $207 $58 #
coedge $-1 $135 $135 $206 $208 reversed $84 $-1 #
face $-1 $-1 $209 $46 $-1 $210 forward single #
loop $-1 $-1 $211 $86 #
plane-surface $-1 0 0 -3.2322305978576011 0 0 -1 -1 0 0 forward_v I I I I #
loop $-1 $-1 $212 $59 #
coedge $-1 $140 $140 $211 $213 reversed $87 $-1 #
face $-1 $-1 $214 $47 $-1 $215 forward single #
loop $-1 $-1 $216 $89 #
plane-surface $-1 0 0 -3.2322305978576011 0 0 -1 -1 0 0 forward_v I I I I #
loop $-1 $-1 $217 $60 #
coedge $-1 $145 $145 $216 $218 reversed $90 $-1 #
face $-1 $219 $220 $48 $-1 $221 reversed single #
loop $-1 $-1 $222 $92 #
plane-surface $-1 0 0 -85.720389416180907 0 0 1 1 0 0 forward_v I I I I #
coedge $-1 $223 $224 $225 $226 forward $93 $-1 #
face $-1 $-1 $227 $49 $-1 $228 forward single #
loop $-1 $-1 $229 $95 #
plane-surface $-1 0 0 -3.2322305978576011 0 0 -1 -1 0 0 forward_v I I I I #
loop $-1 $-1 $230 $62 #
coedge $-1 $154 $154 $229 $231 reversed $96 $-1 #
face $-1 $-1 $232 $50 $-1 $233 forward single #
loop $-1 $-1 $234 $98 #
plane-surface $-1 0 0 -3.2322305978576011 0 0 -1 -1 0 0 forward_v I I I I #
loop $-1 $-1 $235 $63 #
coedge $-1 $159 $159 $234 $236 reversed $99 $-1 #
face $-1 $-1 $237 $51 $-1 $238 forward single #
loop $-1 $-1 $239 $101 #
plane-surface $-1 0 0 -3.2322305978576011 0 0 -1 -1 0 0 forward_v I I I I #
loop $-1 $-1 $240 $64 #
coedge $-1 $164 $164 $239 $241 reversed $102 $-1 #
face $-1 $242 $243 $39 $-1 $244 reversed single #
loop $-1 $-1 $245 $104 #
plane-surface $-1 0 -24.005345357868844 0 0 1 0 0 0 1 forward_v I I I I #
coedge $-1 $246 $247 $248 $249 forward $105 $-1 #
coedge $-1 $250 $107 $251 $252 forward $66 $-1 #
coedge $-1 $107 $250 $253 $254 forward $66 $-1 #
coedge $-1 $255 $256 $107 $172 reversed $257 $-1 #
edge $-1 $258 -24.005345357868844 $259 24.005345357868844 $171 $260 forward 7 unknown #
face $-1 $261 $262 $40 $-1 $263 reversed single #
loop $-1 $-1 $264 $108 #
plane-surface $-1 0 -171.44077883236181 0 0 1 0 0 0 1 forward_v I I I I #
coedge $-1 $265 $266 $267 $268 forward $109 $-1 #
coedge $-1 $269 $111 $270 $271 forward $69 $-1 #
coedge $-1 $111 $269 $272 $273 forward $69 $-1 #
coedge $-1 $274 $275 $111 $180 reversed $276 $-1 #
edge $-1 $277 -171.44077883236181 $278 171.44077883236181 $179 $279 forward 7 unknown #
loop $-1 $280 $281 $112 #
cone-surface $-1 0 0 0 0 0 1 0.5 0 0 1 I I -0.70710678118654691 0.70710678118654813 0.5 forward I I I I #
coedge $-1 $183 $183 $116 $185 forward $113 $-1 #
coedge $-1 $184 $184 $281 $282 forward $115 $-1 #
edge $-1 $283 0 $283 6.2831853071796004 $183 $284 forward 7 unknown #
loop $-1 $285 $286 $117 #
cone-surface $-1 0 0 0 0 0 1 0.5 0 0 1 I I -0.70710678118654691 0.70710678118654813 0.5 forward I I I I #
coedge $-1 $188 $188 $121 $190 forward $118 $-1 #
coedge $-1 $189 $189 $286 $287 forward $120 $-1 #
edge $-1 $288 0 $288 6.2831853071796004 $188 $289 forward 7 unknown #
loop $-1 $290 $291 $122 #
cone-surface $-1 0 0 0 0 0 1 0.5 0 0 1 I I -0.70710678118654691 0.70710678118654813 0.5 forward I I I I #
coedge $-1 $193 $193 $126 $195 forward $123 $-1 #
coedge $-1 $194 $194 $291 $292 forward $125 $-1 #
edge $-1 $293 0 $293 6.2831853071796004 $193 $294 forward 7 unknown #
face $-1 $295 $296 $44 $-1 $297 reversed single #
loop $-1 $-1 $298 $127 #
plane-surface $-1 0 -171.44077883236181 0 0 1 0 0 0 1 forward_v I I I I #
coedge $-1 $299 $300 $301 $302 forward $128 $-1 #
coedge $-1 $303 $130 $304 $305 forward $81 $-1 #
coedge $-1 $130 $303 $306 $307 forward $81 $-1 #
coedge $-1 $308 $309 $130 $203 reversed $310 $-1 #
edge $-1 $311 -171.44077883236181 $312 171.44077883236181 $202 $313 forward 7 unknown #
loop $-1 $314 $315 $131 #
cone-surface $-1 0 0 0 0 0 1 0.5 0 0 1 I I -0.70710678118654746 0.70710678118654746 0.5 forward I I I I #
coedge $-1 $206 $206 $135 $208 forward $132 $-1 #
coedge $-1 $207 $207 $315 $316 forward $134 $-1 #
edge $-1 $317 0 $317 6.2831853071796004 $206 $318 forward 7 unknown #
loop $-1 $319 $320 $136 #
cone-surface $-1 0 0 0 0 0 1 0.5 0 0 1 I I -0.70710678118654746 0.70710678118654746 0.5 forward I I I I #
coedge $-1 $211 $211 $140 $213 forward $137 $-1 #
coedge $-1 $212 $212 $320 $321 forward $139 $-1 #
edge $-1 $322 0 $322 6.2831853071796004 $211 $323 forward 7 unknown #
loop $-1 $324 $325 $141 #
cone-surface $-1 0 0 0 0 0 1 0.5 0 0 1 I I -0.70710678118654746 0.70710678118654746 0.5 forward I I I I #
coedge $-1 $216 $216 $145 $218 forward $142 $-1 #
coedge $-1 $217 $217 $325 $326 forward $144 $-1 #
edge $-1 $327 0 $327 6.2831853071796004 $216 $328 forward 7 unknown #
face $-1 $329 $330 $48 $-1 $331 reversed single #
loop $-1 $-1 $332 $146 #
plane-surface $-1 0 -171.44077883236181 0 0 1 0 0 0 1 forward_v I I I I #
coedge $-1 $333 $334 $335 $336 forward $147 $-1 #
coedge $-1 $337 $149 $338 $339 forward $93 $-1 #
coedge $-1 $149 $337 $340 $341 forward $93 $-1 #
coedge $-1 $342 $343 $149 $226 reversed $344 $-1 #
edge $-1 $345 -171.44077883236181 $346 171.44077883236181 $225 $347 forward 7 unknown #
loop $-1 $348 $349 $150 #
cone-surface $-1 0 0 0 0 0 1 0.5 0 0 1 I I -0.70710678118654746 0.70710678118654746 0.5 forward I I I I #
coedge $-1 $229 $229 $154 $231 forward $151 $-1 #
coedge $-1 $230 $230 $349 $350 forward $153 $-1 #
edge $-1 $351 0 $351 6.2831853071796004 $229 $352 forward 7 unknown #
loop $-1 $353 $354 $155 #
cone-surface $-1 0 0 0 0 0 1 0.5 0 0 1 I I -0.70710678118654746 0.70710678118654746 0.5 forward I I I I #
coedge $-1 $234 $234 $159 $236 forward $156 $-1 #
coedge $-1 $235 $235 $354 $355 forward $158 $-1 #
edge $-1 $356 0 $356 6.2831853071796004 $234 $357 forward 7 unknown #
loop $-1 $358 $359 $160 #
cone-surface $-1 0 0 0 0 0 1 0.5 0 0 1 I I -0.70710678118654746 0.70710678118654746 0.5 forward I I I I #
coedge $-1 $239 $239 $164 $241 forward $161 $-1 #
coedge $-1 $240 $240 $359 $360 forward $163 $-1 #
edge $-1 $361 0 $361 6.2831853071796004 $239 $362 forward 7 unknown #
face $-1 $363 $364 $39 $-1 $365 reversed single #
loop $-1 $-1 $366 $165 #
plane-surface $-1 -42.860194708090454 0 0 1 0 0 0 0 -1 forward_v I I I I #
coedge $-1 $367 $253 $368 $369 forward $166 $-1 #
coedge $-1 $370 $168 $367 $371 forward $105 $-1 #
coedge $-1 $168 $370 $372 $373 forward $105 $-1 #
coedge $-1 $256 $255 $168 $249 reversed $257 $-1 #
edge $-1 $374 -24.005345357868844 $375 24.005345357868844 $248 $376 forward 7 unknown #
coedge $-1 $170 $169 $377 $378 forward $66 $-1 #
coedge $-1 $379 $380 $169 $252 reversed $364 $-1 #
edge $-1 $259 -42.860194708090454 $381 42.860194708090454 $251 $382 forward 7 unknown #
coedge $-1 $245 $383 $170 $254 reversed $166 $-1 #
edge $-1 $384 -42.860194708090454 $258 42.860194708090454 $253 $385 forward 7 unknown #
coedge $-1 $248 $171 $383 $386 forward $257 $-1 #
coedge $-1 $171 $248 $379 $387 reversed $257 $-1 #
loop $-1 $-1 $255 $363 #
vertex $-1 $172 $388 #
vertex $-1 $172 $389 #
straight-curve $-1 42.860194708090454 0 11.181786132302383 0 1 0 I I #
face $-1 $390 $391 $40 $-1 $392 reversed single #
loop $-1 $-1 $393 $173 #
plane-surface $-1 -7.1778105551514102 0 0 1 0 0 0 0 -1 forward_v I I I I #
coedge $-1 $394 $272 $395 $396 forward $174 $-1 #
coedge $-1 $397 $176 $394 $398 forward $109 $-1 #
coedge $-1 $176 $397 $399 $400 forward $109 $-1 #
coedge $-1 $275 $274 $176 $268 reversed $276 $-1 #
edge $-1 $401 -171.44077883236181 $402 171.44077883236181 $267 $403 forward 7 unknown #
coedge $-1 $178 $177 $404 $405 forward $69 $-1 #
coedge $-1 $406 $407 $177 $271 reversed $391 $-1 #
edge $-1 $278 -7.1778105551514102 $408 7.1778105551514102 $270 $409 forward 7 unknown #
coedge $-1 $264 $410 $178 $273 reversed $174 $-1 #
edge $-1 $411 -7.1778105551514102 $277 7.1778105551514102 $272 $412 forward 7 unknown #
coedge $-1 $267 $179 $410 $413 forward $276 $-1 #
coedge $-1 $179 $267 $406 $414 reversed $276 $-1 #
loop $-1 $-1 $274 $390 #
vertex $-1 $180 $415 #
vertex $-1 $180 $416 #
straight-curve $-1 7.1778105551514102 0 85.720389416180907 0 1 0 I I #
loop $-1 $-1 $417 $112 #
coedge $-1 $281 $281 $184 $282 reversed $181 $-1 #
edge $-1 $418 0 $418 6.2831853071796004 $281 $419 forward 7 unknown #
vertex $-1 $185 $420 #
ellipse-curve $-1 0 0 -1.7992950224311031 0 0 -1 1 0 0 1 I I #
loop $-1 $-1 $421 $117 #
coedge $-1 $286 $286 $189 $287 reversed $186 $-1 #
edge $-1 $422 0 $422 6.2831853071796004 $286 $423 forward 7 unknown #
vertex $-1 $190 $424 #
ellipse-curve $-1 0 0 -1.7992950224311031 0 0 -1 1 0 0 1 I I #
loop $-1 $-1 $425 $122 #
coedge $-1 $291 $291 $194 $292 reversed $191 $-1 #
edge $-1 $426 0 $426 6.2831853071796004 $291 $427 forward 7 unknown #
vertex $-1 $195 $428 #
ellipse-curve $-1 0 0 -1.7992950224311031 0 0 -1 1 0 0 1 I I #
face $-1 $429 $430 $44 $-1 $431 reversed single #
loop $-1 $-1 $432 $196 #
plane-surface $-1 -10.258284860009606 0 0 1 0 0 0 0 -1 forward_v I I I I #
coedge $-1 $433 $306 $434 $435 forward $197 $-1 #
coedge $-1 $436 $199 $433 $437 forward $128 $-1 #
coedge $-1 $199 $436 $438 $439 forward $128 $-1 #
coedge $-1 $309 $308 $199 $302 reversed $310 $-1 #
edge $-1 $440 -171.44077883236181 $441 171.44077883236181 $301 $442 forward 7 unknown #
coedge $-1 $201 $200 $443 $444 forward $81 $-1 #
coedge $-1 $445 $446 $200 $305 reversed $430 $-1 #
edge $-1 $312 -10.258284860009606 $447 10.258284860009606 $304 $448 forward 7 unknown #
coedge $-1 $298 $449 $201 $307 reversed $197 $-1 #
edge $-1 $450 -10.258284860009606 $311 10.258284860009606 $306 $451 forward 7 unknown #
coedge $-1 $301 $202 $449 $452 forward $310 $-1 #
coedge $-1 $202 $301 $445 $453 reversed $310 $-1 #
loop $-1 $-1 $308 $429 #
vertex $-1 $203 $454 #
vertex $-1 $203 $455 #
straight-curve $-1 10.258284860009606 0 85.720389416180907 0 1 0 I I #
loop $-1 $-1 $456 $131 #
coedge $-1 $315 $315 $207 $316 reversed $204 $-1 #
edge $-1 $457 0 $457 6.2831853071796004 $315 $458 forward 7 unknown #
vertex $-1 $208 $459 #
ellipse-curve $-1 0 0 -3.2322305978576011 0 0 -1 1 0 0 1 I I #
loop $-1 $-1 $460 $136 #
coedge $-1 $320 $320 $212 $321 reversed $209 $-1 #
edge $-1 $461 0 $461 6.2831853071796004 $320 $462 forward 7 unknown #
vertex $-1 $213 $463 #
ellipse-curve $-1 0 0 -3.2322305978576011 0 0 -1 1 0 0 1 I I #
loop $-1 $-1 $464 $141 #
coedge $-1 $325 $325 $217 $326 reversed $214 $-1 #
edge $-1 $465 0 $465 6.2831853071796004 $325 $466 forward 7 unknown #
vertex $-1 $218 $467 #
ellipse-curve $-1 0 0 -3.2322305978576011 0 0 -1 1 0 0 1 I I #
face $-1 $468 $469 $48 $-1 $470 reversed single #
loop $-1 $-1 $471 $219 #
plane-surface $-1 -10.258284860009606 0 0 1 0 0 0 0 -1 forward_v I I I I #
coedge $-1 $472 $340 $473 $474 forward $220 $-1 #
coedge $-1 $475 $222 $472 $476 forward $147 $-1 #
coedge $-1 $222 $475 $477 $478 forward $147 $-1 #
coedge $-1 $343 $342 $222 $336 reversed $344 $-1 #
edge $-1 $479 -171.44077883236181 $480 171.44077883236181 $335 $481 forward 7 unknown #
coedge $-1 $224 $223 $482 $483 forward $93 $-1 #
coedge $-1 $484 $485 $223 $339 reversed $469 $-1 #
edge $-1 $346 -10.258284860009606 $486 10.258284860009606 $338 $487 forward 7 unknown #
coedge $-1 $332 $488 $224 $341 reversed $220 $-1 #
edge $-1 $489 -10.258284860009606 $345 10.258284860009606 $340 $490 forward 7 unknown #
coedge $-1 $335 $225 $488 $491 forward $344 $-1 #
coedge $-1 $225 $335 $484 $492 reversed $344 $-1 #
loop $-1 $-1 $342 $468 #
vertex $-1 $226 $493 #
vertex $-1 $226 $494 #
straight-curve $-1 10.258284860009606 0 85.720389416180907 0 1 0 I I #
loop $-1 $-1 $495 $150 #
coedge $-1 $349 $349 $230 $350 reversed $227 $-1 #
edge $-1 $496 0 $496 6.2831853071796004 $349 $497 forward 7 unknown #
vertex $-1 $231 $498 #
ellipse-curve $-1 0 0 -3.2322305978576011 0 0 -1 1 0 0 1 I I #
loop $-1 $-1 $499 $155 #
coedge $-1 $354 $354 $235 $355 reversed $232 $-1 #
edge $-1 $500 0 $500 6.2831853071796004 $354 $501 forward 7 unknown #
vertex $-1 $236 $502 #
ellipse-curve $-1 0 0 -3.2322305978576011 0 0 -1 1 0 0 1 I I #
loop $-1 $-1 $503 $160 #
coedge $-1 $359 $359 $240 $360 reversed $237 $-1 #
edge $-1 $504 0 $504 6.2831853071796004 $359 $505 forward 7 unknown #
vertex $-1 $241 $506 #
ellipse-curve $-1 0 0 -3.2322305978576011 0 0 -1 1 0 0 1 I I #
face $-1 $-1 $257 $39 $-1 $507 reversed single #
loop $-1 $-1 $379 $242 #
plane-surface $-1 0 24.005345357868844 0 0 -1 0 0 0 -1 forward_v I I I I #
coedge $-1 $508 $377 $380 $509 forward $243 $-1 #
coedge $-1 $383 $245 $246 $371 reversed $166 $-1 #
coedge $-1 $377 $508 $245 $369 reversed $243 $-1 #
edge $-1 $384 -11.181786132302383 $510 11.181786132302383 $368 $511 forward 7 unknown #
coedge $-1 $247 $246 $508 $512 forward $105 $-1 #
edge $-1 $375 -42.860194708090454 $510 42.860194708090454 $367 $513 forward 7 unknown #
coedge $-1 $380 $379 $247 $373 reversed $364 $-1 #
edge $-1 $514 -42.860194708090454 $374 42.860194708090454 $372 $515 forward 7 unknown #
vertex $-1 $249 $516 #
vertex $-1 $386 $517 #
straight-curve $-1 42.860194708090454 0 -11.181786132302383 0 -1 0 I I #
coedge $-1 $366 $368 $250 $378 reversed $243 $-1 #
edge $-1 $381 -24.005345357868844 $384 24.005345357868844 $377 $518 forward 7 unknown #
coedge $-1 $372 $251 $256 $387 forward $364 $-1 #
coedge $-1 $251 $372 $366 $509 reversed $364 $-1 #
vertex $-1 $252 $519 #
straight-curve $-1 0 24.005345357868844 11.181786132302383 -1 0 0 I I #
coedge $-1 $253 $367 $255 $386 reversed $166 $-1 #
vertex $-1 $378 $520 #
straight-curve $-1 0 -24.005345357868844 11.181786132302383 1 0 0 I I #
edge $-1 $258 -11.181786132302383 $375 11.181786132302383 $255 $521 forward 7 unknown #
edge $-1 $259 -11.181786132302383 $374 11.181786132302383 $256 $522 forward 7 unknown #
point $-1 42.860194708090454 -24.005345357868844 11.181786132302383 #
point $-1 42.860194708090454 24.005345357868844 11.181786132302383 #
face $-1 $-1 $276 $40 $-1 $523 reversed single #
loop $-1 $-1 $406 $261 #
plane-surface $-1 0 171.44077883236181 0 0 -1 0 0 0 -1 forward_v I I I I #
coedge $-1 $524 $404 $407 $525 forward $262 $-1 #
coedge $-1 $410 $264 $265 $398 reversed $174 $-1 #
coedge $-1 $404 $524 $264 $396 reversed $262 $-1 #
edge $-1 $411 -85.720389416180907 $526 85.720389416180907 $395 $527 forward 7 unknown #
coedge $-1 $266 $265 $524 $528 forward $109 $-1 #
edge $-1 $402 -7.1778105551514102 $526 7.1778105551514102 $394 $529 forward 7 unknown #
coedge $-1 $407 $406 $266 $400 reversed $391 $-1 #
edge $-1 $530 -7.1778105551514102 $401 7.1778105551514102 $399 $531 forward 7 unknown #
vertex $-1 $268 $532 #
vertex $-1 $413 $533 #
straight-curve $-1 7.1778105551514102 0 -85.720389416180907 0 -1 0 I I #
coedge $-1 $393 $395 $269 $405 reversed $262 $-1 #
edge $-1 $408 -171.44077883236181 $411 171.44077883236181 $404 $534 forward 7 unknown #
coedge $-1 $399 $270 $275 $414 forward $391 $-1 #
coedge $-1 $270 $399 $393 $525 reversed $391 $-1 #
vertex $-1 $271 $535 #
straight-curve $-1 0 171.44077883236181 85.720389416180907 -1 0 0 I I #
coedge $-1 $272 $394 $274 $413 reversed $174 $-1 #
vertex $-1 $405 $536 #
straight-curve $-1 0 -171.44077883236181 85.720389416180907 1 0 0 I I #
edge $-1 $277 -85.720389416180907 $402 85.720389416180907 $274 $537 forward 7 unknown #
edge $-1 $278 -85.720389416180907 $401 85.720389416180907 $275 $538 forward 7 unknown #
point $-1 7.1778105551514102 -171.44077883236181 85.720389416180907 #
point $-1 7.1778105551514102 171.44077883236181 85.720389416180907 #
coedge $-1 $417 $417 $-1 $539 reversed $280 $-1 #
vertex $-1 $282 $540 #
ellipse-curve $-1 0 0 -0.50000000000000089 0 0 -1 1 0 0 1 I I #
point $-1 1 0 -1.7992950224311031 #
coedge $-1 $421 $421 $-1 $541 reversed $285 $-1 #
vertex $-1 $287 $542 #
ellipse-curve $-1 0 0 -0.50000000000000089 0 0 -1 1 0 0 1 I I #
point $-1 1 0 -1.7992950224311031 #
coedge $-1 $425 $425 $-1 $543 reversed $290 $-1 #
vertex $-1 $292 $544 #
ellipse-curve $-1 0 0 -0.50000000000000089 0 0 -1 1 0 0 1 I I #
point $-1 1 0 -1.7992950224311031 #
face $-1 $-1 $310 $44 $-1 $545 reversed single #
loop $-1 $-1 $445 $295 #
plane-surface $-1 0 171.44077883236181 0 0 -1 0 0 0 -1 forward_v I I I I #
coedge $-1 $546 $443 $446 $547 forward $296 $-1 #
coedge $-1 $449 $298 $299 $437 reversed $197 $-1 #
coedge $-1 $443 $546 $298 $435 reversed $296 $-1 #
edge $-1 $450 -85.720389416180907 $548 85.720389416180907 $434 $549 forward 7 unknown #
coedge $-1 $300 $299 $546 $550 forward $128 $-1 #
edge $-1 $441 -10.258284860009606 $548 10.258284860009606 $433 $551 forward 7 unknown #
coedge $-1 $446 $445 $300 $439 reversed $430 $-1 #
edge $-1 $552 -10.258284860009606 $440 10.258284860009606 $438 $553 forward 7 unknown #
vertex $-1 $302 $554 #
vertex $-1 $452 $555 #
straight-curve $-1 10.258284860009606 0 -85.720389416180907 0 -1 0 I I #
coedge $-1 $432 $434 $303 $444 reversed $296 $-1 #
edge $-1 $447 -171.44077883236181 $450 171.44077883236181 $443 $556 forward 7 unknown #
coedge $-1 $438 $304 $309 $453 forward $430 $-1 #
coedge $-1 $304 $438 $432 $547 reversed $430 $-1 #
vertex $-1 $305 $557 #
straight-curve $-1 0 171.44077883236181 85.720389416180907 -1 0 0 I I #
coedge $-1 $306 $433 $308 $452 reversed $197 $-1 #
vertex $-1 $444 $558 #
straight-curve $-1 0 -171.44077883236181 85.720389416180907 1 0 0 I I #
edge $-1 $311 -85.720389416180907 $441 85.720389416180907 $308 $559 forward 7 unknown #
edge $-1 $312 -85.720389416180907 $440 85.720389416180907 $309 $560 forward 7 unknown #
point $-1 10.258284860009606 -171.44077883236181 85.720389416180907 #
point $-1 10.258284860009606 171.44077883236181 85.720389416180907 #
coedge $-1 $456 $456 $-1 $561 reversed $314 $-1 #
vertex $-1 $316 $562 #
ellipse-curve $-1 0 0 -0.5 0 0 -1 1 0 0 1 I I #
point $-1 1 0 -3.2322305978576011 #
coedge $-1 $460 $460 $-1 $563 reversed $319 $-1 #
vertex $-1 $321 $564 #
ellipse-curve $-1 0 0 -0.5 0 0 -1 1 0 0 1 I I #
point $-1 1 0 -3.2322305978576011 #
coedge $-1 $464 $464 $-1 $565 reversed $324 $-1 #
vertex $-1 $326 $566 #
ellipse-curve $-1 0 0 -0.5 0 0 -1 1 0 0 1 I I #
point $-1 1 0 -3.2322305978576011 #
face $-1 $-1 $344 $48 $-1 $567 reversed single #
loop $-1 $-1 $484 $329 #
plane-surface $-1 0 171.44077883236181 0 0 -1 0 0 0 -1 forward_v I I I I #
coedge $-1 $568 $482 $485 $569 forward $330 $-1 #
coedge $-1 $488 $332 $333 $476 reversed $220 $-1 #
coedge $-1 $482 $568 $332 $474 reversed $330 $-1 #
edge $-1 $489 -85.720389416180907 $570 85.720389416180907 $473 $571 forward 7 unknown #
coedge $-1 $334 $333 $568 $572 forward $147 $-1 #
edge $-1 $480 -10.258284860009606 $570 10.258284860009606 $472 $573 forward 7 unknown #
coedge $-1 $485 $484 $334 $478 reversed $469 $-1 #
edge $-1 $574 -10.258284860009606 $479 10.258284860009606 $477 $575 forward 7 unknown #
vertex $-1 $336 $576 #
vertex $-1 $491 $577 #
straight-curve $-1 10.258284860009606 0 -85.720389416180907 0 -1 0 I I #
coedge $-1 $471 $473 $337 $483 reversed $330 $-1 #
edge $-1 $486 -171.44077883236181 $489 171.44077883236181 $482 $578 forward 7 unknown #
coedge $-1 $477 $338 $343 $492 forward $469 $-1 #
coedge $-1 $338 $477 $471 $569 reversed $469 $-1 #
vertex $-1 $339 $579 #
straight-curve $-1 0 171.44077883236181 85.720389416180907 -1 0 0 I I #
coedge $-1 $340 $472 $342 $491 reversed $220 $-1 #
vertex $-1 $483 $580 #
straight-curve $-1 0 -171.44077883236181 85.720389416180907 1 0 0 I I #
edge $-1 $345 -85.720389416180907 $480 85.720389416180907 $342 $581 forward 7 unknown #
edge $-1 $346 -85.720389416180907 $479 85.720389416180907 $343 $582 forward 7 unknown #
point $-1 10.258284860009606 -171.44077883236181 85.720389416180907 #
point $-1 10.258284860009606 171.44077883236181 85.720389416180907 #
coedge $-1 $495 $495 $-1 $583 reversed $348 $-1 #
vertex $-1 $350 $584 #
ellipse-curve $-1 0 0 -0.5 0 0 -1 1 0 0 1 I I #
point $-1 1 0 -3.2322305978576011 #
coedge $-1 $499 $499 $-1 $585 reversed $353 $-1 #
vertex $-1 $355 $586 #
ellipse-curve $-1 0 0 -0.5 0 0 -1 1 0 0 1 I I #
point $-1 1 0 -3.2322305978576011 #
coedge $-1 $503 $503 $-1 $587 reversed $358 $-1 #
vertex $-1 $360 $588 #
ellipse-curve $-1 0 0 -0.5 0 0 -1 1 0 0 1 I I #
point $-1 1 0 -3.2322305978576011 #
plane-surface $-1 42.860194708090454 0 0 -1 0 0 0 0 1 forward_v I I I I #
coedge $-1 $368 $366 $370 $512 reversed $243 $-1 #
edge $-1 $381 -11.181786132302383 $514 11.181786132302383 $380 $589 forward 7 unknown #
vertex $-1 $512 $590 #
straight-curve $-1 -42.860194708090454 -24.005345357868844 0 0 0 -1 I I #
edge $-1 $510 -24.005345357868844 $514 24.005345357868844 $508 $591 forward 7 unknown #
straight-curve $-1 0 -24.005345357868844 -11.181786132302383 -1 0 0 I I #
vertex $-1 $373 $592 #
straight-curve $-1 0 24.005345357868844 -11.181786132302383 1 0 0 I I #
point $-1 42.860194708090454 24.005345357868844 -11.181786132302383 #
point $-1 42.860194708090454 -24.005345357868844 -11.181786132302383 #
straight-curve $-1 -42.860194708090454 0 11.181786132302383 0 -1 0 I I #
point $-1 -42.860194708090454 24.005345357868844 11.181786132302383 #
point $-1 -42.860194708090454 -24.005345357868844 11.181786132302383 #
straight-curve $-1 42.860194708090454 -24.005345357868844 0 0 0 -1 I I #
straight-curve $-1 42.860194708090454 24.005345357868844 0 0 0 -1 I I #
plane-surface $-1 7.1778105551514102 0 0 -1 0 0 0 0 1 forward_v I I I I #
coedge $-1 $395 $393 $397 $528 reversed $262 $-1 #
edge $-1 $408 -85.720389416180907 $530 85.720389416180907 $407 $593 forward 7 unknown #
vertex $-1 $528 $594 #
straight-curve $-1 -7.1778105551514102 -171.44077883236181 0 0 0 -1 I I #
edge $-1 $526 -171.44077883236181 $530 171.44077883236181 $524 $595 forward 7 unknown #
straight-curve $-1 0 -171.44077883236181 -85.720389416180907 -1 0 0 I I #
vertex $-1 $400 $596 #
straight-curve $-1 0 171.44077883236181 -85.720389416180907 1 0 0 I I #
point $-1 7.1778105551514102 171.44077883236181 -85.720389416180907 #
point $-1 7.1778105551514102 -171.44077883236181 -85.720389416180907 #
straight-curve $-1 -7.1778105551514102 0 85.720389416180907 0 -1 0 I I #
point $-1 -7.1778105551514102 171.44077883236181 85.720389416180907 #
point $-1 -7.1778105551514102 -171.44077883236181 85.720389416180907 #
straight-curve $-1 7.1778105551514102 -171.44077883236181 0 0 0 -1 I I #
straight-curve $-1 7.1778105551514102 171.44077883236181 0 0 0 -1 I I #
edge $-1 $597 1 $597 0 $417 $-1 forward 7 unknown #
point $-1 1 0 -0.50000000000000089 #
edge $-1 $598 1 $598 0 $421 $-1 forward 7 unknown #
point $-1 1 0 -0.50000000000000089 #
edge $-1 $599 1 $599 0 $425 $-1 forward 7 unknown #
point $-1 1 0 -0.50000000000000089 #
plane-surface $-1 10.258284860009606 0 0 -1 0 0 0 0 1 forward_v I I I I #
coedge $-1 $434 $432 $436 $550 reversed $296 $-1 #
edge $-1 $447 -85.720389416180907 $552 85.720389416180907 $446 $600 forward 7 unknown #
vertex $-1 $550 $601 #
straight-curve $-1 -10.258284860009606 -171.44077883236181 0 0 0 -1 I I #
edge $-1 $548 -171.44077883236181 $552 171.44077883236181 $546 $602 forward 7 unknown #
straight-curve $-1 0 -171.44077883236181 -85.720389416180907 -1 0 0 I I #
vertex $-1 $439 $603 #
straight-curve $-1 0 171.44077883236181 -85.720389416180907 1 0 0 I I #
point $-1 10.258284860009606 171.44077883236181 -85.720389416180907 #
point $-1 10.258284860009606 -171.44077883236181 -85.720389416180907 #
straight-curve $-1 -10.258284860009606 0 85.720389416180907 0 -1 0 I I #
point $-1 -10.258284860009606 171.44077883236181 85.720389416180907 #
point $-1 -10.258284860009606 -171.44077883236181 85.720389416180907 #
straight-curve $-1 10.258284860009606 -171.44077883236181 0 0 0 -1 I I #
straight-curve $-1 10.258284860009606 171.44077883236181 0 0 0 -1 I I #
edge $-1 $604 1 $604 0 $456 $-1 forward 7 unknown #
point $-1 1 0 -0.5 #
edge $-1 $605 1 $605 0 $460 $-1 forward 7 unknown #
point $-1 1 0 -0.5 #
edge $-1 $606 1 $606 0 $464 $-1 forward 7 unknown #
point $-1 1 0 -0.5 #
plane-surface $-1 10.258284860009606 0 0 -1 0 0 0 0 1 forward_v I I I I #
coedge $-1 $473 $471 $475 $572 reversed $330 $-1 #
edge $-1 $486 -85.720389416180907 $574 85.720389416180907 $485 $607 forward 7 unknown #
vertex $-1 $572 $608 #
straight-curve $-1 -10.258284860009606 -171.44077883236181 0 0 0 -1 I I #
edge $-1 $570 -171.44077883236181 $574 171.44077883236181 $568 $609 forward 7 unknown #
straight-curve $-1 0 -171.44077883236181 -85.720389416180907 -1 0 0 I I #
vertex $-1 $478 $610 #
straight-curve $-1 0 171.44077883236181 -85.720389416180907 1 0 0 I I #
point $-1 10.258284860009606 171.44077883236181 -85.720389416180907 #
point $-1 10.258284860009606 -171.44077883236181 -85.720389416180907 #
straight-curve $-1 -10.258284860009606 0 85.720389416180907 0 -1 0 I I #
point $-1 -10.258284860009606 171.44077883236181 85.720389416180907 #
point $-1 -10.258284860009606 -171.44077883236181 85.720389416180907 #
straight-curve $-1 10.258284860009606 -171.44077883236181 0 0 0 -1 I I #
straight-curve $-1 10.258284860009606 171.44077883236181 0 0 0 -1 I I #
edge $-1 $611 1 $611 0 $495 $-1 forward 7 unknown #
point $-1 1 0 -0.5 #
edge $-1 $612 1 $612 0 $499 $-1 forward 7 unknown #
point $-1 1 0 -0.5 #
edge $-1 $613 1 $613 0 $503 $-1 forward 7 unknown #
point $-1 1 0 -0.5 #
straight-curve $-1 -42.860194708090454 24.005345357868844 0 0 0 -1 I I #
point $-1 -42.860194708090454 -24.005345357868844 -11.181786132302383 #
straight-curve $-1 -42.860194708090454 0 -11.181786132302383 0 1 0 I I #
point $-1 -42.860194708090454 24.005345357868844 -11.181786132302383 #
straight-curve $-1 -7.1778105551514102 171.44077883236181 0 0 0 -1 I I #
point $-1 -7.1778105551514102 -171.44077883236181 -85.720389416180907 #
straight-curve $-1 -7.1778105551514102 0 -85.720389416180907 0 1 0 I I #
point $-1 -7.1778105551514102 171.44077883236181 -85.720389416180907 #
vertex $-1 $539 $614 #
vertex $-1 $541 $615 #
vertex $-1 $543 $616 #
straight-curve $-1 -10.258284860009606 171.44077883236181 0 0 0 -1 I I #
point $-1 -10.258284860009606 -171.44077883236181 -85.720389416180907 #
straight-curve $-1 -10.258284860009606 0 -85.720389416180907 0 1 0 I I #
point $-1 -10.258284860009606 171.44077883236181 -85.720389416180907 #
vertex $-1 $561 $617 #
vertex $-1 $563 $618 #
vertex $-1 $565 $619 #
straight-curve $-1 -10.258284860009606 171.44077883236181 0 0 0 -1 I I #
point $-1 -10.258284860009606 -171.44077883236181 -85.720389416180907 #
straight-curve $-1 -10.258284860009606 0 -85.720389416180907 0 1 0 I I #
point $-1 -10.258284860009606 171.44077883236181 -85.720389416180907 #
vertex $-1 $583 $620 #
vertex $-1 $585 $621 #
vertex $-1 $587 $622 #
point $-1 0 0 0.50000000000000089 #
point $-1 0 0 0.50000000000000089 #
point $-1 0 0 0.50000000000000089 #
point $-1 0 0 0.5 #
point $-1 0 0 0.5 #
point $-1 0 0 0.5 #
point $-1 0 0 0.5 #
point $-1 0 0 0.5 #
point $-1 0 0 0.5 #
End-of-ACIS-data 