500 0 5 0           
7 Unknown 11 ACIS 5.0 NT 24 Thu Mar 25 23:38:46 1999 
-1 9.9999999999999995e-007 1e-010 
body $-1 $5 $-1 $6 #
body $-1 $7 $-1 $8 #
body $-1 $9 $-1 $10 #
body $-1 $11 $-1 $12 #
body $-1 $13 $-1 $14 #
lump $-1 $-1 $15 $0 #
transform $-1 1 0 0 0 1 0 0 0 1 49.254432813501388 28.933202558597248 12.956409429694787 1 rotate no_reflect no_shear #
lump $-1 $-1 $16 $1 #
transform $-1 1 0 0 0 1 0 0 0 1 49.254432813501388 28.933202558597248 12.956409429694787 1 rotate no_reflect no_shear #
lump $-1 $-1 $17 $2 #
transform $-1 1 0 0 0 1 0 0 0 1 49.254432813501388 28.933202558597248 12.956409429694787 1 rotate no_reflect no_shear #
lump $-1 $-1 $18 $3 #
transform $-1 1 0 0 0 1 0 0 0 1 49.254432813501388 28.933202558597248 12.956409429694787 1 rotate no_reflect no_shear #
lump $-1 $-1 $19 $4 #
transform $-1 1 0 0 0 1 0 0 0 1 49.254432813501388 28.933202558597248 12.956409429694787 1 rotate no_reflect no_shear #
shell $-1 $-1 $-1 $20 $-1 $5 #
shell $-1 $-1 $-1 $21 $-1 $7 #
shell $-1 $-1 $-1 $22 $-1 $9 #
shell $-1 $-1 $-1 $23 $-1 $11 #
shell $-1 $-1 $-1 $24 $-1 $13 #
face $-1 $25 $26 $15 $-1 $27 forward single #
face $-1 $28 $29 $16 $-1 $30 forward single #
face $-1 $31 $32 $17 $-1 $33 forward single #
face $-1 $34 $35 $18 $-1 $36 forward single #
face $-1 $37 $38 $19 $-1 $39 reversed single #
face $-1 $40 $41 $15 $-1 $42 reversed single #
loop $-1 $-1 $43 $20 #
plane-surface $-1 0 0 12.956409429694787 0 0 1 1 0 0 forward_v I I I I #
face $-1 $44 $45 $16 $-1 $46 forward single #
loop $-1 $-1 $47 $21 #
plane-surface $-1 -43.573359455015193 -21.198897931175882 0 0 -1 0 0 0 -1 forward_v I I I I #
face $-1 $48 $49 $17 $-1 $50 forward single #
loop $-1 $-1 $51 $22 #
plane-surface $-1 37.892286096529006 -25.066050244886565 0 1 0 0 0 0 -1 forward_v I I I I #
face $-1 $52 $53 $18 $-1 $54 forward single #
loop $-1 $-1 $55 $23 #
plane-surface $-1 -6.6461621410937788 42.003152923972564 122.09238613540421 1 0 0 0 -0.6018150307709319 -0.79863550430605224 forward_v I I I I #
face $-1 $56 $57 $19 $-1 $58 reversed single #
loop $-1 $59 $60 $24 #
cone-surface $-1 -0.67107583376763813 25.15445927395767 9.6015308774040626 0 -0.6018150307709319 -0.79863550430605224 1 0 0 1 I I 0 1 1 forward I I I I #
face $-1 $61 $62 $15 $-1 $63 reversed single #
loop $-1 $-1 $64 $25 #
plane-surface $-1 0 0 -12.956409429694787 0 0 1 1 0 0 forward_v I I I I #
coedge $-1 $65 $66 $67 $68 forward $26 $-1 #
face $-1 $69 $70 $16 $-1 $71 forward single #
loop $-1 $-1 $72 $28 #
plane-surface $-1 -37.892286096528998 -25.066050244886565 0 -1 0 0 0 0 1 forward_v I I I I #
coedge $-1 $73 $74 $75 $76 reversed $29 $-1 #
face $-1 $77 $78 $17 $-1 $79 reversed single #
loop $-1 $-1 $80 $31 #
plane-surface $-1 43.573359455015201 -21.198897931175882 0 0 -1 0 0 0 -1 forward_v I I I I #
coedge $-1 $81 $82 $83 $84 reversed $32 $-1 #
face $-1 $85 $86 $18 $-1 $87 forward single #
loop $-1 $-1 $88 $34 #
plane-surface $-1 -0.67107583376763813 -17.280963074551707 43.419708556765713 0 0.6018150307709319 0.79863550430605224 1 0 0 forward_v I I I I #
coedge $-1 $89 $90 $91 $92 reversed $35 $-1 #
face $-1 $93 $94 $19 $-1 $95 forward single #
loop $-1 $96 $97 $37 #
cone-surface $-1 -0.67107583376763813 23.968810013683079 8.0281211975286624 0 -0.6018150307709319 -0.79863550430605224 0.5 0 0 1 I I -0.70710678118654746 0.70710678118654746 0.5 forward I I I I #
loop $-1 $-1 $98 $24 #
coedge $-1 $60 $60 $99 $100 reversed $38 $-1 #
face $-1 $101 $102 $15 $-1 $103 reversed single #
loop $-1 $-1 $104 $40 #
plane-surface $-1 0 -28.933202558597248 0 0 1 0 0 0 1 forward_v I I I I #
coedge $-1 $105 $106 $107 $108 forward $41 $-1 #
coedge $-1 $109 $43 $110 $111 forward $26 $-1 #
coedge $-1 $43 $109 $112 $113 forward $26 $-1 #
coedge $-1 $114 $115 $43 $68 reversed $116 $-1 #
edge $-1 $117 -28.933202558597248 $118 28.933202558597248 $67 $119 forward 7 unknown #
face $-1 $120 $121 $16 $-1 $122 reversed single #
loop $-1 $-1 $123 $44 #
plane-surface $-1 0 0 12.956409429694787 0 0 1 1 0 0 forward_v I I I I #
coedge $-1 $124 $125 $126 $127 reversed $45 $-1 #
coedge $-1 $128 $47 $123 $129 reversed $29 $-1 #
coedge $-1 $47 $128 $130 $131 reversed $29 $-1 #
coedge $-1 $125 $124 $47 $76 forward $45 $-1 #
edge $-1 $132 -12.956409429694787 $133 12.956409429694787 $75 $134 forward 7 unknown #
face $-1 $135 $136 $17 $-1 $137 reversed single #
loop $-1 $-1 $138 $48 #
plane-surface $-1 49.254432813501388 0 0 -1 0 0 0 0 1 forward_v I I I I #
coedge $-1 $139 $140 $138 $141 reversed $49 $-1 #
coedge $-1 $142 $51 $143 $144 reversed $32 $-1 #
coedge $-1 $51 $142 $145 $146 reversed $32 $-1 #
coedge $-1 $140 $139 $51 $84 forward $49 $-1 #
edge $-1 $147 -12.956409429694787 $148 12.956409429694787 $83 $149 forward 7 unknown #
face $-1 $150 $151 $18 $-1 $152 forward single #
loop $-1 $-1 $153 $52 #
plane-surface $-1 5.3040104735585025 42.003152923972564 122.09238613540421 -1 0 0 0 0.6018150307709319 0.79863550430605224 forward_v I I I I #
coedge $-1 $154 $155 $156 $157 reversed $53 $-1 #
coedge $-1 $90 $55 $155 $158 forward $35 $-1 #
coedge $-1 $55 $89 $159 $160 reversed $35 $-1 #
coedge $-1 $161 $156 $55 $92 forward $151 $-1 #
edge $-1 $162 2.1436230171100874 $163 7.931626096610966 $91 $164 forward 7 unknown #
face $-1 $165 $166 $19 $-1 $167 forward single #
loop $-1 $-1 $168 $56 #
plane-surface $-1 -6.6461621410937788 42.003152923972564 122.09238613540421 1 0 0 0 -0.6018150307709319 -0.79863550430605224 forward_v I I I I #
loop $-1 $-1 $169 $37 #
coedge $-1 $97 $97 $98 $170 forward $57 $-1 #
coedge $-1 $98 $98 $97 $170 reversed $59 $-1 #
coedge $-1 $99 $99 $60 $100 forward $166 $-1 #
edge $-1 $171 -3.5769061952590539e-015 $171 6.2831853071795969 $99 $172 forward 7 unknown #
face $-1 $173 $174 $15 $-1 $175 reversed single #
loop $-1 $-1 $176 $61 #
plane-surface $-1 -49.254432813501388 0 0 1 0 0 0 0 -1 forward_v I I I I #
coedge $-1 $177 $112 $178 $179 forward $62 $-1 #
coedge $-1 $180 $64 $177 $181 forward $41 $-1 #
coedge $-1 $64 $180 $182 $183 forward $41 $-1 #
coedge $-1 $115 $114 $64 $108 reversed $116 $-1 #
edge $-1 $184 -28.933202558597248 $185 28.933202558597248 $107 $186 forward 7 unknown #
coedge $-1 $66 $65 $187 $188 forward $26 $-1 #
coedge $-1 $189 $190 $65 $111 reversed $174 $-1 #
edge $-1 $118 -49.254432813501388 $191 49.254432813501388 $110 $192 forward 7 unknown #
coedge $-1 $104 $193 $66 $113 reversed $62 $-1 #
edge $-1 $194 -49.254432813501388 $117 49.254432813501388 $112 $195 forward 7 unknown #
coedge $-1 $107 $67 $193 $196 forward $116 $-1 #
coedge $-1 $67 $107 $189 $197 reversed $116 $-1 #
loop $-1 $-1 $114 $173 #
vertex $-1 $68 $198 #
vertex $-1 $68 $199 #
straight-curve $-1 49.254432813501388 0 12.956409429694787 0 1 0 I I #
face $-1 $200 $201 $16 $-1 $202 reversed single #
loop $-1 $-1 $126 $69 #
plane-surface $-1 0 -28.933202558597248 0 0 1 0 0 0 1 forward_v I I I I #
coedge $-1 $203 $204 $73 $129 forward $70 $-1 #
coedge $-1 $75 $72 $203 $205 reversed $45 $-1 #
coedge $-1 $72 $75 $206 $207 reversed $45 $-1 #
coedge $-1 $208 $209 $72 $127 forward $121 $-1 #
edge $-1 $210 -12.956409429694787 $211 12.956409429694787 $126 $212 forward 7 unknown #
coedge $-1 $74 $73 $213 $214 reversed $29 $-1 #
edge $-1 $215 -27.467753085993792 $132 -16.105606369021402 $123 $216 forward 7 unknown #
coedge $-1 $217 $206 $74 $131 forward $201 $-1 #
edge $-1 $133 16.105606369021402 $218 27.467753085993792 $130 $219 forward 7 unknown #
vertex $-1 $129 $220 #
vertex $-1 $131 $221 #
straight-curve $-1 -37.892286096528998 -21.198897931175882 0 0 0 -1 I I #
face $-1 $222 $223 $17 $-1 $224 forward single #
loop $-1 $-1 $225 $77 #
plane-surface $-1 0 0 -12.956409429694787 0 0 1 1 0 0 forward_v I I I I #
coedge $-1 $226 $227 $80 $141 forward $78 $-1 #
coedge $-1 $83 $80 $228 $229 reversed $49 $-1 #
coedge $-1 $80 $83 $225 $230 reversed $49 $-1 #
edge $-1 $231 -12.956409429694787 $232 12.956409429694787 $138 $233 forward 7 unknown #
coedge $-1 $82 $81 $234 $235 reversed $32 $-1 #
coedge $-1 $228 $236 $81 $144 forward $237 $-1 #
edge $-1 $238 -16.400177436153967 $147 -8.6658728087325994 $143 $239 forward 7 unknown #
coedge $-1 $240 $225 $82 $146 forward $136 $-1 #
edge $-1 $148 8.6658728087325994 $241 16.400177436153967 $145 $242 forward 7 unknown #
vertex $-1 $144 $243 #
vertex $-1 $146 $244 #
straight-curve $-1 37.892286096529006 -21.198897931175882 0 0 0 -1 I I #
face $-1 $245 $246 $18 $-1 $247 forward single #
loop $-1 $-1 $248 $85 #
plane-surface $-1 0 0 12.956409429694787 0 0 1 1 0 0 forward_v I I I I #
coedge $-1 $249 $250 $248 $251 reversed $86 $-1 #
coedge $-1 $252 $88 $250 $253 reversed $53 $-1 #
coedge $-1 $88 $252 $89 $158 reversed $53 $-1 #
coedge $-1 $91 $248 $88 $157 forward $151 $-1 #
edge $-1 $254 -5.6395483904423216 $162 6.3106242242099597 $156 $255 forward 7 unknown #
edge $-1 $162 50.619040019733475 $256 57.86640511719451 $89 $257 forward 7 unknown #
coedge $-1 $258 $259 $90 $160 forward $260 $-1 #
edge $-1 $163 48.089783638007319 $256 52.451356887144016 $159 $261 forward 7 unknown #
coedge $-1 $262 $91 $259 $263 forward $151 $-1 #
vertex $-1 $157 $264 #
vertex $-1 $263 $265 #
straight-curve $-1 -6.6461621410937788 21.001576461986282 12.956409429694787 0 1 0 I I #
face $-1 $266 $267 $19 $-1 $268 forward single #
loop $-1 $269 $99 $93 #
plane-surface $-1 -0.67107583376763813 -17.280963074551707 43.419708556765713 0 0.6018150307709319 0.79863550430605224 1 0 0 forward_v I I I I #
coedge $-1 $270 $271 $272 $273 reversed $94 $-1 #
coedge $-1 $169 $169 $-1 $274 forward $96 $-1 #
edge $-1 $275 0 $275 6.2831853071796004 $97 $276 forward 7 unknown #
vertex $-1 $100 $277 #
ellipse-curve $-1 -0.67107583376763813 26.0392010188468 10.775622805126446 0 -0.6018150307709319 -0.79863550430605224 1 0 0 1 I I #
face $-1 $-1 $116 $15 $-1 $278 reversed single #
loop $-1 $-1 $189 $101 #
plane-surface $-1 0 28.933202558597248 0 0 -1 0 0 0 -1 forward_v I I I I #
coedge $-1 $279 $187 $190 $280 forward $102 $-1 #
coedge $-1 $193 $104 $105 $181 reversed $62 $-1 #
coedge $-1 $187 $279 $104 $179 reversed $102 $-1 #
edge $-1 $194 -12.956409429694787 $281 12.956409429694787 $178 $282 forward 7 unknown #
coedge $-1 $106 $105 $279 $283 forward $41 $-1 #
edge $-1 $185 -49.254432813501388 $281 49.254432813501388 $177 $284 forward 7 unknown #
coedge $-1 $190 $189 $106 $183 reversed $174 $-1 #
edge $-1 $285 -49.254432813501388 $184 49.254432813501388 $182 $286 forward 7 unknown #
vertex $-1 $108 $287 #
vertex $-1 $196 $288 #
straight-curve $-1 49.254432813501388 0 -12.956409429694787 0 -1 0 I I #
coedge $-1 $176 $178 $109 $188 reversed $102 $-1 #
edge $-1 $191 -28.933202558597248 $194 28.933202558597248 $187 $289 forward 7 unknown #
coedge $-1 $182 $110 $115 $197 forward $174 $-1 #
coedge $-1 $110 $182 $176 $280 reversed $174 $-1 #
vertex $-1 $111 $290 #
straight-curve $-1 0 28.933202558597248 12.956409429694787 -1 0 0 I I #
coedge $-1 $112 $177 $114 $196 reversed $62 $-1 #
vertex $-1 $188 $291 #
straight-curve $-1 0 -28.933202558597248 12.956409429694787 1 0 0 I I #
edge $-1 $117 -12.956409429694787 $185 12.956409429694787 $114 $292 forward 7 unknown #
edge $-1 $118 -12.956409429694787 $184 12.956409429694787 $115 $293 forward 7 unknown #
point $-1 49.254432813501388 -28.933202558597248 12.956409429694787 #
point $-1 49.254432813501388 28.933202558597248 12.956409429694787 #
face $-1 $294 $295 $16 $-1 $296 reversed single #
loop $-1 $-1 $130 $120 #
plane-surface $-1 0 0 -12.956409429694787 0 0 1 1 0 0 forward_v I I I I #
coedge $-1 $297 $123 $124 $205 forward $70 $-1 #
coedge $-1 $123 $298 $299 $300 forward $70 $-1 #
edge $-1 $132 8.6658728087325994 $210 16.400177436153967 $203 $301 forward 7 unknown #
coedge $-1 $130 $302 $125 $207 forward $201 $-1 #
edge $-1 $211 -16.400177436153967 $133 -8.6658728087325994 $206 $303 forward 7 unknown #
coedge $-1 $304 $126 $302 $305 reversed $121 $-1 #
coedge $-1 $126 $304 $297 $306 reversed $121 $-1 #
vertex $-1 $306 $307 #
vertex $-1 $127 $308 #
straight-curve $-1 -37.892286096528998 -28.933202558597248 0 0 0 -1 I I #
coedge $-1 $299 $309 $128 $214 forward $295 $-1 #
edge $-1 $218 -12.956409429694787 $215 12.956409429694787 $213 $310 forward 7 unknown #
vertex $-1 $214 $311 #
straight-curve $-1 -21.786679727507597 -21.198897931175882 12.956409429694787 1 0 0 I I #
coedge $-1 $312 $130 $309 $313 forward $201 $-1 #
vertex $-1 $313 $314 #
straight-curve $-1 -21.786679727507597 -21.198897931175882 -12.956409429694787 -1 0 0 I I #
point $-1 -37.892286096528998 -21.198897931175882 12.956409429694787 #
point $-1 -37.892286096528998 -21.198897931175882 -12.956409429694787 #
face $-1 $315 $316 $17 $-1 $317 forward single #
loop $-1 $-1 $318 $135 #
plane-surface $-1 -43.573359455015193 -21.198897931175882 0 0 -1 0 0 0 -1 forward_v I I I I #
coedge $-1 $145 $319 $140 $230 forward $136 $-1 #
coedge $-1 $320 $138 $319 $321 reversed $78 $-1 #
coedge $-1 $138 $320 $322 $323 reversed $78 $-1 #
coedge $-1 $322 $143 $139 $229 forward $237 $-1 #
edge $-1 $147 16.105606369021405 $231 27.467753085993795 $228 $324 forward 7 unknown #
edge $-1 $232 -27.467753085993795 $148 -16.105606369021405 $225 $325 forward 7 unknown #
vertex $-1 $323 $326 #
vertex $-1 $141 $327 #
straight-curve $-1 49.254432813501388 -21.198897931175882 0 0 0 -1 I I #
coedge $-1 $328 $329 $142 $235 forward $330 $-1 #
edge $-1 $241 -12.956409429694787 $238 12.956409429694787 $234 $331 forward 7 unknown #
coedge $-1 $143 $332 $328 $333 forward $237 $-1 #
loop $-1 $-1 $228 $315 #
vertex $-1 $235 $334 #
straight-curve $-1 37.892286096529006 -12.533025122443282 12.956409429694787 0 1 0 I I #
coedge $-1 $335 $145 $329 $336 forward $136 $-1 #
vertex $-1 $336 $337 #
straight-curve $-1 37.892286096529006 -12.533025122443282 -12.956409429694787 0 -1 0 I I #
point $-1 37.892286096529006 -21.198897931175882 12.956409429694787 #
point $-1 37.892286096529006 -21.198897931175882 -12.956409429694787 #
face $-1 $338 $339 $18 $-1 $340 forward single #
loop $-1 $-1 $341 $150 #
plane-surface $-1 37.892286096529006 -25.066050244886565 0 1 0 0 0 0 -1 forward_v I I I I #
coedge $-1 $156 $342 $153 $251 forward $151 $-1 #
coedge $-1 $250 $153 $343 $344 reversed $86 $-1 #
coedge $-1 $153 $249 $154 $253 forward $86 $-1 #
edge $-1 $345 -7.931626096610966 $254 -2.1436230171100874 $248 $346 forward 7 unknown #
coedge $-1 $155 $154 $258 $347 reversed $53 $-1 #
edge $-1 $348 -57.86640511719451 $254 -50.619040019733475 $250 $349 forward 7 unknown #
vertex $-1 $157 $350 #
straight-curve $-1 -0.33553791688381907 23.145199479096362 12.956409429694787 -1 0 0 I I #
vertex $-1 $347 $351 #
straight-curve $-1 -6.6461621410937788 -17.280963074551707 43.419708556765713 0 0.79863550430605224 -0.6018150307709319 I I #
coedge $-1 $343 $159 $252 $347 forward $260 $-1 #
coedge $-1 $159 $352 $161 $263 reversed $260 $-1 #
loop $-1 $-1 $343 $353 #
straight-curve $-1 -6.6461621410937788 28.933202558597248 61.046193067702106 0 0 -1 I I #
coedge $-1 $354 $161 $355 $356 forward $151 $-1 #
edge $-1 $163 6.6461621410937788 $357 49.254432813501388 $259 $358 forward 7 unknown #
point $-1 -6.6461621410937788 23.14519947909637 12.956409429694787 #
point $-1 -6.6461621410937788 28.933202558597248 12.956409429694787 #
face $-1 $359 $360 $19 $-1 $361 forward single #
loop $-1 $-1 $362 $165 #
plane-surface $-1 5.3040104735585025 42.003152923972564 122.09238613540421 -1 0 0 0 0.6018150307709319 0.79863550430605224 forward_v I I I I #
loop $-1 $-1 $363 $93 #
coedge $-1 $271 $168 $364 $365 forward $94 $-1 #
coedge $-1 $168 $270 $366 $367 reversed $94 $-1 #
coedge $-1 $368 $369 $168 $273 forward $360 $-1 #
edge $-1 $370 2.1436230171100874 $371 7.931626096610966 $272 $372 forward 7 unknown #
edge $-1 $373 1 $373 0 $169 $-1 forward 7 unknown #
vertex $-1 $170 $374 #
ellipse-curve $-1 -0.67107583376763813 24.269717529068544 8.4274389496816884 0 0.6018150307709319 0.79863550430605224 1 0 0 1 I I #
point $-1 0.32892416623236187 26.039201018846796 10.775622805126435 #
plane-surface $-1 49.254432813501388 0 0 -1 0 0 0 0 1 forward_v I I I I #
coedge $-1 $178 $176 $180 $283 reversed $102 $-1 #
edge $-1 $191 -12.956409429694787 $285 12.956409429694787 $190 $375 forward 7 unknown #
vertex $-1 $283 $376 #
straight-curve $-1 -49.254432813501388 -28.933202558597248 0 0 0 -1 I I #
edge $-1 $281 -28.933202558597248 $285 28.933202558597248 $279 $377 forward 7 unknown #
straight-curve $-1 0 -28.933202558597248 -12.956409429694787 -1 0 0 I I #
vertex $-1 $183 $378 #
straight-curve $-1 0 28.933202558597248 -12.956409429694787 1 0 0 I I #
point $-1 49.254432813501388 28.933202558597248 -12.956409429694787 #
point $-1 49.254432813501388 -28.933202558597248 -12.956409429694787 #
straight-curve $-1 -49.254432813501388 0 12.956409429694787 0 -1 0 I I #
point $-1 -49.254432813501388 28.933202558597248 12.956409429694787 #
point $-1 -49.254432813501388 -28.933202558597248 12.956409429694787 #
straight-curve $-1 49.254432813501388 -28.933202558597248 0 0 0 -1 I I #
straight-curve $-1 49.254432813501388 28.933202558597248 0 0 0 -1 I I #
face $-1 $379 $380 $16 $-1 $381 reversed single #
loop $-1 $-1 $213 $200 #
plane-surface $-1 -49.254432813501388 0 0 1 0 0 0 0 -1 forward_v I I I I #
coedge $-1 $382 $203 $209 $306 forward $70 $-1 #
coedge $-1 $204 $382 $383 $384 forward $70 $-1 #
coedge $-1 $385 $213 $204 $300 reversed $295 $-1 #
edge $-1 $386 -28.933202558597248 $215 21.198897931175882 $299 $387 forward 7 unknown #
straight-curve $-1 -37.892286096528998 -12.533025122443282 12.956409429694787 0 -1 0 I I #
coedge $-1 $206 $388 $208 $305 forward $201 $-1 #
straight-curve $-1 -37.892286096528998 -12.533025122443282 -12.956409429694787 0 1 0 I I #
coedge $-1 $209 $208 $389 $390 reversed $121 $-1 #
edge $-1 $391 -49.254432813501388 $211 37.892286096528998 $208 $392 forward 7 unknown #
edge $-1 $210 -37.892286096528998 $393 49.254432813501388 $209 $394 forward 7 unknown #
point $-1 -37.892286096528998 -28.933202558597248 12.956409429694787 #
point $-1 -37.892286096528998 -28.933202558597248 -12.956409429694787 #
coedge $-1 $213 $385 $217 $313 reversed $295 $-1 #
straight-curve $-1 -49.254432813501388 -21.198897931175882 0 0 0 1 I I #
point $-1 -49.254432813501388 -21.198897931175882 12.956409429694787 #
coedge $-1 $388 $217 $395 $396 forward $201 $-1 #
edge $-1 $218 -21.198897931175882 $397 28.933202558597248 $309 $398 forward 7 unknown #
point $-1 -49.254432813501388 -21.198897931175882 -12.956409429694787 #
face $-1 $399 $237 $17 $-1 $400 forward single #
loop $-1 $-1 $401 $222 #
plane-surface $-1 -37.892286096528998 -25.066050244886565 0 -1 0 0 0 0 1 forward_v I I I I #
coedge $-1 $402 $403 $404 $405 reversed $223 $-1 #
coedge $-1 $225 $406 $226 $321 forward $136 $-1 #
coedge $-1 $227 $226 $407 $408 reversed $78 $-1 #
edge $-1 $409 -28.933202558597248 $232 21.198897931175882 $226 $410 forward 7 unknown #
coedge $-1 $411 $228 $227 $323 forward $237 $-1 #
edge $-1 $231 -21.198897931175882 $412 28.933202558597248 $227 $413 forward 7 unknown #
straight-curve $-1 21.7866797275076 -21.198897931175882 12.956409429694787 1 0 0 I I #
straight-curve $-1 21.7866797275076 -21.198897931175882 -12.956409429694787 -1 0 0 I I #
point $-1 49.254432813501396 -21.198897931175882 12.956409429694787 #
point $-1 49.254432813501396 -21.198897931175882 -12.956409429694787 #
coedge $-1 $414 $234 $236 $333 reversed $330 $-1 #
coedge $-1 $234 $414 $240 $336 reversed $330 $-1 #
loop $-1 $-1 $234 $399 #
straight-curve $-1 37.892286096529006 -28.933202558597248 0 0 0 1 I I #
coedge $-1 $236 $415 $416 $417 forward $237 $-1 #
edge $-1 $418 -37.892286096528998 $238 37.892286096529006 $328 $419 forward 7 unknown #
point $-1 37.892286096529006 -28.933202558597248 12.956409429694787 #
coedge $-1 $420 $240 $421 $422 forward $136 $-1 #
edge $-1 $241 -37.892286096529006 $423 37.892286096528998 $329 $424 forward 7 unknown #
point $-1 37.892286096529006 -28.933202558597248 -12.956409429694787 #
face $-1 $425 $426 $18 $-1 $427 reversed single #
loop $-1 $-1 $428 $245 #
plane-surface $-1 43.573359455015201 -21.198897931175882 0 0 -1 0 0 0 -1 forward_v I I I I #
coedge $-1 $429 $430 $431 $432 reversed $246 $-1 #
coedge $-1 $248 $433 $434 $435 forward $151 $-1 #
coedge $-1 $434 $258 $249 $344 forward $260 $-1 #
edge $-1 $348 -52.451356887144016 $345 -48.089783638007319 $343 $436 forward 7 unknown #
vertex $-1 $344 $437 #
straight-curve $-1 5.3040104735585025 21.001576461986282 12.956409429694787 0 -1 0 I I #
edge $-1 $256 -6.3106242242099597 $348 5.6395483904423216 $258 $438 forward 7 unknown #
vertex $-1 $347 $439 #
straight-curve $-1 5.3040104735585025 -17.280963074551707 43.419708556765713 0 -0.79863550430605224 0.6018150307709319 I I #
point $-1 5.3040104735585025 23.14519947909637 12.956409429694787 #
point $-1 -6.6461621410937788 28.933202558597245 8.5948361805580902 #
coedge $-1 $259 $440 $441 $442 reversed $260 $-1 #
face $-1 $-1 $260 $18 $-1 $443 reversed single #
coedge $-1 $444 $262 $445 $446 forward $151 $-1 #
coedge $-1 $441 $447 $262 $356 reversed $448 $-1 #
edge $-1 $357 -28.933202558597248 $449 21.198897931175882 $355 $450 forward 7 unknown #
vertex $-1 $263 $451 #
straight-curve $-1 0 28.933202558597248 12.956409429694787 -1 0 0 I I #
face $-1 $452 $453 $19 $-1 $454 forward single #
loop $-1 $-1 $455 $266 #
plane-surface $-1 0 0 12.956409429694787 0 0 1 1 0 0 forward_v I I I I #
coedge $-1 $456 $457 $455 $458 reversed $267 $-1 #
coedge $-1 $459 $364 $369 $460 reversed $269 $-1 #
coedge $-1 $363 $461 $270 $365 reversed $269 $-1 #
edge $-1 $370 50.619040019733475 $462 57.86640511719451 $270 $463 forward 7 unknown #
coedge $-1 $464 $465 $271 $367 forward $466 $-1 #
edge $-1 $371 48.089783638007319 $462 52.451356887144016 $366 $467 forward 7 unknown #
coedge $-1 $468 $272 $465 $469 forward $360 $-1 #
coedge $-1 $272 $455 $363 $460 forward $360 $-1 #
vertex $-1 $460 $470 #
vertex $-1 $469 $471 #
straight-curve $-1 -6.6461621410937788 21.001576461986282 12.956409429694787 0 1 0 I I #
vertex $-1 $274 $472 #
point $-1 0.32892416623236187 24.269717529068544 8.4274389496816884 #
straight-curve $-1 -49.254432813501388 28.933202558597248 0 0 0 -1 I I #
point $-1 -49.254432813501388 -28.933202558597248 -12.956409429694787 #
straight-curve $-1 -49.254432813501388 0 -12.956409429694787 0 1 0 I I #
point $-1 -49.254432813501388 28.933202558597248 -12.956409429694787 #
face $-1 $-1 $473 $16 $-1 $474 reversed single #
loop $-1 $-1 $475 $294 #
plane-surface $-1 0 28.933202558597248 0 0 -1 0 0 0 -1 forward_v I I I I #
coedge $-1 $298 $297 $476 $477 forward $70 $-1 #
coedge $-1 $475 $478 $298 $384 reversed $380 $-1 #
edge $-1 $479 -49.254432813501388 $386 49.254432813501388 $383 $480 forward 7 unknown #
coedge $-1 $309 $299 $478 $481 forward $295 $-1 #
vertex $-1 $384 $482 #
straight-curve $-1 -49.254432813501388 0 12.956409429694787 0 -1 0 I I #
coedge $-1 $302 $312 $483 $484 forward $201 $-1 #
coedge $-1 $483 $476 $304 $390 forward $473 $-1 #
edge $-1 $393 -12.956409429694787 $391 12.956409429694787 $389 $485 forward 7 unknown #
vertex $-1 $390 $486 #
straight-curve $-1 0 -28.933202558597248 -12.956409429694787 -1 0 0 I I #
vertex $-1 $477 $487 #
straight-curve $-1 0 -28.933202558597248 12.956409429694787 1 0 0 I I #
coedge $-1 $478 $475 $312 $396 reversed $380 $-1 #
edge $-1 $397 -49.254432813501388 $488 49.254432813501388 $395 $489 forward 7 unknown #
vertex $-1 $396 $490 #
straight-curve $-1 -49.254432813501388 0 -12.956409429694787 0 1 0 I I #
face $-1 $491 $330 $17 $-1 $492 reversed single #
plane-surface $-1 0 0 12.956409429694787 0 0 1 1 0 0 forward_v I I I I #
coedge $-1 $416 $421 $414 $493 reversed $316 $-1 #
coedge $-1 $494 $318 $415 $495 reversed $223 $-1 #
coedge $-1 $318 $494 $420 $496 reversed $223 $-1 #
coedge $-1 $421 $416 $318 $405 forward $316 $-1 #
edge $-1 $497 -12.956409429694787 $498 12.956409429694787 $404 $499 forward 7 unknown #
coedge $-1 $319 $500 $501 $502 forward $136 $-1 #
coedge $-1 $501 $503 $320 $408 forward $504 $-1 #
edge $-1 $412 -12.956409429694787 $409 12.956409429694787 $320 $505 forward 7 unknown #
vertex $-1 $321 $506 #
straight-curve $-1 49.254432813501388 0 -12.956409429694787 0 -1 0 I I #
coedge $-1 $507 $322 $503 $508 forward $237 $-1 #
vertex $-1 $323 $509 #
straight-curve $-1 49.254432813501388 0 12.956409429694787 0 1 0 I I #
coedge $-1 $329 $328 $401 $493 forward $330 $-1 #
coedge $-1 $332 $507 $402 $495 forward $237 $-1 #
coedge $-1 $404 $401 $332 $417 reversed $316 $-1 #
edge $-1 $497 8.6658728087325994 $418 16.400177436153967 $332 $510 forward 7 unknown #
vertex $-1 $333 $511 #
straight-curve $-1 0 -28.933202558597248 12.956409429694787 1 0 0 I I #
coedge $-1 $500 $335 $403 $496 forward $136 $-1 #
coedge $-1 $401 $404 $335 $422 reversed $316 $-1 #
edge $-1 $423 -16.400177436153967 $498 -8.6658728087325994 $335 $512 forward 7 unknown #
vertex $-1 $493 $513 #
straight-curve $-1 0 -28.933202558597248 -12.956409429694787 -1 0 0 I I #
face $-1 $514 $515 $18 $-1 $516 reversed single #
loop $-1 $-1 $517 $338 #
plane-surface $-1 49.254432813501388 0 0 -1 0 0 0 0 1 forward_v I I I I #
coedge $-1 $518 $519 $517 $520 reversed $339 $-1 #
coedge $-1 $521 $341 $522 $523 reversed $246 $-1 #
coedge $-1 $341 $521 $524 $525 reversed $246 $-1 #
coedge $-1 $519 $518 $341 $432 forward $339 $-1 #
edge $-1 $526 -12.956409429694787 $527 12.956409429694787 $431 $528 forward 7 unknown #
coedge $-1 $342 $529 $530 $531 forward $151 $-1 #
coedge $-1 $532 $343 $342 $435 reversed $260 $-1 #
edge $-1 $533 -49.254432813501388 $345 -5.3040104735585025 $434 $358 forward 7 unknown #
straight-curve $-1 5.3040104735585025 28.933202558597248 61.046193067702106 0 0 1 I I #
point $-1 5.3040104735585025 28.933202558597248 12.956409429694787 #
straight-curve $-1 -0.33553791688381907 28.933202558597248 8.5948361805580902 1 0 0 I I #
point $-1 5.3040104735585025 28.933202558597245 8.5948361805580902 #
coedge $-1 $352 $532 $534 $535 reversed $260 $-1 #
coedge $-1 $536 $355 $352 $442 forward $448 $-1 #
edge $-1 $357 -12.956409429694787 $537 12.956409429694787 $352 $538 forward 7 unknown #
plane-surface $-1 0 28.933202558597248 0 0 -1 0 0 0 -1 forward_v I I I I #
coedge $-1 $539 $354 $540 $541 forward $151 $-1 #
coedge $-1 $542 $543 $354 $446 reversed $544 $-1 #
edge $-1 $449 -27.467753085993792 $545 -16.105606369021402 $354 $546 forward 7 unknown #
coedge $-1 $355 $536 $542 $547 forward $448 $-1 #
loop $-1 $-1 $447 $548 #
vertex $-1 $547 $549 #
straight-curve $-1 -49.254432813501388 0 12.956409429694787 0 -1 0 I I #
point $-1 -49.254432813501388 28.933202558597248 12.956409429694787 #
face $-1 $550 $551 $19 $-1 $552 forward single #
loop $-1 $-1 $553 $359 #
plane-surface $-1 37.892286096529006 -25.066050244886565 0 1 0 0 0 0 -1 forward_v I I I I #
coedge $-1 $369 $554 $362 $458 forward $360 $-1 #
coedge $-1 $457 $362 $555 $556 reversed $267 $-1 #
coedge $-1 $362 $456 $459 $557 forward $267 $-1 #
edge $-1 $558 -7.931626096610966 $559 -2.1436230171100874 $455 $560 forward 7 unknown #
coedge $-1 $461 $363 $457 $557 reversed $269 $-1 #
edge $-1 $559 -5.6395483904423216 $370 6.3106242242099597 $369 $561 forward 7 unknown #
coedge $-1 $364 $459 $464 $562 reversed $269 $-1 #
vertex $-1 $562 $563 #
straight-curve $-1 -6.6461621410937788 -17.280963074551707 43.419708556765713 0 0.79863550430605224 -0.6018150307709319 I I #
coedge $-1 $555 $366 $461 $562 forward $466 $-1 #
coedge $-1 $366 $564 $368 $469 reversed $466 $-1 #
loop $-1 $-1 $555 $565 #
straight-curve $-1 -6.6461621410937788 28.933202558597248 61.046193067702106 0 0 -1 I I #
coedge $-1 $566 $368 $567 $568 forward $360 $-1 #
edge $-1 $371 6.6461621410937788 $569 49.254432813501388 $465 $570 forward 7 unknown #
point $-1 -6.6461621410937788 23.14519947909637 12.956409429694787 #
point $-1 -6.6461621410937788 28.933202558597248 12.956409429694787 #
point $-1 -0.67107583376763813 23.667902498297614 7.6288034453756364 #
loop $-1 $-1 $389 $379 #
plane-surface $-1 49.254432813501388 0 0 -1 0 0 0 0 1 forward_v I I I I #
coedge $-1 $395 $383 $571 $572 forward $380 $-1 #
coedge $-1 $389 $571 $382 $477 reversed $473 $-1 #
edge $-1 $393 -28.933202558597248 $479 28.933202558597248 $476 $573 forward 7 unknown #
coedge $-1 $383 $395 $385 $481 reversed $380 $-1 #
vertex $-1 $477 $574 #
straight-curve $-1 0 28.933202558597248 12.956409429694787 -1 0 0 I I #
edge $-1 $386 -12.956409429694787 $397 12.956409429694787 $478 $575 forward 7 unknown #
point $-1 -49.254432813501388 28.933202558597248 12.956409429694787 #
coedge $-1 $571 $389 $388 $484 reversed $473 $-1 #
edge $-1 $488 -28.933202558597248 $391 28.933202558597248 $483 $576 forward 7 unknown #
straight-curve $-1 49.254432813501388 -28.933202558597248 0 0 0 -1 I I #
point $-1 49.254432813501388 -28.933202558597248 -12.956409429694787 #
point $-1 49.254432813501388 -28.933202558597248 12.956409429694787 #
vertex $-1 $484 $577 #
straight-curve $-1 0 28.933202558597248 -12.956409429694787 1 0 0 I I #
point $-1 -49.254432813501388 28.933202558597248 -12.956409429694787 #
face $-1 $578 $579 $17 $-1 $580 reversed single #
plane-surface $-1 0 -28.933202558597248 0 0 1 0 0 0 1 forward_v I I I I #
edge $-1 $418 -12.956409429694787 $423 12.956409429694787 $414 $581 forward 7 unknown #
coedge $-1 $403 $402 $582 $583 reversed $223 $-1 #
edge $-1 $584 -27.467753085993792 $497 -16.105606369021402 $415 $585 forward 7 unknown #
edge $-1 $498 16.105606369021402 $586 27.467753085993792 $420 $587 forward 7 unknown #
vertex $-1 $495 $588 #
vertex $-1 $496 $589 #
straight-curve $-1 -37.892286096528998 -21.198897931175882 0 0 0 -1 I I #
coedge $-1 $406 $420 $590 $591 forward $136 $-1 #
coedge $-1 $592 $407 $406 $502 reversed $504 $-1 #
edge $-1 $593 -49.254432813501388 $409 49.254432813501388 $501 $594 forward 7 unknown #
coedge $-1 $407 $592 $411 $508 reversed $504 $-1 #
loop $-1 $-1 $407 $578 #
straight-curve $-1 49.254432813501388 28.933202558597248 0 0 0 -1 I I #
point $-1 49.254432813501388 28.933202558597248 -12.956409429694787 #
coedge $-1 $415 $411 $595 $596 forward $237 $-1 #
edge $-1 $412 -49.254432813501388 $597 49.254432813501388 $503 $598 forward 7 unknown #
point $-1 49.254432813501388 28.933202558597248 12.956409429694787 #
straight-curve $-1 -37.892286096528998 -12.533025122443282 12.956409429694787 0 -1 0 I I #
point $-1 -37.892286096528998 -28.933202558597248 12.956409429694787 #
straight-curve $-1 -37.892286096528998 -12.533025122443282 -12.956409429694787 0 1 0 I I #
point $-1 -37.892286096528998 -28.933202558597248 -12.956409429694787 #
face $-1 $599 $544 $18 $-1 $600 forward single #
loop $-1 $-1 $601 $425 #
plane-surface $-1 0 0 -12.956409429694787 0 0 1 1 0 0 forward_v I I I I #
coedge $-1 $602 $530 $428 $520 forward $426 $-1 #
coedge $-1 $431 $428 $529 $603 reversed $339 $-1 #
coedge $-1 $428 $431 $601 $604 reversed $339 $-1 #
edge $-1 $605 -12.956409429694787 $606 12.956409429694787 $517 $607 forward 7 unknown #
coedge $-1 $430 $429 $608 $609 reversed $246 $-1 #
coedge $-1 $529 $539 $429 $523 forward $151 $-1 #
edge $-1 $610 -16.400177436153967 $526 -8.6658728087325994 $522 $611 forward 7 unknown #
coedge $-1 $612 $601 $430 $525 forward $515 $-1 #
edge $-1 $527 8.6658728087325994 $613 16.400177436153967 $524 $614 forward 7 unknown #
vertex $-1 $523 $615 #
vertex $-1 $525 $616 #
straight-curve $-1 37.892286096529006 -21.198897931175882 0 0 0 -1 I I #
coedge $-1 $433 $522 $518 $603 forward $151 $-1 #
coedge $-1 $517 $617 $433 $531 reversed $426 $-1 #
edge $-1 $605 -21.198897931175882 $533 28.933202558597248 $530 $618 forward 7 unknown #
coedge $-1 $440 $434 $617 $619 forward $260 $-1 #
vertex $-1 $531 $620 #
coedge $-1 $621 $622 $440 $535 forward $515 $-1 #
edge $-1 $537 -49.254432813501388 $623 49.254432813501388 $440 $624 forward 7 unknown #
coedge $-1 $447 $441 $622 $625 reversed $448 $-1 #
vertex $-1 $535 $626 #
straight-curve $-1 -49.254432813501388 28.933202558597248 0 0 0 -1 I I #
coedge $-1 $522 $444 $627 $628 forward $151 $-1 #
coedge $-1 $629 $630 $444 $541 reversed $631 $-1 #
edge $-1 $545 8.6658728087325994 $632 16.400177436153967 $444 $633 forward 7 unknown #
coedge $-1 $634 $445 $447 $547 reversed $544 $-1 #
coedge $-1 $445 $634 $629 $635 reversed $544 $-1 #
loop $-1 $-1 $543 $514 #
vertex $-1 $446 $636 #
straight-curve $-1 -21.786679727507597 -21.198897931175882 12.956409429694787 1 0 0 I I #
edge $-1 $637 -12.956409429694787 $449 12.956409429694787 $447 $638 forward 7 unknown #
face $-1 $353 $448 $18 $-1 $639 reversed single #
point $-1 -49.254432813501388 -21.198897931175882 12.956409429694787 #
face $-1 $640 $641 $19 $-1 $642 reversed single #
loop $-1 $-1 $643 $452 #
plane-surface $-1 43.573359455015201 -21.198897931175882 0 0 -1 0 0 0 -1 forward_v I I I I #
coedge $-1 $644 $645 $646 $647 reversed $453 $-1 #
coedge $-1 $455 $648 $649 $650 forward $360 $-1 #
coedge $-1 $649 $464 $456 $556 forward $466 $-1 #
edge $-1 $651 -52.451356887144016 $558 -48.089783638007319 $555 $652 forward 7 unknown #
edge $-1 $651 -57.86640511719451 $559 -50.619040019733475 $457 $653 forward 7 unknown #
vertex $-1 $556 $654 #
vertex $-1 $460 $655 #
straight-curve $-1 5.3040104735585025 21.001576461986282 12.956409429694787 0 -1 0 I I #
straight-curve $-1 -0.33553791688381907 23.145199479096362 12.956409429694787 -1 0 0 I I #
edge $-1 $462 -6.3106242242099597 $651 5.6395483904423216 $464 $656 forward 7 unknown #
point $-1 -6.6461621410937788 28.933202558597245 8.5948361805580902 #
coedge $-1 $465 $657 $658 $659 reversed $466 $-1 #
face $-1 $-1 $466 $19 $-1 $660 reversed single #
coedge $-1 $661 $468 $662 $663 forward $360 $-1 #
coedge $-1 $658 $664 $468 $568 reversed $665 $-1 #
edge $-1 $569 -28.933202558597248 $666 21.198897931175882 $567 $667 forward 7 unknown #
vertex $-1 $469 $668 #
straight-curve $-1 0 28.933202558597248 12.956409429694787 -1 0 0 I I #
coedge $-1 $476 $483 $475 $572 reversed $473 $-1 #
edge $-1 $479 -12.956409429694787 $488 12.956409429694787 $571 $669 forward 7 unknown #
straight-curve $-1 49.254432813501388 0 12.956409429694787 0 1 0 I I #
point $-1 49.254432813501388 28.933202558597248 12.956409429694787 #
straight-curve $-1 -49.254432813501388 28.933202558597248 0 0 0 -1 I I #
straight-curve $-1 49.254432813501388 0 -12.956409429694787 0 -1 0 I I #
point $-1 49.254432813501388 28.933202558597248 -12.956409429694787 #
face $-1 $-1 $504 $17 $-1 $670 reversed single #
loop $-1 $-1 $582 $491 #
plane-surface $-1 -49.254432813501388 0 0 1 0 0 0 0 -1 forward_v I I I I #
straight-curve $-1 -37.892286096528998 -28.933202558597248 0 0 0 -1 I I #
coedge $-1 $595 $590 $494 $583 forward $579 $-1 #
edge $-1 $586 -12.956409429694787 $584 12.956409429694787 $582 $671 forward 7 unknown #
vertex $-1 $583 $672 #
straight-curve $-1 -21.786679727507597 -21.198897931175882 12.956409429694787 1 0 0 I I #
vertex $-1 $591 $673 #
straight-curve $-1 -21.786679727507597 -21.198897931175882 -12.956409429694787 -1 0 0 I I #
point $-1 -37.892286096528998 -21.198897931175882 12.956409429694787 #
point $-1 -37.892286096528998 -21.198897931175882 -12.956409429694787 #
coedge $-1 $582 $674 $500 $591 reversed $579 $-1 #
edge $-1 $586 -21.198897931175882 $593 28.933202558597248 $590 $675 forward 7 unknown #
coedge $-1 $503 $501 $674 $676 reversed $504 $-1 #
vertex $-1 $502 $677 #
straight-curve $-1 0 28.933202558597248 -12.956409429694787 1 0 0 I I #
coedge $-1 $674 $582 $507 $596 reversed $579 $-1 #
edge $-1 $597 -28.933202558597248 $584 21.198897931175882 $595 $678 forward 7 unknown #
vertex $-1 $508 $679 #
straight-curve $-1 0 28.933202558597248 12.956409429694787 -1 0 0 I I #
face $-1 $680 $631 $18 $-1 $681 forward single #
plane-surface $-1 -43.573359455015193 -21.198897931175882 0 0 -1 0 0 0 -1 forward_v I I I I #
coedge $-1 $524 $621 $519 $604 forward $515 $-1 #
coedge $-1 $617 $517 $621 $682 reversed $426 $-1 #
edge $-1 $526 16.105606369021405 $605 27.467753085993795 $529 $683 forward 7 unknown #
edge $-1 $606 -27.467753085993795 $527 -16.105606369021405 $601 $684 forward 7 unknown #
vertex $-1 $531 $685 #
vertex $-1 $520 $686 #
straight-curve $-1 49.254432813501388 -21.198897931175882 0 0 0 -1 I I #
coedge $-1 $627 $687 $521 $609 forward $688 $-1 #
edge $-1 $613 -12.956409429694787 $610 12.956409429694787 $608 $689 forward 7 unknown #
vertex $-1 $609 $690 #
straight-curve $-1 37.892286096529006 -12.533025122443282 12.956409429694787 0 1 0 I I #
coedge $-1 $691 $524 $687 $692 forward $515 $-1 #
vertex $-1 $692 $693 #
straight-curve $-1 37.892286096529006 -12.533025122443282 -12.956409429694787 0 -1 0 I I #
point $-1 37.892286096529006 -21.198897931175882 12.956409429694787 #
point $-1 37.892286096529006 -21.198897931175882 -12.956409429694787 #
coedge $-1 $530 $602 $532 $619 reversed $426 $-1 #
straight-curve $-1 49.254432813501388 0 12.956409429694787 0 1 0 I I #
edge $-1 $533 -12.956409429694787 $623 12.956409429694787 $617 $694 forward 7 unknown #
point $-1 49.254432813501388 28.933202558597248 12.956409429694787 #
coedge $-1 $601 $534 $602 $682 forward $515 $-1 #
coedge $-1 $534 $695 $536 $625 forward $515 $-1 #
vertex $-1 $682 $696 #
straight-curve $-1 0 28.933202558597248 -12.956409429694787 1 0 0 I I #
edge $-1 $637 -21.198897931175882 $537 28.933202558597248 $536 $697 forward 7 unknown #
point $-1 -49.254432813501388 28.933202558597248 -12.956409429694787 #
coedge $-1 $698 $608 $539 $628 reversed $688 $-1 #
edge $-1 $632 -37.892286096528998 $610 37.892286096529006 $627 $699 forward 7 unknown #
coedge $-1 $700 $540 $543 $635 forward $631 $-1 #
coedge $-1 $540 $700 $698 $701 reversed $631 $-1 #
loop $-1 $-1 $630 $599 #
vertex $-1 $628 $702 #
straight-curve $-1 -37.892286096528998 -12.533025122443282 12.956409429694787 0 -1 0 I I #
coedge $-1 $543 $542 $695 $703 reversed $544 $-1 #
edge $-1 $545 -12.956409429694787 $704 12.956409429694787 $629 $705 forward 7 unknown #
point $-1 -37.892286096528998 -21.198897931175882 12.956409429694787 #
vertex $-1 $625 $706 #
straight-curve $-1 -49.254432813501388 -21.198897931175882 0 0 0 1 I I #
plane-surface $-1 -49.254432813501388 0 0 1 0 0 0 0 -1 forward_v I I I I #
face $-1 $707 $708 $19 $-1 $709 reversed single #
loop $-1 $-1 $710 $550 #
plane-surface $-1 49.254432813501388 0 0 -1 0 0 0 0 1 forward_v I I I I #
coedge $-1 $711 $712 $710 $713 reversed $551 $-1 #
coedge $-1 $714 $553 $715 $716 reversed $453 $-1 #
coedge $-1 $553 $714 $717 $718 reversed $453 $-1 #
coedge $-1 $712 $711 $553 $647 forward $551 $-1 #
edge $-1 $719 -12.956409429694787 $720 12.956409429694787 $646 $721 forward 7 unknown #
coedge $-1 $554 $722 $723 $724 forward $360 $-1 #
coedge $-1 $725 $555 $554 $650 reversed $466 $-1 #
edge $-1 $726 -49.254432813501388 $558 -5.3040104735585025 $649 $570 forward 7 unknown #
vertex $-1 $562 $727 #
straight-curve $-1 5.3040104735585025 28.933202558597248 61.046193067702106 0 0 1 I I #
straight-curve $-1 5.3040104735585025 -17.280963074551707 43.419708556765713 0 -0.79863550430605224 0.6018150307709319 I I #
point $-1 5.3040104735585025 28.933202558597248 12.956409429694787 #
point $-1 5.3040104735585025 23.14519947909637 12.956409429694787 #
straight-curve $-1 -0.33553791688381907 28.933202558597248 8.5948361805580902 1 0 0 I I #
coedge $-1 $564 $725 $728 $729 reversed $466 $-1 #
coedge $-1 $730 $567 $564 $659 forward $665 $-1 #
edge $-1 $569 -12.956409429694787 $731 12.956409429694787 $564 $732 forward 7 unknown #
plane-surface $-1 0 28.933202558597248 0 0 -1 0 0 0 -1 forward_v I I I I #
coedge $-1 $733 $566 $734 $735 forward $360 $-1 #
coedge $-1 $736 $737 $566 $663 reversed $738 $-1 #
edge $-1 $666 -27.467753085993792 $739 -16.105606369021402 $566 $740 forward 7 unknown #
coedge $-1 $567 $730 $736 $741 forward $665 $-1 #
loop $-1 $-1 $664 $742 #
vertex $-1 $741 $743 #
straight-curve $-1 -49.254432813501388 0 12.956409429694787 0 -1 0 I I #
point $-1 -49.254432813501388 28.933202558597248 12.956409429694787 #
straight-curve $-1 49.254432813501388 28.933202558597248 0 0 0 -1 I I #
plane-surface $-1 0 28.933202558597248 0 0 -1 0 0 0 -1 forward_v I I I I #
straight-curve $-1 -49.254432813501388 -21.198897931175882 0 0 0 1 I I #
point $-1 -49.254432813501388 -21.198897931175882 12.956409429694787 #
point $-1 -49.254432813501388 -21.198897931175882 -12.956409429694787 #
coedge $-1 $590 $595 $592 $676 forward $579 $-1 #
straight-curve $-1 -49.254432813501388 0 -12.956409429694787 0 1 0 I I #
edge $-1 $597 -12.956409429694787 $593 12.956409429694787 $592 $744 forward 7 unknown #
point $-1 -49.254432813501388 28.933202558597248 -12.956409429694787 #
straight-curve $-1 -49.254432813501388 0 12.956409429694787 0 -1 0 I I #
point $-1 -49.254432813501388 28.933202558597248 12.956409429694787 #
face $-1 $548 $688 $18 $-1 $745 reversed single #
plane-surface $-1 -37.892286096528998 -25.066050244886565 0 -1 0 0 0 0 1 forward_v I I I I #
edge $-1 $623 -28.933202558597248 $606 21.198897931175882 $602 $746 forward 7 unknown #
straight-curve $-1 21.7866797275076 -21.198897931175882 12.956409429694787 1 0 0 I I #
straight-curve $-1 21.7866797275076 -21.198897931175882 -12.956409429694787 -1 0 0 I I #
point $-1 49.254432813501396 -21.198897931175882 12.956409429694787 #
point $-1 49.254432813501396 -21.198897931175882 -12.956409429694787 #
coedge $-1 $608 $698 $612 $692 reversed $688 $-1 #
loop $-1 $-1 $608 $680 #
straight-curve $-1 37.892286096529006 -28.933202558597248 0 0 0 1 I I #
point $-1 37.892286096529006 -28.933202558597248 12.956409429694787 #
coedge $-1 $695 $612 $700 $747 forward $515 $-1 #
edge $-1 $613 -37.892286096529006 $748 37.892286096528998 $687 $749 forward 7 unknown #
point $-1 37.892286096529006 -28.933202558597248 -12.956409429694787 #
straight-curve $-1 49.254432813501388 28.933202558597248 0 0 0 -1 I I #
coedge $-1 $622 $691 $634 $703 forward $515 $-1 #
point $-1 49.254432813501388 28.933202558597248 -12.956409429694787 #
straight-curve $-1 -49.254432813501388 0 -12.956409429694787 0 1 0 I I #
coedge $-1 $687 $627 $630 $701 forward $688 $-1 #
straight-curve $-1 0 -28.933202558597248 12.956409429694787 1 0 0 I I #
coedge $-1 $630 $629 $691 $747 reversed $631 $-1 #
edge $-1 $632 -12.956409429694787 $748 12.956409429694787 $698 $750 forward 7 unknown #
point $-1 -37.892286096528998 -28.933202558597248 12.956409429694787 #
edge $-1 $704 16.105606369021402 $637 27.467753085993792 $695 $751 forward 7 unknown #
vertex $-1 $703 $752 #
straight-curve $-1 -37.892286096528998 -21.198897931175882 0 0 0 -1 I I #
point $-1 -49.254432813501388 -21.198897931175882 -12.956409429694787 #
face $-1 $753 $738 $19 $-1 $754 forward single #
loop $-1 $-1 $755 $640 #
plane-surface $-1 0 0 -12.956409429694787 0 0 1 1 0 0 forward_v I I I I #
coedge $-1 $756 $723 $643 $713 forward $641 $-1 #
coedge $-1 $646 $643 $722 $757 reversed $551 $-1 #
coedge $-1 $643 $646 $755 $758 reversed $551 $-1 #
edge $-1 $759 -12.956409429694787 $760 12.956409429694787 $710 $761 forward 7 unknown #
coedge $-1 $645 $644 $762 $763 reversed $453 $-1 #
coedge $-1 $722 $733 $644 $716 forward $360 $-1 #
edge $-1 $764 -16.400177436153967 $719 -8.6658728087325994 $715 $765 forward 7 unknown #
coedge $-1 $766 $755 $645 $718 forward $708 $-1 #
edge $-1 $720 8.6658728087325994 $767 16.400177436153967 $717 $768 forward 7 unknown #
vertex $-1 $716 $769 #
vertex $-1 $718 $770 #
straight-curve $-1 37.892286096529006 -21.198897931175882 0 0 0 -1 I I #
coedge $-1 $648 $715 $711 $757 forward $360 $-1 #
coedge $-1 $710 $771 $648 $724 reversed $641 $-1 #
edge $-1 $759 -21.198897931175882 $726 28.933202558597248 $723 $772 forward 7 unknown #
coedge $-1 $657 $649 $771 $773 forward $466 $-1 #
vertex $-1 $724 $774 #
point $-1 5.3040104735585025 28.933202558597245 8.5948361805580902 #
coedge $-1 $775 $776 $657 $729 forward $708 $-1 #
edge $-1 $731 -49.254432813501388 $777 49.254432813501388 $657 $778 forward 7 unknown #
coedge $-1 $664 $658 $776 $779 reversed $665 $-1 #
vertex $-1 $729 $780 #
straight-curve $-1 -49.254432813501388 28.933202558597248 0 0 0 -1 I I #
coedge $-1 $715 $661 $781 $782 forward $360 $-1 #
coedge $-1 $783 $784 $661 $735 reversed $785 $-1 #
edge $-1 $739 8.6658728087325994 $786 16.400177436153967 $661 $787 forward 7 unknown #
coedge $-1 $788 $662 $664 $741 reversed $738 $-1 #
coedge $-1 $662 $788 $783 $789 reversed $738 $-1 #
loop $-1 $-1 $737 $707 #
vertex $-1 $663 $790 #
straight-curve $-1 -21.786679727507597 -21.198897931175882 12.956409429694787 1 0 0 I I #
edge $-1 $791 -12.956409429694787 $666 12.956409429694787 $664 $792 forward 7 unknown #
face $-1 $565 $665 $19 $-1 $793 reversed single #
point $-1 -49.254432813501388 -21.198897931175882 12.956409429694787 #
straight-curve $-1 -49.254432813501388 28.933202558597248 0 0 0 -1 I I #
plane-surface $-1 0 -28.933202558597248 0 0 1 0 0 0 1 forward_v I I I I #
straight-curve $-1 49.254432813501388 0 -12.956409429694787 0 -1 0 I I #
edge $-1 $748 -16.400177436153967 $704 -8.6658728087325994 $691 $794 forward 7 unknown #
vertex $-1 $701 $795 #
straight-curve $-1 0 -28.933202558597248 -12.956409429694787 -1 0 0 I I #
straight-curve $-1 -37.892286096528998 -28.933202558597248 0 0 0 -1 I I #
straight-curve $-1 -21.786679727507597 -21.198897931175882 -12.956409429694787 -1 0 0 I I #
point $-1 -37.892286096528998 -21.198897931175882 -12.956409429694787 #
face $-1 $796 $785 $19 $-1 $797 forward single #
plane-surface $-1 -43.573359455015193 -21.198897931175882 0 0 -1 0 0 0 -1 forward_v I I I I #
coedge $-1 $717 $775 $712 $758 forward $708 $-1 #
coedge $-1 $771 $710 $775 $798 reversed $641 $-1 #
edge $-1 $719 16.105606369021405 $759 27.467753085993795 $722 $799 forward 7 unknown #
edge $-1 $760 -27.467753085993795 $720 -16.105606369021405 $755 $800 forward 7 unknown #
vertex $-1 $724 $801 #
vertex $-1 $713 $802 #
straight-curve $-1 49.254432813501388 -21.198897931175882 0 0 0 -1 I I #
coedge $-1 $781 $803 $714 $763 forward $804 $-1 #
edge $-1 $767 -12.956409429694787 $764 12.956409429694787 $762 $805 forward 7 unknown #
vertex $-1 $763 $806 #
straight-curve $-1 37.892286096529006 -12.533025122443282 12.956409429694787 0 1 0 I I #
coedge $-1 $807 $717 $803 $808 forward $708 $-1 #
vertex $-1 $808 $809 #
straight-curve $-1 37.892286096529006 -12.533025122443282 -12.956409429694787 0 -1 0 I I #
point $-1 37.892286096529006 -21.198897931175882 12.956409429694787 #
point $-1 37.892286096529006 -21.198897931175882 -12.956409429694787 #
coedge $-1 $723 $756 $725 $773 reversed $641 $-1 #
straight-curve $-1 49.254432813501388 0 12.956409429694787 0 1 0 I I #
edge $-1 $726 -12.956409429694787 $777 12.956409429694787 $771 $810 forward 7 unknown #
point $-1 49.254432813501388 28.933202558597248 12.956409429694787 #
coedge $-1 $755 $728 $756 $798 forward $708 $-1 #
coedge $-1 $728 $811 $730 $779 forward $708 $-1 #
vertex $-1 $798 $812 #
straight-curve $-1 0 28.933202558597248 -12.956409429694787 1 0 0 I I #
edge $-1 $791 -21.198897931175882 $731 28.933202558597248 $730 $813 forward 7 unknown #
point $-1 -49.254432813501388 28.933202558597248 -12.956409429694787 #
coedge $-1 $814 $762 $733 $782 reversed $804 $-1 #
edge $-1 $786 -37.892286096528998 $764 37.892286096529006 $781 $815 forward 7 unknown #
coedge $-1 $816 $734 $737 $789 forward $785 $-1 #
coedge $-1 $734 $816 $814 $817 reversed $785 $-1 #
loop $-1 $-1 $784 $753 #
vertex $-1 $782 $818 #
straight-curve $-1 -37.892286096528998 -12.533025122443282 12.956409429694787 0 -1 0 I I #
coedge $-1 $737 $736 $811 $819 reversed $738 $-1 #
edge $-1 $739 -12.956409429694787 $820 12.956409429694787 $783 $821 forward 7 unknown #
point $-1 -37.892286096528998 -21.198897931175882 12.956409429694787 #
vertex $-1 $779 $822 #
straight-curve $-1 -49.254432813501388 -21.198897931175882 0 0 0 1 I I #
plane-surface $-1 -49.254432813501388 0 0 1 0 0 0 0 -1 forward_v I I I I #
straight-curve $-1 -37.892286096528998 -12.533025122443282 -12.956409429694787 0 1 0 I I #
point $-1 -37.892286096528998 -28.933202558597248 -12.956409429694787 #
face $-1 $742 $804 $19 $-1 $823 reversed single #
plane-surface $-1 -37.892286096528998 -25.066050244886565 0 -1 0 0 0 0 1 forward_v I I I I #
edge $-1 $777 -28.933202558597248 $760 21.198897931175882 $756 $824 forward 7 unknown #
straight-curve $-1 21.7866797275076 -21.198897931175882 12.956409429694787 1 0 0 I I #
straight-curve $-1 21.7866797275076 -21.198897931175882 -12.956409429694787 -1 0 0 I I #
point $-1 49.254432813501396 -21.198897931175882 12.956409429694787 #
point $-1 49.254432813501396 -21.198897931175882 -12.956409429694787 #
coedge $-1 $762 $814 $766 $808 reversed $804 $-1 #
loop $-1 $-1 $762 $796 #
straight-curve $-1 37.892286096529006 -28.933202558597248 0 0 0 1 I I #
point $-1 37.892286096529006 -28.933202558597248 12.956409429694787 #
coedge $-1 $811 $766 $816 $825 forward $708 $-1 #
edge $-1 $767 -37.892286096529006 $826 37.892286096528998 $803 $827 forward 7 unknown #
point $-1 37.892286096529006 -28.933202558597248 -12.956409429694787 #
straight-curve $-1 49.254432813501388 28.933202558597248 0 0 0 -1 I I #
coedge $-1 $776 $807 $788 $819 forward $708 $-1 #
point $-1 49.254432813501388 28.933202558597248 -12.956409429694787 #
straight-curve $-1 -49.254432813501388 0 -12.956409429694787 0 1 0 I I #
coedge $-1 $803 $781 $784 $817 forward $804 $-1 #
straight-curve $-1 0 -28.933202558597248 12.956409429694787 1 0 0 I I #
coedge $-1 $784 $783 $807 $825 reversed $785 $-1 #
edge $-1 $786 -12.956409429694787 $826 12.956409429694787 $814 $828 forward 7 unknown #
point $-1 -37.892286096528998 -28.933202558597248 12.956409429694787 #
edge $-1 $820 16.105606369021402 $791 27.467753085993792 $811 $829 forward 7 unknown #
vertex $-1 $819 $830 #
straight-curve $-1 -37.892286096528998 -21.198897931175882 0 0 0 -1 I I #
point $-1 -49.254432813501388 -21.198897931175882 -12.956409429694787 #
plane-surface $-1 0 -28.933202558597248 0 0 1 0 0 0 1 forward_v I I I I #
straight-curve $-1 49.254432813501388 0 -12.956409429694787 0 -1 0 I I #
edge $-1 $826 -16.400177436153967 $820 -8.6658728087325994 $807 $831 forward 7 unknown #
vertex $-1 $817 $832 #
straight-curve $-1 0 -28.933202558597248 -12.956409429694787 -1 0 0 I I #
straight-curve $-1 -37.892286096528998 -28.933202558597248 0 0 0 -1 I I #
straight-curve $-1 -21.786679727507597 -21.198897931175882 -12.956409429694787 -1 0 0 I I #
point $-1 -37.892286096528998 -21.198897931175882 -12.956409429694787 #
straight-curve $-1 -37.892286096528998 -12.533025122443282 -12.956409429694787 0 1 0 I I #
point $-1 -37.892286096528998 -28.933202558597248 -12.956409429694787 #
End-of-ACIS-data 