500 0 6 0           
7 Unknown 11 ACIS 5.0 NT 24 Thu Mar 25 22:49:44 1999 
-1 9.9999999999999995e-007 1e-010 
body $-1 $6 $-1 $7 #
body $-1 $8 $-1 $9 #
body $-1 $10 $-1 $11 #
body $-1 $12 $-1 $13 #
body $-1 $14 $-1 $15 #
body $-1 $16 $-1 $17 #
lump $-1 $-1 $18 $0 #
transform $-1 1 0 0 0 1 0 0 0 1 43.072603534043395 27.140327872137625 5.557029136843731 1 rotate no_reflect no_shear #
lump $-1 $-1 $19 $1 #
transform $-1 1 0 0 0 1 0 0 0 1 43.072603534043395 27.140327872137625 5.557029136843731 1 rotate no_reflect no_shear #
lump $-1 $-1 $20 $2 #
transform $-1 1 0 0 0 1 0 0 0 1 43.072603534043395 27.140327872137625 5.557029136843731 1 rotate no_reflect no_shear #
lump $-1 $-1 $21 $3 #
transform $-1 1 0 0 0 1 0 0 0 1 43.072603534043395 27.140327872137625 5.557029136843731 1 rotate no_reflect no_shear #
lump $-1 $-1 $22 $4 #
transform $-1 1 0 0 0 1 0 0 0 1 43.072603534043395 27.140327872137625 5.557029136843731 1 rotate no_reflect no_shear #
lump $-1 $-1 $23 $5 #
transform $-1 1 0 0 0 1 0 0 0 1 43.072603534043395 27.140327872137625 5.557029136843731 1 rotate no_reflect no_shear #
shell $-1 $-1 $-1 $24 $-1 $6 #
shell $-1 $-1 $-1 $25 $-1 $8 #
shell $-1 $-1 $-1 $26 $-1 $10 #
shell $-1 $-1 $-1 $27 $-1 $12 #
shell $-1 $-1 $-1 $28 $-1 $14 #
shell $-1 $-1 $-1 $29 $-1 $16 #
face $-1 $30 $31 $18 $-1 $32 forward single #
face $-1 $33 $34 $19 $-1 $35 forward single #
face $-1 $36 $37 $20 $-1 $38 reversed single #
face $-1 $39 $40 $21 $-1 $41 reversed single #
face $-1 $42 $43 $22 $-1 $44 forward single #
face $-1 $45 $46 $23 $-1 $47 forward single #
face $-1 $48 $49 $18 $-1 $50 reversed single #
loop $-1 $-1 $51 $24 #
plane-surface $-1 0 0 5.557029136843731 0 0 1 1 0 0 forward_v I I I I #
face $-1 $52 $53 $19 $-1 $54 reversed single #
loop $-1 $-1 $55 $25 #
plane-surface $-1 0 -27.140327872137625 0 0 1 0 0 0 1 forward_v I I I I #
face $-1 $56 $57 $20 $-1 $58 reversed single #
loop $-1 $-1 $59 $26 #
plane-surface $-1 0 24.907362729609893 2.4734011579755162 0 0 1 1 0 0 forward_v I I I I #
face $-1 $60 $61 $21 $-1 $62 reversed single #
loop $-1 $-1 $63 $27 #
plane-surface $-1 -89.990646597496038 -20.55946356026136 72.92831970241869 0 1 0 -0.54463904215088732 0 0.83867056331134215 forward_v I I I I #
face $-1 $64 $65 $22 $-1 $66 forward single #
loop $-1 $67 $68 $28 #
cone-surface $-1 -38.368355285098673 -17.315972468627415 1.6561777024687747 0.54463904215088732 0 -0.83867056331134215 1.2580058449670133 0 0.81695856322633098 1 I I 0 1 1.5 forward I I I I #
face $-1 $69 $70 $23 $-1 $71 forward single #
loop $-1 $72 $73 $29 #
cone-surface $-1 -38.368355285098673 -12.450735831176498 1.6561777024687747 0.54463904215088732 0 -0.83867056331134215 1.2580058449670133 0 0.81695856322633098 1 I I 0 1 1.5 forward I I I I #
face $-1 $74 $75 $18 $-1 $76 reversed single #
loop $-1 $-1 $77 $30 #
plane-surface $-1 0 0 -5.557029136843731 0 0 1 1 0 0 forward_v I I I I #
coedge $-1 $78 $79 $80 $81 forward $31 $-1 #
face $-1 $82 $83 $19 $-1 $84 reversed single #
loop $-1 $-1 $85 $33 #
plane-surface $-1 0 0 -5.557029136843731 0 0 1 1 0 0 forward_v I I I I #
coedge $-1 $86 $87 $88 $89 forward $34 $-1 #
face $-1 $90 $91 $20 $-1 $92 reversed single #
loop $-1 $-1 $93 $36 #
plane-surface $-1 0 22.674397587082161 4.0152151474096236 0 1 0 0 0 1 forward_v I I I I #
coedge $-1 $94 $95 $96 $97 reversed $37 $-1 #
face $-1 $98 $99 $21 $-1 $100 reversed single #
loop $-1 $-1 $101 $39 #
plane-surface $-1 -43.072603534043402 -14.883354149901958 0.6808703640541296 -0.54463904215088732 0 0.83867056331134215 0.83867056331134215 0 0.54463904215088732 forward_v I I I I #
coedge $-1 $102 $103 $104 $105 reversed $40 $-1 #
face $-1 $-1 $106 $22 $-1 $107 forward single #
loop $-1 $108 $109 $42 #
cone-surface $-1 -37.009940710715192 -17.315972468627415 -0.43559726799488541 0.54463904215088732 0 -0.83867056331134215 0.62900292248350664 0 0.40847928161316549 1 I I -0.70710678118654757 0.70710678118654757 0.75 forward I I I I #
loop $-1 $-1 $110 $28 #
coedge $-1 $68 $68 $111 $112 reversed $43 $-1 #
face $-1 $-1 $113 $23 $-1 $114 forward single #
loop $-1 $115 $116 $45 #
cone-surface $-1 -37.009940710715192 -12.450735831176498 -0.43559726799488541 0.54463904215088732 0 -0.83867056331134215 0.62900292248350664 0 0.40847928161316549 1 I I -0.70710678118654757 0.70710678118654757 0.75 forward I I I I #
loop $-1 $-1 $117 $29 #
coedge $-1 $73 $73 $118 $119 reversed $46 $-1 #
face $-1 $120 $121 $18 $-1 $122 reversed single #
loop $-1 $-1 $123 $48 #
plane-surface $-1 0 -27.140327872137625 0 0 1 0 0 0 1 forward_v I I I I #
coedge $-1 $124 $125 $126 $127 forward $49 $-1 #
coedge $-1 $128 $51 $129 $130 forward $31 $-1 #
coedge $-1 $51 $128 $131 $132 forward $31 $-1 #
coedge $-1 $133 $134 $51 $81 reversed $135 $-1 #
edge $-1 $136 -27.140327872137625 $137 27.140327872137625 $80 $138 forward 7 unknown #
face $-1 $139 $140 $19 $-1 $141 reversed single #
loop $-1 $-1 $142 $52 #
plane-surface $-1 -33.458545260355933 -33.721192184013894 0 0 1 0 0 0 1 forward_v I I I I #
coedge $-1 $143 $144 $87 $145 forward $53 $-1 #
coedge $-1 $146 $55 $147 $148 reversed $34 $-1 #
coedge $-1 $55 $146 $85 $145 reversed $34 $-1 #
coedge $-1 $149 $150 $55 $89 reversed $140 $-1 #
edge $-1 $151 -5.557029136843731 $152 5.557029136843731 $88 $153 forward 7 unknown #
face $-1 $154 $155 $20 $-1 $156 forward single #
loop $-1 $-1 $157 $56 #
plane-surface $-1 -43.072603534043395 0 0 1 0 0 0 0 -1 forward_v I I I I #
coedge $-1 $158 $159 $160 $161 reversed $57 $-1 #
coedge $-1 $162 $59 $158 $163 forward $37 $-1 #
coedge $-1 $59 $162 $164 $165 reversed $37 $-1 #
coedge $-1 $166 $167 $59 $97 forward $168 $-1 #
edge $-1 $169 10.220716222277215 $170 14.686646507332679 $96 $171 forward 7 unknown #
face $-1 $172 $173 $21 $-1 $174 forward single #
loop $-1 $-1 $175 $60 #
plane-surface $-1 -89.990646597496038 -9.2072447395425563 72.92831970241869 0 -1 0 0.54463904215088732 0 -0.83867056331134215 forward_v I I I I #
coedge $-1 $176 $177 $178 $179 reversed $61 $-1 #
coedge $-1 $103 $63 $180 $181 reversed $40 $-1 #
coedge $-1 $63 $102 $176 $182 reversed $40 $-1 #
coedge $-1 $178 $183 $63 $105 forward $173 $-1 #
edge $-1 $184 1.9227197647046239 $185 9.431345677053443 $104 $186 forward 7 unknown #
loop $-1 $-1 $111 $64 #
plane-surface $-1 -43.072603534043402 -14.883354149901958 0.6808703640541296 -0.54463904215088732 0 0.83867056331134215 0.83867056331134215 0 0.54463904215088732 forward_v I I I I #
loop $-1 $-1 $187 $42 #
coedge $-1 $109 $109 $110 $188 reversed $65 $-1 #
coedge $-1 $110 $110 $109 $188 forward $67 $-1 #
coedge $-1 $111 $111 $68 $112 forward $106 $-1 #
edge $-1 $189 0 $189 6.2831853071796004 $111 $190 forward 7 unknown #
loop $-1 $-1 $118 $69 #
plane-surface $-1 -43.072603534043402 -14.883354149901958 0.6808703640541296 -0.54463904215088732 0 0.83867056331134215 0.83867056331134215 0 0.54463904215088732 forward_v I I I I #
loop $-1 $-1 $191 $45 #
coedge $-1 $116 $116 $117 $192 reversed $70 $-1 #
coedge $-1 $117 $117 $116 $192 forward $72 $-1 #
coedge $-1 $118 $118 $73 $119 forward $113 $-1 #
edge $-1 $193 0 $193 6.2831853071796004 $118 $194 forward 7 unknown #
face $-1 $195 $196 $18 $-1 $197 reversed single #
loop $-1 $-1 $198 $74 #
plane-surface $-1 -43.072603534043395 0 0 1 0 0 0 0 -1 forward_v I I I I #
coedge $-1 $199 $131 $200 $201 forward $75 $-1 #
coedge $-1 $202 $77 $199 $203 forward $49 $-1 #
coedge $-1 $77 $202 $204 $205 forward $49 $-1 #
coedge $-1 $134 $133 $77 $127 reversed $135 $-1 #
edge $-1 $206 -27.140327872137625 $207 27.140327872137625 $126 $208 forward 7 unknown #
coedge $-1 $79 $78 $209 $210 forward $31 $-1 #
coedge $-1 $211 $212 $78 $130 reversed $196 $-1 #
edge $-1 $137 -43.072603534043395 $213 43.072603534043395 $129 $214 forward 7 unknown #
coedge $-1 $123 $215 $79 $132 reversed $75 $-1 #
edge $-1 $216 -43.072603534043395 $136 43.072603534043395 $131 $217 forward 7 unknown #
coedge $-1 $126 $80 $215 $218 forward $135 $-1 #
coedge $-1 $80 $126 $211 $219 reversed $135 $-1 #
loop $-1 $-1 $133 $195 #
vertex $-1 $81 $220 #
vertex $-1 $81 $221 #
straight-curve $-1 43.072603534043395 0 5.557029136843731 0 1 0 I I #
face $-1 $222 $223 $19 $-1 $224 reversed single #
loop $-1 $-1 $88 $82 #
plane-surface $-1 -34.958545260355933 -30.43076002807576 0 1 0 0 0 0 -1 forward_v I I I I #
coedge $-1 $225 $226 $227 $228 forward $83 $-1 #
coedge $-1 $229 $85 $230 $231 forward $53 $-1 #
coedge $-1 $85 $229 $149 $232 forward $53 $-1 #
edge $-1 $151 -34.958545260355933 $233 -31.958545260355933 $85 $234 forward 7 unknown #
coedge $-1 $87 $86 $235 $236 forward $34 $-1 #
coedge $-1 $237 $238 $86 $148 forward $239 $-1 #
edge $-1 $240 31.958545260355933 $152 34.958545260355933 $147 $241 forward 7 unknown #
coedge $-1 $227 $88 $144 $232 reversed $140 $-1 #
coedge $-1 $88 $227 $237 $242 reversed $140 $-1 #
vertex $-1 $145 $243 #
vertex $-1 $242 $244 #
straight-curve $-1 -34.958545260355933 -27.140327872137625 0 0 0 1 I I #
face $-1 $245 $246 $20 $-1 $247 reversed single #
loop $-1 $-1 $248 $90 #
plane-surface $-1 0 0 5.557029136843731 0 0 1 1 0 0 forward_v I I I I #
coedge $-1 $160 $249 $162 $250 forward $91 $-1 #
coedge $-1 $251 $93 $94 $163 reversed $57 $-1 #
coedge $-1 $93 $251 $248 $252 reversed $57 $-1 #
coedge $-1 $253 $157 $93 $161 forward $91 $-1 #
edge $-1 $254 0.46579358427070439 $255 3.5494215631389192 $160 $256 forward 7 unknown #
coedge $-1 $95 $94 $157 $250 reversed $37 $-1 #
edge $-1 $169 -43.072603534043395 $254 43.072603534043395 $158 $257 forward 7 unknown #
coedge $-1 $258 $259 $95 $165 forward $246 $-1 #
edge $-1 $170 -43.072603534043395 $260 43.072603534043395 $164 $261 forward 7 unknown #
coedge $-1 $262 $96 $259 $263 reversed $168 $-1 #
coedge $-1 $96 $262 $251 $264 forward $168 $-1 #
loop $-1 $-1 $96 $245 #
vertex $-1 $97 $265 #
vertex $-1 $97 $266 #
straight-curve $-1 43.072603534043395 12.453681364804947 2.4734011579755162 0 1 0 I I #
face $-1 $-1 $267 $21 $-1 $268 reversed single #
loop $-1 $-1 $104 $98 #
plane-surface $-1 0 0 5.557029136843731 0 0 1 1 0 0 forward_v I I I I #
coedge $-1 $269 $270 $271 $272 reversed $99 $-1 #
coedge $-1 $273 $101 $103 $182 forward $61 $-1 #
coedge $-1 $101 $273 $269 $274 forward $61 $-1 #
coedge $-1 $271 $104 $101 $179 forward $173 $-1 #
edge $-1 $185 -13.117786485310381 $275 -1.7655676645915772 $178 $276 forward 7 unknown #
coedge $-1 $277 $278 $102 $181 forward $267 $-1 #
edge $-1 $279 -35.783289487155209 $184 -30.907130714365614 $180 $280 forward 7 unknown #
edge $-1 $185 -8.9530099669915053 $279 -8.4987301443310198e-015 $103 $281 forward 7 unknown #
coedge $-1 $104 $271 $277 $282 forward $173 $-1 #
vertex $-1 $105 $283 #
vertex $-1 $105 $284 #
straight-curve $-1 -44.995323298748019 -20.55946356026136 5.557029136843731 1 0 0 I I #
coedge $-1 $187 $187 $-1 $285 reversed $108 $-1 #
edge $-1 $286 0 $286 6.2831853071796004 $109 $287 forward 7 unknown #
vertex $-1 $112 $288 #
ellipse-curve $-1 -39.318290577868986 -17.315972468627415 3.1189497504489312 -0.54463904215088732 0 0.83867056331134215 1.2580058449670133 0 0.81695856322633098 1 I I #
coedge $-1 $191 $191 $-1 $289 reversed $115 $-1 #
edge $-1 $290 0 $290 6.2831853071796004 $116 $291 forward 7 unknown #
vertex $-1 $119 $292 #
ellipse-curve $-1 -39.318290577868986 -12.450735831176498 3.1189497504489312 -0.54463904215088732 0 0.83867056331134215 1.2580058449670133 0 0.81695856322633098 1 I I #
face $-1 $-1 $135 $18 $-1 $293 reversed single #
loop $-1 $-1 $211 $120 #
plane-surface $-1 0 27.140327872137625 0 0 -1 0 0 0 -1 forward_v I I I I #
coedge $-1 $294 $209 $212 $295 forward $121 $-1 #
coedge $-1 $215 $123 $124 $203 reversed $75 $-1 #
coedge $-1 $209 $294 $123 $201 reversed $121 $-1 #
edge $-1 $216 -5.557029136843731 $296 5.557029136843731 $200 $297 forward 7 unknown #
coedge $-1 $125 $124 $294 $298 forward $49 $-1 #
edge $-1 $207 -43.072603534043395 $296 43.072603534043395 $199 $299 forward 7 unknown #
coedge $-1 $212 $211 $125 $205 reversed $196 $-1 #
edge $-1 $300 -43.072603534043395 $206 43.072603534043395 $204 $301 forward 7 unknown #
vertex $-1 $127 $302 #
vertex $-1 $218 $303 #
straight-curve $-1 43.072603534043395 0 -5.557029136843731 0 -1 0 I I #
coedge $-1 $198 $200 $128 $210 reversed $121 $-1 #
edge $-1 $213 -27.140327872137625 $216 27.140327872137625 $209 $304 forward 7 unknown #
coedge $-1 $204 $129 $134 $219 forward $196 $-1 #
coedge $-1 $129 $204 $198 $295 reversed $196 $-1 #
vertex $-1 $130 $305 #
straight-curve $-1 0 27.140327872137625 5.557029136843731 -1 0 0 I I #
coedge $-1 $131 $199 $133 $218 reversed $75 $-1 #
vertex $-1 $210 $306 #
straight-curve $-1 0 -27.140327872137625 5.557029136843731 1 0 0 I I #
edge $-1 $136 -5.557029136843731 $207 5.557029136843731 $133 $307 forward 7 unknown #
edge $-1 $137 -5.557029136843731 $206 5.557029136843731 $134 $308 forward 7 unknown #
point $-1 43.072603534043395 -27.140327872137625 5.557029136843731 #
point $-1 43.072603534043395 27.140327872137625 5.557029136843731 #
face $-1 $-1 $239 $19 $-1 $309 forward single #
loop $-1 $-1 $310 $139 #
plane-surface $-1 -31.958545260355933 -30.43076002807576 0 -1 0 0 0 0 1 forward_v I I I I #
coedge $-1 $311 $142 $229 $312 reversed $83 $-1 #
coedge $-1 $142 $311 $313 $314 reversed $83 $-1 #
coedge $-1 $150 $149 $142 $228 reversed $140 $-1 #
edge $-1 $315 -5.557029136843731 $316 5.557029136843731 $227 $317 forward 7 unknown #
coedge $-1 $144 $143 $225 $312 forward $53 $-1 #
coedge $-1 $235 $310 $143 $231 reversed $223 $-1 #
edge $-1 $233 -3.2904321559381344 $318 3.2904321559381344 $230 $319 forward 7 unknown #
edge $-1 $316 -3.2904321559381344 $151 3.2904321559381344 $149 $320 forward 7 unknown #
vertex $-1 $231 $321 #
straight-curve $-1 0 -27.140327872137625 -5.557029136843731 1 0 0 I I #
coedge $-1 $322 $230 $146 $236 reversed $223 $-1 #
edge $-1 $240 -5.557029136843731 $233 5.557029136843731 $235 $323 forward 7 unknown #
coedge $-1 $313 $147 $150 $242 forward $239 $-1 #
coedge $-1 $147 $313 $322 $324 forward $239 $-1 #
loop $-1 $-1 $147 $222 #
vertex $-1 $148 $325 #
straight-curve $-1 0 -27.140327872137625 5.557029136843731 -1 0 0 I I #
edge $-1 $152 -3.2904321559381344 $315 3.2904321559381344 $150 $326 forward 7 unknown #
point $-1 -34.958545260355933 -27.140327872137625 -5.557029136843731 #
point $-1 -34.958545260355933 -27.140327872137625 5.557029136843731 #
face $-1 $-1 $168 $20 $-1 $327 reversed single #
loop $-1 $-1 $164 $154 #
plane-surface $-1 0 27.140327872137625 0 0 -1 0 0 0 -1 forward_v I I I I #
coedge $-1 $328 $329 $159 $252 forward $155 $-1 #
coedge $-1 $157 $253 $258 $330 forward $91 $-1 #
edge $-1 $260 -14.686646507332679 $254 -10.220716222277215 $157 $331 forward 7 unknown #
coedge $-1 $159 $158 $167 $264 reversed $57 $-1 #
edge $-1 $255 -43.072603534043395 $332 43.072603534043395 $248 $333 forward 7 unknown #
coedge $-1 $249 $160 $329 $334 reversed $91 $-1 #
vertex $-1 $250 $335 #
vertex $-1 $252 $336 #
straight-curve $-1 -43.072603534043395 22.674397587082161 2.0076075737048118 0 0 1 I I #
straight-curve $-1 0 22.674397587082161 2.4734011579755162 -1 0 0 I I #
coedge $-1 $337 $164 $249 $330 reversed $246 $-1 #
coedge $-1 $164 $337 $166 $263 forward $246 $-1 #
vertex $-1 $250 $338 #
straight-curve $-1 0 27.140327872137625 2.4734011579755162 -1 0 0 I I #
coedge $-1 $167 $166 $328 $339 reversed $168 $-1 #
edge $-1 $340 -5.557029136843731 $170 -2.4734011579755162 $166 $341 forward 7 unknown #
edge $-1 $332 -3.5494215631389192 $169 -0.46579358427070439 $167 $342 forward 7 unknown #
point $-1 43.072603534043395 22.674397587082161 2.4734011579755162 #
point $-1 43.072603534043395 27.140327872137625 2.4734011579755162 #
loop $-1 $-1 $180 $172 #
plane-surface $-1 -43.072603534043395 0 0 1 0 0 0 0 -1 forward_v I I I I #
coedge $-1 $270 $175 $177 $274 reversed $99 $-1 #
coedge $-1 $175 $269 $343 $344 reversed $99 $-1 #
coedge $-1 $183 $178 $175 $272 forward $173 $-1 #
edge $-1 $275 -9.431345677053443 $345 -1.9227197647046239 $271 $346 forward 7 unknown #
coedge $-1 $177 $176 $278 $347 reversed $61 $-1 #
edge $-1 $348 8.4987301443310198e-015 $275 8.9530099669915053 $269 $349 forward 7 unknown #
vertex $-1 $179 $350 #
straight-curve $-1 -35.563977621694576 -7.4416770749509791 5.557029136843731 0 1 0 I I #
coedge $-1 $343 $180 $183 $282 reversed $267 $-1 #
coedge $-1 $180 $343 $273 $347 forward $267 $-1 #
vertex $-1 $181 $351 #
straight-curve $-1 -43.072603534043395 -20.55946356026136 36.464159851209345 0 0 1 I I #
straight-curve $-1 -43.072603534043402 -20.55946356026136 0.6808703640541296 -0.83867056331134215 0 -0.54463904215088732 I I #
edge $-1 $345 9.2072447395425563 $184 20.55946356026136 $277 $352 forward 7 unknown #
point $-1 -43.072603534043395 -20.55946356026136 5.557029136843731 #
point $-1 -35.563977621694576 -20.55946356026136 5.557029136843731 #
edge $-1 $353 1 $353 0 $187 $-1 forward 7 unknown #
vertex $-1 $188 $354 #
ellipse-curve $-1 -37.41841999232836 -17.315972468627415 0.19340565448862124 -0.54463904215088732 0 0.83867056331134215 1.2580058449670133 0 0.81695856322633098 1 I I #
point $-1 -38.06028473290197 -17.315972468627415 3.9359083136752595 #
edge $-1 $355 1 $355 0 $191 $-1 forward 7 unknown #
vertex $-1 $192 $356 #
ellipse-curve $-1 -37.41841999232836 -12.450735831176498 0.19340565448862124 -0.54463904215088732 0 0.83867056331134215 1.2580058449670133 0 0.81695856322633098 1 I I #
point $-1 -38.06028473290197 -12.450735831176498 3.9359083136752595 #
plane-surface $-1 43.072603534043395 0 0 -1 0 0 0 0 1 forward_v I I I I #
coedge $-1 $200 $198 $202 $298 reversed $121 $-1 #
edge $-1 $213 -5.557029136843731 $300 5.557029136843731 $212 $357 forward 7 unknown #
vertex $-1 $298 $358 #
straight-curve $-1 -43.072603534043395 -27.140327872137625 0 0 0 -1 I I #
edge $-1 $296 -27.140327872137625 $300 27.140327872137625 $294 $359 forward 7 unknown #
straight-curve $-1 0 -27.140327872137625 -5.557029136843731 -1 0 0 I I #
vertex $-1 $205 $360 #
straight-curve $-1 0 27.140327872137625 -5.557029136843731 1 0 0 I I #
point $-1 43.072603534043395 27.140327872137625 -5.557029136843731 #
point $-1 43.072603534043395 -27.140327872137625 -5.557029136843731 #
straight-curve $-1 -43.072603534043395 0 5.557029136843731 0 -1 0 I I #
point $-1 -43.072603534043395 27.140327872137625 5.557029136843731 #
point $-1 -43.072603534043395 -27.140327872137625 5.557029136843731 #
straight-curve $-1 43.072603534043395 -27.140327872137625 0 0 0 -1 I I #
straight-curve $-1 43.072603534043395 27.140327872137625 0 0 0 -1 I I #
plane-surface $-1 0 0 5.557029136843731 0 0 1 1 0 0 forward_v I I I I #
coedge $-1 $230 $322 $311 $361 forward $223 $-1 #
coedge $-1 $226 $225 $310 $361 reversed $83 $-1 #
edge $-1 $318 -1.5 $316 1.5 $225 $362 forward 7 unknown #
coedge $-1 $238 $237 $226 $314 forward $239 $-1 #
edge $-1 $315 -1.5 $363 1.5 $226 $364 forward 7 unknown #
vertex $-1 $242 $365 #
vertex $-1 $232 $366 #
straight-curve $-1 -34.958545260355933 -33.721192184013894 0 0 0 -1 I I #
vertex $-1 $361 $367 #
straight-curve $-1 -31.958545260355933 -30.43076002807576 -5.557029136843731 0 -1 0 I I #
straight-curve $-1 -34.958545260355933 -30.43076002807576 -5.557029136843731 0 1 0 I I #
point $-1 -31.958545260355933 -27.140327872137625 -5.557029136843731 #
coedge $-1 $310 $235 $238 $324 reversed $223 $-1 #
straight-curve $-1 -31.958545260355933 -27.140327872137625 0 0 0 -1 I I #
edge $-1 $363 -3.2904321559381344 $240 3.2904321559381344 $322 $368 forward 7 unknown #
point $-1 -31.958545260355933 -27.140327872137625 5.557029136843731 #
straight-curve $-1 -34.958545260355933 -30.43076002807576 5.557029136843731 0 -1 0 I I #
plane-surface $-1 43.072603534043395 0 0 -1 0 0 0 0 1 forward_v I I I I #
coedge $-1 $369 $248 $262 $339 forward $155 $-1 #
coedge $-1 $248 $369 $253 $334 forward $155 $-1 #
edge $-1 $370 -5.557029136843731 $260 -2.4734011579755162 $258 $371 forward 7 unknown #
straight-curve $-1 -43.072603534043395 12.453681364804947 2.4734011579755162 0 -1 0 I I #
vertex $-1 $339 $372 #
straight-curve $-1 0 22.674397587082161 5.557029136843731 1 0 0 I I #
edge $-1 $370 -27.140327872137625 $255 -22.674397587082161 $253 $373 forward 7 unknown #
point $-1 -43.072603534043395 22.674397587082161 2.4734011579755162 #
point $-1 -43.072603534043395 22.674397587082161 5.557029136843731 #
coedge $-1 $259 $258 $369 $374 reversed $246 $-1 #
point $-1 -43.072603534043395 27.140327872137625 2.4734011579755162 #
edge $-1 $332 22.674397587082161 $340 27.140327872137625 $262 $375 forward 7 unknown #
vertex $-1 $339 $376 #
straight-curve $-1 43.072603534043395 27.140327872137625 0 0 0 -1 I I #
straight-curve $-1 43.072603534043395 22.674397587082161 2.0076075737048118 0 0 -1 I I #
coedge $-1 $278 $277 $270 $344 forward $267 $-1 #
edge $-1 $345 30.907130714365614 $348 35.783289487155209 $343 $377 forward 7 unknown #
vertex $-1 $282 $378 #
straight-curve $-1 -44.995323298748019 -9.2072447395425563 5.557029136843731 -1 0 0 I I #
edge $-1 $348 1.7655676645915772 $279 13.117786485310381 $278 $379 forward 7 unknown #
vertex $-1 $347 $380 #
straight-curve $-1 -43.072603534043402 -9.2072447395425563 0.6808703640541296 0.83867056331134215 0 0.54463904215088732 I I #
point $-1 -35.563977621694576 -9.2072447395425563 5.557029136843731 #
point $-1 -43.072603534043395 -20.55946356026136 0.68087036405413426 #
straight-curve $-1 -43.072603534043395 0 5.557029136843731 0 -1 0 I I #
vertex $-1 $285 $381 #
point $-1 -36.160414147361344 -17.315972468627415 1.0103642177149523 #
vertex $-1 $289 $382 #
point $-1 -36.160414147361344 -12.450735831176498 1.0103642177149523 #
straight-curve $-1 -43.072603534043395 27.140327872137625 0 0 0 -1 I I #
point $-1 -43.072603534043395 -27.140327872137625 -5.557029136843731 #
straight-curve $-1 -43.072603534043395 0 -5.557029136843731 0 1 0 I I #
point $-1 -43.072603534043395 27.140327872137625 -5.557029136843731 #
edge $-1 $363 -5.557029136843731 $318 5.557029136843731 $310 $383 forward 7 unknown #
straight-curve $-1 -33.458545260355933 -33.721192184013894 -5.557029136843731 -1 0 0 I I #
vertex $-1 $324 $384 #
straight-curve $-1 -33.458545260355933 -33.721192184013894 5.557029136843731 1 0 0 I I #
point $-1 -34.958545260355933 -33.721192184013894 5.557029136843731 #
point $-1 -34.958545260355933 -33.721192184013894 -5.557029136843731 #
point $-1 -31.958545260355933 -33.721192184013894 -5.557029136843731 #
straight-curve $-1 -31.958545260355933 -30.43076002807576 5.557029136843731 0 1 0 I I #
coedge $-1 $329 $328 $337 $374 forward $155 $-1 #
vertex $-1 $374 $385 #
straight-curve $-1 -43.072603534043395 27.140327872137625 0 0 0 -1 I I #
point $-1 43.072603534043395 22.674397587082161 5.557029136843731 #
straight-curve $-1 -43.072603534043395 0 5.557029136843731 0 -1 0 I I #
edge $-1 $340 -43.072603534043395 $370 43.072603534043395 $337 $386 forward 7 unknown #
straight-curve $-1 43.072603534043395 0 5.557029136843731 0 1 0 I I #
point $-1 43.072603534043395 27.140327872137625 5.557029136843731 #
straight-curve $-1 -43.072603534043395 -9.2072447395425563 36.464159851209345 0 0 -1 I I #
point $-1 -43.072603534043395 -9.2072447395425563 5.557029136843731 #
straight-curve $-1 -43.072603534043395 -7.4416770749509791 0.68087036405413093 0 -1 0 I I #
point $-1 -43.072603534043395 -9.2072447395425563 0.68087036405413426 #
point $-1 -36.601461429102024 -17.315972468627415 -1.0646001904783922 #
point $-1 -36.601461429102024 -12.450735831176498 -1.0646001904783922 #
straight-curve $-1 -31.958545260355933 -33.721192184013894 0 0 0 -1 I I #
point $-1 -31.958545260355933 -33.721192184013894 5.557029136843731 #
point $-1 -43.072603534043395 27.140327872137625 5.557029136843731 #
straight-curve $-1 0 27.140327872137625 5.557029136843731 -1 0 0 I I #
End-of-ACIS-data 