600 0 10 0           
108 GICL ACIS Healer - Source: /gicl/data5/repository/Drexel/CICIRELLO-THESISDATA/Part10015.smdg.delta.sat - 6 0 18 ACIS 6.0.3 Solaris 24 Fri Apr 12 10:29:14 2002 
1 9.999999999999999547e-07 1.000000000000000036e-10 
body $-1 $10 $-1 $-1 #
body $-1 $11 $-1 $-1 #
body $-1 $12 $-1 $-1 #
body $-1 $13 $-1 $-1 #
body $-1 $14 $-1 $-1 #
body $-1 $15 $-1 $-1 #
body $-1 $16 $-1 $-1 #
body $-1 $17 $-1 $-1 #
body $-1 $18 $-1 $-1 #
body $-1 $19 $-1 $-1 #
lump $-1 $-1 $20 $0 #
lump $-1 $-1 $21 $1 #
lump $-1 $-1 $22 $2 #
lump $-1 $-1 $23 $3 #
lump $-1 $-1 $24 $4 #
lump $-1 $-1 $25 $5 #
lump $-1 $-1 $26 $6 #
lump $-1 $-1 $27 $7 #
lump $-1 $-1 $28 $8 #
lump $-1 $-1 $29 $9 #
shell $-1 $-1 $-1 $30 $-1 $10 #
shell $-1 $-1 $-1 $31 $-1 $11 #
shell $-1 $-1 $-1 $32 $-1 $12 #
shell $-1 $-1 $-1 $33 $-1 $13 #
shell $-1 $-1 $-1 $34 $-1 $14 #
shell $-1 $-1 $-1 $35 $-1 $15 #
shell $-1 $-1 $-1 $36 $-1 $16 #
shell $-1 $-1 $-1 $37 $-1 $17 #
shell $-1 $-1 $-1 $38 $-1 $18 #
shell $-1 $-1 $-1 $39 $-1 $19 #
face $-1 $40 $41 $20 $-1 $42 forward single #
face $-1 $43 $44 $21 $-1 $45 reversed single #
face $-1 $46 $47 $22 $-1 $48 reversed single #
face $-1 $49 $50 $23 $-1 $51 reversed single #
face $-1 $52 $53 $24 $-1 $54 forward single #
face $-1 $55 $56 $25 $-1 $57 forward single #
face $-1 $58 $59 $26 $-1 $60 forward single #
face $-1 $61 $62 $27 $-1 $63 reversed single #
face $-1 $64 $65 $28 $-1 $66 forward single #
face $-1 $67 $68 $29 $-1 $69 forward single #
face $-1 $70 $71 $20 $-1 $72 reversed single #
loop $-1 $-1 $73 $30 #
plane-surface $-1 52.94717246009705036 36.04938623358199123 25.74648110951666169 0 0 1 1 0 0 forward_v I I I I #
face $-1 $74 $75 $21 $-1 $76 reversed single #
loop $-1 $-1 $77 $31 #
plane-surface $-1 1.60759340269220985 12.52968174863249828 12.87324055475833084 0 -1 0 0 0 -1 forward_v I I I I #
face $-1 $78 $79 $22 $-1 $80 reversed single #
loop $-1 $-1 $81 $32 #
plane-surface $-1 1.60759340269220985 59.56909071853148419 12.87324055475833084 0 1 0 0 0 1 forward_v I I I I #
face $-1 $82 $83 $23 $-1 $84 reversed single #
loop $-1 $-1 $85 $33 #
plane-surface $-1 -66.64147138266761772 38.25304373170159522 96.69808536814095135 0 1 0 -0.6293203988644634483 0 0.7771459551288114609 forward_v I I I I #
face $-1 $86 $87 $24 $-1 $88 forward single #
loop $-1 $89 $90 $34 #
cone-surface $-1 7.318847037453046767 40.57479094619550608 19.68602934839238117 0.6293203988644634483 0 -0.7771459551288114609 0.3885729775644057304 0 0.3146601994322317242 1 I I 0 1 0.5 forward I I I I #
face $-1 $91 $92 $25 $-1 $93 forward single #
loop $-1 $94 $95 $35 #
cone-surface $-1 7.318847037453046767 44.05741176793636527 19.68602934839238117 0.6293203988644634483 0 -0.7771459551288114609 0.3885729775644057304 0 0.3146601994322317242 1 I I 0 1 0.5 forward I I I I #
face $-1 $96 $97 $26 $-1 $98 forward single #
loop $-1 $99 $100 $36 #
cone-surface $-1 7.318847037453046767 47.54003258967722445 19.68602934839238117 0.6293203988644634483 0 -0.7771459551288114609 0.3885729775644057304 0 0.3146601994322317242 1 I I 0 1 0.5 forward I I I I #
face $-1 $101 $102 $27 $-1 $103 reversed single #
loop $-1 $-1 $104 $37 #
plane-surface $-1 147.1730309791426237 29.26781936995008948 161.5863042450995124 0 -1 0 -0.8746197147644345637 0 -0.484809606490402778 forward_v I I I I #
face $-1 $105 $106 $28 $-1 $107 forward single #
loop $-1 $108 $109 $38 #
cone-surface $-1 101.9625680782872905 21.47805967172898178 20.75589788929189083 -0.8746197147644345637 0 -0.484809606490402778 0.484809606490402778 0 -0.8746197147644345637 1 I I 0 1 1 forward I I I I #
face $-1 $110 $111 $29 $-1 $112 forward single #
loop $-1 $113 $114 $39 #
cone-surface $-1 101.9625680782872905 26.15191549066164711 20.75589788929189083 -0.8746197147644345637 0 -0.484809606490402778 0.484809606490402778 0 -0.8746197147644345637 1 I I 0 1 1 forward I I I I #
face $-1 $115 $116 $20 $-1 $117 reversed single #
loop $-1 $-1 $118 $40 #
plane-surface $-1 52.94717246009705036 36.04938623358199123 0 0 0 1 1 0 0 forward_v I I I I #
coedge $-1 $119 $120 $121 $122 forward $41 $-1 #
face $-1 $123 $124 $21 $-1 $125 forward single #
loop $-1 $-1 $126 $43 #
plane-surface $-1 3.215186805384419699 6.264840874316249142 12.87324055475833084 -1 0 0 0 0 1 forward_v I I I I #
coedge $-1 $127 $128 $129 $130 forward $44 $-1 #
face $-1 $131 $132 $22 $-1 $133 reversed single #
loop $-1 $-1 $134 $46 #
plane-surface $-1 3.215186805384419699 65.83393159284773333 12.87324055475833084 -1 0 0 0 0 1 forward_v I I I I #
coedge $-1 $135 $136 $137 $138 reversed $47 $-1 #
face $-1 $139 $140 $23 $-1 $141 reversed single #
loop $-1 $-1 $142 $49 #
plane-surface $-1 0 44.05741176793636527 14.40272354239690422 -0.6293203988644634483 0 0.7771459551288114609 0.7771459551288114609 0 0.6293203988644634483 forward_v I I I I #
coedge $-1 $143 $144 $145 $146 reversed $50 $-1 #
face $-1 $-1 $147 $24 $-1 $148 forward single #
loop $-1 $149 $150 $52 #
cone-surface $-1 7.790837336601391883 40.57479094619550608 19.10316988204577271 0.6293203988644634483 0 -0.7771459551288114609 0.1942864887822028652 0 0.1573300997161158621 1 I I -0.7071067811865474617 0.7071067811865474617 0.25 forward I I I I #
loop $-1 $-1 $151 $34 #
coedge $-1 $90 $90 $152 $153 reversed $53 $-1 #
face $-1 $-1 $154 $25 $-1 $155 forward single #
loop $-1 $156 $157 $55 #
cone-surface $-1 7.790837336601391883 44.05741176793636527 19.10316988204577271 0.6293203988644634483 0 -0.7771459551288114609 0.1942864887822028652 0 0.1573300997161158621 1 I I -0.7071067811865474617 0.7071067811865474617 0.25 forward I I I I #
loop $-1 $-1 $158 $35 #
coedge $-1 $95 $95 $159 $160 reversed $56 $-1 #
face $-1 $-1 $161 $26 $-1 $162 forward single #
loop $-1 $163 $164 $58 #
cone-surface $-1 7.790837336601391883 47.54003258967722445 19.10316988204577271 0.6293203988644634483 0 -0.7771459551288114609 0.1942864887822028652 0 0.1573300997161158621 1 I I -0.7071067811865474617 0.7071067811865474617 0.25 forward I I I I #
loop $-1 $-1 $165 $36 #
coedge $-1 $100 $100 $166 $167 reversed $59 $-1 #
face $-1 $168 $169 $27 $-1 $170 reversed single #
loop $-1 $-1 $171 $61 #
plane-surface $-1 54.55574922987581488 23.81498758119531445 110.2477085547812266 0.8746197147644345637 0 0.484809606490402778 0.484809606490402778 0 -0.8746197147644345637 forward_v I I I I #
coedge $-1 $172 $173 $174 $175 reversed $62 $-1 #
face $-1 $-1 $176 $28 $-1 $177 forward single #
loop $-1 $178 $179 $64 #
cone-surface $-1 99.84288247695880614 21.47805967172898178 19.58093701782306084 -0.8746197147644345637 0 -0.484809606490402778 0.242404803245201389 0 -0.4373098573822172819 1 I I -0.7071067811865474617 0.7071067811865474617 0.5 forward I I I I #
loop $-1 $-1 $180 $38 #
coedge $-1 $109 $109 $181 $182 reversed $65 $-1 #
face $-1 $-1 $183 $29 $-1 $184 forward single #
loop $-1 $185 $186 $67 #
cone-surface $-1 99.84288247695880614 26.15191549066164711 19.58093701782306084 -0.8746197147644345637 0 -0.484809606490402778 0.242404803245201389 0 -0.4373098573822172819 1 I I -0.7071067811865474617 0.7071067811865474617 0.5 forward I I I I #
loop $-1 $-1 $187 $39 #
coedge $-1 $114 $114 $188 $189 reversed $68 $-1 #
face $-1 $190 $191 $20 $-1 $192 reversed single #
loop $-1 $-1 $193 $70 #
plane-surface $-1 52.94717246009705036 0 12.87324055475833084 0 1 0 0 0 1 forward_v I I I I #
coedge $-1 $194 $195 $196 $197 forward $71 $-1 #
coedge $-1 $198 $73 $199 $200 forward $41 $-1 #
coedge $-1 $73 $198 $201 $202 forward $41 $-1 #
coedge $-1 $203 $204 $73 $122 reversed $205 $-1 #
edge $-1 $206 -36.04938623358199123 $207 36.04938623358199123 $121 $208 forward 7 unknown #
face $-1 $209 $210 $21 $-1 $211 reversed single #
loop $-1 $-1 $212 $74 #
plane-surface $-1 52.94717246009705036 36.04938623358199123 25.74648110951666169 0 0 1 1 0 0 forward_v I I I I #
coedge $-1 $213 $214 $215 $216 reversed $75 $-1 #
coedge $-1 $217 $77 $218 $219 reversed $44 $-1 #
coedge $-1 $77 $217 $220 $221 reversed $44 $-1 #
coedge $-1 $214 $213 $77 $130 reversed $75 $-1 #
edge $-1 $222 -12.87324055475833084 $223 12.87324055475833084 $129 $224 forward 7 unknown #
face $-1 $225 $226 $22 $-1 $227 reversed single #
loop $-1 $-1 $228 $78 #
plane-surface $-1 52.94717246009705036 36.04938623358199123 0 0 0 1 1 0 0 forward_v I I I I #
coedge $-1 $229 $230 $231 $232 forward $79 $-1 #
coedge $-1 $231 $81 $233 $234 reversed $47 $-1 #
coedge $-1 $81 $231 $235 $236 reversed $47 $-1 #
coedge $-1 $237 $238 $81 $138 forward $226 $-1 #
edge $-1 $239 -12.87324055475833084 $240 12.87324055475833084 $137 $241 forward 7 unknown #
face $-1 $242 $243 $23 $-1 $244 forward single #
loop $-1 $-1 $245 $82 #
plane-surface $-1 -66.64147138266761772 49.86177980417113531 96.69808536814095135 0 -1 0 0.6293203988644634483 0 -0.7771459551288114609 forward_v I I I I #
coedge $-1 $246 $247 $248 $249 reversed $83 $-1 #
coedge $-1 $144 $85 $250 $251 reversed $50 $-1 #
coedge $-1 $85 $143 $246 $252 reversed $50 $-1 #
coedge $-1 $248 $253 $85 $146 forward $243 $-1 #
edge $-1 $254 6.847149461285283678 $255 20.85552313732691232 $145 $256 forward 7 unknown #
loop $-1 $-1 $152 $86 #
plane-surface $-1 0 44.05741176793636527 14.40272354239690422 -0.6293203988644634483 0 0.7771459551288114609 0.7771459551288114609 0 0.6293203988644634483 forward_v I I I I #
loop $-1 $-1 $257 $52 #
coedge $-1 $150 $150 $151 $258 reversed $87 $-1 #
coedge $-1 $151 $151 $150 $258 forward $89 $-1 #
coedge $-1 $152 $152 $90 $153 forward $147 $-1 #
edge $-1 $259 0 $259 6.283185307179586232 $152 $260 forward 7 unknown #
loop $-1 $-1 $159 $91 #
plane-surface $-1 0 44.05741176793636527 14.40272354239690422 -0.6293203988644634483 0 0.7771459551288114609 0.7771459551288114609 0 0.6293203988644634483 forward_v I I I I #
loop $-1 $-1 $261 $55 #
coedge $-1 $157 $157 $158 $262 reversed $92 $-1 #
coedge $-1 $158 $158 $157 $262 forward $94 $-1 #
coedge $-1 $159 $159 $95 $160 forward $154 $-1 #
edge $-1 $263 0 $263 6.283185307179586232 $159 $264 forward 7 unknown #
loop $-1 $-1 $166 $96 #
plane-surface $-1 0 44.05741176793636527 14.40272354239690422 -0.6293203988644634483 0 0.7771459551288114609 0.7771459551288114609 0 0.6293203988644634483 forward_v I I I I #
loop $-1 $-1 $265 $58 #
coedge $-1 $164 $164 $165 $266 reversed $97 $-1 #
coedge $-1 $165 $165 $164 $266 forward $99 $-1 #
coedge $-1 $166 $166 $100 $167 forward $161 $-1 #
edge $-1 $267 0 $267 6.283185307179586232 $166 $268 forward 7 unknown #
face $-1 $269 $270 $27 $-1 $271 reversed single #
loop $-1 $-1 $272 $101 #
plane-surface $-1 147.1730309791426237 18.36215579244053941 161.5863042450995124 0 1 0 0.8746197147644345637 0 0.484809606490402778 forward_v I I I I #
coedge $-1 $273 $274 $275 $276 reversed $102 $-1 #
coedge $-1 $173 $104 $277 $278 reversed $62 $-1 #
coedge $-1 $104 $172 $273 $279 reversed $62 $-1 #
coedge $-1 $275 $280 $104 $175 forward $281 $-1 #
edge $-1 $282 -5.83424320057426371 $283 -1.335441004653233676 $174 $284 forward 7 unknown #
loop $-1 $-1 $181 $105 #
plane-surface $-1 54.55574922987581488 23.81498758119531445 110.2477085547812266 0.8746197147644345637 0 0.484809606490402778 0.484809606490402778 0 -0.8746197147644345637 forward_v I I I I #
loop $-1 $-1 $285 $64 #
coedge $-1 $179 $179 $180 $286 reversed $106 $-1 #
coedge $-1 $180 $180 $179 $286 forward $108 $-1 #
coedge $-1 $181 $181 $109 $182 forward $176 $-1 #
edge $-1 $287 0 $287 6.283185307179586232 $181 $288 forward 7 unknown #
loop $-1 $-1 $188 $110 #
plane-surface $-1 54.55574922987581488 23.81498758119531445 110.2477085547812266 0.8746197147644345637 0 0.484809606490402778 0.484809606490402778 0 -0.8746197147644345637 forward_v I I I I #
loop $-1 $-1 $289 $67 #
coedge $-1 $186 $186 $187 $290 reversed $111 $-1 #
coedge $-1 $187 $187 $186 $290 forward $113 $-1 #
coedge $-1 $188 $188 $114 $189 forward $183 $-1 #
edge $-1 $291 0 $291 6.283185307179586232 $188 $292 forward 7 unknown #
face $-1 $293 $294 $20 $-1 $295 reversed single #
loop $-1 $-1 $296 $115 #
plane-surface $-1 0 36.04938623358199123 12.87324055475833084 1 0 0 0 0 -1 forward_v I I I I #
coedge $-1 $297 $201 $298 $299 forward $116 $-1 #
coedge $-1 $300 $118 $297 $301 forward $71 $-1 #
coedge $-1 $118 $300 $302 $303 forward $71 $-1 #
coedge $-1 $204 $203 $118 $197 reversed $205 $-1 #
edge $-1 $304 -36.04938623358199123 $305 36.04938623358199123 $196 $306 forward 7 unknown #
coedge $-1 $120 $119 $307 $308 forward $41 $-1 #
coedge $-1 $309 $310 $119 $200 reversed $294 $-1 #
edge $-1 $207 -52.94717246009705036 $311 52.94717246009705036 $199 $312 forward 7 unknown #
coedge $-1 $193 $313 $120 $202 reversed $116 $-1 #
edge $-1 $314 -52.94717246009705036 $206 52.94717246009705036 $201 $315 forward 7 unknown #
coedge $-1 $196 $121 $313 $316 forward $205 $-1 #
coedge $-1 $121 $196 $309 $317 reversed $205 $-1 #
loop $-1 $-1 $203 $293 #
vertex $-1 $122 $318 #
vertex $-1 $122 $319 #
straight-curve $-1 105.8943449201941007 36.04938623358199123 25.74648110951666169 0 1 0 I I #
face $-1 $320 $321 $21 $-1 $322 reversed single #
loop $-1 $-1 $323 $123 #
plane-surface $-1 0 36.04938623358199123 12.87324055475833084 1 0 0 0 0 -1 forward_v I I I I #
coedge $-1 $220 $324 $214 $325 forward $124 $-1 #
coedge $-1 $129 $126 $326 $327 reversed $75 $-1 #
coedge $-1 $126 $129 $212 $325 reversed $75 $-1 #
coedge $-1 $328 $329 $126 $216 forward $330 $-1 #
edge $-1 $331 -12.87324055475833084 $332 12.87324055475833084 $215 $333 forward 7 unknown #
coedge $-1 $128 $127 $323 $334 reversed $44 $-1 #
coedge $-1 $326 $335 $127 $219 forward $321 $-1 #
edge $-1 $336 -27.27738293139463011 $223 -24.06219612601021041 $218 $337 forward 7 unknown #
coedge $-1 $338 $212 $128 $221 forward $124 $-1 #
edge $-1 $222 24.06219612601021041 $339 27.27738293139463011 $220 $340 forward 7 unknown #
vertex $-1 $221 $341 #
vertex $-1 $219 $342 #
straight-curve $-1 3.215186805384419699 12.52968174863249828 12.87324055475833084 0 0 -1 I I #
face $-1 $343 $344 $22 $-1 $345 forward single #
loop $-1 $-1 $137 $131 #
plane-surface $-1 0 36.04938623358199123 12.87324055475833084 1 0 0 0 0 -1 forward_v I I I I #
coedge $-1 $233 $346 $229 $347 forward $132 $-1 #
coedge $-1 $348 $134 $228 $347 reversed $79 $-1 #
coedge $-1 $134 $348 $349 $350 reversed $79 $-1 #
coedge $-1 $136 $135 $134 $232 reversed $47 $-1 #
edge $-1 $351 -12.87324055475833084 $352 12.87324055475833084 $134 $353 forward 7 unknown #
coedge $-1 $354 $228 $135 $234 forward $132 $-1 #
edge $-1 $352 24.06219612601021041 $239 27.27738293139463011 $233 $355 forward 7 unknown #
coedge $-1 $349 $356 $136 $236 forward $344 $-1 #
edge $-1 $240 -27.27738293139463011 $351 -24.06219612601021041 $235 $357 forward 7 unknown #
coedge $-1 $358 $137 $356 $359 reversed $226 $-1 #
coedge $-1 $137 $358 $354 $360 reversed $226 $-1 #
vertex $-1 $360 $361 #
vertex $-1 $138 $362 #
straight-curve $-1 0 59.56909071853148419 12.87324055475833084 0 0 1 I I #
face $-1 $-1 $363 $23 $-1 $364 reversed single #
loop $-1 $-1 $145 $139 #
plane-surface $-1 52.94717246009705036 36.04938623358199123 25.74648110951666169 0 0 1 1 0 0 forward_v I I I I #
coedge $-1 $365 $366 $367 $368 reversed $140 $-1 #
coedge $-1 $369 $142 $144 $252 forward $83 $-1 #
coedge $-1 $142 $369 $365 $370 forward $83 $-1 #
coedge $-1 $367 $145 $142 $249 forward $243 $-1 #
edge $-1 $255 -1.80035526905758303 $371 9.808380803411957061 $248 $372 forward 7 unknown #
coedge $-1 $373 $374 $143 $251 forward $363 $-1 #
edge $-1 $375 -40.38293941905273954 $254 -29.03918185193298385 $250 $376 forward 7 unknown #
edge $-1 $255 -18.02540897703024925 $375 0 $144 $377 forward 7 unknown #
coedge $-1 $145 $367 $373 $378 forward $243 $-1 #
vertex $-1 $146 $379 #
vertex $-1 $146 $380 #
straight-curve $-1 -6.847149461285283678 38.25304373170159522 25.74648110951666524 1 0 0 I I #
coedge $-1 $257 $257 $-1 $381 reversed $149 $-1 #
edge $-1 $382 0 $382 6.283185307179586232 $150 $383 forward 7 unknown #
vertex $-1 $153 $384 #
ellipse-curve $-1 7.004186838020814321 40.57479094619550608 20.07460232595678562 -0.6293203988644634483 0 0.7771459551288114609 0.3885729775644057304 0 0.3146601994322317242 1 I I #
coedge $-1 $261 $261 $-1 $385 reversed $156 $-1 #
edge $-1 $386 0 $386 6.283185307179586232 $157 $387 forward 7 unknown #
vertex $-1 $160 $388 #
ellipse-curve $-1 7.004186838020814321 44.05741176793636527 20.07460232595678562 -0.6293203988644634483 0 0.7771459551288114609 0.3885729775644057304 0 0.3146601994322317242 1 I I #
coedge $-1 $265 $265 $-1 $389 reversed $163 $-1 #
edge $-1 $390 0 $390 6.283185307179586232 $164 $391 forward 7 unknown #
vertex $-1 $167 $392 #
ellipse-curve $-1 7.004186838020814321 47.54003258967722445 20.07460232595678562 -0.6293203988644634483 0 0.7771459551288114609 0.3885729775644057304 0 0.3146601994322317242 1 I I #
face $-1 $-1 $281 $27 $-1 $393 forward single #
loop $-1 $-1 $394 $168 #
plane-surface $-1 105.8943449201941007 36.04938623358199123 12.87324055475833084 -1 0 0 0 0 1 forward_v I I I I #
coedge $-1 $395 $396 $397 $398 reversed $169 $-1 #
coedge $-1 $399 $171 $173 $279 forward $102 $-1 #
coedge $-1 $171 $399 $395 $400 forward $102 $-1 #
coedge $-1 $397 $174 $171 $276 forward $281 $-1 #
edge $-1 $283 0.6643675374385651367 $401 11.5700311149481152 $275 $402 forward 7 unknown #
coedge $-1 $403 $404 $172 $278 forward $270 $-1 #
edge $-1 $405 -69.59934559441450119 $282 -61.48329129041225372 $277 $406 forward 7 unknown #
edge $-1 $283 96.61482129753235881 $405 105.8943449201940865 $173 $407 forward 7 unknown #
coedge $-1 $174 $397 $403 $408 forward $281 $-1 #
loop $-1 $-1 $397 $269 #
vertex $-1 $278 $409 #
vertex $-1 $175 $410 #
straight-curve $-1 100.060101719619837 29.26781936995008948 25.74648110951665814 -1 0 0 I I #
coedge $-1 $285 $285 $-1 $411 reversed $178 $-1 #
edge $-1 $412 0 $412 6.283185307179586232 $179 $413 forward 7 unknown #
vertex $-1 $182 $414 #
ellipse-curve $-1 103.6449438222335857 21.47805967172898178 21.68845395751552729 0.8746197147644345637 0 0.484809606490402778 0.484809606490402778 0 -0.8746197147644345637 1 I I #
coedge $-1 $289 $289 $-1 $415 reversed $185 $-1 #
edge $-1 $416 0 $416 6.283185307179586232 $186 $417 forward 7 unknown #
vertex $-1 $189 $418 #
ellipse-curve $-1 103.6449438222335857 26.15191549066164711 21.68845395751552729 0.8746197147644345637 0 0.484809606490402778 0.484809606490402778 0 -0.8746197147644345637 1 I I #
face $-1 $-1 $205 $20 $-1 $419 reversed single #
loop $-1 $-1 $309 $190 #
plane-surface $-1 52.94717246009705036 72.09877246716398247 12.87324055475833084 0 -1 0 0 0 -1 forward_v I I I I #
coedge $-1 $420 $307 $310 $421 forward $191 $-1 #
coedge $-1 $313 $193 $194 $301 reversed $116 $-1 #
coedge $-1 $307 $420 $193 $299 reversed $191 $-1 #
edge $-1 $314 -12.87324055475833084 $422 12.87324055475833084 $298 $423 forward 7 unknown #
coedge $-1 $195 $194 $420 $424 forward $71 $-1 #
edge $-1 $305 -52.94717246009705036 $422 52.94717246009705036 $297 $425 forward 7 unknown #
coedge $-1 $310 $309 $195 $303 reversed $294 $-1 #
edge $-1 $426 -52.94717246009705036 $304 52.94717246009705036 $302 $427 forward 7 unknown #
vertex $-1 $197 $428 #
vertex $-1 $316 $429 #
straight-curve $-1 105.8943449201941007 36.04938623358199123 0 0 -1 0 I I #
coedge $-1 $296 $298 $198 $308 reversed $191 $-1 #
edge $-1 $311 -36.04938623358199123 $314 36.04938623358199123 $307 $430 forward 7 unknown #
coedge $-1 $302 $199 $204 $317 forward $294 $-1 #
coedge $-1 $199 $302 $296 $421 reversed $294 $-1 #
vertex $-1 $200 $431 #
straight-curve $-1 52.94717246009705036 72.09877246716398247 25.74648110951666169 -1 0 0 I I #
coedge $-1 $201 $297 $203 $316 reversed $116 $-1 #
vertex $-1 $308 $432 #
straight-curve $-1 52.94717246009705036 0 25.74648110951666169 1 0 0 I I #
edge $-1 $206 -12.87324055475833084 $305 12.87324055475833084 $203 $433 forward 7 unknown #
edge $-1 $207 -12.87324055475833084 $304 12.87324055475833084 $204 $434 forward 7 unknown #
point $-1 105.8943449201941007 0 25.74648110951666169 #
point $-1 105.8943449201941007 72.09877246716398247 25.74648110951666169 #
face $-1 $-1 $330 $21 $-1 $435 reversed single #
loop $-1 $-1 $326 $209 #
plane-surface $-1 52.94717246009705036 36.04938623358199123 0 0 0 1 1 0 0 forward_v I I I I #
coedge $-1 $436 $437 $217 $334 forward $210 $-1 #
coedge $-1 $212 $338 $328 $438 forward $124 $-1 #
edge $-1 $332 -21.15711355394912019 $222 -8.627431805316621904 $212 $439 forward 7 unknown #
coedge $-1 $440 $218 $213 $327 forward $321 $-1 #
edge $-1 $223 8.627431805316621904 $331 21.15711355394912019 $326 $441 forward 7 unknown #
coedge $-1 $442 $215 $324 $438 reversed $330 $-1 #
coedge $-1 $215 $442 $440 $443 reversed $330 $-1 #
loop $-1 $-1 $215 $320 #
vertex $-1 $443 $444 #
vertex $-1 $216 $445 #
straight-curve $-1 3.215186805384419699 0 12.87324055475833084 0 0 1 I I #
edge $-1 $339 -12.87324055475833084 $336 12.87324055475833084 $323 $446 forward 7 unknown #
coedge $-1 $218 $440 $436 $447 forward $321 $-1 #
vertex $-1 $219 $448 #
straight-curve $-1 27.27738293139463011 12.52968174863249828 0 1 0 0 I I #
coedge $-1 $324 $220 $437 $449 forward $124 $-1 #
vertex $-1 $449 $450 #
straight-curve $-1 27.27738293139463011 12.52968174863249828 25.74648110951666169 -1 0 0 I I #
point $-1 3.215186805384419699 12.52968174863249828 25.74648110951666169 #
point $-1 3.215186805384419699 12.52968174863249828 0 #
face $-1 $-1 $451 $22 $-1 $452 reversed single #
loop $-1 $-1 $349 $225 #
plane-surface $-1 52.94717246009705036 36.04938623358199123 25.74648110951666169 0 0 1 1 0 0 forward_v I I I I #
coedge $-1 $228 $354 $453 $454 forward $132 $-1 #
edge $-1 $455 -21.15711355394911664 $352 -8.627431805316618352 $228 $456 forward 7 unknown #
coedge $-1 $230 $229 $457 $458 reversed $79 $-1 #
coedge $-1 $459 $235 $230 $350 forward $344 $-1 #
edge $-1 $351 8.627431805316618352 $460 21.15711355394911664 $349 $461 forward 7 unknown #
vertex $-1 $236 $462 #
vertex $-1 $234 $463 #
straight-curve $-1 3.215186805384419699 59.56909071853148419 12.87324055475833084 0 0 -1 I I #
coedge $-1 $346 $233 $238 $360 forward $132 $-1 #
straight-curve $-1 27.27738293139463011 59.56909071853148419 0 -1 0 0 I I #
coedge $-1 $235 $459 $237 $359 forward $344 $-1 #
straight-curve $-1 27.27738293139463011 59.56909071853148419 25.74648110951666169 1 0 0 I I #
coedge $-1 $238 $237 $464 $465 forward $226 $-1 #
edge $-1 $466 -36.04938623358199123 $240 -23.51970448494949295 $237 $467 forward 7 unknown #
edge $-1 $239 23.51970448494949295 $468 36.04938623358199123 $238 $469 forward 7 unknown #
point $-1 0 59.56909071853148419 0 #
point $-1 0 59.56909071853148419 25.74648110951666169 #
loop $-1 $-1 $250 $242 #
plane-surface $-1 0 36.04938623358199123 12.87324055475833084 1 0 0 0 0 -1 forward_v I I I I #
coedge $-1 $366 $245 $247 $370 reversed $140 $-1 #
coedge $-1 $245 $365 $470 $471 reversed $140 $-1 #
coedge $-1 $253 $248 $245 $368 forward $243 $-1 #
edge $-1 $371 -20.85552313732691232 $472 -6.847149461285283678 $367 $473 forward 7 unknown #
coedge $-1 $247 $246 $374 $474 reversed $83 $-1 #
edge $-1 $475 0 $371 18.02540897703024925 $365 $476 forward 7 unknown #
vertex $-1 $249 $477 #
straight-curve $-1 14.00837367604162864 40.05339900075917825 25.74648110951665814 0 1 0 I I #
coedge $-1 $470 $250 $253 $378 reversed $363 $-1 #
coedge $-1 $250 $470 $369 $474 forward $363 $-1 #
vertex $-1 $251 $478 #
straight-curve $-1 0 38.25304373170159522 54.78566296144964554 0 0 1 I I #
straight-curve $-1 0 38.25304373170159522 14.40272354239690422 -0.7771459551288114609 0 -0.6293203988644634483 I I #
edge $-1 $472 -13.81239357058914408 $254 -2.203657498119603986 $373 $479 forward 7 unknown #
point $-1 0 38.25304373170159522 25.74648110951666169 #
point $-1 14.00837367604162864 38.25304373170159522 25.74648110951665814 #
edge $-1 $480 1 $480 0 $257 $-1 forward 7 unknown #
vertex $-1 $258 $481 #
ellipse-curve $-1 7.633507236885279212 40.57479094619550608 19.29745637082797671 -0.6293203988644634483 0 0.7771459551288114609 0.3885729775644057304 0 0.3146601994322317242 1 I I #
point $-1 7.392759815585215222 40.57479094619550608 20.38926252538901807 #
edge $-1 $482 1 $482 0 $261 $-1 forward 7 unknown #
vertex $-1 $262 $483 #
ellipse-curve $-1 7.633507236885279212 44.05741176793636527 19.29745637082797671 -0.6293203988644634483 0 0.7771459551288114609 0.3885729775644057304 0 0.3146601994322317242 1 I I #
point $-1 7.392759815585215222 44.05741176793636527 20.38926252538901807 #
edge $-1 $484 1 $484 0 $265 $-1 forward 7 unknown #
vertex $-1 $266 $485 #
ellipse-curve $-1 7.633507236885279212 47.54003258967722445 19.29745637082797671 -0.6293203988644634483 0 0.7771459551288114609 0.3885729775644057304 0 0.3146601994322317242 1 I I #
point $-1 7.392759815585215222 47.54003258967722445 20.38926252538901807 #
plane-surface $-1 52.94717246009705036 36.04938623358199123 25.74648110951666169 0 0 1 1 0 0 forward_v I I I I #
coedge $-1 $404 $403 $396 $486 forward $270 $-1 #
coedge $-1 $396 $272 $274 $400 reversed $169 $-1 #
coedge $-1 $272 $395 $394 $486 reversed $169 $-1 #
coedge $-1 $280 $275 $272 $398 forward $281 $-1 #
edge $-1 $401 1.335441004653233676 $487 5.83424320057426371 $397 $488 forward 7 unknown #
coedge $-1 $274 $273 $404 $489 reversed $102 $-1 #
edge $-1 $490 -105.8943449201940865 $401 -96.61482129753235881 $395 $491 forward 7 unknown #
vertex $-1 $276 $492 #
straight-curve $-1 101.3955427242730565 29.93218690738865462 25.74648110951667235 0 -1 0 I I #
coedge $-1 $394 $277 $280 $408 reversed $270 $-1 #
coedge $-1 $277 $394 $399 $489 forward $270 $-1 #
vertex $-1 $278 $493 #
straight-curve $-1 105.8943449201941007 29.26781936995008948 87.22977239992891896 0 0 1 I I #
straight-curve $-1 54.55574922987581488 29.26781936995008948 110.2477085547812266 0.484809606490402778 0 -0.8746197147644345637 I I #
edge $-1 $487 -17.68723044114145182 $282 -6.781566863631901754 $403 $494 forward 7 unknown #
point $-1 105.8943449201941007 29.26781936995008948 25.74648110951666169 #
point $-1 101.3955427242730707 29.26781936995008948 25.74648110951665814 #
edge $-1 $495 1 $495 0 $285 $-1 forward 7 unknown #
vertex $-1 $286 $496 #
ellipse-curve $-1 100.2801923343410238 21.47805967172898178 19.82334182106826148 0.8746197147644345637 0 0.484809606490402778 0.484809606490402778 0 -0.8746197147644345637 1 I I #
point $-1 104.1297534287239728 21.47805967172898178 20.8138342427510814 #
edge $-1 $497 1 $497 0 $289 $-1 forward 7 unknown #
vertex $-1 $290 $498 #
ellipse-curve $-1 100.2801923343410238 26.15191549066164711 19.82334182106826148 0.8746197147644345637 0 0.484809606490402778 0.484809606490402778 0 -0.8746197147644345637 1 I I #
point $-1 104.1297534287239728 26.15191549066164711 20.8138342427510814 #
plane-surface $-1 105.8943449201941007 36.04938623358199123 12.87324055475833084 -1 0 0 0 0 1 forward_v I I I I #
coedge $-1 $298 $296 $300 $424 reversed $191 $-1 #
edge $-1 $311 -12.87324055475833084 $426 12.87324055475833084 $310 $499 forward 7 unknown #
vertex $-1 $424 $500 #
straight-curve $-1 0 0 12.87324055475833084 0 0 -1 I I #
edge $-1 $422 -36.04938623358199123 $426 36.04938623358199123 $420 $501 forward 7 unknown #
straight-curve $-1 52.94717246009705036 0 0 -1 0 0 I I #
vertex $-1 $303 $502 #
straight-curve $-1 52.94717246009705036 72.09877246716398247 0 1 0 0 I I #
point $-1 105.8943449201941007 72.09877246716398247 0 #
point $-1 105.8943449201941007 0 0 #
straight-curve $-1 0 36.04938623358199123 25.74648110951666169 0 -1 0 I I #
point $-1 0 72.09877246716398247 25.74648110951666169 #
point $-1 0 0 25.74648110951666169 #
straight-curve $-1 105.8943449201941007 0 12.87324055475833084 0 0 -1 I I #
straight-curve $-1 105.8943449201941007 72.09877246716398247 12.87324055475833084 0 0 -1 I I #
plane-surface $-1 52.94717246009705036 0 12.87324055475833084 0 1 0 0 0 1 forward_v I I I I #
coedge $-1 $503 $323 $335 $447 reversed $210 $-1 #
coedge $-1 $323 $503 $338 $449 reversed $210 $-1 #
edge $-1 $504 -52.94717246009705036 $332 -49.73198565471263066 $328 $505 forward 7 unknown #
straight-curve $-1 3.215186805384419699 21.15711355394912019 25.74648110951666169 0 1 0 I I #
coedge $-1 $335 $326 $329 $443 forward $321 $-1 #
straight-curve $-1 3.215186805384419699 21.15711355394912019 0 0 -1 0 I I #
coedge $-1 $329 $328 $503 $506 forward $330 $-1 #
edge $-1 $331 49.73198565471263066 $507 52.94717246009705036 $329 $508 forward 7 unknown #
point $-1 3.215186805384419699 0 0 #
point $-1 3.215186805384419699 0 25.74648110951666169 #
straight-curve $-1 0 12.52968174863249828 12.87324055475833084 0 0 -1 I I #
edge $-1 $507 -36.04938623358199123 $336 -23.51970448494949295 $436 $509 forward 7 unknown #
point $-1 0 12.52968174863249828 0 #
edge $-1 $339 23.51970448494949295 $504 36.04938623358199123 $437 $510 forward 7 unknown #
point $-1 0 12.52968174863249828 25.74648110951666169 #
loop $-1 $-1 $457 $343 #
plane-surface $-1 52.94717246009705036 72.09877246716398247 12.87324055475833084 0 -1 0 0 0 -1 forward_v I I I I #
coedge $-1 $464 $457 $346 $454 reversed $451 $-1 #
edge $-1 $468 -52.94717246009705036 $455 -49.73198565471263066 $453 $511 forward 7 unknown #
vertex $-1 $347 $512 #
straight-curve $-1 3.215186805384419699 50.94165891321486583 0 0 -1 0 I I #
coedge $-1 $453 $513 $348 $458 forward $451 $-1 #
edge $-1 $460 -12.87324055475833084 $455 12.87324055475833084 $457 $514 forward 7 unknown #
coedge $-1 $356 $349 $513 $515 forward $344 $-1 #
vertex $-1 $515 $516 #
straight-curve $-1 3.215186805384419699 50.94165891321486583 25.74648110951666169 0 1 0 I I #
point $-1 3.215186805384419699 59.56909071853148419 25.74648110951666169 #
point $-1 3.215186805384419699 59.56909071853148419 0 #
coedge $-1 $513 $453 $358 $465 reversed $451 $-1 #
edge $-1 $466 -12.87324055475833084 $468 12.87324055475833084 $464 $517 forward 7 unknown #
vertex $-1 $515 $518 #
straight-curve $-1 0 36.04938623358199123 25.74648110951666169 0 -1 0 I I #
vertex $-1 $454 $519 #
straight-curve $-1 0 36.04938623358199123 0 0 1 0 I I #
coedge $-1 $374 $373 $366 $471 forward $363 $-1 #
edge $-1 $472 29.03918185193298385 $475 40.38293941905273954 $470 $520 forward 7 unknown #
vertex $-1 $378 $521 #
straight-curve $-1 -6.847149461285283678 49.86177980417113531 25.74648110951666524 -1 0 0 I I #
edge $-1 $475 -9.808380803411957061 $375 1.80035526905758303 $374 $522 forward 7 unknown #
vertex $-1 $474 $523 #
straight-curve $-1 0 49.86177980417113531 14.40272354239690422 0.7771459551288114609 0 0.6293203988644634483 I I #
point $-1 14.00837367604162864 49.86177980417113531 25.74648110951665814 #
point $-1 0 38.25304373170159522 14.40272354239690422 #
straight-curve $-1 0 36.04938623358199123 25.74648110951666169 0 -1 0 I I #
vertex $-1 $381 $524 #
point $-1 8.022080214449680113 40.57479094619550608 19.61211657026020561 #
vertex $-1 $385 $525 #
point $-1 8.022080214449680113 44.05741176793636527 19.61211657026020561 #
vertex $-1 $389 $526 #
point $-1 8.022080214449680113 47.54003258967722445 19.61211657026020561 #
edge $-1 $487 61.48329129041225372 $490 69.59934559441450119 $394 $527 forward 7 unknown #
vertex $-1 $408 $528 #
straight-curve $-1 100.060101719619837 18.36215579244053941 25.74648110951665814 1 0 0 I I #
edge $-1 $490 -11.5700311149481152 $405 -0.6643675374385651367 $404 $529 forward 7 unknown #
vertex $-1 $489 $530 #
straight-curve $-1 54.55574922987581488 18.36215579244053941 110.2477085547812266 -0.484809606490402778 0 0.8746197147644345637 I I #
point $-1 101.3955427242730707 18.36215579244053941 25.74648110951665814 #
point $-1 105.8943449201941007 29.26781936995008948 17.63042680551442487 #
straight-curve $-1 105.8943449201941007 36.04938623358199123 25.74648110951666169 0 1 0 I I #
vertex $-1 $411 $531 #
point $-1 100.765001940831425 21.47805967172898178 18.94872210630382625 #
vertex $-1 $415 $532 #
point $-1 100.765001940831425 26.15191549066164711 18.94872210630382625 #
straight-curve $-1 0 72.09877246716398247 12.87324055475833084 0 0 -1 I I #
point $-1 0 0 0 #
straight-curve $-1 0 36.04938623358199123 0 0 1 0 I I #
point $-1 0 72.09877246716398247 0 #
coedge $-1 $437 $436 $442 $506 reversed $210 $-1 #
vertex $-1 $449 $533 #
straight-curve $-1 52.94717246009705036 0 25.74648110951666169 1 0 0 I I #
edge $-1 $504 -12.87324055475833084 $507 12.87324055475833084 $503 $534 forward 7 unknown #
vertex $-1 $447 $535 #
straight-curve $-1 52.94717246009705036 0 0 -1 0 0 I I #
straight-curve $-1 0 36.04938623358199123 0 0 1 0 I I #
straight-curve $-1 0 36.04938623358199123 25.74648110951666169 0 -1 0 I I #
straight-curve $-1 52.94717246009705036 72.09877246716398247 0 1 0 0 I I #
point $-1 3.215186805384419699 72.09877246716398247 0 #
coedge $-1 $457 $464 $459 $515 reversed $451 $-1 #
straight-curve $-1 3.215186805384419699 72.09877246716398247 12.87324055475833084 0 0 -1 I I #
edge $-1 $460 49.73198565471263066 $466 52.94717246009705036 $513 $536 forward 7 unknown #
point $-1 3.215186805384419699 72.09877246716398247 25.74648110951666169 #
straight-curve $-1 0 72.09877246716398247 12.87324055475833084 0 0 -1 I I #
point $-1 0 72.09877246716398247 25.74648110951666169 #
point $-1 0 72.09877246716398247 0 #
straight-curve $-1 0 49.86177980417113531 54.78566296144964554 0 0 -1 I I #
point $-1 0 49.86177980417113531 25.74648110951666169 #
straight-curve $-1 0 40.05339900075917825 14.402723542396906 0 -1 0 I I #
point $-1 0 49.86177980417113531 14.40272354239690422 #
point $-1 7.948167436317504553 40.57479094619550608 18.90888339326356871 #
point $-1 7.948167436317504553 44.05741176793636527 18.90888339326356871 #
point $-1 7.948167436317504553 47.54003258967722445 18.90888339326356871 #
straight-curve $-1 105.8943449201941007 18.36215579244053941 87.22977239992891896 0 0 -1 I I #
point $-1 105.8943449201941007 18.36215579244053941 25.74648110951666169 #
straight-curve $-1 105.8943449201941007 29.93218690738865462 17.63042680551441777 0 1 0 I I #
point $-1 105.8943449201941007 18.36215579244053941 17.63042680551442487 #
point $-1 99.40557261957658852 21.47805967172898178 19.3385322145778602 #
point $-1 99.40557261957658852 26.15191549066164711 19.3385322145778602 #
point $-1 0 0 25.74648110951666169 #
straight-curve $-1 0 0 12.87324055475833084 0 0 -1 I I #
point $-1 0 0 0 #
straight-curve $-1 52.94717246009705036 72.09877246716398247 25.74648110951666169 -1 0 0 I I #
End-of-ACIS-data 