500 0 18 0           
7 Unknown 11 ACIS 5.0 NT 24 Thu Mar 25 15:14:32 1999 
-1 9.9999999999999995e-007 1e-010 
body $-1 $18 $-1 $19 #
body $-1 $20 $-1 $21 #
body $-1 $22 $-1 $23 #
body $-1 $24 $-1 $25 #
body $-1 $26 $-1 $27 #
body $-1 $28 $-1 $29 #
body $-1 $30 $-1 $31 #
body $-1 $32 $-1 $33 #
body $-1 $34 $-1 $35 #
body $-1 $36 $-1 $37 #
body $-1 $38 $-1 $39 #
body $-1 $40 $-1 $41 #
body $-1 $42 $-1 $43 #
body $-1 $44 $-1 $45 #
body $-1 $46 $-1 $47 #
body $-1 $48 $-1 $49 #
body $-1 $50 $-1 $51 #
body $-1 $52 $-1 $53 #
lump $-1 $-1 $54 $0 #
transform $-1 1 0 0 0 1 0 0 0 1 52.076784569841607 35.496828150593529 17.168951403164666 1 rotate no_reflect no_shear #
lump $-1 $-1 $55 $1 #
transform $-1 1 0 0 0 1 0 0 0 1 52.076784569841607 35.496828150593529 17.168951403164666 1 rotate no_reflect no_shear #
lump $-1 $-1 $56 $2 #
transform $-1 1 0 0 0 1 0 0 0 1 52.076784569841607 35.496828150593529 17.168951403164666 1 rotate no_reflect no_shear #
lump $-1 $-1 $57 $3 #
transform $-1 1 0 0 0 1 0 0 0 1 52.076784569841607 35.496828150593529 17.168951403164666 1 rotate no_reflect no_shear #
lump $-1 $-1 $58 $4 #
transform $-1 1 0 0 0 1 0 0 0 1 52.076784569841607 35.496828150593529 17.168951403164666 1 rotate no_reflect no_shear #
lump $-1 $-1 $59 $5 #
transform $-1 1 0 0 0 1 0 0 0 1 52.076784569841607 35.496828150593529 17.168951403164666 1 rotate no_reflect no_shear #
lump $-1 $-1 $60 $6 #
transform $-1 1 0 0 0 1 0 0 0 1 52.076784569841607 35.496828150593529 17.168951403164666 1 rotate no_reflect no_shear #
lump $-1 $-1 $61 $7 #
transform $-1 1 0 0 0 1 0 0 0 1 52.076784569841607 35.496828150593529 17.168951403164666 1 rotate no_reflect no_shear #
lump $-1 $-1 $62 $8 #
transform $-1 1 0 0 0 1 0 0 0 1 52.076784569841607 35.496828150593529 17.168951403164666 1 rotate no_reflect no_shear #
lump $-1 $-1 $63 $9 #
transform $-1 1 0 0 0 1 0 0 0 1 52.076784569841607 35.496828150593529 17.168951403164666 1 rotate no_reflect no_shear #
lump $-1 $-1 $64 $10 #
transform $-1 1 0 0 0 1 0 0 0 1 52.076784569841607 35.496828150593529 17.168951403164666 1 rotate no_reflect no_shear #
lump $-1 $-1 $65 $11 #
transform $-1 1 0 0 0 1 0 0 0 1 52.076784569841607 35.496828150593529 17.168951403164666 1 rotate no_reflect no_shear #
lump $-1 $-1 $66 $12 #
transform $-1 1 0 0 0 1 0 0 0 1 52.076784569841607 35.496828150593529 17.168951403164666 1 rotate no_reflect no_shear #
lump $-1 $-1 $67 $13 #
transform $-1 1 0 0 0 1 0 0 0 1 52.076784569841607 35.496828150593529 17.168951403164666 1 rotate no_reflect no_shear #
lump $-1 $-1 $68 $14 #
transform $-1 1 0 0 0 1 0 0 0 1 52.076784569841607 35.496828150593529 17.168951403164666 1 rotate no_reflect no_shear #
lump $-1 $-1 $69 $15 #
transform $-1 1 0 0 0 1 0 0 0 1 52.076784569841607 35.496828150593529 17.168951403164666 1 rotate no_reflect no_shear #
lump $-1 $-1 $70 $16 #
transform $-1 1 0 0 0 1 0 0 0 1 52.076784569841607 35.496828150593529 17.168951403164666 1 rotate no_reflect no_shear #
lump $-1 $-1 $71 $17 #
transform $-1 1 0 0 0 1 0 0 0 1 52.076784569841607 35.496828150593529 17.168951403164666 1 rotate no_reflect no_shear #
shell $-1 $-1 $-1 $72 $-1 $18 #
shell $-1 $-1 $-1 $73 $-1 $20 #
shell $-1 $-1 $-1 $74 $-1 $22 #
shell $-1 $-1 $-1 $75 $-1 $24 #
shell $-1 $-1 $-1 $76 $-1 $26 #
shell $-1 $-1 $-1 $77 $-1 $28 #
shell $-1 $-1 $-1 $78 $-1 $30 #
shell $-1 $-1 $-1 $79 $-1 $32 #
shell $-1 $-1 $-1 $80 $-1 $34 #
shell $-1 $-1 $-1 $81 $-1 $36 #
shell $-1 $-1 $-1 $82 $-1 $38 #
shell $-1 $-1 $-1 $83 $-1 $40 #
shell $-1 $-1 $-1 $84 $-1 $42 #
shell $-1 $-1 $-1 $85 $-1 $44 #
shell $-1 $-1 $-1 $86 $-1 $46 #
shell $-1 $-1 $-1 $87 $-1 $48 #
shell $-1 $-1 $-1 $88 $-1 $50 #
shell $-1 $-1 $-1 $89 $-1 $52 #
face $-1 $90 $91 $54 $-1 $92 reversed single #
face $-1 $93 $94 $55 $-1 $95 forward single #
face $-1 $96 $97 $56 $-1 $98 reversed single #
face $-1 $99 $100 $57 $-1 $101 forward single #
face $-1 $102 $103 $58 $-1 $104 forward single #
face $-1 $105 $106 $59 $-1 $107 reversed single #
face $-1 $108 $109 $60 $-1 $110 forward single #
face $-1 $111 $112 $61 $-1 $113 forward single #
face $-1 $114 $115 $62 $-1 $116 reversed single #
face $-1 $117 $118 $63 $-1 $119 forward single #
face $-1 $120 $121 $64 $-1 $122 forward single #
face $-1 $123 $124 $65 $-1 $125 reversed single #
face $-1 $126 $127 $66 $-1 $128 forward single #
face $-1 $129 $130 $67 $-1 $131 forward single #
face $-1 $132 $133 $68 $-1 $134 reversed single #
face $-1 $135 $136 $69 $-1 $137 forward single #
face $-1 $138 $139 $70 $-1 $140 reversed single #
face $-1 $141 $142 $71 $-1 $143 forward single #
face $-1 $144 $145 $54 $-1 $146 forward single #
loop $-1 $-1 $147 $72 #
plane-surface $-1 0 -35.496828150593529 0 0 1 0 0 0 1 forward_v I I I I #
face $-1 $148 $149 $55 $-1 $150 forward single #
loop $-1 $-1 $151 $73 #
plane-surface $-1 0 -35.496828150593529 0 0 1 0 0 0 1 forward_v I I I I #
face $-1 $152 $153 $56 $-1 $154 reversed single #
loop $-1 $-1 $155 $74 #
plane-surface $-1 -142.27642214525764 -15.978798000207282 52.762593804819602 0 1 0 -0.86602541151947299 0 0.49999998660252726 forward_v I I I I #
face $-1 $156 $157 $57 $-1 $158 forward single #
loop $-1 $159 $160 $75 #
cone-surface $-1 -46.744390425505429 -14.069724341250481 8.5959118646041563 0.86602541151947299 0 -0.49999998660252726 0.24999999330126363 0 0.43301270575973649 1 I I 0 1 0.5 forward I I I I #
face $-1 $161 $162 $58 $-1 $163 forward single #
loop $-1 $164 $165 $76 #
cone-surface $-1 -46.744390425505429 -11.206113852815282 8.5959118646041563 0.86602541151947299 0 -0.49999998660252726 0.24999999330126363 0 0.43301270575973649 1 I I 0 1 0.5 forward I I I I #
face $-1 $166 $167 $59 $-1 $168 reversed single #
loop $-1 $-1 $169 $77 #
plane-surface $-1 -142.27642214525764 -2.1739312948873017 52.762593804819602 0 1 0 -0.86602541151947299 0 0.49999998660252726 forward_v I I I I #
face $-1 $170 $171 $60 $-1 $172 forward single #
loop $-1 $173 $174 $78 #
cone-surface $-1 -46.744390425505429 -0.26485763593049683 8.5959118646041563 0.86602541151947299 0 -0.49999998660252726 0.24999999330126363 0 0.43301270575973649 1 I I 0 1 0.5 forward I I I I #
face $-1 $175 $176 $61 $-1 $177 forward single #
loop $-1 $178 $179 $79 #
cone-surface $-1 -46.744390425505429 2.5987528525047026 8.5959118646041563 0.86602541151947299 0 -0.49999998660252726 0.24999999330126363 0 0.43301270575973649 1 I I 0 1 0.5 forward I I I I #
face $-1 $180 $181 $62 $-1 $182 reversed single #
loop $-1 $-1 $183 $80 #
plane-surface $-1 -142.27642214525764 11.630935410432679 52.762593804819602 0 1 0 -0.86602541151947299 0 0.49999998660252726 forward_v I I I I #
face $-1 $184 $185 $63 $-1 $186 forward single #
loop $-1 $187 $188 $81 #
cone-surface $-1 -46.744390425505429 13.540009069389484 8.5959118646041563 0.86602541151947299 0 -0.49999998660252726 0.24999999330126363 0 0.43301270575973649 1 I I 0 1 0.5 forward I I I I #
face $-1 $189 $190 $64 $-1 $191 forward single #
loop $-1 $192 $193 $82 #
cone-surface $-1 -46.744390425505429 16.403619557824683 8.5959118646041563 0.86602541151947299 0 -0.49999998660252726 0.24999999330126363 0 0.43301270575973649 1 I I 0 1 0.5 forward I I I I #
face $-1 $194 $195 $65 $-1 $196 reversed single #
loop $-1 $-1 $197 $83 #
plane-surface $-1 -142.27642214525764 25.435802115752665 52.762593804819602 0 1 0 -0.86602541151947299 0 0.49999998660252726 forward_v I I I I #
face $-1 $198 $199 $66 $-1 $200 forward single #
loop $-1 $201 $202 $84 #
cone-surface $-1 -46.744390425505429 27.344875774709465 8.5959118646041563 0.86602541151947299 0 -0.49999998660252726 0.24999999330126363 0 0.43301270575973649 1 I I 0 1 0.5 forward I I I I #
face $-1 $203 $204 $67 $-1 $205 forward single #
loop $-1 $206 $207 $85 #
cone-surface $-1 -46.744390425505429 30.208486263144664 8.5959118646041563 0.86602541151947299 0 -0.49999998660252726 0.24999999330126363 0 0.43301270575973649 1 I I 0 1 0.5 forward I I I I #
face $-1 $208 $209 $68 $-1 $210 reversed single #
loop $-1 $-1 $211 $86 #
plane-surface $-1 87.710766717214881 -7.0017244585091643 143.37714986908347 0 -1 0 -0.85716730853699208 0 -0.51503806187062418 forward_v I I I I #
face $-1 $212 $213 $69 $-1 $214 forward single #
loop $-1 $215 $216 $87 #
cone-surface $-1 45.449809388614099 -13.179895343604262 7.8478943477707146 -0.85716730853699208 0 -0.51503806187062418 0.77255709280593621 0 -1.2857509628054882 1 I I 0 1 1.5 forward I I I I #
face $-1 $217 $218 $70 $-1 $219 reversed single #
loop $-1 $-1 $220 $88 #
plane-surface $-1 87.710766717214881 23.140486380403352 143.37714986908347 0 1 0 0.85716730853699208 0 0.51503806187062418 forward_v I I I I #
face $-1 $221 $222 $71 $-1 $223 forward single #
loop $-1 $224 $225 $89 #
cone-surface $-1 45.449809388614099 29.318657265498445 7.8478943477707146 -0.85716730853699208 0 -0.51503806187062418 0.77255709280593621 0 -1.2857509628054882 1 I I 0 1 1.5 forward I I I I #
face $-1 $226 $227 $54 $-1 $228 reversed single #
loop $-1 $-1 $229 $90 #
plane-surface $-1 0 0 17.168951403164666 0 0 1 1 0 0 forward_v I I I I #
coedge $-1 $230 $231 $232 $233 reversed $91 $-1 #
face $-1 $234 $235 $55 $-1 $236 reversed single #
loop $-1 $-1 $237 $93 #
plane-surface $-1 0 0 17.168951403164666 0 0 1 1 0 0 forward_v I I I I #
coedge $-1 $238 $239 $240 $241 forward $94 $-1 #
face $-1 $242 $243 $56 $-1 $244 reversed single #
loop $-1 $-1 $245 $96 #
plane-surface $-1 -52.076784569841607 -12.637919097032885 0.68581063037260037 -0.86602541151947299 0 0.49999998660252726 0.49999998660252726 0 0.86602541151947299 forward_v I I I I #
coedge $-1 $246 $247 $248 $249 reversed $97 $-1 #
face $-1 $-1 $250 $57 $-1 $251 forward single #
loop $-1 $252 $253 $99 #
cone-surface $-1 -45.953762639423509 -14.069724341250481 8.1394427157890483 0.86602541151947299 0 -0.49999998660252726 0.12499999665063181 0 0.21650635287986825 1 I I -0.70710678118654746 0.70710678118654746 0.25 forward I I I I #
loop $-1 $-1 $254 $75 #
coedge $-1 $160 $160 $255 $256 reversed $100 $-1 #
face $-1 $-1 $257 $58 $-1 $258 forward single #
loop $-1 $259 $260 $102 #
cone-surface $-1 -45.953762639423509 -11.206113852815282 8.1394427157890483 0.86602541151947299 0 -0.49999998660252726 0.12499999665063181 0 0.21650635287986825 1 I I -0.70710678118654746 0.70710678118654746 0.25 forward I I I I #
loop $-1 $-1 $261 $76 #
coedge $-1 $165 $165 $262 $263 reversed $103 $-1 #
face $-1 $264 $265 $59 $-1 $266 reversed single #
loop $-1 $-1 $267 $105 #
plane-surface $-1 -52.076784569841607 1.1669476082870958 0.68581063037260037 -0.86602541151947299 0 0.49999998660252726 0.49999998660252726 0 0.86602541151947299 forward_v I I I I #
coedge $-1 $268 $269 $270 $271 reversed $106 $-1 #
face $-1 $-1 $272 $60 $-1 $273 forward single #
loop $-1 $274 $275 $108 #
cone-surface $-1 -45.953762639423509 -0.26485763593049683 8.1394427157890483 0.86602541151947299 0 -0.49999998660252726 0.12499999665063181 0 0.21650635287986825 1 I I -0.70710678118654746 0.70710678118654746 0.25 forward I I I I #
loop $-1 $-1 $276 $78 #
coedge $-1 $174 $174 $277 $278 reversed $109 $-1 #
face $-1 $-1 $279 $61 $-1 $280 forward single #
loop $-1 $281 $282 $111 #
cone-surface $-1 -45.953762639423509 2.5987528525047026 8.1394427157890483 0.86602541151947299 0 -0.49999998660252726 0.12499999665063181 0 0.21650635287986825 1 I I -0.70710678118654746 0.70710678118654746 0.25 forward I I I I #
loop $-1 $-1 $283 $79 #
coedge $-1 $179 $179 $284 $285 reversed $112 $-1 #
face $-1 $286 $287 $62 $-1 $288 reversed single #
loop $-1 $-1 $289 $114 #
plane-surface $-1 -52.076784569841607 14.971814313607076 0.68581063037260037 -0.86602541151947299 0 0.49999998660252726 0.49999998660252726 0 0.86602541151947299 forward_v I I I I #
coedge $-1 $290 $291 $292 $293 reversed $115 $-1 #
face $-1 $-1 $294 $63 $-1 $295 forward single #
loop $-1 $296 $297 $117 #
cone-surface $-1 -45.953762639423509 13.540009069389484 8.1394427157890483 0.86602541151947299 0 -0.49999998660252726 0.12499999665063181 0 0.21650635287986825 1 I I -0.70710678118654746 0.70710678118654746 0.25 forward I I I I #
loop $-1 $-1 $298 $81 #
coedge $-1 $188 $188 $299 $300 reversed $118 $-1 #
face $-1 $-1 $301 $64 $-1 $302 forward single #
loop $-1 $303 $304 $120 #
cone-surface $-1 -45.953762639423509 16.403619557824683 8.1394427157890483 0.86602541151947299 0 -0.49999998660252726 0.12499999665063181 0 0.21650635287986825 1 I I -0.70710678118654746 0.70710678118654746 0.25 forward I I I I #
loop $-1 $-1 $305 $82 #
coedge $-1 $193 $193 $306 $307 reversed $121 $-1 #
face $-1 $308 $309 $65 $-1 $310 reversed single #
loop $-1 $-1 $311 $123 #
plane-surface $-1 -52.076784569841607 28.776681018927064 0.68581063037260037 -0.86602541151947299 0 0.49999998660252726 0.49999998660252726 0 0.86602541151947299 forward_v I I I I #
coedge $-1 $312 $313 $314 $315 reversed $124 $-1 #
face $-1 $-1 $316 $66 $-1 $317 forward single #
loop $-1 $318 $319 $126 #
cone-surface $-1 -45.953762639423509 27.344875774709465 8.1394427157890483 0.86602541151947299 0 -0.49999998660252726 0.12499999665063181 0 0.21650635287986825 1 I I -0.70710678118654746 0.70710678118654746 0.25 forward I I I I #
loop $-1 $-1 $320 $84 #
coedge $-1 $202 $202 $321 $322 reversed $127 $-1 #
face $-1 $-1 $323 $67 $-1 $324 forward single #
loop $-1 $325 $326 $129 #
cone-surface $-1 -45.953762639423509 30.208486263144664 8.1394427157890483 0.86602541151947299 0 -0.49999998660252726 0.12499999665063181 0 0.21650635287986825 1 I I -0.70710678118654746 0.70710678118654746 0.25 forward I I I I #
loop $-1 $-1 $327 $85 #
coedge $-1 $207 $207 $328 $329 reversed $130 $-1 #
face $-1 $330 $331 $68 $-1 $332 reversed single #
loop $-1 $-1 $333 $132 #
plane-surface $-1 -1.5662678167688995 -13.179895343604258 89.734097482472976 0.85716730853699208 0 0.51503806187062418 0.51503806187062418 0 -0.85716730853699208 forward_v I I I I #
coedge $-1 $334 $335 $336 $337 reversed $133 $-1 #
face $-1 $-1 $338 $69 $-1 $339 forward single #
loop $-1 $340 $341 $135 #
cone-surface $-1 43.200716373977315 -13.179895343604262 6.4965029733115252 -0.85716730853699208 0 -0.51503806187062418 0.3862785464029681 0 -0.64287548140274409 1 I I -0.70710678118654757 0.70710678118654757 0.75 forward I I I I #
loop $-1 $-1 $342 $87 #
coedge $-1 $216 $216 $343 $344 reversed $136 $-1 #
face $-1 $345 $346 $70 $-1 $347 reversed single #
loop $-1 $-1 $348 $138 #
plane-surface $-1 -1.5662678167688995 29.318657265498445 89.734097482472976 0.85716730853699208 0 0.51503806187062418 0.51503806187062418 0 -0.85716730853699208 forward_v I I I I #
coedge $-1 $349 $350 $351 $352 reversed $139 $-1 #
face $-1 $-1 $353 $71 $-1 $354 forward single #
loop $-1 $355 $356 $141 #
cone-surface $-1 43.200716373977315 29.318657265498445 6.4965029733115252 -0.85716730853699208 0 -0.51503806187062418 0.3862785464029681 0 -0.64287548140274409 1 I I -0.70710678118654757 0.70710678118654757 0.75 forward I I I I #
loop $-1 $-1 $357 $89 #
coedge $-1 $225 $225 $358 $359 reversed $142 $-1 #
face $-1 $360 $361 $54 $-1 $362 reversed single #
loop $-1 $-1 $363 $144 #
plane-surface $-1 0 0 -17.168951403164666 0 0 1 1 0 0 forward_v I I I I #
coedge $-1 $364 $365 $366 $367 forward $145 $-1 #
coedge $-1 $368 $147 $369 $370 reversed $91 $-1 #
coedge $-1 $147 $368 $371 $372 forward $91 $-1 #
coedge $-1 $373 $363 $147 $233 forward $227 $-1 #
edge $-1 $374 -52.076784569841607 $375 52.076784569841607 $147 $376 forward 7 unknown #
face $-1 $377 $378 $55 $-1 $379 reversed single #
loop $-1 $-1 $380 $148 #
plane-surface $-1 -52.076784569841607 0 0 1 0 0 0 0 -1 forward_v I I I I #
coedge $-1 $381 $382 $239 $383 forward $149 $-1 #
coedge $-1 $384 $151 $385 $386 reversed $94 $-1 #
coedge $-1 $151 $384 $237 $383 reversed $94 $-1 #
coedge $-1 $387 $388 $151 $241 reversed $389 $-1 #
edge $-1 $390 -17.168951403164666 $391 17.168951403164666 $240 $392 forward 7 unknown #
face $-1 $393 $394 $56 $-1 $395 reversed single #
loop $-1 $-1 $396 $152 #
plane-surface $-1 -142.27642214525764 -9.2970401938584875 52.762593804819602 0 -1 0 0.86602541151947299 0 -0.49999998660252726 forward_v I I I I #
coedge $-1 $397 $398 $399 $400 reversed $153 $-1 #
coedge $-1 $247 $155 $401 $402 reversed $97 $-1 #
coedge $-1 $155 $246 $397 $403 reversed $97 $-1 #
coedge $-1 $399 $404 $155 $249 forward $405 $-1 #
edge $-1 $406 19.061426502787214 $407 28.577971925055451 $248 $408 forward 7 unknown #
loop $-1 $-1 $255 $156 #
plane-surface $-1 -52.076784569841607 -12.637919097032885 0.68581063037260037 -0.86602541151947299 0 0.49999998660252726 0.49999998660252726 0 0.86602541151947299 forward_v I I I I #
loop $-1 $-1 $409 $99 #
coedge $-1 $253 $253 $254 $410 reversed $157 $-1 #
coedge $-1 $254 $254 $253 $410 forward $159 $-1 #
coedge $-1 $255 $255 $160 $256 forward $250 $-1 #
edge $-1 $411 0 $411 6.2831853071796004 $255 $412 forward 7 unknown #
loop $-1 $-1 $262 $161 #
plane-surface $-1 -52.076784569841607 -12.637919097032885 0.68581063037260037 -0.86602541151947299 0 0.49999998660252726 0.49999998660252726 0 0.86602541151947299 forward_v I I I I #
loop $-1 $-1 $413 $102 #
coedge $-1 $260 $260 $261 $414 reversed $162 $-1 #
coedge $-1 $261 $261 $260 $414 forward $164 $-1 #
coedge $-1 $262 $262 $165 $263 forward $257 $-1 #
edge $-1 $415 0 $415 6.2831853071796004 $262 $416 forward 7 unknown #
face $-1 $417 $418 $59 $-1 $419 forward single #
loop $-1 $-1 $420 $166 #
plane-surface $-1 -142.27642214525764 4.5078265114614933 52.762593804819602 0 -1 0 0.86602541151947299 0 -0.49999998660252726 forward_v I I I I #
coedge $-1 $421 $422 $423 $424 reversed $167 $-1 #
coedge $-1 $269 $169 $425 $426 reversed $106 $-1 #
coedge $-1 $169 $268 $421 $427 reversed $106 $-1 #
coedge $-1 $423 $428 $169 $271 forward $418 $-1 #
edge $-1 $429 19.061426502787214 $430 28.577971925055451 $270 $431 forward 7 unknown #
loop $-1 $-1 $277 $170 #
plane-surface $-1 -52.076784569841607 1.1669476082870958 0.68581063037260037 -0.86602541151947299 0 0.49999998660252726 0.49999998660252726 0 0.86602541151947299 forward_v I I I I #
loop $-1 $-1 $432 $108 #
coedge $-1 $275 $275 $276 $433 reversed $171 $-1 #
coedge $-1 $276 $276 $275 $433 forward $173 $-1 #
coedge $-1 $277 $277 $174 $278 forward $272 $-1 #
edge $-1 $434 0 $434 6.2831853071796004 $277 $435 forward 7 unknown #
loop $-1 $-1 $284 $175 #
plane-surface $-1 -52.076784569841607 1.1669476082870958 0.68581063037260037 -0.86602541151947299 0 0.49999998660252726 0.49999998660252726 0 0.86602541151947299 forward_v I I I I #
loop $-1 $-1 $436 $111 #
coedge $-1 $282 $282 $283 $437 reversed $176 $-1 #
coedge $-1 $283 $283 $282 $437 forward $178 $-1 #
coedge $-1 $284 $284 $179 $285 forward $279 $-1 #
edge $-1 $438 0 $438 6.2831853071796004 $284 $439 forward 7 unknown #
face $-1 $440 $441 $62 $-1 $442 forward single #
loop $-1 $-1 $443 $180 #
plane-surface $-1 -142.27642214525764 18.312693216781476 52.762593804819602 0 -1 0 0.86602541151947299 0 -0.49999998660252726 forward_v I I I I #
coedge $-1 $444 $445 $446 $447 reversed $181 $-1 #
coedge $-1 $291 $183 $448 $449 reversed $115 $-1 #
coedge $-1 $183 $290 $444 $450 reversed $115 $-1 #
coedge $-1 $446 $451 $183 $293 forward $441 $-1 #
edge $-1 $452 19.061426502787214 $453 28.577971925055451 $292 $454 forward 7 unknown #
loop $-1 $-1 $299 $184 #
plane-surface $-1 -52.076784569841607 14.971814313607076 0.68581063037260037 -0.86602541151947299 0 0.49999998660252726 0.49999998660252726 0 0.86602541151947299 forward_v I I I I #
loop $-1 $-1 $455 $117 #
coedge $-1 $297 $297 $298 $456 reversed $185 $-1 #
coedge $-1 $298 $298 $297 $456 forward $187 $-1 #
coedge $-1 $299 $299 $188 $300 forward $294 $-1 #
edge $-1 $457 0 $457 6.2831853071796004 $299 $458 forward 7 unknown #
loop $-1 $-1 $306 $189 #
plane-surface $-1 -52.076784569841607 14.971814313607076 0.68581063037260037 -0.86602541151947299 0 0.49999998660252726 0.49999998660252726 0 0.86602541151947299 forward_v I I I I #
loop $-1 $-1 $459 $120 #
coedge $-1 $304 $304 $305 $460 reversed $190 $-1 #
coedge $-1 $305 $305 $304 $460 forward $192 $-1 #
coedge $-1 $306 $306 $193 $307 forward $301 $-1 #
edge $-1 $461 0 $461 6.2831853071796004 $306 $462 forward 7 unknown #
face $-1 $463 $464 $65 $-1 $465 forward single #
loop $-1 $-1 $466 $194 #
plane-surface $-1 -142.27642214525764 32.117559922101464 52.762593804819602 0 -1 0 0.86602541151947299 0 -0.49999998660252726 forward_v I I I I #
coedge $-1 $467 $468 $469 $470 reversed $195 $-1 #
coedge $-1 $313 $197 $471 $472 reversed $124 $-1 #
coedge $-1 $197 $312 $467 $473 reversed $124 $-1 #
coedge $-1 $469 $474 $197 $315 forward $464 $-1 #
edge $-1 $475 19.061426502787214 $476 28.577971925055451 $314 $477 forward 7 unknown #
loop $-1 $-1 $321 $198 #
plane-surface $-1 -52.076784569841607 28.776681018927064 0.68581063037260037 -0.86602541151947299 0 0.49999998660252726 0.49999998660252726 0 0.86602541151947299 forward_v I I I I #
loop $-1 $-1 $478 $126 #
coedge $-1 $319 $319 $320 $479 reversed $199 $-1 #
coedge $-1 $320 $320 $319 $479 forward $201 $-1 #
coedge $-1 $321 $321 $202 $322 forward $316 $-1 #
edge $-1 $480 0 $480 6.2831853071796004 $321 $481 forward 7 unknown #
loop $-1 $-1 $328 $203 #
plane-surface $-1 -52.076784569841607 28.776681018927064 0.68581063037260037 -0.86602541151947299 0 0.49999998660252726 0.49999998660252726 0 0.86602541151947299 forward_v I I I I #
loop $-1 $-1 $482 $129 #
coedge $-1 $326 $326 $327 $483 reversed $204 $-1 #
coedge $-1 $327 $327 $326 $483 forward $206 $-1 #
coedge $-1 $328 $328 $207 $329 forward $323 $-1 #
edge $-1 $484 0 $484 6.2831853071796004 $328 $485 forward 7 unknown #
face $-1 $486 $487 $68 $-1 $488 forward single #
loop $-1 $-1 $489 $208 #
plane-surface $-1 87.710766717214881 -19.35806622869935 143.37714986908347 0 1 0 0.85716730853699208 0 0.51503806187062418 forward_v I I I I #
coedge $-1 $490 $491 $492 $493 reversed $209 $-1 #
coedge $-1 $335 $211 $494 $495 reversed $133 $-1 #
coedge $-1 $211 $334 $490 $496 reversed $133 $-1 #
coedge $-1 $492 $497 $211 $337 forward $487 $-1 #
edge $-1 $498 -8.2214012112341663 $499 1.8201140847527242 $336 $500 forward 7 unknown #
loop $-1 $-1 $343 $212 #
plane-surface $-1 -1.5662678167688995 -13.179895343604258 89.734097482472976 0.85716730853699208 0 0.51503806187062418 0.51503806187062418 0 -0.85716730853699208 forward_v I I I I #
loop $-1 $-1 $501 $135 #
coedge $-1 $341 $341 $342 $502 reversed $213 $-1 #
coedge $-1 $342 $342 $341 $502 forward $215 $-1 #
coedge $-1 $343 $343 $216 $344 forward $338 $-1 #
edge $-1 $503 0 $503 6.2831853071796004 $343 $504 forward 7 unknown #
face $-1 $505 $506 $70 $-1 $507 forward single #
loop $-1 $-1 $351 $217 #
plane-surface $-1 52.076784569841607 0 0 -1 0 0 0 0 1 forward_v I I I I #
coedge $-1 $508 $509 $510 $511 reversed $218 $-1 #
coedge $-1 $350 $220 $512 $513 reversed $139 $-1 #
coedge $-1 $220 $349 $508 $514 reversed $139 $-1 #
coedge $-1 $510 $515 $220 $352 forward $346 $-1 #
edge $-1 $516 54.519623531377064 $517 71.231511986052553 $351 $518 forward 7 unknown #
loop $-1 $-1 $358 $221 #
plane-surface $-1 -1.5662678167688995 29.318657265498445 89.734097482472976 0.85716730853699208 0 0.51503806187062418 0.51503806187062418 0 -0.85716730853699208 forward_v I I I I #
loop $-1 $-1 $519 $141 #
coedge $-1 $356 $356 $357 $520 reversed $222 $-1 #
coedge $-1 $357 $357 $356 $520 forward $224 $-1 #
coedge $-1 $358 $358 $225 $359 forward $353 $-1 #
edge $-1 $521 0 $521 6.2831853071796004 $358 $522 forward 7 unknown #
face $-1 $523 $524 $54 $-1 $525 reversed single #
loop $-1 $-1 $526 $226 #
plane-surface $-1 -52.076784569841607 0 0 1 0 0 0 0 -1 forward_v I I I I #
coedge $-1 $232 $527 $528 $529 forward $227 $-1 #
coedge $-1 $530 $229 $531 $532 forward $145 $-1 #
coedge $-1 $229 $530 $368 $533 forward $145 $-1 #
coedge $-1 $369 $534 $229 $367 reversed $535 $-1 #
edge $-1 $536 -35.496828150593529 $537 35.496828150593529 $366 $538 forward 7 unknown #
coedge $-1 $231 $230 $365 $533 reversed $91 $-1 #
coedge $-1 $528 $366 $230 $370 forward $535 $-1 #
edge $-1 $536 -17.168951403164666 $374 17.168951403164666 $369 $539 forward 7 unknown #
coedge $-1 $540 $541 $231 $372 reversed $361 $-1 #
edge $-1 $542 -17.168951403164666 $375 17.168951403164666 $371 $543 forward 7 unknown #
coedge $-1 $527 $232 $541 $544 forward $227 $-1 #
vertex $-1 $370 $545 #
vertex $-1 $544 $546 #
straight-curve $-1 0 -35.496828150593529 -17.168951403164666 -1 0 0 I I #
face $-1 $547 $389 $55 $-1 $548 reversed single #
loop $-1 $-1 $549 $234 #
plane-surface $-1 -49.710270424134244 -51.635590072487702 0 0 1 0 0 0 1 forward_v I I I I #
coedge $-1 $550 $551 $384 $552 forward $235 $-1 #
coedge $-1 $553 $237 $551 $554 forward $149 $-1 #
coedge $-1 $237 $553 $387 $555 forward $149 $-1 #
edge $-1 $390 47.343756278426881 $556 52.076784569841607 $237 $557 forward 7 unknown #
coedge $-1 $239 $238 $380 $552 reversed $94 $-1 #
coedge $-1 $558 $559 $238 $386 forward $560 $-1 #
edge $-1 $561 -52.076784569841607 $391 -47.343756278426881 $385 $562 forward 7 unknown #
coedge $-1 $563 $240 $382 $555 reversed $389 $-1 #
coedge $-1 $240 $563 $558 $564 reversed $389 $-1 #
loop $-1 $-1 $563 $377 #
vertex $-1 $383 $565 #
vertex $-1 $564 $566 #
straight-curve $-1 -47.343756278426881 -35.496828150593529 0 0 0 -1 I I #
face $-1 $-1 $405 $56 $-1 $567 forward single #
loop $-1 $-1 $568 $242 #
plane-surface $-1 -52.076784569841607 0 0 1 0 0 0 0 -1 forward_v I I I I #
coedge $-1 $569 $570 $571 $572 reversed $243 $-1 #
coedge $-1 $573 $245 $247 $403 forward $153 $-1 #
coedge $-1 $245 $573 $569 $574 forward $153 $-1 #
coedge $-1 $571 $248 $245 $400 forward $405 $-1 #
edge $-1 $407 -9.65983845169084 $575 -2.978080645342045 $399 $576 forward 7 unknown #
coedge $-1 $577 $578 $246 $402 forward $394 $-1 #
edge $-1 $579 -25.695486272037201 $406 -9.212345499245135 $401 $580 forward 7 unknown #
edge $-1 $407 -19.033091354527112 $579 0 $247 $581 forward 7 unknown #
coedge $-1 $248 $571 $577 $582 forward $405 $-1 #
loop $-1 $-1 $571 $393 #
vertex $-1 $402 $583 #
vertex $-1 $249 $584 #
straight-curve $-1 -71.13821107262882 -15.978798000207282 17.168951403164666 1 0 0 I I #
coedge $-1 $409 $409 $-1 $585 reversed $252 $-1 #
edge $-1 $586 0 $586 6.2831853071796004 $253 $587 forward 7 unknown #
vertex $-1 $256 $588 #
ellipse-curve $-1 -47.318511858707488 -14.069724341250481 8.9273810167686349 -0.86602541151947299 0 0.49999998660252726 0.24999999330126363 0 0.43301270575973649 1 I I #
coedge $-1 $413 $413 $-1 $589 reversed $259 $-1 #
edge $-1 $590 0 $590 6.2831853071796004 $260 $591 forward 7 unknown #
vertex $-1 $263 $592 #
ellipse-curve $-1 -47.318511858707488 -11.206113852815282 8.9273810167686349 -0.86602541151947299 0 0.49999998660252726 0.24999999330126363 0 0.43301270575973649 1 I I #
face $-1 $-1 $593 $59 $-1 $594 reversed single #
loop $-1 $-1 $270 $264 #
plane-surface $-1 0 0 17.168951403164666 0 0 1 1 0 0 forward_v I I I I #
coedge $-1 $595 $596 $597 $598 reversed $265 $-1 #
coedge $-1 $599 $267 $269 $427 forward $167 $-1 #
coedge $-1 $267 $599 $595 $600 forward $167 $-1 #
coedge $-1 $597 $270 $267 $424 forward $418 $-1 #
edge $-1 $430 -2.7574050990308496 $601 3.9243527073179454 $423 $602 forward 7 unknown #
coedge $-1 $603 $604 $268 $426 forward $593 $-1 #
edge $-1 $605 -25.695486272037201 $429 -9.212345499245135 $425 $606 forward 7 unknown #
edge $-1 $430 -19.033091354527112 $605 0 $269 $607 forward 7 unknown #
coedge $-1 $270 $597 $603 $608 forward $418 $-1 #
vertex $-1 $426 $609 #
vertex $-1 $271 $610 #
straight-curve $-1 -71.13821107262882 -2.1739312948873017 17.168951403164666 1 0 0 I I #
coedge $-1 $432 $432 $-1 $611 reversed $274 $-1 #
edge $-1 $612 0 $612 6.2831853071796004 $275 $613 forward 7 unknown #
vertex $-1 $278 $614 #
ellipse-curve $-1 -47.318511858707488 -0.26485763593049683 8.9273810167686349 -0.86602541151947299 0 0.49999998660252726 0.24999999330126363 0 0.43301270575973649 1 I I #
coedge $-1 $436 $436 $-1 $615 reversed $281 $-1 #
edge $-1 $616 0 $616 6.2831853071796004 $282 $617 forward 7 unknown #
vertex $-1 $285 $618 #
ellipse-curve $-1 -47.318511858707488 2.5987528525047026 8.9273810167686349 -0.86602541151947299 0 0.49999998660252726 0.24999999330126363 0 0.43301270575973649 1 I I #
face $-1 $-1 $619 $62 $-1 $620 reversed single #
loop $-1 $-1 $292 $286 #
plane-surface $-1 0 0 17.168951403164666 0 0 1 1 0 0 forward_v I I I I #
coedge $-1 $621 $622 $623 $624 reversed $287 $-1 #
coedge $-1 $625 $289 $291 $450 forward $181 $-1 #
coedge $-1 $289 $625 $621 $626 forward $181 $-1 #
coedge $-1 $623 $292 $289 $447 forward $441 $-1 #
edge $-1 $453 4.1450282536291407 $627 10.826786059977938 $446 $628 forward 7 unknown #
coedge $-1 $629 $630 $290 $449 forward $619 $-1 #
edge $-1 $631 -25.695486272037201 $452 -9.212345499245135 $448 $632 forward 7 unknown #
edge $-1 $453 -19.033091354527112 $631 0 $291 $633 forward 7 unknown #
coedge $-1 $292 $623 $629 $634 forward $441 $-1 #
vertex $-1 $293 $635 #
vertex $-1 $293 $636 #
straight-curve $-1 -71.13821107262882 11.630935410432679 17.168951403164666 1 0 0 I I #
coedge $-1 $455 $455 $-1 $637 reversed $296 $-1 #
edge $-1 $638 0 $638 6.2831853071796004 $297 $639 forward 7 unknown #
vertex $-1 $300 $640 #
ellipse-curve $-1 -47.318511858707488 13.540009069389484 8.9273810167686349 -0.86602541151947299 0 0.49999998660252726 0.24999999330126363 0 0.43301270575973649 1 I I #
coedge $-1 $459 $459 $-1 $641 reversed $303 $-1 #
edge $-1 $642 0 $642 6.2831853071796004 $304 $643 forward 7 unknown #
vertex $-1 $307 $644 #
ellipse-curve $-1 -47.318511858707488 16.403619557824683 8.9273810167686349 -0.86602541151947299 0 0.49999998660252726 0.24999999330126363 0 0.43301270575973649 1 I I #
face $-1 $-1 $645 $65 $-1 $646 reversed single #
loop $-1 $-1 $314 $308 #
plane-surface $-1 0 0 17.168951403164666 0 0 1 1 0 0 forward_v I I I I #
coedge $-1 $647 $648 $649 $650 reversed $309 $-1 #
coedge $-1 $651 $311 $313 $473 forward $195 $-1 #
coedge $-1 $311 $651 $647 $652 forward $195 $-1 #
coedge $-1 $649 $314 $311 $470 forward $464 $-1 #
edge $-1 $476 11.047461606289133 $653 17.729219412637931 $469 $654 forward 7 unknown #
coedge $-1 $655 $656 $312 $472 forward $645 $-1 #
edge $-1 $657 -25.695486272037201 $475 -9.212345499245135 $471 $658 forward 7 unknown #
edge $-1 $476 -19.033091354527112 $657 0 $313 $659 forward 7 unknown #
coedge $-1 $314 $649 $655 $660 forward $464 $-1 #
vertex $-1 $315 $661 #
vertex $-1 $315 $662 #
straight-curve $-1 -71.13821107262882 25.435802115752665 17.168951403164666 1 0 0 I I #
coedge $-1 $478 $478 $-1 $663 reversed $318 $-1 #
edge $-1 $664 0 $664 6.2831853071796004 $319 $665 forward 7 unknown #
vertex $-1 $322 $666 #
ellipse-curve $-1 -47.318511858707488 27.344875774709465 8.9273810167686349 -0.86602541151947299 0 0.49999998660252726 0.24999999330126363 0 0.43301270575973649 1 I I #
coedge $-1 $482 $482 $-1 $667 reversed $325 $-1 #
edge $-1 $668 0 $668 6.2831853071796004 $326 $669 forward 7 unknown #
vertex $-1 $329 $670 #
ellipse-curve $-1 -47.318511858707488 30.208486263144664 8.9273810167686349 -0.86602541151947299 0 0.49999998660252726 0.24999999330126363 0 0.43301270575973649 1 I I #
face $-1 $-1 $671 $68 $-1 $672 reversed single #
loop $-1 $-1 $336 $330 #
plane-surface $-1 0 0 17.168951403164666 0 0 1 1 0 0 forward_v I I I I #
coedge $-1 $673 $674 $675 $676 reversed $331 $-1 #
coedge $-1 $677 $333 $335 $496 forward $209 $-1 #
coedge $-1 $333 $677 $673 $678 forward $209 $-1 #
coedge $-1 $675 $336 $333 $493 forward $487 $-1 #
edge $-1 $499 0.41177678670703521 $679 12.768118556897221 $492 $680 forward 7 unknown #
coedge $-1 $681 $682 $334 $495 forward $671 $-1 #
edge $-1 $683 -71.231511986052553 $498 -54.519623531377064 $494 $684 forward 7 unknown #
edge $-1 $499 84.656922116129309 $683 104.15356913968326 $335 $685 forward 7 unknown #
coedge $-1 $336 $675 $681 $686 forward $487 $-1 #
vertex $-1 $337 $687 #
vertex $-1 $337 $688 #
straight-curve $-1 43.85538335860744 -7.0017244585091643 17.16895140316467 -1 0 0 I I #
coedge $-1 $501 $501 $-1 $689 reversed $340 $-1 #
edge $-1 $690 0 $690 6.2831853071796004 $341 $691 forward 7 unknown #
vertex $-1 $344 $692 #
ellipse-curve $-1 47.056026921848144 -13.179895343604262 8.8130071758269377 0.85716730853699208 0 0.51503806187062418 0.77255709280593621 0 -1.2857509628054882 1 I I #
face $-1 $-1 $693 $70 $-1 $694 reversed single #
loop $-1 $-1 $512 $345 #
plane-surface $-1 0 0 17.168951403164666 0 0 1 1 0 0 forward_v I I I I #
coedge $-1 $695 $348 $350 $514 forward $218 $-1 #
coedge $-1 $348 $695 $696 $697 reversed $218 $-1 #
coedge $-1 $698 $351 $348 $511 forward $346 $-1 #
edge $-1 $517 8.4811577476541302 $699 20.837499517844307 $510 $700 forward 7 unknown #
coedge $-1 $701 $702 $349 $513 forward $506 $-1 #
edge $-1 $703 -1.8201140847527242 $516 8.2214012112341663 $512 $704 forward 7 unknown #
edge $-1 $517 -104.15356913968326 $703 -84.656922116129309 $350 $705 forward 7 unknown #
coedge $-1 $351 $698 $701 $706 reversed $346 $-1 #
vertex $-1 $706 $707 #
vertex $-1 $352 $708 #
straight-curve $-1 52.076784569841607 23.140486380403352 71.688574934541734 0 0 -1 I I #
coedge $-1 $519 $519 $-1 $709 reversed $355 $-1 #
edge $-1 $710 0 $710 6.2831853071796004 $356 $711 forward 7 unknown #
vertex $-1 $359 $712 #
ellipse-curve $-1 47.056026921848144 29.318657265498445 8.8130071758269377 0.85716730853699208 0 0.51503806187062418 0.77255709280593621 0 -1.2857509628054882 1 I I #
face $-1 $-1 $535 $54 $-1 $713 reversed single #
loop $-1 $-1 $714 $360 #
plane-surface $-1 0 35.496828150593529 0 0 -1 0 0 0 -1 forward_v I I I I #
coedge $-1 $541 $540 $715 $716 forward $361 $-1 #
coedge $-1 $363 $373 $717 $718 forward $227 $-1 #
coedge $-1 $534 $369 $363 $529 reversed $535 $-1 #
edge $-1 $719 -35.496828150593529 $374 35.496828150593529 $528 $720 forward 7 unknown #
coedge $-1 $365 $364 $540 $721 forward $145 $-1 #
coedge $-1 $714 $715 $364 $532 reversed $524 $-1 #
edge $-1 $537 -52.076784569841607 $722 52.076784569841607 $531 $723 forward 7 unknown #
edge $-1 $542 -52.076784569841607 $536 52.076784569841607 $368 $724 forward 7 unknown #
coedge $-1 $366 $528 $714 $725 reversed $535 $-1 #
loop $-1 $-1 $369 $523 #
vertex $-1 $367 $726 #
vertex $-1 $367 $727 #
straight-curve $-1 52.076784569841607 0 17.168951403164666 0 1 0 I I #
straight-curve $-1 52.076784569841607 -35.496828150593529 0 0 0 -1 I I #
coedge $-1 $526 $371 $530 $721 reversed $361 $-1 #
coedge $-1 $371 $526 $373 $544 reversed $361 $-1 #
vertex $-1 $721 $728 #
straight-curve $-1 -52.076784569841607 -35.496828150593529 0 0 0 -1 I I #
edge $-1 $375 -35.496828150593529 $729 35.496828150593529 $541 $730 forward 7 unknown #
point $-1 52.076784569841607 -35.496828150593529 -17.168951403164666 #
point $-1 -52.076784569841607 -35.496828150593529 -17.168951403164666 #
face $-1 $-1 $560 $55 $-1 $731 reversed single #
plane-surface $-1 -47.343756278426881 -43.566209111540616 0 -1 0 0 0 0 1 forward_v I I I I #
coedge $-1 $732 $733 $734 $735 forward $378 $-1 #
coedge $-1 $734 $380 $559 $736 reversed $235 $-1 #
coedge $-1 $380 $734 $381 $554 reversed $235 $-1 #
edge $-1 $556 -17.168951403164666 $561 17.168951403164666 $380 $737 forward 7 unknown #
coedge $-1 $382 $381 $733 $738 forward $149 $-1 #
edge $-1 $556 35.496828150593529 $739 51.635590072487702 $551 $740 forward 7 unknown #
edge $-1 $741 -8.0693809609470861 $390 8.0693809609470861 $387 $742 forward 7 unknown #
vertex $-1 $554 $743 #
straight-curve $-1 0 -35.496828150593529 17.168951403164666 -1 0 0 I I #
coedge $-1 $744 $385 $388 $564 forward $560 $-1 #
coedge $-1 $385 $744 $550 $736 forward $560 $-1 #
loop $-1 $-1 $385 $547 #
vertex $-1 $552 $745 #
straight-curve $-1 0 -35.496828150593529 -17.168951403164666 1 0 0 I I #
coedge $-1 $388 $387 $746 $747 forward $389 $-1 #
edge $-1 $391 -8.0693809609470861 $748 8.0693809609470861 $388 $749 forward 7 unknown #
point $-1 -47.343756278426881 -35.496828150593529 17.168951403164666 #
point $-1 -47.343756278426881 -35.496828150593529 -17.168951403164666 #
plane-surface $-1 0 0 17.168951403164666 0 0 1 1 0 0 forward_v I I I I #
coedge $-1 $578 $577 $570 $750 forward $394 $-1 #
coedge $-1 $570 $396 $398 $574 reversed $243 $-1 #
coedge $-1 $396 $569 $568 $750 reversed $243 $-1 #
coedge $-1 $404 $399 $396 $572 forward $405 $-1 #
edge $-1 $575 -28.577971925055451 $751 -19.061426502787214 $571 $752 forward 7 unknown #
coedge $-1 $398 $397 $578 $753 reversed $153 $-1 #
edge $-1 $754 0 $575 19.033091354527112 $569 $755 forward 7 unknown #
vertex $-1 $400 $756 #
straight-curve $-1 -42.560239147573377 -6.3189595485164425 17.168951403164666 0 1 0 I I #
coedge $-1 $568 $401 $404 $582 reversed $394 $-1 #
coedge $-1 $401 $568 $573 $753 forward $394 $-1 #
vertex $-1 $402 $757 #
straight-curve $-1 -52.076784569841607 -15.978798000207282 26.381296902409801 0 0 1 I I #
straight-curve $-1 -52.076784569841607 -15.978798000207282 0.68581063037260037 -0.49999998660252726 0 -0.86602541151947299 I I #
edge $-1 $751 9.2970401938584875 $406 15.978798000207282 $577 $758 forward 7 unknown #
point $-1 -52.076784569841607 -15.978798000207282 17.168951403164666 #
point $-1 -42.56023914757337 -15.978798000207282 17.168951403164666 #
edge $-1 $759 1 $759 0 $409 $-1 forward 7 unknown #
vertex $-1 $410 $760 #
ellipse-curve $-1 -46.170268992303377 -14.069724341250481 8.2644427124396795 -0.86602541151947299 0 0.49999998660252726 0.24999999330126363 0 0.43301270575973649 1 I I #
point $-1 -47.068511865406222 -14.069724341250481 9.3603937225283698 #
edge $-1 $761 1 $761 0 $413 $-1 forward 7 unknown #
vertex $-1 $414 $762 #
ellipse-curve $-1 -46.170268992303377 -11.206113852815282 8.2644427124396795 -0.86602541151947299 0 0.49999998660252726 0.24999999330126363 0 0.43301270575973649 1 I I #
point $-1 -47.068511865406222 -11.206113852815282 9.3603937225283698 #
loop $-1 $-1 $425 $417 #
plane-surface $-1 -52.076784569841607 0 0 1 0 0 0 0 -1 forward_v I I I I #
coedge $-1 $596 $420 $422 $600 reversed $265 $-1 #
coedge $-1 $420 $595 $763 $764 reversed $265 $-1 #
coedge $-1 $428 $423 $420 $598 forward $418 $-1 #
edge $-1 $601 -28.577971925055451 $765 -19.061426502787214 $597 $766 forward 7 unknown #
coedge $-1 $422 $421 $604 $767 reversed $167 $-1 #
edge $-1 $768 0 $601 19.033091354527112 $595 $769 forward 7 unknown #
vertex $-1 $424 $770 #
straight-curve $-1 -42.560239147573377 0.58347380414354788 17.168951403164666 0 1 0 I I #
coedge $-1 $763 $425 $428 $608 reversed $593 $-1 #
coedge $-1 $425 $763 $599 $767 forward $593 $-1 #
vertex $-1 $426 $771 #
straight-curve $-1 -52.076784569841607 -2.1739312948873017 26.381296902409801 0 0 1 I I #
straight-curve $-1 -52.076784569841607 -2.1739312948873017 0.68581063037260037 -0.49999998660252726 0 -0.86602541151947299 I I #
edge $-1 $765 -4.5078265114614933 $429 2.1739312948873017 $603 $772 forward 7 unknown #
point $-1 -52.076784569841607 -2.1739312948873017 17.168951403164666 #
point $-1 -42.56023914757337 -2.1739312948873017 17.168951403164666 #
edge $-1 $773 1 $773 0 $432 $-1 forward 7 unknown #
vertex $-1 $433 $774 #
ellipse-curve $-1 -46.170268992303377 -0.26485763593049683 8.2644427124396795 -0.86602541151947299 0 0.49999998660252726 0.24999999330126363 0 0.43301270575973649 1 I I #
point $-1 -47.068511865406222 -0.26485763593049683 9.3603937225283698 #
edge $-1 $775 1 $775 0 $436 $-1 forward 7 unknown #
vertex $-1 $437 $776 #
ellipse-curve $-1 -46.170268992303377 2.5987528525047026 8.2644427124396795 -0.86602541151947299 0 0.49999998660252726 0.24999999330126363 0 0.43301270575973649 1 I I #
point $-1 -47.068511865406222 2.5987528525047026 9.3603937225283698 #
loop $-1 $-1 $448 $440 #
plane-surface $-1 -52.076784569841607 0 0 1 0 0 0 0 -1 forward_v I I I I #
coedge $-1 $622 $443 $445 $626 reversed $287 $-1 #
coedge $-1 $443 $621 $777 $778 reversed $287 $-1 #
coedge $-1 $451 $446 $443 $624 forward $441 $-1 #
edge $-1 $627 -28.577971925055451 $779 -19.061426502787214 $623 $780 forward 7 unknown #
coedge $-1 $445 $444 $630 $781 reversed $181 $-1 #
edge $-1 $782 0 $627 19.033091354527112 $621 $783 forward 7 unknown #
vertex $-1 $447 $784 #
straight-curve $-1 -42.560239147573377 7.4859071568035382 17.168951403164666 0 1 0 I I #
coedge $-1 $777 $448 $451 $634 reversed $619 $-1 #
coedge $-1 $448 $777 $625 $781 forward $619 $-1 #
vertex $-1 $449 $785 #
straight-curve $-1 -52.076784569841607 11.630935410432679 26.381296902409801 0 0 1 I I #
straight-curve $-1 -52.076784569841607 11.630935410432679 0.68581063037260037 -0.49999998660252726 0 -0.86602541151947299 I I #
edge $-1 $779 -18.312693216781476 $452 -11.630935410432679 $629 $786 forward 7 unknown #
point $-1 -52.076784569841607 11.630935410432679 17.168951403164666 #
point $-1 -42.56023914757337 11.630935410432679 17.168951403164666 #
edge $-1 $787 1 $787 0 $455 $-1 forward 7 unknown #
vertex $-1 $456 $788 #
ellipse-curve $-1 -46.170268992303377 13.540009069389484 8.2644427124396795 -0.86602541151947299 0 0.49999998660252726 0.24999999330126363 0 0.43301270575973649 1 I I #
point $-1 -47.068511865406222 13.540009069389484 9.3603937225283698 #
edge $-1 $789 1 $789 0 $459 $-1 forward 7 unknown #
vertex $-1 $460 $790 #
ellipse-curve $-1 -46.170268992303377 16.403619557824683 8.2644427124396795 -0.86602541151947299 0 0.49999998660252726 0.24999999330126363 0 0.43301270575973649 1 I I #
point $-1 -47.068511865406222 16.403619557824683 9.3603937225283698 #
loop $-1 $-1 $471 $463 #
plane-surface $-1 -52.076784569841607 0 0 1 0 0 0 0 -1 forward_v I I I I #
coedge $-1 $648 $466 $468 $652 reversed $309 $-1 #
coedge $-1 $466 $647 $791 $792 reversed $309 $-1 #
coedge $-1 $474 $469 $466 $650 forward $464 $-1 #
edge $-1 $653 -28.577971925055451 $793 -19.061426502787214 $649 $794 forward 7 unknown #
coedge $-1 $468 $467 $656 $795 reversed $195 $-1 #
edge $-1 $796 0 $653 19.033091354527112 $647 $797 forward 7 unknown #
vertex $-1 $470 $798 #
straight-curve $-1 -42.560239147573377 14.388340509463532 17.168951403164666 0 1 0 I I #
coedge $-1 $791 $471 $474 $660 reversed $645 $-1 #
coedge $-1 $471 $791 $651 $795 forward $645 $-1 #
vertex $-1 $472 $799 #
straight-curve $-1 -52.076784569841607 25.435802115752665 26.381296902409801 0 0 1 I I #
straight-curve $-1 -52.076784569841607 25.435802115752665 0.68581063037260037 -0.49999998660252726 0 -0.86602541151947299 I I #
edge $-1 $793 -32.117559922101464 $475 -25.435802115752665 $655 $800 forward 7 unknown #
point $-1 -52.076784569841607 25.435802115752665 17.168951403164666 #
point $-1 -42.56023914757337 25.435802115752665 17.168951403164666 #
edge $-1 $801 1 $801 0 $478 $-1 forward 7 unknown #
vertex $-1 $479 $802 #
ellipse-curve $-1 -46.170268992303377 27.344875774709465 8.2644427124396795 -0.86602541151947299 0 0.49999998660252726 0.24999999330126363 0 0.43301270575973649 1 I I #
point $-1 -47.068511865406222 27.344875774709465 9.3603937225283698 #
edge $-1 $803 1 $803 0 $482 $-1 forward 7 unknown #
vertex $-1 $483 $804 #
ellipse-curve $-1 -46.170268992303377 30.208486263144664 8.2644427124396795 -0.86602541151947299 0 0.49999998660252726 0.24999999330126363 0 0.43301270575973649 1 I I #
point $-1 -47.068511865406222 30.208486263144664 9.3603937225283698 #
loop $-1 $-1 $494 $486 #
plane-surface $-1 52.076784569841607 0 0 -1 0 0 0 0 1 forward_v I I I I #
coedge $-1 $674 $489 $491 $678 reversed $331 $-1 #
coedge $-1 $489 $673 $805 $806 reversed $331 $-1 #
coedge $-1 $497 $492 $489 $676 forward $487 $-1 #
edge $-1 $679 -1.8201140847527242 $807 8.2214012112341663 $675 $808 forward 7 unknown #
coedge $-1 $491 $490 $682 $809 reversed $209 $-1 #
edge $-1 $810 -104.15356913968326 $679 -84.656922116129309 $673 $811 forward 7 unknown #
vertex $-1 $493 $812 #
straight-curve $-1 42.035269273854716 -6.589947671802129 17.168951403164662 0 -1 0 I I #
coedge $-1 $805 $494 $497 $686 reversed $671 $-1 #
coedge $-1 $494 $805 $677 $809 forward $671 $-1 #
vertex $-1 $495 $813 #
straight-curve $-1 52.076784569841607 -7.0017244585091643 71.688574934541734 0 0 1 I I #
straight-curve $-1 -1.5662678167688995 -7.0017244585091643 89.734097482472976 0.51503806187062418 0 -0.85716730853699208 I I #
edge $-1 $807 -19.35806622869935 $498 -7.0017244585091643 $681 $814 forward 7 unknown #
point $-1 52.076784569841607 -7.0017244585091643 17.168951403164666 #
point $-1 42.035269273854716 -7.0017244585091643 17.16895140316467 #
edge $-1 $815 1 $815 0 $501 $-1 forward 7 unknown #
vertex $-1 $502 $816 #
ellipse-curve $-1 43.843591855380062 -13.179895343604262 6.8827815197144933 0.85716730853699208 0 0.51503806187062418 0.77255709280593621 0 -1.2857509628054882 1 I I #
point $-1 47.828584014654076 -13.179895343604262 7.5272562130214471 #
loop $-1 $-1 $696 $505 #
plane-surface $-1 0 35.496828150593529 0 0 -1 0 0 0 -1 forward_v I I I I #
coedge $-1 $509 $508 $702 $817 reversed $218 $-1 #
coedge $-1 $818 $819 $509 $697 forward $693 $-1 #
edge $-1 $699 -65.291657957800012 $820 -45.795010934246079 $696 $821 forward 7 unknown #
coedge $-1 $515 $510 $819 $822 reversed $346 $-1 #
vertex $-1 $511 $823 #
straight-curve $-1 52.076784569841607 14.659328632749222 0.45706294848918105 0 1 0 I I #
coedge $-1 $824 $512 $515 $706 forward $506 $-1 #
coedge $-1 $512 $824 $695 $817 forward $506 $-1 #
vertex $-1 $513 $825 #
straight-curve $-1 43.85538335860744 23.140486380403352 17.16895140316467 1 0 0 I I #
straight-curve $-1 -1.5662678167688995 23.140486380403352 89.734097482472976 -0.51503806187062418 0 0.85716730853699208 I I #
edge $-1 $516 23.140486380403352 $826 35.496828150593529 $515 $827 forward 7 unknown #
point $-1 52.076784569841607 23.140486380403352 17.168951403164666 #
point $-1 52.076784569841607 23.140486380403352 0.45706294848918105 #
edge $-1 $828 1 $828 0 $519 $-1 forward 7 unknown #
vertex $-1 $520 $829 #
ellipse-curve $-1 43.843591855380062 29.318657265498445 6.8827815197144933 0.85716730853699208 0 0.51503806187062418 0.77255709280593621 0 -1.2857509628054882 1 I I #
point $-1 47.828584014654076 29.318657265498445 7.5272562130214471 #
plane-surface $-1 52.076784569841607 0 0 -1 0 0 0 0 1 forward_v I I I I #
coedge $-1 $717 $531 $534 $725 forward $524 $-1 #
coedge $-1 $531 $717 $526 $716 reversed $524 $-1 #
edge $-1 $722 -17.168951403164666 $729 17.168951403164666 $715 $830 forward 7 unknown #
coedge $-1 $715 $714 $527 $718 reversed $524 $-1 #
edge $-1 $729 -52.076784569841607 $719 52.076784569841607 $717 $831 forward 7 unknown #
vertex $-1 $529 $832 #
straight-curve $-1 52.076784569841607 0 -17.168951403164666 0 -1 0 I I #
edge $-1 $722 -35.496828150593529 $542 35.496828150593529 $540 $833 forward 7 unknown #
vertex $-1 $532 $834 #
straight-curve $-1 0 35.496828150593529 17.168951403164666 -1 0 0 I I #
straight-curve $-1 0 -35.496828150593529 17.168951403164666 1 0 0 I I #
edge $-1 $537 -17.168951403164666 $719 17.168951403164666 $534 $835 forward 7 unknown #
point $-1 52.076784569841607 -35.496828150593529 17.168951403164666 #
point $-1 52.076784569841607 35.496828150593529 17.168951403164666 #
point $-1 -52.076784569841607 -35.496828150593529 17.168951403164666 #
vertex $-1 $718 $836 #
straight-curve $-1 -52.076784569841607 0 -17.168951403164666 0 1 0 I I #
plane-surface $-1 0 0 -17.168951403164666 0 0 1 1 0 0 forward_v I I I I #
coedge $-1 $746 $549 $744 $837 reversed $378 $-1 #
coedge $-1 $549 $746 $553 $738 reversed $378 $-1 #
coedge $-1 $551 $550 $549 $735 reversed $235 $-1 #
edge $-1 $739 -17.168951403164666 $838 17.168951403164666 $734 $839 forward 7 unknown #
edge $-1 $838 -51.635590072487702 $561 -35.496828150593529 $550 $840 forward 7 unknown #
straight-curve $-1 -52.076784569841607 -35.496828150593529 0 0 0 -1 I I #
edge $-1 $739 -2.3665141457073631 $741 2.3665141457073631 $733 $841 forward 7 unknown #
vertex $-1 $554 $842 #
straight-curve $-1 -52.076784569841607 0 17.168951403164666 0 -1 0 I I #
vertex $-1 $555 $843 #
straight-curve $-1 -47.343756278426881 -43.566209111540616 17.168951403164666 0 1 0 I I #
point $-1 -52.076784569841607 -35.496828150593529 17.168951403164666 #
coedge $-1 $559 $558 $732 $837 forward $560 $-1 #
point $-1 -52.076784569841607 -35.496828150593529 -17.168951403164666 #
coedge $-1 $733 $732 $563 $747 reversed $378 $-1 #
edge $-1 $741 -17.168951403164666 $748 17.168951403164666 $563 $844 forward 7 unknown #
vertex $-1 $747 $845 #
straight-curve $-1 -47.343756278426881 -43.566209111540616 -17.168951403164666 0 -1 0 I I #
edge $-1 $751 9.212345499245135 $754 25.695486272037201 $568 $846 forward 7 unknown #
vertex $-1 $582 $847 #
straight-curve $-1 -71.13821107262882 -9.2970401938584875 17.168951403164666 -1 0 0 I I #
edge $-1 $754 2.978080645342045 $579 9.65983845169084 $578 $848 forward 7 unknown #
vertex $-1 $753 $849 #
straight-curve $-1 -52.076784569841607 -9.2970401938584875 0.68581063037260037 0.49999998660252726 0 0.86602541151947299 I I #
point $-1 -42.56023914757337 -9.2970401938584875 17.168951403164666 #
point $-1 -52.076784569841607 -15.978798000207282 0.68581063037260037 #
straight-curve $-1 -52.076784569841607 0 17.168951403164666 0 -1 0 I I #
vertex $-1 $585 $850 #
point $-1 -45.920268999002111 -14.069724341250481 8.6974554181994161 #
vertex $-1 $589 $851 #
point $-1 -45.920268999002111 -11.206113852815282 8.6974554181994161 #
coedge $-1 $604 $603 $596 $764 forward $593 $-1 #
edge $-1 $765 9.212345499245135 $768 25.695486272037201 $763 $852 forward 7 unknown #
vertex $-1 $608 $853 #
straight-curve $-1 -71.13821107262882 4.5078265114614933 17.168951403164666 -1 0 0 I I #
edge $-1 $768 -3.9243527073179454 $605 2.7574050990308496 $604 $854 forward 7 unknown #
vertex $-1 $767 $855 #
straight-curve $-1 -52.076784569841607 4.5078265114614933 0.68581063037260037 0.49999998660252726 0 0.86602541151947299 I I #
point $-1 -42.56023914757337 4.5078265114614933 17.168951403164666 #
point $-1 -52.076784569841607 -2.1739312948873017 0.68581063037260037 #
straight-curve $-1 -52.076784569841607 0 17.168951403164666 0 -1 0 I I #
vertex $-1 $611 $856 #
point $-1 -45.920268999002111 -0.26485763593049683 8.6974554181994161 #
vertex $-1 $615 $857 #
point $-1 -45.920268999002111 2.5987528525047026 8.6974554181994161 #
coedge $-1 $630 $629 $622 $778 forward $619 $-1 #
edge $-1 $779 9.212345499245135 $782 25.695486272037201 $777 $858 forward 7 unknown #
vertex $-1 $634 $859 #
straight-curve $-1 -71.13821107262882 18.312693216781476 17.168951403164666 -1 0 0 I I #
edge $-1 $782 -10.826786059977938 $631 -4.1450282536291407 $630 $860 forward 7 unknown #
vertex $-1 $781 $861 #
straight-curve $-1 -52.076784569841607 18.312693216781476 0.68581063037260037 0.49999998660252726 0 0.86602541151947299 I I #
point $-1 -42.56023914757337 18.312693216781476 17.168951403164666 #
point $-1 -52.076784569841607 11.630935410432679 0.68581063037260037 #
straight-curve $-1 -52.076784569841607 0 17.168951403164666 0 -1 0 I I #
vertex $-1 $637 $862 #
point $-1 -45.920268999002111 13.540009069389484 8.6974554181994161 #
vertex $-1 $641 $863 #
point $-1 -45.920268999002111 16.403619557824683 8.6974554181994161 #
coedge $-1 $656 $655 $648 $792 forward $645 $-1 #
edge $-1 $793 9.212345499245135 $796 25.695486272037201 $791 $864 forward 7 unknown #
vertex $-1 $660 $865 #
straight-curve $-1 -71.13821107262882 32.117559922101464 17.168951403164666 -1 0 0 I I #
edge $-1 $796 -17.729219412637931 $657 -11.047461606289133 $656 $866 forward 7 unknown #
vertex $-1 $795 $867 #
straight-curve $-1 -52.076784569841607 32.117559922101464 0.68581063037260037 0.49999998660252726 0 0.86602541151947299 I I #
point $-1 -42.56023914757337 32.117559922101464 17.168951403164666 #
point $-1 -52.076784569841607 25.435802115752665 0.68581063037260037 #
straight-curve $-1 -52.076784569841607 0 17.168951403164666 0 -1 0 I I #
vertex $-1 $663 $868 #
point $-1 -45.920268999002111 27.344875774709465 8.6974554181994161 #
vertex $-1 $667 $869 #
point $-1 -45.920268999002111 30.208486263144664 8.6974554181994161 #
coedge $-1 $682 $681 $674 $806 forward $671 $-1 #
edge $-1 $807 54.519623531377064 $810 71.231511986052553 $805 $870 forward 7 unknown #
vertex $-1 $686 $871 #
straight-curve $-1 43.85538335860744 -19.35806622869935 17.16895140316467 1 0 0 I I #
edge $-1 $810 -12.768118556897221 $683 -0.41177678670703521 $682 $872 forward 7 unknown #
vertex $-1 $809 $873 #
straight-curve $-1 -1.5662678167688995 -19.35806622869935 89.734097482472976 -0.51503806187062418 0 0.85716730853699208 I I #
point $-1 42.035269273854716 -19.35806622869935 17.16895140316467 #
point $-1 52.076784569841607 -7.0017244585091643 0.45706294848918105 #
straight-curve $-1 52.076784569841607 0 17.168951403164666 0 1 0 I I #
vertex $-1 $689 $874 #
point $-1 44.616148948185995 -13.179895343604262 5.5970305569090053 #
edge $-1 $820 -20.837499517844314 $703 -8.4811577476541302 $702 $875 forward 7 unknown #
coedge $-1 $819 $696 $824 $876 reversed $693 $-1 #
coedge $-1 $696 $818 $698 $822 forward $693 $-1 #
vertex $-1 $697 $877 #
straight-curve $-1 18.449095598936569 35.496828150593529 56.422937670094498 -0.51503806187062429 0 0.85716730853699219 I I #
edge $-1 $826 -17.168951403164666 $699 -0.45706294848918638 $698 $878 forward 7 unknown #
point $-1 52.076784569841607 35.496828150593529 0.45706294848918638 #
coedge $-1 $702 $701 $818 $876 forward $506 $-1 #
point $-1 42.035269273854716 23.140486380403352 17.16895140316467 #
vertex $-1 $706 $879 #
straight-curve $-1 52.076784569841607 0 17.168951403164666 0 1 0 I I #
vertex $-1 $709 $880 #
point $-1 44.616148948185995 29.318657265498445 5.5970305569090053 #
straight-curve $-1 -52.076784569841607 35.496828150593529 0 0 0 -1 I I #
straight-curve $-1 0 35.496828150593529 -17.168951403164666 1 0 0 I I #
point $-1 52.076784569841607 35.496828150593529 -17.168951403164666 #
straight-curve $-1 -52.076784569841607 0 17.168951403164666 0 -1 0 I I #
point $-1 -52.076784569841607 35.496828150593529 17.168951403164666 #
straight-curve $-1 52.076784569841607 35.496828150593529 0 0 0 -1 I I #
point $-1 -52.076784569841607 35.496828150593529 -17.168951403164666 #
edge $-1 $748 -2.3665141457073631 $838 2.3665141457073631 $732 $881 forward 7 unknown #
vertex $-1 $736 $882 #
straight-curve $-1 -52.076784569841607 -51.635590072487702 0 0 0 -1 I I #
straight-curve $-1 -52.076784569841607 0 -17.168951403164666 0 1 0 I I #
straight-curve $-1 -49.710270424134244 -51.635590072487702 17.168951403164666 1 0 0 I I #
point $-1 -52.076784569841607 -51.635590072487702 17.168951403164666 #
point $-1 -47.343756278426881 -51.635590072487702 17.168951403164666 #
straight-curve $-1 -47.343756278426881 -51.635590072487702 0 0 0 -1 I I #
point $-1 -47.343756278426881 -51.635590072487702 -17.168951403164666 #
straight-curve $-1 -52.076784569841607 -9.2970401938584875 26.381296902409801 0 0 -1 I I #
point $-1 -52.076784569841607 -9.2970401938584875 17.168951403164666 #
straight-curve $-1 -52.076784569841607 -6.3189595485164425 0.68581063037260437 0 -1 0 I I #
point $-1 -52.076784569841607 -9.2970401938584875 0.68581063037260037 #
point $-1 -45.737256286543641 -14.069724341250481 8.0144427191384171 #
point $-1 -45.737256286543641 -11.206113852815282 8.0144427191384171 #
straight-curve $-1 -52.076784569841607 4.5078265114614933 26.381296902409801 0 0 -1 I I #
point $-1 -52.076784569841607 4.5078265114614933 17.168951403164666 #
straight-curve $-1 -52.076784569841607 0.58347380414354788 0.68581063037260437 0 -1 0 I I #
point $-1 -52.076784569841607 4.5078265114614933 0.68581063037260037 #
point $-1 -45.737256286543641 -0.26485763593049683 8.0144427191384171 #
point $-1 -45.737256286543641 2.5987528525047026 8.0144427191384171 #
straight-curve $-1 -52.076784569841607 18.312693216781476 26.381296902409801 0 0 -1 I I #
point $-1 -52.076784569841607 18.312693216781476 17.168951403164666 #
straight-curve $-1 -52.076784569841607 7.4859071568035382 0.68581063037260437 0 -1 0 I I #
point $-1 -52.076784569841607 18.312693216781476 0.68581063037260037 #
point $-1 -45.737256286543641 13.540009069389484 8.0144427191384171 #
point $-1 -45.737256286543641 16.403619557824683 8.0144427191384171 #
straight-curve $-1 -52.076784569841607 32.117559922101464 26.381296902409801 0 0 -1 I I #
point $-1 -52.076784569841607 32.117559922101464 17.168951403164666 #
straight-curve $-1 -52.076784569841607 14.388340509463532 0.68581063037260437 0 -1 0 I I #
point $-1 -52.076784569841607 32.117559922101464 0.68581063037260037 #
point $-1 -45.737256286543641 27.344875774709465 8.0144427191384171 #
point $-1 -45.737256286543641 30.208486263144664 8.0144427191384171 #
straight-curve $-1 52.076784569841607 -19.35806622869935 71.688574934541734 0 0 -1 I I #
point $-1 52.076784569841607 -19.35806622869935 17.168951403164666 #
straight-curve $-1 52.076784569841607 -6.589947671802129 0.45706294848918105 0 1 0 I I #
point $-1 52.076784569841607 -19.35806622869935 0.45706294848918105 #
point $-1 42.557840892574568 -13.179895343604262 6.110224426908557 #
straight-curve $-1 42.035269273854716 14.659328632749222 17.168951403164662 0 -1 0 I I #
edge $-1 $826 -52.076784569841607 $820 -42.035269273854716 $818 $883 forward 7 unknown #
point $-1 42.035269273854716 35.496828150593537 17.16895140316467 #
straight-curve $-1 52.076784569841607 35.496828150593529 0 0 0 -1 I I #
point $-1 52.076784569841607 35.496828150593529 17.168951403164666 #
point $-1 42.557840892574568 29.318657265498445 6.110224426908557 #
straight-curve $-1 -49.710270424134244 -51.635590072487702 -17.168951403164666 -1 0 0 I I #
point $-1 -52.076784569841607 -51.635590072487702 -17.168951403164666 #
straight-curve $-1 0 35.496828150593529 17.168951403164666 -1 0 0 I I #
End-of-ACIS-data 