500 0 10 0           
7 Unknown 11 ACIS 5.0 NT 24 Fri Mar 26 03:08:03 1999 
-1 9.9999999999999995e-007 1e-010 
body $-1 $10 $-1 $11 #
body $-1 $12 $-1 $13 #
body $-1 $14 $-1 $15 #
body $-1 $16 $-1 $17 #
body $-1 $18 $-1 $19 #
body $-1 $20 $-1 $21 #
body $-1 $22 $-1 $23 #
body $-1 $24 $-1 $25 #
body $-1 $26 $-1 $27 #
body $-1 $28 $-1 $29 #
lump $-1 $-1 $30 $0 #
transform $-1 1 0 0 0 1 0 0 0 1 71.762443922238845 36.499263334295357 16.038422595676085 1 rotate no_reflect no_shear #
lump $-1 $-1 $31 $1 #
transform $-1 1 0 0 0 1 0 0 0 1 71.762443922238845 36.499263334295357 16.038422595676085 1 rotate no_reflect no_shear #
lump $-1 $-1 $32 $2 #
transform $-1 1 0 0 0 1 0 0 0 1 71.762443922238845 36.499263334295357 16.038422595676085 1 rotate no_reflect no_shear #
lump $-1 $-1 $33 $3 #
transform $-1 1 0 0 0 1 0 0 0 1 71.762443922238845 36.499263334295357 16.038422595676085 1 rotate no_reflect no_shear #
lump $-1 $-1 $34 $4 #
transform $-1 1 0 0 0 1 0 0 0 1 71.762443922238845 36.499263334295357 16.038422595676085 1 rotate no_reflect no_shear #
lump $-1 $-1 $35 $5 #
transform $-1 1 0 0 0 1 0 0 0 1 71.762443922238845 36.499263334295357 16.038422595676085 1 rotate no_reflect no_shear #
lump $-1 $-1 $36 $6 #
transform $-1 1 0 0 0 1 0 0 0 1 71.762443922238845 36.499263334295357 16.038422595676085 1 rotate no_reflect no_shear #
lump $-1 $-1 $37 $7 #
transform $-1 1 0 0 0 1 0 0 0 1 71.762443922238845 36.499263334295357 16.038422595676085 1 rotate no_reflect no_shear #
lump $-1 $-1 $38 $8 #
transform $-1 1 0 0 0 1 0 0 0 1 71.762443922238845 36.499263334295357 16.038422595676085 1 rotate no_reflect no_shear #
lump $-1 $-1 $39 $9 #
transform $-1 1 0 0 0 1 0 0 0 1 71.762443922238845 36.499263334295357 16.038422595676085 1 rotate no_reflect no_shear #
shell $-1 $-1 $-1 $40 $-1 $10 #
shell $-1 $-1 $-1 $41 $-1 $12 #
shell $-1 $-1 $-1 $42 $-1 $14 #
shell $-1 $-1 $-1 $43 $-1 $16 #
shell $-1 $-1 $-1 $44 $-1 $18 #
shell $-1 $-1 $-1 $45 $-1 $20 #
shell $-1 $-1 $-1 $46 $-1 $22 #
shell $-1 $-1 $-1 $47 $-1 $24 #
shell $-1 $-1 $-1 $48 $-1 $26 #
shell $-1 $-1 $-1 $49 $-1 $28 #
face $-1 $50 $51 $30 $-1 $52 forward single #
face $-1 $53 $54 $31 $-1 $55 forward single #
face $-1 $56 $57 $32 $-1 $58 reversed single #
face $-1 $59 $60 $33 $-1 $61 forward single #
face $-1 $62 $63 $34 $-1 $64 forward single #
face $-1 $65 $66 $35 $-1 $67 forward single #
face $-1 $68 $69 $36 $-1 $70 reversed single #
face $-1 $71 $72 $37 $-1 $73 forward single #
face $-1 $74 $75 $38 $-1 $76 forward single #
face $-1 $77 $78 $39 $-1 $79 forward single #
face $-1 $80 $81 $30 $-1 $82 reversed single #
loop $-1 $-1 $83 $40 #
plane-surface $-1 0 0 16.038422595676085 0 0 1 1 0 0 forward_v I I I I #
face $-1 $84 $85 $31 $-1 $86 reversed single #
loop $-1 $-1 $87 $41 #
plane-surface $-1 0 -36.499263334295357 0 0 1 0 0 0 1 forward_v I I I I #
face $-1 $88 $89 $32 $-1 $90 reversed single #
loop $-1 $-1 $91 $42 #
plane-surface $-1 85.921255781760635 -16.677484862813955 205.80059417016753 0 -1 0 -0.75470958851134928 0 -0.65605901945558964 forward_v I I I I #
face $-1 $92 $93 $33 $-1 $94 forward single #
loop $-1 $95 $96 $43 #
cone-surface $-1 65.526945565392978 -23.745638649192724 9.0641961267268982 -0.75470958851134928 0 -0.65605901945558964 0.32802950972779482 0 -0.37735479425567464 1 I I 0 1 0.5 forward I I I I #
face $-1 $97 $98 $34 $-1 $99 forward single #
loop $-1 $100 $101 $44 #
cone-surface $-1 65.526945565392978 -21.095080979300686 9.0641961267268982 -0.75470958851134928 0 -0.65605901945558964 0.32802950972779482 0 -0.37735479425567464 1 I I 0 1 0.5 forward I I I I #
face $-1 $102 $103 $35 $-1 $104 forward single #
loop $-1 $105 $106 $45 #
cone-surface $-1 65.526945565392978 -18.444523309408648 9.0641961267268982 -0.75470958851134928 0 -0.65605901945558964 0.32802950972779482 0 -0.37735479425567464 1 I I 0 1 0.5 forward I I I I #
face $-1 $107 $108 $36 $-1 $109 reversed single #
loop $-1 $-1 $110 $46 #
plane-surface $-1 -164.01846464423869 28.201166004549457 113.67250125627706 0 1 0 -0.64278761758704617 0 0.76604443648966558 forward_v I I I I #
face $-1 $111 $112 $37 $-1 $113 forward single #
loop $-1 $114 $115 $47 #
cone-surface $-1 -64.104398746248393 29.860785470498634 9.4992187921990485 0.64278761758704617 0 -0.76604443648966558 0.38302221824483279 0 0.32139380879352308 1 I I 0 1 0.5 forward I I I I #
face $-1 $116 $117 $38 $-1 $118 forward single #
loop $-1 $119 $120 $48 #
cone-surface $-1 -64.104398746248393 32.350214669422407 9.4992187921990485 0.64278761758704617 0 -0.76604443648966558 0.38302221824483279 0 0.32139380879352308 1 I I 0 1 0.5 forward I I I I #
face $-1 $121 $122 $39 $-1 $123 forward single #
loop $-1 $124 $125 $49 #
cone-surface $-1 -64.104398746248393 34.83964386834618 9.4992187921990485 0.64278761758704617 0 -0.76604443648966558 0.38302221824483279 0 0.32139380879352308 1 I I 0 1 0.5 forward I I I I #
face $-1 $126 $127 $30 $-1 $128 reversed single #
loop $-1 $-1 $129 $50 #
plane-surface $-1 0 0 -16.038422595676085 0 0 1 1 0 0 forward_v I I I I #
coedge $-1 $130 $131 $132 $133 forward $51 $-1 #
face $-1 $134 $135 $31 $-1 $136 reversed single #
loop $-1 $-1 $137 $53 #
plane-surface $-1 0 0 -16.038422595676085 0 0 1 1 0 0 forward_v I I I I #
coedge $-1 $138 $139 $140 $141 forward $54 $-1 #
face $-1 $142 $143 $32 $-1 $144 reversed single #
loop $-1 $-1 $145 $56 #
plane-surface $-1 -22.398353264482679 -21.095080979300686 111.63979698344602 0.75470958851134928 0 0.65605901945558964 0.65605901945558964 0 -0.75470958851134928 forward_v I I I I #
coedge $-1 $146 $147 $148 $149 reversed $57 $-1 #
face $-1 $-1 $150 $33 $-1 $151 forward single #
loop $-1 $152 $153 $59 #
cone-surface $-1 64.630666028891739 -23.745638649192724 8.2850722321504939 -0.75470958851134928 0 -0.65605901945558964 0.16401475486389741 0 -0.18867739712783732 1 I I -0.70710678118654746 0.70710678118654746 0.25 forward I I I I #
loop $-1 $-1 $154 $43 #
coedge $-1 $96 $96 $155 $156 reversed $60 $-1 #
face $-1 $-1 $157 $34 $-1 $158 forward single #
loop $-1 $159 $160 $62 #
cone-surface $-1 64.630666028891739 -21.095080979300686 8.2850722321504939 -0.75470958851134928 0 -0.65605901945558964 0.16401475486389741 0 -0.18867739712783732 1 I I -0.70710678118654746 0.70710678118654746 0.25 forward I I I I #
loop $-1 $-1 $161 $44 #
coedge $-1 $101 $101 $162 $163 reversed $63 $-1 #
face $-1 $-1 $164 $35 $-1 $165 forward single #
loop $-1 $166 $167 $65 #
cone-surface $-1 64.630666028891739 -18.444523309408648 8.2850722321504939 -0.75470958851134928 0 -0.65605901945558964 0.16401475486389741 0 -0.18867739712783732 1 I I -0.70710678118654746 0.70710678118654746 0.25 forward I I I I #
loop $-1 $-1 $168 $45 #
coedge $-1 $106 $106 $169 $170 reversed $66 $-1 #
face $-1 $171 $172 $36 $-1 $173 reversed single #
loop $-1 $-1 $174 $68 #
plane-surface $-1 -71.762443922238873 32.350214669422407 3.7260594252116874 -0.64278761758704617 0 0.76604443648966558 0.76604443648966558 0 0.64278761758704617 forward_v I I I I #
coedge $-1 $175 $176 $177 $178 reversed $69 $-1 #
face $-1 $-1 $179 $37 $-1 $180 forward single #
loop $-1 $181 $182 $71 #
cone-surface $-1 -63.622308033058104 29.860785470498634 8.9246854648317999 0.64278761758704617 0 -0.76604443648966558 0.1915111091224164 0 0.16069690439676154 1 I I -0.70710678118654746 0.70710678118654746 0.25 forward I I I I #
loop $-1 $-1 $183 $47 #
coedge $-1 $115 $115 $184 $185 reversed $72 $-1 #
face $-1 $-1 $186 $38 $-1 $187 forward single #
loop $-1 $188 $189 $74 #
cone-surface $-1 -63.622308033058104 32.350214669422407 8.9246854648317999 0.64278761758704617 0 -0.76604443648966558 0.1915111091224164 0 0.16069690439676154 1 I I -0.70710678118654746 0.70710678118654746 0.25 forward I I I I #
loop $-1 $-1 $190 $48 #
coedge $-1 $120 $120 $191 $192 reversed $75 $-1 #
face $-1 $-1 $193 $39 $-1 $194 forward single #
loop $-1 $195 $196 $77 #
cone-surface $-1 -63.622308033058104 34.83964386834618 8.9246854648317999 0.64278761758704617 0 -0.76604443648966558 0.1915111091224164 0 0.16069690439676154 1 I I -0.70710678118654746 0.70710678118654746 0.25 forward I I I I #
loop $-1 $-1 $197 $49 #
coedge $-1 $125 $125 $198 $199 reversed $78 $-1 #
face $-1 $200 $201 $30 $-1 $202 reversed single #
loop $-1 $-1 $203 $80 #
plane-surface $-1 0 -36.499263334295357 0 0 1 0 0 0 1 forward_v I I I I #
coedge $-1 $204 $205 $206 $207 forward $81 $-1 #
coedge $-1 $208 $83 $209 $210 forward $51 $-1 #
coedge $-1 $83 $208 $211 $212 forward $51 $-1 #
coedge $-1 $213 $214 $83 $133 reversed $215 $-1 #
edge $-1 $216 -36.499263334295357 $217 36.499263334295357 $132 $218 forward 7 unknown #
face $-1 $219 $220 $31 $-1 $221 reversed single #
loop $-1 $-1 $222 $84 #
plane-surface $-1 -46.296376181496463 -47.485849572803296 0 0 1 0 0 0 1 forward_v I I I I #
coedge $-1 $223 $224 $139 $225 forward $85 $-1 #
coedge $-1 $226 $87 $227 $228 reversed $54 $-1 #
coedge $-1 $87 $226 $137 $225 reversed $54 $-1 #
coedge $-1 $229 $230 $87 $141 reversed $220 $-1 #
edge $-1 $231 -16.038422595676085 $232 16.038422595676085 $140 $233 forward 7 unknown #
face $-1 $234 $235 $32 $-1 $236 forward single #
loop $-1 $-1 $237 $88 #
plane-surface $-1 85.921255781760635 -25.512677095787417 205.80059417016753 0 1 0 0.75470958851134928 0 0.65605901945558964 forward_v I I I I #
coedge $-1 $238 $239 $240 $241 reversed $89 $-1 #
coedge $-1 $147 $91 $242 $243 reversed $57 $-1 #
coedge $-1 $91 $146 $238 $244 reversed $57 $-1 #
coedge $-1 $240 $245 $91 $149 forward $235 $-1 #
edge $-1 $246 -28.801816031358527 $247 -17.746023596413636 $148 $248 forward 7 unknown #
loop $-1 $-1 $155 $92 #
plane-surface $-1 -22.398353264482679 -21.095080979300686 111.63979698344602 0.75470958851134928 0 0.65605901945558964 0.65605901945558964 0 -0.75470958851134928 forward_v I I I I #
loop $-1 $-1 $249 $59 #
coedge $-1 $153 $153 $154 $250 reversed $93 $-1 #
coedge $-1 $154 $154 $153 $250 forward $95 $-1 #
coedge $-1 $155 $155 $96 $156 forward $150 $-1 #
edge $-1 $251 0 $251 6.2831853071796004 $155 $252 forward 7 unknown #
loop $-1 $-1 $162 $97 #
plane-surface $-1 -22.398353264482679 -21.095080979300686 111.63979698344602 0.75470958851134928 0 0.65605901945558964 0.65605901945558964 0 -0.75470958851134928 forward_v I I I I #
loop $-1 $-1 $253 $62 #
coedge $-1 $160 $160 $161 $254 reversed $98 $-1 #
coedge $-1 $161 $161 $160 $254 forward $100 $-1 #
coedge $-1 $162 $162 $101 $163 forward $157 $-1 #
edge $-1 $255 0 $255 6.2831853071796004 $162 $256 forward 7 unknown #
loop $-1 $-1 $169 $102 #
plane-surface $-1 -22.398353264482679 -21.095080979300686 111.63979698344602 0.75470958851134928 0 0.65605901945558964 0.65605901945558964 0 -0.75470958851134928 forward_v I I I I #
loop $-1 $-1 $257 $65 #
coedge $-1 $167 $167 $168 $258 reversed $103 $-1 #
coedge $-1 $168 $168 $167 $258 forward $105 $-1 #
coedge $-1 $169 $169 $106 $170 forward $164 $-1 #
edge $-1 $259 0 $259 6.2831853071796004 $169 $260 forward 7 unknown #
face $-1 $261 $262 $36 $-1 $263 reversed single #
loop $-1 $-1 $264 $107 #
plane-surface $-1 0 36.499263334295357 0 0 -1 0 0 0 -1 forward_v I I I I #
coedge $-1 $265 $266 $267 $268 reversed $108 $-1 #
coedge $-1 $176 $110 $269 $270 reversed $69 $-1 #
coedge $-1 $110 $175 $265 $271 reversed $69 $-1 #
coedge $-1 $267 $272 $110 $178 forward $273 $-1 #
edge $-1 $274 10.246788399880501 $275 24.920091134274323 $177 $276 forward 7 unknown #
loop $-1 $-1 $184 $111 #
plane-surface $-1 -71.762443922238873 32.350214669422407 3.7260594252116874 -0.64278761758704617 0 0.76604443648966558 0.76604443648966558 0 0.64278761758704617 forward_v I I I I #
loop $-1 $-1 $277 $71 #
coedge $-1 $182 $182 $183 $278 reversed $112 $-1 #
coedge $-1 $183 $183 $182 $278 forward $114 $-1 #
coedge $-1 $184 $184 $115 $185 forward $179 $-1 #
edge $-1 $279 0 $279 6.2831853071796004 $184 $280 forward 7 unknown #
loop $-1 $-1 $191 $116 #
plane-surface $-1 -71.762443922238873 32.350214669422407 3.7260594252116874 -0.64278761758704617 0 0.76604443648966558 0.76604443648966558 0 0.64278761758704617 forward_v I I I I #
loop $-1 $-1 $281 $74 #
coedge $-1 $189 $189 $190 $282 reversed $117 $-1 #
coedge $-1 $190 $190 $189 $282 forward $119 $-1 #
coedge $-1 $191 $191 $120 $192 forward $186 $-1 #
edge $-1 $283 0 $283 6.2831853071796004 $191 $284 forward 7 unknown #
loop $-1 $-1 $198 $121 #
plane-surface $-1 -71.762443922238873 32.350214669422407 3.7260594252116874 -0.64278761758704617 0 0.76604443648966558 0.76604443648966558 0 0.64278761758704617 forward_v I I I I #
loop $-1 $-1 $285 $77 #
coedge $-1 $196 $196 $197 $286 reversed $122 $-1 #
coedge $-1 $197 $197 $196 $286 forward $124 $-1 #
coedge $-1 $198 $198 $125 $199 forward $193 $-1 #
edge $-1 $287 0 $287 6.2831853071796004 $198 $288 forward 7 unknown #
face $-1 $289 $290 $30 $-1 $291 reversed single #
loop $-1 $-1 $292 $126 #
plane-surface $-1 -71.762443922238845 0 0 1 0 0 0 0 -1 forward_v I I I I #
coedge $-1 $293 $211 $294 $295 forward $127 $-1 #
coedge $-1 $296 $129 $293 $297 forward $81 $-1 #
coedge $-1 $129 $296 $298 $299 forward $81 $-1 #
coedge $-1 $214 $213 $129 $207 reversed $215 $-1 #
edge $-1 $300 -36.499263334295357 $301 36.499263334295357 $206 $302 forward 7 unknown #
coedge $-1 $131 $130 $303 $304 forward $51 $-1 #
coedge $-1 $305 $306 $130 $210 reversed $290 $-1 #
edge $-1 $217 -71.762443922238845 $307 71.762443922238845 $209 $308 forward 7 unknown #
coedge $-1 $203 $309 $131 $212 reversed $127 $-1 #
edge $-1 $310 -71.762443922238845 $216 71.762443922238845 $211 $311 forward 7 unknown #
coedge $-1 $206 $132 $309 $312 forward $215 $-1 #
coedge $-1 $132 $206 $305 $313 reversed $215 $-1 #
loop $-1 $-1 $213 $289 #
vertex $-1 $133 $314 #
vertex $-1 $133 $315 #
straight-curve $-1 71.762443922238845 0 16.038422595676085 0 1 0 I I #
face $-1 $316 $317 $31 $-1 $318 reversed single #
loop $-1 $-1 $140 $134 #
plane-surface $-1 -50.621468914495289 -41.992556453549327 0 1 0 0 0 0 -1 forward_v I I I I #
coedge $-1 $319 $320 $321 $322 forward $135 $-1 #
coedge $-1 $323 $137 $324 $325 forward $85 $-1 #
coedge $-1 $137 $323 $229 $326 forward $85 $-1 #
edge $-1 $231 -50.621468914495289 $327 -41.971283448497637 $137 $328 forward 7 unknown #
coedge $-1 $139 $138 $329 $330 forward $54 $-1 #
coedge $-1 $331 $332 $138 $228 forward $333 $-1 #
edge $-1 $334 41.971283448497637 $232 50.621468914495289 $227 $335 forward 7 unknown #
coedge $-1 $321 $140 $224 $326 reversed $220 $-1 #
coedge $-1 $140 $321 $331 $336 reversed $220 $-1 #
vertex $-1 $225 $337 #
vertex $-1 $336 $338 #
straight-curve $-1 -50.621468914495289 -36.499263334295357 0 0 0 1 I I #
face $-1 $-1 $339 $32 $-1 $340 reversed single #
loop $-1 $-1 $148 $142 #
plane-surface $-1 0 0 16.038422595676085 0 0 1 1 0 0 forward_v I I I I #
coedge $-1 $341 $342 $343 $344 reversed $143 $-1 #
coedge $-1 $345 $145 $147 $244 forward $89 $-1 #
coedge $-1 $145 $345 $341 $346 forward $89 $-1 #
coedge $-1 $343 $148 $145 $241 forward $235 $-1 #
edge $-1 $247 6.1299443731636121 $347 14.965136606137074 $240 $348 forward 7 unknown #
coedge $-1 $349 $350 $146 $243 forward $339 $-1 #
edge $-1 $351 -99.580109147881075 $246 -86.861874489407683 $242 $352 forward 7 unknown #
edge $-1 $247 126.67306185461602 $351 143.52488784447775 $147 $353 forward 7 unknown #
coedge $-1 $148 $343 $349 $354 forward $235 $-1 #
vertex $-1 $149 $355 #
vertex $-1 $149 $356 #
straight-curve $-1 42.960627890880318 -16.677484862813955 16.038422595676082 -1 0 0 I I #
coedge $-1 $249 $249 $-1 $357 reversed $152 $-1 #
edge $-1 $358 0 $358 6.2831853071796004 $153 $359 forward 7 unknown #
vertex $-1 $156 $360 #
ellipse-curve $-1 66.234547704766385 -23.745638649192724 9.6793052664394033 0.75470958851134928 0 0.65605901945558964 0.32802950972779482 0 -0.37735479425567464 1 I I #
coedge $-1 $253 $253 $-1 $361 reversed $159 $-1 #
edge $-1 $362 0 $362 6.2831853071796004 $160 $363 forward 7 unknown #
vertex $-1 $163 $364 #
ellipse-curve $-1 66.234547704766385 -21.095080979300686 9.6793052664394033 0.75470958851134928 0 0.65605901945558964 0.32802950972779482 0 -0.37735479425567464 1 I I #
coedge $-1 $257 $257 $-1 $365 reversed $166 $-1 #
edge $-1 $366 0 $366 6.2831853071796004 $167 $367 forward 7 unknown #
vertex $-1 $170 $368 #
ellipse-curve $-1 66.234547704766385 -18.444523309408648 9.6793052664394033 0.75470958851134928 0 0.65605901945558964 0.32802950972779482 0 -0.37735479425567464 1 I I #
face $-1 $-1 $273 $36 $-1 $369 forward single #
loop $-1 $-1 $370 $171 #
plane-surface $-1 -71.762443922238845 0 0 1 0 0 0 0 -1 forward_v I I I I #
coedge $-1 $371 $372 $266 $373 forward $172 $-1 #
coedge $-1 $374 $174 $176 $271 forward $108 $-1 #
coedge $-1 $174 $374 $264 $373 reversed $108 $-1 #
coedge $-1 $375 $177 $174 $268 forward $273 $-1 #
edge $-1 $275 12.026058669838253 $376 20.324155999584153 $267 $377 forward 7 unknown #
coedge $-1 $378 $370 $175 $270 forward $262 $-1 #
edge $-1 $379 -53.110191202926821 $274 -40.797828032462448 $269 $380 forward 7 unknown #
edge $-1 $275 -19.154636513820311 $379 -3.7186864825251173e-014 $176 $381 forward 7 unknown #
coedge $-1 $177 $375 $378 $382 forward $273 $-1 #
loop $-1 $-1 $267 $261 #
vertex $-1 $270 $383 #
vertex $-1 $178 $384 #
straight-curve $-1 -82.009232322119345 28.201166004549457 16.038422595676082 1 0 0 I I #
coedge $-1 $277 $277 $-1 $385 reversed $181 $-1 #
edge $-1 $386 0 $386 6.2831853071796004 $182 $387 forward 7 unknown #
vertex $-1 $185 $388 #
ellipse-curve $-1 -64.425792555041937 29.860785470498634 9.8822410104439005 -0.64278761758704617 0 0.76604443648966558 0.38302221824483279 0 0.32139380879352308 1 I I #
coedge $-1 $281 $281 $-1 $389 reversed $188 $-1 #
edge $-1 $390 0 $390 6.2831853071796004 $189 $391 forward 7 unknown #
vertex $-1 $192 $392 #
ellipse-curve $-1 -64.425792555041937 32.350214669422407 9.8822410104439005 -0.64278761758704617 0 0.76604443648966558 0.38302221824483279 0 0.32139380879352308 1 I I #
coedge $-1 $285 $285 $-1 $393 reversed $195 $-1 #
edge $-1 $394 0 $394 6.2831853071796004 $196 $395 forward 7 unknown #
vertex $-1 $199 $396 #
ellipse-curve $-1 -64.425792555041937 34.83964386834618 9.8822410104439005 -0.64278761758704617 0 0.76604443648966558 0.38302221824483279 0 0.32139380879352308 1 I I #
face $-1 $-1 $215 $30 $-1 $397 reversed single #
loop $-1 $-1 $305 $200 #
plane-surface $-1 0 36.499263334295357 0 0 -1 0 0 0 -1 forward_v I I I I #
coedge $-1 $398 $303 $306 $399 forward $201 $-1 #
coedge $-1 $309 $203 $204 $297 reversed $127 $-1 #
coedge $-1 $303 $398 $203 $295 reversed $201 $-1 #
edge $-1 $310 -16.038422595676085 $400 16.038422595676085 $294 $401 forward 7 unknown #
coedge $-1 $205 $204 $398 $402 forward $81 $-1 #
edge $-1 $301 -71.762443922238845 $400 71.762443922238845 $293 $403 forward 7 unknown #
coedge $-1 $306 $305 $205 $299 reversed $290 $-1 #
edge $-1 $404 -71.762443922238845 $300 71.762443922238845 $298 $405 forward 7 unknown #
vertex $-1 $207 $406 #
vertex $-1 $312 $407 #
straight-curve $-1 71.762443922238845 0 -16.038422595676085 0 -1 0 I I #
coedge $-1 $292 $294 $208 $304 reversed $201 $-1 #
edge $-1 $307 -36.499263334295357 $310 36.499263334295357 $303 $408 forward 7 unknown #
coedge $-1 $298 $209 $214 $313 forward $290 $-1 #
coedge $-1 $209 $298 $292 $399 reversed $290 $-1 #
vertex $-1 $210 $409 #
straight-curve $-1 0 36.499263334295357 16.038422595676085 -1 0 0 I I #
coedge $-1 $211 $293 $213 $312 reversed $127 $-1 #
vertex $-1 $304 $410 #
straight-curve $-1 0 -36.499263334295357 16.038422595676085 1 0 0 I I #
edge $-1 $216 -16.038422595676085 $301 16.038422595676085 $213 $411 forward 7 unknown #
edge $-1 $217 -16.038422595676085 $300 16.038422595676085 $214 $412 forward 7 unknown #
point $-1 71.762443922238845 -36.499263334295357 16.038422595676085 #
point $-1 71.762443922238845 36.499263334295357 16.038422595676085 #
face $-1 $-1 $333 $31 $-1 $413 forward single #
loop $-1 $-1 $414 $219 #
plane-surface $-1 -41.971283448497637 -41.992556453549327 0 -1 0 0 0 0 1 forward_v I I I I #
coedge $-1 $415 $222 $323 $416 reversed $135 $-1 #
coedge $-1 $222 $415 $417 $418 reversed $135 $-1 #
coedge $-1 $230 $229 $222 $322 reversed $220 $-1 #
edge $-1 $419 -16.038422595676085 $420 16.038422595676085 $321 $421 forward 7 unknown #
coedge $-1 $224 $223 $319 $416 forward $85 $-1 #
coedge $-1 $329 $414 $223 $325 reversed $317 $-1 #
edge $-1 $327 -5.4932931192539698 $422 5.4932931192539698 $324 $423 forward 7 unknown #
edge $-1 $420 -5.4932931192539698 $231 5.4932931192539698 $229 $424 forward 7 unknown #
vertex $-1 $325 $425 #
straight-curve $-1 0 -36.499263334295357 -16.038422595676085 1 0 0 I I #
coedge $-1 $426 $324 $226 $330 reversed $317 $-1 #
edge $-1 $334 -16.038422595676085 $327 16.038422595676085 $329 $427 forward 7 unknown #
coedge $-1 $417 $227 $230 $336 forward $333 $-1 #
coedge $-1 $227 $417 $426 $428 forward $333 $-1 #
loop $-1 $-1 $227 $316 #
vertex $-1 $228 $429 #
straight-curve $-1 0 -36.499263334295357 16.038422595676085 -1 0 0 I I #
edge $-1 $232 -5.4932931192539698 $419 5.4932931192539698 $230 $430 forward 7 unknown #
point $-1 -50.621468914495289 -36.499263334295357 -16.038422595676085 #
point $-1 -50.621468914495289 -36.499263334295357 16.038422595676085 #
loop $-1 $-1 $242 $234 #
plane-surface $-1 71.762443922238845 0 0 -1 0 0 0 0 1 forward_v I I I I #
coedge $-1 $342 $237 $239 $346 reversed $143 $-1 #
coedge $-1 $237 $341 $431 $432 reversed $143 $-1 #
coedge $-1 $245 $240 $237 $344 forward $235 $-1 #
edge $-1 $347 17.746023596413636 $433 28.801816031358527 $343 $434 forward 7 unknown #
coedge $-1 $239 $238 $350 $435 reversed $89 $-1 #
edge $-1 $436 -143.52488784447775 $347 -126.67306185461602 $341 $437 forward 7 unknown #
vertex $-1 $241 $438 #
straight-curve $-1 60.706651487293954 -10.547540489650343 16.038422595676074 0 -1 0 I I #
coedge $-1 $431 $242 $245 $354 reversed $339 $-1 #
coedge $-1 $242 $431 $345 $435 forward $339 $-1 #
vertex $-1 $243 $439 #
straight-curve $-1 71.762443922238845 -16.677484862813955 102.90029708508376 0 0 1 I I #
straight-curve $-1 -22.398353264482679 -16.677484862813955 111.63979698344602 0.65605901945558964 0 -0.75470958851134928 I I #
edge $-1 $433 -25.512677095787417 $246 -16.677484862813955 $349 $440 forward 7 unknown #
point $-1 71.762443922238845 -16.677484862813955 16.038422595676085 #
point $-1 60.706651487293954 -16.677484862813955 16.038422595676082 #
edge $-1 $441 1 $441 0 $249 $-1 forward 7 unknown #
vertex $-1 $250 $442 #
ellipse-curve $-1 64.819343426019572 -23.745638649192724 8.4490869870143914 0.75470958851134928 0 0.65605901945558964 0.32802950972779482 0 -0.37735479425567464 1 I I #
point $-1 66.562577214494183 -23.745638649192724 9.3019504721837318 #
edge $-1 $443 1 $443 0 $253 $-1 forward 7 unknown #
vertex $-1 $254 $444 #
ellipse-curve $-1 64.819343426019572 -21.095080979300686 8.4490869870143914 0.75470958851134928 0 0.65605901945558964 0.32802950972779482 0 -0.37735479425567464 1 I I #
point $-1 66.562577214494183 -21.095080979300686 9.3019504721837318 #
edge $-1 $445 1 $445 0 $257 $-1 forward 7 unknown #
vertex $-1 $258 $446 #
ellipse-curve $-1 64.819343426019572 -18.444523309408648 8.4490869870143914 0.75470958851134928 0 0.65605901945558964 0.32802950972779482 0 -0.37735479425567464 1 I I #
point $-1 66.562577214494183 -18.444523309408648 9.3019504721837318 #
plane-surface $-1 0 0 16.038422595676085 0 0 1 1 0 0 forward_v I I I I #
coedge $-1 $269 $447 $374 $448 forward $262 $-1 #
coedge $-1 $372 $264 $447 $449 reversed $172 $-1 #
coedge $-1 $264 $371 $375 $450 reversed $172 $-1 #
edge $-1 $376 7.134441513486256 $451 26.289078027306527 $264 $452 forward 7 unknown #
coedge $-1 $266 $265 $370 $448 reversed $108 $-1 #
coedge $-1 $272 $267 $372 $450 forward $273 $-1 #
vertex $-1 $450 $453 #
straight-curve $-1 -57.089141187845016 16.175107334711203 16.038422595676085 0 1 0 I I #
coedge $-1 $447 $269 $272 $382 reversed $262 $-1 #
vertex $-1 $270 $454 #
straight-curve $-1 -71.762443922238845 28.201166004549457 56.836250628138529 0 0 1 I I #
straight-curve $-1 -71.762443922238873 28.201166004549457 3.7260594252116874 -0.76604443648966558 0 -0.64278761758704617 I I #
edge $-1 $455 -36.499263334295357 $274 -28.201166004549457 $378 $456 forward 7 unknown #
point $-1 -71.762443922238845 28.201166004549457 16.038422595676085 #
point $-1 -57.089141187845023 28.201166004549457 16.038422595676089 #
edge $-1 $457 1 $457 0 $277 $-1 forward 7 unknown #
vertex $-1 $278 $458 #
ellipse-curve $-1 -63.783004937454862 29.860785470498634 9.1161965739542161 -0.64278761758704617 0 0.76604443648966558 0.38302221824483279 0 0.32139380879352308 1 I I #
point $-1 -64.042770336797076 29.860785470498634 10.203634819237404 #
edge $-1 $459 1 $459 0 $281 $-1 forward 7 unknown #
vertex $-1 $282 $460 #
ellipse-curve $-1 -63.783004937454862 32.350214669422407 9.1161965739542161 -0.64278761758704617 0 0.76604443648966558 0.38302221824483279 0 0.32139380879352308 1 I I #
point $-1 -64.042770336797076 32.350214669422407 10.203634819237404 #
edge $-1 $461 1 $461 0 $285 $-1 forward 7 unknown #
vertex $-1 $286 $462 #
ellipse-curve $-1 -63.783004937454862 34.83964386834618 9.1161965739542161 -0.64278761758704617 0 0.76604443648966558 0.38302221824483279 0 0.32139380879352308 1 I I #
point $-1 -64.042770336797076 34.83964386834618 10.203634819237404 #
plane-surface $-1 71.762443922238845 0 0 -1 0 0 0 0 1 forward_v I I I I #
coedge $-1 $294 $292 $296 $402 reversed $201 $-1 #
edge $-1 $307 -16.038422595676085 $404 16.038422595676085 $306 $463 forward 7 unknown #
vertex $-1 $402 $464 #
straight-curve $-1 -71.762443922238845 -36.499263334295357 0 0 0 -1 I I #
edge $-1 $400 -36.499263334295357 $404 36.499263334295357 $398 $465 forward 7 unknown #
straight-curve $-1 0 -36.499263334295357 -16.038422595676085 -1 0 0 I I #
vertex $-1 $299 $466 #
straight-curve $-1 0 36.499263334295357 -16.038422595676085 1 0 0 I I #
point $-1 71.762443922238845 36.499263334295357 -16.038422595676085 #
point $-1 71.762443922238845 -36.499263334295357 -16.038422595676085 #
straight-curve $-1 -71.762443922238845 0 16.038422595676085 0 -1 0 I I #
point $-1 -71.762443922238845 36.499263334295357 16.038422595676085 #
point $-1 -71.762443922238845 -36.499263334295357 16.038422595676085 #
straight-curve $-1 71.762443922238845 -36.499263334295357 0 0 0 -1 I I #
straight-curve $-1 71.762443922238845 36.499263334295357 0 0 0 -1 I I #
plane-surface $-1 0 0 16.038422595676085 0 0 1 1 0 0 forward_v I I I I #
coedge $-1 $324 $426 $415 $467 forward $317 $-1 #
coedge $-1 $320 $319 $414 $467 reversed $135 $-1 #
edge $-1 $422 -4.3250927329988258 $420 4.3250927329988258 $319 $468 forward 7 unknown #
coedge $-1 $332 $331 $320 $418 forward $333 $-1 #
edge $-1 $419 -4.3250927329988258 $469 4.3250927329988258 $320 $470 forward 7 unknown #
vertex $-1 $336 $471 #
vertex $-1 $326 $472 #
straight-curve $-1 -50.621468914495289 -47.485849572803296 0 0 0 -1 I I #
vertex $-1 $467 $473 #
straight-curve $-1 -41.971283448497637 -41.992556453549327 -16.038422595676085 0 -1 0 I I #
straight-curve $-1 -50.621468914495289 -41.992556453549327 -16.038422595676085 0 1 0 I I #
point $-1 -41.971283448497637 -36.499263334295357 -16.038422595676085 #
coedge $-1 $414 $329 $332 $428 reversed $317 $-1 #
straight-curve $-1 -41.971283448497637 -36.499263334295357 0 0 0 -1 I I #
edge $-1 $469 -5.4932931192539698 $334 5.4932931192539698 $426 $474 forward 7 unknown #
point $-1 -41.971283448497637 -36.499263334295357 16.038422595676085 #
straight-curve $-1 -50.621468914495289 -41.992556453549327 16.038422595676085 0 -1 0 I I #
coedge $-1 $350 $349 $342 $432 forward $339 $-1 #
edge $-1 $433 86.861874489407683 $436 99.580109147881075 $431 $475 forward 7 unknown #
vertex $-1 $354 $476 #
straight-curve $-1 42.960627890880318 -25.512677095787417 16.038422595676082 1 0 0 I I #
edge $-1 $436 -14.965136606137074 $351 -6.1299443731636121 $350 $477 forward 7 unknown #
vertex $-1 $435 $478 #
straight-curve $-1 -22.398353264482679 -25.512677095787417 111.63979698344602 -0.65605901945558964 0 0.75470958851134928 I I #
point $-1 60.706651487293954 -25.512677095787417 16.038422595676082 #
point $-1 71.762443922238845 -16.677484862813955 3.3201879372026895 #
straight-curve $-1 71.762443922238845 0 16.038422595676085 0 1 0 I I #
vertex $-1 $357 $479 #
point $-1 65.14737293574737 -23.745638649192724 8.0717321927587165 #
vertex $-1 $361 $480 #
point $-1 65.14737293574737 -21.095080979300686 8.0717321927587165 #
vertex $-1 $365 $481 #
point $-1 65.14737293574737 -18.444523309408648 8.0717321927587165 #
coedge $-1 $370 $378 $371 $449 forward $262 $-1 #
edge $-1 $451 -20.324155999584153 $379 -12.026058669838253 $370 $482 forward 7 unknown #
edge $-1 $455 -16.038422595676085 $451 -3.7260594252117114 $371 $483 forward 7 unknown #
edge $-1 $376 57.089141187845023 $455 71.762443922238845 $372 $484 forward 7 unknown #
vertex $-1 $448 $485 #
straight-curve $-1 -51.623841958977962 36.499263334295357 20.624353258944033 -0.76604443648966558 0 -0.64278761758704617 I I #
point $-1 -57.089141187845023 36.499263334295357 16.038422595676089 #
point $-1 -71.762443922238845 28.201166004549457 3.7260594252117114 #
vertex $-1 $450 $486 #
straight-curve $-1 -71.762443922238845 0 16.038422595676085 0 -1 0 I I #
vertex $-1 $385 $487 #
point $-1 -63.39998271921003 29.860785470498634 9.4375903827477394 #
vertex $-1 $389 $488 #
point $-1 -63.39998271921003 32.350214669422407 9.4375903827477394 #
vertex $-1 $393 $489 #
point $-1 -63.39998271921003 34.83964386834618 9.4375903827477394 #
straight-curve $-1 -71.762443922238845 36.499263334295357 0 0 0 -1 I I #
point $-1 -71.762443922238845 -36.499263334295357 -16.038422595676085 #
straight-curve $-1 -71.762443922238845 0 -16.038422595676085 0 1 0 I I #
point $-1 -71.762443922238845 36.499263334295357 -16.038422595676085 #
edge $-1 $469 -16.038422595676085 $422 16.038422595676085 $414 $490 forward 7 unknown #
straight-curve $-1 -46.296376181496463 -47.485849572803296 -16.038422595676085 -1 0 0 I I #
vertex $-1 $428 $491 #
straight-curve $-1 -46.296376181496463 -47.485849572803296 16.038422595676085 1 0 0 I I #
point $-1 -50.621468914495289 -47.485849572803296 16.038422595676085 #
point $-1 -50.621468914495289 -47.485849572803296 -16.038422595676085 #
point $-1 -41.971283448497637 -47.485849572803296 -16.038422595676085 #
straight-curve $-1 -41.971283448497637 -41.992556453549327 16.038422595676085 0 1 0 I I #
straight-curve $-1 71.762443922238845 -25.512677095787417 102.90029708508376 0 0 -1 I I #
point $-1 71.762443922238845 -25.512677095787417 16.038422595676085 #
straight-curve $-1 71.762443922238845 -10.547540489650343 3.3201879372026895 0 1 0 I I #
point $-1 71.762443922238845 -25.512677095787417 3.3201879372026895 #
point $-1 64.441988631763905 -23.745638649192724 8.1210574772865964 #
point $-1 64.441988631763905 -21.095080979300686 8.1210574772865964 #
point $-1 64.441988631763905 -18.444523309408648 8.1210574772865964 #
straight-curve $-1 -71.762443922238845 16.175107334711203 3.7260594252117079 0 -1 0 I I #
straight-curve $-1 -71.762443922238845 36.499263334295357 0 0 0 -1 I I #
straight-curve $-1 0 36.499263334295357 16.038422595676085 -1 0 0 I I #
point $-1 -71.762443922238845 36.499263334295357 3.7260594252117114 #
point $-1 -71.762443922238845 36.499263334295357 16.038422595676085 #
point $-1 -63.461611128661346 29.860785470498634 8.7331743557093837 #
point $-1 -63.461611128661346 32.350214669422407 8.7331743557093837 #
point $-1 -63.461611128661346 34.83964386834618 8.7331743557093837 #
straight-curve $-1 -41.971283448497637 -47.485849572803296 0 0 0 -1 I I #
point $-1 -41.971283448497637 -47.485849572803296 16.038422595676085 #
End-of-ACIS-data 