500 0 7 0           
7 Unknown 11 ACIS 5.0 NT 24 Fri Mar 26 19:23:05 1999 
-1 9.9999999999999995e-007 1e-010 
body $-1 $7 $-1 $8 #
body $-1 $9 $-1 $10 #
body $-1 $11 $-1 $12 #
body $-1 $13 $-1 $14 #
body $-1 $15 $-1 $16 #
body $-1 $17 $-1 $18 #
body $-1 $19 $-1 $20 #
lump $-1 $-1 $21 $0 #
transform $-1 1 0 0 0 1 0 0 0 1 79.151585436567274 51.577643734293169 13.825553703769561 1 rotate no_reflect no_shear #
lump $-1 $-1 $22 $1 #
transform $-1 1 0 0 0 1 0 0 0 1 79.151585436567274 51.577643734293169 13.825553703769561 1 rotate no_reflect no_shear #
lump $-1 $-1 $23 $2 #
transform $-1 1 0 0 0 1 0 0 0 1 79.151585436567274 51.577643734293169 13.825553703769561 1 rotate no_reflect no_shear #
lump $-1 $-1 $24 $3 #
transform $-1 1 0 0 0 1 0 0 0 1 79.151585436567274 51.577643734293169 13.825553703769561 1 rotate no_reflect no_shear #
lump $-1 $-1 $25 $4 #
transform $-1 1 0 0 0 1 0 0 0 1 79.151585436567274 51.577643734293169 13.825553703769561 1 rotate no_reflect no_shear #
lump $-1 $-1 $26 $5 #
transform $-1 1 0 0 0 1 0 0 0 1 79.151585436567274 51.577643734293169 13.825553703769561 1 rotate no_reflect no_shear #
lump $-1 $-1 $27 $6 #
transform $-1 1 0 0 0 1 0 0 0 1 79.151585436567274 51.577643734293169 13.825553703769561 1 rotate no_reflect no_shear #
shell $-1 $-1 $-1 $28 $-1 $7 #
shell $-1 $-1 $-1 $29 $-1 $9 #
shell $-1 $-1 $-1 $30 $-1 $11 #
shell $-1 $-1 $-1 $31 $-1 $13 #
shell $-1 $-1 $-1 $32 $-1 $15 #
shell $-1 $-1 $-1 $33 $-1 $17 #
shell $-1 $-1 $-1 $34 $-1 $19 #
face $-1 $35 $36 $21 $-1 $37 forward single #
face $-1 $38 $39 $22 $-1 $40 reversed single #
face $-1 $41 $42 $23 $-1 $43 reversed single #
face $-1 $44 $45 $24 $-1 $46 forward single #
face $-1 $47 $48 $25 $-1 $49 reversed single #
face $-1 $50 $51 $26 $-1 $52 forward single #
face $-1 $53 $54 $27 $-1 $55 forward single #
face $-1 $56 $57 $21 $-1 $58 reversed single #
loop $-1 $-1 $59 $28 #
plane-surface $-1 0 0 13.825553703769561 0 0 1 1 0 0 forward_v I I I I #
face $-1 $60 $61 $22 $-1 $62 reversed single #
loop $-1 $-1 $63 $29 #
plane-surface $-1 -73.613086307541494 -43.067934629014637 0 1 0 0 0 0 -1 forward_v I I I I #
face $-1 $64 $65 $23 $-1 $66 reversed single #
loop $-1 $-1 $67 $30 #
plane-surface $-1 67.434902281429203 4.610485876663823 230.38473516853958 0 -1 0 -0.66913061440640931 0 -0.74314481823134659 forward_v I I I I #
face $-1 $68 $69 $24 $-1 $70 forward single #
loop $-1 $71 $72 $31 #
cone-surface $-1 73.933770361172535 -2.4146859058802121 8.8486854057043747 -0.66913061440640931 0 -0.74314481823134659 1.1147172273470198 0 -1.003695921609614 1 I I 0 1 1.5 forward I I I I #
face $-1 $73 $74 $25 $-1 $75 reversed single #
loop $-1 $-1 $76 $32 #
plane-surface $-1 -194.9271967409997 8.1594941356584272 111.44866878742779 0 1 0 -0.73135370988377701 0 0.68199835119979291 forward_v I I I I #
face $-1 $77 $78 $26 $-1 $79 forward single #
loop $-1 $80 $81 $33 #
cone-surface $-1 -72.617761115950373 13.157927433088425 7.0584551679838619 0.73135370988377701 0 -0.68199835119979291 1.0229975267996894 0 1.0970305648256655 1 I I 0 1 1.5 forward I I I I #
face $-1 $82 $83 $27 $-1 $84 forward single #
loop $-1 $85 $86 $34 #
cone-surface $-1 -72.617761115950373 20.655577379233428 7.0584551679838619 0.73135370988377701 0 -0.68199835119979291 1.0229975267996894 0 1.0970305648256655 1 I I 0 1 1.5 forward I I I I #
face $-1 $87 $88 $21 $-1 $89 reversed single #
loop $-1 $-1 $90 $35 #
plane-surface $-1 0 0 -13.825553703769561 0 0 1 1 0 0 forward_v I I I I #
coedge $-1 $91 $92 $93 $94 forward $36 $-1 #
face $-1 $95 $96 $22 $-1 $97 reversed single #
loop $-1 $-1 $98 $38 #
plane-surface $-1 -70.482959345921131 -34.558225523736105 0 0 -1 0 0 0 -1 forward_v I I I I #
coedge $-1 $99 $100 $101 $102 forward $39 $-1 #
face $-1 $103 $104 $23 $-1 $105 reversed single #
loop $-1 $-1 $106 $41 #
plane-surface $-1 -38.490595707394121 -2.4146859058802121 112.7425540245782 0.66913061440640931 0 0.74314481823134659 0.74314481823134659 0 -0.66913061440640931 forward_v I I I I #
coedge $-1 $107 $108 $109 $110 reversed $42 $-1 #
face $-1 $-1 $111 $24 $-1 $112 forward single #
loop $-1 $113 $114 $44 #
cone-surface $-1 72.105969850342518 -2.4146859058802121 6.8187073279729979 -0.66913061440640931 0 -0.74314481823134659 0.55735861367350992 0 -0.50184796080480698 1 I I -0.70710678118654757 0.70710678118654757 0.75 forward I I I I #
loop $-1 $-1 $115 $31 #
coedge $-1 $72 $72 $116 $117 reversed $45 $-1 #
face $-1 $118 $119 $25 $-1 $120 reversed single #
loop $-1 $-1 $121 $47 #
plane-surface $-1 -79.151585436567288 16.906752406160926 3.4861672622509445 -0.73135370988377701 0 0.68199835119979291 0.68199835119979291 0 0.73135370988377701 forward_v I I I I #
coedge $-1 $122 $123 $124 $125 reversed $48 $-1 #
face $-1 $-1 $126 $26 $-1 $127 forward single #
loop $-1 $128 $129 $50 #
cone-surface $-1 -70.356238314857535 13.157927433088425 4.9495510895576338 0.73135370988377701 0 -0.68199835119979291 0.51149876339984468 0 0.54851528241283276 1 I I -0.70710678118654757 0.70710678118654757 0.75 forward I I I I #
loop $-1 $-1 $130 $33 #
coedge $-1 $81 $81 $131 $132 reversed $51 $-1 #
face $-1 $-1 $133 $27 $-1 $134 forward single #
loop $-1 $135 $136 $53 #
cone-surface $-1 -70.356238314857535 20.655577379233428 4.9495510895576338 0.73135370988377701 0 -0.68199835119979291 0.51149876339984468 0 0.54851528241283276 1 I I -0.70710678118654757 0.70710678118654757 0.75 forward I I I I #
loop $-1 $-1 $137 $34 #
coedge $-1 $86 $86 $138 $139 reversed $54 $-1 #
face $-1 $140 $141 $21 $-1 $142 reversed single #
loop $-1 $-1 $143 $56 #
plane-surface $-1 0 -51.577643734293169 0 0 1 0 0 0 1 forward_v I I I I #
coedge $-1 $144 $145 $146 $147 forward $57 $-1 #
coedge $-1 $148 $59 $149 $150 forward $36 $-1 #
coedge $-1 $59 $148 $151 $152 forward $36 $-1 #
coedge $-1 $153 $154 $59 $94 reversed $155 $-1 #
edge $-1 $156 -51.577643734293169 $157 51.577643734293169 $93 $158 forward 7 unknown #
face $-1 $159 $160 $22 $-1 $161 forward single #
loop $-1 $-1 $162 $60 #
plane-surface $-1 -67.352832384300768 -43.067934629014637 0 -1 0 0 0 0 1 forward_v I I I I #
coedge $-1 $163 $164 $165 $166 forward $61 $-1 #
coedge $-1 $167 $63 $168 $169 reversed $39 $-1 #
coedge $-1 $63 $167 $170 $171 reversed $39 $-1 #
coedge $-1 $164 $163 $63 $102 reversed $61 $-1 #
edge $-1 $172 -13.825553703769561 $173 13.825553703769561 $101 $174 forward 7 unknown #
face $-1 $175 $176 $23 $-1 $177 reversed single #
loop $-1 $-1 $178 $64 #
plane-surface $-1 67.434902281429203 -9.4398576884242473 230.38473516853958 0 1 0 0.66913061440640931 0 0.74314481823134659 forward_v I I I I #
coedge $-1 $179 $180 $181 $182 reversed $65 $-1 #
coedge $-1 $108 $67 $183 $184 reversed $42 $-1 #
coedge $-1 $67 $107 $179 $185 reversed $42 $-1 #
coedge $-1 $181 $186 $67 $110 forward $187 $-1 #
edge $-1 $188 -45.434134295852672 $189 -37.650409245113593 $109 $190 forward 7 unknown #
loop $-1 $-1 $116 $68 #
plane-surface $-1 -38.490595707394121 -2.4146859058802121 112.7425540245782 0.66913061440640931 0 0.74314481823134659 0.74314481823134659 0 -0.66913061440640931 forward_v I I I I #
loop $-1 $-1 $191 $44 #
coedge $-1 $114 $114 $115 $192 reversed $69 $-1 #
coedge $-1 $115 $115 $114 $192 forward $71 $-1 #
coedge $-1 $116 $116 $72 $117 forward $111 $-1 #
edge $-1 $193 0 $193 6.2831853071796004 $116 $194 forward 7 unknown #
face $-1 $195 $196 $25 $-1 $197 reversed single #
loop $-1 $-1 $198 $73 #
plane-surface $-1 -194.9271967409997 25.654010676663425 111.44866878742779 0 -1 0 0.73135370988377701 0 -0.68199835119979291 forward_v I I I I #
coedge $-1 $199 $200 $201 $202 reversed $74 $-1 #
coedge $-1 $123 $76 $203 $204 reversed $48 $-1 #
coedge $-1 $76 $122 $199 $205 reversed $48 $-1 #
coedge $-1 $201 $206 $76 $125 forward $207 $-1 #
edge $-1 $208 18.312012933932579 $209 27.953646537806364 $124 $210 forward 7 unknown #
loop $-1 $-1 $131 $77 #
plane-surface $-1 -79.151585436567288 16.906752406160926 3.4861672622509445 -0.73135370988377701 0 0.68199835119979291 0.68199835119979291 0 0.73135370988377701 forward_v I I I I #
loop $-1 $-1 $211 $50 #
coedge $-1 $129 $129 $130 $212 reversed $78 $-1 #
coedge $-1 $130 $130 $129 $212 forward $80 $-1 #
coedge $-1 $131 $131 $81 $132 forward $126 $-1 #
edge $-1 $213 0 $213 6.2831853071796004 $131 $214 forward 7 unknown #
loop $-1 $-1 $138 $82 #
plane-surface $-1 -79.151585436567288 16.906752406160926 3.4861672622509445 -0.73135370988377701 0 0.68199835119979291 0.68199835119979291 0 0.73135370988377701 forward_v I I I I #
loop $-1 $-1 $215 $53 #
coedge $-1 $136 $136 $137 $216 reversed $83 $-1 #
coedge $-1 $137 $137 $136 $216 forward $85 $-1 #
coedge $-1 $138 $138 $86 $139 forward $133 $-1 #
edge $-1 $217 0 $217 6.2831853071796004 $138 $218 forward 7 unknown #
face $-1 $219 $220 $21 $-1 $221 reversed single #
loop $-1 $-1 $222 $87 #
plane-surface $-1 -79.151585436567274 0 0 1 0 0 0 0 -1 forward_v I I I I #
coedge $-1 $223 $151 $224 $225 forward $88 $-1 #
coedge $-1 $226 $90 $223 $227 forward $57 $-1 #
coedge $-1 $90 $226 $228 $229 forward $57 $-1 #
coedge $-1 $154 $153 $90 $147 reversed $155 $-1 #
edge $-1 $230 -51.577643734293169 $231 51.577643734293169 $146 $232 forward 7 unknown #
coedge $-1 $92 $91 $233 $234 forward $36 $-1 #
coedge $-1 $235 $236 $91 $150 reversed $220 $-1 #
edge $-1 $157 -79.151585436567274 $237 79.151585436567274 $149 $238 forward 7 unknown #
coedge $-1 $143 $239 $92 $152 reversed $88 $-1 #
edge $-1 $240 -79.151585436567274 $156 79.151585436567274 $151 $241 forward 7 unknown #
coedge $-1 $146 $93 $239 $242 forward $155 $-1 #
coedge $-1 $93 $146 $235 $243 reversed $155 $-1 #
loop $-1 $-1 $153 $219 #
vertex $-1 $94 $244 #
vertex $-1 $94 $245 #
straight-curve $-1 79.151585436567274 0 13.825553703769561 0 1 0 I I #
face $-1 $246 $247 $22 $-1 $248 reversed single #
loop $-1 $-1 $249 $95 #
plane-surface $-1 0 0 13.825553703769561 0 0 1 1 0 0 forward_v I I I I #
coedge $-1 $250 $251 $252 $253 reversed $96 $-1 #
coedge $-1 $101 $98 $254 $255 reversed $61 $-1 #
coedge $-1 $98 $101 $256 $257 reversed $61 $-1 #
coedge $-1 $251 $250 $98 $166 reversed $96 $-1 #
edge $-1 $258 -13.825553703769561 $259 13.825553703769561 $165 $260 forward 7 unknown #
coedge $-1 $100 $99 $261 $262 reversed $39 $-1 #
coedge $-1 $254 $263 $99 $169 forward $247 $-1 #
edge $-1 $264 -30.04367641978585 $173 -13.024258209228787 $168 $265 forward 7 unknown #
coedge $-1 $266 $256 $100 $171 forward $160 $-1 #
edge $-1 $172 13.024258209228787 $267 30.04367641978585 $170 $268 forward 7 unknown #
vertex $-1 $171 $269 #
vertex $-1 $169 $270 #
straight-curve $-1 -73.613086307541494 -34.558225523736105 0 0 0 -1 I I #
face $-1 $-1 $187 $23 $-1 $271 forward single #
loop $-1 $-1 $272 $103 #
plane-surface $-1 79.151585436567274 0 0 -1 0 0 0 0 1 forward_v I I I I #
coedge $-1 $273 $274 $275 $276 reversed $104 $-1 #
coedge $-1 $277 $106 $108 $185 forward $65 $-1 #
coedge $-1 $106 $277 $273 $278 forward $65 $-1 #
coedge $-1 $275 $109 $106 $182 forward $187 $-1 #
edge $-1 $189 -5.8178288296039291 $279 8.2325147354841413 $181 $280 forward 7 unknown #
coedge $-1 $281 $282 $107 $184 forward $176 $-1 #
edge $-1 $283 -108.37531154851493 $188 -101.36681388050023 $183 $284 forward 7 unknown #
edge $-1 $189 147.82913558447575 $283 158.30317087313458 $108 $285 forward 7 unknown #
coedge $-1 $109 $275 $281 $286 forward $187 $-1 #
loop $-1 $-1 $275 $175 #
vertex $-1 $184 $287 #
vertex $-1 $110 $288 #
straight-curve $-1 33.717451140714601 4.610485876663823 13.825553703769558 -1 0 0 I I #
coedge $-1 $191 $191 $-1 $289 reversed $113 $-1 #
edge $-1 $290 0 $290 6.2831853071796004 $114 $291 forward 7 unknown #
vertex $-1 $117 $292 #
ellipse-curve $-1 75.259722911197727 -2.4146859058802121 10.321304869762216 0.66913061440640931 0 0.74314481823134659 1.1147172273470198 0 -1.003695921609614 1 I I #
face $-1 $-1 $207 $25 $-1 $293 forward single #
loop $-1 $-1 $294 $118 #
plane-surface $-1 -79.151585436567274 0 0 1 0 0 0 0 -1 forward_v I I I I #
coedge $-1 $295 $296 $297 $298 reversed $119 $-1 #
coedge $-1 $299 $121 $123 $205 forward $74 $-1 #
coedge $-1 $121 $299 $295 $300 forward $74 $-1 #
coedge $-1 $297 $124 $121 $202 forward $207 $-1 #
edge $-1 $209 -0.29388206742203593 $301 17.200634473582962 $201 $302 forward 7 unknown #
coedge $-1 $303 $304 $122 $204 forward $196 $-1 #
edge $-1 $305 -52.238167131462937 $208 -41.898780689944331 $203 $306 forward 7 unknown #
edge $-1 $209 -14.137326852641113 $305 -2.0734513383776317e-014 $123 $307 forward 7 unknown #
coedge $-1 $124 $297 $303 $308 forward $207 $-1 #
loop $-1 $-1 $297 $195 #
vertex $-1 $204 $309 #
vertex $-1 $125 $310 #
straight-curve $-1 -97.463598370499852 8.1594941356584272 13.825553703769558 1 0 0 I I #
coedge $-1 $211 $211 $-1 $311 reversed $128 $-1 #
edge $-1 $312 0 $312 6.2831853071796004 $129 $313 forward 7 unknown #
vertex $-1 $132 $314 #
ellipse-curve $-1 -74.330768634630388 13.157927433088425 8.6558604830102581 -0.73135370988377701 0 0.68199835119979291 1.0229975267996894 0 1.0970305648256655 1 I I #
coedge $-1 $215 $215 $-1 $315 reversed $135 $-1 #
edge $-1 $316 0 $316 6.2831853071796004 $136 $317 forward 7 unknown #
vertex $-1 $139 $318 #
ellipse-curve $-1 -74.330768634630388 20.655577379233428 8.6558604830102581 -0.73135370988377701 0 0.68199835119979291 1.0229975267996894 0 1.0970305648256655 1 I I #
face $-1 $-1 $155 $21 $-1 $319 reversed single #
loop $-1 $-1 $235 $140 #
plane-surface $-1 0 51.577643734293169 0 0 -1 0 0 0 -1 forward_v I I I I #
coedge $-1 $320 $233 $236 $321 forward $141 $-1 #
coedge $-1 $239 $143 $144 $227 reversed $88 $-1 #
coedge $-1 $233 $320 $143 $225 reversed $141 $-1 #
edge $-1 $240 -13.825553703769561 $322 13.825553703769561 $224 $323 forward 7 unknown #
coedge $-1 $145 $144 $320 $324 forward $57 $-1 #
edge $-1 $231 -79.151585436567274 $322 79.151585436567274 $223 $325 forward 7 unknown #
coedge $-1 $236 $235 $145 $229 reversed $220 $-1 #
edge $-1 $326 -79.151585436567274 $230 79.151585436567274 $228 $327 forward 7 unknown #
vertex $-1 $147 $328 #
vertex $-1 $242 $329 #
straight-curve $-1 79.151585436567274 0 -13.825553703769561 0 -1 0 I I #
coedge $-1 $222 $224 $148 $234 reversed $141 $-1 #
edge $-1 $237 -51.577643734293169 $240 51.577643734293169 $233 $330 forward 7 unknown #
coedge $-1 $228 $149 $154 $243 forward $220 $-1 #
coedge $-1 $149 $228 $222 $321 reversed $220 $-1 #
vertex $-1 $150 $331 #
straight-curve $-1 0 51.577643734293169 13.825553703769561 -1 0 0 I I #
coedge $-1 $151 $223 $153 $242 reversed $88 $-1 #
vertex $-1 $234 $332 #
straight-curve $-1 0 -51.577643734293169 13.825553703769561 1 0 0 I I #
edge $-1 $156 -13.825553703769561 $231 13.825553703769561 $153 $333 forward 7 unknown #
edge $-1 $157 -13.825553703769561 $230 13.825553703769561 $154 $334 forward 7 unknown #
point $-1 79.151585436567274 -51.577643734293169 13.825553703769561 #
point $-1 79.151585436567274 51.577643734293169 13.825553703769561 #
face $-1 $-1 $335 $22 $-1 $336 reversed single #
loop $-1 $-1 $337 $159 #
plane-surface $-1 0 0 -13.825553703769561 0 0 1 1 0 0 forward_v I I I I #
coedge $-1 $256 $266 $251 $338 forward $160 $-1 #
coedge $-1 $165 $162 $337 $339 reversed $96 $-1 #
coedge $-1 $162 $165 $249 $338 reversed $96 $-1 #
coedge $-1 $340 $341 $162 $253 forward $335 $-1 #
edge $-1 $342 -13.825553703769561 $343 13.825553703769561 $252 $344 forward 7 unknown #
coedge $-1 $337 $168 $163 $255 forward $247 $-1 #
edge $-1 $173 -38.371606634580928 $259 -32.111352711340203 $254 $345 forward 7 unknown #
coedge $-1 $170 $249 $164 $257 forward $160 $-1 #
edge $-1 $258 32.111352711340203 $172 38.371606634580928 $256 $346 forward 7 unknown #
vertex $-1 $257 $347 #
vertex $-1 $255 $348 #
straight-curve $-1 -67.352832384300768 -34.558225523736105 0 0 0 -1 I I #
coedge $-1 $341 $340 $167 $262 forward $335 $-1 #
edge $-1 $267 -13.825553703769561 $264 13.825553703769561 $261 $349 forward 7 unknown #
coedge $-1 $168 $337 $341 $350 forward $247 $-1 #
vertex $-1 $169 $351 #
straight-curve $-1 -73.613086307541494 -21.533967314507318 -13.825553703769561 0 1 0 I I #
coedge $-1 $249 $170 $340 $352 forward $160 $-1 #
vertex $-1 $352 $353 #
straight-curve $-1 -73.613086307541494 -21.533967314507318 13.825553703769561 0 -1 0 I I #
point $-1 -73.613086307541494 -34.558225523736105 13.825553703769561 #
point $-1 -73.613086307541494 -34.558225523736105 -13.825553703769561 #
plane-surface $-1 0 0 13.825553703769561 0 0 1 1 0 0 forward_v I I I I #
coedge $-1 $282 $281 $274 $354 forward $176 $-1 #
coedge $-1 $274 $178 $180 $278 reversed $104 $-1 #
coedge $-1 $178 $273 $272 $354 reversed $104 $-1 #
coedge $-1 $186 $181 $178 $276 forward $187 $-1 #
edge $-1 $279 37.650409245113593 $355 45.434134295852672 $275 $356 forward 7 unknown #
coedge $-1 $180 $179 $282 $357 reversed $65 $-1 #
edge $-1 $358 -158.30317087313458 $279 -147.82913558447575 $273 $359 forward 7 unknown #
vertex $-1 $182 $360 #
straight-curve $-1 71.367860385828209 -1.2073429529401061 13.825553703769543 0 -1 0 I I #
coedge $-1 $272 $183 $186 $286 reversed $176 $-1 #
coedge $-1 $183 $272 $277 $357 forward $176 $-1 #
vertex $-1 $184 $361 #
straight-curve $-1 79.151585436567274 4.610485876663823 115.19236758426979 0 0 1 I I #
straight-curve $-1 -38.490595707394121 4.610485876663823 112.7425540245782 0.74314481823134659 0 -0.66913061440640931 I I #
edge $-1 $355 -9.4398576884242473 $188 4.610485876663823 $281 $362 forward 7 unknown #
point $-1 79.151585436567274 4.610485876663823 13.825553703769561 #
point $-1 71.367860385828195 4.610485876663823 13.825553703769558 #
edge $-1 $363 1 $363 0 $191 $-1 forward 7 unknown #
vertex $-1 $192 $364 #
ellipse-curve $-1 72.607817811147328 -2.4146859058802121 7.376065941646508 0.66913061440640931 0 0.74314481823134659 1.1147172273470198 0 -1.003695921609614 1 I I #
point $-1 76.37444013854477 -2.4146859058802121 9.3176089481526283 #
plane-surface $-1 0 0 13.825553703769561 0 0 1 1 0 0 forward_v I I I I #
coedge $-1 $304 $303 $296 $365 forward $196 $-1 #
coedge $-1 $296 $198 $200 $300 reversed $119 $-1 #
coedge $-1 $198 $295 $294 $365 reversed $119 $-1 #
coedge $-1 $206 $201 $198 $298 forward $207 $-1 #
edge $-1 $301 -27.953646537806364 $366 -18.312012933932579 $297 $367 forward 7 unknown #
coedge $-1 $200 $199 $304 $368 reversed $74 $-1 #
edge $-1 $369 2.0734513383776317e-014 $301 14.137326852641113 $295 $370 forward 7 unknown #
vertex $-1 $202 $371 #
straight-curve $-1 -69.509951832693503 8.4533762030804631 13.825553703769561 0 1 0 I I #
coedge $-1 $294 $203 $206 $308 reversed $196 $-1 #
coedge $-1 $203 $294 $299 $368 forward $196 $-1 #
vertex $-1 $204 $372 #
straight-curve $-1 -79.151585436567274 8.1594941356584272 55.724334393713896 0 0 1 I I #
straight-curve $-1 -79.151585436567288 8.1594941356584272 3.4861672622509445 -0.68199835119979291 0 -0.73135370988377701 I I #
edge $-1 $366 -25.654010676663425 $208 -8.1594941356584272 $303 $373 forward 7 unknown #
point $-1 -79.151585436567274 8.1594941356584272 13.825553703769561 #
point $-1 -69.509951832693488 8.1594941356584272 13.825553703769561 #
edge $-1 $374 1 $374 0 $211 $-1 forward 7 unknown #
vertex $-1 $212 $375 #
ellipse-curve $-1 -70.904753597270371 13.157927433088425 5.461049852957478 -0.73135370988377701 0 0.68199835119979291 1.0229975267996894 0 1.0970305648256655 1 I I #
point $-1 -73.307771107830675 13.157927433088425 9.7528910478359094 #
edge $-1 $376 1 $376 0 $215 $-1 forward 7 unknown #
vertex $-1 $216 $377 #
ellipse-curve $-1 -70.904753597270371 20.655577379233428 5.461049852957478 -0.73135370988377701 0 0.68199835119979291 1.0229975267996894 0 1.0970305648256655 1 I I #
point $-1 -73.307771107830675 20.655577379233428 9.7528910478359094 #
plane-surface $-1 79.151585436567274 0 0 -1 0 0 0 0 1 forward_v I I I I #
coedge $-1 $224 $222 $226 $324 reversed $141 $-1 #
edge $-1 $237 -13.825553703769561 $326 13.825553703769561 $236 $378 forward 7 unknown #
vertex $-1 $324 $379 #
straight-curve $-1 -79.151585436567274 -51.577643734293169 0 0 0 -1 I I #
edge $-1 $322 -51.577643734293169 $326 51.577643734293169 $320 $380 forward 7 unknown #
straight-curve $-1 0 -51.577643734293169 -13.825553703769561 -1 0 0 I I #
vertex $-1 $229 $381 #
straight-curve $-1 0 51.577643734293169 -13.825553703769561 1 0 0 I I #
point $-1 79.151585436567274 51.577643734293169 -13.825553703769561 #
point $-1 79.151585436567274 -51.577643734293169 -13.825553703769561 #
straight-curve $-1 -79.151585436567274 0 13.825553703769561 0 -1 0 I I #
point $-1 -79.151585436567274 51.577643734293169 13.825553703769561 #
point $-1 -79.151585436567274 -51.577643734293169 13.825553703769561 #
straight-curve $-1 79.151585436567274 -51.577643734293169 0 0 0 -1 I I #
straight-curve $-1 79.151585436567274 51.577643734293169 0 0 0 -1 I I #
loop $-1 $-1 $252 $246 #
plane-surface $-1 0 -51.577643734293169 0 0 1 0 0 0 1 forward_v I I I I #
coedge $-1 $263 $254 $250 $339 forward $247 $-1 #
edge $-1 $343 -30.04367641978585 $258 -13.024258209228787 $249 $382 forward 7 unknown #
edge $-1 $259 13.024258209228787 $342 30.04367641978585 $337 $383 forward 7 unknown #
coedge $-1 $261 $252 $266 $352 reversed $335 $-1 #
coedge $-1 $252 $261 $263 $350 reversed $335 $-1 #
vertex $-1 $350 $384 #
vertex $-1 $253 $385 #
straight-curve $-1 -67.352832384300768 -51.577643734293169 0 0 0 1 I I #
straight-curve $-1 -35.241479672960565 -34.558225523736105 -13.825553703769561 1 0 0 I I #
straight-curve $-1 -35.241479672960565 -34.558225523736105 13.825553703769561 -1 0 0 I I #
point $-1 -67.352832384300768 -34.558225523736105 13.825553703769561 #
point $-1 -67.352832384300768 -34.558225523736105 -13.825553703769561 #
straight-curve $-1 -73.613086307541494 -51.577643734293169 0 0 0 -1 I I #
edge $-1 $342 67.352832384300768 $264 73.613086307541494 $341 $386 forward 7 unknown #
point $-1 -73.613086307541494 -51.577643734293169 -13.825553703769561 #
edge $-1 $267 -73.613086307541494 $343 -67.352832384300768 $340 $387 forward 7 unknown #
point $-1 -73.613086307541494 -51.577643734293169 13.825553703769561 #
edge $-1 $355 101.36681388050023 $358 108.37531154851493 $272 $388 forward 7 unknown #
vertex $-1 $286 $389 #
straight-curve $-1 33.717451140714601 -9.4398576884242473 13.825553703769558 1 0 0 I I #
edge $-1 $358 -8.2325147354841413 $283 5.8178288296039291 $282 $390 forward 7 unknown #
vertex $-1 $357 $391 #
straight-curve $-1 -38.490595707394121 -9.4398576884242473 112.7425540245782 -0.74314481823134659 0 0.66913061440640931 I I #
point $-1 71.367860385828195 -9.4398576884242473 13.825553703769558 #
point $-1 79.151585436567274 4.610485876663823 6.8170560357548595 #
straight-curve $-1 79.151585436567274 0 13.825553703769561 0 1 0 I I #
vertex $-1 $289 $392 #
point $-1 73.722535038494343 -2.4146859058802121 6.372370020036894 #
edge $-1 $366 41.898780689944331 $369 52.238167131462937 $294 $393 forward 7 unknown #
vertex $-1 $308 $394 #
straight-curve $-1 -97.463598370499852 25.654010676663425 13.825553703769558 -1 0 0 I I #
edge $-1 $369 -17.200634473582962 $305 0.29388206742203593 $304 $395 forward 7 unknown #
vertex $-1 $368 $396 #
straight-curve $-1 -79.151585436567288 25.654010676663425 3.4861672622509445 0.68199835119979291 0 0.73135370988377701 I I #
point $-1 -69.509951832693488 25.654010676663425 13.825553703769561 #
point $-1 -79.151585436567274 8.1594941356584272 3.4861672622509596 #
straight-curve $-1 -79.151585436567274 0 13.825553703769561 0 -1 0 I I #
vertex $-1 $311 $397 #
point $-1 -69.881756070470672 13.157927433088425 6.5580804177831435 #
vertex $-1 $315 $398 #
point $-1 -69.881756070470672 20.655577379233428 6.5580804177831435 #
straight-curve $-1 -79.151585436567274 51.577643734293169 0 0 0 -1 I I #
point $-1 -79.151585436567274 -51.577643734293169 -13.825553703769561 #
straight-curve $-1 -79.151585436567274 0 -13.825553703769561 0 1 0 I I #
point $-1 -79.151585436567274 51.577643734293169 -13.825553703769561 #
straight-curve $-1 -67.352832384300768 -21.533967314507318 13.825553703769561 0 1 0 I I #
straight-curve $-1 -67.352832384300768 -21.533967314507318 -13.825553703769561 0 -1 0 I I #
point $-1 -67.352832384300768 -51.577643734293169 -13.825553703769561 #
point $-1 -67.352832384300768 -51.577643734293169 13.825553703769561 #
straight-curve $-1 0 -51.577643734293169 -13.825553703769561 -1 0 0 I I #
straight-curve $-1 0 -51.577643734293169 13.825553703769561 1 0 0 I I #
straight-curve $-1 79.151585436567274 -9.4398576884242473 115.19236758426979 0 0 -1 I I #
point $-1 79.151585436567274 -9.4398576884242473 13.825553703769561 #
straight-curve $-1 79.15158543656726 -1.2073429529401061 6.8170560357548737 0 1 0 I I #
point $-1 79.151585436567274 -9.4398576884242473 6.8170560357548595 #
point $-1 71.604121889537709 -2.4146859058802121 6.2613487142994879 #
straight-curve $-1 -79.151585436567274 25.654010676663425 55.724334393713896 0 0 -1 I I #
point $-1 -79.151585436567274 25.654010676663425 13.825553703769561 #
straight-curve $-1 -79.151585436567274 8.4533762030804631 3.4861672622509507 0 -1 0 I I #
point $-1 -79.151585436567274 25.654010676663425 3.4861672622509596 #
point $-1 -69.807723032444699 13.157927433088425 4.4380523261577896 #
point $-1 -69.807723032444699 20.655577379233428 4.4380523261577896 #
End-of-ACIS-data 