500 0 9 0           
7 Unknown 11 ACIS 5.0 NT 24 Fri Mar 26 01:50:28 1999 
-1 9.9999999999999995e-007 1e-010 
body $-1 $9 $-1 $10 #
body $-1 $11 $-1 $12 #
body $-1 $13 $-1 $14 #
body $-1 $15 $-1 $16 #
body $-1 $17 $-1 $18 #
body $-1 $19 $-1 $20 #
body $-1 $21 $-1 $22 #
body $-1 $23 $-1 $24 #
body $-1 $25 $-1 $26 #
lump $-1 $-1 $27 $0 #
transform $-1 1 0 0 0 1 0 0 0 1 71.395001068147835 43.645796819864394 13.770930217052769 1 rotate no_reflect no_shear #
lump $-1 $-1 $28 $1 #
transform $-1 1 0 0 0 1 0 0 0 1 71.395001068147835 43.645796819864394 13.770930217052769 1 rotate no_reflect no_shear #
lump $-1 $-1 $29 $2 #
transform $-1 1 0 0 0 1 0 0 0 1 71.395001068147835 43.645796819864394 13.770930217052769 1 rotate no_reflect no_shear #
lump $-1 $-1 $30 $3 #
transform $-1 1 0 0 0 1 0 0 0 1 71.395001068147835 43.645796819864394 13.770930217052769 1 rotate no_reflect no_shear #
lump $-1 $-1 $31 $4 #
transform $-1 1 0 0 0 1 0 0 0 1 71.395001068147835 43.645796819864394 13.770930217052769 1 rotate no_reflect no_shear #
lump $-1 $-1 $32 $5 #
transform $-1 1 0 0 0 1 0 0 0 1 71.395001068147835 43.645796819864394 13.770930217052769 1 rotate no_reflect no_shear #
lump $-1 $-1 $33 $6 #
transform $-1 1 0 0 0 1 0 0 0 1 71.395001068147835 43.645796819864394 13.770930217052769 1 rotate no_reflect no_shear #
lump $-1 $-1 $34 $7 #
transform $-1 1 0 0 0 1 0 0 0 1 71.395001068147835 43.645796819864394 13.770930217052769 1 rotate no_reflect no_shear #
lump $-1 $-1 $35 $8 #
transform $-1 1 0 0 0 1 0 0 0 1 71.395001068147835 43.645796819864394 13.770930217052769 1 rotate no_reflect no_shear #
shell $-1 $-1 $-1 $36 $-1 $9 #
shell $-1 $-1 $-1 $37 $-1 $11 #
shell $-1 $-1 $-1 $38 $-1 $13 #
shell $-1 $-1 $-1 $39 $-1 $15 #
shell $-1 $-1 $-1 $40 $-1 $17 #
shell $-1 $-1 $-1 $41 $-1 $19 #
shell $-1 $-1 $-1 $42 $-1 $21 #
shell $-1 $-1 $-1 $43 $-1 $23 #
shell $-1 $-1 $-1 $44 $-1 $25 #
face $-1 $45 $46 $27 $-1 $47 forward single #
face $-1 $48 $49 $28 $-1 $50 forward single #
face $-1 $51 $52 $29 $-1 $53 forward single #
face $-1 $54 $55 $30 $-1 $56 reversed single #
face $-1 $57 $58 $31 $-1 $59 forward single #
face $-1 $60 $61 $32 $-1 $62 reversed single #
face $-1 $63 $64 $33 $-1 $65 forward single #
face $-1 $66 $67 $34 $-1 $68 reversed single #
face $-1 $69 $70 $35 $-1 $71 forward single #
face $-1 $72 $73 $27 $-1 $74 reversed single #
loop $-1 $-1 $75 $36 #
plane-surface $-1 0 0 13.770930217052769 0 0 1 1 0 0 forward_v I I I I #
face $-1 $76 $77 $28 $-1 $78 reversed single #
loop $-1 $-1 $79 $37 #
plane-surface $-1 -71.395001068147835 0 0 1 0 0 0 0 -1 forward_v I I I I #
face $-1 $80 $81 $29 $-1 $82 reversed single #
loop $-1 $-1 $83 $38 #
plane-surface $-1 71.395001068147835 0 0 -1 0 0 0 0 1 forward_v I I I I #
face $-1 $84 $85 $30 $-1 $86 reversed single #
loop $-1 $-1 $87 $39 #
plane-surface $-1 54.642940987126586 -149.75944921983074 105.70468392646288 -1 0 0 0 -0.74314483375859142 0.66913059716165679 forward_v I I I I #
face $-1 $88 $89 $31 $-1 $90 forward single #
loop $-1 $91 $92 $40 #
cone-surface $-1 46.400183018791083 -41.329962375219992 11.343973501637574 0 0.74314483375859142 -0.66913059716165679 0.5 0 0 1 I I 0 1 0.5 forward I I I I #
face $-1 $93 $94 $32 $-1 $95 reversed single #
loop $-1 $-1 $96 $41 #
plane-surface $-1 -34.560554691602221 68.560202448272207 167.20800786433989 1 0 0 0 -0.64278761758704617 -0.76604443648966558 forward_v I I I I #
face $-1 $97 $98 $33 $-1 $99 forward single #
loop $-1 $100 $101 $42 #
cone-surface $-1 -22.347780715880177 35.663878737591553 6.7919546192004479 0 -0.64278761758704617 -0.76604443648966558 1.5 0 0 1 I I 0 1 1.5 forward I I I I #
face $-1 $102 $103 $34 $-1 $104 reversed single #
loop $-1 $-1 $105 $43 #
plane-surface $-1 10.135006740158133 68.560202448272207 167.20800786433989 1 0 0 0 -0.64278761758704617 -0.76604443648966558 forward_v I I I I #
face $-1 $106 $107 $35 $-1 $108 forward single #
loop $-1 $109 $110 $44 #
cone-surface $-1 22.347780715880177 35.663878737591553 6.7919546192004479 0 -0.64278761758704617 -0.76604443648966558 1.5 0 0 1 I I 0 1 1.5 forward I I I I #
face $-1 $111 $112 $27 $-1 $113 reversed single #
loop $-1 $-1 $114 $45 #
plane-surface $-1 0 0 -13.770930217052769 0 0 1 1 0 0 forward_v I I I I #
coedge $-1 $115 $116 $117 $118 forward $46 $-1 #
face $-1 $119 $120 $28 $-1 $121 reversed single #
loop $-1 $-1 $122 $48 #
plane-surface $-1 0 0 -13.770930217052769 0 0 1 1 0 0 forward_v I I I I #
coedge $-1 $123 $124 $125 $126 forward $49 $-1 #
face $-1 $127 $128 $29 $-1 $129 reversed single #
loop $-1 $-1 $130 $51 #
plane-surface $-1 0 0 -13.770930217052769 0 0 1 1 0 0 forward_v I I I I #
coedge $-1 $131 $132 $133 $134 forward $52 $-1 #
face $-1 $135 $136 $30 $-1 $137 reversed single #
loop $-1 $-1 $138 $54 #
plane-surface $-1 46.400183018791083 -43.645796819864387 10.159524528289111 0 -0.74314483375859142 0.66913059716165679 1 0 0 forward_v I I I I #
coedge $-1 $139 $140 $141 $142 reversed $55 $-1 #
face $-1 $-1 $143 $31 $-1 $144 forward single #
loop $-1 $145 $146 $57 #
cone-surface $-1 46.400183018791083 -40.454203825552256 10.55543698131379 0 0.74314483375859142 -0.66913059716165679 0.25 0 0 1 I I -0.70710678118654746 0.70710678118654746 0.25 forward I I I I #
loop $-1 $-1 $147 $40 #
coedge $-1 $92 $92 $148 $149 reversed $58 $-1 #
face $-1 $150 $151 $32 $-1 $152 reversed single #
loop $-1 $-1 $153 $60 #
plane-surface $-1 -22.347780715880177 -23.223442840166513 57.824521141483132 0 0.64278761758704617 0.76604443648966558 1 0 0 forward_v I I I I #
coedge $-1 $154 $155 $156 $157 reversed $61 $-1 #
face $-1 $-1 $158 $33 $-1 $159 forward single #
loop $-1 $160 $161 $63 #
cone-surface $-1 -22.347780715880177 34.383977696526991 5.2666279872945942 0 -0.64278761758704617 -0.76604443648966558 0.75 0 0 1 I I -0.70710678118654757 0.70710678118654757 0.75 forward I I I I #
loop $-1 $-1 $162 $42 #
coedge $-1 $101 $101 $163 $164 reversed $64 $-1 #
face $-1 $165 $166 $34 $-1 $167 reversed single #
loop $-1 $-1 $168 $66 #
plane-surface $-1 22.347780715880177 -23.223442840166513 57.824521141483132 0 0.64278761758704617 0.76604443648966558 1 0 0 forward_v I I I I #
coedge $-1 $169 $170 $171 $172 reversed $67 $-1 #
face $-1 $-1 $173 $35 $-1 $174 forward single #
loop $-1 $175 $176 $69 #
cone-surface $-1 22.347780715880177 34.383977696526991 5.2666279872945942 0 -0.64278761758704617 -0.76604443648966558 0.75 0 0 1 I I -0.70710678118654757 0.70710678118654757 0.75 forward I I I I #
loop $-1 $-1 $177 $44 #
coedge $-1 $110 $110 $178 $179 reversed $70 $-1 #
face $-1 $180 $181 $27 $-1 $182 reversed single #
loop $-1 $-1 $183 $72 #
plane-surface $-1 0 -43.645796819864394 0 0 1 0 0 0 1 forward_v I I I I #
coedge $-1 $184 $185 $186 $187 forward $73 $-1 #
coedge $-1 $188 $75 $189 $190 forward $46 $-1 #
coedge $-1 $75 $188 $191 $192 forward $46 $-1 #
coedge $-1 $193 $194 $75 $118 reversed $195 $-1 #
edge $-1 $196 -43.645796819864394 $197 43.645796819864394 $117 $198 forward 7 unknown #
face $-1 $199 $200 $28 $-1 $201 reversed single #
loop $-1 $-1 $202 $76 #
plane-surface $-1 -76.55241133011593 -40.424636241563775 0 0 1 0 0 0 1 forward_v I I I I #
coedge $-1 $203 $204 $124 $205 forward $77 $-1 #
coedge $-1 $206 $79 $207 $208 reversed $49 $-1 #
coedge $-1 $79 $206 $122 $205 reversed $49 $-1 #
coedge $-1 $209 $210 $79 $126 reversed $211 $-1 #
edge $-1 $212 -13.770930217052769 $213 13.770930217052769 $125 $214 forward 7 unknown #
face $-1 $215 $216 $29 $-1 $217 reversed single #
loop $-1 $-1 $133 $80 #
plane-surface $-1 76.55241133011593 -40.424636241563775 0 0 1 0 0 0 1 forward_v I I I I #
coedge $-1 $218 $219 $132 $220 forward $81 $-1 #
coedge $-1 $221 $83 $222 $223 reversed $52 $-1 #
coedge $-1 $83 $221 $130 $220 reversed $52 $-1 #
coedge $-1 $224 $225 $83 $134 reversed $128 $-1 #
edge $-1 $226 -13.770930217052769 $227 13.770930217052769 $133 $228 forward 7 unknown #
face $-1 $229 $230 $30 $-1 $231 forward single #
loop $-1 $-1 $232 $84 #
plane-surface $-1 38.157425050455579 -149.75944921983074 105.70468392646288 1 0 0 0 0.74314483375859142 -0.66913059716165679 forward_v I I I I #
coedge $-1 $233 $234 $235 $236 reversed $85 $-1 #
coedge $-1 $140 $87 $237 $238 reversed $55 $-1 #
coedge $-1 $87 $139 $233 $239 reversed $55 $-1 #
coedge $-1 $235 $240 $87 $142 forward $230 $-1 #
edge $-1 $241 31.233927790050977 $242 34.485651996883625 $141 $243 forward 7 unknown #
loop $-1 $-1 $148 $88 #
plane-surface $-1 46.400183018791083 -43.645796819864387 10.159524528289111 0 -0.74314483375859142 0.66913059716165679 1 0 0 forward_v I I I I #
loop $-1 $-1 $244 $57 #
coedge $-1 $146 $146 $147 $245 reversed $89 $-1 #
coedge $-1 $147 $147 $146 $245 forward $91 $-1 #
coedge $-1 $148 $148 $92 $149 forward $143 $-1 #
edge $-1 $246 6.3321671955837691e-015 $246 6.2831853071796067 $148 $247 forward 7 unknown #
face $-1 $248 $249 $32 $-1 $250 reversed single #
loop $-1 $-1 $251 $93 #
plane-surface $-1 -10.135006740158133 68.560202448272207 167.20800786433989 -1 0 0 0 0.64278761758704617 0.76604443648966558 forward_v I I I I #
coedge $-1 $252 $253 $254 $255 reversed $94 $-1 #
coedge $-1 $155 $96 $256 $257 reversed $61 $-1 #
coedge $-1 $96 $154 $252 $258 reversed $61 $-1 #
coedge $-1 $254 $259 $96 $157 forward $260 $-1 #
edge $-1 $261 -9.3656955957282904 $262 5.0025199130688733 $156 $263 forward 7 unknown #
loop $-1 $-1 $163 $97 #
plane-surface $-1 -22.347780715880177 -23.223442840166513 57.824521141483132 0 0.64278761758704617 0.76604443648966558 1 0 0 forward_v I I I I #
loop $-1 $-1 $264 $63 #
coedge $-1 $161 $161 $162 $265 reversed $98 $-1 #
coedge $-1 $162 $162 $161 $265 forward $100 $-1 #
coedge $-1 $163 $163 $101 $164 forward $158 $-1 #
edge $-1 $266 2.5902983272850485e-017 $266 6.2831853071796004 $163 $267 forward 7 unknown #
face $-1 $268 $269 $34 $-1 $270 forward single #
loop $-1 $-1 $271 $102 #
plane-surface $-1 34.560554691602221 68.560202448272207 167.20800786433989 -1 0 0 0 0.64278761758704617 0.76604443648966558 forward_v I I I I #
coedge $-1 $272 $273 $274 $275 reversed $103 $-1 #
coedge $-1 $170 $105 $276 $277 reversed $67 $-1 #
coedge $-1 $105 $169 $272 $278 reversed $67 $-1 #
coedge $-1 $274 $279 $105 $172 forward $269 $-1 #
edge $-1 $280 -9.3656955957282904 $281 5.0025199130688733 $171 $282 forward 7 unknown #
loop $-1 $-1 $178 $106 #
plane-surface $-1 22.347780715880177 -23.223442840166513 57.824521141483132 0 0.64278761758704617 0.76604443648966558 1 0 0 forward_v I I I I #
loop $-1 $-1 $283 $69 #
coedge $-1 $176 $176 $177 $284 reversed $107 $-1 #
coedge $-1 $177 $177 $176 $284 forward $109 $-1 #
coedge $-1 $178 $178 $110 $179 forward $173 $-1 #
edge $-1 $285 2.5902983272850485e-017 $285 6.2831853071796004 $178 $286 forward 7 unknown #
face $-1 $287 $288 $27 $-1 $289 reversed single #
loop $-1 $-1 $290 $111 #
plane-surface $-1 -71.395001068147835 0 0 1 0 0 0 0 -1 forward_v I I I I #
coedge $-1 $291 $191 $292 $293 forward $112 $-1 #
coedge $-1 $294 $114 $291 $295 forward $73 $-1 #
coedge $-1 $114 $294 $296 $297 forward $73 $-1 #
coedge $-1 $194 $193 $114 $187 reversed $195 $-1 #
edge $-1 $298 -43.645796819864394 $299 43.645796819864394 $186 $300 forward 7 unknown #
coedge $-1 $116 $115 $301 $302 forward $46 $-1 #
coedge $-1 $303 $304 $115 $190 reversed $288 $-1 #
edge $-1 $197 -71.395001068147835 $305 71.395001068147835 $189 $306 forward 7 unknown #
coedge $-1 $183 $307 $116 $192 reversed $112 $-1 #
edge $-1 $308 -71.395001068147835 $196 71.395001068147835 $191 $309 forward 7 unknown #
coedge $-1 $186 $117 $307 $310 forward $195 $-1 #
coedge $-1 $117 $186 $303 $311 reversed $195 $-1 #
loop $-1 $-1 $193 $287 #
vertex $-1 $118 $312 #
vertex $-1 $118 $313 #
straight-curve $-1 71.395001068147835 0 13.770930217052769 0 1 0 I I #
face $-1 $314 $211 $28 $-1 $315 reversed single #
loop $-1 $-1 $316 $119 #
plane-surface $-1 -81.709821592084026 -37.505831119018133 0 1 0 0 0 0 -1 forward_v I I I I #
coedge $-1 $317 $318 $319 $320 forward $120 $-1 #
coedge $-1 $321 $122 $317 $322 forward $77 $-1 #
coedge $-1 $122 $321 $209 $323 forward $77 $-1 #
edge $-1 $212 34.587025996472491 $324 40.424636241563775 $122 $325 forward 7 unknown #
coedge $-1 $124 $123 $326 $327 forward $49 $-1 #
coedge $-1 $328 $329 $123 $208 forward $330 $-1 #
edge $-1 $331 -40.424636241563775 $213 -34.587025996472491 $207 $332 forward 7 unknown #
coedge $-1 $333 $125 $204 $323 reversed $211 $-1 #
coedge $-1 $125 $333 $328 $334 reversed $211 $-1 #
loop $-1 $-1 $125 $199 #
vertex $-1 $205 $335 #
vertex $-1 $334 $336 #
straight-curve $-1 -71.395001068147835 -34.587025996472491 0 0 0 1 I I #
face $-1 $337 $338 $29 $-1 $339 reversed single #
loop $-1 $-1 $340 $127 #
plane-surface $-1 76.55241133011593 -34.587025996472491 0 0 -1 0 0 0 -1 forward_v I I I I #
coedge $-1 $341 $130 $342 $343 forward $81 $-1 #
coedge $-1 $130 $341 $224 $344 forward $81 $-1 #
edge $-1 $226 -40.424636241563775 $345 -34.587025996472491 $130 $346 forward 7 unknown #
coedge $-1 $132 $131 $347 $348 forward $52 $-1 #
coedge $-1 $349 $350 $131 $223 forward $351 $-1 #
edge $-1 $352 34.587025996472491 $227 40.424636241563775 $222 $353 forward 7 unknown #
coedge $-1 $354 $133 $219 $344 reversed $128 $-1 #
coedge $-1 $133 $354 $349 $355 reversed $128 $-1 #
vertex $-1 $220 $356 #
vertex $-1 $355 $357 #
straight-curve $-1 71.395001068147835 -40.424636241563775 0 0 0 1 I I #
face $-1 $-1 $358 $30 $-1 $359 reversed single #
loop $-1 $-1 $141 $135 #
plane-surface $-1 0 0 13.770930217052769 0 0 1 1 0 0 forward_v I I I I #
coedge $-1 $360 $361 $362 $363 reversed $136 $-1 #
coedge $-1 $364 $138 $140 $239 forward $85 $-1 #
coedge $-1 $138 $364 $360 $365 forward $85 $-1 #
coedge $-1 $362 $141 $138 $236 forward $230 $-1 #
edge $-1 $242 -31.442849477731045 $366 -14.957333541060038 $235 $367 forward 7 unknown #
coedge $-1 $368 $369 $139 $238 forward $358 $-1 #
edge $-1 $370 -42.692817434942334 $241 -39.081411746178674 $237 $371 forward 7 unknown #
edge $-1 $242 -4.8596256405340394 $370 1.0034820483328475e-014 $140 $372 forward 7 unknown #
coedge $-1 $141 $362 $368 $373 forward $230 $-1 #
vertex $-1 $142 $374 #
vertex $-1 $142 $375 #
straight-curve $-1 54.642940987126586 -74.879724609915371 13.770930217052772 0 1 0 I I #
coedge $-1 $244 $244 $-1 $376 reversed $145 $-1 #
edge $-1 $377 0 $377 6.2831853071796004 $146 $378 forward 7 unknown #
vertex $-1 $149 $379 #
ellipse-curve $-1 46.400183018791083 -42.01993471644807 11.965227372670936 0 -0.74314483375859142 0.66913059716165679 0.5 0 0 1 I I #
face $-1 $-1 $260 $32 $-1 $380 forward single #
loop $-1 $-1 $381 $150 #
plane-surface $-1 0 43.645796819864394 0 0 -1 0 0 0 -1 forward_v I I I I #
coedge $-1 $382 $383 $384 $385 reversed $151 $-1 #
coedge $-1 $386 $153 $155 $258 forward $94 $-1 #
coedge $-1 $153 $386 $382 $387 forward $94 $-1 #
coedge $-1 $384 $156 $153 $255 forward $260 $-1 #
edge $-1 $262 -23.386664333662132 $388 1.0388836177819556 $254 $389 forward 7 unknown #
coedge $-1 $390 $391 $154 $257 forward $249 $-1 #
edge $-1 $392 -81.889438301744633 $261 -69.83307371511718 $256 $393 forward 7 unknown #
edge $-1 $262 68.535220217531091 $392 87.291593639728774 $155 $394 forward 7 unknown #
coedge $-1 $156 $384 $390 $395 forward $260 $-1 #
loop $-1 $-1 $384 $248 #
vertex $-1 $257 $396 #
vertex $-1 $157 $397 #
straight-curve $-1 -34.560554691602221 34.280101224136104 13.770930217052765 0 -1 0 I I #
coedge $-1 $264 $264 $-1 $398 reversed $160 $-1 #
edge $-1 $399 0 $399 6.2831853071796004 $161 $400 forward 7 unknown #
vertex $-1 $164 $401 #
ellipse-curve $-1 -22.347780715880177 36.461689065465812 7.742747923739036 0 0.64278761758704617 0.76604443648966558 1.5 0 0 1 I I #
face $-1 $-1 $402 $34 $-1 $403 reversed single #
loop $-1 $-1 $171 $165 #
plane-surface $-1 0 0 13.770930217052769 0 0 1 1 0 0 forward_v I I I I #
coedge $-1 $404 $405 $406 $407 reversed $166 $-1 #
coedge $-1 $408 $168 $170 $278 forward $103 $-1 #
coedge $-1 $168 $408 $404 $409 forward $103 $-1 #
coedge $-1 $406 $171 $168 $275 forward $269 $-1 #
edge $-1 $281 -1.0388836177819556 $410 23.386664333662132 $274 $411 forward 7 unknown #
coedge $-1 $412 $413 $169 $277 forward $402 $-1 #
edge $-1 $414 -81.889438301744633 $280 -69.83307371511718 $276 $415 forward 7 unknown #
edge $-1 $281 68.535220217531091 $414 87.291593639728774 $170 $416 forward 7 unknown #
coedge $-1 $171 $406 $412 $417 forward $269 $-1 #
vertex $-1 $277 $418 #
vertex $-1 $172 $419 #
straight-curve $-1 10.135006740158133 34.280101224136104 13.770930217052765 0 -1 0 I I #
coedge $-1 $283 $283 $-1 $420 reversed $175 $-1 #
edge $-1 $421 0 $421 6.2831853071796004 $176 $422 forward 7 unknown #
vertex $-1 $179 $423 #
ellipse-curve $-1 22.347780715880177 36.461689065465812 7.742747923739036 0 0.64278761758704617 0.76604443648966558 1.5 0 0 1 I I #
face $-1 $-1 $195 $27 $-1 $424 reversed single #
loop $-1 $-1 $303 $180 #
plane-surface $-1 0 43.645796819864394 0 0 -1 0 0 0 -1 forward_v I I I I #
coedge $-1 $425 $301 $304 $426 forward $181 $-1 #
coedge $-1 $307 $183 $184 $295 reversed $112 $-1 #
coedge $-1 $301 $425 $183 $293 reversed $181 $-1 #
edge $-1 $308 -13.770930217052769 $427 13.770930217052769 $292 $428 forward 7 unknown #
coedge $-1 $185 $184 $425 $429 forward $73 $-1 #
edge $-1 $299 -71.395001068147835 $427 71.395001068147835 $291 $430 forward 7 unknown #
coedge $-1 $304 $303 $185 $297 reversed $288 $-1 #
edge $-1 $431 -71.395001068147835 $298 71.395001068147835 $296 $432 forward 7 unknown #
vertex $-1 $187 $433 #
vertex $-1 $310 $434 #
straight-curve $-1 71.395001068147835 0 -13.770930217052769 0 -1 0 I I #
coedge $-1 $290 $292 $188 $302 reversed $181 $-1 #
edge $-1 $305 -43.645796819864394 $308 43.645796819864394 $301 $435 forward 7 unknown #
coedge $-1 $296 $189 $194 $311 forward $288 $-1 #
coedge $-1 $189 $296 $290 $426 reversed $288 $-1 #
vertex $-1 $190 $436 #
straight-curve $-1 0 43.645796819864394 13.770930217052769 -1 0 0 I I #
coedge $-1 $191 $291 $193 $310 reversed $112 $-1 #
vertex $-1 $302 $437 #
straight-curve $-1 0 -43.645796819864394 13.770930217052769 1 0 0 I I #
edge $-1 $196 -13.770930217052769 $299 13.770930217052769 $193 $438 forward 7 unknown #
edge $-1 $197 -13.770930217052769 $298 13.770930217052769 $194 $439 forward 7 unknown #
point $-1 71.395001068147835 -43.645796819864394 13.770930217052769 #
point $-1 71.395001068147835 43.645796819864394 13.770930217052769 #
face $-1 $-1 $330 $28 $-1 $440 forward single #
plane-surface $-1 -76.55241133011593 -34.587025996472491 0 0 -1 0 0 0 -1 forward_v I I I I #
coedge $-1 $441 $442 $333 $443 forward $200 $-1 #
coedge $-1 $326 $202 $203 $322 reversed $120 $-1 #
coedge $-1 $202 $326 $329 $444 reversed $120 $-1 #
coedge $-1 $442 $441 $202 $320 reversed $200 $-1 #
edge $-1 $445 -13.770930217052769 $446 13.770930217052769 $319 $447 forward 7 unknown #
coedge $-1 $204 $203 $441 $448 forward $77 $-1 #
edge $-1 $324 -5.1574102619680957 $446 5.1574102619680957 $317 $449 forward 7 unknown #
edge $-1 $450 -5.1574102619680957 $212 5.1574102619680957 $209 $451 forward 7 unknown #
vertex $-1 $322 $452 #
straight-curve $-1 -71.395001068147835 0 -13.770930217052769 0 -1 0 I I #
coedge $-1 $318 $317 $206 $327 reversed $120 $-1 #
edge $-1 $331 -13.770930217052769 $324 13.770930217052769 $326 $453 forward 7 unknown #
coedge $-1 $454 $207 $210 $334 forward $330 $-1 #
coedge $-1 $207 $454 $318 $444 forward $330 $-1 #
loop $-1 $-1 $207 $314 #
vertex $-1 $208 $455 #
straight-curve $-1 -71.395001068147835 0 13.770930217052769 0 1 0 I I #
coedge $-1 $210 $209 $316 $443 reversed $211 $-1 #
edge $-1 $213 -5.1574102619680957 $456 5.1574102619680957 $210 $457 forward 7 unknown #
point $-1 -71.395001068147835 -34.587025996472491 -13.770930217052769 #
point $-1 -71.395001068147835 -34.587025996472491 13.770930217052769 #
face $-1 $-1 $351 $29 $-1 $458 forward single #
loop $-1 $-1 $459 $215 #
plane-surface $-1 81.709821592084026 -37.505831119018133 0 -1 0 0 0 0 1 forward_v I I I I #
coedge $-1 $342 $460 $461 $462 forward $216 $-1 #
coedge $-1 $219 $218 $463 $464 forward $81 $-1 #
coedge $-1 $347 $340 $218 $343 reversed $216 $-1 #
edge $-1 $345 -5.1574102619680957 $465 5.1574102619680957 $342 $466 forward 7 unknown #
edge $-1 $467 -5.1574102619680957 $226 5.1574102619680957 $224 $468 forward 7 unknown #
vertex $-1 $343 $469 #
straight-curve $-1 71.395001068147835 0 -13.770930217052769 0 1 0 I I #
coedge $-1 $460 $342 $221 $348 reversed $216 $-1 #
edge $-1 $352 -13.770930217052769 $345 13.770930217052769 $347 $470 forward 7 unknown #
coedge $-1 $471 $222 $225 $355 forward $351 $-1 #
coedge $-1 $222 $471 $460 $472 forward $351 $-1 #
loop $-1 $-1 $222 $337 #
vertex $-1 $223 $473 #
straight-curve $-1 71.395001068147835 0 13.770930217052769 0 -1 0 I I #
coedge $-1 $225 $224 $459 $474 reversed $128 $-1 #
edge $-1 $227 -5.1574102619680957 $475 5.1574102619680957 $225 $476 forward 7 unknown #
point $-1 71.395001068147835 -40.424636241563775 -13.770930217052769 #
point $-1 71.395001068147835 -40.424636241563775 13.770930217052769 #
loop $-1 $-1 $237 $229 #
plane-surface $-1 0 -43.645796819864394 0 0 1 0 0 0 1 forward_v I I I I #
coedge $-1 $361 $232 $234 $365 reversed $136 $-1 #
coedge $-1 $232 $360 $477 $478 reversed $136 $-1 #
coedge $-1 $240 $235 $232 $363 forward $230 $-1 #
edge $-1 $366 -34.485651996883625 $479 -31.233927790050977 $362 $480 forward 7 unknown #
coedge $-1 $234 $233 $369 $481 reversed $85 $-1 #
edge $-1 $482 -1.0034820483328475e-014 $366 4.8596256405340394 $360 $483 forward 7 unknown #
vertex $-1 $236 $484 #
straight-curve $-1 23.200091509395541 -40.394072613031746 13.770930217052769 -1 0 0 I I #
coedge $-1 $477 $237 $240 $373 reversed $358 $-1 #
coedge $-1 $237 $477 $364 $481 forward $358 $-1 #
vertex $-1 $238 $485 #
straight-curve $-1 54.642940987126586 -43.645796819864394 52.852341963231439 0 0 1 I I #
straight-curve $-1 54.642940987126586 -43.645796819864387 10.159524528289111 0 -0.66913059716165679 -0.74314483375859142 I I #
edge $-1 $479 38.157425050455579 $241 54.642940987126586 $368 $486 forward 7 unknown #
point $-1 54.642940987126586 -43.645796819864394 13.770930217052769 #
point $-1 54.642940987126586 -40.394072613031746 13.770930217052769 #
edge $-1 $487 1 $487 0 $244 $-1 forward 7 unknown #
vertex $-1 $245 $488 #
ellipse-curve $-1 46.400183018791083 -40.6399900339919 10.722719630604203 0 -0.74314483375859142 0.66913059716165679 0.5 0 0 1 I I #
point $-1 46.900183018791083 -42.019934716448077 11.965227372670947 #
plane-surface $-1 0 0 13.770930217052769 0 0 1 1 0 0 forward_v I I I I #
coedge $-1 $391 $390 $383 $489 forward $249 $-1 #
coedge $-1 $383 $251 $253 $387 reversed $151 $-1 #
coedge $-1 $251 $382 $381 $489 reversed $151 $-1 #
coedge $-1 $259 $254 $251 $385 forward $260 $-1 #
edge $-1 $388 -5.0025199130688733 $490 9.3656955957282904 $384 $491 forward 7 unknown #
coedge $-1 $253 $252 $391 $492 reversed $94 $-1 #
edge $-1 $493 -87.291593639728774 $388 -68.535220217531091 $382 $494 forward 7 unknown #
vertex $-1 $255 $495 #
straight-curve $-1 -11.173890357940088 29.277581311067216 13.770930217052776 1 0 0 I I #
coedge $-1 $381 $256 $259 $395 reversed $249 $-1 #
coedge $-1 $256 $381 $386 $492 forward $249 $-1 #
vertex $-1 $257 $496 #
straight-curve $-1 -34.560554691602221 43.645796819864394 83.604003932169945 0 0 1 I I #
straight-curve $-1 -34.560554691602221 -23.223442840166513 57.824521141483132 0 0.76604443648966558 -0.64278761758704617 I I #
edge $-1 $490 10.135006740158133 $261 34.560554691602221 $390 $497 forward 7 unknown #
point $-1 -34.560554691602221 43.645796819864394 13.770930217052769 #
point $-1 -34.560554691602221 29.27758131106723 13.770930217052765 #
edge $-1 $498 1 $498 0 $264 $-1 forward 7 unknown #
vertex $-1 $265 $499 #
ellipse-curve $-1 -22.347780715880177 34.866068409717272 5.8411613146618437 0 0.64278761758704617 0.76604443648966558 1.5 0 0 1 I I #
point $-1 -20.847780715880177 36.461689065465826 7.7427479237390529 #
loop $-1 $-1 $276 $268 #
plane-surface $-1 0 43.645796819864394 0 0 -1 0 0 0 -1 forward_v I I I I #
coedge $-1 $405 $271 $273 $409 reversed $166 $-1 #
coedge $-1 $271 $404 $500 $501 reversed $166 $-1 #
coedge $-1 $279 $274 $271 $407 forward $269 $-1 #
edge $-1 $410 -5.0025199130688733 $502 9.3656955957282904 $406 $503 forward 7 unknown #
coedge $-1 $273 $272 $413 $504 reversed $103 $-1 #
edge $-1 $505 -87.291593639728774 $410 -68.535220217531091 $404 $506 forward 7 unknown #
vertex $-1 $275 $507 #
straight-curve $-1 11.173890357940088 29.277581311067216 13.770930217052776 1 0 0 I I #
coedge $-1 $500 $276 $279 $417 reversed $402 $-1 #
coedge $-1 $276 $500 $408 $504 forward $402 $-1 #
vertex $-1 $277 $508 #
straight-curve $-1 10.135006740158133 43.645796819864394 83.604003932169945 0 0 1 I I #
straight-curve $-1 10.135006740158133 -23.223442840166513 57.824521141483132 0 0.76604443648966558 -0.64278761758704617 I I #
edge $-1 $502 -34.560554691602221 $280 -10.135006740158133 $412 $509 forward 7 unknown #
point $-1 10.135006740158133 43.645796819864394 13.770930217052769 #
point $-1 10.135006740158133 29.27758131106723 13.770930217052765 #
edge $-1 $510 1 $510 0 $283 $-1 forward 7 unknown #
vertex $-1 $284 $511 #
ellipse-curve $-1 22.347780715880177 34.866068409717272 5.8411613146618437 0 0.64278761758704617 0.76604443648966558 1.5 0 0 1 I I #
point $-1 23.847780715880177 36.461689065465826 7.7427479237390529 #
plane-surface $-1 71.395001068147835 0 0 -1 0 0 0 0 1 forward_v I I I I #
coedge $-1 $292 $290 $294 $429 reversed $181 $-1 #
edge $-1 $305 -13.770930217052769 $431 13.770930217052769 $304 $512 forward 7 unknown #
vertex $-1 $429 $513 #
straight-curve $-1 -71.395001068147835 -43.645796819864394 0 0 0 -1 I I #
edge $-1 $427 -43.645796819864394 $431 43.645796819864394 $425 $514 forward 7 unknown #
straight-curve $-1 0 -43.645796819864394 -13.770930217052769 -1 0 0 I I #
vertex $-1 $297 $515 #
straight-curve $-1 0 43.645796819864394 -13.770930217052769 1 0 0 I I #
point $-1 71.395001068147835 43.645796819864394 -13.770930217052769 #
point $-1 71.395001068147835 -43.645796819864394 -13.770930217052769 #
straight-curve $-1 -71.395001068147835 0 13.770930217052769 0 -1 0 I I #
point $-1 -71.395001068147835 43.645796819864394 13.770930217052769 #
point $-1 -71.395001068147835 -43.645796819864394 13.770930217052769 #
straight-curve $-1 71.395001068147835 -43.645796819864394 0 0 0 -1 I I #
straight-curve $-1 71.395001068147835 43.645796819864394 0 0 0 -1 I I #
plane-surface $-1 0 0 13.770930217052769 0 0 1 1 0 0 forward_v I I I I #
coedge $-1 $319 $316 $321 $448 reversed $200 $-1 #
coedge $-1 $316 $319 $454 $516 reversed $200 $-1 #
edge $-1 $456 -13.770930217052769 $450 13.770930217052769 $333 $517 forward 7 unknown #
edge $-1 $445 -5.1574102619680957 $331 5.1574102619680957 $318 $518 forward 7 unknown #
vertex $-1 $516 $519 #
vertex $-1 $448 $520 #
straight-curve $-1 -81.709821592084026 -40.424636241563775 0 0 0 -1 I I #
edge $-1 $446 -2.918805122545642 $450 2.918805122545642 $441 $521 forward 7 unknown #
straight-curve $-1 -76.55241133011593 -40.424636241563775 -13.770930217052769 -1 0 0 I I #
vertex $-1 $323 $522 #
straight-curve $-1 -76.55241133011593 -34.587025996472491 -13.770930217052769 1 0 0 I I #
point $-1 -71.395001068147835 -40.424636241563775 -13.770930217052769 #
straight-curve $-1 -71.395001068147835 -40.424636241563775 0 0 0 -1 I I #
coedge $-1 $329 $328 $442 $516 forward $330 $-1 #
point $-1 -71.395001068147835 -40.424636241563775 13.770930217052769 #
vertex $-1 $334 $523 #
straight-curve $-1 -76.55241133011593 -34.587025996472491 13.770930217052769 -1 0 0 I I #
plane-surface $-1 0 0 13.770930217052769 0 0 1 1 0 0 forward_v I I I I #
coedge $-1 $463 $524 $354 $474 forward $338 $-1 #
coedge $-1 $340 $347 $350 $472 reversed $216 $-1 #
coedge $-1 $524 $463 $340 $462 reversed $338 $-1 #
edge $-1 $525 -13.770930217052769 $465 13.770930217052769 $461 $526 forward 7 unknown #
coedge $-1 $461 $459 $341 $464 reversed $338 $-1 #
edge $-1 $465 -2.918805122545642 $467 2.918805122545642 $463 $527 forward 7 unknown #
vertex $-1 $464 $528 #
straight-curve $-1 76.55241133011593 -34.587025996472491 -13.770930217052769 1 0 0 I I #
vertex $-1 $474 $529 #
straight-curve $-1 76.55241133011593 -40.424636241563775 -13.770930217052769 -1 0 0 I I #
point $-1 71.395001068147835 -34.587025996472491 -13.770930217052769 #
straight-curve $-1 71.395001068147835 -34.587025996472491 0 0 0 -1 I I #
coedge $-1 $350 $349 $524 $530 forward $351 $-1 #
edge $-1 $525 -5.1574102619680957 $352 5.1574102619680957 $460 $531 forward 7 unknown #
point $-1 71.395001068147835 -34.587025996472491 13.770930217052769 #
edge $-1 $475 -13.770930217052769 $467 13.770930217052769 $459 $532 forward 7 unknown #
vertex $-1 $530 $533 #
straight-curve $-1 76.55241133011593 -40.424636241563775 13.770930217052769 1 0 0 I I #
coedge $-1 $369 $368 $361 $478 forward $358 $-1 #
edge $-1 $479 39.081411746178674 $482 42.692817434942334 $477 $534 forward 7 unknown #
vertex $-1 $373 $535 #
straight-curve $-1 38.157425050455579 -74.879724609915371 13.770930217052772 0 -1 0 I I #
edge $-1 $482 14.957333541060038 $370 31.442849477731045 $369 $536 forward 7 unknown #
vertex $-1 $481 $537 #
straight-curve $-1 38.157425050455579 -43.645796819864387 10.159524528289111 0 0.66913059716165679 0.74314483375859142 I I #
point $-1 38.157425050455579 -40.394072613031746 13.770930217052769 #
point $-1 54.642940987126586 -43.645796819864394 10.159524528289104 #
straight-curve $-1 0 -43.645796819864394 13.770930217052769 1 0 0 I I #
vertex $-1 $376 $538 #
point $-1 46.900183018791083 -40.6399900339919 10.722719630604203 #
edge $-1 $490 69.83307371511718 $493 81.889438301744633 $381 $539 forward 7 unknown #
vertex $-1 $395 $540 #
straight-curve $-1 -10.135006740158133 34.280101224136104 13.770930217052765 0 1 0 I I #
edge $-1 $493 -1.0388836177819556 $392 23.386664333662132 $391 $541 forward 7 unknown #
vertex $-1 $492 $542 #
straight-curve $-1 -10.135006740158133 -23.223442840166513 57.824521141483132 0 -0.76604443648966558 0.64278761758704617 I I #
point $-1 -10.135006740158133 29.27758131106723 13.770930217052765 #
point $-1 -34.560554691602221 43.645796819864387 1.7145656304253194 #
straight-curve $-1 0 43.645796819864394 13.770930217052769 -1 0 0 I I #
vertex $-1 $398 $543 #
point $-1 -20.847780715880177 34.866068409717272 5.8411613146618437 #
coedge $-1 $413 $412 $405 $501 forward $402 $-1 #
edge $-1 $502 69.83307371511718 $505 81.889438301744633 $500 $544 forward 7 unknown #
vertex $-1 $417 $545 #
straight-curve $-1 34.560554691602221 34.280101224136104 13.770930217052765 0 1 0 I I #
edge $-1 $505 -23.386664333662132 $414 1.0388836177819556 $413 $546 forward 7 unknown #
vertex $-1 $504 $547 #
straight-curve $-1 34.560554691602221 -23.223442840166513 57.824521141483132 0 -0.76604443648966558 0.64278761758704617 I I #
point $-1 34.560554691602221 29.27758131106723 13.770930217052765 #
point $-1 10.135006740158133 43.645796819864387 1.7145656304253194 #
straight-curve $-1 0 43.645796819864394 13.770930217052769 -1 0 0 I I #
vertex $-1 $420 $548 #
point $-1 23.847780715880177 34.866068409717272 5.8411613146618437 #
straight-curve $-1 -71.395001068147835 43.645796819864394 0 0 0 -1 I I #
point $-1 -71.395001068147835 -43.645796819864394 -13.770930217052769 #
straight-curve $-1 -71.395001068147835 0 -13.770930217052769 0 1 0 I I #
point $-1 -71.395001068147835 43.645796819864394 -13.770930217052769 #
edge $-1 $456 -2.918805122545642 $445 2.918805122545642 $442 $549 forward 7 unknown #
straight-curve $-1 -81.709821592084026 -34.587025996472491 0 0 0 -1 I I #
straight-curve $-1 -76.55241133011593 -40.424636241563775 13.770930217052769 1 0 0 I I #
point $-1 -81.709821592084026 -40.424636241563775 13.770930217052769 #
point $-1 -81.709821592084026 -40.424636241563775 -13.770930217052769 #
straight-curve $-1 -81.709821592084026 -37.505831119018133 -13.770930217052769 0 1 0 I I #
point $-1 -81.709821592084026 -34.587025996472491 -13.770930217052769 #
point $-1 -81.709821592084026 -34.587025996472491 13.770930217052769 #
coedge $-1 $459 $461 $471 $530 reversed $338 $-1 #
vertex $-1 $530 $550 #
straight-curve $-1 81.709821592084026 -34.587025996472491 0 0 0 -1 I I #
straight-curve $-1 81.709821592084026 -37.505831119018133 -13.770930217052769 0 -1 0 I I #
point $-1 81.709821592084026 -34.587025996472491 -13.770930217052769 #
point $-1 81.709821592084026 -40.424636241563775 -13.770930217052769 #
edge $-1 $475 -2.918805122545642 $525 2.918805122545642 $524 $551 forward 7 unknown #
straight-curve $-1 76.55241133011593 -34.587025996472491 13.770930217052769 -1 0 0 I I #
straight-curve $-1 81.709821592084026 -40.424636241563775 0 0 0 -1 I I #
point $-1 81.709821592084026 -40.424636241563775 13.770930217052769 #
straight-curve $-1 38.157425050455579 -43.645796819864394 52.852341963231439 0 0 -1 I I #
point $-1 38.157425050455579 -43.645796819864394 13.770930217052769 #
straight-curve $-1 23.200091509395541 -43.645796819864394 10.159524528289097 1 0 0 I I #
point $-1 38.157425050455579 -43.645796819864394 10.159524528289104 #
point $-1 46.400183018791083 -40.268417617112611 10.388154332023376 #
straight-curve $-1 -10.135006740158133 43.645796819864394 83.604003932169945 0 0 -1 I I #
point $-1 -10.135006740158133 43.645796819864394 13.770930217052769 #
straight-curve $-1 -11.173890357940088 43.645796819864387 1.7145656304253265 -1 0 0 I I #
point $-1 -10.135006740158133 43.645796819864387 1.7145656304253194 #
point $-1 -22.347780715880177 33.901886983336709 4.6920946599273448 #
straight-curve $-1 34.560554691602221 43.645796819864394 83.604003932169945 0 0 -1 I I #
point $-1 34.560554691602221 43.645796819864394 13.770930217052769 #
straight-curve $-1 11.173890357940088 43.645796819864387 1.7145656304253265 -1 0 0 I I #
point $-1 34.560554691602221 43.645796819864387 1.7145656304253194 #
point $-1 22.347780715880177 33.901886983336709 4.6920946599273448 #
straight-curve $-1 -81.709821592084026 -37.505831119018133 13.770930217052769 0 -1 0 I I #
point $-1 81.709821592084026 -34.587025996472491 13.770930217052769 #
straight-curve $-1 81.709821592084026 -37.505831119018133 13.770930217052769 0 1 0 I I #
End-of-ACIS-data 