500 0 18 0           
7 Unknown 11 ACIS 5.0 NT 24 Fri Mar 26 17:01:11 1999 
-1 9.9999999999999995e-007 1e-010 
body $-1 $18 $-1 $19 #
body $-1 $20 $-1 $21 #
body $-1 $22 $-1 $23 #
body $-1 $24 $-1 $25 #
body $-1 $26 $-1 $27 #
body $-1 $28 $-1 $29 #
body $-1 $30 $-1 $31 #
body $-1 $32 $-1 $33 #
body $-1 $34 $-1 $35 #
body $-1 $36 $-1 $37 #
body $-1 $38 $-1 $39 #
body $-1 $40 $-1 $41 #
body $-1 $42 $-1 $43 #
body $-1 $44 $-1 $45 #
body $-1 $46 $-1 $47 #
body $-1 $48 $-1 $49 #
body $-1 $50 $-1 $51 #
body $-1 $52 $-1 $53 #
lump $-1 $-1 $54 $0 #
transform $-1 1 0 0 0 1 0 0 0 1 40.295419171727652 21.070272635963931 5.5306652398651748 1 rotate no_reflect no_shear #
lump $-1 $-1 $55 $1 #
transform $-1 1 0 0 0 1 0 0 0 1 40.295419171727652 21.070272635963931 5.5306652398651748 1 rotate no_reflect no_shear #
lump $-1 $-1 $56 $2 #
transform $-1 1 0 0 0 1 0 0 0 1 40.295419171727652 21.070272635963931 5.5306652398651748 1 rotate no_reflect no_shear #
lump $-1 $-1 $57 $3 #
transform $-1 1 0 0 0 1 0 0 0 1 40.295419171727652 21.070272635963931 5.5306652398651748 1 rotate no_reflect no_shear #
lump $-1 $-1 $58 $4 #
transform $-1 1 0 0 0 1 0 0 0 1 40.295419171727652 21.070272635963931 5.5306652398651748 1 rotate no_reflect no_shear #
lump $-1 $-1 $59 $5 #
transform $-1 1 0 0 0 1 0 0 0 1 40.295419171727652 21.070272635963931 5.5306652398651748 1 rotate no_reflect no_shear #
lump $-1 $-1 $60 $6 #
transform $-1 1 0 0 0 1 0 0 0 1 40.295419171727652 21.070272635963931 5.5306652398651748 1 rotate no_reflect no_shear #
lump $-1 $-1 $61 $7 #
transform $-1 1 0 0 0 1 0 0 0 1 40.295419171727652 21.070272635963931 5.5306652398651748 1 rotate no_reflect no_shear #
lump $-1 $-1 $62 $8 #
transform $-1 1 0 0 0 1 0 0 0 1 40.295419171727652 21.070272635963931 5.5306652398651748 1 rotate no_reflect no_shear #
lump $-1 $-1 $63 $9 #
transform $-1 1 0 0 0 1 0 0 0 1 40.295419171727652 21.070272635963931 5.5306652398651748 1 rotate no_reflect no_shear #
lump $-1 $-1 $64 $10 #
transform $-1 1 0 0 0 1 0 0 0 1 40.295419171727652 21.070272635963931 5.5306652398651748 1 rotate no_reflect no_shear #
lump $-1 $-1 $65 $11 #
transform $-1 1 0 0 0 1 0 0 0 1 40.295419171727652 21.070272635963931 5.5306652398651748 1 rotate no_reflect no_shear #
lump $-1 $-1 $66 $12 #
transform $-1 1 0 0 0 1 0 0 0 1 40.295419171727652 21.070272635963931 5.5306652398651748 1 rotate no_reflect no_shear #
lump $-1 $-1 $67 $13 #
transform $-1 1 0 0 0 1 0 0 0 1 40.295419171727652 21.070272635963931 5.5306652398651748 1 rotate no_reflect no_shear #
lump $-1 $-1 $68 $14 #
transform $-1 1 0 0 0 1 0 0 0 1 40.295419171727652 21.070272635963931 5.5306652398651748 1 rotate no_reflect no_shear #
lump $-1 $-1 $69 $15 #
transform $-1 1 0 0 0 1 0 0 0 1 40.295419171727652 21.070272635963931 5.5306652398651748 1 rotate no_reflect no_shear #
lump $-1 $-1 $70 $16 #
transform $-1 1 0 0 0 1 0 0 0 1 40.295419171727652 21.070272635963931 5.5306652398651748 1 rotate no_reflect no_shear #
lump $-1 $-1 $71 $17 #
transform $-1 1 0 0 0 1 0 0 0 1 40.295419171727652 21.070272635963931 5.5306652398651748 1 rotate no_reflect no_shear #
shell $-1 $-1 $-1 $72 $-1 $18 #
shell $-1 $-1 $-1 $73 $-1 $20 #
shell $-1 $-1 $-1 $74 $-1 $22 #
shell $-1 $-1 $-1 $75 $-1 $24 #
shell $-1 $-1 $-1 $76 $-1 $26 #
shell $-1 $-1 $-1 $77 $-1 $28 #
shell $-1 $-1 $-1 $78 $-1 $30 #
shell $-1 $-1 $-1 $79 $-1 $32 #
shell $-1 $-1 $-1 $80 $-1 $34 #
shell $-1 $-1 $-1 $81 $-1 $36 #
shell $-1 $-1 $-1 $82 $-1 $38 #
shell $-1 $-1 $-1 $83 $-1 $40 #
shell $-1 $-1 $-1 $84 $-1 $42 #
shell $-1 $-1 $-1 $85 $-1 $44 #
shell $-1 $-1 $-1 $86 $-1 $46 #
shell $-1 $-1 $-1 $87 $-1 $48 #
shell $-1 $-1 $-1 $88 $-1 $50 #
shell $-1 $-1 $-1 $89 $-1 $52 #
face $-1 $90 $91 $54 $-1 $92 forward single #
face $-1 $93 $94 $55 $-1 $95 forward single #
face $-1 $96 $97 $56 $-1 $98 reversed single #
face $-1 $99 $100 $57 $-1 $101 forward single #
face $-1 $102 $103 $58 $-1 $104 forward single #
face $-1 $105 $106 $59 $-1 $107 forward single #
face $-1 $108 $109 $60 $-1 $110 reversed single #
face $-1 $111 $112 $61 $-1 $113 forward single #
face $-1 $114 $115 $62 $-1 $116 forward single #
face $-1 $117 $118 $63 $-1 $119 reversed single #
face $-1 $120 $121 $64 $-1 $122 forward single #
face $-1 $123 $124 $65 $-1 $125 forward single #
face $-1 $126 $127 $66 $-1 $128 reversed single #
face $-1 $129 $130 $67 $-1 $131 forward single #
face $-1 $132 $133 $68 $-1 $134 forward single #
face $-1 $135 $136 $69 $-1 $137 reversed single #
face $-1 $138 $139 $70 $-1 $140 forward single #
face $-1 $141 $142 $71 $-1 $143 forward single #
face $-1 $144 $145 $54 $-1 $146 reversed single #
loop $-1 $-1 $147 $72 #
plane-surface $-1 0 0 5.5306652398651748 0 0 1 1 0 0 forward_v I I I I #
face $-1 $148 $149 $55 $-1 $150 reversed single #
loop $-1 $-1 $151 $73 #
plane-surface $-1 -38.11588100296472 0 -2.3750449147981465 0 0 1 1 0 0 forward_v I I I I #
face $-1 $152 $153 $56 $-1 $154 reversed single #
loop $-1 $-1 $155 $74 #
plane-surface $-1 -29.541389826777504 -73.942620428071706 62.355271626681471 1 0 0 0 0.6560590369687036 -0.75470957328743171 forward_v I I I I #
face $-1 $156 $157 $57 $-1 $158 forward single #
loop $-1 $159 $160 $75 #
cone-surface $-1 -26.72276654906933 -18.012484558513027 2.6594654503123505 0 0.6560590369687036 -0.75470957328743171 1 0 0 1 I I 0 1 1 forward I I I I #
face $-1 $161 $162 $58 $-1 $163 forward single #
loop $-1 $164 $165 $76 #
cone-surface $-1 -22.494831632507069 -18.012484558513027 2.6594654503123505 0 0.6560590369687036 -0.75470957328743171 1 0 0 1 I I 0 1 1 forward I I I I #
face $-1 $166 $167 $59 $-1 $168 forward single #
loop $-1 $169 $170 $77 #
cone-surface $-1 -18.266896715944807 -18.012484558513027 2.6594654503123505 0 0.6560590369687036 -0.75470957328743171 1 0 0 1 I I 0 1 1 forward I I I I #
face $-1 $171 $172 $60 $-1 $173 reversed single #
loop $-1 $-1 $174 $78 #
plane-surface $-1 -32.590156873912669 65.708052053239243 81.035000086774104 1 0 0 0 -0.83867057594974714 -0.54463902268945019 forward_v I I I I #
face $-1 $175 $176 $61 $-1 $177 forward single #
loop $-1 $178 $179 $79 #
cone-surface $-1 -28.821641884437486 18.535680051454378 2.8060303407869815 0 -0.83867057594974714 -0.54463902268945019 1 0 0 1 I I 0 1 1 forward I I I I #
face $-1 $180 $181 $62 $-1 $182 forward single #
loop $-1 $183 $184 $80 #
cone-surface $-1 -23.168869400224715 18.535680051454378 2.8060303407869815 0 -0.83867057594974714 -0.54463902268945019 1 0 0 1 I I 0 1 1 forward I I I I #
face $-1 $185 $186 $63 $-1 $187 reversed single #
loop $-1 $-1 $188 $81 #
plane-surface $-1 -13.806960999849979 65.708052053239243 81.035000086774104 1 0 0 0 -0.83867057594974714 -0.54463902268945019 forward_v I I I I #
face $-1 $189 $190 $64 $-1 $191 forward single #
loop $-1 $192 $193 $82 #
cone-surface $-1 -10.038446010374798 18.535680051454378 2.8060303407869815 0 -0.83867057594974714 -0.54463902268945019 1 0 0 1 I I 0 1 1 forward I I I I #
face $-1 $194 $195 $65 $-1 $196 forward single #
loop $-1 $197 $198 $83 #
cone-surface $-1 -4.3856735261620301 18.535680051454378 2.8060303407869815 0 -0.83867057594974714 -0.54463902268945019 1 0 0 1 I I 0 1 1 forward I I I I #
face $-1 $199 $200 $66 $-1 $201 reversed single #
loop $-1 $-1 $202 $84 #
plane-surface $-1 4.9762348742127056 65.708052053239243 81.035000086774104 1 0 0 0 -0.83867057594974714 -0.54463902268945019 forward_v I I I I #
face $-1 $203 $204 $67 $-1 $205 forward single #
loop $-1 $206 $207 $85 #
cone-surface $-1 8.7447498636878933 18.535680051454378 2.8060303407869815 0 -0.83867057594974714 -0.54463902268945019 1 0 0 1 I I 0 1 1 forward I I I I #
face $-1 $208 $209 $68 $-1 $210 forward single #
loop $-1 $211 $212 $86 #
cone-surface $-1 14.397522347900654 18.535680051454378 2.8060303407869815 0 -0.83867057594974714 -0.54463902268945019 1 0 0 1 I I 0 1 1 forward I I I I #
face $-1 $213 $214 $69 $-1 $215 reversed single #
loop $-1 $-1 $216 $87 #
plane-surface $-1 23.759430748275392 65.708052053239243 81.035000086774104 1 0 0 0 -0.83867057594974714 -0.54463902268945019 forward_v I I I I #
face $-1 $217 $218 $70 $-1 $219 forward single #
loop $-1 $220 $221 $88 #
cone-surface $-1 27.527945737750578 18.535680051454378 2.8060303407869815 0 -0.83867057594974714 -0.54463902268945019 1 0 0 1 I I 0 1 1 forward I I I I #
face $-1 $222 $223 $71 $-1 $224 forward single #
loop $-1 $225 $226 $89 #
cone-surface $-1 33.180718221963339 18.535680051454378 2.8060303407869815 0 -0.83867057594974714 -0.54463902268945019 1 0 0 1 I I 0 1 1 forward I I I I #
face $-1 $227 $228 $54 $-1 $229 reversed single #
loop $-1 $-1 $230 $90 #
plane-surface $-1 0 0 -5.5306652398651748 0 0 1 1 0 0 forward_v I I I I #
coedge $-1 $231 $232 $233 $234 forward $91 $-1 #
face $-1 $235 $236 $55 $-1 $237 reversed single #
loop $-1 $-1 $238 $93 #
plane-surface $-1 -35.936342834201788 0 -3.9528550773316606 -1 0 0 0 0 1 forward_v I I I I #
coedge $-1 $239 $240 $241 $242 forward $94 $-1 #
face $-1 $243 $244 $56 $-1 $245 reversed single #
loop $-1 $-1 $246 $96 #
plane-surface $-1 -22.494831632507069 -21.070272635963946 1.5325944096159319 0 -0.6560590369687036 0.75470957328743171 1 0 0 forward_v I I I I #
coedge $-1 $247 $248 $249 $250 reversed $97 $-1 #
face $-1 $-1 $251 $57 $-1 $252 forward single #
loop $-1 $253 $254 $99 #
cone-surface $-1 -26.72276654906933 -16.92629409995557 1.4099462892404437 0 0.6560590369687036 -0.75470957328743171 0.5 0 0 1 I I -0.70710678118654746 0.70710678118654746 0.5 forward I I I I #
loop $-1 $-1 $255 $75 #
coedge $-1 $160 $160 $256 $257 reversed $100 $-1 #
face $-1 $-1 $258 $58 $-1 $259 forward single #
loop $-1 $260 $261 $102 #
cone-surface $-1 -22.494831632507069 -16.92629409995557 1.4099462892404437 0 0.6560590369687036 -0.75470957328743171 0.5 0 0 1 I I -0.70710678118654746 0.70710678118654746 0.5 forward I I I I #
loop $-1 $-1 $262 $76 #
coedge $-1 $165 $165 $263 $264 reversed $103 $-1 #
face $-1 $-1 $265 $59 $-1 $266 forward single #
loop $-1 $267 $268 $105 #
cone-surface $-1 -18.266896715944807 -16.92629409995557 1.4099462892404437 0 0.6560590369687036 -0.75470957328743171 0.5 0 0 1 I I -0.70710678118654746 0.70710678118654746 0.5 forward I I I I #
loop $-1 $-1 $269 $77 #
coedge $-1 $170 $170 $270 $271 reversed $106 $-1 #
face $-1 $272 $273 $60 $-1 $274 reversed single #
loop $-1 $-1 $275 $108 #
plane-surface $-1 -25.995255642331102 -1.8811127565393804 37.142084653671141 0 0.83867057594974714 0.54463902268945019 1 0 0 forward_v I I I I #
coedge $-1 $276 $277 $278 $279 reversed $109 $-1 #
face $-1 $-1 $280 $61 $-1 $281 forward single #
loop $-1 $282 $283 $111 #
cone-surface $-1 -28.821641884437486 16.793097305936428 1.6743839104831446 0 -0.83867057594974714 -0.54463902268945019 0.5 0 0 1 I I -0.70710678118654746 0.70710678118654746 0.5 forward I I I I #
loop $-1 $-1 $284 $79 #
coedge $-1 $179 $179 $285 $286 reversed $112 $-1 #
face $-1 $-1 $287 $62 $-1 $288 forward single #
loop $-1 $289 $290 $114 #
cone-surface $-1 -23.168869400224715 16.793097305936428 1.6743839104831446 0 -0.83867057594974714 -0.54463902268945019 0.5 0 0 1 I I -0.70710678118654746 0.70710678118654746 0.5 forward I I I I #
loop $-1 $-1 $291 $80 #
coedge $-1 $184 $184 $292 $293 reversed $115 $-1 #
face $-1 $294 $295 $63 $-1 $296 reversed single #
loop $-1 $-1 $297 $117 #
plane-surface $-1 -7.2120597682684107 -1.8811127565393804 37.142084653671141 0 0.83867057594974714 0.54463902268945019 1 0 0 forward_v I I I I #
coedge $-1 $298 $299 $300 $301 reversed $118 $-1 #
face $-1 $-1 $302 $64 $-1 $303 forward single #
loop $-1 $304 $305 $120 #
cone-surface $-1 -10.038446010374798 16.793097305936428 1.6743839104831446 0 -0.83867057594974714 -0.54463902268945019 0.5 0 0 1 I I -0.70710678118654746 0.70710678118654746 0.5 forward I I I I #
loop $-1 $-1 $306 $82 #
coedge $-1 $193 $193 $307 $308 reversed $121 $-1 #
face $-1 $-1 $309 $65 $-1 $310 forward single #
loop $-1 $311 $312 $123 #
cone-surface $-1 -4.3856735261620301 16.793097305936428 1.6743839104831446 0 -0.83867057594974714 -0.54463902268945019 0.5 0 0 1 I I -0.70710678118654746 0.70710678118654746 0.5 forward I I I I #
loop $-1 $-1 $313 $83 #
coedge $-1 $198 $198 $314 $315 reversed $124 $-1 #
face $-1 $316 $317 $66 $-1 $318 reversed single #
loop $-1 $-1 $319 $126 #
plane-surface $-1 11.571136105794274 -1.8811127565393804 37.142084653671141 0 0.83867057594974714 0.54463902268945019 1 0 0 forward_v I I I I #
coedge $-1 $320 $321 $322 $323 reversed $127 $-1 #
face $-1 $-1 $324 $67 $-1 $325 forward single #
loop $-1 $326 $327 $129 #
cone-surface $-1 8.7447498636878933 16.793097305936428 1.6743839104831446 0 -0.83867057594974714 -0.54463902268945019 0.5 0 0 1 I I -0.70710678118654746 0.70710678118654746 0.5 forward I I I I #
loop $-1 $-1 $328 $85 #
coedge $-1 $207 $207 $329 $330 reversed $130 $-1 #
face $-1 $-1 $331 $68 $-1 $332 forward single #
loop $-1 $333 $334 $132 #
cone-surface $-1 14.397522347900654 16.793097305936428 1.6743839104831446 0 -0.83867057594974714 -0.54463902268945019 0.5 0 0 1 I I -0.70710678118654746 0.70710678118654746 0.5 forward I I I I #
loop $-1 $-1 $335 $86 #
coedge $-1 $212 $212 $336 $337 reversed $133 $-1 #
face $-1 $338 $339 $69 $-1 $340 reversed single #
loop $-1 $-1 $341 $135 #
plane-surface $-1 30.354331979856958 -1.8811127565393804 37.142084653671141 0 0.83867057594974714 0.54463902268945019 1 0 0 forward_v I I I I #
coedge $-1 $342 $343 $344 $345 reversed $136 $-1 #
face $-1 $-1 $346 $70 $-1 $347 forward single #
loop $-1 $348 $349 $138 #
cone-surface $-1 27.527945737750578 16.793097305936428 1.6743839104831446 0 -0.83867057594974714 -0.54463902268945019 0.5 0 0 1 I I -0.70710678118654746 0.70710678118654746 0.5 forward I I I I #
loop $-1 $-1 $350 $88 #
coedge $-1 $221 $221 $351 $352 reversed $139 $-1 #
face $-1 $-1 $353 $71 $-1 $354 forward single #
loop $-1 $355 $356 $141 #
cone-surface $-1 33.180718221963339 16.793097305936428 1.6743839104831446 0 -0.83867057594974714 -0.54463902268945019 0.5 0 0 1 I I -0.70710678118654746 0.70710678118654746 0.5 forward I I I I #
loop $-1 $-1 $357 $89 #
coedge $-1 $226 $226 $358 $359 reversed $142 $-1 #
face $-1 $360 $361 $54 $-1 $362 reversed single #
loop $-1 $-1 $363 $144 #
plane-surface $-1 0 -21.070272635963931 0 0 1 0 0 0 1 forward_v I I I I #
coedge $-1 $364 $365 $366 $367 forward $145 $-1 #
coedge $-1 $368 $147 $369 $370 forward $91 $-1 #
coedge $-1 $147 $368 $371 $372 forward $91 $-1 #
coedge $-1 $373 $374 $147 $234 reversed $375 $-1 #
edge $-1 $376 -21.070272635963931 $377 21.070272635963931 $233 $378 forward 7 unknown #
face $-1 $379 $380 $55 $-1 $381 reversed single #
loop $-1 $-1 $382 $148 #
plane-surface $-1 0 0 -5.5306652398651748 0 0 1 1 0 0 forward_v I I I I #
coedge $-1 $383 $241 $384 $385 reversed $149 $-1 #
coedge $-1 $386 $151 $387 $388 reversed $94 $-1 #
coedge $-1 $151 $386 $389 $390 reversed $94 $-1 #
coedge $-1 $238 $391 $151 $242 reversed $149 $-1 #
edge $-1 $392 -21.070272635963931 $393 21.070272635963931 $241 $394 forward 7 unknown #
face $-1 $395 $396 $56 $-1 $397 forward single #
loop $-1 $-1 $398 $152 #
plane-surface $-1 -15.448273438236633 -73.942620428071706 62.355271626681471 -1 0 0 0 -0.6560590369687036 0.75470957328743171 forward_v I I I I #
coedge $-1 $399 $400 $401 $402 reversed $153 $-1 #
coedge $-1 $248 $155 $403 $404 reversed $97 $-1 #
coedge $-1 $155 $247 $399 $405 reversed $97 $-1 #
coedge $-1 $401 $406 $155 $250 forward $407 $-1 #
edge $-1 $408 25.64697057347556 $409 29.64504140372479 $249 $410 forward 7 unknown #
loop $-1 $-1 $256 $156 #
plane-surface $-1 -22.494831632507069 -21.070272635963946 1.5325944096159319 0 -0.6560590369687036 0.75470957328743171 1 0 0 forward_v I I I I #
loop $-1 $-1 $411 $99 #
coedge $-1 $254 $254 $255 $412 reversed $157 $-1 #
coedge $-1 $255 $255 $254 $412 forward $159 $-1 #
coedge $-1 $256 $256 $160 $257 forward $251 $-1 #
edge $-1 $413 -5.7840436573664235e-016 $413 6.2831853071795996 $256 $414 forward 7 unknown #
loop $-1 $-1 $263 $161 #
plane-surface $-1 -22.494831632507069 -21.070272635963946 1.5325944096159319 0 -0.6560590369687036 0.75470957328743171 1 0 0 forward_v I I I I #
loop $-1 $-1 $415 $102 #
coedge $-1 $261 $261 $262 $416 reversed $162 $-1 #
coedge $-1 $262 $262 $261 $416 forward $164 $-1 #
coedge $-1 $263 $263 $165 $264 forward $258 $-1 #
edge $-1 $417 -5.7840436573664235e-016 $417 6.2831853071795996 $263 $418 forward 7 unknown #
loop $-1 $-1 $270 $166 #
plane-surface $-1 -22.494831632507069 -21.070272635963946 1.5325944096159319 0 -0.6560590369687036 0.75470957328743171 1 0 0 forward_v I I I I #
loop $-1 $-1 $419 $105 #
coedge $-1 $268 $268 $269 $420 reversed $167 $-1 #
coedge $-1 $269 $269 $268 $420 forward $169 $-1 #
coedge $-1 $270 $270 $170 $271 forward $265 $-1 #
edge $-1 $421 -5.7840436573664235e-016 $421 6.2831853071795996 $270 $422 forward 7 unknown #
face $-1 $423 $424 $60 $-1 $425 reversed single #
loop $-1 $-1 $426 $171 #
plane-surface $-1 -19.400354410749536 65.708052053239243 81.035000086774104 -1 0 0 0 0.83867057594974714 0.54463902268945019 forward_v I I I I #
coedge $-1 $427 $428 $429 $430 reversed $172 $-1 #
coedge $-1 $277 $174 $431 $432 reversed $109 $-1 #
coedge $-1 $174 $276 $427 $433 reversed $109 $-1 #
coedge $-1 $429 $434 $174 $279 forward $435 $-1 #
edge $-1 $436 11.78375339065569 $437 14.206443644588624 $278 $438 forward 7 unknown #
loop $-1 $-1 $285 $175 #
plane-surface $-1 -25.995255642331102 -1.8811127565393804 37.142084653671141 0 0.83867057594974714 0.54463902268945019 1 0 0 forward_v I I I I #
loop $-1 $-1 $439 $111 #
coedge $-1 $283 $283 $284 $440 reversed $176 $-1 #
coedge $-1 $284 $284 $283 $440 forward $178 $-1 #
coedge $-1 $285 $285 $179 $286 forward $280 $-1 #
edge $-1 $441 -5.9061577017975664e-016 $441 6.2831853071795996 $285 $442 forward 7 unknown #
loop $-1 $-1 $292 $180 #
plane-surface $-1 -25.995255642331102 -1.8811127565393804 37.142084653671141 0 0.83867057594974714 0.54463902268945019 1 0 0 forward_v I I I I #
loop $-1 $-1 $443 $114 #
coedge $-1 $290 $290 $291 $444 reversed $181 $-1 #
coedge $-1 $291 $291 $290 $444 forward $183 $-1 #
coedge $-1 $292 $292 $184 $293 forward $287 $-1 #
edge $-1 $445 -5.9061577017975664e-016 $445 6.2831853071795996 $292 $446 forward 7 unknown #
face $-1 $447 $448 $63 $-1 $449 forward single #
loop $-1 $-1 $450 $185 #
plane-surface $-1 -0.6171585366868424 65.708052053239243 81.035000086774104 -1 0 0 0 0.83867057594974714 0.54463902268945019 forward_v I I I I #
coedge $-1 $451 $452 $453 $454 reversed $186 $-1 #
coedge $-1 $299 $188 $455 $456 reversed $118 $-1 #
coedge $-1 $188 $298 $451 $457 reversed $118 $-1 #
coedge $-1 $453 $458 $188 $301 forward $448 $-1 #
edge $-1 $459 11.78375339065569 $460 14.206443644588624 $300 $461 forward 7 unknown #
loop $-1 $-1 $307 $189 #
plane-surface $-1 -7.2120597682684107 -1.8811127565393804 37.142084653671141 0 0.83867057594974714 0.54463902268945019 1 0 0 forward_v I I I I #
loop $-1 $-1 $462 $120 #
coedge $-1 $305 $305 $306 $463 reversed $190 $-1 #
coedge $-1 $306 $306 $305 $463 forward $192 $-1 #
coedge $-1 $307 $307 $193 $308 forward $302 $-1 #
edge $-1 $464 -5.9061577017975664e-016 $464 6.2831853071795996 $307 $465 forward 7 unknown #
loop $-1 $-1 $314 $194 #
plane-surface $-1 -7.2120597682684107 -1.8811127565393804 37.142084653671141 0 0.83867057594974714 0.54463902268945019 1 0 0 forward_v I I I I #
loop $-1 $-1 $466 $123 #
coedge $-1 $312 $312 $313 $467 reversed $195 $-1 #
coedge $-1 $313 $313 $312 $467 forward $197 $-1 #
coedge $-1 $314 $314 $198 $315 forward $309 $-1 #
edge $-1 $468 -5.9061577017975664e-016 $468 6.2831853071795996 $314 $469 forward 7 unknown #
face $-1 $470 $471 $66 $-1 $472 forward single #
loop $-1 $-1 $473 $199 #
plane-surface $-1 18.16603733737584 65.708052053239243 81.035000086774104 -1 0 0 0 0.83867057594974714 0.54463902268945019 forward_v I I I I #
coedge $-1 $474 $475 $476 $477 reversed $200 $-1 #
coedge $-1 $321 $202 $478 $479 reversed $127 $-1 #
coedge $-1 $202 $320 $474 $480 reversed $127 $-1 #
coedge $-1 $476 $481 $202 $323 forward $471 $-1 #
edge $-1 $482 11.78375339065569 $483 14.206443644588624 $322 $484 forward 7 unknown #
loop $-1 $-1 $329 $203 #
plane-surface $-1 11.571136105794274 -1.8811127565393804 37.142084653671141 0 0.83867057594974714 0.54463902268945019 1 0 0 forward_v I I I I #
loop $-1 $-1 $485 $129 #
coedge $-1 $327 $327 $328 $486 reversed $204 $-1 #
coedge $-1 $328 $328 $327 $486 forward $206 $-1 #
coedge $-1 $329 $329 $207 $330 forward $324 $-1 #
edge $-1 $487 -5.9061577017975664e-016 $487 6.2831853071795996 $329 $488 forward 7 unknown #
loop $-1 $-1 $336 $208 #
plane-surface $-1 11.571136105794274 -1.8811127565393804 37.142084653671141 0 0.83867057594974714 0.54463902268945019 1 0 0 forward_v I I I I #
loop $-1 $-1 $489 $132 #
coedge $-1 $334 $334 $335 $490 reversed $209 $-1 #
coedge $-1 $335 $335 $334 $490 forward $211 $-1 #
coedge $-1 $336 $336 $212 $337 forward $331 $-1 #
edge $-1 $491 -5.9061577017975664e-016 $491 6.2831853071795996 $336 $492 forward 7 unknown #
face $-1 $493 $494 $69 $-1 $495 forward single #
loop $-1 $-1 $496 $213 #
plane-surface $-1 36.949233211438525 65.708052053239243 81.035000086774104 -1 0 0 0 0.83867057594974714 0.54463902268945019 forward_v I I I I #
coedge $-1 $497 $498 $499 $500 reversed $214 $-1 #
coedge $-1 $343 $216 $501 $502 reversed $136 $-1 #
coedge $-1 $216 $342 $497 $503 reversed $136 $-1 #
coedge $-1 $499 $504 $216 $345 forward $494 $-1 #
edge $-1 $505 11.78375339065569 $506 14.206443644588624 $344 $507 forward 7 unknown #
loop $-1 $-1 $351 $217 #
plane-surface $-1 30.354331979856958 -1.8811127565393804 37.142084653671141 0 0.83867057594974714 0.54463902268945019 1 0 0 forward_v I I I I #
loop $-1 $-1 $508 $138 #
coedge $-1 $349 $349 $350 $509 reversed $218 $-1 #
coedge $-1 $350 $350 $349 $509 forward $220 $-1 #
coedge $-1 $351 $351 $221 $352 forward $346 $-1 #
edge $-1 $510 -5.9061577017975664e-016 $510 6.2831853071795996 $351 $511 forward 7 unknown #
loop $-1 $-1 $358 $222 #
plane-surface $-1 30.354331979856958 -1.8811127565393804 37.142084653671141 0 0.83867057594974714 0.54463902268945019 1 0 0 forward_v I I I I #
loop $-1 $-1 $512 $141 #
coedge $-1 $356 $356 $357 $513 reversed $223 $-1 #
coedge $-1 $357 $357 $356 $513 forward $225 $-1 #
coedge $-1 $358 $358 $226 $359 forward $353 $-1 #
edge $-1 $514 -5.9061577017975664e-016 $514 6.2831853071795996 $358 $515 forward 7 unknown #
face $-1 $516 $517 $54 $-1 $518 reversed single #
loop $-1 $-1 $519 $227 #
plane-surface $-1 -40.295419171727652 0 0 1 0 0 0 0 -1 forward_v I I I I #
coedge $-1 $520 $371 $521 $522 forward $228 $-1 #
coedge $-1 $523 $230 $520 $524 forward $145 $-1 #
coedge $-1 $230 $523 $525 $526 forward $145 $-1 #
coedge $-1 $374 $373 $230 $367 reversed $375 $-1 #
edge $-1 $527 -21.070272635963931 $528 21.070272635963931 $366 $529 forward 7 unknown #
coedge $-1 $232 $231 $530 $531 forward $91 $-1 #
coedge $-1 $532 $533 $231 $370 reversed $517 $-1 #
edge $-1 $377 -40.295419171727652 $534 40.295419171727652 $369 $535 forward 7 unknown #
coedge $-1 $363 $536 $232 $372 reversed $228 $-1 #
edge $-1 $537 -40.295419171727652 $376 40.295419171727652 $371 $538 forward 7 unknown #
coedge $-1 $366 $233 $536 $539 forward $375 $-1 #
coedge $-1 $233 $366 $532 $540 reversed $375 $-1 #
loop $-1 $-1 $373 $516 #
vertex $-1 $234 $541 #
vertex $-1 $234 $542 #
straight-curve $-1 40.295419171727652 0 5.5306652398651748 0 1 0 I I #
face $-1 $543 $544 $55 $-1 $545 reversed single #
loop $-1 $-1 $384 $235 #
plane-surface $-1 0 -21.070272635963931 0 0 1 0 0 0 1 forward_v I I I I #
coedge $-1 $546 $547 $383 $548 forward $236 $-1 #
coedge $-1 $391 $238 $382 $548 reversed $149 $-1 #
coedge $-1 $389 $549 $238 $385 forward $380 $-1 #
edge $-1 $550 -3.5542377011993445 $392 -0.39861737613231618 $384 $551 forward 7 unknown #
coedge $-1 $240 $239 $552 $553 reversed $94 $-1 #
coedge $-1 $554 $555 $239 $388 forward $556 $-1 #
edge $-1 $557 -21.237478670245292 $393 -16.878402332719428 $387 $558 forward 7 unknown #
coedge $-1 $559 $384 $240 $390 forward $380 $-1 #
edge $-1 $392 16.878402332719428 $560 21.237478670245292 $389 $561 forward 7 unknown #
coedge $-1 $241 $383 $554 $562 reversed $149 $-1 #
vertex $-1 $390 $563 #
vertex $-1 $388 $564 #
straight-curve $-1 -35.936342834201788 0 -2.3750449147981465 0 1 0 I I #
face $-1 $-1 $407 $56 $-1 $565 reversed single #
loop $-1 $-1 $566 $243 #
plane-surface $-1 0 0 5.5306652398651748 0 0 1 1 0 0 forward_v I I I I #
coedge $-1 $567 $568 $569 $570 reversed $244 $-1 #
coedge $-1 $571 $246 $248 $405 forward $153 $-1 #
coedge $-1 $246 $571 $567 $572 forward $153 $-1 #
coedge $-1 $569 $249 $246 $402 forward $407 $-1 #
edge $-1 $409 -18.293974010523968 $573 -4.2008576219830989 $401 $574 forward 7 unknown #
coedge $-1 $575 $576 $247 $404 forward $396 $-1 #
edge $-1 $577 -20.50029185282748 $408 -15.901037578071922 $403 $578 forward 7 unknown #
edge $-1 $409 1.888283279974768e-014 $577 6.0940717297671583 $248 $579 forward 7 unknown #
coedge $-1 $249 $569 $575 $580 reversed $407 $-1 #
loop $-1 $-1 $569 $395 #
vertex $-1 $580 $581 #
vertex $-1 $250 $582 #
straight-curve $-1 -29.541389826777504 -21.070272635963931 31.177635813340736 0 0 -1 I I #
coedge $-1 $411 $411 $-1 $583 reversed $253 $-1 #
edge $-1 $584 0 $584 6.2831853071796004 $254 $585 forward 7 unknown #
vertex $-1 $257 $586 #
ellipse-curve $-1 -26.72276654906933 -18.770645498586148 3.5316298247405626 0 -0.6560590369687036 0.75470957328743171 1 0 0 1 I I #
coedge $-1 $415 $415 $-1 $587 reversed $260 $-1 #
edge $-1 $588 0 $588 6.2831853071796004 $261 $589 forward 7 unknown #
vertex $-1 $264 $590 #
ellipse-curve $-1 -22.494831632507069 -18.770645498586148 3.5316298247405626 0 -0.6560590369687036 0.75470957328743171 1 0 0 1 I I #
coedge $-1 $419 $419 $-1 $591 reversed $267 $-1 #
edge $-1 $592 0 $592 6.2831853071796004 $268 $593 forward 7 unknown #
vertex $-1 $271 $594 #
ellipse-curve $-1 -18.266896715944807 -18.770645498586148 3.5316298247405626 0 -0.6560590369687036 0.75470957328743171 1 0 0 1 I I #
face $-1 $-1 $435 $60 $-1 $595 forward single #
loop $-1 $-1 $596 $272 #
plane-surface $-1 0 21.070272635963931 0 0 -1 0 0 0 -1 forward_v I I I I #
coedge $-1 $597 $598 $599 $600 reversed $273 $-1 #
coedge $-1 $601 $275 $277 $433 forward $172 $-1 #
coedge $-1 $275 $601 $597 $602 forward $172 $-1 #
coedge $-1 $599 $278 $275 $430 forward $435 $-1 #
edge $-1 $437 -19.592529052747118 $603 -6.4027265895839847 $429 $604 forward 7 unknown #
coedge $-1 $605 $606 $276 $432 forward $424 $-1 #
edge $-1 $607 -38.717450763760027 $436 -34.98683480352188 $431 $608 forward 7 unknown #
edge $-1 $437 37.692295783726301 $607 42.140545271927841 $277 $609 forward 7 unknown #
coedge $-1 $278 $599 $605 $610 forward $435 $-1 #
loop $-1 $-1 $599 $423 #
vertex $-1 $432 $611 #
vertex $-1 $279 $612 #
straight-curve $-1 -32.590156873912669 32.854026026619621 5.5306652398651721 0 -1 0 I I #
coedge $-1 $439 $439 $-1 $613 reversed $282 $-1 #
edge $-1 $614 0 $614 6.2831853071796004 $283 $615 forward 7 unknown #
vertex $-1 $286 $616 #
ellipse-curve $-1 -28.821641884437486 19.858927508997464 3.6653572597461004 0 0.83867057594974714 0.54463902268945019 1 0 0 1 I I #
coedge $-1 $443 $443 $-1 $617 reversed $289 $-1 #
edge $-1 $618 0 $618 6.2831853071796004 $290 $619 forward 7 unknown #
vertex $-1 $293 $620 #
ellipse-curve $-1 -23.168869400224715 19.858927508997464 3.6653572597461004 0 0.83867057594974714 0.54463902268945019 1 0 0 1 I I #
face $-1 $-1 $621 $63 $-1 $622 reversed single #
loop $-1 $-1 $300 $294 #
plane-surface $-1 0 0 5.5306652398651748 0 0 1 1 0 0 forward_v I I I I #
coedge $-1 $623 $624 $625 $626 reversed $295 $-1 #
coedge $-1 $627 $297 $299 $457 forward $186 $-1 #
coedge $-1 $297 $627 $623 $628 forward $186 $-1 #
coedge $-1 $625 $300 $297 $454 forward $448 $-1 #
edge $-1 $460 -10.200931115715774 $629 2.9888713474473629 $453 $630 forward 7 unknown #
coedge $-1 $631 $632 $298 $456 forward $621 $-1 #
edge $-1 $633 -38.717450763760027 $459 -34.98683480352188 $455 $634 forward 7 unknown #
edge $-1 $460 37.692295783726301 $633 42.140545271927841 $299 $635 forward 7 unknown #
coedge $-1 $300 $625 $631 $636 forward $448 $-1 #
vertex $-1 $456 $637 #
vertex $-1 $301 $638 #
straight-curve $-1 -13.806960999849979 32.854026026619621 5.5306652398651721 0 -1 0 I I #
coedge $-1 $462 $462 $-1 $639 reversed $304 $-1 #
edge $-1 $640 0 $640 6.2831853071796004 $305 $641 forward 7 unknown #
vertex $-1 $308 $642 #
ellipse-curve $-1 -10.038446010374798 19.858927508997464 3.6653572597461004 0 0.83867057594974714 0.54463902268945019 1 0 0 1 I I #
coedge $-1 $466 $466 $-1 $643 reversed $311 $-1 #
edge $-1 $644 0 $644 6.2831853071796004 $312 $645 forward 7 unknown #
vertex $-1 $315 $646 #
ellipse-curve $-1 -4.3856735261620301 19.858927508997464 3.6653572597461004 0 0.83867057594974714 0.54463902268945019 1 0 0 1 I I #
face $-1 $-1 $647 $66 $-1 $648 reversed single #
loop $-1 $-1 $322 $316 #
plane-surface $-1 0 0 5.5306652398651748 0 0 1 1 0 0 forward_v I I I I #
coedge $-1 $649 $650 $651 $652 reversed $317 $-1 #
coedge $-1 $653 $319 $321 $480 forward $200 $-1 #
coedge $-1 $319 $653 $649 $654 forward $200 $-1 #
coedge $-1 $651 $322 $319 $477 forward $471 $-1 #
edge $-1 $483 -0.80933317868443133 $655 12.380469284478703 $476 $656 forward 7 unknown #
coedge $-1 $657 $658 $320 $479 forward $647 $-1 #
edge $-1 $659 -38.717450763760027 $482 -34.98683480352188 $478 $660 forward 7 unknown #
edge $-1 $483 37.692295783726301 $659 42.140545271927841 $321 $661 forward 7 unknown #
coedge $-1 $322 $651 $657 $662 forward $471 $-1 #
vertex $-1 $323 $663 #
vertex $-1 $323 $664 #
straight-curve $-1 4.9762348742127056 32.854026026619621 5.5306652398651721 0 -1 0 I I #
coedge $-1 $485 $485 $-1 $665 reversed $326 $-1 #
edge $-1 $666 0 $666 6.2831853071796004 $327 $667 forward 7 unknown #
vertex $-1 $330 $668 #
ellipse-curve $-1 8.7447498636878933 19.858927508997464 3.6653572597461004 0 0.83867057594974714 0.54463902268945019 1 0 0 1 I I #
coedge $-1 $489 $489 $-1 $669 reversed $333 $-1 #
edge $-1 $670 0 $670 6.2831853071796004 $334 $671 forward 7 unknown #
vertex $-1 $337 $672 #
ellipse-curve $-1 14.397522347900654 19.858927508997464 3.6653572597461004 0 0.83867057594974714 0.54463902268945019 1 0 0 1 I I #
face $-1 $-1 $673 $69 $-1 $674 reversed single #
loop $-1 $-1 $344 $338 #
plane-surface $-1 0 0 5.5306652398651748 0 0 1 1 0 0 forward_v I I I I #
coedge $-1 $675 $676 $677 $678 reversed $339 $-1 #
coedge $-1 $679 $341 $343 $503 forward $214 $-1 #
coedge $-1 $341 $679 $675 $680 forward $214 $-1 #
coedge $-1 $677 $344 $341 $500 forward $494 $-1 #
edge $-1 $506 8.5822647583469127 $681 21.772067221510046 $499 $682 forward 7 unknown #
coedge $-1 $683 $684 $342 $502 forward $673 $-1 #
edge $-1 $685 -38.717450763760027 $505 -34.98683480352188 $501 $686 forward 7 unknown #
edge $-1 $506 37.692295783726301 $685 42.140545271927841 $343 $687 forward 7 unknown #
coedge $-1 $344 $677 $683 $688 forward $494 $-1 #
vertex $-1 $345 $689 #
vertex $-1 $345 $690 #
straight-curve $-1 23.759430748275392 32.854026026619621 5.5306652398651721 0 -1 0 I I #
coedge $-1 $508 $508 $-1 $691 reversed $348 $-1 #
edge $-1 $692 0 $692 6.2831853071796004 $349 $693 forward 7 unknown #
vertex $-1 $352 $694 #
ellipse-curve $-1 27.527945737750578 19.858927508997464 3.6653572597461004 0 0.83867057594974714 0.54463902268945019 1 0 0 1 I I #
coedge $-1 $512 $512 $-1 $695 reversed $355 $-1 #
edge $-1 $696 0 $696 6.2831853071796004 $356 $697 forward 7 unknown #
vertex $-1 $359 $698 #
ellipse-curve $-1 33.180718221963339 19.858927508997464 3.6653572597461004 0 0.83867057594974714 0.54463902268945019 1 0 0 1 I I #
face $-1 $-1 $375 $54 $-1 $699 reversed single #
loop $-1 $-1 $532 $360 #
plane-surface $-1 0 21.070272635963931 0 0 -1 0 0 0 -1 forward_v I I I I #
coedge $-1 $700 $530 $533 $701 forward $361 $-1 #
coedge $-1 $536 $363 $364 $524 reversed $228 $-1 #
coedge $-1 $530 $700 $363 $522 reversed $361 $-1 #
edge $-1 $537 -5.5306652398651748 $702 5.5306652398651748 $521 $703 forward 7 unknown #
coedge $-1 $365 $364 $700 $704 forward $145 $-1 #
edge $-1 $528 -40.295419171727652 $702 40.295419171727652 $520 $705 forward 7 unknown #
coedge $-1 $533 $532 $365 $526 reversed $517 $-1 #
edge $-1 $706 -40.295419171727652 $527 40.295419171727652 $525 $707 forward 7 unknown #
vertex $-1 $367 $708 #
vertex $-1 $539 $709 #
straight-curve $-1 40.295419171727652 0 -5.5306652398651748 0 -1 0 I I #
coedge $-1 $519 $521 $368 $531 reversed $361 $-1 #
edge $-1 $534 -21.070272635963931 $537 21.070272635963931 $530 $710 forward 7 unknown #
coedge $-1 $525 $369 $374 $540 forward $517 $-1 #
coedge $-1 $369 $525 $519 $701 reversed $517 $-1 #
vertex $-1 $370 $711 #
straight-curve $-1 0 21.070272635963931 5.5306652398651748 -1 0 0 I I #
coedge $-1 $371 $520 $373 $539 reversed $228 $-1 #
vertex $-1 $531 $712 #
straight-curve $-1 0 -21.070272635963931 5.5306652398651748 1 0 0 I I #
edge $-1 $376 -5.5306652398651748 $528 5.5306652398651748 $373 $713 forward 7 unknown #
edge $-1 $377 -5.5306652398651748 $527 5.5306652398651748 $374 $714 forward 7 unknown #
point $-1 40.295419171727652 -21.070272635963931 5.5306652398651748 #
point $-1 40.295419171727652 21.070272635963931 5.5306652398651748 #
face $-1 $-1 $556 $55 $-1 $715 reversed single #
loop $-1 $-1 $552 $379 #
plane-surface $-1 -40.295419171727652 0 0 1 0 0 0 0 -1 forward_v I I I I #
coedge $-1 $716 $382 $549 $717 forward $236 $-1 #
coedge $-1 $382 $716 $718 $719 forward $236 $-1 #
edge $-1 $720 -21.070272635963931 $550 21.070272635963931 $382 $721 forward 7 unknown #
coedge $-1 $384 $559 $546 $717 reversed $380 $-1 #
vertex $-1 $717 $722 #
straight-curve $-1 -35.936342834201788 -21.070272635963931 -1.9764275386658303 0 0 1 I I #
coedge $-1 $723 $724 $386 $553 forward $544 $-1 #
edge $-1 $560 -21.070272635963931 $557 21.070272635963931 $552 $725 forward 7 unknown #
coedge $-1 $718 $387 $391 $562 forward $556 $-1 #
coedge $-1 $387 $718 $723 $726 reversed $556 $-1 #
loop $-1 $-1 $554 $543 #
vertex $-1 $726 $727 #
straight-curve $-1 -19.05794050148236 21.070272635963931 -2.3750449147981465 1 0 0 I I #
coedge $-1 $549 $389 $724 $728 forward $380 $-1 #
vertex $-1 $728 $729 #
straight-curve $-1 -19.05794050148236 -21.070272635963931 -2.3750449147981465 -1 0 0 I I #
edge $-1 $393 0.39861737613231618 $720 3.5542377011993445 $554 $730 forward 7 unknown #
point $-1 -35.936342834201788 -21.070272635963931 -2.3750449147981465 #
point $-1 -35.936342834201788 21.070272635963931 -2.3750449147981465 #
plane-surface $-1 0 -21.070272635963931 0 0 1 0 0 0 1 forward_v I I I I #
coedge $-1 $576 $575 $568 $731 forward $396 $-1 #
coedge $-1 $568 $398 $400 $572 reversed $244 $-1 #
coedge $-1 $398 $567 $566 $731 reversed $244 $-1 #
coedge $-1 $406 $401 $398 $570 forward $407 $-1 #
edge $-1 $573 -29.64504140372479 $732 -25.64697057347556 $569 $733 forward 7 unknown #
coedge $-1 $400 $399 $576 $734 reversed $153 $-1 #
edge $-1 $735 -6.0940717297671583 $573 -1.888283279974768e-014 $567 $736 forward 7 unknown #
vertex $-1 $402 $737 #
straight-curve $-1 -11.247415816253534 -21.070272635963931 1.5325944096159443 1 0 0 I I #
coedge $-1 $566 $403 $406 $580 forward $396 $-1 #
coedge $-1 $403 $566 $571 $734 forward $396 $-1 #
vertex $-1 $404 $738 #
straight-curve $-1 -29.541389826777504 -36.971310214035853 5.5306652398651757 0 -1 0 I I #
straight-curve $-1 -29.541389826777504 -21.070272635963946 1.5325944096159319 0 0.75470957328743171 0.6560590369687036 I I #
edge $-1 $408 -29.541389826777504 $732 -15.448273438236633 $406 $739 forward 7 unknown #
point $-1 -29.541389826777504 -21.070272635963931 5.5306652398651748 #
point $-1 -29.541389826777504 -21.070272635963931 1.5325944096159443 #
edge $-1 $740 1 $740 0 $411 $-1 forward 7 unknown #
vertex $-1 $412 $741 #
ellipse-curve $-1 -26.72276654906933 -17.254323618439923 1.7873010758841597 0 -0.6560590369687036 0.75470957328743171 1 0 0 1 I I #
point $-1 -25.72276654906933 -18.770645498586131 3.5316298247405413 #
edge $-1 $742 1 $742 0 $415 $-1 forward 7 unknown #
vertex $-1 $416 $743 #
ellipse-curve $-1 -22.494831632507069 -17.254323618439923 1.7873010758841597 0 -0.6560590369687036 0.75470957328743171 1 0 0 1 I I #
point $-1 -21.494831632507069 -18.770645498586131 3.5316298247405413 #
edge $-1 $744 1 $744 0 $419 $-1 forward 7 unknown #
vertex $-1 $420 $745 #
ellipse-curve $-1 -18.266896715944807 -17.254323618439923 1.7873010758841597 0 -0.6560590369687036 0.75470957328743171 1 0 0 1 I I #
point $-1 -17.266896715944807 -18.770645498586131 3.5316298247405413 #
plane-surface $-1 0 0 5.5306652398651748 0 0 1 1 0 0 forward_v I I I I #
coedge $-1 $606 $605 $598 $746 forward $424 $-1 #
coedge $-1 $598 $426 $428 $602 reversed $273 $-1 #
coedge $-1 $426 $597 $596 $746 reversed $273 $-1 #
coedge $-1 $434 $429 $426 $600 forward $435 $-1 #
edge $-1 $603 -14.206443644588624 $747 -11.78375339065569 $599 $748 forward 7 unknown #
coedge $-1 $428 $427 $606 $749 reversed $172 $-1 #
edge $-1 $750 -42.140545271927841 $603 -37.692295783726301 $597 $751 forward 7 unknown #
vertex $-1 $430 $752 #
straight-curve $-1 -12.997627821165551 18.647582382030993 5.5306652398651757 1 0 0 I I #
coedge $-1 $596 $431 $434 $610 reversed $424 $-1 #
coedge $-1 $431 $596 $601 $749 forward $424 $-1 #
vertex $-1 $432 $753 #
straight-curve $-1 -32.590156873912669 21.070272635963931 40.517500043387052 0 0 1 I I #
straight-curve $-1 -32.590156873912669 -1.8811127565393804 37.142084653671141 0 0.54463902268945019 -0.83867057594974714 I I #
edge $-1 $747 19.400354410749536 $436 32.590156873912669 $605 $754 forward 7 unknown #
point $-1 -32.590156873912669 21.070272635963931 5.5306652398651748 #
point $-1 -32.590156873912669 18.647582382030997 5.5306652398651792 #
edge $-1 $755 1 $755 0 $439 $-1 forward 7 unknown #
vertex $-1 $440 $756 #
ellipse-curve $-1 -28.821641884437486 17.212432593911302 1.9467034218278698 0 0.83867057594974714 0.54463902268945019 1 0 0 1 I I #
point $-1 -27.821641884437486 19.858927508997454 3.6653572597460942 #
edge $-1 $757 1 $757 0 $443 $-1 forward 7 unknown #
vertex $-1 $444 $758 #
ellipse-curve $-1 -23.168869400224715 17.212432593911302 1.9467034218278698 0 0.83867057594974714 0.54463902268945019 1 0 0 1 I I #
point $-1 -22.168869400224715 19.858927508997454 3.6653572597460942 #
loop $-1 $-1 $455 $447 #
plane-surface $-1 0 21.070272635963931 0 0 -1 0 0 0 -1 forward_v I I I I #
coedge $-1 $624 $450 $452 $628 reversed $295 $-1 #
coedge $-1 $450 $623 $759 $760 reversed $295 $-1 #
coedge $-1 $458 $453 $450 $626 forward $448 $-1 #
edge $-1 $629 -14.206443644588624 $761 -11.78375339065569 $625 $762 forward 7 unknown #
coedge $-1 $452 $451 $632 $763 reversed $186 $-1 #
edge $-1 $764 -42.140545271927841 $629 -37.692295783726301 $623 $765 forward 7 unknown #
vertex $-1 $454 $766 #
straight-curve $-1 -3.6060298841342053 18.647582382030993 5.5306652398651757 1 0 0 I I #
coedge $-1 $759 $455 $458 $636 reversed $621 $-1 #
coedge $-1 $455 $759 $627 $763 forward $621 $-1 #
vertex $-1 $456 $767 #
straight-curve $-1 -13.806960999849979 21.070272635963931 40.517500043387052 0 0 1 I I #
straight-curve $-1 -13.806960999849979 -1.8811127565393804 37.142084653671141 0 0.54463902268945019 -0.83867057594974714 I I #
edge $-1 $761 0.6171585366868424 $459 13.806960999849979 $631 $768 forward 7 unknown #
point $-1 -13.806960999849979 21.070272635963931 5.5306652398651748 #
point $-1 -13.806960999849979 18.647582382030997 5.5306652398651792 #
edge $-1 $769 1 $769 0 $462 $-1 forward 7 unknown #
vertex $-1 $463 $770 #
ellipse-curve $-1 -10.038446010374798 17.212432593911302 1.9467034218278698 0 0.83867057594974714 0.54463902268945019 1 0 0 1 I I #
point $-1 -9.0384460103747983 19.858927508997454 3.6653572597460942 #
edge $-1 $771 1 $771 0 $466 $-1 forward 7 unknown #
vertex $-1 $467 $772 #
ellipse-curve $-1 -4.3856735261620301 17.212432593911302 1.9467034218278698 0 0.83867057594974714 0.54463902268945019 1 0 0 1 I I #
point $-1 -3.3856735261620301 19.858927508997454 3.6653572597460942 #
loop $-1 $-1 $478 $470 #
plane-surface $-1 0 21.070272635963931 0 0 -1 0 0 0 -1 forward_v I I I I #
coedge $-1 $650 $473 $475 $654 reversed $317 $-1 #
coedge $-1 $473 $649 $773 $774 reversed $317 $-1 #
coedge $-1 $481 $476 $473 $652 forward $471 $-1 #
edge $-1 $655 -14.206443644588624 $775 -11.78375339065569 $651 $776 forward 7 unknown #
coedge $-1 $475 $474 $658 $777 reversed $200 $-1 #
edge $-1 $778 -42.140545271927841 $655 -37.692295783726301 $649 $779 forward 7 unknown #
vertex $-1 $477 $780 #
straight-curve $-1 5.7855680528971369 18.647582382030993 5.5306652398651757 1 0 0 I I #
coedge $-1 $773 $478 $481 $662 reversed $647 $-1 #
coedge $-1 $478 $773 $653 $777 forward $647 $-1 #
vertex $-1 $479 $781 #
straight-curve $-1 4.9762348742127056 21.070272635963931 40.517500043387052 0 0 1 I I #
straight-curve $-1 4.9762348742127056 -1.8811127565393804 37.142084653671141 0 0.54463902268945019 -0.83867057594974714 I I #
edge $-1 $775 -18.16603733737584 $482 -4.9762348742127056 $657 $782 forward 7 unknown #
point $-1 4.9762348742127056 21.070272635963931 5.5306652398651748 #
point $-1 4.9762348742127056 18.647582382030997 5.5306652398651792 #
edge $-1 $783 1 $783 0 $485 $-1 forward 7 unknown #
vertex $-1 $486 $784 #
ellipse-curve $-1 8.7447498636878933 17.212432593911302 1.9467034218278698 0 0.83867057594974714 0.54463902268945019 1 0 0 1 I I #
point $-1 9.7447498636878933 19.858927508997454 3.6653572597460942 #
edge $-1 $785 1 $785 0 $489 $-1 forward 7 unknown #
vertex $-1 $490 $786 #
ellipse-curve $-1 14.397522347900654 17.212432593911302 1.9467034218278698 0 0.83867057594974714 0.54463902268945019 1 0 0 1 I I #
point $-1 15.397522347900654 19.858927508997454 3.6653572597460942 #
loop $-1 $-1 $501 $493 #
plane-surface $-1 0 21.070272635963931 0 0 -1 0 0 0 -1 forward_v I I I I #
coedge $-1 $676 $496 $498 $680 reversed $339 $-1 #
coedge $-1 $496 $675 $787 $788 reversed $339 $-1 #
coedge $-1 $504 $499 $496 $678 forward $494 $-1 #
edge $-1 $681 -14.206443644588624 $789 -11.78375339065569 $677 $790 forward 7 unknown #
coedge $-1 $498 $497 $684 $791 reversed $214 $-1 #
edge $-1 $792 -42.140545271927841 $681 -37.692295783726301 $675 $793 forward 7 unknown #
vertex $-1 $500 $794 #
straight-curve $-1 15.177165989928479 18.647582382030993 5.5306652398651757 1 0 0 I I #
coedge $-1 $787 $501 $504 $688 reversed $673 $-1 #
coedge $-1 $501 $787 $679 $791 forward $673 $-1 #
vertex $-1 $502 $795 #
straight-curve $-1 23.759430748275392 21.070272635963931 40.517500043387052 0 0 1 I I #
straight-curve $-1 23.759430748275392 -1.8811127565393804 37.142084653671141 0 0.54463902268945019 -0.83867057594974714 I I #
edge $-1 $789 -36.949233211438525 $505 -23.759430748275392 $683 $796 forward 7 unknown #
point $-1 23.759430748275392 21.070272635963931 5.5306652398651748 #
point $-1 23.759430748275392 18.647582382030997 5.5306652398651792 #
edge $-1 $797 1 $797 0 $508 $-1 forward 7 unknown #
vertex $-1 $509 $798 #
ellipse-curve $-1 27.527945737750578 17.212432593911302 1.9467034218278698 0 0.83867057594974714 0.54463902268945019 1 0 0 1 I I #
point $-1 28.527945737750578 19.858927508997454 3.6653572597460942 #
edge $-1 $799 1 $799 0 $512 $-1 forward 7 unknown #
vertex $-1 $513 $800 #
ellipse-curve $-1 33.180718221963339 17.212432593911302 1.9467034218278698 0 0.83867057594974714 0.54463902268945019 1 0 0 1 I I #
point $-1 34.180718221963339 19.858927508997454 3.6653572597460942 #
plane-surface $-1 40.295419171727652 0 0 -1 0 0 0 0 1 forward_v I I I I #
coedge $-1 $521 $519 $523 $704 reversed $361 $-1 #
edge $-1 $534 -5.5306652398651748 $706 5.5306652398651748 $533 $801 forward 7 unknown #
vertex $-1 $704 $802 #
straight-curve $-1 -40.295419171727652 -21.070272635963931 0 0 0 -1 I I #
edge $-1 $702 -21.070272635963931 $706 21.070272635963931 $700 $803 forward 7 unknown #
straight-curve $-1 0 -21.070272635963931 -5.5306652398651748 -1 0 0 I I #
vertex $-1 $526 $804 #
straight-curve $-1 0 21.070272635963931 -5.5306652398651748 1 0 0 I I #
point $-1 40.295419171727652 21.070272635963931 -5.5306652398651748 #
point $-1 40.295419171727652 -21.070272635963931 -5.5306652398651748 #
straight-curve $-1 -40.295419171727652 0 5.5306652398651748 0 -1 0 I I #
point $-1 -40.295419171727652 21.070272635963931 5.5306652398651748 #
point $-1 -40.295419171727652 -21.070272635963931 5.5306652398651748 #
straight-curve $-1 40.295419171727652 -21.070272635963931 0 0 0 -1 I I #
straight-curve $-1 40.295419171727652 21.070272635963931 0 0 0 -1 I I #
plane-surface $-1 0 21.070272635963931 0 0 -1 0 0 0 -1 forward_v I I I I #
coedge $-1 $547 $546 $805 $806 forward $236 $-1 #
edge $-1 $550 35.936342834201788 $807 40.295419171727652 $549 $808 forward 7 unknown #
coedge $-1 $555 $554 $547 $719 reversed $556 $-1 #
edge $-1 $809 -40.295419171727652 $720 -35.936342834201788 $718 $810 forward 7 unknown #
vertex $-1 $562 $811 #
straight-curve $-1 -35.936342834201788 0 -5.5306652398651748 0 -1 0 I I #
point $-1 -35.936342834201788 -21.070272635963931 -5.5306652398651748 #
coedge $-1 $805 $552 $555 $726 forward $544 $-1 #
coedge $-1 $552 $805 $559 $728 reversed $544 $-1 #
straight-curve $-1 -40.295419171727652 0 -2.3750449147981465 0 1 0 I I #
edge $-1 $557 2.3750449147981465 $809 5.5306652398651748 $555 $812 forward 7 unknown #
point $-1 -40.295419171727652 21.070272635963931 -2.3750449147981465 #
edge $-1 $560 2.3750449147981465 $807 5.5306652398651748 $724 $813 forward 7 unknown #
point $-1 -40.295419171727652 -21.070272635963931 -2.3750449147981465 #
straight-curve $-1 -35.936342834201788 21.070272635963931 -1.9764275386658303 0 0 -1 I I #
edge $-1 $732 15.901037578071922 $735 20.50029185282748 $566 $814 forward 7 unknown #
vertex $-1 $570 $815 #
straight-curve $-1 -15.448273438236633 -21.070272635963931 31.177635813340736 0 0 1 I I #
edge $-1 $735 4.2008576219830989 $577 18.293974010523968 $576 $816 forward 7 unknown #
vertex $-1 $734 $817 #
straight-curve $-1 -15.448273438236633 -21.070272635963946 1.5325944096159319 0 -0.75470957328743171 -0.6560590369687036 I I #
point $-1 -15.448273438236633 -21.070272635963931 1.5325944096159443 #
point $-1 -29.541389826777504 -16.471018361208372 5.5306652398651748 #
straight-curve $-1 0 -21.070272635963931 5.5306652398651748 1 0 0 I I #
vertex $-1 $583 $818 #
point $-1 -25.72276654906933 -17.254323618439923 1.7873010758841597 #
vertex $-1 $587 $819 #
point $-1 -21.494831632507069 -17.254323618439923 1.7873010758841597 #
vertex $-1 $591 $820 #
point $-1 -17.266896715944807 -17.254323618439923 1.7873010758841597 #
edge $-1 $747 34.98683480352188 $750 38.717450763760027 $596 $821 forward 7 unknown #
vertex $-1 $610 $822 #
straight-curve $-1 -19.400354410749536 32.854026026619621 5.5306652398651721 0 1 0 I I #
edge $-1 $750 6.4027265895839847 $607 19.592529052747118 $606 $823 forward 7 unknown #
vertex $-1 $749 $824 #
straight-curve $-1 -19.400354410749536 -1.8811127565393804 37.142084653671141 0 -0.54463902268945019 0.83867057594974714 I I #
point $-1 -19.400354410749536 18.647582382030997 5.5306652398651792 #
point $-1 -32.590156873912669 21.070272635963931 1.8000492796270251 #
straight-curve $-1 0 21.070272635963931 5.5306652398651748 -1 0 0 I I #
vertex $-1 $613 $825 #
point $-1 -27.821641884437486 17.212432593911302 1.9467034218278698 #
vertex $-1 $617 $826 #
point $-1 -22.168869400224715 17.212432593911302 1.9467034218278698 #
coedge $-1 $632 $631 $624 $760 forward $621 $-1 #
edge $-1 $761 34.98683480352188 $764 38.717450763760027 $759 $827 forward 7 unknown #
vertex $-1 $636 $828 #
straight-curve $-1 -0.6171585366868424 32.854026026619621 5.5306652398651721 0 1 0 I I #
edge $-1 $764 -2.9888713474473629 $633 10.200931115715774 $632 $829 forward 7 unknown #
vertex $-1 $763 $830 #
straight-curve $-1 -0.6171585366868424 -1.8811127565393804 37.142084653671141 0 -0.54463902268945019 0.83867057594974714 I I #
point $-1 -0.6171585366868424 18.647582382030997 5.5306652398651792 #
point $-1 -13.806960999849979 21.070272635963931 1.8000492796270251 #
straight-curve $-1 0 21.070272635963931 5.5306652398651748 -1 0 0 I I #
vertex $-1 $639 $831 #
point $-1 -9.0384460103747983 17.212432593911302 1.9467034218278698 #
vertex $-1 $643 $832 #
point $-1 -3.3856735261620301 17.212432593911302 1.9467034218278698 #
coedge $-1 $658 $657 $650 $774 forward $647 $-1 #
edge $-1 $775 34.98683480352188 $778 38.717450763760027 $773 $833 forward 7 unknown #
vertex $-1 $662 $834 #
straight-curve $-1 18.16603733737584 32.854026026619621 5.5306652398651721 0 1 0 I I #
edge $-1 $778 -12.380469284478703 $659 0.80933317868443133 $658 $835 forward 7 unknown #
vertex $-1 $777 $836 #
straight-curve $-1 18.16603733737584 -1.8811127565393804 37.142084653671141 0 -0.54463902268945019 0.83867057594974714 I I #
point $-1 18.16603733737584 18.647582382030997 5.5306652398651792 #
point $-1 4.9762348742127056 21.070272635963931 1.8000492796270251 #
straight-curve $-1 0 21.070272635963931 5.5306652398651748 -1 0 0 I I #
vertex $-1 $665 $837 #
point $-1 9.7447498636878933 17.212432593911302 1.9467034218278698 #
vertex $-1 $669 $838 #
point $-1 15.397522347900654 17.212432593911302 1.9467034218278698 #
coedge $-1 $684 $683 $676 $788 forward $673 $-1 #
edge $-1 $789 34.98683480352188 $792 38.717450763760027 $787 $839 forward 7 unknown #
vertex $-1 $688 $840 #
straight-curve $-1 36.949233211438525 32.854026026619621 5.5306652398651721 0 1 0 I I #
edge $-1 $792 -21.772067221510046 $685 -8.5822647583469127 $684 $841 forward 7 unknown #
vertex $-1 $791 $842 #
straight-curve $-1 36.949233211438525 -1.8811127565393804 37.142084653671141 0 -0.54463902268945019 0.83867057594974714 I I #
point $-1 36.949233211438525 18.647582382030997 5.5306652398651792 #
point $-1 23.759430748275392 21.070272635963931 1.8000492796270251 #
straight-curve $-1 0 21.070272635963931 5.5306652398651748 -1 0 0 I I #
vertex $-1 $691 $843 #
point $-1 28.527945737750578 17.212432593911302 1.9467034218278698 #
vertex $-1 $695 $844 #
point $-1 34.180718221963339 17.212432593911302 1.9467034218278698 #
straight-curve $-1 -40.295419171727652 21.070272635963931 0 0 0 -1 I I #
point $-1 -40.295419171727652 -21.070272635963931 -5.5306652398651748 #
straight-curve $-1 -40.295419171727652 0 -5.5306652398651748 0 1 0 I I #
point $-1 -40.295419171727652 21.070272635963931 -5.5306652398651748 #
coedge $-1 $724 $723 $716 $806 reversed $544 $-1 #
edge $-1 $807 -21.070272635963931 $809 21.070272635963931 $805 $845 forward 7 unknown #
vertex $-1 $806 $846 #
straight-curve $-1 0 -21.070272635963931 -5.5306652398651748 -1 0 0 I I #
vertex $-1 $719 $847 #
straight-curve $-1 0 21.070272635963931 -5.5306652398651748 1 0 0 I I #
point $-1 -35.936342834201788 21.070272635963931 -5.5306652398651748 #
straight-curve $-1 -40.295419171727652 21.070272635963931 0 0 0 -1 I I #
straight-curve $-1 -40.295419171727652 -21.070272635963931 0 0 0 -1 I I #
straight-curve $-1 -15.448273438236633 -36.971310214035853 5.5306652398651757 0 1 0 I I #
point $-1 -15.448273438236633 -21.070272635963931 5.5306652398651748 #
straight-curve $-1 -11.247415816253534 -16.471018361208372 5.5306652398651757 -1 0 0 I I #
point $-1 -15.448273438236633 -16.471018361208372 5.5306652398651748 #
point $-1 -26.72276654906933 -16.598264581471216 1.0325915025967278 #
point $-1 -22.494831632507069 -16.598264581471216 1.0325915025967278 #
point $-1 -18.266896715944807 -16.598264581471216 1.0325915025967278 #
straight-curve $-1 -19.400354410749536 21.070272635963931 40.517500043387052 0 0 -1 I I #
point $-1 -19.400354410749536 21.070272635963931 5.5306652398651748 #
straight-curve $-1 -12.997627821165551 21.070272635963931 1.8000492796270251 -1 0 0 I I #
point $-1 -19.400354410749536 21.070272635963931 1.8000492796270251 #
point $-1 -28.821641884437486 16.373762017961553 1.4020643991384194 #
point $-1 -23.168869400224715 16.373762017961553 1.4020643991384194 #
straight-curve $-1 -0.6171585366868424 21.070272635963931 40.517500043387052 0 0 -1 I I #
point $-1 -0.6171585366868424 21.070272635963931 5.5306652398651748 #
straight-curve $-1 -3.6060298841342053 21.070272635963931 1.8000492796270251 -1 0 0 I I #
point $-1 -0.6171585366868424 21.070272635963931 1.8000492796270251 #
point $-1 -10.038446010374798 16.373762017961553 1.4020643991384194 #
point $-1 -4.3856735261620301 16.373762017961553 1.4020643991384194 #
straight-curve $-1 18.16603733737584 21.070272635963931 40.517500043387052 0 0 -1 I I #
point $-1 18.16603733737584 21.070272635963931 5.5306652398651748 #
straight-curve $-1 5.7855680528971369 21.070272635963931 1.8000492796270251 -1 0 0 I I #
point $-1 18.16603733737584 21.070272635963931 1.8000492796270251 #
point $-1 8.7447498636878933 16.373762017961553 1.4020643991384194 #
point $-1 14.397522347900654 16.373762017961553 1.4020643991384194 #
straight-curve $-1 36.949233211438525 21.070272635963931 40.517500043387052 0 0 -1 I I #
point $-1 36.949233211438525 21.070272635963931 5.5306652398651748 #
straight-curve $-1 15.177165989928479 21.070272635963931 1.8000492796270251 -1 0 0 I I #
point $-1 36.949233211438525 21.070272635963931 1.8000492796270251 #
point $-1 27.527945737750578 16.373762017961553 1.4020643991384194 #
point $-1 33.180718221963339 16.373762017961553 1.4020643991384194 #
straight-curve $-1 -40.295419171727652 0 -5.5306652398651748 0 1 0 I I #
point $-1 -40.295419171727652 -21.070272635963931 -5.5306652398651748 #
point $-1 -40.295419171727652 21.070272635963931 -5.5306652398651748 #
End-of-ACIS-data 