500 0 9 0           
7 Unknown 11 ACIS 5.0 NT 24 Thu Mar 25 16:47:48 1999 
-1 9.9999999999999995e-007 1e-010 
body $-1 $9 $-1 $10 #
body $-1 $11 $-1 $12 #
body $-1 $13 $-1 $14 #
body $-1 $15 $-1 $16 #
body $-1 $17 $-1 $18 #
body $-1 $19 $-1 $20 #
body $-1 $21 $-1 $22 #
body $-1 $23 $-1 $24 #
body $-1 $25 $-1 $26 #
lump $-1 $-1 $27 $0 #
transform $-1 1 0 0 0 1 0 0 0 1 54.967497787408064 34.283097690723054 14.302183919885156 1 rotate no_reflect no_shear #
lump $-1 $-1 $28 $1 #
transform $-1 1 0 0 0 1 0 0 0 1 54.967497787408064 34.283097690723054 14.302183919885156 1 rotate no_reflect no_shear #
lump $-1 $-1 $29 $2 #
transform $-1 1 0 0 0 1 0 0 0 1 54.967497787408064 34.283097690723054 14.302183919885156 1 rotate no_reflect no_shear #
lump $-1 $-1 $30 $3 #
transform $-1 1 0 0 0 1 0 0 0 1 54.967497787408064 34.283097690723054 14.302183919885156 1 rotate no_reflect no_shear #
lump $-1 $-1 $31 $4 #
transform $-1 1 0 0 0 1 0 0 0 1 54.967497787408064 34.283097690723054 14.302183919885156 1 rotate no_reflect no_shear #
lump $-1 $-1 $32 $5 #
transform $-1 1 0 0 0 1 0 0 0 1 54.967497787408064 34.283097690723054 14.302183919885156 1 rotate no_reflect no_shear #
lump $-1 $-1 $33 $6 #
transform $-1 1 0 0 0 1 0 0 0 1 54.967497787408064 34.283097690723054 14.302183919885156 1 rotate no_reflect no_shear #
lump $-1 $-1 $34 $7 #
transform $-1 1 0 0 0 1 0 0 0 1 54.967497787408064 34.283097690723054 14.302183919885156 1 rotate no_reflect no_shear #
lump $-1 $-1 $35 $8 #
transform $-1 1 0 0 0 1 0 0 0 1 54.967497787408064 34.283097690723054 14.302183919885156 1 rotate no_reflect no_shear #
shell $-1 $-1 $-1 $36 $-1 $9 #
shell $-1 $-1 $-1 $37 $-1 $11 #
shell $-1 $-1 $-1 $38 $-1 $13 #
shell $-1 $-1 $-1 $39 $-1 $15 #
shell $-1 $-1 $-1 $40 $-1 $17 #
shell $-1 $-1 $-1 $41 $-1 $19 #
shell $-1 $-1 $-1 $42 $-1 $21 #
shell $-1 $-1 $-1 $43 $-1 $23 #
shell $-1 $-1 $-1 $44 $-1 $25 #
face $-1 $45 $46 $27 $-1 $47 forward single #
face $-1 $48 $49 $28 $-1 $50 forward single #
face $-1 $51 $52 $29 $-1 $53 reversed single #
face $-1 $54 $55 $30 $-1 $56 forward single #
face $-1 $57 $58 $31 $-1 $59 forward single #
face $-1 $60 $61 $32 $-1 $62 reversed single #
face $-1 $63 $64 $33 $-1 $65 forward single #
face $-1 $66 $67 $34 $-1 $68 forward single #
face $-1 $69 $70 $35 $-1 $71 forward single #
face $-1 $72 $73 $27 $-1 $74 reversed single #
loop $-1 $-1 $75 $36 #
plane-surface $-1 0 0 14.302183919885156 0 0 1 1 0 0 forward_v I I I I #
face $-1 $76 $77 $28 $-1 $78 reversed single #
loop $-1 $-1 $79 $37 #
plane-surface $-1 0 -26.059632196877189 -6.3303761048273692 0 0 1 1 0 0 forward_v I I I I #
face $-1 $80 $81 $29 $-1 $82 reversed single #
loop $-1 $-1 $83 $38 #
plane-surface $-1 79.288610512243594 12.41743277163382 159.66332510420094 0 -1 0 -0.80901700255871778 0 -0.5877852410284794 forward_v I I I I #
face $-1 $84 $85 $30 $-1 $86 forward single #
loop $-1 $87 $88 $39 #
cone-surface $-1 50.864398184062267 6.8060946379563134 9.3862218386746825 -0.80901700255871778 0 -0.5877852410284794 0.5877852410284794 0 -0.80901700255871778 1 I I 0 1 1 forward I I I I #
face $-1 $89 $90 $31 $-1 $91 forward single #
loop $-1 $92 $93 $40 #
cone-surface $-1 50.864398184062267 10.17289751816282 9.3862218386746825 -0.80901700255871778 0 -0.5877852410284794 0.5877852410284794 0 -0.80901700255871778 1 I I 0 1 1 forward I I I I #
face $-1 $94 $95 $32 $-1 $96 reversed single #
loop $-1 $-1 $97 $41 #
plane-surface $-1 -109.93499631124169 -10.520545554941208 102.22573868118516 0 1 0 -0.50000000669873634 0 0.8660253999169214 forward_v I I I I #
face $-1 $98 $99 $33 $-1 $100 forward single #
loop $-1 $101 $102 $42 #
cone-surface $-1 -47.355159526268039 -7.4287368599318953 8.4001708786698721 0.50000000669873634 0 -0.8660253999169214 1.2990380998753821 0 0.75000001004810457 1 I I 0 1 1.5 forward I I I I #
face $-1 $103 $104 $34 $-1 $105 forward single #
loop $-1 $106 $107 $43 #
cone-surface $-1 -47.355159526268039 -2.7910238174179227 8.4001708786698721 0.50000000669873634 0 -0.8660253999169214 1.2990380998753821 0 0.75000001004810457 1 I I 0 1 1.5 forward I I I I #
face $-1 $108 $109 $35 $-1 $110 forward single #
loop $-1 $111 $112 $44 #
cone-surface $-1 -47.355159526268039 1.8466892250960498 8.4001708786698721 0.50000000669873634 0 -0.8660253999169214 1.2990380998753821 0 0.75000001004810457 1 I I 0 1 1.5 forward I I I I #
face $-1 $113 $114 $27 $-1 $115 reversed single #
loop $-1 $-1 $116 $45 #
plane-surface $-1 0 0 -14.302183919885156 0 0 1 1 0 0 forward_v I I I I #
coedge $-1 $117 $118 $119 $120 forward $46 $-1 #
face $-1 $121 $122 $28 $-1 $123 reversed single #
loop $-1 $-1 $124 $48 #
plane-surface $-1 0 -17.836166703031324 -10.316280012356263 0 -1 0 0 0 -1 forward_v I I I I #
coedge $-1 $125 $126 $127 $128 reversed $49 $-1 #
face $-1 $129 $130 $29 $-1 $131 reversed single #
loop $-1 $-1 $132 $51 #
plane-surface $-1 -9.6506700840000548 8.4894960780595667 95.045157232792818 0.80901700255871778 0 0.5877852410284794 0.5877852410284794 0 -0.80901700255871778 forward_v I I I I #
coedge $-1 $133 $134 $135 $136 reversed $52 $-1 #
face $-1 $-1 $137 $30 $-1 $138 forward single #
loop $-1 $139 $140 $54 #
cone-surface $-1 49.334272899230797 6.8060946379563134 8.2745207786179655 -0.80901700255871778 0 -0.5877852410284794 0.2938926205142397 0 -0.40450850127935889 1 I I -0.70710678118654746 0.70710678118654746 0.5 forward I I I I #
loop $-1 $-1 $141 $39 #
coedge $-1 $88 $88 $142 $143 reversed $55 $-1 #
face $-1 $-1 $144 $31 $-1 $145 forward single #
loop $-1 $146 $147 $57 #
cone-surface $-1 49.334272899230797 10.17289751816282 8.2745207786179655 -0.80901700255871778 0 -0.5877852410284794 0.2938926205142397 0 -0.40450850127935889 1 I I -0.70710678118654746 0.70710678118654746 0.5 forward I I I I #
loop $-1 $-1 $148 $40 #
coedge $-1 $93 $93 $149 $150 reversed $58 $-1 #
face $-1 $151 $152 $32 $-1 $153 reversed single #
loop $-1 $-1 $154 $60 #
plane-surface $-1 -54.967497787408078 -2.7910238174179227 7.0192401736400427 -0.50000000669873634 0 0.8660253999169214 0.8660253999169214 0 0.50000000669873634 forward_v I I I I #
coedge $-1 $155 $156 $157 $158 reversed $61 $-1 #
face $-1 $-1 $159 $33 $-1 $160 forward single #
loop $-1 $161 $162 $63 #
cone-surface $-1 -45.675035446017603 -7.4287368599318953 5.4901106606394556 0.50000000669873634 0 -0.8660253999169214 0.64951904993769105 0 0.37500000502405229 1 I I -0.70710678118654757 0.70710678118654757 0.75 forward I I I I #
loop $-1 $-1 $163 $42 #
coedge $-1 $102 $102 $164 $165 reversed $64 $-1 #
face $-1 $-1 $166 $34 $-1 $167 forward single #
loop $-1 $168 $169 $66 #
cone-surface $-1 -45.675035446017603 -2.7910238174179227 5.4901106606394556 0.50000000669873634 0 -0.8660253999169214 0.64951904993769105 0 0.37500000502405229 1 I I -0.70710678118654757 0.70710678118654757 0.75 forward I I I I #
loop $-1 $-1 $170 $43 #
coedge $-1 $107 $107 $171 $172 reversed $67 $-1 #
face $-1 $-1 $173 $35 $-1 $174 forward single #
loop $-1 $175 $176 $69 #
cone-surface $-1 -45.675035446017603 1.8466892250960498 5.4901106606394556 0.50000000669873634 0 -0.8660253999169214 0.64951904993769105 0 0.37500000502405229 1 I I -0.70710678118654757 0.70710678118654757 0.75 forward I I I I #
loop $-1 $-1 $177 $44 #
coedge $-1 $112 $112 $178 $179 reversed $70 $-1 #
face $-1 $180 $181 $27 $-1 $182 reversed single #
loop $-1 $-1 $183 $72 #
plane-surface $-1 0 -34.283097690723054 0 0 1 0 0 0 1 forward_v I I I I #
coedge $-1 $184 $185 $186 $187 forward $73 $-1 #
coedge $-1 $188 $75 $189 $190 forward $46 $-1 #
coedge $-1 $75 $188 $191 $192 forward $46 $-1 #
coedge $-1 $193 $194 $75 $120 reversed $195 $-1 #
edge $-1 $196 -34.283097690723054 $197 34.283097690723054 $119 $198 forward 7 unknown #
face $-1 $199 $200 $28 $-1 $201 reversed single #
loop $-1 $-1 $202 $76 #
plane-surface $-1 0 0 -14.302183919885156 0 0 1 1 0 0 forward_v I I I I #
coedge $-1 $203 $204 $205 $206 reversed $77 $-1 #
coedge $-1 $207 $79 $204 $208 forward $49 $-1 #
coedge $-1 $79 $207 $209 $210 reversed $49 $-1 #
coedge $-1 $211 $205 $79 $128 forward $200 $-1 #
edge $-1 $212 4.8063506045927298 $213 21.253281592284459 $127 $214 forward 7 unknown #
face $-1 $215 $216 $29 $-1 $217 reversed single #
loop $-1 $-1 $218 $80 #
plane-surface $-1 79.288610512243594 4.5615593844853137 159.66332510420094 0 1 0 0.80901700255871778 0 0.5877852410284794 forward_v I I I I #
coedge $-1 $219 $220 $221 $222 reversed $81 $-1 #
coedge $-1 $134 $83 $223 $224 reversed $52 $-1 #
coedge $-1 $83 $133 $219 $225 reversed $52 $-1 #
coedge $-1 $221 $226 $83 $136 forward $227 $-1 #
edge $-1 $228 -15.323192531286267 $229 -9.3682268916989102 $135 $230 forward 7 unknown #
loop $-1 $-1 $142 $84 #
plane-surface $-1 -9.6506700840000548 8.4894960780595667 95.045157232792818 0.80901700255871778 0 0.5877852410284794 0.5877852410284794 0 -0.80901700255871778 forward_v I I I I #
loop $-1 $-1 $231 $54 #
coedge $-1 $140 $140 $141 $232 reversed $85 $-1 #
coedge $-1 $141 $141 $140 $232 forward $87 $-1 #
coedge $-1 $142 $142 $88 $143 forward $137 $-1 #
edge $-1 $233 0 $233 6.2831853071796004 $142 $234 forward 7 unknown #
loop $-1 $-1 $149 $89 #
plane-surface $-1 -9.6506700840000548 8.4894960780595667 95.045157232792818 0.80901700255871778 0 0.5877852410284794 0.5877852410284794 0 -0.80901700255871778 forward_v I I I I #
loop $-1 $-1 $235 $57 #
coedge $-1 $147 $147 $148 $236 reversed $90 $-1 #
coedge $-1 $148 $148 $147 $236 forward $92 $-1 #
coedge $-1 $149 $149 $93 $150 forward $144 $-1 #
edge $-1 $237 0 $237 6.2831853071796004 $149 $238 forward 7 unknown #
face $-1 $239 $240 $32 $-1 $241 forward single #
loop $-1 $-1 $242 $94 #
plane-surface $-1 -109.93499631124169 4.9384979201053625 102.22573868118516 0 -1 0 0.50000000669873634 0 -0.8660253999169214 forward_v I I I I #
coedge $-1 $243 $244 $245 $246 reversed $95 $-1 #
coedge $-1 $156 $97 $247 $248 reversed $61 $-1 #
coedge $-1 $97 $155 $243 $249 reversed $61 $-1 #
coedge $-1 $245 $250 $97 $158 forward $240 $-1 #
edge $-1 $251 3.6821278115439782e-007 $252 12.61442874004004 $157 $253 forward 7 unknown #
loop $-1 $-1 $164 $98 #
plane-surface $-1 -54.967497787408078 -2.7910238174179227 7.0192401736400427 -0.50000000669873634 0 0.8660253999169214 0.8660253999169214 0 0.50000000669873634 forward_v I I I I #
loop $-1 $-1 $254 $63 #
coedge $-1 $162 $162 $163 $255 reversed $99 $-1 #
coedge $-1 $163 $163 $162 $255 forward $101 $-1 #
coedge $-1 $164 $164 $102 $165 forward $159 $-1 #
edge $-1 $256 0 $256 6.2831853071796004 $164 $257 forward 7 unknown #
loop $-1 $-1 $171 $103 #
plane-surface $-1 -54.967497787408078 -2.7910238174179227 7.0192401736400427 -0.50000000669873634 0 0.8660253999169214 0.8660253999169214 0 0.50000000669873634 forward_v I I I I #
loop $-1 $-1 $258 $66 #
coedge $-1 $169 $169 $170 $259 reversed $104 $-1 #
coedge $-1 $170 $170 $169 $259 forward $106 $-1 #
coedge $-1 $171 $171 $107 $172 forward $166 $-1 #
edge $-1 $260 0 $260 6.2831853071796004 $171 $261 forward 7 unknown #
loop $-1 $-1 $178 $108 #
plane-surface $-1 -54.967497787408078 -2.7910238174179227 7.0192401736400427 -0.50000000669873634 0 0.8660253999169214 0.8660253999169214 0 0.50000000669873634 forward_v I I I I #
loop $-1 $-1 $262 $69 #
coedge $-1 $176 $176 $177 $263 reversed $109 $-1 #
coedge $-1 $177 $177 $176 $263 forward $111 $-1 #
coedge $-1 $178 $178 $112 $179 forward $173 $-1 #
edge $-1 $264 0 $264 6.2831853071796004 $178 $265 forward 7 unknown #
face $-1 $266 $267 $27 $-1 $268 reversed single #
loop $-1 $-1 $269 $113 #
plane-surface $-1 -54.967497787408064 0 0 1 0 0 0 0 -1 forward_v I I I I #
coedge $-1 $270 $191 $271 $272 forward $114 $-1 #
coedge $-1 $273 $116 $270 $274 forward $73 $-1 #
coedge $-1 $116 $273 $275 $276 forward $73 $-1 #
coedge $-1 $194 $193 $116 $187 reversed $195 $-1 #
edge $-1 $277 -34.283097690723054 $278 34.283097690723054 $186 $279 forward 7 unknown #
coedge $-1 $118 $117 $280 $281 forward $46 $-1 #
coedge $-1 $282 $283 $117 $190 reversed $267 $-1 #
edge $-1 $197 -54.967497787408064 $284 54.967497787408064 $189 $285 forward 7 unknown #
coedge $-1 $183 $286 $118 $192 reversed $114 $-1 #
edge $-1 $287 -54.967497787408064 $196 54.967497787408064 $191 $288 forward 7 unknown #
coedge $-1 $186 $119 $286 $289 forward $195 $-1 #
coedge $-1 $119 $186 $282 $290 reversed $195 $-1 #
loop $-1 $-1 $193 $266 #
vertex $-1 $120 $291 #
vertex $-1 $120 $292 #
straight-curve $-1 54.967497787408064 0 14.302183919885156 0 1 0 I I #
face $-1 $293 $294 $28 $-1 $295 reversed single #
loop $-1 $-1 $205 $121 #
plane-surface $-1 54.967497787408064 0 0 -1 0 0 0 0 1 forward_v I I I I #
coedge $-1 $296 $297 $203 $298 forward $122 $-1 #
coedge $-1 $299 $124 $202 $298 reversed $77 $-1 #
coedge $-1 $124 $299 $125 $208 reversed $77 $-1 #
coedge $-1 $127 $300 $124 $206 forward $200 $-1 #
edge $-1 $301 -9.1440439137070246 $212 -1.1722360986492379 $205 $302 forward 7 unknown #
coedge $-1 $126 $125 $303 $304 reversed $49 $-1 #
edge $-1 $212 -54.967497787408064 $305 54.967497787408064 $204 $306 forward 7 unknown #
coedge $-1 $307 $308 $126 $210 forward $294 $-1 #
edge $-1 $213 -54.967497787408064 $309 54.967497787408064 $209 $310 forward 7 unknown #
coedge $-1 $300 $127 $308 $311 forward $200 $-1 #
vertex $-1 $128 $312 #
vertex $-1 $311 $313 #
straight-curve $-1 54.967497787408064 -13.029816098438594 -6.3303761048273692 0 -1 0 I I #
face $-1 $-1 $227 $29 $-1 $314 forward single #
loop $-1 $-1 $315 $129 #
plane-surface $-1 54.967497787408064 0 0 -1 0 0 0 0 1 forward_v I I I I #
coedge $-1 $316 $317 $318 $319 reversed $130 $-1 #
coedge $-1 $320 $132 $134 $225 forward $81 $-1 #
coedge $-1 $132 $320 $316 $321 forward $81 $-1 #
coedge $-1 $318 $135 $132 $222 forward $227 $-1 #
edge $-1 $229 -8.1726847326040364 $322 -0.31681134545553036 $221 $323 forward 7 unknown #
coedge $-1 $324 $325 $133 $224 forward $216 $-1 #
edge $-1 $326 -73.725785915551313 $228 -65.529478632215316 $223 $327 forward 7 unknown #
edge $-1 $229 99.803802710620289 $326 109.93499557481614 $134 $328 forward 7 unknown #
coedge $-1 $135 $318 $324 $329 forward $227 $-1 #
loop $-1 $-1 $318 $215 #
vertex $-1 $224 $330 #
vertex $-1 $136 $331 #
straight-curve $-1 39.644305256121797 12.41743277163382 14.302183919885152 -1 0 0 I I #
coedge $-1 $231 $231 $-1 $332 reversed $139 $-1 #
edge $-1 $333 0 $333 6.2831853071796004 $140 $334 forward 7 unknown #
vertex $-1 $143 $335 #
ellipse-curve $-1 51.990014967614378 6.8060946379563134 10.204030278217163 0.80901700255871778 0 0.5877852410284794 0.5877852410284794 0 -0.80901700255871778 1 I I #
coedge $-1 $235 $235 $-1 $336 reversed $146 $-1 #
edge $-1 $337 0 $337 6.2831853071796004 $147 $338 forward 7 unknown #
vertex $-1 $150 $339 #
ellipse-curve $-1 51.990014967614378 10.17289751816282 10.204030278217163 0.80901700255871778 0 0.5877852410284794 0.5877852410284794 0 -0.80901700255871778 1 I I #
face $-1 $-1 $340 $32 $-1 $341 reversed single #
loop $-1 $-1 $157 $151 #
plane-surface $-1 0 0 14.302183919885156 0 0 1 1 0 0 forward_v I I I I #
coedge $-1 $342 $343 $344 $345 reversed $152 $-1 #
coedge $-1 $346 $154 $156 $249 forward $95 $-1 #
coedge $-1 $154 $346 $342 $347 forward $95 $-1 #
coedge $-1 $344 $157 $154 $246 forward $240 $-1 #
edge $-1 $252 -9.1250336462322466 $348 6.3340098288143238 $245 $349 forward 7 unknown #
coedge $-1 $350 $351 $155 $248 forward $340 $-1 #
edge $-1 $352 -44.093629166952532 $251 -36.810685420707429 $247 $353 forward 7 unknown #
edge $-1 $252 -14.565887297344151 $352 -1.6303764080091705e-014 $156 $354 forward 7 unknown #
coedge $-1 $157 $344 $350 $355 forward $240 $-1 #
vertex $-1 $248 $356 #
vertex $-1 $158 $357 #
straight-curve $-1 -54.967498155620845 -10.520545554941208 14.302183919885152 1 0 0 I I #
coedge $-1 $254 $254 $-1 $358 reversed $161 $-1 #
edge $-1 $359 0 $359 6.2831853071796004 $162 $360 forward 7 unknown #
vertex $-1 $165 $361 #
ellipse-curve $-1 -48.660283601494427 -7.4287368599318953 10.660712046762606 -0.50000000669873634 0 0.8660253999169214 1.2990380998753821 0 0.75000001004810457 1 I I #
coedge $-1 $258 $258 $-1 $362 reversed $168 $-1 #
edge $-1 $363 0 $363 6.2831853071796004 $169 $364 forward 7 unknown #
vertex $-1 $172 $365 #
ellipse-curve $-1 -48.660283601494427 -2.7910238174179227 10.660712046762606 -0.50000000669873634 0 0.8660253999169214 1.2990380998753821 0 0.75000001004810457 1 I I #
coedge $-1 $262 $262 $-1 $366 reversed $175 $-1 #
edge $-1 $367 0 $367 6.2831853071796004 $176 $368 forward 7 unknown #
vertex $-1 $179 $369 #
ellipse-curve $-1 -48.660283601494427 1.8466892250960498 10.660712046762606 -0.50000000669873634 0 0.8660253999169214 1.2990380998753821 0 0.75000001004810457 1 I I #
face $-1 $-1 $195 $27 $-1 $370 reversed single #
loop $-1 $-1 $282 $180 #
plane-surface $-1 0 34.283097690723054 0 0 -1 0 0 0 -1 forward_v I I I I #
coedge $-1 $371 $280 $283 $372 forward $181 $-1 #
coedge $-1 $286 $183 $184 $274 reversed $114 $-1 #
coedge $-1 $280 $371 $183 $272 reversed $181 $-1 #
edge $-1 $287 -14.302183919885156 $373 14.302183919885156 $271 $374 forward 7 unknown #
coedge $-1 $185 $184 $371 $375 forward $73 $-1 #
edge $-1 $278 -54.967497787408064 $373 54.967497787408064 $270 $376 forward 7 unknown #
coedge $-1 $283 $282 $185 $276 reversed $267 $-1 #
edge $-1 $377 -54.967497787408064 $277 54.967497787408064 $275 $378 forward 7 unknown #
vertex $-1 $187 $379 #
vertex $-1 $289 $380 #
straight-curve $-1 54.967497787408064 0 -14.302183919885156 0 -1 0 I I #
coedge $-1 $269 $271 $188 $281 reversed $181 $-1 #
edge $-1 $284 -34.283097690723054 $287 34.283097690723054 $280 $381 forward 7 unknown #
coedge $-1 $275 $189 $194 $290 forward $267 $-1 #
coedge $-1 $189 $275 $269 $372 reversed $267 $-1 #
vertex $-1 $190 $382 #
straight-curve $-1 0 34.283097690723054 14.302183919885156 -1 0 0 I I #
coedge $-1 $191 $270 $193 $289 reversed $114 $-1 #
vertex $-1 $281 $383 #
straight-curve $-1 0 -34.283097690723054 14.302183919885156 1 0 0 I I #
edge $-1 $196 -14.302183919885156 $278 14.302183919885156 $193 $384 forward 7 unknown #
edge $-1 $197 -14.302183919885156 $277 14.302183919885156 $194 $385 forward 7 unknown #
point $-1 54.967497787408064 -34.283097690723054 14.302183919885156 #
point $-1 54.967497787408064 34.283097690723054 14.302183919885156 #
face $-1 $-1 $386 $28 $-1 $387 reversed single #
loop $-1 $-1 $209 $199 #
plane-surface $-1 0 -34.283097690723054 0 0 1 0 0 0 1 forward_v I I I I #
coedge $-1 $388 $202 $300 $389 forward $122 $-1 #
coedge $-1 $202 $388 $390 $391 forward $122 $-1 #
edge $-1 $392 -54.967497787408064 $301 54.967497787408064 $202 $393 forward 7 unknown #
coedge $-1 $204 $203 $394 $395 reversed $77 $-1 #
coedge $-1 $205 $211 $296 $389 reversed $200 $-1 #
vertex $-1 $389 $396 #
straight-curve $-1 54.967497787408064 -17.836166703031324 -5.1581400061781313 0 0 1 I I #
coedge $-1 $394 $397 $207 $304 forward $386 $-1 #
edge $-1 $309 -21.253281592284459 $305 -4.8063506045927298 $303 $398 forward 7 unknown #
vertex $-1 $304 $399 #
straight-curve $-1 0 -17.836166703031324 -6.3303761048273692 -1 0 0 I I #
coedge $-1 $400 $209 $397 $401 forward $294 $-1 #
coedge $-1 $209 $400 $211 $311 reversed $294 $-1 #
vertex $-1 $401 $402 #
straight-curve $-1 0 -34.283097690723054 -6.3303761048273692 -1 0 0 I I #
edge $-1 $213 6.3303761048273692 $403 14.302183919885156 $211 $404 forward 7 unknown #
point $-1 54.967497787408064 -17.836166703031324 -6.3303761048273692 #
point $-1 54.967497787408064 -34.283097690723054 -6.3303761048273692 #
plane-surface $-1 0 0 14.302183919885156 0 0 1 1 0 0 forward_v I I I I #
coedge $-1 $325 $324 $317 $405 forward $216 $-1 #
coedge $-1 $317 $218 $220 $321 reversed $130 $-1 #
coedge $-1 $218 $316 $315 $405 reversed $130 $-1 #
coedge $-1 $226 $221 $218 $319 forward $227 $-1 #
edge $-1 $322 9.3682268916989102 $406 15.323192531286267 $318 $407 forward 7 unknown #
coedge $-1 $220 $219 $325 $408 reversed $81 $-1 #
edge $-1 $409 -109.93499557481614 $322 -99.803802710620289 $316 $410 forward 7 unknown #
vertex $-1 $222 $411 #
straight-curve $-1 49.012532147820707 4.2447480390297834 14.302183919885152 0 -1 0 I I #
coedge $-1 $315 $223 $226 $329 reversed $216 $-1 #
coedge $-1 $223 $315 $320 $408 forward $216 $-1 #
vertex $-1 $224 $412 #
straight-curve $-1 54.967497787408064 12.41743277163382 79.831662552100468 0 0 1 I I #
straight-curve $-1 -9.6506700840000548 12.41743277163382 95.045157232792818 0.5877852410284794 0 -0.80901700255871778 I I #
edge $-1 $406 4.5615593844853137 $228 12.41743277163382 $324 $413 forward 7 unknown #
point $-1 54.967497787408064 12.41743277163382 14.302183919885156 #
point $-1 49.012532147820707 12.41743277163382 14.302183919885152 #
edge $-1 $414 1 $414 0 $231 $-1 forward 7 unknown #
vertex $-1 $232 $415 #
ellipse-curve $-1 49.738781400510156 6.8060946379563134 8.568413399132206 0.80901700255871778 0 0.5877852410284794 0.5877852410284794 0 -0.80901700255871778 1 I I #
point $-1 52.577800208642849 6.8060946379563134 9.3950132756584424 #
edge $-1 $416 1 $416 0 $235 $-1 forward 7 unknown #
vertex $-1 $236 $417 #
ellipse-curve $-1 49.738781400510156 10.17289751816282 8.568413399132206 0.80901700255871778 0 0.5877852410284794 0.5877852410284794 0 -0.80901700255871778 1 I I #
point $-1 52.577800208642849 10.17289751816282 9.3950132756584424 #
loop $-1 $-1 $247 $239 #
plane-surface $-1 -54.967497787408064 0 0 1 0 0 0 0 -1 forward_v I I I I #
coedge $-1 $343 $242 $244 $347 reversed $152 $-1 #
coedge $-1 $242 $342 $418 $419 reversed $152 $-1 #
coedge $-1 $250 $245 $242 $345 forward $240 $-1 #
edge $-1 $348 -12.61442874004004 $420 -3.6821278115439782e-007 $344 $421 forward 7 unknown #
coedge $-1 $244 $243 $351 $422 reversed $95 $-1 #
edge $-1 $423 1.6303764080091705e-014 $348 14.565887297344151 $342 $424 forward 7 unknown #
vertex $-1 $246 $425 #
straight-curve $-1 -42.353069415580805 -1.3955119087089614 14.302183919885156 0 1 0 I I #
coedge $-1 $418 $247 $250 $355 reversed $340 $-1 #
coedge $-1 $247 $418 $346 $422 forward $340 $-1 #
vertex $-1 $248 $426 #
straight-curve $-1 -54.967497787408064 -10.520545554941208 51.112869340592582 0 0 1 I I #
straight-curve $-1 -54.967497787408078 -10.520545554941208 7.0192401736400427 -0.8660253999169214 0 -0.50000000669873634 I I #
edge $-1 $420 -4.9384979201053625 $251 10.520545554941208 $350 $427 forward 7 unknown #
point $-1 -54.967497787408064 -10.520545554941208 14.302183919885156 #
point $-1 -42.353069415580805 -10.520545554941208 14.302183919885156 #
edge $-1 $428 1 $428 0 $254 $-1 forward 7 unknown #
vertex $-1 $255 $429 #
ellipse-curve $-1 -46.050035451041651 -7.4287368599318953 6.1396297105771467 -0.50000000669873634 0 0.8660253999169214 1.2990380998753821 0 0.75000001004810457 1 I I #
point $-1 -47.361245501619038 -7.4287368599318953 11.4107120568107 #
edge $-1 $430 1 $430 0 $258 $-1 forward 7 unknown #
vertex $-1 $259 $431 #
ellipse-curve $-1 -46.050035451041651 -2.7910238174179227 6.1396297105771467 -0.50000000669873634 0 0.8660253999169214 1.2990380998753821 0 0.75000001004810457 1 I I #
point $-1 -47.361245501619038 -2.7910238174179227 11.4107120568107 #
edge $-1 $432 1 $432 0 $262 $-1 forward 7 unknown #
vertex $-1 $263 $433 #
ellipse-curve $-1 -46.050035451041651 1.8466892250960498 6.1396297105771467 -0.50000000669873634 0 0.8660253999169214 1.2990380998753821 0 0.75000001004810457 1 I I #
point $-1 -47.361245501619038 1.8466892250960498 11.4107120568107 #
plane-surface $-1 54.967497787408064 0 0 -1 0 0 0 0 1 forward_v I I I I #
coedge $-1 $271 $269 $273 $375 reversed $181 $-1 #
edge $-1 $284 -14.302183919885156 $377 14.302183919885156 $283 $434 forward 7 unknown #
vertex $-1 $375 $435 #
straight-curve $-1 -54.967497787408064 -34.283097690723054 0 0 0 -1 I I #
edge $-1 $373 -34.283097690723054 $377 34.283097690723054 $371 $436 forward 7 unknown #
straight-curve $-1 0 -34.283097690723054 -14.302183919885156 -1 0 0 I I #
vertex $-1 $276 $437 #
straight-curve $-1 0 34.283097690723054 -14.302183919885156 1 0 0 I I #
point $-1 54.967497787408064 34.283097690723054 -14.302183919885156 #
point $-1 54.967497787408064 -34.283097690723054 -14.302183919885156 #
straight-curve $-1 -54.967497787408064 0 14.302183919885156 0 -1 0 I I #
point $-1 -54.967497787408064 34.283097690723054 14.302183919885156 #
point $-1 -54.967497787408064 -34.283097690723054 14.302183919885156 #
straight-curve $-1 54.967497787408064 -34.283097690723054 0 0 0 -1 I I #
straight-curve $-1 54.967497787408064 34.283097690723054 0 0 0 -1 I I #
loop $-1 $-1 $394 $293 #
plane-surface $-1 -54.967497787408064 0 0 1 0 0 0 0 -1 forward_v I I I I #
coedge $-1 $297 $296 $400 $438 forward $122 $-1 #
edge $-1 $301 17.836166703031324 $403 34.283097690723054 $300 $439 forward 7 unknown #
coedge $-1 $397 $394 $297 $391 reversed $386 $-1 #
edge $-1 $440 -34.283097690723054 $392 -17.836166703031324 $390 $441 forward 7 unknown #
vertex $-1 $395 $442 #
straight-curve $-1 0 -17.836166703031324 -14.302183919885156 1 0 0 I I #
coedge $-1 $390 $303 $299 $395 forward $386 $-1 #
edge $-1 $305 1.1722360986492379 $392 9.1440439137070246 $394 $443 forward 7 unknown #
point $-1 54.967497787408064 -17.836166703031324 -14.302183919885156 #
coedge $-1 $303 $390 $307 $401 reversed $386 $-1 #
straight-curve $-1 -54.967497787408064 -13.029816098438594 -6.3303761048273692 0 1 0 I I #
point $-1 -54.967497787408064 -17.836166703031324 -6.3303761048273692 #
coedge $-1 $308 $307 $388 $438 reversed $294 $-1 #
edge $-1 $309 6.3303761048273692 $440 14.302183919885156 $397 $444 forward 7 unknown #
point $-1 -54.967497787408064 -34.283097690723054 -6.3303761048273692 #
vertex $-1 $311 $445 #
straight-curve $-1 54.967497787408064 -34.283097690723054 0 0 0 -1 I I #
edge $-1 $406 65.529478632215316 $409 73.725785915551313 $315 $446 forward 7 unknown #
vertex $-1 $329 $447 #
straight-curve $-1 39.644305256121797 4.5615593844853137 14.302183919885152 1 0 0 I I #
edge $-1 $409 0.31681134545553036 $326 8.1726847326040364 $325 $448 forward 7 unknown #
vertex $-1 $408 $449 #
straight-curve $-1 -9.6506700840000548 4.5615593844853137 95.045157232792818 -0.5877852410284794 0 0.80901700255871778 I I #
point $-1 49.012532147820707 4.5615593844853137 14.302183919885152 #
point $-1 54.967497787408064 12.41743277163382 6.105876636549155 #
straight-curve $-1 54.967497787408064 0 14.302183919885156 0 1 0 I I #
vertex $-1 $332 $450 #
point $-1 50.326566641538633 6.8060946379563134 7.7593963965734876 #
vertex $-1 $336 $451 #
point $-1 50.326566641538633 10.17289751816282 7.7593963965734876 #
coedge $-1 $351 $350 $343 $419 forward $340 $-1 #
edge $-1 $420 36.810685420707429 $423 44.093629166952532 $418 $452 forward 7 unknown #
vertex $-1 $355 $453 #
straight-curve $-1 -54.967498155620845 4.9384979201053625 14.302183919885152 -1 0 0 I I #
edge $-1 $423 -6.3340098288143238 $352 9.1250336462322466 $351 $454 forward 7 unknown #
vertex $-1 $422 $455 #
straight-curve $-1 -54.967497787408078 4.9384979201053625 7.0192401736400427 0.8660253999169214 0 0.50000000669873634 I I #
point $-1 -42.353069415580805 4.9384979201053625 14.302183919885156 #
point $-1 -54.967497787408064 -10.520545554941208 7.0192401736400507 #
straight-curve $-1 -54.967497787408064 0 14.302183919885156 0 -1 0 I I #
vertex $-1 $358 $456 #
point $-1 -44.750997351166276 -7.4287368599318953 6.8896297206252513 #
vertex $-1 $362 $457 #
point $-1 -44.750997351166276 -2.7910238174179227 6.8896297206252513 #
vertex $-1 $366 $458 #
point $-1 -44.750997351166276 1.8466892250960498 6.8896297206252513 #
straight-curve $-1 -54.967497787408064 34.283097690723054 0 0 0 -1 I I #
point $-1 -54.967497787408064 -34.283097690723054 -14.302183919885156 #
straight-curve $-1 -54.967497787408064 0 -14.302183919885156 0 1 0 I I #
point $-1 -54.967497787408064 34.283097690723054 -14.302183919885156 #
edge $-1 $403 -54.967497787408064 $440 54.967497787408064 $400 $459 forward 7 unknown #
straight-curve $-1 54.967497787408064 0 -14.302183919885156 0 -1 0 I I #
vertex $-1 $391 $460 #
straight-curve $-1 -54.967497787408064 0 -14.302183919885156 0 1 0 I I #
point $-1 -54.967497787408064 -17.836166703031324 -14.302183919885156 #
straight-curve $-1 -54.967497787408064 -17.836166703031324 -5.1581400061781313 0 0 -1 I I #
straight-curve $-1 -54.967497787408064 -34.283097690723054 0 0 0 -1 I I #
point $-1 54.967497787408064 -34.283097690723054 -14.302183919885156 #
straight-curve $-1 54.967497787408064 4.5615593844853137 79.831662552100468 0 0 -1 I I #
point $-1 54.967497787408064 4.5615593844853137 14.302183919885156 #
straight-curve $-1 54.967497787408064 4.2447480390297834 6.105876636549155 0 1 0 I I #
point $-1 54.967497787408064 4.5615593844853137 6.105876636549155 #
point $-1 48.929764397951438 6.8060946379563134 7.9806281581037259 #
point $-1 48.929764397951438 10.17289751816282 7.9806281581037259 #
straight-curve $-1 -54.967497787408064 4.9384979201053625 51.112869340592582 0 0 -1 I I #
point $-1 -54.967497787408064 4.9384979201053625 14.302183919885156 #
straight-curve $-1 -54.967497787408064 -1.3955119087089614 7.0192401736400498 0 -1 0 I I #
point $-1 -54.967497787408064 4.9384979201053625 7.0192401736400507 #
point $-1 -45.300035440993554 -7.4287368599318953 4.8405916107017646 #
point $-1 -45.300035440993554 -2.7910238174179227 4.8405916107017646 #
point $-1 -45.300035440993554 1.8466892250960498 4.8405916107017646 #
straight-curve $-1 0 -34.283097690723054 -14.302183919885156 -1 0 0 I I #
point $-1 -54.967497787408064 -34.283097690723054 -14.302183919885156 #
End-of-ACIS-data 