500 0 10 0           
7 Unknown 11 ACIS 5.0 NT 24 Fri Mar 26 02:22:10 1999 
-1 9.9999999999999995e-007 1e-010 
body $-1 $10 $-1 $11 #
body $-1 $12 $-1 $13 #
body $-1 $14 $-1 $15 #
body $-1 $16 $-1 $17 #
body $-1 $18 $-1 $19 #
body $-1 $20 $-1 $21 #
body $-1 $22 $-1 $23 #
body $-1 $24 $-1 $25 #
body $-1 $26 $-1 $27 #
body $-1 $28 $-1 $29 #
lump $-1 $-1 $30 $0 #
transform $-1 1 0 0 0 1 0 0 0 1 72.04809717093417 30.598948022405292 12.445022751701128 1 rotate no_reflect no_shear #
lump $-1 $-1 $31 $1 #
transform $-1 1 0 0 0 1 0 0 0 1 72.04809717093417 30.598948022405292 12.445022751701128 1 rotate no_reflect no_shear #
lump $-1 $-1 $32 $2 #
transform $-1 1 0 0 0 1 0 0 0 1 72.04809717093417 30.598948022405292 12.445022751701128 1 rotate no_reflect no_shear #
lump $-1 $-1 $33 $3 #
transform $-1 1 0 0 0 1 0 0 0 1 72.04809717093417 30.598948022405292 12.445022751701128 1 rotate no_reflect no_shear #
lump $-1 $-1 $34 $4 #
transform $-1 1 0 0 0 1 0 0 0 1 72.04809717093417 30.598948022405292 12.445022751701128 1 rotate no_reflect no_shear #
lump $-1 $-1 $35 $5 #
transform $-1 1 0 0 0 1 0 0 0 1 72.04809717093417 30.598948022405292 12.445022751701128 1 rotate no_reflect no_shear #
lump $-1 $-1 $36 $6 #
transform $-1 1 0 0 0 1 0 0 0 1 72.04809717093417 30.598948022405292 12.445022751701128 1 rotate no_reflect no_shear #
lump $-1 $-1 $37 $7 #
transform $-1 1 0 0 0 1 0 0 0 1 72.04809717093417 30.598948022405292 12.445022751701128 1 rotate no_reflect no_shear #
lump $-1 $-1 $38 $8 #
transform $-1 1 0 0 0 1 0 0 0 1 72.04809717093417 30.598948022405292 12.445022751701128 1 rotate no_reflect no_shear #
lump $-1 $-1 $39 $9 #
transform $-1 1 0 0 0 1 0 0 0 1 72.04809717093417 30.598948022405292 12.445022751701128 1 rotate no_reflect no_shear #
shell $-1 $-1 $-1 $40 $-1 $10 #
shell $-1 $-1 $-1 $41 $-1 $12 #
shell $-1 $-1 $-1 $42 $-1 $14 #
shell $-1 $-1 $-1 $43 $-1 $16 #
shell $-1 $-1 $-1 $44 $-1 $18 #
shell $-1 $-1 $-1 $45 $-1 $20 #
shell $-1 $-1 $-1 $46 $-1 $22 #
shell $-1 $-1 $-1 $47 $-1 $24 #
shell $-1 $-1 $-1 $48 $-1 $26 #
shell $-1 $-1 $-1 $49 $-1 $28 #
face $-1 $50 $51 $30 $-1 $52 forward single #
face $-1 $53 $54 $31 $-1 $55 forward single #
face $-1 $56 $57 $32 $-1 $58 reversed single #
face $-1 $59 $60 $33 $-1 $61 reversed single #
face $-1 $62 $63 $34 $-1 $64 forward single #
face $-1 $65 $66 $35 $-1 $67 forward single #
face $-1 $68 $69 $36 $-1 $70 forward single #
face $-1 $71 $72 $37 $-1 $73 reversed single #
face $-1 $74 $75 $38 $-1 $76 forward single #
face $-1 $77 $78 $39 $-1 $79 forward single #
face $-1 $80 $81 $30 $-1 $82 reversed single #
loop $-1 $-1 $83 $40 #
plane-surface $-1 0 0 12.445022751701128 0 0 1 1 0 0 forward_v I I I I #
face $-1 $84 $85 $31 $-1 $86 reversed single #
loop $-1 $-1 $87 $41 #
plane-surface $-1 -72.04809717093417 0 0 1 0 0 0 0 -1 forward_v I I I I #
face $-1 $88 $89 $32 $-1 $90 reversed single #
loop $-1 $-1 $91 $42 #
plane-surface $-1 66.158472207974114 -11.983079267555068 0 0 1 0 0 0 1 forward_v I I I I #
face $-1 $92 $93 $33 $-1 $94 reversed single #
loop $-1 $-1 $95 $43 #
plane-surface $-1 -28.997792172543001 84.115010082255182 154.20815025557312 1 0 0 0 -0.68199836817093118 -0.7313536940579346 forward_v I I I I #
face $-1 $96 $97 $34 $-1 $98 forward single #
loop $-1 $99 $100 $44 #
cone-surface $-1 -25.486618434665758 26.225011491295135 8.1564087508563894 0 -0.68199836817093118 -0.7313536940579346 1.5 0 0 1 I I 0 1 1.5 forward I I I I #
face $-1 $101 $102 $35 $-1 $103 forward single #
loop $-1 $104 $105 $45 #
cone-surface $-1 -20.219857827849893 26.225011491295135 8.1564087508563894 0 -0.68199836817093118 -0.7313536940579346 1.5 0 0 1 I I 0 1 1.5 forward I I I I #
face $-1 $106 $107 $36 $-1 $108 forward single #
loop $-1 $109 $110 $46 #
cone-surface $-1 -14.953097221034028 26.225011491295135 8.1564087508563894 0 -0.68199836817093118 -0.7313536940579346 1.5 0 0 1 I I 0 1 1.5 forward I I I I #
face $-1 $111 $112 $37 $-1 $113 reversed single #
loop $-1 $-1 $114 $47 #
plane-surface $-1 -4.9561928842669012 -150.06010835744519 88.656294722454632 -1 0 0 0 -0.82903758062907751 0.55919289150049634 forward_v I I I I #
face $-1 $115 $116 $38 $-1 $117 forward single #
loop $-1 $118 $119 $48 #
cone-surface $-1 -21.358893132330735 -28.059529386011302 9.5422641660071932 0 0.82903758062907751 -0.55919289150049634 1 0 0 1 I I 0 1 1 forward I I I I #
face $-1 $120 $121 $39 $-1 $122 forward single #
loop $-1 $123 $124 $49 #
cone-surface $-1 -11.51727298349244 -28.059529386011302 9.5422641660071932 0 0.82903758062907751 -0.55919289150049634 1 0 0 1 I I 0 1 1 forward I I I I #
face $-1 $125 $126 $30 $-1 $127 reversed single #
loop $-1 $-1 $128 $50 #
plane-surface $-1 0 0 -12.445022751701128 0 0 1 1 0 0 forward_v I I I I #
coedge $-1 $129 $130 $131 $132 forward $51 $-1 #
face $-1 $133 $134 $31 $-1 $135 forward single #
loop $-1 $-1 $136 $53 #
plane-surface $-1 0 30.598948022405292 0 0 -1 0 0 0 -1 forward_v I I I I #
coedge $-1 $137 $138 $139 $140 forward $54 $-1 #
face $-1 $141 $142 $32 $-1 $143 reversed single #
loop $-1 $-1 $144 $56 #
plane-surface $-1 60.268847245014058 -9.3184915384645315 0 1 0 0 0 0 -1 forward_v I I I I #
coedge $-1 $145 $146 $147 $148 forward $57 $-1 #
face $-1 $149 $150 $33 $-1 $151 reversed single #
loop $-1 $-1 $152 $59 #
plane-surface $-1 -20.2198578278499 -14.158359318540391 48.822866223957647 0 0.68199836817093118 0.7313536940579346 1 0 0 forward_v I I I I #
coedge $-1 $153 $154 $155 $156 reversed $60 $-1 #
face $-1 $-1 $157 $34 $-1 $158 forward single #
loop $-1 $159 $160 $62 #
cone-surface $-1 -25.486618434665758 24.212999749178383 5.9987903623674868 0 -0.68199836817093118 -0.7313536940579346 0.75 0 0 1 I I -0.70710678118654757 0.70710678118654757 0.75 forward I I I I #
loop $-1 $-1 $161 $44 #
coedge $-1 $100 $100 $162 $163 reversed $63 $-1 #
face $-1 $-1 $164 $35 $-1 $165 forward single #
loop $-1 $166 $167 $65 #
cone-surface $-1 -20.219857827849893 24.212999749178383 5.9987903623674868 0 -0.68199836817093118 -0.7313536940579346 0.75 0 0 1 I I -0.70710678118654757 0.70710678118654757 0.75 forward I I I I #
loop $-1 $-1 $168 $45 #
coedge $-1 $105 $105 $169 $170 reversed $66 $-1 #
face $-1 $-1 $171 $36 $-1 $172 forward single #
loop $-1 $173 $174 $68 #
cone-surface $-1 -14.953097221034028 24.212999749178383 5.9987903623674868 0 -0.68199836817093118 -0.7313536940579346 0.75 0 0 1 I I -0.70710678118654757 0.70710678118654757 0.75 forward I I I I #
loop $-1 $-1 $175 $46 #
coedge $-1 $110 $110 $176 $177 reversed $69 $-1 #
face $-1 $178 $179 $37 $-1 $180 reversed single #
loop $-1 $-1 $181 $71 #
plane-surface $-1 -16.438083057911584 -30.598948022405295 8.0787271542078116 0 -0.82903758062907751 0.55919289150049634 1 0 0 forward_v I I I I #
coedge $-1 $182 $183 $184 $185 reversed $72 $-1 #
face $-1 $-1 $186 $38 $-1 $187 forward single #
loop $-1 $188 $189 $74 #
cone-surface $-1 -21.358893132330735 -26.578143697220057 8.5430569333096678 0 0.82903758062907751 -0.55919289150049634 0.5 0 0 1 I I -0.70710678118654746 0.70710678118654746 0.5 forward I I I I #
loop $-1 $-1 $190 $48 #
coedge $-1 $119 $119 $191 $192 reversed $75 $-1 #
face $-1 $-1 $193 $39 $-1 $194 forward single #
loop $-1 $195 $196 $77 #
cone-surface $-1 -11.51727298349244 -26.578143697220057 8.5430569333096678 0 0.82903758062907751 -0.55919289150049634 0.5 0 0 1 I I -0.70710678118654746 0.70710678118654746 0.5 forward I I I I #
loop $-1 $-1 $197 $49 #
coedge $-1 $124 $124 $198 $199 reversed $78 $-1 #
face $-1 $200 $201 $30 $-1 $202 reversed single #
loop $-1 $-1 $203 $80 #
plane-surface $-1 0 -30.598948022405292 0 0 1 0 0 0 1 forward_v I I I I #
coedge $-1 $204 $205 $206 $207 forward $81 $-1 #
coedge $-1 $208 $83 $209 $210 forward $51 $-1 #
coedge $-1 $83 $208 $211 $212 forward $51 $-1 #
coedge $-1 $213 $214 $83 $132 reversed $215 $-1 #
edge $-1 $216 -30.598948022405292 $217 30.598948022405292 $131 $218 forward 7 unknown #
face $-1 $219 $220 $31 $-1 $221 reversed single #
loop $-1 $-1 $139 $84 #
plane-surface $-1 -77.999637707763739 0 6.194037361412966 0 0 1 1 0 0 forward_v I I I I #
coedge $-1 $222 $223 $138 $224 forward $85 $-1 #
coedge $-1 $225 $87 $226 $227 reversed $54 $-1 #
coedge $-1 $87 $225 $136 $224 reversed $54 $-1 #
coedge $-1 $228 $229 $87 $140 reversed $134 $-1 #
edge $-1 $230 -30.598948022405292 $231 30.598948022405292 $139 $232 forward 7 unknown #
face $-1 $233 $234 $32 $-1 $235 forward single #
loop $-1 $-1 $236 $88 #
plane-surface $-1 66.158472207974114 -6.6539038093739951 0 0 -1 0 0 0 -1 forward_v I I I I #
coedge $-1 $237 $238 $239 $240 forward $89 $-1 #
coedge $-1 $241 $91 $242 $243 reversed $57 $-1 #
coedge $-1 $91 $241 $244 $245 reversed $57 $-1 #
coedge $-1 $238 $237 $91 $148 reversed $89 $-1 #
edge $-1 $246 -12.445022751701128 $247 12.445022751701128 $147 $248 forward 7 unknown #
face $-1 $249 $250 $33 $-1 $251 forward single #
loop $-1 $-1 $252 $92 #
plane-surface $-1 -11.441923483156799 84.115010082255182 154.20815025557312 -1 0 0 0 0.68199836817093118 0.7313536940579346 forward_v I I I I #
coedge $-1 $253 $254 $255 $256 reversed $93 $-1 #
coedge $-1 $154 $95 $257 $258 reversed $60 $-1 #
coedge $-1 $95 $153 $253 $259 reversed $60 $-1 #
coedge $-1 $255 $260 $95 $156 forward $250 $-1 #
edge $-1 $261 11.458557018722299 $262 17.205404148965513 $155 $263 forward 7 unknown #
loop $-1 $-1 $162 $96 #
plane-surface $-1 -20.2198578278499 -14.158359318540391 48.822866223957647 0 0.68199836817093118 0.7313536940579346 1 0 0 forward_v I I I I #
loop $-1 $-1 $264 $62 #
coedge $-1 $160 $160 $161 $265 reversed $97 $-1 #
coedge $-1 $161 $161 $160 $265 forward $99 $-1 #
coedge $-1 $162 $162 $100 $163 forward $157 $-1 #
edge $-1 $266 -8.0764831050682916e-016 $266 6.2831853071795996 $162 $267 forward 7 unknown #
loop $-1 $-1 $169 $101 #
plane-surface $-1 -20.2198578278499 -14.158359318540391 48.822866223957647 0 0.68199836817093118 0.7313536940579346 1 0 0 forward_v I I I I #
loop $-1 $-1 $268 $65 #
coedge $-1 $167 $167 $168 $269 reversed $102 $-1 #
coedge $-1 $168 $168 $167 $269 forward $104 $-1 #
coedge $-1 $169 $169 $105 $170 forward $164 $-1 #
edge $-1 $270 -8.0764831050682916e-016 $270 6.2831853071795996 $169 $271 forward 7 unknown #
loop $-1 $-1 $176 $106 #
plane-surface $-1 -20.2198578278499 -14.158359318540391 48.822866223957647 0 0.68199836817093118 0.7313536940579346 1 0 0 forward_v I I I I #
loop $-1 $-1 $272 $68 #
coedge $-1 $174 $174 $175 $273 reversed $107 $-1 #
coedge $-1 $175 $175 $174 $273 forward $109 $-1 #
coedge $-1 $176 $176 $110 $177 forward $171 $-1 #
edge $-1 $274 -8.0764831050682916e-016 $274 6.2831853071795996 $176 $275 forward 7 unknown #
face $-1 $276 $277 $37 $-1 $278 reversed single #
loop $-1 $-1 $279 $111 #
plane-surface $-1 -27.919973231556266 -150.06010835744519 88.656294722454632 1 0 0 0 0.82903758062907751 -0.55919289150049634 forward_v I I I I #
coedge $-1 $280 $281 $282 $283 reversed $112 $-1 #
coedge $-1 $183 $114 $284 $285 reversed $72 $-1 #
coedge $-1 $114 $182 $280 $286 reversed $72 $-1 #
coedge $-1 $282 $287 $114 $185 forward $288 $-1 #
edge $-1 $289 44.431106156317298 $290 47.376209632151863 $184 $291 forward 7 unknown #
loop $-1 $-1 $191 $115 #
plane-surface $-1 -16.438083057911584 -30.598948022405295 8.0787271542078116 0 -0.82903758062907751 0.55919289150049634 1 0 0 forward_v I I I I #
loop $-1 $-1 $292 $74 #
coedge $-1 $189 $189 $190 $293 reversed $116 $-1 #
coedge $-1 $190 $190 $189 $293 forward $118 $-1 #
coedge $-1 $191 $191 $119 $192 forward $186 $-1 #
edge $-1 $294 5.1398565825151937e-016 $294 6.2831853071796013 $191 $295 forward 7 unknown #
loop $-1 $-1 $198 $120 #
plane-surface $-1 -16.438083057911584 -30.598948022405295 8.0787271542078116 0 -0.82903758062907751 0.55919289150049634 1 0 0 forward_v I I I I #
loop $-1 $-1 $296 $77 #
coedge $-1 $196 $196 $197 $297 reversed $121 $-1 #
coedge $-1 $197 $197 $196 $297 forward $123 $-1 #
coedge $-1 $198 $198 $124 $199 forward $193 $-1 #
edge $-1 $298 5.1398565825151937e-016 $298 6.2831853071796013 $198 $299 forward 7 unknown #
face $-1 $300 $301 $30 $-1 $302 reversed single #
loop $-1 $-1 $303 $125 #
plane-surface $-1 -72.04809717093417 0 0 1 0 0 0 0 -1 forward_v I I I I #
coedge $-1 $304 $211 $303 $305 forward $126 $-1 #
coedge $-1 $306 $128 $304 $307 forward $81 $-1 #
coedge $-1 $128 $306 $308 $309 forward $81 $-1 #
coedge $-1 $214 $213 $128 $207 reversed $215 $-1 #
edge $-1 $310 -30.598948022405292 $311 30.598948022405292 $206 $312 forward 7 unknown #
coedge $-1 $130 $129 $313 $314 forward $51 $-1 #
coedge $-1 $315 $316 $129 $210 reversed $301 $-1 #
edge $-1 $217 -72.04809717093417 $317 72.04809717093417 $209 $318 forward 7 unknown #
coedge $-1 $203 $319 $130 $212 reversed $126 $-1 #
edge $-1 $320 -72.04809717093417 $216 72.04809717093417 $211 $321 forward 7 unknown #
coedge $-1 $206 $131 $319 $322 forward $215 $-1 #
coedge $-1 $131 $206 $315 $323 reversed $215 $-1 #
loop $-1 $-1 $213 $300 #
vertex $-1 $132 $324 #
vertex $-1 $132 $325 #
straight-curve $-1 72.04809717093417 0 12.445022751701128 0 1 0 I I #
face $-1 $326 $327 $31 $-1 $328 reversed single #
loop $-1 $-1 $329 $133 #
plane-surface $-1 -77.999637707763739 0 0.66007183188824659 0 0 1 1 0 0 forward_v I I I I #
coedge $-1 $330 $136 $331 $332 reversed $85 $-1 #
coedge $-1 $136 $330 $228 $333 reversed $85 $-1 #
edge $-1 $230 -6.194037361412966 $334 -0.66007183188824659 $136 $335 forward 7 unknown #
coedge $-1 $138 $137 $329 $336 forward $54 $-1 #
coedge $-1 $337 $338 $137 $227 forward $339 $-1 #
edge $-1 $340 0.66007183188824659 $231 6.194037361412966 $226 $341 forward 7 unknown #
coedge $-1 $342 $139 $223 $333 forward $134 $-1 #
coedge $-1 $139 $342 $337 $343 forward $134 $-1 #
vertex $-1 $224 $344 #
vertex $-1 $343 $345 #
straight-curve $-1 -72.04809717093417 0 6.194037361412966 0 -1 0 I I #
face $-1 $346 $347 $32 $-1 $348 reversed single #
loop $-1 $-1 $349 $141 #
plane-surface $-1 0 0 12.445022751701128 0 0 1 1 0 0 forward_v I I I I #
coedge $-1 $350 $351 $352 $353 reversed $142 $-1 #
coedge $-1 $147 $144 $354 $355 reversed $89 $-1 #
coedge $-1 $144 $147 $356 $357 reversed $89 $-1 #
coedge $-1 $351 $350 $144 $240 reversed $142 $-1 #
edge $-1 $358 -12.445022751701128 $359 12.445022751701128 $239 $360 forward 7 unknown #
coedge $-1 $146 $145 $361 $362 reversed $57 $-1 #
coedge $-1 $354 $363 $145 $243 forward $347 $-1 #
edge $-1 $364 -38.968861066947113 $247 -27.189611141027001 $242 $365 forward 7 unknown #
coedge $-1 $366 $356 $146 $245 forward $234 $-1 #
edge $-1 $246 27.189611141027001 $367 38.968861066947113 $244 $368 forward 7 unknown #
vertex $-1 $245 $369 #
vertex $-1 $243 $370 #
straight-curve $-1 60.268847245014058 -11.983079267555068 0 0 0 -1 I I #
face $-1 $-1 $371 $33 $-1 $372 reversed single #
loop $-1 $-1 $155 $149 #
plane-surface $-1 0 0 12.445022751701128 0 0 1 1 0 0 forward_v I I I I #
coedge $-1 $373 $374 $375 $376 reversed $150 $-1 #
coedge $-1 $377 $152 $154 $259 forward $93 $-1 #
coedge $-1 $152 $377 $373 $378 forward $93 $-1 #
coedge $-1 $375 $155 $152 $256 forward $250 $-1 #
edge $-1 $262 -18.887863258618051 $379 -1.3319945692318491 $255 $380 forward 7 unknown #
coedge $-1 $381 $382 $153 $258 forward $371 $-1 #
edge $-1 $383 -70.018074141884014 $261 -64.659052376085427 $257 $384 forward 7 unknown #
edge $-1 $262 53.340074067653831 $383 61.197896044810584 $154 $385 forward 7 unknown #
coedge $-1 $155 $375 $381 $386 forward $250 $-1 #
vertex $-1 $258 $387 #
vertex $-1 $156 $388 #
straight-curve $-1 -28.997792172543001 42.057505041127591 12.445022751701131 0 -1 0 I I #
coedge $-1 $264 $264 $-1 $389 reversed $159 $-1 #
edge $-1 $390 0 $390 6.2831853071796004 $160 $391 forward 7 unknown #
vertex $-1 $163 $392 #
ellipse-curve $-1 -25.486618434665758 27.725524457283687 9.7655118688018412 0 0.68199836817093118 0.7313536940579346 1.5 0 0 1 I I #
coedge $-1 $268 $268 $-1 $393 reversed $166 $-1 #
edge $-1 $394 0 $394 6.2831853071796004 $167 $395 forward 7 unknown #
vertex $-1 $170 $396 #
ellipse-curve $-1 -20.219857827849893 27.725524457283687 9.7655118688018412 0 0.68199836817093118 0.7313536940579346 1.5 0 0 1 I I #
coedge $-1 $272 $272 $-1 $397 reversed $173 $-1 #
edge $-1 $398 0 $398 6.2831853071796004 $174 $399 forward 7 unknown #
vertex $-1 $177 $400 #
ellipse-curve $-1 -14.953097221034028 27.725524457283687 9.7655118688018412 0 0.68199836817093118 0.7313536940579346 1.5 0 0 1 I I #
face $-1 $-1 $288 $37 $-1 $401 forward single #
loop $-1 $-1 $402 $178 #
plane-surface $-1 0 -30.598948022405292 0 0 1 0 0 0 1 forward_v I I I I #
coedge $-1 $403 $404 $405 $406 reversed $179 $-1 #
coedge $-1 $407 $181 $183 $286 forward $112 $-1 #
coedge $-1 $181 $407 $403 $408 forward $112 $-1 #
coedge $-1 $405 $184 $181 $283 forward $288 $-1 #
edge $-1 $290 -3.2628486446888907 $409 19.700931702600474 $282 $410 forward 7 unknown #
coedge $-1 $411 $412 $182 $285 forward $277 $-1 #
edge $-1 $413 -36.249420207019497 $289 -31.883124609526188 $284 $414 forward 7 unknown #
edge $-1 $290 -5.2667040668773435 $413 -6.404651964132713e-015 $183 $415 forward 7 unknown #
coedge $-1 $184 $405 $411 $416 forward $288 $-1 #
loop $-1 $-1 $405 $276 #
vertex $-1 $285 $417 #
vertex $-1 $185 $418 #
straight-curve $-1 -4.9561928842669012 -75.030054178722594 12.445022751701131 0 1 0 I I #
coedge $-1 $292 $292 $-1 $419 reversed $188 $-1 #
edge $-1 $420 0 $420 6.2831853071796004 $189 $421 forward 7 unknown #
vertex $-1 $192 $422 #
ellipse-curve $-1 -21.358893132330735 -29.126396284488013 10.261874952954471 0 -0.82903758062907751 0.55919289150049634 1 0 0 1 I I #
coedge $-1 $296 $296 $-1 $423 reversed $195 $-1 #
edge $-1 $424 0 $424 6.2831853071796004 $196 $425 forward 7 unknown #
vertex $-1 $199 $426 #
ellipse-curve $-1 -11.51727298349244 -29.126396284488013 10.261874952954471 0 -0.82903758062907751 0.55919289150049634 1 0 0 1 I I #
face $-1 $-1 $215 $30 $-1 $427 reversed single #
loop $-1 $-1 $315 $200 #
plane-surface $-1 0 30.598948022405292 0 0 -1 0 0 0 -1 forward_v I I I I #
coedge $-1 $313 $428 $203 $305 reversed $201 $-1 #
coedge $-1 $319 $203 $204 $307 reversed $126 $-1 #
edge $-1 $320 -12.445022751701128 $429 12.445022751701128 $303 $430 forward 7 unknown #
coedge $-1 $205 $204 $428 $431 forward $81 $-1 #
edge $-1 $311 -72.04809717093417 $429 72.04809717093417 $304 $432 forward 7 unknown #
coedge $-1 $316 $315 $205 $309 reversed $301 $-1 #
edge $-1 $433 -72.04809717093417 $310 72.04809717093417 $308 $434 forward 7 unknown #
vertex $-1 $207 $435 #
vertex $-1 $322 $436 #
straight-curve $-1 72.04809717093417 0 -12.445022751701128 0 -1 0 I I #
coedge $-1 $437 $303 $208 $314 reversed $201 $-1 #
edge $-1 $317 -30.598948022405292 $320 30.598948022405292 $313 $438 forward 7 unknown #
coedge $-1 $308 $209 $214 $323 forward $301 $-1 #
coedge $-1 $209 $308 $437 $439 reversed $301 $-1 #
vertex $-1 $210 $440 #
straight-curve $-1 0 30.598948022405292 12.445022751701128 -1 0 0 I I #
coedge $-1 $211 $304 $213 $322 reversed $126 $-1 #
vertex $-1 $314 $441 #
straight-curve $-1 0 -30.598948022405292 12.445022751701128 1 0 0 I I #
edge $-1 $216 -12.445022751701128 $311 12.445022751701128 $213 $442 forward 7 unknown #
edge $-1 $217 -12.445022751701128 $310 12.445022751701128 $214 $443 forward 7 unknown #
point $-1 72.04809717093417 -30.598948022405292 12.445022751701128 #
point $-1 72.04809717093417 30.598948022405292 12.445022751701128 #
face $-1 $-1 $339 $31 $-1 $444 reversed single #
loop $-1 $-1 $445 $219 #
plane-surface $-1 -83.951178244593308 0 3.4270545966506063 1 0 0 0 0 -1 forward_v I I I I #
coedge $-1 $446 $331 $225 $336 reversed $220 $-1 #
coedge $-1 $223 $222 $445 $447 reversed $85 $-1 #
coedge $-1 $329 $448 $222 $332 forward $220 $-1 #
edge $-1 $449 -5.9515405368295689 $334 5.9515405368295689 $222 $450 forward 7 unknown #
edge $-1 $230 -5.9515405368295689 $451 5.9515405368295689 $223 $452 forward 7 unknown #
vertex $-1 $224 $453 #
straight-curve $-1 -72.04809717093417 30.598948022405292 0 0 0 -1 I I #
edge $-1 $340 -30.598948022405292 $334 30.598948022405292 $329 $454 forward 7 unknown #
coedge $-1 $455 $226 $229 $343 reversed $339 $-1 #
coedge $-1 $226 $455 $446 $456 reversed $339 $-1 #
loop $-1 $-1 $226 $326 #
vertex $-1 $227 $457 #
straight-curve $-1 -72.04809717093417 -30.598948022405292 0 0 0 1 I I #
coedge $-1 $229 $228 $458 $459 forward $134 $-1 #
edge $-1 $460 -5.9515405368295689 $231 5.9515405368295689 $337 $461 forward 7 unknown #
point $-1 -72.04809717093417 30.598948022405292 6.194037361412966 #
point $-1 -72.04809717093417 -30.598948022405292 6.194037361412966 #
face $-1 $-1 $462 $32 $-1 $463 reversed single #
loop $-1 $-1 $464 $233 #
plane-surface $-1 0 0 -12.445022751701128 0 0 1 1 0 0 forward_v I I I I #
coedge $-1 $356 $366 $351 $465 forward $234 $-1 #
coedge $-1 $239 $236 $464 $466 reversed $142 $-1 #
coedge $-1 $236 $239 $349 $465 reversed $142 $-1 #
coedge $-1 $467 $468 $236 $353 forward $462 $-1 #
edge $-1 $469 -12.445022751701128 $470 12.445022751701128 $352 $471 forward 7 unknown #
coedge $-1 $464 $242 $237 $355 forward $347 $-1 #
edge $-1 $247 -7.3238334983228022 $359 -1.9946580401417293 $354 $472 forward 7 unknown #
coedge $-1 $244 $349 $238 $357 forward $234 $-1 #
edge $-1 $358 1.9946580401417293 $246 7.3238334983228022 $356 $473 forward 7 unknown #
vertex $-1 $357 $474 #
vertex $-1 $355 $475 #
straight-curve $-1 60.268847245014058 -6.6539038093739951 0 0 0 -1 I I #
coedge $-1 $468 $467 $241 $362 forward $462 $-1 #
edge $-1 $367 -12.445022751701128 $364 12.445022751701128 $361 $476 forward 7 unknown #
coedge $-1 $242 $464 $468 $477 forward $347 $-1 #
vertex $-1 $362 $478 #
straight-curve $-1 33.079236103987057 -11.983079267555068 -12.445022751701128 -1 0 0 I I #
coedge $-1 $349 $244 $467 $479 forward $234 $-1 #
vertex $-1 $479 $480 #
straight-curve $-1 33.079236103987057 -11.983079267555068 12.445022751701128 1 0 0 I I #
point $-1 60.268847245014058 -11.983079267555068 12.445022751701128 #
point $-1 60.268847245014058 -11.983079267555068 -12.445022751701128 #
loop $-1 $-1 $257 $249 #
plane-surface $-1 0 30.598948022405292 0 0 -1 0 0 0 -1 forward_v I I I I #
coedge $-1 $374 $252 $254 $378 reversed $150 $-1 #
coedge $-1 $252 $373 $481 $482 reversed $150 $-1 #
coedge $-1 $260 $255 $252 $376 forward $250 $-1 #
edge $-1 $379 -17.205404148965513 $483 -11.458557018722299 $375 $484 forward 7 unknown #
coedge $-1 $254 $253 $382 $485 reversed $93 $-1 #
edge $-1 $486 -61.197896044810584 $379 -53.340074067653831 $373 $487 forward 7 unknown #
vertex $-1 $256 $488 #
straight-curve $-1 -10.10992891392495 24.852100892162085 12.445022751701124 1 0 0 I I #
coedge $-1 $481 $257 $260 $386 reversed $371 $-1 #
coedge $-1 $257 $481 $377 $485 forward $371 $-1 #
vertex $-1 $258 $489 #
straight-curve $-1 -28.997792172543001 30.598948022405292 77.104075127786558 0 0 1 I I #
straight-curve $-1 -28.997792172543001 -14.158359318540391 48.822866223957647 0 0.7313536940579346 -0.68199836817093118 I I #
edge $-1 $483 11.441923483156799 $261 28.997792172543001 $381 $490 forward 7 unknown #
point $-1 -28.997792172543001 30.598948022405292 12.445022751701128 #
point $-1 -28.997792172543001 24.852100892162078 12.445022751701131 #
edge $-1 $491 1 $491 0 $264 $-1 forward 7 unknown #
vertex $-1 $265 $492 #
ellipse-curve $-1 -25.486618434665758 24.724498525306583 6.5473056329109376 0 0.68199836817093118 0.7313536940579346 1.5 0 0 1 I I #
point $-1 -23.986618434665758 27.725524457283687 9.765511868801843 #
edge $-1 $493 1 $493 0 $268 $-1 forward 7 unknown #
vertex $-1 $269 $494 #
ellipse-curve $-1 -20.219857827849893 24.724498525306583 6.5473056329109376 0 0.68199836817093118 0.7313536940579346 1.5 0 0 1 I I #
point $-1 -18.719857827849893 27.725524457283687 9.765511868801843 #
edge $-1 $495 1 $495 0 $272 $-1 forward 7 unknown #
vertex $-1 $273 $496 #
ellipse-curve $-1 -14.953097221034028 24.724498525306583 6.5473056329109376 0 0.68199836817093118 0.7313536940579346 1.5 0 0 1 I I #
point $-1 -13.453097221034028 27.725524457283687 9.765511868801843 #
plane-surface $-1 0 0 12.445022751701128 0 0 1 1 0 0 forward_v I I I I #
coedge $-1 $412 $411 $404 $497 forward $277 $-1 #
coedge $-1 $404 $279 $281 $408 reversed $179 $-1 #
coedge $-1 $279 $403 $402 $497 reversed $179 $-1 #
coedge $-1 $287 $282 $279 $406 forward $288 $-1 #
edge $-1 $409 -47.376209632151863 $498 -44.431106156317298 $405 $499 forward 7 unknown #
coedge $-1 $281 $280 $412 $500 reversed $112 $-1 #
edge $-1 $501 6.404651964132713e-015 $409 5.2667040668773435 $403 $502 forward 7 unknown #
vertex $-1 $283 $503 #
straight-curve $-1 -8.2190415289557919 -27.653844546570735 12.445022751701128 -1 0 0 I I #
coedge $-1 $402 $284 $287 $416 reversed $277 $-1 #
coedge $-1 $284 $402 $407 $500 forward $277 $-1 #
vertex $-1 $285 $504 #
straight-curve $-1 -4.9561928842669012 -30.598948022405295 44.328147361227316 0 0 1 I I #
straight-curve $-1 -4.9561928842669012 -30.598948022405295 8.0787271542078116 0 -0.55919289150049634 -0.82903758062907751 I I #
edge $-1 $498 -27.919973231556266 $289 -4.9561928842669012 $411 $505 forward 7 unknown #
point $-1 -4.9561928842669012 -30.598948022405292 12.445022751701128 #
point $-1 -4.9561928842669012 -27.653844546570731 12.445022751701128 #
edge $-1 $506 1 $506 0 $292 $-1 forward 7 unknown #
vertex $-1 $293 $507 #
ellipse-curve $-1 -21.358893132330735 -26.992662487534595 8.8226533790599166 0 -0.82903758062907751 0.55919289150049634 1 0 0 1 I I #
point $-1 -20.358893132330735 -29.12639628448801 10.26187495295447 #
edge $-1 $508 1 $508 0 $296 $-1 forward 7 unknown #
vertex $-1 $297 $509 #
ellipse-curve $-1 -11.51727298349244 -26.992662487534595 8.8226533790599166 0 -0.82903758062907751 0.55919289150049634 1 0 0 1 I I #
point $-1 -10.51727298349244 -29.12639628448801 10.26187495295447 #
plane-surface $-1 72.04809717093417 0 0 -1 0 0 0 0 1 forward_v I I I I #
coedge $-1 $303 $437 $306 $431 reversed $201 $-1 #
vertex $-1 $431 $510 #
straight-curve $-1 -72.04809717093417 -30.598948022405292 0 0 0 -1 I I #
edge $-1 $429 -30.598948022405292 $433 30.598948022405292 $428 $511 forward 7 unknown #
straight-curve $-1 0 -30.598948022405292 -12.445022751701128 -1 0 0 I I #
vertex $-1 $309 $512 #
straight-curve $-1 0 30.598948022405292 -12.445022751701128 1 0 0 I I #
point $-1 72.04809717093417 30.598948022405292 -12.445022751701128 #
point $-1 72.04809717093417 -30.598948022405292 -12.445022751701128 #
coedge $-1 $428 $313 $316 $439 forward $201 $-1 #
straight-curve $-1 -72.04809717093417 0 12.445022751701128 0 -1 0 I I #
edge $-1 $317 -12.445022751701128 $433 12.445022751701128 $316 $513 forward 7 unknown #
point $-1 -72.04809717093417 30.598948022405292 12.445022751701128 #
point $-1 -72.04809717093417 -30.598948022405292 12.445022751701128 #
straight-curve $-1 72.04809717093417 -30.598948022405292 0 0 0 -1 I I #
straight-curve $-1 72.04809717093417 30.598948022405292 0 0 0 -1 I I #
plane-surface $-1 0 -30.598948022405292 0 0 1 0 0 0 1 forward_v I I I I #
coedge $-1 $514 $458 $330 $447 forward $327 $-1 #
coedge $-1 $448 $329 $338 $456 forward $220 $-1 #
edge $-1 $451 -2.7669827647623597 $449 2.7669827647623597 $330 $515 forward 7 unknown #
coedge $-1 $331 $446 $514 $516 forward $220 $-1 #
vertex $-1 $332 $517 #
straight-curve $-1 -77.999637707763739 30.598948022405292 0.66007183188824659 1 0 0 I I #
vertex $-1 $333 $518 #
straight-curve $-1 -77.999637707763739 30.598948022405292 6.194037361412966 -1 0 0 I I #
point $-1 -72.04809717093417 30.598948022405292 0.66007183188824659 #
straight-curve $-1 -72.04809717093417 0 0.66007183188824659 0 1 0 I I #
coedge $-1 $338 $337 $519 $520 forward $339 $-1 #
edge $-1 $340 -5.9515405368295689 $521 5.9515405368295689 $338 $522 forward 7 unknown #
point $-1 -72.04809717093417 -30.598948022405292 0.66007183188824659 #
coedge $-1 $445 $519 $342 $459 reversed $327 $-1 #
edge $-1 $451 -30.598948022405292 $460 30.598948022405292 $458 $523 forward 7 unknown #
vertex $-1 $459 $524 #
straight-curve $-1 -77.999637707763739 -30.598948022405292 6.194037361412966 1 0 0 I I #
loop $-1 $-1 $352 $346 #
plane-surface $-1 72.04809717093417 0 0 -1 0 0 0 0 1 forward_v I I I I #
coedge $-1 $363 $354 $350 $466 forward $347 $-1 #
edge $-1 $470 -38.968861066947113 $358 -27.189611141027001 $349 $525 forward 7 unknown #
edge $-1 $359 27.189611141027001 $469 38.968861066947113 $464 $526 forward 7 unknown #
coedge $-1 $361 $352 $366 $479 reversed $462 $-1 #
coedge $-1 $352 $361 $363 $477 reversed $462 $-1 #
vertex $-1 $477 $527 #
vertex $-1 $353 $528 #
straight-curve $-1 72.04809717093417 -6.6539038093739951 0 0 0 1 I I #
straight-curve $-1 60.268847245014058 -4.6592457692322657 -12.445022751701128 0 1 0 I I #
straight-curve $-1 60.268847245014058 -4.6592457692322657 12.445022751701128 0 -1 0 I I #
point $-1 60.268847245014058 -6.6539038093739951 12.445022751701128 #
point $-1 60.268847245014058 -6.6539038093739951 -12.445022751701128 #
straight-curve $-1 72.04809717093417 -11.983079267555068 0 0 0 -1 I I #
edge $-1 $469 6.6539038093739951 $364 11.983079267555068 $468 $529 forward 7 unknown #
point $-1 72.04809717093417 -11.983079267555068 -12.445022751701128 #
edge $-1 $367 -11.983079267555068 $470 -6.6539038093739951 $467 $530 forward 7 unknown #
point $-1 72.04809717093417 -11.983079267555068 12.445022751701128 #
coedge $-1 $382 $381 $374 $482 forward $371 $-1 #
edge $-1 $483 64.659052376085427 $486 70.018074141884014 $481 $531 forward 7 unknown #
vertex $-1 $386 $532 #
straight-curve $-1 -11.441923483156799 42.057505041127591 12.445022751701131 0 1 0 I I #
edge $-1 $486 1.3319945692318491 $383 18.887863258618051 $382 $533 forward 7 unknown #
vertex $-1 $485 $534 #
straight-curve $-1 -11.441923483156799 -14.158359318540391 48.822866223957647 0 -0.7313536940579346 0.68199836817093118 I I #
point $-1 -11.441923483156799 24.852100892162078 12.445022751701131 #
point $-1 -28.997792172543001 30.598948022405295 7.0860009859025439 #
straight-curve $-1 0 30.598948022405292 12.445022751701128 -1 0 0 I I #
vertex $-1 $389 $535 #
point $-1 -23.986618434665758 24.724498525306583 6.5473056329109376 #
vertex $-1 $393 $536 #
point $-1 -18.719857827849893 24.724498525306583 6.5473056329109376 #
vertex $-1 $397 $537 #
point $-1 -13.453097221034028 24.724498525306583 6.5473056329109376 #
edge $-1 $498 31.883124609526188 $501 36.249420207019497 $402 $538 forward 7 unknown #
vertex $-1 $416 $539 #
straight-curve $-1 -27.919973231556266 -75.030054178722594 12.445022751701131 0 -1 0 I I #
edge $-1 $501 -19.700931702600474 $413 3.2628486446888907 $412 $540 forward 7 unknown #
vertex $-1 $500 $541 #
straight-curve $-1 -27.919973231556266 -30.598948022405295 8.0787271542078116 0 0.55919289150049634 0.82903758062907751 I I #
point $-1 -27.919973231556266 -27.653844546570731 12.445022751701128 #
point $-1 -4.9561928842669012 -30.598948022405292 8.078727154207817 #
straight-curve $-1 0 -30.598948022405292 12.445022751701128 1 0 0 I I #
vertex $-1 $419 $542 #
point $-1 -20.358893132330735 -26.992662487534595 8.8226533790599166 #
vertex $-1 $423 $543 #
point $-1 -10.51727298349244 -26.992662487534595 8.8226533790599166 #
point $-1 -72.04809717093417 -30.598948022405292 -12.445022751701128 #
straight-curve $-1 -72.04809717093417 0 -12.445022751701128 0 1 0 I I #
point $-1 -72.04809717093417 30.598948022405292 -12.445022751701128 #
straight-curve $-1 -72.04809717093417 30.598948022405292 0 0 0 -1 I I #
coedge $-1 $519 $445 $448 $516 reversed $327 $-1 #
straight-curve $-1 -83.951178244593308 30.598948022405292 3.4270545966506063 0 0 -1 I I #
edge $-1 $521 -30.598948022405292 $449 30.598948022405292 $514 $544 forward 7 unknown #
point $-1 -83.951178244593308 30.598948022405292 0.66007183188824659 #
point $-1 -83.951178244593308 30.598948022405292 6.194037361412966 #
coedge $-1 $458 $514 $455 $520 reversed $327 $-1 #
edge $-1 $460 -2.7669827647623597 $521 2.7669827647623597 $519 $545 forward 7 unknown #
vertex $-1 $516 $546 #
straight-curve $-1 -77.999637707763739 -30.598948022405292 0.66007183188824659 -1 0 0 I I #
straight-curve $-1 -83.951178244593308 0 6.194037361412966 0 -1 0 I I #
point $-1 -83.951178244593308 -30.598948022405292 6.194037361412966 #
straight-curve $-1 33.079236103987057 -6.6539038093739951 12.445022751701128 -1 0 0 I I #
straight-curve $-1 33.079236103987057 -6.6539038093739951 -12.445022751701128 1 0 0 I I #
point $-1 72.04809717093417 -6.6539038093739951 -12.445022751701128 #
point $-1 72.04809717093417 -6.6539038093739951 12.445022751701128 #
straight-curve $-1 72.04809717093417 0 -12.445022751701128 0 -1 0 I I #
straight-curve $-1 72.04809717093417 0 12.445022751701128 0 1 0 I I #
straight-curve $-1 -11.441923483156799 30.598948022405292 77.104075127786558 0 0 -1 I I #
point $-1 -11.441923483156799 30.598948022405292 12.445022751701128 #
straight-curve $-1 -10.10992891392495 30.598948022405288 7.0860009859025475 -1 0 0 I I #
point $-1 -11.441923483156799 30.598948022405295 7.0860009859025439 #
point $-1 -25.486618434665758 23.701500973050184 5.4502750918240359 #
point $-1 -20.219857827849893 23.701500973050184 5.4502750918240359 #
point $-1 -14.953097221034028 23.701500973050184 5.4502750918240359 #
straight-curve $-1 -27.919973231556266 -30.598948022405295 44.328147361227316 0 0 -1 I I #
point $-1 -27.919973231556266 -30.598948022405292 12.445022751701128 #
straight-curve $-1 -8.2190415289557919 -30.598948022405292 8.0787271542078241 1 0 0 I I #
point $-1 -27.919973231556266 -30.598948022405292 8.078727154207817 #
point $-1 -21.358893132330735 -26.163624906905518 8.2634604875594189 #
point $-1 -11.51727298349244 -26.163624906905518 8.2634604875594189 #
straight-curve $-1 -83.951178244593308 0 0.66007183188824659 0 1 0 I I #
straight-curve $-1 -83.951178244593308 -30.598948022405292 3.4270545966506063 0 0 -1 I I #
point $-1 -83.951178244593308 -30.598948022405292 0.66007183188824659 #
End-of-ACIS-data 