500 0 19 0           
7 Unknown 11 ACIS 5.0 NT 24 Fri Mar 26 01:15:32 1999 
-1 9.9999999999999995e-007 1e-010 
body $-1 $19 $-1 $20 #
body $-1 $21 $-1 $22 #
body $-1 $23 $-1 $24 #
body $-1 $25 $-1 $26 #
body $-1 $27 $-1 $28 #
body $-1 $29 $-1 $30 #
body $-1 $31 $-1 $32 #
body $-1 $33 $-1 $34 #
body $-1 $35 $-1 $36 #
body $-1 $37 $-1 $38 #
body $-1 $39 $-1 $40 #
body $-1 $41 $-1 $42 #
body $-1 $43 $-1 $44 #
body $-1 $45 $-1 $46 #
body $-1 $47 $-1 $48 #
body $-1 $49 $-1 $50 #
body $-1 $51 $-1 $52 #
body $-1 $53 $-1 $54 #
body $-1 $55 $-1 $56 #
lump $-1 $-1 $57 $0 #
transform $-1 1 0 0 0 1 0 0 0 1 61.496017334513382 40.194901970122579 11.657588790327646 1 rotate no_reflect no_shear #
lump $-1 $-1 $58 $1 #
transform $-1 1 0 0 0 1 0 0 0 1 61.496017334513382 40.194901970122579 11.657588790327646 1 rotate no_reflect no_shear #
lump $-1 $-1 $59 $2 #
transform $-1 1 0 0 0 1 0 0 0 1 61.496017334513382 40.194901970122579 11.657588790327646 1 rotate no_reflect no_shear #
lump $-1 $-1 $60 $3 #
transform $-1 1 0 0 0 1 0 0 0 1 61.496017334513382 40.194901970122579 11.657588790327646 1 rotate no_reflect no_shear #
lump $-1 $-1 $61 $4 #
transform $-1 1 0 0 0 1 0 0 0 1 61.496017334513382 40.194901970122579 11.657588790327646 1 rotate no_reflect no_shear #
lump $-1 $-1 $62 $5 #
transform $-1 1 0 0 0 1 0 0 0 1 61.496017334513382 40.194901970122579 11.657588790327646 1 rotate no_reflect no_shear #
lump $-1 $-1 $63 $6 #
transform $-1 1 0 0 0 1 0 0 0 1 61.496017334513382 40.194901970122579 11.657588790327646 1 rotate no_reflect no_shear #
lump $-1 $-1 $64 $7 #
transform $-1 1 0 0 0 1 0 0 0 1 61.496017334513382 40.194901970122579 11.657588790327646 1 rotate no_reflect no_shear #
lump $-1 $-1 $65 $8 #
transform $-1 1 0 0 0 1 0 0 0 1 61.496017334513382 40.194901970122579 11.657588790327646 1 rotate no_reflect no_shear #
lump $-1 $-1 $66 $9 #
transform $-1 1 0 0 0 1 0 0 0 1 61.496017334513382 40.194901970122579 11.657588790327646 1 rotate no_reflect no_shear #
lump $-1 $-1 $67 $10 #
transform $-1 1 0 0 0 1 0 0 0 1 61.496017334513382 40.194901970122579 11.657588790327646 1 rotate no_reflect no_shear #
lump $-1 $-1 $68 $11 #
transform $-1 1 0 0 0 1 0 0 0 1 61.496017334513382 40.194901970122579 11.657588790327646 1 rotate no_reflect no_shear #
lump $-1 $-1 $69 $12 #
transform $-1 1 0 0 0 1 0 0 0 1 61.496017334513382 40.194901970122579 11.657588790327646 1 rotate no_reflect no_shear #
lump $-1 $-1 $70 $13 #
transform $-1 1 0 0 0 1 0 0 0 1 61.496017334513382 40.194901970122579 11.657588790327646 1 rotate no_reflect no_shear #
lump $-1 $-1 $71 $14 #
transform $-1 1 0 0 0 1 0 0 0 1 61.496017334513382 40.194901970122579 11.657588790327646 1 rotate no_reflect no_shear #
lump $-1 $-1 $72 $15 #
transform $-1 1 0 0 0 1 0 0 0 1 61.496017334513382 40.194901970122579 11.657588790327646 1 rotate no_reflect no_shear #
lump $-1 $-1 $73 $16 #
transform $-1 1 0 0 0 1 0 0 0 1 61.496017334513382 40.194901970122579 11.657588790327646 1 rotate no_reflect no_shear #
lump $-1 $-1 $74 $17 #
transform $-1 1 0 0 0 1 0 0 0 1 61.496017334513382 40.194901970122579 11.657588790327646 1 rotate no_reflect no_shear #
lump $-1 $-1 $75 $18 #
transform $-1 1 0 0 0 1 0 0 0 1 61.496017334513382 40.194901970122579 11.657588790327646 1 rotate no_reflect no_shear #
shell $-1 $-1 $-1 $76 $-1 $19 #
shell $-1 $-1 $-1 $77 $-1 $21 #
shell $-1 $-1 $-1 $78 $-1 $23 #
shell $-1 $-1 $-1 $79 $-1 $25 #
shell $-1 $-1 $-1 $80 $-1 $27 #
shell $-1 $-1 $-1 $81 $-1 $29 #
shell $-1 $-1 $-1 $82 $-1 $31 #
shell $-1 $-1 $-1 $83 $-1 $33 #
shell $-1 $-1 $-1 $84 $-1 $35 #
shell $-1 $-1 $-1 $85 $-1 $37 #
shell $-1 $-1 $-1 $86 $-1 $39 #
shell $-1 $-1 $-1 $87 $-1 $41 #
shell $-1 $-1 $-1 $88 $-1 $43 #
shell $-1 $-1 $-1 $89 $-1 $45 #
shell $-1 $-1 $-1 $90 $-1 $47 #
shell $-1 $-1 $-1 $91 $-1 $49 #
shell $-1 $-1 $-1 $92 $-1 $51 #
shell $-1 $-1 $-1 $93 $-1 $53 #
shell $-1 $-1 $-1 $94 $-1 $55 #
face $-1 $95 $96 $57 $-1 $97 forward single #
face $-1 $98 $99 $58 $-1 $100 reversed single #
face $-1 $101 $102 $59 $-1 $103 reversed single #
face $-1 $104 $105 $60 $-1 $106 reversed single #
face $-1 $107 $108 $61 $-1 $109 forward single #
face $-1 $110 $111 $62 $-1 $112 forward single #
face $-1 $113 $114 $63 $-1 $115 forward single #
face $-1 $116 $117 $64 $-1 $118 reversed single #
face $-1 $119 $120 $65 $-1 $121 forward single #
face $-1 $122 $123 $66 $-1 $124 forward single #
face $-1 $125 $126 $67 $-1 $127 forward single #
face $-1 $128 $129 $68 $-1 $130 reversed single #
face $-1 $131 $132 $69 $-1 $133 forward single #
face $-1 $134 $135 $70 $-1 $136 forward single #
face $-1 $137 $138 $71 $-1 $139 forward single #
face $-1 $140 $141 $72 $-1 $142 reversed single #
face $-1 $143 $144 $73 $-1 $145 forward single #
face $-1 $146 $147 $74 $-1 $148 forward single #
face $-1 $149 $150 $75 $-1 $151 forward single #
face $-1 $152 $153 $57 $-1 $154 reversed single #
loop $-1 $-1 $155 $76 #
plane-surface $-1 0 0 11.657588790327646 0 0 1 1 0 0 forward_v I I I I #
face $-1 $156 $157 $58 $-1 $158 reversed single #
loop $-1 $-1 $159 $77 #
plane-surface $-1 -59.996017334513382 -29.552623096528627 0 0 -1 0 0 0 -1 forward_v I I I I #
face $-1 $160 $161 $59 $-1 $162 reversed single #
loop $-1 $-1 $163 $78 #
plane-surface $-1 -59.996017334513382 29.552623096528635 0 0 1 0 0 0 1 forward_v I I I I #
face $-1 $164 $165 $60 $-1 $166 reversed single #
loop $-1 $-1 $167 $79 #
plane-surface $-1 64.53163867659876 -18.353949635297468 177.30120499083623 0 -1 0 -0.71933980857756763 0 -0.69465836192734942 forward_v I I I I #
face $-1 $168 $169 $61 $-1 $170 forward single #
loop $-1 $171 $172 $80 #
cone-surface $-1 57.144723282740756 -23.763913094092754 7.176811705277677 -0.71933980857756763 0 -0.69465836192734942 0.17366459048183736 0 -0.17983495214439191 1 I I 0 1 0.25 forward I I I I #
face $-1 $173 $174 $62 $-1 $175 forward single #
loop $-1 $176 $177 $81 #
cone-surface $-1 57.144723282740756 -21.73517679704452 7.176811705277677 -0.71933980857756763 0 -0.69465836192734942 0.17366459048183736 0 -0.17983495214439191 1 I I 0 1 0.25 forward I I I I #
face $-1 $178 $179 $63 $-1 $180 forward single #
loop $-1 $181 $182 $82 #
cone-surface $-1 57.144723282740756 -19.706440499996287 7.176811705277677 -0.71933980857756763 0 -0.69465836192734942 0.17366459048183736 0 -0.17983495214439191 1 I I 0 1 0.25 forward I I I I #
face $-1 $183 $184 $64 $-1 $185 reversed single #
loop $-1 $-1 $186 $83 #
plane-surface $-1 64.53163867659876 -3.5776380870331526 177.30120499083623 0 -1 0 -0.71933980857756763 0 -0.69465836192734942 forward_v I I I I #
face $-1 $187 $188 $65 $-1 $189 forward single #
loop $-1 $190 $191 $84 #
cone-surface $-1 57.144723282740756 -8.98760154582844 7.176811705277677 -0.71933980857756763 0 -0.69465836192734942 0.17366459048183736 0 -0.17983495214439191 1 I I 0 1 0.25 forward I I I I #
face $-1 $192 $193 $66 $-1 $194 forward single #
loop $-1 $195 $196 $85 #
cone-surface $-1 57.144723282740756 -6.9588652487802065 7.176811705277677 -0.71933980857756763 0 -0.69465836192734942 0.17366459048183736 0 -0.17983495214439191 1 I I 0 1 0.25 forward I I I I #
face $-1 $197 $198 $67 $-1 $199 forward single #
loop $-1 $200 $201 $86 #
cone-surface $-1 57.144723282740756 -4.9301289517319731 7.176811705277677 -0.71933980857756763 0 -0.69465836192734942 0.17366459048183736 0 -0.17983495214439191 1 I I 0 1 0.25 forward I I I I #
face $-1 $202 $203 $68 $-1 $204 reversed single #
loop $-1 $-1 $205 $87 #
plane-surface $-1 64.53163867659876 11.198673461231165 177.30120499083623 0 -1 0 -0.71933980857756763 0 -0.69465836192734942 forward_v I I I I #
face $-1 $206 $207 $69 $-1 $208 forward single #
loop $-1 $209 $210 $88 #
cone-surface $-1 57.144723282740756 5.7887100024358702 7.176811705277677 -0.71933980857756763 0 -0.69465836192734942 0.17366459048183736 0 -0.17983495214439191 1 I I 0 1 0.25 forward I I I I #
face $-1 $211 $212 $70 $-1 $213 forward single #
loop $-1 $214 $215 $89 #
cone-surface $-1 57.144723282740756 7.8174462994841107 7.176811705277677 -0.71933980857756763 0 -0.69465836192734942 0.17366459048183736 0 -0.17983495214439191 1 I I 0 1 0.25 forward I I I I #
face $-1 $216 $217 $71 $-1 $218 forward single #
loop $-1 $219 $220 $90 #
cone-surface $-1 57.144723282740756 9.8461825965323371 7.176811705277677 -0.71933980857756763 0 -0.69465836192734942 0.17366459048183736 0 -0.17983495214439191 1 I I 0 1 0.25 forward I I I I #
face $-1 $221 $222 $72 $-1 $223 reversed single #
loop $-1 $-1 $224 $91 #
plane-surface $-1 64.53163867659876 25.974985009495484 177.30120499083623 0 -1 0 -0.71933980857756763 0 -0.69465836192734942 forward_v I I I I #
face $-1 $225 $226 $73 $-1 $227 forward single #
loop $-1 $228 $229 $92 #
cone-surface $-1 57.144723282740756 20.565021550700187 7.176811705277677 -0.71933980857756763 0 -0.69465836192734942 0.17366459048183736 0 -0.17983495214439191 1 I I 0 1 0.25 forward I I I I #
face $-1 $230 $231 $74 $-1 $232 forward single #
loop $-1 $233 $234 $93 #
cone-surface $-1 57.144723282740756 22.593757847748428 7.176811705277677 -0.71933980857756763 0 -0.69465836192734942 0.17366459048183736 0 -0.17983495214439191 1 I I 0 1 0.25 forward I I I I #
face $-1 $235 $236 $75 $-1 $237 forward single #
loop $-1 $238 $239 $94 #
cone-surface $-1 57.144723282740756 24.622494144796654 7.176811705277677 -0.71933980857756763 0 -0.69465836192734942 0.17366459048183736 0 -0.17983495214439191 1 I I 0 1 0.25 forward I I I I #
face $-1 $240 $241 $57 $-1 $242 reversed single #
loop $-1 $-1 $243 $95 #
plane-surface $-1 0 0 -11.657588790327646 0 0 1 1 0 0 forward_v I I I I #
coedge $-1 $244 $245 $246 $247 forward $96 $-1 #
face $-1 $248 $249 $58 $-1 $250 forward single #
loop $-1 $-1 $251 $98 #
plane-surface $-1 -58.496017334513382 -34.873762533325603 0 -1 0 0 0 0 1 forward_v I I I I #
coedge $-1 $252 $253 $254 $255 forward $99 $-1 #
face $-1 $256 $257 $59 $-1 $258 reversed single #
loop $-1 $-1 $259 $101 #
plane-surface $-1 -58.496017334513382 34.87376253332561 0 -1 0 0 0 0 1 forward_v I I I I #
coedge $-1 $260 $261 $262 $263 reversed $102 $-1 #
face $-1 $264 $265 $60 $-1 $266 reversed single #
loop $-1 $-1 $267 $104 #
plane-surface $-1 -23.941427998784519 -21.735176797044524 91.863759657538324 0.71933980857756763 0 0.69465836192734942 0.69465836192734942 0 -0.71933980857756763 forward_v I I I I #
coedge $-1 $268 $269 $270 $271 reversed $105 $-1 #
face $-1 $-1 $272 $61 $-1 $273 forward single #
loop $-1 $274 $275 $107 #
cone-surface $-1 56.695135902379775 -23.763913094092754 6.7426502290730834 -0.71933980857756763 0 -0.69465836192734942 0.086832295240918678 0 -0.089917476072195954 1 I I -0.70710678118654746 0.70710678118654746 0.125 forward I I I I #
loop $-1 $-1 $276 $80 #
coedge $-1 $172 $172 $277 $278 reversed $108 $-1 #
face $-1 $-1 $279 $62 $-1 $280 forward single #
loop $-1 $281 $282 $110 #
cone-surface $-1 56.695135902379775 -21.73517679704452 6.7426502290730834 -0.71933980857756763 0 -0.69465836192734942 0.086832295240918678 0 -0.089917476072195954 1 I I -0.70710678118654746 0.70710678118654746 0.125 forward I I I I #
loop $-1 $-1 $283 $81 #
coedge $-1 $177 $177 $284 $285 reversed $111 $-1 #
face $-1 $-1 $286 $63 $-1 $287 forward single #
loop $-1 $288 $289 $113 #
cone-surface $-1 56.695135902379775 -19.706440499996287 6.7426502290730834 -0.71933980857756763 0 -0.69465836192734942 0.086832295240918678 0 -0.089917476072195954 1 I I -0.70710678118654746 0.70710678118654746 0.125 forward I I I I #
loop $-1 $-1 $290 $82 #
coedge $-1 $182 $182 $291 $292 reversed $114 $-1 #
face $-1 $293 $294 $64 $-1 $295 reversed single #
loop $-1 $-1 $296 $116 #
plane-surface $-1 -23.941427998784519 -6.9588652487802065 91.863759657538324 0.71933980857756763 0 0.69465836192734942 0.69465836192734942 0 -0.71933980857756763 forward_v I I I I #
coedge $-1 $297 $298 $299 $300 reversed $117 $-1 #
face $-1 $-1 $301 $65 $-1 $302 forward single #
loop $-1 $303 $304 $119 #
cone-surface $-1 56.695135902379775 -8.98760154582844 6.7426502290730834 -0.71933980857756763 0 -0.69465836192734942 0.086832295240918678 0 -0.089917476072195954 1 I I -0.70710678118654746 0.70710678118654746 0.125 forward I I I I #
loop $-1 $-1 $305 $84 #
coedge $-1 $191 $191 $306 $307 reversed $120 $-1 #
face $-1 $-1 $308 $66 $-1 $309 forward single #
loop $-1 $310 $311 $122 #
cone-surface $-1 56.695135902379775 -6.9588652487802065 6.7426502290730834 -0.71933980857756763 0 -0.69465836192734942 0.086832295240918678 0 -0.089917476072195954 1 I I -0.70710678118654746 0.70710678118654746 0.125 forward I I I I #
loop $-1 $-1 $312 $85 #
coedge $-1 $196 $196 $313 $314 reversed $123 $-1 #
face $-1 $-1 $315 $67 $-1 $316 forward single #
loop $-1 $317 $318 $125 #
cone-surface $-1 56.695135902379775 -4.9301289517319731 6.7426502290730834 -0.71933980857756763 0 -0.69465836192734942 0.086832295240918678 0 -0.089917476072195954 1 I I -0.70710678118654746 0.70710678118654746 0.125 forward I I I I #
loop $-1 $-1 $319 $86 #
coedge $-1 $201 $201 $320 $321 reversed $126 $-1 #
face $-1 $322 $323 $68 $-1 $324 reversed single #
loop $-1 $-1 $325 $128 #
plane-surface $-1 -23.941427998784519 7.8174462994841107 91.863759657538324 0.71933980857756763 0 0.69465836192734942 0.69465836192734942 0 -0.71933980857756763 forward_v I I I I #
coedge $-1 $326 $327 $328 $329 reversed $129 $-1 #
face $-1 $-1 $330 $69 $-1 $331 forward single #
loop $-1 $332 $333 $131 #
cone-surface $-1 56.695135902379775 5.7887100024358702 6.7426502290730834 -0.71933980857756763 0 -0.69465836192734942 0.086832295240918678 0 -0.089917476072195954 1 I I -0.70710678118654746 0.70710678118654746 0.125 forward I I I I #
loop $-1 $-1 $334 $88 #
coedge $-1 $210 $210 $335 $336 reversed $132 $-1 #
face $-1 $-1 $337 $70 $-1 $338 forward single #
loop $-1 $339 $340 $134 #
cone-surface $-1 56.695135902379775 7.8174462994841107 6.7426502290730834 -0.71933980857756763 0 -0.69465836192734942 0.086832295240918678 0 -0.089917476072195954 1 I I -0.70710678118654746 0.70710678118654746 0.125 forward I I I I #
loop $-1 $-1 $341 $89 #
coedge $-1 $215 $215 $342 $343 reversed $135 $-1 #
face $-1 $-1 $344 $71 $-1 $345 forward single #
loop $-1 $346 $347 $137 #
cone-surface $-1 56.695135902379775 9.8461825965323371 6.7426502290730834 -0.71933980857756763 0 -0.69465836192734942 0.086832295240918678 0 -0.089917476072195954 1 I I -0.70710678118654746 0.70710678118654746 0.125 forward I I I I #
loop $-1 $-1 $348 $90 #
coedge $-1 $220 $220 $349 $350 reversed $138 $-1 #
face $-1 $351 $352 $72 $-1 $353 reversed single #
loop $-1 $-1 $354 $140 #
plane-surface $-1 -23.941427998784519 22.593757847748428 91.863759657538324 0.71933980857756763 0 0.69465836192734942 0.69465836192734942 0 -0.71933980857756763 forward_v I I I I #
coedge $-1 $355 $356 $357 $358 reversed $141 $-1 #
face $-1 $-1 $359 $73 $-1 $360 forward single #
loop $-1 $361 $362 $143 #
cone-surface $-1 56.695135902379775 20.565021550700187 6.7426502290730834 -0.71933980857756763 0 -0.69465836192734942 0.086832295240918678 0 -0.089917476072195954 1 I I -0.70710678118654746 0.70710678118654746 0.125 forward I I I I #
loop $-1 $-1 $363 $92 #
coedge $-1 $229 $229 $364 $365 reversed $144 $-1 #
face $-1 $-1 $366 $74 $-1 $367 forward single #
loop $-1 $368 $369 $146 #
cone-surface $-1 56.695135902379775 22.593757847748428 6.7426502290730834 -0.71933980857756763 0 -0.69465836192734942 0.086832295240918678 0 -0.089917476072195954 1 I I -0.70710678118654746 0.70710678118654746 0.125 forward I I I I #
loop $-1 $-1 $370 $93 #
coedge $-1 $234 $234 $371 $372 reversed $147 $-1 #
face $-1 $-1 $373 $75 $-1 $374 forward single #
loop $-1 $375 $376 $149 #
cone-surface $-1 56.695135902379775 24.622494144796654 6.7426502290730834 -0.71933980857756763 0 -0.69465836192734942 0.086832295240918678 0 -0.089917476072195954 1 I I -0.70710678118654746 0.70710678118654746 0.125 forward I I I I #
loop $-1 $-1 $377 $94 #
coedge $-1 $239 $239 $378 $379 reversed $150 $-1 #
face $-1 $380 $381 $57 $-1 $382 reversed single #
loop $-1 $-1 $383 $152 #
plane-surface $-1 0 -40.194901970122579 0 0 1 0 0 0 1 forward_v I I I I #
coedge $-1 $384 $385 $386 $387 forward $153 $-1 #
coedge $-1 $388 $155 $389 $390 forward $96 $-1 #
coedge $-1 $155 $388 $391 $392 forward $96 $-1 #
coedge $-1 $393 $394 $155 $247 reversed $395 $-1 #
edge $-1 $396 -40.194901970122579 $397 40.194901970122579 $246 $398 forward 7 unknown #
face $-1 $399 $400 $58 $-1 $401 reversed single #
loop $-1 $-1 $402 $156 #
plane-surface $-1 0 0 11.657588790327646 0 0 1 1 0 0 forward_v I I I I #
coedge $-1 $403 $404 $405 $406 reversed $157 $-1 #
coedge $-1 $407 $159 $408 $409 reversed $99 $-1 #
coedge $-1 $159 $407 $410 $411 reversed $99 $-1 #
coedge $-1 $404 $403 $159 $255 reversed $157 $-1 #
edge $-1 $412 -11.657588790327646 $413 11.657588790327646 $254 $414 forward 7 unknown #
face $-1 $415 $416 $59 $-1 $417 reversed single #
loop $-1 $-1 $418 $160 #
plane-surface $-1 0 0 -11.657588790327646 0 0 1 1 0 0 forward_v I I I I #
coedge $-1 $419 $420 $421 $422 forward $161 $-1 #
coedge $-1 $421 $163 $423 $424 reversed $102 $-1 #
coedge $-1 $163 $421 $425 $426 reversed $102 $-1 #
coedge $-1 $427 $428 $163 $263 forward $416 $-1 #
edge $-1 $429 -11.657588790327646 $430 11.657588790327646 $262 $431 forward 7 unknown #
face $-1 $432 $433 $60 $-1 $434 reversed single #
loop $-1 $-1 $435 $164 #
plane-surface $-1 64.53163867659876 -25.116403958791579 177.30120499083623 0 1 0 0.71933980857756763 0 0.69465836192734942 forward_v I I I I #
coedge $-1 $436 $437 $438 $439 reversed $165 $-1 #
coedge $-1 $269 $167 $440 $441 reversed $105 $-1 #
coedge $-1 $167 $268 $436 $442 reversed $105 $-1 #
coedge $-1 $438 $443 $167 $271 forward $444 $-1 #
edge $-1 $445 -29.230197996214002 $446 -21.246949701246308 $270 $447 forward 7 unknown #
loop $-1 $-1 $277 $168 #
plane-surface $-1 -23.941427998784519 -21.735176797044524 91.863759657538324 0.71933980857756763 0 0.69465836192734942 0.69465836192734942 0 -0.71933980857756763 forward_v I I I I #
loop $-1 $-1 $448 $107 #
coedge $-1 $275 $275 $276 $449 reversed $169 $-1 #
coedge $-1 $276 $276 $275 $449 forward $171 $-1 #
coedge $-1 $277 $277 $172 $278 forward $272 $-1 #
edge $-1 $450 0 $450 6.2831853071796004 $277 $451 forward 7 unknown #
loop $-1 $-1 $284 $173 #
plane-surface $-1 -23.941427998784519 -21.735176797044524 91.863759657538324 0.71933980857756763 0 0.69465836192734942 0.69465836192734942 0 -0.71933980857756763 forward_v I I I I #
loop $-1 $-1 $452 $110 #
coedge $-1 $282 $282 $283 $453 reversed $174 $-1 #
coedge $-1 $283 $283 $282 $453 forward $176 $-1 #
coedge $-1 $284 $284 $177 $285 forward $279 $-1 #
edge $-1 $454 0 $454 6.2831853071796004 $284 $455 forward 7 unknown #
loop $-1 $-1 $291 $178 #
plane-surface $-1 -23.941427998784519 -21.735176797044524 91.863759657538324 0.71933980857756763 0 0.69465836192734942 0.69465836192734942 0 -0.71933980857756763 forward_v I I I I #
loop $-1 $-1 $456 $113 #
coedge $-1 $289 $289 $290 $457 reversed $179 $-1 #
coedge $-1 $290 $290 $289 $457 forward $181 $-1 #
coedge $-1 $291 $291 $182 $292 forward $286 $-1 #
edge $-1 $458 0 $458 6.2831853071796004 $291 $459 forward 7 unknown #
face $-1 $460 $461 $64 $-1 $462 reversed single #
loop $-1 $-1 $463 $183 #
plane-surface $-1 64.53163867659876 -10.34009241052726 177.30120499083623 0 1 0 0.71933980857756763 0 0.69465836192734942 forward_v I I I I #
coedge $-1 $464 $465 $466 $467 reversed $184 $-1 #
coedge $-1 $298 $186 $468 $469 reversed $117 $-1 #
coedge $-1 $186 $297 $464 $470 reversed $117 $-1 #
coedge $-1 $466 $471 $186 $300 forward $472 $-1 #
edge $-1 $473 -29.230197996214002 $474 -21.246949701246308 $299 $475 forward 7 unknown #
loop $-1 $-1 $306 $187 #
plane-surface $-1 -23.941427998784519 -6.9588652487802065 91.863759657538324 0.71933980857756763 0 0.69465836192734942 0.69465836192734942 0 -0.71933980857756763 forward_v I I I I #
loop $-1 $-1 $476 $119 #
coedge $-1 $304 $304 $305 $477 reversed $188 $-1 #
coedge $-1 $305 $305 $304 $477 forward $190 $-1 #
coedge $-1 $306 $306 $191 $307 forward $301 $-1 #
edge $-1 $478 0 $478 6.2831853071796004 $306 $479 forward 7 unknown #
loop $-1 $-1 $313 $192 #
plane-surface $-1 -23.941427998784519 -6.9588652487802065 91.863759657538324 0.71933980857756763 0 0.69465836192734942 0.69465836192734942 0 -0.71933980857756763 forward_v I I I I #
loop $-1 $-1 $480 $122 #
coedge $-1 $311 $311 $312 $481 reversed $193 $-1 #
coedge $-1 $312 $312 $311 $481 forward $195 $-1 #
coedge $-1 $313 $313 $196 $314 forward $308 $-1 #
edge $-1 $482 0 $482 6.2831853071796004 $313 $483 forward 7 unknown #
loop $-1 $-1 $320 $197 #
plane-surface $-1 -23.941427998784519 -6.9588652487802065 91.863759657538324 0.71933980857756763 0 0.69465836192734942 0.69465836192734942 0 -0.71933980857756763 forward_v I I I I #
loop $-1 $-1 $484 $125 #
coedge $-1 $318 $318 $319 $485 reversed $198 $-1 #
coedge $-1 $319 $319 $318 $485 forward $200 $-1 #
coedge $-1 $320 $320 $201 $321 forward $315 $-1 #
edge $-1 $486 0 $486 6.2831853071796004 $320 $487 forward 7 unknown #
face $-1 $488 $489 $68 $-1 $490 reversed single #
loop $-1 $-1 $491 $202 #
plane-surface $-1 64.53163867659876 4.4362191377370568 177.30120499083623 0 1 0 0.71933980857756763 0 0.69465836192734942 forward_v I I I I #
coedge $-1 $492 $493 $494 $495 reversed $203 $-1 #
coedge $-1 $327 $205 $496 $497 reversed $129 $-1 #
coedge $-1 $205 $326 $492 $498 reversed $129 $-1 #
coedge $-1 $494 $499 $205 $329 forward $500 $-1 #
edge $-1 $501 -29.230197996214002 $502 -21.246949701246308 $328 $503 forward 7 unknown #
loop $-1 $-1 $335 $206 #
plane-surface $-1 -23.941427998784519 7.8174462994841107 91.863759657538324 0.71933980857756763 0 0.69465836192734942 0.69465836192734942 0 -0.71933980857756763 forward_v I I I I #
loop $-1 $-1 $504 $131 #
coedge $-1 $333 $333 $334 $505 reversed $207 $-1 #
coedge $-1 $334 $334 $333 $505 forward $209 $-1 #
coedge $-1 $335 $335 $210 $336 forward $330 $-1 #
edge $-1 $506 0 $506 6.2831853071796004 $335 $507 forward 7 unknown #
loop $-1 $-1 $342 $211 #
plane-surface $-1 -23.941427998784519 7.8174462994841107 91.863759657538324 0.71933980857756763 0 0.69465836192734942 0.69465836192734942 0 -0.71933980857756763 forward_v I I I I #
loop $-1 $-1 $508 $134 #
coedge $-1 $340 $340 $341 $509 reversed $212 $-1 #
coedge $-1 $341 $341 $340 $509 forward $214 $-1 #
coedge $-1 $342 $342 $215 $343 forward $337 $-1 #
edge $-1 $510 0 $510 6.2831853071796004 $342 $511 forward 7 unknown #
loop $-1 $-1 $349 $216 #
plane-surface $-1 -23.941427998784519 7.8174462994841107 91.863759657538324 0.71933980857756763 0 0.69465836192734942 0.69465836192734942 0 -0.71933980857756763 forward_v I I I I #
loop $-1 $-1 $512 $137 #
coedge $-1 $347 $347 $348 $513 reversed $217 $-1 #
coedge $-1 $348 $348 $347 $513 forward $219 $-1 #
coedge $-1 $349 $349 $220 $350 forward $344 $-1 #
edge $-1 $514 0 $514 6.2831853071796004 $349 $515 forward 7 unknown #
face $-1 $516 $517 $72 $-1 $518 reversed single #
loop $-1 $-1 $519 $221 #
plane-surface $-1 64.53163867659876 19.212530686001372 177.30120499083623 0 1 0 0.71933980857756763 0 0.69465836192734942 forward_v I I I I #
coedge $-1 $520 $521 $522 $523 reversed $222 $-1 #
coedge $-1 $356 $224 $524 $525 reversed $141 $-1 #
coedge $-1 $224 $355 $520 $526 reversed $141 $-1 #
coedge $-1 $522 $527 $224 $358 forward $528 $-1 #
edge $-1 $529 -29.230197996214002 $530 -21.246949701246308 $357 $531 forward 7 unknown #
loop $-1 $-1 $364 $225 #
plane-surface $-1 -23.941427998784519 22.593757847748428 91.863759657538324 0.71933980857756763 0 0.69465836192734942 0.69465836192734942 0 -0.71933980857756763 forward_v I I I I #
loop $-1 $-1 $532 $143 #
coedge $-1 $362 $362 $363 $533 reversed $226 $-1 #
coedge $-1 $363 $363 $362 $533 forward $228 $-1 #
coedge $-1 $364 $364 $229 $365 forward $359 $-1 #
edge $-1 $534 0 $534 6.2831853071796004 $364 $535 forward 7 unknown #
loop $-1 $-1 $371 $230 #
plane-surface $-1 -23.941427998784519 22.593757847748428 91.863759657538324 0.71933980857756763 0 0.69465836192734942 0.69465836192734942 0 -0.71933980857756763 forward_v I I I I #
loop $-1 $-1 $536 $146 #
coedge $-1 $369 $369 $370 $537 reversed $231 $-1 #
coedge $-1 $370 $370 $369 $537 forward $233 $-1 #
coedge $-1 $371 $371 $234 $372 forward $366 $-1 #
edge $-1 $538 0 $538 6.2831853071796004 $371 $539 forward 7 unknown #
loop $-1 $-1 $378 $235 #
plane-surface $-1 -23.941427998784519 22.593757847748428 91.863759657538324 0.71933980857756763 0 0.69465836192734942 0.69465836192734942 0 -0.71933980857756763 forward_v I I I I #
loop $-1 $-1 $540 $149 #
coedge $-1 $376 $376 $377 $541 reversed $236 $-1 #
coedge $-1 $377 $377 $376 $541 forward $238 $-1 #
coedge $-1 $378 $378 $239 $379 forward $373 $-1 #
edge $-1 $542 0 $542 6.2831853071796004 $378 $543 forward 7 unknown #
face $-1 $544 $545 $57 $-1 $546 reversed single #
loop $-1 $-1 $547 $240 #
plane-surface $-1 -61.496017334513382 0 0 1 0 0 0 0 -1 forward_v I I I I #
coedge $-1 $548 $391 $549 $550 forward $241 $-1 #
coedge $-1 $551 $243 $548 $552 forward $153 $-1 #
coedge $-1 $243 $551 $553 $554 forward $153 $-1 #
coedge $-1 $394 $393 $243 $387 reversed $395 $-1 #
edge $-1 $555 -40.194901970122579 $556 40.194901970122579 $386 $557 forward 7 unknown #
coedge $-1 $245 $244 $558 $559 forward $96 $-1 #
coedge $-1 $560 $561 $244 $390 reversed $545 $-1 #
edge $-1 $397 -61.496017334513382 $562 61.496017334513382 $389 $563 forward 7 unknown #
coedge $-1 $383 $564 $245 $392 reversed $241 $-1 #
edge $-1 $565 -61.496017334513382 $396 61.496017334513382 $391 $566 forward 7 unknown #
coedge $-1 $386 $246 $564 $567 forward $395 $-1 #
coedge $-1 $246 $386 $560 $568 reversed $395 $-1 #
loop $-1 $-1 $393 $544 #
vertex $-1 $247 $569 #
vertex $-1 $247 $570 #
straight-curve $-1 61.496017334513382 0 11.657588790327646 0 1 0 I I #
face $-1 $571 $572 $58 $-1 $573 reversed single #
loop $-1 $-1 $574 $248 #
plane-surface $-1 -61.496017334513382 0 0 1 0 0 0 0 -1 forward_v I I I I #
coedge $-1 $410 $575 $404 $576 forward $249 $-1 #
coedge $-1 $254 $251 $577 $578 reversed $157 $-1 #
coedge $-1 $251 $254 $402 $576 reversed $157 $-1 #
coedge $-1 $579 $580 $251 $406 forward $581 $-1 #
edge $-1 $582 -11.657588790327646 $583 11.657588790327646 $405 $584 forward 7 unknown #
coedge $-1 $253 $252 $574 $585 reversed $99 $-1 #
coedge $-1 $577 $586 $252 $409 forward $572 $-1 #
edge $-1 $587 -31.498008667256691 $413 -28.498008667256691 $408 $588 forward 7 unknown #
coedge $-1 $589 $402 $253 $411 forward $249 $-1 #
edge $-1 $412 28.498008667256691 $590 31.498008667256691 $410 $591 forward 7 unknown #
vertex $-1 $411 $592 #
vertex $-1 $409 $593 #
straight-curve $-1 -58.496017334513382 -29.552623096528627 0 0 0 -1 I I #
face $-1 $594 $595 $59 $-1 $596 forward single #
loop $-1 $-1 $262 $256 #
plane-surface $-1 -61.496017334513382 0 0 1 0 0 0 0 -1 forward_v I I I I #
coedge $-1 $423 $597 $419 $598 forward $257 $-1 #
coedge $-1 $599 $259 $418 $598 reversed $161 $-1 #
coedge $-1 $259 $599 $600 $601 reversed $161 $-1 #
coedge $-1 $261 $260 $259 $422 reversed $102 $-1 #
edge $-1 $602 -11.657588790327646 $603 11.657588790327646 $259 $604 forward 7 unknown #
coedge $-1 $605 $418 $260 $424 forward $257 $-1 #
edge $-1 $603 28.498008667256691 $429 31.498008667256691 $423 $606 forward 7 unknown #
coedge $-1 $600 $607 $261 $426 forward $595 $-1 #
edge $-1 $430 -31.498008667256691 $602 -28.498008667256691 $425 $608 forward 7 unknown #
coedge $-1 $609 $262 $607 $610 reversed $416 $-1 #
coedge $-1 $262 $609 $605 $611 reversed $416 $-1 #
vertex $-1 $611 $612 #
vertex $-1 $263 $613 #
straight-curve $-1 -61.496017334513382 29.552623096528635 0 0 0 1 I I #
face $-1 $-1 $444 $60 $-1 $614 forward single #
loop $-1 $-1 $615 $264 #
plane-surface $-1 61.496017334513382 0 0 -1 0 0 0 0 1 forward_v I I I I #
coedge $-1 $616 $617 $618 $619 reversed $265 $-1 #
coedge $-1 $620 $267 $269 $442 forward $165 $-1 #
coedge $-1 $267 $620 $616 $621 forward $165 $-1 #
coedge $-1 $618 $270 $267 $439 forward $444 $-1 #
edge $-1 $446 7.4863612367752062 $622 14.248815560269318 $438 $623 forward 7 unknown #
coedge $-1 $624 $625 $268 $441 forward $433 $-1 #
edge $-1 $626 -85.259909513263068 $445 -76.993013705090462 $440 $627 forward 7 unknown #
edge $-1 $446 111.49969723740362 $626 122.99203466902676 $269 $628 forward 7 unknown #
coedge $-1 $270 $618 $624 $629 forward $444 $-1 #
loop $-1 $-1 $618 $432 #
vertex $-1 $441 $630 #
vertex $-1 $271 $631 #
straight-curve $-1 32.26581933829938 -18.353949635297468 11.657588790327651 -1 0 0 I I #
coedge $-1 $448 $448 $-1 $632 reversed $274 $-1 #
edge $-1 $633 0 $633 6.2831853071796004 $275 $634 forward 7 unknown #
vertex $-1 $278 $635 #
ellipse-curve $-1 57.504393187029542 -23.763913094092754 7.5241408862413515 0.71933980857756763 0 0.69465836192734942 0.17366459048183736 0 -0.17983495214439191 1 I I #
coedge $-1 $452 $452 $-1 $636 reversed $281 $-1 #
edge $-1 $637 0 $637 6.2831853071796004 $282 $638 forward 7 unknown #
vertex $-1 $285 $639 #
ellipse-curve $-1 57.504393187029542 -21.73517679704452 7.5241408862413515 0.71933980857756763 0 0.69465836192734942 0.17366459048183736 0 -0.17983495214439191 1 I I #
coedge $-1 $456 $456 $-1 $640 reversed $288 $-1 #
edge $-1 $641 0 $641 6.2831853071796004 $289 $642 forward 7 unknown #
vertex $-1 $292 $643 #
ellipse-curve $-1 57.504393187029542 -19.706440499996287 7.5241408862413515 0.71933980857756763 0 0.69465836192734942 0.17366459048183736 0 -0.17983495214439191 1 I I #
face $-1 $-1 $472 $64 $-1 $644 forward single #
loop $-1 $-1 $645 $293 #
plane-surface $-1 61.496017334513382 0 0 -1 0 0 0 0 1 forward_v I I I I #
coedge $-1 $646 $647 $648 $649 reversed $294 $-1 #
coedge $-1 $650 $296 $298 $470 forward $184 $-1 #
coedge $-1 $296 $650 $646 $651 forward $184 $-1 #
coedge $-1 $648 $299 $296 $467 forward $472 $-1 #
edge $-1 $474 0.098205462643049302 $652 6.8606597861371572 $466 $653 forward 7 unknown #
coedge $-1 $654 $655 $297 $469 forward $461 $-1 #
edge $-1 $656 -85.259909513263068 $473 -76.993013705090462 $468 $657 forward 7 unknown #
edge $-1 $474 111.49969723740362 $656 122.99203466902676 $298 $658 forward 7 unknown #
coedge $-1 $299 $648 $654 $659 forward $472 $-1 #
loop $-1 $-1 $648 $460 #
vertex $-1 $469 $660 #
vertex $-1 $300 $661 #
straight-curve $-1 32.26581933829938 -3.5776380870331526 11.657588790327651 -1 0 0 I I #
coedge $-1 $476 $476 $-1 $662 reversed $303 $-1 #
edge $-1 $663 0 $663 6.2831853071796004 $304 $664 forward 7 unknown #
vertex $-1 $307 $665 #
ellipse-curve $-1 57.504393187029542 -8.98760154582844 7.5241408862413515 0.71933980857756763 0 0.69465836192734942 0.17366459048183736 0 -0.17983495214439191 1 I I #
coedge $-1 $480 $480 $-1 $666 reversed $310 $-1 #
edge $-1 $667 0 $667 6.2831853071796004 $311 $668 forward 7 unknown #
vertex $-1 $314 $669 #
ellipse-curve $-1 57.504393187029542 -6.9588652487802065 7.5241408862413515 0.71933980857756763 0 0.69465836192734942 0.17366459048183736 0 -0.17983495214439191 1 I I #
coedge $-1 $484 $484 $-1 $670 reversed $317 $-1 #
edge $-1 $671 0 $671 6.2831853071796004 $318 $672 forward 7 unknown #
vertex $-1 $321 $673 #
ellipse-curve $-1 57.504393187029542 -4.9301289517319731 7.5241408862413515 0.71933980857756763 0 0.69465836192734942 0.17366459048183736 0 -0.17983495214439191 1 I I #
face $-1 $-1 $500 $68 $-1 $674 forward single #
loop $-1 $-1 $675 $322 #
plane-surface $-1 61.496017334513382 0 0 -1 0 0 0 0 1 forward_v I I I I #
coedge $-1 $676 $677 $678 $679 reversed $323 $-1 #
coedge $-1 $680 $325 $327 $498 forward $203 $-1 #
coedge $-1 $325 $680 $676 $681 forward $203 $-1 #
coedge $-1 $678 $328 $325 $495 forward $500 $-1 #
edge $-1 $502 -7.2899503114891093 $682 -0.52749598799500141 $494 $683 forward 7 unknown #
coedge $-1 $684 $685 $326 $497 forward $489 $-1 #
edge $-1 $686 -85.259909513263068 $501 -76.993013705090462 $496 $687 forward 7 unknown #
edge $-1 $502 111.49969723740362 $686 122.99203466902676 $327 $688 forward 7 unknown #
coedge $-1 $328 $678 $684 $689 forward $500 $-1 #
loop $-1 $-1 $678 $488 #
vertex $-1 $497 $690 #
vertex $-1 $329 $691 #
straight-curve $-1 32.26581933829938 11.198673461231165 11.657588790327651 -1 0 0 I I #
coedge $-1 $504 $504 $-1 $692 reversed $332 $-1 #
edge $-1 $693 0 $693 6.2831853071796004 $333 $694 forward 7 unknown #
vertex $-1 $336 $695 #
ellipse-curve $-1 57.504393187029542 5.7887100024358702 7.5241408862413515 0.71933980857756763 0 0.69465836192734942 0.17366459048183736 0 -0.17983495214439191 1 I I #
coedge $-1 $508 $508 $-1 $696 reversed $339 $-1 #
edge $-1 $697 0 $697 6.2831853071796004 $340 $698 forward 7 unknown #
vertex $-1 $343 $699 #
ellipse-curve $-1 57.504393187029542 7.8174462994841107 7.5241408862413515 0.71933980857756763 0 0.69465836192734942 0.17366459048183736 0 -0.17983495214439191 1 I I #
coedge $-1 $512 $512 $-1 $700 reversed $346 $-1 #
edge $-1 $701 0 $701 6.2831853071796004 $347 $702 forward 7 unknown #
vertex $-1 $350 $703 #
ellipse-curve $-1 57.504393187029542 9.8461825965323371 7.5241408862413515 0.71933980857756763 0 0.69465836192734942 0.17366459048183736 0 -0.17983495214439191 1 I I #
face $-1 $-1 $528 $72 $-1 $704 forward single #
loop $-1 $-1 $705 $351 #
plane-surface $-1 61.496017334513382 0 0 -1 0 0 0 0 1 forward_v I I I I #
coedge $-1 $706 $707 $708 $709 reversed $352 $-1 #
coedge $-1 $710 $354 $356 $526 forward $222 $-1 #
coedge $-1 $354 $710 $706 $711 forward $222 $-1 #
coedge $-1 $708 $357 $354 $523 forward $528 $-1 #
edge $-1 $530 -14.67810608562127 $712 -7.9156517621271583 $522 $713 forward 7 unknown #
coedge $-1 $714 $715 $355 $525 forward $517 $-1 #
edge $-1 $716 -85.259909513263068 $529 -76.993013705090462 $524 $717 forward 7 unknown #
edge $-1 $530 111.49969723740362 $716 122.99203466902676 $356 $718 forward 7 unknown #
coedge $-1 $357 $708 $714 $719 forward $528 $-1 #
loop $-1 $-1 $708 $516 #
vertex $-1 $525 $720 #
vertex $-1 $358 $721 #
straight-curve $-1 32.26581933829938 25.974985009495484 11.657588790327651 -1 0 0 I I #
coedge $-1 $532 $532 $-1 $722 reversed $361 $-1 #
edge $-1 $723 0 $723 6.2831853071796004 $362 $724 forward 7 unknown #
vertex $-1 $365 $725 #
ellipse-curve $-1 57.504393187029542 20.565021550700187 7.5241408862413515 0.71933980857756763 0 0.69465836192734942 0.17366459048183736 0 -0.17983495214439191 1 I I #
coedge $-1 $536 $536 $-1 $726 reversed $368 $-1 #
edge $-1 $727 0 $727 6.2831853071796004 $369 $728 forward 7 unknown #
vertex $-1 $372 $729 #
ellipse-curve $-1 57.504393187029542 22.593757847748428 7.5241408862413515 0.71933980857756763 0 0.69465836192734942 0.17366459048183736 0 -0.17983495214439191 1 I I #
coedge $-1 $540 $540 $-1 $730 reversed $375 $-1 #
edge $-1 $731 0 $731 6.2831853071796004 $376 $732 forward 7 unknown #
vertex $-1 $379 $733 #
ellipse-curve $-1 57.504393187029542 24.622494144796654 7.5241408862413515 0.71933980857756763 0 0.69465836192734942 0.17366459048183736 0 -0.17983495214439191 1 I I #
face $-1 $-1 $395 $57 $-1 $734 reversed single #
loop $-1 $-1 $560 $380 #
plane-surface $-1 0 40.194901970122579 0 0 -1 0 0 0 -1 forward_v I I I I #
coedge $-1 $735 $558 $561 $736 forward $381 $-1 #
coedge $-1 $564 $383 $384 $552 reversed $241 $-1 #
coedge $-1 $558 $735 $383 $550 reversed $381 $-1 #
edge $-1 $565 -11.657588790327646 $737 11.657588790327646 $549 $738 forward 7 unknown #
coedge $-1 $385 $384 $735 $739 forward $153 $-1 #
edge $-1 $556 -61.496017334513382 $737 61.496017334513382 $548 $740 forward 7 unknown #
coedge $-1 $561 $560 $385 $554 reversed $545 $-1 #
edge $-1 $741 -61.496017334513382 $555 61.496017334513382 $553 $742 forward 7 unknown #
vertex $-1 $387 $743 #
vertex $-1 $567 $744 #
straight-curve $-1 61.496017334513382 0 -11.657588790327646 0 -1 0 I I #
coedge $-1 $547 $549 $388 $559 reversed $381 $-1 #
edge $-1 $562 -40.194901970122579 $565 40.194901970122579 $558 $745 forward 7 unknown #
coedge $-1 $553 $389 $394 $568 forward $545 $-1 #
coedge $-1 $389 $553 $547 $736 reversed $545 $-1 #
vertex $-1 $390 $746 #
straight-curve $-1 0 40.194901970122579 11.657588790327646 -1 0 0 I I #
coedge $-1 $391 $548 $393 $567 reversed $241 $-1 #
vertex $-1 $559 $747 #
straight-curve $-1 0 -40.194901970122579 11.657588790327646 1 0 0 I I #
edge $-1 $396 -11.657588790327646 $556 11.657588790327646 $393 $748 forward 7 unknown #
edge $-1 $397 -11.657588790327646 $555 11.657588790327646 $394 $749 forward 7 unknown #
point $-1 61.496017334513382 -40.194901970122579 11.657588790327646 #
point $-1 61.496017334513382 40.194901970122579 11.657588790327646 #
face $-1 $-1 $581 $58 $-1 $750 reversed single #
loop $-1 $-1 $577 $399 #
plane-surface $-1 0 0 -11.657588790327646 0 0 1 1 0 0 forward_v I I I I #
coedge $-1 $751 $752 $407 $585 forward $400 $-1 #
coedge $-1 $402 $589 $579 $753 forward $249 $-1 #
edge $-1 $583 -22.758020703459778 $412 -12.115741829865826 $402 $754 forward 7 unknown #
coedge $-1 $755 $408 $403 $578 forward $572 $-1 #
edge $-1 $413 12.115741829865826 $582 22.758020703459778 $577 $756 forward 7 unknown #
coedge $-1 $757 $405 $575 $753 reversed $581 $-1 #
coedge $-1 $405 $757 $755 $758 reversed $581 $-1 #
loop $-1 $-1 $405 $571 #
vertex $-1 $758 $759 #
vertex $-1 $406 $760 #
straight-curve $-1 -58.496017334513382 -40.194901970122579 0 0 0 1 I I #
edge $-1 $590 -11.657588790327646 $587 11.657588790327646 $574 $761 forward 7 unknown #
coedge $-1 $408 $755 $751 $762 forward $572 $-1 #
vertex $-1 $409 $763 #
straight-curve $-1 -29.998008667256691 -29.552623096528627 -11.657588790327646 1 0 0 I I #
coedge $-1 $575 $410 $752 $764 forward $249 $-1 #
vertex $-1 $764 $765 #
straight-curve $-1 -29.998008667256691 -29.552623096528627 11.657588790327646 -1 0 0 I I #
point $-1 -58.496017334513382 -29.552623096528627 11.657588790327646 #
point $-1 -58.496017334513382 -29.552623096528627 -11.657588790327646 #
face $-1 $-1 $766 $59 $-1 $767 reversed single #
loop $-1 $-1 $600 $415 #
plane-surface $-1 0 0 11.657588790327646 0 0 1 1 0 0 forward_v I I I I #
coedge $-1 $418 $605 $768 $769 forward $257 $-1 #
edge $-1 $770 -22.758020703459781 $603 -12.115741829865829 $418 $771 forward 7 unknown #
coedge $-1 $420 $419 $772 $773 reversed $161 $-1 #
coedge $-1 $774 $425 $420 $601 forward $595 $-1 #
edge $-1 $602 12.115741829865829 $775 22.758020703459781 $600 $776 forward 7 unknown #
vertex $-1 $426 $777 #
vertex $-1 $424 $778 #
straight-curve $-1 -58.496017334513382 29.552623096528635 0 0 0 -1 I I #
coedge $-1 $597 $423 $428 $611 forward $257 $-1 #
straight-curve $-1 -29.998008667256691 29.552623096528635 -11.657588790327646 -1 0 0 I I #
coedge $-1 $425 $774 $427 $610 forward $595 $-1 #
straight-curve $-1 -29.998008667256691 29.552623096528635 11.657588790327646 1 0 0 I I #
coedge $-1 $428 $427 $779 $780 forward $416 $-1 #
edge $-1 $781 -40.194901970122579 $430 -29.552623096528635 $427 $782 forward 7 unknown #
edge $-1 $429 29.552623096528635 $783 40.194901970122579 $428 $784 forward 7 unknown #
point $-1 -61.496017334513382 29.552623096528635 -11.657588790327646 #
point $-1 -61.496017334513382 29.552623096528635 11.657588790327646 #
plane-surface $-1 0 0 11.657588790327646 0 0 1 1 0 0 forward_v I I I I #
coedge $-1 $625 $624 $617 $785 forward $433 $-1 #
coedge $-1 $617 $435 $437 $621 reversed $265 $-1 #
coedge $-1 $435 $616 $615 $785 reversed $265 $-1 #
coedge $-1 $443 $438 $435 $619 forward $444 $-1 #
edge $-1 $622 21.246949701246308 $786 29.230197996214002 $618 $787 forward 7 unknown #
coedge $-1 $437 $436 $625 $788 reversed $165 $-1 #
edge $-1 $789 -122.99203466902676 $622 -111.49969723740362 $616 $790 forward 7 unknown #
vertex $-1 $439 $791 #
straight-curve $-1 53.512769039545695 -10.867588398522262 11.657588790327644 0 -1 0 I I #
coedge $-1 $615 $440 $443 $629 reversed $433 $-1 #
coedge $-1 $440 $615 $620 $788 forward $433 $-1 #
vertex $-1 $441 $792 #
straight-curve $-1 61.496017334513382 -18.353949635297468 88.650602495418113 0 0 1 I I #
straight-curve $-1 -23.941427998784519 -18.353949635297468 91.863759657538324 0.69465836192734942 0 -0.71933980857756763 I I #
edge $-1 $786 -25.116403958791579 $445 -18.353949635297468 $624 $793 forward 7 unknown #
point $-1 61.496017334513382 -18.353949635297468 11.657588790327646 #
point $-1 53.512769039545688 -18.353949635297468 11.657588790327651 #
edge $-1 $794 1 $794 0 $448 $-1 forward 7 unknown #
vertex $-1 $449 $795 #
ellipse-curve $-1 56.78505337845197 -23.763913094092754 6.8294825243140025 0.71933980857756763 0 0.69465836192734942 0.17366459048183736 0 -0.17983495214439191 1 I I #
point $-1 57.678057777511377 -23.763913094092754 7.3443059340969592 #
edge $-1 $796 1 $796 0 $452 $-1 forward 7 unknown #
vertex $-1 $453 $797 #
ellipse-curve $-1 56.78505337845197 -21.73517679704452 6.8294825243140025 0.71933980857756763 0 0.69465836192734942 0.17366459048183736 0 -0.17983495214439191 1 I I #
point $-1 57.678057777511377 -21.73517679704452 7.3443059340969592 #
edge $-1 $798 1 $798 0 $456 $-1 forward 7 unknown #
vertex $-1 $457 $799 #
ellipse-curve $-1 56.78505337845197 -19.706440499996287 6.8294825243140025 0.71933980857756763 0 0.69465836192734942 0.17366459048183736 0 -0.17983495214439191 1 I I #
point $-1 57.678057777511377 -19.706440499996287 7.3443059340969592 #
plane-surface $-1 0 0 11.657588790327646 0 0 1 1 0 0 forward_v I I I I #
coedge $-1 $655 $654 $647 $800 forward $461 $-1 #
coedge $-1 $647 $463 $465 $651 reversed $294 $-1 #
coedge $-1 $463 $646 $645 $800 reversed $294 $-1 #
coedge $-1 $471 $466 $463 $649 forward $472 $-1 #
edge $-1 $652 21.246949701246308 $801 29.230197996214002 $648 $802 forward 7 unknown #
coedge $-1 $465 $464 $655 $803 reversed $184 $-1 #
edge $-1 $804 -122.99203466902676 $652 -111.49969723740362 $646 $805 forward 7 unknown #
vertex $-1 $467 $806 #
straight-curve $-1 53.512769039545695 -3.4794326243901033 11.657588790327644 0 -1 0 I I #
coedge $-1 $645 $468 $471 $659 reversed $461 $-1 #
coedge $-1 $468 $645 $650 $803 forward $461 $-1 #
vertex $-1 $469 $807 #
straight-curve $-1 61.496017334513382 -3.5776380870331526 88.650602495418113 0 0 1 I I #
straight-curve $-1 -23.941427998784519 -3.5776380870331526 91.863759657538324 0.69465836192734942 0 -0.71933980857756763 I I #
edge $-1 $801 -10.34009241052726 $473 -3.5776380870331526 $654 $808 forward 7 unknown #
point $-1 61.496017334513382 -3.5776380870331526 11.657588790327646 #
point $-1 53.512769039545688 -3.5776380870331526 11.657588790327651 #
edge $-1 $809 1 $809 0 $476 $-1 forward 7 unknown #
vertex $-1 $477 $810 #
ellipse-curve $-1 56.78505337845197 -8.98760154582844 6.8294825243140025 0.71933980857756763 0 0.69465836192734942 0.17366459048183736 0 -0.17983495214439191 1 I I #
point $-1 57.678057777511377 -8.98760154582844 7.3443059340969592 #
edge $-1 $811 1 $811 0 $480 $-1 forward 7 unknown #
vertex $-1 $481 $812 #
ellipse-curve $-1 56.78505337845197 -6.9588652487802065 6.8294825243140025 0.71933980857756763 0 0.69465836192734942 0.17366459048183736 0 -0.17983495214439191 1 I I #
point $-1 57.678057777511377 -6.9588652487802065 7.3443059340969592 #
edge $-1 $813 1 $813 0 $484 $-1 forward 7 unknown #
vertex $-1 $485 $814 #
ellipse-curve $-1 56.78505337845197 -4.9301289517319731 6.8294825243140025 0.71933980857756763 0 0.69465836192734942 0.17366459048183736 0 -0.17983495214439191 1 I I #
point $-1 57.678057777511377 -4.9301289517319731 7.3443059340969592 #
plane-surface $-1 0 0 11.657588790327646 0 0 1 1 0 0 forward_v I I I I #
coedge $-1 $685 $684 $677 $815 forward $489 $-1 #
coedge $-1 $677 $491 $493 $681 reversed $323 $-1 #
coedge $-1 $491 $676 $675 $815 reversed $323 $-1 #
coedge $-1 $499 $494 $491 $679 forward $500 $-1 #
edge $-1 $682 21.246949701246308 $816 29.230197996214002 $678 $817 forward 7 unknown #
coedge $-1 $493 $492 $685 $818 reversed $203 $-1 #
edge $-1 $819 -122.99203466902676 $682 -111.49969723740362 $676 $820 forward 7 unknown #
vertex $-1 $495 $821 #
straight-curve $-1 53.512769039545695 3.9087231497420554 11.657588790327644 0 -1 0 I I #
coedge $-1 $675 $496 $499 $689 reversed $489 $-1 #
coedge $-1 $496 $675 $680 $818 forward $489 $-1 #
vertex $-1 $497 $822 #
straight-curve $-1 61.496017334513382 11.198673461231165 88.650602495418113 0 0 1 I I #
straight-curve $-1 -23.941427998784519 11.198673461231165 91.863759657538324 0.69465836192734942 0 -0.71933980857756763 I I #
edge $-1 $816 4.4362191377370568 $501 11.198673461231165 $684 $823 forward 7 unknown #
point $-1 61.496017334513382 11.198673461231165 11.657588790327646 #
point $-1 53.512769039545688 11.198673461231165 11.657588790327651 #
edge $-1 $824 1 $824 0 $504 $-1 forward 7 unknown #
vertex $-1 $505 $825 #
ellipse-curve $-1 56.78505337845197 5.7887100024358702 6.8294825243140025 0.71933980857756763 0 0.69465836192734942 0.17366459048183736 0 -0.17983495214439191 1 I I #
point $-1 57.678057777511377 5.7887100024358702 7.3443059340969592 #
edge $-1 $826 1 $826 0 $508 $-1 forward 7 unknown #
vertex $-1 $509 $827 #
ellipse-curve $-1 56.78505337845197 7.8174462994841107 6.8294825243140025 0.71933980857756763 0 0.69465836192734942 0.17366459048183736 0 -0.17983495214439191 1 I I #
point $-1 57.678057777511377 7.8174462994841107 7.3443059340969592 #
edge $-1 $828 1 $828 0 $512 $-1 forward 7 unknown #
vertex $-1 $513 $829 #
ellipse-curve $-1 56.78505337845197 9.8461825965323371 6.8294825243140025 0.71933980857756763 0 0.69465836192734942 0.17366459048183736 0 -0.17983495214439191 1 I I #
point $-1 57.678057777511377 9.8461825965323371 7.3443059340969592 #
plane-surface $-1 0 0 11.657588790327646 0 0 1 1 0 0 forward_v I I I I #
coedge $-1 $715 $714 $707 $830 forward $517 $-1 #
coedge $-1 $707 $519 $521 $711 reversed $352 $-1 #
coedge $-1 $519 $706 $705 $830 reversed $352 $-1 #
coedge $-1 $527 $522 $519 $709 forward $528 $-1 #
edge $-1 $712 21.246949701246308 $831 29.230197996214002 $708 $832 forward 7 unknown #
coedge $-1 $521 $520 $715 $833 reversed $222 $-1 #
edge $-1 $834 -122.99203466902676 $712 -111.49969723740362 $706 $835 forward 7 unknown #
vertex $-1 $523 $836 #
straight-curve $-1 53.512769039545695 11.296878923874214 11.657588790327644 0 -1 0 I I #
coedge $-1 $705 $524 $527 $719 reversed $517 $-1 #
coedge $-1 $524 $705 $710 $833 forward $517 $-1 #
vertex $-1 $525 $837 #
straight-curve $-1 61.496017334513382 25.974985009495484 88.650602495418113 0 0 1 I I #
straight-curve $-1 -23.941427998784519 25.974985009495484 91.863759657538324 0.69465836192734942 0 -0.71933980857756763 I I #
edge $-1 $831 19.212530686001372 $529 25.974985009495484 $714 $838 forward 7 unknown #
point $-1 61.496017334513382 25.974985009495484 11.657588790327646 #
point $-1 53.512769039545688 25.974985009495484 11.657588790327651 #
edge $-1 $839 1 $839 0 $532 $-1 forward 7 unknown #
vertex $-1 $533 $840 #
ellipse-curve $-1 56.78505337845197 20.565021550700187 6.8294825243140025 0.71933980857756763 0 0.69465836192734942 0.17366459048183736 0 -0.17983495214439191 1 I I #
point $-1 57.678057777511377 20.565021550700187 7.3443059340969592 #
edge $-1 $841 1 $841 0 $536 $-1 forward 7 unknown #
vertex $-1 $537 $842 #
ellipse-curve $-1 56.78505337845197 22.593757847748428 6.8294825243140025 0.71933980857756763 0 0.69465836192734942 0.17366459048183736 0 -0.17983495214439191 1 I I #
point $-1 57.678057777511377 22.593757847748428 7.3443059340969592 #
edge $-1 $843 1 $843 0 $540 $-1 forward 7 unknown #
vertex $-1 $541 $844 #
ellipse-curve $-1 56.78505337845197 24.622494144796654 6.8294825243140025 0.71933980857756763 0 0.69465836192734942 0.17366459048183736 0 -0.17983495214439191 1 I I #
point $-1 57.678057777511377 24.622494144796654 7.3443059340969592 #
plane-surface $-1 61.496017334513382 0 0 -1 0 0 0 0 1 forward_v I I I I #
coedge $-1 $549 $547 $551 $739 reversed $381 $-1 #
edge $-1 $562 -11.657588790327646 $741 11.657588790327646 $561 $845 forward 7 unknown #
vertex $-1 $739 $846 #
straight-curve $-1 -61.496017334513382 -40.194901970122579 0 0 0 -1 I I #
edge $-1 $737 -40.194901970122579 $741 40.194901970122579 $735 $847 forward 7 unknown #
straight-curve $-1 0 -40.194901970122579 -11.657588790327646 -1 0 0 I I #
vertex $-1 $554 $848 #
straight-curve $-1 0 40.194901970122579 -11.657588790327646 1 0 0 I I #
point $-1 61.496017334513382 40.194901970122579 -11.657588790327646 #
point $-1 61.496017334513382 -40.194901970122579 -11.657588790327646 #
straight-curve $-1 -61.496017334513382 0 11.657588790327646 0 -1 0 I I #
point $-1 -61.496017334513382 40.194901970122579 11.657588790327646 #
point $-1 -61.496017334513382 -40.194901970122579 11.657588790327646 #
straight-curve $-1 61.496017334513382 -40.194901970122579 0 0 0 -1 I I #
straight-curve $-1 61.496017334513382 40.194901970122579 0 0 0 -1 I I #
plane-surface $-1 0 -40.194901970122579 0 0 1 0 0 0 1 forward_v I I I I #
coedge $-1 $849 $574 $586 $762 reversed $400 $-1 #
coedge $-1 $574 $849 $589 $764 reversed $400 $-1 #
edge $-1 $850 -61.496017334513382 $583 -58.496017334513382 $579 $851 forward 7 unknown #
straight-curve $-1 -58.496017334513382 -17.436881266662802 11.657588790327646 0 1 0 I I #
coedge $-1 $586 $577 $580 $758 forward $572 $-1 #
straight-curve $-1 -58.496017334513382 -17.436881266662802 -11.657588790327646 0 -1 0 I I #
coedge $-1 $580 $579 $849 $852 forward $581 $-1 #
edge $-1 $582 58.496017334513382 $853 61.496017334513382 $580 $854 forward 7 unknown #
point $-1 -58.496017334513382 -40.194901970122579 -11.657588790327646 #
point $-1 -58.496017334513382 -40.194901970122579 11.657588790327646 #
straight-curve $-1 -61.496017334513382 -29.552623096528627 0 0 0 -1 I I #
edge $-1 $853 -40.194901970122579 $587 -29.552623096528627 $751 $855 forward 7 unknown #
point $-1 -61.496017334513382 -29.552623096528627 -11.657588790327646 #
edge $-1 $590 29.552623096528627 $850 40.194901970122579 $752 $856 forward 7 unknown #
point $-1 -61.496017334513382 -29.552623096528627 11.657588790327646 #
loop $-1 $-1 $772 $594 #
plane-surface $-1 0 40.194901970122579 0 0 -1 0 0 0 -1 forward_v I I I I #
coedge $-1 $779 $772 $597 $769 reversed $766 $-1 #
edge $-1 $783 -61.496017334513382 $770 -58.496017334513382 $768 $857 forward 7 unknown #
vertex $-1 $598 $858 #
straight-curve $-1 -58.496017334513382 17.436881266662805 -11.657588790327646 0 -1 0 I I #
coedge $-1 $768 $859 $599 $773 forward $766 $-1 #
edge $-1 $775 -11.657588790327646 $770 11.657588790327646 $772 $860 forward 7 unknown #
coedge $-1 $607 $600 $859 $861 forward $595 $-1 #
vertex $-1 $861 $862 #
straight-curve $-1 -58.496017334513382 17.436881266662805 11.657588790327646 0 1 0 I I #
point $-1 -58.496017334513382 29.552623096528635 11.657588790327646 #
point $-1 -58.496017334513382 29.552623096528635 -11.657588790327646 #
coedge $-1 $859 $768 $609 $780 reversed $766 $-1 #
edge $-1 $781 -11.657588790327646 $783 11.657588790327646 $779 $863 forward 7 unknown #
vertex $-1 $861 $864 #
straight-curve $-1 -61.496017334513382 0 11.657588790327646 0 -1 0 I I #
vertex $-1 $769 $865 #
straight-curve $-1 -61.496017334513382 0 -11.657588790327646 0 1 0 I I #
edge $-1 $786 76.993013705090462 $789 85.259909513263068 $615 $866 forward 7 unknown #
vertex $-1 $629 $867 #
straight-curve $-1 32.26581933829938 -25.116403958791579 11.657588790327651 1 0 0 I I #
edge $-1 $789 -14.248815560269318 $626 -7.4863612367752062 $625 $868 forward 7 unknown #
vertex $-1 $788 $869 #
straight-curve $-1 -23.941427998784519 -25.116403958791579 91.863759657538324 -0.69465836192734942 0 0.71933980857756763 I I #
point $-1 53.512769039545688 -25.116403958791579 11.657588790327651 #
point $-1 61.496017334513382 -18.353949635297468 3.3906929821550449 #
straight-curve $-1 61.496017334513382 0 11.657588790327646 0 1 0 I I #
vertex $-1 $632 $870 #
point $-1 56.958717968933811 -23.763913094092754 6.6496475721696102 #
vertex $-1 $636 $871 #
point $-1 56.958717968933811 -21.73517679704452 6.6496475721696102 #
vertex $-1 $640 $872 #
point $-1 56.958717968933811 -19.706440499996287 6.6496475721696102 #
edge $-1 $801 76.993013705090462 $804 85.259909513263068 $645 $873 forward 7 unknown #
vertex $-1 $659 $874 #
straight-curve $-1 32.26581933829938 -10.34009241052726 11.657588790327651 1 0 0 I I #
edge $-1 $804 -6.8606597861371572 $656 -0.098205462643049302 $655 $875 forward 7 unknown #
vertex $-1 $803 $876 #
straight-curve $-1 -23.941427998784519 -10.34009241052726 91.863759657538324 -0.69465836192734942 0 0.71933980857756763 I I #
point $-1 53.512769039545688 -10.34009241052726 11.657588790327651 #
point $-1 61.496017334513382 -3.5776380870331526 3.3906929821550449 #
straight-curve $-1 61.496017334513382 0 11.657588790327646 0 1 0 I I #
vertex $-1 $662 $877 #
point $-1 56.958717968933811 -8.98760154582844 6.6496475721696102 #
vertex $-1 $666 $878 #
point $-1 56.958717968933811 -6.9588652487802065 6.6496475721696102 #
vertex $-1 $670 $879 #
point $-1 56.958717968933811 -4.9301289517319731 6.6496475721696102 #
edge $-1 $816 76.993013705090462 $819 85.259909513263068 $675 $880 forward 7 unknown #
vertex $-1 $689 $881 #
straight-curve $-1 32.26581933829938 4.4362191377370568 11.657588790327651 1 0 0 I I #
edge $-1 $819 0.52749598799500141 $686 7.2899503114891093 $685 $882 forward 7 unknown #
vertex $-1 $818 $883 #
straight-curve $-1 -23.941427998784519 4.4362191377370568 91.863759657538324 -0.69465836192734942 0 0.71933980857756763 I I #
point $-1 53.512769039545688 4.4362191377370568 11.657588790327651 #
point $-1 61.496017334513382 11.198673461231165 3.3906929821550449 #
straight-curve $-1 61.496017334513382 0 11.657588790327646 0 1 0 I I #
vertex $-1 $692 $884 #
point $-1 56.958717968933811 5.7887100024358702 6.6496475721696102 #
vertex $-1 $696 $885 #
point $-1 56.958717968933811 7.8174462994841107 6.6496475721696102 #
vertex $-1 $700 $886 #
point $-1 56.958717968933811 9.8461825965323371 6.6496475721696102 #
edge $-1 $831 76.993013705090462 $834 85.259909513263068 $705 $887 forward 7 unknown #
vertex $-1 $719 $888 #
straight-curve $-1 32.26581933829938 19.212530686001372 11.657588790327651 1 0 0 I I #
edge $-1 $834 7.9156517621271583 $716 14.67810608562127 $715 $889 forward 7 unknown #
vertex $-1 $833 $890 #
straight-curve $-1 -23.941427998784519 19.212530686001372 91.863759657538324 -0.69465836192734942 0 0.71933980857756763 I I #
point $-1 53.512769039545688 19.212530686001372 11.657588790327651 #
point $-1 61.496017334513382 25.974985009495484 3.3906929821550449 #
straight-curve $-1 61.496017334513382 0 11.657588790327646 0 1 0 I I #
vertex $-1 $722 $891 #
point $-1 56.958717968933811 20.565021550700187 6.6496475721696102 #
vertex $-1 $726 $892 #
point $-1 56.958717968933811 22.593757847748428 6.6496475721696102 #
vertex $-1 $730 $893 #
point $-1 56.958717968933811 24.622494144796654 6.6496475721696102 #
straight-curve $-1 -61.496017334513382 40.194901970122579 0 0 0 -1 I I #
point $-1 -61.496017334513382 -40.194901970122579 -11.657588790327646 #
straight-curve $-1 -61.496017334513382 0 -11.657588790327646 0 1 0 I I #
point $-1 -61.496017334513382 40.194901970122579 -11.657588790327646 #
coedge $-1 $752 $751 $757 $852 reversed $400 $-1 #
vertex $-1 $764 $894 #
straight-curve $-1 0 -40.194901970122579 11.657588790327646 1 0 0 I I #
edge $-1 $850 -11.657588790327646 $853 11.657588790327646 $849 $895 forward 7 unknown #
vertex $-1 $762 $896 #
straight-curve $-1 0 -40.194901970122579 -11.657588790327646 -1 0 0 I I #
straight-curve $-1 -61.496017334513382 0 -11.657588790327646 0 1 0 I I #
straight-curve $-1 -61.496017334513382 0 11.657588790327646 0 -1 0 I I #
straight-curve $-1 0 40.194901970122579 -11.657588790327646 1 0 0 I I #
point $-1 -58.496017334513382 40.194901970122586 -11.657588790327646 #
coedge $-1 $772 $779 $774 $861 reversed $766 $-1 #
straight-curve $-1 -58.496017334513382 40.194901970122579 0 0 0 -1 I I #
edge $-1 $775 58.496017334513382 $781 61.496017334513382 $859 $897 forward 7 unknown #
point $-1 -58.496017334513382 40.194901970122586 11.657588790327646 #
straight-curve $-1 -61.496017334513382 40.194901970122579 0 0 0 -1 I I #
point $-1 -61.496017334513382 40.194901970122579 11.657588790327646 #
point $-1 -61.496017334513382 40.194901970122579 -11.657588790327646 #
straight-curve $-1 61.496017334513382 -25.116403958791579 88.650602495418113 0 0 -1 I I #
point $-1 61.496017334513382 -25.116403958791579 11.657588790327646 #
straight-curve $-1 61.496017334513382 -10.867588398522262 3.3906929821550449 0 1 0 I I #
point $-1 61.496017334513382 -25.116403958791579 3.3906929821550449 #
point $-1 56.60521842630758 -23.763913094092754 6.6558179338321644 #
point $-1 56.60521842630758 -21.73517679704452 6.6558179338321644 #
point $-1 56.60521842630758 -19.706440499996287 6.6558179338321644 #
straight-curve $-1 61.496017334513382 -10.34009241052726 88.650602495418113 0 0 -1 I I #
point $-1 61.496017334513382 -10.34009241052726 11.657588790327646 #
straight-curve $-1 61.496017334513382 -3.4794326243901033 3.3906929821550449 0 1 0 I I #
point $-1 61.496017334513382 -10.34009241052726 3.3906929821550449 #
point $-1 56.60521842630758 -8.98760154582844 6.6558179338321644 #
point $-1 56.60521842630758 -6.9588652487802065 6.6558179338321644 #
point $-1 56.60521842630758 -4.9301289517319731 6.6558179338321644 #
straight-curve $-1 61.496017334513382 4.4362191377370568 88.650602495418113 0 0 -1 I I #
point $-1 61.496017334513382 4.4362191377370568 11.657588790327646 #
straight-curve $-1 61.496017334513382 3.9087231497420554 3.3906929821550449 0 1 0 I I #
point $-1 61.496017334513382 4.4362191377370568 3.3906929821550449 #
point $-1 56.60521842630758 5.7887100024358702 6.6558179338321644 #
point $-1 56.60521842630758 7.8174462994841107 6.6558179338321644 #
point $-1 56.60521842630758 9.8461825965323371 6.6558179338321644 #
straight-curve $-1 61.496017334513382 19.212530686001372 88.650602495418113 0 0 -1 I I #
point $-1 61.496017334513382 19.212530686001372 11.657588790327646 #
straight-curve $-1 61.496017334513382 11.296878923874214 3.3906929821550449 0 1 0 I I #
point $-1 61.496017334513382 19.212530686001372 3.3906929821550449 #
point $-1 56.60521842630758 20.565021550700187 6.6558179338321644 #
point $-1 56.60521842630758 22.593757847748428 6.6558179338321644 #
point $-1 56.60521842630758 24.622494144796654 6.6558179338321644 #
point $-1 -61.496017334513382 -40.194901970122579 11.657588790327646 #
straight-curve $-1 -61.496017334513382 -40.194901970122579 0 0 0 -1 I I #
point $-1 -61.496017334513382 -40.194901970122579 -11.657588790327646 #
straight-curve $-1 0 40.194901970122579 11.657588790327646 -1 0 0 I I #
End-of-ACIS-data 