500 0 10 0           
7 Unknown 11 ACIS 5.0 NT 24 Thu Mar 25 16:07:06 1999 
-1 9.9999999999999995e-007 1e-010 
body $-1 $10 $-1 $11 #
body $-1 $12 $-1 $13 #
body $-1 $14 $-1 $15 #
body $-1 $16 $-1 $17 #
body $-1 $18 $-1 $19 #
body $-1 $20 $-1 $21 #
body $-1 $22 $-1 $23 #
body $-1 $24 $-1 $25 #
body $-1 $26 $-1 $27 #
body $-1 $28 $-1 $29 #
lump $-1 $-1 $30 $0 #
transform $-1 1 0 0 0 1 0 0 0 1 43.687856685079502 28.760761220461298 10.311812951146683 1 rotate no_reflect no_shear #
lump $-1 $-1 $31 $1 #
transform $-1 1 0 0 0 1 0 0 0 1 43.687856685079502 28.760761220461298 10.311812951146683 1 rotate no_reflect no_shear #
lump $-1 $-1 $32 $2 #
transform $-1 1 0 0 0 1 0 0 0 1 43.687856685079502 28.760761220461298 10.311812951146683 1 rotate no_reflect no_shear #
lump $-1 $-1 $33 $3 #
transform $-1 1 0 0 0 1 0 0 0 1 43.687856685079502 28.760761220461298 10.311812951146683 1 rotate no_reflect no_shear #
lump $-1 $-1 $34 $4 #
transform $-1 1 0 0 0 1 0 0 0 1 43.687856685079502 28.760761220461298 10.311812951146683 1 rotate no_reflect no_shear #
lump $-1 $-1 $35 $5 #
transform $-1 1 0 0 0 1 0 0 0 1 43.687856685079502 28.760761220461298 10.311812951146683 1 rotate no_reflect no_shear #
lump $-1 $-1 $36 $6 #
transform $-1 1 0 0 0 1 0 0 0 1 43.687856685079502 28.760761220461298 10.311812951146683 1 rotate no_reflect no_shear #
lump $-1 $-1 $37 $7 #
transform $-1 1 0 0 0 1 0 0 0 1 43.687856685079502 28.760761220461298 10.311812951146683 1 rotate no_reflect no_shear #
lump $-1 $-1 $38 $8 #
transform $-1 1 0 0 0 1 0 0 0 1 43.687856685079502 28.760761220461298 10.311812951146683 1 rotate no_reflect no_shear #
lump $-1 $-1 $39 $9 #
transform $-1 1 0 0 0 1 0 0 0 1 43.687856685079502 28.760761220461298 10.311812951146683 1 rotate no_reflect no_shear #
shell $-1 $-1 $-1 $40 $-1 $10 #
shell $-1 $-1 $-1 $41 $-1 $12 #
shell $-1 $-1 $-1 $42 $-1 $14 #
shell $-1 $-1 $-1 $43 $-1 $16 #
shell $-1 $-1 $-1 $44 $-1 $18 #
shell $-1 $-1 $-1 $45 $-1 $20 #
shell $-1 $-1 $-1 $46 $-1 $22 #
shell $-1 $-1 $-1 $47 $-1 $24 #
shell $-1 $-1 $-1 $48 $-1 $26 #
shell $-1 $-1 $-1 $49 $-1 $28 #
face $-1 $50 $51 $30 $-1 $52 forward single #
face $-1 $53 $54 $31 $-1 $55 forward single #
face $-1 $56 $57 $32 $-1 $58 reversed single #
face $-1 $59 $60 $33 $-1 $61 forward single #
face $-1 $62 $63 $34 $-1 $64 reversed single #
face $-1 $65 $66 $35 $-1 $67 forward single #
face $-1 $68 $69 $36 $-1 $70 forward single #
face $-1 $71 $72 $37 $-1 $73 reversed single #
face $-1 $74 $75 $38 $-1 $76 forward single #
face $-1 $77 $78 $39 $-1 $79 forward single #
face $-1 $80 $81 $30 $-1 $82 reversed single #
loop $-1 $-1 $83 $40 #
plane-surface $-1 0 0 10.311812951146683 0 0 1 1 0 0 forward_v I I I I #
face $-1 $84 $85 $31 $-1 $86 reversed single #
loop $-1 $-1 $87 $41 #
plane-surface $-1 0 -24.689475444196912 -5.258278763332612 0 0 1 1 0 0 forward_v I I I I #
face $-1 $88 $89 $32 $-1 $90 reversed single #
loop $-1 $-1 $91 $42 #
plane-surface $-1 15.891124045564624 -8.2077678184204999 127.13563968881364 0 -1 0 -0.52991927123019833 0 -0.84804809178421925 forward_v I I I I #
face $-1 $92 $93 $33 $-1 $94 forward single #
loop $-1 $95 $96 $43 #
cone-surface $-1 40.28350151775264 -13.00899598661529 7.6557231586563343 -0.52991927123019833 0 -0.84804809178421925 0.84804809178421925 0 -0.52991927123019833 1 I I 0 1 1 forward I I I I #
face $-1 $97 $98 $34 $-1 $99 reversed single #
loop $-1 $-1 $100 $44 #
plane-surface $-1 -96.271874315573882 -7.5109933756131895 71.730970305568675 0 1 0 -0.6018150307709319 0 0.79863550430605224 forward_v I I I I #
face $-1 $101 $102 $35 $-1 $103 forward single #
loop $-1 $104 $105 $45 #
cone-surface $-1 -37.693923134720762 -5.2631133627985562 5.5396079834593781 0.6018150307709319 0 -0.79863550430605224 0.79863550430605224 0 0.6018150307709319 1 I I 0 1 1 forward I I I I #
face $-1 $106 $107 $36 $-1 $108 forward single #
loop $-1 $109 $110 $46 #
cone-surface $-1 -37.693923134720762 -1.8912933435766099 5.5396079834593781 0.6018150307709319 0 -0.79863550430605224 0.79863550430605224 0 0.6018150307709319 1 I I 0 1 1 forward I I I I #
face $-1 $111 $112 $37 $-1 $113 reversed single #
loop $-1 $-1 $114 $47 #
plane-surface $-1 -96.271874315573882 7.7859848832907517 71.730970305568675 0 1 0 -0.6018150307709319 0 0.79863550430605224 forward_v I I I I #
face $-1 $115 $116 $38 $-1 $117 forward single #
loop $-1 $118 $119 $48 #
cone-surface $-1 -37.693923134720762 10.033864896105378 5.5396079834593781 0.6018150307709319 0 -0.79863550430605224 0.79863550430605224 0 0.6018150307709319 1 I I 0 1 1 forward I I I I #
face $-1 $120 $121 $39 $-1 $122 forward single #
loop $-1 $123 $124 $49 #
cone-surface $-1 -37.693923134720762 13.405684915327328 5.5396079834593781 0.6018150307709319 0 -0.79863550430605224 0.79863550430605224 0 0.6018150307709319 1 I I 0 1 1 forward I I I I #
face $-1 $125 $126 $30 $-1 $127 reversed single #
loop $-1 $-1 $128 $50 #
plane-surface $-1 0 0 -10.311812951146683 0 0 1 1 0 0 forward_v I I I I #
coedge $-1 $129 $130 $131 $132 forward $51 $-1 #
face $-1 $133 $134 $31 $-1 $135 reversed single #
loop $-1 $-1 $136 $53 #
plane-surface $-1 0 -20.618189667932526 -7.7850458572396475 0 -1 0 0 0 -1 forward_v I I I I #
coedge $-1 $137 $138 $139 $140 reversed $54 $-1 #
face $-1 $141 $142 $32 $-1 $143 reversed single #
loop $-1 $-1 $144 $56 #
plane-surface $-1 -30.410950306768733 -13.008995986615291 53.036832696965405 0.52991927123019833 0 0.84804809178421925 0.84804809178421925 0 -0.52991927123019833 forward_v I I I I #
coedge $-1 $145 $146 $147 $148 reversed $57 $-1 #
face $-1 $-1 $149 $33 $-1 $150 forward single #
loop $-1 $151 $152 $59 #
cone-surface $-1 39.476428661796724 -13.00899598661529 6.3641366235311896 -0.52991927123019833 0 -0.84804809178421925 0.42402404589210962 0 -0.26495963561509916 1 I I -0.70710678118654746 0.70710678118654746 0.5 forward I I I I #
loop $-1 $-1 $153 $43 #
coedge $-1 $96 $96 $154 $155 reversed $60 $-1 #
face $-1 $156 $157 $34 $-1 $158 reversed single #
loop $-1 $-1 $159 $62 #
plane-surface $-1 -43.687856685079517 -3.5772033531875849 1.9496233940906649 -0.6018150307709319 0 0.79863550430605224 0.79863550430605224 0 0.6018150307709319 forward_v I I I I #
coedge $-1 $160 $161 $162 $163 reversed $63 $-1 #
face $-1 $-1 $164 $35 $-1 $165 forward single #
loop $-1 $166 $167 $65 #
cone-surface $-1 -36.947582133396025 -5.2631133627985562 4.549180042147059 0.6018150307709319 0 -0.79863550430605224 0.39931775215302612 0 0.30090751538546595 1 I I -0.70710678118654746 0.70710678118654746 0.5 forward I I I I #
loop $-1 $-1 $168 $45 #
coedge $-1 $105 $105 $169 $170 reversed $66 $-1 #
face $-1 $-1 $171 $36 $-1 $172 forward single #
loop $-1 $173 $174 $68 #
cone-surface $-1 -36.947582133396025 -1.8912933435766099 4.549180042147059 0.6018150307709319 0 -0.79863550430605224 0.39931775215302612 0 0.30090751538546595 1 I I -0.70710678118654746 0.70710678118654746 0.5 forward I I I I #
loop $-1 $-1 $175 $46 #
coedge $-1 $110 $110 $176 $177 reversed $69 $-1 #
face $-1 $178 $179 $37 $-1 $180 reversed single #
loop $-1 $-1 $181 $71 #
plane-surface $-1 -43.687856685079517 11.719774905716356 1.9496233940906649 -0.6018150307709319 0 0.79863550430605224 0.79863550430605224 0 0.6018150307709319 forward_v I I I I #
coedge $-1 $182 $183 $184 $185 reversed $72 $-1 #
face $-1 $-1 $186 $38 $-1 $187 forward single #
loop $-1 $188 $189 $74 #
cone-surface $-1 -36.947582133396025 10.033864896105378 4.549180042147059 0.6018150307709319 0 -0.79863550430605224 0.39931775215302612 0 0.30090751538546595 1 I I -0.70710678118654746 0.70710678118654746 0.5 forward I I I I #
loop $-1 $-1 $190 $48 #
coedge $-1 $119 $119 $191 $192 reversed $75 $-1 #
face $-1 $-1 $193 $39 $-1 $194 forward single #
loop $-1 $195 $196 $77 #
cone-surface $-1 -36.947582133396025 13.405684915327328 4.549180042147059 0.6018150307709319 0 -0.79863550430605224 0.39931775215302612 0 0.30090751538546595 1 I I -0.70710678118654746 0.70710678118654746 0.5 forward I I I I #
loop $-1 $-1 $197 $49 #
coedge $-1 $124 $124 $198 $199 reversed $78 $-1 #
face $-1 $200 $201 $30 $-1 $202 reversed single #
loop $-1 $-1 $203 $80 #
plane-surface $-1 0 -28.760761220461298 0 0 1 0 0 0 1 forward_v I I I I #
coedge $-1 $204 $205 $206 $207 forward $81 $-1 #
coedge $-1 $208 $83 $209 $210 forward $51 $-1 #
coedge $-1 $83 $208 $211 $212 forward $51 $-1 #
coedge $-1 $213 $214 $83 $132 reversed $215 $-1 #
edge $-1 $216 -28.760761220461298 $217 28.760761220461298 $131 $218 forward 7 unknown #
face $-1 $219 $220 $31 $-1 $221 reversed single #
loop $-1 $-1 $222 $84 #
plane-surface $-1 0 0 -10.311812951146683 0 0 1 1 0 0 forward_v I I I I #
coedge $-1 $223 $224 $225 $226 reversed $85 $-1 #
coedge $-1 $227 $87 $224 $228 forward $54 $-1 #
coedge $-1 $87 $227 $229 $230 reversed $54 $-1 #
coedge $-1 $231 $225 $87 $140 forward $220 $-1 #
edge $-1 $232 8.2734519458340703 $233 16.41602349836284 $139 $234 forward 7 unknown #
face $-1 $235 $236 $32 $-1 $237 reversed single #
loop $-1 $-1 $238 $88 #
plane-surface $-1 15.891124045564624 -17.810224154810083 127.13563968881364 0 1 0 0.52991927123019833 0 0.84804809178421925 forward_v I I I I #
coedge $-1 $239 $240 $241 $242 reversed $89 $-1 #
coedge $-1 $146 $91 $243 $244 reversed $57 $-1 #
coedge $-1 $91 $145 $239 $245 reversed $57 $-1 #
coedge $-1 $241 $246 $91 $148 forward $247 $-1 #
edge $-1 $248 -35.742294662297191 $249 -30.017810768325127 $147 $250 forward 7 unknown #
loop $-1 $-1 $154 $92 #
plane-surface $-1 -30.410950306768733 -13.008995986615291 53.036832696965405 0.52991927123019833 0 0.84804809178421925 0.84804809178421925 0 -0.52991927123019833 forward_v I I I I #
loop $-1 $-1 $251 $59 #
coedge $-1 $152 $152 $153 $252 reversed $93 $-1 #
coedge $-1 $153 $153 $152 $252 forward $95 $-1 #
coedge $-1 $154 $154 $96 $155 forward $149 $-1 #
edge $-1 $253 0 $253 6.2831853071796004 $154 $254 forward 7 unknown #
face $-1 $255 $256 $34 $-1 $257 forward single #
loop $-1 $-1 $258 $97 #
plane-surface $-1 -96.271874315573882 0.35658666923801974 71.730970305568675 0 -1 0 0.6018150307709319 0 -0.79863550430605224 forward_v I I I I #
coedge $-1 $259 $260 $261 $262 reversed $98 $-1 #
coedge $-1 $161 $100 $263 $264 reversed $63 $-1 #
coedge $-1 $100 $160 $259 $265 reversed $63 $-1 #
coedge $-1 $261 $266 $100 $163 forward $256 $-1 #
edge $-1 $267 4.4480804727074386 $268 15.54508060154636 $162 $269 forward 7 unknown #
loop $-1 $-1 $169 $101 #
plane-surface $-1 -43.687856685079517 -3.5772033531875849 1.9496233940906649 -0.6018150307709319 0 0.79863550430605224 0.79863550430605224 0 0.6018150307709319 forward_v I I I I #
loop $-1 $-1 $270 $65 #
coedge $-1 $167 $167 $168 $271 reversed $102 $-1 #
coedge $-1 $168 $168 $167 $271 forward $104 $-1 #
coedge $-1 $169 $169 $105 $170 forward $164 $-1 #
edge $-1 $272 0 $272 6.2831853071796004 $169 $273 forward 7 unknown #
loop $-1 $-1 $176 $106 #
plane-surface $-1 -43.687856685079517 -3.5772033531875849 1.9496233940906649 -0.6018150307709319 0 0.79863550430605224 0.79863550430605224 0 0.6018150307709319 forward_v I I I I #
loop $-1 $-1 $274 $68 #
coedge $-1 $174 $174 $175 $275 reversed $107 $-1 #
coedge $-1 $175 $175 $174 $275 forward $109 $-1 #
coedge $-1 $176 $176 $110 $177 forward $171 $-1 #
edge $-1 $276 0 $276 6.2831853071796004 $176 $277 forward 7 unknown #
face $-1 $278 $279 $37 $-1 $280 forward single #
loop $-1 $-1 $281 $111 #
plane-surface $-1 -96.271874315573882 15.653564928141961 71.730970305568675 0 -1 0 0.6018150307709319 0 -0.79863550430605224 forward_v I I I I #
coedge $-1 $282 $283 $284 $285 reversed $112 $-1 #
coedge $-1 $183 $114 $286 $287 reversed $72 $-1 #
coedge $-1 $114 $182 $282 $288 reversed $72 $-1 #
coedge $-1 $284 $289 $114 $185 forward $279 $-1 #
edge $-1 $290 4.4480804727074386 $291 15.54508060154636 $184 $292 forward 7 unknown #
loop $-1 $-1 $191 $115 #
plane-surface $-1 -43.687856685079517 11.719774905716356 1.9496233940906649 -0.6018150307709319 0 0.79863550430605224 0.79863550430605224 0 0.6018150307709319 forward_v I I I I #
loop $-1 $-1 $293 $74 #
coedge $-1 $189 $189 $190 $294 reversed $116 $-1 #
coedge $-1 $190 $190 $189 $294 forward $118 $-1 #
coedge $-1 $191 $191 $119 $192 forward $186 $-1 #
edge $-1 $295 0 $295 6.2831853071796004 $191 $296 forward 7 unknown #
loop $-1 $-1 $198 $120 #
plane-surface $-1 -43.687856685079517 11.719774905716356 1.9496233940906649 -0.6018150307709319 0 0.79863550430605224 0.79863550430605224 0 0.6018150307709319 forward_v I I I I #
loop $-1 $-1 $297 $77 #
coedge $-1 $196 $196 $197 $298 reversed $121 $-1 #
coedge $-1 $197 $197 $196 $298 forward $123 $-1 #
coedge $-1 $198 $198 $124 $199 forward $193 $-1 #
edge $-1 $299 0 $299 6.2831853071796004 $198 $300 forward 7 unknown #
face $-1 $301 $302 $30 $-1 $303 reversed single #
loop $-1 $-1 $304 $125 #
plane-surface $-1 -43.687856685079502 0 0 1 0 0 0 0 -1 forward_v I I I I #
coedge $-1 $305 $211 $306 $307 forward $126 $-1 #
coedge $-1 $308 $128 $305 $309 forward $81 $-1 #
coedge $-1 $128 $308 $310 $311 forward $81 $-1 #
coedge $-1 $214 $213 $128 $207 reversed $215 $-1 #
edge $-1 $312 -28.760761220461298 $313 28.760761220461298 $206 $314 forward 7 unknown #
coedge $-1 $130 $129 $315 $316 forward $51 $-1 #
coedge $-1 $317 $318 $129 $210 reversed $302 $-1 #
edge $-1 $217 -43.687856685079502 $319 43.687856685079502 $209 $320 forward 7 unknown #
coedge $-1 $203 $321 $130 $212 reversed $126 $-1 #
edge $-1 $322 -43.687856685079502 $216 43.687856685079502 $211 $323 forward 7 unknown #
coedge $-1 $206 $131 $321 $324 forward $215 $-1 #
coedge $-1 $131 $206 $317 $325 reversed $215 $-1 #
loop $-1 $-1 $213 $301 #
vertex $-1 $132 $326 #
vertex $-1 $132 $327 #
straight-curve $-1 43.687856685079502 0 10.311812951146683 0 1 0 I I #
face $-1 $328 $329 $31 $-1 $330 reversed single #
loop $-1 $-1 $225 $133 #
plane-surface $-1 43.687856685079502 0 0 -1 0 0 0 0 1 forward_v I I I I #
coedge $-1 $331 $332 $223 $333 forward $134 $-1 #
coedge $-1 $334 $136 $222 $333 reversed $85 $-1 #
coedge $-1 $136 $334 $137 $228 reversed $85 $-1 #
coedge $-1 $139 $335 $136 $226 forward $220 $-1 #
edge $-1 $336 -6.4192900225268588 $232 -1.3657558347127883 $225 $337 forward 7 unknown #
coedge $-1 $138 $137 $338 $339 reversed $54 $-1 #
edge $-1 $232 -43.687856685079502 $340 43.687856685079502 $224 $341 forward 7 unknown #
coedge $-1 $342 $343 $138 $230 forward $329 $-1 #
edge $-1 $233 -43.687856685079502 $344 43.687856685079502 $229 $345 forward 7 unknown #
coedge $-1 $335 $139 $343 $346 forward $220 $-1 #
vertex $-1 $140 $347 #
vertex $-1 $346 $348 #
straight-curve $-1 43.687856685079502 -12.344737722098456 -5.258278763332612 0 -1 0 I I #
face $-1 $-1 $247 $32 $-1 $349 forward single #
loop $-1 $-1 $350 $141 #
plane-surface $-1 43.687856685079502 0 0 -1 0 0 0 0 1 forward_v I I I I #
coedge $-1 $351 $352 $353 $354 reversed $142 $-1 #
coedge $-1 $355 $144 $146 $245 forward $89 $-1 #
coedge $-1 $144 $355 $351 $356 forward $89 $-1 #
coedge $-1 $353 $147 $144 $242 forward $247 $-1 #
edge $-1 $249 1.7032698251128542 $357 11.305726161502438 $241 $358 forward 7 unknown #
coedge $-1 $359 $360 $145 $244 forward $236 $-1 #
edge $-1 $361 -56.833061499774772 $248 -53.256006893260135 $243 $362 forward 7 unknown #
edge $-1 $249 80.625525557191651 $361 87.375713370159019 $146 $363 forward 7 unknown #
coedge $-1 $147 $353 $359 $364 forward $247 $-1 #
loop $-1 $-1 $353 $235 #
vertex $-1 $244 $365 #
vertex $-1 $148 $366 #
straight-curve $-1 7.9455620227823118 -8.2077678184204999 10.311812951146685 -1 0 0 I I #
coedge $-1 $251 $251 $-1 $367 reversed $151 $-1 #
edge $-1 $368 0 $368 6.2831853071796004 $152 $369 forward 7 unknown #
vertex $-1 $155 $370 #
ellipse-curve $-1 40.825614738093456 -13.00899598661529 8.5232856478893737 0.52991927123019833 0 0.84804809178421925 0.84804809178421925 0 -0.52991927123019833 1 I I #
face $-1 $-1 $371 $34 $-1 $372 reversed single #
loop $-1 $-1 $162 $156 #
plane-surface $-1 0 0 10.311812951146683 0 0 1 1 0 0 forward_v I I I I #
coedge $-1 $373 $374 $375 $376 reversed $157 $-1 #
coedge $-1 $377 $159 $161 $265 forward $98 $-1 #
coedge $-1 $159 $377 $373 $378 forward $98 $-1 #
coedge $-1 $375 $162 $159 $262 forward $256 $-1 #
edge $-1 $268 -5.722391699019397 $379 2.1451883458318122 $261 $380 forward 7 unknown #
coedge $-1 $381 $382 $160 $264 forward $371 $-1 #
edge $-1 $383 -33.915861758693666 $267 -25.553672201637653 $263 $384 forward 7 unknown #
edge $-1 $268 -13.894949659771644 $383 -1.7763522597878294e-014 $161 $385 forward 7 unknown #
coedge $-1 $162 $375 $381 $386 forward $256 $-1 #
vertex $-1 $264 $387 #
vertex $-1 $163 $388 #
straight-curve $-1 -48.135937157786941 -7.5109933756131895 10.311812951146685 1 0 0 I I #
coedge $-1 $270 $270 $-1 $389 reversed $166 $-1 #
edge $-1 $390 0 $390 6.2831853071796004 $167 $391 forward 7 unknown #
vertex $-1 $170 $392 #
ellipse-curve $-1 -38.139356620660038 -5.2631133627985562 6.1307181726186819 -0.6018150307709319 0 0.79863550430605224 0.79863550430605224 0 0.6018150307709319 1 I I #
coedge $-1 $274 $274 $-1 $393 reversed $173 $-1 #
edge $-1 $394 0 $394 6.2831853071796004 $174 $395 forward 7 unknown #
vertex $-1 $177 $396 #
ellipse-curve $-1 -38.139356620660038 -1.8912933435766099 6.1307181726186819 -0.6018150307709319 0 0.79863550430605224 0.79863550430605224 0 0.6018150307709319 1 I I #
face $-1 $-1 $397 $37 $-1 $398 reversed single #
loop $-1 $-1 $184 $178 #
plane-surface $-1 0 0 10.311812951146683 0 0 1 1 0 0 forward_v I I I I #
coedge $-1 $399 $400 $401 $402 reversed $179 $-1 #
coedge $-1 $403 $181 $183 $288 forward $112 $-1 #
coedge $-1 $181 $403 $399 $404 forward $112 $-1 #
coedge $-1 $401 $184 $181 $285 forward $279 $-1 #
edge $-1 $291 1.9260974304325735 $405 9.7936774752837827 $284 $406 forward 7 unknown #
coedge $-1 $407 $408 $182 $287 forward $397 $-1 #
edge $-1 $409 -33.915861758693666 $290 -25.553672201637653 $286 $410 forward 7 unknown #
edge $-1 $291 -13.894949659771644 $409 -1.7763522597878294e-014 $183 $411 forward 7 unknown #
coedge $-1 $184 $401 $407 $412 forward $279 $-1 #
vertex $-1 $185 $413 #
vertex $-1 $185 $414 #
straight-curve $-1 -48.135937157786941 7.7859848832907517 10.311812951146685 1 0 0 I I #
coedge $-1 $293 $293 $-1 $415 reversed $188 $-1 #
edge $-1 $416 0 $416 6.2831853071796004 $189 $417 forward 7 unknown #
vertex $-1 $192 $418 #
ellipse-curve $-1 -38.139356620660038 10.033864896105378 6.1307181726186819 -0.6018150307709319 0 0.79863550430605224 0.79863550430605224 0 0.6018150307709319 1 I I #
coedge $-1 $297 $297 $-1 $419 reversed $195 $-1 #
edge $-1 $420 0 $420 6.2831853071796004 $196 $421 forward 7 unknown #
vertex $-1 $199 $422 #
ellipse-curve $-1 -38.139356620660038 13.405684915327328 6.1307181726186819 -0.6018150307709319 0 0.79863550430605224 0.79863550430605224 0 0.6018150307709319 1 I I #
face $-1 $-1 $215 $30 $-1 $423 reversed single #
loop $-1 $-1 $317 $200 #
plane-surface $-1 0 28.760761220461298 0 0 -1 0 0 0 -1 forward_v I I I I #
coedge $-1 $424 $315 $318 $425 forward $201 $-1 #
coedge $-1 $321 $203 $204 $309 reversed $126 $-1 #
coedge $-1 $315 $424 $203 $307 reversed $201 $-1 #
edge $-1 $322 -10.311812951146683 $426 10.311812951146683 $306 $427 forward 7 unknown #
coedge $-1 $205 $204 $424 $428 forward $81 $-1 #
edge $-1 $313 -43.687856685079502 $426 43.687856685079502 $305 $429 forward 7 unknown #
coedge $-1 $318 $317 $205 $311 reversed $302 $-1 #
edge $-1 $430 -43.687856685079502 $312 43.687856685079502 $310 $431 forward 7 unknown #
vertex $-1 $207 $432 #
vertex $-1 $324 $433 #
straight-curve $-1 43.687856685079502 0 -10.311812951146683 0 -1 0 I I #
coedge $-1 $304 $306 $208 $316 reversed $201 $-1 #
edge $-1 $319 -28.760761220461298 $322 28.760761220461298 $315 $434 forward 7 unknown #
coedge $-1 $310 $209 $214 $325 forward $302 $-1 #
coedge $-1 $209 $310 $304 $425 reversed $302 $-1 #
vertex $-1 $210 $435 #
straight-curve $-1 0 28.760761220461298 10.311812951146683 -1 0 0 I I #
coedge $-1 $211 $305 $213 $324 reversed $126 $-1 #
vertex $-1 $316 $436 #
straight-curve $-1 0 -28.760761220461298 10.311812951146683 1 0 0 I I #
edge $-1 $216 -10.311812951146683 $313 10.311812951146683 $213 $437 forward 7 unknown #
edge $-1 $217 -10.311812951146683 $312 10.311812951146683 $214 $438 forward 7 unknown #
point $-1 43.687856685079502 -28.760761220461298 10.311812951146683 #
point $-1 43.687856685079502 28.760761220461298 10.311812951146683 #
face $-1 $-1 $439 $31 $-1 $440 reversed single #
loop $-1 $-1 $229 $219 #
plane-surface $-1 0 -28.760761220461298 0 0 1 0 0 0 1 forward_v I I I I #
coedge $-1 $441 $222 $335 $442 forward $134 $-1 #
coedge $-1 $222 $441 $443 $444 forward $134 $-1 #
edge $-1 $445 -43.687856685079502 $336 43.687856685079502 $222 $446 forward 7 unknown #
coedge $-1 $224 $223 $447 $448 reversed $85 $-1 #
coedge $-1 $225 $231 $331 $442 reversed $220 $-1 #
vertex $-1 $442 $449 #
straight-curve $-1 43.687856685079502 -20.618189667932526 -3.8925229286198237 0 0 1 I I #
coedge $-1 $447 $450 $227 $339 forward $439 $-1 #
edge $-1 $344 -16.41602349836284 $340 -8.2734519458340703 $338 $451 forward 7 unknown #
vertex $-1 $339 $452 #
straight-curve $-1 0 -20.618189667932526 -5.258278763332612 -1 0 0 I I #
coedge $-1 $453 $229 $450 $454 forward $329 $-1 #
coedge $-1 $229 $453 $231 $346 reversed $329 $-1 #
vertex $-1 $454 $455 #
straight-curve $-1 0 -28.760761220461298 -5.258278763332612 -1 0 0 I I #
edge $-1 $233 5.258278763332612 $456 10.311812951146683 $231 $457 forward 7 unknown #
point $-1 43.687856685079502 -20.618189667932526 -5.258278763332612 #
point $-1 43.687856685079502 -28.760761220461298 -5.258278763332612 #
plane-surface $-1 0 0 10.311812951146683 0 0 1 1 0 0 forward_v I I I I #
coedge $-1 $360 $359 $352 $458 forward $236 $-1 #
coedge $-1 $352 $238 $240 $356 reversed $142 $-1 #
coedge $-1 $238 $351 $350 $458 reversed $142 $-1 #
coedge $-1 $246 $241 $238 $354 forward $247 $-1 #
edge $-1 $357 30.017810768325127 $459 35.742294662297191 $353 $460 forward 7 unknown #
coedge $-1 $240 $239 $360 $461 reversed $89 $-1 #
edge $-1 $462 -87.375713370159019 $357 -80.625525557191651 $351 $463 forward 7 unknown #
vertex $-1 $242 $464 #
straight-curve $-1 37.963372791107432 -6.5044979933076457 10.311812951146681 0 -1 0 I I #
coedge $-1 $350 $243 $246 $364 reversed $236 $-1 #
coedge $-1 $243 $350 $355 $461 forward $236 $-1 #
vertex $-1 $244 $465 #
straight-curve $-1 43.687856685079502 -8.2077678184204999 63.56781984440682 0 0 1 I I #
straight-curve $-1 -30.410950306768733 -8.2077678184204999 53.036832696965405 0.84804809178421925 0 -0.52991927123019833 I I #
edge $-1 $459 -17.810224154810083 $248 -8.2077678184204999 $359 $466 forward 7 unknown #
point $-1 43.687856685079502 -8.2077678184204999 10.311812951146683 #
point $-1 37.963372791107439 -8.2077678184204999 10.311812951146685 #
edge $-1 $467 1 $467 0 $251 $-1 forward 7 unknown #
vertex $-1 $252 $468 #
ellipse-curve $-1 39.741388297411824 -13.00899598661529 6.7881606694232994 0.52991927123019833 0 0.84804809178421925 0.84804809178421925 0 -0.52991927123019833 1 I I #
point $-1 41.673662829877671 -13.00899598661529 7.9933663766591696 #
loop $-1 $-1 $263 $255 #
plane-surface $-1 -43.687856685079502 0 0 1 0 0 0 0 -1 forward_v I I I I #
coedge $-1 $374 $258 $260 $378 reversed $157 $-1 #
coedge $-1 $258 $373 $469 $470 reversed $157 $-1 #
coedge $-1 $266 $261 $258 $376 forward $256 $-1 #
edge $-1 $379 -15.54508060154636 $471 -4.4480804727074386 $375 $472 forward 7 unknown #
coedge $-1 $260 $259 $382 $473 reversed $98 $-1 #
edge $-1 $474 1.7763522597878294e-014 $379 13.894949659771644 $373 $475 forward 7 unknown #
vertex $-1 $262 $476 #
straight-curve $-1 -32.590856556240588 -1.7886016765937924 10.311812951146683 0 1 0 I I #
coedge $-1 $469 $263 $266 $386 reversed $371 $-1 #
coedge $-1 $263 $469 $377 $473 forward $371 $-1 #
vertex $-1 $264 $477 #
straight-curve $-1 -43.687856685079502 -7.5109933756131895 35.865485152784338 0 0 1 I I #
straight-curve $-1 -43.687856685079517 -7.5109933756131895 1.9496233940906649 -0.79863550430605224 0 -0.6018150307709319 I I #
edge $-1 $471 -0.35658666923801974 $267 7.5109933756131895 $381 $478 forward 7 unknown #
point $-1 -43.687856685079502 -7.5109933756131895 10.311812951146683 #
point $-1 -32.590856556240581 -7.5109933756131895 10.311812951146683 #
edge $-1 $479 1 $479 0 $270 $-1 forward 7 unknown #
vertex $-1 $271 $480 #
ellipse-curve $-1 -37.248489648781494 -5.2631133627985562 4.948497794300085 -0.6018150307709319 0 0.79863550430605224 0.79863550430605224 0 0.6018150307709319 1 I I #
point $-1 -37.340721116353976 -5.2631133627985562 6.7325332033896021 #
edge $-1 $481 1 $481 0 $274 $-1 forward 7 unknown #
vertex $-1 $275 $482 #
ellipse-curve $-1 -37.248489648781494 -1.8912933435766099 4.948497794300085 -0.6018150307709319 0 0.79863550430605224 0.79863550430605224 0 0.6018150307709319 1 I I #
point $-1 -37.340721116353976 -1.8912933435766099 6.7325332033896021 #
loop $-1 $-1 $286 $278 #
plane-surface $-1 -43.687856685079502 0 0 1 0 0 0 0 -1 forward_v I I I I #
coedge $-1 $400 $281 $283 $404 reversed $179 $-1 #
coedge $-1 $281 $399 $483 $484 reversed $179 $-1 #
coedge $-1 $289 $284 $281 $402 forward $279 $-1 #
edge $-1 $405 -15.54508060154636 $485 -4.4480804727074386 $401 $486 forward 7 unknown #
coedge $-1 $283 $282 $408 $487 reversed $112 $-1 #
edge $-1 $488 1.7763522597878294e-014 $405 13.894949659771644 $399 $489 forward 7 unknown #
vertex $-1 $285 $490 #
straight-curve $-1 -32.590856556240588 5.8598874528581781 10.311812951146683 0 1 0 I I #
coedge $-1 $483 $286 $289 $412 reversed $397 $-1 #
coedge $-1 $286 $483 $403 $487 forward $397 $-1 #
vertex $-1 $287 $491 #
straight-curve $-1 -43.687856685079502 7.7859848832907517 35.865485152784338 0 0 1 I I #
straight-curve $-1 -43.687856685079517 7.7859848832907517 1.9496233940906649 -0.79863550430605224 0 -0.6018150307709319 I I #
edge $-1 $485 -15.653564928141961 $290 -7.7859848832907517 $407 $492 forward 7 unknown #
point $-1 -43.687856685079502 7.7859848832907517 10.311812951146683 #
point $-1 -32.590856556240581 7.7859848832907517 10.311812951146683 #
edge $-1 $493 1 $493 0 $293 $-1 forward 7 unknown #
vertex $-1 $294 $494 #
ellipse-curve $-1 -37.248489648781494 10.033864896105378 4.948497794300085 -0.6018150307709319 0 0.79863550430605224 0.79863550430605224 0 0.6018150307709319 1 I I #
point $-1 -37.340721116353976 10.033864896105378 6.7325332033896021 #
edge $-1 $495 1 $495 0 $297 $-1 forward 7 unknown #
vertex $-1 $298 $496 #
ellipse-curve $-1 -37.248489648781494 13.405684915327328 4.948497794300085 -0.6018150307709319 0 0.79863550430605224 0.79863550430605224 0 0.6018150307709319 1 I I #
point $-1 -37.340721116353976 13.405684915327328 6.7325332033896021 #
plane-surface $-1 43.687856685079502 0 0 -1 0 0 0 0 1 forward_v I I I I #
coedge $-1 $306 $304 $308 $428 reversed $201 $-1 #
edge $-1 $319 -10.311812951146683 $430 10.311812951146683 $318 $497 forward 7 unknown #
vertex $-1 $428 $498 #
straight-curve $-1 -43.687856685079502 -28.760761220461298 0 0 0 -1 I I #
edge $-1 $426 -28.760761220461298 $430 28.760761220461298 $424 $499 forward 7 unknown #
straight-curve $-1 0 -28.760761220461298 -10.311812951146683 -1 0 0 I I #
vertex $-1 $311 $500 #
straight-curve $-1 0 28.760761220461298 -10.311812951146683 1 0 0 I I #
point $-1 43.687856685079502 28.760761220461298 -10.311812951146683 #
point $-1 43.687856685079502 -28.760761220461298 -10.311812951146683 #
straight-curve $-1 -43.687856685079502 0 10.311812951146683 0 -1 0 I I #
point $-1 -43.687856685079502 28.760761220461298 10.311812951146683 #
point $-1 -43.687856685079502 -28.760761220461298 10.311812951146683 #
straight-curve $-1 43.687856685079502 -28.760761220461298 0 0 0 -1 I I #
straight-curve $-1 43.687856685079502 28.760761220461298 0 0 0 -1 I I #
loop $-1 $-1 $447 $328 #
plane-surface $-1 -43.687856685079502 0 0 1 0 0 0 0 -1 forward_v I I I I #
coedge $-1 $332 $331 $453 $501 forward $134 $-1 #
edge $-1 $336 20.618189667932526 $456 28.760761220461298 $335 $502 forward 7 unknown #
coedge $-1 $450 $447 $332 $444 reversed $439 $-1 #
edge $-1 $503 -28.760761220461298 $445 -20.618189667932526 $443 $504 forward 7 unknown #
vertex $-1 $448 $505 #
straight-curve $-1 0 -20.618189667932526 -10.311812951146683 1 0 0 I I #
coedge $-1 $443 $338 $334 $448 forward $439 $-1 #
edge $-1 $340 1.3657558347127883 $445 6.4192900225268588 $447 $506 forward 7 unknown #
point $-1 43.687856685079502 -20.618189667932526 -10.311812951146683 #
coedge $-1 $338 $443 $342 $454 reversed $439 $-1 #
straight-curve $-1 -43.687856685079502 -12.344737722098456 -5.258278763332612 0 1 0 I I #
point $-1 -43.687856685079502 -20.618189667932526 -5.258278763332612 #
coedge $-1 $343 $342 $441 $501 reversed $329 $-1 #
edge $-1 $344 5.258278763332612 $503 10.311812951146683 $450 $507 forward 7 unknown #
point $-1 -43.687856685079502 -28.760761220461298 -5.258278763332612 #
vertex $-1 $346 $508 #
straight-curve $-1 43.687856685079502 -28.760761220461298 0 0 0 -1 I I #
edge $-1 $459 53.256006893260135 $462 56.833061499774772 $350 $509 forward 7 unknown #
vertex $-1 $364 $510 #
straight-curve $-1 7.9455620227823118 -17.810224154810083 10.311812951146685 1 0 0 I I #
edge $-1 $462 -11.305726161502438 $361 -1.7032698251128542 $360 $511 forward 7 unknown #
vertex $-1 $461 $512 #
straight-curve $-1 -30.410950306768733 -17.810224154810083 53.036832696965405 -0.84804809178421925 0 0.52991927123019833 I I #
point $-1 37.963372791107439 -17.810224154810083 10.311812951146685 #
point $-1 43.687856685079502 -8.2077678184204999 6.7347583446320485 #
straight-curve $-1 43.687856685079502 0 10.311812951146683 0 1 0 I I #
vertex $-1 $367 $513 #
point $-1 40.589436389196045 -13.00899598661529 6.2582413981931007 #
coedge $-1 $382 $381 $374 $470 forward $371 $-1 #
edge $-1 $471 25.553672201637653 $474 33.915861758693666 $469 $514 forward 7 unknown #
vertex $-1 $386 $515 #
straight-curve $-1 -48.135937157786941 0.35658666923801974 10.311812951146685 -1 0 0 I I #
edge $-1 $474 -2.1451883458318122 $383 5.722391699019397 $382 $516 forward 7 unknown #
vertex $-1 $473 $517 #
straight-curve $-1 -43.687856685079517 0.35658666923801974 1.9496233940906649 0.79863550430605224 0 0.6018150307709319 I I #
point $-1 -32.590856556240581 0.35658666923801974 10.311812951146683 #
point $-1 -43.687856685079502 -7.5109933756131895 1.9496233940906755 #
straight-curve $-1 -43.687856685079502 0 10.311812951146683 0 -1 0 I I #
vertex $-1 $389 $518 #
point $-1 -36.449854144475438 -5.2631133627985562 5.5503128250710168 #
vertex $-1 $393 $519 #
point $-1 -36.449854144475438 -1.8912933435766099 5.5503128250710168 #
coedge $-1 $408 $407 $400 $484 forward $397 $-1 #
edge $-1 $485 25.553672201637653 $488 33.915861758693666 $483 $520 forward 7 unknown #
vertex $-1 $412 $521 #
straight-curve $-1 -48.135937157786941 15.653564928141961 10.311812951146685 -1 0 0 I I #
edge $-1 $488 -9.7936774752837827 $409 -1.9260974304325735 $408 $522 forward 7 unknown #
vertex $-1 $487 $523 #
straight-curve $-1 -43.687856685079517 15.653564928141961 1.9496233940906649 0.79863550430605224 0 0.6018150307709319 I I #
point $-1 -32.590856556240581 15.653564928141961 10.311812951146683 #
point $-1 -43.687856685079502 7.7859848832907517 1.9496233940906755 #
straight-curve $-1 -43.687856685079502 0 10.311812951146683 0 -1 0 I I #
vertex $-1 $415 $524 #
point $-1 -36.449854144475438 10.033864896105378 5.5503128250710168 #
vertex $-1 $419 $525 #
point $-1 -36.449854144475438 13.405684915327328 5.5503128250710168 #
straight-curve $-1 -43.687856685079502 28.760761220461298 0 0 0 -1 I I #
point $-1 -43.687856685079502 -28.760761220461298 -10.311812951146683 #
straight-curve $-1 -43.687856685079502 0 -10.311812951146683 0 1 0 I I #
point $-1 -43.687856685079502 28.760761220461298 -10.311812951146683 #
edge $-1 $456 -43.687856685079502 $503 43.687856685079502 $453 $526 forward 7 unknown #
straight-curve $-1 43.687856685079502 0 -10.311812951146683 0 -1 0 I I #
vertex $-1 $444 $527 #
straight-curve $-1 -43.687856685079502 0 -10.311812951146683 0 1 0 I I #
point $-1 -43.687856685079502 -20.618189667932526 -10.311812951146683 #
straight-curve $-1 -43.687856685079502 -20.618189667932526 -3.8925229286198237 0 0 -1 I I #
straight-curve $-1 -43.687856685079502 -28.760761220461298 0 0 0 -1 I I #
point $-1 43.687856685079502 -28.760761220461298 -10.311812951146683 #
straight-curve $-1 43.687856685079502 -17.810224154810083 63.56781984440682 0 0 -1 I I #
point $-1 43.687856685079502 -17.810224154810083 10.311812951146683 #
straight-curve $-1 43.68785668507951 -6.5044979933076457 6.7347583446320485 0 1 0 I I #
point $-1 43.687856685079502 -17.810224154810083 6.7347583446320485 #
point $-1 39.211469026181625 -13.00899598661529 5.9401125776390797 #
straight-curve $-1 -43.687856685079502 0.35658666923801974 35.865485152784338 0 0 -1 I I #
point $-1 -43.687856685079502 0.35658666923801974 10.311812951146683 #
straight-curve $-1 -43.687856685079502 -1.7886016765937924 1.9496233940906762 0 -1 0 I I #
point $-1 -43.687856685079502 0.35658666923801974 1.9496233940906755 #
point $-1 -36.646674618010557 -5.2631133627985562 4.1498622899940329 #
point $-1 -36.646674618010557 -1.8912933435766099 4.1498622899940329 #
straight-curve $-1 -43.687856685079502 15.653564928141961 35.865485152784338 0 0 -1 I I #
point $-1 -43.687856685079502 15.653564928141961 10.311812951146683 #
straight-curve $-1 -43.687856685079502 5.8598874528581781 1.9496233940906762 0 -1 0 I I #
point $-1 -43.687856685079502 15.653564928141961 1.9496233940906755 #
point $-1 -36.646674618010557 10.033864896105378 4.1498622899940329 #
point $-1 -36.646674618010557 13.405684915327328 4.1498622899940329 #
straight-curve $-1 0 -28.760761220461298 -10.311812951146683 -1 0 0 I I #
point $-1 -43.687856685079502 -28.760761220461298 -10.311812951146683 #
End-of-ACIS-data 