500 0 9 0           
7 Unknown 11 ACIS 5.0 NT 24 Fri Mar 26 17:20:24 1999 
-1 9.9999999999999995e-007 1e-010 
body $-1 $9 $-1 $10 #
body $-1 $11 $-1 $12 #
body $-1 $13 $-1 $14 #
body $-1 $15 $-1 $16 #
body $-1 $17 $-1 $18 #
body $-1 $19 $-1 $20 #
body $-1 $21 $-1 $22 #
body $-1 $23 $-1 $24 #
body $-1 $25 $-1 $26 #
lump $-1 $-1 $27 $0 #
transform $-1 1 0 0 0 1 0 0 0 1 71.497543259987182 38.958054952445728 15.183499758162281 1 rotate no_reflect no_shear #
lump $-1 $-1 $28 $1 #
transform $-1 1 0 0 0 1 0 0 0 1 71.497543259987182 38.958054952445728 15.183499758162281 1 rotate no_reflect no_shear #
lump $-1 $-1 $29 $2 #
transform $-1 1 0 0 0 1 0 0 0 1 71.497543259987182 38.958054952445728 15.183499758162281 1 rotate no_reflect no_shear #
lump $-1 $-1 $30 $3 #
transform $-1 1 0 0 0 1 0 0 0 1 71.497543259987182 38.958054952445728 15.183499758162281 1 rotate no_reflect no_shear #
lump $-1 $-1 $31 $4 #
transform $-1 1 0 0 0 1 0 0 0 1 71.497543259987182 38.958054952445728 15.183499758162281 1 rotate no_reflect no_shear #
lump $-1 $-1 $32 $5 #
transform $-1 1 0 0 0 1 0 0 0 1 71.497543259987182 38.958054952445728 15.183499758162281 1 rotate no_reflect no_shear #
lump $-1 $-1 $33 $6 #
transform $-1 1 0 0 0 1 0 0 0 1 71.497543259987182 38.958054952445728 15.183499758162281 1 rotate no_reflect no_shear #
lump $-1 $-1 $34 $7 #
transform $-1 1 0 0 0 1 0 0 0 1 71.497543259987182 38.958054952445728 15.183499758162281 1 rotate no_reflect no_shear #
lump $-1 $-1 $35 $8 #
transform $-1 1 0 0 0 1 0 0 0 1 71.497543259987182 38.958054952445728 15.183499758162281 1 rotate no_reflect no_shear #
shell $-1 $-1 $-1 $36 $-1 $9 #
shell $-1 $-1 $-1 $37 $-1 $11 #
shell $-1 $-1 $-1 $38 $-1 $13 #
shell $-1 $-1 $-1 $39 $-1 $15 #
shell $-1 $-1 $-1 $40 $-1 $17 #
shell $-1 $-1 $-1 $41 $-1 $19 #
shell $-1 $-1 $-1 $42 $-1 $21 #
shell $-1 $-1 $-1 $43 $-1 $23 #
shell $-1 $-1 $-1 $44 $-1 $25 #
face $-1 $45 $46 $27 $-1 $47 forward single #
face $-1 $48 $49 $28 $-1 $50 reversed single #
face $-1 $51 $52 $29 $-1 $53 reversed single #
face $-1 $54 $55 $30 $-1 $56 reversed single #
face $-1 $57 $58 $31 $-1 $59 forward single #
face $-1 $60 $61 $32 $-1 $62 reversed single #
face $-1 $63 $64 $33 $-1 $65 forward single #
face $-1 $66 $67 $34 $-1 $68 reversed single #
face $-1 $69 $70 $35 $-1 $71 forward single #
face $-1 $72 $73 $27 $-1 $74 reversed single #
loop $-1 $-1 $75 $36 #
plane-surface $-1 0 0 15.183499758162281 0 0 1 1 0 0 forward_v I I I I #
face $-1 $76 $77 $28 $-1 $78 reversed single #
loop $-1 $-1 $79 $37 #
plane-surface $-1 -61.948022255132074 -32.059564571890128 0 0 -1 0 0 0 -1 forward_v I I I I #
face $-1 $80 $81 $29 $-1 $82 reversed single #
loop $-1 $-1 $83 $38 #
plane-surface $-1 52.398501250276965 -35.508809762167928 0 1 0 0 0 0 -1 forward_v I I I I #
face $-1 $84 $85 $30 $-1 $86 reversed single #
loop $-1 $-1 $87 $39 #
plane-surface $-1 -7.2912458404547671 -112.60597001498161 123.33592193363747 -1 0 0 0 -0.51503808176128008 0.85716729658548041 forward_v I I I I #
face $-1 $88 $89 $31 $-1 $90 forward single #
loop $-1 $91 $92 $40 #
cone-surface $-1 -18.126751215428115 -22.799653093403712 1.050336119946067 0 0.51503808176128008 -0.85716729658548041 5 0 0 1 I I 0 1 5 forward I I I I #
face $-1 $93 $94 $32 $-1 $95 reversed single #
loop $-1 $-1 $96 $41 #
plane-surface $-1 -52.398501250276958 65.595889973413563 166.12558001137546 1 0 0 0 -0.61566148304635926 -0.78801074757464917 forward_v I I I I #
face $-1 $97 $98 $33 $-1 $99 forward single #
loop $-1 $100 $101 $42 #
cone-surface $-1 -42.88107396165698 29.737516551158233 6.4803061045274486 0 -0.61566148304635926 -0.78801074757464917 2.5 0 0 1 I I 0 1 2.5 forward I I I I #
face $-1 $102 $103 $34 $-1 $104 reversed single #
loop $-1 $-1 $105 $43 #
plane-surface $-1 33.363646673037017 65.595889973413563 166.12558001137546 1 0 0 0 -0.61566148304635926 -0.78801074757464917 forward_v I I I I #
face $-1 $106 $107 $35 $-1 $108 forward single #
loop $-1 $109 $110 $44 #
cone-surface $-1 42.881073961656995 29.737516551158233 6.4803061045274486 0 -0.61566148304635926 -0.78801074757464917 2.5 0 0 1 I I 0 1 2.5 forward I I I I #
face $-1 $111 $112 $27 $-1 $113 reversed single #
loop $-1 $-1 $114 $45 #
plane-surface $-1 0 0 -15.183499758162281 0 0 1 1 0 0 forward_v I I I I #
coedge $-1 $115 $116 $117 $118 forward $46 $-1 #
face $-1 $119 $120 $28 $-1 $121 forward single #
loop $-1 $-1 $122 $48 #
plane-surface $-1 -52.398501250276965 -35.508809762167928 0 -1 0 0 0 0 1 forward_v I I I I #
coedge $-1 $123 $124 $125 $126 forward $49 $-1 #
face $-1 $127 $128 $29 $-1 $129 forward single #
loop $-1 $-1 $130 $51 #
plane-surface $-1 61.948022255132074 -32.059564571890128 0 0 -1 0 0 0 -1 forward_v I I I I #
coedge $-1 $131 $132 $133 $134 forward $52 $-1 #
face $-1 $135 $136 $30 $-1 $137 reversed single #
loop $-1 $-1 $138 $54 #
plane-surface $-1 -18.126751215428115 -38.958054952445735 0.76521019630416731 0 -0.51503808176128008 0.85716729658548041 1 0 0 forward_v I I I I #
coedge $-1 $139 $140 $141 $142 reversed $55 $-1 #
face $-1 $-1 $143 $31 $-1 $144 forward single #
loop $-1 $145 $146 $57 #
cone-surface $-1 -18.126751215428115 -17.351687556929086 -8.0166009788047781 0 0.51503808176128008 -0.85716729658548041 2.5 0 0 1 I I -0.70710678118654746 0.70710678118654746 2.5 forward I I I I #
loop $-1 $-1 $147 $40 #
coedge $-1 $92 $92 $148 $149 reversed $58 $-1 #
face $-1 $150 $151 $32 $-1 $152 reversed single #
loop $-1 $-1 $153 $60 #
plane-surface $-1 -42.88107396165698 -22.440677061816316 53.443914983268826 0 0.61566148304635926 0.78801074757464917 1 0 0 forward_v I I I I #
coedge $-1 $154 $155 $156 $157 reversed $61 $-1 #
face $-1 $-1 $158 $33 $-1 $159 forward single #
loop $-1 $160 $161 $63 #
cone-surface $-1 -42.88107396165698 25.961218641883086 1.6468652924953311 0 -0.61566148304635926 -0.78801074757464917 1.25 0 0 1 I I -0.70710678118654746 0.70710678118654746 1.25 forward I I I I #
loop $-1 $-1 $162 $42 #
coedge $-1 $101 $101 $163 $164 reversed $64 $-1 #
face $-1 $165 $166 $34 $-1 $167 reversed single #
loop $-1 $-1 $168 $66 #
plane-surface $-1 42.881073961656995 -22.440677061816316 53.443914983268826 0 0.61566148304635926 0.78801074757464917 1 0 0 forward_v I I I I #
coedge $-1 $169 $170 $171 $172 reversed $67 $-1 #
face $-1 $-1 $173 $35 $-1 $174 forward single #
loop $-1 $175 $176 $69 #
cone-surface $-1 42.881073961656995 25.961218641883086 1.6468652924953311 0 -0.61566148304635926 -0.78801074757464917 1.25 0 0 1 I I -0.70710678118654746 0.70710678118654746 1.25 forward I I I I #
loop $-1 $-1 $177 $44 #
coedge $-1 $110 $110 $178 $179 reversed $70 $-1 #
face $-1 $180 $181 $27 $-1 $182 reversed single #
loop $-1 $-1 $183 $72 #
plane-surface $-1 0 -38.958054952445728 0 0 1 0 0 0 1 forward_v I I I I #
coedge $-1 $184 $185 $186 $187 forward $73 $-1 #
coedge $-1 $188 $75 $189 $190 forward $46 $-1 #
coedge $-1 $75 $188 $191 $192 forward $46 $-1 #
coedge $-1 $193 $194 $75 $118 reversed $195 $-1 #
edge $-1 $196 -38.958054952445728 $197 38.958054952445728 $117 $198 forward 7 unknown #
face $-1 $199 $200 $28 $-1 $201 reversed single #
loop $-1 $-1 $202 $76 #
plane-surface $-1 0 0 15.183499758162281 0 0 1 1 0 0 forward_v I I I I #
coedge $-1 $203 $204 $205 $206 reversed $77 $-1 #
coedge $-1 $207 $79 $208 $209 reversed $49 $-1 #
coedge $-1 $79 $207 $210 $211 reversed $49 $-1 #
coedge $-1 $204 $203 $79 $126 reversed $77 $-1 #
edge $-1 $212 -15.183499758162281 $213 15.183499758162281 $125 $214 forward 7 unknown #
face $-1 $215 $216 $29 $-1 $217 reversed single #
loop $-1 $-1 $218 $80 #
plane-surface $-1 0 0 15.183499758162281 0 0 1 1 0 0 forward_v I I I I #
coedge $-1 $219 $220 $221 $222 reversed $81 $-1 #
coedge $-1 $223 $83 $224 $225 reversed $52 $-1 #
coedge $-1 $83 $223 $226 $227 reversed $52 $-1 #
coedge $-1 $220 $219 $83 $134 reversed $81 $-1 #
edge $-1 $228 -15.183499758162281 $229 15.183499758162281 $133 $230 forward 7 unknown #
face $-1 $231 $232 $30 $-1 $233 forward single #
loop $-1 $-1 $234 $84 #
plane-surface $-1 -28.962256590401463 -112.60597001498161 123.33592193363747 1 0 0 0 0.51503808176128008 -0.85716729658548041 forward_v I I I I #
coedge $-1 $235 $236 $237 $238 reversed $85 $-1 #
coedge $-1 $140 $87 $239 $240 reversed $55 $-1 #
coedge $-1 $87 $139 $235 $241 reversed $55 $-1 #
coedge $-1 $237 $242 $87 $142 forward $232 $-1 #
edge $-1 $243 17.344930055045076 $244 41.340993108986211 $141 $245 forward 7 unknown #
loop $-1 $-1 $148 $88 #
plane-surface $-1 -18.126751215428115 -38.958054952445735 0.76521019630416731 0 -0.51503808176128008 0.85716729658548041 1 0 0 forward_v I I I I #
loop $-1 $-1 $246 $57 #
coedge $-1 $146 $146 $147 $247 reversed $89 $-1 #
coedge $-1 $147 $147 $146 $247 forward $91 $-1 #
coedge $-1 $148 $148 $92 $149 forward $143 $-1 #
edge $-1 $248 2.4047657786798092e-016 $248 6.2831853071796004 $148 $249 forward 7 unknown #
face $-1 $250 $251 $32 $-1 $252 reversed single #
loop $-1 $-1 $253 $93 #
plane-surface $-1 -33.363646673037003 65.595889973413563 166.12558001137546 -1 0 0 0 0.61566148304635926 0.78801074757464917 forward_v I I I I #
coedge $-1 $254 $255 $256 $257 reversed $94 $-1 #
coedge $-1 $155 $96 $258 $259 reversed $61 $-1 #
coedge $-1 $96 $154 $254 $260 reversed $61 $-1 #
coedge $-1 $256 $261 $96 $157 forward $262 $-1 #
edge $-1 $263 -6.1601099657389469 $264 6.26752472590168 $156 $265 forward 7 unknown #
loop $-1 $-1 $163 $97 #
plane-surface $-1 -42.88107396165698 -22.440677061816316 53.443914983268826 0 0.61566148304635926 0.78801074757464917 1 0 0 forward_v I I I I #
loop $-1 $-1 $266 $63 #
coedge $-1 $161 $161 $162 $267 reversed $98 $-1 #
coedge $-1 $162 $162 $161 $267 forward $100 $-1 #
coedge $-1 $163 $163 $101 $164 forward $158 $-1 #
edge $-1 $268 -1.7498151778635225e-015 $268 6.2831853071795987 $163 $269 forward 7 unknown #
face $-1 $270 $271 $34 $-1 $272 forward single #
loop $-1 $-1 $273 $102 #
plane-surface $-1 52.398501250276972 65.595889973413563 166.12558001137546 -1 0 0 0 0.61566148304635926 0.78801074757464917 forward_v I I I I #
coedge $-1 $274 $275 $276 $277 reversed $103 $-1 #
coedge $-1 $170 $105 $278 $279 reversed $67 $-1 #
coedge $-1 $105 $169 $274 $280 reversed $67 $-1 #
coedge $-1 $276 $281 $105 $172 forward $271 $-1 #
edge $-1 $282 -6.1601099657389469 $283 6.26752472590168 $171 $284 forward 7 unknown #
loop $-1 $-1 $178 $106 #
plane-surface $-1 42.881073961656995 -22.440677061816316 53.443914983268826 0 0.61566148304635926 0.78801074757464917 1 0 0 forward_v I I I I #
loop $-1 $-1 $285 $69 #
coedge $-1 $176 $176 $177 $286 reversed $107 $-1 #
coedge $-1 $177 $177 $176 $286 forward $109 $-1 #
coedge $-1 $178 $178 $110 $179 forward $173 $-1 #
edge $-1 $287 -1.7498151778635225e-015 $287 6.2831853071795987 $178 $288 forward 7 unknown #
face $-1 $289 $290 $27 $-1 $291 reversed single #
loop $-1 $-1 $292 $111 #
plane-surface $-1 -71.497543259987182 0 0 1 0 0 0 0 -1 forward_v I I I I #
coedge $-1 $293 $191 $294 $295 forward $112 $-1 #
coedge $-1 $296 $114 $293 $297 forward $73 $-1 #
coedge $-1 $114 $296 $298 $299 forward $73 $-1 #
coedge $-1 $194 $193 $114 $187 reversed $195 $-1 #
edge $-1 $300 -38.958054952445728 $301 38.958054952445728 $186 $302 forward 7 unknown #
coedge $-1 $116 $115 $303 $304 forward $46 $-1 #
coedge $-1 $305 $306 $115 $190 reversed $290 $-1 #
edge $-1 $197 -71.497543259987182 $307 71.497543259987182 $189 $308 forward 7 unknown #
coedge $-1 $183 $309 $116 $192 reversed $112 $-1 #
edge $-1 $310 -71.497543259987182 $196 71.497543259987182 $191 $311 forward 7 unknown #
coedge $-1 $186 $117 $309 $312 forward $195 $-1 #
coedge $-1 $117 $186 $305 $313 reversed $195 $-1 #
loop $-1 $-1 $193 $289 #
vertex $-1 $118 $314 #
vertex $-1 $118 $315 #
straight-curve $-1 71.497543259987182 0 15.183499758162281 0 1 0 I I #
face $-1 $316 $317 $28 $-1 $318 reversed single #
loop $-1 $-1 $319 $119 #
plane-surface $-1 -71.497543259987182 0 0 1 0 0 0 0 -1 forward_v I I I I #
coedge $-1 $210 $320 $204 $321 forward $120 $-1 #
coedge $-1 $125 $122 $322 $323 reversed $77 $-1 #
coedge $-1 $122 $125 $202 $321 reversed $77 $-1 #
coedge $-1 $324 $325 $122 $206 forward $326 $-1 #
edge $-1 $327 -15.183499758162281 $328 15.183499758162281 $205 $329 forward 7 unknown #
coedge $-1 $124 $123 $319 $330 reversed $49 $-1 #
coedge $-1 $322 $331 $123 $209 forward $317 $-1 #
edge $-1 $332 -40.523532132421145 $213 -21.424490122710928 $208 $333 forward 7 unknown #
coedge $-1 $334 $202 $124 $211 forward $120 $-1 #
edge $-1 $212 21.424490122710928 $335 40.523532132421145 $210 $336 forward 7 unknown #
vertex $-1 $211 $337 #
vertex $-1 $209 $338 #
straight-curve $-1 -52.398501250276965 -32.059564571890128 0 0 0 -1 I I #
face $-1 $339 $340 $29 $-1 $341 reversed single #
loop $-1 $-1 $342 $127 #
plane-surface $-1 0 -38.958054952445728 0 0 1 0 0 0 1 forward_v I I I I #
coedge $-1 $226 $343 $220 $344 forward $128 $-1 #
coedge $-1 $133 $130 $345 $346 reversed $81 $-1 #
coedge $-1 $130 $133 $218 $344 reversed $81 $-1 #
coedge $-1 $347 $348 $130 $222 forward $349 $-1 #
edge $-1 $350 -15.183499758162281 $351 15.183499758162281 $221 $352 forward 7 unknown #
coedge $-1 $132 $131 $342 $353 reversed $52 $-1 #
coedge $-1 $345 $354 $131 $225 forward $340 $-1 #
edge $-1 $355 -21.203650071361764 $229 -14.305159690806164 $224 $356 forward 7 unknown #
coedge $-1 $357 $218 $132 $227 forward $128 $-1 #
edge $-1 $228 14.305159690806164 $358 21.203650071361764 $226 $359 forward 7 unknown #
vertex $-1 $227 $360 #
vertex $-1 $225 $361 #
straight-curve $-1 52.398501250276965 -32.059564571890128 0 0 0 -1 I I #
face $-1 $-1 $362 $30 $-1 $363 reversed single #
loop $-1 $-1 $141 $135 #
plane-surface $-1 0 0 15.183499758162281 0 0 1 1 0 0 forward_v I I I I #
coedge $-1 $364 $365 $366 $367 reversed $136 $-1 #
coedge $-1 $368 $138 $140 $241 forward $85 $-1 #
coedge $-1 $138 $368 $364 $369 forward $85 $-1 #
coedge $-1 $366 $141 $138 $238 forward $232 $-1 #
edge $-1 $244 -1.7721297672592904 $370 19.898880982687405 $237 $371 forward 7 unknown #
coedge $-1 $372 $373 $139 $240 forward $362 $-1 #
edge $-1 $374 -60.902750770514558 $243 -46.484461208656455 $239 $375 forward 7 unknown #
edge $-1 $244 -27.994608694859547 $374 -8.2634070795339233e-015 $140 $376 forward 7 unknown #
coedge $-1 $141 $366 $372 $377 forward $232 $-1 #
vertex $-1 $240 $378 #
vertex $-1 $142 $379 #
straight-curve $-1 -7.2912458404547671 -56.302985007490804 15.183499758162284 0 1 0 I I #
coedge $-1 $246 $246 $-1 $380 reversed $145 $-1 #
edge $-1 $381 0 $381 6.2831853071796004 $146 $382 forward 7 unknown #
vertex $-1 $149 $383 #
ellipse-curve $-1 -18.126751215428115 -26.96002342547515 7.9743549772332329 0 -0.51503808176128008 0.85716729658548041 5 0 0 1 I I #
face $-1 $-1 $262 $32 $-1 $384 forward single #
loop $-1 $-1 $385 $150 #
plane-surface $-1 0 38.958054952445728 0 0 -1 0 0 0 -1 forward_v I I I I #
coedge $-1 $386 $387 $388 $389 reversed $151 $-1 #
coedge $-1 $390 $153 $155 $260 forward $94 $-1 #
coedge $-1 $153 $390 $386 $391 forward $94 $-1 #
coedge $-1 $388 $156 $153 $257 forward $262 $-1 #
edge $-1 $264 -30.957964269448468 $392 -11.923109692208513 $256 $393 forward 7 unknown #
coedge $-1 $394 $395 $154 $259 forward $251 $-1 #
edge $-1 $396 -77.588822799667497 $263 -67.879290247525446 $258 $397 forward 7 unknown #
edge $-1 $264 62.145214990208402 $396 77.916109904891456 $155 $398 forward 7 unknown #
coedge $-1 $156 $388 $394 $399 forward $262 $-1 #
loop $-1 $-1 $388 $250 #
vertex $-1 $259 $400 #
vertex $-1 $157 $401 #
straight-curve $-1 -52.398501250276958 32.797944986706781 15.183499758162284 0 -1 0 I I #
coedge $-1 $266 $266 $-1 $402 reversed $160 $-1 #
edge $-1 $403 0 $403 6.2831853071796004 $161 $404 forward 7 unknown #
vertex $-1 $164 $405 #
ellipse-curve $-1 -42.88107396165698 32.744237606625425 10.328733482091247 0 0.61566148304635926 0.78801074757464917 2.5 0 0 1 I I #
face $-1 $-1 $406 $34 $-1 $407 reversed single #
loop $-1 $-1 $171 $165 #
plane-surface $-1 0 0 15.183499758162281 0 0 1 1 0 0 forward_v I I I I #
coedge $-1 $408 $409 $410 $411 reversed $166 $-1 #
coedge $-1 $412 $168 $170 $280 forward $103 $-1 #
coedge $-1 $168 $412 $408 $413 forward $103 $-1 #
coedge $-1 $410 $171 $168 $277 forward $271 $-1 #
edge $-1 $283 11.92310969220852 $414 30.957964269448475 $276 $415 forward 7 unknown #
coedge $-1 $416 $417 $169 $279 forward $406 $-1 #
edge $-1 $418 -77.588822799667497 $282 -67.879290247525446 $278 $419 forward 7 unknown #
edge $-1 $283 62.145214990208402 $418 77.916109904891456 $170 $420 forward 7 unknown #
coedge $-1 $171 $410 $416 $421 forward $271 $-1 #
vertex $-1 $172 $422 #
vertex $-1 $172 $423 #
straight-curve $-1 33.363646673037017 32.797944986706781 15.183499758162284 0 -1 0 I I #
coedge $-1 $285 $285 $-1 $424 reversed $175 $-1 #
edge $-1 $425 0 $425 6.2831853071796004 $176 $426 forward 7 unknown #
vertex $-1 $179 $427 #
ellipse-curve $-1 42.881073961656995 32.744237606625425 10.328733482091247 0 0.61566148304635926 0.78801074757464917 2.5 0 0 1 I I #
face $-1 $-1 $195 $27 $-1 $428 reversed single #
loop $-1 $-1 $305 $180 #
plane-surface $-1 0 38.958054952445728 0 0 -1 0 0 0 -1 forward_v I I I I #
coedge $-1 $429 $303 $306 $430 forward $181 $-1 #
coedge $-1 $309 $183 $184 $297 reversed $112 $-1 #
coedge $-1 $303 $429 $183 $295 reversed $181 $-1 #
edge $-1 $310 -15.183499758162281 $431 15.183499758162281 $294 $432 forward 7 unknown #
coedge $-1 $185 $184 $429 $433 forward $73 $-1 #
edge $-1 $301 -71.497543259987182 $431 71.497543259987182 $293 $434 forward 7 unknown #
coedge $-1 $306 $305 $185 $299 reversed $290 $-1 #
edge $-1 $435 -71.497543259987182 $300 71.497543259987182 $298 $436 forward 7 unknown #
vertex $-1 $187 $437 #
vertex $-1 $312 $438 #
straight-curve $-1 71.497543259987182 0 -15.183499758162281 0 -1 0 I I #
coedge $-1 $292 $294 $188 $304 reversed $181 $-1 #
edge $-1 $307 -38.958054952445728 $310 38.958054952445728 $303 $439 forward 7 unknown #
coedge $-1 $298 $189 $194 $313 forward $290 $-1 #
coedge $-1 $189 $298 $292 $430 reversed $290 $-1 #
vertex $-1 $190 $440 #
straight-curve $-1 0 38.958054952445728 15.183499758162281 -1 0 0 I I #
coedge $-1 $191 $293 $193 $312 reversed $112 $-1 #
vertex $-1 $304 $441 #
straight-curve $-1 0 -38.958054952445728 15.183499758162281 1 0 0 I I #
edge $-1 $196 -15.183499758162281 $301 15.183499758162281 $193 $442 forward 7 unknown #
edge $-1 $197 -15.183499758162281 $300 15.183499758162281 $194 $443 forward 7 unknown #
point $-1 71.497543259987182 -38.958054952445728 15.183499758162281 #
point $-1 71.497543259987182 38.958054952445728 15.183499758162281 #
face $-1 $-1 $326 $28 $-1 $444 reversed single #
loop $-1 $-1 $322 $199 #
plane-surface $-1 0 0 -15.183499758162281 0 0 1 1 0 0 forward_v I I I I #
coedge $-1 $445 $446 $207 $330 forward $200 $-1 #
coedge $-1 $202 $334 $324 $447 forward $120 $-1 #
edge $-1 $328 -21.203650071361764 $212 -14.305159690806164 $202 $448 forward 7 unknown #
coedge $-1 $449 $208 $203 $323 forward $317 $-1 #
edge $-1 $213 14.305159690806164 $327 21.203650071361764 $322 $450 forward 7 unknown #
coedge $-1 $451 $205 $320 $447 reversed $326 $-1 #
coedge $-1 $205 $451 $449 $452 reversed $326 $-1 #
loop $-1 $-1 $205 $316 #
vertex $-1 $452 $453 #
vertex $-1 $206 $454 #
straight-curve $-1 -52.398501250276965 -38.958054952445728 0 0 0 1 I I #
edge $-1 $335 -15.183499758162281 $332 15.183499758162281 $319 $455 forward 7 unknown #
coedge $-1 $208 $449 $445 $456 forward $317 $-1 #
vertex $-1 $209 $457 #
straight-curve $-1 -30.974011127566037 -32.059564571890128 -15.183499758162281 1 0 0 I I #
coedge $-1 $320 $210 $446 $458 forward $120 $-1 #
vertex $-1 $458 $459 #
straight-curve $-1 -30.974011127566037 -32.059564571890128 15.183499758162281 -1 0 0 I I #
point $-1 -52.398501250276965 -32.059564571890128 15.183499758162281 #
point $-1 -52.398501250276965 -32.059564571890128 -15.183499758162281 #
face $-1 $-1 $349 $29 $-1 $460 reversed single #
loop $-1 $-1 $345 $215 #
plane-surface $-1 0 0 -15.183499758162281 0 0 1 1 0 0 forward_v I I I I #
coedge $-1 $461 $462 $223 $353 forward $216 $-1 #
coedge $-1 $218 $357 $347 $463 forward $128 $-1 #
edge $-1 $351 -40.523532132421145 $228 -21.424490122710928 $218 $464 forward 7 unknown #
coedge $-1 $465 $224 $219 $346 forward $340 $-1 #
edge $-1 $229 21.424490122710928 $350 40.523532132421145 $345 $466 forward 7 unknown #
coedge $-1 $467 $221 $343 $463 reversed $349 $-1 #
coedge $-1 $221 $467 $465 $468 reversed $349 $-1 #
loop $-1 $-1 $221 $339 #
vertex $-1 $468 $469 #
vertex $-1 $222 $470 #
straight-curve $-1 71.497543259987182 -32.059564571890128 0 0 0 1 I I #
edge $-1 $358 -15.183499758162281 $355 15.183499758162281 $342 $471 forward 7 unknown #
coedge $-1 $224 $465 $461 $472 forward $340 $-1 #
vertex $-1 $225 $473 #
straight-curve $-1 52.398501250276965 -17.754404881083964 -15.183499758162281 0 1 0 I I #
coedge $-1 $343 $226 $462 $474 forward $128 $-1 #
vertex $-1 $474 $475 #
straight-curve $-1 52.398501250276965 -17.754404881083964 15.183499758162281 0 -1 0 I I #
point $-1 52.398501250276965 -32.059564571890128 15.183499758162281 #
point $-1 52.398501250276965 -32.059564571890128 -15.183499758162281 #
loop $-1 $-1 $239 $231 #
plane-surface $-1 0 -38.958054952445728 0 0 1 0 0 0 1 forward_v I I I I #
coedge $-1 $365 $234 $236 $369 reversed $136 $-1 #
coedge $-1 $234 $364 $476 $477 reversed $136 $-1 #
coedge $-1 $242 $237 $234 $367 forward $232 $-1 #
edge $-1 $370 -41.340993108986211 $478 -17.344930055045076 $366 $479 forward 7 unknown #
coedge $-1 $236 $235 $373 $480 reversed $85 $-1 #
edge $-1 $481 8.2634070795339233e-015 $370 27.994608694859547 $364 $482 forward 7 unknown #
vertex $-1 $238 $483 #
straight-curve $-1 -9.0633756077140575 -14.961991898504593 15.183499758162281 -1 0 0 I I #
coedge $-1 $476 $239 $242 $377 reversed $362 $-1 #
coedge $-1 $239 $476 $368 $480 forward $362 $-1 #
vertex $-1 $240 $484 #
straight-curve $-1 -7.2912458404547671 -38.958054952445728 61.667960966818733 0 0 1 I I #
straight-curve $-1 -7.2912458404547671 -38.958054952445735 0.76521019630416731 0 -0.85716729658548041 -0.51503808176128008 I I #
edge $-1 $478 -28.962256590401463 $243 -7.2912458404547671 $372 $485 forward 7 unknown #
point $-1 -7.2912458404547671 -38.958054952445728 15.183499758162281 #
point $-1 -7.2912458404547671 -14.961991898504593 15.183499758162281 #
edge $-1 $486 1 $486 0 $246 $-1 forward 7 unknown #
vertex $-1 $247 $487 #
ellipse-curve $-1 -18.126751215428115 -18.639282761332286 -5.8736827373410776 0 -0.51503808176128008 0.85716729658548041 5 0 0 1 I I #
point $-1 -13.126751215428115 -26.960023425475136 7.9743549772332116 #
plane-surface $-1 0 0 15.183499758162281 0 0 1 1 0 0 forward_v I I I I #
coedge $-1 $395 $394 $387 $488 forward $251 $-1 #
coedge $-1 $387 $253 $255 $391 reversed $151 $-1 #
coedge $-1 $253 $386 $385 $488 reversed $151 $-1 #
coedge $-1 $261 $256 $253 $389 forward $262 $-1 #
edge $-1 $392 -6.26752472590168 $489 6.1601099657389469 $388 $490 forward 7 unknown #
coedge $-1 $255 $254 $395 $491 reversed $94 $-1 #
edge $-1 $492 -77.916109904891456 $392 -62.145214990208402 $386 $493 forward 7 unknown #
vertex $-1 $257 $494 #
straight-curve $-1 -21.44053698082849 26.530420260805105 15.183499758162277 1 0 0 I I #
coedge $-1 $385 $258 $261 $399 reversed $251 $-1 #
coedge $-1 $258 $385 $390 $491 forward $251 $-1 #
vertex $-1 $259 $495 #
straight-curve $-1 -52.398501250276958 38.958054952445728 83.062790005687731 0 0 1 I I #
straight-curve $-1 -52.398501250276958 -22.440677061816316 53.443914983268826 0 0.78801074757464917 -0.61566148304635926 I I #
edge $-1 $489 33.363646673037003 $263 52.398501250276958 $394 $496 forward 7 unknown #
point $-1 -52.398501250276958 38.958054952445728 15.183499758162281 #
point $-1 -52.398501250276958 26.530420260805101 15.183499758162284 #
edge $-1 $497 1 $497 0 $266 $-1 forward 7 unknown #
vertex $-1 $267 $498 #
ellipse-curve $-1 -42.88107396165698 26.730795495691034 2.6318787269636426 0 0.61566148304635926 0.78801074757464917 2.5 0 0 1 I I #
point $-1 -40.38107396165698 32.744237606625425 10.328733482091254 #
loop $-1 $-1 $278 $270 #
plane-surface $-1 0 38.958054952445728 0 0 -1 0 0 0 -1 forward_v I I I I #
coedge $-1 $409 $273 $275 $413 reversed $166 $-1 #
coedge $-1 $273 $408 $499 $500 reversed $166 $-1 #
coedge $-1 $281 $276 $273 $411 forward $271 $-1 #
edge $-1 $414 -6.26752472590168 $501 6.1601099657389469 $410 $502 forward 7 unknown #
coedge $-1 $275 $274 $417 $503 reversed $103 $-1 #
edge $-1 $504 -77.916109904891456 $414 -62.145214990208402 $408 $505 forward 7 unknown #
vertex $-1 $277 $506 #
straight-curve $-1 21.440536980828497 26.530420260805105 15.183499758162277 1 0 0 I I #
coedge $-1 $499 $278 $281 $421 reversed $406 $-1 #
coedge $-1 $278 $499 $412 $503 forward $406 $-1 #
vertex $-1 $279 $507 #
straight-curve $-1 33.363646673037017 38.958054952445728 83.062790005687731 0 0 1 I I #
straight-curve $-1 33.363646673037017 -22.440677061816316 53.443914983268826 0 0.78801074757464917 -0.61566148304635926 I I #
edge $-1 $501 -52.398501250276972 $282 -33.363646673037017 $416 $508 forward 7 unknown #
point $-1 33.363646673037017 38.958054952445728 15.183499758162281 #
point $-1 33.363646673037017 26.530420260805101 15.183499758162284 #
edge $-1 $509 1 $509 0 $285 $-1 forward 7 unknown #
vertex $-1 $286 $510 #
ellipse-curve $-1 42.881073961656995 26.730795495691034 2.6318787269636426 0 0.61566148304635926 0.78801074757464917 2.5 0 0 1 I I #
point $-1 45.381073961656995 32.744237606625425 10.328733482091254 #
plane-surface $-1 71.497543259987182 0 0 -1 0 0 0 0 1 forward_v I I I I #
coedge $-1 $294 $292 $296 $433 reversed $181 $-1 #
edge $-1 $307 -15.183499758162281 $435 15.183499758162281 $306 $511 forward 7 unknown #
vertex $-1 $433 $512 #
straight-curve $-1 -71.497543259987182 -38.958054952445728 0 0 0 -1 I I #
edge $-1 $431 -38.958054952445728 $435 38.958054952445728 $429 $513 forward 7 unknown #
straight-curve $-1 0 -38.958054952445728 -15.183499758162281 -1 0 0 I I #
vertex $-1 $299 $514 #
straight-curve $-1 0 38.958054952445728 -15.183499758162281 1 0 0 I I #
point $-1 71.497543259987182 38.958054952445728 -15.183499758162281 #
point $-1 71.497543259987182 -38.958054952445728 -15.183499758162281 #
straight-curve $-1 -71.497543259987182 0 15.183499758162281 0 -1 0 I I #
point $-1 -71.497543259987182 38.958054952445728 15.183499758162281 #
point $-1 -71.497543259987182 -38.958054952445728 15.183499758162281 #
straight-curve $-1 71.497543259987182 -38.958054952445728 0 0 0 -1 I I #
straight-curve $-1 71.497543259987182 38.958054952445728 0 0 0 -1 I I #
plane-surface $-1 0 -38.958054952445728 0 0 1 0 0 0 1 forward_v I I I I #
coedge $-1 $515 $319 $331 $456 reversed $200 $-1 #
coedge $-1 $319 $515 $334 $458 reversed $200 $-1 #
edge $-1 $516 -71.497543259987182 $328 -52.398501250276965 $324 $517 forward 7 unknown #
straight-curve $-1 -52.398501250276965 -17.754404881083964 15.183499758162281 0 1 0 I I #
coedge $-1 $331 $322 $325 $452 forward $317 $-1 #
straight-curve $-1 -52.398501250276965 -17.754404881083964 -15.183499758162281 0 -1 0 I I #
coedge $-1 $325 $324 $515 $518 forward $326 $-1 #
edge $-1 $327 52.398501250276965 $519 71.497543259987182 $325 $520 forward 7 unknown #
point $-1 -52.398501250276965 -38.958054952445728 -15.183499758162281 #
point $-1 -52.398501250276965 -38.958054952445728 15.183499758162281 #
straight-curve $-1 -71.497543259987182 -32.059564571890128 0 0 0 -1 I I #
edge $-1 $519 -38.958054952445728 $332 -32.059564571890128 $445 $521 forward 7 unknown #
point $-1 -71.497543259987182 -32.059564571890128 -15.183499758162281 #
edge $-1 $335 32.059564571890128 $516 38.958054952445728 $446 $522 forward 7 unknown #
point $-1 -71.497543259987182 -32.059564571890128 15.183499758162281 #
plane-surface $-1 71.497543259987182 0 0 -1 0 0 0 0 1 forward_v I I I I #
coedge $-1 $523 $342 $354 $472 reversed $216 $-1 #
coedge $-1 $342 $523 $357 $474 reversed $216 $-1 #
edge $-1 $524 -38.958054952445728 $351 -32.059564571890128 $347 $525 forward 7 unknown #
straight-curve $-1 30.974011127566037 -32.059564571890128 15.183499758162281 -1 0 0 I I #
coedge $-1 $354 $345 $348 $468 forward $340 $-1 #
straight-curve $-1 30.974011127566037 -32.059564571890128 -15.183499758162281 1 0 0 I I #
coedge $-1 $348 $347 $523 $526 forward $349 $-1 #
edge $-1 $350 32.059564571890128 $527 38.958054952445728 $348 $528 forward 7 unknown #
point $-1 71.497543259987182 -32.059564571890128 -15.183499758162281 #
point $-1 71.497543259987182 -32.059564571890128 15.183499758162281 #
straight-curve $-1 52.398501250276965 -38.958054952445728 0 0 0 -1 I I #
edge $-1 $527 -71.497543259987182 $355 -52.398501250276965 $461 $529 forward 7 unknown #
point $-1 52.398501250276965 -38.958054952445728 -15.183499758162281 #
edge $-1 $358 52.398501250276965 $524 71.497543259987182 $462 $530 forward 7 unknown #
point $-1 52.398501250276965 -38.958054952445728 15.183499758162281 #
coedge $-1 $373 $372 $365 $477 forward $362 $-1 #
edge $-1 $478 46.484461208656455 $481 60.902750770514558 $476 $531 forward 7 unknown #
vertex $-1 $377 $532 #
straight-curve $-1 -28.962256590401463 -56.302985007490804 15.183499758162284 0 -1 0 I I #
edge $-1 $481 -19.898880982687405 $374 1.7721297672592904 $373 $533 forward 7 unknown #
vertex $-1 $480 $534 #
straight-curve $-1 -28.962256590401463 -38.958054952445735 0.76521019630416731 0 0.85716729658548041 0.51503808176128008 I I #
point $-1 -28.962256590401463 -14.961991898504593 15.183499758162281 #
point $-1 -7.2912458404547671 -38.958054952445728 0.76521019630417153 #
straight-curve $-1 0 -38.958054952445728 15.183499758162281 1 0 0 I I #
vertex $-1 $380 $535 #
point $-1 -13.126751215428115 -18.639282761332286 -5.8736827373410776 #
edge $-1 $489 67.879290247525446 $492 77.588822799667497 $385 $536 forward 7 unknown #
vertex $-1 $399 $537 #
straight-curve $-1 -33.363646673037003 32.797944986706781 15.183499758162284 0 1 0 I I #
edge $-1 $492 11.923109692208513 $396 30.957964269448468 $395 $538 forward 7 unknown #
vertex $-1 $491 $539 #
straight-curve $-1 -33.363646673037003 -22.440677061816316 53.443914983268826 0 -0.78801074757464917 0.61566148304635926 I I #
point $-1 -33.363646673037003 26.530420260805101 15.183499758162284 #
point $-1 -52.398501250276958 38.958054952445728 5.4739672060202267 #
straight-curve $-1 0 38.958054952445728 15.183499758162281 -1 0 0 I I #
vertex $-1 $402 $540 #
point $-1 -40.38107396165698 26.730795495691034 2.6318787269636426 #
coedge $-1 $417 $416 $409 $500 forward $406 $-1 #
edge $-1 $501 67.879290247525446 $504 77.588822799667497 $499 $541 forward 7 unknown #
vertex $-1 $421 $542 #
straight-curve $-1 52.398501250276972 32.797944986706781 15.183499758162284 0 1 0 I I #
edge $-1 $504 -30.957964269448475 $418 -11.92310969220852 $417 $543 forward 7 unknown #
vertex $-1 $503 $544 #
straight-curve $-1 52.398501250276972 -22.440677061816316 53.443914983268826 0 -0.78801074757464917 0.61566148304635926 I I #
point $-1 52.398501250276972 26.530420260805101 15.183499758162284 #
point $-1 33.363646673037017 38.958054952445728 5.4739672060202267 #
straight-curve $-1 0 38.958054952445728 15.183499758162281 -1 0 0 I I #
vertex $-1 $424 $545 #
point $-1 45.381073961656995 26.730795495691034 2.6318787269636426 #
straight-curve $-1 -71.497543259987182 38.958054952445728 0 0 0 -1 I I #
point $-1 -71.497543259987182 -38.958054952445728 -15.183499758162281 #
straight-curve $-1 -71.497543259987182 0 -15.183499758162281 0 1 0 I I #
point $-1 -71.497543259987182 38.958054952445728 -15.183499758162281 #
coedge $-1 $446 $445 $451 $518 reversed $200 $-1 #
vertex $-1 $458 $546 #
straight-curve $-1 0 -38.958054952445728 15.183499758162281 1 0 0 I I #
edge $-1 $516 -15.183499758162281 $519 15.183499758162281 $515 $547 forward 7 unknown #
vertex $-1 $456 $548 #
straight-curve $-1 0 -38.958054952445728 -15.183499758162281 -1 0 0 I I #
straight-curve $-1 -71.497543259987182 0 -15.183499758162281 0 1 0 I I #
straight-curve $-1 -71.497543259987182 0 15.183499758162281 0 -1 0 I I #
coedge $-1 $462 $461 $467 $526 reversed $216 $-1 #
vertex $-1 $463 $549 #
straight-curve $-1 71.497543259987182 0 15.183499758162281 0 1 0 I I #
edge $-1 $524 -15.183499758162281 $527 15.183499758162281 $467 $550 forward 7 unknown #
vertex $-1 $526 $551 #
straight-curve $-1 71.497543259987182 0 -15.183499758162281 0 -1 0 I I #
straight-curve $-1 0 -38.958054952445728 -15.183499758162281 -1 0 0 I I #
straight-curve $-1 0 -38.958054952445728 15.183499758162281 1 0 0 I I #
straight-curve $-1 -28.962256590401463 -38.958054952445728 61.667960966818733 0 0 -1 I I #
point $-1 -28.962256590401463 -38.958054952445728 15.183499758162281 #
straight-curve $-1 -9.0633756077140575 -38.958054952445728 0.76521019630417508 1 0 0 I I #
point $-1 -28.962256590401463 -38.958054952445728 0.76521019630417153 #
point $-1 -18.126751215428115 -16.064092352525886 -10.159519220268479 #
straight-curve $-1 -33.363646673037003 38.958054952445728 83.062790005687731 0 0 -1 I I #
point $-1 -33.363646673037003 38.958054952445728 15.183499758162281 #
straight-curve $-1 -21.44053698082849 38.958054952445735 5.4739672060202267 -1 0 0 I I #
point $-1 -33.363646673037003 38.958054952445728 5.4739672060202267 #
point $-1 -42.88107396165698 25.191641788075138 0.66185185802701962 #
straight-curve $-1 52.398501250276972 38.958054952445728 83.062790005687731 0 0 -1 I I #
point $-1 52.398501250276972 38.958054952445728 15.183499758162281 #
straight-curve $-1 21.440536980828497 38.958054952445735 5.4739672060202267 -1 0 0 I I #
point $-1 52.398501250276972 38.958054952445728 5.4739672060202267 #
point $-1 42.881073961656995 25.191641788075138 0.66185185802701962 #
point $-1 -71.497543259987182 -38.958054952445728 15.183499758162281 #
straight-curve $-1 -71.497543259987182 -38.958054952445728 0 0 0 -1 I I #
point $-1 -71.497543259987182 -38.958054952445728 -15.183499758162281 #
point $-1 71.497543259987182 -38.958054952445728 15.183499758162281 #
straight-curve $-1 71.497543259987182 -38.958054952445728 0 0 0 -1 I I #
point $-1 71.497543259987182 -38.958054952445728 -15.183499758162281 #
End-of-ACIS-data 