500 0 18 0           
7 Unknown 11 ACIS 5.0 NT 24 Fri Mar 26 19:08:05 1999 
-1 9.9999999999999995e-007 1e-010 
body $-1 $18 $-1 $19 #
body $-1 $20 $-1 $21 #
body $-1 $22 $-1 $23 #
body $-1 $24 $-1 $25 #
body $-1 $26 $-1 $27 #
body $-1 $28 $-1 $29 #
body $-1 $30 $-1 $31 #
body $-1 $32 $-1 $33 #
body $-1 $34 $-1 $35 #
body $-1 $36 $-1 $37 #
body $-1 $38 $-1 $39 #
body $-1 $40 $-1 $41 #
body $-1 $42 $-1 $43 #
body $-1 $44 $-1 $45 #
body $-1 $46 $-1 $47 #
body $-1 $48 $-1 $49 #
body $-1 $50 $-1 $51 #
body $-1 $52 $-1 $53 #
lump $-1 $-1 $54 $0 #
transform $-1 1 0 0 0 1 0 0 0 1 63.726310007019258 43.669063150932629 18.720776909313205 1 rotate no_reflect no_shear #
lump $-1 $-1 $55 $1 #
transform $-1 1 0 0 0 1 0 0 0 1 63.726310007019258 43.669063150932629 18.720776909313205 1 rotate no_reflect no_shear #
lump $-1 $-1 $56 $2 #
transform $-1 1 0 0 0 1 0 0 0 1 63.726310007019258 43.669063150932629 18.720776909313205 1 rotate no_reflect no_shear #
lump $-1 $-1 $57 $3 #
transform $-1 1 0 0 0 1 0 0 0 1 63.726310007019258 43.669063150932629 18.720776909313205 1 rotate no_reflect no_shear #
lump $-1 $-1 $58 $4 #
transform $-1 1 0 0 0 1 0 0 0 1 63.726310007019258 43.669063150932629 18.720776909313205 1 rotate no_reflect no_shear #
lump $-1 $-1 $59 $5 #
transform $-1 1 0 0 0 1 0 0 0 1 63.726310007019258 43.669063150932629 18.720776909313205 1 rotate no_reflect no_shear #
lump $-1 $-1 $60 $6 #
transform $-1 1 0 0 0 1 0 0 0 1 63.726310007019258 43.669063150932629 18.720776909313205 1 rotate no_reflect no_shear #
lump $-1 $-1 $61 $7 #
transform $-1 1 0 0 0 1 0 0 0 1 63.726310007019258 43.669063150932629 18.720776909313205 1 rotate no_reflect no_shear #
lump $-1 $-1 $62 $8 #
transform $-1 1 0 0 0 1 0 0 0 1 63.726310007019258 43.669063150932629 18.720776909313205 1 rotate no_reflect no_shear #
lump $-1 $-1 $63 $9 #
transform $-1 1 0 0 0 1 0 0 0 1 63.726310007019258 43.669063150932629 18.720776909313205 1 rotate no_reflect no_shear #
lump $-1 $-1 $64 $10 #
transform $-1 1 0 0 0 1 0 0 0 1 63.726310007019258 43.669063150932629 18.720776909313205 1 rotate no_reflect no_shear #
lump $-1 $-1 $65 $11 #
transform $-1 1 0 0 0 1 0 0 0 1 63.726310007019258 43.669063150932629 18.720776909313205 1 rotate no_reflect no_shear #
lump $-1 $-1 $66 $12 #
transform $-1 1 0 0 0 1 0 0 0 1 63.726310007019258 43.669063150932629 18.720776909313205 1 rotate no_reflect no_shear #
lump $-1 $-1 $67 $13 #
transform $-1 1 0 0 0 1 0 0 0 1 63.726310007019258 43.669063150932629 18.720776909313205 1 rotate no_reflect no_shear #
lump $-1 $-1 $68 $14 #
transform $-1 1 0 0 0 1 0 0 0 1 63.726310007019258 43.669063150932629 18.720776909313205 1 rotate no_reflect no_shear #
lump $-1 $-1 $69 $15 #
transform $-1 1 0 0 0 1 0 0 0 1 63.726310007019258 43.669063150932629 18.720776909313205 1 rotate no_reflect no_shear #
lump $-1 $-1 $70 $16 #
transform $-1 1 0 0 0 1 0 0 0 1 63.726310007019258 43.669063150932629 18.720776909313205 1 rotate no_reflect no_shear #
lump $-1 $-1 $71 $17 #
transform $-1 1 0 0 0 1 0 0 0 1 63.726310007019258 43.669063150932629 18.720776909313205 1 rotate no_reflect no_shear #
shell $-1 $-1 $-1 $72 $-1 $18 #
shell $-1 $-1 $-1 $73 $-1 $20 #
shell $-1 $-1 $-1 $74 $-1 $22 #
shell $-1 $-1 $-1 $75 $-1 $24 #
shell $-1 $-1 $-1 $76 $-1 $26 #
shell $-1 $-1 $-1 $77 $-1 $28 #
shell $-1 $-1 $-1 $78 $-1 $30 #
shell $-1 $-1 $-1 $79 $-1 $32 #
shell $-1 $-1 $-1 $80 $-1 $34 #
shell $-1 $-1 $-1 $81 $-1 $36 #
shell $-1 $-1 $-1 $82 $-1 $38 #
shell $-1 $-1 $-1 $83 $-1 $40 #
shell $-1 $-1 $-1 $84 $-1 $42 #
shell $-1 $-1 $-1 $85 $-1 $44 #
shell $-1 $-1 $-1 $86 $-1 $46 #
shell $-1 $-1 $-1 $87 $-1 $48 #
shell $-1 $-1 $-1 $88 $-1 $50 #
shell $-1 $-1 $-1 $89 $-1 $52 #
face $-1 $90 $91 $54 $-1 $92 forward single #
face $-1 $93 $94 $55 $-1 $95 reversed single #
face $-1 $96 $97 $56 $-1 $98 reversed single #
face $-1 $99 $100 $57 $-1 $101 forward single #
face $-1 $102 $103 $58 $-1 $104 forward single #
face $-1 $105 $106 $59 $-1 $107 forward single #
face $-1 $108 $109 $60 $-1 $110 reversed single #
face $-1 $111 $112 $61 $-1 $113 forward single #
face $-1 $114 $115 $62 $-1 $116 forward single #
face $-1 $117 $118 $63 $-1 $119 forward single #
face $-1 $120 $121 $64 $-1 $122 reversed single #
face $-1 $123 $124 $65 $-1 $125 forward single #
face $-1 $126 $127 $66 $-1 $128 forward single #
face $-1 $129 $130 $67 $-1 $131 forward single #
face $-1 $132 $133 $68 $-1 $134 reversed single #
face $-1 $135 $136 $69 $-1 $137 forward single #
face $-1 $138 $139 $70 $-1 $140 forward single #
face $-1 $141 $142 $71 $-1 $143 forward single #
face $-1 $144 $145 $54 $-1 $146 reversed single #
loop $-1 $-1 $147 $72 #
plane-surface $-1 0 0 18.720776909313205 0 0 1 1 0 0 forward_v I I I I #
face $-1 $148 $149 $55 $-1 $150 reversed single #
loop $-1 $-1 $151 $73 #
plane-surface $-1 -56.537130600037315 -38.628216730116861 0 0 -1 0 0 0 -1 forward_v I I I I #
face $-1 $152 $153 $56 $-1 $154 reversed single #
loop $-1 $-1 $155 $74 #
plane-surface $-1 -49.34795119305538 105.4728613922359 143.62973925202849 1 0 0 0 -0.84804810408105047 -0.52991925155115449 forward_v I I I I #
face $-1 $156 $157 $57 $-1 $158 forward single #
loop $-1 $159 $160 $75 #
cone-surface $-1 -45.003735184890154 36.047428940457522 8.8693479509497433 0 -0.84804810408105047 -0.52991925155115449 1.5 0 0 1 I I 0 1 1.5 forward I I I I #
face $-1 $161 $162 $58 $-1 $163 forward single #
loop $-1 $164 $165 $76 #
cone-surface $-1 -38.487411172642311 36.047428940457522 8.8693479509497433 0 -0.84804810408105047 -0.52991925155115449 1.5 0 0 1 I I 0 1 1.5 forward I I I I #
face $-1 $166 $167 $59 $-1 $168 forward single #
loop $-1 $169 $170 $77 #
cone-surface $-1 -31.971087160394475 36.047428940457522 8.8693479509497433 0 -0.84804810408105047 -0.52991925155115449 1.5 0 0 1 I I 0 1 1.5 forward I I I I #
face $-1 $171 $172 $60 $-1 $173 reversed single #
loop $-1 $-1 $174 $78 #
plane-surface $-1 42.005229966193113 105.4728613922359 143.62973925202849 1 0 0 0 -0.84804810408105047 -0.52991925155115449 forward_v I I I I #
face $-1 $175 $176 $61 $-1 $177 forward single #
loop $-1 $178 $179 $79 #
cone-surface $-1 46.349445974358339 36.047428940457522 8.8693479509497433 0 -0.84804810408105047 -0.52991925155115449 1.5 0 0 1 I I 0 1 1.5 forward I I I I #
face $-1 $180 $181 $62 $-1 $182 forward single #
loop $-1 $183 $184 $80 #
cone-surface $-1 52.865769986606175 36.047428940457522 8.8693479509497433 0 -0.84804810408105047 -0.52991925155115449 1.5 0 0 1 I I 0 1 1.5 forward I I I I #
face $-1 $185 $186 $63 $-1 $187 forward single #
loop $-1 $188 $189 $81 #
cone-surface $-1 59.38209399885401 36.047428940457522 8.8693479509497433 0 -0.84804810408105047 -0.52991925155115449 1.5 0 0 1 I I 0 1 1.5 forward I I I I #
face $-1 $190 $191 $64 $-1 $192 reversed single #
loop $-1 $-1 $193 $82 #
plane-surface $-1 -38.487411172642311 -43.669063150932644 2.0232098216673506 0 -0.84804810408105047 0.52991925155115449 1 0 0 forward_v I I I I #
face $-1 $194 $195 $65 $-1 $196 forward single #
loop $-1 $197 $198 $83 #
cone-surface $-1 -45.003735184890154 -36.047428940457522 8.8693479509497362 0 0.84804810408105047 -0.52991925155115449 1.5 0 0 1 I I 0 1 1.5 forward I I I I #
face $-1 $199 $200 $66 $-1 $201 forward single #
loop $-1 $202 $203 $84 #
cone-surface $-1 -38.487411172642311 -36.047428940457522 8.8693479509497362 0 0.84804810408105047 -0.52991925155115449 1.5 0 0 1 I I 0 1 1.5 forward I I I I #
face $-1 $204 $205 $67 $-1 $206 forward single #
loop $-1 $207 $208 $85 #
cone-surface $-1 -31.971087160394475 -36.047428940457522 8.8693479509497362 0 0.84804810408105047 -0.52991925155115449 1.5 0 0 1 I I 0 1 1.5 forward I I I I #
face $-1 $209 $210 $68 $-1 $211 reversed single #
loop $-1 $-1 $212 $86 #
plane-surface $-1 42.005229966193113 -151.75501591400055 69.562806827740332 1 0 0 0 0.84804810408105047 -0.52991925155115449 forward_v I I I I #
face $-1 $213 $214 $69 $-1 $215 forward single #
loop $-1 $216 $217 $87 #
cone-surface $-1 46.349445974358339 -36.047428940457522 8.8693479509497362 0 0.84804810408105047 -0.52991925155115449 1.5 0 0 1 I I 0 1 1.5 forward I I I I #
face $-1 $218 $219 $70 $-1 $220 forward single #
loop $-1 $221 $222 $88 #
cone-surface $-1 52.865769986606175 -36.047428940457522 8.8693479509497362 0 0.84804810408105047 -0.52991925155115449 1.5 0 0 1 I I 0 1 1.5 forward I I I I #
face $-1 $223 $224 $71 $-1 $225 forward single #
loop $-1 $226 $227 $89 #
cone-surface $-1 59.38209399885401 -36.047428940457522 8.8693479509497362 0 0.84804810408105047 -0.52991925155115449 1.5 0 0 1 I I 0 1 1.5 forward I I I I #
face $-1 $228 $229 $54 $-1 $230 reversed single #
loop $-1 $-1 $231 $90 #
plane-surface $-1 0 0 -18.720776909313205 0 0 1 1 0 0 forward_v I I I I #
coedge $-1 $232 $233 $234 $235 forward $91 $-1 #
face $-1 $236 $237 $55 $-1 $238 forward single #
loop $-1 $-1 $239 $93 #
plane-surface $-1 -49.347951193055373 -41.148639940524745 0 -1 0 0 0 0 1 forward_v I I I I #
coedge $-1 $240 $241 $242 $243 forward $94 $-1 #
face $-1 $244 $245 $56 $-1 $246 reversed single #
loop $-1 $-1 $247 $96 #
plane-surface $-1 -38.487411172642311 -2.6130913708320094 76.090142245955505 0 0.84804810408105047 0.52991925155115449 1 0 0 forward_v I I I I #
coedge $-1 $248 $249 $250 $251 reversed $97 $-1 #
face $-1 $-1 $252 $57 $-1 $253 forward single #
loop $-1 $254 $255 $99 #
cone-surface $-1 -45.003735184890154 33.006657440580923 6.9692630977458414 0 -0.84804810408105047 -0.52991925155115449 0.75 0 0 1 I I -0.70710678118654757 0.70710678118654757 0.75 forward I I I I #
loop $-1 $-1 $256 $75 #
coedge $-1 $160 $160 $257 $258 reversed $100 $-1 #
face $-1 $-1 $259 $58 $-1 $260 forward single #
loop $-1 $261 $262 $102 #
cone-surface $-1 -38.487411172642311 33.006657440580923 6.9692630977458414 0 -0.84804810408105047 -0.52991925155115449 0.75 0 0 1 I I -0.70710678118654757 0.70710678118654757 0.75 forward I I I I #
loop $-1 $-1 $263 $76 #
coedge $-1 $165 $165 $264 $265 reversed $103 $-1 #
face $-1 $-1 $266 $59 $-1 $267 forward single #
loop $-1 $268 $269 $105 #
cone-surface $-1 -31.971087160394475 33.006657440580923 6.9692630977458414 0 -0.84804810408105047 -0.52991925155115449 0.75 0 0 1 I I -0.70710678118654757 0.70710678118654757 0.75 forward I I I I #
loop $-1 $-1 $270 $77 #
coedge $-1 $170 $170 $271 $272 reversed $106 $-1 #
face $-1 $273 $274 $60 $-1 $275 forward single #
loop $-1 $-1 $276 $108 #
plane-surface $-1 52.865769986606175 -2.6130913708320094 76.090142245955505 0 0.84804810408105047 0.52991925155115449 1 0 0 forward_v I I I I #
coedge $-1 $277 $278 $279 $280 reversed $109 $-1 #
face $-1 $-1 $281 $61 $-1 $282 forward single #
loop $-1 $283 $284 $111 #
cone-surface $-1 46.349445974358339 33.006657440580923 6.9692630977458414 0 -0.84804810408105047 -0.52991925155115449 0.75 0 0 1 I I -0.70710678118654757 0.70710678118654757 0.75 forward I I I I #
loop $-1 $-1 $285 $79 #
coedge $-1 $179 $179 $286 $287 reversed $112 $-1 #
face $-1 $-1 $288 $62 $-1 $289 forward single #
loop $-1 $290 $291 $114 #
cone-surface $-1 52.865769986606175 33.006657440580923 6.9692630977458414 0 -0.84804810408105047 -0.52991925155115449 0.75 0 0 1 I I -0.70710678118654757 0.70710678118654757 0.75 forward I I I I #
loop $-1 $-1 $292 $80 #
coedge $-1 $184 $184 $293 $294 reversed $115 $-1 #
face $-1 $-1 $295 $63 $-1 $296 forward single #
loop $-1 $297 $298 $117 #
cone-surface $-1 59.38209399885401 33.006657440580923 6.9692630977458414 0 -0.84804810408105047 -0.52991925155115449 0.75 0 0 1 I I -0.70710678118654757 0.70710678118654757 0.75 forward I I I I #
loop $-1 $-1 $299 $81 #
coedge $-1 $189 $189 $300 $301 reversed $118 $-1 #
face $-1 $302 $303 $64 $-1 $304 forward single #
loop $-1 $-1 $305 $120 #
plane-surface $-1 -27.626871152229246 -151.75501591400055 69.562806827740332 -1 0 0 0 -0.84804810408105047 0.52991925155115449 forward_v I I I I #
coedge $-1 $306 $307 $308 $309 reversed $121 $-1 #
face $-1 $-1 $310 $65 $-1 $311 forward single #
loop $-1 $312 $313 $123 #
cone-surface $-1 -45.003735184890154 -33.006657440580923 6.9692630977458343 0 0.84804810408105047 -0.52991925155115449 0.75 0 0 1 I I -0.70710678118654757 0.70710678118654757 0.75 forward I I I I #
loop $-1 $-1 $314 $83 #
coedge $-1 $198 $198 $315 $316 reversed $124 $-1 #
face $-1 $-1 $317 $66 $-1 $318 forward single #
loop $-1 $319 $320 $126 #
cone-surface $-1 -38.487411172642311 -33.006657440580923 6.9692630977458343 0 0.84804810408105047 -0.52991925155115449 0.75 0 0 1 I I -0.70710678118654757 0.70710678118654757 0.75 forward I I I I #
loop $-1 $-1 $321 $84 #
coedge $-1 $203 $203 $322 $323 reversed $127 $-1 #
face $-1 $-1 $324 $67 $-1 $325 forward single #
loop $-1 $326 $327 $129 #
cone-surface $-1 -31.971087160394475 -33.006657440580923 6.9692630977458343 0 0.84804810408105047 -0.52991925155115449 0.75 0 0 1 I I -0.70710678118654757 0.70710678118654757 0.75 forward I I I I #
loop $-1 $-1 $328 $85 #
coedge $-1 $208 $208 $329 $330 reversed $130 $-1 #
face $-1 $331 $332 $68 $-1 $333 reversed single #
loop $-1 $-1 $334 $132 #
plane-surface $-1 52.865769986606175 -43.669063150932644 2.0232098216673506 0 -0.84804810408105047 0.52991925155115449 1 0 0 forward_v I I I I #
coedge $-1 $335 $336 $337 $338 reversed $133 $-1 #
face $-1 $-1 $339 $69 $-1 $340 forward single #
loop $-1 $341 $342 $135 #
cone-surface $-1 46.349445974358339 -33.006657440580923 6.9692630977458343 0 0.84804810408105047 -0.52991925155115449 0.75 0 0 1 I I -0.70710678118654757 0.70710678118654757 0.75 forward I I I I #
loop $-1 $-1 $343 $87 #
coedge $-1 $217 $217 $344 $345 reversed $136 $-1 #
face $-1 $-1 $346 $70 $-1 $347 forward single #
loop $-1 $348 $349 $138 #
cone-surface $-1 52.865769986606175 -33.006657440580923 6.9692630977458343 0 0.84804810408105047 -0.52991925155115449 0.75 0 0 1 I I -0.70710678118654757 0.70710678118654757 0.75 forward I I I I #
loop $-1 $-1 $350 $88 #
coedge $-1 $222 $222 $351 $352 reversed $139 $-1 #
face $-1 $-1 $353 $71 $-1 $354 forward single #
loop $-1 $355 $356 $141 #
cone-surface $-1 59.38209399885401 -33.006657440580923 6.9692630977458343 0 0.84804810408105047 -0.52991925155115449 0.75 0 0 1 I I -0.70710678118654757 0.70710678118654757 0.75 forward I I I I #
loop $-1 $-1 $357 $89 #
coedge $-1 $227 $227 $358 $359 reversed $142 $-1 #
face $-1 $360 $361 $54 $-1 $362 reversed single #
loop $-1 $-1 $363 $144 #
plane-surface $-1 0 -43.669063150932629 0 0 1 0 0 0 1 forward_v I I I I #
coedge $-1 $364 $365 $366 $367 forward $145 $-1 #
coedge $-1 $368 $147 $369 $370 forward $91 $-1 #
coedge $-1 $147 $368 $371 $372 forward $91 $-1 #
coedge $-1 $373 $374 $147 $235 reversed $375 $-1 #
edge $-1 $376 -43.669063150932629 $377 43.669063150932629 $234 $378 forward 7 unknown #
face $-1 $379 $380 $55 $-1 $381 reversed single #
loop $-1 $-1 $382 $148 #
plane-surface $-1 0 0 18.720776909313205 0 0 1 1 0 0 forward_v I I I I #
coedge $-1 $383 $384 $385 $386 reversed $149 $-1 #
coedge $-1 $387 $151 $388 $389 reversed $94 $-1 #
coedge $-1 $151 $387 $390 $391 reversed $94 $-1 #
coedge $-1 $384 $383 $151 $243 reversed $149 $-1 #
edge $-1 $392 -18.720776909313205 $393 18.720776909313205 $242 $394 forward 7 unknown #
face $-1 $395 $396 $56 $-1 $397 reversed single #
loop $-1 $-1 $398 $152 #
plane-surface $-1 -27.626871152229246 105.4728613922359 143.62973925202849 -1 0 0 0 0.84804810408105047 0.52991925155115449 forward_v I I I I #
coedge $-1 $399 $400 $401 $402 reversed $153 $-1 #
coedge $-1 $249 $155 $403 $404 reversed $97 $-1 #
coedge $-1 $155 $248 $399 $405 reversed $97 $-1 #
coedge $-1 $401 $406 $155 $251 forward $407 $-1 #
edge $-1 $408 9.06736754518532 $409 19.501165122503906 $250 $410 forward 7 unknown #
loop $-1 $-1 $257 $156 #
plane-surface $-1 -38.487411172642311 -2.6130913708320094 76.090142245955505 0 0.84804810408105047 0.52991925155115449 1 0 0 forward_v I I I I #
loop $-1 $-1 $411 $99 #
coedge $-1 $255 $255 $256 $412 reversed $157 $-1 #
coedge $-1 $256 $256 $255 $412 forward $159 $-1 #
coedge $-1 $257 $257 $160 $258 forward $252 $-1 #
edge $-1 $413 -1.004290699883193e-015 $413 6.2831853071795996 $257 $414 forward 7 unknown #
loop $-1 $-1 $264 $161 #
plane-surface $-1 -38.487411172642311 -2.6130913708320094 76.090142245955505 0 0.84804810408105047 0.52991925155115449 1 0 0 forward_v I I I I #
loop $-1 $-1 $415 $102 #
coedge $-1 $262 $262 $263 $416 reversed $162 $-1 #
coedge $-1 $263 $263 $262 $416 forward $164 $-1 #
coedge $-1 $264 $264 $165 $265 forward $259 $-1 #
edge $-1 $417 -1.004290699883193e-015 $417 6.2831853071795996 $264 $418 forward 7 unknown #
loop $-1 $-1 $271 $166 #
plane-surface $-1 -38.487411172642311 -2.6130913708320094 76.090142245955505 0 0.84804810408105047 0.52991925155115449 1 0 0 forward_v I I I I #
loop $-1 $-1 $419 $105 #
coedge $-1 $269 $269 $270 $420 reversed $167 $-1 #
coedge $-1 $270 $270 $269 $420 forward $169 $-1 #
coedge $-1 $271 $271 $170 $272 forward $266 $-1 #
edge $-1 $421 -1.004290699883193e-015 $421 6.2831853071795996 $271 $422 forward 7 unknown #
face $-1 $423 $424 $60 $-1 $425 reversed single #
loop $-1 $-1 $279 $171 #
plane-surface $-1 0 0 18.720776909313205 0 0 1 1 0 0 forward_v I I I I #
coedge $-1 $426 $427 $428 $429 reversed $172 $-1 #
coedge $-1 $278 $174 $430 $431 reversed $109 $-1 #
coedge $-1 $174 $277 $426 $432 reversed $109 $-1 #
coedge $-1 $428 $433 $174 $280 forward $274 $-1 #
edge $-1 $434 9.06736754518532 $435 19.501165122503906 $279 $436 forward 7 unknown #
loop $-1 $-1 $286 $175 #
plane-surface $-1 52.865769986606175 -2.6130913708320094 76.090142245955505 0 0.84804810408105047 0.52991925155115449 1 0 0 forward_v I I I I #
loop $-1 $-1 $437 $111 #
coedge $-1 $284 $284 $285 $438 reversed $176 $-1 #
coedge $-1 $285 $285 $284 $438 forward $178 $-1 #
coedge $-1 $286 $286 $179 $287 forward $281 $-1 #
edge $-1 $439 -1.004290699883193e-015 $439 6.2831853071795996 $286 $440 forward 7 unknown #
loop $-1 $-1 $293 $180 #
plane-surface $-1 52.865769986606175 -2.6130913708320094 76.090142245955505 0 0.84804810408105047 0.52991925155115449 1 0 0 forward_v I I I I #
loop $-1 $-1 $441 $114 #
coedge $-1 $291 $291 $292 $442 reversed $181 $-1 #
coedge $-1 $292 $292 $291 $442 forward $183 $-1 #
coedge $-1 $293 $293 $184 $294 forward $288 $-1 #
edge $-1 $443 -1.004290699883193e-015 $443 6.2831853071795996 $293 $444 forward 7 unknown #
loop $-1 $-1 $300 $185 #
plane-surface $-1 52.865769986606175 -2.6130913708320094 76.090142245955505 0 0.84804810408105047 0.52991925155115449 1 0 0 forward_v I I I I #
loop $-1 $-1 $445 $117 #
coedge $-1 $298 $298 $299 $446 reversed $186 $-1 #
coedge $-1 $299 $299 $298 $446 forward $188 $-1 #
coedge $-1 $300 $300 $189 $301 forward $295 $-1 #
edge $-1 $447 -1.004290699883193e-015 $447 6.2831853071795996 $300 $448 forward 7 unknown #
face $-1 $449 $450 $64 $-1 $451 forward single #
loop $-1 $-1 $452 $190 #
plane-surface $-1 0 0 18.720776909313205 0 0 1 1 0 0 forward_v I I I I #
coedge $-1 $453 $454 $455 $456 reversed $191 $-1 #
coedge $-1 $457 $193 $458 $459 reversed $121 $-1 #
coedge $-1 $193 $457 $453 $460 forward $121 $-1 #
coedge $-1 $455 $461 $193 $309 forward $462 $-1 #
edge $-1 $463 -30.104245606734217 $464 -8.3831655659080901 $308 $465 forward 7 unknown #
loop $-1 $-1 $315 $194 #
plane-surface $-1 -38.487411172642311 -43.669063150932644 2.0232098216673506 0 -0.84804810408105047 0.52991925155115449 1 0 0 forward_v I I I I #
loop $-1 $-1 $466 $123 #
coedge $-1 $313 $313 $314 $467 reversed $195 $-1 #
coedge $-1 $314 $314 $313 $467 forward $197 $-1 #
coedge $-1 $315 $315 $198 $316 forward $310 $-1 #
edge $-1 $468 -1.0498363612714471e-018 $468 6.2831853071796004 $315 $469 forward 7 unknown #
loop $-1 $-1 $322 $199 #
plane-surface $-1 -38.487411172642311 -43.669063150932644 2.0232098216673506 0 -0.84804810408105047 0.52991925155115449 1 0 0 forward_v I I I I #
loop $-1 $-1 $470 $126 #
coedge $-1 $320 $320 $321 $471 reversed $200 $-1 #
coedge $-1 $321 $321 $320 $471 forward $202 $-1 #
coedge $-1 $322 $322 $203 $323 forward $317 $-1 #
edge $-1 $472 -1.0498363612714471e-018 $472 6.2831853071796004 $322 $473 forward 7 unknown #
loop $-1 $-1 $329 $204 #
plane-surface $-1 -38.487411172642311 -43.669063150932644 2.0232098216673506 0 -0.84804810408105047 0.52991925155115449 1 0 0 forward_v I I I I #
loop $-1 $-1 $474 $129 #
coedge $-1 $327 $327 $328 $475 reversed $205 $-1 #
coedge $-1 $328 $328 $327 $475 forward $207 $-1 #
coedge $-1 $329 $329 $208 $330 forward $324 $-1 #
edge $-1 $476 -1.0498363612714471e-018 $476 6.2831853071796004 $329 $477 forward 7 unknown #
face $-1 $478 $479 $68 $-1 $480 forward single #
loop $-1 $-1 $337 $209 #
plane-surface $-1 0 -43.669063150932629 0 0 1 0 0 0 1 forward_v I I I I #
coedge $-1 $481 $482 $483 $484 reversed $210 $-1 #
coedge $-1 $336 $212 $485 $486 reversed $133 $-1 #
coedge $-1 $212 $335 $481 $487 reversed $133 $-1 #
coedge $-1 $483 $488 $212 $338 forward $332 $-1 #
edge $-1 $489 16.060626504556961 $490 32.758193592202794 $337 $491 forward 7 unknown #
loop $-1 $-1 $344 $213 #
plane-surface $-1 52.865769986606175 -43.669063150932644 2.0232098216673506 0 -0.84804810408105047 0.52991925155115449 1 0 0 forward_v I I I I #
loop $-1 $-1 $492 $135 #
coedge $-1 $342 $342 $343 $493 reversed $214 $-1 #
coedge $-1 $343 $343 $342 $493 forward $216 $-1 #
coedge $-1 $344 $344 $217 $345 forward $339 $-1 #
edge $-1 $494 -1.0498363612714471e-018 $494 6.2831853071796004 $344 $495 forward 7 unknown #
loop $-1 $-1 $351 $218 #
plane-surface $-1 52.865769986606175 -43.669063150932644 2.0232098216673506 0 -0.84804810408105047 0.52991925155115449 1 0 0 forward_v I I I I #
loop $-1 $-1 $496 $138 #
coedge $-1 $349 $349 $350 $497 reversed $219 $-1 #
coedge $-1 $350 $350 $349 $497 forward $221 $-1 #
coedge $-1 $351 $351 $222 $352 forward $346 $-1 #
edge $-1 $498 -1.0498363612714471e-018 $498 6.2831853071796004 $351 $499 forward 7 unknown #
loop $-1 $-1 $358 $223 #
plane-surface $-1 52.865769986606175 -43.669063150932644 2.0232098216673506 0 -0.84804810408105047 0.52991925155115449 1 0 0 forward_v I I I I #
loop $-1 $-1 $500 $141 #
coedge $-1 $356 $356 $357 $501 reversed $224 $-1 #
coedge $-1 $357 $357 $356 $501 forward $226 $-1 #
coedge $-1 $358 $358 $227 $359 forward $353 $-1 #
edge $-1 $502 -1.0498363612714471e-018 $502 6.2831853071796004 $358 $503 forward 7 unknown #
face $-1 $504 $505 $54 $-1 $506 reversed single #
loop $-1 $-1 $507 $228 #
plane-surface $-1 -63.726310007019258 0 0 1 0 0 0 0 -1 forward_v I I I I #
coedge $-1 $508 $371 $509 $510 forward $229 $-1 #
coedge $-1 $511 $231 $508 $512 forward $145 $-1 #
coedge $-1 $231 $511 $513 $514 forward $145 $-1 #
coedge $-1 $374 $373 $231 $367 reversed $375 $-1 #
edge $-1 $515 -43.669063150932629 $516 43.669063150932629 $366 $517 forward 7 unknown #
coedge $-1 $233 $232 $518 $519 forward $91 $-1 #
coedge $-1 $520 $521 $232 $370 reversed $505 $-1 #
edge $-1 $377 -63.726310007019258 $522 63.726310007019258 $369 $523 forward 7 unknown #
coedge $-1 $363 $524 $233 $372 reversed $229 $-1 #
edge $-1 $525 -63.726310007019258 $376 63.726310007019258 $371 $526 forward 7 unknown #
coedge $-1 $366 $234 $524 $527 forward $375 $-1 #
coedge $-1 $234 $366 $520 $528 reversed $375 $-1 #
loop $-1 $-1 $373 $504 #
vertex $-1 $235 $529 #
vertex $-1 $235 $530 #
straight-curve $-1 63.726310007019258 0 18.720776909313205 0 1 0 I I #
face $-1 $531 $532 $55 $-1 $533 reversed single #
loop $-1 $-1 $534 $236 #
plane-surface $-1 -63.726310007019258 0 0 1 0 0 0 0 -1 forward_v I I I I #
coedge $-1 $390 $535 $384 $536 forward $237 $-1 #
coedge $-1 $242 $239 $537 $538 reversed $149 $-1 #
coedge $-1 $239 $242 $382 $536 reversed $149 $-1 #
coedge $-1 $539 $540 $239 $386 forward $541 $-1 #
edge $-1 $542 -18.720776909313205 $543 18.720776909313205 $385 $544 forward 7 unknown #
coedge $-1 $241 $240 $534 $545 reversed $94 $-1 #
coedge $-1 $537 $546 $240 $389 forward $532 $-1 #
edge $-1 $547 -35.4577447070006 $393 -21.079385893036715 $388 $548 forward 7 unknown #
coedge $-1 $549 $382 $241 $391 forward $237 $-1 #
edge $-1 $392 21.079385893036715 $550 35.4577447070006 $390 $551 forward 7 unknown #
vertex $-1 $391 $552 #
vertex $-1 $389 $553 #
straight-curve $-1 -49.347951193055373 -38.628216730116861 0 0 0 -1 I I #
face $-1 $-1 $407 $56 $-1 $554 forward single #
loop $-1 $-1 $555 $244 #
plane-surface $-1 0 43.669063150932629 0 0 -1 0 0 0 -1 forward_v I I I I #
coedge $-1 $556 $557 $558 $559 reversed $245 $-1 #
coedge $-1 $560 $247 $249 $405 forward $153 $-1 #
coedge $-1 $247 $560 $556 $561 forward $153 $-1 #
coedge $-1 $558 $250 $247 $402 forward $407 $-1 #
edge $-1 $409 -30.104245606734224 $562 -8.3831655659080901 $401 $563 forward 7 unknown #
coedge $-1 $564 $565 $248 $404 forward $396 $-1 #
edge $-1 $566 -69.791659804346892 $408 -53.094092716701041 $403 $567 forward 7 unknown #
edge $-1 $409 67.648715987412132 $566 87.338126301865245 $249 $568 forward 7 unknown #
coedge $-1 $250 $558 $564 $569 forward $407 $-1 #
loop $-1 $-1 $558 $395 #
vertex $-1 $404 $570 #
vertex $-1 $251 $571 #
straight-curve $-1 -49.34795119305538 52.736430696117949 18.720776909313201 0 -1 0 I I #
coedge $-1 $411 $411 $-1 $572 reversed $254 $-1 #
edge $-1 $573 0 $573 6.2831853071796004 $255 $574 forward 7 unknown #
vertex $-1 $258 $575 #
ellipse-curve $-1 -45.003735184890154 38.452164362273336 10.371993365490278 0 0.84804810408105047 0.52991925155115449 1.5 0 0 1 I I #
coedge $-1 $415 $415 $-1 $576 reversed $261 $-1 #
edge $-1 $577 0 $577 6.2831853071796004 $262 $578 forward 7 unknown #
vertex $-1 $265 $579 #
ellipse-curve $-1 -38.487411172642311 38.452164362273336 10.371993365490278 0 0.84804810408105047 0.52991925155115449 1.5 0 0 1 I I #
coedge $-1 $419 $419 $-1 $580 reversed $268 $-1 #
edge $-1 $581 0 $581 6.2831853071796004 $269 $582 forward 7 unknown #
vertex $-1 $272 $583 #
ellipse-curve $-1 -31.971087160394475 38.452164362273336 10.371993365490278 0 0.84804810408105047 0.52991925155115449 1.5 0 0 1 I I #
face $-1 $-1 $584 $60 $-1 $585 reversed single #
loop $-1 $-1 $586 $273 #
plane-surface $-1 63.726310007019258 0 0 -1 0 0 0 0 1 forward_v I I I I #
coedge $-1 $587 $276 $278 $432 forward $172 $-1 #
coedge $-1 $276 $587 $586 $588 reversed $172 $-1 #
coedge $-1 $589 $279 $276 $429 forward $274 $-1 #
edge $-1 $435 15.572344972890026 $590 37.293425013716146 $428 $591 forward 7 unknown #
coedge $-1 $592 $593 $277 $431 forward $584 $-1 #
edge $-1 $594 -69.791659804346892 $434 -53.094092716701041 $430 $595 forward 7 unknown #
edge $-1 $435 67.648715987412132 $594 87.338126301865245 $278 $596 forward 7 unknown #
coedge $-1 $279 $589 $592 $597 forward $274 $-1 #
vertex $-1 $431 $598 #
vertex $-1 $280 $599 #
straight-curve $-1 42.005229966193113 52.736430696117949 18.720776909313201 0 -1 0 I I #
coedge $-1 $437 $437 $-1 $600 reversed $283 $-1 #
edge $-1 $601 0 $601 6.2831853071796004 $284 $602 forward 7 unknown #
vertex $-1 $287 $603 #
ellipse-curve $-1 46.349445974358339 38.452164362273336 10.371993365490278 0 0.84804810408105047 0.52991925155115449 1.5 0 0 1 I I #
coedge $-1 $441 $441 $-1 $604 reversed $290 $-1 #
edge $-1 $605 0 $605 6.2831853071796004 $291 $606 forward 7 unknown #
vertex $-1 $294 $607 #
ellipse-curve $-1 52.865769986606175 38.452164362273336 10.371993365490278 0 0.84804810408105047 0.52991925155115449 1.5 0 0 1 I I #
coedge $-1 $445 $445 $-1 $608 reversed $297 $-1 #
edge $-1 $609 0 $609 6.2831853071796004 $298 $610 forward 7 unknown #
vertex $-1 $301 $611 #
ellipse-curve $-1 59.38209399885401 38.452164362273336 10.371993365490278 0 0.84804810408105047 0.52991925155115449 1.5 0 0 1 I I #
face $-1 $-1 $462 $64 $-1 $612 reversed single #
loop $-1 $-1 $458 $302 #
plane-surface $-1 -49.347951193055373 -41.148639940524745 0 -1 0 0 0 0 1 forward_v I I I I #
coedge $-1 $613 $614 $454 $615 forward $303 $-1 #
coedge $-1 $454 $305 $307 $460 reversed $191 $-1 #
coedge $-1 $305 $453 $452 $615 reversed $191 $-1 #
coedge $-1 $616 $308 $305 $456 forward $462 $-1 #
edge $-1 $464 -32.758193592202794 $617 -16.060626504556961 $455 $618 forward 7 unknown #
coedge $-1 $307 $306 $613 $619 reversed $121 $-1 #
coedge $-1 $620 $621 $306 $459 forward $450 $-1 #
edge $-1 $622 -19.879489550538953 $463 -0.1900792360858484 $458 $623 forward 7 unknown #
edge $-1 $624 -19.689410314453127 $464 -2.6737665129848107e-014 $453 $625 forward 7 unknown #
coedge $-1 $308 $616 $620 $626 forward $462 $-1 #
loop $-1 $-1 $455 $449 #
vertex $-1 $459 $627 #
vertex $-1 $309 $628 #
straight-curve $-1 -19.243705586321155 -43.669063150932629 2.0232098216673684 1 0 0 I I #
coedge $-1 $466 $466 $-1 $629 reversed $312 $-1 #
edge $-1 $630 0 $630 6.2831853071796004 $313 $631 forward 7 unknown #
vertex $-1 $316 $632 #
ellipse-curve $-1 -45.003735184890154 -38.452164362273351 10.371993365490281 0 -0.84804810408105047 0.52991925155115449 1.5 0 0 1 I I #
coedge $-1 $470 $470 $-1 $633 reversed $319 $-1 #
edge $-1 $634 0 $634 6.2831853071796004 $320 $635 forward 7 unknown #
vertex $-1 $323 $636 #
ellipse-curve $-1 -38.487411172642311 -38.452164362273351 10.371993365490281 0 -0.84804810408105047 0.52991925155115449 1.5 0 0 1 I I #
coedge $-1 $474 $474 $-1 $637 reversed $326 $-1 #
edge $-1 $638 0 $638 6.2831853071796004 $327 $639 forward 7 unknown #
vertex $-1 $330 $640 #
ellipse-curve $-1 -31.971087160394475 -38.452164362273351 10.371993365490281 0 -0.84804810408105047 0.52991925155115449 1.5 0 0 1 I I #
face $-1 $-1 $641 $68 $-1 $642 reversed single #
loop $-1 $-1 $485 $331 #
plane-surface $-1 0 0 18.720776909313205 0 0 1 1 0 0 forward_v I I I I #
coedge $-1 $643 $334 $336 $487 forward $210 $-1 #
coedge $-1 $334 $643 $644 $645 reversed $210 $-1 #
coedge $-1 $646 $337 $334 $484 forward $332 $-1 #
edge $-1 $490 15.572344972890026 $647 37.293425013716146 $483 $648 forward 7 unknown #
coedge $-1 $649 $650 $335 $486 forward $479 $-1 #
edge $-1 $651 -42.642242383386218 $489 -32.208444806067646 $485 $652 forward 7 unknown #
edge $-1 $490 2.6737665129848107e-014 $651 19.689410314453127 $336 $653 forward 7 unknown #
coedge $-1 $337 $646 $649 $654 reversed $332 $-1 #
vertex $-1 $654 $655 #
vertex $-1 $338 $656 #
straight-curve $-1 42.005229966193113 -43.669063150932629 34.781403413870166 0 0 -1 I I #
coedge $-1 $492 $492 $-1 $657 reversed $341 $-1 #
edge $-1 $658 0 $658 6.2831853071796004 $342 $659 forward 7 unknown #
vertex $-1 $345 $660 #
ellipse-curve $-1 46.349445974358339 -38.452164362273351 10.371993365490281 0 -0.84804810408105047 0.52991925155115449 1.5 0 0 1 I I #
coedge $-1 $496 $496 $-1 $661 reversed $348 $-1 #
edge $-1 $662 0 $662 6.2831853071796004 $349 $663 forward 7 unknown #
vertex $-1 $352 $664 #
ellipse-curve $-1 52.865769986606175 -38.452164362273351 10.371993365490281 0 -0.84804810408105047 0.52991925155115449 1.5 0 0 1 I I #
coedge $-1 $500 $500 $-1 $665 reversed $355 $-1 #
edge $-1 $666 0 $666 6.2831853071796004 $356 $667 forward 7 unknown #
vertex $-1 $359 $668 #
ellipse-curve $-1 59.38209399885401 -38.452164362273351 10.371993365490281 0 -0.84804810408105047 0.52991925155115449 1.5 0 0 1 I I #
face $-1 $-1 $375 $54 $-1 $669 reversed single #
loop $-1 $-1 $520 $360 #
plane-surface $-1 0 43.669063150932629 0 0 -1 0 0 0 -1 forward_v I I I I #
coedge $-1 $670 $518 $521 $671 forward $361 $-1 #
coedge $-1 $524 $363 $364 $512 reversed $229 $-1 #
coedge $-1 $518 $670 $363 $510 reversed $361 $-1 #
edge $-1 $525 -18.720776909313205 $672 18.720776909313205 $509 $673 forward 7 unknown #
coedge $-1 $365 $364 $670 $674 forward $145 $-1 #
edge $-1 $516 -63.726310007019258 $672 63.726310007019258 $508 $675 forward 7 unknown #
coedge $-1 $521 $520 $365 $514 reversed $505 $-1 #
edge $-1 $676 -63.726310007019258 $515 63.726310007019258 $513 $677 forward 7 unknown #
vertex $-1 $367 $678 #
vertex $-1 $527 $679 #
straight-curve $-1 63.726310007019258 0 -18.720776909313205 0 -1 0 I I #
coedge $-1 $507 $509 $368 $519 reversed $361 $-1 #
edge $-1 $522 -43.669063150932629 $525 43.669063150932629 $518 $680 forward 7 unknown #
coedge $-1 $513 $369 $374 $528 forward $505 $-1 #
coedge $-1 $369 $513 $507 $671 reversed $505 $-1 #
vertex $-1 $370 $681 #
straight-curve $-1 0 43.669063150932629 18.720776909313205 -1 0 0 I I #
coedge $-1 $371 $508 $373 $527 reversed $229 $-1 #
vertex $-1 $519 $682 #
straight-curve $-1 0 -43.669063150932629 18.720776909313205 1 0 0 I I #
edge $-1 $376 -18.720776909313205 $516 18.720776909313205 $373 $683 forward 7 unknown #
edge $-1 $377 -18.720776909313205 $515 18.720776909313205 $374 $684 forward 7 unknown #
point $-1 63.726310007019258 -43.669063150932629 18.720776909313205 #
point $-1 63.726310007019258 43.669063150932629 18.720776909313205 #
face $-1 $-1 $541 $55 $-1 $685 reversed single #
loop $-1 $-1 $537 $379 #
plane-surface $-1 0 0 -18.720776909313205 0 0 1 1 0 0 forward_v I I I I #
coedge $-1 $686 $687 $387 $545 forward $380 $-1 #
coedge $-1 $382 $549 $539 $688 forward $237 $-1 #
edge $-1 $543 -23.094743180670257 $392 -18.053896759854489 $382 $689 forward 7 unknown #
coedge $-1 $690 $388 $383 $538 forward $532 $-1 #
edge $-1 $393 18.053896759854489 $542 23.094743180670257 $537 $691 forward 7 unknown #
coedge $-1 $692 $385 $535 $688 reversed $541 $-1 #
coedge $-1 $385 $692 $690 $693 reversed $541 $-1 #
loop $-1 $-1 $385 $531 #
vertex $-1 $693 $694 #
vertex $-1 $386 $695 #
straight-curve $-1 -49.347951193055373 -43.669063150932629 0 0 0 1 I I #
edge $-1 $550 -18.720776909313205 $547 18.720776909313205 $534 $696 forward 7 unknown #
coedge $-1 $388 $690 $686 $697 forward $532 $-1 #
vertex $-1 $389 $698 #
straight-curve $-1 -28.268565300018658 -38.628216730116861 -18.720776909313205 1 0 0 I I #
coedge $-1 $535 $390 $687 $699 forward $237 $-1 #
vertex $-1 $699 $700 #
straight-curve $-1 -28.268565300018658 -38.628216730116861 18.720776909313205 -1 0 0 I I #
point $-1 -49.347951193055373 -38.628216730116861 18.720776909313205 #
point $-1 -49.347951193055373 -38.628216730116861 -18.720776909313205 #
plane-surface $-1 0 0 18.720776909313205 0 0 1 1 0 0 forward_v I I I I #
coedge $-1 $565 $564 $557 $701 forward $396 $-1 #
coedge $-1 $557 $398 $400 $561 reversed $245 $-1 #
coedge $-1 $398 $556 $555 $701 reversed $245 $-1 #
coedge $-1 $406 $401 $398 $559 forward $407 $-1 #
edge $-1 $562 -19.501165122503906 $702 -9.06736754518532 $558 $703 forward 7 unknown #
coedge $-1 $400 $399 $565 $704 reversed $153 $-1 #
edge $-1 $705 -87.338126301865245 $562 -67.648715987412132 $556 $706 forward 7 unknown #
vertex $-1 $402 $707 #
straight-curve $-1 -19.243705586321155 33.235265573614036 18.720776909313209 1 0 0 I I #
coedge $-1 $555 $403 $406 $569 reversed $396 $-1 #
coedge $-1 $403 $555 $560 $704 forward $396 $-1 #
vertex $-1 $404 $708 #
straight-curve $-1 -49.34795119305538 43.669063150932629 71.814869626014243 0 0 1 I I #
straight-curve $-1 -49.34795119305538 -2.6130913708320094 76.090142245955505 0 0.52991925155115449 -0.84804810408105047 I I #
edge $-1 $702 27.626871152229246 $408 49.34795119305538 $564 $709 forward 7 unknown #
point $-1 -49.34795119305538 43.669063150932629 18.720776909313205 #
point $-1 -49.34795119305538 33.235265573614043 18.720776909313201 #
edge $-1 $710 1 $710 0 $411 $-1 forward 7 unknown #
vertex $-1 $412 $711 #
ellipse-curve $-1 -45.003735184890154 33.642693518641714 7.3667025364092069 0 0.84804810408105047 0.52991925155115449 1.5 0 0 1 I I #
point $-1 -43.503735184890154 38.452164362273336 10.37199336549028 #
edge $-1 $712 1 $712 0 $415 $-1 forward 7 unknown #
vertex $-1 $416 $713 #
ellipse-curve $-1 -38.487411172642311 33.642693518641714 7.3667025364092069 0 0.84804810408105047 0.52991925155115449 1.5 0 0 1 I I #
point $-1 -36.987411172642311 38.452164362273336 10.37199336549028 #
edge $-1 $714 1 $714 0 $419 $-1 forward 7 unknown #
vertex $-1 $420 $715 #
ellipse-curve $-1 -31.971087160394475 33.642693518641714 7.3667025364092069 0 0.84804810408105047 0.52991925155115449 1.5 0 0 1 I I #
point $-1 -30.471087160394475 38.452164362273336 10.37199336549028 #
loop $-1 $-1 $430 $423 #
plane-surface $-1 0 43.669063150932629 0 0 -1 0 0 0 -1 forward_v I I I I #
coedge $-1 $716 $717 $427 $588 forward $424 $-1 #
coedge $-1 $427 $426 $593 $718 reversed $172 $-1 #
edge $-1 $590 34.692301840209083 $719 54.38171215466221 $586 $720 forward 7 unknown #
coedge $-1 $433 $428 $717 $721 forward $274 $-1 #
vertex $-1 $721 $722 #
straight-curve $-1 26.432884993303087 33.235265573614036 18.720776909313209 1 0 0 I I #
coedge $-1 $723 $430 $433 $597 reversed $584 $-1 #
coedge $-1 $430 $723 $587 $718 forward $584 $-1 #
vertex $-1 $431 $724 #
straight-curve $-1 42.005229966193113 43.669063150932629 71.814869626014243 0 0 1 I I #
straight-curve $-1 42.005229966193113 -2.6130913708320094 76.090142245955505 0 0.52991925155115449 -0.84804810408105047 I I #
edge $-1 $725 -63.726310007019258 $434 -42.005229966193113 $592 $726 forward 7 unknown #
point $-1 42.005229966193113 43.669063150932629 18.720776909313205 #
point $-1 42.005229966193113 33.235265573614043 18.720776909313201 #
edge $-1 $727 1 $727 0 $437 $-1 forward 7 unknown #
vertex $-1 $438 $728 #
ellipse-curve $-1 46.349445974358339 33.642693518641714 7.3667025364092069 0 0.84804810408105047 0.52991925155115449 1.5 0 0 1 I I #
point $-1 47.849445974358339 38.452164362273336 10.37199336549028 #
edge $-1 $729 1 $729 0 $441 $-1 forward 7 unknown #
vertex $-1 $442 $730 #
ellipse-curve $-1 52.865769986606175 33.642693518641714 7.3667025364092069 0 0.84804810408105047 0.52991925155115449 1.5 0 0 1 I I #
point $-1 54.365769986606175 38.452164362273336 10.37199336549028 #
edge $-1 $731 1 $731 0 $445 $-1 forward 7 unknown #
vertex $-1 $446 $732 #
ellipse-curve $-1 59.38209399885401 33.642693518641714 7.3667025364092069 0 0.84804810408105047 0.52991925155115449 1.5 0 0 1 I I #
point $-1 60.88209399885401 38.452164362273336 10.37199336549028 #
plane-surface $-1 0 -43.669063150932629 0 0 1 0 0 0 1 forward_v I I I I #
coedge $-1 $733 $452 $457 $619 forward $303 $-1 #
coedge $-1 $452 $733 $616 $734 forward $303 $-1 #
edge $-1 $617 32.208444806067646 $624 42.642242383386218 $452 $735 forward 7 unknown #
coedge $-1 $461 $455 $614 $734 reversed $462 $-1 #
vertex $-1 $456 $736 #
straight-curve $-1 -27.626871152229246 -43.669063150932629 34.781403413870166 0 0 1 I I #
edge $-1 $624 8.3831655659080901 $622 30.104245606734224 $613 $737 forward 7 unknown #
coedge $-1 $621 $458 $461 $626 reversed $450 $-1 #
coedge $-1 $458 $620 $733 $738 reversed $450 $-1 #
vertex $-1 $619 $739 #
straight-curve $-1 -49.347951193055373 -43.769789797454656 1.8620134858795945 0 -0.52991925155115449 -0.84804810408105047 I I #
vertex $-1 $619 $740 #
straight-curve $-1 -27.626871152229246 -43.669063150932644 2.0232098216673506 0 -0.52991925155115449 -0.84804810408105047 I I #
edge $-1 $741 -18.720776909313205 $463 -2.0232098216673733 $461 $742 forward 7 unknown #
point $-1 -49.347951193055373 -43.669063150932629 2.0232098216673733 #
point $-1 -27.626871152229246 -43.669063150932629 2.0232098216673733 #
edge $-1 $743 1 $743 0 $466 $-1 forward 7 unknown #
vertex $-1 $467 $744 #
ellipse-curve $-1 -45.003735184890154 -33.642693518641714 7.3667025364091998 0 -0.84804810408105047 0.52991925155115449 1.5 0 0 1 I I #
point $-1 -43.503735184890154 -38.452164362273336 10.371993365490273 #
edge $-1 $745 1 $745 0 $470 $-1 forward 7 unknown #
vertex $-1 $471 $746 #
ellipse-curve $-1 -38.487411172642311 -33.642693518641714 7.3667025364091998 0 -0.84804810408105047 0.52991925155115449 1.5 0 0 1 I I #
point $-1 -36.987411172642311 -38.452164362273336 10.371993365490273 #
edge $-1 $747 1 $747 0 $474 $-1 forward 7 unknown #
vertex $-1 $475 $748 #
ellipse-curve $-1 -31.971087160394475 -33.642693518641714 7.3667025364091998 0 -0.84804810408105047 0.52991925155115449 1.5 0 0 1 I I #
point $-1 -30.471087160394475 -38.452164362273336 10.371993365490273 #
loop $-1 $-1 $644 $478 #
plane-surface $-1 63.726310007019258 0 0 -1 0 0 0 0 1 forward_v I I I I #
coedge $-1 $482 $481 $650 $749 reversed $210 $-1 #
coedge $-1 $750 $751 $482 $645 forward $641 $-1 #
edge $-1 $647 -10.71264900372956 $752 8.9767613107235427 $644 $753 forward 7 unknown #
coedge $-1 $488 $483 $751 $754 reversed $332 $-1 #
vertex $-1 $484 $755 #
straight-curve $-1 26.432884993303087 -43.669063150932629 2.0232098216673684 1 0 0 I I #
coedge $-1 $756 $485 $488 $654 forward $479 $-1 #
coedge $-1 $485 $756 $643 $749 forward $479 $-1 #
vertex $-1 $486 $757 #
straight-curve $-1 42.005229966193113 -75.877507957000276 18.720776909313205 0 -1 0 I I #
straight-curve $-1 42.005229966193113 -43.669063150932644 2.0232098216673506 0 0.52991925155115449 0.84804810408105047 I I #
edge $-1 $489 42.005229966193113 $758 63.726310007019258 $488 $759 forward 7 unknown #
point $-1 42.005229966193113 -43.669063150932629 18.720776909313205 #
point $-1 42.005229966193113 -43.669063150932629 2.0232098216673733 #
edge $-1 $760 1 $760 0 $492 $-1 forward 7 unknown #
vertex $-1 $493 $761 #
ellipse-curve $-1 46.349445974358339 -33.642693518641714 7.3667025364091998 0 -0.84804810408105047 0.52991925155115449 1.5 0 0 1 I I #
point $-1 47.849445974358339 -38.452164362273336 10.371993365490273 #
edge $-1 $762 1 $762 0 $496 $-1 forward 7 unknown #
vertex $-1 $497 $763 #
ellipse-curve $-1 52.865769986606175 -33.642693518641714 7.3667025364091998 0 -0.84804810408105047 0.52991925155115449 1.5 0 0 1 I I #
point $-1 54.365769986606175 -38.452164362273336 10.371993365490273 #
edge $-1 $764 1 $764 0 $500 $-1 forward 7 unknown #
vertex $-1 $501 $765 #
ellipse-curve $-1 59.38209399885401 -33.642693518641714 7.3667025364091998 0 -0.84804810408105047 0.52991925155115449 1.5 0 0 1 I I #
point $-1 60.88209399885401 -38.452164362273336 10.371993365490273 #
plane-surface $-1 63.726310007019258 0 0 -1 0 0 0 0 1 forward_v I I I I #
coedge $-1 $509 $507 $511 $674 reversed $361 $-1 #
edge $-1 $522 -18.720776909313205 $676 18.720776909313205 $521 $766 forward 7 unknown #
vertex $-1 $674 $767 #
straight-curve $-1 -63.726310007019258 -43.669063150932629 0 0 0 -1 I I #
edge $-1 $672 -43.669063150932629 $676 43.669063150932629 $670 $768 forward 7 unknown #
straight-curve $-1 0 -43.669063150932629 -18.720776909313205 -1 0 0 I I #
vertex $-1 $514 $769 #
straight-curve $-1 0 43.669063150932629 -18.720776909313205 1 0 0 I I #
point $-1 63.726310007019258 43.669063150932629 -18.720776909313205 #
point $-1 63.726310007019258 -43.669063150932629 -18.720776909313205 #
straight-curve $-1 -63.726310007019258 0 18.720776909313205 0 -1 0 I I #
point $-1 -63.726310007019258 43.669063150932629 18.720776909313205 #
point $-1 -63.726310007019258 -43.669063150932629 18.720776909313205 #
straight-curve $-1 63.726310007019258 -43.669063150932629 0 0 0 -1 I I #
straight-curve $-1 63.726310007019258 43.669063150932629 0 0 0 -1 I I #
plane-surface $-1 0 -43.669063150932629 0 0 1 0 0 0 1 forward_v I I I I #
coedge $-1 $770 $534 $546 $697 reversed $380 $-1 #
coedge $-1 $534 $770 $549 $699 reversed $380 $-1 #
edge $-1 $771 -63.726310007019258 $543 -49.347951193055373 $539 $772 forward 7 unknown #
straight-curve $-1 -49.347951193055373 -20.574319970262373 18.720776909313205 0 1 0 I I #
coedge $-1 $546 $537 $540 $693 forward $532 $-1 #
straight-curve $-1 -49.347951193055373 -20.574319970262373 -18.720776909313205 0 -1 0 I I #
coedge $-1 $540 $539 $770 $773 forward $541 $-1 #
edge $-1 $542 49.347951193055373 $774 63.726310007019258 $540 $775 forward 7 unknown #
point $-1 -49.347951193055373 -43.669063150932629 -18.720776909313205 #
point $-1 -49.347951193055373 -43.669063150932629 18.720776909313205 #
straight-curve $-1 -63.726310007019258 -38.628216730116861 0 0 0 -1 I I #
edge $-1 $774 -43.669063150932629 $547 -38.628216730116861 $686 $776 forward 7 unknown #
point $-1 -63.726310007019258 -38.628216730116861 -18.720776909313205 #
edge $-1 $550 38.628216730116861 $771 43.669063150932629 $687 $777 forward 7 unknown #
point $-1 -63.726310007019258 -38.628216730116861 18.720776909313205 #
edge $-1 $702 53.094092716701041 $705 69.791659804346892 $555 $778 forward 7 unknown #
vertex $-1 $569 $779 #
straight-curve $-1 -27.626871152229246 52.736430696117949 18.720776909313201 0 1 0 I I #
edge $-1 $705 8.3831655659080901 $566 30.104245606734224 $565 $780 forward 7 unknown #
vertex $-1 $704 $781 #
straight-curve $-1 -27.626871152229246 -2.6130913708320094 76.090142245955505 0 -0.52991925155115449 0.84804810408105047 I I #
point $-1 -27.626871152229246 33.235265573614043 18.720776909313201 #
point $-1 -49.34795119305538 43.669063150932629 2.0232098216673506 #
straight-curve $-1 0 43.669063150932629 18.720776909313205 -1 0 0 I I #
vertex $-1 $572 $782 #
point $-1 -43.503735184890154 33.642693518641714 7.3667025364092069 #
vertex $-1 $576 $783 #
point $-1 -36.987411172642311 33.642693518641714 7.3667025364092069 #
vertex $-1 $580 $784 #
point $-1 -30.471087160394475 33.642693518641714 7.3667025364092069 #
coedge $-1 $717 $586 $723 $785 reversed $424 $-1 #
coedge $-1 $586 $716 $589 $721 reversed $424 $-1 #
edge $-1 $719 -37.293425013716146 $594 -15.572344972890026 $593 $786 forward 7 unknown #
vertex $-1 $588 $787 #
straight-curve $-1 63.726310007019258 14.851146947863707 48.141517711110055 0 0.52991925155115449 -0.84804810408105047 I I #
edge $-1 $590 33.235265573614043 $725 43.669063150932629 $717 $788 forward 7 unknown #
point $-1 63.726310007019237 33.235265573614043 18.720776909313201 #
coedge $-1 $593 $592 $716 $785 forward $584 $-1 #
point $-1 42.005229966193113 43.669063150932629 2.0232098216673506 #
vertex $-1 $721 $789 #
straight-curve $-1 0 43.669063150932629 18.720776909313205 -1 0 0 I I #
vertex $-1 $600 $790 #
point $-1 47.849445974358339 33.642693518641714 7.3667025364092069 #
vertex $-1 $604 $791 #
point $-1 54.365769986606175 33.642693518641714 7.3667025364092069 #
vertex $-1 $608 $792 #
point $-1 60.88209399885401 33.642693518641714 7.3667025364092069 #
coedge $-1 $614 $613 $621 $738 forward $303 $-1 #
edge $-1 $741 -49.347951193055373 $617 -27.626871152229246 $616 $793 forward 7 unknown #
straight-curve $-1 -27.626871152229246 -75.877507957000276 18.720776909313205 0 1 0 I I #
point $-1 -27.626871152229246 -43.669063150932629 18.720776909313205 #
straight-curve $-1 -19.243705586321155 -33.235265573614065 18.720776909313205 -1 0 0 I I #
edge $-1 $622 -42.642242383386218 $741 -32.208444806067646 $733 $794 forward 7 unknown #
point $-1 -49.34795119305538 -33.235265573614058 18.720776909313205 #
point $-1 -27.626871152229246 -33.235265573614058 18.720776909313205 #
vertex $-1 $734 $795 #
straight-curve $-1 -49.347951193055373 -43.669063150932629 0 0 0 -1 I I #
vertex $-1 $629 $796 #
point $-1 -43.503735184890154 -33.642693518641714 7.3667025364091998 #
vertex $-1 $633 $797 #
point $-1 -36.987411172642311 -33.642693518641714 7.3667025364091998 #
vertex $-1 $637 $798 #
point $-1 -30.471087160394475 -33.642693518641714 7.3667025364091998 #
edge $-1 $752 -37.293425013716146 $651 -15.572344972890026 $650 $799 forward 7 unknown #
coedge $-1 $751 $644 $756 $800 reversed $641 $-1 #
coedge $-1 $644 $750 $646 $754 forward $641 $-1 #
vertex $-1 $645 $801 #
straight-curve $-1 63.726310007019258 -37.992224208746038 11.108051498965979 0 0.52991925155115449 0.84804810408105047 I I #
edge $-1 $758 -18.720776909313205 $647 -2.0232098216673733 $751 $802 forward 7 unknown #
point $-1 63.726310007019237 -43.669063150932629 2.0232098216673733 #
coedge $-1 $650 $649 $750 $800 forward $479 $-1 #
point $-1 42.005229966193113 -33.235265573614058 18.720776909313205 #
vertex $-1 $800 $803 #
straight-curve $-1 0 -43.669063150932629 18.720776909313205 1 0 0 I I #
vertex $-1 $657 $804 #
point $-1 47.849445974358339 -33.642693518641714 7.3667025364091998 #
vertex $-1 $661 $805 #
point $-1 54.365769986606175 -33.642693518641714 7.3667025364091998 #
vertex $-1 $665 $806 #
point $-1 60.88209399885401 -33.642693518641714 7.3667025364091998 #
straight-curve $-1 -63.726310007019258 43.669063150932629 0 0 0 -1 I I #
point $-1 -63.726310007019258 -43.669063150932629 -18.720776909313205 #
straight-curve $-1 -63.726310007019258 0 -18.720776909313205 0 1 0 I I #
point $-1 -63.726310007019258 43.669063150932629 -18.720776909313205 #
coedge $-1 $687 $686 $692 $773 reversed $380 $-1 #
vertex $-1 $699 $807 #
straight-curve $-1 0 -43.669063150932629 18.720776909313205 1 0 0 I I #
edge $-1 $771 -18.720776909313205 $774 18.720776909313205 $770 $808 forward 7 unknown #
vertex $-1 $697 $809 #
straight-curve $-1 0 -43.669063150932629 -18.720776909313205 -1 0 0 I I #
straight-curve $-1 -63.726310007019258 0 -18.720776909313205 0 1 0 I I #
straight-curve $-1 -63.726310007019258 0 18.720776909313205 0 -1 0 I I #
straight-curve $-1 -27.626871152229246 43.669063150932629 71.814869626014243 0 0 -1 I I #
point $-1 -27.626871152229246 43.669063150932629 18.720776909313205 #
straight-curve $-1 -19.243705586321155 43.669063150932629 2.0232098216673435 -1 0 0 I I #
point $-1 -27.626871152229246 43.669063150932629 2.0232098216673506 #
point $-1 -45.003735184890154 32.370621362520133 6.5718236590824759 #
point $-1 -38.487411172642311 32.370621362520133 6.5718236590824759 #
point $-1 -31.971087160394475 32.370621362520133 6.5718236590824759 #
edge $-1 $725 -18.720776909313205 $719 -2.0232098216673506 $716 $810 forward 7 unknown #
straight-curve $-1 26.432884993303087 43.669063150932629 2.0232098216673435 -1 0 0 I I #
point $-1 63.726310007019237 43.669063150932629 2.0232098216673506 #
straight-curve $-1 63.726310007019258 0 18.720776909313205 0 1 0 I I #
point $-1 63.726310007019258 43.669063150932629 18.720776909313205 #
point $-1 46.349445974358339 32.370621362520133 6.5718236590824759 #
point $-1 52.865769986606175 32.370621362520133 6.5718236590824759 #
point $-1 59.38209399885401 32.370621362520133 6.5718236590824759 #
straight-curve $-1 0 -43.669063150932629 18.720776909313205 1 0 0 I I #
straight-curve $-1 -49.34795119305538 -75.877507957000276 18.720776909313205 0 -1 0 I I #
point $-1 -49.347951193055373 -43.669063150932629 18.720776909313205 #
point $-1 -45.003735184890154 -32.370621362520133 6.5718236590824688 #
point $-1 -38.487411172642311 -32.370621362520133 6.5718236590824688 #
point $-1 -31.971087160394475 -32.370621362520133 6.5718236590824688 #
straight-curve $-1 26.432884993303087 -33.235265573614065 18.720776909313205 -1 0 0 I I #
edge $-1 $758 -43.669063150932629 $752 -33.235265573614058 $750 $811 forward 7 unknown #
point $-1 63.726310007019237 -33.235265573614058 18.720776909313205 #
straight-curve $-1 63.726310007019258 -43.669063150932629 0 0 0 -1 I I #
point $-1 63.726310007019258 -43.669063150932629 18.720776909313205 #
point $-1 46.349445974358339 -32.370621362520133 6.5718236590824688 #
point $-1 52.865769986606175 -32.370621362520133 6.5718236590824688 #
point $-1 59.38209399885401 -32.370621362520133 6.5718236590824688 #
point $-1 -63.726310007019258 -43.669063150932629 18.720776909313205 #
straight-curve $-1 -63.726310007019258 -43.669063150932629 0 0 0 -1 I I #
point $-1 -63.726310007019258 -43.669063150932629 -18.720776909313205 #
straight-curve $-1 63.726310007019258 43.669063150932629 0 0 0 -1 I I #
straight-curve $-1 63.726310007019258 0 18.720776909313205 0 1 0 I I #
End-of-ACIS-data 