500 0 13 0           
7 Unknown 11 ACIS 5.0 NT 24 Fri Mar 26 17:22:10 1999 
-1 9.9999999999999995e-007 1e-010 
body $-1 $13 $-1 $14 #
body $-1 $15 $-1 $16 #
body $-1 $17 $-1 $18 #
body $-1 $19 $-1 $20 #
body $-1 $21 $-1 $22 #
body $-1 $23 $-1 $24 #
body $-1 $25 $-1 $26 #
body $-1 $27 $-1 $28 #
body $-1 $29 $-1 $30 #
body $-1 $31 $-1 $32 #
body $-1 $33 $-1 $34 #
body $-1 $35 $-1 $36 #
body $-1 $37 $-1 $38 #
lump $-1 $-1 $39 $0 #
transform $-1 1 0 0 0 1 0 0 0 1 72.829371013519705 39.303677982219085 19.142655626643709 1 rotate no_reflect no_shear #
lump $-1 $-1 $40 $1 #
transform $-1 1 0 0 0 1 0 0 0 1 72.829371013519705 39.303677982219085 19.142655626643709 1 rotate no_reflect no_shear #
lump $-1 $-1 $41 $2 #
transform $-1 1 0 0 0 1 0 0 0 1 72.829371013519705 39.303677982219085 19.142655626643709 1 rotate no_reflect no_shear #
lump $-1 $-1 $42 $3 #
transform $-1 1 0 0 0 1 0 0 0 1 72.829371013519705 39.303677982219085 19.142655626643709 1 rotate no_reflect no_shear #
lump $-1 $-1 $43 $4 #
transform $-1 1 0 0 0 1 0 0 0 1 72.829371013519705 39.303677982219085 19.142655626643709 1 rotate no_reflect no_shear #
lump $-1 $-1 $44 $5 #
transform $-1 1 0 0 0 1 0 0 0 1 72.829371013519705 39.303677982219085 19.142655626643709 1 rotate no_reflect no_shear #
lump $-1 $-1 $45 $6 #
transform $-1 1 0 0 0 1 0 0 0 1 72.829371013519705 39.303677982219085 19.142655626643709 1 rotate no_reflect no_shear #
lump $-1 $-1 $46 $7 #
transform $-1 1 0 0 0 1 0 0 0 1 72.829371013519705 39.303677982219085 19.142655626643709 1 rotate no_reflect no_shear #
lump $-1 $-1 $47 $8 #
transform $-1 1 0 0 0 1 0 0 0 1 72.829371013519705 39.303677982219085 19.142655626643709 1 rotate no_reflect no_shear #
lump $-1 $-1 $48 $9 #
transform $-1 1 0 0 0 1 0 0 0 1 72.829371013519705 39.303677982219085 19.142655626643709 1 rotate no_reflect no_shear #
lump $-1 $-1 $49 $10 #
transform $-1 1 0 0 0 1 0 0 0 1 72.829371013519705 39.303677982219085 19.142655626643709 1 rotate no_reflect no_shear #
lump $-1 $-1 $50 $11 #
transform $-1 1 0 0 0 1 0 0 0 1 72.829371013519705 39.303677982219085 19.142655626643709 1 rotate no_reflect no_shear #
lump $-1 $-1 $51 $12 #
transform $-1 1 0 0 0 1 0 0 0 1 72.829371013519705 39.303677982219085 19.142655626643709 1 rotate no_reflect no_shear #
shell $-1 $-1 $-1 $52 $-1 $13 #
shell $-1 $-1 $-1 $53 $-1 $15 #
shell $-1 $-1 $-1 $54 $-1 $17 #
shell $-1 $-1 $-1 $55 $-1 $19 #
shell $-1 $-1 $-1 $56 $-1 $21 #
shell $-1 $-1 $-1 $57 $-1 $23 #
shell $-1 $-1 $-1 $58 $-1 $25 #
shell $-1 $-1 $-1 $59 $-1 $27 #
shell $-1 $-1 $-1 $60 $-1 $29 #
shell $-1 $-1 $-1 $61 $-1 $31 #
shell $-1 $-1 $-1 $62 $-1 $33 #
shell $-1 $-1 $-1 $63 $-1 $35 #
shell $-1 $-1 $-1 $64 $-1 $37 #
face $-1 $65 $66 $39 $-1 $67 forward single #
face $-1 $68 $69 $40 $-1 $70 reversed single #
face $-1 $71 $72 $41 $-1 $73 forward single #
face $-1 $74 $75 $42 $-1 $76 forward single #
face $-1 $77 $78 $43 $-1 $79 reversed single #
face $-1 $80 $81 $44 $-1 $82 forward single #
face $-1 $83 $84 $45 $-1 $85 forward single #
face $-1 $86 $87 $46 $-1 $88 reversed single #
face $-1 $89 $90 $47 $-1 $91 forward single #
face $-1 $92 $93 $48 $-1 $94 forward single #
face $-1 $95 $96 $49 $-1 $97 reversed single #
face $-1 $98 $99 $50 $-1 $100 forward single #
face $-1 $101 $102 $51 $-1 $103 forward single #
face $-1 $104 $105 $39 $-1 $106 reversed single #
loop $-1 $-1 $107 $52 #
plane-surface $-1 0 0 19.142655626643709 0 0 1 1 0 0 forward_v I I I I #
face $-1 $108 $109 $40 $-1 $110 reversed single #
loop $-1 $-1 $111 $53 #
plane-surface $-1 -14.830246602129307 -34.370686756970372 130.80968546861564 0.79863551827123203 0 0.60181501223851219 0.60181501223851219 0 -0.79863551827123203 forward_v I I I I #
face $-1 $112 $113 $41 $-1 $114 forward single #
loop $-1 $115 $116 $54 #
cone-surface $-1 69.957206921177658 -36.484825853505534 15.971138010692862 -0.79863551827123203 0 -0.60181501223851219 0.60181501223851219 0 -0.79863551827123203 1 I I 0 1 1 forward I I I I #
face $-1 $117 $118 $42 $-1 $119 forward single #
loop $-1 $120 $121 $55 #
cone-surface $-1 69.957206921177658 -32.256547660435203 15.971138010692862 -0.79863551827123203 0 -0.60181501223851219 0.60181501223851219 0 -0.79863551827123203 1 I I 0 1 1 forward I I I I #
face $-1 $122 $123 $43 $-1 $124 reversed single #
loop $-1 $-1 $125 $56 #
plane-surface $-1 101.49799832737099 -16.389886810905502 218.46930308426465 0 1 0 0.79863551827123203 0 0.60181501223851219 forward_v I I I I #
face $-1 $126 $127 $44 $-1 $128 forward single #
loop $-1 $129 $130 $57 #
cone-surface $-1 69.957206921177658 -13.571034682191954 15.971138010692862 -0.79863551827123203 0 -0.60181501223851219 0.60181501223851219 0 -0.79863551827123203 1 I I 0 1 1 forward I I I I #
face $-1 $131 $132 $45 $-1 $133 forward single #
loop $-1 $134 $135 $58 #
cone-surface $-1 69.957206921177658 -9.3427564891216264 15.971138010692862 -0.79863551827123203 0 -0.60181501223851219 0.60181501223851219 0 -0.79863551827123203 1 I I 0 1 1 forward I I I I #
face $-1 $136 $137 $46 $-1 $138 reversed single #
loop $-1 $-1 $139 $59 #
plane-surface $-1 101.49799832737099 6.5239043604080802 218.46930308426465 0 1 0 0.79863551827123203 0 0.60181501223851219 forward_v I I I I #
face $-1 $140 $141 $47 $-1 $142 forward single #
loop $-1 $143 $144 $60 #
cone-surface $-1 69.957206921177658 9.3427564891216264 15.971138010692862 -0.79863551827123203 0 -0.60181501223851219 0.60181501223851219 0 -0.79863551827123203 1 I I 0 1 1 forward I I I I #
face $-1 $145 $146 $48 $-1 $147 forward single #
loop $-1 $148 $149 $61 #
cone-surface $-1 69.957206921177658 13.57103468219195 15.971138010692862 -0.79863551827123203 0 -0.60181501223851219 0.60181501223851219 0 -0.79863551827123203 1 I I 0 1 1 forward I I I I #
face $-1 $150 $151 $49 $-1 $152 reversed single #
loop $-1 $-1 $153 $62 #
plane-surface $-1 101.49799832737099 29.437695531721658 218.46930308426465 0 1 0 0.79863551827123203 0 0.60181501223851219 forward_v I I I I #
face $-1 $154 $155 $50 $-1 $156 forward single #
loop $-1 $157 $158 $63 #
cone-surface $-1 69.957206921177658 32.256547660435203 15.971138010692862 -0.79863551827123203 0 -0.60181501223851219 0.60181501223851219 0 -0.79863551827123203 1 I I 0 1 1 forward I I I I #
face $-1 $159 $160 $51 $-1 $161 forward single #
loop $-1 $162 $163 $64 #
cone-surface $-1 69.957206921177658 36.484825853505527 15.971138010692862 -0.79863551827123203 0 -0.60181501223851219 0.60181501223851219 0 -0.79863551827123203 1 I I 0 1 1 forward I I I I #
face $-1 $164 $165 $39 $-1 $166 reversed single #
loop $-1 $-1 $167 $65 #
plane-surface $-1 0 0 -19.142655626643709 0 0 1 1 0 0 forward_v I I I I #
coedge $-1 $168 $169 $170 $171 forward $66 $-1 #
face $-1 $172 $173 $40 $-1 $174 forward single #
loop $-1 $-1 $175 $68 #
plane-surface $-1 101.49799832737099 -29.437695531721658 218.46930308426465 0 -1 0 -0.79863551827123203 0 -0.60181501223851219 forward_v I I I I #
coedge $-1 $176 $177 $178 $179 reversed $69 $-1 #
face $-1 $-1 $180 $41 $-1 $181 forward single #
loop $-1 $182 $183 $71 #
cone-surface $-1 68.44196377357045 -36.484825853505534 14.829320432386943 -0.79863551827123203 0 -0.60181501223851219 0.3009075061192561 0 -0.39931775913561601 1 I I -0.70710678118654746 0.70710678118654746 0.5 forward I I I I #
loop $-1 $-1 $184 $54 #
coedge $-1 $116 $116 $185 $186 reversed $72 $-1 #
face $-1 $-1 $187 $42 $-1 $188 forward single #
loop $-1 $189 $190 $74 #
cone-surface $-1 68.44196377357045 -32.256547660435203 14.829320432386943 -0.79863551827123203 0 -0.60181501223851219 0.3009075061192561 0 -0.39931775913561601 1 I I -0.70710678118654746 0.70710678118654746 0.5 forward I I I I #
loop $-1 $-1 $191 $55 #
coedge $-1 $121 $121 $192 $193 reversed $75 $-1 #
face $-1 $194 $195 $43 $-1 $196 reversed single #
loop $-1 $-1 $197 $77 #
plane-surface $-1 -14.830246602129307 -11.456895585656788 130.80968546861564 0.79863551827123203 0 0.60181501223851219 0.60181501223851219 0 -0.79863551827123203 forward_v I I I I #
coedge $-1 $198 $199 $200 $201 reversed $78 $-1 #
face $-1 $-1 $202 $44 $-1 $203 forward single #
loop $-1 $204 $205 $80 #
cone-surface $-1 68.44196377357045 -13.571034682191954 14.829320432386943 -0.79863551827123203 0 -0.60181501223851219 0.3009075061192561 0 -0.39931775913561601 1 I I -0.70710678118654746 0.70710678118654746 0.5 forward I I I I #
loop $-1 $-1 $206 $57 #
coedge $-1 $130 $130 $207 $208 reversed $81 $-1 #
face $-1 $-1 $209 $45 $-1 $210 forward single #
loop $-1 $211 $212 $83 #
cone-surface $-1 68.44196377357045 -9.3427564891216264 14.829320432386943 -0.79863551827123203 0 -0.60181501223851219 0.3009075061192561 0 -0.39931775913561601 1 I I -0.70710678118654746 0.70710678118654746 0.5 forward I I I I #
loop $-1 $-1 $213 $58 #
coedge $-1 $135 $135 $214 $215 reversed $84 $-1 #
face $-1 $216 $217 $46 $-1 $218 reversed single #
loop $-1 $-1 $219 $86 #
plane-surface $-1 -14.830246602129307 11.456895585656795 130.80968546861564 0.79863551827123203 0 0.60181501223851219 0.60181501223851219 0 -0.79863551827123203 forward_v I I I I #
coedge $-1 $220 $221 $222 $223 reversed $87 $-1 #
face $-1 $-1 $224 $47 $-1 $225 forward single #
loop $-1 $226 $227 $89 #
cone-surface $-1 68.44196377357045 9.3427564891216264 14.829320432386943 -0.79863551827123203 0 -0.60181501223851219 0.3009075061192561 0 -0.39931775913561601 1 I I -0.70710678118654746 0.70710678118654746 0.5 forward I I I I #
loop $-1 $-1 $228 $60 #
coedge $-1 $144 $144 $229 $230 reversed $90 $-1 #
face $-1 $-1 $231 $48 $-1 $232 forward single #
loop $-1 $233 $234 $92 #
cone-surface $-1 68.44196377357045 13.57103468219195 14.829320432386943 -0.79863551827123203 0 -0.60181501223851219 0.3009075061192561 0 -0.39931775913561601 1 I I -0.70710678118654746 0.70710678118654746 0.5 forward I I I I #
loop $-1 $-1 $235 $61 #
coedge $-1 $149 $149 $236 $237 reversed $93 $-1 #
face $-1 $238 $239 $49 $-1 $240 reversed single #
loop $-1 $-1 $241 $95 #
plane-surface $-1 -14.830246602129307 34.370686756970372 130.80968546861564 0.79863551827123203 0 0.60181501223851219 0.60181501223851219 0 -0.79863551827123203 forward_v I I I I #
coedge $-1 $242 $243 $244 $245 reversed $96 $-1 #
face $-1 $-1 $246 $50 $-1 $247 forward single #
loop $-1 $248 $249 $98 #
cone-surface $-1 68.44196377357045 32.256547660435203 14.829320432386943 -0.79863551827123203 0 -0.60181501223851219 0.3009075061192561 0 -0.39931775913561601 1 I I -0.70710678118654746 0.70710678118654746 0.5 forward I I I I #
loop $-1 $-1 $250 $63 #
coedge $-1 $158 $158 $251 $252 reversed $99 $-1 #
face $-1 $-1 $253 $51 $-1 $254 forward single #
loop $-1 $255 $256 $101 #
cone-surface $-1 68.44196377357045 36.484825853505527 14.829320432386943 -0.79863551827123203 0 -0.60181501223851219 0.3009075061192561 0 -0.39931775913561601 1 I I -0.70710678118654746 0.70710678118654746 0.5 forward I I I I #
loop $-1 $-1 $257 $64 #
coedge $-1 $163 $163 $258 $259 reversed $102 $-1 #
face $-1 $260 $261 $39 $-1 $262 reversed single #
loop $-1 $-1 $263 $104 #
plane-surface $-1 0 -39.303677982219085 0 0 1 0 0 0 1 forward_v I I I I #
coedge $-1 $264 $265 $266 $267 forward $105 $-1 #
coedge $-1 $268 $107 $269 $270 forward $66 $-1 #
coedge $-1 $107 $268 $271 $272 forward $66 $-1 #
coedge $-1 $273 $274 $107 $171 reversed $275 $-1 #
edge $-1 $276 -39.303677982219085 $277 39.303677982219085 $170 $278 forward 7 unknown #
face $-1 $279 $280 $40 $-1 $281 reversed single #
loop $-1 $-1 $282 $108 #
plane-surface $-1 0 0 19.142655626643709 0 0 1 1 0 0 forward_v I I I I #
coedge $-1 $283 $284 $285 $286 reversed $109 $-1 #
coedge $-1 $287 $111 $288 $289 reversed $69 $-1 #
coedge $-1 $111 $287 $283 $290 forward $69 $-1 #
coedge $-1 $285 $291 $111 $179 forward $292 $-1 #
edge $-1 $293 -22.118334603733899 $294 -12.252352153236473 $178 $295 forward 7 unknown #
loop $-1 $-1 $185 $112 #
plane-surface $-1 -14.830246602129307 -34.370686756970372 130.80968546861564 0.79863551827123203 0 0.60181501223851219 0.60181501223851219 0 -0.79863551827123203 forward_v I I I I #
loop $-1 $-1 $296 $71 #
coedge $-1 $183 $183 $184 $297 reversed $113 $-1 #
coedge $-1 $184 $184 $183 $297 forward $115 $-1 #
coedge $-1 $185 $185 $116 $186 forward $180 $-1 #
edge $-1 $298 0 $298 6.2831853071796004 $185 $299 forward 7 unknown #
loop $-1 $-1 $192 $117 #
plane-surface $-1 -14.830246602129307 -34.370686756970372 130.80968546861564 0.79863551827123203 0 0.60181501223851219 0.60181501223851219 0 -0.79863551827123203 forward_v I I I I #
loop $-1 $-1 $300 $74 #
coedge $-1 $190 $190 $191 $301 reversed $118 $-1 #
coedge $-1 $191 $191 $190 $301 forward $120 $-1 #
coedge $-1 $192 $192 $121 $193 forward $187 $-1 #
edge $-1 $302 0 $302 6.2831853071796004 $192 $303 forward 7 unknown #
face $-1 $304 $305 $43 $-1 $306 forward single #
loop $-1 $-1 $307 $122 #
plane-surface $-1 101.49799832737099 -6.5239043604080731 218.46930308426465 0 -1 0 -0.79863551827123203 0 -0.60181501223851219 forward_v I I I I #
coedge $-1 $308 $309 $310 $311 reversed $123 $-1 #
coedge $-1 $199 $125 $312 $313 reversed $78 $-1 #
coedge $-1 $125 $198 $308 $314 reversed $78 $-1 #
coedge $-1 $310 $315 $125 $201 forward $316 $-1 #
edge $-1 $317 90.09199591548861 $318 94.753211003016986 $200 $319 forward 7 unknown #
loop $-1 $-1 $207 $126 #
plane-surface $-1 -14.830246602129307 -11.456895585656788 130.80968546861564 0.79863551827123203 0 0.60181501223851219 0.60181501223851219 0 -0.79863551827123203 forward_v I I I I #
loop $-1 $-1 $320 $80 #
coedge $-1 $205 $205 $206 $321 reversed $127 $-1 #
coedge $-1 $206 $206 $205 $321 forward $129 $-1 #
coedge $-1 $207 $207 $130 $208 forward $202 $-1 #
edge $-1 $322 0 $322 6.2831853071796004 $207 $323 forward 7 unknown #
loop $-1 $-1 $214 $131 #
plane-surface $-1 -14.830246602129307 -11.456895585656788 130.80968546861564 0.79863551827123203 0 0.60181501223851219 0.60181501223851219 0 -0.79863551827123203 forward_v I I I I #
loop $-1 $-1 $324 $83 #
coedge $-1 $212 $212 $213 $325 reversed $132 $-1 #
coedge $-1 $213 $213 $212 $325 forward $134 $-1 #
coedge $-1 $214 $214 $135 $215 forward $209 $-1 #
edge $-1 $326 0 $326 6.2831853071796004 $214 $327 forward 7 unknown #
face $-1 $328 $329 $46 $-1 $330 reversed single #
loop $-1 $-1 $331 $136 #
plane-surface $-1 101.49799832737099 16.389886810905509 218.46930308426465 0 -1 0 -0.79863551827123203 0 -0.60181501223851219 forward_v I I I I #
coedge $-1 $332 $333 $334 $335 reversed $137 $-1 #
coedge $-1 $221 $139 $336 $337 reversed $87 $-1 #
coedge $-1 $139 $220 $332 $338 reversed $87 $-1 #
coedge $-1 $334 $339 $139 $223 forward $329 $-1 #
edge $-1 $340 90.09199591548861 $341 94.753211003016986 $222 $342 forward 7 unknown #
loop $-1 $-1 $229 $140 #
plane-surface $-1 -14.830246602129307 11.456895585656795 130.80968546861564 0.79863551827123203 0 0.60181501223851219 0.60181501223851219 0 -0.79863551827123203 forward_v I I I I #
loop $-1 $-1 $343 $89 #
coedge $-1 $227 $227 $228 $344 reversed $141 $-1 #
coedge $-1 $228 $228 $227 $344 forward $143 $-1 #
coedge $-1 $229 $229 $144 $230 forward $224 $-1 #
edge $-1 $345 0 $345 6.2831853071796004 $229 $346 forward 7 unknown #
loop $-1 $-1 $236 $145 #
plane-surface $-1 -14.830246602129307 11.456895585656795 130.80968546861564 0.79863551827123203 0 0.60181501223851219 0.60181501223851219 0 -0.79863551827123203 forward_v I I I I #
loop $-1 $-1 $347 $92 #
coedge $-1 $234 $234 $235 $348 reversed $146 $-1 #
coedge $-1 $235 $235 $234 $348 forward $148 $-1 #
coedge $-1 $236 $236 $149 $237 forward $231 $-1 #
edge $-1 $349 0 $349 6.2831853071796004 $236 $350 forward 7 unknown #
face $-1 $351 $352 $49 $-1 $353 reversed single #
loop $-1 $-1 $244 $150 #
plane-surface $-1 72.829371013519705 0 0 -1 0 0 0 0 1 forward_v I I I I #
coedge $-1 $354 $355 $356 $357 reversed $151 $-1 #
coedge $-1 $243 $153 $358 $359 reversed $96 $-1 #
coedge $-1 $153 $242 $354 $360 reversed $96 $-1 #
coedge $-1 $356 $361 $153 $245 forward $239 $-1 #
edge $-1 $362 90.09199591548861 $363 94.753211003016986 $244 $364 forward 7 unknown #
loop $-1 $-1 $251 $154 #
plane-surface $-1 -14.830246602129307 34.370686756970372 130.80968546861564 0.79863551827123203 0 0.60181501223851219 0.60181501223851219 0 -0.79863551827123203 forward_v I I I I #
loop $-1 $-1 $365 $98 #
coedge $-1 $249 $249 $250 $366 reversed $155 $-1 #
coedge $-1 $250 $250 $249 $366 forward $157 $-1 #
coedge $-1 $251 $251 $158 $252 forward $246 $-1 #
edge $-1 $367 0 $367 6.2831853071796004 $251 $368 forward 7 unknown #
loop $-1 $-1 $258 $159 #
plane-surface $-1 -14.830246602129307 34.370686756970372 130.80968546861564 0.79863551827123203 0 0.60181501223851219 0.60181501223851219 0 -0.79863551827123203 forward_v I I I I #
loop $-1 $-1 $369 $101 #
coedge $-1 $256 $256 $257 $370 reversed $160 $-1 #
coedge $-1 $257 $257 $256 $370 forward $162 $-1 #
coedge $-1 $258 $258 $163 $259 forward $253 $-1 #
edge $-1 $371 0 $371 6.2831853071796004 $258 $372 forward 7 unknown #
face $-1 $373 $374 $39 $-1 $375 reversed single #
loop $-1 $-1 $376 $164 #
plane-surface $-1 -72.829371013519705 0 0 1 0 0 0 0 -1 forward_v I I I I #
coedge $-1 $377 $271 $378 $379 forward $165 $-1 #
coedge $-1 $380 $167 $377 $381 forward $105 $-1 #
coedge $-1 $167 $380 $382 $383 forward $105 $-1 #
coedge $-1 $274 $273 $167 $267 reversed $275 $-1 #
edge $-1 $384 -39.303677982219085 $385 39.303677982219085 $266 $386 forward 7 unknown #
coedge $-1 $169 $168 $387 $388 forward $66 $-1 #
coedge $-1 $389 $390 $168 $270 reversed $374 $-1 #
edge $-1 $277 -72.829371013519705 $391 72.829371013519705 $269 $392 forward 7 unknown #
coedge $-1 $263 $393 $169 $272 reversed $165 $-1 #
edge $-1 $394 -72.829371013519705 $276 72.829371013519705 $271 $395 forward 7 unknown #
coedge $-1 $266 $170 $393 $396 forward $275 $-1 #
coedge $-1 $170 $266 $389 $397 reversed $275 $-1 #
loop $-1 $-1 $273 $373 #
vertex $-1 $171 $398 #
vertex $-1 $171 $399 #
straight-curve $-1 72.829371013519705 0 19.142655626643709 0 1 0 I I #
face $-1 $-1 $292 $40 $-1 $400 reversed single #
loop $-1 $-1 $288 $172 #
plane-surface $-1 0 -39.303677982219085 0 0 1 0 0 0 1 forward_v I I I I #
coedge $-1 $401 $402 $284 $403 forward $173 $-1 #
coedge $-1 $284 $175 $177 $290 reversed $109 $-1 #
coedge $-1 $175 $283 $282 $403 reversed $109 $-1 #
coedge $-1 $404 $178 $175 $286 forward $292 $-1 #
edge $-1 $294 -94.753211003016986 $405 -90.09199591548861 $285 $406 forward 7 unknown #
coedge $-1 $177 $176 $401 $407 reversed $69 $-1 #
coedge $-1 $408 $409 $176 $289 forward $280 $-1 #
edge $-1 $410 83.125105470967682 $293 88.961579032296754 $288 $411 forward 7 unknown #
edge $-1 $412 139.82226846571035 $294 145.65874202703941 $283 $413 forward 7 unknown #
coedge $-1 $178 $404 $408 $414 forward $292 $-1 #
loop $-1 $-1 $285 $279 #
vertex $-1 $289 $415 #
vertex $-1 $179 $416 #
straight-curve $-1 72.829371013519705 -17.185343378485186 14.481440539115333 0 1 0 I I #
coedge $-1 $296 $296 $-1 $417 reversed $182 $-1 #
edge $-1 $418 0 $418 6.2831853071796004 $183 $419 forward 7 unknown #
vertex $-1 $186 $420 #
ellipse-curve $-1 71.07313230964921 -36.484825853505534 16.812048082879496 0.79863551827123203 0 0.60181501223851219 0.60181501223851219 0 -0.79863551827123203 1 I I #
coedge $-1 $300 $300 $-1 $421 reversed $189 $-1 #
edge $-1 $422 0 $422 6.2831853071796004 $190 $423 forward 7 unknown #
vertex $-1 $193 $424 #
ellipse-curve $-1 71.07313230964921 -32.256547660435203 16.812048082879496 0.79863551827123203 0 0.60181501223851219 0.60181501223851219 0 -0.79863551827123203 1 I I #
face $-1 $-1 $316 $43 $-1 $425 reversed single #
loop $-1 $-1 $426 $194 #
plane-surface $-1 0 0 19.142655626643709 0 0 1 1 0 0 forward_v I I I I #
coedge $-1 $427 $428 $429 $430 reversed $195 $-1 #
coedge $-1 $431 $197 $199 $314 forward $123 $-1 #
coedge $-1 $197 $431 $427 $432 forward $123 $-1 #
coedge $-1 $429 $200 $197 $311 forward $316 $-1 #
edge $-1 $318 -10.661439018077107 $433 -0.79545656757967897 $310 $434 forward 7 unknown #
coedge $-1 $435 $436 $198 $313 forward $305 $-1 #
edge $-1 $437 18.567894442093205 $317 22.080371849834208 $312 $438 forward 7 unknown #
edge $-1 $318 -145.65874202703941 $437 -139.82226846571035 $199 $439 forward 7 unknown #
coedge $-1 $200 $429 $435 $440 reversed $316 $-1 #
loop $-1 $-1 $429 $304 #
vertex $-1 $440 $441 #
vertex $-1 $201 $442 #
straight-curve $-1 72.829371013519705 -16.389886810905502 109.23465154213233 0 0 -1 I I #
coedge $-1 $320 $320 $-1 $443 reversed $204 $-1 #
edge $-1 $444 0 $444 6.2831853071796004 $205 $445 forward 7 unknown #
vertex $-1 $208 $446 #
ellipse-curve $-1 71.07313230964921 -13.571034682191954 16.812048082879496 0.79863551827123203 0 0.60181501223851219 0.60181501223851219 0 -0.79863551827123203 1 I I #
coedge $-1 $324 $324 $-1 $447 reversed $211 $-1 #
edge $-1 $448 0 $448 6.2831853071796004 $212 $449 forward 7 unknown #
vertex $-1 $215 $450 #
ellipse-curve $-1 71.07313230964921 -9.3427564891216264 16.812048082879496 0.79863551827123203 0 0.60181501223851219 0.60181501223851219 0 -0.79863551827123203 1 I I #
face $-1 $-1 $451 $46 $-1 $452 forward single #
loop $-1 $-1 $222 $216 #
plane-surface $-1 72.829371013519705 0 0 -1 0 0 0 0 1 forward_v I I I I #
coedge $-1 $453 $454 $455 $456 reversed $217 $-1 #
coedge $-1 $457 $219 $221 $338 forward $137 $-1 #
coedge $-1 $219 $457 $453 $458 forward $137 $-1 #
coedge $-1 $455 $222 $219 $335 forward $329 $-1 #
edge $-1 $341 0.79545656757968253 $459 10.661439018077111 $334 $460 forward 7 unknown #
coedge $-1 $461 $462 $220 $337 forward $451 $-1 #
edge $-1 $463 18.567894442093205 $340 22.080371849834208 $336 $464 forward 7 unknown #
edge $-1 $341 -145.65874202703941 $463 -139.82226846571035 $221 $465 forward 7 unknown #
coedge $-1 $222 $455 $461 $466 reversed $329 $-1 #
vertex $-1 $466 $467 #
vertex $-1 $223 $468 #
straight-curve $-1 72.829371013519705 6.5239043604080802 109.23465154213233 0 0 -1 I I #
coedge $-1 $343 $343 $-1 $469 reversed $226 $-1 #
edge $-1 $470 0 $470 6.2831853071796004 $227 $471 forward 7 unknown #
vertex $-1 $230 $472 #
ellipse-curve $-1 71.07313230964921 9.3427564891216264 16.812048082879496 0.79863551827123203 0 0.60181501223851219 0.60181501223851219 0 -0.79863551827123203 1 I I #
coedge $-1 $347 $347 $-1 $473 reversed $233 $-1 #
edge $-1 $474 0 $474 6.2831853071796004 $234 $475 forward 7 unknown #
vertex $-1 $237 $476 #
ellipse-curve $-1 71.07313230964921 13.57103468219195 16.812048082879496 0.79863551827123203 0 0.60181501223851219 0.60181501223851219 0 -0.79863551827123203 1 I I #
face $-1 $-1 $477 $49 $-1 $478 forward single #
loop $-1 $-1 $479 $238 #
plane-surface $-1 0 39.303677982219085 0 0 -1 0 0 0 -1 forward_v I I I I #
coedge $-1 $480 $241 $243 $360 forward $151 $-1 #
coedge $-1 $241 $480 $479 $481 reversed $151 $-1 #
coedge $-1 $482 $244 $241 $357 forward $239 $-1 #
edge $-1 $363 12.252352153236473 $483 22.118334603733899 $356 $484 forward 7 unknown #
coedge $-1 $485 $486 $242 $359 forward $477 $-1 #
edge $-1 $487 18.567894442093205 $362 22.080371849834208 $358 $488 forward 7 unknown #
edge $-1 $363 -145.65874202703941 $487 -139.82226846571035 $243 $489 forward 7 unknown #
coedge $-1 $244 $482 $485 $490 reversed $239 $-1 #
vertex $-1 $490 $491 #
vertex $-1 $245 $492 #
straight-curve $-1 72.829371013519705 29.437695531721658 109.23465154213233 0 0 -1 I I #
coedge $-1 $365 $365 $-1 $493 reversed $248 $-1 #
edge $-1 $494 0 $494 6.2831853071796004 $249 $495 forward 7 unknown #
vertex $-1 $252 $496 #
ellipse-curve $-1 71.07313230964921 32.256547660435203 16.812048082879496 0.79863551827123203 0 0.60181501223851219 0.60181501223851219 0 -0.79863551827123203 1 I I #
coedge $-1 $369 $369 $-1 $497 reversed $255 $-1 #
edge $-1 $498 0 $498 6.2831853071796004 $256 $499 forward 7 unknown #
vertex $-1 $259 $500 #
ellipse-curve $-1 71.07313230964921 36.484825853505527 16.812048082879496 0.79863551827123203 0 0.60181501223851219 0.60181501223851219 0 -0.79863551827123203 1 I I #
face $-1 $-1 $275 $39 $-1 $501 reversed single #
loop $-1 $-1 $389 $260 #
plane-surface $-1 0 39.303677982219085 0 0 -1 0 0 0 -1 forward_v I I I I #
coedge $-1 $502 $387 $390 $503 forward $261 $-1 #
coedge $-1 $393 $263 $264 $381 reversed $165 $-1 #
coedge $-1 $387 $502 $263 $379 reversed $261 $-1 #
edge $-1 $394 -19.142655626643709 $504 19.142655626643709 $378 $505 forward 7 unknown #
coedge $-1 $265 $264 $502 $506 forward $105 $-1 #
edge $-1 $385 -72.829371013519705 $504 72.829371013519705 $377 $507 forward 7 unknown #
coedge $-1 $390 $389 $265 $383 reversed $374 $-1 #
edge $-1 $508 -72.829371013519705 $384 72.829371013519705 $382 $509 forward 7 unknown #
vertex $-1 $267 $510 #
vertex $-1 $396 $511 #
straight-curve $-1 72.829371013519705 0 -19.142655626643709 0 -1 0 I I #
coedge $-1 $376 $378 $268 $388 reversed $261 $-1 #
edge $-1 $391 -39.303677982219085 $394 39.303677982219085 $387 $512 forward 7 unknown #
coedge $-1 $382 $269 $274 $397 forward $374 $-1 #
coedge $-1 $269 $382 $376 $503 reversed $374 $-1 #
vertex $-1 $270 $513 #
straight-curve $-1 0 39.303677982219085 19.142655626643709 -1 0 0 I I #
coedge $-1 $271 $377 $273 $396 reversed $165 $-1 #
vertex $-1 $388 $514 #
straight-curve $-1 0 -39.303677982219085 19.142655626643709 1 0 0 I I #
edge $-1 $276 -19.142655626643709 $385 19.142655626643709 $273 $515 forward 7 unknown #
edge $-1 $277 -19.142655626643709 $384 19.142655626643709 $274 $516 forward 7 unknown #
point $-1 72.829371013519705 -39.303677982219085 19.142655626643709 #
point $-1 72.829371013519705 39.303677982219085 19.142655626643709 #
plane-surface $-1 72.829371013519705 0 0 -1 0 0 0 0 1 forward_v I I I I #
coedge $-1 $517 $282 $287 $407 forward $173 $-1 #
coedge $-1 $282 $517 $404 $518 forward $173 $-1 #
edge $-1 $405 -22.080371849834208 $412 -18.567894442093205 $282 $519 forward 7 unknown #
coedge $-1 $291 $285 $402 $518 reversed $292 $-1 #
vertex $-1 $286 $520 #
straight-curve $-1 72.829371013519705 -29.437695531721658 109.23465154213233 0 0 1 I I #
edge $-1 $412 12.252352153236473 $410 22.118334603733899 $401 $521 forward 7 unknown #
coedge $-1 $409 $288 $291 $414 reversed $280 $-1 #
coedge $-1 $288 $408 $517 $522 reversed $280 $-1 #
vertex $-1 $522 $523 #
straight-curve $-1 19.290957239440665 -39.303677982219085 85.529317315800824 0.60181501223851219 0 -0.79863551827123203 I I #
vertex $-1 $407 $524 #
straight-curve $-1 -14.830246602129307 -29.437695531721658 130.80968546861564 0.60181501223851219 0 -0.79863551827123203 I I #
edge $-1 $525 -19.142655626643709 $293 -14.481440539115333 $291 $526 forward 7 unknown #
point $-1 72.829371013519705 -39.303677982219085 14.481440539115333 #
point $-1 72.829371013519705 -29.437695531721658 14.48144053911534 #
edge $-1 $527 1 $527 0 $296 $-1 forward 7 unknown #
vertex $-1 $297 $528 #
ellipse-curve $-1 68.841281532706063 -36.484825853505534 15.130227938506199 0.79863551827123203 0 0.60181501223851219 0.60181501223851219 0 -0.79863551827123203 1 I I #
point $-1 71.674947321887743 -36.484825853505534 16.013412564608288 #
edge $-1 $529 1 $529 0 $300 $-1 forward 7 unknown #
vertex $-1 $301 $530 #
ellipse-curve $-1 68.841281532706063 -32.256547660435203 15.130227938506199 0.79863551827123203 0 0.60181501223851219 0.60181501223851219 0 -0.79863551827123203 1 I I #
point $-1 71.674947321887743 -32.256547660435203 16.013412564608288 #
plane-surface $-1 72.829371013519705 0 0 -1 0 0 0 0 1 forward_v I I I I #
coedge $-1 $436 $435 $428 $531 forward $305 $-1 #
coedge $-1 $428 $307 $309 $432 reversed $195 $-1 #
coedge $-1 $307 $427 $426 $531 reversed $195 $-1 #
coedge $-1 $315 $310 $307 $430 forward $316 $-1 #
edge $-1 $433 -94.753211003016986 $532 -90.09199591548861 $429 $533 forward 7 unknown #
coedge $-1 $309 $308 $436 $534 reversed $123 $-1 #
edge $-1 $535 139.82226846571035 $433 145.65874202703941 $427 $536 forward 7 unknown #
vertex $-1 $311 $537 #
straight-curve $-1 72.829371013519705 -5.7284477928283941 14.481440539115333 0 1 0 I I #
coedge $-1 $426 $312 $315 $440 forward $305 $-1 #
coedge $-1 $312 $426 $431 $534 forward $305 $-1 #
vertex $-1 $313 $538 #
straight-curve $-1 50.748999163685497 -16.389886810905502 19.142655626643716 1 0 0 I I #
straight-curve $-1 -14.830246602129307 -16.389886810905502 130.80968546861564 -0.60181501223851219 0 0.79863551827123203 I I #
edge $-1 $317 -16.389886810905502 $532 -6.5239043604080731 $315 $539 forward 7 unknown #
point $-1 72.829371013519705 -16.389886810905502 19.142655626643709 #
point $-1 72.829371013519705 -16.389886810905502 14.48144053911534 #
edge $-1 $540 1 $540 0 $320 $-1 forward 7 unknown #
vertex $-1 $321 $541 #
ellipse-curve $-1 68.841281532706063 -13.571034682191954 15.130227938506199 0.79863551827123203 0 0.60181501223851219 0.60181501223851219 0 -0.79863551827123203 1 I I #
point $-1 71.674947321887743 -13.571034682191954 16.013412564608288 #
edge $-1 $542 1 $542 0 $324 $-1 forward 7 unknown #
vertex $-1 $325 $543 #
ellipse-curve $-1 68.841281532706063 -9.3427564891216264 15.130227938506199 0.79863551827123203 0 0.60181501223851219 0.60181501223851219 0 -0.79863551827123203 1 I I #
point $-1 71.674947321887743 -9.3427564891216264 16.013412564608288 #
loop $-1 $-1 $336 $328 #
plane-surface $-1 0 0 19.142655626643709 0 0 1 1 0 0 forward_v I I I I #
coedge $-1 $454 $331 $333 $458 reversed $217 $-1 #
coedge $-1 $331 $453 $544 $545 reversed $217 $-1 #
coedge $-1 $339 $334 $331 $456 forward $329 $-1 #
edge $-1 $459 -94.753211003016986 $546 -90.09199591548861 $455 $547 forward 7 unknown #
coedge $-1 $333 $332 $462 $548 reversed $137 $-1 #
edge $-1 $549 139.82226846571035 $459 145.65874202703941 $453 $550 forward 7 unknown #
vertex $-1 $335 $551 #
straight-curve $-1 72.829371013519705 5.7284477928283977 14.481440539115333 0 1 0 I I #
coedge $-1 $544 $336 $339 $466 forward $451 $-1 #
coedge $-1 $336 $544 $457 $548 forward $451 $-1 #
vertex $-1 $337 $552 #
straight-curve $-1 50.748999163685497 6.5239043604080802 19.142655626643716 1 0 0 I I #
straight-curve $-1 -14.830246602129307 6.5239043604080802 130.80968546861564 -0.60181501223851219 0 0.79863551827123203 I I #
edge $-1 $340 6.5239043604080802 $546 16.389886810905509 $339 $553 forward 7 unknown #
point $-1 72.829371013519705 6.5239043604080802 19.142655626643709 #
point $-1 72.829371013519705 6.5239043604080802 14.48144053911534 #
edge $-1 $554 1 $554 0 $343 $-1 forward 7 unknown #
vertex $-1 $344 $555 #
ellipse-curve $-1 68.841281532706063 9.3427564891216264 15.130227938506199 0.79863551827123203 0 0.60181501223851219 0.60181501223851219 0 -0.79863551827123203 1 I I #
point $-1 71.674947321887743 9.3427564891216264 16.013412564608288 #
edge $-1 $556 1 $556 0 $347 $-1 forward 7 unknown #
vertex $-1 $348 $557 #
ellipse-curve $-1 68.841281532706063 13.57103468219195 15.130227938506199 0.79863551827123203 0 0.60181501223851219 0.60181501223851219 0 -0.79863551827123203 1 I I #
point $-1 71.674947321887743 13.57103468219195 16.013412564608288 #
loop $-1 $-1 $358 $351 #
plane-surface $-1 0 0 19.142655626643709 0 0 1 1 0 0 forward_v I I I I #
coedge $-1 $558 $559 $355 $481 forward $352 $-1 #
coedge $-1 $355 $354 $486 $560 reversed $151 $-1 #
edge $-1 $483 -88.961579032296754 $561 -83.125105470967682 $479 $562 forward 7 unknown #
coedge $-1 $361 $356 $559 $563 reversed $239 $-1 #
vertex $-1 $481 $564 #
straight-curve $-1 72.829371013519705 17.185343378485186 14.481440539115333 0 1 0 I I #
coedge $-1 $565 $358 $361 $490 forward $477 $-1 #
coedge $-1 $358 $565 $480 $560 forward $477 $-1 #
vertex $-1 $359 $566 #
straight-curve $-1 50.748999163685497 29.437695531721658 19.142655626643716 1 0 0 I I #
straight-curve $-1 -14.830246602129307 29.437695531721658 130.80968546861564 -0.60181501223851219 0 0.79863551827123203 I I #
edge $-1 $362 29.437695531721658 $567 39.303677982219085 $361 $568 forward 7 unknown #
point $-1 72.829371013519705 29.437695531721658 19.142655626643709 #
point $-1 72.829371013519705 29.437695531721658 14.48144053911534 #
edge $-1 $569 1 $569 0 $365 $-1 forward 7 unknown #
vertex $-1 $366 $570 #
ellipse-curve $-1 68.841281532706063 32.256547660435203 15.130227938506199 0.79863551827123203 0 0.60181501223851219 0.60181501223851219 0 -0.79863551827123203 1 I I #
point $-1 71.674947321887743 32.256547660435203 16.013412564608288 #
edge $-1 $571 1 $571 0 $369 $-1 forward 7 unknown #
vertex $-1 $370 $572 #
ellipse-curve $-1 68.841281532706063 36.484825853505527 15.130227938506199 0.79863551827123203 0 0.60181501223851219 0.60181501223851219 0 -0.79863551827123203 1 I I #
point $-1 71.674947321887743 36.484825853505527 16.013412564608288 #
plane-surface $-1 72.829371013519705 0 0 -1 0 0 0 0 1 forward_v I I I I #
coedge $-1 $378 $376 $380 $506 reversed $261 $-1 #
edge $-1 $391 -19.142655626643709 $508 19.142655626643709 $390 $573 forward 7 unknown #
vertex $-1 $506 $574 #
straight-curve $-1 -72.829371013519705 -39.303677982219085 0 0 0 -1 I I #
edge $-1 $504 -39.303677982219085 $508 39.303677982219085 $502 $575 forward 7 unknown #
straight-curve $-1 0 -39.303677982219085 -19.142655626643709 -1 0 0 I I #
vertex $-1 $383 $576 #
straight-curve $-1 0 39.303677982219085 -19.142655626643709 1 0 0 I I #
point $-1 72.829371013519705 39.303677982219085 -19.142655626643709 #
point $-1 72.829371013519705 -39.303677982219085 -19.142655626643709 #
straight-curve $-1 -72.829371013519705 0 19.142655626643709 0 -1 0 I I #
point $-1 -72.829371013519705 39.303677982219085 19.142655626643709 #
point $-1 -72.829371013519705 -39.303677982219085 19.142655626643709 #
straight-curve $-1 72.829371013519705 -39.303677982219085 0 0 0 -1 I I #
straight-curve $-1 72.829371013519705 39.303677982219085 0 0 0 -1 I I #
coedge $-1 $402 $401 $409 $522 forward $173 $-1 #
edge $-1 $525 -39.303677982219085 $405 -29.437695531721658 $404 $577 forward 7 unknown #
straight-curve $-1 50.748999163685497 -29.437695531721658 19.142655626643716 -1 0 0 I I #
point $-1 72.829371013519705 -29.437695531721658 19.142655626643709 #
straight-curve $-1 69.316893605778716 -17.185343378485186 19.142655626643702 0 -1 0 I I #
edge $-1 $410 69.316893605778702 $525 72.829371013519705 $409 $578 forward 7 unknown #
point $-1 69.316893605778702 -39.303677982219085 19.142655626643716 #
point $-1 69.316893605778702 -29.437695531721658 19.142655626643716 #
vertex $-1 $518 $579 #
straight-curve $-1 72.829371013519705 -39.303677982219085 0 0 0 -1 I I #
vertex $-1 $417 $580 #
point $-1 69.443096544944581 -36.484825853505534 14.331592420234967 #
vertex $-1 $421 $581 #
point $-1 69.443096544944581 -32.256547660435203 14.331592420234967 #
edge $-1 $532 -22.080371849834208 $535 -18.567894442093205 $426 $582 forward 7 unknown #
vertex $-1 $430 $583 #
straight-curve $-1 72.829371013519705 -6.5239043604080731 109.23465154213233 0 0 1 I I #
edge $-1 $535 0.79545656757967897 $437 10.661439018077107 $436 $584 forward 7 unknown #
vertex $-1 $534 $585 #
straight-curve $-1 -14.830246602129307 -6.5239043604080731 130.80968546861564 0.60181501223851219 0 -0.79863551827123203 I I #
point $-1 72.829371013519705 -6.5239043604080731 14.48144053911534 #
point $-1 69.316893605778702 -16.389886810905502 19.142655626643716 #
straight-curve $-1 72.829371013519705 0 19.142655626643709 0 1 0 I I #
vertex $-1 $443 $586 #
point $-1 69.443096544944581 -13.571034682191954 14.331592420234967 #
vertex $-1 $447 $587 #
point $-1 69.443096544944581 -9.3427564891216264 14.331592420234967 #
coedge $-1 $462 $461 $454 $545 forward $451 $-1 #
edge $-1 $546 -22.080371849834208 $549 -18.567894442093205 $544 $588 forward 7 unknown #
vertex $-1 $545 $589 #
straight-curve $-1 72.829371013519705 16.389886810905509 109.23465154213233 0 0 1 I I #
edge $-1 $549 -10.661439018077111 $463 -0.79545656757968253 $462 $590 forward 7 unknown #
vertex $-1 $548 $591 #
straight-curve $-1 -14.830246602129307 16.389886810905509 130.80968546861564 0.60181501223851219 0 -0.79863551827123203 I I #
point $-1 72.829371013519705 16.389886810905509 14.48144053911534 #
point $-1 69.316893605778702 6.5239043604080802 19.142655626643716 #
straight-curve $-1 72.829371013519705 0 19.142655626643709 0 1 0 I I #
vertex $-1 $469 $592 #
point $-1 69.443096544944581 9.3427564891216264 14.331592420234967 #
vertex $-1 $473 $593 #
point $-1 69.443096544944581 13.57103468219195 14.331592420234967 #
coedge $-1 $559 $479 $565 $594 reversed $352 $-1 #
coedge $-1 $479 $558 $482 $563 forward $352 $-1 #
edge $-1 $561 -22.118334603733899 $487 -12.252352153236473 $486 $595 forward 7 unknown #
vertex $-1 $481 $596 #
straight-curve $-1 19.290957239440665 39.303677982219085 85.529317315800824 -0.60181501223851219 0 0.79863551827123203 I I #
edge $-1 $567 -19.142655626643709 $483 -14.48144053911534 $482 $597 forward 7 unknown #
point $-1 72.829371013519705 39.303677982219085 14.48144053911534 #
coedge $-1 $486 $485 $558 $594 forward $477 $-1 #
point $-1 69.316893605778702 29.437695531721658 19.142655626643716 #
vertex $-1 $490 $598 #
straight-curve $-1 72.829371013519705 0 19.142655626643709 0 1 0 I I #
vertex $-1 $493 $599 #
point $-1 69.443096544944581 32.256547660435203 14.331592420234967 #
vertex $-1 $497 $600 #
point $-1 69.443096544944581 36.484825853505527 14.331592420234967 #
straight-curve $-1 -72.829371013519705 39.303677982219085 0 0 0 -1 I I #
point $-1 -72.829371013519705 -39.303677982219085 -19.142655626643709 #
straight-curve $-1 -72.829371013519705 0 -19.142655626643709 0 1 0 I I #
point $-1 -72.829371013519705 39.303677982219085 -19.142655626643709 #
straight-curve $-1 72.829371013519705 0 19.142655626643709 0 1 0 I I #
straight-curve $-1 0 -39.303677982219085 19.142655626643709 1 0 0 I I #
point $-1 72.829371013519705 -39.303677982219085 19.142655626643709 #
point $-1 68.042646014434837 -36.484825853505534 14.528412926267688 #
point $-1 68.042646014434837 -32.256547660435203 14.528412926267688 #
straight-curve $-1 50.748999163685497 -6.5239043604080731 19.142655626643716 -1 0 0 I I #
point $-1 72.829371013519705 -6.5239043604080731 19.142655626643709 #
straight-curve $-1 69.316893605778716 -5.7284477928283941 19.142655626643702 0 -1 0 I I #
point $-1 69.316893605778702 -6.5239043604080731 19.142655626643716 #
point $-1 68.042646014434837 -13.571034682191954 14.528412926267688 #
point $-1 68.042646014434837 -9.3427564891216264 14.528412926267688 #
straight-curve $-1 50.748999163685497 16.389886810905509 19.142655626643716 -1 0 0 I I #
point $-1 72.829371013519705 16.389886810905509 19.142655626643709 #
straight-curve $-1 69.316893605778716 5.7284477928283977 19.142655626643702 0 -1 0 I I #
point $-1 69.316893605778702 16.389886810905509 19.142655626643716 #
point $-1 68.042646014434837 9.3427564891216264 14.528412926267688 #
point $-1 68.042646014434837 13.57103468219195 14.528412926267688 #
edge $-1 $567 -72.829371013519705 $561 -69.316893605778702 $558 $601 forward 7 unknown #
straight-curve $-1 69.316893605778716 17.185343378485186 19.142655626643702 0 -1 0 I I #
point $-1 69.316893605778702 39.303677982219085 19.142655626643716 #
straight-curve $-1 72.829371013519705 39.303677982219085 0 0 0 -1 I I #
point $-1 72.829371013519705 39.303677982219085 19.142655626643709 #
point $-1 68.042646014434837 32.256547660435203 14.528412926267688 #
point $-1 68.042646014434837 36.484825853505527 14.528412926267688 #
straight-curve $-1 0 39.303677982219085 19.142655626643709 -1 0 0 I I #
End-of-ACIS-data 