500 0 11 0           
7 Unknown 11 ACIS 5.0 NT 24 Thu Mar 25 23:17:12 1999 
-1 9.9999999999999995e-007 1e-010 
body $-1 $11 $-1 $12 #
body $-1 $13 $-1 $14 #
body $-1 $15 $-1 $16 #
body $-1 $17 $-1 $18 #
body $-1 $19 $-1 $20 #
body $-1 $21 $-1 $22 #
body $-1 $23 $-1 $24 #
body $-1 $25 $-1 $26 #
body $-1 $27 $-1 $28 #
body $-1 $29 $-1 $30 #
body $-1 $31 $-1 $32 #
lump $-1 $-1 $33 $0 #
transform $-1 1 0 0 0 1 0 0 0 1 54.900357066560872 32.232660274385559 7.6402432045999085 1 rotate no_reflect no_shear #
lump $-1 $-1 $34 $1 #
transform $-1 1 0 0 0 1 0 0 0 1 54.900357066560872 32.232660274385559 7.6402432045999085 1 rotate no_reflect no_shear #
lump $-1 $-1 $35 $2 #
transform $-1 1 0 0 0 1 0 0 0 1 54.900357066560872 32.232660274385559 7.6402432045999085 1 rotate no_reflect no_shear #
lump $-1 $-1 $36 $3 #
transform $-1 1 0 0 0 1 0 0 0 1 54.900357066560872 32.232660274385559 7.6402432045999085 1 rotate no_reflect no_shear #
lump $-1 $-1 $37 $4 #
transform $-1 1 0 0 0 1 0 0 0 1 54.900357066560872 32.232660274385559 7.6402432045999085 1 rotate no_reflect no_shear #
lump $-1 $-1 $38 $5 #
transform $-1 1 0 0 0 1 0 0 0 1 54.900357066560872 32.232660274385559 7.6402432045999085 1 rotate no_reflect no_shear #
lump $-1 $-1 $39 $6 #
transform $-1 1 0 0 0 1 0 0 0 1 54.900357066560872 32.232660274385559 7.6402432045999085 1 rotate no_reflect no_shear #
lump $-1 $-1 $40 $7 #
transform $-1 1 0 0 0 1 0 0 0 1 54.900357066560872 32.232660274385559 7.6402432045999085 1 rotate no_reflect no_shear #
lump $-1 $-1 $41 $8 #
transform $-1 1 0 0 0 1 0 0 0 1 54.900357066560872 32.232660274385559 7.6402432045999085 1 rotate no_reflect no_shear #
lump $-1 $-1 $42 $9 #
transform $-1 1 0 0 0 1 0 0 0 1 54.900357066560872 32.232660274385559 7.6402432045999085 1 rotate no_reflect no_shear #
lump $-1 $-1 $43 $10 #
transform $-1 1 0 0 0 1 0 0 0 1 54.900357066560872 32.232660274385559 7.6402432045999085 1 rotate no_reflect no_shear #
shell $-1 $-1 $-1 $44 $-1 $11 #
shell $-1 $-1 $-1 $45 $-1 $13 #
shell $-1 $-1 $-1 $46 $-1 $15 #
shell $-1 $-1 $-1 $47 $-1 $17 #
shell $-1 $-1 $-1 $48 $-1 $19 #
shell $-1 $-1 $-1 $49 $-1 $21 #
shell $-1 $-1 $-1 $50 $-1 $23 #
shell $-1 $-1 $-1 $51 $-1 $25 #
shell $-1 $-1 $-1 $52 $-1 $27 #
shell $-1 $-1 $-1 $53 $-1 $29 #
shell $-1 $-1 $-1 $54 $-1 $31 #
face $-1 $55 $56 $33 $-1 $57 forward single #
face $-1 $58 $59 $34 $-1 $60 forward single #
face $-1 $61 $62 $35 $-1 $63 forward single #
face $-1 $64 $65 $36 $-1 $66 reversed single #
face $-1 $67 $68 $37 $-1 $69 forward single #
face $-1 $70 $71 $38 $-1 $72 reversed single #
face $-1 $73 $74 $39 $-1 $75 forward single #
face $-1 $76 $77 $40 $-1 $78 reversed single #
face $-1 $79 $80 $41 $-1 $81 forward single #
face $-1 $82 $83 $42 $-1 $84 forward single #
face $-1 $85 $86 $43 $-1 $87 forward single #
face $-1 $88 $89 $33 $-1 $90 reversed single #
loop $-1 $-1 $91 $44 #
plane-surface $-1 0 0 7.6402432045999085 0 0 1 1 0 0 forward_v I I I I #
face $-1 $92 $93 $34 $-1 $94 reversed single #
loop $-1 $-1 $95 $45 #
plane-surface $-1 0 -32.232660274385559 0 0 1 0 0 0 1 forward_v I I I I #
face $-1 $96 $97 $35 $-1 $98 reversed single #
loop $-1 $-1 $99 $46 #
plane-surface $-1 0 32.232660274385559 0 0 -1 0 0 0 -1 forward_v I I I I #
face $-1 $100 $101 $36 $-1 $102 reversed single #
loop $-1 $-1 $103 $47 #
plane-surface $-1 60.319610696358708 0 157.42809619927687 0 -1 0 -0.73135370988377701 0 -0.68199835119979291 forward_v I I I I #
face $-1 $104 $105 $37 $-1 $106 forward single #
loop $-1 $107 $108 $48 #
cone-surface $-1 51.281450140634661 -4.9696664455233375 3.9134870530487862 -0.73135370988377701 0 -0.68199835119979291 1.0229975267996894 0 -1.0970305648256655 1 I I 0 1 1.5 forward I I I I #
face $-1 $109 $110 $38 $-1 $111 reversed single #
loop $-1 $-1 $112 $49 #
plane-surface $-1 60.319610696358708 9.9393328910466749 157.42809619927687 0 -1 0 -0.73135370988377701 0 -0.68199835119979291 forward_v I I I I #
face $-1 $113 $114 $39 $-1 $115 forward single #
loop $-1 $116 $117 $50 #
cone-surface $-1 51.281450140634661 4.9696664455233375 3.9134870530487862 -0.73135370988377701 0 -0.68199835119979291 1.0229975267996894 0 -1.0970305648256655 1 I I 0 1 1.5 forward I I I I #
face $-1 $118 $119 $40 $-1 $120 reversed single #
loop $-1 $-1 $121 $51 #
plane-surface $-1 -116.30013800381607 13.608155115691304 92.044850830234196 0 1 0 -0.55919291073839883 0 0.82903756765294845 forward_v I I I I #
face $-1 $122 $123 $41 $-1 $124 forward single #
loop $-1 $125 $126 $52 #
cone-surface $-1 -49.710289464294597 15.706700727800566 3.9135697478505929 0.55919291073839883 0 -0.82903756765294845 0.41451878382647422 0 0.27959645536919941 1 I I 0 1 0.5 forward I I I I #
face $-1 $127 $128 $42 $-1 $129 forward single #
loop $-1 $130 $131 $53 #
cone-surface $-1 -49.710289464294597 18.854519145964453 3.9135697478505929 0.55919291073839883 0 -0.82903756765294845 0.41451878382647422 0 0.27959645536919941 1 I I 0 1 0.5 forward I I I I #
face $-1 $132 $133 $43 $-1 $134 forward single #
loop $-1 $135 $136 $54 #
cone-surface $-1 -49.710289464294597 22.002337564128339 3.9135697478505929 0.55919291073839883 0 -0.82903756765294845 0.41451878382647422 0 0.27959645536919941 1 I I 0 1 0.5 forward I I I I #
face $-1 $137 $138 $33 $-1 $139 reversed single #
loop $-1 $-1 $140 $55 #
plane-surface $-1 0 0 -7.6402432045999085 0 0 1 1 0 0 forward_v I I I I #
coedge $-1 $141 $142 $143 $144 forward $56 $-1 #
face $-1 $145 $146 $34 $-1 $147 reversed single #
loop $-1 $-1 $148 $58 #
plane-surface $-1 0 0 -7.6402432045999085 0 0 1 1 0 0 forward_v I I I I #
coedge $-1 $149 $150 $151 $152 forward $59 $-1 #
face $-1 $153 $154 $35 $-1 $155 forward single #
loop $-1 $-1 $156 $61 #
plane-surface $-1 -54.900357066560872 0 0 1 0 0 0 0 -1 forward_v I I I I #
coedge $-1 $157 $158 $159 $160 forward $62 $-1 #
face $-1 $161 $162 $36 $-1 $163 reversed single #
loop $-1 $-1 $164 $64 #
plane-surface $-1 -19.98354893278794 -4.9696664455233375 82.544190199928039 0.73135370988377701 0 0.68199835119979291 0.68199835119979291 0 -0.73135370988377701 forward_v I I I I #
coedge $-1 $165 $166 $167 $168 reversed $65 $-1 #
face $-1 $-1 $169 $37 $-1 $170 forward single #
loop $-1 $171 $172 $67 #
cone-surface $-1 49.631451488283645 -4.9696664455233375 2.3748384550070831 -0.73135370988377701 0 -0.68199835119979291 0.51149876339984468 0 -0.54851528241283276 1 I I -0.70710678118654757 0.70710678118654757 0.75 forward I I I I #
loop $-1 $-1 $173 $48 #
coedge $-1 $108 $108 $174 $175 reversed $68 $-1 #
face $-1 $176 $177 $38 $-1 $178 forward single #
loop $-1 $-1 $179 $70 #
plane-surface $-1 -19.98354893278794 -4.9696664455233375 82.544190199928039 0.73135370988377701 0 0.68199835119979291 0.68199835119979291 0 -0.73135370988377701 forward_v I I I I #
coedge $-1 $180 $181 $182 $183 reversed $71 $-1 #
face $-1 $-1 $184 $39 $-1 $185 forward single #
loop $-1 $186 $187 $73 #
cone-surface $-1 49.631451488283645 4.9696664455233375 2.3748384550070831 -0.73135370988377701 0 -0.68199835119979291 0.51149876339984468 0 -0.54851528241283276 1 I I -0.70710678118654757 0.70710678118654757 0.75 forward I I I I #
loop $-1 $-1 $188 $50 #
coedge $-1 $117 $117 $189 $190 reversed $74 $-1 #
face $-1 $191 $192 $40 $-1 $193 reversed single #
loop $-1 $-1 $194 $76 #
plane-surface $-1 -54.900357066560879 18.854519145964453 1.0159338587542237 -0.55919291073839883 0 0.82903756765294845 0.82903756765294845 0 0.55919291073839883 forward_v I I I I #
coedge $-1 $195 $196 $197 $198 reversed $77 $-1 #
face $-1 $-1 $199 $41 $-1 $200 forward single #
loop $-1 $201 $202 $79 #
cone-surface $-1 -49.290894781240794 15.706700727800566 3.2917915721108812 0.55919291073839883 0 -0.82903756765294845 0.20725939191323711 0 0.13979822768459971 1 I I -0.70710678118654746 0.70710678118654746 0.25 forward I I I I #
loop $-1 $-1 $203 $52 #
coedge $-1 $126 $126 $204 $205 reversed $80 $-1 #
face $-1 $-1 $206 $42 $-1 $207 forward single #
loop $-1 $208 $209 $82 #
cone-surface $-1 -49.290894781240794 18.854519145964453 3.2917915721108812 0.55919291073839883 0 -0.82903756765294845 0.20725939191323711 0 0.13979822768459971 1 I I -0.70710678118654746 0.70710678118654746 0.25 forward I I I I #
loop $-1 $-1 $210 $53 #
coedge $-1 $131 $131 $211 $212 reversed $83 $-1 #
face $-1 $-1 $213 $43 $-1 $214 forward single #
loop $-1 $215 $216 $85 #
cone-surface $-1 -49.290894781240794 22.002337564128339 3.2917915721108812 0.55919291073839883 0 -0.82903756765294845 0.20725939191323711 0 0.13979822768459971 1 I I -0.70710678118654746 0.70710678118654746 0.25 forward I I I I #
loop $-1 $-1 $217 $54 #
coedge $-1 $136 $136 $218 $219 reversed $86 $-1 #
face $-1 $220 $221 $33 $-1 $222 reversed single #
loop $-1 $-1 $223 $88 #
plane-surface $-1 0 -32.232660274385559 0 0 1 0 0 0 1 forward_v I I I I #
coedge $-1 $224 $225 $226 $227 forward $89 $-1 #
coedge $-1 $228 $91 $229 $230 forward $56 $-1 #
coedge $-1 $91 $228 $231 $232 forward $56 $-1 #
coedge $-1 $233 $234 $91 $144 reversed $235 $-1 #
edge $-1 $236 -32.232660274385559 $237 32.232660274385559 $143 $238 forward 7 unknown #
face $-1 $239 $240 $34 $-1 $241 forward single #
loop $-1 $-1 $242 $92 #
plane-surface $-1 54.900357066560872 0 0 -1 0 0 0 0 1 forward_v I I I I #
coedge $-1 $243 $244 $245 $246 forward $93 $-1 #
coedge $-1 $245 $95 $242 $247 reversed $59 $-1 #
coedge $-1 $95 $245 $248 $249 reversed $59 $-1 #
coedge $-1 $250 $251 $95 $152 reversed $240 $-1 #
edge $-1 $252 -54.900357066560872 $253 54.900357066560872 $151 $254 forward 7 unknown #
face $-1 $255 $256 $35 $-1 $257 reversed single #
loop $-1 $-1 $258 $96 #
plane-surface $-1 0 36.298548823459548 -3.4992113351869794 0 0 1 1 0 0 forward_v I I I I #
coedge $-1 $259 $260 $157 $261 forward $97 $-1 #
coedge $-1 $262 $99 $156 $261 reversed $62 $-1 #
coedge $-1 $99 $262 $263 $264 reversed $62 $-1 #
coedge $-1 $258 $265 $99 $160 reversed $154 $-1 #
edge $-1 $266 -54.900357066560872 $267 54.900357066560872 $159 $268 forward 7 unknown #
face $-1 $269 $270 $36 $-1 $271 forward single #
loop $-1 $-1 $272 $100 #
plane-surface $-1 60.319610696358708 -9.9393328910466749 157.42809619927687 0 1 0 0.73135370988377701 0 0.68199835119979291 forward_v I I I I #
coedge $-1 $273 $274 $275 $276 reversed $101 $-1 #
coedge $-1 $166 $103 $277 $278 reversed $65 $-1 #
coedge $-1 $103 $165 $273 $279 reversed $65 $-1 #
coedge $-1 $275 $280 $103 $168 forward $270 $-1 #
edge $-1 $281 -24.740551718381518 $282 -19.705704606405455 $167 $283 forward 7 unknown #
loop $-1 $-1 $174 $104 #
plane-surface $-1 -19.98354893278794 -4.9696664455233375 82.544190199928039 0.73135370988377701 0 0.68199835119979291 0.68199835119979291 0 -0.73135370988377701 forward_v I I I I #
loop $-1 $-1 $284 $67 #
coedge $-1 $172 $172 $173 $285 reversed $105 $-1 #
coedge $-1 $173 $173 $172 $285 forward $107 $-1 #
coedge $-1 $174 $174 $108 $175 forward $169 $-1 #
edge $-1 $286 0 $286 6.2831853071796004 $174 $287 forward 7 unknown #
face $-1 $288 $289 $38 $-1 $290 forward single #
loop $-1 $-1 $291 $109 #
plane-surface $-1 0 0 7.6402432045999085 0 0 1 1 0 0 forward_v I I I I #
coedge $-1 $292 $293 $294 $295 reversed $110 $-1 #
coedge $-1 $181 $112 $296 $297 reversed $71 $-1 #
coedge $-1 $112 $180 $291 $298 reversed $71 $-1 #
coedge $-1 $299 $300 $112 $183 forward $301 $-1 #
edge $-1 $302 -76.473017528857028 $303 -71.073804895038521 $182 $304 forward 7 unknown #
loop $-1 $-1 $189 $113 #
plane-surface $-1 -19.98354893278794 -4.9696664455233375 82.544190199928039 0.73135370988377701 0 0.68199835119979291 0.68199835119979291 0 -0.73135370988377701 forward_v I I I I #
loop $-1 $-1 $305 $73 #
coedge $-1 $187 $187 $188 $306 reversed $114 $-1 #
coedge $-1 $188 $188 $187 $306 forward $116 $-1 #
coedge $-1 $189 $189 $117 $190 forward $184 $-1 #
edge $-1 $307 0 $307 6.2831853071796004 $189 $308 forward 7 unknown #
face $-1 $309 $310 $40 $-1 $311 reversed single #
loop $-1 $-1 $312 $118 #
plane-surface $-1 -116.30013800381607 24.100883176237602 92.044850830234196 0 -1 0 0.55919291073839883 0 -0.82903756765294845 forward_v I I I I #
coedge $-1 $313 $314 $315 $316 reversed $119 $-1 #
coedge $-1 $196 $121 $317 $318 reversed $77 $-1 #
coedge $-1 $121 $195 $313 $319 reversed $77 $-1 #
coedge $-1 $315 $320 $121 $198 forward $321 $-1 #
edge $-1 $322 3.2497119353471646 $323 13.070654229141311 $197 $324 forward 7 unknown #
loop $-1 $-1 $204 $122 #
plane-surface $-1 -54.900357066560879 18.854519145964453 1.0159338587542237 -0.55919291073839883 0 0.82903756765294845 0.82903756765294845 0 0.55919291073839883 forward_v I I I I #
loop $-1 $-1 $325 $79 #
coedge $-1 $202 $202 $203 $326 reversed $123 $-1 #
coedge $-1 $203 $203 $202 $326 forward $125 $-1 #
coedge $-1 $204 $204 $126 $205 forward $199 $-1 #
edge $-1 $327 0 $327 6.2831853071796004 $204 $328 forward 7 unknown #
loop $-1 $-1 $211 $127 #
plane-surface $-1 -54.900357066560879 18.854519145964453 1.0159338587542237 -0.55919291073839883 0 0.82903756765294845 0.82903756765294845 0 0.55919291073839883 forward_v I I I I #
loop $-1 $-1 $329 $82 #
coedge $-1 $209 $209 $210 $330 reversed $128 $-1 #
coedge $-1 $210 $210 $209 $330 forward $130 $-1 #
coedge $-1 $211 $211 $131 $212 forward $206 $-1 #
edge $-1 $331 0 $331 6.2831853071796004 $211 $332 forward 7 unknown #
loop $-1 $-1 $218 $132 #
plane-surface $-1 -54.900357066560879 18.854519145964453 1.0159338587542237 -0.55919291073839883 0 0.82903756765294845 0.82903756765294845 0 0.55919291073839883 forward_v I I I I #
loop $-1 $-1 $333 $85 #
coedge $-1 $216 $216 $217 $334 reversed $133 $-1 #
coedge $-1 $217 $217 $216 $334 forward $135 $-1 #
coedge $-1 $218 $218 $136 $219 forward $213 $-1 #
edge $-1 $335 0 $335 6.2831853071796004 $218 $336 forward 7 unknown #
face $-1 $337 $338 $33 $-1 $339 reversed single #
loop $-1 $-1 $340 $137 #
plane-surface $-1 -54.900357066560872 0 0 1 0 0 0 0 -1 forward_v I I I I #
coedge $-1 $231 $341 $233 $342 reversed $138 $-1 #
coedge $-1 $343 $140 $341 $344 forward $89 $-1 #
coedge $-1 $140 $343 $345 $346 forward $89 $-1 #
coedge $-1 $234 $233 $140 $227 reversed $235 $-1 #
edge $-1 $347 -32.232660274385559 $348 32.232660274385559 $226 $349 forward 7 unknown #
coedge $-1 $142 $141 $350 $351 forward $56 $-1 #
coedge $-1 $352 $353 $141 $230 reversed $338 $-1 #
edge $-1 $237 -54.900357066560872 $354 54.900357066560872 $229 $355 forward 7 unknown #
coedge $-1 $356 $223 $142 $232 reversed $138 $-1 #
edge $-1 $357 -54.900357066560872 $236 54.900357066560872 $231 $358 forward 7 unknown #
coedge $-1 $226 $143 $223 $342 forward $235 $-1 #
coedge $-1 $143 $226 $352 $359 reversed $235 $-1 #
loop $-1 $-1 $233 $337 #
vertex $-1 $144 $360 #
vertex $-1 $144 $361 #
straight-curve $-1 54.900357066560872 0 7.6402432045999085 0 1 0 I I #
face $-1 $362 $363 $34 $-1 $364 reversed single #
loop $-1 $-1 $251 $145 #
plane-surface $-1 0 -36.298548823459541 -3.4992113351869794 0 0 1 1 0 0 forward_v I I I I #
coedge $-1 $365 $366 $149 $247 forward $146 $-1 #
coedge $-1 $367 $148 $366 $368 forward $93 $-1 #
coedge $-1 $148 $367 $369 $370 forward $93 $-1 #
coedge $-1 $150 $149 $148 $246 reversed $59 $-1 #
edge $-1 $371 -54.900357066560872 $372 54.900357066560872 $148 $373 forward 7 unknown #
edge $-1 $372 -7.6402432045999085 $253 -3.4992113351869794 $242 $374 forward 7 unknown #
coedge $-1 $369 $375 $150 $249 forward $376 $-1 #
edge $-1 $252 3.4992113351869794 $371 7.6402432045999085 $248 $377 forward 7 unknown #
coedge $-1 $378 $151 $375 $379 forward $240 $-1 #
coedge $-1 $151 $378 $365 $380 forward $240 $-1 #
vertex $-1 $249 $381 #
vertex $-1 $380 $382 #
straight-curve $-1 0 -32.232660274385559 -3.4992113351869794 1 0 0 I I #
face $-1 $383 $384 $35 $-1 $385 reversed single #
loop $-1 $-1 $386 $153 #
plane-surface $-1 0 40.36443737253353 -5.5697272698934439 0 -1 0 0 0 -1 forward_v I I I I #
coedge $-1 $387 $159 $388 $389 forward $154 $-1 #
coedge $-1 $390 $156 $265 $391 reversed $97 $-1 #
coedge $-1 $156 $390 $392 $393 reversed $97 $-1 #
edge $-1 $394 -7.6402432045999085 $267 -3.4992113351869794 $156 $395 forward 7 unknown #
coedge $-1 $158 $157 $396 $397 reversed $62 $-1 #
coedge $-1 $398 $388 $158 $264 forward $399 $-1 #
edge $-1 $266 3.4992113351869794 $400 7.6402432045999085 $263 $401 forward 7 unknown #
coedge $-1 $159 $387 $259 $391 forward $154 $-1 #
vertex $-1 $264 $402 #
vertex $-1 $391 $403 #
straight-curve $-1 0 32.232660274385559 -3.4992113351869794 -1 0 0 I I #
face $-1 $-1 $404 $36 $-1 $405 reversed single #
loop $-1 $-1 $167 $161 #
plane-surface $-1 0 0 7.6402432045999085 0 0 1 1 0 0 forward_v I I I I #
coedge $-1 $406 $407 $408 $409 reversed $162 $-1 #
coedge $-1 $410 $164 $166 $279 forward $101 $-1 #
coedge $-1 $164 $410 $406 $411 forward $101 $-1 #
coedge $-1 $408 $167 $164 $276 forward $270 $-1 #
edge $-1 $282 -2.4848332227616687 $412 7.4544996682850062 $275 $413 forward 7 unknown #
coedge $-1 $414 $415 $165 $278 forward $404 $-1 #
edge $-1 $416 -76.473017528857028 $281 -71.073804895038521 $277 $417 forward 7 unknown #
edge $-1 $282 102.41822251401646 $416 109.80071413312172 $166 $418 forward 7 unknown #
coedge $-1 $167 $408 $414 $419 forward $270 $-1 #
vertex $-1 $278 $420 #
vertex $-1 $168 $421 #
straight-curve $-1 30.159805348179354 0 7.640243204599912 -1 0 0 I I #
coedge $-1 $284 $284 $-1 $422 reversed $171 $-1 #
edge $-1 $423 0 $423 6.2831853071796004 $172 $424 forward 7 unknown #
vertex $-1 $175 $425 #
ellipse-curve $-1 52.382933510572848 -4.9696664455233375 4.9406368876906495 0.73135370988377701 0 0.68199835119979291 1.0229975267996894 0 -1.0970305648256655 1 I I #
face $-1 $-1 $301 $38 $-1 $426 reversed single #
loop $-1 $-1 $427 $176 #
plane-surface $-1 60.319610696358708 0 157.42809619927687 0 -1 0 -0.73135370988377701 0 -0.68199835119979291 forward_v I I I I #
coedge $-1 $428 $429 $181 $298 forward $177 $-1 #
coedge $-1 $296 $179 $428 $430 reversed $110 $-1 #
coedge $-1 $179 $296 $300 $431 reversed $110 $-1 #
coedge $-1 $432 $427 $179 $295 forward $289 $-1 #
edge $-1 $433 102.41822251401646 $434 109.80071413312172 $294 $435 forward 7 unknown #
coedge $-1 $293 $292 $180 $297 forward $110 $-1 #
edge $-1 $436 102.41822251401646 $302 109.80071413312172 $180 $437 forward 7 unknown #
edge $-1 $303 -24.740551718381518 $436 -19.705704606405455 $291 $438 forward 7 unknown #
coedge $-1 $439 $182 $429 $440 reversed $301 $-1 #
coedge $-1 $182 $439 $293 $431 forward $301 $-1 #
loop $-1 $-1 $182 $288 #
vertex $-1 $183 $441 #
vertex $-1 $183 $442 #
straight-curve $-1 54.900357066560872 9.9393328910466749 78.714048099638433 0 0 1 I I #
coedge $-1 $305 $305 $-1 $443 reversed $186 $-1 #
edge $-1 $444 0 $444 6.2831853071796004 $187 $445 forward 7 unknown #
vertex $-1 $190 $446 #
ellipse-curve $-1 52.382933510572848 4.9696664455233375 4.9406368876906495 0.73135370988377701 0 0.68199835119979291 1.0229975267996894 0 -1.0970305648256655 1 I I #
face $-1 $-1 $321 $40 $-1 $447 forward single #
loop $-1 $-1 $448 $191 #
plane-surface $-1 -54.900357066560872 0 0 1 0 0 0 0 -1 forward_v I I I I #
coedge $-1 $449 $450 $451 $452 reversed $192 $-1 #
coedge $-1 $453 $194 $196 $319 forward $119 $-1 #
coedge $-1 $194 $453 $449 $454 forward $119 $-1 #
coedge $-1 $451 $197 $194 $316 forward $321 $-1 #
edge $-1 $323 4.1808955427090773 $455 14.673623603255376 $315 $456 forward 7 unknown #
coedge $-1 $457 $458 $195 $318 forward $310 $-1 #
edge $-1 $459 -45.006491556362867 $322 -38.382182210517186 $317 $460 forward 7 unknown #
edge $-1 $323 -11.846196936042102 $459 -8.6223131303995443e-015 $196 $461 forward 7 unknown #
coedge $-1 $197 $451 $457 $462 forward $321 $-1 #
loop $-1 $-1 $451 $309 #
vertex $-1 $318 $463 #
vertex $-1 $198 $464 #
straight-curve $-1 -58.150069001908037 13.608155115691304 7.6402432045999049 1 0 0 I I #
coedge $-1 $325 $325 $-1 $465 reversed $201 $-1 #
edge $-1 $466 0 $466 6.2831853071796004 $202 $467 forward 7 unknown #
vertex $-1 $205 $468 #
ellipse-curve $-1 -49.989885919663799 15.706700727800566 4.3280885316770688 -0.55919291073839883 0 0.82903756765294845 0.41451878382647422 0 0.27959645536919941 1 I I #
coedge $-1 $329 $329 $-1 $469 reversed $208 $-1 #
edge $-1 $470 0 $470 6.2831853071796004 $209 $471 forward 7 unknown #
vertex $-1 $212 $472 #
ellipse-curve $-1 -49.989885919663799 18.854519145964453 4.3280885316770688 -0.55919291073839883 0 0.82903756765294845 0.41451878382647422 0 0.27959645536919941 1 I I #
coedge $-1 $333 $333 $-1 $473 reversed $215 $-1 #
edge $-1 $474 0 $474 6.2831853071796004 $216 $475 forward 7 unknown #
vertex $-1 $219 $476 #
ellipse-curve $-1 -49.989885919663799 22.002337564128339 4.3280885316770688 -0.55919291073839883 0 0.82903756765294845 0.41451878382647422 0 0.27959645536919941 1 I I #
face $-1 $-1 $235 $33 $-1 $477 reversed single #
loop $-1 $-1 $353 $220 #
plane-surface $-1 0 32.232660274385559 0 0 -1 0 0 0 -1 forward_v I I I I #
coedge $-1 $478 $350 $353 $479 forward $221 $-1 #
coedge $-1 $223 $356 $224 $344 reversed $138 $-1 #
edge $-1 $236 -7.6402432045999085 $348 7.6402432045999085 $233 $480 forward 7 unknown #
coedge $-1 $225 $224 $478 $481 forward $89 $-1 #
edge $-1 $348 -54.900357066560872 $482 54.900357066560872 $341 $483 forward 7 unknown #
coedge $-1 $353 $352 $225 $346 reversed $338 $-1 #
edge $-1 $484 -54.900357066560872 $347 54.900357066560872 $345 $485 forward 7 unknown #
vertex $-1 $227 $486 #
vertex $-1 $342 $487 #
straight-curve $-1 54.900357066560872 0 -7.6402432045999085 0 -1 0 I I #
coedge $-1 $340 $488 $228 $351 reversed $221 $-1 #
edge $-1 $354 -32.232660274385559 $357 32.232660274385559 $350 $489 forward 7 unknown #
coedge $-1 $345 $229 $234 $359 forward $338 $-1 #
coedge $-1 $229 $345 $340 $479 reversed $338 $-1 #
vertex $-1 $230 $490 #
straight-curve $-1 0 32.232660274385559 7.6402432045999085 -1 0 0 I I #
coedge $-1 $341 $231 $488 $491 forward $138 $-1 #
vertex $-1 $351 $492 #
straight-curve $-1 0 -32.232660274385559 7.6402432045999085 1 0 0 I I #
edge $-1 $237 -7.6402432045999085 $347 7.6402432045999085 $234 $493 forward 7 unknown #
point $-1 54.900357066560872 -32.232660274385559 7.6402432045999085 #
point $-1 54.900357066560872 32.232660274385559 7.6402432045999085 #
face $-1 $-1 $376 $34 $-1 $494 reversed single #
loop $-1 $-1 $495 $239 #
plane-surface $-1 0 -40.364437372533516 -5.5697272698934439 0 1 0 0 0 1 forward_v I I I I #
coedge $-1 $496 $242 $251 $380 reversed $146 $-1 #
coedge $-1 $242 $496 $243 $368 reversed $146 $-1 #
coedge $-1 $244 $243 $497 $498 forward $93 $-1 #
edge $-1 $372 32.232660274385559 $499 40.364437372533516 $366 $500 forward 7 unknown #
coedge $-1 $501 $248 $244 $370 reversed $376 $-1 #
edge $-1 $502 -40.364437372533516 $371 -32.232660274385559 $369 $503 forward 7 unknown #
vertex $-1 $249 $504 #
vertex $-1 $368 $505 #
straight-curve $-1 0 -32.232660274385559 -7.6402432045999085 1 0 0 I I #
straight-curve $-1 54.900357066560872 -32.232660274385559 0 0 0 1 I I #
coedge $-1 $248 $501 $250 $379 reversed $376 $-1 #
loop $-1 $-1 $248 $362 #
straight-curve $-1 -54.900357066560872 -32.232660274385559 0 0 0 -1 I I #
coedge $-1 $251 $250 $506 $507 forward $240 $-1 #
edge $-1 $252 -4.0658885490739749 $508 4.0658885490739749 $375 $509 forward 7 unknown #
edge $-1 $510 -4.0658885490739749 $253 4.0658885490739749 $365 $511 forward 7 unknown #
point $-1 -54.900357066560872 -32.232660274385566 -3.4992113351869794 #
point $-1 54.900357066560872 -32.232660274385566 -3.4992113351869794 #
face $-1 $-1 $399 $35 $-1 $512 reversed single #
loop $-1 $-1 $396 $255 #
plane-surface $-1 0 0 -7.6402432045999085 0 0 1 1 0 0 forward_v I I I I #
coedge $-1 $513 $514 $515 $516 forward $256 $-1 #
coedge $-1 $265 $258 $514 $517 forward $154 $-1 #
coedge $-1 $263 $515 $258 $389 reversed $399 $-1 #
edge $-1 $266 -4.065888549073982 $518 4.065888549073982 $388 $519 forward 7 unknown #
coedge $-1 $260 $259 $520 $521 forward $97 $-1 #
edge $-1 $522 -4.065888549073982 $267 4.065888549073982 $259 $523 forward 7 unknown #
coedge $-1 $524 $396 $260 $393 forward $384 $-1 #
edge $-1 $394 -4.0658885490739891 $525 4.065888549073982 $260 $526 forward 7 unknown #
vertex $-1 $393 $527 #
straight-curve $-1 -54.900357066560872 32.232660274385559 0 0 0 1 I I #
coedge $-1 $392 $528 $262 $397 forward $384 $-1 #
edge $-1 $400 -54.900357066560872 $394 54.900357066560872 $396 $529 forward 7 unknown #
coedge $-1 $515 $263 $528 $530 reversed $399 $-1 #
loop $-1 $-1 $263 $383 #
vertex $-1 $264 $531 #
straight-curve $-1 54.900357066560872 32.232660274385559 0 0 0 -1 I I #
point $-1 54.900357066560872 32.232660274385566 -3.4992113351869794 #
point $-1 -54.900357066560872 32.232660274385566 -3.4992113351869794 #
loop $-1 $-1 $277 $269 #
plane-surface $-1 54.900357066560872 0 0 -1 0 0 0 0 1 forward_v I I I I #
coedge $-1 $407 $272 $274 $411 reversed $162 $-1 #
coedge $-1 $272 $406 $532 $533 reversed $162 $-1 #
coedge $-1 $280 $275 $272 $409 forward $270 $-1 #
edge $-1 $412 19.705704606405455 $534 24.740551718381518 $408 $535 forward 7 unknown #
coedge $-1 $274 $273 $415 $536 reversed $101 $-1 #
edge $-1 $537 -109.80071413312172 $412 -102.41822251401646 $406 $538 forward 7 unknown #
vertex $-1 $276 $539 #
straight-curve $-1 49.865509954584809 -2.4848332227616687 7.640243204599912 0 -1 0 I I #
coedge $-1 $532 $277 $280 $419 reversed $404 $-1 #
coedge $-1 $277 $532 $410 $536 forward $404 $-1 #
vertex $-1 $278 $540 #
straight-curve $-1 54.900357066560872 0 78.714048099638433 0 0 1 I I #
straight-curve $-1 -19.98354893278794 0 82.544190199928039 0.68199835119979291 0 -0.73135370988377701 I I #
edge $-1 $534 -9.9393328910466749 $281 0 $414 $541 forward 7 unknown #
point $-1 54.900357066560872 0 7.6402432045999085 #
point $-1 49.865509954584809 0 7.640243204599912 #
edge $-1 $542 1 $542 0 $284 $-1 forward 7 unknown #
vertex $-1 $285 $543 #
ellipse-curve $-1 50.179966770696481 -4.9696664455233375 2.8863372184069278 0.73135370988377701 0 0.68199835119979291 1.0229975267996894 0 -1.0970305648256655 1 I I #
point $-1 53.405931037372532 -4.9696664455233375 3.8436063228649791 #
plane-surface $-1 54.900357066560872 0 0 -1 0 0 0 0 1 forward_v I I I I #
coedge $-1 $294 $432 $544 $545 reversed $289 $-1 #
coedge $-1 $544 $291 $292 $430 forward $177 $-1 #
coedge $-1 $291 $544 $299 $440 forward $177 $-1 #
edge $-1 $436 -12.424166113808344 $433 -2.4848332227616687 $428 $546 forward 7 unknown #
edge $-1 $434 2.4848332227616687 $302 12.424166113808344 $300 $547 forward 7 unknown #
coedge $-1 $427 $294 $439 $548 reversed $289 $-1 #
vertex $-1 $430 $549 #
vertex $-1 $431 $550 #
straight-curve $-1 -19.98354893278794 0 82.544190199928039 0.68199835119979291 0 -0.73135370988377701 I I #
vertex $-1 $298 $551 #
straight-curve $-1 -19.98354893278794 9.9393328910466749 82.544190199928039 0.68199835119979291 0 -0.73135370988377701 I I #
straight-curve $-1 30.159805348179354 9.9393328910466749 7.640243204599912 -1 0 0 I I #
coedge $-1 $300 $299 $432 $548 forward $301 $-1 #
edge $-1 $552 0 $303 9.9393328910466749 $299 $553 forward 7 unknown #
point $-1 54.900357066560872 9.9393328910466749 2.2410305707814047 #
point $-1 54.900357066560872 9.9393328910466749 7.6402432045999085 #
edge $-1 $554 1 $554 0 $305 $-1 forward 7 unknown #
vertex $-1 $306 $555 #
ellipse-curve $-1 50.179966770696481 4.9696664455233375 2.8863372184069278 0.73135370988377701 0 0.68199835119979291 1.0229975267996894 0 -1.0970305648256655 1 I I #
point $-1 53.405931037372532 4.9696664455233375 3.8436063228649791 #
plane-surface $-1 0 0 7.6402432045999085 0 0 1 1 0 0 forward_v I I I I #
coedge $-1 $458 $457 $450 $556 forward $310 $-1 #
coedge $-1 $450 $312 $314 $454 reversed $192 $-1 #
coedge $-1 $312 $449 $448 $556 reversed $192 $-1 #
coedge $-1 $320 $315 $312 $452 forward $321 $-1 #
edge $-1 $455 -13.070654229141311 $557 -3.2497119353471646 $451 $558 forward 7 unknown #
coedge $-1 $314 $313 $458 $559 reversed $119 $-1 #
edge $-1 $560 8.6223131303995443e-015 $455 11.846196936042102 $449 $561 forward 7 unknown #
vertex $-1 $316 $562 #
straight-curve $-1 -45.079414772766725 9.4272595729822264 7.6402432045999076 0 1 0 I I #
coedge $-1 $448 $317 $320 $462 reversed $310 $-1 #
coedge $-1 $317 $448 $453 $559 forward $310 $-1 #
vertex $-1 $318 $563 #
straight-curve $-1 -54.900357066560872 13.608155115691304 46.022425415117098 0 0 1 I I #
straight-curve $-1 -54.900357066560879 13.608155115691304 1.0159338587542237 -0.82903756765294845 0 -0.55919291073839883 I I #
edge $-1 $557 -24.100883176237602 $322 -13.608155115691304 $457 $564 forward 7 unknown #
point $-1 -54.900357066560872 13.608155115691304 7.6402432045999085 #
point $-1 -45.079414772766725 13.608155115691304 7.6402432045999085 #
edge $-1 $565 1 $565 0 $325 $-1 forward 7 unknown #
vertex $-1 $326 $566 #
ellipse-curve $-1 -49.430693008925395 15.706700727800566 3.4990509640241183 -0.55919291073839883 0 0.82903756765294845 0.41451878382647422 0 0.27959645536919941 1 I I #
point $-1 -49.575367135837318 15.706700727800566 4.6076849870462659 #
edge $-1 $567 1 $567 0 $329 $-1 forward 7 unknown #
vertex $-1 $330 $568 #
ellipse-curve $-1 -49.430693008925395 18.854519145964453 3.4990509640241183 -0.55919291073839883 0 0.82903756765294845 0.41451878382647422 0 0.27959645536919941 1 I I #
point $-1 -49.575367135837318 18.854519145964453 4.6076849870462659 #
edge $-1 $569 1 $569 0 $333 $-1 forward 7 unknown #
vertex $-1 $334 $570 #
ellipse-curve $-1 -49.430693008925395 22.002337564128339 3.4990509640241183 -0.55919291073839883 0 0.82903756765294845 0.41451878382647422 0 0.27959645536919941 1 I I #
point $-1 -49.575367135837318 22.002337564128339 4.6076849870462659 #
plane-surface $-1 54.900357066560872 0 0 -1 0 0 0 0 1 forward_v I I I I #
coedge $-1 $488 $340 $343 $481 reversed $221 $-1 #
edge $-1 $354 -7.6402432045999085 $484 7.6402432045999085 $353 $571 forward 7 unknown #
straight-curve $-1 54.900357066560872 -32.232660274385559 0 0 0 -1 I I #
edge $-1 $482 -32.232660274385559 $484 32.232660274385559 $478 $572 forward 7 unknown #
vertex $-1 $481 $573 #
straight-curve $-1 0 -32.232660274385559 -7.6402432045999085 -1 0 0 I I #
vertex $-1 $346 $574 #
straight-curve $-1 0 32.232660274385559 -7.6402432045999085 1 0 0 I I #
point $-1 54.900357066560872 32.232660274385559 -7.6402432045999085 #
point $-1 54.900357066560872 -32.232660274385559 -7.6402432045999085 #
coedge $-1 $350 $478 $356 $491 reversed $221 $-1 #
straight-curve $-1 -54.900357066560872 0 7.6402432045999085 0 -1 0 I I #
point $-1 -54.900357066560872 32.232660274385559 7.6402432045999085 #
edge $-1 $357 -7.6402432045999085 $482 7.6402432045999085 $488 $575 forward 7 unknown #
point $-1 -54.900357066560872 -32.232660274385559 7.6402432045999085 #
straight-curve $-1 54.900357066560872 32.232660274385559 0 0 0 -1 I I #
plane-surface $-1 -54.900357066560872 0 0 1 0 0 0 0 -1 forward_v I I I I #
coedge $-1 $497 $506 $501 $576 forward $363 $-1 #
coedge $-1 $366 $365 $577 $578 forward $146 $-1 #
coedge $-1 $577 $495 $367 $498 reversed $363 $-1 #
edge $-1 $499 -54.900357066560872 $502 54.900357066560872 $497 $579 forward 7 unknown #
vertex $-1 $578 $580 #
straight-curve $-1 54.900357066560872 0 -7.6402432045999085 0 -1 0 I I #
coedge $-1 $375 $369 $495 $576 reversed $376 $-1 #
vertex $-1 $370 $581 #
straight-curve $-1 -54.900357066560872 0 -7.6402432045999085 0 1 0 I I #
point $-1 -54.900357066560872 -32.232660274385559 -7.6402432045999085 #
point $-1 54.900357066560872 -32.232660274385559 -7.6402432045999085 #
coedge $-1 $495 $577 $378 $507 reversed $363 $-1 #
edge $-1 $508 -54.900357066560872 $510 54.900357066560872 $506 $582 forward 7 unknown #
vertex $-1 $379 $583 #
straight-curve $-1 -54.900357066560872 -36.298548823459541 -3.4992113351869794 0 -1 0 I I #
vertex $-1 $380 $584 #
straight-curve $-1 54.900357066560872 -36.298548823459541 -3.4992113351869794 0 1 0 I I #
plane-surface $-1 54.900357066560872 0 0 -1 0 0 0 0 1 forward_v I I I I #
coedge $-1 $520 $386 $524 $585 reversed $256 $-1 #
coedge $-1 $386 $520 $387 $517 reversed $256 $-1 #
coedge $-1 $388 $398 $386 $516 reversed $399 $-1 #
edge $-1 $518 -2.0705159347064646 $586 2.0705159347064646 $515 $587 forward 7 unknown #
edge $-1 $518 -54.900357066560872 $522 54.900357066560872 $514 $588 forward 7 unknown #
vertex $-1 $389 $589 #
straight-curve $-1 54.900357066560872 36.298548823459548 -3.4992113351869794 0 1 0 I I #
coedge $-1 $514 $513 $390 $521 reversed $256 $-1 #
edge $-1 $522 -2.0705159347064646 $525 2.0705159347064646 $520 $590 forward 7 unknown #
vertex $-1 $517 $591 #
straight-curve $-1 -54.900357066560872 36.298548823459548 -3.4992113351869794 0 -1 0 I I #
coedge $-1 $528 $392 $513 $585 forward $384 $-1 #
vertex $-1 $585 $592 #
straight-curve $-1 -54.900357066560872 36.298548823459548 -7.6402432045999085 0 1 0 I I #
point $-1 -54.900357066560872 32.232660274385559 -7.6402432045999085 #
coedge $-1 $396 $524 $398 $530 forward $384 $-1 #
straight-curve $-1 0 32.232660274385559 -7.6402432045999085 -1 0 0 I I #
edge $-1 $586 -40.36443737253353 $400 -32.232660274385559 $398 $593 forward 7 unknown #
point $-1 54.900357066560872 32.232660274385559 -7.6402432045999085 #
coedge $-1 $415 $414 $407 $533 forward $404 $-1 #
edge $-1 $534 71.073804895038521 $537 76.473017528857028 $532 $594 forward 7 unknown #
vertex $-1 $419 $595 #
straight-curve $-1 30.159805348179354 -9.9393328910466749 7.640243204599912 1 0 0 I I #
edge $-1 $537 -7.4544996682850062 $416 2.4848332227616687 $415 $596 forward 7 unknown #
vertex $-1 $536 $597 #
straight-curve $-1 -19.98354893278794 -9.9393328910466749 82.544190199928039 -0.68199835119979291 0 0.73135370988377701 I I #
point $-1 49.865509954584809 -9.9393328910466749 7.640243204599912 #
point $-1 54.900357066560872 0 2.2410305707814047 #
straight-curve $-1 54.900357066560872 0 7.6402432045999085 0 1 0 I I #
vertex $-1 $422 $598 #
point $-1 51.202964297496166 -4.9696664455233375 1.7893066535812623 #
coedge $-1 $429 $428 $427 $545 forward $177 $-1 #
edge $-1 $433 19.705704606405455 $552 24.740551718381518 $544 $599 forward 7 unknown #
straight-curve $-1 49.865509954584809 -2.4848332227616687 7.640243204599912 0 -1 0 I I #
straight-curve $-1 54.900357066560865 -2.4848332227616687 2.2410305707814118 0 1 0 I I #
edge $-1 $552 71.073804895038521 $434 76.473017528857028 $439 $600 forward 7 unknown #
point $-1 49.865509954584809 0 7.640243204599912 #
point $-1 54.900357066560872 0 2.2410305707814047 #
point $-1 49.865509954584809 9.9393328910466749 7.640243204599912 #
vertex $-1 $440 $601 #
straight-curve $-1 54.900357066560872 0 7.6402432045999085 0 1 0 I I #
vertex $-1 $443 $602 #
point $-1 51.202964297496166 4.9696664455233375 1.7893066535812623 #
edge $-1 $557 38.382182210517186 $560 45.006491556362867 $448 $603 forward 7 unknown #
vertex $-1 $462 $604 #
straight-curve $-1 -58.150069001908037 24.100883176237602 7.6402432045999049 -1 0 0 I I #
edge $-1 $560 -14.673623603255376 $459 -4.1808955427090773 $458 $605 forward 7 unknown #
vertex $-1 $559 $606 #
straight-curve $-1 -54.900357066560879 24.100883176237602 1.0159338587542237 0.82903756765294845 0 0.55919291073839883 I I #
point $-1 -45.079414772766725 24.100883176237602 7.6402432045999085 #
point $-1 -54.900357066560872 13.608155115691304 1.0159338587542286 #
straight-curve $-1 -54.900357066560872 0 7.6402432045999085 0 -1 0 I I #
vertex $-1 $465 $607 #
point $-1 -49.016174225098922 15.706700727800566 3.7786474193933177 #
vertex $-1 $469 $608 #
point $-1 -49.016174225098922 18.854519145964453 3.7786474193933177 #
vertex $-1 $473 $609 #
point $-1 -49.016174225098922 22.002337564128339 3.7786474193933177 #
straight-curve $-1 -54.900357066560872 32.232660274385559 0 0 0 -1 I I #
straight-curve $-1 -54.900357066560872 0 -7.6402432045999085 0 1 0 I I #
point $-1 -54.900357066560872 -32.232660274385559 -7.6402432045999085 #
point $-1 -54.900357066560872 32.232660274385559 -7.6402432045999085 #
straight-curve $-1 -54.900357066560872 -32.232660274385559 0 0 0 -1 I I #
edge $-1 $508 -2.0705159347064646 $502 2.0705159347064646 $501 $610 forward 7 unknown #
coedge $-1 $506 $497 $496 $578 reversed $363 $-1 #
edge $-1 $510 -2.0705159347064646 $499 2.0705159347064646 $496 $611 forward 7 unknown #
straight-curve $-1 0 -40.364437372533516 -7.6402432045999085 -1 0 0 I I #
point $-1 54.900357066560872 -40.364437372533516 -7.6402432045999085 #
point $-1 -54.900357066560872 -40.364437372533516 -7.6402432045999085 #
straight-curve $-1 0 -40.364437372533516 -3.4992113351869794 1 0 0 I I #
point $-1 -54.900357066560872 -40.364437372533516 -3.4992113351869794 #
point $-1 54.900357066560872 -40.364437372533516 -3.4992113351869794 #
edge $-1 $525 -54.900357066560872 $586 54.900357066560872 $513 $612 forward 7 unknown #
vertex $-1 $530 $613 #
straight-curve $-1 54.900357066560872 40.36443737253353 -5.5697272698934439 0 0 -1 I I #
straight-curve $-1 0 40.36443737253353 -3.4992113351869794 -1 0 0 I I #
point $-1 54.900357066560872 40.36443737253353 -3.4992113351869794 #
straight-curve $-1 -54.900357066560872 40.36443737253353 -5.5697272698934439 0 0 -1 I I #
point $-1 -54.900357066560872 40.36443737253353 -3.4992113351869794 #
point $-1 -54.900357066560872 40.36443737253353 -7.6402432045999085 #
straight-curve $-1 54.900357066560872 0 -7.6402432045999085 0 -1 0 I I #
straight-curve $-1 54.900357066560872 -9.9393328910466749 78.714048099638433 0 0 -1 I I #
point $-1 54.900357066560872 -9.9393328910466749 7.6402432045999085 #
straight-curve $-1 54.900357066560865 -2.4848332227616687 2.2410305707814118 0 1 0 I I #
point $-1 54.900357066560872 -9.9393328910466749 2.2410305707814047 #
point $-1 49.082936205870809 -4.9696664455233375 1.8633396916072384 #
straight-curve $-1 30.159805348179354 0 7.640243204599912 1 0 0 I I #
straight-curve $-1 54.900357066560872 0 78.714048099638433 0 0 -1 I I #
point $-1 54.900357066560872 0 7.6402432045999085 #
point $-1 49.082936205870809 4.9696664455233375 1.8633396916072384 #
straight-curve $-1 -54.900357066560872 24.100883176237602 46.022425415117098 0 0 -1 I I #
point $-1 -54.900357066560872 24.100883176237602 7.6402432045999085 #
straight-curve $-1 -54.900357066560872 9.4272595729822264 1.0159338587542277 0 -1 0 I I #
point $-1 -54.900357066560872 24.100883176237602 1.0159338587542286 #
point $-1 -49.151096553556194 15.706700727800566 3.0845321801976442 #
point $-1 -49.151096553556194 18.854519145964453 3.0845321801976442 #
point $-1 -49.151096553556194 22.002337564128339 3.0845321801976442 #
straight-curve $-1 -54.900357066560872 -40.364437372533516 -5.5697272698934439 0 0 -1 I I #
straight-curve $-1 54.900357066560872 -40.364437372533516 -5.5697272698934439 0 0 -1 I I #
straight-curve $-1 0 40.36443737253353 -7.6402432045999085 1 0 0 I I #
point $-1 54.900357066560872 40.36443737253353 -7.6402432045999085 #
End-of-ACIS-data 