500 0 4 0           
7 Unknown 11 ACIS 5.0 NT 24 Thu Mar 25 17:23:24 1999 
-1 9.9999999999999995e-007 1e-010 
body $-1 $4 $-1 $5 #
body $-1 $6 $-1 $7 #
body $-1 $8 $-1 $9 #
body $-1 $10 $-1 $11 #
lump $-1 $-1 $12 $0 #
transform $-1 1 0 0 0 1 0 0 0 1 42.982268745994446 27.297092187159215 9.4466416384017649 1 rotate no_reflect no_shear #
lump $-1 $-1 $13 $1 #
transform $-1 1 0 0 0 1 0 0 0 1 42.982268745994446 27.297092187159215 9.4466416384017649 1 rotate no_reflect no_shear #
lump $-1 $-1 $14 $2 #
transform $-1 1 0 0 0 1 0 0 0 1 42.982268745994446 27.297092187159215 9.4466416384017649 1 rotate no_reflect no_shear #
lump $-1 $-1 $15 $3 #
transform $-1 1 0 0 0 1 0 0 0 1 42.982268745994446 27.297092187159215 9.4466416384017649 1 rotate no_reflect no_shear #
shell $-1 $-1 $-1 $16 $-1 $4 #
shell $-1 $-1 $-1 $17 $-1 $6 #
shell $-1 $-1 $-1 $18 $-1 $8 #
shell $-1 $-1 $-1 $19 $-1 $10 #
face $-1 $20 $21 $12 $-1 $22 forward single #
face $-1 $23 $24 $13 $-1 $25 forward single #
face $-1 $26 $27 $14 $-1 $28 reversed single #
face $-1 $29 $30 $15 $-1 $31 forward single #
face $-1 $32 $33 $12 $-1 $34 reversed single #
loop $-1 $-1 $35 $16 #
plane-surface $-1 0 0 9.4466416384017649 0 0 1 1 0 0 forward_v I I I I #
face $-1 $36 $37 $13 $-1 $38 reversed single #
loop $-1 $-1 $39 $17 #
plane-surface $-1 -42.982268745994446 0 0 1 0 0 0 0 -1 forward_v I I I I #
face $-1 $40 $41 $14 $-1 $42 reversed single #
loop $-1 $-1 $43 $18 #
plane-surface $-1 -11.684805659862789 -87.013078420136964 68.040590990053403 -1 0 0 0 -0.69465837861970381 0.71933979245794832 forward_v I I I I #
face $-1 $44 $45 $15 $-1 $46 forward single #
loop $-1 $47 $48 $19 #
cone-surface $-1 -22.143656016203252 -25.270255470394048 7.4650901388832045 0 0.69465837861970381 -0.71933979245794832 0.5 0 0 1 I I 0 1 0.5 forward I I I I #
face $-1 $49 $50 $12 $-1 $51 reversed single #
loop $-1 $-1 $52 $20 #
plane-surface $-1 0 0 -9.4466416384017649 0 0 1 1 0 0 forward_v I I I I #
coedge $-1 $53 $54 $55 $56 forward $21 $-1 #
face $-1 $57 $58 $13 $-1 $59 reversed single #
loop $-1 $-1 $60 $23 #
plane-surface $-1 0 27.297092187159215 0 0 -1 0 0 0 -1 forward_v I I I I #
coedge $-1 $61 $62 $63 $64 forward $24 $-1 #
face $-1 $65 $66 $14 $-1 $67 reversed single #
loop $-1 $-1 $68 $26 #
plane-surface $-1 -22.143656016203252 -27.297092187159222 6.2028784318225973 0 -0.69465837861970381 0.71933979245794832 1 0 0 forward_v I I I I #
coedge $-1 $69 $70 $71 $72 reversed $27 $-1 #
face $-1 $-1 $73 $15 $-1 $74 forward single #
loop $-1 $75 $76 $29 #
cone-surface $-1 -22.143656016203252 -24.749261686429271 6.9255852945397436 0 0.69465837861970381 -0.71933979245794832 0.25 0 0 1 I I -0.70710678118654746 0.70710678118654746 0.25 forward I I I I #
loop $-1 $-1 $77 $19 #
coedge $-1 $48 $48 $78 $79 reversed $30 $-1 #
face $-1 $80 $81 $12 $-1 $82 reversed single #
loop $-1 $-1 $83 $32 #
plane-surface $-1 0 -27.297092187159215 0 0 1 0 0 0 1 forward_v I I I I #
coedge $-1 $84 $85 $86 $87 forward $33 $-1 #
coedge $-1 $88 $35 $89 $90 forward $21 $-1 #
coedge $-1 $35 $88 $91 $92 forward $21 $-1 #
coedge $-1 $93 $94 $35 $56 reversed $95 $-1 #
edge $-1 $96 -27.297092187159215 $97 27.297092187159215 $55 $98 forward 7 unknown #
face $-1 $99 $100 $13 $-1 $101 reversed single #
loop $-1 $-1 $63 $36 #
plane-surface $-1 -48.172149932719812 0 3.8079476734722704 0 0 1 1 0 0 forward_v I I I I #
coedge $-1 $102 $103 $61 $104 forward $37 $-1 #
coedge $-1 $105 $39 $60 $104 reversed $24 $-1 #
coedge $-1 $39 $105 $106 $107 reversed $24 $-1 #
coedge $-1 $108 $109 $39 $64 reversed $58 $-1 #
edge $-1 $110 -27.297092187159215 $111 27.297092187159215 $63 $112 forward 7 unknown #
face $-1 $113 $114 $14 $-1 $115 reversed single #
loop $-1 $-1 $116 $40 #
plane-surface $-1 -32.602506372543715 -87.013078420136964 68.040590990053403 1 0 0 0 0.69465837861970381 -0.71933979245794832 forward_v I I I I #
coedge $-1 $117 $118 $119 $120 reversed $41 $-1 #
coedge $-1 $70 $43 $121 $122 reversed $27 $-1 #
coedge $-1 $43 $69 $117 $123 reversed $27 $-1 #
coedge $-1 $119 $124 $43 $72 forward $125 $-1 #
edge $-1 $126 16.209447022909266 $127 19.568462077819881 $71 $128 forward 7 unknown #
loop $-1 $-1 $78 $44 #
plane-surface $-1 -22.143656016203252 -27.297092187159222 6.2028784318225973 0 -0.69465837861970381 0.71933979245794832 1 0 0 forward_v I I I I #
loop $-1 $-1 $129 $29 #
coedge $-1 $76 $76 $77 $130 reversed $45 $-1 #
coedge $-1 $77 $77 $76 $130 forward $47 $-1 #
coedge $-1 $78 $78 $48 $79 forward $73 $-1 #
edge $-1 $131 3.5074398622107038e-016 $131 6.2831853071796004 $78 $132 forward 7 unknown #
face $-1 $133 $134 $12 $-1 $135 reversed single #
loop $-1 $-1 $136 $49 #
plane-surface $-1 -42.982268745994446 0 0 1 0 0 0 0 -1 forward_v I I I I #
coedge $-1 $137 $91 $138 $139 forward $50 $-1 #
coedge $-1 $140 $52 $137 $141 forward $33 $-1 #
coedge $-1 $52 $140 $142 $143 forward $33 $-1 #
coedge $-1 $94 $93 $52 $87 reversed $95 $-1 #
edge $-1 $144 -27.297092187159215 $145 27.297092187159215 $86 $146 forward 7 unknown #
coedge $-1 $54 $53 $147 $148 forward $21 $-1 #
coedge $-1 $149 $150 $53 $90 reversed $134 $-1 #
edge $-1 $97 -42.982268745994446 $151 42.982268745994446 $89 $152 forward 7 unknown #
coedge $-1 $83 $153 $54 $92 reversed $50 $-1 #
edge $-1 $154 -42.982268745994446 $96 42.982268745994446 $91 $155 forward 7 unknown #
coedge $-1 $86 $55 $153 $156 forward $95 $-1 #
coedge $-1 $55 $86 $149 $157 reversed $95 $-1 #
loop $-1 $-1 $93 $133 #
vertex $-1 $56 $158 #
vertex $-1 $56 $159 #
straight-curve $-1 42.982268745994446 0 9.4466416384017649 0 1 0 I I #
face $-1 $160 $161 $13 $-1 $162 forward single #
loop $-1 $-1 $163 $57 #
plane-surface $-1 -53.362031119445177 0 6.6272946559370176 1 0 0 0 0 -1 forward_v I I I I #
coedge $-1 $164 $60 $109 $165 reversed $37 $-1 #
coedge $-1 $60 $164 $166 $167 reversed $37 $-1 #
edge $-1 $168 -9.4466416384017649 $111 -3.8079476734722704 $60 $169 forward 7 unknown #
coedge $-1 $62 $61 $170 $171 reversed $24 $-1 #
coedge $-1 $172 $173 $62 $107 forward $174 $-1 #
edge $-1 $110 3.8079476734722704 $175 9.4466416384017649 $106 $176 forward 7 unknown #
coedge $-1 $177 $63 $173 $178 forward $58 $-1 #
coedge $-1 $63 $177 $102 $165 forward $58 $-1 #
vertex $-1 $107 $179 #
vertex $-1 $104 $180 #
straight-curve $-1 -42.982268745994446 0 3.8079476734722704 0 1 0 I I #
face $-1 $-1 $125 $14 $-1 $181 forward single #
loop $-1 $-1 $182 $65 #
plane-surface $-1 0 -27.297092187159215 0 0 1 0 0 0 1 forward_v I I I I #
coedge $-1 $183 $184 $185 $186 reversed $66 $-1 #
coedge $-1 $187 $68 $70 $123 forward $41 $-1 #
coedge $-1 $68 $187 $183 $188 forward $41 $-1 #
coedge $-1 $185 $71 $68 $120 forward $125 $-1 #
edge $-1 $127 0.61297765176116314 $189 21.530678364442089 $119 $190 forward 7 unknown #
coedge $-1 $191 $192 $69 $122 forward $114 $-1 #
edge $-1 $193 -27.817417063204097 $126 -24.573653856624937 $121 $194 forward 7 unknown #
edge $-1 $127 -4.6695804821710656 $193 -1.0047061288372931e-014 $70 $195 forward 7 unknown #
coedge $-1 $71 $185 $191 $196 forward $125 $-1 #
loop $-1 $-1 $185 $113 #
vertex $-1 $122 $197 #
vertex $-1 $72 $198 #
straight-curve $-1 -11.684805659862789 -43.506539210068482 9.4466416384017649 0 1 0 I I #
coedge $-1 $129 $129 $-1 $199 reversed $75 $-1 #
edge $-1 $200 0 $200 6.2831853071796004 $76 $201 forward 7 unknown #
vertex $-1 $79 $202 #
ellipse-curve $-1 -22.143656016203252 -25.617584659703908 7.8247600351121864 0 -0.69465837861970381 0.71933979245794832 0.5 0 0 1 I I #
face $-1 $-1 $95 $12 $-1 $203 reversed single #
loop $-1 $-1 $149 $80 #
plane-surface $-1 0 27.297092187159215 0 0 -1 0 0 0 -1 forward_v I I I I #
coedge $-1 $204 $147 $150 $205 forward $81 $-1 #
coedge $-1 $153 $83 $84 $141 reversed $50 $-1 #
coedge $-1 $147 $204 $83 $139 reversed $81 $-1 #
edge $-1 $154 -9.4466416384017649 $206 9.4466416384017649 $138 $207 forward 7 unknown #
coedge $-1 $85 $84 $204 $208 forward $33 $-1 #
edge $-1 $145 -42.982268745994446 $206 42.982268745994446 $137 $209 forward 7 unknown #
coedge $-1 $150 $149 $85 $143 reversed $134 $-1 #
edge $-1 $210 -42.982268745994446 $144 42.982268745994446 $142 $211 forward 7 unknown #
vertex $-1 $87 $212 #
vertex $-1 $156 $213 #
straight-curve $-1 42.982268745994446 0 -9.4466416384017649 0 -1 0 I I #
coedge $-1 $136 $138 $88 $148 reversed $81 $-1 #
edge $-1 $151 -27.297092187159215 $154 27.297092187159215 $147 $214 forward 7 unknown #
coedge $-1 $142 $89 $94 $157 forward $134 $-1 #
coedge $-1 $89 $142 $136 $205 reversed $134 $-1 #
vertex $-1 $90 $215 #
straight-curve $-1 0 27.297092187159215 9.4466416384017649 -1 0 0 I I #
coedge $-1 $91 $137 $93 $156 reversed $50 $-1 #
vertex $-1 $148 $216 #
straight-curve $-1 0 -27.297092187159215 9.4466416384017649 1 0 0 I I #
edge $-1 $96 -9.4466416384017649 $145 9.4466416384017649 $93 $217 forward 7 unknown #
edge $-1 $97 -9.4466416384017649 $144 9.4466416384017649 $94 $218 forward 7 unknown #
point $-1 42.982268745994446 -27.297092187159215 9.4466416384017649 #
point $-1 42.982268745994446 27.297092187159215 9.4466416384017649 #
face $-1 $-1 $174 $13 $-1 $219 reversed single #
loop $-1 $-1 $170 $99 #
plane-surface $-1 0 0 9.4466416384017649 0 0 1 1 0 0 forward_v I I I I #
coedge $-1 $220 $221 $164 $222 forward $100 $-1 #
coedge $-1 $103 $102 $163 $222 reversed $37 $-1 #
edge $-1 $223 -5.1898811867253656 $111 5.1898811867253656 $102 $224 forward 7 unknown #
coedge $-1 $225 $170 $103 $167 forward $161 $-1 #
edge $-1 $168 42.982268745994446 $226 53.362031119445177 $103 $227 forward 7 unknown #
vertex $-1 $167 $228 #
straight-curve $-1 -42.982268745994446 27.297092187159215 0 0 0 -1 I I #
coedge $-1 $166 $229 $105 $171 forward $161 $-1 #
edge $-1 $175 -27.297092187159215 $168 27.297092187159215 $170 $230 forward 7 unknown #
coedge $-1 $231 $106 $229 $232 reversed $174 $-1 #
coedge $-1 $106 $231 $108 $178 reversed $174 $-1 #
loop $-1 $-1 $106 $160 #
vertex $-1 $107 $233 #
straight-curve $-1 -42.982268745994446 -27.297092187159215 0 0 0 1 I I #
coedge $-1 $109 $108 $220 $234 forward $58 $-1 #
edge $-1 $110 -5.1898811867253656 $235 5.1898811867253656 $173 $236 forward 7 unknown #
point $-1 -42.982268745994446 -27.297092187159215 3.8079476734722704 #
point $-1 -42.982268745994446 27.297092187159215 3.8079476734722704 #
plane-surface $-1 0 0 9.4466416384017649 0 0 1 1 0 0 forward_v I I I I #
coedge $-1 $192 $191 $184 $237 forward $114 $-1 #
coedge $-1 $184 $116 $118 $188 reversed $66 $-1 #
coedge $-1 $116 $183 $182 $237 reversed $66 $-1 #
coedge $-1 $124 $119 $116 $186 forward $125 $-1 #
edge $-1 $189 -19.568462077819881 $238 -16.209447022909266 $185 $239 forward 7 unknown #
coedge $-1 $118 $117 $192 $240 reversed $41 $-1 #
edge $-1 $241 1.0047061288372931e-014 $189 4.6695804821710656 $183 $242 forward 7 unknown #
vertex $-1 $120 $243 #
straight-curve $-1 -11.071828008101626 -23.938077132248601 9.4466416384017649 -1 0 0 I I #
coedge $-1 $182 $121 $124 $196 reversed $114 $-1 #
coedge $-1 $121 $182 $187 $240 forward $114 $-1 #
vertex $-1 $122 $244 #
straight-curve $-1 -11.684805659862789 -27.297092187159215 34.020295495026701 0 0 1 I I #
straight-curve $-1 -11.684805659862789 -27.297092187159222 6.2028784318225973 0 -0.71933979245794832 -0.69465837861970381 I I #
edge $-1 $238 -32.602506372543715 $126 -11.684805659862789 $191 $245 forward 7 unknown #
point $-1 -11.684805659862789 -27.297092187159215 9.4466416384017649 #
point $-1 -11.684805659862789 -23.938077132248601 9.4466416384017649 #
edge $-1 $246 1 $246 0 $129 $-1 forward 7 unknown #
vertex $-1 $130 $247 #
ellipse-curve $-1 -22.143656016203252 -24.922926281084198 7.1054202426542306 0 -0.69465837861970381 0.71933979245794832 0.5 0 0 1 I I #
point $-1 -21.643656016203252 -25.617584659703901 7.8247600351121793 #
plane-surface $-1 42.982268745994446 0 0 -1 0 0 0 0 1 forward_v I I I I #
coedge $-1 $138 $136 $140 $208 reversed $81 $-1 #
edge $-1 $151 -9.4466416384017649 $210 9.4466416384017649 $150 $248 forward 7 unknown #
vertex $-1 $208 $249 #
straight-curve $-1 -42.982268745994446 -27.297092187159215 0 0 0 -1 I I #
edge $-1 $206 -27.297092187159215 $210 27.297092187159215 $204 $250 forward 7 unknown #
straight-curve $-1 0 -27.297092187159215 -9.4466416384017649 -1 0 0 I I #
vertex $-1 $143 $251 #
straight-curve $-1 0 27.297092187159215 -9.4466416384017649 1 0 0 I I #
point $-1 42.982268745994446 27.297092187159215 -9.4466416384017649 #
point $-1 42.982268745994446 -27.297092187159215 -9.4466416384017649 #
straight-curve $-1 -42.982268745994446 0 9.4466416384017649 0 -1 0 I I #
point $-1 -42.982268745994446 27.297092187159215 9.4466416384017649 #
point $-1 -42.982268745994446 -27.297092187159215 9.4466416384017649 #
straight-curve $-1 42.982268745994446 -27.297092187159215 0 0 0 -1 I I #
straight-curve $-1 42.982268745994446 27.297092187159215 0 0 0 -1 I I #
plane-surface $-1 0 -27.297092187159215 0 0 1 0 0 0 1 forward_v I I I I #
coedge $-1 $252 $163 $177 $234 reversed $100 $-1 #
coedge $-1 $163 $252 $225 $253 reversed $100 $-1 #
edge $-1 $226 -2.8193469824647472 $223 2.8193469824647472 $164 $254 forward 7 unknown #
vertex $-1 $165 $255 #
straight-curve $-1 -48.172149932719812 27.297092187159215 3.8079476734722704 1 0 0 I I #
coedge $-1 $229 $166 $221 $253 forward $161 $-1 #
vertex $-1 $167 $256 #
straight-curve $-1 0 27.297092187159215 9.4466416384017649 -1 0 0 I I #
point $-1 -42.982268745994446 27.297092187159215 9.4466416384017649 #
coedge $-1 $170 $225 $172 $232 forward $161 $-1 #
straight-curve $-1 -42.982268745994446 0 9.4466416384017649 0 1 0 I I #
coedge $-1 $173 $172 $252 $257 forward $174 $-1 #
edge $-1 $258 -53.362031119445177 $175 -42.982268745994446 $172 $259 forward 7 unknown #
point $-1 -42.982268745994446 -27.297092187159215 9.4466416384017649 #
edge $-1 $235 -27.297092187159215 $223 27.297092187159215 $220 $260 forward 7 unknown #
vertex $-1 $234 $261 #
straight-curve $-1 -48.172149932719812 -27.297092187159215 3.8079476734722704 -1 0 0 I I #
edge $-1 $238 24.573653856624937 $241 27.817417063204097 $182 $262 forward 7 unknown #
vertex $-1 $196 $263 #
straight-curve $-1 -32.602506372543715 -43.506539210068482 9.4466416384017649 0 -1 0 I I #
edge $-1 $241 -21.530678364442089 $193 -0.61297765176116314 $192 $264 forward 7 unknown #
vertex $-1 $240 $265 #
straight-curve $-1 -32.602506372543715 -27.297092187159222 6.2028784318225973 0 0.71933979245794832 0.69465837861970381 I I #
point $-1 -32.602506372543715 -23.938077132248601 9.4466416384017649 #
point $-1 -11.684805659862789 -27.297092187159215 6.2028784318226045 #
straight-curve $-1 0 -27.297092187159215 9.4466416384017649 1 0 0 I I #
vertex $-1 $199 $266 #
point $-1 -21.643656016203252 -24.922926281084198 7.1054202426542306 #
straight-curve $-1 -42.982268745994446 27.297092187159215 0 0 0 -1 I I #
point $-1 -42.982268745994446 -27.297092187159215 -9.4466416384017649 #
straight-curve $-1 -42.982268745994446 0 -9.4466416384017649 0 1 0 I I #
point $-1 -42.982268745994446 27.297092187159215 -9.4466416384017649 #
coedge $-1 $221 $220 $231 $257 reversed $100 $-1 #
edge $-1 $226 -27.297092187159215 $258 27.297092187159215 $221 $267 forward 7 unknown #
straight-curve $-1 -53.362031119445177 27.297092187159215 6.6272946559370176 0 0 -1 I I #
point $-1 -53.362031119445177 27.297092187159215 3.8079476734722704 #
point $-1 -53.362031119445177 27.297092187159215 9.4466416384017649 #
edge $-1 $258 -2.8193469824647472 $235 2.8193469824647472 $252 $268 forward 7 unknown #
vertex $-1 $253 $269 #
straight-curve $-1 0 -27.297092187159215 9.4466416384017649 1 0 0 I I #
straight-curve $-1 -53.362031119445177 0 3.8079476734722704 0 1 0 I I #
point $-1 -53.362031119445177 -27.297092187159215 3.8079476734722704 #
straight-curve $-1 -32.602506372543715 -27.297092187159215 34.020295495026701 0 0 -1 I I #
point $-1 -32.602506372543715 -27.297092187159215 9.4466416384017649 #
straight-curve $-1 -11.071828008101626 -27.297092187159215 6.2028784318226027 1 0 0 I I #
point $-1 -32.602506372543715 -27.297092187159215 6.2028784318226045 #
point $-1 -22.143656016203252 -24.575597091774345 6.7457503464252566 #
straight-curve $-1 -53.362031119445177 0 9.4466416384017649 0 -1 0 I I #
straight-curve $-1 -53.362031119445177 -27.297092187159215 6.6272946559370176 0 0 -1 I I #
point $-1 -53.362031119445177 -27.297092187159215 9.4466416384017649 #
End-of-ACIS-data 