500 0 8 0           
7 Unknown 11 ACIS 5.0 NT 24 Thu Mar 25 19:53:31 1999 
-1 9.9999999999999995e-007 1e-010 
body $-1 $8 $-1 $9 #
body $-1 $10 $-1 $11 #
body $-1 $12 $-1 $13 #
body $-1 $14 $-1 $15 #
body $-1 $16 $-1 $17 #
body $-1 $18 $-1 $19 #
body $-1 $20 $-1 $21 #
body $-1 $22 $-1 $23 #
lump $-1 $-1 $24 $0 #
transform $-1 1 0 0 0 1 0 0 0 1 40.101321451460308 19.015543147567822 5.7752886225765385 1 rotate no_reflect no_shear #
lump $-1 $-1 $25 $1 #
transform $-1 1 0 0 0 1 0 0 0 1 40.101321451460308 19.015543147567822 5.7752886225765385 1 rotate no_reflect no_shear #
lump $-1 $-1 $26 $2 #
transform $-1 1 0 0 0 1 0 0 0 1 40.101321451460308 19.015543147567822 5.7752886225765385 1 rotate no_reflect no_shear #
lump $-1 $-1 $27 $3 #
transform $-1 1 0 0 0 1 0 0 0 1 40.101321451460308 19.015543147567822 5.7752886225765385 1 rotate no_reflect no_shear #
lump $-1 $-1 $28 $4 #
transform $-1 1 0 0 0 1 0 0 0 1 40.101321451460308 19.015543147567822 5.7752886225765385 1 rotate no_reflect no_shear #
lump $-1 $-1 $29 $5 #
transform $-1 1 0 0 0 1 0 0 0 1 40.101321451460308 19.015543147567822 5.7752886225765385 1 rotate no_reflect no_shear #
lump $-1 $-1 $30 $6 #
transform $-1 1 0 0 0 1 0 0 0 1 40.101321451460308 19.015543147567822 5.7752886225765385 1 rotate no_reflect no_shear #
lump $-1 $-1 $31 $7 #
transform $-1 1 0 0 0 1 0 0 0 1 40.101321451460308 19.015543147567822 5.7752886225765385 1 rotate no_reflect no_shear #
shell $-1 $-1 $-1 $32 $-1 $8 #
shell $-1 $-1 $-1 $33 $-1 $10 #
shell $-1 $-1 $-1 $34 $-1 $12 #
shell $-1 $-1 $-1 $35 $-1 $14 #
shell $-1 $-1 $-1 $36 $-1 $16 #
shell $-1 $-1 $-1 $37 $-1 $18 #
shell $-1 $-1 $-1 $38 $-1 $20 #
shell $-1 $-1 $-1 $39 $-1 $22 #
face $-1 $40 $41 $24 $-1 $42 forward single #
face $-1 $43 $44 $25 $-1 $45 reversed single #
face $-1 $46 $47 $26 $-1 $48 reversed single #
face $-1 $49 $50 $27 $-1 $51 reversed single #
face $-1 $52 $53 $28 $-1 $54 forward single #
face $-1 $55 $56 $29 $-1 $57 reversed single #
face $-1 $58 $59 $30 $-1 $60 forward single #
face $-1 $61 $62 $31 $-1 $63 forward single #
face $-1 $64 $65 $24 $-1 $66 reversed single #
loop $-1 $-1 $67 $32 #
plane-surface $-1 0 0 5.7752886225765385 0 0 1 1 0 0 forward_v I I I I #
face $-1 $68 $69 $25 $-1 $70 reversed single #
loop $-1 $-1 $71 $33 #
plane-surface $-1 -37.942581063726116 0 2.4448433955346438 0 0 1 1 0 0 forward_v I I I I #
face $-1 $72 $73 $26 $-1 $74 reversed single #
loop $-1 $-1 $75 $34 #
plane-surface $-1 37.942581063726124 0 2.4448433955346438 0 0 1 1 0 0 forward_v I I I I #
face $-1 $76 $77 $27 $-1 $78 reversed single #
loop $-1 $-1 $79 $35 #
plane-surface $-1 23.235686833604728 -63.864292481364373 67.5518423349626 -1 0 0 0 -0.55919291073839883 0.82903756765294845 forward_v I I I I #
face $-1 $80 $81 $28 $-1 $82 forward single #
loop $-1 $83 $84 $36 #
cone-surface $-1 16.269921650590888 -15.055140540069775 2.7276753452657339 0 0.55919291073839883 -0.82903756765294845 1 0 0 1 I I 0 1 1 forward I I I I #
face $-1 $85 $86 $29 $-1 $87 reversed single #
loop $-1 $-1 $88 $37 #
plane-surface $-1 27.838598375686395 60.180543764913409 79.588829459407293 1 0 0 0 -0.79863551827123203 -0.60181501223851219 forward_v I I I I #
face $-1 $89 $90 $30 $-1 $91 forward single #
loop $-1 $92 $93 $38 #
cone-surface $-1 30.108667604345115 15.719493678402298 2.2486165665707567 0 -0.79863551827123203 -0.60181501223851219 1 0 0 1 I I 0 1 1 forward I I I I #
face $-1 $94 $95 $31 $-1 $96 forward single #
loop $-1 $97 $98 $39 #
cone-surface $-1 33.513771447333198 15.719493678402298 2.2486165665707567 0 -0.79863551827123203 -0.60181501223851219 1 0 0 1 I I 0 1 1 forward I I I I #
face $-1 $99 $100 $24 $-1 $101 reversed single #
loop $-1 $-1 $102 $40 #
plane-surface $-1 0 0 -5.7752886225765385 0 0 1 1 0 0 forward_v I I I I #
coedge $-1 $103 $104 $105 $106 forward $41 $-1 #
face $-1 $107 $108 $25 $-1 $109 reversed single #
loop $-1 $-1 $110 $43 #
plane-surface $-1 -35.783840675991925 0 4.1100660090555907 -1 0 0 0 0 1 forward_v I I I I #
coedge $-1 $111 $112 $113 $114 forward $44 $-1 #
face $-1 $115 $116 $26 $-1 $117 forward single #
loop $-1 $-1 $118 $46 #
plane-surface $-1 35.783840675991932 0 4.1100660090555907 1 0 0 0 0 -1 forward_v I I I I #
coedge $-1 $119 $120 $121 $122 reversed $47 $-1 #
face $-1 $123 $124 $27 $-1 $125 reversed single #
loop $-1 $-1 $126 $49 #
plane-surface $-1 16.269921650590888 -19.015543147567811 1.0608383433872888 0 -0.55919291073839883 0.82903756765294845 1 0 0 forward_v I I I I #
coedge $-1 $127 $128 $129 $130 reversed $50 $-1 #
face $-1 $-1 $131 $28 $-1 $132 forward single #
loop $-1 $133 $134 $52 #
cone-surface $-1 16.269921650590888 -14.309871397078313 1.6227684237230813 0 0.55919291073839883 -0.82903756765294845 0.5 0 0 1 I I -0.70710678118654746 0.70710678118654746 0.5 forward I I I I #
loop $-1 $-1 $135 $36 #
coedge $-1 $84 $84 $136 $137 reversed $53 $-1 #
face $-1 $138 $139 $29 $-1 $140 forward single #
loop $-1 $-1 $141 $55 #
plane-surface $-1 31.811219525839164 -3.8721355165831426 31.321674939225097 0 0.79863551827123203 0.60181501223851219 1 0 0 forward_v I I I I #
coedge $-1 $142 $143 $144 $145 reversed $56 $-1 #
face $-1 $-1 $146 $30 $-1 $147 forward single #
loop $-1 $148 $149 $58 #
cone-surface $-1 30.108667604345115 13.842674618640988 0.83433200298824151 0 -0.79863551827123203 -0.60181501223851219 0.5 0 0 1 I I -0.70710678118654746 0.70710678118654746 0.5 forward I I I I #
loop $-1 $-1 $150 $38 #
coedge $-1 $93 $93 $151 $152 reversed $59 $-1 #
face $-1 $-1 $153 $31 $-1 $154 forward single #
loop $-1 $155 $156 $61 #
cone-surface $-1 33.513771447333198 13.842674618640988 0.83433200298824151 0 -0.79863551827123203 -0.60181501223851219 0.5 0 0 1 I I -0.70710678118654746 0.70710678118654746 0.5 forward I I I I #
loop $-1 $-1 $157 $39 #
coedge $-1 $98 $98 $158 $159 reversed $62 $-1 #
face $-1 $160 $161 $24 $-1 $162 reversed single #
loop $-1 $-1 $163 $64 #
plane-surface $-1 0 -19.015543147567822 0 0 1 0 0 0 1 forward_v I I I I #
coedge $-1 $164 $165 $166 $167 forward $65 $-1 #
coedge $-1 $168 $67 $169 $170 forward $41 $-1 #
coedge $-1 $67 $168 $171 $172 forward $41 $-1 #
coedge $-1 $173 $174 $67 $106 reversed $175 $-1 #
edge $-1 $176 -19.015543147567822 $177 19.015543147567822 $105 $178 forward 7 unknown #
face $-1 $179 $180 $25 $-1 $181 reversed single #
loop $-1 $-1 $182 $68 #
plane-surface $-1 0 19.015543147567822 0 0 -1 0 0 0 -1 forward_v I I I I #
coedge $-1 $113 $183 $184 $185 reversed $69 $-1 #
coedge $-1 $186 $71 $187 $188 reversed $44 $-1 #
coedge $-1 $71 $186 $189 $190 reversed $44 $-1 #
coedge $-1 $191 $110 $71 $114 reversed $69 $-1 #
edge $-1 $192 -19.015543147567822 $193 19.015543147567822 $113 $194 forward 7 unknown #
face $-1 $195 $196 $26 $-1 $197 reversed single #
loop $-1 $-1 $198 $72 #
plane-surface $-1 0 0 5.7752886225765385 0 0 1 1 0 0 forward_v I I I I #
coedge $-1 $199 $200 $201 $202 reversed $73 $-1 #
coedge $-1 $203 $75 $204 $205 reversed $47 $-1 #
coedge $-1 $75 $203 $206 $207 reversed $47 $-1 #
coedge $-1 $208 $209 $75 $122 forward $210 $-1 #
edge $-1 $211 -19.015543147567822 $212 19.015543147567822 $121 $213 forward 7 unknown #
face $-1 $214 $215 $27 $-1 $216 forward single #
loop $-1 $-1 $217 $76 #
plane-surface $-1 9.3041564675770481 -63.864292481364373 67.5518423349626 1 0 0 0 0.55919291073839883 -0.82903756765294845 forward_v I I I I #
coedge $-1 $218 $219 $220 $221 reversed $77 $-1 #
coedge $-1 $128 $79 $222 $223 reversed $50 $-1 #
coedge $-1 $79 $127 $218 $224 reversed $50 $-1 #
coedge $-1 $220 $225 $79 $130 forward $215 $-1 #
edge $-1 $226 12.916603093114364 $227 19.90606293286594 $129 $228 forward 7 unknown #
loop $-1 $-1 $136 $80 #
plane-surface $-1 16.269921650590888 -19.015543147567811 1.0608383433872888 0 -0.55919291073839883 0.82903756765294845 1 0 0 forward_v I I I I #
loop $-1 $-1 $229 $52 #
coedge $-1 $134 $134 $135 $230 reversed $81 $-1 #
coedge $-1 $135 $135 $134 $230 forward $83 $-1 #
coedge $-1 $136 $136 $84 $137 forward $131 $-1 #
edge $-1 $231 -2.3100886400220222e-016 $231 6.2831853071796004 $136 $232 forward 7 unknown #
face $-1 $233 $234 $29 $-1 $235 forward single #
loop $-1 $-1 $144 $85 #
plane-surface $-1 0 0 5.7752886225765385 0 0 1 1 0 0 forward_v I I I I #
coedge $-1 $236 $237 $238 $239 reversed $86 $-1 #
coedge $-1 $143 $88 $240 $241 reversed $56 $-1 #
coedge $-1 $88 $142 $236 $242 reversed $56 $-1 #
coedge $-1 $238 $243 $88 $145 forward $139 $-1 #
edge $-1 $244 11.074728734888883 $245 14.711825071968541 $144 $246 forward 7 unknown #
loop $-1 $-1 $151 $89 #
plane-surface $-1 31.811219525839164 -3.8721355165831426 31.321674939225097 0 0.79863551827123203 0.60181501223851219 1 0 0 forward_v I I I I #
loop $-1 $-1 $247 $58 #
coedge $-1 $149 $149 $150 $248 reversed $90 $-1 #
coedge $-1 $150 $150 $149 $248 forward $92 $-1 #
coedge $-1 $151 $151 $93 $152 forward $146 $-1 #
edge $-1 $249 -1.0083928483652995e-017 $249 6.2831853071796004 $151 $250 forward 7 unknown #
loop $-1 $-1 $158 $94 #
plane-surface $-1 31.811219525839164 -3.8721355165831426 31.321674939225097 0 0.79863551827123203 0.60181501223851219 1 0 0 forward_v I I I I #
loop $-1 $-1 $251 $61 #
coedge $-1 $156 $156 $157 $252 reversed $95 $-1 #
coedge $-1 $157 $157 $156 $252 forward $97 $-1 #
coedge $-1 $158 $158 $98 $159 forward $153 $-1 #
edge $-1 $253 -1.0083928483652995e-017 $253 6.2831853071796004 $158 $254 forward 7 unknown #
face $-1 $255 $256 $24 $-1 $257 reversed single #
loop $-1 $-1 $258 $99 #
plane-surface $-1 -40.101321451460308 0 0 1 0 0 0 0 -1 forward_v I I I I #
coedge $-1 $259 $171 $260 $261 forward $100 $-1 #
coedge $-1 $262 $102 $259 $263 forward $65 $-1 #
coedge $-1 $102 $262 $264 $265 forward $65 $-1 #
coedge $-1 $174 $173 $102 $167 reversed $175 $-1 #
edge $-1 $266 -19.015543147567822 $267 19.015543147567822 $166 $268 forward 7 unknown #
coedge $-1 $104 $103 $269 $270 forward $41 $-1 #
coedge $-1 $271 $272 $103 $170 reversed $256 $-1 #
edge $-1 $177 -40.101321451460308 $273 40.101321451460308 $169 $274 forward 7 unknown #
coedge $-1 $163 $275 $104 $172 reversed $100 $-1 #
edge $-1 $276 -40.101321451460308 $176 40.101321451460308 $171 $277 forward 7 unknown #
coedge $-1 $166 $105 $275 $278 forward $175 $-1 #
coedge $-1 $105 $166 $271 $279 reversed $175 $-1 #
loop $-1 $-1 $173 $255 #
vertex $-1 $106 $280 #
vertex $-1 $106 $281 #
straight-curve $-1 40.101321451460308 0 5.7752886225765385 0 1 0 I I #
face $-1 $282 $283 $25 $-1 $284 forward single #
loop $-1 $-1 $285 $107 #
plane-surface $-1 -40.101321451460308 0 0 1 0 0 0 0 -1 forward_v I I I I #
coedge $-1 $189 $286 $191 $287 forward $108 $-1 #
coedge $-1 $110 $191 $288 $289 reversed $69 $-1 #
coedge $-1 $290 $187 $110 $185 forward $291 $-1 #
edge $-1 $193 0.38981039100684844 $292 3.7202556180487423 $184 $293 forward 7 unknown #
coedge $-1 $112 $111 $285 $294 reversed $44 $-1 #
coedge $-1 $184 $295 $111 $188 forward $291 $-1 #
edge $-1 $296 -21.13003091959725 $193 -16.812550144128867 $187 $297 forward 7 unknown #
coedge $-1 $298 $182 $112 $190 forward $108 $-1 #
edge $-1 $192 16.812550144128867 $299 21.13003091959725 $189 $300 forward 7 unknown #
coedge $-1 $183 $113 $182 $287 reversed $69 $-1 #
vertex $-1 $190 $301 #
vertex $-1 $188 $302 #
straight-curve $-1 -35.783840675991925 0 2.4448433955346438 0 -1 0 I I #
face $-1 $303 $304 $26 $-1 $305 reversed single #
loop $-1 $-1 $306 $115 #
plane-surface $-1 0 -19.015543147567822 0 0 1 0 0 0 1 forward_v I I I I #
coedge $-1 $307 $308 $200 $309 forward $116 $-1 #
coedge $-1 $310 $118 $203 $311 reversed $73 $-1 #
coedge $-1 $118 $310 $198 $309 reversed $73 $-1 #
coedge $-1 $312 $206 $118 $202 forward $304 $-1 #
edge $-1 $313 0.38981039100684844 $314 3.7202556180487423 $201 $315 forward 7 unknown #
coedge $-1 $120 $119 $199 $311 forward $47 $-1 #
coedge $-1 $316 $306 $119 $205 forward $196 $-1 #
edge $-1 $317 16.81255014412887 $211 21.130030919597253 $204 $318 forward 7 unknown #
coedge $-1 $201 $319 $120 $207 forward $304 $-1 #
edge $-1 $212 -21.130030919597253 $313 -16.81255014412887 $206 $320 forward 7 unknown #
coedge $-1 $321 $121 $319 $322 reversed $210 $-1 #
coedge $-1 $121 $321 $316 $323 forward $210 $-1 #
loop $-1 $-1 $121 $303 #
vertex $-1 $205 $324 #
vertex $-1 $122 $325 #
straight-curve $-1 40.101321451460308 0 2.4448433955346438 0 1 0 I I #
face $-1 $-1 $326 $27 $-1 $327 reversed single #
loop $-1 $-1 $129 $123 #
plane-surface $-1 0 0 5.7752886225765385 0 0 1 1 0 0 forward_v I I I I #
coedge $-1 $328 $329 $330 $331 reversed $124 $-1 #
coedge $-1 $332 $126 $128 $224 forward $77 $-1 #
coedge $-1 $126 $332 $328 $333 forward $77 $-1 #
coedge $-1 $330 $129 $126 $221 forward $215 $-1 #
edge $-1 $227 -15.100726008309284 $334 -1.1691956422816041 $220 $335 forward 7 unknown #
coedge $-1 $336 $337 $127 $223 forward $326 $-1 #
edge $-1 $338 -32.715082824094019 $226 -28.000632544904761 $222 $339 forward 7 unknown #
edge $-1 $227 -8.4308119589068973 $338 1.2809303926657532e-014 $128 $340 forward 7 unknown #
coedge $-1 $129 $330 $336 $341 forward $215 $-1 #
vertex $-1 $223 $342 #
vertex $-1 $130 $343 #
straight-curve $-1 23.235686833604728 -31.932146240682187 5.7752886225765394 0 1 0 I I #
coedge $-1 $229 $229 $-1 $344 reversed $133 $-1 #
edge $-1 $345 0 $345 6.2831853071796004 $134 $346 forward 7 unknown #
vertex $-1 $137 $347 #
ellipse-curve $-1 16.269921650590888 -15.520813227692036 3.4180634829819092 0 -0.55919291073839883 0.82903756765294845 1 0 0 1 I I #
face $-1 $-1 $348 $29 $-1 $349 reversed single #
loop $-1 $-1 $350 $138 #
plane-surface $-1 35.783840675991932 0 4.1100660090555907 1 0 0 0 0 -1 forward_v I I I I #
coedge $-1 $351 $141 $143 $242 forward $86 $-1 #
coedge $-1 $141 $351 $350 $352 forward $86 $-1 #
coedge $-1 $353 $144 $141 $239 forward $139 $-1 #
edge $-1 $245 11.932988612766813 $354 19.87823091307235 $238 $355 forward 7 unknown #
coedge $-1 $356 $357 $142 $241 forward $348 $-1 #
edge $-1 $358 -38.845716104212144 $244 -34.019126107127107 $240 $359 forward 7 unknown #
edge $-1 $245 31.987540914718636 $358 38.031086295135637 $143 $360 forward 7 unknown #
coedge $-1 $144 $353 $356 $361 forward $139 $-1 #
vertex $-1 $241 $362 #
vertex $-1 $145 $363 #
straight-curve $-1 27.838598375686395 30.090271882456705 5.7752886225765394 0 -1 0 I I #
coedge $-1 $247 $247 $-1 $364 reversed $148 $-1 #
edge $-1 $365 0 $365 6.2831853071796004 $149 $366 forward 7 unknown #
vertex $-1 $152 $367 #
ellipse-curve $-1 30.108667604345115 17.196994979027995 3.3619936240340182 0 0.79863551827123203 0.60181501223851219 1 0 0 1 I I #
coedge $-1 $251 $251 $-1 $368 reversed $155 $-1 #
edge $-1 $369 0 $369 6.2831853071796004 $156 $370 forward 7 unknown #
vertex $-1 $159 $371 #
ellipse-curve $-1 33.513771447333198 17.196994979027995 3.3619936240340182 0 0.79863551827123203 0.60181501223851219 1 0 0 1 I I #
face $-1 $-1 $175 $24 $-1 $372 reversed single #
loop $-1 $-1 $271 $160 #
plane-surface $-1 0 19.015543147567822 0 0 -1 0 0 0 -1 forward_v I I I I #
coedge $-1 $373 $269 $272 $374 forward $161 $-1 #
coedge $-1 $275 $163 $164 $263 reversed $100 $-1 #
coedge $-1 $269 $373 $163 $261 reversed $161 $-1 #
edge $-1 $276 -5.7752886225765385 $375 5.7752886225765385 $260 $376 forward 7 unknown #
coedge $-1 $165 $164 $373 $377 forward $65 $-1 #
edge $-1 $267 -40.101321451460308 $375 40.101321451460308 $259 $378 forward 7 unknown #
coedge $-1 $272 $271 $165 $265 reversed $256 $-1 #
edge $-1 $379 -40.101321451460308 $266 40.101321451460308 $264 $380 forward 7 unknown #
vertex $-1 $167 $381 #
vertex $-1 $278 $382 #
straight-curve $-1 40.101321451460308 0 -5.7752886225765385 0 -1 0 I I #
coedge $-1 $258 $260 $168 $270 reversed $161 $-1 #
edge $-1 $273 -19.015543147567822 $276 19.015543147567822 $269 $383 forward 7 unknown #
coedge $-1 $264 $169 $174 $279 forward $256 $-1 #
coedge $-1 $169 $264 $258 $374 reversed $256 $-1 #
vertex $-1 $170 $384 #
straight-curve $-1 0 19.015543147567822 5.7752886225765385 -1 0 0 I I #
coedge $-1 $171 $259 $173 $278 reversed $100 $-1 #
vertex $-1 $270 $385 #
straight-curve $-1 0 -19.015543147567822 5.7752886225765385 1 0 0 I I #
edge $-1 $176 -5.7752886225765385 $267 5.7752886225765385 $173 $386 forward 7 unknown #
edge $-1 $177 -5.7752886225765385 $266 5.7752886225765385 $174 $387 forward 7 unknown #
point $-1 40.101321451460308 -19.015543147567822 5.7752886225765385 #
point $-1 40.101321451460308 19.015543147567822 5.7752886225765385 #
face $-1 $-1 $291 $25 $-1 $388 reversed single #
loop $-1 $-1 $288 $179 #
plane-surface $-1 0 0 5.7752886225765385 0 0 1 1 0 0 forward_v I I I I #
coedge $-1 $389 $390 $186 $294 forward $180 $-1 #
coedge $-1 $182 $298 $391 $392 reversed $108 $-1 #
edge $-1 $393 -3.7202556180487423 $192 -0.38981039100684844 $182 $394 forward 7 unknown #
coedge $-1 $391 $395 $183 $289 forward $283 $-1 #
edge $-1 $292 -19.015543147567822 $393 19.015543147567822 $288 $396 forward 7 unknown #
coedge $-1 $295 $184 $395 $397 reversed $291 $-1 #
loop $-1 $-1 $184 $282 #
vertex $-1 $185 $398 #
straight-curve $-1 -35.783840675991925 -19.015543147567822 2.0550330045277954 0 0 1 I I #
edge $-1 $299 -19.015543147567822 $296 19.015543147567822 $285 $399 forward 7 unknown #
coedge $-1 $187 $290 $389 $400 forward $291 $-1 #
vertex $-1 $294 $401 #
straight-curve $-1 -18.971290531863058 -19.015543147567822 2.4448433955346438 1 0 0 I I #
coedge $-1 $286 $189 $390 $402 reversed $108 $-1 #
vertex $-1 $294 $403 #
straight-curve $-1 -18.971290531863058 19.015543147567822 2.4448433955346438 -1 0 0 I I #
point $-1 -35.783840675991925 19.015543147567822 2.4448433955346438 #
point $-1 -35.783840675991925 -19.015543147567822 2.4448433955346438 #
face $-1 $-1 $210 $26 $-1 $404 reversed single #
loop $-1 $-1 $201 $195 #
plane-surface $-1 0 19.015543147567822 0 0 -1 0 0 0 -1 forward_v I I I I #
coedge $-1 $204 $405 $310 $406 forward $196 $-1 #
coedge $-1 $407 $198 $405 $408 forward $116 $-1 #
coedge $-1 $198 $407 $312 $409 forward $116 $-1 #
edge $-1 $314 -19.015543147567822 $410 19.015543147567822 $198 $411 forward 7 unknown #
coedge $-1 $200 $199 $306 $406 reversed $73 $-1 #
edge $-1 $317 -19.015543147567822 $313 19.015543147567822 $199 $412 forward 7 unknown #
coedge $-1 $319 $201 $308 $409 reversed $304 $-1 #
vertex $-1 $207 $413 #
vertex $-1 $202 $414 #
straight-curve $-1 35.783840675991932 19.015543147567822 2.0550330045277954 0 0 1 I I #
coedge $-1 $405 $204 $209 $323 reversed $196 $-1 #
vertex $-1 $205 $415 #
straight-curve $-1 18.971290531863062 -19.015543147567822 2.4448433955346438 1 0 0 I I #
coedge $-1 $206 $312 $208 $322 forward $304 $-1 #
straight-curve $-1 18.971290531863062 19.015543147567822 2.4448433955346438 -1 0 0 I I #
coedge $-1 $209 $208 $407 $416 reversed $210 $-1 #
edge $-1 $417 -5.7752886225765385 $212 -2.4448433955346438 $208 $418 forward 7 unknown #
edge $-1 $419 -5.7752886225765385 $211 -2.4448433955346438 $209 $420 forward 7 unknown #
point $-1 40.101321451460315 -19.015543147567822 2.4448433955346438 #
point $-1 40.101321451460315 19.015543147567822 2.4448433955346438 #
loop $-1 $-1 $222 $214 #
plane-surface $-1 0 -19.015543147567822 0 0 1 0 0 0 1 forward_v I I I I #
coedge $-1 $329 $217 $219 $333 reversed $124 $-1 #
coedge $-1 $217 $328 $421 $422 reversed $124 $-1 #
coedge $-1 $225 $220 $217 $331 forward $215 $-1 #
edge $-1 $334 -19.90606293286594 $423 -12.916603093114364 $330 $424 forward 7 unknown #
coedge $-1 $219 $218 $337 $425 reversed $77 $-1 #
edge $-1 $426 -1.2809303926657532e-014 $334 8.4308119589068973 $328 $427 forward 7 unknown #
vertex $-1 $221 $428 #
straight-curve $-1 8.134960825295444 -12.026083307816247 5.7752886225765385 -1 0 0 I I #
coedge $-1 $421 $222 $225 $341 reversed $326 $-1 #
coedge $-1 $222 $421 $332 $425 forward $326 $-1 #
vertex $-1 $223 $429 #
straight-curve $-1 23.235686833604728 -19.015543147567822 33.7759211674813 0 0 1 I I #
straight-curve $-1 23.235686833604728 -19.015543147567811 1.0608383433872888 0 -0.82903756765294845 -0.55919291073839883 I I #
edge $-1 $423 9.3041564675770481 $226 23.235686833604728 $336 $430 forward 7 unknown #
point $-1 23.235686833604728 -19.015543147567822 5.7752886225765385 #
point $-1 23.235686833604728 -12.026083307816247 5.7752886225765385 #
edge $-1 $431 1 $431 0 $229 $-1 forward 7 unknown #
vertex $-1 $230 $432 #
ellipse-curve $-1 16.269921650590888 -14.589467852447513 2.0372872075495554 0 -0.55919291073839883 0.82903756765294845 1 0 0 1 I I #
point $-1 17.269921650590888 -15.520813227692038 3.4180634829819114 #
loop $-1 $-1 $240 $233 #
plane-surface $-1 0 19.015543147567822 0 0 -1 0 0 0 -1 forward_v I I I I #
coedge $-1 $433 $434 $237 $352 reversed $234 $-1 #
coedge $-1 $237 $236 $357 $435 reversed $86 $-1 #
edge $-1 $436 -38.031086295135637 $354 -31.987540914718636 $350 $437 forward 7 unknown #
coedge $-1 $243 $238 $434 $438 forward $139 $-1 #
vertex $-1 $438 $439 #
straight-curve $-1 15.905609762919582 15.378446810488164 5.7752886225765394 1 0 0 I I #
coedge $-1 $440 $240 $243 $361 reversed $348 $-1 #
coedge $-1 $240 $440 $351 $435 forward $348 $-1 #
vertex $-1 $241 $441 #
straight-curve $-1 27.838598375686395 19.015543147567822 39.794414729703647 0 0 1 I I #
straight-curve $-1 27.838598375686395 -3.8721355165831426 31.321674939225097 0 0.60181501223851219 -0.79863551827123203 I I #
edge $-1 $442 -35.783840675991932 $244 -27.838598375686395 $356 $443 forward 7 unknown #
point $-1 27.838598375686395 19.015543147567822 5.7752886225765385 #
point $-1 27.838598375686395 15.378446810488164 5.7752886225765394 #
edge $-1 $444 1 $444 0 $247 $-1 forward 7 unknown #
vertex $-1 $248 $445 #
ellipse-curve $-1 30.108667604345115 14.241992377776604 1.1352395091074976 0 0.79863551827123203 0.60181501223851219 1 0 0 1 I I #
point $-1 31.108667604345115 17.196994979027991 3.3619936240340156 #
edge $-1 $446 1 $446 0 $251 $-1 forward 7 unknown #
vertex $-1 $252 $447 #
ellipse-curve $-1 33.513771447333198 14.241992377776604 1.1352395091074976 0 0.79863551827123203 0.60181501223851219 1 0 0 1 I I #
point $-1 34.513771447333198 17.196994979027991 3.3619936240340156 #
plane-surface $-1 40.101321451460308 0 0 -1 0 0 0 0 1 forward_v I I I I #
coedge $-1 $260 $258 $262 $377 reversed $161 $-1 #
edge $-1 $273 -5.7752886225765385 $379 5.7752886225765385 $272 $448 forward 7 unknown #
vertex $-1 $377 $449 #
straight-curve $-1 -40.101321451460308 -19.015543147567822 0 0 0 -1 I I #
edge $-1 $375 -19.015543147567822 $379 19.015543147567822 $373 $450 forward 7 unknown #
straight-curve $-1 0 -19.015543147567822 -5.7752886225765385 -1 0 0 I I #
vertex $-1 $265 $451 #
straight-curve $-1 0 19.015543147567822 -5.7752886225765385 1 0 0 I I #
point $-1 40.101321451460308 19.015543147567822 -5.7752886225765385 #
point $-1 40.101321451460308 -19.015543147567822 -5.7752886225765385 #
straight-curve $-1 -40.101321451460308 0 5.7752886225765385 0 -1 0 I I #
point $-1 -40.101321451460308 19.015543147567822 5.7752886225765385 #
point $-1 -40.101321451460308 -19.015543147567822 5.7752886225765385 #
straight-curve $-1 40.101321451460308 -19.015543147567822 0 0 0 -1 I I #
straight-curve $-1 40.101321451460308 19.015543147567822 0 0 0 -1 I I #
plane-surface $-1 0 -19.015543147567822 0 0 1 0 0 0 1 forward_v I I I I #
coedge $-1 $452 $285 $295 $400 reversed $180 $-1 #
coedge $-1 $285 $452 $298 $402 forward $180 $-1 #
coedge $-1 $453 $288 $286 $392 forward $283 $-1 #
edge $-1 $393 35.783840675991925 $454 40.101321451460308 $286 $455 forward 7 unknown #
vertex $-1 $392 $456 #
straight-curve $-1 -35.783840675991925 19.015543147567822 2.0550330045277954 0 0 -1 I I #
coedge $-1 $288 $453 $290 $397 forward $283 $-1 #
straight-curve $-1 -35.783840675991925 0 5.7752886225765385 0 1 0 I I #
edge $-1 $457 -40.101321451460308 $292 -35.783840675991925 $290 $458 forward 7 unknown #
point $-1 -35.783840675991925 -19.015543147567822 5.7752886225765376 #
straight-curve $-1 -40.101321451460308 0 2.4448433955346438 0 -1 0 I I #
edge $-1 $457 -5.7752886225765385 $296 -2.4448433955346438 $389 $459 forward 7 unknown #
point $-1 -40.101321451460308 -19.015543147567822 2.4448433955346438 #
edge $-1 $454 -5.7752886225765385 $299 -2.4448433955346438 $298 $460 forward 7 unknown #
point $-1 -40.101321451460308 19.015543147567822 2.4448433955346438 #
plane-surface $-1 40.101321451460308 0 0 -1 0 0 0 0 1 forward_v I I I I #
coedge $-1 $306 $316 $307 $408 reversed $196 $-1 #
edge $-1 $410 -3.7202556180487423 $317 -0.38981039100684844 $306 $461 forward 7 unknown #
coedge $-1 $308 $307 $321 $416 forward $116 $-1 #
edge $-1 $410 35.783840675991932 $419 40.101321451460308 $405 $462 forward 7 unknown #
edge $-1 $417 -40.101321451460308 $314 -35.783840675991932 $312 $463 forward 7 unknown #
vertex $-1 $408 $464 #
straight-curve $-1 35.783840675991932 0 5.7752886225765385 0 -1 0 I I #
straight-curve $-1 35.783840675991932 0 2.4448433955346438 0 1 0 I I #
point $-1 35.783840675991932 19.015543147567822 2.4448433955346438 #
point $-1 35.783840675991932 19.015543147567822 5.7752886225765376 #
point $-1 35.783840675991932 -19.015543147567822 2.4448433955346438 #
edge $-1 $419 -19.015543147567822 $417 19.015543147567822 $321 $465 forward 7 unknown #
vertex $-1 $416 $466 #
straight-curve $-1 40.101321451460308 19.015543147567822 0 0 0 -1 I I #
vertex $-1 $416 $467 #
straight-curve $-1 40.101321451460308 -19.015543147567822 0 0 0 -1 I I #
coedge $-1 $337 $336 $329 $422 forward $326 $-1 #
edge $-1 $423 28.000632544904761 $426 32.715082824094019 $421 $468 forward 7 unknown #
vertex $-1 $341 $469 #
straight-curve $-1 9.3041564675770481 -31.932146240682187 5.7752886225765394 0 -1 0 I I #
edge $-1 $426 1.1691956422816041 $338 15.100726008309284 $337 $470 forward 7 unknown #
vertex $-1 $425 $471 #
straight-curve $-1 9.3041564675770481 -19.015543147567811 1.0608383433872888 0 0.82903756765294845 0.55919291073839883 I I #
point $-1 9.3041564675770481 -12.026083307816247 5.7752886225765385 #
point $-1 23.235686833604728 -19.015543147567822 1.0608383433872817 #
straight-curve $-1 0 -19.015543147567822 5.7752886225765385 1 0 0 I I #
vertex $-1 $344 $472 #
point $-1 17.269921650590888 -14.589467852447513 2.0372872075495554 #
coedge $-1 $434 $350 $440 $473 reversed $234 $-1 #
coedge $-1 $350 $433 $353 $438 reversed $234 $-1 #
edge $-1 $436 -19.87823091307235 $358 -11.932988612766813 $357 $474 forward 7 unknown #
vertex $-1 $473 $475 #
straight-curve $-1 35.783840675991932 -3.8721355165831426 31.321674939225097 0 -0.60181501223851219 0.79863551827123203 I I #
edge $-1 $354 15.378446810488164 $442 19.015543147567822 $353 $476 forward 7 unknown #
point $-1 35.783840675991932 15.378446810488164 5.7752886225765394 #
coedge $-1 $357 $356 $433 $473 forward $348 $-1 #
point $-1 27.838598375686395 19.015543147567826 0.94869862549149886 #
vertex $-1 $361 $477 #
straight-curve $-1 0 19.015543147567822 5.7752886225765385 -1 0 0 I I #
vertex $-1 $364 $478 #
point $-1 31.108667604345115 14.241992377776604 1.1352395091074976 #
vertex $-1 $368 $479 #
point $-1 34.513771447333198 14.241992377776604 1.1352395091074976 #
straight-curve $-1 -40.101321451460308 19.015543147567822 0 0 0 -1 I I #
point $-1 -40.101321451460308 -19.015543147567822 -5.7752886225765385 #
straight-curve $-1 -40.101321451460308 0 -5.7752886225765385 0 1 0 I I #
point $-1 -40.101321451460308 19.015543147567822 -5.7752886225765385 #
coedge $-1 $390 $389 $453 $480 reversed $180 $-1 #
coedge $-1 $395 $391 $452 $480 forward $283 $-1 #
vertex $-1 $392 $481 #
straight-curve $-1 0 19.015543147567822 5.7752886225765385 -1 0 0 I I #
point $-1 -35.783840675991925 19.015543147567822 5.7752886225765376 #
vertex $-1 $480 $482 #
straight-curve $-1 0 -19.015543147567822 5.7752886225765385 1 0 0 I I #
straight-curve $-1 -40.101321451460308 -19.015543147567822 0 0 0 -1 I I #
straight-curve $-1 -40.101321451460308 19.015543147567822 0 0 0 -1 I I #
straight-curve $-1 35.783840675991932 -19.015543147567822 2.0550330045277954 0 0 -1 I I #
straight-curve $-1 0 -19.015543147567822 5.7752886225765385 1 0 0 I I #
straight-curve $-1 0 19.015543147567822 5.7752886225765385 -1 0 0 I I #
point $-1 35.783840675991932 -19.015543147567822 5.7752886225765376 #
straight-curve $-1 40.101321451460308 0 5.7752886225765385 0 1 0 I I #
point $-1 40.101321451460308 19.015543147567822 5.7752886225765385 #
point $-1 40.101321451460308 -19.015543147567822 5.7752886225765385 #
straight-curve $-1 9.3041564675770481 -19.015543147567822 33.7759211674813 0 0 -1 I I #
point $-1 9.3041564675770481 -19.015543147567822 5.7752886225765385 #
straight-curve $-1 8.134960825295444 -19.015543147567822 1.0608383433872821 1 0 0 I I #
point $-1 9.3041564675770481 -19.015543147567822 1.0608383433872817 #
point $-1 16.269921650590888 -14.030274941709113 1.2082496398966072 #
edge $-1 $442 34.019126107127107 $436 38.845716104212144 $440 $483 forward 7 unknown #
straight-curve $-1 15.905609762919582 19.015543147567822 0.94869862549150064 -1 0 0 I I #
point $-1 35.783840675991932 19.015543147567826 0.94869862549149886 #
straight-curve $-1 35.783840675991932 0 5.7752886225765385 0 1 0 I I #
point $-1 35.783840675991932 19.015543147567822 5.7752886225765376 #
point $-1 30.108667604345115 13.443356859505371 0.53342449686898541 #
point $-1 33.513771447333198 13.443356859505371 0.53342449686898541 #
edge $-1 $454 -19.015543147567822 $457 19.015543147567822 $452 $484 forward 7 unknown #
point $-1 -40.101321451460308 19.015543147567822 5.7752886225765385 #
point $-1 -40.101321451460308 -19.015543147567822 5.7752886225765385 #
straight-curve $-1 35.783840675991932 19.015543147567822 39.794414729703647 0 0 -1 I I #
straight-curve $-1 -40.101321451460308 0 5.7752886225765385 0 -1 0 I I #
End-of-ACIS-data 