500 0 5 0           
7 Unknown 11 ACIS 5.0 NT 24 Thu Mar 25 18:44:16 1999 
-1 9.9999999999999995e-007 1e-010 
body $-1 $5 $-1 $6 #
body $-1 $7 $-1 $8 #
body $-1 $9 $-1 $10 #
body $-1 $11 $-1 $12 #
body $-1 $13 $-1 $14 #
lump $-1 $-1 $15 $0 #
transform $-1 1 0 0 0 1 0 0 0 1 62.482375560777612 28.402431943805365 12.674781368397898 1 rotate no_reflect no_shear #
lump $-1 $-1 $16 $1 #
transform $-1 1 0 0 0 1 0 0 0 1 62.482375560777612 28.402431943805365 12.674781368397898 1 rotate no_reflect no_shear #
lump $-1 $-1 $17 $2 #
transform $-1 1 0 0 0 1 0 0 0 1 62.482375560777612 28.402431943805365 12.674781368397898 1 rotate no_reflect no_shear #
lump $-1 $-1 $18 $3 #
transform $-1 1 0 0 0 1 0 0 0 1 62.482375560777612 28.402431943805365 12.674781368397898 1 rotate no_reflect no_shear #
lump $-1 $-1 $19 $4 #
transform $-1 1 0 0 0 1 0 0 0 1 62.482375560777612 28.402431943805365 12.674781368397898 1 rotate no_reflect no_shear #
shell $-1 $-1 $-1 $20 $-1 $5 #
shell $-1 $-1 $-1 $21 $-1 $7 #
shell $-1 $-1 $-1 $22 $-1 $9 #
shell $-1 $-1 $-1 $23 $-1 $11 #
shell $-1 $-1 $-1 $24 $-1 $13 #
face $-1 $25 $26 $15 $-1 $27 forward single #
face $-1 $28 $29 $16 $-1 $30 reversed single #
face $-1 $31 $32 $17 $-1 $33 reversed single #
face $-1 $34 $35 $18 $-1 $36 forward single #
face $-1 $37 $38 $19 $-1 $39 reversed single #
face $-1 $40 $41 $15 $-1 $42 reversed single #
loop $-1 $-1 $43 $20 #
plane-surface $-1 0 0 12.674781368397898 0 0 1 1 0 0 forward_v I I I I #
face $-1 $44 $45 $16 $-1 $46 reversed single #
loop $-1 $-1 $47 $21 #
plane-surface $-1 -60.293193604710595 -37.24085518800829 0 0 1 0 0 0 1 forward_v I I I I #
face $-1 $48 $49 $17 $-1 $50 reversed single #
loop $-1 $-1 $51 $22 #
plane-surface $-1 -60.293193604710595 37.240855188008283 0 0 -1 0 0 0 -1 forward_v I I I I #
face $-1 $52 $53 $18 $-1 $54 forward single #
loop $-1 $-1 $55 $23 #
plane-surface $-1 -126.84398126619918 11.993989998007496 108.53324070022205 0 1 0 -0.51503808176128008 0 0.85716729658548041 forward_v I I I I #
face $-1 $56 $57 $19 $-1 $58 reversed single #
loop $-1 $59 $60 $24 #
cone-surface $-1 -52.70341928212185 15.77899934880497 6.361542646719184 0.51503808176128008 0 -0.85716729658548041 0.85716729658548041 0 0.51503808176128008 1 I I 0 1 1 forward I I I I #
face $-1 $61 $62 $15 $-1 $63 reversed single #
loop $-1 $-1 $64 $25 #
plane-surface $-1 0 0 -12.674781368397898 0 0 1 1 0 0 forward_v I I I I #
coedge $-1 $65 $66 $67 $68 forward $26 $-1 #
face $-1 $69 $70 $16 $-1 $71 reversed single #
loop $-1 $-1 $72 $28 #
plane-surface $-1 -58.104011648643578 -32.821643565906825 0 -1 0 0 0 0 1 forward_v I I I I #
coedge $-1 $73 $74 $75 $76 forward $29 $-1 #
face $-1 $77 $78 $17 $-1 $79 reversed single #
loop $-1 $-1 $80 $31 #
plane-surface $-1 -58.104011648643578 32.821643565906825 0 -1 0 0 0 0 1 forward_v I I I I #
coedge $-1 $81 $82 $83 $84 forward $32 $-1 #
face $-1 $85 $86 $18 $-1 $87 forward single #
loop $-1 $-1 $88 $34 #
plane-surface $-1 -62.482375560777612 15.77899934880497 1.4175428128811944 -0.51503808176128008 0 0.85716729658548041 0.85716729658548041 0 0.51503808176128008 forward_v I I I I #
coedge $-1 $89 $90 $91 $92 reversed $35 $-1 #
face $-1 $93 $94 $19 $-1 $95 forward single #
loop $-1 $96 $97 $37 #
cone-surface $-1 -52.034539370921237 15.77899934880497 5.248339554506078 0.51503808176128008 0 -0.85716729658548041 0.4285836482927402 0 0.25751904088064004 1 I I -0.70710678118654746 0.70710678118654746 0.5 forward I I I I #
loop $-1 $-1 $98 $24 #
coedge $-1 $60 $60 $99 $100 reversed $38 $-1 #
face $-1 $101 $102 $15 $-1 $103 reversed single #
loop $-1 $-1 $104 $40 #
plane-surface $-1 0 -28.402431943805365 0 0 1 0 0 0 1 forward_v I I I I #
coedge $-1 $105 $106 $107 $108 forward $41 $-1 #
coedge $-1 $109 $43 $110 $111 forward $26 $-1 #
coedge $-1 $43 $109 $112 $113 forward $26 $-1 #
coedge $-1 $114 $115 $43 $68 reversed $116 $-1 #
edge $-1 $117 -28.402431943805365 $118 28.402431943805365 $67 $119 forward 7 unknown #
face $-1 $120 $121 $16 $-1 $122 forward single #
loop $-1 $-1 $123 $44 #
plane-surface $-1 0 -28.402431943805365 0 0 1 0 0 0 1 forward_v I I I I #
coedge $-1 $124 $125 $126 $127 forward $45 $-1 #
coedge $-1 $126 $47 $128 $129 reversed $29 $-1 #
coedge $-1 $47 $126 $130 $131 reversed $29 $-1 #
coedge $-1 $132 $133 $47 $76 reversed $134 $-1 #
edge $-1 $135 -12.674781368397898 $136 12.674781368397898 $75 $137 forward 7 unknown #
face $-1 $138 $139 $17 $-1 $140 reversed single #
loop $-1 $-1 $141 $48 #
plane-surface $-1 -60.293193604710595 -37.24085518800829 0 0 1 0 0 0 1 forward_v I I I I #
coedge $-1 $142 $143 $144 $145 reversed $49 $-1 #
coedge $-1 $146 $51 $147 $148 reversed $32 $-1 #
coedge $-1 $51 $146 $149 $150 reversed $32 $-1 #
coedge $-1 $143 $142 $51 $84 reversed $49 $-1 #
edge $-1 $151 -12.674781368397898 $152 12.674781368397898 $83 $153 forward 7 unknown #
face $-1 $154 $155 $18 $-1 $156 forward single #
loop $-1 $-1 $157 $52 #
plane-surface $-1 -126.84398126619918 19.564008699602443 108.53324070022205 0 -1 0 0.51503808176128008 0 -0.85716729658548041 forward_v I I I I #
coedge $-1 $158 $159 $160 $161 reversed $53 $-1 #
coedge $-1 $90 $55 $159 $162 forward $35 $-1 #
coedge $-1 $55 $89 $163 $164 reversed $35 $-1 #
coedge $-1 $165 $160 $55 $92 forward $155 $-1 #
edge $-1 $166 -19.674805888993582 $167 -0.93961507232197761 $91 $168 forward 7 unknown #
face $-1 $169 $170 $19 $-1 $171 forward single #
loop $-1 $-1 $172 $56 #
plane-surface $-1 -126.84398126619918 11.993989998007496 108.53324070022205 0 1 0 -0.51503808176128008 0 0.85716729658548041 forward_v I I I I #
loop $-1 $-1 $173 $37 #
coedge $-1 $97 $97 $98 $174 forward $57 $-1 #
coedge $-1 $98 $98 $97 $174 reversed $59 $-1 #
coedge $-1 $99 $99 $60 $100 forward $170 $-1 #
edge $-1 $175 0 $175 6.2831853071796004 $99 $176 forward 7 unknown #
face $-1 $177 $178 $15 $-1 $179 reversed single #
loop $-1 $-1 $180 $61 #
plane-surface $-1 -62.482375560777612 0 0 1 0 0 0 0 -1 forward_v I I I I #
coedge $-1 $181 $112 $182 $183 forward $62 $-1 #
coedge $-1 $184 $64 $181 $185 forward $41 $-1 #
coedge $-1 $64 $184 $186 $187 forward $41 $-1 #
coedge $-1 $115 $114 $64 $108 reversed $116 $-1 #
edge $-1 $188 -28.402431943805365 $189 28.402431943805365 $107 $190 forward 7 unknown #
coedge $-1 $66 $65 $191 $192 forward $26 $-1 #
coedge $-1 $193 $194 $65 $111 reversed $178 $-1 #
edge $-1 $118 -62.482375560777612 $195 62.482375560777612 $110 $196 forward 7 unknown #
coedge $-1 $104 $197 $66 $113 reversed $62 $-1 #
edge $-1 $198 -62.482375560777612 $117 62.482375560777612 $112 $199 forward 7 unknown #
coedge $-1 $107 $67 $197 $200 forward $116 $-1 #
coedge $-1 $67 $107 $193 $201 reversed $116 $-1 #
loop $-1 $-1 $114 $177 #
vertex $-1 $68 $202 #
vertex $-1 $68 $203 #
straight-curve $-1 62.482375560777612 0 12.674781368397898 0 1 0 I I #
face $-1 $204 $205 $16 $-1 $206 reversed single #
loop $-1 $-1 $207 $69 #
plane-surface $-1 0 0 12.674781368397898 0 0 1 1 0 0 forward_v I I I I #
coedge $-1 $208 $209 $210 $211 forward $70 $-1 #
coedge $-1 $210 $72 $212 $213 reversed $45 $-1 #
coedge $-1 $72 $210 $214 $215 reversed $45 $-1 #
coedge $-1 $74 $73 $72 $127 reversed $29 $-1 #
edge $-1 $216 -12.674781368397898 $217 12.674781368397898 $72 $218 forward 7 unknown #
coedge $-1 $219 $212 $73 $129 forward $205 $-1 #
edge $-1 $217 -2.1891819560670172 $136 2.1891819560670172 $73 $220 forward 7 unknown #
coedge $-1 $214 $221 $74 $131 forward $121 $-1 #
edge $-1 $135 -2.1891819560670172 $216 2.1891819560670172 $74 $222 forward 7 unknown #
coedge $-1 $223 $75 $221 $224 reversed $134 $-1 #
coedge $-1 $75 $223 $219 $225 reversed $134 $-1 #
loop $-1 $-1 $223 $204 #
vertex $-1 $224 $226 #
vertex $-1 $225 $227 #
straight-curve $-1 -62.482375560777612 -37.24085518800829 0 0 0 -1 I I #
face $-1 $228 $229 $17 $-1 $230 reversed single #
loop $-1 $-1 $231 $77 #
plane-surface $-1 -58.104011648643578 -32.821643565906825 0 -1 0 0 0 0 1 forward_v I I I I #
coedge $-1 $232 $233 $234 $235 forward $78 $-1 #
coedge $-1 $83 $80 $236 $237 reversed $49 $-1 #
coedge $-1 $80 $83 $238 $239 reversed $49 $-1 #
coedge $-1 $240 $241 $80 $145 forward $242 $-1 #
edge $-1 $243 -12.674781368397898 $244 12.674781368397898 $144 $245 forward 7 unknown #
coedge $-1 $82 $81 $246 $247 reversed $32 $-1 #
coedge $-1 $236 $248 $81 $148 forward $249 $-1 #
edge $-1 $250 -2.1891819560670172 $152 2.1891819560670172 $81 $251 forward 7 unknown #
coedge $-1 $252 $238 $82 $150 forward $253 $-1 #
edge $-1 $151 -2.1891819560670172 $254 2.1891819560670172 $82 $255 forward 7 unknown #
vertex $-1 $239 $256 #
vertex $-1 $237 $257 #
straight-curve $-1 -58.104011648643578 37.240855188008283 0 0 0 -1 I I #
face $-1 $258 $259 $18 $-1 $260 reversed single #
loop $-1 $-1 $261 $85 #
plane-surface $-1 0 0 12.674781368397898 0 0 1 1 0 0 forward_v I I I I #
coedge $-1 $262 $263 $261 $264 reversed $86 $-1 #
coedge $-1 $265 $88 $263 $266 reversed $53 $-1 #
coedge $-1 $88 $265 $89 $162 reversed $53 $-1 #
coedge $-1 $91 $261 $88 $161 forward $155 $-1 #
edge $-1 $267 -11.674509025199958 $166 -4.1044903236050114 $160 $268 forward 7 unknown #
edge $-1 $166 -21.857099414901967 $269 0 $89 $270 forward 7 unknown #
coedge $-1 $271 $272 $90 $164 forward $273 $-1 #
edge $-1 $167 41.591838981713124 $269 52.849077537229832 $163 $274 forward 7 unknown #
coedge $-1 $275 $91 $272 $276 forward $155 $-1 #
vertex $-1 $161 $277 #
vertex $-1 $276 $278 #
straight-curve $-1 -63.42199063309959 11.993989998007496 12.674781368397902 -1 0 0 I I #
face $-1 $279 $280 $19 $-1 $281 forward single #
loop $-1 $282 $99 $93 #
plane-surface $-1 -62.482375560777612 15.77899934880497 1.4175428128811944 -0.51503808176128008 0 0.85716729658548041 0.85716729658548041 0 0.51503808176128008 forward_v I I I I #
coedge $-1 $283 $284 $285 $286 reversed $94 $-1 #
coedge $-1 $173 $173 $-1 $287 forward $96 $-1 #
edge $-1 $288 0 $288 6.2831853071796004 $97 $289 forward 7 unknown #
vertex $-1 $100 $290 #
ellipse-curve $-1 -53.114780152441817 15.77899934880497 7.0461620906395437 0.51503808176128008 0 -0.85716729658548041 0.85716729658548041 0 0.51503808176128008 1 I I #
face $-1 $-1 $116 $15 $-1 $291 reversed single #
loop $-1 $-1 $193 $101 #
plane-surface $-1 0 28.402431943805365 0 0 -1 0 0 0 -1 forward_v I I I I #
coedge $-1 $292 $191 $194 $293 forward $102 $-1 #
coedge $-1 $197 $104 $105 $185 reversed $62 $-1 #
coedge $-1 $191 $292 $104 $183 reversed $102 $-1 #
edge $-1 $198 -12.674781368397898 $294 12.674781368397898 $182 $295 forward 7 unknown #
coedge $-1 $106 $105 $292 $296 forward $41 $-1 #
edge $-1 $189 -62.482375560777612 $294 62.482375560777612 $181 $297 forward 7 unknown #
coedge $-1 $194 $193 $106 $187 reversed $178 $-1 #
edge $-1 $298 -62.482375560777612 $188 62.482375560777612 $186 $299 forward 7 unknown #
vertex $-1 $108 $300 #
vertex $-1 $200 $301 #
straight-curve $-1 62.482375560777612 0 -12.674781368397898 0 -1 0 I I #
coedge $-1 $180 $182 $109 $192 reversed $102 $-1 #
edge $-1 $195 -28.402431943805365 $198 28.402431943805365 $191 $302 forward 7 unknown #
coedge $-1 $186 $110 $115 $201 forward $178 $-1 #
coedge $-1 $110 $186 $180 $293 reversed $178 $-1 #
vertex $-1 $111 $303 #
straight-curve $-1 0 28.402431943805365 12.674781368397898 -1 0 0 I I #
coedge $-1 $112 $181 $114 $200 reversed $62 $-1 #
vertex $-1 $192 $304 #
straight-curve $-1 0 -28.402431943805365 12.674781368397898 1 0 0 I I #
edge $-1 $117 -12.674781368397898 $189 12.674781368397898 $114 $305 forward 7 unknown #
edge $-1 $118 -12.674781368397898 $188 12.674781368397898 $115 $306 forward 7 unknown #
point $-1 62.482375560777612 -28.402431943805365 12.674781368397898 #
point $-1 62.482375560777612 28.402431943805365 12.674781368397898 #
face $-1 $307 $134 $16 $-1 $308 reversed single #
loop $-1 $-1 $309 $120 #
plane-surface $-1 0 0 -12.674781368397898 0 0 1 1 0 0 forward_v I I I I #
coedge $-1 $310 $311 $312 $313 forward $121 $-1 #
coedge $-1 $314 $123 $315 $316 reversed $70 $-1 #
coedge $-1 $123 $314 $311 $317 reversed $70 $-1 #
coedge $-1 $125 $124 $123 $211 reversed $45 $-1 #
edge $-1 $318 -12.674781368397898 $319 12.674781368397898 $123 $320 forward 7 unknown #
coedge $-1 $128 $315 $124 $213 forward $205 $-1 #
edge $-1 $319 -4.4192116221014643 $217 4.4192116221014643 $124 $321 forward 7 unknown #
coedge $-1 $311 $130 $125 $215 forward $121 $-1 #
edge $-1 $216 -4.4192116221014643 $318 4.4192116221014643 $125 $322 forward 7 unknown #
vertex $-1 $215 $323 #
vertex $-1 $127 $324 #
straight-curve $-1 -58.104011648643578 -37.24085518800829 0 0 0 -1 I I #
coedge $-1 $325 $128 $133 $225 forward $205 $-1 #
straight-curve $-1 -60.293193604710595 -37.24085518800829 -12.674781368397898 -1 0 0 I I #
coedge $-1 $130 $310 $132 $224 forward $121 $-1 #
straight-curve $-1 -60.293193604710595 -37.24085518800829 12.674781368397898 1 0 0 I I #
coedge $-1 $133 $132 $326 $327 forward $134 $-1 #
edge $-1 $328 -28.402431943805365 $135 37.24085518800829 $132 $329 forward 7 unknown #
edge $-1 $136 -37.24085518800829 $330 28.402431943805365 $133 $331 forward 7 unknown #
point $-1 -62.482375560777612 -37.24085518800829 12.674781368397898 #
point $-1 -62.482375560777612 -37.24085518800829 -12.674781368397898 #
face $-1 $332 $253 $17 $-1 $333 forward single #
loop $-1 $-1 $334 $138 #
plane-surface $-1 0 -28.402431943805365 0 0 1 0 0 0 1 forward_v I I I I #
coedge $-1 $335 $336 $337 $338 forward $139 $-1 #
coedge $-1 $337 $141 $339 $340 reversed $78 $-1 #
coedge $-1 $141 $337 $341 $342 reversed $78 $-1 #
coedge $-1 $343 $344 $141 $235 reversed $345 $-1 #
edge $-1 $346 -12.674781368397898 $347 12.674781368397898 $234 $348 forward 7 unknown #
coedge $-1 $349 $147 $142 $237 forward $249 $-1 #
edge $-1 $152 -4.4192116221014572 $243 4.4192116221014608 $142 $350 forward 7 unknown #
coedge $-1 $149 $351 $143 $239 forward $253 $-1 #
edge $-1 $244 -4.4192116221014608 $151 4.4192116221014572 $143 $352 forward 7 unknown #
coedge $-1 $353 $144 $351 $354 reversed $242 $-1 #
coedge $-1 $144 $353 $349 $355 reversed $242 $-1 #
loop $-1 $-1 $144 $356 #
vertex $-1 $355 $357 #
vertex $-1 $239 $358 #
straight-curve $-1 -58.104011648643578 28.402431943805365 0 0 0 1 I I #
coedge $-1 $344 $343 $146 $247 forward $345 $-1 #
edge $-1 $254 -12.674781368397898 $250 12.674781368397898 $146 $359 forward 7 unknown #
coedge $-1 $147 $339 $344 $360 forward $249 $-1 #
loop $-1 $-1 $361 $332 #
vertex $-1 $148 $362 #
straight-curve $-1 -60.293193604710595 37.240855188008283 -12.674781368397898 1 0 0 I I #
coedge $-1 $341 $149 $343 $363 forward $253 $-1 #
loop $-1 $-1 $364 $228 #
vertex $-1 $150 $365 #
straight-curve $-1 -60.293193604710595 37.240855188008283 12.674781368397898 -1 0 0 I I #
point $-1 -58.104011648643578 37.240855188008283 12.674781368397898 #
point $-1 -58.104011648643578 37.240855188008283 -12.674781368397898 #
face $-1 $366 $367 $18 $-1 $368 reversed single #
loop $-1 $-1 $369 $154 #
plane-surface $-1 -60.293193604710595 37.240855188008283 0 0 -1 0 0 0 -1 forward_v I I I I #
coedge $-1 $160 $370 $157 $264 forward $155 $-1 #
coedge $-1 $263 $157 $371 $372 reversed $86 $-1 #
coedge $-1 $157 $262 $158 $266 forward $86 $-1 #
edge $-1 $373 0.93961507232197761 $267 19.674805888993582 $261 $374 forward 7 unknown #
coedge $-1 $159 $158 $271 $375 reversed $53 $-1 #
edge $-1 $376 0 $267 21.857099414901967 $263 $377 forward 7 unknown #
vertex $-1 $161 $378 #
straight-curve $-1 -43.747184744106008 7.8894996744024848 12.674781368397898 0 -1 0 I I #
vertex $-1 $375 $379 #
straight-curve $-1 -62.482375560777612 11.993989998007496 1.4175428128811944 -0.85716729658548041 0 -0.51503808176128008 I I #
coedge $-1 $371 $163 $265 $375 forward $273 $-1 #
coedge $-1 $163 $380 $165 $276 reversed $273 $-1 #
loop $-1 $-1 $371 $381 #
straight-curve $-1 -62.482375560777612 11.993989998007496 54.266620350111026 0 0 -1 I I #
coedge $-1 $382 $165 $383 $384 forward $155 $-1 #
edge $-1 $167 -11.993989998007496 $385 37.24085518800829 $272 $386 forward 7 unknown #
point $-1 -43.747184744106008 11.993989998007496 12.674781368397898 #
point $-1 -62.482375560777612 11.993989998007496 12.674781368397898 #
face $-1 $387 $388 $19 $-1 $389 forward single #
loop $-1 $-1 $390 $169 #
plane-surface $-1 -126.84398126619918 19.564008699602443 108.53324070022205 0 -1 0 0.51503808176128008 0 -0.85716729658548041 forward_v I I I I #
loop $-1 $-1 $391 $93 #
coedge $-1 $284 $172 $392 $393 forward $94 $-1 #
coedge $-1 $172 $283 $394 $395 reversed $94 $-1 #
coedge $-1 $396 $397 $172 $286 forward $388 $-1 #
edge $-1 $398 -19.674805888993582 $399 -0.93961507232197761 $285 $400 forward 7 unknown #
edge $-1 $401 1 $401 0 $173 $-1 forward 7 unknown #
vertex $-1 $174 $402 #
ellipse-curve $-1 -52.292058411801875 15.77899934880497 5.6769232027988181 -0.51503808176128008 0 0.85716729658548041 0.85716729658548041 0 0.51503808176128008 1 I I #
point $-1 -52.257612855856337 15.77899934880497 7.5612001724008291 #
plane-surface $-1 62.482375560777612 0 0 -1 0 0 0 0 1 forward_v I I I I #
coedge $-1 $182 $180 $184 $296 reversed $102 $-1 #
edge $-1 $195 -12.674781368397898 $298 12.674781368397898 $194 $403 forward 7 unknown #
vertex $-1 $296 $404 #
straight-curve $-1 -62.482375560777612 -28.402431943805365 0 0 0 -1 I I #
edge $-1 $294 -28.402431943805365 $298 28.402431943805365 $292 $405 forward 7 unknown #
straight-curve $-1 0 -28.402431943805365 -12.674781368397898 -1 0 0 I I #
vertex $-1 $187 $406 #
straight-curve $-1 0 28.402431943805365 -12.674781368397898 1 0 0 I I #
point $-1 62.482375560777612 28.402431943805365 -12.674781368397898 #
point $-1 62.482375560777612 -28.402431943805365 -12.674781368397898 #
straight-curve $-1 -62.482375560777612 0 12.674781368397898 0 -1 0 I I #
point $-1 -62.482375560777612 28.402431943805365 12.674781368397898 #
point $-1 -62.482375560777612 -28.402431943805365 12.674781368397898 #
straight-curve $-1 62.482375560777612 -28.402431943805365 0 0 0 -1 I I #
straight-curve $-1 62.482375560777612 28.402431943805365 0 0 0 -1 I I #
face $-1 $407 $408 $16 $-1 $409 reversed single #
plane-surface $-1 -62.482375560777612 0 0 1 0 0 0 0 -1 forward_v I I I I #
coedge $-1 $315 $325 $410 $411 forward $205 $-1 #
coedge $-1 $221 $207 $412 $413 forward $121 $-1 #
coedge $-1 $207 $214 $209 $317 forward $121 $-1 #
coedge $-1 $414 $415 $207 $313 reversed $416 $-1 #
edge $-1 $417 -28.402431943805365 $418 28.402431943805365 $312 $419 forward 7 unknown #
coedge $-1 $209 $208 $414 $420 reversed $70 $-1 #
coedge $-1 $212 $309 $208 $316 forward $205 $-1 #
edge $-1 $421 -62.482375560777612 $319 58.104011648643578 $208 $422 forward 7 unknown #
edge $-1 $318 -58.104011648643578 $417 62.482375560777612 $209 $423 forward 7 unknown #
vertex $-1 $317 $424 #
vertex $-1 $213 $425 #
straight-curve $-1 -58.104011648643578 -28.402431943805365 0 0 0 -1 I I #
straight-curve $-1 -58.104011648643578 -32.821643565906825 -12.674781368397898 0 -1 0 I I #
straight-curve $-1 -58.104011648643578 -32.821643565906825 12.674781368397898 0 1 0 I I #
point $-1 -58.104011648643578 -37.24085518800829 12.674781368397898 #
point $-1 -58.104011648643578 -37.24085518800829 -12.674781368397898 #
coedge $-1 $309 $219 $426 $427 forward $205 $-1 #
coedge $-1 $412 $426 $223 $327 reversed $408 $-1 #
edge $-1 $328 -12.674781368397898 $330 12.674781368397898 $326 $428 forward 7 unknown #
vertex $-1 $413 $429 #
straight-curve $-1 -62.482375560777612 0 12.674781368397898 0 -1 0 I I #
vertex $-1 $427 $430 #
straight-curve $-1 -62.482375560777612 0 -12.674781368397898 0 1 0 I I #
face $-1 $431 $249 $17 $-1 $432 reversed single #
plane-surface $-1 0 0 12.674781368397898 0 0 1 1 0 0 forward_v I I I I #
coedge $-1 $433 $434 $435 $436 forward $229 $-1 #
coedge $-1 $435 $231 $437 $438 reversed $139 $-1 #
coedge $-1 $231 $435 $439 $440 reversed $139 $-1 #
coedge $-1 $233 $232 $231 $338 reversed $78 $-1 #
edge $-1 $441 -12.674781368397898 $442 12.674781368397898 $231 $443 forward 7 unknown #
coedge $-1 $248 $437 $232 $340 forward $249 $-1 #
edge $-1 $442 -2.1891819560670172 $347 2.1891819560670172 $232 $444 forward 7 unknown #
coedge $-1 $439 $252 $233 $342 forward $253 $-1 #
edge $-1 $346 -2.1891819560670172 $441 2.1891819560670172 $233 $445 forward 7 unknown #
coedge $-1 $246 $234 $252 $363 reversed $345 $-1 #
coedge $-1 $234 $246 $248 $360 reversed $345 $-1 #
loop $-1 $-1 $344 $431 #
vertex $-1 $363 $446 #
vertex $-1 $360 $447 #
straight-curve $-1 -62.482375560777612 -37.24085518800829 0 0 0 -1 I I #
coedge $-1 $361 $236 $241 $355 forward $249 $-1 #
straight-curve $-1 -58.104011648643578 32.821643565906825 -12.674781368397898 0 -1 0 I I #
coedge $-1 $238 $364 $240 $354 forward $253 $-1 #
straight-curve $-1 -58.104011648643578 32.821643565906825 12.674781368397898 0 1 0 I I #
coedge $-1 $241 $240 $448 $449 forward $242 $-1 #
edge $-1 $450 -62.482375560777612 $244 58.104011648643578 $240 $451 forward 7 unknown #
edge $-1 $243 -58.104011648643578 $452 62.482375560777612 $241 $453 forward 7 unknown #
face $-1 $454 $242 $17 $-1 $455 reversed single #
point $-1 -58.104011648643578 28.402431943805365 -12.674781368397898 #
point $-1 -58.104011648643578 28.402431943805365 12.674781368397898 #
straight-curve $-1 -62.482375560777612 37.240855188008283 0 0 0 -1 I I #
edge $-1 $347 -70.062498753915122 $250 4.4192116221014572 $344 $456 forward 7 unknown #
coedge $-1 $457 $349 $458 $459 forward $249 $-1 #
point $-1 -62.482375560777612 37.240855188008283 -12.674781368397898 #
edge $-1 $254 -37.240855188008283 $346 37.24085518800829 $343 $460 forward 7 unknown #
coedge $-1 $351 $461 $462 $463 forward $253 $-1 #
point $-1 -62.482375560777612 37.240855188008283 12.674781368397898 #
face $-1 $464 $465 $18 $-1 $466 reversed single #
loop $-1 $-1 $467 $258 #
plane-surface $-1 -58.104011648643578 32.821643565906825 0 -1 0 0 0 0 1 forward_v I I I I #
coedge $-1 $468 $469 $470 $471 forward $259 $-1 #
coedge $-1 $261 $472 $473 $474 forward $155 $-1 #
coedge $-1 $473 $271 $262 $372 forward $273 $-1 #
edge $-1 $376 -52.849077537229832 $373 -41.591838981713124 $371 $475 forward 7 unknown #
vertex $-1 $372 $476 #
straight-curve $-1 -63.42199063309959 19.564008699602443 12.674781368397902 1 0 0 I I #
edge $-1 $269 4.1044903236050114 $376 11.674509025199958 $271 $477 forward 7 unknown #
vertex $-1 $375 $478 #
straight-curve $-1 -62.482375560777612 19.564008699602443 1.4175428128811944 0.85716729658548041 0 0.51503808176128008 I I #
point $-1 -43.747184744106008 19.564008699602443 12.674781368397898 #
point $-1 -62.482375560777612 11.993989998007496 1.4175428128811944 #
coedge $-1 $272 $479 $480 $481 reversed $273 $-1 #
face $-1 $482 $273 $18 $-1 $483 reversed single #
coedge $-1 $484 $275 $485 $486 forward $155 $-1 #
coedge $-1 $480 $487 $275 $384 reversed $465 $-1 #
edge $-1 $385 -2.1891819560670172 $488 2.1891819560670172 $383 $489 forward 7 unknown #
vertex $-1 $276 $490 #
straight-curve $-1 -62.482375560777612 0 12.674781368397898 0 -1 0 I I #
face $-1 $491 $492 $19 $-1 $493 reversed single #
loop $-1 $-1 $494 $279 #
plane-surface $-1 0 0 12.674781368397898 0 0 1 1 0 0 forward_v I I I I #
coedge $-1 $495 $496 $494 $497 reversed $280 $-1 #
coedge $-1 $498 $392 $397 $499 reversed $282 $-1 #
coedge $-1 $391 $500 $283 $393 reversed $282 $-1 #
edge $-1 $398 -21.857099414901967 $501 0 $283 $502 forward 7 unknown #
coedge $-1 $503 $504 $284 $395 forward $505 $-1 #
edge $-1 $399 41.591838981713124 $501 52.849077537229832 $394 $506 forward 7 unknown #
coedge $-1 $507 $285 $504 $508 forward $388 $-1 #
coedge $-1 $285 $494 $391 $499 forward $388 $-1 #
vertex $-1 $499 $509 #
vertex $-1 $508 $510 #
straight-curve $-1 -63.42199063309959 11.993989998007496 12.674781368397902 -1 0 0 I I #
vertex $-1 $287 $511 #
point $-1 -51.434891115216395 15.77899934880497 6.1919612845600982 #
straight-curve $-1 -62.482375560777612 28.402431943805365 0 0 0 -1 I I #
point $-1 -62.482375560777612 -28.402431943805365 -12.674781368397898 #
straight-curve $-1 -62.482375560777612 0 -12.674781368397898 0 1 0 I I #
point $-1 -62.482375560777612 28.402431943805365 -12.674781368397898 #
face $-1 $-1 $416 $16 $-1 $512 reversed single #
loop $-1 $-1 $513 $307 #
plane-surface $-1 0 28.402431943805365 0 0 -1 0 0 0 -1 forward_v I I I I #
coedge $-1 $415 $414 $309 $411 reversed $416 $-1 #
edge $-1 $514 -28.402431943805365 $421 28.402431943805365 $410 $515 forward 7 unknown #
coedge $-1 $513 $326 $310 $413 reversed $408 $-1 #
edge $-1 $418 -62.482375560777612 $328 62.482375560777612 $412 $516 forward 7 unknown #
coedge $-1 $410 $312 $314 $420 forward $416 $-1 #
coedge $-1 $312 $410 $513 $517 reversed $416 $-1 #
loop $-1 $-1 $414 $407 #
vertex $-1 $313 $518 #
vertex $-1 $313 $519 #
straight-curve $-1 62.482375560777612 0 12.674781368397898 0 1 0 I I #
edge $-1 $417 -12.674781368397898 $421 12.674781368397898 $414 $520 forward 7 unknown #
vertex $-1 $420 $521 #
straight-curve $-1 0 -28.402431943805365 -12.674781368397898 -1 0 0 I I #
straight-curve $-1 0 -28.402431943805365 12.674781368397898 1 0 0 I I #
point $-1 -58.104011648643578 -28.402431943805361 12.674781368397898 #
point $-1 -58.104011648643578 -28.402431943805361 -12.674781368397898 #
coedge $-1 $326 $513 $325 $427 reversed $408 $-1 #
edge $-1 $330 -62.482375560777612 $514 62.482375560777612 $426 $522 forward 7 unknown #
straight-curve $-1 -62.482375560777612 28.402431943805365 0 0 0 -1 I I #
point $-1 -62.482375560777612 28.402431943805365 12.674781368397898 #
point $-1 -62.482375560777612 28.402431943805365 -12.674781368397898 #
face $-1 $356 $345 $17 $-1 $523 reversed single #
plane-surface $-1 0 0 -12.674781368397898 0 0 1 1 0 0 forward_v I I I I #
coedge $-1 $524 $334 $457 $525 reversed $229 $-1 #
coedge $-1 $334 $524 $461 $526 reversed $229 $-1 #
coedge $-1 $336 $335 $334 $436 reversed $139 $-1 #
edge $-1 $527 -12.674781368397898 $528 12.674781368397898 $334 $529 forward 7 unknown #
coedge $-1 $339 $457 $335 $438 forward $249 $-1 #
edge $-1 $528 -4.4192116221014643 $442 4.4192116221014643 $335 $530 forward 7 unknown #
coedge $-1 $461 $341 $336 $440 forward $253 $-1 #
edge $-1 $441 -4.4192116221014643 $527 4.4192116221014643 $336 $531 forward 7 unknown #
vertex $-1 $440 $532 #
vertex $-1 $338 $533 #
straight-curve $-1 -58.104011648643578 -37.24085518800829 0 0 0 -1 I I #
straight-curve $-1 -60.293193604710595 -37.24085518800829 -12.674781368397898 -1 0 0 I I #
straight-curve $-1 -60.293193604710595 -37.24085518800829 12.674781368397898 1 0 0 I I #
point $-1 -62.482375560777612 -37.24085518800829 12.674781368397898 #
point $-1 -62.482375560777612 -37.24085518800829 -12.674781368397898 #
coedge $-1 $462 $458 $353 $449 reversed $534 $-1 #
edge $-1 $450 -12.674781368397898 $452 12.674781368397898 $448 $535 forward 7 unknown #
vertex $-1 $463 $536 #
straight-curve $-1 0 28.402431943805365 12.674781368397898 -1 0 0 I I #
vertex $-1 $459 $537 #
straight-curve $-1 0 28.402431943805365 -12.674781368397898 1 0 0 I I #
face $-1 $-1 $534 $17 $-1 $538 reversed single #
plane-surface $-1 0 28.402431943805365 0 0 -1 0 0 0 -1 forward_v I I I I #
straight-curve $-1 -62.482375560777612 32.821643565906825 -12.674781368397898 0 1 0 I I #
coedge $-1 $437 $361 $433 $525 forward $249 $-1 #
coedge $-1 $448 $539 $361 $459 reversed $534 $-1 #
edge $-1 $452 -28.402431943805365 $540 28.402431943805365 $458 $541 forward 7 unknown #
straight-curve $-1 -62.482375560777612 0 12.674781368397898 0 -1 0 I I #
coedge $-1 $364 $439 $434 $526 forward $253 $-1 #
coedge $-1 $539 $448 $364 $463 reversed $534 $-1 #
edge $-1 $542 -28.402431943805365 $450 28.402431943805365 $462 $543 forward 7 unknown #
face $-1 $544 $545 $18 $-1 $546 reversed single #
loop $-1 $-1 $480 $366 #
plane-surface $-1 -60.293193604710595 -37.24085518800829 0 0 1 0 0 0 1 forward_v I I I I #
coedge $-1 $547 $548 $549 $550 reversed $367 $-1 #
coedge $-1 $551 $369 $552 $553 reversed $259 $-1 #
coedge $-1 $369 $551 $472 $554 reversed $259 $-1 #
coedge $-1 $548 $547 $369 $471 reversed $367 $-1 #
edge $-1 $555 -12.674781368397898 $556 12.674781368397898 $470 $557 forward 7 unknown #
coedge $-1 $370 $558 $469 $554 forward $155 $-1 #
coedge $-1 $559 $371 $370 $474 reversed $273 $-1 #
edge $-1 $560 -37.240855188008283 $373 -19.564008699602443 $473 $386 forward 7 unknown #
straight-curve $-1 -62.482375560777612 19.564008699602443 54.266620350111026 0 0 1 I I #
point $-1 -62.482375560777612 19.564008699602443 12.674781368397898 #
straight-curve $-1 -62.482375560777612 7.8894996744024848 1.4175428128811931 0 1 0 I I #
point $-1 -62.482375560777612 19.564008699602443 1.4175428128811944 #
coedge $-1 $380 $559 $561 $562 reversed $273 $-1 #
coedge $-1 $563 $383 $380 $481 forward $465 $-1 #
edge $-1 $385 -12.674781368397898 $564 12.674781368397898 $380 $565 forward 7 unknown #
face $-1 $566 $567 $18 $-1 $568 reversed single #
plane-surface $-1 -62.482375560777612 0 0 1 0 0 0 0 -1 forward_v I I I I #
coedge $-1 $569 $382 $570 $571 forward $155 $-1 #
coedge $-1 $572 $573 $382 $486 reversed $545 $-1 #
edge $-1 $488 -4.4192116221014643 $574 4.4192116221014643 $485 $575 forward 7 unknown #
coedge $-1 $383 $563 $572 $576 reversed $465 $-1 #
vertex $-1 $486 $577 #
straight-curve $-1 -60.293193604710595 -37.24085518800829 12.674781368397898 1 0 0 I I #
point $-1 -62.482375560777612 -37.24085518800829 12.674781368397898 #
face $-1 $578 $579 $19 $-1 $580 reversed single #
loop $-1 $-1 $581 $387 #
plane-surface $-1 -60.293193604710595 37.240855188008283 0 0 -1 0 0 0 -1 forward_v I I I I #
coedge $-1 $397 $582 $390 $497 forward $388 $-1 #
coedge $-1 $496 $390 $583 $584 reversed $280 $-1 #
coedge $-1 $390 $495 $498 $585 forward $280 $-1 #
edge $-1 $586 0.93961507232197761 $587 19.674805888993582 $494 $588 forward 7 unknown #
coedge $-1 $500 $391 $496 $585 reversed $282 $-1 #
edge $-1 $587 -11.674509025199958 $398 -4.1044903236050114 $397 $589 forward 7 unknown #
coedge $-1 $392 $498 $503 $590 reversed $282 $-1 #
vertex $-1 $590 $591 #
straight-curve $-1 -62.482375560777612 11.993989998007496 1.4175428128811944 -0.85716729658548041 0 -0.51503808176128008 I I #
coedge $-1 $583 $394 $500 $590 forward $505 $-1 #
coedge $-1 $394 $592 $396 $508 reversed $505 $-1 #
loop $-1 $-1 $583 $593 #
straight-curve $-1 -62.482375560777612 11.993989998007496 54.266620350111026 0 0 -1 I I #
coedge $-1 $594 $396 $595 $596 forward $388 $-1 #
edge $-1 $399 -11.993989998007496 $597 37.24085518800829 $504 $598 forward 7 unknown #
point $-1 -43.747184744106008 11.993989998007496 12.674781368397898 #
point $-1 -62.482375560777612 11.993989998007496 12.674781368397898 #
point $-1 -51.7770203300406 15.77899934880497 4.8197559062133379 #
plane-surface $-1 62.482375560777612 0 0 -1 0 0 0 0 1 forward_v I I I I #
coedge $-1 $426 $412 $415 $517 forward $408 $-1 #
vertex $-1 $411 $599 #
straight-curve $-1 62.482375560777612 0 -12.674781368397898 0 -1 0 I I #
straight-curve $-1 0 28.402431943805365 12.674781368397898 -1 0 0 I I #
edge $-1 $418 -12.674781368397898 $514 12.674781368397898 $415 $600 forward 7 unknown #
point $-1 62.482375560777612 -28.402431943805365 12.674781368397898 #
point $-1 62.482375560777612 28.402431943805365 12.674781368397898 #
straight-curve $-1 62.482375560777612 -28.402431943805365 0 0 0 -1 I I #
point $-1 62.482375560777612 -28.402431943805365 -12.674781368397898 #
straight-curve $-1 0 28.402431943805365 -12.674781368397898 1 0 0 I I #
plane-surface $-1 -62.482375560777612 0 0 1 0 0 0 0 -1 forward_v I I I I #
coedge $-1 $434 $433 $539 $601 reversed $229 $-1 #
edge $-1 $540 -62.482375560777612 $528 58.104011648643578 $433 $602 forward 7 unknown #
edge $-1 $527 -58.104011648643578 $542 62.482375560777612 $434 $603 forward 7 unknown #
vertex $-1 $526 $604 #
vertex $-1 $438 $605 #
straight-curve $-1 -58.104011648643578 -28.402431943805365 0 0 0 -1 I I #
straight-curve $-1 -58.104011648643578 -32.821643565906825 -12.674781368397898 0 -1 0 I I #
straight-curve $-1 -58.104011648643578 -32.821643565906825 12.674781368397898 0 1 0 I I #
point $-1 -58.104011648643578 -37.24085518800829 12.674781368397898 #
point $-1 -58.104011648643578 -37.24085518800829 -12.674781368397898 #
loop $-1 $-1 $539 $454 #
straight-curve $-1 62.482375560777612 28.402431943805365 0 0 0 -1 I I #
point $-1 62.482375560777612 28.402431943805365 12.674781368397898 #
point $-1 62.482375560777612 28.402431943805365 -12.674781368397898 #
plane-surface $-1 62.482375560777612 0 0 -1 0 0 0 0 1 forward_v I I I I #
coedge $-1 $458 $462 $524 $601 forward $534 $-1 #
vertex $-1 $601 $606 #
straight-curve $-1 62.482375560777612 0 -12.674781368397898 0 -1 0 I I #
vertex $-1 $463 $607 #
straight-curve $-1 62.482375560777612 0 12.674781368397898 0 1 0 I I #
face $-1 $608 $609 $18 $-1 $610 reversed single #
loop $-1 $-1 $572 $464 #
plane-surface $-1 -58.104011648643578 -32.821643565906825 0 -1 0 0 0 0 1 forward_v I I I I #
coedge $-1 $470 $467 $611 $612 reversed $367 $-1 #
coedge $-1 $467 $470 $558 $613 reversed $367 $-1 #
coedge $-1 $614 $615 $467 $550 forward $567 $-1 #
edge $-1 $616 -12.674781368397898 $617 12.674781368397898 $549 $618 forward 7 unknown #
coedge $-1 $469 $468 $559 $619 reversed $259 $-1 #
coedge $-1 $611 $561 $468 $553 forward $620 $-1 #
edge $-1 $621 -2.1891819560670172 $556 2.1891819560670172 $468 $622 forward 7 unknown #
edge $-1 $555 -2.1891819560670172 $560 2.1891819560670172 $469 $623 forward 7 unknown #
vertex $-1 $613 $624 #
vertex $-1 $612 $625 #
straight-curve $-1 -58.104011648643578 37.240855188008283 0 0 0 -1 I I #
coedge $-1 $472 $626 $548 $613 forward $155 $-1 #
coedge $-1 $479 $473 $551 $619 forward $273 $-1 #
vertex $-1 $554 $627 #
coedge $-1 $552 $628 $479 $562 forward $620 $-1 #
edge $-1 $564 -70.062498753915122 $621 4.4192116221014572 $479 $629 forward 7 unknown #
coedge $-1 $487 $480 $628 $630 reversed $465 $-1 #
vertex $-1 $562 $631 #
straight-curve $-1 -62.482375560777612 -37.24085518800829 0 0 0 -1 I I #
face $-1 $-1 $632 $18 $-1 $633 reversed single #
loop $-1 $-1 $549 $482 #
plane-surface $-1 0 28.402431943805365 0 0 -1 0 0 0 -1 forward_v I I I I #
coedge $-1 $626 $484 $634 $635 forward $155 $-1 #
coedge $-1 $636 $637 $484 $571 reversed $609 $-1 #
edge $-1 $574 -58.104011648643578 $638 62.482375560777612 $570 $639 forward 7 unknown #
coedge $-1 $640 $485 $487 $576 forward $545 $-1 #
coedge $-1 $485 $640 $636 $641 reversed $545 $-1 #
vertex $-1 $571 $642 #
straight-curve $-1 -58.104011648643578 -32.821643565906825 12.674781368397898 0 1 0 I I #
edge $-1 $488 -12.674781368397898 $643 12.674781368397898 $572 $644 forward 7 unknown #
point $-1 -58.104011648643578 -37.24085518800829 12.674781368397898 #
face $-1 $645 $646 $19 $-1 $647 reversed single #
loop $-1 $-1 $648 $491 #
plane-surface $-1 -58.104011648643578 32.821643565906825 0 -1 0 0 0 0 1 forward_v I I I I #
coedge $-1 $649 $650 $651 $652 forward $492 $-1 #
coedge $-1 $494 $653 $654 $655 forward $388 $-1 #
coedge $-1 $654 $503 $495 $584 forward $505 $-1 #
edge $-1 $656 -52.849077537229832 $586 -41.591838981713124 $583 $657 forward 7 unknown #
edge $-1 $656 0 $587 21.857099414901967 $496 $658 forward 7 unknown #
vertex $-1 $584 $659 #
vertex $-1 $499 $660 #
straight-curve $-1 -63.42199063309959 19.564008699602443 12.674781368397902 1 0 0 I I #
straight-curve $-1 -43.747184744106008 7.8894996744024848 12.674781368397898 0 -1 0 I I #
edge $-1 $501 4.1044903236050114 $656 11.674509025199958 $503 $661 forward 7 unknown #
point $-1 -62.482375560777612 11.993989998007496 1.4175428128811944 #
coedge $-1 $504 $662 $663 $664 reversed $505 $-1 #
face $-1 $665 $505 $19 $-1 $666 reversed single #
coedge $-1 $667 $507 $668 $669 forward $388 $-1 #
coedge $-1 $663 $670 $507 $596 reversed $646 $-1 #
edge $-1 $597 -2.1891819560670172 $671 2.1891819560670172 $595 $672 forward 7 unknown #
vertex $-1 $508 $673 #
straight-curve $-1 -62.482375560777612 0 12.674781368397898 0 -1 0 I I #
point $-1 62.482375560777612 28.402431943805365 -12.674781368397898 #
straight-curve $-1 62.482375560777612 28.402431943805365 0 0 0 -1 I I #
edge $-1 $542 -12.674781368397898 $540 12.674781368397898 $539 $674 forward 7 unknown #
straight-curve $-1 0 -28.402431943805365 -12.674781368397898 -1 0 0 I I #
straight-curve $-1 0 -28.402431943805365 12.674781368397898 1 0 0 I I #
point $-1 -58.104011648643578 -28.402431943805361 12.674781368397898 #
point $-1 -58.104011648643578 -28.402431943805361 -12.674781368397898 #
point $-1 62.482375560777612 -28.402431943805365 -12.674781368397898 #
point $-1 62.482375560777612 -28.402431943805365 12.674781368397898 #
face $-1 $381 $620 $18 $-1 $675 reversed single #
loop $-1 $-1 $636 $544 #
plane-surface $-1 0 -28.402431943805365 0 0 1 0 0 0 1 forward_v I I I I #
coedge $-1 $676 $552 $547 $612 forward $620 $-1 #
edge $-1 $556 -4.4192116221014572 $616 4.4192116221014608 $547 $677 forward 7 unknown #
edge $-1 $617 -4.4192116221014608 $555 4.4192116221014572 $548 $678 forward 7 unknown #
coedge $-1 $679 $549 $626 $680 reversed $567 $-1 #
coedge $-1 $549 $679 $676 $681 reversed $567 $-1 #
vertex $-1 $681 $682 #
vertex $-1 $613 $683 #
straight-curve $-1 -58.104011648643578 28.402431943805365 0 0 0 1 I I #
edge $-1 $560 -12.674781368397898 $621 12.674781368397898 $551 $684 forward 7 unknown #
loop $-1 $-1 $685 $608 #
vertex $-1 $553 $686 #
straight-curve $-1 -60.293193604710595 37.240855188008283 -12.674781368397898 1 0 0 I I #
straight-curve $-1 -60.293193604710595 37.240855188008283 12.674781368397898 -1 0 0 I I #
point $-1 -58.104011648643578 37.240855188008283 12.674781368397898 #
point $-1 -58.104011648643578 37.240855188008283 -12.674781368397898 #
coedge $-1 $558 $569 $614 $680 forward $155 $-1 #
point $-1 -62.482375560777612 37.240855188008283 12.674781368397898 #
coedge $-1 $561 $687 $563 $630 forward $620 $-1 #
straight-curve $-1 -62.482375560777612 32.821643565906825 -12.674781368397898 0 1 0 I I #
edge $-1 $643 -2.1891819560670172 $564 2.1891819560670172 $563 $688 forward 7 unknown #
point $-1 -62.482375560777612 -37.24085518800829 -12.674781368397898 #
loop $-1 $-1 $689 $566 #
plane-surface $-1 62.482375560777612 0 0 -1 0 0 0 0 1 forward_v I I I I #
coedge $-1 $689 $690 $569 $635 reversed $632 $-1 #
edge $-1 $638 -28.402431943805365 $691 28.402431943805365 $634 $692 forward 7 unknown #
coedge $-1 $693 $570 $573 $641 forward $609 $-1 #
coedge $-1 $570 $693 $689 $694 reversed $609 $-1 #
vertex $-1 $635 $695 #
straight-curve $-1 0 -28.402431943805365 12.674781368397898 1 0 0 I I #
coedge $-1 $573 $572 $687 $696 reversed $545 $-1 #
edge $-1 $574 -12.674781368397898 $697 12.674781368397898 $636 $698 forward 7 unknown #
point $-1 -58.104011648643578 -28.402431943805361 12.674781368397898 #
vertex $-1 $576 $699 #
straight-curve $-1 -58.104011648643578 -37.24085518800829 0 0 0 -1 I I #
face $-1 $700 $701 $19 $-1 $702 reversed single #
loop $-1 $-1 $663 $578 #
plane-surface $-1 -60.293193604710595 -37.24085518800829 0 0 1 0 0 0 1 forward_v I I I I #
coedge $-1 $703 $704 $705 $706 reversed $579 $-1 #
coedge $-1 $707 $581 $708 $709 reversed $492 $-1 #
coedge $-1 $581 $707 $653 $710 reversed $492 $-1 #
coedge $-1 $704 $703 $581 $652 reversed $579 $-1 #
edge $-1 $711 -12.674781368397898 $712 12.674781368397898 $651 $713 forward 7 unknown #
coedge $-1 $582 $714 $650 $710 forward $388 $-1 #
coedge $-1 $715 $583 $582 $655 reversed $505 $-1 #
edge $-1 $716 -37.240855188008283 $586 -19.564008699602443 $654 $598 forward 7 unknown #
vertex $-1 $590 $717 #
straight-curve $-1 -62.482375560777612 19.564008699602443 54.266620350111026 0 0 1 I I #
straight-curve $-1 -62.482375560777612 19.564008699602443 1.4175428128811944 0.85716729658548041 0 0.51503808176128008 I I #
point $-1 -62.482375560777612 19.564008699602443 12.674781368397898 #
point $-1 -43.747184744106008 19.564008699602443 12.674781368397898 #
straight-curve $-1 -62.482375560777612 7.8894996744024848 1.4175428128811931 0 1 0 I I #
coedge $-1 $592 $715 $718 $719 reversed $505 $-1 #
coedge $-1 $720 $595 $592 $664 forward $646 $-1 #
edge $-1 $597 -12.674781368397898 $721 12.674781368397898 $592 $722 forward 7 unknown #
face $-1 $723 $724 $19 $-1 $725 reversed single #
plane-surface $-1 -62.482375560777612 0 0 1 0 0 0 0 -1 forward_v I I I I #
coedge $-1 $726 $594 $727 $728 forward $388 $-1 #
coedge $-1 $729 $730 $594 $669 reversed $701 $-1 #
edge $-1 $671 -4.4192116221014643 $731 4.4192116221014643 $668 $732 forward 7 unknown #
coedge $-1 $595 $720 $729 $733 reversed $646 $-1 #
vertex $-1 $669 $734 #
straight-curve $-1 -60.293193604710595 -37.24085518800829 12.674781368397898 1 0 0 I I #
point $-1 -62.482375560777612 -37.24085518800829 12.674781368397898 #
straight-curve $-1 62.482375560777612 -28.402431943805365 0 0 0 -1 I I #
plane-surface $-1 0 0 -12.674781368397898 0 0 1 1 0 0 forward_v I I I I #
coedge $-1 $685 $611 $615 $681 forward $620 $-1 #
straight-curve $-1 -58.104011648643578 32.821643565906825 -12.674781368397898 0 -1 0 I I #
straight-curve $-1 -58.104011648643578 32.821643565906825 12.674781368397898 0 1 0 I I #
coedge $-1 $615 $614 $690 $735 forward $567 $-1 #
edge $-1 $691 -62.482375560777612 $617 58.104011648643578 $614 $736 forward 7 unknown #
edge $-1 $616 -58.104011648643578 $737 62.482375560777612 $615 $738 forward 7 unknown #
point $-1 -58.104011648643578 28.402431943805365 -12.674781368397898 #
point $-1 -58.104011648643578 28.402431943805365 12.674781368397898 #
straight-curve $-1 -62.482375560777612 37.240855188008283 0 0 0 -1 I I #
coedge $-1 $739 $676 $740 $741 forward $620 $-1 #
point $-1 -62.482375560777612 37.240855188008283 -12.674781368397898 #
coedge $-1 $628 $739 $640 $696 forward $620 $-1 #
straight-curve $-1 -60.293193604710595 -37.24085518800829 -12.674781368397898 -1 0 0 I I #
coedge $-1 $740 $634 $637 $694 forward $632 $-1 #
coedge $-1 $634 $740 $679 $735 reversed $632 $-1 #
vertex $-1 $635 $742 #
straight-curve $-1 62.482375560777612 0 12.674781368397898 0 1 0 I I #
coedge $-1 $637 $636 $739 $743 reversed $609 $-1 #
edge $-1 $638 -12.674781368397898 $744 12.674781368397898 $689 $745 forward 7 unknown #
point $-1 62.482375560777612 -28.402431943805365 12.674781368397898 #
edge $-1 $697 -4.4192116221014643 $643 4.4192116221014643 $640 $746 forward 7 unknown #
vertex $-1 $696 $747 #
straight-curve $-1 -58.104011648643578 -28.402431943805365 0 0 0 -1 I I #
point $-1 -58.104011648643578 -37.24085518800829 -12.674781368397898 #
face $-1 $748 $749 $19 $-1 $750 reversed single #
loop $-1 $-1 $729 $645 #
plane-surface $-1 -58.104011648643578 -32.821643565906825 0 -1 0 0 0 0 1 forward_v I I I I #
coedge $-1 $651 $648 $751 $752 reversed $579 $-1 #
coedge $-1 $648 $651 $714 $753 reversed $579 $-1 #
coedge $-1 $754 $755 $648 $706 forward $724 $-1 #
edge $-1 $756 -12.674781368397898 $757 12.674781368397898 $705 $758 forward 7 unknown #
coedge $-1 $650 $649 $715 $759 reversed $492 $-1 #
coedge $-1 $751 $718 $649 $709 forward $760 $-1 #
edge $-1 $761 -2.1891819560670172 $712 2.1891819560670172 $649 $762 forward 7 unknown #
edge $-1 $711 -2.1891819560670172 $716 2.1891819560670172 $650 $763 forward 7 unknown #
vertex $-1 $753 $764 #
vertex $-1 $752 $765 #
straight-curve $-1 -58.104011648643578 37.240855188008283 0 0 0 -1 I I #
coedge $-1 $653 $766 $704 $753 forward $388 $-1 #
coedge $-1 $662 $654 $707 $759 forward $505 $-1 #
vertex $-1 $710 $767 #
point $-1 -62.482375560777612 19.564008699602443 1.4175428128811944 #
coedge $-1 $708 $768 $662 $719 forward $760 $-1 #
edge $-1 $721 -70.062498753915122 $761 4.4192116221014572 $662 $769 forward 7 unknown #
coedge $-1 $670 $663 $768 $770 reversed $646 $-1 #
vertex $-1 $719 $771 #
straight-curve $-1 -62.482375560777612 -37.24085518800829 0 0 0 -1 I I #
face $-1 $-1 $772 $19 $-1 $773 reversed single #
loop $-1 $-1 $705 $665 #
plane-surface $-1 0 28.402431943805365 0 0 -1 0 0 0 -1 forward_v I I I I #
coedge $-1 $766 $667 $774 $775 forward $388 $-1 #
coedge $-1 $776 $777 $667 $728 reversed $749 $-1 #
edge $-1 $731 -58.104011648643578 $778 62.482375560777612 $727 $779 forward 7 unknown #
coedge $-1 $780 $668 $670 $733 forward $701 $-1 #
coedge $-1 $668 $780 $776 $781 reversed $701 $-1 #
vertex $-1 $728 $782 #
straight-curve $-1 -58.104011648643578 -32.821643565906825 12.674781368397898 0 1 0 I I #
edge $-1 $671 -12.674781368397898 $783 12.674781368397898 $729 $784 forward 7 unknown #
point $-1 -58.104011648643578 -37.24085518800829 12.674781368397898 #
edge $-1 $691 -12.674781368397898 $737 12.674781368397898 $690 $785 forward 7 unknown #
straight-curve $-1 0 28.402431943805365 12.674781368397898 -1 0 0 I I #
vertex $-1 $741 $786 #
straight-curve $-1 0 28.402431943805365 -12.674781368397898 1 0 0 I I #
coedge $-1 $687 $685 $693 $743 forward $620 $-1 #
coedge $-1 $690 $689 $685 $741 reversed $632 $-1 #
edge $-1 $737 -28.402431943805365 $744 28.402431943805365 $740 $787 forward 7 unknown #
point $-1 62.482375560777612 28.402431943805365 12.674781368397898 #
edge $-1 $744 -62.482375560777612 $697 58.104011648643578 $693 $788 forward 7 unknown #
vertex $-1 $694 $789 #
straight-curve $-1 62.482375560777612 -28.402431943805365 0 0 0 -1 I I #
straight-curve $-1 -58.104011648643578 -32.821643565906825 -12.674781368397898 0 -1 0 I I #
point $-1 -58.104011648643578 -28.402431943805361 -12.674781368397898 #
face $-1 $593 $760 $19 $-1 $790 reversed single #
loop $-1 $-1 $776 $700 #
plane-surface $-1 0 -28.402431943805365 0 0 1 0 0 0 1 forward_v I I I I #
coedge $-1 $791 $708 $703 $752 forward $760 $-1 #
edge $-1 $712 -4.4192116221014572 $756 4.4192116221014608 $703 $792 forward 7 unknown #
edge $-1 $757 -4.4192116221014608 $711 4.4192116221014572 $704 $793 forward 7 unknown #
coedge $-1 $794 $705 $766 $795 reversed $724 $-1 #
coedge $-1 $705 $794 $791 $796 reversed $724 $-1 #
vertex $-1 $796 $797 #
vertex $-1 $753 $798 #
straight-curve $-1 -58.104011648643578 28.402431943805365 0 0 0 1 I I #
edge $-1 $716 -12.674781368397898 $761 12.674781368397898 $707 $799 forward 7 unknown #
loop $-1 $-1 $800 $748 #
vertex $-1 $709 $801 #
straight-curve $-1 -60.293193604710595 37.240855188008283 -12.674781368397898 1 0 0 I I #
straight-curve $-1 -60.293193604710595 37.240855188008283 12.674781368397898 -1 0 0 I I #
point $-1 -58.104011648643578 37.240855188008283 12.674781368397898 #
point $-1 -58.104011648643578 37.240855188008283 -12.674781368397898 #
coedge $-1 $714 $726 $754 $795 forward $388 $-1 #
point $-1 -62.482375560777612 37.240855188008283 12.674781368397898 #
coedge $-1 $718 $802 $720 $770 forward $760 $-1 #
straight-curve $-1 -62.482375560777612 32.821643565906825 -12.674781368397898 0 1 0 I I #
edge $-1 $783 -2.1891819560670172 $721 2.1891819560670172 $720 $803 forward 7 unknown #
point $-1 -62.482375560777612 -37.24085518800829 -12.674781368397898 #
loop $-1 $-1 $804 $723 #
plane-surface $-1 62.482375560777612 0 0 -1 0 0 0 0 1 forward_v I I I I #
coedge $-1 $804 $805 $726 $775 reversed $772 $-1 #
edge $-1 $778 -28.402431943805365 $806 28.402431943805365 $774 $807 forward 7 unknown #
coedge $-1 $808 $727 $730 $781 forward $749 $-1 #
coedge $-1 $727 $808 $804 $809 reversed $749 $-1 #
vertex $-1 $775 $810 #
straight-curve $-1 0 -28.402431943805365 12.674781368397898 1 0 0 I I #
coedge $-1 $730 $729 $802 $811 reversed $701 $-1 #
edge $-1 $731 -12.674781368397898 $812 12.674781368397898 $776 $813 forward 7 unknown #
point $-1 -58.104011648643578 -28.402431943805361 12.674781368397898 #
vertex $-1 $733 $814 #
straight-curve $-1 -58.104011648643578 -37.24085518800829 0 0 0 -1 I I #
straight-curve $-1 62.482375560777612 28.402431943805365 0 0 0 -1 I I #
point $-1 62.482375560777612 28.402431943805365 -12.674781368397898 #
straight-curve $-1 62.482375560777612 0 -12.674781368397898 0 -1 0 I I #
straight-curve $-1 0 -28.402431943805365 -12.674781368397898 -1 0 0 I I #
point $-1 62.482375560777612 -28.402431943805365 -12.674781368397898 #
plane-surface $-1 0 0 -12.674781368397898 0 0 1 1 0 0 forward_v I I I I #
coedge $-1 $800 $751 $755 $796 forward $760 $-1 #
straight-curve $-1 -58.104011648643578 32.821643565906825 -12.674781368397898 0 -1 0 I I #
straight-curve $-1 -58.104011648643578 32.821643565906825 12.674781368397898 0 1 0 I I #
coedge $-1 $755 $754 $805 $815 forward $724 $-1 #
edge $-1 $806 -62.482375560777612 $757 58.104011648643578 $754 $816 forward 7 unknown #
edge $-1 $756 -58.104011648643578 $817 62.482375560777612 $755 $818 forward 7 unknown #
point $-1 -58.104011648643578 28.402431943805365 -12.674781368397898 #
point $-1 -58.104011648643578 28.402431943805365 12.674781368397898 #
straight-curve $-1 -62.482375560777612 37.240855188008283 0 0 0 -1 I I #
coedge $-1 $819 $791 $820 $821 forward $760 $-1 #
point $-1 -62.482375560777612 37.240855188008283 -12.674781368397898 #
coedge $-1 $768 $819 $780 $811 forward $760 $-1 #
straight-curve $-1 -60.293193604710595 -37.24085518800829 -12.674781368397898 -1 0 0 I I #
coedge $-1 $820 $774 $777 $809 forward $772 $-1 #
coedge $-1 $774 $820 $794 $815 reversed $772 $-1 #
vertex $-1 $775 $822 #
straight-curve $-1 62.482375560777612 0 12.674781368397898 0 1 0 I I #
coedge $-1 $777 $776 $819 $823 reversed $749 $-1 #
edge $-1 $778 -12.674781368397898 $824 12.674781368397898 $804 $825 forward 7 unknown #
point $-1 62.482375560777612 -28.402431943805365 12.674781368397898 #
edge $-1 $812 -4.4192116221014643 $783 4.4192116221014643 $780 $826 forward 7 unknown #
vertex $-1 $811 $827 #
straight-curve $-1 -58.104011648643578 -28.402431943805365 0 0 0 -1 I I #
point $-1 -58.104011648643578 -37.24085518800829 -12.674781368397898 #
edge $-1 $806 -12.674781368397898 $817 12.674781368397898 $805 $828 forward 7 unknown #
straight-curve $-1 0 28.402431943805365 12.674781368397898 -1 0 0 I I #
vertex $-1 $821 $829 #
straight-curve $-1 0 28.402431943805365 -12.674781368397898 1 0 0 I I #
coedge $-1 $802 $800 $808 $823 forward $760 $-1 #
coedge $-1 $805 $804 $800 $821 reversed $772 $-1 #
edge $-1 $817 -28.402431943805365 $824 28.402431943805365 $820 $830 forward 7 unknown #
point $-1 62.482375560777612 28.402431943805365 12.674781368397898 #
edge $-1 $824 -62.482375560777612 $812 58.104011648643578 $808 $831 forward 7 unknown #
vertex $-1 $809 $832 #
straight-curve $-1 62.482375560777612 -28.402431943805365 0 0 0 -1 I I #
straight-curve $-1 -58.104011648643578 -32.821643565906825 -12.674781368397898 0 -1 0 I I #
point $-1 -58.104011648643578 -28.402431943805361 -12.674781368397898 #
straight-curve $-1 62.482375560777612 28.402431943805365 0 0 0 -1 I I #
point $-1 62.482375560777612 28.402431943805365 -12.674781368397898 #
straight-curve $-1 62.482375560777612 0 -12.674781368397898 0 -1 0 I I #
straight-curve $-1 0 -28.402431943805365 -12.674781368397898 -1 0 0 I I #
point $-1 62.482375560777612 -28.402431943805365 -12.674781368397898 #
End-of-ACIS-data 