500 0 4 0           
7 Unknown 11 ACIS 5.0 NT 24 Thu Mar 25 19:19:27 1999 
-1 9.9999999999999995e-007 1e-010 
body $-1 $4 $-1 $5 #
body $-1 $6 $-1 $7 #
body $-1 $8 $-1 $9 #
body $-1 $10 $-1 $11 #
lump $-1 $-1 $12 $0 #
transform $-1 1 0 0 0 1 0 0 0 1 48.865016632587668 20.849690162059641 6.5608407938468813 1 rotate no_reflect no_shear #
lump $-1 $-1 $13 $1 #
transform $-1 1 0 0 0 1 0 0 0 1 48.865016632587668 20.849690162059641 6.5608407938468813 1 rotate no_reflect no_shear #
lump $-1 $-1 $14 $2 #
transform $-1 1 0 0 0 1 0 0 0 1 48.865016632587668 20.849690162059641 6.5608407938468813 1 rotate no_reflect no_shear #
lump $-1 $-1 $15 $3 #
transform $-1 1 0 0 0 1 0 0 0 1 48.865016632587668 20.849690162059641 6.5608407938468813 1 rotate no_reflect no_shear #
shell $-1 $-1 $-1 $16 $-1 $4 #
shell $-1 $-1 $-1 $17 $-1 $6 #
shell $-1 $-1 $-1 $18 $-1 $8 #
shell $-1 $-1 $-1 $19 $-1 $10 #
face $-1 $20 $21 $12 $-1 $22 forward single #
face $-1 $23 $24 $13 $-1 $25 forward single #
face $-1 $26 $27 $14 $-1 $28 reversed single #
face $-1 $29 $30 $15 $-1 $31 reversed single #
face $-1 $32 $33 $12 $-1 $34 reversed single #
loop $-1 $-1 $35 $16 #
plane-surface $-1 0 0 6.5608407938468813 0 0 1 1 0 0 forward_v I I I I #
face $-1 $36 $37 $13 $-1 $38 forward single #
loop $-1 $-1 $39 $17 #
plane-surface $-1 70.486004046251196 0.69924644420689042 139.93844325853462 0 -1 0 -0.80901700255871778 0 -0.5877852410284794 forward_v I I I I #
face $-1 $40 $41 $14 $-1 $42 reversed single #
loop $-1 $43 $44 $18 #
cone-surface $-1 47.092713805126458 -4.3415550767351618 4.5338396711365911 -0.80901700255871778 0 -0.5877852410284794 0.2938926205142397 0 -0.40450850127935889 1 I I 0 1 0.5 forward I I I I #
face $-1 $45 $46 $15 $-1 $47 reversed single #
loop $-1 $48 $49 $19 #
cone-surface $-1 47.092713805126458 -1.3170741641699273 4.5338396711365911 -0.80901700255871778 0 -0.5877852410284794 0.2938926205142397 0 -0.40450850127935889 1 I I 0 1 0.5 forward I I I I #
face $-1 $50 $51 $12 $-1 $52 reversed single #
loop $-1 $-1 $53 $20 #
plane-surface $-1 0 0 -6.5608407938468813 0 0 1 1 0 0 forward_v I I I I #
coedge $-1 $54 $55 $56 $57 forward $21 $-1 #
face $-1 $58 $59 $13 $-1 $60 forward single #
loop $-1 $-1 $61 $23 #
plane-surface $-1 -8.5792545259047301 -2.8293146204525463 82.494172100042221 0.80901700255871778 0 0.5877852410284794 0.5877852410284794 0 -0.80901700255871778 forward_v I I I I #
coedge $-1 $62 $63 $64 $65 reversed $24 $-1 #
face $-1 $66 $67 $14 $-1 $68 forward single #
loop $-1 $69 $70 $26 #
cone-surface $-1 46.255895870383497 -4.3415550767351618 3.9258558711494631 -0.80901700255871778 0 -0.5877852410284794 0.14694631025711985 0 -0.20225425063967944 1 I I -0.70710678118654746 0.70710678118654746 0.25 forward I I I I #
loop $-1 $-1 $71 $18 #
coedge $-1 $44 $44 $72 $73 reversed $27 $-1 #
face $-1 $74 $75 $15 $-1 $76 reversed single #
loop $-1 $77 $78 $29 #
cone-surface $-1 46.255895870383497 -1.3170741641699273 3.9258558711494631 -0.80901700255871778 0 -0.5877852410284794 0.14694631025711985 0 -0.20225425063967944 1 I I -0.70710678118654746 0.70710678118654746 0.25 forward I I I I #
loop $-1 $-1 $79 $19 #
coedge $-1 $49 $49 $80 $81 reversed $30 $-1 #
face $-1 $82 $83 $12 $-1 $84 reversed single #
loop $-1 $-1 $85 $32 #
plane-surface $-1 0 -20.849690162059641 0 0 1 0 0 0 1 forward_v I I I I #
coedge $-1 $86 $87 $88 $89 forward $33 $-1 #
coedge $-1 $90 $35 $91 $92 forward $21 $-1 #
coedge $-1 $35 $90 $93 $94 forward $21 $-1 #
coedge $-1 $95 $96 $35 $57 reversed $97 $-1 #
edge $-1 $98 -20.849690162059641 $99 20.849690162059641 $56 $100 forward 7 unknown #
face $-1 $101 $102 $13 $-1 $103 forward single #
loop $-1 $-1 $104 $36 #
plane-surface $-1 70.486004046251196 -6.3578756851119831 139.93844325853462 0 1 0 0.80901700255871778 0 0.5877852410284794 forward_v I I I I #
coedge $-1 $105 $106 $107 $108 reversed $37 $-1 #
coedge $-1 $63 $39 $106 $109 forward $24 $-1 #
coedge $-1 $39 $62 $110 $111 reversed $24 $-1 #
coedge $-1 $112 $107 $39 $65 forward $102 $-1 #
edge $-1 $113 11.346536322746211 $114 13.62201460946207 $64 $115 forward 7 unknown #
face $-1 $116 $117 $14 $-1 $118 forward single #
loop $-1 $-1 $119 $40 #
plane-surface $-1 70.486004046251196 0.69924644420689042 139.93844325853462 0 -1 0 -0.80901700255871778 0 -0.5877852410284794 forward_v I I I I #
loop $-1 $-1 $120 $26 #
coedge $-1 $70 $70 $71 $121 forward $41 $-1 #
coedge $-1 $71 $71 $70 $121 reversed $43 $-1 #
coedge $-1 $72 $72 $44 $73 forward $117 $-1 #
edge $-1 $122 0 $122 6.2831853071796004 $72 $123 forward 7 unknown #
face $-1 $124 $125 $15 $-1 $126 reversed single #
loop $-1 $127 $128 $45 #
cone-surface $-1 47.092713805126458 -4.3415550767351618 4.5338396711365911 -0.80901700255871778 0 -0.5877852410284794 0.2938926205142397 0 -0.40450850127935889 1 I I 0 1 0.5 forward I I I I #
loop $-1 $-1 $129 $29 #
coedge $-1 $78 $78 $79 $130 forward $46 $-1 #
coedge $-1 $79 $79 $78 $130 reversed $48 $-1 #
coedge $-1 $80 $80 $49 $81 forward $131 $-1 #
edge $-1 $132 0 $132 6.2831853071796004 $80 $133 forward 7 unknown #
face $-1 $134 $135 $12 $-1 $136 reversed single #
loop $-1 $-1 $137 $50 #
plane-surface $-1 -48.865016632587668 0 0 1 0 0 0 0 -1 forward_v I I I I #
coedge $-1 $138 $93 $139 $140 forward $51 $-1 #
coedge $-1 $141 $53 $138 $142 forward $33 $-1 #
coedge $-1 $53 $141 $143 $144 forward $33 $-1 #
coedge $-1 $96 $95 $53 $89 reversed $97 $-1 #
edge $-1 $145 -20.849690162059641 $146 20.849690162059641 $88 $147 forward 7 unknown #
coedge $-1 $55 $54 $148 $149 forward $21 $-1 #
coedge $-1 $150 $151 $54 $92 reversed $135 $-1 #
edge $-1 $99 -48.865016632587668 $152 48.865016632587668 $91 $153 forward 7 unknown #
coedge $-1 $85 $154 $55 $94 reversed $51 $-1 #
edge $-1 $155 -48.865016632587668 $98 48.865016632587668 $93 $156 forward 7 unknown #
coedge $-1 $88 $56 $154 $157 forward $97 $-1 #
coedge $-1 $56 $88 $150 $158 reversed $97 $-1 #
loop $-1 $-1 $95 $134 #
vertex $-1 $57 $159 #
vertex $-1 $57 $160 #
straight-curve $-1 48.865016632587668 0 6.5608407938468813 0 1 0 I I #
face $-1 $161 $162 $13 $-1 $163 reversed single #
loop $-1 $-1 $164 $58 #
plane-surface $-1 0 0 6.5608407938468813 0 0 1 1 0 0 forward_v I I I I #
coedge $-1 $165 $166 $164 $167 reversed $59 $-1 #
coedge $-1 $168 $61 $166 $169 reversed $37 $-1 #
coedge $-1 $61 $168 $62 $109 reversed $37 $-1 #
coedge $-1 $64 $164 $61 $108 forward $102 $-1 #
edge $-1 $170 -4.9432183748857099 $113 2.1139037544331636 $107 $171 forward 7 unknown #
edge $-1 $113 93.858758303023635 $172 97.730033265175337 $62 $173 forward 7 unknown #
coedge $-1 $174 $175 $63 $111 forward $176 $-1 #
edge $-1 $114 63.408380835420431 $172 66.540308101381015 $110 $177 forward 7 unknown #
coedge $-1 $178 $64 $175 $179 forward $102 $-1 #
vertex $-1 $108 $180 #
vertex $-1 $179 $181 #
straight-curve $-1 35.243002023125598 0.69924644420689042 6.5608407938468787 1 0 0 I I #
face $-1 $182 $183 $14 $-1 $184 forward single #
loop $-1 $185 $72 $66 #
plane-surface $-1 -8.5792545259047301 -2.8293146204525463 82.494172100042221 0.80901700255871778 0 0.5877852410284794 0.5877852410284794 0 -0.80901700255871778 forward_v I I I I #
coedge $-1 $186 $187 $188 $189 reversed $67 $-1 #
coedge $-1 $120 $120 $-1 $190 forward $69 $-1 #
edge $-1 $191 0 $191 6.2831853071796004 $70 $192 forward 7 unknown #
vertex $-1 $73 $193 #
ellipse-curve $-1 47.727277489229735 -4.3415550767351618 4.9948771608665954 -0.80901700255871778 0 -0.5877852410284794 0.2938926205142397 0 -0.40450850127935889 1 I I #
face $-1 $194 $195 $15 $-1 $196 forward single #
loop $-1 $197 $198 $74 #
cone-surface $-1 46.255895870383497 -4.3415550767351618 3.9258558711494631 -0.80901700255871778 0 -0.5877852410284794 0.14694631025711985 0 -0.20225425063967944 1 I I -0.70710678118654746 0.70710678118654746 0.25 forward I I I I #
loop $-1 $-1 $199 $45 #
coedge $-1 $128 $128 $200 $201 reversed $75 $-1 #
coedge $-1 $129 $129 $-1 $202 forward $77 $-1 #
edge $-1 $203 0 $203 6.2831853071796004 $78 $204 forward 7 unknown #
loop $-1 $205 $80 $194 #
vertex $-1 $81 $206 #
ellipse-curve $-1 47.727277489229735 -1.3170741641699273 4.9948771608665954 -0.80901700255871778 0 -0.5877852410284794 0.2938926205142397 0 -0.40450850127935889 1 I I #
face $-1 $-1 $97 $12 $-1 $207 reversed single #
loop $-1 $-1 $150 $82 #
plane-surface $-1 0 20.849690162059641 0 0 -1 0 0 0 -1 forward_v I I I I #
coedge $-1 $208 $148 $151 $209 forward $83 $-1 #
coedge $-1 $154 $85 $86 $142 reversed $51 $-1 #
coedge $-1 $148 $208 $85 $140 reversed $83 $-1 #
edge $-1 $155 -6.5608407938468813 $210 6.5608407938468813 $139 $211 forward 7 unknown #
coedge $-1 $87 $86 $208 $212 forward $33 $-1 #
edge $-1 $146 -48.865016632587668 $210 48.865016632587668 $138 $213 forward 7 unknown #
coedge $-1 $151 $150 $87 $144 reversed $135 $-1 #
edge $-1 $214 -48.865016632587668 $145 48.865016632587668 $143 $215 forward 7 unknown #
vertex $-1 $89 $216 #
vertex $-1 $157 $217 #
straight-curve $-1 48.865016632587668 0 -6.5608407938468813 0 -1 0 I I #
coedge $-1 $137 $139 $90 $149 reversed $83 $-1 #
edge $-1 $152 -20.849690162059641 $155 20.849690162059641 $148 $218 forward 7 unknown #
coedge $-1 $143 $91 $96 $158 forward $135 $-1 #
coedge $-1 $91 $143 $137 $209 reversed $135 $-1 #
vertex $-1 $92 $219 #
straight-curve $-1 0 20.849690162059641 6.5608407938468813 -1 0 0 I I #
coedge $-1 $93 $138 $95 $157 reversed $51 $-1 #
vertex $-1 $149 $220 #
straight-curve $-1 0 -20.849690162059641 6.5608407938468813 1 0 0 I I #
edge $-1 $98 -6.5608407938468813 $146 6.5608407938468813 $95 $221 forward 7 unknown #
edge $-1 $99 -6.5608407938468813 $145 6.5608407938468813 $96 $222 forward 7 unknown #
point $-1 48.865016632587668 -20.849690162059641 6.5608407938468813 #
point $-1 48.865016632587668 20.849690162059641 6.5608407938468813 #
face $-1 $223 $224 $13 $-1 $225 reversed single #
loop $-1 $-1 $226 $101 #
plane-surface $-1 0 0 -6.5608407938468813 0 0 1 1 0 0 forward_v I I I I #
coedge $-1 $107 $227 $104 $167 forward $102 $-1 #
coedge $-1 $166 $104 $228 $229 reversed $59 $-1 #
coedge $-1 $104 $165 $105 $169 forward $59 $-1 #
edge $-1 $230 -13.62201460946207 $170 -11.346536322746211 $164 $231 forward 7 unknown #
coedge $-1 $106 $105 $174 $232 reversed $37 $-1 #
edge $-1 $233 -97.730033265175337 $170 -93.858758303023635 $166 $234 forward 7 unknown #
vertex $-1 $108 $235 #
straight-curve $-1 46.589538345871802 -1.4146573102262732 6.5608407938468787 0 1 0 I I #
vertex $-1 $232 $236 #
straight-curve $-1 -8.5792545259047301 0.69924644420689042 82.494172100042221 0.5877852410284794 0 -0.80901700255871778 I I #
coedge $-1 $228 $110 $168 $232 forward $176 $-1 #
coedge $-1 $110 $237 $112 $179 reversed $176 $-1 #
loop $-1 $-1 $228 $238 #
straight-curve $-1 48.865016632587668 0.69924644420689042 69.969221629267309 0 0 -1 I I #
coedge $-1 $239 $112 $240 $241 forward $102 $-1 #
edge $-1 $114 0.69924644420689042 $242 20.849690162059641 $175 $243 forward 7 unknown #
point $-1 46.589538345871809 0.69924644420689042 6.5608407938468787 #
point $-1 48.865016632587668 0.69924644420689042 6.5608407938468813 #
face $-1 $244 $245 $14 $-1 $246 forward single #
loop $-1 $-1 $247 $116 #
plane-surface $-1 70.486004046251196 -6.3578756851119831 139.93844325853462 0 1 0 0.80901700255871778 0 0.5877852410284794 forward_v I I I I #
loop $-1 $-1 $248 $66 #
coedge $-1 $187 $119 $249 $250 forward $67 $-1 #
coedge $-1 $119 $186 $251 $252 reversed $67 $-1 #
coedge $-1 $253 $254 $119 $189 forward $245 $-1 #
edge $-1 $255 11.346536322746211 $256 13.62201460946207 $188 $257 forward 7 unknown #
edge $-1 $258 1 $258 0 $120 $-1 forward 7 unknown #
vertex $-1 $121 $259 #
ellipse-curve $-1 46.458150121023174 -4.3415550767351618 4.0728021814065833 0.80901700255871778 0 0.5877852410284794 0.2938926205142397 0 -0.40450850127935889 1 I I #
point $-1 48.021170109743977 -4.3415550767351618 4.5903686595872415 #
face $-1 $260 $131 $15 $-1 $261 forward single #
loop $-1 $-1 $262 $124 #
plane-surface $-1 70.486004046251196 0.69924644420689042 139.93844325853462 0 -1 0 -0.80901700255871778 0 -0.5877852410284794 forward_v I I I I #
loop $-1 $-1 $263 $74 #
coedge $-1 $198 $198 $199 $264 forward $125 $-1 #
coedge $-1 $199 $199 $198 $264 reversed $127 $-1 #
coedge $-1 $200 $200 $128 $201 forward $205 $-1 #
edge $-1 $265 0 $265 6.2831853071796004 $200 $266 forward 7 unknown #
edge $-1 $267 1 $267 0 $129 $-1 forward 7 unknown #
vertex $-1 $130 $268 #
ellipse-curve $-1 46.458150121023174 -1.3170741641699273 4.0728021814065833 0.80901700255871778 0 0.5877852410284794 0.2938926205142397 0 -0.40450850127935889 1 I I #
loop $-1 $269 $200 $194 #
point $-1 48.021170109743977 -1.3170741641699273 4.5903686595872415 #
plane-surface $-1 48.865016632587668 0 0 -1 0 0 0 0 1 forward_v I I I I #
coedge $-1 $139 $137 $141 $212 reversed $83 $-1 #
edge $-1 $152 -6.5608407938468813 $214 6.5608407938468813 $151 $270 forward 7 unknown #
vertex $-1 $212 $271 #
straight-curve $-1 -48.865016632587668 -20.849690162059641 0 0 0 -1 I I #
edge $-1 $210 -20.849690162059641 $214 20.849690162059641 $208 $272 forward 7 unknown #
straight-curve $-1 0 -20.849690162059641 -6.5608407938468813 -1 0 0 I I #
vertex $-1 $144 $273 #
straight-curve $-1 0 20.849690162059641 -6.5608407938468813 1 0 0 I I #
point $-1 48.865016632587668 20.849690162059641 -6.5608407938468813 #
point $-1 48.865016632587668 -20.849690162059641 -6.5608407938468813 #
straight-curve $-1 -48.865016632587668 0 6.5608407938468813 0 -1 0 I I #
point $-1 -48.865016632587668 20.849690162059641 6.5608407938468813 #
point $-1 -48.865016632587668 -20.849690162059641 6.5608407938468813 #
straight-curve $-1 48.865016632587668 -20.849690162059641 0 0 0 -1 I I #
straight-curve $-1 48.865016632587668 20.849690162059641 0 0 0 -1 I I #
face $-1 $274 $275 $13 $-1 $276 reversed single #
loop $-1 $-1 $277 $161 #
plane-surface $-1 0 -20.849690162059641 0 0 1 0 0 0 1 forward_v I I I I #
coedge $-1 $278 $279 $280 $281 forward $162 $-1 #
coedge $-1 $164 $282 $283 $284 forward $102 $-1 #
coedge $-1 $283 $174 $165 $229 forward $176 $-1 #
edge $-1 $233 -66.540308101381015 $230 -63.408380835420431 $228 $285 forward 7 unknown #
vertex $-1 $229 $286 #
straight-curve $-1 35.243002023125598 -6.3578756851119831 6.5608407938468787 -1 0 0 I I #
edge $-1 $172 -2.1139037544331636 $233 4.9432183748857099 $174 $287 forward 7 unknown #
vertex $-1 $232 $288 #
straight-curve $-1 -8.5792545259047301 -6.3578756851119831 82.494172100042221 -0.5877852410284794 0 0.80901700255871778 I I #
point $-1 46.589538345871809 -6.3578756851119831 6.5608407938468787 #
point $-1 48.865016632587661 0.69924644420689042 3.4289135278862943 #
coedge $-1 $175 $280 $289 $290 reversed $176 $-1 #
face $-1 $-1 $176 $13 $-1 $291 reversed single #
coedge $-1 $282 $178 $292 $293 forward $102 $-1 #
coedge $-1 $289 $294 $178 $241 reversed $295 $-1 #
edge $-1 $242 -48.865016632587668 $296 48.865016632587668 $240 $297 forward 7 unknown #
vertex $-1 $179 $298 #
straight-curve $-1 48.865016632587668 0 6.5608407938468813 0 1 0 I I #
face $-1 $299 $300 $14 $-1 $301 reversed single #
loop $-1 $-1 $302 $182 #
plane-surface $-1 0 0 6.5608407938468813 0 0 1 1 0 0 forward_v I I I I #
coedge $-1 $303 $304 $302 $305 reversed $183 $-1 #
coedge $-1 $306 $249 $254 $307 reversed $185 $-1 #
coedge $-1 $248 $308 $186 $250 reversed $185 $-1 #
edge $-1 $255 93.858758303023635 $309 97.730033265175337 $186 $310 forward 7 unknown #
coedge $-1 $311 $312 $187 $252 forward $313 $-1 #
edge $-1 $256 63.408380835420431 $309 66.540308101381015 $251 $314 forward 7 unknown #
coedge $-1 $315 $188 $312 $316 forward $245 $-1 #
coedge $-1 $188 $302 $248 $307 forward $245 $-1 #
vertex $-1 $307 $317 #
vertex $-1 $316 $318 #
straight-curve $-1 35.243002023125598 0.69924644420689042 6.5608407938468787 1 0 0 I I #
vertex $-1 $190 $319 #
point $-1 46.752042741537416 -4.3415550767351618 3.6682936801272241 #
face $-1 $320 $321 $15 $-1 $322 forward single #
plane-surface $-1 -8.5792545259047301 -2.8293146204525463 82.494172100042221 0.80901700255871778 0 0.5877852410284794 0.5877852410284794 0 -0.80901700255871778 forward_v I I I I #
coedge $-1 $323 $324 $325 $326 reversed $195 $-1 #
coedge $-1 $263 $263 $-1 $327 forward $197 $-1 #
edge $-1 $328 0 $328 6.2831853071796004 $198 $329 forward 7 unknown #
vertex $-1 $201 $330 #
ellipse-curve $-1 47.727277489229735 -4.3415550767351618 4.9948771608665954 -0.80901700255871778 0 -0.5877852410284794 0.2938926205142397 0 -0.40450850127935889 1 I I #
vertex $-1 $202 $331 #
point $-1 46.752042741537416 -1.3170741641699273 3.6682936801272241 #
loop $-1 $-1 $332 $194 #
straight-curve $-1 -48.865016632587668 20.849690162059641 0 0 0 -1 I I #
point $-1 -48.865016632587668 -20.849690162059641 -6.5608407938468813 #
straight-curve $-1 -48.865016632587668 0 -6.5608407938468813 0 1 0 I I #
point $-1 -48.865016632587668 20.849690162059641 -6.5608407938468813 #
face $-1 $238 $295 $13 $-1 $333 reversed single #
loop $-1 $-1 $334 $223 #
plane-surface $-1 -48.865016632587668 0 0 1 0 0 0 0 -1 forward_v I I I I #
coedge $-1 $335 $336 $337 $338 forward $224 $-1 #
coedge $-1 $339 $226 $335 $340 forward $162 $-1 #
coedge $-1 $226 $339 $341 $342 forward $162 $-1 #
coedge $-1 $237 $343 $226 $281 reversed $176 $-1 #
edge $-1 $344 -20.849690162059641 $345 20.849690162059641 $280 $346 forward 7 unknown #
coedge $-1 $227 $239 $336 $347 forward $102 $-1 #
coedge $-1 $343 $228 $227 $284 reversed $176 $-1 #
edge $-1 $348 -20.849690162059641 $230 -6.3578756851119831 $283 $243 forward 7 unknown #
straight-curve $-1 48.865016632587668 -6.3578756851119831 69.969221629267309 0 0 1 I I #
point $-1 48.865016632587668 -6.3578756851119831 6.5608407938468813 #
straight-curve $-1 48.865016632587668 -1.4146573102262732 3.4289135278862872 0 -1 0 I I #
point $-1 48.865016632587661 -6.3578756851119831 3.4289135278862943 #
coedge $-1 $341 $240 $237 $290 forward $295 $-1 #
edge $-1 $242 -6.5608407938468813 $344 6.5608407938468813 $237 $349 forward 7 unknown #
plane-surface $-1 48.865016632587668 0 0 -1 0 0 0 0 1 forward_v I I I I #
coedge $-1 $334 $337 $239 $293 reversed $275 $-1 #
edge $-1 $296 -20.849690162059641 $350 20.849690162059641 $292 $351 forward 7 unknown #
coedge $-1 $240 $341 $334 $352 reversed $295 $-1 #
loop $-1 $-1 $289 $274 #
vertex $-1 $241 $353 #
straight-curve $-1 0 20.849690162059641 6.5608407938468813 -1 0 0 I I #
point $-1 48.865016632587668 20.849690162059641 6.5608407938468813 #
face $-1 $354 $355 $14 $-1 $356 reversed single #
loop $-1 $-1 $357 $244 #
plane-surface $-1 0 0 -6.5608407938468813 0 0 1 1 0 0 forward_v I I I I #
coedge $-1 $254 $358 $247 $305 forward $245 $-1 #
coedge $-1 $304 $247 $359 $360 reversed $183 $-1 #
coedge $-1 $247 $303 $306 $361 forward $183 $-1 #
edge $-1 $362 -13.62201460946207 $363 -11.346536322746211 $302 $364 forward 7 unknown #
coedge $-1 $308 $248 $304 $361 reversed $185 $-1 #
edge $-1 $363 -4.9432183748857099 $255 2.1139037544331636 $254 $365 forward 7 unknown #
coedge $-1 $249 $306 $311 $366 reversed $185 $-1 #
vertex $-1 $366 $367 #
straight-curve $-1 -8.5792545259047301 0.69924644420689042 82.494172100042221 0.5877852410284794 0 -0.80901700255871778 I I #
coedge $-1 $359 $251 $308 $366 forward $313 $-1 #
coedge $-1 $251 $368 $253 $316 reversed $313 $-1 #
loop $-1 $-1 $359 $369 #
straight-curve $-1 48.865016632587668 0.69924644420689042 69.969221629267309 0 0 -1 I I #
coedge $-1 $370 $253 $371 $372 forward $245 $-1 #
edge $-1 $256 0.69924644420689042 $373 20.849690162059641 $312 $374 forward 7 unknown #
point $-1 46.589538345871809 0.69924644420689042 6.5608407938468787 #
point $-1 48.865016632587668 0.69924644420689042 6.5608407938468813 #
point $-1 46.053641619743821 -4.3415550767351618 3.7789095608923433 #
face $-1 $375 $376 $15 $-1 $377 forward single #
loop $-1 $-1 $378 $260 #
plane-surface $-1 70.486004046251196 -6.3578756851119831 139.93844325853462 0 1 0 0.80901700255871778 0 0.5877852410284794 forward_v I I I I #
coedge $-1 $324 $262 $379 $380 forward $195 $-1 #
coedge $-1 $262 $323 $381 $382 reversed $195 $-1 #
coedge $-1 $383 $384 $262 $326 forward $376 $-1 #
edge $-1 $385 11.346536322746211 $386 13.62201460946207 $325 $387 forward 7 unknown #
edge $-1 $388 1 $388 0 $263 $-1 forward 7 unknown #
vertex $-1 $264 $389 #
ellipse-curve $-1 46.458150121023174 -4.3415550767351618 4.0728021814065833 0.80901700255871778 0 0.5877852410284794 0.2938926205142397 0 -0.40450850127935889 1 I I #
point $-1 48.021170109743977 -4.3415550767351618 4.5903686595872415 #
point $-1 46.053641619743821 -1.3170741641699273 3.7789095608923433 #
coedge $-1 $390 $379 $384 $391 reversed $269 $-1 #
plane-surface $-1 0 20.849690162059641 0 0 -1 0 0 0 -1 forward_v I I I I #
coedge $-1 $392 $292 $294 $352 forward $275 $-1 #
coedge $-1 $393 $277 $278 $340 reversed $224 $-1 #
coedge $-1 $277 $393 $282 $347 reversed $224 $-1 #
coedge $-1 $292 $392 $277 $338 reversed $275 $-1 #
edge $-1 $350 -6.5608407938468813 $394 6.5608407938468813 $337 $395 forward 7 unknown #
coedge $-1 $279 $278 $392 $396 forward $162 $-1 #
edge $-1 $345 -48.865016632587668 $394 48.865016632587668 $335 $397 forward 7 unknown #
coedge $-1 $294 $289 $279 $342 reversed $295 $-1 #
edge $-1 $398 -48.865016632587668 $344 48.865016632587668 $341 $399 forward 7 unknown #
coedge $-1 $280 $283 $393 $400 forward $176 $-1 #
vertex $-1 $281 $401 #
vertex $-1 $400 $402 #
straight-curve $-1 48.865016632587668 0 -6.5608407938468813 0 -1 0 I I #
edge $-1 $350 -48.865016632587668 $348 48.865016632587668 $336 $403 forward 7 unknown #
vertex $-1 $284 $404 #
straight-curve $-1 48.865016632587668 20.849690162059641 0 0 0 -1 I I #
vertex $-1 $293 $405 #
straight-curve $-1 -48.865016632587668 0 6.5608407938468813 0 -1 0 I I #
edge $-1 $296 -6.5608407938468813 $398 6.5608407938468813 $294 $406 forward 7 unknown #
point $-1 -48.865016632587668 20.849690162059641 6.5608407938468813 #
face $-1 $407 $408 $14 $-1 $409 reversed single #
loop $-1 $-1 $410 $299 #
plane-surface $-1 0 -20.849690162059641 0 0 1 0 0 0 1 forward_v I I I I #
coedge $-1 $411 $412 $413 $414 forward $300 $-1 #
coedge $-1 $302 $415 $416 $417 forward $245 $-1 #
coedge $-1 $416 $311 $303 $360 forward $313 $-1 #
edge $-1 $418 -66.540308101381015 $362 -63.408380835420431 $359 $419 forward 7 unknown #
edge $-1 $418 -97.730033265175337 $363 -93.858758303023635 $304 $420 forward 7 unknown #
vertex $-1 $360 $421 #
vertex $-1 $307 $422 #
straight-curve $-1 35.243002023125598 -6.3578756851119831 6.5608407938468787 -1 0 0 I I #
straight-curve $-1 46.589538345871802 -1.4146573102262732 6.5608407938468787 0 1 0 I I #
edge $-1 $309 -2.1139037544331636 $418 4.9432183748857099 $311 $423 forward 7 unknown #
point $-1 48.865016632587661 0.69924644420689042 3.4289135278862943 #
coedge $-1 $312 $413 $424 $425 reversed $313 $-1 #
face $-1 $-1 $313 $14 $-1 $426 reversed single #
coedge $-1 $415 $315 $427 $428 forward $245 $-1 #
coedge $-1 $424 $429 $315 $372 reversed $430 $-1 #
edge $-1 $373 -48.865016632587668 $431 48.865016632587668 $371 $432 forward 7 unknown #
vertex $-1 $316 $433 #
straight-curve $-1 48.865016632587668 0 6.5608407938468813 0 1 0 I I #
face $-1 $434 $435 $15 $-1 $436 reversed single #
loop $-1 $-1 $437 $320 #
plane-surface $-1 0 0 6.5608407938468813 0 0 1 1 0 0 forward_v I I I I #
coedge $-1 $438 $439 $437 $440 reversed $321 $-1 #
coedge $-1 $332 $441 $323 $380 reversed $269 $-1 #
edge $-1 $385 93.858758303023635 $442 97.730033265175337 $323 $443 forward 7 unknown #
coedge $-1 $444 $445 $324 $382 forward $446 $-1 #
edge $-1 $386 63.408380835420431 $442 66.540308101381015 $381 $447 forward 7 unknown #
coedge $-1 $448 $325 $445 $449 forward $376 $-1 #
coedge $-1 $325 $437 $332 $391 forward $376 $-1 #
vertex $-1 $391 $450 #
vertex $-1 $449 $451 #
straight-curve $-1 35.243002023125598 0.69924644420689042 6.5608407938468787 1 0 0 I I #
vertex $-1 $327 $452 #
point $-1 46.752042741537416 -4.3415550767351618 3.6682936801272241 #
coedge $-1 $441 $332 $439 $453 reversed $269 $-1 #
edge $-1 $454 -4.9432183748857099 $385 2.1139037544331636 $384 $455 forward 7 unknown #
coedge $-1 $337 $334 $339 $396 reversed $275 $-1 #
coedge $-1 $336 $335 $343 $400 reversed $224 $-1 #
vertex $-1 $396 $456 #
straight-curve $-1 -48.865016632587668 -20.849690162059641 0 0 0 -1 I I #
edge $-1 $394 -20.849690162059641 $398 20.849690162059641 $392 $457 forward 7 unknown #
straight-curve $-1 0 -20.849690162059641 -6.5608407938468813 -1 0 0 I I #
vertex $-1 $342 $458 #
straight-curve $-1 0 20.849690162059641 -6.5608407938468813 1 0 0 I I #
edge $-1 $348 -6.5608407938468813 $345 6.5608407938468813 $343 $459 forward 7 unknown #
point $-1 48.865016632587668 20.849690162059641 -6.5608407938468813 #
point $-1 48.865016632587668 -20.849690162059641 -6.5608407938468813 #
straight-curve $-1 0 -20.849690162059641 6.5608407938468813 1 0 0 I I #
point $-1 48.865016632587668 -20.849690162059641 6.5608407938468813 #
point $-1 -48.865016632587668 -20.849690162059641 6.5608407938468813 #
straight-curve $-1 -48.865016632587668 20.849690162059641 0 0 0 -1 I I #
face $-1 $369 $430 $14 $-1 $460 reversed single #
loop $-1 $-1 $461 $354 #
plane-surface $-1 -48.865016632587668 0 0 1 0 0 0 0 -1 forward_v I I I I #
coedge $-1 $462 $463 $464 $465 forward $355 $-1 #
coedge $-1 $466 $357 $462 $467 forward $300 $-1 #
coedge $-1 $357 $466 $468 $469 forward $300 $-1 #
coedge $-1 $368 $470 $357 $414 reversed $313 $-1 #
edge $-1 $471 -20.849690162059641 $472 20.849690162059641 $413 $473 forward 7 unknown #
coedge $-1 $358 $370 $463 $474 forward $245 $-1 #
coedge $-1 $470 $359 $358 $417 reversed $313 $-1 #
edge $-1 $475 -20.849690162059641 $362 -6.3578756851119831 $416 $374 forward 7 unknown #
vertex $-1 $366 $476 #
straight-curve $-1 48.865016632587668 -6.3578756851119831 69.969221629267309 0 0 1 I I #
straight-curve $-1 -8.5792545259047301 -6.3578756851119831 82.494172100042221 -0.5877852410284794 0 0.80901700255871778 I I #
point $-1 48.865016632587668 -6.3578756851119831 6.5608407938468813 #
point $-1 46.589538345871809 -6.3578756851119831 6.5608407938468787 #
straight-curve $-1 48.865016632587668 -1.4146573102262732 3.4289135278862872 0 -1 0 I I #
coedge $-1 $468 $371 $368 $425 forward $430 $-1 #
edge $-1 $373 -6.5608407938468813 $471 6.5608407938468813 $368 $477 forward 7 unknown #
plane-surface $-1 48.865016632587668 0 0 -1 0 0 0 0 1 forward_v I I I I #
coedge $-1 $461 $464 $370 $428 reversed $408 $-1 #
edge $-1 $431 -20.849690162059641 $478 20.849690162059641 $427 $479 forward 7 unknown #
coedge $-1 $371 $468 $461 $480 reversed $430 $-1 #
loop $-1 $-1 $424 $407 #
vertex $-1 $372 $481 #
straight-curve $-1 0 20.849690162059641 6.5608407938468813 -1 0 0 I I #
point $-1 48.865016632587668 20.849690162059641 6.5608407938468813 #
face $-1 $482 $483 $15 $-1 $484 reversed single #
loop $-1 $-1 $485 $375 #
plane-surface $-1 0 0 -6.5608407938468813 0 0 1 1 0 0 forward_v I I I I #
coedge $-1 $384 $486 $378 $440 forward $376 $-1 #
coedge $-1 $439 $378 $487 $488 reversed $321 $-1 #
coedge $-1 $378 $438 $390 $453 forward $321 $-1 #
edge $-1 $489 -13.62201460946207 $454 -11.346536322746211 $437 $490 forward 7 unknown #
coedge $-1 $379 $390 $444 $491 reversed $269 $-1 #
vertex $-1 $491 $492 #
straight-curve $-1 -8.5792545259047301 0.69924644420689042 82.494172100042221 0.5877852410284794 0 -0.80901700255871778 I I #
coedge $-1 $487 $381 $441 $491 forward $446 $-1 #
coedge $-1 $381 $493 $383 $449 reversed $446 $-1 #
loop $-1 $-1 $487 $494 #
straight-curve $-1 48.865016632587668 0.69924644420689042 69.969221629267309 0 0 -1 I I #
coedge $-1 $495 $383 $496 $497 forward $376 $-1 #
edge $-1 $386 0.69924644420689042 $498 20.849690162059641 $445 $499 forward 7 unknown #
point $-1 46.589538345871809 0.69924644420689042 6.5608407938468787 #
point $-1 48.865016632587668 0.69924644420689042 6.5608407938468813 #
point $-1 46.053641619743821 -4.3415550767351618 3.7789095608923433 #
edge $-1 $500 -97.730033265175337 $454 -93.858758303023635 $439 $501 forward 7 unknown #
vertex $-1 $391 $502 #
straight-curve $-1 46.589538345871802 -1.4146573102262732 6.5608407938468787 0 1 0 I I #
point $-1 -48.865016632587668 -20.849690162059641 -6.5608407938468813 #
straight-curve $-1 -48.865016632587668 0 -6.5608407938468813 0 1 0 I I #
point $-1 -48.865016632587668 20.849690162059641 -6.5608407938468813 #
straight-curve $-1 48.865016632587668 -20.849690162059641 0 0 0 -1 I I #
plane-surface $-1 0 20.849690162059641 0 0 -1 0 0 0 -1 forward_v I I I I #
coedge $-1 $503 $427 $429 $480 forward $408 $-1 #
coedge $-1 $504 $410 $411 $467 reversed $355 $-1 #
coedge $-1 $410 $504 $415 $474 reversed $355 $-1 #
coedge $-1 $427 $503 $410 $465 reversed $408 $-1 #
edge $-1 $478 -6.5608407938468813 $505 6.5608407938468813 $464 $506 forward 7 unknown #
coedge $-1 $412 $411 $503 $507 forward $300 $-1 #
edge $-1 $472 -48.865016632587668 $505 48.865016632587668 $462 $508 forward 7 unknown #
coedge $-1 $429 $424 $412 $469 reversed $430 $-1 #
edge $-1 $509 -48.865016632587668 $471 48.865016632587668 $468 $510 forward 7 unknown #
coedge $-1 $413 $416 $504 $511 forward $313 $-1 #
vertex $-1 $414 $512 #
vertex $-1 $511 $513 #
straight-curve $-1 48.865016632587668 0 -6.5608407938468813 0 -1 0 I I #
edge $-1 $478 -48.865016632587668 $475 48.865016632587668 $463 $514 forward 7 unknown #
vertex $-1 $417 $515 #
point $-1 48.865016632587661 -6.3578756851119831 3.4289135278862943 #
straight-curve $-1 48.865016632587668 20.849690162059641 0 0 0 -1 I I #
vertex $-1 $428 $516 #
straight-curve $-1 -48.865016632587668 0 6.5608407938468813 0 -1 0 I I #
edge $-1 $431 -6.5608407938468813 $509 6.5608407938468813 $429 $517 forward 7 unknown #
point $-1 -48.865016632587668 20.849690162059641 6.5608407938468813 #
face $-1 $518 $519 $15 $-1 $520 reversed single #
loop $-1 $-1 $521 $434 #
plane-surface $-1 0 -20.849690162059641 0 0 1 0 0 0 1 forward_v I I I I #
coedge $-1 $522 $523 $524 $525 forward $435 $-1 #
coedge $-1 $437 $526 $527 $528 forward $376 $-1 #
coedge $-1 $527 $444 $438 $488 forward $446 $-1 #
edge $-1 $500 -66.540308101381015 $489 -63.408380835420431 $487 $529 forward 7 unknown #
vertex $-1 $488 $530 #
straight-curve $-1 35.243002023125598 -6.3578756851119831 6.5608407938468787 -1 0 0 I I #
edge $-1 $442 -2.1139037544331636 $500 4.9432183748857099 $444 $531 forward 7 unknown #
point $-1 48.865016632587661 0.69924644420689042 3.4289135278862943 #
coedge $-1 $445 $524 $532 $533 reversed $446 $-1 #
face $-1 $-1 $446 $15 $-1 $534 reversed single #
coedge $-1 $526 $448 $535 $536 forward $376 $-1 #
coedge $-1 $532 $537 $448 $497 reversed $538 $-1 #
edge $-1 $498 -48.865016632587668 $539 48.865016632587668 $496 $540 forward 7 unknown #
vertex $-1 $449 $541 #
straight-curve $-1 48.865016632587668 0 6.5608407938468813 0 1 0 I I #
vertex $-1 $491 $542 #
straight-curve $-1 -8.5792545259047301 -6.3578756851119831 82.494172100042221 -0.5877852410284794 0 0.80901700255871778 I I #
point $-1 46.589538345871809 -6.3578756851119831 6.5608407938468787 #
coedge $-1 $464 $461 $466 $507 reversed $408 $-1 #
coedge $-1 $463 $462 $470 $511 reversed $355 $-1 #
vertex $-1 $507 $543 #
straight-curve $-1 -48.865016632587668 -20.849690162059641 0 0 0 -1 I I #
edge $-1 $505 -20.849690162059641 $509 20.849690162059641 $503 $544 forward 7 unknown #
straight-curve $-1 0 -20.849690162059641 -6.5608407938468813 -1 0 0 I I #
vertex $-1 $469 $545 #
straight-curve $-1 0 20.849690162059641 -6.5608407938468813 1 0 0 I I #
edge $-1 $475 -6.5608407938468813 $472 6.5608407938468813 $470 $546 forward 7 unknown #
point $-1 48.865016632587668 20.849690162059641 -6.5608407938468813 #
point $-1 48.865016632587668 -20.849690162059641 -6.5608407938468813 #
straight-curve $-1 0 -20.849690162059641 6.5608407938468813 1 0 0 I I #
point $-1 48.865016632587668 -20.849690162059641 6.5608407938468813 #
point $-1 -48.865016632587668 -20.849690162059641 6.5608407938468813 #
straight-curve $-1 -48.865016632587668 20.849690162059641 0 0 0 -1 I I #
face $-1 $494 $538 $15 $-1 $547 reversed single #
loop $-1 $-1 $548 $482 #
plane-surface $-1 -48.865016632587668 0 0 1 0 0 0 0 -1 forward_v I I I I #
coedge $-1 $549 $550 $551 $552 forward $483 $-1 #
coedge $-1 $553 $485 $549 $554 forward $435 $-1 #
coedge $-1 $485 $553 $555 $556 forward $435 $-1 #
coedge $-1 $493 $557 $485 $525 reversed $446 $-1 #
edge $-1 $558 -20.849690162059641 $559 20.849690162059641 $524 $560 forward 7 unknown #
coedge $-1 $486 $495 $550 $561 forward $376 $-1 #
coedge $-1 $557 $487 $486 $528 reversed $446 $-1 #
edge $-1 $562 -20.849690162059641 $489 -6.3578756851119831 $527 $499 forward 7 unknown #
straight-curve $-1 48.865016632587668 -6.3578756851119831 69.969221629267309 0 0 1 I I #
point $-1 48.865016632587668 -6.3578756851119831 6.5608407938468813 #
straight-curve $-1 48.865016632587668 -1.4146573102262732 3.4289135278862872 0 -1 0 I I #
coedge $-1 $555 $496 $493 $533 forward $538 $-1 #
edge $-1 $498 -6.5608407938468813 $558 6.5608407938468813 $493 $563 forward 7 unknown #
plane-surface $-1 48.865016632587668 0 0 -1 0 0 0 0 1 forward_v I I I I #
coedge $-1 $548 $551 $495 $536 reversed $519 $-1 #
edge $-1 $539 -20.849690162059641 $564 20.849690162059641 $535 $565 forward 7 unknown #
coedge $-1 $496 $555 $548 $566 reversed $538 $-1 #
loop $-1 $-1 $532 $518 #
vertex $-1 $497 $567 #
straight-curve $-1 0 20.849690162059641 6.5608407938468813 -1 0 0 I I #
point $-1 48.865016632587668 20.849690162059641 6.5608407938468813 #
point $-1 48.865016632587661 -6.3578756851119831 3.4289135278862943 #
point $-1 -48.865016632587668 -20.849690162059641 -6.5608407938468813 #
straight-curve $-1 -48.865016632587668 0 -6.5608407938468813 0 1 0 I I #
point $-1 -48.865016632587668 20.849690162059641 -6.5608407938468813 #
straight-curve $-1 48.865016632587668 -20.849690162059641 0 0 0 -1 I I #
plane-surface $-1 0 20.849690162059641 0 0 -1 0 0 0 -1 forward_v I I I I #
coedge $-1 $568 $535 $537 $566 forward $519 $-1 #
coedge $-1 $569 $521 $522 $554 reversed $483 $-1 #
coedge $-1 $521 $569 $526 $561 reversed $483 $-1 #
coedge $-1 $535 $568 $521 $552 reversed $519 $-1 #
edge $-1 $564 -6.5608407938468813 $570 6.5608407938468813 $551 $571 forward 7 unknown #
coedge $-1 $523 $522 $568 $572 forward $435 $-1 #
edge $-1 $559 -48.865016632587668 $570 48.865016632587668 $549 $573 forward 7 unknown #
coedge $-1 $537 $532 $523 $556 reversed $538 $-1 #
edge $-1 $574 -48.865016632587668 $558 48.865016632587668 $555 $575 forward 7 unknown #
coedge $-1 $524 $527 $569 $576 forward $446 $-1 #
vertex $-1 $525 $577 #
vertex $-1 $576 $578 #
straight-curve $-1 48.865016632587668 0 -6.5608407938468813 0 -1 0 I I #
edge $-1 $564 -48.865016632587668 $562 48.865016632587668 $550 $579 forward 7 unknown #
vertex $-1 $528 $580 #
straight-curve $-1 48.865016632587668 20.849690162059641 0 0 0 -1 I I #
vertex $-1 $536 $581 #
straight-curve $-1 -48.865016632587668 0 6.5608407938468813 0 -1 0 I I #
edge $-1 $539 -6.5608407938468813 $574 6.5608407938468813 $537 $582 forward 7 unknown #
point $-1 -48.865016632587668 20.849690162059641 6.5608407938468813 #
coedge $-1 $551 $548 $553 $572 reversed $519 $-1 #
coedge $-1 $550 $549 $557 $576 reversed $483 $-1 #
vertex $-1 $572 $583 #
straight-curve $-1 -48.865016632587668 -20.849690162059641 0 0 0 -1 I I #
edge $-1 $570 -20.849690162059641 $574 20.849690162059641 $568 $584 forward 7 unknown #
straight-curve $-1 0 -20.849690162059641 -6.5608407938468813 -1 0 0 I I #
vertex $-1 $556 $585 #
straight-curve $-1 0 20.849690162059641 -6.5608407938468813 1 0 0 I I #
edge $-1 $562 -6.5608407938468813 $559 6.5608407938468813 $557 $586 forward 7 unknown #
point $-1 48.865016632587668 20.849690162059641 -6.5608407938468813 #
point $-1 48.865016632587668 -20.849690162059641 -6.5608407938468813 #
straight-curve $-1 0 -20.849690162059641 6.5608407938468813 1 0 0 I I #
point $-1 48.865016632587668 -20.849690162059641 6.5608407938468813 #
point $-1 -48.865016632587668 -20.849690162059641 6.5608407938468813 #
straight-curve $-1 -48.865016632587668 20.849690162059641 0 0 0 -1 I I #
point $-1 -48.865016632587668 -20.849690162059641 -6.5608407938468813 #
straight-curve $-1 -48.865016632587668 0 -6.5608407938468813 0 1 0 I I #
point $-1 -48.865016632587668 20.849690162059641 -6.5608407938468813 #
straight-curve $-1 48.865016632587668 -20.849690162059641 0 0 0 -1 I I #
End-of-ACIS-data 