500 0 9 0           
7 Unknown 11 ACIS 5.0 NT 24 Thu Mar 25 20:19:37 1999 
-1 9.9999999999999995e-007 1e-010 
body $-1 $9 $-1 $10 #
body $-1 $11 $-1 $12 #
body $-1 $13 $-1 $14 #
body $-1 $15 $-1 $16 #
body $-1 $17 $-1 $18 #
body $-1 $19 $-1 $20 #
body $-1 $21 $-1 $22 #
body $-1 $23 $-1 $24 #
body $-1 $25 $-1 $26 #
lump $-1 $-1 $27 $0 #
transform $-1 1 0 0 0 1 0 0 0 1 47.578356273079621 22.423843244618766 5.6800408621581395 1 rotate no_reflect no_shear #
lump $-1 $-1 $28 $1 #
transform $-1 1 0 0 0 1 0 0 0 1 47.578356273079621 22.423843244618766 5.6800408621581395 1 rotate no_reflect no_shear #
lump $-1 $-1 $29 $2 #
transform $-1 1 0 0 0 1 0 0 0 1 47.578356273079621 22.423843244618766 5.6800408621581395 1 rotate no_reflect no_shear #
lump $-1 $-1 $30 $3 #
transform $-1 1 0 0 0 1 0 0 0 1 47.578356273079621 22.423843244618766 5.6800408621581395 1 rotate no_reflect no_shear #
lump $-1 $-1 $31 $4 #
transform $-1 1 0 0 0 1 0 0 0 1 47.578356273079621 22.423843244618766 5.6800408621581395 1 rotate no_reflect no_shear #
lump $-1 $-1 $32 $5 #
transform $-1 1 0 0 0 1 0 0 0 1 47.578356273079621 22.423843244618766 5.6800408621581395 1 rotate no_reflect no_shear #
lump $-1 $-1 $33 $6 #
transform $-1 1 0 0 0 1 0 0 0 1 47.578356273079621 22.423843244618766 5.6800408621581395 1 rotate no_reflect no_shear #
lump $-1 $-1 $34 $7 #
transform $-1 1 0 0 0 1 0 0 0 1 47.578356273079621 22.423843244618766 5.6800408621581395 1 rotate no_reflect no_shear #
lump $-1 $-1 $35 $8 #
transform $-1 1 0 0 0 1 0 0 0 1 47.578356273079621 22.423843244618766 5.6800408621581395 1 rotate no_reflect no_shear #
shell $-1 $-1 $-1 $36 $-1 $9 #
shell $-1 $-1 $-1 $37 $-1 $11 #
shell $-1 $-1 $-1 $38 $-1 $13 #
shell $-1 $-1 $-1 $39 $-1 $15 #
shell $-1 $-1 $-1 $40 $-1 $17 #
shell $-1 $-1 $-1 $41 $-1 $19 #
shell $-1 $-1 $-1 $42 $-1 $21 #
shell $-1 $-1 $-1 $43 $-1 $23 #
shell $-1 $-1 $-1 $44 $-1 $25 #
face $-1 $45 $46 $27 $-1 $47 forward single #
face $-1 $48 $49 $28 $-1 $50 forward single #
face $-1 $51 $52 $29 $-1 $53 forward single #
face $-1 $54 $55 $30 $-1 $56 reversed single #
face $-1 $57 $58 $31 $-1 $59 forward single #
face $-1 $60 $61 $32 $-1 $62 forward single #
face $-1 $63 $64 $33 $-1 $65 reversed single #
face $-1 $66 $67 $34 $-1 $68 forward single #
face $-1 $69 $70 $35 $-1 $71 forward single #
face $-1 $72 $73 $27 $-1 $74 reversed single #
loop $-1 $-1 $75 $36 #
plane-surface $-1 0 0 5.6800408621581395 0 0 1 1 0 0 forward_v I I I I #
face $-1 $76 $77 $28 $-1 $78 reversed single #
loop $-1 $-1 $79 $37 #
plane-surface $-1 0 -22.423843244618766 0 0 1 0 0 0 1 forward_v I I I I #
face $-1 $80 $81 $29 $-1 $82 reversed single #
loop $-1 $-1 $83 $38 #
plane-surface $-1 0 22.423843244618766 0 0 -1 0 0 0 -1 forward_v I I I I #
face $-1 $84 $85 $30 $-1 $86 reversed single #
loop $-1 $-1 $87 $39 #
plane-surface $-1 82.40813241648722 -9.8515168710352512 130.32289191596584 0 -1 0 -0.86602541151947299 0 -0.49999998660252726 forward_v I I I I #
face $-1 $88 $89 $31 $-1 $90 forward single #
loop $-1 $91 $92 $40 #
cone-surface $-1 45.43765544715616 -14.610235676047044 2.6628949492291207 -0.86602541151947299 0 -0.49999998660252726 0.24999999330126363 0 -0.43301270575973649 1 I I 0 1 0.5 forward I I I I #
face $-1 $93 $94 $32 $-1 $95 forward single #
loop $-1 $96 $97 $41 #
cone-surface $-1 45.43765544715616 -11.755004393039968 2.6628949492291207 -0.86602541151947299 0 -0.49999998660252726 0.24999999330126363 0 -0.43301270575973649 1 I I 0 1 0.5 forward I I I I #
face $-1 $98 $99 $33 $-1 $100 reversed single #
loop $-1 $-1 $101 $42 #
plane-surface $-1 -123.57388671436817 -8.2503027305957861 58.236941217279615 0 1 0 -0.79863551827123203 0 0.60181501223851219 forward_v I I I I #
face $-1 $102 $103 $34 $-1 $104 forward single #
loop $-1 $105 $106 $43 #
cone-surface $-1 -44.352765617170242 -5.6107956403066623 2.2316909353929324 0.79863551827123203 0 -0.60181501223851219 0.60181501223851219 0 0.79863551827123203 1 I I 0 1 1 forward I I I I #
face $-1 $107 $108 $35 $-1 $109 forward single #
loop $-1 $110 $111 $44 #
cone-surface $-1 -44.352765617170242 -1.6515350048729722 2.2316909353929324 0.79863551827123203 0 -0.60181501223851219 0.60181501223851219 0 0.79863551827123203 1 I I 0 1 1 forward I I I I #
face $-1 $112 $113 $27 $-1 $114 reversed single #
loop $-1 $-1 $115 $45 #
plane-surface $-1 0 0 -5.6800408621581395 0 0 1 1 0 0 forward_v I I I I #
coedge $-1 $116 $117 $118 $119 forward $46 $-1 #
face $-1 $120 $121 $28 $-1 $122 reversed single #
loop $-1 $-1 $123 $48 #
plane-surface $-1 0 0 -5.6800408621581395 0 0 1 1 0 0 forward_v I I I I #
coedge $-1 $124 $125 $126 $127 forward $49 $-1 #
face $-1 $128 $129 $29 $-1 $130 forward single #
loop $-1 $-1 $131 $51 #
plane-surface $-1 -47.578356273079621 0 0 1 0 0 0 0 -1 forward_v I I I I #
coedge $-1 $132 $133 $134 $135 forward $52 $-1 #
face $-1 $136 $137 $30 $-1 $138 reversed single #
loop $-1 $-1 $139 $54 #
plane-surface $-1 1.2748594713229977e-006 -13.182620034543506 82.744536917745677 0.86602541151947299 0 0.49999998660252726 0.49999998660252726 0 -0.86602541151947299 forward_v I I I I #
coedge $-1 $140 $141 $142 $143 reversed $55 $-1 #
face $-1 $-1 $144 $31 $-1 $145 forward single #
loop $-1 $146 $147 $57 #
cone-surface $-1 44.623022790930108 -14.610235676047044 2.1925665826695822 -0.86602541151947299 0 -0.49999998660252726 0.12499999665063181 0 -0.21650635287986825 1 I I -0.70710678118654746 0.70710678118654746 0.25 forward I I I I #
loop $-1 $-1 $148 $40 #
coedge $-1 $92 $92 $149 $150 reversed $58 $-1 #
face $-1 $-1 $151 $32 $-1 $152 forward single #
loop $-1 $153 $154 $60 #
cone-surface $-1 44.623022790930108 -11.755004393039968 2.1925665826695822 -0.86602541151947299 0 -0.49999998660252726 0.12499999665063181 0 -0.21650635287986825 1 I I -0.70710678118654746 0.70710678118654746 0.25 forward I I I I #
loop $-1 $-1 $155 $41 #
coedge $-1 $97 $97 $156 $157 reversed $61 $-1 #
face $-1 $158 $159 $33 $-1 $160 reversed single #
loop $-1 $-1 $161 $63 #
plane-surface $-1 -47.578356273079635 -3.6311653225898155 0.97020309173620234 -0.79863551827123203 0 0.60181501223851219 0.60181501223851219 0 0.79863551827123203 forward_v I I I I #
coedge $-1 $162 $163 $164 $165 reversed $64 $-1 #
face $-1 $-1 $166 $34 $-1 $167 forward single #
loop $-1 $168 $169 $66 #
cone-surface $-1 -42.502415815285531 -5.6107956403066623 0.83735238771944243 0.79863551827123203 0 -0.60181501223851219 0.3009075061192561 0 0.39931775913561601 1 I I -0.70710678118654768 0.70710678118654735 0.5 forward I I I I #
loop $-1 $-1 $170 $43 #
coedge $-1 $106 $106 $171 $172 reversed $67 $-1 #
face $-1 $-1 $173 $35 $-1 $174 forward single #
loop $-1 $175 $176 $69 #
cone-surface $-1 -42.502415815285531 -1.6515350048729722 0.83735238771944243 0.79863551827123203 0 -0.60181501223851219 0.3009075061192561 0 0.39931775913561601 1 I I -0.70710678118654768 0.70710678118654735 0.5 forward I I I I #
loop $-1 $-1 $177 $44 #
coedge $-1 $111 $111 $178 $179 reversed $70 $-1 #
face $-1 $180 $181 $27 $-1 $182 reversed single #
loop $-1 $-1 $183 $72 #
plane-surface $-1 0 -22.423843244618766 0 0 1 0 0 0 1 forward_v I I I I #
coedge $-1 $184 $185 $186 $187 forward $73 $-1 #
coedge $-1 $188 $75 $189 $190 forward $46 $-1 #
coedge $-1 $75 $188 $191 $192 forward $46 $-1 #
coedge $-1 $193 $194 $75 $119 reversed $195 $-1 #
edge $-1 $196 -22.423843244618766 $197 22.423843244618766 $118 $198 forward 7 unknown #
face $-1 $199 $200 $28 $-1 $201 forward single #
loop $-1 $-1 $202 $76 #
plane-surface $-1 47.578356273079621 0 0 -1 0 0 0 0 1 forward_v I I I I #
coedge $-1 $203 $204 $205 $206 forward $77 $-1 #
coedge $-1 $205 $79 $202 $207 reversed $49 $-1 #
coedge $-1 $79 $205 $208 $209 reversed $49 $-1 #
coedge $-1 $210 $211 $79 $127 reversed $200 $-1 #
edge $-1 $212 -47.578356273079621 $213 47.578356273079621 $126 $214 forward 7 unknown #
face $-1 $215 $216 $29 $-1 $217 reversed single #
loop $-1 $-1 $218 $80 #
plane-surface $-1 0 25.378903267902267 -2.6800408621581395 0 0 1 1 0 0 forward_v I I I I #
coedge $-1 $219 $220 $132 $221 forward $81 $-1 #
coedge $-1 $222 $83 $131 $221 reversed $52 $-1 #
coedge $-1 $83 $222 $223 $224 reversed $52 $-1 #
coedge $-1 $218 $225 $83 $135 reversed $129 $-1 #
edge $-1 $226 -47.578356273079621 $227 47.578356273079621 $134 $228 forward 7 unknown #
face $-1 $229 $230 $30 $-1 $231 forward single #
loop $-1 $-1 $232 $84 #
plane-surface $-1 82.40813241648722 -16.51372319805176 130.32289191596584 0 1 0 0.86602541151947299 0 0.49999998660252726 forward_v I I I I #
coedge $-1 $233 $234 $235 $236 reversed $85 $-1 #
coedge $-1 $141 $87 $237 $238 reversed $55 $-1 #
coedge $-1 $87 $140 $233 $239 reversed $55 $-1 #
coedge $-1 $235 $240 $87 $143 forward $230 $-1 #
edge $-1 $241 -6.3742900648360106 $242 -3.2891410196814377 $142 $243 forward 7 unknown #
loop $-1 $-1 $149 $88 #
plane-surface $-1 1.2748594713229977e-006 -13.182620034543506 82.744536917745677 0.86602541151947299 0 0.49999998660252726 0.49999998660252726 0 -0.86602541151947299 forward_v I I I I #
loop $-1 $-1 $244 $57 #
coedge $-1 $147 $147 $148 $245 reversed $89 $-1 #
coedge $-1 $148 $148 $147 $245 forward $91 $-1 #
coedge $-1 $149 $149 $92 $150 forward $144 $-1 #
edge $-1 $246 0 $246 6.2831853071796004 $149 $247 forward 7 unknown #
loop $-1 $-1 $156 $93 #
plane-surface $-1 1.2748594713229977e-006 -13.182620034543506 82.744536917745677 0.86602541151947299 0 0.49999998660252726 0.49999998660252726 0 -0.86602541151947299 forward_v I I I I #
loop $-1 $-1 $248 $60 #
coedge $-1 $154 $154 $155 $249 reversed $94 $-1 #
coedge $-1 $155 $155 $154 $249 forward $96 $-1 #
coedge $-1 $156 $156 $97 $157 forward $151 $-1 #
edge $-1 $250 0 $250 6.2831853071796004 $156 $251 forward 7 unknown #
face $-1 $252 $253 $33 $-1 $254 reversed single #
loop $-1 $-1 $255 $98 #
plane-surface $-1 -123.57388671436817 0.98797208541615511 58.236941217279615 0 -1 0 0.79863551827123203 0 -0.60181501223851219 forward_v I I I I #
coedge $-1 $256 $257 $258 $259 reversed $99 $-1 #
coedge $-1 $163 $101 $260 $261 reversed $64 $-1 #
coedge $-1 $101 $162 $256 $262 reversed $64 $-1 #
coedge $-1 $258 $263 $101 $165 forward $264 $-1 #
edge $-1 $265 14.208587084104465 $266 17.757704310425019 $164 $267 forward 7 unknown #
loop $-1 $-1 $171 $102 #
plane-surface $-1 -47.578356273079635 -3.6311653225898155 0.97020309173620234 -0.79863551827123203 0 0.60181501223851219 0.60181501223851219 0 0.79863551827123203 forward_v I I I I #
loop $-1 $-1 $268 $66 #
coedge $-1 $169 $169 $170 $269 reversed $103 $-1 #
coedge $-1 $170 $170 $169 $269 forward $105 $-1 #
coedge $-1 $171 $171 $106 $172 forward $166 $-1 #
edge $-1 $270 0 $270 6.2831853071796004 $171 $271 forward 7 unknown #
loop $-1 $-1 $178 $107 #
plane-surface $-1 -47.578356273079635 -3.6311653225898155 0.97020309173620234 -0.79863551827123203 0 0.60181501223851219 0.60181501223851219 0 0.79863551827123203 forward_v I I I I #
loop $-1 $-1 $272 $69 #
coedge $-1 $176 $176 $177 $273 reversed $108 $-1 #
coedge $-1 $177 $177 $176 $273 forward $110 $-1 #
coedge $-1 $178 $178 $111 $179 forward $173 $-1 #
edge $-1 $274 0 $274 6.2831853071796004 $178 $275 forward 7 unknown #
face $-1 $276 $277 $27 $-1 $278 reversed single #
loop $-1 $-1 $279 $112 #
plane-surface $-1 -47.578356273079621 0 0 1 0 0 0 0 -1 forward_v I I I I #
coedge $-1 $191 $280 $193 $281 reversed $113 $-1 #
coedge $-1 $282 $115 $280 $283 forward $73 $-1 #
coedge $-1 $115 $282 $284 $285 forward $73 $-1 #
coedge $-1 $194 $193 $115 $187 reversed $195 $-1 #
edge $-1 $286 -22.423843244618766 $287 22.423843244618766 $186 $288 forward 7 unknown #
coedge $-1 $117 $116 $289 $290 forward $46 $-1 #
coedge $-1 $291 $292 $116 $190 reversed $277 $-1 #
edge $-1 $197 -47.578356273079621 $293 47.578356273079621 $189 $294 forward 7 unknown #
coedge $-1 $295 $183 $117 $192 reversed $113 $-1 #
edge $-1 $296 -47.578356273079621 $196 47.578356273079621 $191 $297 forward 7 unknown #
coedge $-1 $186 $118 $183 $281 forward $195 $-1 #
coedge $-1 $118 $186 $291 $298 reversed $195 $-1 #
loop $-1 $-1 $193 $276 #
vertex $-1 $119 $299 #
vertex $-1 $119 $300 #
straight-curve $-1 47.578356273079621 0 5.6800408621581395 0 1 0 I I #
face $-1 $301 $302 $28 $-1 $303 reversed single #
loop $-1 $-1 $211 $120 #
plane-surface $-1 0 -25.378903267902267 -2.6800408621581395 0 0 1 1 0 0 forward_v I I I I #
coedge $-1 $304 $305 $124 $207 forward $121 $-1 #
coedge $-1 $306 $123 $305 $307 forward $77 $-1 #
coedge $-1 $123 $306 $308 $309 forward $77 $-1 #
coedge $-1 $125 $124 $123 $206 reversed $49 $-1 #
edge $-1 $310 -47.578356273079621 $311 47.578356273079621 $123 $312 forward 7 unknown #
edge $-1 $311 -5.6800408621581395 $213 -2.6800408621581395 $202 $313 forward 7 unknown #
coedge $-1 $308 $314 $125 $209 forward $315 $-1 #
edge $-1 $212 2.6800408621581395 $310 5.6800408621581395 $208 $316 forward 7 unknown #
coedge $-1 $317 $126 $314 $318 forward $200 $-1 #
coedge $-1 $126 $317 $304 $319 forward $200 $-1 #
vertex $-1 $209 $320 #
vertex $-1 $319 $321 #
straight-curve $-1 0 -22.423843244618766 -2.6800408621581395 1 0 0 I I #
face $-1 $322 $323 $29 $-1 $324 reversed single #
loop $-1 $-1 $325 $128 #
plane-surface $-1 0 28.333963291185768 -4.1800408621581395 0 -1 0 0 0 -1 forward_v I I I I #
coedge $-1 $326 $134 $327 $328 forward $129 $-1 #
coedge $-1 $329 $131 $225 $330 reversed $81 $-1 #
coedge $-1 $131 $329 $331 $332 reversed $81 $-1 #
edge $-1 $333 -5.6800408621581395 $227 -2.6800408621581395 $131 $334 forward 7 unknown #
coedge $-1 $133 $132 $335 $336 reversed $52 $-1 #
coedge $-1 $337 $327 $133 $224 forward $338 $-1 #
edge $-1 $226 2.6800408621581395 $339 5.6800408621581395 $223 $340 forward 7 unknown #
coedge $-1 $134 $326 $219 $330 forward $129 $-1 #
vertex $-1 $224 $341 #
vertex $-1 $330 $342 #
straight-curve $-1 0 22.423843244618766 -2.6800408621581395 -1 0 0 I I #
face $-1 $-1 $343 $30 $-1 $344 reversed single #
loop $-1 $-1 $142 $136 #
plane-surface $-1 0 0 5.6800408621581395 0 0 1 1 0 0 forward_v I I I I #
coedge $-1 $345 $346 $347 $348 reversed $137 $-1 #
coedge $-1 $349 $139 $141 $239 forward $85 $-1 #
coedge $-1 $139 $349 $345 $350 forward $85 $-1 #
coedge $-1 $347 $142 $139 $236 forward $230 $-1 #
edge $-1 $242 3.2602068537634983 $351 9.9224131807800084 $235 $352 forward 7 unknown #
coedge $-1 $353 $354 $140 $238 forward $343 $-1 #
edge $-1 $355 -64.825040181864992 $241 -59.481405095824783 $237 $356 forward 7 unknown #
edge $-1 $242 88.986414290517274 $355 95.156712546159227 $141 $357 forward 7 unknown #
coedge $-1 $142 $347 $353 $358 forward $230 $-1 #
vertex $-1 $238 $359 #
vertex $-1 $143 $360 #
straight-curve $-1 41.20406620824361 -9.8515168710352512 5.6800408621581369 -1 0 0 I I #
coedge $-1 $244 $244 $-1 $361 reversed $146 $-1 #
edge $-1 $362 0 $362 6.2831853071796004 $147 $363 forward 7 unknown #
vertex $-1 $150 $364 #
ellipse-curve $-1 46.035781750502345 -14.610235676047044 3.0082233191380281 0.86602541151947299 0 0.49999998660252726 0.24999999330126363 0 -0.43301270575973649 1 I I #
coedge $-1 $248 $248 $-1 $365 reversed $153 $-1 #
edge $-1 $366 0 $366 6.2831853071796004 $154 $367 forward 7 unknown #
vertex $-1 $157 $368 #
ellipse-curve $-1 46.035781750502345 -11.755004393039968 3.0082233191380281 0.86602541151947299 0 0.49999998660252726 0.24999999330126363 0 -0.43301270575973649 1 I I #
face $-1 $-1 $264 $33 $-1 $369 forward single #
loop $-1 $-1 $370 $158 #
plane-surface $-1 -47.578356273079621 0 0 1 0 0 0 0 -1 forward_v I I I I #
coedge $-1 $371 $372 $373 $374 reversed $159 $-1 #
coedge $-1 $375 $161 $163 $262 forward $99 $-1 #
coedge $-1 $161 $375 $371 $376 forward $99 $-1 #
coedge $-1 $373 $164 $161 $259 forward $264 $-1 #
edge $-1 $266 -6.4347200693008784 $377 2.8035547467110629 $258 $378 forward 7 unknown #
coedge $-1 $379 $380 $162 $261 forward $253 $-1 #
edge $-1 $381 -28.148267516903587 $265 -23.438429746481667 $260 $382 forward 7 unknown #
edge $-1 $266 -5.8973557557483751 $381 -2.3625585895707848e-014 $163 $383 forward 7 unknown #
coedge $-1 $164 $373 $379 $384 forward $264 $-1 #
loop $-1 $-1 $373 $252 #
vertex $-1 $261 $385 #
vertex $-1 $165 $386 #
straight-curve $-1 -61.786943357184086 -8.2503027305957861 5.6800408621581404 1 0 0 I I #
coedge $-1 $268 $268 $-1 $387 reversed $168 $-1 #
edge $-1 $388 0 $388 6.2831853071796004 $169 $389 forward 7 unknown #
vertex $-1 $172 $390 #
ellipse-curve $-1 -45.803797659919347 -5.6107956403066623 3.3251219769471758 -0.79863551827123203 0 0.60181501223851219 0.60181501223851219 0 0.79863551827123203 1 I I #
coedge $-1 $272 $272 $-1 $391 reversed $175 $-1 #
edge $-1 $392 0 $392 6.2831853071796004 $176 $393 forward 7 unknown #
vertex $-1 $179 $394 #
ellipse-curve $-1 -45.803797659919347 -1.6515350048729722 3.3251219769471758 -0.79863551827123203 0 0.60181501223851219 0.60181501223851219 0 0.79863551827123203 1 I I #
face $-1 $-1 $195 $27 $-1 $395 reversed single #
loop $-1 $-1 $292 $180 #
plane-surface $-1 0 22.423843244618766 0 0 -1 0 0 0 -1 forward_v I I I I #
coedge $-1 $396 $289 $292 $397 forward $181 $-1 #
coedge $-1 $183 $295 $184 $283 reversed $113 $-1 #
edge $-1 $196 -5.6800408621581395 $287 5.6800408621581395 $193 $398 forward 7 unknown #
coedge $-1 $185 $184 $396 $399 forward $73 $-1 #
edge $-1 $287 -47.578356273079621 $400 47.578356273079621 $280 $401 forward 7 unknown #
coedge $-1 $292 $291 $185 $285 reversed $277 $-1 #
edge $-1 $402 -47.578356273079621 $286 47.578356273079621 $284 $403 forward 7 unknown #
vertex $-1 $187 $404 #
vertex $-1 $281 $405 #
straight-curve $-1 47.578356273079621 0 -5.6800408621581395 0 -1 0 I I #
coedge $-1 $279 $406 $188 $290 reversed $181 $-1 #
edge $-1 $293 -22.423843244618766 $296 22.423843244618766 $289 $407 forward 7 unknown #
coedge $-1 $284 $189 $194 $298 forward $277 $-1 #
coedge $-1 $189 $284 $279 $397 reversed $277 $-1 #
vertex $-1 $190 $408 #
straight-curve $-1 0 22.423843244618766 5.6800408621581395 -1 0 0 I I #
coedge $-1 $280 $191 $406 $409 forward $113 $-1 #
vertex $-1 $290 $410 #
straight-curve $-1 0 -22.423843244618766 5.6800408621581395 1 0 0 I I #
edge $-1 $197 -5.6800408621581395 $286 5.6800408621581395 $194 $411 forward 7 unknown #
point $-1 47.578356273079621 -22.423843244618766 5.6800408621581395 #
point $-1 47.578356273079621 22.423843244618766 5.6800408621581395 #
face $-1 $-1 $315 $28 $-1 $412 reversed single #
loop $-1 $-1 $413 $199 #
plane-surface $-1 0 -28.333963291185768 -4.1800408621581395 0 1 0 0 0 1 forward_v I I I I #
coedge $-1 $414 $202 $211 $319 reversed $121 $-1 #
coedge $-1 $202 $414 $203 $307 reversed $121 $-1 #
coedge $-1 $204 $203 $415 $416 forward $77 $-1 #
edge $-1 $311 22.423843244618766 $417 28.333963291185768 $305 $418 forward 7 unknown #
coedge $-1 $419 $208 $204 $309 reversed $315 $-1 #
edge $-1 $420 -28.333963291185768 $310 -22.423843244618766 $308 $421 forward 7 unknown #
vertex $-1 $209 $422 #
vertex $-1 $307 $423 #
straight-curve $-1 0 -22.423843244618766 -5.6800408621581395 1 0 0 I I #
straight-curve $-1 47.578356273079621 -22.423843244618766 0 0 0 1 I I #
coedge $-1 $208 $419 $210 $318 reversed $315 $-1 #
loop $-1 $-1 $208 $301 #
straight-curve $-1 -47.578356273079621 -22.423843244618766 0 0 0 -1 I I #
coedge $-1 $211 $210 $424 $425 forward $200 $-1 #
edge $-1 $212 -2.9550600232835009 $426 2.9550600232835009 $314 $427 forward 7 unknown #
edge $-1 $428 -2.9550600232835009 $213 2.9550600232835009 $304 $429 forward 7 unknown #
point $-1 -47.578356273079621 -22.423843244618766 -2.6800408621581395 #
point $-1 47.578356273079621 -22.423843244618766 -2.6800408621581395 #
face $-1 $-1 $338 $29 $-1 $430 reversed single #
loop $-1 $-1 $335 $215 #
plane-surface $-1 0 0 -5.6800408621581395 0 0 1 1 0 0 forward_v I I I I #
coedge $-1 $431 $432 $433 $434 forward $216 $-1 #
coedge $-1 $225 $218 $432 $435 forward $129 $-1 #
coedge $-1 $223 $433 $218 $328 reversed $338 $-1 #
edge $-1 $226 -2.9550600232835009 $436 2.9550600232835009 $327 $437 forward 7 unknown #
coedge $-1 $220 $219 $438 $439 forward $81 $-1 #
edge $-1 $440 -2.9550600232835009 $227 2.9550600232835009 $219 $441 forward 7 unknown #
coedge $-1 $442 $335 $220 $332 forward $323 $-1 #
edge $-1 $333 -2.9550600232835009 $443 2.9550600232835009 $220 $444 forward 7 unknown #
vertex $-1 $332 $445 #
straight-curve $-1 -47.578356273079621 22.423843244618766 0 0 0 1 I I #
coedge $-1 $331 $446 $222 $336 forward $323 $-1 #
edge $-1 $339 -47.578356273079621 $333 47.578356273079621 $335 $447 forward 7 unknown #
coedge $-1 $433 $223 $446 $448 reversed $338 $-1 #
loop $-1 $-1 $223 $322 #
vertex $-1 $224 $449 #
straight-curve $-1 47.578356273079621 22.423843244618766 0 0 0 -1 I I #
point $-1 47.578356273079621 22.423843244618766 -2.6800408621581395 #
point $-1 -47.578356273079621 22.423843244618766 -2.6800408621581395 #
loop $-1 $-1 $237 $229 #
plane-surface $-1 47.578356273079621 0 0 -1 0 0 0 0 1 forward_v I I I I #
coedge $-1 $346 $232 $234 $350 reversed $137 $-1 #
coedge $-1 $232 $345 $450 $451 reversed $137 $-1 #
coedge $-1 $240 $235 $232 $348 forward $230 $-1 #
edge $-1 $351 3.2891410196814377 $452 6.3742900648360106 $347 $453 forward 7 unknown #
coedge $-1 $234 $233 $354 $454 reversed $85 $-1 #
edge $-1 $455 -95.156712546159227 $351 -88.986414290517274 $345 $456 forward 7 unknown #
vertex $-1 $236 $457 #
straight-curve $-1 44.493207227925055 -6.5913100172717529 5.680040862158144 0 -1 0 I I #
coedge $-1 $450 $237 $240 $358 reversed $343 $-1 #
coedge $-1 $237 $450 $349 $454 forward $343 $-1 #
vertex $-1 $238 $458 #
straight-curve $-1 47.578356273079621 -9.8515168710352512 65.16144595798292 0 0 1 I I #
straight-curve $-1 1.2748594713229977e-006 -9.8515168710352512 82.744536917745677 0.49999998660252726 0 -0.86602541151947299 I I #
edge $-1 $452 -16.51372319805176 $241 -9.8515168710352512 $353 $459 forward 7 unknown #
point $-1 47.578356273079621 -9.8515168710352512 5.6800408621581395 #
point $-1 44.493207227925048 -9.8515168710352512 5.6800408621581369 #
edge $-1 $460 1 $460 0 $244 $-1 forward 7 unknown #
vertex $-1 $245 $461 #
ellipse-curve $-1 44.839529143809976 -14.610235676047044 2.3175665793202138 0.86602541151947299 0 0.49999998660252726 0.24999999330126363 0 -0.43301270575973649 1 I I #
point $-1 46.285781743803604 -14.610235676047044 2.5752106133782906 #
edge $-1 $462 1 $462 0 $248 $-1 forward 7 unknown #
vertex $-1 $249 $463 #
ellipse-curve $-1 44.839529143809976 -11.755004393039968 2.3175665793202138 0.86602541151947299 0 0.49999998660252726 0.24999999330126363 0 -0.43301270575973649 1 I I #
point $-1 46.285781743803604 -11.755004393039968 2.5752106133782906 #
plane-surface $-1 0 0 5.6800408621581395 0 0 1 1 0 0 forward_v I I I I #
coedge $-1 $380 $379 $372 $464 forward $253 $-1 #
coedge $-1 $372 $255 $257 $376 reversed $159 $-1 #
coedge $-1 $255 $371 $370 $464 reversed $159 $-1 #
coedge $-1 $263 $258 $255 $374 forward $264 $-1 #
edge $-1 $377 -17.757704310425019 $465 -14.208587084104465 $373 $466 forward 7 unknown #
coedge $-1 $257 $256 $380 $467 reversed $99 $-1 #
edge $-1 $468 2.3625585895707848e-014 $377 5.8973557557483751 $371 $469 forward 7 unknown #
vertex $-1 $259 $470 #
straight-curve $-1 -44.029239046759059 -1.8155826612949078 5.6800408621581386 0 1 0 I I #
coedge $-1 $370 $260 $263 $384 reversed $253 $-1 #
coedge $-1 $260 $370 $375 $467 forward $253 $-1 #
vertex $-1 $261 $471 #
straight-curve $-1 -47.578356273079621 -8.2503027305957861 29.118470608639807 0 0 1 I I #
straight-curve $-1 -47.578356273079635 -8.2503027305957861 0.97020309173620234 -0.60181501223851219 0 -0.79863551827123203 I I #
edge $-1 $465 -0.98797208541615511 $265 8.2503027305957861 $379 $472 forward 7 unknown #
point $-1 -47.578356273079621 -8.2503027305957861 5.6800408621581395 #
point $-1 -44.029239046759066 -8.2503027305957861 5.6800408621581395 #
edge $-1 $473 1 $473 0 $268 $-1 forward 7 unknown #
vertex $-1 $269 $474 #
ellipse-curve $-1 -42.901733574421144 -5.6107956403066623 1.1382598938386983 -0.79863551827123203 0 0.60181501223851219 0.60181501223851219 0 0.79863551827123203 1 I I #
point $-1 -45.201982647680822 -5.6107956403066623 4.1237574952183991 #
edge $-1 $475 1 $475 0 $272 $-1 forward 7 unknown #
vertex $-1 $273 $476 #
ellipse-curve $-1 -42.901733574421144 -1.6515350048729722 1.1382598938386983 -0.79863551827123203 0 0.60181501223851219 0.60181501223851219 0 0.79863551827123203 1 I I #
point $-1 -45.201982647680822 -1.6515350048729722 4.1237574952183991 #
plane-surface $-1 47.578356273079621 0 0 -1 0 0 0 0 1 forward_v I I I I #
coedge $-1 $406 $279 $282 $399 reversed $181 $-1 #
edge $-1 $293 -5.6800408621581395 $402 5.6800408621581395 $292 $477 forward 7 unknown #
straight-curve $-1 47.578356273079621 -22.423843244618766 0 0 0 -1 I I #
edge $-1 $400 -22.423843244618766 $402 22.423843244618766 $396 $478 forward 7 unknown #
vertex $-1 $399 $479 #
straight-curve $-1 0 -22.423843244618766 -5.6800408621581395 -1 0 0 I I #
vertex $-1 $285 $480 #
straight-curve $-1 0 22.423843244618766 -5.6800408621581395 1 0 0 I I #
point $-1 47.578356273079621 22.423843244618766 -5.6800408621581395 #
point $-1 47.578356273079621 -22.423843244618766 -5.6800408621581395 #
coedge $-1 $289 $396 $295 $409 reversed $181 $-1 #
straight-curve $-1 -47.578356273079621 0 5.6800408621581395 0 -1 0 I I #
point $-1 -47.578356273079621 22.423843244618766 5.6800408621581395 #
edge $-1 $296 -5.6800408621581395 $400 5.6800408621581395 $406 $481 forward 7 unknown #
point $-1 -47.578356273079621 -22.423843244618766 5.6800408621581395 #
straight-curve $-1 47.578356273079621 22.423843244618766 0 0 0 -1 I I #
plane-surface $-1 -47.578356273079621 0 0 1 0 0 0 0 -1 forward_v I I I I #
coedge $-1 $415 $424 $419 $482 forward $302 $-1 #
coedge $-1 $305 $304 $483 $484 forward $121 $-1 #
coedge $-1 $483 $413 $306 $416 reversed $302 $-1 #
edge $-1 $417 -47.578356273079621 $420 47.578356273079621 $415 $485 forward 7 unknown #
vertex $-1 $484 $486 #
straight-curve $-1 47.578356273079621 0 -5.6800408621581395 0 -1 0 I I #
coedge $-1 $314 $308 $413 $482 reversed $315 $-1 #
vertex $-1 $309 $487 #
straight-curve $-1 -47.578356273079621 0 -5.6800408621581395 0 1 0 I I #
point $-1 -47.578356273079621 -22.423843244618766 -5.6800408621581395 #
point $-1 47.578356273079621 -22.423843244618766 -5.6800408621581395 #
coedge $-1 $413 $483 $317 $425 reversed $302 $-1 #
edge $-1 $426 -47.578356273079621 $428 47.578356273079621 $424 $488 forward 7 unknown #
vertex $-1 $318 $489 #
straight-curve $-1 -47.578356273079621 -25.378903267902267 -2.6800408621581395 0 -1 0 I I #
vertex $-1 $319 $490 #
straight-curve $-1 47.578356273079621 -25.378903267902267 -2.6800408621581395 0 1 0 I I #
plane-surface $-1 47.578356273079621 0 0 -1 0 0 0 0 1 forward_v I I I I #
coedge $-1 $438 $325 $442 $491 reversed $216 $-1 #
coedge $-1 $325 $438 $326 $435 reversed $216 $-1 #
coedge $-1 $327 $337 $325 $434 reversed $338 $-1 #
edge $-1 $436 -1.5 $492 1.5 $433 $493 forward 7 unknown #
edge $-1 $436 -47.578356273079621 $440 47.578356273079621 $432 $494 forward 7 unknown #
vertex $-1 $328 $495 #
straight-curve $-1 47.578356273079621 25.378903267902267 -2.6800408621581395 0 1 0 I I #
coedge $-1 $432 $431 $329 $439 reversed $216 $-1 #
edge $-1 $440 -1.5 $443 1.5 $438 $496 forward 7 unknown #
vertex $-1 $435 $497 #
straight-curve $-1 -47.578356273079621 25.378903267902267 -2.6800408621581395 0 -1 0 I I #
coedge $-1 $446 $331 $431 $491 forward $323 $-1 #
vertex $-1 $491 $498 #
straight-curve $-1 -47.578356273079621 25.378903267902267 -5.6800408621581395 0 1 0 I I #
point $-1 -47.578356273079621 22.423843244618766 -5.6800408621581395 #
coedge $-1 $335 $442 $337 $448 forward $323 $-1 #
straight-curve $-1 0 22.423843244618766 -5.6800408621581395 -1 0 0 I I #
edge $-1 $492 -28.333963291185768 $339 -22.423843244618766 $337 $499 forward 7 unknown #
point $-1 47.578356273079621 22.423843244618766 -5.6800408621581395 #
coedge $-1 $354 $353 $346 $451 forward $343 $-1 #
edge $-1 $452 59.481405095824783 $455 64.825040181864992 $450 $500 forward 7 unknown #
vertex $-1 $358 $501 #
straight-curve $-1 41.20406620824361 -16.51372319805176 5.6800408621581369 1 0 0 I I #
edge $-1 $455 -9.9224131807800084 $355 -3.2602068537634983 $354 $502 forward 7 unknown #
vertex $-1 $454 $503 #
straight-curve $-1 1.2748594713229977e-006 -16.51372319805176 82.744536917745677 -0.49999998660252726 0 0.86602541151947299 I I #
point $-1 44.493207227925048 -16.51372319805176 5.6800408621581369 #
point $-1 47.578356273079621 -9.8515168710352512 0.33640577611792821 #
straight-curve $-1 47.578356273079621 0 5.6800408621581395 0 1 0 I I #
vertex $-1 $361 $504 #
point $-1 45.089529137111242 -14.610235676047044 1.8845538735604774 #
vertex $-1 $365 $505 #
point $-1 45.089529137111242 -11.755004393039968 1.8845538735604774 #
edge $-1 $465 23.438429746481667 $468 28.148267516903587 $370 $506 forward 7 unknown #
vertex $-1 $384 $507 #
straight-curve $-1 -61.786943357184086 0.98797208541615511 5.6800408621581404 -1 0 0 I I #
edge $-1 $468 -2.8035547467110629 $381 6.4347200693008784 $380 $508 forward 7 unknown #
vertex $-1 $467 $509 #
straight-curve $-1 -47.578356273079635 0.98797208541615511 0.97020309173620234 0.60181501223851219 0 0.79863551827123203 I I #
point $-1 -44.029239046759066 0.98797208541615511 5.6800408621581395 #
point $-1 -47.578356273079621 -8.2503027305957861 0.97020309173622121 #
straight-curve $-1 -47.578356273079621 0 5.6800408621581395 0 -1 0 I I #
vertex $-1 $387 $510 #
point $-1 -42.299918562182633 -5.6107956403066623 1.9368954121099304 #
vertex $-1 $391 $511 #
point $-1 -42.299918562182633 -1.6515350048729722 1.9368954121099304 #
straight-curve $-1 -47.578356273079621 22.423843244618766 0 0 0 -1 I I #
straight-curve $-1 -47.578356273079621 0 -5.6800408621581395 0 1 0 I I #
point $-1 -47.578356273079621 -22.423843244618766 -5.6800408621581395 #
point $-1 -47.578356273079621 22.423843244618766 -5.6800408621581395 #
straight-curve $-1 -47.578356273079621 -22.423843244618766 0 0 0 -1 I I #
edge $-1 $426 -1.5 $420 1.5 $419 $512 forward 7 unknown #
coedge $-1 $424 $415 $414 $484 reversed $302 $-1 #
edge $-1 $428 -1.5 $417 1.5 $414 $513 forward 7 unknown #
straight-curve $-1 0 -28.333963291185768 -5.6800408621581395 -1 0 0 I I #
point $-1 47.578356273079621 -28.333963291185768 -5.6800408621581395 #
point $-1 -47.578356273079621 -28.333963291185768 -5.6800408621581395 #
straight-curve $-1 0 -28.333963291185768 -2.6800408621581395 1 0 0 I I #
point $-1 -47.578356273079621 -28.333963291185768 -2.6800408621581395 #
point $-1 47.578356273079621 -28.333963291185768 -2.6800408621581395 #
edge $-1 $443 -47.578356273079621 $492 47.578356273079621 $431 $514 forward 7 unknown #
vertex $-1 $448 $515 #
straight-curve $-1 47.578356273079621 28.333963291185768 -4.1800408621581395 0 0 -1 I I #
straight-curve $-1 0 28.333963291185768 -2.6800408621581395 -1 0 0 I I #
point $-1 47.578356273079621 28.333963291185768 -2.6800408621581395 #
straight-curve $-1 -47.578356273079621 28.333963291185768 -4.1800408621581395 0 0 -1 I I #
point $-1 -47.578356273079621 28.333963291185768 -2.6800408621581395 #
point $-1 -47.578356273079621 28.333963291185768 -5.6800408621581395 #
straight-curve $-1 47.578356273079621 0 -5.6800408621581395 0 -1 0 I I #
straight-curve $-1 47.578356273079621 -16.51372319805176 65.16144595798292 0 0 -1 I I #
point $-1 47.578356273079621 -16.51372319805176 5.6800408621581395 #
straight-curve $-1 47.578356273079621 -6.5913100172717529 0.33640577611793532 0 1 0 I I #
point $-1 47.578356273079621 -16.51372319805176 0.33640577611792821 #
point $-1 44.40651643805024 -14.610235676047044 2.0675665860189505 #
point $-1 44.40651643805024 -11.755004393039968 2.0675665860189505 #
straight-curve $-1 -47.578356273079621 0.98797208541615511 29.118470608639807 0 0 -1 I I #
point $-1 -47.578356273079621 0.98797208541615511 5.6800408621581395 #
straight-curve $-1 -47.578356273079621 -1.8155826612949078 0.9702030917362221 0 -1 0 I I #
point $-1 -47.578356273079621 0.98797208541615511 0.97020309173622121 #
point $-1 -42.103098056149918 -5.6107956403066623 0.53644488160018644 #
point $-1 -42.103098056149918 -1.6515350048729722 0.53644488160018644 #
straight-curve $-1 -47.578356273079621 -28.333963291185768 -4.1800408621581395 0 0 -1 I I #
straight-curve $-1 47.578356273079621 -28.333963291185768 -4.1800408621581395 0 0 -1 I I #
straight-curve $-1 0 28.333963291185768 -5.6800408621581395 1 0 0 I I #
point $-1 47.578356273079621 28.333963291185768 -5.6800408621581395 #
End-of-ACIS-data 