500 0 17 0           
7 Unknown 11 ACIS 5.0 NT 24 Thu Mar 25 23:26:18 1999 
-1 9.9999999999999995e-007 1e-010 
body $-1 $17 $-1 $18 #
body $-1 $19 $-1 $20 #
body $-1 $21 $-1 $22 #
body $-1 $23 $-1 $24 #
body $-1 $25 $-1 $26 #
body $-1 $27 $-1 $28 #
body $-1 $29 $-1 $30 #
body $-1 $31 $-1 $32 #
body $-1 $33 $-1 $34 #
body $-1 $35 $-1 $36 #
body $-1 $37 $-1 $38 #
body $-1 $39 $-1 $40 #
body $-1 $41 $-1 $42 #
body $-1 $43 $-1 $44 #
body $-1 $45 $-1 $46 #
body $-1 $47 $-1 $48 #
body $-1 $49 $-1 $50 #
lump $-1 $-1 $51 $0 #
transform $-1 1 0 0 0 1 0 0 0 1 49.142124698629715 21.094354885208794 6.6969281766521664 1 rotate no_reflect no_shear #
lump $-1 $-1 $52 $1 #
transform $-1 1 0 0 0 1 0 0 0 1 49.142124698629715 21.094354885208794 6.6969281766521664 1 rotate no_reflect no_shear #
lump $-1 $-1 $53 $2 #
transform $-1 1 0 0 0 1 0 0 0 1 49.142124698629715 21.094354885208794 6.6969281766521664 1 rotate no_reflect no_shear #
lump $-1 $-1 $54 $3 #
transform $-1 1 0 0 0 1 0 0 0 1 49.142124698629715 21.094354885208794 6.6969281766521664 1 rotate no_reflect no_shear #
lump $-1 $-1 $55 $4 #
transform $-1 1 0 0 0 1 0 0 0 1 49.142124698629715 21.094354885208794 6.6969281766521664 1 rotate no_reflect no_shear #
lump $-1 $-1 $56 $5 #
transform $-1 1 0 0 0 1 0 0 0 1 49.142124698629715 21.094354885208794 6.6969281766521664 1 rotate no_reflect no_shear #
lump $-1 $-1 $57 $6 #
transform $-1 1 0 0 0 1 0 0 0 1 49.142124698629715 21.094354885208794 6.6969281766521664 1 rotate no_reflect no_shear #
lump $-1 $-1 $58 $7 #
transform $-1 1 0 0 0 1 0 0 0 1 49.142124698629715 21.094354885208794 6.6969281766521664 1 rotate no_reflect no_shear #
lump $-1 $-1 $59 $8 #
transform $-1 1 0 0 0 1 0 0 0 1 49.142124698629715 21.094354885208794 6.6969281766521664 1 rotate no_reflect no_shear #
lump $-1 $-1 $60 $9 #
transform $-1 1 0 0 0 1 0 0 0 1 49.142124698629715 21.094354885208794 6.6969281766521664 1 rotate no_reflect no_shear #
lump $-1 $-1 $61 $10 #
transform $-1 1 0 0 0 1 0 0 0 1 49.142124698629715 21.094354885208794 6.6969281766521664 1 rotate no_reflect no_shear #
lump $-1 $-1 $62 $11 #
transform $-1 1 0 0 0 1 0 0 0 1 49.142124698629715 21.094354885208794 6.6969281766521664 1 rotate no_reflect no_shear #
lump $-1 $-1 $63 $12 #
transform $-1 1 0 0 0 1 0 0 0 1 49.142124698629715 21.094354885208794 6.6969281766521664 1 rotate no_reflect no_shear #
lump $-1 $-1 $64 $13 #
transform $-1 1 0 0 0 1 0 0 0 1 49.142124698629715 21.094354885208794 6.6969281766521664 1 rotate no_reflect no_shear #
lump $-1 $-1 $65 $14 #
transform $-1 1 0 0 0 1 0 0 0 1 49.142124698629715 21.094354885208794 6.6969281766521664 1 rotate no_reflect no_shear #
lump $-1 $-1 $66 $15 #
transform $-1 1 0 0 0 1 0 0 0 1 49.142124698629715 21.094354885208794 6.6969281766521664 1 rotate no_reflect no_shear #
lump $-1 $-1 $67 $16 #
transform $-1 1 0 0 0 1 0 0 0 1 49.142124698629715 21.094354885208794 6.6969281766521664 1 rotate no_reflect no_shear #
shell $-1 $-1 $-1 $68 $-1 $17 #
shell $-1 $-1 $-1 $69 $-1 $19 #
shell $-1 $-1 $-1 $70 $-1 $21 #
shell $-1 $-1 $-1 $71 $-1 $23 #
shell $-1 $-1 $-1 $72 $-1 $25 #
shell $-1 $-1 $-1 $73 $-1 $27 #
shell $-1 $-1 $-1 $74 $-1 $29 #
shell $-1 $-1 $-1 $75 $-1 $31 #
shell $-1 $-1 $-1 $76 $-1 $33 #
shell $-1 $-1 $-1 $77 $-1 $35 #
shell $-1 $-1 $-1 $78 $-1 $37 #
shell $-1 $-1 $-1 $79 $-1 $39 #
shell $-1 $-1 $-1 $80 $-1 $41 #
shell $-1 $-1 $-1 $81 $-1 $43 #
shell $-1 $-1 $-1 $82 $-1 $45 #
shell $-1 $-1 $-1 $83 $-1 $47 #
shell $-1 $-1 $-1 $84 $-1 $49 #
face $-1 $85 $86 $51 $-1 $87 forward single #
face $-1 $88 $89 $52 $-1 $90 reversed single #
face $-1 $91 $92 $53 $-1 $93 reversed single #
face $-1 $94 $95 $54 $-1 $96 forward single #
face $-1 $97 $98 $55 $-1 $99 forward single #
face $-1 $100 $101 $56 $-1 $102 reversed single #
face $-1 $103 $104 $57 $-1 $105 forward single #
face $-1 $106 $107 $58 $-1 $108 forward single #
face $-1 $109 $110 $59 $-1 $111 reversed single #
face $-1 $112 $113 $60 $-1 $114 forward single #
face $-1 $115 $116 $61 $-1 $117 forward single #
face $-1 $118 $119 $62 $-1 $120 reversed single #
face $-1 $121 $122 $63 $-1 $123 forward single #
face $-1 $124 $125 $64 $-1 $126 forward single #
face $-1 $127 $128 $65 $-1 $129 reversed single #
face $-1 $130 $131 $66 $-1 $132 forward single #
face $-1 $133 $134 $67 $-1 $135 forward single #
face $-1 $136 $137 $51 $-1 $138 reversed single #
loop $-1 $-1 $139 $68 #
plane-surface $-1 0 0 6.6969281766521664 0 0 1 1 0 0 forward_v I I I I #
face $-1 $140 $141 $52 $-1 $142 reversed single #
loop $-1 $-1 $143 $69 #
plane-surface $-1 -46.104379928732669 -11.621860943909052 0 0 1 0 0 0 1 forward_v I I I I #
face $-1 $144 $145 $53 $-1 $146 reversed single #
loop $-1 $-1 $147 $70 #
plane-surface $-1 -43.066635158835624 50.159852767803109 104.91262492434996 1 0 0 0 -0.62932039886446345 -0.77714595512881146 forward_v I I I I #
face $-1 $148 $149 $54 $-1 $150 forward single #
loop $-1 $151 $152 $71 #
cone-surface $-1 -39.752620916453253 17.351111631944832 3.3122172844445918 0 -0.62932039886446345 -0.77714595512881146 1.5 0 0 1 I I 0 1 1.5 forward I I I I #
face $-1 $153 $154 $55 $-1 $155 forward single #
loop $-1 $156 $157 $72 #
cone-surface $-1 -34.781599552879705 17.351111631944832 3.3122172844445918 0 -0.62932039886446345 -0.77714595512881146 1.5 0 0 1 I I 0 1 1.5 forward I I I I #
face $-1 $158 $159 $56 $-1 $160 reversed single #
loop $-1 $-1 $161 $73 #
plane-surface $-1 -16.196731822459938 50.159852767803109 104.91262492434996 1 0 0 0 -0.62932039886446345 -0.77714595512881146 forward_v I I I I #
face $-1 $162 $163 $57 $-1 $164 forward single #
loop $-1 $165 $166 $74 #
cone-surface $-1 -12.882717580077568 17.351111631944832 3.3122172844445918 0 -0.62932039886446345 -0.77714595512881146 1.5 0 0 1 I I 0 1 1.5 forward I I I I #
face $-1 $167 $168 $58 $-1 $169 forward single #
loop $-1 $170 $171 $75 #
cone-surface $-1 -7.9116962165040192 17.351111631944832 3.3122172844445918 0 -0.62932039886446345 -0.77714595512881146 1.5 0 0 1 I I 0 1 1.5 forward I I I I #
face $-1 $172 $173 $59 $-1 $174 reversed single #
loop $-1 $-1 $175 $76 #
plane-surface $-1 10.673171513915738 50.159852767803109 104.91262492434996 1 0 0 0 -0.62932039886446345 -0.77714595512881146 forward_v I I I I #
face $-1 $176 $177 $60 $-1 $178 forward single #
loop $-1 $179 $180 $77 #
cone-surface $-1 13.987185756298118 17.351111631944832 3.3122172844445918 0 -0.62932039886446345 -0.77714595512881146 1.5 0 0 1 I I 0 1 1.5 forward I I I I #
face $-1 $181 $182 $61 $-1 $183 forward single #
loop $-1 $184 $185 $78 #
cone-surface $-1 18.958207119871673 17.351111631944832 3.3122172844445918 0 -0.62932039886446345 -0.77714595512881146 1.5 0 0 1 I I 0 1 1.5 forward I I I I #
face $-1 $186 $187 $62 $-1 $188 reversed single #
loop $-1 $-1 $189 $79 #
plane-surface $-1 37.543074850291426 50.159852767803109 104.91262492434996 1 0 0 0 -0.62932039886446345 -0.77714595512881146 forward_v I I I I #
face $-1 $190 $191 $63 $-1 $192 forward single #
loop $-1 $193 $194 $80 #
cone-surface $-1 40.857089092673803 17.351111631944832 3.3122172844445918 0 -0.62932039886446345 -0.77714595512881146 1.5 0 0 1 I I 0 1 1.5 forward I I I I #
face $-1 $195 $196 $64 $-1 $197 forward single #
loop $-1 $198 $199 $81 #
cone-surface $-1 45.828110456247359 17.351111631944832 3.3122172844445918 0 -0.62932039886446345 -0.77714595512881146 1.5 0 0 1 I I 0 1 1.5 forward I I I I #
face $-1 $200 $201 $65 $-1 $202 reversed single #
loop $-1 $-1 $203 $82 #
plane-surface $-1 40.731561295693851 -21.094354885208773 0.50804979337335965 0 -0.69465837861970381 0.71933979245794832 1 0 0 forward_v I I I I #
face $-1 $204 $205 $66 $-1 $206 forward single #
loop $-1 $207 $208 $83 #
cone-surface $-1 37.12703412300705 -15.944896230785814 1.5883068316809239 0 0.69465837861970381 -0.71933979245794832 1.5 0 0 1 I I 0 1 1.5 forward I I I I #
face $-1 $209 $210 $67 $-1 $211 forward single #
loop $-1 $212 $213 $84 #
cone-surface $-1 44.336088468380652 -15.944896230785814 1.5883068316809239 0 0.69465837861970381 -0.71933979245794832 1.5 0 0 1 I I 0 1 1.5 forward I I I I #
face $-1 $214 $215 $51 $-1 $216 reversed single #
loop $-1 $-1 $217 $85 #
plane-surface $-1 0 0 -6.6969281766521664 0 0 1 1 0 0 forward_v I I I I #
coedge $-1 $218 $219 $220 $221 forward $86 $-1 #
face $-1 $222 $223 $52 $-1 $224 reversed single #
loop $-1 $-1 $225 $88 #
plane-surface $-1 -46.104379928732669 -7.7004985319044614 0 0 -1 0 0 0 -1 forward_v I I I I #
coedge $-1 $226 $227 $228 $229 reversed $89 $-1 #
face $-1 $230 $231 $53 $-1 $232 reversed single #
loop $-1 $-1 $233 $91 #
plane-surface $-1 -37.267110234666482 -11.692430264974597 28.531418052398465 0 0.62932039886446345 0.77714595512881146 1 0 0 forward_v I I I I #
coedge $-1 $234 $235 $236 $237 reversed $92 $-1 #
face $-1 $-1 $238 $54 $-1 $239 forward single #
loop $-1 $240 $241 $94 #
cone-surface $-1 -39.752620916453253 16.047596200836381 1.7025098181654084 0 -0.62932039886446345 -0.77714595512881146 0.75 0 0 1 I I -0.70710678118654757 0.70710678118654757 0.75 forward I I I I #
loop $-1 $-1 $242 $71 #
coedge $-1 $152 $152 $243 $244 reversed $95 $-1 #
face $-1 $-1 $245 $55 $-1 $246 forward single #
loop $-1 $247 $248 $97 #
cone-surface $-1 -34.781599552879705 16.047596200836381 1.7025098181654084 0 -0.62932039886446345 -0.77714595512881146 0.75 0 0 1 I I -0.70710678118654757 0.70710678118654757 0.75 forward I I I I #
loop $-1 $-1 $249 $72 #
coedge $-1 $157 $157 $250 $251 reversed $98 $-1 #
face $-1 $252 $253 $56 $-1 $254 reversed single #
loop $-1 $-1 $255 $100 #
plane-surface $-1 -10.397206898290797 -11.692430264974597 28.531418052398465 0 0.62932039886446345 0.77714595512881146 1 0 0 forward_v I I I I #
coedge $-1 $256 $257 $258 $259 reversed $101 $-1 #
face $-1 $-1 $260 $57 $-1 $261 forward single #
loop $-1 $262 $263 $103 #
cone-surface $-1 -12.882717580077568 16.047596200836381 1.7025098181654084 0 -0.62932039886446345 -0.77714595512881146 0.75 0 0 1 I I -0.70710678118654757 0.70710678118654757 0.75 forward I I I I #
loop $-1 $-1 $264 $74 #
coedge $-1 $166 $166 $265 $266 reversed $104 $-1 #
face $-1 $-1 $267 $58 $-1 $268 forward single #
loop $-1 $269 $270 $106 #
cone-surface $-1 -7.9116962165040192 16.047596200836381 1.7025098181654084 0 -0.62932039886446345 -0.77714595512881146 0.75 0 0 1 I I -0.70710678118654757 0.70710678118654757 0.75 forward I I I I #
loop $-1 $-1 $271 $75 #
coedge $-1 $171 $171 $272 $273 reversed $107 $-1 #
face $-1 $274 $275 $59 $-1 $276 reversed single #
loop $-1 $-1 $277 $109 #
plane-surface $-1 16.472696438084881 -11.692430264974597 28.531418052398465 0 0.62932039886446345 0.77714595512881146 1 0 0 forward_v I I I I #
coedge $-1 $278 $279 $280 $281 reversed $110 $-1 #
face $-1 $-1 $282 $60 $-1 $283 forward single #
loop $-1 $284 $285 $112 #
cone-surface $-1 13.987185756298118 16.047596200836381 1.7025098181654084 0 -0.62932039886446345 -0.77714595512881146 0.75 0 0 1 I I -0.70710678118654757 0.70710678118654757 0.75 forward I I I I #
loop $-1 $-1 $286 $77 #
coedge $-1 $180 $180 $287 $288 reversed $113 $-1 #
face $-1 $-1 $289 $61 $-1 $290 forward single #
loop $-1 $291 $292 $115 #
cone-surface $-1 18.958207119871673 16.047596200836381 1.7025098181654084 0 -0.62932039886446345 -0.77714595512881146 0.75 0 0 1 I I -0.70710678118654757 0.70710678118654757 0.75 forward I I I I #
loop $-1 $-1 $293 $78 #
coedge $-1 $185 $185 $294 $295 reversed $116 $-1 #
face $-1 $296 $297 $62 $-1 $298 forward single #
loop $-1 $-1 $299 $118 #
plane-surface $-1 43.342599774460567 -11.692430264974597 28.531418052398465 0 0.62932039886446345 0.77714595512881146 1 0 0 forward_v I I I I #
coedge $-1 $300 $301 $302 $303 reversed $119 $-1 #
face $-1 $-1 $304 $63 $-1 $305 forward single #
loop $-1 $306 $307 $121 #
cone-surface $-1 40.857089092673803 16.047596200836381 1.7025098181654084 0 -0.62932039886446345 -0.77714595512881146 0.75 0 0 1 I I -0.70710678118654757 0.70710678118654757 0.75 forward I I I I #
loop $-1 $-1 $308 $80 #
coedge $-1 $194 $194 $309 $310 reversed $122 $-1 #
face $-1 $-1 $311 $64 $-1 $312 forward single #
loop $-1 $313 $314 $124 #
cone-surface $-1 45.828110456247359 16.047596200836381 1.7025098181654084 0 -0.62932039886446345 -0.77714595512881146 0.75 0 0 1 I I -0.70710678118654757 0.70710678118654757 0.75 forward I I I I #
loop $-1 $-1 $315 $81 #
coedge $-1 $199 $199 $316 $317 reversed $125 $-1 #
face $-1 $318 $319 $65 $-1 $320 forward single #
loop $-1 $-1 $321 $127 #
plane-surface $-1 32.320997892757987 -89.368332215363608 71.207821356683183 1 0 0 0 0.69465837861970381 -0.71933979245794832 forward_v I I I I #
coedge $-1 $322 $323 $324 $325 reversed $128 $-1 #
face $-1 $-1 $326 $66 $-1 $327 forward single #
loop $-1 $328 $329 $130 #
cone-surface $-1 37.12703412300705 -13.47882930677223 -0.96538016599437437 0 0.69465837861970381 -0.71933979245794832 0.75 0 0 1 I I -0.70710678118654757 0.70710678118654757 0.75 forward I I I I #
loop $-1 $-1 $330 $83 #
coedge $-1 $208 $208 $331 $332 reversed $131 $-1 #
face $-1 $-1 $333 $67 $-1 $334 forward single #
loop $-1 $335 $336 $133 #
cone-surface $-1 44.336088468380652 -13.47882930677223 -0.96538016599437437 0 0.69465837861970381 -0.71933979245794832 0.75 0 0 1 I I -0.70710678118654757 0.70710678118654757 0.75 forward I I I I #
loop $-1 $-1 $337 $84 #
coedge $-1 $213 $213 $338 $339 reversed $134 $-1 #
face $-1 $340 $341 $51 $-1 $342 reversed single #
loop $-1 $-1 $343 $136 #
plane-surface $-1 0 -21.094354885208794 0 0 1 0 0 0 1 forward_v I I I I #
coedge $-1 $344 $345 $346 $347 forward $137 $-1 #
coedge $-1 $348 $139 $349 $350 forward $86 $-1 #
coedge $-1 $139 $348 $351 $352 forward $86 $-1 #
coedge $-1 $353 $354 $139 $221 reversed $355 $-1 #
edge $-1 $356 -21.094354885208794 $357 21.094354885208794 $220 $358 forward 7 unknown #
face $-1 $359 $360 $52 $-1 $361 reversed single #
loop $-1 $-1 $362 $140 #
plane-surface $-1 -43.066635158835624 -9.6611797379067568 0 -1 0 0 0 0 1 forward_v I I I I #
coedge $-1 $363 $364 $365 $366 forward $141 $-1 #
coedge $-1 $367 $143 $368 $369 reversed $89 $-1 #
coedge $-1 $143 $367 $370 $371 reversed $89 $-1 #
coedge $-1 $372 $373 $143 $229 forward $374 $-1 #
edge $-1 $375 -6.6969281766521664 $376 6.6969281766521664 $228 $377 forward 7 unknown #
face $-1 $378 $379 $53 $-1 $380 reversed single #
loop $-1 $-1 $381 $144 #
plane-surface $-1 -31.467585310497341 50.159852767803109 104.91262492434996 -1 0 0 0 0.62932039886446345 0.77714595512881146 forward_v I I I I #
coedge $-1 $382 $383 $384 $385 reversed $145 $-1 #
coedge $-1 $235 $147 $386 $387 reversed $92 $-1 #
coedge $-1 $147 $234 $382 $388 reversed $92 $-1 #
coedge $-1 $384 $389 $147 $237 forward $390 $-1 #
edge $-1 $391 3.9855714986927602 $392 9.8090077413004693 $236 $393 forward 7 unknown #
loop $-1 $-1 $243 $148 #
plane-surface $-1 -37.267110234666482 -11.692430264974597 28.531418052398465 0 0.62932039886446345 0.77714595512881146 1 0 0 forward_v I I I I #
loop $-1 $-1 $394 $94 #
coedge $-1 $241 $241 $242 $395 reversed $149 $-1 #
coedge $-1 $242 $242 $241 $395 forward $151 $-1 #
coedge $-1 $243 $243 $152 $244 forward $238 $-1 #
edge $-1 $396 -1.0728750326545172e-015 $396 6.2831853071795996 $243 $397 forward 7 unknown #
loop $-1 $-1 $250 $153 #
plane-surface $-1 -37.267110234666482 -11.692430264974597 28.531418052398465 0 0.62932039886446345 0.77714595512881146 1 0 0 forward_v I I I I #
loop $-1 $-1 $398 $97 #
coedge $-1 $248 $248 $249 $399 reversed $154 $-1 #
coedge $-1 $249 $249 $248 $399 forward $156 $-1 #
coedge $-1 $250 $250 $157 $251 forward $245 $-1 #
edge $-1 $400 -1.0728750326545172e-015 $400 6.2831853071795996 $250 $401 forward 7 unknown #
face $-1 $402 $403 $56 $-1 $404 forward single #
loop $-1 $-1 $405 $158 #
plane-surface $-1 -4.5976819741216541 50.159852767803109 104.91262492434996 -1 0 0 0 0.62932039886446345 0.77714595512881146 forward_v I I I I #
coedge $-1 $406 $407 $408 $409 reversed $159 $-1 #
coedge $-1 $257 $161 $410 $411 reversed $101 $-1 #
coedge $-1 $161 $256 $406 $412 reversed $101 $-1 #
coedge $-1 $408 $413 $161 $259 forward $403 $-1 #
edge $-1 $414 3.9855714986927602 $415 9.8090077413004693 $258 $416 forward 7 unknown #
loop $-1 $-1 $265 $162 #
plane-surface $-1 -10.397206898290797 -11.692430264974597 28.531418052398465 0 0.62932039886446345 0.77714595512881146 1 0 0 forward_v I I I I #
loop $-1 $-1 $417 $103 #
coedge $-1 $263 $263 $264 $418 reversed $163 $-1 #
coedge $-1 $264 $264 $263 $418 forward $165 $-1 #
coedge $-1 $265 $265 $166 $266 forward $260 $-1 #
edge $-1 $419 -1.0728750326545172e-015 $419 6.2831853071795996 $265 $420 forward 7 unknown #
loop $-1 $-1 $272 $167 #
plane-surface $-1 -10.397206898290797 -11.692430264974597 28.531418052398465 0 0.62932039886446345 0.77714595512881146 1 0 0 forward_v I I I I #
loop $-1 $-1 $421 $106 #
coedge $-1 $270 $270 $271 $422 reversed $168 $-1 #
coedge $-1 $271 $271 $270 $422 forward $170 $-1 #
coedge $-1 $272 $272 $171 $273 forward $267 $-1 #
edge $-1 $423 -1.0728750326545172e-015 $423 6.2831853071795996 $272 $424 forward 7 unknown #
face $-1 $425 $426 $59 $-1 $427 forward single #
loop $-1 $-1 $428 $172 #
plane-surface $-1 22.272221362254022 50.159852767803109 104.91262492434996 -1 0 0 0 0.62932039886446345 0.77714595512881146 forward_v I I I I #
coedge $-1 $429 $430 $431 $432 reversed $173 $-1 #
coedge $-1 $279 $175 $433 $434 reversed $110 $-1 #
coedge $-1 $175 $278 $429 $435 reversed $110 $-1 #
coedge $-1 $431 $436 $175 $281 forward $426 $-1 #
edge $-1 $437 3.9855714986927602 $438 9.8090077413004693 $280 $439 forward 7 unknown #
loop $-1 $-1 $287 $176 #
plane-surface $-1 16.472696438084881 -11.692430264974597 28.531418052398465 0 0.62932039886446345 0.77714595512881146 1 0 0 forward_v I I I I #
loop $-1 $-1 $440 $112 #
coedge $-1 $285 $285 $286 $441 reversed $177 $-1 #
coedge $-1 $286 $286 $285 $441 forward $179 $-1 #
coedge $-1 $287 $287 $180 $288 forward $282 $-1 #
edge $-1 $442 -1.0728750326545172e-015 $442 6.2831853071795996 $287 $443 forward 7 unknown #
loop $-1 $-1 $294 $181 #
plane-surface $-1 16.472696438084881 -11.692430264974597 28.531418052398465 0 0.62932039886446345 0.77714595512881146 1 0 0 forward_v I I I I #
loop $-1 $-1 $444 $115 #
coedge $-1 $292 $292 $293 $445 reversed $182 $-1 #
coedge $-1 $293 $293 $292 $445 forward $184 $-1 #
coedge $-1 $294 $294 $185 $295 forward $289 $-1 #
edge $-1 $446 -1.0728750326545172e-015 $446 6.2831853071795996 $294 $447 forward 7 unknown #
face $-1 $448 $449 $62 $-1 $450 reversed single #
loop $-1 $-1 $302 $186 #
plane-surface $-1 0 0 6.6969281766521664 0 0 1 1 0 0 forward_v I I I I #
coedge $-1 $451 $452 $453 $454 reversed $187 $-1 #
coedge $-1 $301 $189 $455 $456 reversed $119 $-1 #
coedge $-1 $189 $300 $451 $457 reversed $119 $-1 #
coedge $-1 $453 $458 $189 $303 forward $297 $-1 #
edge $-1 $459 3.9855714986927602 $460 9.8090077413004693 $302 $461 forward 7 unknown #
loop $-1 $-1 $309 $190 #
plane-surface $-1 43.342599774460567 -11.692430264974597 28.531418052398465 0 0.62932039886446345 0.77714595512881146 1 0 0 forward_v I I I I #
loop $-1 $-1 $462 $121 #
coedge $-1 $307 $307 $308 $463 reversed $191 $-1 #
coedge $-1 $308 $308 $307 $463 forward $193 $-1 #
coedge $-1 $309 $309 $194 $310 forward $304 $-1 #
edge $-1 $464 -1.0728750326545172e-015 $464 6.2831853071795996 $309 $465 forward 7 unknown #
loop $-1 $-1 $316 $195 #
plane-surface $-1 43.342599774460567 -11.692430264974597 28.531418052398465 0 0.62932039886446345 0.77714595512881146 1 0 0 forward_v I I I I #
loop $-1 $-1 $466 $124 #
coedge $-1 $314 $314 $315 $467 reversed $196 $-1 #
coedge $-1 $315 $315 $314 $467 forward $198 $-1 #
coedge $-1 $316 $316 $199 $317 forward $311 $-1 #
edge $-1 $468 -1.0728750326545172e-015 $468 6.2831853071795996 $316 $469 forward 7 unknown #
face $-1 $470 $471 $65 $-1 $472 reversed single #
loop $-1 $-1 $324 $200 #
plane-surface $-1 0 0 6.6969281766521664 0 0 1 1 0 0 forward_v I I I I #
coedge $-1 $473 $474 $475 $476 reversed $201 $-1 #
coedge $-1 $477 $203 $478 $479 reversed $128 $-1 #
coedge $-1 $203 $477 $473 $480 forward $128 $-1 #
coedge $-1 $475 $481 $203 $325 forward $319 $-1 #
edge $-1 $482 -28.776344050782789 $483 -11.955217244911061 $324 $484 forward 7 unknown #
loop $-1 $-1 $331 $204 #
plane-surface $-1 40.731561295693851 -21.094354885208773 0.50804979337335965 0 -0.69465837861970381 0.71933979245794832 1 0 0 forward_v I I I I #
loop $-1 $-1 $485 $130 #
coedge $-1 $329 $329 $330 $486 reversed $205 $-1 #
coedge $-1 $330 $330 $329 $486 forward $207 $-1 #
coedge $-1 $331 $331 $208 $332 forward $326 $-1 #
edge $-1 $487 -5.8669238041313379e-016 $487 6.2831853071795996 $331 $488 forward 7 unknown #
loop $-1 $-1 $338 $209 #
plane-surface $-1 40.731561295693851 -21.094354885208773 0.50804979337335965 0 -0.69465837861970381 0.71933979245794832 1 0 0 forward_v I I I I #
loop $-1 $-1 $489 $133 #
coedge $-1 $336 $336 $337 $490 reversed $210 $-1 #
coedge $-1 $337 $337 $336 $490 forward $212 $-1 #
coedge $-1 $338 $338 $213 $339 forward $333 $-1 #
edge $-1 $491 -5.8669238041313379e-016 $491 6.2831853071795996 $338 $492 forward 7 unknown #
face $-1 $493 $494 $51 $-1 $495 reversed single #
loop $-1 $-1 $496 $214 #
plane-surface $-1 -49.142124698629715 0 0 1 0 0 0 0 -1 forward_v I I I I #
coedge $-1 $497 $351 $498 $499 forward $215 $-1 #
coedge $-1 $500 $217 $497 $501 forward $137 $-1 #
coedge $-1 $217 $500 $502 $503 forward $137 $-1 #
coedge $-1 $354 $353 $217 $347 reversed $355 $-1 #
edge $-1 $504 -21.094354885208794 $505 21.094354885208794 $346 $506 forward 7 unknown #
coedge $-1 $219 $218 $507 $508 forward $86 $-1 #
coedge $-1 $509 $510 $218 $350 reversed $494 $-1 #
edge $-1 $357 -49.142124698629715 $511 49.142124698629715 $349 $512 forward 7 unknown #
coedge $-1 $343 $513 $219 $352 reversed $215 $-1 #
edge $-1 $514 -49.142124698629715 $356 49.142124698629715 $351 $515 forward 7 unknown #
coedge $-1 $346 $220 $513 $516 forward $355 $-1 #
coedge $-1 $220 $346 $509 $517 reversed $355 $-1 #
loop $-1 $-1 $353 $493 #
vertex $-1 $221 $518 #
vertex $-1 $221 $519 #
straight-curve $-1 49.142124698629715 0 6.6969281766521664 0 1 0 I I #
face $-1 $520 $521 $52 $-1 $522 forward single #
loop $-1 $-1 $523 $222 #
plane-surface $-1 0 0 -6.6969281766521664 0 0 1 1 0 0 forward_v I I I I #
coedge $-1 $524 $525 $367 $526 forward $223 $-1 #
coedge $-1 $527 $225 $523 $528 reversed $141 $-1 #
coedge $-1 $225 $527 $529 $530 reversed $141 $-1 #
coedge $-1 $525 $524 $225 $366 reversed $223 $-1 #
edge $-1 $531 -6.6969281766521664 $532 6.6969281766521664 $365 $533 forward 7 unknown #
coedge $-1 $227 $226 $362 $526 reversed $89 $-1 #
coedge $-1 $534 $535 $226 $369 forward $360 $-1 #
edge $-1 $536 20.014445194469289 $375 26.08993473426338 $368 $537 forward 7 unknown #
coedge $-1 $538 $539 $227 $371 forward $521 $-1 #
edge $-1 $376 -26.08993473426338 $540 -20.014445194469289 $370 $541 forward 7 unknown #
coedge $-1 $542 $228 $539 $543 reversed $374 $-1 #
coedge $-1 $228 $542 $534 $544 reversed $374 $-1 #
loop $-1 $-1 $542 $520 #
vertex $-1 $544 $545 #
vertex $-1 $229 $546 #
straight-curve $-1 -49.142124698629715 -11.621860943909052 0 0 0 1 I I #
face $-1 $-1 $390 $53 $-1 $547 forward single #
loop $-1 $-1 $548 $230 #
plane-surface $-1 0 21.094354885208794 0 0 -1 0 0 0 -1 forward_v I I I I #
coedge $-1 $549 $550 $551 $552 reversed $231 $-1 #
coedge $-1 $553 $233 $235 $388 forward $145 $-1 #
coedge $-1 $233 $553 $549 $554 forward $145 $-1 #
coedge $-1 $551 $236 $233 $385 forward $390 $-1 #
edge $-1 $392 -24.433080041502382 $555 -12.8340301931641 $384 $556 forward 7 unknown #
coedge $-1 $557 $558 $234 $387 forward $379 $-1 #
edge $-1 $559 -50.475110070072787 $391 -45.759384285522813 $386 $560 forward 7 unknown #
edge $-1 $392 34.695347417856048 $559 42.188709770417574 $235 $561 forward 7 unknown #
coedge $-1 $236 $551 $557 $562 forward $390 $-1 #
loop $-1 $-1 $551 $378 #
vertex $-1 $387 $563 #
vertex $-1 $237 $564 #
straight-curve $-1 -43.066635158835624 25.079926383901554 6.6969281766521647 0 -1 0 I I #
coedge $-1 $394 $394 $-1 $565 reversed $240 $-1 #
edge $-1 $566 0 $566 6.2831853071796004 $241 $567 forward 7 unknown #
vertex $-1 $244 $568 #
ellipse-curve $-1 -39.752620916453253 18.182636763904938 4.3390652843771731 0 0.62932039886446345 0.77714595512881146 1.5 0 0 1 I I #
coedge $-1 $398 $398 $-1 $569 reversed $247 $-1 #
edge $-1 $570 0 $570 6.2831853071796004 $248 $571 forward 7 unknown #
vertex $-1 $251 $572 #
ellipse-curve $-1 -34.781599552879705 18.182636763904938 4.3390652843771731 0 0.62932039886446345 0.77714595512881146 1.5 0 0 1 I I #
face $-1 $-1 $573 $56 $-1 $574 reversed single #
loop $-1 $-1 $258 $252 #
plane-surface $-1 0 0 6.6969281766521664 0 0 1 1 0 0 forward_v I I I I #
coedge $-1 $575 $576 $577 $578 reversed $253 $-1 #
coedge $-1 $579 $255 $257 $412 forward $159 $-1 #
coedge $-1 $255 $579 $575 $580 forward $159 $-1 #
coedge $-1 $577 $258 $255 $409 forward $403 $-1 #
edge $-1 $415 -10.99812837331454 $581 0.60092147502374438 $408 $582 forward 7 unknown #
coedge $-1 $583 $584 $256 $411 forward $573 $-1 #
edge $-1 $585 -50.475110070072787 $414 -45.759384285522813 $410 $586 forward 7 unknown #
edge $-1 $415 34.695347417856048 $585 42.188709770417574 $257 $587 forward 7 unknown #
coedge $-1 $258 $577 $583 $588 forward $403 $-1 #
vertex $-1 $411 $589 #
vertex $-1 $259 $590 #
straight-curve $-1 -16.196731822459938 25.079926383901554 6.6969281766521647 0 -1 0 I I #
coedge $-1 $417 $417 $-1 $591 reversed $262 $-1 #
edge $-1 $592 0 $592 6.2831853071796004 $263 $593 forward 7 unknown #
vertex $-1 $266 $594 #
ellipse-curve $-1 -12.882717580077568 18.182636763904938 4.3390652843771731 0 0.62932039886446345 0.77714595512881146 1.5 0 0 1 I I #
coedge $-1 $421 $421 $-1 $595 reversed $269 $-1 #
edge $-1 $596 0 $596 6.2831853071796004 $270 $597 forward 7 unknown #
vertex $-1 $273 $598 #
ellipse-curve $-1 -7.9116962165040192 18.182636763904938 4.3390652843771731 0 0.62932039886446345 0.77714595512881146 1.5 0 0 1 I I #
face $-1 $-1 $599 $59 $-1 $600 reversed single #
loop $-1 $-1 $280 $274 #
plane-surface $-1 0 0 6.6969281766521664 0 0 1 1 0 0 forward_v I I I I #
coedge $-1 $601 $602 $603 $604 reversed $275 $-1 #
coedge $-1 $605 $277 $279 $435 forward $173 $-1 #
coedge $-1 $277 $605 $601 $606 forward $173 $-1 #
coedge $-1 $603 $280 $277 $432 forward $426 $-1 #
edge $-1 $438 2.4368232948732977 $607 14.035873143211582 $431 $608 forward 7 unknown #
coedge $-1 $609 $610 $278 $434 forward $599 $-1 #
edge $-1 $611 -50.475110070072787 $437 -45.759384285522813 $433 $612 forward 7 unknown #
edge $-1 $438 34.695347417856048 $611 42.188709770417574 $279 $613 forward 7 unknown #
coedge $-1 $280 $603 $609 $614 forward $426 $-1 #
vertex $-1 $281 $615 #
vertex $-1 $281 $616 #
straight-curve $-1 10.673171513915738 25.079926383901554 6.6969281766521647 0 -1 0 I I #
coedge $-1 $440 $440 $-1 $617 reversed $284 $-1 #
edge $-1 $618 0 $618 6.2831853071796004 $285 $619 forward 7 unknown #
vertex $-1 $288 $620 #
ellipse-curve $-1 13.987185756298118 18.182636763904938 4.3390652843771731 0 0.62932039886446345 0.77714595512881146 1.5 0 0 1 I I #
coedge $-1 $444 $444 $-1 $621 reversed $291 $-1 #
edge $-1 $622 0 $622 6.2831853071796004 $292 $623 forward 7 unknown #
vertex $-1 $295 $624 #
ellipse-curve $-1 18.958207119871673 18.182636763904938 4.3390652843771731 0 0.62932039886446345 0.77714595512881146 1.5 0 0 1 I I #
face $-1 $-1 $625 $62 $-1 $626 reversed single #
loop $-1 $-1 $627 $296 #
plane-surface $-1 49.142124698629715 0 0 -1 0 0 0 0 1 forward_v I I I I #
coedge $-1 $628 $299 $301 $457 forward $187 $-1 #
coedge $-1 $299 $628 $627 $629 reversed $187 $-1 #
coedge $-1 $630 $302 $299 $454 forward $297 $-1 #
edge $-1 $460 15.871774963061142 $631 27.470824811399424 $453 $632 forward 7 unknown #
coedge $-1 $633 $634 $300 $456 forward $625 $-1 #
edge $-1 $635 -50.475110070072787 $459 -45.759384285522813 $455 $636 forward 7 unknown #
edge $-1 $460 34.695347417856048 $635 42.188709770417574 $301 $637 forward 7 unknown #
coedge $-1 $302 $630 $633 $638 forward $297 $-1 #
vertex $-1 $456 $639 #
vertex $-1 $303 $640 #
straight-curve $-1 37.543074850291426 25.079926383901554 6.6969281766521647 0 -1 0 I I #
coedge $-1 $462 $462 $-1 $641 reversed $306 $-1 #
edge $-1 $642 0 $642 6.2831853071796004 $307 $643 forward 7 unknown #
vertex $-1 $310 $644 #
ellipse-curve $-1 40.857089092673803 18.182636763904938 4.3390652843771731 0 0.62932039886446345 0.77714595512881146 1.5 0 0 1 I I #
coedge $-1 $466 $466 $-1 $645 reversed $313 $-1 #
edge $-1 $646 0 $646 6.2831853071796004 $314 $647 forward 7 unknown #
vertex $-1 $317 $648 #
ellipse-curve $-1 45.828110456247359 18.182636763904938 4.3390652843771731 0 0.62932039886446345 0.77714595512881146 1.5 0 0 1 I I #
face $-1 $-1 $649 $65 $-1 $650 reversed single #
loop $-1 $-1 $651 $318 #
plane-surface $-1 0 -21.094354885208794 0 0 1 0 0 0 1 forward_v I I I I #
coedge $-1 $474 $321 $323 $480 reversed $201 $-1 #
coedge $-1 $321 $473 $652 $653 reversed $201 $-1 #
coedge $-1 $654 $324 $321 $476 forward $319 $-1 #
edge $-1 $483 -29.998582251221379 $655 -23.58981122247301 $475 $656 forward 7 unknown #
coedge $-1 $323 $322 $651 $657 reversed $128 $-1 #
coedge $-1 $658 $659 $322 $479 forward $649 $-1 #
edge $-1 $660 -7.4105439097188164 $482 1.4986963352145533 $478 $661 forward 7 unknown #
edge $-1 $662 -2.9601325856784129e-014 $483 8.9092402449333399 $473 $663 forward 7 unknown #
coedge $-1 $324 $654 $658 $664 forward $319 $-1 #
vertex $-1 $479 $665 #
vertex $-1 $325 $666 #
straight-curve $-1 20.365780647846925 -14.685583856460424 6.6969281766521664 -1 0 0 I I #
coedge $-1 $485 $485 $-1 $667 reversed $328 $-1 #
edge $-1 $668 0 $668 6.2831853071796004 $329 $669 forward 7 unknown #
vertex $-1 $332 $670 #
ellipse-curve $-1 37.12703412300705 -17.88996937083461 3.6024889850127515 0 -0.69465837861970381 0.71933979245794832 1.5 0 0 1 I I #
coedge $-1 $489 $489 $-1 $671 reversed $335 $-1 #
edge $-1 $672 0 $672 6.2831853071796004 $336 $673 forward 7 unknown #
vertex $-1 $339 $674 #
ellipse-curve $-1 44.336088468380652 -17.88996937083461 3.6024889850127515 0 -0.69465837861970381 0.71933979245794832 1.5 0 0 1 I I #
face $-1 $-1 $355 $51 $-1 $675 reversed single #
loop $-1 $-1 $509 $340 #
plane-surface $-1 0 21.094354885208794 0 0 -1 0 0 0 -1 forward_v I I I I #
coedge $-1 $676 $507 $510 $677 forward $341 $-1 #
coedge $-1 $513 $343 $344 $501 reversed $215 $-1 #
coedge $-1 $507 $676 $343 $499 reversed $341 $-1 #
edge $-1 $514 -6.6969281766521664 $678 6.6969281766521664 $498 $679 forward 7 unknown #
coedge $-1 $345 $344 $676 $680 forward $137 $-1 #
edge $-1 $505 -49.142124698629715 $678 49.142124698629715 $497 $681 forward 7 unknown #
coedge $-1 $510 $509 $345 $503 reversed $494 $-1 #
edge $-1 $682 -49.142124698629715 $504 49.142124698629715 $502 $683 forward 7 unknown #
vertex $-1 $347 $684 #
vertex $-1 $516 $685 #
straight-curve $-1 49.142124698629715 0 -6.6969281766521664 0 -1 0 I I #
coedge $-1 $496 $498 $348 $508 reversed $341 $-1 #
edge $-1 $511 -21.094354885208794 $514 21.094354885208794 $507 $686 forward 7 unknown #
coedge $-1 $502 $349 $354 $517 forward $494 $-1 #
coedge $-1 $349 $502 $496 $677 reversed $494 $-1 #
vertex $-1 $350 $687 #
straight-curve $-1 0 21.094354885208794 6.6969281766521664 -1 0 0 I I #
coedge $-1 $351 $497 $353 $516 reversed $215 $-1 #
vertex $-1 $508 $688 #
straight-curve $-1 0 -21.094354885208794 6.6969281766521664 1 0 0 I I #
edge $-1 $356 -6.6969281766521664 $505 6.6969281766521664 $353 $689 forward 7 unknown #
edge $-1 $357 -6.6969281766521664 $504 6.6969281766521664 $354 $690 forward 7 unknown #
point $-1 49.142124698629715 -21.094354885208794 6.6969281766521664 #
point $-1 49.142124698629715 21.094354885208794 6.6969281766521664 #
face $-1 $-1 $374 $52 $-1 $691 reversed single #
loop $-1 $-1 $529 $359 #
plane-surface $-1 0 0 6.6969281766521664 0 0 1 1 0 0 forward_v I I I I #
coedge $-1 $535 $534 $363 $528 forward $360 $-1 #
coedge $-1 $365 $362 $535 $692 reversed $223 $-1 #
coedge $-1 $362 $365 $538 $693 reversed $223 $-1 #
edge $-1 $540 -6.6969281766521664 $536 6.6969281766521664 $362 $694 forward 7 unknown #
coedge $-1 $364 $363 $542 $695 reversed $141 $-1 #
edge $-1 $696 -26.08993473426338 $532 -20.014445194469289 $523 $697 forward 7 unknown #
coedge $-1 $539 $538 $364 $530 forward $521 $-1 #
edge $-1 $531 20.014445194469289 $698 26.08993473426338 $529 $699 forward 7 unknown #
vertex $-1 $530 $700 #
vertex $-1 $528 $701 #
straight-curve $-1 -43.066635158835624 -7.7004985319044614 0 0 0 -1 I I #
coedge $-1 $523 $368 $373 $544 forward $360 $-1 #
coedge $-1 $368 $523 $524 $692 forward $360 $-1 #
vertex $-1 $369 $702 #
straight-curve $-1 -23.052189964366335 -11.621860943909052 -6.6969281766521664 -1 0 0 I I #
coedge $-1 $529 $370 $525 $693 forward $521 $-1 #
coedge $-1 $370 $529 $372 $543 forward $521 $-1 #
vertex $-1 $371 $703 #
straight-curve $-1 -23.052189964366335 -11.621860943909052 6.6969281766521664 1 0 0 I I #
coedge $-1 $373 $372 $527 $695 forward $374 $-1 #
edge $-1 $698 7.7004985319044614 $376 11.621860943909052 $372 $704 forward 7 unknown #
edge $-1 $375 -11.621860943909052 $696 -7.7004985319044614 $373 $705 forward 7 unknown #
point $-1 -49.142124698629715 -11.621860943909052 -6.6969281766521664 #
point $-1 -49.142124698629715 -11.621860943909052 6.6969281766521664 #
plane-surface $-1 0 0 6.6969281766521664 0 0 1 1 0 0 forward_v I I I I #
coedge $-1 $558 $557 $550 $706 forward $379 $-1 #
coedge $-1 $550 $381 $383 $554 reversed $231 $-1 #
coedge $-1 $381 $549 $548 $706 reversed $231 $-1 #
coedge $-1 $389 $384 $381 $552 forward $390 $-1 #
edge $-1 $555 -9.8090077413004693 $707 -3.9855714986927602 $551 $708 forward 7 unknown #
coedge $-1 $383 $382 $558 $709 reversed $145 $-1 #
edge $-1 $710 -42.188709770417574 $555 -34.695347417856048 $549 $711 forward 7 unknown #
vertex $-1 $385 $712 #
straight-curve $-1 -18.633555117333241 15.270918642601087 6.6969281766521629 1 0 0 I I #
coedge $-1 $548 $386 $389 $562 reversed $379 $-1 #
coedge $-1 $386 $548 $553 $709 forward $379 $-1 #
vertex $-1 $387 $713 #
straight-curve $-1 -43.066635158835624 21.094354885208794 52.456312462174978 0 0 1 I I #
straight-curve $-1 -43.066635158835624 -11.692430264974597 28.531418052398465 0 0.77714595512881146 -0.62932039886446345 I I #
edge $-1 $707 31.467585310497341 $391 43.066635158835624 $557 $714 forward 7 unknown #
point $-1 -43.066635158835624 21.094354885208794 6.6969281766521664 #
point $-1 -43.066635158835624 15.270918642601085 6.6969281766521647 #
edge $-1 $715 1 $715 0 $394 $-1 forward 7 unknown #
vertex $-1 $395 $716 #
ellipse-curve $-1 -39.752620916453253 16.519586499984729 2.2853692845120168 0 0.62932039886446345 0.77714595512881146 1.5 0 0 1 I I #
point $-1 -38.252620916453253 18.182636763904931 4.3390652843771669 #
edge $-1 $717 1 $717 0 $398 $-1 forward 7 unknown #
vertex $-1 $399 $718 #
ellipse-curve $-1 -34.781599552879705 16.519586499984729 2.2853692845120168 0 0.62932039886446345 0.77714595512881146 1.5 0 0 1 I I #
point $-1 -33.281599552879705 18.182636763904931 4.3390652843771669 #
loop $-1 $-1 $410 $402 #
plane-surface $-1 0 21.094354885208794 0 0 -1 0 0 0 -1 forward_v I I I I #
coedge $-1 $576 $405 $407 $580 reversed $253 $-1 #
coedge $-1 $405 $575 $719 $720 reversed $253 $-1 #
coedge $-1 $413 $408 $405 $578 forward $403 $-1 #
edge $-1 $581 -9.8090077413004693 $721 -3.9855714986927602 $577 $722 forward 7 unknown #
coedge $-1 $407 $406 $584 $723 reversed $159 $-1 #
edge $-1 $724 -42.188709770417574 $581 -34.695347417856048 $575 $725 forward 7 unknown #
vertex $-1 $409 $726 #
straight-curve $-1 -5.1986034491453985 15.270918642601087 6.6969281766521629 1 0 0 I I #
coedge $-1 $719 $410 $413 $588 reversed $573 $-1 #
coedge $-1 $410 $719 $579 $723 forward $573 $-1 #
vertex $-1 $411 $727 #
straight-curve $-1 -16.196731822459938 21.094354885208794 52.456312462174978 0 0 1 I I #
straight-curve $-1 -16.196731822459938 -11.692430264974597 28.531418052398465 0 0.77714595512881146 -0.62932039886446345 I I #
edge $-1 $721 4.5976819741216541 $414 16.196731822459938 $583 $728 forward 7 unknown #
point $-1 -16.196731822459938 21.094354885208794 6.6969281766521664 #
point $-1 -16.196731822459938 15.270918642601085 6.6969281766521647 #
edge $-1 $729 1 $729 0 $417 $-1 forward 7 unknown #
vertex $-1 $418 $730 #
ellipse-curve $-1 -12.882717580077568 16.519586499984729 2.2853692845120168 0 0.62932039886446345 0.77714595512881146 1.5 0 0 1 I I #
point $-1 -11.382717580077568 18.182636763904931 4.3390652843771669 #
edge $-1 $731 1 $731 0 $421 $-1 forward 7 unknown #
vertex $-1 $422 $732 #
ellipse-curve $-1 -7.9116962165040192 16.519586499984729 2.2853692845120168 0 0.62932039886446345 0.77714595512881146 1.5 0 0 1 I I #
point $-1 -6.4116962165040192 18.182636763904931 4.3390652843771669 #
loop $-1 $-1 $433 $425 #
plane-surface $-1 0 21.094354885208794 0 0 -1 0 0 0 -1 forward_v I I I I #
coedge $-1 $602 $428 $430 $606 reversed $275 $-1 #
coedge $-1 $428 $601 $733 $734 reversed $275 $-1 #
coedge $-1 $436 $431 $428 $604 forward $426 $-1 #
edge $-1 $607 -9.8090077413004693 $735 -3.9855714986927602 $603 $736 forward 7 unknown #
coedge $-1 $430 $429 $610 $737 reversed $173 $-1 #
edge $-1 $738 -42.188709770417574 $607 -34.695347417856048 $601 $739 forward 7 unknown #
vertex $-1 $432 $740 #
straight-curve $-1 8.2363482190424406 15.270918642601087 6.6969281766521629 1 0 0 I I #
coedge $-1 $733 $433 $436 $614 reversed $599 $-1 #
coedge $-1 $433 $733 $605 $737 forward $599 $-1 #
vertex $-1 $434 $741 #
straight-curve $-1 10.673171513915738 21.094354885208794 52.456312462174978 0 0 1 I I #
straight-curve $-1 10.673171513915738 -11.692430264974597 28.531418052398465 0 0.77714595512881146 -0.62932039886446345 I I #
edge $-1 $735 -22.272221362254022 $437 -10.673171513915738 $609 $742 forward 7 unknown #
point $-1 10.673171513915738 21.094354885208794 6.6969281766521664 #
point $-1 10.673171513915738 15.270918642601085 6.6969281766521647 #
edge $-1 $743 1 $743 0 $440 $-1 forward 7 unknown #
vertex $-1 $441 $744 #
ellipse-curve $-1 13.987185756298118 16.519586499984729 2.2853692845120168 0 0.62932039886446345 0.77714595512881146 1.5 0 0 1 I I #
point $-1 15.487185756298118 18.182636763904931 4.3390652843771669 #
edge $-1 $745 1 $745 0 $444 $-1 forward 7 unknown #
vertex $-1 $445 $746 #
ellipse-curve $-1 18.958207119871673 16.519586499984729 2.2853692845120168 0 0.62932039886446345 0.77714595512881146 1.5 0 0 1 I I #
point $-1 20.458207119871673 18.182636763904931 4.3390652843771669 #
loop $-1 $-1 $455 $448 #
plane-surface $-1 0 21.094354885208794 0 0 -1 0 0 0 -1 forward_v I I I I #
coedge $-1 $747 $748 $452 $629 forward $449 $-1 #
coedge $-1 $452 $451 $634 $749 reversed $187 $-1 #
edge $-1 $631 21.174283280378621 $750 28.66764563294015 $627 $751 forward 7 unknown #
coedge $-1 $458 $453 $748 $752 forward $297 $-1 #
vertex $-1 $752 $753 #
straight-curve $-1 21.671299887230283 15.270918642601087 6.6969281766521629 1 0 0 I I #
coedge $-1 $754 $455 $458 $638 reversed $625 $-1 #
coedge $-1 $455 $754 $628 $749 forward $625 $-1 #
vertex $-1 $456 $755 #
straight-curve $-1 37.543074850291426 21.094354885208794 52.456312462174978 0 0 1 I I #
straight-curve $-1 37.543074850291426 -11.692430264974597 28.531418052398465 0 0.77714595512881146 -0.62932039886446345 I I #
edge $-1 $756 -49.142124698629715 $459 -37.543074850291426 $633 $757 forward 7 unknown #
point $-1 37.543074850291426 21.094354885208794 6.6969281766521664 #
point $-1 37.543074850291426 15.270918642601085 6.6969281766521647 #
edge $-1 $758 1 $758 0 $462 $-1 forward 7 unknown #
vertex $-1 $463 $759 #
ellipse-curve $-1 40.857089092673803 16.519586499984729 2.2853692845120168 0 0.62932039886446345 0.77714595512881146 1.5 0 0 1 I I #
point $-1 42.357089092673803 18.182636763904931 4.3390652843771669 #
edge $-1 $760 1 $760 0 $466 $-1 forward 7 unknown #
vertex $-1 $467 $761 #
ellipse-curve $-1 45.828110456247359 16.519586499984729 2.2853692845120168 0 0.62932039886446345 0.77714595512881146 1.5 0 0 1 I I #
point $-1 47.328110456247359 18.182636763904931 4.3390652843771669 #
loop $-1 $-1 $478 $470 #
plane-surface $-1 49.142124698629715 0 0 -1 0 0 0 0 1 forward_v I I I I #
coedge $-1 $762 $652 $477 $657 forward $471 $-1 #
coedge $-1 $651 $763 $474 $653 forward $471 $-1 #
edge $-1 $655 28.906982501689427 $662 35.095860884968253 $652 $764 forward 7 unknown #
coedge $-1 $481 $475 $763 $765 forward $319 $-1 #
vertex $-1 $765 $766 #
straight-curve $-1 32.320997892757987 -44.684166107681804 6.6969281766521647 0 -1 0 I I #
edge $-1 $662 11.955217244911061 $660 28.776344050782789 $651 $767 forward 7 unknown #
coedge $-1 $659 $478 $481 $664 reversed $649 $-1 #
coedge $-1 $478 $658 $762 $768 forward $649 $-1 #
vertex $-1 $657 $769 #
straight-curve $-1 49.142124698629715 -15.763655767191148 5.6558462103887326 0 0.71933979245794832 0.69465837861970381 I I #
vertex $-1 $657 $770 #
straight-curve $-1 32.320997892757987 -21.094354885208773 0.50804979337335965 0 0.71933979245794832 0.69465837861970381 I I #
edge $-1 $771 -21.094354885208794 $482 -14.685583856460424 $658 $772 forward 7 unknown #
point $-1 49.142124698629715 -14.685583856460424 6.6969281766521664 #
point $-1 32.320997892757987 -14.685583856460424 6.6969281766521664 #
edge $-1 $773 1 $773 0 $485 $-1 forward 7 unknown #
vertex $-1 $486 $774 #
ellipse-curve $-1 37.12703412300705 -13.999823090737008 -0.42587532165091313 0 -0.69465837861970381 0.71933979245794832 1.5 0 0 1 I I #
point $-1 38.62703412300705 -17.889969370834621 3.6024889850127613 #
edge $-1 $775 1 $775 0 $489 $-1 forward 7 unknown #
vertex $-1 $490 $776 #
ellipse-curve $-1 44.336088468380652 -13.999823090737008 -0.42587532165091313 0 -0.69465837861970381 0.71933979245794832 1.5 0 0 1 I I #
point $-1 45.836088468380652 -17.889969370834621 3.6024889850127613 #
plane-surface $-1 49.142124698629715 0 0 -1 0 0 0 0 1 forward_v I I I I #
coedge $-1 $498 $496 $500 $680 reversed $341 $-1 #
edge $-1 $511 -6.6969281766521664 $682 6.6969281766521664 $510 $777 forward 7 unknown #
vertex $-1 $680 $778 #
straight-curve $-1 -49.142124698629715 -21.094354885208794 0 0 0 -1 I I #
edge $-1 $678 -21.094354885208794 $682 21.094354885208794 $676 $779 forward 7 unknown #
straight-curve $-1 0 -21.094354885208794 -6.6969281766521664 -1 0 0 I I #
vertex $-1 $503 $780 #
straight-curve $-1 0 21.094354885208794 -6.6969281766521664 1 0 0 I I #
point $-1 49.142124698629715 21.094354885208794 -6.6969281766521664 #
point $-1 49.142124698629715 -21.094354885208794 -6.6969281766521664 #
straight-curve $-1 -49.142124698629715 0 6.6969281766521664 0 -1 0 I I #
point $-1 -49.142124698629715 21.094354885208794 6.6969281766521664 #
point $-1 -49.142124698629715 -21.094354885208794 6.6969281766521664 #
straight-curve $-1 49.142124698629715 -21.094354885208794 0 0 0 -1 I I #
straight-curve $-1 49.142124698629715 21.094354885208794 0 0 0 -1 I I #
plane-surface $-1 -49.142124698629715 0 0 1 0 0 0 0 -1 forward_v I I I I #
edge $-1 $532 2.869908662951083 $536 6.7912710749556737 $535 $781 forward 7 unknown #
edge $-1 $540 -6.7912710749556737 $531 -2.869908662951083 $538 $782 forward 7 unknown #
straight-curve $-1 -43.066635158835624 -11.621860943909052 0 0 0 -1 I I #
edge $-1 $698 -6.6969281766521664 $696 6.6969281766521664 $542 $783 forward 7 unknown #
vertex $-1 $695 $784 #
straight-curve $-1 -23.052189964366335 -7.7004985319044614 -6.6969281766521664 1 0 0 I I #
vertex $-1 $543 $785 #
straight-curve $-1 -23.052189964366335 -7.7004985319044614 6.6969281766521664 -1 0 0 I I #
point $-1 -43.066635158835624 -7.7004985319044614 6.6969281766521664 #
point $-1 -43.066635158835624 -7.7004985319044614 -6.6969281766521664 #
point $-1 -43.066635158835624 -11.621860943909052 -6.6969281766521664 #
point $-1 -43.066635158835624 -11.621860943909052 6.6969281766521664 #
straight-curve $-1 -49.142124698629715 0 6.6969281766521664 0 -1 0 I I #
straight-curve $-1 -49.142124698629715 0 -6.6969281766521664 0 1 0 I I #
edge $-1 $707 45.759384285522813 $710 50.475110070072787 $548 $786 forward 7 unknown #
vertex $-1 $562 $787 #
straight-curve $-1 -31.467585310497341 25.079926383901554 6.6969281766521647 0 1 0 I I #
edge $-1 $710 12.8340301931641 $559 24.433080041502382 $558 $788 forward 7 unknown #
vertex $-1 $709 $789 #
straight-curve $-1 -31.467585310497341 -11.692430264974597 28.531418052398465 0 -0.77714595512881146 0.62932039886446345 I I #
point $-1 -31.467585310497341 15.270918642601085 6.6969281766521647 #
point $-1 -43.066635158835624 21.094354885208794 1.9812023921021868 #
straight-curve $-1 0 21.094354885208794 6.6969281766521664 -1 0 0 I I #
vertex $-1 $565 $790 #
point $-1 -38.252620916453253 16.519586499984729 2.2853692845120168 #
vertex $-1 $569 $791 #
point $-1 -33.281599552879705 16.519586499984729 2.2853692845120168 #
coedge $-1 $584 $583 $576 $720 forward $573 $-1 #
edge $-1 $721 45.759384285522813 $724 50.475110070072787 $719 $792 forward 7 unknown #
vertex $-1 $588 $793 #
straight-curve $-1 -4.5976819741216541 25.079926383901554 6.6969281766521647 0 1 0 I I #
edge $-1 $724 -0.60092147502374438 $585 10.99812837331454 $584 $794 forward 7 unknown #
vertex $-1 $723 $795 #
straight-curve $-1 -4.5976819741216541 -11.692430264974597 28.531418052398465 0 -0.77714595512881146 0.62932039886446345 I I #
point $-1 -4.5976819741216541 15.270918642601085 6.6969281766521647 #
point $-1 -16.196731822459938 21.094354885208794 1.9812023921021868 #
straight-curve $-1 0 21.094354885208794 6.6969281766521664 -1 0 0 I I #
vertex $-1 $591 $796 #
point $-1 -11.382717580077568 16.519586499984729 2.2853692845120168 #
vertex $-1 $595 $797 #
point $-1 -6.4116962165040192 16.519586499984729 2.2853692845120168 #
coedge $-1 $610 $609 $602 $734 forward $599 $-1 #
edge $-1 $735 45.759384285522813 $738 50.475110070072787 $733 $798 forward 7 unknown #
vertex $-1 $614 $799 #
straight-curve $-1 22.272221362254022 25.079926383901554 6.6969281766521647 0 1 0 I I #
edge $-1 $738 -14.035873143211582 $611 -2.4368232948732977 $610 $800 forward 7 unknown #
vertex $-1 $737 $801 #
straight-curve $-1 22.272221362254022 -11.692430264974597 28.531418052398465 0 -0.77714595512881146 0.62932039886446345 I I #
point $-1 22.272221362254022 15.270918642601085 6.6969281766521647 #
point $-1 10.673171513915738 21.094354885208794 1.9812023921021868 #
straight-curve $-1 0 21.094354885208794 6.6969281766521664 -1 0 0 I I #
vertex $-1 $617 $802 #
point $-1 15.487185756298118 16.519586499984729 2.2853692845120168 #
vertex $-1 $621 $803 #
point $-1 20.458207119871673 16.519586499984729 2.2853692845120168 #
coedge $-1 $748 $627 $754 $804 reversed $449 $-1 #
coedge $-1 $627 $747 $630 $752 reversed $449 $-1 #
edge $-1 $750 -27.470824811399424 $635 -15.871774963061142 $634 $805 forward 7 unknown #
vertex $-1 $629 $806 #
straight-curve $-1 49.142124698629715 -1.1845899614967799 20.022336576329177 0 0.77714595512881146 -0.62932039886446345 I I #
edge $-1 $631 15.270918642601085 $756 21.094354885208794 $748 $807 forward 7 unknown #
point $-1 49.142124698629708 15.270918642601085 6.6969281766521647 #
coedge $-1 $634 $633 $747 $804 forward $625 $-1 #
point $-1 37.543074850291426 21.094354885208794 1.9812023921021868 #
vertex $-1 $752 $808 #
straight-curve $-1 0 21.094354885208794 6.6969281766521664 -1 0 0 I I #
vertex $-1 $641 $809 #
point $-1 42.357089092673803 16.519586499984729 2.2853692845120168 #
vertex $-1 $645 $810 #
point $-1 47.328110456247359 16.519586499984729 2.2853692845120168 #
coedge $-1 $763 $651 $659 $768 reversed $471 $-1 #
coedge $-1 $652 $762 $654 $765 reversed $471 $-1 #
straight-curve $-1 32.320997892757987 -21.094354885208794 35.603910678341592 0 0 -1 I I #
edge $-1 $655 32.320997892757987 $771 49.142124698629715 $763 $811 forward 7 unknown #
point $-1 32.320997892757987 -21.094354885208794 6.6969281766521664 #
straight-curve $-1 20.365780647846925 -21.094354885208794 0.50804979337334055 1 0 0 I I #
edge $-1 $771 -6.6969281766521664 $660 -0.50804979337333911 $659 $812 forward 7 unknown #
point $-1 49.142124698629715 -21.094354885208794 0.50804979337333911 #
point $-1 32.320997892757987 -21.094354885208794 0.50804979337333911 #
vertex $-1 $664 $813 #
straight-curve $-1 49.142124698629715 0 6.6969281766521664 0 1 0 I I #
vertex $-1 $667 $814 #
point $-1 38.62703412300705 -13.999823090737008 -0.42587532165091313 #
vertex $-1 $671 $815 #
point $-1 45.836088468380652 -13.999823090737008 -0.42587532165091313 #
straight-curve $-1 -49.142124698629715 21.094354885208794 0 0 0 -1 I I #
point $-1 -49.142124698629715 -21.094354885208794 -6.6969281766521664 #
straight-curve $-1 -49.142124698629715 0 -6.6969281766521664 0 1 0 I I #
point $-1 -49.142124698629715 21.094354885208794 -6.6969281766521664 #
straight-curve $-1 -43.066635158835624 -4.8305898689533784 -6.6969281766521664 0 -1 0 I I #
straight-curve $-1 -43.066635158835624 -4.8305898689533784 6.6969281766521664 0 1 0 I I #
straight-curve $-1 -49.142124698629715 -7.7004985319044614 0 0 0 -1 I I #
point $-1 -49.142124698629715 -7.7004985319044614 -6.6969281766521664 #
point $-1 -49.142124698629715 -7.7004985319044614 6.6969281766521664 #
straight-curve $-1 -31.467585310497341 21.094354885208794 52.456312462174978 0 0 -1 I I #
point $-1 -31.467585310497341 21.094354885208794 6.6969281766521664 #
straight-curve $-1 -18.633555117333241 21.094354885208794 1.9812023921021868 -1 0 0 I I #
point $-1 -31.467585310497341 21.094354885208794 1.9812023921021868 #
point $-1 -39.752620916453253 15.575605901688034 1.1196503518187999 #
point $-1 -34.781599552879705 15.575605901688034 1.1196503518187999 #
straight-curve $-1 -4.5976819741216541 21.094354885208794 52.456312462174978 0 0 -1 I I #
point $-1 -4.5976819741216541 21.094354885208794 6.6969281766521664 #
straight-curve $-1 -5.1986034491453985 21.094354885208794 1.9812023921021868 -1 0 0 I I #
point $-1 -4.5976819741216541 21.094354885208794 1.9812023921021868 #
point $-1 -12.882717580077568 15.575605901688034 1.1196503518187999 #
point $-1 -7.9116962165040192 15.575605901688034 1.1196503518187999 #
straight-curve $-1 22.272221362254022 21.094354885208794 52.456312462174978 0 0 -1 I I #
point $-1 22.272221362254022 21.094354885208794 6.6969281766521664 #
straight-curve $-1 8.2363482190424406 21.094354885208794 1.9812023921021868 -1 0 0 I I #
point $-1 22.272221362254022 21.094354885208794 1.9812023921021868 #
point $-1 13.987185756298118 15.575605901688034 1.1196503518187999 #
point $-1 18.958207119871673 15.575605901688034 1.1196503518187999 #
edge $-1 $756 -6.6969281766521664 $750 -1.9812023921021868 $747 $816 forward 7 unknown #
straight-curve $-1 21.671299887230283 21.094354885208794 1.9812023921021868 -1 0 0 I I #
point $-1 49.142124698629708 21.094354885208794 1.9812023921021868 #
straight-curve $-1 49.142124698629715 0 6.6969281766521664 0 1 0 I I #
point $-1 49.142124698629715 21.094354885208794 6.6969281766521664 #
point $-1 40.857089092673803 15.575605901688034 1.1196503518187999 #
point $-1 45.828110456247359 15.575605901688034 1.1196503518187999 #
straight-curve $-1 0 -21.094354885208794 6.6969281766521664 1 0 0 I I #
straight-curve $-1 49.142124698629715 -21.094354885208794 0 0 0 -1 I I #
point $-1 49.142124698629715 -21.094354885208794 6.6969281766521664 #
point $-1 37.12703412300705 -12.957835522807452 -1.5048850103378357 #
point $-1 44.336088468380652 -12.957835522807452 -1.5048850103378357 #
straight-curve $-1 49.142124698629715 21.094354885208794 0 0 0 -1 I I #
End-of-ACIS-data 