500 0 4 0           
7 Unknown 11 ACIS 5.0 NT 24 Fri Mar 26 17:59:18 1999 
-1 9.9999999999999995e-007 1e-010 
body $-1 $4 $-1 $5 #
body $-1 $6 $-1 $7 #
body $-1 $8 $-1 $9 #
body $-1 $10 $-1 $11 #
lump $-1 $-1 $12 $0 #
transform $-1 1 0 0 0 1 0 0 0 1 45.777764213995788 23.129736825174504 8.9963643265933424 1 rotate no_reflect no_shear #
lump $-1 $-1 $13 $1 #
transform $-1 1 0 0 0 1 0 0 0 1 45.777764213995788 23.129736825174504 8.9963643265933424 1 rotate no_reflect no_shear #
lump $-1 $-1 $14 $2 #
transform $-1 1 0 0 0 1 0 0 0 1 45.777764213995788 23.129736825174504 8.9963643265933424 1 rotate no_reflect no_shear #
lump $-1 $-1 $15 $3 #
transform $-1 1 0 0 0 1 0 0 0 1 45.777764213995788 23.129736825174504 8.9963643265933424 1 rotate no_reflect no_shear #
shell $-1 $-1 $-1 $16 $-1 $4 #
shell $-1 $-1 $-1 $17 $-1 $6 #
shell $-1 $-1 $-1 $18 $-1 $8 #
shell $-1 $-1 $-1 $19 $-1 $10 #
face $-1 $20 $21 $12 $-1 $22 forward single #
face $-1 $23 $24 $13 $-1 $25 reversed single #
face $-1 $26 $27 $14 $-1 $28 reversed single #
face $-1 $29 $30 $15 $-1 $31 forward single #
face $-1 $32 $33 $12 $-1 $34 reversed single #
loop $-1 $-1 $35 $16 #
plane-surface $-1 0 0 8.9963643265933424 0 0 1 1 0 0 forward_v I I I I #
face $-1 $36 $37 $13 $-1 $38 reversed single #
loop $-1 $-1 $39 $17 #
plane-surface $-1 -43.5033728310475 -13.214830165243425 0 0 -1 0 0 0 -1 forward_v I I I I #
face $-1 $40 $41 $14 $-1 $42 reversed single #
loop $-1 $-1 $43 $18 #
plane-surface $-1 -110.51729997169016 14.15946206526846 68.273815216114102 0 1 0 -0.70710678939079041 0 0.70710677298230451 forward_v I I I I #
face $-1 $44 $45 $15 $-1 $46 forward single #
loop $-1 $47 $48 $19 #
cone-surface $-1 -41.891251360223556 18.64459944522148 5.109851436259838 0.70710678939079041 0 -0.70710677298230451 1.0606601594734568 0 1.0606601840861856 1 I I 0 1 1.5 forward I I I I #
face $-1 $49 $50 $12 $-1 $51 reversed single #
loop $-1 $-1 $52 $20 #
plane-surface $-1 0 0 -8.9963643265933424 0 0 1 1 0 0 forward_v I I I I #
coedge $-1 $53 $54 $55 $56 forward $21 $-1 #
face $-1 $57 $58 $13 $-1 $59 forward single #
loop $-1 $-1 $60 $23 #
plane-surface $-1 -41.228981448099212 -18.172283495208966 0 -1 0 0 0 0 1 forward_v I I I I #
coedge $-1 $61 $62 $63 $64 forward $24 $-1 #
face $-1 $65 $66 $14 $-1 $67 reversed single #
loop $-1 $-1 $68 $26 #
plane-surface $-1 -45.777764213995795 18.644599445221488 3.5342809607073349 -0.70710678939079041 0 0.70710677298230451 0.70710677298230451 0 0.70710678939079041 forward_v I I I I #
coedge $-1 $69 $70 $71 $72 reversed $27 $-1 #
face $-1 $-1 $73 $15 $-1 $74 forward single #
loop $-1 $75 $76 $29 #
cone-surface $-1 -40.205450033977137 18.64459944522148 3.4240501491326096 0.70710678939079041 0 -0.70710677298230451 0.53033007973672841 0 0.53033009204309278 1 I I -0.70710678118654724 0.70710678118654768 0.75 forward I I I I #
loop $-1 $-1 $77 $19 #
coedge $-1 $48 $48 $78 $79 reversed $30 $-1 #
face $-1 $80 $81 $12 $-1 $82 reversed single #
loop $-1 $-1 $83 $32 #
plane-surface $-1 0 -23.129736825174504 0 0 1 0 0 0 1 forward_v I I I I #
coedge $-1 $84 $85 $86 $87 forward $33 $-1 #
coedge $-1 $88 $35 $89 $90 forward $21 $-1 #
coedge $-1 $35 $88 $91 $92 forward $21 $-1 #
coedge $-1 $93 $94 $35 $56 reversed $95 $-1 #
edge $-1 $96 -23.129736825174504 $97 23.129736825174504 $55 $98 forward 7 unknown #
face $-1 $99 $100 $13 $-1 $101 reversed single #
loop $-1 $-1 $102 $36 #
plane-surface $-1 0 0 8.9963643265933424 0 0 1 1 0 0 forward_v I I I I #
coedge $-1 $103 $104 $105 $106 reversed $37 $-1 #
coedge $-1 $107 $39 $108 $109 reversed $24 $-1 #
coedge $-1 $39 $107 $110 $111 reversed $24 $-1 #
coedge $-1 $104 $103 $39 $64 reversed $37 $-1 #
edge $-1 $112 -8.9963643265933424 $113 8.9963643265933424 $63 $114 forward 7 unknown #
face $-1 $115 $116 $14 $-1 $117 reversed single #
loop $-1 $-1 $118 $40 #
plane-surface $-1 0 23.129736825174504 0 0 -1 0 0 0 -1 forward_v I I I I #
coedge $-1 $119 $120 $121 $122 reversed $41 $-1 #
coedge $-1 $70 $43 $123 $124 reversed $27 $-1 #
coedge $-1 $43 $69 $119 $125 reversed $27 $-1 #
coedge $-1 $121 $126 $43 $72 forward $127 $-1 #
edge $-1 $128 9.4808857718492945 $129 14.942969010987085 $71 $130 forward 7 unknown #
loop $-1 $-1 $78 $44 #
plane-surface $-1 -45.777764213995795 18.644599445221488 3.5342809607073349 -0.70710678939079041 0 0.70710677298230451 0.70710677298230451 0 0.70710678939079041 forward_v I I I I #
loop $-1 $-1 $131 $29 #
coedge $-1 $76 $76 $77 $132 reversed $45 $-1 #
coedge $-1 $77 $77 $76 $132 forward $47 $-1 #
coedge $-1 $78 $78 $48 $79 forward $73 $-1 #
edge $-1 $133 0 $133 6.2831853071796004 $78 $134 forward 7 unknown #
face $-1 $135 $136 $12 $-1 $137 reversed single #
loop $-1 $-1 $138 $49 #
plane-surface $-1 -45.777764213995788 0 0 1 0 0 0 0 -1 forward_v I I I I #
coedge $-1 $139 $91 $140 $141 forward $50 $-1 #
coedge $-1 $142 $52 $139 $143 forward $33 $-1 #
coedge $-1 $52 $142 $144 $145 forward $33 $-1 #
coedge $-1 $94 $93 $52 $87 reversed $95 $-1 #
edge $-1 $146 -23.129736825174504 $147 23.129736825174504 $86 $148 forward 7 unknown #
coedge $-1 $54 $53 $149 $150 forward $21 $-1 #
coedge $-1 $151 $152 $53 $90 reversed $136 $-1 #
edge $-1 $97 -45.777764213995788 $153 45.777764213995788 $89 $154 forward 7 unknown #
coedge $-1 $83 $155 $54 $92 reversed $50 $-1 #
edge $-1 $156 -45.777764213995788 $96 45.777764213995788 $91 $157 forward 7 unknown #
coedge $-1 $86 $55 $155 $158 forward $95 $-1 #
coedge $-1 $55 $86 $151 $159 reversed $95 $-1 #
loop $-1 $-1 $93 $135 #
vertex $-1 $56 $160 #
vertex $-1 $56 $161 #
straight-curve $-1 45.777764213995788 0 8.9963643265933424 0 1 0 I I #
face $-1 $162 $163 $13 $-1 $164 reversed single #
loop $-1 $-1 $165 $57 #
plane-surface $-1 -45.777764213995788 0 0 1 0 0 0 0 -1 forward_v I I I I #
coedge $-1 $110 $166 $104 $167 forward $58 $-1 #
coedge $-1 $63 $60 $168 $169 reversed $37 $-1 #
coedge $-1 $60 $63 $102 $167 reversed $37 $-1 #
coedge $-1 $170 $171 $60 $106 forward $172 $-1 #
edge $-1 $173 -8.9963643265933424 $174 8.9963643265933424 $105 $175 forward 7 unknown #
coedge $-1 $62 $61 $165 $176 reversed $24 $-1 #
coedge $-1 $168 $177 $61 $109 forward $163 $-1 #
edge $-1 $178 -24.026077798472038 $113 -19.477295032575462 $108 $179 forward 7 unknown #
coedge $-1 $180 $102 $62 $111 forward $58 $-1 #
edge $-1 $112 19.477295032575462 $181 24.026077798472038 $110 $182 forward 7 unknown #
vertex $-1 $111 $183 #
vertex $-1 $109 $184 #
straight-curve $-1 -41.228981448099212 -13.214830165243425 0 0 0 -1 I I #
face $-1 $-1 $127 $14 $-1 $185 forward single #
loop $-1 $-1 $186 $65 #
plane-surface $-1 -45.777764213995788 0 0 1 0 0 0 0 -1 forward_v I I I I #
coedge $-1 $187 $188 $120 $189 forward $66 $-1 #
coedge $-1 $190 $68 $70 $125 forward $41 $-1 #
coedge $-1 $68 $190 $118 $189 reversed $41 $-1 #
coedge $-1 $191 $71 $68 $122 forward $127 $-1 #
edge $-1 $129 4.8371623426577166 $192 13.807437102563771 $121 $193 forward 7 unknown #
coedge $-1 $194 $186 $69 $124 forward $116 $-1 #
edge $-1 $195 -30.602626647349709 $128 -25.140543281463707 $123 $196 forward 7 unknown #
edge $-1 $129 -7.7245522852239601 $195 -1.0048591735576163e-014 $70 $197 forward 7 unknown #
coedge $-1 $71 $191 $194 $198 forward $127 $-1 #
loop $-1 $-1 $121 $115 #
vertex $-1 $124 $199 #
vertex $-1 $72 $200 #
straight-curve $-1 -55.258649985845082 14.15946206526846 8.9963643265933442 1 0 0 I I #
coedge $-1 $131 $131 $-1 $201 reversed $75 $-1 #
edge $-1 $202 0 $202 6.2831853071796004 $76 $203 forward 7 unknown #
vertex $-1 $79 $204 #
ellipse-curve $-1 -43.046722594426889 18.64459944522148 6.2653226436503431 -0.70710678939079041 0 0.70710677298230451 1.0606601594734568 0 1.0606601840861856 1 I I #
face $-1 $-1 $95 $12 $-1 $205 reversed single #
loop $-1 $-1 $151 $80 #
plane-surface $-1 0 23.129736825174504 0 0 -1 0 0 0 -1 forward_v I I I I #
coedge $-1 $206 $149 $152 $207 forward $81 $-1 #
coedge $-1 $155 $83 $84 $143 reversed $50 $-1 #
coedge $-1 $149 $206 $83 $141 reversed $81 $-1 #
edge $-1 $156 -8.9963643265933424 $208 8.9963643265933424 $140 $209 forward 7 unknown #
coedge $-1 $85 $84 $206 $210 forward $33 $-1 #
edge $-1 $147 -45.777764213995788 $208 45.777764213995788 $139 $211 forward 7 unknown #
coedge $-1 $152 $151 $85 $145 reversed $136 $-1 #
edge $-1 $212 -45.777764213995788 $146 45.777764213995788 $144 $213 forward 7 unknown #
vertex $-1 $87 $214 #
vertex $-1 $158 $215 #
straight-curve $-1 45.777764213995788 0 -8.9963643265933424 0 -1 0 I I #
coedge $-1 $138 $140 $88 $150 reversed $81 $-1 #
edge $-1 $153 -23.129736825174504 $156 23.129736825174504 $149 $216 forward 7 unknown #
coedge $-1 $144 $89 $94 $159 forward $136 $-1 #
coedge $-1 $89 $144 $138 $207 reversed $136 $-1 #
vertex $-1 $90 $217 #
straight-curve $-1 0 23.129736825174504 8.9963643265933424 -1 0 0 I I #
coedge $-1 $91 $139 $93 $158 reversed $50 $-1 #
vertex $-1 $150 $218 #
straight-curve $-1 0 -23.129736825174504 8.9963643265933424 1 0 0 I I #
edge $-1 $96 -8.9963643265933424 $147 8.9963643265933424 $93 $219 forward 7 unknown #
edge $-1 $97 -8.9963643265933424 $146 8.9963643265933424 $94 $220 forward 7 unknown #
point $-1 45.777764213995788 -23.129736825174504 8.9963643265933424 #
point $-1 45.777764213995788 23.129736825174504 8.9963643265933424 #
face $-1 $-1 $172 $13 $-1 $221 reversed single #
loop $-1 $-1 $168 $99 #
plane-surface $-1 0 0 -8.9963643265933424 0 0 1 1 0 0 forward_v I I I I #
coedge $-1 $222 $223 $107 $176 forward $100 $-1 #
coedge $-1 $102 $180 $170 $224 forward $58 $-1 #
edge $-1 $174 -14.043595077570021 $112 -4.1286884176389425 $102 $225 forward 7 unknown #
coedge $-1 $226 $108 $103 $169 forward $163 $-1 #
edge $-1 $113 4.1286884176389425 $173 14.043595077570021 $168 $227 forward 7 unknown #
coedge $-1 $228 $105 $166 $224 reversed $172 $-1 #
coedge $-1 $105 $228 $226 $229 reversed $172 $-1 #
loop $-1 $-1 $105 $162 #
vertex $-1 $229 $230 #
vertex $-1 $106 $231 #
straight-curve $-1 -41.228981448099212 -23.129736825174504 0 0 0 1 I I #
edge $-1 $181 -8.9963643265933424 $178 8.9963643265933424 $165 $232 forward 7 unknown #
coedge $-1 $108 $226 $222 $233 forward $163 $-1 #
vertex $-1 $109 $234 #
straight-curve $-1 -21.75168641552375 -13.214830165243425 -8.9963643265933424 1 0 0 I I #
coedge $-1 $166 $110 $223 $235 forward $58 $-1 #
vertex $-1 $235 $236 #
straight-curve $-1 -21.75168641552375 -13.214830165243425 8.9963643265933424 -1 0 0 I I #
point $-1 -41.228981448099212 -13.214830165243425 8.9963643265933424 #
point $-1 -41.228981448099212 -13.214830165243425 -8.9963643265933424 #
plane-surface $-1 0 0 8.9963643265933424 0 0 1 1 0 0 forward_v I I I I #
coedge $-1 $123 $237 $190 $238 forward $116 $-1 #
coedge $-1 $188 $118 $237 $239 reversed $66 $-1 #
coedge $-1 $118 $187 $191 $240 reversed $66 $-1 #
edge $-1 $192 7.2107742471623553 $241 14.935326532386306 $118 $242 forward 7 unknown #
coedge $-1 $120 $119 $186 $238 reversed $41 $-1 #
coedge $-1 $126 $121 $188 $240 forward $127 $-1 #
vertex $-1 $240 $243 #
straight-curve $-1 -40.31568097485799 9.3222997226107438 8.9963643265933406 0 1 0 I I #
coedge $-1 $237 $123 $126 $198 reversed $116 $-1 #
vertex $-1 $124 $244 #
straight-curve $-1 -45.777764213995788 14.15946206526846 34.136907608057051 0 0 1 I I #
straight-curve $-1 -45.777764213995795 14.15946206526846 3.5342809607073349 -0.70710677298230451 0 -0.70710678939079041 I I #
edge $-1 $245 -23.129736825174504 $128 -14.15946206526846 $194 $246 forward 7 unknown #
point $-1 -45.777764213995788 14.15946206526846 8.9963643265933424 #
point $-1 -40.315680974857997 14.15946206526846 8.9963643265933424 #
edge $-1 $247 1 $247 0 $131 $-1 forward 7 unknown #
vertex $-1 $132 $248 #
ellipse-curve $-1 -40.735780126020231 18.64459944522148 3.9543802288693382 -0.70710678939079041 0 0.70710677298230451 1.0606601594734568 0 1.0606601840861856 1 I I #
point $-1 -41.986062434953432 18.64459944522148 7.3259828277365235 #
plane-surface $-1 45.777764213995788 0 0 -1 0 0 0 0 1 forward_v I I I I #
coedge $-1 $140 $138 $142 $210 reversed $81 $-1 #
edge $-1 $153 -8.9963643265933424 $212 8.9963643265933424 $152 $249 forward 7 unknown #
vertex $-1 $210 $250 #
straight-curve $-1 -45.777764213995788 -23.129736825174504 0 0 0 -1 I I #
edge $-1 $208 -23.129736825174504 $212 23.129736825174504 $206 $251 forward 7 unknown #
straight-curve $-1 0 -23.129736825174504 -8.9963643265933424 -1 0 0 I I #
vertex $-1 $145 $252 #
straight-curve $-1 0 23.129736825174504 -8.9963643265933424 1 0 0 I I #
point $-1 45.777764213995788 23.129736825174504 -8.9963643265933424 #
point $-1 45.777764213995788 -23.129736825174504 -8.9963643265933424 #
straight-curve $-1 -45.777764213995788 0 8.9963643265933424 0 -1 0 I I #
point $-1 -45.777764213995788 23.129736825174504 8.9963643265933424 #
point $-1 -45.777764213995788 -23.129736825174504 8.9963643265933424 #
straight-curve $-1 45.777764213995788 -23.129736825174504 0 0 0 -1 I I #
straight-curve $-1 45.777764213995788 23.129736825174504 0 0 0 -1 I I #
plane-surface $-1 0 -23.129736825174504 0 0 1 0 0 0 1 forward_v I I I I #
coedge $-1 $253 $165 $177 $233 reversed $100 $-1 #
coedge $-1 $165 $253 $180 $235 reversed $100 $-1 #
edge $-1 $254 -45.777764213995788 $174 -41.228981448099212 $170 $255 forward 7 unknown #
straight-curve $-1 -41.228981448099212 -9.0861417476044828 8.9963643265933424 0 1 0 I I #
coedge $-1 $177 $168 $171 $229 forward $163 $-1 #
straight-curve $-1 -41.228981448099212 -9.0861417476044828 -8.9963643265933424 0 -1 0 I I #
coedge $-1 $171 $170 $253 $256 forward $172 $-1 #
edge $-1 $173 41.228981448099212 $257 45.777764213995788 $171 $258 forward 7 unknown #
point $-1 -41.228981448099212 -23.129736825174504 -8.9963643265933424 #
point $-1 -41.228981448099212 -23.129736825174504 8.9963643265933424 #
straight-curve $-1 -45.777764213995788 -13.214830165243425 0 0 0 -1 I I #
edge $-1 $257 -23.129736825174504 $178 -13.214830165243425 $222 $259 forward 7 unknown #
point $-1 -45.777764213995788 -13.214830165243425 -8.9963643265933424 #
edge $-1 $181 13.214830165243425 $254 23.129736825174504 $223 $260 forward 7 unknown #
point $-1 -45.777764213995788 -13.214830165243425 8.9963643265933424 #
coedge $-1 $186 $194 $187 $239 forward $116 $-1 #
edge $-1 $241 -13.807437102563771 $195 -4.8371623426577166 $186 $261 forward 7 unknown #
edge $-1 $245 -8.9963643265933424 $241 -3.534280960707342 $187 $262 forward 7 unknown #
edge $-1 $192 40.315680974857997 $245 45.777764213995788 $188 $263 forward 7 unknown #
vertex $-1 $238 $264 #
straight-curve $-1 -35.216893666243116 23.129736825174504 14.095151753526107 -0.70710677298230462 0 -0.70710678939079052 I I #
point $-1 -40.315680974857997 23.129736825174515 8.9963643265933424 #
point $-1 -45.777764213995788 14.15946206526846 3.534280960707342 #
vertex $-1 $240 $265 #
straight-curve $-1 -45.777764213995788 0 8.9963643265933424 0 -1 0 I I #
vertex $-1 $201 $266 #
point $-1 -39.675119966546774 18.64459944522148 5.0150404129555239 #
straight-curve $-1 -45.777764213995788 23.129736825174504 0 0 0 -1 I I #
point $-1 -45.777764213995788 -23.129736825174504 -8.9963643265933424 #
straight-curve $-1 -45.777764213995788 0 -8.9963643265933424 0 1 0 I I #
point $-1 -45.777764213995788 23.129736825174504 -8.9963643265933424 #
coedge $-1 $223 $222 $228 $256 reversed $100 $-1 #
vertex $-1 $235 $267 #
straight-curve $-1 0 -23.129736825174504 8.9963643265933424 1 0 0 I I #
edge $-1 $254 -8.9963643265933424 $257 8.9963643265933424 $253 $268 forward 7 unknown #
vertex $-1 $233 $269 #
straight-curve $-1 0 -23.129736825174504 -8.9963643265933424 -1 0 0 I I #
straight-curve $-1 -45.777764213995788 0 -8.9963643265933424 0 1 0 I I #
straight-curve $-1 -45.777764213995788 0 8.9963643265933424 0 -1 0 I I #
straight-curve $-1 -45.777764213995788 9.3222997226107438 3.5342809607073478 0 -1 0 I I #
straight-curve $-1 -45.777764213995788 23.129736825174504 0 0 0 -1 I I #
straight-curve $-1 0 23.129736825174504 8.9963643265933424 -1 0 0 I I #
point $-1 -45.777764213995788 23.129736825174515 3.534280960707342 #
point $-1 -45.777764213995788 23.129736825174504 8.9963643265933424 #
point $-1 -39.675119941934042 18.64459944522148 2.8937200693958811 #
point $-1 -45.777764213995788 -23.129736825174504 8.9963643265933424 #
straight-curve $-1 -45.777764213995788 -23.129736825174504 0 0 0 -1 I I #
point $-1 -45.777764213995788 -23.129736825174504 -8.9963643265933424 #
End-of-ACIS-data 