500 0 16 0           
7 Unknown 11 ACIS 5.0 NT 24 Thu Mar 25 20:12:37 1999 
-1 9.9999999999999995e-007 1e-010 
body $-1 $16 $-1 $17 #
body $-1 $18 $-1 $19 #
body $-1 $20 $-1 $21 #
body $-1 $22 $-1 $23 #
body $-1 $24 $-1 $25 #
body $-1 $26 $-1 $27 #
body $-1 $28 $-1 $29 #
body $-1 $30 $-1 $31 #
body $-1 $32 $-1 $33 #
body $-1 $34 $-1 $35 #
body $-1 $36 $-1 $37 #
body $-1 $38 $-1 $39 #
body $-1 $40 $-1 $41 #
body $-1 $42 $-1 $43 #
body $-1 $44 $-1 $45 #
body $-1 $46 $-1 $47 #
lump $-1 $-1 $48 $0 #
transform $-1 1 0 0 0 1 0 0 0 1 50.2249214148381 26.649542258821363 12.839960431437616 1 rotate no_reflect no_shear #
lump $-1 $-1 $49 $1 #
transform $-1 1 0 0 0 1 0 0 0 1 50.2249214148381 26.649542258821363 12.839960431437616 1 rotate no_reflect no_shear #
lump $-1 $-1 $50 $2 #
transform $-1 1 0 0 0 1 0 0 0 1 50.2249214148381 26.649542258821363 12.839960431437616 1 rotate no_reflect no_shear #
lump $-1 $-1 $51 $3 #
transform $-1 1 0 0 0 1 0 0 0 1 50.2249214148381 26.649542258821363 12.839960431437616 1 rotate no_reflect no_shear #
lump $-1 $-1 $52 $4 #
transform $-1 1 0 0 0 1 0 0 0 1 50.2249214148381 26.649542258821363 12.839960431437616 1 rotate no_reflect no_shear #
lump $-1 $-1 $53 $5 #
transform $-1 1 0 0 0 1 0 0 0 1 50.2249214148381 26.649542258821363 12.839960431437616 1 rotate no_reflect no_shear #
lump $-1 $-1 $54 $6 #
transform $-1 1 0 0 0 1 0 0 0 1 50.2249214148381 26.649542258821363 12.839960431437616 1 rotate no_reflect no_shear #
lump $-1 $-1 $55 $7 #
transform $-1 1 0 0 0 1 0 0 0 1 50.2249214148381 26.649542258821363 12.839960431437616 1 rotate no_reflect no_shear #
lump $-1 $-1 $56 $8 #
transform $-1 1 0 0 0 1 0 0 0 1 50.2249214148381 26.649542258821363 12.839960431437616 1 rotate no_reflect no_shear #
lump $-1 $-1 $57 $9 #
transform $-1 1 0 0 0 1 0 0 0 1 50.2249214148381 26.649542258821363 12.839960431437616 1 rotate no_reflect no_shear #
lump $-1 $-1 $58 $10 #
transform $-1 1 0 0 0 1 0 0 0 1 50.2249214148381 26.649542258821363 12.839960431437616 1 rotate no_reflect no_shear #
lump $-1 $-1 $59 $11 #
transform $-1 1 0 0 0 1 0 0 0 1 50.2249214148381 26.649542258821363 12.839960431437616 1 rotate no_reflect no_shear #
lump $-1 $-1 $60 $12 #
transform $-1 1 0 0 0 1 0 0 0 1 50.2249214148381 26.649542258821363 12.839960431437616 1 rotate no_reflect no_shear #
lump $-1 $-1 $61 $13 #
transform $-1 1 0 0 0 1 0 0 0 1 50.2249214148381 26.649542258821363 12.839960431437616 1 rotate no_reflect no_shear #
lump $-1 $-1 $62 $14 #
transform $-1 1 0 0 0 1 0 0 0 1 50.2249214148381 26.649542258821363 12.839960431437616 1 rotate no_reflect no_shear #
lump $-1 $-1 $63 $15 #
transform $-1 1 0 0 0 1 0 0 0 1 50.2249214148381 26.649542258821363 12.839960431437616 1 rotate no_reflect no_shear #
shell $-1 $-1 $-1 $64 $-1 $16 #
shell $-1 $-1 $-1 $65 $-1 $18 #
shell $-1 $-1 $-1 $66 $-1 $20 #
shell $-1 $-1 $-1 $67 $-1 $22 #
shell $-1 $-1 $-1 $68 $-1 $24 #
shell $-1 $-1 $-1 $69 $-1 $26 #
shell $-1 $-1 $-1 $70 $-1 $28 #
shell $-1 $-1 $-1 $71 $-1 $30 #
shell $-1 $-1 $-1 $72 $-1 $32 #
shell $-1 $-1 $-1 $73 $-1 $34 #
shell $-1 $-1 $-1 $74 $-1 $36 #
shell $-1 $-1 $-1 $75 $-1 $38 #
shell $-1 $-1 $-1 $76 $-1 $40 #
shell $-1 $-1 $-1 $77 $-1 $42 #
shell $-1 $-1 $-1 $78 $-1 $44 #
shell $-1 $-1 $-1 $79 $-1 $46 #
face $-1 $80 $81 $48 $-1 $82 reversed single #
face $-1 $83 $84 $49 $-1 $85 forward single #
face $-1 $86 $87 $50 $-1 $88 reversed single #
face $-1 $89 $90 $51 $-1 $91 forward single #
face $-1 $92 $93 $52 $-1 $94 forward single #
face $-1 $95 $96 $53 $-1 $97 reversed single #
face $-1 $98 $99 $54 $-1 $100 forward single #
face $-1 $101 $102 $55 $-1 $103 forward single #
face $-1 $104 $105 $56 $-1 $106 reversed single #
face $-1 $107 $108 $57 $-1 $109 forward single #
face $-1 $110 $111 $58 $-1 $112 forward single #
face $-1 $113 $114 $59 $-1 $115 forward single #
face $-1 $116 $117 $60 $-1 $118 reversed single #
face $-1 $119 $120 $61 $-1 $121 forward single #
face $-1 $122 $123 $62 $-1 $124 forward single #
face $-1 $125 $126 $63 $-1 $127 forward single #
face $-1 $128 $129 $48 $-1 $130 forward single #
loop $-1 $-1 $131 $64 #
plane-surface $-1 -50.2249214148381 0 0 1 0 0 0 0 -1 forward_v I I I I #
face $-1 $132 $133 $49 $-1 $134 reversed single #
loop $-1 $-1 $135 $65 #
plane-surface $-1 -50.2249214148381 0 0 1 0 0 0 0 -1 forward_v I I I I #
face $-1 $136 $137 $50 $-1 $138 reversed single #
loop $-1 $-1 $139 $66 #
plane-surface $-1 6.1380826012050598 -93.863607308469852 80.29473789455372 -1 0 0 0 -0.66913061440640931 0.74314481823134659 forward_v I I I I #
face $-1 $140 $141 $51 $-1 $142 forward single #
loop $-1 $143 $144 $67 #
cone-surface $-1 -1.9418167888986204 -22.240644706684346 8.7831400539248659 0 0.66913061440640931 -0.74314481823134659 1 0 0 1 I I 0 1 1 forward I I I I #
face $-1 $145 $146 $52 $-1 $147 forward single #
loop $-1 $148 $149 $68 #
cone-surface $-1 2.906122845163587 -22.240644706684346 8.7831400539248659 0 0.66913061440640931 -0.74314481823134659 1 0 0 1 I I 0 1 1 forward I I I I #
face $-1 $150 $151 $53 $-1 $152 reversed single #
loop $-1 $-1 $153 $69 #
plane-surface $-1 17.449941747350227 -93.863607308469852 80.29473789455372 -1 0 0 0 -0.66913061440640931 0.74314481823134659 forward_v I I I I #
face $-1 $154 $155 $54 $-1 $156 forward single #
loop $-1 $157 $158 $70 #
cone-surface $-1 9.3700423572465468 -22.240644706684346 8.7831400539248659 0 0.66913061440640931 -0.74314481823134659 1 0 0 1 I I 0 1 1 forward I I I I #
face $-1 $159 $160 $55 $-1 $161 forward single #
loop $-1 $162 $163 $71 #
cone-surface $-1 14.217981991308754 -22.240644706684346 8.7831400539248659 0 0.66913061440640931 -0.74314481823134659 1 0 0 1 I I 0 1 1 forward I I I I #
face $-1 $164 $165 $56 $-1 $166 reversed single #
loop $-1 $-1 $167 $72 #
plane-surface $-1 -3.8825341605459336 85.300806490653486 98.458063684166817 1 0 0 0 -0.85716730853699208 -0.51503806187062418 forward_v I I I I #
face $-1 $168 $169 $57 $-1 $170 forward single #
loop $-1 $171 $172 $73 #
cone-surface $-1 -1.8784108081957314 22.321058060188353 6.4680850835937473 0 -0.85716730853699208 -0.51503806187062418 0.5 0 0 1 I I 0 1 0.5 forward I I I I #
face $-1 $173 $174 $58 $-1 $175 forward single #
loop $-1 $176 $177 $74 #
cone-surface $-1 1.1277742203295631 22.321058060188353 6.4680850835937473 0 -0.85716730853699208 -0.51503806187062418 0.5 0 0 1 I I 0 1 0.5 forward I I I I #
face $-1 $178 $179 $59 $-1 $180 forward single #
loop $-1 $181 $182 $75 #
cone-surface $-1 4.1339592488548575 22.321058060188353 6.4680850835937473 0 -0.85716730853699208 -0.51503806187062418 0.5 0 0 1 I I 0 1 0.5 forward I I I I #
face $-1 $183 $184 $60 $-1 $185 reversed single #
loop $-1 $-1 $186 $76 #
plane-surface $-1 1.1277742203295631 -0.80151493062393797 46.722571317961574 0 0.85716730853699208 0.51503806187062418 1 0 0 forward_v I I I I #
face $-1 $187 $188 $61 $-1 $189 forward single #
loop $-1 $190 $191 $77 #
cone-surface $-1 8.1422059535552549 22.321058060188353 6.4680850835937473 0 -0.85716730853699208 -0.51503806187062418 0.5 0 0 1 I I 0 1 0.5 forward I I I I #
face $-1 $192 $193 $62 $-1 $194 forward single #
loop $-1 $195 $196 $78 #
cone-surface $-1 11.148390982080549 22.321058060188353 6.4680850835937473 0 -0.85716730853699208 -0.51503806187062418 0.5 0 0 1 I I 0 1 0.5 forward I I I I #
face $-1 $197 $198 $63 $-1 $199 forward single #
loop $-1 $200 $201 $79 #
cone-surface $-1 14.154576010605844 22.321058060188353 6.4680850835937473 0 -0.85716730853699208 -0.51503806187062418 0.5 0 0 1 I I 0 1 0.5 forward I I I I #
face $-1 $202 $203 $48 $-1 $204 reversed single #
loop $-1 $-1 $205 $80 #
plane-surface $-1 0 0 12.839960431437616 0 0 1 1 0 0 forward_v I I I I #
coedge $-1 $206 $207 $208 $209 reversed $81 $-1 #
face $-1 $210 $211 $49 $-1 $212 reversed single #
loop $-1 $-1 $213 $83 #
plane-surface $-1 0 0 -12.839960431437616 0 0 1 1 0 0 forward_v I I I I #
coedge $-1 $214 $215 $216 $217 forward $84 $-1 #
face $-1 $218 $219 $50 $-1 $220 reversed single #
loop $-1 $-1 $221 $86 #
plane-surface $-1 0.48215302813247973 -26.64954225882137 5.6459577035266619 0 -0.66913061440640931 0.74314481823134659 1 0 0 forward_v I I I I #
coedge $-1 $222 $223 $224 $225 reversed $87 $-1 #
face $-1 $-1 $226 $51 $-1 $227 forward single #
loop $-1 $228 $229 $89 #
cone-surface $-1 -1.9418167888986204 -21.492056491012782 7.9517486312519114 0 0.66913061440640931 -0.74314481823134659 0.5 0 0 1 I I -0.70710678118654746 0.70710678118654746 0.5 forward I I I I #
loop $-1 $-1 $230 $67 #
coedge $-1 $144 $144 $231 $232 reversed $90 $-1 #
face $-1 $-1 $233 $52 $-1 $234 forward single #
loop $-1 $235 $236 $92 #
cone-surface $-1 2.906122845163587 -21.492056491012782 7.9517486312519114 0 0.66913061440640931 -0.74314481823134659 0.5 0 0 1 I I -0.70710678118654746 0.70710678118654746 0.5 forward I I I I #
loop $-1 $-1 $237 $68 #
coedge $-1 $149 $149 $238 $239 reversed $93 $-1 #
face $-1 $240 $241 $53 $-1 $242 forward single #
loop $-1 $-1 $243 $95 #
plane-surface $-1 0.48215302813247973 -26.64954225882137 5.6459577035266619 0 -0.66913061440640931 0.74314481823134659 1 0 0 forward_v I I I I #
coedge $-1 $244 $245 $246 $247 reversed $96 $-1 #
face $-1 $-1 $248 $54 $-1 $249 forward single #
loop $-1 $250 $251 $98 #
cone-surface $-1 9.3700423572465468 -21.492056491012782 7.9517486312519114 0 0.66913061440640931 -0.74314481823134659 0.5 0 0 1 I I -0.70710678118654746 0.70710678118654746 0.5 forward I I I I #
loop $-1 $-1 $252 $70 #
coedge $-1 $158 $158 $253 $254 reversed $99 $-1 #
face $-1 $-1 $255 $55 $-1 $256 forward single #
loop $-1 $257 $258 $101 #
cone-surface $-1 14.217981991308754 -21.492056491012782 7.9517486312519114 0 0.66913061440640931 -0.74314481823134659 0.5 0 0 1 I I -0.70710678118654746 0.70710678118654746 0.5 forward I I I I #
loop $-1 $-1 $259 $71 #
coedge $-1 $163 $163 $260 $261 reversed $102 $-1 #
face $-1 $262 $263 $56 $-1 $264 reversed single #
loop $-1 $-1 $265 $104 #
plane-surface $-1 1.1277742203295631 -0.80151493062393797 46.722571317961574 0 0.85716730853699208 0.51503806187062418 1 0 0 forward_v I I I I #
coedge $-1 $266 $267 $268 $269 reversed $105 $-1 #
face $-1 $-1 $270 $57 $-1 $271 forward single #
loop $-1 $272 $273 $107 #
cone-surface $-1 -1.8784108081957314 21.32444770412927 5.8692611887569885 0 -0.85716730853699208 -0.51503806187062418 0.25 0 0 1 I I -0.70710678118654746 0.70710678118654746 0.25 forward I I I I #
loop $-1 $-1 $274 $73 #
coedge $-1 $172 $172 $275 $276 reversed $108 $-1 #
face $-1 $-1 $277 $58 $-1 $278 forward single #
loop $-1 $279 $280 $110 #
cone-surface $-1 1.1277742203295631 21.32444770412927 5.8692611887569885 0 -0.85716730853699208 -0.51503806187062418 0.25 0 0 1 I I -0.70710678118654746 0.70710678118654746 0.25 forward I I I I #
loop $-1 $-1 $281 $74 #
coedge $-1 $177 $177 $282 $283 reversed $111 $-1 #
face $-1 $-1 $284 $59 $-1 $285 forward single #
loop $-1 $286 $287 $113 #
cone-surface $-1 4.1339592488548575 21.32444770412927 5.8692611887569885 0 -0.85716730853699208 -0.51503806187062418 0.25 0 0 1 I I -0.70710678118654746 0.70710678118654746 0.25 forward I I I I #
loop $-1 $-1 $288 $75 #
coedge $-1 $182 $182 $289 $290 reversed $114 $-1 #
face $-1 $291 $292 $60 $-1 $293 forward single #
loop $-1 $-1 $294 $116 #
plane-surface $-1 16.158699362956046 85.300806490653486 98.458063684166817 -1 0 0 0 0.85716730853699208 0.51503806187062418 forward_v I I I I #
coedge $-1 $295 $296 $297 $298 reversed $117 $-1 #
face $-1 $-1 $299 $61 $-1 $300 forward single #
loop $-1 $301 $302 $119 #
cone-surface $-1 8.1422059535552549 21.32444770412927 5.8692611887569885 0 -0.85716730853699208 -0.51503806187062418 0.25 0 0 1 I I -0.70710678118654746 0.70710678118654746 0.25 forward I I I I #
loop $-1 $-1 $303 $77 #
coedge $-1 $191 $191 $304 $305 reversed $120 $-1 #
face $-1 $-1 $306 $62 $-1 $307 forward single #
loop $-1 $308 $309 $122 #
cone-surface $-1 11.148390982080549 21.32444770412927 5.8692611887569885 0 -0.85716730853699208 -0.51503806187062418 0.25 0 0 1 I I -0.70710678118654746 0.70710678118654746 0.25 forward I I I I #
loop $-1 $-1 $310 $78 #
coedge $-1 $196 $196 $311 $312 reversed $123 $-1 #
face $-1 $-1 $313 $63 $-1 $314 forward single #
loop $-1 $315 $316 $125 #
cone-surface $-1 14.154576010605844 21.32444770412927 5.8692611887569885 0 -0.85716730853699208 -0.51503806187062418 0.25 0 0 1 I I -0.70710678118654746 0.70710678118654746 0.25 forward I I I I #
loop $-1 $-1 $317 $79 #
coedge $-1 $201 $201 $318 $319 reversed $126 $-1 #
face $-1 $320 $321 $48 $-1 $322 reversed single #
loop $-1 $-1 $323 $128 #
plane-surface $-1 0 0 -12.839960431437616 0 0 1 1 0 0 forward_v I I I I #
coedge $-1 $324 $325 $326 $327 forward $129 $-1 #
coedge $-1 $328 $131 $329 $330 reversed $81 $-1 #
coedge $-1 $131 $328 $331 $332 forward $81 $-1 #
coedge $-1 $333 $334 $131 $209 forward $203 $-1 #
edge $-1 $335 -26.649542258821363 $336 26.649542258821363 $131 $337 forward 7 unknown #
face $-1 $338 $339 $49 $-1 $340 reversed single #
loop $-1 $-1 $341 $132 #
plane-surface $-1 -56.363004016043163 -5.5067705353682204 0 0 1 0 0 0 1 forward_v I I I I #
coedge $-1 $342 $343 $215 $344 forward $133 $-1 #
coedge $-1 $345 $135 $346 $347 reversed $84 $-1 #
coedge $-1 $135 $345 $213 $344 reversed $84 $-1 #
coedge $-1 $348 $349 $135 $217 reversed $350 $-1 #
edge $-1 $351 -12.839960431437616 $352 12.839960431437616 $216 $353 forward 7 unknown #
face $-1 $354 $355 $50 $-1 $356 forward single #
loop $-1 $-1 $357 $136 #
plane-surface $-1 -5.1737765449401003 -93.863607308469852 80.29473789455372 1 0 0 0 0.66913061440640931 -0.74314481823134659 forward_v I I I I #
coedge $-1 $358 $359 $360 $361 reversed $137 $-1 #
coedge $-1 $223 $139 $362 $363 reversed $87 $-1 #
coedge $-1 $139 $222 $358 $364 reversed $87 $-1 #
coedge $-1 $360 $365 $139 $225 forward $355 $-1 #
edge $-1 $366 20.282261395413563 $367 28.272010682750885 $224 $368 forward 7 unknown #
loop $-1 $-1 $231 $140 #
plane-surface $-1 0.48215302813247973 -26.64954225882137 5.6459577035266619 0 -0.66913061440640931 0.74314481823134659 1 0 0 forward_v I I I I #
loop $-1 $-1 $369 $89 #
coedge $-1 $229 $229 $230 $370 reversed $141 $-1 #
coedge $-1 $230 $230 $229 $370 forward $143 $-1 #
coedge $-1 $231 $231 $144 $232 forward $226 $-1 #
edge $-1 $371 -1.7145172920616828e-015 $371 6.2831853071795987 $231 $372 forward 7 unknown #
loop $-1 $-1 $238 $145 #
plane-surface $-1 0.48215302813247973 -26.64954225882137 5.6459577035266619 0 -0.66913061440640931 0.74314481823134659 1 0 0 forward_v I I I I #
loop $-1 $-1 $373 $92 #
coedge $-1 $236 $236 $237 $374 reversed $146 $-1 #
coedge $-1 $237 $237 $236 $374 forward $148 $-1 #
coedge $-1 $238 $238 $149 $239 forward $233 $-1 #
edge $-1 $375 -1.7145172920616828e-015 $375 6.2831853071795987 $238 $376 forward 7 unknown #
face $-1 $377 $378 $53 $-1 $379 forward single #
loop $-1 $-1 $380 $150 #
plane-surface $-1 0 0 12.839960431437616 0 0 1 1 0 0 forward_v I I I I #
coedge $-1 $381 $382 $383 $384 reversed $151 $-1 #
coedge $-1 $245 $153 $385 $386 reversed $96 $-1 #
coedge $-1 $153 $244 $380 $387 reversed $96 $-1 #
coedge $-1 $388 $389 $153 $247 forward $390 $-1 #
edge $-1 $391 -34.501411243750191 $392 -27.307408515839242 $246 $393 forward 7 unknown #
loop $-1 $-1 $253 $154 #
plane-surface $-1 0.48215302813247973 -26.64954225882137 5.6459577035266619 0 -0.66913061440640931 0.74314481823134659 1 0 0 forward_v I I I I #
loop $-1 $-1 $394 $98 #
coedge $-1 $251 $251 $252 $395 reversed $155 $-1 #
coedge $-1 $252 $252 $251 $395 forward $157 $-1 #
coedge $-1 $253 $253 $158 $254 forward $248 $-1 #
edge $-1 $396 -1.7145172920616828e-015 $396 6.2831853071795987 $253 $397 forward 7 unknown #
loop $-1 $-1 $260 $159 #
plane-surface $-1 0.48215302813247973 -26.64954225882137 5.6459577035266619 0 -0.66913061440640931 0.74314481823134659 1 0 0 forward_v I I I I #
loop $-1 $-1 $398 $101 #
coedge $-1 $258 $258 $259 $399 reversed $160 $-1 #
coedge $-1 $259 $259 $258 $399 forward $162 $-1 #
coedge $-1 $260 $260 $163 $261 forward $255 $-1 #
edge $-1 $400 -1.7145172920616828e-015 $400 6.2831853071795987 $260 $401 forward 7 unknown #
face $-1 $402 $403 $56 $-1 $404 reversed single #
loop $-1 $-1 $405 $164 #
plane-surface $-1 6.1380826012050598 85.300806490653486 98.458063684166817 -1 0 0 0 0.85716730853699208 0.51503806187062418 forward_v I I I I #
coedge $-1 $406 $407 $408 $409 reversed $165 $-1 #
coedge $-1 $267 $167 $410 $411 reversed $105 $-1 #
coedge $-1 $167 $266 $406 $412 reversed $105 $-1 #
coedge $-1 $408 $413 $167 $269 forward $414 $-1 #
edge $-1 $415 16.00086098650538 $416 23.09319232592172 $268 $417 forward 7 unknown #
loop $-1 $-1 $275 $168 #
plane-surface $-1 1.1277742203295631 -0.80151493062393797 46.722571317961574 0 0.85716730853699208 0.51503806187062418 1 0 0 forward_v I I I I #
loop $-1 $-1 $418 $107 #
coedge $-1 $273 $273 $274 $419 reversed $169 $-1 #
coedge $-1 $274 $274 $273 $419 forward $171 $-1 #
coedge $-1 $275 $275 $172 $276 forward $270 $-1 #
edge $-1 $420 9.0833949806864129e-016 $420 6.2831853071796013 $275 $421 forward 7 unknown #
loop $-1 $-1 $282 $173 #
plane-surface $-1 1.1277742203295631 -0.80151493062393797 46.722571317961574 0 0.85716730853699208 0.51503806187062418 1 0 0 forward_v I I I I #
loop $-1 $-1 $422 $110 #
coedge $-1 $280 $280 $281 $423 reversed $174 $-1 #
coedge $-1 $281 $281 $280 $423 forward $176 $-1 #
coedge $-1 $282 $282 $177 $283 forward $277 $-1 #
edge $-1 $424 9.0833949806864129e-016 $424 6.2831853071796013 $282 $425 forward 7 unknown #
loop $-1 $-1 $289 $178 #
plane-surface $-1 1.1277742203295631 -0.80151493062393797 46.722571317961574 0 0.85716730853699208 0.51503806187062418 1 0 0 forward_v I I I I #
loop $-1 $-1 $426 $113 #
coedge $-1 $287 $287 $288 $427 reversed $179 $-1 #
coedge $-1 $288 $288 $287 $427 forward $181 $-1 #
coedge $-1 $289 $289 $182 $290 forward $284 $-1 #
edge $-1 $428 9.0833949806864129e-016 $428 6.2831853071796013 $289 $429 forward 7 unknown #
face $-1 $430 $431 $60 $-1 $432 forward single #
loop $-1 $-1 $433 $183 #
plane-surface $-1 0 0 12.839960431437616 0 0 1 1 0 0 forward_v I I I I #
coedge $-1 $434 $435 $436 $437 reversed $184 $-1 #
coedge $-1 $438 $186 $439 $440 reversed $117 $-1 #
coedge $-1 $186 $438 $433 $441 reversed $117 $-1 #
coedge $-1 $442 $443 $186 $298 forward $431 $-1 #
edge $-1 $444 -53.299084517642726 $445 -39.528585083762231 $297 $446 forward 7 unknown #
loop $-1 $-1 $304 $187 #
plane-surface $-1 1.1277742203295631 -0.80151493062393797 46.722571317961574 0 0.85716730853699208 0.51503806187062418 1 0 0 forward_v I I I I #
loop $-1 $-1 $447 $119 #
coedge $-1 $302 $302 $303 $448 reversed $188 $-1 #
coedge $-1 $303 $303 $302 $448 forward $190 $-1 #
coedge $-1 $304 $304 $191 $305 forward $299 $-1 #
edge $-1 $449 9.0833949806864129e-016 $449 6.2831853071796013 $304 $450 forward 7 unknown #
loop $-1 $-1 $311 $192 #
plane-surface $-1 1.1277742203295631 -0.80151493062393797 46.722571317961574 0 0.85716730853699208 0.51503806187062418 1 0 0 forward_v I I I I #
loop $-1 $-1 $451 $122 #
coedge $-1 $309 $309 $310 $452 reversed $193 $-1 #
coedge $-1 $310 $310 $309 $452 forward $195 $-1 #
coedge $-1 $311 $311 $196 $312 forward $306 $-1 #
edge $-1 $453 9.0833949806864129e-016 $453 6.2831853071796013 $311 $454 forward 7 unknown #
loop $-1 $-1 $318 $197 #
plane-surface $-1 1.1277742203295631 -0.80151493062393797 46.722571317961574 0 0.85716730853699208 0.51503806187062418 1 0 0 forward_v I I I I #
loop $-1 $-1 $455 $125 #
coedge $-1 $316 $316 $317 $456 reversed $198 $-1 #
coedge $-1 $317 $317 $316 $456 forward $200 $-1 #
coedge $-1 $318 $318 $201 $319 forward $313 $-1 #
edge $-1 $457 9.0833949806864129e-016 $457 6.2831853071796013 $318 $458 forward 7 unknown #
face $-1 $459 $460 $48 $-1 $461 reversed single #
loop $-1 $-1 $329 $202 #
plane-surface $-1 0 -26.649542258821363 0 0 1 0 0 0 1 forward_v I I I I #
coedge $-1 $334 $333 $462 $463 forward $203 $-1 #
coedge $-1 $464 $205 $465 $466 forward $129 $-1 #
coedge $-1 $205 $464 $467 $468 forward $129 $-1 #
coedge $-1 $469 $470 $205 $327 reversed $471 $-1 #
edge $-1 $472 -26.649542258821363 $473 26.649542258821363 $326 $474 forward 7 unknown #
coedge $-1 $207 $206 $464 $475 reversed $81 $-1 #
coedge $-1 $476 $467 $206 $330 forward $321 $-1 #
edge $-1 $477 -12.839960431437616 $335 12.839960431437616 $206 $478 forward 7 unknown #
coedge $-1 $465 $479 $207 $332 reversed $460 $-1 #
edge $-1 $480 -12.839960431437616 $336 12.839960431437616 $331 $481 forward 7 unknown #
coedge $-1 $323 $208 $479 $482 forward $203 $-1 #
coedge $-1 $208 $323 $476 $483 forward $203 $-1 #
vertex $-1 $209 $484 #
vertex $-1 $482 $485 #
straight-curve $-1 -50.2249214148381 0 -12.839960431437616 0 1 0 I I #
face $-1 $486 $350 $49 $-1 $487 reversed single #
loop $-1 $-1 $488 $210 #
plane-surface $-1 -62.501086617248227 -3.2381959656571766 0 1 0 0 0 0 -1 forward_v I I I I #
coedge $-1 $489 $490 $491 $492 forward $211 $-1 #
coedge $-1 $493 $213 $489 $494 forward $133 $-1 #
coedge $-1 $213 $493 $348 $495 forward $133 $-1 #
edge $-1 $351 0.96962139594613284 $496 5.5067705353682204 $213 $497 forward 7 unknown #
coedge $-1 $215 $214 $498 $499 forward $84 $-1 #
coedge $-1 $500 $501 $214 $347 forward $502 $-1 #
edge $-1 $503 -5.5067705353682204 $352 -0.96962139594613284 $346 $504 forward 7 unknown #
coedge $-1 $505 $216 $343 $495 reversed $350 $-1 #
coedge $-1 $216 $505 $500 $506 reversed $350 $-1 #
loop $-1 $-1 $216 $338 #
vertex $-1 $344 $507 #
vertex $-1 $506 $508 #
straight-curve $-1 -50.2249214148381 -0.96962139594613284 0 0 0 1 I I #
face $-1 $-1 $509 $50 $-1 $510 reversed single #
loop $-1 $-1 $224 $218 #
plane-surface $-1 0 0 12.839960431437616 0 0 1 1 0 0 forward_v I I I I #
coedge $-1 $511 $512 $513 $514 reversed $219 $-1 #
coedge $-1 $515 $221 $223 $364 forward $137 $-1 #
coedge $-1 $221 $515 $511 $516 forward $137 $-1 #
coedge $-1 $513 $224 $221 $361 forward $355 $-1 #
edge $-1 $367 -5.8970060871388199 $517 5.4148530590063402 $360 $518 forward 7 unknown #
coedge $-1 $519 $520 $222 $363 forward $509 $-1 #
edge $-1 $521 -34.501411243750191 $366 -27.307408515839242 $362 $522 forward 7 unknown #
edge $-1 $367 -10.751268247220771 $521 -9.4405131238556439e-015 $223 $523 forward 7 unknown #
coedge $-1 $224 $513 $519 $524 forward $355 $-1 #
vertex $-1 $225 $525 #
vertex $-1 $225 $526 #
straight-curve $-1 6.1380826012050598 -46.931803654234926 12.839960431437618 0 1 0 I I #
coedge $-1 $369 $369 $-1 $527 reversed $228 $-1 #
edge $-1 $528 0 $528 6.2831853071796004 $229 $529 forward 7 unknown #
vertex $-1 $232 $530 #
ellipse-curve $-1 -1.9418167888986204 -22.6546676151527 9.2429590674821416 0 -0.66913061440640931 0.74314481823134659 1 0 0 1 I I #
coedge $-1 $373 $373 $-1 $531 reversed $235 $-1 #
edge $-1 $532 0 $532 6.2831853071796004 $236 $533 forward 7 unknown #
vertex $-1 $239 $534 #
ellipse-curve $-1 2.906122845163587 -22.6546676151527 9.2429590674821416 0 -0.66913061440640931 0.74314481823134659 1 0 0 1 I I #
face $-1 $-1 $390 $53 $-1 $535 reversed single #
loop $-1 $-1 $536 $240 #
plane-surface $-1 6.1380826012050598 -93.863607308469852 80.29473789455372 -1 0 0 0 -0.66913061440640931 0.74314481823134659 forward_v I I I I #
coedge $-1 $537 $538 $245 $387 forward $241 $-1 #
coedge $-1 $385 $243 $537 $539 reversed $151 $-1 #
coedge $-1 $243 $385 $389 $540 reversed $151 $-1 #
coedge $-1 $541 $536 $243 $384 forward $378 $-1 #
edge $-1 $542 -10.751268247220771 $543 -9.4405131238556439e-015 $383 $544 forward 7 unknown #
coedge $-1 $382 $381 $244 $386 forward $151 $-1 #
edge $-1 $545 -10.751268247220771 $391 -9.4405131238556439e-015 $244 $546 forward 7 unknown #
edge $-1 $392 20.282261395413563 $545 28.272010682750885 $380 $547 forward 7 unknown #
coedge $-1 $548 $246 $538 $549 reversed $390 $-1 #
coedge $-1 $246 $548 $382 $540 forward $390 $-1 #
loop $-1 $-1 $246 $377 #
vertex $-1 $247 $550 #
vertex $-1 $387 $551 #
straight-curve $-1 17.449941747350227 -26.649542258821363 40.14736894727686 0 0 1 I I #
coedge $-1 $394 $394 $-1 $552 reversed $250 $-1 #
edge $-1 $553 0 $553 6.2831853071796004 $251 $554 forward 7 unknown #
vertex $-1 $254 $555 #
ellipse-curve $-1 9.3700423572465468 -22.6546676151527 9.2429590674821416 0 -0.66913061440640931 0.74314481823134659 1 0 0 1 I I #
coedge $-1 $398 $398 $-1 $556 reversed $257 $-1 #
edge $-1 $557 0 $557 6.2831853071796004 $258 $558 forward 7 unknown #
vertex $-1 $261 $559 #
ellipse-curve $-1 14.217981991308754 -22.6546676151527 9.2429590674821416 0 -0.66913061440640931 0.74314481823134659 1 0 0 1 I I #
face $-1 $-1 $414 $56 $-1 $560 forward single #
loop $-1 $-1 $561 $262 #
plane-surface $-1 0 26.649542258821363 0 0 -1 0 0 0 -1 forward_v I I I I #
coedge $-1 $562 $563 $564 $565 reversed $263 $-1 #
coedge $-1 $566 $265 $267 $412 forward $165 $-1 #
coedge $-1 $265 $566 $562 $567 forward $165 $-1 #
coedge $-1 $564 $268 $265 $409 forward $414 $-1 #
edge $-1 $416 -4.4464212707107151 $568 5.5741954910402782 $408 $569 forward 7 unknown #
coedge $-1 $570 $571 $266 $411 forward $403 $-1 #
edge $-1 $572 -48.192693347595309 $415 -36.389071410645791 $410 $573 forward 7 unknown #
edge $-1 $416 39.528585083762231 $572 53.299084517642726 $267 $574 forward 7 unknown #
coedge $-1 $268 $564 $570 $575 forward $414 $-1 #
loop $-1 $-1 $564 $402 #
vertex $-1 $411 $576 #
vertex $-1 $269 $577 #
straight-curve $-1 -3.8825341605459336 42.650403245326743 12.839960431437618 0 -1 0 I I #
coedge $-1 $418 $418 $-1 $578 reversed $272 $-1 #
edge $-1 $579 0 $579 6.2831853071796004 $273 $580 forward 7 unknown #
vertex $-1 $276 $581 #
ellipse-curve $-1 -1.8784108081957314 23.103376589113196 6.938149462962854 0 0.85716730853699208 0.51503806187062418 0.5 0 0 1 I I #
coedge $-1 $422 $422 $-1 $582 reversed $279 $-1 #
edge $-1 $583 0 $583 6.2831853071796004 $280 $584 forward 7 unknown #
vertex $-1 $283 $585 #
ellipse-curve $-1 1.1277742203295631 23.103376589113196 6.938149462962854 0 0.85716730853699208 0.51503806187062418 0.5 0 0 1 I I #
coedge $-1 $426 $426 $-1 $586 reversed $286 $-1 #
edge $-1 $587 0 $587 6.2831853071796004 $287 $588 forward 7 unknown #
vertex $-1 $290 $589 #
ellipse-curve $-1 4.1339592488548575 23.103376589113196 6.938149462962854 0 0.85716730853699208 0.51503806187062418 0.5 0 0 1 I I #
face $-1 $-1 $590 $60 $-1 $591 reversed single #
loop $-1 $-1 $442 $291 #
plane-surface $-1 6.1380826012050598 85.300806490653486 98.458063684166817 -1 0 0 0 0.85716730853699208 0.51503806187062418 forward_v I I I I #
coedge $-1 $436 $592 $296 $441 forward $292 $-1 #
coedge $-1 $435 $294 $438 $593 reversed $184 $-1 #
coedge $-1 $294 $434 $594 $595 reversed $184 $-1 #
coedge $-1 $596 $433 $294 $437 forward $292 $-1 #
edge $-1 $597 -23.09319232592172 $598 -16.00086098650538 $436 $599 forward 7 unknown #
coedge $-1 $296 $295 $434 $593 forward $117 $-1 #
coedge $-1 $600 $594 $295 $440 forward $590 $-1 #
edge $-1 $601 -15.594812252791264 $444 -5.5741954910402782 $439 $602 forward 7 unknown #
edge $-1 $445 5.5741954910402782 $597 15.594812252791264 $433 $603 forward 7 unknown #
coedge $-1 $443 $297 $592 $604 reversed $431 $-1 #
coedge $-1 $297 $442 $600 $605 reversed $431 $-1 #
vertex $-1 $440 $606 #
vertex $-1 $441 $607 #
straight-curve $-1 6.1380826012050598 -0.80151493062393797 46.722571317961574 0 -0.51503806187062418 0.85716730853699208 I I #
coedge $-1 $447 $447 $-1 $608 reversed $301 $-1 #
edge $-1 $609 0 $609 6.2831853071796004 $302 $610 forward 7 unknown #
vertex $-1 $305 $611 #
ellipse-curve $-1 8.1422059535552549 23.103376589113196 6.938149462962854 0 0.85716730853699208 0.51503806187062418 0.5 0 0 1 I I #
coedge $-1 $451 $451 $-1 $612 reversed $308 $-1 #
edge $-1 $613 0 $613 6.2831853071796004 $309 $614 forward 7 unknown #
vertex $-1 $312 $615 #
ellipse-curve $-1 11.148390982080549 23.103376589113196 6.938149462962854 0 0.85716730853699208 0.51503806187062418 0.5 0 0 1 I I #
coedge $-1 $455 $455 $-1 $616 reversed $315 $-1 #
edge $-1 $617 0 $617 6.2831853071796004 $316 $618 forward 7 unknown #
vertex $-1 $319 $619 #
ellipse-curve $-1 14.154576010605844 23.103376589113196 6.938149462962854 0 0.85716730853699208 0.51503806187062418 0.5 0 0 1 I I #
face $-1 $-1 $471 $48 $-1 $620 reversed single #
loop $-1 $-1 $621 $320 #
plane-surface $-1 0 26.649542258821363 0 0 -1 0 0 0 -1 forward_v I I I I #
coedge $-1 $470 $469 $323 $463 reversed $471 $-1 #
edge $-1 $622 -26.649542258821363 $623 26.649542258821363 $462 $624 forward 7 unknown #
coedge $-1 $325 $324 $328 $475 forward $129 $-1 #
coedge $-1 $621 $331 $324 $466 reversed $460 $-1 #
edge $-1 $473 -50.2249214148381 $480 50.2249214148381 $465 $625 forward 7 unknown #
coedge $-1 $329 $626 $325 $468 reversed $321 $-1 #
edge $-1 $477 -50.2249214148381 $472 50.2249214148381 $467 $627 forward 7 unknown #
coedge $-1 $462 $326 $626 $628 forward $471 $-1 #
coedge $-1 $326 $462 $621 $629 reversed $471 $-1 #
loop $-1 $-1 $469 $459 #
vertex $-1 $327 $630 #
vertex $-1 $327 $631 #
straight-curve $-1 50.2249214148381 0 12.839960431437616 0 1 0 I I #
edge $-1 $480 -26.649542258821363 $477 26.649542258821363 $328 $632 forward 7 unknown #
coedge $-1 $626 $329 $334 $483 reversed $321 $-1 #
vertex $-1 $475 $633 #
straight-curve $-1 -50.2249214148381 -26.649542258821363 0 0 0 -1 I I #
coedge $-1 $331 $621 $333 $482 reversed $460 $-1 #
vertex $-1 $466 $634 #
straight-curve $-1 -50.2249214148381 26.649542258821363 0 0 0 -1 I I #
edge $-1 $336 -50.2249214148381 $622 50.2249214148381 $479 $635 forward 7 unknown #
edge $-1 $623 -50.2249214148381 $335 50.2249214148381 $476 $636 forward 7 unknown #
point $-1 -50.2249214148381 -26.649542258821363 -12.839960431437616 #
point $-1 -50.2249214148381 26.649542258821363 -12.839960431437616 #
face $-1 $-1 $502 $49 $-1 $637 forward single #
plane-surface $-1 -56.363004016043163 -0.96962139594613284 0 0 -1 0 0 0 -1 forward_v I I I I #
coedge $-1 $638 $639 $505 $640 forward $339 $-1 #
coedge $-1 $498 $341 $342 $494 reversed $211 $-1 #
coedge $-1 $341 $498 $501 $641 reversed $211 $-1 #
coedge $-1 $639 $638 $341 $492 reversed $339 $-1 #
edge $-1 $642 -12.839960431437616 $643 12.839960431437616 $491 $644 forward 7 unknown #
coedge $-1 $343 $342 $638 $645 forward $133 $-1 #
edge $-1 $496 -6.1380826012050633 $643 6.1380826012050633 $489 $646 forward 7 unknown #
edge $-1 $647 -6.1380826012050633 $351 6.1380826012050633 $348 $648 forward 7 unknown #
vertex $-1 $494 $649 #
straight-curve $-1 -50.2249214148381 0 -12.839960431437616 0 -1 0 I I #
coedge $-1 $490 $489 $345 $499 reversed $211 $-1 #
edge $-1 $503 -12.839960431437616 $496 12.839960431437616 $498 $650 forward 7 unknown #
coedge $-1 $651 $346 $349 $506 forward $502 $-1 #
coedge $-1 $346 $651 $490 $641 forward $502 $-1 #
loop $-1 $-1 $346 $486 #
vertex $-1 $347 $652 #
straight-curve $-1 -50.2249214148381 0 12.839960431437616 0 1 0 I I #
coedge $-1 $349 $348 $488 $640 reversed $350 $-1 #
edge $-1 $352 -6.1380826012050633 $653 6.1380826012050633 $349 $654 forward 7 unknown #
point $-1 -50.2249214148381 -0.96962139594613284 -12.839960431437616 #
point $-1 -50.2249214148381 -0.96962139594613284 12.839960431437616 #
loop $-1 $-1 $362 $354 #
plane-surface $-1 0 -26.649542258821363 0 0 1 0 0 0 1 forward_v I I I I #
coedge $-1 $512 $357 $359 $516 reversed $219 $-1 #
coedge $-1 $357 $511 $655 $656 reversed $219 $-1 #
coedge $-1 $365 $360 $357 $514 forward $355 $-1 #
edge $-1 $517 -28.272010682750885 $657 -20.282261395413563 $513 $658 forward 7 unknown #
coedge $-1 $359 $358 $520 $659 reversed $137 $-1 #
edge $-1 $660 9.4405131238556439e-015 $517 10.751268247220771 $511 $661 forward 7 unknown #
vertex $-1 $361 $662 #
straight-curve $-1 0.24107651406623987 -18.659792971484045 12.839960431437616 -1 0 0 I I #
coedge $-1 $655 $362 $365 $524 reversed $509 $-1 #
coedge $-1 $362 $655 $515 $659 forward $509 $-1 #
vertex $-1 $363 $663 #
straight-curve $-1 6.1380826012050598 -26.649542258821363 40.14736894727686 0 0 1 I I #
straight-curve $-1 6.1380826012050598 -26.64954225882137 5.6459577035266619 0 -0.74314481823134659 -0.66913061440640931 I I #
edge $-1 $657 -5.1737765449401003 $366 6.1380826012050598 $519 $664 forward 7 unknown #
point $-1 6.1380826012050598 -26.649542258821363 12.839960431437616 #
point $-1 6.1380826012050598 -18.659792971484041 12.839960431437616 #
edge $-1 $665 1 $665 0 $369 $-1 forward 7 unknown #
vertex $-1 $370 $666 #
ellipse-curve $-1 -1.9418167888986204 -21.826621798215989 8.3233210403675848 0 -0.66913061440640931 0.74314481823134659 1 0 0 1 I I #
point $-1 -0.94181678889862042 -22.654667615152707 9.2429590674821469 #
edge $-1 $667 1 $667 0 $373 $-1 forward 7 unknown #
vertex $-1 $374 $668 #
ellipse-curve $-1 2.906122845163587 -21.826621798215989 8.3233210403675848 0 -0.66913061440640931 0.74314481823134659 1 0 0 1 I I #
point $-1 3.906122845163587 -22.654667615152707 9.2429590674821469 #
plane-surface $-1 0 -26.649542258821363 0 0 1 0 0 0 1 forward_v I I I I #
coedge $-1 $383 $541 $669 $670 reversed $378 $-1 #
coedge $-1 $669 $380 $381 $539 forward $241 $-1 #
coedge $-1 $380 $669 $388 $549 forward $241 $-1 #
edge $-1 $545 -17.208865233283987 $542 -5.8970060871388199 $537 $671 forward 7 unknown #
edge $-1 $543 5.8970060871388199 $391 17.208865233283987 $389 $672 forward 7 unknown #
coedge $-1 $536 $383 $548 $673 reversed $378 $-1 #
vertex $-1 $539 $674 #
vertex $-1 $540 $675 #
straight-curve $-1 6.1380826012050598 -26.64954225882137 5.6459577035266619 0 -0.74314481823134659 -0.66913061440640931 I I #
vertex $-1 $387 $676 #
straight-curve $-1 17.449941747350227 -26.64954225882137 5.6459577035266619 0 -0.74314481823134659 -0.66913061440640931 I I #
straight-curve $-1 17.449941747350227 -46.931803654234926 12.839960431437618 0 1 0 I I #
coedge $-1 $389 $388 $541 $673 forward $390 $-1 #
edge $-1 $677 6.1380826012050598 $392 17.449941747350227 $388 $678 forward 7 unknown #
point $-1 17.449941747350227 -26.649542258821363 5.6459577035266681 #
point $-1 17.449941747350227 -26.649542258821363 12.839960431437616 #
edge $-1 $679 1 $679 0 $394 $-1 forward 7 unknown #
vertex $-1 $395 $680 #
ellipse-curve $-1 9.3700423572465468 -21.826621798215989 8.3233210403675848 0 -0.66913061440640931 0.74314481823134659 1 0 0 1 I I #
point $-1 10.370042357246547 -22.654667615152707 9.2429590674821469 #
edge $-1 $681 1 $681 0 $398 $-1 forward 7 unknown #
vertex $-1 $399 $682 #
ellipse-curve $-1 14.217981991308754 -21.826621798215989 8.3233210403675848 0 -0.66913061440640931 0.74314481823134659 1 0 0 1 I I #
point $-1 15.217981991308754 -22.654667615152707 9.2429590674821469 #
plane-surface $-1 0 0 12.839960431437616 0 0 1 1 0 0 forward_v I I I I #
coedge $-1 $571 $570 $563 $683 forward $403 $-1 #
coedge $-1 $563 $405 $407 $567 reversed $263 $-1 #
coedge $-1 $405 $562 $561 $683 reversed $263 $-1 #
coedge $-1 $413 $408 $405 $565 forward $414 $-1 #
edge $-1 $568 -23.09319232592172 $684 -16.00086098650538 $564 $685 forward 7 unknown #
coedge $-1 $407 $406 $571 $686 reversed $165 $-1 #
edge $-1 $687 -53.299084517642726 $568 -39.528585083762231 $562 $688 forward 7 unknown #
vertex $-1 $409 $689 #
straight-curve $-1 0.56388711016478155 19.557210919405023 12.839960431437614 1 0 0 I I #
coedge $-1 $561 $410 $413 $575 reversed $403 $-1 #
coedge $-1 $410 $561 $566 $686 forward $403 $-1 #
vertex $-1 $411 $690 #
straight-curve $-1 -3.8825341605459336 26.649542258821363 49.229031842083408 0 0 1 I I #
straight-curve $-1 -3.8825341605459336 -0.80151493062393797 46.722571317961574 0 0.51503806187062418 -0.85716730853699208 I I #
edge $-1 $684 -6.1380826012050598 $415 3.8825341605459336 $570 $691 forward 7 unknown #
point $-1 -3.8825341605459336 26.649542258821363 12.839960431437616 #
point $-1 -3.8825341605459336 19.557210919405023 12.839960431437618 #
edge $-1 $692 1 $692 0 $418 $-1 forward 7 unknown #
vertex $-1 $419 $693 #
ellipse-curve $-1 -1.8784108081957314 21.538739531263516 5.9980207042246443 0 0.85716730853699208 0.51503806187062418 0.5 0 0 1 I I #
point $-1 -1.3784108081957314 23.103376589113193 6.9381494629628513 #
edge $-1 $694 1 $694 0 $422 $-1 forward 7 unknown #
vertex $-1 $423 $695 #
ellipse-curve $-1 1.1277742203295631 21.538739531263516 5.9980207042246443 0 0.85716730853699208 0.51503806187062418 0.5 0 0 1 I I #
point $-1 1.6277742203295631 23.103376589113193 6.9381494629628513 #
edge $-1 $696 1 $696 0 $426 $-1 forward 7 unknown #
vertex $-1 $427 $697 #
ellipse-curve $-1 4.1339592488548575 21.538739531263516 5.9980207042246443 0 0.85716730853699208 0.51503806187062418 0.5 0 0 1 I I #
point $-1 4.6339592488548575 23.103376589113193 6.9381494629628513 #
loop $-1 $-1 $439 $430 #
plane-surface $-1 0 26.649542258821363 0 0 -1 0 0 0 -1 forward_v I I I I #
coedge $-1 $433 $596 $442 $604 forward $292 $-1 #
edge $-1 $601 -53.299084517642726 $597 -39.528585083762231 $434 $698 forward 7 unknown #
coedge $-1 $439 $699 $435 $595 forward $590 $-1 #
edge $-1 $598 36.389071410645791 $601 48.192693347595309 $594 $700 forward 7 unknown #
coedge $-1 $592 $436 $699 $701 forward $292 $-1 #
vertex $-1 $437 $702 #
vertex $-1 $701 $703 #
straight-curve $-1 16.158699362956046 42.650403245326743 12.839960431437618 0 1 0 I I #
coedge $-1 $699 $439 $443 $605 forward $590 $-1 #
vertex $-1 $595 $704 #
straight-curve $-1 0.56388711016478155 26.649542258821363 1.036338494488092 -1 0 0 I I #
straight-curve $-1 0.56388711016478155 19.557210919405023 12.839960431437614 1 0 0 I I #
edge $-1 $705 16.00086098650538 $445 23.09319232592172 $592 $706 forward 7 unknown #
edge $-1 $444 -48.192693347595309 $705 -36.389071410645791 $600 $707 forward 7 unknown #
point $-1 6.1380826012050598 26.649542258821363 1.0363384944880991 #
point $-1 6.1380826012050598 19.557210919405023 12.839960431437618 #
edge $-1 $708 1 $708 0 $447 $-1 forward 7 unknown #
vertex $-1 $448 $709 #
ellipse-curve $-1 8.1422059535552549 21.538739531263516 5.9980207042246443 0 0.85716730853699208 0.51503806187062418 0.5 0 0 1 I I #
point $-1 8.6422059535552549 23.103376589113193 6.9381494629628513 #
edge $-1 $710 1 $710 0 $451 $-1 forward 7 unknown #
vertex $-1 $452 $711 #
ellipse-curve $-1 11.148390982080549 21.538739531263516 5.9980207042246443 0 0.85716730853699208 0.51503806187062418 0.5 0 0 1 I I #
point $-1 11.648390982080549 23.103376589113193 6.9381494629628513 #
edge $-1 $712 1 $712 0 $455 $-1 forward 7 unknown #
vertex $-1 $456 $713 #
ellipse-curve $-1 14.154576010605844 21.538739531263516 5.9980207042246443 0 0.85716730853699208 0.51503806187062418 0.5 0 0 1 I I #
point $-1 14.654576010605844 23.103376589113193 6.9381494629628513 #
plane-surface $-1 50.2249214148381 0 0 -1 0 0 0 0 1 forward_v I I I I #
coedge $-1 $479 $465 $470 $629 forward $460 $-1 #
vertex $-1 $463 $714 #
vertex $-1 $628 $715 #
straight-curve $-1 50.2249214148381 0 -12.839960431437616 0 -1 0 I I #
straight-curve $-1 0 26.649542258821363 12.839960431437616 -1 0 0 I I #
coedge $-1 $467 $476 $469 $628 reversed $321 $-1 #
straight-curve $-1 0 -26.649542258821363 12.839960431437616 1 0 0 I I #
edge $-1 $472 -12.839960431437616 $623 12.839960431437616 $469 $716 forward 7 unknown #
edge $-1 $473 -12.839960431437616 $622 12.839960431437616 $470 $717 forward 7 unknown #
point $-1 50.2249214148381 -26.649542258821363 12.839960431437616 #
point $-1 50.2249214148381 26.649542258821363 12.839960431437616 #
straight-curve $-1 -50.2249214148381 0 12.839960431437616 0 -1 0 I I #
point $-1 -50.2249214148381 -26.649542258821363 12.839960431437616 #
point $-1 -50.2249214148381 26.649542258821363 12.839960431437616 #
straight-curve $-1 0 26.649542258821363 -12.839960431437616 1 0 0 I I #
straight-curve $-1 0 -26.649542258821363 -12.839960431437616 -1 0 0 I I #
plane-surface $-1 0 0 12.839960431437616 0 0 1 1 0 0 forward_v I I I I #
coedge $-1 $491 $488 $493 $645 reversed $339 $-1 #
coedge $-1 $488 $491 $651 $718 reversed $339 $-1 #
edge $-1 $653 -12.839960431437616 $647 12.839960431437616 $505 $719 forward 7 unknown #
edge $-1 $642 -6.1380826012050633 $503 6.1380826012050633 $490 $720 forward 7 unknown #
vertex $-1 $718 $721 #
vertex $-1 $645 $722 #
straight-curve $-1 -62.501086617248227 -5.5067705353682204 0 0 0 -1 I I #
edge $-1 $643 -2.2685745697110438 $647 2.2685745697110438 $638 $723 forward 7 unknown #
straight-curve $-1 -56.363004016043163 -5.5067705353682204 -12.839960431437616 -1 0 0 I I #
vertex $-1 $495 $724 #
straight-curve $-1 -56.363004016043163 -0.96962139594613284 -12.839960431437616 1 0 0 I I #
point $-1 -50.2249214148381 -5.5067705353682204 -12.839960431437616 #
straight-curve $-1 -50.2249214148381 -5.5067705353682204 0 0 0 -1 I I #
coedge $-1 $501 $500 $639 $718 forward $502 $-1 #
point $-1 -50.2249214148381 -5.5067705353682204 12.839960431437616 #
vertex $-1 $506 $725 #
straight-curve $-1 -56.363004016043163 -0.96962139594613284 12.839960431437616 -1 0 0 I I #
coedge $-1 $520 $519 $512 $656 forward $509 $-1 #
edge $-1 $657 27.307408515839242 $660 34.501411243750191 $655 $726 forward 7 unknown #
vertex $-1 $524 $727 #
straight-curve $-1 -5.1737765449401003 -46.931803654234926 12.839960431437618 0 -1 0 I I #
edge $-1 $660 -5.4148530590063402 $521 5.8970060871388199 $520 $728 forward 7 unknown #
vertex $-1 $659 $729 #
straight-curve $-1 -5.1737765449401003 -26.64954225882137 5.6459577035266619 0 0.74314481823134659 0.66913061440640931 I I #
point $-1 -5.1737765449401003 -18.659792971484041 12.839960431437616 #
point $-1 6.1380826012050598 -26.649542258821363 5.6459577035266681 #
straight-curve $-1 0 -26.649542258821363 12.839960431437616 1 0 0 I I #
vertex $-1 $527 $730 #
point $-1 -0.94181678889862042 -21.826621798215989 8.3233210403675848 #
vertex $-1 $531 $731 #
point $-1 3.906122845163587 -21.826621798215989 8.3233210403675848 #
coedge $-1 $538 $537 $536 $670 forward $241 $-1 #
edge $-1 $542 -28.272010682750885 $677 -20.282261395413563 $669 $732 forward 7 unknown #
straight-curve $-1 0.24107651406623987 -18.659792971484045 12.839960431437616 -1 0 0 I I #
straight-curve $-1 0.24107651406623987 -26.649542258821363 5.645957703526669 1 0 0 I I #
edge $-1 $677 27.307408515839242 $543 34.501411243750191 $548 $733 forward 7 unknown #
point $-1 6.1380826012050598 -18.659792971484041 12.839960431437616 #
point $-1 6.1380826012050598 -26.649542258821363 5.6459577035266681 #
point $-1 17.449941747350227 -18.659792971484041 12.839960431437616 #
vertex $-1 $549 $734 #
straight-curve $-1 0 -26.649542258821363 12.839960431437616 1 0 0 I I #
vertex $-1 $552 $735 #
point $-1 10.370042357246547 -21.826621798215989 8.3233210403675848 #
vertex $-1 $556 $736 #
point $-1 15.217981991308754 -21.826621798215989 8.3233210403675848 #
edge $-1 $684 36.389071410645791 $687 48.192693347595309 $561 $737 forward 7 unknown #
vertex $-1 $575 $738 #
straight-curve $-1 6.1380826012050598 42.650403245326743 12.839960431437618 0 1 0 I I #
edge $-1 $687 -5.5741954910402782 $572 4.4464212707107151 $571 $739 forward 7 unknown #
vertex $-1 $686 $740 #
straight-curve $-1 6.1380826012050598 -0.80151493062393797 46.722571317961574 0 -0.51503806187062418 0.85716730853699208 I I #
point $-1 6.1380826012050598 19.557210919405023 12.839960431437618 #
point $-1 -3.8825341605459336 26.649542258821363 1.0363384944880991 #
straight-curve $-1 0 26.649542258821363 12.839960431437616 -1 0 0 I I #
vertex $-1 $578 $741 #
point $-1 -1.3784108081957314 21.538739531263516 5.9980207042246443 #
vertex $-1 $582 $742 #
point $-1 1.6277742203295631 21.538739531263516 5.9980207042246443 #
vertex $-1 $586 $743 #
point $-1 4.6339592488548575 21.538739531263516 5.9980207042246443 #
straight-curve $-1 16.158699362956046 -0.80151493062393797 46.722571317961574 0 -0.51503806187062418 0.85716730853699208 I I #
coedge $-1 $594 $600 $596 $701 reversed $590 $-1 #
straight-curve $-1 16.158699362956046 26.649542258821363 49.229031842083408 0 0 -1 I I #
edge $-1 $598 -16.158699362956046 $705 -6.1380826012050598 $699 $744 forward 7 unknown #
point $-1 16.158699362956046 19.557210919405023 12.839960431437618 #
point $-1 16.158699362956046 26.649542258821363 12.839960431437616 #
point $-1 16.158699362956046 26.649542258821363 1.0363384944880991 #
vertex $-1 $605 $745 #
straight-curve $-1 6.1380826012050598 42.650403245326743 12.839960431437618 0 -1 0 I I #
straight-curve $-1 6.1380826012050598 26.649542258821363 49.229031842083408 0 0 1 I I #
vertex $-1 $608 $746 #
point $-1 8.6422059535552549 21.538739531263516 5.9980207042246443 #
vertex $-1 $612 $747 #
point $-1 11.648390982080549 21.538739531263516 5.9980207042246443 #
vertex $-1 $616 $748 #
point $-1 14.654576010605844 21.538739531263516 5.9980207042246443 #
point $-1 50.2249214148381 26.649542258821363 -12.839960431437616 #
point $-1 50.2249214148381 -26.649542258821363 -12.839960431437616 #
straight-curve $-1 50.2249214148381 -26.649542258821363 0 0 0 -1 I I #
straight-curve $-1 50.2249214148381 26.649542258821363 0 0 0 -1 I I #
edge $-1 $653 -2.2685745697110438 $642 2.2685745697110438 $639 $749 forward 7 unknown #
straight-curve $-1 -62.501086617248227 -0.96962139594613284 0 0 0 -1 I I #
straight-curve $-1 -56.363004016043163 -5.5067705353682204 12.839960431437616 1 0 0 I I #
point $-1 -62.501086617248227 -5.5067705353682204 12.839960431437616 #
point $-1 -62.501086617248227 -5.5067705353682204 -12.839960431437616 #
straight-curve $-1 -62.501086617248227 -3.2381959656571766 -12.839960431437616 0 1 0 I I #
point $-1 -62.501086617248227 -0.96962139594613284 -12.839960431437616 #
point $-1 -62.501086617248227 -0.96962139594613284 12.839960431437616 #
straight-curve $-1 -5.1737765449401003 -26.649542258821363 40.14736894727686 0 0 -1 I I #
point $-1 -5.1737765449401003 -26.649542258821363 12.839960431437616 #
straight-curve $-1 0.24107651406623987 -26.649542258821363 5.645957703526669 1 0 0 I I #
point $-1 -5.1737765449401003 -26.649542258821363 5.6459577035266681 #
point $-1 -1.9418167888986204 -21.157491183809576 7.5801762221362381 #
point $-1 2.906122845163587 -21.157491183809576 7.5801762221362381 #
straight-curve $-1 6.1380826012050598 -46.931803654234926 12.839960431437618 0 -1 0 I I #
straight-curve $-1 6.1380826012050598 -26.649542258821363 40.14736894727686 0 0 -1 I I #
point $-1 6.1380826012050598 -26.649542258821363 12.839960431437616 #
point $-1 9.3700423572465468 -21.157491183809576 7.5801762221362381 #
point $-1 14.217981991308754 -21.157491183809576 7.5801762221362381 #
straight-curve $-1 6.1380826012050598 26.649542258821363 49.229031842083408 0 0 -1 I I #
point $-1 6.1380826012050598 26.649542258821363 12.839960431437616 #
straight-curve $-1 0.56388711016478155 26.649542258821363 1.036338494488092 -1 0 0 I I #
point $-1 6.1380826012050598 26.649542258821363 1.0363384944880991 #
point $-1 -1.8784108081957314 21.110155876995023 5.7405016732893328 #
point $-1 1.1277742203295631 21.110155876995023 5.7405016732893328 #
point $-1 4.1339592488548575 21.110155876995023 5.7405016732893328 #
straight-curve $-1 0 26.649542258821363 12.839960431437616 -1 0 0 I I #
point $-1 6.1380826012050598 26.649542258821363 12.839960431437616 #
point $-1 8.1422059535552549 21.110155876995023 5.7405016732893328 #
point $-1 11.148390982080549 21.110155876995023 5.7405016732893328 #
point $-1 14.154576010605844 21.110155876995023 5.7405016732893328 #
straight-curve $-1 -62.501086617248227 -3.2381959656571766 12.839960431437616 0 -1 0 I I #
End-of-ACIS-data 