500 0 12 0           
7 Unknown 11 ACIS 5.0 NT 24 Fri Mar 26 17:15:52 1999 
-1 9.9999999999999995e-007 1e-010 
body $-1 $12 $-1 $13 #
body $-1 $14 $-1 $15 #
body $-1 $16 $-1 $17 #
body $-1 $18 $-1 $19 #
body $-1 $20 $-1 $21 #
body $-1 $22 $-1 $23 #
body $-1 $24 $-1 $25 #
body $-1 $26 $-1 $27 #
body $-1 $28 $-1 $29 #
body $-1 $30 $-1 $31 #
body $-1 $32 $-1 $33 #
body $-1 $34 $-1 $35 #
lump $-1 $-1 $36 $0 #
transform $-1 1 0 0 0 1 0 0 0 1 69.239173558763383 48.065514364730461 17.476208534151002 1 rotate no_reflect no_shear #
lump $-1 $-1 $37 $1 #
transform $-1 1 0 0 0 1 0 0 0 1 69.239173558763383 48.065514364730461 17.476208534151002 1 rotate no_reflect no_shear #
lump $-1 $-1 $38 $2 #
transform $-1 1 0 0 0 1 0 0 0 1 69.239173558763383 48.065514364730461 17.476208534151002 1 rotate no_reflect no_shear #
lump $-1 $-1 $39 $3 #
transform $-1 1 0 0 0 1 0 0 0 1 69.239173558763383 48.065514364730461 17.476208534151002 1 rotate no_reflect no_shear #
lump $-1 $-1 $40 $4 #
transform $-1 1 0 0 0 1 0 0 0 1 69.239173558763383 48.065514364730461 17.476208534151002 1 rotate no_reflect no_shear #
lump $-1 $-1 $41 $5 #
transform $-1 1 0 0 0 1 0 0 0 1 69.239173558763383 48.065514364730461 17.476208534151002 1 rotate no_reflect no_shear #
lump $-1 $-1 $42 $6 #
transform $-1 1 0 0 0 1 0 0 0 1 69.239173558763383 48.065514364730461 17.476208534151002 1 rotate no_reflect no_shear #
lump $-1 $-1 $43 $7 #
transform $-1 1 0 0 0 1 0 0 0 1 69.239173558763383 48.065514364730461 17.476208534151002 1 rotate no_reflect no_shear #
lump $-1 $-1 $44 $8 #
transform $-1 1 0 0 0 1 0 0 0 1 69.239173558763383 48.065514364730461 17.476208534151002 1 rotate no_reflect no_shear #
lump $-1 $-1 $45 $9 #
transform $-1 1 0 0 0 1 0 0 0 1 69.239173558763383 48.065514364730461 17.476208534151002 1 rotate no_reflect no_shear #
lump $-1 $-1 $46 $10 #
transform $-1 1 0 0 0 1 0 0 0 1 69.239173558763383 48.065514364730461 17.476208534151002 1 rotate no_reflect no_shear #
lump $-1 $-1 $47 $11 #
transform $-1 1 0 0 0 1 0 0 0 1 69.239173558763383 48.065514364730461 17.476208534151002 1 rotate no_reflect no_shear #
shell $-1 $-1 $-1 $48 $-1 $12 #
shell $-1 $-1 $-1 $49 $-1 $14 #
shell $-1 $-1 $-1 $50 $-1 $16 #
shell $-1 $-1 $-1 $51 $-1 $18 #
shell $-1 $-1 $-1 $52 $-1 $20 #
shell $-1 $-1 $-1 $53 $-1 $22 #
shell $-1 $-1 $-1 $54 $-1 $24 #
shell $-1 $-1 $-1 $55 $-1 $26 #
shell $-1 $-1 $-1 $56 $-1 $28 #
shell $-1 $-1 $-1 $57 $-1 $30 #
shell $-1 $-1 $-1 $58 $-1 $32 #
shell $-1 $-1 $-1 $59 $-1 $34 #
face $-1 $60 $61 $36 $-1 $62 forward single #
face $-1 $63 $64 $37 $-1 $65 reversed single #
face $-1 $66 $67 $38 $-1 $68 reversed single #
face $-1 $69 $70 $39 $-1 $71 reversed single #
face $-1 $72 $73 $40 $-1 $74 forward single #
face $-1 $75 $76 $41 $-1 $77 forward single #
face $-1 $78 $79 $42 $-1 $80 reversed single #
face $-1 $81 $82 $43 $-1 $83 forward single #
face $-1 $84 $85 $44 $-1 $86 forward single #
face $-1 $87 $88 $45 $-1 $89 reversed single #
face $-1 $90 $91 $46 $-1 $92 forward single #
face $-1 $93 $94 $47 $-1 $95 forward single #
face $-1 $96 $97 $36 $-1 $98 reversed single #
loop $-1 $-1 $99 $48 #
plane-surface $-1 0 0 17.476208534151002 0 0 1 1 0 0 forward_v I I I I #
face $-1 $100 $101 $37 $-1 $102 reversed single #
loop $-1 $-1 $103 $49 #
plane-surface $-1 -62.545007535691184 0 11.738132508408119 0 0 1 1 0 0 forward_v I I I I #
face $-1 $104 $105 $38 $-1 $106 reversed single #
loop $-1 $-1 $107 $50 #
plane-surface $-1 62.545007535691184 0 11.738132508408119 0 0 1 1 0 0 forward_v I I I I #
face $-1 $108 $109 $39 $-1 $110 reversed single #
loop $-1 $-1 $111 $51 #
plane-surface $-1 -29.604773130839916 -127.4934322398439 125.98348911159636 -1 0 0 0 -0.57357644374324357 0.81915203911291934 forward_v I I I I #
face $-1 $112 $113 $40 $-1 $114 forward single #
loop $-1 $115 $116 $52 #
cone-surface $-1 -39.72965417813144 -43.27587020275265 13.197239495873484 0 0.57357644374324357 -0.81915203911291934 2 0 0 1 I I 0 1 2 forward I I I I #
face $-1 $117 $118 $41 $-1 $119 forward single #
loop $-1 $120 $121 $53 #
cone-surface $-1 -33.654725549756527 -43.27587020275265 13.197239495873484 0 0.57357644374324357 -0.81915203911291934 2 0 0 1 I I 0 1 2 forward I I I I #
face $-1 $122 $123 $42 $-1 $124 reversed single #
loop $-1 $-1 $125 $54 #
plane-surface $-1 26.246068381779075 -127.4934322398439 125.98348911159636 -1 0 0 0 -0.57357644374324357 0.81915203911291934 forward_v I I I I #
face $-1 $126 $127 $43 $-1 $128 forward single #
loop $-1 $129 $130 $55 #
cone-surface $-1 16.121187334487544 -43.27587020275265 13.197239495873484 0 0.57357644374324357 -0.81915203911291934 2 0 0 1 I I 0 1 2 forward I I I I #
face $-1 $131 $132 $44 $-1 $133 forward single #
loop $-1 $134 $135 $56 #
cone-surface $-1 22.19611596286245 -43.27587020275265 13.197239495873484 0 0.57357644374324357 -0.81915203911291934 2 0 0 1 I I 0 1 2 forward I I I I #
face $-1 $136 $137 $45 $-1 $138 reversed single #
loop $-1 $-1 $139 $57 #
plane-surface $-1 17.369102533477061 60.504922867351908 178.96110582343829 1 0 0 0 -0.62932039886446345 -0.77714595512881146 forward_v I I I I #
face $-1 $140 $141 $46 $-1 $142 forward single #
loop $-1 $143 $144 $58 #
cone-surface $-1 24.729455924331276 41.683854654266398 11.335848317182297 0 -0.62932039886446345 -0.77714595512881146 2 0 0 1 I I 0 1 2 forward I I I I #
face $-1 $145 $146 $47 $-1 $147 forward single #
loop $-1 $148 $149 $59 #
cone-surface $-1 35.769986010612598 41.683854654266398 11.335848317182297 0 -0.62932039886446345 -0.77714595512881146 2 0 0 1 I I 0 1 2 forward I I I I #
face $-1 $150 $151 $36 $-1 $152 reversed single #
loop $-1 $-1 $153 $60 #
plane-surface $-1 0 0 -17.476208534151002 0 0 1 1 0 0 forward_v I I I I #
coedge $-1 $154 $155 $156 $157 forward $61 $-1 #
face $-1 $158 $159 $37 $-1 $160 reversed single #
loop $-1 $-1 $161 $63 #
plane-surface $-1 -55.850841512618985 0 14.60717052127956 -1 0 0 0 0 1 forward_v I I I I #
coedge $-1 $162 $163 $164 $165 forward $64 $-1 #
face $-1 $166 $167 $38 $-1 $168 forward single #
loop $-1 $-1 $169 $66 #
plane-surface $-1 55.850841512618985 0 14.60717052127956 1 0 0 0 0 -1 forward_v I I I I #
coedge $-1 $170 $171 $172 $173 reversed $67 $-1 #
face $-1 $174 $175 $39 $-1 $176 reversed single #
loop $-1 $-1 $177 $69 #
plane-surface $-1 -36.692189863943987 -48.065514364730447 12.548668697287653 0 -0.57357644374324357 0.81915203911291934 1 0 0 forward_v I I I I #
coedge $-1 $178 $179 $180 $181 reversed $70 $-1 #
face $-1 $-1 $182 $40 $-1 $183 forward single #
loop $-1 $184 $185 $72 #
cone-surface $-1 -39.72965417813144 -41.43127762752966 10.56288833691471 0 0.57357644374324357 -0.81915203911291934 1 0 0 1 I I -0.70710678118654746 0.70710678118654746 1 forward I I I I #
loop $-1 $-1 $186 $52 #
coedge $-1 $116 $116 $187 $188 reversed $73 $-1 #
face $-1 $-1 $189 $41 $-1 $190 forward single #
loop $-1 $191 $192 $75 #
cone-surface $-1 -33.654725549756527 -41.43127762752966 10.56288833691471 0 0.57357644374324357 -0.81915203911291934 1 0 0 1 I I -0.70710678118654746 0.70710678118654746 1 forward I I I I #
loop $-1 $-1 $193 $53 #
coedge $-1 $121 $121 $194 $195 reversed $76 $-1 #
face $-1 $196 $197 $42 $-1 $198 reversed single #
loop $-1 $-1 $199 $78 #
plane-surface $-1 19.158651648675004 -48.065514364730447 12.548668697287653 0 -0.57357644374324357 0.81915203911291934 1 0 0 forward_v I I I I #
coedge $-1 $200 $201 $202 $203 reversed $79 $-1 #
face $-1 $-1 $204 $43 $-1 $205 forward single #
loop $-1 $206 $207 $81 #
cone-surface $-1 16.121187334487544 -41.43127762752966 10.56288833691471 0 0.57357644374324357 -0.81915203911291934 1 0 0 1 I I -0.70710678118654746 0.70710678118654746 1 forward I I I I #
loop $-1 $-1 $208 $55 #
coedge $-1 $130 $130 $209 $210 reversed $82 $-1 #
face $-1 $-1 $211 $44 $-1 $212 forward single #
loop $-1 $213 $214 $84 #
cone-surface $-1 22.19611596286245 -41.43127762752966 10.56288833691471 0 0.57357644374324357 -0.81915203911291934 1 0 0 1 I I -0.70710678118654746 0.70710678118654746 1 forward I I I I #
loop $-1 $-1 $215 $56 #
coedge $-1 $135 $135 $216 $217 reversed $85 $-1 #
face $-1 $218 $219 $45 $-1 $220 reversed single #
loop $-1 $-1 $221 $87 #
plane-surface $-1 30.249720967471944 -26.642325774741664 71.343218488128855 0 0.62932039886446345 0.77714595512881146 1 0 0 forward_v I I I I #
coedge $-1 $222 $223 $224 $225 reversed $88 $-1 #
face $-1 $-1 $226 $46 $-1 $227 forward single #
loop $-1 $228 $229 $90 #
cone-surface $-1 24.729455924331276 38.76668658690825 7.7334458397336441 0 -0.62932039886446345 -0.77714595512881146 1 0 0 1 I I -0.70710678118654746 0.70710678118654746 1 forward I I I I #
loop $-1 $-1 $230 $58 #
coedge $-1 $144 $144 $231 $232 reversed $91 $-1 #
face $-1 $-1 $233 $47 $-1 $234 forward single #
loop $-1 $235 $236 $93 #
cone-surface $-1 35.769986010612598 38.76668658690825 7.7334458397336441 0 -0.62932039886446345 -0.77714595512881146 1 0 0 1 I I -0.70710678118654746 0.70710678118654746 1 forward I I I I #
loop $-1 $-1 $237 $59 #
coedge $-1 $149 $149 $238 $239 reversed $94 $-1 #
face $-1 $240 $241 $36 $-1 $242 reversed single #
loop $-1 $-1 $243 $96 #
plane-surface $-1 0 -48.065514364730461 0 0 1 0 0 0 1 forward_v I I I I #
coedge $-1 $244 $245 $246 $247 forward $97 $-1 #
coedge $-1 $248 $99 $249 $250 forward $61 $-1 #
coedge $-1 $99 $248 $251 $252 forward $61 $-1 #
coedge $-1 $253 $254 $99 $157 reversed $255 $-1 #
edge $-1 $256 -48.065514364730461 $257 48.065514364730461 $156 $258 forward 7 unknown #
face $-1 $259 $260 $37 $-1 $261 reversed single #
loop $-1 $-1 $262 $100 #
plane-surface $-1 0 48.065514364730461 0 0 -1 0 0 0 -1 forward_v I I I I #
coedge $-1 $164 $263 $264 $265 reversed $101 $-1 #
coedge $-1 $266 $103 $267 $268 reversed $64 $-1 #
coedge $-1 $103 $266 $269 $270 reversed $64 $-1 #
coedge $-1 $271 $161 $103 $165 reversed $101 $-1 #
edge $-1 $272 -48.065514364730461 $273 48.065514364730461 $164 $274 forward 7 unknown #
face $-1 $275 $276 $38 $-1 $277 reversed single #
loop $-1 $-1 $278 $104 #
plane-surface $-1 0 0 17.476208534151002 0 0 1 1 0 0 forward_v I I I I #
coedge $-1 $279 $280 $281 $282 reversed $105 $-1 #
coedge $-1 $283 $107 $284 $285 reversed $67 $-1 #
coedge $-1 $107 $283 $286 $287 reversed $67 $-1 #
coedge $-1 $288 $289 $107 $173 forward $290 $-1 #
edge $-1 $291 -48.065514364730461 $292 48.065514364730461 $172 $293 forward 7 unknown #
face $-1 $294 $295 $39 $-1 $296 forward single #
loop $-1 $-1 $297 $108 #
plane-surface $-1 -43.779606597048058 -127.4934322398439 125.98348911159636 1 0 0 0 0.57357644374324357 -0.81915203911291934 forward_v I I I I #
coedge $-1 $298 $299 $300 $301 reversed $109 $-1 #
coedge $-1 $179 $111 $302 $303 reversed $70 $-1 #
coedge $-1 $111 $178 $298 $304 reversed $70 $-1 #
coedge $-1 $300 $305 $111 $181 forward $295 $-1 #
edge $-1 $306 15.681201755191488 $307 22.718457816187644 $180 $308 forward 7 unknown #
loop $-1 $-1 $187 $112 #
plane-surface $-1 -36.692189863943987 -48.065514364730447 12.548668697287653 0 -0.57357644374324357 0.81915203911291934 1 0 0 forward_v I I I I #
loop $-1 $-1 $309 $72 #
coedge $-1 $185 $185 $186 $310 reversed $113 $-1 #
coedge $-1 $186 $186 $185 $310 forward $115 $-1 #
coedge $-1 $187 $187 $116 $188 forward $182 $-1 #
edge $-1 $311 -3.6362557693104555e-015 $311 6.2831853071795969 $187 $312 forward 7 unknown #
loop $-1 $-1 $194 $117 #
plane-surface $-1 -36.692189863943987 -48.065514364730447 12.548668697287653 0 -0.57357644374324357 0.81915203911291934 1 0 0 forward_v I I I I #
loop $-1 $-1 $313 $75 #
coedge $-1 $192 $192 $193 $314 reversed $118 $-1 #
coedge $-1 $193 $193 $192 $314 forward $120 $-1 #
coedge $-1 $194 $194 $121 $195 forward $189 $-1 #
edge $-1 $315 -3.6362557693104555e-015 $315 6.2831853071795969 $194 $316 forward 7 unknown #
face $-1 $317 $318 $42 $-1 $319 reversed single #
loop $-1 $-1 $320 $122 #
plane-surface $-1 12.071234915570935 -127.4934322398439 125.98348911159636 1 0 0 0 0.57357644374324357 -0.81915203911291934 forward_v I I I I #
coedge $-1 $321 $322 $323 $324 reversed $123 $-1 #
coedge $-1 $201 $125 $325 $326 reversed $79 $-1 #
coedge $-1 $125 $200 $321 $327 reversed $79 $-1 #
coedge $-1 $323 $328 $125 $203 forward $329 $-1 #
edge $-1 $330 15.681201755191488 $331 22.718457816187644 $202 $332 forward 7 unknown #
loop $-1 $-1 $209 $126 #
plane-surface $-1 19.158651648675004 -48.065514364730447 12.548668697287653 0 -0.57357644374324357 0.81915203911291934 1 0 0 forward_v I I I I #
loop $-1 $-1 $333 $81 #
coedge $-1 $207 $207 $208 $334 reversed $127 $-1 #
coedge $-1 $208 $208 $207 $334 forward $129 $-1 #
coedge $-1 $209 $209 $130 $210 forward $204 $-1 #
edge $-1 $335 -3.6362557693104555e-015 $335 6.2831853071795969 $209 $336 forward 7 unknown #
loop $-1 $-1 $216 $131 #
plane-surface $-1 19.158651648675004 -48.065514364730447 12.548668697287653 0 -0.57357644374324357 0.81915203911291934 1 0 0 forward_v I I I I #
loop $-1 $-1 $337 $84 #
coedge $-1 $214 $214 $215 $338 reversed $132 $-1 #
coedge $-1 $215 $215 $214 $338 forward $134 $-1 #
coedge $-1 $216 $216 $135 $217 forward $211 $-1 #
edge $-1 $339 -3.6362557693104555e-015 $339 6.2831853071795969 $216 $340 forward 7 unknown #
face $-1 $341 $342 $45 $-1 $343 reversed single #
loop $-1 $-1 $344 $136 #
plane-surface $-1 43.130339401466827 60.504922867351908 178.96110582343829 -1 0 0 0 0.62932039886446345 0.77714595512881146 forward_v I I I I #
coedge $-1 $345 $346 $347 $348 reversed $137 $-1 #
coedge $-1 $223 $139 $349 $350 reversed $88 $-1 #
coedge $-1 $139 $222 $345 $351 reversed $88 $-1 #
coedge $-1 $347 $352 $139 $225 forward $353 $-1 #
edge $-1 $354 -17.813052931054507 $355 -9.6254288471137883 $224 $356 forward 7 unknown #
loop $-1 $-1 $231 $140 #
plane-surface $-1 30.249720967471944 -26.642325774741664 71.343218488128855 0 0.62932039886446345 0.77714595512881146 1 0 0 forward_v I I I I #
loop $-1 $-1 $357 $90 #
coedge $-1 $229 $229 $230 $358 reversed $141 $-1 #
coedge $-1 $230 $230 $229 $358 forward $143 $-1 #
coedge $-1 $231 $231 $144 $232 forward $226 $-1 #
edge $-1 $359 6.7533843063698478e-017 $359 6.2831853071796004 $231 $360 forward 7 unknown #
loop $-1 $-1 $238 $145 #
plane-surface $-1 30.249720967471944 -26.642325774741664 71.343218488128855 0 0.62932039886446345 0.77714595512881146 1 0 0 forward_v I I I I #
loop $-1 $-1 $361 $93 #
coedge $-1 $236 $236 $237 $362 reversed $146 $-1 #
coedge $-1 $237 $237 $236 $362 forward $148 $-1 #
coedge $-1 $238 $238 $149 $239 forward $233 $-1 #
edge $-1 $363 6.7533843063698478e-017 $363 6.2831853071796004 $238 $364 forward 7 unknown #
face $-1 $365 $366 $36 $-1 $367 reversed single #
loop $-1 $-1 $368 $150 #
plane-surface $-1 -69.239173558763383 0 0 1 0 0 0 0 -1 forward_v I I I I #
coedge $-1 $369 $251 $370 $371 forward $151 $-1 #
coedge $-1 $372 $153 $369 $373 forward $97 $-1 #
coedge $-1 $153 $372 $374 $375 forward $97 $-1 #
coedge $-1 $254 $253 $153 $247 reversed $255 $-1 #
edge $-1 $376 -48.065514364730461 $377 48.065514364730461 $246 $378 forward 7 unknown #
coedge $-1 $155 $154 $379 $380 forward $61 $-1 #
coedge $-1 $381 $382 $154 $250 reversed $366 $-1 #
edge $-1 $257 -69.239173558763383 $383 69.239173558763383 $249 $384 forward 7 unknown #
coedge $-1 $243 $385 $155 $252 reversed $151 $-1 #
edge $-1 $386 -69.239173558763383 $256 69.239173558763383 $251 $387 forward 7 unknown #
coedge $-1 $246 $156 $385 $388 forward $255 $-1 #
coedge $-1 $156 $246 $381 $389 reversed $255 $-1 #
loop $-1 $-1 $253 $365 #
vertex $-1 $157 $390 #
vertex $-1 $157 $391 #
straight-curve $-1 69.239173558763383 0 17.476208534151002 0 1 0 I I #
face $-1 $392 $393 $37 $-1 $394 forward single #
loop $-1 $-1 $395 $158 #
plane-surface $-1 -69.239173558763383 0 0 1 0 0 0 0 -1 forward_v I I I I #
coedge $-1 $269 $396 $271 $397 forward $159 $-1 #
coedge $-1 $161 $271 $398 $399 reversed $101 $-1 #
coedge $-1 $400 $267 $161 $265 forward $401 $-1 #
edge $-1 $273 4.4345472477683394 $402 10.172623273511219 $264 $403 forward 7 unknown #
coedge $-1 $163 $162 $395 $404 reversed $64 $-1 #
coedge $-1 $264 $405 $162 $268 forward $401 $-1 #
edge $-1 $406 -37.966669790917791 $273 -24.578337744773393 $267 $407 forward 7 unknown #
coedge $-1 $408 $262 $163 $270 forward $159 $-1 #
edge $-1 $272 24.578337744773393 $409 37.966669790917791 $269 $410 forward 7 unknown #
coedge $-1 $263 $164 $262 $397 reversed $101 $-1 #
vertex $-1 $270 $411 #
vertex $-1 $268 $412 #
straight-curve $-1 -55.850841512618985 0 11.738132508408119 0 -1 0 I I #
face $-1 $413 $414 $38 $-1 $415 reversed single #
loop $-1 $-1 $416 $166 #
plane-surface $-1 0 -48.065514364730461 0 0 1 0 0 0 1 forward_v I I I I #
coedge $-1 $417 $418 $280 $419 forward $167 $-1 #
coedge $-1 $420 $169 $283 $421 reversed $105 $-1 #
coedge $-1 $169 $420 $278 $419 reversed $105 $-1 #
coedge $-1 $422 $286 $169 $282 forward $414 $-1 #
edge $-1 $423 4.4345472477683394 $424 10.172623273511219 $281 $425 forward 7 unknown #
coedge $-1 $171 $170 $279 $421 forward $67 $-1 #
coedge $-1 $426 $416 $170 $285 forward $276 $-1 #
edge $-1 $427 24.578337744773393 $291 37.966669790917791 $284 $428 forward 7 unknown #
coedge $-1 $281 $429 $171 $287 forward $414 $-1 #
edge $-1 $292 -37.966669790917791 $423 -24.578337744773393 $286 $430 forward 7 unknown #
coedge $-1 $431 $172 $429 $432 reversed $290 $-1 #
coedge $-1 $172 $431 $426 $433 forward $290 $-1 #
loop $-1 $-1 $172 $413 #
vertex $-1 $285 $434 #
vertex $-1 $173 $435 #
straight-curve $-1 69.239173558763383 0 11.738132508408119 0 1 0 I I #
face $-1 $-1 $436 $39 $-1 $437 reversed single #
loop $-1 $-1 $180 $174 #
plane-surface $-1 0 0 17.476208534151002 0 0 1 1 0 0 forward_v I I I I #
coedge $-1 $438 $439 $440 $441 reversed $175 $-1 #
coedge $-1 $442 $177 $179 $304 forward $109 $-1 #
coedge $-1 $177 $442 $438 $443 forward $109 $-1 #
coedge $-1 $440 $180 $177 $301 forward $295 $-1 #
edge $-1 $307 11.258678198867923 $444 25.433511665076065 $300 $445 forward 7 unknown #
coedge $-1 $446 $447 $178 $303 forward $436 $-1 #
edge $-1 $448 -50.443075858510539 $306 -45.515536021647179 $302 $449 forward 7 unknown #
edge $-1 $307 -8.5909034281559826 $448 1.7754109250068268e-014 $179 $450 forward 7 unknown #
coedge $-1 $180 $440 $446 $451 forward $295 $-1 #
vertex $-1 $303 $452 #
vertex $-1 $181 $453 #
straight-curve $-1 -29.604773130839916 -63.746716119921949 17.476208534150999 0 1 0 I I #
coedge $-1 $309 $309 $-1 $454 reversed $184 $-1 #
edge $-1 $455 0 $455 6.2831853071796004 $185 $456 forward 7 unknown #
vertex $-1 $188 $457 #
ellipse-curve $-1 -39.72965417813144 -44.546886334232383 15.01243861571932 0 -0.57357644374324357 0.81915203911291934 2 0 0 1 I I #
coedge $-1 $313 $313 $-1 $458 reversed $191 $-1 #
edge $-1 $459 0 $459 6.2831853071796004 $192 $460 forward 7 unknown #
vertex $-1 $195 $461 #
ellipse-curve $-1 -33.654725549756527 -44.546886334232383 15.01243861571932 0 -0.57357644374324357 0.81915203911291934 2 0 0 1 I I #
face $-1 $-1 $329 $42 $-1 $462 forward single #
loop $-1 $-1 $463 $196 #
plane-surface $-1 0 -48.065514364730461 0 0 1 0 0 0 1 forward_v I I I I #
coedge $-1 $464 $465 $466 $467 reversed $197 $-1 #
coedge $-1 $468 $199 $201 $327 forward $123 $-1 #
coedge $-1 $199 $468 $464 $469 forward $123 $-1 #
coedge $-1 $466 $202 $199 $324 forward $329 $-1 #
edge $-1 $331 -16.666742557441573 $470 -2.491909091233433 $323 $471 forward 7 unknown #
coedge $-1 $472 $473 $200 $326 forward $318 $-1 #
edge $-1 $474 -50.443075858510539 $330 -45.515536021647179 $325 $475 forward 7 unknown #
edge $-1 $331 -8.5909034281559826 $474 1.7754109250068268e-014 $201 $476 forward 7 unknown #
coedge $-1 $202 $466 $472 $477 forward $329 $-1 #
loop $-1 $-1 $466 $317 #
vertex $-1 $326 $478 #
vertex $-1 $203 $479 #
straight-curve $-1 26.246068381779075 -63.746716119921949 17.476208534150999 0 1 0 I I #
coedge $-1 $333 $333 $-1 $480 reversed $206 $-1 #
edge $-1 $481 0 $481 6.2831853071796004 $207 $482 forward 7 unknown #
vertex $-1 $210 $483 #
ellipse-curve $-1 16.121187334487544 -44.546886334232383 15.01243861571932 0 -0.57357644374324357 0.81915203911291934 2 0 0 1 I I #
coedge $-1 $337 $337 $-1 $484 reversed $213 $-1 #
edge $-1 $485 0 $485 6.2831853071796004 $214 $486 forward 7 unknown #
vertex $-1 $217 $487 #
ellipse-curve $-1 22.19611596286245 -44.546886334232383 15.01243861571932 0 -0.57357644374324357 0.81915203911291934 2 0 0 1 I I #
face $-1 $-1 $353 $45 $-1 $488 forward single #
loop $-1 $-1 $489 $218 #
plane-surface $-1 0 48.065514364730461 0 0 -1 0 0 0 -1 forward_v I I I I #
coedge $-1 $490 $491 $492 $493 reversed $219 $-1 #
coedge $-1 $494 $221 $223 $351 forward $137 $-1 #
coedge $-1 $221 $494 $490 $495 forward $137 $-1 #
coedge $-1 $492 $224 $221 $348 forward $353 $-1 #
edge $-1 $355 2.2442420497410893 $496 28.005478917730855 $347 $497 forward 7 unknown #
coedge $-1 $498 $499 $222 $350 forward $342 $-1 #
edge $-1 $500 -78.634551766865826 $354 -72.004344377568145 $349 $501 forward 7 unknown #
edge $-1 $355 85.595525031724208 $500 96.131028729460922 $223 $502 forward 7 unknown #
coedge $-1 $224 $492 $498 $503 forward $353 $-1 #
loop $-1 $-1 $492 $341 #
vertex $-1 $350 $504 #
vertex $-1 $225 $505 #
straight-curve $-1 17.369102533477061 30.252461433675954 17.476208534150999 0 -1 0 I I #
coedge $-1 $357 $357 $-1 $506 reversed $228 $-1 #
edge $-1 $507 0 $507 6.2831853071796004 $229 $508 forward 7 unknown #
vertex $-1 $232 $509 #
ellipse-curve $-1 24.729455924331276 43.971702322760102 14.161104839502158 0 0.62932039886446345 0.77714595512881146 2 0 0 1 I I #
coedge $-1 $361 $361 $-1 $510 reversed $235 $-1 #
edge $-1 $511 0 $511 6.2831853071796004 $236 $512 forward 7 unknown #
vertex $-1 $239 $513 #
ellipse-curve $-1 35.769986010612598 43.971702322760102 14.161104839502158 0 0.62932039886446345 0.77714595512881146 2 0 0 1 I I #
face $-1 $-1 $255 $36 $-1 $514 reversed single #
loop $-1 $-1 $381 $240 #
plane-surface $-1 0 48.065514364730461 0 0 -1 0 0 0 -1 forward_v I I I I #
coedge $-1 $515 $379 $382 $516 forward $241 $-1 #
coedge $-1 $385 $243 $244 $373 reversed $151 $-1 #
coedge $-1 $379 $515 $243 $371 reversed $241 $-1 #
edge $-1 $386 -17.476208534151002 $517 17.476208534151002 $370 $518 forward 7 unknown #
coedge $-1 $245 $244 $515 $519 forward $97 $-1 #
edge $-1 $377 -69.239173558763383 $517 69.239173558763383 $369 $520 forward 7 unknown #
coedge $-1 $382 $381 $245 $375 reversed $366 $-1 #
edge $-1 $521 -69.239173558763383 $376 69.239173558763383 $374 $522 forward 7 unknown #
vertex $-1 $247 $523 #
vertex $-1 $388 $524 #
straight-curve $-1 69.239173558763383 0 -17.476208534151002 0 -1 0 I I #
coedge $-1 $368 $370 $248 $380 reversed $241 $-1 #
edge $-1 $383 -48.065514364730461 $386 48.065514364730461 $379 $525 forward 7 unknown #
coedge $-1 $374 $249 $254 $389 forward $366 $-1 #
coedge $-1 $249 $374 $368 $516 reversed $366 $-1 #
vertex $-1 $250 $526 #
straight-curve $-1 0 48.065514364730461 17.476208534151002 -1 0 0 I I #
coedge $-1 $251 $369 $253 $388 reversed $151 $-1 #
vertex $-1 $380 $527 #
straight-curve $-1 0 -48.065514364730461 17.476208534151002 1 0 0 I I #
edge $-1 $256 -17.476208534151002 $377 17.476208534151002 $253 $528 forward 7 unknown #
edge $-1 $257 -17.476208534151002 $376 17.476208534151002 $254 $529 forward 7 unknown #
point $-1 69.239173558763383 -48.065514364730461 17.476208534151002 #
point $-1 69.239173558763383 48.065514364730461 17.476208534151002 #
face $-1 $-1 $401 $37 $-1 $530 reversed single #
loop $-1 $-1 $398 $259 #
plane-surface $-1 0 0 17.476208534151002 0 0 1 1 0 0 forward_v I I I I #
coedge $-1 $531 $532 $266 $404 forward $260 $-1 #
coedge $-1 $262 $408 $533 $534 reversed $159 $-1 #
edge $-1 $535 -10.172623273511219 $272 -4.4345472477683394 $262 $536 forward 7 unknown #
coedge $-1 $533 $537 $263 $399 forward $393 $-1 #
edge $-1 $402 -48.065514364730461 $535 48.065514364730461 $398 $538 forward 7 unknown #
coedge $-1 $405 $264 $537 $539 reversed $401 $-1 #
loop $-1 $-1 $264 $392 #
vertex $-1 $265 $540 #
straight-curve $-1 -55.850841512618985 -48.065514364730461 7.30358526063978 0 0 1 I I #
edge $-1 $409 -48.065514364730461 $406 48.065514364730461 $395 $541 forward 7 unknown #
coedge $-1 $267 $400 $531 $542 forward $401 $-1 #
vertex $-1 $404 $543 #
straight-curve $-1 -31.272503767845592 -48.065514364730461 11.738132508408119 1 0 0 I I #
coedge $-1 $396 $269 $532 $544 reversed $159 $-1 #
vertex $-1 $404 $545 #
straight-curve $-1 -31.272503767845592 48.065514364730461 11.738132508408119 -1 0 0 I I #
point $-1 -55.850841512618985 48.065514364730461 11.738132508408119 #
point $-1 -55.850841512618985 -48.065514364730461 11.738132508408119 #
face $-1 $-1 $290 $38 $-1 $546 reversed single #
loop $-1 $-1 $281 $275 #
plane-surface $-1 0 48.065514364730461 0 0 -1 0 0 0 -1 forward_v I I I I #
coedge $-1 $284 $547 $420 $548 forward $276 $-1 #
coedge $-1 $549 $278 $547 $550 forward $167 $-1 #
coedge $-1 $278 $549 $422 $551 forward $167 $-1 #
edge $-1 $424 -48.065514364730461 $552 48.065514364730461 $278 $553 forward 7 unknown #
coedge $-1 $280 $279 $416 $548 reversed $105 $-1 #
edge $-1 $427 -48.065514364730461 $423 48.065514364730461 $279 $554 forward 7 unknown #
coedge $-1 $429 $281 $418 $551 reversed $414 $-1 #
vertex $-1 $287 $555 #
vertex $-1 $282 $556 #
straight-curve $-1 55.850841512618985 48.065514364730461 7.30358526063978 0 0 1 I I #
coedge $-1 $547 $284 $289 $433 reversed $276 $-1 #
vertex $-1 $285 $557 #
straight-curve $-1 31.272503767845592 -48.065514364730461 11.738132508408119 1 0 0 I I #
coedge $-1 $286 $422 $288 $432 forward $414 $-1 #
straight-curve $-1 31.272503767845592 48.065514364730461 11.738132508408119 -1 0 0 I I #
coedge $-1 $289 $288 $549 $558 reversed $290 $-1 #
edge $-1 $559 -17.476208534151002 $292 -11.738132508408119 $288 $560 forward 7 unknown #
edge $-1 $561 -17.476208534151002 $291 -11.738132508408119 $289 $562 forward 7 unknown #
point $-1 69.239173558763383 -48.065514364730461 11.738132508408119 #
point $-1 69.239173558763383 48.065514364730461 11.738132508408119 #
loop $-1 $-1 $302 $294 #
plane-surface $-1 0 -48.065514364730461 0 0 1 0 0 0 1 forward_v I I I I #
coedge $-1 $439 $297 $299 $443 reversed $175 $-1 #
coedge $-1 $297 $438 $563 $564 reversed $175 $-1 #
coedge $-1 $305 $300 $297 $441 forward $295 $-1 #
edge $-1 $444 -22.718457816187644 $565 -15.681201755191488 $440 $566 forward 7 unknown #
coedge $-1 $299 $298 $447 $567 reversed $109 $-1 #
edge $-1 $568 -1.7754109250068268e-014 $444 8.5909034281559826 $438 $569 forward 7 unknown #
vertex $-1 $301 $570 #
straight-curve $-1 -18.346094931971994 -41.028258303734297 17.476208534151002 -1 0 0 I I #
coedge $-1 $563 $302 $305 $451 reversed $436 $-1 #
coedge $-1 $302 $563 $442 $567 forward $436 $-1 #
vertex $-1 $303 $571 #
straight-curve $-1 -29.604773130839916 -48.065514364730461 62.991744555798178 0 0 1 I I #
straight-curve $-1 -29.604773130839916 -48.065514364730447 12.548668697287653 0 -0.81915203911291934 -0.57357644374324357 I I #
edge $-1 $565 -43.779606597048058 $306 -29.604773130839916 $446 $572 forward 7 unknown #
point $-1 -29.604773130839916 -48.065514364730461 17.476208534151002 #
point $-1 -29.604773130839916 -41.028258303734304 17.476208534151002 #
edge $-1 $573 1 $573 0 $309 $-1 forward 7 unknown #
vertex $-1 $310 $574 #
ellipse-curve $-1 -39.72965417813144 -42.004854071272902 11.38204037602763 0 -0.57357644374324357 0.81915203911291934 2 0 0 1 I I #
point $-1 -37.72965417813144 -44.546886334232404 15.012438615719338 #
edge $-1 $575 1 $575 0 $313 $-1 forward 7 unknown #
vertex $-1 $314 $576 #
ellipse-curve $-1 -33.654725549756527 -42.004854071272902 11.38204037602763 0 -0.57357644374324357 0.81915203911291934 2 0 0 1 I I #
point $-1 -31.654725549756527 -44.546886334232404 15.012438615719338 #
plane-surface $-1 0 0 17.476208534151002 0 0 1 1 0 0 forward_v I I I I #
coedge $-1 $473 $472 $465 $577 forward $318 $-1 #
coedge $-1 $465 $320 $322 $469 reversed $197 $-1 #
coedge $-1 $320 $464 $463 $577 reversed $197 $-1 #
coedge $-1 $328 $323 $320 $467 forward $329 $-1 #
edge $-1 $470 -22.718457816187644 $578 -15.681201755191488 $466 $579 forward 7 unknown #
coedge $-1 $322 $321 $473 $580 reversed $123 $-1 #
edge $-1 $581 -1.7754109250068268e-014 $470 8.5909034281559826 $464 $582 forward 7 unknown #
vertex $-1 $324 $583 #
straight-curve $-1 9.5793258243375021 -41.028258303734297 17.476208534151002 -1 0 0 I I #
coedge $-1 $463 $325 $328 $477 reversed $318 $-1 #
coedge $-1 $325 $463 $468 $580 forward $318 $-1 #
vertex $-1 $326 $584 #
straight-curve $-1 26.246068381779075 -48.065514364730461 62.991744555798178 0 0 1 I I #
straight-curve $-1 26.246068381779075 -48.065514364730447 12.548668697287653 0 -0.81915203911291934 -0.57357644374324357 I I #
edge $-1 $578 12.071234915570935 $330 26.246068381779075 $472 $585 forward 7 unknown #
point $-1 26.246068381779075 -48.065514364730461 17.476208534151002 #
point $-1 26.246068381779075 -41.028258303734304 17.476208534151002 #
edge $-1 $586 1 $586 0 $333 $-1 forward 7 unknown #
vertex $-1 $334 $587 #
ellipse-curve $-1 16.121187334487544 -42.004854071272902 11.38204037602763 0 -0.57357644374324357 0.81915203911291934 2 0 0 1 I I #
point $-1 18.121187334487544 -44.546886334232404 15.012438615719338 #
edge $-1 $588 1 $588 0 $337 $-1 forward 7 unknown #
vertex $-1 $338 $589 #
ellipse-curve $-1 22.19611596286245 -42.004854071272902 11.38204037602763 0 -0.57357644374324357 0.81915203911291934 2 0 0 1 I I #
point $-1 24.19611596286245 -44.546886334232404 15.012438615719338 #
plane-surface $-1 0 0 17.476208534151002 0 0 1 1 0 0 forward_v I I I I #
coedge $-1 $499 $498 $491 $590 forward $342 $-1 #
coedge $-1 $491 $344 $346 $495 reversed $219 $-1 #
coedge $-1 $344 $490 $489 $590 reversed $219 $-1 #
coedge $-1 $352 $347 $344 $493 forward $353 $-1 #
edge $-1 $496 9.6254288471137883 $591 17.813052931054507 $492 $592 forward 7 unknown #
coedge $-1 $346 $345 $499 $593 reversed $137 $-1 #
edge $-1 $594 -96.131028729460922 $496 -85.595525031724208 $490 $595 forward 7 unknown #
vertex $-1 $348 $596 #
straight-curve $-1 15.124860483735972 39.877890280789742 17.476208534151006 1 0 0 I I #
coedge $-1 $489 $349 $352 $503 reversed $342 $-1 #
coedge $-1 $349 $489 $494 $593 forward $342 $-1 #
vertex $-1 $350 $597 #
straight-curve $-1 17.369102533477061 48.065514364730461 89.480552911719144 0 0 1 I I #
straight-curve $-1 17.369102533477061 -26.642325774741664 71.343218488128855 0 0.77714595512881146 -0.62932039886446345 I I #
edge $-1 $591 -43.130339401466827 $354 -17.369102533477061 $498 $598 forward 7 unknown #
point $-1 17.369102533477061 48.065514364730461 17.476208534151002 #
point $-1 17.369102533477061 39.877890280789742 17.476208534151006 #
edge $-1 $599 1 $599 0 $357 $-1 forward 7 unknown #
vertex $-1 $358 $600 #
ellipse-curve $-1 24.729455924331276 39.396006985772715 8.5105917948624548 0 0.62932039886446345 0.77714595512881146 2 0 0 1 I I #
point $-1 26.729455924331276 43.971702322760088 14.161104839502141 #
edge $-1 $601 1 $601 0 $361 $-1 forward 7 unknown #
vertex $-1 $362 $602 #
ellipse-curve $-1 35.769986010612598 39.396006985772715 8.5105917948624548 0 0.62932039886446345 0.77714595512881146 2 0 0 1 I I #
point $-1 37.769986010612598 43.971702322760088 14.161104839502141 #
plane-surface $-1 69.239173558763383 0 0 -1 0 0 0 0 1 forward_v I I I I #
coedge $-1 $370 $368 $372 $519 reversed $241 $-1 #
edge $-1 $383 -17.476208534151002 $521 17.476208534151002 $382 $603 forward 7 unknown #
vertex $-1 $519 $604 #
straight-curve $-1 -69.239173558763383 -48.065514364730461 0 0 0 -1 I I #
edge $-1 $517 -48.065514364730461 $521 48.065514364730461 $515 $605 forward 7 unknown #
straight-curve $-1 0 -48.065514364730461 -17.476208534151002 -1 0 0 I I #
vertex $-1 $375 $606 #
straight-curve $-1 0 48.065514364730461 -17.476208534151002 1 0 0 I I #
point $-1 69.239173558763383 48.065514364730461 -17.476208534151002 #
point $-1 69.239173558763383 -48.065514364730461 -17.476208534151002 #
straight-curve $-1 -69.239173558763383 0 17.476208534151002 0 -1 0 I I #
point $-1 -69.239173558763383 48.065514364730461 17.476208534151002 #
point $-1 -69.239173558763383 -48.065514364730461 17.476208534151002 #
straight-curve $-1 69.239173558763383 -48.065514364730461 0 0 0 -1 I I #
straight-curve $-1 69.239173558763383 48.065514364730461 0 0 0 -1 I I #
plane-surface $-1 0 -48.065514364730461 0 0 1 0 0 0 1 forward_v I I I I #
coedge $-1 $607 $395 $405 $542 reversed $260 $-1 #
coedge $-1 $395 $607 $408 $544 forward $260 $-1 #
coedge $-1 $608 $398 $396 $534 forward $393 $-1 #
edge $-1 $535 55.850841512618985 $609 69.239173558763383 $396 $610 forward 7 unknown #
vertex $-1 $534 $611 #
straight-curve $-1 -55.850841512618985 48.065514364730461 7.30358526063978 0 0 -1 I I #
coedge $-1 $398 $608 $400 $539 forward $393 $-1 #
straight-curve $-1 -55.850841512618985 0 17.476208534151002 0 1 0 I I #
edge $-1 $612 -69.239173558763383 $402 -55.850841512618985 $400 $613 forward 7 unknown #
point $-1 -55.850841512618985 -48.065514364730461 17.476208534150999 #
straight-curve $-1 -69.239173558763383 0 11.738132508408119 0 -1 0 I I #
edge $-1 $612 -17.476208534151002 $406 -11.738132508408119 $531 $614 forward 7 unknown #
point $-1 -69.239173558763383 -48.065514364730461 11.738132508408119 #
edge $-1 $609 -17.476208534151002 $409 -11.738132508408119 $408 $615 forward 7 unknown #
point $-1 -69.239173558763383 48.065514364730461 11.738132508408119 #
plane-surface $-1 69.239173558763383 0 0 -1 0 0 0 0 1 forward_v I I I I #
coedge $-1 $416 $426 $417 $550 reversed $276 $-1 #
edge $-1 $552 -10.172623273511219 $427 -4.4345472477683394 $416 $616 forward 7 unknown #
coedge $-1 $418 $417 $431 $558 forward $167 $-1 #
edge $-1 $552 55.850841512618985 $561 69.239173558763383 $547 $617 forward 7 unknown #
edge $-1 $559 -69.239173558763383 $424 -55.850841512618985 $422 $618 forward 7 unknown #
vertex $-1 $550 $619 #
straight-curve $-1 55.850841512618985 0 17.476208534151002 0 -1 0 I I #
straight-curve $-1 55.850841512618985 0 11.738132508408119 0 1 0 I I #
point $-1 55.850841512618985 48.065514364730461 11.738132508408119 #
point $-1 55.850841512618985 48.065514364730461 17.476208534150999 #
point $-1 55.850841512618985 -48.065514364730461 11.738132508408119 #
edge $-1 $561 -48.065514364730461 $559 48.065514364730461 $431 $620 forward 7 unknown #
vertex $-1 $558 $621 #
straight-curve $-1 69.239173558763383 48.065514364730461 0 0 0 -1 I I #
vertex $-1 $558 $622 #
straight-curve $-1 69.239173558763383 -48.065514364730461 0 0 0 -1 I I #
coedge $-1 $447 $446 $439 $564 forward $436 $-1 #
edge $-1 $565 45.515536021647179 $568 50.443075858510539 $563 $623 forward 7 unknown #
vertex $-1 $451 $624 #
straight-curve $-1 -43.779606597048058 -63.746716119921949 17.476208534150999 0 -1 0 I I #
edge $-1 $568 -25.433511665076065 $448 -11.258678198867923 $447 $625 forward 7 unknown #
vertex $-1 $567 $626 #
straight-curve $-1 -43.779606597048058 -48.065514364730447 12.548668697287653 0 0.81915203911291934 0.57357644374324357 I I #
point $-1 -43.779606597048058 -41.028258303734304 17.476208534151002 #
point $-1 -29.604773130839916 -48.065514364730461 12.548668697287642 #
straight-curve $-1 0 -48.065514364730461 17.476208534151002 1 0 0 I I #
vertex $-1 $454 $627 #
point $-1 -37.72965417813144 -42.004854071272902 11.38204037602763 #
vertex $-1 $458 $628 #
point $-1 -31.654725549756527 -42.004854071272902 11.38204037602763 #
edge $-1 $578 45.515536021647179 $581 50.443075858510539 $463 $629 forward 7 unknown #
vertex $-1 $477 $630 #
straight-curve $-1 12.071234915570935 -63.746716119921949 17.476208534150999 0 -1 0 I I #
edge $-1 $581 2.491909091233433 $474 16.666742557441573 $473 $631 forward 7 unknown #
vertex $-1 $580 $632 #
straight-curve $-1 12.071234915570935 -48.065514364730447 12.548668697287653 0 0.81915203911291934 0.57357644374324357 I I #
point $-1 12.071234915570935 -41.028258303734304 17.476208534151002 #
point $-1 26.246068381779075 -48.065514364730461 12.548668697287642 #
straight-curve $-1 0 -48.065514364730461 17.476208534151002 1 0 0 I I #
vertex $-1 $480 $633 #
point $-1 18.121187334487544 -42.004854071272902 11.38204037602763 #
vertex $-1 $484 $634 #
point $-1 24.19611596286245 -42.004854071272902 11.38204037602763 #
edge $-1 $591 72.004344377568145 $594 78.634551766865826 $489 $635 forward 7 unknown #
vertex $-1 $503 $636 #
straight-curve $-1 43.130339401466827 30.252461433675954 17.476208534150999 0 1 0 I I #
edge $-1 $594 -28.005478917730855 $500 -2.2442420497410893 $499 $637 forward 7 unknown #
vertex $-1 $593 $638 #
straight-curve $-1 43.130339401466827 -26.642325774741664 71.343218488128855 0 -0.77714595512881146 0.62932039886446345 I I #
point $-1 43.130339401466827 39.877890280789742 17.476208534151006 #
point $-1 17.369102533477061 48.065514364730461 10.846001144853311 #
straight-curve $-1 0 48.065514364730461 17.476208534151002 -1 0 0 I I #
vertex $-1 $506 $639 #
point $-1 26.729455924331276 39.396006985772715 8.5105917948624548 #
vertex $-1 $510 $640 #
point $-1 37.769986010612598 39.396006985772715 8.5105917948624548 #
straight-curve $-1 -69.239173558763383 48.065514364730461 0 0 0 -1 I I #
point $-1 -69.239173558763383 -48.065514364730461 -17.476208534151002 #
straight-curve $-1 -69.239173558763383 0 -17.476208534151002 0 1 0 I I #
point $-1 -69.239173558763383 48.065514364730461 -17.476208534151002 #
coedge $-1 $532 $531 $608 $641 reversed $260 $-1 #
coedge $-1 $537 $533 $607 $641 forward $393 $-1 #
vertex $-1 $534 $642 #
straight-curve $-1 0 48.065514364730461 17.476208534151002 -1 0 0 I I #
point $-1 -55.850841512618985 48.065514364730461 17.476208534150999 #
vertex $-1 $641 $643 #
straight-curve $-1 0 -48.065514364730461 17.476208534151002 1 0 0 I I #
straight-curve $-1 -69.239173558763383 -48.065514364730461 0 0 0 -1 I I #
straight-curve $-1 -69.239173558763383 48.065514364730461 0 0 0 -1 I I #
straight-curve $-1 55.850841512618985 -48.065514364730461 7.30358526063978 0 0 -1 I I #
straight-curve $-1 0 -48.065514364730461 17.476208534151002 1 0 0 I I #
straight-curve $-1 0 48.065514364730461 17.476208534151002 -1 0 0 I I #
point $-1 55.850841512618985 -48.065514364730461 17.476208534150999 #
straight-curve $-1 69.239173558763383 0 17.476208534151002 0 1 0 I I #
point $-1 69.239173558763383 48.065514364730461 17.476208534151002 #
point $-1 69.239173558763383 -48.065514364730461 17.476208534151002 #
straight-curve $-1 -43.779606597048058 -48.065514364730461 62.991744555798178 0 0 -1 I I #
point $-1 -43.779606597048058 -48.065514364730461 17.476208534151002 #
straight-curve $-1 -18.346094931971994 -48.065514364730461 12.548668697287642 1 0 0 I I #
point $-1 -43.779606597048058 -48.065514364730461 12.548668697287642 #
point $-1 -39.72965417813144 -40.857701183786418 9.7437362978017905 #
point $-1 -33.654725549756527 -40.857701183786418 9.7437362978017905 #
straight-curve $-1 12.071234915570935 -48.065514364730461 62.991744555798178 0 0 -1 I I #
point $-1 12.071234915570935 -48.065514364730461 17.476208534151002 #
straight-curve $-1 9.5793258243375021 -48.065514364730461 12.548668697287642 1 0 0 I I #
point $-1 12.071234915570935 -48.065514364730461 12.548668697287642 #
point $-1 16.121187334487544 -40.857701183786418 9.7437362978017905 #
point $-1 22.19611596286245 -40.857701183786418 9.7437362978017905 #
straight-curve $-1 43.130339401466827 48.065514364730461 89.480552911719144 0 0 -1 I I #
point $-1 43.130339401466827 48.065514364730461 17.476208534151002 #
straight-curve $-1 15.124860483735972 48.065514364730461 10.846001144853307 -1 0 0 I I #
point $-1 43.130339401466827 48.065514364730461 10.846001144853311 #
point $-1 24.729455924331276 38.137366188043785 6.9562998846048325 #
point $-1 35.769986010612598 38.137366188043785 6.9562998846048325 #
edge $-1 $609 -48.065514364730461 $612 48.065514364730461 $607 $644 forward 7 unknown #
point $-1 -69.239173558763383 48.065514364730461 17.476208534151002 #
point $-1 -69.239173558763383 -48.065514364730461 17.476208534151002 #
straight-curve $-1 -69.239173558763383 0 17.476208534151002 0 -1 0 I I #
End-of-ACIS-data 