500 0 20 0           
7 Unknown 11 ACIS 5.0 NT 24 Thu Mar 25 21:48:29 1999 
-1 9.9999999999999995e-007 1e-010 
body $-1 $20 $-1 $21 #
body $-1 $22 $-1 $23 #
body $-1 $24 $-1 $25 #
body $-1 $26 $-1 $27 #
body $-1 $28 $-1 $29 #
body $-1 $30 $-1 $31 #
body $-1 $32 $-1 $33 #
body $-1 $34 $-1 $35 #
body $-1 $36 $-1 $37 #
body $-1 $38 $-1 $39 #
body $-1 $40 $-1 $41 #
body $-1 $42 $-1 $43 #
body $-1 $44 $-1 $45 #
body $-1 $46 $-1 $47 #
body $-1 $48 $-1 $49 #
body $-1 $50 $-1 $51 #
body $-1 $52 $-1 $53 #
body $-1 $54 $-1 $55 #
body $-1 $56 $-1 $57 #
body $-1 $58 $-1 $59 #
lump $-1 $-1 $60 $0 #
transform $-1 1 0 0 0 1 0 0 0 1 75.229346598712112 30.260486372722717 6.3019977113394523 1 rotate no_reflect no_shear #
lump $-1 $-1 $61 $1 #
transform $-1 1 0 0 0 1 0 0 0 1 75.229346598712112 30.260486372722717 6.3019977113394523 1 rotate no_reflect no_shear #
lump $-1 $-1 $62 $2 #
transform $-1 1 0 0 0 1 0 0 0 1 75.229346598712112 30.260486372722717 6.3019977113394523 1 rotate no_reflect no_shear #
lump $-1 $-1 $63 $3 #
transform $-1 1 0 0 0 1 0 0 0 1 75.229346598712112 30.260486372722717 6.3019977113394523 1 rotate no_reflect no_shear #
lump $-1 $-1 $64 $4 #
transform $-1 1 0 0 0 1 0 0 0 1 75.229346598712112 30.260486372722717 6.3019977113394523 1 rotate no_reflect no_shear #
lump $-1 $-1 $65 $5 #
transform $-1 1 0 0 0 1 0 0 0 1 75.229346598712112 30.260486372722717 6.3019977113394523 1 rotate no_reflect no_shear #
lump $-1 $-1 $66 $6 #
transform $-1 1 0 0 0 1 0 0 0 1 75.229346598712112 30.260486372722717 6.3019977113394523 1 rotate no_reflect no_shear #
lump $-1 $-1 $67 $7 #
transform $-1 1 0 0 0 1 0 0 0 1 75.229346598712112 30.260486372722717 6.3019977113394523 1 rotate no_reflect no_shear #
lump $-1 $-1 $68 $8 #
transform $-1 1 0 0 0 1 0 0 0 1 75.229346598712112 30.260486372722717 6.3019977113394523 1 rotate no_reflect no_shear #
lump $-1 $-1 $69 $9 #
transform $-1 1 0 0 0 1 0 0 0 1 75.229346598712112 30.260486372722717 6.3019977113394523 1 rotate no_reflect no_shear #
lump $-1 $-1 $70 $10 #
transform $-1 1 0 0 0 1 0 0 0 1 75.229346598712112 30.260486372722717 6.3019977113394523 1 rotate no_reflect no_shear #
lump $-1 $-1 $71 $11 #
transform $-1 1 0 0 0 1 0 0 0 1 75.229346598712112 30.260486372722717 6.3019977113394523 1 rotate no_reflect no_shear #
lump $-1 $-1 $72 $12 #
transform $-1 1 0 0 0 1 0 0 0 1 75.229346598712112 30.260486372722717 6.3019977113394523 1 rotate no_reflect no_shear #
lump $-1 $-1 $73 $13 #
transform $-1 1 0 0 0 1 0 0 0 1 75.229346598712112 30.260486372722717 6.3019977113394523 1 rotate no_reflect no_shear #
lump $-1 $-1 $74 $14 #
transform $-1 1 0 0 0 1 0 0 0 1 75.229346598712112 30.260486372722717 6.3019977113394523 1 rotate no_reflect no_shear #
lump $-1 $-1 $75 $15 #
transform $-1 1 0 0 0 1 0 0 0 1 75.229346598712112 30.260486372722717 6.3019977113394523 1 rotate no_reflect no_shear #
lump $-1 $-1 $76 $16 #
transform $-1 1 0 0 0 1 0 0 0 1 75.229346598712112 30.260486372722717 6.3019977113394523 1 rotate no_reflect no_shear #
lump $-1 $-1 $77 $17 #
transform $-1 1 0 0 0 1 0 0 0 1 75.229346598712112 30.260486372722717 6.3019977113394523 1 rotate no_reflect no_shear #
lump $-1 $-1 $78 $18 #
transform $-1 1 0 0 0 1 0 0 0 1 75.229346598712112 30.260486372722717 6.3019977113394523 1 rotate no_reflect no_shear #
lump $-1 $-1 $79 $19 #
transform $-1 1 0 0 0 1 0 0 0 1 75.229346598712112 30.260486372722717 6.3019977113394523 1 rotate no_reflect no_shear #
shell $-1 $-1 $-1 $80 $-1 $20 #
shell $-1 $-1 $-1 $81 $-1 $22 #
shell $-1 $-1 $-1 $82 $-1 $24 #
shell $-1 $-1 $-1 $83 $-1 $26 #
shell $-1 $-1 $-1 $84 $-1 $28 #
shell $-1 $-1 $-1 $85 $-1 $30 #
shell $-1 $-1 $-1 $86 $-1 $32 #
shell $-1 $-1 $-1 $87 $-1 $34 #
shell $-1 $-1 $-1 $88 $-1 $36 #
shell $-1 $-1 $-1 $89 $-1 $38 #
shell $-1 $-1 $-1 $90 $-1 $40 #
shell $-1 $-1 $-1 $91 $-1 $42 #
shell $-1 $-1 $-1 $92 $-1 $44 #
shell $-1 $-1 $-1 $93 $-1 $46 #
shell $-1 $-1 $-1 $94 $-1 $48 #
shell $-1 $-1 $-1 $95 $-1 $50 #
shell $-1 $-1 $-1 $96 $-1 $52 #
shell $-1 $-1 $-1 $97 $-1 $54 #
shell $-1 $-1 $-1 $98 $-1 $56 #
shell $-1 $-1 $-1 $99 $-1 $58 #
face $-1 $100 $101 $60 $-1 $102 forward single #
face $-1 $103 $104 $61 $-1 $105 reversed single #
face $-1 $106 $107 $62 $-1 $108 reversed single #
face $-1 $109 $110 $63 $-1 $111 forward single #
face $-1 $112 $113 $64 $-1 $114 forward single #
face $-1 $115 $116 $65 $-1 $117 forward single #
face $-1 $118 $119 $66 $-1 $120 reversed single #
face $-1 $121 $122 $67 $-1 $123 forward single #
face $-1 $124 $125 $68 $-1 $126 forward single #
face $-1 $127 $128 $69 $-1 $129 forward single #
face $-1 $130 $131 $70 $-1 $132 reversed single #
face $-1 $133 $134 $71 $-1 $135 forward single #
face $-1 $136 $137 $72 $-1 $138 forward single #
face $-1 $139 $140 $73 $-1 $141 forward single #
face $-1 $142 $143 $74 $-1 $144 reversed single #
face $-1 $145 $146 $75 $-1 $147 forward single #
face $-1 $148 $149 $76 $-1 $150 forward single #
face $-1 $151 $152 $77 $-1 $153 forward single #
face $-1 $154 $155 $78 $-1 $156 reversed single #
face $-1 $157 $158 $79 $-1 $159 forward single #
face $-1 $160 $161 $60 $-1 $162 reversed single #
loop $-1 $-1 $163 $80 #
plane-surface $-1 0 0 6.3019977113394523 0 0 1 1 0 0 forward_v I I I I #
face $-1 $164 $165 $61 $-1 $166 reversed single #
loop $-1 $-1 $167 $81 #
plane-surface $-1 -73.42929510850125 -25.127948032203363 0 0 -1 0 0 0 -1 forward_v I I I I #
face $-1 $168 $169 $62 $-1 $170 reversed single #
loop $-1 $-1 $171 $82 #
plane-surface $-1 -152.72130332742245 -22.436078181011098 131.7859585423416 0 1 0 -0.51503808176128008 0 0.85716729658548041 forward_v I I I I #
face $-1 $172 $173 $63 $-1 $174 forward single #
loop $-1 $175 $176 $83 #
cone-surface $-1 -72.072394401957567 -20.672489940100341 4.1312588306376208 0.51503808176128008 0 -0.85716729658548041 0.4285836482927402 0 0.25751904088064004 1 I I 0 1 0.5 forward I I I I #
face $-1 $177 $178 $64 $-1 $179 forward single #
loop $-1 $180 $181 $84 #
cone-surface $-1 -72.072394401957567 -18.027107578734203 4.1312588306376208 0.51503808176128008 0 -0.85716729658548041 0.4285836482927402 0 0.25751904088064004 1 I I 0 1 0.5 forward I I I I #
face $-1 $182 $183 $65 $-1 $184 forward single #
loop $-1 $185 $186 $85 #
cone-surface $-1 -72.072394401957567 -15.381725217368064 4.1312588306376208 0.51503808176128008 0 -0.85716729658548041 0.4285836482927402 0 0.25751904088064004 1 I I 0 1 0.5 forward I I I I #
face $-1 $187 $188 $66 $-1 $189 reversed single #
loop $-1 $-1 $190 $86 #
plane-surface $-1 -152.72130332742245 -8.7071603483485127 131.7859585423416 0 1 0 -0.51503808176128008 0 0.85716729658548041 forward_v I I I I #
face $-1 $191 $192 $67 $-1 $193 forward single #
loop $-1 $194 $195 $87 #
cone-surface $-1 -72.072394401957567 -6.9435721074377561 4.1312588306376208 0.51503808176128008 0 -0.85716729658548041 0.4285836482927402 0 0.25751904088064004 1 I I 0 1 0.5 forward I I I I #
face $-1 $196 $197 $68 $-1 $198 forward single #
loop $-1 $199 $200 $88 #
cone-surface $-1 -72.072394401957567 -4.2981897460716176 4.1312588306376208 0.51503808176128008 0 -0.85716729658548041 0.4285836482927402 0 0.25751904088064004 1 I I 0 1 0.5 forward I I I I #
face $-1 $201 $202 $69 $-1 $203 forward single #
loop $-1 $204 $205 $89 #
cone-surface $-1 -72.072394401957567 -1.6528073847054792 4.1312588306376208 0.51503808176128008 0 -0.85716729658548041 0.4285836482927402 0 0.25751904088064004 1 I I 0 1 0.5 forward I I I I #
face $-1 $206 $207 $70 $-1 $208 reversed single #
loop $-1 $-1 $209 $90 #
plane-surface $-1 -152.72130332742245 5.0217574843140715 131.7859585423416 0 1 0 -0.51503808176128008 0 0.85716729658548041 forward_v I I I I #
face $-1 $210 $211 $71 $-1 $212 forward single #
loop $-1 $213 $214 $91 #
cone-surface $-1 -72.072394401957567 6.785345725224829 4.1312588306376208 0.51503808176128008 0 -0.85716729658548041 0.4285836482927402 0 0.25751904088064004 1 I I 0 1 0.5 forward I I I I #
face $-1 $215 $216 $72 $-1 $217 forward single #
loop $-1 $218 $219 $92 #
cone-surface $-1 -72.072394401957567 9.4307280865909675 4.1312588306376208 0.51503808176128008 0 -0.85716729658548041 0.4285836482927402 0 0.25751904088064004 1 I I 0 1 0.5 forward I I I I #
face $-1 $220 $221 $73 $-1 $222 forward single #
loop $-1 $223 $224 $93 #
cone-surface $-1 -72.072394401957567 12.076110447957106 4.1312588306376208 0.51503808176128008 0 -0.85716729658548041 0.4285836482927402 0 0.25751904088064004 1 I I 0 1 0.5 forward I I I I #
face $-1 $225 $226 $74 $-1 $227 reversed single #
loop $-1 $-1 $228 $94 #
plane-surface $-1 -152.72130332742245 18.750675316976661 131.7859585423416 0 1 0 -0.51503808176128008 0 0.85716729658548041 forward_v I I I I #
face $-1 $229 $230 $75 $-1 $231 forward single #
loop $-1 $232 $233 $95 #
cone-surface $-1 -72.072394401957567 20.514263557887411 4.1312588306376208 0.51503808176128008 0 -0.85716729658548041 0.4285836482927402 0 0.25751904088064004 1 I I 0 1 0.5 forward I I I I #
face $-1 $234 $235 $76 $-1 $236 forward single #
loop $-1 $237 $238 $96 #
cone-surface $-1 -72.072394401957567 23.159645919253556 4.1312588306376208 0.51503808176128008 0 -0.85716729658548041 0.4285836482927402 0 0.25751904088064004 1 I I 0 1 0.5 forward I I I I #
face $-1 $239 $240 $77 $-1 $241 forward single #
loop $-1 $242 $243 $97 #
cone-surface $-1 -72.072394401957567 25.805028280619688 4.1312588306376208 0.51503808176128008 0 -0.85716729658548041 0.4285836482927402 0 0.25751904088064004 1 I I 0 1 0.5 forward I I I I #
face $-1 $244 $245 $78 $-1 $246 reversed single #
loop $-1 $-1 $247 $98 #
plane-surface $-1 45.615995356119683 8.634654019850549 212.95213547317852 0 -1 0 -0.6018150307709319 0 -0.79863550430605224 forward_v I I I I #
face $-1 $248 $249 $79 $-1 $250 forward single #
loop $-1 $251 $252 $99 #
cone-surface $-1 70.948024969774806 4.5623737653588066 2.1653507069782263 -0.6018150307709319 0 -0.79863550430605224 1.1979532564590785 0 -0.90272254615639791 1 I I 0 1 1.5 forward I I I I #
face $-1 $253 $254 $60 $-1 $255 reversed single #
loop $-1 $-1 $256 $100 #
plane-surface $-1 0 0 -6.3019977113394523 0 0 1 1 0 0 forward_v I I I I #
coedge $-1 $257 $258 $259 $260 forward $101 $-1 #
face $-1 $261 $262 $61 $-1 $263 forward single #
loop $-1 $-1 $264 $103 #
plane-surface $-1 -71.629243618290388 -27.69421720246304 0 -1 0 0 0 0 1 forward_v I I I I #
coedge $-1 $265 $266 $267 $268 forward $104 $-1 #
face $-1 $269 $270 $62 $-1 $271 reversed single #
loop $-1 $-1 $272 $106 #
plane-surface $-1 -75.229346598712112 -18.027107578734203 2.8176872465212739 -0.51503808176128008 0 0.85716729658548041 0.85716729658548041 0 0.51503808176128008 forward_v I I I I #
coedge $-1 $273 $274 $275 $276 reversed $107 $-1 #
face $-1 $-1 $277 $63 $-1 $278 forward single #
loop $-1 $279 $280 $109 #
cone-surface $-1 -71.686115840636603 -20.672489940100341 3.4883833581985106 0.51503808176128008 0 -0.85716729658548041 0.2142918241463701 0 0.12875952044032002 1 I I -0.70710678118654746 0.70710678118654746 0.25 forward I I I I #
loop $-1 $-1 $281 $83 #
coedge $-1 $176 $176 $282 $283 reversed $110 $-1 #
face $-1 $-1 $284 $64 $-1 $285 forward single #
loop $-1 $286 $287 $112 #
cone-surface $-1 -71.686115840636603 -18.027107578734203 3.4883833581985106 0.51503808176128008 0 -0.85716729658548041 0.2142918241463701 0 0.12875952044032002 1 I I -0.70710678118654746 0.70710678118654746 0.25 forward I I I I #
loop $-1 $-1 $288 $84 #
coedge $-1 $181 $181 $289 $290 reversed $113 $-1 #
face $-1 $-1 $291 $65 $-1 $292 forward single #
loop $-1 $293 $294 $115 #
cone-surface $-1 -71.686115840636603 -15.381725217368064 3.4883833581985106 0.51503808176128008 0 -0.85716729658548041 0.2142918241463701 0 0.12875952044032002 1 I I -0.70710678118654746 0.70710678118654746 0.25 forward I I I I #
loop $-1 $-1 $295 $85 #
coedge $-1 $186 $186 $296 $297 reversed $116 $-1 #
face $-1 $298 $299 $66 $-1 $300 reversed single #
loop $-1 $-1 $301 $118 #
plane-surface $-1 -75.229346598712112 -4.2981897460716176 2.8176872465212739 -0.51503808176128008 0 0.85716729658548041 0.85716729658548041 0 0.51503808176128008 forward_v I I I I #
coedge $-1 $302 $303 $304 $305 reversed $119 $-1 #
face $-1 $-1 $306 $67 $-1 $307 forward single #
loop $-1 $308 $309 $121 #
cone-surface $-1 -71.686115840636603 -6.9435721074377561 3.4883833581985106 0.51503808176128008 0 -0.85716729658548041 0.2142918241463701 0 0.12875952044032002 1 I I -0.70710678118654746 0.70710678118654746 0.25 forward I I I I #
loop $-1 $-1 $310 $87 #
coedge $-1 $195 $195 $311 $312 reversed $122 $-1 #
face $-1 $-1 $313 $68 $-1 $314 forward single #
loop $-1 $315 $316 $124 #
cone-surface $-1 -71.686115840636603 -4.2981897460716176 3.4883833581985106 0.51503808176128008 0 -0.85716729658548041 0.2142918241463701 0 0.12875952044032002 1 I I -0.70710678118654746 0.70710678118654746 0.25 forward I I I I #
loop $-1 $-1 $317 $88 #
coedge $-1 $200 $200 $318 $319 reversed $125 $-1 #
face $-1 $-1 $320 $69 $-1 $321 forward single #
loop $-1 $322 $323 $127 #
cone-surface $-1 -71.686115840636603 -1.6528073847054792 3.4883833581985106 0.51503808176128008 0 -0.85716729658548041 0.2142918241463701 0 0.12875952044032002 1 I I -0.70710678118654746 0.70710678118654746 0.25 forward I I I I #
loop $-1 $-1 $324 $89 #
coedge $-1 $205 $205 $325 $326 reversed $128 $-1 #
face $-1 $327 $328 $70 $-1 $329 reversed single #
loop $-1 $-1 $330 $130 #
plane-surface $-1 -75.229346598712112 9.4307280865909675 2.8176872465212739 -0.51503808176128008 0 0.85716729658548041 0.85716729658548041 0 0.51503808176128008 forward_v I I I I #
coedge $-1 $331 $332 $333 $334 reversed $131 $-1 #
face $-1 $-1 $335 $71 $-1 $336 forward single #
loop $-1 $337 $338 $133 #
cone-surface $-1 -71.686115840636603 6.785345725224829 3.4883833581985106 0.51503808176128008 0 -0.85716729658548041 0.2142918241463701 0 0.12875952044032002 1 I I -0.70710678118654746 0.70710678118654746 0.25 forward I I I I #
loop $-1 $-1 $339 $91 #
coedge $-1 $214 $214 $340 $341 reversed $134 $-1 #
face $-1 $-1 $342 $72 $-1 $343 forward single #
loop $-1 $344 $345 $136 #
cone-surface $-1 -71.686115840636603 9.4307280865909675 3.4883833581985106 0.51503808176128008 0 -0.85716729658548041 0.2142918241463701 0 0.12875952044032002 1 I I -0.70710678118654746 0.70710678118654746 0.25 forward I I I I #
loop $-1 $-1 $346 $92 #
coedge $-1 $219 $219 $347 $348 reversed $137 $-1 #
face $-1 $-1 $349 $73 $-1 $350 forward single #
loop $-1 $351 $352 $139 #
cone-surface $-1 -71.686115840636603 12.076110447957106 3.4883833581985106 0.51503808176128008 0 -0.85716729658548041 0.2142918241463701 0 0.12875952044032002 1 I I -0.70710678118654746 0.70710678118654746 0.25 forward I I I I #
loop $-1 $-1 $353 $93 #
coedge $-1 $224 $224 $354 $355 reversed $140 $-1 #
face $-1 $356 $357 $74 $-1 $358 reversed single #
loop $-1 $-1 $359 $142 #
plane-surface $-1 -75.229346598712112 23.159645919253556 2.8176872465212739 -0.51503808176128008 0 0.85716729658548041 0.85716729658548041 0 0.51503808176128008 forward_v I I I I #
coedge $-1 $360 $361 $362 $363 reversed $143 $-1 #
face $-1 $-1 $364 $75 $-1 $365 forward single #
loop $-1 $366 $367 $145 #
cone-surface $-1 -71.686115840636603 20.514263557887411 3.4883833581985106 0.51503808176128008 0 -0.85716729658548041 0.2142918241463701 0 0.12875952044032002 1 I I -0.70710678118654746 0.70710678118654746 0.25 forward I I I I #
loop $-1 $-1 $368 $95 #
coedge $-1 $233 $233 $369 $370 reversed $146 $-1 #
face $-1 $-1 $371 $76 $-1 $372 forward single #
loop $-1 $373 $374 $148 #
cone-surface $-1 -71.686115840636603 23.159645919253556 3.4883833581985106 0.51503808176128008 0 -0.85716729658548041 0.2142918241463701 0 0.12875952044032002 1 I I -0.70710678118654746 0.70710678118654746 0.25 forward I I I I #
loop $-1 $-1 $375 $96 #
coedge $-1 $238 $238 $376 $377 reversed $149 $-1 #
face $-1 $-1 $378 $77 $-1 $379 forward single #
loop $-1 $380 $381 $151 #
cone-surface $-1 -71.686115840636603 25.805028280619688 3.4883833581985106 0.51503808176128008 0 -0.85716729658548041 0.2142918241463701 0 0.12875952044032002 1 I I -0.70710678118654746 0.70710678118654746 0.25 forward I I I I #
loop $-1 $-1 $382 $97 #
coedge $-1 $243 $243 $383 $384 reversed $152 $-1 #
face $-1 $385 $386 $78 $-1 $387 reversed single #
loop $-1 $-1 $388 $154 #
plane-surface $-1 -44.932307720242378 4.5623737653588066 92.790481154224025 0.6018150307709319 0 0.79863550430605224 0.79863550430605224 0 -0.6018150307709319 forward_v I I I I #
coedge $-1 $389 $390 $391 $392 reversed $155 $-1 #
face $-1 $-1 $393 $79 $-1 $394 forward single #
loop $-1 $395 $396 $157 #
cone-surface $-1 68.909123324950968 4.5623737653588066 -0.54036310887380434 -0.6018150307709319 0 -0.79863550430605224 0.59897662822953923 0 -0.45136127307819895 1 I I -0.70710678118654757 0.70710678118654757 0.75 forward I I I I #
loop $-1 $-1 $397 $99 #
coedge $-1 $252 $252 $398 $399 reversed $158 $-1 #
face $-1 $400 $401 $60 $-1 $402 reversed single #
loop $-1 $-1 $403 $160 #
plane-surface $-1 0 -30.260486372722717 0 0 1 0 0 0 1 forward_v I I I I #
coedge $-1 $404 $405 $406 $407 forward $161 $-1 #
coedge $-1 $408 $163 $409 $410 forward $101 $-1 #
coedge $-1 $163 $408 $411 $412 forward $101 $-1 #
coedge $-1 $413 $414 $163 $260 reversed $415 $-1 #
edge $-1 $416 -30.260486372722717 $417 30.260486372722717 $259 $418 forward 7 unknown #
face $-1 $419 $420 $61 $-1 $421 reversed single #
loop $-1 $-1 $422 $164 #
plane-surface $-1 0 0 6.3019977113394523 0 0 1 1 0 0 forward_v I I I I #
coedge $-1 $423 $424 $425 $426 reversed $165 $-1 #
coedge $-1 $427 $167 $428 $429 reversed $104 $-1 #
coedge $-1 $167 $427 $430 $431 reversed $104 $-1 #
coedge $-1 $424 $423 $167 $268 reversed $165 $-1 #
edge $-1 $432 -6.3019977113394523 $433 6.3019977113394523 $267 $434 forward 7 unknown #
face $-1 $435 $436 $62 $-1 $437 reversed single #
loop $-1 $-1 $438 $168 #
plane-surface $-1 -152.72130332742245 -13.618136976457308 131.7859585423416 0 -1 0 0.51503808176128008 0 -0.85716729658548041 forward_v I I I I #
coedge $-1 $439 $440 $441 $442 reversed $169 $-1 #
coedge $-1 $274 $171 $443 $444 reversed $107 $-1 #
coedge $-1 $171 $273 $439 $445 reversed $107 $-1 #
coedge $-1 $441 $446 $171 $276 forward $447 $-1 #
edge $-1 $448 1.1313050649991112 $449 6.9301713767469124 $275 $450 forward 7 unknown #
loop $-1 $-1 $282 $172 #
plane-surface $-1 -75.229346598712112 -18.027107578734203 2.8176872465212739 -0.51503808176128008 0 0.85716729658548041 0.85716729658548041 0 0.51503808176128008 forward_v I I I I #
loop $-1 $-1 $451 $109 #
coedge $-1 $280 $280 $281 $452 reversed $173 $-1 #
coedge $-1 $281 $281 $280 $452 forward $175 $-1 #
coedge $-1 $282 $282 $176 $283 forward $277 $-1 #
edge $-1 $453 0 $453 6.2831853071796004 $282 $454 forward 7 unknown #
loop $-1 $-1 $289 $177 #
plane-surface $-1 -75.229346598712112 -18.027107578734203 2.8176872465212739 -0.51503808176128008 0 0.85716729658548041 0.85716729658548041 0 0.51503808176128008 forward_v I I I I #
loop $-1 $-1 $455 $112 #
coedge $-1 $287 $287 $288 $456 reversed $178 $-1 #
coedge $-1 $288 $288 $287 $456 forward $180 $-1 #
coedge $-1 $289 $289 $181 $290 forward $284 $-1 #
edge $-1 $457 0 $457 6.2831853071796004 $289 $458 forward 7 unknown #
loop $-1 $-1 $296 $182 #
plane-surface $-1 -75.229346598712112 -18.027107578734203 2.8176872465212739 -0.51503808176128008 0 0.85716729658548041 0.85716729658548041 0 0.51503808176128008 forward_v I I I I #
loop $-1 $-1 $459 $115 #
coedge $-1 $294 $294 $295 $460 reversed $183 $-1 #
coedge $-1 $295 $295 $294 $460 forward $185 $-1 #
coedge $-1 $296 $296 $186 $297 forward $291 $-1 #
edge $-1 $461 0 $461 6.2831853071796004 $296 $462 forward 7 unknown #
face $-1 $463 $464 $66 $-1 $465 forward single #
loop $-1 $-1 $466 $187 #
plane-surface $-1 -152.72130332742245 0.11078085620527833 131.7859585423416 0 -1 0 0.51503808176128008 0 -0.85716729658548041 forward_v I I I I #
coedge $-1 $467 $468 $469 $470 reversed $188 $-1 #
coedge $-1 $303 $190 $471 $472 reversed $119 $-1 #
coedge $-1 $190 $302 $467 $473 reversed $119 $-1 #
coedge $-1 $469 $474 $190 $305 forward $464 $-1 #
edge $-1 $475 1.1313050649991112 $476 6.9301713767469124 $304 $477 forward 7 unknown #
loop $-1 $-1 $311 $191 #
plane-surface $-1 -75.229346598712112 -4.2981897460716176 2.8176872465212739 -0.51503808176128008 0 0.85716729658548041 0.85716729658548041 0 0.51503808176128008 forward_v I I I I #
loop $-1 $-1 $478 $121 #
coedge $-1 $309 $309 $310 $479 reversed $192 $-1 #
coedge $-1 $310 $310 $309 $479 forward $194 $-1 #
coedge $-1 $311 $311 $195 $312 forward $306 $-1 #
edge $-1 $480 0 $480 6.2831853071796004 $311 $481 forward 7 unknown #
loop $-1 $-1 $318 $196 #
plane-surface $-1 -75.229346598712112 -4.2981897460716176 2.8176872465212739 -0.51503808176128008 0 0.85716729658548041 0.85716729658548041 0 0.51503808176128008 forward_v I I I I #
loop $-1 $-1 $482 $124 #
coedge $-1 $316 $316 $317 $483 reversed $197 $-1 #
coedge $-1 $317 $317 $316 $483 forward $199 $-1 #
coedge $-1 $318 $318 $200 $319 forward $313 $-1 #
edge $-1 $484 0 $484 6.2831853071796004 $318 $485 forward 7 unknown #
loop $-1 $-1 $325 $201 #
plane-surface $-1 -75.229346598712112 -4.2981897460716176 2.8176872465212739 -0.51503808176128008 0 0.85716729658548041 0.85716729658548041 0 0.51503808176128008 forward_v I I I I #
loop $-1 $-1 $486 $127 #
coedge $-1 $323 $323 $324 $487 reversed $202 $-1 #
coedge $-1 $324 $324 $323 $487 forward $204 $-1 #
coedge $-1 $325 $325 $205 $326 forward $320 $-1 #
edge $-1 $488 0 $488 6.2831853071796004 $325 $489 forward 7 unknown #
face $-1 $490 $491 $70 $-1 $492 forward single #
loop $-1 $-1 $493 $206 #
plane-surface $-1 -152.72130332742245 13.839698688867863 131.7859585423416 0 -1 0 0.51503808176128008 0 -0.85716729658548041 forward_v I I I I #
coedge $-1 $494 $495 $496 $497 reversed $207 $-1 #
coedge $-1 $332 $209 $498 $499 reversed $131 $-1 #
coedge $-1 $209 $331 $494 $500 reversed $131 $-1 #
coedge $-1 $496 $501 $209 $334 forward $491 $-1 #
edge $-1 $502 1.1313050649991112 $503 6.9301713767469124 $333 $504 forward 7 unknown #
loop $-1 $-1 $340 $210 #
plane-surface $-1 -75.229346598712112 9.4307280865909675 2.8176872465212739 -0.51503808176128008 0 0.85716729658548041 0.85716729658548041 0 0.51503808176128008 forward_v I I I I #
loop $-1 $-1 $505 $133 #
coedge $-1 $338 $338 $339 $506 reversed $211 $-1 #
coedge $-1 $339 $339 $338 $506 forward $213 $-1 #
coedge $-1 $340 $340 $214 $341 forward $335 $-1 #
edge $-1 $507 0 $507 6.2831853071796004 $340 $508 forward 7 unknown #
loop $-1 $-1 $347 $215 #
plane-surface $-1 -75.229346598712112 9.4307280865909675 2.8176872465212739 -0.51503808176128008 0 0.85716729658548041 0.85716729658548041 0 0.51503808176128008 forward_v I I I I #
loop $-1 $-1 $509 $136 #
coedge $-1 $345 $345 $346 $510 reversed $216 $-1 #
coedge $-1 $346 $346 $345 $510 forward $218 $-1 #
coedge $-1 $347 $347 $219 $348 forward $342 $-1 #
edge $-1 $511 0 $511 6.2831853071796004 $347 $512 forward 7 unknown #
loop $-1 $-1 $354 $220 #
plane-surface $-1 -75.229346598712112 9.4307280865909675 2.8176872465212739 -0.51503808176128008 0 0.85716729658548041 0.85716729658548041 0 0.51503808176128008 forward_v I I I I #
loop $-1 $-1 $513 $139 #
coedge $-1 $352 $352 $353 $514 reversed $221 $-1 #
coedge $-1 $353 $353 $352 $514 forward $223 $-1 #
coedge $-1 $354 $354 $224 $355 forward $349 $-1 #
edge $-1 $515 0 $515 6.2831853071796004 $354 $516 forward 7 unknown #
face $-1 $517 $518 $74 $-1 $519 forward single #
loop $-1 $-1 $520 $225 #
plane-surface $-1 -152.72130332742245 27.568616521530451 131.7859585423416 0 -1 0 0.51503808176128008 0 -0.85716729658548041 forward_v I I I I #
coedge $-1 $521 $522 $523 $524 reversed $226 $-1 #
coedge $-1 $361 $228 $525 $526 reversed $143 $-1 #
coedge $-1 $228 $360 $521 $527 reversed $143 $-1 #
coedge $-1 $523 $528 $228 $363 forward $518 $-1 #
edge $-1 $529 1.1313050649991112 $530 6.9301713767469124 $362 $531 forward 7 unknown #
loop $-1 $-1 $369 $229 #
plane-surface $-1 -75.229346598712112 23.159645919253556 2.8176872465212739 -0.51503808176128008 0 0.85716729658548041 0.85716729658548041 0 0.51503808176128008 forward_v I I I I #
loop $-1 $-1 $532 $145 #
coedge $-1 $367 $367 $368 $533 reversed $230 $-1 #
coedge $-1 $368 $368 $367 $533 forward $232 $-1 #
coedge $-1 $369 $369 $233 $370 forward $364 $-1 #
edge $-1 $534 0 $534 6.2831853071796004 $369 $535 forward 7 unknown #
loop $-1 $-1 $376 $234 #
plane-surface $-1 -75.229346598712112 23.159645919253556 2.8176872465212739 -0.51503808176128008 0 0.85716729658548041 0.85716729658548041 0 0.51503808176128008 forward_v I I I I #
loop $-1 $-1 $536 $148 #
coedge $-1 $374 $374 $375 $537 reversed $235 $-1 #
coedge $-1 $375 $375 $374 $537 forward $237 $-1 #
coedge $-1 $376 $376 $238 $377 forward $371 $-1 #
edge $-1 $538 0 $538 6.2831853071796004 $376 $539 forward 7 unknown #
loop $-1 $-1 $383 $239 #
plane-surface $-1 -75.229346598712112 23.159645919253556 2.8176872465212739 -0.51503808176128008 0 0.85716729658548041 0.85716729658548041 0 0.51503808176128008 forward_v I I I I #
loop $-1 $-1 $540 $151 #
coedge $-1 $381 $381 $382 $541 reversed $240 $-1 #
coedge $-1 $382 $382 $381 $541 forward $242 $-1 #
coedge $-1 $383 $383 $243 $384 forward $378 $-1 #
edge $-1 $542 0 $542 6.2831853071796004 $383 $543 forward 7 unknown #
face $-1 $544 $545 $78 $-1 $546 forward single #
loop $-1 $-1 $547 $244 #
plane-surface $-1 45.615995356119683 0.4900935108670641 212.95213547317852 0 1 0 0.6018150307709319 0 0.79863550430605224 forward_v I I I I #
coedge $-1 $548 $549 $550 $551 reversed $245 $-1 #
coedge $-1 $390 $247 $552 $553 reversed $155 $-1 #
coedge $-1 $247 $389 $548 $554 reversed $155 $-1 #
coedge $-1 $550 $555 $247 $392 forward $545 $-1 #
edge $-1 $556 -52.421348920652271 $557 -47.033786406268966 $391 $558 forward 7 unknown #
loop $-1 $-1 $398 $248 #
plane-surface $-1 -44.932307720242378 4.5623737653588066 92.790481154224025 0.6018150307709319 0 0.79863550430605224 0.79863550430605224 0 -0.6018150307709319 forward_v I I I I #
loop $-1 $-1 $559 $157 #
coedge $-1 $396 $396 $397 $560 reversed $249 $-1 #
coedge $-1 $397 $397 $396 $560 forward $251 $-1 #
coedge $-1 $398 $398 $252 $399 forward $393 $-1 #
edge $-1 $561 0 $561 6.2831853071796004 $398 $562 forward 7 unknown #
face $-1 $563 $564 $60 $-1 $565 reversed single #
loop $-1 $-1 $566 $253 #
plane-surface $-1 -75.229346598712112 0 0 1 0 0 0 0 -1 forward_v I I I I #
coedge $-1 $567 $411 $568 $569 forward $254 $-1 #
coedge $-1 $570 $256 $567 $571 forward $161 $-1 #
coedge $-1 $256 $570 $572 $573 forward $161 $-1 #
coedge $-1 $414 $413 $256 $407 reversed $415 $-1 #
edge $-1 $574 -30.260486372722717 $575 30.260486372722717 $406 $576 forward 7 unknown #
coedge $-1 $258 $257 $577 $578 forward $101 $-1 #
coedge $-1 $579 $580 $257 $410 reversed $564 $-1 #
edge $-1 $417 -75.229346598712112 $581 75.229346598712112 $409 $582 forward 7 unknown #
coedge $-1 $403 $583 $258 $412 reversed $254 $-1 #
edge $-1 $584 -75.229346598712112 $416 75.229346598712112 $411 $585 forward 7 unknown #
coedge $-1 $406 $259 $583 $586 forward $415 $-1 #
coedge $-1 $259 $406 $579 $587 reversed $415 $-1 #
loop $-1 $-1 $413 $563 #
vertex $-1 $260 $588 #
vertex $-1 $260 $589 #
straight-curve $-1 75.229346598712112 0 6.3019977113394523 0 1 0 I I #
face $-1 $590 $591 $61 $-1 $592 reversed single #
loop $-1 $-1 $593 $261 #
plane-surface $-1 -75.229346598712112 0 0 1 0 0 0 0 -1 forward_v I I I I #
coedge $-1 $430 $594 $424 $595 forward $262 $-1 #
coedge $-1 $267 $264 $596 $597 reversed $165 $-1 #
coedge $-1 $264 $267 $422 $595 reversed $165 $-1 #
coedge $-1 $598 $599 $264 $426 forward $600 $-1 #
edge $-1 $601 -6.3019977113394523 $602 6.3019977113394523 $425 $603 forward 7 unknown #
coedge $-1 $266 $265 $593 $604 reversed $104 $-1 #
coedge $-1 $596 $605 $265 $429 forward $591 $-1 #
edge $-1 $606 -38.514699044461487 $433 -34.914596064039763 $428 $607 forward 7 unknown #
coedge $-1 $608 $422 $266 $431 forward $262 $-1 #
edge $-1 $432 34.914596064039763 $609 38.514699044461487 $430 $610 forward 7 unknown #
vertex $-1 $431 $611 #
vertex $-1 $429 $612 #
straight-curve $-1 -71.629243618290388 -25.127948032203363 0 0 0 -1 I I #
face $-1 $-1 $447 $62 $-1 $613 forward single #
loop $-1 $-1 $614 $269 #
plane-surface $-1 -75.229346598712112 0 0 1 0 0 0 0 -1 forward_v I I I I #
coedge $-1 $615 $616 $617 $618 reversed $270 $-1 #
coedge $-1 $619 $272 $274 $445 forward $169 $-1 #
coedge $-1 $272 $619 $615 $620 forward $169 $-1 #
coedge $-1 $617 $275 $272 $442 forward $447 $-1 #
edge $-1 $449 -13.422524391643996 $621 -4.6045831870902063 $441 $622 forward 7 unknown #
coedge $-1 $623 $624 $273 $444 forward $436 $-1 #
edge $-1 $625 -63.075292024649528 $448 -59.590981559831349 $443 $626 forward 7 unknown #
edge $-1 $449 -6.7651511377621878 $625 0 $274 $627 forward 7 unknown #
coedge $-1 $275 $617 $623 $628 forward $447 $-1 #
loop $-1 $-1 $617 $435 #
vertex $-1 $444 $629 #
vertex $-1 $276 $630 #
straight-curve $-1 -76.360651663711224 -22.436078181011098 6.3019977113394532 1 0 0 I I #
coedge $-1 $451 $451 $-1 $631 reversed $279 $-1 #
edge $-1 $632 0 $632 6.2831853071796004 $280 $633 forward 7 unknown #
vertex $-1 $283 $634 #
ellipse-curve $-1 -72.329913442838205 -20.672489940100341 4.5598424789303644 -0.51503808176128008 0 0.85716729658548041 0.4285836482927402 0 0.25751904088064004 1 I I #
coedge $-1 $455 $455 $-1 $635 reversed $286 $-1 #
edge $-1 $636 0 $636 6.2831853071796004 $287 $637 forward 7 unknown #
vertex $-1 $290 $638 #
ellipse-curve $-1 -72.329913442838205 -18.027107578734203 4.5598424789303644 -0.51503808176128008 0 0.85716729658548041 0.4285836482927402 0 0.25751904088064004 1 I I #
coedge $-1 $459 $459 $-1 $639 reversed $293 $-1 #
edge $-1 $640 0 $640 6.2831853071796004 $294 $641 forward 7 unknown #
vertex $-1 $297 $642 #
ellipse-curve $-1 -72.329913442838205 -15.381725217368064 4.5598424789303644 -0.51503808176128008 0 0.85716729658548041 0.4285836482927402 0 0.25751904088064004 1 I I #
face $-1 $-1 $643 $66 $-1 $644 reversed single #
loop $-1 $-1 $304 $298 #
plane-surface $-1 0 0 6.3019977113394523 0 0 1 1 0 0 forward_v I I I I #
coedge $-1 $645 $646 $647 $648 reversed $299 $-1 #
coedge $-1 $649 $301 $303 $473 forward $188 $-1 #
coedge $-1 $301 $649 $645 $650 forward $188 $-1 #
coedge $-1 $647 $304 $301 $470 forward $464 $-1 #
edge $-1 $476 -6.5580654753127039 $651 2.2598757292410872 $469 $652 forward 7 unknown #
coedge $-1 $653 $654 $302 $472 forward $643 $-1 #
edge $-1 $655 -63.075292024649528 $475 -59.590981559831349 $471 $656 forward 7 unknown #
edge $-1 $476 -6.7651511377621878 $655 0 $303 $657 forward 7 unknown #
coedge $-1 $304 $647 $653 $658 forward $464 $-1 #
vertex $-1 $472 $659 #
vertex $-1 $305 $660 #
straight-curve $-1 -76.360651663711224 -8.7071603483485127 6.3019977113394532 1 0 0 I I #
coedge $-1 $478 $478 $-1 $661 reversed $308 $-1 #
edge $-1 $662 0 $662 6.2831853071796004 $309 $663 forward 7 unknown #
vertex $-1 $312 $664 #
ellipse-curve $-1 -72.329913442838205 -6.9435721074377561 4.5598424789303644 -0.51503808176128008 0 0.85716729658548041 0.4285836482927402 0 0.25751904088064004 1 I I #
coedge $-1 $482 $482 $-1 $665 reversed $315 $-1 #
edge $-1 $666 0 $666 6.2831853071796004 $316 $667 forward 7 unknown #
vertex $-1 $319 $668 #
ellipse-curve $-1 -72.329913442838205 -4.2981897460716176 4.5598424789303644 -0.51503808176128008 0 0.85716729658548041 0.4285836482927402 0 0.25751904088064004 1 I I #
coedge $-1 $486 $486 $-1 $669 reversed $322 $-1 #
edge $-1 $670 0 $670 6.2831853071796004 $323 $671 forward 7 unknown #
vertex $-1 $326 $672 #
ellipse-curve $-1 -72.329913442838205 -1.6528073847054792 4.5598424789303644 -0.51503808176128008 0 0.85716729658548041 0.4285836482927402 0 0.25751904088064004 1 I I #
face $-1 $-1 $673 $70 $-1 $674 reversed single #
loop $-1 $-1 $333 $327 #
plane-surface $-1 0 0 6.3019977113394523 0 0 1 1 0 0 forward_v I I I I #
coedge $-1 $675 $676 $677 $678 reversed $328 $-1 #
coedge $-1 $679 $330 $332 $500 forward $207 $-1 #
coedge $-1 $330 $679 $675 $680 forward $207 $-1 #
coedge $-1 $677 $333 $330 $497 forward $491 $-1 #
edge $-1 $503 0.30639344101858779 $681 9.1243346455723788 $496 $682 forward 7 unknown #
coedge $-1 $683 $684 $331 $499 forward $673 $-1 #
edge $-1 $685 -63.075292024649528 $502 -59.590981559831349 $498 $686 forward 7 unknown #
edge $-1 $503 -6.7651511377621878 $685 0 $332 $687 forward 7 unknown #
coedge $-1 $333 $677 $683 $688 forward $491 $-1 #
vertex $-1 $334 $689 #
vertex $-1 $334 $690 #
straight-curve $-1 -76.360651663711224 5.0217574843140715 6.3019977113394532 1 0 0 I I #
coedge $-1 $505 $505 $-1 $691 reversed $337 $-1 #
edge $-1 $692 0 $692 6.2831853071796004 $338 $693 forward 7 unknown #
vertex $-1 $341 $694 #
ellipse-curve $-1 -72.329913442838205 6.785345725224829 4.5598424789303644 -0.51503808176128008 0 0.85716729658548041 0.4285836482927402 0 0.25751904088064004 1 I I #
coedge $-1 $509 $509 $-1 $695 reversed $344 $-1 #
edge $-1 $696 0 $696 6.2831853071796004 $345 $697 forward 7 unknown #
vertex $-1 $348 $698 #
ellipse-curve $-1 -72.329913442838205 9.4307280865909675 4.5598424789303644 -0.51503808176128008 0 0.85716729658548041 0.4285836482927402 0 0.25751904088064004 1 I I #
coedge $-1 $513 $513 $-1 $699 reversed $351 $-1 #
edge $-1 $700 0 $700 6.2831853071796004 $352 $701 forward 7 unknown #
vertex $-1 $355 $702 #
ellipse-curve $-1 -72.329913442838205 12.076110447957106 4.5598424789303644 -0.51503808176128008 0 0.85716729658548041 0.4285836482927402 0 0.25751904088064004 1 I I #
face $-1 $-1 $703 $74 $-1 $704 reversed single #
loop $-1 $-1 $362 $356 #
plane-surface $-1 0 0 6.3019977113394523 0 0 1 1 0 0 forward_v I I I I #
coedge $-1 $705 $706 $707 $708 reversed $357 $-1 #
coedge $-1 $709 $359 $361 $527 forward $226 $-1 #
coedge $-1 $359 $709 $705 $710 forward $226 $-1 #
coedge $-1 $707 $362 $359 $524 forward $518 $-1 #
edge $-1 $530 7.170852357349883 $711 15.988793561903673 $523 $712 forward 7 unknown #
coedge $-1 $713 $714 $360 $526 forward $703 $-1 #
edge $-1 $715 -63.075292024649528 $529 -59.590981559831349 $525 $716 forward 7 unknown #
edge $-1 $530 -6.7651511377621878 $715 0 $361 $717 forward 7 unknown #
coedge $-1 $362 $707 $713 $718 forward $518 $-1 #
vertex $-1 $363 $719 #
vertex $-1 $363 $720 #
straight-curve $-1 -76.360651663711224 18.750675316976661 6.3019977113394532 1 0 0 I I #
coedge $-1 $532 $532 $-1 $721 reversed $366 $-1 #
edge $-1 $722 0 $722 6.2831853071796004 $367 $723 forward 7 unknown #
vertex $-1 $370 $724 #
ellipse-curve $-1 -72.329913442838205 20.514263557887411 4.5598424789303644 -0.51503808176128008 0 0.85716729658548041 0.4285836482927402 0 0.25751904088064004 1 I I #
coedge $-1 $536 $536 $-1 $725 reversed $373 $-1 #
edge $-1 $726 0 $726 6.2831853071796004 $374 $727 forward 7 unknown #
vertex $-1 $377 $728 #
ellipse-curve $-1 -72.329913442838205 23.159645919253556 4.5598424789303644 -0.51503808176128008 0 0.85716729658548041 0.4285836482927402 0 0.25751904088064004 1 I I #
coedge $-1 $540 $540 $-1 $729 reversed $380 $-1 #
edge $-1 $730 0 $730 6.2831853071796004 $381 $731 forward 7 unknown #
vertex $-1 $384 $732 #
ellipse-curve $-1 -72.329913442838205 25.805028280619688 4.5598424789303644 -0.51503808176128008 0 0.85716729658548041 0.4285836482927402 0 0.25751904088064004 1 I I #
face $-1 $-1 $733 $78 $-1 $734 reversed single #
loop $-1 $-1 $391 $385 #
plane-surface $-1 0 0 6.3019977113394523 0 0 1 1 0 0 forward_v I I I I #
coedge $-1 $735 $736 $737 $738 reversed $386 $-1 #
coedge $-1 $739 $388 $390 $554 forward $245 $-1 #
coedge $-1 $388 $739 $735 $740 forward $245 $-1 #
coedge $-1 $737 $391 $388 $551 forward $545 $-1 #
edge $-1 $557 -6.3534671371711458 $741 1.7910933718123392 $550 $742 forward 7 unknown #
coedge $-1 $743 $744 $389 $553 forward $733 $-1 #
edge $-1 $745 -104.23388965872729 $556 -100.1740700252498 $552 $746 forward 7 unknown #
edge $-1 $557 143.71273401412367 $745 150.45869319742425 $390 $747 forward 7 unknown #
coedge $-1 $391 $737 $743 $748 forward $545 $-1 #
vertex $-1 $392 $749 #
vertex $-1 $392 $750 #
straight-curve $-1 22.807997678059841 8.634654019850549 6.3019977113394532 -1 0 0 I I #
coedge $-1 $559 $559 $-1 $751 reversed $395 $-1 #
edge $-1 $752 0 $752 6.2831853071796004 $396 $753 forward 7 unknown #
vertex $-1 $399 $754 #
ellipse-curve $-1 72.535565341520453 4.5623737653588066 4.2720878946007197 0.6018150307709319 0 0.79863550430605224 1.1979532564590785 0 -0.90272254615639791 1 I I #
face $-1 $-1 $415 $60 $-1 $755 reversed single #
loop $-1 $-1 $579 $400 #
plane-surface $-1 0 30.260486372722717 0 0 -1 0 0 0 -1 forward_v I I I I #
coedge $-1 $756 $577 $580 $757 forward $401 $-1 #
coedge $-1 $583 $403 $404 $571 reversed $254 $-1 #
coedge $-1 $577 $756 $403 $569 reversed $401 $-1 #
edge $-1 $584 -6.3019977113394523 $758 6.3019977113394523 $568 $759 forward 7 unknown #
coedge $-1 $405 $404 $756 $760 forward $161 $-1 #
edge $-1 $575 -75.229346598712112 $758 75.229346598712112 $567 $761 forward 7 unknown #
coedge $-1 $580 $579 $405 $573 reversed $564 $-1 #
edge $-1 $762 -75.229346598712112 $574 75.229346598712112 $572 $763 forward 7 unknown #
vertex $-1 $407 $764 #
vertex $-1 $586 $765 #
straight-curve $-1 75.229346598712112 0 -6.3019977113394523 0 -1 0 I I #
coedge $-1 $566 $568 $408 $578 reversed $401 $-1 #
edge $-1 $581 -30.260486372722717 $584 30.260486372722717 $577 $766 forward 7 unknown #
coedge $-1 $572 $409 $414 $587 forward $564 $-1 #
coedge $-1 $409 $572 $566 $757 reversed $564 $-1 #
vertex $-1 $410 $767 #
straight-curve $-1 0 30.260486372722717 6.3019977113394523 -1 0 0 I I #
coedge $-1 $411 $567 $413 $586 reversed $254 $-1 #
vertex $-1 $578 $768 #
straight-curve $-1 0 -30.260486372722717 6.3019977113394523 1 0 0 I I #
edge $-1 $416 -6.3019977113394523 $575 6.3019977113394523 $413 $769 forward 7 unknown #
edge $-1 $417 -6.3019977113394523 $574 6.3019977113394523 $414 $770 forward 7 unknown #
point $-1 75.229346598712112 -30.260486372722717 6.3019977113394523 #
point $-1 75.229346598712112 30.260486372722717 6.3019977113394523 #
face $-1 $-1 $600 $61 $-1 $771 reversed single #
loop $-1 $-1 $596 $419 #
plane-surface $-1 0 0 -6.3019977113394523 0 0 1 1 0 0 forward_v I I I I #
coedge $-1 $772 $773 $427 $604 forward $420 $-1 #
coedge $-1 $422 $608 $598 $774 forward $262 $-1 #
edge $-1 $602 -16.413377771491199 $432 -11.280839430971843 $422 $775 forward 7 unknown #
coedge $-1 $776 $428 $423 $597 forward $591 $-1 #
edge $-1 $433 11.280839430971843 $601 16.413377771491199 $596 $777 forward 7 unknown #
coedge $-1 $778 $425 $594 $774 reversed $600 $-1 #
coedge $-1 $425 $778 $776 $779 reversed $600 $-1 #
loop $-1 $-1 $425 $590 #
vertex $-1 $779 $780 #
vertex $-1 $426 $781 #
straight-curve $-1 -71.629243618290388 -30.260486372722717 0 0 0 1 I I #
edge $-1 $609 -6.3019977113394523 $606 6.3019977113394523 $593 $782 forward 7 unknown #
coedge $-1 $428 $776 $772 $783 forward $591 $-1 #
vertex $-1 $429 $784 #
straight-curve $-1 -36.714647554250625 -25.127948032203363 -6.3019977113394523 1 0 0 I I #
coedge $-1 $594 $430 $773 $785 forward $262 $-1 #
vertex $-1 $785 $786 #
straight-curve $-1 -36.714647554250625 -25.127948032203363 6.3019977113394523 -1 0 0 I I #
point $-1 -71.629243618290388 -25.127948032203363 6.3019977113394523 #
point $-1 -71.629243618290388 -25.127948032203363 -6.3019977113394523 #
plane-surface $-1 0 0 6.3019977113394523 0 0 1 1 0 0 forward_v I I I I #
coedge $-1 $624 $623 $616 $787 forward $436 $-1 #
coedge $-1 $616 $438 $440 $620 reversed $270 $-1 #
coedge $-1 $438 $615 $614 $787 reversed $270 $-1 #
coedge $-1 $446 $441 $438 $618 forward $447 $-1 #
edge $-1 $621 -6.9301713767469124 $788 -1.1313050649991112 $617 $789 forward 7 unknown #
coedge $-1 $440 $439 $624 $790 reversed $169 $-1 #
edge $-1 $791 0 $621 6.7651511377621878 $615 $792 forward 7 unknown #
vertex $-1 $442 $793 #
straight-curve $-1 -69.430480286964311 -9.0135537893671014 6.3019977113394532 0 1 0 I I #
coedge $-1 $614 $443 $446 $628 reversed $436 $-1 #
coedge $-1 $443 $614 $619 $790 forward $436 $-1 #
vertex $-1 $444 $794 #
straight-curve $-1 -75.229346598712112 -22.436078181011098 65.892979271170802 0 0 1 I I #
straight-curve $-1 -75.229346598712112 -22.436078181011098 2.8176872465212739 -0.85716729658548041 0 -0.51503808176128008 I I #
edge $-1 $788 13.618136976457308 $448 22.436078181011098 $623 $795 forward 7 unknown #
point $-1 -75.229346598712112 -22.436078181011098 6.3019977113394523 #
point $-1 -69.430480286964311 -22.436078181011098 6.3019977113394523 #
edge $-1 $796 1 $796 0 $451 $-1 forward 7 unknown #
vertex $-1 $452 $797 #
ellipse-curve $-1 -71.814875361076929 -20.672489940100341 3.7026751823448807 -0.51503808176128008 0 0.85716729658548041 0.4285836482927402 0 0.25751904088064004 1 I I #
point $-1 -71.901329794545461 -20.672489940100341 4.8173615198110014 #
edge $-1 $798 1 $798 0 $455 $-1 forward 7 unknown #
vertex $-1 $456 $799 #
ellipse-curve $-1 -71.814875361076929 -18.027107578734203 3.7026751823448807 -0.51503808176128008 0 0.85716729658548041 0.4285836482927402 0 0.25751904088064004 1 I I #
point $-1 -71.901329794545461 -18.027107578734203 4.8173615198110014 #
edge $-1 $800 1 $800 0 $459 $-1 forward 7 unknown #
vertex $-1 $460 $801 #
ellipse-curve $-1 -71.814875361076929 -15.381725217368064 3.7026751823448807 -0.51503808176128008 0 0.85716729658548041 0.4285836482927402 0 0.25751904088064004 1 I I #
point $-1 -71.901329794545461 -15.381725217368064 4.8173615198110014 #
loop $-1 $-1 $471 $463 #
plane-surface $-1 -75.229346598712112 0 0 1 0 0 0 0 -1 forward_v I I I I #
coedge $-1 $646 $466 $468 $650 reversed $299 $-1 #
coedge $-1 $466 $645 $802 $803 reversed $299 $-1 #
coedge $-1 $474 $469 $466 $648 forward $464 $-1 #
edge $-1 $651 -6.9301713767469124 $804 -1.1313050649991112 $647 $805 forward 7 unknown #
coedge $-1 $468 $467 $654 $806 reversed $188 $-1 #
edge $-1 $807 0 $651 6.7651511377621878 $645 $808 forward 7 unknown #
vertex $-1 $470 $809 #
straight-curve $-1 -69.430480286964311 -2.1490948730358088 6.3019977113394532 0 1 0 I I #
coedge $-1 $802 $471 $474 $658 reversed $643 $-1 #
coedge $-1 $471 $802 $649 $806 forward $643 $-1 #
vertex $-1 $472 $810 #
straight-curve $-1 -75.229346598712112 -8.7071603483485127 65.892979271170802 0 0 1 I I #
straight-curve $-1 -75.229346598712112 -8.7071603483485127 2.8176872465212739 -0.85716729658548041 0 -0.51503808176128008 I I #
edge $-1 $804 -0.11078085620527833 $475 8.7071603483485127 $653 $811 forward 7 unknown #
point $-1 -75.229346598712112 -8.7071603483485127 6.3019977113394523 #
point $-1 -69.430480286964311 -8.7071603483485127 6.3019977113394523 #
edge $-1 $812 1 $812 0 $478 $-1 forward 7 unknown #
vertex $-1 $479 $813 #
ellipse-curve $-1 -71.814875361076929 -6.9435721074377561 3.7026751823448807 -0.51503808176128008 0 0.85716729658548041 0.4285836482927402 0 0.25751904088064004 1 I I #
point $-1 -71.901329794545461 -6.9435721074377561 4.8173615198110014 #
edge $-1 $814 1 $814 0 $482 $-1 forward 7 unknown #
vertex $-1 $483 $815 #
ellipse-curve $-1 -71.814875361076929 -4.2981897460716176 3.7026751823448807 -0.51503808176128008 0 0.85716729658548041 0.4285836482927402 0 0.25751904088064004 1 I I #
point $-1 -71.901329794545461 -4.2981897460716176 4.8173615198110014 #
edge $-1 $816 1 $816 0 $486 $-1 forward 7 unknown #
vertex $-1 $487 $817 #
ellipse-curve $-1 -71.814875361076929 -1.6528073847054792 3.7026751823448807 -0.51503808176128008 0 0.85716729658548041 0.4285836482927402 0 0.25751904088064004 1 I I #
point $-1 -71.901329794545461 -1.6528073847054792 4.8173615198110014 #
loop $-1 $-1 $498 $490 #
plane-surface $-1 -75.229346598712112 0 0 1 0 0 0 0 -1 forward_v I I I I #
coedge $-1 $676 $493 $495 $680 reversed $328 $-1 #
coedge $-1 $493 $675 $818 $819 reversed $328 $-1 #
coedge $-1 $501 $496 $493 $678 forward $491 $-1 #
edge $-1 $681 -6.9301713767469124 $820 -1.1313050649991112 $677 $821 forward 7 unknown #
coedge $-1 $495 $494 $684 $822 reversed $207 $-1 #
edge $-1 $823 0 $681 6.7651511377621878 $675 $824 forward 7 unknown #
vertex $-1 $497 $825 #
straight-curve $-1 -69.430480286964311 4.7153640432954838 6.3019977113394532 0 1 0 I I #
coedge $-1 $818 $498 $501 $688 reversed $673 $-1 #
coedge $-1 $498 $818 $679 $822 forward $673 $-1 #
vertex $-1 $499 $826 #
straight-curve $-1 -75.229346598712112 5.0217574843140715 65.892979271170802 0 0 1 I I #
straight-curve $-1 -75.229346598712112 5.0217574843140715 2.8176872465212739 -0.85716729658548041 0 -0.51503808176128008 I I #
edge $-1 $820 -13.839698688867863 $502 -5.0217574843140715 $683 $827 forward 7 unknown #
point $-1 -75.229346598712112 5.0217574843140715 6.3019977113394523 #
point $-1 -69.430480286964311 5.0217574843140715 6.3019977113394523 #
edge $-1 $828 1 $828 0 $505 $-1 forward 7 unknown #
vertex $-1 $506 $829 #
ellipse-curve $-1 -71.814875361076929 6.785345725224829 3.7026751823448807 -0.51503808176128008 0 0.85716729658548041 0.4285836482927402 0 0.25751904088064004 1 I I #
point $-1 -71.901329794545461 6.785345725224829 4.8173615198110014 #
edge $-1 $830 1 $830 0 $509 $-1 forward 7 unknown #
vertex $-1 $510 $831 #
ellipse-curve $-1 -71.814875361076929 9.4307280865909675 3.7026751823448807 -0.51503808176128008 0 0.85716729658548041 0.4285836482927402 0 0.25751904088064004 1 I I #
point $-1 -71.901329794545461 9.4307280865909675 4.8173615198110014 #
edge $-1 $832 1 $832 0 $513 $-1 forward 7 unknown #
vertex $-1 $514 $833 #
ellipse-curve $-1 -71.814875361076929 12.076110447957106 3.7026751823448807 -0.51503808176128008 0 0.85716729658548041 0.4285836482927402 0 0.25751904088064004 1 I I #
point $-1 -71.901329794545461 12.076110447957106 4.8173615198110014 #
loop $-1 $-1 $525 $517 #
plane-surface $-1 -75.229346598712112 0 0 1 0 0 0 0 -1 forward_v I I I I #
coedge $-1 $706 $520 $522 $710 reversed $357 $-1 #
coedge $-1 $520 $705 $834 $835 reversed $357 $-1 #
coedge $-1 $528 $523 $520 $708 forward $518 $-1 #
edge $-1 $711 -6.9301713767469124 $836 -1.1313050649991112 $707 $837 forward 7 unknown #
coedge $-1 $522 $521 $714 $838 reversed $226 $-1 #
edge $-1 $839 0 $711 6.7651511377621878 $705 $840 forward 7 unknown #
vertex $-1 $524 $841 #
straight-curve $-1 -69.430480286964311 11.579822959626778 6.3019977113394532 0 1 0 I I #
coedge $-1 $834 $525 $528 $718 reversed $703 $-1 #
coedge $-1 $525 $834 $709 $838 forward $703 $-1 #
vertex $-1 $526 $842 #
straight-curve $-1 -75.229346598712112 18.750675316976661 65.892979271170802 0 0 1 I I #
straight-curve $-1 -75.229346598712112 18.750675316976661 2.8176872465212739 -0.85716729658548041 0 -0.51503808176128008 I I #
edge $-1 $836 -27.568616521530451 $529 -18.750675316976661 $713 $843 forward 7 unknown #
point $-1 -75.229346598712112 18.750675316976661 6.3019977113394523 #
point $-1 -69.430480286964311 18.750675316976661 6.3019977113394523 #
edge $-1 $844 1 $844 0 $532 $-1 forward 7 unknown #
vertex $-1 $533 $845 #
ellipse-curve $-1 -71.814875361076929 20.514263557887411 3.7026751823448807 -0.51503808176128008 0 0.85716729658548041 0.4285836482927402 0 0.25751904088064004 1 I I #
point $-1 -71.901329794545461 20.514263557887411 4.8173615198110014 #
edge $-1 $846 1 $846 0 $536 $-1 forward 7 unknown #
vertex $-1 $537 $847 #
ellipse-curve $-1 -71.814875361076929 23.159645919253556 3.7026751823448807 -0.51503808176128008 0 0.85716729658548041 0.4285836482927402 0 0.25751904088064004 1 I I #
point $-1 -71.901329794545461 23.159645919253556 4.8173615198110014 #
edge $-1 $848 1 $848 0 $540 $-1 forward 7 unknown #
vertex $-1 $541 $849 #
ellipse-curve $-1 -71.814875361076929 25.805028280619688 3.7026751823448807 -0.51503808176128008 0 0.85716729658548041 0.4285836482927402 0 0.25751904088064004 1 I I #
point $-1 -71.901329794545461 25.805028280619688 4.8173615198110014 #
loop $-1 $-1 $552 $544 #
plane-surface $-1 75.229346598712112 0 0 -1 0 0 0 0 1 forward_v I I I I #
coedge $-1 $736 $547 $549 $740 reversed $386 $-1 #
coedge $-1 $547 $735 $850 $851 reversed $386 $-1 #
coedge $-1 $555 $550 $547 $738 forward $545 $-1 #
edge $-1 $741 47.033786406268966 $852 52.421348920652271 $737 $853 forward 7 unknown #
coedge $-1 $549 $548 $744 $854 reversed $245 $-1 #
edge $-1 $855 -150.45869319742425 $741 -143.71273401412367 $735 $856 forward 7 unknown #
vertex $-1 $551 $857 #
straight-curve $-1 69.841784084328793 2.2811868826794033 6.3019977113394532 0 -1 0 I I #
coedge $-1 $850 $552 $555 $748 reversed $733 $-1 #
coedge $-1 $552 $850 $739 $854 forward $733 $-1 #
vertex $-1 $553 $858 #
straight-curve $-1 75.229346598712112 8.634654019850549 106.47606773658926 0 0 1 I I #
straight-curve $-1 -44.932307720242378 8.634654019850549 92.790481154224025 0.79863550430605224 0 -0.6018150307709319 I I #
edge $-1 $852 0.4900935108670641 $556 8.634654019850549 $743 $859 forward 7 unknown #
point $-1 75.229346598712112 8.634654019850549 6.3019977113394523 #
point $-1 69.841784084328808 8.634654019850549 6.3019977113394532 #
edge $-1 $860 1 $860 0 $559 $-1 forward 7 unknown #
vertex $-1 $560 $861 #
ellipse-curve $-1 69.360484598029174 4.5623737653588066 0.058613519355734889 0.6018150307709319 0 0.79863550430605224 1.1979532564590785 0 -0.90272254615639791 1 I I #
point $-1 73.733518597979526 4.5623737653588066 3.3693653484443198 #
plane-surface $-1 75.229346598712112 0 0 -1 0 0 0 0 1 forward_v I I I I #
coedge $-1 $568 $566 $570 $760 reversed $401 $-1 #
edge $-1 $581 -6.3019977113394523 $762 6.3019977113394523 $580 $862 forward 7 unknown #
vertex $-1 $760 $863 #
straight-curve $-1 -75.229346598712112 -30.260486372722717 0 0 0 -1 I I #
edge $-1 $758 -30.260486372722717 $762 30.260486372722717 $756 $864 forward 7 unknown #
straight-curve $-1 0 -30.260486372722717 -6.3019977113394523 -1 0 0 I I #
vertex $-1 $573 $865 #
straight-curve $-1 0 30.260486372722717 -6.3019977113394523 1 0 0 I I #
point $-1 75.229346598712112 30.260486372722717 -6.3019977113394523 #
point $-1 75.229346598712112 -30.260486372722717 -6.3019977113394523 #
straight-curve $-1 -75.229346598712112 0 6.3019977113394523 0 -1 0 I I #
point $-1 -75.229346598712112 30.260486372722717 6.3019977113394523 #
point $-1 -75.229346598712112 -30.260486372722717 6.3019977113394523 #
straight-curve $-1 75.229346598712112 -30.260486372722717 0 0 0 -1 I I #
straight-curve $-1 75.229346598712112 30.260486372722717 0 0 0 -1 I I #
plane-surface $-1 0 -30.260486372722717 0 0 1 0 0 0 1 forward_v I I I I #
coedge $-1 $866 $593 $605 $783 reversed $420 $-1 #
coedge $-1 $593 $866 $608 $785 reversed $420 $-1 #
edge $-1 $867 -75.229346598712112 $602 -71.629243618290388 $598 $868 forward 7 unknown #
straight-curve $-1 -71.629243618290388 -13.84710860123152 6.3019977113394523 0 1 0 I I #
coedge $-1 $605 $596 $599 $779 forward $591 $-1 #
straight-curve $-1 -71.629243618290388 -13.84710860123152 -6.3019977113394523 0 -1 0 I I #
coedge $-1 $599 $598 $866 $869 forward $600 $-1 #
edge $-1 $601 71.629243618290388 $870 75.229346598712112 $599 $871 forward 7 unknown #
point $-1 -71.629243618290388 -30.260486372722717 -6.3019977113394523 #
point $-1 -71.629243618290388 -30.260486372722717 6.3019977113394523 #
straight-curve $-1 -75.229346598712112 -25.127948032203363 0 0 0 -1 I I #
edge $-1 $870 -30.260486372722717 $606 -25.127948032203363 $772 $872 forward 7 unknown #
point $-1 -75.229346598712112 -25.127948032203363 -6.3019977113394523 #
edge $-1 $609 25.127948032203363 $867 30.260486372722717 $773 $873 forward 7 unknown #
point $-1 -75.229346598712112 -25.127948032203363 6.3019977113394523 #
edge $-1 $788 59.590981559831349 $791 63.075292024649528 $614 $874 forward 7 unknown #
vertex $-1 $628 $875 #
straight-curve $-1 -76.360651663711224 -13.618136976457308 6.3019977113394532 -1 0 0 I I #
edge $-1 $791 4.6045831870902063 $625 13.422524391643996 $624 $876 forward 7 unknown #
vertex $-1 $790 $877 #
straight-curve $-1 -75.229346598712112 -13.618136976457308 2.8176872465212739 0.85716729658548041 0 0.51503808176128008 I I #
point $-1 -69.430480286964311 -13.618136976457308 6.3019977113394523 #
point $-1 -75.229346598712112 -22.436078181011098 2.8176872465212739 #
straight-curve $-1 -75.229346598712112 0 6.3019977113394523 0 -1 0 I I #
vertex $-1 $631 $878 #
point $-1 -71.386291712784185 -20.672489940100341 3.9601942232255207 #
vertex $-1 $635 $879 #
point $-1 -71.386291712784185 -18.027107578734203 3.9601942232255207 #
vertex $-1 $639 $880 #
point $-1 -71.386291712784185 -15.381725217368064 3.9601942232255207 #
coedge $-1 $654 $653 $646 $803 forward $643 $-1 #
edge $-1 $804 59.590981559831349 $807 63.075292024649528 $802 $881 forward 7 unknown #
vertex $-1 $658 $882 #
straight-curve $-1 -76.360651663711224 0.11078085620527833 6.3019977113394532 -1 0 0 I I #
edge $-1 $807 -2.2598757292410872 $655 6.5580654753127039 $654 $883 forward 7 unknown #
vertex $-1 $806 $884 #
straight-curve $-1 -75.229346598712112 0.11078085620527833 2.8176872465212739 0.85716729658548041 0 0.51503808176128008 I I #
point $-1 -69.430480286964311 0.11078085620527833 6.3019977113394523 #
point $-1 -75.229346598712112 -8.7071603483485127 2.8176872465212739 #
straight-curve $-1 -75.229346598712112 0 6.3019977113394523 0 -1 0 I I #
vertex $-1 $661 $885 #
point $-1 -71.386291712784185 -6.9435721074377561 3.9601942232255207 #
vertex $-1 $665 $886 #
point $-1 -71.386291712784185 -4.2981897460716176 3.9601942232255207 #
vertex $-1 $669 $887 #
point $-1 -71.386291712784185 -1.6528073847054792 3.9601942232255207 #
coedge $-1 $684 $683 $676 $819 forward $673 $-1 #
edge $-1 $820 59.590981559831349 $823 63.075292024649528 $818 $888 forward 7 unknown #
vertex $-1 $688 $889 #
straight-curve $-1 -76.360651663711224 13.839698688867863 6.3019977113394532 -1 0 0 I I #
edge $-1 $823 -9.1243346455723788 $685 -0.30639344101858779 $684 $890 forward 7 unknown #
vertex $-1 $822 $891 #
straight-curve $-1 -75.229346598712112 13.839698688867863 2.8176872465212739 0.85716729658548041 0 0.51503808176128008 I I #
point $-1 -69.430480286964311 13.839698688867863 6.3019977113394523 #
point $-1 -75.229346598712112 5.0217574843140715 2.8176872465212739 #
straight-curve $-1 -75.229346598712112 0 6.3019977113394523 0 -1 0 I I #
vertex $-1 $691 $892 #
point $-1 -71.386291712784185 6.785345725224829 3.9601942232255207 #
vertex $-1 $695 $893 #
point $-1 -71.386291712784185 9.4307280865909675 3.9601942232255207 #
vertex $-1 $699 $894 #
point $-1 -71.386291712784185 12.076110447957106 3.9601942232255207 #
coedge $-1 $714 $713 $706 $835 forward $703 $-1 #
edge $-1 $836 59.590981559831349 $839 63.075292024649528 $834 $895 forward 7 unknown #
vertex $-1 $718 $896 #
straight-curve $-1 -76.360651663711224 27.568616521530451 6.3019977113394532 -1 0 0 I I #
edge $-1 $839 -15.988793561903673 $715 -7.170852357349883 $714 $897 forward 7 unknown #
vertex $-1 $838 $898 #
straight-curve $-1 -75.229346598712112 27.568616521530451 2.8176872465212739 0.85716729658548041 0 0.51503808176128008 I I #
point $-1 -69.430480286964311 27.568616521530451 6.3019977113394523 #
point $-1 -75.229346598712112 18.750675316976661 2.8176872465212739 #
straight-curve $-1 -75.229346598712112 0 6.3019977113394523 0 -1 0 I I #
vertex $-1 $721 $899 #
point $-1 -71.386291712784185 20.514263557887411 3.9601942232255207 #
vertex $-1 $725 $900 #
point $-1 -71.386291712784185 23.159645919253556 3.9601942232255207 #
vertex $-1 $729 $901 #
point $-1 -71.386291712784185 25.805028280619688 3.9601942232255207 #
coedge $-1 $744 $743 $736 $851 forward $733 $-1 #
edge $-1 $852 100.1740700252498 $855 104.23388965872729 $850 $902 forward 7 unknown #
vertex $-1 $748 $903 #
straight-curve $-1 22.807997678059841 0.4900935108670641 6.3019977113394532 1 0 0 I I #
edge $-1 $855 -1.7910933718123392 $745 6.3534671371711458 $744 $904 forward 7 unknown #
vertex $-1 $854 $905 #
straight-curve $-1 -44.932307720242378 0.4900935108670641 92.790481154224025 -0.79863550430605224 0 0.6018150307709319 I I #
point $-1 69.841784084328808 0.4900935108670641 6.3019977113394532 #
point $-1 75.229346598712112 8.634654019850549 2.2421780778619649 #
straight-curve $-1 75.229346598712112 0 6.3019977113394523 0 1 0 I I #
vertex $-1 $751 $906 #
point $-1 70.558437854488247 4.5623737653588066 -0.84410902680066302 #
straight-curve $-1 -75.229346598712112 30.260486372722717 0 0 0 -1 I I #
point $-1 -75.229346598712112 -30.260486372722717 -6.3019977113394523 #
straight-curve $-1 -75.229346598712112 0 -6.3019977113394523 0 1 0 I I #
point $-1 -75.229346598712112 30.260486372722717 -6.3019977113394523 #
coedge $-1 $773 $772 $778 $869 reversed $420 $-1 #
vertex $-1 $785 $907 #
straight-curve $-1 0 -30.260486372722717 6.3019977113394523 1 0 0 I I #
edge $-1 $867 -6.3019977113394523 $870 6.3019977113394523 $866 $908 forward 7 unknown #
vertex $-1 $783 $909 #
straight-curve $-1 0 -30.260486372722717 -6.3019977113394523 -1 0 0 I I #
straight-curve $-1 -75.229346598712112 0 -6.3019977113394523 0 1 0 I I #
straight-curve $-1 -75.229346598712112 0 6.3019977113394523 0 -1 0 I I #
straight-curve $-1 -75.229346598712112 -13.618136976457308 65.892979271170802 0 0 -1 I I #
point $-1 -75.229346598712112 -13.618136976457308 6.3019977113394523 #
straight-curve $-1 -75.229346598712112 -9.0135537893671014 2.8176872465212761 0 -1 0 I I #
point $-1 -75.229346598712112 -13.618136976457308 2.8176872465212739 #
point $-1 -71.557356320196277 -20.672489940100341 3.2740915340521406 #
point $-1 -71.557356320196277 -18.027107578734203 3.2740915340521406 #
point $-1 -71.557356320196277 -15.381725217368064 3.2740915340521406 #
straight-curve $-1 -75.229346598712112 0.11078085620527833 65.892979271170802 0 0 -1 I I #
point $-1 -75.229346598712112 0.11078085620527833 6.3019977113394523 #
straight-curve $-1 -75.229346598712112 -2.1490948730358088 2.8176872465212761 0 -1 0 I I #
point $-1 -75.229346598712112 0.11078085620527833 2.8176872465212739 #
point $-1 -71.557356320196277 -6.9435721074377561 3.2740915340521406 #
point $-1 -71.557356320196277 -4.2981897460716176 3.2740915340521406 #
point $-1 -71.557356320196277 -1.6528073847054792 3.2740915340521406 #
straight-curve $-1 -75.229346598712112 13.839698688867863 65.892979271170802 0 0 -1 I I #
point $-1 -75.229346598712112 13.839698688867863 6.3019977113394523 #
straight-curve $-1 -75.229346598712112 4.7153640432954838 2.8176872465212761 0 -1 0 I I #
point $-1 -75.229346598712112 13.839698688867863 2.8176872465212739 #
point $-1 -71.557356320196277 6.785345725224829 3.2740915340521406 #
point $-1 -71.557356320196277 9.4307280865909675 3.2740915340521406 #
point $-1 -71.557356320196277 12.076110447957106 3.2740915340521406 #
straight-curve $-1 -75.229346598712112 27.568616521530451 65.892979271170802 0 0 -1 I I #
point $-1 -75.229346598712112 27.568616521530451 6.3019977113394523 #
straight-curve $-1 -75.229346598712112 11.579822959626778 2.8176872465212761 0 -1 0 I I #
point $-1 -75.229346598712112 27.568616521530451 2.8176872465212739 #
point $-1 -71.557356320196277 20.514263557887411 3.2740915340521406 #
point $-1 -71.557356320196277 23.159645919253556 3.2740915340521406 #
point $-1 -71.557356320196277 25.805028280619688 3.2740915340521406 #
straight-curve $-1 75.229346598712112 0.4900935108670641 106.47606773658926 0 0 -1 I I #
point $-1 75.229346598712112 0.4900935108670641 6.3019977113394523 #
straight-curve $-1 75.229346598712112 2.2811868826794033 2.2421780778619649 0 1 0 I I #
point $-1 75.229346598712112 0.4900935108670641 2.2421780778619649 #
point $-1 68.457762051872763 4.5623737653588066 -1.1393397371033436 #
point $-1 -75.229346598712112 -30.260486372722717 6.3019977113394523 #
straight-curve $-1 -75.229346598712112 -30.260486372722717 0 0 0 -1 I I #
point $-1 -75.229346598712112 -30.260486372722717 -6.3019977113394523 #
End-of-ACIS-data 