500 0 10 0           
7 Unknown 11 ACIS 5.0 NT 24 Fri Mar 26 19:47:15 1999 
-1 9.9999999999999995e-007 1e-010 
body $-1 $10 $-1 $11 #
body $-1 $12 $-1 $13 #
body $-1 $14 $-1 $15 #
body $-1 $16 $-1 $17 #
body $-1 $18 $-1 $19 #
body $-1 $20 $-1 $21 #
body $-1 $22 $-1 $23 #
body $-1 $24 $-1 $25 #
body $-1 $26 $-1 $27 #
body $-1 $28 $-1 $29 #
lump $-1 $-1 $30 $0 #
transform $-1 1 0 0 0 1 0 0 0 1 52.251350444044313 25.694007978600336 12.647518054373078 1 rotate no_reflect no_shear #
lump $-1 $-1 $31 $1 #
transform $-1 1 0 0 0 1 0 0 0 1 52.251350444044313 25.694007978600336 12.647518054373078 1 rotate no_reflect no_shear #
lump $-1 $-1 $32 $2 #
transform $-1 1 0 0 0 1 0 0 0 1 52.251350444044313 25.694007978600336 12.647518054373078 1 rotate no_reflect no_shear #
lump $-1 $-1 $33 $3 #
transform $-1 1 0 0 0 1 0 0 0 1 52.251350444044313 25.694007978600336 12.647518054373078 1 rotate no_reflect no_shear #
lump $-1 $-1 $34 $4 #
transform $-1 1 0 0 0 1 0 0 0 1 52.251350444044313 25.694007978600336 12.647518054373078 1 rotate no_reflect no_shear #
lump $-1 $-1 $35 $5 #
transform $-1 1 0 0 0 1 0 0 0 1 52.251350444044313 25.694007978600336 12.647518054373078 1 rotate no_reflect no_shear #
lump $-1 $-1 $36 $6 #
transform $-1 1 0 0 0 1 0 0 0 1 52.251350444044313 25.694007978600336 12.647518054373078 1 rotate no_reflect no_shear #
lump $-1 $-1 $37 $7 #
transform $-1 1 0 0 0 1 0 0 0 1 52.251350444044313 25.694007978600336 12.647518054373078 1 rotate no_reflect no_shear #
lump $-1 $-1 $38 $8 #
transform $-1 1 0 0 0 1 0 0 0 1 52.251350444044313 25.694007978600336 12.647518054373078 1 rotate no_reflect no_shear #
lump $-1 $-1 $39 $9 #
transform $-1 1 0 0 0 1 0 0 0 1 52.251350444044313 25.694007978600336 12.647518054373078 1 rotate no_reflect no_shear #
shell $-1 $-1 $-1 $40 $-1 $10 #
shell $-1 $-1 $-1 $41 $-1 $12 #
shell $-1 $-1 $-1 $42 $-1 $14 #
shell $-1 $-1 $-1 $43 $-1 $16 #
shell $-1 $-1 $-1 $44 $-1 $18 #
shell $-1 $-1 $-1 $45 $-1 $20 #
shell $-1 $-1 $-1 $46 $-1 $22 #
shell $-1 $-1 $-1 $47 $-1 $24 #
shell $-1 $-1 $-1 $48 $-1 $26 #
shell $-1 $-1 $-1 $49 $-1 $28 #
face $-1 $50 $51 $30 $-1 $52 forward single #
face $-1 $53 $54 $31 $-1 $55 forward single #
face $-1 $56 $57 $32 $-1 $58 reversed single #
face $-1 $59 $60 $33 $-1 $61 forward single #
face $-1 $62 $63 $34 $-1 $64 forward single #
face $-1 $65 $66 $35 $-1 $67 forward single #
face $-1 $68 $69 $36 $-1 $70 reversed single #
face $-1 $71 $72 $37 $-1 $73 forward single #
face $-1 $74 $75 $38 $-1 $76 reversed single #
face $-1 $77 $78 $39 $-1 $79 forward single #
face $-1 $80 $81 $30 $-1 $82 reversed single #
loop $-1 $-1 $83 $40 #
plane-surface $-1 0 0 12.647518054373078 0 0 1 1 0 0 forward_v I I I I #
face $-1 $84 $85 $31 $-1 $86 reversed single #
loop $-1 $-1 $87 $41 #
plane-surface $-1 0 -25.694007978600336 0 0 1 0 0 0 1 forward_v I I I I #
face $-1 $88 $89 $32 $-1 $90 reversed single #
loop $-1 $-1 $91 $42 #
plane-surface $-1 88.004780773486857 16.164185880568109 152.71780950302085 0 -1 0 -0.85716730853699208 0 -0.51503806187062418 forward_v I I I I #
face $-1 $92 $93 $33 $-1 $94 forward single #
loop $-1 $95 $96 $43 #
cone-surface $-1 50.772177283307315 10.940503523017338 10.695221013479792 -0.85716730853699208 0 -0.51503806187062418 0.25751903093531209 0 -0.42858365426849604 1 I I 0 1 0.5 forward I I I I #
face $-1 $97 $98 $34 $-1 $99 forward single #
loop $-1 $100 $101 $44 #
cone-surface $-1 50.772177283307315 12.899384407098875 10.695221013479792 -0.85716730853699208 0 -0.51503806187062418 0.25751903093531209 0 -0.42858365426849604 1 I I 0 1 0.5 forward I I I I #
face $-1 $102 $103 $35 $-1 $104 forward single #
loop $-1 $105 $106 $45 #
cone-surface $-1 50.772177283307315 14.858265291180413 10.695221013479792 -0.85716730853699208 0 -0.51503806187062418 0.25751903093531209 0 -0.42858365426849604 1 I I 0 1 0.5 forward I I I I #
face $-1 $107 $108 $36 $-1 $109 reversed single #
loop $-1 $-1 $110 $46 #
plane-surface $-1 -139.89469078616176 -7.8579244646517488 58.340102065037115 0 1 0 -0.83867057594974714 0 0.54463902268945019 forward_v I I I I #
face $-1 $111 $112 $37 $-1 $113 forward single #
loop $-1 $114 $115 $47 #
cone-surface $-1 -47.369844406637867 -2.8742494993761305 6.2322778215230308 0.83867057594974714 0 -0.54463902268945019 0.81695853403417529 0 1.2580058639246208 1 I I 0 1 1.5 forward I I I I #
face $-1 $116 $117 $38 $-1 $118 reversed single #
loop $-1 $-1 $119 $48 #
plane-surface $-1 -139.89469078616176 7.8227302510282861 58.340102065037115 0 1 0 -0.83867057594974714 0 0.54463902268945019 forward_v I I I I #
face $-1 $120 $121 $39 $-1 $122 forward single #
loop $-1 $123 $124 $49 #
cone-surface $-1 -47.369844406637867 12.806405216303904 6.2322778215230308 0.83867057594974714 0 -0.54463902268945019 0.81695853403417529 0 1.2580058639246208 1 I I 0 1 1.5 forward I I I I #
face $-1 $125 $126 $30 $-1 $127 reversed single #
loop $-1 $-1 $128 $50 #
plane-surface $-1 0 0 -12.647518054373078 0 0 1 1 0 0 forward_v I I I I #
coedge $-1 $129 $130 $131 $132 forward $51 $-1 #
face $-1 $133 $134 $31 $-1 $135 reversed single #
loop $-1 $-1 $136 $53 #
plane-surface $-1 0 0 -12.647518054373078 0 0 1 1 0 0 forward_v I I I I #
coedge $-1 $137 $138 $139 $140 forward $54 $-1 #
face $-1 $141 $142 $32 $-1 $143 reversed single #
loop $-1 $-1 $144 $56 #
plane-surface $-1 -1.5715180816024201 12.899384407098875 98.894940977374119 0.85716730853699208 0 0.51503806187062418 0.51503806187062418 0 -0.85716730853699208 forward_v I I I I #
coedge $-1 $145 $146 $147 $148 reversed $57 $-1 #
face $-1 $-1 $149 $33 $-1 $150 forward single #
loop $-1 $151 $152 $59 #
cone-surface $-1 50.078807487585173 10.940503523017338 10.278602423162953 -0.85716730853699208 0 -0.51503806187062418 0.12875951546765604 0 -0.21429182713424802 1 I I -0.70710678118654746 0.70710678118654746 0.25 forward I I I I #
loop $-1 $-1 $153 $43 #
coedge $-1 $96 $96 $154 $155 reversed $60 $-1 #
face $-1 $-1 $156 $34 $-1 $157 forward single #
loop $-1 $158 $159 $62 #
cone-surface $-1 50.078807487585173 12.899384407098875 10.278602423162953 -0.85716730853699208 0 -0.51503806187062418 0.12875951546765604 0 -0.21429182713424802 1 I I -0.70710678118654746 0.70710678118654746 0.25 forward I I I I #
loop $-1 $-1 $160 $44 #
coedge $-1 $101 $101 $161 $162 reversed $63 $-1 #
face $-1 $-1 $163 $35 $-1 $164 forward single #
loop $-1 $165 $166 $65 #
cone-surface $-1 50.078807487585173 14.858265291180413 10.278602423162953 -0.85716730853699208 0 -0.51503806187062418 0.12875951546765604 0 -0.21429182713424802 1 I I -0.70710678118654746 0.70710678118654746 0.25 forward I I I I #
loop $-1 $-1 $167 $45 #
coedge $-1 $106 $106 $168 $169 reversed $66 $-1 #
face $-1 $170 $171 $36 $-1 $172 reversed single #
loop $-1 $-1 $173 $68 #
plane-surface $-1 -52.25135044404432 -2.8742494993761305 1.4238531849405902 -0.83867057594974714 0 0.54463902268945019 0.54463902268945019 0 0.83867057594974714 forward_v I I I I #
coedge $-1 $174 $175 $176 $177 reversed $69 $-1 #
face $-1 $-1 $178 $37 $-1 $179 forward single #
loop $-1 $180 $181 $71 #
cone-surface $-1 -45.503701914869197 -2.8742494993761305 5.0203907563721426 0.83867057594974714 0 -0.54463902268945019 0.40847926701708764 0 0.62900293196231039 1 I I -0.70710678118654757 0.70710678118654757 0.75 forward I I I I #
loop $-1 $-1 $182 $47 #
coedge $-1 $115 $115 $183 $184 reversed $72 $-1 #
face $-1 $185 $186 $38 $-1 $187 reversed single #
loop $-1 $-1 $188 $74 #
plane-surface $-1 -52.25135044404432 12.806405216303904 1.4238531849405902 -0.83867057594974714 0 0.54463902268945019 0.54463902268945019 0 0.83867057594974714 forward_v I I I I #
coedge $-1 $189 $190 $191 $192 reversed $75 $-1 #
face $-1 $-1 $193 $39 $-1 $194 forward single #
loop $-1 $195 $196 $77 #
cone-surface $-1 -45.503701914869197 12.806405216303904 5.0203907563721426 0.83867057594974714 0 -0.54463902268945019 0.40847926701708764 0 0.62900293196231039 1 I I -0.70710678118654757 0.70710678118654757 0.75 forward I I I I #
loop $-1 $-1 $197 $49 #
coedge $-1 $124 $124 $198 $199 reversed $78 $-1 #
face $-1 $200 $201 $30 $-1 $202 reversed single #
loop $-1 $-1 $203 $80 #
plane-surface $-1 0 -25.694007978600336 0 0 1 0 0 0 1 forward_v I I I I #
coedge $-1 $204 $205 $206 $207 forward $81 $-1 #
coedge $-1 $208 $83 $209 $210 forward $51 $-1 #
coedge $-1 $83 $208 $211 $212 forward $51 $-1 #
coedge $-1 $213 $214 $83 $132 reversed $215 $-1 #
edge $-1 $216 -25.694007978600336 $217 25.694007978600336 $131 $218 forward 7 unknown #
face $-1 $219 $220 $31 $-1 $221 reversed single #
loop $-1 $-1 $222 $84 #
plane-surface $-1 -28.456314335298156 -35.626163695528113 0 0 1 0 0 0 1 forward_v I I I I #
coedge $-1 $223 $224 $138 $225 forward $85 $-1 #
coedge $-1 $226 $87 $227 $228 reversed $54 $-1 #
coedge $-1 $87 $226 $136 $225 reversed $54 $-1 #
coedge $-1 $229 $230 $87 $140 reversed $220 $-1 #
edge $-1 $231 -12.647518054373078 $232 12.647518054373078 $139 $233 forward 7 unknown #
face $-1 $234 $235 $32 $-1 $236 forward single #
loop $-1 $-1 $237 $88 #
plane-surface $-1 88.004780773486857 9.6345829336296411 152.71780950302085 0 1 0 0.85716730853699208 0 0.51503806187062418 forward_v I I I I #
coedge $-1 $238 $239 $240 $241 reversed $89 $-1 #
coedge $-1 $146 $91 $242 $243 reversed $57 $-1 #
coedge $-1 $91 $145 $238 $244 reversed $57 $-1 #
coedge $-1 $240 $245 $91 $148 forward $235 $-1 #
edge $-1 $246 -8.2489600573008843 $247 -6.2487696730026485 $147 $248 forward 7 unknown #
loop $-1 $-1 $154 $92 #
plane-surface $-1 -1.5715180816024201 12.899384407098875 98.894940977374119 0.85716730853699208 0 0.51503806187062418 0.51503806187062418 0 -0.85716730853699208 forward_v I I I I #
loop $-1 $-1 $249 $59 #
coedge $-1 $152 $152 $153 $250 reversed $93 $-1 #
coedge $-1 $153 $153 $152 $250 forward $95 $-1 #
coedge $-1 $154 $154 $96 $155 forward $149 $-1 #
edge $-1 $251 0 $251 6.2831853071796004 $154 $252 forward 7 unknown #
loop $-1 $-1 $161 $97 #
plane-surface $-1 -1.5715180816024201 12.899384407098875 98.894940977374119 0.85716730853699208 0 0.51503806187062418 0.51503806187062418 0 -0.85716730853699208 forward_v I I I I #
loop $-1 $-1 $253 $62 #
coedge $-1 $159 $159 $160 $254 reversed $98 $-1 #
coedge $-1 $160 $160 $159 $254 forward $100 $-1 #
coedge $-1 $161 $161 $101 $162 forward $156 $-1 #
edge $-1 $255 0 $255 6.2831853071796004 $161 $256 forward 7 unknown #
loop $-1 $-1 $168 $102 #
plane-surface $-1 -1.5715180816024201 12.899384407098875 98.894940977374119 0.85716730853699208 0 0.51503806187062418 0.51503806187062418 0 -0.85716730853699208 forward_v I I I I #
loop $-1 $-1 $257 $65 #
coedge $-1 $166 $166 $167 $258 reversed $103 $-1 #
coedge $-1 $167 $167 $166 $258 forward $105 $-1 #
coedge $-1 $168 $168 $106 $169 forward $163 $-1 #
edge $-1 $259 0 $259 6.2831853071796004 $168 $260 forward 7 unknown #
face $-1 $261 $262 $36 $-1 $263 reversed single #
loop $-1 $-1 $264 $107 #
plane-surface $-1 -139.89469078616176 2.1094254658994878 58.340102065037115 0 -1 0 0.83867057594974714 0 -0.54463902268945019 forward_v I I I I #
coedge $-1 $265 $266 $267 $268 reversed $108 $-1 #
coedge $-1 $175 $110 $269 $270 reversed $69 $-1 #
coedge $-1 $110 $174 $265 $271 reversed $69 $-1 #
coedge $-1 $267 $272 $110 $177 forward $273 $-1 #
edge $-1 $274 17.695994949036567 $275 24.984727904236728 $176 $276 forward 7 unknown #
loop $-1 $-1 $183 $111 #
plane-surface $-1 -52.25135044404432 -2.8742494993761305 1.4238531849405902 -0.83867057594974714 0 0.54463902268945019 0.54463902268945019 0 0.83867057594974714 forward_v I I I I #
loop $-1 $-1 $277 $71 #
coedge $-1 $181 $181 $182 $278 reversed $112 $-1 #
coedge $-1 $182 $182 $181 $278 forward $114 $-1 #
coedge $-1 $183 $183 $115 $184 forward $178 $-1 #
edge $-1 $279 0 $279 6.2831853071796004 $183 $280 forward 7 unknown #
face $-1 $281 $282 $38 $-1 $283 forward single #
loop $-1 $-1 $284 $116 #
plane-surface $-1 -139.89469078616176 17.790080181579523 58.340102065037115 0 -1 0 0.83867057594974714 0 -0.54463902268945019 forward_v I I I I #
coedge $-1 $285 $286 $287 $288 reversed $117 $-1 #
coedge $-1 $190 $119 $289 $290 reversed $75 $-1 #
coedge $-1 $119 $189 $285 $291 reversed $75 $-1 #
coedge $-1 $287 $292 $119 $192 forward $282 $-1 #
edge $-1 $293 17.695994949036567 $294 24.984727904236728 $191 $295 forward 7 unknown #
loop $-1 $-1 $198 $120 #
plane-surface $-1 -52.25135044404432 12.806405216303904 1.4238531849405902 -0.83867057594974714 0 0.54463902268945019 0.54463902268945019 0 0.83867057594974714 forward_v I I I I #
loop $-1 $-1 $296 $77 #
coedge $-1 $196 $196 $197 $297 reversed $121 $-1 #
coedge $-1 $197 $197 $196 $297 forward $123 $-1 #
coedge $-1 $198 $198 $124 $199 forward $193 $-1 #
edge $-1 $298 0 $298 6.2831853071796004 $198 $299 forward 7 unknown #
face $-1 $300 $301 $30 $-1 $302 reversed single #
loop $-1 $-1 $303 $125 #
plane-surface $-1 -52.251350444044313 0 0 1 0 0 0 0 -1 forward_v I I I I #
coedge $-1 $304 $211 $305 $306 forward $126 $-1 #
coedge $-1 $307 $128 $304 $308 forward $81 $-1 #
coedge $-1 $128 $307 $309 $310 forward $81 $-1 #
coedge $-1 $214 $213 $128 $207 reversed $215 $-1 #
edge $-1 $311 -25.694007978600336 $312 25.694007978600336 $206 $313 forward 7 unknown #
coedge $-1 $130 $129 $314 $315 forward $51 $-1 #
coedge $-1 $316 $317 $129 $210 reversed $301 $-1 #
edge $-1 $217 -52.251350444044313 $318 52.251350444044313 $209 $319 forward 7 unknown #
coedge $-1 $203 $320 $130 $212 reversed $126 $-1 #
edge $-1 $321 -52.251350444044313 $216 52.251350444044313 $211 $322 forward 7 unknown #
coedge $-1 $206 $131 $320 $323 forward $215 $-1 #
coedge $-1 $131 $206 $316 $324 reversed $215 $-1 #
loop $-1 $-1 $213 $300 #
vertex $-1 $132 $325 #
vertex $-1 $132 $326 #
straight-curve $-1 52.251350444044313 0 12.647518054373078 0 1 0 I I #
face $-1 $327 $328 $31 $-1 $329 reversed single #
loop $-1 $-1 $139 $133 #
plane-surface $-1 -29.956314335298156 -30.660085837064223 0 1 0 0 0 0 -1 forward_v I I I I #
coedge $-1 $330 $331 $332 $333 forward $134 $-1 #
coedge $-1 $334 $136 $335 $336 forward $85 $-1 #
coedge $-1 $136 $334 $229 $337 forward $85 $-1 #
edge $-1 $231 -29.956314335298156 $338 -26.956314335298156 $136 $339 forward 7 unknown #
coedge $-1 $138 $137 $340 $341 forward $54 $-1 #
coedge $-1 $342 $343 $137 $228 forward $344 $-1 #
edge $-1 $345 26.956314335298156 $232 29.956314335298156 $227 $346 forward 7 unknown #
coedge $-1 $332 $139 $224 $337 reversed $220 $-1 #
coedge $-1 $139 $332 $342 $347 reversed $220 $-1 #
vertex $-1 $225 $348 #
vertex $-1 $347 $349 #
straight-curve $-1 -29.956314335298156 -25.694007978600336 0 0 0 1 I I #
face $-1 $-1 $350 $32 $-1 $351 reversed single #
loop $-1 $-1 $147 $141 #
plane-surface $-1 0 0 12.647518054373078 0 0 1 1 0 0 forward_v I I I I #
coedge $-1 $352 $353 $354 $355 reversed $142 $-1 #
coedge $-1 $356 $144 $146 $244 forward $89 $-1 #
coedge $-1 $144 $356 $352 $357 forward $89 $-1 #
coedge $-1 $354 $147 $144 $241 forward $235 $-1 #
edge $-1 $247 -9.7144936770186714 $358 -3.1848907300802036 $240 $359 forward 7 unknown #
coedge $-1 $360 $361 $145 $243 forward $350 $-1 #
edge $-1 $362 -67.04026262922558 $246 -63.711386697137343 $242 $363 forward 7 unknown #
edge $-1 $247 100.61912308602579 $362 104.50270088808865 $146 $364 forward 7 unknown #
coedge $-1 $147 $354 $360 $365 forward $235 $-1 #
vertex $-1 $148 $366 #
vertex $-1 $148 $367 #
straight-curve $-1 44.002390386743429 16.164185880568109 12.64751805437308 -1 0 0 I I #
coedge $-1 $249 $249 $-1 $368 reversed $151 $-1 #
edge $-1 $369 0 $369 6.2831853071796004 $152 $370 forward 7 unknown #
vertex $-1 $155 $371 #
ellipse-curve $-1 51.251255251895188 10.940503523017338 10.983080088328965 0.85716730853699208 0 0.51503806187062418 0.25751903093531209 0 -0.42858365426849604 1 I I #
coedge $-1 $253 $253 $-1 $372 reversed $158 $-1 #
edge $-1 $373 0 $373 6.2831853071796004 $159 $374 forward 7 unknown #
vertex $-1 $162 $375 #
ellipse-curve $-1 51.251255251895188 12.899384407098875 10.983080088328965 0.85716730853699208 0 0.51503806187062418 0.25751903093531209 0 -0.42858365426849604 1 I I #
coedge $-1 $257 $257 $-1 $376 reversed $165 $-1 #
edge $-1 $377 0 $377 6.2831853071796004 $166 $378 forward 7 unknown #
vertex $-1 $169 $379 #
ellipse-curve $-1 51.251255251895188 14.858265291180413 10.983080088328965 0.85716730853699208 0 0.51503806187062418 0.25751903093531209 0 -0.42858365426849604 1 I I #
face $-1 $-1 $273 $36 $-1 $380 forward single #
loop $-1 $-1 $381 $170 #
plane-surface $-1 -52.251350444044313 0 0 1 0 0 0 0 -1 forward_v I I I I #
coedge $-1 $382 $383 $384 $385 reversed $171 $-1 #
coedge $-1 $386 $173 $175 $271 forward $108 $-1 #
coedge $-1 $173 $386 $382 $387 forward $108 $-1 #
coedge $-1 $384 $176 $173 $268 forward $273 $-1 #
edge $-1 $275 -6.4207997149636835 $388 3.546550215587553 $267 $389 forward 7 unknown #
coedge $-1 $390 $391 $174 $270 forward $262 $-1 #
edge $-1 $392 -27.746197847577957 $274 -16.522532978145478 $269 $393 forward 7 unknown #
edge $-1 $275 -13.382685873678497 $392 -1.2994784570086186e-014 $175 $394 forward 7 unknown #
coedge $-1 $176 $384 $390 $395 forward $273 $-1 #
loop $-1 $-1 $384 $261 #
vertex $-1 $270 $396 #
vertex $-1 $177 $397 #
straight-curve $-1 -69.94734539308088 -7.8579244646517488 12.64751805437308 1 0 0 I I #
coedge $-1 $277 $277 $-1 $398 reversed $180 $-1 #
edge $-1 $399 0 $399 6.2831853071796004 $181 $400 forward 7 unknown #
vertex $-1 $184 $401 #
ellipse-curve $-1 -48.606983966444233 -2.8742494993761305 7.0356856196568369 -0.83867057594974714 0 0.54463902268945019 0.81695853403417529 0 1.2580058639246208 1 I I #
face $-1 $-1 $402 $38 $-1 $403 reversed single #
loop $-1 $-1 $191 $185 #
plane-surface $-1 0 0 12.647518054373078 0 0 1 1 0 0 forward_v I I I I #
coedge $-1 $404 $405 $406 $407 reversed $186 $-1 #
coedge $-1 $408 $188 $190 $291 forward $117 $-1 #
coedge $-1 $188 $408 $404 $409 forward $117 $-1 #
coedge $-1 $406 $191 $188 $288 forward $282 $-1 #
edge $-1 $294 1.4195276428763339 $410 11.38687757342757 $287 $411 forward 7 unknown #
coedge $-1 $412 $413 $189 $290 forward $402 $-1 #
edge $-1 $414 -27.746197847577957 $293 -16.522532978145478 $289 $415 forward 7 unknown #
edge $-1 $294 -13.382685873678497 $414 -1.2994784570086186e-014 $190 $416 forward 7 unknown #
coedge $-1 $191 $406 $412 $417 forward $282 $-1 #
vertex $-1 $290 $418 #
vertex $-1 $192 $419 #
straight-curve $-1 -69.94734539308088 7.8227302510282861 12.64751805437308 1 0 0 I I #
coedge $-1 $296 $296 $-1 $420 reversed $195 $-1 #
edge $-1 $421 0 $421 6.2831853071796004 $196 $422 forward 7 unknown #
vertex $-1 $199 $423 #
ellipse-curve $-1 -48.606983966444233 12.806405216303904 7.0356856196568369 -0.83867057594974714 0 0.54463902268945019 0.81695853403417529 0 1.2580058639246208 1 I I #
face $-1 $-1 $215 $30 $-1 $424 reversed single #
loop $-1 $-1 $316 $200 #
plane-surface $-1 0 25.694007978600336 0 0 -1 0 0 0 -1 forward_v I I I I #
coedge $-1 $425 $314 $317 $426 forward $201 $-1 #
coedge $-1 $320 $203 $204 $308 reversed $126 $-1 #
coedge $-1 $314 $425 $203 $306 reversed $201 $-1 #
edge $-1 $321 -12.647518054373078 $427 12.647518054373078 $305 $428 forward 7 unknown #
coedge $-1 $205 $204 $425 $429 forward $81 $-1 #
edge $-1 $312 -52.251350444044313 $427 52.251350444044313 $304 $430 forward 7 unknown #
coedge $-1 $317 $316 $205 $310 reversed $301 $-1 #
edge $-1 $431 -52.251350444044313 $311 52.251350444044313 $309 $432 forward 7 unknown #
vertex $-1 $207 $433 #
vertex $-1 $323 $434 #
straight-curve $-1 52.251350444044313 0 -12.647518054373078 0 -1 0 I I #
coedge $-1 $303 $305 $208 $315 reversed $201 $-1 #
edge $-1 $318 -25.694007978600336 $321 25.694007978600336 $314 $435 forward 7 unknown #
coedge $-1 $309 $209 $214 $324 forward $301 $-1 #
coedge $-1 $209 $309 $303 $426 reversed $301 $-1 #
vertex $-1 $210 $436 #
straight-curve $-1 0 25.694007978600336 12.647518054373078 -1 0 0 I I #
coedge $-1 $211 $304 $213 $323 reversed $126 $-1 #
vertex $-1 $315 $437 #
straight-curve $-1 0 -25.694007978600336 12.647518054373078 1 0 0 I I #
edge $-1 $216 -12.647518054373078 $312 12.647518054373078 $213 $438 forward 7 unknown #
edge $-1 $217 -12.647518054373078 $311 12.647518054373078 $214 $439 forward 7 unknown #
point $-1 52.251350444044313 -25.694007978600336 12.647518054373078 #
point $-1 52.251350444044313 25.694007978600336 12.647518054373078 #
face $-1 $-1 $344 $31 $-1 $440 forward single #
loop $-1 $-1 $441 $219 #
plane-surface $-1 -26.956314335298156 -30.660085837064223 0 -1 0 0 0 0 1 forward_v I I I I #
coedge $-1 $442 $222 $334 $443 reversed $134 $-1 #
coedge $-1 $222 $442 $444 $445 reversed $134 $-1 #
coedge $-1 $230 $229 $222 $333 reversed $220 $-1 #
edge $-1 $446 -12.647518054373078 $447 12.647518054373078 $332 $448 forward 7 unknown #
coedge $-1 $224 $223 $330 $443 forward $85 $-1 #
coedge $-1 $340 $441 $223 $336 reversed $328 $-1 #
edge $-1 $338 -4.9660778584638869 $449 4.9660778584638905 $335 $450 forward 7 unknown #
edge $-1 $447 -4.9660778584638905 $231 4.9660778584638869 $229 $451 forward 7 unknown #
vertex $-1 $336 $452 #
straight-curve $-1 0 -25.694007978600336 -12.647518054373078 1 0 0 I I #
coedge $-1 $453 $335 $226 $341 reversed $328 $-1 #
edge $-1 $345 -12.647518054373078 $338 12.647518054373078 $340 $454 forward 7 unknown #
coedge $-1 $444 $227 $230 $347 forward $344 $-1 #
coedge $-1 $227 $444 $453 $455 forward $344 $-1 #
loop $-1 $-1 $227 $327 #
vertex $-1 $228 $456 #
straight-curve $-1 0 -25.694007978600336 12.647518054373078 -1 0 0 I I #
edge $-1 $232 -4.9660778584638869 $446 4.9660778584638905 $230 $457 forward 7 unknown #
point $-1 -29.956314335298156 -25.694007978600336 -12.647518054373078 #
point $-1 -29.956314335298156 -25.694007978600336 12.647518054373078 #
loop $-1 $-1 $242 $234 #
plane-surface $-1 52.251350444044313 0 0 -1 0 0 0 0 1 forward_v I I I I #
coedge $-1 $353 $237 $239 $357 reversed $142 $-1 #
coedge $-1 $237 $352 $458 $459 reversed $142 $-1 #
coedge $-1 $245 $240 $237 $355 forward $235 $-1 #
edge $-1 $358 6.2487696730026485 $460 8.2489600573008843 $354 $461 forward 7 unknown #
coedge $-1 $239 $238 $361 $462 reversed $89 $-1 #
edge $-1 $463 -104.50270088808865 $358 -100.61912308602579 $352 $464 forward 7 unknown #
vertex $-1 $241 $465 #
straight-curve $-1 50.251160059746077 6.4496922035494375 12.647518054373073 0 -1 0 I I #
coedge $-1 $458 $242 $245 $365 reversed $350 $-1 #
coedge $-1 $242 $458 $356 $462 forward $350 $-1 #
vertex $-1 $243 $466 #
straight-curve $-1 52.251350444044313 16.164185880568109 76.358904751510423 0 0 1 I I #
straight-curve $-1 -1.5715180816024201 16.164185880568109 98.894940977374119 0.51503806187062418 0 -0.85716730853699208 I I #
edge $-1 $460 9.6345829336296411 $246 16.164185880568109 $360 $467 forward 7 unknown #
point $-1 52.251350444044313 16.164185880568109 12.647518054373078 #
point $-1 50.251160059746077 16.164185880568109 12.64751805437308 #
edge $-1 $468 1 $468 0 $249 $-1 forward 7 unknown #
vertex $-1 $250 $469 #
ellipse-curve $-1 50.29309931471942 10.940503523017338 10.40736193863061 0.85716730853699208 0 0.51503806187062418 0.25751903093531209 0 -0.42858365426849604 1 I I #
point $-1 51.508774282830515 10.940503523017338 10.554496434060479 #
edge $-1 $470 1 $470 0 $253 $-1 forward 7 unknown #
vertex $-1 $254 $471 #
ellipse-curve $-1 50.29309931471942 12.899384407098875 10.40736193863061 0.85716730853699208 0 0.51503806187062418 0.25751903093531209 0 -0.42858365426849604 1 I I #
point $-1 51.508774282830515 12.899384407098875 10.554496434060479 #
edge $-1 $472 1 $472 0 $257 $-1 forward 7 unknown #
vertex $-1 $258 $473 #
ellipse-curve $-1 50.29309931471942 14.858265291180413 10.40736193863061 0.85716730853699208 0 0.51503806187062418 0.25751903093531209 0 -0.42858365426849604 1 I I #
point $-1 51.508774282830515 14.858265291180413 10.554496434060479 #
plane-surface $-1 0 0 12.647518054373078 0 0 1 1 0 0 forward_v I I I I #
coedge $-1 $391 $390 $383 $474 forward $262 $-1 #
coedge $-1 $383 $264 $266 $387 reversed $171 $-1 #
coedge $-1 $264 $382 $381 $474 reversed $171 $-1 #
coedge $-1 $272 $267 $264 $385 forward $273 $-1 #
edge $-1 $388 -24.984727904236728 $475 -17.695994949036567 $384 $476 forward 7 unknown #
coedge $-1 $266 $265 $391 $477 reversed $108 $-1 #
edge $-1 $478 1.2994784570086186e-014 $388 13.382685873678497 $382 $479 forward 7 unknown #
vertex $-1 $268 $480 #
straight-curve $-1 -44.962617488844153 -1.4371247496880653 12.647518054373078 0 1 0 I I #
coedge $-1 $381 $269 $272 $395 reversed $262 $-1 #
coedge $-1 $269 $381 $386 $477 forward $262 $-1 #
vertex $-1 $270 $481 #
straight-curve $-1 -52.251350444044313 -7.8579244646517488 29.170051032518558 0 0 1 I I #
straight-curve $-1 -52.25135044404432 -7.8579244646517488 1.4238531849405902 -0.54463902268945019 0 -0.83867057594974714 I I #
edge $-1 $475 -2.1094254658994878 $274 7.8579244646517488 $390 $482 forward 7 unknown #
point $-1 -52.251350444044313 -7.8579244646517488 12.647518054373078 #
point $-1 -44.962617488844153 -7.8579244646517488 12.647518054373078 #
edge $-1 $483 1 $483 0 $277 $-1 forward 7 unknown #
vertex $-1 $278 $484 #
ellipse-curve $-1 -46.132704846831508 -2.8742494993761305 5.42887002338923 -0.83867057594974714 0 0.54463902268945019 0.81695853403417529 0 1.2580058639246208 1 I I #
point $-1 -47.790025432410054 -2.8742494993761305 8.2936914835814513 #
loop $-1 $-1 $289 $281 #
plane-surface $-1 -52.251350444044313 0 0 1 0 0 0 0 -1 forward_v I I I I #
coedge $-1 $405 $284 $286 $409 reversed $186 $-1 #
coedge $-1 $284 $404 $485 $486 reversed $186 $-1 #
coedge $-1 $292 $287 $284 $407 forward $282 $-1 #
edge $-1 $410 -24.984727904236728 $487 -17.695994949036567 $406 $488 forward 7 unknown #
coedge $-1 $286 $285 $413 $489 reversed $117 $-1 #
edge $-1 $490 1.2994784570086186e-014 $410 13.382685873678497 $404 $491 forward 7 unknown #
vertex $-1 $288 $492 #
straight-curve $-1 -44.962617488844153 6.4032026081519522 12.647518054373078 0 1 0 I I #
coedge $-1 $485 $289 $292 $417 reversed $402 $-1 #
coedge $-1 $289 $485 $408 $489 forward $402 $-1 #
vertex $-1 $290 $493 #
straight-curve $-1 -52.251350444044313 7.8227302510282861 29.170051032518558 0 0 1 I I #
straight-curve $-1 -52.25135044404432 7.8227302510282861 1.4238531849405902 -0.54463902268945019 0 -0.83867057594974714 I I #
edge $-1 $487 -17.790080181579523 $293 -7.8227302510282861 $412 $494 forward 7 unknown #
point $-1 -52.251350444044313 7.8227302510282861 12.647518054373078 #
point $-1 -44.962617488844153 7.8227302510282861 12.647518054373078 #
edge $-1 $495 1 $495 0 $296 $-1 forward 7 unknown #
vertex $-1 $297 $496 #
ellipse-curve $-1 -46.132704846831508 12.806405216303904 5.42887002338923 -0.83867057594974714 0 0.54463902268945019 0.81695853403417529 0 1.2580058639246208 1 I I #
point $-1 -47.790025432410054 12.806405216303904 8.2936914835814513 #
plane-surface $-1 52.251350444044313 0 0 -1 0 0 0 0 1 forward_v I I I I #
coedge $-1 $305 $303 $307 $429 reversed $201 $-1 #
edge $-1 $318 -12.647518054373078 $431 12.647518054373078 $317 $497 forward 7 unknown #
vertex $-1 $429 $498 #
straight-curve $-1 -52.251350444044313 -25.694007978600336 0 0 0 -1 I I #
edge $-1 $427 -25.694007978600336 $431 25.694007978600336 $425 $499 forward 7 unknown #
straight-curve $-1 0 -25.694007978600336 -12.647518054373078 -1 0 0 I I #
vertex $-1 $310 $500 #
straight-curve $-1 0 25.694007978600336 -12.647518054373078 1 0 0 I I #
point $-1 52.251350444044313 25.694007978600336 -12.647518054373078 #
point $-1 52.251350444044313 -25.694007978600336 -12.647518054373078 #
straight-curve $-1 -52.251350444044313 0 12.647518054373078 0 -1 0 I I #
point $-1 -52.251350444044313 25.694007978600336 12.647518054373078 #
point $-1 -52.251350444044313 -25.694007978600336 12.647518054373078 #
straight-curve $-1 52.251350444044313 -25.694007978600336 0 0 0 -1 I I #
straight-curve $-1 52.251350444044313 25.694007978600336 0 0 0 -1 I I #
plane-surface $-1 0 0 12.647518054373078 0 0 1 1 0 0 forward_v I I I I #
coedge $-1 $335 $453 $442 $501 forward $328 $-1 #
coedge $-1 $331 $330 $441 $501 reversed $134 $-1 #
edge $-1 $449 -1.5 $447 1.5 $330 $502 forward 7 unknown #
coedge $-1 $343 $342 $331 $445 forward $344 $-1 #
edge $-1 $446 -1.5 $503 1.5 $331 $504 forward 7 unknown #
vertex $-1 $347 $505 #
vertex $-1 $337 $506 #
straight-curve $-1 -29.956314335298156 -35.626163695528113 0 0 0 -1 I I #
vertex $-1 $501 $507 #
straight-curve $-1 -26.956314335298156 -30.660085837064223 -12.647518054373078 0 -1 0 I I #
straight-curve $-1 -29.956314335298156 -30.660085837064223 -12.647518054373078 0 1 0 I I #
point $-1 -26.956314335298156 -25.694007978600336 -12.647518054373078 #
coedge $-1 $441 $340 $343 $455 reversed $328 $-1 #
straight-curve $-1 -26.956314335298156 -25.694007978600336 0 0 0 -1 I I #
edge $-1 $503 -4.9660778584638905 $345 4.9660778584638869 $453 $508 forward 7 unknown #
point $-1 -26.956314335298156 -25.694007978600336 12.647518054373078 #
straight-curve $-1 -29.956314335298156 -30.660085837064223 12.647518054373078 0 -1 0 I I #
coedge $-1 $361 $360 $353 $459 forward $350 $-1 #
edge $-1 $460 63.711386697137343 $463 67.04026262922558 $458 $509 forward 7 unknown #
vertex $-1 $365 $510 #
straight-curve $-1 44.002390386743429 9.6345829336296411 12.64751805437308 1 0 0 I I #
edge $-1 $463 3.1848907300802036 $362 9.7144936770186714 $361 $511 forward 7 unknown #
vertex $-1 $462 $512 #
straight-curve $-1 -1.5715180816024201 9.6345829336296411 98.894940977374119 -0.51503806187062418 0 0.85716730853699208 I I #
point $-1 50.251160059746077 9.6345829336296411 12.64751805437308 #
point $-1 52.251350444044313 16.164185880568109 9.3186421222848423 #
straight-curve $-1 52.251350444044313 0 12.647518054373078 0 1 0 I I #
vertex $-1 $368 $513 #
point $-1 50.550618345654733 10.940503523017338 9.9787782843621127 #
vertex $-1 $372 $514 #
point $-1 50.550618345654733 12.899384407098875 9.9787782843621127 #
vertex $-1 $376 $515 #
point $-1 50.550618345654733 14.858265291180413 9.9787782843621127 #
edge $-1 $475 16.522532978145478 $478 27.746197847577957 $381 $516 forward 7 unknown #
vertex $-1 $395 $517 #
straight-curve $-1 -69.94734539308088 2.1094254658994878 12.64751805437308 -1 0 0 I I #
edge $-1 $478 -3.546550215587553 $392 6.4207997149636835 $391 $518 forward 7 unknown #
vertex $-1 $477 $519 #
straight-curve $-1 -52.25135044404432 2.1094254658994878 1.4238531849405902 0.54463902268945019 0 0.83867057594974714 I I #
point $-1 -44.962617488844153 2.1094254658994878 12.647518054373078 #
point $-1 -52.251350444044313 -7.8579244646517488 1.4238531849406011 #
straight-curve $-1 -52.251350444044313 0 12.647518054373078 0 -1 0 I I #
vertex $-1 $398 $520 #
point $-1 -45.31574631279733 -2.8742494993761305 6.6868758873138514 #
coedge $-1 $413 $412 $405 $486 forward $402 $-1 #
edge $-1 $487 16.522532978145478 $490 27.746197847577957 $485 $521 forward 7 unknown #
vertex $-1 $417 $522 #
straight-curve $-1 -69.94734539308088 17.790080181579523 12.64751805437308 -1 0 0 I I #
edge $-1 $490 -11.38687757342757 $414 -1.4195276428763339 $413 $523 forward 7 unknown #
vertex $-1 $489 $524 #
straight-curve $-1 -52.25135044404432 17.790080181579523 1.4238531849405902 0.54463902268945019 0 0.83867057594974714 I I #
point $-1 -44.962617488844153 17.790080181579523 12.647518054373078 #
point $-1 -52.251350444044313 7.8227302510282861 1.4238531849406011 #
straight-curve $-1 -52.251350444044313 0 12.647518054373078 0 -1 0 I I #
vertex $-1 $420 $525 #
point $-1 -45.31574631279733 12.806405216303904 6.6868758873138514 #
straight-curve $-1 -52.251350444044313 25.694007978600336 0 0 0 -1 I I #
point $-1 -52.251350444044313 -25.694007978600336 -12.647518054373078 #
straight-curve $-1 -52.251350444044313 0 -12.647518054373078 0 1 0 I I #
point $-1 -52.251350444044313 25.694007978600336 -12.647518054373078 #
edge $-1 $503 -12.647518054373078 $449 12.647518054373078 $441 $526 forward 7 unknown #
straight-curve $-1 -28.456314335298156 -35.626163695528113 -12.647518054373078 -1 0 0 I I #
vertex $-1 $455 $527 #
straight-curve $-1 -28.456314335298156 -35.626163695528113 12.647518054373078 1 0 0 I I #
point $-1 -29.956314335298156 -35.626163695528113 12.647518054373078 #
point $-1 -29.956314335298156 -35.626163695528113 -12.647518054373078 #
point $-1 -26.956314335298156 -35.626163695528113 -12.647518054373078 #
straight-curve $-1 -26.956314335298156 -30.660085837064223 12.647518054373078 0 1 0 I I #
straight-curve $-1 52.251350444044313 9.6345829336296411 76.358904751510423 0 0 -1 I I #
point $-1 52.251350444044313 9.6345829336296411 12.647518054373078 #
straight-curve $-1 52.251350444044313 6.4496922035494375 9.3186421222848423 0 1 0 I I #
point $-1 52.251350444044313 9.6345829336296411 9.3186421222848423 #
point $-1 49.864515660450927 10.940503523017338 10.149842907695296 #
point $-1 49.864515660450927 12.899384407098875 10.149842907695296 #
point $-1 49.864515660450927 14.858265291180413 10.149842907695296 #
straight-curve $-1 -52.251350444044313 2.1094254658994878 29.170051032518558 0 0 -1 I I #
point $-1 -52.251350444044313 2.1094254658994878 12.647518054373078 #
straight-curve $-1 -52.251350444044313 -1.4371247496880653 1.4238531849406013 0 -1 0 I I #
point $-1 -52.251350444044313 2.1094254658994878 1.4238531849406011 #
point $-1 -44.874698982906885 -2.8742494993761305 4.6119114893550552 #
straight-curve $-1 -52.251350444044313 17.790080181579523 29.170051032518558 0 0 -1 I I #
point $-1 -52.251350444044313 17.790080181579523 12.647518054373078 #
straight-curve $-1 -52.251350444044313 6.4032026081519522 1.4238531849406013 0 -1 0 I I #
point $-1 -52.251350444044313 17.790080181579523 1.4238531849406011 #
point $-1 -44.874698982906885 12.806405216303904 4.6119114893550552 #
straight-curve $-1 -26.956314335298156 -35.626163695528113 0 0 0 -1 I I #
point $-1 -26.956314335298156 -35.626163695528113 12.647518054373078 #
End-of-ACIS-data 