500 0 6 0           
7 Unknown 11 ACIS 5.0 NT 24 Fri Mar 26 02:39:44 1999 
-1 9.9999999999999995e-007 1e-010 
body $-1 $6 $-1 $7 #
body $-1 $8 $-1 $9 #
body $-1 $10 $-1 $11 #
body $-1 $12 $-1 $13 #
body $-1 $14 $-1 $15 #
body $-1 $16 $-1 $17 #
lump $-1 $-1 $18 $0 #
transform $-1 1 0 0 0 1 0 0 0 1 52.196417126987519 32.411893041255382 8.5824698621311786 1 rotate no_reflect no_shear #
lump $-1 $-1 $19 $1 #
transform $-1 1 0 0 0 1 0 0 0 1 52.196417126987519 32.411893041255382 8.5824698621311786 1 rotate no_reflect no_shear #
lump $-1 $-1 $20 $2 #
transform $-1 1 0 0 0 1 0 0 0 1 52.196417126987519 32.411893041255382 8.5824698621311786 1 rotate no_reflect no_shear #
lump $-1 $-1 $21 $3 #
transform $-1 1 0 0 0 1 0 0 0 1 52.196417126987519 32.411893041255382 8.5824698621311786 1 rotate no_reflect no_shear #
lump $-1 $-1 $22 $4 #
transform $-1 1 0 0 0 1 0 0 0 1 52.196417126987519 32.411893041255382 8.5824698621311786 1 rotate no_reflect no_shear #
lump $-1 $-1 $23 $5 #
transform $-1 1 0 0 0 1 0 0 0 1 52.196417126987519 32.411893041255382 8.5824698621311786 1 rotate no_reflect no_shear #
shell $-1 $-1 $-1 $24 $-1 $6 #
shell $-1 $-1 $-1 $25 $-1 $8 #
shell $-1 $-1 $-1 $26 $-1 $10 #
shell $-1 $-1 $-1 $27 $-1 $12 #
shell $-1 $-1 $-1 $28 $-1 $14 #
shell $-1 $-1 $-1 $29 $-1 $16 #
face $-1 $30 $31 $18 $-1 $32 forward single #
face $-1 $33 $34 $19 $-1 $35 reversed single #
face $-1 $36 $37 $20 $-1 $38 forward single #
face $-1 $39 $40 $21 $-1 $41 reversed single #
face $-1 $42 $43 $22 $-1 $44 forward single #
face $-1 $45 $46 $23 $-1 $47 forward single #
face $-1 $48 $49 $18 $-1 $50 reversed single #
loop $-1 $-1 $51 $24 #
plane-surface $-1 0 0 8.5824698621311786 0 0 1 1 0 0 forward_v I I I I #
face $-1 $52 $53 $19 $-1 $54 reversed single #
loop $-1 $-1 $55 $25 #
plane-surface $-1 -48.896848124924205 -29.411893041255382 0 0 -1 0 0 0 -1 forward_v I I I I #
face $-1 $56 $57 $20 $-1 $58 reversed single #
loop $-1 $-1 $59 $26 #
plane-surface $-1 46.933823249200934 0 -5.1540393981466881 0 0 1 1 0 0 forward_v I I I I #
face $-1 $60 $61 $21 $-1 $62 reversed single #
loop $-1 $-1 $63 $27 #
plane-surface $-1 -18.710418631561062 -100.89975534835173 82.364524347186546 -1 0 0 0 -0.6560590369687036 0.75470957328743171 forward_v I I I I #
face $-1 $64 $65 $22 $-1 $66 forward single #
loop $-1 $67 $68 $28 #
cone-surface $-1 -31.959408848381557 -29.047453830303954 5.5211756713499689 0 0.6560590369687036 -0.75470957328743171 1 0 0 1 I I 0 1 1 forward I I I I #
face $-1 $69 $70 $23 $-1 $71 forward single #
loop $-1 $72 $73 $29 #
cone-surface $-1 -24.010014718289259 -29.047453830303954 5.5211756713499689 0 0.6560590369687036 -0.75470957328743171 1 0 0 1 I I 0 1 1 forward I I I I #
face $-1 $74 $75 $18 $-1 $76 reversed single #
loop $-1 $-1 $77 $30 #
plane-surface $-1 0 0 -8.5824698621311786 0 0 1 1 0 0 forward_v I I I I #
coedge $-1 $78 $79 $80 $81 forward $31 $-1 #
face $-1 $82 $83 $19 $-1 $84 forward single #
loop $-1 $-1 $85 $33 #
plane-surface $-1 -45.59727912286089 -30.911893041255382 0 -1 0 0 0 0 1 forward_v I I I I #
coedge $-1 $86 $87 $88 $89 forward $34 $-1 #
face $-1 $90 $91 $20 $-1 $92 reversed single #
loop $-1 $-1 $93 $36 #
plane-surface $-1 41.671229371414356 0 -6.8682546301389333 1 0 0 0 0 -1 forward_v I I I I #
coedge $-1 $94 $95 $96 $97 reversed $37 $-1 #
face $-1 $98 $99 $21 $-1 $100 reversed single #
loop $-1 $-1 $101 $39 #
plane-surface $-1 -27.984711783335406 -32.411893041255368 3.5782529531034584 0 -0.6560590369687036 0.75470957328743171 1 0 0 forward_v I I I I #
coedge $-1 $102 $103 $104 $105 reversed $40 $-1 #
face $-1 $-1 $106 $22 $-1 $107 forward single #
loop $-1 $108 $109 $42 #
cone-surface $-1 -31.959408848381557 -28.233331556928214 4.5846351484389025 0 0.6560590369687036 -0.75470957328743171 0.5 0 0 1 I I -0.70710678118654746 0.70710678118654746 0.5 forward I I I I #
loop $-1 $-1 $110 $28 #
coedge $-1 $68 $68 $111 $112 reversed $43 $-1 #
face $-1 $-1 $113 $23 $-1 $114 forward single #
loop $-1 $115 $116 $45 #
cone-surface $-1 -24.010014718289259 -28.233331556928214 4.5846351484389025 0 0.6560590369687036 -0.75470957328743171 0.5 0 0 1 I I -0.70710678118654746 0.70710678118654746 0.5 forward I I I I #
loop $-1 $-1 $117 $29 #
coedge $-1 $73 $73 $118 $119 reversed $46 $-1 #
face $-1 $120 $121 $18 $-1 $122 reversed single #
loop $-1 $-1 $123 $48 #
plane-surface $-1 0 -32.411893041255382 0 0 1 0 0 0 1 forward_v I I I I #
coedge $-1 $124 $125 $126 $127 forward $49 $-1 #
coedge $-1 $128 $51 $129 $130 forward $31 $-1 #
coedge $-1 $51 $128 $131 $132 forward $31 $-1 #
coedge $-1 $133 $134 $51 $81 reversed $135 $-1 #
edge $-1 $136 -32.411893041255382 $137 32.411893041255382 $80 $138 forward 7 unknown #
face $-1 $139 $140 $19 $-1 $141 reversed single #
loop $-1 $-1 $142 $52 #
plane-surface $-1 0 0 8.5824698621311786 0 0 1 1 0 0 forward_v I I I I #
coedge $-1 $143 $144 $145 $146 reversed $53 $-1 #
coedge $-1 $147 $55 $148 $149 reversed $34 $-1 #
coedge $-1 $55 $147 $150 $151 reversed $34 $-1 #
coedge $-1 $144 $143 $55 $89 reversed $53 $-1 #
edge $-1 $152 -8.5824698621311786 $153 8.5824698621311786 $88 $154 forward 7 unknown #
face $-1 $155 $156 $20 $-1 $157 reversed single #
loop $-1 $-1 $96 $56 #
plane-surface $-1 52.196417126987519 0 0 -1 0 0 0 0 1 forward_v I I I I #
coedge $-1 $158 $159 $160 $161 reversed $57 $-1 #
coedge $-1 $162 $59 $163 $164 reversed $37 $-1 #
coedge $-1 $59 $162 $165 $166 reversed $37 $-1 #
coedge $-1 $167 $168 $59 $97 forward $91 $-1 #
edge $-1 $169 -32.411893041255382 $170 32.411893041255382 $96 $171 forward 7 unknown #
face $-1 $172 $173 $21 $-1 $174 reversed single #
loop $-1 $-1 $175 $60 #
plane-surface $-1 -37.259004935109751 -100.89975534835173 82.364524347186546 1 0 0 0 0.6560590369687036 -0.75470957328743171 forward_v I I I I #
coedge $-1 $176 $177 $178 $179 reversed $61 $-1 #
coedge $-1 $103 $63 $180 $181 reversed $40 $-1 #
coedge $-1 $63 $102 $176 $182 reversed $40 $-1 #
coedge $-1 $178 $183 $63 $105 forward $184 $-1 #
edge $-1 $185 18.037984632920484 $186 23.794677545040578 $104 $187 forward 7 unknown #
loop $-1 $-1 $111 $64 #
plane-surface $-1 -27.984711783335406 -32.411893041255368 3.5782529531034584 0 -0.6560590369687036 0.75470957328743171 1 0 0 forward_v I I I I #
loop $-1 $-1 $188 $42 #
coedge $-1 $109 $109 $110 $189 reversed $65 $-1 #
coedge $-1 $110 $110 $109 $189 forward $67 $-1 #
coedge $-1 $111 $111 $68 $112 forward $106 $-1 #
edge $-1 $190 4.6444073776859686e-016 $190 6.2831853071796013 $111 $191 forward 7 unknown #
loop $-1 $-1 $118 $69 #
plane-surface $-1 -27.984711783335406 -32.411893041255368 3.5782529531034584 0 -0.6560590369687036 0.75470957328743171 1 0 0 forward_v I I I I #
loop $-1 $-1 $192 $45 #
coedge $-1 $116 $116 $117 $193 reversed $70 $-1 #
coedge $-1 $117 $117 $116 $193 forward $72 $-1 #
coedge $-1 $118 $118 $73 $119 forward $113 $-1 #
edge $-1 $194 4.6444073776859686e-016 $194 6.2831853071796013 $118 $195 forward 7 unknown #
face $-1 $196 $197 $18 $-1 $198 reversed single #
loop $-1 $-1 $199 $74 #
plane-surface $-1 -52.196417126987519 0 0 1 0 0 0 0 -1 forward_v I I I I #
coedge $-1 $200 $131 $201 $202 forward $75 $-1 #
coedge $-1 $203 $77 $200 $204 forward $49 $-1 #
coedge $-1 $77 $203 $205 $206 forward $49 $-1 #
coedge $-1 $134 $133 $77 $127 reversed $135 $-1 #
edge $-1 $207 -32.411893041255382 $208 32.411893041255382 $126 $209 forward 7 unknown #
coedge $-1 $79 $78 $210 $211 forward $31 $-1 #
coedge $-1 $212 $213 $78 $130 reversed $197 $-1 #
edge $-1 $137 -52.196417126987519 $214 52.196417126987519 $129 $215 forward 7 unknown #
coedge $-1 $123 $216 $79 $132 reversed $75 $-1 #
edge $-1 $217 -52.196417126987519 $136 52.196417126987519 $131 $218 forward 7 unknown #
coedge $-1 $126 $80 $216 $219 forward $135 $-1 #
coedge $-1 $80 $126 $212 $220 reversed $135 $-1 #
loop $-1 $-1 $133 $196 #
vertex $-1 $81 $221 #
vertex $-1 $81 $222 #
straight-curve $-1 52.196417126987519 0 8.5824698621311786 0 1 0 I I #
face $-1 $223 $224 $19 $-1 $225 reversed single #
loop $-1 $-1 $226 $82 #
plane-surface $-1 -52.196417126987519 0 0 1 0 0 0 0 -1 forward_v I I I I #
coedge $-1 $150 $227 $144 $228 forward $83 $-1 #
coedge $-1 $88 $85 $229 $230 reversed $53 $-1 #
coedge $-1 $85 $88 $142 $228 reversed $53 $-1 #
coedge $-1 $231 $232 $85 $146 forward $233 $-1 #
edge $-1 $234 -8.5824698621311786 $235 8.5824698621311786 $145 $236 forward 7 unknown #
coedge $-1 $87 $86 $226 $237 reversed $34 $-1 #
coedge $-1 $229 $238 $86 $149 forward $224 $-1 #
edge $-1 $239 -27.747993064525417 $153 -21.148855060398787 $148 $240 forward 7 unknown #
coedge $-1 $241 $142 $87 $151 forward $83 $-1 #
edge $-1 $152 21.148855060398787 $242 27.747993064525417 $150 $243 forward 7 unknown #
vertex $-1 $151 $244 #
vertex $-1 $149 $245 #
straight-curve $-1 -45.59727912286089 -29.411893041255382 0 0 0 -1 I I #
face $-1 $246 $247 $20 $-1 $248 reversed single #
loop $-1 $-1 $165 $90 #
plane-surface $-1 0 -32.411893041255382 0 0 1 0 0 0 1 forward_v I I I I #
coedge $-1 $249 $93 $250 $251 reversed $57 $-1 #
coedge $-1 $93 $249 $162 $252 reversed $57 $-1 #
coedge $-1 $163 $253 $93 $161 forward $254 $-1 #
edge $-1 $255 -5.1483425470617119 $256 -1.7199120830772214 $160 $257 forward 7 unknown #
coedge $-1 $95 $94 $159 $252 forward $37 $-1 #
coedge $-1 $258 $160 $94 $164 forward $254 $-1 #
edge $-1 $256 18.204317746813889 $169 28.729505502387045 $163 $259 forward 7 unknown #
coedge $-1 $260 $261 $95 $166 forward $156 $-1 #
edge $-1 $170 -28.729505502387045 $262 -18.204317746813889 $165 $263 forward 7 unknown #
coedge $-1 $264 $96 $261 $265 forward $91 $-1 #
coedge $-1 $96 $264 $258 $266 reversed $91 $-1 #
vertex $-1 $266 $267 #
vertex $-1 $265 $268 #
straight-curve $-1 52.196417126987519 0 -5.1540393981466881 0 -1 0 I I #
face $-1 $-1 $184 $21 $-1 $269 forward single #
loop $-1 $-1 $270 $98 #
plane-surface $-1 0 -32.411893041255382 0 0 1 0 0 0 1 forward_v I I I I #
coedge $-1 $271 $272 $273 $274 reversed $99 $-1 #
coedge $-1 $275 $101 $103 $182 forward $61 $-1 #
coedge $-1 $101 $275 $271 $276 forward $61 $-1 #
coedge $-1 $273 $104 $101 $179 forward $184 $-1 #
edge $-1 $186 4.7180627398933588 $277 23.266649043442047 $178 $278 forward 7 unknown #
coedge $-1 $279 $280 $102 $181 forward $173 $-1 #
edge $-1 $281 -37.604009220489829 $185 -32.599792311462096 $180 $282 forward 7 unknown #
edge $-1 $186 -7.6276929773721571 $281 1.888283279974768e-014 $103 $283 forward 7 unknown #
coedge $-1 $104 $273 $279 $284 forward $184 $-1 #
loop $-1 $-1 $273 $172 #
vertex $-1 $181 $285 #
vertex $-1 $105 $286 #
straight-curve $-1 -18.710418631561062 -50.449877674175866 8.5824698621311768 0 1 0 I I #
coedge $-1 $188 $188 $-1 $287 reversed $108 $-1 #
edge $-1 $288 0 $288 6.2831853071796004 $109 $289 forward 7 unknown #
vertex $-1 $112 $290 #
ellipse-curve $-1 -31.959408848381557 -29.533546585195339 6.0803614076173105 0 -0.6560590369687036 0.75470957328743171 1 0 0 1 I I #
coedge $-1 $192 $192 $-1 $291 reversed $115 $-1 #
edge $-1 $292 0 $292 6.2831853071796004 $116 $293 forward 7 unknown #
vertex $-1 $119 $294 #
ellipse-curve $-1 -24.010014718289259 -29.533546585195339 6.0803614076173105 0 -0.6560590369687036 0.75470957328743171 1 0 0 1 I I #
face $-1 $-1 $135 $18 $-1 $295 reversed single #
loop $-1 $-1 $212 $120 #
plane-surface $-1 0 32.411893041255382 0 0 -1 0 0 0 -1 forward_v I I I I #
coedge $-1 $296 $210 $213 $297 forward $121 $-1 #
coedge $-1 $216 $123 $124 $204 reversed $75 $-1 #
coedge $-1 $210 $296 $123 $202 reversed $121 $-1 #
edge $-1 $217 -8.5824698621311786 $298 8.5824698621311786 $201 $299 forward 7 unknown #
coedge $-1 $125 $124 $296 $300 forward $49 $-1 #
edge $-1 $208 -52.196417126987519 $298 52.196417126987519 $200 $301 forward 7 unknown #
coedge $-1 $213 $212 $125 $206 reversed $197 $-1 #
edge $-1 $302 -52.196417126987519 $207 52.196417126987519 $205 $303 forward 7 unknown #
vertex $-1 $127 $304 #
vertex $-1 $219 $305 #
straight-curve $-1 52.196417126987519 0 -8.5824698621311786 0 -1 0 I I #
coedge $-1 $199 $201 $128 $211 reversed $121 $-1 #
edge $-1 $214 -32.411893041255382 $217 32.411893041255382 $210 $306 forward 7 unknown #
coedge $-1 $205 $129 $134 $220 forward $197 $-1 #
coedge $-1 $129 $205 $199 $297 reversed $197 $-1 #
vertex $-1 $130 $307 #
straight-curve $-1 0 32.411893041255382 8.5824698621311786 -1 0 0 I I #
coedge $-1 $131 $200 $133 $219 reversed $75 $-1 #
vertex $-1 $211 $308 #
straight-curve $-1 0 -32.411893041255382 8.5824698621311786 1 0 0 I I #
edge $-1 $136 -8.5824698621311786 $208 8.5824698621311786 $133 $309 forward 7 unknown #
edge $-1 $137 -8.5824698621311786 $207 8.5824698621311786 $134 $310 forward 7 unknown #
point $-1 52.196417126987519 -32.411893041255382 8.5824698621311786 #
point $-1 52.196417126987519 32.411893041255382 8.5824698621311786 #
face $-1 $-1 $233 $19 $-1 $311 reversed single #
loop $-1 $-1 $229 $139 #
plane-surface $-1 0 0 -8.5824698621311786 0 0 1 1 0 0 forward_v I I I I #
coedge $-1 $312 $313 $147 $237 forward $140 $-1 #
coedge $-1 $142 $241 $231 $314 forward $83 $-1 #
edge $-1 $235 -16.955946520627691 $152 -13.955946520627691 $142 $315 forward 7 unknown #
coedge $-1 $316 $148 $143 $230 forward $224 $-1 #
edge $-1 $153 13.955946520627691 $234 16.955946520627691 $229 $317 forward 7 unknown #
coedge $-1 $318 $145 $227 $314 reversed $233 $-1 #
coedge $-1 $145 $318 $316 $319 reversed $233 $-1 #
loop $-1 $-1 $145 $223 #
vertex $-1 $319 $320 #
vertex $-1 $146 $321 #
straight-curve $-1 -45.59727912286089 -32.411893041255382 0 0 0 1 I I #
edge $-1 $242 -8.5824698621311786 $239 8.5824698621311786 $226 $322 forward 7 unknown #
coedge $-1 $148 $316 $312 $323 forward $224 $-1 #
vertex $-1 $149 $324 #
straight-curve $-1 -24.448424062462102 -29.411893041255382 -8.5824698621311786 1 0 0 I I #
coedge $-1 $227 $150 $313 $325 forward $83 $-1 #
vertex $-1 $325 $326 #
straight-curve $-1 -24.448424062462102 -29.411893041255382 8.5824698621311786 -1 0 0 I I #
point $-1 -45.59727912286089 -29.411893041255382 8.5824698621311786 #
point $-1 -45.59727912286089 -29.411893041255382 -8.5824698621311786 #
face $-1 $-1 $254 $20 $-1 $327 reversed single #
loop $-1 $-1 $250 $155 #
plane-surface $-1 0 0 -8.5824698621311786 0 0 1 1 0 0 forward_v I I I I #
coedge $-1 $159 $158 $260 $328 reversed $57 $-1 #
coedge $-1 $329 $330 $158 $251 forward $247 $-1 #
edge $-1 $331 -32.411893041255382 $255 32.411893041255382 $250 $332 forward 7 unknown #
edge $-1 $256 -32.411893041255382 $262 32.411893041255382 $159 $333 forward 7 unknown #
coedge $-1 $160 $258 $329 $334 reversed $254 $-1 #
loop $-1 $-1 $163 $246 #
vertex $-1 $334 $335 #
vertex $-1 $164 $336 #
straight-curve $-1 41.671229371414356 32.411893041255382 -3.4341273150694667 0 0 1 I I #
coedge $-1 $253 $163 $168 $266 forward $254 $-1 #
straight-curve $-1 23.466911624600467 32.411893041255382 -5.1540393981466881 1 0 0 I I #
coedge $-1 $337 $165 $249 $328 forward $156 $-1 #
coedge $-1 $165 $337 $167 $265 reversed $156 $-1 #
vertex $-1 $166 $338 #
straight-curve $-1 23.466911624600467 -32.411893041255382 -5.1540393981466881 -1 0 0 I I #
coedge $-1 $168 $167 $339 $340 reversed $91 $-1 #
edge $-1 $170 5.1540393981466881 $341 8.5824698621311786 $167 $342 forward 7 unknown #
edge $-1 $169 5.1540393981466881 $343 8.5824698621311786 $168 $344 forward 7 unknown #
point $-1 52.196417126987512 32.411893041255382 -5.1540393981466881 #
point $-1 52.196417126987512 -32.411893041255382 -5.1540393981466881 #
plane-surface $-1 0 0 8.5824698621311786 0 0 1 1 0 0 forward_v I I I I #
coedge $-1 $280 $279 $272 $345 forward $173 $-1 #
coedge $-1 $272 $175 $177 $276 reversed $99 $-1 #
coedge $-1 $175 $271 $270 $345 reversed $99 $-1 #
coedge $-1 $183 $178 $175 $274 forward $184 $-1 #
edge $-1 $277 -23.794677545040578 $346 -18.037984632920484 $273 $347 forward 7 unknown #
coedge $-1 $177 $176 $280 $348 reversed $61 $-1 #
edge $-1 $349 -1.888283279974768e-014 $277 7.6276929773721571 $271 $350 forward 7 unknown #
vertex $-1 $179 $351 #
straight-curve $-1 -13.992355891667703 -26.655200129135292 8.5824698621311803 -1 0 0 I I #
coedge $-1 $270 $180 $183 $284 reversed $173 $-1 #
coedge $-1 $180 $270 $275 $348 forward $173 $-1 #
vertex $-1 $181 $352 #
straight-curve $-1 -18.710418631561062 -32.411893041255382 41.182262173593273 0 0 1 I I #
straight-curve $-1 -18.710418631561062 -32.411893041255368 3.5782529531034584 0 -0.75470957328743171 -0.6560590369687036 I I #
edge $-1 $346 -37.259004935109751 $185 -18.710418631561062 $279 $353 forward 7 unknown #
point $-1 -18.710418631561062 -32.411893041255382 8.5824698621311786 #
point $-1 -18.710418631561062 -26.655200129135288 8.5824698621311786 #
edge $-1 $354 1 $354 0 $188 $-1 forward 7 unknown #
vertex $-1 $189 $355 #
ellipse-curve $-1 -31.959408848381557 -28.561361075412567 4.9619899350826184 0 -0.6560590369687036 0.75470957328743171 1 0 0 1 I I #
point $-1 -30.959408848381557 -29.533546585195346 6.0803614076173194 #
edge $-1 $356 1 $356 0 $192 $-1 forward 7 unknown #
vertex $-1 $193 $357 #
ellipse-curve $-1 -24.010014718289259 -28.561361075412567 4.9619899350826184 0 -0.6560590369687036 0.75470957328743171 1 0 0 1 I I #
point $-1 -23.010014718289259 -29.533546585195346 6.0803614076173194 #
plane-surface $-1 52.196417126987519 0 0 -1 0 0 0 0 1 forward_v I I I I #
coedge $-1 $201 $199 $203 $300 reversed $121 $-1 #
edge $-1 $214 -8.5824698621311786 $302 8.5824698621311786 $213 $358 forward 7 unknown #
vertex $-1 $300 $359 #
straight-curve $-1 -52.196417126987519 -32.411893041255382 0 0 0 -1 I I #
edge $-1 $298 -32.411893041255382 $302 32.411893041255382 $296 $360 forward 7 unknown #
straight-curve $-1 0 -32.411893041255382 -8.5824698621311786 -1 0 0 I I #
vertex $-1 $206 $361 #
straight-curve $-1 0 32.411893041255382 -8.5824698621311786 1 0 0 I I #
point $-1 52.196417126987519 32.411893041255382 -8.5824698621311786 #
point $-1 52.196417126987519 -32.411893041255382 -8.5824698621311786 #
straight-curve $-1 -52.196417126987519 0 8.5824698621311786 0 -1 0 I I #
point $-1 -52.196417126987519 32.411893041255382 8.5824698621311786 #
point $-1 -52.196417126987519 -32.411893041255382 8.5824698621311786 #
straight-curve $-1 52.196417126987519 -32.411893041255382 0 0 0 -1 I I #
straight-curve $-1 52.196417126987519 32.411893041255382 0 0 0 -1 I I #
plane-surface $-1 0 -32.411893041255382 0 0 1 0 0 0 1 forward_v I I I I #
coedge $-1 $362 $226 $238 $323 reversed $140 $-1 #
coedge $-1 $226 $362 $241 $325 reversed $140 $-1 #
edge $-1 $363 -52.196417126987519 $235 -45.59727912286089 $231 $364 forward 7 unknown #
straight-curve $-1 -45.59727912286089 -15.455946520627691 8.5824698621311786 0 1 0 I I #
coedge $-1 $238 $229 $232 $319 forward $224 $-1 #
straight-curve $-1 -45.59727912286089 -15.455946520627691 -8.5824698621311786 0 -1 0 I I #
coedge $-1 $232 $231 $362 $365 forward $233 $-1 #
edge $-1 $234 45.59727912286089 $366 52.196417126987519 $232 $367 forward 7 unknown #
point $-1 -45.59727912286089 -32.411893041255382 -8.5824698621311786 #
point $-1 -45.59727912286089 -32.411893041255382 8.5824698621311786 #
straight-curve $-1 -52.196417126987519 -29.411893041255382 0 0 0 -1 I I #
edge $-1 $366 -32.411893041255382 $239 -29.411893041255382 $312 $368 forward 7 unknown #
point $-1 -52.196417126987519 -29.411893041255382 -8.5824698621311786 #
edge $-1 $242 29.411893041255382 $363 32.411893041255382 $313 $369 forward 7 unknown #
point $-1 -52.196417126987519 -29.411893041255382 8.5824698621311786 #
plane-surface $-1 0 32.411893041255382 0 0 -1 0 0 0 -1 forward_v I I I I #
edge $-1 $262 1.7199120830772214 $331 5.1483425470617119 $260 $370 forward 7 unknown #
coedge $-1 $339 $250 $253 $334 forward $247 $-1 #
coedge $-1 $250 $339 $337 $371 forward $247 $-1 #
vertex $-1 $251 $372 #
straight-curve $-1 41.671229371414356 0 -8.5824698621311786 0 1 0 I I #
straight-curve $-1 41.671229371414356 0 -5.1540393981466881 0 -1 0 I I #
edge $-1 $255 41.671229371414356 $343 52.196417126987519 $253 $373 forward 7 unknown #
point $-1 41.671229371414356 32.411893041255382 -8.5824698621311786 #
point $-1 41.671229371414356 32.411893041255382 -5.1540393981466881 #
coedge $-1 $261 $260 $330 $371 reversed $156 $-1 #
point $-1 41.671229371414356 -32.411893041255382 -5.1540393981466881 #
coedge $-1 $330 $329 $264 $340 forward $247 $-1 #
edge $-1 $343 -32.411893041255382 $341 32.411893041255382 $264 $374 forward 7 unknown #
vertex $-1 $265 $375 #
straight-curve $-1 52.196417126987519 -32.411893041255382 0 0 0 -1 I I #
vertex $-1 $340 $376 #
straight-curve $-1 52.196417126987519 32.411893041255382 0 0 0 -1 I I #
edge $-1 $346 32.599792311462096 $349 37.604009220489829 $270 $377 forward 7 unknown #
vertex $-1 $284 $378 #
straight-curve $-1 -37.259004935109751 -50.449877674175866 8.5824698621311768 0 -1 0 I I #
edge $-1 $349 -23.266649043442047 $281 -4.7180627398933588 $280 $379 forward 7 unknown #
vertex $-1 $348 $380 #
straight-curve $-1 -37.259004935109751 -32.411893041255368 3.5782529531034584 0 0.75470957328743171 0.6560590369687036 I I #
point $-1 -37.259004935109751 -26.655200129135288 8.5824698621311786 #
point $-1 -18.710418631561062 -32.411893041255382 3.5782529531034459 #
straight-curve $-1 0 -32.411893041255382 8.5824698621311786 1 0 0 I I #
vertex $-1 $287 $381 #
point $-1 -30.959408848381557 -28.561361075412567 4.9619899350826184 #
vertex $-1 $291 $382 #
point $-1 -23.010014718289259 -28.561361075412567 4.9619899350826184 #
straight-curve $-1 -52.196417126987519 32.411893041255382 0 0 0 -1 I I #
point $-1 -52.196417126987519 -32.411893041255382 -8.5824698621311786 #
straight-curve $-1 -52.196417126987519 0 -8.5824698621311786 0 1 0 I I #
point $-1 -52.196417126987519 32.411893041255382 -8.5824698621311786 #
coedge $-1 $313 $312 $318 $365 reversed $140 $-1 #
vertex $-1 $325 $383 #
straight-curve $-1 0 -32.411893041255382 8.5824698621311786 1 0 0 I I #
edge $-1 $363 -8.5824698621311786 $366 8.5824698621311786 $362 $384 forward 7 unknown #
vertex $-1 $323 $385 #
straight-curve $-1 0 -32.411893041255382 -8.5824698621311786 -1 0 0 I I #
straight-curve $-1 -52.196417126987519 0 -8.5824698621311786 0 1 0 I I #
straight-curve $-1 -52.196417126987519 0 8.5824698621311786 0 -1 0 I I #
straight-curve $-1 41.671229371414356 -32.411893041255382 -3.4341273150694667 0 0 -1 I I #
edge $-1 $341 -52.196417126987519 $331 -41.671229371414356 $337 $386 forward 7 unknown #
point $-1 41.671229371414356 -32.411893041255382 -8.5824698621311786 #
straight-curve $-1 0 32.411893041255382 -8.5824698621311786 1 0 0 I I #
straight-curve $-1 52.196417126987519 0 -8.5824698621311786 0 -1 0 I I #
point $-1 52.196417126987519 -32.411893041255382 -8.5824698621311786 #
point $-1 52.196417126987519 32.411893041255382 -8.5824698621311786 #
straight-curve $-1 -37.259004935109751 -32.411893041255382 41.182262173593273 0 0 -1 I I #
point $-1 -37.259004935109751 -32.411893041255382 8.5824698621311786 #
straight-curve $-1 -13.992355891667703 -32.411893041255382 3.5782529531034464 1 0 0 I I #
point $-1 -37.259004935109751 -32.411893041255382 3.5782529531034459 #
point $-1 -31.959408848381557 -27.90530203844386 4.2072803617951866 #
point $-1 -24.010014718289259 -27.90530203844386 4.2072803617951866 #
point $-1 -52.196417126987519 -32.411893041255382 8.5824698621311786 #
straight-curve $-1 -52.196417126987519 -32.411893041255382 0 0 0 -1 I I #
point $-1 -52.196417126987519 -32.411893041255382 -8.5824698621311786 #
straight-curve $-1 0 -32.411893041255382 -8.5824698621311786 -1 0 0 I I #
End-of-ACIS-data 