500 0 18 0           
7 Unknown 11 ACIS 5.0 NT 24 Thu Mar 25 16:38:53 1999 
-1 9.9999999999999995e-007 1e-010 
body $-1 $18 $-1 $19 #
body $-1 $20 $-1 $21 #
body $-1 $22 $-1 $23 #
body $-1 $24 $-1 $25 #
body $-1 $26 $-1 $27 #
body $-1 $28 $-1 $29 #
body $-1 $30 $-1 $31 #
body $-1 $32 $-1 $33 #
body $-1 $34 $-1 $35 #
body $-1 $36 $-1 $37 #
body $-1 $38 $-1 $39 #
body $-1 $40 $-1 $41 #
body $-1 $42 $-1 $43 #
body $-1 $44 $-1 $45 #
body $-1 $46 $-1 $47 #
body $-1 $48 $-1 $49 #
body $-1 $50 $-1 $51 #
body $-1 $52 $-1 $53 #
lump $-1 $-1 $54 $0 #
transform $-1 1 0 0 0 1 0 0 0 1 41.633350627155373 27.992192887105848 8.3229937937927243 1 rotate no_reflect no_shear #
lump $-1 $-1 $55 $1 #
transform $-1 1 0 0 0 1 0 0 0 1 41.633350627155373 27.992192887105848 8.3229937937927243 1 rotate no_reflect no_shear #
lump $-1 $-1 $56 $2 #
transform $-1 1 0 0 0 1 0 0 0 1 41.633350627155373 27.992192887105848 8.3229937937927243 1 rotate no_reflect no_shear #
lump $-1 $-1 $57 $3 #
transform $-1 1 0 0 0 1 0 0 0 1 41.633350627155373 27.992192887105848 8.3229937937927243 1 rotate no_reflect no_shear #
lump $-1 $-1 $58 $4 #
transform $-1 1 0 0 0 1 0 0 0 1 41.633350627155373 27.992192887105848 8.3229937937927243 1 rotate no_reflect no_shear #
lump $-1 $-1 $59 $5 #
transform $-1 1 0 0 0 1 0 0 0 1 41.633350627155373 27.992192887105848 8.3229937937927243 1 rotate no_reflect no_shear #
lump $-1 $-1 $60 $6 #
transform $-1 1 0 0 0 1 0 0 0 1 41.633350627155373 27.992192887105848 8.3229937937927243 1 rotate no_reflect no_shear #
lump $-1 $-1 $61 $7 #
transform $-1 1 0 0 0 1 0 0 0 1 41.633350627155373 27.992192887105848 8.3229937937927243 1 rotate no_reflect no_shear #
lump $-1 $-1 $62 $8 #
transform $-1 1 0 0 0 1 0 0 0 1 41.633350627155373 27.992192887105848 8.3229937937927243 1 rotate no_reflect no_shear #
lump $-1 $-1 $63 $9 #
transform $-1 1 0 0 0 1 0 0 0 1 41.633350627155373 27.992192887105848 8.3229937937927243 1 rotate no_reflect no_shear #
lump $-1 $-1 $64 $10 #
transform $-1 1 0 0 0 1 0 0 0 1 41.633350627155373 27.992192887105848 8.3229937937927243 1 rotate no_reflect no_shear #
lump $-1 $-1 $65 $11 #
transform $-1 1 0 0 0 1 0 0 0 1 41.633350627155373 27.992192887105848 8.3229937937927243 1 rotate no_reflect no_shear #
lump $-1 $-1 $66 $12 #
transform $-1 1 0 0 0 1 0 0 0 1 41.633350627155373 27.992192887105848 8.3229937937927243 1 rotate no_reflect no_shear #
lump $-1 $-1 $67 $13 #
transform $-1 1 0 0 0 1 0 0 0 1 41.633350627155373 27.992192887105848 8.3229937937927243 1 rotate no_reflect no_shear #
lump $-1 $-1 $68 $14 #
transform $-1 1 0 0 0 1 0 0 0 1 41.633350627155373 27.992192887105848 8.3229937937927243 1 rotate no_reflect no_shear #
lump $-1 $-1 $69 $15 #
transform $-1 1 0 0 0 1 0 0 0 1 41.633350627155373 27.992192887105848 8.3229937937927243 1 rotate no_reflect no_shear #
lump $-1 $-1 $70 $16 #
transform $-1 1 0 0 0 1 0 0 0 1 41.633350627155373 27.992192887105848 8.3229937937927243 1 rotate no_reflect no_shear #
lump $-1 $-1 $71 $17 #
transform $-1 1 0 0 0 1 0 0 0 1 41.633350627155373 27.992192887105848 8.3229937937927243 1 rotate no_reflect no_shear #
shell $-1 $-1 $-1 $72 $-1 $18 #
shell $-1 $-1 $-1 $73 $-1 $20 #
shell $-1 $-1 $-1 $74 $-1 $22 #
shell $-1 $-1 $-1 $75 $-1 $24 #
shell $-1 $-1 $-1 $76 $-1 $26 #
shell $-1 $-1 $-1 $77 $-1 $28 #
shell $-1 $-1 $-1 $78 $-1 $30 #
shell $-1 $-1 $-1 $79 $-1 $32 #
shell $-1 $-1 $-1 $80 $-1 $34 #
shell $-1 $-1 $-1 $81 $-1 $36 #
shell $-1 $-1 $-1 $82 $-1 $38 #
shell $-1 $-1 $-1 $83 $-1 $40 #
shell $-1 $-1 $-1 $84 $-1 $42 #
shell $-1 $-1 $-1 $85 $-1 $44 #
shell $-1 $-1 $-1 $86 $-1 $46 #
shell $-1 $-1 $-1 $87 $-1 $48 #
shell $-1 $-1 $-1 $88 $-1 $50 #
shell $-1 $-1 $-1 $89 $-1 $52 #
face $-1 $90 $91 $54 $-1 $92 reversed single #
face $-1 $93 $94 $55 $-1 $95 forward single #
face $-1 $96 $97 $56 $-1 $98 reversed single #
face $-1 $99 $100 $57 $-1 $101 forward single #
face $-1 $102 $103 $58 $-1 $104 forward single #
face $-1 $105 $106 $59 $-1 $107 forward single #
face $-1 $108 $109 $60 $-1 $110 reversed single #
face $-1 $111 $112 $61 $-1 $113 forward single #
face $-1 $114 $115 $62 $-1 $116 forward single #
face $-1 $117 $118 $63 $-1 $119 forward single #
face $-1 $120 $121 $64 $-1 $122 reversed single #
face $-1 $123 $124 $65 $-1 $125 forward single #
face $-1 $126 $127 $66 $-1 $128 forward single #
face $-1 $129 $130 $67 $-1 $131 forward single #
face $-1 $132 $133 $68 $-1 $134 reversed single #
face $-1 $135 $136 $69 $-1 $137 forward single #
face $-1 $138 $139 $70 $-1 $140 forward single #
face $-1 $141 $142 $71 $-1 $143 forward single #
face $-1 $144 $145 $54 $-1 $146 forward single #
loop $-1 $-1 $147 $72 #
plane-surface $-1 -41.633350627155373 0 0 1 0 0 0 0 -1 forward_v I I I I #
face $-1 $148 $149 $55 $-1 $150 reversed single #
loop $-1 $-1 $151 $73 #
plane-surface $-1 -41.633350627155373 0 0 1 0 0 0 0 -1 forward_v I I I I #
face $-1 $152 $153 $56 $-1 $154 reversed single #
loop $-1 $-1 $155 $74 #
plane-surface $-1 -17.762296446198437 -76.935132516709942 68.153357231883248 -1 0 0 0 -0.5877852598018023 0.80901698891910034 forward_v I I I I #
face $-1 $156 $157 $57 $-1 $158 forward single #
loop $-1 $159 $160 $75 #
cone-surface $-1 -28.085947142954129 -22.350754548194178 3.9274433021748094 0 0.5877852598018023 -0.80901698891910034 1 0 0 1 I I 0 1 1 forward I I I I #
face $-1 $161 $162 $58 $-1 $163 forward single #
loop $-1 $164 $165 $76 #
cone-surface $-1 -24.214578131670745 -22.350754548194178 3.9274433021748094 0 0.5877852598018023 -0.80901698891910034 1 0 0 1 I I 0 1 1 forward I I I I #
face $-1 $166 $167 $59 $-1 $168 forward single #
loop $-1 $169 $170 $77 #
cone-surface $-1 -20.34320912038736 -22.350754548194178 3.9274433021748094 0 0.5877852598018023 -0.80901698891910034 1 0 0 1 I I 0 1 1 forward I I I I #
face $-1 $171 $172 $60 $-1 $173 reversed single #
loop $-1 $-1 $174 $78 #
plane-surface $-1 37.660277768350852 -76.935132516709942 68.153357231883248 -1 0 0 0 -0.5877852598018023 0.80901698891910034 forward_v I I I I #
face $-1 $175 $176 $61 $-1 $177 forward single #
loop $-1 $178 $179 $79 #
cone-surface $-1 27.336627071595167 -22.350754548194178 3.9274433021748094 0 0.5877852598018023 -0.80901698891910034 1 0 0 1 I I 0 1 1 forward I I I I #
face $-1 $180 $181 $62 $-1 $182 forward single #
loop $-1 $183 $184 $80 #
cone-surface $-1 31.207996082878545 -22.350754548194178 3.9274433021748094 0 0.5877852598018023 -0.80901698891910034 1 0 0 1 I I 0 1 1 forward I I I I #
face $-1 $185 $186 $63 $-1 $187 forward single #
loop $-1 $188 $189 $81 #
cone-surface $-1 35.079365094161936 -22.350754548194178 3.9274433021748094 0 0.5877852598018023 -0.80901698891910034 1 0 0 1 I I 0 1 1 forward I I I I #
face $-1 $190 $191 $64 $-1 $192 reversed single #
loop $-1 $-1 $193 $82 #
plane-surface $-1 -30.666859817143052 31.642813311171874 101.06015396902259 1 0 0 0 -0.5877852598018023 -0.80901698891910034 forward_v I I I I #
face $-1 $194 $195 $65 $-1 $196 forward single #
loop $-1 $197 $198 $83 #
cone-surface $-1 -28.085947142954129 22.350754548194171 3.9274433021748059 0 -0.5877852598018023 -0.80901698891910034 1 0 0 1 I I 0 1 1 forward I I I I #
face $-1 $199 $200 $66 $-1 $201 forward single #
loop $-1 $202 $203 $84 #
cone-surface $-1 -24.214578131670745 22.350754548194171 3.9274433021748059 0 -0.5877852598018023 -0.80901698891910034 1 0 0 1 I I 0 1 1 forward I I I I #
face $-1 $204 $205 $67 $-1 $206 forward single #
loop $-1 $207 $208 $85 #
cone-surface $-1 -20.34320912038736 22.350754548194171 3.9274433021748059 0 -0.5877852598018023 -0.80901698891910034 1 0 0 1 I I 0 1 1 forward I I I I #
face $-1 $209 $210 $68 $-1 $211 reversed single #
loop $-1 $-1 $212 $86 #
plane-surface $-1 24.755714397406237 31.642813311171874 101.06015396902259 1 0 0 0 -0.5877852598018023 -0.80901698891910034 forward_v I I I I #
face $-1 $213 $214 $69 $-1 $215 forward single #
loop $-1 $216 $217 $87 #
cone-surface $-1 27.336627071595167 22.350754548194171 3.9274433021748059 0 -0.5877852598018023 -0.80901698891910034 1 0 0 1 I I 0 1 1 forward I I I I #
face $-1 $218 $219 $70 $-1 $220 forward single #
loop $-1 $221 $222 $88 #
cone-surface $-1 31.207996082878545 22.350754548194171 3.9274433021748059 0 -0.5877852598018023 -0.80901698891910034 1 0 0 1 I I 0 1 1 forward I I I I #
face $-1 $223 $224 $71 $-1 $225 forward single #
loop $-1 $226 $227 $89 #
cone-surface $-1 35.079365094161936 22.350754548194171 3.9274433021748059 0 -0.5877852598018023 -0.80901698891910034 1 0 0 1 I I 0 1 1 forward I I I I #
face $-1 $228 $229 $54 $-1 $230 reversed single #
loop $-1 $-1 $231 $90 #
plane-surface $-1 0 0 8.3229937937927243 0 0 1 1 0 0 forward_v I I I I #
coedge $-1 $232 $233 $234 $235 reversed $91 $-1 #
face $-1 $236 $237 $55 $-1 $238 reversed single #
loop $-1 $-1 $239 $93 #
plane-surface $-1 0 0 -8.3229937937927243 0 0 1 1 0 0 forward_v I I I I #
coedge $-1 $240 $241 $242 $243 forward $94 $-1 #
face $-1 $244 $245 $56 $-1 $246 reversed single #
loop $-1 $-1 $247 $96 #
plane-surface $-1 -24.214578131670745 -27.992192887105844 0.78918130589448765 0 -0.5877852598018023 0.80901698891910034 1 0 0 forward_v I I I I #
coedge $-1 $248 $249 $250 $251 reversed $97 $-1 #
face $-1 $-1 $252 $57 $-1 $253 forward single #
loop $-1 $254 $255 $99 #
cone-surface $-1 -28.085947142954129 -21.600125128460714 2.8942905600464552 0 0.5877852598018023 -0.80901698891910034 0.5 0 0 1 I I -0.70710678118654746 0.70710678118654746 0.5 forward I I I I #
loop $-1 $-1 $256 $75 #
coedge $-1 $160 $160 $257 $258 reversed $100 $-1 #
face $-1 $-1 $259 $58 $-1 $260 forward single #
loop $-1 $261 $262 $102 #
cone-surface $-1 -24.214578131670745 -21.600125128460714 2.8942905600464552 0 0.5877852598018023 -0.80901698891910034 0.5 0 0 1 I I -0.70710678118654746 0.70710678118654746 0.5 forward I I I I #
loop $-1 $-1 $263 $76 #
coedge $-1 $165 $165 $264 $265 reversed $103 $-1 #
face $-1 $-1 $266 $59 $-1 $267 forward single #
loop $-1 $268 $269 $105 #
cone-surface $-1 -20.34320912038736 -21.600125128460714 2.8942905600464552 0 0.5877852598018023 -0.80901698891910034 0.5 0 0 1 I I -0.70710678118654746 0.70710678118654746 0.5 forward I I I I #
loop $-1 $-1 $270 $77 #
coedge $-1 $170 $170 $271 $272 reversed $106 $-1 #
face $-1 $273 $274 $60 $-1 $275 reversed single #
loop $-1 $-1 $276 $108 #
plane-surface $-1 31.207996082878545 -27.992192887105844 0.78918130589448765 0 -0.5877852598018023 0.80901698891910034 1 0 0 forward_v I I I I #
coedge $-1 $277 $278 $279 $280 reversed $109 $-1 #
face $-1 $-1 $281 $61 $-1 $282 forward single #
loop $-1 $283 $284 $111 #
cone-surface $-1 27.336627071595167 -21.600125128460714 2.8942905600464552 0 0.5877852598018023 -0.80901698891910034 0.5 0 0 1 I I -0.70710678118654746 0.70710678118654746 0.5 forward I I I I #
loop $-1 $-1 $285 $79 #
coedge $-1 $179 $179 $286 $287 reversed $112 $-1 #
face $-1 $-1 $288 $62 $-1 $289 forward single #
loop $-1 $290 $291 $114 #
cone-surface $-1 31.207996082878545 -21.600125128460714 2.8942905600464552 0 0.5877852598018023 -0.80901698891910034 0.5 0 0 1 I I -0.70710678118654746 0.70710678118654746 0.5 forward I I I I #
loop $-1 $-1 $292 $80 #
coedge $-1 $184 $184 $293 $294 reversed $115 $-1 #
face $-1 $-1 $295 $63 $-1 $296 forward single #
loop $-1 $297 $298 $117 #
cone-surface $-1 35.079365094161936 -21.600125128460714 2.8942905600464552 0 0.5877852598018023 -0.80901698891910034 0.5 0 0 1 I I -0.70710678118654746 0.70710678118654746 0.5 forward I I I I #
loop $-1 $-1 $299 $81 #
coedge $-1 $189 $189 $300 $301 reversed $118 $-1 #
face $-1 $302 $303 $64 $-1 $304 reversed single #
loop $-1 $-1 $305 $120 #
plane-surface $-1 -24.214578131670745 -17.300126318432223 33.695978043033833 0 0.5877852598018023 0.80901698891910034 1 0 0 forward_v I I I I #
coedge $-1 $306 $307 $308 $309 reversed $121 $-1 #
face $-1 $-1 $310 $65 $-1 $311 forward single #
loop $-1 $312 $313 $123 #
cone-surface $-1 -28.085947142954129 21.600125128460707 2.8942905600464517 0 -0.5877852598018023 -0.80901698891910034 0.5 0 0 1 I I -0.70710678118654746 0.70710678118654746 0.5 forward I I I I #
loop $-1 $-1 $314 $83 #
coedge $-1 $198 $198 $315 $316 reversed $124 $-1 #
face $-1 $-1 $317 $66 $-1 $318 forward single #
loop $-1 $319 $320 $126 #
cone-surface $-1 -24.214578131670745 21.600125128460707 2.8942905600464517 0 -0.5877852598018023 -0.80901698891910034 0.5 0 0 1 I I -0.70710678118654746 0.70710678118654746 0.5 forward I I I I #
loop $-1 $-1 $321 $84 #
coedge $-1 $203 $203 $322 $323 reversed $127 $-1 #
face $-1 $-1 $324 $67 $-1 $325 forward single #
loop $-1 $326 $327 $129 #
cone-surface $-1 -20.34320912038736 21.600125128460707 2.8942905600464517 0 -0.5877852598018023 -0.80901698891910034 0.5 0 0 1 I I -0.70710678118654746 0.70710678118654746 0.5 forward I I I I #
loop $-1 $-1 $328 $85 #
coedge $-1 $208 $208 $329 $330 reversed $130 $-1 #
face $-1 $331 $332 $68 $-1 $333 reversed single #
loop $-1 $-1 $334 $132 #
plane-surface $-1 31.207996082878545 -17.300126318432223 33.695978043033833 0 0.5877852598018023 0.80901698891910034 1 0 0 forward_v I I I I #
coedge $-1 $335 $336 $337 $338 reversed $133 $-1 #
face $-1 $-1 $339 $69 $-1 $340 forward single #
loop $-1 $341 $342 $135 #
cone-surface $-1 27.336627071595167 21.600125128460707 2.8942905600464517 0 -0.5877852598018023 -0.80901698891910034 0.5 0 0 1 I I -0.70710678118654746 0.70710678118654746 0.5 forward I I I I #
loop $-1 $-1 $343 $87 #
coedge $-1 $217 $217 $344 $345 reversed $136 $-1 #
face $-1 $-1 $346 $70 $-1 $347 forward single #
loop $-1 $348 $349 $138 #
cone-surface $-1 31.207996082878545 21.600125128460707 2.8942905600464517 0 -0.5877852598018023 -0.80901698891910034 0.5 0 0 1 I I -0.70710678118654746 0.70710678118654746 0.5 forward I I I I #
loop $-1 $-1 $350 $88 #
coedge $-1 $222 $222 $351 $352 reversed $139 $-1 #
face $-1 $-1 $353 $71 $-1 $354 forward single #
loop $-1 $355 $356 $141 #
cone-surface $-1 35.079365094161936 21.600125128460707 2.8942905600464517 0 -0.5877852598018023 -0.80901698891910034 0.5 0 0 1 I I -0.70710678118654746 0.70710678118654746 0.5 forward I I I I #
loop $-1 $-1 $357 $89 #
coedge $-1 $227 $227 $358 $359 reversed $142 $-1 #
face $-1 $360 $361 $54 $-1 $362 reversed single #
loop $-1 $-1 $363 $144 #
plane-surface $-1 0 0 -8.3229937937927243 0 0 1 1 0 0 forward_v I I I I #
coedge $-1 $364 $365 $366 $367 forward $145 $-1 #
coedge $-1 $368 $147 $369 $370 reversed $91 $-1 #
coedge $-1 $147 $368 $371 $372 forward $91 $-1 #
coedge $-1 $373 $374 $147 $235 forward $229 $-1 #
edge $-1 $375 -27.992192887105848 $376 27.992192887105848 $147 $377 forward 7 unknown #
face $-1 $378 $379 $55 $-1 $380 reversed single #
loop $-1 $-1 $381 $148 #
plane-surface $-1 -45.130059602759268 -19.494526145626008 0 0 1 0 0 0 1 forward_v I I I I #
coedge $-1 $382 $383 $241 $384 forward $149 $-1 #
coedge $-1 $385 $151 $386 $387 reversed $94 $-1 #
coedge $-1 $151 $385 $239 $384 reversed $94 $-1 #
coedge $-1 $388 $389 $151 $243 reversed $390 $-1 #
edge $-1 $391 -8.3229937937927243 $392 8.3229937937927243 $242 $393 forward 7 unknown #
face $-1 $394 $395 $56 $-1 $396 forward single #
loop $-1 $-1 $397 $152 #
plane-surface $-1 -30.666859817143052 -76.935132516709942 68.153357231883248 1 0 0 0 0.5877852598018023 -0.80901698891910034 forward_v I I I I #
coedge $-1 $398 $399 $400 $401 reversed $153 $-1 #
coedge $-1 $249 $155 $402 $403 reversed $97 $-1 #
coedge $-1 $155 $248 $398 $404 reversed $97 $-1 #
coedge $-1 $400 $405 $155 $251 forward $395 $-1 #
edge $-1 $406 10.475373371249123 $407 20.844776469407357 $250 $408 forward 7 unknown #
loop $-1 $-1 $257 $156 #
plane-surface $-1 -24.214578131670745 -27.992192887105844 0.78918130589448765 0 -0.5877852598018023 0.80901698891910034 1 0 0 forward_v I I I I #
loop $-1 $-1 $409 $99 #
coedge $-1 $255 $255 $256 $410 reversed $157 $-1 #
coedge $-1 $256 $256 $255 $410 forward $159 $-1 #
coedge $-1 $257 $257 $160 $258 forward $252 $-1 #
edge $-1 $411 -3.4020353370067206e-015 $411 6.2831853071795969 $257 $412 forward 7 unknown #
loop $-1 $-1 $264 $161 #
plane-surface $-1 -24.214578131670745 -27.992192887105844 0.78918130589448765 0 -0.5877852598018023 0.80901698891910034 1 0 0 forward_v I I I I #
loop $-1 $-1 $413 $102 #
coedge $-1 $262 $262 $263 $414 reversed $162 $-1 #
coedge $-1 $263 $263 $262 $414 forward $164 $-1 #
coedge $-1 $264 $264 $165 $265 forward $259 $-1 #
edge $-1 $415 -3.4020353370067206e-015 $415 6.2831853071795969 $264 $416 forward 7 unknown #
loop $-1 $-1 $271 $166 #
plane-surface $-1 -24.214578131670745 -27.992192887105844 0.78918130589448765 0 -0.5877852598018023 0.80901698891910034 1 0 0 forward_v I I I I #
loop $-1 $-1 $417 $105 #
coedge $-1 $269 $269 $270 $418 reversed $167 $-1 #
coedge $-1 $270 $270 $269 $418 forward $169 $-1 #
coedge $-1 $271 $271 $170 $272 forward $266 $-1 #
edge $-1 $419 -3.4020353370067206e-015 $419 6.2831853071795969 $271 $420 forward 7 unknown #
face $-1 $421 $422 $60 $-1 $423 reversed single #
loop $-1 $-1 $424 $171 #
plane-surface $-1 24.755714397406237 -76.935132516709942 68.153357231883248 1 0 0 0 0.5877852598018023 -0.80901698891910034 forward_v I I I I #
coedge $-1 $425 $426 $427 $428 reversed $172 $-1 #
coedge $-1 $278 $174 $429 $430 reversed $109 $-1 #
coedge $-1 $174 $277 $425 $431 reversed $109 $-1 #
coedge $-1 $427 $432 $174 $280 forward $433 $-1 #
edge $-1 $434 10.475373371249123 $435 20.844776469407357 $279 $436 forward 7 unknown #
loop $-1 $-1 $286 $175 #
plane-surface $-1 31.207996082878545 -27.992192887105844 0.78918130589448765 0 -0.5877852598018023 0.80901698891910034 1 0 0 forward_v I I I I #
loop $-1 $-1 $437 $111 #
coedge $-1 $284 $284 $285 $438 reversed $176 $-1 #
coedge $-1 $285 $285 $284 $438 forward $178 $-1 #
coedge $-1 $286 $286 $179 $287 forward $281 $-1 #
edge $-1 $439 -3.4020353370067206e-015 $439 6.2831853071795969 $286 $440 forward 7 unknown #
loop $-1 $-1 $293 $180 #
plane-surface $-1 31.207996082878545 -27.992192887105844 0.78918130589448765 0 -0.5877852598018023 0.80901698891910034 1 0 0 forward_v I I I I #
loop $-1 $-1 $441 $114 #
coedge $-1 $291 $291 $292 $442 reversed $181 $-1 #
coedge $-1 $292 $292 $291 $442 forward $183 $-1 #
coedge $-1 $293 $293 $184 $294 forward $288 $-1 #
edge $-1 $443 -3.4020353370067206e-015 $443 6.2831853071795969 $293 $444 forward 7 unknown #
loop $-1 $-1 $300 $185 #
plane-surface $-1 31.207996082878545 -27.992192887105844 0.78918130589448765 0 -0.5877852598018023 0.80901698891910034 1 0 0 forward_v I I I I #
loop $-1 $-1 $445 $117 #
coedge $-1 $298 $298 $299 $446 reversed $186 $-1 #
coedge $-1 $299 $299 $298 $446 forward $188 $-1 #
coedge $-1 $300 $300 $189 $301 forward $295 $-1 #
edge $-1 $447 -3.4020353370067206e-015 $447 6.2831853071795969 $300 $448 forward 7 unknown #
face $-1 $449 $450 $64 $-1 $451 reversed single #
loop $-1 $-1 $452 $190 #
plane-surface $-1 -17.762296446198437 31.642813311171874 101.06015396902259 -1 0 0 0 0.5877852598018023 0.80901698891910034 forward_v I I I I #
coedge $-1 $453 $454 $455 $456 reversed $191 $-1 #
coedge $-1 $307 $193 $457 $458 reversed $121 $-1 #
coedge $-1 $193 $306 $453 $459 reversed $121 $-1 #
coedge $-1 $455 $460 $193 $309 forward $461 $-1 #
edge $-1 $462 -12.17078623151991 $463 -1.8013831333616661 $308 $464 forward 7 unknown #
loop $-1 $-1 $315 $194 #
plane-surface $-1 -24.214578131670745 -17.300126318432223 33.695978043033833 0 0.5877852598018023 0.80901698891910034 1 0 0 forward_v I I I I #
loop $-1 $-1 $465 $123 #
coedge $-1 $313 $313 $314 $466 reversed $195 $-1 #
coedge $-1 $314 $314 $313 $466 forward $197 $-1 #
coedge $-1 $315 $315 $198 $316 forward $310 $-1 #
edge $-1 $467 2.0940041636132166e-015 $467 6.2831853071796022 $315 $468 forward 7 unknown #
loop $-1 $-1 $322 $199 #
plane-surface $-1 -24.214578131670745 -17.300126318432223 33.695978043033833 0 0.5877852598018023 0.80901698891910034 1 0 0 forward_v I I I I #
loop $-1 $-1 $469 $126 #
coedge $-1 $320 $320 $321 $470 reversed $200 $-1 #
coedge $-1 $321 $321 $320 $470 forward $202 $-1 #
coedge $-1 $322 $322 $203 $323 forward $317 $-1 #
edge $-1 $471 2.0940041636132166e-015 $471 6.2831853071796022 $322 $472 forward 7 unknown #
loop $-1 $-1 $329 $204 #
plane-surface $-1 -24.214578131670745 -17.300126318432223 33.695978043033833 0 0.5877852598018023 0.80901698891910034 1 0 0 forward_v I I I I #
loop $-1 $-1 $473 $129 #
coedge $-1 $327 $327 $328 $474 reversed $205 $-1 #
coedge $-1 $328 $328 $327 $474 forward $207 $-1 #
coedge $-1 $329 $329 $208 $330 forward $324 $-1 #
edge $-1 $475 2.0940041636132166e-015 $475 6.2831853071796022 $329 $476 forward 7 unknown #
face $-1 $477 $478 $68 $-1 $479 forward single #
loop $-1 $-1 $480 $209 #
plane-surface $-1 37.660277768350852 31.642813311171874 101.06015396902259 -1 0 0 0 0.5877852598018023 0.80901698891910034 forward_v I I I I #
coedge $-1 $481 $482 $483 $484 reversed $210 $-1 #
coedge $-1 $336 $212 $485 $486 reversed $133 $-1 #
coedge $-1 $212 $335 $481 $487 reversed $133 $-1 #
coedge $-1 $483 $488 $212 $338 forward $478 $-1 #
edge $-1 $489 -12.17078623151991 $490 -1.8013831333616661 $337 $491 forward 7 unknown #
loop $-1 $-1 $344 $213 #
plane-surface $-1 31.207996082878545 -17.300126318432223 33.695978043033833 0 0.5877852598018023 0.80901698891910034 1 0 0 forward_v I I I I #
loop $-1 $-1 $492 $135 #
coedge $-1 $342 $342 $343 $493 reversed $214 $-1 #
coedge $-1 $343 $343 $342 $493 forward $216 $-1 #
coedge $-1 $344 $344 $217 $345 forward $339 $-1 #
edge $-1 $494 2.0940041636132166e-015 $494 6.2831853071796022 $344 $495 forward 7 unknown #
loop $-1 $-1 $351 $218 #
plane-surface $-1 31.207996082878545 -17.300126318432223 33.695978043033833 0 0.5877852598018023 0.80901698891910034 1 0 0 forward_v I I I I #
loop $-1 $-1 $496 $138 #
coedge $-1 $349 $349 $350 $497 reversed $219 $-1 #
coedge $-1 $350 $350 $349 $497 forward $221 $-1 #
coedge $-1 $351 $351 $222 $352 forward $346 $-1 #
edge $-1 $498 2.0940041636132166e-015 $498 6.2831853071796022 $351 $499 forward 7 unknown #
loop $-1 $-1 $358 $223 #
plane-surface $-1 31.207996082878545 -17.300126318432223 33.695978043033833 0 0.5877852598018023 0.80901698891910034 1 0 0 forward_v I I I I #
loop $-1 $-1 $500 $141 #
coedge $-1 $356 $356 $357 $501 reversed $224 $-1 #
coedge $-1 $357 $357 $356 $501 forward $226 $-1 #
coedge $-1 $358 $358 $227 $359 forward $353 $-1 #
edge $-1 $502 2.0940041636132166e-015 $502 6.2831853071796022 $358 $503 forward 7 unknown #
face $-1 $504 $505 $54 $-1 $506 reversed single #
loop $-1 $-1 $369 $228 #
plane-surface $-1 0 -27.992192887105848 0 0 1 0 0 0 1 forward_v I I I I #
coedge $-1 $374 $373 $507 $508 forward $229 $-1 #
coedge $-1 $509 $231 $510 $511 forward $145 $-1 #
coedge $-1 $231 $509 $512 $513 forward $145 $-1 #
coedge $-1 $514 $515 $231 $367 reversed $516 $-1 #
edge $-1 $517 -27.992192887105848 $518 27.992192887105848 $366 $519 forward 7 unknown #
coedge $-1 $233 $232 $509 $520 reversed $91 $-1 #
coedge $-1 $521 $512 $232 $370 forward $361 $-1 #
edge $-1 $522 -8.3229937937927243 $375 8.3229937937927243 $232 $523 forward 7 unknown #
coedge $-1 $510 $524 $233 $372 reversed $505 $-1 #
edge $-1 $525 -8.3229937937927243 $376 8.3229937937927243 $371 $526 forward 7 unknown #
coedge $-1 $363 $234 $524 $527 forward $229 $-1 #
coedge $-1 $234 $363 $521 $528 forward $229 $-1 #
vertex $-1 $235 $529 #
vertex $-1 $527 $530 #
straight-curve $-1 -41.633350627155373 0 -8.3229937937927243 0 1 0 I I #
face $-1 $531 $390 $55 $-1 $532 reversed single #
loop $-1 $-1 $533 $236 #
plane-surface $-1 -48.626768578363162 -17.374317963730586 0 1 0 0 0 0 -1 forward_v I I I I #
coedge $-1 $534 $535 $536 $537 forward $237 $-1 #
coedge $-1 $538 $239 $534 $539 forward $149 $-1 #
coedge $-1 $239 $538 $388 $540 forward $149 $-1 #
edge $-1 $391 15.254109781835165 $541 19.494526145626008 $239 $542 forward 7 unknown #
coedge $-1 $241 $240 $543 $544 forward $94 $-1 #
coedge $-1 $545 $546 $240 $387 forward $547 $-1 #
edge $-1 $548 -19.494526145626008 $392 -15.254109781835165 $386 $549 forward 7 unknown #
coedge $-1 $550 $242 $383 $540 reversed $390 $-1 #
coedge $-1 $242 $550 $545 $551 reversed $390 $-1 #
loop $-1 $-1 $242 $378 #
vertex $-1 $384 $552 #
vertex $-1 $551 $553 #
straight-curve $-1 -41.633350627155373 -15.254109781835165 0 0 0 1 I I #
face $-1 $-1 $554 $56 $-1 $555 reversed single #
loop $-1 $-1 $250 $244 #
plane-surface $-1 0 0 8.3229937937927243 0 0 1 1 0 0 forward_v I I I I #
coedge $-1 $556 $557 $558 $559 reversed $245 $-1 #
coedge $-1 $560 $247 $249 $404 forward $153 $-1 #
coedge $-1 $247 $560 $556 $561 forward $153 $-1 #
coedge $-1 $558 $250 $247 $401 forward $395 $-1 #
edge $-1 $407 5.6550073803630649 $562 18.559570751307682 $400 $563 forward 7 unknown #
coedge $-1 $564 $565 $248 $403 forward $554 $-1 #
edge $-1 $566 -33.287497310047137 $406 -25.753684822148898 $402 $567 forward 7 unknown #
edge $-1 $407 -12.817287201857688 $566 4.3751229995395342e-015 $249 $568 forward 7 unknown #
coedge $-1 $250 $558 $564 $569 forward $395 $-1 #
vertex $-1 $251 $570 #
vertex $-1 $251 $571 #
straight-curve $-1 -17.762296446198437 -38.467566258354971 8.3229937937927261 0 1 0 I I #
coedge $-1 $409 $409 $-1 $572 reversed $254 $-1 #
edge $-1 $573 0 $573 6.2831853071796004 $255 $574 forward 7 unknown #
vertex $-1 $258 $575 #
ellipse-curve $-1 -28.085947142954129 -22.807491338026733 4.5560875498436033 0 -0.5877852598018023 0.80901698891910034 1 0 0 1 I I #
coedge $-1 $413 $413 $-1 $576 reversed $261 $-1 #
edge $-1 $577 0 $577 6.2831853071796004 $262 $578 forward 7 unknown #
vertex $-1 $265 $579 #
ellipse-curve $-1 -24.214578131670745 -22.807491338026733 4.5560875498436033 0 -0.5877852598018023 0.80901698891910034 1 0 0 1 I I #
coedge $-1 $417 $417 $-1 $580 reversed $268 $-1 #
edge $-1 $581 0 $581 6.2831853071796004 $269 $582 forward 7 unknown #
vertex $-1 $272 $583 #
ellipse-curve $-1 -20.34320912038736 -22.807491338026733 4.5560875498436033 0 -0.5877852598018023 0.80901698891910034 1 0 0 1 I I #
face $-1 $-1 $433 $60 $-1 $584 forward single #
loop $-1 $-1 $585 $273 #
plane-surface $-1 0 -27.992192887105848 0 0 1 0 0 0 1 forward_v I I I I #
coedge $-1 $586 $587 $588 $589 reversed $274 $-1 #
coedge $-1 $590 $276 $278 $431 forward $172 $-1 #
coedge $-1 $276 $590 $586 $591 forward $172 $-1 #
coedge $-1 $588 $279 $276 $428 forward $433 $-1 #
edge $-1 $435 -22.05627972691158 $592 -9.1517163559669648 $427 $593 forward 7 unknown #
coedge $-1 $594 $595 $277 $430 forward $422 $-1 #
edge $-1 $596 -33.287497310047137 $434 -25.753684822148898 $429 $597 forward 7 unknown #
edge $-1 $435 -12.817287201857688 $596 4.3751229995395342e-015 $278 $598 forward 7 unknown #
coedge $-1 $279 $588 $594 $599 forward $433 $-1 #
loop $-1 $-1 $588 $421 #
vertex $-1 $430 $600 #
vertex $-1 $280 $601 #
straight-curve $-1 37.660277768350852 -38.467566258354971 8.3229937937927261 0 1 0 I I #
coedge $-1 $437 $437 $-1 $602 reversed $283 $-1 #
edge $-1 $603 0 $603 6.2831853071796004 $284 $604 forward 7 unknown #
vertex $-1 $287 $605 #
ellipse-curve $-1 27.336627071595167 -22.807491338026733 4.5560875498436033 0 -0.5877852598018023 0.80901698891910034 1 0 0 1 I I #
coedge $-1 $441 $441 $-1 $606 reversed $290 $-1 #
edge $-1 $607 0 $607 6.2831853071796004 $291 $608 forward 7 unknown #
vertex $-1 $294 $609 #
ellipse-curve $-1 31.207996082878545 -22.807491338026733 4.5560875498436033 0 -0.5877852598018023 0.80901698891910034 1 0 0 1 I I #
coedge $-1 $445 $445 $-1 $610 reversed $297 $-1 #
edge $-1 $611 0 $611 6.2831853071796004 $298 $612 forward 7 unknown #
vertex $-1 $301 $613 #
ellipse-curve $-1 35.079365094161936 -22.807491338026733 4.5560875498436033 0 -0.5877852598018023 0.80901698891910034 1 0 0 1 I I #
face $-1 $-1 $461 $64 $-1 $614 forward single #
loop $-1 $-1 $615 $302 #
plane-surface $-1 0 27.992192887105848 0 0 -1 0 0 0 -1 forward_v I I I I #
coedge $-1 $616 $617 $618 $619 reversed $303 $-1 #
coedge $-1 $620 $305 $307 $459 forward $191 $-1 #
coedge $-1 $305 $620 $616 $621 forward $191 $-1 #
coedge $-1 $618 $308 $305 $456 forward $461 $-1 #
edge $-1 $463 -18.559570751307682 $622 -5.6550073803630649 $455 $623 forward 7 unknown #
coedge $-1 $624 $625 $306 $458 forward $450 $-1 #
edge $-1 $626 -49.740895678616816 $462 -42.207083190718571 $457 $627 forward 7 unknown #
edge $-1 $463 43.167098572353993 $626 55.984385774211702 $307 $628 forward 7 unknown #
coedge $-1 $308 $618 $624 $629 forward $461 $-1 #
loop $-1 $-1 $618 $449 #
vertex $-1 $458 $630 #
vertex $-1 $309 $631 #
straight-curve $-1 -30.666859817143052 15.821406655585937 8.3229937937927261 0 -1 0 I I #
coedge $-1 $465 $465 $-1 $632 reversed $312 $-1 #
edge $-1 $633 0 $633 6.2831853071796004 $313 $634 forward 7 unknown #
vertex $-1 $316 $635 #
ellipse-curve $-1 -28.085947142954129 22.807491338026729 4.5560875498436024 0 0.5877852598018023 0.80901698891910034 1 0 0 1 I I #
coedge $-1 $469 $469 $-1 $636 reversed $319 $-1 #
edge $-1 $637 0 $637 6.2831853071796004 $320 $638 forward 7 unknown #
vertex $-1 $323 $639 #
ellipse-curve $-1 -24.214578131670745 22.807491338026729 4.5560875498436024 0 0.5877852598018023 0.80901698891910034 1 0 0 1 I I #
coedge $-1 $473 $473 $-1 $640 reversed $326 $-1 #
edge $-1 $641 0 $641 6.2831853071796004 $327 $642 forward 7 unknown #
vertex $-1 $330 $643 #
ellipse-curve $-1 -20.34320912038736 22.807491338026729 4.5560875498436024 0 0.5877852598018023 0.80901698891910034 1 0 0 1 I I #
face $-1 $-1 $644 $68 $-1 $645 reversed single #
loop $-1 $-1 $337 $331 #
plane-surface $-1 0 0 8.3229937937927243 0 0 1 1 0 0 forward_v I I I I #
coedge $-1 $646 $647 $648 $649 reversed $332 $-1 #
coedge $-1 $650 $334 $336 $487 forward $210 $-1 #
coedge $-1 $334 $650 $646 $651 forward $210 $-1 #
coedge $-1 $648 $337 $334 $484 forward $478 $-1 #
edge $-1 $490 9.1517163559669648 $652 22.05627972691158 $483 $653 forward 7 unknown #
coedge $-1 $654 $655 $335 $486 forward $644 $-1 #
edge $-1 $656 -49.740895678616816 $489 -42.207083190718571 $485 $657 forward 7 unknown #
edge $-1 $490 43.167098572353993 $656 55.984385774211702 $336 $658 forward 7 unknown #
coedge $-1 $337 $648 $654 $659 forward $478 $-1 #
vertex $-1 $338 $660 #
vertex $-1 $338 $661 #
straight-curve $-1 24.755714397406237 15.821406655585937 8.3229937937927261 0 -1 0 I I #
coedge $-1 $492 $492 $-1 $662 reversed $341 $-1 #
edge $-1 $663 0 $663 6.2831853071796004 $342 $664 forward 7 unknown #
vertex $-1 $345 $665 #
ellipse-curve $-1 27.336627071595167 22.807491338026729 4.5560875498436024 0 0.5877852598018023 0.80901698891910034 1 0 0 1 I I #
coedge $-1 $496 $496 $-1 $666 reversed $348 $-1 #
edge $-1 $667 0 $667 6.2831853071796004 $349 $668 forward 7 unknown #
vertex $-1 $352 $669 #
ellipse-curve $-1 31.207996082878545 22.807491338026729 4.5560875498436024 0 0.5877852598018023 0.80901698891910034 1 0 0 1 I I #
coedge $-1 $500 $500 $-1 $670 reversed $355 $-1 #
edge $-1 $671 0 $671 6.2831853071796004 $356 $672 forward 7 unknown #
vertex $-1 $359 $673 #
ellipse-curve $-1 35.079365094161936 22.807491338026729 4.5560875498436024 0 0.5877852598018023 0.80901698891910034 1 0 0 1 I I #
face $-1 $-1 $516 $54 $-1 $674 reversed single #
loop $-1 $-1 $675 $360 #
plane-surface $-1 0 27.992192887105848 0 0 -1 0 0 0 -1 forward_v I I I I #
coedge $-1 $515 $514 $363 $508 reversed $516 $-1 #
edge $-1 $676 -27.992192887105848 $677 27.992192887105848 $507 $678 forward 7 unknown #
coedge $-1 $365 $364 $368 $520 forward $145 $-1 #
coedge $-1 $675 $371 $364 $511 reversed $505 $-1 #
edge $-1 $518 -41.633350627155373 $525 41.633350627155373 $510 $679 forward 7 unknown #
coedge $-1 $369 $680 $365 $513 reversed $361 $-1 #
edge $-1 $522 -41.633350627155373 $517 41.633350627155373 $512 $681 forward 7 unknown #
coedge $-1 $507 $366 $680 $682 forward $516 $-1 #
coedge $-1 $366 $507 $675 $683 reversed $516 $-1 #
loop $-1 $-1 $514 $504 #
vertex $-1 $367 $684 #
vertex $-1 $367 $685 #
straight-curve $-1 41.633350627155373 0 8.3229937937927243 0 1 0 I I #
edge $-1 $525 -27.992192887105848 $522 27.992192887105848 $368 $686 forward 7 unknown #
coedge $-1 $680 $369 $374 $528 reversed $361 $-1 #
vertex $-1 $520 $687 #
straight-curve $-1 -41.633350627155373 -27.992192887105848 0 0 0 -1 I I #
coedge $-1 $371 $675 $373 $527 reversed $505 $-1 #
vertex $-1 $511 $688 #
straight-curve $-1 -41.633350627155373 27.992192887105848 0 0 0 -1 I I #
edge $-1 $376 -41.633350627155373 $676 41.633350627155373 $524 $689 forward 7 unknown #
edge $-1 $677 -41.633350627155373 $375 41.633350627155373 $521 $690 forward 7 unknown #
point $-1 -41.633350627155373 -27.992192887105848 -8.3229937937927243 #
point $-1 -41.633350627155373 27.992192887105848 -8.3229937937927243 #
face $-1 $-1 $547 $55 $-1 $691 forward single #
plane-surface $-1 -45.130059602759268 -15.254109781835165 0 0 -1 0 0 0 -1 forward_v I I I I #
coedge $-1 $692 $693 $550 $694 forward $379 $-1 #
coedge $-1 $543 $381 $382 $539 reversed $237 $-1 #
coedge $-1 $381 $543 $546 $695 reversed $237 $-1 #
coedge $-1 $693 $692 $381 $537 reversed $379 $-1 #
edge $-1 $696 -8.3229937937927243 $697 8.3229937937927243 $536 $698 forward 7 unknown #
coedge $-1 $383 $382 $692 $699 forward $149 $-1 #
edge $-1 $541 -3.4967089756038945 $697 3.4967089756038945 $534 $700 forward 7 unknown #
edge $-1 $701 -3.4967089756038945 $391 3.4967089756038945 $388 $702 forward 7 unknown #
vertex $-1 $539 $703 #
straight-curve $-1 -41.633350627155373 0 -8.3229937937927243 0 -1 0 I I #
coedge $-1 $535 $534 $385 $544 reversed $237 $-1 #
edge $-1 $548 -8.3229937937927243 $541 8.3229937937927243 $543 $704 forward 7 unknown #
coedge $-1 $705 $386 $389 $551 forward $547 $-1 #
coedge $-1 $386 $705 $535 $695 forward $547 $-1 #
loop $-1 $-1 $386 $531 #
vertex $-1 $387 $706 #
straight-curve $-1 -41.633350627155373 0 8.3229937937927243 0 1 0 I I #
coedge $-1 $389 $388 $533 $694 reversed $390 $-1 #
edge $-1 $392 -3.4967089756038945 $707 3.4967089756038945 $389 $708 forward 7 unknown #
point $-1 -41.633350627155373 -15.254109781835165 -8.3229937937927243 #
point $-1 -41.633350627155373 -15.254109781835165 8.3229937937927243 #
loop $-1 $-1 $402 $394 #
plane-surface $-1 0 -27.992192887105848 0 0 1 0 0 0 1 forward_v I I I I #
coedge $-1 $557 $397 $399 $561 reversed $245 $-1 #
coedge $-1 $397 $556 $709 $710 reversed $245 $-1 #
coedge $-1 $405 $400 $397 $559 forward $395 $-1 #
edge $-1 $562 -20.844776469407357 $711 -10.475373371249123 $558 $712 forward 7 unknown #
coedge $-1 $399 $398 $565 $713 reversed $153 $-1 #
edge $-1 $714 -4.3751229995395342e-015 $562 12.817287201857688 $556 $715 forward 7 unknown #
vertex $-1 $401 $716 #
straight-curve $-1 -12.107289065835372 -17.622789788947614 8.3229937937927243 -1 0 0 I I #
coedge $-1 $709 $402 $405 $569 reversed $554 $-1 #
coedge $-1 $402 $709 $560 $713 forward $554 $-1 #
vertex $-1 $403 $717 #
straight-curve $-1 -17.762296446198437 -27.992192887105848 34.076678615941624 0 0 1 I I #
straight-curve $-1 -17.762296446198437 -27.992192887105844 0.78918130589448765 0 -0.80901698891910034 -0.5877852598018023 I I #
edge $-1 $711 -30.666859817143052 $406 -17.762296446198437 $564 $718 forward 7 unknown #
point $-1 -17.762296446198437 -27.992192887105848 8.3229937937927243 #
point $-1 -17.762296446198437 -17.622789788947614 8.3229937937927243 #
edge $-1 $719 1 $719 0 $409 $-1 forward 7 unknown #
vertex $-1 $410 $720 #
ellipse-curve $-1 -28.085947142954129 -21.894017758361617 3.2987990545060053 0 -0.5877852598018023 0.80901698891910034 1 0 0 1 I I #
point $-1 -27.085947142954129 -22.807491338026743 4.5560875498436122 #
edge $-1 $721 1 $721 0 $413 $-1 forward 7 unknown #
vertex $-1 $414 $722 #
ellipse-curve $-1 -24.214578131670745 -21.894017758361617 3.2987990545060053 0 -0.5877852598018023 0.80901698891910034 1 0 0 1 I I #
point $-1 -23.214578131670745 -22.807491338026743 4.5560875498436122 #
edge $-1 $723 1 $723 0 $417 $-1 forward 7 unknown #
vertex $-1 $418 $724 #
ellipse-curve $-1 -20.34320912038736 -21.894017758361617 3.2987990545060053 0 -0.5877852598018023 0.80901698891910034 1 0 0 1 I I #
point $-1 -19.34320912038736 -22.807491338026743 4.5560875498436122 #
plane-surface $-1 0 0 8.3229937937927243 0 0 1 1 0 0 forward_v I I I I #
coedge $-1 $595 $594 $587 $725 forward $422 $-1 #
coedge $-1 $587 $424 $426 $591 reversed $274 $-1 #
coedge $-1 $424 $586 $585 $725 reversed $274 $-1 #
coedge $-1 $432 $427 $424 $589 forward $433 $-1 #
edge $-1 $592 -20.844776469407357 $726 -10.475373371249123 $588 $727 forward 7 unknown #
coedge $-1 $426 $425 $595 $728 reversed $172 $-1 #
edge $-1 $729 -4.3751229995395342e-015 $592 12.817287201857688 $586 $730 forward 7 unknown #
vertex $-1 $428 $731 #
straight-curve $-1 15.603998041439272 -17.622789788947614 8.3229937937927243 -1 0 0 I I #
coedge $-1 $585 $429 $432 $599 reversed $422 $-1 #
coedge $-1 $429 $585 $590 $728 forward $422 $-1 #
vertex $-1 $430 $732 #
straight-curve $-1 37.660277768350852 -27.992192887105848 34.076678615941624 0 0 1 I I #
straight-curve $-1 37.660277768350852 -27.992192887105844 0.78918130589448765 0 -0.80901698891910034 -0.5877852598018023 I I #
edge $-1 $726 24.755714397406237 $434 37.660277768350852 $594 $733 forward 7 unknown #
point $-1 37.660277768350852 -27.992192887105848 8.3229937937927243 #
point $-1 37.660277768350852 -17.622789788947614 8.3229937937927243 #
edge $-1 $734 1 $734 0 $437 $-1 forward 7 unknown #
vertex $-1 $438 $735 #
ellipse-curve $-1 27.336627071595167 -21.894017758361617 3.2987990545060053 0 -0.5877852598018023 0.80901698891910034 1 0 0 1 I I #
point $-1 28.336627071595167 -22.807491338026743 4.5560875498436122 #
edge $-1 $736 1 $736 0 $441 $-1 forward 7 unknown #
vertex $-1 $442 $737 #
ellipse-curve $-1 31.207996082878545 -21.894017758361617 3.2987990545060053 0 -0.5877852598018023 0.80901698891910034 1 0 0 1 I I #
point $-1 32.207996082878545 -22.807491338026743 4.5560875498436122 #
edge $-1 $738 1 $738 0 $445 $-1 forward 7 unknown #
vertex $-1 $446 $739 #
ellipse-curve $-1 35.079365094161936 -21.894017758361617 3.2987990545060053 0 -0.5877852598018023 0.80901698891910034 1 0 0 1 I I #
point $-1 36.079365094161936 -22.807491338026743 4.5560875498436122 #
plane-surface $-1 0 0 8.3229937937927243 0 0 1 1 0 0 forward_v I I I I #
coedge $-1 $625 $624 $617 $740 forward $450 $-1 #
coedge $-1 $617 $452 $454 $621 reversed $303 $-1 #
coedge $-1 $452 $616 $615 $740 reversed $303 $-1 #
coedge $-1 $460 $455 $452 $619 forward $461 $-1 #
edge $-1 $622 1.8013831333616661 $741 12.17078623151991 $618 $742 forward 7 unknown #
coedge $-1 $454 $453 $625 $743 reversed $191 $-1 #
edge $-1 $744 -55.984385774211702 $622 -43.167098572353993 $616 $745 forward 7 unknown #
vertex $-1 $456 $746 #
straight-curve $-1 -12.107289065835372 17.622789788947607 8.3229937937927261 1 0 0 I I #
coedge $-1 $615 $457 $460 $629 reversed $450 $-1 #
coedge $-1 $457 $615 $620 $743 forward $450 $-1 #
vertex $-1 $458 $747 #
straight-curve $-1 -30.666859817143052 27.992192887105848 50.530076984511297 0 0 1 I I #
straight-curve $-1 -30.666859817143052 -17.300126318432223 33.695978043033833 0 0.80901698891910034 -0.5877852598018023 I I #
edge $-1 $741 17.762296446198437 $462 30.666859817143052 $624 $748 forward 7 unknown #
point $-1 -30.666859817143052 27.992192887105848 8.3229937937927243 #
point $-1 -30.666859817143052 17.622789788947603 8.3229937937927296 #
edge $-1 $749 1 $749 0 $465 $-1 forward 7 unknown #
vertex $-1 $466 $750 #
ellipse-curve $-1 -28.085947142954129 21.89401775836161 3.2987990545060017 0 0.5877852598018023 0.80901698891910034 1 0 0 1 I I #
point $-1 -27.085947142954129 22.807491338026736 4.5560875498436086 #
edge $-1 $751 1 $751 0 $469 $-1 forward 7 unknown #
vertex $-1 $470 $752 #
ellipse-curve $-1 -24.214578131670745 21.89401775836161 3.2987990545060017 0 0.5877852598018023 0.80901698891910034 1 0 0 1 I I #
point $-1 -23.214578131670745 22.807491338026736 4.5560875498436086 #
edge $-1 $753 1 $753 0 $473 $-1 forward 7 unknown #
vertex $-1 $474 $754 #
ellipse-curve $-1 -20.34320912038736 21.89401775836161 3.2987990545060017 0 0.5877852598018023 0.80901698891910034 1 0 0 1 I I #
point $-1 -19.34320912038736 22.807491338026736 4.5560875498436086 #
loop $-1 $-1 $485 $477 #
plane-surface $-1 0 27.992192887105848 0 0 -1 0 0 0 -1 forward_v I I I I #
coedge $-1 $647 $480 $482 $651 reversed $332 $-1 #
coedge $-1 $480 $646 $755 $756 reversed $332 $-1 #
coedge $-1 $488 $483 $480 $649 forward $478 $-1 #
edge $-1 $652 1.8013831333616661 $757 12.17078623151991 $648 $758 forward 7 unknown #
coedge $-1 $482 $481 $655 $759 reversed $210 $-1 #
edge $-1 $760 -55.984385774211702 $652 -43.167098572353993 $646 $761 forward 7 unknown #
vertex $-1 $484 $762 #
straight-curve $-1 15.603998041439272 17.622789788947607 8.3229937937927261 1 0 0 I I #
coedge $-1 $755 $485 $488 $659 reversed $644 $-1 #
coedge $-1 $485 $755 $650 $759 forward $644 $-1 #
vertex $-1 $486 $763 #
straight-curve $-1 24.755714397406237 27.992192887105848 50.530076984511297 0 0 1 I I #
straight-curve $-1 24.755714397406237 -17.300126318432223 33.695978043033833 0 0.80901698891910034 -0.5877852598018023 I I #
edge $-1 $757 -37.660277768350852 $489 -24.755714397406237 $654 $764 forward 7 unknown #
point $-1 24.755714397406237 27.992192887105848 8.3229937937927243 #
point $-1 24.755714397406237 17.622789788947603 8.3229937937927296 #
edge $-1 $765 1 $765 0 $492 $-1 forward 7 unknown #
vertex $-1 $493 $766 #
ellipse-curve $-1 27.336627071595167 21.89401775836161 3.2987990545060017 0 0.5877852598018023 0.80901698891910034 1 0 0 1 I I #
point $-1 28.336627071595167 22.807491338026736 4.5560875498436086 #
edge $-1 $767 1 $767 0 $496 $-1 forward 7 unknown #
vertex $-1 $497 $768 #
ellipse-curve $-1 31.207996082878545 21.89401775836161 3.2987990545060017 0 0.5877852598018023 0.80901698891910034 1 0 0 1 I I #
point $-1 32.207996082878545 22.807491338026736 4.5560875498436086 #
edge $-1 $769 1 $769 0 $500 $-1 forward 7 unknown #
vertex $-1 $501 $770 #
ellipse-curve $-1 35.079365094161936 21.89401775836161 3.2987990545060017 0 0.5877852598018023 0.80901698891910034 1 0 0 1 I I #
point $-1 36.079365094161936 22.807491338026736 4.5560875498436086 #
plane-surface $-1 41.633350627155373 0 0 -1 0 0 0 0 1 forward_v I I I I #
coedge $-1 $524 $510 $515 $683 forward $505 $-1 #
vertex $-1 $508 $771 #
vertex $-1 $682 $772 #
straight-curve $-1 41.633350627155373 0 -8.3229937937927243 0 -1 0 I I #
straight-curve $-1 0 27.992192887105848 8.3229937937927243 -1 0 0 I I #
coedge $-1 $512 $521 $514 $682 reversed $361 $-1 #
straight-curve $-1 0 -27.992192887105848 8.3229937937927243 1 0 0 I I #
edge $-1 $517 -8.3229937937927243 $677 8.3229937937927243 $514 $773 forward 7 unknown #
edge $-1 $518 -8.3229937937927243 $676 8.3229937937927243 $515 $774 forward 7 unknown #
point $-1 41.633350627155373 -27.992192887105848 8.3229937937927243 #
point $-1 41.633350627155373 27.992192887105848 8.3229937937927243 #
straight-curve $-1 -41.633350627155373 0 8.3229937937927243 0 -1 0 I I #
point $-1 -41.633350627155373 -27.992192887105848 8.3229937937927243 #
point $-1 -41.633350627155373 27.992192887105848 8.3229937937927243 #
straight-curve $-1 0 27.992192887105848 -8.3229937937927243 1 0 0 I I #
straight-curve $-1 0 -27.992192887105848 -8.3229937937927243 -1 0 0 I I #
plane-surface $-1 0 0 8.3229937937927243 0 0 1 1 0 0 forward_v I I I I #
coedge $-1 $536 $533 $538 $699 reversed $379 $-1 #
coedge $-1 $533 $536 $705 $775 reversed $379 $-1 #
edge $-1 $707 -8.3229937937927243 $701 8.3229937937927243 $550 $776 forward 7 unknown #
edge $-1 $696 -3.4967089756038945 $548 3.4967089756038945 $535 $777 forward 7 unknown #
vertex $-1 $775 $778 #
vertex $-1 $699 $779 #
straight-curve $-1 -48.626768578363162 -19.494526145626008 0 0 0 -1 I I #
edge $-1 $697 -2.1202081818954213 $701 2.1202081818954213 $692 $780 forward 7 unknown #
straight-curve $-1 -45.130059602759268 -19.494526145626008 -8.3229937937927243 -1 0 0 I I #
vertex $-1 $540 $781 #
straight-curve $-1 -45.130059602759268 -15.254109781835165 -8.3229937937927243 1 0 0 I I #
point $-1 -41.633350627155373 -19.494526145626008 -8.3229937937927243 #
straight-curve $-1 -41.633350627155373 -19.494526145626008 0 0 0 -1 I I #
coedge $-1 $546 $545 $693 $775 forward $547 $-1 #
point $-1 -41.633350627155373 -19.494526145626008 8.3229937937927243 #
vertex $-1 $551 $782 #
straight-curve $-1 -45.130059602759268 -15.254109781835165 8.3229937937927243 -1 0 0 I I #
coedge $-1 $565 $564 $557 $710 forward $554 $-1 #
edge $-1 $711 25.753684822148898 $714 33.287497310047137 $709 $783 forward 7 unknown #
vertex $-1 $569 $784 #
straight-curve $-1 -30.666859817143052 -38.467566258354971 8.3229937937927261 0 -1 0 I I #
edge $-1 $714 -18.559570751307682 $566 -5.6550073803630649 $565 $785 forward 7 unknown #
vertex $-1 $713 $786 #
straight-curve $-1 -30.666859817143052 -27.992192887105844 0.78918130589448765 0 0.80901698891910034 0.5877852598018023 I I #
point $-1 -30.666859817143052 -17.622789788947614 8.3229937937927243 #
point $-1 -17.762296446198437 -27.992192887105848 0.7891813058944851 #
straight-curve $-1 0 -27.992192887105848 8.3229937937927243 1 0 0 I I #
vertex $-1 $572 $787 #
point $-1 -27.085947142954129 -21.894017758361617 3.2987990545060053 #
vertex $-1 $576 $788 #
point $-1 -23.214578131670745 -21.894017758361617 3.2987990545060053 #
vertex $-1 $580 $789 #
point $-1 -19.34320912038736 -21.894017758361617 3.2987990545060053 #
edge $-1 $726 25.753684822148898 $729 33.287497310047137 $585 $790 forward 7 unknown #
vertex $-1 $599 $791 #
straight-curve $-1 24.755714397406237 -38.467566258354971 8.3229937937927261 0 -1 0 I I #
edge $-1 $729 9.1517163559669648 $596 22.05627972691158 $595 $792 forward 7 unknown #
vertex $-1 $728 $793 #
straight-curve $-1 24.755714397406237 -27.992192887105844 0.78918130589448765 0 0.80901698891910034 0.5877852598018023 I I #
point $-1 24.755714397406237 -17.622789788947614 8.3229937937927243 #
point $-1 37.660277768350852 -27.992192887105848 0.7891813058944851 #
straight-curve $-1 0 -27.992192887105848 8.3229937937927243 1 0 0 I I #
vertex $-1 $602 $794 #
point $-1 28.336627071595167 -21.894017758361617 3.2987990545060053 #
vertex $-1 $606 $795 #
point $-1 32.207996082878545 -21.894017758361617 3.2987990545060053 #
vertex $-1 $610 $796 #
point $-1 36.079365094161936 -21.894017758361617 3.2987990545060053 #
edge $-1 $741 42.207083190718571 $744 49.740895678616816 $615 $797 forward 7 unknown #
vertex $-1 $629 $798 #
straight-curve $-1 -17.762296446198437 15.821406655585937 8.3229937937927261 0 1 0 I I #
edge $-1 $744 5.6550073803630649 $626 18.559570751307682 $625 $799 forward 7 unknown #
vertex $-1 $743 $800 #
straight-curve $-1 -17.762296446198437 -17.300126318432223 33.695978043033833 0 -0.80901698891910034 0.5877852598018023 I I #
point $-1 -17.762296446198437 17.622789788947603 8.3229937937927296 #
point $-1 -30.666859817143052 27.992192887105848 0.78918130589448054 #
straight-curve $-1 0 27.992192887105848 8.3229937937927243 -1 0 0 I I #
vertex $-1 $632 $801 #
point $-1 -27.085947142954129 21.89401775836161 3.2987990545060017 #
vertex $-1 $636 $802 #
point $-1 -23.214578131670745 21.89401775836161 3.2987990545060017 #
vertex $-1 $640 $803 #
point $-1 -19.34320912038736 21.89401775836161 3.2987990545060017 #
coedge $-1 $655 $654 $647 $756 forward $644 $-1 #
edge $-1 $757 42.207083190718571 $760 49.740895678616816 $755 $804 forward 7 unknown #
vertex $-1 $659 $805 #
straight-curve $-1 37.660277768350852 15.821406655585937 8.3229937937927261 0 1 0 I I #
edge $-1 $760 -22.05627972691158 $656 -9.1517163559669648 $655 $806 forward 7 unknown #
vertex $-1 $759 $807 #
straight-curve $-1 37.660277768350852 -17.300126318432223 33.695978043033833 0 -0.80901698891910034 0.5877852598018023 I I #
point $-1 37.660277768350852 17.622789788947603 8.3229937937927296 #
point $-1 24.755714397406237 27.992192887105848 0.78918130589448054 #
straight-curve $-1 0 27.992192887105848 8.3229937937927243 -1 0 0 I I #
vertex $-1 $662 $808 #
point $-1 28.336627071595167 21.89401775836161 3.2987990545060017 #
vertex $-1 $666 $809 #
point $-1 32.207996082878545 21.89401775836161 3.2987990545060017 #
vertex $-1 $670 $810 #
point $-1 36.079365094161936 21.89401775836161 3.2987990545060017 #
point $-1 41.633350627155373 27.992192887105848 -8.3229937937927243 #
point $-1 41.633350627155373 -27.992192887105848 -8.3229937937927243 #
straight-curve $-1 41.633350627155373 -27.992192887105848 0 0 0 -1 I I #
straight-curve $-1 41.633350627155373 27.992192887105848 0 0 0 -1 I I #
edge $-1 $707 -2.1202081818954213 $696 2.1202081818954213 $693 $811 forward 7 unknown #
straight-curve $-1 -48.626768578363162 -15.254109781835165 0 0 0 -1 I I #
straight-curve $-1 -45.130059602759268 -19.494526145626008 8.3229937937927243 1 0 0 I I #
point $-1 -48.626768578363162 -19.494526145626008 8.3229937937927243 #
point $-1 -48.626768578363162 -19.494526145626008 -8.3229937937927243 #
straight-curve $-1 -48.626768578363162 -17.374317963730586 -8.3229937937927243 0 1 0 I I #
point $-1 -48.626768578363162 -15.254109781835165 -8.3229937937927243 #
point $-1 -48.626768578363162 -15.254109781835165 8.3229937937927243 #
straight-curve $-1 -30.666859817143052 -27.992192887105848 34.076678615941624 0 0 -1 I I #
point $-1 -30.666859817143052 -27.992192887105848 8.3229937937927243 #
straight-curve $-1 -12.107289065835372 -27.992192887105848 0.78918130589448354 1 0 0 I I #
point $-1 -30.666859817143052 -27.992192887105848 0.7891813058944851 #
point $-1 -28.085947142954129 -21.306232498559812 2.4897820655869052 #
point $-1 -24.214578131670745 -21.306232498559812 2.4897820655869052 #
point $-1 -20.34320912038736 -21.306232498559812 2.4897820655869052 #
straight-curve $-1 24.755714397406237 -27.992192887105848 34.076678615941624 0 0 -1 I I #
point $-1 24.755714397406237 -27.992192887105848 8.3229937937927243 #
straight-curve $-1 15.603998041439272 -27.992192887105848 0.78918130589448354 1 0 0 I I #
point $-1 24.755714397406237 -27.992192887105848 0.7891813058944851 #
point $-1 27.336627071595167 -21.306232498559812 2.4897820655869052 #
point $-1 31.207996082878545 -21.306232498559812 2.4897820655869052 #
point $-1 35.079365094161936 -21.306232498559812 2.4897820655869052 #
straight-curve $-1 -17.762296446198437 27.992192887105848 50.530076984511297 0 0 -1 I I #
point $-1 -17.762296446198437 27.992192887105848 8.3229937937927243 #
straight-curve $-1 -12.107289065835372 27.992192887105848 0.78918130589448054 -1 0 0 I I #
point $-1 -17.762296446198437 27.992192887105848 0.78918130589448054 #
point $-1 -28.085947142954129 21.306232498559805 2.4897820655869016 #
point $-1 -24.214578131670745 21.306232498559805 2.4897820655869016 #
point $-1 -20.34320912038736 21.306232498559805 2.4897820655869016 #
straight-curve $-1 37.660277768350852 27.992192887105848 50.530076984511297 0 0 -1 I I #
point $-1 37.660277768350852 27.992192887105848 8.3229937937927243 #
straight-curve $-1 15.603998041439272 27.992192887105848 0.78918130589448054 -1 0 0 I I #
point $-1 37.660277768350852 27.992192887105848 0.78918130589448054 #
point $-1 27.336627071595167 21.306232498559805 2.4897820655869016 #
point $-1 31.207996082878545 21.306232498559805 2.4897820655869016 #
point $-1 35.079365094161936 21.306232498559805 2.4897820655869016 #
straight-curve $-1 -48.626768578363162 -17.374317963730586 8.3229937937927243 0 -1 0 I I #
End-of-ACIS-data 