500 0 9 0           
7 Unknown 11 ACIS 5.0 NT 24 Thu Mar 25 22:55:48 1999 
-1 9.9999999999999995e-007 1e-010 
body $-1 $9 $-1 $10 #
body $-1 $11 $-1 $12 #
body $-1 $13 $-1 $14 #
body $-1 $15 $-1 $16 #
body $-1 $17 $-1 $18 #
body $-1 $19 $-1 $20 #
body $-1 $21 $-1 $22 #
body $-1 $23 $-1 $24 #
body $-1 $25 $-1 $26 #
lump $-1 $-1 $27 $0 #
transform $-1 1 0 0 0 1 0 0 0 1 64.640644550920143 30.696760446015592 10.771549168623533 1 rotate no_reflect no_shear #
lump $-1 $-1 $28 $1 #
transform $-1 1 0 0 0 1 0 0 0 1 64.640644550920143 30.696760446015592 10.771549168623533 1 rotate no_reflect no_shear #
lump $-1 $-1 $29 $2 #
transform $-1 1 0 0 0 1 0 0 0 1 64.640644550920143 30.696760446015592 10.771549168623533 1 rotate no_reflect no_shear #
lump $-1 $-1 $30 $3 #
transform $-1 1 0 0 0 1 0 0 0 1 64.640644550920143 30.696760446015592 10.771549168623533 1 rotate no_reflect no_shear #
lump $-1 $-1 $31 $4 #
transform $-1 1 0 0 0 1 0 0 0 1 64.640644550920143 30.696760446015592 10.771549168623533 1 rotate no_reflect no_shear #
lump $-1 $-1 $32 $5 #
transform $-1 1 0 0 0 1 0 0 0 1 64.640644550920143 30.696760446015592 10.771549168623533 1 rotate no_reflect no_shear #
lump $-1 $-1 $33 $6 #
transform $-1 1 0 0 0 1 0 0 0 1 64.640644550920143 30.696760446015592 10.771549168623533 1 rotate no_reflect no_shear #
lump $-1 $-1 $34 $7 #
transform $-1 1 0 0 0 1 0 0 0 1 64.640644550920143 30.696760446015592 10.771549168623533 1 rotate no_reflect no_shear #
lump $-1 $-1 $35 $8 #
transform $-1 1 0 0 0 1 0 0 0 1 64.640644550920143 30.696760446015592 10.771549168623533 1 rotate no_reflect no_shear #
shell $-1 $-1 $-1 $36 $-1 $9 #
shell $-1 $-1 $-1 $37 $-1 $11 #
shell $-1 $-1 $-1 $38 $-1 $13 #
shell $-1 $-1 $-1 $39 $-1 $15 #
shell $-1 $-1 $-1 $40 $-1 $17 #
shell $-1 $-1 $-1 $41 $-1 $19 #
shell $-1 $-1 $-1 $42 $-1 $21 #
shell $-1 $-1 $-1 $43 $-1 $23 #
shell $-1 $-1 $-1 $44 $-1 $25 #
face $-1 $45 $46 $27 $-1 $47 reversed single #
face $-1 $48 $49 $28 $-1 $50 forward single #
face $-1 $51 $52 $29 $-1 $53 forward single #
face $-1 $54 $55 $30 $-1 $56 reversed single #
face $-1 $57 $58 $31 $-1 $59 forward single #
face $-1 $60 $61 $32 $-1 $62 forward single #
face $-1 $63 $64 $33 $-1 $65 reversed single #
face $-1 $66 $67 $34 $-1 $68 forward single #
face $-1 $69 $70 $35 $-1 $71 forward single #
face $-1 $72 $73 $27 $-1 $74 reversed single #
loop $-1 $-1 $75 $36 #
plane-surface $-1 64.640644550920143 0 0 -1 0 0 0 0 1 forward_v I I I I #
face $-1 $76 $77 $28 $-1 $78 reversed single #
loop $-1 $-1 $79 $37 #
plane-surface $-1 -64.640644550920143 0 0 1 0 0 0 0 -1 forward_v I I I I #
face $-1 $80 $81 $29 $-1 $82 reversed single #
loop $-1 $-1 $83 $38 #
plane-surface $-1 64.640644550920143 0 0 -1 0 0 0 0 1 forward_v I I I I #
face $-1 $84 $85 $30 $-1 $86 reversed single #
loop $-1 $-1 $87 $39 #
plane-surface $-1 53.420409586823894 -102.9899408028861 109.6157926800486 -1 0 0 0 -0.55919291073839883 0.82903756765294845 forward_v I I I I #
face $-1 $88 $89 $31 $-1 $90 forward single #
loop $-1 $91 $92 $40 #
cone-surface $-1 35.508179595355827 -22.660622715654654 3.8499772075423886 0 0.55919291073839883 -0.82903756765294845 2.5 0 0 1 I I 0 1 2.5 forward I I I I #
face $-1 $93 $94 $32 $-1 $95 forward single #
loop $-1 $96 $97 $41 #
cone-surface $-1 46.255517590236664 -22.660622715654654 3.8499772075423886 0 0.55919291073839883 -0.82903756765294845 2.5 0 0 1 I I 0 1 2.5 forward I I I I #
face $-1 $98 $99 $33 $-1 $100 reversed single #
loop $-1 $-1 $101 $42 #
plane-surface $-1 28.343287598768597 52.092405572906088 143.94661432814223 1 0 0 0 -0.55919291073839883 -0.82903756765294845 forward_v I I I I #
face $-1 $102 $103 $34 $-1 $104 forward single #
loop $-1 $105 $106 $43 #
cone-surface $-1 35.508179595355827 22.66062271565465 3.8499772075423886 0 -0.55919291073839883 -0.82903756765294845 2.5 0 0 1 I I 0 1 2.5 forward I I I I #
face $-1 $107 $108 $35 $-1 $109 forward single #
loop $-1 $110 $111 $44 #
cone-surface $-1 46.255517590236664 22.66062271565465 3.8499772075423886 0 -0.55919291073839883 -0.82903756765294845 2.5 0 0 1 I I 0 1 2.5 forward I I I I #
face $-1 $112 $113 $27 $-1 $114 forward single #
loop $-1 $-1 $115 $45 #
plane-surface $-1 -64.640644550920143 0 0 1 0 0 0 0 -1 forward_v I I I I #
coedge $-1 $116 $117 $118 $119 reversed $46 $-1 #
face $-1 $120 $121 $28 $-1 $122 reversed single #
loop $-1 $-1 $123 $48 #
plane-surface $-1 0 0 -10.771549168623533 0 0 1 1 0 0 forward_v I I I I #
coedge $-1 $124 $125 $126 $127 forward $49 $-1 #
face $-1 $128 $129 $29 $-1 $130 reversed single #
loop $-1 $-1 $131 $51 #
plane-surface $-1 0 0 -10.771549168623533 0 0 1 1 0 0 forward_v I I I I #
coedge $-1 $132 $133 $134 $135 forward $52 $-1 #
face $-1 $136 $137 $30 $-1 $138 reversed single #
loop $-1 $-1 $139 $54 #
plane-surface $-1 40.881848592796246 -30.696760446015588 2.436747220021303 0 -0.55919291073839883 0.82903756765294845 1 0 0 forward_v I I I I #
coedge $-1 $140 $141 $142 $143 reversed $55 $-1 #
face $-1 $-1 $144 $31 $-1 $145 forward single #
loop $-1 $146 $147 $57 #
cone-surface $-1 35.508179595355827 -20.103919754679488 0.059509261196172503 0 0.55919291073839883 -0.82903756765294845 1.25 0 0 1 I I -0.70710678118654746 0.70710678118654746 1.25 forward I I I I #
loop $-1 $-1 $148 $40 #
coedge $-1 $92 $92 $149 $150 reversed $58 $-1 #
face $-1 $-1 $151 $32 $-1 $152 forward single #
loop $-1 $153 $154 $60 #
cone-surface $-1 46.255517590236664 -20.103919754679488 0.059509261196172503 0 0.55919291073839883 -0.82903756765294845 1.25 0 0 1 I I -0.70710678118654746 0.70710678118654746 1.25 forward I I I I #
loop $-1 $-1 $155 $41 #
coedge $-1 $97 $97 $156 $157 reversed $61 $-1 #
face $-1 $158 $159 $33 $-1 $160 reversed single #
loop $-1 $-1 $161 $63 #
plane-surface $-1 40.881848592796246 -20.20077478396442 36.767568868114935 0 0.55919291073839883 0.82903756765294845 1 0 0 forward_v I I I I #
coedge $-1 $162 $163 $164 $165 reversed $64 $-1 #
face $-1 $-1 $166 $34 $-1 $167 forward single #
loop $-1 $168 $169 $66 #
cone-surface $-1 35.508179595355827 20.103919754679485 0.059509261196172503 0 -0.55919291073839883 -0.82903756765294845 1.25 0 0 1 I I -0.70710678118654746 0.70710678118654746 1.25 forward I I I I #
loop $-1 $-1 $170 $43 #
coedge $-1 $106 $106 $171 $172 reversed $67 $-1 #
face $-1 $-1 $173 $35 $-1 $174 forward single #
loop $-1 $175 $176 $69 #
cone-surface $-1 46.255517590236664 20.103919754679485 0.059509261196172503 0 -0.55919291073839883 -0.82903756765294845 1.25 0 0 1 I I -0.70710678118654746 0.70710678118654746 1.25 forward I I I I #
loop $-1 $-1 $177 $44 #
coedge $-1 $111 $111 $178 $179 reversed $70 $-1 #
face $-1 $180 $181 $27 $-1 $182 reversed single #
loop $-1 $-1 $183 $72 #
plane-surface $-1 0 0 10.771549168623533 0 0 1 1 0 0 forward_v I I I I #
coedge $-1 $184 $185 $186 $187 reversed $73 $-1 #
coedge $-1 $188 $75 $189 $190 reversed $46 $-1 #
coedge $-1 $75 $188 $191 $192 forward $46 $-1 #
coedge $-1 $193 $194 $75 $119 forward $181 $-1 #
edge $-1 $195 -30.696760446015592 $196 30.696760446015592 $75 $197 forward 7 unknown #
face $-1 $198 $199 $28 $-1 $200 reversed single #
loop $-1 $-1 $201 $76 #
plane-surface $-1 -70.250762032968268 -19.55953558465982 0 0 1 0 0 0 1 forward_v I I I I #
coedge $-1 $202 $203 $125 $204 forward $77 $-1 #
coedge $-1 $205 $79 $206 $207 reversed $49 $-1 #
coedge $-1 $79 $205 $123 $204 reversed $49 $-1 #
coedge $-1 $208 $209 $79 $127 reversed $210 $-1 #
edge $-1 $211 -10.771549168623533 $212 10.771549168623533 $126 $213 forward 7 unknown #
face $-1 $214 $215 $29 $-1 $216 reversed single #
loop $-1 $-1 $134 $80 #
plane-surface $-1 70.250762032968254 -19.55953558465982 0 0 1 0 0 0 1 forward_v I I I I #
coedge $-1 $217 $218 $133 $219 forward $81 $-1 #
coedge $-1 $220 $83 $221 $222 reversed $52 $-1 #
coedge $-1 $83 $220 $131 $219 reversed $52 $-1 #
coedge $-1 $223 $224 $83 $135 reversed $129 $-1 #
edge $-1 $225 -10.771549168623533 $226 10.771549168623533 $134 $227 forward 7 unknown #
face $-1 $228 $229 $30 $-1 $230 forward single #
loop $-1 $-1 $231 $84 #
plane-surface $-1 28.343287598768597 -102.9899408028861 109.6157926800486 1 0 0 0 0.55919291073839883 -0.82903756765294845 forward_v I I I I #
coedge $-1 $232 $233 $234 $235 reversed $85 $-1 #
coedge $-1 $141 $87 $236 $237 reversed $55 $-1 #
coedge $-1 $87 $140 $232 $238 reversed $55 $-1 #
coedge $-1 $234 $239 $87 $143 forward $229 $-1 #
edge $-1 $240 20.798209955427456 $241 33.155061771045013 $142 $242 forward 7 unknown #
loop $-1 $-1 $149 $88 #
plane-surface $-1 40.881848592796246 -30.696760446015588 2.436747220021303 0 -0.55919291073839883 0.82903756765294845 1 0 0 forward_v I I I I #
loop $-1 $-1 $243 $57 #
coedge $-1 $147 $147 $148 $244 reversed $89 $-1 #
coedge $-1 $148 $148 $147 $244 forward $91 $-1 #
coedge $-1 $149 $149 $92 $150 forward $144 $-1 #
edge $-1 $245 -1.8480709120176177e-016 $245 6.2831853071796004 $149 $246 forward 7 unknown #
loop $-1 $-1 $156 $93 #
plane-surface $-1 40.881848592796246 -30.696760446015588 2.436747220021303 0 -0.55919291073839883 0.82903756765294845 1 0 0 forward_v I I I I #
loop $-1 $-1 $247 $60 #
coedge $-1 $154 $154 $155 $248 reversed $94 $-1 #
coedge $-1 $155 $155 $154 $248 forward $96 $-1 #
coedge $-1 $156 $156 $97 $157 forward $151 $-1 #
edge $-1 $249 -1.8480709120176177e-016 $249 6.2831853071796004 $156 $250 forward 7 unknown #
face $-1 $251 $252 $33 $-1 $253 reversed single #
loop $-1 $-1 $254 $98 #
plane-surface $-1 53.420409586823894 52.092405572906088 143.94661432814223 -1 0 0 0 0.55919291073839883 0.82903756765294845 forward_v I I I I #
coedge $-1 $255 $256 $257 $258 reversed $99 $-1 #
coedge $-1 $163 $101 $259 $260 reversed $64 $-1 #
coedge $-1 $101 $162 $255 $261 reversed $64 $-1 #
coedge $-1 $257 $262 $101 $165 forward $263 $-1 #
edge $-1 $264 -4.6505576595625477 $265 7.7062941560549874 $164 $266 forward 7 unknown #
loop $-1 $-1 $171 $102 #
plane-surface $-1 40.881848592796246 -20.20077478396442 36.767568868114935 0 0.55919291073839883 0.82903756765294845 1 0 0 forward_v I I I I #
loop $-1 $-1 $267 $66 #
coedge $-1 $169 $169 $170 $268 reversed $103 $-1 #
coedge $-1 $170 $170 $169 $268 forward $105 $-1 #
coedge $-1 $171 $171 $106 $172 forward $166 $-1 #
edge $-1 $269 -1.8480709120176177e-016 $269 6.2831853071796004 $171 $270 forward 7 unknown #
loop $-1 $-1 $178 $107 #
plane-surface $-1 40.881848592796246 -20.20077478396442 36.767568868114935 0 0.55919291073839883 0.82903756765294845 1 0 0 forward_v I I I I #
loop $-1 $-1 $271 $69 #
coedge $-1 $176 $176 $177 $272 reversed $108 $-1 #
coedge $-1 $177 $177 $176 $272 forward $110 $-1 #
coedge $-1 $178 $178 $111 $179 forward $173 $-1 #
edge $-1 $273 -1.8480709120176177e-016 $273 6.2831853071796004 $178 $274 forward 7 unknown #
face $-1 $275 $276 $27 $-1 $277 reversed single #
loop $-1 $-1 $118 $112 #
plane-surface $-1 0 0 -10.771549168623533 0 0 1 1 0 0 forward_v I I I I #
coedge $-1 $278 $279 $188 $280 forward $113 $-1 #
coedge $-1 $281 $115 $282 $283 reversed $73 $-1 #
coedge $-1 $115 $281 $284 $285 forward $73 $-1 #
coedge $-1 $194 $193 $115 $187 forward $181 $-1 #
edge $-1 $286 -30.696760446015592 $287 30.696760446015592 $115 $288 forward 7 unknown #
coedge $-1 $117 $116 $183 $280 reversed $46 $-1 #
coedge $-1 $289 $290 $116 $190 forward $291 $-1 #
edge $-1 $292 -10.771549168623533 $195 10.771549168623533 $116 $293 forward 7 unknown #
coedge $-1 $294 $295 $117 $192 reversed $276 $-1 #
edge $-1 $296 -10.771549168623533 $196 10.771549168623533 $117 $297 forward 7 unknown #
coedge $-1 $186 $118 $295 $298 forward $181 $-1 #
coedge $-1 $118 $186 $289 $299 forward $181 $-1 #
vertex $-1 $119 $300 #
vertex $-1 $192 $301 #
straight-curve $-1 64.640644550920143 0 -10.771549168623533 0 -1 0 I I #
face $-1 $302 $210 $28 $-1 $303 reversed single #
loop $-1 $-1 $304 $120 #
plane-surface $-1 -75.860879515016393 -16.661075970576427 0 1 0 0 0 0 -1 forward_v I I I I #
coedge $-1 $305 $306 $307 $308 forward $121 $-1 #
coedge $-1 $309 $123 $305 $310 forward $77 $-1 #
coedge $-1 $123 $309 $208 $311 forward $77 $-1 #
edge $-1 $211 13.762616356493034 $312 19.55953558465982 $123 $313 forward 7 unknown #
coedge $-1 $125 $124 $314 $315 forward $49 $-1 #
coedge $-1 $316 $317 $124 $207 forward $318 $-1 #
edge $-1 $319 -19.55953558465982 $212 -13.762616356493034 $206 $320 forward 7 unknown #
coedge $-1 $321 $126 $203 $311 reversed $210 $-1 #
coedge $-1 $126 $321 $316 $322 reversed $210 $-1 #
loop $-1 $-1 $126 $198 #
vertex $-1 $204 $323 #
vertex $-1 $322 $324 #
straight-curve $-1 -64.640644550920143 -13.762616356493034 0 0 0 1 I I #
face $-1 $325 $326 $29 $-1 $327 reversed single #
loop $-1 $-1 $328 $128 #
plane-surface $-1 70.250762032968254 -13.762616356493034 0 0 -1 0 0 0 -1 forward_v I I I I #
coedge $-1 $329 $131 $330 $331 forward $81 $-1 #
coedge $-1 $131 $329 $223 $332 forward $81 $-1 #
edge $-1 $225 -19.55953558465982 $333 -13.762616356493034 $131 $334 forward 7 unknown #
coedge $-1 $133 $132 $335 $336 forward $52 $-1 #
coedge $-1 $337 $338 $132 $222 forward $339 $-1 #
edge $-1 $340 13.762616356493034 $226 19.55953558465982 $221 $341 forward 7 unknown #
coedge $-1 $342 $134 $218 $332 reversed $129 $-1 #
coedge $-1 $134 $342 $337 $343 reversed $129 $-1 #
vertex $-1 $219 $344 #
vertex $-1 $343 $345 #
straight-curve $-1 64.640644550920143 -19.55953558465982 0 0 0 1 I I #
face $-1 $-1 $346 $30 $-1 $347 reversed single #
loop $-1 $-1 $142 $136 #
plane-surface $-1 0 0 10.771549168623533 0 0 1 1 0 0 forward_v I I I I #
coedge $-1 $348 $349 $350 $351 reversed $137 $-1 #
coedge $-1 $352 $139 $141 $238 forward $85 $-1 #
coedge $-1 $139 $352 $348 $353 forward $85 $-1 #
coedge $-1 $350 $142 $139 $235 forward $229 $-1 #
edge $-1 $241 -32.979485290425771 $354 -7.9023633023704747 $234 $355 forward 7 unknown #
coedge $-1 $356 $357 $140 $237 forward $346 $-1 #
edge $-1 $358 -52.371149120002997 $240 -44.036347171400763 $236 $359 forward 7 unknown #
edge $-1 $241 -14.905056535134456 $358 4.1869907962579859e-015 $141 $360 forward 7 unknown #
coedge $-1 $142 $350 $356 $361 forward $229 $-1 #
vertex $-1 $143 $362 #
vertex $-1 $143 $363 #
straight-curve $-1 53.420409586823894 -51.494970401443048 10.77154916862353 0 1 0 I I #
coedge $-1 $243 $243 $-1 $364 reversed $146 $-1 #
edge $-1 $365 0 $365 6.2831853071796004 $147 $366 forward 7 unknown #
vertex $-1 $150 $367 #
ellipse-curve $-1 35.508179595355827 -24.518334538206815 6.6041481943224145 0 -0.55919291073839883 0.82903756765294845 2.5 0 0 1 I I #
coedge $-1 $247 $247 $-1 $368 reversed $153 $-1 #
edge $-1 $369 0 $369 6.2831853071796004 $154 $370 forward 7 unknown #
vertex $-1 $157 $371 #
ellipse-curve $-1 46.255517590236664 -24.518334538206815 6.6041481943224145 0 -0.55919291073839883 0.82903756765294845 2.5 0 0 1 I I #
face $-1 $-1 $263 $33 $-1 $372 forward single #
loop $-1 $-1 $373 $158 #
plane-surface $-1 0 30.696760446015592 0 0 -1 0 0 0 -1 forward_v I I I I #
coedge $-1 $374 $375 $376 $377 reversed $159 $-1 #
coedge $-1 $378 $161 $163 $261 forward $99 $-1 #
coedge $-1 $161 $378 $374 $379 forward $99 $-1 #
coedge $-1 $376 $164 $161 $258 forward $263 $-1 #
edge $-1 $265 7.9023633023704747 $380 32.979485290425771 $257 $381 forward 7 unknown #
coedge $-1 $382 $383 $162 $260 forward $252 $-1 #
edge $-1 $384 -69.536559944049799 $264 -61.201757995447579 $259 $385 forward 7 unknown #
edge $-1 $265 46.488464356896756 $384 61.393520892031184 $163 $386 forward 7 unknown #
coedge $-1 $164 $376 $382 $387 forward $263 $-1 #
loop $-1 $-1 $376 $251 #
vertex $-1 $260 $388 #
vertex $-1 $165 $389 #
straight-curve $-1 28.343287598768597 26.046202786453044 10.771549168623537 0 -1 0 I I #
coedge $-1 $267 $267 $-1 $390 reversed $168 $-1 #
edge $-1 $391 0 $391 6.2831853071796004 $169 $392 forward 7 unknown #
vertex $-1 $172 $393 #
ellipse-curve $-1 35.508179595355827 24.518334538206819 6.6041481943224234 0 0.55919291073839883 0.82903756765294845 2.5 0 0 1 I I #
coedge $-1 $271 $271 $-1 $394 reversed $175 $-1 #
edge $-1 $395 0 $395 6.2831853071796004 $176 $396 forward 7 unknown #
vertex $-1 $179 $397 #
ellipse-curve $-1 46.255517590236664 24.518334538206819 6.6041481943224234 0 0.55919291073839883 0.82903756765294845 2.5 0 0 1 I I #
face $-1 $-1 $291 $27 $-1 $398 reversed single #
loop $-1 $-1 $282 $180 #
plane-surface $-1 0 -30.696760446015592 0 0 1 0 0 0 1 forward_v I I I I #
coedge $-1 $399 $183 $290 $400 forward $113 $-1 #
coedge $-1 $183 $399 $294 $401 forward $113 $-1 #
edge $-1 $296 -30.696760446015592 $292 30.696760446015592 $188 $402 forward 7 unknown #
coedge $-1 $185 $184 $399 $403 reversed $73 $-1 #
coedge $-1 $295 $294 $184 $283 forward $276 $-1 #
edge $-1 $404 -10.771549168623533 $286 10.771549168623533 $184 $405 forward 7 unknown #
coedge $-1 $290 $289 $185 $285 reversed $291 $-1 #
edge $-1 $406 -10.771549168623533 $287 10.771549168623533 $284 $407 forward 7 unknown #
vertex $-1 $187 $408 #
vertex $-1 $299 $409 #
straight-curve $-1 -64.640644550920143 0 -10.771549168623533 0 1 0 I I #
coedge $-1 $284 $189 $194 $299 reversed $291 $-1 #
coedge $-1 $189 $284 $278 $400 reversed $291 $-1 #
loop $-1 $-1 $189 $275 #
vertex $-1 $280 $410 #
straight-curve $-1 64.640644550920143 30.696760446015592 0 0 0 -1 I I #
coedge $-1 $282 $191 $279 $401 reversed $276 $-1 #
coedge $-1 $191 $282 $193 $298 reversed $276 $-1 #
vertex $-1 $280 $411 #
straight-curve $-1 64.640644550920143 -30.696760446015592 0 0 0 -1 I I #
edge $-1 $196 -64.640644550920143 $286 64.640644550920143 $295 $412 forward 7 unknown #
edge $-1 $287 -64.640644550920143 $195 64.640644550920143 $289 $413 forward 7 unknown #
point $-1 64.640644550920143 30.696760446015592 -10.771549168623533 #
point $-1 64.640644550920143 -30.696760446015592 -10.771549168623533 #
face $-1 $-1 $318 $28 $-1 $414 forward single #
plane-surface $-1 -70.250762032968268 -13.762616356493034 0 0 -1 0 0 0 -1 forward_v I I I I #
coedge $-1 $415 $416 $321 $417 forward $199 $-1 #
coedge $-1 $314 $201 $202 $310 reversed $121 $-1 #
coedge $-1 $201 $314 $317 $418 reversed $121 $-1 #
coedge $-1 $416 $415 $201 $308 reversed $199 $-1 #
edge $-1 $419 -10.771549168623533 $420 10.771549168623533 $307 $421 forward 7 unknown #
coedge $-1 $203 $202 $415 $422 forward $77 $-1 #
edge $-1 $312 -5.6101174820481248 $420 5.6101174820481248 $305 $423 forward 7 unknown #
edge $-1 $424 -5.6101174820481248 $211 5.6101174820481248 $208 $425 forward 7 unknown #
vertex $-1 $310 $426 #
straight-curve $-1 -64.640644550920143 0 -10.771549168623533 0 -1 0 I I #
coedge $-1 $306 $305 $205 $315 reversed $121 $-1 #
edge $-1 $319 -10.771549168623533 $312 10.771549168623533 $314 $427 forward 7 unknown #
coedge $-1 $428 $206 $209 $322 forward $318 $-1 #
coedge $-1 $206 $428 $306 $418 forward $318 $-1 #
loop $-1 $-1 $206 $302 #
vertex $-1 $207 $429 #
straight-curve $-1 -64.640644550920143 0 10.771549168623533 0 1 0 I I #
coedge $-1 $209 $208 $304 $417 reversed $210 $-1 #
edge $-1 $212 -5.6101174820481248 $430 5.6101174820481248 $209 $431 forward 7 unknown #
point $-1 -64.640644550920143 -13.762616356493034 -10.771549168623533 #
point $-1 -64.640644550920143 -13.762616356493034 10.771549168623533 #
face $-1 $-1 $339 $29 $-1 $432 forward single #
loop $-1 $-1 $433 $214 #
plane-surface $-1 75.860879515016379 -16.661075970576427 0 -1 0 0 0 0 1 forward_v I I I I #
coedge $-1 $330 $434 $435 $436 forward $215 $-1 #
coedge $-1 $218 $217 $437 $438 forward $81 $-1 #
coedge $-1 $335 $328 $217 $331 reversed $215 $-1 #
edge $-1 $333 -5.6101174820481248 $439 5.6101174820481248 $330 $440 forward 7 unknown #
edge $-1 $441 -5.6101174820481248 $225 5.6101174820481248 $223 $442 forward 7 unknown #
vertex $-1 $331 $443 #
straight-curve $-1 64.640644550920143 0 -10.771549168623533 0 1 0 I I #
coedge $-1 $434 $330 $220 $336 reversed $215 $-1 #
edge $-1 $340 -10.771549168623533 $333 10.771549168623533 $335 $444 forward 7 unknown #
coedge $-1 $445 $221 $224 $343 forward $339 $-1 #
coedge $-1 $221 $445 $434 $446 forward $339 $-1 #
loop $-1 $-1 $221 $325 #
vertex $-1 $222 $447 #
straight-curve $-1 64.640644550920143 0 10.771549168623533 0 -1 0 I I #
coedge $-1 $224 $223 $433 $448 reversed $129 $-1 #
edge $-1 $226 -5.6101174820481248 $449 5.6101174820481248 $224 $450 forward 7 unknown #
point $-1 64.640644550920129 -19.55953558465982 -10.771549168623533 #
point $-1 64.640644550920129 -19.55953558465982 10.771549168623533 #
loop $-1 $-1 $236 $228 #
plane-surface $-1 0 -30.696760446015592 0 0 1 0 0 0 1 forward_v I I I I #
coedge $-1 $349 $231 $233 $353 reversed $137 $-1 #
coedge $-1 $231 $348 $451 $452 reversed $137 $-1 #
coedge $-1 $239 $234 $231 $351 forward $229 $-1 #
edge $-1 $354 -33.155061771045013 $453 -20.798209955427456 $350 $454 forward 7 unknown #
coedge $-1 $233 $232 $357 $455 reversed $85 $-1 #
edge $-1 $456 -4.1869907962579859e-015 $354 14.905056535134456 $348 $457 forward 7 unknown #
vertex $-1 $235 $458 #
straight-curve $-1 20.440924296398123 -18.339908630398035 10.771549168623533 -1 0 0 I I #
coedge $-1 $451 $236 $239 $361 reversed $346 $-1 #
coedge $-1 $236 $451 $352 $455 forward $346 $-1 #
vertex $-1 $237 $459 #
straight-curve $-1 53.420409586823894 -30.696760446015588 54.8078963400243 0 0 1 I I #
straight-curve $-1 53.420409586823894 -30.696760446015588 2.436747220021303 0 -0.82903756765294845 -0.55919291073839883 I I #
edge $-1 $453 28.343287598768597 $240 53.420409586823894 $356 $460 forward 7 unknown #
point $-1 53.420409586823894 -30.696760446015592 10.771549168623533 #
point $-1 53.420409586823894 -18.339908630398035 10.771549168623533 #
edge $-1 $461 1 $461 0 $243 $-1 forward 7 unknown #
vertex $-1 $244 $462 #
ellipse-curve $-1 35.508179595355827 -20.802910893102485 1.095806220762358 0 -0.55919291073839883 0.82903756765294845 2.5 0 0 1 I I #
point $-1 38.008179595355827 -24.518334538206819 6.604148194322419 #
edge $-1 $463 1 $463 0 $247 $-1 forward 7 unknown #
vertex $-1 $248 $464 #
ellipse-curve $-1 46.255517590236664 -20.802910893102485 1.095806220762358 0 -0.55919291073839883 0.82903756765294845 2.5 0 0 1 I I #
point $-1 48.755517590236664 -24.518334538206819 6.604148194322419 #
plane-surface $-1 0 0 10.771549168623533 0 0 1 1 0 0 forward_v I I I I #
coedge $-1 $383 $382 $375 $465 forward $252 $-1 #
coedge $-1 $375 $254 $256 $379 reversed $159 $-1 #
coedge $-1 $254 $374 $373 $465 reversed $159 $-1 #
coedge $-1 $262 $257 $254 $377 forward $263 $-1 #
edge $-1 $380 -7.7062941560549874 $466 4.6505576595625477 $376 $467 forward 7 unknown #
coedge $-1 $256 $255 $383 $468 reversed $99 $-1 #
edge $-1 $469 -61.393520892031184 $380 -46.488464356896756 $374 $470 forward 7 unknown #
vertex $-1 $258 $471 #
straight-curve $-1 20.440924296398123 18.339908630398057 10.771549168623533 1 0 0 I I #
coedge $-1 $373 $259 $262 $387 reversed $252 $-1 #
coedge $-1 $259 $373 $378 $468 forward $252 $-1 #
vertex $-1 $260 $472 #
straight-curve $-1 28.343287598768597 30.696760446015592 71.973307164071116 0 0 1 I I #
straight-curve $-1 28.343287598768597 -20.20077478396442 36.767568868114935 0 0.82903756765294845 -0.55919291073839883 I I #
edge $-1 $466 -53.420409586823894 $264 -28.343287598768597 $382 $473 forward 7 unknown #
point $-1 28.343287598768597 30.696760446015592 10.771549168623533 #
point $-1 28.343287598768597 18.339908630398057 10.771549168623533 #
edge $-1 $474 1 $474 0 $267 $-1 forward 7 unknown #
vertex $-1 $268 $475 #
ellipse-curve $-1 35.508179595355827 20.802910893102482 1.095806220762358 0 0.55919291073839883 0.82903756765294845 2.5 0 0 1 I I #
point $-1 38.008179595355827 24.518334538206815 6.604148194322419 #
edge $-1 $476 1 $476 0 $271 $-1 forward 7 unknown #
vertex $-1 $272 $477 #
ellipse-curve $-1 46.255517590236664 20.802910893102482 1.095806220762358 0 0.55919291073839883 0.82903756765294845 2.5 0 0 1 I I #
point $-1 48.755517590236664 24.518334538206815 6.604148194322419 #
plane-surface $-1 0 30.696760446015592 0 0 -1 0 0 0 -1 forward_v I I I I #
coedge $-1 $279 $278 $281 $403 forward $113 $-1 #
edge $-1 $292 -64.640644550920143 $406 64.640644550920143 $290 $478 forward 7 unknown #
edge $-1 $404 -64.640644550920143 $296 64.640644550920143 $294 $479 forward 7 unknown #
straight-curve $-1 64.640644550920143 0 10.771549168623533 0 1 0 I I #
edge $-1 $406 -30.696760446015592 $404 30.696760446015592 $281 $480 forward 7 unknown #
vertex $-1 $403 $481 #
straight-curve $-1 -64.640644550920143 -30.696760446015592 0 0 0 -1 I I #
vertex $-1 $400 $482 #
straight-curve $-1 -64.640644550920143 30.696760446015592 0 0 0 -1 I I #
point $-1 -64.640644550920143 -30.696760446015592 -10.771549168623533 #
point $-1 -64.640644550920143 30.696760446015592 -10.771549168623533 #
point $-1 64.640644550920143 30.696760446015592 10.771549168623533 #
point $-1 64.640644550920143 -30.696760446015592 10.771549168623533 #
straight-curve $-1 0 -30.696760446015592 -10.771549168623533 -1 0 0 I I #
straight-curve $-1 0 30.696760446015592 -10.771549168623533 1 0 0 I I #
plane-surface $-1 0 0 10.771549168623533 0 0 1 1 0 0 forward_v I I I I #
coedge $-1 $307 $304 $309 $422 reversed $199 $-1 #
coedge $-1 $304 $307 $428 $483 reversed $199 $-1 #
edge $-1 $430 -10.771549168623533 $424 10.771549168623533 $321 $484 forward 7 unknown #
edge $-1 $419 -5.6101174820481248 $319 5.6101174820481248 $306 $485 forward 7 unknown #
vertex $-1 $483 $486 #
vertex $-1 $422 $487 #
straight-curve $-1 -75.860879515016393 -19.55953558465982 0 0 0 -1 I I #
edge $-1 $420 -2.8984596140833929 $424 2.8984596140833929 $415 $488 forward 7 unknown #
straight-curve $-1 -70.250762032968268 -19.55953558465982 -10.771549168623533 -1 0 0 I I #
vertex $-1 $311 $489 #
straight-curve $-1 -70.250762032968268 -13.762616356493034 -10.771549168623533 1 0 0 I I #
point $-1 -64.640644550920143 -19.55953558465982 -10.771549168623533 #
straight-curve $-1 -64.640644550920143 -19.55953558465982 0 0 0 -1 I I #
coedge $-1 $317 $316 $416 $483 forward $318 $-1 #
point $-1 -64.640644550920143 -19.55953558465982 10.771549168623533 #
vertex $-1 $322 $490 #
straight-curve $-1 -70.250762032968268 -13.762616356493034 10.771549168623533 -1 0 0 I I #
plane-surface $-1 0 0 10.771549168623533 0 0 1 1 0 0 forward_v I I I I #
coedge $-1 $437 $491 $342 $448 forward $326 $-1 #
coedge $-1 $328 $335 $338 $446 reversed $215 $-1 #
coedge $-1 $491 $437 $328 $436 reversed $326 $-1 #
edge $-1 $492 -10.771549168623533 $439 10.771549168623533 $435 $493 forward 7 unknown #
coedge $-1 $435 $433 $329 $438 reversed $326 $-1 #
edge $-1 $439 -2.8984596140833929 $441 2.8984596140833929 $437 $494 forward 7 unknown #
vertex $-1 $438 $495 #
straight-curve $-1 70.250762032968254 -13.762616356493034 -10.771549168623533 1 0 0 I I #
vertex $-1 $448 $496 #
straight-curve $-1 70.250762032968254 -19.55953558465982 -10.771549168623533 -1 0 0 I I #
point $-1 64.640644550920129 -13.762616356493034 -10.771549168623533 #
straight-curve $-1 64.640644550920143 -13.762616356493034 0 0 0 -1 I I #
coedge $-1 $338 $337 $491 $497 forward $339 $-1 #
edge $-1 $492 -5.6101174820481248 $340 5.6101174820481248 $434 $498 forward 7 unknown #
point $-1 64.640644550920129 -13.762616356493034 10.771549168623533 #
edge $-1 $449 -10.771549168623533 $441 10.771549168623533 $433 $499 forward 7 unknown #
vertex $-1 $497 $500 #
straight-curve $-1 70.250762032968254 -19.55953558465982 10.771549168623533 1 0 0 I I #
coedge $-1 $357 $356 $349 $452 forward $346 $-1 #
edge $-1 $453 44.036347171400763 $456 52.371149120002997 $451 $501 forward 7 unknown #
vertex $-1 $361 $502 #
straight-curve $-1 28.343287598768597 -51.494970401443048 10.77154916862353 0 -1 0 I I #
edge $-1 $456 7.9023633023704747 $358 32.979485290425771 $357 $503 forward 7 unknown #
vertex $-1 $455 $504 #
straight-curve $-1 28.343287598768597 -30.696760446015588 2.436747220021303 0 0.82903756765294845 0.55919291073839883 I I #
point $-1 28.343287598768597 -18.339908630398035 10.771549168623533 #
point $-1 53.420409586823894 -30.696760446015592 2.4367472200213007 #
straight-curve $-1 0 -30.696760446015592 10.771549168623533 1 0 0 I I #
vertex $-1 $364 $505 #
point $-1 38.008179595355827 -20.802910893102485 1.095806220762358 #
vertex $-1 $368 $506 #
point $-1 48.755517590236664 -20.802910893102485 1.095806220762358 #
edge $-1 $466 61.201757995447579 $469 69.536559944049799 $373 $507 forward 7 unknown #
vertex $-1 $387 $508 #
straight-curve $-1 53.420409586823894 26.046202786453044 10.771549168623537 0 1 0 I I #
edge $-1 $469 -32.979485290425771 $384 -7.9023633023704747 $383 $509 forward 7 unknown #
vertex $-1 $468 $510 #
straight-curve $-1 53.420409586823894 -20.20077478396442 36.767568868114935 0 -0.82903756765294845 0.55919291073839883 I I #
point $-1 53.420409586823894 18.339908630398057 10.771549168623533 #
point $-1 28.343287598768597 30.696760446015588 2.4367472200213172 #
straight-curve $-1 0 30.696760446015592 10.771549168623533 -1 0 0 I I #
vertex $-1 $390 $511 #
point $-1 38.008179595355827 20.802910893102482 1.095806220762358 #
vertex $-1 $394 $512 #
point $-1 48.755517590236664 20.802910893102482 1.095806220762358 #
straight-curve $-1 0 30.696760446015592 10.771549168623533 -1 0 0 I I #
straight-curve $-1 0 -30.696760446015592 10.771549168623533 1 0 0 I I #
straight-curve $-1 -64.640644550920143 0 10.771549168623533 0 -1 0 I I #
point $-1 -64.640644550920143 -30.696760446015592 10.771549168623533 #
point $-1 -64.640644550920143 30.696760446015592 10.771549168623533 #
edge $-1 $430 -2.8984596140833929 $419 2.8984596140833929 $416 $513 forward 7 unknown #
straight-curve $-1 -75.860879515016393 -13.762616356493034 0 0 0 -1 I I #
straight-curve $-1 -70.250762032968268 -19.55953558465982 10.771549168623533 1 0 0 I I #
point $-1 -75.860879515016393 -19.55953558465982 10.771549168623533 #
point $-1 -75.860879515016393 -19.55953558465982 -10.771549168623533 #
straight-curve $-1 -75.860879515016393 -16.661075970576427 -10.771549168623533 0 1 0 I I #
point $-1 -75.860879515016393 -13.762616356493034 -10.771549168623533 #
point $-1 -75.860879515016393 -13.762616356493034 10.771549168623533 #
coedge $-1 $433 $435 $445 $497 reversed $326 $-1 #
vertex $-1 $497 $514 #
straight-curve $-1 75.860879515016379 -13.762616356493034 0 0 0 -1 I I #
straight-curve $-1 75.860879515016379 -16.661075970576427 -10.771549168623533 0 -1 0 I I #
point $-1 75.860879515016379 -13.762616356493034 -10.771549168623533 #
point $-1 75.860879515016379 -19.55953558465982 -10.771549168623533 #
edge $-1 $449 -2.8984596140833929 $492 2.8984596140833929 $491 $515 forward 7 unknown #
straight-curve $-1 70.250762032968254 -13.762616356493034 10.771549168623533 -1 0 0 I I #
straight-curve $-1 75.860879515016379 -19.55953558465982 0 0 0 -1 I I #
point $-1 75.860879515016379 -19.55953558465982 10.771549168623533 #
straight-curve $-1 28.343287598768597 -30.696760446015588 54.8078963400243 0 0 -1 I I #
point $-1 28.343287598768597 -30.696760446015592 10.771549168623533 #
straight-curve $-1 20.440924296398123 -30.696760446015592 2.4367472200212994 1 0 0 I I #
point $-1 28.343287598768597 -30.696760446015592 2.4367472200213007 #
point $-1 35.508179595355827 -19.404928616256491 -0.976787698370013 #
point $-1 46.255517590236664 -19.404928616256491 -0.976787698370013 #
straight-curve $-1 53.420409586823894 30.696760446015592 71.973307164071116 0 0 -1 I I #
point $-1 53.420409586823894 30.696760446015592 10.771549168623533 #
straight-curve $-1 20.440924296398123 30.696760446015595 2.4367472200213136 -1 0 0 I I #
point $-1 53.420409586823894 30.696760446015588 2.4367472200213172 #
point $-1 35.508179595355827 19.404928616256488 -0.976787698370013 #
point $-1 46.255517590236664 19.404928616256488 -0.976787698370013 #
straight-curve $-1 -75.860879515016393 -16.661075970576427 10.771549168623533 0 -1 0 I I #
point $-1 75.860879515016379 -13.762616356493034 10.771549168623533 #
straight-curve $-1 75.860879515016379 -16.661075970576427 10.771549168623533 0 1 0 I I #
End-of-ACIS-data 