500 0 9 0           
7 Unknown 11 ACIS 5.0 NT 24 Thu Mar 25 18:47:03 1999 
-1 9.9999999999999995e-007 1e-010 
body $-1 $9 $-1 $10 #
body $-1 $11 $-1 $12 #
body $-1 $13 $-1 $14 #
body $-1 $15 $-1 $16 #
body $-1 $17 $-1 $18 #
body $-1 $19 $-1 $20 #
body $-1 $21 $-1 $22 #
body $-1 $23 $-1 $24 #
body $-1 $25 $-1 $26 #
lump $-1 $-1 $27 $0 #
transform $-1 1 0 0 0 1 0 0 0 1 41.081575975829338 23.296903240078912 11.001098172971007 1 rotate no_reflect no_shear #
lump $-1 $-1 $28 $1 #
transform $-1 1 0 0 0 1 0 0 0 1 41.081575975829338 23.296903240078912 11.001098172971007 1 rotate no_reflect no_shear #
lump $-1 $-1 $29 $2 #
transform $-1 1 0 0 0 1 0 0 0 1 41.081575975829338 23.296903240078912 11.001098172971007 1 rotate no_reflect no_shear #
lump $-1 $-1 $30 $3 #
transform $-1 1 0 0 0 1 0 0 0 1 41.081575975829338 23.296903240078912 11.001098172971007 1 rotate no_reflect no_shear #
lump $-1 $-1 $31 $4 #
transform $-1 1 0 0 0 1 0 0 0 1 41.081575975829338 23.296903240078912 11.001098172971007 1 rotate no_reflect no_shear #
lump $-1 $-1 $32 $5 #
transform $-1 1 0 0 0 1 0 0 0 1 41.081575975829338 23.296903240078912 11.001098172971007 1 rotate no_reflect no_shear #
lump $-1 $-1 $33 $6 #
transform $-1 1 0 0 0 1 0 0 0 1 41.081575975829338 23.296903240078912 11.001098172971007 1 rotate no_reflect no_shear #
lump $-1 $-1 $34 $7 #
transform $-1 1 0 0 0 1 0 0 0 1 41.081575975829338 23.296903240078912 11.001098172971007 1 rotate no_reflect no_shear #
lump $-1 $-1 $35 $8 #
transform $-1 1 0 0 0 1 0 0 0 1 41.081575975829338 23.296903240078912 11.001098172971007 1 rotate no_reflect no_shear #
shell $-1 $-1 $-1 $36 $-1 $9 #
shell $-1 $-1 $-1 $37 $-1 $11 #
shell $-1 $-1 $-1 $38 $-1 $13 #
shell $-1 $-1 $-1 $39 $-1 $15 #
shell $-1 $-1 $-1 $40 $-1 $17 #
shell $-1 $-1 $-1 $41 $-1 $19 #
shell $-1 $-1 $-1 $42 $-1 $21 #
shell $-1 $-1 $-1 $43 $-1 $23 #
shell $-1 $-1 $-1 $44 $-1 $25 #
face $-1 $45 $46 $27 $-1 $47 reversed single #
face $-1 $48 $49 $28 $-1 $50 forward single #
face $-1 $51 $52 $29 $-1 $53 forward single #
face $-1 $54 $55 $30 $-1 $56 reversed single #
face $-1 $57 $58 $31 $-1 $59 forward single #
face $-1 $60 $61 $32 $-1 $62 forward single #
face $-1 $63 $64 $33 $-1 $65 reversed single #
face $-1 $66 $67 $34 $-1 $68 forward single #
face $-1 $69 $70 $35 $-1 $71 forward single #
face $-1 $72 $73 $27 $-1 $74 forward single #
loop $-1 $-1 $75 $36 #
plane-surface $-1 41.081575975829338 0 0 -1 0 0 0 0 1 forward_v I I I I #
face $-1 $76 $77 $28 $-1 $78 reversed single #
loop $-1 $-1 $79 $37 #
plane-surface $-1 -41.081575975829338 0 0 1 0 0 0 0 -1 forward_v I I I I #
face $-1 $80 $81 $29 $-1 $82 reversed single #
loop $-1 $-1 $83 $38 #
plane-surface $-1 41.081575975829338 0 0 -1 0 0 0 0 1 forward_v I I I I #
face $-1 $84 $85 $30 $-1 $86 reversed single #
loop $-1 $-1 $87 $39 #
plane-surface $-1 -9.2922895921176369 48.448229681697562 98.250716873277298 1 0 0 0 -0.70710678939079041 -0.70710677298230451 forward_v I I I I #
face $-1 $88 $89 $31 $-1 $90 forward single #
loop $-1 $91 $92 $40 #
cone-surface $-1 -6.6373497086554494 20.072405988854488 7.7766009085010559 0 -0.70710678939079041 -0.70710677298230451 1 0 0 1 I I 0 1 1 forward I I I I #
face $-1 $93 $94 $32 $-1 $95 forward single #
loop $-1 $96 $97 $41 #
cone-surface $-1 -2.6549398834621769 20.072405988854488 7.7766009085010559 0 -0.70710678939079041 -0.70710677298230451 1 0 0 1 I I 0 1 1 forward I I I I #
face $-1 $98 $99 $33 $-1 $100 reversed single #
loop $-1 $-1 $101 $42 #
plane-surface $-1 19.133816698695998 48.448229681697562 98.250716873277298 1 0 0 0 -0.70710678939079041 -0.70710677298230451 forward_v I I I I #
face $-1 $102 $103 $34 $-1 $104 forward single #
loop $-1 $105 $106 $43 #
cone-surface $-1 21.788756582158186 20.072405988854488 7.7766009085010559 0 -0.70710678939079041 -0.70710677298230451 1 0 0 1 I I 0 1 1 forward I I I I #
face $-1 $107 $108 $35 $-1 $109 forward single #
loop $-1 $110 $111 $44 #
cone-surface $-1 25.771166407351458 20.072405988854488 7.7766009085010559 0 -0.70710678939079041 -0.70710677298230451 1 0 0 1 I I 0 1 1 forward I I I I #
face $-1 $112 $113 $27 $-1 $114 reversed single #
loop $-1 $-1 $115 $45 #
plane-surface $-1 0 0 11.001098172971007 0 0 1 1 0 0 forward_v I I I I #
coedge $-1 $116 $117 $118 $119 reversed $46 $-1 #
face $-1 $120 $121 $28 $-1 $122 forward single #
loop $-1 $-1 $123 $48 #
plane-surface $-1 0 23.296903240078912 0 0 -1 0 0 0 -1 forward_v I I I I #
coedge $-1 $124 $125 $126 $127 forward $49 $-1 #
face $-1 $128 $129 $29 $-1 $130 forward single #
loop $-1 $-1 $131 $51 #
plane-surface $-1 0 -23.296903240078912 0 0 1 0 0 0 1 forward_v I I I I #
coedge $-1 $132 $133 $134 $135 forward $52 $-1 #
face $-1 $136 $137 $30 $-1 $138 reversed single #
loop $-1 $-1 $139 $54 #
plane-surface $-1 -4.6461447960588202 -9.6498929010674601 40.152595638685199 0 0.70710678939079041 0.70710677298230451 1 0 0 forward_v I I I I #
coedge $-1 $140 $141 $142 $143 reversed $55 $-1 #
face $-1 $-1 $144 $31 $-1 $145 forward single #
loop $-1 $146 $147 $57 #
cone-surface $-1 -6.6373497086554494 18.392005018882521 6.0961999775229661 0 -0.70710678939079041 -0.70710677298230451 0.5 0 0 1 I I -0.70710678118654746 0.70710678118654746 0.5 forward I I I I #
loop $-1 $-1 $148 $40 #
coedge $-1 $92 $92 $149 $150 reversed $58 $-1 #
face $-1 $-1 $151 $32 $-1 $152 forward single #
loop $-1 $153 $154 $60 #
cone-surface $-1 -2.6549398834621769 18.392005018882521 6.0961999775229661 0 -0.70710678939079041 -0.70710677298230451 0.5 0 0 1 I I -0.70710678118654746 0.70710678118654746 0.5 forward I I I I #
loop $-1 $-1 $155 $41 #
coedge $-1 $97 $97 $156 $157 reversed $61 $-1 #
face $-1 $158 $159 $33 $-1 $160 reversed single #
loop $-1 $-1 $161 $63 #
plane-surface $-1 23.779961494754815 -9.6498929010674601 40.152595638685199 0 0.70710678939079041 0.70710677298230451 1 0 0 forward_v I I I I #
coedge $-1 $162 $163 $164 $165 reversed $64 $-1 #
face $-1 $-1 $166 $34 $-1 $167 forward single #
loop $-1 $168 $169 $66 #
cone-surface $-1 21.788756582158186 18.392005018882521 6.0961999775229661 0 -0.70710678939079041 -0.70710677298230451 0.5 0 0 1 I I -0.70710678118654746 0.70710678118654746 0.5 forward I I I I #
loop $-1 $-1 $170 $43 #
coedge $-1 $106 $106 $171 $172 reversed $67 $-1 #
face $-1 $-1 $173 $35 $-1 $174 forward single #
loop $-1 $175 $176 $69 #
cone-surface $-1 25.771166407351458 18.392005018882521 6.0961999775229661 0 -0.70710678939079041 -0.70710677298230451 0.5 0 0 1 I I -0.70710678118654746 0.70710678118654746 0.5 forward I I I I #
loop $-1 $-1 $177 $44 #
coedge $-1 $111 $111 $178 $179 reversed $70 $-1 #
face $-1 $180 $181 $27 $-1 $182 reversed single #
loop $-1 $-1 $183 $72 #
plane-surface $-1 0 0 -11.001098172971007 0 0 1 1 0 0 forward_v I I I I #
coedge $-1 $184 $185 $116 $186 forward $73 $-1 #
coedge $-1 $187 $75 $115 $186 reversed $46 $-1 #
coedge $-1 $75 $187 $183 $188 reversed $46 $-1 #
coedge $-1 $189 $190 $75 $119 forward $191 $-1 #
edge $-1 $192 -11.001098172971007 $193 11.001098172971007 $75 $194 forward 7 unknown #
face $-1 $195 $196 $28 $-1 $197 reversed single #
loop $-1 $-1 $126 $76 #
plane-surface $-1 -47.40931081833719 0 6.2114608881619811 0 0 1 1 0 0 forward_v I I I I #
coedge $-1 $198 $199 $125 $200 forward $77 $-1 #
coedge $-1 $201 $79 $202 $203 reversed $49 $-1 #
coedge $-1 $79 $201 $123 $200 reversed $49 $-1 #
coedge $-1 $204 $205 $79 $127 reversed $121 $-1 #
edge $-1 $206 -23.296903240078912 $207 23.296903240078912 $126 $208 forward 7 unknown #
face $-1 $209 $210 $29 $-1 $211 reversed single #
loop $-1 $-1 $212 $80 #
plane-surface $-1 47.40931081833719 0 6.2114608881619811 0 0 1 1 0 0 forward_v I I I I #
coedge $-1 $213 $214 $133 $215 forward $81 $-1 #
coedge $-1 $216 $83 $217 $218 reversed $52 $-1 #
coedge $-1 $83 $216 $131 $215 reversed $52 $-1 #
coedge $-1 $219 $220 $83 $135 reversed $129 $-1 #
edge $-1 $221 -23.296903240078912 $222 23.296903240078912 $134 $223 forward 7 unknown #
face $-1 $224 $225 $30 $-1 $226 reversed single #
loop $-1 $-1 $227 $84 #
plane-surface $-1 -3.5527136788005009e-015 48.448229681697562 98.250716873277298 -1 0 0 0 0.70710678939079041 0.70710677298230451 forward_v I I I I #
coedge $-1 $228 $229 $230 $231 reversed $85 $-1 #
coedge $-1 $141 $87 $232 $233 reversed $55 $-1 #
coedge $-1 $87 $140 $228 $234 reversed $55 $-1 #
coedge $-1 $230 $235 $87 $143 forward $236 $-1 #
edge $-1 $237 0.92721160076986919 $238 4.722510952665548 $142 $239 forward 7 unknown #
loop $-1 $-1 $149 $88 #
plane-surface $-1 -4.6461447960588202 -9.6498929010674601 40.152595638685199 0 0.70710678939079041 0.70710677298230451 1 0 0 forward_v I I I I #
loop $-1 $-1 $240 $57 #
coedge $-1 $147 $147 $148 $241 reversed $89 $-1 #
coedge $-1 $148 $148 $147 $241 forward $91 $-1 #
coedge $-1 $149 $149 $92 $150 forward $144 $-1 #
edge $-1 $242 2.3317860796066896e-022 $242 6.2831853071796004 $149 $243 forward 7 unknown #
loop $-1 $-1 $156 $93 #
plane-surface $-1 -4.6461447960588202 -9.6498929010674601 40.152595638685199 0 0.70710678939079041 0.70710677298230451 1 0 0 forward_v I I I I #
loop $-1 $-1 $244 $60 #
coedge $-1 $154 $154 $155 $245 reversed $94 $-1 #
coedge $-1 $155 $155 $154 $245 forward $96 $-1 #
coedge $-1 $156 $156 $97 $157 forward $151 $-1 #
edge $-1 $246 2.3317860796066896e-022 $246 6.2831853071796004 $156 $247 forward 7 unknown #
face $-1 $248 $249 $33 $-1 $250 forward single #
loop $-1 $-1 $251 $98 #
plane-surface $-1 28.426106290813632 48.448229681697562 98.250716873277298 -1 0 0 0 0.70710678939079041 0.70710677298230451 forward_v I I I I #
coedge $-1 $252 $253 $254 $255 reversed $99 $-1 #
coedge $-1 $163 $101 $256 $257 reversed $64 $-1 #
coedge $-1 $101 $162 $252 $258 reversed $64 $-1 #
coedge $-1 $254 $259 $101 $165 forward $249 $-1 #
edge $-1 $260 0.92721160076986919 $261 4.722510952665548 $164 $262 forward 7 unknown #
loop $-1 $-1 $171 $102 #
plane-surface $-1 23.779961494754815 -9.6498929010674601 40.152595638685199 0 0.70710678939079041 0.70710677298230451 1 0 0 forward_v I I I I #
loop $-1 $-1 $263 $66 #
coedge $-1 $169 $169 $170 $264 reversed $103 $-1 #
coedge $-1 $170 $170 $169 $264 forward $105 $-1 #
coedge $-1 $171 $171 $106 $172 forward $166 $-1 #
edge $-1 $265 2.3317860796066896e-022 $265 6.2831853071796004 $171 $266 forward 7 unknown #
loop $-1 $-1 $178 $107 #
plane-surface $-1 23.779961494754815 -9.6498929010674601 40.152595638685199 0 0.70710678939079041 0.70710677298230451 1 0 0 forward_v I I I I #
loop $-1 $-1 $267 $69 #
coedge $-1 $176 $176 $177 $268 reversed $108 $-1 #
coedge $-1 $177 $177 $176 $268 forward $110 $-1 #
coedge $-1 $178 $178 $111 $179 forward $173 $-1 #
edge $-1 $269 2.3317860796066896e-022 $269 6.2831853071796004 $178 $270 forward 7 unknown #
face $-1 $271 $272 $27 $-1 $273 reversed single #
loop $-1 $-1 $274 $112 #
plane-surface $-1 0 -23.296903240078912 0 0 1 0 0 0 1 forward_v I I I I #
coedge $-1 $275 $276 $117 $188 forward $113 $-1 #
coedge $-1 $277 $115 $190 $278 forward $73 $-1 #
coedge $-1 $115 $277 $279 $280 forward $73 $-1 #
edge $-1 $281 -23.296903240078912 $192 23.296903240078912 $116 $282 forward 7 unknown #
coedge $-1 $117 $116 $283 $284 forward $46 $-1 #
edge $-1 $193 -23.296903240078912 $285 23.296903240078912 $117 $286 forward 7 unknown #
coedge $-1 $287 $118 $276 $288 reversed $191 $-1 #
coedge $-1 $118 $287 $184 $278 reversed $191 $-1 #
loop $-1 $-1 $118 $271 #
vertex $-1 $186 $289 #
vertex $-1 $188 $290 #
straight-curve $-1 41.081575975829338 23.296903240078912 0 0 0 -1 I I #
face $-1 $291 $292 $28 $-1 $293 reversed single #
loop $-1 $-1 $294 $120 #
plane-surface $-1 -47.40931081833719 0 2.9799911193443931 0 0 1 1 0 0 forward_v I I I I #
coedge $-1 $295 $123 $296 $297 reversed $77 $-1 #
coedge $-1 $123 $295 $204 $298 reversed $77 $-1 #
edge $-1 $206 -6.2114608881619811 $299 -2.9799911193443931 $123 $300 forward 7 unknown #
coedge $-1 $125 $124 $294 $301 forward $49 $-1 #
coedge $-1 $302 $303 $124 $203 forward $304 $-1 #
edge $-1 $305 2.9799911193443931 $207 6.2114608881619811 $202 $306 forward 7 unknown #
coedge $-1 $307 $126 $199 $298 forward $121 $-1 #
coedge $-1 $126 $307 $302 $308 forward $121 $-1 #
vertex $-1 $200 $309 #
vertex $-1 $308 $310 #
straight-curve $-1 -41.081575975829338 0 6.2114608881619811 0 -1 0 I I #
face $-1 $311 $312 $29 $-1 $313 reversed single #
loop $-1 $-1 $314 $128 #
plane-surface $-1 47.40931081833719 0 2.9799911193443931 0 0 1 1 0 0 forward_v I I I I #
coedge $-1 $220 $219 $315 $316 forward $129 $-1 #
coedge $-1 $317 $131 $318 $319 reversed $81 $-1 #
coedge $-1 $131 $317 $219 $320 reversed $81 $-1 #
edge $-1 $221 -6.2114608881619811 $321 -2.9799911193443931 $131 $322 forward 7 unknown #
coedge $-1 $133 $132 $323 $324 forward $52 $-1 #
coedge $-1 $325 $326 $132 $218 forward $327 $-1 #
edge $-1 $328 2.9799911193443931 $222 6.2114608881619811 $217 $329 forward 7 unknown #
coedge $-1 $212 $134 $214 $320 forward $129 $-1 #
coedge $-1 $134 $212 $325 $330 forward $129 $-1 #
vertex $-1 $215 $331 #
vertex $-1 $330 $332 #
straight-curve $-1 41.081575975829338 0 6.2114608881619811 0 1 0 I I #
face $-1 $-1 $236 $30 $-1 $333 forward single #
loop $-1 $-1 $334 $136 #
plane-surface $-1 0 23.296903240078912 0 0 -1 0 0 0 -1 forward_v I I I I #
coedge $-1 $335 $336 $337 $338 reversed $137 $-1 #
coedge $-1 $339 $139 $141 $234 forward $85 $-1 #
coedge $-1 $139 $339 $335 $340 forward $85 $-1 #
coedge $-1 $337 $142 $139 $231 forward $236 $-1 #
edge $-1 $238 -6.9692171940882268 $341 2.3230723980294066 $230 $342 forward 7 unknown #
coedge $-1 $343 $344 $140 $233 forward $225 $-1 #
edge $-1 $345 -41.919559703633638 $237 -38.124260263667644 $232 $346 forward 7 unknown #
edge $-1 $238 41.226442601166013 $345 46.593806480157816 $141 $347 forward 7 unknown #
coedge $-1 $142 $337 $343 $348 forward $236 $-1 #
loop $-1 $-1 $337 $224 #
vertex $-1 $233 $349 #
vertex $-1 $143 $350 #
straight-curve $-1 -9.2922895921176369 24.224114840848781 11.001098172971005 0 -1 0 I I #
coedge $-1 $240 $240 $-1 $351 reversed $146 $-1 #
edge $-1 $352 0 $352 6.2831853071796004 $147 $353 forward 7 unknown #
vertex $-1 $150 $354 #
ellipse-curve $-1 -6.6373497086554494 21.399253564131076 9.1034484529880082 0 0.70710678939079041 0.70710677298230451 1 0 0 1 I I #
coedge $-1 $244 $244 $-1 $355 reversed $153 $-1 #
edge $-1 $356 0 $356 6.2831853071796004 $154 $357 forward 7 unknown #
vertex $-1 $157 $358 #
ellipse-curve $-1 -2.6549398834621769 21.399253564131076 9.1034484529880082 0 0.70710678939079041 0.70710677298230451 1 0 0 1 I I #
face $-1 $-1 $359 $33 $-1 $360 reversed single #
loop $-1 $-1 $164 $158 #
plane-surface $-1 0 0 11.001098172971007 0 0 1 1 0 0 forward_v I I I I #
coedge $-1 $361 $362 $363 $364 reversed $159 $-1 #
coedge $-1 $365 $161 $163 $258 forward $99 $-1 #
coedge $-1 $161 $365 $361 $366 forward $99 $-1 #
coedge $-1 $363 $164 $161 $255 forward $249 $-1 #
edge $-1 $261 7.2438359513185908 $367 16.536125543436224 $254 $368 forward 7 unknown #
coedge $-1 $369 $370 $162 $257 forward $359 $-1 #
edge $-1 $371 -41.919559703633638 $260 -38.124260263667644 $256 $372 forward 7 unknown #
edge $-1 $261 41.226442601166013 $371 46.593806480157816 $163 $373 forward 7 unknown #
coedge $-1 $164 $363 $369 $374 forward $249 $-1 #
vertex $-1 $165 $375 #
vertex $-1 $165 $376 #
straight-curve $-1 19.133816698695998 24.224114840848781 11.001098172971005 0 -1 0 I I #
coedge $-1 $263 $263 $-1 $377 reversed $168 $-1 #
edge $-1 $378 0 $378 6.2831853071796004 $169 $379 forward 7 unknown #
vertex $-1 $172 $380 #
ellipse-curve $-1 21.788756582158186 21.399253564131076 9.1034484529880082 0 0.70710678939079041 0.70710677298230451 1 0 0 1 I I #
coedge $-1 $267 $267 $-1 $381 reversed $175 $-1 #
edge $-1 $382 0 $382 6.2831853071796004 $176 $383 forward 7 unknown #
vertex $-1 $179 $384 #
ellipse-curve $-1 25.771166407351458 21.399253564131076 9.1034484529880082 0 0.70710678939079041 0.70710677298230451 1 0 0 1 I I #
face $-1 $-1 $191 $27 $-1 $385 reversed single #
loop $-1 $-1 $386 $180 #
plane-surface $-1 -41.081575975829338 0 0 1 0 0 0 0 -1 forward_v I I I I #
coedge $-1 $387 $279 $386 $388 forward $181 $-1 #
coedge $-1 $389 $183 $387 $390 forward $113 $-1 #
coedge $-1 $183 $389 $189 $288 forward $113 $-1 #
coedge $-1 $185 $184 $391 $392 forward $73 $-1 #
edge $-1 $192 -41.081575975829338 $393 41.081575975829338 $190 $394 forward 7 unknown #
coedge $-1 $274 $283 $185 $280 reversed $181 $-1 #
edge $-1 $395 -41.081575975829338 $281 41.081575975829338 $279 $396 forward 7 unknown #
vertex $-1 $186 $397 #
straight-curve $-1 41.081575975829338 0 11.001098172971007 0 1 0 I I #
coedge $-1 $279 $387 $187 $284 reversed $181 $-1 #
edge $-1 $281 -11.001098172971007 $285 11.001098172971007 $187 $398 forward 7 unknown #
vertex $-1 $284 $399 #
straight-curve $-1 41.081575975829338 0 -11.001098172971007 0 -1 0 I I #
coedge $-1 $190 $189 $400 $401 reversed $191 $-1 #
edge $-1 $402 -41.081575975829338 $193 41.081575975829338 $189 $403 forward 7 unknown #
point $-1 41.081575975829338 23.296903240078912 11.001098172971007 #
point $-1 41.081575975829338 23.296903240078912 -11.001098172971007 #
face $-1 $-1 $304 $28 $-1 $404 reversed single #
loop $-1 $-1 $405 $195 #
plane-surface $-1 -53.737045660845041 0 4.5957260037531871 1 0 0 0 0 -1 forward_v I I I I #
coedge $-1 $406 $296 $201 $301 reversed $196 $-1 #
coedge $-1 $199 $198 $405 $407 reversed $77 $-1 #
coedge $-1 $294 $408 $198 $297 forward $196 $-1 #
edge $-1 $409 -6.3277348425078515 $299 6.3277348425078515 $198 $410 forward 7 unknown #
edge $-1 $206 -6.3277348425078515 $411 6.3277348425078515 $199 $412 forward 7 unknown #
vertex $-1 $200 $413 #
straight-curve $-1 -41.081575975829338 23.296903240078912 0 0 0 -1 I I #
edge $-1 $305 -23.296903240078912 $299 23.296903240078912 $294 $414 forward 7 unknown #
coedge $-1 $415 $202 $205 $308 reversed $304 $-1 #
coedge $-1 $202 $415 $406 $416 reversed $304 $-1 #
loop $-1 $-1 $202 $291 #
vertex $-1 $203 $417 #
straight-curve $-1 -41.081575975829338 -23.296903240078912 0 0 0 1 I I #
coedge $-1 $205 $204 $418 $419 forward $121 $-1 #
edge $-1 $420 -6.3277348425078515 $207 6.3277348425078515 $302 $421 forward 7 unknown #
point $-1 -41.081575975829338 23.296903240078912 6.2114608881619811 #
point $-1 -41.081575975829338 -23.296903240078912 6.2114608881619811 #
face $-1 $-1 $327 $29 $-1 $422 reversed single #
loop $-1 $-1 $423 $209 #
plane-surface $-1 53.737045660845041 0 4.5957260037531871 -1 0 0 0 0 1 forward_v I I I I #
coedge $-1 $318 $424 $425 $426 forward $210 $-1 #
coedge $-1 $423 $427 $212 $316 reversed $312 $-1 #
edge $-1 $428 -23.296903240078912 $429 23.296903240078912 $315 $430 forward 7 unknown #
coedge $-1 $214 $213 $423 $431 reversed $81 $-1 #
coedge $-1 $323 $314 $213 $319 forward $210 $-1 #
edge $-1 $432 -6.3277348425078515 $321 6.3277348425078515 $213 $433 forward 7 unknown #
edge $-1 $221 -6.3277348425078515 $428 6.3277348425078515 $214 $434 forward 7 unknown #
vertex $-1 $215 $435 #
straight-curve $-1 41.081575975829338 -23.296903240078912 0 0 0 -1 I I #
coedge $-1 $424 $318 $216 $324 reversed $210 $-1 #
edge $-1 $328 -23.296903240078912 $321 23.296903240078912 $323 $436 forward 7 unknown #
coedge $-1 $437 $217 $220 $330 reversed $327 $-1 #
coedge $-1 $217 $437 $424 $438 reversed $327 $-1 #
loop $-1 $-1 $217 $311 #
vertex $-1 $218 $439 #
straight-curve $-1 41.081575975829338 23.296903240078912 0 0 0 1 I I #
edge $-1 $429 -6.3277348425078515 $222 6.3277348425078515 $325 $440 forward 7 unknown #
point $-1 41.081575975829338 -23.296903240078912 6.2114608881619811 #
point $-1 41.081575975829338 23.296903240078912 6.2114608881619811 #
plane-surface $-1 0 0 11.001098172971007 0 0 1 1 0 0 forward_v I I I I #
coedge $-1 $344 $343 $336 $441 forward $225 $-1 #
coedge $-1 $336 $227 $229 $340 reversed $137 $-1 #
coedge $-1 $227 $335 $334 $441 reversed $137 $-1 #
coedge $-1 $235 $230 $227 $338 forward $236 $-1 #
edge $-1 $341 -4.722510952665548 $442 -0.92721160076986919 $337 $443 forward 7 unknown #
coedge $-1 $229 $228 $344 $444 reversed $85 $-1 #
edge $-1 $445 -46.593806480157816 $341 -41.226442601166013 $335 $446 forward 7 unknown #
vertex $-1 $231 $447 #
straight-curve $-1 -2.3230723980294101 19.501603888183233 11.001098172971002 1 0 0 I I #
coedge $-1 $334 $232 $235 $348 reversed $225 $-1 #
coedge $-1 $232 $334 $339 $444 forward $225 $-1 #
vertex $-1 $233 $448 #
straight-curve $-1 -9.2922895921176369 23.296903240078912 49.125358436638649 0 0 1 I I #
straight-curve $-1 -9.2922895921176369 -9.6498929010674601 40.152595638685199 0 0.70710677298230451 -0.70710678939079041 I I #
edge $-1 $442 3.5527136788005009e-015 $237 9.2922895921176369 $343 $449 forward 7 unknown #
point $-1 -9.2922895921176369 23.296903240078912 11.001098172971007 #
point $-1 -9.2922895921176369 19.501603888183233 11.001098172971002 #
edge $-1 $450 1 $450 0 $240 $-1 forward 7 unknown #
vertex $-1 $241 $451 #
ellipse-curve $-1 -6.6373497086554494 18.745558413577918 6.4497533640141187 0 0.70710678939079041 0.70710677298230451 1 0 0 1 I I #
point $-1 -5.6373497086554494 21.399253564131062 9.103448452987994 #
edge $-1 $452 1 $452 0 $244 $-1 forward 7 unknown #
vertex $-1 $245 $453 #
ellipse-curve $-1 -2.6549398834621769 18.745558413577918 6.4497533640141187 0 0.70710678939079041 0.70710677298230451 1 0 0 1 I I #
point $-1 -1.6549398834621769 21.399253564131062 9.103448452987994 #
loop $-1 $-1 $256 $248 #
plane-surface $-1 0 23.296903240078912 0 0 -1 0 0 0 -1 forward_v I I I I #
coedge $-1 $362 $251 $253 $366 reversed $159 $-1 #
coedge $-1 $251 $361 $454 $455 reversed $159 $-1 #
coedge $-1 $259 $254 $251 $364 forward $249 $-1 #
edge $-1 $367 -4.722510952665548 $456 -0.92721160076986919 $363 $457 forward 7 unknown #
coedge $-1 $253 $252 $370 $458 reversed $99 $-1 #
edge $-1 $459 -46.593806480157816 $367 -41.226442601166013 $361 $460 forward 7 unknown #
vertex $-1 $255 $461 #
straight-curve $-1 11.889980747377408 19.501603888183233 11.001098172971002 1 0 0 I I #
coedge $-1 $454 $256 $259 $374 reversed $359 $-1 #
coedge $-1 $256 $454 $365 $458 forward $359 $-1 #
vertex $-1 $257 $462 #
straight-curve $-1 19.133816698695998 23.296903240078912 49.125358436638649 0 0 1 I I #
straight-curve $-1 19.133816698695998 -9.6498929010674601 40.152595638685199 0 0.70710677298230451 -0.70710678939079041 I I #
edge $-1 $456 -28.426106290813632 $260 -19.133816698695998 $369 $463 forward 7 unknown #
point $-1 19.133816698695998 23.296903240078912 11.001098172971007 #
point $-1 19.133816698695998 19.501603888183233 11.001098172971002 #
edge $-1 $464 1 $464 0 $263 $-1 forward 7 unknown #
vertex $-1 $264 $465 #
ellipse-curve $-1 21.788756582158186 18.745558413577918 6.4497533640141187 0 0.70710678939079041 0.70710677298230451 1 0 0 1 I I #
point $-1 22.788756582158186 21.399253564131062 9.103448452987994 #
edge $-1 $466 1 $466 0 $267 $-1 forward 7 unknown #
vertex $-1 $268 $467 #
ellipse-curve $-1 25.771166407351458 18.745558413577918 6.4497533640141187 0 0.70710678939079041 0.70710677298230451 1 0 0 1 I I #
point $-1 26.771166407351458 21.399253564131062 9.103448452987994 #
plane-surface $-1 0 23.296903240078912 0 0 -1 0 0 0 -1 forward_v I I I I #
coedge $-1 $391 $468 $274 $388 reversed $272 $-1 #
coedge $-1 $283 $274 $275 $390 reversed $181 $-1 #
edge $-1 $395 -11.001098172971007 $469 11.001098172971007 $386 $470 forward 7 unknown #
coedge $-1 $276 $275 $468 $471 forward $113 $-1 #
edge $-1 $285 -41.081575975829338 $469 41.081575975829338 $387 $472 forward 7 unknown #
coedge $-1 $400 $386 $277 $392 reversed $272 $-1 #
edge $-1 $393 -23.296903240078912 $395 23.296903240078912 $391 $473 forward 7 unknown #
vertex $-1 $278 $474 #
straight-curve $-1 0 23.296903240078912 11.001098172971007 -1 0 0 I I #
vertex $-1 $392 $475 #
straight-curve $-1 0 -23.296903240078912 11.001098172971007 1 0 0 I I #
point $-1 41.081575975829338 -23.296903240078912 11.001098172971007 #
straight-curve $-1 41.081575975829338 -23.296903240078912 0 0 0 -1 I I #
point $-1 41.081575975829338 -23.296903240078912 -11.001098172971007 #
coedge $-1 $468 $391 $287 $401 forward $272 $-1 #
edge $-1 $393 -11.001098172971007 $402 11.001098172971007 $287 $476 forward 7 unknown #
vertex $-1 $288 $477 #
straight-curve $-1 0 23.296903240078912 -11.001098172971007 1 0 0 I I #
plane-surface $-1 0 -23.296903240078912 0 0 1 0 0 0 1 forward_v I I I I #
coedge $-1 $478 $418 $295 $407 forward $292 $-1 #
coedge $-1 $408 $294 $303 $416 forward $196 $-1 #
edge $-1 $411 -1.615734884408794 $409 1.615734884408794 $295 $479 forward 7 unknown #
coedge $-1 $296 $406 $478 $480 forward $196 $-1 #
vertex $-1 $297 $481 #
straight-curve $-1 -47.40931081833719 23.296903240078912 2.9799911193443931 1 0 0 I I #
vertex $-1 $298 $482 #
straight-curve $-1 -47.40931081833719 23.296903240078912 6.2114608881619811 -1 0 0 I I #
point $-1 -41.081575975829338 23.296903240078912 2.9799911193443931 #
straight-curve $-1 -41.081575975829338 0 2.9799911193443931 0 1 0 I I #
coedge $-1 $303 $302 $483 $484 forward $304 $-1 #
edge $-1 $305 -6.3277348425078515 $485 6.3277348425078515 $303 $486 forward 7 unknown #
point $-1 -41.081575975829338 -23.296903240078912 2.9799911193443931 #
coedge $-1 $405 $483 $307 $419 reversed $292 $-1 #
edge $-1 $411 -23.296903240078912 $420 23.296903240078912 $418 $487 forward 7 unknown #
vertex $-1 $419 $488 #
straight-curve $-1 -47.40931081833719 -23.296903240078912 6.2114608881619811 1 0 0 I I #
plane-surface $-1 0 23.296903240078912 0 0 -1 0 0 0 -1 forward_v I I I I #
coedge $-1 $425 $315 $317 $431 forward $312 $-1 #
coedge $-1 $314 $323 $326 $438 forward $210 $-1 #
coedge $-1 $427 $423 $314 $426 reversed $312 $-1 #
edge $-1 $489 -23.296903240078912 $432 23.296903240078912 $425 $490 forward 7 unknown #
coedge $-1 $315 $425 $437 $491 reversed $312 $-1 #
vertex $-1 $316 $492 #
vertex $-1 $316 $493 #
straight-curve $-1 53.737045660845041 0 6.2114608881619811 0 1 0 I I #
edge $-1 $428 -1.615734884408794 $432 1.615734884408794 $423 $494 forward 7 unknown #
vertex $-1 $431 $495 #
straight-curve $-1 47.40931081833719 -23.296903240078912 2.9799911193443931 -1 0 0 I I #
straight-curve $-1 47.40931081833719 -23.296903240078912 6.2114608881619811 1 0 0 I I #
point $-1 41.081575975829338 -23.296903240078912 2.9799911193443931 #
straight-curve $-1 41.081575975829338 0 2.9799911193443931 0 -1 0 I I #
coedge $-1 $326 $325 $427 $491 forward $327 $-1 #
edge $-1 $328 -6.3277348425078515 $489 6.3277348425078515 $326 $496 forward 7 unknown #
point $-1 41.081575975829338 23.296903240078912 2.9799911193443931 #
straight-curve $-1 47.40931081833719 23.296903240078912 6.2114608881619811 -1 0 0 I I #
edge $-1 $442 38.124260263667644 $445 41.919559703633638 $334 $497 forward 7 unknown #
vertex $-1 $348 $498 #
straight-curve $-1 -3.5527136788005009e-015 24.224114840848781 11.001098172971005 0 1 0 I I #
edge $-1 $445 -2.3230723980294066 $345 6.9692171940882268 $344 $499 forward 7 unknown #
vertex $-1 $444 $500 #
straight-curve $-1 -3.5527136788005009e-015 -9.6498929010674601 40.152595638685199 0 -0.70710677298230451 0.70710678939079041 I I #
point $-1 -3.5527136788005009e-015 19.501603888183233 11.001098172971002 #
point $-1 -9.2922895921176369 23.296903240078912 7.2057987330050111 #
straight-curve $-1 0 23.296903240078912 11.001098172971007 -1 0 0 I I #
vertex $-1 $351 $501 #
point $-1 -5.6373497086554494 18.745558413577918 6.4497533640141187 #
vertex $-1 $355 $502 #
point $-1 -1.6549398834621769 18.745558413577918 6.4497533640141187 #
coedge $-1 $370 $369 $362 $455 forward $359 $-1 #
edge $-1 $456 38.124260263667644 $459 41.919559703633638 $454 $503 forward 7 unknown #
vertex $-1 $374 $504 #
straight-curve $-1 28.426106290813632 24.224114840848781 11.001098172971005 0 1 0 I I #
edge $-1 $459 -16.536125543436224 $371 -7.2438359513185908 $370 $505 forward 7 unknown #
vertex $-1 $458 $506 #
straight-curve $-1 28.426106290813632 -9.6498929010674601 40.152595638685199 0 -0.70710677298230451 0.70710678939079041 I I #
point $-1 28.426106290813632 19.501603888183233 11.001098172971002 #
point $-1 19.133816698695998 23.296903240078912 7.2057987330050111 #
straight-curve $-1 0 23.296903240078912 11.001098172971007 -1 0 0 I I #
vertex $-1 $377 $507 #
point $-1 22.788756582158186 18.745558413577918 6.4497533640141187 #
vertex $-1 $381 $508 #
point $-1 26.771166407351458 18.745558413577918 6.4497533640141187 #
coedge $-1 $386 $400 $389 $471 reversed $272 $-1 #
vertex $-1 $471 $509 #
straight-curve $-1 -41.081575975829338 -23.296903240078912 0 0 0 -1 I I #
edge $-1 $469 -23.296903240078912 $402 23.296903240078912 $468 $510 forward 7 unknown #
straight-curve $-1 0 -23.296903240078912 -11.001098172971007 -1 0 0 I I #
straight-curve $-1 -41.081575975829338 0 11.001098172971007 0 -1 0 I I #
point $-1 -41.081575975829338 23.296903240078912 11.001098172971007 #
point $-1 -41.081575975829338 -23.296903240078912 11.001098172971007 #
straight-curve $-1 -41.081575975829338 23.296903240078912 0 0 0 -1 I I #
point $-1 -41.081575975829338 23.296903240078912 -11.001098172971007 #
coedge $-1 $483 $405 $408 $480 reversed $292 $-1 #
straight-curve $-1 -53.737045660845041 23.296903240078912 4.5957260037531871 0 0 -1 I I #
edge $-1 $485 -23.296903240078912 $409 23.296903240078912 $478 $511 forward 7 unknown #
point $-1 -53.737045660845041 23.296903240078912 2.9799911193443931 #
point $-1 -53.737045660845041 23.296903240078912 6.2114608881619811 #
coedge $-1 $418 $478 $415 $484 reversed $292 $-1 #
edge $-1 $420 -1.615734884408794 $485 1.615734884408794 $483 $512 forward 7 unknown #
vertex $-1 $480 $513 #
straight-curve $-1 -47.40931081833719 -23.296903240078912 2.9799911193443931 -1 0 0 I I #
straight-curve $-1 -53.737045660845041 0 6.2114608881619811 0 -1 0 I I #
point $-1 -53.737045660845041 -23.296903240078912 6.2114608881619811 #
vertex $-1 $426 $514 #
straight-curve $-1 53.737045660845041 0 2.9799911193443931 0 -1 0 I I #
edge $-1 $429 -1.615734884408794 $489 1.615734884408794 $427 $515 forward 7 unknown #
point $-1 53.737045660845041 -23.296903240078912 6.2114608881619811 #
point $-1 53.737045660845041 23.296903240078912 6.2114608881619811 #
straight-curve $-1 53.737045660845041 -23.296903240078912 4.5957260037531871 0 0 -1 I I #
point $-1 53.737045660845041 -23.296903240078912 2.9799911193443931 #
straight-curve $-1 47.40931081833719 23.296903240078912 2.9799911193443931 1 0 0 I I #
straight-curve $-1 -3.5527136788005009e-015 23.296903240078912 49.125358436638649 0 0 -1 I I #
point $-1 -3.5527136788005009e-015 23.296903240078912 11.001098172971007 #
straight-curve $-1 -2.3230723980294101 23.296903240078912 7.2057987330050111 -1 0 0 I I #
point $-1 -3.5527136788005009e-015 23.296903240078912 7.2057987330050111 #
point $-1 -6.6373497086554494 18.038451624187125 5.7426465910318134 #
point $-1 -2.6549398834621769 18.038451624187125 5.7426465910318134 #
straight-curve $-1 28.426106290813632 23.296903240078912 49.125358436638649 0 0 -1 I I #
point $-1 28.426106290813632 23.296903240078912 11.001098172971007 #
straight-curve $-1 11.889980747377408 23.296903240078912 7.2057987330050111 -1 0 0 I I #
point $-1 28.426106290813632 23.296903240078912 7.2057987330050111 #
point $-1 21.788756582158186 18.038451624187125 5.7426465910318134 #
point $-1 25.771166407351458 18.038451624187125 5.7426465910318134 #
point $-1 -41.081575975829338 -23.296903240078912 -11.001098172971007 #
straight-curve $-1 -41.081575975829338 0 -11.001098172971007 0 1 0 I I #
straight-curve $-1 -53.737045660845041 0 2.9799911193443931 0 1 0 I I #
straight-curve $-1 -53.737045660845041 -23.296903240078912 4.5957260037531871 0 0 -1 I I #
point $-1 -53.737045660845041 -23.296903240078912 2.9799911193443931 #
point $-1 53.737045660845041 23.296903240078912 2.9799911193443931 #
straight-curve $-1 53.737045660845041 23.296903240078912 4.5957260037531871 0 0 -1 I I #
End-of-ACIS-data 