500 0 10 0           
7 Unknown 11 ACIS 5.0 NT 24 Fri Mar 26 16:36:11 1999 
-1 9.9999999999999995e-007 1e-010 
body $-1 $10 $-1 $11 #
body $-1 $12 $-1 $13 #
body $-1 $14 $-1 $15 #
body $-1 $16 $-1 $17 #
body $-1 $18 $-1 $19 #
body $-1 $20 $-1 $21 #
body $-1 $22 $-1 $23 #
body $-1 $24 $-1 $25 #
body $-1 $26 $-1 $27 #
body $-1 $28 $-1 $29 #
lump $-1 $-1 $30 $0 #
transform $-1 1 0 0 0 1 0 0 0 1 42.738120670186468 28.117527889264952 10.15713194271256 1 rotate no_reflect no_shear #
lump $-1 $-1 $31 $1 #
transform $-1 1 0 0 0 1 0 0 0 1 42.738120670186468 28.117527889264952 10.15713194271256 1 rotate no_reflect no_shear #
lump $-1 $-1 $32 $2 #
transform $-1 1 0 0 0 1 0 0 0 1 42.738120670186468 28.117527889264952 10.15713194271256 1 rotate no_reflect no_shear #
lump $-1 $-1 $33 $3 #
transform $-1 1 0 0 0 1 0 0 0 1 42.738120670186468 28.117527889264952 10.15713194271256 1 rotate no_reflect no_shear #
lump $-1 $-1 $34 $4 #
transform $-1 1 0 0 0 1 0 0 0 1 42.738120670186468 28.117527889264952 10.15713194271256 1 rotate no_reflect no_shear #
lump $-1 $-1 $35 $5 #
transform $-1 1 0 0 0 1 0 0 0 1 42.738120670186468 28.117527889264952 10.15713194271256 1 rotate no_reflect no_shear #
lump $-1 $-1 $36 $6 #
transform $-1 1 0 0 0 1 0 0 0 1 42.738120670186468 28.117527889264952 10.15713194271256 1 rotate no_reflect no_shear #
lump $-1 $-1 $37 $7 #
transform $-1 1 0 0 0 1 0 0 0 1 42.738120670186468 28.117527889264952 10.15713194271256 1 rotate no_reflect no_shear #
lump $-1 $-1 $38 $8 #
transform $-1 1 0 0 0 1 0 0 0 1 42.738120670186468 28.117527889264952 10.15713194271256 1 rotate no_reflect no_shear #
lump $-1 $-1 $39 $9 #
transform $-1 1 0 0 0 1 0 0 0 1 42.738120670186468 28.117527889264952 10.15713194271256 1 rotate no_reflect no_shear #
shell $-1 $-1 $-1 $40 $-1 $10 #
shell $-1 $-1 $-1 $41 $-1 $12 #
shell $-1 $-1 $-1 $42 $-1 $14 #
shell $-1 $-1 $-1 $43 $-1 $16 #
shell $-1 $-1 $-1 $44 $-1 $18 #
shell $-1 $-1 $-1 $45 $-1 $20 #
shell $-1 $-1 $-1 $46 $-1 $22 #
shell $-1 $-1 $-1 $47 $-1 $24 #
shell $-1 $-1 $-1 $48 $-1 $26 #
shell $-1 $-1 $-1 $49 $-1 $28 #
face $-1 $50 $51 $30 $-1 $52 forward single #
face $-1 $53 $54 $31 $-1 $55 reversed single #
face $-1 $56 $57 $32 $-1 $58 reversed single #
face $-1 $59 $60 $33 $-1 $61 reversed single #
face $-1 $62 $63 $34 $-1 $64 forward single #
face $-1 $65 $66 $35 $-1 $67 forward single #
face $-1 $68 $69 $36 $-1 $70 reversed single #
face $-1 $71 $72 $37 $-1 $73 forward single #
face $-1 $74 $75 $38 $-1 $76 forward single #
face $-1 $77 $78 $39 $-1 $79 forward single #
face $-1 $80 $81 $30 $-1 $82 reversed single #
loop $-1 $-1 $83 $40 #
plane-surface $-1 0 0 10.15713194271256 0 0 1 1 0 0 forward_v I I I I #
face $-1 $84 $85 $31 $-1 $86 reversed single #
loop $-1 $-1 $87 $41 #
plane-surface $-1 -40.795131726123337 -18.054704422221537 0 0 -1 0 0 0 -1 forward_v I I I I #
face $-1 $88 $89 $32 $-1 $90 reversed single #
loop $-1 $-1 $91 $42 #
plane-surface $-1 -40.795131726123337 18.054704422221537 0 0 1 0 0 0 1 forward_v I I I I #
face $-1 $92 $93 $33 $-1 $94 reversed single #
loop $-1 $-1 $95 $43 #
plane-surface $-1 -107.2478595996761 5.1458913364006911 56.935650901642894 0 1 0 -0.75470958851134928 0 0.65605901945558964 forward_v I I I I #
face $-1 $96 $97 $34 $-1 $98 forward single #
loop $-1 $99 $100 $44 #
cone-surface $-1 -37.512533385050688 8.0886890014087349 4.4785440020258935 0.75470958851134928 0 -0.65605901945558964 0.65605901945558964 0 0.75470958851134928 1 I I 0 1 1 forward I I I I #
face $-1 $101 $102 $35 $-1 $103 forward single #
loop $-1 $104 $105 $45 #
cone-surface $-1 -37.512533385050688 12.502885498920794 4.4785440020258935 0.75470958851134928 0 -0.65605901945558964 0.65605901945558964 0 0.75470958851134928 1 I I 0 1 1 forward I I I I #
face $-1 $106 $107 $36 $-1 $108 reversed single #
loop $-1 $-1 $109 $46 #
plane-surface $-1 17.605411405798463 2.6047718962672199 123.38335913674322 0 -1 0 -0.54463904215088732 0 -0.83867056331134215 forward_v I I I I #
face $-1 $110 $111 $37 $-1 $112 forward single #
loop $-1 $113 $114 $47 #
cone-surface $-1 38.60545331052797 -2.2906839837717534 7.230857415599429 -0.54463904215088732 0 -0.83867056331134215 0.41933528165567108 0 -0.27231952107544366 1 I I 0 1 0.5 forward I I I I #
face $-1 $115 $116 $38 $-1 $117 forward single #
loop $-1 $118 $119 $48 #
cone-surface $-1 38.60545331052797 -0.4548880287571393 7.230857415599429 -0.54463904215088732 0 -0.83867056331134215 0.41933528165567108 0 -0.27231952107544366 1 I I 0 1 0.5 forward I I I I #
face $-1 $120 $121 $39 $-1 $122 forward single #
loop $-1 $123 $124 $49 #
cone-surface $-1 38.60545331052797 1.3809079262574748 7.230857415599429 -0.54463904215088732 0 -0.83867056331134215 0.41933528165567108 0 -0.27231952107544366 1 I I 0 1 0.5 forward I I I I #
face $-1 $125 $126 $30 $-1 $127 reversed single #
loop $-1 $-1 $128 $50 #
plane-surface $-1 0 0 -10.15713194271256 0 0 1 1 0 0 forward_v I I I I #
coedge $-1 $129 $130 $131 $132 forward $51 $-1 #
face $-1 $133 $134 $31 $-1 $135 forward single #
loop $-1 $-1 $136 $53 #
plane-surface $-1 -38.852142782060206 -23.086116155743245 0 -1 0 0 0 0 1 forward_v I I I I #
coedge $-1 $137 $138 $139 $140 forward $54 $-1 #
face $-1 $141 $142 $32 $-1 $143 reversed single #
loop $-1 $-1 $144 $56 #
plane-surface $-1 -38.852142782060206 23.086116155743245 0 -1 0 0 0 0 1 forward_v I I I I #
coedge $-1 $145 $146 $147 $148 reversed $57 $-1 #
face $-1 $149 $150 $33 $-1 $151 reversed single #
loop $-1 $-1 $152 $59 #
plane-surface $-1 -42.738120670186461 10.295787250164761 0.8581918211284929 -0.75470958851134928 0 0.65605901945558964 0.65605901945558964 0 0.75470958851134928 forward_v I I I I #
coedge $-1 $153 $154 $155 $156 reversed $60 $-1 #
face $-1 $-1 $157 $34 $-1 $158 forward single #
loop $-1 $159 $160 $62 #
cone-surface $-1 -35.951313864250345 8.0886890014087349 3.121396612403462 0.75470958851134928 0 -0.65605901945558964 0.32802950972779482 0 0.37735479425567464 1 I I -0.70710678118654746 0.70710678118654746 0.5 forward I I I I #
loop $-1 $-1 $161 $44 #
coedge $-1 $100 $100 $162 $163 reversed $63 $-1 #
face $-1 $-1 $164 $35 $-1 $165 forward single #
loop $-1 $166 $167 $65 #
cone-surface $-1 -35.951313864250345 12.502885498920794 3.121396612403462 0.75470958851134928 0 -0.65605901945558964 0.32802950972779482 0 0.37735479425567464 1 I I -0.70710678118654746 0.70710678118654746 0.5 forward I I I I #
loop $-1 $-1 $168 $45 #
coedge $-1 $105 $105 $169 $170 reversed $66 $-1 #
face $-1 $171 $172 $36 $-1 $173 reversed single #
loop $-1 $-1 $174 $68 #
plane-surface $-1 -28.948286804480333 -0.4548880287571393 51.696951662076415 0.54463904215088732 0 0.83867056331134215 0.83867056331134215 0 -0.54463904215088732 forward_v I I I I #
coedge $-1 $175 $176 $177 $178 reversed $69 $-1 #
face $-1 $-1 $179 $37 $-1 $180 forward single #
loop $-1 $181 $182 $71 #
cone-surface $-1 38.196974028914802 -2.2906839837717534 6.6018544931159227 -0.54463904215088732 0 -0.83867056331134215 0.20966764082783554 0 -0.13615976053772183 1 I I -0.70710678118654746 0.70710678118654746 0.25 forward I I I I #
loop $-1 $-1 $183 $47 #
coedge $-1 $114 $114 $184 $185 reversed $72 $-1 #
face $-1 $-1 $186 $38 $-1 $187 forward single #
loop $-1 $188 $189 $74 #
cone-surface $-1 38.196974028914802 -0.4548880287571393 6.6018544931159227 -0.54463904215088732 0 -0.83867056331134215 0.20966764082783554 0 -0.13615976053772183 1 I I -0.70710678118654746 0.70710678118654746 0.25 forward I I I I #
loop $-1 $-1 $190 $48 #
coedge $-1 $119 $119 $191 $192 reversed $75 $-1 #
face $-1 $-1 $193 $39 $-1 $194 forward single #
loop $-1 $195 $196 $77 #
cone-surface $-1 38.196974028914802 1.3809079262574748 6.6018544931159227 -0.54463904215088732 0 -0.83867056331134215 0.20966764082783554 0 -0.13615976053772183 1 I I -0.70710678118654746 0.70710678118654746 0.25 forward I I I I #
loop $-1 $-1 $197 $49 #
coedge $-1 $124 $124 $198 $199 reversed $78 $-1 #
face $-1 $200 $201 $30 $-1 $202 reversed single #
loop $-1 $-1 $203 $80 #
plane-surface $-1 0 -28.117527889264952 0 0 1 0 0 0 1 forward_v I I I I #
coedge $-1 $204 $205 $206 $207 forward $81 $-1 #
coedge $-1 $208 $83 $209 $210 forward $51 $-1 #
coedge $-1 $83 $208 $211 $212 forward $51 $-1 #
coedge $-1 $213 $214 $83 $132 reversed $215 $-1 #
edge $-1 $216 -28.117527889264952 $217 28.117527889264952 $131 $218 forward 7 unknown #
face $-1 $219 $220 $31 $-1 $221 reversed single #
loop $-1 $-1 $222 $84 #
plane-surface $-1 0 0 10.15713194271256 0 0 1 1 0 0 forward_v I I I I #
coedge $-1 $223 $224 $225 $226 reversed $85 $-1 #
coedge $-1 $227 $87 $228 $229 reversed $54 $-1 #
coedge $-1 $87 $227 $230 $231 reversed $54 $-1 #
coedge $-1 $224 $223 $87 $140 reversed $85 $-1 #
edge $-1 $232 -10.15713194271256 $233 10.15713194271256 $139 $234 forward 7 unknown #
face $-1 $235 $236 $32 $-1 $237 reversed single #
loop $-1 $-1 $238 $88 #
plane-surface $-1 0 0 -10.15713194271256 0 0 1 1 0 0 forward_v I I I I #
coedge $-1 $239 $240 $241 $242 forward $89 $-1 #
coedge $-1 $241 $91 $243 $244 reversed $57 $-1 #
coedge $-1 $91 $241 $245 $246 reversed $57 $-1 #
coedge $-1 $247 $248 $91 $148 forward $236 $-1 #
edge $-1 $249 -10.15713194271256 $250 10.15713194271256 $147 $251 forward 7 unknown #
face $-1 $252 $253 $33 $-1 $254 forward single #
loop $-1 $-1 $255 $92 #
plane-surface $-1 -107.2478595996761 15.44568316392883 56.935650901642894 0 -1 0 0.75470958851134928 0 -0.65605901945558964 forward_v I I I I #
coedge $-1 $256 $257 $258 $259 reversed $93 $-1 #
coedge $-1 $154 $95 $260 $261 reversed $60 $-1 #
coedge $-1 $95 $153 $256 $262 reversed $60 $-1 #
coedge $-1 $258 $263 $95 $156 forward $253 $-1 #
edge $-1 $264 10.885809129651584 $265 18.969254246833835 $155 $266 forward 7 unknown #
loop $-1 $-1 $162 $96 #
plane-surface $-1 -42.738120670186461 10.295787250164761 0.8581918211284929 -0.75470958851134928 0 0.65605901945558964 0.65605901945558964 0 0.75470958851134928 forward_v I I I I #
loop $-1 $-1 $267 $62 #
coedge $-1 $160 $160 $161 $268 reversed $97 $-1 #
coedge $-1 $161 $161 $160 $268 forward $99 $-1 #
coedge $-1 $162 $162 $100 $163 forward $157 $-1 #
edge $-1 $269 0 $269 6.2831853071796004 $162 $270 forward 7 unknown #
loop $-1 $-1 $169 $101 #
plane-surface $-1 -42.738120670186461 10.295787250164761 0.8581918211284929 -0.75470958851134928 0 0.65605901945558964 0.65605901945558964 0 0.75470958851134928 forward_v I I I I #
loop $-1 $-1 $271 $65 #
coedge $-1 $167 $167 $168 $272 reversed $102 $-1 #
coedge $-1 $168 $168 $167 $272 forward $104 $-1 #
coedge $-1 $169 $169 $105 $170 forward $164 $-1 #
edge $-1 $273 0 $273 6.2831853071796004 $169 $274 forward 7 unknown #
face $-1 $275 $276 $36 $-1 $277 reversed single #
loop $-1 $-1 $278 $106 #
plane-surface $-1 17.605411405798463 -3.5145479537814985 123.38335913674322 0 1 0 0.54463904215088732 0 0.83867056331134215 forward_v I I I I #
coedge $-1 $279 $280 $281 $282 reversed $107 $-1 #
coedge $-1 $176 $109 $283 $284 reversed $69 $-1 #
coedge $-1 $109 $175 $279 $285 reversed $69 $-1 #
coedge $-1 $281 $286 $109 $178 forward $287 $-1 #
edge $-1 $288 -33.935414967287237 $289 -26.214719290121117 $177 $290 forward 7 unknown #
loop $-1 $-1 $184 $110 #
plane-surface $-1 -28.948286804480333 -0.4548880287571393 51.696951662076415 0.54463904215088732 0 0.83867056331134215 0.83867056331134215 0 -0.54463904215088732 forward_v I I I I #
loop $-1 $-1 $291 $71 #
coedge $-1 $182 $182 $183 $292 reversed $111 $-1 #
coedge $-1 $183 $183 $182 $292 forward $113 $-1 #
coedge $-1 $184 $184 $114 $185 forward $179 $-1 #
edge $-1 $293 0 $293 6.2831853071796004 $184 $294 forward 7 unknown #
loop $-1 $-1 $191 $115 #
plane-surface $-1 -28.948286804480333 -0.4548880287571393 51.696951662076415 0.54463904215088732 0 0.83867056331134215 0.83867056331134215 0 -0.54463904215088732 forward_v I I I I #
loop $-1 $-1 $295 $74 #
coedge $-1 $189 $189 $190 $296 reversed $116 $-1 #
coedge $-1 $190 $190 $189 $296 forward $118 $-1 #
coedge $-1 $191 $191 $119 $192 forward $186 $-1 #
edge $-1 $297 0 $297 6.2831853071796004 $191 $298 forward 7 unknown #
loop $-1 $-1 $198 $120 #
plane-surface $-1 -28.948286804480333 -0.4548880287571393 51.696951662076415 0.54463904215088732 0 0.83867056331134215 0.83867056331134215 0 -0.54463904215088732 forward_v I I I I #
loop $-1 $-1 $299 $77 #
coedge $-1 $196 $196 $197 $300 reversed $121 $-1 #
coedge $-1 $197 $197 $196 $300 forward $123 $-1 #
coedge $-1 $198 $198 $124 $199 forward $193 $-1 #
edge $-1 $301 0 $301 6.2831853071796004 $198 $302 forward 7 unknown #
face $-1 $303 $304 $30 $-1 $305 reversed single #
loop $-1 $-1 $306 $125 #
plane-surface $-1 -42.738120670186468 0 0 1 0 0 0 0 -1 forward_v I I I I #
coedge $-1 $307 $211 $308 $309 forward $126 $-1 #
coedge $-1 $310 $128 $307 $311 forward $81 $-1 #
coedge $-1 $128 $310 $312 $313 forward $81 $-1 #
coedge $-1 $214 $213 $128 $207 reversed $215 $-1 #
edge $-1 $314 -28.117527889264952 $315 28.117527889264952 $206 $316 forward 7 unknown #
coedge $-1 $130 $129 $317 $318 forward $51 $-1 #
coedge $-1 $319 $320 $129 $210 reversed $304 $-1 #
edge $-1 $217 -42.738120670186468 $321 42.738120670186468 $209 $322 forward 7 unknown #
coedge $-1 $203 $323 $130 $212 reversed $126 $-1 #
edge $-1 $324 -42.738120670186468 $216 42.738120670186468 $211 $325 forward 7 unknown #
coedge $-1 $206 $131 $323 $326 forward $215 $-1 #
coedge $-1 $131 $206 $319 $327 reversed $215 $-1 #
loop $-1 $-1 $213 $303 #
vertex $-1 $132 $328 #
vertex $-1 $132 $329 #
straight-curve $-1 42.738120670186468 0 10.15713194271256 0 1 0 I I #
face $-1 $330 $331 $31 $-1 $332 reversed single #
loop $-1 $-1 $333 $133 #
plane-surface $-1 -42.738120670186468 0 0 1 0 0 0 0 -1 forward_v I I I I #
coedge $-1 $230 $334 $224 $335 forward $134 $-1 #
coedge $-1 $139 $136 $336 $337 reversed $85 $-1 #
coedge $-1 $136 $139 $222 $335 reversed $85 $-1 #
coedge $-1 $338 $339 $136 $226 forward $340 $-1 #
edge $-1 $341 -10.15713194271256 $342 10.15713194271256 $225 $343 forward 7 unknown #
coedge $-1 $138 $137 $333 $344 reversed $54 $-1 #
coedge $-1 $336 $345 $137 $229 forward $331 $-1 #
edge $-1 $346 -22.3405548071248 $233 -18.454576918998537 $228 $347 forward 7 unknown #
coedge $-1 $348 $222 $138 $231 forward $134 $-1 #
edge $-1 $232 18.454576918998537 $349 22.3405548071248 $230 $350 forward 7 unknown #
vertex $-1 $231 $351 #
vertex $-1 $229 $352 #
straight-curve $-1 -38.852142782060206 -18.054704422221537 0 0 0 -1 I I #
face $-1 $353 $354 $32 $-1 $355 forward single #
loop $-1 $-1 $147 $141 #
plane-surface $-1 -42.738120670186468 0 0 1 0 0 0 0 -1 forward_v I I I I #
coedge $-1 $243 $356 $239 $357 forward $142 $-1 #
coedge $-1 $358 $144 $238 $357 reversed $89 $-1 #
coedge $-1 $144 $358 $359 $360 reversed $89 $-1 #
coedge $-1 $146 $145 $144 $242 reversed $57 $-1 #
edge $-1 $361 -10.15713194271256 $362 10.15713194271256 $144 $363 forward 7 unknown #
coedge $-1 $364 $238 $145 $244 forward $142 $-1 #
edge $-1 $362 18.454576918998537 $249 22.3405548071248 $243 $365 forward 7 unknown #
coedge $-1 $359 $366 $146 $246 forward $354 $-1 #
edge $-1 $250 -22.3405548071248 $361 -18.454576918998537 $245 $367 forward 7 unknown #
coedge $-1 $368 $147 $366 $369 reversed $236 $-1 #
coedge $-1 $147 $368 $364 $370 reversed $236 $-1 #
vertex $-1 $370 $371 #
vertex $-1 $148 $372 #
straight-curve $-1 -42.738120670186468 18.054704422221537 0 0 0 1 I I #
face $-1 $-1 $373 $33 $-1 $374 reversed single #
loop $-1 $-1 $155 $149 #
plane-surface $-1 0 0 10.15713194271256 0 0 1 1 0 0 forward_v I I I I #
coedge $-1 $375 $376 $377 $378 reversed $150 $-1 #
coedge $-1 $379 $152 $154 $262 forward $93 $-1 #
coedge $-1 $152 $379 $375 $380 forward $93 $-1 #
coedge $-1 $377 $155 $152 $259 forward $253 $-1 #
edge $-1 $265 -0.0020022886816892793 $381 10.29778953884645 $258 $382 forward 7 unknown #
coedge $-1 $383 $384 $153 $261 forward $373 $-1 #
edge $-1 $385 -27.609633629692961 $264 -18.310693508108887 $260 $386 forward 7 unknown #
edge $-1 $265 -12.321216350154048 $385 1.086200982436365e-014 $154 $387 forward 7 unknown #
coedge $-1 $155 $377 $383 $388 forward $253 $-1 #
vertex $-1 $156 $389 #
vertex $-1 $156 $390 #
straight-curve $-1 -53.623929799838052 5.1458913364006911 10.15713194271256 1 0 0 I I #
coedge $-1 $267 $267 $-1 $391 reversed $159 $-1 #
edge $-1 $392 0 $392 6.2831853071796004 $160 $393 forward 7 unknown #
vertex $-1 $163 $394 #
ellipse-curve $-1 -38.696398111595343 8.0886890014087349 5.5076618819205221 -0.75470958851134928 0 0.65605901945558964 0.65605901945558964 0 0.75470958851134928 1 I I #
coedge $-1 $271 $271 $-1 $395 reversed $166 $-1 #
edge $-1 $396 0 $396 6.2831853071796004 $167 $397 forward 7 unknown #
vertex $-1 $170 $398 #
ellipse-curve $-1 -38.696398111595343 12.502885498920794 5.5076618819205221 -0.75470958851134928 0 0.65605901945558964 0.65605901945558964 0 0.75470958851134928 1 I I #
face $-1 $-1 $287 $36 $-1 $399 forward single #
loop $-1 $-1 $400 $171 #
plane-surface $-1 42.738120670186468 0 0 -1 0 0 0 0 1 forward_v I I I I #
coedge $-1 $401 $402 $403 $404 reversed $172 $-1 #
coedge $-1 $405 $174 $176 $285 forward $107 $-1 #
coedge $-1 $174 $405 $401 $406 forward $107 $-1 #
coedge $-1 $403 $177 $174 $282 forward $287 $-1 #
edge $-1 $289 -2.8322159106457896 $407 3.2871039394029289 $281 $408 forward 7 unknown #
coedge $-1 $409 $410 $175 $284 forward $276 $-1 #
edge $-1 $411 -56.548426116573985 $288 -51.534547625659052 $283 $412 forward 7 unknown #
edge $-1 $289 76.270367168895731 $411 85.476241340372923 $176 $413 forward 7 unknown #
coedge $-1 $177 $403 $409 $414 forward $287 $-1 #
loop $-1 $-1 $403 $275 #
vertex $-1 $284 $415 #
vertex $-1 $178 $416 #
straight-curve $-1 8.8027057028992317 2.6047718962672199 10.15713194271256 -1 0 0 I I #
coedge $-1 $291 $291 $-1 $417 reversed $181 $-1 #
edge $-1 $418 0 $418 6.2831853071796004 $182 $419 forward 7 unknown #
vertex $-1 $185 $420 #
ellipse-curve $-1 38.877772831603409 -2.2906839837717534 7.650192697255088 0.54463904215088732 0 0.83867056331134215 0.41933528165567108 0 -0.27231952107544366 1 I I #
coedge $-1 $295 $295 $-1 $421 reversed $188 $-1 #
edge $-1 $422 0 $422 6.2831853071796004 $189 $423 forward 7 unknown #
vertex $-1 $192 $424 #
ellipse-curve $-1 38.877772831603409 -0.4548880287571393 7.650192697255088 0.54463904215088732 0 0.83867056331134215 0.41933528165567108 0 -0.27231952107544366 1 I I #
coedge $-1 $299 $299 $-1 $425 reversed $195 $-1 #
edge $-1 $426 0 $426 6.2831853071796004 $196 $427 forward 7 unknown #
vertex $-1 $199 $428 #
ellipse-curve $-1 38.877772831603409 1.3809079262574748 7.650192697255088 0.54463904215088732 0 0.83867056331134215 0.41933528165567108 0 -0.27231952107544366 1 I I #
face $-1 $-1 $215 $30 $-1 $429 reversed single #
loop $-1 $-1 $319 $200 #
plane-surface $-1 0 28.117527889264952 0 0 -1 0 0 0 -1 forward_v I I I I #
coedge $-1 $430 $317 $320 $431 forward $201 $-1 #
coedge $-1 $323 $203 $204 $311 reversed $126 $-1 #
coedge $-1 $317 $430 $203 $309 reversed $201 $-1 #
edge $-1 $324 -10.15713194271256 $432 10.15713194271256 $308 $433 forward 7 unknown #
coedge $-1 $205 $204 $430 $434 forward $81 $-1 #
edge $-1 $315 -42.738120670186468 $432 42.738120670186468 $307 $435 forward 7 unknown #
coedge $-1 $320 $319 $205 $313 reversed $304 $-1 #
edge $-1 $436 -42.738120670186468 $314 42.738120670186468 $312 $437 forward 7 unknown #
vertex $-1 $207 $438 #
vertex $-1 $326 $439 #
straight-curve $-1 42.738120670186468 0 -10.15713194271256 0 -1 0 I I #
coedge $-1 $306 $308 $208 $318 reversed $201 $-1 #
edge $-1 $321 -28.117527889264952 $324 28.117527889264952 $317 $440 forward 7 unknown #
coedge $-1 $312 $209 $214 $327 forward $304 $-1 #
coedge $-1 $209 $312 $306 $431 reversed $304 $-1 #
vertex $-1 $210 $441 #
straight-curve $-1 0 28.117527889264952 10.15713194271256 -1 0 0 I I #
coedge $-1 $211 $307 $213 $326 reversed $126 $-1 #
vertex $-1 $318 $442 #
straight-curve $-1 0 -28.117527889264952 10.15713194271256 1 0 0 I I #
edge $-1 $216 -10.15713194271256 $315 10.15713194271256 $213 $443 forward 7 unknown #
edge $-1 $217 -10.15713194271256 $314 10.15713194271256 $214 $444 forward 7 unknown #
point $-1 42.738120670186468 -28.117527889264952 10.15713194271256 #
point $-1 42.738120670186468 28.117527889264952 10.15713194271256 #
face $-1 $-1 $340 $31 $-1 $445 reversed single #
loop $-1 $-1 $336 $219 #
plane-surface $-1 0 0 -10.15713194271256 0 0 1 1 0 0 forward_v I I I I #
coedge $-1 $446 $447 $227 $344 forward $220 $-1 #
coedge $-1 $222 $348 $338 $448 forward $134 $-1 #
edge $-1 $342 -16.574469811393328 $232 -6.5116463443499146 $222 $449 forward 7 unknown #
coedge $-1 $450 $228 $223 $337 forward $331 $-1 #
edge $-1 $233 6.5116463443499146 $341 16.574469811393328 $336 $451 forward 7 unknown #
coedge $-1 $452 $225 $334 $448 reversed $340 $-1 #
coedge $-1 $225 $452 $450 $453 reversed $340 $-1 #
loop $-1 $-1 $225 $330 #
vertex $-1 $453 $454 #
vertex $-1 $226 $455 #
straight-curve $-1 -38.852142782060206 -28.117527889264952 0 0 0 1 I I #
edge $-1 $349 -10.15713194271256 $346 10.15713194271256 $333 $456 forward 7 unknown #
coedge $-1 $228 $450 $446 $457 forward $331 $-1 #
vertex $-1 $229 $458 #
straight-curve $-1 -20.397565863061669 -18.054704422221537 -10.15713194271256 1 0 0 I I #
coedge $-1 $334 $230 $447 $459 forward $134 $-1 #
vertex $-1 $459 $460 #
straight-curve $-1 -20.397565863061669 -18.054704422221537 10.15713194271256 -1 0 0 I I #
point $-1 -38.852142782060206 -18.054704422221537 10.15713194271256 #
point $-1 -38.852142782060206 -18.054704422221537 -10.15713194271256 #
face $-1 $-1 $461 $32 $-1 $462 reversed single #
loop $-1 $-1 $359 $235 #
plane-surface $-1 0 0 10.15713194271256 0 0 1 1 0 0 forward_v I I I I #
coedge $-1 $238 $364 $463 $464 forward $142 $-1 #
edge $-1 $465 -16.574469811393328 $362 -6.5116463443499146 $238 $466 forward 7 unknown #
coedge $-1 $240 $239 $467 $468 reversed $89 $-1 #
coedge $-1 $469 $245 $240 $360 forward $354 $-1 #
edge $-1 $361 6.5116463443499146 $470 16.574469811393328 $359 $471 forward 7 unknown #
vertex $-1 $246 $472 #
vertex $-1 $244 $473 #
straight-curve $-1 -38.852142782060206 18.054704422221537 0 0 0 -1 I I #
coedge $-1 $356 $243 $248 $370 forward $142 $-1 #
straight-curve $-1 -20.397565863061669 18.054704422221537 -10.15713194271256 -1 0 0 I I #
coedge $-1 $245 $469 $247 $369 forward $354 $-1 #
straight-curve $-1 -20.397565863061669 18.054704422221537 10.15713194271256 1 0 0 I I #
coedge $-1 $248 $247 $474 $475 forward $236 $-1 #
edge $-1 $476 -28.117527889264952 $250 -18.054704422221537 $247 $477 forward 7 unknown #
edge $-1 $249 18.054704422221537 $478 28.117527889264952 $248 $479 forward 7 unknown #
point $-1 -42.738120670186468 18.054704422221537 -10.15713194271256 #
point $-1 -42.738120670186468 18.054704422221537 10.15713194271256 #
loop $-1 $-1 $260 $252 #
plane-surface $-1 -42.738120670186468 0 0 1 0 0 0 0 -1 forward_v I I I I #
coedge $-1 $376 $255 $257 $380 reversed $150 $-1 #
coedge $-1 $255 $375 $480 $481 reversed $150 $-1 #
coedge $-1 $263 $258 $255 $378 forward $253 $-1 #
edge $-1 $381 -18.969254246833835 $482 -10.885809129651584 $377 $483 forward 7 unknown #
coedge $-1 $257 $256 $384 $484 reversed $93 $-1 #
edge $-1 $485 -1.086200982436365e-014 $381 12.321216350154048 $375 $486 forward 7 unknown #
vertex $-1 $259 $487 #
straight-curve $-1 -34.654675553004218 5.1478936250823804 10.15713194271256 0 1 0 I I #
coedge $-1 $480 $260 $263 $388 reversed $373 $-1 #
coedge $-1 $260 $480 $379 $484 forward $373 $-1 #
vertex $-1 $261 $488 #
straight-curve $-1 -42.738120670186468 5.1458913364006911 28.467825450821447 0 0 1 I I #
straight-curve $-1 -42.738120670186461 5.1458913364006911 0.8581918211284929 -0.65605901945558964 0 -0.75470958851134928 I I #
edge $-1 $482 -15.44568316392883 $264 -5.1458913364006911 $383 $489 forward 7 unknown #
point $-1 -42.738120670186468 5.1458913364006911 10.15713194271256 #
point $-1 -34.654675553004218 5.1458913364006911 10.15713194271256 #
edge $-1 $490 1 $490 0 $267 $-1 forward 7 unknown #
vertex $-1 $268 $491 #
ellipse-curve $-1 -36.328668658506018 8.0886890014087349 3.449426122131257 -0.75470958851134928 0 0.65605901945558964 0.65605901945558964 0 0.75470958851134928 1 I I #
point $-1 -38.04033909213976 8.0886890014087349 6.26237147043188 #
edge $-1 $492 1 $492 0 $271 $-1 forward 7 unknown #
vertex $-1 $272 $493 #
ellipse-curve $-1 -36.328668658506018 12.502885498920794 3.449426122131257 -0.75470958851134928 0 0.65605901945558964 0.65605901945558964 0 0.75470958851134928 1 I I #
point $-1 -38.04033909213976 12.502885498920794 6.26237147043188 #
plane-surface $-1 0 0 10.15713194271256 0 0 1 1 0 0 forward_v I I I I #
coedge $-1 $410 $409 $402 $494 forward $276 $-1 #
coedge $-1 $402 $278 $280 $406 reversed $172 $-1 #
coedge $-1 $278 $401 $400 $494 reversed $172 $-1 #
coedge $-1 $286 $281 $278 $404 forward $287 $-1 #
edge $-1 $407 26.214719290121117 $495 33.935414967287237 $403 $496 forward 7 unknown #
coedge $-1 $280 $279 $410 $497 reversed $107 $-1 #
edge $-1 $498 -85.476241340372923 $407 -76.270367168895731 $401 $499 forward 7 unknown #
vertex $-1 $282 $500 #
straight-curve $-1 35.017424993020356 -0.22744401437856965 10.15713194271256 0 -1 0 I I #
coedge $-1 $400 $283 $286 $414 reversed $276 $-1 #
coedge $-1 $283 $400 $405 $497 forward $276 $-1 #
vertex $-1 $284 $501 #
straight-curve $-1 42.738120670186468 2.6047718962672199 61.691679568371612 0 0 1 I I #
straight-curve $-1 -28.948286804480333 2.6047718962672199 51.696951662076415 0.83867056331134215 0 -0.54463904215088732 I I #
edge $-1 $495 -3.5145479537814985 $288 2.6047718962672199 $409 $502 forward 7 unknown #
point $-1 42.738120670186468 2.6047718962672199 10.15713194271256 #
point $-1 35.017424993020349 2.6047718962672199 10.15713194271256 #
edge $-1 $503 1 $503 0 $291 $-1 forward 7 unknown #
vertex $-1 $292 $504 #
ellipse-curve $-1 38.333133789452525 -2.2906839837717534 6.8115221339437584 0.54463904215088732 0 0.83867056331134215 0.41933528165567108 0 -0.27231952107544366 1 I I #
point $-1 39.297108113259085 -2.2906839837717534 7.3778731761796568 #
edge $-1 $505 1 $505 0 $295 $-1 forward 7 unknown #
vertex $-1 $296 $506 #
ellipse-curve $-1 38.333133789452525 -0.4548880287571393 6.8115221339437584 0.54463904215088732 0 0.83867056331134215 0.41933528165567108 0 -0.27231952107544366 1 I I #
point $-1 39.297108113259085 -0.4548880287571393 7.3778731761796568 #
edge $-1 $507 1 $507 0 $299 $-1 forward 7 unknown #
vertex $-1 $300 $508 #
ellipse-curve $-1 38.333133789452525 1.3809079262574748 6.8115221339437584 0.54463904215088732 0 0.83867056331134215 0.41933528165567108 0 -0.27231952107544366 1 I I #
point $-1 39.297108113259085 1.3809079262574748 7.3778731761796568 #
plane-surface $-1 42.738120670186468 0 0 -1 0 0 0 0 1 forward_v I I I I #
coedge $-1 $308 $306 $310 $434 reversed $201 $-1 #
edge $-1 $321 -10.15713194271256 $436 10.15713194271256 $320 $509 forward 7 unknown #
vertex $-1 $434 $510 #
straight-curve $-1 -42.738120670186468 -28.117527889264952 0 0 0 -1 I I #
edge $-1 $432 -28.117527889264952 $436 28.117527889264952 $430 $511 forward 7 unknown #
straight-curve $-1 0 -28.117527889264952 -10.15713194271256 -1 0 0 I I #
vertex $-1 $313 $512 #
straight-curve $-1 0 28.117527889264952 -10.15713194271256 1 0 0 I I #
point $-1 42.738120670186468 28.117527889264952 -10.15713194271256 #
point $-1 42.738120670186468 -28.117527889264952 -10.15713194271256 #
straight-curve $-1 -42.738120670186468 0 10.15713194271256 0 -1 0 I I #
point $-1 -42.738120670186468 28.117527889264952 10.15713194271256 #
point $-1 -42.738120670186468 -28.117527889264952 10.15713194271256 #
straight-curve $-1 42.738120670186468 -28.117527889264952 0 0 0 -1 I I #
straight-curve $-1 42.738120670186468 28.117527889264952 0 0 0 -1 I I #
plane-surface $-1 0 -28.117527889264952 0 0 1 0 0 0 1 forward_v I I I I #
coedge $-1 $513 $333 $345 $457 reversed $220 $-1 #
coedge $-1 $333 $513 $348 $459 reversed $220 $-1 #
edge $-1 $514 -42.738120670186468 $342 -38.852142782060206 $338 $515 forward 7 unknown #
straight-curve $-1 -38.852142782060206 -11.543058077871622 10.15713194271256 0 1 0 I I #
coedge $-1 $345 $336 $339 $453 forward $331 $-1 #
straight-curve $-1 -38.852142782060206 -11.543058077871622 -10.15713194271256 0 -1 0 I I #
coedge $-1 $339 $338 $513 $516 forward $340 $-1 #
edge $-1 $341 38.852142782060206 $517 42.738120670186468 $339 $518 forward 7 unknown #
point $-1 -38.852142782060206 -28.117527889264952 -10.15713194271256 #
point $-1 -38.852142782060206 -28.117527889264952 10.15713194271256 #
straight-curve $-1 -42.738120670186468 -18.054704422221537 0 0 0 -1 I I #
edge $-1 $517 -28.117527889264952 $346 -18.054704422221537 $446 $519 forward 7 unknown #
point $-1 -42.738120670186468 -18.054704422221537 -10.15713194271256 #
edge $-1 $349 18.054704422221537 $514 28.117527889264952 $447 $520 forward 7 unknown #
point $-1 -42.738120670186468 -18.054704422221537 10.15713194271256 #
loop $-1 $-1 $467 $353 #
plane-surface $-1 0 28.117527889264952 0 0 -1 0 0 0 -1 forward_v I I I I #
coedge $-1 $474 $467 $356 $464 reversed $461 $-1 #
edge $-1 $478 -42.738120670186468 $465 -38.852142782060206 $463 $521 forward 7 unknown #
vertex $-1 $357 $522 #
straight-curve $-1 -38.852142782060206 11.543058077871622 -10.15713194271256 0 -1 0 I I #
coedge $-1 $463 $523 $358 $468 forward $461 $-1 #
edge $-1 $470 -10.15713194271256 $465 10.15713194271256 $467 $524 forward 7 unknown #
coedge $-1 $366 $359 $523 $525 forward $354 $-1 #
vertex $-1 $525 $526 #
straight-curve $-1 -38.852142782060206 11.543058077871622 10.15713194271256 0 1 0 I I #
point $-1 -38.852142782060206 18.054704422221537 10.15713194271256 #
point $-1 -38.852142782060206 18.054704422221537 -10.15713194271256 #
coedge $-1 $523 $463 $368 $475 reversed $461 $-1 #
edge $-1 $476 -10.15713194271256 $478 10.15713194271256 $474 $527 forward 7 unknown #
vertex $-1 $525 $528 #
straight-curve $-1 -42.738120670186468 0 10.15713194271256 0 -1 0 I I #
vertex $-1 $464 $529 #
straight-curve $-1 -42.738120670186468 0 -10.15713194271256 0 1 0 I I #
coedge $-1 $384 $383 $376 $481 forward $373 $-1 #
edge $-1 $482 18.310693508108887 $485 27.609633629692961 $480 $530 forward 7 unknown #
vertex $-1 $388 $531 #
straight-curve $-1 -53.623929799838052 15.44568316392883 10.15713194271256 -1 0 0 I I #
edge $-1 $485 -10.29778953884645 $385 0.0020022886816892793 $384 $532 forward 7 unknown #
vertex $-1 $484 $533 #
straight-curve $-1 -42.738120670186461 15.44568316392883 0.8581918211284929 0.65605901945558964 0 0.75470958851134928 I I #
point $-1 -34.654675553004218 15.44568316392883 10.15713194271256 #
point $-1 -42.738120670186468 5.1458913364006911 0.85819182112848469 #
straight-curve $-1 -42.738120670186468 0 10.15713194271256 0 -1 0 I I #
vertex $-1 $391 $534 #
point $-1 -35.672609639050428 8.0886890014087349 4.204135710642606 #
vertex $-1 $395 $535 #
point $-1 -35.672609639050428 12.502885498920794 4.204135710642606 #
edge $-1 $495 51.534547625659052 $498 56.548426116573985 $400 $536 forward 7 unknown #
vertex $-1 $414 $537 #
straight-curve $-1 8.8027057028992317 -3.5145479537814985 10.15713194271256 1 0 0 I I #
edge $-1 $498 -3.2871039394029289 $411 2.8322159106457896 $410 $538 forward 7 unknown #
vertex $-1 $497 $539 #
straight-curve $-1 -28.948286804480333 -3.5145479537814985 51.696951662076415 -0.83867056331134215 0 0.54463904215088732 I I #
point $-1 35.017424993020349 -3.5145479537814985 10.15713194271256 #
point $-1 42.738120670186461 2.6047718962672199 5.1432534517976265 #
straight-curve $-1 42.738120670186468 0 10.15713194271256 0 1 0 I I #
vertex $-1 $417 $540 #
point $-1 38.752469071108194 -2.2906839837717534 6.5392026128683147 #
vertex $-1 $421 $541 #
point $-1 38.752469071108194 -0.4548880287571393 6.5392026128683147 #
vertex $-1 $425 $542 #
point $-1 38.752469071108194 1.3809079262574748 6.5392026128683147 #
straight-curve $-1 -42.738120670186468 28.117527889264952 0 0 0 -1 I I #
point $-1 -42.738120670186468 -28.117527889264952 -10.15713194271256 #
straight-curve $-1 -42.738120670186468 0 -10.15713194271256 0 1 0 I I #
point $-1 -42.738120670186468 28.117527889264952 -10.15713194271256 #
coedge $-1 $447 $446 $452 $516 reversed $220 $-1 #
vertex $-1 $459 $543 #
straight-curve $-1 0 -28.117527889264952 10.15713194271256 1 0 0 I I #
edge $-1 $514 -10.15713194271256 $517 10.15713194271256 $513 $544 forward 7 unknown #
vertex $-1 $457 $545 #
straight-curve $-1 0 -28.117527889264952 -10.15713194271256 -1 0 0 I I #
straight-curve $-1 -42.738120670186468 0 -10.15713194271256 0 1 0 I I #
straight-curve $-1 -42.738120670186468 0 10.15713194271256 0 -1 0 I I #
straight-curve $-1 0 28.117527889264952 -10.15713194271256 1 0 0 I I #
point $-1 -38.852142782060206 28.117527889264952 -10.15713194271256 #
coedge $-1 $467 $474 $469 $525 reversed $461 $-1 #
straight-curve $-1 -38.852142782060206 28.117527889264952 0 0 0 -1 I I #
edge $-1 $470 38.852142782060206 $476 42.738120670186468 $523 $546 forward 7 unknown #
point $-1 -38.852142782060206 28.117527889264952 10.15713194271256 #
straight-curve $-1 -42.738120670186468 28.117527889264952 0 0 0 -1 I I #
point $-1 -42.738120670186468 28.117527889264952 10.15713194271256 #
point $-1 -42.738120670186468 28.117527889264952 -10.15713194271256 #
straight-curve $-1 -42.738120670186468 15.44568316392883 28.467825450821447 0 0 -1 I I #
point $-1 -42.738120670186468 15.44568316392883 10.15713194271256 #
straight-curve $-1 -42.738120670186468 5.1478936250823804 0.85819182112847725 0 -1 0 I I #
point $-1 -42.738120670186468 15.44568316392883 0.85819182112848469 #
point $-1 -35.573959069994672 8.0886890014087349 2.793367102675667 #
point $-1 -35.573959069994672 12.502885498920794 2.793367102675667 #
straight-curve $-1 42.738120670186468 -3.5145479537814985 61.691679568371612 0 0 -1 I I #
point $-1 42.738120670186468 -3.5145479537814985 10.15713194271256 #
straight-curve $-1 42.738120670186468 -0.22744401437856965 5.1432534517976265 0 1 0 I I #
point $-1 42.738120670186461 -3.5145479537814985 5.1432534517976265 #
point $-1 38.060814268377079 -2.2906839837717534 6.3921868522880869 #
point $-1 38.060814268377079 -0.4548880287571393 6.3921868522880869 #
point $-1 38.060814268377079 1.3809079262574748 6.3921868522880869 #
point $-1 -42.738120670186468 -28.117527889264952 10.15713194271256 #
straight-curve $-1 -42.738120670186468 -28.117527889264952 0 0 0 -1 I I #
point $-1 -42.738120670186468 -28.117527889264952 -10.15713194271256 #
straight-curve $-1 0 28.117527889264952 10.15713194271256 -1 0 0 I I #
End-of-ACIS-data 