500 0 6 0           
7 Unknown 11 ACIS 5.0 NT 24 Fri Mar 26 00:50:08 1999 
-1 9.9999999999999995e-007 1e-010 
body $-1 $6 $-1 $7 #
body $-1 $8 $-1 $9 #
body $-1 $10 $-1 $11 #
body $-1 $12 $-1 $13 #
body $-1 $14 $-1 $15 #
body $-1 $16 $-1 $17 #
lump $-1 $-1 $18 $0 #
transform $-1 1 0 0 0 1 0 0 0 1 53.632007812738422 29.438926130555533 10.511566265904316 1 rotate no_reflect no_shear #
lump $-1 $-1 $19 $1 #
transform $-1 1 0 0 0 1 0 0 0 1 53.632007812738422 29.438926130555533 10.511566265904316 1 rotate no_reflect no_shear #
lump $-1 $-1 $20 $2 #
transform $-1 1 0 0 0 1 0 0 0 1 53.632007812738422 29.438926130555533 10.511566265904316 1 rotate no_reflect no_shear #
lump $-1 $-1 $21 $3 #
transform $-1 1 0 0 0 1 0 0 0 1 53.632007812738422 29.438926130555533 10.511566265904316 1 rotate no_reflect no_shear #
lump $-1 $-1 $22 $4 #
transform $-1 1 0 0 0 1 0 0 0 1 53.632007812738422 29.438926130555533 10.511566265904316 1 rotate no_reflect no_shear #
lump $-1 $-1 $23 $5 #
transform $-1 1 0 0 0 1 0 0 0 1 53.632007812738422 29.438926130555533 10.511566265904316 1 rotate no_reflect no_shear #
shell $-1 $-1 $-1 $24 $-1 $6 #
shell $-1 $-1 $-1 $25 $-1 $8 #
shell $-1 $-1 $-1 $26 $-1 $10 #
shell $-1 $-1 $-1 $27 $-1 $12 #
shell $-1 $-1 $-1 $28 $-1 $14 #
shell $-1 $-1 $-1 $29 $-1 $16 #
face $-1 $30 $31 $18 $-1 $32 forward single #
face $-1 $33 $34 $19 $-1 $35 forward single #
face $-1 $36 $37 $20 $-1 $38 forward single #
face $-1 $39 $40 $21 $-1 $41 reversed single #
face $-1 $42 $43 $22 $-1 $44 forward single #
face $-1 $45 $46 $23 $-1 $47 forward single #
face $-1 $48 $49 $18 $-1 $50 reversed single #
loop $-1 $-1 $51 $24 #
plane-surface $-1 0 0 10.511566265904316 0 0 1 1 0 0 forward_v I I I I #
face $-1 $52 $53 $19 $-1 $54 reversed single #
loop $-1 $-1 $55 $25 #
plane-surface $-1 0 -29.438926130555533 0 0 1 0 0 0 1 forward_v I I I I #
face $-1 $56 $57 $20 $-1 $58 reversed single #
loop $-1 $-1 $59 $26 #
plane-surface $-1 0 29.438926130555533 0 0 -1 0 0 0 -1 forward_v I I I I #
face $-1 $60 $61 $21 $-1 $62 reversed single #
loop $-1 $-1 $63 $27 #
plane-surface $-1 72.118885509982377 -3.9988815410325405 153.34261806674755 0 -1 0 -0.78801076186113728 0 -0.61566146476048833 forward_v I I I I #
face $-1 $64 $65 $22 $-1 $66 forward single #
loop $-1 $67 $68 $28 #
cone-surface $-1 50.06907790618304 -8.4933126626425413 6.2216435048444918 -0.78801076186113728 0 -0.61566146476048833 0.30783073238024417 0 -0.39400538093056864 1 I I 0 1 0.5 forward I I I I #
face $-1 $69 $70 $23 $-1 $71 forward single #
loop $-1 $72 $73 $29 #
cone-surface $-1 50.06907790618304 -5.796653989676539 6.2216435048444918 -0.78801076186113728 0 -0.61566146476048833 0.30783073238024417 0 -0.39400538093056864 1 I I 0 1 0.5 forward I I I I #
face $-1 $74 $75 $18 $-1 $76 reversed single #
loop $-1 $-1 $77 $30 #
plane-surface $-1 0 0 -10.511566265904316 0 0 1 1 0 0 forward_v I I I I #
coedge $-1 $78 $79 $80 $81 forward $31 $-1 #
face $-1 $82 $83 $19 $-1 $84 forward single #
loop $-1 $-1 $85 $33 #
plane-surface $-1 -53.632007812738422 0 0 1 0 0 0 0 -1 forward_v I I I I #
coedge $-1 $86 $87 $88 $89 forward $34 $-1 #
face $-1 $90 $91 $20 $-1 $92 forward single #
loop $-1 $-1 $93 $36 #
plane-surface $-1 53.632007812738422 0 0 -1 0 0 0 0 1 forward_v I I I I #
coedge $-1 $94 $95 $96 $97 forward $37 $-1 #
face $-1 $98 $99 $21 $-1 $100 reversed single #
loop $-1 $-1 $101 $39 #
plane-surface $-1 -12.406313163334559 -7.1449833261595437 87.304297090674567 0.78801076186113728 0 0.61566146476048833 0.61566146476048833 0 -0.78801076186113728 forward_v I I I I #
coedge $-1 $102 $103 $104 $105 reversed $40 $-1 #
face $-1 $-1 $106 $22 $-1 $107 forward single #
loop $-1 $108 $109 $42 #
cone-surface $-1 49.329778219432526 -8.4933126626425413 5.6440393018678829 -0.78801076186113728 0 -0.61566146476048833 0.15391536619012208 0 -0.19700269046528432 1 I I -0.70710678118654746 0.70710678118654746 0.25 forward I I I I #
loop $-1 $-1 $110 $28 #
coedge $-1 $68 $68 $111 $112 reversed $43 $-1 #
face $-1 $-1 $113 $23 $-1 $114 forward single #
loop $-1 $115 $116 $45 #
cone-surface $-1 49.329778219432526 -5.796653989676539 5.6440393018678829 -0.78801076186113728 0 -0.61566146476048833 0.15391536619012208 0 -0.19700269046528432 1 I I -0.70710678118654746 0.70710678118654746 0.25 forward I I I I #
loop $-1 $-1 $117 $29 #
coedge $-1 $73 $73 $118 $119 reversed $46 $-1 #
face $-1 $120 $121 $18 $-1 $122 reversed single #
loop $-1 $-1 $123 $48 #
plane-surface $-1 0 -29.438926130555533 0 0 1 0 0 0 1 forward_v I I I I #
coedge $-1 $124 $125 $126 $127 forward $49 $-1 #
coedge $-1 $128 $51 $129 $130 forward $31 $-1 #
coedge $-1 $51 $128 $131 $132 forward $31 $-1 #
coedge $-1 $133 $134 $51 $81 reversed $135 $-1 #
edge $-1 $136 -29.438926130555533 $137 29.438926130555533 $80 $138 forward 7 unknown #
face $-1 $139 $140 $19 $-1 $141 reversed single #
loop $-1 $-1 $142 $52 #
plane-surface $-1 0 -34.974402835706975 4.0055286977411546 0 0 1 1 0 0 forward_v I I I I #
coedge $-1 $143 $144 $87 $145 forward $53 $-1 #
coedge $-1 $146 $55 $147 $148 reversed $34 $-1 #
coedge $-1 $55 $146 $85 $145 reversed $34 $-1 #
coedge $-1 $149 $142 $55 $89 reversed $83 $-1 #
edge $-1 $150 -53.632007812738422 $151 53.632007812738422 $88 $152 forward 7 unknown #
face $-1 $153 $154 $20 $-1 $155 reversed single #
loop $-1 $-1 $156 $56 #
plane-surface $-1 0 34.974402835706982 4.0055286977411546 0 0 1 1 0 0 forward_v I I I I #
coedge $-1 $157 $158 $95 $159 forward $57 $-1 #
coedge $-1 $160 $59 $161 $162 reversed $37 $-1 #
coedge $-1 $59 $160 $93 $159 reversed $37 $-1 #
coedge $-1 $156 $163 $59 $97 reversed $91 $-1 #
edge $-1 $164 -53.632007812738422 $165 53.632007812738422 $96 $166 forward 7 unknown #
face $-1 $167 $168 $21 $-1 $169 forward single #
loop $-1 $-1 $170 $60 #
plane-surface $-1 72.118885509982377 -10.291085111286547 153.34261806674755 0 1 0 0.78801076186113728 0 0.61566146476048833 forward_v I I I I #
coedge $-1 $171 $172 $173 $174 reversed $61 $-1 #
coedge $-1 $103 $63 $175 $176 reversed $40 $-1 #
coedge $-1 $63 $102 $171 $177 reversed $40 $-1 #
coedge $-1 $173 $178 $63 $105 forward $168 $-1 #
edge $-1 $179 -17.572565057747234 $180 -11.531299237206895 $104 $181 forward 7 unknown #
loop $-1 $-1 $111 $64 #
plane-surface $-1 -12.406313163334559 -7.1449833261595437 87.304297090674567 0.78801076186113728 0 0.61566146476048833 0.61566146476048833 0 -0.78801076186113728 forward_v I I I I #
loop $-1 $-1 $182 $42 #
coedge $-1 $109 $109 $110 $183 reversed $65 $-1 #
coedge $-1 $110 $110 $109 $183 forward $67 $-1 #
coedge $-1 $111 $111 $68 $112 forward $106 $-1 #
edge $-1 $184 0 $184 6.2831853071796004 $111 $185 forward 7 unknown #
loop $-1 $-1 $118 $69 #
plane-surface $-1 -12.406313163334559 -7.1449833261595437 87.304297090674567 0.78801076186113728 0 0.61566146476048833 0.61566146476048833 0 -0.78801076186113728 forward_v I I I I #
loop $-1 $-1 $186 $45 #
coedge $-1 $116 $116 $117 $187 reversed $70 $-1 #
coedge $-1 $117 $117 $116 $187 forward $72 $-1 #
coedge $-1 $118 $118 $73 $119 forward $113 $-1 #
edge $-1 $188 0 $188 6.2831853071796004 $118 $189 forward 7 unknown #
face $-1 $190 $191 $18 $-1 $192 reversed single #
loop $-1 $-1 $193 $74 #
plane-surface $-1 -53.632007812738422 0 0 1 0 0 0 0 -1 forward_v I I I I #
coedge $-1 $194 $131 $195 $196 forward $75 $-1 #
coedge $-1 $197 $77 $194 $198 forward $49 $-1 #
coedge $-1 $77 $197 $199 $200 forward $49 $-1 #
coedge $-1 $134 $133 $77 $127 reversed $135 $-1 #
edge $-1 $201 -29.438926130555533 $202 29.438926130555533 $126 $203 forward 7 unknown #
coedge $-1 $79 $78 $204 $205 forward $31 $-1 #
coedge $-1 $206 $207 $78 $130 reversed $191 $-1 #
edge $-1 $137 -53.632007812738422 $208 53.632007812738422 $129 $209 forward 7 unknown #
coedge $-1 $123 $210 $79 $132 reversed $75 $-1 #
edge $-1 $211 -53.632007812738422 $136 53.632007812738422 $131 $212 forward 7 unknown #
coedge $-1 $126 $80 $210 $213 forward $135 $-1 #
coedge $-1 $80 $126 $206 $214 reversed $135 $-1 #
loop $-1 $-1 $133 $190 #
vertex $-1 $81 $215 #
vertex $-1 $81 $216 #
straight-curve $-1 53.632007812738422 0 10.511566265904316 0 1 0 I I #
face $-1 $217 $218 $19 $-1 $219 reversed single #
loop $-1 $-1 $220 $82 #
plane-surface $-1 0 -34.974402835706975 -0.25395415285317124 0 0 1 1 0 0 forward_v I I I I #
coedge $-1 $88 $221 $222 $223 forward $83 $-1 #
coedge $-1 $224 $85 $225 $226 reversed $53 $-1 #
coedge $-1 $85 $224 $149 $227 reversed $53 $-1 #
edge $-1 $150 -4.0055286977411546 $228 0.25395415285317124 $85 $229 forward 7 unknown #
coedge $-1 $87 $86 $230 $231 forward $34 $-1 #
coedge $-1 $222 $232 $86 $148 forward $233 $-1 #
edge $-1 $234 -0.25395415285317124 $151 4.0055286977411546 $147 $235 forward 7 unknown #
coedge $-1 $221 $88 $144 $227 forward $83 $-1 #
vertex $-1 $145 $236 #
vertex $-1 $223 $237 #
straight-curve $-1 0 -29.438926130555533 4.0055286977411546 1 0 0 I I #
face $-1 $238 $239 $20 $-1 $240 reversed single #
loop $-1 $-1 $241 $90 #
plane-surface $-1 0 34.974402835706982 -0.25395415285317124 0 0 1 1 0 0 forward_v I I I I #
coedge $-1 $242 $96 $158 $243 forward $91 $-1 #
coedge $-1 $244 $93 $241 $245 reversed $57 $-1 #
coedge $-1 $93 $244 $156 $243 reversed $57 $-1 #
edge $-1 $164 -4.0055286977411546 $246 0.25395415285317124 $93 $247 forward 7 unknown #
coedge $-1 $95 $94 $248 $249 forward $37 $-1 #
coedge $-1 $250 $251 $94 $162 forward $252 $-1 #
edge $-1 $253 -0.25395415285317124 $165 4.0055286977411546 $161 $254 forward 7 unknown #
coedge $-1 $96 $242 $250 $255 forward $91 $-1 #
vertex $-1 $159 $256 #
vertex $-1 $255 $257 #
straight-curve $-1 0 29.438926130555533 4.0055286977411546 -1 0 0 I I #
face $-1 $-1 $258 $21 $-1 $259 reversed single #
loop $-1 $-1 $104 $98 #
plane-surface $-1 0 0 10.511566265904316 0 0 1 1 0 0 forward_v I I I I #
coedge $-1 $260 $261 $262 $263 reversed $99 $-1 #
coedge $-1 $264 $101 $103 $177 forward $61 $-1 #
coedge $-1 $101 $264 $260 $265 forward $61 $-1 #
coedge $-1 $262 $104 $101 $174 forward $168 $-1 #
edge $-1 $180 0.42638987795276861 $266 6.7185934482067751 $173 $267 forward 7 unknown #
coedge $-1 $268 $269 $102 $176 forward $258 $-1 #
edge $-1 $270 -73.892210616016143 $179 -66.159742767469453 $175 $271 forward 7 unknown #
edge $-1 $180 97.451373180995475 $270 107.26401562547684 $103 $272 forward 7 unknown #
coedge $-1 $104 $262 $268 $273 forward $168 $-1 #
vertex $-1 $176 $274 #
vertex $-1 $105 $275 #
straight-curve $-1 36.059442754991188 -3.9988815410325405 10.511566265904321 -1 0 0 I I #
coedge $-1 $182 $182 $-1 $276 reversed $108 $-1 #
edge $-1 $277 0 $277 6.2831853071796004 $109 $278 forward 7 unknown #
vertex $-1 $112 $279 #
ellipse-curve $-1 50.611374902468256 -8.4933126626425413 6.6453323416309669 0.78801076186113728 0 0.61566146476048833 0.30783073238024417 0 -0.39400538093056864 1 I I #
coedge $-1 $186 $186 $-1 $280 reversed $115 $-1 #
edge $-1 $281 0 $281 6.2831853071796004 $116 $282 forward 7 unknown #
vertex $-1 $119 $283 #
ellipse-curve $-1 50.611374902468256 -5.796653989676539 6.6453323416309669 0.78801076186113728 0 0.61566146476048833 0.30783073238024417 0 -0.39400538093056864 1 I I #
face $-1 $-1 $135 $18 $-1 $284 reversed single #
loop $-1 $-1 $206 $120 #
plane-surface $-1 0 29.438926130555533 0 0 -1 0 0 0 -1 forward_v I I I I #
coedge $-1 $285 $204 $207 $286 forward $121 $-1 #
coedge $-1 $210 $123 $124 $198 reversed $75 $-1 #
coedge $-1 $204 $285 $123 $196 reversed $121 $-1 #
edge $-1 $211 -10.511566265904316 $287 10.511566265904316 $195 $288 forward 7 unknown #
coedge $-1 $125 $124 $285 $289 forward $49 $-1 #
edge $-1 $202 -53.632007812738422 $287 53.632007812738422 $194 $290 forward 7 unknown #
coedge $-1 $207 $206 $125 $200 reversed $191 $-1 #
edge $-1 $291 -53.632007812738422 $201 53.632007812738422 $199 $292 forward 7 unknown #
vertex $-1 $127 $293 #
vertex $-1 $213 $294 #
straight-curve $-1 53.632007812738422 0 -10.511566265904316 0 -1 0 I I #
coedge $-1 $193 $195 $128 $205 reversed $121 $-1 #
edge $-1 $208 -29.438926130555533 $211 29.438926130555533 $204 $295 forward 7 unknown #
coedge $-1 $199 $129 $134 $214 forward $191 $-1 #
coedge $-1 $129 $199 $193 $286 reversed $191 $-1 #
vertex $-1 $130 $296 #
straight-curve $-1 0 29.438926130555533 10.511566265904316 -1 0 0 I I #
coedge $-1 $131 $194 $133 $213 reversed $75 $-1 #
vertex $-1 $205 $297 #
straight-curve $-1 0 -29.438926130555533 10.511566265904316 1 0 0 I I #
edge $-1 $136 -10.511566265904316 $202 10.511566265904316 $133 $298 forward 7 unknown #
edge $-1 $137 -10.511566265904316 $201 10.511566265904316 $134 $299 forward 7 unknown #
point $-1 53.632007812738422 -29.438926130555533 10.511566265904316 #
point $-1 53.632007812738422 29.438926130555533 10.511566265904316 #
face $-1 $-1 $233 $19 $-1 $300 reversed single #
loop $-1 $-1 $301 $139 #
plane-surface $-1 0 -40.509879540858421 1.8757872724439917 0 1 0 0 0 1 forward_v I I I I #
coedge $-1 $302 $230 $232 $303 forward $140 $-1 #
coedge $-1 $142 $149 $304 $305 forward $83 $-1 #
coedge $-1 $306 $147 $142 $223 reversed $233 $-1 #
edge $-1 $307 -5.5354767051514457 $151 5.5354767051514457 $222 $308 forward 7 unknown #
coedge $-1 $144 $143 $301 $309 reversed $53 $-1 #
coedge $-1 $230 $302 $143 $226 forward $140 $-1 #
edge $-1 $310 -5.5354767051514457 $228 5.5354767051514457 $143 $311 forward 7 unknown #
edge $-1 $150 -5.5354767051514457 $312 5.5354767051514457 $144 $313 forward 7 unknown #
vertex $-1 $145 $314 #
straight-curve $-1 -53.632007812738422 -29.438926130555533 0 0 0 -1 I I #
coedge $-1 $220 $225 $146 $231 reversed $140 $-1 #
edge $-1 $234 -53.632007812738422 $228 53.632007812738422 $230 $315 forward 7 unknown #
coedge $-1 $147 $306 $220 $303 reversed $233 $-1 #
loop $-1 $-1 $147 $217 #
vertex $-1 $148 $316 #
straight-curve $-1 53.632007812738422 -29.438926130555533 0 0 0 1 I I #
point $-1 -53.632007812738422 -29.438926130555529 4.0055286977411546 #
point $-1 53.632007812738422 -29.438926130555529 4.0055286977411546 #
face $-1 $-1 $252 $20 $-1 $317 reversed single #
loop $-1 $-1 $318 $153 #
plane-surface $-1 0 40.509879540858421 1.8757872724439917 0 -1 0 0 0 -1 forward_v I I I I #
coedge $-1 $248 $319 $157 $245 forward $154 $-1 #
coedge $-1 $163 $156 $320 $321 forward $91 $-1 #
edge $-1 $164 -5.5354767051514422 $322 5.5354767051514386 $158 $323 forward 7 unknown #
coedge $-1 $158 $157 $318 $324 reversed $57 $-1 #
edge $-1 $325 -5.5354767051514386 $246 5.5354767051514422 $157 $326 forward 7 unknown #
vertex $-1 $159 $327 #
straight-curve $-1 53.632007812738422 29.438926130555533 0 0 0 -1 I I #
coedge $-1 $328 $241 $160 $249 reversed $154 $-1 #
edge $-1 $253 -53.632007812738422 $246 53.632007812738422 $248 $329 forward 7 unknown #
coedge $-1 $330 $161 $163 $255 reversed $252 $-1 #
coedge $-1 $161 $330 $328 $331 reversed $252 $-1 #
loop $-1 $-1 $161 $238 #
vertex $-1 $162 $332 #
straight-curve $-1 -53.632007812738422 29.438926130555533 0 0 0 1 I I #
edge $-1 $333 -5.5354767051514386 $165 5.5354767051514422 $250 $334 forward 7 unknown #
point $-1 53.632007812738422 29.43892613055554 4.0055286977411546 #
point $-1 -53.632007812738422 29.43892613055554 4.0055286977411546 #
loop $-1 $-1 $175 $167 #
plane-surface $-1 53.632007812738422 0 0 -1 0 0 0 0 1 forward_v I I I I #
coedge $-1 $261 $170 $172 $265 reversed $99 $-1 #
coedge $-1 $170 $260 $335 $336 reversed $99 $-1 #
coedge $-1 $178 $173 $170 $263 forward $168 $-1 #
edge $-1 $266 11.531299237206895 $337 17.572565057747234 $262 $338 forward 7 unknown #
coedge $-1 $172 $171 $269 $339 reversed $61 $-1 #
edge $-1 $340 -107.26401562547684 $266 -97.451373180995475 $260 $341 forward 7 unknown #
vertex $-1 $174 $342 #
straight-curve $-1 47.59074199219809 -3.5724916630797718 10.511566265904314 0 -1 0 I I #
coedge $-1 $335 $175 $178 $273 reversed $258 $-1 #
coedge $-1 $175 $335 $264 $339 forward $258 $-1 #
vertex $-1 $176 $343 #
straight-curve $-1 53.632007812738422 -3.9988815410325405 76.671309033373774 0 0 1 I I #
straight-curve $-1 -12.406313163334559 -3.9988815410325405 87.304297090674567 0.61566146476048833 0 -0.78801076186113728 I I #
edge $-1 $337 -10.291085111286547 $179 -3.9988815410325405 $268 $344 forward 7 unknown #
point $-1 53.632007812738422 -3.9988815410325405 10.511566265904316 #
point $-1 47.590741992198083 -3.9988815410325405 10.511566265904321 #
edge $-1 $345 1 $345 0 $182 $-1 forward 7 unknown #
vertex $-1 $183 $346 #
ellipse-curve $-1 49.526780909897809 -8.4933126626425413 5.7979546680580052 0.78801076186113728 0 0.61566146476048833 0.30783073238024417 0 -0.39400538093056864 1 I I #
point $-1 50.919205634848517 -8.4933126626425413 6.2513269607004105 #
edge $-1 $347 1 $347 0 $186 $-1 forward 7 unknown #
vertex $-1 $187 $348 #
ellipse-curve $-1 49.526780909897809 -5.796653989676539 5.7979546680580052 0.78801076186113728 0 0.61566146476048833 0.30783073238024417 0 -0.39400538093056864 1 I I #
point $-1 50.919205634848517 -5.796653989676539 6.2513269607004105 #
plane-surface $-1 53.632007812738422 0 0 -1 0 0 0 0 1 forward_v I I I I #
coedge $-1 $195 $193 $197 $289 reversed $121 $-1 #
edge $-1 $208 -10.511566265904316 $291 10.511566265904316 $207 $349 forward 7 unknown #
vertex $-1 $289 $350 #
straight-curve $-1 -53.632007812738422 -29.438926130555533 0 0 0 -1 I I #
edge $-1 $287 -29.438926130555533 $291 29.438926130555533 $285 $351 forward 7 unknown #
straight-curve $-1 0 -29.438926130555533 -10.511566265904316 -1 0 0 I I #
vertex $-1 $200 $352 #
straight-curve $-1 0 29.438926130555533 -10.511566265904316 1 0 0 I I #
point $-1 53.632007812738422 29.438926130555533 -10.511566265904316 #
point $-1 53.632007812738422 -29.438926130555533 -10.511566265904316 #
straight-curve $-1 -53.632007812738422 0 10.511566265904316 0 -1 0 I I #
point $-1 -53.632007812738422 29.438926130555533 10.511566265904316 #
point $-1 -53.632007812738422 -29.438926130555533 10.511566265904316 #
straight-curve $-1 53.632007812738422 -29.438926130555533 0 0 0 -1 I I #
straight-curve $-1 53.632007812738422 29.438926130555533 0 0 0 -1 I I #
plane-surface $-1 53.632007812738422 0 0 -1 0 0 0 0 1 forward_v I I I I #
coedge $-1 $353 $304 $224 $309 forward $218 $-1 #
coedge $-1 $225 $220 $353 $354 forward $140 $-1 #
edge $-1 $234 -5.5354767051514457 $355 5.5354767051514457 $232 $356 forward 7 unknown #
coedge $-1 $301 $357 $221 $305 reversed $218 $-1 #
edge $-1 $312 -53.632007812738422 $307 53.632007812738422 $304 $358 forward 7 unknown #
coedge $-1 $232 $222 $357 $359 forward $233 $-1 #
vertex $-1 $223 $360 #
straight-curve $-1 53.632007812738422 -34.974402835706975 4.0055286977411546 0 1 0 I I #
edge $-1 $312 -2.1297414252971629 $310 2.1297414252971629 $224 $361 forward 7 unknown #
vertex $-1 $226 $362 #
straight-curve $-1 -53.632007812738422 -34.974402835706975 -0.25395415285317124 0 1 0 I I #
vertex $-1 $227 $363 #
straight-curve $-1 -53.632007812738422 -34.974402835706975 4.0055286977411546 0 -1 0 I I #
point $-1 -53.632007812738422 -29.438926130555529 -0.25395415285317124 #
straight-curve $-1 0 -29.438926130555533 -0.25395415285317124 -1 0 0 I I #
point $-1 53.632007812738422 -29.438926130555529 -0.25395415285317124 #
plane-surface $-1 -53.632007812738422 0 0 1 0 0 0 0 -1 forward_v I I I I #
coedge $-1 $364 $320 $244 $324 forward $239 $-1 #
coedge $-1 $241 $328 $364 $365 forward $154 $-1 #
coedge $-1 $318 $366 $242 $321 reversed $239 $-1 #
edge $-1 $322 -53.632007812738422 $333 53.632007812738422 $320 $367 forward 7 unknown #
vertex $-1 $243 $368 #
straight-curve $-1 53.632007812738422 34.974402835706982 4.0055286977411546 0 1 0 I I #
edge $-1 $322 -2.1297414252971629 $325 2.1297414252971629 $244 $369 forward 7 unknown #
vertex $-1 $245 $370 #
straight-curve $-1 53.632007812738422 34.974402835706982 -0.25395415285317124 0 -1 0 I I #
point $-1 53.632007812738422 29.43892613055554 -0.25395415285317124 #
coedge $-1 $319 $248 $251 $331 forward $154 $-1 #
straight-curve $-1 0 29.438926130555533 -0.25395415285317124 1 0 0 I I #
coedge $-1 $251 $250 $366 $371 forward $252 $-1 #
edge $-1 $253 -5.5354767051514422 $372 5.5354767051514386 $251 $373 forward 7 unknown #
point $-1 -53.632007812738422 29.43892613055554 -0.25395415285317124 #
vertex $-1 $321 $374 #
straight-curve $-1 -53.632007812738422 34.974402835706982 4.0055286977411546 0 -1 0 I I #
coedge $-1 $269 $268 $261 $336 forward $258 $-1 #
edge $-1 $337 66.159742767469453 $340 73.892210616016143 $335 $375 forward 7 unknown #
vertex $-1 $273 $376 #
straight-curve $-1 36.059442754991188 -10.291085111286547 10.511566265904321 1 0 0 I I #
edge $-1 $340 -6.7185934482067751 $270 -0.42638987795276861 $269 $377 forward 7 unknown #
vertex $-1 $339 $378 #
straight-curve $-1 -12.406313163334559 -10.291085111286547 87.304297090674567 -0.61566146476048833 0 0.78801076186113728 I I #
point $-1 47.590741992198083 -10.291085111286547 10.511566265904321 #
point $-1 53.632007812738422 -3.9988815410325405 2.7790984173576305 #
straight-curve $-1 53.632007812738422 0 10.511566265904316 0 1 0 I I #
vertex $-1 $276 $379 #
point $-1 49.834611642278055 -8.4933126626425413 5.4039492871274364 #
vertex $-1 $280 $380 #
point $-1 49.834611642278055 -5.796653989676539 5.4039492871274364 #
straight-curve $-1 -53.632007812738422 29.438926130555533 0 0 0 -1 I I #
point $-1 -53.632007812738422 -29.438926130555533 -10.511566265904316 #
straight-curve $-1 -53.632007812738422 0 -10.511566265904316 0 1 0 I I #
point $-1 -53.632007812738422 29.438926130555533 -10.511566265904316 #
coedge $-1 $357 $301 $302 $354 reversed $218 $-1 #
edge $-1 $355 -53.632007812738422 $310 53.632007812738422 $353 $381 forward 7 unknown #
vertex $-1 $359 $382 #
straight-curve $-1 53.632007812738422 -34.974402835706975 -0.25395415285317124 0 -1 0 I I #
coedge $-1 $304 $353 $306 $359 reversed $218 $-1 #
straight-curve $-1 0 -40.509879540858421 4.0055286977411546 1 0 0 I I #
edge $-1 $307 -2.1297414252971629 $355 2.1297414252971629 $306 $383 forward 7 unknown #
point $-1 53.632007812738422 -40.509879540858421 4.0055286977411546 #
straight-curve $-1 -53.632007812738422 -40.509879540858421 1.8757872724439917 0 0 -1 I I #
point $-1 -53.632007812738422 -40.509879540858421 -0.25395415285317124 #
point $-1 -53.632007812738422 -40.509879540858421 4.0055286977411546 #
coedge $-1 $366 $318 $319 $365 reversed $239 $-1 #
edge $-1 $372 -53.632007812738422 $325 53.632007812738422 $364 $384 forward 7 unknown #
coedge $-1 $320 $364 $330 $371 reversed $239 $-1 #
straight-curve $-1 0 40.509879540858421 4.0055286977411546 -1 0 0 I I #
point $-1 53.632007812738422 40.509879540858421 4.0055286977411546 #
straight-curve $-1 53.632007812738422 40.509879540858421 1.8757872724439917 0 0 -1 I I #
point $-1 53.632007812738422 40.509879540858421 -0.25395415285317124 #
edge $-1 $333 -2.1297414252971629 $372 2.1297414252971629 $366 $385 forward 7 unknown #
vertex $-1 $365 $386 #
straight-curve $-1 -53.632007812738422 34.974402835706982 -0.25395415285317124 0 1 0 I I #
point $-1 -53.632007812738422 40.509879540858421 4.0055286977411546 #
straight-curve $-1 53.632007812738422 -10.291085111286547 76.671309033373774 0 0 -1 I I #
point $-1 53.632007812738422 -10.291085111286547 10.511566265904316 #
straight-curve $-1 53.632007812738422 -3.5724916630797718 2.7790984173576163 0 1 0 I I #
point $-1 53.632007812738422 -10.291085111286547 2.7790984173576305 #
point $-1 49.132775528967244 -8.4933126626425413 5.4901239356777607 #
point $-1 49.132775528967244 -5.796653989676539 5.4901239356777607 #
straight-curve $-1 0 -40.509879540858421 -0.25395415285317124 -1 0 0 I I #
point $-1 53.632007812738422 -40.509879540858421 -0.25395415285317124 #
straight-curve $-1 53.632007812738422 -40.509879540858421 1.8757872724439917 0 0 -1 I I #
straight-curve $-1 0 40.509879540858421 -0.25395415285317124 1 0 0 I I #
straight-curve $-1 -53.632007812738422 40.509879540858421 1.8757872724439917 0 0 -1 I I #
point $-1 -53.632007812738422 40.509879540858421 -0.25395415285317124 #
End-of-ACIS-data 