500 0 5 0           
7 Unknown 11 ACIS 5.0 NT 24 Thu Mar 25 17:56:05 1999 
-1 9.9999999999999995e-007 1e-010 
body $-1 $5 $-1 $6 #
body $-1 $7 $-1 $8 #
body $-1 $9 $-1 $10 #
body $-1 $11 $-1 $12 #
body $-1 $13 $-1 $14 #
lump $-1 $-1 $15 $0 #
transform $-1 1 0 0 0 1 0 0 0 1 64.401379436628318 39.129238037965095 17.845378197324834 1 rotate no_reflect no_shear #
lump $-1 $-1 $16 $1 #
transform $-1 1 0 0 0 1 0 0 0 1 64.401379436628318 39.129238037965095 17.845378197324834 1 rotate no_reflect no_shear #
lump $-1 $-1 $17 $2 #
transform $-1 1 0 0 0 1 0 0 0 1 64.401379436628318 39.129238037965095 17.845378197324834 1 rotate no_reflect no_shear #
lump $-1 $-1 $18 $3 #
transform $-1 1 0 0 0 1 0 0 0 1 64.401379436628318 39.129238037965095 17.845378197324834 1 rotate no_reflect no_shear #
lump $-1 $-1 $19 $4 #
transform $-1 1 0 0 0 1 0 0 0 1 64.401379436628318 39.129238037965095 17.845378197324834 1 rotate no_reflect no_shear #
shell $-1 $-1 $-1 $20 $-1 $5 #
shell $-1 $-1 $-1 $21 $-1 $7 #
shell $-1 $-1 $-1 $22 $-1 $9 #
shell $-1 $-1 $-1 $23 $-1 $11 #
shell $-1 $-1 $-1 $24 $-1 $13 #
face $-1 $25 $26 $15 $-1 $27 forward single #
face $-1 $28 $29 $16 $-1 $30 forward single #
face $-1 $31 $32 $17 $-1 $33 reversed single #
face $-1 $34 $35 $18 $-1 $36 forward single #
face $-1 $37 $38 $19 $-1 $39 reversed single #
face $-1 $40 $41 $15 $-1 $42 reversed single #
loop $-1 $-1 $43 $20 #
plane-surface $-1 0 0 17.845378197324834 0 0 1 1 0 0 forward_v I I I I #
face $-1 $44 $45 $16 $-1 $46 forward single #
loop $-1 $-1 $47 $21 #
plane-surface $-1 -167.26783752413618 -29.053223395399769 86.672205621464542 0 -1 0 0.79863551827123203 0 -0.60181501223851219 forward_v I I I I #
face $-1 $48 $49 $17 $-1 $50 reversed single #
loop $-1 $51 $52 $22 #
cone-surface $-1 -59.325225229126119 -34.091230716682432 12.142803616675426 0.79863551827123203 0 -0.60181501223851219 0.90272251835776829 0 1.197953277406848 1 I I 0 1 1.5 forward I I I I #
face $-1 $53 $54 $18 $-1 $55 forward single #
loop $-1 $-1 $56 $23 #
plane-surface $-1 -64.401379436628346 34.091230716682432 9.1567717138014615 -0.79863551827123203 0 0.60181501223851219 0.60181501223851219 0 0.79863551827123203 forward_v I I I I #
face $-1 $57 $58 $19 $-1 $59 reversed single #
loop $-1 $60 $61 $24 #
cone-surface $-1 -59.325225229126119 34.091230716682432 12.142803616675426 0.79863551827123203 0 -0.60181501223851219 0.90272251835776829 0 1.197953277406848 1 I I 0 1 1.5 forward I I I I #
face $-1 $62 $63 $15 $-1 $64 reversed single #
loop $-1 $-1 $65 $25 #
plane-surface $-1 0 0 -17.845378197324834 0 0 1 1 0 0 forward_v I I I I #
coedge $-1 $66 $67 $68 $69 forward $26 $-1 #
face $-1 $70 $71 $16 $-1 $72 reversed single #
loop $-1 $-1 $73 $28 #
plane-surface $-1 -64.401379436628346 -34.091230716682432 9.1567717138014615 -0.79863551827123203 0 0.60181501223851219 0.60181501223851219 0 0.79863551827123203 forward_v I I I I #
coedge $-1 $74 $75 $76 $77 reversed $29 $-1 #
face $-1 $78 $79 $17 $-1 $80 forward single #
loop $-1 $81 $82 $31 #
cone-surface $-1 -56.923761592548274 -34.091230716682432 10.333171018608823 0.79863551827123203 0 -0.60181501223851219 0.45136125917888414 0 0.59897663870342399 1 I I -0.70710678118654757 0.70710678118654757 0.75 forward I I I I #
loop $-1 $-1 $83 $22 #
coedge $-1 $52 $52 $84 $85 reversed $32 $-1 #
face $-1 $86 $87 $18 $-1 $88 reversed single #
loop $-1 $-1 $89 $34 #
plane-surface $-1 -167.26783752413618 29.053223395399769 86.672205621464542 0 1 0 -0.79863551827123203 0 0.60181501223851219 forward_v I I I I #
coedge $-1 $90 $91 $92 $93 reversed $35 $-1 #
face $-1 $94 $95 $19 $-1 $96 forward single #
loop $-1 $97 $98 $37 #
cone-surface $-1 -56.923761592548274 34.091230716682432 10.333171018608823 0.79863551827123203 0 -0.60181501223851219 0.45136125917888414 0 0.59897663870342399 1 I I -0.70710678118654757 0.70710678118654757 0.75 forward I I I I #
loop $-1 $-1 $99 $24 #
coedge $-1 $61 $61 $100 $101 reversed $38 $-1 #
face $-1 $102 $103 $15 $-1 $104 reversed single #
loop $-1 $-1 $105 $40 #
plane-surface $-1 0 -39.129238037965095 0 0 1 0 0 0 1 forward_v I I I I #
coedge $-1 $106 $107 $108 $109 forward $41 $-1 #
coedge $-1 $110 $43 $111 $112 forward $26 $-1 #
coedge $-1 $43 $110 $113 $114 forward $26 $-1 #
coedge $-1 $115 $116 $43 $69 reversed $117 $-1 #
edge $-1 $118 -39.129238037965095 $119 39.129238037965095 $68 $120 forward 7 unknown #
face $-1 $121 $122 $16 $-1 $123 forward single #
loop $-1 $-1 $124 $44 #
plane-surface $-1 -64.401379436628318 0 0 1 0 0 0 0 -1 forward_v I I I I #
coedge $-1 $125 $126 $124 $127 reversed $45 $-1 #
coedge $-1 $75 $47 $126 $128 forward $29 $-1 #
coedge $-1 $47 $74 $129 $130 reversed $29 $-1 #
coedge $-1 $131 $124 $47 $77 forward $71 $-1 #
edge $-1 $132 -34.179331096930774 $133 -25.490724613407437 $76 $134 forward 7 unknown #
face $-1 $135 $136 $17 $-1 $137 forward single #
loop $-1 $-1 $138 $48 #
plane-surface $-1 -167.26783752413618 -29.053223395399769 86.672205621464542 0 -1 0 0.79863551827123203 0 -0.60181501223851219 forward_v I I I I #
loop $-1 $-1 $139 $31 #
coedge $-1 $82 $82 $83 $140 forward $49 $-1 #
coedge $-1 $83 $83 $82 $140 reversed $51 $-1 #
coedge $-1 $84 $84 $52 $85 forward $136 $-1 #
edge $-1 $141 0 $141 6.2831853071796004 $84 $142 forward 7 unknown #
face $-1 $143 $144 $18 $-1 $145 reversed single #
loop $-1 $-1 $146 $53 #
plane-surface $-1 -64.401379436628318 0 0 1 0 0 0 0 -1 forward_v I I I I #
coedge $-1 $147 $148 $146 $149 reversed $54 $-1 #
coedge $-1 $150 $56 $148 $151 reversed $35 $-1 #
coedge $-1 $56 $150 $152 $153 reversed $35 $-1 #
coedge $-1 $154 $146 $56 $93 forward $87 $-1 #
edge $-1 $155 12.007608037058553 $156 22.083622679623879 $92 $157 forward 7 unknown #
face $-1 $158 $159 $19 $-1 $160 forward single #
loop $-1 $161 $100 $57 #
plane-surface $-1 -64.401379436628346 34.091230716682432 9.1567717138014615 -0.79863551827123203 0 0.60181501223851219 0.60181501223851219 0 0.79863551827123203 forward_v I I I I #
loop $-1 $-1 $162 $37 #
coedge $-1 $98 $98 $99 $163 forward $58 $-1 #
coedge $-1 $99 $99 $98 $163 reversed $60 $-1 #
coedge $-1 $100 $100 $61 $101 forward $95 $-1 #
edge $-1 $164 0 $164 6.2831853071796004 $100 $165 forward 7 unknown #
face $-1 $166 $167 $15 $-1 $168 reversed single #
loop $-1 $-1 $169 $62 #
plane-surface $-1 -64.401379436628318 0 0 1 0 0 0 0 -1 forward_v I I I I #
coedge $-1 $170 $113 $171 $172 forward $63 $-1 #
coedge $-1 $173 $65 $170 $174 forward $41 $-1 #
coedge $-1 $65 $173 $175 $176 forward $41 $-1 #
coedge $-1 $116 $115 $65 $109 reversed $117 $-1 #
edge $-1 $177 -39.129238037965095 $178 39.129238037965095 $108 $179 forward 7 unknown #
coedge $-1 $67 $66 $180 $181 forward $26 $-1 #
coedge $-1 $182 $183 $66 $112 reversed $167 $-1 #
edge $-1 $119 -64.401379436628318 $184 64.401379436628318 $111 $185 forward 7 unknown #
coedge $-1 $105 $186 $67 $114 reversed $63 $-1 #
edge $-1 $187 -64.401379436628318 $118 64.401379436628318 $113 $188 forward 7 unknown #
coedge $-1 $108 $68 $186 $189 forward $117 $-1 #
coedge $-1 $68 $108 $182 $190 reversed $117 $-1 #
loop $-1 $-1 $115 $166 #
vertex $-1 $69 $191 #
vertex $-1 $69 $192 #
straight-curve $-1 64.401379436628318 0 17.845378197324834 0 1 0 I I #
face $-1 $193 $194 $16 $-1 $195 reversed single #
loop $-1 $-1 $129 $70 #
plane-surface $-1 0 0 17.845378197324834 0 0 1 1 0 0 forward_v I I I I #
coedge $-1 $76 $196 $73 $127 forward $71 $-1 #
coedge $-1 $197 $73 $198 $199 reversed $45 $-1 #
coedge $-1 $73 $197 $74 $128 reversed $45 $-1 #
edge $-1 $200 -22.083622679623879 $132 -12.007608037058553 $124 $201 forward 7 unknown #
edge $-1 $132 4.6896506375148425e-014 $202 10.879313885677391 $74 $203 forward 7 unknown #
coedge $-1 $204 $205 $75 $130 forward $122 $-1 #
edge $-1 $133 19.232539325439774 $202 25.779873744695301 $129 $206 forward 7 unknown #
coedge $-1 $207 $76 $205 $208 reversed $71 $-1 #
vertex $-1 $127 $209 #
vertex $-1 $130 $210 #
straight-curve $-1 -64.401379436628318 -29.053223395399769 43.336102810732271 0 0 1 I I #
face $-1 $211 $212 $17 $-1 $213 reversed single #
loop $-1 $214 $84 $78 #
plane-surface $-1 -64.401379436628346 -34.091230716682432 9.1567717138014615 -0.79863551827123203 0 0.60181501223851219 0.60181501223851219 0 0.79863551827123203 forward_v I I I I #
coedge $-1 $215 $216 $217 $218 reversed $79 $-1 #
coedge $-1 $139 $139 $-1 $219 forward $81 $-1 #
edge $-1 $220 0 $220 6.2831853071796004 $82 $221 forward 7 unknown #
vertex $-1 $85 $222 #
ellipse-curve $-1 -61.127712227000558 -34.091230716682432 13.50107495556316 0.79863551827123203 0 -0.60181501223851219 0.90272251835776829 0 1.197953277406848 1 I I #
face $-1 $223 $224 $18 $-1 $225 reversed single #
loop $-1 $-1 $152 $86 #
plane-surface $-1 0 39.129238037965095 0 0 -1 0 0 0 -1 forward_v I I I I #
coedge $-1 $92 $226 $89 $149 forward $87 $-1 #
coedge $-1 $148 $89 $227 $228 reversed $54 $-1 #
coedge $-1 $89 $147 $90 $151 forward $54 $-1 #
edge $-1 $229 25.490724613407437 $155 34.179331096930774 $146 $230 forward 7 unknown #
coedge $-1 $91 $90 $231 $232 reversed $35 $-1 #
edge $-1 $233 -10.879313885677391 $155 -4.6896506375148425e-014 $148 $234 forward 7 unknown #
coedge $-1 $235 $236 $91 $153 forward $144 $-1 #
edge $-1 $156 -15.722396915244136 $237 -4.8430830295667926 $152 $238 forward 7 unknown #
coedge $-1 $239 $92 $236 $240 forward $87 $-1 #
vertex $-1 $93 $241 #
vertex $-1 $240 $242 #
straight-curve $-1 -64.401379436628318 17.045615358341216 9.1567717138015077 0 1 0 I I #
face $-1 $243 $244 $19 $-1 $245 reversed single #
loop $-1 $-1 $246 $94 #
plane-surface $-1 -167.26783752413618 29.053223395399769 86.672205621464542 0 1 0 -0.79863551827123203 0 0.60181501223851219 forward_v I I I I #
loop $-1 $-1 $247 $57 #
coedge $-1 $162 $162 $-1 $248 forward $97 $-1 #
edge $-1 $249 0 $249 6.2831853071796004 $98 $250 forward 7 unknown #
vertex $-1 $101 $251 #
ellipse-curve $-1 -61.127712227000558 34.091230716682432 13.50107495556316 0.79863551827123203 0 -0.60181501223851219 0.90272251835776829 0 1.197953277406848 1 I I #
face $-1 $-1 $117 $15 $-1 $252 reversed single #
loop $-1 $-1 $182 $102 #
plane-surface $-1 0 39.129238037965095 0 0 -1 0 0 0 -1 forward_v I I I I #
coedge $-1 $253 $180 $183 $254 forward $103 $-1 #
coedge $-1 $186 $105 $106 $174 reversed $63 $-1 #
coedge $-1 $180 $253 $105 $172 reversed $103 $-1 #
edge $-1 $187 -17.845378197324834 $255 17.845378197324834 $171 $256 forward 7 unknown #
coedge $-1 $107 $106 $253 $257 forward $41 $-1 #
edge $-1 $178 -64.401379436628318 $255 64.401379436628318 $170 $258 forward 7 unknown #
coedge $-1 $183 $182 $107 $176 reversed $167 $-1 #
edge $-1 $259 -64.401379436628318 $177 64.401379436628318 $175 $260 forward 7 unknown #
vertex $-1 $109 $261 #
vertex $-1 $189 $262 #
straight-curve $-1 64.401379436628318 0 -17.845378197324834 0 -1 0 I I #
coedge $-1 $169 $171 $110 $181 reversed $103 $-1 #
edge $-1 $184 -39.129238037965095 $187 39.129238037965095 $180 $263 forward 7 unknown #
coedge $-1 $175 $111 $116 $190 forward $167 $-1 #
coedge $-1 $111 $175 $169 $254 reversed $167 $-1 #
vertex $-1 $112 $264 #
straight-curve $-1 0 39.129238037965095 17.845378197324834 -1 0 0 I I #
coedge $-1 $113 $170 $115 $189 reversed $63 $-1 #
vertex $-1 $181 $265 #
straight-curve $-1 0 -39.129238037965095 17.845378197324834 1 0 0 I I #
edge $-1 $118 -17.845378197324834 $178 17.845378197324834 $115 $266 forward 7 unknown #
edge $-1 $119 -17.845378197324834 $177 17.845378197324834 $116 $267 forward 7 unknown #
point $-1 64.401379436628318 -39.129238037965095 17.845378197324834 #
point $-1 64.401379436628318 39.129238037965095 17.845378197324834 #
face $-1 $268 $269 $16 $-1 $270 reversed single #
loop $-1 $-1 $271 $121 #
plane-surface $-1 0 0 -17.845378197324834 0 0 1 1 0 0 forward_v I I I I #
coedge $-1 $124 $272 $273 $274 reversed $71 $-1 #
coedge $-1 $126 $125 $204 $275 reversed $45 $-1 #
coedge $-1 $273 $276 $125 $199 forward $269 $-1 #
edge $-1 $277 4.8430830295667926 $200 15.722396915244136 $198 $278 forward 7 unknown #
vertex $-1 $274 $279 #
straight-curve $-1 -64.401379436628318 -17.045615358341216 9.1567717138015077 0 1 0 I I #
vertex $-1 $275 $280 #
straight-curve $-1 -64.401379436628346 -29.053223395399769 9.1567717138014615 0.60181501223851219 0 0.79863551827123203 I I #
coedge $-1 $281 $129 $197 $275 forward $122 $-1 #
coedge $-1 $129 $282 $131 $208 forward $122 $-1 #
straight-curve $-1 -83.633918762068092 -29.053223395399769 17.845378197324834 1 0 0 I I #
coedge $-1 $272 $131 $283 $284 forward $71 $-1 #
edge $-1 $285 -39.129238037965095 $133 29.053223395399769 $131 $286 forward 7 unknown #
point $-1 -64.401379436628318 -29.053223395399769 9.1567717138014988 #
point $-1 -64.401379436628318 -29.053223395399769 17.845378197324834 #
face $-1 $287 $288 $17 $-1 $289 forward single #
loop $-1 $-1 $290 $135 #
plane-surface $-1 -64.401379436628318 0 0 1 0 0 0 0 -1 forward_v I I I I #
loop $-1 $-1 $291 $78 #
coedge $-1 $216 $138 $292 $293 forward $79 $-1 #
coedge $-1 $138 $215 $294 $295 reversed $79 $-1 #
coedge $-1 $296 $290 $138 $218 forward $212 $-1 #
edge $-1 $297 -34.179331096930774 $298 -25.490724613407437 $217 $299 forward 7 unknown #
edge $-1 $300 1 $300 0 $139 $-1 forward 7 unknown #
vertex $-1 $140 $301 #
ellipse-curve $-1 -57.522738231251701 -34.091230716682432 10.784532277787708 -0.79863551827123203 0 0.60181501223851219 0.90272251835776829 0 1.197953277406848 1 I I #
point $-1 -60.224989708642767 -34.091230716682432 14.699028232969992 #
face $-1 $302 $303 $18 $-1 $304 reversed single #
loop $-1 $305 $306 $143 #
cone-surface $-1 -59.325225229126119 -34.091230716682432 12.142803616675426 0.79863551827123203 0 -0.60181501223851219 0.90272251835776829 0 1.197953277406848 1 I I 0 1 1.5 forward I I I I #
coedge $-1 $146 $307 $308 $309 reversed $87 $-1 #
coedge $-1 $308 $231 $147 $228 forward $310 $-1 #
edge $-1 $233 -25.779873744695301 $229 -19.232539325439774 $227 $311 forward 7 unknown #
vertex $-1 $309 $312 #
straight-curve $-1 -64.401379436628318 29.053223395399769 43.336102810732271 0 0 -1 I I #
coedge $-1 $227 $313 $150 $232 forward $310 $-1 #
edge $-1 $237 -22.083622679623879 $233 -12.007608037058553 $231 $314 forward 7 unknown #
vertex $-1 $232 $315 #
straight-curve $-1 -64.401379436628346 29.053223395399769 9.1567717138014615 -0.60181501223851219 0 -0.79863551827123203 I I #
coedge $-1 $316 $152 $313 $317 reversed $144 $-1 #
coedge $-1 $152 $318 $154 $240 reversed $144 $-1 #
vertex $-1 $232 $319 #
straight-curve $-1 -54.939404944661923 39.129238037965095 21.71323632267352 0.60181501223851219 0 0.79863551827123203 I I #
coedge $-1 $320 $154 $321 $322 reversed $87 $-1 #
edge $-1 $156 -9.1567717138014988 $323 17.845378197324834 $236 $324 forward 7 unknown #
point $-1 -64.401379436628318 29.053223395399769 9.1567717138014988 #
point $-1 -64.401379436628318 39.129238037965095 9.1567717138014988 #
face $-1 $325 $326 $19 $-1 $327 reversed single #
loop $-1 $-1 $328 $158 #
plane-surface $-1 -64.401379436628318 0 0 1 0 0 0 0 -1 forward_v I I I I #
coedge $-1 $329 $330 $328 $331 reversed $159 $-1 #
coedge $-1 $332 $333 $334 $335 reversed $161 $-1 #
edge $-1 $336 1 $336 0 $162 $-1 forward 7 unknown #
vertex $-1 $163 $337 #
ellipse-curve $-1 -57.522738231251701 34.091230716682432 10.784532277787708 -0.79863551827123203 0 0.60181501223851219 0.90272251835776829 0 1.197953277406848 1 I I #
point $-1 -60.224989708642767 34.091230716682432 14.699028232969992 #
plane-surface $-1 64.401379436628318 0 0 -1 0 0 0 0 1 forward_v I I I I #
coedge $-1 $171 $169 $173 $257 reversed $103 $-1 #
edge $-1 $184 -17.845378197324834 $259 17.845378197324834 $183 $338 forward 7 unknown #
vertex $-1 $257 $339 #
straight-curve $-1 -64.401379436628318 -39.129238037965095 0 0 0 -1 I I #
edge $-1 $255 -39.129238037965095 $259 39.129238037965095 $253 $340 forward 7 unknown #
straight-curve $-1 0 -39.129238037965095 -17.845378197324834 -1 0 0 I I #
vertex $-1 $176 $341 #
straight-curve $-1 0 39.129238037965095 -17.845378197324834 1 0 0 I I #
point $-1 64.401379436628318 39.129238037965095 -17.845378197324834 #
point $-1 64.401379436628318 -39.129238037965095 -17.845378197324834 #
straight-curve $-1 -64.401379436628318 0 17.845378197324834 0 -1 0 I I #
point $-1 -64.401379436628318 39.129238037965095 17.845378197324834 #
point $-1 -64.401379436628318 -39.129238037965095 17.845378197324834 #
straight-curve $-1 64.401379436628318 -39.129238037965095 0 0 0 -1 I I #
straight-curve $-1 64.401379436628318 39.129238037965095 0 0 0 -1 I I #
face $-1 $342 $343 $16 $-1 $344 reversed single #
loop $-1 $-1 $198 $193 #
plane-surface $-1 0 -39.129238037965095 0 0 1 0 0 0 1 forward_v I I I I #
coedge $-1 $345 $346 $347 $348 forward $194 $-1 #
coedge $-1 $196 $207 $349 $350 reversed $71 $-1 #
coedge $-1 $351 $198 $196 $274 forward $269 $-1 #
edge $-1 $200 -9.1567717138014988 $352 17.845378197324834 $196 $353 forward 7 unknown #
edge $-1 $202 12.007608037058553 $277 22.083622679623879 $204 $354 forward 7 unknown #
coedge $-1 $198 $355 $281 $356 reversed $269 $-1 #
vertex $-1 $356 $357 #
straight-curve $-1 -54.939404944661923 -39.129238037965095 21.71323632267352 -0.60181501223851219 0 -0.79863551827123203 I I #
point $-1 -64.401379436628318 -39.129238037965095 9.1567717138014988 #
point $-1 -57.85404501737279 -29.053223395399769 17.845378197324834 #
coedge $-1 $358 $204 $276 $356 forward $122 $-1 #
coedge $-1 $205 $358 $359 $360 forward $122 $-1 #
coedge $-1 $359 $361 $207 $284 reversed $343 $-1 #
edge $-1 $285 -17.845378197324834 $362 17.845378197324834 $283 $363 forward 7 unknown #
vertex $-1 $360 $364 #
straight-curve $-1 -64.401379436628318 0 17.845378197324834 0 -1 0 I I #
face $-1 $365 $366 $17 $-1 $367 reversed single #
loop $-1 $-1 $294 $211 #
plane-surface $-1 0 0 17.845378197324834 0 0 1 1 0 0 forward_v I I I I #
coedge $-1 $217 $368 $291 $369 forward $212 $-1 #
coedge $-1 $370 $292 $290 $369 reversed $214 $-1 #
coedge $-1 $291 $371 $215 $293 reversed $214 $-1 #
edge $-1 $297 4.6896506375148425e-014 $372 10.879313885677391 $215 $373 forward 7 unknown #
coedge $-1 $374 $375 $216 $295 forward $288 $-1 #
edge $-1 $298 19.232539325439774 $372 25.779873744695301 $294 $376 forward 7 unknown #
coedge $-1 $377 $217 $375 $378 reversed $212 $-1 #
vertex $-1 $369 $379 #
vertex $-1 $295 $380 #
straight-curve $-1 -64.401379436628318 -29.053223395399769 43.336102810732271 0 0 1 I I #
vertex $-1 $219 $381 #
point $-1 -56.620015712893931 -34.091230716682432 11.982485555194556 #
face $-1 $382 $383 $18 $-1 $384 forward single #
loop $-1 $385 $386 $223 #
cone-surface $-1 -56.923761592548274 -34.091230716682432 10.333171018608823 0.79863551827123203 0 -0.60181501223851219 0.45136125917888414 0 0.59897663870342399 1 I I -0.70710678118654757 0.70710678118654757 0.75 forward I I I I #
loop $-1 $-1 $387 $143 #
coedge $-1 $306 $306 $388 $389 reversed $224 $-1 #
coedge $-1 $226 $390 $391 $392 forward $87 $-1 #
coedge $-1 $393 $227 $226 $309 forward $310 $-1 #
edge $-1 $229 -29.053223395399769 $394 29.053223395399769 $226 $395 forward 7 unknown #
loop $-1 $-1 $227 $396 #
straight-curve $-1 -83.633918762068092 29.053223395399769 17.845378197324834 -1 0 0 I I #
point $-1 -64.401379436628318 29.053223395399769 17.845378197324834 #
coedge $-1 $231 $397 $235 $317 forward $310 $-1 #
straight-curve $-1 -57.854045017372798 17.045615358341216 17.845378197324834 0 -1 0 I I #
point $-1 -57.85404501737279 29.053223395399769 17.845378197324834 #
coedge $-1 $318 $235 $398 $399 forward $144 $-1 #
edge $-1 $400 -64.401379436628318 $237 57.85404501737279 $235 $401 forward 7 unknown #
coedge $-1 $236 $316 $402 $403 reversed $144 $-1 #
point $-1 -57.85404501737279 39.129238037965095 17.845378197324834 #
coedge $-1 $390 $239 $404 $405 reversed $87 $-1 #
coedge $-1 $402 $406 $239 $322 forward $407 $-1 #
edge $-1 $408 -39.129238037965095 $323 39.129238037965095 $239 $409 forward 7 unknown #
vertex $-1 $403 $410 #
straight-curve $-1 -64.401379436628318 39.129238037965095 0 0 0 -1 I I #
face $-1 $411 $412 $19 $-1 $413 reversed single #
loop $-1 $-1 $414 $243 #
plane-surface $-1 0 39.129238037965095 0 0 -1 0 0 0 -1 forward_v I I I I #
coedge $-1 $334 $415 $246 $331 forward $244 $-1 #
coedge $-1 $330 $246 $416 $417 reversed $159 $-1 #
coedge $-1 $246 $329 $332 $418 forward $159 $-1 #
edge $-1 $419 25.490724613407437 $420 34.179331096930774 $328 $421 forward 7 unknown #
coedge $-1 $422 $247 $330 $418 reversed $161 $-1 #
coedge $-1 $247 $422 $414 $423 reversed $161 $-1 #
coedge $-1 $424 $328 $247 $335 forward $244 $-1 #
edge $-1 $420 12.007608037058553 $425 22.083622679623879 $334 $426 forward 7 unknown #
vertex $-1 $248 $427 #
point $-1 -56.620015712893931 34.091230716682432 11.982485555194556 #
straight-curve $-1 -64.401379436628318 39.129238037965095 0 0 0 -1 I I #
point $-1 -64.401379436628318 -39.129238037965095 -17.845378197324834 #
straight-curve $-1 -64.401379436628318 0 -17.845378197324834 0 1 0 I I #
point $-1 -64.401379436628318 39.129238037965095 -17.845378197324834 #
face $-1 $-1 $428 $16 $-1 $429 reversed single #
loop $-1 $-1 $430 $268 #
plane-surface $-1 0 39.129238037965095 0 0 -1 0 0 0 -1 forward_v I I I I #
coedge $-1 $349 $271 $351 $431 forward $194 $-1 #
coedge $-1 $271 $349 $361 $432 forward $194 $-1 #
coedge $-1 $433 $434 $271 $348 reversed $428 $-1 #
edge $-1 $435 -39.129238037965095 $436 39.129238037965095 $347 $437 forward 7 unknown #
coedge $-1 $346 $345 $272 $350 forward $194 $-1 #
edge $-1 $352 -39.129238037965095 $362 39.129238037965095 $272 $438 forward 7 unknown #
coedge $-1 $355 $273 $345 $431 reversed $269 $-1 #
vertex $-1 $350 $439 #
straight-curve $-1 -64.401379436628318 -39.129238037965095 0 0 0 -1 I I #
straight-curve $-1 -57.854045017372798 -17.045615358341216 17.845378197324834 0 -1 0 I I #
coedge $-1 $276 $351 $434 $440 reversed $269 $-1 #
edge $-1 $277 -57.85404501737279 $441 64.401379436628318 $276 $442 forward 7 unknown #
point $-1 -57.85404501737279 -39.129238037965095 17.845378197324834 #
coedge $-1 $282 $281 $443 $444 forward $122 $-1 #
coedge $-1 $430 $283 $282 $360 reversed $343 $-1 #
edge $-1 $445 -64.401379436628318 $285 64.401379436628318 $359 $446 forward 7 unknown #
coedge $-1 $283 $430 $346 $432 reversed $343 $-1 #
vertex $-1 $432 $447 #
straight-curve $-1 -64.401379436628318 39.129238037965095 0 0 0 -1 I I #
point $-1 -64.401379436628318 39.129238037965095 17.845378197324834 #
face $-1 $448 $449 $17 $-1 $450 reversed single #
loop $-1 $-1 $451 $287 #
plane-surface $-1 0 0 -17.845378197324834 0 0 1 1 0 0 forward_v I I I I #
coedge $-1 $290 $452 $453 $454 reversed $212 $-1 #
edge $-1 $455 -22.083622679623879 $297 -12.007608037058553 $290 $456 forward 7 unknown #
coedge $-1 $371 $291 $457 $458 reversed $214 $-1 #
coedge $-1 $292 $370 $374 $459 reversed $214 $-1 #
vertex $-1 $459 $460 #
straight-curve $-1 -64.401379436628346 -29.053223395399769 9.1567717138014615 0.60181501223851219 0 0.79863551827123203 I I #
coedge $-1 $461 $294 $371 $459 forward $288 $-1 #
coedge $-1 $294 $462 $296 $378 forward $288 $-1 #
straight-curve $-1 -83.633918762068092 -29.053223395399769 17.845378197324834 1 0 0 I I #
coedge $-1 $452 $296 $463 $464 forward $212 $-1 #
edge $-1 $465 -39.129238037965095 $298 29.053223395399769 $296 $466 forward 7 unknown #
point $-1 -64.401379436628318 -29.053223395399769 9.1567717138014988 #
point $-1 -64.401379436628318 -29.053223395399769 17.845378197324834 #
point $-1 -56.324784953844848 -34.091230716682432 9.8818097594299381 #
face $-1 $396 $467 $18 $-1 $468 forward single #
loop $-1 $-1 $391 $302 #
plane-surface $-1 -167.26783752413618 -29.053223395399769 86.672205621464542 0 -1 0 0.79863551827123203 0 -0.60181501223851219 forward_v I I I I #
loop $-1 $-1 $469 $223 #
coedge $-1 $386 $386 $387 $470 forward $303 $-1 #
coedge $-1 $387 $387 $386 $470 reversed $305 $-1 #
coedge $-1 $388 $388 $306 $389 forward $467 $-1 #
edge $-1 $471 0 $471 6.2831853071796004 $388 $472 forward 7 unknown #
coedge $-1 $307 $320 $473 $474 forward $87 $-1 #
coedge $-1 $475 $476 $307 $392 reversed $383 $-1 #
edge $-1 $477 -34.179331096930774 $394 -25.490724613407437 $307 $478 forward 7 unknown #
coedge $-1 $479 $308 $476 $480 forward $310 $-1 #
vertex $-1 $480 $481 #
straight-curve $-1 -64.401379436628318 0 17.845378197324834 0 -1 0 I I #
face $-1 $482 $310 $18 $-1 $483 forward single #
coedge $-1 $313 $484 $485 $486 forward $310 $-1 #
coedge $-1 $485 $487 $316 $399 reversed $488 $-1 #
edge $-1 $400 -17.845378197324834 $489 17.845378197324834 $398 $490 forward 7 unknown #
vertex $-1 $486 $491 #
straight-curve $-1 0 39.129238037965095 17.845378197324834 -1 0 0 I I #
coedge $-1 $492 $321 $318 $403 forward $407 $-1 #
edge $-1 $323 -64.401379436628318 $489 64.401379436628318 $318 $493 forward 7 unknown #
coedge $-1 $494 $495 $320 $405 forward $496 $-1 #
edge $-1 $497 -9.1567717138014988 $408 17.845378197324834 $320 $498 forward 7 unknown #
coedge $-1 $321 $492 $494 $499 forward $407 $-1 #
loop $-1 $-1 $492 $482 #
vertex $-1 $322 $500 #
straight-curve $-1 -64.401379436628318 0 -17.845378197324834 0 1 0 I I #
point $-1 -64.401379436628318 39.129238037965095 -17.845378197324834 #
face $-1 $501 $502 $19 $-1 $503 reversed single #
loop $-1 $504 $505 $325 #
cone-surface $-1 -59.325225229126119 -34.091230716682432 12.142803616675426 0.79863551827123203 0 -0.60181501223851219 0.90272251835776829 0 1.197953277406848 1 I I 0 1 1.5 forward I I I I #
coedge $-1 $506 $507 $333 $423 forward $326 $-1 #
coedge $-1 $328 $508 $509 $510 reversed $244 $-1 #
coedge $-1 $509 $511 $329 $417 forward $512 $-1 #
edge $-1 $513 -25.779873744695301 $419 -19.232539325439774 $416 $514 forward 7 unknown #
edge $-1 $513 -10.879313885677391 $420 -4.6896506375148425e-014 $330 $515 forward 7 unknown #
vertex $-1 $510 $516 #
vertex $-1 $335 $517 #
straight-curve $-1 -64.401379436628318 29.053223395399769 43.336102810732271 0 0 -1 I I #
coedge $-1 $333 $332 $511 $518 reversed $161 $-1 #
edge $-1 $425 -15.722396915244136 $519 -4.8430830295667926 $414 $520 forward 7 unknown #
coedge $-1 $521 $334 $507 $522 forward $244 $-1 #
vertex $-1 $522 $523 #
straight-curve $-1 -64.401379436628318 17.045615358341216 9.1567717138015077 0 1 0 I I #
point $-1 -56.324784953844848 34.091230716682432 9.8818097594299381 #
loop $-1 $-1 $434 $342 #
plane-surface $-1 64.401379436628318 0 0 -1 0 0 0 0 1 forward_v I I I I #
coedge $-1 $361 $359 $433 $524 forward $343 $-1 #
edge $-1 $436 -64.401379436628318 $352 64.401379436628318 $351 $525 forward 7 unknown #
edge $-1 $362 -64.401379436628318 $435 64.401379436628318 $361 $526 forward 7 unknown #
coedge $-1 $443 $347 $430 $524 reversed $428 $-1 #
coedge $-1 $347 $443 $355 $440 forward $428 $-1 #
vertex $-1 $348 $527 #
vertex $-1 $440 $528 #
straight-curve $-1 64.401379436628318 0 -17.845378197324834 0 -1 0 I I #
straight-curve $-1 -64.401379436628318 0 -17.845378197324834 0 1 0 I I #
point $-1 -64.401379436628318 -39.129238037965095 -17.845378197324834 #
edge $-1 $441 -17.845378197324834 $436 17.845378197324834 $434 $529 forward 7 unknown #
vertex $-1 $444 $530 #
straight-curve $-1 0 -39.129238037965095 17.845378197324834 1 0 0 I I #
coedge $-1 $434 $433 $358 $444 reversed $428 $-1 #
edge $-1 $441 -39.129238037965095 $445 39.129238037965095 $443 $531 forward 7 unknown #
vertex $-1 $444 $532 #
straight-curve $-1 0 39.129238037965095 17.845378197324834 -1 0 0 I I #
point $-1 -64.401379436628318 39.129238037965095 -17.845378197324834 #
face $-1 $533 $534 $17 $-1 $535 reversed single #
loop $-1 $-1 $457 $365 #
plane-surface $-1 0 -39.129238037965095 0 0 1 0 0 0 1 forward_v I I I I #
coedge $-1 $536 $537 $538 $539 forward $366 $-1 #
coedge $-1 $368 $377 $540 $541 reversed $212 $-1 #
coedge $-1 $542 $457 $368 $454 forward $449 $-1 #
edge $-1 $455 -9.1567717138014988 $543 17.845378197324834 $368 $544 forward 7 unknown #
vertex $-1 $454 $545 #
straight-curve $-1 -64.401379436628318 -17.045615358341216 9.1567717138015077 0 1 0 I I #
coedge $-1 $453 $546 $370 $458 forward $449 $-1 #
edge $-1 $547 4.8430830295667926 $455 15.722396915244136 $457 $548 forward 7 unknown #
edge $-1 $372 12.007608037058553 $547 22.083622679623879 $374 $549 forward 7 unknown #
point $-1 -57.85404501737279 -29.053223395399769 17.845378197324834 #
coedge $-1 $550 $374 $546 $551 forward $288 $-1 #
coedge $-1 $375 $550 $552 $553 forward $288 $-1 #
coedge $-1 $552 $554 $377 $464 reversed $534 $-1 #
edge $-1 $465 -17.845378197324834 $555 17.845378197324834 $463 $556 forward 7 unknown #
vertex $-1 $553 $557 #
straight-curve $-1 -64.401379436628318 0 17.845378197324834 0 -1 0 I I #
loop $-1 $558 $388 $382 #
plane-surface $-1 -64.401379436628346 -34.091230716682432 9.1567717138014615 -0.79863551827123203 0 0.60181501223851219 0.60181501223851219 0 0.79863551827123203 forward_v I I I I #
coedge $-1 $469 $469 $-1 $559 forward $385 $-1 #
edge $-1 $560 0 $560 6.2831853071796004 $386 $561 forward 7 unknown #
vertex $-1 $389 $562 #
ellipse-curve $-1 -61.127712227000558 -34.091230716682432 13.50107495556316 0.79863551827123203 0 -0.60181501223851219 0.90272251835776829 0 1.197953277406848 1 I I #
coedge $-1 $563 $564 $390 $474 reversed $558 $-1 #
edge $-1 $497 -22.083622679623879 $477 -12.007608037058553 $390 $565 forward 7 unknown #
coedge $-1 $476 $391 $564 $566 forward $383 $-1 #
coedge $-1 $391 $475 $393 $480 reversed $383 $-1 #
vertex $-1 $474 $567 #
straight-curve $-1 -64.401379436628318 -29.053223395399769 43.336102810732271 0 0 1 I I #
coedge $-1 $484 $393 $568 $569 forward $310 $-1 #
edge $-1 $394 19.232539325439774 $570 25.779873744695301 $393 $571 forward 7 unknown #
point $-1 -64.401379436628318 -29.053223395399769 17.845378197324834 #
face $-1 $572 $407 $18 $-1 $573 reversed single #
plane-surface $-1 0 0 17.845378197324834 0 0 1 1 0 0 forward_v I I I I #
coedge $-1 $397 $479 $574 $575 forward $310 $-1 #
coedge $-1 $576 $398 $397 $486 reversed $488 $-1 #
edge $-1 $577 -39.129238037965095 $400 39.129238037965095 $485 $578 forward 7 unknown #
coedge $-1 $398 $576 $492 $579 reversed $488 $-1 #
loop $-1 $-1 $576 $580 #
vertex $-1 $579 $581 #
straight-curve $-1 64.401379436628318 39.129238037965095 0 0 0 -1 I I #
point $-1 64.401379436628318 39.129238037965095 17.845378197324834 #
coedge $-1 $406 $402 $487 $579 forward $407 $-1 #
straight-curve $-1 0 39.129238037965095 -17.845378197324834 1 0 0 I I #
coedge $-1 $582 $404 $406 $499 reversed $496 $-1 #
coedge $-1 $404 $574 $563 $583 forward $496 $-1 #
loop $-1 $-1 $495 $572 #
vertex $-1 $405 $584 #
straight-curve $-1 -64.401379436628318 -39.129238037965095 0 0 0 -1 I I #
edge $-1 $585 -64.401379436628318 $408 64.401379436628318 $494 $586 forward 7 unknown #
point $-1 -64.401379436628318 -39.129238037965095 -17.845378197324834 #
face $-1 $587 $588 $19 $-1 $589 forward single #
loop $-1 $590 $591 $411 #
cone-surface $-1 -56.923761592548274 -34.091230716682432 10.333171018608823 0.79863551827123203 0 -0.60181501223851219 0.45136125917888414 0 0.59897663870342399 1 I I -0.70710678118654757 0.70710678118654757 0.75 forward I I I I #
loop $-1 $-1 $592 $325 #
coedge $-1 $505 $505 $593 $594 reversed $412 $-1 #
coedge $-1 $595 $414 $596 $597 reversed $326 $-1 #
coedge $-1 $414 $598 $424 $522 reversed $326 $-1 #
coedge $-1 $415 $599 $600 $601 forward $244 $-1 #
coedge $-1 $602 $416 $415 $510 forward $512 $-1 #
edge $-1 $419 -29.053223395399769 $603 29.053223395399769 $415 $604 forward 7 unknown #
coedge $-1 $416 $596 $422 $518 forward $512 $-1 #
loop $-1 $-1 $416 $605 #
vertex $-1 $518 $606 #
straight-curve $-1 -83.633918762068092 29.053223395399769 17.845378197324834 -1 0 0 I I #
straight-curve $-1 -64.401379436628346 29.053223395399769 9.1567717138014615 -0.60181501223851219 0 -0.79863551827123203 I I #
point $-1 -64.401379436628318 29.053223395399769 17.845378197324834 #
point $-1 -64.401379436628318 29.053223395399769 9.1567717138014988 #
edge $-1 $519 -22.083622679623879 $513 -12.007608037058553 $511 $607 forward 7 unknown #
vertex $-1 $518 $608 #
straight-curve $-1 -54.939404944661923 39.129238037965095 21.71323632267352 0.60181501223851219 0 0.79863551827123203 I I #
coedge $-1 $609 $424 $610 $611 reversed $244 $-1 #
edge $-1 $425 -9.1567717138014988 $612 17.845378197324834 $507 $613 forward 7 unknown #
point $-1 -64.401379436628318 39.129238037965095 9.1567717138014988 #
edge $-1 $445 -17.845378197324834 $435 17.845378197324834 $433 $614 forward 7 unknown #
straight-curve $-1 0 -39.129238037965095 -17.845378197324834 -1 0 0 I I #
straight-curve $-1 0 39.129238037965095 -17.845378197324834 1 0 0 I I #
point $-1 64.401379436628318 39.129238037965095 -17.845378197324834 #
point $-1 64.401379436628318 -39.129238037965095 -17.845378197324834 #
straight-curve $-1 64.401379436628318 -39.129238037965095 0 0 0 -1 I I #
point $-1 64.401379436628318 -39.129238037965095 17.845378197324834 #
straight-curve $-1 64.401379436628318 0 17.845378197324834 0 1 0 I I #
point $-1 64.401379436628318 39.129238037965095 17.845378197324834 #
face $-1 $-1 $615 $17 $-1 $616 reversed single #
loop $-1 $-1 $617 $448 #
plane-surface $-1 0 39.129238037965095 0 0 -1 0 0 0 -1 forward_v I I I I #
coedge $-1 $540 $451 $542 $618 forward $366 $-1 #
coedge $-1 $451 $540 $554 $619 forward $366 $-1 #
coedge $-1 $620 $621 $451 $539 reversed $615 $-1 #
edge $-1 $622 -39.129238037965095 $623 39.129238037965095 $538 $624 forward 7 unknown #
coedge $-1 $537 $536 $452 $541 forward $366 $-1 #
edge $-1 $543 -39.129238037965095 $555 39.129238037965095 $452 $625 forward 7 unknown #
coedge $-1 $626 $453 $536 $618 reversed $449 $-1 #
vertex $-1 $541 $627 #
straight-curve $-1 -64.401379436628318 -39.129238037965095 0 0 0 -1 I I #
point $-1 -64.401379436628318 -39.129238037965095 9.1567717138014988 #
coedge $-1 $457 $626 $461 $551 reversed $449 $-1 #
vertex $-1 $551 $628 #
straight-curve $-1 -54.939404944661923 -39.129238037965095 21.71323632267352 -0.60181501223851219 0 -0.79863551827123203 I I #
straight-curve $-1 -57.854045017372798 -17.045615358341216 17.845378197324834 0 -1 0 I I #
coedge $-1 $462 $461 $629 $630 forward $288 $-1 #
edge $-1 $547 -57.85404501737279 $631 64.401379436628318 $546 $632 forward 7 unknown #
coedge $-1 $617 $463 $462 $553 reversed $534 $-1 #
edge $-1 $633 -64.401379436628318 $465 64.401379436628318 $552 $634 forward 7 unknown #
coedge $-1 $463 $617 $537 $619 reversed $534 $-1 #
vertex $-1 $619 $635 #
straight-curve $-1 -64.401379436628318 39.129238037965095 0 0 0 -1 I I #
point $-1 -64.401379436628318 39.129238037965095 17.845378197324834 #
loop $-1 $-1 $473 $382 #
edge $-1 $636 1 $636 0 $469 $-1 forward 7 unknown #
vertex $-1 $470 $637 #
ellipse-curve $-1 -57.522738231251701 -34.091230716682432 10.784532277787708 -0.79863551827123203 0 0.60181501223851219 0.90272251835776829 0 1.197953277406848 1 I I #
point $-1 -60.224989708642767 -34.091230716682432 14.699028232969992 #
coedge $-1 $568 $473 $495 $583 reversed $558 $-1 #
coedge $-1 $473 $568 $475 $566 reversed $558 $-1 #
straight-curve $-1 -64.401379436628318 -17.045615358341216 9.1567717138015077 0 1 0 I I #
edge $-1 $477 4.6896506375148425e-014 $570 10.879313885677391 $475 $638 forward 7 unknown #
point $-1 -64.401379436628318 -29.053223395399769 9.1567717138014988 #
coedge $-1 $564 $563 $479 $569 reversed $558 $-1 #
edge $-1 $570 12.007608037058553 $639 22.083622679623879 $479 $640 forward 7 unknown #
vertex $-1 $569 $641 #
straight-curve $-1 -83.633918762068092 -29.053223395399769 17.845378197324834 1 0 0 I I #
face $-1 $580 $496 $18 $-1 $642 reversed single #
plane-surface $-1 0 0 -17.845378197324834 0 0 1 1 0 0 forward_v I I I I #
coedge $-1 $495 $582 $484 $575 reversed $496 $-1 #
edge $-1 $639 -57.85404501737279 $577 64.401379436628318 $574 $643 forward 7 unknown #
coedge $-1 $487 $485 $582 $644 forward $488 $-1 #
vertex $-1 $486 $645 #
straight-curve $-1 64.401379436628318 0 17.845378197324834 0 1 0 I I #
edge $-1 $489 -39.129238037965095 $585 39.129238037965095 $487 $646 forward 7 unknown #
face $-1 $-1 $488 $18 $-1 $647 reversed single #
point $-1 64.401379436628318 39.129238037965095 -17.845378197324834 #
coedge $-1 $574 $494 $576 $644 reversed $496 $-1 #
edge $-1 $639 4.8430830295667926 $497 15.722396915244136 $495 $648 forward 7 unknown #
point $-1 -64.401379436628318 -39.129238037965095 9.1567717138014988 #
vertex $-1 $644 $649 #
straight-curve $-1 0 -39.129238037965095 -17.845378197324834 -1 0 0 I I #
face $-1 $605 $650 $19 $-1 $651 forward single #
loop $-1 $-1 $600 $501 #
plane-surface $-1 -167.26783752413618 -29.053223395399769 86.672205621464542 0 -1 0 0.79863551827123203 0 -0.60181501223851219 forward_v I I I I #
loop $-1 $-1 $652 $411 #
coedge $-1 $591 $591 $592 $653 forward $502 $-1 #
coedge $-1 $592 $592 $591 $653 reversed $504 $-1 #
coedge $-1 $593 $593 $505 $594 forward $650 $-1 #
edge $-1 $654 0 $654 6.2831853071796004 $593 $655 forward 7 unknown #
coedge $-1 $598 $506 $656 $657 forward $326 $-1 #
coedge $-1 $511 $658 $506 $597 forward $512 $-1 #
edge $-1 $659 -64.401379436628318 $519 57.85404501737279 $506 $660 forward 7 unknown #
coedge $-1 $507 $595 $661 $662 reversed $326 $-1 #
coedge $-1 $508 $609 $663 $664 forward $244 $-1 #
coedge $-1 $665 $666 $508 $601 reversed $588 $-1 #
edge $-1 $667 -34.179331096930774 $603 -25.490724613407437 $508 $668 forward 7 unknown #
coedge $-1 $669 $509 $666 $670 forward $512 $-1 #
vertex $-1 $670 $671 #
straight-curve $-1 -64.401379436628318 0 17.845378197324834 0 -1 0 I I #
face $-1 $672 $512 $19 $-1 $673 forward single #
point $-1 -57.85404501737279 29.053223395399769 17.845378197324834 #
straight-curve $-1 -57.854045017372798 17.045615358341216 17.845378197324834 0 -1 0 I I #
point $-1 -57.85404501737279 39.129238037965095 17.845378197324834 #
coedge $-1 $599 $521 $674 $675 reversed $244 $-1 #
coedge $-1 $661 $676 $521 $611 forward $677 $-1 #
edge $-1 $678 -39.129238037965095 $612 39.129238037965095 $521 $679 forward 7 unknown #
vertex $-1 $662 $680 #
straight-curve $-1 -64.401379436628318 39.129238037965095 0 0 0 -1 I I #
straight-curve $-1 64.401379436628318 39.129238037965095 0 0 0 -1 I I #
loop $-1 $-1 $621 $533 #
plane-surface $-1 64.401379436628318 0 0 -1 0 0 0 0 1 forward_v I I I I #
coedge $-1 $554 $552 $620 $681 forward $534 $-1 #
edge $-1 $623 -64.401379436628318 $543 64.401379436628318 $542 $682 forward 7 unknown #
edge $-1 $555 -64.401379436628318 $622 64.401379436628318 $554 $683 forward 7 unknown #
coedge $-1 $629 $538 $617 $681 reversed $615 $-1 #
coedge $-1 $538 $629 $626 $684 forward $615 $-1 #
vertex $-1 $539 $685 #
vertex $-1 $684 $686 #
straight-curve $-1 64.401379436628318 0 -17.845378197324834 0 -1 0 I I #
straight-curve $-1 -64.401379436628318 0 -17.845378197324834 0 1 0 I I #
coedge $-1 $546 $542 $621 $684 reversed $449 $-1 #
point $-1 -64.401379436628318 -39.129238037965095 -17.845378197324834 #
point $-1 -57.85404501737279 -39.129238037965095 17.845378197324834 #
coedge $-1 $621 $620 $550 $630 reversed $615 $-1 #
edge $-1 $631 -39.129238037965095 $633 39.129238037965095 $629 $687 forward 7 unknown #
vertex $-1 $630 $688 #
straight-curve $-1 0 -39.129238037965095 17.845378197324834 1 0 0 I I #
vertex $-1 $630 $689 #
straight-curve $-1 0 39.129238037965095 17.845378197324834 -1 0 0 I I #
point $-1 -64.401379436628318 39.129238037965095 -17.845378197324834 #
vertex $-1 $559 $690 #
point $-1 -56.620015712893931 -34.091230716682432 11.982485555194556 #
straight-curve $-1 -64.401379436628346 -29.053223395399769 9.1567717138014615 0.60181501223851219 0 0.79863551827123203 I I #
vertex $-1 $575 $691 #
straight-curve $-1 -57.854045017372798 -17.045615358341216 17.845378197324834 0 -1 0 I I #
point $-1 -57.85404501737279 -29.053223395399769 17.845378197324834 #
plane-surface $-1 0 -39.129238037965095 0 0 1 0 0 0 1 forward_v I I I I #
straight-curve $-1 0 -39.129238037965095 17.845378197324834 1 0 0 I I #
edge $-1 $577 -17.845378197324834 $585 17.845378197324834 $576 $692 forward 7 unknown #
point $-1 64.401379436628318 -39.129238037965095 17.845378197324834 #
straight-curve $-1 64.401379436628318 0 -17.845378197324834 0 -1 0 I I #
plane-surface $-1 64.401379436628318 0 0 -1 0 0 0 0 1 forward_v I I I I #
straight-curve $-1 -54.939404944661923 -39.129238037965095 21.71323632267352 -0.60181501223851219 0 -0.79863551827123203 I I #
point $-1 64.401379436628318 -39.129238037965095 -17.845378197324834 #
loop $-1 $693 $593 $587 #
plane-surface $-1 -64.401379436628346 -34.091230716682432 9.1567717138014615 -0.79863551827123203 0 0.60181501223851219 0.60181501223851219 0 0.79863551827123203 forward_v I I I I #
coedge $-1 $652 $652 $-1 $694 forward $590 $-1 #
edge $-1 $695 0 $695 6.2831853071796004 $591 $696 forward 7 unknown #
vertex $-1 $594 $697 #
ellipse-curve $-1 -61.127712227000558 -34.091230716682432 13.50107495556316 0.79863551827123203 0 -0.60181501223851219 0.90272251835776829 0 1.197953277406848 1 I I #
coedge $-1 $698 $699 $595 $657 reversed $700 $-1 #
edge $-1 $659 -17.845378197324834 $701 17.845378197324834 $656 $702 forward 7 unknown #
coedge $-1 $596 $703 $698 $704 forward $512 $-1 #
vertex $-1 $704 $705 #
straight-curve $-1 0 39.129238037965095 17.845378197324834 -1 0 0 I I #
coedge $-1 $706 $610 $598 $662 forward $677 $-1 #
edge $-1 $612 -64.401379436628318 $701 64.401379436628318 $598 $707 forward 7 unknown #
coedge $-1 $708 $709 $599 $664 reversed $693 $-1 #
edge $-1 $710 -22.083622679623879 $667 -12.007608037058553 $599 $711 forward 7 unknown #
coedge $-1 $666 $600 $709 $712 forward $588 $-1 #
coedge $-1 $600 $665 $602 $670 reversed $588 $-1 #
vertex $-1 $664 $713 #
straight-curve $-1 -64.401379436628318 -29.053223395399769 43.336102810732271 0 0 1 I I #
coedge $-1 $703 $602 $714 $715 forward $512 $-1 #
edge $-1 $603 19.232539325439774 $716 25.779873744695301 $602 $717 forward 7 unknown #
point $-1 -64.401379436628318 -29.053223395399769 17.845378197324834 #
face $-1 $718 $677 $19 $-1 $719 reversed single #
plane-surface $-1 0 0 17.845378197324834 0 0 1 1 0 0 forward_v I I I I #
coedge $-1 $720 $721 $609 $675 forward $722 $-1 #
edge $-1 $710 -9.1567717138014988 $678 17.845378197324834 $609 $723 forward 7 unknown #
coedge $-1 $610 $706 $720 $724 forward $677 $-1 #
loop $-1 $-1 $706 $672 #
vertex $-1 $611 $725 #
straight-curve $-1 -64.401379436628318 0 -17.845378197324834 0 1 0 I I #
point $-1 -64.401379436628318 39.129238037965095 -17.845378197324834 #
edge $-1 $633 -17.845378197324834 $622 17.845378197324834 $620 $726 forward 7 unknown #
straight-curve $-1 0 -39.129238037965095 -17.845378197324834 -1 0 0 I I #
straight-curve $-1 0 39.129238037965095 -17.845378197324834 1 0 0 I I #
edge $-1 $631 -17.845378197324834 $623 17.845378197324834 $621 $727 forward 7 unknown #
point $-1 64.401379436628318 39.129238037965095 -17.845378197324834 #
point $-1 64.401379436628318 -39.129238037965095 -17.845378197324834 #
straight-curve $-1 64.401379436628318 0 17.845378197324834 0 1 0 I I #
point $-1 64.401379436628318 -39.129238037965095 17.845378197324834 #
point $-1 64.401379436628318 39.129238037965095 17.845378197324834 #
point $-1 -56.324784953844848 -34.091230716682432 9.8818097594299381 #
point $-1 -57.85404501737279 -39.129238037965095 17.845378197324834 #
straight-curve $-1 64.401379436628318 -39.129238037965095 0 0 0 -1 I I #
loop $-1 $-1 $663 $587 #
edge $-1 $728 1 $728 0 $652 $-1 forward 7 unknown #
vertex $-1 $653 $729 #
ellipse-curve $-1 -57.522738231251701 -34.091230716682432 10.784532277787708 -0.79863551827123203 0 0.60181501223851219 0.90272251835776829 0 1.197953277406848 1 I I #
point $-1 -60.224989708642767 -34.091230716682432 14.699028232969992 #
coedge $-1 $730 $656 $658 $704 reversed $700 $-1 #
coedge $-1 $656 $730 $706 $731 reversed $700 $-1 #
loop $-1 $-1 $730 $732 #
vertex $-1 $731 $733 #
straight-curve $-1 64.401379436628318 39.129238037965095 0 0 0 -1 I I #
coedge $-1 $658 $669 $734 $735 forward $512 $-1 #
edge $-1 $736 -39.129238037965095 $659 39.129238037965095 $698 $737 forward 7 unknown #
point $-1 64.401379436628318 39.129238037965095 17.845378197324834 #
coedge $-1 $676 $661 $699 $731 forward $677 $-1 #
straight-curve $-1 0 39.129238037965095 -17.845378197324834 1 0 0 I I #
coedge $-1 $714 $663 $721 $738 reversed $693 $-1 #
coedge $-1 $663 $714 $665 $712 reversed $693 $-1 #
vertex $-1 $675 $739 #
straight-curve $-1 -64.401379436628318 -17.045615358341216 9.1567717138015077 0 1 0 I I #
edge $-1 $667 4.6896506375148425e-014 $716 10.879313885677391 $665 $740 forward 7 unknown #
point $-1 -64.401379436628318 -29.053223395399769 9.1567717138014988 #
coedge $-1 $709 $708 $669 $715 reversed $693 $-1 #
edge $-1 $716 12.007608037058553 $741 22.083622679623879 $669 $742 forward 7 unknown #
vertex $-1 $715 $743 #
straight-curve $-1 -83.633918762068092 -29.053223395399769 17.845378197324834 1 0 0 I I #
face $-1 $732 $722 $19 $-1 $744 reversed single #
plane-surface $-1 0 0 -17.845378197324834 0 0 1 1 0 0 forward_v I I I I #
coedge $-1 $745 $674 $676 $724 reversed $722 $-1 #
coedge $-1 $674 $734 $708 $738 forward $722 $-1 #
loop $-1 $-1 $721 $718 #
straight-curve $-1 -64.401379436628318 -39.129238037965095 0 0 0 -1 I I #
edge $-1 $746 -64.401379436628318 $678 64.401379436628318 $720 $747 forward 7 unknown #
point $-1 -64.401379436628318 -39.129238037965095 -17.845378197324834 #
straight-curve $-1 64.401379436628318 39.129238037965095 0 0 0 -1 I I #
straight-curve $-1 64.401379436628318 -39.129238037965095 0 0 0 -1 I I #
vertex $-1 $694 $748 #
point $-1 -56.620015712893931 -34.091230716682432 11.982485555194556 #
coedge $-1 $699 $698 $745 $749 forward $700 $-1 #
edge $-1 $701 -39.129238037965095 $746 39.129238037965095 $699 $750 forward 7 unknown #
face $-1 $-1 $700 $19 $-1 $751 reversed single #
point $-1 64.401379436628318 39.129238037965095 -17.845378197324834 #
coedge $-1 $721 $745 $703 $735 reversed $722 $-1 #
edge $-1 $741 -57.85404501737279 $736 64.401379436628318 $734 $752 forward 7 unknown #
vertex $-1 $704 $753 #
straight-curve $-1 64.401379436628318 0 17.845378197324834 0 1 0 I I #
edge $-1 $741 4.8430830295667926 $710 15.722396915244136 $721 $754 forward 7 unknown #
point $-1 -64.401379436628318 -39.129238037965095 9.1567717138014988 #
straight-curve $-1 -64.401379436628346 -29.053223395399769 9.1567717138014615 0.60181501223851219 0 0.79863551827123203 I I #
vertex $-1 $735 $755 #
straight-curve $-1 -57.854045017372798 -17.045615358341216 17.845378197324834 0 -1 0 I I #
point $-1 -57.85404501737279 -29.053223395399769 17.845378197324834 #
plane-surface $-1 0 -39.129238037965095 0 0 1 0 0 0 1 forward_v I I I I #
coedge $-1 $734 $720 $730 $749 reversed $722 $-1 #
vertex $-1 $749 $756 #
straight-curve $-1 0 -39.129238037965095 -17.845378197324834 -1 0 0 I I #
point $-1 -56.324784953844848 -34.091230716682432 9.8818097594299381 #
edge $-1 $736 -17.845378197324834 $746 17.845378197324834 $730 $757 forward 7 unknown #
straight-curve $-1 64.401379436628318 0 -17.845378197324834 0 -1 0 I I #
plane-surface $-1 64.401379436628318 0 0 -1 0 0 0 0 1 forward_v I I I I #
straight-curve $-1 0 -39.129238037965095 17.845378197324834 1 0 0 I I #
point $-1 64.401379436628318 -39.129238037965095 17.845378197324834 #
straight-curve $-1 -54.939404944661923 -39.129238037965095 21.71323632267352 -0.60181501223851219 0 -0.79863551827123203 I I #
point $-1 -57.85404501737279 -39.129238037965095 17.845378197324834 #
point $-1 64.401379436628318 -39.129238037965095 -17.845378197324834 #
straight-curve $-1 64.401379436628318 -39.129238037965095 0 0 0 -1 I I #
End-of-ACIS-data 