500 0 4 0           
7 Unknown 11 ACIS 5.0 NT 24 Fri Mar 26 17:20:37 1999 
-1 9.9999999999999995e-007 1e-010 
body $-1 $4 $-1 $5 #
body $-1 $6 $-1 $7 #
body $-1 $8 $-1 $9 #
body $-1 $10 $-1 $11 #
lump $-1 $-1 $12 $0 #
transform $-1 1 0 0 0 1 0 0 0 1 53.48307748649556 31.983751944437319 8.6193219754679795 1 rotate no_reflect no_shear #
lump $-1 $-1 $13 $1 #
transform $-1 1 0 0 0 1 0 0 0 1 53.48307748649556 31.983751944437319 8.6193219754679795 1 rotate no_reflect no_shear #
lump $-1 $-1 $14 $2 #
transform $-1 1 0 0 0 1 0 0 0 1 53.48307748649556 31.983751944437319 8.6193219754679795 1 rotate no_reflect no_shear #
lump $-1 $-1 $15 $3 #
transform $-1 1 0 0 0 1 0 0 0 1 53.48307748649556 31.983751944437319 8.6193219754679795 1 rotate no_reflect no_shear #
shell $-1 $-1 $-1 $16 $-1 $4 #
shell $-1 $-1 $-1 $17 $-1 $6 #
shell $-1 $-1 $-1 $18 $-1 $8 #
shell $-1 $-1 $-1 $19 $-1 $10 #
face $-1 $20 $21 $12 $-1 $22 forward single #
face $-1 $23 $24 $13 $-1 $25 reversed single #
face $-1 $26 $27 $14 $-1 $28 forward single #
face $-1 $29 $30 $15 $-1 $31 reversed single #
face $-1 $32 $33 $12 $-1 $34 reversed single #
loop $-1 $-1 $35 $16 #
plane-surface $-1 0 0 8.6193219754679795 0 0 1 1 0 0 forward_v I I I I #
face $-1 $36 $37 $13 $-1 $38 forward single #
loop $-1 $-1 $39 $17 #
plane-surface $-1 0 -28.538503704994127 8.1193219754679795 0 0 1 1 0 0 forward_v I I I I #
face $-1 $40 $41 $14 $-1 $42 forward single #
loop $-1 $-1 $43 $18 #
plane-surface $-1 40.789272938856904 56.020961891995356 123.71992602042405 1 0 0 0 -0.66913061440640931 -0.74314481823134659 forward_v I I I I #
face $-1 $44 $45 $15 $-1 $46 reversed single #
loop $-1 $47 $48 $19 #
cone-surface $-1 47.136175212676221 26.150975926820216 2.981048771383553 0 -0.66913061440640931 -0.74314481823134659 1.5 0 0 1 I I 0 1 1.5 forward I I I I #
face $-1 $49 $50 $12 $-1 $51 reversed single #
loop $-1 $-1 $52 $20 #
plane-surface $-1 0 0 -8.6193219754679795 0 0 1 1 0 0 forward_v I I I I #
coedge $-1 $53 $54 $55 $56 forward $21 $-1 #
face $-1 $57 $58 $13 $-1 $59 forward single #
loop $-1 $-1 $60 $23 #
plane-surface $-1 0 -28.538503704994127 3.1493294360198476 0 0 1 1 0 0 forward_v I I I I #
coedge $-1 $61 $62 $63 $64 reversed $24 $-1 #
face $-1 $65 $66 $14 $-1 $67 reversed single #
loop $-1 $-1 $68 $26 #
plane-surface $-1 47.136175212676235 -15.55336710577339 44.228582226114511 0 0.66913061440640931 0.74314481823134659 1 0 0 forward_v I I I I #
coedge $-1 $69 $70 $71 $72 reversed $27 $-1 #
face $-1 $73 $74 $15 $-1 $75 forward single #
loop $-1 $76 $77 $29 #
cone-surface $-1 47.136175212676221 23.810866865041962 0.38209441790587917 0 -0.66913061440640931 -0.74314481823134659 0.75 0 0 1 I I -0.70710678118654757 0.70710678118654757 0.75 forward I I I I #
loop $-1 $-1 $78 $19 #
coedge $-1 $48 $48 $79 $80 reversed $30 $-1 #
face $-1 $81 $82 $12 $-1 $83 reversed single #
loop $-1 $-1 $84 $32 #
plane-surface $-1 0 -31.983751944437319 0 0 1 0 0 0 1 forward_v I I I I #
coedge $-1 $85 $86 $87 $88 forward $33 $-1 #
coedge $-1 $89 $35 $90 $91 forward $21 $-1 #
coedge $-1 $35 $89 $92 $93 forward $21 $-1 #
coedge $-1 $94 $95 $35 $56 reversed $96 $-1 #
edge $-1 $97 -31.983751944437319 $98 31.983751944437319 $55 $99 forward 7 unknown #
face $-1 $100 $101 $13 $-1 $102 reversed single #
loop $-1 $-1 $103 $36 #
plane-surface $-1 0 -25.093255465550936 5.6343257057439136 0 -1 0 0 0 -1 forward_v I I I I #
coedge $-1 $104 $105 $106 $107 reversed $37 $-1 #
coedge $-1 $108 $39 $109 $110 reversed $24 $-1 #
coedge $-1 $39 $108 $111 $112 reversed $24 $-1 #
coedge $-1 $113 $114 $39 $64 forward $101 $-1 #
edge $-1 $115 -17.714500091940256 $116 -10.824003613053872 $63 $117 forward 7 unknown #
face $-1 $118 $119 $14 $-1 $120 reversed single #
loop $-1 $-1 $121 $40 #
plane-surface $-1 0 31.983751944437319 0 0 -1 0 0 0 -1 forward_v I I I I #
coedge $-1 $122 $123 $124 $125 reversed $41 $-1 #
coedge $-1 $70 $43 $123 $126 forward $27 $-1 #
coedge $-1 $43 $69 $121 $127 reversed $27 $-1 #
coedge $-1 $128 $124 $43 $72 forward $129 $-1 #
edge $-1 $130 -4.0157588348476949 $131 3.9732709984396415 $71 $132 forward 7 unknown #
face $-1 $133 $134 $15 $-1 $135 forward single #
loop $-1 $-1 $136 $44 #
plane-surface $-1 40.789272938856904 56.020961891995356 123.71992602042405 1 0 0 0 -0.66913061440640931 -0.74314481823134659 forward_v I I I I #
loop $-1 $-1 $137 $29 #
coedge $-1 $77 $77 $78 $138 forward $45 $-1 #
coedge $-1 $78 $78 $77 $138 reversed $47 $-1 #
coedge $-1 $79 $79 $48 $80 forward $134 $-1 #
edge $-1 $139 -5.25902548708766e-016 $139 6.2831853071795996 $79 $140 forward 7 unknown #
face $-1 $141 $142 $12 $-1 $143 reversed single #
loop $-1 $-1 $144 $49 #
plane-surface $-1 -53.48307748649556 0 0 1 0 0 0 0 -1 forward_v I I I I #
coedge $-1 $145 $92 $146 $147 forward $50 $-1 #
coedge $-1 $148 $52 $145 $149 forward $33 $-1 #
coedge $-1 $52 $148 $150 $151 forward $33 $-1 #
coedge $-1 $95 $94 $52 $88 reversed $96 $-1 #
edge $-1 $152 -31.983751944437319 $153 31.983751944437319 $87 $154 forward 7 unknown #
coedge $-1 $54 $53 $155 $156 forward $21 $-1 #
coedge $-1 $157 $158 $53 $91 reversed $142 $-1 #
edge $-1 $98 -53.48307748649556 $159 53.48307748649556 $90 $160 forward 7 unknown #
coedge $-1 $84 $161 $54 $93 reversed $50 $-1 #
edge $-1 $162 -53.48307748649556 $97 53.48307748649556 $92 $163 forward 7 unknown #
coedge $-1 $87 $55 $161 $164 forward $96 $-1 #
coedge $-1 $55 $87 $157 $165 reversed $96 $-1 #
loop $-1 $-1 $94 $141 #
vertex $-1 $56 $166 #
vertex $-1 $56 $167 #
straight-curve $-1 53.48307748649556 0 8.6193219754679795 0 1 0 I I #
face $-1 $168 $169 $13 $-1 $170 reversed single #
loop $-1 $-1 $63 $57 #
plane-surface $-1 53.48307748649556 0 0 -1 0 0 0 0 1 forward_v I I I I #
coedge $-1 $111 $171 $113 $172 reversed $58 $-1 #
coedge $-1 $173 $60 $171 $174 reversed $37 $-1 #
coedge $-1 $60 $173 $175 $176 reversed $37 $-1 #
coedge $-1 $177 $113 $60 $107 forward $101 $-1 #
edge $-1 $178 10.824003613053872 $179 17.714500091940256 $106 $180 forward 7 unknown #
coedge $-1 $62 $61 $181 $182 reversed $24 $-1 #
coedge $-1 $183 $184 $61 $110 forward $185 $-1 #
edge $-1 $186 -53.48307748649556 $115 53.48307748649556 $109 $187 forward 7 unknown #
coedge $-1 $188 $103 $62 $112 forward $58 $-1 #
edge $-1 $116 -53.48307748649556 $189 53.48307748649556 $111 $190 forward 7 unknown #
coedge $-1 $106 $63 $103 $172 forward $101 $-1 #
coedge $-1 $63 $191 $183 $192 forward $101 $-1 #
vertex $-1 $110 $193 #
vertex $-1 $64 $194 #
straight-curve $-1 53.48307748649556 -14.269251852497064 8.1193219754679795 0 1 0 I I #
face $-1 $195 $196 $14 $-1 $197 forward single #
loop $-1 $-1 $198 $65 #
plane-surface $-1 0 -28.538503704994127 8.1193219754679795 0 0 1 1 0 0 forward_v I I I I #
coedge $-1 $199 $200 $70 $127 forward $66 $-1 #
coedge $-1 $201 $68 $202 $203 reversed $41 $-1 #
coedge $-1 $68 $201 $69 $126 reversed $41 $-1 #
coedge $-1 $71 $204 $68 $125 forward $129 $-1 #
edge $-1 $205 -29.914989880157442 $130 -17.221185332518786 $124 $206 forward 7 unknown #
edge $-1 $130 53.217203762580439 $207 63.967503888874646 $69 $208 forward 7 unknown #
edge $-1 $131 53.240641034744044 $207 60.433995963304582 $121 $209 forward 7 unknown #
coedge $-1 $210 $71 $200 $211 forward $129 $-1 #
loop $-1 $-1 $71 $212 #
vertex $-1 $125 $213 #
vertex $-1 $211 $214 #
straight-curve $-1 40.789272938856904 28.010480945997678 8.6193219754679831 0 1 0 I I #
face $-1 $215 $216 $15 $-1 $217 reversed single #
loop $-1 $218 $79 $73 #
plane-surface $-1 47.136175212676235 -15.55336710577339 44.228582226114511 0 0.66913061440640931 0.74314481823134659 1 0 0 forward_v I I I I #
coedge $-1 $219 $220 $221 $222 reversed $74 $-1 #
coedge $-1 $137 $137 $-1 $223 forward $76 $-1 #
edge $-1 $224 0 $224 6.2831853071796004 $77 $225 forward 7 unknown #
vertex $-1 $80 $226 #
ellipse-curve $-1 47.136175212676221 27.989237027793653 5.0226445111877061 0 -0.66913061440640931 -0.74314481823134659 1.5 0 0 1 I I #
face $-1 $-1 $96 $12 $-1 $227 reversed single #
loop $-1 $-1 $157 $81 #
plane-surface $-1 0 31.983751944437319 0 0 -1 0 0 0 -1 forward_v I I I I #
coedge $-1 $228 $155 $158 $229 forward $82 $-1 #
coedge $-1 $161 $84 $85 $149 reversed $50 $-1 #
coedge $-1 $155 $228 $84 $147 reversed $82 $-1 #
edge $-1 $162 -8.6193219754679795 $230 8.6193219754679795 $146 $231 forward 7 unknown #
coedge $-1 $86 $85 $228 $232 forward $33 $-1 #
edge $-1 $153 -53.48307748649556 $230 53.48307748649556 $145 $233 forward 7 unknown #
coedge $-1 $158 $157 $86 $151 reversed $142 $-1 #
edge $-1 $234 -53.48307748649556 $152 53.48307748649556 $150 $235 forward 7 unknown #
vertex $-1 $88 $236 #
vertex $-1 $164 $237 #
straight-curve $-1 53.48307748649556 0 -8.6193219754679795 0 -1 0 I I #
coedge $-1 $144 $146 $89 $156 reversed $82 $-1 #
edge $-1 $159 -31.983751944437319 $162 31.983751944437319 $155 $238 forward 7 unknown #
coedge $-1 $150 $90 $95 $165 forward $142 $-1 #
coedge $-1 $90 $150 $144 $229 reversed $142 $-1 #
vertex $-1 $91 $239 #
straight-curve $-1 0 31.983751944437319 8.6193219754679795 -1 0 0 I I #
coedge $-1 $92 $145 $94 $164 reversed $50 $-1 #
vertex $-1 $156 $240 #
straight-curve $-1 0 -31.983751944437319 8.6193219754679795 1 0 0 I I #
edge $-1 $97 -8.6193219754679795 $153 8.6193219754679795 $94 $241 forward 7 unknown #
edge $-1 $98 -8.6193219754679795 $152 8.6193219754679795 $95 $242 forward 7 unknown #
point $-1 53.48307748649556 -31.983751944437319 8.6193219754679795 #
point $-1 53.48307748649556 31.983751944437319 8.6193219754679795 #
face $-1 $243 $244 $13 $-1 $245 forward single #
loop $-1 $-1 $175 $100 #
plane-surface $-1 0 -31.983751944437319 0 0 1 0 0 0 1 forward_v I I I I #
coedge $-1 $103 $188 $104 $174 forward $58 $-1 #
edge $-1 $116 -5.3021591225960227 $178 -0.33216658314789083 $113 $246 forward 7 unknown #
coedge $-1 $105 $104 $247 $248 reversed $37 $-1 #
edge $-1 $249 -53.48307748649556 $178 53.48307748649556 $171 $250 forward 7 unknown #
coedge $-1 $251 $252 $105 $176 forward $169 $-1 #
edge $-1 $179 -53.48307748649556 $253 53.48307748649556 $175 $254 forward 7 unknown #
coedge $-1 $255 $106 $252 $256 forward $101 $-1 #
vertex $-1 $107 $257 #
vertex $-1 $256 $258 #
straight-curve $-1 53.48307748649556 -14.269251852497064 3.1493294360198476 0 -1 0 I I #
coedge $-1 $259 $260 $108 $182 forward $261 $-1 #
edge $-1 $189 10.824003613053872 $186 17.714500091940256 $181 $262 forward 7 unknown #
coedge $-1 $263 $109 $114 $192 reversed $185 $-1 #
coedge $-1 $109 $263 $259 $264 forward $185 $-1 #
loop $-1 $-1 $109 $265 #
vertex $-1 $182 $266 #
straight-curve $-1 0 -31.983751944437319 8.1193219754679795 1 0 0 I I #
coedge $-1 $171 $111 $260 $267 reversed $58 $-1 #
vertex $-1 $182 $268 #
straight-curve $-1 0 -25.093255465550936 8.1193219754679795 -1 0 0 I I #
coedge $-1 $114 $269 $270 $271 reversed $101 $-1 #
edge $-1 $272 -8.6193219754679795 $115 -8.1193219754679795 $114 $273 forward 7 unknown #
point $-1 53.48307748649556 -31.983751944437319 8.1193219754679795 #
point $-1 53.48307748649556 -25.093255465550936 8.1193219754679795 #
face $-1 $274 $275 $14 $-1 $276 forward single #
loop $-1 $-1 $277 $118 #
plane-surface $-1 0 -28.538503704994127 3.1493294360198476 0 0 1 1 0 0 forward_v I I I I #
coedge $-1 $278 $279 $280 $281 reversed $119 $-1 #
coedge $-1 $282 $121 $201 $283 forward $66 $-1 #
coedge $-1 $121 $284 $128 $211 reversed $66 $-1 #
coedge $-1 $123 $122 $199 $283 reversed $41 $-1 #
coedge $-1 $285 $286 $122 $203 forward $287 $-1 #
edge $-1 $288 -43.390952603879761 $205 -32.640652477585562 $202 $289 forward 7 unknown #
coedge $-1 $124 $290 $285 $291 forward $129 $-1 #
vertex $-1 $203 $292 #
straight-curve $-1 23.568087606338118 23.99472211114999 8.619321975467976 -1 0 0 I I #
vertex $-1 $283 $293 #
straight-curve $-1 40.789272938856904 -15.55336710577339 44.228582226114511 0 0.74314481823134659 -0.66913061440640931 I I #
straight-curve $-1 40.789272938856904 31.983751944437319 61.859963010212027 0 0 -1 I I #
coedge $-1 $290 $128 $294 $295 forward $129 $-1 #
edge $-1 $131 -40.789272938856904 $296 53.48307748649556 $200 $297 forward 7 unknown #
face $-1 $298 $129 $14 $-1 $299 forward single #
point $-1 40.789272938856904 23.994722111149983 8.6193219754679831 #
point $-1 40.789272938856904 31.983751944437319 8.6193219754679795 #
face $-1 $300 $301 $15 $-1 $302 reversed single #
loop $-1 $-1 $303 $133 #
plane-surface $-1 0 31.983751944437319 0 0 -1 0 0 0 -1 forward_v I I I I #
loop $-1 $-1 $304 $73 #
coedge $-1 $220 $136 $305 $306 forward $74 $-1 #
coedge $-1 $136 $219 $303 $307 reversed $74 $-1 #
coedge $-1 $308 $309 $136 $222 forward $310 $-1 #
edge $-1 $311 -4.0157588348476949 $312 3.9732709984396415 $221 $313 forward 7 unknown #
edge $-1 $314 1 $314 0 $137 $-1 forward 7 unknown #
vertex $-1 $138 $315 #
ellipse-curve $-1 47.136175212676221 24.312714825846768 0.93945303157938909 0 0.66913061440640931 0.74314481823134659 1.5 0 0 1 I I #
point $-1 48.636175212676221 27.989237027793664 5.0226445111877167 #
plane-surface $-1 53.48307748649556 0 0 -1 0 0 0 0 1 forward_v I I I I #
coedge $-1 $146 $144 $148 $232 reversed $82 $-1 #
edge $-1 $159 -8.6193219754679795 $234 8.6193219754679795 $158 $316 forward 7 unknown #
vertex $-1 $232 $317 #
straight-curve $-1 -53.48307748649556 -31.983751944437319 0 0 0 -1 I I #
edge $-1 $230 -31.983751944437319 $234 31.983751944437319 $228 $318 forward 7 unknown #
straight-curve $-1 0 -31.983751944437319 -8.6193219754679795 -1 0 0 I I #
vertex $-1 $151 $319 #
straight-curve $-1 0 31.983751944437319 -8.6193219754679795 1 0 0 I I #
point $-1 53.48307748649556 31.983751944437319 -8.6193219754679795 #
point $-1 53.48307748649556 -31.983751944437319 -8.6193219754679795 #
straight-curve $-1 -53.48307748649556 0 8.6193219754679795 0 -1 0 I I #
point $-1 -53.48307748649556 31.983751944437319 8.6193219754679795 #
point $-1 -53.48307748649556 -31.983751944437319 8.6193219754679795 #
straight-curve $-1 53.48307748649556 -31.983751944437319 0 0 0 -1 I I #
straight-curve $-1 53.48307748649556 31.983751944437319 0 0 0 -1 I I #
face $-1 $265 $320 $13 $-1 $321 reversed single #
loop $-1 $-1 $270 $168 #
plane-surface $-1 0 0 8.6193219754679795 0 0 1 1 0 0 forward_v I I I I #
straight-curve $-1 53.48307748649556 -25.093255465550936 2.8171628528719568 0 0 -1 I I #
coedge $-1 $260 $322 $173 $248 forward $261 $-1 #
edge $-1 $253 -17.714500091940256 $249 -10.824003613053872 $247 $323 forward 7 unknown #
vertex $-1 $248 $324 #
straight-curve $-1 0 -25.093255465550936 3.1493294360198476 1 0 0 I I #
coedge $-1 $325 $175 $322 $326 forward $169 $-1 #
coedge $-1 $175 $325 $177 $256 reversed $169 $-1 #
vertex $-1 $326 $327 #
straight-curve $-1 0 -31.983751944437319 3.1493294360198476 -1 0 0 I I #
coedge $-1 $269 $177 $328 $329 reversed $101 $-1 #
edge $-1 $179 -3.1493294360198476 $330 8.6193219754679795 $177 $273 forward 7 unknown #
point $-1 53.48307748649556 -25.093255465550936 3.1493294360198476 #
point $-1 53.48307748649556 -31.983751944437319 3.1493294360198476 #
coedge $-1 $331 $181 $184 $264 reversed $261 $-1 #
coedge $-1 $181 $247 $188 $267 forward $261 $-1 #
loop $-1 $-1 $181 $332 #
straight-curve $-1 -53.48307748649556 -14.269251852497064 8.1193219754679795 0 -1 0 I I #
coedge $-1 $184 $183 $333 $334 reversed $185 $-1 #
edge $-1 $335 -8.6193219754679795 $186 -8.1193219754679795 $259 $336 forward 7 unknown #
face $-1 $332 $185 $13 $-1 $170 reversed single #
point $-1 -53.48307748649556 -31.983751944437319 8.1193219754679795 #
edge $-1 $249 0.33216658314789083 $189 5.3021591225960227 $260 $337 forward 7 unknown #
point $-1 -53.48307748649556 -25.093255465550936 8.1193219754679795 #
coedge $-1 $191 $255 $338 $339 reversed $101 $-1 #
coedge $-1 $340 $333 $191 $271 forward $244 $-1 #
edge $-1 $272 -31.983751944437319 $341 31.983751944437319 $191 $342 forward 7 unknown #
vertex $-1 $271 $343 #
straight-curve $-1 53.48307748649556 -31.983751944437319 0 0 0 -1 I I #
face $-1 $344 $287 $14 $-1 $345 reversed single #
loop $-1 $-1 $346 $195 #
plane-surface $-1 0 -25.093255465550936 5.6343257057439136 0 -1 0 0 0 -1 forward_v I I I I #
coedge $-1 $347 $348 $349 $350 reversed $196 $-1 #
coedge $-1 $351 $198 $352 $353 reversed $119 $-1 #
coedge $-1 $198 $351 $354 $355 reversed $119 $-1 #
coedge $-1 $356 $357 $198 $281 forward $287 $-1 #
edge $-1 $358 -17.714500091940256 $359 -10.824003613053872 $280 $360 forward 7 unknown #
coedge $-1 $361 $199 $286 $362 forward $66 $-1 #
edge $-1 $207 17.221185332518786 $288 29.914989880157442 $199 $363 forward 7 unknown #
coedge $-1 $200 $361 $364 $365 reversed $66 $-1 #
coedge $-1 $357 $202 $204 $291 reversed $287 $-1 #
coedge $-1 $202 $366 $282 $362 reversed $287 $-1 #
loop $-1 $-1 $202 $274 #
vertex $-1 $362 $367 #
straight-curve $-1 53.48307748649556 -0.26200964125788584 30.460181822420893 0 -0.74314481823134659 0.66913061440640931 I I #
coedge $-1 $204 $210 $368 $369 forward $129 $-1 #
edge $-1 $370 -31.983751944437319 $205 23.994722111149983 $285 $371 forward 7 unknown #
point $-1 53.48307748649556 23.994722111149983 8.6193219754679795 #
point $-1 40.789272938856904 31.983751944437316 1.425967046907445 #
coedge $-1 $364 $372 $210 $295 reversed $373 $-1 #
edge $-1 $296 -31.983751944437319 $374 31.983751944437319 $294 $375 forward 7 unknown #
vertex $-1 $211 $376 #
straight-curve $-1 0 31.983751944437319 8.6193219754679795 -1 0 0 I I #
face $-1 $377 $378 $14 $-1 $379 reversed single #
plane-surface $-1 0 0 8.6193219754679795 0 0 1 1 0 0 forward_v I I I I #
face $-1 $380 $381 $15 $-1 $382 forward single #
loop $-1 $-1 $383 $215 #
plane-surface $-1 0 -28.538503704994127 8.1193219754679795 0 0 1 1 0 0 forward_v I I I I #
coedge $-1 $384 $385 $220 $307 forward $216 $-1 #
coedge $-1 $386 $305 $309 $387 reversed $218 $-1 #
coedge $-1 $304 $388 $219 $306 reversed $218 $-1 #
edge $-1 $311 53.217203762580439 $389 63.967503888874646 $219 $390 forward 7 unknown #
edge $-1 $312 53.240641034744044 $389 60.433995963304582 $303 $391 forward 7 unknown #
coedge $-1 $392 $221 $385 $393 forward $310 $-1 #
coedge $-1 $221 $394 $304 $387 forward $310 $-1 #
loop $-1 $-1 $221 $395 #
vertex $-1 $387 $396 #
vertex $-1 $393 $397 #
straight-curve $-1 40.789272938856904 28.010480945997678 8.6193219754679831 0 1 0 I I #
vertex $-1 $223 $398 #
point $-1 48.636175212676221 24.312714825846768 0.93945303157938909 #
straight-curve $-1 -53.48307748649556 31.983751944437319 0 0 0 -1 I I #
point $-1 -53.48307748649556 -31.983751944437319 -8.6193219754679795 #
straight-curve $-1 -53.48307748649556 0 -8.6193219754679795 0 1 0 I I #
point $-1 -53.48307748649556 31.983751944437319 -8.6193219754679795 #
loop $-1 $-1 $328 $243 #
plane-surface $-1 0 0 -8.6193219754679795 0 0 1 1 0 0 forward_v I I I I #
coedge $-1 $247 $399 $251 $326 reversed $261 $-1 #
straight-curve $-1 -53.48307748649556 -14.269251852497064 3.1493294360198476 0 1 0 I I #
point $-1 -53.48307748649556 -25.093255465550936 3.1493294360198476 #
coedge $-1 $252 $251 $400 $401 reversed $169 $-1 #
edge $-1 $253 -3.1493294360198476 $402 8.6193219754679795 $322 $336 forward 7 unknown #
point $-1 -53.48307748649556 -31.983751944437319 3.1493294360198476 #
coedge $-1 $400 $403 $255 $329 forward $320 $-1 #
edge $-1 $404 -31.983751944437319 $330 31.983751944437319 $255 $405 forward 7 unknown #
vertex $-1 $256 $406 #
coedge $-1 $407 $259 $408 $409 reversed $261 $-1 #
face $-1 $410 $261 $13 $-1 $411 reversed single #
coedge $-1 $270 $408 $263 $334 forward $244 $-1 #
edge $-1 $335 -53.48307748649556 $272 53.48307748649556 $263 $412 forward 7 unknown #
vertex $-1 $409 $413 #
straight-curve $-1 -53.48307748649556 -31.983751944437319 0 0 0 -1 I I #
straight-curve $-1 -53.48307748649556 -25.093255465550936 2.8171628528719568 0 0 1 I I #
coedge $-1 $414 $415 $269 $339 forward $416 $-1 #
edge $-1 $341 -8.6193219754679795 $404 8.6193219754679795 $269 $417 forward 7 unknown #
coedge $-1 $408 $270 $415 $418 forward $244 $-1 #
vertex $-1 $271 $419 #
straight-curve $-1 53.48307748649556 0 8.6193219754679795 0 1 0 I I #
point $-1 53.48307748649556 -31.983751944437319 8.6193219754679795 #
face $-1 $212 $420 $14 $-1 $421 reversed single #
plane-surface $-1 53.48307748649556 0 0 -1 0 0 0 0 1 forward_v I I I I #
coedge $-1 $354 $422 $356 $423 reversed $275 $-1 #
coedge $-1 $424 $277 $422 $425 reversed $196 $-1 #
coedge $-1 $277 $424 $426 $427 reversed $196 $-1 #
coedge $-1 $428 $356 $277 $350 forward $287 $-1 #
edge $-1 $429 10.824003613053872 $430 17.714500091940256 $349 $431 forward 7 unknown #
coedge $-1 $279 $278 $432 $433 reversed $119 $-1 #
coedge $-1 $434 $435 $278 $353 forward $436 $-1 #
edge $-1 $437 -53.48307748649556 $358 53.48307748649556 $352 $438 forward 7 unknown #
coedge $-1 $439 $346 $279 $355 forward $275 $-1 #
edge $-1 $359 -53.48307748649556 $440 53.48307748649556 $354 $441 forward 7 unknown #
coedge $-1 $349 $280 $346 $423 forward $287 $-1 #
coedge $-1 $280 $285 $434 $442 forward $287 $-1 #
vertex $-1 $353 $443 #
vertex $-1 $281 $444 #
straight-curve $-1 53.48307748649556 -14.269251852497064 8.1193219754679795 0 1 0 I I #
coedge $-1 $284 $282 $445 $446 reversed $66 $-1 #
edge $-1 $288 -1.4259670469074444 $447 8.6193219754679795 $286 $448 forward 7 unknown #
straight-curve $-1 23.568087606338118 31.983751944437316 1.4259670469074415 1 0 0 I I #
coedge $-1 $449 $294 $284 $365 forward $373 $-1 #
edge $-1 $296 -8.6193219754679795 $450 8.6193219754679795 $284 $451 forward 7 unknown #
coedge $-1 $286 $428 $452 $453 reversed $287 $-1 #
point $-1 53.48307748649556 31.983751944437319 1.4259670469074444 #
coedge $-1 $435 $434 $290 $369 reversed $436 $-1 #
edge $-1 $374 -53.48307748649556 $370 53.48307748649556 $368 $454 forward 7 unknown #
vertex $-1 $291 $455 #
straight-curve $-1 53.48307748649556 0 8.6193219754679795 0 1 0 I I #
coedge $-1 $294 $432 $435 $456 reversed $373 $-1 #
loop $-1 $-1 $432 $457 #
vertex $-1 $295 $458 #
straight-curve $-1 -53.48307748649556 0 8.6193219754679795 0 -1 0 I I #
point $-1 -53.48307748649556 31.983751944437319 8.6193219754679795 #
face $-1 $457 $436 $14 $-1 $421 reversed single #
loop $-1 $-1 $452 $298 #
plane-surface $-1 0 0 -8.6193219754679795 0 0 1 1 0 0 forward_v I I I I #
face $-1 $459 $460 $15 $-1 $461 forward single #
loop $-1 $-1 $462 $300 #
plane-surface $-1 0 -28.538503704994127 3.1493294360198476 0 0 1 1 0 0 forward_v I I I I #
coedge $-1 $463 $464 $465 $466 reversed $301 $-1 #
coedge $-1 $467 $303 $388 $468 forward $216 $-1 #
coedge $-1 $303 $469 $308 $393 reversed $216 $-1 #
coedge $-1 $388 $304 $470 $471 reversed $218 $-1 #
edge $-1 $472 -29.914989880157442 $311 -17.221185332518786 $309 $473 forward 7 unknown #
coedge $-1 $305 $386 $384 $468 reversed $218 $-1 #
vertex $-1 $468 $474 #
straight-curve $-1 40.789272938856904 -15.55336710577339 44.228582226114511 0 0.74314481823134659 -0.66913061440640931 I I #
straight-curve $-1 40.789272938856904 31.983751944437319 61.859963010212027 0 0 -1 I I #
coedge $-1 $475 $308 $476 $477 forward $310 $-1 #
edge $-1 $312 -40.789272938856904 $478 53.48307748649556 $385 $479 forward 7 unknown #
coedge $-1 $309 $475 $480 $481 forward $310 $-1 #
face $-1 $482 $310 $15 $-1 $483 forward single #
point $-1 40.789272938856904 23.994722111149983 8.6193219754679831 #
point $-1 40.789272938856904 31.983751944437319 8.6193219754679795 #
point $-1 47.136175212676221 23.309018904237156 -0.17526419576763075 #
coedge $-1 $322 $407 $484 $485 reversed $261 $-1 #
coedge $-1 $484 $328 $325 $401 forward $320 $-1 #
edge $-1 $330 -53.48307748649556 $402 53.48307748649556 $325 $486 forward 7 unknown #
vertex $-1 $485 $487 #
coedge $-1 $328 $484 $414 $488 forward $320 $-1 #
vertex $-1 $329 $489 #
straight-curve $-1 53.48307748649556 0 -8.6193219754679795 0 -1 0 I I #
point $-1 53.48307748649556 -31.983751944437319 -8.6193219754679795 #
coedge $-1 $399 $331 $490 $491 forward $261 $-1 #
coedge $-1 $333 $340 $331 $409 forward $244 $-1 #
edge $-1 $492 -31.983751944437319 $335 31.983751944437319 $331 $493 forward 7 unknown #
face $-1 $-1 $416 $13 $-1 $494 reversed single #
plane-surface $-1 -53.48307748649556 0 0 1 0 0 0 0 -1 forward_v I I I I #
straight-curve $-1 0 -31.983751944437319 8.6193219754679795 1 0 0 I I #
point $-1 -53.48307748649556 -31.983751944437319 8.6193219754679795 #
coedge $-1 $490 $338 $403 $488 reversed $416 $-1 #
coedge $-1 $338 $490 $340 $418 reversed $416 $-1 #
loop $-1 $-1 $338 $410 #
straight-curve $-1 53.48307748649556 31.983751944437319 0 0 0 -1 I I #
edge $-1 $341 -53.48307748649556 $492 53.48307748649556 $415 $495 forward 7 unknown #
point $-1 53.48307748649556 31.983751944437319 8.6193219754679795 #
loop $-1 $-1 $426 $344 #
plane-surface $-1 0 -31.983751944437319 0 0 1 0 0 0 1 forward_v I I I I #
coedge $-1 $346 $439 $347 $425 forward $275 $-1 #
edge $-1 $359 -5.3021591225960227 $429 -0.33216658314789083 $356 $496 forward 7 unknown #
coedge $-1 $348 $347 $497 $498 reversed $196 $-1 #
edge $-1 $499 -53.48307748649556 $429 53.48307748649556 $422 $500 forward 7 unknown #
coedge $-1 $501 $502 $348 $427 forward $420 $-1 #
edge $-1 $430 -53.48307748649556 $503 53.48307748649556 $426 $504 forward 7 unknown #
coedge $-1 $366 $349 $502 $505 forward $287 $-1 #
vertex $-1 $350 $506 #
vertex $-1 $505 $507 #
straight-curve $-1 53.48307748649556 -14.269251852497064 3.1493294360198476 0 -1 0 I I #
coedge $-1 $372 $508 $351 $433 forward $373 $-1 #
edge $-1 $440 10.824003613053872 $437 17.714500091940256 $432 $509 forward 7 unknown #
coedge $-1 $368 $352 $357 $442 reversed $436 $-1 #
coedge $-1 $352 $368 $372 $456 forward $436 $-1 #
loop $-1 $-1 $352 $377 #
vertex $-1 $433 $510 #
straight-curve $-1 0 -31.983751944437319 8.1193219754679795 1 0 0 I I #
coedge $-1 $422 $354 $508 $511 reversed $275 $-1 #
vertex $-1 $433 $512 #
straight-curve $-1 0 -25.093255465550936 8.1193219754679795 -1 0 0 I I #
edge $-1 $370 -8.6193219754679795 $358 -8.1193219754679795 $357 $513 forward 7 unknown #
point $-1 53.48307748649556 -31.983751944437319 8.1193219754679795 #
point $-1 53.48307748649556 -25.093255465550936 8.1193219754679795 #
coedge $-1 $452 $514 $361 $446 forward $378 $-1 #
edge $-1 $450 -53.48307748649556 $447 53.48307748649556 $361 $515 forward 7 unknown #
vertex $-1 $453 $516 #
straight-curve $-1 53.48307748649556 31.983751944437319 0 0 0 -1 I I #
coedge $-1 $517 $364 $514 $518 reversed $373 $-1 #
vertex $-1 $446 $519 #
straight-curve $-1 -53.48307748649556 31.983751944437319 0 0 0 -1 I I #
coedge $-1 $520 $445 $366 $453 forward $378 $-1 #
edge $-1 $447 -31.983751944437319 $521 31.983751944437319 $366 $522 forward 7 unknown #
straight-curve $-1 0 -31.983751944437319 8.6193219754679795 1 0 0 I I #
point $-1 53.48307748649556 -31.983751944437319 8.6193219754679795 #
edge $-1 $374 -8.6193219754679795 $437 -8.1193219754679795 $372 $523 forward 7 unknown #
face $-1 $-1 $373 $14 $-1 $524 reversed single #
point $-1 -53.48307748649556 -31.983751944437319 8.6193219754679795 #
face $-1 $525 $526 $15 $-1 $527 reversed single #
loop $-1 $-1 $528 $380 #
plane-surface $-1 0 -25.093255465550936 5.6343257057439136 0 -1 0 0 0 -1 forward_v I I I I #
coedge $-1 $529 $530 $531 $532 reversed $381 $-1 #
coedge $-1 $533 $383 $534 $535 reversed $301 $-1 #
coedge $-1 $383 $533 $536 $537 reversed $301 $-1 #
coedge $-1 $538 $539 $383 $466 forward $526 $-1 #
edge $-1 $540 -17.714500091940256 $541 -10.824003613053872 $465 $542 forward 7 unknown #
coedge $-1 $543 $384 $544 $545 forward $216 $-1 #
edge $-1 $389 17.221185332518786 $546 29.914989880157442 $384 $547 forward 7 unknown #
coedge $-1 $385 $543 $548 $549 reversed $216 $-1 #
coedge $-1 $480 $544 $386 $471 forward $526 $-1 #
edge $-1 $546 -43.390952603879761 $472 -32.640652477585562 $470 $550 forward 7 unknown #
vertex $-1 $471 $551 #
straight-curve $-1 23.568087606338118 23.99472211114999 8.619321975467976 -1 0 0 I I #
point $-1 40.789272938856904 31.983751944437316 1.425967046907445 #
coedge $-1 $394 $392 $552 $553 forward $310 $-1 #
coedge $-1 $548 $554 $392 $477 reversed $555 $-1 #
edge $-1 $478 -31.983751944437319 $556 31.983751944437319 $476 $557 forward 7 unknown #
vertex $-1 $393 $558 #
straight-curve $-1 0 31.983751944437319 8.6193219754679795 -1 0 0 I I #
coedge $-1 $539 $470 $394 $481 reversed $526 $-1 #
edge $-1 $559 -31.983751944437319 $472 23.994722111149983 $480 $560 forward 7 unknown #
face $-1 $561 $562 $15 $-1 $563 reversed single #
plane-surface $-1 0 0 8.6193219754679795 0 0 1 1 0 0 forward_v I I I I #
coedge $-1 $403 $400 $399 $485 forward $320 $-1 #
edge $-1 $402 -31.983751944437319 $564 31.983751944437319 $399 $565 forward 7 unknown #
straight-curve $-1 0 -31.983751944437319 -8.6193219754679795 -1 0 0 I I #
point $-1 -53.48307748649556 -31.983751944437319 -8.6193219754679795 #
edge $-1 $564 -53.48307748649556 $404 53.48307748649556 $414 $566 forward 7 unknown #
point $-1 53.48307748649556 31.983751944437319 -8.6193219754679795 #
coedge $-1 $415 $414 $407 $491 reversed $416 $-1 #
edge $-1 $492 -8.6193219754679795 $564 8.6193219754679795 $490 $567 forward 7 unknown #
vertex $-1 $418 $568 #
straight-curve $-1 -53.48307748649556 0 8.6193219754679795 0 -1 0 I I #
plane-surface $-1 0 31.983751944437319 0 0 -1 0 0 0 -1 forward_v I I I I #
straight-curve $-1 0 31.983751944437319 8.6193219754679795 -1 0 0 I I #
straight-curve $-1 53.48307748649556 -25.093255465550936 2.8171628528719568 0 0 -1 I I #
coedge $-1 $508 $517 $424 $498 forward $373 $-1 #
edge $-1 $503 -17.714500091940256 $499 -10.824003613053872 $497 $569 forward 7 unknown #
vertex $-1 $498 $570 #
straight-curve $-1 0 -25.093255465550936 3.1493294360198476 1 0 0 I I #
coedge $-1 $571 $426 $517 $572 forward $420 $-1 #
coedge $-1 $426 $571 $428 $505 reversed $420 $-1 #
vertex $-1 $572 $573 #
straight-curve $-1 0 -31.983751944437319 3.1493294360198476 -1 0 0 I I #
edge $-1 $430 -3.1493294360198476 $521 8.6193219754679795 $428 $513 forward 7 unknown #
point $-1 53.48307748649556 -25.093255465550936 3.1493294360198476 #
point $-1 53.48307748649556 -31.983751944437319 3.1493294360198476 #
coedge $-1 $432 $497 $439 $511 forward $373 $-1 #
straight-curve $-1 -53.48307748649556 -14.269251852497064 8.1193219754679795 0 -1 0 I I #
point $-1 -53.48307748649556 -31.983751944437319 8.1193219754679795 #
edge $-1 $499 0.33216658314789083 $440 5.3021591225960227 $508 $574 forward 7 unknown #
point $-1 -53.48307748649556 -25.093255465550936 8.1193219754679795 #
straight-curve $-1 53.48307748649556 -31.983751944437319 0 0 0 -1 I I #
coedge $-1 $445 $520 $449 $518 forward $378 $-1 #
straight-curve $-1 0 31.983751944437319 -8.6193219754679795 1 0 0 I I #
point $-1 53.48307748649556 31.983751944437319 -8.6193219754679795 #
coedge $-1 $497 $449 $501 $572 reversed $373 $-1 #
edge $-1 $575 -31.983751944437319 $450 31.983751944437319 $449 $576 forward 7 unknown #
point $-1 -53.48307748649556 31.983751944437319 -8.6193219754679795 #
coedge $-1 $514 $452 $571 $577 forward $378 $-1 #
vertex $-1 $505 $578 #
straight-curve $-1 53.48307748649556 0 -8.6193219754679795 0 -1 0 I I #
straight-curve $-1 -53.48307748649556 -31.983751944437319 0 0 0 -1 I I #
plane-surface $-1 -53.48307748649556 0 0 1 0 0 0 0 -1 forward_v I I I I #
face $-1 $395 $579 $15 $-1 $580 reversed single #
loop $-1 $-1 $470 $459 #
plane-surface $-1 53.48307748649556 0 0 -1 0 0 0 0 1 forward_v I I I I #
coedge $-1 $536 $581 $538 $582 reversed $460 $-1 #
coedge $-1 $583 $462 $581 $584 reversed $381 $-1 #
coedge $-1 $462 $583 $585 $586 reversed $381 $-1 #
coedge $-1 $587 $538 $462 $532 forward $526 $-1 #
edge $-1 $588 10.824003613053872 $589 17.714500091940256 $531 $590 forward 7 unknown #
coedge $-1 $464 $463 $591 $592 reversed $301 $-1 #
coedge $-1 $593 $594 $463 $535 forward $595 $-1 #
edge $-1 $596 -53.48307748649556 $540 53.48307748649556 $534 $597 forward 7 unknown #
coedge $-1 $598 $528 $464 $537 forward $460 $-1 #
edge $-1 $541 -53.48307748649556 $599 53.48307748649556 $536 $600 forward 7 unknown #
coedge $-1 $531 $465 $528 $582 forward $526 $-1 #
coedge $-1 $465 $480 $593 $601 forward $526 $-1 #
vertex $-1 $535 $602 #
vertex $-1 $466 $603 #
straight-curve $-1 53.48307748649556 -14.269251852497064 8.1193219754679795 0 1 0 I I #
coedge $-1 $469 $467 $604 $605 reversed $216 $-1 #
coedge $-1 $470 $606 $467 $545 reversed $526 $-1 #
edge $-1 $546 -1.4259670469074444 $607 8.6193219754679795 $544 $608 forward 7 unknown #
vertex $-1 $545 $609 #
straight-curve $-1 23.568087606338118 31.983751944437316 1.4259670469074415 1 0 0 I I #
coedge $-1 $610 $476 $469 $549 forward $555 $-1 #
edge $-1 $478 -8.6193219754679795 $611 8.6193219754679795 $469 $612 forward 7 unknown #
straight-curve $-1 53.48307748649556 -0.26200964125788584 30.460181822420893 0 -0.74314481823134659 0.66913061440640931 I I #
point $-1 53.48307748649556 23.994722111149983 8.6193219754679795 #
coedge $-1 $594 $593 $475 $553 reversed $595 $-1 #
edge $-1 $556 -53.48307748649556 $559 53.48307748649556 $552 $613 forward 7 unknown #
coedge $-1 $476 $591 $594 $614 reversed $555 $-1 #
loop $-1 $-1 $591 $615 #
vertex $-1 $477 $616 #
straight-curve $-1 -53.48307748649556 0 8.6193219754679795 0 -1 0 I I #
point $-1 -53.48307748649556 31.983751944437319 8.6193219754679795 #
vertex $-1 $481 $617 #
straight-curve $-1 53.48307748649556 0 8.6193219754679795 0 1 0 I I #
face $-1 $615 $595 $15 $-1 $580 reversed single #
loop $-1 $-1 $618 $482 #
plane-surface $-1 0 0 -8.6193219754679795 0 0 1 1 0 0 forward_v I I I I #
vertex $-1 $488 $619 #
straight-curve $-1 -53.48307748649556 0 -8.6193219754679795 0 1 0 I I #
straight-curve $-1 0 31.983751944437319 -8.6193219754679795 1 0 0 I I #
straight-curve $-1 -53.48307748649556 31.983751944437319 0 0 0 -1 I I #
point $-1 -53.48307748649556 31.983751944437319 8.6193219754679795 #
straight-curve $-1 -53.48307748649556 -14.269251852497064 3.1493294360198476 0 1 0 I I #
point $-1 -53.48307748649556 -25.093255465550936 3.1493294360198476 #
coedge $-1 $502 $501 $520 $577 reversed $420 $-1 #
edge $-1 $503 -3.1493294360198476 $575 8.6193219754679795 $517 $523 forward 7 unknown #
point $-1 -53.48307748649556 -31.983751944437319 3.1493294360198476 #
straight-curve $-1 -53.48307748649556 -25.093255465550936 2.8171628528719568 0 0 1 I I #
vertex $-1 $518 $620 #
straight-curve $-1 -53.48307748649556 0 -8.6193219754679795 0 1 0 I I #
edge $-1 $521 -53.48307748649556 $575 53.48307748649556 $571 $621 forward 7 unknown #
point $-1 53.48307748649556 -31.983751944437319 -8.6193219754679795 #
loop $-1 $-1 $585 $525 #
plane-surface $-1 0 -31.983751944437319 0 0 1 0 0 0 1 forward_v I I I I #
coedge $-1 $528 $598 $529 $584 forward $460 $-1 #
edge $-1 $541 -5.3021591225960227 $588 -0.33216658314789083 $538 $622 forward 7 unknown #
coedge $-1 $530 $529 $623 $624 reversed $381 $-1 #
edge $-1 $625 -53.48307748649556 $588 53.48307748649556 $581 $626 forward 7 unknown #
coedge $-1 $627 $628 $530 $586 forward $579 $-1 #
edge $-1 $589 -53.48307748649556 $629 53.48307748649556 $585 $630 forward 7 unknown #
coedge $-1 $606 $531 $628 $631 forward $526 $-1 #
vertex $-1 $532 $632 #
vertex $-1 $631 $633 #
straight-curve $-1 53.48307748649556 -14.269251852497064 3.1493294360198476 0 -1 0 I I #
coedge $-1 $554 $634 $533 $592 forward $555 $-1 #
edge $-1 $599 10.824003613053872 $596 17.714500091940256 $591 $635 forward 7 unknown #
coedge $-1 $552 $534 $539 $601 reversed $595 $-1 #
coedge $-1 $534 $552 $554 $614 forward $595 $-1 #
loop $-1 $-1 $534 $561 #
vertex $-1 $592 $636 #
straight-curve $-1 0 -31.983751944437319 8.1193219754679795 1 0 0 I I #
coedge $-1 $581 $536 $634 $637 reversed $460 $-1 #
vertex $-1 $592 $638 #
straight-curve $-1 0 -25.093255465550936 8.1193219754679795 -1 0 0 I I #
edge $-1 $559 -8.6193219754679795 $540 -8.1193219754679795 $539 $639 forward 7 unknown #
point $-1 53.48307748649556 -31.983751944437319 8.1193219754679795 #
point $-1 53.48307748649556 -25.093255465550936 8.1193219754679795 #
coedge $-1 $618 $640 $543 $605 forward $562 $-1 #
edge $-1 $611 -53.48307748649556 $607 53.48307748649556 $543 $641 forward 7 unknown #
coedge $-1 $544 $587 $618 $642 reversed $526 $-1 #
vertex $-1 $642 $643 #
straight-curve $-1 53.48307748649556 31.983751944437319 0 0 0 -1 I I #
point $-1 53.48307748649556 31.983751944437319 1.4259670469074444 #
coedge $-1 $644 $548 $640 $645 reversed $555 $-1 #
vertex $-1 $605 $646 #
straight-curve $-1 -53.48307748649556 31.983751944437319 0 0 0 -1 I I #
straight-curve $-1 0 -31.983751944437319 8.6193219754679795 1 0 0 I I #
edge $-1 $556 -8.6193219754679795 $596 -8.1193219754679795 $554 $647 forward 7 unknown #
face $-1 $-1 $555 $15 $-1 $648 reversed single #
point $-1 -53.48307748649556 -31.983751944437319 8.6193219754679795 #
point $-1 53.48307748649556 -31.983751944437319 8.6193219754679795 #
coedge $-1 $649 $604 $606 $642 forward $562 $-1 #
point $-1 -53.48307748649556 31.983751944437319 -8.6193219754679795 #
point $-1 -53.48307748649556 -31.983751944437319 -8.6193219754679795 #
straight-curve $-1 0 -31.983751944437319 -8.6193219754679795 -1 0 0 I I #
straight-curve $-1 53.48307748649556 -25.093255465550936 2.8171628528719568 0 0 -1 I I #
coedge $-1 $634 $644 $583 $624 forward $555 $-1 #
edge $-1 $629 -17.714500091940256 $625 -10.824003613053872 $623 $650 forward 7 unknown #
vertex $-1 $624 $651 #
straight-curve $-1 0 -25.093255465550936 3.1493294360198476 1 0 0 I I #
coedge $-1 $652 $585 $644 $653 forward $579 $-1 #
coedge $-1 $585 $652 $587 $631 reversed $579 $-1 #
vertex $-1 $653 $654 #
straight-curve $-1 0 -31.983751944437319 3.1493294360198476 -1 0 0 I I #
edge $-1 $589 -3.1493294360198476 $655 8.6193219754679795 $587 $639 forward 7 unknown #
point $-1 53.48307748649556 -25.093255465550936 3.1493294360198476 #
point $-1 53.48307748649556 -31.983751944437319 3.1493294360198476 #
coedge $-1 $591 $623 $598 $637 forward $555 $-1 #
straight-curve $-1 -53.48307748649556 -14.269251852497064 8.1193219754679795 0 -1 0 I I #
point $-1 -53.48307748649556 -31.983751944437319 8.1193219754679795 #
edge $-1 $625 0.33216658314789083 $599 5.3021591225960227 $634 $656 forward 7 unknown #
point $-1 -53.48307748649556 -25.093255465550936 8.1193219754679795 #
straight-curve $-1 53.48307748649556 -31.983751944437319 0 0 0 -1 I I #
coedge $-1 $604 $649 $610 $645 forward $562 $-1 #
straight-curve $-1 0 31.983751944437319 -8.6193219754679795 1 0 0 I I #
edge $-1 $607 -31.983751944437319 $655 31.983751944437319 $606 $657 forward 7 unknown #
point $-1 53.48307748649556 31.983751944437319 -8.6193219754679795 #
coedge $-1 $623 $610 $627 $653 reversed $555 $-1 #
edge $-1 $658 -31.983751944437319 $611 31.983751944437319 $610 $659 forward 7 unknown #
point $-1 -53.48307748649556 31.983751944437319 -8.6193219754679795 #
straight-curve $-1 -53.48307748649556 -31.983751944437319 0 0 0 -1 I I #
plane-surface $-1 -53.48307748649556 0 0 1 0 0 0 0 -1 forward_v I I I I #
coedge $-1 $640 $618 $652 $660 forward $562 $-1 #
straight-curve $-1 -53.48307748649556 -14.269251852497064 3.1493294360198476 0 1 0 I I #
point $-1 -53.48307748649556 -25.093255465550936 3.1493294360198476 #
coedge $-1 $628 $627 $649 $660 reversed $579 $-1 #
edge $-1 $629 -3.1493294360198476 $658 8.6193219754679795 $644 $647 forward 7 unknown #
point $-1 -53.48307748649556 -31.983751944437319 3.1493294360198476 #
vertex $-1 $631 $661 #
straight-curve $-1 -53.48307748649556 -25.093255465550936 2.8171628528719568 0 0 1 I I #
straight-curve $-1 53.48307748649556 0 -8.6193219754679795 0 -1 0 I I #
vertex $-1 $645 $662 #
straight-curve $-1 -53.48307748649556 0 -8.6193219754679795 0 1 0 I I #
edge $-1 $655 -53.48307748649556 $658 53.48307748649556 $652 $663 forward 7 unknown #
point $-1 53.48307748649556 -31.983751944437319 -8.6193219754679795 #
point $-1 -53.48307748649556 -31.983751944437319 -8.6193219754679795 #
straight-curve $-1 0 -31.983751944437319 -8.6193219754679795 -1 0 0 I I #
End-of-ACIS-data 