500 0 8 0           
7 Unknown 11 ACIS 5.0 NT 24 Thu Mar 25 23:02:13 1999 
-1 9.9999999999999995e-007 1e-010 
body $-1 $8 $-1 $9 #
body $-1 $10 $-1 $11 #
body $-1 $12 $-1 $13 #
body $-1 $14 $-1 $15 #
body $-1 $16 $-1 $17 #
body $-1 $18 $-1 $19 #
body $-1 $20 $-1 $21 #
body $-1 $22 $-1 $23 #
lump $-1 $-1 $24 $0 #
transform $-1 1 0 0 0 1 0 0 0 1 52.423474837488939 25.600100881058015 5.8702804037600522 1 rotate no_reflect no_shear #
lump $-1 $-1 $25 $1 #
transform $-1 1 0 0 0 1 0 0 0 1 52.423474837488939 25.600100881058015 5.8702804037600522 1 rotate no_reflect no_shear #
lump $-1 $-1 $26 $2 #
transform $-1 1 0 0 0 1 0 0 0 1 52.423474837488939 25.600100881058015 5.8702804037600522 1 rotate no_reflect no_shear #
lump $-1 $-1 $27 $3 #
transform $-1 1 0 0 0 1 0 0 0 1 52.423474837488939 25.600100881058015 5.8702804037600522 1 rotate no_reflect no_shear #
lump $-1 $-1 $28 $4 #
transform $-1 1 0 0 0 1 0 0 0 1 52.423474837488939 25.600100881058015 5.8702804037600522 1 rotate no_reflect no_shear #
lump $-1 $-1 $29 $5 #
transform $-1 1 0 0 0 1 0 0 0 1 52.423474837488939 25.600100881058015 5.8702804037600522 1 rotate no_reflect no_shear #
lump $-1 $-1 $30 $6 #
transform $-1 1 0 0 0 1 0 0 0 1 52.423474837488939 25.600100881058015 5.8702804037600522 1 rotate no_reflect no_shear #
lump $-1 $-1 $31 $7 #
transform $-1 1 0 0 0 1 0 0 0 1 52.423474837488939 25.600100881058015 5.8702804037600522 1 rotate no_reflect no_shear #
shell $-1 $-1 $-1 $32 $-1 $8 #
shell $-1 $-1 $-1 $33 $-1 $10 #
shell $-1 $-1 $-1 $34 $-1 $12 #
shell $-1 $-1 $-1 $35 $-1 $14 #
shell $-1 $-1 $-1 $36 $-1 $16 #
shell $-1 $-1 $-1 $37 $-1 $18 #
shell $-1 $-1 $-1 $38 $-1 $20 #
shell $-1 $-1 $-1 $39 $-1 $22 #
face $-1 $40 $41 $24 $-1 $42 forward single #
face $-1 $43 $44 $25 $-1 $45 forward single #
face $-1 $46 $47 $26 $-1 $48 reversed single #
face $-1 $49 $50 $27 $-1 $51 forward single #
face $-1 $52 $53 $28 $-1 $54 forward single #
face $-1 $55 $56 $29 $-1 $57 reversed single #
face $-1 $58 $59 $30 $-1 $60 forward single #
face $-1 $61 $62 $31 $-1 $63 forward single #
face $-1 $64 $65 $24 $-1 $66 reversed single #
loop $-1 $-1 $67 $32 #
plane-surface $-1 0 0 5.8702804037600522 0 0 1 1 0 0 forward_v I I I I #
face $-1 $68 $69 $25 $-1 $70 reversed single #
loop $-1 $-1 $71 $33 #
plane-surface $-1 0 -22.846517109939992 -2.8702804037600522 0 0 1 1 0 0 forward_v I I I I #
face $-1 $72 $73 $26 $-1 $74 reversed single #
loop $-1 $-1 $75 $34 #
plane-surface $-1 78.171330315102622 2.7535837711180253 147.82239316314428 0 -1 0 -0.81915205242281985 0 -0.57357642473473569 forward_v I I I I #
face $-1 $76 $77 $27 $-1 $78 forward single #
loop $-1 $79 $80 $35 #
cone-surface $-1 49.746060560172964 -2.3261045140290193 2.9579652334604987 -0.81915205242281985 0 -0.57357642473473569 0.57357642473473569 0 -0.81915205242281985 1 I I 0 1 1 forward I I I I #
face $-1 $81 $82 $28 $-1 $83 forward single #
loop $-1 $84 $85 $36 #
cone-surface $-1 49.746060560172964 0.72170845705920783 2.9579652334604987 -0.81915205242281985 0 -0.57357642473473569 0.57357642473473569 0 -0.81915205242281985 1 I I 0 1 1 forward I I I I #
face $-1 $86 $87 $29 $-1 $88 reversed single #
loop $-1 $-1 $89 $37 #
plane-surface $-1 78.171330315102622 9.865147370323891 147.82239316314428 0 -1 0 -0.81915205242281985 0 -0.57357642473473569 forward_v I I I I #
face $-1 $90 $91 $30 $-1 $92 forward single #
loop $-1 $93 $94 $38 #
cone-surface $-1 49.746060560172964 4.7854590851768464 2.9579652334604987 -0.81915205242281985 0 -0.57357642473473569 0.57357642473473569 0 -0.81915205242281985 1 I I 0 1 1 forward I I I I #
face $-1 $95 $96 $31 $-1 $97 forward single #
loop $-1 $98 $99 $39 #
cone-surface $-1 49.746060560172964 7.8332720562650699 2.9579652334604987 -0.81915205242281985 0 -0.57357642473473569 0.57357642473473569 0 -0.81915205242281985 1 I I 0 1 1 forward I I I I #
face $-1 $100 $101 $24 $-1 $102 reversed single #
loop $-1 $-1 $103 $40 #
plane-surface $-1 0 0 -5.8702804037600522 0 0 1 1 0 0 forward_v I I I I #
coedge $-1 $104 $105 $106 $107 forward $41 $-1 #
face $-1 $108 $109 $25 $-1 $110 reversed single #
loop $-1 $-1 $111 $43 #
plane-surface $-1 0 -20.092933338821968 -4.3702804037600522 0 -1 0 0 0 -1 forward_v I I I I #
coedge $-1 $112 $113 $114 $115 reversed $44 $-1 #
face $-1 $116 $117 $26 $-1 $118 reversed single #
loop $-1 $-1 $119 $46 #
plane-surface $-1 -7.7142637014276119 -0.80219802848490573 87.684654624227704 0.81915205242281985 0 0.57357642473473569 0.57357642473473569 0 -0.81915205242281985 forward_v I I I I #
coedge $-1 $120 $121 $122 $123 reversed $47 $-1 #
face $-1 $-1 $124 $27 $-1 $125 forward single #
loop $-1 $126 $127 $49 #
cone-surface $-1 48.084419609081507 -2.3261045140290193 1.7944717488248578 -0.81915205242281985 0 -0.57357642473473569 0.28678821236736785 0 -0.40957602621140993 1 I I -0.70710678118654746 0.70710678118654746 0.5 forward I I I I #
loop $-1 $-1 $128 $35 #
coedge $-1 $80 $80 $129 $130 reversed $50 $-1 #
face $-1 $-1 $131 $28 $-1 $132 forward single #
loop $-1 $133 $134 $52 #
cone-surface $-1 48.084419609081507 0.72170845705920783 1.7944717488248578 -0.81915205242281985 0 -0.57357642473473569 0.28678821236736785 0 -0.40957602621140993 1 I I -0.70710678118654746 0.70710678118654746 0.5 forward I I I I #
loop $-1 $-1 $135 $36 #
coedge $-1 $85 $85 $136 $137 reversed $53 $-1 #
face $-1 $138 $139 $29 $-1 $140 forward single #
loop $-1 $-1 $141 $55 #
plane-surface $-1 -7.7142637014276119 -0.80219802848490573 87.684654624227704 0.81915205242281985 0 0.57357642473473569 0.57357642473473569 0 -0.81915205242281985 forward_v I I I I #
coedge $-1 $142 $143 $144 $145 reversed $56 $-1 #
face $-1 $-1 $146 $30 $-1 $147 forward single #
loop $-1 $148 $149 $58 #
cone-surface $-1 48.084419609081507 4.7854590851768464 1.7944717488248578 -0.81915205242281985 0 -0.57357642473473569 0.28678821236736785 0 -0.40957602621140993 1 I I -0.70710678118654746 0.70710678118654746 0.5 forward I I I I #
loop $-1 $-1 $150 $38 #
coedge $-1 $94 $94 $151 $152 reversed $59 $-1 #
face $-1 $-1 $153 $31 $-1 $154 forward single #
loop $-1 $155 $156 $61 #
cone-surface $-1 48.084419609081507 7.8332720562650699 1.7944717488248578 -0.81915205242281985 0 -0.57357642473473569 0.28678821236736785 0 -0.40957602621140993 1 I I -0.70710678118654746 0.70710678118654746 0.5 forward I I I I #
loop $-1 $-1 $157 $39 #
coedge $-1 $99 $99 $158 $159 reversed $62 $-1 #
face $-1 $160 $161 $24 $-1 $162 reversed single #
loop $-1 $-1 $163 $64 #
plane-surface $-1 0 -25.600100881058015 0 0 1 0 0 0 1 forward_v I I I I #
coedge $-1 $164 $165 $166 $167 forward $65 $-1 #
coedge $-1 $168 $67 $169 $170 forward $41 $-1 #
coedge $-1 $67 $168 $171 $172 forward $41 $-1 #
coedge $-1 $173 $174 $67 $107 reversed $175 $-1 #
edge $-1 $176 -25.600100881058015 $177 25.600100881058015 $106 $178 forward 7 unknown #
face $-1 $179 $180 $25 $-1 $181 reversed single #
loop $-1 $-1 $182 $68 #
plane-surface $-1 0 0 -5.8702804037600522 0 0 1 1 0 0 forward_v I I I I #
coedge $-1 $183 $184 $185 $186 reversed $69 $-1 #
coedge $-1 $187 $71 $184 $188 forward $44 $-1 #
coedge $-1 $71 $187 $189 $190 reversed $44 $-1 #
coedge $-1 $191 $185 $71 $115 forward $180 $-1 #
edge $-1 $192 8.6696747838519723 $193 14.176842326088019 $114 $194 forward 7 unknown #
face $-1 $195 $196 $26 $-1 $197 reversed single #
loop $-1 $-1 $198 $72 #
plane-surface $-1 78.171330315102622 -4.3579798280878368 147.82239316314428 0 1 0 0.81915205242281985 0 0.57357642473473569 forward_v I I I I #
coedge $-1 $199 $200 $201 $202 reversed $73 $-1 #
coedge $-1 $121 $75 $203 $204 reversed $47 $-1 #
coedge $-1 $75 $120 $199 $205 reversed $47 $-1 #
coedge $-1 $201 $206 $75 $123 forward $207 $-1 #
edge $-1 $208 -13.337809679937628 $209 -10.487110975065789 $122 $210 forward 7 unknown #
loop $-1 $-1 $129 $76 #
plane-surface $-1 -7.7142637014276119 -0.80219802848490573 87.684654624227704 0.81915205242281985 0 0.57357642473473569 0.57357642473473569 0 -0.81915205242281985 forward_v I I I I #
loop $-1 $-1 $211 $49 #
coedge $-1 $127 $127 $128 $212 reversed $77 $-1 #
coedge $-1 $128 $128 $127 $212 forward $79 $-1 #
coedge $-1 $129 $129 $80 $130 forward $124 $-1 #
edge $-1 $213 0 $213 6.2831853071796004 $129 $214 forward 7 unknown #
loop $-1 $-1 $136 $81 #
plane-surface $-1 -7.7142637014276119 -0.80219802848490573 87.684654624227704 0.81915205242281985 0 0.57357642473473569 0.57357642473473569 0 -0.81915205242281985 forward_v I I I I #
loop $-1 $-1 $215 $52 #
coedge $-1 $134 $134 $135 $216 reversed $82 $-1 #
coedge $-1 $135 $135 $134 $216 forward $84 $-1 #
coedge $-1 $136 $136 $85 $137 forward $131 $-1 #
edge $-1 $217 0 $217 6.2831853071796004 $136 $218 forward 7 unknown #
face $-1 $219 $220 $29 $-1 $221 forward single #
loop $-1 $-1 $222 $86 #
plane-surface $-1 0 0 5.8702804037600522 0 0 1 1 0 0 forward_v I I I I #
coedge $-1 $223 $224 $225 $226 reversed $87 $-1 #
coedge $-1 $143 $89 $227 $228 reversed $56 $-1 #
coedge $-1 $89 $142 $222 $229 reversed $56 $-1 #
coedge $-1 $230 $231 $89 $145 forward $232 $-1 #
edge $-1 $233 -72.112135973874643 $234 -68.040916177812093 $144 $235 forward 7 unknown #
loop $-1 $-1 $151 $90 #
plane-surface $-1 -7.7142637014276119 -0.80219802848490573 87.684654624227704 0.81915205242281985 0 0.57357642473473569 0.57357642473473569 0 -0.81915205242281985 forward_v I I I I #
loop $-1 $-1 $236 $58 #
coedge $-1 $149 $149 $150 $237 reversed $91 $-1 #
coedge $-1 $150 $150 $149 $237 forward $93 $-1 #
coedge $-1 $151 $151 $94 $152 forward $146 $-1 #
edge $-1 $238 0 $238 6.2831853071796004 $151 $239 forward 7 unknown #
loop $-1 $-1 $158 $95 #
plane-surface $-1 -7.7142637014276119 -0.80219802848490573 87.684654624227704 0.81915205242281985 0 0.57357642473473569 0.57357642473473569 0 -0.81915205242281985 forward_v I I I I #
loop $-1 $-1 $240 $61 #
coedge $-1 $156 $156 $157 $241 reversed $96 $-1 #
coedge $-1 $157 $157 $156 $241 forward $98 $-1 #
coedge $-1 $158 $158 $99 $159 forward $153 $-1 #
edge $-1 $242 0 $242 6.2831853071796004 $158 $243 forward 7 unknown #
face $-1 $244 $245 $24 $-1 $246 reversed single #
loop $-1 $-1 $247 $100 #
plane-surface $-1 -52.423474837488939 0 0 1 0 0 0 0 -1 forward_v I I I I #
coedge $-1 $248 $171 $249 $250 forward $101 $-1 #
coedge $-1 $251 $103 $248 $252 forward $65 $-1 #
coedge $-1 $103 $251 $253 $254 forward $65 $-1 #
coedge $-1 $174 $173 $103 $167 reversed $175 $-1 #
edge $-1 $255 -25.600100881058015 $256 25.600100881058015 $166 $257 forward 7 unknown #
coedge $-1 $105 $104 $258 $259 forward $41 $-1 #
coedge $-1 $260 $261 $104 $170 reversed $245 $-1 #
edge $-1 $177 -52.423474837488939 $262 52.423474837488939 $169 $263 forward 7 unknown #
coedge $-1 $163 $264 $105 $172 reversed $101 $-1 #
edge $-1 $265 -52.423474837488939 $176 52.423474837488939 $171 $266 forward 7 unknown #
coedge $-1 $166 $106 $264 $267 forward $175 $-1 #
coedge $-1 $106 $166 $260 $268 reversed $175 $-1 #
loop $-1 $-1 $173 $244 #
vertex $-1 $107 $269 #
vertex $-1 $107 $270 #
straight-curve $-1 52.423474837488939 0 5.8702804037600522 0 1 0 I I #
face $-1 $271 $272 $25 $-1 $273 reversed single #
loop $-1 $-1 $185 $108 #
plane-surface $-1 52.423474837488939 0 0 -1 0 0 0 0 1 forward_v I I I I #
coedge $-1 $274 $275 $183 $276 forward $109 $-1 #
coedge $-1 $277 $111 $182 $276 reversed $69 $-1 #
coedge $-1 $111 $277 $112 $188 reversed $69 $-1 #
coedge $-1 $114 $278 $111 $186 forward $180 $-1 #
edge $-1 $279 -3.6851402018800261 $192 -0.68514020188002611 $185 $280 forward 7 unknown #
coedge $-1 $113 $112 $281 $282 reversed $44 $-1 #
edge $-1 $192 -52.423474837488939 $283 52.423474837488939 $184 $284 forward 7 unknown #
coedge $-1 $285 $286 $113 $190 forward $272 $-1 #
edge $-1 $193 -52.423474837488939 $287 52.423474837488939 $189 $288 forward 7 unknown #
coedge $-1 $278 $114 $286 $289 forward $180 $-1 #
vertex $-1 $115 $290 #
vertex $-1 $289 $291 #
straight-curve $-1 52.423474837488939 -11.423258554969996 -2.8702804037600522 0 -1 0 I I #
face $-1 $-1 $207 $26 $-1 $292 forward single #
loop $-1 $-1 $293 $116 #
plane-surface $-1 52.423474837488939 0 0 -1 0 0 0 0 1 forward_v I I I I #
coedge $-1 $294 $295 $296 $297 reversed $117 $-1 #
coedge $-1 $298 $119 $121 $205 forward $73 $-1 #
coedge $-1 $119 $298 $294 $299 forward $73 $-1 #
coedge $-1 $296 $122 $119 $202 forward $207 $-1 #
edge $-1 $209 -3.1546827853604782 $300 3.9568808138453839 $201 $301 forward 7 unknown #
coedge $-1 $302 $303 $120 $204 forward $196 $-1 #
edge $-1 $304 -72.112135973874643 $208 -68.040916177812093 $203 $305 forward 7 unknown #
edge $-1 $209 99.876908052032462 $304 104.84694967497785 $121 $306 forward 7 unknown #
coedge $-1 $122 $296 $302 $307 forward $207 $-1 #
loop $-1 $-1 $296 $195 #
vertex $-1 $204 $308 #
vertex $-1 $123 $309 #
straight-curve $-1 39.085665157551311 2.7535837711180253 5.8702804037600487 -1 0 0 I I #
coedge $-1 $211 $211 $-1 $310 reversed $126 $-1 #
edge $-1 $311 0 $311 6.2831853071796004 $127 $312 forward 7 unknown #
vertex $-1 $130 $313 #
ellipse-curve $-1 50.998125485053023 -2.3261045140290193 3.8346705057287793 0.81915205242281985 0 0.57357642473473569 0.57357642473473569 0 -0.81915205242281985 1 I I #
coedge $-1 $215 $215 $-1 $314 reversed $133 $-1 #
edge $-1 $315 0 $315 6.2831853071796004 $134 $316 forward 7 unknown #
vertex $-1 $137 $317 #
ellipse-curve $-1 50.998125485053023 0.72170845705920783 3.8346705057287793 0.81915205242281985 0 0.57357642473473569 0.57357642473473569 0 -0.81915205242281985 1 I I #
face $-1 $-1 $232 $29 $-1 $318 reversed single #
loop $-1 $-1 $319 $138 #
plane-surface $-1 78.171330315102622 2.7535837711180253 147.82239316314428 0 -1 0 -0.81915205242281985 0 -0.57357642473473569 forward_v I I I I #
coedge $-1 $320 $321 $143 $229 forward $139 $-1 #
coedge $-1 $227 $141 $320 $322 reversed $87 $-1 #
coedge $-1 $141 $227 $231 $323 reversed $87 $-1 #
coedge $-1 $324 $319 $141 $226 forward $220 $-1 #
edge $-1 $325 99.876908052032462 $326 104.84694967497785 $225 $327 forward 7 unknown #
coedge $-1 $224 $223 $142 $228 forward $87 $-1 #
edge $-1 $328 99.876908052032462 $233 104.84694967497785 $142 $329 forward 7 unknown #
edge $-1 $234 -13.337809679937628 $328 -10.487110975065789 $222 $330 forward 7 unknown #
coedge $-1 $331 $144 $321 $332 reversed $232 $-1 #
coedge $-1 $144 $331 $224 $323 forward $232 $-1 #
loop $-1 $-1 $144 $219 #
vertex $-1 $145 $333 #
vertex $-1 $145 $334 #
straight-curve $-1 52.423474837488939 9.865147370323891 73.911196581572142 0 0 1 I I #
coedge $-1 $236 $236 $-1 $335 reversed $148 $-1 #
edge $-1 $336 0 $336 6.2831853071796004 $149 $337 forward 7 unknown #
vertex $-1 $152 $338 #
ellipse-curve $-1 50.998125485053023 4.7854590851768464 3.8346705057287793 0.81915205242281985 0 0.57357642473473569 0.57357642473473569 0 -0.81915205242281985 1 I I #
coedge $-1 $240 $240 $-1 $339 reversed $155 $-1 #
edge $-1 $340 0 $340 6.2831853071796004 $156 $341 forward 7 unknown #
vertex $-1 $159 $342 #
ellipse-curve $-1 50.998125485053023 7.8332720562650699 3.8346705057287793 0.81915205242281985 0 0.57357642473473569 0.57357642473473569 0 -0.81915205242281985 1 I I #
face $-1 $-1 $175 $24 $-1 $343 reversed single #
loop $-1 $-1 $260 $160 #
plane-surface $-1 0 25.600100881058015 0 0 -1 0 0 0 -1 forward_v I I I I #
coedge $-1 $344 $258 $261 $345 forward $161 $-1 #
coedge $-1 $264 $163 $164 $252 reversed $101 $-1 #
coedge $-1 $258 $344 $163 $250 reversed $161 $-1 #
edge $-1 $265 -5.8702804037600522 $346 5.8702804037600522 $249 $347 forward 7 unknown #
coedge $-1 $165 $164 $344 $348 forward $65 $-1 #
edge $-1 $256 -52.423474837488939 $346 52.423474837488939 $248 $349 forward 7 unknown #
coedge $-1 $261 $260 $165 $254 reversed $245 $-1 #
edge $-1 $350 -52.423474837488939 $255 52.423474837488939 $253 $351 forward 7 unknown #
vertex $-1 $167 $352 #
vertex $-1 $267 $353 #
straight-curve $-1 52.423474837488939 0 -5.8702804037600522 0 -1 0 I I #
coedge $-1 $247 $249 $168 $259 reversed $161 $-1 #
edge $-1 $262 -25.600100881058015 $265 25.600100881058015 $258 $354 forward 7 unknown #
coedge $-1 $253 $169 $174 $268 forward $245 $-1 #
coedge $-1 $169 $253 $247 $345 reversed $245 $-1 #
vertex $-1 $170 $355 #
straight-curve $-1 0 25.600100881058015 5.8702804037600522 -1 0 0 I I #
coedge $-1 $171 $248 $173 $267 reversed $101 $-1 #
vertex $-1 $259 $356 #
straight-curve $-1 0 -25.600100881058015 5.8702804037600522 1 0 0 I I #
edge $-1 $176 -5.8702804037600522 $256 5.8702804037600522 $173 $357 forward 7 unknown #
edge $-1 $177 -5.8702804037600522 $255 5.8702804037600522 $174 $358 forward 7 unknown #
point $-1 52.423474837488939 -25.600100881058015 5.8702804037600522 #
point $-1 52.423474837488939 25.600100881058015 5.8702804037600522 #
face $-1 $-1 $359 $25 $-1 $360 reversed single #
loop $-1 $-1 $189 $179 #
plane-surface $-1 0 -25.600100881058015 0 0 1 0 0 0 1 forward_v I I I I #
coedge $-1 $361 $182 $278 $362 forward $109 $-1 #
coedge $-1 $182 $361 $363 $364 forward $109 $-1 #
edge $-1 $365 -52.423474837488939 $279 52.423474837488939 $182 $366 forward 7 unknown #
coedge $-1 $184 $183 $367 $368 reversed $69 $-1 #
coedge $-1 $185 $191 $274 $362 reversed $180 $-1 #
vertex $-1 $362 $369 #
straight-curve $-1 52.423474837488939 -20.092933338821968 -2.1851402018800261 0 0 1 I I #
coedge $-1 $367 $370 $187 $282 forward $359 $-1 #
edge $-1 $287 -14.176842326088019 $283 -8.6696747838519723 $281 $371 forward 7 unknown #
vertex $-1 $282 $372 #
straight-curve $-1 0 -20.092933338821968 -2.8702804037600522 -1 0 0 I I #
coedge $-1 $373 $189 $370 $374 forward $272 $-1 #
coedge $-1 $189 $373 $191 $289 reversed $272 $-1 #
vertex $-1 $374 $375 #
straight-curve $-1 0 -25.600100881058015 -2.8702804037600522 -1 0 0 I I #
edge $-1 $193 2.8702804037600522 $376 5.8702804037600522 $191 $377 forward 7 unknown #
point $-1 52.423474837488939 -20.092933338821968 -2.8702804037600522 #
point $-1 52.423474837488939 -25.600100881058015 -2.8702804037600522 #
plane-surface $-1 0 0 5.8702804037600522 0 0 1 1 0 0 forward_v I I I I #
coedge $-1 $303 $302 $295 $378 forward $196 $-1 #
coedge $-1 $295 $198 $200 $299 reversed $117 $-1 #
coedge $-1 $198 $294 $293 $378 reversed $117 $-1 #
coedge $-1 $206 $201 $198 $297 forward $207 $-1 #
edge $-1 $300 10.487110975065789 $379 13.337809679937628 $296 $380 forward 7 unknown #
coedge $-1 $200 $199 $303 $381 reversed $73 $-1 #
edge $-1 $382 -104.84694967497785 $300 -99.876908052032462 $294 $383 forward 7 unknown #
vertex $-1 $202 $384 #
straight-curve $-1 49.572776132617108 -0.40109901424245287 5.8702804037600558 0 -1 0 I I #
coedge $-1 $293 $203 $206 $307 reversed $196 $-1 #
coedge $-1 $203 $293 $298 $381 forward $196 $-1 #
vertex $-1 $204 $385 #
straight-curve $-1 52.423474837488939 2.7535837711180253 73.911196581572142 0 0 1 I I #
straight-curve $-1 -7.7142637014276119 2.7535837711180253 87.684654624227704 0.57357642473473569 0 -0.81915205242281985 I I #
edge $-1 $379 -4.3579798280878368 $208 2.7535837711180253 $302 $386 forward 7 unknown #
point $-1 52.423474837488939 2.7535837711180253 5.8702804037600522 #
point $-1 49.572776132617101 2.7535837711180253 5.8702804037600487 #
edge $-1 $387 1 $387 0 $211 $-1 forward 7 unknown #
vertex $-1 $212 $388 #
ellipse-curve $-1 48.493995635292919 -2.3261045140290193 2.0812599611922256 0.81915205242281985 0 0.57357642473473569 0.57357642473473569 0 -0.81915205242281985 1 I I #
point $-1 51.571701909787748 -2.3261045140290193 3.015518453305952 #
edge $-1 $389 1 $389 0 $215 $-1 forward 7 unknown #
vertex $-1 $216 $390 #
ellipse-curve $-1 48.493995635292919 0.72170845705920783 2.0812599611922256 0.81915205242281985 0 0.57357642473473569 0.57357642473473569 0 -0.81915205242281985 1 I I #
point $-1 51.571701909787748 0.72170845705920783 3.015518453305952 #
plane-surface $-1 52.423474837488939 0 0 -1 0 0 0 0 1 forward_v I I I I #
coedge $-1 $225 $324 $391 $392 reversed $220 $-1 #
coedge $-1 $391 $222 $223 $322 forward $139 $-1 #
coedge $-1 $222 $391 $230 $332 forward $139 $-1 #
edge $-1 $328 -10.266246384566344 $325 -3.1546827853604782 $320 $393 forward 7 unknown #
edge $-1 $326 3.1546827853604782 $233 10.266246384566344 $231 $394 forward 7 unknown #
coedge $-1 $319 $225 $331 $395 reversed $220 $-1 #
vertex $-1 $322 $396 #
vertex $-1 $323 $397 #
straight-curve $-1 -7.7142637014276119 2.7535837711180253 87.684654624227704 0.57357642473473569 0 -0.81915205242281985 I I #
vertex $-1 $229 $398 #
straight-curve $-1 -7.7142637014276119 9.865147370323891 87.684654624227704 0.57357642473473569 0 -0.81915205242281985 I I #
straight-curve $-1 39.085665157551311 9.865147370323891 5.8702804037600487 -1 0 0 I I #
coedge $-1 $231 $230 $324 $395 forward $232 $-1 #
edge $-1 $399 2.7535837711180253 $234 9.865147370323891 $230 $400 forward 7 unknown #
point $-1 52.423474837488939 9.865147370323891 1.7990606076974984 #
point $-1 52.423474837488939 9.865147370323891 5.8702804037600522 #
edge $-1 $401 1 $401 0 $236 $-1 forward 7 unknown #
vertex $-1 $237 $402 #
ellipse-curve $-1 48.493995635292919 4.7854590851768464 2.0812599611922256 0.81915205242281985 0 0.57357642473473569 0.57357642473473569 0 -0.81915205242281985 1 I I #
point $-1 51.571701909787748 4.7854590851768464 3.015518453305952 #
edge $-1 $403 1 $403 0 $240 $-1 forward 7 unknown #
vertex $-1 $241 $404 #
ellipse-curve $-1 48.493995635292919 7.8332720562650699 2.0812599611922256 0.81915205242281985 0 0.57357642473473569 0.57357642473473569 0 -0.81915205242281985 1 I I #
point $-1 51.571701909787748 7.8332720562650699 3.015518453305952 #
plane-surface $-1 52.423474837488939 0 0 -1 0 0 0 0 1 forward_v I I I I #
coedge $-1 $249 $247 $251 $348 reversed $161 $-1 #
edge $-1 $262 -5.8702804037600522 $350 5.8702804037600522 $261 $405 forward 7 unknown #
vertex $-1 $348 $406 #
straight-curve $-1 -52.423474837488939 -25.600100881058015 0 0 0 -1 I I #
edge $-1 $346 -25.600100881058015 $350 25.600100881058015 $344 $407 forward 7 unknown #
straight-curve $-1 0 -25.600100881058015 -5.8702804037600522 -1 0 0 I I #
vertex $-1 $254 $408 #
straight-curve $-1 0 25.600100881058015 -5.8702804037600522 1 0 0 I I #
point $-1 52.423474837488939 25.600100881058015 -5.8702804037600522 #
point $-1 52.423474837488939 -25.600100881058015 -5.8702804037600522 #
straight-curve $-1 -52.423474837488939 0 5.8702804037600522 0 -1 0 I I #
point $-1 -52.423474837488939 25.600100881058015 5.8702804037600522 #
point $-1 -52.423474837488939 -25.600100881058015 5.8702804037600522 #
straight-curve $-1 52.423474837488939 -25.600100881058015 0 0 0 -1 I I #
straight-curve $-1 52.423474837488939 25.600100881058015 0 0 0 -1 I I #
loop $-1 $-1 $367 $271 #
plane-surface $-1 -52.423474837488939 0 0 1 0 0 0 0 -1 forward_v I I I I #
coedge $-1 $275 $274 $373 $409 forward $109 $-1 #
edge $-1 $279 20.092933338821968 $376 25.600100881058015 $278 $410 forward 7 unknown #
coedge $-1 $370 $367 $275 $364 reversed $359 $-1 #
edge $-1 $411 -25.600100881058015 $365 -20.092933338821968 $363 $412 forward 7 unknown #
vertex $-1 $368 $413 #
straight-curve $-1 0 -20.092933338821968 -5.8702804037600522 1 0 0 I I #
coedge $-1 $363 $281 $277 $368 forward $359 $-1 #
edge $-1 $283 0.68514020188002611 $365 3.6851402018800261 $367 $414 forward 7 unknown #
point $-1 52.423474837488939 -20.092933338821968 -5.8702804037600522 #
coedge $-1 $281 $363 $285 $374 reversed $359 $-1 #
straight-curve $-1 -52.423474837488939 -11.423258554969996 -2.8702804037600522 0 1 0 I I #
point $-1 -52.423474837488939 -20.092933338821968 -2.8702804037600522 #
coedge $-1 $286 $285 $361 $409 reversed $272 $-1 #
edge $-1 $287 2.8702804037600522 $411 5.8702804037600522 $370 $415 forward 7 unknown #
point $-1 -52.423474837488939 -25.600100881058015 -2.8702804037600522 #
vertex $-1 $289 $416 #
straight-curve $-1 52.423474837488939 -25.600100881058015 0 0 0 -1 I I #
edge $-1 $379 68.040916177812093 $382 72.112135973874643 $293 $417 forward 7 unknown #
vertex $-1 $307 $418 #
straight-curve $-1 39.085665157551311 -4.3579798280878368 5.8702804037600487 1 0 0 I I #
edge $-1 $382 -3.9568808138453839 $304 3.1546827853604782 $303 $419 forward 7 unknown #
vertex $-1 $381 $420 #
straight-curve $-1 -7.7142637014276119 -4.3579798280878368 87.684654624227704 -0.57357642473473569 0 0.81915205242281985 I I #
point $-1 49.572776132617101 -4.3579798280878368 5.8702804037600487 #
point $-1 52.423474837488939 2.7535837711180253 1.7990606076974984 #
straight-curve $-1 52.423474837488939 0 5.8702804037600522 0 1 0 I I #
vertex $-1 $310 $421 #
point $-1 49.067572060027651 -2.3261045140290193 1.2621079087694058 #
vertex $-1 $314 $422 #
point $-1 49.067572060027651 0.72170845705920783 1.2621079087694058 #
coedge $-1 $321 $320 $319 $392 forward $139 $-1 #
edge $-1 $325 10.487110975065789 $399 13.337809679937628 $391 $423 forward 7 unknown #
straight-curve $-1 49.572776132617108 -0.40109901424245287 5.8702804037600558 0 -1 0 I I #
straight-curve $-1 52.423474837488939 -0.40109901424245287 1.7990606076974913 0 1 0 I I #
edge $-1 $399 68.040916177812093 $326 72.112135973874643 $331 $424 forward 7 unknown #
point $-1 49.572776132617101 2.7535837711180253 5.8702804037600487 #
point $-1 52.423474837488939 2.7535837711180253 1.7990606076974984 #
point $-1 49.572776132617101 9.865147370323891 5.8702804037600487 #
vertex $-1 $332 $425 #
straight-curve $-1 52.423474837488939 0 5.8702804037600522 0 1 0 I I #
vertex $-1 $335 $426 #
point $-1 49.067572060027651 4.7854590851768464 1.2621079087694058 #
vertex $-1 $339 $427 #
point $-1 49.067572060027651 7.8332720562650699 1.2621079087694058 #
straight-curve $-1 -52.423474837488939 25.600100881058015 0 0 0 -1 I I #
point $-1 -52.423474837488939 -25.600100881058015 -5.8702804037600522 #
straight-curve $-1 -52.423474837488939 0 -5.8702804037600522 0 1 0 I I #
point $-1 -52.423474837488939 25.600100881058015 -5.8702804037600522 #
edge $-1 $376 -52.423474837488939 $411 52.423474837488939 $373 $428 forward 7 unknown #
straight-curve $-1 52.423474837488939 0 -5.8702804037600522 0 -1 0 I I #
vertex $-1 $364 $429 #
straight-curve $-1 -52.423474837488939 0 -5.8702804037600522 0 1 0 I I #
point $-1 -52.423474837488939 -20.092933338821968 -5.8702804037600522 #
straight-curve $-1 -52.423474837488939 -20.092933338821968 -2.1851402018800261 0 0 -1 I I #
straight-curve $-1 -52.423474837488939 -25.600100881058015 0 0 0 -1 I I #
point $-1 52.423474837488939 -25.600100881058015 -5.8702804037600522 #
straight-curve $-1 52.423474837488939 -4.3579798280878368 73.911196581572142 0 0 -1 I I #
point $-1 52.423474837488939 -4.3579798280878368 5.8702804037600522 #
straight-curve $-1 52.423474837488939 -0.40109901424245287 1.7990606076974913 0 1 0 I I #
point $-1 52.423474837488939 -4.3579798280878368 1.7990606076974984 #
point $-1 47.674843582870096 -2.3261045140290193 1.5076835364574901 #
point $-1 47.674843582870096 0.72170845705920783 1.5076835364574901 #
straight-curve $-1 39.085665157551311 2.7535837711180253 5.8702804037600487 1 0 0 I I #
straight-curve $-1 52.423474837488939 2.7535837711180253 73.911196581572142 0 0 -1 I I #
point $-1 52.423474837488939 2.7535837711180253 5.8702804037600522 #
point $-1 47.674843582870096 4.7854590851768464 1.5076835364574901 #
point $-1 47.674843582870096 7.8332720562650699 1.5076835364574901 #
straight-curve $-1 0 -25.600100881058015 -5.8702804037600522 -1 0 0 I I #
point $-1 -52.423474837488939 -25.600100881058015 -5.8702804037600522 #
End-of-ACIS-data 