500 0 6 0           
7 Unknown 11 ACIS 5.0 NT 24 Fri Mar 26 17:25:29 1999 
-1 9.9999999999999995e-007 1e-010 
body $-1 $6 $-1 $7 #
body $-1 $8 $-1 $9 #
body $-1 $10 $-1 $11 #
body $-1 $12 $-1 $13 #
body $-1 $14 $-1 $15 #
body $-1 $16 $-1 $17 #
lump $-1 $-1 $18 $0 #
transform $-1 1 0 0 0 1 0 0 0 1 53.458662678914763 29.378526458266602 6.2046637363549415 1 rotate no_reflect no_shear #
lump $-1 $-1 $19 $1 #
transform $-1 1 0 0 0 1 0 0 0 1 53.458662678914763 29.378526458266602 6.2046637363549415 1 rotate no_reflect no_shear #
lump $-1 $-1 $20 $2 #
transform $-1 1 0 0 0 1 0 0 0 1 53.458662678914763 29.378526458266602 6.2046637363549415 1 rotate no_reflect no_shear #
lump $-1 $-1 $21 $3 #
transform $-1 1 0 0 0 1 0 0 0 1 53.458662678914763 29.378526458266602 6.2046637363549415 1 rotate no_reflect no_shear #
lump $-1 $-1 $22 $4 #
transform $-1 1 0 0 0 1 0 0 0 1 53.458662678914763 29.378526458266602 6.2046637363549415 1 rotate no_reflect no_shear #
lump $-1 $-1 $23 $5 #
transform $-1 1 0 0 0 1 0 0 0 1 53.458662678914763 29.378526458266602 6.2046637363549415 1 rotate no_reflect no_shear #
shell $-1 $-1 $-1 $24 $-1 $6 #
shell $-1 $-1 $-1 $25 $-1 $8 #
shell $-1 $-1 $-1 $26 $-1 $10 #
shell $-1 $-1 $-1 $27 $-1 $12 #
shell $-1 $-1 $-1 $28 $-1 $14 #
shell $-1 $-1 $-1 $29 $-1 $16 #
face $-1 $30 $31 $18 $-1 $32 forward single #
face $-1 $33 $34 $19 $-1 $35 reversed single #
face $-1 $36 $37 $20 $-1 $38 reversed single #
face $-1 $39 $40 $21 $-1 $41 reversed single #
face $-1 $42 $43 $22 $-1 $44 forward single #
face $-1 $45 $46 $23 $-1 $47 forward single #
face $-1 $48 $49 $18 $-1 $50 reversed single #
loop $-1 $-1 $51 $24 #
plane-surface $-1 0 0 6.2046637363549415 0 0 1 1 0 0 forward_v I I I I #
face $-1 $52 $53 $19 $-1 $54 reversed single #
loop $-1 $-1 $55 $25 #
plane-surface $-1 -51.958662678914763 -25.017250196509291 0 0 -1 0 0 0 -1 forward_v I I I I #
face $-1 $56 $57 $20 $-1 $58 reversed single #
loop $-1 $-1 $59 $26 #
plane-surface $-1 -51.958662678914763 25.017250196509291 0 0 1 0 0 0 1 forward_v I I I I #
face $-1 $60 $61 $21 $-1 $62 reversed single #
loop $-1 $-1 $63 $27 #
plane-surface $-1 -143.12707751577216 1.1687578872177866 60.254079467897725 0 1 0 -0.83867057594974714 0 0.54463902268945019 forward_v I I I I #
face $-1 $64 $65 $22 $-1 $66 forward single #
loop $-1 $67 $68 $28 #
cone-surface $-1 -51.406516247503994 3.4338727429885019 3.6628418436696051 0.83867057594974714 0 -0.54463902268945019 0.2723195113447251 0 0.41933528797487357 1 I I 0 1 0.5 forward I I I I #
face $-1 $69 $70 $23 $-1 $71 forward single #
loop $-1 $72 $73 $29 #
cone-surface $-1 -51.406516247503994 6.8315450266445659 3.6628418436696051 0.83867057594974714 0 -0.54463902268945019 0.2723195113447251 0 0.41933528797487357 1 I I 0 1 0.5 forward I I I I #
face $-1 $74 $75 $18 $-1 $76 reversed single #
loop $-1 $-1 $77 $30 #
plane-surface $-1 0 0 -6.2046637363549415 0 0 1 1 0 0 forward_v I I I I #
coedge $-1 $78 $79 $80 $81 forward $31 $-1 #
face $-1 $82 $83 $19 $-1 $84 forward single #
loop $-1 $-1 $85 $33 #
plane-surface $-1 -50.458662678914763 -27.197888327387947 0 -1 0 0 0 0 1 forward_v I I I I #
coedge $-1 $86 $87 $88 $89 forward $34 $-1 #
face $-1 $90 $91 $20 $-1 $92 reversed single #
loop $-1 $-1 $93 $36 #
plane-surface $-1 -50.458662678914763 27.197888327387947 0 -1 0 0 0 0 1 forward_v I I I I #
coedge $-1 $94 $95 $96 $97 reversed $37 $-1 #
face $-1 $98 $99 $21 $-1 $100 reversed single #
loop $-1 $-1 $101 $39 #
plane-surface $-1 -53.458662678914763 5.1327088848165268 2.0227318764394795 -0.83867057594974714 0 0.54463902268945019 0.54463902268945019 0 0.83867057594974714 forward_v I I I I #
coedge $-1 $102 $103 $104 $105 reversed $40 $-1 #
face $-1 $-1 $106 $22 $-1 $107 forward single #
loop $-1 $108 $109 $42 #
cone-surface $-1 -50.502591280447831 3.4338727429885019 3.0758261252696304 0.83867057594974714 0 -0.54463902268945019 0.13615975567236255 0 0.20966764398743679 1 I I -0.70710678118654746 0.70710678118654746 0.25 forward I I I I #
loop $-1 $-1 $110 $28 #
coedge $-1 $68 $68 $111 $112 reversed $43 $-1 #
face $-1 $-1 $113 $23 $-1 $114 forward single #
loop $-1 $115 $116 $45 #
cone-surface $-1 -50.502591280447831 6.8315450266445659 3.0758261252696304 0.83867057594974714 0 -0.54463902268945019 0.13615975567236255 0 0.20966764398743679 1 I I -0.70710678118654746 0.70710678118654746 0.25 forward I I I I #
loop $-1 $-1 $117 $29 #
coedge $-1 $73 $73 $118 $119 reversed $46 $-1 #
face $-1 $120 $121 $18 $-1 $122 reversed single #
loop $-1 $-1 $123 $48 #
plane-surface $-1 0 -29.378526458266602 0 0 1 0 0 0 1 forward_v I I I I #
coedge $-1 $124 $125 $126 $127 forward $49 $-1 #
coedge $-1 $128 $51 $129 $130 forward $31 $-1 #
coedge $-1 $51 $128 $131 $132 forward $31 $-1 #
coedge $-1 $133 $134 $51 $81 reversed $135 $-1 #
edge $-1 $136 -29.378526458266602 $137 29.378526458266602 $80 $138 forward 7 unknown #
face $-1 $139 $140 $19 $-1 $141 reversed single #
loop $-1 $-1 $142 $52 #
plane-surface $-1 0 0 6.2046637363549415 0 0 1 1 0 0 forward_v I I I I #
coedge $-1 $143 $144 $145 $146 reversed $53 $-1 #
coedge $-1 $147 $55 $148 $149 reversed $34 $-1 #
coedge $-1 $55 $147 $150 $151 reversed $34 $-1 #
coedge $-1 $144 $143 $55 $89 reversed $53 $-1 #
edge $-1 $152 -6.2046637363549415 $153 6.2046637363549415 $88 $154 forward 7 unknown #
face $-1 $155 $156 $20 $-1 $157 reversed single #
loop $-1 $-1 $158 $56 #
plane-surface $-1 0 0 -6.2046637363549415 0 0 1 1 0 0 forward_v I I I I #
coedge $-1 $159 $160 $161 $162 forward $57 $-1 #
coedge $-1 $161 $59 $163 $164 reversed $37 $-1 #
coedge $-1 $59 $161 $165 $166 reversed $37 $-1 #
coedge $-1 $167 $168 $59 $97 forward $156 $-1 #
edge $-1 $169 -6.2046637363549415 $170 6.2046637363549415 $96 $171 forward 7 unknown #
face $-1 $172 $173 $21 $-1 $174 forward single #
loop $-1 $-1 $175 $60 #
plane-surface $-1 -143.12707751577216 9.0966598824152669 60.254079467897725 0 -1 0 0.83867057594974714 0 -0.54463902268945019 forward_v I I I I #
coedge $-1 $176 $177 $178 $179 reversed $61 $-1 #
coedge $-1 $103 $63 $180 $181 reversed $40 $-1 #
coedge $-1 $63 $102 $176 $182 reversed $40 $-1 #
coedge $-1 $178 $183 $63 $105 forward $173 $-1 #
edge $-1 $184 18.104876078971316 $185 20.820654295655416 $104 $186 forward 7 unknown #
loop $-1 $-1 $111 $64 #
plane-surface $-1 -53.458662678914763 5.1327088848165268 2.0227318764394795 -0.83867057594974714 0 0.54463902268945019 0.54463902268945019 0 0.83867057594974714 forward_v I I I I #
loop $-1 $-1 $187 $42 #
coedge $-1 $109 $109 $110 $188 reversed $65 $-1 #
coedge $-1 $110 $110 $109 $188 forward $67 $-1 #
coedge $-1 $111 $111 $68 $112 forward $106 $-1 #
edge $-1 $189 0 $189 6.2831853071796004 $111 $190 forward 7 unknown #
loop $-1 $-1 $118 $69 #
plane-surface $-1 -53.458662678914763 5.1327088848165268 2.0227318764394795 -0.83867057594974714 0 0.54463902268945019 0.54463902268945019 0 0.83867057594974714 forward_v I I I I #
loop $-1 $-1 $191 $45 #
coedge $-1 $116 $116 $117 $192 reversed $70 $-1 #
coedge $-1 $117 $117 $116 $192 forward $72 $-1 #
coedge $-1 $118 $118 $73 $119 forward $113 $-1 #
edge $-1 $193 0 $193 6.2831853071796004 $118 $194 forward 7 unknown #
face $-1 $195 $196 $18 $-1 $197 reversed single #
loop $-1 $-1 $198 $74 #
plane-surface $-1 -53.458662678914763 0 0 1 0 0 0 0 -1 forward_v I I I I #
coedge $-1 $199 $131 $200 $201 forward $75 $-1 #
coedge $-1 $202 $77 $199 $203 forward $49 $-1 #
coedge $-1 $77 $202 $204 $205 forward $49 $-1 #
coedge $-1 $134 $133 $77 $127 reversed $135 $-1 #
edge $-1 $206 -29.378526458266602 $207 29.378526458266602 $126 $208 forward 7 unknown #
coedge $-1 $79 $78 $209 $210 forward $31 $-1 #
coedge $-1 $211 $212 $78 $130 reversed $196 $-1 #
edge $-1 $137 -53.458662678914763 $213 53.458662678914763 $129 $214 forward 7 unknown #
coedge $-1 $123 $215 $79 $132 reversed $75 $-1 #
edge $-1 $216 -53.458662678914763 $136 53.458662678914763 $131 $217 forward 7 unknown #
coedge $-1 $126 $80 $215 $218 forward $135 $-1 #
coedge $-1 $80 $126 $211 $219 reversed $135 $-1 #
loop $-1 $-1 $133 $195 #
vertex $-1 $81 $220 #
vertex $-1 $81 $221 #
straight-curve $-1 53.458662678914763 0 6.2046637363549415 0 1 0 I I #
face $-1 $222 $223 $19 $-1 $224 reversed single #
loop $-1 $-1 $225 $82 #
plane-surface $-1 -53.458662678914763 0 0 1 0 0 0 0 -1 forward_v I I I I #
coedge $-1 $150 $226 $144 $227 forward $83 $-1 #
coedge $-1 $88 $85 $228 $229 reversed $53 $-1 #
coedge $-1 $85 $88 $142 $227 reversed $53 $-1 #
coedge $-1 $230 $231 $85 $146 forward $232 $-1 #
edge $-1 $233 -6.2046637363549415 $234 6.2046637363549415 $145 $235 forward 7 unknown #
coedge $-1 $87 $86 $225 $236 reversed $34 $-1 #
coedge $-1 $228 $237 $86 $149 forward $223 $-1 #
edge $-1 $238 -27.479331339457381 $153 -24.479331339457381 $148 $239 forward 7 unknown #
coedge $-1 $240 $142 $87 $151 forward $83 $-1 #
edge $-1 $152 24.479331339457381 $241 27.479331339457381 $150 $242 forward 7 unknown #
vertex $-1 $151 $243 #
vertex $-1 $149 $244 #
straight-curve $-1 -50.458662678914763 -25.017250196509291 0 0 0 -1 I I #
face $-1 $245 $246 $20 $-1 $247 forward single #
loop $-1 $-1 $96 $90 #
plane-surface $-1 -53.458662678914763 0 0 1 0 0 0 0 -1 forward_v I I I I #
coedge $-1 $163 $248 $159 $249 forward $91 $-1 #
coedge $-1 $250 $93 $158 $249 reversed $57 $-1 #
coedge $-1 $93 $250 $251 $252 reversed $57 $-1 #
coedge $-1 $95 $94 $93 $162 reversed $37 $-1 #
edge $-1 $253 -6.2046637363549415 $254 6.2046637363549415 $93 $255 forward 7 unknown #
coedge $-1 $256 $158 $94 $164 forward $91 $-1 #
edge $-1 $254 24.479331339457381 $169 27.479331339457381 $163 $257 forward 7 unknown #
coedge $-1 $251 $258 $95 $166 forward $246 $-1 #
edge $-1 $170 -27.479331339457381 $253 -24.479331339457381 $165 $259 forward 7 unknown #
coedge $-1 $260 $96 $258 $261 reversed $156 $-1 #
coedge $-1 $96 $260 $256 $262 reversed $156 $-1 #
vertex $-1 $262 $263 #
vertex $-1 $97 $264 #
straight-curve $-1 -53.458662678914763 25.017250196509291 0 0 0 1 I I #
face $-1 $-1 $265 $21 $-1 $266 reversed single #
loop $-1 $-1 $104 $98 #
plane-surface $-1 0 0 6.2046637363549415 0 0 1 1 0 0 forward_v I I I I #
coedge $-1 $267 $268 $269 $270 reversed $99 $-1 #
coedge $-1 $271 $101 $103 $182 forward $61 $-1 #
coedge $-1 $101 $271 $267 $272 forward $61 $-1 #
coedge $-1 $269 $104 $101 $179 forward $173 $-1 #
edge $-1 $185 -1.3975965551904768 $273 6.5303054400070035 $178 $274 forward 7 unknown #
coedge $-1 $275 $276 $102 $181 forward $265 $-1 #
edge $-1 $277 -28.104307857509383 $184 -23.922375997593921 $180 $278 forward 7 unknown #
edge $-1 $185 -4.9863819953140247 $277 0 $103 $279 forward 7 unknown #
coedge $-1 $104 $269 $275 $280 forward $173 $-1 #
vertex $-1 $105 $281 #
vertex $-1 $105 $282 #
straight-curve $-1 -71.563538757886079 1.1687578872177866 6.2046637363549415 1 0 0 I I #
coedge $-1 $187 $187 $-1 $283 reversed $108 $-1 #
edge $-1 $284 0 $284 6.2831853071796004 $109 $285 forward 7 unknown #
vertex $-1 $112 $286 #
ellipse-curve $-1 -52.100773570572713 3.4338727429885019 4.1136978063972123 -0.83867057594974714 0 0.54463902268945019 0.2723195113447251 0 0.41933528797487357 1 I I #
coedge $-1 $191 $191 $-1 $287 reversed $115 $-1 #
edge $-1 $288 0 $288 6.2831853071796004 $116 $289 forward 7 unknown #
vertex $-1 $119 $290 #
ellipse-curve $-1 -52.100773570572713 6.8315450266445659 4.1136978063972123 -0.83867057594974714 0 0.54463902268945019 0.2723195113447251 0 0.41933528797487357 1 I I #
face $-1 $-1 $135 $18 $-1 $291 reversed single #
loop $-1 $-1 $211 $120 #
plane-surface $-1 0 29.378526458266602 0 0 -1 0 0 0 -1 forward_v I I I I #
coedge $-1 $292 $209 $212 $293 forward $121 $-1 #
coedge $-1 $215 $123 $124 $203 reversed $75 $-1 #
coedge $-1 $209 $292 $123 $201 reversed $121 $-1 #
edge $-1 $216 -6.2046637363549415 $294 6.2046637363549415 $200 $295 forward 7 unknown #
coedge $-1 $125 $124 $292 $296 forward $49 $-1 #
edge $-1 $207 -53.458662678914763 $294 53.458662678914763 $199 $297 forward 7 unknown #
coedge $-1 $212 $211 $125 $205 reversed $196 $-1 #
edge $-1 $298 -53.458662678914763 $206 53.458662678914763 $204 $299 forward 7 unknown #
vertex $-1 $127 $300 #
vertex $-1 $218 $301 #
straight-curve $-1 53.458662678914763 0 -6.2046637363549415 0 -1 0 I I #
coedge $-1 $198 $200 $128 $210 reversed $121 $-1 #
edge $-1 $213 -29.378526458266602 $216 29.378526458266602 $209 $302 forward 7 unknown #
coedge $-1 $204 $129 $134 $219 forward $196 $-1 #
coedge $-1 $129 $204 $198 $293 reversed $196 $-1 #
vertex $-1 $130 $303 #
straight-curve $-1 0 29.378526458266602 6.2046637363549415 -1 0 0 I I #
coedge $-1 $131 $199 $133 $218 reversed $75 $-1 #
vertex $-1 $210 $304 #
straight-curve $-1 0 -29.378526458266602 6.2046637363549415 1 0 0 I I #
edge $-1 $136 -6.2046637363549415 $207 6.2046637363549415 $133 $305 forward 7 unknown #
edge $-1 $137 -6.2046637363549415 $206 6.2046637363549415 $134 $306 forward 7 unknown #
point $-1 53.458662678914763 -29.378526458266602 6.2046637363549415 #
point $-1 53.458662678914763 29.378526458266602 6.2046637363549415 #
face $-1 $-1 $232 $19 $-1 $307 reversed single #
loop $-1 $-1 $228 $139 #
plane-surface $-1 0 0 -6.2046637363549415 0 0 1 1 0 0 forward_v I I I I #
coedge $-1 $308 $309 $147 $236 forward $140 $-1 #
coedge $-1 $142 $240 $230 $310 forward $83 $-1 #
edge $-1 $234 -15.779582294572629 $152 -11.418306032815318 $142 $311 forward 7 unknown #
coedge $-1 $312 $148 $143 $229 forward $223 $-1 #
edge $-1 $153 11.418306032815318 $233 15.779582294572629 $228 $313 forward 7 unknown #
coedge $-1 $314 $145 $226 $310 reversed $232 $-1 #
coedge $-1 $145 $314 $312 $315 reversed $232 $-1 #
loop $-1 $-1 $145 $222 #
vertex $-1 $315 $316 #
vertex $-1 $146 $317 #
straight-curve $-1 -50.458662678914763 -29.378526458266602 0 0 0 1 I I #
edge $-1 $241 -6.2046637363549415 $238 6.2046637363549415 $225 $318 forward 7 unknown #
coedge $-1 $148 $312 $308 $319 forward $223 $-1 #
vertex $-1 $149 $320 #
straight-curve $-1 -25.979331339457381 -25.017250196509291 -6.2046637363549415 1 0 0 I I #
coedge $-1 $226 $150 $309 $321 forward $83 $-1 #
vertex $-1 $321 $322 #
straight-curve $-1 -25.979331339457381 -25.017250196509291 6.2046637363549415 -1 0 0 I I #
point $-1 -50.458662678914763 -25.017250196509291 6.2046637363549415 #
point $-1 -50.458662678914763 -25.017250196509291 -6.2046637363549415 #
face $-1 $-1 $323 $20 $-1 $324 reversed single #
loop $-1 $-1 $251 $155 #
plane-surface $-1 0 0 6.2046637363549415 0 0 1 1 0 0 forward_v I I I I #
coedge $-1 $158 $256 $325 $326 forward $91 $-1 #
edge $-1 $327 -15.779582294572629 $254 -11.418306032815318 $158 $328 forward 7 unknown #
coedge $-1 $160 $159 $329 $330 reversed $57 $-1 #
coedge $-1 $331 $165 $160 $252 forward $246 $-1 #
edge $-1 $253 11.418306032815318 $332 15.779582294572629 $251 $333 forward 7 unknown #
vertex $-1 $166 $334 #
vertex $-1 $164 $335 #
straight-curve $-1 -50.458662678914763 25.017250196509291 0 0 0 -1 I I #
coedge $-1 $248 $163 $168 $262 forward $91 $-1 #
straight-curve $-1 -25.979331339457381 25.017250196509291 -6.2046637363549415 -1 0 0 I I #
coedge $-1 $165 $331 $167 $261 forward $246 $-1 #
straight-curve $-1 -25.979331339457381 25.017250196509291 6.2046637363549415 1 0 0 I I #
coedge $-1 $168 $167 $336 $337 forward $156 $-1 #
edge $-1 $338 -29.378526458266602 $170 -25.017250196509291 $167 $339 forward 7 unknown #
edge $-1 $169 25.017250196509291 $340 29.378526458266602 $168 $341 forward 7 unknown #
point $-1 -53.458662678914763 25.017250196509291 -6.2046637363549415 #
point $-1 -53.458662678914763 25.017250196509291 6.2046637363549415 #
loop $-1 $-1 $180 $172 #
plane-surface $-1 -53.458662678914763 0 0 1 0 0 0 0 -1 forward_v I I I I #
coedge $-1 $268 $175 $177 $272 reversed $99 $-1 #
coedge $-1 $175 $267 $342 $343 reversed $99 $-1 #
coedge $-1 $183 $178 $175 $270 forward $173 $-1 #
edge $-1 $273 -20.820654295655416 $344 -18.104876078971316 $269 $345 forward 7 unknown #
coedge $-1 $177 $176 $276 $346 reversed $61 $-1 #
edge $-1 $347 0 $273 4.9863819953140247 $267 $348 forward 7 unknown #
vertex $-1 $179 $349 #
straight-curve $-1 -50.742884462230663 2.5663544424082634 6.2046637363549415 0 1 0 I I #
coedge $-1 $342 $180 $183 $280 reversed $265 $-1 #
coedge $-1 $180 $342 $271 $346 forward $265 $-1 #
vertex $-1 $181 $350 #
straight-curve $-1 -53.458662678914763 1.1687578872177866 30.127039733948862 0 0 1 I I #
straight-curve $-1 -53.458662678914763 1.1687578872177866 2.0227318764394795 -0.54463902268945019 0 -0.83867057594974714 I I #
edge $-1 $344 -9.0966598824152669 $184 -1.1687578872177866 $275 $351 forward 7 unknown #
point $-1 -53.458662678914763 1.1687578872177866 6.2046637363549415 #
point $-1 -50.742884462230663 1.1687578872177866 6.2046637363549415 #
edge $-1 $352 1 $352 0 $187 $-1 forward 7 unknown #
vertex $-1 $188 $353 #
ellipse-curve $-1 -50.712258924435268 3.4338727429885019 3.211985880941993 -0.83867057594974714 0 0.54463902268945019 0.2723195113447251 0 0.41933528797487357 1 I I #
point $-1 -51.828454059227994 3.4338727429885019 4.5330330943720911 #
edge $-1 $354 1 $354 0 $191 $-1 forward 7 unknown #
vertex $-1 $192 $355 #
ellipse-curve $-1 -50.712258924435268 6.8315450266445659 3.211985880941993 -0.83867057594974714 0 0.54463902268945019 0.2723195113447251 0 0.41933528797487357 1 I I #
point $-1 -51.828454059227994 6.8315450266445659 4.5330330943720911 #
plane-surface $-1 53.458662678914763 0 0 -1 0 0 0 0 1 forward_v I I I I #
coedge $-1 $200 $198 $202 $296 reversed $121 $-1 #
edge $-1 $213 -6.2046637363549415 $298 6.2046637363549415 $212 $356 forward 7 unknown #
vertex $-1 $296 $357 #
straight-curve $-1 -53.458662678914763 -29.378526458266602 0 0 0 -1 I I #
edge $-1 $294 -29.378526458266602 $298 29.378526458266602 $292 $358 forward 7 unknown #
straight-curve $-1 0 -29.378526458266602 -6.2046637363549415 -1 0 0 I I #
vertex $-1 $205 $359 #
straight-curve $-1 0 29.378526458266602 -6.2046637363549415 1 0 0 I I #
point $-1 53.458662678914763 29.378526458266602 -6.2046637363549415 #
point $-1 53.458662678914763 -29.378526458266602 -6.2046637363549415 #
straight-curve $-1 -53.458662678914763 0 6.2046637363549415 0 -1 0 I I #
point $-1 -53.458662678914763 29.378526458266602 6.2046637363549415 #
point $-1 -53.458662678914763 -29.378526458266602 6.2046637363549415 #
straight-curve $-1 53.458662678914763 -29.378526458266602 0 0 0 -1 I I #
straight-curve $-1 53.458662678914763 29.378526458266602 0 0 0 -1 I I #
plane-surface $-1 0 -29.378526458266602 0 0 1 0 0 0 1 forward_v I I I I #
coedge $-1 $360 $225 $237 $319 reversed $140 $-1 #
coedge $-1 $225 $360 $240 $321 reversed $140 $-1 #
edge $-1 $361 -53.458662678914763 $234 -50.458662678914763 $230 $362 forward 7 unknown #
straight-curve $-1 -50.458662678914763 -13.598944163693973 6.2046637363549415 0 1 0 I I #
coedge $-1 $237 $228 $231 $315 forward $223 $-1 #
straight-curve $-1 -50.458662678914763 -13.598944163693973 -6.2046637363549415 0 -1 0 I I #
coedge $-1 $231 $230 $360 $363 forward $232 $-1 #
edge $-1 $233 50.458662678914763 $364 53.458662678914763 $231 $365 forward 7 unknown #
point $-1 -50.458662678914763 -29.378526458266602 -6.2046637363549415 #
point $-1 -50.458662678914763 -29.378526458266602 6.2046637363549415 #
straight-curve $-1 -53.458662678914763 -25.017250196509291 0 0 0 -1 I I #
edge $-1 $364 -29.378526458266602 $238 -25.017250196509291 $308 $366 forward 7 unknown #
point $-1 -53.458662678914763 -25.017250196509291 -6.2046637363549415 #
edge $-1 $241 25.017250196509291 $361 29.378526458266602 $309 $367 forward 7 unknown #
point $-1 -53.458662678914763 -25.017250196509291 6.2046637363549415 #
loop $-1 $-1 $329 $245 #
plane-surface $-1 0 29.378526458266602 0 0 -1 0 0 0 -1 forward_v I I I I #
coedge $-1 $336 $329 $248 $326 reversed $323 $-1 #
edge $-1 $340 -53.458662678914763 $327 -50.458662678914763 $325 $368 forward 7 unknown #
vertex $-1 $249 $369 #
straight-curve $-1 -50.458662678914763 13.598944163693973 -6.2046637363549415 0 -1 0 I I #
coedge $-1 $325 $370 $250 $330 forward $323 $-1 #
edge $-1 $332 -6.2046637363549415 $327 6.2046637363549415 $329 $371 forward 7 unknown #
coedge $-1 $258 $251 $370 $372 forward $246 $-1 #
vertex $-1 $372 $373 #
straight-curve $-1 -50.458662678914763 13.598944163693973 6.2046637363549415 0 1 0 I I #
point $-1 -50.458662678914763 25.017250196509291 6.2046637363549415 #
point $-1 -50.458662678914763 25.017250196509291 -6.2046637363549415 #
coedge $-1 $370 $325 $260 $337 reversed $323 $-1 #
edge $-1 $338 -6.2046637363549415 $340 6.2046637363549415 $336 $374 forward 7 unknown #
vertex $-1 $372 $375 #
straight-curve $-1 -53.458662678914763 0 6.2046637363549415 0 -1 0 I I #
vertex $-1 $326 $376 #
straight-curve $-1 -53.458662678914763 0 -6.2046637363549415 0 1 0 I I #
coedge $-1 $276 $275 $268 $343 forward $265 $-1 #
edge $-1 $344 23.922375997593921 $347 28.104307857509383 $342 $377 forward 7 unknown #
vertex $-1 $280 $378 #
straight-curve $-1 -71.563538757886079 9.0966598824152669 6.2046637363549415 -1 0 0 I I #
edge $-1 $347 -6.5303054400070035 $277 1.3975965551904768 $276 $379 forward 7 unknown #
vertex $-1 $346 $380 #
straight-curve $-1 -53.458662678914763 9.0966598824152669 2.0227318764394795 0.54463902268945019 0 0.83867057594974714 I I #
point $-1 -50.742884462230663 9.0966598824152669 6.2046637363549415 #
point $-1 -53.458662678914763 1.1687578872177866 2.0227318764394795 #
straight-curve $-1 -53.458662678914763 0 6.2046637363549415 0 -1 0 I I #
vertex $-1 $283 $381 #
point $-1 -50.439939413090542 3.4338727429885019 3.6313211689168665 #
vertex $-1 $287 $382 #
point $-1 -50.439939413090542 6.8315450266445659 3.6313211689168665 #
straight-curve $-1 -53.458662678914763 29.378526458266602 0 0 0 -1 I I #
point $-1 -53.458662678914763 -29.378526458266602 -6.2046637363549415 #
straight-curve $-1 -53.458662678914763 0 -6.2046637363549415 0 1 0 I I #
point $-1 -53.458662678914763 29.378526458266602 -6.2046637363549415 #
coedge $-1 $309 $308 $314 $363 reversed $140 $-1 #
vertex $-1 $321 $383 #
straight-curve $-1 0 -29.378526458266602 6.2046637363549415 1 0 0 I I #
edge $-1 $361 -6.2046637363549415 $364 6.2046637363549415 $360 $384 forward 7 unknown #
vertex $-1 $319 $385 #
straight-curve $-1 0 -29.378526458266602 -6.2046637363549415 -1 0 0 I I #
straight-curve $-1 -53.458662678914763 0 -6.2046637363549415 0 1 0 I I #
straight-curve $-1 -53.458662678914763 0 6.2046637363549415 0 -1 0 I I #
straight-curve $-1 0 29.378526458266602 -6.2046637363549415 1 0 0 I I #
point $-1 -50.458662678914763 29.378526458266602 -6.2046637363549415 #
coedge $-1 $329 $336 $331 $372 reversed $323 $-1 #
straight-curve $-1 -50.458662678914763 29.378526458266602 0 0 0 -1 I I #
edge $-1 $332 50.458662678914763 $338 53.458662678914763 $370 $386 forward 7 unknown #
point $-1 -50.458662678914763 29.378526458266602 6.2046637363549415 #
straight-curve $-1 -53.458662678914763 29.378526458266602 0 0 0 -1 I I #
point $-1 -53.458662678914763 29.378526458266602 6.2046637363549415 #
point $-1 -53.458662678914763 29.378526458266602 -6.2046637363549415 #
straight-curve $-1 -53.458662678914763 9.0966598824152669 30.127039733948862 0 0 -1 I I #
point $-1 -53.458662678914763 9.0966598824152669 6.2046637363549415 #
straight-curve $-1 -53.458662678914763 2.5663544424082634 2.022731876439479 0 -1 0 I I #
point $-1 -53.458662678914763 9.0966598824152669 2.0227318764394795 #
point $-1 -50.292923636460394 3.4338727429885019 2.9396663695972678 #
point $-1 -50.292923636460394 6.8315450266445659 2.9396663695972678 #
point $-1 -53.458662678914763 -29.378526458266602 6.2046637363549415 #
straight-curve $-1 -53.458662678914763 -29.378526458266602 0 0 0 -1 I I #
point $-1 -53.458662678914763 -29.378526458266602 -6.2046637363549415 #
straight-curve $-1 0 29.378526458266602 6.2046637363549415 -1 0 0 I I #
End-of-ACIS-data 