500 0 8 0           
7 Unknown 11 ACIS 5.0 NT 24 Thu Mar 25 22:10:54 1999 
-1 9.9999999999999995e-007 1e-010 
body $-1 $8 $-1 $9 #
body $-1 $10 $-1 $11 #
body $-1 $12 $-1 $13 #
body $-1 $14 $-1 $15 #
body $-1 $16 $-1 $17 #
body $-1 $18 $-1 $19 #
body $-1 $20 $-1 $21 #
body $-1 $22 $-1 $23 #
lump $-1 $-1 $24 $0 #
transform $-1 1 0 0 0 1 0 0 0 1 52.427137058626059 32.882520522905949 15.41796529465079 1 rotate no_reflect no_shear #
lump $-1 $-1 $25 $1 #
transform $-1 1 0 0 0 1 0 0 0 1 52.427137058626059 32.882520522905949 15.41796529465079 1 rotate no_reflect no_shear #
lump $-1 $-1 $26 $2 #
transform $-1 1 0 0 0 1 0 0 0 1 52.427137058626059 32.882520522905949 15.41796529465079 1 rotate no_reflect no_shear #
lump $-1 $-1 $27 $3 #
transform $-1 1 0 0 0 1 0 0 0 1 52.427137058626059 32.882520522905949 15.41796529465079 1 rotate no_reflect no_shear #
lump $-1 $-1 $28 $4 #
transform $-1 1 0 0 0 1 0 0 0 1 52.427137058626059 32.882520522905949 15.41796529465079 1 rotate no_reflect no_shear #
lump $-1 $-1 $29 $5 #
transform $-1 1 0 0 0 1 0 0 0 1 52.427137058626059 32.882520522905949 15.41796529465079 1 rotate no_reflect no_shear #
lump $-1 $-1 $30 $6 #
transform $-1 1 0 0 0 1 0 0 0 1 52.427137058626059 32.882520522905949 15.41796529465079 1 rotate no_reflect no_shear #
lump $-1 $-1 $31 $7 #
transform $-1 1 0 0 0 1 0 0 0 1 52.427137058626059 32.882520522905949 15.41796529465079 1 rotate no_reflect no_shear #
shell $-1 $-1 $-1 $32 $-1 $8 #
shell $-1 $-1 $-1 $33 $-1 $10 #
shell $-1 $-1 $-1 $34 $-1 $12 #
shell $-1 $-1 $-1 $35 $-1 $14 #
shell $-1 $-1 $-1 $36 $-1 $16 #
shell $-1 $-1 $-1 $37 $-1 $18 #
shell $-1 $-1 $-1 $38 $-1 $20 #
shell $-1 $-1 $-1 $39 $-1 $22 #
face $-1 $40 $41 $24 $-1 $42 reversed single #
face $-1 $43 $44 $25 $-1 $45 forward single #
face $-1 $46 $47 $26 $-1 $48 reversed single #
face $-1 $49 $50 $27 $-1 $51 forward single #
face $-1 $52 $53 $28 $-1 $54 forward single #
face $-1 $55 $56 $29 $-1 $57 reversed single #
face $-1 $58 $59 $30 $-1 $60 forward single #
face $-1 $61 $62 $31 $-1 $63 forward single #
face $-1 $64 $65 $24 $-1 $66 forward single #
loop $-1 $-1 $67 $32 #
plane-surface $-1 0 -32.882520522905949 0 0 1 0 0 0 1 forward_v I I I I #
face $-1 $68 $69 $25 $-1 $70 forward single #
loop $-1 $-1 $71 $33 #
plane-surface $-1 0 -32.882520522905949 0 0 1 0 0 0 1 forward_v I I I I #
face $-1 $72 $73 $26 $-1 $74 reversed single #
loop $-1 $-1 $75 $34 #
plane-surface $-1 -14.907182103189768 83.035310793634366 113.95396145513091 1 0 0 0 -0.82903758062907751 -0.55919289150049634 forward_v I I I I #
face $-1 $76 $77 $27 $-1 $78 forward single #
loop $-1 $79 $80 $35 #
cone-surface $-1 -10.647987216564118 27.116708315797432 7.5447934915324977 0 -0.82903758062907751 -0.55919289150049634 2 0 0 1 I I 0 1 2 forward I I I I #
face $-1 $81 $82 $28 $-1 $83 forward single #
loop $-1 $84 $85 $36 #
cone-surface $-1 -4.2591948866256502 27.116708315797432 7.5447934915324977 0 -0.82903758062907751 -0.55919289150049634 2 0 0 1 I I 0 1 2 forward I I I I #
face $-1 $86 $87 $29 $-1 $88 reversed single #
loop $-1 $-1 $89 $37 #
plane-surface $-1 -7.4535910515948842 -3.8928229391504345 55.320196725319043 0 0.82903758062907751 0.55919289150049634 1 0 0 forward_v I I I I #
face $-1 $90 $91 $30 $-1 $92 forward single #
loop $-1 $93 $94 $38 #
cone-surface $-1 4.2591948866256502 27.116708315797432 7.5447934915324977 0 -0.82903758062907751 -0.55919289150049634 2 0 0 1 I I 0 1 2 forward I I I I #
face $-1 $95 $96 $31 $-1 $97 forward single #
loop $-1 $98 $99 $39 #
cone-surface $-1 10.647987216564118 27.116708315797432 7.5447934915324977 0 -0.82903758062907751 -0.55919289150049634 2 0 0 1 I I 0 1 2 forward I I I I #
face $-1 $100 $101 $24 $-1 $102 reversed single #
loop $-1 $-1 $103 $40 #
plane-surface $-1 0 0 15.41796529465079 0 0 1 1 0 0 forward_v I I I I #
coedge $-1 $104 $105 $106 $107 reversed $41 $-1 #
face $-1 $108 $109 $25 $-1 $110 reversed single #
loop $-1 $-1 $111 $43 #
plane-surface $-1 0 0 15.41796529465079 0 0 1 1 0 0 forward_v I I I I #
coedge $-1 $112 $113 $114 $115 forward $44 $-1 #
face $-1 $116 $117 $26 $-1 $118 reversed single #
loop $-1 $-1 $119 $46 #
plane-surface $-1 -7.4535910515948842 -3.8928229391504345 55.320196725319043 0 0.82903758062907751 0.55919289150049634 1 0 0 forward_v I I I I #
coedge $-1 $120 $121 $122 $123 reversed $47 $-1 #
face $-1 $-1 $124 $27 $-1 $125 forward single #
loop $-1 $126 $127 $49 #
cone-surface $-1 -10.647987216564118 25.452333207715441 6.4221583408755212 0 -0.82903758062907751 -0.55919289150049634 1 0 0 1 I I -0.70710678118654746 0.70710678118654746 1 forward I I I I #
loop $-1 $-1 $128 $35 #
coedge $-1 $80 $80 $129 $130 reversed $50 $-1 #
face $-1 $-1 $131 $28 $-1 $132 forward single #
loop $-1 $133 $134 $52 #
cone-surface $-1 -4.2591948866256502 25.452333207715441 6.4221583408755212 0 -0.82903758062907751 -0.55919289150049634 1 0 0 1 I I -0.70710678118654746 0.70710678118654746 1 forward I I I I #
loop $-1 $-1 $135 $36 #
coedge $-1 $85 $85 $136 $137 reversed $53 $-1 #
face $-1 $138 $139 $29 $-1 $140 forward single #
loop $-1 $-1 $141 $55 #
plane-surface $-1 14.907182103189768 83.035310793634366 113.95396145513091 -1 0 0 0 0.82903758062907751 0.55919289150049634 forward_v I I I I #
coedge $-1 $142 $143 $144 $145 reversed $56 $-1 #
face $-1 $-1 $146 $30 $-1 $147 forward single #
loop $-1 $148 $149 $58 #
cone-surface $-1 4.2591948866256502 25.452333207715441 6.4221583408755212 0 -0.82903758062907751 -0.55919289150049634 1 0 0 1 I I -0.70710678118654746 0.70710678118654746 1 forward I I I I #
loop $-1 $-1 $150 $38 #
coedge $-1 $94 $94 $151 $152 reversed $59 $-1 #
face $-1 $-1 $153 $31 $-1 $154 forward single #
loop $-1 $155 $156 $61 #
cone-surface $-1 10.647987216564118 25.452333207715441 6.4221583408755212 0 -0.82903758062907751 -0.55919289150049634 1 0 0 1 I I -0.70710678118654746 0.70710678118654746 1 forward I I I I #
loop $-1 $-1 $157 $39 #
coedge $-1 $99 $99 $158 $159 reversed $62 $-1 #
face $-1 $160 $161 $24 $-1 $162 reversed single #
loop $-1 $-1 $163 $64 #
plane-surface $-1 0 0 -15.41796529465079 0 0 1 1 0 0 forward_v I I I I #
coedge $-1 $164 $165 $166 $167 forward $65 $-1 #
coedge $-1 $168 $67 $169 $170 reversed $41 $-1 #
coedge $-1 $67 $168 $171 $172 forward $41 $-1 #
coedge $-1 $173 $163 $67 $107 forward $101 $-1 #
edge $-1 $174 -52.427137058626059 $175 52.427137058626059 $67 $176 forward 7 unknown #
face $-1 $177 $178 $25 $-1 $179 reversed single #
loop $-1 $-1 $180 $68 #
plane-surface $-1 -52.427137058626059 0 0 1 0 0 0 0 -1 forward_v I I I I #
coedge $-1 $181 $182 $113 $183 forward $69 $-1 #
coedge $-1 $184 $71 $185 $186 reversed $44 $-1 #
coedge $-1 $71 $184 $111 $183 reversed $44 $-1 #
coedge $-1 $187 $188 $71 $115 reversed $189 $-1 #
edge $-1 $190 -15.41796529465079 $191 15.41796529465079 $114 $192 forward 7 unknown #
face $-1 $193 $194 $26 $-1 $195 reversed single #
loop $-1 $-1 $196 $72 #
plane-surface $-1 0 83.035310793634366 113.95396145513091 -1 0 0 0 0.82903758062907751 0.55919289150049634 forward_v I I I I #
coedge $-1 $197 $198 $199 $200 reversed $73 $-1 #
coedge $-1 $121 $75 $201 $202 reversed $47 $-1 #
coedge $-1 $75 $120 $197 $203 reversed $47 $-1 #
coedge $-1 $199 $204 $75 $123 forward $205 $-1 #
edge $-1 $206 8.6351348739112339 $207 18.496084233222447 $122 $208 forward 7 unknown #
loop $-1 $-1 $129 $76 #
plane-surface $-1 -7.4535910515948842 -3.8928229391504345 55.320196725319043 0 0.82903758062907751 0.55919289150049634 1 0 0 forward_v I I I I #
loop $-1 $-1 $209 $49 #
coedge $-1 $127 $127 $128 $210 reversed $77 $-1 #
coedge $-1 $128 $128 $127 $210 forward $79 $-1 #
coedge $-1 $129 $129 $80 $130 forward $124 $-1 #
edge $-1 $211 0 $211 6.2831853071796004 $129 $212 forward 7 unknown #
loop $-1 $-1 $136 $81 #
plane-surface $-1 -7.4535910515948842 -3.8928229391504345 55.320196725319043 0 0.82903758062907751 0.55919289150049634 1 0 0 forward_v I I I I #
loop $-1 $-1 $213 $52 #
coedge $-1 $134 $134 $135 $214 reversed $82 $-1 #
coedge $-1 $135 $135 $134 $214 forward $84 $-1 #
coedge $-1 $136 $136 $85 $137 forward $131 $-1 #
edge $-1 $215 0 $215 6.2831853071796004 $136 $216 forward 7 unknown #
face $-1 $217 $218 $29 $-1 $219 forward single #
loop $-1 $-1 $220 $86 #
plane-surface $-1 0 0 15.41796529465079 0 0 1 1 0 0 forward_v I I I I #
coedge $-1 $221 $222 $223 $224 reversed $87 $-1 #
coedge $-1 $225 $89 $226 $227 reversed $56 $-1 #
coedge $-1 $89 $225 $220 $228 reversed $56 $-1 #
coedge $-1 $229 $230 $89 $145 forward $218 $-1 #
edge $-1 $231 -65.765041045811898 $232 -48.13078726828072 $144 $233 forward 7 unknown #
loop $-1 $-1 $151 $90 #
plane-surface $-1 -7.4535910515948842 -3.8928229391504345 55.320196725319043 0 0.82903758062907751 0.55919289150049634 1 0 0 forward_v I I I I #
loop $-1 $-1 $234 $58 #
coedge $-1 $149 $149 $150 $235 reversed $91 $-1 #
coedge $-1 $150 $150 $149 $235 forward $93 $-1 #
coedge $-1 $151 $151 $94 $152 forward $146 $-1 #
edge $-1 $236 0 $236 6.2831853071796004 $151 $237 forward 7 unknown #
loop $-1 $-1 $158 $95 #
plane-surface $-1 -7.4535910515948842 -3.8928229391504345 55.320196725319043 0 0.82903758062907751 0.55919289150049634 1 0 0 forward_v I I I I #
loop $-1 $-1 $238 $61 #
coedge $-1 $156 $156 $157 $239 reversed $96 $-1 #
coedge $-1 $157 $157 $156 $239 forward $98 $-1 #
coedge $-1 $158 $158 $99 $159 forward $153 $-1 #
edge $-1 $240 0 $240 6.2831853071796004 $158 $241 forward 7 unknown #
face $-1 $242 $243 $24 $-1 $244 reversed single #
loop $-1 $-1 $245 $100 #
plane-surface $-1 -52.427137058626059 0 0 1 0 0 0 0 -1 forward_v I I I I #
coedge $-1 $106 $246 $247 $248 forward $101 $-1 #
coedge $-1 $249 $103 $250 $251 forward $65 $-1 #
coedge $-1 $103 $249 $168 $252 forward $65 $-1 #
coedge $-1 $169 $253 $103 $167 reversed $254 $-1 #
edge $-1 $255 -32.882520522905949 $256 32.882520522905949 $166 $257 forward 7 unknown #
coedge $-1 $105 $104 $165 $252 reversed $41 $-1 #
coedge $-1 $247 $166 $104 $170 forward $254 $-1 #
edge $-1 $255 -15.41796529465079 $174 15.41796529465079 $169 $258 forward 7 unknown #
coedge $-1 $259 $260 $105 $172 reversed $161 $-1 #
edge $-1 $261 -15.41796529465079 $175 15.41796529465079 $171 $262 forward 7 unknown #
coedge $-1 $246 $106 $260 $263 forward $101 $-1 #
vertex $-1 $170 $264 #
vertex $-1 $263 $265 #
straight-curve $-1 0 -32.882520522905949 -15.41796529465079 -1 0 0 I I #
face $-1 $266 $189 $25 $-1 $267 reversed single #
loop $-1 $-1 $268 $108 #
plane-surface $-1 -49.462165449654137 -47.683738973771511 0 0 1 0 0 0 1 forward_v I I I I #
coedge $-1 $269 $270 $184 $271 forward $109 $-1 #
coedge $-1 $272 $111 $270 $273 forward $69 $-1 #
coedge $-1 $111 $272 $187 $274 forward $69 $-1 #
edge $-1 $190 46.497193840682215 $275 52.427137058626059 $111 $276 forward 7 unknown #
coedge $-1 $113 $112 $180 $271 reversed $44 $-1 #
coedge $-1 $277 $278 $112 $186 forward $279 $-1 #
edge $-1 $280 -52.427137058626059 $191 -46.497193840682215 $185 $281 forward 7 unknown #
coedge $-1 $282 $114 $182 $274 reversed $189 $-1 #
coedge $-1 $114 $282 $277 $283 reversed $189 $-1 #
loop $-1 $-1 $282 $177 #
vertex $-1 $183 $284 #
vertex $-1 $283 $285 #
straight-curve $-1 -46.497193840682215 -32.882520522905949 0 0 0 -1 I I #
face $-1 $-1 $205 $26 $-1 $286 forward single #
loop $-1 $-1 $287 $116 #
plane-surface $-1 0 32.882520522905949 0 0 -1 0 0 0 -1 forward_v I I I I #
coedge $-1 $288 $289 $290 $291 reversed $117 $-1 #
coedge $-1 $292 $119 $121 $203 forward $73 $-1 #
coedge $-1 $119 $292 $288 $293 forward $73 $-1 #
coedge $-1 $290 $122 $119 $200 forward $205 $-1 #
edge $-1 $207 -11.180386577392326 $294 3.7267955257974421 $199 $295 forward 7 unknown #
coedge $-1 $296 $297 $120 $202 forward $194 $-1 #
edge $-1 $298 -56.178474520838286 $206 -41.559015432914663 $201 $299 forward 7 unknown #
edge $-1 $207 48.13078726828072 $298 65.765041045811898 $121 $300 forward 7 unknown #
coedge $-1 $122 $290 $296 $301 forward $205 $-1 #
loop $-1 $-1 $290 $193 #
vertex $-1 $202 $302 #
vertex $-1 $123 $303 #
straight-curve $-1 -14.907182103189768 41.517655396817183 15.417965294650791 0 -1 0 I I #
coedge $-1 $209 $209 $-1 $304 reversed $126 $-1 #
edge $-1 $305 0 $305 6.2831853071796004 $127 $306 forward 7 unknown #
vertex $-1 $130 $307 #
ellipse-curve $-1 -10.647987216564118 27.952045843250346 8.1082357506889782 0 0.82903758062907751 0.55919289150049634 2 0 0 1 I I #
coedge $-1 $213 $213 $-1 $308 reversed $133 $-1 #
edge $-1 $309 0 $309 6.2831853071796004 $134 $310 forward 7 unknown #
vertex $-1 $137 $311 #
ellipse-curve $-1 -4.2591948866256502 27.952045843250346 8.1082357506889782 0 0.82903758062907751 0.55919289150049634 2 0 0 1 I I #
face $-1 $-1 $312 $29 $-1 $313 reversed single #
loop $-1 $-1 $229 $138 #
plane-surface $-1 0 83.035310793634366 113.95396145513091 -1 0 0 0 0.82903758062907751 0.55919289150049634 forward_v I I I I #
coedge $-1 $223 $314 $143 $228 forward $139 $-1 #
coedge $-1 $222 $141 $225 $315 reversed $87 $-1 #
coedge $-1 $141 $221 $316 $317 reversed $87 $-1 #
coedge $-1 $318 $220 $141 $224 forward $139 $-1 #
edge $-1 $319 -18.496084233222447 $320 -8.6351348739112339 $223 $321 forward 7 unknown #
coedge $-1 $143 $142 $221 $315 forward $56 $-1 #
coedge $-1 $322 $316 $142 $227 forward $312 $-1 #
edge $-1 $323 -18.633977628987211 $231 -3.7267955257974421 $226 $324 forward 7 unknown #
edge $-1 $232 3.7267955257974421 $319 18.633977628987211 $220 $325 forward 7 unknown #
coedge $-1 $230 $144 $314 $326 reversed $218 $-1 #
coedge $-1 $144 $229 $322 $327 reversed $218 $-1 #
vertex $-1 $227 $328 #
vertex $-1 $228 $329 #
straight-curve $-1 0 -3.8928229391504345 55.320196725319043 0 -0.55919289150049634 0.82903758062907751 I I #
coedge $-1 $234 $234 $-1 $330 reversed $148 $-1 #
edge $-1 $331 0 $331 6.2831853071796004 $149 $332 forward 7 unknown #
vertex $-1 $152 $333 #
ellipse-curve $-1 4.2591948866256502 27.952045843250346 8.1082357506889782 0 0.82903758062907751 0.55919289150049634 2 0 0 1 I I #
coedge $-1 $238 $238 $-1 $334 reversed $155 $-1 #
edge $-1 $335 0 $335 6.2831853071796004 $156 $336 forward 7 unknown #
vertex $-1 $159 $337 #
ellipse-curve $-1 10.647987216564118 27.952045843250346 8.1082357506889782 0 0.82903758062907751 0.55919289150049634 2 0 0 1 I I #
face $-1 $-1 $254 $24 $-1 $338 reversed single #
loop $-1 $-1 $339 $160 #
plane-surface $-1 0 32.882520522905949 0 0 -1 0 0 0 -1 forward_v I I I I #
coedge $-1 $260 $259 $340 $341 forward $161 $-1 #
coedge $-1 $163 $173 $342 $343 forward $101 $-1 #
coedge $-1 $253 $169 $163 $248 reversed $254 $-1 #
edge $-1 $344 -32.882520522905949 $174 32.882520522905949 $247 $345 forward 7 unknown #
coedge $-1 $165 $164 $259 $346 forward $65 $-1 #
coedge $-1 $339 $340 $164 $251 reversed $243 $-1 #
edge $-1 $256 -52.427137058626059 $347 52.427137058626059 $250 $348 forward 7 unknown #
edge $-1 $261 -52.427137058626059 $255 52.427137058626059 $168 $349 forward 7 unknown #
coedge $-1 $166 $247 $339 $350 reversed $254 $-1 #
loop $-1 $-1 $169 $242 #
vertex $-1 $167 $351 #
vertex $-1 $167 $352 #
straight-curve $-1 52.427137058626059 0 15.41796529465079 0 1 0 I I #
straight-curve $-1 52.427137058626059 -32.882520522905949 0 0 0 -1 I I #
coedge $-1 $245 $171 $249 $346 reversed $161 $-1 #
coedge $-1 $171 $245 $173 $263 reversed $161 $-1 #
vertex $-1 $346 $353 #
straight-curve $-1 -52.427137058626059 -32.882520522905949 0 0 0 -1 I I #
edge $-1 $175 -32.882520522905949 $354 32.882520522905949 $260 $355 forward 7 unknown #
point $-1 52.427137058626059 -32.882520522905949 -15.41796529465079 #
point $-1 -52.427137058626059 -32.882520522905949 -15.41796529465079 #
face $-1 $-1 $279 $25 $-1 $356 reversed single #
plane-surface $-1 -46.497193840682215 -40.28312974833873 0 -1 0 0 0 0 1 forward_v I I I I #
coedge $-1 $357 $358 $359 $360 forward $178 $-1 #
coedge $-1 $359 $180 $278 $361 reversed $109 $-1 #
coedge $-1 $180 $359 $181 $273 reversed $109 $-1 #
edge $-1 $275 -15.41796529465079 $280 15.41796529465079 $180 $362 forward 7 unknown #
coedge $-1 $182 $181 $358 $363 forward $69 $-1 #
edge $-1 $275 32.882520522905949 $364 47.683738973771511 $270 $365 forward 7 unknown #
edge $-1 $366 -7.4006092254327811 $190 7.4006092254327811 $187 $367 forward 7 unknown #
vertex $-1 $273 $368 #
straight-curve $-1 0 -32.882520522905949 15.41796529465079 -1 0 0 I I #
coedge $-1 $369 $185 $188 $283 forward $279 $-1 #
coedge $-1 $185 $369 $269 $361 forward $279 $-1 #
loop $-1 $-1 $185 $266 #
vertex $-1 $271 $370 #
straight-curve $-1 0 -32.882520522905949 -15.41796529465079 1 0 0 I I #
coedge $-1 $188 $187 $371 $372 forward $189 $-1 #
edge $-1 $191 -7.4006092254327811 $373 7.4006092254327811 $188 $374 forward 7 unknown #
point $-1 -46.497193840682215 -32.882520522905949 15.41796529465079 #
point $-1 -46.497193840682215 -32.882520522905949 -15.41796529465079 #
plane-surface $-1 0 0 15.41796529465079 0 0 1 1 0 0 forward_v I I I I #
coedge $-1 $297 $296 $289 $375 forward $194 $-1 #
coedge $-1 $289 $196 $198 $293 reversed $117 $-1 #
coedge $-1 $196 $288 $287 $375 reversed $117 $-1 #
coedge $-1 $204 $199 $196 $291 forward $205 $-1 #
edge $-1 $294 -18.496084233222447 $376 -8.6351348739112339 $290 $377 forward 7 unknown #
coedge $-1 $198 $197 $297 $378 reversed $73 $-1 #
edge $-1 $379 -65.765041045811898 $294 -48.13078726828072 $288 $380 forward 7 unknown #
vertex $-1 $200 $381 #
straight-curve $-1 -3.7267955257974421 23.021571163594732 15.417965294650795 1 0 0 I I #
coedge $-1 $287 $201 $204 $301 reversed $194 $-1 #
coedge $-1 $201 $287 $292 $378 forward $194 $-1 #
vertex $-1 $202 $382 #
straight-curve $-1 -14.907182103189768 32.882520522905949 56.976980727565454 0 0 1 I I #
straight-curve $-1 -14.907182103189768 -3.8928229391504345 55.320196725319043 0 0.55919289150049634 -0.82903758062907751 I I #
edge $-1 $376 0 $206 14.907182103189768 $296 $383 forward 7 unknown #
point $-1 -14.907182103189768 32.882520522905949 15.41796529465079 #
point $-1 -14.907182103189768 23.021571163594736 15.417965294650791 #
edge $-1 $384 1 $384 0 $209 $-1 forward 7 unknown #
vertex $-1 $210 $385 #
ellipse-curve $-1 -10.647987216564118 26.281370788344518 6.9813512323760172 0 0.82903758062907751 0.55919289150049634 2 0 0 1 I I #
point $-1 -8.6479872165641183 27.952045843250346 8.1082357506889782 #
edge $-1 $386 1 $386 0 $213 $-1 forward 7 unknown #
vertex $-1 $214 $387 #
ellipse-curve $-1 -4.2591948866256502 26.281370788344518 6.9813512323760172 0 0.82903758062907751 0.55919289150049634 2 0 0 1 I I #
point $-1 -2.2591948866256502 27.952045843250346 8.1082357506889782 #
loop $-1 $-1 $226 $217 #
plane-surface $-1 0 32.882520522905949 0 0 -1 0 0 0 -1 forward_v I I I I #
coedge $-1 $220 $318 $229 $326 forward $139 $-1 #
edge $-1 $323 -65.765041045811898 $319 -48.13078726828072 $221 $388 forward 7 unknown #
coedge $-1 $226 $389 $222 $317 forward $312 $-1 #
edge $-1 $320 41.559015432914663 $323 56.178474520838286 $316 $390 forward 7 unknown #
coedge $-1 $314 $223 $389 $391 forward $139 $-1 #
vertex $-1 $224 $392 #
vertex $-1 $391 $393 #
straight-curve $-1 14.907182103189768 41.517655396817183 15.417965294650791 0 1 0 I I #
coedge $-1 $389 $226 $230 $327 forward $312 $-1 #
vertex $-1 $317 $394 #
straight-curve $-1 -3.7267955257974421 32.882520522905949 0.79850620672715777 -1 0 0 I I #
straight-curve $-1 -3.7267955257974421 23.021571163594732 15.417965294650795 1 0 0 I I #
edge $-1 $395 8.6351348739112339 $232 18.496084233222447 $314 $396 forward 7 unknown #
edge $-1 $231 -56.178474520838286 $395 -41.559015432914663 $322 $397 forward 7 unknown #
point $-1 0 32.882520522905949 0.79850620672716843 #
point $-1 0 23.021571163594736 15.417965294650791 #
edge $-1 $398 1 $398 0 $234 $-1 forward 7 unknown #
vertex $-1 $235 $399 #
ellipse-curve $-1 4.2591948866256502 26.281370788344518 6.9813512323760172 0 0.82903758062907751 0.55919289150049634 2 0 0 1 I I #
point $-1 6.2591948866256502 27.952045843250346 8.1082357506889782 #
edge $-1 $400 1 $400 0 $238 $-1 forward 7 unknown #
vertex $-1 $239 $401 #
ellipse-curve $-1 10.647987216564118 26.281370788344518 6.9813512323760172 0 0.82903758062907751 0.55919289150049634 2 0 0 1 I I #
point $-1 12.647987216564118 27.952045843250346 8.1082357506889782 #
plane-surface $-1 52.427137058626059 0 0 -1 0 0 0 0 1 forward_v I I I I #
coedge $-1 $342 $250 $253 $350 forward $243 $-1 #
coedge $-1 $250 $342 $245 $341 reversed $243 $-1 #
edge $-1 $347 -15.41796529465079 $354 15.41796529465079 $340 $402 forward 7 unknown #
coedge $-1 $340 $339 $246 $343 reversed $243 $-1 #
edge $-1 $354 -52.427137058626059 $344 52.427137058626059 $342 $403 forward 7 unknown #
vertex $-1 $248 $404 #
straight-curve $-1 52.427137058626059 0 -15.41796529465079 0 -1 0 I I #
edge $-1 $347 -32.882520522905949 $261 32.882520522905949 $259 $405 forward 7 unknown #
vertex $-1 $251 $406 #
straight-curve $-1 0 32.882520522905949 15.41796529465079 -1 0 0 I I #
straight-curve $-1 0 -32.882520522905949 15.41796529465079 1 0 0 I I #
edge $-1 $256 -15.41796529465079 $344 15.41796529465079 $253 $407 forward 7 unknown #
point $-1 52.427137058626059 -32.882520522905949 15.41796529465079 #
point $-1 52.427137058626059 32.882520522905949 15.41796529465079 #
point $-1 -52.427137058626059 -32.882520522905949 15.41796529465079 #
vertex $-1 $343 $408 #
straight-curve $-1 -52.427137058626059 0 -15.41796529465079 0 1 0 I I #
plane-surface $-1 0 0 -15.41796529465079 0 0 1 1 0 0 forward_v I I I I #
coedge $-1 $371 $268 $369 $409 reversed $178 $-1 #
coedge $-1 $268 $371 $272 $363 reversed $178 $-1 #
coedge $-1 $270 $269 $268 $360 reversed $109 $-1 #
edge $-1 $364 -15.41796529465079 $410 15.41796529465079 $359 $411 forward 7 unknown #
edge $-1 $410 -47.683738973771511 $280 -32.882520522905949 $269 $412 forward 7 unknown #
straight-curve $-1 -52.427137058626059 -32.882520522905949 0 0 0 -1 I I #
edge $-1 $364 -2.964971608971922 $366 2.964971608971922 $358 $413 forward 7 unknown #
vertex $-1 $273 $414 #
straight-curve $-1 -52.427137058626059 0 15.41796529465079 0 -1 0 I I #
vertex $-1 $274 $415 #
straight-curve $-1 -46.497193840682215 -40.28312974833873 15.41796529465079 0 1 0 I I #
point $-1 -52.427137058626059 -32.882520522905949 15.41796529465079 #
coedge $-1 $278 $277 $357 $409 forward $279 $-1 #
point $-1 -52.427137058626059 -32.882520522905949 -15.41796529465079 #
coedge $-1 $358 $357 $282 $372 reversed $178 $-1 #
edge $-1 $366 -15.41796529465079 $373 15.41796529465079 $282 $416 forward 7 unknown #
vertex $-1 $372 $417 #
straight-curve $-1 -46.497193840682215 -40.28312974833873 -15.41796529465079 0 -1 0 I I #
edge $-1 $376 41.559015432914663 $379 56.178474520838286 $287 $418 forward 7 unknown #
vertex $-1 $301 $419 #
straight-curve $-1 0 41.517655396817183 15.417965294650791 0 1 0 I I #
edge $-1 $379 -3.7267955257974421 $298 11.180386577392326 $297 $420 forward 7 unknown #
vertex $-1 $378 $421 #
straight-curve $-1 0 -3.8928229391504345 55.320196725319043 0 -0.55919289150049634 0.82903758062907751 I I #
point $-1 0 23.021571163594736 15.417965294650791 #
point $-1 -14.907182103189768 32.882520522905949 0.79850620672716843 #
straight-curve $-1 0 32.882520522905949 15.41796529465079 -1 0 0 I I #
vertex $-1 $304 $422 #
point $-1 -8.6479872165641183 26.281370788344518 6.9813512323760172 #
vertex $-1 $308 $423 #
point $-1 -2.2591948866256502 26.281370788344518 6.9813512323760172 #
straight-curve $-1 14.907182103189768 -3.8928229391504345 55.320196725319043 0 -0.55919289150049634 0.82903758062907751 I I #
coedge $-1 $316 $322 $318 $391 reversed $312 $-1 #
straight-curve $-1 14.907182103189768 32.882520522905949 56.976980727565454 0 0 -1 I I #
edge $-1 $320 -14.907182103189768 $395 0 $389 $424 forward 7 unknown #
point $-1 14.907182103189768 23.021571163594736 15.417965294650791 #
point $-1 14.907182103189768 32.882520522905949 15.41796529465079 #
point $-1 14.907182103189768 32.882520522905949 0.79850620672716843 #
vertex $-1 $327 $425 #
straight-curve $-1 0 41.517655396817183 15.417965294650791 0 -1 0 I I #
straight-curve $-1 0 32.882520522905949 56.976980727565454 0 0 1 I I #
vertex $-1 $330 $426 #
point $-1 6.2591948866256502 26.281370788344518 6.9813512323760172 #
vertex $-1 $334 $427 #
point $-1 12.647987216564118 26.281370788344518 6.9813512323760172 #
straight-curve $-1 -52.427137058626059 32.882520522905949 0 0 0 -1 I I #
straight-curve $-1 0 32.882520522905949 -15.41796529465079 1 0 0 I I #
point $-1 52.427137058626059 32.882520522905949 -15.41796529465079 #
straight-curve $-1 -52.427137058626059 0 15.41796529465079 0 -1 0 I I #
point $-1 -52.427137058626059 32.882520522905949 15.41796529465079 #
straight-curve $-1 52.427137058626059 32.882520522905949 0 0 0 -1 I I #
point $-1 -52.427137058626059 32.882520522905949 -15.41796529465079 #
edge $-1 $373 -2.964971608971922 $410 2.964971608971922 $357 $428 forward 7 unknown #
vertex $-1 $361 $429 #
straight-curve $-1 -52.427137058626059 -47.683738973771511 0 0 0 -1 I I #
straight-curve $-1 -52.427137058626059 0 -15.41796529465079 0 1 0 I I #
straight-curve $-1 -49.462165449654137 -47.683738973771511 15.41796529465079 1 0 0 I I #
point $-1 -52.427137058626059 -47.683738973771511 15.41796529465079 #
point $-1 -46.497193840682215 -47.683738973771511 15.41796529465079 #
straight-curve $-1 -46.497193840682215 -47.683738973771511 0 0 0 -1 I I #
point $-1 -46.497193840682215 -47.683738973771511 -15.41796529465079 #
straight-curve $-1 0 32.882520522905949 56.976980727565454 0 0 -1 I I #
point $-1 0 32.882520522905949 15.41796529465079 #
straight-curve $-1 -3.7267955257974421 32.882520522905949 0.79850620672715777 -1 0 0 I I #
point $-1 0 32.882520522905949 0.79850620672716843 #
point $-1 -10.647987216564118 24.623295627086364 5.8629654493750252 #
point $-1 -4.2591948866256502 24.623295627086364 5.8629654493750252 #
straight-curve $-1 0 32.882520522905949 15.41796529465079 -1 0 0 I I #
point $-1 0 32.882520522905949 15.41796529465079 #
point $-1 4.2591948866256502 24.623295627086364 5.8629654493750252 #
point $-1 10.647987216564118 24.623295627086364 5.8629654493750252 #
straight-curve $-1 -49.462165449654137 -47.683738973771511 -15.41796529465079 -1 0 0 I I #
point $-1 -52.427137058626059 -47.683738973771511 -15.41796529465079 #
End-of-ACIS-data 