500 0 9 0           
7 Unknown 11 ACIS 5.0 NT 24 Thu Mar 25 23:55:39 1999 
-1 9.9999999999999995e-007 1e-010 
body $-1 $9 $-1 $10 #
body $-1 $11 $-1 $12 #
body $-1 $13 $-1 $14 #
body $-1 $15 $-1 $16 #
body $-1 $17 $-1 $18 #
body $-1 $19 $-1 $20 #
body $-1 $21 $-1 $22 #
body $-1 $23 $-1 $24 #
body $-1 $25 $-1 $26 #
lump $-1 $-1 $27 $0 #
transform $-1 1 0 0 0 1 0 0 0 1 43.202002014221627 25.60648463756845 7.519633710029562 1 rotate no_reflect no_shear #
lump $-1 $-1 $28 $1 #
transform $-1 1 0 0 0 1 0 0 0 1 43.202002014221627 25.60648463756845 7.519633710029562 1 rotate no_reflect no_shear #
lump $-1 $-1 $29 $2 #
transform $-1 1 0 0 0 1 0 0 0 1 43.202002014221627 25.60648463756845 7.519633710029562 1 rotate no_reflect no_shear #
lump $-1 $-1 $30 $3 #
transform $-1 1 0 0 0 1 0 0 0 1 43.202002014221627 25.60648463756845 7.519633710029562 1 rotate no_reflect no_shear #
lump $-1 $-1 $31 $4 #
transform $-1 1 0 0 0 1 0 0 0 1 43.202002014221627 25.60648463756845 7.519633710029562 1 rotate no_reflect no_shear #
lump $-1 $-1 $32 $5 #
transform $-1 1 0 0 0 1 0 0 0 1 43.202002014221627 25.60648463756845 7.519633710029562 1 rotate no_reflect no_shear #
lump $-1 $-1 $33 $6 #
transform $-1 1 0 0 0 1 0 0 0 1 43.202002014221627 25.60648463756845 7.519633710029562 1 rotate no_reflect no_shear #
lump $-1 $-1 $34 $7 #
transform $-1 1 0 0 0 1 0 0 0 1 43.202002014221627 25.60648463756845 7.519633710029562 1 rotate no_reflect no_shear #
lump $-1 $-1 $35 $8 #
transform $-1 1 0 0 0 1 0 0 0 1 43.202002014221627 25.60648463756845 7.519633710029562 1 rotate no_reflect no_shear #
shell $-1 $-1 $-1 $36 $-1 $9 #
shell $-1 $-1 $-1 $37 $-1 $11 #
shell $-1 $-1 $-1 $38 $-1 $13 #
shell $-1 $-1 $-1 $39 $-1 $15 #
shell $-1 $-1 $-1 $40 $-1 $17 #
shell $-1 $-1 $-1 $41 $-1 $19 #
shell $-1 $-1 $-1 $42 $-1 $21 #
shell $-1 $-1 $-1 $43 $-1 $23 #
shell $-1 $-1 $-1 $44 $-1 $25 #
face $-1 $45 $46 $27 $-1 $47 forward single #
face $-1 $48 $49 $28 $-1 $50 reversed single #
face $-1 $51 $52 $29 $-1 $53 reversed single #
face $-1 $54 $55 $30 $-1 $56 forward single #
face $-1 $57 $58 $31 $-1 $59 forward single #
face $-1 $60 $61 $32 $-1 $62 forward single #
face $-1 $63 $64 $33 $-1 $65 reversed single #
face $-1 $66 $67 $34 $-1 $68 forward single #
face $-1 $69 $70 $35 $-1 $71 forward single #
face $-1 $72 $73 $27 $-1 $74 reversed single #
loop $-1 $-1 $75 $36 #
plane-surface $-1 0 0 7.519633710029562 0 0 1 1 0 0 forward_v I I I I #
face $-1 $76 $77 $28 $-1 $78 reversed single #
loop $-1 $-1 $79 $37 #
plane-surface $-1 -31.162734594162501 -23.078430921094306 0 1 0 0 0 0 -1 forward_v I I I I #
face $-1 $80 $81 $29 $-1 $82 reversed single #
loop $-1 $-1 $83 $38 #
plane-surface $-1 38.937504237455848 -2.5783554181362671 123.94246885468719 0 -1 0 -0.68199836817093118 0 -0.7313536940579346 forward_v I I I I #
face $-1 $84 $85 $30 $-1 $86 forward single #
loop $-1 $87 $88 $39 #
cone-surface $-1 39.634141237977254 -9.8070711692768047 4.1207323496088764 -0.68199836817093118 0 -0.7313536940579346 0.3656768470289673 0 -0.34099918408546559 1 I I 0 1 0.5 forward I I I I #
face $-1 $89 $90 $31 $-1 $91 forward single #
loop $-1 $92 $93 $40 #
cone-surface $-1 39.634141237977254 -7.0963027625991018 4.1207323496088764 -0.68199836817093118 0 -0.7313536940579346 0.3656768470289673 0 -0.34099918408546559 1 I I 0 1 0.5 forward I I I I #
face $-1 $94 $95 $32 $-1 $96 forward single #
loop $-1 $97 $98 $41 #
cone-surface $-1 39.634141237977254 -4.3855343559214006 4.1207323496088764 -0.68199836817093118 0 -0.7313536940579346 0.3656768470289673 0 -0.34099918408546559 1 I I 0 1 0.5 forward I I I I #
face $-1 $99 $100 $33 $-1 $101 reversed single #
loop $-1 $-1 $102 $42 #
plane-surface $-1 -106.39389090923643 -13.483332456296207 62.352665664785242 0 1 0 -0.73135370988377701 0 0.68199835119979291 forward_v I I I I #
face $-1 $103 $104 $34 $-1 $105 forward single #
loop $-1 $106 $107 $43 #
cone-surface $-1 -40.894044143488259 -11.572604283747371 5.1004441455940999 0.73135370988377701 0 -0.68199835119979291 0.34099917559989645 0 0.36567685494188851 1 I I 0 1 0.5 forward I I I I #
face $-1 $108 $109 $35 $-1 $110 forward single #
loop $-1 $111 $112 $44 #
cone-surface $-1 -40.894044143488259 -8.7065120249241161 5.1004441455940999 0.73135370988377701 0 -0.68199835119979291 0.34099917559989645 0 0.36567685494188851 1 I I 0 1 0.5 forward I I I I #
face $-1 $113 $114 $27 $-1 $115 reversed single #
loop $-1 $-1 $116 $45 #
plane-surface $-1 0 0 -7.519633710029562 0 0 1 1 0 0 forward_v I I I I #
coedge $-1 $117 $118 $119 $120 forward $46 $-1 #
face $-1 $121 $122 $28 $-1 $123 reversed single #
loop $-1 $-1 $124 $48 #
plane-surface $-1 -29.662734594162501 -20.550377204620162 0 0 -1 0 0 0 -1 forward_v I I I I #
coedge $-1 $125 $126 $127 $128 forward $49 $-1 #
face $-1 $129 $130 $29 $-1 $131 reversed single #
loop $-1 $-1 $132 $51 #
plane-surface $-1 -19.989885513377018 -7.0963027625991018 60.750581327088554 0.68199836817093118 0 0.7313536940579346 0.7313536940579346 0 -0.68199836817093118 forward_v I I I I #
coedge $-1 $133 $134 $135 $136 reversed $52 $-1 #
face $-1 $-1 $137 $30 $-1 $138 forward single #
loop $-1 $139 $140 $54 #
cone-surface $-1 38.950123953161146 -9.8070711692768047 3.3872136325606279 -0.68199836817093118 0 -0.7313536940579346 0.18283842351448365 0 -0.17049959204273279 1 I I -0.70710678118654746 0.70710678118654746 0.25 forward I I I I #
loop $-1 $-1 $141 $39 #
coedge $-1 $88 $88 $142 $143 reversed $55 $-1 #
face $-1 $-1 $144 $31 $-1 $145 forward single #
loop $-1 $146 $147 $57 #
cone-surface $-1 38.950123953161146 -7.0963027625991018 3.3872136325606279 -0.68199836817093118 0 -0.7313536940579346 0.18283842351448365 0 -0.17049959204273279 1 I I -0.70710678118654746 0.70710678118654746 0.25 forward I I I I #
loop $-1 $-1 $148 $40 #
coedge $-1 $93 $93 $149 $150 reversed $58 $-1 #
face $-1 $-1 $151 $32 $-1 $152 forward single #
loop $-1 $153 $154 $60 #
cone-surface $-1 38.950123953161146 -4.3855343559214006 3.3872136325606279 -0.68199836817093118 0 -0.7313536940579346 0.18283842351448365 0 -0.17049959204273279 1 I I -0.70710678118654746 0.70710678118654746 0.25 forward I I I I #
loop $-1 $-1 $155 $41 #
coedge $-1 $98 $98 $156 $157 reversed $61 $-1 #
face $-1 $158 $159 $33 $-1 $160 reversed single #
loop $-1 $-1 $161 $63 #
plane-surface $-1 -43.202002014221648 -10.139558154335743 3.4252773803266763 -0.73135370988377701 0 0.68199835119979291 0.68199835119979291 0 0.73135370988377701 forward_v I I I I #
coedge $-1 $162 $163 $164 $165 reversed $64 $-1 #
face $-1 $-1 $166 $34 $-1 $167 forward single #
loop $-1 $168 $169 $66 #
cone-surface $-1 -40.312272321638588 -11.572604283747371 4.5579331582101341 0.73135370988377701 0 -0.68199835119979291 0.17049958779994823 0 0.18283842747094425 1 I I -0.70710678118654746 0.70710678118654746 0.25 forward I I I I #
loop $-1 $-1 $170 $43 #
coedge $-1 $107 $107 $171 $172 reversed $67 $-1 #
face $-1 $-1 $173 $35 $-1 $174 forward single #
loop $-1 $175 $176 $69 #
cone-surface $-1 -40.312272321638588 -8.7065120249241161 4.5579331582101341 0.73135370988377701 0 -0.68199835119979291 0.17049958779994823 0 0.18283842747094425 1 I I -0.70710678118654746 0.70710678118654746 0.25 forward I I I I #
loop $-1 $-1 $177 $44 #
coedge $-1 $112 $112 $178 $179 reversed $70 $-1 #
face $-1 $180 $181 $27 $-1 $182 reversed single #
loop $-1 $-1 $183 $72 #
plane-surface $-1 0 -25.60648463756845 0 0 1 0 0 0 1 forward_v I I I I #
coedge $-1 $184 $185 $186 $187 forward $73 $-1 #
coedge $-1 $188 $75 $189 $190 forward $46 $-1 #
coedge $-1 $75 $188 $191 $192 forward $46 $-1 #
coedge $-1 $193 $194 $75 $120 reversed $195 $-1 #
edge $-1 $196 -25.60648463756845 $197 25.60648463756845 $119 $198 forward 7 unknown #
face $-1 $199 $200 $28 $-1 $201 forward single #
loop $-1 $-1 $202 $76 #
plane-surface $-1 -28.162734594162501 -23.078430921094306 0 -1 0 0 0 0 1 forward_v I I I I #
coedge $-1 $203 $204 $205 $206 forward $77 $-1 #
coedge $-1 $207 $79 $208 $209 reversed $49 $-1 #
coedge $-1 $79 $207 $210 $211 reversed $49 $-1 #
coedge $-1 $204 $203 $79 $128 reversed $77 $-1 #
edge $-1 $212 -7.519633710029562 $213 7.519633710029562 $127 $214 forward 7 unknown #
face $-1 $215 $216 $29 $-1 $217 reversed single #
loop $-1 $-1 $218 $80 #
plane-surface $-1 38.937504237455848 -11.614250107061936 123.94246885468719 0 1 0 0.68199836817093118 0 0.7313536940579346 forward_v I I I I #
coedge $-1 $219 $220 $221 $222 reversed $81 $-1 #
coedge $-1 $134 $83 $223 $224 reversed $52 $-1 #
coedge $-1 $83 $133 $219 $225 reversed $52 $-1 #
coedge $-1 $221 $226 $83 $136 forward $227 $-1 #
edge $-1 $228 -23.733249895493703 $229 -17.624563728551703 $135 $230 forward 7 unknown #
loop $-1 $-1 $142 $84 #
plane-surface $-1 -19.989885513377018 -7.0963027625991018 60.750581327088554 0.68199836817093118 0 0.7313536940579346 0.7313536940579346 0 -0.68199836817093118 forward_v I I I I #
loop $-1 $-1 $231 $54 #
coedge $-1 $140 $140 $141 $232 reversed $85 $-1 #
coedge $-1 $141 $141 $140 $232 forward $87 $-1 #
coedge $-1 $142 $142 $88 $143 forward $137 $-1 #
edge $-1 $233 0 $233 6.2831853071796004 $142 $234 forward 7 unknown #
loop $-1 $-1 $149 $89 #
plane-surface $-1 -19.989885513377018 -7.0963027625991018 60.750581327088554 0.68199836817093118 0 0.7313536940579346 0.7313536940579346 0 -0.68199836817093118 forward_v I I I I #
loop $-1 $-1 $235 $57 #
coedge $-1 $147 $147 $148 $236 reversed $90 $-1 #
coedge $-1 $148 $148 $147 $236 forward $92 $-1 #
coedge $-1 $149 $149 $93 $150 forward $144 $-1 #
edge $-1 $237 0 $237 6.2831853071796004 $149 $238 forward 7 unknown #
loop $-1 $-1 $156 $94 #
plane-surface $-1 -19.989885513377018 -7.0963027625991018 60.750581327088554 0.68199836817093118 0 0.7313536940579346 0.7313536940579346 0 -0.68199836817093118 forward_v I I I I #
loop $-1 $-1 $239 $60 #
coedge $-1 $154 $154 $155 $240 reversed $95 $-1 #
coedge $-1 $155 $155 $154 $240 forward $97 $-1 #
coedge $-1 $156 $156 $98 $157 forward $151 $-1 #
edge $-1 $241 0 $241 6.2831853071796004 $156 $242 forward 7 unknown #
face $-1 $243 $244 $33 $-1 $245 reversed single #
loop $-1 $-1 $246 $99 #
plane-surface $-1 -106.39389090923643 -6.7957838523752798 62.352665664785242 0 -1 0 0.73135370988377701 0 -0.68199835119979291 forward_v I I I I #
coedge $-1 $247 $248 $249 $250 reversed $100 $-1 #
coedge $-1 $163 $102 $251 $252 reversed $64 $-1 #
coedge $-1 $102 $162 $247 $253 reversed $64 $-1 #
coedge $-1 $249 $254 $102 $165 forward $255 $-1 #
edge $-1 $256 9.9949434403965896 $257 13.812992393105851 $164 $258 forward 7 unknown #
loop $-1 $-1 $171 $103 #
plane-surface $-1 -43.202002014221648 -10.139558154335743 3.4252773803266763 -0.73135370988377701 0 0.68199835119979291 0.68199835119979291 0 0.73135370988377701 forward_v I I I I #
loop $-1 $-1 $259 $66 #
coedge $-1 $169 $169 $170 $260 reversed $104 $-1 #
coedge $-1 $170 $170 $169 $260 forward $106 $-1 #
coedge $-1 $171 $171 $107 $172 forward $166 $-1 #
edge $-1 $261 0 $261 6.2831853071796004 $171 $262 forward 7 unknown #
loop $-1 $-1 $178 $108 #
plane-surface $-1 -43.202002014221648 -10.139558154335743 3.4252773803266763 -0.73135370988377701 0 0.68199835119979291 0.68199835119979291 0 0.73135370988377701 forward_v I I I I #
loop $-1 $-1 $263 $69 #
coedge $-1 $176 $176 $177 $264 reversed $109 $-1 #
coedge $-1 $177 $177 $176 $264 forward $111 $-1 #
coedge $-1 $178 $178 $112 $179 forward $173 $-1 #
edge $-1 $265 0 $265 6.2831853071796004 $178 $266 forward 7 unknown #
face $-1 $267 $268 $27 $-1 $269 reversed single #
loop $-1 $-1 $270 $113 #
plane-surface $-1 -43.202002014221627 0 0 1 0 0 0 0 -1 forward_v I I I I #
coedge $-1 $271 $191 $272 $273 forward $114 $-1 #
coedge $-1 $274 $116 $271 $275 forward $73 $-1 #
coedge $-1 $116 $274 $276 $277 forward $73 $-1 #
coedge $-1 $194 $193 $116 $187 reversed $195 $-1 #
edge $-1 $278 -25.60648463756845 $279 25.60648463756845 $186 $280 forward 7 unknown #
coedge $-1 $118 $117 $281 $282 forward $46 $-1 #
coedge $-1 $283 $284 $117 $190 reversed $268 $-1 #
edge $-1 $197 -43.202002014221627 $285 43.202002014221627 $189 $286 forward 7 unknown #
coedge $-1 $183 $287 $118 $192 reversed $114 $-1 #
edge $-1 $288 -43.202002014221627 $196 43.202002014221627 $191 $289 forward 7 unknown #
coedge $-1 $186 $119 $287 $290 forward $195 $-1 #
coedge $-1 $119 $186 $283 $291 reversed $195 $-1 #
loop $-1 $-1 $193 $267 #
vertex $-1 $120 $292 #
vertex $-1 $120 $293 #
straight-curve $-1 43.202002014221627 0 7.519633710029562 0 1 0 I I #
face $-1 $294 $295 $28 $-1 $296 reversed single #
loop $-1 $-1 $297 $121 #
plane-surface $-1 0 0 7.519633710029562 0 0 1 1 0 0 forward_v I I I I #
coedge $-1 $298 $299 $300 $301 reversed $122 $-1 #
coedge $-1 $127 $124 $302 $303 reversed $77 $-1 #
coedge $-1 $124 $127 $304 $305 reversed $77 $-1 #
coedge $-1 $299 $298 $124 $206 reversed $122 $-1 #
edge $-1 $306 -7.519633710029562 $307 7.519633710029562 $205 $308 forward 7 unknown #
coedge $-1 $126 $125 $309 $310 reversed $49 $-1 #
coedge $-1 $302 $311 $125 $209 forward $295 $-1 #
edge $-1 $312 -14.067269177021297 $213 -9.011161744073009 $208 $313 forward 7 unknown #
coedge $-1 $314 $304 $126 $211 forward $200 $-1 #
edge $-1 $212 9.011161744073009 $315 14.067269177021297 $210 $316 forward 7 unknown #
vertex $-1 $211 $317 #
vertex $-1 $209 $318 #
straight-curve $-1 -31.162734594162501 -20.550377204620162 0 0 0 -1 I I #
face $-1 $-1 $227 $29 $-1 $319 forward single #
loop $-1 $-1 $320 $129 #
plane-surface $-1 43.202002014221627 0 0 -1 0 0 0 0 1 forward_v I I I I #
coedge $-1 $321 $322 $323 $324 reversed $130 $-1 #
coedge $-1 $325 $132 $134 $225 forward $81 $-1 #
coedge $-1 $132 $325 $321 $326 forward $81 $-1 #
coedge $-1 $323 $135 $132 $222 forward $227 $-1 #
edge $-1 $229 -0.96979596316328376 $327 8.0660987257623855 $221 $328 forward 7 unknown #
coedge $-1 $329 $330 $133 $224 forward $216 $-1 #
edge $-1 $331 -60.148042851087915 $228 -54.451600717314037 $223 $332 forward 7 unknown #
edge $-1 $229 78.051429594795707 $331 86.404004028443268 $134 $333 forward 7 unknown #
coedge $-1 $135 $323 $329 $334 forward $227 $-1 #
loop $-1 $-1 $323 $215 #
vertex $-1 $224 $335 #
vertex $-1 $136 $336 #
straight-curve $-1 19.468752118727924 -2.5783554181362671 7.5196337100295594 -1 0 0 I I #
coedge $-1 $231 $231 $-1 $337 reversed $139 $-1 #
edge $-1 $338 0 $338 6.2831853071796004 $140 $339 forward 7 unknown #
vertex $-1 $143 $340 #
ellipse-curve $-1 40.147658930750616 -9.8070711692768047 4.6714126431426255 0.68199836817093118 0 0.7313536940579346 0.3656768470289673 0 -0.34099918408546559 1 I I #
coedge $-1 $235 $235 $-1 $341 reversed $146 $-1 #
edge $-1 $342 0 $342 6.2831853071796004 $147 $343 forward 7 unknown #
vertex $-1 $150 $344 #
ellipse-curve $-1 40.147658930750616 -7.0963027625991018 4.6714126431426255 0.68199836817093118 0 0.7313536940579346 0.3656768470289673 0 -0.34099918408546559 1 I I #
coedge $-1 $239 $239 $-1 $345 reversed $153 $-1 #
edge $-1 $346 0 $346 6.2831853071796004 $154 $347 forward 7 unknown #
vertex $-1 $157 $348 #
ellipse-curve $-1 40.147658930750616 -4.3855343559214006 4.6714126431426255 0.68199836817093118 0 0.7313536940579346 0.3656768470289673 0 -0.34099918408546559 1 I I #
face $-1 $-1 $255 $33 $-1 $349 forward single #
loop $-1 $-1 $350 $158 #
plane-surface $-1 -43.202002014221627 0 0 1 0 0 0 0 -1 forward_v I I I I #
coedge $-1 $351 $352 $353 $354 reversed $159 $-1 #
coedge $-1 $355 $161 $163 $253 forward $100 $-1 #
coedge $-1 $161 $355 $351 $356 forward $100 $-1 #
coedge $-1 $353 $164 $161 $250 forward $255 $-1 #
edge $-1 $257 -8.4135533791283343 $357 -1.7260047752074081 $249 $358 forward 7 unknown #
coedge $-1 $359 $360 $162 $252 forward $244 $-1 #
edge $-1 $361 -27.751055452065923 $256 -23.656699122363058 $251 $362 forward 7 unknown #
edge $-1 $257 -5.5983257818621581 $361 -3.1101770075664475e-014 $163 $363 forward 7 unknown #
coedge $-1 $164 $353 $359 $364 forward $255 $-1 #
loop $-1 $-1 $353 $243 #
vertex $-1 $252 $365 #
vertex $-1 $165 $366 #
straight-curve $-1 -53.196945454618216 -13.483332456296207 7.5196337100295629 1 0 0 I I #
coedge $-1 $259 $259 $-1 $367 reversed $168 $-1 #
edge $-1 $368 0 $368 6.2831853071796004 $169 $369 forward 7 unknown #
vertex $-1 $172 $370 #
ellipse-curve $-1 -41.292977537866996 -11.572604283747371 5.4724555451781294 -0.73135370988377701 0 0.68199835119979291 0.34099917559989645 0 0.36567685494188851 1 I I #
coedge $-1 $263 $263 $-1 $371 reversed $175 $-1 #
edge $-1 $372 0 $372 6.2831853071796004 $176 $373 forward 7 unknown #
vertex $-1 $179 $374 #
ellipse-curve $-1 -41.292977537866996 -8.7065120249241161 5.4724555451781294 -0.73135370988377701 0 0.68199835119979291 0.34099917559989645 0 0.36567685494188851 1 I I #
face $-1 $-1 $195 $27 $-1 $375 reversed single #
loop $-1 $-1 $283 $180 #
plane-surface $-1 0 25.60648463756845 0 0 -1 0 0 0 -1 forward_v I I I I #
coedge $-1 $376 $281 $284 $377 forward $181 $-1 #
coedge $-1 $287 $183 $184 $275 reversed $114 $-1 #
coedge $-1 $281 $376 $183 $273 reversed $181 $-1 #
edge $-1 $288 -7.519633710029562 $378 7.519633710029562 $272 $379 forward 7 unknown #
coedge $-1 $185 $184 $376 $380 forward $73 $-1 #
edge $-1 $279 -43.202002014221627 $378 43.202002014221627 $271 $381 forward 7 unknown #
coedge $-1 $284 $283 $185 $277 reversed $268 $-1 #
edge $-1 $382 -43.202002014221627 $278 43.202002014221627 $276 $383 forward 7 unknown #
vertex $-1 $187 $384 #
vertex $-1 $290 $385 #
straight-curve $-1 43.202002014221627 0 -7.519633710029562 0 -1 0 I I #
coedge $-1 $270 $272 $188 $282 reversed $181 $-1 #
edge $-1 $285 -25.60648463756845 $288 25.60648463756845 $281 $386 forward 7 unknown #
coedge $-1 $276 $189 $194 $291 forward $268 $-1 #
coedge $-1 $189 $276 $270 $377 reversed $268 $-1 #
vertex $-1 $190 $387 #
straight-curve $-1 0 25.60648463756845 7.519633710029562 -1 0 0 I I #
coedge $-1 $191 $271 $193 $290 reversed $114 $-1 #
vertex $-1 $282 $388 #
straight-curve $-1 0 -25.60648463756845 7.519633710029562 1 0 0 I I #
edge $-1 $196 -7.519633710029562 $279 7.519633710029562 $193 $389 forward 7 unknown #
edge $-1 $197 -7.519633710029562 $278 7.519633710029562 $194 $390 forward 7 unknown #
point $-1 43.202002014221627 -25.60648463756845 7.519633710029562 #
point $-1 43.202002014221627 25.60648463756845 7.519633710029562 #
face $-1 $-1 $391 $28 $-1 $392 reversed single #
loop $-1 $-1 $393 $199 #
plane-surface $-1 0 0 -7.519633710029562 0 0 1 1 0 0 forward_v I I I I #
coedge $-1 $304 $314 $299 $394 forward $200 $-1 #
coedge $-1 $205 $202 $393 $395 reversed $122 $-1 #
coedge $-1 $202 $205 $297 $394 reversed $122 $-1 #
coedge $-1 $396 $397 $202 $301 forward $391 $-1 #
edge $-1 $398 -7.519633710029562 $399 7.519633710029562 $300 $400 forward 7 unknown #
coedge $-1 $393 $208 $203 $303 forward $295 $-1 #
edge $-1 $213 -16.33136729708125 $307 -13.33136729708125 $302 $401 forward 7 unknown #
coedge $-1 $210 $297 $204 $305 forward $200 $-1 #
edge $-1 $306 13.33136729708125 $212 16.33136729708125 $304 $402 forward 7 unknown #
vertex $-1 $305 $403 #
vertex $-1 $303 $404 #
straight-curve $-1 -28.162734594162501 -20.550377204620162 0 0 0 -1 I I #
coedge $-1 $397 $396 $207 $310 forward $391 $-1 #
edge $-1 $315 -7.519633710029562 $312 7.519633710029562 $309 $405 forward 7 unknown #
coedge $-1 $208 $393 $397 $406 forward $295 $-1 #
vertex $-1 $209 $407 #
straight-curve $-1 -31.162734594162501 -11.539215460547153 -7.519633710029562 0 1 0 I I #
coedge $-1 $297 $210 $396 $408 forward $200 $-1 #
vertex $-1 $408 $409 #
straight-curve $-1 -31.162734594162501 -11.539215460547153 7.519633710029562 0 -1 0 I I #
point $-1 -31.162734594162501 -20.550377204620162 7.519633710029562 #
point $-1 -31.162734594162501 -20.550377204620162 -7.519633710029562 #
plane-surface $-1 0 0 7.519633710029562 0 0 1 1 0 0 forward_v I I I I #
coedge $-1 $330 $329 $322 $410 forward $216 $-1 #
coedge $-1 $322 $218 $220 $326 reversed $130 $-1 #
coedge $-1 $218 $321 $320 $410 reversed $130 $-1 #
coedge $-1 $226 $221 $218 $324 forward $227 $-1 #
edge $-1 $327 17.624563728551703 $411 23.733249895493703 $323 $412 forward 7 unknown #
coedge $-1 $220 $219 $330 $413 reversed $81 $-1 #
edge $-1 $414 -86.404004028443268 $327 -78.051429594795707 $321 $415 forward 7 unknown #
vertex $-1 $222 $416 #
straight-curve $-1 37.093315847279626 -3.5481513812995509 7.5196337100295594 0 -1 0 I I #
coedge $-1 $320 $223 $226 $334 reversed $216 $-1 #
coedge $-1 $223 $320 $325 $413 forward $216 $-1 #
vertex $-1 $224 $417 #
straight-curve $-1 43.202002014221627 -2.5783554181362671 61.971234427343596 0 0 1 I I #
straight-curve $-1 -19.989885513377018 -2.5783554181362671 60.750581327088554 0.7313536940579346 0 -0.68199836817093118 I I #
edge $-1 $411 -11.614250107061936 $228 -2.5783554181362671 $329 $418 forward 7 unknown #
point $-1 43.202002014221627 -2.5783554181362671 7.519633710029562 #
point $-1 37.093315847279626 -2.5783554181362671 7.5196337100295594 #
edge $-1 $419 1 $419 0 $231 $-1 forward 7 unknown #
vertex $-1 $232 $420 #
ellipse-curve $-1 39.120623545203877 -9.8070711692768047 3.5700520560751117 0.68199836817093118 0 0.7313536940579346 0.3656768470289673 0 -0.34099918408546559 1 I I #
point $-1 40.513335777779602 -9.8070711692768047 4.3304134590571763 #
edge $-1 $421 1 $421 0 $235 $-1 forward 7 unknown #
vertex $-1 $236 $422 #
ellipse-curve $-1 39.120623545203877 -7.0963027625991018 3.5700520560751117 0.68199836817093118 0 0.7313536940579346 0.3656768470289673 0 -0.34099918408546559 1 I I #
point $-1 40.513335777779602 -7.0963027625991018 4.3304134590571763 #
edge $-1 $423 1 $423 0 $239 $-1 forward 7 unknown #
vertex $-1 $240 $424 #
ellipse-curve $-1 39.120623545203877 -4.3855343559214006 3.5700520560751117 0.68199836817093118 0 0.7313536940579346 0.3656768470289673 0 -0.34099918408546559 1 I I #
point $-1 40.513335777779602 -4.3855343559214006 4.3304134590571763 #
plane-surface $-1 0 0 7.519633710029562 0 0 1 1 0 0 forward_v I I I I #
coedge $-1 $360 $359 $352 $425 forward $244 $-1 #
coedge $-1 $352 $246 $248 $356 reversed $159 $-1 #
coedge $-1 $246 $351 $350 $425 reversed $159 $-1 #
coedge $-1 $254 $249 $246 $354 forward $255 $-1 #
edge $-1 $357 -13.812992393105851 $426 -9.9949434403965896 $353 $427 forward 7 unknown #
coedge $-1 $248 $247 $360 $428 reversed $100 $-1 #
edge $-1 $429 3.1101770075664475e-014 $357 5.5983257818621581 $351 $430 forward 7 unknown #
vertex $-1 $250 $431 #
straight-curve $-1 -39.383953061512365 -5.0697790771678717 7.5196337100295612 0 1 0 I I #
coedge $-1 $350 $251 $254 $364 reversed $244 $-1 #
coedge $-1 $251 $350 $355 $428 forward $244 $-1 #
vertex $-1 $252 $432 #
straight-curve $-1 -43.202002014221627 -13.483332456296207 31.176332832392621 0 0 1 I I #
straight-curve $-1 -43.202002014221648 -13.483332456296207 3.4252773803266763 -0.68199835119979291 0 -0.73135370988377701 I I #
edge $-1 $426 6.7957838523752798 $256 13.483332456296207 $359 $433 forward 7 unknown #
point $-1 -43.202002014221627 -13.483332456296207 7.519633710029562 #
point $-1 -39.383953061512365 -13.483332456296207 7.519633710029562 #
edge $-1 $434 1 $434 0 $259 $-1 forward 7 unknown #
vertex $-1 $260 $435 #
ellipse-curve $-1 -40.495110749109529 -11.572604283747371 4.7284327460100819 -0.73135370988377701 0 0.68199835119979291 0.34099917559989645 0 0.36567685494188851 1 I I #
point $-1 -40.951978362267084 -11.572604283747371 5.8381324001200063 #
edge $-1 $436 1 $436 0 $263 $-1 forward 7 unknown #
vertex $-1 $264 $437 #
ellipse-curve $-1 -40.495110749109529 -8.7065120249241161 4.7284327460100819 -0.73135370988377701 0 0.68199835119979291 0.34099917559989645 0 0.36567685494188851 1 I I #
point $-1 -40.951978362267084 -8.7065120249241161 5.8381324001200063 #
plane-surface $-1 43.202002014221627 0 0 -1 0 0 0 0 1 forward_v I I I I #
coedge $-1 $272 $270 $274 $380 reversed $181 $-1 #
edge $-1 $285 -7.519633710029562 $382 7.519633710029562 $284 $438 forward 7 unknown #
vertex $-1 $380 $439 #
straight-curve $-1 -43.202002014221627 -25.60648463756845 0 0 0 -1 I I #
edge $-1 $378 -25.60648463756845 $382 25.60648463756845 $376 $440 forward 7 unknown #
straight-curve $-1 0 -25.60648463756845 -7.519633710029562 -1 0 0 I I #
vertex $-1 $277 $441 #
straight-curve $-1 0 25.60648463756845 -7.519633710029562 1 0 0 I I #
point $-1 43.202002014221627 25.60648463756845 -7.519633710029562 #
point $-1 43.202002014221627 -25.60648463756845 -7.519633710029562 #
straight-curve $-1 -43.202002014221627 0 7.519633710029562 0 -1 0 I I #
point $-1 -43.202002014221627 25.60648463756845 7.519633710029562 #
point $-1 -43.202002014221627 -25.60648463756845 7.519633710029562 #
straight-curve $-1 43.202002014221627 -25.60648463756845 0 0 0 -1 I I #
straight-curve $-1 43.202002014221627 25.60648463756845 0 0 0 -1 I I #
loop $-1 $-1 $300 $294 #
plane-surface $-1 0 -25.60648463756845 0 0 1 0 0 0 1 forward_v I I I I #
coedge $-1 $311 $302 $298 $395 forward $295 $-1 #
edge $-1 $399 -14.067269177021297 $306 -9.011161744073009 $297 $442 forward 7 unknown #
edge $-1 $307 9.011161744073009 $398 14.067269177021297 $393 $443 forward 7 unknown #
coedge $-1 $309 $300 $314 $408 reversed $391 $-1 #
coedge $-1 $300 $309 $311 $406 reversed $391 $-1 #
vertex $-1 $406 $444 #
vertex $-1 $301 $445 #
straight-curve $-1 -28.162734594162501 -25.60648463756845 0 0 0 1 I I #
straight-curve $-1 -14.83136729708125 -20.550377204620162 -7.519633710029562 1 0 0 I I #
straight-curve $-1 -14.83136729708125 -20.550377204620162 7.519633710029562 -1 0 0 I I #
point $-1 -28.162734594162501 -20.550377204620162 7.519633710029562 #
point $-1 -28.162734594162501 -20.550377204620162 -7.519633710029562 #
straight-curve $-1 -31.162734594162501 -25.60648463756845 0 0 0 -1 I I #
edge $-1 $398 28.162734594162501 $312 31.162734594162501 $397 $446 forward 7 unknown #
point $-1 -31.162734594162501 -25.60648463756845 -7.519633710029562 #
edge $-1 $315 -31.162734594162501 $399 -28.162734594162501 $396 $447 forward 7 unknown #
point $-1 -31.162734594162501 -25.60648463756845 7.519633710029562 #
edge $-1 $411 54.451600717314037 $414 60.148042851087915 $320 $448 forward 7 unknown #
vertex $-1 $334 $449 #
straight-curve $-1 19.468752118727924 -11.614250107061936 7.5196337100295594 1 0 0 I I #
edge $-1 $414 -8.0660987257623855 $331 0.96979596316328376 $330 $450 forward 7 unknown #
vertex $-1 $413 $451 #
straight-curve $-1 -19.989885513377018 -11.614250107061936 60.750581327088554 -0.7313536940579346 0 0.68199836817093118 I I #
point $-1 37.093315847279626 -11.614250107061936 7.5196337100295594 #
point $-1 43.202002014221627 -2.5783554181362671 1.823191576255681 #
straight-curve $-1 43.202002014221627 0 7.519633710029562 0 1 0 I I #
vertex $-1 $337 $452 #
point $-1 39.486300392232849 -9.8070711692768047 3.2290528719896461 #
vertex $-1 $341 $453 #
point $-1 39.486300392232849 -7.0963027625991018 3.2290528719896461 #
vertex $-1 $345 $454 #
point $-1 39.486300392232849 -4.3855343559214006 3.2290528719896461 #
edge $-1 $426 23.656699122363058 $429 27.751055452065923 $350 $455 forward 7 unknown #
vertex $-1 $364 $456 #
straight-curve $-1 -53.196945454618216 -6.7957838523752798 7.5196337100295629 -1 0 0 I I #
edge $-1 $429 1.7260047752074081 $361 8.4135533791283343 $360 $457 forward 7 unknown #
vertex $-1 $428 $458 #
straight-curve $-1 -43.202002014221648 -6.7957838523752798 3.4252773803266763 0.68199835119979291 0 0.73135370988377701 I I #
point $-1 -39.383953061512365 -6.7957838523752798 7.519633710029562 #
point $-1 -43.202002014221627 -13.483332456296207 3.4252773803266989 #
straight-curve $-1 -43.202002014221627 0 7.519633710029562 0 -1 0 I I #
vertex $-1 $367 $459 #
point $-1 -40.154111573509638 -11.572604283747371 5.0941096009519704 #
vertex $-1 $371 $460 #
point $-1 -40.154111573509638 -8.7065120249241161 5.0941096009519704 #
straight-curve $-1 -43.202002014221627 25.60648463756845 0 0 0 -1 I I #
point $-1 -43.202002014221627 -25.60648463756845 -7.519633710029562 #
straight-curve $-1 -43.202002014221627 0 -7.519633710029562 0 1 0 I I #
point $-1 -43.202002014221627 25.60648463756845 -7.519633710029562 #
straight-curve $-1 -28.162734594162501 -11.539215460547153 7.519633710029562 0 1 0 I I #
straight-curve $-1 -28.162734594162501 -11.539215460547153 -7.519633710029562 0 -1 0 I I #
point $-1 -28.162734594162501 -25.60648463756845 -7.519633710029562 #
point $-1 -28.162734594162501 -25.60648463756845 7.519633710029562 #
straight-curve $-1 0 -25.60648463756845 -7.519633710029562 -1 0 0 I I #
straight-curve $-1 0 -25.60648463756845 7.519633710029562 1 0 0 I I #
straight-curve $-1 43.202002014221627 -11.614250107061936 61.971234427343596 0 0 -1 I I #
point $-1 43.202002014221627 -11.614250107061936 7.519633710029562 #
straight-curve $-1 43.202002014221627 -3.5481513812995509 1.8231915762556845 0 1 0 I I #
point $-1 43.202002014221627 -11.614250107061936 1.823191576255681 #
point $-1 38.779624361118415 -9.8070711692768047 3.2043752090461441 #
point $-1 38.779624361118415 -7.0963027625991018 3.2043752090461441 #
point $-1 38.779624361118415 -4.3855343559214006 3.2043752090461441 #
straight-curve $-1 -43.202002014221627 -6.7957838523752798 31.176332832392621 0 0 -1 I I #
point $-1 -43.202002014221627 -6.7957838523752798 7.519633710029562 #
straight-curve $-1 -43.202002014221627 -5.0697790771678717 3.4252773803266949 0 -1 0 I I #
point $-1 -43.202002014221627 -6.7957838523752798 3.4252773803266989 #
point $-1 -40.129433894167647 -11.572604283747371 4.3874335704101863 #
point $-1 -40.129433894167647 -8.7065120249241161 4.3874335704101863 #
End-of-ACIS-data 