500 0 12 0           
7 Unknown 11 ACIS 5.0 NT 24 Fri Mar 26 02:55:15 1999 
-1 9.9999999999999995e-007 1e-010 
body $-1 $12 $-1 $13 #
body $-1 $14 $-1 $15 #
body $-1 $16 $-1 $17 #
body $-1 $18 $-1 $19 #
body $-1 $20 $-1 $21 #
body $-1 $22 $-1 $23 #
body $-1 $24 $-1 $25 #
body $-1 $26 $-1 $27 #
body $-1 $28 $-1 $29 #
body $-1 $30 $-1 $31 #
body $-1 $32 $-1 $33 #
body $-1 $34 $-1 $35 #
lump $-1 $-1 $36 $0 #
transform $-1 1 0 0 0 1 0 0 0 1 66.073793755912959 31.893959584311911 8.320053338260486 1 rotate no_reflect no_shear #
lump $-1 $-1 $37 $1 #
transform $-1 1 0 0 0 1 0 0 0 1 66.073793755912959 31.893959584311911 8.320053338260486 1 rotate no_reflect no_shear #
lump $-1 $-1 $38 $2 #
transform $-1 1 0 0 0 1 0 0 0 1 66.073793755912959 31.893959584311911 8.320053338260486 1 rotate no_reflect no_shear #
lump $-1 $-1 $39 $3 #
transform $-1 1 0 0 0 1 0 0 0 1 66.073793755912959 31.893959584311911 8.320053338260486 1 rotate no_reflect no_shear #
lump $-1 $-1 $40 $4 #
transform $-1 1 0 0 0 1 0 0 0 1 66.073793755912959 31.893959584311911 8.320053338260486 1 rotate no_reflect no_shear #
lump $-1 $-1 $41 $5 #
transform $-1 1 0 0 0 1 0 0 0 1 66.073793755912959 31.893959584311911 8.320053338260486 1 rotate no_reflect no_shear #
lump $-1 $-1 $42 $6 #
transform $-1 1 0 0 0 1 0 0 0 1 66.073793755912959 31.893959584311911 8.320053338260486 1 rotate no_reflect no_shear #
lump $-1 $-1 $43 $7 #
transform $-1 1 0 0 0 1 0 0 0 1 66.073793755912959 31.893959584311911 8.320053338260486 1 rotate no_reflect no_shear #
lump $-1 $-1 $44 $8 #
transform $-1 1 0 0 0 1 0 0 0 1 66.073793755912959 31.893959584311911 8.320053338260486 1 rotate no_reflect no_shear #
lump $-1 $-1 $45 $9 #
transform $-1 1 0 0 0 1 0 0 0 1 66.073793755912959 31.893959584311911 8.320053338260486 1 rotate no_reflect no_shear #
lump $-1 $-1 $46 $10 #
transform $-1 1 0 0 0 1 0 0 0 1 66.073793755912959 31.893959584311911 8.320053338260486 1 rotate no_reflect no_shear #
lump $-1 $-1 $47 $11 #
transform $-1 1 0 0 0 1 0 0 0 1 66.073793755912959 31.893959584311911 8.320053338260486 1 rotate no_reflect no_shear #
shell $-1 $-1 $-1 $48 $-1 $12 #
shell $-1 $-1 $-1 $49 $-1 $14 #
shell $-1 $-1 $-1 $50 $-1 $16 #
shell $-1 $-1 $-1 $51 $-1 $18 #
shell $-1 $-1 $-1 $52 $-1 $20 #
shell $-1 $-1 $-1 $53 $-1 $22 #
shell $-1 $-1 $-1 $54 $-1 $24 #
shell $-1 $-1 $-1 $55 $-1 $26 #
shell $-1 $-1 $-1 $56 $-1 $28 #
shell $-1 $-1 $-1 $57 $-1 $30 #
shell $-1 $-1 $-1 $58 $-1 $32 #
shell $-1 $-1 $-1 $59 $-1 $34 #
face $-1 $60 $61 $36 $-1 $62 forward single #
face $-1 $63 $64 $37 $-1 $65 forward single #
face $-1 $66 $67 $38 $-1 $68 reversed single #
face $-1 $69 $70 $39 $-1 $71 reversed single #
face $-1 $72 $73 $40 $-1 $74 forward single #
face $-1 $75 $76 $41 $-1 $77 forward single #
face $-1 $78 $79 $42 $-1 $80 reversed single #
face $-1 $81 $82 $43 $-1 $83 forward single #
face $-1 $84 $85 $44 $-1 $86 forward single #
face $-1 $87 $88 $45 $-1 $89 reversed single #
face $-1 $90 $91 $46 $-1 $92 forward single #
face $-1 $93 $94 $47 $-1 $95 forward single #
face $-1 $96 $97 $36 $-1 $98 reversed single #
loop $-1 $-1 $99 $48 #
plane-surface $-1 0 0 8.320053338260486 0 0 1 1 0 0 forward_v I I I I #
face $-1 $100 $101 $37 $-1 $102 reversed single #
loop $-1 $-1 $103 $49 #
plane-surface $-1 0 -31.893959584311911 0 0 1 0 0 0 1 forward_v I I I I #
face $-1 $104 $105 $38 $-1 $106 reversed single #
loop $-1 $-1 $107 $50 #
plane-surface $-1 -50.961370447098652 21.560208055697053 0 0 1 0 0 0 1 forward_v I I I I #
face $-1 $108 $109 $39 $-1 $110 reversed single #
loop $-1 $-1 $111 $51 #
plane-surface $-1 36.838554471992239 -6.8332643703965079 187.86307194314139 0 -1 0 -0.5877852598018023 0 -0.80901698891910034 forward_v I I I I #
face $-1 $112 $113 $40 $-1 $114 forward single #
loop $-1 $115 $116 $52 #
cone-surface $-1 61.447007063921198 -11.907812887435568 4.2062443357102453 -0.5877852598018023 0 -0.80901698891910034 0.80901698891910034 0 -0.5877852598018023 1 I I 0 1 1 forward I I I I #
face $-1 $117 $118 $41 $-1 $119 forward single #
loop $-1 $120 $121 $53 #
cone-surface $-1 61.447007063921198 -8.8630837772121289 4.2062443357102453 -0.5877852598018023 0 -0.80901698891910034 0.80901698891910034 0 -0.5877852598018023 1 I I 0 1 1 forward I I I I #
face $-1 $122 $123 $42 $-1 $124 reversed single #
loop $-1 $-1 $125 $54 #
plane-surface $-1 36.838554471992239 13.270311557554242 187.86307194314139 0 -1 0 -0.5877852598018023 0 -0.80901698891910034 forward_v I I I I #
face $-1 $126 $127 $43 $-1 $128 forward single #
loop $-1 $129 $130 $55 #
cone-surface $-1 61.447007063921198 8.1957630405151782 4.2062443357102453 -0.5877852598018023 0 -0.80901698891910034 0.80901698891910034 0 -0.5877852598018023 1 I I 0 1 1 forward I I I I #
face $-1 $131 $132 $44 $-1 $133 forward single #
loop $-1 $134 $135 $56 #
cone-surface $-1 61.447007063921198 11.240492150738621 4.2062443357102453 -0.5877852598018023 0 -0.80901698891910034 0.80901698891910034 0 -0.5877852598018023 1 I I 0 1 1 forward I I I I #
face $-1 $136 $137 $45 $-1 $138 reversed single #
loop $-1 $-1 $139 $57 #
plane-surface $-1 -179.34638567308144 -10.264520655327546 68.938756043928009 0 1 0 -0.85716730853699208 0 0.51503806187062418 forward_v I I I I #
face $-1 $140 $141 $46 $-1 $142 forward single #
loop $-1 $143 $144 $58 #
cone-surface $-1 -63.33734257889887 -8.1831034261368458 4.2981262320580234 0.85716730853699208 0 -0.51503806187062418 0.51503806187062418 0 0.85716730853699208 1 I I 0 1 1 forward I I I I #
face $-1 $145 $146 $47 $-1 $147 forward single #
loop $-1 $148 $149 $59 #
cone-surface $-1 -63.33734257889887 -5.060977582350791 4.2981262320580234 0.85716730853699208 0 -0.51503806187062418 0.51503806187062418 0 0.85716730853699208 1 I I 0 1 1 forward I I I I #
face $-1 $150 $151 $36 $-1 $152 reversed single #
loop $-1 $-1 $153 $60 #
plane-surface $-1 0 0 -8.320053338260486 0 0 1 1 0 0 forward_v I I I I #
coedge $-1 $154 $155 $156 $157 forward $61 $-1 #
face $-1 $158 $159 $37 $-1 $160 reversed single #
loop $-1 $-1 $161 $63 #
plane-surface $-1 0 0 -8.320053338260486 0 0 1 1 0 0 forward_v I I I I #
coedge $-1 $162 $163 $164 $165 forward $64 $-1 #
face $-1 $166 $167 $38 $-1 $168 reversed single #
loop $-1 $-1 $169 $66 #
plane-surface $-1 -52.489053814805317 26.727083820004484 0 1 0 0 0 0 -1 forward_v I I I I #
coedge $-1 $170 $171 $172 $173 forward $67 $-1 #
face $-1 $174 $175 $39 $-1 $176 reversed single #
loop $-1 $-1 $177 $69 #
plane-surface $-1 -40.835849585827759 -10.38544833232385 80.953428601400674 0.5877852598018023 0 0.80901698891910034 0.80901698891910034 0 -0.5877852598018023 forward_v I I I I #
coedge $-1 $178 $179 $180 $181 reversed $70 $-1 #
face $-1 $-1 $182 $40 $-1 $183 forward single #
loop $-1 $184 $185 $72 #
cone-surface $-1 59.995518121097845 -11.907812887435568 2.2084412360403505 -0.5877852598018023 0 -0.80901698891910034 0.40450849445955017 0 -0.29389262990090115 1 I I -0.70710678118654746 0.70710678118654746 0.5 forward I I I I #
loop $-1 $-1 $186 $52 #
coedge $-1 $116 $116 $187 $188 reversed $73 $-1 #
face $-1 $-1 $189 $41 $-1 $190 forward single #
loop $-1 $191 $192 $75 #
cone-surface $-1 59.995518121097845 -8.8630837772121289 2.2084412360403505 -0.5877852598018023 0 -0.80901698891910034 0.40450849445955017 0 -0.29389262990090115 1 I I -0.70710678118654746 0.70710678118654746 0.5 forward I I I I #
loop $-1 $-1 $193 $53 #
coedge $-1 $121 $121 $194 $195 reversed $76 $-1 #
face $-1 $196 $197 $42 $-1 $198 reversed single #
loop $-1 $-1 $199 $78 #
plane-surface $-1 -40.835849585827759 9.7181275956268998 80.953428601400674 0.5877852598018023 0 0.80901698891910034 0.80901698891910034 0 -0.5877852598018023 forward_v I I I I #
coedge $-1 $200 $201 $202 $203 reversed $79 $-1 #
face $-1 $-1 $204 $43 $-1 $205 forward single #
loop $-1 $206 $207 $81 #
cone-surface $-1 59.995518121097845 8.1957630405151782 2.2084412360403505 -0.5877852598018023 0 -0.80901698891910034 0.40450849445955017 0 -0.29389262990090115 1 I I -0.70710678118654746 0.70710678118654746 0.5 forward I I I I #
loop $-1 $-1 $208 $55 #
coedge $-1 $130 $130 $209 $210 reversed $82 $-1 #
face $-1 $-1 $211 $44 $-1 $212 forward single #
loop $-1 $213 $214 $84 #
cone-surface $-1 59.995518121097845 11.240492150738621 2.2084412360403505 -0.5877852598018023 0 -0.80901698891910034 0.40450849445955017 0 -0.29389262990090115 1 I I -0.70710678118654746 0.70710678118654746 0.5 forward I I I I #
loop $-1 $-1 $215 $56 #
coedge $-1 $135 $135 $216 $217 reversed $85 $-1 #
face $-1 $218 $219 $45 $-1 $220 reversed single #
loop $-1 $-1 $221 $87 #
plane-surface $-1 -66.073793755912988 -6.6220405042438166 0.87771869095848842 -0.85716730853699208 0 0.51503806187062418 0.51503806187062418 0 0.85716730853699208 forward_v I I I I #
coedge $-1 $222 $223 $224 $225 reversed $88 $-1 #
face $-1 $-1 $226 $46 $-1 $227 forward single #
loop $-1 $228 $229 $90 #
cone-surface $-1 -62.40821057216597 -8.1831034261368458 3.7398474185712587 0.85716730853699208 0 -0.51503806187062418 0.25751903093531209 0 0.42858365426849604 1 I I -0.70710678118654746 0.70710678118654746 0.5 forward I I I I #
loop $-1 $-1 $230 $58 #
coedge $-1 $144 $144 $231 $232 reversed $91 $-1 #
face $-1 $-1 $233 $47 $-1 $234 forward single #
loop $-1 $235 $236 $93 #
cone-surface $-1 -62.40821057216597 -5.060977582350791 3.7398474185712587 0.85716730853699208 0 -0.51503806187062418 0.25751903093531209 0 0.42858365426849604 1 I I -0.70710678118654746 0.70710678118654746 0.5 forward I I I I #
loop $-1 $-1 $237 $59 #
coedge $-1 $149 $149 $238 $239 reversed $94 $-1 #
face $-1 $240 $241 $36 $-1 $242 reversed single #
loop $-1 $-1 $243 $96 #
plane-surface $-1 0 -31.893959584311911 0 0 1 0 0 0 1 forward_v I I I I #
coedge $-1 $244 $245 $246 $247 forward $97 $-1 #
coedge $-1 $248 $99 $249 $250 forward $61 $-1 #
coedge $-1 $99 $248 $251 $252 forward $61 $-1 #
coedge $-1 $253 $254 $99 $157 reversed $255 $-1 #
edge $-1 $256 -31.893959584311911 $257 31.893959584311911 $156 $258 forward 7 unknown #
face $-1 $259 $260 $37 $-1 $261 forward single #
loop $-1 $-1 $262 $100 #
plane-surface $-1 66.073793755912959 0 0 -1 0 0 0 0 1 forward_v I I I I #
coedge $-1 $263 $264 $265 $266 forward $101 $-1 #
coedge $-1 $265 $103 $262 $267 reversed $64 $-1 #
coedge $-1 $103 $265 $268 $269 reversed $64 $-1 #
coedge $-1 $270 $271 $103 $165 reversed $260 $-1 #
edge $-1 $272 -66.073793755912959 $273 66.073793755912959 $164 $274 forward 7 unknown #
face $-1 $275 $276 $38 $-1 $277 forward single #
loop $-1 $-1 $278 $104 #
plane-surface $-1 -49.433687079391987 26.727083820004484 0 -1 0 0 0 0 1 forward_v I I I I #
coedge $-1 $279 $280 $281 $282 reversed $105 $-1 #
coedge $-1 $283 $107 $284 $285 reversed $67 $-1 #
coedge $-1 $107 $283 $286 $287 reversed $67 $-1 #
coedge $-1 $280 $279 $107 $173 reversed $105 $-1 #
edge $-1 $288 -8.320053338260486 $289 8.320053338260486 $172 $290 forward 7 unknown #
face $-1 $291 $292 $39 $-1 $293 reversed single #
loop $-1 $-1 $294 $108 #
plane-surface $-1 36.838554471992239 -13.937632294251193 187.86307194314139 0 1 0 0.5877852598018023 0 0.80901698891910034 forward_v I I I I #
coedge $-1 $295 $296 $297 $298 reversed $109 $-1 #
coedge $-1 $179 $111 $299 $300 reversed $70 $-1 #
coedge $-1 $111 $178 $295 $301 reversed $70 $-1 #
coedge $-1 $297 $302 $111 $181 forward $303 $-1 #
edge $-1 $304 -47.654516519916839 $305 -40.716135761778176 $180 $306 forward 7 unknown #
loop $-1 $-1 $187 $112 #
plane-surface $-1 -40.835849585827759 -10.38544833232385 80.953428601400674 0.5877852598018023 0 0.80901698891910034 0.80901698891910034 0 -0.5877852598018023 forward_v I I I I #
loop $-1 $-1 $307 $72 #
coedge $-1 $185 $185 $186 $308 reversed $113 $-1 #
coedge $-1 $186 $186 $185 $308 forward $115 $-1 #
coedge $-1 $187 $187 $116 $188 forward $182 $-1 #
edge $-1 $309 0 $309 6.2831853071796004 $187 $310 forward 7 unknown #
loop $-1 $-1 $194 $117 #
plane-surface $-1 -40.835849585827759 -10.38544833232385 80.953428601400674 0.5877852598018023 0 0.80901698891910034 0.80901698891910034 0 -0.5877852598018023 forward_v I I I I #
loop $-1 $-1 $311 $75 #
coedge $-1 $192 $192 $193 $312 reversed $118 $-1 #
coedge $-1 $193 $193 $192 $312 forward $120 $-1 #
coedge $-1 $194 $194 $121 $195 forward $189 $-1 #
edge $-1 $313 0 $313 6.2831853071796004 $194 $314 forward 7 unknown #
face $-1 $315 $316 $42 $-1 $317 reversed single #
loop $-1 $-1 $318 $122 #
plane-surface $-1 36.838554471992239 6.1659436336995572 187.86307194314139 0 1 0 0.5877852598018023 0 0.80901698891910034 forward_v I I I I #
coedge $-1 $319 $320 $321 $322 reversed $123 $-1 #
coedge $-1 $201 $125 $323 $324 reversed $79 $-1 #
coedge $-1 $125 $200 $319 $325 reversed $79 $-1 #
coedge $-1 $321 $326 $125 $203 forward $327 $-1 #
edge $-1 $328 -47.654516519916839 $329 -40.716135761778176 $202 $330 forward 7 unknown #
loop $-1 $-1 $209 $126 #
plane-surface $-1 -40.835849585827759 9.7181275956268998 80.953428601400674 0.5877852598018023 0 0.80901698891910034 0.80901698891910034 0 -0.5877852598018023 forward_v I I I I #
loop $-1 $-1 $331 $81 #
coedge $-1 $207 $207 $208 $332 reversed $127 $-1 #
coedge $-1 $208 $208 $207 $332 forward $129 $-1 #
coedge $-1 $209 $209 $130 $210 forward $204 $-1 #
edge $-1 $333 0 $333 6.2831853071796004 $209 $334 forward 7 unknown #
loop $-1 $-1 $216 $131 #
plane-surface $-1 -40.835849585827759 9.7181275956268998 80.953428601400674 0.5877852598018023 0 0.80901698891910034 0.80901698891910034 0 -0.5877852598018023 forward_v I I I I #
loop $-1 $-1 $335 $84 #
coedge $-1 $214 $214 $215 $336 reversed $132 $-1 #
coedge $-1 $215 $215 $214 $336 forward $134 $-1 #
coedge $-1 $216 $216 $135 $217 forward $211 $-1 #
edge $-1 $337 0 $337 6.2831853071796004 $216 $338 forward 7 unknown #
face $-1 $339 $340 $45 $-1 $341 forward single #
loop $-1 $-1 $342 $136 #
plane-surface $-1 -179.34638567308144 -2.9795603531600872 68.938756043928009 0 -1 0 0.85716730853699208 0 -0.51503806187062418 forward_v I I I I #
coedge $-1 $343 $344 $345 $346 reversed $137 $-1 #
coedge $-1 $223 $139 $347 $348 reversed $88 $-1 #
coedge $-1 $139 $222 $343 $349 reversed $88 $-1 #
coedge $-1 $345 $350 $139 $225 forward $340 $-1 #
edge $-1 $351 23.599399080627762 $352 28.071204729727093 $224 $353 forward 7 unknown #
loop $-1 $-1 $231 $140 #
plane-surface $-1 -66.073793755912988 -6.6220405042438166 0.87771869095848842 -0.85716730853699208 0 0.51503806187062418 0.51503806187062418 0 0.85716730853699208 forward_v I I I I #
loop $-1 $-1 $354 $90 #
coedge $-1 $229 $229 $230 $355 reversed $141 $-1 #
coedge $-1 $230 $230 $229 $355 forward $143 $-1 #
coedge $-1 $231 $231 $144 $232 forward $226 $-1 #
edge $-1 $356 0 $356 6.2831853071796004 $231 $357 forward 7 unknown #
loop $-1 $-1 $238 $145 #
plane-surface $-1 -66.073793755912988 -6.6220405042438166 0.87771869095848842 -0.85716730853699208 0 0.51503806187062418 0.51503806187062418 0 0.85716730853699208 forward_v I I I I #
loop $-1 $-1 $358 $93 #
coedge $-1 $236 $236 $237 $359 reversed $146 $-1 #
coedge $-1 $237 $237 $236 $359 forward $148 $-1 #
coedge $-1 $238 $238 $149 $239 forward $233 $-1 #
edge $-1 $360 0 $360 6.2831853071796004 $238 $361 forward 7 unknown #
face $-1 $362 $363 $36 $-1 $364 reversed single #
loop $-1 $-1 $365 $150 #
plane-surface $-1 -66.073793755912959 0 0 1 0 0 0 0 -1 forward_v I I I I #
coedge $-1 $251 $366 $253 $367 reversed $151 $-1 #
coedge $-1 $368 $153 $366 $369 forward $97 $-1 #
coedge $-1 $153 $368 $370 $371 forward $97 $-1 #
coedge $-1 $254 $253 $153 $247 reversed $255 $-1 #
edge $-1 $372 -31.893959584311911 $373 31.893959584311911 $246 $374 forward 7 unknown #
coedge $-1 $155 $154 $375 $376 forward $61 $-1 #
coedge $-1 $377 $378 $154 $250 reversed $363 $-1 #
edge $-1 $257 -66.073793755912959 $379 66.073793755912959 $249 $380 forward 7 unknown #
coedge $-1 $381 $243 $155 $252 reversed $151 $-1 #
edge $-1 $382 -66.073793755912959 $256 66.073793755912959 $251 $383 forward 7 unknown #
coedge $-1 $246 $156 $243 $367 forward $255 $-1 #
coedge $-1 $156 $246 $377 $384 reversed $255 $-1 #
loop $-1 $-1 $253 $362 #
vertex $-1 $157 $385 #
vertex $-1 $157 $386 #
straight-curve $-1 66.073793755912959 0 8.320053338260486 0 1 0 I I #
face $-1 $387 $388 $37 $-1 $389 reversed single #
loop $-1 $-1 $271 $158 #
plane-surface $-1 0 -36.727174980270867 -5.320053338260486 0 0 1 1 0 0 forward_v I I I I #
coedge $-1 $390 $391 $162 $267 forward $159 $-1 #
coedge $-1 $392 $161 $391 $393 forward $101 $-1 #
coedge $-1 $161 $392 $394 $395 forward $101 $-1 #
coedge $-1 $163 $162 $161 $266 reversed $64 $-1 #
edge $-1 $396 -66.073793755912959 $397 66.073793755912959 $161 $398 forward 7 unknown #
edge $-1 $397 -8.320053338260486 $273 -5.320053338260486 $262 $399 forward 7 unknown #
coedge $-1 $394 $400 $163 $269 forward $401 $-1 #
edge $-1 $272 5.320053338260486 $396 8.320053338260486 $268 $402 forward 7 unknown #
coedge $-1 $403 $164 $400 $404 forward $260 $-1 #
coedge $-1 $164 $403 $390 $405 forward $260 $-1 #
vertex $-1 $269 $406 #
vertex $-1 $405 $407 #
straight-curve $-1 0 -31.893959584311911 -5.320053338260486 1 0 0 I I #
face $-1 $408 $409 $38 $-1 $410 reversed single #
loop $-1 $-1 $411 $166 #
plane-surface $-1 0 0 8.320053338260486 0 0 1 1 0 0 forward_v I I I I #
coedge $-1 $412 $413 $283 $414 forward $167 $-1 #
coedge $-1 $172 $169 $415 $416 reversed $105 $-1 #
coedge $-1 $169 $172 $411 $417 reversed $105 $-1 #
coedge $-1 $418 $419 $169 $282 forward $420 $-1 #
edge $-1 $421 -8.320053338260486 $422 8.320053338260486 $281 $423 forward 7 unknown #
coedge $-1 $171 $170 $278 $414 reversed $67 $-1 #
coedge $-1 $415 $424 $170 $285 forward $409 $-1 #
edge $-1 $425 23.953001855842661 $289 27.008368591255991 $284 $426 forward 7 unknown #
coedge $-1 $427 $411 $171 $287 forward $276 $-1 #
edge $-1 $288 -27.008368591255991 $428 -23.953001855842661 $286 $429 forward 7 unknown #
vertex $-1 $287 $430 #
vertex $-1 $285 $431 #
straight-curve $-1 -52.489053814805317 21.560208055697053 0 0 0 -1 I I #
face $-1 $-1 $303 $39 $-1 $432 forward single #
loop $-1 $-1 $433 $174 #
plane-surface $-1 66.073793755912959 0 0 -1 0 0 0 0 1 forward_v I I I I #
coedge $-1 $434 $435 $436 $437 reversed $175 $-1 #
coedge $-1 $438 $177 $179 $301 forward $109 $-1 #
coedge $-1 $177 $438 $434 $439 forward $109 $-1 #
coedge $-1 $436 $180 $177 $298 forward $303 $-1 #
edge $-1 $305 1.6405402042345827 $440 8.7449081280892678 $297 $441 forward 7 unknown #
coedge $-1 $442 $443 $178 $300 forward $292 $-1 #
edge $-1 $444 -90.652511427990021 $304 -85.611482633310203 $299 $445 forward 7 unknown #
edge $-1 $305 123.5712771831531 $444 132.14758751182592 $179 $446 forward 7 unknown #
coedge $-1 $180 $436 $442 $447 forward $303 $-1 #
loop $-1 $-1 $436 $291 #
vertex $-1 $300 $448 #
vertex $-1 $181 $449 #
straight-curve $-1 18.41927723599612 -6.8332643703965079 8.3200533382604931 -1 0 0 I I #
coedge $-1 $307 $307 $-1 $450 reversed $184 $-1 #
edge $-1 $451 0 $451 6.2831853071796004 $185 $452 forward 7 unknown #
vertex $-1 $188 $453 #
ellipse-curve $-1 62.604603376843635 -11.907812887435568 5.7995389409205735 0.5877852598018023 0 0.80901698891910034 0.80901698891910034 0 -0.5877852598018023 1 I I #
coedge $-1 $311 $311 $-1 $454 reversed $191 $-1 #
edge $-1 $455 0 $455 6.2831853071796004 $192 $456 forward 7 unknown #
vertex $-1 $195 $457 #
ellipse-curve $-1 62.604603376843635 -8.8630837772121289 5.7995389409205735 0.5877852598018023 0 0.80901698891910034 0.80901698891910034 0 -0.5877852598018023 1 I I #
face $-1 $-1 $327 $42 $-1 $458 forward single #
loop $-1 $-1 $459 $196 #
plane-surface $-1 66.073793755912959 0 0 -1 0 0 0 0 1 forward_v I I I I #
coedge $-1 $460 $461 $462 $463 reversed $197 $-1 #
coedge $-1 $464 $199 $201 $325 forward $123 $-1 #
coedge $-1 $199 $464 $460 $465 forward $123 $-1 #
coedge $-1 $462 $202 $199 $322 forward $327 $-1 #
edge $-1 $329 -8.4112477597407924 $466 -1.3068798358861073 $321 $467 forward 7 unknown #
coedge $-1 $468 $469 $200 $324 forward $316 $-1 #
edge $-1 $470 -90.652511427990021 $328 -85.611482633310203 $323 $471 forward 7 unknown #
edge $-1 $329 123.5712771831531 $470 132.14758751182592 $201 $472 forward 7 unknown #
coedge $-1 $202 $462 $468 $473 forward $327 $-1 #
loop $-1 $-1 $462 $315 #
vertex $-1 $324 $474 #
vertex $-1 $203 $475 #
straight-curve $-1 18.41927723599612 13.270311557554242 8.3200533382604931 -1 0 0 I I #
coedge $-1 $331 $331 $-1 $476 reversed $206 $-1 #
edge $-1 $477 0 $477 6.2831853071796004 $207 $478 forward 7 unknown #
vertex $-1 $210 $479 #
ellipse-curve $-1 62.604603376843635 8.1957630405151782 5.7995389409205735 0.5877852598018023 0 0.80901698891910034 0.80901698891910034 0 -0.5877852598018023 1 I I #
coedge $-1 $335 $335 $-1 $480 reversed $213 $-1 #
edge $-1 $481 0 $481 6.2831853071796004 $214 $482 forward 7 unknown #
vertex $-1 $217 $483 #
ellipse-curve $-1 62.604603376843635 11.240492150738621 5.7995389409205735 0.5877852598018023 0 0.80901698891910034 0.80901698891910034 0 -0.5877852598018023 1 I I #
face $-1 $-1 $484 $45 $-1 $485 reversed single #
loop $-1 $-1 $224 $218 #
plane-surface $-1 0 0 8.320053338260486 0 0 1 1 0 0 forward_v I I I I #
coedge $-1 $486 $487 $488 $489 reversed $219 $-1 #
coedge $-1 $490 $221 $223 $349 forward $137 $-1 #
coedge $-1 $221 $490 $486 $491 forward $137 $-1 #
coedge $-1 $488 $224 $221 $346 forward $340 $-1 #
edge $-1 $352 -6.9535004032056378 $492 0.33145989896182115 $345 $493 forward 7 unknown #
coedge $-1 $494 $495 $222 $348 forward $484 $-1 #
edge $-1 $496 -33.591659331005467 $351 -26.149324683703519 $347 $497 forward 7 unknown #
edge $-1 $352 -8.682476073433703 $496 -5.5178419308758838e-014 $223 $498 forward 7 unknown #
coedge $-1 $224 $488 $494 $499 forward $340 $-1 #
vertex $-1 $348 $500 #
vertex $-1 $225 $501 #
straight-curve $-1 -89.673192836540721 -10.264520655327546 8.320053338260486 1 0 0 I I #
coedge $-1 $354 $354 $-1 $502 reversed $228 $-1 #
edge $-1 $503 0 $503 6.2831853071796004 $229 $504 forward 7 unknown #
vertex $-1 $232 $505 #
ellipse-curve $-1 -63.837890931363305 -8.1831034261368458 4.5988860146094943 -0.85716730853699208 0 0.51503806187062418 0.51503806187062418 0 0.85716730853699208 1 I I #
coedge $-1 $358 $358 $-1 $506 reversed $235 $-1 #
edge $-1 $507 0 $507 6.2831853071796004 $236 $508 forward 7 unknown #
vertex $-1 $239 $509 #
ellipse-curve $-1 -63.837890931363305 -5.060977582350791 4.5988860146094943 -0.85716730853699208 0 0.51503806187062418 0.51503806187062418 0 0.85716730853699208 1 I I #
face $-1 $-1 $255 $36 $-1 $510 reversed single #
loop $-1 $-1 $377 $240 #
plane-surface $-1 0 31.893959584311911 0 0 -1 0 0 0 -1 forward_v I I I I #
coedge $-1 $511 $375 $378 $512 forward $241 $-1 #
coedge $-1 $243 $381 $244 $369 reversed $151 $-1 #
edge $-1 $256 -8.320053338260486 $373 8.320053338260486 $253 $513 forward 7 unknown #
coedge $-1 $245 $244 $511 $514 forward $97 $-1 #
edge $-1 $373 -66.073793755912959 $515 66.073793755912959 $366 $516 forward 7 unknown #
coedge $-1 $378 $377 $245 $371 reversed $363 $-1 #
edge $-1 $517 -66.073793755912959 $372 66.073793755912959 $370 $518 forward 7 unknown #
vertex $-1 $247 $519 #
vertex $-1 $367 $520 #
straight-curve $-1 66.073793755912959 0 -8.320053338260486 0 -1 0 I I #
coedge $-1 $365 $521 $248 $376 reversed $241 $-1 #
edge $-1 $379 -31.893959584311911 $382 31.893959584311911 $375 $522 forward 7 unknown #
coedge $-1 $370 $249 $254 $384 forward $363 $-1 #
coedge $-1 $249 $370 $365 $512 reversed $363 $-1 #
vertex $-1 $250 $523 #
straight-curve $-1 0 31.893959584311911 8.320053338260486 -1 0 0 I I #
coedge $-1 $366 $251 $521 $524 forward $151 $-1 #
vertex $-1 $376 $525 #
straight-curve $-1 0 -31.893959584311911 8.320053338260486 1 0 0 I I #
edge $-1 $257 -8.320053338260486 $372 8.320053338260486 $254 $526 forward 7 unknown #
point $-1 66.073793755912959 -31.893959584311911 8.320053338260486 #
point $-1 66.073793755912959 31.893959584311911 8.320053338260486 #
face $-1 $-1 $401 $37 $-1 $527 reversed single #
loop $-1 $-1 $528 $259 #
plane-surface $-1 0 -41.560390376229819 -6.820053338260486 0 1 0 0 0 1 forward_v I I I I #
coedge $-1 $529 $262 $271 $405 reversed $159 $-1 #
coedge $-1 $262 $529 $263 $393 reversed $159 $-1 #
coedge $-1 $264 $263 $530 $531 forward $101 $-1 #
edge $-1 $397 31.893959584311911 $532 41.560390376229819 $391 $533 forward 7 unknown #
coedge $-1 $534 $268 $264 $395 reversed $401 $-1 #
edge $-1 $535 -41.560390376229819 $396 -31.893959584311911 $394 $536 forward 7 unknown #
vertex $-1 $269 $537 #
vertex $-1 $393 $538 #
straight-curve $-1 0 -31.893959584311911 -8.320053338260486 1 0 0 I I #
straight-curve $-1 66.073793755912959 -31.893959584311911 0 0 0 1 I I #
coedge $-1 $268 $534 $270 $404 reversed $401 $-1 #
loop $-1 $-1 $268 $387 #
straight-curve $-1 -66.073793755912959 -31.893959584311911 0 0 0 -1 I I #
coedge $-1 $271 $270 $539 $540 forward $260 $-1 #
edge $-1 $272 -4.8332153959589519 $541 4.8332153959589519 $400 $542 forward 7 unknown #
edge $-1 $543 -4.8332153959589519 $273 4.8332153959589519 $390 $544 forward 7 unknown #
point $-1 -66.073793755912959 -31.893959584311915 -5.320053338260486 #
point $-1 66.073793755912959 -31.893959584311915 -5.320053338260486 #
face $-1 $-1 $420 $38 $-1 $545 reversed single #
loop $-1 $-1 $415 $275 #
plane-surface $-1 0 0 -8.320053338260486 0 0 1 1 0 0 forward_v I I I I #
coedge $-1 $286 $546 $280 $417 forward $276 $-1 #
coedge $-1 $547 $278 $424 $548 reversed $167 $-1 #
coedge $-1 $278 $547 $427 $549 reversed $167 $-1 #
edge $-1 $428 -8.320053338260486 $425 8.320053338260486 $278 $550 forward 7 unknown #
coedge $-1 $551 $284 $279 $416 forward $409 $-1 #
edge $-1 $289 8.1966661456948113 $421 18.530417674309675 $415 $552 forward 7 unknown #
edge $-1 $422 -18.530417674309675 $288 -8.1966661456948113 $411 $553 forward 7 unknown #
coedge $-1 $554 $281 $546 $555 reversed $420 $-1 #
coedge $-1 $281 $554 $551 $556 reversed $420 $-1 #
loop $-1 $-1 $281 $408 #
vertex $-1 $556 $557 #
vertex $-1 $282 $558 #
straight-curve $-1 -52.489053814805317 31.893959584311911 0 0 0 1 I I #
coedge $-1 $284 $551 $412 $548 forward $409 $-1 #
vertex $-1 $285 $559 #
straight-curve $-1 -25.480685223549326 21.560208055697053 -8.320053338260486 -1 0 0 I I #
coedge $-1 $546 $286 $413 $549 forward $276 $-1 #
vertex $-1 $287 $560 #
straight-curve $-1 -25.480685223549326 21.560208055697053 8.320053338260486 1 0 0 I I #
point $-1 -52.489053814805317 21.560208055697053 8.320053338260486 #
point $-1 -52.489053814805317 21.560208055697053 -8.320053338260486 #
plane-surface $-1 0 0 8.320053338260486 0 0 1 1 0 0 forward_v I I I I #
coedge $-1 $443 $442 $435 $561 forward $292 $-1 #
coedge $-1 $435 $294 $296 $439 reversed $175 $-1 #
coedge $-1 $294 $434 $433 $561 reversed $175 $-1 #
coedge $-1 $302 $297 $294 $437 forward $303 $-1 #
edge $-1 $440 40.716135761778176 $562 47.654516519916839 $436 $563 forward 7 unknown #
coedge $-1 $296 $295 $443 $564 reversed $109 $-1 #
edge $-1 $565 -132.14758751182592 $440 -123.5712771831531 $434 $566 forward 7 unknown #
vertex $-1 $298 $567 #
straight-curve $-1 59.135412997774317 -5.1927241661619252 8.3200533382604931 0 -1 0 I I #
coedge $-1 $433 $299 $302 $447 reversed $292 $-1 #
coedge $-1 $299 $433 $438 $564 forward $292 $-1 #
vertex $-1 $300 $568 #
straight-curve $-1 66.073793755912959 -6.8332643703965079 93.931535971570696 0 0 1 I I #
straight-curve $-1 -40.835849585827759 -6.8332643703965079 80.953428601400674 0.80901698891910034 0 -0.5877852598018023 I I #
edge $-1 $562 -13.937632294251193 $304 -6.8332643703965079 $442 $569 forward 7 unknown #
point $-1 66.073793755912959 -6.8332643703965079 8.320053338260486 #
point $-1 59.135412997774296 -6.8332643703965079 8.3200533382604931 #
edge $-1 $570 1 $570 0 $307 $-1 forward 7 unknown #
vertex $-1 $308 $571 #
ellipse-curve $-1 60.289410750998748 -11.907812887435568 2.6129497304999005 0.5877852598018023 0 0.80901698891910034 0.80901698891910034 0 -0.5877852598018023 1 I I #
point $-1 63.413620365762746 -11.907812887435568 5.2117536811187879 #
edge $-1 $572 1 $572 0 $311 $-1 forward 7 unknown #
vertex $-1 $312 $573 #
ellipse-curve $-1 60.289410750998748 -8.8630837772121289 2.6129497304999005 0.5877852598018023 0 0.80901698891910034 0.80901698891910034 0 -0.5877852598018023 1 I I #
point $-1 63.413620365762746 -8.8630837772121289 5.2117536811187879 #
plane-surface $-1 0 0 8.320053338260486 0 0 1 1 0 0 forward_v I I I I #
coedge $-1 $469 $468 $461 $574 forward $316 $-1 #
coedge $-1 $461 $318 $320 $465 reversed $197 $-1 #
coedge $-1 $318 $460 $459 $574 reversed $197 $-1 #
coedge $-1 $326 $321 $318 $463 forward $327 $-1 #
edge $-1 $466 40.716135761778176 $575 47.654516519916839 $462 $576 forward 7 unknown #
coedge $-1 $320 $319 $469 $577 reversed $123 $-1 #
edge $-1 $578 -132.14758751182592 $466 -123.5712771831531 $460 $579 forward 7 unknown #
vertex $-1 $322 $580 #
straight-curve $-1 59.135412997774317 4.8590637978134499 8.3200533382604931 0 -1 0 I I #
coedge $-1 $459 $323 $326 $473 reversed $316 $-1 #
coedge $-1 $323 $459 $464 $577 forward $316 $-1 #
vertex $-1 $324 $581 #
straight-curve $-1 66.073793755912959 13.270311557554242 93.931535971570696 0 0 1 I I #
straight-curve $-1 -40.835849585827759 13.270311557554242 80.953428601400674 0.80901698891910034 0 -0.5877852598018023 I I #
edge $-1 $575 6.1659436336995572 $328 13.270311557554242 $468 $582 forward 7 unknown #
point $-1 66.073793755912959 13.270311557554242 8.320053338260486 #
point $-1 59.135412997774296 13.270311557554242 8.3200533382604931 #
edge $-1 $583 1 $583 0 $331 $-1 forward 7 unknown #
vertex $-1 $332 $584 #
ellipse-curve $-1 60.289410750998748 8.1957630405151782 2.6129497304999005 0.5877852598018023 0 0.80901698891910034 0.80901698891910034 0 -0.5877852598018023 1 I I #
point $-1 63.413620365762746 8.1957630405151782 5.2117536811187879 #
edge $-1 $585 1 $585 0 $335 $-1 forward 7 unknown #
vertex $-1 $336 $586 #
ellipse-curve $-1 60.289410750998748 11.240492150738621 2.6129497304999005 0.5877852598018023 0 0.80901698891910034 0.80901698891910034 0 -0.5877852598018023 1 I I #
point $-1 63.413620365762746 11.240492150738621 5.2117536811187879 #
loop $-1 $-1 $347 $339 #
plane-surface $-1 -66.073793755912959 0 0 1 0 0 0 0 -1 forward_v I I I I #
coedge $-1 $487 $342 $344 $491 reversed $219 $-1 #
coedge $-1 $342 $486 $587 $588 reversed $219 $-1 #
coedge $-1 $350 $345 $342 $489 forward $340 $-1 #
edge $-1 $492 -28.071204729727093 $589 -23.599399080627762 $488 $590 forward 7 unknown #
coedge $-1 $344 $343 $495 $591 reversed $137 $-1 #
edge $-1 $592 5.5178419308758838e-014 $492 8.682476073433703 $486 $593 forward 7 unknown #
vertex $-1 $346 $594 #
straight-curve $-1 -61.601988106813621 -3.3110202521219083 8.3200533382604878 0 1 0 I I #
coedge $-1 $587 $347 $350 $499 reversed $484 $-1 #
coedge $-1 $347 $587 $490 $591 forward $484 $-1 #
vertex $-1 $348 $595 #
straight-curve $-1 -66.073793755912959 -10.264520655327546 34.469378021964005 0 0 1 I I #
straight-curve $-1 -66.073793755912988 -10.264520655327546 0.87771869095848842 -0.51503806187062418 0 -0.85716730853699208 I I #
edge $-1 $589 2.9795603531600872 $351 10.264520655327546 $494 $596 forward 7 unknown #
point $-1 -66.073793755912959 -10.264520655327546 8.320053338260486 #
point $-1 -61.601988106813629 -10.264520655327546 8.320053338260486 #
edge $-1 $597 1 $597 0 $354 $-1 forward 7 unknown #
vertex $-1 $355 $598 #
ellipse-curve $-1 -62.836794226434463 -8.1831034261368458 3.9973664495065706 -0.85716730853699208 0 0.51503806187062418 0.51503806187062418 0 0.85716730853699208 1 I I #
point $-1 -63.32285286949265 -8.1831034261368458 5.4560533231464685 #
edge $-1 $599 1 $599 0 $358 $-1 forward 7 unknown #
vertex $-1 $359 $600 #
ellipse-curve $-1 -62.836794226434463 -5.060977582350791 3.9973664495065706 -0.85716730853699208 0 0.51503806187062418 0.51503806187062418 0 0.85716730853699208 1 I I #
point $-1 -63.32285286949265 -5.060977582350791 5.4560533231464685 #
plane-surface $-1 66.073793755912959 0 0 -1 0 0 0 0 1 forward_v I I I I #
coedge $-1 $521 $365 $368 $514 reversed $241 $-1 #
edge $-1 $379 -8.320053338260486 $517 8.320053338260486 $378 $601 forward 7 unknown #
straight-curve $-1 66.073793755912959 -31.893959584311911 0 0 0 -1 I I #
edge $-1 $515 -31.893959584311911 $517 31.893959584311911 $511 $602 forward 7 unknown #
vertex $-1 $514 $603 #
straight-curve $-1 0 -31.893959584311911 -8.320053338260486 -1 0 0 I I #
vertex $-1 $371 $604 #
straight-curve $-1 0 31.893959584311911 -8.320053338260486 1 0 0 I I #
point $-1 66.073793755912959 31.893959584311911 -8.320053338260486 #
point $-1 66.073793755912959 -31.893959584311911 -8.320053338260486 #
coedge $-1 $375 $511 $381 $524 reversed $241 $-1 #
straight-curve $-1 -66.073793755912959 0 8.320053338260486 0 -1 0 I I #
point $-1 -66.073793755912959 31.893959584311911 8.320053338260486 #
edge $-1 $382 -8.320053338260486 $515 8.320053338260486 $521 $605 forward 7 unknown #
point $-1 -66.073793755912959 -31.893959584311911 8.320053338260486 #
straight-curve $-1 66.073793755912959 31.893959584311911 0 0 0 -1 I I #
plane-surface $-1 -66.073793755912959 0 0 1 0 0 0 0 -1 forward_v I I I I #
coedge $-1 $530 $539 $534 $606 forward $388 $-1 #
coedge $-1 $391 $390 $607 $608 forward $159 $-1 #
coedge $-1 $607 $528 $392 $531 reversed $388 $-1 #
edge $-1 $532 -66.073793755912959 $535 66.073793755912959 $530 $609 forward 7 unknown #
vertex $-1 $608 $610 #
straight-curve $-1 66.073793755912959 0 -8.320053338260486 0 -1 0 I I #
coedge $-1 $400 $394 $528 $606 reversed $401 $-1 #
vertex $-1 $395 $611 #
straight-curve $-1 -66.073793755912959 0 -8.320053338260486 0 1 0 I I #
point $-1 -66.073793755912959 -31.893959584311911 -8.320053338260486 #
point $-1 66.073793755912959 -31.893959584311911 -8.320053338260486 #
coedge $-1 $528 $607 $403 $540 reversed $388 $-1 #
edge $-1 $541 -66.073793755912959 $543 66.073793755912959 $539 $612 forward 7 unknown #
vertex $-1 $404 $613 #
straight-curve $-1 -66.073793755912959 -36.727174980270867 -5.320053338260486 0 -1 0 I I #
vertex $-1 $405 $614 #
straight-curve $-1 66.073793755912959 -36.727174980270867 -5.320053338260486 0 1 0 I I #
plane-surface $-1 0 31.893959584311911 0 0 -1 0 0 0 -1 forward_v I I I I #
coedge $-1 $411 $427 $418 $555 forward $276 $-1 #
coedge $-1 $413 $412 $554 $615 reversed $167 $-1 #
edge $-1 $616 -18.530417674309675 $425 -8.1966661456948113 $424 $617 forward 7 unknown #
edge $-1 $428 8.1966661456948113 $618 18.530417674309675 $427 $619 forward 7 unknown #
straight-curve $-1 -49.433687079391987 21.560208055697053 0 0 0 -1 I I #
coedge $-1 $424 $415 $419 $556 forward $409 $-1 #
straight-curve $-1 -52.489053814805317 13.363541910002242 -8.320053338260486 0 1 0 I I #
straight-curve $-1 -52.489053814805317 13.363541910002242 8.320053338260486 0 -1 0 I I #
coedge $-1 $419 $418 $547 $615 forward $420 $-1 #
edge $-1 $618 49.433687079391987 $422 52.489053814805317 $418 $620 forward 7 unknown #
edge $-1 $421 -52.489053814805317 $616 -49.433687079391987 $419 $621 forward 7 unknown #
point $-1 -52.489053814805317 31.893959584311915 -8.320053338260486 #
point $-1 -52.489053814805317 31.893959584311915 8.320053338260486 #
point $-1 -49.433687079391987 21.560208055697053 -8.320053338260486 #
point $-1 -49.433687079391987 21.560208055697053 8.320053338260486 #
edge $-1 $562 85.611482633310203 $565 90.652511427990021 $433 $622 forward 7 unknown #
vertex $-1 $447 $623 #
straight-curve $-1 18.41927723599612 -13.937632294251193 8.3200533382604931 1 0 0 I I #
edge $-1 $565 -8.7449081280892678 $444 -1.6405402042345827 $443 $624 forward 7 unknown #
vertex $-1 $564 $625 #
straight-curve $-1 -40.835849585827759 -13.937632294251193 80.953428601400674 -0.80901698891910034 0 0.5877852598018023 I I #
point $-1 59.135412997774296 -13.937632294251193 8.3200533382604931 #
point $-1 66.073793755912959 -6.8332643703965079 3.2790245435806753 #
straight-curve $-1 66.073793755912959 0 8.320053338260486 0 1 0 I I #
vertex $-1 $450 $626 #
point $-1 61.098427739917845 -11.907812887435568 2.0251644706980985 #
vertex $-1 $454 $627 #
point $-1 61.098427739917845 -8.8630837772121289 2.0251644706980985 #
edge $-1 $575 85.611482633310203 $578 90.652511427990021 $459 $628 forward 7 unknown #
vertex $-1 $473 $629 #
straight-curve $-1 18.41927723599612 6.1659436336995572 8.3200533382604931 1 0 0 I I #
edge $-1 $578 1.3068798358861073 $470 8.4112477597407924 $469 $630 forward 7 unknown #
vertex $-1 $577 $631 #
straight-curve $-1 -40.835849585827759 6.1659436336995572 80.953428601400674 -0.80901698891910034 0 0.5877852598018023 I I #
point $-1 59.135412997774296 6.1659436336995572 8.3200533382604931 #
point $-1 66.073793755912959 13.270311557554242 3.2790245435806753 #
straight-curve $-1 66.073793755912959 0 8.320053338260486 0 1 0 I I #
vertex $-1 $476 $632 #
point $-1 61.098427739917845 8.1957630405151782 2.0251644706980985 #
vertex $-1 $480 $633 #
point $-1 61.098427739917845 11.240492150738621 2.0251644706980985 #
coedge $-1 $495 $494 $487 $588 forward $484 $-1 #
edge $-1 $589 26.149324683703519 $592 33.591659331005467 $587 $634 forward 7 unknown #
vertex $-1 $499 $635 #
straight-curve $-1 -89.673192836540721 -2.9795603531600872 8.320053338260486 -1 0 0 I I #
edge $-1 $592 -0.33145989896182115 $496 6.9535004032056378 $495 $636 forward 7 unknown #
vertex $-1 $591 $637 #
straight-curve $-1 -66.073793755912988 -2.9795603531600872 0.87771869095848842 0.51503806187062418 0 0.85716730853699208 I I #
point $-1 -61.601988106813629 -2.9795603531600872 8.320053338260486 #
point $-1 -66.073793755912959 -10.264520655327546 0.87771869095853572 #
straight-curve $-1 -66.073793755912959 0 8.320053338260486 0 -1 0 I I #
vertex $-1 $502 $638 #
point $-1 -62.321756164563844 -8.1831034261368458 4.854533758043563 #
vertex $-1 $506 $639 #
point $-1 -62.321756164563844 -5.060977582350791 4.854533758043563 #
straight-curve $-1 -66.073793755912959 31.893959584311911 0 0 0 -1 I I #
straight-curve $-1 -66.073793755912959 0 -8.320053338260486 0 1 0 I I #
point $-1 -66.073793755912959 -31.893959584311911 -8.320053338260486 #
point $-1 -66.073793755912959 31.893959584311911 -8.320053338260486 #
straight-curve $-1 -66.073793755912959 -31.893959584311911 0 0 0 -1 I I #
edge $-1 $541 -1.5 $535 1.5 $534 $640 forward 7 unknown #
coedge $-1 $539 $530 $529 $608 reversed $388 $-1 #
edge $-1 $543 -1.5 $532 1.5 $529 $641 forward 7 unknown #
straight-curve $-1 0 -41.560390376229819 -8.320053338260486 -1 0 0 I I #
point $-1 66.073793755912959 -41.560390376229819 -8.320053338260486 #
point $-1 -66.073793755912959 -41.560390376229819 -8.320053338260486 #
straight-curve $-1 0 -41.560390376229819 -5.320053338260486 1 0 0 I I #
point $-1 -66.073793755912959 -41.560390376229819 -5.320053338260486 #
point $-1 66.073793755912959 -41.560390376229819 -5.320053338260486 #
edge $-1 $618 -8.320053338260486 $616 8.320053338260486 $554 $642 forward 7 unknown #
vertex $-1 $615 $643 #
straight-curve $-1 -49.433687079391987 13.363541910002242 -8.320053338260486 0 -1 0 I I #
vertex $-1 $555 $644 #
straight-curve $-1 -49.433687079391987 13.363541910002242 8.320053338260486 0 1 0 I I #
straight-curve $-1 0 31.893959584311911 8.320053338260486 -1 0 0 I I #
straight-curve $-1 0 31.893959584311911 -8.320053338260486 1 0 0 I I #
straight-curve $-1 66.073793755912959 -13.937632294251193 93.931535971570696 0 0 -1 I I #
point $-1 66.073793755912959 -13.937632294251193 8.320053338260486 #
straight-curve $-1 66.073793755912959 -5.1927241661619252 3.2790245435806682 0 1 0 I I #
point $-1 66.073793755912959 -13.937632294251193 3.2790245435806753 #
point $-1 59.701625491196943 -11.907812887435568 1.8039327415808004 #
point $-1 59.701625491196943 -8.8630837772121289 1.8039327415808004 #
straight-curve $-1 66.073793755912959 6.1659436336995572 93.931535971570696 0 0 -1 I I #
point $-1 66.073793755912959 6.1659436336995572 8.320053338260486 #
straight-curve $-1 66.073793755912959 4.8590637978134499 3.2790245435806682 0 1 0 I I #
point $-1 66.073793755912959 6.1659436336995572 3.2790245435806753 #
point $-1 59.701625491196943 8.1957630405151782 1.8039327415808004 #
point $-1 59.701625491196943 11.240492150738621 1.8039327415808004 #
straight-curve $-1 -66.073793755912959 -2.9795603531600872 34.469378021964005 0 0 -1 I I #
point $-1 -66.073793755912959 -2.9795603531600872 8.320053338260486 #
straight-curve $-1 -66.073793755912959 -3.3110202521219083 0.87771869095852573 0 -1 0 I I #
point $-1 -66.073793755912959 -2.9795603531600872 0.87771869095853572 #
point $-1 -61.979626917897477 -8.1831034261368458 3.4823283876359468 #
point $-1 -61.979626917897477 -5.060977582350791 3.4823283876359468 #
straight-curve $-1 -66.073793755912959 -41.560390376229819 -6.820053338260486 0 0 -1 I I #
straight-curve $-1 66.073793755912959 -41.560390376229819 -6.820053338260486 0 0 -1 I I #
straight-curve $-1 -49.433687079391987 31.893959584311911 0 0 0 -1 I I #
point $-1 -49.433687079391987 31.893959584311915 -8.320053338260486 #
point $-1 -49.433687079391987 31.893959584311915 8.320053338260486 #
End-of-ACIS-data 