500 0 17 0           
7 Unknown 11 ACIS 5.0 NT 24 Thu Mar 25 23:15:09 1999 
-1 9.9999999999999995e-007 1e-010 
body $-1 $17 $-1 $18 #
body $-1 $19 $-1 $20 #
body $-1 $21 $-1 $22 #
body $-1 $23 $-1 $24 #
body $-1 $25 $-1 $26 #
body $-1 $27 $-1 $28 #
body $-1 $29 $-1 $30 #
body $-1 $31 $-1 $32 #
body $-1 $33 $-1 $34 #
body $-1 $35 $-1 $36 #
body $-1 $37 $-1 $38 #
body $-1 $39 $-1 $40 #
body $-1 $41 $-1 $42 #
body $-1 $43 $-1 $44 #
body $-1 $45 $-1 $46 #
body $-1 $47 $-1 $48 #
body $-1 $49 $-1 $50 #
lump $-1 $-1 $51 $0 #
transform $-1 1 0 0 0 1 0 0 0 1 66.686605426190994 42.085603877948735 17.522546098992621 1 rotate no_reflect no_shear #
lump $-1 $-1 $52 $1 #
transform $-1 1 0 0 0 1 0 0 0 1 66.686605426190994 42.085603877948735 17.522546098992621 1 rotate no_reflect no_shear #
lump $-1 $-1 $53 $2 #
transform $-1 1 0 0 0 1 0 0 0 1 66.686605426190994 42.085603877948735 17.522546098992621 1 rotate no_reflect no_shear #
lump $-1 $-1 $54 $3 #
transform $-1 1 0 0 0 1 0 0 0 1 66.686605426190994 42.085603877948735 17.522546098992621 1 rotate no_reflect no_shear #
lump $-1 $-1 $55 $4 #
transform $-1 1 0 0 0 1 0 0 0 1 66.686605426190994 42.085603877948735 17.522546098992621 1 rotate no_reflect no_shear #
lump $-1 $-1 $56 $5 #
transform $-1 1 0 0 0 1 0 0 0 1 66.686605426190994 42.085603877948735 17.522546098992621 1 rotate no_reflect no_shear #
lump $-1 $-1 $57 $6 #
transform $-1 1 0 0 0 1 0 0 0 1 66.686605426190994 42.085603877948735 17.522546098992621 1 rotate no_reflect no_shear #
lump $-1 $-1 $58 $7 #
transform $-1 1 0 0 0 1 0 0 0 1 66.686605426190994 42.085603877948735 17.522546098992621 1 rotate no_reflect no_shear #
lump $-1 $-1 $59 $8 #
transform $-1 1 0 0 0 1 0 0 0 1 66.686605426190994 42.085603877948735 17.522546098992621 1 rotate no_reflect no_shear #
lump $-1 $-1 $60 $9 #
transform $-1 1 0 0 0 1 0 0 0 1 66.686605426190994 42.085603877948735 17.522546098992621 1 rotate no_reflect no_shear #
lump $-1 $-1 $61 $10 #
transform $-1 1 0 0 0 1 0 0 0 1 66.686605426190994 42.085603877948735 17.522546098992621 1 rotate no_reflect no_shear #
lump $-1 $-1 $62 $11 #
transform $-1 1 0 0 0 1 0 0 0 1 66.686605426190994 42.085603877948735 17.522546098992621 1 rotate no_reflect no_shear #
lump $-1 $-1 $63 $12 #
transform $-1 1 0 0 0 1 0 0 0 1 66.686605426190994 42.085603877948735 17.522546098992621 1 rotate no_reflect no_shear #
lump $-1 $-1 $64 $13 #
transform $-1 1 0 0 0 1 0 0 0 1 66.686605426190994 42.085603877948735 17.522546098992621 1 rotate no_reflect no_shear #
lump $-1 $-1 $65 $14 #
transform $-1 1 0 0 0 1 0 0 0 1 66.686605426190994 42.085603877948735 17.522546098992621 1 rotate no_reflect no_shear #
lump $-1 $-1 $66 $15 #
transform $-1 1 0 0 0 1 0 0 0 1 66.686605426190994 42.085603877948735 17.522546098992621 1 rotate no_reflect no_shear #
lump $-1 $-1 $67 $16 #
transform $-1 1 0 0 0 1 0 0 0 1 66.686605426190994 42.085603877948735 17.522546098992621 1 rotate no_reflect no_shear #
shell $-1 $-1 $-1 $68 $-1 $17 #
shell $-1 $-1 $-1 $69 $-1 $19 #
shell $-1 $-1 $-1 $70 $-1 $21 #
shell $-1 $-1 $-1 $71 $-1 $23 #
shell $-1 $-1 $-1 $72 $-1 $25 #
shell $-1 $-1 $-1 $73 $-1 $27 #
shell $-1 $-1 $-1 $74 $-1 $29 #
shell $-1 $-1 $-1 $75 $-1 $31 #
shell $-1 $-1 $-1 $76 $-1 $33 #
shell $-1 $-1 $-1 $77 $-1 $35 #
shell $-1 $-1 $-1 $78 $-1 $37 #
shell $-1 $-1 $-1 $79 $-1 $39 #
shell $-1 $-1 $-1 $80 $-1 $41 #
shell $-1 $-1 $-1 $81 $-1 $43 #
shell $-1 $-1 $-1 $82 $-1 $45 #
shell $-1 $-1 $-1 $83 $-1 $47 #
shell $-1 $-1 $-1 $84 $-1 $49 #
face $-1 $85 $86 $51 $-1 $87 forward single #
face $-1 $88 $89 $52 $-1 $90 reversed single #
face $-1 $91 $92 $53 $-1 $93 forward single #
face $-1 $94 $95 $54 $-1 $96 forward single #
face $-1 $97 $98 $55 $-1 $99 forward single #
face $-1 $100 $101 $56 $-1 $102 reversed single #
face $-1 $103 $104 $57 $-1 $105 forward single #
face $-1 $106 $107 $58 $-1 $108 forward single #
face $-1 $109 $110 $59 $-1 $111 reversed single #
face $-1 $112 $113 $60 $-1 $114 forward single #
face $-1 $115 $116 $61 $-1 $117 forward single #
face $-1 $118 $119 $62 $-1 $120 reversed single #
face $-1 $121 $122 $63 $-1 $123 forward single #
face $-1 $124 $125 $64 $-1 $126 forward single #
face $-1 $127 $128 $65 $-1 $129 reversed single #
face $-1 $130 $131 $66 $-1 $132 forward single #
face $-1 $133 $134 $67 $-1 $135 forward single #
face $-1 $136 $137 $51 $-1 $138 reversed single #
loop $-1 $-1 $139 $68 #
plane-surface $-1 0 0 17.522546098992621 0 0 1 1 0 0 forward_v I I I I #
face $-1 $140 $141 $52 $-1 $142 reversed single #
loop $-1 $-1 $143 $69 #
plane-surface $-1 73.269288086644934 20.277433997116109 190.32621062456184 0 1 0 0.73135370988377701 0 0.68199835119979291 forward_v I I I I #
face $-1 $144 $145 $53 $-1 $146 forward single #
loop $-1 $147 $148 $70 #
cone-surface $-1 58.782532773193914 24.639067973282629 9.1281399946983726 -0.73135370988377701 0 -0.68199835119979291 0.68199835119979291 0 -0.73135370988377701 1 I I 0 1 1 forward I I I I #
face $-1 $149 $150 $54 $-1 $151 forward single #
loop $-1 $152 $153 $71 #
cone-surface $-1 58.782532773193914 31.18151893753241 9.1281399946983726 -0.73135370988377701 0 -0.68199835119979291 0.68199835119979291 0 -0.73135370988377701 1 I I 0 1 1 forward I I I I #
face $-1 $154 $155 $55 $-1 $156 forward single #
loop $-1 $157 $158 $72 #
cone-surface $-1 58.782532773193914 37.723969901782191 9.1281399946983726 -0.73135370988377701 0 -0.68199835119979291 0.68199835119979291 0 -0.73135370988377701 1 I I 0 1 1 forward I I I I #
face $-1 $159 $160 $56 $-1 $161 reversed single #
loop $-1 $-1 $162 $73 #
plane-surface $-1 -139.32686323342062 -39.349047846753351 114.13825594254808 0 1 0 -0.54463904215088732 0 0.83867056331134215 forward_v I I I I #
face $-1 $163 $164 $57 $-1 $165 forward single #
loop $-1 $166 $167 $74 #
cone-surface $-1 -54.663859446089795 -36.560435539521535 9.4578897249868934 0.54463904215088732 0 -0.83867056331134215 0.41933528165567108 0 0.27231952107544366 1 I I 0 1 0.5 forward I I I I #
face $-1 $168 $169 $58 $-1 $170 forward single #
loop $-1 $171 $172 $75 #
cone-surface $-1 -54.663859446089795 -32.377517078673826 9.4578897249868934 0.54463904215088732 0 -0.83867056331134215 0.41933528165567108 0 0.27231952107544366 1 I I 0 1 0.5 forward I I I I #
face $-1 $173 $174 $59 $-1 $175 reversed single #
loop $-1 $-1 $176 $76 #
plane-surface $-1 -139.32686323342062 -18.30624590777898 114.13825594254808 0 1 0 -0.54463904215088732 0 0.83867056331134215 forward_v I I I I #
face $-1 $177 $178 $60 $-1 $179 forward single #
loop $-1 $180 $181 $77 #
cone-surface $-1 -54.663859446089795 -15.517633600547171 9.4578897249868934 0.54463904215088732 0 -0.83867056331134215 0.41933528165567108 0 0.27231952107544366 1 I I 0 1 0.5 forward I I I I #
face $-1 $182 $183 $61 $-1 $184 forward single #
loop $-1 $185 $186 $78 #
cone-surface $-1 -54.663859446089795 -11.334715139699458 9.4578897249868934 0.54463904215088732 0 -0.83867056331134215 0.41933528165567108 0 0.27231952107544366 1 I I 0 1 0.5 forward I I I I #
face $-1 $187 $188 $62 $-1 $189 reversed single #
loop $-1 $-1 $190 $79 #
plane-surface $-1 -139.32686323342062 2.736556031195386 114.13825594254808 0 1 0 -0.54463904215088732 0 0.83867056331134215 forward_v I I I I #
face $-1 $191 $192 $63 $-1 $193 forward single #
loop $-1 $194 $195 $80 #
cone-surface $-1 -54.663859446089795 5.5251683384271999 9.4578897249868934 0.54463904215088732 0 -0.83867056331134215 0.41933528165567108 0 0.27231952107544366 1 I I 0 1 0.5 forward I I I I #
face $-1 $196 $197 $64 $-1 $198 forward single #
loop $-1 $199 $200 $81 #
cone-surface $-1 -54.663859446089795 9.7080867992749091 9.4578897249868934 0.54463904215088732 0 -0.83867056331134215 0.41933528165567108 0 0.27231952107544366 1 I I 0 1 0.5 forward I I I I #
face $-1 $201 $202 $65 $-1 $203 reversed single #
loop $-1 $-1 $204 $82 #
plane-surface $-1 -139.32686323342062 23.779357970169748 114.13825594254808 0 1 0 -0.54463904215088732 0 0.83867056331134215 forward_v I I I I #
face $-1 $205 $206 $66 $-1 $207 forward single #
loop $-1 $208 $209 $83 #
cone-surface $-1 -54.663859446089795 26.567970277401564 9.4578897249868934 0.54463904215088732 0 -0.83867056331134215 0.41933528165567108 0 0.27231952107544366 1 I I 0 1 0.5 forward I I I I #
face $-1 $210 $211 $67 $-1 $212 forward single #
loop $-1 $213 $214 $84 #
cone-surface $-1 -54.663859446089795 30.75088873824928 9.4578897249868934 0.54463904215088732 0 -0.83867056331134215 0.41933528165567108 0 0.27231952107544366 1 I I 0 1 0.5 forward I I I I #
face $-1 $215 $216 $51 $-1 $217 reversed single #
loop $-1 $-1 $218 $85 #
plane-surface $-1 0 0 -17.522546098992621 0 0 1 1 0 0 forward_v I I I I #
coedge $-1 $219 $220 $221 $222 forward $86 $-1 #
face $-1 $223 $224 $52 $-1 $225 forward single #
loop $-1 $-1 $226 $88 #
plane-surface $-1 -24.273704469355863 31.181518937532424 99.365900729014996 0.73135370988377701 0 0.68199835119979291 0.68199835119979291 0 -0.73135370988377701 forward_v I I I I #
coedge $-1 $227 $228 $229 $230 reversed $89 $-1 #
face $-1 $-1 $231 $53 $-1 $232 forward single #
loop $-1 $233 $234 $91 #
cone-surface $-1 57.832857693846094 24.639067973282629 8.2425536777934241 -0.73135370988377701 0 -0.68199835119979291 0.34099917559989645 0 -0.36567685494188851 1 I I -0.70710678118654746 0.70710678118654746 0.5 forward I I I I #
loop $-1 $-1 $235 $70 #
coedge $-1 $148 $148 $236 $237 reversed $92 $-1 #
face $-1 $-1 $238 $54 $-1 $239 forward single #
loop $-1 $240 $241 $94 #
cone-surface $-1 57.832857693846094 31.18151893753241 8.2425536777934241 -0.73135370988377701 0 -0.68199835119979291 0.34099917559989645 0 -0.36567685494188851 1 I I -0.70710678118654746 0.70710678118654746 0.5 forward I I I I #
loop $-1 $-1 $242 $71 #
coedge $-1 $153 $153 $243 $244 reversed $95 $-1 #
face $-1 $-1 $245 $55 $-1 $246 forward single #
loop $-1 $247 $248 $97 #
cone-surface $-1 57.832857693846094 37.723969901782191 8.2425536777934241 -0.73135370988377701 0 -0.68199835119979291 0.34099917559989645 0 -0.36567685494188851 1 I I -0.70710678118654746 0.70710678118654746 0.5 forward I I I I #
loop $-1 $-1 $249 $72 #
coedge $-1 $158 $158 $250 $251 reversed $98 $-1 #
face $-1 $252 $253 $56 $-1 $254 reversed single #
loop $-1 $-1 $255 $100 #
plane-surface $-1 -66.686605426190965 -34.468976309097684 2.282070066338477 -0.54463904215088732 0 0.83867056331134215 0.83867056331134215 0 0.54463904215088732 forward_v I I I I #
coedge $-1 $256 $257 $258 $259 reversed $101 $-1 #
face $-1 $-1 $260 $57 $-1 $261 forward single #
loop $-1 $262 $263 $103 #
cone-surface $-1 -54.239091024143129 -36.560435539521535 8.8038037264804032 0.54463904215088732 0 -0.83867056331134215 0.20966764082783554 0 0.13615976053772183 1 I I -0.70710678118654746 0.70710678118654746 0.25 forward I I I I #
loop $-1 $-1 $264 $74 #
coedge $-1 $167 $167 $265 $266 reversed $104 $-1 #
face $-1 $-1 $267 $58 $-1 $268 forward single #
loop $-1 $269 $270 $106 #
cone-surface $-1 -54.239091024143129 -32.377517078673826 8.8038037264804032 0.54463904215088732 0 -0.83867056331134215 0.20966764082783554 0 0.13615976053772183 1 I I -0.70710678118654746 0.70710678118654746 0.25 forward I I I I #
loop $-1 $-1 $271 $75 #
coedge $-1 $172 $172 $272 $273 reversed $107 $-1 #
face $-1 $274 $275 $59 $-1 $276 reversed single #
loop $-1 $-1 $277 $109 #
plane-surface $-1 -66.686605426190965 -13.426174370123313 2.282070066338477 -0.54463904215088732 0 0.83867056331134215 0.83867056331134215 0 0.54463904215088732 forward_v I I I I #
coedge $-1 $278 $279 $280 $281 reversed $110 $-1 #
face $-1 $-1 $282 $60 $-1 $283 forward single #
loop $-1 $284 $285 $112 #
cone-surface $-1 -54.239091024143129 -15.517633600547171 8.8038037264804032 0.54463904215088732 0 -0.83867056331134215 0.20966764082783554 0 0.13615976053772183 1 I I -0.70710678118654746 0.70710678118654746 0.25 forward I I I I #
loop $-1 $-1 $286 $77 #
coedge $-1 $181 $181 $287 $288 reversed $113 $-1 #
face $-1 $-1 $289 $61 $-1 $290 forward single #
loop $-1 $291 $292 $115 #
cone-surface $-1 -54.239091024143129 -11.334715139699458 8.8038037264804032 0.54463904215088732 0 -0.83867056331134215 0.20966764082783554 0 0.13615976053772183 1 I I -0.70710678118654746 0.70710678118654746 0.25 forward I I I I #
loop $-1 $-1 $293 $78 #
coedge $-1 $186 $186 $294 $295 reversed $116 $-1 #
face $-1 $296 $297 $62 $-1 $298 reversed single #
loop $-1 $-1 $299 $118 #
plane-surface $-1 -66.686605426190965 7.616627568851051 2.282070066338477 -0.54463904215088732 0 0.83867056331134215 0.83867056331134215 0 0.54463904215088732 forward_v I I I I #
coedge $-1 $300 $301 $302 $303 reversed $119 $-1 #
face $-1 $-1 $304 $63 $-1 $305 forward single #
loop $-1 $306 $307 $121 #
cone-surface $-1 -54.239091024143129 5.5251683384271999 8.8038037264804032 0.54463904215088732 0 -0.83867056331134215 0.20966764082783554 0 0.13615976053772183 1 I I -0.70710678118654746 0.70710678118654746 0.25 forward I I I I #
loop $-1 $-1 $308 $80 #
coedge $-1 $195 $195 $309 $310 reversed $122 $-1 #
face $-1 $-1 $311 $64 $-1 $312 forward single #
loop $-1 $313 $314 $124 #
cone-surface $-1 -54.239091024143129 9.7080867992749091 8.8038037264804032 0.54463904215088732 0 -0.83867056331134215 0.20966764082783554 0 0.13615976053772183 1 I I -0.70710678118654746 0.70710678118654746 0.25 forward I I I I #
loop $-1 $-1 $315 $81 #
coedge $-1 $200 $200 $316 $317 reversed $125 $-1 #
face $-1 $318 $319 $65 $-1 $320 reversed single #
loop $-1 $-1 $321 $127 #
plane-surface $-1 -66.686605426190965 28.659429507825415 2.282070066338477 -0.54463904215088732 0 0.83867056331134215 0.83867056331134215 0 0.54463904215088732 forward_v I I I I #
coedge $-1 $322 $323 $324 $325 reversed $128 $-1 #
face $-1 $-1 $326 $66 $-1 $327 forward single #
loop $-1 $328 $329 $130 #
cone-surface $-1 -54.239091024143129 26.567970277401564 8.8038037264804032 0.54463904215088732 0 -0.83867056331134215 0.20966764082783554 0 0.13615976053772183 1 I I -0.70710678118654746 0.70710678118654746 0.25 forward I I I I #
loop $-1 $-1 $330 $83 #
coedge $-1 $209 $209 $331 $332 reversed $131 $-1 #
face $-1 $-1 $333 $67 $-1 $334 forward single #
loop $-1 $335 $336 $133 #
cone-surface $-1 -54.239091024143129 30.75088873824928 8.8038037264804032 0.54463904215088732 0 -0.83867056331134215 0.20966764082783554 0 0.13615976053772183 1 I I -0.70710678118654746 0.70710678118654746 0.25 forward I I I I #
loop $-1 $-1 $337 $84 #
coedge $-1 $214 $214 $338 $339 reversed $134 $-1 #
face $-1 $340 $341 $51 $-1 $342 reversed single #
loop $-1 $-1 $343 $136 #
plane-surface $-1 0 -42.085603877948735 0 0 1 0 0 0 1 forward_v I I I I #
coedge $-1 $344 $345 $346 $347 forward $137 $-1 #
coedge $-1 $348 $139 $349 $350 forward $86 $-1 #
coedge $-1 $139 $348 $351 $352 forward $86 $-1 #
coedge $-1 $353 $354 $139 $222 reversed $355 $-1 #
edge $-1 $356 -42.085603877948735 $357 42.085603877948735 $221 $358 forward 7 unknown #
face $-1 $359 $360 $52 $-1 $361 reversed single #
loop $-1 $-1 $362 $140 #
plane-surface $-1 0 0 17.522546098992621 0 0 1 1 0 0 forward_v I I I I #
coedge $-1 $363 $364 $365 $366 reversed $141 $-1 #
coedge $-1 $228 $143 $367 $368 reversed $89 $-1 #
coedge $-1 $143 $227 $363 $369 reversed $89 $-1 #
coedge $-1 $365 $370 $143 $230 forward $360 $-1 #
edge $-1 $371 77.640559213288299 $372 93.340197139266735 $229 $373 forward 7 unknown #
loop $-1 $-1 $236 $144 #
plane-surface $-1 -24.273704469355863 31.181518937532424 99.365900729014996 0.73135370988377701 0 0.68199835119979291 0.68199835119979291 0 -0.73135370988377701 forward_v I I I I #
loop $-1 $-1 $374 $91 #
coedge $-1 $234 $234 $235 $375 reversed $145 $-1 #
coedge $-1 $235 $235 $234 $375 forward $147 $-1 #
coedge $-1 $236 $236 $148 $237 forward $231 $-1 #
edge $-1 $376 0 $376 6.2831853071796004 $236 $377 forward 7 unknown #
loop $-1 $-1 $243 $149 #
plane-surface $-1 -24.273704469355863 31.181518937532424 99.365900729014996 0.73135370988377701 0 0.68199835119979291 0.68199835119979291 0 -0.73135370988377701 forward_v I I I I #
loop $-1 $-1 $378 $94 #
coedge $-1 $241 $241 $242 $379 reversed $150 $-1 #
coedge $-1 $242 $242 $241 $379 forward $152 $-1 #
coedge $-1 $243 $243 $153 $244 forward $238 $-1 #
edge $-1 $380 0 $380 6.2831853071796004 $243 $381 forward 7 unknown #
loop $-1 $-1 $250 $154 #
plane-surface $-1 -24.273704469355863 31.181518937532424 99.365900729014996 0.73135370988377701 0 0.68199835119979291 0.68199835119979291 0 -0.73135370988377701 forward_v I I I I #
loop $-1 $-1 $382 $97 #
coedge $-1 $248 $248 $249 $383 reversed $155 $-1 #
coedge $-1 $249 $249 $248 $383 forward $157 $-1 #
coedge $-1 $250 $250 $158 $251 forward $245 $-1 #
edge $-1 $384 0 $384 6.2831853071796004 $250 $385 forward 7 unknown #
face $-1 $386 $387 $56 $-1 $388 reversed single #
loop $-1 $-1 $389 $159 #
plane-surface $-1 -139.32686323342062 -29.588904771442017 114.13825594254808 0 -1 0 0.54463904215088732 0 -0.83867056331134215 forward_v I I I I #
coedge $-1 $390 $391 $392 $393 reversed $160 $-1 #
coedge $-1 $257 $162 $394 $395 reversed $101 $-1 #
coedge $-1 $162 $256 $390 $396 reversed $101 $-1 #
coedge $-1 $392 $397 $162 $259 forward $398 $-1 #
edge $-1 $399 2.9768261905193185 $400 26.44510082790385 $258 $401 forward 7 unknown #
loop $-1 $-1 $265 $163 #
plane-surface $-1 -66.686605426190965 -34.468976309097684 2.282070066338477 -0.54463904215088732 0 0.83867056331134215 0.83867056331134215 0 0.54463904215088732 forward_v I I I I #
loop $-1 $-1 $402 $103 #
coedge $-1 $263 $263 $264 $403 reversed $164 $-1 #
coedge $-1 $264 $264 $263 $403 forward $166 $-1 #
coedge $-1 $265 $265 $167 $266 forward $260 $-1 #
edge $-1 $404 0 $404 6.2831853071796004 $265 $405 forward 7 unknown #
loop $-1 $-1 $272 $168 #
plane-surface $-1 -66.686605426190965 -34.468976309097684 2.282070066338477 -0.54463904215088732 0 0.83867056331134215 0.83867056331134215 0 0.54463904215088732 forward_v I I I I #
loop $-1 $-1 $406 $106 #
coedge $-1 $270 $270 $271 $407 reversed $169 $-1 #
coedge $-1 $271 $271 $270 $407 forward $171 $-1 #
coedge $-1 $272 $272 $172 $273 forward $267 $-1 #
edge $-1 $408 0 $408 6.2831853071796004 $272 $409 forward 7 unknown #
face $-1 $410 $411 $59 $-1 $412 forward single #
loop $-1 $-1 $413 $173 #
plane-surface $-1 -139.32686323342062 -8.546102832467648 114.13825594254808 0 -1 0 0.54463904215088732 0 -0.83867056331134215 forward_v I I I I #
coedge $-1 $414 $415 $416 $417 reversed $174 $-1 #
coedge $-1 $279 $176 $418 $419 reversed $110 $-1 #
coedge $-1 $176 $278 $414 $420 reversed $110 $-1 #
coedge $-1 $416 $421 $176 $281 forward $411 $-1 #
edge $-1 $422 2.9768261905193185 $423 26.44510082790385 $280 $424 forward 7 unknown #
loop $-1 $-1 $287 $177 #
plane-surface $-1 -66.686605426190965 -13.426174370123313 2.282070066338477 -0.54463904215088732 0 0.83867056331134215 0.83867056331134215 0 0.54463904215088732 forward_v I I I I #
loop $-1 $-1 $425 $112 #
coedge $-1 $285 $285 $286 $426 reversed $178 $-1 #
coedge $-1 $286 $286 $285 $426 forward $180 $-1 #
coedge $-1 $287 $287 $181 $288 forward $282 $-1 #
edge $-1 $427 0 $427 6.2831853071796004 $287 $428 forward 7 unknown #
loop $-1 $-1 $294 $182 #
plane-surface $-1 -66.686605426190965 -13.426174370123313 2.282070066338477 -0.54463904215088732 0 0.83867056331134215 0.83867056331134215 0 0.54463904215088732 forward_v I I I I #
loop $-1 $-1 $429 $115 #
coedge $-1 $292 $292 $293 $430 reversed $183 $-1 #
coedge $-1 $293 $293 $292 $430 forward $185 $-1 #
coedge $-1 $294 $294 $186 $295 forward $289 $-1 #
edge $-1 $431 0 $431 6.2831853071796004 $294 $432 forward 7 unknown #
face $-1 $433 $434 $62 $-1 $435 forward single #
loop $-1 $-1 $436 $187 #
plane-surface $-1 -139.32686323342062 12.496699106506716 114.13825594254808 0 -1 0 0.54463904215088732 0 -0.83867056331134215 forward_v I I I I #
coedge $-1 $437 $438 $439 $440 reversed $188 $-1 #
coedge $-1 $301 $190 $441 $442 reversed $119 $-1 #
coedge $-1 $190 $300 $437 $443 reversed $119 $-1 #
coedge $-1 $439 $444 $190 $303 forward $434 $-1 #
edge $-1 $445 2.9768261905193185 $446 26.44510082790385 $302 $447 forward 7 unknown #
loop $-1 $-1 $309 $191 #
plane-surface $-1 -66.686605426190965 7.616627568851051 2.282070066338477 -0.54463904215088732 0 0.83867056331134215 0.83867056331134215 0 0.54463904215088732 forward_v I I I I #
loop $-1 $-1 $448 $121 #
coedge $-1 $307 $307 $308 $449 reversed $192 $-1 #
coedge $-1 $308 $308 $307 $449 forward $194 $-1 #
coedge $-1 $309 $309 $195 $310 forward $304 $-1 #
edge $-1 $450 0 $450 6.2831853071796004 $309 $451 forward 7 unknown #
loop $-1 $-1 $316 $196 #
plane-surface $-1 -66.686605426190965 7.616627568851051 2.282070066338477 -0.54463904215088732 0 0.83867056331134215 0.83867056331134215 0 0.54463904215088732 forward_v I I I I #
loop $-1 $-1 $452 $124 #
coedge $-1 $314 $314 $315 $453 reversed $197 $-1 #
coedge $-1 $315 $315 $314 $453 forward $199 $-1 #
coedge $-1 $316 $316 $200 $317 forward $311 $-1 #
edge $-1 $454 0 $454 6.2831853071796004 $316 $455 forward 7 unknown #
face $-1 $456 $457 $65 $-1 $458 forward single #
loop $-1 $-1 $459 $201 #
plane-surface $-1 -139.32686323342062 33.539501045481082 114.13825594254808 0 -1 0 0.54463904215088732 0 -0.83867056331134215 forward_v I I I I #
coedge $-1 $460 $461 $462 $463 reversed $202 $-1 #
coedge $-1 $323 $204 $464 $465 reversed $128 $-1 #
coedge $-1 $204 $322 $460 $466 reversed $128 $-1 #
coedge $-1 $462 $467 $204 $325 forward $457 $-1 #
edge $-1 $468 2.9768261905193185 $469 26.44510082790385 $324 $470 forward 7 unknown #
loop $-1 $-1 $331 $205 #
plane-surface $-1 -66.686605426190965 28.659429507825415 2.282070066338477 -0.54463904215088732 0 0.83867056331134215 0.83867056331134215 0 0.54463904215088732 forward_v I I I I #
loop $-1 $-1 $471 $130 #
coedge $-1 $329 $329 $330 $472 reversed $206 $-1 #
coedge $-1 $330 $330 $329 $472 forward $208 $-1 #
coedge $-1 $331 $331 $209 $332 forward $326 $-1 #
edge $-1 $473 0 $473 6.2831853071796004 $331 $474 forward 7 unknown #
loop $-1 $-1 $338 $210 #
plane-surface $-1 -66.686605426190965 28.659429507825415 2.282070066338477 -0.54463904215088732 0 0.83867056331134215 0.83867056331134215 0 0.54463904215088732 forward_v I I I I #
loop $-1 $-1 $475 $133 #
coedge $-1 $336 $336 $337 $476 reversed $211 $-1 #
coedge $-1 $337 $337 $336 $476 forward $213 $-1 #
coedge $-1 $338 $338 $214 $339 forward $333 $-1 #
edge $-1 $477 0 $477 6.2831853071796004 $338 $478 forward 7 unknown #
face $-1 $479 $480 $51 $-1 $481 reversed single #
loop $-1 $-1 $482 $215 #
plane-surface $-1 -66.686605426190994 0 0 1 0 0 0 0 -1 forward_v I I I I #
coedge $-1 $483 $351 $484 $485 forward $216 $-1 #
coedge $-1 $486 $218 $483 $487 forward $137 $-1 #
coedge $-1 $218 $486 $488 $489 forward $137 $-1 #
coedge $-1 $354 $353 $218 $347 reversed $355 $-1 #
edge $-1 $490 -42.085603877948735 $491 42.085603877948735 $346 $492 forward 7 unknown #
coedge $-1 $220 $219 $493 $494 forward $86 $-1 #
coedge $-1 $495 $496 $219 $350 reversed $480 $-1 #
edge $-1 $357 -66.686605426190994 $497 66.686605426190994 $349 $498 forward 7 unknown #
coedge $-1 $343 $499 $220 $352 reversed $216 $-1 #
edge $-1 $500 -66.686605426190994 $356 66.686605426190994 $351 $501 forward 7 unknown #
coedge $-1 $346 $221 $499 $502 forward $355 $-1 #
coedge $-1 $221 $346 $495 $503 reversed $355 $-1 #
loop $-1 $-1 $353 $479 #
vertex $-1 $222 $504 #
vertex $-1 $222 $505 #
straight-curve $-1 66.686605426190994 0 17.522546098992621 0 1 0 I I #
face $-1 $-1 $506 $52 $-1 $507 reversed single #
loop $-1 $-1 $229 $223 #
plane-surface $-1 66.686605426190994 0 0 -1 0 0 0 0 1 forward_v I I I I #
coedge $-1 $367 $508 $509 $510 forward $224 $-1 #
coedge $-1 $509 $226 $228 $369 forward $141 $-1 #
coedge $-1 $226 $509 $511 $512 reversed $141 $-1 #
coedge $-1 $513 $229 $226 $366 forward $360 $-1 #
edge $-1 $372 4.6866745283498972 $514 26.494844409182523 $365 $515 forward 7 unknown #
coedge $-1 $516 $362 $227 $368 forward $224 $-1 #
edge $-1 $517 15.411812525686202 $371 30.051961382868527 $367 $518 forward 7 unknown #
edge $-1 $372 -133.37321085238202 $517 -111.90666502946775 $228 $519 forward 7 unknown #
coedge $-1 $229 $513 $516 $520 reversed $360 $-1 #
vertex $-1 $520 $521 #
vertex $-1 $230 $522 #
straight-curve $-1 66.686605426190994 20.277433997116109 95.163105312280919 0 0 -1 I I #
coedge $-1 $374 $374 $-1 $523 reversed $233 $-1 #
edge $-1 $524 0 $524 6.2831853071796004 $234 $525 forward 7 unknown #
vertex $-1 $237 $526 #
ellipse-curve $-1 59.366530997599831 24.639067973282629 9.6727271360034131 0.73135370988377701 0 0.68199835119979291 0.68199835119979291 0 -0.73135370988377701 1 I I #
coedge $-1 $378 $378 $-1 $527 reversed $240 $-1 #
edge $-1 $528 0 $528 6.2831853071796004 $241 $529 forward 7 unknown #
vertex $-1 $244 $530 #
ellipse-curve $-1 59.366530997599831 31.18151893753241 9.6727271360034131 0.73135370988377701 0 0.68199835119979291 0.68199835119979291 0 -0.73135370988377701 1 I I #
coedge $-1 $382 $382 $-1 $531 reversed $247 $-1 #
edge $-1 $532 0 $532 6.2831853071796004 $248 $533 forward 7 unknown #
vertex $-1 $251 $534 #
ellipse-curve $-1 59.366530997599831 37.723969901782191 9.6727271360034131 0.73135370988377701 0 0.68199835119979291 0.68199835119979291 0 -0.73135370988377701 1 I I #
face $-1 $-1 $398 $56 $-1 $535 forward single #
loop $-1 $-1 $536 $252 #
plane-surface $-1 -66.686605426190994 0 0 1 0 0 0 0 -1 forward_v I I I I #
coedge $-1 $537 $538 $539 $540 reversed $253 $-1 #
coedge $-1 $541 $255 $257 $396 forward $160 $-1 #
coedge $-1 $255 $541 $537 $542 forward $160 $-1 #
coedge $-1 $539 $258 $255 $393 forward $398 $-1 #
edge $-1 $400 -22.114559692204509 $543 -12.354416616893175 $392 $544 forward 7 unknown #
coedge $-1 $545 $546 $256 $395 forward $387 $-1 #
edge $-1 $547 -54.787057904935587 $399 -39.546581872281422 $394 $548 forward 7 unknown #
edge $-1 $400 -27.982709378428854 $547 3.3994920577324079e-014 $257 $549 forward 7 unknown #
coedge $-1 $258 $539 $545 $550 forward $398 $-1 #
loop $-1 $-1 $539 $386 #
vertex $-1 $395 $551 #
vertex $-1 $259 $552 #
straight-curve $-1 -69.663431616710312 -39.349047846753351 17.522546098992621 1 0 0 I I #
coedge $-1 $402 $402 $-1 $553 reversed $262 $-1 #
edge $-1 $554 0 $554 6.2831853071796004 $263 $555 forward 7 unknown #
vertex $-1 $266 $556 #
ellipse-curve $-1 -54.952468107498731 -36.560435539521535 9.9023080826655363 -0.54463904215088732 0 0.83867056331134215 0.41933528165567108 0 0.27231952107544366 1 I I #
coedge $-1 $406 $406 $-1 $557 reversed $269 $-1 #
edge $-1 $558 0 $558 6.2831853071796004 $270 $559 forward 7 unknown #
vertex $-1 $273 $560 #
ellipse-curve $-1 -54.952468107498731 -32.377517078673826 9.9023080826655363 -0.54463904215088732 0 0.83867056331134215 0.41933528165567108 0 0.27231952107544366 1 I I #
face $-1 $-1 $561 $59 $-1 $562 reversed single #
loop $-1 $-1 $280 $274 #
plane-surface $-1 0 0 17.522546098992621 0 0 1 1 0 0 forward_v I I I I #
coedge $-1 $563 $564 $565 $566 reversed $275 $-1 #
coedge $-1 $567 $277 $279 $420 forward $174 $-1 #
coedge $-1 $277 $567 $563 $568 forward $174 $-1 #
coedge $-1 $565 $280 $277 $417 forward $411 $-1 #
edge $-1 $423 -11.593158722717323 $569 -1.8330156474059915 $416 $570 forward 7 unknown #
coedge $-1 $571 $572 $278 $419 forward $561 $-1 #
edge $-1 $573 -54.787057904935587 $422 -39.546581872281422 $418 $574 forward 7 unknown #
edge $-1 $423 -27.982709378428854 $573 3.3994920577324079e-014 $279 $575 forward 7 unknown #
coedge $-1 $280 $565 $571 $576 forward $411 $-1 #
vertex $-1 $281 $577 #
vertex $-1 $281 $578 #
straight-curve $-1 -69.663431616710312 -18.30624590777898 17.522546098992621 1 0 0 I I #
coedge $-1 $425 $425 $-1 $579 reversed $284 $-1 #
edge $-1 $580 0 $580 6.2831853071796004 $285 $581 forward 7 unknown #
vertex $-1 $288 $582 #
ellipse-curve $-1 -54.952468107498731 -15.517633600547171 9.9023080826655363 -0.54463904215088732 0 0.83867056331134215 0.41933528165567108 0 0.27231952107544366 1 I I #
coedge $-1 $429 $429 $-1 $583 reversed $291 $-1 #
edge $-1 $584 0 $584 6.2831853071796004 $292 $585 forward 7 unknown #
vertex $-1 $295 $586 #
ellipse-curve $-1 -54.952468107498731 -11.334715139699458 9.9023080826655363 -0.54463904215088732 0 0.83867056331134215 0.41933528165567108 0 0.27231952107544366 1 I I #
face $-1 $-1 $587 $62 $-1 $588 reversed single #
loop $-1 $-1 $302 $296 #
plane-surface $-1 0 0 17.522546098992621 0 0 1 1 0 0 forward_v I I I I #
coedge $-1 $589 $590 $591 $592 reversed $297 $-1 #
coedge $-1 $593 $299 $301 $443 forward $188 $-1 #
coedge $-1 $299 $593 $589 $594 forward $188 $-1 #
coedge $-1 $591 $302 $299 $440 forward $434 $-1 #
edge $-1 $446 -1.0717577532301394 $595 8.6883853220811904 $439 $596 forward 7 unknown #
coedge $-1 $597 $598 $300 $442 forward $587 $-1 #
edge $-1 $599 -54.787057904935587 $445 -39.546581872281422 $441 $600 forward 7 unknown #
edge $-1 $446 -27.982709378428854 $599 3.3994920577324079e-014 $301 $601 forward 7 unknown #
coedge $-1 $302 $591 $597 $602 forward $434 $-1 #
vertex $-1 $303 $603 #
vertex $-1 $303 $604 #
straight-curve $-1 -69.663431616710312 2.736556031195386 17.522546098992621 1 0 0 I I #
coedge $-1 $448 $448 $-1 $605 reversed $306 $-1 #
edge $-1 $606 0 $606 6.2831853071796004 $307 $607 forward 7 unknown #
vertex $-1 $310 $608 #
ellipse-curve $-1 -54.952468107498731 5.5251683384271999 9.9023080826655363 -0.54463904215088732 0 0.83867056331134215 0.41933528165567108 0 0.27231952107544366 1 I I #
coedge $-1 $452 $452 $-1 $609 reversed $313 $-1 #
edge $-1 $610 0 $610 6.2831853071796004 $314 $611 forward 7 unknown #
vertex $-1 $317 $612 #
ellipse-curve $-1 -54.952468107498731 9.7080867992749091 9.9023080826655363 -0.54463904215088732 0 0.83867056331134215 0.41933528165567108 0 0.27231952107544366 1 I I #
face $-1 $-1 $613 $65 $-1 $614 reversed single #
loop $-1 $-1 $324 $318 #
plane-surface $-1 0 0 17.522546098992621 0 0 1 1 0 0 forward_v I I I I #
coedge $-1 $615 $616 $617 $618 reversed $319 $-1 #
coedge $-1 $619 $321 $323 $466 forward $202 $-1 #
coedge $-1 $321 $619 $615 $620 forward $202 $-1 #
coedge $-1 $617 $324 $321 $463 forward $457 $-1 #
edge $-1 $469 9.4496432162570407 $621 19.209786291568374 $462 $622 forward 7 unknown #
coedge $-1 $623 $624 $322 $465 forward $613 $-1 #
edge $-1 $625 -54.787057904935587 $468 -39.546581872281422 $464 $626 forward 7 unknown #
edge $-1 $469 -27.982709378428854 $625 3.3994920577324079e-014 $323 $627 forward 7 unknown #
coedge $-1 $324 $617 $623 $628 forward $457 $-1 #
vertex $-1 $325 $629 #
vertex $-1 $325 $630 #
straight-curve $-1 -69.663431616710312 23.779357970169748 17.522546098992621 1 0 0 I I #
coedge $-1 $471 $471 $-1 $631 reversed $328 $-1 #
edge $-1 $632 0 $632 6.2831853071796004 $329 $633 forward 7 unknown #
vertex $-1 $332 $634 #
ellipse-curve $-1 -54.952468107498731 26.567970277401564 9.9023080826655363 -0.54463904215088732 0 0.83867056331134215 0.41933528165567108 0 0.27231952107544366 1 I I #
coedge $-1 $475 $475 $-1 $635 reversed $335 $-1 #
edge $-1 $636 0 $636 6.2831853071796004 $336 $637 forward 7 unknown #
vertex $-1 $339 $638 #
ellipse-curve $-1 -54.952468107498731 30.75088873824928 9.9023080826655363 -0.54463904215088732 0 0.83867056331134215 0.41933528165567108 0 0.27231952107544366 1 I I #
face $-1 $-1 $355 $51 $-1 $639 reversed single #
loop $-1 $-1 $495 $340 #
plane-surface $-1 0 42.085603877948735 0 0 -1 0 0 0 -1 forward_v I I I I #
coedge $-1 $640 $493 $496 $641 forward $341 $-1 #
coedge $-1 $499 $343 $344 $487 reversed $216 $-1 #
coedge $-1 $493 $640 $343 $485 reversed $341 $-1 #
edge $-1 $500 -17.522546098992621 $642 17.522546098992621 $484 $643 forward 7 unknown #
coedge $-1 $345 $344 $640 $644 forward $137 $-1 #
edge $-1 $491 -66.686605426190994 $642 66.686605426190994 $483 $645 forward 7 unknown #
coedge $-1 $496 $495 $345 $489 reversed $480 $-1 #
edge $-1 $646 -66.686605426190994 $490 66.686605426190994 $488 $647 forward 7 unknown #
vertex $-1 $347 $648 #
vertex $-1 $502 $649 #
straight-curve $-1 66.686605426190994 0 -17.522546098992621 0 -1 0 I I #
coedge $-1 $482 $484 $348 $494 reversed $341 $-1 #
edge $-1 $497 -42.085603877948735 $500 42.085603877948735 $493 $650 forward 7 unknown #
coedge $-1 $488 $349 $354 $503 forward $480 $-1 #
coedge $-1 $349 $488 $482 $641 reversed $480 $-1 #
vertex $-1 $350 $651 #
straight-curve $-1 0 42.085603877948735 17.522546098992621 -1 0 0 I I #
coedge $-1 $351 $483 $353 $502 reversed $216 $-1 #
vertex $-1 $494 $652 #
straight-curve $-1 0 -42.085603877948735 17.522546098992621 1 0 0 I I #
edge $-1 $356 -17.522546098992621 $491 17.522546098992621 $353 $653 forward 7 unknown #
edge $-1 $357 -17.522546098992621 $490 17.522546098992621 $354 $654 forward 7 unknown #
point $-1 66.686605426190994 -42.085603877948735 17.522546098992621 #
point $-1 66.686605426190994 42.085603877948735 17.522546098992621 #
loop $-1 $-1 $511 $359 #
plane-surface $-1 0 42.085603877948735 0 0 -1 0 0 0 -1 forward_v I I I I #
coedge $-1 $362 $516 $655 $656 forward $224 $-1 #
coedge $-1 $364 $363 $362 $510 reversed $141 $-1 #
edge $-1 $657 -26.49484440918253 $517 -4.6866745283498972 $362 $658 forward 7 unknown #
coedge $-1 $655 $659 $364 $512 forward $506 $-1 #
edge $-1 $514 -88.760087572522025 $657 -67.293541749607769 $511 $660 forward 7 unknown #
coedge $-1 $370 $365 $659 $661 reversed $360 $-1 #
vertex $-1 $366 $662 #
straight-curve $-1 66.686605426190994 15.590759468766212 1.8229081730141843 0 1 0 I I #
coedge $-1 $508 $367 $370 $520 forward $224 $-1 #
vertex $-1 $368 $663 #
straight-curve $-1 36.634644043322467 20.277433997116109 17.522546098992621 1 0 0 I I #
straight-curve $-1 -24.273704469355863 20.277433997116109 99.365900729014996 -0.68199835119979291 0 0.73135370988377701 I I #
edge $-1 $371 20.277433997116109 $664 42.085603877948735 $370 $665 forward 7 unknown #
point $-1 66.686605426190994 20.277433997116109 17.522546098992621 #
point $-1 66.686605426190994 20.277433997116109 1.8229081730141843 #
edge $-1 $666 1 $666 0 $374 $-1 forward 7 unknown #
vertex $-1 $375 $667 #
ellipse-curve $-1 58.198534548787983 24.639067973282629 8.5835528533933214 0.73135370988377701 0 0.68199835119979291 0.68199835119979291 0 -0.73135370988377701 1 I I #
point $-1 60.048529348799633 24.639067973282629 8.9413734261196467 #
edge $-1 $668 1 $668 0 $378 $-1 forward 7 unknown #
vertex $-1 $379 $669 #
ellipse-curve $-1 58.198534548787983 31.18151893753241 8.5835528533933214 0.73135370988377701 0 0.68199835119979291 0.68199835119979291 0 -0.73135370988377701 1 I I #
point $-1 60.048529348799633 31.18151893753241 8.9413734261196467 #
edge $-1 $670 1 $670 0 $382 $-1 forward 7 unknown #
vertex $-1 $383 $671 #
ellipse-curve $-1 58.198534548787983 37.723969901782191 8.5835528533933214 0.73135370988377701 0 0.68199835119979291 0.68199835119979291 0 -0.73135370988377701 1 I I #
point $-1 60.048529348799633 37.723969901782191 8.9413734261196467 #
plane-surface $-1 0 0 17.522546098992621 0 0 1 1 0 0 forward_v I I I I #
coedge $-1 $546 $545 $538 $672 forward $387 $-1 #
coedge $-1 $538 $389 $391 $542 reversed $253 $-1 #
coedge $-1 $389 $537 $536 $672 reversed $253 $-1 #
coedge $-1 $397 $392 $389 $540 forward $398 $-1 #
edge $-1 $543 -26.44510082790385 $673 -2.9768261905193185 $539 $674 forward 7 unknown #
coedge $-1 $391 $390 $546 $675 reversed $160 $-1 #
edge $-1 $676 -3.3994920577324079e-014 $543 27.982709378428854 $537 $677 forward 7 unknown #
vertex $-1 $393 $678 #
straight-curve $-1 -43.218330788806469 -17.234488154548842 17.522546098992621 0 1 0 I I #
coedge $-1 $536 $394 $397 $550 reversed $387 $-1 #
coedge $-1 $394 $536 $541 $675 forward $387 $-1 #
vertex $-1 $395 $679 #
straight-curve $-1 -66.686605426190994 -39.349047846753351 57.069127971274042 0 0 1 I I #
straight-curve $-1 -66.686605426190965 -39.349047846753351 2.282070066338477 -0.83867056331134215 0 -0.54463904215088732 I I #
edge $-1 $673 29.588904771442017 $399 39.349047846753351 $545 $680 forward 7 unknown #
point $-1 -66.686605426190994 -39.349047846753351 17.522546098992621 #
point $-1 -43.218330788806462 -39.349047846753351 17.522546098992621 #
edge $-1 $681 1 $681 0 $402 $-1 forward 7 unknown #
vertex $-1 $403 $682 #
ellipse-curve $-1 -54.375250784680851 -36.560435539521535 9.0134713673082381 -0.54463904215088732 0 0.83867056331134215 0.41933528165567108 0 0.27231952107544366 1 I I #
point $-1 -54.533132825843069 -36.560435539521535 10.174627603740992 #
edge $-1 $683 1 $683 0 $406 $-1 forward 7 unknown #
vertex $-1 $407 $684 #
ellipse-curve $-1 -54.375250784680851 -32.377517078673826 9.0134713673082381 -0.54463904215088732 0 0.83867056331134215 0.41933528165567108 0 0.27231952107544366 1 I I #
point $-1 -54.533132825843069 -32.377517078673826 10.174627603740992 #
loop $-1 $-1 $418 $410 #
plane-surface $-1 -66.686605426190994 0 0 1 0 0 0 0 -1 forward_v I I I I #
coedge $-1 $564 $413 $415 $568 reversed $275 $-1 #
coedge $-1 $413 $563 $685 $686 reversed $275 $-1 #
coedge $-1 $421 $416 $413 $566 forward $411 $-1 #
edge $-1 $569 -26.44510082790385 $687 -2.9768261905193185 $565 $688 forward 7 unknown #
coedge $-1 $415 $414 $572 $689 reversed $174 $-1 #
edge $-1 $690 -3.3994920577324079e-014 $569 27.982709378428854 $563 $691 forward 7 unknown #
vertex $-1 $417 $692 #
straight-curve $-1 -43.218330788806469 -6.7130871850616565 17.522546098992621 0 1 0 I I #
coedge $-1 $685 $418 $421 $576 reversed $561 $-1 #
coedge $-1 $418 $685 $567 $689 forward $561 $-1 #
vertex $-1 $419 $693 #
straight-curve $-1 -66.686605426190994 -18.30624590777898 57.069127971274042 0 0 1 I I #
straight-curve $-1 -66.686605426190965 -18.30624590777898 2.282070066338477 -0.83867056331134215 0 -0.54463904215088732 I I #
edge $-1 $687 8.546102832467648 $422 18.30624590777898 $571 $694 forward 7 unknown #
point $-1 -66.686605426190994 -18.30624590777898 17.522546098992621 #
point $-1 -43.218330788806462 -18.30624590777898 17.522546098992621 #
edge $-1 $695 1 $695 0 $425 $-1 forward 7 unknown #
vertex $-1 $426 $696 #
ellipse-curve $-1 -54.375250784680851 -15.517633600547171 9.0134713673082381 -0.54463904215088732 0 0.83867056331134215 0.41933528165567108 0 0.27231952107544366 1 I I #
point $-1 -54.533132825843069 -15.517633600547171 10.174627603740992 #
edge $-1 $697 1 $697 0 $429 $-1 forward 7 unknown #
vertex $-1 $430 $698 #
ellipse-curve $-1 -54.375250784680851 -11.334715139699458 9.0134713673082381 -0.54463904215088732 0 0.83867056331134215 0.41933528165567108 0 0.27231952107544366 1 I I #
point $-1 -54.533132825843069 -11.334715139699458 10.174627603740992 #
loop $-1 $-1 $441 $433 #
plane-surface $-1 -66.686605426190994 0 0 1 0 0 0 0 -1 forward_v I I I I #
coedge $-1 $590 $436 $438 $594 reversed $297 $-1 #
coedge $-1 $436 $589 $699 $700 reversed $297 $-1 #
coedge $-1 $444 $439 $436 $592 forward $434 $-1 #
edge $-1 $595 -26.44510082790385 $701 -2.9768261905193185 $591 $702 forward 7 unknown #
coedge $-1 $438 $437 $598 $703 reversed $188 $-1 #
edge $-1 $704 -3.3994920577324079e-014 $595 27.982709378428854 $589 $705 forward 7 unknown #
vertex $-1 $440 $706 #
straight-curve $-1 -43.218330788806469 3.8083137844255255 17.522546098992621 0 1 0 I I #
coedge $-1 $699 $441 $444 $602 reversed $587 $-1 #
coedge $-1 $441 $699 $593 $703 forward $587 $-1 #
vertex $-1 $442 $707 #
straight-curve $-1 -66.686605426190994 2.736556031195386 57.069127971274042 0 0 1 I I #
straight-curve $-1 -66.686605426190965 2.736556031195386 2.282070066338477 -0.83867056331134215 0 -0.54463904215088732 I I #
edge $-1 $701 -12.496699106506716 $445 -2.736556031195386 $597 $708 forward 7 unknown #
point $-1 -66.686605426190994 2.736556031195386 17.522546098992621 #
point $-1 -43.218330788806462 2.736556031195386 17.522546098992621 #
edge $-1 $709 1 $709 0 $448 $-1 forward 7 unknown #
vertex $-1 $449 $710 #
ellipse-curve $-1 -54.375250784680851 5.5251683384271999 9.0134713673082381 -0.54463904215088732 0 0.83867056331134215 0.41933528165567108 0 0.27231952107544366 1 I I #
point $-1 -54.533132825843069 5.5251683384271999 10.174627603740992 #
edge $-1 $711 1 $711 0 $452 $-1 forward 7 unknown #
vertex $-1 $453 $712 #
ellipse-curve $-1 -54.375250784680851 9.7080867992749091 9.0134713673082381 -0.54463904215088732 0 0.83867056331134215 0.41933528165567108 0 0.27231952107544366 1 I I #
point $-1 -54.533132825843069 9.7080867992749091 10.174627603740992 #
loop $-1 $-1 $464 $456 #
plane-surface $-1 -66.686605426190994 0 0 1 0 0 0 0 -1 forward_v I I I I #
coedge $-1 $616 $459 $461 $620 reversed $319 $-1 #
coedge $-1 $459 $615 $713 $714 reversed $319 $-1 #
coedge $-1 $467 $462 $459 $618 forward $457 $-1 #
edge $-1 $621 -26.44510082790385 $715 -2.9768261905193185 $617 $716 forward 7 unknown #
coedge $-1 $461 $460 $624 $717 reversed $202 $-1 #
edge $-1 $718 -3.3994920577324079e-014 $621 27.982709378428854 $615 $719 forward 7 unknown #
vertex $-1 $463 $720 #
straight-curve $-1 -43.218330788806469 14.329714753912707 17.522546098992621 0 1 0 I I #
coedge $-1 $713 $464 $467 $628 reversed $613 $-1 #
coedge $-1 $464 $713 $619 $717 forward $613 $-1 #
vertex $-1 $465 $721 #
straight-curve $-1 -66.686605426190994 23.779357970169748 57.069127971274042 0 0 1 I I #
straight-curve $-1 -66.686605426190965 23.779357970169748 2.282070066338477 -0.83867056331134215 0 -0.54463904215088732 I I #
edge $-1 $715 -33.539501045481082 $468 -23.779357970169748 $623 $722 forward 7 unknown #
point $-1 -66.686605426190994 23.779357970169748 17.522546098992621 #
point $-1 -43.218330788806462 23.779357970169748 17.522546098992621 #
edge $-1 $723 1 $723 0 $471 $-1 forward 7 unknown #
vertex $-1 $472 $724 #
ellipse-curve $-1 -54.375250784680851 26.567970277401564 9.0134713673082381 -0.54463904215088732 0 0.83867056331134215 0.41933528165567108 0 0.27231952107544366 1 I I #
point $-1 -54.533132825843069 26.567970277401564 10.174627603740992 #
edge $-1 $725 1 $725 0 $475 $-1 forward 7 unknown #
vertex $-1 $476 $726 #
ellipse-curve $-1 -54.375250784680851 30.75088873824928 9.0134713673082381 -0.54463904215088732 0 0.83867056331134215 0.41933528165567108 0 0.27231952107544366 1 I I #
point $-1 -54.533132825843069 30.75088873824928 10.174627603740992 #
plane-surface $-1 66.686605426190994 0 0 -1 0 0 0 0 1 forward_v I I I I #
coedge $-1 $484 $482 $486 $644 reversed $341 $-1 #
edge $-1 $497 -17.522546098992621 $646 17.522546098992621 $496 $727 forward 7 unknown #
vertex $-1 $644 $728 #
straight-curve $-1 -66.686605426190994 -42.085603877948735 0 0 0 -1 I I #
edge $-1 $642 -42.085603877948735 $646 42.085603877948735 $640 $729 forward 7 unknown #
straight-curve $-1 0 -42.085603877948735 -17.522546098992621 -1 0 0 I I #
vertex $-1 $489 $730 #
straight-curve $-1 0 42.085603877948735 -17.522546098992621 1 0 0 I I #
point $-1 66.686605426190994 42.085603877948735 -17.522546098992621 #
point $-1 66.686605426190994 -42.085603877948735 -17.522546098992621 #
straight-curve $-1 -66.686605426190994 0 17.522546098992621 0 -1 0 I I #
point $-1 -66.686605426190994 42.085603877948735 17.522546098992621 #
point $-1 -66.686605426190994 -42.085603877948735 17.522546098992621 #
straight-curve $-1 66.686605426190994 -42.085603877948735 0 0 0 -1 I I #
straight-curve $-1 66.686605426190994 42.085603877948735 0 0 0 -1 I I #
coedge $-1 $659 $511 $508 $656 reversed $506 $-1 #
edge $-1 $664 -66.686605426190994 $657 -52.046456569008669 $655 $731 forward 7 unknown #
vertex $-1 $512 $732 #
straight-curve $-1 52.046456569008683 15.590759468766212 17.522546098992613 0 -1 0 I I #
coedge $-1 $511 $655 $513 $661 forward $506 $-1 #
straight-curve $-1 6.1523720493817429 42.085603877948735 66.737927508787095 -0.68199835119979291 0 0.73135370988377701 I I #
edge $-1 $664 -17.522546098992621 $514 -1.8229081730141834 $513 $733 forward 7 unknown #
point $-1 66.686605426190994 42.085603877948735 1.8229081730141834 #
point $-1 52.046456569008669 20.277433997116109 17.522546098992621 #
vertex $-1 $520 $734 #
straight-curve $-1 66.686605426190994 0 17.522546098992621 0 1 0 I I #
vertex $-1 $523 $735 #
point $-1 58.880532899987777 24.639067973282629 7.8521991435095435 #
vertex $-1 $527 $736 #
point $-1 58.880532899987777 31.18151893753241 7.8521991435095435 #
vertex $-1 $531 $737 #
point $-1 58.880532899987777 37.723969901782191 7.8521991435095435 #
edge $-1 $673 39.546581872281422 $676 54.787057904935587 $536 $738 forward 7 unknown #
vertex $-1 $550 $739 #
straight-curve $-1 -69.663431616710312 -29.588904771442017 17.522546098992621 -1 0 0 I I #
edge $-1 $676 12.354416616893175 $547 22.114559692204509 $546 $740 forward 7 unknown #
vertex $-1 $675 $741 #
straight-curve $-1 -66.686605426190965 -29.588904771442017 2.282070066338477 0.83867056331134215 0 0.54463904215088732 I I #
point $-1 -43.218330788806462 -29.588904771442017 17.522546098992621 #
point $-1 -66.686605426190994 -39.349047846753351 2.2820700663384583 #
straight-curve $-1 -66.686605426190994 0 17.522546098992621 0 -1 0 I I #
vertex $-1 $553 $742 #
point $-1 -53.955915503025182 -36.560435539521535 9.2857908883836817 #
vertex $-1 $557 $743 #
point $-1 -53.955915503025182 -32.377517078673826 9.2857908883836817 #
coedge $-1 $572 $571 $564 $686 forward $561 $-1 #
edge $-1 $687 39.546581872281422 $690 54.787057904935587 $685 $744 forward 7 unknown #
vertex $-1 $576 $745 #
straight-curve $-1 -69.663431616710312 -8.546102832467648 17.522546098992621 -1 0 0 I I #
edge $-1 $690 1.8330156474059915 $573 11.593158722717323 $572 $746 forward 7 unknown #
vertex $-1 $689 $747 #
straight-curve $-1 -66.686605426190965 -8.546102832467648 2.282070066338477 0.83867056331134215 0 0.54463904215088732 I I #
point $-1 -43.218330788806462 -8.546102832467648 17.522546098992621 #
point $-1 -66.686605426190994 -18.30624590777898 2.2820700663384583 #
straight-curve $-1 -66.686605426190994 0 17.522546098992621 0 -1 0 I I #
vertex $-1 $579 $748 #
point $-1 -53.955915503025182 -15.517633600547171 9.2857908883836817 #
vertex $-1 $583 $749 #
point $-1 -53.955915503025182 -11.334715139699458 9.2857908883836817 #
coedge $-1 $598 $597 $590 $700 forward $587 $-1 #
edge $-1 $701 39.546581872281422 $704 54.787057904935587 $699 $750 forward 7 unknown #
vertex $-1 $602 $751 #
straight-curve $-1 -69.663431616710312 12.496699106506716 17.522546098992621 -1 0 0 I I #
edge $-1 $704 -8.6883853220811904 $599 1.0717577532301394 $598 $752 forward 7 unknown #
vertex $-1 $703 $753 #
straight-curve $-1 -66.686605426190965 12.496699106506716 2.282070066338477 0.83867056331134215 0 0.54463904215088732 I I #
point $-1 -43.218330788806462 12.496699106506716 17.522546098992621 #
point $-1 -66.686605426190994 2.736556031195386 2.2820700663384583 #
straight-curve $-1 -66.686605426190994 0 17.522546098992621 0 -1 0 I I #
vertex $-1 $605 $754 #
point $-1 -53.955915503025182 5.5251683384271999 9.2857908883836817 #
vertex $-1 $609 $755 #
point $-1 -53.955915503025182 9.7080867992749091 9.2857908883836817 #
coedge $-1 $624 $623 $616 $714 forward $613 $-1 #
edge $-1 $715 39.546581872281422 $718 54.787057904935587 $713 $756 forward 7 unknown #
vertex $-1 $628 $757 #
straight-curve $-1 -69.663431616710312 33.539501045481082 17.522546098992621 -1 0 0 I I #
edge $-1 $718 -19.209786291568374 $625 -9.4496432162570407 $624 $758 forward 7 unknown #
vertex $-1 $717 $759 #
straight-curve $-1 -66.686605426190965 33.539501045481082 2.282070066338477 0.83867056331134215 0 0.54463904215088732 I I #
point $-1 -43.218330788806462 33.539501045481082 17.522546098992621 #
point $-1 -66.686605426190994 23.779357970169748 2.2820700663384583 #
straight-curve $-1 -66.686605426190994 0 17.522546098992621 0 -1 0 I I #
vertex $-1 $631 $760 #
point $-1 -53.955915503025182 26.567970277401564 9.2857908883836817 #
vertex $-1 $635 $761 #
point $-1 -53.955915503025182 30.75088873824928 9.2857908883836817 #
straight-curve $-1 -66.686605426190994 42.085603877948735 0 0 0 -1 I I #
point $-1 -66.686605426190994 -42.085603877948735 -17.522546098992621 #
straight-curve $-1 -66.686605426190994 0 -17.522546098992621 0 1 0 I I #
point $-1 -66.686605426190994 42.085603877948735 -17.522546098992621 #
straight-curve $-1 0 42.085603877948735 17.522546098992621 -1 0 0 I I #
point $-1 52.046456569008669 42.085603877948742 17.522546098992621 #
straight-curve $-1 66.686605426190994 42.085603877948735 0 0 0 -1 I I #
point $-1 66.686605426190994 42.085603877948735 17.522546098992621 #
point $-1 57.467180838904206 24.639067973282629 7.9015545021935276 #
point $-1 57.467180838904206 31.18151893753241 7.9015545021935276 #
point $-1 57.467180838904206 37.723969901782191 7.9015545021935276 #
straight-curve $-1 -66.686605426190994 -29.588904771442017 57.069127971274042 0 0 -1 I I #
point $-1 -66.686605426190994 -29.588904771442017 17.522546098992621 #
straight-curve $-1 -66.686605426190994 -17.234488154548842 2.2820700663384548 0 -1 0 I I #
point $-1 -66.686605426190994 -29.588904771442017 2.2820700663384583 #
point $-1 -54.102931263605406 -36.560435539521535 8.5941360856525684 #
point $-1 -54.102931263605406 -32.377517078673826 8.5941360856525684 #
straight-curve $-1 -66.686605426190994 -8.546102832467648 57.069127971274042 0 0 -1 I I #
point $-1 -66.686605426190994 -8.546102832467648 17.522546098992621 #
straight-curve $-1 -66.686605426190994 -6.7130871850616565 2.2820700663384548 0 -1 0 I I #
point $-1 -66.686605426190994 -8.546102832467648 2.2820700663384583 #
point $-1 -54.102931263605406 -15.517633600547171 8.5941360856525684 #
point $-1 -54.102931263605406 -11.334715139699458 8.5941360856525684 #
straight-curve $-1 -66.686605426190994 12.496699106506716 57.069127971274042 0 0 -1 I I #
point $-1 -66.686605426190994 12.496699106506716 17.522546098992621 #
straight-curve $-1 -66.686605426190994 3.8083137844255255 2.2820700663384548 0 -1 0 I I #
point $-1 -66.686605426190994 12.496699106506716 2.2820700663384583 #
point $-1 -54.102931263605406 5.5251683384271999 8.5941360856525684 #
point $-1 -54.102931263605406 9.7080867992749091 8.5941360856525684 #
straight-curve $-1 -66.686605426190994 33.539501045481082 57.069127971274042 0 0 -1 I I #
point $-1 -66.686605426190994 33.539501045481082 17.522546098992621 #
straight-curve $-1 -66.686605426190994 14.329714753912707 2.2820700663384548 0 -1 0 I I #
point $-1 -66.686605426190994 33.539501045481082 2.2820700663384583 #
point $-1 -54.102931263605406 26.567970277401564 8.5941360856525684 #
point $-1 -54.102931263605406 30.75088873824928 8.5941360856525684 #
End-of-ACIS-data 