500 0 11 0           
7 Unknown 11 ACIS 5.0 NT 24 Fri Mar 26 00:41:11 1999 
-1 9.9999999999999995e-007 1e-010 
body $-1 $11 $-1 $12 #
body $-1 $13 $-1 $14 #
body $-1 $15 $-1 $16 #
body $-1 $17 $-1 $18 #
body $-1 $19 $-1 $20 #
body $-1 $21 $-1 $22 #
body $-1 $23 $-1 $24 #
body $-1 $25 $-1 $26 #
body $-1 $27 $-1 $28 #
body $-1 $29 $-1 $30 #
body $-1 $31 $-1 $32 #
lump $-1 $-1 $33 $0 #
transform $-1 1 0 0 0 1 0 0 0 1 54.685506759849851 24.73106022740901 11.268040728753933 1 rotate no_reflect no_shear #
lump $-1 $-1 $34 $1 #
transform $-1 1 0 0 0 1 0 0 0 1 54.685506759849851 24.73106022740901 11.268040728753933 1 rotate no_reflect no_shear #
lump $-1 $-1 $35 $2 #
transform $-1 1 0 0 0 1 0 0 0 1 54.685506759849851 24.73106022740901 11.268040728753933 1 rotate no_reflect no_shear #
lump $-1 $-1 $36 $3 #
transform $-1 1 0 0 0 1 0 0 0 1 54.685506759849851 24.73106022740901 11.268040728753933 1 rotate no_reflect no_shear #
lump $-1 $-1 $37 $4 #
transform $-1 1 0 0 0 1 0 0 0 1 54.685506759849851 24.73106022740901 11.268040728753933 1 rotate no_reflect no_shear #
lump $-1 $-1 $38 $5 #
transform $-1 1 0 0 0 1 0 0 0 1 54.685506759849851 24.73106022740901 11.268040728753933 1 rotate no_reflect no_shear #
lump $-1 $-1 $39 $6 #
transform $-1 1 0 0 0 1 0 0 0 1 54.685506759849851 24.73106022740901 11.268040728753933 1 rotate no_reflect no_shear #
lump $-1 $-1 $40 $7 #
transform $-1 1 0 0 0 1 0 0 0 1 54.685506759849851 24.73106022740901 11.268040728753933 1 rotate no_reflect no_shear #
lump $-1 $-1 $41 $8 #
transform $-1 1 0 0 0 1 0 0 0 1 54.685506759849851 24.73106022740901 11.268040728753933 1 rotate no_reflect no_shear #
lump $-1 $-1 $42 $9 #
transform $-1 1 0 0 0 1 0 0 0 1 54.685506759849851 24.73106022740901 11.268040728753933 1 rotate no_reflect no_shear #
lump $-1 $-1 $43 $10 #
transform $-1 1 0 0 0 1 0 0 0 1 54.685506759849851 24.73106022740901 11.268040728753933 1 rotate no_reflect no_shear #
shell $-1 $-1 $-1 $44 $-1 $11 #
shell $-1 $-1 $-1 $45 $-1 $13 #
shell $-1 $-1 $-1 $46 $-1 $15 #
shell $-1 $-1 $-1 $47 $-1 $17 #
shell $-1 $-1 $-1 $48 $-1 $19 #
shell $-1 $-1 $-1 $49 $-1 $21 #
shell $-1 $-1 $-1 $50 $-1 $23 #
shell $-1 $-1 $-1 $51 $-1 $25 #
shell $-1 $-1 $-1 $52 $-1 $27 #
shell $-1 $-1 $-1 $53 $-1 $29 #
shell $-1 $-1 $-1 $54 $-1 $31 #
face $-1 $55 $56 $33 $-1 $57 forward single #
face $-1 $58 $59 $34 $-1 $60 reversed single #
face $-1 $61 $62 $35 $-1 $63 reversed single #
face $-1 $64 $65 $36 $-1 $66 reversed single #
face $-1 $67 $68 $37 $-1 $69 forward single #
face $-1 $70 $71 $38 $-1 $72 forward single #
face $-1 $73 $74 $39 $-1 $75 forward single #
face $-1 $76 $77 $40 $-1 $78 reversed single #
face $-1 $79 $80 $41 $-1 $81 forward single #
face $-1 $82 $83 $42 $-1 $84 forward single #
face $-1 $85 $86 $43 $-1 $87 forward single #
face $-1 $88 $89 $33 $-1 $90 reversed single #
loop $-1 $-1 $91 $44 #
plane-surface $-1 0 0 11.268040728753933 0 0 1 1 0 0 forward_v I I I I #
face $-1 $92 $93 $34 $-1 $94 reversed single #
loop $-1 $-1 $95 $45 #
plane-surface $-1 -41.469206073604347 0 9.7680407287539328 -1 0 0 0 0 1 forward_v I I I I #
face $-1 $96 $97 $35 $-1 $98 reversed single #
loop $-1 $-1 $99 $46 #
plane-surface $-1 48.077356416727106 0 8.2680407287539328 0 0 1 1 0 0 forward_v I I I I #
face $-1 $100 $101 $36 $-1 $102 reversed single #
loop $-1 $-1 $103 $47 #
plane-surface $-1 -30.168730352549002 -9.6282153451881101 43.146135715471672 0 0.71933980857756763 0.69465836192734942 1 0 0 forward_v I I I I #
face $-1 $104 $105 $37 $-1 $106 forward single #
loop $-1 $107 $108 $48 #
cone-surface $-1 -36.949015785182212 21.516163684778572 8.0386109364453571 0 -0.71933980857756763 -0.69465836192734942 1 0 0 1 I I 0 1 1 forward I I I I #
face $-1 $109 $110 $38 $-1 $111 forward single #
loop $-1 $112 $113 $49 #
cone-surface $-1 -30.168730352549005 21.516163684778572 8.0386109364453571 0 -0.71933980857756763 -0.69465836192734942 1 0 0 1 I I 0 1 1 forward I I I I #
face $-1 $114 $115 $39 $-1 $116 forward single #
loop $-1 $117 $118 $50 #
cone-surface $-1 -23.388444919915798 21.516163684778572 8.0386109364453571 0 -0.71933980857756763 -0.69465836192734942 1 0 0 1 I I 0 1 1 forward I I I I #
face $-1 $119 $120 $40 $-1 $121 reversed single #
loop $-1 $-1 $122 $51 #
plane-surface $-1 -18.868254631493656 -103.40598415660435 83.541552549590875 -1 0 0 0 -0.71933980857756763 0.69465836192734942 forward_v I I I I #
face $-1 $123 $124 $41 $-1 $125 forward single #
loop $-1 $126 $127 $52 #
cone-surface $-1 -36.949015785182212 -21.516163684778565 8.0386109364453642 0 0.71933980857756763 -0.69465836192734942 1 0 0 1 I I 0 1 1 forward I I I I #
face $-1 $128 $129 $42 $-1 $130 forward single #
loop $-1 $131 $132 $53 #
cone-surface $-1 -30.168730352549005 -21.516163684778565 8.0386109364453642 0 0.71933980857756763 -0.69465836192734942 1 0 0 1 I I 0 1 1 forward I I I I #
face $-1 $133 $134 $43 $-1 $135 forward single #
loop $-1 $136 $137 $54 #
cone-surface $-1 -23.388444919915798 -21.516163684778565 8.0386109364453642 0 0.71933980857756763 -0.69465836192734942 1 0 0 1 I I 0 1 1 forward I I I I #
face $-1 $138 $139 $33 $-1 $140 reversed single #
loop $-1 $-1 $141 $55 #
plane-surface $-1 0 0 -11.268040728753933 0 0 1 1 0 0 forward_v I I I I #
coedge $-1 $142 $143 $144 $145 forward $56 $-1 #
face $-1 $146 $147 $34 $-1 $148 reversed single #
loop $-1 $-1 $149 $58 #
plane-surface $-1 -48.077356416727099 0 8.2680407287539328 0 0 1 1 0 0 forward_v I I I I #
coedge $-1 $150 $151 $149 $152 reversed $59 $-1 #
face $-1 $153 $154 $35 $-1 $155 forward single #
loop $-1 $-1 $156 $61 #
plane-surface $-1 41.469206073604354 0 9.7680407287539328 1 0 0 0 0 -1 forward_v I I I I #
coedge $-1 $157 $158 $159 $160 reversed $62 $-1 #
face $-1 $161 $162 $36 $-1 $163 reversed single #
loop $-1 $-1 $164 $64 #
plane-surface $-1 -18.868254631493656 69.046708584007234 119.12162480940026 -1 0 0 0 0.71933980857756763 0.69465836192734942 forward_v I I I I #
coedge $-1 $165 $166 $167 $168 reversed $65 $-1 #
face $-1 $-1 $169 $37 $-1 $170 forward single #
loop $-1 $171 $172 $67 #
cone-surface $-1 -36.949015785182212 19.72907614404086 6.3128405997189265 0 -0.71933980857756763 -0.69465836192734942 0.5 0 0 1 I I -0.70710678118654746 0.70710678118654746 0.5 forward I I I I #
loop $-1 $-1 $173 $48 #
coedge $-1 $108 $108 $174 $175 reversed $68 $-1 #
face $-1 $-1 $176 $38 $-1 $177 forward single #
loop $-1 $178 $179 $70 #
cone-surface $-1 -30.168730352549005 19.72907614404086 6.3128405997189265 0 -0.71933980857756763 -0.69465836192734942 0.5 0 0 1 I I -0.70710678118654746 0.70710678118654746 0.5 forward I I I I #
loop $-1 $-1 $180 $49 #
coedge $-1 $113 $113 $181 $182 reversed $71 $-1 #
face $-1 $-1 $183 $39 $-1 $184 forward single #
loop $-1 $185 $186 $73 #
cone-surface $-1 -23.388444919915798 19.72907614404086 6.3128405997189265 0 -0.71933980857756763 -0.69465836192734942 0.5 0 0 1 I I -0.70710678118654746 0.70710678118654746 0.5 forward I I I I #
loop $-1 $-1 $187 $50 #
coedge $-1 $118 $118 $188 $189 reversed $74 $-1 #
face $-1 $190 $191 $40 $-1 $192 forward single #
loop $-1 $-1 $193 $76 #
plane-surface $-1 -30.168730352549002 -24.731060227409003 7.5660634556622881 0 -0.71933980857756763 0.69465836192734942 1 0 0 forward_v I I I I #
coedge $-1 $194 $195 $196 $197 reversed $77 $-1 #
face $-1 $-1 $198 $41 $-1 $199 forward single #
loop $-1 $200 $201 $79 #
cone-surface $-1 -36.949015785182212 -19.729076144040853 6.3128405997189336 0 0.71933980857756763 -0.69465836192734942 0.5 0 0 1 I I -0.70710678118654746 0.70710678118654746 0.5 forward I I I I #
loop $-1 $-1 $202 $52 #
coedge $-1 $127 $127 $203 $204 reversed $80 $-1 #
face $-1 $-1 $205 $42 $-1 $206 forward single #
loop $-1 $207 $208 $82 #
cone-surface $-1 -30.168730352549005 -19.729076144040853 6.3128405997189336 0 0.71933980857756763 -0.69465836192734942 0.5 0 0 1 I I -0.70710678118654746 0.70710678118654746 0.5 forward I I I I #
loop $-1 $-1 $209 $53 #
coedge $-1 $132 $132 $210 $211 reversed $83 $-1 #
face $-1 $-1 $212 $43 $-1 $213 forward single #
loop $-1 $214 $215 $85 #
cone-surface $-1 -23.388444919915798 -19.729076144040853 6.3128405997189336 0 0.71933980857756763 -0.69465836192734942 0.5 0 0 1 I I -0.70710678118654746 0.70710678118654746 0.5 forward I I I I #
loop $-1 $-1 $216 $54 #
coedge $-1 $137 $137 $217 $218 reversed $86 $-1 #
face $-1 $219 $220 $33 $-1 $221 reversed single #
loop $-1 $-1 $222 $88 #
plane-surface $-1 0 -24.73106022740901 0 0 1 0 0 0 1 forward_v I I I I #
coedge $-1 $223 $224 $225 $226 forward $89 $-1 #
coedge $-1 $227 $91 $228 $229 forward $56 $-1 #
coedge $-1 $91 $227 $230 $231 forward $56 $-1 #
coedge $-1 $232 $233 $91 $145 reversed $234 $-1 #
edge $-1 $235 -24.73106022740901 $236 24.73106022740901 $144 $237 forward 7 unknown #
face $-1 $238 $239 $34 $-1 $240 reversed single #
loop $-1 $-1 $241 $92 #
plane-surface $-1 0 24.73106022740901 0 0 -1 0 0 0 -1 forward_v I I I I #
coedge $-1 $242 $243 $95 $152 forward $93 $-1 #
coedge $-1 $244 $95 $241 $245 reversed $59 $-1 #
coedge $-1 $95 $244 $246 $247 reversed $59 $-1 #
edge $-1 $248 -24.73106022740901 $249 24.73106022740901 $95 $250 forward 7 unknown #
face $-1 $251 $252 $35 $-1 $253 reversed single #
loop $-1 $-1 $254 $96 #
plane-surface $-1 0 0 11.268040728753933 0 0 1 1 0 0 forward_v I I I I #
coedge $-1 $255 $256 $257 $258 reversed $97 $-1 #
coedge $-1 $259 $99 $260 $261 reversed $62 $-1 #
coedge $-1 $99 $259 $262 $263 reversed $62 $-1 #
coedge $-1 $264 $265 $99 $160 forward $266 $-1 #
edge $-1 $267 -24.73106022740901 $268 24.73106022740901 $159 $269 forward 7 unknown #
face $-1 $270 $271 $36 $-1 $272 forward single #
loop $-1 $-1 $273 $100 #
plane-surface $-1 0 24.73106022740901 0 0 -1 0 0 0 -1 forward_v I I I I #
coedge $-1 $274 $275 $276 $277 reversed $101 $-1 #
coedge $-1 $278 $103 $279 $280 reversed $65 $-1 #
coedge $-1 $103 $278 $274 $281 forward $65 $-1 #
coedge $-1 $276 $282 $103 $168 forward $271 $-1 #
edge $-1 $283 -26.384840897329845 $284 -3.7838894552191551 $167 $285 forward 7 unknown #
loop $-1 $-1 $174 $104 #
plane-surface $-1 -30.168730352549002 -9.6282153451881101 43.146135715471672 0 0.71933980857756763 0.69465836192734942 1 0 0 forward_v I I I I #
loop $-1 $-1 $286 $67 #
coedge $-1 $172 $172 $173 $287 reversed $105 $-1 #
coedge $-1 $173 $173 $172 $287 forward $107 $-1 #
coedge $-1 $174 $174 $108 $175 forward $169 $-1 #
edge $-1 $288 -1.7537222625362957e-016 $288 6.2831853071796004 $174 $289 forward 7 unknown #
loop $-1 $-1 $181 $109 #
plane-surface $-1 -30.168730352549002 -9.6282153451881101 43.146135715471672 0 0.71933980857756763 0.69465836192734942 1 0 0 forward_v I I I I #
loop $-1 $-1 $290 $70 #
coedge $-1 $179 $179 $180 $291 reversed $110 $-1 #
coedge $-1 $180 $180 $179 $291 forward $112 $-1 #
coedge $-1 $181 $181 $113 $182 forward $176 $-1 #
edge $-1 $292 -1.7537222625362957e-016 $292 6.2831853071796004 $181 $293 forward 7 unknown #
loop $-1 $-1 $188 $114 #
plane-surface $-1 -30.168730352549002 -9.6282153451881101 43.146135715471672 0 0.71933980857756763 0.69465836192734942 1 0 0 forward_v I I I I #
loop $-1 $-1 $294 $73 #
coedge $-1 $186 $186 $187 $295 reversed $115 $-1 #
coedge $-1 $187 $187 $186 $295 forward $117 $-1 #
coedge $-1 $188 $188 $118 $189 forward $183 $-1 #
edge $-1 $296 -1.7537222625362957e-016 $296 6.2831853071796004 $188 $297 forward 7 unknown #
face $-1 $298 $299 $40 $-1 $300 forward single #
loop $-1 $-1 $196 $119 #
plane-surface $-1 0 0 11.268040728753933 0 0 1 1 0 0 forward_v I I I I #
coedge $-1 $301 $302 $303 $304 reversed $120 $-1 #
coedge $-1 $195 $122 $305 $306 reversed $77 $-1 #
coedge $-1 $122 $194 $301 $307 reversed $77 $-1 #
coedge $-1 $303 $308 $122 $197 forward $191 $-1 #
edge $-1 $309 26.971931850893164 $310 30.546889663256223 $196 $311 forward 7 unknown #
loop $-1 $-1 $203 $123 #
plane-surface $-1 -30.168730352549002 -24.731060227409003 7.5660634556622881 0 -0.71933980857756763 0.69465836192734942 1 0 0 forward_v I I I I #
loop $-1 $-1 $312 $79 #
coedge $-1 $201 $201 $202 $313 reversed $124 $-1 #
coedge $-1 $202 $202 $201 $313 forward $126 $-1 #
coedge $-1 $203 $203 $127 $204 forward $198 $-1 #
edge $-1 $314 -9.2705973631236988e-016 $314 6.2831853071795996 $203 $315 forward 7 unknown #
loop $-1 $-1 $210 $128 #
plane-surface $-1 -30.168730352549002 -24.731060227409003 7.5660634556622881 0 -0.71933980857756763 0.69465836192734942 1 0 0 forward_v I I I I #
loop $-1 $-1 $316 $82 #
coedge $-1 $208 $208 $209 $317 reversed $129 $-1 #
coedge $-1 $209 $209 $208 $317 forward $131 $-1 #
coedge $-1 $210 $210 $132 $211 forward $205 $-1 #
edge $-1 $318 -9.2705973631236988e-016 $318 6.2831853071795996 $210 $319 forward 7 unknown #
loop $-1 $-1 $217 $133 #
plane-surface $-1 -30.168730352549002 -24.731060227409003 7.5660634556622881 0 -0.71933980857756763 0.69465836192734942 1 0 0 forward_v I I I I #
loop $-1 $-1 $320 $85 #
coedge $-1 $215 $215 $216 $321 reversed $134 $-1 #
coedge $-1 $216 $216 $215 $321 forward $136 $-1 #
coedge $-1 $217 $217 $137 $218 forward $212 $-1 #
edge $-1 $322 -9.2705973631236988e-016 $322 6.2831853071795996 $217 $323 forward 7 unknown #
face $-1 $324 $325 $33 $-1 $326 reversed single #
loop $-1 $-1 $327 $138 #
plane-surface $-1 -54.685506759849851 0 0 1 0 0 0 0 -1 forward_v I I I I #
coedge $-1 $328 $230 $329 $330 forward $139 $-1 #
coedge $-1 $331 $141 $328 $332 forward $89 $-1 #
coedge $-1 $141 $331 $333 $334 forward $89 $-1 #
coedge $-1 $233 $232 $141 $226 reversed $234 $-1 #
edge $-1 $335 -24.73106022740901 $336 24.73106022740901 $225 $337 forward 7 unknown #
coedge $-1 $143 $142 $338 $339 forward $56 $-1 #
coedge $-1 $340 $341 $142 $229 reversed $325 $-1 #
edge $-1 $236 -54.685506759849851 $342 54.685506759849851 $228 $343 forward 7 unknown #
coedge $-1 $222 $344 $143 $231 reversed $139 $-1 #
edge $-1 $345 -54.685506759849851 $235 54.685506759849851 $230 $346 forward 7 unknown #
coedge $-1 $225 $144 $344 $347 forward $234 $-1 #
coedge $-1 $144 $225 $340 $348 reversed $234 $-1 #
loop $-1 $-1 $232 $324 #
vertex $-1 $145 $349 #
vertex $-1 $145 $350 #
straight-curve $-1 54.685506759849851 0 11.268040728753933 0 1 0 I I #
face $-1 $351 $352 $34 $-1 $353 forward single #
loop $-1 $-1 $354 $146 #
plane-surface $-1 -54.685506759849851 0 0 1 0 0 0 0 -1 forward_v I I I I #
coedge $-1 $355 $356 $150 $245 forward $147 $-1 #
coedge $-1 $357 $149 $358 $359 reversed $93 $-1 #
coedge $-1 $149 $357 $355 $360 reversed $93 $-1 #
coedge $-1 $151 $150 $361 $362 reversed $59 $-1 #
edge $-1 $363 -6.3840203643769664 $248 -3.3840203643769664 $241 $364 forward 7 unknown #
coedge $-1 $365 $358 $151 $247 forward $366 $-1 #
edge $-1 $249 3.3840203643769664 $367 6.3840203643769664 $246 $368 forward 7 unknown #
vertex $-1 $360 $369 #
vertex $-1 $359 $370 #
straight-curve $-1 -41.469206073604347 0 8.2680407287539328 0 -1 0 I I #
face $-1 $371 $372 $35 $-1 $373 reversed single #
loop $-1 $-1 $374 $153 #
plane-surface $-1 0 -24.73106022740901 0 0 1 0 0 0 1 forward_v I I I I #
coedge $-1 $375 $376 $256 $377 forward $154 $-1 #
coedge $-1 $378 $156 $259 $379 reversed $97 $-1 #
coedge $-1 $156 $378 $254 $377 reversed $97 $-1 #
coedge $-1 $380 $262 $156 $258 forward $372 $-1 #
edge $-1 $381 3.3840203643769664 $382 6.3840203643769664 $257 $383 forward 7 unknown #
coedge $-1 $158 $157 $255 $379 forward $62 $-1 #
coedge $-1 $384 $374 $157 $261 forward $252 $-1 #
edge $-1 $385 17.430527865240801 $267 30.646828551486305 $260 $386 forward 7 unknown #
coedge $-1 $257 $387 $158 $263 forward $372 $-1 #
edge $-1 $268 -30.646828551486305 $381 -17.430527865240801 $262 $388 forward 7 unknown #
coedge $-1 $389 $159 $387 $390 reversed $266 $-1 #
coedge $-1 $159 $389 $384 $391 forward $266 $-1 #
loop $-1 $-1 $159 $371 #
vertex $-1 $261 $392 #
vertex $-1 $160 $393 #
straight-curve $-1 54.685506759849851 0 8.2680407287539328 0 1 0 I I #
face $-1 $-1 $394 $36 $-1 $395 forward single #
loop $-1 $-1 $276 $161 #
plane-surface $-1 0 0 11.268040728753933 0 0 1 1 0 0 forward_v I I I I #
coedge $-1 $396 $397 $275 $398 forward $162 $-1 #
coedge $-1 $275 $164 $166 $281 reversed $101 $-1 #
coedge $-1 $164 $274 $273 $398 reversed $101 $-1 #
coedge $-1 $399 $167 $164 $277 forward $271 $-1 #
edge $-1 $284 -13.367251876957653 $400 -9.7922940645946071 $276 $401 forward 7 unknown #
coedge $-1 $166 $165 $396 $402 reversed $65 $-1 #
coedge $-1 $403 $404 $165 $280 forward $394 $-1 #
edge $-1 $405 -34.112864075617232 $283 -28.966510114737495 $279 $406 forward 7 unknown #
edge $-1 $407 -49.462120454818006 $284 -44.31576649393827 $274 $408 forward 7 unknown #
coedge $-1 $167 $399 $403 $409 forward $271 $-1 #
vertex $-1 $280 $410 #
vertex $-1 $168 $411 #
straight-curve $-1 -15.084365176274501 21.156102415045964 11.268040728753935 1 0 0 I I #
coedge $-1 $286 $286 $-1 $412 reversed $171 $-1 #
edge $-1 $413 0 $413 6.2831853071796004 $172 $414 forward 7 unknown #
vertex $-1 $175 $415 #
ellipse-curve $-1 -36.949015785182212 22.943581321227494 9.4170520922081042 0 0.71933980857756763 0.69465836192734942 1 0 0 1 I I #
coedge $-1 $290 $290 $-1 $416 reversed $178 $-1 #
edge $-1 $417 0 $417 6.2831853071796004 $179 $418 forward 7 unknown #
vertex $-1 $182 $419 #
ellipse-curve $-1 -30.168730352549005 22.943581321227494 9.4170520922081042 0 0.71933980857756763 0.69465836192734942 1 0 0 1 I I #
coedge $-1 $294 $294 $-1 $420 reversed $185 $-1 #
edge $-1 $421 0 $421 6.2831853071796004 $186 $422 forward 7 unknown #
vertex $-1 $189 $423 #
ellipse-curve $-1 -23.388444919915798 22.943581321227494 9.4170520922081042 0 0.71933980857756763 0.69465836192734942 1 0 0 1 I I #
face $-1 $-1 $424 $40 $-1 $425 reversed single #
loop $-1 $-1 $426 $190 #
plane-surface $-1 -41.469206073604347 0 9.7680407287539328 -1 0 0 0 0 1 forward_v I I I I #
coedge $-1 $427 $193 $195 $307 forward $120 $-1 #
coedge $-1 $193 $427 $426 $428 forward $120 $-1 #
coedge $-1 $429 $196 $193 $304 forward $191 $-1 #
edge $-1 $310 3.7838894552191551 $430 26.384840897329845 $303 $431 forward 7 unknown #
coedge $-1 $432 $433 $194 $306 forward $424 $-1 #
edge $-1 $434 -34.204712819133157 $309 -30.502735546041507 $305 $435 forward 7 unknown #
edge $-1 $310 -5.1463539608797486 $434 1.0047061284303404e-014 $195 $436 forward 7 unknown #
coedge $-1 $196 $429 $432 $437 forward $191 $-1 #
vertex $-1 $306 $438 #
vertex $-1 $197 $439 #
straight-curve $-1 -18.868254631493656 -51.702992078302174 11.268040728753931 0 1 0 I I #
coedge $-1 $312 $312 $-1 $440 reversed $200 $-1 #
edge $-1 $441 0 $441 6.2831853071796004 $201 $442 forward 7 unknown #
vertex $-1 $204 $443 #
ellipse-curve $-1 -36.949015785182212 -22.94358132122748 9.417052092208106 0 -0.71933980857756763 0.69465836192734942 1 0 0 1 I I #
coedge $-1 $316 $316 $-1 $444 reversed $207 $-1 #
edge $-1 $445 0 $445 6.2831853071796004 $208 $446 forward 7 unknown #
vertex $-1 $211 $447 #
ellipse-curve $-1 -30.168730352549005 -22.94358132122748 9.417052092208106 0 -0.71933980857756763 0.69465836192734942 1 0 0 1 I I #
coedge $-1 $320 $320 $-1 $448 reversed $214 $-1 #
edge $-1 $449 0 $449 6.2831853071796004 $215 $450 forward 7 unknown #
vertex $-1 $218 $451 #
ellipse-curve $-1 -23.388444919915798 -22.94358132122748 9.417052092208106 0 -0.71933980857756763 0.69465836192734942 1 0 0 1 I I #
face $-1 $-1 $234 $33 $-1 $452 reversed single #
loop $-1 $-1 $340 $219 #
plane-surface $-1 0 24.73106022740901 0 0 -1 0 0 0 -1 forward_v I I I I #
coedge $-1 $453 $338 $341 $454 forward $220 $-1 #
coedge $-1 $344 $222 $223 $332 reversed $139 $-1 #
coedge $-1 $338 $453 $222 $330 reversed $220 $-1 #
edge $-1 $345 -11.268040728753933 $455 11.268040728753933 $329 $456 forward 7 unknown #
coedge $-1 $224 $223 $453 $457 forward $89 $-1 #
edge $-1 $336 -54.685506759849851 $455 54.685506759849851 $328 $458 forward 7 unknown #
coedge $-1 $341 $340 $224 $334 reversed $325 $-1 #
edge $-1 $459 -54.685506759849851 $335 54.685506759849851 $333 $460 forward 7 unknown #
vertex $-1 $226 $461 #
vertex $-1 $347 $462 #
straight-curve $-1 54.685506759849851 0 -11.268040728753933 0 -1 0 I I #
coedge $-1 $327 $329 $227 $339 reversed $220 $-1 #
edge $-1 $342 -24.73106022740901 $345 24.73106022740901 $338 $463 forward 7 unknown #
coedge $-1 $333 $228 $233 $348 forward $325 $-1 #
coedge $-1 $228 $333 $327 $454 reversed $325 $-1 #
vertex $-1 $229 $464 #
straight-curve $-1 0 24.73106022740901 11.268040728753933 -1 0 0 I I #
coedge $-1 $230 $328 $232 $347 reversed $139 $-1 #
vertex $-1 $339 $465 #
straight-curve $-1 0 -24.73106022740901 11.268040728753933 1 0 0 I I #
edge $-1 $235 -11.268040728753933 $336 11.268040728753933 $232 $466 forward 7 unknown #
edge $-1 $236 -11.268040728753933 $335 11.268040728753933 $233 $467 forward 7 unknown #
point $-1 54.685506759849851 -24.73106022740901 11.268040728753933 #
point $-1 54.685506759849851 24.73106022740901 11.268040728753933 #
face $-1 $-1 $366 $34 $-1 $468 reversed single #
loop $-1 $-1 $361 $238 #
plane-surface $-1 0 0 11.268040728753933 0 0 1 1 0 0 forward_v I I I I #
coedge $-1 $469 $470 $357 $471 forward $239 $-1 #
coedge $-1 $472 $241 $243 $360 forward $147 $-1 #
coedge $-1 $241 $472 $473 $474 reversed $147 $-1 #
coedge $-1 $243 $242 $354 $471 reversed $93 $-1 #
coedge $-1 $246 $475 $242 $359 forward $366 $-1 #
edge $-1 $476 -30.646828551486301 $249 -17.430527865240798 $358 $477 forward 7 unknown #
edge $-1 $248 17.430527865240798 $478 30.646828551486301 $355 $479 forward 7 unknown #
coedge $-1 $473 $480 $244 $362 forward $352 $-1 #
edge $-1 $367 -24.73106022740901 $363 24.73106022740901 $361 $481 forward 7 unknown #
vertex $-1 $474 $482 #
straight-curve $-1 -41.469206073604347 24.73106022740901 4.8840203643769664 0 0 -1 I I #
coedge $-1 $475 $246 $480 $483 reversed $366 $-1 #
loop $-1 $-1 $246 $351 #
vertex $-1 $247 $484 #
straight-curve $-1 -41.469206073604347 -24.73106022740901 4.8840203643769664 0 0 1 I I #
point $-1 -41.469206073604347 24.73106022740901 8.2680407287539328 #
point $-1 -41.469206073604347 -24.73106022740901 8.2680407287539328 #
face $-1 $-1 $266 $35 $-1 $485 reversed single #
loop $-1 $-1 $257 $251 #
plane-surface $-1 0 24.73106022740901 0 0 -1 0 0 0 -1 forward_v I I I I #
coedge $-1 $260 $486 $378 $487 forward $252 $-1 #
coedge $-1 $488 $254 $486 $489 forward $154 $-1 #
coedge $-1 $254 $488 $380 $490 forward $154 $-1 #
edge $-1 $382 -24.73106022740901 $491 24.73106022740901 $254 $492 forward 7 unknown #
coedge $-1 $256 $255 $374 $487 reversed $97 $-1 #
edge $-1 $385 -24.73106022740901 $381 24.73106022740901 $255 $493 forward 7 unknown #
coedge $-1 $387 $257 $376 $490 reversed $372 $-1 #
vertex $-1 $263 $494 #
vertex $-1 $258 $495 #
straight-curve $-1 41.469206073604354 24.73106022740901 4.8840203643769664 0 0 1 I I #
coedge $-1 $486 $260 $265 $391 reversed $252 $-1 #
vertex $-1 $261 $496 #
straight-curve $-1 24.038678208363553 -24.73106022740901 8.2680407287539328 1 0 0 I I #
coedge $-1 $262 $380 $264 $390 forward $372 $-1 #
straight-curve $-1 24.038678208363553 24.73106022740901 8.2680407287539328 -1 0 0 I I #
coedge $-1 $265 $264 $488 $497 reversed $266 $-1 #
edge $-1 $498 -11.268040728753933 $268 -8.2680407287539328 $264 $499 forward 7 unknown #
edge $-1 $500 -11.268040728753933 $267 -8.2680407287539328 $265 $501 forward 7 unknown #
point $-1 54.685506759849858 -24.73106022740901 8.2680407287539328 #
point $-1 54.685506759849858 24.73106022740901 8.2680407287539328 #
loop $-1 $-1 $279 $270 #
plane-surface $-1 -41.469206073604347 0 9.7680407287539328 -1 0 0 0 0 1 forward_v I I I I #
coedge $-1 $502 $273 $278 $402 forward $162 $-1 #
coedge $-1 $273 $502 $399 $503 reversed $162 $-1 #
edge $-1 $400 48.292771675946199 $407 51.994748949037835 $273 $504 forward 7 unknown #
coedge $-1 $282 $276 $397 $503 forward $271 $-1 #
vertex $-1 $503 $505 #
straight-curve $-1 -18.868254631493656 34.523354292003617 11.268040728753931 0 1 0 I I #
edge $-1 $407 3.7838894552191551 $405 26.384840897329845 $396 $506 forward 7 unknown #
coedge $-1 $404 $279 $282 $409 reversed $394 $-1 #
coedge $-1 $279 $403 $502 $507 reversed $394 $-1 #
vertex $-1 $507 $508 #
straight-curve $-1 -41.469206073604347 1.0342739479904202 32.104804569849378 0 -0.69465836192734942 0.71933980857756763 I I #
vertex $-1 $402 $509 #
straight-curve $-1 -18.868254631493656 -9.6282153451881101 43.146135715471672 0 -0.69465836192734942 0.71933980857756763 I I #
edge $-1 $510 -24.73106022740901 $283 -21.156102415045964 $282 $511 forward 7 unknown #
point $-1 -41.469206073604347 21.156102415045964 11.268040728753931 #
point $-1 -18.868254631493656 21.156102415045964 11.268040728753931 #
edge $-1 $512 1 $512 0 $286 $-1 forward 7 unknown #
vertex $-1 $287 $513 #
ellipse-curve $-1 -36.949015785182212 20.088746048329643 6.660169780682601 0 0.71933980857756763 0.69465836192734942 1 0 0 1 I I #
point $-1 -35.949015785182212 22.943581321227501 9.4170520922081113 #
edge $-1 $514 1 $514 0 $290 $-1 forward 7 unknown #
vertex $-1 $291 $515 #
ellipse-curve $-1 -30.168730352549005 20.088746048329643 6.660169780682601 0 0.71933980857756763 0.69465836192734942 1 0 0 1 I I #
point $-1 -29.168730352549005 22.943581321227501 9.4170520922081113 #
edge $-1 $516 1 $516 0 $294 $-1 forward 7 unknown #
vertex $-1 $295 $517 #
ellipse-curve $-1 -23.388444919915798 20.088746048329643 6.660169780682601 0 0.71933980857756763 0.69465836192734942 1 0 0 1 I I #
point $-1 -22.388444919915798 22.943581321227501 9.4170520922081113 #
loop $-1 $-1 $305 $298 #
plane-surface $-1 0 -24.73106022740901 0 0 1 0 0 0 1 forward_v I I I I #
coedge $-1 $518 $519 $302 $428 reversed $299 $-1 #
coedge $-1 $302 $301 $433 $520 reversed $120 $-1 #
edge $-1 $521 -1.0047061284303404e-014 $430 5.1463539608797486 $426 $522 forward 7 unknown #
coedge $-1 $308 $303 $519 $523 forward $191 $-1 #
vertex $-1 $523 $524 #
straight-curve $-1 -15.084365176274501 -21.15610241504595 11.268040728753933 -1 0 0 I I #
coedge $-1 $525 $305 $308 $437 reversed $424 $-1 #
coedge $-1 $305 $525 $427 $520 forward $424 $-1 #
vertex $-1 $306 $526 #
straight-curve $-1 -18.868254631493656 -24.73106022740901 41.770776274795438 0 0 1 I I #
straight-curve $-1 -18.868254631493656 -24.731060227409003 7.5660634556622881 0 -0.69465836192734942 -0.71933980857756763 I I #
edge $-1 $527 -41.469206073604347 $309 -18.868254631493656 $432 $528 forward 7 unknown #
point $-1 -18.868254631493656 -24.73106022740901 11.268040728753933 #
point $-1 -18.868254631493656 -21.15610241504595 11.268040728753933 #
edge $-1 $529 1 $529 0 $312 $-1 forward 7 unknown #
vertex $-1 $313 $530 #
ellipse-curve $-1 -36.949015785182212 -20.088746048329636 6.6601697806826081 0 -0.71933980857756763 0.69465836192734942 1 0 0 1 I I #
point $-1 -35.949015785182212 -22.943581321227494 9.4170520922081185 #
edge $-1 $531 1 $531 0 $316 $-1 forward 7 unknown #
vertex $-1 $317 $532 #
ellipse-curve $-1 -30.168730352549005 -20.088746048329636 6.6601697806826081 0 -0.71933980857756763 0.69465836192734942 1 0 0 1 I I #
point $-1 -29.168730352549005 -22.943581321227494 9.4170520922081185 #
edge $-1 $533 1 $533 0 $320 $-1 forward 7 unknown #
vertex $-1 $321 $534 #
ellipse-curve $-1 -23.388444919915798 -20.088746048329636 6.6601697806826081 0 -0.71933980857756763 0.69465836192734942 1 0 0 1 I I #
point $-1 -22.388444919915798 -22.943581321227494 9.4170520922081185 #
plane-surface $-1 54.685506759849851 0 0 -1 0 0 0 0 1 forward_v I I I I #
coedge $-1 $329 $327 $331 $457 reversed $220 $-1 #
edge $-1 $342 -11.268040728753933 $459 11.268040728753933 $341 $535 forward 7 unknown #
vertex $-1 $457 $536 #
straight-curve $-1 -54.685506759849851 -24.73106022740901 0 0 0 -1 I I #
edge $-1 $455 -24.73106022740901 $459 24.73106022740901 $453 $537 forward 7 unknown #
straight-curve $-1 0 -24.73106022740901 -11.268040728753933 -1 0 0 I I #
vertex $-1 $334 $538 #
straight-curve $-1 0 24.73106022740901 -11.268040728753933 1 0 0 I I #
point $-1 54.685506759849851 24.73106022740901 -11.268040728753933 #
point $-1 54.685506759849851 -24.73106022740901 -11.268040728753933 #
straight-curve $-1 -54.685506759849851 0 11.268040728753933 0 -1 0 I I #
point $-1 -54.685506759849851 24.73106022740901 11.268040728753933 #
point $-1 -54.685506759849851 -24.73106022740901 11.268040728753933 #
straight-curve $-1 54.685506759849851 -24.73106022740901 0 0 0 -1 I I #
straight-curve $-1 54.685506759849851 24.73106022740901 0 0 0 -1 I I #
plane-surface $-1 0 -24.73106022740901 0 0 1 0 0 0 1 forward_v I I I I #
coedge $-1 $539 $354 $475 $540 reversed $239 $-1 #
coedge $-1 $354 $539 $472 $541 forward $239 $-1 #
edge $-1 $478 -24.73106022740901 $476 24.73106022740901 $354 $542 forward 7 unknown #
coedge $-1 $356 $355 $470 $541 reversed $147 $-1 #
coedge $-1 $543 $361 $356 $474 forward $352 $-1 #
edge $-1 $363 41.469206073604347 $544 54.685506759849851 $356 $545 forward 7 unknown #
coedge $-1 $358 $365 $469 $540 forward $366 $-1 #
vertex $-1 $471 $546 #
straight-curve $-1 -24.03867820836355 -24.73106022740901 8.2680407287539328 1 0 0 I I #
vertex $-1 $471 $547 #
straight-curve $-1 -24.03867820836355 24.73106022740901 8.2680407287539328 -1 0 0 I I #
coedge $-1 $361 $543 $365 $483 forward $352 $-1 #
straight-curve $-1 -41.469206073604347 0 11.268040728753933 0 1 0 I I #
point $-1 -41.469206073604347 24.73106022740901 11.268040728753933 #
edge $-1 $548 -54.685506759849851 $367 -41.469206073604347 $365 $549 forward 7 unknown #
point $-1 -41.469206073604347 -24.73106022740901 11.268040728753933 #
plane-surface $-1 54.685506759849851 0 0 -1 0 0 0 0 1 forward_v I I I I #
coedge $-1 $374 $384 $375 $489 reversed $252 $-1 #
edge $-1 $491 -6.3840203643769664 $385 -3.3840203643769664 $374 $550 forward 7 unknown #
coedge $-1 $376 $375 $389 $497 forward $154 $-1 #
edge $-1 $491 41.469206073604354 $500 54.685506759849851 $486 $551 forward 7 unknown #
edge $-1 $498 -54.685506759849851 $382 -41.469206073604354 $380 $552 forward 7 unknown #
vertex $-1 $489 $553 #
straight-curve $-1 41.469206073604354 0 11.268040728753933 0 -1 0 I I #
straight-curve $-1 41.469206073604354 0 8.2680407287539328 0 1 0 I I #
point $-1 41.469206073604354 24.73106022740901 8.2680407287539328 #
point $-1 41.469206073604354 24.73106022740901 11.268040728753933 #
point $-1 41.469206073604354 -24.73106022740901 8.2680407287539328 #
edge $-1 $500 -24.73106022740901 $498 24.73106022740901 $389 $554 forward 7 unknown #
vertex $-1 $497 $555 #
straight-curve $-1 54.685506759849851 24.73106022740901 0 0 0 -1 I I #
vertex $-1 $497 $556 #
straight-curve $-1 54.685506759849851 -24.73106022740901 0 0 0 -1 I I #
coedge $-1 $397 $396 $404 $507 forward $162 $-1 #
edge $-1 $400 18.868254631493656 $510 41.469206073604347 $397 $557 forward 7 unknown #
straight-curve $-1 -18.868254631493656 24.73106022740901 59.56081240470013 0 0 -1 I I #
point $-1 -18.868254631493656 24.73106022740901 11.268040728753933 #
straight-curve $-1 -15.084365176274501 24.73106022740901 7.566063455662297 -1 0 0 I I #
edge $-1 $405 -51.994748949037835 $510 -48.292771675946199 $502 $558 forward 7 unknown #
point $-1 -41.469206073604347 24.73106022740901 7.5660634556622952 #
point $-1 -18.868254631493656 24.73106022740901 7.5660634556622952 #
vertex $-1 $409 $559 #
straight-curve $-1 -41.469206073604347 0 11.268040728753933 0 -1 0 I I #
vertex $-1 $412 $560 #
point $-1 -35.949015785182212 20.088746048329643 6.660169780682601 #
vertex $-1 $416 $561 #
point $-1 -29.168730352549005 20.088746048329643 6.660169780682601 #
vertex $-1 $420 $562 #
point $-1 -22.388444919915798 20.088746048329643 6.660169780682601 #
coedge $-1 $519 $426 $525 $563 reversed $299 $-1 #
coedge $-1 $426 $518 $429 $523 reversed $299 $-1 #
edge $-1 $521 -26.384840897329845 $434 -3.7838894552191551 $433 $564 forward 7 unknown #
vertex $-1 $563 $565 #
straight-curve $-1 -41.469206073604347 -24.731060227409003 7.5660634556622881 0 0.69465836192734942 0.71933980857756763 I I #
edge $-1 $430 21.15610241504595 $527 24.73106022740901 $429 $566 forward 7 unknown #
point $-1 -41.469206073604347 -21.15610241504595 11.268040728753933 #
coedge $-1 $433 $432 $518 $563 forward $424 $-1 #
point $-1 -18.868254631493656 -24.73106022740901 7.566063455662281 #
vertex $-1 $437 $567 #
straight-curve $-1 0 -24.73106022740901 11.268040728753933 1 0 0 I I #
vertex $-1 $440 $568 #
point $-1 -35.949015785182212 -20.088746048329636 6.6601697806826081 #
vertex $-1 $444 $569 #
point $-1 -29.168730352549005 -20.088746048329636 6.6601697806826081 #
vertex $-1 $448 $570 #
point $-1 -22.388444919915798 -20.088746048329636 6.6601697806826081 #
straight-curve $-1 -54.685506759849851 24.73106022740901 0 0 0 -1 I I #
point $-1 -54.685506759849851 -24.73106022740901 -11.268040728753933 #
straight-curve $-1 -54.685506759849851 0 -11.268040728753933 0 1 0 I I #
point $-1 -54.685506759849851 24.73106022740901 -11.268040728753933 #
coedge $-1 $470 $469 $543 $571 reversed $239 $-1 #
edge $-1 $548 -11.268040728753933 $476 -8.2680407287539328 $469 $572 forward 7 unknown #
edge $-1 $544 -11.268040728753933 $478 -8.2680407287539328 $472 $573 forward 7 unknown #
straight-curve $-1 -54.685506759849851 0 8.2680407287539328 0 -1 0 I I #
coedge $-1 $480 $473 $539 $571 forward $352 $-1 #
vertex $-1 $474 $574 #
straight-curve $-1 0 24.73106022740901 11.268040728753933 -1 0 0 I I #
point $-1 -54.685506759849851 -24.73106022740901 8.2680407287539328 #
point $-1 -54.685506759849851 24.73106022740901 8.2680407287539328 #
vertex $-1 $571 $575 #
straight-curve $-1 0 -24.73106022740901 11.268040728753933 1 0 0 I I #
straight-curve $-1 41.469206073604354 -24.73106022740901 4.8840203643769664 0 0 -1 I I #
straight-curve $-1 0 -24.73106022740901 11.268040728753933 1 0 0 I I #
straight-curve $-1 0 24.73106022740901 11.268040728753933 -1 0 0 I I #
point $-1 41.469206073604354 -24.73106022740901 11.268040728753933 #
straight-curve $-1 54.685506759849851 0 11.268040728753933 0 1 0 I I #
point $-1 54.685506759849851 24.73106022740901 11.268040728753933 #
point $-1 54.685506759849851 -24.73106022740901 11.268040728753933 #
straight-curve $-1 0 24.73106022740901 11.268040728753933 -1 0 0 I I #
straight-curve $-1 -41.469206073604347 24.73106022740901 59.56081240470013 0 0 1 I I #
point $-1 -41.469206073604347 24.73106022740901 11.268040728753933 #
point $-1 -36.949015785182212 19.369406239752077 5.965511418755252 #
point $-1 -30.168730352549005 19.369406239752077 5.965511418755252 #
point $-1 -23.388444919915798 19.369406239752077 5.965511418755252 #
edge $-1 $527 30.502735546041507 $521 34.204712819133157 $525 $576 forward 7 unknown #
straight-curve $-1 -15.084365176274501 -24.73106022740901 7.5660634556622828 1 0 0 I I #
point $-1 -41.469206073604347 -24.73106022740901 7.566063455662281 #
straight-curve $-1 -41.469206073604347 0 11.268040728753933 0 -1 0 I I #
point $-1 -41.469206073604347 -24.73106022740901 11.268040728753933 #
point $-1 -36.949015785182212 -19.36940623975207 5.9655114187552591 #
point $-1 -30.168730352549005 -19.36940623975207 5.9655114187552591 #
point $-1 -23.388444919915798 -19.36940623975207 5.9655114187552591 #
edge $-1 $544 -24.73106022740901 $548 24.73106022740901 $539 $577 forward 7 unknown #
straight-curve $-1 -54.685506759849851 -24.73106022740901 0 0 0 -1 I I #
straight-curve $-1 -54.685506759849851 24.73106022740901 0 0 0 -1 I I #
point $-1 -54.685506759849851 24.73106022740901 11.268040728753933 #
point $-1 -54.685506759849851 -24.73106022740901 11.268040728753933 #
straight-curve $-1 -41.469206073604347 -24.73106022740901 41.770776274795438 0 0 -1 I I #
straight-curve $-1 -54.685506759849851 0 11.268040728753933 0 -1 0 I I #
End-of-ACIS-data 