500 0 5 0           
7 Unknown 11 ACIS 5.0 NT 24 Fri Mar 26 15:37:07 1999 
-1 9.9999999999999995e-007 1e-010 
body $-1 $5 $-1 $6 #
body $-1 $7 $-1 $8 #
body $-1 $9 $-1 $10 #
body $-1 $11 $-1 $12 #
body $-1 $13 $-1 $14 #
lump $-1 $-1 $15 $0 #
transform $-1 1 0 0 0 1 0 0 0 1 57.072054200872827 24.531734592492242 11.84810833440614 1 rotate no_reflect no_shear #
lump $-1 $-1 $16 $1 #
transform $-1 1 0 0 0 1 0 0 0 1 57.072054200872827 24.531734592492242 11.84810833440614 1 rotate no_reflect no_shear #
lump $-1 $-1 $17 $2 #
transform $-1 1 0 0 0 1 0 0 0 1 57.072054200872827 24.531734592492242 11.84810833440614 1 rotate no_reflect no_shear #
lump $-1 $-1 $18 $3 #
transform $-1 1 0 0 0 1 0 0 0 1 57.072054200872827 24.531734592492242 11.84810833440614 1 rotate no_reflect no_shear #
lump $-1 $-1 $19 $4 #
transform $-1 1 0 0 0 1 0 0 0 1 57.072054200872827 24.531734592492242 11.84810833440614 1 rotate no_reflect no_shear #
shell $-1 $-1 $-1 $20 $-1 $5 #
shell $-1 $-1 $-1 $21 $-1 $7 #
shell $-1 $-1 $-1 $22 $-1 $9 #
shell $-1 $-1 $-1 $23 $-1 $11 #
shell $-1 $-1 $-1 $24 $-1 $13 #
face $-1 $25 $26 $15 $-1 $27 forward single #
face $-1 $28 $29 $16 $-1 $30 forward single #
face $-1 $31 $32 $17 $-1 $33 forward single #
face $-1 $34 $35 $18 $-1 $36 reversed single #
face $-1 $37 $38 $19 $-1 $39 reversed single #
face $-1 $40 $41 $15 $-1 $42 reversed single #
loop $-1 $-1 $43 $20 #
plane-surface $-1 0 0 11.84810833440614 0 0 1 1 0 0 forward_v I I I I #
face $-1 $44 $45 $16 $-1 $46 forward single #
loop $-1 $-1 $47 $21 #
plane-surface $-1 -46.60750863723495 -17.751410798358911 0 1 0 0 0 0 -1 forward_v I I I I #
face $-1 $48 $49 $17 $-1 $50 forward single #
loop $-1 $-1 $51 $22 #
plane-surface $-1 31.819755730602338 13.543548091778899 167.62462964237906 0 -1 0 -0.5877852598018023 0 -0.80901698891910034 forward_v I I I I #
face $-1 $52 $53 $18 $-1 $54 reversed single #
loop $-1 $55 $56 $23 #
cone-surface $-1 54.259227184273954 7.6151169284681259 9.613486847032636 -0.5877852598018023 0 -0.80901698891910034 0.40450849445955017 0 -0.29389262990090115 1 I I 0 1 0.5 forward I I I I #
face $-1 $57 $58 $19 $-1 $59 reversed single #
loop $-1 $60 $61 $24 #
cone-surface $-1 54.259227184273954 11.172175626454589 9.613486847032636 -0.5877852598018023 0 -0.80901698891910034 0.40450849445955017 0 -0.29389262990090115 1 I I 0 1 0.5 forward I I I I #
face $-1 $62 $63 $15 $-1 $64 reversed single #
loop $-1 $-1 $65 $25 #
plane-surface $-1 0 0 -11.84810833440614 0 0 1 1 0 0 forward_v I I I I #
coedge $-1 $66 $67 $68 $69 forward $26 $-1 #
face $-1 $70 $71 $16 $-1 $72 forward single #
loop $-1 $-1 $73 $28 #
plane-surface $-1 -43.14470218299418 -10.971087004225581 0 0 -1 0 0 0 -1 forward_v I I I I #
coedge $-1 $74 $75 $76 $77 reversed $29 $-1 #
face $-1 $78 $79 $17 $-1 $80 forward single #
loop $-1 $-1 $81 $31 #
plane-surface $-1 -35.27246868116282 9.3936462774613574 75.280106760343415 0.5877852598018023 0 0.80901698891910034 0.80901698891910034 0 -0.5877852598018023 forward_v I I I I #
coedge $-1 $82 $83 $84 $85 reversed $32 $-1 #
face $-1 $86 $87 $18 $-1 $88 forward single #
loop $-1 $89 $90 $34 #
cone-surface $-1 53.818388239422603 7.6151169284681259 9.0067241053433111 -0.5877852598018023 0 -0.80901698891910034 0.20225424722977509 0 -0.14694631495045057 1 I I -0.70710678118654746 0.70710678118654746 0.25 forward I I I I #
loop $-1 $-1 $91 $23 #
coedge $-1 $56 $56 $92 $93 reversed $35 $-1 #
face $-1 $94 $95 $19 $-1 $96 reversed single #
loop $-1 $97 $98 $37 #
cone-surface $-1 53.818388239422603 11.172175626454589 9.0067241053433111 -0.5877852598018023 0 -0.80901698891910034 0.20225424722977509 0 -0.14694631495045057 1 I I -0.70710678118654746 0.70710678118654746 0.25 forward I I I I #
loop $-1 $-1 $99 $24 #
coedge $-1 $61 $61 $100 $101 reversed $38 $-1 #
face $-1 $102 $103 $15 $-1 $104 reversed single #
loop $-1 $-1 $105 $40 #
plane-surface $-1 0 -24.531734592492242 0 0 1 0 0 0 1 forward_v I I I I #
coedge $-1 $106 $107 $108 $109 forward $41 $-1 #
coedge $-1 $110 $43 $111 $112 forward $26 $-1 #
coedge $-1 $43 $110 $113 $114 forward $26 $-1 #
coedge $-1 $115 $116 $43 $69 reversed $117 $-1 #
edge $-1 $118 -24.531734592492242 $119 24.531734592492242 $68 $120 forward 7 unknown #
face $-1 $121 $122 $16 $-1 $123 forward single #
loop $-1 $-1 $124 $44 #
plane-surface $-1 -39.68189572875341 -17.751410798358911 0 -1 0 0 0 0 1 forward_v I I I I #
coedge $-1 $125 $126 $127 $128 reversed $45 $-1 #
coedge $-1 $129 $47 $130 $131 reversed $29 $-1 #
coedge $-1 $47 $129 $132 $133 reversed $29 $-1 #
coedge $-1 $126 $125 $47 $77 forward $45 $-1 #
edge $-1 $134 -11.84810833440614 $135 11.84810833440614 $76 $136 forward 7 unknown #
face $-1 $137 $138 $17 $-1 $139 forward single #
loop $-1 $-1 $140 $48 #
plane-surface $-1 31.819755730602338 5.2437444631438161 167.62462964237906 0 1 0 0.5877852598018023 0 0.80901698891910034 forward_v I I I I #
coedge $-1 $141 $142 $143 $144 reversed $49 $-1 #
coedge $-1 $83 $51 $142 $145 forward $32 $-1 #
coedge $-1 $51 $82 $146 $147 reversed $32 $-1 #
coedge $-1 $148 $143 $51 $85 forward $138 $-1 #
edge $-1 $149 36.12430756217573 $150 41.162176335571658 $84 $151 forward 7 unknown #
face $-1 $152 $153 $18 $-1 $154 forward single #
loop $-1 $-1 $155 $52 #
plane-surface $-1 31.819755730602338 13.543548091778899 167.62462964237906 0 -1 0 -0.5877852598018023 0 -0.80901698891910034 forward_v I I I I #
loop $-1 $-1 $156 $34 #
coedge $-1 $90 $90 $91 $157 forward $53 $-1 #
coedge $-1 $91 $91 $90 $157 reversed $55 $-1 #
coedge $-1 $92 $92 $56 $93 forward $153 $-1 #
edge $-1 $158 0 $158 6.2831853071796004 $92 $159 forward 7 unknown #
face $-1 $160 $161 $19 $-1 $162 reversed single #
loop $-1 $163 $164 $57 #
cone-surface $-1 54.259227184273954 7.6151169284681259 9.613486847032636 -0.5877852598018023 0 -0.80901698891910034 0.40450849445955017 0 -0.29389262990090115 1 I I 0 1 0.5 forward I I I I #
loop $-1 $-1 $165 $37 #
coedge $-1 $98 $98 $99 $166 forward $58 $-1 #
coedge $-1 $99 $99 $98 $166 reversed $60 $-1 #
coedge $-1 $100 $100 $61 $101 forward $167 $-1 #
edge $-1 $168 0 $168 6.2831853071796004 $100 $169 forward 7 unknown #
face $-1 $170 $171 $15 $-1 $172 reversed single #
loop $-1 $-1 $173 $62 #
plane-surface $-1 -57.072054200872827 0 0 1 0 0 0 0 -1 forward_v I I I I #
coedge $-1 $174 $113 $175 $176 forward $63 $-1 #
coedge $-1 $177 $65 $174 $178 forward $41 $-1 #
coedge $-1 $65 $177 $179 $180 forward $41 $-1 #
coedge $-1 $116 $115 $65 $109 reversed $117 $-1 #
edge $-1 $181 -24.531734592492242 $182 24.531734592492242 $108 $183 forward 7 unknown #
coedge $-1 $67 $66 $184 $185 forward $26 $-1 #
coedge $-1 $186 $187 $66 $112 reversed $171 $-1 #
edge $-1 $119 -57.072054200872827 $188 57.072054200872827 $111 $189 forward 7 unknown #
coedge $-1 $105 $190 $67 $114 reversed $63 $-1 #
edge $-1 $191 -57.072054200872827 $118 57.072054200872827 $113 $192 forward 7 unknown #
coedge $-1 $108 $68 $190 $193 forward $117 $-1 #
coedge $-1 $68 $108 $186 $194 reversed $117 $-1 #
loop $-1 $-1 $115 $170 #
vertex $-1 $69 $195 #
vertex $-1 $69 $196 #
straight-curve $-1 57.072054200872827 0 11.84810833440614 0 1 0 I I #
face $-1 $197 $198 $16 $-1 $199 reversed single #
loop $-1 $-1 $130 $70 #
plane-surface $-1 0 0 11.84810833440614 0 0 1 1 0 0 forward_v I I I I #
coedge $-1 $200 $201 $202 $203 reversed $71 $-1 #
coedge $-1 $76 $73 $204 $205 reversed $45 $-1 #
coedge $-1 $73 $76 $206 $207 reversed $45 $-1 #
coedge $-1 $201 $200 $73 $128 forward $71 $-1 #
edge $-1 $208 -11.84810833440614 $209 11.84810833440614 $127 $210 forward 7 unknown #
coedge $-1 $75 $74 $211 $212 reversed $29 $-1 #
coedge $-1 $204 $213 $74 $131 forward $122 $-1 #
edge $-1 $214 -15.656029193312786 $134 -2.0953816050461249 $130 $215 forward 7 unknown #
coedge $-1 $216 $206 $75 $133 forward $217 $-1 #
edge $-1 $135 2.0953816050461249 $218 15.656029193312786 $132 $219 forward 7 unknown #
vertex $-1 $131 $220 #
vertex $-1 $133 $221 #
straight-curve $-1 -46.60750863723495 -10.971087004225581 0 0 0 -1 I I #
face $-1 $222 $223 $17 $-1 $224 forward single #
loop $-1 $-1 $225 $78 #
plane-surface $-1 0 0 11.84810833440614 0 0 1 1 0 0 forward_v I I I I #
coedge $-1 $226 $227 $225 $228 reversed $79 $-1 #
coedge $-1 $229 $81 $227 $230 reversed $49 $-1 #
coedge $-1 $81 $229 $82 $145 reversed $49 $-1 #
coedge $-1 $84 $225 $81 $144 forward $138 $-1 #
edge $-1 $231 0.54692132441313746 $149 8.8467249530482199 $143 $232 forward 7 unknown #
edge $-1 $149 107.91696009411017 $233 114.14410840174565 $82 $234 forward 7 unknown #
coedge $-1 $235 $236 $83 $147 forward $237 $-1 #
edge $-1 $150 71.964206486783397 $233 75.624432472611275 $146 $238 forward 7 unknown #
coedge $-1 $239 $84 $236 $240 forward $138 $-1 #
vertex $-1 $144 $241 #
vertex $-1 $240 $242 #
straight-curve $-1 15.909877865301169 13.543548091778899 11.848108334406135 1 0 0 I I #
face $-1 $243 $244 $18 $-1 $245 forward single #
loop $-1 $246 $92 $86 #
plane-surface $-1 -35.27246868116282 9.3936462774613574 75.280106760343415 0.5877852598018023 0 0.80901698891910034 0.80901698891910034 0 -0.5877852598018023 forward_v I I I I #
coedge $-1 $247 $248 $249 $250 reversed $87 $-1 #
coedge $-1 $156 $156 $-1 $251 forward $89 $-1 #
edge $-1 $252 0 $252 6.2831853071796004 $90 $253 forward 7 unknown #
vertex $-1 $93 $254 #
ellipse-curve $-1 54.55311981417487 7.6151169284681259 10.017995341492204 -0.5877852598018023 0 -0.80901698891910034 0.40450849445955017 0 -0.29389262990090115 1 I I #
face $-1 $255 $256 $19 $-1 $257 forward single #
loop $-1 $258 $259 $94 #
cone-surface $-1 53.818388239422603 7.6151169284681259 9.0067241053433111 -0.5877852598018023 0 -0.80901698891910034 0.20225424722977509 0 -0.14694631495045057 1 I I -0.70710678118654746 0.70710678118654746 0.25 forward I I I I #
loop $-1 $-1 $260 $57 #
coedge $-1 $164 $164 $261 $262 reversed $95 $-1 #
coedge $-1 $165 $165 $-1 $263 forward $97 $-1 #
edge $-1 $264 0 $264 6.2831853071796004 $98 $265 forward 7 unknown #
loop $-1 $266 $100 $255 #
vertex $-1 $101 $267 #
ellipse-curve $-1 54.55311981417487 11.172175626454589 10.017995341492204 -0.5877852598018023 0 -0.80901698891910034 0.40450849445955017 0 -0.29389262990090115 1 I I #
face $-1 $-1 $117 $15 $-1 $268 reversed single #
loop $-1 $-1 $186 $102 #
plane-surface $-1 0 24.531734592492242 0 0 -1 0 0 0 -1 forward_v I I I I #
coedge $-1 $269 $184 $187 $270 forward $103 $-1 #
coedge $-1 $190 $105 $106 $178 reversed $63 $-1 #
coedge $-1 $184 $269 $105 $176 reversed $103 $-1 #
edge $-1 $191 -11.84810833440614 $271 11.84810833440614 $175 $272 forward 7 unknown #
coedge $-1 $107 $106 $269 $273 forward $41 $-1 #
edge $-1 $182 -57.072054200872827 $271 57.072054200872827 $174 $274 forward 7 unknown #
coedge $-1 $187 $186 $107 $180 reversed $171 $-1 #
edge $-1 $275 -57.072054200872827 $181 57.072054200872827 $179 $276 forward 7 unknown #
vertex $-1 $109 $277 #
vertex $-1 $193 $278 #
straight-curve $-1 57.072054200872827 0 -11.84810833440614 0 -1 0 I I #
coedge $-1 $173 $175 $110 $185 reversed $103 $-1 #
edge $-1 $188 -24.531734592492242 $191 24.531734592492242 $184 $279 forward 7 unknown #
coedge $-1 $179 $111 $116 $194 forward $171 $-1 #
coedge $-1 $111 $179 $173 $270 reversed $171 $-1 #
vertex $-1 $112 $280 #
straight-curve $-1 0 24.531734592492242 11.84810833440614 -1 0 0 I I #
coedge $-1 $113 $174 $115 $193 reversed $63 $-1 #
vertex $-1 $185 $281 #
straight-curve $-1 0 -24.531734592492242 11.84810833440614 1 0 0 I I #
edge $-1 $118 -11.84810833440614 $182 11.84810833440614 $115 $282 forward 7 unknown #
edge $-1 $119 -11.84810833440614 $181 11.84810833440614 $116 $283 forward 7 unknown #
point $-1 57.072054200872827 -24.531734592492242 11.84810833440614 #
point $-1 57.072054200872827 24.531734592492242 11.84810833440614 #
face $-1 $284 $217 $16 $-1 $285 reversed single #
loop $-1 $-1 $202 $121 #
plane-surface $-1 0 -24.531734592492242 0 0 1 0 0 0 1 forward_v I I I I #
coedge $-1 $127 $124 $286 $287 reversed $71 $-1 #
coedge $-1 $124 $127 $288 $289 reversed $71 $-1 #
coedge $-1 $290 $291 $124 $203 forward $198 $-1 #
edge $-1 $292 -11.84810833440614 $293 11.84810833440614 $202 $294 forward 7 unknown #
coedge $-1 $286 $130 $125 $205 forward $122 $-1 #
edge $-1 $134 -25.03515754573786 $208 -18.10954463725632 $204 $295 forward 7 unknown #
coedge $-1 $132 $288 $126 $207 forward $217 $-1 #
edge $-1 $209 18.10954463725632 $135 25.03515754573786 $206 $296 forward 7 unknown #
vertex $-1 $205 $297 #
vertex $-1 $207 $298 #
straight-curve $-1 -39.68189572875341 -10.971087004225581 0 0 0 -1 I I #
coedge $-1 $299 $300 $129 $212 forward $301 $-1 #
edge $-1 $218 -11.84810833440614 $214 11.84810833440614 $211 $302 forward 7 unknown #
coedge $-1 $130 $303 $299 $304 forward $122 $-1 #
vertex $-1 $212 $305 #
straight-curve $-1 -46.60750863723495 -8.8757053991794557 11.84810833440614 0 1 0 I I #
coedge $-1 $306 $132 $300 $307 forward $217 $-1 #
loop $-1 $-1 $132 $197 #
vertex $-1 $307 $308 #
straight-curve $-1 -46.60750863723495 -8.8757053991794557 -11.84810833440614 0 -1 0 I I #
point $-1 -46.60750863723495 -10.971087004225581 11.84810833440614 #
point $-1 -46.60750863723495 -10.971087004225581 -11.84810833440614 #
face $-1 $309 $310 $17 $-1 $311 forward single #
loop $-1 $-1 $312 $137 #
plane-surface $-1 -46.60750863723495 -17.751410798358911 0 1 0 0 0 0 -1 forward_v I I I I #
coedge $-1 $143 $313 $140 $228 forward $138 $-1 #
coedge $-1 $227 $140 $314 $315 reversed $79 $-1 #
coedge $-1 $140 $226 $141 $230 forward $79 $-1 #
edge $-1 $316 -41.162176335571658 $231 -36.12430756217573 $225 $317 forward 7 unknown #
coedge $-1 $142 $141 $235 $318 reversed $49 $-1 #
edge $-1 $319 -114.14410840174565 $231 -107.91696009411017 $227 $320 forward 7 unknown #
vertex $-1 $144 $321 #
straight-curve $-1 52.034185427476892 4.6968231387306787 11.848108334406142 0 1 0 I I #
vertex $-1 $318 $322 #
straight-curve $-1 -35.27246868116282 13.543548091778899 75.280106760343415 0.80901698891910034 0 -0.5877852598018023 I I #
coedge $-1 $314 $146 $229 $318 forward $237 $-1 #
coedge $-1 $146 $323 $148 $240 reversed $237 $-1 #
loop $-1 $-1 $314 $324 #
straight-curve $-1 57.072054200872827 13.543548091778899 83.812314821189531 0 0 -1 I I #
coedge $-1 $325 $148 $326 $327 forward $138 $-1 #
edge $-1 $150 13.543548091778899 $328 24.531734592492242 $236 $329 forward 7 unknown #
point $-1 52.034185427476899 13.543548091778899 11.848108334406142 #
point $-1 57.072054200872827 13.543548091778899 11.84810833440614 #
face $-1 $330 $331 $18 $-1 $332 forward single #
loop $-1 $-1 $333 $152 #
plane-surface $-1 31.819755730602338 5.2437444631438161 167.62462964237906 0 1 0 0.5877852598018023 0 0.80901698891910034 forward_v I I I I #
loop $-1 $-1 $334 $86 #
coedge $-1 $248 $155 $335 $336 forward $87 $-1 #
coedge $-1 $155 $247 $337 $338 reversed $87 $-1 #
coedge $-1 $339 $340 $155 $250 forward $331 $-1 #
edge $-1 $341 36.12430756217573 $342 41.162176335571658 $249 $343 forward 7 unknown #
edge $-1 $344 1 $344 0 $156 $-1 forward 7 unknown #
vertex $-1 $157 $345 #
ellipse-curve $-1 53.965334554373051 7.6151169284681259 9.2089783525730855 0.5877852598018023 0 0.80901698891910034 0.40450849445955017 0 -0.29389262990090115 1 I I #
point $-1 54.957628308634405 7.6151169284681259 9.7241027115912857 #
face $-1 $346 $167 $19 $-1 $347 forward single #
loop $-1 $-1 $348 $160 #
plane-surface $-1 31.819755730602338 13.543548091778899 167.62462964237906 0 -1 0 -0.5877852598018023 0 -0.80901698891910034 forward_v I I I I #
loop $-1 $-1 $349 $94 #
coedge $-1 $259 $259 $260 $350 forward $161 $-1 #
coedge $-1 $260 $260 $259 $350 reversed $163 $-1 #
coedge $-1 $261 $261 $164 $262 forward $266 $-1 #
edge $-1 $351 0 $351 6.2831853071796004 $261 $352 forward 7 unknown #
edge $-1 $353 1 $353 0 $165 $-1 forward 7 unknown #
vertex $-1 $166 $354 #
ellipse-curve $-1 53.965334554373051 11.172175626454589 9.2089783525730855 0.5877852598018023 0 0.80901698891910034 0.40450849445955017 0 -0.29389262990090115 1 I I #
loop $-1 $355 $261 $255 #
point $-1 54.957628308634405 11.172175626454589 9.7241027115912857 #
plane-surface $-1 57.072054200872827 0 0 -1 0 0 0 0 1 forward_v I I I I #
coedge $-1 $175 $173 $177 $273 reversed $103 $-1 #
edge $-1 $188 -11.84810833440614 $275 11.84810833440614 $187 $356 forward 7 unknown #
vertex $-1 $273 $357 #
straight-curve $-1 -57.072054200872827 -24.531734592492242 0 0 0 -1 I I #
edge $-1 $271 -24.531734592492242 $275 24.531734592492242 $269 $358 forward 7 unknown #
straight-curve $-1 0 -24.531734592492242 -11.84810833440614 -1 0 0 I I #
vertex $-1 $180 $359 #
straight-curve $-1 0 24.531734592492242 -11.84810833440614 1 0 0 I I #
point $-1 57.072054200872827 24.531734592492242 -11.84810833440614 #
point $-1 57.072054200872827 -24.531734592492242 -11.84810833440614 #
straight-curve $-1 -57.072054200872827 0 11.84810833440614 0 -1 0 I I #
point $-1 -57.072054200872827 24.531734592492242 11.84810833440614 #
point $-1 -57.072054200872827 -24.531734592492242 11.84810833440614 #
straight-curve $-1 57.072054200872827 -24.531734592492242 0 0 0 -1 I I #
straight-curve $-1 57.072054200872827 24.531734592492242 0 0 0 -1 I I #
face $-1 $360 $301 $16 $-1 $199 reversed single #
plane-surface $-1 0 0 -11.84810833440614 0 0 1 1 0 0 forward_v I I I I #
coedge $-1 $361 $204 $200 $287 forward $122 $-1 #
edge $-1 $208 2.0953816050461249 $292 15.656029193312786 $286 $362 forward 7 unknown #
coedge $-1 $206 $363 $201 $289 forward $217 $-1 #
edge $-1 $293 -15.656029193312786 $209 -2.0953816050461249 $288 $364 forward 7 unknown #
coedge $-1 $365 $202 $363 $366 reversed $198 $-1 #
coedge $-1 $202 $365 $361 $367 reversed $198 $-1 #
vertex $-1 $367 $368 #
vertex $-1 $203 $369 #
straight-curve $-1 -39.68189572875341 -24.531734592492242 0 0 0 -1 I I #
straight-curve $-1 -21.57235109149709 -10.971087004225581 11.84810833440614 1 0 0 I I #
straight-curve $-1 -21.57235109149709 -10.971087004225581 -11.84810833440614 -1 0 0 I I #
point $-1 -39.68189572875341 -10.971087004225581 11.84810833440614 #
point $-1 -39.68189572875341 -10.971087004225581 -11.84810833440614 #
coedge $-1 $370 $211 $213 $304 reversed $301 $-1 #
coedge $-1 $211 $370 $216 $307 reversed $301 $-1 #
loop $-1 $-1 $211 $284 #
straight-curve $-1 -46.60750863723495 -24.531734592492242 0 0 0 1 I I #
coedge $-1 $213 $371 $372 $373 forward $122 $-1 #
edge $-1 $374 -57.072054200872827 $214 -46.60750863723495 $299 $375 forward 7 unknown #
point $-1 -46.60750863723495 -24.531734592492242 11.84810833440614 #
coedge $-1 $376 $216 $377 $378 forward $217 $-1 #
edge $-1 $218 46.60750863723495 $379 57.072054200872827 $300 $380 forward 7 unknown #
point $-1 -46.60750863723495 -24.531734592492242 -11.84810833440614 #
face $-1 $381 $382 $17 $-1 $383 forward single #
loop $-1 $-1 $384 $222 #
plane-surface $-1 -43.14470218299418 -10.971087004225581 0 0 -1 0 0 0 -1 forward_v I I I I #
coedge $-1 $385 $386 $387 $388 reversed $223 $-1 #
coedge $-1 $225 $389 $390 $391 forward $138 $-1 #
coedge $-1 $390 $235 $226 $315 forward $237 $-1 #
edge $-1 $319 -75.624432472611275 $316 -71.964206486783397 $314 $392 forward 7 unknown #
vertex $-1 $315 $393 #
straight-curve $-1 15.909877865301169 5.2437444631438161 11.848108334406135 -1 0 0 I I #
edge $-1 $233 -8.8467249530482199 $319 -0.54692132441313746 $235 $394 forward 7 unknown #
vertex $-1 $318 $395 #
straight-curve $-1 -35.27246868116282 5.2437444631438161 75.280106760343415 -0.80901698891910034 0 0.5877852598018023 I I #
point $-1 52.034185427476899 5.2437444631438161 11.848108334406142 #
point $-1 57.072054200872827 13.543548091778899 8.1878823485782561 #
coedge $-1 $236 $396 $397 $398 reversed $237 $-1 #
face $-1 $-1 $237 $17 $-1 $399 reversed single #
coedge $-1 $400 $239 $401 $402 forward $138 $-1 #
coedge $-1 $397 $403 $239 $327 reversed $404 $-1 #
edge $-1 $328 -57.072054200872827 $405 57.072054200872827 $326 $406 forward 7 unknown #
vertex $-1 $240 $407 #
straight-curve $-1 57.072054200872827 0 11.84810833440614 0 1 0 I I #
face $-1 $408 $409 $18 $-1 $410 forward single #
loop $-1 $-1 $411 $243 #
plane-surface $-1 0 0 11.84810833440614 0 0 1 1 0 0 forward_v I I I I #
coedge $-1 $412 $413 $411 $414 reversed $244 $-1 #
coedge $-1 $415 $335 $340 $416 reversed $246 $-1 #
coedge $-1 $334 $417 $247 $336 reversed $246 $-1 #
edge $-1 $341 107.91696009411017 $418 114.14410840174565 $247 $419 forward 7 unknown #
coedge $-1 $420 $421 $248 $338 forward $422 $-1 #
edge $-1 $342 71.964206486783397 $418 75.624432472611275 $337 $423 forward 7 unknown #
coedge $-1 $424 $249 $421 $425 forward $331 $-1 #
coedge $-1 $249 $411 $334 $416 forward $331 $-1 #
vertex $-1 $416 $426 #
vertex $-1 $425 $427 #
straight-curve $-1 15.909877865301169 13.543548091778899 11.848108334406135 1 0 0 I I #
vertex $-1 $251 $428 #
point $-1 54.369843048832607 7.6151169284681259 8.9150857226721847 #
face $-1 $429 $430 $19 $-1 $431 forward single #
plane-surface $-1 -35.27246868116282 9.3936462774613574 75.280106760343415 0.5877852598018023 0 0.80901698891910034 0.80901698891910034 0 -0.5877852598018023 forward_v I I I I #
coedge $-1 $432 $433 $434 $435 reversed $256 $-1 #
coedge $-1 $349 $349 $-1 $436 forward $258 $-1 #
edge $-1 $437 0 $437 6.2831853071796004 $259 $438 forward 7 unknown #
vertex $-1 $262 $439 #
ellipse-curve $-1 54.55311981417487 7.6151169284681259 10.017995341492204 -0.5877852598018023 0 -0.80901698891910034 0.40450849445955017 0 -0.29389262990090115 1 I I #
vertex $-1 $263 $440 #
point $-1 54.369843048832607 11.172175626454589 8.9150857226721847 #
loop $-1 $-1 $441 $255 #
straight-curve $-1 -57.072054200872827 24.531734592492242 0 0 0 -1 I I #
point $-1 -57.072054200872827 -24.531734592492242 -11.84810833440614 #
straight-curve $-1 -57.072054200872827 0 -11.84810833440614 0 1 0 I I #
point $-1 -57.072054200872827 24.531734592492242 -11.84810833440614 #
face $-1 $442 $443 $16 $-1 $444 reversed single #
coedge $-1 $445 $286 $291 $367 forward $122 $-1 #
straight-curve $-1 -39.68189572875341 -8.8757053991794557 11.84810833440614 0 -1 0 I I #
coedge $-1 $288 $446 $290 $366 forward $217 $-1 #
straight-curve $-1 -39.68189572875341 -8.8757053991794557 -11.84810833440614 0 1 0 I I #
coedge $-1 $291 $290 $447 $448 reversed $198 $-1 #
edge $-1 $449 -57.072054200872827 $293 39.68189572875341 $290 $380 forward 7 unknown #
edge $-1 $292 -39.68189572875341 $450 57.072054200872827 $291 $375 forward 7 unknown #
point $-1 -39.68189572875341 -24.531734592492242 11.84810833440614 #
point $-1 -39.68189572875341 -24.531734592492242 -11.84810833440614 #
coedge $-1 $300 $299 $451 $452 forward $301 $-1 #
coedge $-1 $303 $445 $453 $454 forward $122 $-1 #
coedge $-1 $455 $451 $303 $373 reversed $443 $-1 #
edge $-1 $456 -24.531734592492242 $374 24.531734592492242 $372 $457 forward 7 unknown #
vertex $-1 $373 $458 #
straight-curve $-1 0 -24.531734592492242 11.84810833440614 1 0 0 I I #
coedge $-1 $446 $306 $459 $460 forward $217 $-1 #
coedge $-1 $451 $455 $306 $378 reversed $443 $-1 #
edge $-1 $379 -24.531734592492242 $461 24.531734592492242 $377 $462 forward 7 unknown #
vertex $-1 $378 $463 #
straight-curve $-1 0 -24.531734592492242 -11.84810833440614 -1 0 0 I I #
face $-1 $464 $465 $17 $-1 $466 reversed single #
loop $-1 $-1 $467 $309 #
plane-surface $-1 -39.68189572875341 -17.751410798358911 0 -1 0 0 0 0 1 forward_v I I I I #
coedge $-1 $468 $469 $470 $471 reversed $310 $-1 #
coedge $-1 $472 $312 $473 $474 reversed $223 $-1 #
coedge $-1 $312 $472 $475 $476 reversed $223 $-1 #
coedge $-1 $469 $468 $312 $388 forward $310 $-1 #
edge $-1 $477 -11.84810833440614 $478 11.84810833440614 $387 $479 forward 7 unknown #
coedge $-1 $313 $480 $481 $482 forward $138 $-1 #
coedge $-1 $483 $314 $313 $391 reversed $237 $-1 #
edge $-1 $484 -24.531734592492242 $316 5.2437444631438161 $390 $329 forward 7 unknown #
straight-curve $-1 57.072054200872827 5.2437444631438161 83.812314821189531 0 0 1 I I #
point $-1 57.072054200872827 5.2437444631438161 11.84810833440614 #
straight-curve $-1 57.072054200872834 4.6968231387306787 8.1878823485782632 0 -1 0 I I #
point $-1 57.072054200872827 5.2437444631438161 8.1878823485782561 #
coedge $-1 $323 $483 $485 $486 reversed $237 $-1 #
coedge $-1 $487 $326 $323 $398 forward $404 $-1 #
edge $-1 $328 -11.84810833440614 $488 11.84810833440614 $323 $489 forward 7 unknown #
plane-surface $-1 57.072054200872827 0 0 -1 0 0 0 0 1 forward_v I I I I #
coedge $-1 $473 $325 $490 $491 forward $138 $-1 #
coedge $-1 $492 $493 $325 $402 reversed $494 $-1 #
edge $-1 $405 -24.531734592492242 $495 24.531734592492242 $401 $496 forward 7 unknown #
coedge $-1 $326 $487 $492 $497 reversed $404 $-1 #
loop $-1 $-1 $397 $498 #
vertex $-1 $327 $499 #
straight-curve $-1 0 24.531734592492242 11.84810833440614 -1 0 0 I I #
point $-1 57.072054200872827 24.531734592492242 11.84810833440614 #
face $-1 $500 $501 $18 $-1 $502 forward single #
loop $-1 $-1 $503 $330 #
plane-surface $-1 -46.60750863723495 -17.751410798358911 0 1 0 0 0 0 -1 forward_v I I I I #
coedge $-1 $340 $504 $333 $414 forward $331 $-1 #
coedge $-1 $413 $333 $505 $506 reversed $244 $-1 #
coedge $-1 $333 $412 $415 $507 forward $244 $-1 #
edge $-1 $508 -41.162176335571658 $509 -36.12430756217573 $411 $510 forward 7 unknown #
coedge $-1 $417 $334 $413 $507 reversed $246 $-1 #
edge $-1 $509 0.54692132441313746 $341 8.8467249530482199 $340 $511 forward 7 unknown #
coedge $-1 $335 $415 $420 $512 reversed $246 $-1 #
vertex $-1 $512 $513 #
straight-curve $-1 -35.27246868116282 13.543548091778899 75.280106760343415 0.80901698891910034 0 -0.5877852598018023 I I #
coedge $-1 $505 $337 $417 $512 forward $422 $-1 #
coedge $-1 $337 $514 $339 $425 reversed $422 $-1 #
loop $-1 $-1 $505 $515 #
straight-curve $-1 57.072054200872827 13.543548091778899 83.812314821189531 0 0 -1 I I #
coedge $-1 $516 $339 $517 $518 forward $331 $-1 #
edge $-1 $342 13.543548091778899 $519 24.531734592492242 $421 $520 forward 7 unknown #
point $-1 52.034185427476899 13.543548091778899 11.848108334406142 #
point $-1 57.072054200872827 13.543548091778899 11.84810833440614 #
point $-1 53.671441924472155 7.6151169284681259 8.8044698581135368 #
face $-1 $521 $522 $19 $-1 $523 forward single #
loop $-1 $-1 $524 $346 #
plane-surface $-1 31.819755730602338 5.2437444631438161 167.62462964237906 0 1 0 0.5877852598018023 0 0.80901698891910034 forward_v I I I I #
coedge $-1 $433 $348 $525 $526 forward $256 $-1 #
coedge $-1 $348 $432 $527 $528 reversed $256 $-1 #
coedge $-1 $529 $530 $348 $435 forward $522 $-1 #
edge $-1 $531 36.12430756217573 $532 41.162176335571658 $434 $533 forward 7 unknown #
edge $-1 $534 1 $534 0 $349 $-1 forward 7 unknown #
vertex $-1 $350 $535 #
ellipse-curve $-1 53.965334554373051 7.6151169284681259 9.2089783525730855 0.5877852598018023 0 0.80901698891910034 0.40450849445955017 0 -0.29389262990090115 1 I I #
point $-1 54.957628308634405 7.6151169284681259 9.7241027115912857 #
point $-1 53.671441924472155 11.172175626454589 8.8044698581135368 #
coedge $-1 $536 $525 $530 $537 reversed $355 $-1 #
face $-1 $538 $539 $16 $-1 $540 reversed single #
loop $-1 $-1 $455 $360 #
plane-surface $-1 -57.072054200872827 0 0 1 0 0 0 0 -1 forward_v I I I I #
coedge $-1 $371 $361 $541 $542 forward $122 $-1 #
coedge $-1 $363 $376 $543 $544 forward $217 $-1 #
coedge $-1 $543 $541 $365 $448 forward $545 $-1 #
edge $-1 $450 -11.84810833440614 $449 11.84810833440614 $447 $546 forward 7 unknown #
vertex $-1 $448 $547 #
vertex $-1 $542 $548 #
coedge $-1 $372 $377 $370 $452 reversed $443 $-1 #
edge $-1 $374 -11.84810833440614 $379 11.84810833440614 $451 $549 forward 7 unknown #
coedge $-1 $550 $551 $371 $454 reversed $539 $-1 #
edge $-1 $552 -57.072054200872827 $456 57.072054200872827 $453 $553 forward 7 unknown #
coedge $-1 $377 $372 $551 $554 forward $443 $-1 #
vertex $-1 $454 $555 #
straight-curve $-1 -57.072054200872827 0 11.84810833440614 0 -1 0 I I #
point $-1 -57.072054200872827 -24.531734592492242 11.84810833440614 #
coedge $-1 $551 $550 $376 $460 reversed $539 $-1 #
edge $-1 $461 -57.072054200872827 $556 57.072054200872827 $459 $557 forward 7 unknown #
vertex $-1 $460 $558 #
straight-curve $-1 -57.072054200872827 0 -11.84810833440614 0 1 0 I I #
point $-1 -57.072054200872827 -24.531734592492242 -11.84810833440614 #
face $-1 $559 $560 $17 $-1 $561 reversed single #
loop $-1 $-1 $562 $381 #
plane-surface $-1 0 -24.531734592492242 0 0 1 0 0 0 1 forward_v I I I I #
coedge $-1 $563 $564 $562 $565 reversed $382 $-1 #
coedge $-1 $387 $384 $566 $567 reversed $310 $-1 #
coedge $-1 $384 $387 $568 $569 reversed $310 $-1 #
coedge $-1 $564 $563 $384 $471 forward $382 $-1 #
edge $-1 $570 -11.84810833440614 $571 11.84810833440614 $470 $572 forward 7 unknown #
coedge $-1 $386 $385 $573 $574 reversed $223 $-1 #
coedge $-1 $566 $400 $385 $474 forward $138 $-1 #
edge $-1 $575 -15.656029193312786 $477 -2.0953816050461249 $473 $576 forward 7 unknown #
coedge $-1 $577 $568 $386 $476 forward $560 $-1 #
edge $-1 $478 2.0953816050461249 $578 15.656029193312786 $475 $579 forward 7 unknown #
vertex $-1 $474 $580 #
vertex $-1 $476 $581 #
straight-curve $-1 -46.60750863723495 -10.971087004225581 0 0 0 -1 I I #
coedge $-1 $389 $566 $563 $582 forward $138 $-1 #
coedge $-1 $562 $583 $389 $482 reversed $465 $-1 #
edge $-1 $584 -39.68189572875341 $484 57.072054200872827 $481 $585 forward 7 unknown #
coedge $-1 $396 $390 $583 $586 forward $237 $-1 #
vertex $-1 $391 $587 #
coedge $-1 $588 $589 $396 $486 forward $560 $-1 #
edge $-1 $488 -24.531734592492242 $590 24.531734592492242 $396 $591 forward 7 unknown #
coedge $-1 $403 $397 $589 $592 reversed $404 $-1 #
vertex $-1 $486 $593 #
straight-curve $-1 57.072054200872827 24.531734592492242 0 0 0 -1 I I #
coedge $-1 $594 $573 $400 $491 reversed $595 $-1 #
edge $-1 $495 -57.072054200872827 $575 -46.60750863723495 $490 $585 forward 7 unknown #
coedge $-1 $596 $401 $403 $497 forward $494 $-1 #
coedge $-1 $401 $596 $594 $597 reversed $494 $-1 #
loop $-1 $-1 $492 $598 #
vertex $-1 $402 $599 #
straight-curve $-1 -57.072054200872827 0 11.84810833440614 0 -1 0 I I #
edge $-1 $405 -11.84810833440614 $600 11.84810833440614 $403 $601 forward 7 unknown #
face $-1 $324 $404 $17 $-1 $602 reversed single #
point $-1 -57.072054200872827 24.531734592492242 11.84810833440614 #
face $-1 $603 $604 $18 $-1 $605 forward single #
loop $-1 $-1 $606 $408 #
plane-surface $-1 -43.14470218299418 -10.971087004225581 0 0 -1 0 0 0 -1 forward_v I I I I #
coedge $-1 $607 $608 $609 $610 reversed $409 $-1 #
coedge $-1 $411 $611 $612 $613 forward $331 $-1 #
coedge $-1 $612 $420 $412 $506 forward $422 $-1 #
edge $-1 $614 -75.624432472611275 $508 -71.964206486783397 $505 $615 forward 7 unknown #
edge $-1 $614 -114.14410840174565 $509 -107.91696009411017 $413 $616 forward 7 unknown #
vertex $-1 $506 $617 #
vertex $-1 $416 $618 #
straight-curve $-1 15.909877865301169 5.2437444631438161 11.848108334406135 -1 0 0 I I #
straight-curve $-1 52.034185427476892 4.6968231387306787 11.848108334406142 0 1 0 I I #
edge $-1 $418 -8.8467249530482199 $614 -0.54692132441313746 $420 $619 forward 7 unknown #
point $-1 57.072054200872827 13.543548091778899 8.1878823485782561 #
coedge $-1 $421 $620 $621 $622 reversed $422 $-1 #
face $-1 $-1 $422 $18 $-1 $623 reversed single #
coedge $-1 $624 $424 $625 $626 forward $331 $-1 #
coedge $-1 $621 $627 $424 $518 reversed $628 $-1 #
edge $-1 $519 -57.072054200872827 $629 57.072054200872827 $517 $630 forward 7 unknown #
vertex $-1 $425 $631 #
straight-curve $-1 57.072054200872827 0 11.84810833440614 0 1 0 I I #
face $-1 $632 $633 $19 $-1 $634 forward single #
loop $-1 $-1 $635 $429 #
plane-surface $-1 0 0 11.84810833440614 0 0 1 1 0 0 forward_v I I I I #
coedge $-1 $636 $637 $635 $638 reversed $430 $-1 #
coedge $-1 $441 $639 $432 $526 reversed $355 $-1 #
edge $-1 $531 107.91696009411017 $640 114.14410840174565 $432 $641 forward 7 unknown #
coedge $-1 $642 $643 $433 $528 forward $644 $-1 #
edge $-1 $532 71.964206486783397 $640 75.624432472611275 $527 $645 forward 7 unknown #
coedge $-1 $646 $434 $643 $647 forward $522 $-1 #
coedge $-1 $434 $635 $441 $537 forward $522 $-1 #
vertex $-1 $537 $648 #
vertex $-1 $647 $649 #
straight-curve $-1 15.909877865301169 13.543548091778899 11.848108334406135 1 0 0 I I #
vertex $-1 $436 $650 #
point $-1 54.369843048832607 7.6151169284681259 8.9150857226721847 #
coedge $-1 $639 $441 $637 $651 reversed $355 $-1 #
edge $-1 $652 0.54692132441313746 $531 8.8467249530482199 $530 $653 forward 7 unknown #
face $-1 $-1 $545 $16 $-1 $654 reversed single #
loop $-1 $-1 $550 $442 #
plane-surface $-1 0 24.531734592492242 0 0 -1 0 0 0 -1 forward_v I I I I #
coedge $-1 $447 $655 $445 $542 reversed $545 $-1 #
edge $-1 $450 -24.531734592492242 $552 24.531734592492242 $541 $656 forward 7 unknown #
coedge $-1 $655 $447 $446 $544 reversed $545 $-1 #
edge $-1 $556 -24.531734592492242 $449 24.531734592492242 $543 $657 forward 7 unknown #
loop $-1 $-1 $447 $538 #
straight-curve $-1 57.072054200872827 -24.531734592492242 0 0 0 -1 I I #
point $-1 57.072054200872827 -24.531734592492242 -11.84810833440614 #
point $-1 57.072054200872827 -24.531734592492242 11.84810833440614 #
straight-curve $-1 -57.072054200872827 -24.531734592492242 0 0 0 -1 I I #
coedge $-1 $459 $453 $655 $658 forward $539 $-1 #
coedge $-1 $453 $459 $455 $554 reversed $539 $-1 #
vertex $-1 $542 $659 #
straight-curve $-1 0 24.531734592492242 11.84810833440614 -1 0 0 I I #
edge $-1 $456 -11.84810833440614 $461 11.84810833440614 $551 $660 forward 7 unknown #
point $-1 -57.072054200872827 24.531734592492242 11.84810833440614 #
vertex $-1 $544 $661 #
straight-curve $-1 0 24.531734592492242 -11.84810833440614 1 0 0 I I #
point $-1 -57.072054200872827 24.531734592492242 -11.84810833440614 #
face $-1 $598 $595 $17 $-1 $466 reversed single #
loop $-1 $-1 $475 $464 #
plane-surface $-1 0 0 -11.84810833440614 0 0 1 1 0 0 forward_v I I I I #
coedge $-1 $662 $481 $467 $565 forward $465 $-1 #
coedge $-1 $470 $467 $480 $582 reversed $382 $-1 #
coedge $-1 $467 $470 $663 $664 reversed $382 $-1 #
edge $-1 $584 -11.84810833440614 $665 11.84810833440614 $562 $666 forward 7 unknown #
coedge $-1 $480 $473 $468 $567 forward $138 $-1 #
edge $-1 $477 -25.03515754573786 $570 -18.10954463725632 $566 $667 forward 7 unknown #
coedge $-1 $475 $663 $469 $569 forward $560 $-1 #
edge $-1 $571 18.10954463725632 $478 25.03515754573786 $568 $668 forward 7 unknown #
vertex $-1 $567 $669 #
vertex $-1 $569 $670 #
straight-curve $-1 -39.68189572875341 -10.971087004225581 0 0 0 -1 I I #
coedge $-1 $490 $671 $472 $574 forward $595 $-1 #
edge $-1 $578 -11.84810833440614 $575 11.84810833440614 $573 $672 forward 7 unknown #
vertex $-1 $574 $673 #
straight-curve $-1 -46.60750863723495 -8.8757053991794557 11.84810833440614 0 1 0 I I #
coedge $-1 $674 $475 $671 $675 forward $560 $-1 #
vertex $-1 $675 $676 #
straight-curve $-1 -46.60750863723495 -8.8757053991794557 -11.84810833440614 0 -1 0 I I #
point $-1 -46.60750863723495 -10.971087004225581 11.84810833440614 #
point $-1 -46.60750863723495 -10.971087004225581 -11.84810833440614 #
edge $-1 $570 2.0953816050461249 $584 15.656029193312786 $480 $677 forward 7 unknown #
coedge $-1 $481 $662 $483 $586 reversed $465 $-1 #
vertex $-1 $482 $678 #
straight-curve $-1 0 -24.531734592492242 11.84810833440614 1 0 0 I I #
edge $-1 $484 -11.84810833440614 $590 11.84810833440614 $483 $679 forward 7 unknown #
point $-1 57.072054200872827 -24.531734592492242 11.84810833440614 #
coedge $-1 $663 $485 $662 $680 forward $560 $-1 #
coedge $-1 $485 $674 $487 $592 forward $560 $-1 #
vertex $-1 $586 $681 #
straight-curve $-1 57.072054200872827 0 -11.84810833440614 0 -1 0 I I #
edge $-1 $600 -57.072054200872827 $488 57.072054200872827 $487 $682 forward 7 unknown #
point $-1 57.072054200872827 24.531734592492242 -11.84810833440614 #
coedge $-1 $671 $490 $493 $597 forward $595 $-1 #
loop $-1 $-1 $573 $559 #
coedge $-1 $493 $492 $674 $683 reversed $494 $-1 #
edge $-1 $495 -11.84810833440614 $684 11.84810833440614 $493 $685 forward 7 unknown #
face $-1 $498 $494 $17 $-1 $686 reversed single #
point $-1 -57.072054200872827 -24.531734592492242 11.84810833440614 #
vertex $-1 $592 $687 #
straight-curve $-1 -57.072054200872827 24.531734592492242 0 0 0 -1 I I #
plane-surface $-1 0 24.531734592492242 0 0 -1 0 0 0 -1 forward_v I I I I #
face $-1 $688 $689 $18 $-1 $690 reversed single #
loop $-1 $-1 $691 $500 #
plane-surface $-1 -39.68189572875341 -17.751410798358911 0 -1 0 0 0 0 1 forward_v I I I I #
coedge $-1 $692 $693 $694 $695 reversed $501 $-1 #
coedge $-1 $696 $503 $697 $698 reversed $409 $-1 #
coedge $-1 $503 $696 $699 $700 reversed $409 $-1 #
coedge $-1 $693 $692 $503 $610 forward $501 $-1 #
edge $-1 $701 -11.84810833440614 $702 11.84810833440614 $609 $703 forward 7 unknown #
coedge $-1 $504 $704 $705 $706 forward $331 $-1 #
coedge $-1 $707 $505 $504 $613 reversed $422 $-1 #
edge $-1 $708 -24.531734592492242 $508 5.2437444631438161 $612 $520 forward 7 unknown #
vertex $-1 $512 $709 #
straight-curve $-1 57.072054200872827 5.2437444631438161 83.812314821189531 0 0 1 I I #
straight-curve $-1 -35.27246868116282 5.2437444631438161 75.280106760343415 -0.80901698891910034 0 0.5877852598018023 I I #
point $-1 57.072054200872827 5.2437444631438161 11.84810833440614 #
point $-1 52.034185427476899 5.2437444631438161 11.848108334406142 #
straight-curve $-1 57.072054200872834 4.6968231387306787 8.1878823485782632 0 -1 0 I I #
coedge $-1 $514 $707 $710 $711 reversed $422 $-1 #
coedge $-1 $712 $517 $514 $622 forward $628 $-1 #
edge $-1 $519 -11.84810833440614 $713 11.84810833440614 $514 $714 forward 7 unknown #
plane-surface $-1 57.072054200872827 0 0 -1 0 0 0 0 1 forward_v I I I I #
coedge $-1 $697 $516 $715 $716 forward $331 $-1 #
coedge $-1 $717 $718 $516 $626 reversed $719 $-1 #
edge $-1 $629 -24.531734592492242 $720 24.531734592492242 $625 $721 forward 7 unknown #
coedge $-1 $517 $712 $717 $722 reversed $628 $-1 #
loop $-1 $-1 $621 $723 #
vertex $-1 $518 $724 #
straight-curve $-1 0 24.531734592492242 11.84810833440614 -1 0 0 I I #
point $-1 57.072054200872827 24.531734592492242 11.84810833440614 #
face $-1 $725 $726 $19 $-1 $727 forward single #
loop $-1 $-1 $728 $521 #
plane-surface $-1 -46.60750863723495 -17.751410798358911 0 1 0 0 0 0 -1 forward_v I I I I #
coedge $-1 $530 $729 $524 $638 forward $522 $-1 #
coedge $-1 $637 $524 $730 $731 reversed $430 $-1 #
coedge $-1 $524 $636 $536 $651 forward $430 $-1 #
edge $-1 $732 -41.162176335571658 $652 -36.12430756217573 $635 $733 forward 7 unknown #
coedge $-1 $525 $536 $642 $734 reversed $355 $-1 #
vertex $-1 $734 $735 #
straight-curve $-1 -35.27246868116282 13.543548091778899 75.280106760343415 0.80901698891910034 0 -0.5877852598018023 I I #
coedge $-1 $730 $527 $639 $734 forward $644 $-1 #
coedge $-1 $527 $736 $529 $647 reversed $644 $-1 #
loop $-1 $-1 $730 $737 #
straight-curve $-1 57.072054200872827 13.543548091778899 83.812314821189531 0 0 -1 I I #
coedge $-1 $738 $529 $739 $740 forward $522 $-1 #
edge $-1 $532 13.543548091778899 $741 24.531734592492242 $643 $742 forward 7 unknown #
point $-1 52.034185427476899 13.543548091778899 11.848108334406142 #
point $-1 57.072054200872827 13.543548091778899 11.84810833440614 #
point $-1 53.671441924472155 7.6151169284681259 8.8044698581135368 #
edge $-1 $743 -114.14410840174565 $652 -107.91696009411017 $637 $744 forward 7 unknown #
vertex $-1 $537 $745 #
straight-curve $-1 52.034185427476892 4.6968231387306787 11.848108334406142 0 1 0 I I #
plane-surface $-1 57.072054200872827 0 0 -1 0 0 0 0 1 forward_v I I I I #
coedge $-1 $541 $543 $550 $658 reversed $545 $-1 #
straight-curve $-1 57.072054200872827 0 11.84810833440614 0 1 0 I I #
straight-curve $-1 57.072054200872827 0 -11.84810833440614 0 -1 0 I I #
edge $-1 $552 -11.84810833440614 $556 11.84810833440614 $655 $746 forward 7 unknown #
point $-1 57.072054200872827 24.531734592492242 11.84810833440614 #
straight-curve $-1 -57.072054200872827 24.531734592492242 0 0 0 -1 I I #
point $-1 57.072054200872827 24.531734592492242 -11.84810833440614 #
coedge $-1 $583 $562 $588 $680 reversed $465 $-1 #
coedge $-1 $568 $588 $564 $664 forward $560 $-1 #
edge $-1 $665 -15.656029193312786 $571 -2.0953816050461249 $663 $747 forward 7 unknown #
vertex $-1 $565 $748 #
straight-curve $-1 -39.68189572875341 -24.531734592492242 0 0 0 -1 I I #
straight-curve $-1 -21.57235109149709 -10.971087004225581 11.84810833440614 1 0 0 I I #
straight-curve $-1 -21.57235109149709 -10.971087004225581 -11.84810833440614 -1 0 0 I I #
point $-1 -39.68189572875341 -10.971087004225581 11.84810833440614 #
point $-1 -39.68189572875341 -10.971087004225581 -11.84810833440614 #
coedge $-1 $573 $594 $577 $675 reversed $595 $-1 #
straight-curve $-1 -46.60750863723495 -24.531734592492242 0 0 0 1 I I #
point $-1 -46.60750863723495 -24.531734592492242 11.84810833440614 #
coedge $-1 $589 $577 $596 $683 forward $560 $-1 #
edge $-1 $578 46.60750863723495 $684 57.072054200872827 $671 $749 forward 7 unknown #
point $-1 -46.60750863723495 -24.531734592492242 -11.84810833440614 #
straight-curve $-1 -39.68189572875341 -8.8757053991794557 11.84810833440614 0 -1 0 I I #
point $-1 -39.68189572875341 -24.531734592492242 11.84810833440614 #
straight-curve $-1 57.072054200872827 -24.531734592492242 0 0 0 -1 I I #
edge $-1 $590 -57.072054200872827 $665 39.68189572875341 $662 $749 forward 7 unknown #
point $-1 57.072054200872827 -24.531734592492242 -11.84810833440614 #
straight-curve $-1 0 24.531734592492242 -11.84810833440614 1 0 0 I I #
edge $-1 $684 -24.531734592492242 $600 24.531734592492242 $596 $750 forward 7 unknown #
vertex $-1 $683 $751 #
straight-curve $-1 -57.072054200872827 -24.531734592492242 0 0 0 -1 I I #
plane-surface $-1 -57.072054200872827 0 0 1 0 0 0 0 -1 forward_v I I I I #
point $-1 -57.072054200872827 24.531734592492242 -11.84810833440614 #
face $-1 $752 $753 $18 $-1 $754 reversed single #
loop $-1 $-1 $755 $603 #
plane-surface $-1 0 -24.531734592492242 0 0 1 0 0 0 1 forward_v I I I I #
coedge $-1 $756 $757 $755 $758 reversed $604 $-1 #
coedge $-1 $609 $606 $759 $760 reversed $501 $-1 #
coedge $-1 $606 $609 $761 $762 reversed $501 $-1 #
coedge $-1 $757 $756 $606 $695 forward $604 $-1 #
edge $-1 $763 -11.84810833440614 $764 11.84810833440614 $694 $765 forward 7 unknown #
coedge $-1 $608 $607 $766 $767 reversed $409 $-1 #
coedge $-1 $759 $624 $607 $698 forward $331 $-1 #
edge $-1 $768 -15.656029193312786 $701 -2.0953816050461249 $697 $769 forward 7 unknown #
coedge $-1 $770 $761 $608 $700 forward $753 $-1 #
edge $-1 $702 2.0953816050461249 $771 15.656029193312786 $699 $772 forward 7 unknown #
vertex $-1 $698 $773 #
vertex $-1 $700 $774 #
straight-curve $-1 -46.60750863723495 -10.971087004225581 0 0 0 -1 I I #
coedge $-1 $611 $759 $756 $775 forward $331 $-1 #
coedge $-1 $755 $776 $611 $706 reversed $689 $-1 #
edge $-1 $777 -39.68189572875341 $708 57.072054200872827 $705 $778 forward 7 unknown #
coedge $-1 $620 $612 $776 $779 forward $422 $-1 #
vertex $-1 $613 $780 #
point $-1 57.072054200872827 5.2437444631438161 8.1878823485782561 #
coedge $-1 $781 $782 $620 $711 forward $753 $-1 #
edge $-1 $713 -24.531734592492242 $783 24.531734592492242 $620 $784 forward 7 unknown #
coedge $-1 $627 $621 $782 $785 reversed $628 $-1 #
vertex $-1 $711 $786 #
straight-curve $-1 57.072054200872827 24.531734592492242 0 0 0 -1 I I #
coedge $-1 $787 $766 $624 $716 reversed $788 $-1 #
edge $-1 $720 -57.072054200872827 $768 -46.60750863723495 $715 $778 forward 7 unknown #
coedge $-1 $789 $625 $627 $722 forward $719 $-1 #
coedge $-1 $625 $789 $787 $790 reversed $719 $-1 #
loop $-1 $-1 $717 $791 #
vertex $-1 $626 $792 #
straight-curve $-1 -57.072054200872827 0 11.84810833440614 0 -1 0 I I #
edge $-1 $629 -11.84810833440614 $793 11.84810833440614 $627 $794 forward 7 unknown #
face $-1 $515 $628 $18 $-1 $795 reversed single #
point $-1 -57.072054200872827 24.531734592492242 11.84810833440614 #
face $-1 $796 $797 $19 $-1 $798 forward single #
loop $-1 $-1 $799 $632 #
plane-surface $-1 -43.14470218299418 -10.971087004225581 0 0 -1 0 0 0 -1 forward_v I I I I #
coedge $-1 $800 $801 $802 $803 reversed $633 $-1 #
coedge $-1 $635 $804 $805 $806 forward $522 $-1 #
coedge $-1 $805 $642 $636 $731 forward $644 $-1 #
edge $-1 $743 -75.624432472611275 $732 -71.964206486783397 $730 $807 forward 7 unknown #
vertex $-1 $731 $808 #
straight-curve $-1 15.909877865301169 5.2437444631438161 11.848108334406135 -1 0 0 I I #
edge $-1 $640 -8.8467249530482199 $743 -0.54692132441313746 $642 $809 forward 7 unknown #
point $-1 57.072054200872827 13.543548091778899 8.1878823485782561 #
coedge $-1 $643 $810 $811 $812 reversed $644 $-1 #
face $-1 $-1 $644 $19 $-1 $813 reversed single #
coedge $-1 $814 $646 $815 $816 forward $522 $-1 #
coedge $-1 $811 $817 $646 $740 reversed $818 $-1 #
edge $-1 $741 -57.072054200872827 $819 57.072054200872827 $739 $820 forward 7 unknown #
vertex $-1 $647 $821 #
straight-curve $-1 57.072054200872827 0 11.84810833440614 0 1 0 I I #
vertex $-1 $734 $822 #
straight-curve $-1 -35.27246868116282 5.2437444631438161 75.280106760343415 -0.80901698891910034 0 0.5877852598018023 I I #
point $-1 52.034185427476899 5.2437444631438161 11.848108334406142 #
straight-curve $-1 57.072054200872827 24.531734592492242 0 0 0 -1 I I #
straight-curve $-1 -39.68189572875341 -8.8757053991794557 -11.84810833440614 0 1 0 I I #
point $-1 -39.68189572875341 -24.531734592492242 -11.84810833440614 #
straight-curve $-1 0 -24.531734592492242 -11.84810833440614 -1 0 0 I I #
straight-curve $-1 -57.072054200872827 0 -11.84810833440614 0 1 0 I I #
point $-1 -57.072054200872827 -24.531734592492242 -11.84810833440614 #
face $-1 $791 $788 $18 $-1 $690 reversed single #
loop $-1 $-1 $699 $688 #
plane-surface $-1 0 0 -11.84810833440614 0 0 1 1 0 0 forward_v I I I I #
coedge $-1 $823 $705 $691 $758 forward $689 $-1 #
coedge $-1 $694 $691 $704 $775 reversed $604 $-1 #
coedge $-1 $691 $694 $824 $825 reversed $604 $-1 #
edge $-1 $777 -11.84810833440614 $826 11.84810833440614 $755 $827 forward 7 unknown #
coedge $-1 $704 $697 $692 $760 forward $331 $-1 #
edge $-1 $701 -25.03515754573786 $763 -18.10954463725632 $759 $828 forward 7 unknown #
coedge $-1 $699 $824 $693 $762 forward $753 $-1 #
edge $-1 $764 18.10954463725632 $702 25.03515754573786 $761 $829 forward 7 unknown #
vertex $-1 $760 $830 #
vertex $-1 $762 $831 #
straight-curve $-1 -39.68189572875341 -10.971087004225581 0 0 0 -1 I I #
coedge $-1 $715 $832 $696 $767 forward $788 $-1 #
edge $-1 $771 -11.84810833440614 $768 11.84810833440614 $766 $833 forward 7 unknown #
vertex $-1 $767 $834 #
straight-curve $-1 -46.60750863723495 -8.8757053991794557 11.84810833440614 0 1 0 I I #
coedge $-1 $835 $699 $832 $836 forward $753 $-1 #
vertex $-1 $836 $837 #
straight-curve $-1 -46.60750863723495 -8.8757053991794557 -11.84810833440614 0 -1 0 I I #
point $-1 -46.60750863723495 -10.971087004225581 11.84810833440614 #
point $-1 -46.60750863723495 -10.971087004225581 -11.84810833440614 #
edge $-1 $763 2.0953816050461249 $777 15.656029193312786 $704 $838 forward 7 unknown #
coedge $-1 $705 $823 $707 $779 reversed $689 $-1 #
vertex $-1 $706 $839 #
straight-curve $-1 0 -24.531734592492242 11.84810833440614 1 0 0 I I #
edge $-1 $708 -11.84810833440614 $783 11.84810833440614 $707 $840 forward 7 unknown #
point $-1 57.072054200872827 -24.531734592492242 11.84810833440614 #
coedge $-1 $824 $710 $823 $841 forward $753 $-1 #
coedge $-1 $710 $835 $712 $785 forward $753 $-1 #
vertex $-1 $779 $842 #
straight-curve $-1 57.072054200872827 0 -11.84810833440614 0 -1 0 I I #
edge $-1 $793 -57.072054200872827 $713 57.072054200872827 $712 $843 forward 7 unknown #
point $-1 57.072054200872827 24.531734592492242 -11.84810833440614 #
coedge $-1 $832 $715 $718 $790 forward $788 $-1 #
loop $-1 $-1 $766 $752 #
coedge $-1 $718 $717 $835 $844 reversed $719 $-1 #
edge $-1 $720 -11.84810833440614 $845 11.84810833440614 $718 $846 forward 7 unknown #
face $-1 $723 $719 $18 $-1 $847 reversed single #
point $-1 -57.072054200872827 -24.531734592492242 11.84810833440614 #
vertex $-1 $785 $848 #
straight-curve $-1 -57.072054200872827 24.531734592492242 0 0 0 -1 I I #
plane-surface $-1 0 24.531734592492242 0 0 -1 0 0 0 -1 forward_v I I I I #
face $-1 $849 $850 $19 $-1 $851 reversed single #
loop $-1 $-1 $852 $725 #
plane-surface $-1 -39.68189572875341 -17.751410798358911 0 -1 0 0 0 0 1 forward_v I I I I #
coedge $-1 $853 $854 $855 $856 reversed $726 $-1 #
coedge $-1 $857 $728 $858 $859 reversed $633 $-1 #
coedge $-1 $728 $857 $860 $861 reversed $633 $-1 #
coedge $-1 $854 $853 $728 $803 forward $726 $-1 #
edge $-1 $862 -11.84810833440614 $863 11.84810833440614 $802 $864 forward 7 unknown #
coedge $-1 $729 $865 $866 $867 forward $522 $-1 #
coedge $-1 $868 $730 $729 $806 reversed $644 $-1 #
edge $-1 $869 -24.531734592492242 $732 5.2437444631438161 $805 $742 forward 7 unknown #
straight-curve $-1 57.072054200872827 5.2437444631438161 83.812314821189531 0 0 1 I I #
point $-1 57.072054200872827 5.2437444631438161 11.84810833440614 #
straight-curve $-1 57.072054200872834 4.6968231387306787 8.1878823485782632 0 -1 0 I I #
coedge $-1 $736 $868 $870 $871 reversed $644 $-1 #
coedge $-1 $872 $739 $736 $812 forward $818 $-1 #
edge $-1 $741 -11.84810833440614 $873 11.84810833440614 $736 $874 forward 7 unknown #
plane-surface $-1 57.072054200872827 0 0 -1 0 0 0 0 1 forward_v I I I I #
coedge $-1 $858 $738 $875 $876 forward $522 $-1 #
coedge $-1 $877 $878 $738 $816 reversed $879 $-1 #
edge $-1 $819 -24.531734592492242 $880 24.531734592492242 $815 $881 forward 7 unknown #
coedge $-1 $739 $872 $877 $882 reversed $818 $-1 #
loop $-1 $-1 $811 $883 #
vertex $-1 $740 $884 #
straight-curve $-1 0 24.531734592492242 11.84810833440614 -1 0 0 I I #
point $-1 57.072054200872827 24.531734592492242 11.84810833440614 #
point $-1 57.072054200872827 5.2437444631438161 8.1878823485782561 #
coedge $-1 $776 $755 $781 $841 reversed $689 $-1 #
coedge $-1 $761 $781 $757 $825 forward $753 $-1 #
edge $-1 $826 -15.656029193312786 $764 -2.0953816050461249 $824 $885 forward 7 unknown #
vertex $-1 $758 $886 #
straight-curve $-1 -39.68189572875341 -24.531734592492242 0 0 0 -1 I I #
straight-curve $-1 -21.57235109149709 -10.971087004225581 11.84810833440614 1 0 0 I I #
straight-curve $-1 -21.57235109149709 -10.971087004225581 -11.84810833440614 -1 0 0 I I #
point $-1 -39.68189572875341 -10.971087004225581 11.84810833440614 #
point $-1 -39.68189572875341 -10.971087004225581 -11.84810833440614 #
coedge $-1 $766 $787 $770 $836 reversed $788 $-1 #
straight-curve $-1 -46.60750863723495 -24.531734592492242 0 0 0 1 I I #
point $-1 -46.60750863723495 -24.531734592492242 11.84810833440614 #
coedge $-1 $782 $770 $789 $844 forward $753 $-1 #
edge $-1 $771 46.60750863723495 $845 57.072054200872827 $832 $887 forward 7 unknown #
point $-1 -46.60750863723495 -24.531734592492242 -11.84810833440614 #
straight-curve $-1 -39.68189572875341 -8.8757053991794557 11.84810833440614 0 -1 0 I I #
point $-1 -39.68189572875341 -24.531734592492242 11.84810833440614 #
straight-curve $-1 57.072054200872827 -24.531734592492242 0 0 0 -1 I I #
edge $-1 $783 -57.072054200872827 $826 39.68189572875341 $823 $887 forward 7 unknown #
point $-1 57.072054200872827 -24.531734592492242 -11.84810833440614 #
straight-curve $-1 0 24.531734592492242 -11.84810833440614 1 0 0 I I #
edge $-1 $845 -24.531734592492242 $793 24.531734592492242 $789 $888 forward 7 unknown #
vertex $-1 $844 $889 #
straight-curve $-1 -57.072054200872827 -24.531734592492242 0 0 0 -1 I I #
plane-surface $-1 -57.072054200872827 0 0 1 0 0 0 0 -1 forward_v I I I I #
point $-1 -57.072054200872827 24.531734592492242 -11.84810833440614 #
face $-1 $890 $891 $19 $-1 $892 reversed single #
loop $-1 $-1 $893 $796 #
plane-surface $-1 0 -24.531734592492242 0 0 1 0 0 0 1 forward_v I I I I #
coedge $-1 $894 $895 $893 $896 reversed $797 $-1 #
coedge $-1 $802 $799 $897 $898 reversed $726 $-1 #
coedge $-1 $799 $802 $899 $900 reversed $726 $-1 #
coedge $-1 $895 $894 $799 $856 forward $797 $-1 #
edge $-1 $901 -11.84810833440614 $902 11.84810833440614 $855 $903 forward 7 unknown #
coedge $-1 $801 $800 $904 $905 reversed $633 $-1 #
coedge $-1 $897 $814 $800 $859 forward $522 $-1 #
edge $-1 $906 -15.656029193312786 $862 -2.0953816050461249 $858 $907 forward 7 unknown #
coedge $-1 $908 $899 $801 $861 forward $891 $-1 #
edge $-1 $863 2.0953816050461249 $909 15.656029193312786 $860 $910 forward 7 unknown #
vertex $-1 $859 $911 #
vertex $-1 $861 $912 #
straight-curve $-1 -46.60750863723495 -10.971087004225581 0 0 0 -1 I I #
coedge $-1 $804 $897 $894 $913 forward $522 $-1 #
coedge $-1 $893 $914 $804 $867 reversed $850 $-1 #
edge $-1 $915 -39.68189572875341 $869 57.072054200872827 $866 $916 forward 7 unknown #
coedge $-1 $810 $805 $914 $917 forward $644 $-1 #
vertex $-1 $806 $918 #
coedge $-1 $919 $920 $810 $871 forward $891 $-1 #
edge $-1 $873 -24.531734592492242 $921 24.531734592492242 $810 $922 forward 7 unknown #
coedge $-1 $817 $811 $920 $923 reversed $818 $-1 #
vertex $-1 $871 $924 #
straight-curve $-1 57.072054200872827 24.531734592492242 0 0 0 -1 I I #
coedge $-1 $925 $904 $814 $876 reversed $926 $-1 #
edge $-1 $880 -57.072054200872827 $906 -46.60750863723495 $875 $916 forward 7 unknown #
coedge $-1 $927 $815 $817 $882 forward $879 $-1 #
coedge $-1 $815 $927 $925 $928 reversed $879 $-1 #
loop $-1 $-1 $877 $929 #
vertex $-1 $816 $930 #
straight-curve $-1 -57.072054200872827 0 11.84810833440614 0 -1 0 I I #
edge $-1 $819 -11.84810833440614 $931 11.84810833440614 $817 $932 forward 7 unknown #
face $-1 $737 $818 $19 $-1 $933 reversed single #
point $-1 -57.072054200872827 24.531734592492242 11.84810833440614 #
straight-curve $-1 -39.68189572875341 -8.8757053991794557 -11.84810833440614 0 1 0 I I #
point $-1 -39.68189572875341 -24.531734592492242 -11.84810833440614 #
straight-curve $-1 0 -24.531734592492242 -11.84810833440614 -1 0 0 I I #
straight-curve $-1 -57.072054200872827 0 -11.84810833440614 0 1 0 I I #
point $-1 -57.072054200872827 -24.531734592492242 -11.84810833440614 #
face $-1 $929 $926 $19 $-1 $851 reversed single #
loop $-1 $-1 $860 $849 #
plane-surface $-1 0 0 -11.84810833440614 0 0 1 1 0 0 forward_v I I I I #
coedge $-1 $934 $866 $852 $896 forward $850 $-1 #
coedge $-1 $855 $852 $865 $913 reversed $797 $-1 #
coedge $-1 $852 $855 $935 $936 reversed $797 $-1 #
edge $-1 $915 -11.84810833440614 $937 11.84810833440614 $893 $938 forward 7 unknown #
coedge $-1 $865 $858 $853 $898 forward $522 $-1 #
edge $-1 $862 -25.03515754573786 $901 -18.10954463725632 $897 $939 forward 7 unknown #
coedge $-1 $860 $935 $854 $900 forward $891 $-1 #
edge $-1 $902 18.10954463725632 $863 25.03515754573786 $899 $940 forward 7 unknown #
vertex $-1 $898 $941 #
vertex $-1 $900 $942 #
straight-curve $-1 -39.68189572875341 -10.971087004225581 0 0 0 -1 I I #
coedge $-1 $875 $943 $857 $905 forward $926 $-1 #
edge $-1 $909 -11.84810833440614 $906 11.84810833440614 $904 $944 forward 7 unknown #
vertex $-1 $905 $945 #
straight-curve $-1 -46.60750863723495 -8.8757053991794557 11.84810833440614 0 1 0 I I #
coedge $-1 $946 $860 $943 $947 forward $891 $-1 #
vertex $-1 $947 $948 #
straight-curve $-1 -46.60750863723495 -8.8757053991794557 -11.84810833440614 0 -1 0 I I #
point $-1 -46.60750863723495 -10.971087004225581 11.84810833440614 #
point $-1 -46.60750863723495 -10.971087004225581 -11.84810833440614 #
edge $-1 $901 2.0953816050461249 $915 15.656029193312786 $865 $949 forward 7 unknown #
coedge $-1 $866 $934 $868 $917 reversed $850 $-1 #
vertex $-1 $867 $950 #
straight-curve $-1 0 -24.531734592492242 11.84810833440614 1 0 0 I I #
edge $-1 $869 -11.84810833440614 $921 11.84810833440614 $868 $951 forward 7 unknown #
point $-1 57.072054200872827 -24.531734592492242 11.84810833440614 #
coedge $-1 $935 $870 $934 $952 forward $891 $-1 #
coedge $-1 $870 $946 $872 $923 forward $891 $-1 #
vertex $-1 $917 $953 #
straight-curve $-1 57.072054200872827 0 -11.84810833440614 0 -1 0 I I #
edge $-1 $931 -57.072054200872827 $873 57.072054200872827 $872 $954 forward 7 unknown #
point $-1 57.072054200872827 24.531734592492242 -11.84810833440614 #
coedge $-1 $943 $875 $878 $928 forward $926 $-1 #
loop $-1 $-1 $904 $890 #
coedge $-1 $878 $877 $946 $955 reversed $879 $-1 #
edge $-1 $880 -11.84810833440614 $956 11.84810833440614 $878 $957 forward 7 unknown #
face $-1 $883 $879 $19 $-1 $958 reversed single #
point $-1 -57.072054200872827 -24.531734592492242 11.84810833440614 #
vertex $-1 $923 $959 #
straight-curve $-1 -57.072054200872827 24.531734592492242 0 0 0 -1 I I #
plane-surface $-1 0 24.531734592492242 0 0 -1 0 0 0 -1 forward_v I I I I #
coedge $-1 $914 $893 $919 $952 reversed $850 $-1 #
coedge $-1 $899 $919 $895 $936 forward $891 $-1 #
edge $-1 $937 -15.656029193312786 $902 -2.0953816050461249 $935 $960 forward 7 unknown #
vertex $-1 $896 $961 #
straight-curve $-1 -39.68189572875341 -24.531734592492242 0 0 0 -1 I I #
straight-curve $-1 -21.57235109149709 -10.971087004225581 11.84810833440614 1 0 0 I I #
straight-curve $-1 -21.57235109149709 -10.971087004225581 -11.84810833440614 -1 0 0 I I #
point $-1 -39.68189572875341 -10.971087004225581 11.84810833440614 #
point $-1 -39.68189572875341 -10.971087004225581 -11.84810833440614 #
coedge $-1 $904 $925 $908 $947 reversed $926 $-1 #
straight-curve $-1 -46.60750863723495 -24.531734592492242 0 0 0 1 I I #
point $-1 -46.60750863723495 -24.531734592492242 11.84810833440614 #
coedge $-1 $920 $908 $927 $955 forward $891 $-1 #
edge $-1 $909 46.60750863723495 $956 57.072054200872827 $943 $962 forward 7 unknown #
point $-1 -46.60750863723495 -24.531734592492242 -11.84810833440614 #
straight-curve $-1 -39.68189572875341 -8.8757053991794557 11.84810833440614 0 -1 0 I I #
point $-1 -39.68189572875341 -24.531734592492242 11.84810833440614 #
straight-curve $-1 57.072054200872827 -24.531734592492242 0 0 0 -1 I I #
edge $-1 $921 -57.072054200872827 $937 39.68189572875341 $934 $962 forward 7 unknown #
point $-1 57.072054200872827 -24.531734592492242 -11.84810833440614 #
straight-curve $-1 0 24.531734592492242 -11.84810833440614 1 0 0 I I #
edge $-1 $956 -24.531734592492242 $931 24.531734592492242 $927 $963 forward 7 unknown #
vertex $-1 $955 $964 #
straight-curve $-1 -57.072054200872827 -24.531734592492242 0 0 0 -1 I I #
plane-surface $-1 -57.072054200872827 0 0 1 0 0 0 0 -1 forward_v I I I I #
point $-1 -57.072054200872827 24.531734592492242 -11.84810833440614 #
straight-curve $-1 -39.68189572875341 -8.8757053991794557 -11.84810833440614 0 1 0 I I #
point $-1 -39.68189572875341 -24.531734592492242 -11.84810833440614 #
straight-curve $-1 0 -24.531734592492242 -11.84810833440614 -1 0 0 I I #
straight-curve $-1 -57.072054200872827 0 -11.84810833440614 0 1 0 I I #
point $-1 -57.072054200872827 -24.531734592492242 -11.84810833440614 #
End-of-ACIS-data 