500 0 14 0           
7 Unknown 11 ACIS 5.0 NT 24 Fri Mar 26 15:00:30 1999 
-1 9.9999999999999995e-007 1e-010 
body $-1 $14 $-1 $15 #
body $-1 $16 $-1 $17 #
body $-1 $18 $-1 $19 #
body $-1 $20 $-1 $21 #
body $-1 $22 $-1 $23 #
body $-1 $24 $-1 $25 #
body $-1 $26 $-1 $27 #
body $-1 $28 $-1 $29 #
body $-1 $30 $-1 $31 #
body $-1 $32 $-1 $33 #
body $-1 $34 $-1 $35 #
body $-1 $36 $-1 $37 #
body $-1 $38 $-1 $39 #
body $-1 $40 $-1 $41 #
lump $-1 $-1 $42 $0 #
transform $-1 1 0 0 0 1 0 0 0 1 73.111362041077911 40.22831818352654 8.3314741312005314 1 rotate no_reflect no_shear #
lump $-1 $-1 $43 $1 #
transform $-1 1 0 0 0 1 0 0 0 1 73.111362041077911 40.22831818352654 8.3314741312005314 1 rotate no_reflect no_shear #
lump $-1 $-1 $44 $2 #
transform $-1 1 0 0 0 1 0 0 0 1 73.111362041077911 40.22831818352654 8.3314741312005314 1 rotate no_reflect no_shear #
lump $-1 $-1 $45 $3 #
transform $-1 1 0 0 0 1 0 0 0 1 73.111362041077911 40.22831818352654 8.3314741312005314 1 rotate no_reflect no_shear #
lump $-1 $-1 $46 $4 #
transform $-1 1 0 0 0 1 0 0 0 1 73.111362041077911 40.22831818352654 8.3314741312005314 1 rotate no_reflect no_shear #
lump $-1 $-1 $47 $5 #
transform $-1 1 0 0 0 1 0 0 0 1 73.111362041077911 40.22831818352654 8.3314741312005314 1 rotate no_reflect no_shear #
lump $-1 $-1 $48 $6 #
transform $-1 1 0 0 0 1 0 0 0 1 73.111362041077911 40.22831818352654 8.3314741312005314 1 rotate no_reflect no_shear #
lump $-1 $-1 $49 $7 #
transform $-1 1 0 0 0 1 0 0 0 1 73.111362041077911 40.22831818352654 8.3314741312005314 1 rotate no_reflect no_shear #
lump $-1 $-1 $50 $8 #
transform $-1 1 0 0 0 1 0 0 0 1 73.111362041077911 40.22831818352654 8.3314741312005314 1 rotate no_reflect no_shear #
lump $-1 $-1 $51 $9 #
transform $-1 1 0 0 0 1 0 0 0 1 73.111362041077911 40.22831818352654 8.3314741312005314 1 rotate no_reflect no_shear #
lump $-1 $-1 $52 $10 #
transform $-1 1 0 0 0 1 0 0 0 1 73.111362041077911 40.22831818352654 8.3314741312005314 1 rotate no_reflect no_shear #
lump $-1 $-1 $53 $11 #
transform $-1 1 0 0 0 1 0 0 0 1 73.111362041077911 40.22831818352654 8.3314741312005314 1 rotate no_reflect no_shear #
lump $-1 $-1 $54 $12 #
transform $-1 1 0 0 0 1 0 0 0 1 73.111362041077911 40.22831818352654 8.3314741312005314 1 rotate no_reflect no_shear #
lump $-1 $-1 $55 $13 #
transform $-1 1 0 0 0 1 0 0 0 1 73.111362041077911 40.22831818352654 8.3314741312005314 1 rotate no_reflect no_shear #
shell $-1 $-1 $-1 $56 $-1 $14 #
shell $-1 $-1 $-1 $57 $-1 $16 #
shell $-1 $-1 $-1 $58 $-1 $18 #
shell $-1 $-1 $-1 $59 $-1 $20 #
shell $-1 $-1 $-1 $60 $-1 $22 #
shell $-1 $-1 $-1 $61 $-1 $24 #
shell $-1 $-1 $-1 $62 $-1 $26 #
shell $-1 $-1 $-1 $63 $-1 $28 #
shell $-1 $-1 $-1 $64 $-1 $30 #
shell $-1 $-1 $-1 $65 $-1 $32 #
shell $-1 $-1 $-1 $66 $-1 $34 #
shell $-1 $-1 $-1 $67 $-1 $36 #
shell $-1 $-1 $-1 $68 $-1 $38 #
shell $-1 $-1 $-1 $69 $-1 $40 #
face $-1 $70 $71 $42 $-1 $72 forward single #
face $-1 $73 $74 $43 $-1 $75 forward single #
face $-1 $76 $77 $44 $-1 $78 forward single #
face $-1 $79 $80 $45 $-1 $81 reversed single #
face $-1 $82 $83 $46 $-1 $84 forward single #
face $-1 $85 $86 $47 $-1 $87 forward single #
face $-1 $88 $89 $48 $-1 $90 forward single #
face $-1 $91 $92 $49 $-1 $93 reversed single #
face $-1 $94 $95 $50 $-1 $96 forward single #
face $-1 $97 $98 $51 $-1 $99 forward single #
face $-1 $100 $101 $52 $-1 $102 forward single #
face $-1 $103 $104 $53 $-1 $105 reversed single #
face $-1 $106 $107 $54 $-1 $108 forward single #
face $-1 $109 $110 $55 $-1 $111 forward single #
face $-1 $112 $113 $42 $-1 $114 reversed single #
loop $-1 $-1 $115 $56 #
plane-surface $-1 0 0 8.3314741312005314 0 0 1 1 0 0 forward_v I I I I #
face $-1 $116 $117 $43 $-1 $118 reversed single #
loop $-1 $-1 $119 $57 #
plane-surface $-1 -67.690371067410013 0 -5.3314741312005314 0 0 1 1 0 0 forward_v I I I I #
face $-1 $120 $121 $44 $-1 $122 reversed single #
loop $-1 $-1 $123 $58 #
plane-surface $-1 67.690371067410013 0 -5.3314741312005314 0 0 1 1 0 0 forward_v I I I I #
face $-1 $124 $125 $45 $-1 $126 reversed single #
loop $-1 $-1 $127 $59 #
plane-surface $-1 -54.296811972782635 -124.09822825701903 124.96856020764341 1 0 0 0 0.57357644374324357 -0.81915203911291934 forward_v I I I I #
face $-1 $128 $129 $46 $-1 $130 forward single #
loop $-1 $131 $132 $60 #
cone-surface $-1 -50.108247402421753 -37.02788374859086 5.3937716861275007 0 0.57357644374324357 -0.81915203911291934 1 0 0 1 I I 0 1 1 forward I I I I #
face $-1 $133 $134 $47 $-1 $135 forward single #
loop $-1 $136 $137 $61 #
cone-surface $-1 -43.825400546880424 -37.02788374859086 5.3937716861275007 0 0.57357644374324357 -0.81915203911291934 1 0 0 1 I I 0 1 1 forward I I I I #
face $-1 $138 $139 $48 $-1 $140 forward single #
loop $-1 $141 $142 $62 #
cone-surface $-1 -37.542553691339094 -37.02788374859086 5.3937716861275007 0 0.57357644374324357 -0.81915203911291934 1 0 0 1 I I 0 1 1 forward I I I I #
face $-1 $143 $144 $49 $-1 $145 reversed single #
loop $-1 $-1 $146 $63 #
plane-surface $-1 7.9725681209594867 -124.09822825701903 124.96856020764341 1 0 0 0 0.57357644374324357 -0.81915203911291934 forward_v I I I I #
face $-1 $147 $148 $50 $-1 $149 forward single #
loop $-1 $150 $151 $64 #
cone-surface $-1 12.161132691320361 -37.02788374859086 5.3937716861275007 0 0.57357644374324357 -0.81915203911291934 1 0 0 1 I I 0 1 1 forward I I I I #
face $-1 $152 $153 $51 $-1 $154 forward single #
loop $-1 $155 $156 $65 #
cone-surface $-1 18.443979546861698 -37.02788374859086 5.3937716861275007 0 0.57357644374324357 -0.81915203911291934 1 0 0 1 I I 0 1 1 forward I I I I #
face $-1 $157 $158 $52 $-1 $159 forward single #
loop $-1 $160 $161 $66 #
cone-surface $-1 24.72682640240302 -37.02788374859086 5.3937716861275007 0 0.57357644374324357 -0.81915203911291934 1 0 0 1 I I 0 1 1 forward I I I I #
face $-1 $162 $163 $53 $-1 $164 reversed single #
loop $-1 $-1 $165 $67 #
plane-surface $-1 2.0600371114059648 58.192010516780812 170.83624457734382 -1 0 0 0 0.57357644374324357 0.81915203911291934 forward_v I I I I #
face $-1 $166 $167 $54 $-1 $168 forward single #
loop $-1 $169 $170 $68 #
cone-surface $-1 -15.608233343105454 37.257313058920239 5.867155991432206 0 -0.57357644374324357 -0.81915203911291934 1 0 0 1 I I 0 1 1 forward I I I I #
face $-1 $171 $172 $55 $-1 $173 forward single #
loop $-1 $174 $175 $69 #
cone-surface $-1 -5.0072710703986019 37.257313058920239 5.867155991432206 0 -0.57357644374324357 -0.81915203911291934 1 0 0 1 I I 0 1 1 forward I I I I #
face $-1 $176 $177 $42 $-1 $178 reversed single #
loop $-1 $-1 $179 $70 #
plane-surface $-1 0 0 -8.3314741312005314 0 0 1 1 0 0 forward_v I I I I #
coedge $-1 $180 $181 $182 $183 forward $71 $-1 #
face $-1 $184 $185 $43 $-1 $186 reversed single #
loop $-1 $-1 $187 $73 #
plane-surface $-1 -62.269380093742114 0 -6.8314741312005314 -1 0 0 0 0 1 forward_v I I I I #
coedge $-1 $188 $189 $190 $191 forward $74 $-1 #
face $-1 $192 $193 $44 $-1 $194 reversed single #
loop $-1 $-1 $195 $76 #
plane-surface $-1 62.269380093742114 0 -6.8314741312005314 1 0 0 0 0 -1 forward_v I I I I #
coedge $-1 $196 $197 $198 $199 reversed $77 $-1 #
face $-1 $200 $201 $45 $-1 $202 reversed single #
loop $-1 $-1 $203 $79 #
plane-surface $-1 -43.825400546880424 -40.228318183526554 5.1899176110996876 0 -0.57357644374324357 0.81915203911291934 1 0 0 forward_v I I I I #
coedge $-1 $204 $205 $206 $207 reversed $80 $-1 #
face $-1 $-1 $208 $46 $-1 $209 forward single #
loop $-1 $210 $211 $82 #
cone-surface $-1 -50.108247402421753 -35.783964889821902 3.6172714815484355 0 0.57357644374324357 -0.81915203911291934 0.5 0 0 1 I I -0.70710678118654746 0.70710678118654746 0.5 forward I I I I #
loop $-1 $-1 $212 $60 #
coedge $-1 $132 $132 $213 $214 reversed $83 $-1 #
face $-1 $-1 $215 $47 $-1 $216 forward single #
loop $-1 $217 $218 $85 #
cone-surface $-1 -43.825400546880424 -35.783964889821902 3.6172714815484355 0 0.57357644374324357 -0.81915203911291934 0.5 0 0 1 I I -0.70710678118654746 0.70710678118654746 0.5 forward I I I I #
loop $-1 $-1 $219 $61 #
coedge $-1 $137 $137 $220 $221 reversed $86 $-1 #
face $-1 $-1 $222 $48 $-1 $223 forward single #
loop $-1 $224 $225 $88 #
cone-surface $-1 -37.542553691339094 -35.783964889821902 3.6172714815484355 0 0.57357644374324357 -0.81915203911291934 0.5 0 0 1 I I -0.70710678118654746 0.70710678118654746 0.5 forward I I I I #
loop $-1 $-1 $226 $62 #
coedge $-1 $142 $142 $227 $228 reversed $89 $-1 #
face $-1 $229 $230 $49 $-1 $231 reversed single #
loop $-1 $-1 $232 $91 #
plane-surface $-1 18.443979546861698 -40.228318183526554 5.1899176110996876 0 -0.57357644374324357 0.81915203911291934 1 0 0 forward_v I I I I #
coedge $-1 $233 $234 $235 $236 reversed $92 $-1 #
face $-1 $-1 $237 $50 $-1 $238 forward single #
loop $-1 $239 $240 $94 #
cone-surface $-1 12.161132691320361 -35.783964889821902 3.6172714815484355 0 0.57357644374324357 -0.81915203911291934 0.5 0 0 1 I I -0.70710678118654746 0.70710678118654746 0.5 forward I I I I #
loop $-1 $-1 $241 $64 #
coedge $-1 $151 $151 $242 $243 reversed $95 $-1 #
face $-1 $-1 $244 $51 $-1 $245 forward single #
loop $-1 $246 $247 $97 #
cone-surface $-1 18.443979546861698 -35.783964889821902 3.6172714815484355 0 0.57357644374324357 -0.81915203911291934 0.5 0 0 1 I I -0.70710678118654746 0.70710678118654746 0.5 forward I I I I #
loop $-1 $-1 $248 $65 #
coedge $-1 $156 $156 $249 $250 reversed $98 $-1 #
face $-1 $-1 $251 $52 $-1 $252 forward single #
loop $-1 $253 $254 $100 #
cone-surface $-1 24.72682640240302 -35.783964889821902 3.6172714815484355 0 0.57357644374324357 -0.81915203911291934 0.5 0 0 1 I I -0.70710678118654746 0.70710678118654746 0.5 forward I I I I #
loop $-1 $-1 $255 $66 #
coedge $-1 $161 $161 $256 $257 reversed $101 $-1 #
face $-1 $258 $259 $53 $-1 $260 reversed single #
loop $-1 $-1 $261 $103 #
plane-surface $-1 -10.307752206752028 -25.677899556711665 51.057601980800101 0 0.57357644374324357 0.81915203911291934 1 0 0 forward_v I I I I #
coedge $-1 $262 $263 $264 $265 reversed $104 $-1 #
face $-1 $-1 $266 $54 $-1 $267 forward single #
loop $-1 $268 $269 $106 #
cone-surface $-1 -15.608233343105454 36.443012006443908 4.7042135887864358 0 -0.57357644374324357 -0.81915203911291934 0.5 0 0 1 I I -0.70710678118654691 0.70710678118654813 0.5 forward I I I I #
loop $-1 $-1 $270 $68 #
coedge $-1 $170 $170 $271 $272 reversed $107 $-1 #
face $-1 $-1 $273 $55 $-1 $274 forward single #
loop $-1 $275 $276 $109 #
cone-surface $-1 -5.0072710703986019 36.443012006443908 4.7042135887864358 0 -0.57357644374324357 -0.81915203911291934 0.5 0 0 1 I I -0.70710678118654691 0.70710678118654813 0.5 forward I I I I #
loop $-1 $-1 $277 $69 #
coedge $-1 $175 $175 $278 $279 reversed $110 $-1 #
face $-1 $280 $281 $42 $-1 $282 reversed single #
loop $-1 $-1 $283 $112 #
plane-surface $-1 0 -40.22831818352654 0 0 1 0 0 0 1 forward_v I I I I #
coedge $-1 $284 $285 $286 $287 forward $113 $-1 #
coedge $-1 $288 $115 $289 $290 forward $71 $-1 #
coedge $-1 $115 $288 $291 $292 forward $71 $-1 #
coedge $-1 $293 $294 $115 $183 reversed $295 $-1 #
edge $-1 $296 -40.22831818352654 $297 40.22831818352654 $182 $298 forward 7 unknown #
face $-1 $299 $300 $43 $-1 $301 reversed single #
loop $-1 $-1 $302 $116 #
plane-surface $-1 0 0 -8.3314741312005314 0 0 1 1 0 0 forward_v I I I I #
coedge $-1 $303 $190 $304 $305 reversed $117 $-1 #
coedge $-1 $306 $119 $307 $308 reversed $74 $-1 #
coedge $-1 $119 $306 $309 $310 reversed $74 $-1 #
coedge $-1 $187 $311 $119 $191 reversed $117 $-1 #
edge $-1 $312 -40.22831818352654 $313 40.22831818352654 $190 $314 forward 7 unknown #
face $-1 $315 $316 $44 $-1 $317 reversed single #
loop $-1 $-1 $318 $120 #
plane-surface $-1 0 -40.22831818352654 0 0 1 0 0 0 1 forward_v I I I I #
coedge $-1 $319 $320 $321 $322 reversed $121 $-1 #
coedge $-1 $323 $123 $324 $325 reversed $77 $-1 #
coedge $-1 $123 $323 $318 $326 reversed $77 $-1 #
coedge $-1 $327 $328 $123 $199 forward $329 $-1 #
edge $-1 $330 -40.22831818352654 $331 40.22831818352654 $198 $332 forward 7 unknown #
face $-1 $333 $334 $45 $-1 $335 forward single #
loop $-1 $-1 $336 $124 #
plane-surface $-1 -33.353989120978213 -124.09822825701903 124.96856020764341 -1 0 0 0 -0.57357644374324357 0.81915203911291934 forward_v I I I I #
coedge $-1 $337 $338 $339 $340 reversed $125 $-1 #
coedge $-1 $205 $127 $341 $342 reversed $80 $-1 #
coedge $-1 $127 $204 $337 $343 reversed $80 $-1 #
coedge $-1 $339 $344 $127 $207 forward $345 $-1 #
edge $-1 $346 54.152805972621174 $347 57.294362492722009 $206 $348 forward 7 unknown #
loop $-1 $-1 $213 $128 #
plane-surface $-1 -43.825400546880424 -40.228318183526554 5.1899176110996876 0 -0.57357644374324357 0.81915203911291934 1 0 0 forward_v I I I I #
loop $-1 $-1 $349 $82 #
coedge $-1 $211 $211 $212 $350 reversed $129 $-1 #
coedge $-1 $212 $212 $211 $350 forward $131 $-1 #
coedge $-1 $213 $213 $132 $214 forward $208 $-1 #
edge $-1 $351 1.7449195536988479e-015 $351 6.2831853071796022 $213 $352 forward 7 unknown #
loop $-1 $-1 $220 $133 #
plane-surface $-1 -43.825400546880424 -40.228318183526554 5.1899176110996876 0 -0.57357644374324357 0.81915203911291934 1 0 0 forward_v I I I I #
loop $-1 $-1 $353 $85 #
coedge $-1 $218 $218 $219 $354 reversed $134 $-1 #
coedge $-1 $219 $219 $218 $354 forward $136 $-1 #
coedge $-1 $220 $220 $137 $221 forward $215 $-1 #
edge $-1 $355 1.7449195536988479e-015 $355 6.2831853071796022 $220 $356 forward 7 unknown #
loop $-1 $-1 $227 $138 #
plane-surface $-1 -43.825400546880424 -40.228318183526554 5.1899176110996876 0 -0.57357644374324357 0.81915203911291934 1 0 0 forward_v I I I I #
loop $-1 $-1 $357 $88 #
coedge $-1 $225 $225 $226 $358 reversed $139 $-1 #
coedge $-1 $226 $226 $225 $358 forward $141 $-1 #
coedge $-1 $227 $227 $142 $228 forward $222 $-1 #
edge $-1 $359 1.7449195536988479e-015 $359 6.2831853071796022 $227 $360 forward 7 unknown #
face $-1 $361 $362 $49 $-1 $363 reversed single #
loop $-1 $-1 $364 $143 #
plane-surface $-1 28.915390972763909 -124.09822825701903 124.96856020764341 -1 0 0 0 -0.57357644374324357 0.81915203911291934 forward_v I I I I #
coedge $-1 $365 $366 $367 $368 reversed $144 $-1 #
coedge $-1 $234 $146 $369 $370 reversed $92 $-1 #
coedge $-1 $146 $233 $365 $371 reversed $92 $-1 #
coedge $-1 $367 $372 $146 $236 forward $362 $-1 #
edge $-1 $373 54.152805972621174 $374 57.294362492722009 $235 $375 forward 7 unknown #
loop $-1 $-1 $242 $147 #
plane-surface $-1 18.443979546861698 -40.228318183526554 5.1899176110996876 0 -0.57357644374324357 0.81915203911291934 1 0 0 forward_v I I I I #
loop $-1 $-1 $376 $94 #
coedge $-1 $240 $240 $241 $377 reversed $148 $-1 #
coedge $-1 $241 $241 $240 $377 forward $150 $-1 #
coedge $-1 $242 $242 $151 $243 forward $237 $-1 #
edge $-1 $378 1.7449195536988479e-015 $378 6.2831853071796022 $242 $379 forward 7 unknown #
loop $-1 $-1 $249 $152 #
plane-surface $-1 18.443979546861698 -40.228318183526554 5.1899176110996876 0 -0.57357644374324357 0.81915203911291934 1 0 0 forward_v I I I I #
loop $-1 $-1 $380 $97 #
coedge $-1 $247 $247 $248 $381 reversed $153 $-1 #
coedge $-1 $248 $248 $247 $381 forward $155 $-1 #
coedge $-1 $249 $249 $156 $250 forward $244 $-1 #
edge $-1 $382 1.7449195536988479e-015 $382 6.2831853071796022 $249 $383 forward 7 unknown #
loop $-1 $-1 $256 $157 #
plane-surface $-1 18.443979546861698 -40.228318183526554 5.1899176110996876 0 -0.57357644374324357 0.81915203911291934 1 0 0 forward_v I I I I #
loop $-1 $-1 $384 $100 #
coedge $-1 $254 $254 $255 $385 reversed $158 $-1 #
coedge $-1 $255 $255 $254 $385 forward $160 $-1 #
coedge $-1 $256 $256 $161 $257 forward $251 $-1 #
edge $-1 $386 1.7449195536988479e-015 $386 6.2831853071796022 $256 $387 forward 7 unknown #
face $-1 $388 $389 $53 $-1 $390 reversed single #
loop $-1 $-1 $391 $162 #
plane-surface $-1 -22.67554152491002 58.192010516780812 170.83624457734382 1 0 0 0 -0.57357644374324357 -0.81915203911291934 forward_v I I I I #
coedge $-1 $392 $393 $394 $395 reversed $163 $-1 #
coedge $-1 $263 $165 $396 $397 reversed $104 $-1 #
coedge $-1 $165 $262 $392 $398 reversed $104 $-1 #
coedge $-1 $394 $399 $165 $265 forward $389 $-1 #
edge $-1 $400 77.086648157471373 $401 80.508551670829434 $264 $402 forward 7 unknown #
loop $-1 $-1 $271 $166 #
plane-surface $-1 -10.307752206752028 -25.677899556711665 51.057601980800101 0 0.57357644374324357 0.81915203911291934 1 0 0 forward_v I I I I #
loop $-1 $-1 $403 $106 #
coedge $-1 $269 $269 $270 $404 reversed $167 $-1 #
coedge $-1 $270 $270 $269 $404 forward $169 $-1 #
coedge $-1 $271 $271 $170 $272 forward $266 $-1 #
edge $-1 $405 2.9804008880166044e-015 $405 6.2831853071796031 $271 $406 forward 7 unknown #
loop $-1 $-1 $278 $171 #
plane-surface $-1 -10.307752206752028 -25.677899556711665 51.057601980800101 0 0.57357644374324357 0.81915203911291934 1 0 0 forward_v I I I I #
loop $-1 $-1 $407 $109 #
coedge $-1 $276 $276 $277 $408 reversed $172 $-1 #
coedge $-1 $277 $277 $276 $408 forward $174 $-1 #
coedge $-1 $278 $278 $175 $279 forward $273 $-1 #
edge $-1 $409 2.9804008880166044e-015 $409 6.2831853071796031 $278 $410 forward 7 unknown #
face $-1 $411 $412 $42 $-1 $413 reversed single #
loop $-1 $-1 $414 $176 #
plane-surface $-1 -73.111362041077911 0 0 1 0 0 0 0 -1 forward_v I I I I #
coedge $-1 $415 $291 $416 $417 forward $177 $-1 #
coedge $-1 $418 $179 $415 $419 forward $113 $-1 #
coedge $-1 $179 $418 $420 $421 forward $113 $-1 #
coedge $-1 $294 $293 $179 $287 reversed $295 $-1 #
edge $-1 $422 -40.22831818352654 $423 40.22831818352654 $286 $424 forward 7 unknown #
coedge $-1 $181 $180 $425 $426 forward $71 $-1 #
coedge $-1 $427 $428 $180 $290 reversed $412 $-1 #
edge $-1 $297 -73.111362041077911 $429 73.111362041077911 $289 $430 forward 7 unknown #
coedge $-1 $283 $431 $181 $292 reversed $177 $-1 #
edge $-1 $432 -73.111362041077911 $296 73.111362041077911 $291 $433 forward 7 unknown #
coedge $-1 $286 $182 $431 $434 forward $295 $-1 #
coedge $-1 $182 $286 $427 $435 reversed $295 $-1 #
loop $-1 $-1 $293 $411 #
vertex $-1 $183 $436 #
vertex $-1 $183 $437 #
straight-curve $-1 73.111362041077911 0 8.3314741312005314 0 1 0 I I #
face $-1 $438 $439 $43 $-1 $440 reversed single #
loop $-1 $-1 $304 $184 #
plane-surface $-1 0 -40.22831818352654 0 0 1 0 0 0 1 forward_v I I I I #
coedge $-1 $441 $442 $303 $443 forward $185 $-1 #
coedge $-1 $311 $187 $302 $443 reversed $117 $-1 #
coedge $-1 $309 $444 $187 $305 forward $300 $-1 #
edge $-1 $445 -4.9157370656002657 $312 -1.9157370656002657 $304 $446 forward 7 unknown #
coedge $-1 $189 $188 $447 $448 reversed $74 $-1 #
coedge $-1 $449 $450 $188 $308 forward $451 $-1 #
edge $-1 $452 -39.266176507372904 $313 -28.424194560037108 $307 $453 forward 7 unknown #
coedge $-1 $454 $304 $189 $310 forward $300 $-1 #
edge $-1 $312 28.424194560037108 $455 39.266176507372904 $309 $456 forward 7 unknown #
coedge $-1 $190 $303 $449 $457 reversed $117 $-1 #
vertex $-1 $310 $458 #
vertex $-1 $308 $459 #
straight-curve $-1 -62.269380093742114 0 -5.3314741312005314 0 1 0 I I #
face $-1 $460 $461 $44 $-1 $462 reversed single #
loop $-1 $-1 $463 $192 #
plane-surface $-1 0 0 -8.3314741312005314 0 0 1 1 0 0 forward_v I I I I #
coedge $-1 $464 $465 $197 $326 forward $193 $-1 #
coedge $-1 $466 $195 $463 $467 reversed $121 $-1 #
coedge $-1 $195 $466 $323 $468 reversed $121 $-1 #
coedge $-1 $324 $469 $195 $322 forward $461 $-1 #
edge $-1 $470 -4.9157370656002657 $471 -1.9157370656002657 $321 $472 forward 7 unknown #
coedge $-1 $197 $196 $320 $468 forward $77 $-1 #
coedge $-1 $473 $321 $196 $325 forward $461 $-1 #
edge $-1 $471 28.424194560037108 $330 39.266176507372904 $324 $474 forward 7 unknown #
edge $-1 $331 -39.266176507372904 $475 -28.424194560037108 $318 $476 forward 7 unknown #
coedge $-1 $477 $198 $465 $478 forward $329 $-1 #
coedge $-1 $198 $477 $473 $479 reversed $329 $-1 #
loop $-1 $-1 $198 $460 #
vertex $-1 $479 $480 #
vertex $-1 $478 $481 #
straight-curve $-1 73.111362041077911 0 -5.3314741312005314 0 -1 0 I I #
face $-1 $-1 $345 $45 $-1 $482 reversed single #
loop $-1 $-1 $483 $200 #
plane-surface $-1 0 0 8.3314741312005314 0 0 1 1 0 0 forward_v I I I I #
coedge $-1 $484 $485 $486 $487 reversed $201 $-1 #
coedge $-1 $488 $203 $205 $343 forward $125 $-1 #
coedge $-1 $203 $488 $484 $489 forward $125 $-1 #
coedge $-1 $486 $206 $203 $340 forward $345 $-1 #
edge $-1 $347 -32.384111699342427 $490 -11.441288847538001 $339 $491 forward 7 unknown #
coedge $-1 $492 $493 $204 $342 forward $334 $-1 #
edge $-1 $494 -26.307403541059657 $346 -21.820795944982976 $341 $495 forward 7 unknown #
edge $-1 $347 1.7244671030687178e-014 $494 5.477136577643579 $205 $496 forward 7 unknown #
coedge $-1 $206 $486 $492 $497 reversed $345 $-1 #
loop $-1 $-1 $486 $333 #
vertex $-1 $497 $498 #
vertex $-1 $207 $499 #
straight-curve $-1 -54.296811972782635 -40.22831818352654 62.484280103821703 0 0 -1 I I #
coedge $-1 $349 $349 $-1 $500 reversed $210 $-1 #
edge $-1 $501 0 $501 6.2831853071796004 $211 $502 forward 7 unknown #
vertex $-1 $214 $503 #
ellipse-curve $-1 -50.108247402421753 -37.985014385488199 6.7606958711501148 0 -0.57357644374324357 0.81915203911291934 1 0 0 1 I I #
coedge $-1 $353 $353 $-1 $504 reversed $217 $-1 #
edge $-1 $505 0 $505 6.2831853071796004 $218 $506 forward 7 unknown #
vertex $-1 $221 $507 #
ellipse-curve $-1 -43.825400546880424 -37.985014385488199 6.7606958711501148 0 -0.57357644374324357 0.81915203911291934 1 0 0 1 I I #
coedge $-1 $357 $357 $-1 $508 reversed $224 $-1 #
edge $-1 $509 0 $509 6.2831853071796004 $225 $510 forward 7 unknown #
vertex $-1 $228 $511 #
ellipse-curve $-1 -37.542553691339094 -37.985014385488199 6.7606958711501148 0 -0.57357644374324357 0.81915203911291934 1 0 0 1 I I #
face $-1 $-1 $512 $49 $-1 $513 forward single #
loop $-1 $-1 $235 $229 #
plane-surface $-1 0 -40.22831818352654 0 0 1 0 0 0 1 forward_v I I I I #
coedge $-1 $514 $515 $516 $517 reversed $230 $-1 #
coedge $-1 $518 $232 $234 $371 forward $144 $-1 #
coedge $-1 $232 $518 $514 $519 forward $144 $-1 #
coedge $-1 $516 $235 $232 $368 forward $362 $-1 #
edge $-1 $374 -1.2494216524713622 $520 19.69340119933306 $367 $521 forward 7 unknown #
coedge $-1 $522 $523 $233 $370 forward $512 $-1 #
edge $-1 $524 -26.307403541059657 $373 -21.820795944982976 $369 $525 forward 7 unknown #
edge $-1 $374 1.7244671030687178e-014 $524 5.477136577643579 $234 $526 forward 7 unknown #
coedge $-1 $235 $516 $522 $527 reversed $362 $-1 #
vertex $-1 $527 $528 #
vertex $-1 $236 $529 #
straight-curve $-1 7.9725681209594867 -40.22831818352654 62.484280103821703 0 0 -1 I I #
coedge $-1 $376 $376 $-1 $530 reversed $239 $-1 #
edge $-1 $531 0 $531 6.2831853071796004 $240 $532 forward 7 unknown #
vertex $-1 $243 $533 #
ellipse-curve $-1 12.161132691320361 -37.985014385488199 6.7606958711501148 0 -0.57357644374324357 0.81915203911291934 1 0 0 1 I I #
coedge $-1 $380 $380 $-1 $534 reversed $246 $-1 #
edge $-1 $535 0 $535 6.2831853071796004 $247 $536 forward 7 unknown #
vertex $-1 $250 $537 #
ellipse-curve $-1 18.443979546861698 -37.985014385488199 6.7606958711501148 0 -0.57357644374324357 0.81915203911291934 1 0 0 1 I I #
coedge $-1 $384 $384 $-1 $538 reversed $253 $-1 #
edge $-1 $539 0 $539 6.2831853071796004 $254 $540 forward 7 unknown #
vertex $-1 $257 $541 #
ellipse-curve $-1 24.72682640240302 -37.985014385488199 6.7606958711501148 0 -0.57357644374324357 0.81915203911291934 1 0 0 1 I I #
face $-1 $-1 $542 $53 $-1 $543 forward single #
loop $-1 $-1 $264 $258 #
plane-surface $-1 0 40.22831818352654 0 0 -1 0 0 0 -1 forward_v I I I I #
coedge $-1 $544 $545 $546 $547 reversed $259 $-1 #
coedge $-1 $548 $261 $263 $398 forward $163 $-1 #
coedge $-1 $261 $548 $544 $549 forward $163 $-1 #
coedge $-1 $546 $264 $261 $395 forward $389 $-1 #
edge $-1 $401 -7.2139132147819787 $550 17.521665421534006 $394 $551 forward 7 unknown #
coedge $-1 $552 $553 $262 $397 forward $542 $-1 #
edge $-1 $554 6.2453283371329249 $400 11.132312925136134 $396 $555 forward 7 unknown #
edge $-1 $401 -80.456636367053093 $554 -74.490729728652425 $263 $556 forward 7 unknown #
coedge $-1 $264 $546 $552 $557 reversed $389 $-1 #
vertex $-1 $557 $558 #
vertex $-1 $265 $559 #
straight-curve $-1 2.0600371114059648 40.22831818352654 85.41812228867191 0 0 -1 I I #
coedge $-1 $403 $403 $-1 $560 reversed $268 $-1 #
edge $-1 $561 0 $561 6.2831853071796004 $269 $562 forward 7 unknown #
vertex $-1 $272 $563 #
ellipse-curve $-1 -15.608233343105454 37.784825889524939 6.6205223745214994 0 0.57357644374324357 0.81915203911291934 1 0 0 1 I I #
coedge $-1 $407 $407 $-1 $564 reversed $275 $-1 #
edge $-1 $565 0 $565 6.2831853071796004 $276 $566 forward 7 unknown #
vertex $-1 $279 $567 #
ellipse-curve $-1 -5.0072710703986019 37.784825889524939 6.6205223745214994 0 0.57357644374324357 0.81915203911291934 1 0 0 1 I I #
face $-1 $-1 $295 $42 $-1 $568 reversed single #
loop $-1 $-1 $427 $280 #
plane-surface $-1 0 40.22831818352654 0 0 -1 0 0 0 -1 forward_v I I I I #
coedge $-1 $569 $425 $428 $570 forward $281 $-1 #
coedge $-1 $431 $283 $284 $419 reversed $177 $-1 #
coedge $-1 $425 $569 $283 $417 reversed $281 $-1 #
edge $-1 $432 -8.3314741312005314 $571 8.3314741312005314 $416 $572 forward 7 unknown #
coedge $-1 $285 $284 $569 $573 forward $113 $-1 #
edge $-1 $423 -73.111362041077911 $571 73.111362041077911 $415 $574 forward 7 unknown #
coedge $-1 $428 $427 $285 $421 reversed $412 $-1 #
edge $-1 $575 -73.111362041077911 $422 73.111362041077911 $420 $576 forward 7 unknown #
vertex $-1 $287 $577 #
vertex $-1 $434 $578 #
straight-curve $-1 73.111362041077911 0 -8.3314741312005314 0 -1 0 I I #
coedge $-1 $414 $416 $288 $426 reversed $281 $-1 #
edge $-1 $429 -40.22831818352654 $432 40.22831818352654 $425 $579 forward 7 unknown #
coedge $-1 $420 $289 $294 $435 forward $412 $-1 #
coedge $-1 $289 $420 $414 $570 reversed $412 $-1 #
vertex $-1 $290 $580 #
straight-curve $-1 0 40.22831818352654 8.3314741312005314 -1 0 0 I I #
coedge $-1 $291 $415 $293 $434 reversed $177 $-1 #
vertex $-1 $426 $581 #
straight-curve $-1 0 -40.22831818352654 8.3314741312005314 1 0 0 I I #
edge $-1 $296 -8.3314741312005314 $423 8.3314741312005314 $293 $582 forward 7 unknown #
edge $-1 $297 -8.3314741312005314 $422 8.3314741312005314 $294 $583 forward 7 unknown #
point $-1 73.111362041077911 -40.22831818352654 8.3314741312005314 #
point $-1 73.111362041077911 40.22831818352654 8.3314741312005314 #
face $-1 $-1 $451 $43 $-1 $584 reversed single #
loop $-1 $-1 $447 $299 #
plane-surface $-1 -73.111362041077911 0 0 1 0 0 0 0 -1 forward_v I I I I #
coedge $-1 $585 $302 $444 $586 forward $185 $-1 #
coedge $-1 $302 $585 $587 $588 forward $185 $-1 #
edge $-1 $589 -40.22831818352654 $445 40.22831818352654 $302 $590 forward 7 unknown #
coedge $-1 $304 $454 $441 $586 reversed $300 $-1 #
vertex $-1 $586 $591 #
straight-curve $-1 -62.269380093742114 -40.22831818352654 -3.4157370656002657 0 0 1 I I #
coedge $-1 $592 $593 $306 $448 forward $439 $-1 #
edge $-1 $455 -40.22831818352654 $452 40.22831818352654 $447 $594 forward 7 unknown #
coedge $-1 $587 $307 $311 $457 forward $451 $-1 #
coedge $-1 $307 $587 $592 $595 reversed $451 $-1 #
loop $-1 $-1 $449 $438 #
vertex $-1 $595 $596 #
straight-curve $-1 -33.845185533705006 40.22831818352654 -5.3314741312005314 1 0 0 I I #
coedge $-1 $444 $309 $593 $597 forward $300 $-1 #
vertex $-1 $597 $598 #
straight-curve $-1 -33.845185533705006 -40.22831818352654 -5.3314741312005314 -1 0 0 I I #
edge $-1 $313 1.9157370656002657 $589 4.9157370656002657 $449 $599 forward 7 unknown #
point $-1 -62.269380093742114 -40.22831818352654 -5.3314741312005314 #
point $-1 -62.269380093742114 40.22831818352654 -5.3314741312005314 #
face $-1 $-1 $329 $44 $-1 $600 reversed single #
loop $-1 $-1 $324 $315 #
plane-surface $-1 0 40.22831818352654 0 0 -1 0 0 0 -1 forward_v I I I I #
coedge $-1 $601 $602 $319 $467 forward $316 $-1 #
coedge $-1 $603 $318 $466 $604 forward $193 $-1 #
coedge $-1 $318 $603 $327 $478 reversed $193 $-1 #
coedge $-1 $320 $319 $464 $604 reversed $121 $-1 #
edge $-1 $605 -40.22831818352654 $470 40.22831818352654 $463 $606 forward 7 unknown #
edge $-1 $471 -40.22831818352654 $475 40.22831818352654 $320 $607 forward 7 unknown #
coedge $-1 $321 $473 $601 $608 reversed $461 $-1 #
vertex $-1 $608 $609 #
vertex $-1 $325 $610 #
straight-curve $-1 62.269380093742114 40.22831818352654 -3.4157370656002657 0 0 1 I I #
coedge $-1 $469 $324 $328 $479 forward $461 $-1 #
straight-curve $-1 33.845185533705006 40.22831818352654 -5.3314741312005314 1 0 0 I I #
vertex $-1 $326 $611 #
straight-curve $-1 33.845185533705006 -40.22831818352654 -5.3314741312005314 -1 0 0 I I #
coedge $-1 $328 $327 $612 $613 reversed $329 $-1 #
edge $-1 $331 5.3314741312005314 $614 8.3314741312005314 $327 $615 forward 7 unknown #
edge $-1 $330 5.3314741312005314 $616 8.3314741312005314 $328 $617 forward 7 unknown #
point $-1 73.111362041077911 40.22831818352654 -5.3314741312005314 #
point $-1 73.111362041077911 -40.22831818352654 -5.3314741312005314 #
plane-surface $-1 0 -40.22831818352654 0 0 1 0 0 0 1 forward_v I I I I #
coedge $-1 $493 $492 $485 $618 forward $334 $-1 #
coedge $-1 $485 $336 $338 $489 reversed $201 $-1 #
coedge $-1 $336 $484 $483 $618 reversed $201 $-1 #
coedge $-1 $344 $339 $336 $487 forward $345 $-1 #
edge $-1 $490 -57.294362492722009 $619 -54.152805972621174 $486 $620 forward 7 unknown #
coedge $-1 $338 $337 $493 $621 reversed $125 $-1 #
edge $-1 $622 -5.477136577643579 $490 -1.7244671030687178e-014 $484 $623 forward 7 unknown #
vertex $-1 $340 $624 #
straight-curve $-1 -21.912700273440212 -40.22831818352654 5.1899176110996983 1 0 0 I I #
coedge $-1 $483 $341 $344 $497 forward $334 $-1 #
coedge $-1 $341 $483 $488 $621 forward $334 $-1 #
vertex $-1 $342 $625 #
straight-curve $-1 -54.296811972782635 -62.049114128509515 8.3314741312005296 0 -1 0 I I #
straight-curve $-1 -54.296811972782635 -40.228318183526554 5.1899176110996876 0 0.81915203911291934 0.57357644374324357 I I #
edge $-1 $346 -54.296811972782635 $619 -33.353989120978213 $344 $626 forward 7 unknown #
point $-1 -54.296811972782635 -40.22831818352654 8.3314741312005314 #
point $-1 -54.296811972782635 -40.22831818352654 5.1899176110996974 #
edge $-1 $627 1 $627 0 $349 $-1 forward 7 unknown #
vertex $-1 $350 $628 #
ellipse-curve $-1 -50.108247402421753 -36.070753111693527 4.0268475011048954 0 -0.57357644374324357 0.81915203911291934 1 0 0 1 I I #
point $-1 -49.108247402421753 -37.985014385488192 6.7606958711501077 #
edge $-1 $629 1 $629 0 $353 $-1 forward 7 unknown #
vertex $-1 $354 $630 #
ellipse-curve $-1 -43.825400546880424 -36.070753111693527 4.0268475011048954 0 -0.57357644374324357 0.81915203911291934 1 0 0 1 I I #
point $-1 -42.825400546880424 -37.985014385488192 6.7606958711501077 #
edge $-1 $631 1 $631 0 $357 $-1 forward 7 unknown #
vertex $-1 $358 $632 #
ellipse-curve $-1 -37.542553691339094 -36.070753111693527 4.0268475011048954 0 -0.57357644374324357 0.81915203911291934 1 0 0 1 I I #
point $-1 -36.542553691339094 -37.985014385488192 6.7606958711501077 #
loop $-1 $-1 $369 $361 #
plane-surface $-1 0 0 8.3314741312005314 0 0 1 1 0 0 forward_v I I I I #
coedge $-1 $515 $364 $366 $519 reversed $230 $-1 #
coedge $-1 $364 $514 $633 $634 reversed $230 $-1 #
coedge $-1 $372 $367 $364 $517 forward $362 $-1 #
edge $-1 $520 -57.294362492722009 $635 -54.152805972621174 $516 $636 forward 7 unknown #
coedge $-1 $366 $365 $523 $637 reversed $144 $-1 #
edge $-1 $638 -5.477136577643579 $520 -1.7244671030687178e-014 $514 $639 forward 7 unknown #
vertex $-1 $368 $640 #
straight-curve $-1 9.2219897734308489 -40.22831818352654 5.1899176110996983 1 0 0 I I #
coedge $-1 $633 $369 $372 $527 forward $512 $-1 #
coedge $-1 $369 $633 $518 $637 forward $512 $-1 #
vertex $-1 $370 $641 #
straight-curve $-1 7.9725681209594867 -62.049114128509515 8.3314741312005296 0 -1 0 I I #
straight-curve $-1 7.9725681209594867 -40.228318183526554 5.1899176110996876 0 0.81915203911291934 0.57357644374324357 I I #
edge $-1 $373 7.9725681209594867 $635 28.915390972763909 $372 $642 forward 7 unknown #
point $-1 7.9725681209594867 -40.22831818352654 8.3314741312005314 #
point $-1 7.9725681209594867 -40.22831818352654 5.1899176110996974 #
edge $-1 $643 1 $643 0 $376 $-1 forward 7 unknown #
vertex $-1 $377 $644 #
ellipse-curve $-1 12.161132691320361 -36.070753111693527 4.0268475011048954 0 -0.57357644374324357 0.81915203911291934 1 0 0 1 I I #
point $-1 13.161132691320361 -37.985014385488192 6.7606958711501077 #
edge $-1 $645 1 $645 0 $380 $-1 forward 7 unknown #
vertex $-1 $381 $646 #
ellipse-curve $-1 18.443979546861698 -36.070753111693527 4.0268475011048954 0 -0.57357644374324357 0.81915203911291934 1 0 0 1 I I #
point $-1 19.443979546861698 -37.985014385488192 6.7606958711501077 #
edge $-1 $647 1 $647 0 $384 $-1 forward 7 unknown #
vertex $-1 $385 $648 #
ellipse-curve $-1 24.72682640240302 -36.070753111693527 4.0268475011048954 0 -0.57357644374324357 0.81915203911291934 1 0 0 1 I I #
point $-1 25.72682640240302 -37.985014385488192 6.7606958711501077 #
loop $-1 $-1 $396 $388 #
plane-surface $-1 0 0 8.3314741312005314 0 0 1 1 0 0 forward_v I I I I #
coedge $-1 $545 $391 $393 $549 reversed $259 $-1 #
coedge $-1 $391 $544 $649 $650 reversed $259 $-1 #
coedge $-1 $399 $394 $391 $547 forward $389 $-1 #
edge $-1 $550 -80.508551670829434 $651 -77.086648157471373 $546 $652 forward 7 unknown #
coedge $-1 $393 $392 $553 $653 reversed $163 $-1 #
edge $-1 $654 74.490729728652425 $550 80.456636367053093 $544 $655 forward 7 unknown #
vertex $-1 $395 $656 #
straight-curve $-1 -5.1538761033760139 40.22831818352654 4.9095706178424656 -1 0 0 I I #
coedge $-1 $649 $396 $399 $557 forward $542 $-1 #
coedge $-1 $396 $649 $548 $653 forward $542 $-1 #
vertex $-1 $397 $657 #
straight-curve $-1 2.0600371114059648 29.096005258390406 8.3314741312005367 0 1 0 I I #
straight-curve $-1 2.0600371114059648 -25.677899556711665 51.057601980800101 0 -0.81915203911291934 0.57357644374324357 I I #
edge $-1 $400 -2.0600371114059648 $651 22.67554152491002 $399 $658 forward 7 unknown #
point $-1 2.0600371114059648 40.22831818352654 8.3314741312005314 #
point $-1 2.0600371114059648 40.22831818352654 4.9095706178424692 #
edge $-1 $659 1 $659 0 $403 $-1 forward 7 unknown #
vertex $-1 $404 $660 #
ellipse-curve $-1 -15.608233343105454 36.729800228315533 5.1137896083428966 0 0.57357644374324357 0.81915203911291934 1 0 0 1 I I #
point $-1 -14.608233343105454 37.784825889524953 6.6205223745215145 #
edge $-1 $661 1 $661 0 $407 $-1 forward 7 unknown #
vertex $-1 $408 $662 #
ellipse-curve $-1 -5.0072710703986019 36.729800228315533 5.1137896083428966 0 0.57357644374324357 0.81915203911291934 1 0 0 1 I I #
point $-1 -4.0072710703986019 37.784825889524953 6.6205223745215145 #
plane-surface $-1 73.111362041077911 0 0 -1 0 0 0 0 1 forward_v I I I I #
coedge $-1 $416 $414 $418 $573 reversed $281 $-1 #
edge $-1 $429 -8.3314741312005314 $575 8.3314741312005314 $428 $663 forward 7 unknown #
vertex $-1 $573 $664 #
straight-curve $-1 -73.111362041077911 -40.22831818352654 0 0 0 -1 I I #
edge $-1 $571 -40.22831818352654 $575 40.22831818352654 $569 $665 forward 7 unknown #
straight-curve $-1 0 -40.22831818352654 -8.3314741312005314 -1 0 0 I I #
vertex $-1 $421 $666 #
straight-curve $-1 0 40.22831818352654 -8.3314741312005314 1 0 0 I I #
point $-1 73.111362041077911 40.22831818352654 -8.3314741312005314 #
point $-1 73.111362041077911 -40.22831818352654 -8.3314741312005314 #
straight-curve $-1 -73.111362041077911 0 8.3314741312005314 0 -1 0 I I #
point $-1 -73.111362041077911 40.22831818352654 8.3314741312005314 #
point $-1 -73.111362041077911 -40.22831818352654 8.3314741312005314 #
straight-curve $-1 73.111362041077911 -40.22831818352654 0 0 0 -1 I I #
straight-curve $-1 73.111362041077911 40.22831818352654 0 0 0 -1 I I #
plane-surface $-1 0 40.22831818352654 0 0 -1 0 0 0 -1 forward_v I I I I #
coedge $-1 $442 $441 $667 $668 forward $185 $-1 #
edge $-1 $445 62.269380093742114 $669 73.111362041077911 $444 $670 forward 7 unknown #
coedge $-1 $450 $449 $442 $588 reversed $451 $-1 #
edge $-1 $671 -73.111362041077911 $589 -62.269380093742114 $587 $672 forward 7 unknown #
vertex $-1 $457 $673 #
straight-curve $-1 -62.269380093742114 0 -8.3314741312005314 0 -1 0 I I #
point $-1 -62.269380093742114 -40.22831818352654 -8.3314741312005314 #
coedge $-1 $667 $447 $450 $595 forward $439 $-1 #
coedge $-1 $447 $667 $454 $597 reversed $439 $-1 #
straight-curve $-1 -73.111362041077911 0 -5.3314741312005314 0 1 0 I I #
edge $-1 $452 5.3314741312005314 $671 8.3314741312005314 $450 $674 forward 7 unknown #
point $-1 -73.111362041077911 40.22831818352654 -5.3314741312005314 #
edge $-1 $455 5.3314741312005314 $669 8.3314741312005314 $593 $675 forward 7 unknown #
point $-1 -73.111362041077911 -40.22831818352654 -5.3314741312005314 #
straight-curve $-1 -62.269380093742114 40.22831818352654 -3.4157370656002657 0 0 -1 I I #
plane-surface $-1 73.111362041077911 0 0 -1 0 0 0 0 1 forward_v I I I I #
coedge $-1 $612 $463 $469 $608 forward $316 $-1 #
coedge $-1 $463 $612 $603 $676 forward $316 $-1 #
coedge $-1 $465 $464 $602 $676 reversed $193 $-1 #
edge $-1 $475 1.9157370656002657 $605 4.9157370656002657 $464 $677 forward 7 unknown #
vertex $-1 $467 $678 #
straight-curve $-1 62.269380093742114 0 -8.3314741312005314 0 1 0 I I #
straight-curve $-1 62.269380093742114 0 -5.3314741312005314 0 -1 0 I I #
edge $-1 $470 62.269380093742114 $616 73.111362041077911 $469 $679 forward 7 unknown #
point $-1 62.269380093742114 40.22831818352654 -8.3314741312005314 #
point $-1 62.269380093742114 40.22831818352654 -5.3314741312005314 #
point $-1 62.269380093742114 -40.22831818352654 -5.3314741312005314 #
coedge $-1 $602 $601 $477 $613 forward $316 $-1 #
edge $-1 $616 -40.22831818352654 $614 40.22831818352654 $477 $680 forward 7 unknown #
vertex $-1 $478 $681 #
straight-curve $-1 73.111362041077911 -40.22831818352654 0 0 0 -1 I I #
vertex $-1 $613 $682 #
straight-curve $-1 73.111362041077911 40.22831818352654 0 0 0 -1 I I #
edge $-1 $619 21.820795944982976 $622 26.307403541059657 $483 $683 forward 7 unknown #
vertex $-1 $618 $684 #
straight-curve $-1 -33.353989120978213 -40.22831818352654 62.484280103821703 0 0 1 I I #
edge $-1 $622 11.441288847538001 $494 32.384111699342427 $493 $685 forward 7 unknown #
vertex $-1 $621 $686 #
straight-curve $-1 -33.353989120978213 -40.228318183526554 5.1899176110996876 0 -0.81915203911291934 -0.57357644374324357 I I #
point $-1 -33.353989120978213 -40.22831818352654 5.1899176110996974 #
point $-1 -54.296811972782635 -35.741710587449859 8.3314741312005314 #
straight-curve $-1 0 -40.22831818352654 8.3314741312005314 1 0 0 I I #
vertex $-1 $500 $687 #
point $-1 -49.108247402421753 -36.070753111693527 4.0268475011048954 #
vertex $-1 $504 $688 #
point $-1 -42.825400546880424 -36.070753111693527 4.0268475011048954 #
vertex $-1 $508 $689 #
point $-1 -36.542553691339094 -36.070753111693527 4.0268475011048954 #
coedge $-1 $523 $522 $515 $634 forward $512 $-1 #
edge $-1 $635 21.820795944982976 $638 26.307403541059657 $633 $690 forward 7 unknown #
vertex $-1 $634 $691 #
straight-curve $-1 28.915390972763909 -40.22831818352654 62.484280103821703 0 0 1 I I #
edge $-1 $638 -19.69340119933306 $524 1.2494216524713622 $523 $692 forward 7 unknown #
vertex $-1 $637 $693 #
straight-curve $-1 28.915390972763909 -40.228318183526554 5.1899176110996876 0 -0.81915203911291934 -0.57357644374324357 I I #
point $-1 28.915390972763909 -40.22831818352654 5.1899176110996974 #
point $-1 7.9725681209594867 -35.741710587449859 8.3314741312005314 #
straight-curve $-1 0 -40.22831818352654 8.3314741312005314 1 0 0 I I #
vertex $-1 $530 $694 #
point $-1 13.161132691320361 -36.070753111693527 4.0268475011048954 #
vertex $-1 $534 $695 #
point $-1 19.443979546861698 -36.070753111693527 4.0268475011048954 #
vertex $-1 $538 $696 #
point $-1 25.72682640240302 -36.070753111693527 4.0268475011048954 #
coedge $-1 $553 $552 $545 $650 forward $542 $-1 #
edge $-1 $651 -11.132312925136134 $654 -6.2453283371329249 $649 $697 forward 7 unknown #
vertex $-1 $650 $698 #
straight-curve $-1 -22.67554152491002 40.22831818352654 85.41812228867191 0 0 1 I I #
edge $-1 $654 -17.521665421534006 $554 7.2139132147819787 $553 $699 forward 7 unknown #
vertex $-1 $653 $700 #
straight-curve $-1 -22.67554152491002 -25.677899556711665 51.057601980800101 0 0.81915203911291934 -0.57357644374324357 I I #
point $-1 -22.67554152491002 40.22831818352654 4.9095706178424692 #
point $-1 2.0600371114059648 35.341333595523331 8.3314741312005296 #
straight-curve $-1 0 40.22831818352654 8.3314741312005314 -1 0 0 I I #
vertex $-1 $560 $701 #
point $-1 -14.608233343105454 36.729800228315533 5.1137896083428966 #
vertex $-1 $564 $702 #
point $-1 -4.0072710703986019 36.729800228315533 5.1137896083428966 #
straight-curve $-1 -73.111362041077911 40.22831818352654 0 0 0 -1 I I #
point $-1 -73.111362041077911 -40.22831818352654 -8.3314741312005314 #
straight-curve $-1 -73.111362041077911 0 -8.3314741312005314 0 1 0 I I #
point $-1 -73.111362041077911 40.22831818352654 -8.3314741312005314 #
coedge $-1 $593 $592 $585 $668 reversed $439 $-1 #
edge $-1 $669 -40.22831818352654 $671 40.22831818352654 $667 $703 forward 7 unknown #
vertex $-1 $668 $704 #
straight-curve $-1 0 -40.22831818352654 -8.3314741312005314 -1 0 0 I I #
vertex $-1 $588 $705 #
straight-curve $-1 0 40.22831818352654 -8.3314741312005314 1 0 0 I I #
point $-1 -62.269380093742114 40.22831818352654 -8.3314741312005314 #
straight-curve $-1 -73.111362041077911 40.22831818352654 0 0 0 -1 I I #
straight-curve $-1 -73.111362041077911 -40.22831818352654 0 0 0 -1 I I #
edge $-1 $614 -73.111362041077911 $605 -62.269380093742114 $603 $706 forward 7 unknown #
straight-curve $-1 62.269380093742114 -40.22831818352654 -3.4157370656002657 0 0 -1 I I #
point $-1 62.269380093742114 -40.22831818352654 -8.3314741312005314 #
straight-curve $-1 0 40.22831818352654 -8.3314741312005314 1 0 0 I I #
straight-curve $-1 73.111362041077911 0 -8.3314741312005314 0 -1 0 I I #
point $-1 73.111362041077911 -40.22831818352654 -8.3314741312005314 #
point $-1 73.111362041077911 40.22831818352654 -8.3314741312005314 #
straight-curve $-1 -33.353989120978213 -62.049114128509515 8.3314741312005296 0 1 0 I I #
point $-1 -33.353989120978213 -40.22831818352654 8.3314741312005314 #
straight-curve $-1 -21.912700273440212 -35.741710587449852 8.3314741312005332 -1 0 0 I I #
point $-1 -33.353989120978213 -35.741710587449859 8.3314741312005314 #
point $-1 -50.108247402421753 -35.497176667950278 3.207695461991976 #
point $-1 -43.825400546880424 -35.497176667950278 3.207695461991976 #
point $-1 -37.542553691339094 -35.497176667950278 3.207695461991976 #
straight-curve $-1 28.915390972763909 -62.049114128509515 8.3314741312005296 0 1 0 I I #
point $-1 28.915390972763909 -40.22831818352654 8.3314741312005314 #
straight-curve $-1 9.2219897734308489 -35.741710587449852 8.3314741312005332 -1 0 0 I I #
point $-1 28.915390972763909 -35.741710587449859 8.3314741312005314 #
point $-1 12.161132691320361 -35.497176667950278 3.207695461991976 #
point $-1 18.443979546861698 -35.497176667950278 3.207695461991976 #
point $-1 24.72682640240302 -35.497176667950278 3.207695461991976 #
straight-curve $-1 -22.67554152491002 29.096005258390406 8.3314741312005367 0 -1 0 I I #
point $-1 -22.67554152491002 40.22831818352654 8.3314741312005314 #
straight-curve $-1 -5.1538761033760139 35.341333595523324 8.3314741312005332 1 0 0 I I #
point $-1 -22.67554152491002 35.341333595523331 8.3314741312005296 #
point $-1 -15.608233343105454 36.156223784572283 4.294637569229975 #
point $-1 -5.0072710703986019 36.156223784572283 4.294637569229975 #
straight-curve $-1 -73.111362041077911 0 -8.3314741312005314 0 1 0 I I #
point $-1 -73.111362041077911 -40.22831818352654 -8.3314741312005314 #
point $-1 -73.111362041077911 40.22831818352654 -8.3314741312005314 #
straight-curve $-1 0 -40.22831818352654 -8.3314741312005314 -1 0 0 I I #
End-of-ACIS-data 