500 0 6 0           
7 Unknown 11 ACIS 5.0 NT 24 Thu Mar 25 19:57:30 1999 
-1 9.9999999999999995e-007 1e-010 
body $-1 $6 $-1 $7 #
body $-1 $8 $-1 $9 #
body $-1 $10 $-1 $11 #
body $-1 $12 $-1 $13 #
body $-1 $14 $-1 $15 #
body $-1 $16 $-1 $17 #
lump $-1 $-1 $18 $0 #
transform $-1 1 0 0 0 1 0 0 0 1 73.014923551133762 47.895000009635112 21.321730846295004 1 rotate no_reflect no_shear #
lump $-1 $-1 $19 $1 #
transform $-1 1 0 0 0 1 0 0 0 1 73.014923551133762 47.895000009635112 21.321730846295004 1 rotate no_reflect no_shear #
lump $-1 $-1 $20 $2 #
transform $-1 1 0 0 0 1 0 0 0 1 73.014923551133762 47.895000009635112 21.321730846295004 1 rotate no_reflect no_shear #
lump $-1 $-1 $21 $3 #
transform $-1 1 0 0 0 1 0 0 0 1 73.014923551133762 47.895000009635112 21.321730846295004 1 rotate no_reflect no_shear #
lump $-1 $-1 $22 $4 #
transform $-1 1 0 0 0 1 0 0 0 1 73.014923551133762 47.895000009635112 21.321730846295004 1 rotate no_reflect no_shear #
lump $-1 $-1 $23 $5 #
transform $-1 1 0 0 0 1 0 0 0 1 73.014923551133762 47.895000009635112 21.321730846295004 1 rotate no_reflect no_shear #
shell $-1 $-1 $-1 $24 $-1 $6 #
shell $-1 $-1 $-1 $25 $-1 $8 #
shell $-1 $-1 $-1 $26 $-1 $10 #
shell $-1 $-1 $-1 $27 $-1 $12 #
shell $-1 $-1 $-1 $28 $-1 $14 #
shell $-1 $-1 $-1 $29 $-1 $16 #
face $-1 $30 $31 $18 $-1 $32 forward single #
face $-1 $33 $34 $19 $-1 $35 reversed single #
face $-1 $36 $37 $20 $-1 $38 reversed single #
face $-1 $39 $40 $21 $-1 $41 reversed single #
face $-1 $42 $43 $22 $-1 $44 forward single #
face $-1 $45 $46 $23 $-1 $47 forward single #
face $-1 $48 $49 $18 $-1 $50 reversed single #
loop $-1 $-1 $51 $24 #
plane-surface $-1 0 0 21.321730846295004 0 0 1 1 0 0 forward_v I I I I #
face $-1 $52 $53 $19 $-1 $54 reversed single #
loop $-1 $-1 $55 $25 #
plane-surface $-1 -69.535135348163337 -25.424861622173921 0 0 -1 0 0 0 -1 forward_v I I I I #
face $-1 $56 $57 $20 $-1 $58 reversed single #
loop $-1 $-1 $59 $26 #
plane-surface $-1 -69.535135348163337 25.424861622173921 0 0 1 0 0 0 1 forward_v I I I I #
face $-1 $60 $61 $21 $-1 $62 reversed single #
loop $-1 $-1 $63 $27 #
plane-surface $-1 94.60187169622904 -11.218950100661084 213.52396311919776 0 -1 0 -0.77714596973225614 0 -0.62932038083071107 forward_v I I I I #
face $-1 $64 $65 $22 $-1 $66 forward single #
loop $-1 $67 $68 $28 #
cone-surface $-1 65.555230622968182 -21.36602975888454 13.011724337628593 -0.77714596973225614 0 -0.62932038083071107 0.9439805712460666 0 -1.1657189545983841 1 I I 0 1 1.5 forward I I I I #
face $-1 $69 $70 $23 $-1 $71 forward single #
loop $-1 $72 $73 $29 #
cone-surface $-1 65.555230622968182 -15.277781963950467 13.011724337628593 -0.77714596973225614 0 -0.62932038083071107 0.9439805712460666 0 -1.1657189545983841 1 I I 0 1 1.5 forward I I I I #
face $-1 $74 $75 $18 $-1 $76 reversed single #
loop $-1 $-1 $77 $30 #
plane-surface $-1 0 0 -21.321730846295004 0 0 1 1 0 0 forward_v I I I I #
coedge $-1 $78 $79 $80 $81 forward $31 $-1 #
face $-1 $82 $83 $19 $-1 $84 forward single #
loop $-1 $-1 $85 $33 #
plane-surface $-1 -66.055347145192911 -36.659930815904517 0 -1 0 0 0 0 1 forward_v I I I I #
coedge $-1 $86 $87 $88 $89 forward $34 $-1 #
face $-1 $90 $91 $20 $-1 $92 reversed single #
loop $-1 $-1 $93 $36 #
plane-surface $-1 -66.055347145192911 36.659930815904517 0 -1 0 0 0 0 1 forward_v I I I I #
coedge $-1 $94 $95 $96 $97 reversed $37 $-1 #
face $-1 $98 $99 $21 $-1 $100 reversed single #
loop $-1 $-1 $101 $39 #
plane-surface $-1 -18.884635439915755 -18.321905861417505 121.62440412814826 0.77714596973225614 0 0.62932038083071107 0.62932038083071107 0 -0.77714596973225614 forward_v I I I I #
coedge $-1 $102 $103 $104 $105 reversed $40 $-1 #
face $-1 $-1 $106 $22 $-1 $107 forward single #
loop $-1 $108 $109 $42 #
cone-surface $-1 62.850707149732187 -21.36602975888454 10.821644470484905 -0.77714596973225614 0 -0.62932038083071107 0.4719902856230333 0 -0.58285947729919207 1 I I -0.70710678118654757 0.70710678118654757 0.75 forward I I I I #
loop $-1 $-1 $110 $28 #
coedge $-1 $68 $68 $111 $112 reversed $43 $-1 #
face $-1 $-1 $113 $23 $-1 $114 forward single #
loop $-1 $115 $116 $45 #
cone-surface $-1 62.850707149732187 -15.277781963950467 10.821644470484905 -0.77714596973225614 0 -0.62932038083071107 0.4719902856230333 0 -0.58285947729919207 1 I I -0.70710678118654757 0.70710678118654757 0.75 forward I I I I #
loop $-1 $-1 $117 $29 #
coedge $-1 $73 $73 $118 $119 reversed $46 $-1 #
face $-1 $120 $121 $18 $-1 $122 reversed single #
loop $-1 $-1 $123 $48 #
plane-surface $-1 0 -47.895000009635112 0 0 1 0 0 0 1 forward_v I I I I #
coedge $-1 $124 $125 $126 $127 forward $49 $-1 #
coedge $-1 $128 $51 $129 $130 forward $31 $-1 #
coedge $-1 $51 $128 $131 $132 forward $31 $-1 #
coedge $-1 $133 $134 $51 $81 reversed $135 $-1 #
edge $-1 $136 -47.895000009635112 $137 47.895000009635112 $80 $138 forward 7 unknown #
face $-1 $139 $140 $19 $-1 $141 reversed single #
loop $-1 $-1 $142 $52 #
plane-surface $-1 0 0 21.321730846295004 0 0 1 1 0 0 forward_v I I I I #
coedge $-1 $143 $144 $145 $146 reversed $53 $-1 #
coedge $-1 $147 $55 $148 $149 reversed $34 $-1 #
coedge $-1 $55 $147 $150 $151 reversed $34 $-1 #
coedge $-1 $144 $143 $55 $89 reversed $53 $-1 #
edge $-1 $152 -21.321730846295004 $153 21.321730846295004 $88 $154 forward 7 unknown #
face $-1 $155 $156 $20 $-1 $157 reversed single #
loop $-1 $-1 $158 $56 #
plane-surface $-1 0 0 -21.321730846295004 0 0 1 1 0 0 forward_v I I I I #
coedge $-1 $159 $160 $161 $162 forward $57 $-1 #
coedge $-1 $161 $59 $163 $164 reversed $37 $-1 #
coedge $-1 $59 $161 $165 $166 reversed $37 $-1 #
coedge $-1 $167 $168 $59 $97 forward $156 $-1 #
edge $-1 $169 -21.321730846295004 $170 21.321730846295004 $96 $171 forward 7 unknown #
face $-1 $172 $173 $21 $-1 $174 reversed single #
loop $-1 $-1 $175 $60 #
plane-surface $-1 94.60187169622904 -25.424861622173928 213.52396311919776 0 1 0 0.77714596973225614 0 0.62932038083071107 forward_v I I I I #
coedge $-1 $176 $177 $178 $179 reversed $61 $-1 #
coedge $-1 $103 $63 $180 $181 reversed $40 $-1 #
coedge $-1 $63 $102 $176 $182 reversed $40 $-1 #
coedge $-1 $178 $183 $63 $105 forward $184 $-1 #
edge $-1 $185 -25.713987703019242 $186 -15.037929838561652 $104 $187 forward 7 unknown #
loop $-1 $-1 $111 $64 #
plane-surface $-1 -18.884635439915755 -18.321905861417505 121.62440412814826 0.77714596973225614 0 0.62932038083071107 0.62932038083071107 0 -0.77714596973225614 forward_v I I I I #
loop $-1 $-1 $188 $42 #
coedge $-1 $109 $109 $110 $189 reversed $65 $-1 #
coedge $-1 $110 $110 $109 $189 forward $67 $-1 #
coedge $-1 $111 $111 $68 $112 forward $106 $-1 #
edge $-1 $190 0 $190 6.2831853071796004 $111 $191 forward 7 unknown #
loop $-1 $-1 $118 $69 #
plane-surface $-1 -18.884635439915755 -18.321905861417505 121.62440412814826 0.77714596973225614 0 0.62932038083071107 0.62932038083071107 0 -0.77714596973225614 forward_v I I I I #
loop $-1 $-1 $192 $45 #
coedge $-1 $116 $116 $117 $193 reversed $70 $-1 #
coedge $-1 $117 $117 $116 $193 forward $72 $-1 #
coedge $-1 $118 $118 $73 $119 forward $113 $-1 #
edge $-1 $194 0 $194 6.2831853071796004 $118 $195 forward 7 unknown #
face $-1 $196 $197 $18 $-1 $198 reversed single #
loop $-1 $-1 $199 $74 #
plane-surface $-1 -73.014923551133762 0 0 1 0 0 0 0 -1 forward_v I I I I #
coedge $-1 $200 $131 $201 $202 forward $75 $-1 #
coedge $-1 $203 $77 $200 $204 forward $49 $-1 #
coedge $-1 $77 $203 $205 $206 forward $49 $-1 #
coedge $-1 $134 $133 $77 $127 reversed $135 $-1 #
edge $-1 $207 -47.895000009635112 $208 47.895000009635112 $126 $209 forward 7 unknown #
coedge $-1 $79 $78 $210 $211 forward $31 $-1 #
coedge $-1 $212 $213 $78 $130 reversed $197 $-1 #
edge $-1 $137 -73.014923551133762 $214 73.014923551133762 $129 $215 forward 7 unknown #
coedge $-1 $123 $216 $79 $132 reversed $75 $-1 #
edge $-1 $217 -73.014923551133762 $136 73.014923551133762 $131 $218 forward 7 unknown #
coedge $-1 $126 $80 $216 $219 forward $135 $-1 #
coedge $-1 $80 $126 $212 $220 reversed $135 $-1 #
loop $-1 $-1 $133 $196 #
vertex $-1 $81 $221 #
vertex $-1 $81 $222 #
straight-curve $-1 73.014923551133762 0 21.321730846295004 0 1 0 I I #
face $-1 $223 $224 $19 $-1 $225 reversed single #
loop $-1 $-1 $226 $82 #
plane-surface $-1 -73.014923551133762 0 0 1 0 0 0 0 -1 forward_v I I I I #
coedge $-1 $150 $227 $144 $228 forward $83 $-1 #
coedge $-1 $88 $85 $229 $230 reversed $53 $-1 #
coedge $-1 $85 $88 $142 $228 reversed $53 $-1 #
coedge $-1 $231 $232 $85 $146 forward $233 $-1 #
edge $-1 $234 -21.321730846295004 $235 21.321730846295004 $145 $236 forward 7 unknown #
coedge $-1 $87 $86 $226 $237 reversed $34 $-1 #
coedge $-1 $229 $238 $86 $149 forward $224 $-1 #
edge $-1 $239 -38.247355877052094 $153 -31.287779471111243 $148 $240 forward 7 unknown #
coedge $-1 $241 $142 $87 $151 forward $83 $-1 #
edge $-1 $152 31.287779471111243 $242 38.247355877052094 $150 $243 forward 7 unknown #
vertex $-1 $151 $244 #
vertex $-1 $149 $245 #
straight-curve $-1 -66.055347145192911 -25.424861622173921 0 0 0 -1 I I #
face $-1 $246 $247 $20 $-1 $248 forward single #
loop $-1 $-1 $96 $90 #
plane-surface $-1 -73.014923551133762 0 0 1 0 0 0 0 -1 forward_v I I I I #
coedge $-1 $163 $249 $159 $250 forward $91 $-1 #
coedge $-1 $251 $93 $158 $250 reversed $57 $-1 #
coedge $-1 $93 $251 $252 $253 reversed $57 $-1 #
coedge $-1 $95 $94 $93 $162 reversed $37 $-1 #
edge $-1 $254 -21.321730846295004 $255 21.321730846295004 $93 $256 forward 7 unknown #
coedge $-1 $257 $158 $94 $164 forward $91 $-1 #
edge $-1 $255 31.287779471111243 $169 38.247355877052094 $163 $258 forward 7 unknown #
coedge $-1 $252 $259 $95 $166 forward $247 $-1 #
edge $-1 $170 -38.247355877052094 $254 -31.287779471111243 $165 $260 forward 7 unknown #
coedge $-1 $261 $96 $259 $262 reversed $156 $-1 #
coedge $-1 $96 $261 $257 $263 reversed $156 $-1 #
vertex $-1 $263 $264 #
vertex $-1 $97 $265 #
straight-curve $-1 -73.014923551133762 25.424861622173921 0 0 0 1 I I #
face $-1 $-1 $184 $21 $-1 $266 forward single #
loop $-1 $-1 $267 $98 #
plane-surface $-1 73.014923551133762 0 0 -1 0 0 0 0 1 forward_v I I I I #
coedge $-1 $268 $269 $270 $271 reversed $99 $-1 #
coedge $-1 $272 $101 $103 $182 forward $61 $-1 #
coedge $-1 $101 $272 $268 $273 forward $61 $-1 #
coedge $-1 $270 $104 $101 $179 forward $184 $-1 #
edge $-1 $186 2.0579971699523316 $274 16.263908691465176 $178 $275 forward 7 unknown #
coedge $-1 $276 $277 $102 $181 forward $173 $-1 #
edge $-1 $278 -98.624084567595432 $185 -85.440250713303868 $180 $279 forward 7 unknown #
edge $-1 $186 129.06542295575403 $278 146.02984710226755 $103 $280 forward 7 unknown #
coedge $-1 $104 $270 $276 $281 forward $184 $-1 #
loop $-1 $-1 $270 $172 #
vertex $-1 $181 $282 #
vertex $-1 $105 $283 #
straight-curve $-1 47.30093584811452 -11.218950100661084 21.321730846295011 -1 0 0 I I #
coedge $-1 $188 $188 $-1 $284 reversed $108 $-1 #
edge $-1 $285 0 $285 6.2831853071796004 $109 $286 forward 7 unknown #
vertex $-1 $112 $287 #
ellipse-curve $-1 67.676894618904967 -21.36602975888454 14.72981391914923 0.77714596973225614 0 0.62932038083071107 0.9439805712460666 0 -1.1657189545983841 1 I I #
coedge $-1 $192 $192 $-1 $288 reversed $115 $-1 #
edge $-1 $289 0 $289 6.2831853071796004 $116 $290 forward 7 unknown #
vertex $-1 $119 $291 #
ellipse-curve $-1 67.676894618904967 -15.277781963950467 14.72981391914923 0.77714596973225614 0 0.62932038083071107 0.9439805712460666 0 -1.1657189545983841 1 I I #
face $-1 $-1 $135 $18 $-1 $292 reversed single #
loop $-1 $-1 $212 $120 #
plane-surface $-1 0 47.895000009635112 0 0 -1 0 0 0 -1 forward_v I I I I #
coedge $-1 $293 $210 $213 $294 forward $121 $-1 #
coedge $-1 $216 $123 $124 $204 reversed $75 $-1 #
coedge $-1 $210 $293 $123 $202 reversed $121 $-1 #
edge $-1 $217 -21.321730846295004 $295 21.321730846295004 $201 $296 forward 7 unknown #
coedge $-1 $125 $124 $293 $297 forward $49 $-1 #
edge $-1 $208 -73.014923551133762 $295 73.014923551133762 $200 $298 forward 7 unknown #
coedge $-1 $213 $212 $125 $206 reversed $197 $-1 #
edge $-1 $299 -73.014923551133762 $207 73.014923551133762 $205 $300 forward 7 unknown #
vertex $-1 $127 $301 #
vertex $-1 $219 $302 #
straight-curve $-1 73.014923551133762 0 -21.321730846295004 0 -1 0 I I #
coedge $-1 $199 $201 $128 $211 reversed $121 $-1 #
edge $-1 $214 -47.895000009635112 $217 47.895000009635112 $210 $303 forward 7 unknown #
coedge $-1 $205 $129 $134 $220 forward $197 $-1 #
coedge $-1 $129 $205 $199 $294 reversed $197 $-1 #
vertex $-1 $130 $304 #
straight-curve $-1 0 47.895000009635112 21.321730846295004 -1 0 0 I I #
coedge $-1 $131 $200 $133 $219 reversed $75 $-1 #
vertex $-1 $211 $305 #
straight-curve $-1 0 -47.895000009635112 21.321730846295004 1 0 0 I I #
edge $-1 $136 -21.321730846295004 $208 21.321730846295004 $133 $306 forward 7 unknown #
edge $-1 $137 -21.321730846295004 $207 21.321730846295004 $134 $307 forward 7 unknown #
point $-1 73.014923551133762 -47.895000009635112 21.321730846295004 #
point $-1 73.014923551133762 47.895000009635112 21.321730846295004 #
face $-1 $-1 $233 $19 $-1 $308 reversed single #
loop $-1 $-1 $229 $139 #
plane-surface $-1 0 0 -21.321730846295004 0 0 1 1 0 0 forward_v I I I I #
coedge $-1 $309 $310 $147 $237 forward $140 $-1 #
coedge $-1 $142 $241 $231 $311 forward $83 $-1 #
edge $-1 $235 -29.565034601682854 $152 -7.0948962142216629 $142 $312 forward 7 unknown #
coedge $-1 $313 $148 $143 $230 forward $224 $-1 #
edge $-1 $153 7.0948962142216629 $234 29.565034601682854 $229 $314 forward 7 unknown #
coedge $-1 $315 $145 $227 $311 reversed $233 $-1 #
coedge $-1 $145 $315 $313 $316 reversed $233 $-1 #
loop $-1 $-1 $145 $223 #
vertex $-1 $316 $317 #
vertex $-1 $146 $318 #
straight-curve $-1 -66.055347145192911 -47.895000009635112 0 0 0 1 I I #
edge $-1 $242 -21.321730846295004 $239 21.321730846295004 $226 $319 forward 7 unknown #
coedge $-1 $148 $313 $309 $320 forward $224 $-1 #
vertex $-1 $149 $321 #
straight-curve $-1 -34.767567674081668 -25.424861622173921 -21.321730846295004 1 0 0 I I #
coedge $-1 $227 $150 $310 $322 forward $83 $-1 #
vertex $-1 $322 $323 #
straight-curve $-1 -34.767567674081668 -25.424861622173921 21.321730846295004 -1 0 0 I I #
point $-1 -66.055347145192911 -25.424861622173921 21.321730846295004 #
point $-1 -66.055347145192911 -25.424861622173921 -21.321730846295004 #
face $-1 $-1 $324 $20 $-1 $325 reversed single #
loop $-1 $-1 $252 $155 #
plane-surface $-1 0 0 21.321730846295004 0 0 1 1 0 0 forward_v I I I I #
coedge $-1 $158 $257 $326 $327 forward $91 $-1 #
edge $-1 $328 -29.565034601682854 $255 -7.0948962142216629 $158 $329 forward 7 unknown #
coedge $-1 $160 $159 $330 $331 reversed $57 $-1 #
coedge $-1 $332 $165 $160 $253 forward $247 $-1 #
edge $-1 $254 7.0948962142216629 $333 29.565034601682854 $252 $334 forward 7 unknown #
vertex $-1 $166 $335 #
vertex $-1 $164 $336 #
straight-curve $-1 -66.055347145192911 25.424861622173921 0 0 0 -1 I I #
coedge $-1 $249 $163 $168 $263 forward $91 $-1 #
straight-curve $-1 -34.767567674081668 25.424861622173921 -21.321730846295004 -1 0 0 I I #
coedge $-1 $165 $332 $167 $262 forward $247 $-1 #
straight-curve $-1 -34.767567674081668 25.424861622173921 21.321730846295004 1 0 0 I I #
coedge $-1 $168 $167 $337 $338 forward $156 $-1 #
edge $-1 $339 -47.895000009635112 $170 -25.424861622173921 $167 $340 forward 7 unknown #
edge $-1 $169 25.424861622173921 $341 47.895000009635112 $168 $342 forward 7 unknown #
point $-1 -73.014923551133762 25.424861622173921 -21.321730846295004 #
point $-1 -73.014923551133762 25.424861622173921 21.321730846295004 #
plane-surface $-1 0 0 21.321730846295004 0 0 1 1 0 0 forward_v I I I I #
coedge $-1 $277 $276 $269 $343 forward $173 $-1 #
coedge $-1 $269 $175 $177 $273 reversed $99 $-1 #
coedge $-1 $175 $268 $267 $343 reversed $99 $-1 #
coedge $-1 $183 $178 $175 $271 forward $184 $-1 #
edge $-1 $274 15.037929838561652 $344 25.713987703019242 $270 $345 forward 7 unknown #
coedge $-1 $177 $176 $277 $346 reversed $61 $-1 #
edge $-1 $347 -146.02984710226755 $274 -129.06542295575403 $268 $348 forward 7 unknown #
vertex $-1 $179 $349 #
straight-curve $-1 62.338865686676158 -9.1609529307087527 21.321730846295011 0 -1 0 I I #
coedge $-1 $267 $180 $183 $281 reversed $173 $-1 #
coedge $-1 $180 $267 $272 $346 forward $173 $-1 #
vertex $-1 $181 $350 #
straight-curve $-1 73.014923551133762 -11.218950100661084 106.76198155959888 0 0 1 I I #
straight-curve $-1 -18.884635439915755 -11.218950100661084 121.62440412814826 0.62932038083071107 0 -0.77714596973225614 I I #
edge $-1 $344 -25.424861622173928 $185 -11.218950100661084 $276 $351 forward 7 unknown #
point $-1 73.014923551133762 -11.218950100661084 21.321730846295004 #
point $-1 62.338865686676172 -11.218950100661084 21.321730846294997 #
edge $-1 $352 1 $352 0 $188 $-1 forward 7 unknown #
vertex $-1 $189 $353 #
ellipse-curve $-1 63.433566627031382 -21.36602975888454 11.293634756107938 0.77714596973225614 0 0.62932038083071107 0.9439805712460666 0 -1.1657189545983841 1 I I #
point $-1 68.620875190151054 -21.36602975888454 13.564094964550865 #
edge $-1 $354 1 $354 0 $192 $-1 forward 7 unknown #
vertex $-1 $193 $355 #
ellipse-curve $-1 63.433566627031382 -15.277781963950467 11.293634756107938 0.77714596973225614 0 0.62932038083071107 0.9439805712460666 0 -1.1657189545983841 1 I I #
point $-1 68.620875190151054 -15.277781963950467 13.564094964550865 #
plane-surface $-1 73.014923551133762 0 0 -1 0 0 0 0 1 forward_v I I I I #
coedge $-1 $201 $199 $203 $297 reversed $121 $-1 #
edge $-1 $214 -21.321730846295004 $299 21.321730846295004 $213 $356 forward 7 unknown #
vertex $-1 $297 $357 #
straight-curve $-1 -73.014923551133762 -47.895000009635112 0 0 0 -1 I I #
edge $-1 $295 -47.895000009635112 $299 47.895000009635112 $293 $358 forward 7 unknown #
straight-curve $-1 0 -47.895000009635112 -21.321730846295004 -1 0 0 I I #
vertex $-1 $206 $359 #
straight-curve $-1 0 47.895000009635112 -21.321730846295004 1 0 0 I I #
point $-1 73.014923551133762 47.895000009635112 -21.321730846295004 #
point $-1 73.014923551133762 -47.895000009635112 -21.321730846295004 #
straight-curve $-1 -73.014923551133762 0 21.321730846295004 0 -1 0 I I #
point $-1 -73.014923551133762 47.895000009635112 21.321730846295004 #
point $-1 -73.014923551133762 -47.895000009635112 21.321730846295004 #
straight-curve $-1 73.014923551133762 -47.895000009635112 0 0 0 -1 I I #
straight-curve $-1 73.014923551133762 47.895000009635112 0 0 0 -1 I I #
plane-surface $-1 0 -47.895000009635112 0 0 1 0 0 0 1 forward_v I I I I #
coedge $-1 $360 $226 $238 $320 reversed $140 $-1 #
coedge $-1 $226 $360 $241 $322 reversed $140 $-1 #
edge $-1 $361 -73.014923551133762 $235 -66.055347145192911 $231 $362 forward 7 unknown #
straight-curve $-1 -66.055347145192911 -18.329965407952258 21.321730846295004 0 1 0 I I #
coedge $-1 $238 $229 $232 $316 forward $224 $-1 #
straight-curve $-1 -66.055347145192911 -18.329965407952258 -21.321730846295004 0 -1 0 I I #
coedge $-1 $232 $231 $360 $363 forward $233 $-1 #
edge $-1 $234 66.055347145192911 $364 73.014923551133762 $232 $365 forward 7 unknown #
point $-1 -66.055347145192911 -47.895000009635112 -21.321730846295004 #
point $-1 -66.055347145192911 -47.895000009635112 21.321730846295004 #
straight-curve $-1 -73.014923551133762 -25.424861622173921 0 0 0 -1 I I #
edge $-1 $364 -47.895000009635112 $239 -25.424861622173921 $309 $366 forward 7 unknown #
point $-1 -73.014923551133762 -25.424861622173921 -21.321730846295004 #
edge $-1 $242 25.424861622173921 $361 47.895000009635112 $310 $367 forward 7 unknown #
point $-1 -73.014923551133762 -25.424861622173921 21.321730846295004 #
loop $-1 $-1 $330 $246 #
plane-surface $-1 0 47.895000009635112 0 0 -1 0 0 0 -1 forward_v I I I I #
coedge $-1 $337 $330 $249 $327 reversed $324 $-1 #
edge $-1 $341 -73.014923551133762 $328 -66.055347145192911 $326 $368 forward 7 unknown #
vertex $-1 $250 $369 #
straight-curve $-1 -66.055347145192911 18.329965407952258 -21.321730846295004 0 -1 0 I I #
coedge $-1 $326 $370 $251 $331 forward $324 $-1 #
edge $-1 $333 -21.321730846295004 $328 21.321730846295004 $330 $371 forward 7 unknown #
coedge $-1 $259 $252 $370 $372 forward $247 $-1 #
vertex $-1 $372 $373 #
straight-curve $-1 -66.055347145192911 18.329965407952258 21.321730846295004 0 1 0 I I #
point $-1 -66.055347145192911 25.424861622173921 21.321730846295004 #
point $-1 -66.055347145192911 25.424861622173921 -21.321730846295004 #
coedge $-1 $370 $326 $261 $338 reversed $324 $-1 #
edge $-1 $339 -21.321730846295004 $341 21.321730846295004 $337 $374 forward 7 unknown #
vertex $-1 $372 $375 #
straight-curve $-1 -73.014923551133762 0 21.321730846295004 0 -1 0 I I #
vertex $-1 $327 $376 #
straight-curve $-1 -73.014923551133762 0 -21.321730846295004 0 1 0 I I #
edge $-1 $344 85.440250713303868 $347 98.624084567595432 $267 $377 forward 7 unknown #
vertex $-1 $281 $378 #
straight-curve $-1 47.30093584811452 -25.424861622173928 21.321730846295011 1 0 0 I I #
edge $-1 $347 -16.263908691465176 $278 -2.0579971699523316 $277 $379 forward 7 unknown #
vertex $-1 $346 $380 #
straight-curve $-1 -18.884635439915755 -25.424861622173928 121.62440412814826 -0.62932038083071107 0 0.77714596973225614 I I #
point $-1 62.338865686676172 -25.424861622173928 21.321730846294997 #
point $-1 73.014923551133776 -11.218950100661084 8.1378969920034478 #
straight-curve $-1 73.014923551133762 0 21.321730846295004 0 1 0 I I #
vertex $-1 $284 $381 #
point $-1 64.377547198277441 -21.36602975888454 10.127915801509555 #
vertex $-1 $288 $382 #
point $-1 64.377547198277441 -15.277781963950467 10.127915801509555 #
straight-curve $-1 -73.014923551133762 47.895000009635112 0 0 0 -1 I I #
point $-1 -73.014923551133762 -47.895000009635112 -21.321730846295004 #
straight-curve $-1 -73.014923551133762 0 -21.321730846295004 0 1 0 I I #
point $-1 -73.014923551133762 47.895000009635112 -21.321730846295004 #
coedge $-1 $310 $309 $315 $363 reversed $140 $-1 #
vertex $-1 $322 $383 #
straight-curve $-1 0 -47.895000009635112 21.321730846295004 1 0 0 I I #
edge $-1 $361 -21.321730846295004 $364 21.321730846295004 $360 $384 forward 7 unknown #
vertex $-1 $320 $385 #
straight-curve $-1 0 -47.895000009635112 -21.321730846295004 -1 0 0 I I #
straight-curve $-1 -73.014923551133762 0 -21.321730846295004 0 1 0 I I #
straight-curve $-1 -73.014923551133762 0 21.321730846295004 0 -1 0 I I #
straight-curve $-1 0 47.895000009635112 -21.321730846295004 1 0 0 I I #
point $-1 -66.055347145192911 47.895000009635112 -21.321730846295004 #
coedge $-1 $330 $337 $332 $372 reversed $324 $-1 #
straight-curve $-1 -66.055347145192911 47.895000009635112 0 0 0 -1 I I #
edge $-1 $333 66.055347145192911 $339 73.014923551133762 $370 $386 forward 7 unknown #
point $-1 -66.055347145192911 47.895000009635112 21.321730846295004 #
straight-curve $-1 -73.014923551133762 47.895000009635112 0 0 0 -1 I I #
point $-1 -73.014923551133762 47.895000009635112 21.321730846295004 #
point $-1 -73.014923551133762 47.895000009635112 -21.321730846295004 #
straight-curve $-1 73.014923551133762 -25.424861622173928 106.76198155959888 0 0 -1 I I #
point $-1 73.014923551133762 -25.424861622173928 21.321730846295004 #
straight-curve $-1 73.014923551133762 -9.1609529307087527 8.137896992003455 0 1 0 I I #
point $-1 73.014923551133776 -25.424861622173928 8.1378969920034478 #
point $-1 62.267847672432993 -21.36602975888454 10.349654184861873 #
point $-1 62.267847672432993 -15.277781963950467 10.349654184861873 #
point $-1 -73.014923551133762 -47.895000009635112 21.321730846295004 #
straight-curve $-1 -73.014923551133762 -47.895000009635112 0 0 0 -1 I I #
point $-1 -73.014923551133762 -47.895000009635112 -21.321730846295004 #
straight-curve $-1 0 47.895000009635112 21.321730846295004 -1 0 0 I I #
End-of-ACIS-data 