500 0 5 0           
7 Unknown 11 ACIS 5.0 NT 24 Thu Mar 25 17:07:52 1999 
-1 9.9999999999999995e-007 1e-010 
body $-1 $5 $-1 $6 #
body $-1 $7 $-1 $8 #
body $-1 $9 $-1 $10 #
body $-1 $11 $-1 $12 #
body $-1 $13 $-1 $14 #
lump $-1 $-1 $15 $0 #
transform $-1 1 0 0 0 1 0 0 0 1 50.08453627124851 28.990244719840316 11.862669766169958 1 rotate no_reflect no_shear #
lump $-1 $-1 $16 $1 #
transform $-1 1 0 0 0 1 0 0 0 1 50.08453627124851 28.990244719840316 11.862669766169958 1 rotate no_reflect no_shear #
lump $-1 $-1 $17 $2 #
transform $-1 1 0 0 0 1 0 0 0 1 50.08453627124851 28.990244719840316 11.862669766169958 1 rotate no_reflect no_shear #
lump $-1 $-1 $18 $3 #
transform $-1 1 0 0 0 1 0 0 0 1 50.08453627124851 28.990244719840316 11.862669766169958 1 rotate no_reflect no_shear #
lump $-1 $-1 $19 $4 #
transform $-1 1 0 0 0 1 0 0 0 1 50.08453627124851 28.990244719840316 11.862669766169958 1 rotate no_reflect no_shear #
shell $-1 $-1 $-1 $20 $-1 $5 #
shell $-1 $-1 $-1 $21 $-1 $7 #
shell $-1 $-1 $-1 $22 $-1 $9 #
shell $-1 $-1 $-1 $23 $-1 $11 #
shell $-1 $-1 $-1 $24 $-1 $13 #
face $-1 $25 $26 $15 $-1 $27 forward single #
face $-1 $28 $29 $16 $-1 $30 forward single #
face $-1 $31 $32 $17 $-1 $33 reversed single #
face $-1 $34 $35 $18 $-1 $36 forward single #
face $-1 $37 $38 $19 $-1 $39 forward single #
face $-1 $40 $41 $15 $-1 $42 reversed single #
loop $-1 $-1 $43 $20 #
plane-surface $-1 0 0 11.862669766169958 0 0 1 1 0 0 forward_v I I I I #
face $-1 $44 $45 $16 $-1 $46 reversed single #
loop $-1 $-1 $47 $21 #
plane-surface $-1 -50.08453627124851 0 0 1 0 0 0 0 -1 forward_v I I I I #
face $-1 $48 $49 $17 $-1 $50 reversed single #
loop $-1 $-1 $51 $22 #
plane-surface $-1 39.040459426894984 44.971235648625594 119.2341523747901 1 0 0 0 -0.61566148304635926 -0.78801074757464917 forward_v I I I I #
face $-1 $52 $53 $18 $-1 $54 forward single #
loop $-1 $55 $56 $23 #
cone-surface $-1 42.195909953853132 22.748968362196372 6.1907872894449767 0 -0.61566148304635926 -0.78801074757464917 1.5 0 0 1 I I 0 1 1.5 forward I I I I #
face $-1 $57 $58 $19 $-1 $59 forward single #
loop $-1 $60 $61 $24 #
cone-surface $-1 46.929085744290362 22.748968362196372 6.1907872894449767 0 -0.61566148304635926 -0.78801074757464917 1.5 0 0 1 I I 0 1 1.5 forward I I I I #
face $-1 $62 $63 $15 $-1 $64 reversed single #
loop $-1 $-1 $65 $25 #
plane-surface $-1 0 0 -11.862669766169958 0 0 1 1 0 0 forward_v I I I I #
coedge $-1 $66 $67 $68 $69 forward $26 $-1 #
face $-1 $70 $71 $16 $-1 $72 reversed single #
loop $-1 $-1 $73 $28 #
plane-surface $-1 0 0 -11.862669766169958 0 0 1 1 0 0 forward_v I I I I #
coedge $-1 $74 $75 $76 $77 forward $29 $-1 #
face $-1 $78 $79 $17 $-1 $80 forward single #
loop $-1 $-1 $81 $31 #
plane-surface $-1 44.562497849071747 -16.699004108266465 40.29984663671776 0 0.61566148304635926 0.78801074757464917 1 0 0 forward_v I I I I #
coedge $-1 $82 $83 $84 $85 reversed $32 $-1 #
face $-1 $-1 $86 $18 $-1 $87 forward single #
loop $-1 $88 $89 $34 #
cone-surface $-1 42.195909953853132 20.691607384528613 3.5574853748588993 0 -0.61566148304635926 -0.78801074757464917 0.75 0 0 1 I I -0.70710678118654757 0.70710678118654757 0.75 forward I I I I #
loop $-1 $-1 $90 $23 #
coedge $-1 $56 $56 $91 $92 reversed $35 $-1 #
face $-1 $-1 $93 $19 $-1 $94 forward single #
loop $-1 $95 $96 $37 #
cone-surface $-1 46.929085744290362 20.691607384528613 3.5574853748588993 0 -0.61566148304635926 -0.78801074757464917 0.75 0 0 1 I I -0.70710678118654757 0.70710678118654757 0.75 forward I I I I #
loop $-1 $-1 $97 $24 #
coedge $-1 $61 $61 $98 $99 reversed $38 $-1 #
face $-1 $100 $101 $15 $-1 $102 reversed single #
loop $-1 $-1 $103 $40 #
plane-surface $-1 0 -28.990244719840316 0 0 1 0 0 0 1 forward_v I I I I #
coedge $-1 $104 $105 $106 $107 forward $41 $-1 #
coedge $-1 $108 $43 $109 $110 forward $26 $-1 #
coedge $-1 $43 $108 $111 $112 forward $26 $-1 #
coedge $-1 $113 $114 $43 $69 reversed $115 $-1 #
edge $-1 $116 -28.990244719840316 $117 28.990244719840316 $68 $118 forward 7 unknown #
face $-1 $119 $120 $16 $-1 $121 reversed single #
loop $-1 $-1 $122 $44 #
plane-surface $-1 -56.179907400283732 -16.854377367721519 0 0 1 0 0 0 1 forward_v I I I I #
coedge $-1 $123 $124 $75 $125 forward $45 $-1 #
coedge $-1 $126 $47 $127 $128 reversed $29 $-1 #
coedge $-1 $47 $126 $73 $125 reversed $29 $-1 #
coedge $-1 $129 $130 $47 $77 reversed $131 $-1 #
edge $-1 $132 -11.862669766169958 $133 11.862669766169958 $76 $134 forward 7 unknown #
face $-1 $135 $136 $17 $-1 $137 reversed single #
loop $-1 $-1 $84 $48 #
plane-surface $-1 0 0 11.862669766169958 0 0 1 1 0 0 forward_v I I I I #
coedge $-1 $138 $139 $140 $141 reversed $49 $-1 #
coedge $-1 $83 $51 $142 $143 reversed $32 $-1 #
coedge $-1 $51 $82 $138 $144 reversed $32 $-1 #
coedge $-1 $140 $145 $51 $85 forward $79 $-1 #
edge $-1 $146 -6.5046268955275188 $147 2.7866960889943471 $84 $148 forward 7 unknown #
loop $-1 $-1 $91 $52 #
plane-surface $-1 44.562497849071747 -16.699004108266465 40.29984663671776 0 0.61566148304635926 0.78801074757464917 1 0 0 forward_v I I I I #
loop $-1 $-1 $149 $34 #
coedge $-1 $89 $89 $90 $150 reversed $53 $-1 #
coedge $-1 $90 $90 $89 $150 forward $55 $-1 #
coedge $-1 $91 $91 $56 $92 forward $86 $-1 #
edge $-1 $151 -5.8284598384993736e-016 $151 6.2831853071795996 $91 $152 forward 7 unknown #
loop $-1 $-1 $98 $57 #
plane-surface $-1 44.562497849071747 -16.699004108266465 40.29984663671776 0 0.61566148304635926 0.78801074757464917 1 0 0 forward_v I I I I #
loop $-1 $-1 $153 $37 #
coedge $-1 $96 $96 $97 $154 reversed $58 $-1 #
coedge $-1 $97 $97 $96 $154 forward $60 $-1 #
coedge $-1 $98 $98 $61 $99 forward $93 $-1 #
edge $-1 $155 -5.8284598384993736e-016 $155 6.2831853071795996 $98 $156 forward 7 unknown #
face $-1 $157 $158 $15 $-1 $159 reversed single #
loop $-1 $-1 $160 $62 #
plane-surface $-1 -50.08453627124851 0 0 1 0 0 0 0 -1 forward_v I I I I #
coedge $-1 $161 $111 $162 $163 forward $63 $-1 #
coedge $-1 $164 $65 $161 $165 forward $41 $-1 #
coedge $-1 $65 $164 $166 $167 forward $41 $-1 #
coedge $-1 $114 $113 $65 $107 reversed $115 $-1 #
edge $-1 $168 -28.990244719840316 $169 28.990244719840316 $106 $170 forward 7 unknown #
coedge $-1 $67 $66 $171 $172 forward $26 $-1 #
coedge $-1 $173 $174 $66 $110 reversed $158 $-1 #
edge $-1 $117 -50.08453627124851 $175 50.08453627124851 $109 $176 forward 7 unknown #
coedge $-1 $103 $177 $67 $112 reversed $63 $-1 #
edge $-1 $178 -50.08453627124851 $116 50.08453627124851 $111 $179 forward 7 unknown #
coedge $-1 $106 $68 $177 $180 forward $115 $-1 #
coedge $-1 $68 $106 $173 $181 reversed $115 $-1 #
loop $-1 $-1 $113 $157 #
vertex $-1 $69 $182 #
vertex $-1 $69 $183 #
straight-curve $-1 50.08453627124851 0 11.862669766169958 0 1 0 I I #
face $-1 $184 $131 $16 $-1 $185 reversed single #
loop $-1 $-1 $186 $70 #
plane-surface $-1 -62.275278529318953 -13.964899350059472 0 1 0 0 0 0 -1 forward_v I I I I #
coedge $-1 $187 $188 $189 $190 forward $71 $-1 #
coedge $-1 $191 $73 $187 $192 forward $45 $-1 #
coedge $-1 $73 $191 $129 $193 forward $45 $-1 #
edge $-1 $132 11.075421332397426 $194 16.854377367721519 $73 $195 forward 7 unknown #
coedge $-1 $75 $74 $196 $197 forward $29 $-1 #
coedge $-1 $198 $199 $74 $128 forward $200 $-1 #
edge $-1 $201 -16.854377367721519 $133 -11.075421332397426 $127 $202 forward 7 unknown #
coedge $-1 $203 $76 $124 $193 reversed $131 $-1 #
coedge $-1 $76 $203 $198 $204 reversed $131 $-1 #
loop $-1 $-1 $76 $119 #
vertex $-1 $125 $205 #
vertex $-1 $204 $206 #
straight-curve $-1 -50.08453627124851 -11.075421332397426 0 0 0 1 I I #
face $-1 $-1 $207 $17 $-1 $208 reversed single #
loop $-1 $-1 $142 $78 #
plane-surface $-1 0 28.990244719840316 0 0 -1 0 0 0 -1 forward_v I I I I #
coedge $-1 $209 $81 $83 $144 forward $49 $-1 #
coedge $-1 $81 $209 $210 $211 reversed $49 $-1 #
coedge $-1 $212 $84 $81 $141 forward $79 $-1 #
edge $-1 $147 16.75921050235911 $213 27.803287346712636 $140 $214 forward 7 unknown #
coedge $-1 $215 $216 $82 $143 forward $136 $-1 #
edge $-1 $217 -55.013583666864839 $146 -47.754406421225092 $142 $218 forward 7 unknown #
edge $-1 $147 46.189631239943076 $217 57.980489439680625 $83 $219 forward 7 unknown #
coedge $-1 $84 $212 $215 $220 forward $79 $-1 #
vertex $-1 $85 $221 #
vertex $-1 $85 $222 #
straight-curve $-1 39.040459426894984 22.485617824312797 11.862669766169958 0 -1 0 I I #
coedge $-1 $149 $149 $-1 $223 reversed $88 $-1 #
edge $-1 $224 0 $224 6.2831853071796004 $89 $225 forward 7 unknown #
vertex $-1 $92 $226 #
ellipse-curve $-1 42.195909953853132 24.344583227579381 8.2330811433500912 0 0.61566148304635926 0.78801074757464917 1.5 0 0 1 I I #
coedge $-1 $153 $153 $-1 $227 reversed $95 $-1 #
edge $-1 $228 0 $228 6.2831853071796004 $96 $229 forward 7 unknown #
vertex $-1 $99 $230 #
ellipse-curve $-1 46.929085744290362 24.344583227579381 8.2330811433500912 0 0.61566148304635926 0.78801074757464917 1.5 0 0 1 I I #
face $-1 $-1 $115 $15 $-1 $231 reversed single #
loop $-1 $-1 $173 $100 #
plane-surface $-1 0 28.990244719840316 0 0 -1 0 0 0 -1 forward_v I I I I #
coedge $-1 $232 $171 $174 $233 forward $101 $-1 #
coedge $-1 $177 $103 $104 $165 reversed $63 $-1 #
coedge $-1 $171 $232 $103 $163 reversed $101 $-1 #
edge $-1 $178 -11.862669766169958 $234 11.862669766169958 $162 $235 forward 7 unknown #
coedge $-1 $105 $104 $232 $236 forward $41 $-1 #
edge $-1 $169 -50.08453627124851 $234 50.08453627124851 $161 $237 forward 7 unknown #
coedge $-1 $174 $173 $105 $167 reversed $158 $-1 #
edge $-1 $238 -50.08453627124851 $168 50.08453627124851 $166 $239 forward 7 unknown #
vertex $-1 $107 $240 #
vertex $-1 $180 $241 #
straight-curve $-1 50.08453627124851 0 -11.862669766169958 0 -1 0 I I #
coedge $-1 $160 $162 $108 $172 reversed $101 $-1 #
edge $-1 $175 -28.990244719840316 $178 28.990244719840316 $171 $242 forward 7 unknown #
coedge $-1 $166 $109 $114 $181 forward $158 $-1 #
coedge $-1 $109 $166 $160 $233 reversed $158 $-1 #
vertex $-1 $110 $243 #
straight-curve $-1 0 28.990244719840316 11.862669766169958 -1 0 0 I I #
coedge $-1 $111 $161 $113 $180 reversed $63 $-1 #
vertex $-1 $172 $244 #
straight-curve $-1 0 -28.990244719840316 11.862669766169958 1 0 0 I I #
edge $-1 $116 -11.862669766169958 $169 11.862669766169958 $113 $245 forward 7 unknown #
edge $-1 $117 -11.862669766169958 $168 11.862669766169958 $114 $246 forward 7 unknown #
point $-1 50.08453627124851 -28.990244719840316 11.862669766169958 #
point $-1 50.08453627124851 28.990244719840316 11.862669766169958 #
face $-1 $-1 $200 $16 $-1 $247 forward single #
plane-surface $-1 -56.179907400283732 -11.075421332397426 0 0 -1 0 0 0 -1 forward_v I I I I #
coedge $-1 $248 $249 $203 $250 forward $120 $-1 #
coedge $-1 $196 $122 $123 $192 reversed $71 $-1 #
coedge $-1 $122 $196 $199 $251 reversed $71 $-1 #
coedge $-1 $249 $248 $122 $190 reversed $120 $-1 #
edge $-1 $252 -11.862669766169958 $253 11.862669766169958 $189 $254 forward 7 unknown #
coedge $-1 $124 $123 $248 $255 forward $45 $-1 #
edge $-1 $194 -6.0953711290352217 $253 6.0953711290352217 $187 $256 forward 7 unknown #
edge $-1 $257 -6.0953711290352217 $132 6.0953711290352217 $129 $258 forward 7 unknown #
vertex $-1 $192 $259 #
straight-curve $-1 -50.08453627124851 0 -11.862669766169958 0 -1 0 I I #
coedge $-1 $188 $187 $126 $197 reversed $71 $-1 #
edge $-1 $201 -11.862669766169958 $194 11.862669766169958 $196 $260 forward 7 unknown #
coedge $-1 $261 $127 $130 $204 forward $200 $-1 #
coedge $-1 $127 $261 $188 $251 forward $200 $-1 #
loop $-1 $-1 $127 $184 #
vertex $-1 $128 $262 #
straight-curve $-1 -50.08453627124851 0 11.862669766169958 0 1 0 I I #
coedge $-1 $130 $129 $186 $250 reversed $131 $-1 #
edge $-1 $133 -6.0953711290352217 $263 6.0953711290352217 $130 $264 forward 7 unknown #
point $-1 -50.08453627124851 -11.075421332397426 -11.862669766169958 #
point $-1 -50.08453627124851 -11.075421332397426 11.862669766169958 #
loop $-1 $-1 $210 $135 #
plane-surface $-1 50.08453627124851 0 0 -1 0 0 0 0 1 forward_v I I I I #
coedge $-1 $139 $138 $216 $265 reversed $49 $-1 #
coedge $-1 $266 $267 $139 $211 forward $207 $-1 #
edge $-1 $213 27.204602210938233 $268 38.995460410675783 $210 $269 forward 7 unknown #
coedge $-1 $145 $140 $267 $270 forward $79 $-1 #
vertex $-1 $270 $271 #
straight-curve $-1 22.281248924535873 19.69892173531845 11.862669766169954 1 0 0 I I #
coedge $-1 $272 $142 $145 $220 reversed $136 $-1 #
coedge $-1 $142 $272 $209 $265 forward $136 $-1 #
vertex $-1 $143 $273 #
straight-curve $-1 39.040459426894984 28.990244719840316 59.61707618739505 0 0 1 I I #
straight-curve $-1 39.040459426894984 -16.699004108266465 40.29984663671776 0 0.78801074757464917 -0.61566148304635926 I I #
edge $-1 $274 -50.08453627124851 $146 -39.040459426894984 $215 $275 forward 7 unknown #
point $-1 39.040459426894984 28.990244719840316 11.862669766169958 #
point $-1 39.040459426894984 19.69892173531845 11.862669766169962 #
edge $-1 $276 1 $276 0 $149 $-1 forward 7 unknown #
vertex $-1 $150 $277 #
ellipse-curve $-1 42.195909953853132 21.153353496813381 4.1484934355398861 0 0.61566148304635926 0.78801074757464917 1.5 0 0 1 I I #
point $-1 43.695909953853132 24.344583227579363 8.2330811433500699 #
edge $-1 $278 1 $278 0 $153 $-1 forward 7 unknown #
vertex $-1 $154 $279 #
ellipse-curve $-1 46.929085744290362 21.153353496813381 4.1484934355398861 0 0.61566148304635926 0.78801074757464917 1.5 0 0 1 I I #
point $-1 48.429085744290362 24.344583227579363 8.2330811433500699 #
plane-surface $-1 50.08453627124851 0 0 -1 0 0 0 0 1 forward_v I I I I #
coedge $-1 $162 $160 $164 $236 reversed $101 $-1 #
edge $-1 $175 -11.862669766169958 $238 11.862669766169958 $174 $280 forward 7 unknown #
vertex $-1 $236 $281 #
straight-curve $-1 -50.08453627124851 -28.990244719840316 0 0 0 -1 I I #
edge $-1 $234 -28.990244719840316 $238 28.990244719840316 $232 $282 forward 7 unknown #
straight-curve $-1 0 -28.990244719840316 -11.862669766169958 -1 0 0 I I #
vertex $-1 $167 $283 #
straight-curve $-1 0 28.990244719840316 -11.862669766169958 1 0 0 I I #
point $-1 50.08453627124851 28.990244719840316 -11.862669766169958 #
point $-1 50.08453627124851 -28.990244719840316 -11.862669766169958 #
straight-curve $-1 -50.08453627124851 0 11.862669766169958 0 -1 0 I I #
point $-1 -50.08453627124851 28.990244719840316 11.862669766169958 #
point $-1 -50.08453627124851 -28.990244719840316 11.862669766169958 #
straight-curve $-1 50.08453627124851 -28.990244719840316 0 0 0 -1 I I #
straight-curve $-1 50.08453627124851 28.990244719840316 0 0 0 -1 I I #
plane-surface $-1 0 0 11.862669766169958 0 0 1 1 0 0 forward_v I I I I #
coedge $-1 $189 $186 $191 $255 reversed $120 $-1 #
coedge $-1 $186 $189 $261 $284 reversed $120 $-1 #
edge $-1 $263 -11.862669766169958 $257 11.862669766169958 $203 $285 forward 7 unknown #
edge $-1 $252 -6.0953711290352217 $201 6.0953711290352217 $188 $286 forward 7 unknown #
vertex $-1 $284 $287 #
vertex $-1 $255 $288 #
straight-curve $-1 -62.275278529318953 -16.854377367721519 0 0 0 -1 I I #
edge $-1 $253 -2.8894780176620465 $257 2.8894780176620465 $248 $289 forward 7 unknown #
straight-curve $-1 -56.179907400283732 -16.854377367721519 -11.862669766169958 -1 0 0 I I #
vertex $-1 $193 $290 #
straight-curve $-1 -56.179907400283732 -11.075421332397426 -11.862669766169958 1 0 0 I I #
point $-1 -50.08453627124851 -16.854377367721519 -11.862669766169958 #
straight-curve $-1 -50.08453627124851 -16.854377367721519 0 0 0 -1 I I #
coedge $-1 $199 $198 $249 $284 forward $200 $-1 #
point $-1 -50.08453627124851 -16.854377367721519 11.862669766169958 #
vertex $-1 $204 $291 #
straight-curve $-1 -56.179907400283732 -11.075421332397426 11.862669766169958 -1 0 0 I I #
edge $-1 $268 -27.803287346712636 $217 -16.75921050235911 $216 $292 forward 7 unknown #
coedge $-1 $267 $210 $272 $293 reversed $207 $-1 #
coedge $-1 $210 $266 $212 $270 reversed $207 $-1 #
vertex $-1 $211 $294 #
straight-curve $-1 50.08453627124851 -1.7385971903939428 28.611495509042456 0 0.78801074757464917 -0.61566148304635926 I I #
edge $-1 $213 19.69892173531845 $274 28.990244719840316 $267 $295 forward 7 unknown #
point $-1 50.08453627124851 19.69892173531845 11.862669766169962 #
coedge $-1 $216 $215 $266 $293 forward $136 $-1 #
point $-1 39.040459426894984 28.990244719840319 4.6034925205302102 #
vertex $-1 $270 $296 #
straight-curve $-1 0 28.990244719840316 11.862669766169958 -1 0 0 I I #
vertex $-1 $223 $297 #
point $-1 43.695909953853132 21.153353496813381 4.1484934355398861 #
vertex $-1 $227 $298 #
point $-1 48.429085744290362 21.153353496813381 4.1484934355398861 #
straight-curve $-1 -50.08453627124851 28.990244719840316 0 0 0 -1 I I #
point $-1 -50.08453627124851 -28.990244719840316 -11.862669766169958 #
straight-curve $-1 -50.08453627124851 0 -11.862669766169958 0 1 0 I I #
point $-1 -50.08453627124851 28.990244719840316 -11.862669766169958 #
edge $-1 $263 -2.8894780176620465 $252 2.8894780176620465 $249 $299 forward 7 unknown #
straight-curve $-1 -62.275278529318953 -11.075421332397426 0 0 0 -1 I I #
straight-curve $-1 -56.179907400283732 -16.854377367721519 11.862669766169958 1 0 0 I I #
point $-1 -62.275278529318953 -16.854377367721519 11.862669766169958 #
point $-1 -62.275278529318953 -16.854377367721519 -11.862669766169958 #
straight-curve $-1 -62.275278529318953 -13.964899350059472 -11.862669766169958 0 1 0 I I #
point $-1 -62.275278529318953 -11.075421332397426 -11.862669766169958 #
point $-1 -62.275278529318953 -11.075421332397426 11.862669766169958 #
straight-curve $-1 22.281248924535873 28.990244719840319 4.6034925205302137 -1 0 0 I I #
edge $-1 $274 -11.862669766169958 $268 -4.6034925205302102 $266 $300 forward 7 unknown #
point $-1 50.08453627124851 28.990244719840319 4.6034925205302102 #
straight-curve $-1 50.08453627124851 0 11.862669766169958 0 1 0 I I #
point $-1 50.08453627124851 28.990244719840316 11.862669766169958 #
point $-1 42.195909953853132 20.229861272243845 2.9664773141779124 #
point $-1 46.929085744290362 20.229861272243845 2.9664773141779124 #
straight-curve $-1 -62.275278529318953 -13.964899350059472 11.862669766169958 0 -1 0 I I #
straight-curve $-1 50.08453627124851 28.990244719840316 0 0 0 -1 I I #
End-of-ACIS-data 