500 0 7 0           
7 Unknown 11 ACIS 5.0 NT 24 Fri Mar 26 20:03:29 1999 
-1 9.9999999999999995e-007 1e-010 
body $-1 $7 $-1 $8 #
body $-1 $9 $-1 $10 #
body $-1 $11 $-1 $12 #
body $-1 $13 $-1 $14 #
body $-1 $15 $-1 $16 #
body $-1 $17 $-1 $18 #
body $-1 $19 $-1 $20 #
lump $-1 $-1 $21 $0 #
transform $-1 1 0 0 0 1 0 0 0 1 66.779381694998023 31.26241893938295 13.321662134672575 1 rotate no_reflect no_shear #
lump $-1 $-1 $22 $1 #
transform $-1 1 0 0 0 1 0 0 0 1 66.779381694998023 31.26241893938295 13.321662134672575 1 rotate no_reflect no_shear #
lump $-1 $-1 $23 $2 #
transform $-1 1 0 0 0 1 0 0 0 1 66.779381694998023 31.26241893938295 13.321662134672575 1 rotate no_reflect no_shear #
lump $-1 $-1 $24 $3 #
transform $-1 1 0 0 0 1 0 0 0 1 66.779381694998023 31.26241893938295 13.321662134672575 1 rotate no_reflect no_shear #
lump $-1 $-1 $25 $4 #
transform $-1 1 0 0 0 1 0 0 0 1 66.779381694998023 31.26241893938295 13.321662134672575 1 rotate no_reflect no_shear #
lump $-1 $-1 $26 $5 #
transform $-1 1 0 0 0 1 0 0 0 1 66.779381694998023 31.26241893938295 13.321662134672575 1 rotate no_reflect no_shear #
lump $-1 $-1 $27 $6 #
transform $-1 1 0 0 0 1 0 0 0 1 66.779381694998023 31.26241893938295 13.321662134672575 1 rotate no_reflect no_shear #
shell $-1 $-1 $-1 $28 $-1 $7 #
shell $-1 $-1 $-1 $29 $-1 $9 #
shell $-1 $-1 $-1 $30 $-1 $11 #
shell $-1 $-1 $-1 $31 $-1 $13 #
shell $-1 $-1 $-1 $32 $-1 $15 #
shell $-1 $-1 $-1 $33 $-1 $17 #
shell $-1 $-1 $-1 $34 $-1 $19 #
face $-1 $35 $36 $21 $-1 $37 forward single #
face $-1 $38 $39 $22 $-1 $40 forward single #
face $-1 $41 $42 $23 $-1 $43 forward single #
face $-1 $44 $45 $24 $-1 $46 reversed single #
face $-1 $47 $48 $25 $-1 $49 forward single #
face $-1 $50 $51 $26 $-1 $52 reversed single #
face $-1 $53 $54 $27 $-1 $55 forward single #
face $-1 $56 $57 $21 $-1 $58 reversed single #
loop $-1 $-1 $59 $28 #
plane-surface $-1 0 0 13.321662134672575 0 0 1 1 0 0 forward_v I I I I #
face $-1 $60 $61 $22 $-1 $62 reversed single #
loop $-1 $-1 $63 $29 #
plane-surface $-1 0 -23.590927149350577 -1.0425918837069394 0 0 1 1 0 0 forward_v I I I I #
face $-1 $64 $65 $23 $-1 $66 reversed single #
loop $-1 $-1 $67 $30 #
plane-surface $-1 0 23.590927149350581 -1.0425918837069394 0 0 1 1 0 0 forward_v I I I I #
face $-1 $68 $69 $24 $-1 $70 reversed single #
loop $-1 $-1 $71 $31 #
plane-surface $-1 53.603738056508803 7.0012135231002262 188.62305713640936 0 1 0 0.6560590369687036 0 0.75470957328743171 forward_v I I I I #
face $-1 $72 $73 $25 $-1 $74 forward single #
loop $-1 $75 $76 $32 #
cone-surface $-1 58.511632426036023 11.460324441209213 5.9317209103293056 -0.6560590369687036 0 -0.75470957328743171 1.1320643599311475 0 -0.9840885554530554 1 I I 0 1 1.5 forward I I I I #
face $-1 $77 $78 $26 $-1 $79 reversed single #
loop $-1 $-1 $80 $33 #
plane-surface $-1 -154.40181538336978 15.9194353593182 101.0006234480376 0 -1 0 0.6560590369687036 0 -0.75470957328743171 forward_v I I I I #
face $-1 $81 $82 $27 $-1 $83 forward single #
loop $-1 $84 $85 $34 #
cone-surface $-1 -58.511632426036016 11.460324441209213 5.9317209103292985 0.6560590369687036 0 -0.75470957328743171 1.1320643599311475 0 0.9840885554530554 1 I I 0 1 1.5 forward I I I I #
face $-1 $86 $87 $21 $-1 $88 reversed single #
loop $-1 $-1 $89 $35 #
plane-surface $-1 0 0 -13.321662134672575 0 0 1 1 0 0 forward_v I I I I #
coedge $-1 $90 $91 $92 $93 forward $36 $-1 #
face $-1 $94 $95 $22 $-1 $96 reversed single #
loop $-1 $-1 $97 $38 #
plane-surface $-1 0 -23.590927149350577 -6.3479203501578292 0 0 1 1 0 0 forward_v I I I I #
coedge $-1 $98 $99 $100 $101 reversed $39 $-1 #
face $-1 $102 $103 $23 $-1 $104 reversed single #
loop $-1 $-1 $105 $41 #
plane-surface $-1 0 23.590927149350581 -6.3479203501578292 0 0 1 1 0 0 forward_v I I I I #
coedge $-1 $106 $107 $108 $109 reversed $42 $-1 #
face $-1 $110 $111 $24 $-1 $112 reversed single #
loop $-1 $-1 $113 $44 #
plane-surface $-1 -34.018695631862954 11.460324441209213 87.824979809548381 0.6560590369687036 0 0.75470957328743171 0.75470957328743171 0 -0.6560590369687036 forward_v I I I I #
coedge $-1 $114 $115 $116 $117 reversed $45 $-1 #
face $-1 $-1 $118 $25 $-1 $119 forward single #
loop $-1 $120 $121 $47 #
cone-surface $-1 57.297747014537279 11.460324441209213 4.535305512768435 -0.6560590369687036 0 -0.75470957328743171 0.56603217996557376 0 -0.4920442777265277 1 I I -0.70710678118654757 0.70710678118654757 0.75 forward I I I I #
loop $-1 $-1 $122 $32 #
coedge $-1 $76 $76 $123 $124 reversed $48 $-1 #
face $-1 $125 $126 $26 $-1 $127 reversed single #
loop $-1 $-1 $128 $50 #
plane-surface $-1 -66.779381694998023 11.460324441209213 0.20254612117662418 -0.6560590369687036 0 0.75470957328743171 0.75470957328743171 0 0.6560590369687036 forward_v I I I I #
coedge $-1 $129 $130 $131 $132 reversed $51 $-1 #
face $-1 $-1 $133 $27 $-1 $134 forward single #
loop $-1 $135 $136 $53 #
cone-surface $-1 -57.297747014537272 11.460324441209213 4.5353055127684279 0.6560590369687036 0 -0.75470957328743171 0.56603217996557376 0 0.4920442777265277 1 I I -0.70710678118654757 0.70710678118654757 0.75 forward I I I I #
loop $-1 $-1 $137 $34 #
coedge $-1 $85 $85 $138 $139 reversed $54 $-1 #
face $-1 $140 $141 $21 $-1 $142 reversed single #
loop $-1 $-1 $143 $56 #
plane-surface $-1 0 -31.26241893938295 0 0 1 0 0 0 1 forward_v I I I I #
coedge $-1 $144 $145 $146 $147 forward $57 $-1 #
coedge $-1 $148 $59 $149 $150 forward $36 $-1 #
coedge $-1 $59 $148 $151 $152 forward $36 $-1 #
coedge $-1 $153 $154 $59 $93 reversed $155 $-1 #
edge $-1 $156 -31.26241893938295 $157 31.26241893938295 $92 $158 forward 7 unknown #
face $-1 $159 $160 $22 $-1 $161 reversed single #
loop $-1 $-1 $162 $60 #
plane-surface $-1 0 -15.919435359318205 -3.6952561169323843 0 -1 0 0 0 -1 forward_v I I I I #
coedge $-1 $163 $164 $165 $166 reversed $61 $-1 #
coedge $-1 $167 $63 $168 $169 forward $39 $-1 #
coedge $-1 $63 $167 $170 $171 reversed $39 $-1 #
coedge $-1 $172 $173 $63 $101 forward $174 $-1 #
edge $-1 $175 4.1239717846429169 $176 19.466955364707658 $100 $177 forward 7 unknown #
face $-1 $178 $179 $23 $-1 $180 reversed single #
loop $-1 $-1 $181 $64 #
plane-surface $-1 0 15.919435359318207 -3.6952561169323843 0 1 0 0 0 1 forward_v I I I I #
coedge $-1 $182 $183 $184 $185 reversed $65 $-1 #
coedge $-1 $186 $67 $187 $188 reversed $42 $-1 #
coedge $-1 $67 $186 $189 $190 forward $42 $-1 #
coedge $-1 $191 $192 $67 $109 forward $179 $-1 #
edge $-1 $193 -19.466955364707665 $194 -4.1239717846429169 $108 $195 forward 7 unknown #
face $-1 $196 $197 $24 $-1 $198 forward single #
loop $-1 $-1 $199 $68 #
plane-surface $-1 53.603738056508803 15.9194353593182 188.62305713640936 0 -1 0 -0.6560590369687036 0 -0.75470957328743171 forward_v I I I I #
coedge $-1 $200 $201 $202 $203 reversed $69 $-1 #
coedge $-1 $115 $71 $204 $205 reversed $45 $-1 #
coedge $-1 $71 $114 $200 $206 reversed $45 $-1 #
coedge $-1 $202 $207 $71 $117 forward $208 $-1 #
edge $-1 $209 80.9898664335321 $210 94.108982447028055 $116 $211 forward 7 unknown #
loop $-1 $-1 $123 $72 #
plane-surface $-1 -34.018695631862954 11.460324441209213 87.824979809548381 0.6560590369687036 0 0.75470957328743171 0.75470957328743171 0 -0.6560590369687036 forward_v I I I I #
loop $-1 $-1 $212 $47 #
coedge $-1 $121 $121 $122 $213 reversed $73 $-1 #
coedge $-1 $122 $122 $121 $213 forward $75 $-1 #
coedge $-1 $123 $123 $76 $124 forward $118 $-1 #
edge $-1 $214 0 $214 6.2831853071796004 $123 $215 forward 7 unknown #
face $-1 $216 $217 $26 $-1 $218 reversed single #
loop $-1 $-1 $219 $77 #
plane-surface $-1 -154.40181538336978 7.0012135231002262 101.0006234480376 0 1 0 -0.6560590369687036 0 0.75470957328743171 forward_v I I I I #
coedge $-1 $220 $221 $222 $223 reversed $78 $-1 #
coedge $-1 $130 $80 $224 $225 reversed $51 $-1 #
coedge $-1 $80 $129 $220 $226 reversed $51 $-1 #
coedge $-1 $222 $227 $80 $132 forward $217 $-1 #
edge $-1 $228 37.178649589346222 $229 50.297765602842176 $131 $230 forward 7 unknown #
loop $-1 $-1 $138 $81 #
plane-surface $-1 -66.779381694998023 11.460324441209213 0.20254612117662418 -0.6560590369687036 0 0.75470957328743171 0.75470957328743171 0 0.6560590369687036 forward_v I I I I #
loop $-1 $-1 $231 $53 #
coedge $-1 $136 $136 $137 $232 reversed $82 $-1 #
coedge $-1 $137 $137 $136 $232 forward $84 $-1 #
coedge $-1 $138 $138 $85 $139 forward $133 $-1 #
edge $-1 $233 0 $233 6.2831853071796004 $138 $234 forward 7 unknown #
face $-1 $235 $236 $21 $-1 $237 reversed single #
loop $-1 $-1 $238 $86 #
plane-surface $-1 -66.779381694998023 0 0 1 0 0 0 0 -1 forward_v I I I I #
coedge $-1 $239 $151 $240 $241 forward $87 $-1 #
coedge $-1 $242 $89 $239 $243 forward $57 $-1 #
coedge $-1 $89 $242 $244 $245 forward $57 $-1 #
coedge $-1 $154 $153 $89 $147 reversed $155 $-1 #
edge $-1 $246 -31.26241893938295 $247 31.26241893938295 $146 $248 forward 7 unknown #
coedge $-1 $91 $90 $249 $250 forward $36 $-1 #
coedge $-1 $251 $252 $90 $150 reversed $236 $-1 #
edge $-1 $157 -66.779381694998023 $253 66.779381694998023 $149 $254 forward 7 unknown #
coedge $-1 $143 $255 $91 $152 reversed $87 $-1 #
edge $-1 $256 -66.779381694998023 $156 66.779381694998023 $151 $257 forward 7 unknown #
coedge $-1 $146 $92 $255 $258 forward $155 $-1 #
coedge $-1 $92 $146 $251 $259 reversed $155 $-1 #
loop $-1 $-1 $153 $235 #
vertex $-1 $93 $260 #
vertex $-1 $93 $261 #
straight-curve $-1 66.779381694998023 0 13.321662134672575 0 1 0 I I #
face $-1 $262 $263 $22 $-1 $264 reversed single #
loop $-1 $-1 $265 $94 #
plane-surface $-1 -66.779381694998023 0 0 1 0 0 0 0 -1 forward_v I I I I #
coedge $-1 $266 $168 $173 $267 reversed $95 $-1 #
coedge $-1 $268 $97 $269 $270 reversed $61 $-1 #
coedge $-1 $97 $268 $266 $271 forward $61 $-1 #
coedge $-1 $173 $172 $97 $166 forward $174 $-1 #
edge $-1 $272 -19.466955364707658 $273 -4.1239717846429169 $165 $274 forward 7 unknown #
coedge $-1 $99 $98 $265 $275 reversed $39 $-1 #
coedge $-1 $162 $276 $98 $169 reversed $95 $-1 #
edge $-1 $175 -66.779381694998023 $277 66.779381694998023 $168 $278 forward 7 unknown #
coedge $-1 $279 $280 $99 $171 forward $263 $-1 #
edge $-1 $176 -66.779381694998023 $281 66.779381694998023 $170 $282 forward 7 unknown #
coedge $-1 $165 $100 $280 $283 forward $174 $-1 #
coedge $-1 $100 $165 $162 $267 forward $174 $-1 #
loop $-1 $-1 $100 $262 #
vertex $-1 $101 $284 #
vertex $-1 $283 $285 #
straight-curve $-1 66.779381694998023 -11.795463574675288 -1.0425918837069394 0 -1 0 I I #
face $-1 $286 $287 $23 $-1 $288 reversed single #
loop $-1 $-1 $108 $102 #
plane-surface $-1 66.779381694998023 0 0 -1 0 0 0 0 1 forward_v I I I I #
coedge $-1 $289 $189 $290 $291 reversed $103 $-1 #
coedge $-1 $292 $105 $289 $293 forward $65 $-1 #
coedge $-1 $105 $292 $294 $295 reversed $65 $-1 #
coedge $-1 $192 $191 $105 $185 forward $179 $-1 #
edge $-1 $296 4.1239717846429169 $297 19.466955364707665 $184 $298 forward 7 unknown #
coedge $-1 $107 $106 $299 $300 reversed $42 $-1 #
coedge $-1 $301 $302 $106 $188 forward $303 $-1 #
edge $-1 $304 -66.779381694998023 $193 66.779381694998023 $187 $305 forward 7 unknown #
coedge $-1 $181 $306 $107 $190 reversed $103 $-1 #
edge $-1 $307 -66.779381694998023 $194 66.779381694998023 $189 $308 forward 7 unknown #
coedge $-1 $184 $108 $306 $309 forward $179 $-1 #
coedge $-1 $108 $184 $301 $310 reversed $179 $-1 #
vertex $-1 $310 $311 #
vertex $-1 $109 $312 #
straight-curve $-1 66.779381694998023 11.79546357467529 -1.0425918837069394 0 -1 0 I I #
face $-1 $-1 $208 $24 $-1 $313 reversed single #
loop $-1 $-1 $314 $110 #
plane-surface $-1 0 0 13.321662134672575 0 0 1 1 0 0 forward_v I I I I #
coedge $-1 $315 $316 $317 $318 reversed $111 $-1 #
coedge $-1 $319 $113 $115 $206 forward $69 $-1 #
coedge $-1 $113 $319 $315 $320 forward $69 $-1 #
coedge $-1 $317 $116 $113 $203 forward $208 $-1 #
edge $-1 $210 1.2710513024956196 $321 10.189273138713594 $202 $322 forward 7 unknown #
coedge $-1 $323 $324 $114 $205 forward $197 $-1 #
edge $-1 $325 24.885696396364025 $209 39.977512666743621 $204 $326 forward 7 unknown #
edge $-1 $210 -133.55876338999607 $325 -113.56191055475071 $115 $327 forward 7 unknown #
coedge $-1 $116 $317 $323 $328 reversed $208 $-1 #
loop $-1 $-1 $317 $196 #
vertex $-1 $328 $329 #
vertex $-1 $117 $330 #
straight-curve $-1 66.779381694998023 7.0012135231002262 94.311528568204679 0 0 -1 I I #
coedge $-1 $212 $212 $-1 $331 reversed $120 $-1 #
edge $-1 $332 0 $332 6.2831853071796004 $121 $333 forward 7 unknown #
vertex $-1 $124 $334 #
ellipse-curve $-1 59.233473559808239 11.460324441209213 6.7621041279246015 0.6560590369687036 0 0.75470957328743171 1.1320643599311475 0 -0.9840885554530554 1 I I #
face $-1 $-1 $335 $26 $-1 $336 forward single #
loop $-1 $-1 $131 $125 #
plane-surface $-1 -66.779381694998023 0 0 1 0 0 0 0 -1 forward_v I I I I #
coedge $-1 $337 $338 $339 $340 reversed $126 $-1 #
coedge $-1 $341 $128 $130 $226 forward $78 $-1 #
coedge $-1 $128 $341 $337 $342 forward $78 $-1 #
coedge $-1 $339 $131 $128 $223 forward $217 $-1 #
edge $-1 $229 -10.189273138713594 $343 -1.2710513024956196 $222 $344 forward 7 unknown #
coedge $-1 $345 $346 $129 $225 forward $335 $-1 #
edge $-1 $347 -25.513342267066449 $228 -10.421525996686867 $224 $348 forward 7 unknown #
edge $-1 $229 0 $347 19.996852835245345 $130 $349 forward 7 unknown #
coedge $-1 $131 $339 $345 $350 reversed $217 $-1 #
vertex $-1 $350 $351 #
vertex $-1 $132 $352 #
straight-curve $-1 -66.779381694998023 15.9194353593182 50.5003117240188 0 0 -1 I I #
coedge $-1 $231 $231 $-1 $353 reversed $135 $-1 #
edge $-1 $354 0 $354 6.2831853071796004 $136 $355 forward 7 unknown #
vertex $-1 $139 $356 #
ellipse-curve $-1 -59.233473559808232 11.460324441209213 6.7621041279245979 -0.6560590369687036 0 0.75470957328743171 1.1320643599311475 0 0.9840885554530554 1 I I #
face $-1 $-1 $155 $21 $-1 $357 reversed single #
loop $-1 $-1 $251 $140 #
plane-surface $-1 0 31.26241893938295 0 0 -1 0 0 0 -1 forward_v I I I I #
coedge $-1 $358 $249 $252 $359 forward $141 $-1 #
coedge $-1 $255 $143 $144 $243 reversed $87 $-1 #
coedge $-1 $249 $358 $143 $241 reversed $141 $-1 #
edge $-1 $256 -13.321662134672575 $360 13.321662134672575 $240 $361 forward 7 unknown #
coedge $-1 $145 $144 $358 $362 forward $57 $-1 #
edge $-1 $247 -66.779381694998023 $360 66.779381694998023 $239 $363 forward 7 unknown #
coedge $-1 $252 $251 $145 $245 reversed $236 $-1 #
edge $-1 $364 -66.779381694998023 $246 66.779381694998023 $244 $365 forward 7 unknown #
vertex $-1 $147 $366 #
vertex $-1 $258 $367 #
straight-curve $-1 66.779381694998023 0 -13.321662134672575 0 -1 0 I I #
coedge $-1 $238 $240 $148 $250 reversed $141 $-1 #
edge $-1 $253 -31.26241893938295 $256 31.26241893938295 $249 $368 forward 7 unknown #
coedge $-1 $244 $149 $154 $259 forward $236 $-1 #
coedge $-1 $149 $244 $238 $359 reversed $236 $-1 #
vertex $-1 $150 $369 #
straight-curve $-1 0 31.26241893938295 13.321662134672575 -1 0 0 I I #
coedge $-1 $151 $239 $153 $258 reversed $87 $-1 #
vertex $-1 $250 $370 #
straight-curve $-1 0 -31.26241893938295 13.321662134672575 1 0 0 I I #
edge $-1 $156 -13.321662134672575 $247 13.321662134672575 $153 $371 forward 7 unknown #
edge $-1 $157 -13.321662134672575 $246 13.321662134672575 $154 $372 forward 7 unknown #
point $-1 66.779381694998023 -31.26241893938295 13.321662134672575 #
point $-1 66.779381694998023 31.26241893938295 13.321662134672575 #
face $-1 $-1 $174 $22 $-1 $373 reversed single #
loop $-1 $-1 $170 $159 #
plane-surface $-1 0 -31.26241893938295 0 0 1 0 0 0 1 forward_v I I I I #
coedge $-1 $374 $375 $167 $275 forward $160 $-1 #
coedge $-1 $276 $162 $164 $271 reversed $95 $-1 #
edge $-1 $273 -4.500292291691637 $175 0.80503617475925271 $173 $376 forward 7 unknown #
coedge $-1 $164 $163 $377 $378 reversed $61 $-1 #
coedge $-1 $280 $279 $163 $270 forward $263 $-1 #
edge $-1 $379 -66.779381694998023 $272 66.779381694998023 $269 $380 forward 7 unknown #
edge $-1 $381 -66.779381694998023 $273 66.779381694998023 $266 $382 forward 7 unknown #
vertex $-1 $270 $383 #
vertex $-1 $166 $384 #
straight-curve $-1 66.779381694998023 -11.795463574675288 -6.3479203501578292 0 1 0 I I #
edge $-1 $281 -19.466955364707658 $277 -4.1239717846429169 $265 $385 forward 7 unknown #
coedge $-1 $168 $266 $374 $386 reversed $95 $-1 #
vertex $-1 $275 $387 #
straight-curve $-1 0 -15.919435359318205 -1.0425918837069394 -1 0 0 I I #
coedge $-1 $269 $170 $375 $388 forward $263 $-1 #
coedge $-1 $170 $269 $172 $283 reversed $263 $-1 #
vertex $-1 $388 $389 #
straight-curve $-1 0 -31.26241893938295 -1.0425918837069394 -1 0 0 I I #
edge $-1 $176 1.0425918837069394 $272 6.3479203501578292 $172 $390 forward 7 unknown #
point $-1 66.779381694998023 -15.919435359318205 -1.0425918837069394 #
point $-1 66.779381694998023 -31.262418939382947 -1.0425918837069394 #
face $-1 $-1 $303 $23 $-1 $391 reversed single #
loop $-1 $-1 $299 $178 #
plane-surface $-1 -66.779381694998023 0 0 1 0 0 0 0 -1 forward_v I I I I #
coedge $-1 $306 $181 $182 $293 reversed $103 $-1 #
coedge $-1 $299 $392 $181 $291 forward $287 $-1 #
edge $-1 $393 -4.500292291691637 $307 0.80503617475925271 $290 $394 forward 7 unknown #
coedge $-1 $183 $182 $392 $395 reversed $65 $-1 #
edge $-1 $296 -66.779381694998023 $393 66.779381694998023 $289 $396 forward 7 unknown #
coedge $-1 $302 $301 $183 $295 forward $303 $-1 #
edge $-1 $297 -66.779381694998023 $397 66.779381694998023 $294 $398 forward 7 unknown #
vertex $-1 $185 $399 #
vertex $-1 $295 $400 #
straight-curve $-1 66.779381694998023 11.79546357467529 -6.3479203501578292 0 1 0 I I #
coedge $-1 $401 $290 $186 $300 forward $287 $-1 #
edge $-1 $307 4.1239717846429169 $304 19.466955364707665 $299 $402 forward 7 unknown #
coedge $-1 $294 $187 $192 $310 forward $303 $-1 #
coedge $-1 $187 $294 $401 $403 reversed $303 $-1 #
loop $-1 $-1 $187 $286 #
vertex $-1 $403 $404 #
straight-curve $-1 0 31.26241893938295 -1.0425918837069394 1 0 0 I I #
coedge $-1 $189 $289 $191 $309 reversed $103 $-1 #
vertex $-1 $300 $405 #
straight-curve $-1 0 15.919435359318207 -1.0425918837069394 1 0 0 I I #
edge $-1 $194 -0.80503617475925271 $296 4.500292291691637 $191 $406 forward 7 unknown #
edge $-1 $193 1.0425918837069394 $297 6.3479203501578292 $192 $407 forward 7 unknown #
point $-1 66.779381694998023 31.262418939382954 -1.0425918837069394 #
point $-1 66.779381694998023 15.919435359318207 -1.0425918837069394 #
plane-surface $-1 66.779381694998023 0 0 -1 0 0 0 0 1 forward_v I I I I #
coedge $-1 $324 $323 $316 $408 forward $197 $-1 #
coedge $-1 $316 $199 $201 $320 reversed $111 $-1 #
coedge $-1 $199 $315 $314 $408 reversed $111 $-1 #
coedge $-1 $207 $202 $199 $318 forward $208 $-1 #
edge $-1 $321 -94.108982447028055 $409 -80.9898664335321 $317 $410 forward 7 unknown #
coedge $-1 $201 $200 $324 $411 reversed $69 $-1 #
edge $-1 $412 113.56191055475071 $321 133.55876338999607 $315 $413 forward 7 unknown #
vertex $-1 $203 $414 #
straight-curve $-1 66.779381694998023 5.7301622206046066 0.20254612117662418 0 1 0 I I #
coedge $-1 $314 $204 $207 $328 forward $197 $-1 #
coedge $-1 $204 $314 $319 $411 forward $197 $-1 #
vertex $-1 $205 $415 #
straight-curve $-1 26.801869028254401 7.0012135231002262 13.321662134672579 1 0 0 I I #
straight-curve $-1 -34.018695631862954 7.0012135231002262 87.824979809548381 -0.75470957328743171 0 0.6560590369687036 I I #
edge $-1 $209 7.0012135231002262 $409 15.9194353593182 $207 $416 forward 7 unknown #
point $-1 66.779381694998023 7.0012135231002262 13.321662134672575 #
point $-1 66.779381694998023 7.0012135231002262 0.20254612117662418 #
edge $-1 $417 1 $417 0 $212 $-1 forward 7 unknown #
vertex $-1 $213 $418 #
ellipse-curve $-1 57.789791292263807 11.460324441209213 5.1013376927340088 0.6560590369687036 0 0.75470957328743171 1.1320643599311475 0 -0.9840885554530554 1 I I #
point $-1 60.365537919739381 11.460324441209213 5.7780155724715492 #
loop $-1 $-1 $224 $216 #
plane-surface $-1 0 0 13.321662134672575 0 0 1 1 0 0 forward_v I I I I #
coedge $-1 $338 $219 $221 $342 reversed $126 $-1 #
coedge $-1 $219 $337 $419 $420 reversed $126 $-1 #
coedge $-1 $227 $222 $219 $340 forward $217 $-1 #
edge $-1 $343 -50.297765602842176 $421 -37.178649589346222 $339 $422 forward 7 unknown #
coedge $-1 $221 $220 $346 $423 reversed $78 $-1 #
edge $-1 $424 -19.996852835245345 $343 0 $337 $425 forward 7 unknown #
vertex $-1 $223 $426 #
straight-curve $-1 -66.779381694998023 5.7301622206046066 0.20254612117662565 0 -1 0 I I #
coedge $-1 $419 $224 $227 $350 forward $335 $-1 #
coedge $-1 $224 $419 $341 $423 forward $335 $-1 #
vertex $-1 $225 $427 #
straight-curve $-1 -77.20090769168489 15.9194353593182 13.321662134672579 -1 0 0 I I #
straight-curve $-1 -66.779381694998023 15.9194353593182 0.20254612117662418 0.75470957328743171 0 0.6560590369687036 I I #
edge $-1 $228 -15.9194353593182 $421 -7.0012135231002262 $227 $428 forward 7 unknown #
point $-1 -66.779381694998023 15.9194353593182 13.321662134672575 #
point $-1 -66.779381694998023 15.9194353593182 0.20254612117662418 #
edge $-1 $429 1 $429 0 $231 $-1 forward 7 unknown #
vertex $-1 $232 $430 #
ellipse-curve $-1 -57.7897912922638 11.460324441209213 5.1013376927340017 -0.6560590369687036 0 0.75470957328743171 1.1320643599311475 0 0.9840885554530554 1 I I #
point $-1 -58.101409199877082 11.460324441209213 7.746192683377652 #
plane-surface $-1 66.779381694998023 0 0 -1 0 0 0 0 1 forward_v I I I I #
coedge $-1 $240 $238 $242 $362 reversed $141 $-1 #
edge $-1 $253 -13.321662134672575 $364 13.321662134672575 $252 $431 forward 7 unknown #
vertex $-1 $362 $432 #
straight-curve $-1 -66.779381694998023 -31.26241893938295 0 0 0 -1 I I #
edge $-1 $360 -31.26241893938295 $364 31.26241893938295 $358 $433 forward 7 unknown #
straight-curve $-1 0 -31.26241893938295 -13.321662134672575 -1 0 0 I I #
vertex $-1 $245 $434 #
straight-curve $-1 0 31.26241893938295 -13.321662134672575 1 0 0 I I #
point $-1 66.779381694998023 31.26241893938295 -13.321662134672575 #
point $-1 66.779381694998023 -31.26241893938295 -13.321662134672575 #
straight-curve $-1 -66.779381694998023 0 13.321662134672575 0 -1 0 I I #
point $-1 -66.779381694998023 31.26241893938295 13.321662134672575 #
point $-1 -66.779381694998023 -31.26241893938295 13.321662134672575 #
straight-curve $-1 66.779381694998023 -31.26241893938295 0 0 0 -1 I I #
straight-curve $-1 66.779381694998023 31.26241893938295 0 0 0 -1 I I #
plane-surface $-1 66.779381694998023 0 0 -1 0 0 0 0 1 forward_v I I I I #
coedge $-1 $377 $265 $276 $386 forward $160 $-1 #
coedge $-1 $265 $377 $279 $388 reversed $160 $-1 #
straight-curve $-1 66.779381694998023 -15.919435359318205 -1.8476280584661922 0 0 1 I I #
coedge $-1 $375 $374 $268 $378 forward $160 $-1 #
edge $-1 $381 4.1239717846429169 $379 19.466955364707658 $377 $435 forward 7 unknown #
vertex $-1 $270 $436 #
straight-curve $-1 0 -31.26241893938295 -6.3479203501578292 1 0 0 I I #
vertex $-1 $378 $437 #
straight-curve $-1 0 -15.919435359318205 -6.3479203501578292 1 0 0 I I #
point $-1 66.779381694998023 -31.262418939382947 -6.3479203501578292 #
point $-1 66.779381694998023 -15.919435359318205 -6.3479203501578292 #
straight-curve $-1 -66.779381694998023 -11.795463574675288 -1.0425918837069394 0 1 0 I I #
edge $-1 $277 -0.80503617475925271 $381 4.500292291691637 $374 $438 forward 7 unknown #
point $-1 -66.779381694998023 -15.919435359318205 -1.0425918837069394 #
edge $-1 $281 1.0425918837069394 $379 6.3479203501578292 $375 $439 forward 7 unknown #
point $-1 -66.779381694998023 -31.262418939382947 -1.0425918837069394 #
straight-curve $-1 66.779381694998023 -31.26241893938295 0 0 0 -1 I I #
plane-surface $-1 0 31.26241893938295 0 0 -1 0 0 0 -1 forward_v I I I I #
coedge $-1 $290 $401 $292 $395 forward $287 $-1 #
vertex $-1 $395 $440 #
straight-curve $-1 -66.779381694998023 15.919435359318207 -1.8476280584661922 0 0 1 I I #
edge $-1 $397 -19.466955364707665 $393 -4.1239717846429169 $392 $441 forward 7 unknown #
straight-curve $-1 0 15.919435359318207 -6.3479203501578292 -1 0 0 I I #
vertex $-1 $295 $442 #
straight-curve $-1 0 31.26241893938295 -6.3479203501578292 -1 0 0 I I #
point $-1 66.779381694998023 15.919435359318207 -6.3479203501578292 #
point $-1 66.779381694998023 31.262418939382954 -6.3479203501578292 #
coedge $-1 $392 $299 $302 $403 forward $287 $-1 #
straight-curve $-1 -66.779381694998023 11.79546357467529 -1.0425918837069394 0 1 0 I I #
edge $-1 $304 1.0425918837069394 $397 6.3479203501578292 $302 $443 forward 7 unknown #
point $-1 -66.779381694998023 31.262418939382954 -1.0425918837069394 #
point $-1 -66.779381694998023 15.919435359318207 -1.0425918837069394 #
straight-curve $-1 66.779381694998023 15.919435359318207 -1.8476280584661922 0 0 -1 I I #
straight-curve $-1 66.779381694998023 31.26241893938295 0 0 0 -1 I I #
edge $-1 $409 -39.977512666743621 $412 -24.885696396364025 $314 $444 forward 7 unknown #
vertex $-1 $408 $445 #
straight-curve $-1 66.779381694998023 15.9194353593182 94.311528568204679 0 0 1 I I #
edge $-1 $412 -10.189273138713594 $325 -1.2710513024956196 $324 $446 forward 7 unknown #
vertex $-1 $411 $447 #
straight-curve $-1 -34.018695631862954 15.9194353593182 87.824979809548381 0.75470957328743171 0 -0.6560590369687036 I I #
point $-1 66.779381694998023 15.9194353593182 0.20254612117662418 #
point $-1 51.687565424618427 7.0012135231002262 13.321662134672579 #
straight-curve $-1 66.779381694998023 0 13.321662134672575 0 1 0 I I #
vertex $-1 $331 $448 #
point $-1 58.921855652194957 11.460324441209213 4.117249137280953 #
coedge $-1 $346 $345 $338 $420 forward $335 $-1 #
edge $-1 $421 10.421525996686867 $424 25.513342267066449 $419 $449 forward 7 unknown #
vertex $-1 $420 $450 #
straight-curve $-1 -66.779381694998023 7.0012135231002262 50.5003117240188 0 0 1 I I #
edge $-1 $424 1.2710513024956196 $347 10.189273138713594 $346 $451 forward 7 unknown #
vertex $-1 $423 $452 #
straight-curve $-1 -66.779381694998023 7.0012135231002262 0.20254612117662418 -0.75470957328743171 0 -0.6560590369687036 I I #
point $-1 -66.779381694998023 7.0012135231002262 0.20254612117662418 #
point $-1 -51.687565424618441 15.9194353593182 13.321662134672575 #
straight-curve $-1 -66.779381694998023 0 13.321662134672575 0 -1 0 I I #
vertex $-1 $353 $453 #
point $-1 -56.65772693233265 11.460324441209213 6.0854262481870567 #
straight-curve $-1 -66.779381694998023 31.26241893938295 0 0 0 -1 I I #
point $-1 -66.779381694998023 -31.26241893938295 -13.321662134672575 #
straight-curve $-1 -66.779381694998023 0 -13.321662134672575 0 1 0 I I #
point $-1 -66.779381694998023 31.26241893938295 -13.321662134672575 #
straight-curve $-1 -66.779381694998023 -11.795463574675288 -6.3479203501578292 0 -1 0 I I #
point $-1 -66.779381694998023 -31.262418939382947 -6.3479203501578292 #
point $-1 -66.779381694998023 -15.919435359318205 -6.3479203501578292 #
straight-curve $-1 -66.779381694998023 -15.919435359318205 -1.8476280584661922 0 0 -1 I I #
straight-curve $-1 -66.779381694998023 -31.26241893938295 0 0 0 -1 I I #
point $-1 -66.779381694998023 15.919435359318207 -6.3479203501578292 #
straight-curve $-1 -66.779381694998023 11.79546357467529 -6.3479203501578292 0 -1 0 I I #
point $-1 -66.779381694998023 31.262418939382954 -6.3479203501578292 #
straight-curve $-1 -66.779381694998023 31.26241893938295 0 0 0 -1 I I #
straight-curve $-1 26.801869028254401 15.9194353593182 13.321662134672579 -1 0 0 I I #
point $-1 66.779381694998023 15.9194353593182 13.321662134672575 #
straight-curve $-1 51.687565424618427 5.7301622206046066 13.321662134672586 0 -1 0 I I #
point $-1 51.687565424618427 15.9194353593182 13.321662134672579 #
point $-1 56.805702736810751 11.460324441209213 3.9692733328028611 #
straight-curve $-1 -77.20090769168489 7.0012135231002262 13.321662134672579 1 0 0 I I #
point $-1 -66.779381694998023 7.0012135231002262 13.321662134672575 #
straight-curve $-1 -51.687565424618441 5.7301622206046066 13.321662134672575 0 1 0 I I #
point $-1 -51.687565424618441 7.0012135231002262 13.321662134672575 #
point $-1 -56.805702736810744 11.460324441209213 3.969273332802854 #
End-of-ACIS-data 