500 0 9 0           
7 Unknown 11 ACIS 5.0 NT 24 Fri Mar 26 02:34:25 1999 
-1 9.9999999999999995e-007 1e-010 
body $-1 $9 $-1 $10 #
body $-1 $11 $-1 $12 #
body $-1 $13 $-1 $14 #
body $-1 $15 $-1 $16 #
body $-1 $17 $-1 $18 #
body $-1 $19 $-1 $20 #
body $-1 $21 $-1 $22 #
body $-1 $23 $-1 $24 #
body $-1 $25 $-1 $26 #
lump $-1 $-1 $27 $0 #
transform $-1 1 0 0 0 1 0 0 0 1 59.429303872798855 24.372416926867611 6.3989960271566542 1 rotate no_reflect no_shear #
lump $-1 $-1 $28 $1 #
transform $-1 1 0 0 0 1 0 0 0 1 59.429303872798855 24.372416926867611 6.3989960271566542 1 rotate no_reflect no_shear #
lump $-1 $-1 $29 $2 #
transform $-1 1 0 0 0 1 0 0 0 1 59.429303872798855 24.372416926867611 6.3989960271566542 1 rotate no_reflect no_shear #
lump $-1 $-1 $30 $3 #
transform $-1 1 0 0 0 1 0 0 0 1 59.429303872798855 24.372416926867611 6.3989960271566542 1 rotate no_reflect no_shear #
lump $-1 $-1 $31 $4 #
transform $-1 1 0 0 0 1 0 0 0 1 59.429303872798855 24.372416926867611 6.3989960271566542 1 rotate no_reflect no_shear #
lump $-1 $-1 $32 $5 #
transform $-1 1 0 0 0 1 0 0 0 1 59.429303872798855 24.372416926867611 6.3989960271566542 1 rotate no_reflect no_shear #
lump $-1 $-1 $33 $6 #
transform $-1 1 0 0 0 1 0 0 0 1 59.429303872798855 24.372416926867611 6.3989960271566542 1 rotate no_reflect no_shear #
lump $-1 $-1 $34 $7 #
transform $-1 1 0 0 0 1 0 0 0 1 59.429303872798855 24.372416926867611 6.3989960271566542 1 rotate no_reflect no_shear #
lump $-1 $-1 $35 $8 #
transform $-1 1 0 0 0 1 0 0 0 1 59.429303872798855 24.372416926867611 6.3989960271566542 1 rotate no_reflect no_shear #
shell $-1 $-1 $-1 $36 $-1 $9 #
shell $-1 $-1 $-1 $37 $-1 $11 #
shell $-1 $-1 $-1 $38 $-1 $13 #
shell $-1 $-1 $-1 $39 $-1 $15 #
shell $-1 $-1 $-1 $40 $-1 $17 #
shell $-1 $-1 $-1 $41 $-1 $19 #
shell $-1 $-1 $-1 $42 $-1 $21 #
shell $-1 $-1 $-1 $43 $-1 $23 #
shell $-1 $-1 $-1 $44 $-1 $25 #
face $-1 $45 $46 $27 $-1 $47 forward single #
face $-1 $48 $49 $28 $-1 $50 reversed single #
face $-1 $51 $52 $29 $-1 $53 reversed single #
face $-1 $54 $55 $30 $-1 $56 reversed single #
face $-1 $57 $58 $31 $-1 $59 forward single #
face $-1 $60 $61 $32 $-1 $62 forward single #
face $-1 $63 $64 $33 $-1 $65 reversed single #
face $-1 $66 $67 $34 $-1 $68 forward single #
face $-1 $69 $70 $35 $-1 $71 forward single #
face $-1 $72 $73 $27 $-1 $74 reversed single #
loop $-1 $-1 $75 $36 #
plane-surface $-1 0 0 6.3989960271566542 0 0 1 1 0 0 forward_v I I I I #
face $-1 $76 $77 $28 $-1 $78 reversed single #
loop $-1 $-1 $79 $37 #
plane-surface $-1 -57.282190444345325 0 3.3989960271566542 0 0 1 1 0 0 forward_v I I I I #
face $-1 $80 $81 $29 $-1 $82 reversed single #
loop $-1 $-1 $83 $38 #
plane-surface $-1 55.135077015891788 0 4.8989960271566542 1 0 0 0 0 -1 forward_v I I I I #
face $-1 $84 $85 $30 $-1 $86 reversed single #
loop $-1 $-1 $87 $39 #
plane-surface $-1 -42.407416990381151 -92.546914465860681 100.31258744025568 -1 0 0 0 -0.57357644374324357 0.81915203911291934 forward_v I I I I #
face $-1 $88 $89 $31 $-1 $90 forward single #
loop $-1 $91 $92 $40 #
cone-surface $-1 -51.498602722888755 -20.36157894110946 2.4640807318089193 0 0.57357644374324357 -0.81915203911291934 1.5 0 0 1 I I 0 1 1.5 forward I I I I #
face $-1 $93 $94 $32 $-1 $95 forward single #
loop $-1 $96 $97 $41 #
cone-surface $-1 -46.043891283384191 -20.36157894110946 2.4640807318089193 0 0.57357644374324357 -0.81915203911291934 1.5 0 0 1 I I 0 1 1.5 forward I I I I #
face $-1 $98 $99 $33 $-1 $100 reversed single #
loop $-1 $-1 $101 $42 #
plane-surface $-1 48.77124700313648 -24.372416926867601 2.9493165393266878 0 -0.57357644374324357 0.81915203911291934 1 0 0 forward_v I I I I #
face $-1 $102 $103 $34 $-1 $104 forward single #
loop $-1 $105 $106 $43 #
cone-surface $-1 46.043891283384198 -20.36157894110946 2.4640807318089193 0 0.57357644374324357 -0.81915203911291934 1.5 0 0 1 I I 0 1 1.5 forward I I I I #
face $-1 $107 $108 $35 $-1 $109 forward single #
loop $-1 $110 $111 $44 #
cone-surface $-1 51.498602722888748 -20.36157894110946 2.4640807318089193 0 0.57357644374324357 -0.81915203911291934 1.5 0 0 1 I I 0 1 1.5 forward I I I I #
face $-1 $112 $113 $27 $-1 $114 reversed single #
loop $-1 $-1 $115 $45 #
plane-surface $-1 0 0 -6.3989960271566542 0 0 1 1 0 0 forward_v I I I I #
coedge $-1 $116 $117 $118 $119 forward $46 $-1 #
face $-1 $120 $121 $28 $-1 $122 reversed single #
loop $-1 $-1 $123 $48 #
plane-surface $-1 -55.135077015891795 0 4.8989960271566542 -1 0 0 0 0 1 forward_v I I I I #
coedge $-1 $124 $125 $123 $126 forward $49 $-1 #
face $-1 $127 $128 $29 $-1 $129 forward single #
loop $-1 $-1 $130 $51 #
plane-surface $-1 57.282190444345318 0 3.3989960271566542 0 0 1 1 0 0 forward_v I I I I #
coedge $-1 $131 $132 $133 $134 reversed $52 $-1 #
face $-1 $135 $136 $30 $-1 $137 forward single #
loop $-1 $-1 $138 $54 #
plane-surface $-1 -48.771247003136473 -24.372416926867601 2.9493165393266878 0 -0.57357644374324357 0.81915203911291934 1 0 0 forward_v I I I I #
coedge $-1 $139 $140 $141 $142 reversed $55 $-1 #
face $-1 $-1 $143 $31 $-1 $144 forward single #
loop $-1 $145 $146 $57 #
cone-surface $-1 -51.498602722888755 -18.383885017453206 -0.3603588489585281 0 0.57357644374324357 -0.81915203911291934 0.75 0 0 1 I I -0.70710678118654757 0.70710678118654757 0.75 forward I I I I #
loop $-1 $-1 $147 $40 #
coedge $-1 $92 $92 $148 $149 reversed $58 $-1 #
face $-1 $-1 $150 $32 $-1 $151 forward single #
loop $-1 $152 $153 $60 #
cone-surface $-1 -46.043891283384191 -18.383885017453206 -0.3603588489585281 0 0.57357644374324357 -0.81915203911291934 0.75 0 0 1 I I -0.70710678118654757 0.70710678118654757 0.75 forward I I I I #
loop $-1 $-1 $154 $41 #
coedge $-1 $97 $97 $155 $156 reversed $61 $-1 #
face $-1 $157 $158 $33 $-1 $159 reversed single #
loop $-1 $-1 $160 $63 #
plane-surface $-1 42.407416990381158 -92.546914465860681 100.31258744025568 1 0 0 0 0.57357644374324357 -0.81915203911291934 forward_v I I I I #
coedge $-1 $161 $162 $163 $164 reversed $64 $-1 #
face $-1 $-1 $165 $34 $-1 $166 forward single #
loop $-1 $167 $168 $66 #
cone-surface $-1 46.043891283384198 -18.383885017453206 -0.3603588489585281 0 0.57357644374324357 -0.81915203911291934 0.75 0 0 1 I I -0.70710678118654757 0.70710678118654757 0.75 forward I I I I #
loop $-1 $-1 $169 $43 #
coedge $-1 $106 $106 $170 $171 reversed $67 $-1 #
face $-1 $-1 $172 $35 $-1 $173 forward single #
loop $-1 $174 $175 $69 #
cone-surface $-1 51.498602722888748 -18.383885017453206 -0.3603588489585281 0 0.57357644374324357 -0.81915203911291934 0.75 0 0 1 I I -0.70710678118654757 0.70710678118654757 0.75 forward I I I I #
loop $-1 $-1 $176 $44 #
coedge $-1 $111 $111 $177 $178 reversed $70 $-1 #
face $-1 $179 $180 $27 $-1 $181 reversed single #
loop $-1 $-1 $182 $72 #
plane-surface $-1 0 -24.372416926867611 0 0 1 0 0 0 1 forward_v I I I I #
coedge $-1 $183 $184 $185 $186 forward $73 $-1 #
coedge $-1 $187 $75 $188 $189 forward $46 $-1 #
coedge $-1 $75 $187 $190 $191 forward $46 $-1 #
coedge $-1 $192 $193 $75 $119 reversed $194 $-1 #
edge $-1 $195 -24.372416926867611 $196 24.372416926867611 $118 $197 forward 7 unknown #
face $-1 $198 $199 $28 $-1 $200 reversed single #
loop $-1 $-1 $201 $76 #
plane-surface $-1 0 24.372416926867611 0 0 -1 0 0 0 -1 forward_v I I I I #
coedge $-1 $202 $203 $79 $126 reversed $77 $-1 #
coedge $-1 $204 $79 $205 $206 reversed $49 $-1 #
coedge $-1 $79 $204 $207 $208 reversed $49 $-1 #
edge $-1 $209 -24.372416926867611 $210 24.372416926867611 $123 $211 forward 7 unknown #
face $-1 $212 $213 $29 $-1 $214 reversed single #
loop $-1 $-1 $133 $80 #
plane-surface $-1 0 0 6.3989960271566542 0 0 1 1 0 0 forward_v I I I I #
coedge $-1 $215 $216 $217 $218 reversed $81 $-1 #
coedge $-1 $219 $83 $220 $221 reversed $52 $-1 #
coedge $-1 $83 $219 $222 $223 reversed $52 $-1 #
coedge $-1 $224 $225 $83 $134 forward $128 $-1 #
edge $-1 $226 -24.372416926867611 $227 24.372416926867611 $133 $228 forward 7 unknown #
face $-1 $229 $230 $30 $-1 $231 forward single #
loop $-1 $-1 $141 $84 #
plane-surface $-1 0 0 6.3989960271566542 0 0 1 1 0 0 forward_v I I I I #
coedge $-1 $232 $233 $234 $235 reversed $85 $-1 #
coedge $-1 $140 $87 $236 $237 reversed $55 $-1 #
coedge $-1 $87 $139 $232 $238 reversed $55 $-1 #
coedge $-1 $234 $239 $87 $142 forward $136 $-1 #
edge $-1 $240 21.901040306062729 $241 26.827693095881422 $141 $242 forward 7 unknown #
loop $-1 $-1 $148 $88 #
plane-surface $-1 -48.771247003136473 -24.372416926867601 2.9493165393266878 0 -0.57357644374324357 0.81915203911291934 1 0 0 forward_v I I I I #
loop $-1 $-1 $243 $57 #
coedge $-1 $146 $146 $147 $244 reversed $89 $-1 #
coedge $-1 $147 $147 $146 $244 forward $91 $-1 #
coedge $-1 $148 $148 $92 $149 forward $143 $-1 #
edge $-1 $245 -3.8641763534927039e-016 $245 6.2831853071796004 $148 $246 forward 7 unknown #
loop $-1 $-1 $155 $93 #
plane-surface $-1 -48.771247003136473 -24.372416926867601 2.9493165393266878 0 -0.57357644374324357 0.81915203911291934 1 0 0 forward_v I I I I #
loop $-1 $-1 $247 $60 #
coedge $-1 $153 $153 $154 $248 reversed $94 $-1 #
coedge $-1 $154 $154 $153 $248 forward $96 $-1 #
coedge $-1 $155 $155 $97 $156 forward $150 $-1 #
edge $-1 $249 -3.8641763534927039e-016 $249 6.2831853071796004 $155 $250 forward 7 unknown #
face $-1 $251 $252 $33 $-1 $253 forward single #
loop $-1 $-1 $254 $98 #
plane-surface $-1 0 -24.372416926867611 0 0 1 0 0 0 1 forward_v I I I I #
coedge $-1 $255 $256 $257 $258 reversed $99 $-1 #
coedge $-1 $259 $101 $260 $261 reversed $64 $-1 #
coedge $-1 $101 $259 $255 $262 forward $64 $-1 #
coedge $-1 $257 $263 $101 $164 forward $252 $-1 #
edge $-1 $264 -30.749453514323562 $265 -18.021793488812918 $163 $266 forward 7 unknown #
loop $-1 $-1 $170 $102 #
plane-surface $-1 48.77124700313648 -24.372416926867601 2.9493165393266878 0 -0.57357644374324357 0.81915203911291934 1 0 0 forward_v I I I I #
loop $-1 $-1 $267 $66 #
coedge $-1 $168 $168 $169 $268 reversed $103 $-1 #
coedge $-1 $169 $169 $168 $268 forward $105 $-1 #
coedge $-1 $170 $170 $106 $171 forward $165 $-1 #
edge $-1 $269 -3.8641763534927039e-016 $269 6.2831853071796004 $170 $270 forward 7 unknown #
loop $-1 $-1 $177 $107 #
plane-surface $-1 48.77124700313648 -24.372416926867601 2.9493165393266878 0 -0.57357644374324357 0.81915203911291934 1 0 0 forward_v I I I I #
loop $-1 $-1 $271 $69 #
coedge $-1 $175 $175 $176 $272 reversed $108 $-1 #
coedge $-1 $176 $176 $175 $272 forward $110 $-1 #
coedge $-1 $177 $177 $111 $178 forward $172 $-1 #
edge $-1 $273 -3.8641763534927039e-016 $273 6.2831853071796004 $177 $274 forward 7 unknown #
face $-1 $275 $276 $27 $-1 $277 reversed single #
loop $-1 $-1 $278 $112 #
plane-surface $-1 -59.429303872798855 0 0 1 0 0 0 0 -1 forward_v I I I I #
coedge $-1 $279 $190 $280 $281 forward $113 $-1 #
coedge $-1 $282 $115 $279 $283 forward $73 $-1 #
coedge $-1 $115 $282 $284 $285 forward $73 $-1 #
coedge $-1 $193 $192 $115 $186 reversed $194 $-1 #
edge $-1 $286 -24.372416926867611 $287 24.372416926867611 $185 $288 forward 7 unknown #
coedge $-1 $117 $116 $289 $290 forward $46 $-1 #
coedge $-1 $291 $292 $116 $189 reversed $276 $-1 #
edge $-1 $196 -59.429303872798855 $293 59.429303872798855 $188 $294 forward 7 unknown #
coedge $-1 $182 $295 $117 $191 reversed $113 $-1 #
edge $-1 $296 -59.429303872798855 $195 59.429303872798855 $190 $297 forward 7 unknown #
coedge $-1 $185 $118 $295 $298 forward $194 $-1 #
coedge $-1 $118 $185 $291 $299 reversed $194 $-1 #
loop $-1 $-1 $192 $275 #
vertex $-1 $119 $300 #
vertex $-1 $119 $301 #
straight-curve $-1 59.429303872798855 0 6.3989960271566542 0 1 0 I I #
face $-1 $302 $303 $28 $-1 $304 forward single #
loop $-1 $-1 $305 $120 #
plane-surface $-1 -59.429303872798855 0 0 1 0 0 0 0 -1 forward_v I I I I #
coedge $-1 $207 $306 $202 $307 forward $121 $-1 #
coedge $-1 $308 $123 $201 $307 reversed $77 $-1 #
coedge $-1 $123 $308 $309 $310 reversed $77 $-1 #
coedge $-1 $125 $124 $305 $311 reversed $49 $-1 #
coedge $-1 $309 $312 $124 $206 forward $313 $-1 #
edge $-1 $314 -30.788208650626192 $210 -26.493981793719133 $205 $315 forward 7 unknown #
coedge $-1 $316 $201 $125 $208 forward $121 $-1 #
edge $-1 $209 26.493981793719133 $317 30.788208650626192 $207 $318 forward 7 unknown #
vertex $-1 $208 $319 #
vertex $-1 $206 $320 #
straight-curve $-1 -55.135077015891795 0 3.3989960271566542 0 -1 0 I I #
face $-1 $321 $322 $29 $-1 $323 reversed single #
loop $-1 $-1 $222 $127 #
plane-surface $-1 0 -24.372416926867611 0 0 1 0 0 0 1 forward_v I I I I #
coedge $-1 $324 $130 $325 $326 reversed $81 $-1 #
coedge $-1 $130 $324 $327 $328 reversed $81 $-1 #
coedge $-1 $329 $330 $130 $218 forward $331 $-1 #
edge $-1 $332 -24.372416926867611 $333 24.372416926867611 $217 $334 forward 7 unknown #
coedge $-1 $132 $131 $324 $335 reversed $52 $-1 #
coedge $-1 $336 $327 $131 $221 forward $322 $-1 #
edge $-1 $337 0.94949801357832708 $226 3.9494980135783271 $220 $338 forward 7 unknown #
coedge $-1 $325 $339 $132 $223 forward $213 $-1 #
edge $-1 $227 -3.9494980135783271 $340 -0.94949801357832708 $222 $341 forward 7 unknown #
coedge $-1 $342 $133 $339 $343 forward $128 $-1 #
coedge $-1 $133 $342 $336 $344 forward $128 $-1 #
vertex $-1 $221 $345 #
vertex $-1 $343 $346 #
straight-curve $-1 55.135077015891788 0 6.3989960271566542 0 -1 0 I I #
face $-1 $-1 $347 $30 $-1 $348 reversed single #
loop $-1 $-1 $349 $135 #
plane-surface $-1 -55.135077015891795 0 4.8989960271566542 -1 0 0 0 0 1 forward_v I I I I #
coedge $-1 $350 $138 $140 $238 forward $85 $-1 #
coedge $-1 $138 $350 $349 $351 forward $85 $-1 #
coedge $-1 $352 $141 $138 $235 forward $136 $-1 #
edge $-1 $241 18.021793488812914 $353 30.749453514323559 $234 $354 forward 7 unknown #
coedge $-1 $355 $356 $139 $237 forward $347 $-1 #
edge $-1 $357 -47.206977180801161 $240 -43.757297692971186 $236 $358 forward 7 unknown #
edge $-1 $241 -6.0143325714648519 $357 1.3060862827860654e-014 $140 $359 forward 7 unknown #
coedge $-1 $141 $352 $355 $360 forward $136 $-1 #
vertex $-1 $237 $361 #
vertex $-1 $142 $362 #
straight-curve $-1 -42.407416990381151 -46.27345723293034 6.3989960271566559 0 1 0 I I #
coedge $-1 $243 $243 $-1 $363 reversed $145 $-1 #
edge $-1 $364 0 $364 6.2831853071796004 $146 $365 forward 7 unknown #
vertex $-1 $149 $366 #
ellipse-curve $-1 -51.498602722888755 -21.90909053195827 4.674156283241663 0 -0.57357644374324357 0.81915203911291934 1.5 0 0 1 I I #
coedge $-1 $247 $247 $-1 $367 reversed $152 $-1 #
edge $-1 $368 0 $368 6.2831853071796004 $153 $369 forward 7 unknown #
vertex $-1 $156 $370 #
ellipse-curve $-1 -46.043891283384191 -21.90909053195827 4.674156283241663 0 -0.57357644374324357 0.81915203911291934 1.5 0 0 1 I I #
face $-1 $-1 $371 $33 $-1 $372 forward single #
loop $-1 $-1 $257 $157 #
plane-surface $-1 0 0 6.3989960271566542 0 0 1 1 0 0 forward_v I I I I #
coedge $-1 $373 $374 $256 $375 forward $158 $-1 #
coedge $-1 $256 $160 $162 $262 reversed $99 $-1 #
coedge $-1 $160 $255 $254 $375 reversed $99 $-1 #
coedge $-1 $376 $163 $160 $258 forward $252 $-1 #
edge $-1 $265 -26.827693095881422 $377 -21.901040306062729 $257 $378 forward 7 unknown #
coedge $-1 $162 $161 $373 $379 reversed $64 $-1 #
coedge $-1 $380 $381 $161 $261 forward $371 $-1 #
edge $-1 $382 -10.541502625411256 $264 -4.5271700539463913 $260 $383 forward 7 unknown #
edge $-1 $384 -1.3060862827860654e-014 $265 6.0143325714648519 $255 $385 forward 7 unknown #
coedge $-1 $163 $376 $380 $386 forward $252 $-1 #
vertex $-1 $261 $387 #
vertex $-1 $164 $388 #
straight-curve $-1 24.38562350156824 -19.445764137048918 6.3989960271566542 -1 0 0 I I #
coedge $-1 $267 $267 $-1 $389 reversed $167 $-1 #
edge $-1 $390 0 $390 6.2831853071796004 $168 $391 forward 7 unknown #
vertex $-1 $171 $392 #
ellipse-curve $-1 46.043891283384198 -21.90909053195827 4.674156283241663 0 -0.57357644374324357 0.81915203911291934 1.5 0 0 1 I I #
coedge $-1 $271 $271 $-1 $393 reversed $174 $-1 #
edge $-1 $394 0 $394 6.2831853071796004 $175 $395 forward 7 unknown #
vertex $-1 $178 $396 #
ellipse-curve $-1 51.498602722888748 -21.90909053195827 4.674156283241663 0 -0.57357644374324357 0.81915203911291934 1.5 0 0 1 I I #
face $-1 $-1 $194 $27 $-1 $397 reversed single #
loop $-1 $-1 $291 $179 #
plane-surface $-1 0 24.372416926867611 0 0 -1 0 0 0 -1 forward_v I I I I #
coedge $-1 $398 $289 $292 $399 forward $180 $-1 #
coedge $-1 $295 $182 $183 $283 reversed $113 $-1 #
coedge $-1 $289 $398 $182 $281 reversed $180 $-1 #
edge $-1 $296 -6.3989960271566542 $400 6.3989960271566542 $280 $401 forward 7 unknown #
coedge $-1 $184 $183 $398 $402 forward $73 $-1 #
edge $-1 $287 -59.429303872798855 $400 59.429303872798855 $279 $403 forward 7 unknown #
coedge $-1 $292 $291 $184 $285 reversed $276 $-1 #
edge $-1 $404 -59.429303872798855 $286 59.429303872798855 $284 $405 forward 7 unknown #
vertex $-1 $186 $406 #
vertex $-1 $298 $407 #
straight-curve $-1 59.429303872798855 0 -6.3989960271566542 0 -1 0 I I #
coedge $-1 $278 $280 $187 $290 reversed $180 $-1 #
edge $-1 $293 -24.372416926867611 $296 24.372416926867611 $289 $408 forward 7 unknown #
coedge $-1 $284 $188 $193 $299 forward $276 $-1 #
coedge $-1 $188 $284 $278 $399 reversed $276 $-1 #
vertex $-1 $189 $409 #
straight-curve $-1 0 24.372416926867611 6.3989960271566542 -1 0 0 I I #
coedge $-1 $190 $279 $192 $298 reversed $113 $-1 #
vertex $-1 $290 $410 #
straight-curve $-1 0 -24.372416926867611 6.3989960271566542 1 0 0 I I #
edge $-1 $195 -6.3989960271566542 $287 6.3989960271566542 $192 $411 forward 7 unknown #
edge $-1 $196 -6.3989960271566542 $286 6.3989960271566542 $193 $412 forward 7 unknown #
point $-1 59.429303872798855 -24.372416926867611 6.3989960271566542 #
point $-1 59.429303872798855 24.372416926867611 6.3989960271566542 #
face $-1 $-1 $313 $28 $-1 $413 reversed single #
loop $-1 $-1 $414 $198 #
plane-surface $-1 0 0 6.3989960271566542 0 0 1 1 0 0 forward_v I I I I #
coedge $-1 $415 $416 $204 $311 forward $199 $-1 #
coedge $-1 $201 $316 $417 $418 reversed $121 $-1 #
edge $-1 $419 -3.9494980135783271 $209 -0.94949801357832708 $201 $420 forward 7 unknown #
coedge $-1 $203 $202 $414 $421 reversed $77 $-1 #
coedge $-1 $422 $205 $203 $310 forward $313 $-1 #
edge $-1 $210 0.94949801357832708 $423 3.9494980135783271 $309 $424 forward 7 unknown #
edge $-1 $317 -24.372416926867611 $314 24.372416926867611 $305 $425 forward 7 unknown #
coedge $-1 $205 $422 $415 $426 forward $313 $-1 #
loop $-1 $-1 $309 $302 #
vertex $-1 $311 $427 #
straight-curve $-1 -28.641095222172662 -24.372416926867611 3.3989960271566542 1 0 0 I I #
coedge $-1 $306 $207 $416 $428 reversed $121 $-1 #
vertex $-1 $311 $429 #
straight-curve $-1 -28.641095222172662 24.372416926867611 3.3989960271566542 -1 0 0 I I #
point $-1 -55.135077015891795 24.372416926867611 3.3989960271566542 #
point $-1 -55.135077015891795 -24.372416926867611 3.3989960271566542 #
face $-1 $-1 $331 $29 $-1 $430 reversed single #
loop $-1 $-1 $220 $212 #
plane-surface $-1 0 24.372416926867611 0 0 -1 0 0 0 -1 forward_v I I I I #
coedge $-1 $216 $215 $219 $335 forward $81 $-1 #
coedge $-1 $431 $222 $215 $326 forward $213 $-1 #
edge $-1 $340 26.493981793719129 $332 30.788208650626189 $325 $432 forward 7 unknown #
coedge $-1 $220 $433 $216 $328 forward $322 $-1 #
edge $-1 $333 -30.788208650626189 $337 -26.493981793719129 $327 $434 forward 7 unknown #
coedge $-1 $435 $217 $433 $436 reversed $331 $-1 #
coedge $-1 $217 $435 $431 $437 forward $331 $-1 #
loop $-1 $-1 $217 $321 #
vertex $-1 $326 $438 #
vertex $-1 $218 $439 #
straight-curve $-1 59.429303872798855 0 3.3989960271566542 0 1 0 I I #
edge $-1 $340 -24.372416926867611 $337 24.372416926867611 $219 $440 forward 7 unknown #
coedge $-1 $433 $220 $225 $344 reversed $322 $-1 #
vertex $-1 $328 $441 #
straight-curve $-1 55.135077015891788 24.372416926867611 2.4494980135783271 0 0 1 I I #
coedge $-1 $222 $431 $224 $343 reversed $213 $-1 #
vertex $-1 $326 $442 #
straight-curve $-1 55.135077015891788 -24.372416926867611 2.4494980135783271 0 0 -1 I I #
coedge $-1 $225 $224 $435 $443 forward $128 $-1 #
edge $-1 $227 55.135077015891788 $444 59.429303872798855 $339 $445 forward 7 unknown #
edge $-1 $446 -59.429303872798855 $226 -55.135077015891788 $336 $447 forward 7 unknown #
point $-1 55.135077015891788 24.372416926867611 6.3989960271566542 #
point $-1 55.135077015891788 -24.372416926867611 6.3989960271566542 #
loop $-1 $-1 $236 $229 #
plane-surface $-1 0 -24.372416926867611 0 0 1 0 0 0 1 forward_v I I I I #
coedge $-1 $448 $449 $233 $351 reversed $230 $-1 #
coedge $-1 $233 $232 $356 $450 reversed $85 $-1 #
edge $-1 $451 -1.3060862827860654e-014 $353 6.0143325714648519 $349 $452 forward 7 unknown #
coedge $-1 $239 $234 $449 $453 forward $136 $-1 #
vertex $-1 $453 $454 #
straight-curve $-1 -24.385623501568237 -19.445764137048918 6.3989960271566542 -1 0 0 I I #
coedge $-1 $455 $236 $239 $360 reversed $347 $-1 #
coedge $-1 $236 $455 $350 $450 forward $347 $-1 #
vertex $-1 $237 $456 #
straight-curve $-1 -42.407416990381151 -24.372416926867608 50.156293720127842 0 0 1 I I #
straight-curve $-1 -42.407416990381151 -24.372416926867601 2.9493165393266878 0 -0.81915203911291934 -0.57357644374324357 I I #
edge $-1 $457 -55.135077015891795 $240 -42.407416990381151 $355 $458 forward 7 unknown #
point $-1 -42.407416990381151 -24.372416926867611 6.3989960271566542 #
point $-1 -42.407416990381151 -19.445764137048918 6.3989960271566542 #
edge $-1 $459 1 $459 0 $243 $-1 forward 7 unknown #
vertex $-1 $244 $460 #
ellipse-curve $-1 -51.498602722888755 -18.81406735026064 0.25400518037616138 0 -0.57357644374324357 0.81915203911291934 1.5 0 0 1 I I #
point $-1 -49.998602722888755 -21.909090531958281 4.6741562832416772 #
edge $-1 $461 1 $461 0 $247 $-1 forward 7 unknown #
vertex $-1 $248 $462 #
ellipse-curve $-1 -46.043891283384191 -18.81406735026064 0.25400518037616138 0 -0.57357644374324357 0.81915203911291934 1.5 0 0 1 I I #
point $-1 -44.543891283384191 -21.909090531958281 4.6741562832416772 #
loop $-1 $-1 $260 $251 #
plane-surface $-1 55.135077015891788 0 4.8989960271566542 1 0 0 0 0 -1 forward_v I I I I #
coedge $-1 $463 $254 $259 $379 forward $158 $-1 #
coedge $-1 $254 $463 $376 $464 reversed $158 $-1 #
edge $-1 $377 43.757297692971186 $384 47.206977180801161 $254 $465 forward 7 unknown #
coedge $-1 $263 $257 $374 $464 forward $252 $-1 #
vertex $-1 $464 $466 #
straight-curve $-1 42.407416990381158 -46.27345723293034 6.3989960271566559 0 -1 0 I I #
edge $-1 $384 18.021793488812918 $382 30.749453514323562 $373 $467 forward 7 unknown #
coedge $-1 $381 $260 $263 $386 reversed $371 $-1 #
coedge $-1 $260 $380 $463 $468 reversed $371 $-1 #
vertex $-1 $468 $469 #
straight-curve $-1 55.135077015891788 -15.737323555947787 8.9956741269201341 0 0.81915203911291934 0.57357644374324357 I I #
vertex $-1 $379 $470 #
straight-curve $-1 42.407416990381158 -24.372416926867601 2.9493165393266878 0 0.81915203911291934 0.57357644374324357 I I #
edge $-1 $471 -24.372416926867611 $264 -19.445764137048918 $263 $472 forward 7 unknown #
point $-1 55.135077015891802 -19.445764137048918 6.3989960271566542 #
point $-1 42.407416990381158 -19.445764137048918 6.3989960271566542 #
edge $-1 $473 1 $473 0 $267 $-1 forward 7 unknown #
vertex $-1 $268 $474 #
ellipse-curve $-1 46.043891283384198 -18.81406735026064 0.25400518037616138 0 -0.57357644374324357 0.81915203911291934 1.5 0 0 1 I I #
point $-1 47.543891283384198 -21.909090531958281 4.6741562832416772 #
edge $-1 $475 1 $475 0 $271 $-1 forward 7 unknown #
vertex $-1 $272 $476 #
ellipse-curve $-1 51.498602722888748 -18.81406735026064 0.25400518037616138 0 -0.57357644374324357 0.81915203911291934 1.5 0 0 1 I I #
point $-1 52.998602722888748 -21.909090531958281 4.6741562832416772 #
plane-surface $-1 59.429303872798855 0 0 -1 0 0 0 0 1 forward_v I I I I #
coedge $-1 $280 $278 $282 $402 reversed $180 $-1 #
edge $-1 $293 -6.3989960271566542 $404 6.3989960271566542 $292 $477 forward 7 unknown #
vertex $-1 $402 $478 #
straight-curve $-1 -59.429303872798855 -24.372416926867611 0 0 0 -1 I I #
edge $-1 $400 -24.372416926867611 $404 24.372416926867611 $398 $479 forward 7 unknown #
straight-curve $-1 0 -24.372416926867611 -6.3989960271566542 -1 0 0 I I #
vertex $-1 $285 $480 #
straight-curve $-1 0 24.372416926867611 -6.3989960271566542 1 0 0 I I #
point $-1 59.429303872798855 24.372416926867611 -6.3989960271566542 #
point $-1 59.429303872798855 -24.372416926867611 -6.3989960271566542 #
straight-curve $-1 -59.429303872798855 0 6.3989960271566542 0 -1 0 I I #
point $-1 -59.429303872798855 24.372416926867611 6.3989960271566542 #
point $-1 -59.429303872798855 -24.372416926867611 6.3989960271566542 #
straight-curve $-1 59.429303872798855 -24.372416926867611 0 0 0 -1 I I #
straight-curve $-1 59.429303872798855 24.372416926867611 0 0 0 -1 I I #
plane-surface $-1 0 -24.372416926867611 0 0 1 0 0 0 1 forward_v I I I I #
coedge $-1 $417 $481 $308 $421 forward $303 $-1 #
coedge $-1 $482 $305 $312 $426 reversed $199 $-1 #
coedge $-1 $305 $482 $316 $428 forward $199 $-1 #
coedge $-1 $483 $414 $306 $418 forward $303 $-1 #
edge $-1 $419 55.135077015891795 $484 59.429303872798855 $306 $485 forward 7 unknown #
vertex $-1 $418 $486 #
straight-curve $-1 -55.135077015891795 24.372416926867611 2.4494980135783271 0 0 -1 I I #
edge $-1 $423 -24.372416926867611 $419 24.372416926867611 $414 $487 forward 7 unknown #
coedge $-1 $312 $309 $481 $488 reversed $313 $-1 #
vertex $-1 $310 $489 #
straight-curve $-1 -55.135077015891795 -24.372416926867611 2.4494980135783271 0 0 1 I I #
straight-curve $-1 -59.429303872798855 0 3.3989960271566542 0 -1 0 I I #
edge $-1 $490 -6.3989960271566542 $314 -3.3989960271566542 $415 $491 forward 7 unknown #
point $-1 -59.429303872798855 -24.372416926867611 3.3989960271566542 #
edge $-1 $484 -6.3989960271566542 $317 -3.3989960271566542 $316 $492 forward 7 unknown #
point $-1 -59.429303872798855 24.372416926867611 3.3989960271566542 #
plane-surface $-1 59.429303872798855 0 0 -1 0 0 0 0 1 forward_v I I I I #
coedge $-1 $339 $325 $330 $437 reversed $213 $-1 #
straight-curve $-1 28.641095222172659 -24.372416926867611 3.3989960271566542 1 0 0 I I #
coedge $-1 $327 $336 $329 $436 forward $322 $-1 #
straight-curve $-1 28.641095222172659 24.372416926867611 3.3989960271566542 -1 0 0 I I #
coedge $-1 $330 $329 $342 $443 reversed $331 $-1 #
edge $-1 $446 -6.3989960271566542 $333 -3.3989960271566542 $329 $493 forward 7 unknown #
edge $-1 $444 -6.3989960271566542 $332 -3.3989960271566542 $330 $494 forward 7 unknown #
point $-1 59.429303872798847 -24.372416926867611 3.3989960271566542 #
point $-1 59.429303872798847 24.372416926867611 3.3989960271566542 #
straight-curve $-1 55.135077015891788 0 3.3989960271566542 0 1 0 I I #
point $-1 55.135077015891788 24.372416926867611 3.3989960271566542 #
point $-1 55.135077015891788 -24.372416926867611 3.3989960271566542 #
edge $-1 $444 -24.372416926867611 $446 24.372416926867611 $435 $495 forward 7 unknown #
vertex $-1 $443 $496 #
straight-curve $-1 0 -24.372416926867611 6.3989960271566542 1 0 0 I I #
vertex $-1 $443 $497 #
straight-curve $-1 0 24.372416926867611 6.3989960271566542 -1 0 0 I I #
coedge $-1 $449 $349 $455 $498 reversed $230 $-1 #
coedge $-1 $349 $448 $352 $453 reversed $230 $-1 #
edge $-1 $451 -30.749453514323559 $357 -18.021793488812914 $356 $499 forward 7 unknown #
vertex $-1 $498 $500 #
straight-curve $-1 -55.135077015891795 -24.372416926867601 2.9493165393266878 0 0.81915203911291934 0.57357644374324357 I I #
edge $-1 $353 19.445764137048918 $457 24.372416926867611 $352 $501 forward 7 unknown #
point $-1 -55.135077015891795 -19.445764137048918 6.3989960271566542 #
coedge $-1 $356 $355 $448 $498 forward $347 $-1 #
point $-1 -42.407416990381151 -24.372416926867611 2.9493165393266803 #
vertex $-1 $360 $502 #
straight-curve $-1 0 -24.372416926867611 6.3989960271566542 1 0 0 I I #
vertex $-1 $363 $503 #
point $-1 -49.998602722888755 -18.81406735026064 0.25400518037616138 #
vertex $-1 $367 $504 #
point $-1 -44.543891283384191 -18.81406735026064 0.25400518037616138 #
coedge $-1 $374 $373 $381 $468 forward $158 $-1 #
edge $-1 $377 42.407416990381158 $471 55.135077015891788 $374 $505 forward 7 unknown #
straight-curve $-1 42.407416990381158 -24.372416926867608 50.156293720127842 0 0 -1 I I #
point $-1 42.407416990381158 -24.372416926867611 6.3989960271566542 #
straight-curve $-1 24.38562350156824 -24.372416926867611 2.9493165393266825 1 0 0 I I #
edge $-1 $382 -47.206977180801161 $471 -43.757297692971186 $463 $506 forward 7 unknown #
point $-1 55.135077015891802 -24.372416926867611 2.9493165393266803 #
point $-1 42.407416990381158 -24.372416926867611 2.9493165393266803 #
vertex $-1 $386 $507 #
straight-curve $-1 55.135077015891788 0 6.3989960271566542 0 1 0 I I #
vertex $-1 $389 $508 #
point $-1 47.543891283384198 -18.81406735026064 0.25400518037616138 #
vertex $-1 $393 $509 #
point $-1 52.998602722888748 -18.81406735026064 0.25400518037616138 #
straight-curve $-1 -59.429303872798855 24.372416926867611 0 0 0 -1 I I #
point $-1 -59.429303872798855 -24.372416926867611 -6.3989960271566542 #
straight-curve $-1 -59.429303872798855 0 -6.3989960271566542 0 1 0 I I #
point $-1 -59.429303872798855 24.372416926867611 -6.3989960271566542 #
coedge $-1 $414 $483 $422 $488 forward $303 $-1 #
coedge $-1 $416 $415 $483 $510 reversed $199 $-1 #
coedge $-1 $481 $417 $482 $510 forward $303 $-1 #
vertex $-1 $418 $511 #
straight-curve $-1 0 24.372416926867611 6.3989960271566542 -1 0 0 I I #
point $-1 -55.135077015891795 24.372416926867611 6.3989960271566542 #
straight-curve $-1 -55.135077015891795 0 6.3989960271566542 0 1 0 I I #
edge $-1 $490 -59.429303872798855 $423 -55.135077015891795 $422 $512 forward 7 unknown #
point $-1 -55.135077015891795 -24.372416926867611 6.3989960271566542 #
vertex $-1 $510 $513 #
straight-curve $-1 -59.429303872798855 -24.372416926867611 0 0 0 -1 I I #
straight-curve $-1 -59.429303872798855 24.372416926867611 0 0 0 -1 I I #
straight-curve $-1 59.429303872798855 24.372416926867611 0 0 0 -1 I I #
straight-curve $-1 59.429303872798855 -24.372416926867611 0 0 0 -1 I I #
straight-curve $-1 59.429303872798855 0 6.3989960271566542 0 1 0 I I #
point $-1 59.429303872798855 -24.372416926867611 6.3989960271566542 #
point $-1 59.429303872798855 24.372416926867611 6.3989960271566542 #
edge $-1 $457 43.757297692971186 $451 47.206977180801161 $455 $514 forward 7 unknown #
straight-curve $-1 -24.385623501568237 -24.372416926867611 2.9493165393266825 1 0 0 I I #
point $-1 -55.135077015891795 -24.372416926867611 2.9493165393266803 #
straight-curve $-1 -55.135077015891795 0 6.3989960271566542 0 -1 0 I I #
point $-1 -55.135077015891795 -24.372416926867611 6.3989960271566542 #
point $-1 -51.498602722888755 -17.953702684645773 -0.97472287829321758 #
point $-1 -46.043891283384191 -17.953702684645773 -0.97472287829321758 #
straight-curve $-1 0 -24.372416926867611 6.3989960271566542 1 0 0 I I #
straight-curve $-1 55.135077015891802 -24.372416926867608 50.156293720127842 0 0 1 I I #
point $-1 55.135077015891788 -24.372416926867611 6.3989960271566542 #
point $-1 46.043891283384198 -17.953702684645773 -0.97472287829321758 #
point $-1 51.498602722888748 -17.953702684645773 -0.97472287829321758 #
edge $-1 $484 -24.372416926867611 $490 24.372416926867611 $482 $515 forward 7 unknown #
point $-1 -59.429303872798855 24.372416926867611 6.3989960271566542 #
straight-curve $-1 0 -24.372416926867611 6.3989960271566542 1 0 0 I I #
point $-1 -59.429303872798855 -24.372416926867611 6.3989960271566542 #
straight-curve $-1 -55.135077015891795 -24.372416926867608 50.156293720127842 0 0 -1 I I #
straight-curve $-1 -59.429303872798855 0 6.3989960271566542 0 -1 0 I I #
End-of-ACIS-data 