500 0 10 0           
7 Unknown 11 ACIS 5.0 NT 24 Thu Mar 25 15:58:53 1999 
-1 9.9999999999999995e-007 1e-010 
body $-1 $10 $-1 $11 #
body $-1 $12 $-1 $13 #
body $-1 $14 $-1 $15 #
body $-1 $16 $-1 $17 #
body $-1 $18 $-1 $19 #
body $-1 $20 $-1 $21 #
body $-1 $22 $-1 $23 #
body $-1 $24 $-1 $25 #
body $-1 $26 $-1 $27 #
body $-1 $28 $-1 $29 #
lump $-1 $-1 $30 $0 #
transform $-1 1 0 0 0 1 0 0 0 1 53.362224188970615 28.66841401952577 8.4636871456247587 1 rotate no_reflect no_shear #
lump $-1 $-1 $31 $1 #
transform $-1 1 0 0 0 1 0 0 0 1 53.362224188970615 28.66841401952577 8.4636871456247587 1 rotate no_reflect no_shear #
lump $-1 $-1 $32 $2 #
transform $-1 1 0 0 0 1 0 0 0 1 53.362224188970615 28.66841401952577 8.4636871456247587 1 rotate no_reflect no_shear #
lump $-1 $-1 $33 $3 #
transform $-1 1 0 0 0 1 0 0 0 1 53.362224188970615 28.66841401952577 8.4636871456247587 1 rotate no_reflect no_shear #
lump $-1 $-1 $34 $4 #
transform $-1 1 0 0 0 1 0 0 0 1 53.362224188970615 28.66841401952577 8.4636871456247587 1 rotate no_reflect no_shear #
lump $-1 $-1 $35 $5 #
transform $-1 1 0 0 0 1 0 0 0 1 53.362224188970615 28.66841401952577 8.4636871456247587 1 rotate no_reflect no_shear #
lump $-1 $-1 $36 $6 #
transform $-1 1 0 0 0 1 0 0 0 1 53.362224188970615 28.66841401952577 8.4636871456247587 1 rotate no_reflect no_shear #
lump $-1 $-1 $37 $7 #
transform $-1 1 0 0 0 1 0 0 0 1 53.362224188970615 28.66841401952577 8.4636871456247587 1 rotate no_reflect no_shear #
lump $-1 $-1 $38 $8 #
transform $-1 1 0 0 0 1 0 0 0 1 53.362224188970615 28.66841401952577 8.4636871456247587 1 rotate no_reflect no_shear #
lump $-1 $-1 $39 $9 #
transform $-1 1 0 0 0 1 0 0 0 1 53.362224188970615 28.66841401952577 8.4636871456247587 1 rotate no_reflect no_shear #
shell $-1 $-1 $-1 $40 $-1 $10 #
shell $-1 $-1 $-1 $41 $-1 $12 #
shell $-1 $-1 $-1 $42 $-1 $14 #
shell $-1 $-1 $-1 $43 $-1 $16 #
shell $-1 $-1 $-1 $44 $-1 $18 #
shell $-1 $-1 $-1 $45 $-1 $20 #
shell $-1 $-1 $-1 $46 $-1 $22 #
shell $-1 $-1 $-1 $47 $-1 $24 #
shell $-1 $-1 $-1 $48 $-1 $26 #
shell $-1 $-1 $-1 $49 $-1 $28 #
face $-1 $50 $51 $30 $-1 $52 forward single #
face $-1 $53 $54 $31 $-1 $55 reversed single #
face $-1 $56 $57 $32 $-1 $58 reversed single #
face $-1 $59 $60 $33 $-1 $61 forward single #
face $-1 $62 $63 $34 $-1 $64 reversed single #
face $-1 $65 $66 $35 $-1 $67 forward single #
face $-1 $68 $69 $36 $-1 $70 reversed single #
face $-1 $71 $72 $37 $-1 $73 forward single #
face $-1 $74 $75 $38 $-1 $76 reversed single #
face $-1 $77 $78 $39 $-1 $79 forward single #
face $-1 $80 $81 $30 $-1 $82 reversed single #
loop $-1 $-1 $83 $40 #
plane-surface $-1 0 0 8.4636871456247587 0 0 1 1 0 0 forward_v I I I I #
face $-1 $84 $85 $31 $-1 $86 reversed single #
loop $-1 $-1 $87 $41 #
plane-surface $-1 0 -24.964365946118654 5.4636871456247587 0 0 1 1 0 0 forward_v I I I I #
face $-1 $88 $89 $32 $-1 $90 reversed single #
loop $-1 $-1 $91 $42 #
plane-surface $-1 16.848672462879662 -14.578211885251338 148.92317062808786 0 -1 0 -0.51503808176128008 0 -0.85716729658548041 forward_v I I I I #
face $-1 $92 $93 $33 $-1 $94 forward single #
loop $-1 $95 $96 $43 #
cone-surface $-1 47.929083859904942 -17.919264878981441 4.7206176764959267 -0.51503808176128008 0 -0.85716729658548041 1.2857509448782207 0 -0.77255712264192011 1 I I 0 1 1.5 forward I I I I #
face $-1 $97 $98 $34 $-1 $99 reversed single #
loop $-1 $-1 $100 $44 #
plane-surface $-1 -38.118482706725949 25.327361025795668 57.442463732391317 0.51503808176128008 0 0.85716729658548041 0.85716729658548041 0 -0.51503808176128008 forward_v I I I I #
face $-1 $101 $102 $35 $-1 $103 forward single #
loop $-1 $104 $105 $45 #
cone-surface $-1 47.929083859904942 25.327361025795668 4.7206176764959267 -0.51503808176128008 0 -0.85716729658548041 1.2857509448782207 0 -0.77255712264192011 1 I I 0 1 1.5 forward I I I I #
face $-1 $106 $107 $36 $-1 $108 reversed single #
loop $-1 $-1 $109 $46 #
plane-surface $-1 -117.59060137355205 -17.070882239963623 90.61524946529083 0 1 0 -0.6018150307709319 0 0.79863550430605224 forward_v I I I I #
face $-1 $110 $111 $37 $-1 $112 forward single #
loop $-1 $113 $114 $47 #
cone-surface $-1 -50.674725346808444 -11.44789984792915 6.0701718921516914 0.6018150307709319 0 -0.79863550430605224 0.79863550430605224 0 0.6018150307709319 1 I I 0 1 1 forward I I I I #
face $-1 $115 $116 $38 $-1 $117 reversed single #
loop $-1 $-1 $118 $48 #
plane-surface $-1 -117.59060137355205 7.8934837061550294 90.61524946529083 0 1 0 -0.6018150307709319 0 0.79863550430605224 forward_v I I I I #
face $-1 $119 $120 $39 $-1 $121 forward single #
loop $-1 $122 $123 $49 #
cone-surface $-1 -50.674725346808444 13.516466098189504 6.0701718921516914 0.6018150307709319 0 -0.79863550430605224 0.79863550430605224 0 0.6018150307709319 1 I I 0 1 1 forward I I I I #
face $-1 $124 $125 $30 $-1 $126 reversed single #
loop $-1 $-1 $127 $50 #
plane-surface $-1 0 0 -8.4636871456247587 0 0 1 1 0 0 forward_v I I I I #
coedge $-1 $128 $129 $130 $131 forward $51 $-1 #
face $-1 $132 $133 $31 $-1 $134 reversed single #
loop $-1 $-1 $135 $53 #
plane-surface $-1 0 -21.260317872711539 6.9636871456247587 0 -1 0 0 0 -1 forward_v I I I I #
coedge $-1 $136 $137 $138 $139 reversed $54 $-1 #
face $-1 $140 $141 $32 $-1 $142 forward single #
loop $-1 $-1 $143 $56 #
plane-surface $-1 -38.118482706725949 -17.919264878981441 57.442463732391317 0.51503808176128008 0 0.85716729658548041 0.85716729658548041 0 -0.51503808176128008 forward_v I I I I #
coedge $-1 $144 $145 $146 $147 reversed $57 $-1 #
face $-1 $-1 $148 $33 $-1 $149 forward single #
loop $-1 $150 $151 $59 #
cone-surface $-1 47.092832683281358 -17.919264878981441 3.3288620263475099 -0.51503808176128008 0 -0.85716729658548041 0.64287547243911036 0 -0.38627856132096006 1 I I -0.70710678118654757 0.70710678118654757 0.75 forward I I I I #
loop $-1 $-1 $152 $43 #
coedge $-1 $96 $96 $153 $154 reversed $60 $-1 #
face $-1 $155 $156 $34 $-1 $157 reversed single #
loop $-1 $-1 $158 $62 #
plane-surface $-1 16.848672462879662 21.986308032065565 148.92317062808786 0 1 0 0.51503808176128008 0 0.85716729658548041 forward_v I I I I #
coedge $-1 $159 $160 $161 $162 reversed $63 $-1 #
face $-1 $-1 $163 $35 $-1 $164 forward single #
loop $-1 $165 $166 $65 #
cone-surface $-1 47.092832683281358 25.327361025795668 3.3288620263475099 -0.51503808176128008 0 -0.85716729658548041 0.64287547243911036 0 -0.38627856132096006 1 I I -0.70710678118654757 0.70710678118654757 0.75 forward I I I I #
loop $-1 $-1 $167 $45 #
coedge $-1 $105 $105 $168 $169 reversed $66 $-1 #
face $-1 $170 $171 $36 $-1 $172 reversed single #
loop $-1 $-1 $173 $68 #
plane-surface $-1 -53.362224188970615 -11.44789984792915 5.3813158131884933 -0.6018150307709319 0 0.79863550430605224 0.79863550430605224 0 0.6018150307709319 forward_v I I I I #
coedge $-1 $174 $175 $176 $177 reversed $69 $-1 #
face $-1 $-1 $178 $37 $-1 $179 forward single #
loop $-1 $180 $181 $71 #
cone-surface $-1 -49.731541406176248 -11.44789984792915 4.8185245527437246 0.6018150307709319 0 -0.79863550430605224 0.39931775215302612 0 0.30090751538546595 1 I I -0.70710678118654746 0.70710678118654746 0.5 forward I I I I #
loop $-1 $-1 $182 $47 #
coedge $-1 $114 $114 $183 $184 reversed $72 $-1 #
face $-1 $185 $186 $38 $-1 $187 reversed single #
loop $-1 $-1 $188 $74 #
plane-surface $-1 -53.362224188970615 13.516466098189504 5.3813158131884933 -0.6018150307709319 0 0.79863550430605224 0.79863550430605224 0 0.6018150307709319 forward_v I I I I #
coedge $-1 $189 $190 $191 $192 reversed $75 $-1 #
face $-1 $-1 $193 $39 $-1 $194 forward single #
loop $-1 $195 $196 $77 #
cone-surface $-1 -49.731541406176248 13.516466098189504 4.8185245527437246 0.6018150307709319 0 -0.79863550430605224 0.39931775215302612 0 0.30090751538546595 1 I I -0.70710678118654746 0.70710678118654746 0.5 forward I I I I #
loop $-1 $-1 $197 $49 #
coedge $-1 $123 $123 $198 $199 reversed $78 $-1 #
face $-1 $200 $201 $30 $-1 $202 reversed single #
loop $-1 $-1 $203 $80 #
plane-surface $-1 0 -28.66841401952577 0 0 1 0 0 0 1 forward_v I I I I #
coedge $-1 $204 $205 $206 $207 forward $81 $-1 #
coedge $-1 $208 $83 $209 $210 forward $51 $-1 #
coedge $-1 $83 $208 $211 $212 forward $51 $-1 #
coedge $-1 $213 $214 $83 $131 reversed $215 $-1 #
edge $-1 $216 -28.66841401952577 $217 28.66841401952577 $130 $218 forward 7 unknown #
face $-1 $219 $220 $31 $-1 $221 reversed single #
loop $-1 $-1 $222 $84 #
plane-surface $-1 -53.362224188970615 0 0 1 0 0 0 0 -1 forward_v I I I I #
coedge $-1 $223 $224 $225 $226 reversed $85 $-1 #
coedge $-1 $227 $87 $228 $229 reversed $54 $-1 #
coedge $-1 $87 $227 $223 $230 forward $54 $-1 #
coedge $-1 $225 $231 $87 $139 forward $232 $-1 #
edge $-1 $233 -16.186231046466443 $234 -8.7781348996522119 $138 $235 forward 7 unknown #
face $-1 $236 $237 $32 $-1 $238 forward single #
loop $-1 $-1 $239 $88 #
plane-surface $-1 0 -21.260317872711539 6.9636871456247587 0 -1 0 0 0 -1 forward_v I I I I #
coedge $-1 $240 $241 $242 $243 reversed $89 $-1 #
coedge $-1 $145 $91 $244 $245 reversed $57 $-1 #
coedge $-1 $91 $144 $240 $246 reversed $57 $-1 #
coedge $-1 $242 $247 $91 $147 forward $237 $-1 #
edge $-1 $248 -44.937887957530783 $249 -34.971552530004629 $146 $250 forward 7 unknown #
loop $-1 $-1 $153 $92 #
plane-surface $-1 -38.118482706725949 -17.919264878981441 57.442463732391317 0.51503808176128008 0 0.85716729658548041 0.85716729658548041 0 -0.51503808176128008 forward_v I I I I #
loop $-1 $-1 $251 $59 #
coedge $-1 $151 $151 $152 $252 reversed $93 $-1 #
coedge $-1 $152 $152 $151 $252 forward $95 $-1 #
coedge $-1 $153 $153 $96 $154 forward $148 $-1 #
edge $-1 $253 0 $253 6.2831853071796004 $153 $254 forward 7 unknown #
face $-1 $255 $256 $34 $-1 $257 forward single #
loop $-1 $-1 $258 $97 #
plane-surface $-1 0 28.66841401952577 0 0 -1 0 0 0 -1 forward_v I I I I #
coedge $-1 $259 $260 $261 $262 reversed $98 $-1 #
coedge $-1 $263 $100 $258 $264 reversed $63 $-1 #
coedge $-1 $100 $263 $259 $265 forward $63 $-1 #
coedge $-1 $261 $266 $100 $162 forward $256 $-1 #
edge $-1 $267 -16.004733506627936 $268 -9.3226275191677317 $161 $269 forward 7 unknown #
loop $-1 $-1 $168 $101 #
plane-surface $-1 -38.118482706725949 25.327361025795668 57.442463732391317 0.51503808176128008 0 0.85716729658548041 0.85716729658548041 0 -0.51503808176128008 forward_v I I I I #
loop $-1 $-1 $270 $65 #
coedge $-1 $166 $166 $167 $271 reversed $102 $-1 #
coedge $-1 $167 $167 $166 $271 forward $104 $-1 #
coedge $-1 $168 $168 $105 $169 forward $163 $-1 #
edge $-1 $272 0 $272 6.2831853071796004 $168 $273 forward 7 unknown #
face $-1 $274 $275 $36 $-1 $276 reversed single #
loop $-1 $-1 $277 $106 #
plane-surface $-1 -117.59060137355205 -5.8249174558946759 90.61524946529083 0 -1 0 0.6018150307709319 0 -0.79863550430605224 forward_v I I I I #
coedge $-1 $278 $279 $280 $281 reversed $107 $-1 #
coedge $-1 $175 $109 $282 $283 reversed $69 $-1 #
coedge $-1 $109 $174 $278 $284 reversed $69 $-1 #
coedge $-1 $280 $285 $109 $177 forward $286 $-1 #
edge $-1 $287 5.4330764978054091 $288 9.5235213316363314 $176 $289 forward 7 unknown #
loop $-1 $-1 $183 $110 #
plane-surface $-1 -53.362224188970615 -11.44789984792915 5.3813158131884933 -0.6018150307709319 0 0.79863550430605224 0.79863550430605224 0 0.6018150307709319 forward_v I I I I #
loop $-1 $-1 $290 $71 #
coedge $-1 $181 $181 $182 $291 reversed $111 $-1 #
coedge $-1 $182 $182 $181 $291 forward $113 $-1 #
coedge $-1 $183 $183 $114 $184 forward $178 $-1 #
edge $-1 $292 0 $292 6.2831853071796004 $183 $293 forward 7 unknown #
face $-1 $294 $295 $38 $-1 $296 forward single #
loop $-1 $-1 $297 $115 #
plane-surface $-1 -117.59060137355205 19.139448490223977 90.61524946529083 0 -1 0 0.6018150307709319 0 -0.79863550430605224 forward_v I I I I #
coedge $-1 $298 $299 $300 $301 reversed $116 $-1 #
coedge $-1 $190 $118 $302 $303 reversed $75 $-1 #
coedge $-1 $118 $189 $298 $304 reversed $75 $-1 #
coedge $-1 $300 $305 $118 $192 forward $295 $-1 #
edge $-1 $306 5.4330764978054091 $307 9.5235213316363314 $191 $308 forward 7 unknown #
loop $-1 $-1 $198 $119 #
plane-surface $-1 -53.362224188970615 13.516466098189504 5.3813158131884933 -0.6018150307709319 0 0.79863550430605224 0.79863550430605224 0 0.6018150307709319 forward_v I I I I #
loop $-1 $-1 $309 $77 #
coedge $-1 $196 $196 $197 $310 reversed $120 $-1 #
coedge $-1 $197 $197 $196 $310 forward $122 $-1 #
coedge $-1 $198 $198 $123 $199 forward $193 $-1 #
edge $-1 $311 0 $311 6.2831853071796004 $198 $312 forward 7 unknown #
face $-1 $313 $314 $30 $-1 $315 reversed single #
loop $-1 $-1 $316 $124 #
plane-surface $-1 -53.362224188970615 0 0 1 0 0 0 0 -1 forward_v I I I I #
coedge $-1 $317 $211 $318 $319 forward $125 $-1 #
coedge $-1 $320 $127 $317 $321 forward $81 $-1 #
coedge $-1 $127 $320 $322 $323 forward $81 $-1 #
coedge $-1 $214 $213 $127 $207 reversed $215 $-1 #
edge $-1 $324 -28.66841401952577 $325 28.66841401952577 $206 $326 forward 7 unknown #
coedge $-1 $129 $128 $327 $328 forward $51 $-1 #
coedge $-1 $329 $330 $128 $210 reversed $314 $-1 #
edge $-1 $217 -53.362224188970615 $331 53.362224188970615 $209 $332 forward 7 unknown #
coedge $-1 $203 $333 $129 $212 reversed $125 $-1 #
edge $-1 $334 -53.362224188970615 $216 53.362224188970615 $211 $335 forward 7 unknown #
coedge $-1 $206 $130 $333 $336 forward $215 $-1 #
coedge $-1 $130 $206 $329 $337 reversed $215 $-1 #
loop $-1 $-1 $213 $313 #
vertex $-1 $131 $338 #
vertex $-1 $131 $339 #
straight-curve $-1 53.362224188970615 0 8.4636871456247587 0 1 0 I I #
face $-1 $340 $341 $31 $-1 $342 forward single #
loop $-1 $-1 $228 $132 #
plane-surface $-1 0 -28.66841401952577 0 0 1 0 0 0 1 forward_v I I I I #
coedge $-1 $343 $344 $345 $346 forward $133 $-1 #
coedge $-1 $345 $135 $137 $230 reversed $85 $-1 #
coedge $-1 $135 $345 $347 $348 reversed $85 $-1 #
coedge $-1 $349 $138 $135 $226 forward $232 $-1 #
edge $-1 $234 1.9818435728123793 $350 4.9818435728123793 $225 $351 forward 7 unknown #
coedge $-1 $137 $136 $343 $352 reversed $54 $-1 #
coedge $-1 $353 $354 $136 $229 forward $220 $-1 #
edge $-1 $355 -53.362224188970615 $233 53.362224188970615 $228 $356 forward 7 unknown #
edge $-1 $357 -53.362224188970615 $234 53.362224188970615 $223 $358 forward 7 unknown #
coedge $-1 $138 $349 $353 $359 forward $232 $-1 #
loop $-1 $-1 $225 $340 #
vertex $-1 $229 $360 #
vertex $-1 $139 $361 #
straight-curve $-1 53.362224188970615 -12.482182973059327 5.4636871456247587 0 1 0 I I #
face $-1 $-1 $362 $32 $-1 $363 reversed single #
loop $-1 $-1 $242 $140 #
plane-surface $-1 0 0 8.4636871456247587 0 0 1 1 0 0 forward_v I I I I #
coedge $-1 $364 $365 $241 $366 reversed $141 $-1 #
coedge $-1 $367 $143 $145 $246 forward $89 $-1 #
coedge $-1 $143 $367 $239 $366 forward $89 $-1 #
coedge $-1 $368 $146 $143 $243 forward $237 $-1 #
edge $-1 $249 5.6185794457606182 $369 12.300685433220819 $242 $370 forward 7 unknown #
coedge $-1 $371 $372 $144 $245 forward $362 $-1 #
edge $-1 $373 -71.986276751258231 $248 -65.997898168419169 $244 $374 forward 7 unknown #
edge $-1 $249 95.0973885644988 $373 106.72444837794123 $145 $375 forward 7 unknown #
coedge $-1 $146 $368 $371 $376 forward $237 $-1 #
vertex $-1 $245 $377 #
vertex $-1 $147 $378 #
straight-curve $-1 8.4243362314398311 -14.578211885251338 8.4636871456247604 -1 0 0 I I #
coedge $-1 $251 $251 $-1 $379 reversed $150 $-1 #
edge $-1 $380 0 $380 6.2831853071796004 $151 $381 forward 7 unknown #
vertex $-1 $154 $382 #
ellipse-curve $-1 48.379056475207555 -17.919264878981441 5.4694978542052182 0.51503808176128008 0 0.85716729658548041 1.2857509448782207 0 -0.77255712264192011 1 I I #
face $-1 $-1 $383 $34 $-1 $384 reversed single #
loop $-1 $-1 $161 $155 #
plane-surface $-1 0 0 8.4636871456247587 0 0 1 1 0 0 forward_v I I I I #
coedge $-1 $385 $386 $159 $264 forward $156 $-1 #
coedge $-1 $260 $158 $160 $265 reversed $98 $-1 #
coedge $-1 $158 $259 $387 $388 reversed $98 $-1 #
coedge $-1 $389 $161 $158 $262 forward $256 $-1 #
edge $-1 $268 34.971552530004629 $390 44.937887957530783 $261 $391 forward 7 unknown #
coedge $-1 $160 $159 $392 $393 reversed $63 $-1 #
edge $-1 $394 -75.594961825922553 $267 -63.967902012480096 $258 $395 forward 7 unknown #
edge $-1 $396 -106.72444837794123 $268 -95.0973885644988 $259 $397 forward 7 unknown #
coedge $-1 $161 $389 $385 $398 forward $256 $-1 #
vertex $-1 $264 $399 #
vertex $-1 $162 $400 #
straight-curve $-1 43.395888761444468 12.663680512897834 8.4636871456247604 0 -1 0 I I #
coedge $-1 $270 $270 $-1 $401 reversed $165 $-1 #
edge $-1 $402 0 $402 6.2831853071796004 $166 $403 forward 7 unknown #
vertex $-1 $169 $404 #
ellipse-curve $-1 48.379056475207555 25.327361025795668 5.4694978542052182 0.51503808176128008 0 0.85716729658548041 1.2857509448782207 0 -0.77255712264192011 1 I I #
face $-1 $-1 $286 $36 $-1 $405 forward single #
loop $-1 $-1 $406 $170 #
plane-surface $-1 -53.362224188970615 0 0 1 0 0 0 0 -1 forward_v I I I I #
coedge $-1 $407 $408 $409 $410 reversed $171 $-1 #
coedge $-1 $411 $173 $175 $284 forward $107 $-1 #
coedge $-1 $173 $411 $407 $412 forward $107 $-1 #
coedge $-1 $409 $176 $173 $281 forward $286 $-1 #
edge $-1 $288 -11.346932315999048 $413 -0.10096753193010066 $280 $414 forward 7 unknown #
coedge $-1 $415 $416 $174 $283 forward $275 $-1 #
edge $-1 $417 -39.926308919456922 $287 -36.843937587020655 $282 $418 forward 7 unknown #
edge $-1 $288 -5.1217918709802142 $417 0 $175 $419 forward 7 unknown #
coedge $-1 $176 $409 $415 $420 forward $286 $-1 #
loop $-1 $-1 $409 $274 #
vertex $-1 $283 $421 #
vertex $-1 $177 $422 #
straight-curve $-1 -58.795300686776024 -17.070882239963623 8.4636871456247604 1 0 0 I I #
coedge $-1 $290 $290 $-1 $423 reversed $180 $-1 #
edge $-1 $424 0 $424 6.2831853071796004 $181 $425 forward 7 unknown #
vertex $-1 $184 $426 #
ellipse-curve $-1 -51.317001772055164 -11.44789984792915 6.9225014794066206 -0.6018150307709319 0 0.79863550430605224 0.79863550430605224 0 0.6018150307709319 1 I I #
face $-1 $-1 $427 $38 $-1 $428 reversed single #
loop $-1 $-1 $191 $185 #
plane-surface $-1 0 0 8.4636871456247587 0 0 1 1 0 0 forward_v I I I I #
coedge $-1 $429 $430 $431 $432 reversed $186 $-1 #
coedge $-1 $433 $188 $190 $304 forward $116 $-1 #
coedge $-1 $188 $433 $429 $434 forward $116 $-1 #
coedge $-1 $431 $191 $188 $301 forward $295 $-1 #
edge $-1 $307 1.1352506570602774 $435 12.381215441129225 $300 $436 forward 7 unknown #
coedge $-1 $437 $438 $189 $303 forward $427 $-1 #
edge $-1 $439 -39.926308919456922 $306 -36.843937587020655 $302 $440 forward 7 unknown #
edge $-1 $307 -5.1217918709802142 $439 0 $190 $441 forward 7 unknown #
coedge $-1 $191 $431 $437 $442 forward $295 $-1 #
vertex $-1 $303 $443 #
vertex $-1 $192 $444 #
straight-curve $-1 -58.795300686776024 7.8934837061550294 8.4636871456247604 1 0 0 I I #
coedge $-1 $309 $309 $-1 $445 reversed $195 $-1 #
edge $-1 $446 0 $446 6.2831853071796004 $196 $447 forward 7 unknown #
vertex $-1 $199 $448 #
ellipse-curve $-1 -51.317001772055164 13.516466098189504 6.9225014794066206 -0.6018150307709319 0 0.79863550430605224 0.79863550430605224 0 0.6018150307709319 1 I I #
face $-1 $-1 $215 $30 $-1 $449 reversed single #
loop $-1 $-1 $329 $200 #
plane-surface $-1 0 28.66841401952577 0 0 -1 0 0 0 -1 forward_v I I I I #
coedge $-1 $450 $327 $330 $451 forward $201 $-1 #
coedge $-1 $333 $203 $204 $321 reversed $125 $-1 #
coedge $-1 $327 $450 $203 $319 reversed $201 $-1 #
edge $-1 $334 -8.4636871456247587 $452 8.4636871456247587 $318 $453 forward 7 unknown #
coedge $-1 $205 $204 $450 $454 forward $81 $-1 #
edge $-1 $325 -53.362224188970615 $452 53.362224188970615 $317 $455 forward 7 unknown #
coedge $-1 $330 $329 $205 $323 reversed $314 $-1 #
edge $-1 $456 -53.362224188970615 $324 53.362224188970615 $322 $457 forward 7 unknown #
vertex $-1 $207 $458 #
vertex $-1 $336 $459 #
straight-curve $-1 53.362224188970615 0 -8.4636871456247587 0 -1 0 I I #
coedge $-1 $316 $318 $208 $328 reversed $201 $-1 #
edge $-1 $331 -28.66841401952577 $334 28.66841401952577 $327 $460 forward 7 unknown #
coedge $-1 $322 $209 $214 $337 forward $314 $-1 #
coedge $-1 $209 $322 $316 $451 reversed $314 $-1 #
vertex $-1 $210 $461 #
straight-curve $-1 0 28.66841401952577 8.4636871456247587 -1 0 0 I I #
coedge $-1 $211 $317 $213 $336 reversed $125 $-1 #
vertex $-1 $328 $462 #
straight-curve $-1 0 -28.66841401952577 8.4636871456247587 1 0 0 I I #
edge $-1 $216 -8.4636871456247587 $325 8.4636871456247587 $213 $463 forward 7 unknown #
edge $-1 $217 -8.4636871456247587 $324 8.4636871456247587 $214 $464 forward 7 unknown #
point $-1 53.362224188970615 -28.66841401952577 8.4636871456247587 #
point $-1 53.362224188970615 28.66841401952577 8.4636871456247587 #
face $-1 $-1 $232 $31 $-1 $465 reversed single #
loop $-1 $-1 $347 $219 #
plane-surface $-1 0 0 8.4636871456247587 0 0 1 1 0 0 forward_v I I I I #
coedge $-1 $466 $222 $227 $352 forward $133 $-1 #
coedge $-1 $222 $466 $467 $468 reversed $133 $-1 #
coedge $-1 $224 $223 $222 $346 reversed $85 $-1 #
edge $-1 $469 -4.9818435728123793 $357 -1.9818435728123793 $222 $470 forward 7 unknown #
coedge $-1 $467 $471 $224 $348 forward $341 $-1 #
edge $-1 $350 -53.362224188970615 $469 53.362224188970615 $347 $472 forward 7 unknown #
coedge $-1 $231 $225 $471 $473 reversed $232 $-1 #
vertex $-1 $226 $474 #
straight-curve $-1 53.362224188970615 -21.260317872711539 3.4818435728123793 0 0 1 I I #
edge $-1 $357 8.7781348996522119 $355 16.186231046466443 $343 $475 forward 7 unknown #
coedge $-1 $476 $228 $231 $359 reversed $220 $-1 #
coedge $-1 $228 $476 $466 $477 forward $220 $-1 #
vertex $-1 $229 $478 #
straight-curve $-1 0 -28.66841401952577 5.4636871456247587 1 0 0 I I #
vertex $-1 $352 $479 #
straight-curve $-1 0 -21.260317872711539 5.4636871456247587 1 0 0 I I #
edge $-1 $480 -8.4636871456247587 $233 -5.4636871456247587 $231 $481 forward 7 unknown #
point $-1 53.362224188970615 -28.66841401952577 5.4636871456247587 #
point $-1 53.362224188970615 -21.260317872711539 5.4636871456247587 #
loop $-1 $-1 $244 $236 #
plane-surface $-1 53.362224188970615 0 0 -1 0 0 0 0 1 forward_v I I I I #
coedge $-1 $365 $239 $482 $483 reversed $141 $-1 #
coedge $-1 $239 $364 $368 $484 reversed $141 $-1 #
edge $-1 $485 -106.72444837794123 $369 -95.0973885644988 $239 $486 forward 7 unknown #
coedge $-1 $241 $240 $372 $487 reversed $89 $-1 #
coedge $-1 $247 $242 $365 $484 forward $237 $-1 #
vertex $-1 $484 $488 #
straight-curve $-1 43.395888761444468 -8.9596324394907203 8.4636871456247604 0 -1 0 I I #
coedge $-1 $482 $244 $247 $376 reversed $362 $-1 #
coedge $-1 $244 $482 $367 $487 forward $362 $-1 #
vertex $-1 $245 $489 #
straight-curve $-1 53.362224188970615 -14.578211885251338 74.46158531404393 0 0 1 I I #
straight-curve $-1 -38.118482706725949 -14.578211885251338 57.442463732391317 0.85716729658548041 0 -0.51503808176128008 I I #
edge $-1 $490 -21.260317872711539 $248 -14.578211885251338 $371 $491 forward 7 unknown #
point $-1 53.362224188970615 -14.578211885251338 8.4636871456247587 #
point $-1 43.395888761444461 -14.578211885251338 8.4636871456247604 #
edge $-1 $492 1 $492 0 $251 $-1 forward 7 unknown #
vertex $-1 $252 $493 #
ellipse-curve $-1 47.479111244602315 -17.919264878981441 3.9717374987866201 0.51503808176128008 0 0.85716729658548041 1.2857509448782207 0 -0.77255712264192011 1 I I #
point $-1 49.664807420085786 -17.919264878981441 4.6969407315633127 #
loop $-1 $-1 $392 $255 #
plane-surface $-1 53.362224188970615 0 0 -1 0 0 0 0 1 forward_v I I I I #
coedge $-1 $386 $258 $266 $398 reversed $156 $-1 #
coedge $-1 $258 $385 $494 $495 forward $156 $-1 #
coedge $-1 $392 $496 $260 $388 forward $383 $-1 #
edge $-1 $390 65.997898168419169 $396 71.986276751258231 $387 $497 forward 7 unknown #
coedge $-1 $266 $261 $496 $498 forward $256 $-1 #
vertex $-1 $498 $499 #
straight-curve $-1 8.4243362314398311 21.986308032065565 8.4636871456247604 1 0 0 I I #
coedge $-1 $494 $387 $263 $393 forward $383 $-1 #
edge $-1 $396 9.3226275191677317 $394 16.004733506627936 $392 $500 forward 7 unknown #
vertex $-1 $264 $501 #
straight-curve $-1 -11.435304874838014 28.66841401952577 41.409592692426045 -0.85716729658548041 0 0.51503808176128008 I I #
vertex $-1 $393 $502 #
straight-curve $-1 -38.118482706725949 21.986308032065565 57.442463732391317 -0.85716729658548041 0 0.51503808176128008 I I #
edge $-1 $503 -53.362224188970615 $267 -43.395888761444461 $385 $504 forward 7 unknown #
point $-1 43.395888761444461 28.66841401952577 8.4636871456247604 #
point $-1 43.395888761444461 21.986308032065565 8.4636871456247604 #
edge $-1 $505 1 $505 0 $270 $-1 forward 7 unknown #
vertex $-1 $271 $506 #
ellipse-curve $-1 47.479111244602315 25.327361025795668 3.9717374987866201 0.51503808176128008 0 0.85716729658548041 1.2857509448782207 0 -0.77255712264192011 1 I I #
point $-1 49.664807420085786 25.327361025795668 4.6969407315633127 #
plane-surface $-1 0 0 8.4636871456247587 0 0 1 1 0 0 forward_v I I I I #
coedge $-1 $416 $415 $408 $507 forward $275 $-1 #
coedge $-1 $408 $277 $279 $412 reversed $171 $-1 #
coedge $-1 $277 $407 $406 $507 reversed $171 $-1 #
coedge $-1 $285 $280 $277 $410 forward $286 $-1 #
edge $-1 $413 -9.5235213316363314 $508 -5.4330764978054091 $409 $509 forward 7 unknown #
coedge $-1 $279 $278 $416 $510 reversed $107 $-1 #
edge $-1 $511 0 $413 5.1217918709802142 $407 $512 forward 7 unknown #
vertex $-1 $281 $513 #
straight-curve $-1 -49.271779355139699 -5.7239499239645752 8.4636871456247587 0 1 0 I I #
coedge $-1 $406 $282 $285 $420 reversed $275 $-1 #
coedge $-1 $282 $406 $411 $510 forward $275 $-1 #
vertex $-1 $283 $514 #
straight-curve $-1 -53.362224188970615 -17.070882239963623 45.307624732645415 0 0 1 I I #
straight-curve $-1 -53.362224188970615 -17.070882239963623 5.3813158131884933 -0.79863550430605224 0 -0.6018150307709319 I I #
edge $-1 $508 5.8249174558946759 $287 17.070882239963623 $415 $515 forward 7 unknown #
point $-1 -53.362224188970615 -17.070882239963623 8.4636871456247587 #
point $-1 -49.271779355139692 -17.070882239963623 8.4636871456247587 #
edge $-1 $516 1 $516 0 $290 $-1 forward 7 unknown #
vertex $-1 $291 $517 #
ellipse-curve $-1 -50.032448921561716 -11.44789984792915 5.2178423048967506 -0.6018150307709319 0 0.79863550430605224 0.79863550430605224 0 0.6018150307709319 1 I I #
point $-1 -50.518366267749116 -11.44789984792915 7.524316510177564 #
loop $-1 $-1 $302 $294 #
plane-surface $-1 -53.362224188970615 0 0 1 0 0 0 0 -1 forward_v I I I I #
coedge $-1 $430 $297 $299 $434 reversed $186 $-1 #
coedge $-1 $297 $429 $518 $519 reversed $186 $-1 #
coedge $-1 $305 $300 $297 $432 forward $295 $-1 #
edge $-1 $435 -9.5235213316363314 $520 -5.4330764978054091 $431 $521 forward 7 unknown #
coedge $-1 $299 $298 $438 $522 reversed $116 $-1 #
edge $-1 $523 0 $435 5.1217918709802142 $429 $524 forward 7 unknown #
vertex $-1 $301 $525 #
straight-curve $-1 -49.271779355139699 6.758233049094752 8.4636871456247587 0 1 0 I I #
coedge $-1 $518 $302 $305 $442 reversed $427 $-1 #
coedge $-1 $302 $518 $433 $522 forward $427 $-1 #
vertex $-1 $303 $526 #
straight-curve $-1 -53.362224188970615 7.8934837061550294 45.307624732645415 0 0 1 I I #
straight-curve $-1 -53.362224188970615 7.8934837061550294 5.3813158131884933 -0.79863550430605224 0 -0.6018150307709319 I I #
edge $-1 $520 -19.139448490223977 $306 -7.8934837061550294 $437 $527 forward 7 unknown #
point $-1 -53.362224188970615 7.8934837061550294 8.4636871456247587 #
point $-1 -49.271779355139692 7.8934837061550294 8.4636871456247587 #
edge $-1 $528 1 $528 0 $309 $-1 forward 7 unknown #
vertex $-1 $310 $529 #
ellipse-curve $-1 -50.032448921561716 13.516466098189504 5.2178423048967506 -0.6018150307709319 0 0.79863550430605224 0.79863550430605224 0 0.6018150307709319 1 I I #
point $-1 -50.518366267749116 13.516466098189504 7.524316510177564 #
plane-surface $-1 53.362224188970615 0 0 -1 0 0 0 0 1 forward_v I I I I #
coedge $-1 $318 $316 $320 $454 reversed $201 $-1 #
edge $-1 $331 -8.4636871456247587 $456 8.4636871456247587 $330 $530 forward 7 unknown #
vertex $-1 $454 $531 #
straight-curve $-1 -53.362224188970615 -28.66841401952577 0 0 0 -1 I I #
edge $-1 $452 -28.66841401952577 $456 28.66841401952577 $450 $532 forward 7 unknown #
straight-curve $-1 0 -28.66841401952577 -8.4636871456247587 -1 0 0 I I #
vertex $-1 $323 $533 #
straight-curve $-1 0 28.66841401952577 -8.4636871456247587 1 0 0 I I #
point $-1 53.362224188970615 28.66841401952577 -8.4636871456247587 #
point $-1 53.362224188970615 -28.66841401952577 -8.4636871456247587 #
straight-curve $-1 -53.362224188970615 0 8.4636871456247587 0 -1 0 I I #
point $-1 -53.362224188970615 28.66841401952577 8.4636871456247587 #
point $-1 -53.362224188970615 -28.66841401952577 8.4636871456247587 #
straight-curve $-1 53.362224188970615 -28.66841401952577 0 0 0 -1 I I #
straight-curve $-1 53.362224188970615 28.66841401952577 0 0 0 -1 I I #
plane-surface $-1 53.362224188970615 0 0 -1 0 0 0 0 1 forward_v I I I I #
coedge $-1 $344 $343 $354 $477 reversed $133 $-1 #
coedge $-1 $534 $347 $344 $468 forward $341 $-1 #
edge $-1 $469 21.260317872711539 $535 28.66841401952577 $344 $536 forward 7 unknown #
vertex $-1 $468 $537 #
straight-curve $-1 -53.362224188970615 -21.260317872711539 3.4818435728123793 0 0 -1 I I #
coedge $-1 $347 $534 $349 $473 forward $341 $-1 #
straight-curve $-1 0 -21.260317872711539 8.4636871456247587 -1 0 0 I I #
edge $-1 $480 -28.66841401952577 $350 -21.260317872711539 $349 $538 forward 7 unknown #
point $-1 53.362224188970615 -21.260317872711539 8.4636871456247587 #
straight-curve $-1 -53.362224188970615 -12.482182973059327 5.4636871456247587 0 -1 0 I I #
coedge $-1 $354 $353 $534 $539 reversed $220 $-1 #
edge $-1 $535 -8.4636871456247587 $355 -5.4636871456247587 $466 $540 forward 7 unknown #
point $-1 -53.362224188970615 -28.66841401952577 5.4636871456247587 #
point $-1 -53.362224188970615 -21.260317872711539 5.4636871456247587 #
vertex $-1 $473 $541 #
straight-curve $-1 53.362224188970615 -28.66841401952577 0 0 0 -1 I I #
coedge $-1 $372 $371 $364 $483 forward $362 $-1 #
edge $-1 $490 65.997898168419169 $485 71.986276751258231 $482 $542 forward 7 unknown #
edge $-1 $369 43.395888761444468 $490 53.362224188970615 $368 $543 forward 7 unknown #
vertex $-1 $483 $544 #
straight-curve $-1 -38.118482706725949 -21.260317872711543 57.442463732391317 -0.85716729658548041 0 0.51503808176128008 I I #
edge $-1 $485 -12.300685433220822 $373 -5.6185794457606182 $372 $545 forward 7 unknown #
point $-1 43.395888761444468 -21.260317872711539 8.4636871456247587 #
point $-1 53.362224188970607 -14.578211885251338 2.475308562785699 #
vertex $-1 $376 $546 #
straight-curve $-1 53.362224188970615 0 8.4636871456247587 0 1 0 I I #
vertex $-1 $379 $547 #
point $-1 48.764862189480539 -17.919264878981441 3.1991803761447004 #
coedge $-1 $496 $392 $386 $495 reversed $383 $-1 #
edge $-1 $503 -8.4636871456247587 $394 -2.475308562785699 $494 $548 forward 7 unknown #
coedge $-1 $387 $494 $389 $498 reversed $383 $-1 #
straight-curve $-1 53.362224188970615 21.986308032065565 74.46158531404393 0 0 -1 I I #
edge $-1 $390 21.986308032065565 $503 28.66841401952577 $496 $549 forward 7 unknown #
point $-1 53.362224188970615 21.986308032065565 8.4636871456247587 #
straight-curve $-1 53.362224188970615 12.663680512897834 2.4753085627856919 0 1 0 I I #
point $-1 53.362224188970607 28.66841401952577 2.475308562785699 #
point $-1 53.362224188970607 21.986308032065565 2.475308562785699 #
vertex $-1 $498 $550 #
straight-curve $-1 0 28.66841401952577 8.4636871456247587 -1 0 0 I I #
vertex $-1 $401 $551 #
point $-1 48.764862189480539 25.327361025795668 3.1991803761447004 #
edge $-1 $508 36.843937587020655 $511 39.926308919456922 $406 $552 forward 7 unknown #
vertex $-1 $420 $553 #
straight-curve $-1 -58.795300686776024 -5.8249174558946759 8.4636871456247604 -1 0 0 I I #
edge $-1 $511 0.10096753193010066 $417 11.346932315999048 $416 $554 forward 7 unknown #
vertex $-1 $510 $555 #
straight-curve $-1 -53.362224188970615 -5.8249174558946759 5.3813158131884933 0.79863550430605224 0 0.6018150307709319 I I #
point $-1 -49.271779355139692 -5.8249174558946759 8.4636871456247587 #
point $-1 -53.362224188970615 -17.070882239963623 5.3813158131884933 #
straight-curve $-1 -53.362224188970615 0 8.4636871456247587 0 -1 0 I I #
vertex $-1 $423 $556 #
point $-1 -49.233813417255661 -11.44789984792915 5.8196573356676824 #
coedge $-1 $438 $437 $430 $519 forward $427 $-1 #
edge $-1 $520 36.843937587020655 $523 39.926308919456922 $518 $557 forward 7 unknown #
vertex $-1 $442 $558 #
straight-curve $-1 -58.795300686776024 19.139448490223977 8.4636871456247604 -1 0 0 I I #
edge $-1 $523 -12.381215441129225 $439 -1.1352506570602774 $438 $559 forward 7 unknown #
vertex $-1 $522 $560 #
straight-curve $-1 -53.362224188970615 19.139448490223977 5.3813158131884933 0.79863550430605224 0 0.6018150307709319 I I #
point $-1 -49.271779355139692 19.139448490223977 8.4636871456247587 #
point $-1 -53.362224188970615 7.8934837061550294 5.3813158131884933 #
straight-curve $-1 -53.362224188970615 0 8.4636871456247587 0 -1 0 I I #
vertex $-1 $445 $561 #
point $-1 -49.233813417255661 13.516466098189504 5.8196573356676824 #
straight-curve $-1 -53.362224188970615 28.66841401952577 0 0 0 -1 I I #
point $-1 -53.362224188970615 -28.66841401952577 -8.4636871456247587 #
straight-curve $-1 -53.362224188970615 0 -8.4636871456247587 0 1 0 I I #
point $-1 -53.362224188970615 28.66841401952577 -8.4636871456247587 #
coedge $-1 $471 $467 $476 $539 forward $341 $-1 #
vertex $-1 $468 $562 #
straight-curve $-1 -53.362224188970615 0 8.4636871456247587 0 -1 0 I I #
point $-1 -53.362224188970615 -21.260317872711539 8.4636871456247587 #
straight-curve $-1 53.362224188970615 0 8.4636871456247587 0 1 0 I I #
edge $-1 $535 -53.362224188970615 $480 53.362224188970615 $476 $563 forward 7 unknown #
straight-curve $-1 -53.362224188970615 -28.66841401952577 0 0 0 -1 I I #
point $-1 53.362224188970615 -28.66841401952577 8.4636871456247587 #
straight-curve $-1 53.362224188970615 -21.260317872711543 74.46158531404393 0 0 -1 I I #
straight-curve $-1 0 -21.260317872711539 8.4636871456247587 1 0 0 I I #
point $-1 53.362224188970607 -21.260317872711543 2.475308562785699 #
straight-curve $-1 53.362224188970615 -8.9596324394907203 2.4753085627856919 0 1 0 I I #
point $-1 53.362224188970615 -21.260317872711539 8.4636871456247587 #
point $-1 46.706554121960401 -17.919264878981441 2.6859865539083998 #
straight-curve $-1 53.362224188970615 28.66841401952577 0 0 0 -1 I I #
straight-curve $-1 53.362224188970615 0 8.4636871456247587 0 1 0 I I #
point $-1 53.362224188970615 28.66841401952577 8.4636871456247587 #
point $-1 46.706554121960401 25.327361025795668 2.6859865539083998 #
straight-curve $-1 -53.362224188970615 -5.8249174558946759 45.307624732645415 0 0 -1 I I #
point $-1 -53.362224188970615 -5.8249174558946759 8.4636871456247587 #
straight-curve $-1 -53.362224188970615 -5.7239499239645752 5.3813158131884915 0 -1 0 I I #
point $-1 -53.362224188970615 -5.8249174558946759 5.3813158131884933 #
point $-1 -49.43063389079078 -11.44789984792915 4.4192068005906986 #
straight-curve $-1 -53.362224188970615 19.139448490223977 45.307624732645415 0 0 -1 I I #
point $-1 -53.362224188970615 19.139448490223977 8.4636871456247587 #
straight-curve $-1 -53.362224188970615 6.758233049094752 5.3813158131884915 0 -1 0 I I #
point $-1 -53.362224188970615 19.139448490223977 5.3813158131884933 #
point $-1 -49.43063389079078 13.516466098189504 4.4192068005906986 #
point $-1 -53.362224188970615 -28.66841401952577 8.4636871456247587 #
straight-curve $-1 0 -28.66841401952577 8.4636871456247587 1 0 0 I I #
End-of-ACIS-data 