500 0 17 0           
7 Unknown 11 ACIS 5.0 NT 24 Thu Mar 25 22:29:10 1999 
-1 9.9999999999999995e-007 1e-010 
body $-1 $17 $-1 $18 #
body $-1 $19 $-1 $20 #
body $-1 $21 $-1 $22 #
body $-1 $23 $-1 $24 #
body $-1 $25 $-1 $26 #
body $-1 $27 $-1 $28 #
body $-1 $29 $-1 $30 #
body $-1 $31 $-1 $32 #
body $-1 $33 $-1 $34 #
body $-1 $35 $-1 $36 #
body $-1 $37 $-1 $38 #
body $-1 $39 $-1 $40 #
body $-1 $41 $-1 $42 #
body $-1 $43 $-1 $44 #
body $-1 $45 $-1 $46 #
body $-1 $47 $-1 $48 #
body $-1 $49 $-1 $50 #
lump $-1 $-1 $51 $0 #
transform $-1 1 0 0 0 1 0 0 0 1 40.732444227423933 19.791415686185466 5.8860843227468491 1 rotate no_reflect no_shear #
lump $-1 $-1 $52 $1 #
transform $-1 1 0 0 0 1 0 0 0 1 40.732444227423933 19.791415686185466 5.8860843227468491 1 rotate no_reflect no_shear #
lump $-1 $-1 $53 $2 #
transform $-1 1 0 0 0 1 0 0 0 1 40.732444227423933 19.791415686185466 5.8860843227468491 1 rotate no_reflect no_shear #
lump $-1 $-1 $54 $3 #
transform $-1 1 0 0 0 1 0 0 0 1 40.732444227423933 19.791415686185466 5.8860843227468491 1 rotate no_reflect no_shear #
lump $-1 $-1 $55 $4 #
transform $-1 1 0 0 0 1 0 0 0 1 40.732444227423933 19.791415686185466 5.8860843227468491 1 rotate no_reflect no_shear #
lump $-1 $-1 $56 $5 #
transform $-1 1 0 0 0 1 0 0 0 1 40.732444227423933 19.791415686185466 5.8860843227468491 1 rotate no_reflect no_shear #
lump $-1 $-1 $57 $6 #
transform $-1 1 0 0 0 1 0 0 0 1 40.732444227423933 19.791415686185466 5.8860843227468491 1 rotate no_reflect no_shear #
lump $-1 $-1 $58 $7 #
transform $-1 1 0 0 0 1 0 0 0 1 40.732444227423933 19.791415686185466 5.8860843227468491 1 rotate no_reflect no_shear #
lump $-1 $-1 $59 $8 #
transform $-1 1 0 0 0 1 0 0 0 1 40.732444227423933 19.791415686185466 5.8860843227468491 1 rotate no_reflect no_shear #
lump $-1 $-1 $60 $9 #
transform $-1 1 0 0 0 1 0 0 0 1 40.732444227423933 19.791415686185466 5.8860843227468491 1 rotate no_reflect no_shear #
lump $-1 $-1 $61 $10 #
transform $-1 1 0 0 0 1 0 0 0 1 40.732444227423933 19.791415686185466 5.8860843227468491 1 rotate no_reflect no_shear #
lump $-1 $-1 $62 $11 #
transform $-1 1 0 0 0 1 0 0 0 1 40.732444227423933 19.791415686185466 5.8860843227468491 1 rotate no_reflect no_shear #
lump $-1 $-1 $63 $12 #
transform $-1 1 0 0 0 1 0 0 0 1 40.732444227423933 19.791415686185466 5.8860843227468491 1 rotate no_reflect no_shear #
lump $-1 $-1 $64 $13 #
transform $-1 1 0 0 0 1 0 0 0 1 40.732444227423933 19.791415686185466 5.8860843227468491 1 rotate no_reflect no_shear #
lump $-1 $-1 $65 $14 #
transform $-1 1 0 0 0 1 0 0 0 1 40.732444227423933 19.791415686185466 5.8860843227468491 1 rotate no_reflect no_shear #
lump $-1 $-1 $66 $15 #
transform $-1 1 0 0 0 1 0 0 0 1 40.732444227423933 19.791415686185466 5.8860843227468491 1 rotate no_reflect no_shear #
lump $-1 $-1 $67 $16 #
transform $-1 1 0 0 0 1 0 0 0 1 40.732444227423933 19.791415686185466 5.8860843227468491 1 rotate no_reflect no_shear #
shell $-1 $-1 $-1 $68 $-1 $17 #
shell $-1 $-1 $-1 $69 $-1 $19 #
shell $-1 $-1 $-1 $70 $-1 $21 #
shell $-1 $-1 $-1 $71 $-1 $23 #
shell $-1 $-1 $-1 $72 $-1 $25 #
shell $-1 $-1 $-1 $73 $-1 $27 #
shell $-1 $-1 $-1 $74 $-1 $29 #
shell $-1 $-1 $-1 $75 $-1 $31 #
shell $-1 $-1 $-1 $76 $-1 $33 #
shell $-1 $-1 $-1 $77 $-1 $35 #
shell $-1 $-1 $-1 $78 $-1 $37 #
shell $-1 $-1 $-1 $79 $-1 $39 #
shell $-1 $-1 $-1 $80 $-1 $41 #
shell $-1 $-1 $-1 $81 $-1 $43 #
shell $-1 $-1 $-1 $82 $-1 $45 #
shell $-1 $-1 $-1 $83 $-1 $47 #
shell $-1 $-1 $-1 $84 $-1 $49 #
face $-1 $85 $86 $51 $-1 $87 forward single #
face $-1 $88 $89 $52 $-1 $90 forward single #
face $-1 $91 $92 $53 $-1 $93 forward single #
face $-1 $94 $95 $54 $-1 $96 reversed single #
face $-1 $97 $98 $55 $-1 $99 forward single #
face $-1 $100 $101 $56 $-1 $102 forward single #
face $-1 $103 $104 $57 $-1 $105 reversed single #
face $-1 $106 $107 $58 $-1 $108 forward single #
face $-1 $109 $110 $59 $-1 $111 forward single #
face $-1 $112 $113 $60 $-1 $114 reversed single #
face $-1 $115 $116 $61 $-1 $117 forward single #
face $-1 $118 $119 $62 $-1 $120 forward single #
face $-1 $121 $122 $63 $-1 $123 reversed single #
face $-1 $124 $125 $64 $-1 $126 forward single #
face $-1 $127 $128 $65 $-1 $129 forward single #
face $-1 $130 $131 $66 $-1 $132 reversed single #
face $-1 $133 $134 $67 $-1 $135 forward single #
face $-1 $136 $137 $51 $-1 $138 reversed single #
loop $-1 $-1 $139 $68 #
plane-surface $-1 0 0 5.8860843227468491 0 0 1 1 0 0 forward_v I I I I #
face $-1 $140 $141 $52 $-1 $142 reversed single #
loop $-1 $-1 $143 $69 #
plane-surface $-1 -40.732444227423933 0 0 1 0 0 0 0 -1 forward_v I I I I #
face $-1 $144 $145 $53 $-1 $146 reversed single #
loop $-1 $-1 $147 $70 #
plane-surface $-1 40.732444227423933 0 0 -1 0 0 0 0 1 forward_v I I I I #
face $-1 $148 $149 $54 $-1 $150 reversed single #
loop $-1 $-1 $151 $71 #
plane-surface $-1 -36.146234812295944 44.886290525224773 87.649012470843303 1 0 0 0 -0.66913061440640931 -0.74314481823134659 forward_v I I I I #
face $-1 $152 $153 $55 $-1 $154 forward single #
loop $-1 $155 $156 $72 #
cone-surface $-1 -32.689421843999803 15.137706744152894 1.3320100143770914 0 -0.66913061440640931 -0.74314481823134659 1.5 0 0 1 I I 0 1 1.5 forward I I I I #
face $-1 $157 $158 $56 $-1 $159 forward single #
loop $-1 $160 $161 $73 #
cone-surface $-1 -27.504202391555591 15.137706744152894 1.3320100143770914 0 -0.66913061440640931 -0.74314481823134659 1.5 0 0 1 I I 0 1 1.5 forward I I I I #
face $-1 $162 $163 $57 $-1 $164 reversed single #
loop $-1 $-1 $165 $74 #
plane-surface $-1 -18.073117406147972 44.886290525224773 87.649012470843303 1 0 0 0 -0.66913061440640931 -0.74314481823134659 forward_v I I I I #
face $-1 $166 $167 $58 $-1 $168 forward single #
loop $-1 $169 $170 $75 #
cone-surface $-1 -14.616304437851831 15.137706744152894 1.3320100143770914 0 -0.66913061440640931 -0.74314481823134659 1.5 0 0 1 I I 0 1 1.5 forward I I I I #
face $-1 $171 $172 $59 $-1 $173 forward single #
loop $-1 $174 $175 $76 #
cone-surface $-1 -9.4310849854076189 15.137706744152894 1.3320100143770914 0 -0.66913061440640931 -0.74314481823134659 1.5 0 0 1 I I 0 1 1.5 forward I I I I #
face $-1 $176 $177 $60 $-1 $178 reversed single #
loop $-1 $-1 $179 $77 #
plane-surface $-1 1.7763568394002505e-015 44.886290525224773 87.649012470843303 1 0 0 0 -0.66913061440640931 -0.74314481823134659 forward_v I I I I #
face $-1 $180 $181 $61 $-1 $182 forward single #
loop $-1 $183 $184 $78 #
cone-surface $-1 3.4568129682961413 15.137706744152894 1.3320100143770914 0 -0.66913061440640931 -0.74314481823134659 1.5 0 0 1 I I 0 1 1.5 forward I I I I #
face $-1 $185 $186 $62 $-1 $187 forward single #
loop $-1 $188 $189 $79 #
cone-surface $-1 8.6420324207403567 15.137706744152894 1.3320100143770914 0 -0.66913061440640931 -0.74314481823134659 1.5 0 0 1 I I 0 1 1.5 forward I I I I #
face $-1 $190 $191 $63 $-1 $192 reversed single #
loop $-1 $-1 $193 $80 #
plane-surface $-1 18.073117406147972 44.886290525224773 87.649012470843303 1 0 0 0 -0.66913061440640931 -0.74314481823134659 forward_v I I I I #
face $-1 $194 $195 $64 $-1 $196 forward single #
loop $-1 $197 $198 $81 #
cone-surface $-1 21.529930374444113 15.137706744152894 1.3320100143770914 0 -0.66913061440640931 -0.74314481823134659 1.5 0 0 1 I I 0 1 1.5 forward I I I I #
face $-1 $199 $200 $65 $-1 $201 forward single #
loop $-1 $202 $203 $82 #
cone-surface $-1 26.715149826888329 15.137706744152894 1.3320100143770914 0 -0.66913061440640931 -0.74314481823134659 1.5 0 0 1 I I 0 1 1.5 forward I I I I #
face $-1 $204 $205 $66 $-1 $206 reversed single #
loop $-1 $-1 $207 $83 #
plane-surface $-1 36.146234812295944 -62.961230007027844 71.010228776376479 -1 0 0 0 -0.52991927123019833 0.84804809178421925 forward_v I I I I #
face $-1 $208 $209 $67 $-1 $210 forward single #
loop $-1 $211 $212 $84 #
cone-surface $-1 26.773276856742037 -15.848099718721588 2.6679394415585187 0 0.52991927123019833 -0.84804809178421925 1 0 0 1 I I 0 1 1 forward I I I I #
face $-1 $213 $214 $51 $-1 $215 reversed single #
loop $-1 $-1 $216 $85 #
plane-surface $-1 0 0 -5.8860843227468491 0 0 1 1 0 0 forward_v I I I I #
coedge $-1 $217 $218 $219 $220 forward $86 $-1 #
face $-1 $221 $222 $52 $-1 $223 forward single #
loop $-1 $-1 $224 $88 #
plane-surface $-1 0 19.791415686185466 0 0 -1 0 0 0 -1 forward_v I I I I #
coedge $-1 $225 $226 $227 $228 forward $89 $-1 #
face $-1 $229 $230 $53 $-1 $231 forward single #
loop $-1 $-1 $232 $91 #
plane-surface $-1 0 -19.791415686185466 0 0 1 0 0 0 1 forward_v I I I I #
coedge $-1 $233 $234 $235 $236 forward $92 $-1 #
face $-1 $237 $238 $54 $-1 $239 reversed single #
loop $-1 $-1 $240 $94 #
plane-surface $-1 -30.096812117777695 -9.6243603391171817 27.108802747828463 0 0.66913061440640931 0.74314481823134659 1 0 0 forward_v I I I I #
coedge $-1 $241 $242 $243 $244 reversed $95 $-1 #
face $-1 $-1 $245 $55 $-1 $246 forward single #
loop $-1 $247 $248 $97 #
cone-surface $-1 -32.689421843999803 12.904929769819937 -1.1477399821370531 0 -0.66913061440640931 -0.74314481823134659 0.75 0 0 1 I I -0.70710678118654757 0.70710678118654757 0.75 forward I I I I #
loop $-1 $-1 $249 $72 #
coedge $-1 $156 $156 $250 $251 reversed $98 $-1 #
face $-1 $-1 $252 $56 $-1 $253 forward single #
loop $-1 $254 $255 $100 #
cone-surface $-1 -27.504202391555591 12.904929769819937 -1.1477399821370531 0 -0.66913061440640931 -0.74314481823134659 0.75 0 0 1 I I -0.70710678118654757 0.70710678118654757 0.75 forward I I I I #
loop $-1 $-1 $256 $73 #
coedge $-1 $161 $161 $257 $258 reversed $101 $-1 #
face $-1 $259 $260 $57 $-1 $261 reversed single #
loop $-1 $-1 $262 $103 #
plane-surface $-1 -12.023694711629723 -9.6243603391171817 27.108802747828463 0 0.66913061440640931 0.74314481823134659 1 0 0 forward_v I I I I #
coedge $-1 $263 $264 $265 $266 reversed $104 $-1 #
face $-1 $-1 $267 $58 $-1 $268 forward single #
loop $-1 $269 $270 $106 #
cone-surface $-1 -14.616304437851831 12.904929769819937 -1.1477399821370531 0 -0.66913061440640931 -0.74314481823134659 0.75 0 0 1 I I -0.70710678118654757 0.70710678118654757 0.75 forward I I I I #
loop $-1 $-1 $271 $75 #
coedge $-1 $170 $170 $272 $273 reversed $107 $-1 #
face $-1 $-1 $274 $59 $-1 $275 forward single #
loop $-1 $276 $277 $109 #
cone-surface $-1 -9.4310849854076189 12.904929769819937 -1.1477399821370531 0 -0.66913061440640931 -0.74314481823134659 0.75 0 0 1 I I -0.70710678118654757 0.70710678118654757 0.75 forward I I I I #
loop $-1 $-1 $278 $76 #
coedge $-1 $175 $175 $279 $280 reversed $110 $-1 #
face $-1 $281 $282 $60 $-1 $283 reversed single #
loop $-1 $-1 $284 $112 #
plane-surface $-1 6.049422694518249 -9.6243603391171817 27.108802747828463 0 0.66913061440640931 0.74314481823134659 1 0 0 forward_v I I I I #
coedge $-1 $285 $286 $287 $288 reversed $113 $-1 #
face $-1 $-1 $289 $61 $-1 $290 forward single #
loop $-1 $291 $292 $115 #
cone-surface $-1 3.4568129682961413 12.904929769819937 -1.1477399821370531 0 -0.66913061440640931 -0.74314481823134659 0.75 0 0 1 I I -0.70710678118654757 0.70710678118654757 0.75 forward I I I I #
loop $-1 $-1 $293 $78 #
coedge $-1 $184 $184 $294 $295 reversed $116 $-1 #
face $-1 $-1 $296 $62 $-1 $297 forward single #
loop $-1 $298 $299 $118 #
cone-surface $-1 8.6420324207403567 12.904929769819937 -1.1477399821370531 0 -0.66913061440640931 -0.74314481823134659 0.75 0 0 1 I I -0.70710678118654757 0.70710678118654757 0.75 forward I I I I #
loop $-1 $-1 $300 $79 #
coedge $-1 $189 $189 $301 $302 reversed $119 $-1 #
face $-1 $303 $304 $63 $-1 $305 reversed single #
loop $-1 $-1 $306 $121 #
plane-surface $-1 24.122540100666221 -9.6243603391171817 27.108802747828463 0 0.66913061440640931 0.74314481823134659 1 0 0 forward_v I I I I #
coedge $-1 $307 $308 $309 $310 reversed $122 $-1 #
face $-1 $-1 $311 $64 $-1 $312 forward single #
loop $-1 $313 $314 $124 #
cone-surface $-1 21.529930374444113 12.904929769819937 -1.1477399821370531 0 -0.66913061440640931 -0.74314481823134659 0.75 0 0 1 I I -0.70710678118654757 0.70710678118654757 0.75 forward I I I I #
loop $-1 $-1 $315 $81 #
coedge $-1 $198 $198 $316 $317 reversed $125 $-1 #
face $-1 $-1 $318 $65 $-1 $319 forward single #
loop $-1 $320 $321 $127 #
cone-surface $-1 26.715149826888329 12.904929769819937 -1.1477399821370531 0 -0.66913061440640931 -0.74314481823134659 0.75 0 0 1 I I -0.70710678118654757 0.70710678118654757 0.75 forward I I I I #
loop $-1 $-1 $322 $82 #
coedge $-1 $203 $203 $323 $324 reversed $128 $-1 #
face $-1 $325 $326 $66 $-1 $327 reversed single #
loop $-1 $-1 $328 $130 #
plane-surface $-1 26.773276856742037 -19.791415686185466 1.9240855748284673 0 -0.52991927123019833 0.84804809178421925 1 0 0 forward_v I I I I #
coedge $-1 $329 $330 $331 $332 reversed $131 $-1 #
face $-1 $-1 $333 $67 $-1 $334 forward single #
loop $-1 $335 $336 $133 #
cone-surface $-1 26.773276856742037 -14.810085757593788 1.0067698884372618 0 0.52991927123019833 -0.84804809178421925 0.5 0 0 1 I I -0.70710678118654768 0.70710678118654735 0.5 forward I I I I #
loop $-1 $-1 $337 $84 #
coedge $-1 $212 $212 $338 $339 reversed $134 $-1 #
face $-1 $340 $341 $51 $-1 $342 reversed single #
loop $-1 $-1 $343 $136 #
plane-surface $-1 0 -19.791415686185466 0 0 1 0 0 0 1 forward_v I I I I #
coedge $-1 $344 $345 $346 $347 forward $137 $-1 #
coedge $-1 $348 $139 $349 $350 forward $86 $-1 #
coedge $-1 $139 $348 $351 $352 forward $86 $-1 #
coedge $-1 $353 $354 $139 $220 reversed $355 $-1 #
edge $-1 $356 -19.791415686185466 $357 19.791415686185466 $219 $358 forward 7 unknown #
face $-1 $359 $360 $52 $-1 $361 reversed single #
loop $-1 $-1 $227 $140 #
plane-surface $-1 -43.025548934987924 0 3.2462551524538208 0 0 1 1 0 0 forward_v I I I I #
coedge $-1 $362 $363 $226 $364 forward $141 $-1 #
coedge $-1 $365 $143 $366 $367 reversed $89 $-1 #
coedge $-1 $143 $365 $224 $364 reversed $89 $-1 #
coedge $-1 $368 $369 $143 $228 reversed $222 $-1 #
edge $-1 $370 -19.791415686185466 $371 19.791415686185466 $227 $372 forward 7 unknown #
face $-1 $373 $374 $53 $-1 $375 reversed single #
loop $-1 $-1 $376 $144 #
plane-surface $-1 43.025548934987917 0 3.2462551524538208 0 0 1 1 0 0 forward_v I I I I #
coedge $-1 $377 $378 $234 $379 forward $145 $-1 #
coedge $-1 $380 $147 $381 $382 reversed $92 $-1 #
coedge $-1 $147 $380 $232 $379 reversed $92 $-1 #
coedge $-1 $383 $384 $147 $236 reversed $230 $-1 #
edge $-1 $385 -19.791415686185466 $386 19.791415686185466 $235 $387 forward 7 unknown #
face $-1 $388 $389 $54 $-1 $390 reversed single #
loop $-1 $-1 $391 $148 #
plane-surface $-1 -24.047389423259446 44.886290525224773 87.649012470843303 -1 0 0 0 0.66913061440640931 0.74314481823134659 forward_v I I I I #
coedge $-1 $392 $393 $394 $395 reversed $149 $-1 #
coedge $-1 $242 $151 $396 $397 reversed $95 $-1 #
coedge $-1 $151 $241 $392 $398 reversed $95 $-1 #
coedge $-1 $394 $399 $151 $244 forward $400 $-1 #
edge $-1 $401 2.65172957642692 $402 8.4972894334357498 $243 $403 forward 7 unknown #
loop $-1 $-1 $250 $152 #
plane-surface $-1 -30.096812117777695 -9.6243603391171817 27.108802747828463 0 0.66913061440640931 0.74314481823134659 1 0 0 forward_v I I I I #
loop $-1 $-1 $404 $97 #
coedge $-1 $248 $248 $249 $405 reversed $153 $-1 #
coedge $-1 $249 $249 $248 $405 forward $155 $-1 #
coedge $-1 $250 $250 $156 $251 forward $245 $-1 #
edge $-1 $406 -1.9354213569430665e-015 $406 6.2831853071795987 $250 $407 forward 7 unknown #
loop $-1 $-1 $257 $157 #
plane-surface $-1 -30.096812117777695 -9.6243603391171817 27.108802747828463 0 0.66913061440640931 0.74314481823134659 1 0 0 forward_v I I I I #
loop $-1 $-1 $408 $100 #
coedge $-1 $255 $255 $256 $409 reversed $158 $-1 #
coedge $-1 $256 $256 $255 $409 forward $160 $-1 #
coedge $-1 $257 $257 $161 $258 forward $252 $-1 #
edge $-1 $410 -1.9354213569430665e-015 $410 6.2831853071795987 $257 $411 forward 7 unknown #
face $-1 $412 $413 $57 $-1 $414 forward single #
loop $-1 $-1 $415 $162 #
plane-surface $-1 -5.9742720171114758 44.886290525224773 87.649012470843303 -1 0 0 0 0.66913061440640931 0.74314481823134659 forward_v I I I I #
coedge $-1 $416 $417 $418 $419 reversed $163 $-1 #
coedge $-1 $264 $165 $420 $421 reversed $104 $-1 #
coedge $-1 $165 $263 $416 $422 reversed $104 $-1 #
coedge $-1 $418 $423 $165 $266 forward $413 $-1 #
edge $-1 $424 2.65172957642692 $425 8.4972894334357498 $265 $426 forward 7 unknown #
loop $-1 $-1 $272 $166 #
plane-surface $-1 -12.023694711629723 -9.6243603391171817 27.108802747828463 0 0.66913061440640931 0.74314481823134659 1 0 0 forward_v I I I I #
loop $-1 $-1 $427 $106 #
coedge $-1 $270 $270 $271 $428 reversed $167 $-1 #
coedge $-1 $271 $271 $270 $428 forward $169 $-1 #
coedge $-1 $272 $272 $170 $273 forward $267 $-1 #
edge $-1 $429 -1.9354213569430665e-015 $429 6.2831853071795987 $272 $430 forward 7 unknown #
loop $-1 $-1 $279 $171 #
plane-surface $-1 -12.023694711629723 -9.6243603391171817 27.108802747828463 0 0.66913061440640931 0.74314481823134659 1 0 0 forward_v I I I I #
loop $-1 $-1 $431 $109 #
coedge $-1 $277 $277 $278 $432 reversed $172 $-1 #
coedge $-1 $278 $278 $277 $432 forward $174 $-1 #
coedge $-1 $279 $279 $175 $280 forward $274 $-1 #
edge $-1 $433 -1.9354213569430665e-015 $433 6.2831853071795987 $279 $434 forward 7 unknown #
face $-1 $435 $436 $60 $-1 $437 forward single #
loop $-1 $-1 $438 $176 #
plane-surface $-1 12.098845389036496 44.886290525224773 87.649012470843303 -1 0 0 0 0.66913061440640931 0.74314481823134659 forward_v I I I I #
coedge $-1 $439 $440 $441 $442 reversed $177 $-1 #
coedge $-1 $286 $179 $443 $444 reversed $113 $-1 #
coedge $-1 $179 $285 $439 $445 reversed $113 $-1 #
coedge $-1 $441 $446 $179 $288 forward $436 $-1 #
edge $-1 $447 2.65172957642692 $448 8.4972894334357498 $287 $449 forward 7 unknown #
loop $-1 $-1 $294 $180 #
plane-surface $-1 6.049422694518249 -9.6243603391171817 27.108802747828463 0 0.66913061440640931 0.74314481823134659 1 0 0 forward_v I I I I #
loop $-1 $-1 $450 $115 #
coedge $-1 $292 $292 $293 $451 reversed $181 $-1 #
coedge $-1 $293 $293 $292 $451 forward $183 $-1 #
coedge $-1 $294 $294 $184 $295 forward $289 $-1 #
edge $-1 $452 -1.9354213569430665e-015 $452 6.2831853071795987 $294 $453 forward 7 unknown #
loop $-1 $-1 $301 $185 #
plane-surface $-1 6.049422694518249 -9.6243603391171817 27.108802747828463 0 0.66913061440640931 0.74314481823134659 1 0 0 forward_v I I I I #
loop $-1 $-1 $454 $118 #
coedge $-1 $299 $299 $300 $455 reversed $186 $-1 #
coedge $-1 $300 $300 $299 $455 forward $188 $-1 #
coedge $-1 $301 $301 $189 $302 forward $296 $-1 #
edge $-1 $456 -1.9354213569430665e-015 $456 6.2831853071795987 $301 $457 forward 7 unknown #
face $-1 $458 $459 $63 $-1 $460 forward single #
loop $-1 $-1 $461 $190 #
plane-surface $-1 30.17196279518447 44.886290525224773 87.649012470843303 -1 0 0 0 0.66913061440640931 0.74314481823134659 forward_v I I I I #
coedge $-1 $462 $463 $464 $465 reversed $191 $-1 #
coedge $-1 $308 $193 $466 $467 reversed $122 $-1 #
coedge $-1 $193 $307 $462 $468 reversed $122 $-1 #
coedge $-1 $464 $469 $193 $310 forward $459 $-1 #
edge $-1 $470 2.65172957642692 $471 8.4972894334357498 $309 $472 forward 7 unknown #
loop $-1 $-1 $316 $194 #
plane-surface $-1 24.122540100666221 -9.6243603391171817 27.108802747828463 0 0.66913061440640931 0.74314481823134659 1 0 0 forward_v I I I I #
loop $-1 $-1 $473 $124 #
coedge $-1 $314 $314 $315 $474 reversed $195 $-1 #
coedge $-1 $315 $315 $314 $474 forward $197 $-1 #
coedge $-1 $316 $316 $198 $317 forward $311 $-1 #
edge $-1 $475 -1.9354213569430665e-015 $475 6.2831853071795987 $316 $476 forward 7 unknown #
loop $-1 $-1 $323 $199 #
plane-surface $-1 24.122540100666221 -9.6243603391171817 27.108802747828463 0 0.66913061440640931 0.74314481823134659 1 0 0 forward_v I I I I #
loop $-1 $-1 $477 $127 #
coedge $-1 $321 $321 $322 $478 reversed $200 $-1 #
coedge $-1 $322 $322 $321 $478 forward $202 $-1 #
coedge $-1 $323 $323 $203 $324 forward $318 $-1 #
edge $-1 $479 -1.9354213569430665e-015 $479 6.2831853071795987 $323 $480 forward 7 unknown #
face $-1 $481 $482 $66 $-1 $483 forward single #
loop $-1 $-1 $484 $204 #
plane-surface $-1 17.400318901188125 -62.961230007027844 71.010228776376479 1 0 0 0 0.52991927123019833 -0.84804809178421925 forward_v I I I I #
coedge $-1 $485 $486 $487 $488 reversed $205 $-1 #
coedge $-1 $330 $207 $489 $490 reversed $131 $-1 #
coedge $-1 $207 $329 $485 $491 reversed $131 $-1 #
coedge $-1 $487 $492 $207 $332 forward $482 $-1 #
edge $-1 $493 11.689199317328455 $494 18.02972260123083 $331 $495 forward 7 unknown #
loop $-1 $-1 $338 $208 #
plane-surface $-1 26.773276856742037 -19.791415686185466 1.9240855748284673 0 -0.52991927123019833 0.84804809178421925 1 0 0 forward_v I I I I #
loop $-1 $-1 $496 $133 #
coedge $-1 $336 $336 $337 $497 reversed $209 $-1 #
coedge $-1 $337 $337 $336 $497 forward $211 $-1 #
coedge $-1 $338 $338 $212 $339 forward $333 $-1 #
edge $-1 $498 -3.7778978124636169e-016 $498 6.2831853071796004 $338 $499 forward 7 unknown #
face $-1 $500 $501 $51 $-1 $502 reversed single #
loop $-1 $-1 $503 $213 #
plane-surface $-1 -40.732444227423933 0 0 1 0 0 0 0 -1 forward_v I I I I #
coedge $-1 $504 $351 $505 $506 forward $214 $-1 #
coedge $-1 $507 $216 $504 $508 forward $137 $-1 #
coedge $-1 $216 $507 $509 $510 forward $137 $-1 #
coedge $-1 $354 $353 $216 $347 reversed $355 $-1 #
edge $-1 $511 -19.791415686185466 $512 19.791415686185466 $346 $513 forward 7 unknown #
coedge $-1 $218 $217 $514 $515 forward $86 $-1 #
coedge $-1 $516 $517 $217 $350 reversed $501 $-1 #
edge $-1 $357 -40.732444227423933 $518 40.732444227423933 $349 $519 forward 7 unknown #
coedge $-1 $343 $520 $218 $352 reversed $214 $-1 #
edge $-1 $521 -40.732444227423933 $356 40.732444227423933 $351 $522 forward 7 unknown #
coedge $-1 $346 $219 $520 $523 forward $355 $-1 #
coedge $-1 $219 $346 $516 $524 reversed $355 $-1 #
loop $-1 $-1 $353 $500 #
vertex $-1 $220 $525 #
vertex $-1 $220 $526 #
straight-curve $-1 40.732444227423933 0 5.8860843227468491 0 1 0 I I #
face $-1 $527 $528 $52 $-1 $529 reversed single #
loop $-1 $-1 $530 $221 #
plane-surface $-1 -43.025548934987924 0 -0.23021171659490935 0 0 1 1 0 0 forward_v I I I I #
coedge $-1 $531 $224 $532 $533 reversed $141 $-1 #
coedge $-1 $224 $531 $368 $534 reversed $141 $-1 #
edge $-1 $370 -3.2462551524538208 $535 0.23021171659490935 $224 $536 forward 7 unknown #
coedge $-1 $226 $225 $530 $537 forward $89 $-1 #
coedge $-1 $538 $539 $225 $367 forward $540 $-1 #
edge $-1 $541 -0.23021171659490935 $371 3.2462551524538208 $366 $542 forward 7 unknown #
coedge $-1 $543 $227 $363 $534 forward $222 $-1 #
coedge $-1 $227 $543 $538 $544 forward $222 $-1 #
vertex $-1 $364 $545 #
vertex $-1 $544 $546 #
straight-curve $-1 -40.732444227423933 0 3.2462551524538208 0 -1 0 I I #
face $-1 $547 $548 $53 $-1 $549 reversed single #
loop $-1 $-1 $550 $229 #
plane-surface $-1 43.025548934987917 0 -0.23021171659490935 0 0 1 1 0 0 forward_v I I I I #
coedge $-1 $384 $383 $551 $552 forward $230 $-1 #
coedge $-1 $553 $232 $554 $555 reversed $145 $-1 #
coedge $-1 $232 $553 $383 $556 reversed $145 $-1 #
edge $-1 $385 -3.2462551524538208 $557 0.23021171659490935 $232 $558 forward 7 unknown #
coedge $-1 $234 $233 $559 $560 forward $92 $-1 #
coedge $-1 $561 $562 $233 $382 forward $563 $-1 #
edge $-1 $564 -0.23021171659490935 $386 3.2462551524538208 $381 $565 forward 7 unknown #
coedge $-1 $376 $235 $378 $556 forward $230 $-1 #
coedge $-1 $235 $376 $561 $566 forward $230 $-1 #
vertex $-1 $379 $567 #
vertex $-1 $566 $568 #
straight-curve $-1 40.732444227423933 0 3.2462551524538208 0 1 0 I I #
face $-1 $-1 $400 $54 $-1 $569 forward single #
loop $-1 $-1 $570 $237 #
plane-surface $-1 0 19.791415686185466 0 0 -1 0 0 0 -1 forward_v I I I I #
coedge $-1 $571 $572 $573 $574 reversed $238 $-1 #
coedge $-1 $575 $240 $242 $398 forward $149 $-1 #
coedge $-1 $240 $575 $571 $576 forward $149 $-1 #
coedge $-1 $573 $243 $240 $395 forward $400 $-1 #
edge $-1 $402 -21.097828753407097 $577 -8.9989833643705985 $394 $578 forward 7 unknown #
coedge $-1 $579 $580 $241 $397 forward $389 $-1 #
edge $-1 $581 -43.201787763733051 $401 -37.938421912674805 $396 $582 forward 7 unknown #
edge $-1 $402 31.71685462920934 $581 39.58283137237094 $242 $583 forward 7 unknown #
coedge $-1 $243 $573 $579 $584 forward $400 $-1 #
loop $-1 $-1 $573 $388 #
vertex $-1 $397 $585 #
vertex $-1 $244 $586 #
straight-curve $-1 -36.146234812295944 22.443145262612386 5.8860843227468465 0 -1 0 I I #
coedge $-1 $404 $404 $-1 $587 reversed $247 $-1 #
edge $-1 $588 0 $588 6.2831853071796004 $248 $589 forward 7 unknown #
vertex $-1 $251 $590 #
ellipse-curve $-1 -32.689421843999803 16.868635757681048 3.2544013972177295 0 0.66913061440640931 0.74314481823134659 1.5 0 0 1 I I #
coedge $-1 $408 $408 $-1 $591 reversed $254 $-1 #
edge $-1 $592 0 $592 6.2831853071796004 $255 $593 forward 7 unknown #
vertex $-1 $258 $594 #
ellipse-curve $-1 -27.504202391555591 16.868635757681048 3.2544013972177295 0 0.66913061440640931 0.74314481823134659 1.5 0 0 1 I I #
face $-1 $-1 $595 $57 $-1 $596 reversed single #
loop $-1 $-1 $265 $259 #
plane-surface $-1 0 0 5.8860843227468491 0 0 1 1 0 0 forward_v I I I I #
coedge $-1 $597 $598 $599 $600 reversed $260 $-1 #
coedge $-1 $601 $262 $264 $422 forward $163 $-1 #
coedge $-1 $262 $601 $597 $602 forward $163 $-1 #
coedge $-1 $599 $265 $262 $419 forward $413 $-1 #
edge $-1 $425 -12.061270050333111 $603 0.037575338703385697 $418 $604 forward 7 unknown #
coedge $-1 $605 $606 $263 $421 forward $595 $-1 #
edge $-1 $607 -43.201787763733051 $424 -37.938421912674805 $420 $608 forward 7 unknown #
edge $-1 $425 31.71685462920934 $607 39.58283137237094 $264 $609 forward 7 unknown #
coedge $-1 $265 $599 $605 $610 forward $413 $-1 #
vertex $-1 $266 $611 #
vertex $-1 $266 $612 #
straight-curve $-1 -18.073117406147972 22.443145262612386 5.8860843227468465 0 -1 0 I I #
coedge $-1 $427 $427 $-1 $613 reversed $269 $-1 #
edge $-1 $614 0 $614 6.2831853071796004 $270 $615 forward 7 unknown #
vertex $-1 $273 $616 #
ellipse-curve $-1 -14.616304437851831 16.868635757681048 3.2544013972177295 0 0.66913061440640931 0.74314481823134659 1.5 0 0 1 I I #
coedge $-1 $431 $431 $-1 $617 reversed $276 $-1 #
edge $-1 $618 0 $618 6.2831853071796004 $277 $619 forward 7 unknown #
vertex $-1 $280 $620 #
ellipse-curve $-1 -9.4310849854076189 16.868635757681048 3.2544013972177295 0 0.66913061440640931 0.74314481823134659 1.5 0 0 1 I I #
face $-1 $-1 $621 $60 $-1 $622 reversed single #
loop $-1 $-1 $287 $281 #
plane-surface $-1 0 0 5.8860843227468491 0 0 1 1 0 0 forward_v I I I I #
coedge $-1 $623 $624 $625 $626 reversed $282 $-1 #
coedge $-1 $627 $284 $286 $445 forward $177 $-1 #
coedge $-1 $284 $627 $623 $628 forward $177 $-1 #
coedge $-1 $625 $287 $284 $442 forward $436 $-1 #
edge $-1 $448 -3.0247113472591227 $629 9.0741340417773717 $441 $630 forward 7 unknown #
coedge $-1 $631 $632 $285 $444 forward $621 $-1 #
edge $-1 $633 -43.201787763733051 $447 -37.938421912674805 $443 $634 forward 7 unknown #
edge $-1 $448 31.71685462920934 $633 39.58283137237094 $286 $635 forward 7 unknown #
coedge $-1 $287 $625 $631 $636 forward $436 $-1 #
vertex $-1 $288 $637 #
vertex $-1 $288 $638 #
straight-curve $-1 1.7763568394002505e-015 22.443145262612386 5.8860843227468465 0 -1 0 I I #
coedge $-1 $450 $450 $-1 $639 reversed $291 $-1 #
edge $-1 $640 0 $640 6.2831853071796004 $292 $641 forward 7 unknown #
vertex $-1 $295 $642 #
ellipse-curve $-1 3.4568129682961413 16.868635757681048 3.2544013972177295 0 0.66913061440640931 0.74314481823134659 1.5 0 0 1 I I #
coedge $-1 $454 $454 $-1 $643 reversed $298 $-1 #
edge $-1 $644 0 $644 6.2831853071796004 $299 $645 forward 7 unknown #
vertex $-1 $302 $646 #
ellipse-curve $-1 8.6420324207403567 16.868635757681048 3.2544013972177295 0 0.66913061440640931 0.74314481823134659 1.5 0 0 1 I I #
face $-1 $-1 $647 $63 $-1 $648 reversed single #
loop $-1 $-1 $309 $303 #
plane-surface $-1 0 0 5.8860843227468491 0 0 1 1 0 0 forward_v I I I I #
coedge $-1 $649 $650 $651 $652 reversed $304 $-1 #
coedge $-1 $653 $306 $308 $468 forward $191 $-1 #
coedge $-1 $306 $653 $649 $654 forward $191 $-1 #
coedge $-1 $651 $309 $306 $465 forward $459 $-1 #
edge $-1 $471 6.0118473558148615 $655 18.110692744851359 $464 $656 forward 7 unknown #
coedge $-1 $657 $658 $307 $467 forward $647 $-1 #
edge $-1 $659 -43.201787763733051 $470 -37.938421912674805 $466 $660 forward 7 unknown #
edge $-1 $471 31.71685462920934 $659 39.58283137237094 $308 $661 forward 7 unknown #
coedge $-1 $309 $651 $657 $662 forward $459 $-1 #
vertex $-1 $310 $663 #
vertex $-1 $310 $664 #
straight-curve $-1 18.073117406147972 22.443145262612386 5.8860843227468465 0 -1 0 I I #
coedge $-1 $473 $473 $-1 $665 reversed $313 $-1 #
edge $-1 $666 0 $666 6.2831853071796004 $314 $667 forward 7 unknown #
vertex $-1 $317 $668 #
ellipse-curve $-1 21.529930374444113 16.868635757681048 3.2544013972177295 0 0.66913061440640931 0.74314481823134659 1.5 0 0 1 I I #
coedge $-1 $477 $477 $-1 $669 reversed $320 $-1 #
edge $-1 $670 0 $670 6.2831853071796004 $321 $671 forward 7 unknown #
vertex $-1 $324 $672 #
ellipse-curve $-1 26.715149826888329 16.868635757681048 3.2544013972177295 0 0.66913061440640931 0.74314481823134659 1.5 0 0 1 I I #
face $-1 $-1 $673 $66 $-1 $674 reversed single #
loop $-1 $-1 $331 $325 #
plane-surface $-1 0 0 5.8860843227468491 0 0 1 1 0 0 forward_v I I I I #
coedge $-1 $675 $676 $677 $678 reversed $326 $-1 #
coedge $-1 $679 $328 $330 $491 forward $205 $-1 #
coedge $-1 $328 $679 $675 $680 forward $205 $-1 #
coedge $-1 $677 $331 $328 $488 forward $482 $-1 #
edge $-1 $494 -22.759596383924926 $681 -4.0136804728171072 $487 $682 forward 7 unknown #
coedge $-1 $683 $684 $329 $490 forward $673 $-1 #
edge $-1 $685 -33.581028813359772 $493 -29.61903006544139 $489 $686 forward 7 unknown #
edge $-1 $494 -7.476608160938687 $685 0 $330 $687 forward 7 unknown #
coedge $-1 $331 $677 $683 $688 forward $482 $-1 #
vertex $-1 $490 $689 #
vertex $-1 $332 $690 #
straight-curve $-1 36.146234812295944 -31.480615003513922 5.8860843227468465 0 1 0 I I #
coedge $-1 $496 $496 $-1 $691 reversed $335 $-1 #
edge $-1 $692 0 $692 6.2831853071796004 $336 $693 forward 7 unknown #
vertex $-1 $339 $694 #
ellipse-curve $-1 26.773276856742037 -16.621154044234284 3.9050849487876556 0 -0.52991927123019833 0.84804809178421925 1 0 0 1 I I #
face $-1 $-1 $355 $51 $-1 $695 reversed single #
loop $-1 $-1 $516 $340 #
plane-surface $-1 0 19.791415686185466 0 0 -1 0 0 0 -1 forward_v I I I I #
coedge $-1 $696 $514 $517 $697 forward $341 $-1 #
coedge $-1 $520 $343 $344 $508 reversed $214 $-1 #
coedge $-1 $514 $696 $343 $506 reversed $341 $-1 #
edge $-1 $521 -5.8860843227468491 $698 5.8860843227468491 $505 $699 forward 7 unknown #
coedge $-1 $345 $344 $696 $700 forward $137 $-1 #
edge $-1 $512 -40.732444227423933 $698 40.732444227423933 $504 $701 forward 7 unknown #
coedge $-1 $517 $516 $345 $510 reversed $501 $-1 #
edge $-1 $702 -40.732444227423933 $511 40.732444227423933 $509 $703 forward 7 unknown #
vertex $-1 $347 $704 #
vertex $-1 $523 $705 #
straight-curve $-1 40.732444227423933 0 -5.8860843227468491 0 -1 0 I I #
coedge $-1 $503 $505 $348 $515 reversed $341 $-1 #
edge $-1 $518 -19.791415686185466 $521 19.791415686185466 $514 $706 forward 7 unknown #
coedge $-1 $509 $349 $354 $524 forward $501 $-1 #
coedge $-1 $349 $509 $503 $697 reversed $501 $-1 #
vertex $-1 $350 $707 #
straight-curve $-1 0 19.791415686185466 5.8860843227468491 -1 0 0 I I #
coedge $-1 $351 $504 $353 $523 reversed $214 $-1 #
vertex $-1 $515 $708 #
straight-curve $-1 0 -19.791415686185466 5.8860843227468491 1 0 0 I I #
edge $-1 $356 -5.8860843227468491 $512 5.8860843227468491 $353 $709 forward 7 unknown #
edge $-1 $357 -5.8860843227468491 $511 5.8860843227468491 $354 $710 forward 7 unknown #
point $-1 40.732444227423933 -19.791415686185466 5.8860843227468491 #
point $-1 40.732444227423933 19.791415686185466 5.8860843227468491 #
face $-1 $-1 $540 $52 $-1 $711 reversed single #
loop $-1 $-1 $712 $359 #
plane-surface $-1 -45.318653642551922 0 1.5080217179294557 1 0 0 0 0 -1 forward_v I I I I #
coedge $-1 $713 $532 $365 $537 reversed $360 $-1 #
coedge $-1 $363 $362 $712 $714 reversed $141 $-1 #
coedge $-1 $530 $715 $362 $533 forward $360 $-1 #
edge $-1 $716 -2.2931047075639981 $535 2.2931047075639981 $362 $717 forward 7 unknown #
edge $-1 $370 -2.2931047075639981 $718 2.2931047075639981 $363 $719 forward 7 unknown #
vertex $-1 $364 $720 #
straight-curve $-1 -40.732444227423933 19.791415686185466 0 0 0 -1 I I #
edge $-1 $541 -19.791415686185466 $535 19.791415686185466 $530 $721 forward 7 unknown #
coedge $-1 $722 $366 $369 $544 reversed $540 $-1 #
coedge $-1 $366 $722 $713 $723 reversed $540 $-1 #
loop $-1 $-1 $366 $527 #
vertex $-1 $367 $724 #
straight-curve $-1 -40.732444227423933 -19.791415686185466 0 0 0 1 I I #
coedge $-1 $369 $368 $725 $726 forward $222 $-1 #
edge $-1 $727 -2.2931047075639981 $371 2.2931047075639981 $538 $728 forward 7 unknown #
point $-1 -40.732444227423926 19.791415686185466 3.2462551524538208 #
point $-1 -40.732444227423926 -19.791415686185466 3.2462551524538208 #
face $-1 $-1 $563 $53 $-1 $729 reversed single #
loop $-1 $-1 $730 $373 #
plane-surface $-1 45.318653642551908 0 1.5080217179294557 -1 0 0 0 0 1 forward_v I I I I #
coedge $-1 $554 $731 $732 $733 forward $374 $-1 #
coedge $-1 $730 $734 $376 $552 reversed $548 $-1 #
edge $-1 $735 -19.791415686185466 $736 19.791415686185466 $551 $737 forward 7 unknown #
coedge $-1 $378 $377 $730 $738 reversed $145 $-1 #
coedge $-1 $559 $550 $377 $555 forward $374 $-1 #
edge $-1 $739 -2.293104707563991 $557 2.293104707563991 $377 $740 forward 7 unknown #
edge $-1 $385 -2.293104707563991 $735 2.293104707563991 $378 $741 forward 7 unknown #
vertex $-1 $379 $742 #
straight-curve $-1 40.732444227423933 -19.791415686185466 0 0 0 -1 I I #
coedge $-1 $731 $554 $380 $560 reversed $374 $-1 #
edge $-1 $564 -19.791415686185466 $557 19.791415686185466 $559 $743 forward 7 unknown #
coedge $-1 $744 $381 $384 $566 reversed $563 $-1 #
coedge $-1 $381 $744 $731 $745 reversed $563 $-1 #
loop $-1 $-1 $381 $547 #
vertex $-1 $382 $746 #
straight-curve $-1 40.732444227423933 19.791415686185466 0 0 0 1 I I #
edge $-1 $736 -2.293104707563991 $386 2.293104707563991 $561 $747 forward 7 unknown #
point $-1 40.732444227423926 -19.791415686185466 3.2462551524538208 #
point $-1 40.732444227423926 19.791415686185466 3.2462551524538208 #
plane-surface $-1 0 0 5.8860843227468491 0 0 1 1 0 0 forward_v I I I I #
coedge $-1 $580 $579 $572 $748 forward $389 $-1 #
coedge $-1 $572 $391 $393 $576 reversed $238 $-1 #
coedge $-1 $391 $571 $570 $748 reversed $238 $-1 #
coedge $-1 $399 $394 $391 $574 forward $400 $-1 #
edge $-1 $577 -8.4972894334357498 $749 -2.65172957642692 $573 $750 forward 7 unknown #
coedge $-1 $393 $392 $580 $751 reversed $149 $-1 #
edge $-1 $752 -39.58283137237094 $577 -31.71685462920934 $571 $753 forward 7 unknown #
vertex $-1 $395 $754 #
straight-curve $-1 -15.048406058888848 13.945855829176633 5.8860843227468482 1 0 0 I I #
coedge $-1 $570 $396 $399 $584 reversed $389 $-1 #
coedge $-1 $396 $570 $575 $751 forward $389 $-1 #
vertex $-1 $397 $755 #
straight-curve $-1 -36.146234812295944 19.791415686185466 43.824506235421651 0 0 1 I I #
straight-curve $-1 -36.146234812295944 -9.6243603391171817 27.108802747828463 0 0.74314481823134659 -0.66913061440640931 I I #
edge $-1 $749 24.047389423259446 $401 36.146234812295944 $579 $756 forward 7 unknown #
point $-1 -36.146234812295944 19.791415686185466 5.8860843227468491 #
point $-1 -36.146234812295944 13.945855829176637 5.88608432274685 #
edge $-1 $757 1 $757 0 $404 $-1 forward 7 unknown #
vertex $-1 $405 $758 #
ellipse-curve $-1 -32.689421843999803 13.406777730624743 -0.59038136846354317 0 0.66913061440640931 0.74314481823134659 1.5 0 0 1 I I #
point $-1 -31.189421843999803 16.868635757681041 3.2544013972177259 #
edge $-1 $759 1 $759 0 $408 $-1 forward 7 unknown #
vertex $-1 $409 $760 #
ellipse-curve $-1 -27.504202391555591 13.406777730624743 -0.59038136846354317 0 0.66913061440640931 0.74314481823134659 1.5 0 0 1 I I #
point $-1 -26.004202391555591 16.868635757681041 3.2544013972177259 #
loop $-1 $-1 $420 $412 #
plane-surface $-1 0 19.791415686185466 0 0 -1 0 0 0 -1 forward_v I I I I #
coedge $-1 $598 $415 $417 $602 reversed $260 $-1 #
coedge $-1 $415 $597 $761 $762 reversed $260 $-1 #
coedge $-1 $423 $418 $415 $600 forward $413 $-1 #
edge $-1 $603 -8.4972894334357498 $763 -2.65172957642692 $599 $764 forward 7 unknown #
coedge $-1 $417 $416 $606 $765 reversed $163 $-1 #
edge $-1 $766 -39.58283137237094 $603 -31.71685462920934 $597 $767 forward 7 unknown #
vertex $-1 $419 $768 #
straight-curve $-1 -6.0118473558148615 13.945855829176633 5.8860843227468482 1 0 0 I I #
coedge $-1 $761 $420 $423 $610 reversed $595 $-1 #
coedge $-1 $420 $761 $601 $765 forward $595 $-1 #
vertex $-1 $421 $769 #
straight-curve $-1 -18.073117406147972 19.791415686185466 43.824506235421651 0 0 1 I I #
straight-curve $-1 -18.073117406147972 -9.6243603391171817 27.108802747828463 0 0.74314481823134659 -0.66913061440640931 I I #
edge $-1 $763 5.9742720171114758 $424 18.073117406147972 $605 $770 forward 7 unknown #
point $-1 -18.073117406147972 19.791415686185466 5.8860843227468491 #
point $-1 -18.073117406147972 13.945855829176637 5.88608432274685 #
edge $-1 $771 1 $771 0 $427 $-1 forward 7 unknown #
vertex $-1 $428 $772 #
ellipse-curve $-1 -14.616304437851831 13.406777730624743 -0.59038136846354317 0 0.66913061440640931 0.74314481823134659 1.5 0 0 1 I I #
point $-1 -13.116304437851831 16.868635757681041 3.2544013972177259 #
edge $-1 $773 1 $773 0 $431 $-1 forward 7 unknown #
vertex $-1 $432 $774 #
ellipse-curve $-1 -9.4310849854076189 13.406777730624743 -0.59038136846354317 0 0.66913061440640931 0.74314481823134659 1.5 0 0 1 I I #
point $-1 -7.9310849854076189 16.868635757681041 3.2544013972177259 #
loop $-1 $-1 $443 $435 #
plane-surface $-1 0 19.791415686185466 0 0 -1 0 0 0 -1 forward_v I I I I #
coedge $-1 $624 $438 $440 $628 reversed $282 $-1 #
coedge $-1 $438 $623 $775 $776 reversed $282 $-1 #
coedge $-1 $446 $441 $438 $626 forward $436 $-1 #
edge $-1 $629 -8.4972894334357498 $777 -2.65172957642692 $625 $778 forward 7 unknown #
coedge $-1 $440 $439 $632 $779 reversed $177 $-1 #
edge $-1 $780 -39.58283137237094 $629 -31.71685462920934 $623 $781 forward 7 unknown #
vertex $-1 $442 $782 #
straight-curve $-1 3.0247113472591245 13.945855829176633 5.8860843227468482 1 0 0 I I #
coedge $-1 $775 $443 $446 $636 reversed $621 $-1 #
coedge $-1 $443 $775 $627 $779 forward $621 $-1 #
vertex $-1 $444 $783 #
straight-curve $-1 1.7763568394002505e-015 19.791415686185466 43.824506235421651 0 0 1 I I #
straight-curve $-1 1.7763568394002505e-015 -9.6243603391171817 27.108802747828463 0 0.74314481823134659 -0.66913061440640931 I I #
edge $-1 $777 -12.098845389036496 $447 -1.7763568394002505e-015 $631 $784 forward 7 unknown #
point $-1 1.7763568394002505e-015 19.791415686185466 5.8860843227468491 #
point $-1 1.7763568394002505e-015 13.945855829176637 5.88608432274685 #
edge $-1 $785 1 $785 0 $450 $-1 forward 7 unknown #
vertex $-1 $451 $786 #
ellipse-curve $-1 3.4568129682961413 13.406777730624743 -0.59038136846354317 0 0.66913061440640931 0.74314481823134659 1.5 0 0 1 I I #
point $-1 4.9568129682961413 16.868635757681041 3.2544013972177259 #
edge $-1 $787 1 $787 0 $454 $-1 forward 7 unknown #
vertex $-1 $455 $788 #
ellipse-curve $-1 8.6420324207403567 13.406777730624743 -0.59038136846354317 0 0.66913061440640931 0.74314481823134659 1.5 0 0 1 I I #
point $-1 10.142032420740357 16.868635757681041 3.2544013972177259 #
loop $-1 $-1 $466 $458 #
plane-surface $-1 0 19.791415686185466 0 0 -1 0 0 0 -1 forward_v I I I I #
coedge $-1 $650 $461 $463 $654 reversed $304 $-1 #
coedge $-1 $461 $649 $789 $790 reversed $304 $-1 #
coedge $-1 $469 $464 $461 $652 forward $459 $-1 #
edge $-1 $655 -8.4972894334357498 $791 -2.65172957642692 $651 $792 forward 7 unknown #
coedge $-1 $463 $462 $658 $793 reversed $191 $-1 #
edge $-1 $794 -39.58283137237094 $655 -31.71685462920934 $649 $795 forward 7 unknown #
vertex $-1 $465 $796 #
straight-curve $-1 12.061270050333111 13.945855829176633 5.8860843227468482 1 0 0 I I #
coedge $-1 $789 $466 $469 $662 reversed $647 $-1 #
coedge $-1 $466 $789 $653 $793 forward $647 $-1 #
vertex $-1 $467 $797 #
straight-curve $-1 18.073117406147972 19.791415686185466 43.824506235421651 0 0 1 I I #
straight-curve $-1 18.073117406147972 -9.6243603391171817 27.108802747828463 0 0.74314481823134659 -0.66913061440640931 I I #
edge $-1 $791 -30.17196279518447 $470 -18.073117406147972 $657 $798 forward 7 unknown #
point $-1 18.073117406147972 19.791415686185466 5.8860843227468491 #
point $-1 18.073117406147972 13.945855829176637 5.88608432274685 #
edge $-1 $799 1 $799 0 $473 $-1 forward 7 unknown #
vertex $-1 $474 $800 #
ellipse-curve $-1 21.529930374444113 13.406777730624743 -0.59038136846354317 0 0.66913061440640931 0.74314481823134659 1.5 0 0 1 I I #
point $-1 23.029930374444113 16.868635757681041 3.2544013972177259 #
edge $-1 $801 1 $801 0 $477 $-1 forward 7 unknown #
vertex $-1 $478 $802 #
ellipse-curve $-1 26.715149826888329 13.406777730624743 -0.59038136846354317 0 0.66913061440640931 0.74314481823134659 1.5 0 0 1 I I #
point $-1 28.215149826888329 16.868635757681041 3.2544013972177259 #
loop $-1 $-1 $489 $481 #
plane-surface $-1 0 -19.791415686185466 0 0 1 0 0 0 1 forward_v I I I I #
coedge $-1 $676 $484 $486 $680 reversed $326 $-1 #
coedge $-1 $484 $675 $803 $804 reversed $326 $-1 #
coedge $-1 $492 $487 $484 $678 forward $482 $-1 #
edge $-1 $681 -18.02972260123083 $805 -11.689199317328455 $677 $806 forward 7 unknown #
coedge $-1 $486 $485 $684 $807 reversed $205 $-1 #
edge $-1 $808 0 $681 7.476608160938687 $675 $809 forward 7 unknown #
vertex $-1 $488 $810 #
straight-curve $-1 13.386638428371018 -13.450892402283092 5.8860843227468491 -1 0 0 I I #
coedge $-1 $803 $489 $492 $688 reversed $673 $-1 #
coedge $-1 $489 $803 $679 $807 forward $673 $-1 #
vertex $-1 $490 $811 #
straight-curve $-1 36.146234812295944 -19.791415686185466 35.50511438818824 0 0 1 I I #
straight-curve $-1 36.146234812295944 -19.791415686185466 1.9240855748284673 0 -0.84804809178421925 -0.52991927123019833 I I #
edge $-1 $805 17.400318901188125 $493 36.146234812295944 $683 $812 forward 7 unknown #
point $-1 36.146234812295944 -19.791415686185466 5.8860843227468491 #
point $-1 36.146234812295944 -13.450892402283092 5.8860843227468491 #
edge $-1 $813 1 $813 0 $496 $-1 forward 7 unknown #
vertex $-1 $497 $814 #
ellipse-curve $-1 26.773276856742037 -15.075045393208887 1.4307939343293712 0 -0.52991927123019833 0.84804809178421925 1 0 0 1 I I #
point $-1 27.773276856742037 -16.621154044234292 3.9050849487876662 #
plane-surface $-1 40.732444227423933 0 0 -1 0 0 0 0 1 forward_v I I I I #
coedge $-1 $505 $503 $507 $700 reversed $341 $-1 #
edge $-1 $518 -5.8860843227468491 $702 5.8860843227468491 $517 $815 forward 7 unknown #
vertex $-1 $700 $816 #
straight-curve $-1 -40.732444227423933 -19.791415686185466 0 0 0 -1 I I #
edge $-1 $698 -19.791415686185466 $702 19.791415686185466 $696 $817 forward 7 unknown #
straight-curve $-1 0 -19.791415686185466 -5.8860843227468491 -1 0 0 I I #
vertex $-1 $510 $818 #
straight-curve $-1 0 19.791415686185466 -5.8860843227468491 1 0 0 I I #
point $-1 40.732444227423933 19.791415686185466 -5.8860843227468491 #
point $-1 40.732444227423933 -19.791415686185466 -5.8860843227468491 #
straight-curve $-1 -40.732444227423933 0 5.8860843227468491 0 -1 0 I I #
point $-1 -40.732444227423933 19.791415686185466 5.8860843227468491 #
point $-1 -40.732444227423933 -19.791415686185466 5.8860843227468491 #
straight-curve $-1 40.732444227423933 -19.791415686185466 0 0 0 -1 I I #
straight-curve $-1 40.732444227423933 19.791415686185466 0 0 0 -1 I I #
plane-surface $-1 0 -19.791415686185466 0 0 1 0 0 0 1 forward_v I I I I #
coedge $-1 $819 $725 $531 $714 forward $528 $-1 #
coedge $-1 $715 $530 $539 $723 forward $360 $-1 #
edge $-1 $718 -1.7382334345243651 $716 1.7382334345243651 $531 $820 forward 7 unknown #
coedge $-1 $532 $713 $819 $821 forward $360 $-1 #
vertex $-1 $533 $822 #
straight-curve $-1 -43.025548934987924 19.791415686185466 -0.23021171659490935 1 0 0 I I #
vertex $-1 $534 $823 #
straight-curve $-1 -43.025548934987924 19.791415686185466 3.2462551524538208 -1 0 0 I I #
point $-1 -40.732444227423926 19.791415686185466 -0.23021171659490935 #
straight-curve $-1 -40.732444227423933 0 -0.23021171659490935 0 1 0 I I #
coedge $-1 $539 $538 $824 $825 forward $540 $-1 #
edge $-1 $541 -2.2931047075639981 $826 2.2931047075639981 $539 $827 forward 7 unknown #
point $-1 -40.732444227423926 -19.791415686185466 -0.23021171659490935 #
coedge $-1 $712 $824 $543 $726 reversed $528 $-1 #
edge $-1 $718 -19.791415686185466 $727 19.791415686185466 $725 $828 forward 7 unknown #
vertex $-1 $726 $829 #
straight-curve $-1 -43.025548934987924 -19.791415686185466 3.2462551524538208 1 0 0 I I #
plane-surface $-1 0 19.791415686185466 0 0 -1 0 0 0 -1 forward_v I I I I #
coedge $-1 $732 $551 $553 $738 forward $548 $-1 #
coedge $-1 $550 $559 $562 $745 forward $374 $-1 #
coedge $-1 $734 $730 $550 $733 reversed $548 $-1 #
edge $-1 $830 -19.791415686185466 $739 19.791415686185466 $732 $831 forward 7 unknown #
coedge $-1 $551 $732 $744 $832 reversed $548 $-1 #
vertex $-1 $552 $833 #
vertex $-1 $552 $834 #
straight-curve $-1 45.318653642551908 0 3.2462551524538208 0 1 0 I I #
edge $-1 $735 -1.7382334345243651 $739 1.7382334345243651 $730 $835 forward 7 unknown #
vertex $-1 $738 $836 #
straight-curve $-1 43.025548934987917 -19.791415686185466 -0.23021171659490935 -1 0 0 I I #
straight-curve $-1 43.025548934987917 -19.791415686185466 3.2462551524538208 1 0 0 I I #
point $-1 40.732444227423926 -19.791415686185466 -0.23021171659490935 #
straight-curve $-1 40.732444227423933 0 -0.23021171659490935 0 -1 0 I I #
coedge $-1 $562 $561 $734 $832 forward $563 $-1 #
edge $-1 $564 -2.293104707563991 $830 2.293104707563991 $562 $837 forward 7 unknown #
point $-1 40.732444227423926 19.791415686185466 -0.23021171659490935 #
straight-curve $-1 43.025548934987917 19.791415686185466 3.2462551524538208 -1 0 0 I I #
edge $-1 $749 37.938421912674805 $752 43.201787763733051 $570 $838 forward 7 unknown #
vertex $-1 $584 $839 #
straight-curve $-1 -24.047389423259446 22.443145262612386 5.8860843227468465 0 1 0 I I #
edge $-1 $752 8.9989833643705985 $581 21.097828753407097 $580 $840 forward 7 unknown #
vertex $-1 $751 $841 #
straight-curve $-1 -24.047389423259446 -9.6243603391171817 27.108802747828463 0 -0.74314481823134659 0.66913061440640931 I I #
point $-1 -24.047389423259446 13.945855829176637 5.88608432274685 #
point $-1 -36.146234812295944 19.791415686185463 0.62271847168860361 #
straight-curve $-1 0 19.791415686185466 5.8860843227468491 -1 0 0 I I #
vertex $-1 $587 $842 #
point $-1 -31.189421843999803 13.406777730624743 -0.59038136846354317 #
vertex $-1 $591 $843 #
point $-1 -26.004202391555591 13.406777730624743 -0.59038136846354317 #
coedge $-1 $606 $605 $598 $762 forward $595 $-1 #
edge $-1 $763 37.938421912674805 $766 43.201787763733051 $761 $844 forward 7 unknown #
vertex $-1 $610 $845 #
straight-curve $-1 -5.9742720171114758 22.443145262612386 5.8860843227468465 0 1 0 I I #
edge $-1 $766 -0.037575338703385697 $607 12.061270050333111 $606 $846 forward 7 unknown #
vertex $-1 $765 $847 #
straight-curve $-1 -5.9742720171114758 -9.6243603391171817 27.108802747828463 0 -0.74314481823134659 0.66913061440640931 I I #
point $-1 -5.9742720171114758 13.945855829176637 5.88608432274685 #
point $-1 -18.073117406147972 19.791415686185463 0.62271847168860361 #
straight-curve $-1 0 19.791415686185466 5.8860843227468491 -1 0 0 I I #
vertex $-1 $613 $848 #
point $-1 -13.116304437851831 13.406777730624743 -0.59038136846354317 #
vertex $-1 $617 $849 #
point $-1 -7.9310849854076189 13.406777730624743 -0.59038136846354317 #
coedge $-1 $632 $631 $624 $776 forward $621 $-1 #
edge $-1 $777 37.938421912674805 $780 43.201787763733051 $775 $850 forward 7 unknown #
vertex $-1 $636 $851 #
straight-curve $-1 12.098845389036496 22.443145262612386 5.8860843227468465 0 1 0 I I #
edge $-1 $780 -9.0741340417773717 $633 3.0247113472591227 $632 $852 forward 7 unknown #
vertex $-1 $779 $853 #
straight-curve $-1 12.098845389036496 -9.6243603391171817 27.108802747828463 0 -0.74314481823134659 0.66913061440640931 I I #
point $-1 12.098845389036496 13.945855829176637 5.88608432274685 #
point $-1 1.7763568394002505e-015 19.791415686185463 0.62271847168860361 #
straight-curve $-1 0 19.791415686185466 5.8860843227468491 -1 0 0 I I #
vertex $-1 $639 $854 #
point $-1 4.9568129682961413 13.406777730624743 -0.59038136846354317 #
vertex $-1 $643 $855 #
point $-1 10.142032420740357 13.406777730624743 -0.59038136846354317 #
coedge $-1 $658 $657 $650 $790 forward $647 $-1 #
edge $-1 $791 37.938421912674805 $794 43.201787763733051 $789 $856 forward 7 unknown #
vertex $-1 $662 $857 #
straight-curve $-1 30.17196279518447 22.443145262612386 5.8860843227468465 0 1 0 I I #
edge $-1 $794 -18.110692744851359 $659 -6.0118473558148615 $658 $858 forward 7 unknown #
vertex $-1 $793 $859 #
straight-curve $-1 30.17196279518447 -9.6243603391171817 27.108802747828463 0 -0.74314481823134659 0.66913061440640931 I I #
point $-1 30.17196279518447 13.945855829176637 5.88608432274685 #
point $-1 18.073117406147972 19.791415686185463 0.62271847168860361 #
straight-curve $-1 0 19.791415686185466 5.8860843227468491 -1 0 0 I I #
vertex $-1 $665 $860 #
point $-1 23.029930374444113 13.406777730624743 -0.59038136846354317 #
vertex $-1 $669 $861 #
point $-1 28.215149826888329 13.406777730624743 -0.59038136846354317 #
coedge $-1 $684 $683 $676 $804 forward $673 $-1 #
edge $-1 $805 29.61903006544139 $808 33.581028813359772 $803 $862 forward 7 unknown #
vertex $-1 $688 $863 #
straight-curve $-1 17.400318901188125 -31.480615003513922 5.8860843227468465 0 -1 0 I I #
edge $-1 $808 4.0136804728171072 $685 22.759596383924926 $684 $864 forward 7 unknown #
vertex $-1 $807 $865 #
straight-curve $-1 17.400318901188125 -19.791415686185466 1.9240855748284673 0 0.84804809178421925 0.52991927123019833 I I #
point $-1 17.400318901188125 -13.450892402283092 5.8860843227468491 #
point $-1 36.146234812295944 -19.791415686185466 1.9240855748284673 #
straight-curve $-1 0 -19.791415686185466 5.8860843227468491 1 0 0 I I #
vertex $-1 $691 $866 #
point $-1 27.773276856742037 -15.075045393208887 1.4307939343293712 #
straight-curve $-1 -40.732444227423933 19.791415686185466 0 0 0 -1 I I #
point $-1 -40.732444227423933 -19.791415686185466 -5.8860843227468491 #
straight-curve $-1 -40.732444227423933 0 -5.8860843227468491 0 1 0 I I #
point $-1 -40.732444227423933 19.791415686185466 -5.8860843227468491 #
coedge $-1 $824 $712 $715 $821 reversed $528 $-1 #
straight-curve $-1 -45.318653642551922 19.791415686185466 1.5080217179294557 0 0 -1 I I #
edge $-1 $826 -19.791415686185466 $716 19.791415686185466 $819 $867 forward 7 unknown #
point $-1 -45.318653642551922 19.791415686185466 -0.23021171659490935 #
point $-1 -45.318653642551922 19.791415686185466 3.2462551524538208 #
coedge $-1 $725 $819 $722 $825 reversed $528 $-1 #
edge $-1 $727 -1.7382334345243651 $826 1.7382334345243651 $824 $868 forward 7 unknown #
vertex $-1 $821 $869 #
straight-curve $-1 -43.025548934987924 -19.791415686185466 -0.23021171659490935 -1 0 0 I I #
straight-curve $-1 -45.318653642551922 0 3.2462551524538208 0 -1 0 I I #
point $-1 -45.318653642551922 -19.791415686185466 3.2462551524538208 #
vertex $-1 $733 $870 #
straight-curve $-1 45.318653642551908 0 -0.23021171659490935 0 -1 0 I I #
edge $-1 $736 -1.7382334345243651 $830 1.7382334345243651 $734 $871 forward 7 unknown #
point $-1 45.318653642551908 -19.791415686185466 3.2462551524538208 #
point $-1 45.318653642551908 19.791415686185466 3.2462551524538208 #
straight-curve $-1 45.318653642551908 -19.791415686185466 1.5080217179294557 0 0 -1 I I #
point $-1 45.318653642551908 -19.791415686185466 -0.23021171659490935 #
straight-curve $-1 43.025548934987917 19.791415686185466 -0.23021171659490935 1 0 0 I I #
straight-curve $-1 -24.047389423259446 19.791415686185466 43.824506235421651 0 0 -1 I I #
point $-1 -24.047389423259446 19.791415686185466 5.8860843227468491 #
straight-curve $-1 -15.048406058888848 19.791415686185463 0.62271847168860361 -1 0 0 I I #
point $-1 -24.047389423259446 19.791415686185463 0.62271847168860361 #
point $-1 -32.689421843999803 12.403081809015131 -1.7050985958105631 #
point $-1 -27.504202391555591 12.403081809015131 -1.7050985958105631 #
straight-curve $-1 -5.9742720171114758 19.791415686185466 43.824506235421651 0 0 -1 I I #
point $-1 -5.9742720171114758 19.791415686185466 5.8860843227468491 #
straight-curve $-1 -6.0118473558148615 19.791415686185463 0.62271847168860361 -1 0 0 I I #
point $-1 -5.9742720171114758 19.791415686185463 0.62271847168860361 #
point $-1 -14.616304437851831 12.403081809015131 -1.7050985958105631 #
point $-1 -9.4310849854076189 12.403081809015131 -1.7050985958105631 #
straight-curve $-1 12.098845389036496 19.791415686185466 43.824506235421651 0 0 -1 I I #
point $-1 12.098845389036496 19.791415686185466 5.8860843227468491 #
straight-curve $-1 3.0247113472591245 19.791415686185463 0.62271847168860361 -1 0 0 I I #
point $-1 12.098845389036496 19.791415686185463 0.62271847168860361 #
point $-1 3.4568129682961413 12.403081809015131 -1.7050985958105631 #
point $-1 8.6420324207403567 12.403081809015131 -1.7050985958105631 #
straight-curve $-1 30.17196279518447 19.791415686185466 43.824506235421651 0 0 -1 I I #
point $-1 30.17196279518447 19.791415686185466 5.8860843227468491 #
straight-curve $-1 12.061270050333111 19.791415686185463 0.62271847168860361 -1 0 0 I I #
point $-1 30.17196279518447 19.791415686185463 0.62271847168860361 #
point $-1 21.529930374444113 12.403081809015131 -1.7050985958105631 #
point $-1 26.715149826888329 12.403081809015131 -1.7050985958105631 #
straight-curve $-1 17.400318901188125 -19.791415686185466 35.50511438818824 0 0 -1 I I #
point $-1 17.400318901188125 -19.791415686185466 5.8860843227468491 #
straight-curve $-1 13.386638428371018 -19.791415686185466 1.9240855748284664 1 0 0 I I #
point $-1 17.400318901188125 -19.791415686185466 1.9240855748284673 #
point $-1 26.773276856742037 -14.545126121978688 0.58274584254515238 #
straight-curve $-1 -45.318653642551922 0 -0.23021171659490935 0 1 0 I I #
straight-curve $-1 -45.318653642551922 -19.791415686185466 1.5080217179294557 0 0 -1 I I #
point $-1 -45.318653642551922 -19.791415686185466 -0.23021171659490935 #
point $-1 45.318653642551908 19.791415686185466 -0.23021171659490935 #
straight-curve $-1 45.318653642551908 19.791415686185466 1.5080217179294557 0 0 -1 I I #
End-of-ACIS-data 