500 0 5 0           
7 Unknown 11 ACIS 5.0 NT 24 Thu Mar 25 15:22:36 1999 
-1 9.9999999999999995e-007 1e-010 
body $-1 $5 $-1 $6 #
body $-1 $7 $-1 $8 #
body $-1 $9 $-1 $10 #
body $-1 $11 $-1 $12 #
body $-1 $13 $-1 $14 #
lump $-1 $-1 $15 $0 #
transform $-1 1 0 0 0 1 0 0 0 1 42.137516403698847 17.69526209961781 5.0392641607829107 1 rotate no_reflect no_shear #
lump $-1 $-1 $16 $1 #
transform $-1 1 0 0 0 1 0 0 0 1 42.137516403698847 17.69526209961781 5.0392641607829107 1 rotate no_reflect no_shear #
lump $-1 $-1 $17 $2 #
transform $-1 1 0 0 0 1 0 0 0 1 42.137516403698847 17.69526209961781 5.0392641607829107 1 rotate no_reflect no_shear #
lump $-1 $-1 $18 $3 #
transform $-1 1 0 0 0 1 0 0 0 1 42.137516403698847 17.69526209961781 5.0392641607829107 1 rotate no_reflect no_shear #
lump $-1 $-1 $19 $4 #
transform $-1 1 0 0 0 1 0 0 0 1 42.137516403698847 17.69526209961781 5.0392641607829107 1 rotate no_reflect no_shear #
shell $-1 $-1 $-1 $20 $-1 $5 #
shell $-1 $-1 $-1 $21 $-1 $7 #
shell $-1 $-1 $-1 $22 $-1 $9 #
shell $-1 $-1 $-1 $23 $-1 $11 #
shell $-1 $-1 $-1 $24 $-1 $13 #
face $-1 $25 $26 $15 $-1 $27 forward single #
face $-1 $28 $29 $16 $-1 $30 forward single #
face $-1 $31 $32 $17 $-1 $33 reversed single #
face $-1 $34 $35 $18 $-1 $36 forward single #
face $-1 $37 $38 $19 $-1 $39 forward single #
face $-1 $40 $41 $15 $-1 $42 reversed single #
loop $-1 $-1 $43 $20 #
plane-surface $-1 0 0 5.0392641607829107 0 0 1 1 0 0 forward_v I I I I #
face $-1 $44 $45 $16 $-1 $46 reversed single #
loop $-1 $-1 $47 $21 #
plane-surface $-1 -42.137516403698847 0 0 1 0 0 0 0 -1 forward_v I I I I #
face $-1 $48 $49 $17 $-1 $50 reversed single #
loop $-1 $-1 $51 $22 #
plane-surface $-1 42.137517786524533 11.797730181197361 121.02574391138958 0 -1 0 -0.70710678939079041 0 -0.70710677298230451 forward_v I I I I #
face $-1 $52 $53 $18 $-1 $54 forward single #
loop $-1 $55 $56 $23 #
cone-surface $-1 39.214274264983707 4.3597863392056766 2.1160220157287983 -0.70710678939079041 0 -0.70710677298230451 0.70710677298230451 0 -0.70710678939079041 1 I I 0 1 1 forward I I I I #
face $-1 $57 $58 $19 $-1 $59 forward single #
loop $-1 $60 $61 $24 #
cone-surface $-1 39.214274264983707 8.8225526444006874 2.1160220157287983 -0.70710678939079041 0 -0.70710677298230451 0.70710677298230451 0 -0.70710678939079041 1 I I 0 1 1 forward I I I I #
face $-1 $62 $63 $15 $-1 $64 reversed single #
loop $-1 $-1 $65 $25 #
plane-surface $-1 0 0 -5.0392641607829107 0 0 1 1 0 0 forward_v I I I I #
coedge $-1 $66 $67 $68 $69 forward $26 $-1 #
face $-1 $70 $71 $16 $-1 $72 forward single #
loop $-1 $-1 $73 $28 #
plane-surface $-1 0 17.69526209961781 0 0 -1 0 0 0 -1 forward_v I I I I #
coedge $-1 $74 $75 $76 $77 forward $29 $-1 #
face $-1 $78 $79 $17 $-1 $80 reversed single #
loop $-1 $-1 $81 $31 #
plane-surface $-1 -17.453930087717978 6.591169491803182 61.434297419972758 0.70710678939079041 0 0.70710677298230451 0.70710677298230451 0 -0.70710678939079041 forward_v I I I I #
coedge $-1 $82 $83 $84 $85 reversed $32 $-1 #
face $-1 $-1 $86 $18 $-1 $87 forward single #
loop $-1 $88 $89 $34 #
cone-surface $-1 37.535686002012959 4.3597863392056766 0.43743379170985985 -0.70710678939079041 0 -0.70710677298230451 0.35355338649115226 0 -0.35355339469539521 1 I I -0.70710678118654746 0.70710678118654746 0.5 forward I I I I #
loop $-1 $-1 $90 $23 #
coedge $-1 $56 $56 $91 $92 reversed $35 $-1 #
face $-1 $-1 $93 $19 $-1 $94 forward single #
loop $-1 $95 $96 $37 #
cone-surface $-1 37.535686002012959 8.8225526444006874 0.43743379170985985 -0.70710678939079041 0 -0.70710677298230451 0.35355338649115226 0 -0.35355339469539521 1 I I -0.70710678118654746 0.70710678118654746 0.5 forward I I I I #
loop $-1 $-1 $97 $24 #
coedge $-1 $61 $61 $98 $99 reversed $38 $-1 #
face $-1 $100 $101 $15 $-1 $102 reversed single #
loop $-1 $-1 $103 $40 #
plane-surface $-1 0 -17.69526209961781 0 0 1 0 0 0 1 forward_v I I I I #
coedge $-1 $104 $105 $106 $107 forward $41 $-1 #
coedge $-1 $108 $43 $109 $110 forward $26 $-1 #
coedge $-1 $43 $108 $111 $112 forward $26 $-1 #
coedge $-1 $113 $114 $43 $69 reversed $115 $-1 #
edge $-1 $116 -17.69526209961781 $117 17.69526209961781 $68 $118 forward 7 unknown #
face $-1 $119 $120 $16 $-1 $121 reversed single #
loop $-1 $-1 $76 $44 #
plane-surface $-1 -44.703028902715332 0 3.1641573206330245 0 0 1 1 0 0 forward_v I I I I #
coedge $-1 $122 $123 $75 $124 forward $45 $-1 #
coedge $-1 $125 $47 $126 $127 reversed $29 $-1 #
coedge $-1 $47 $125 $73 $124 reversed $29 $-1 #
coedge $-1 $128 $129 $47 $77 reversed $71 $-1 #
edge $-1 $130 -17.69526209961781 $131 17.69526209961781 $76 $132 forward 7 unknown #
face $-1 $133 $134 $17 $-1 $135 forward single #
loop $-1 $-1 $136 $48 #
plane-surface $-1 42.137517786524533 1.3846088024090033 121.02574391138958 0 1 0 0.70710678939079041 0 0.70710677298230451 forward_v I I I I #
coedge $-1 $137 $138 $139 $140 reversed $49 $-1 #
coedge $-1 $83 $51 $141 $142 reversed $32 $-1 #
coedge $-1 $51 $82 $137 $143 reversed $32 $-1 #
coedge $-1 $139 $144 $51 $85 forward $134 $-1 #
edge $-1 $145 -21.06875751043658 $146 -17.872342969557042 $84 $147 forward 7 unknown #
loop $-1 $-1 $91 $52 #
plane-surface $-1 -17.453930087717978 6.591169491803182 61.434297419972758 0.70710678939079041 0 0.70710677298230451 0.70710677298230451 0 -0.70710678939079041 forward_v I I I I #
loop $-1 $-1 $148 $34 #
coedge $-1 $89 $89 $90 $149 reversed $53 $-1 #
coedge $-1 $90 $90 $89 $149 forward $55 $-1 #
coedge $-1 $91 $91 $56 $92 forward $86 $-1 #
edge $-1 $150 0 $150 6.2831853071796004 $91 $151 forward 7 unknown #
loop $-1 $-1 $98 $57 #
plane-surface $-1 -17.453930087717978 6.591169491803182 61.434297419972758 0.70710678939079041 0 0.70710677298230451 0.70710677298230451 0 -0.70710678939079041 forward_v I I I I #
loop $-1 $-1 $152 $37 #
coedge $-1 $96 $96 $97 $153 reversed $58 $-1 #
coedge $-1 $97 $97 $96 $153 forward $60 $-1 #
coedge $-1 $98 $98 $61 $99 forward $93 $-1 #
edge $-1 $154 0 $154 6.2831853071796004 $98 $155 forward 7 unknown #
face $-1 $156 $157 $15 $-1 $158 reversed single #
loop $-1 $-1 $159 $62 #
plane-surface $-1 -42.137516403698847 0 0 1 0 0 0 0 -1 forward_v I I I I #
coedge $-1 $160 $111 $159 $161 forward $63 $-1 #
coedge $-1 $162 $65 $160 $163 forward $41 $-1 #
coedge $-1 $65 $162 $164 $165 forward $41 $-1 #
coedge $-1 $114 $113 $65 $107 reversed $115 $-1 #
edge $-1 $166 -17.69526209961781 $167 17.69526209961781 $106 $168 forward 7 unknown #
coedge $-1 $67 $66 $169 $170 forward $26 $-1 #
coedge $-1 $171 $172 $66 $110 reversed $157 $-1 #
edge $-1 $117 -42.137516403698847 $173 42.137516403698847 $109 $174 forward 7 unknown #
coedge $-1 $103 $175 $67 $112 reversed $63 $-1 #
edge $-1 $176 -42.137516403698847 $116 42.137516403698847 $111 $177 forward 7 unknown #
coedge $-1 $106 $68 $175 $178 forward $115 $-1 #
coedge $-1 $68 $106 $171 $179 reversed $115 $-1 #
loop $-1 $-1 $113 $156 #
vertex $-1 $69 $180 #
vertex $-1 $69 $181 #
straight-curve $-1 42.137516403698847 0 5.0392641607829107 0 1 0 I I #
face $-1 $182 $183 $16 $-1 $184 reversed single #
loop $-1 $-1 $185 $70 #
plane-surface $-1 -44.703028902715332 0 0.16415732063302446 0 0 1 1 0 0 forward_v I I I I #
coedge $-1 $186 $73 $187 $188 reversed $45 $-1 #
coedge $-1 $73 $186 $128 $189 reversed $45 $-1 #
edge $-1 $130 -3.1641573206330245 $190 -0.16415732063302446 $73 $191 forward 7 unknown #
coedge $-1 $75 $74 $185 $192 forward $29 $-1 #
coedge $-1 $193 $194 $74 $127 forward $195 $-1 #
edge $-1 $196 0.16415732063302446 $131 3.1641573206330245 $126 $197 forward 7 unknown #
coedge $-1 $198 $76 $123 $189 forward $71 $-1 #
coedge $-1 $76 $198 $193 $199 forward $71 $-1 #
vertex $-1 $124 $200 #
vertex $-1 $199 $201 #
straight-curve $-1 -42.137516403698847 0 3.1641573206330245 0 -1 0 I I #
face $-1 $-1 $202 $17 $-1 $203 reversed single #
loop $-1 $-1 $84 $78 #
plane-surface $-1 0 0 5.0392641607829107 0 0 1 1 0 0 forward_v I I I I #
coedge $-1 $204 $205 $206 $207 reversed $79 $-1 #
coedge $-1 $208 $81 $83 $143 forward $49 $-1 #
coedge $-1 $81 $208 $204 $209 forward $49 $-1 #
coedge $-1 $206 $84 $81 $140 forward $134 $-1 #
edge $-1 $146 -8.5021454352957697 $210 1.9109759434925877 $139 $211 forward 7 unknown #
coedge $-1 $212 $213 $82 $142 forward $202 $-1 #
edge $-1 $214 -58.670022409964545 $145 -55.473607794911878 $141 $215 forward 7 unknown #
edge $-1 $146 79.754619960270972 $214 84.275032807397722 $83 $216 forward 7 unknown #
coedge $-1 $84 $206 $212 $217 forward $134 $-1 #
vertex $-1 $142 $218 #
vertex $-1 $85 $219 #
straight-curve $-1 21.068758893262267 11.797730181197361 5.0392641607829134 -1 0 0 I I #
coedge $-1 $148 $148 $-1 $220 reversed $88 $-1 #
edge $-1 $221 0 $221 6.2831853071796004 $89 $222 forward 7 unknown #
vertex $-1 $92 $223 #
ellipse-curve $-1 40.539309133259074 4.3597863392056766 3.4410568532565922 0.70710678939079041 0 0.70710677298230451 0.70710677298230451 0 -0.70710678939079041 1 I I #
coedge $-1 $152 $152 $-1 $224 reversed $95 $-1 #
edge $-1 $225 0 $225 6.2831853071796004 $96 $226 forward 7 unknown #
vertex $-1 $99 $227 #
ellipse-curve $-1 40.539309133259074 8.8225526444006874 3.4410568532565922 0.70710678939079041 0 0.70710677298230451 0.70710677298230451 0 -0.70710678939079041 1 I I #
face $-1 $-1 $115 $15 $-1 $228 reversed single #
loop $-1 $-1 $171 $100 #
plane-surface $-1 0 17.69526209961781 0 0 -1 0 0 0 -1 forward_v I I I I #
coedge $-1 $169 $229 $103 $161 reversed $101 $-1 #
coedge $-1 $175 $103 $104 $163 reversed $63 $-1 #
edge $-1 $176 -5.0392641607829107 $230 5.0392641607829107 $159 $231 forward 7 unknown #
coedge $-1 $105 $104 $229 $232 forward $41 $-1 #
edge $-1 $167 -42.137516403698847 $230 42.137516403698847 $160 $233 forward 7 unknown #
coedge $-1 $172 $171 $105 $165 reversed $157 $-1 #
edge $-1 $234 -42.137516403698847 $166 42.137516403698847 $164 $235 forward 7 unknown #
vertex $-1 $107 $236 #
vertex $-1 $178 $237 #
straight-curve $-1 42.137516403698847 0 -5.0392641607829107 0 -1 0 I I #
coedge $-1 $238 $159 $108 $170 reversed $101 $-1 #
edge $-1 $173 -17.69526209961781 $176 17.69526209961781 $169 $239 forward 7 unknown #
coedge $-1 $164 $109 $114 $179 forward $157 $-1 #
coedge $-1 $109 $164 $238 $240 reversed $157 $-1 #
vertex $-1 $110 $241 #
straight-curve $-1 0 17.69526209961781 5.0392641607829107 -1 0 0 I I #
coedge $-1 $111 $160 $113 $178 reversed $63 $-1 #
vertex $-1 $170 $242 #
straight-curve $-1 0 -17.69526209961781 5.0392641607829107 1 0 0 I I #
edge $-1 $116 -5.0392641607829107 $167 5.0392641607829107 $113 $243 forward 7 unknown #
edge $-1 $117 -5.0392641607829107 $166 5.0392641607829107 $114 $244 forward 7 unknown #
point $-1 42.137516403698847 -17.69526209961781 5.0392641607829107 #
point $-1 42.137516403698847 17.69526209961781 5.0392641607829107 #
face $-1 $-1 $195 $16 $-1 $245 reversed single #
loop $-1 $-1 $246 $119 #
plane-surface $-1 -47.268541401731817 0 1.6641573206330245 1 0 0 0 0 -1 forward_v I I I I #
coedge $-1 $247 $187 $125 $192 reversed $120 $-1 #
coedge $-1 $123 $122 $246 $248 reversed $45 $-1 #
coedge $-1 $185 $249 $122 $188 forward $120 $-1 #
edge $-1 $250 -2.565512499016485 $190 2.565512499016485 $122 $251 forward 7 unknown #
edge $-1 $130 -2.565512499016485 $252 2.565512499016485 $123 $253 forward 7 unknown #
vertex $-1 $124 $254 #
straight-curve $-1 -42.137516403698847 17.69526209961781 0 0 0 -1 I I #
edge $-1 $196 -17.69526209961781 $190 17.69526209961781 $185 $255 forward 7 unknown #
coedge $-1 $256 $126 $129 $199 reversed $195 $-1 #
coedge $-1 $126 $256 $247 $257 reversed $195 $-1 #
loop $-1 $-1 $126 $182 #
vertex $-1 $127 $258 #
straight-curve $-1 -42.137516403698847 -17.69526209961781 0 0 0 1 I I #
coedge $-1 $129 $128 $259 $260 forward $71 $-1 #
edge $-1 $261 -2.565512499016485 $131 2.565512499016485 $193 $262 forward 7 unknown #
point $-1 -42.137516403698847 17.69526209961781 3.1641573206330245 #
point $-1 -42.137516403698847 -17.69526209961781 3.1641573206330245 #
loop $-1 $-1 $141 $133 #
plane-surface $-1 42.137516403698847 0 0 -1 0 0 0 0 1 forward_v I I I I #
coedge $-1 $205 $136 $138 $209 reversed $79 $-1 #
coedge $-1 $136 $204 $263 $264 reversed $79 $-1 #
coedge $-1 $144 $139 $136 $207 forward $134 $-1 #
edge $-1 $210 17.872342969557042 $265 21.06875751043658 $206 $266 forward 7 unknown #
coedge $-1 $138 $137 $213 $267 reversed $49 $-1 #
edge $-1 $268 -84.275032807397722 $210 -79.754619960270972 $204 $269 forward 7 unknown #
vertex $-1 $140 $270 #
straight-curve $-1 38.941101862819316 3.295584745901591 5.0392641607829063 0 -1 0 I I #
coedge $-1 $263 $141 $144 $217 reversed $202 $-1 #
coedge $-1 $141 $263 $208 $267 forward $202 $-1 #
vertex $-1 $142 $271 #
straight-curve $-1 42.137516403698847 11.797730181197361 60.512871955694791 0 0 1 I I #
straight-curve $-1 -17.453930087717978 11.797730181197361 61.434297419972758 0.70710677298230451 0 -0.70710678939079041 I I #
edge $-1 $265 1.3846088024090033 $145 11.797730181197361 $212 $272 forward 7 unknown #
point $-1 42.137516403698847 11.797730181197361 5.0392641607829107 #
point $-1 38.941101862819309 11.797730181197361 5.0392641607829134 #
edge $-1 $273 1 $273 0 $148 $-1 forward 7 unknown #
vertex $-1 $149 $274 #
ellipse-curve $-1 37.889239396708355 4.3597863392056766 0.79098717820101205 0.70710678939079041 0 0.70710677298230451 0.70710677298230451 0 -0.70710678939079041 1 I I #
point $-1 41.246415906241374 4.3597863392056766 2.7339500638657941 #
edge $-1 $275 1 $275 0 $152 $-1 forward 7 unknown #
vertex $-1 $153 $276 #
ellipse-curve $-1 37.889239396708355 8.8225526444006874 0.79098717820101205 0.70710678939079041 0 0.70710677298230451 0.70710677298230451 0 -0.70710678939079041 1 I I #
point $-1 41.246415906241374 8.8225526444006874 2.7339500638657941 #
plane-surface $-1 42.137516403698847 0 0 -1 0 0 0 0 1 forward_v I I I I #
coedge $-1 $159 $238 $162 $232 reversed $101 $-1 #
vertex $-1 $232 $277 #
straight-curve $-1 -42.137516403698847 -17.69526209961781 0 0 0 -1 I I #
edge $-1 $230 -17.69526209961781 $234 17.69526209961781 $229 $278 forward 7 unknown #
straight-curve $-1 0 -17.69526209961781 -5.0392641607829107 -1 0 0 I I #
vertex $-1 $165 $279 #
straight-curve $-1 0 17.69526209961781 -5.0392641607829107 1 0 0 I I #
point $-1 42.137516403698847 17.69526209961781 -5.0392641607829107 #
point $-1 42.137516403698847 -17.69526209961781 -5.0392641607829107 #
coedge $-1 $229 $169 $172 $240 forward $101 $-1 #
straight-curve $-1 -42.137516403698847 0 5.0392641607829107 0 -1 0 I I #
edge $-1 $173 -5.0392641607829107 $234 5.0392641607829107 $172 $280 forward 7 unknown #
point $-1 -42.137516403698847 17.69526209961781 5.0392641607829107 #
point $-1 -42.137516403698847 -17.69526209961781 5.0392641607829107 #
straight-curve $-1 42.137516403698847 -17.69526209961781 0 0 0 -1 I I #
straight-curve $-1 42.137516403698847 17.69526209961781 0 0 0 -1 I I #
plane-surface $-1 0 -17.69526209961781 0 0 1 0 0 0 1 forward_v I I I I #
coedge $-1 $281 $259 $186 $248 forward $183 $-1 #
coedge $-1 $249 $185 $194 $257 forward $120 $-1 #
edge $-1 $252 -1.5 $250 1.5 $186 $282 forward 7 unknown #
coedge $-1 $187 $247 $281 $283 forward $120 $-1 #
vertex $-1 $188 $284 #
straight-curve $-1 -44.703028902715332 17.69526209961781 0.16415732063302446 1 0 0 I I #
vertex $-1 $189 $285 #
straight-curve $-1 -44.703028902715332 17.69526209961781 3.1641573206330245 -1 0 0 I I #
point $-1 -42.137516403698847 17.69526209961781 0.16415732063302446 #
straight-curve $-1 -42.137516403698847 0 0.16415732063302446 0 1 0 I I #
coedge $-1 $194 $193 $286 $287 forward $195 $-1 #
edge $-1 $196 -2.565512499016485 $288 2.565512499016485 $194 $289 forward 7 unknown #
point $-1 -42.137516403698847 -17.69526209961781 0.16415732063302446 #
coedge $-1 $246 $286 $198 $260 reversed $183 $-1 #
edge $-1 $252 -17.69526209961781 $261 17.69526209961781 $259 $290 forward 7 unknown #
vertex $-1 $260 $291 #
straight-curve $-1 -44.703028902715332 -17.69526209961781 3.1641573206330245 1 0 0 I I #
coedge $-1 $213 $212 $205 $264 forward $202 $-1 #
edge $-1 $265 55.473607794911878 $268 58.670022409964545 $263 $292 forward 7 unknown #
vertex $-1 $217 $293 #
straight-curve $-1 21.068758893262267 1.3846088024090033 5.0392641607829134 1 0 0 I I #
edge $-1 $268 -1.9109759434925877 $214 8.5021454352957697 $213 $294 forward 7 unknown #
vertex $-1 $267 $295 #
straight-curve $-1 -17.453930087717978 1.3846088024090033 61.434297419972758 -0.70710677298230451 0 0.70710678939079041 I I #
point $-1 38.941101862819309 1.3846088024090033 5.0392641607829134 #
point $-1 42.137516403698847 11.797730181197361 1.8428495457302461 #
straight-curve $-1 42.137516403698847 0 5.0392641607829107 0 1 0 I I #
vertex $-1 $220 $296 #
point $-1 38.596346169690662 4.3597863392056766 0.083880388810221695 #
vertex $-1 $224 $297 #
point $-1 38.596346169690662 8.8225526444006874 0.083880388810221695 #
point $-1 -42.137516403698847 -17.69526209961781 -5.0392641607829107 #
straight-curve $-1 -42.137516403698847 0 -5.0392641607829107 0 1 0 I I #
point $-1 -42.137516403698847 17.69526209961781 -5.0392641607829107 #
straight-curve $-1 -42.137516403698847 17.69526209961781 0 0 0 -1 I I #
coedge $-1 $286 $246 $249 $283 reversed $183 $-1 #
straight-curve $-1 -47.268541401731817 17.69526209961781 1.6641573206330245 0 0 -1 I I #
edge $-1 $288 -17.69526209961781 $250 17.69526209961781 $281 $298 forward 7 unknown #
point $-1 -47.268541401731817 17.69526209961781 0.16415732063302446 #
point $-1 -47.268541401731817 17.69526209961781 3.1641573206330245 #
coedge $-1 $259 $281 $256 $287 reversed $183 $-1 #
edge $-1 $261 -1.5 $288 1.5 $286 $299 forward 7 unknown #
vertex $-1 $283 $300 #
straight-curve $-1 -44.703028902715332 -17.69526209961781 0.16415732063302446 -1 0 0 I I #
straight-curve $-1 -47.268541401731817 0 3.1641573206330245 0 -1 0 I I #
point $-1 -47.268541401731817 -17.69526209961781 3.1641573206330245 #
straight-curve $-1 42.137516403698847 1.3846088024090033 60.512871955694791 0 0 -1 I I #
point $-1 42.137516403698847 1.3846088024090033 5.0392641607829107 #
straight-curve $-1 42.137516403698839 3.295584745901591 1.8428495457302461 0 1 0 I I #
point $-1 42.137516403698847 1.3846088024090033 1.8428495457302461 #
point $-1 37.182132607317563 4.3597863392056766 0.083880405218707599 #
point $-1 37.182132607317563 8.8225526444006874 0.083880405218707599 #
straight-curve $-1 -47.268541401731817 0 0.16415732063302446 0 1 0 I I #
straight-curve $-1 -47.268541401731817 -17.69526209961781 1.6641573206330245 0 0 -1 I I #
point $-1 -47.268541401731817 -17.69526209961781 0.16415732063302446 #
End-of-ACIS-data 