500 0 6 0           
7 Unknown 11 ACIS 5.0 NT 24 Fri Mar 26 00:56:18 1999 
-1 9.9999999999999995e-007 1e-010 
body $-1 $6 $-1 $7 #
body $-1 $8 $-1 $9 #
body $-1 $10 $-1 $11 #
body $-1 $12 $-1 $13 #
body $-1 $14 $-1 $15 #
body $-1 $16 $-1 $17 #
lump $-1 $-1 $18 $0 #
transform $-1 1 0 0 0 1 0 0 0 1 73.536179692983794 47.422947487666825 18.90202531107284 1 rotate no_reflect no_shear #
lump $-1 $-1 $19 $1 #
transform $-1 1 0 0 0 1 0 0 0 1 73.536179692983794 47.422947487666825 18.90202531107284 1 rotate no_reflect no_shear #
lump $-1 $-1 $20 $2 #
transform $-1 1 0 0 0 1 0 0 0 1 73.536179692983794 47.422947487666825 18.90202531107284 1 rotate no_reflect no_shear #
lump $-1 $-1 $21 $3 #
transform $-1 1 0 0 0 1 0 0 0 1 73.536179692983794 47.422947487666825 18.90202531107284 1 rotate no_reflect no_shear #
lump $-1 $-1 $22 $4 #
transform $-1 1 0 0 0 1 0 0 0 1 73.536179692983794 47.422947487666825 18.90202531107284 1 rotate no_reflect no_shear #
lump $-1 $-1 $23 $5 #
transform $-1 1 0 0 0 1 0 0 0 1 73.536179692983794 47.422947487666825 18.90202531107284 1 rotate no_reflect no_shear #
shell $-1 $-1 $-1 $24 $-1 $6 #
shell $-1 $-1 $-1 $25 $-1 $8 #
shell $-1 $-1 $-1 $26 $-1 $10 #
shell $-1 $-1 $-1 $27 $-1 $12 #
shell $-1 $-1 $-1 $28 $-1 $14 #
shell $-1 $-1 $-1 $29 $-1 $16 #
face $-1 $30 $31 $18 $-1 $32 forward single #
face $-1 $33 $34 $19 $-1 $35 reversed single #
face $-1 $36 $37 $20 $-1 $38 reversed single #
face $-1 $39 $40 $21 $-1 $41 forward single #
face $-1 $42 $43 $22 $-1 $44 reversed single #
face $-1 $45 $46 $23 $-1 $47 forward single #
face $-1 $48 $49 $18 $-1 $50 reversed single #
loop $-1 $-1 $51 $24 #
plane-surface $-1 0 0 18.90202531107284 0 0 1 1 0 0 forward_v I I I I #
face $-1 $52 $53 $19 $-1 $54 reversed single #
loop $-1 $-1 $55 $25 #
plane-surface $-1 -66.694294922857182 0 12.695340197026477 0 0 1 1 0 0 forward_v I I I I #
face $-1 $56 $57 $20 $-1 $58 reversed single #
loop $-1 $-1 $59 $26 #
plane-surface $-1 -39.563031489745704 -169.35146049041958 87.974253677854676 -1 0 0 0 -0.82903758062907751 0.55919289150049634 forward_v I I I I #
face $-1 $60 $61 $21 $-1 $62 forward single #
loop $-1 $63 $64 $27 #
cone-surface $-1 -49.707720821238134 -40.603913323891014 10.713563559583008 0 0.82903758062907751 -0.55919289150049634 2 0 0 1 I I 0 1 2 forward I I I I #
face $-1 $65 $66 $22 $-1 $67 reversed single #
loop $-1 $-1 $68 $28 #
plane-surface $-1 -49.707720821238134 -5.6142027705424198 84.363247075965504 0 0.82903758062907751 0.55919289150049634 1 0 0 forward_v I I I I #
face $-1 $69 $70 $23 $-1 $71 forward single #
loop $-1 $72 $73 $29 #
cone-surface $-1 -49.707720821238134 40.603913323891007 10.713563559583015 0 -0.82903758062907751 -0.55919289150049634 2 0 0 1 I I 0 1 2 forward I I I I #
face $-1 $74 $75 $18 $-1 $76 reversed single #
loop $-1 $-1 $77 $30 #
plane-surface $-1 0 0 -18.90202531107284 0 0 1 1 0 0 forward_v I I I I #
coedge $-1 $78 $79 $80 $81 forward $31 $-1 #
face $-1 $82 $83 $19 $-1 $84 reversed single #
loop $-1 $-1 $85 $33 #
plane-surface $-1 -59.85241015273057 0 15.798682754049658 -1 0 0 0 0 1 forward_v I I I I #
coedge $-1 $86 $87 $88 $89 forward $34 $-1 #
face $-1 $90 $91 $20 $-1 $92 forward single #
loop $-1 $-1 $93 $36 #
plane-surface $-1 -49.707720821238134 -47.422947487666818 5.7324357730152968 0 -0.82903758062907751 0.55919289150049634 1 0 0 forward_v I I I I #
coedge $-1 $94 $95 $96 $97 reversed $37 $-1 #
face $-1 $-1 $98 $21 $-1 $99 forward single #
loop $-1 $100 $101 $39 #
cone-surface $-1 -49.707720821238134 -37.397341594523439 8.5507036856214498 0 0.82903758062907751 -0.55919289150049634 1 0 0 1 I I -0.70710678118654746 0.70710678118654746 1 forward I I I I #
loop $-1 $-1 $102 $27 #
coedge $-1 $64 $64 $103 $104 reversed $40 $-1 #
face $-1 $105 $106 $22 $-1 $107 forward single #
loop $-1 $-1 $108 $42 #
plane-surface $-1 -39.563031489745704 116.31431023221035 166.60506498080488 -1 0 0 0 0.82903758062907751 0.55919289150049634 forward_v I I I I #
coedge $-1 $109 $110 $111 $112 reversed $43 $-1 #
face $-1 $-1 $113 $23 $-1 $114 forward single #
loop $-1 $115 $116 $45 #
cone-surface $-1 -49.707720821238134 37.397341594523432 8.5507036856214569 0 -0.82903758062907751 -0.55919289150049634 1 0 0 1 I I -0.70710678118654746 0.70710678118654746 1 forward I I I I #
loop $-1 $-1 $117 $29 #
coedge $-1 $73 $73 $118 $119 reversed $46 $-1 #
face $-1 $120 $121 $18 $-1 $122 reversed single #
loop $-1 $-1 $123 $48 #
plane-surface $-1 0 -47.422947487666825 0 0 1 0 0 0 1 forward_v I I I I #
coedge $-1 $124 $125 $126 $127 forward $49 $-1 #
coedge $-1 $128 $51 $129 $130 forward $31 $-1 #
coedge $-1 $51 $128 $131 $132 forward $31 $-1 #
coedge $-1 $133 $134 $51 $81 reversed $135 $-1 #
edge $-1 $136 -47.422947487666825 $137 47.422947487666825 $80 $138 forward 7 unknown #
face $-1 $139 $140 $19 $-1 $141 reversed single #
loop $-1 $-1 $142 $52 #
plane-surface $-1 0 47.422947487666825 0 0 -1 0 0 0 -1 forward_v I I I I #
coedge $-1 $88 $143 $144 $145 reversed $53 $-1 #
coedge $-1 $146 $55 $147 $148 reversed $34 $-1 #
coedge $-1 $55 $146 $149 $150 reversed $34 $-1 #
coedge $-1 $151 $85 $55 $89 reversed $53 $-1 #
edge $-1 $152 -47.422947487666825 $153 47.422947487666825 $88 $154 forward 7 unknown #
face $-1 $155 $156 $20 $-1 $157 forward single #
loop $-1 $-1 $158 $56 #
plane-surface $-1 -59.85241015273057 0 15.798682754049658 -1 0 0 0 0 1 forward_v I I I I #
coedge $-1 $159 $160 $161 $162 reversed $57 $-1 #
coedge $-1 $95 $59 $163 $164 reversed $37 $-1 #
coedge $-1 $59 $94 $159 $165 reversed $37 $-1 #
coedge $-1 $161 $166 $59 $97 forward $156 $-1 #
edge $-1 $167 37.252782757542967 $168 46.135782787617593 $96 $169 forward 7 unknown #
loop $-1 $-1 $103 $60 #
plane-surface $-1 -49.707720821238134 -47.422947487666818 5.7324357730152968 0 -0.82903758062907751 0.55919289150049634 1 0 0 forward_v I I I I #
loop $-1 $-1 $170 $39 #
coedge $-1 $101 $101 $102 $171 reversed $61 $-1 #
coedge $-1 $102 $102 $101 $171 forward $63 $-1 #
coedge $-1 $103 $103 $64 $104 forward $98 $-1 #
edge $-1 $172 -5.1398565825151937e-016 $172 6.2831853071795996 $103 $173 forward 7 unknown #
face $-1 $174 $175 $22 $-1 $176 reversed single #
loop $-1 $-1 $111 $65 #
plane-surface $-1 0 0 18.90202531107284 0 0 1 1 0 0 forward_v I I I I #
coedge $-1 $177 $178 $179 $180 reversed $66 $-1 #
coedge $-1 $181 $68 $182 $183 reversed $43 $-1 #
coedge $-1 $68 $181 $177 $184 forward $43 $-1 #
coedge $-1 $179 $185 $68 $112 forward $106 $-1 #
edge $-1 $186 -34.998549742111493 $187 -14.709171079126637 $111 $188 forward 7 unknown #
loop $-1 $-1 $118 $69 #
plane-surface $-1 -49.707720821238134 -5.6142027705424198 84.363247075965504 0 0.82903758062907751 0.55919289150049634 1 0 0 forward_v I I I I #
loop $-1 $-1 $189 $45 #
coedge $-1 $116 $116 $117 $190 reversed $70 $-1 #
coedge $-1 $117 $117 $116 $190 forward $72 $-1 #
coedge $-1 $118 $118 $73 $119 forward $113 $-1 #
edge $-1 $191 1.0279713165030387e-015 $191 6.2831853071796013 $118 $192 forward 7 unknown #
face $-1 $193 $194 $18 $-1 $195 reversed single #
loop $-1 $-1 $196 $74 #
plane-surface $-1 -73.536179692983794 0 0 1 0 0 0 0 -1 forward_v I I I I #
coedge $-1 $197 $131 $198 $199 forward $75 $-1 #
coedge $-1 $200 $77 $197 $201 forward $49 $-1 #
coedge $-1 $77 $200 $202 $203 forward $49 $-1 #
coedge $-1 $134 $133 $77 $127 reversed $135 $-1 #
edge $-1 $204 -47.422947487666825 $205 47.422947487666825 $126 $206 forward 7 unknown #
coedge $-1 $79 $78 $207 $208 forward $31 $-1 #
coedge $-1 $209 $210 $78 $130 reversed $194 $-1 #
edge $-1 $137 -73.536179692983794 $211 73.536179692983794 $129 $212 forward 7 unknown #
coedge $-1 $123 $213 $79 $132 reversed $75 $-1 #
edge $-1 $214 -73.536179692983794 $136 73.536179692983794 $131 $215 forward 7 unknown #
coedge $-1 $126 $80 $213 $216 forward $135 $-1 #
coedge $-1 $80 $126 $209 $217 reversed $135 $-1 #
loop $-1 $-1 $133 $193 #
vertex $-1 $81 $218 #
vertex $-1 $81 $219 #
straight-curve $-1 73.536179692983794 0 18.90202531107284 0 1 0 I I #
face $-1 $220 $221 $19 $-1 $222 forward single #
loop $-1 $-1 $223 $82 #
plane-surface $-1 -73.536179692983794 0 0 1 0 0 0 0 -1 forward_v I I I I #
coedge $-1 $149 $224 $151 $225 forward $83 $-1 #
coedge $-1 $85 $151 $226 $227 reversed $53 $-1 #
coedge $-1 $228 $147 $85 $145 forward $229 $-1 #
edge $-1 $153 4.7959988200016479 $230 11.002683934048012 $144 $231 forward 7 unknown #
coedge $-1 $87 $86 $223 $232 reversed $34 $-1 #
coedge $-1 $144 $233 $86 $148 forward $229 $-1 #
edge $-1 $234 -40.189032231555203 $153 -26.505262691301979 $147 $235 forward 7 unknown #
coedge $-1 $236 $142 $87 $150 forward $83 $-1 #
edge $-1 $152 26.505262691301979 $237 40.189032231555203 $149 $238 forward 7 unknown #
coedge $-1 $143 $88 $142 $225 reversed $53 $-1 #
vertex $-1 $150 $239 #
vertex $-1 $148 $240 #
straight-curve $-1 -59.85241015273057 0 12.695340197026477 0 -1 0 I I #
face $-1 $-1 $241 $20 $-1 $242 reversed single #
loop $-1 $-1 $161 $90 #
plane-surface $-1 0 0 18.90202531107284 0 0 1 1 0 0 forward_v I I I I #
coedge $-1 $243 $244 $160 $245 reversed $91 $-1 #
coedge $-1 $246 $93 $95 $165 forward $57 $-1 #
coedge $-1 $93 $246 $158 $245 forward $57 $-1 #
coedge $-1 $247 $96 $93 $162 forward $156 $-1 #
edge $-1 $168 14.709171079126637 $248 34.998549742111507 $161 $249 forward 7 unknown #
coedge $-1 $250 $251 $94 $164 forward $241 $-1 #
edge $-1 $252 -38.254691065912056 $167 -25.085101527854498 $163 $253 forward 7 unknown #
edge $-1 $168 -15.885395120525658 $252 1.2809303928265426e-014 $95 $254 forward 7 unknown #
coedge $-1 $96 $247 $250 $255 forward $156 $-1 #
vertex $-1 $164 $256 #
vertex $-1 $97 $257 #
straight-curve $-1 -39.563031489745704 -84.675730245209792 18.90202531107284 0 1 0 I I #
coedge $-1 $170 $170 $-1 $258 reversed $100 $-1 #
edge $-1 $259 0 $259 6.2831853071796004 $101 $260 forward 7 unknown #
vertex $-1 $104 $261 #
ellipse-curve $-1 -49.707720821238134 -42.981447472629512 12.317230542044069 0 -0.82903758062907751 0.55919289150049634 2 0 0 1 I I #
face $-1 $-1 $262 $22 $-1 $263 forward single #
loop $-1 $-1 $264 $105 #
plane-surface $-1 0 47.422947487666825 0 0 -1 0 0 0 -1 forward_v I I I I #
coedge $-1 $178 $108 $110 $184 reversed $66 $-1 #
coedge $-1 $108 $177 $264 $265 reversed $66 $-1 #
coedge $-1 $266 $111 $108 $180 forward $106 $-1 #
edge $-1 $187 -19.617207658512982 $267 -10.734207628438348 $179 $268 forward 7 unknown #
coedge $-1 $110 $109 $269 $270 reversed $43 $-1 #
coedge $-1 $271 $272 $109 $183 forward $262 $-1 #
edge $-1 $273 -64.854883573804898 $186 -48.969488453279226 $182 $274 forward 7 unknown #
edge $-1 $275 -94.845894975333692 $187 -78.960499854808006 $177 $276 forward 7 unknown #
coedge $-1 $111 $266 $271 $277 forward $106 $-1 #
vertex $-1 $183 $278 #
vertex $-1 $112 $279 #
straight-curve $-1 -24.853860410619067 38.539947457592199 18.90202531107284 1 0 0 I I #
coedge $-1 $189 $189 $-1 $280 reversed $115 $-1 #
edge $-1 $281 0 $281 6.2831853071796004 $116 $282 forward 7 unknown #
vertex $-1 $119 $283 #
ellipse-curve $-1 -49.707720821238134 42.981447472629497 12.317230542044072 0 0.82903758062907751 0.55919289150049634 2 0 0 1 I I #
face $-1 $-1 $135 $18 $-1 $284 reversed single #
loop $-1 $-1 $209 $120 #
plane-surface $-1 0 47.422947487666825 0 0 -1 0 0 0 -1 forward_v I I I I #
coedge $-1 $285 $207 $210 $286 forward $121 $-1 #
coedge $-1 $213 $123 $124 $201 reversed $75 $-1 #
coedge $-1 $207 $285 $123 $199 reversed $121 $-1 #
edge $-1 $214 -18.90202531107284 $287 18.90202531107284 $198 $288 forward 7 unknown #
coedge $-1 $125 $124 $285 $289 forward $49 $-1 #
edge $-1 $205 -73.536179692983794 $287 73.536179692983794 $197 $290 forward 7 unknown #
coedge $-1 $210 $209 $125 $203 reversed $194 $-1 #
edge $-1 $291 -73.536179692983794 $204 73.536179692983794 $202 $292 forward 7 unknown #
vertex $-1 $127 $293 #
vertex $-1 $216 $294 #
straight-curve $-1 73.536179692983794 0 -18.90202531107284 0 -1 0 I I #
coedge $-1 $196 $198 $128 $208 reversed $121 $-1 #
edge $-1 $211 -47.422947487666825 $214 47.422947487666825 $207 $295 forward 7 unknown #
coedge $-1 $202 $129 $134 $217 forward $194 $-1 #
coedge $-1 $129 $202 $196 $286 reversed $194 $-1 #
vertex $-1 $130 $296 #
straight-curve $-1 0 47.422947487666825 18.90202531107284 -1 0 0 I I #
coedge $-1 $131 $197 $133 $216 reversed $75 $-1 #
vertex $-1 $208 $297 #
straight-curve $-1 0 -47.422947487666825 18.90202531107284 1 0 0 I I #
edge $-1 $136 -18.90202531107284 $205 18.90202531107284 $133 $298 forward 7 unknown #
edge $-1 $137 -18.90202531107284 $204 18.90202531107284 $134 $299 forward 7 unknown #
point $-1 73.536179692983794 -47.422947487666825 18.90202531107284 #
point $-1 73.536179692983794 47.422947487666825 18.90202531107284 #
face $-1 $-1 $229 $19 $-1 $300 reversed single #
loop $-1 $-1 $226 $139 #
plane-surface $-1 0 0 18.90202531107284 0 0 1 1 0 0 forward_v I I I I #
coedge $-1 $301 $302 $146 $232 forward $140 $-1 #
coedge $-1 $142 $236 $303 $304 reversed $83 $-1 #
edge $-1 $305 -11.002683934048012 $152 -4.7959988200016479 $142 $306 forward 7 unknown #
coedge $-1 $303 $307 $143 $227 forward $221 $-1 #
edge $-1 $230 -47.422947487666825 $305 47.422947487666825 $226 $308 forward 7 unknown #
coedge $-1 $233 $144 $307 $309 reversed $229 $-1 #
loop $-1 $-1 $144 $220 #
vertex $-1 $145 $310 #
straight-curve $-1 -59.85241015273057 -47.422947487666825 7.8993413770248289 0 0 1 I I #
edge $-1 $237 -47.422947487666825 $234 47.422947487666825 $223 $311 forward 7 unknown #
coedge $-1 $147 $228 $301 $312 forward $229 $-1 #
vertex $-1 $232 $313 #
straight-curve $-1 -33.347147461428591 -47.422947487666825 12.695340197026477 1 0 0 I I #
coedge $-1 $224 $149 $302 $314 reversed $83 $-1 #
vertex $-1 $232 $315 #
straight-curve $-1 -33.347147461428591 47.422947487666825 12.695340197026477 -1 0 0 I I #
point $-1 -59.85241015273057 47.422947487666825 12.695340197026477 #
point $-1 -59.85241015273057 -47.422947487666825 12.695340197026477 #
loop $-1 $-1 $163 $155 #
plane-surface $-1 0 -47.422947487666825 0 0 1 0 0 0 1 forward_v I I I I #
coedge $-1 $244 $158 $316 $317 reversed $91 $-1 #
coedge $-1 $158 $243 $247 $318 reversed $91 $-1 #
edge $-1 $319 -1.2809303928265426e-014 $248 15.885395120525658 $158 $320 forward 7 unknown #
coedge $-1 $160 $159 $251 $321 reversed $57 $-1 #
coedge $-1 $166 $161 $244 $318 forward $156 $-1 #
vertex $-1 $318 $322 #
straight-curve $-1 -24.853860410619067 -38.539947457592199 18.90202531107284 -1 0 0 I I #
coedge $-1 $316 $163 $166 $255 reversed $241 $-1 #
coedge $-1 $163 $316 $246 $321 forward $241 $-1 #
vertex $-1 $164 $323 #
straight-curve $-1 -39.563031489745704 -47.422947487666825 43.987126838927338 0 0 1 I I #
straight-curve $-1 -39.563031489745704 -47.422947487666818 5.7324357730152968 0 -0.55919289150049634 -0.82903758062907751 I I #
edge $-1 $324 -59.85241015273057 $167 -39.563031489745704 $250 $325 forward 7 unknown #
point $-1 -39.563031489745704 -47.422947487666825 18.90202531107284 #
point $-1 -39.563031489745704 -38.539947457592199 18.90202531107284 #
edge $-1 $326 1 $326 0 $170 $-1 forward 7 unknown #
vertex $-1 $171 $327 #
ellipse-curve $-1 -49.707720821238134 -38.226379175152516 9.1098965771219458 0 -0.82903758062907751 0.55919289150049634 2 0 0 1 I I #
point $-1 -47.707720821238134 -42.981447472629519 12.317230542044072 #
loop $-1 $-1 $182 $174 #
plane-surface $-1 -59.85241015273057 0 15.798682754049658 -1 0 0 0 0 1 forward_v I I I I #
coedge $-1 $269 $328 $178 $265 forward $175 $-1 #
edge $-1 $267 64.400507179329594 $275 77.570096717387159 $264 $329 forward 7 unknown #
coedge $-1 $185 $179 $328 $330 forward $106 $-1 #
vertex $-1 $330 $331 #
straight-curve $-1 -39.563031489745704 58.157155116105173 18.902025311072833 0 1 0 I I #
coedge $-1 $332 $264 $181 $270 forward $175 $-1 #
edge $-1 $275 14.709171079126637 $273 34.998549742111493 $269 $333 forward 7 unknown #
coedge $-1 $272 $182 $185 $277 reversed $262 $-1 #
coedge $-1 $182 $271 $332 $334 reversed $262 $-1 #
vertex $-1 $334 $335 #
straight-curve $-1 -59.85241015273057 11.156557614102816 59.499571543022995 0 -0.55919289150049634 0.82903758062907751 I I #
vertex $-1 $270 $336 #
straight-curve $-1 -39.563031489745704 -5.6142027705424198 84.363247075965504 0 -0.55919289150049634 0.82903758062907751 I I #
edge $-1 $337 -47.422947487666825 $186 -38.539947457592191 $185 $338 forward 7 unknown #
point $-1 -59.852410152730563 38.539947457592191 18.902025311072848 #
point $-1 -39.563031489745704 38.539947457592191 18.902025311072848 #
edge $-1 $339 1 $339 0 $189 $-1 forward 7 unknown #
vertex $-1 $190 $340 #
ellipse-curve $-1 -49.707720821238134 38.226379175152509 9.1098965771219529 0 0.82903758062907751 0.55919289150049634 2 0 0 1 I I #
point $-1 -47.707720821238134 42.981447472629512 12.317230542044079 #
plane-surface $-1 73.536179692983794 0 0 -1 0 0 0 0 1 forward_v I I I I #
coedge $-1 $198 $196 $200 $289 reversed $121 $-1 #
edge $-1 $211 -18.90202531107284 $291 18.90202531107284 $210 $341 forward 7 unknown #
vertex $-1 $289 $342 #
straight-curve $-1 -73.536179692983794 -47.422947487666825 0 0 0 -1 I I #
edge $-1 $287 -47.422947487666825 $291 47.422947487666825 $285 $343 forward 7 unknown #
straight-curve $-1 0 -47.422947487666825 -18.90202531107284 -1 0 0 I I #
vertex $-1 $203 $344 #
straight-curve $-1 0 47.422947487666825 -18.90202531107284 1 0 0 I I #
point $-1 73.536179692983794 47.422947487666825 -18.90202531107284 #
point $-1 73.536179692983794 -47.422947487666825 -18.90202531107284 #
straight-curve $-1 -73.536179692983794 0 18.90202531107284 0 -1 0 I I #
point $-1 -73.536179692983794 47.422947487666825 18.90202531107284 #
point $-1 -73.536179692983794 -47.422947487666825 18.90202531107284 #
straight-curve $-1 73.536179692983794 -47.422947487666825 0 0 0 -1 I I #
straight-curve $-1 73.536179692983794 47.422947487666825 0 0 0 -1 I I #
plane-surface $-1 0 -47.422947487666825 0 0 1 0 0 0 1 forward_v I I I I #
coedge $-1 $345 $223 $233 $312 reversed $140 $-1 #
coedge $-1 $223 $345 $236 $314 forward $140 $-1 #
coedge $-1 $346 $226 $224 $304 forward $221 $-1 #
edge $-1 $305 59.85241015273057 $347 73.536179692983794 $224 $348 forward 7 unknown #
vertex $-1 $304 $349 #
straight-curve $-1 -59.85241015273057 47.422947487666825 7.8993413770248289 0 0 -1 I I #
coedge $-1 $226 $346 $228 $309 forward $221 $-1 #
straight-curve $-1 -59.85241015273057 0 18.90202531107284 0 1 0 I I #
edge $-1 $350 -73.536179692983794 $230 -59.85241015273057 $228 $351 forward 7 unknown #
point $-1 -59.85241015273057 -47.422947487666825 18.90202531107284 #
straight-curve $-1 -73.536179692983794 0 12.695340197026477 0 -1 0 I I #
edge $-1 $350 -18.90202531107284 $234 -12.695340197026477 $301 $352 forward 7 unknown #
point $-1 -73.536179692983794 -47.422947487666825 12.695340197026477 #
edge $-1 $347 -18.90202531107284 $237 -12.695340197026477 $236 $353 forward 7 unknown #
point $-1 -73.536179692983794 47.422947487666825 12.695340197026477 #
coedge $-1 $251 $250 $243 $317 forward $241 $-1 #
edge $-1 $324 25.085101527854498 $319 38.254691065912056 $316 $354 forward 7 unknown #
edge $-1 $248 38.539947457592199 $324 47.422947487666825 $247 $355 forward 7 unknown #
vertex $-1 $317 $356 #
straight-curve $-1 -59.852410152730563 -47.422947487666818 5.7324357730152968 0 0.55919289150049634 0.82903758062907751 I I #
edge $-1 $319 -34.998549742111493 $252 -14.709171079126637 $251 $357 forward 7 unknown #
point $-1 -59.85241015273057 -38.539947457592199 18.90202531107284 #
point $-1 -39.563031489745704 -47.422947487666825 5.7324357730152862 #
vertex $-1 $255 $358 #
straight-curve $-1 0 -47.422947487666825 18.90202531107284 1 0 0 I I #
vertex $-1 $258 $359 #
point $-1 -47.707720821238134 -38.226379175152516 9.1098965771219458 #
coedge $-1 $264 $332 $266 $330 reversed $175 $-1 #
straight-curve $-1 -39.563031489745704 47.422947487666825 83.302532490402442 0 0 -1 I I #
edge $-1 $267 39.563031489745704 $337 59.85241015273057 $328 $360 forward 7 unknown #
point $-1 -39.563031489745704 47.422947487666825 18.90202531107284 #
coedge $-1 $328 $269 $272 $334 forward $175 $-1 #
straight-curve $-1 -24.853860410619067 47.422947487666832 5.7324357730152755 -1 0 0 I I #
edge $-1 $273 -77.570096717387159 $337 -64.400507179329594 $332 $361 forward 7 unknown #
point $-1 -59.852410152730563 47.422947487666825 5.7324357730152826 #
point $-1 -39.563031489745704 47.422947487666825 5.7324357730152826 #
vertex $-1 $277 $362 #
straight-curve $-1 -59.85241015273057 0 18.90202531107284 0 -1 0 I I #
vertex $-1 $280 $363 #
point $-1 -47.707720821238134 38.226379175152509 9.1098965771219529 #
straight-curve $-1 -73.536179692983794 47.422947487666825 0 0 0 -1 I I #
point $-1 -73.536179692983794 -47.422947487666825 -18.90202531107284 #
straight-curve $-1 -73.536179692983794 0 -18.90202531107284 0 1 0 I I #
point $-1 -73.536179692983794 47.422947487666825 -18.90202531107284 #
coedge $-1 $302 $301 $346 $364 reversed $140 $-1 #
coedge $-1 $307 $303 $345 $364 forward $221 $-1 #
vertex $-1 $304 $365 #
straight-curve $-1 0 47.422947487666825 18.90202531107284 -1 0 0 I I #
point $-1 -59.85241015273057 47.422947487666825 18.90202531107284 #
vertex $-1 $364 $366 #
straight-curve $-1 0 -47.422947487666825 18.90202531107284 1 0 0 I I #
straight-curve $-1 -73.536179692983794 -47.422947487666825 0 0 0 -1 I I #
straight-curve $-1 -73.536179692983794 47.422947487666825 0 0 0 -1 I I #
straight-curve $-1 -59.852410152730563 -47.422947487666825 43.987126838927338 0 0 -1 I I #
straight-curve $-1 -59.85241015273057 0 18.90202531107284 0 -1 0 I I #
point $-1 -59.852410152730563 -47.422947487666825 5.7324357730152862 #
straight-curve $-1 -24.853860410619067 -47.422947487666825 5.7324357730152773 1 0 0 I I #
point $-1 -59.85241015273057 -47.422947487666825 18.90202531107284 #
point $-1 -49.707720821238134 -36.568304013894362 7.9915107941209538 #
straight-curve $-1 0 47.422947487666825 18.90202531107284 -1 0 0 I I #
straight-curve $-1 -59.852410152730563 47.422947487666825 83.302532490402442 0 0 1 I I #
point $-1 -59.85241015273057 47.422947487666825 18.90202531107284 #
point $-1 -49.707720821238134 36.568304013894355 7.9915107941209609 #
edge $-1 $347 -47.422947487666825 $350 47.422947487666825 $345 $367 forward 7 unknown #
point $-1 -73.536179692983794 47.422947487666825 18.90202531107284 #
point $-1 -73.536179692983794 -47.422947487666825 18.90202531107284 #
straight-curve $-1 -73.536179692983794 0 18.90202531107284 0 -1 0 I I #
End-of-ACIS-data 