500 0 18 0           
7 Unknown 11 ACIS 5.0 NT 24 Fri Mar 26 16:54:54 1999 
-1 9.9999999999999995e-007 1e-010 
body $-1 $18 $-1 $19 #
body $-1 $20 $-1 $21 #
body $-1 $22 $-1 $23 #
body $-1 $24 $-1 $25 #
body $-1 $26 $-1 $27 #
body $-1 $28 $-1 $29 #
body $-1 $30 $-1 $31 #
body $-1 $32 $-1 $33 #
body $-1 $34 $-1 $35 #
body $-1 $36 $-1 $37 #
body $-1 $38 $-1 $39 #
body $-1 $40 $-1 $41 #
body $-1 $42 $-1 $43 #
body $-1 $44 $-1 $45 #
body $-1 $46 $-1 $47 #
body $-1 $48 $-1 $49 #
body $-1 $50 $-1 $51 #
body $-1 $52 $-1 $53 #
lump $-1 $-1 $54 $0 #
transform $-1 1 0 0 0 1 0 0 0 1 60.359508041627244 35.314005579199296 13.798510929659791 1 rotate no_reflect no_shear #
lump $-1 $-1 $55 $1 #
transform $-1 1 0 0 0 1 0 0 0 1 60.359508041627244 35.314005579199296 13.798510929659791 1 rotate no_reflect no_shear #
lump $-1 $-1 $56 $2 #
transform $-1 1 0 0 0 1 0 0 0 1 60.359508041627244 35.314005579199296 13.798510929659791 1 rotate no_reflect no_shear #
lump $-1 $-1 $57 $3 #
transform $-1 1 0 0 0 1 0 0 0 1 60.359508041627244 35.314005579199296 13.798510929659791 1 rotate no_reflect no_shear #
lump $-1 $-1 $58 $4 #
transform $-1 1 0 0 0 1 0 0 0 1 60.359508041627244 35.314005579199296 13.798510929659791 1 rotate no_reflect no_shear #
lump $-1 $-1 $59 $5 #
transform $-1 1 0 0 0 1 0 0 0 1 60.359508041627244 35.314005579199296 13.798510929659791 1 rotate no_reflect no_shear #
lump $-1 $-1 $60 $6 #
transform $-1 1 0 0 0 1 0 0 0 1 60.359508041627244 35.314005579199296 13.798510929659791 1 rotate no_reflect no_shear #
lump $-1 $-1 $61 $7 #
transform $-1 1 0 0 0 1 0 0 0 1 60.359508041627244 35.314005579199296 13.798510929659791 1 rotate no_reflect no_shear #
lump $-1 $-1 $62 $8 #
transform $-1 1 0 0 0 1 0 0 0 1 60.359508041627244 35.314005579199296 13.798510929659791 1 rotate no_reflect no_shear #
lump $-1 $-1 $63 $9 #
transform $-1 1 0 0 0 1 0 0 0 1 60.359508041627244 35.314005579199296 13.798510929659791 1 rotate no_reflect no_shear #
lump $-1 $-1 $64 $10 #
transform $-1 1 0 0 0 1 0 0 0 1 60.359508041627244 35.314005579199296 13.798510929659791 1 rotate no_reflect no_shear #
lump $-1 $-1 $65 $11 #
transform $-1 1 0 0 0 1 0 0 0 1 60.359508041627244 35.314005579199296 13.798510929659791 1 rotate no_reflect no_shear #
lump $-1 $-1 $66 $12 #
transform $-1 1 0 0 0 1 0 0 0 1 60.359508041627244 35.314005579199296 13.798510929659791 1 rotate no_reflect no_shear #
lump $-1 $-1 $67 $13 #
transform $-1 1 0 0 0 1 0 0 0 1 60.359508041627244 35.314005579199296 13.798510929659791 1 rotate no_reflect no_shear #
lump $-1 $-1 $68 $14 #
transform $-1 1 0 0 0 1 0 0 0 1 60.359508041627244 35.314005579199296 13.798510929659791 1 rotate no_reflect no_shear #
lump $-1 $-1 $69 $15 #
transform $-1 1 0 0 0 1 0 0 0 1 60.359508041627244 35.314005579199296 13.798510929659791 1 rotate no_reflect no_shear #
lump $-1 $-1 $70 $16 #
transform $-1 1 0 0 0 1 0 0 0 1 60.359508041627244 35.314005579199296 13.798510929659791 1 rotate no_reflect no_shear #
lump $-1 $-1 $71 $17 #
transform $-1 1 0 0 0 1 0 0 0 1 60.359508041627244 35.314005579199296 13.798510929659791 1 rotate no_reflect no_shear #
shell $-1 $-1 $-1 $72 $-1 $18 #
shell $-1 $-1 $-1 $73 $-1 $20 #
shell $-1 $-1 $-1 $74 $-1 $22 #
shell $-1 $-1 $-1 $75 $-1 $24 #
shell $-1 $-1 $-1 $76 $-1 $26 #
shell $-1 $-1 $-1 $77 $-1 $28 #
shell $-1 $-1 $-1 $78 $-1 $30 #
shell $-1 $-1 $-1 $79 $-1 $32 #
shell $-1 $-1 $-1 $80 $-1 $34 #
shell $-1 $-1 $-1 $81 $-1 $36 #
shell $-1 $-1 $-1 $82 $-1 $38 #
shell $-1 $-1 $-1 $83 $-1 $40 #
shell $-1 $-1 $-1 $84 $-1 $42 #
shell $-1 $-1 $-1 $85 $-1 $44 #
shell $-1 $-1 $-1 $86 $-1 $46 #
shell $-1 $-1 $-1 $87 $-1 $48 #
shell $-1 $-1 $-1 $88 $-1 $50 #
shell $-1 $-1 $-1 $89 $-1 $52 #
face $-1 $90 $91 $54 $-1 $92 forward single #
face $-1 $93 $94 $55 $-1 $95 forward single #
face $-1 $96 $97 $56 $-1 $98 reversed single #
face $-1 $99 $100 $57 $-1 $101 forward single #
face $-1 $102 $103 $58 $-1 $104 forward single #
face $-1 $105 $106 $59 $-1 $107 forward single #
face $-1 $108 $109 $60 $-1 $110 reversed single #
face $-1 $111 $112 $61 $-1 $113 forward single #
face $-1 $114 $115 $62 $-1 $116 forward single #
face $-1 $117 $118 $63 $-1 $119 forward single #
face $-1 $120 $121 $64 $-1 $122 reversed single #
face $-1 $123 $124 $65 $-1 $125 forward single #
face $-1 $126 $127 $66 $-1 $128 forward single #
face $-1 $129 $130 $67 $-1 $131 forward single #
face $-1 $132 $133 $68 $-1 $134 reversed single #
face $-1 $135 $136 $69 $-1 $137 forward single #
face $-1 $138 $139 $70 $-1 $140 forward single #
face $-1 $141 $142 $71 $-1 $143 forward single #
face $-1 $144 $145 $54 $-1 $146 reversed single #
loop $-1 $-1 $147 $72 #
plane-surface $-1 0 0 13.798510929659791 0 0 1 1 0 0 forward_v I I I I #
face $-1 $148 $149 $55 $-1 $150 reversed single #
loop $-1 $-1 $151 $73 #
plane-surface $-1 0 -35.314005579199296 0 0 1 0 0 0 1 forward_v I I I I #
face $-1 $152 $153 $56 $-1 $154 reversed single #
loop $-1 $-1 $155 $74 #
plane-surface $-1 81.1653456102581 -9.9030526318214935 175.43892326881343 0 -1 0 -0.78801076186113728 0 -0.61566146476048833 forward_v I I I I #
face $-1 $156 $157 $57 $-1 $158 forward single #
loop $-1 $159 $160 $75 #
cone-surface $-1 56.914770756305977 -18.617123179413575 9.5859213162795385 -0.78801076186113728 0 -0.61566146476048833 0.15391536619012208 0 -0.19700269046528432 1 I I 0 1 0.25 forward I I I I #
face $-1 $161 $162 $58 $-1 $163 forward single #
loop $-1 $164 $165 $76 #
cone-surface $-1 56.914770756305977 -15.349346724066546 9.5859213162795385 -0.78801076186113728 0 -0.61566146476048833 0.15391536619012208 0 -0.19700269046528432 1 I I 0 1 0.25 forward I I I I #
face $-1 $166 $167 $59 $-1 $168 forward single #
loop $-1 $169 $170 $77 #
cone-surface $-1 56.914770756305977 -12.081570268719517 9.5859213162795385 -0.78801076186113728 0 -0.61566146476048833 0.15391536619012208 0 -0.19700269046528432 1 I I 0 1 0.25 forward I I I I #
face $-1 $171 $172 $60 $-1 $173 reversed single #
loop $-1 $-1 $174 $78 #
plane-surface $-1 81.1653456102581 18.151770565933951 175.43892326881343 0 -1 0 -0.78801076186113728 0 -0.61566146476048833 forward_v I I I I #
face $-1 $175 $176 $61 $-1 $177 forward single #
loop $-1 $178 $179 $79 #
cone-surface $-1 56.914770756305977 9.4377000183418716 9.5859213162795385 -0.78801076186113728 0 -0.61566146476048833 0.15391536619012208 0 -0.19700269046528432 1 I I 0 1 0.25 forward I I I I #
face $-1 $180 $181 $62 $-1 $182 forward single #
loop $-1 $183 $184 $80 #
cone-surface $-1 56.914770756305977 12.705476473688897 9.5859213162795385 -0.78801076186113728 0 -0.61566146476048833 0.15391536619012208 0 -0.19700269046528432 1 I I 0 1 0.25 forward I I I I #
face $-1 $185 $186 $63 $-1 $187 forward single #
loop $-1 $188 $189 $81 #
cone-surface $-1 56.914770756305977 15.97325292903593 9.5859213162795385 -0.78801076186113728 0 -0.61566146476048833 0.15391536619012208 0 -0.19700269046528432 1 I I 0 1 0.25 forward I I I I #
face $-1 $190 $191 $64 $-1 $192 reversed single #
loop $-1 $-1 $193 $82 #
plane-surface $-1 -155.4873918765195 -20.79564081631159 80.311039433921167 0 1 0 -0.78801076186113728 0 0.61566146476048833 forward_v I I I I #
face $-1 $194 $195 $65 $-1 $196 forward single #
loop $-1 $197 $198 $83 #
cone-surface $-1 -56.914770756305977 -18.617123179413575 9.5859213162795314 0.78801076186113728 0 -0.61566146476048833 0.15391536619012208 0 0.19700269046528432 1 I I 0 1 0.25 forward I I I I #
face $-1 $199 $200 $66 $-1 $201 forward single #
loop $-1 $202 $203 $84 #
cone-surface $-1 -56.914770756305977 -15.349346724066546 9.5859213162795314 0.78801076186113728 0 -0.61566146476048833 0.15391536619012208 0 0.19700269046528432 1 I I 0 1 0.25 forward I I I I #
face $-1 $204 $205 $67 $-1 $206 forward single #
loop $-1 $207 $208 $85 #
cone-surface $-1 -56.914770756305977 -12.081570268719517 9.5859213162795314 0.78801076186113728 0 -0.61566146476048833 0.15391536619012208 0 0.19700269046528432 1 I I 0 1 0.25 forward I I I I #
face $-1 $209 $210 $68 $-1 $211 reversed single #
loop $-1 $-1 $212 $86 #
plane-surface $-1 -155.4873918765195 7.2591823814438552 80.311039433921167 0 1 0 -0.78801076186113728 0 0.61566146476048833 forward_v I I I I #
face $-1 $213 $214 $69 $-1 $215 forward single #
loop $-1 $216 $217 $87 #
cone-surface $-1 -56.914770756305977 9.4377000183418716 9.5859213162795314 0.78801076186113728 0 -0.61566146476048833 0.15391536619012208 0 0.19700269046528432 1 I I 0 1 0.25 forward I I I I #
face $-1 $218 $219 $70 $-1 $220 forward single #
loop $-1 $221 $222 $88 #
cone-surface $-1 -56.914770756305977 12.705476473688897 9.5859213162795314 0.78801076186113728 0 -0.61566146476048833 0.15391536619012208 0 0.19700269046528432 1 I I 0 1 0.25 forward I I I I #
face $-1 $223 $224 $71 $-1 $225 forward single #
loop $-1 $226 $227 $89 #
cone-surface $-1 -56.914770756305977 15.97325292903593 9.5859213162795314 0.78801076186113728 0 -0.61566146476048833 0.15391536619012208 0 0.19700269046528432 1 I I 0 1 0.25 forward I I I I #
face $-1 $228 $229 $54 $-1 $230 reversed single #
loop $-1 $-1 $231 $90 #
plane-surface $-1 0 0 -13.798510929659791 0 0 1 1 0 0 forward_v I I I I #
coedge $-1 $232 $233 $234 $235 forward $91 $-1 #
face $-1 $236 $237 $55 $-1 $238 reversed single #
loop $-1 $-1 $239 $93 #
plane-surface $-1 0 0 -13.798510929659791 0 0 1 1 0 0 forward_v I I I I #
coedge $-1 $240 $241 $242 $243 forward $94 $-1 #
face $-1 $244 $245 $56 $-1 $246 reversed single #
loop $-1 $-1 $247 $96 #
plane-surface $-1 -13.962538224634159 -15.349346724066542 101.11687700255202 0.78801076186113728 0 0.61566146476048833 0.61566146476048833 0 -0.78801076186113728 forward_v I I I I #
coedge $-1 $248 $249 $250 $251 reversed $97 $-1 #
face $-1 $-1 $252 $57 $-1 $253 forward single #
loop $-1 $254 $255 $99 #
cone-surface $-1 56.422264030142763 -18.617123179413575 9.2011329008042324 -0.78801076186113728 0 -0.61566146476048833 0.076957683095061041 0 -0.09850134523264216 1 I I -0.70710678118654746 0.70710678118654746 0.125 forward I I I I #
loop $-1 $-1 $256 $75 #
coedge $-1 $160 $160 $257 $258 reversed $100 $-1 #
face $-1 $-1 $259 $58 $-1 $260 forward single #
loop $-1 $261 $262 $102 #
cone-surface $-1 56.422264030142763 -15.349346724066546 9.2011329008042324 -0.78801076186113728 0 -0.61566146476048833 0.076957683095061041 0 -0.09850134523264216 1 I I -0.70710678118654746 0.70710678118654746 0.125 forward I I I I #
loop $-1 $-1 $263 $76 #
coedge $-1 $165 $165 $264 $265 reversed $103 $-1 #
face $-1 $-1 $266 $59 $-1 $267 forward single #
loop $-1 $268 $269 $105 #
cone-surface $-1 56.422264030142763 -12.081570268719517 9.2011329008042324 -0.78801076186113728 0 -0.61566146476048833 0.076957683095061041 0 -0.09850134523264216 1 I I -0.70710678118654746 0.70710678118654746 0.125 forward I I I I #
loop $-1 $-1 $270 $77 #
coedge $-1 $170 $170 $271 $272 reversed $106 $-1 #
face $-1 $273 $274 $60 $-1 $275 reversed single #
loop $-1 $-1 $276 $108 #
plane-surface $-1 -13.962538224634159 12.705476473688904 101.11687700255202 0.78801076186113728 0 0.61566146476048833 0.61566146476048833 0 -0.78801076186113728 forward_v I I I I #
coedge $-1 $277 $278 $279 $280 reversed $109 $-1 #
face $-1 $-1 $281 $61 $-1 $282 forward single #
loop $-1 $283 $284 $111 #
cone-surface $-1 56.422264030142763 9.4377000183418716 9.2011329008042324 -0.78801076186113728 0 -0.61566146476048833 0.076957683095061041 0 -0.09850134523264216 1 I I -0.70710678118654746 0.70710678118654746 0.125 forward I I I I #
loop $-1 $-1 $285 $79 #
coedge $-1 $179 $179 $286 $287 reversed $112 $-1 #
face $-1 $-1 $288 $62 $-1 $289 forward single #
loop $-1 $290 $291 $114 #
cone-surface $-1 56.422264030142763 12.705476473688897 9.2011329008042324 -0.78801076186113728 0 -0.61566146476048833 0.076957683095061041 0 -0.09850134523264216 1 I I -0.70710678118654746 0.70710678118654746 0.125 forward I I I I #
loop $-1 $-1 $292 $80 #
coedge $-1 $184 $184 $293 $294 reversed $115 $-1 #
face $-1 $-1 $295 $63 $-1 $296 forward single #
loop $-1 $297 $298 $117 #
cone-surface $-1 56.422264030142763 15.97325292903593 9.2011329008042324 -0.78801076186113728 0 -0.61566146476048833 0.076957683095061041 0 -0.09850134523264216 1 I I -0.70710678118654746 0.70710678118654746 0.125 forward I I I I #
loop $-1 $-1 $299 $81 #
coedge $-1 $189 $189 $300 $301 reversed $118 $-1 #
face $-1 $302 $303 $64 $-1 $304 reversed single #
loop $-1 $-1 $305 $120 #
plane-surface $-1 -60.359508041627237 -15.349346724066542 5.988993167659757 -0.78801076186113728 0 0.61566146476048833 0.61566146476048833 0 0.78801076186113728 forward_v I I I I #
coedge $-1 $306 $307 $308 $309 reversed $121 $-1 #
face $-1 $-1 $310 $65 $-1 $311 forward single #
loop $-1 $312 $313 $123 #
cone-surface $-1 -56.422264030142763 -18.617123179413575 9.2011329008042253 0.78801076186113728 0 -0.61566146476048833 0.076957683095061041 0 0.09850134523264216 1 I I -0.70710678118654746 0.70710678118654746 0.125 forward I I I I #
loop $-1 $-1 $314 $83 #
coedge $-1 $198 $198 $315 $316 reversed $124 $-1 #
face $-1 $-1 $317 $66 $-1 $318 forward single #
loop $-1 $319 $320 $126 #
cone-surface $-1 -56.422264030142763 -15.349346724066546 9.2011329008042253 0.78801076186113728 0 -0.61566146476048833 0.076957683095061041 0 0.09850134523264216 1 I I -0.70710678118654746 0.70710678118654746 0.125 forward I I I I #
loop $-1 $-1 $321 $84 #
coedge $-1 $203 $203 $322 $323 reversed $127 $-1 #
face $-1 $-1 $324 $67 $-1 $325 forward single #
loop $-1 $326 $327 $129 #
cone-surface $-1 -56.422264030142763 -12.081570268719517 9.2011329008042253 0.78801076186113728 0 -0.61566146476048833 0.076957683095061041 0 0.09850134523264216 1 I I -0.70710678118654746 0.70710678118654746 0.125 forward I I I I #
loop $-1 $-1 $328 $85 #
coedge $-1 $208 $208 $329 $330 reversed $130 $-1 #
face $-1 $331 $332 $68 $-1 $333 reversed single #
loop $-1 $-1 $334 $132 #
plane-surface $-1 -60.359508041627237 12.705476473688904 5.988993167659757 -0.78801076186113728 0 0.61566146476048833 0.61566146476048833 0 0.78801076186113728 forward_v I I I I #
coedge $-1 $335 $336 $337 $338 reversed $133 $-1 #
face $-1 $-1 $339 $69 $-1 $340 forward single #
loop $-1 $341 $342 $135 #
cone-surface $-1 -56.422264030142763 9.4377000183418716 9.2011329008042253 0.78801076186113728 0 -0.61566146476048833 0.076957683095061041 0 0.09850134523264216 1 I I -0.70710678118654746 0.70710678118654746 0.125 forward I I I I #
loop $-1 $-1 $343 $87 #
coedge $-1 $217 $217 $344 $345 reversed $136 $-1 #
face $-1 $-1 $346 $70 $-1 $347 forward single #
loop $-1 $348 $349 $138 #
cone-surface $-1 -56.422264030142763 12.705476473688897 9.2011329008042253 0.78801076186113728 0 -0.61566146476048833 0.076957683095061041 0 0.09850134523264216 1 I I -0.70710678118654746 0.70710678118654746 0.125 forward I I I I #
loop $-1 $-1 $350 $88 #
coedge $-1 $222 $222 $351 $352 reversed $139 $-1 #
face $-1 $-1 $353 $71 $-1 $354 forward single #
loop $-1 $355 $356 $141 #
cone-surface $-1 -56.422264030142763 15.97325292903593 9.2011329008042253 0.78801076186113728 0 -0.61566146476048833 0.076957683095061041 0 0.09850134523264216 1 I I -0.70710678118654746 0.70710678118654746 0.125 forward I I I I #
loop $-1 $-1 $357 $89 #
coedge $-1 $227 $227 $358 $359 reversed $142 $-1 #
face $-1 $360 $361 $54 $-1 $362 reversed single #
loop $-1 $-1 $363 $144 #
plane-surface $-1 0 -35.314005579199296 0 0 1 0 0 0 1 forward_v I I I I #
coedge $-1 $364 $365 $366 $367 forward $145 $-1 #
coedge $-1 $368 $147 $369 $370 forward $91 $-1 #
coedge $-1 $147 $368 $371 $372 forward $91 $-1 #
coedge $-1 $373 $374 $147 $235 reversed $375 $-1 #
edge $-1 $376 -35.314005579199296 $377 35.314005579199296 $234 $378 forward 7 unknown #
face $-1 $379 $380 $55 $-1 $381 reversed single #
loop $-1 $-1 $382 $148 #
plane-surface $-1 -49.498540157468639 -49.832370342086996 0 0 1 0 0 0 1 forward_v I I I I #
coedge $-1 $383 $384 $241 $385 forward $149 $-1 #
coedge $-1 $386 $151 $387 $388 reversed $94 $-1 #
coedge $-1 $151 $386 $239 $385 reversed $94 $-1 #
coedge $-1 $389 $390 $151 $243 reversed $380 $-1 #
edge $-1 $391 -13.798510929659791 $392 13.798510929659791 $242 $393 forward 7 unknown #
face $-1 $394 $395 $56 $-1 $396 forward single #
loop $-1 $-1 $397 $152 #
plane-surface $-1 81.1653456102581 -20.79564081631159 175.43892326881343 0 1 0 0.78801076186113728 0 0.61566146476048833 forward_v I I I I #
coedge $-1 $398 $399 $400 $401 reversed $153 $-1 #
coedge $-1 $249 $155 $402 $403 reversed $97 $-1 #
coedge $-1 $155 $248 $398 $404 reversed $97 $-1 #
coedge $-1 $400 $405 $155 $251 forward $395 $-1 #
edge $-1 $406 -19.776835236498194 $407 -13.675371427716783 $250 $408 forward 7 unknown #
loop $-1 $-1 $257 $156 #
plane-surface $-1 -13.962538224634159 -15.349346724066542 101.11687700255202 0.78801076186113728 0 0.61566146476048833 0.61566146476048833 0 -0.78801076186113728 forward_v I I I I #
loop $-1 $-1 $409 $99 #
coedge $-1 $255 $255 $256 $410 reversed $157 $-1 #
coedge $-1 $256 $256 $255 $410 forward $159 $-1 #
coedge $-1 $257 $257 $160 $258 forward $252 $-1 #
edge $-1 $411 0 $411 6.2831853071796004 $257 $412 forward 7 unknown #
loop $-1 $-1 $264 $161 #
plane-surface $-1 -13.962538224634159 -15.349346724066542 101.11687700255202 0.78801076186113728 0 0.61566146476048833 0.61566146476048833 0 -0.78801076186113728 forward_v I I I I #
loop $-1 $-1 $413 $102 #
coedge $-1 $262 $262 $263 $414 reversed $162 $-1 #
coedge $-1 $263 $263 $262 $414 forward $164 $-1 #
coedge $-1 $264 $264 $165 $265 forward $259 $-1 #
edge $-1 $415 0 $415 6.2831853071796004 $264 $416 forward 7 unknown #
loop $-1 $-1 $271 $166 #
plane-surface $-1 -13.962538224634159 -15.349346724066542 101.11687700255202 0.78801076186113728 0 0.61566146476048833 0.61566146476048833 0 -0.78801076186113728 forward_v I I I I #
loop $-1 $-1 $417 $105 #
coedge $-1 $269 $269 $270 $418 reversed $167 $-1 #
coedge $-1 $270 $270 $269 $418 forward $169 $-1 #
coedge $-1 $271 $271 $170 $272 forward $266 $-1 #
edge $-1 $419 0 $419 6.2831853071796004 $271 $420 forward 7 unknown #
face $-1 $421 $422 $60 $-1 $423 reversed single #
loop $-1 $-1 $424 $171 #
plane-surface $-1 81.1653456102581 7.2591823814438552 175.43892326881343 0 1 0 0.78801076186113728 0 0.61566146476048833 forward_v I I I I #
coedge $-1 $425 $426 $427 $428 reversed $172 $-1 #
coedge $-1 $278 $174 $429 $430 reversed $109 $-1 #
coedge $-1 $174 $277 $425 $431 reversed $109 $-1 #
coedge $-1 $427 $432 $174 $280 forward $433 $-1 #
edge $-1 $434 -19.776835236498194 $435 -13.675371427716783 $279 $436 forward 7 unknown #
loop $-1 $-1 $286 $175 #
plane-surface $-1 -13.962538224634159 12.705476473688904 101.11687700255202 0.78801076186113728 0 0.61566146476048833 0.61566146476048833 0 -0.78801076186113728 forward_v I I I I #
loop $-1 $-1 $437 $111 #
coedge $-1 $284 $284 $285 $438 reversed $176 $-1 #
coedge $-1 $285 $285 $284 $438 forward $178 $-1 #
coedge $-1 $286 $286 $179 $287 forward $281 $-1 #
edge $-1 $439 0 $439 6.2831853071796004 $286 $440 forward 7 unknown #
loop $-1 $-1 $293 $180 #
plane-surface $-1 -13.962538224634159 12.705476473688904 101.11687700255202 0.78801076186113728 0 0.61566146476048833 0.61566146476048833 0 -0.78801076186113728 forward_v I I I I #
loop $-1 $-1 $441 $114 #
coedge $-1 $291 $291 $292 $442 reversed $181 $-1 #
coedge $-1 $292 $292 $291 $442 forward $183 $-1 #
coedge $-1 $293 $293 $184 $294 forward $288 $-1 #
edge $-1 $443 0 $443 6.2831853071796004 $293 $444 forward 7 unknown #
loop $-1 $-1 $300 $185 #
plane-surface $-1 -13.962538224634159 12.705476473688904 101.11687700255202 0.78801076186113728 0 0.61566146476048833 0.61566146476048833 0 -0.78801076186113728 forward_v I I I I #
loop $-1 $-1 $445 $117 #
coedge $-1 $298 $298 $299 $446 reversed $186 $-1 #
coedge $-1 $299 $299 $298 $446 forward $188 $-1 #
coedge $-1 $300 $300 $189 $301 forward $295 $-1 #
edge $-1 $447 0 $447 6.2831853071796004 $300 $448 forward 7 unknown #
face $-1 $449 $450 $64 $-1 $451 reversed single #
loop $-1 $-1 $452 $190 #
plane-surface $-1 -155.4873918765195 -9.9030526318214935 80.311039433921167 0 -1 0 0.78801076186113728 0 -0.61566146476048833 forward_v I I I I #
coedge $-1 $453 $454 $455 $456 reversed $191 $-1 #
coedge $-1 $307 $193 $457 $458 reversed $121 $-1 #
coedge $-1 $193 $306 $453 $459 reversed $121 $-1 #
coedge $-1 $455 $460 $193 $309 forward $461 $-1 #
edge $-1 $462 17.384187896632504 $463 23.485651705413915 $308 $464 forward 7 unknown #
loop $-1 $-1 $315 $194 #
plane-surface $-1 -60.359508041627237 -15.349346724066542 5.988993167659757 -0.78801076186113728 0 0.61566146476048833 0.61566146476048833 0 0.78801076186113728 forward_v I I I I #
loop $-1 $-1 $465 $123 #
coedge $-1 $313 $313 $314 $466 reversed $195 $-1 #
coedge $-1 $314 $314 $313 $466 forward $197 $-1 #
coedge $-1 $315 $315 $198 $316 forward $310 $-1 #
edge $-1 $467 0 $467 6.2831853071796004 $315 $468 forward 7 unknown #
loop $-1 $-1 $322 $199 #
plane-surface $-1 -60.359508041627237 -15.349346724066542 5.988993167659757 -0.78801076186113728 0 0.61566146476048833 0.61566146476048833 0 0.78801076186113728 forward_v I I I I #
loop $-1 $-1 $469 $126 #
coedge $-1 $320 $320 $321 $470 reversed $200 $-1 #
coedge $-1 $321 $321 $320 $470 forward $202 $-1 #
coedge $-1 $322 $322 $203 $323 forward $317 $-1 #
edge $-1 $471 0 $471 6.2831853071796004 $322 $472 forward 7 unknown #
loop $-1 $-1 $329 $204 #
plane-surface $-1 -60.359508041627237 -15.349346724066542 5.988993167659757 -0.78801076186113728 0 0.61566146476048833 0.61566146476048833 0 0.78801076186113728 forward_v I I I I #
loop $-1 $-1 $473 $129 #
coedge $-1 $327 $327 $328 $474 reversed $205 $-1 #
coedge $-1 $328 $328 $327 $474 forward $207 $-1 #
coedge $-1 $329 $329 $208 $330 forward $324 $-1 #
edge $-1 $475 0 $475 6.2831853071796004 $329 $476 forward 7 unknown #
face $-1 $477 $478 $68 $-1 $479 forward single #
loop $-1 $-1 $480 $209 #
plane-surface $-1 -155.4873918765195 18.151770565933951 80.311039433921167 0 -1 0 0.78801076186113728 0 -0.61566146476048833 forward_v I I I I #
coedge $-1 $481 $482 $483 $484 reversed $210 $-1 #
coedge $-1 $336 $212 $485 $486 reversed $133 $-1 #
coedge $-1 $212 $335 $481 $487 reversed $133 $-1 #
coedge $-1 $483 $488 $212 $338 forward $478 $-1 #
edge $-1 $489 17.384187896632504 $490 23.485651705413915 $337 $491 forward 7 unknown #
loop $-1 $-1 $344 $213 #
plane-surface $-1 -60.359508041627237 12.705476473688904 5.988993167659757 -0.78801076186113728 0 0.61566146476048833 0.61566146476048833 0 0.78801076186113728 forward_v I I I I #
loop $-1 $-1 $492 $135 #
coedge $-1 $342 $342 $343 $493 reversed $214 $-1 #
coedge $-1 $343 $343 $342 $493 forward $216 $-1 #
coedge $-1 $344 $344 $217 $345 forward $339 $-1 #
edge $-1 $494 0 $494 6.2831853071796004 $344 $495 forward 7 unknown #
loop $-1 $-1 $351 $218 #
plane-surface $-1 -60.359508041627237 12.705476473688904 5.988993167659757 -0.78801076186113728 0 0.61566146476048833 0.61566146476048833 0 0.78801076186113728 forward_v I I I I #
loop $-1 $-1 $496 $138 #
coedge $-1 $349 $349 $350 $497 reversed $219 $-1 #
coedge $-1 $350 $350 $349 $497 forward $221 $-1 #
coedge $-1 $351 $351 $222 $352 forward $346 $-1 #
edge $-1 $498 0 $498 6.2831853071796004 $351 $499 forward 7 unknown #
loop $-1 $-1 $358 $223 #
plane-surface $-1 -60.359508041627237 12.705476473688904 5.988993167659757 -0.78801076186113728 0 0.61566146476048833 0.61566146476048833 0 0.78801076186113728 forward_v I I I I #
loop $-1 $-1 $500 $141 #
coedge $-1 $356 $356 $357 $501 reversed $224 $-1 #
coedge $-1 $357 $357 $356 $501 forward $226 $-1 #
coedge $-1 $358 $358 $227 $359 forward $353 $-1 #
edge $-1 $502 0 $502 6.2831853071796004 $358 $503 forward 7 unknown #
face $-1 $504 $505 $54 $-1 $506 reversed single #
loop $-1 $-1 $507 $228 #
plane-surface $-1 -60.359508041627244 0 0 1 0 0 0 0 -1 forward_v I I I I #
coedge $-1 $508 $371 $509 $510 forward $229 $-1 #
coedge $-1 $511 $231 $508 $512 forward $145 $-1 #
coedge $-1 $231 $511 $513 $514 forward $145 $-1 #
coedge $-1 $374 $373 $231 $367 reversed $375 $-1 #
edge $-1 $515 -35.314005579199296 $516 35.314005579199296 $366 $517 forward 7 unknown #
coedge $-1 $233 $232 $518 $519 forward $91 $-1 #
coedge $-1 $520 $521 $232 $370 reversed $505 $-1 #
edge $-1 $377 -60.359508041627244 $522 60.359508041627244 $369 $523 forward 7 unknown #
coedge $-1 $363 $524 $233 $372 reversed $229 $-1 #
edge $-1 $525 -60.359508041627244 $376 60.359508041627244 $371 $526 forward 7 unknown #
coedge $-1 $366 $234 $524 $527 forward $375 $-1 #
coedge $-1 $234 $366 $520 $528 reversed $375 $-1 #
loop $-1 $-1 $373 $504 #
vertex $-1 $235 $529 #
vertex $-1 $235 $530 #
straight-curve $-1 60.359508041627244 0 13.798510929659791 0 1 0 I I #
face $-1 $531 $532 $55 $-1 $533 reversed single #
loop $-1 $-1 $242 $236 #
plane-surface $-1 -52.201434606213454 -42.573187960643146 0 1 0 0 0 0 -1 forward_v I I I I #
coedge $-1 $534 $535 $536 $537 forward $237 $-1 #
coedge $-1 $538 $239 $539 $540 forward $149 $-1 #
coedge $-1 $239 $538 $389 $541 forward $149 $-1 #
edge $-1 $391 -52.201434606213454 $542 -46.795645708723825 $239 $543 forward 7 unknown #
coedge $-1 $241 $240 $544 $545 forward $94 $-1 #
coedge $-1 $546 $547 $240 $388 forward $548 $-1 #
edge $-1 $549 46.795645708723825 $392 52.201434606213454 $387 $550 forward 7 unknown #
coedge $-1 $536 $242 $384 $541 reversed $380 $-1 #
coedge $-1 $242 $536 $546 $551 reversed $380 $-1 #
vertex $-1 $385 $552 #
vertex $-1 $551 $553 #
straight-curve $-1 -52.201434606213454 -35.314005579199296 0 0 0 1 I I #
face $-1 $-1 $554 $56 $-1 $555 reversed single #
loop $-1 $-1 $250 $244 #
plane-surface $-1 0 0 13.798510929659791 0 0 1 1 0 0 forward_v I I I I #
coedge $-1 $556 $557 $558 $559 reversed $245 $-1 #
coedge $-1 $560 $247 $249 $404 forward $153 $-1 #
coedge $-1 $247 $560 $556 $561 forward $153 $-1 #
coedge $-1 $558 $250 $247 $401 forward $395 $-1 #
edge $-1 $407 2.2283792697882223 $562 13.120967454278318 $400 $563 forward 7 unknown #
coedge $-1 $564 $565 $248 $403 forward $554 $-1 #
edge $-1 $566 -81.730468466746942 $406 -73.920950704746929 $402 $567 forward 7 unknown #
edge $-1 $407 110.80859589615528 $566 120.71901608325447 $249 $568 forward 7 unknown #
coedge $-1 $250 $558 $564 $569 forward $395 $-1 #
vertex $-1 $251 $570 #
vertex $-1 $251 $571 #
straight-curve $-1 40.58267280512905 -9.9030526318214935 13.798510929659798 -1 0 0 I I #
coedge $-1 $409 $409 $-1 $572 reversed $254 $-1 #
edge $-1 $573 0 $573 6.2831853071796004 $255 $574 forward 7 unknown #
vertex $-1 $258 $575 #
ellipse-curve $-1 57.308776137236542 -18.617123179413575 9.8937520486597776 0.78801076186113728 0 0.61566146476048833 0.15391536619012208 0 -0.19700269046528432 1 I I #
coedge $-1 $413 $413 $-1 $576 reversed $261 $-1 #
edge $-1 $577 0 $577 6.2831853071796004 $262 $578 forward 7 unknown #
vertex $-1 $265 $579 #
ellipse-curve $-1 57.308776137236542 -15.349346724066546 9.8937520486597776 0.78801076186113728 0 0.61566146476048833 0.15391536619012208 0 -0.19700269046528432 1 I I #
coedge $-1 $417 $417 $-1 $580 reversed $268 $-1 #
edge $-1 $581 0 $581 6.2831853071796004 $269 $582 forward 7 unknown #
vertex $-1 $272 $583 #
ellipse-curve $-1 57.308776137236542 -12.081570268719517 9.8937520486597776 0.78801076186113728 0 0.61566146476048833 0.15391536619012208 0 -0.19700269046528432 1 I I #
face $-1 $-1 $433 $60 $-1 $584 forward single #
loop $-1 $-1 $585 $273 #
plane-surface $-1 60.359508041627244 0 0 -1 0 0 0 0 1 forward_v I I I I #
coedge $-1 $586 $587 $588 $589 reversed $274 $-1 #
coedge $-1 $590 $276 $278 $431 forward $172 $-1 #
coedge $-1 $276 $590 $586 $591 forward $172 $-1 #
coedge $-1 $588 $279 $276 $428 forward $433 $-1 #
edge $-1 $435 -11.799032329089499 $592 -0.90644414459940315 $427 $593 forward 7 unknown #
coedge $-1 $594 $595 $277 $430 forward $422 $-1 #
edge $-1 $596 -81.730468466746942 $434 -73.920950704746929 $429 $597 forward 7 unknown #
edge $-1 $435 110.80859589615528 $596 120.71901608325447 $278 $598 forward 7 unknown #
coedge $-1 $279 $588 $594 $599 forward $433 $-1 #
loop $-1 $-1 $588 $421 #
vertex $-1 $430 $600 #
vertex $-1 $280 $601 #
straight-curve $-1 40.58267280512905 18.151770565933951 13.798510929659798 -1 0 0 I I #
coedge $-1 $437 $437 $-1 $602 reversed $283 $-1 #
edge $-1 $603 0 $603 6.2831853071796004 $284 $604 forward 7 unknown #
vertex $-1 $287 $605 #
ellipse-curve $-1 57.308776137236542 9.4377000183418716 9.8937520486597776 0.78801076186113728 0 0.61566146476048833 0.15391536619012208 0 -0.19700269046528432 1 I I #
coedge $-1 $441 $441 $-1 $606 reversed $290 $-1 #
edge $-1 $607 0 $607 6.2831853071796004 $291 $608 forward 7 unknown #
vertex $-1 $294 $609 #
ellipse-curve $-1 57.308776137236542 12.705476473688897 9.8937520486597776 0.78801076186113728 0 0.61566146476048833 0.15391536619012208 0 -0.19700269046528432 1 I I #
coedge $-1 $445 $445 $-1 $610 reversed $297 $-1 #
edge $-1 $611 0 $611 6.2831853071796004 $298 $612 forward 7 unknown #
vertex $-1 $301 $613 #
ellipse-curve $-1 57.308776137236542 15.97325292903593 9.8937520486597776 0.78801076186113728 0 0.61566146476048833 0.15391536619012208 0 -0.19700269046528432 1 I I #
face $-1 $-1 $461 $64 $-1 $614 forward single #
loop $-1 $-1 $615 $302 #
plane-surface $-1 -60.359508041627244 0 0 1 0 0 0 0 -1 forward_v I I I I #
coedge $-1 $616 $617 $618 $619 reversed $303 $-1 #
coedge $-1 $620 $305 $307 $459 forward $191 $-1 #
coedge $-1 $305 $620 $616 $621 forward $191 $-1 #
coedge $-1 $618 $308 $305 $456 forward $461 $-1 #
edge $-1 $463 -13.120967454278318 $622 -2.2283792697882223 $455 $623 forward 7 unknown #
coedge $-1 $624 $625 $306 $458 forward $450 $-1 #
edge $-1 $626 -34.166526549300833 $462 -26.357008787300792 $457 $627 forward 7 unknown #
edge $-1 $463 -9.9104201870991968 $626 1.1373479346495045e-014 $307 $628 forward 7 unknown #
coedge $-1 $308 $618 $624 $629 forward $461 $-1 #
loop $-1 $-1 $618 $449 #
vertex $-1 $458 $630 #
vertex $-1 $309 $631 #
straight-curve $-1 -77.743695938259748 -20.79564081631159 13.798510929659791 1 0 0 I I #
coedge $-1 $465 $465 $-1 $632 reversed $312 $-1 #
edge $-1 $633 0 $633 6.2831853071796004 $313 $634 forward 7 unknown #
vertex $-1 $316 $635 #
ellipse-curve $-1 -57.308776137236535 -18.617123179413575 9.8937520486597688 -0.78801076186113728 0 0.61566146476048833 0.15391536619012208 0 0.19700269046528432 1 I I #
coedge $-1 $469 $469 $-1 $636 reversed $319 $-1 #
edge $-1 $637 0 $637 6.2831853071796004 $320 $638 forward 7 unknown #
vertex $-1 $323 $639 #
ellipse-curve $-1 -57.308776137236535 -15.349346724066546 9.8937520486597688 -0.78801076186113728 0 0.61566146476048833 0.15391536619012208 0 0.19700269046528432 1 I I #
coedge $-1 $473 $473 $-1 $640 reversed $326 $-1 #
edge $-1 $641 0 $641 6.2831853071796004 $327 $642 forward 7 unknown #
vertex $-1 $330 $643 #
ellipse-curve $-1 -57.308776137236535 -12.081570268719517 9.8937520486597688 -0.78801076186113728 0 0.61566146476048833 0.15391536619012208 0 0.19700269046528432 1 I I #
face $-1 $-1 $644 $68 $-1 $645 reversed single #
loop $-1 $-1 $337 $331 #
plane-surface $-1 0 0 13.798510929659791 0 0 1 1 0 0 forward_v I I I I #
coedge $-1 $646 $647 $648 $649 reversed $332 $-1 #
coedge $-1 $650 $334 $336 $487 forward $210 $-1 #
coedge $-1 $334 $650 $646 $651 forward $210 $-1 #
coedge $-1 $648 $337 $334 $484 forward $478 $-1 #
edge $-1 $490 0.90644414459940315 $652 11.799032329089499 $483 $653 forward 7 unknown #
coedge $-1 $654 $655 $335 $486 forward $644 $-1 #
edge $-1 $656 -34.166526549300833 $489 -26.357008787300792 $485 $657 forward 7 unknown #
edge $-1 $490 -9.9104201870991968 $656 1.1373479346495045e-014 $336 $658 forward 7 unknown #
coedge $-1 $337 $648 $654 $659 forward $478 $-1 #
vertex $-1 $486 $660 #
vertex $-1 $338 $661 #
straight-curve $-1 -77.743695938259748 7.2591823814438552 13.798510929659791 1 0 0 I I #
coedge $-1 $492 $492 $-1 $662 reversed $341 $-1 #
edge $-1 $663 0 $663 6.2831853071796004 $342 $664 forward 7 unknown #
vertex $-1 $345 $665 #
ellipse-curve $-1 -57.308776137236535 9.4377000183418716 9.8937520486597688 -0.78801076186113728 0 0.61566146476048833 0.15391536619012208 0 0.19700269046528432 1 I I #
coedge $-1 $496 $496 $-1 $666 reversed $348 $-1 #
edge $-1 $667 0 $667 6.2831853071796004 $349 $668 forward 7 unknown #
vertex $-1 $352 $669 #
ellipse-curve $-1 -57.308776137236535 12.705476473688897 9.8937520486597688 -0.78801076186113728 0 0.61566146476048833 0.15391536619012208 0 0.19700269046528432 1 I I #
coedge $-1 $500 $500 $-1 $670 reversed $355 $-1 #
edge $-1 $671 0 $671 6.2831853071796004 $356 $672 forward 7 unknown #
vertex $-1 $359 $673 #
ellipse-curve $-1 -57.308776137236535 15.97325292903593 9.8937520486597688 -0.78801076186113728 0 0.61566146476048833 0.15391536619012208 0 0.19700269046528432 1 I I #
face $-1 $-1 $375 $54 $-1 $674 reversed single #
loop $-1 $-1 $520 $360 #
plane-surface $-1 0 35.314005579199296 0 0 -1 0 0 0 -1 forward_v I I I I #
coedge $-1 $675 $518 $521 $676 forward $361 $-1 #
coedge $-1 $524 $363 $364 $512 reversed $229 $-1 #
coedge $-1 $518 $675 $363 $510 reversed $361 $-1 #
edge $-1 $525 -13.798510929659791 $677 13.798510929659791 $509 $678 forward 7 unknown #
coedge $-1 $365 $364 $675 $679 forward $145 $-1 #
edge $-1 $516 -60.359508041627244 $677 60.359508041627244 $508 $680 forward 7 unknown #
coedge $-1 $521 $520 $365 $514 reversed $505 $-1 #
edge $-1 $681 -60.359508041627244 $515 60.359508041627244 $513 $682 forward 7 unknown #
vertex $-1 $367 $683 #
vertex $-1 $527 $684 #
straight-curve $-1 60.359508041627244 0 -13.798510929659791 0 -1 0 I I #
coedge $-1 $507 $509 $368 $519 reversed $361 $-1 #
edge $-1 $522 -35.314005579199296 $525 35.314005579199296 $518 $685 forward 7 unknown #
coedge $-1 $513 $369 $374 $528 forward $505 $-1 #
coedge $-1 $369 $513 $507 $676 reversed $505 $-1 #
vertex $-1 $370 $686 #
straight-curve $-1 0 35.314005579199296 13.798510929659791 -1 0 0 I I #
coedge $-1 $371 $508 $373 $527 reversed $229 $-1 #
vertex $-1 $519 $687 #
straight-curve $-1 0 -35.314005579199296 13.798510929659791 1 0 0 I I #
edge $-1 $376 -13.798510929659791 $516 13.798510929659791 $373 $688 forward 7 unknown #
edge $-1 $377 -13.798510929659791 $515 13.798510929659791 $374 $689 forward 7 unknown #
point $-1 60.359508041627244 -35.314005579199296 13.798510929659791 #
point $-1 60.359508041627244 35.314005579199296 13.798510929659791 #
face $-1 $-1 $548 $55 $-1 $690 forward single #
loop $-1 $-1 $691 $379 #
plane-surface $-1 -46.795645708723825 -42.573187960643146 0 -1 0 0 0 0 1 forward_v I I I I #
coedge $-1 $692 $382 $538 $693 reversed $237 $-1 #
coedge $-1 $382 $692 $694 $695 reversed $237 $-1 #
coedge $-1 $390 $389 $382 $537 reversed $380 $-1 #
edge $-1 $696 -13.798510929659791 $697 13.798510929659791 $536 $698 forward 7 unknown #
coedge $-1 $384 $383 $534 $693 forward $149 $-1 #
coedge $-1 $544 $691 $383 $540 reversed $532 $-1 #
edge $-1 $542 -7.2591823814438499 $699 7.2591823814438499 $539 $700 forward 7 unknown #
edge $-1 $697 -7.2591823814438499 $391 7.2591823814438499 $389 $701 forward 7 unknown #
vertex $-1 $540 $702 #
straight-curve $-1 0 -35.314005579199296 -13.798510929659791 1 0 0 I I #
coedge $-1 $703 $539 $386 $545 reversed $532 $-1 #
edge $-1 $549 -13.798510929659791 $542 13.798510929659791 $544 $704 forward 7 unknown #
coedge $-1 $694 $387 $390 $551 forward $548 $-1 #
coedge $-1 $387 $694 $703 $705 forward $548 $-1 #
loop $-1 $-1 $387 $531 #
vertex $-1 $388 $706 #
straight-curve $-1 0 -35.314005579199296 13.798510929659791 -1 0 0 I I #
edge $-1 $392 -7.2591823814438499 $696 7.2591823814438499 $390 $707 forward 7 unknown #
point $-1 -52.201434606213454 -35.314005579199296 -13.798510929659791 #
point $-1 -52.201434606213454 -35.314005579199296 13.798510929659791 #
loop $-1 $-1 $402 $394 #
plane-surface $-1 60.359508041627244 0 0 -1 0 0 0 0 1 forward_v I I I I #
coedge $-1 $557 $397 $399 $561 reversed $245 $-1 #
coedge $-1 $397 $556 $708 $709 reversed $245 $-1 #
coedge $-1 $405 $400 $397 $559 forward $395 $-1 #
edge $-1 $562 13.675371427716783 $710 19.776835236498194 $558 $711 forward 7 unknown #
coedge $-1 $399 $398 $565 $712 reversed $153 $-1 #
edge $-1 $713 -120.71901608325447 $562 -110.80859589615528 $556 $714 forward 7 unknown #
vertex $-1 $401 $715 #
straight-curve $-1 54.258044232845847 -7.6746733620332712 13.798510929659791 0 -1 0 I I #
coedge $-1 $708 $402 $405 $569 reversed $554 $-1 #
coedge $-1 $402 $708 $560 $712 forward $554 $-1 #
vertex $-1 $403 $716 #
straight-curve $-1 60.359508041627244 -9.9030526318214935 87.719461634406713 0 0 1 I I #
straight-curve $-1 -13.962538224634159 -9.9030526318214935 101.11687700255202 0.61566146476048833 0 -0.78801076186113728 I I #
edge $-1 $710 -20.79564081631159 $406 -9.9030526318214935 $564 $717 forward 7 unknown #
point $-1 60.359508041627244 -9.9030526318214935 13.798510929659791 #
point $-1 54.258044232845833 -9.9030526318214935 13.798510929659798 #
edge $-1 $718 1 $718 0 $409 $-1 forward 7 unknown #
vertex $-1 $410 $719 #
ellipse-curve $-1 56.520765375375404 -18.617123179413575 9.278090583899294 0.78801076186113728 0 0.61566146476048833 0.15391536619012208 0 -0.19700269046528432 1 I I #
point $-1 57.462691503426662 -18.617123179413575 9.6967493581944968 #
edge $-1 $720 1 $720 0 $413 $-1 forward 7 unknown #
vertex $-1 $414 $721 #
ellipse-curve $-1 56.520765375375404 -15.349346724066546 9.278090583899294 0.78801076186113728 0 0.61566146476048833 0.15391536619012208 0 -0.19700269046528432 1 I I #
point $-1 57.462691503426662 -15.349346724066546 9.6967493581944968 #
edge $-1 $722 1 $722 0 $417 $-1 forward 7 unknown #
vertex $-1 $418 $723 #
ellipse-curve $-1 56.520765375375404 -12.081570268719517 9.278090583899294 0.78801076186113728 0 0.61566146476048833 0.15391536619012208 0 -0.19700269046528432 1 I I #
point $-1 57.462691503426662 -12.081570268719517 9.6967493581944968 #
plane-surface $-1 0 0 13.798510929659791 0 0 1 1 0 0 forward_v I I I I #
coedge $-1 $595 $594 $587 $724 forward $422 $-1 #
coedge $-1 $587 $424 $426 $591 reversed $274 $-1 #
coedge $-1 $424 $586 $585 $724 reversed $274 $-1 #
coedge $-1 $432 $427 $424 $589 forward $433 $-1 #
edge $-1 $592 13.675371427716783 $725 19.776835236498194 $588 $726 forward 7 unknown #
coedge $-1 $426 $425 $595 $727 reversed $172 $-1 #
edge $-1 $728 -120.71901608325447 $592 -110.80859589615528 $586 $729 forward 7 unknown #
vertex $-1 $428 $730 #
straight-curve $-1 54.258044232845847 6.352738236844452 13.798510929659791 0 -1 0 I I #
coedge $-1 $585 $429 $432 $599 reversed $422 $-1 #
coedge $-1 $429 $585 $590 $727 forward $422 $-1 #
vertex $-1 $430 $731 #
straight-curve $-1 60.359508041627244 18.151770565933951 87.719461634406713 0 0 1 I I #
straight-curve $-1 -13.962538224634159 18.151770565933951 101.11687700255202 0.61566146476048833 0 -0.78801076186113728 I I #
edge $-1 $725 7.2591823814438552 $434 18.151770565933951 $594 $732 forward 7 unknown #
point $-1 60.359508041627244 18.151770565933951 13.798510929659791 #
point $-1 54.258044232845833 18.151770565933951 13.798510929659798 #
edge $-1 $733 1 $733 0 $437 $-1 forward 7 unknown #
vertex $-1 $438 $734 #
ellipse-curve $-1 56.520765375375404 9.4377000183418716 9.278090583899294 0.78801076186113728 0 0.61566146476048833 0.15391536619012208 0 -0.19700269046528432 1 I I #
point $-1 57.462691503426662 9.4377000183418716 9.6967493581944968 #
edge $-1 $735 1 $735 0 $441 $-1 forward 7 unknown #
vertex $-1 $442 $736 #
ellipse-curve $-1 56.520765375375404 12.705476473688897 9.278090583899294 0.78801076186113728 0 0.61566146476048833 0.15391536619012208 0 -0.19700269046528432 1 I I #
point $-1 57.462691503426662 12.705476473688897 9.6967493581944968 #
edge $-1 $737 1 $737 0 $445 $-1 forward 7 unknown #
vertex $-1 $446 $738 #
ellipse-curve $-1 56.520765375375404 15.97325292903593 9.278090583899294 0.78801076186113728 0 0.61566146476048833 0.15391536619012208 0 -0.19700269046528432 1 I I #
point $-1 57.462691503426662 15.97325292903593 9.6967493581944968 #
plane-surface $-1 0 0 13.798510929659791 0 0 1 1 0 0 forward_v I I I I #
coedge $-1 $625 $624 $617 $739 forward $450 $-1 #
coedge $-1 $617 $452 $454 $621 reversed $303 $-1 #
coedge $-1 $452 $616 $615 $739 reversed $303 $-1 #
coedge $-1 $460 $455 $452 $619 forward $461 $-1 #
edge $-1 $622 -23.485651705413915 $740 -17.384187896632504 $618 $741 forward 7 unknown #
coedge $-1 $454 $453 $625 $742 reversed $191 $-1 #
edge $-1 $743 -1.1373479346495045e-014 $622 9.9104201870991968 $616 $744 forward 7 unknown #
vertex $-1 $456 $745 #
straight-curve $-1 -54.258044232845826 -7.6746733620332712 13.798510929659791 0 1 0 I I #
coedge $-1 $615 $457 $460 $629 reversed $450 $-1 #
coedge $-1 $457 $615 $620 $742 forward $450 $-1 #
vertex $-1 $458 $746 #
straight-curve $-1 -60.359508041627244 -20.79564081631159 40.155519716960583 0 0 1 I I #
straight-curve $-1 -60.359508041627237 -20.79564081631159 5.988993167659757 -0.61566146476048833 0 -0.78801076186113728 I I #
edge $-1 $740 9.9030526318214935 $462 20.79564081631159 $624 $747 forward 7 unknown #
point $-1 -60.359508041627244 -20.79564081631159 13.798510929659791 #
point $-1 -54.258044232845833 -20.79564081631159 13.798510929659791 #
edge $-1 $748 1 $748 0 $465 $-1 forward 7 unknown #
vertex $-1 $466 $749 #
ellipse-curve $-1 -56.520765375375404 -18.617123179413575 9.2780905838992869 -0.78801076186113728 0 0.61566146476048833 0.15391536619012208 0 0.19700269046528432 1 I I #
point $-1 -57.154860771046422 -18.617123179413575 10.090754739125058 #
edge $-1 $750 1 $750 0 $469 $-1 forward 7 unknown #
vertex $-1 $470 $751 #
ellipse-curve $-1 -56.520765375375404 -15.349346724066546 9.2780905838992869 -0.78801076186113728 0 0.61566146476048833 0.15391536619012208 0 0.19700269046528432 1 I I #
point $-1 -57.154860771046422 -15.349346724066546 10.090754739125058 #
edge $-1 $752 1 $752 0 $473 $-1 forward 7 unknown #
vertex $-1 $474 $753 #
ellipse-curve $-1 -56.520765375375404 -12.081570268719517 9.2780905838992869 -0.78801076186113728 0 0.61566146476048833 0.15391536619012208 0 0.19700269046528432 1 I I #
point $-1 -57.154860771046422 -12.081570268719517 10.090754739125058 #
loop $-1 $-1 $485 $477 #
plane-surface $-1 -60.359508041627244 0 0 1 0 0 0 0 -1 forward_v I I I I #
coedge $-1 $647 $480 $482 $651 reversed $332 $-1 #
coedge $-1 $480 $646 $754 $755 reversed $332 $-1 #
coedge $-1 $488 $483 $480 $649 forward $478 $-1 #
edge $-1 $652 -23.485651705413915 $756 -17.384187896632504 $648 $757 forward 7 unknown #
coedge $-1 $482 $481 $655 $758 reversed $210 $-1 #
edge $-1 $759 -1.1373479346495045e-014 $652 9.9104201870991968 $646 $760 forward 7 unknown #
vertex $-1 $484 $761 #
straight-curve $-1 -54.258044232845826 6.352738236844452 13.798510929659791 0 1 0 I I #
coedge $-1 $754 $485 $488 $659 reversed $644 $-1 #
coedge $-1 $485 $754 $650 $758 forward $644 $-1 #
vertex $-1 $486 $762 #
straight-curve $-1 -60.359508041627244 7.2591823814438552 40.155519716960583 0 0 1 I I #
straight-curve $-1 -60.359508041627237 7.2591823814438552 5.988993167659757 -0.61566146476048833 0 -0.78801076186113728 I I #
edge $-1 $756 -18.151770565933951 $489 -7.2591823814438552 $654 $763 forward 7 unknown #
point $-1 -60.359508041627244 7.2591823814438552 13.798510929659791 #
point $-1 -54.258044232845833 7.2591823814438552 13.798510929659791 #
edge $-1 $764 1 $764 0 $492 $-1 forward 7 unknown #
vertex $-1 $493 $765 #
ellipse-curve $-1 -56.520765375375404 9.4377000183418716 9.2780905838992869 -0.78801076186113728 0 0.61566146476048833 0.15391536619012208 0 0.19700269046528432 1 I I #
point $-1 -57.154860771046422 9.4377000183418716 10.090754739125058 #
edge $-1 $766 1 $766 0 $496 $-1 forward 7 unknown #
vertex $-1 $497 $767 #
ellipse-curve $-1 -56.520765375375404 12.705476473688897 9.2780905838992869 -0.78801076186113728 0 0.61566146476048833 0.15391536619012208 0 0.19700269046528432 1 I I #
point $-1 -57.154860771046422 12.705476473688897 10.090754739125058 #
edge $-1 $768 1 $768 0 $500 $-1 forward 7 unknown #
vertex $-1 $501 $769 #
ellipse-curve $-1 -56.520765375375404 15.97325292903593 9.2780905838992869 -0.78801076186113728 0 0.61566146476048833 0.15391536619012208 0 0.19700269046528432 1 I I #
point $-1 -57.154860771046422 15.97325292903593 10.090754739125058 #
plane-surface $-1 60.359508041627244 0 0 -1 0 0 0 0 1 forward_v I I I I #
coedge $-1 $509 $507 $511 $679 reversed $361 $-1 #
edge $-1 $522 -13.798510929659791 $681 13.798510929659791 $521 $770 forward 7 unknown #
vertex $-1 $679 $771 #
straight-curve $-1 -60.359508041627244 -35.314005579199296 0 0 0 -1 I I #
edge $-1 $677 -35.314005579199296 $681 35.314005579199296 $675 $772 forward 7 unknown #
straight-curve $-1 0 -35.314005579199296 -13.798510929659791 -1 0 0 I I #
vertex $-1 $514 $773 #
straight-curve $-1 0 35.314005579199296 -13.798510929659791 1 0 0 I I #
point $-1 60.359508041627244 35.314005579199296 -13.798510929659791 #
point $-1 60.359508041627244 -35.314005579199296 -13.798510929659791 #
straight-curve $-1 -60.359508041627244 0 13.798510929659791 0 -1 0 I I #
point $-1 -60.359508041627244 35.314005579199296 13.798510929659791 #
point $-1 -60.359508041627244 -35.314005579199296 13.798510929659791 #
straight-curve $-1 60.359508041627244 -35.314005579199296 0 0 0 -1 I I #
straight-curve $-1 60.359508041627244 35.314005579199296 0 0 0 -1 I I #
plane-surface $-1 0 0 13.798510929659791 0 0 1 1 0 0 forward_v I I I I #
coedge $-1 $539 $703 $692 $774 forward $532 $-1 #
coedge $-1 $535 $534 $691 $774 reversed $237 $-1 #
edge $-1 $699 -2.7028944487448143 $697 2.7028944487448143 $534 $775 forward 7 unknown #
coedge $-1 $547 $546 $535 $695 forward $548 $-1 #
edge $-1 $696 -2.7028944487448143 $776 2.7028944487448143 $535 $777 forward 7 unknown #
vertex $-1 $551 $778 #
vertex $-1 $541 $779 #
straight-curve $-1 -52.201434606213454 -49.832370342086996 0 0 0 -1 I I #
vertex $-1 $774 $780 #
straight-curve $-1 -46.795645708723825 -42.573187960643146 -13.798510929659791 0 -1 0 I I #
straight-curve $-1 -52.201434606213454 -42.573187960643146 -13.798510929659791 0 1 0 I I #
point $-1 -46.795645708723825 -35.314005579199296 -13.798510929659791 #
coedge $-1 $691 $544 $547 $705 reversed $532 $-1 #
straight-curve $-1 -46.795645708723825 -35.314005579199296 0 0 0 -1 I I #
edge $-1 $776 -7.2591823814438499 $549 7.2591823814438499 $703 $781 forward 7 unknown #
point $-1 -46.795645708723825 -35.314005579199296 13.798510929659791 #
straight-curve $-1 -52.201434606213454 -42.573187960643146 13.798510929659791 0 -1 0 I I #
coedge $-1 $565 $564 $557 $709 forward $554 $-1 #
edge $-1 $710 73.920950704746929 $713 81.730468466746942 $708 $782 forward 7 unknown #
vertex $-1 $569 $783 #
straight-curve $-1 40.58267280512905 -20.79564081631159 13.798510929659798 1 0 0 I I #
edge $-1 $713 -13.120967454278318 $566 -2.2283792697882223 $565 $784 forward 7 unknown #
vertex $-1 $712 $785 #
straight-curve $-1 -13.962538224634159 -20.79564081631159 101.11687700255202 -0.61566146476048833 0 0.78801076186113728 I I #
point $-1 54.258044232845833 -20.79564081631159 13.798510929659798 #
point $-1 60.359508041627237 -9.9030526318214935 5.9889931676597712 #
straight-curve $-1 60.359508041627244 0 13.798510929659791 0 1 0 I I #
vertex $-1 $572 $786 #
point $-1 56.674680741565524 -18.617123179413575 9.0810878934340096 #
vertex $-1 $576 $787 #
point $-1 56.674680741565524 -15.349346724066546 9.0810878934340096 #
vertex $-1 $580 $788 #
point $-1 56.674680741565524 -12.081570268719517 9.0810878934340096 #
edge $-1 $725 73.920950704746929 $728 81.730468466746942 $585 $789 forward 7 unknown #
vertex $-1 $599 $790 #
straight-curve $-1 40.58267280512905 7.2591823814438552 13.798510929659798 1 0 0 I I #
edge $-1 $728 0.90644414459940315 $596 11.799032329089499 $595 $791 forward 7 unknown #
vertex $-1 $727 $792 #
straight-curve $-1 -13.962538224634159 7.2591823814438552 101.11687700255202 -0.61566146476048833 0 0.78801076186113728 I I #
point $-1 54.258044232845833 7.2591823814438552 13.798510929659798 #
point $-1 60.359508041627237 18.151770565933951 5.9889931676597712 #
straight-curve $-1 60.359508041627244 0 13.798510929659791 0 1 0 I I #
vertex $-1 $602 $793 #
point $-1 56.674680741565524 9.4377000183418716 9.0810878934340096 #
vertex $-1 $606 $794 #
point $-1 56.674680741565524 12.705476473688897 9.0810878934340096 #
vertex $-1 $610 $795 #
point $-1 56.674680741565524 15.97325292903593 9.0810878934340096 #
edge $-1 $740 26.357008787300792 $743 34.166526549300833 $615 $796 forward 7 unknown #
vertex $-1 $629 $797 #
straight-curve $-1 -77.743695938259748 -9.9030526318214935 13.798510929659791 -1 0 0 I I #
edge $-1 $743 2.2283792697882223 $626 13.120967454278318 $625 $798 forward 7 unknown #
vertex $-1 $742 $799 #
straight-curve $-1 -60.359508041627237 -9.9030526318214935 5.988993167659757 0.61566146476048833 0 0.78801076186113728 I I #
point $-1 -54.258044232845833 -9.9030526318214935 13.798510929659791 #
point $-1 -60.359508041627244 -20.79564081631159 5.9889931676597481 #
straight-curve $-1 -60.359508041627244 0 13.798510929659791 0 -1 0 I I #
vertex $-1 $632 $800 #
point $-1 -56.366850009185285 -18.617123179413575 9.4750932743645713 #
vertex $-1 $636 $801 #
point $-1 -56.366850009185285 -15.349346724066546 9.4750932743645713 #
vertex $-1 $640 $802 #
point $-1 -56.366850009185285 -12.081570268719517 9.4750932743645713 #
coedge $-1 $655 $654 $647 $755 forward $644 $-1 #
edge $-1 $756 26.357008787300792 $759 34.166526549300833 $754 $803 forward 7 unknown #
vertex $-1 $659 $804 #
straight-curve $-1 -77.743695938259748 18.151770565933951 13.798510929659791 -1 0 0 I I #
edge $-1 $759 -11.799032329089499 $656 -0.90644414459940315 $655 $805 forward 7 unknown #
vertex $-1 $758 $806 #
straight-curve $-1 -60.359508041627237 18.151770565933951 5.988993167659757 0.61566146476048833 0 0.78801076186113728 I I #
point $-1 -54.258044232845833 18.151770565933951 13.798510929659791 #
point $-1 -60.359508041627244 7.2591823814438552 5.9889931676597481 #
straight-curve $-1 -60.359508041627244 0 13.798510929659791 0 -1 0 I I #
vertex $-1 $662 $807 #
point $-1 -56.366850009185285 9.4377000183418716 9.4750932743645713 #
vertex $-1 $666 $808 #
point $-1 -56.366850009185285 12.705476473688897 9.4750932743645713 #
vertex $-1 $670 $809 #
point $-1 -56.366850009185285 15.97325292903593 9.4750932743645713 #
straight-curve $-1 -60.359508041627244 35.314005579199296 0 0 0 -1 I I #
point $-1 -60.359508041627244 -35.314005579199296 -13.798510929659791 #
straight-curve $-1 -60.359508041627244 0 -13.798510929659791 0 1 0 I I #
point $-1 -60.359508041627244 35.314005579199296 -13.798510929659791 #
edge $-1 $776 -13.798510929659791 $699 13.798510929659791 $691 $810 forward 7 unknown #
straight-curve $-1 -49.498540157468639 -49.832370342086996 -13.798510929659791 -1 0 0 I I #
vertex $-1 $705 $811 #
straight-curve $-1 -49.498540157468639 -49.832370342086996 13.798510929659791 1 0 0 I I #
point $-1 -52.201434606213454 -49.832370342086996 13.798510929659791 #
point $-1 -52.201434606213454 -49.832370342086996 -13.798510929659791 #
point $-1 -46.795645708723825 -49.832370342086996 -13.798510929659791 #
straight-curve $-1 -46.795645708723825 -42.573187960643146 13.798510929659791 0 1 0 I I #
straight-curve $-1 60.359508041627244 -20.79564081631159 87.719461634406713 0 0 -1 I I #
point $-1 60.359508041627244 -20.79564081631159 13.798510929659791 #
straight-curve $-1 60.359508041627237 -7.6746733620332712 5.9889931676597783 0 1 0 I I #
point $-1 60.359508041627237 -20.79564081631159 5.9889931676597712 #
point $-1 56.323762684910122 -18.617123179413575 9.1241752177091708 #
point $-1 56.323762684910122 -15.349346724066546 9.1241752177091708 #
point $-1 56.323762684910122 -12.081570268719517 9.1241752177091708 #
straight-curve $-1 60.359508041627244 7.2591823814438552 87.719461634406713 0 0 -1 I I #
point $-1 60.359508041627244 7.2591823814438552 13.798510929659791 #
straight-curve $-1 60.359508041627237 6.352738236844452 5.9889931676597783 0 1 0 I I #
point $-1 60.359508041627237 7.2591823814438552 5.9889931676597712 #
point $-1 56.323762684910122 9.4377000183418716 9.1241752177091708 #
point $-1 56.323762684910122 12.705476473688897 9.1241752177091708 #
point $-1 56.323762684910122 15.97325292903593 9.1241752177091708 #
straight-curve $-1 -60.359508041627244 -9.9030526318214935 40.155519716960583 0 0 -1 I I #
point $-1 -60.359508041627244 -9.9030526318214935 13.798510929659791 #
straight-curve $-1 -60.359508041627244 -7.6746733620332712 5.9889931676597445 0 -1 0 I I #
point $-1 -60.359508041627244 -9.9030526318214935 5.9889931676597481 #
point $-1 -56.323762684910122 -18.617123179413575 9.1241752177091637 #
point $-1 -56.323762684910122 -15.349346724066546 9.1241752177091637 #
point $-1 -56.323762684910122 -12.081570268719517 9.1241752177091637 #
straight-curve $-1 -60.359508041627244 18.151770565933951 40.155519716960583 0 0 -1 I I #
point $-1 -60.359508041627244 18.151770565933951 13.798510929659791 #
straight-curve $-1 -60.359508041627244 6.352738236844452 5.9889931676597445 0 -1 0 I I #
point $-1 -60.359508041627244 18.151770565933951 5.9889931676597481 #
point $-1 -56.323762684910122 9.4377000183418716 9.1241752177091637 #
point $-1 -56.323762684910122 12.705476473688897 9.1241752177091637 #
point $-1 -56.323762684910122 15.97325292903593 9.1241752177091637 #
straight-curve $-1 -46.795645708723825 -49.832370342086996 0 0 0 -1 I I #
point $-1 -46.795645708723825 -49.832370342086996 13.798510929659791 #
End-of-ACIS-data 