500 0 5 0           
7 Unknown 11 ACIS 5.0 NT 24 Fri Mar 26 16:28:29 1999 
-1 9.9999999999999995e-007 1e-010 
body $-1 $5 $-1 $6 #
body $-1 $7 $-1 $8 #
body $-1 $9 $-1 $10 #
body $-1 $11 $-1 $12 #
body $-1 $13 $-1 $14 #
lump $-1 $-1 $15 $0 #
transform $-1 1 0 0 0 1 0 0 0 1 58.208563493758966 33.36276035057341 11.929424279655089 1 rotate no_reflect no_shear #
lump $-1 $-1 $16 $1 #
transform $-1 1 0 0 0 1 0 0 0 1 58.208563493758966 33.36276035057341 11.929424279655089 1 rotate no_reflect no_shear #
lump $-1 $-1 $17 $2 #
transform $-1 1 0 0 0 1 0 0 0 1 58.208563493758966 33.36276035057341 11.929424279655089 1 rotate no_reflect no_shear #
lump $-1 $-1 $18 $3 #
transform $-1 1 0 0 0 1 0 0 0 1 58.208563493758966 33.36276035057341 11.929424279655089 1 rotate no_reflect no_shear #
lump $-1 $-1 $19 $4 #
transform $-1 1 0 0 0 1 0 0 0 1 58.208563493758966 33.36276035057341 11.929424279655089 1 rotate no_reflect no_shear #
shell $-1 $-1 $-1 $20 $-1 $5 #
shell $-1 $-1 $-1 $21 $-1 $7 #
shell $-1 $-1 $-1 $22 $-1 $9 #
shell $-1 $-1 $-1 $23 $-1 $11 #
shell $-1 $-1 $-1 $24 $-1 $13 #
face $-1 $25 $26 $15 $-1 $27 forward single #
face $-1 $28 $29 $16 $-1 $30 forward single #
face $-1 $31 $32 $17 $-1 $33 reversed single #
face $-1 $34 $35 $18 $-1 $36 forward single #
face $-1 $37 $38 $19 $-1 $39 forward single #
face $-1 $40 $41 $15 $-1 $42 reversed single #
loop $-1 $-1 $43 $20 #
plane-surface $-1 0 0 11.929424279655089 0 0 1 1 0 0 forward_v I I I I #
face $-1 $44 $45 $16 $-1 $46 reversed single #
loop $-1 $-1 $47 $21 #
plane-surface $-1 -52.418294654923173 0 -7.0429730696976716 0 0 1 1 0 0 forward_v I I I I #
face $-1 $48 $49 $17 $-1 $50 reversed single #
loop $-1 $-1 $51 $22 #
plane-surface $-1 43.859358755495244 -7.5758058980277365 166.97957114610287 0 -1 0 -0.64278761758704617 0 -0.76604443648966558 forward_v I I I I #
face $-1 $52 $53 $18 $-1 $54 forward single #
loop $-1 $55 $56 $23 #
cone-surface $-1 51.817133078498898 -20.836168228421226 6.1956805648741469 -0.64278761758704617 0 -0.76604443648966558 1.1490666547344983 0 -0.96418142638056925 1 I I 0 1 1.5 forward I I I I #
face $-1 $57 $58 $19 $-1 $59 forward single #
loop $-1 $60 $61 $24 #
cone-surface $-1 51.817133078498898 -12.87995083018513 6.1956805648741469 -0.64278761758704617 0 -0.76604443648966558 1.1490666547344983 0 -0.96418142638056925 1 I I 0 1 1.5 forward I I I I #
face $-1 $62 $63 $15 $-1 $64 reversed single #
loop $-1 $-1 $65 $25 #
plane-surface $-1 0 0 -11.929424279655089 0 0 1 1 0 0 forward_v I I I I #
coedge $-1 $66 $67 $68 $69 forward $26 $-1 #
face $-1 $70 $71 $16 $-1 $72 reversed single #
loop $-1 $-1 $73 $28 #
plane-surface $-1 -46.62802581608738 0 -9.4861986746763804 -1 0 0 0 0 1 forward_v I I I I #
coedge $-1 $74 $75 $76 $77 forward $29 $-1 #
face $-1 $78 $79 $17 $-1 $80 reversed single #
loop $-1 $-1 $81 $31 #
plane-surface $-1 -30.972128947140028 -16.85805952930318 77.798878705203862 0.64278761758704617 0 0.76604443648966558 0.76604443648966558 0 -0.64278761758704617 forward_v I I I I #
coedge $-1 $82 $83 $84 $85 reversed $32 $-1 #
face $-1 $-1 $86 $18 $-1 $87 forward single #
loop $-1 $88 $89 $34 #
cone-surface $-1 50.283879515655208 -20.836168228421226 4.3684201612692046 -0.64278761758704617 0 -0.76604443648966558 0.57453332736724916 0 -0.48209071319028463 1 I I -0.70710678118654757 0.70710678118654757 0.75 forward I I I I #
loop $-1 $-1 $90 $23 #
coedge $-1 $56 $56 $91 $92 reversed $35 $-1 #
face $-1 $-1 $93 $19 $-1 $94 forward single #
loop $-1 $95 $96 $37 #
cone-surface $-1 50.283879515655208 -12.87995083018513 4.3684201612692046 -0.64278761758704617 0 -0.76604443648966558 0.57453332736724916 0 -0.48209071319028463 1 I I -0.70710678118654757 0.70710678118654757 0.75 forward I I I I #
loop $-1 $-1 $97 $24 #
coedge $-1 $61 $61 $98 $99 reversed $38 $-1 #
face $-1 $100 $101 $15 $-1 $102 reversed single #
loop $-1 $-1 $103 $40 #
plane-surface $-1 0 -33.36276035057341 0 0 1 0 0 0 1 forward_v I I I I #
coedge $-1 $104 $105 $106 $107 forward $41 $-1 #
coedge $-1 $108 $43 $109 $110 forward $26 $-1 #
coedge $-1 $43 $108 $111 $112 forward $26 $-1 #
coedge $-1 $113 $114 $43 $69 reversed $115 $-1 #
edge $-1 $116 -33.36276035057341 $117 33.36276035057341 $68 $118 forward 7 unknown #
face $-1 $119 $120 $16 $-1 $121 reversed single #
loop $-1 $-1 $122 $44 #
plane-surface $-1 0 0 -11.929424279655089 0 0 1 1 0 0 forward_v I I I I #
coedge $-1 $123 $76 $124 $125 reversed $45 $-1 #
coedge $-1 $126 $47 $127 $128 reversed $29 $-1 #
coedge $-1 $47 $126 $129 $130 reversed $29 $-1 #
coedge $-1 $73 $131 $47 $77 reversed $45 $-1 #
edge $-1 $132 -33.36276035057341 $133 33.36276035057341 $76 $134 forward 7 unknown #
face $-1 $135 $136 $17 $-1 $137 forward single #
loop $-1 $-1 $138 $48 #
plane-surface $-1 43.859358755495244 -26.140313160578621 166.97957114610287 0 1 0 0.64278761758704617 0 0.76604443648966558 forward_v I I I I #
coedge $-1 $139 $140 $141 $142 reversed $49 $-1 #
coedge $-1 $83 $51 $143 $144 reversed $32 $-1 #
coedge $-1 $51 $82 $139 $145 reversed $32 $-1 #
coedge $-1 $141 $146 $51 $85 forward $136 $-1 #
edge $-1 $147 -36.278884116011341 $148 -25.59834898479804 $84 $149 forward 7 unknown #
loop $-1 $-1 $91 $52 #
plane-surface $-1 -30.972128947140028 -16.85805952930318 77.798878705203862 0.64278761758704617 0 0.76604443648966558 0.76604443648966558 0 -0.64278761758704617 forward_v I I I I #
loop $-1 $-1 $150 $34 #
coedge $-1 $89 $89 $90 $151 reversed $53 $-1 #
coedge $-1 $90 $90 $89 $151 forward $55 $-1 #
coedge $-1 $91 $91 $56 $92 forward $86 $-1 #
edge $-1 $152 0 $152 6.2831853071796004 $91 $153 forward 7 unknown #
loop $-1 $-1 $98 $57 #
plane-surface $-1 -30.972128947140028 -16.85805952930318 77.798878705203862 0.64278761758704617 0 0.76604443648966558 0.76604443648966558 0 -0.64278761758704617 forward_v I I I I #
loop $-1 $-1 $154 $37 #
coedge $-1 $96 $96 $97 $155 reversed $58 $-1 #
coedge $-1 $97 $97 $96 $155 forward $60 $-1 #
coedge $-1 $98 $98 $61 $99 forward $93 $-1 #
edge $-1 $156 0 $156 6.2831853071796004 $98 $157 forward 7 unknown #
face $-1 $158 $159 $15 $-1 $160 reversed single #
loop $-1 $-1 $161 $62 #
plane-surface $-1 -58.208563493758966 0 0 1 0 0 0 0 -1 forward_v I I I I #
coedge $-1 $162 $111 $163 $164 forward $63 $-1 #
coedge $-1 $165 $65 $162 $166 forward $41 $-1 #
coedge $-1 $65 $165 $167 $168 forward $41 $-1 #
coedge $-1 $114 $113 $65 $107 reversed $115 $-1 #
edge $-1 $169 -33.36276035057341 $170 33.36276035057341 $106 $171 forward 7 unknown #
coedge $-1 $67 $66 $172 $173 forward $26 $-1 #
coedge $-1 $174 $175 $66 $110 reversed $159 $-1 #
edge $-1 $117 -58.208563493758966 $176 58.208563493758966 $109 $177 forward 7 unknown #
coedge $-1 $103 $178 $67 $112 reversed $63 $-1 #
edge $-1 $179 -58.208563493758966 $116 58.208563493758966 $111 $180 forward 7 unknown #
coedge $-1 $106 $68 $178 $181 forward $115 $-1 #
coedge $-1 $68 $106 $174 $182 reversed $115 $-1 #
loop $-1 $-1 $113 $158 #
vertex $-1 $69 $183 #
vertex $-1 $69 $184 #
straight-curve $-1 58.208563493758966 0 11.929424279655089 0 1 0 I I #
face $-1 $185 $186 $16 $-1 $187 reversed single #
loop $-1 $-1 $124 $70 #
plane-surface $-1 0 -33.36276035057341 0 0 1 0 0 0 1 forward_v I I I I #
coedge $-1 $188 $189 $123 $190 forward $71 $-1 #
coedge $-1 $131 $73 $122 $190 reversed $45 $-1 #
coedge $-1 $129 $191 $73 $125 forward $120 $-1 #
edge $-1 $192 -7.1863249423168991 $132 -2.2998737323594813 $124 $193 forward 7 unknown #
coedge $-1 $75 $74 $194 $195 reversed $29 $-1 #
coedge $-1 $196 $197 $74 $128 forward $198 $-1 #
edge $-1 $199 -31.99941616629738 $133 -20.418878488625793 $127 $200 forward 7 unknown #
coedge $-1 $201 $124 $75 $130 forward $120 $-1 #
edge $-1 $132 20.418878488625793 $202 31.99941616629738 $129 $203 forward 7 unknown #
coedge $-1 $76 $123 $196 $204 reversed $45 $-1 #
vertex $-1 $130 $205 #
vertex $-1 $128 $206 #
straight-curve $-1 -46.62802581608738 0 -7.0429730696976716 0 1 0 I I #
face $-1 $-1 $207 $17 $-1 $208 reversed single #
loop $-1 $-1 $84 $78 #
plane-surface $-1 0 0 11.929424279655089 0 0 1 1 0 0 forward_v I I I I #
coedge $-1 $209 $210 $211 $212 reversed $79 $-1 #
coedge $-1 $213 $81 $83 $145 forward $49 $-1 #
coedge $-1 $81 $213 $209 $214 forward $49 $-1 #
coedge $-1 $211 $84 $81 $142 forward $136 $-1 #
edge $-1 $148 -0.85322386662385341 $215 17.711283395927033 $141 $216 forward 7 unknown #
coedge $-1 $217 $218 $82 $144 forward $207 $-1 #
edge $-1 $219 -80.522394570482817 $147 -71.56036129339634 $143 $220 forward 7 unknown #
edge $-1 $148 102.47467845260527 $219 116.4171269875179 $83 $221 forward 7 unknown #
coedge $-1 $84 $211 $217 $222 forward $136 $-1 #
vertex $-1 $144 $223 #
vertex $-1 $85 $224 #
straight-curve $-1 21.929679377747622 -7.5758058980277365 11.929424279655095 -1 0 0 I I #
coedge $-1 $150 $150 $-1 $225 reversed $88 $-1 #
edge $-1 $226 0 $226 6.2831853071796004 $89 $227 forward 7 unknown #
vertex $-1 $92 $228 #
ellipse-curve $-1 52.868295928152314 -20.836168228421226 7.4484076411118529 0.64278761758704617 0 0.76604443648966558 1.1490666547344983 0 -0.96418142638056925 1 I I #
coedge $-1 $154 $154 $-1 $229 reversed $95 $-1 #
edge $-1 $230 0 $230 6.2831853071796004 $96 $231 forward 7 unknown #
vertex $-1 $99 $232 #
ellipse-curve $-1 52.868295928152314 -12.87995083018513 7.4484076411118529 0.64278761758704617 0 0.76604443648966558 1.1490666547344983 0 -0.96418142638056925 1 I I #
face $-1 $-1 $115 $15 $-1 $233 reversed single #
loop $-1 $-1 $174 $100 #
plane-surface $-1 0 33.36276035057341 0 0 -1 0 0 0 -1 forward_v I I I I #
coedge $-1 $234 $172 $175 $235 forward $101 $-1 #
coedge $-1 $178 $103 $104 $166 reversed $63 $-1 #
coedge $-1 $172 $234 $103 $164 reversed $101 $-1 #
edge $-1 $179 -11.929424279655089 $236 11.929424279655089 $163 $237 forward 7 unknown #
coedge $-1 $105 $104 $234 $238 forward $41 $-1 #
edge $-1 $170 -58.208563493758966 $236 58.208563493758966 $162 $239 forward 7 unknown #
coedge $-1 $175 $174 $105 $168 reversed $159 $-1 #
edge $-1 $240 -58.208563493758966 $169 58.208563493758966 $167 $241 forward 7 unknown #
vertex $-1 $107 $242 #
vertex $-1 $181 $243 #
straight-curve $-1 58.208563493758966 0 -11.929424279655089 0 -1 0 I I #
coedge $-1 $161 $163 $108 $173 reversed $101 $-1 #
edge $-1 $176 -33.36276035057341 $179 33.36276035057341 $172 $244 forward 7 unknown #
coedge $-1 $167 $109 $114 $182 forward $159 $-1 #
coedge $-1 $109 $167 $161 $235 reversed $159 $-1 #
vertex $-1 $110 $245 #
straight-curve $-1 0 33.36276035057341 11.929424279655089 -1 0 0 I I #
coedge $-1 $111 $162 $113 $181 reversed $63 $-1 #
vertex $-1 $173 $246 #
straight-curve $-1 0 -33.36276035057341 11.929424279655089 1 0 0 I I #
edge $-1 $116 -11.929424279655089 $170 11.929424279655089 $113 $247 forward 7 unknown #
edge $-1 $117 -11.929424279655089 $169 11.929424279655089 $114 $248 forward 7 unknown #
point $-1 58.208563493758966 -33.36276035057341 11.929424279655089 #
point $-1 58.208563493758966 33.36276035057341 11.929424279655089 #
face $-1 $-1 $198 $16 $-1 $249 reversed single #
loop $-1 $-1 $194 $119 #
plane-surface $-1 -58.208563493758966 0 0 1 0 0 0 0 -1 forward_v I I I I #
coedge $-1 $250 $122 $191 $251 forward $71 $-1 #
coedge $-1 $122 $250 $252 $253 forward $71 $-1 #
edge $-1 $254 -33.36276035057341 $192 33.36276035057341 $122 $255 forward 7 unknown #
coedge $-1 $124 $201 $188 $251 reversed $120 $-1 #
vertex $-1 $251 $256 #
straight-curve $-1 -46.62802581608738 -33.36276035057341 -4.7430993373381902 0 0 1 I I #
coedge $-1 $257 $258 $126 $195 forward $186 $-1 #
edge $-1 $202 -33.36276035057341 $199 33.36276035057341 $194 $259 forward 7 unknown #
coedge $-1 $252 $127 $131 $204 forward $198 $-1 #
coedge $-1 $127 $252 $257 $260 reversed $198 $-1 #
loop $-1 $-1 $196 $185 #
vertex $-1 $260 $261 #
straight-curve $-1 -26.209147327461586 33.36276035057341 -7.0429730696976716 1 0 0 I I #
coedge $-1 $191 $129 $258 $262 forward $120 $-1 #
vertex $-1 $262 $263 #
straight-curve $-1 -26.209147327461586 -33.36276035057341 -7.0429730696976716 -1 0 0 I I #
edge $-1 $133 2.2998737323594813 $254 7.1863249423168991 $196 $264 forward 7 unknown #
point $-1 -46.62802581608738 -33.36276035057341 -7.0429730696976716 #
point $-1 -46.62802581608738 33.36276035057341 -7.0429730696976716 #
loop $-1 $-1 $143 $135 #
plane-surface $-1 58.208563493758966 0 0 -1 0 0 0 0 1 forward_v I I I I #
coedge $-1 $210 $138 $140 $214 reversed $79 $-1 #
coedge $-1 $138 $209 $265 $266 reversed $79 $-1 #
coedge $-1 $146 $141 $138 $212 forward $136 $-1 #
edge $-1 $215 25.59834898479804 $267 36.278884116011341 $211 $268 forward 7 unknown #
coedge $-1 $140 $139 $218 $269 reversed $49 $-1 #
edge $-1 $270 -116.4171269875179 $215 -102.47467845260527 $209 $271 forward 7 unknown #
vertex $-1 $142 $272 #
straight-curve $-1 47.528028362545669 -8.4290297646515899 11.929424279655088 0 -1 0 I I #
coedge $-1 $265 $143 $146 $222 reversed $207 $-1 #
coedge $-1 $143 $265 $213 $269 forward $207 $-1 #
vertex $-1 $144 $273 #
straight-curve $-1 58.208563493758966 -7.5758058980277365 83.489785573051435 0 0 1 I I #
straight-curve $-1 -30.972128947140028 -7.5758058980277365 77.798878705203862 0.76604443648966558 0 -0.64278761758704617 I I #
edge $-1 $267 -26.140313160578621 $147 -7.5758058980277365 $217 $274 forward 7 unknown #
point $-1 58.208563493758966 -7.5758058980277365 11.929424279655089 #
point $-1 47.528028362545662 -7.5758058980277365 11.929424279655095 #
edge $-1 $275 1 $275 0 $150 $-1 forward 7 unknown #
vertex $-1 $151 $276 #
ellipse-curve $-1 50.765970228845489 -20.836168228421226 4.9429534886364541 0.64278761758704617 0 0.76604443648966558 1.1490666547344983 0 -0.96418142638056925 1 I I #
point $-1 54.017362582886797 -20.836168228421226 6.4842262147312706 #
edge $-1 $277 1 $277 0 $154 $-1 forward 7 unknown #
vertex $-1 $155 $278 #
ellipse-curve $-1 50.765970228845489 -12.87995083018513 4.9429534886364541 0.64278761758704617 0 0.76604443648966558 1.1490666547344983 0 -0.96418142638056925 1 I I #
point $-1 54.017362582886797 -12.87995083018513 6.4842262147312706 #
plane-surface $-1 58.208563493758966 0 0 -1 0 0 0 0 1 forward_v I I I I #
coedge $-1 $163 $161 $165 $238 reversed $101 $-1 #
edge $-1 $176 -11.929424279655089 $240 11.929424279655089 $175 $279 forward 7 unknown #
vertex $-1 $238 $280 #
straight-curve $-1 -58.208563493758966 -33.36276035057341 0 0 0 -1 I I #
edge $-1 $236 -33.36276035057341 $240 33.36276035057341 $234 $281 forward 7 unknown #
straight-curve $-1 0 -33.36276035057341 -11.929424279655089 -1 0 0 I I #
vertex $-1 $168 $282 #
straight-curve $-1 0 33.36276035057341 -11.929424279655089 1 0 0 I I #
point $-1 58.208563493758966 33.36276035057341 -11.929424279655089 #
point $-1 58.208563493758966 -33.36276035057341 -11.929424279655089 #
straight-curve $-1 -58.208563493758966 0 11.929424279655089 0 -1 0 I I #
point $-1 -58.208563493758966 33.36276035057341 11.929424279655089 #
point $-1 -58.208563493758966 -33.36276035057341 11.929424279655089 #
straight-curve $-1 58.208563493758966 -33.36276035057341 0 0 0 -1 I I #
straight-curve $-1 58.208563493758966 33.36276035057341 0 0 0 -1 I I #
plane-surface $-1 0 33.36276035057341 0 0 -1 0 0 0 -1 forward_v I I I I #
coedge $-1 $189 $188 $283 $284 forward $71 $-1 #
edge $-1 $192 46.62802581608738 $285 58.208563493758966 $191 $286 forward 7 unknown #
coedge $-1 $197 $196 $189 $253 reversed $198 $-1 #
edge $-1 $287 -58.208563493758966 $254 -46.62802581608738 $252 $288 forward 7 unknown #
vertex $-1 $204 $289 #
straight-curve $-1 -46.62802581608738 0 -11.929424279655089 0 -1 0 I I #
point $-1 -46.62802581608738 -33.36276035057341 -11.929424279655089 #
coedge $-1 $283 $194 $197 $260 forward $186 $-1 #
coedge $-1 $194 $283 $201 $262 reversed $186 $-1 #
straight-curve $-1 -58.208563493758966 0 -7.0429730696976716 0 1 0 I I #
edge $-1 $199 7.0429730696976716 $287 11.929424279655089 $197 $290 forward 7 unknown #
point $-1 -58.208563493758966 33.36276035057341 -7.0429730696976716 #
edge $-1 $202 7.0429730696976716 $285 11.929424279655089 $258 $291 forward 7 unknown #
point $-1 -58.208563493758966 -33.36276035057341 -7.0429730696976716 #
straight-curve $-1 -46.62802581608738 33.36276035057341 -4.7430993373381902 0 0 -1 I I #
coedge $-1 $218 $217 $210 $266 forward $207 $-1 #
edge $-1 $267 71.56036129339634 $270 80.522394570482817 $265 $292 forward 7 unknown #
vertex $-1 $222 $293 #
straight-curve $-1 21.929679377747622 -26.140313160578621 11.929424279655095 1 0 0 I I #
edge $-1 $270 -17.711283395927033 $219 0.85322386662385341 $218 $294 forward 7 unknown #
vertex $-1 $269 $295 #
straight-curve $-1 -30.972128947140028 -26.140313160578621 77.798878705203862 -0.76604443648966558 0 0.64278761758704617 I I #
point $-1 47.528028362545662 -26.140313160578621 11.929424279655095 #
point $-1 58.208563493758966 -7.5758058980277365 2.9673910025686183 #
straight-curve $-1 58.208563493758966 0 11.929424279655089 0 1 0 I I #
vertex $-1 $225 $296 #
point $-1 51.915036883579994 -20.836168228421226 3.9787720622558846 #
vertex $-1 $229 $297 #
point $-1 51.915036883579994 -12.87995083018513 3.9787720622558846 #
straight-curve $-1 -58.208563493758966 33.36276035057341 0 0 0 -1 I I #
point $-1 -58.208563493758966 -33.36276035057341 -11.929424279655089 #
straight-curve $-1 -58.208563493758966 0 -11.929424279655089 0 1 0 I I #
point $-1 -58.208563493758966 33.36276035057341 -11.929424279655089 #
coedge $-1 $258 $257 $250 $284 reversed $186 $-1 #
edge $-1 $285 -33.36276035057341 $287 33.36276035057341 $283 $298 forward 7 unknown #
vertex $-1 $284 $299 #
straight-curve $-1 0 -33.36276035057341 -11.929424279655089 -1 0 0 I I #
vertex $-1 $253 $300 #
straight-curve $-1 0 33.36276035057341 -11.929424279655089 1 0 0 I I #
point $-1 -46.62802581608738 33.36276035057341 -11.929424279655089 #
straight-curve $-1 -58.208563493758966 33.36276035057341 0 0 0 -1 I I #
straight-curve $-1 -58.208563493758966 -33.36276035057341 0 0 0 -1 I I #
straight-curve $-1 58.208563493758966 -26.140313160578621 83.489785573051435 0 0 -1 I I #
point $-1 58.208563493758966 -26.140313160578621 11.929424279655089 #
straight-curve $-1 58.208563493758959 -8.4290297646515899 2.9673910025686112 0 1 0 I I #
point $-1 58.208563493758966 -26.140313160578621 2.9673910025686183 #
point $-1 49.801788802464927 -20.836168228421226 3.7938868339019556 #
point $-1 49.801788802464927 -12.87995083018513 3.7938868339019556 #
straight-curve $-1 -58.208563493758966 0 -11.929424279655089 0 1 0 I I #
point $-1 -58.208563493758966 -33.36276035057341 -11.929424279655089 #
point $-1 -58.208563493758966 33.36276035057341 -11.929424279655089 #
End-of-ACIS-data 