500 0 12 0           
7 Unknown 11 ACIS 5.0 NT 24 Fri Mar 26 01:54:48 1999 
-1 9.9999999999999995e-007 1e-010 
body $-1 $12 $-1 $13 #
body $-1 $14 $-1 $15 #
body $-1 $16 $-1 $17 #
body $-1 $18 $-1 $19 #
body $-1 $20 $-1 $21 #
body $-1 $22 $-1 $23 #
body $-1 $24 $-1 $25 #
body $-1 $26 $-1 $27 #
body $-1 $28 $-1 $29 #
body $-1 $30 $-1 $31 #
body $-1 $32 $-1 $33 #
body $-1 $34 $-1 $35 #
lump $-1 $-1 $36 $0 #
transform $-1 1 0 0 0 1 0 0 0 1 44.627826776940211 23.661723605409708 5.589574009450784 1 rotate no_reflect no_shear #
lump $-1 $-1 $37 $1 #
transform $-1 1 0 0 0 1 0 0 0 1 44.627826776940211 23.661723605409708 5.589574009450784 1 rotate no_reflect no_shear #
lump $-1 $-1 $38 $2 #
transform $-1 1 0 0 0 1 0 0 0 1 44.627826776940211 23.661723605409708 5.589574009450784 1 rotate no_reflect no_shear #
lump $-1 $-1 $39 $3 #
transform $-1 1 0 0 0 1 0 0 0 1 44.627826776940211 23.661723605409708 5.589574009450784 1 rotate no_reflect no_shear #
lump $-1 $-1 $40 $4 #
transform $-1 1 0 0 0 1 0 0 0 1 44.627826776940211 23.661723605409708 5.589574009450784 1 rotate no_reflect no_shear #
lump $-1 $-1 $41 $5 #
transform $-1 1 0 0 0 1 0 0 0 1 44.627826776940211 23.661723605409708 5.589574009450784 1 rotate no_reflect no_shear #
lump $-1 $-1 $42 $6 #
transform $-1 1 0 0 0 1 0 0 0 1 44.627826776940211 23.661723605409708 5.589574009450784 1 rotate no_reflect no_shear #
lump $-1 $-1 $43 $7 #
transform $-1 1 0 0 0 1 0 0 0 1 44.627826776940211 23.661723605409708 5.589574009450784 1 rotate no_reflect no_shear #
lump $-1 $-1 $44 $8 #
transform $-1 1 0 0 0 1 0 0 0 1 44.627826776940211 23.661723605409708 5.589574009450784 1 rotate no_reflect no_shear #
lump $-1 $-1 $45 $9 #
transform $-1 1 0 0 0 1 0 0 0 1 44.627826776940211 23.661723605409708 5.589574009450784 1 rotate no_reflect no_shear #
lump $-1 $-1 $46 $10 #
transform $-1 1 0 0 0 1 0 0 0 1 44.627826776940211 23.661723605409708 5.589574009450784 1 rotate no_reflect no_shear #
lump $-1 $-1 $47 $11 #
transform $-1 1 0 0 0 1 0 0 0 1 44.627826776940211 23.661723605409708 5.589574009450784 1 rotate no_reflect no_shear #
shell $-1 $-1 $-1 $48 $-1 $12 #
shell $-1 $-1 $-1 $49 $-1 $14 #
shell $-1 $-1 $-1 $50 $-1 $16 #
shell $-1 $-1 $-1 $51 $-1 $18 #
shell $-1 $-1 $-1 $52 $-1 $20 #
shell $-1 $-1 $-1 $53 $-1 $22 #
shell $-1 $-1 $-1 $54 $-1 $24 #
shell $-1 $-1 $-1 $55 $-1 $26 #
shell $-1 $-1 $-1 $56 $-1 $28 #
shell $-1 $-1 $-1 $57 $-1 $30 #
shell $-1 $-1 $-1 $58 $-1 $32 #
shell $-1 $-1 $-1 $59 $-1 $34 #
face $-1 $60 $61 $36 $-1 $62 forward single #
face $-1 $63 $64 $37 $-1 $65 forward single #
face $-1 $66 $67 $38 $-1 $68 forward single #
face $-1 $69 $70 $39 $-1 $71 reversed single #
face $-1 $72 $73 $40 $-1 $74 forward single #
face $-1 $75 $76 $41 $-1 $77 forward single #
face $-1 $78 $79 $42 $-1 $80 reversed single #
face $-1 $81 $82 $43 $-1 $83 forward single #
face $-1 $84 $85 $44 $-1 $86 forward single #
face $-1 $87 $88 $45 $-1 $89 reversed single #
face $-1 $90 $91 $46 $-1 $92 forward single #
face $-1 $93 $94 $47 $-1 $95 forward single #
face $-1 $96 $97 $36 $-1 $98 reversed single #
loop $-1 $-1 $99 $48 #
plane-surface $-1 0 0 5.589574009450784 0 0 1 1 0 0 forward_v I I I I #
face $-1 $100 $101 $37 $-1 $102 reversed single #
loop $-1 $-1 $103 $49 #
plane-surface $-1 0 -21.651774748252958 4.5781029565738169 0 0 1 1 0 0 forward_v I I I I #
face $-1 $104 $105 $38 $-1 $106 reversed single #
loop $-1 $-1 $107 $50 #
plane-surface $-1 0 21.651774748252958 4.5781029565738169 0 0 1 1 0 0 forward_v I I I I #
face $-1 $108 $109 $39 $-1 $110 reversed single #
loop $-1 $-1 $111 $51 #
plane-surface $-1 -108.83297151885425 -3.6480103181777856 64.351430055608901 0 -1 0 0.71933980857756763 0 -0.69465836192734942 forward_v I I I I #
face $-1 $112 $113 $40 $-1 $114 forward single #
loop $-1 $115 $116 $52 #
cone-surface $-1 -42.703581734544549 -10.364680078013834 3.6220798063193818 0.71933980857756763 0 -0.69465836192734942 0.34732918096367471 0 0.35966990428878381 1 I I 0 1 0.5 forward I I I I #
face $-1 $117 $118 $41 $-1 $119 forward single #
loop $-1 $120 $121 $53 #
cone-surface $-1 -42.703581734544549 -6.3346782221122062 3.6220798063193818 0.71933980857756763 0 -0.69465836192734942 0.34732918096367471 0 0.35966990428878381 1 I I 0 1 0.5 forward I I I I #
face $-1 $122 $123 $42 $-1 $124 reversed single #
loop $-1 $-1 $125 $54 #
plane-surface $-1 -108.83297151885425 13.051347981948263 64.351430055608901 0 -1 0 0.71933980857756763 0 -0.69465836192734942 forward_v I I I I #
face $-1 $126 $127 $43 $-1 $128 forward single #
loop $-1 $129 $130 $55 #
cone-surface $-1 -42.703581734544549 6.3346782221122133 3.6220798063193818 0.71933980857756763 0 -0.69465836192734942 0.34732918096367471 0 0.35966990428878381 1 I I 0 1 0.5 forward I I I I #
face $-1 $131 $132 $44 $-1 $133 forward single #
loop $-1 $134 $135 $56 #
cone-surface $-1 -42.703581734544549 10.364680078013844 3.6220798063193818 0.71933980857756763 0 -0.69465836192734942 0.34732918096367471 0 0.35966990428878381 1 I I 0 1 0.5 forward I I I I #
face $-1 $136 $137 $45 $-1 $138 reversed single #
loop $-1 $-1 $139 $57 #
plane-surface $-1 16.233030984065927 3.5371852593652626 124.18370225065067 0 1 0 0.52991927123019833 0 0.84804809178421925 forward_v I I I I #
face $-1 $140 $141 $46 $-1 $142 forward single #
loop $-1 $143 $144 $58 #
cone-surface $-1 40.605676931311827 6.1762024878603548 2.5849969701810513 -0.52991927123019833 0 -0.84804809178421925 0.84804809178421925 0 -0.52991927123019833 1 I I 0 1 1 forward I I I I #
face $-1 $145 $146 $47 $-1 $147 forward single #
loop $-1 $148 $149 $59 #
cone-surface $-1 40.605676931311827 10.134728330602993 2.5849969701810513 -0.52991927123019833 0 -0.84804809178421925 0.84804809178421925 0 -0.52991927123019833 1 I I 0 1 1 forward I I I I #
face $-1 $150 $151 $36 $-1 $152 reversed single #
loop $-1 $-1 $153 $60 #
plane-surface $-1 0 0 -5.589574009450784 0 0 1 1 0 0 forward_v I I I I #
coedge $-1 $154 $155 $156 $157 forward $61 $-1 #
face $-1 $158 $159 $37 $-1 $160 reversed single #
loop $-1 $-1 $161 $63 #
plane-surface $-1 0 -21.651774748252958 1.5003658371148219 0 0 1 1 0 0 forward_v I I I I #
coedge $-1 $162 $163 $164 $165 reversed $64 $-1 #
face $-1 $166 $167 $38 $-1 $168 reversed single #
loop $-1 $-1 $169 $66 #
plane-surface $-1 0 21.651774748252958 1.5003658371148219 0 0 1 1 0 0 forward_v I I I I #
coedge $-1 $170 $171 $172 $173 reversed $67 $-1 #
face $-1 $174 $175 $39 $-1 $176 reversed single #
loop $-1 $-1 $177 $69 #
plane-surface $-1 -44.627826776940211 -8.3496791500630199 2.3492439651153205 -0.71933980857756763 0 0.69465836192734942 0.69465836192734942 0 0.71933980857756763 forward_v I I I I #
coedge $-1 $178 $179 $180 $181 reversed $70 $-1 #
face $-1 $-1 $182 $40 $-1 $183 forward single #
loop $-1 $184 $185 $72 #
cone-surface $-1 -42.164076878111374 -10.364680078013834 3.1010860348738696 0.71933980857756763 0 -0.69465836192734942 0.17366459048183736 0 0.17983495214439191 1 I I -0.70710678118654746 0.70710678118654746 0.25 forward I I I I #
loop $-1 $-1 $186 $52 #
coedge $-1 $116 $116 $187 $188 reversed $73 $-1 #
face $-1 $-1 $189 $41 $-1 $190 forward single #
loop $-1 $191 $192 $75 #
cone-surface $-1 -42.164076878111374 -6.3346782221122062 3.1010860348738696 0.71933980857756763 0 -0.69465836192734942 0.17366459048183736 0 0.17983495214439191 1 I I -0.70710678118654746 0.70710678118654746 0.25 forward I I I I #
loop $-1 $-1 $193 $53 #
coedge $-1 $121 $121 $194 $195 reversed $76 $-1 #
face $-1 $196 $197 $42 $-1 $198 reversed single #
loop $-1 $-1 $199 $78 #
plane-surface $-1 -44.627826776940211 8.3496791500630287 2.3492439651153205 -0.71933980857756763 0 0.69465836192734942 0.69465836192734942 0 0.71933980857756763 forward_v I I I I #
coedge $-1 $200 $201 $202 $203 reversed $79 $-1 #
face $-1 $-1 $204 $43 $-1 $205 forward single #
loop $-1 $206 $207 $81 #
cone-surface $-1 -42.164076878111374 6.3346782221122133 3.1010860348738696 0.71933980857756763 0 -0.69465836192734942 0.17366459048183736 0 0.17983495214439191 1 I I -0.70710678118654746 0.70710678118654746 0.25 forward I I I I #
loop $-1 $-1 $208 $55 #
coedge $-1 $130 $130 $209 $210 reversed $82 $-1 #
face $-1 $-1 $211 $44 $-1 $212 forward single #
loop $-1 $213 $214 $84 #
cone-surface $-1 -42.164076878111374 10.364680078013844 3.1010860348738696 0.71933980857756763 0 -0.69465836192734942 0.17366459048183736 0 0.17983495214439191 1 I I -0.70710678118654746 0.70710678118654746 0.25 forward I I I I #
loop $-1 $-1 $215 $56 #
coedge $-1 $135 $135 $216 $217 reversed $85 $-1 #
face $-1 $218 $219 $45 $-1 $220 reversed single #
loop $-1 $-1 $221 $87 #
plane-surface $-1 -31.065259900381449 8.1554654092316738 48.490615573329009 0.52991927123019833 0 0.84804809178421925 0.84804809178421925 0 -0.52991927123019833 forward_v I I I I #
coedge $-1 $222 $223 $224 $225 reversed $88 $-1 #
face $-1 $-1 $226 $46 $-1 $227 forward single #
loop $-1 $228 $229 $90 #
cone-surface $-1 39.837102345724375 6.1762024878603548 1.3550205453037893 -0.52991927123019833 0 -0.84804809178421925 0.42402404589210962 0 -0.26495963561509916 1 I I -0.70710678118654746 0.70710678118654746 0.5 forward I I I I #
loop $-1 $-1 $230 $58 #
coedge $-1 $144 $144 $231 $232 reversed $91 $-1 #
face $-1 $-1 $233 $47 $-1 $234 forward single #
loop $-1 $235 $236 $93 #
cone-surface $-1 39.837102345724375 10.134728330602993 1.3550205453037893 -0.52991927123019833 0 -0.84804809178421925 0.42402404589210962 0 -0.26495963561509916 1 I I -0.70710678118654746 0.70710678118654746 0.5 forward I I I I #
loop $-1 $-1 $237 $59 #
coedge $-1 $149 $149 $238 $239 reversed $94 $-1 #
face $-1 $240 $241 $36 $-1 $242 reversed single #
loop $-1 $-1 $243 $96 #
plane-surface $-1 0 -23.661723605409708 0 0 1 0 0 0 1 forward_v I I I I #
coedge $-1 $244 $245 $246 $247 forward $97 $-1 #
coedge $-1 $248 $99 $249 $250 forward $61 $-1 #
coedge $-1 $99 $248 $251 $252 forward $61 $-1 #
coedge $-1 $253 $254 $99 $157 reversed $255 $-1 #
edge $-1 $256 -23.661723605409708 $257 23.661723605409708 $156 $258 forward 7 unknown #
face $-1 $259 $260 $37 $-1 $261 reversed single #
loop $-1 $-1 $262 $100 #
plane-surface $-1 0 -19.641825891096207 3.0392343968443196 0 -1 0 0 0 -1 forward_v I I I I #
coedge $-1 $263 $264 $265 $266 reversed $101 $-1 #
coedge $-1 $267 $103 $268 $269 forward $64 $-1 #
coedge $-1 $103 $267 $270 $271 reversed $64 $-1 #
coedge $-1 $272 $273 $103 $165 forward $274 $-1 #
edge $-1 $275 8.8159385169697284 $276 12.835836231283229 $164 $277 forward 7 unknown #
face $-1 $278 $279 $38 $-1 $280 reversed single #
loop $-1 $-1 $281 $104 #
plane-surface $-1 0 19.641825891096207 3.0392343968443196 0 1 0 0 0 1 forward_v I I I I #
coedge $-1 $282 $283 $284 $285 reversed $105 $-1 #
coedge $-1 $286 $107 $287 $288 reversed $67 $-1 #
coedge $-1 $107 $286 $289 $290 forward $67 $-1 #
coedge $-1 $291 $292 $107 $173 forward $279 $-1 #
edge $-1 $293 -12.835836231283229 $294 -8.8159385169697284 $172 $295 forward 7 unknown #
face $-1 $296 $297 $39 $-1 $298 reversed single #
loop $-1 $-1 $299 $108 #
plane-surface $-1 -108.83297151885425 -13.051347981948254 64.351430055608901 0 1 0 -0.71933980857756763 0 0.69465836192734942 forward_v I I I I #
coedge $-1 $300 $301 $302 $303 reversed $109 $-1 #
coedge $-1 $179 $111 $304 $305 reversed $70 $-1 #
coedge $-1 $111 $178 $300 $306 reversed $70 $-1 #
coedge $-1 $302 $307 $111 $181 forward $297 $-1 #
edge $-1 $308 26.586141018353665 $309 29.82647106268913 $180 $310 forward 7 unknown #
loop $-1 $-1 $187 $112 #
plane-surface $-1 -44.627826776940211 -8.3496791500630199 2.3492439651153205 -0.71933980857756763 0 0.69465836192734942 0.69465836192734942 0 0.71933980857756763 forward_v I I I I #
loop $-1 $-1 $311 $72 #
coedge $-1 $185 $185 $186 $312 reversed $113 $-1 #
coedge $-1 $186 $186 $185 $312 forward $115 $-1 #
coedge $-1 $187 $187 $116 $188 forward $182 $-1 #
edge $-1 $313 0 $313 6.2831853071796004 $187 $314 forward 7 unknown #
loop $-1 $-1 $194 $117 #
plane-surface $-1 -44.627826776940211 -8.3496791500630199 2.3492439651153205 -0.71933980857756763 0 0.69465836192734942 0.69465836192734942 0 0.71933980857756763 forward_v I I I I #
loop $-1 $-1 $315 $75 #
coedge $-1 $192 $192 $193 $316 reversed $118 $-1 #
coedge $-1 $193 $193 $192 $316 forward $120 $-1 #
coedge $-1 $194 $194 $121 $195 forward $189 $-1 #
edge $-1 $317 0 $317 6.2831853071796004 $194 $318 forward 7 unknown #
face $-1 $319 $320 $42 $-1 $321 forward single #
loop $-1 $-1 $322 $122 #
plane-surface $-1 -108.83297151885425 3.6480103181777945 64.351430055608901 0 1 0 -0.71933980857756763 0 0.69465836192734942 forward_v I I I I #
coedge $-1 $323 $324 $325 $326 reversed $123 $-1 #
coedge $-1 $201 $125 $327 $328 reversed $79 $-1 #
coedge $-1 $125 $200 $323 $329 reversed $79 $-1 #
coedge $-1 $325 $330 $125 $203 forward $331 $-1 #
edge $-1 $332 26.586141018353665 $333 29.82647106268913 $202 $334 forward 7 unknown #
loop $-1 $-1 $209 $126 #
plane-surface $-1 -44.627826776940211 8.3496791500630287 2.3492439651153205 -0.71933980857756763 0 0.69465836192734942 0.69465836192734942 0 0.71933980857756763 forward_v I I I I #
loop $-1 $-1 $335 $81 #
coedge $-1 $207 $207 $208 $336 reversed $127 $-1 #
coedge $-1 $208 $208 $207 $336 forward $129 $-1 #
coedge $-1 $209 $209 $130 $210 forward $204 $-1 #
edge $-1 $337 0 $337 6.2831853071796004 $209 $338 forward 7 unknown #
loop $-1 $-1 $216 $131 #
plane-surface $-1 -44.627826776940211 8.3496791500630287 2.3492439651153205 -0.71933980857756763 0 0.69465836192734942 0.69465836192734942 0 0.71933980857756763 forward_v I I I I #
loop $-1 $-1 $339 $84 #
coedge $-1 $214 $214 $215 $340 reversed $132 $-1 #
coedge $-1 $215 $215 $214 $340 forward $134 $-1 #
coedge $-1 $216 $216 $135 $217 forward $211 $-1 #
edge $-1 $341 0 $341 6.2831853071796004 $216 $342 forward 7 unknown #
face $-1 $343 $344 $45 $-1 $345 forward single #
loop $-1 $-1 $346 $136 #
plane-surface $-1 16.233030984065927 12.773745559098085 124.18370225065067 0 -1 0 -0.52991927123019833 0 -0.84804809178421925 forward_v I I I I #
coedge $-1 $347 $348 $349 $350 reversed $137 $-1 #
coedge $-1 $223 $139 $351 $352 reversed $88 $-1 #
coedge $-1 $139 $222 $347 $353 reversed $88 $-1 #
coedge $-1 $349 $354 $139 $225 forward $355 $-1 #
edge $-1 $356 56.502277115874548 $357 60.899526436443701 $224 $358 forward 7 unknown #
loop $-1 $-1 $231 $140 #
plane-surface $-1 -31.065259900381449 8.1554654092316738 48.490615573329009 0.52991927123019833 0 0.84804809178421925 0.84804809178421925 0 -0.52991927123019833 forward_v I I I I #
loop $-1 $-1 $359 $90 #
coedge $-1 $229 $229 $230 $360 reversed $141 $-1 #
coedge $-1 $230 $230 $229 $360 forward $143 $-1 #
coedge $-1 $231 $231 $144 $232 forward $226 $-1 #
edge $-1 $361 0 $361 6.2831853071796004 $231 $362 forward 7 unknown #
loop $-1 $-1 $238 $145 #
plane-surface $-1 -31.065259900381449 8.1554654092316738 48.490615573329009 0.52991927123019833 0 0.84804809178421925 0.84804809178421925 0 -0.52991927123019833 forward_v I I I I #
loop $-1 $-1 $363 $93 #
coedge $-1 $236 $236 $237 $364 reversed $146 $-1 #
coedge $-1 $237 $237 $236 $364 forward $148 $-1 #
coedge $-1 $238 $238 $149 $239 forward $233 $-1 #
edge $-1 $365 0 $365 6.2831853071796004 $238 $366 forward 7 unknown #
face $-1 $367 $368 $36 $-1 $369 reversed single #
loop $-1 $-1 $370 $150 #
plane-surface $-1 -44.627826776940211 0 0 1 0 0 0 0 -1 forward_v I I I I #
coedge $-1 $371 $251 $372 $373 forward $151 $-1 #
coedge $-1 $374 $153 $371 $375 forward $97 $-1 #
coedge $-1 $153 $374 $376 $377 forward $97 $-1 #
coedge $-1 $254 $253 $153 $247 reversed $255 $-1 #
edge $-1 $378 -23.661723605409708 $379 23.661723605409708 $246 $380 forward 7 unknown #
coedge $-1 $155 $154 $381 $382 forward $61 $-1 #
coedge $-1 $383 $384 $154 $250 reversed $368 $-1 #
edge $-1 $257 -44.627826776940211 $385 44.627826776940211 $249 $386 forward 7 unknown #
coedge $-1 $243 $387 $155 $252 reversed $151 $-1 #
edge $-1 $388 -44.627826776940211 $256 44.627826776940211 $251 $389 forward 7 unknown #
coedge $-1 $246 $156 $387 $390 forward $255 $-1 #
coedge $-1 $156 $246 $383 $391 reversed $255 $-1 #
loop $-1 $-1 $253 $367 #
vertex $-1 $157 $392 #
vertex $-1 $157 $393 #
straight-curve $-1 44.627826776940211 0 5.589574009450784 0 1 0 I I #
face $-1 $394 $395 $37 $-1 $396 reversed single #
loop $-1 $-1 $397 $158 #
plane-surface $-1 -44.627826776940211 0 0 1 0 0 0 0 -1 forward_v I I I I #
coedge $-1 $398 $268 $273 $399 reversed $159 $-1 #
coedge $-1 $400 $161 $401 $402 reversed $101 $-1 #
coedge $-1 $161 $400 $398 $403 forward $101 $-1 #
coedge $-1 $273 $272 $161 $266 forward $274 $-1 #
edge $-1 $404 -12.835836231283229 $405 -8.8159385169697284 $265 $406 forward 7 unknown #
coedge $-1 $163 $162 $397 $407 reversed $64 $-1 #
coedge $-1 $262 $408 $162 $269 reversed $159 $-1 #
edge $-1 $275 -44.627826776940211 $409 44.627826776940211 $268 $410 forward 7 unknown #
coedge $-1 $411 $412 $163 $271 forward $395 $-1 #
edge $-1 $276 -44.627826776940211 $413 44.627826776940211 $270 $414 forward 7 unknown #
coedge $-1 $265 $164 $412 $415 forward $274 $-1 #
coedge $-1 $164 $265 $262 $399 forward $274 $-1 #
loop $-1 $-1 $164 $394 #
vertex $-1 $165 $416 #
vertex $-1 $415 $417 #
straight-curve $-1 44.627826776940211 -10.825887374126479 4.5781029565738169 0 -1 0 I I #
face $-1 $418 $419 $38 $-1 $420 reversed single #
loop $-1 $-1 $172 $166 #
plane-surface $-1 44.627826776940211 0 0 -1 0 0 0 0 1 forward_v I I I I #
coedge $-1 $421 $289 $422 $423 reversed $167 $-1 #
coedge $-1 $424 $169 $421 $425 forward $105 $-1 #
coedge $-1 $169 $424 $426 $427 reversed $105 $-1 #
coedge $-1 $292 $291 $169 $285 forward $279 $-1 #
edge $-1 $428 8.8159385169697284 $429 12.835836231283229 $284 $430 forward 7 unknown #
coedge $-1 $171 $170 $431 $432 reversed $67 $-1 #
coedge $-1 $433 $434 $170 $288 forward $435 $-1 #
edge $-1 $436 -44.627826776940211 $293 44.627826776940211 $287 $437 forward 7 unknown #
coedge $-1 $281 $438 $171 $290 reversed $167 $-1 #
edge $-1 $439 -44.627826776940211 $294 44.627826776940211 $289 $440 forward 7 unknown #
coedge $-1 $284 $172 $438 $441 forward $279 $-1 #
coedge $-1 $172 $284 $433 $442 reversed $279 $-1 #
vertex $-1 $442 $443 #
vertex $-1 $173 $444 #
straight-curve $-1 44.627826776940211 10.825887374126479 4.5781029565738169 0 -1 0 I I #
face $-1 $-1 $445 $39 $-1 $446 forward single #
loop $-1 $-1 $180 $174 #
plane-surface $-1 -44.627826776940211 0 0 1 0 0 0 0 -1 forward_v I I I I #
coedge $-1 $447 $448 $449 $450 reversed $175 $-1 #
coedge $-1 $451 $177 $179 $306 forward $109 $-1 #
coedge $-1 $177 $451 $447 $452 forward $109 $-1 #
coedge $-1 $449 $180 $177 $303 forward $297 $-1 #
edge $-1 $309 -0.52682925685372428 $453 8.876508406916745 $302 $454 forward 7 unknown #
coedge $-1 $455 $456 $178 $305 forward $445 $-1 #
edge $-1 $457 -12.917809258700672 $308 -9.7886589824869148 $304 $458 forward 7 unknown #
edge $-1 $309 0 $457 4.504588798919575 $179 $459 forward 7 unknown #
coedge $-1 $180 $449 $455 $460 reversed $297 $-1 #
vertex $-1 $460 $461 #
vertex $-1 $181 $462 #
straight-curve $-1 -44.627826776940211 -3.6480103181777856 32.175715027804451 0 0 -1 I I #
coedge $-1 $311 $311 $-1 $463 reversed $184 $-1 #
edge $-1 $464 0 $464 6.2831853071796004 $185 $465 forward 7 unknown #
vertex $-1 $188 $466 #
ellipse-curve $-1 -43.063251638833329 -10.364680078013834 3.9694089872830531 -0.71933980857756763 0 0.69465836192734942 0.34732918096367471 0 0.35966990428878381 1 I I #
coedge $-1 $315 $315 $-1 $467 reversed $191 $-1 #
edge $-1 $468 0 $468 6.2831853071796004 $192 $469 forward 7 unknown #
vertex $-1 $195 $470 #
ellipse-curve $-1 -43.063251638833329 -6.3346782221122062 3.9694089872830531 -0.71933980857756763 0 0.69465836192734942 0.34732918096367471 0 0.35966990428878381 1 I I #
face $-1 $-1 $331 $42 $-1 $471 reversed single #
loop $-1 $-1 $472 $196 #
plane-surface $-1 0 0 5.589574009450784 0 0 1 1 0 0 forward_v I I I I #
coedge $-1 $473 $474 $475 $476 reversed $197 $-1 #
coedge $-1 $477 $199 $201 $329 forward $123 $-1 #
coedge $-1 $199 $477 $473 $478 forward $123 $-1 #
coedge $-1 $475 $202 $199 $326 forward $331 $-1 #
edge $-1 $333 -8.8765084069167486 $479 0.52682925685371984 $325 $480 forward 7 unknown #
coedge $-1 $481 $482 $200 $328 forward $320 $-1 #
edge $-1 $483 -12.917809258700672 $332 -9.7886589824869148 $327 $484 forward 7 unknown #
edge $-1 $333 0 $483 4.504588798919575 $201 $485 forward 7 unknown #
coedge $-1 $202 $475 $481 $486 reversed $331 $-1 #
loop $-1 $-1 $475 $319 #
vertex $-1 $486 $487 #
vertex $-1 $203 $488 #
straight-curve $-1 -44.627826776940211 13.051347981948263 32.175715027804451 0 0 -1 I I #
coedge $-1 $335 $335 $-1 $489 reversed $206 $-1 #
edge $-1 $490 0 $490 6.2831853071796004 $207 $491 forward 7 unknown #
vertex $-1 $210 $492 #
ellipse-curve $-1 -43.063251638833329 6.3346782221122133 3.9694089872830531 -0.71933980857756763 0 0.69465836192734942 0.34732918096367471 0 0.35966990428878381 1 I I #
coedge $-1 $339 $339 $-1 $493 reversed $213 $-1 #
edge $-1 $494 0 $494 6.2831853071796004 $214 $495 forward 7 unknown #
vertex $-1 $217 $496 #
ellipse-curve $-1 -43.063251638833329 10.364680078013844 3.9694089872830531 -0.71933980857756763 0 0.69465836192734942 0.34732918096367471 0 0.35966990428878381 1 I I #
face $-1 $-1 $355 $45 $-1 $497 reversed single #
loop $-1 $-1 $498 $218 #
plane-surface $-1 0 0 5.589574009450784 0 0 1 1 0 0 forward_v I I I I #
coedge $-1 $499 $500 $501 $502 reversed $219 $-1 #
coedge $-1 $503 $221 $223 $353 forward $137 $-1 #
coedge $-1 $221 $503 $499 $504 forward $137 $-1 #
coedge $-1 $501 $224 $221 $350 forward $355 $-1 #
edge $-1 $357 -0.5405474452505743 $505 8.6960128544822481 $349 $506 forward 7 unknown #
coedge $-1 $507 $508 $222 $352 forward $344 $-1 #
edge $-1 $509 29.474241493595198 $356 36.511311284907251 $351 $510 forward 7 unknown #
edge $-1 $357 -89.255653553880421 $509 -80.957692790232386 $223 $511 forward 7 unknown #
coedge $-1 $224 $501 $507 $512 reversed $355 $-1 #
loop $-1 $-1 $501 $343 #
vertex $-1 $512 $513 #
vertex $-1 $225 $514 #
straight-curve $-1 44.627826776940211 3.5371852593652626 62.091851125325334 0 0 -1 I I #
coedge $-1 $359 $359 $-1 $515 reversed $228 $-1 #
edge $-1 $516 0 $516 6.2831853071796004 $229 $517 forward 7 unknown #
vertex $-1 $232 $518 #
ellipse-curve $-1 41.109291881284186 6.1762024878603548 3.3909493491662168 0.52991927123019833 0 0.84804809178421925 0.84804809178421925 0 -0.52991927123019833 1 I I #
coedge $-1 $363 $363 $-1 $519 reversed $235 $-1 #
edge $-1 $520 0 $520 6.2831853071796004 $236 $521 forward 7 unknown #
vertex $-1 $239 $522 #
ellipse-curve $-1 41.109291881284186 10.134728330602993 3.3909493491662168 0.52991927123019833 0 0.84804809178421925 0.84804809178421925 0 -0.52991927123019833 1 I I #
face $-1 $-1 $255 $36 $-1 $523 reversed single #
loop $-1 $-1 $383 $240 #
plane-surface $-1 0 23.661723605409708 0 0 -1 0 0 0 -1 forward_v I I I I #
coedge $-1 $524 $381 $384 $525 forward $241 $-1 #
coedge $-1 $387 $243 $244 $375 reversed $151 $-1 #
coedge $-1 $381 $524 $243 $373 reversed $241 $-1 #
edge $-1 $388 -5.589574009450784 $526 5.589574009450784 $372 $527 forward 7 unknown #
coedge $-1 $245 $244 $524 $528 forward $97 $-1 #
edge $-1 $379 -44.627826776940211 $526 44.627826776940211 $371 $529 forward 7 unknown #
coedge $-1 $384 $383 $245 $377 reversed $368 $-1 #
edge $-1 $530 -44.627826776940211 $378 44.627826776940211 $376 $531 forward 7 unknown #
vertex $-1 $247 $532 #
vertex $-1 $390 $533 #
straight-curve $-1 44.627826776940211 0 -5.589574009450784 0 -1 0 I I #
coedge $-1 $370 $372 $248 $382 reversed $241 $-1 #
edge $-1 $385 -23.661723605409708 $388 23.661723605409708 $381 $534 forward 7 unknown #
coedge $-1 $376 $249 $254 $391 forward $368 $-1 #
coedge $-1 $249 $376 $370 $525 reversed $368 $-1 #
vertex $-1 $250 $535 #
straight-curve $-1 0 23.661723605409708 5.589574009450784 -1 0 0 I I #
coedge $-1 $251 $371 $253 $390 reversed $151 $-1 #
vertex $-1 $382 $536 #
straight-curve $-1 0 -23.661723605409708 5.589574009450784 1 0 0 I I #
edge $-1 $256 -5.589574009450784 $379 5.589574009450784 $253 $537 forward 7 unknown #
edge $-1 $257 -5.589574009450784 $378 5.589574009450784 $254 $538 forward 7 unknown #
point $-1 44.627826776940211 -23.661723605409708 5.589574009450784 #
point $-1 44.627826776940211 23.661723605409708 5.589574009450784 #
face $-1 $-1 $274 $37 $-1 $539 reversed single #
loop $-1 $-1 $270 $259 #
plane-surface $-1 0 -23.661723605409708 0 0 1 0 0 0 1 forward_v I I I I #
coedge $-1 $540 $541 $267 $407 forward $260 $-1 #
coedge $-1 $408 $262 $264 $403 reversed $159 $-1 #
edge $-1 $405 -0.019251361307337955 $275 3.0584857581516571 $273 $542 forward 7 unknown #
coedge $-1 $264 $263 $543 $544 reversed $101 $-1 #
coedge $-1 $412 $411 $263 $402 forward $395 $-1 #
edge $-1 $545 -44.627826776940211 $404 44.627826776940211 $401 $546 forward 7 unknown #
edge $-1 $547 -44.627826776940211 $405 44.627826776940211 $398 $548 forward 7 unknown #
vertex $-1 $402 $549 #
vertex $-1 $266 $550 #
straight-curve $-1 44.627826776940211 -10.825887374126479 1.5003658371148219 0 1 0 I I #
edge $-1 $413 -12.835836231283229 $409 -8.8159385169697284 $397 $551 forward 7 unknown #
coedge $-1 $268 $398 $540 $552 reversed $159 $-1 #
vertex $-1 $407 $553 #
straight-curve $-1 0 -19.641825891096207 4.5781029565738169 -1 0 0 I I #
coedge $-1 $401 $270 $541 $554 forward $395 $-1 #
coedge $-1 $270 $401 $272 $415 reversed $395 $-1 #
vertex $-1 $554 $555 #
straight-curve $-1 0 -23.661723605409708 4.5781029565738169 -1 0 0 I I #
edge $-1 $276 -4.5781029565738169 $404 -1.5003658371148219 $272 $556 forward 7 unknown #
point $-1 44.627826776940211 -19.641825891096207 4.5781029565738169 #
point $-1 44.627826776940211 -23.661723605409708 4.5781029565738169 #
face $-1 $-1 $435 $38 $-1 $557 reversed single #
loop $-1 $-1 $431 $278 #
plane-surface $-1 -44.627826776940211 0 0 1 0 0 0 0 -1 forward_v I I I I #
coedge $-1 $438 $281 $282 $425 reversed $167 $-1 #
coedge $-1 $431 $558 $281 $423 forward $419 $-1 #
edge $-1 $559 -0.019251361307337955 $439 3.0584857581516571 $422 $560 forward 7 unknown #
coedge $-1 $283 $282 $558 $561 reversed $105 $-1 #
edge $-1 $428 -44.627826776940211 $559 44.627826776940211 $421 $562 forward 7 unknown #
coedge $-1 $434 $433 $283 $427 forward $435 $-1 #
edge $-1 $429 -44.627826776940211 $563 44.627826776940211 $426 $564 forward 7 unknown #
vertex $-1 $285 $565 #
vertex $-1 $427 $566 #
straight-curve $-1 44.627826776940211 10.825887374126479 1.5003658371148219 0 1 0 I I #
coedge $-1 $567 $422 $286 $432 forward $419 $-1 #
edge $-1 $439 8.8159385169697284 $436 12.835836231283229 $431 $568 forward 7 unknown #
coedge $-1 $426 $287 $292 $442 forward $435 $-1 #
coedge $-1 $287 $426 $567 $569 reversed $435 $-1 #
loop $-1 $-1 $287 $418 #
vertex $-1 $569 $570 #
straight-curve $-1 0 23.661723605409708 4.5781029565738169 1 0 0 I I #
coedge $-1 $289 $421 $291 $441 reversed $167 $-1 #
vertex $-1 $432 $571 #
straight-curve $-1 0 19.641825891096207 4.5781029565738169 1 0 0 I I #
edge $-1 $294 -3.0584857581516571 $428 0.019251361307337955 $291 $572 forward 7 unknown #
edge $-1 $293 -4.5781029565738169 $429 -1.5003658371148219 $292 $573 forward 7 unknown #
point $-1 44.627826776940211 23.661723605409708 4.5781029565738169 #
point $-1 44.627826776940211 19.641825891096207 4.5781029565738169 #
loop $-1 $-1 $304 $296 #
plane-surface $-1 0 0 5.589574009450784 0 0 1 1 0 0 forward_v I I I I #
coedge $-1 $448 $299 $301 $452 reversed $175 $-1 #
coedge $-1 $299 $447 $574 $575 reversed $175 $-1 #
coedge $-1 $307 $302 $299 $450 forward $297 $-1 #
edge $-1 $453 -29.82647106268913 $576 -26.586141018353665 $449 $577 forward 7 unknown #
coedge $-1 $301 $300 $456 $578 reversed $109 $-1 #
edge $-1 $579 -4.504588798919575 $453 0 $447 $580 forward 7 unknown #
vertex $-1 $303 $581 #
straight-curve $-1 -44.627826776940211 -4.1748395750315099 2.3492439651153223 0 -1 0 I I #
coedge $-1 $574 $304 $307 $460 forward $445 $-1 #
coedge $-1 $304 $574 $451 $578 forward $445 $-1 #
vertex $-1 $305 $582 #
straight-curve $-1 -54.416485759427125 -3.6480103181777856 5.5895740094507858 -1 0 0 I I #
straight-curve $-1 -44.627826776940211 -3.6480103181777856 2.3492439651153205 0.69465836192734942 0 0.71933980857756763 I I #
edge $-1 $308 3.6480103181777856 $576 13.051347981948254 $307 $583 forward 7 unknown #
point $-1 -44.627826776940211 -3.6480103181777856 5.589574009450784 #
point $-1 -44.627826776940211 -3.6480103181777856 2.3492439651153205 #
edge $-1 $584 1 $584 0 $311 $-1 forward 7 unknown #
vertex $-1 $312 $585 #
ellipse-curve $-1 -42.343911830255763 -10.364680078013834 3.2747506253557068 -0.71933980857756763 0 0.69465836192734942 0.34732918096367471 0 0.35966990428878381 1 I I #
point $-1 -42.715922457869659 -10.364680078013834 4.3290788915718403 #
edge $-1 $586 1 $586 0 $315 $-1 forward 7 unknown #
vertex $-1 $316 $587 #
ellipse-curve $-1 -42.343911830255763 -6.3346782221122062 3.2747506253557068 -0.71933980857756763 0 0.69465836192734942 0.34732918096367471 0 0.35966990428878381 1 I I #
point $-1 -42.715922457869659 -6.3346782221122062 4.3290788915718403 #
plane-surface $-1 -44.627826776940211 0 0 1 0 0 0 0 -1 forward_v I I I I #
coedge $-1 $482 $481 $474 $588 forward $320 $-1 #
coedge $-1 $474 $322 $324 $478 reversed $197 $-1 #
coedge $-1 $322 $473 $472 $588 reversed $197 $-1 #
coedge $-1 $330 $325 $322 $476 forward $331 $-1 #
edge $-1 $479 -29.82647106268913 $589 -26.586141018353665 $475 $590 forward 7 unknown #
coedge $-1 $324 $323 $482 $591 reversed $123 $-1 #
edge $-1 $592 -4.504588798919575 $479 0 $473 $593 forward 7 unknown #
vertex $-1 $326 $594 #
straight-curve $-1 -44.627826776940211 4.1748395750315144 2.3492439651153223 0 -1 0 I I #
coedge $-1 $472 $327 $330 $486 forward $320 $-1 #
coedge $-1 $327 $472 $477 $591 forward $320 $-1 #
vertex $-1 $328 $595 #
straight-curve $-1 -54.416485759427125 13.051347981948263 5.5895740094507858 -1 0 0 I I #
straight-curve $-1 -44.627826776940211 13.051347981948263 2.3492439651153205 0.69465836192734942 0 0.71933980857756763 I I #
edge $-1 $332 -13.051347981948263 $589 -3.6480103181777945 $330 $596 forward 7 unknown #
point $-1 -44.627826776940211 13.051347981948263 5.589574009450784 #
point $-1 -44.627826776940211 13.051347981948263 2.3492439651153205 #
edge $-1 $597 1 $597 0 $335 $-1 forward 7 unknown #
vertex $-1 $336 $598 #
ellipse-curve $-1 -42.343911830255763 6.3346782221122133 3.2747506253557068 -0.71933980857756763 0 0.69465836192734942 0.34732918096367471 0 0.35966990428878381 1 I I #
point $-1 -42.715922457869659 6.3346782221122133 4.3290788915718403 #
edge $-1 $599 1 $599 0 $339 $-1 forward 7 unknown #
vertex $-1 $340 $600 #
ellipse-curve $-1 -42.343911830255763 10.364680078013844 3.2747506253557068 -0.71933980857756763 0 0.69465836192734942 0.34732918096367471 0 0.35966990428878381 1 I I #
point $-1 -42.715922457869659 10.364680078013844 4.3290788915718403 #
plane-surface $-1 44.627826776940211 0 0 -1 0 0 0 0 1 forward_v I I I I #
coedge $-1 $508 $507 $500 $601 forward $344 $-1 #
coedge $-1 $500 $346 $348 $504 reversed $219 $-1 #
coedge $-1 $346 $499 $498 $601 reversed $219 $-1 #
coedge $-1 $354 $349 $346 $502 forward $355 $-1 #
edge $-1 $505 -60.899526436443701 $602 -56.502277115874548 $501 $603 forward 7 unknown #
coedge $-1 $348 $347 $508 $604 reversed $137 $-1 #
edge $-1 $605 80.957692790232386 $505 89.255653553880421 $499 $606 forward 7 unknown #
vertex $-1 $350 $607 #
straight-curve $-1 44.627826776940211 4.0777327046158369 1.1923246888816337 0 1 0 I I #
coedge $-1 $498 $351 $354 $512 forward $344 $-1 #
coedge $-1 $351 $498 $503 $604 forward $344 $-1 #
vertex $-1 $352 $608 #
straight-curve $-1 8.1165154920329634 3.5371852593652626 5.5895740094507858 1 0 0 I I #
straight-curve $-1 -31.065259900381449 3.5371852593652626 48.490615573329009 -0.84804809178421925 0 0.52991927123019833 I I #
edge $-1 $356 3.5371852593652626 $602 12.773745559098085 $354 $609 forward 7 unknown #
point $-1 44.627826776940211 3.5371852593652626 5.589574009450784 #
point $-1 44.627826776940211 3.5371852593652626 1.1923246888816337 #
edge $-1 $610 1 $610 0 $359 $-1 forward 7 unknown #
vertex $-1 $360 $611 #
ellipse-curve $-1 40.102061981339475 6.1762024878603548 1.779044591195899 0.52991927123019833 0 0.84804809178421925 0.84804809178421925 0 -0.52991927123019833 1 I I #
point $-1 41.957339973068393 6.1762024878603548 2.8610300779360056 #
edge $-1 $612 1 $612 0 $363 $-1 forward 7 unknown #
vertex $-1 $364 $613 #
ellipse-curve $-1 40.102061981339475 10.134728330602993 1.779044591195899 0.52991927123019833 0 0.84804809178421925 0.84804809178421925 0 -0.52991927123019833 1 I I #
point $-1 41.957339973068393 10.134728330602993 2.8610300779360056 #
plane-surface $-1 44.627826776940211 0 0 -1 0 0 0 0 1 forward_v I I I I #
coedge $-1 $372 $370 $374 $528 reversed $241 $-1 #
edge $-1 $385 -5.589574009450784 $530 5.589574009450784 $384 $614 forward 7 unknown #
vertex $-1 $528 $615 #
straight-curve $-1 -44.627826776940211 -23.661723605409708 0 0 0 -1 I I #
edge $-1 $526 -23.661723605409708 $530 23.661723605409708 $524 $616 forward 7 unknown #
straight-curve $-1 0 -23.661723605409708 -5.589574009450784 -1 0 0 I I #
vertex $-1 $377 $617 #
straight-curve $-1 0 23.661723605409708 -5.589574009450784 1 0 0 I I #
point $-1 44.627826776940211 23.661723605409708 -5.589574009450784 #
point $-1 44.627826776940211 -23.661723605409708 -5.589574009450784 #
straight-curve $-1 -44.627826776940211 0 5.589574009450784 0 -1 0 I I #
point $-1 -44.627826776940211 23.661723605409708 5.589574009450784 #
point $-1 -44.627826776940211 -23.661723605409708 5.589574009450784 #
straight-curve $-1 44.627826776940211 -23.661723605409708 0 0 0 -1 I I #
straight-curve $-1 44.627826776940211 23.661723605409708 0 0 0 -1 I I #
plane-surface $-1 44.627826776940211 0 0 -1 0 0 0 0 1 forward_v I I I I #
coedge $-1 $543 $397 $408 $552 forward $260 $-1 #
coedge $-1 $397 $543 $411 $554 reversed $260 $-1 #
straight-curve $-1 44.627826776940211 -19.641825891096207 1.5196171984221598 0 0 1 I I #
coedge $-1 $541 $540 $400 $544 forward $260 $-1 #
edge $-1 $547 8.8159385169697284 $545 12.835836231283229 $543 $618 forward 7 unknown #
vertex $-1 $402 $619 #
straight-curve $-1 0 -23.661723605409708 1.5003658371148219 1 0 0 I I #
vertex $-1 $544 $620 #
straight-curve $-1 0 -19.641825891096207 1.5003658371148219 1 0 0 I I #
point $-1 44.627826776940211 -23.661723605409708 1.5003658371148219 #
point $-1 44.627826776940211 -19.641825891096207 1.5003658371148219 #
straight-curve $-1 -44.627826776940211 -10.825887374126479 4.5781029565738169 0 1 0 I I #
edge $-1 $409 -3.0584857581516571 $547 0.019251361307337955 $540 $621 forward 7 unknown #
point $-1 -44.627826776940211 -19.641825891096207 4.5781029565738169 #
edge $-1 $413 -4.5781029565738169 $545 -1.5003658371148219 $541 $622 forward 7 unknown #
point $-1 -44.627826776940211 -23.661723605409708 4.5781029565738169 #
straight-curve $-1 44.627826776940211 -23.661723605409708 0 0 0 -1 I I #
plane-surface $-1 0 23.661723605409708 0 0 -1 0 0 0 -1 forward_v I I I I #
coedge $-1 $422 $567 $424 $561 forward $419 $-1 #
vertex $-1 $561 $623 #
straight-curve $-1 -44.627826776940211 19.641825891096207 1.5196171984221598 0 0 1 I I #
edge $-1 $563 -12.835836231283229 $559 -8.8159385169697284 $558 $624 forward 7 unknown #
straight-curve $-1 0 19.641825891096207 1.5003658371148219 -1 0 0 I I #
vertex $-1 $427 $625 #
straight-curve $-1 0 23.661723605409708 1.5003658371148219 -1 0 0 I I #
point $-1 44.627826776940211 19.641825891096207 1.5003658371148219 #
point $-1 44.627826776940211 23.661723605409708 1.5003658371148219 #
coedge $-1 $558 $431 $434 $569 forward $419 $-1 #
straight-curve $-1 -44.627826776940211 10.825887374126479 4.5781029565738169 0 1 0 I I #
edge $-1 $436 -4.5781029565738169 $563 -1.5003658371148219 $434 $626 forward 7 unknown #
point $-1 -44.627826776940211 23.661723605409708 4.5781029565738169 #
point $-1 -44.627826776940211 19.641825891096207 4.5781029565738169 #
straight-curve $-1 44.627826776940211 19.641825891096207 1.5196171984221598 0 0 -1 I I #
straight-curve $-1 44.627826776940211 23.661723605409708 0 0 0 -1 I I #
coedge $-1 $456 $455 $448 $575 forward $445 $-1 #
edge $-1 $576 9.7886589824869148 $579 12.917809258700672 $574 $627 forward 7 unknown #
vertex $-1 $575 $628 #
straight-curve $-1 -44.627826776940211 -13.051347981948254 32.175715027804451 0 0 1 I I #
edge $-1 $579 -8.876508406916745 $457 0.52682925685372428 $456 $629 forward 7 unknown #
vertex $-1 $578 $630 #
straight-curve $-1 -44.627826776940211 -13.051347981948254 2.3492439651153205 -0.69465836192734942 0 -0.71933980857756763 I I #
point $-1 -44.627826776940211 -13.051347981948254 2.3492439651153205 #
point $-1 -41.498676500726454 -3.6480103181777856 5.589574009450784 #
straight-curve $-1 -44.627826776940211 0 5.589574009450784 0 -1 0 I I #
vertex $-1 $463 $631 #
point $-1 -41.996582649292094 -10.364680078013834 3.6344205296444905 #
vertex $-1 $467 $632 #
point $-1 -41.996582649292094 -6.3346782221122062 3.6344205296444905 #
edge $-1 $589 9.7886589824869148 $592 12.917809258700672 $472 $633 forward 7 unknown #
vertex $-1 $588 $634 #
straight-curve $-1 -44.627826776940211 3.6480103181777945 32.175715027804451 0 0 1 I I #
edge $-1 $592 -0.52682925685371984 $483 8.8765084069167486 $482 $635 forward 7 unknown #
vertex $-1 $591 $636 #
straight-curve $-1 -44.627826776940211 3.6480103181777945 2.3492439651153205 -0.69465836192734942 0 -0.71933980857756763 I I #
point $-1 -44.627826776940211 3.6480103181777945 2.3492439651153205 #
point $-1 -41.498676500726454 13.051347981948263 5.589574009450784 #
straight-curve $-1 -44.627826776940211 0 5.589574009450784 0 -1 0 I I #
vertex $-1 $489 $637 #
point $-1 -41.996582649292094 6.3346782221122133 3.6344205296444905 #
vertex $-1 $493 $638 #
point $-1 -41.996582649292094 10.364680078013844 3.6344205296444905 #
edge $-1 $602 -36.511311284907251 $605 -29.474241493595198 $498 $639 forward 7 unknown #
vertex $-1 $502 $640 #
straight-curve $-1 44.627826776940211 12.773745559098085 62.091851125325334 0 0 1 I I #
edge $-1 $605 -8.6960128544822481 $509 0.5405474452505743 $508 $641 forward 7 unknown #
vertex $-1 $604 $642 #
straight-curve $-1 -31.065259900381449 12.773745559098085 48.490615573329009 0.84804809178421925 0 -0.52991927123019833 I I #
point $-1 44.627826776940211 12.773745559098085 1.1923246888816337 #
point $-1 37.590756985628161 3.5371852593652626 5.5895740094507858 #
straight-curve $-1 44.627826776940211 0 5.589574009450784 0 1 0 I I #
vertex $-1 $515 $643 #
point $-1 40.950110073123696 6.1762024878603548 1.2491253199657006 #
vertex $-1 $519 $644 #
point $-1 40.950110073123696 10.134728330602993 1.2491253199657006 #
straight-curve $-1 -44.627826776940211 23.661723605409708 0 0 0 -1 I I #
point $-1 -44.627826776940211 -23.661723605409708 -5.589574009450784 #
straight-curve $-1 -44.627826776940211 0 -5.589574009450784 0 1 0 I I #
point $-1 -44.627826776940211 23.661723605409708 -5.589574009450784 #
straight-curve $-1 -44.627826776940211 -10.825887374126479 1.5003658371148219 0 -1 0 I I #
point $-1 -44.627826776940211 -23.661723605409708 1.5003658371148219 #
point $-1 -44.627826776940211 -19.641825891096207 1.5003658371148219 #
straight-curve $-1 -44.627826776940211 -19.641825891096207 1.5196171984221598 0 0 -1 I I #
straight-curve $-1 -44.627826776940211 -23.661723605409708 0 0 0 -1 I I #
point $-1 -44.627826776940211 19.641825891096207 1.5003658371148219 #
straight-curve $-1 -44.627826776940211 10.825887374126479 1.5003658371148219 0 -1 0 I I #
point $-1 -44.627826776940211 23.661723605409708 1.5003658371148219 #
straight-curve $-1 -44.627826776940211 23.661723605409708 0 0 0 -1 I I #
straight-curve $-1 -54.416485759427125 -13.051347981948254 5.5895740094507858 1 0 0 I I #
point $-1 -44.627826776940211 -13.051347981948254 5.589574009450784 #
straight-curve $-1 -41.498676500726461 -4.1748395750315099 5.589574009450784 0 1 0 I I #
point $-1 -41.498676500726454 -13.051347981948254 5.589574009450784 #
point $-1 -41.984241925966984 -10.364680078013834 2.9274214443920323 #
point $-1 -41.984241925966984 -6.3346782221122062 2.9274214443920323 #
straight-curve $-1 -54.416485759427125 3.6480103181777945 5.5895740094507858 1 0 0 I I #
point $-1 -44.627826776940211 3.6480103181777945 5.589574009450784 #
straight-curve $-1 -41.498676500726461 4.1748395750315144 5.589574009450784 0 1 0 I I #
point $-1 -41.498676500726454 3.6480103181777945 5.589574009450784 #
point $-1 -41.984241925966984 6.3346782221122133 2.9274214443920323 #
point $-1 -41.984241925966984 10.364680078013844 2.9274214443920323 #
straight-curve $-1 8.1165154920329634 12.773745559098085 5.5895740094507858 -1 0 0 I I #
point $-1 44.627826776940211 12.773745559098085 5.589574009450784 #
straight-curve $-1 37.590756985628175 4.0777327046158369 5.5895740094507786 0 -1 0 I I #
point $-1 37.590756985628161 12.773745559098085 5.5895740094507858 #
point $-1 39.572142710109276 6.1762024878603548 0.93099649941167972 #
point $-1 39.572142710109276 10.134728330602993 0.93099649941167972 #
End-of-ACIS-data 