500 0 6 0           
7 Unknown 11 ACIS 5.0 NT 24 Fri Mar 26 00:20:26 1999 
-1 9.9999999999999995e-007 1e-010 
body $-1 $6 $-1 $7 #
body $-1 $8 $-1 $9 #
body $-1 $10 $-1 $11 #
body $-1 $12 $-1 $13 #
body $-1 $14 $-1 $15 #
body $-1 $16 $-1 $17 #
lump $-1 $-1 $18 $0 #
transform $-1 1 0 0 0 1 0 0 0 1 77.885677663502918 37.512149742556154 17.66117390342076 1 rotate no_reflect no_shear #
lump $-1 $-1 $19 $1 #
transform $-1 1 0 0 0 1 0 0 0 1 77.885677663502918 37.512149742556154 17.66117390342076 1 rotate no_reflect no_shear #
lump $-1 $-1 $20 $2 #
transform $-1 1 0 0 0 1 0 0 0 1 77.885677663502918 37.512149742556154 17.66117390342076 1 rotate no_reflect no_shear #
lump $-1 $-1 $21 $3 #
transform $-1 1 0 0 0 1 0 0 0 1 77.885677663502918 37.512149742556154 17.66117390342076 1 rotate no_reflect no_shear #
lump $-1 $-1 $22 $4 #
transform $-1 1 0 0 0 1 0 0 0 1 77.885677663502918 37.512149742556154 17.66117390342076 1 rotate no_reflect no_shear #
lump $-1 $-1 $23 $5 #
transform $-1 1 0 0 0 1 0 0 0 1 77.885677663502918 37.512149742556154 17.66117390342076 1 rotate no_reflect no_shear #
shell $-1 $-1 $-1 $24 $-1 $6 #
shell $-1 $-1 $-1 $25 $-1 $8 #
shell $-1 $-1 $-1 $26 $-1 $10 #
shell $-1 $-1 $-1 $27 $-1 $12 #
shell $-1 $-1 $-1 $28 $-1 $14 #
shell $-1 $-1 $-1 $29 $-1 $16 #
face $-1 $30 $31 $18 $-1 $32 forward single #
face $-1 $33 $34 $19 $-1 $35 forward single #
face $-1 $36 $37 $20 $-1 $38 reversed single #
face $-1 $39 $40 $21 $-1 $41 reversed single #
face $-1 $42 $43 $22 $-1 $44 forward single #
face $-1 $45 $46 $23 $-1 $47 forward single #
face $-1 $48 $49 $18 $-1 $50 reversed single #
loop $-1 $-1 $51 $24 #
plane-surface $-1 0 0 17.66117390342076 0 0 1 1 0 0 forward_v I I I I #
face $-1 $52 $53 $19 $-1 $54 reversed single #
loop $-1 $-1 $55 $25 #
plane-surface $-1 -77.885677663502918 0 0 1 0 0 0 0 -1 forward_v I I I I #
face $-1 $56 $57 $20 $-1 $58 reversed single #
loop $-1 $-1 $59 $26 #
plane-surface $-1 69.718175704962675 -8.763680338695119 0 0 1 0 0 0 1 forward_v I I I I #
face $-1 $60 $61 $21 $-1 $62 reversed single #
loop $-1 $-1 $63 $27 #
plane-surface $-1 -54.723404093847009 71.340623487406987 181.86383526006506 1 0 0 0 -0.6018150307709319 -0.79863550430605224 forward_v I I I I #
face $-1 $64 $65 $22 $-1 $66 forward single #
loop $-1 $67 $68 $28 #
cone-surface $-1 -50.785874295938356 33.23732744425449 14.02509507164925 0 -0.6018150307709319 -0.79863550430605224 1.5 0 0 1 I I 0 1 1.5 forward I I I I #
face $-1 $69 $70 $23 $-1 $71 forward single #
loop $-1 $72 $73 $29 #
cone-surface $-1 -44.879579599075385 33.23732744425449 14.02509507164925 0 -0.6018150307709319 -0.79863550430605224 1.5 0 0 1 I I 0 1 1.5 forward I I I I #
face $-1 $74 $75 $18 $-1 $76 reversed single #
loop $-1 $-1 $77 $30 #
plane-surface $-1 0 0 -17.66117390342076 0 0 1 1 0 0 forward_v I I I I #
coedge $-1 $78 $79 $80 $81 forward $31 $-1 #
face $-1 $82 $83 $19 $-1 $84 forward single #
loop $-1 $-1 $85 $33 #
plane-surface $-1 0 37.512149742556154 0 0 -1 0 0 0 -1 forward_v I I I I #
coedge $-1 $86 $87 $88 $89 forward $34 $-1 #
face $-1 $90 $91 $20 $-1 $92 reversed single #
loop $-1 $-1 $93 $36 #
plane-surface $-1 61.550673746422419 -5.4767411372048755 0 1 0 0 0 0 -1 forward_v I I I I #
coedge $-1 $94 $95 $96 $97 forward $37 $-1 #
face $-1 $98 $99 $21 $-1 $100 reversed single #
loop $-1 $-1 $101 $39 #
plane-surface $-1 -47.83272694750687 -22.404919511944797 57.4593003420445 0 0.6018150307709319 0.79863550430605224 1 0 0 forward_v I I I I #
coedge $-1 $102 $103 $104 $105 reversed $40 $-1 #
face $-1 $-1 $106 $22 $-1 $107 forward single #
loop $-1 $108 $109 $42 #
cone-surface $-1 -50.785874295938356 32.062730223982534 12.466351943936584 0 -0.6018150307709319 -0.79863550430605224 0.75 0 0 1 I I -0.70710678118654757 0.70710678118654757 0.75 forward I I I I #
loop $-1 $-1 $110 $28 #
coedge $-1 $68 $68 $111 $112 reversed $43 $-1 #
face $-1 $-1 $113 $23 $-1 $114 forward single #
loop $-1 $115 $116 $45 #
cone-surface $-1 -44.879579599075385 32.062730223982534 12.466351943936584 0 -0.6018150307709319 -0.79863550430605224 0.75 0 0 1 I I -0.70710678118654757 0.70710678118654757 0.75 forward I I I I #
loop $-1 $-1 $117 $29 #
coedge $-1 $73 $73 $118 $119 reversed $46 $-1 #
face $-1 $120 $121 $18 $-1 $122 reversed single #
loop $-1 $-1 $123 $48 #
plane-surface $-1 0 -37.512149742556154 0 0 1 0 0 0 1 forward_v I I I I #
coedge $-1 $124 $125 $126 $127 forward $49 $-1 #
coedge $-1 $128 $51 $129 $130 forward $31 $-1 #
coedge $-1 $51 $128 $131 $132 forward $31 $-1 #
coedge $-1 $133 $134 $51 $81 reversed $135 $-1 #
edge $-1 $136 -37.512149742556154 $137 37.512149742556154 $80 $138 forward 7 unknown #
face $-1 $139 $140 $19 $-1 $141 reversed single #
loop $-1 $-1 $88 $52 #
plane-surface $-1 -89.466814448330879 0 -12.483502198625064 0 0 1 1 0 0 forward_v I I I I #
coedge $-1 $142 $143 $87 $144 forward $53 $-1 #
coedge $-1 $145 $55 $146 $147 reversed $34 $-1 #
coedge $-1 $55 $145 $85 $144 reversed $34 $-1 #
coedge $-1 $148 $149 $55 $89 reversed $83 $-1 #
edge $-1 $150 -37.512149742556154 $151 37.512149742556154 $88 $152 forward 7 unknown #
face $-1 $153 $154 $20 $-1 $155 forward single #
loop $-1 $-1 $156 $56 #
plane-surface $-1 69.718175704962675 -2.1898019357146321 0 0 -1 0 0 0 -1 forward_v I I I I #
coedge $-1 $157 $158 $159 $160 forward $57 $-1 #
coedge $-1 $161 $59 $162 $163 reversed $37 $-1 #
coedge $-1 $59 $161 $164 $165 reversed $37 $-1 #
coedge $-1 $158 $157 $59 $97 reversed $57 $-1 #
edge $-1 $166 -17.66117390342076 $167 17.66117390342076 $96 $168 forward 7 unknown #
face $-1 $169 $170 $21 $-1 $171 forward single #
loop $-1 $-1 $172 $60 #
plane-surface $-1 -40.942049801166732 71.340623487406987 181.86383526006506 -1 0 0 0 0.6018150307709319 0.79863550430605224 forward_v I I I I #
coedge $-1 $173 $174 $175 $176 reversed $61 $-1 #
coedge $-1 $103 $63 $177 $178 reversed $40 $-1 #
coedge $-1 $63 $102 $173 $179 reversed $40 $-1 #
coedge $-1 $175 $180 $63 $105 forward $170 $-1 #
edge $-1 $181 -1.841837998852661 $182 5.2613347033631399 $104 $183 forward 7 unknown #
loop $-1 $-1 $111 $64 #
plane-surface $-1 -47.83272694750687 -22.404919511944797 57.4593003420445 0 0.6018150307709319 0.79863550430605224 1 0 0 forward_v I I I I #
loop $-1 $-1 $184 $42 #
coedge $-1 $109 $109 $110 $185 reversed $65 $-1 #
coedge $-1 $110 $110 $109 $185 forward $67 $-1 #
coedge $-1 $111 $111 $68 $112 forward $106 $-1 #
edge $-1 $186 -4.2223714823366121e-015 $186 6.283185307179596 $111 $187 forward 7 unknown #
loop $-1 $-1 $118 $69 #
plane-surface $-1 -47.83272694750687 -22.404919511944797 57.4593003420445 0 0.6018150307709319 0.79863550430605224 1 0 0 forward_v I I I I #
loop $-1 $-1 $188 $45 #
coedge $-1 $116 $116 $117 $189 reversed $70 $-1 #
coedge $-1 $117 $117 $116 $189 forward $72 $-1 #
coedge $-1 $118 $118 $73 $119 forward $113 $-1 #
edge $-1 $190 -4.2223714823366121e-015 $190 6.283185307179596 $118 $191 forward 7 unknown #
face $-1 $192 $193 $18 $-1 $194 reversed single #
loop $-1 $-1 $195 $74 #
plane-surface $-1 -77.885677663502918 0 0 1 0 0 0 0 -1 forward_v I I I I #
coedge $-1 $196 $131 $197 $198 forward $75 $-1 #
coedge $-1 $199 $77 $196 $200 forward $49 $-1 #
coedge $-1 $77 $199 $201 $202 forward $49 $-1 #
coedge $-1 $134 $133 $77 $127 reversed $135 $-1 #
edge $-1 $203 -37.512149742556154 $204 37.512149742556154 $126 $205 forward 7 unknown #
coedge $-1 $79 $78 $206 $207 forward $31 $-1 #
coedge $-1 $208 $209 $78 $130 reversed $193 $-1 #
edge $-1 $137 -77.885677663502918 $210 77.885677663502918 $129 $211 forward 7 unknown #
coedge $-1 $123 $212 $79 $132 reversed $75 $-1 #
edge $-1 $213 -77.885677663502918 $136 77.885677663502918 $131 $214 forward 7 unknown #
coedge $-1 $126 $80 $212 $215 forward $135 $-1 #
coedge $-1 $80 $126 $208 $216 reversed $135 $-1 #
loop $-1 $-1 $133 $192 #
vertex $-1 $81 $217 #
vertex $-1 $81 $218 #
straight-curve $-1 77.885677663502918 0 17.66117390342076 0 1 0 I I #
face $-1 $219 $220 $19 $-1 $221 reversed single #
loop $-1 $-1 $222 $82 #
plane-surface $-1 -101.04795123315884 0 -15.072338051022912 1 0 0 0 0 -1 forward_v I I I I #
coedge $-1 $223 $85 $224 $225 reversed $53 $-1 #
coedge $-1 $85 $223 $148 $226 reversed $53 $-1 #
edge $-1 $150 12.483502198625064 $227 17.66117390342076 $85 $228 forward 7 unknown #
coedge $-1 $87 $86 $229 $230 reversed $34 $-1 #
coedge $-1 $231 $232 $86 $147 forward $233 $-1 #
edge $-1 $234 -17.66117390342076 $151 -12.483502198625064 $146 $235 forward 7 unknown #
coedge $-1 $236 $88 $143 $226 forward $83 $-1 #
coedge $-1 $88 $236 $231 $237 forward $83 $-1 #
vertex $-1 $144 $238 #
vertex $-1 $237 $239 #
straight-curve $-1 -77.885677663502918 0 -12.483502198625064 0 -1 0 I I #
face $-1 $240 $241 $20 $-1 $242 reversed single #
loop $-1 $-1 $243 $90 #
plane-surface $-1 0 0 17.66117390342076 0 0 1 1 0 0 forward_v I I I I #
coedge $-1 $244 $245 $246 $247 reversed $91 $-1 #
coedge $-1 $96 $93 $248 $249 reversed $57 $-1 #
coedge $-1 $93 $96 $250 $251 reversed $57 $-1 #
coedge $-1 $245 $244 $93 $160 reversed $91 $-1 #
edge $-1 $252 -17.66117390342076 $253 17.66117390342076 $159 $254 forward 7 unknown #
coedge $-1 $95 $94 $255 $256 reversed $37 $-1 #
coedge $-1 $248 $257 $94 $163 forward $241 $-1 #
edge $-1 $258 -43.026589811021594 $167 -26.691585893941081 $162 $259 forward 7 unknown #
coedge $-1 $260 $250 $95 $165 forward $154 $-1 #
edge $-1 $166 26.691585893941081 $261 43.026589811021594 $164 $262 forward 7 unknown #
vertex $-1 $165 $263 #
vertex $-1 $163 $264 #
straight-curve $-1 61.550673746422419 -8.763680338695119 0 0 0 -1 I I #
face $-1 $-1 $265 $21 $-1 $266 reversed single #
loop $-1 $-1 $104 $98 #
plane-surface $-1 0 0 17.66117390342076 0 0 1 1 0 0 forward_v I I I I #
coedge $-1 $267 $268 $269 $270 reversed $99 $-1 #
coedge $-1 $271 $101 $103 $179 forward $61 $-1 #
coedge $-1 $101 $271 $267 $272 forward $61 $-1 #
coedge $-1 $269 $104 $101 $176 forward $170 $-1 #
edge $-1 $182 -30.807040620093574 $273 -17.025686327413297 $175 $274 forward 7 unknown #
coedge $-1 $275 $276 $102 $178 forward $265 $-1 #
edge $-1 $277 -78.623368391188492 $181 -73.270743726611769 $177 $278 forward 7 unknown #
edge $-1 $182 66.130163594687701 $277 75.024299485112294 $103 $279 forward 7 unknown #
coedge $-1 $104 $269 $275 $280 forward $170 $-1 #
vertex $-1 $178 $281 #
vertex $-1 $105 $282 #
straight-curve $-1 -54.723404093847009 35.670311743703493 17.66117390342076 0 -1 0 I I #
coedge $-1 $184 $184 $-1 $283 reversed $108 $-1 #
edge $-1 $284 0 $284 6.2831853071796004 $109 $285 forward 7 unknown #
vertex $-1 $112 $286 #
ellipse-curve $-1 -50.785874295938356 33.960563391448261 14.984861571132399 0 0.6018150307709319 0.79863550430605224 1.5 0 0 1 I I #
coedge $-1 $188 $188 $-1 $287 reversed $115 $-1 #
edge $-1 $288 0 $288 6.2831853071796004 $116 $289 forward 7 unknown #
vertex $-1 $119 $290 #
ellipse-curve $-1 -44.879579599075385 33.960563391448261 14.984861571132399 0 0.6018150307709319 0.79863550430605224 1.5 0 0 1 I I #
face $-1 $-1 $135 $18 $-1 $291 reversed single #
loop $-1 $-1 $208 $120 #
plane-surface $-1 0 37.512149742556154 0 0 -1 0 0 0 -1 forward_v I I I I #
coedge $-1 $292 $206 $209 $293 forward $121 $-1 #
coedge $-1 $212 $123 $124 $200 reversed $75 $-1 #
coedge $-1 $206 $292 $123 $198 reversed $121 $-1 #
edge $-1 $213 -17.66117390342076 $294 17.66117390342076 $197 $295 forward 7 unknown #
coedge $-1 $125 $124 $292 $296 forward $49 $-1 #
edge $-1 $204 -77.885677663502918 $294 77.885677663502918 $196 $297 forward 7 unknown #
coedge $-1 $209 $208 $125 $202 reversed $193 $-1 #
edge $-1 $298 -77.885677663502918 $203 77.885677663502918 $201 $299 forward 7 unknown #
vertex $-1 $127 $300 #
vertex $-1 $215 $301 #
straight-curve $-1 77.885677663502918 0 -17.66117390342076 0 -1 0 I I #
coedge $-1 $195 $197 $128 $207 reversed $121 $-1 #
edge $-1 $210 -37.512149742556154 $213 37.512149742556154 $206 $302 forward 7 unknown #
coedge $-1 $201 $129 $134 $216 forward $193 $-1 #
coedge $-1 $129 $201 $195 $293 reversed $193 $-1 #
vertex $-1 $130 $303 #
straight-curve $-1 0 37.512149742556154 17.66117390342076 -1 0 0 I I #
coedge $-1 $131 $196 $133 $215 reversed $75 $-1 #
vertex $-1 $207 $304 #
straight-curve $-1 0 -37.512149742556154 17.66117390342076 1 0 0 I I #
edge $-1 $136 -17.66117390342076 $204 17.66117390342076 $133 $305 forward 7 unknown #
edge $-1 $137 -17.66117390342076 $203 17.66117390342076 $134 $306 forward 7 unknown #
point $-1 77.885677663502918 -37.512149742556154 17.66117390342076 #
point $-1 77.885677663502918 37.512149742556154 17.66117390342076 #
face $-1 $-1 $233 $19 $-1 $307 reversed single #
loop $-1 $-1 $229 $139 #
plane-surface $-1 0 0 -17.66117390342076 0 0 1 1 0 0 forward_v I I I I #
coedge $-1 $308 $309 $223 $310 forward $140 $-1 #
coedge $-1 $143 $142 $222 $310 reversed $53 $-1 #
coedge $-1 $229 $311 $142 $225 forward $220 $-1 #
edge $-1 $312 -101.04795123315884 $227 -77.885677663502918 $142 $313 forward 7 unknown #
edge $-1 $150 -11.581136784827962 $314 11.581136784827962 $143 $315 forward 7 unknown #
vertex $-1 $144 $316 #
straight-curve $-1 -77.885677663502918 37.512149742556154 0 0 0 -1 I I #
coedge $-1 $317 $224 $145 $230 forward $220 $-1 #
edge $-1 $227 -37.512149742556154 $234 37.512149742556154 $229 $318 forward 7 unknown #
coedge $-1 $319 $146 $149 $237 reversed $233 $-1 #
coedge $-1 $146 $319 $317 $320 reversed $233 $-1 #
loop $-1 $-1 $146 $219 #
vertex $-1 $320 $321 #
straight-curve $-1 -77.885677663502918 -37.512149742556154 0 0 0 1 I I #
coedge $-1 $149 $148 $309 $322 forward $83 $-1 #
edge $-1 $323 -11.581136784827962 $151 11.581136784827962 $231 $324 forward 7 unknown #
point $-1 -77.885677663502918 37.512149742556154 -12.483502198625064 #
point $-1 -77.885677663502918 -37.512149742556154 -12.483502198625064 #
face $-1 $-1 $325 $20 $-1 $326 reversed single #
loop $-1 $-1 $327 $153 #
plane-surface $-1 0 0 -17.66117390342076 0 0 1 1 0 0 forward_v I I I I #
coedge $-1 $250 $260 $245 $328 forward $154 $-1 #
coedge $-1 $159 $156 $327 $329 reversed $91 $-1 #
coedge $-1 $156 $159 $243 $328 reversed $91 $-1 #
coedge $-1 $330 $331 $156 $247 forward $325 $-1 #
edge $-1 $332 -17.66117390342076 $333 17.66117390342076 $246 $334 forward 7 unknown #
coedge $-1 $327 $162 $157 $249 forward $241 $-1 #
edge $-1 $167 -6.0253097700926812 $253 0.54856863288780566 $248 $335 forward 7 unknown #
coedge $-1 $164 $243 $158 $251 forward $154 $-1 #
edge $-1 $252 -0.54856863288780566 $166 6.0253097700926812 $250 $336 forward 7 unknown #
vertex $-1 $251 $337 #
vertex $-1 $249 $338 #
straight-curve $-1 61.550673746422419 -2.1898019357146321 0 0 0 -1 I I #
coedge $-1 $331 $330 $161 $256 forward $325 $-1 #
edge $-1 $261 -17.66117390342076 $258 17.66117390342076 $255 $339 forward 7 unknown #
coedge $-1 $162 $327 $331 $340 forward $241 $-1 #
vertex $-1 $256 $341 #
straight-curve $-1 34.859087852481338 -8.763680338695119 -17.66117390342076 -1 0 0 I I #
coedge $-1 $243 $164 $330 $342 forward $154 $-1 #
vertex $-1 $342 $343 #
straight-curve $-1 34.859087852481338 -8.763680338695119 17.66117390342076 1 0 0 I I #
point $-1 61.550673746422419 -8.763680338695119 17.66117390342076 #
point $-1 61.550673746422419 -8.763680338695119 -17.66117390342076 #
loop $-1 $-1 $177 $169 #
plane-surface $-1 0 37.512149742556154 0 0 -1 0 0 0 -1 forward_v I I I I #
coedge $-1 $268 $172 $174 $272 reversed $99 $-1 #
coedge $-1 $172 $267 $344 $345 reversed $99 $-1 #
coedge $-1 $180 $175 $172 $270 forward $170 $-1 #
edge $-1 $273 -5.2613347033631399 $346 1.841837998852661 $269 $347 forward 7 unknown #
coedge $-1 $174 $173 $276 $348 reversed $61 $-1 #
edge $-1 $349 -75.024299485112294 $273 -66.130163594687701 $267 $350 forward 7 unknown #
vertex $-1 $176 $351 #
straight-curve $-1 -23.916363473753435 30.408977040340346 17.661173903420764 1 0 0 I I #
coedge $-1 $344 $177 $180 $280 reversed $265 $-1 #
coedge $-1 $177 $344 $271 $348 forward $265 $-1 #
vertex $-1 $178 $352 #
straight-curve $-1 -54.723404093847009 37.512149742556154 90.93191763003253 0 0 1 I I #
straight-curve $-1 -54.723404093847009 -22.404919511944797 57.4593003420445 0 0.79863550430605224 -0.6018150307709319 I I #
edge $-1 $346 40.942049801166732 $181 54.723404093847009 $275 $353 forward 7 unknown #
point $-1 -54.723404093847009 37.512149742556154 17.66117390342076 #
point $-1 -54.723404093847009 30.408977040340353 17.66117390342076 #
edge $-1 $354 1 $354 0 $184 $-1 forward 7 unknown #
vertex $-1 $185 $355 #
ellipse-curve $-1 -50.785874295938356 32.514091497060733 13.065328572166123 0 0.6018150307709319 0.79863550430605224 1.5 0 0 1 I I #
point $-1 -49.285874295938356 33.96056339144824 14.984861571132381 #
edge $-1 $356 1 $356 0 $188 $-1 forward 7 unknown #
vertex $-1 $189 $357 #
ellipse-curve $-1 -44.879579599075385 32.514091497060733 13.065328572166123 0 0.6018150307709319 0.79863550430605224 1.5 0 0 1 I I #
point $-1 -43.379579599075385 33.96056339144824 14.984861571132381 #
plane-surface $-1 77.885677663502918 0 0 -1 0 0 0 0 1 forward_v I I I I #
coedge $-1 $197 $195 $199 $296 reversed $121 $-1 #
edge $-1 $210 -17.66117390342076 $298 17.66117390342076 $209 $358 forward 7 unknown #
vertex $-1 $296 $359 #
straight-curve $-1 -77.885677663502918 -37.512149742556154 0 0 0 -1 I I #
edge $-1 $294 -37.512149742556154 $298 37.512149742556154 $292 $360 forward 7 unknown #
straight-curve $-1 0 -37.512149742556154 -17.66117390342076 -1 0 0 I I #
vertex $-1 $202 $361 #
straight-curve $-1 0 37.512149742556154 -17.66117390342076 1 0 0 I I #
point $-1 77.885677663502918 37.512149742556154 -17.66117390342076 #
point $-1 77.885677663502918 -37.512149742556154 -17.66117390342076 #
straight-curve $-1 -77.885677663502918 0 17.66117390342076 0 -1 0 I I #
point $-1 -77.885677663502918 37.512149742556154 17.66117390342076 #
point $-1 -77.885677663502918 -37.512149742556154 17.66117390342076 #
straight-curve $-1 77.885677663502918 -37.512149742556154 0 0 0 -1 I I #
straight-curve $-1 77.885677663502918 37.512149742556154 0 0 0 -1 I I #
plane-surface $-1 0 -37.512149742556154 0 0 1 0 0 0 1 forward_v I I I I #
coedge $-1 $362 $222 $311 $363 reversed $140 $-1 #
coedge $-1 $222 $362 $236 $322 reversed $140 $-1 #
edge $-1 $314 -2.5888358523978479 $312 2.5888358523978479 $223 $364 forward 7 unknown #
coedge $-1 $224 $317 $308 $363 forward $220 $-1 #
vertex $-1 $225 $365 #
straight-curve $-1 0 37.512149742556154 -17.66117390342076 1 0 0 I I #
vertex $-1 $226 $366 #
straight-curve $-1 -89.466814448330879 37.512149742556154 -12.483502198625064 -1 0 0 I I #
point $-1 -77.885677663502918 37.512149742556154 -17.66117390342076 #
coedge $-1 $311 $229 $232 $320 forward $220 $-1 #
straight-curve $-1 -77.885677663502918 0 -17.66117390342076 0 -1 0 I I #
coedge $-1 $232 $231 $362 $367 forward $233 $-1 #
edge $-1 $234 -11.581136784827962 $368 11.581136784827962 $232 $369 forward 7 unknown #
point $-1 -77.885677663502918 -37.512149742556154 -17.66117390342076 #
edge $-1 $314 -37.512149742556154 $323 37.512149742556154 $309 $370 forward 7 unknown #
vertex $-1 $322 $371 #
straight-curve $-1 -89.466814448330879 -37.512149742556154 -12.483502198625064 1 0 0 I I #
loop $-1 $-1 $246 $240 #
plane-surface $-1 77.885677663502918 0 0 -1 0 0 0 0 1 forward_v I I I I #
coedge $-1 $257 $248 $244 $329 forward $241 $-1 #
edge $-1 $333 -43.026589811021594 $252 -26.691585893941081 $243 $372 forward 7 unknown #
edge $-1 $253 26.691585893941081 $332 43.026589811021594 $327 $373 forward 7 unknown #
coedge $-1 $255 $246 $260 $342 reversed $325 $-1 #
coedge $-1 $246 $255 $257 $340 reversed $325 $-1 #
vertex $-1 $340 $374 #
vertex $-1 $247 $375 #
straight-curve $-1 77.885677663502918 -2.1898019357146321 0 0 0 1 I I #
straight-curve $-1 61.550673746422419 -2.7383705686024378 -17.66117390342076 0 1 0 I I #
straight-curve $-1 61.550673746422419 -2.7383705686024378 17.66117390342076 0 -1 0 I I #
point $-1 61.550673746422419 -2.1898019357146321 17.66117390342076 #
point $-1 61.550673746422419 -2.1898019357146321 -17.66117390342076 #
straight-curve $-1 77.885677663502918 -8.763680338695119 0 0 0 -1 I I #
edge $-1 $332 2.1898019357146321 $258 8.763680338695119 $331 $376 forward 7 unknown #
point $-1 77.885677663502932 -8.763680338695119 -17.66117390342076 #
edge $-1 $261 -8.763680338695119 $333 -2.1898019357146321 $330 $377 forward 7 unknown #
point $-1 77.885677663502932 -8.763680338695119 17.66117390342076 #
coedge $-1 $276 $275 $268 $345 forward $265 $-1 #
edge $-1 $346 73.270743726611769 $349 78.623368391188492 $344 $378 forward 7 unknown #
vertex $-1 $280 $379 #
straight-curve $-1 -40.942049801166732 35.670311743703493 17.66117390342076 0 1 0 I I #
edge $-1 $349 17.025686327413297 $277 30.807040620093574 $276 $380 forward 7 unknown #
vertex $-1 $348 $381 #
straight-curve $-1 -40.942049801166732 -22.404919511944797 57.4593003420445 0 -0.79863550430605224 0.6018150307709319 I I #
point $-1 -40.942049801166732 30.408977040340353 17.66117390342076 #
point $-1 -54.723404093847009 37.512149742556154 12.308549238844037 #
straight-curve $-1 0 37.512149742556154 17.66117390342076 -1 0 0 I I #
vertex $-1 $283 $382 #
point $-1 -49.285874295938356 32.514091497060733 13.065328572166123 #
vertex $-1 $287 $383 #
point $-1 -43.379579599075385 32.514091497060733 13.065328572166123 #
straight-curve $-1 -77.885677663502918 37.512149742556154 0 0 0 -1 I I #
point $-1 -77.885677663502918 -37.512149742556154 -17.66117390342076 #
straight-curve $-1 -77.885677663502918 0 -17.66117390342076 0 1 0 I I #
point $-1 -77.885677663502918 37.512149742556154 -17.66117390342076 #
coedge $-1 $309 $308 $319 $367 reversed $140 $-1 #
edge $-1 $368 -37.512149742556154 $312 37.512149742556154 $308 $384 forward 7 unknown #
straight-curve $-1 -101.04795123315884 37.512149742556154 -15.072338051022912 0 0 -1 I I #
point $-1 -101.04795123315884 37.512149742556154 -17.66117390342076 #
point $-1 -101.04795123315884 37.512149742556154 -12.483502198625064 #
edge $-1 $323 -2.5888358523978479 $368 2.5888358523978479 $362 $385 forward 7 unknown #
vertex $-1 $363 $386 #
straight-curve $-1 -89.466814448330879 -37.512149742556154 -17.66117390342076 -1 0 0 I I #
straight-curve $-1 -101.04795123315884 0 -12.483502198625064 0 -1 0 I I #
point $-1 -101.04795123315884 -37.512149742556154 -12.483502198625064 #
straight-curve $-1 34.859087852481338 -2.1898019357146321 17.66117390342076 -1 0 0 I I #
straight-curve $-1 34.859087852481338 -2.1898019357146321 -17.66117390342076 1 0 0 I I #
point $-1 77.885677663502932 -2.1898019357146321 -17.66117390342076 #
point $-1 77.885677663502932 -2.1898019357146321 17.66117390342076 #
straight-curve $-1 77.885677663502918 0 -17.66117390342076 0 -1 0 I I #
straight-curve $-1 77.885677663502918 0 17.66117390342076 0 1 0 I I #
straight-curve $-1 -40.942049801166732 37.512149742556154 90.93191763003253 0 0 -1 I I #
point $-1 -40.942049801166732 37.512149742556154 17.66117390342076 #
straight-curve $-1 -23.916363473753435 37.512149742556154 12.308549238844041 -1 0 0 I I #
point $-1 -40.942049801166732 37.512149742556154 12.308549238844037 #
point $-1 -50.785874295938356 31.611368950904335 11.867375315707044 #
point $-1 -44.879579599075385 31.611368950904335 11.867375315707044 #
straight-curve $-1 -101.04795123315884 0 -17.66117390342076 0 1 0 I I #
straight-curve $-1 -101.04795123315884 -37.512149742556154 -15.072338051022912 0 0 -1 I I #
point $-1 -101.04795123315884 -37.512149742556154 -17.66117390342076 #
End-of-ACIS-data 