500 0 10 0           
7 Unknown 11 ACIS 5.0 NT 24 Fri Mar 26 01:06:18 1999 
-1 9.9999999999999995e-007 1e-010 
body $-1 $10 $-1 $11 #
body $-1 $12 $-1 $13 #
body $-1 $14 $-1 $15 #
body $-1 $16 $-1 $17 #
body $-1 $18 $-1 $19 #
body $-1 $20 $-1 $21 #
body $-1 $22 $-1 $23 #
body $-1 $24 $-1 $25 #
body $-1 $26 $-1 $27 #
body $-1 $28 $-1 $29 #
lump $-1 $-1 $30 $0 #
transform $-1 1 0 0 0 1 0 0 0 1 52.095095675527205 22.641421766556306 5.9880538660535594 1 rotate no_reflect no_shear #
lump $-1 $-1 $31 $1 #
transform $-1 1 0 0 0 1 0 0 0 1 52.095095675527205 22.641421766556306 5.9880538660535594 1 rotate no_reflect no_shear #
lump $-1 $-1 $32 $2 #
transform $-1 1 0 0 0 1 0 0 0 1 52.095095675527205 22.641421766556306 5.9880538660535594 1 rotate no_reflect no_shear #
lump $-1 $-1 $33 $3 #
transform $-1 1 0 0 0 1 0 0 0 1 52.095095675527205 22.641421766556306 5.9880538660535594 1 rotate no_reflect no_shear #
lump $-1 $-1 $34 $4 #
transform $-1 1 0 0 0 1 0 0 0 1 52.095095675527205 22.641421766556306 5.9880538660535594 1 rotate no_reflect no_shear #
lump $-1 $-1 $35 $5 #
transform $-1 1 0 0 0 1 0 0 0 1 52.095095675527205 22.641421766556306 5.9880538660535594 1 rotate no_reflect no_shear #
lump $-1 $-1 $36 $6 #
transform $-1 1 0 0 0 1 0 0 0 1 52.095095675527205 22.641421766556306 5.9880538660535594 1 rotate no_reflect no_shear #
lump $-1 $-1 $37 $7 #
transform $-1 1 0 0 0 1 0 0 0 1 52.095095675527205 22.641421766556306 5.9880538660535594 1 rotate no_reflect no_shear #
lump $-1 $-1 $38 $8 #
transform $-1 1 0 0 0 1 0 0 0 1 52.095095675527205 22.641421766556306 5.9880538660535594 1 rotate no_reflect no_shear #
lump $-1 $-1 $39 $9 #
transform $-1 1 0 0 0 1 0 0 0 1 52.095095675527205 22.641421766556306 5.9880538660535594 1 rotate no_reflect no_shear #
shell $-1 $-1 $-1 $40 $-1 $10 #
shell $-1 $-1 $-1 $41 $-1 $12 #
shell $-1 $-1 $-1 $42 $-1 $14 #
shell $-1 $-1 $-1 $43 $-1 $16 #
shell $-1 $-1 $-1 $44 $-1 $18 #
shell $-1 $-1 $-1 $45 $-1 $20 #
shell $-1 $-1 $-1 $46 $-1 $22 #
shell $-1 $-1 $-1 $47 $-1 $24 #
shell $-1 $-1 $-1 $48 $-1 $26 #
shell $-1 $-1 $-1 $49 $-1 $28 #
face $-1 $50 $51 $30 $-1 $52 reversed single #
face $-1 $53 $54 $31 $-1 $55 forward single #
face $-1 $56 $57 $32 $-1 $58 reversed single #
face $-1 $59 $60 $33 $-1 $61 forward single #
face $-1 $62 $63 $34 $-1 $64 forward single #
face $-1 $65 $66 $35 $-1 $67 forward single #
face $-1 $68 $69 $36 $-1 $70 reversed single #
face $-1 $71 $72 $37 $-1 $73 forward single #
face $-1 $74 $75 $38 $-1 $76 forward single #
face $-1 $77 $78 $39 $-1 $79 forward single #
face $-1 $80 $81 $30 $-1 $82 forward single #
loop $-1 $-1 $83 $40 #
plane-surface $-1 0 -22.641421766556306 0 0 1 0 0 0 1 forward_v I I I I #
face $-1 $84 $85 $31 $-1 $86 reversed single #
loop $-1 $-1 $87 $41 #
plane-surface $-1 0 -22.641421766556306 0 0 1 0 0 0 1 forward_v I I I I #
face $-1 $88 $89 $32 $-1 $90 reversed single #
loop $-1 $-1 $91 $42 #
plane-surface $-1 -136.38673197837647 3.8223115499565896 63.213461034718975 0 1 0 -0.80901700255871778 0 0.5877852410284794 forward_v I I I I #
face $-1 $92 $93 $33 $-1 $94 forward single #
loop $-1 $95 $96 $43 #
cone-surface $-1 -49.833551848735091 5.6504264362668941 3.3968853840610524 0.80901700255871778 0 -0.5877852410284794 0.2938926205142397 0 0.40450850127935889 1 I I 0 1 0.5 forward I I I I #
face $-1 $97 $98 $34 $-1 $99 forward single #
loop $-1 $100 $101 $44 #
cone-surface $-1 -49.833551848735091 8.3925987657323446 3.3968853840610524 0.80901700255871778 0 -0.5877852410284794 0.2938926205142397 0 0.40450850127935889 1 I I 0 1 0.5 forward I I I I #
face $-1 $102 $103 $35 $-1 $104 forward single #
loop $-1 $105 $106 $45 #
cone-surface $-1 -49.833551848735091 11.134771095197799 3.3968853840610524 0.80901700255871778 0 -0.5877852410284794 0.2938926205142397 0 0.40450850127935889 1 I I 0 1 0.5 forward I I I I #
face $-1 $107 $108 $36 $-1 $109 reversed single #
loop $-1 $-1 $110 $46 #
plane-surface $-1 75.145275242293579 12.9628859815081 147.50509733756829 0 -1 0 -0.80901700255871778 0 -0.5877852410284794 forward_v I I I I #
face $-1 $111 $112 $37 $-1 $113 forward single #
loop $-1 $114 $115 $47 #
cone-surface $-1 49.833551848735098 5.6504264362668941 3.3968853840610524 -0.80901700255871778 0 -0.5877852410284794 0.2938926205142397 0 -0.40450850127935889 1 I I 0 1 0.5 forward I I I I #
face $-1 $116 $117 $38 $-1 $118 forward single #
loop $-1 $119 $120 $48 #
cone-surface $-1 49.833551848735098 8.3925987657323446 3.3968853840610524 -0.80901700255871778 0 -0.5877852410284794 0.2938926205142397 0 -0.40450850127935889 1 I I 0 1 0.5 forward I I I I #
face $-1 $121 $122 $39 $-1 $123 forward single #
loop $-1 $124 $125 $49 #
cone-surface $-1 49.833551848735098 11.134771095197799 3.3968853840610524 -0.80901700255871778 0 -0.5877852410284794 0.2938926205142397 0 -0.40450850127935889 1 I I 0 1 0.5 forward I I I I #
face $-1 $126 $127 $30 $-1 $128 reversed single #
loop $-1 $-1 $129 $50 #
plane-surface $-1 0 0 5.9880538660535594 0 0 1 1 0 0 forward_v I I I I #
coedge $-1 $130 $131 $132 $133 reversed $51 $-1 #
face $-1 $134 $135 $31 $-1 $136 reversed single #
loop $-1 $-1 $137 $53 #
plane-surface $-1 0 0 -5.9880538660535594 0 0 1 1 0 0 forward_v I I I I #
coedge $-1 $138 $139 $140 $141 forward $54 $-1 #
face $-1 $142 $143 $32 $-1 $144 reversed single #
loop $-1 $-1 $145 $56 #
plane-surface $-1 -52.09509567552719 8.3925987657323446 1.9720042986360724 -0.80901700255871778 0 0.5877852410284794 0.5877852410284794 0 0.80901700255871778 forward_v I I I I #
coedge $-1 $146 $147 $148 $149 reversed $57 $-1 #
face $-1 $-1 $150 $33 $-1 $151 forward single #
loop $-1 $152 $153 $59 #
cone-surface $-1 -48.828669131240666 5.6504264362668941 2.6667953755201692 0.80901700255871778 0 -0.5877852410284794 0.14694631025711985 0 0.20225425063967944 1 I I -0.70710678118654746 0.70710678118654746 0.25 forward I I I I #
loop $-1 $-1 $154 $43 #
coedge $-1 $96 $96 $155 $156 reversed $60 $-1 #
face $-1 $-1 $157 $34 $-1 $158 forward single #
loop $-1 $159 $160 $62 #
cone-surface $-1 -48.828669131240666 8.3925987657323446 2.6667953755201692 0.80901700255871778 0 -0.5877852410284794 0.14694631025711985 0 0.20225425063967944 1 I I -0.70710678118654746 0.70710678118654746 0.25 forward I I I I #
loop $-1 $-1 $161 $44 #
coedge $-1 $101 $101 $162 $163 reversed $63 $-1 #
face $-1 $-1 $164 $35 $-1 $165 forward single #
loop $-1 $166 $167 $65 #
cone-surface $-1 -48.828669131240666 11.134771095197799 2.6667953755201692 0.80901700255871778 0 -0.5877852410284794 0.14694631025711985 0 0.20225425063967944 1 I I -0.70710678118654746 0.70710678118654746 0.25 forward I I I I #
loop $-1 $-1 $168 $45 #
coedge $-1 $106 $106 $169 $170 reversed $66 $-1 #
face $-1 $171 $172 $36 $-1 $173 reversed single #
loop $-1 $-1 $174 $68 #
plane-surface $-1 -9.1463610605557051 8.3925987657323446 86.263640601485378 0.80901700255871778 0 0.5877852410284794 0.5877852410284794 0 -0.80901700255871778 forward_v I I I I #
coedge $-1 $175 $176 $177 $178 reversed $69 $-1 #
face $-1 $-1 $179 $37 $-1 $180 forward single #
loop $-1 $181 $182 $71 #
cone-surface $-1 48.828669131240673 5.6504264362668941 2.6667953755201692 -0.80901700255871778 0 -0.5877852410284794 0.14694631025711985 0 -0.20225425063967944 1 I I -0.70710678118654746 0.70710678118654746 0.25 forward I I I I #
loop $-1 $-1 $183 $47 #
coedge $-1 $115 $115 $184 $185 reversed $72 $-1 #
face $-1 $-1 $186 $38 $-1 $187 forward single #
loop $-1 $188 $189 $74 #
cone-surface $-1 48.828669131240673 8.3925987657323446 2.6667953755201692 -0.80901700255871778 0 -0.5877852410284794 0.14694631025711985 0 -0.20225425063967944 1 I I -0.70710678118654746 0.70710678118654746 0.25 forward I I I I #
loop $-1 $-1 $190 $48 #
coedge $-1 $120 $120 $191 $192 reversed $75 $-1 #
face $-1 $-1 $193 $39 $-1 $194 forward single #
loop $-1 $195 $196 $77 #
cone-surface $-1 48.828669131240673 11.134771095197799 2.6667953755201692 -0.80901700255871778 0 -0.5877852410284794 0.14694631025711985 0 -0.20225425063967944 1 I I -0.70710678118654746 0.70710678118654746 0.25 forward I I I I #
loop $-1 $-1 $197 $49 #
coedge $-1 $125 $125 $198 $199 reversed $78 $-1 #
face $-1 $200 $201 $30 $-1 $202 reversed single #
loop $-1 $-1 $203 $80 #
plane-surface $-1 0 0 -5.9880538660535594 0 0 1 1 0 0 forward_v I I I I #
coedge $-1 $204 $205 $206 $207 forward $81 $-1 #
coedge $-1 $208 $83 $209 $210 reversed $51 $-1 #
coedge $-1 $83 $208 $211 $212 forward $51 $-1 #
coedge $-1 $213 $203 $83 $133 forward $127 $-1 #
edge $-1 $214 -52.095095675527205 $215 52.095095675527205 $83 $216 forward 7 unknown #
face $-1 $217 $218 $31 $-1 $219 reversed single #
loop $-1 $-1 $220 $84 #
plane-surface $-1 -46.628207767917623 -29.514776328730569 0 0 1 0 0 0 1 forward_v I I I I #
coedge $-1 $221 $222 $139 $223 forward $85 $-1 #
coedge $-1 $224 $87 $225 $226 reversed $54 $-1 #
coedge $-1 $87 $224 $137 $223 reversed $54 $-1 #
coedge $-1 $227 $228 $87 $141 reversed $218 $-1 #
edge $-1 $229 -5.9880538660535594 $230 5.9880538660535594 $140 $231 forward 7 unknown #
face $-1 $232 $233 $32 $-1 $234 reversed single #
loop $-1 $-1 $235 $88 #
plane-surface $-1 -136.38673197837647 12.9628859815081 63.213461034718975 0 -1 0 0.80901700255871778 0 -0.5877852410284794 forward_v I I I I #
coedge $-1 $236 $237 $238 $239 reversed $89 $-1 #
coedge $-1 $147 $91 $240 $241 reversed $57 $-1 #
coedge $-1 $91 $146 $236 $242 reversed $57 $-1 #
coedge $-1 $238 $243 $91 $149 forward $244 $-1 #
edge $-1 $245 16.098270313661033 $246 19.01610103353579 $148 $247 forward 7 unknown #
loop $-1 $-1 $155 $92 #
plane-surface $-1 -52.09509567552719 8.3925987657323446 1.9720042986360724 -0.80901700255871778 0 0.5877852410284794 0.5877852410284794 0 0.80901700255871778 forward_v I I I I #
loop $-1 $-1 $248 $59 #
coedge $-1 $153 $153 $154 $249 reversed $93 $-1 #
coedge $-1 $154 $154 $153 $249 forward $95 $-1 #
coedge $-1 $155 $155 $96 $156 forward $150 $-1 #
edge $-1 $250 0 $250 6.2831853071796004 $155 $251 forward 7 unknown #
loop $-1 $-1 $162 $97 #
plane-surface $-1 -52.09509567552719 8.3925987657323446 1.9720042986360724 -0.80901700255871778 0 0.5877852410284794 0.5877852410284794 0 0.80901700255871778 forward_v I I I I #
loop $-1 $-1 $252 $62 #
coedge $-1 $160 $160 $161 $253 reversed $98 $-1 #
coedge $-1 $161 $161 $160 $253 forward $100 $-1 #
coedge $-1 $162 $162 $101 $163 forward $157 $-1 #
edge $-1 $254 0 $254 6.2831853071796004 $162 $255 forward 7 unknown #
loop $-1 $-1 $169 $102 #
plane-surface $-1 -52.09509567552719 8.3925987657323446 1.9720042986360724 -0.80901700255871778 0 0.5877852410284794 0.5877852410284794 0 0.80901700255871778 forward_v I I I I #
loop $-1 $-1 $256 $65 #
coedge $-1 $167 $167 $168 $257 reversed $103 $-1 #
coedge $-1 $168 $168 $167 $257 forward $105 $-1 #
coedge $-1 $169 $169 $106 $170 forward $164 $-1 #
edge $-1 $258 0 $258 6.2831853071796004 $169 $259 forward 7 unknown #
face $-1 $260 $261 $36 $-1 $262 forward single #
loop $-1 $-1 $263 $107 #
plane-surface $-1 75.145275242293579 3.8223115499565896 147.50509733756829 0 1 0 0.80901700255871778 0 0.5877852410284794 forward_v I I I I #
coedge $-1 $264 $265 $266 $267 reversed $108 $-1 #
coedge $-1 $176 $110 $268 $269 reversed $69 $-1 #
coedge $-1 $110 $175 $264 $270 reversed $69 $-1 #
coedge $-1 $266 $271 $110 $178 forward $261 $-1 #
edge $-1 $272 -14.522458054380415 $273 -11.604627334505686 $177 $274 forward 7 unknown #
loop $-1 $-1 $184 $111 #
plane-surface $-1 -9.1463610605557051 8.3925987657323446 86.263640601485378 0.80901700255871778 0 0.5877852410284794 0.5877852410284794 0 -0.80901700255871778 forward_v I I I I #
loop $-1 $-1 $275 $71 #
coedge $-1 $182 $182 $183 $276 reversed $112 $-1 #
coedge $-1 $183 $183 $182 $276 forward $114 $-1 #
coedge $-1 $184 $184 $115 $185 forward $179 $-1 #
edge $-1 $277 0 $277 6.2831853071796004 $184 $278 forward 7 unknown #
loop $-1 $-1 $191 $116 #
plane-surface $-1 -9.1463610605557051 8.3925987657323446 86.263640601485378 0.80901700255871778 0 0.5877852410284794 0.5877852410284794 0 -0.80901700255871778 forward_v I I I I #
loop $-1 $-1 $279 $74 #
coedge $-1 $189 $189 $190 $280 reversed $117 $-1 #
coedge $-1 $190 $190 $189 $280 forward $119 $-1 #
coedge $-1 $191 $191 $120 $192 forward $186 $-1 #
edge $-1 $281 0 $281 6.2831853071796004 $191 $282 forward 7 unknown #
loop $-1 $-1 $198 $121 #
plane-surface $-1 -9.1463610605557051 8.3925987657323446 86.263640601485378 0.80901700255871778 0 0.5877852410284794 0.5877852410284794 0 -0.80901700255871778 forward_v I I I I #
loop $-1 $-1 $283 $77 #
coedge $-1 $196 $196 $197 $284 reversed $122 $-1 #
coedge $-1 $197 $197 $196 $284 forward $124 $-1 #
coedge $-1 $198 $198 $125 $199 forward $193 $-1 #
edge $-1 $285 0 $285 6.2831853071796004 $198 $286 forward 7 unknown #
face $-1 $287 $288 $30 $-1 $289 reversed single #
loop $-1 $-1 $290 $126 #
plane-surface $-1 -52.095095675527205 0 0 1 0 0 0 0 -1 forward_v I I I I #
coedge $-1 $132 $291 $292 $293 forward $127 $-1 #
coedge $-1 $294 $129 $295 $296 forward $81 $-1 #
coedge $-1 $129 $294 $208 $297 forward $81 $-1 #
coedge $-1 $209 $298 $129 $207 reversed $299 $-1 #
edge $-1 $300 -22.641421766556306 $301 22.641421766556306 $206 $302 forward 7 unknown #
coedge $-1 $131 $130 $205 $297 reversed $51 $-1 #
coedge $-1 $292 $206 $130 $210 forward $299 $-1 #
edge $-1 $300 -5.9880538660535594 $214 5.9880538660535594 $209 $303 forward 7 unknown #
coedge $-1 $304 $305 $131 $212 reversed $201 $-1 #
edge $-1 $306 -5.9880538660535594 $215 5.9880538660535594 $211 $307 forward 7 unknown #
coedge $-1 $291 $132 $305 $308 forward $127 $-1 #
vertex $-1 $210 $309 #
vertex $-1 $308 $310 #
straight-curve $-1 0 -22.641421766556306 -5.9880538660535594 -1 0 0 I I #
face $-1 $311 $312 $31 $-1 $313 reversed single #
loop $-1 $-1 $140 $134 #
plane-surface $-1 -48.128207767917623 -26.078099047643438 0 1 0 0 0 0 -1 forward_v I I I I #
coedge $-1 $314 $315 $316 $317 forward $135 $-1 #
coedge $-1 $318 $137 $319 $320 forward $85 $-1 #
coedge $-1 $137 $318 $227 $321 forward $85 $-1 #
edge $-1 $229 -48.128207767917623 $322 -45.128207767917623 $137 $323 forward 7 unknown #
coedge $-1 $139 $138 $324 $325 forward $54 $-1 #
coedge $-1 $326 $327 $138 $226 forward $328 $-1 #
edge $-1 $329 45.128207767917623 $230 48.128207767917623 $225 $330 forward 7 unknown #
coedge $-1 $316 $140 $222 $321 reversed $218 $-1 #
coedge $-1 $140 $316 $326 $331 reversed $218 $-1 #
vertex $-1 $223 $332 #
vertex $-1 $331 $333 #
straight-curve $-1 -48.128207767917623 -22.641421766556306 0 0 0 1 I I #
face $-1 $-1 $244 $32 $-1 $334 forward single #
loop $-1 $-1 $335 $142 #
plane-surface $-1 -52.095095675527205 0 0 1 0 0 0 0 -1 forward_v I I I I #
coedge $-1 $336 $337 $338 $339 reversed $143 $-1 #
coedge $-1 $340 $145 $147 $242 forward $89 $-1 #
coedge $-1 $145 $340 $336 $341 forward $89 $-1 #
coedge $-1 $338 $148 $145 $239 forward $244 $-1 #
edge $-1 $246 -0.37398783290958271 $342 8.7665865986419274 $238 $343 forward 7 unknown #
coedge $-1 $344 $345 $146 $241 forward $233 $-1 #
edge $-1 $346 -29.634726218723436 $245 -25.618676651305929 $240 $347 forward 7 unknown #
edge $-1 $246 -4.9641102161212078 $346 2.4161062406544664e-014 $147 $348 forward 7 unknown #
coedge $-1 $148 $338 $344 $349 forward $244 $-1 #
loop $-1 $-1 $338 $232 #
vertex $-1 $241 $350 #
vertex $-1 $149 $351 #
straight-curve $-1 -68.193365989188237 3.8223115499565896 5.9880538660535585 1 0 0 I I #
coedge $-1 $248 $248 $-1 $352 reversed $152 $-1 #
edge $-1 $353 0 $353 6.2831853071796004 $153 $354 forward 7 unknown #
vertex $-1 $156 $355 #
ellipse-curve $-1 -50.636180315589826 5.6504264362668941 3.9800290823448079 -0.80901700255871778 0 0.5877852410284794 0.2938926205142397 0 0.40450850127935889 1 I I #
coedge $-1 $252 $252 $-1 $356 reversed $159 $-1 #
edge $-1 $357 0 $357 6.2831853071796004 $160 $358 forward 7 unknown #
vertex $-1 $163 $359 #
ellipse-curve $-1 -50.636180315589826 8.3925987657323446 3.9800290823448079 -0.80901700255871778 0 0.5877852410284794 0.2938926205142397 0 0.40450850127935889 1 I I #
coedge $-1 $256 $256 $-1 $360 reversed $166 $-1 #
edge $-1 $361 0 $361 6.2831853071796004 $167 $362 forward 7 unknown #
vertex $-1 $170 $363 #
ellipse-curve $-1 -50.636180315589826 11.134771095197799 3.9800290823448079 -0.80901700255871778 0 0.5877852410284794 0.2938926205142397 0 0.40450850127935889 1 I I #
face $-1 $-1 $364 $36 $-1 $365 reversed single #
loop $-1 $-1 $177 $171 #
plane-surface $-1 0 0 5.9880538660535594 0 0 1 1 0 0 forward_v I I I I #
coedge $-1 $366 $367 $368 $369 reversed $172 $-1 #
coedge $-1 $370 $174 $176 $270 forward $108 $-1 #
coedge $-1 $174 $370 $366 $371 forward $108 $-1 #
coedge $-1 $368 $177 $174 $267 forward $261 $-1 #
edge $-1 $273 -8.7665865986419274 $372 0.37398783290958271 $266 $373 forward 7 unknown #
coedge $-1 $374 $375 $175 $269 forward $364 $-1 #
edge $-1 $376 -71.78054437014805 $272 -67.764494802730582 $268 $377 forward 7 unknown #
edge $-1 $273 99.226081134933224 $376 104.19019135105441 $176 $378 forward 7 unknown #
coedge $-1 $177 $368 $374 $379 forward $261 $-1 #
vertex $-1 $178 $380 #
vertex $-1 $178 $381 #
straight-curve $-1 37.572637621146789 12.9628859815081 5.988053866053562 -1 0 0 I I #
coedge $-1 $275 $275 $-1 $382 reversed $181 $-1 #
edge $-1 $383 0 $383 6.2831853071796004 $182 $384 forward 7 unknown #
vertex $-1 $185 $385 #
ellipse-curve $-1 50.63618031558984 5.6504264362668941 3.9800290823448154 0.80901700255871778 0 0.5877852410284794 0.2938926205142397 0 -0.40450850127935889 1 I I #
coedge $-1 $279 $279 $-1 $386 reversed $188 $-1 #
edge $-1 $387 0 $387 6.2831853071796004 $189 $388 forward 7 unknown #
vertex $-1 $192 $389 #
ellipse-curve $-1 50.63618031558984 8.3925987657323446 3.9800290823448154 0.80901700255871778 0 0.5877852410284794 0.2938926205142397 0 -0.40450850127935889 1 I I #
coedge $-1 $283 $283 $-1 $390 reversed $195 $-1 #
edge $-1 $391 0 $391 6.2831853071796004 $196 $392 forward 7 unknown #
vertex $-1 $199 $393 #
ellipse-curve $-1 50.63618031558984 11.134771095197799 3.9800290823448154 0.80901700255871778 0 0.5877852410284794 0.2938926205142397 0 -0.40450850127935889 1 I I #
face $-1 $-1 $299 $30 $-1 $394 reversed single #
loop $-1 $-1 $395 $200 #
plane-surface $-1 0 22.641421766556306 0 0 -1 0 0 0 -1 forward_v I I I I #
coedge $-1 $305 $304 $396 $397 forward $201 $-1 #
coedge $-1 $203 $213 $398 $399 forward $127 $-1 #
coedge $-1 $298 $209 $203 $293 reversed $299 $-1 #
edge $-1 $400 -22.641421766556306 $214 22.641421766556306 $292 $401 forward 7 unknown #
coedge $-1 $205 $204 $304 $402 forward $81 $-1 #
coedge $-1 $395 $396 $204 $296 reversed $288 $-1 #
edge $-1 $301 -52.095095675527205 $403 52.095095675527205 $295 $404 forward 7 unknown #
edge $-1 $306 -52.095095675527205 $300 52.095095675527205 $208 $405 forward 7 unknown #
coedge $-1 $206 $292 $395 $406 reversed $299 $-1 #
loop $-1 $-1 $209 $287 #
vertex $-1 $207 $407 #
vertex $-1 $207 $408 #
straight-curve $-1 52.095095675527205 0 5.9880538660535594 0 1 0 I I #
straight-curve $-1 52.095095675527205 -22.641421766556306 0 0 0 -1 I I #
coedge $-1 $290 $211 $294 $402 reversed $201 $-1 #
coedge $-1 $211 $290 $213 $308 reversed $201 $-1 #
vertex $-1 $402 $409 #
straight-curve $-1 -52.095095675527205 -22.641421766556306 0 0 0 -1 I I #
edge $-1 $215 -22.641421766556306 $410 22.641421766556306 $305 $411 forward 7 unknown #
point $-1 52.095095675527205 -22.641421766556306 -5.9880538660535594 #
point $-1 -52.095095675527205 -22.641421766556306 -5.9880538660535594 #
face $-1 $-1 $328 $31 $-1 $412 forward single #
loop $-1 $-1 $413 $217 #
plane-surface $-1 -45.128207767917623 -26.078099047643438 0 -1 0 0 0 0 1 forward_v I I I I #
coedge $-1 $414 $220 $318 $415 reversed $135 $-1 #
coedge $-1 $220 $414 $416 $417 reversed $135 $-1 #
coedge $-1 $228 $227 $220 $317 reversed $218 $-1 #
edge $-1 $418 -5.9880538660535594 $419 5.9880538660535594 $316 $420 forward 7 unknown #
coedge $-1 $222 $221 $314 $415 forward $85 $-1 #
coedge $-1 $324 $413 $221 $320 reversed $312 $-1 #
edge $-1 $322 -3.4366772810871318 $421 3.4366772810871318 $319 $422 forward 7 unknown #
edge $-1 $419 -3.4366772810871318 $229 3.4366772810871318 $227 $423 forward 7 unknown #
vertex $-1 $320 $424 #
straight-curve $-1 0 -22.641421766556306 -5.9880538660535594 1 0 0 I I #
coedge $-1 $425 $319 $224 $325 reversed $312 $-1 #
edge $-1 $329 -5.9880538660535594 $322 5.9880538660535594 $324 $426 forward 7 unknown #
coedge $-1 $416 $225 $228 $331 forward $328 $-1 #
coedge $-1 $225 $416 $425 $427 forward $328 $-1 #
loop $-1 $-1 $225 $311 #
vertex $-1 $226 $428 #
straight-curve $-1 0 -22.641421766556306 5.9880538660535594 -1 0 0 I I #
edge $-1 $230 -3.4366772810871318 $418 3.4366772810871318 $228 $429 forward 7 unknown #
point $-1 -48.128207767917623 -22.641421766556306 -5.9880538660535594 #
point $-1 -48.128207767917623 -22.641421766556306 5.9880538660535594 #
plane-surface $-1 0 0 5.9880538660535594 0 0 1 1 0 0 forward_v I I I I #
coedge $-1 $345 $344 $337 $430 forward $233 $-1 #
coedge $-1 $337 $235 $237 $341 reversed $143 $-1 #
coedge $-1 $235 $336 $335 $430 reversed $143 $-1 #
coedge $-1 $243 $238 $235 $339 forward $244 $-1 #
edge $-1 $342 -19.01610103353579 $431 -16.098270313661033 $338 $432 forward 7 unknown #
coedge $-1 $237 $236 $345 $433 reversed $89 $-1 #
edge $-1 $434 -2.4161062406544664e-014 $342 4.9641102161212078 $336 $435 forward 7 unknown #
vertex $-1 $239 $436 #
straight-curve $-1 -49.177264955652447 4.1962993828661723 5.9880538660535603 0 1 0 I I #
coedge $-1 $335 $240 $243 $349 reversed $233 $-1 #
coedge $-1 $240 $335 $340 $433 forward $233 $-1 #
vertex $-1 $241 $437 #
straight-curve $-1 -52.095095675527205 3.8223115499565896 31.606730517359487 0 0 1 I I #
straight-curve $-1 -52.09509567552719 3.8223115499565896 1.9720042986360724 -0.5877852410284794 0 -0.80901700255871778 I I #
edge $-1 $431 -12.9628859815081 $245 -3.8223115499565896 $344 $438 forward 7 unknown #
point $-1 -52.095095675527205 3.8223115499565896 5.9880538660535594 #
point $-1 -49.177264955652447 3.8223115499565896 5.9880538660535594 #
edge $-1 $439 1 $439 0 $248 $-1 forward 7 unknown #
vertex $-1 $249 $440 #
ellipse-curve $-1 -49.030923381880342 5.6504264362668941 2.813741685777289 -0.80901700255871778 0 0.5877852410284794 0.2938926205142397 0 0.40450850127935889 1 I I #
point $-1 -50.342287695075598 5.6504264362668941 4.3845375836241747 #
edge $-1 $441 1 $441 0 $252 $-1 forward 7 unknown #
vertex $-1 $253 $442 #
ellipse-curve $-1 -49.030923381880342 8.3925987657323446 2.813741685777289 -0.80901700255871778 0 0.5877852410284794 0.2938926205142397 0 0.40450850127935889 1 I I #
point $-1 -50.342287695075598 8.3925987657323446 4.3845375836241747 #
edge $-1 $443 1 $443 0 $256 $-1 forward 7 unknown #
vertex $-1 $257 $444 #
ellipse-curve $-1 -49.030923381880342 11.134771095197799 2.813741685777289 -0.80901700255871778 0 0.5877852410284794 0.2938926205142397 0 0.40450850127935889 1 I I #
point $-1 -50.342287695075598 11.134771095197799 4.3845375836241747 #
loop $-1 $-1 $268 $260 #
plane-surface $-1 52.095095675527205 0 0 -1 0 0 0 0 1 forward_v I I I I #
coedge $-1 $367 $263 $265 $371 reversed $172 $-1 #
coedge $-1 $263 $366 $445 $446 reversed $172 $-1 #
coedge $-1 $271 $266 $263 $369 forward $261 $-1 #
edge $-1 $372 11.604627334505686 $447 14.522458054380415 $368 $448 forward 7 unknown #
coedge $-1 $265 $264 $375 $449 reversed $108 $-1 #
edge $-1 $450 -104.19019135105441 $372 -99.226081134933224 $366 $451 forward 7 unknown #
vertex $-1 $267 $452 #
straight-curve $-1 49.177264955652475 4.1962993828661723 5.988053866053562 0 -1 0 I I #
coedge $-1 $445 $268 $271 $379 reversed $364 $-1 #
coedge $-1 $268 $445 $370 $449 forward $364 $-1 #
vertex $-1 $269 $453 #
straight-curve $-1 52.095095675527205 12.9628859815081 73.752548668784144 0 0 1 I I #
straight-curve $-1 -9.1463610605557051 12.9628859815081 86.263640601485378 0.5877852410284794 0 -0.80901700255871778 I I #
edge $-1 $447 3.8223115499565896 $272 12.9628859815081 $374 $454 forward 7 unknown #
point $-1 52.095095675527205 12.9628859815081 5.9880538660535594 #
point $-1 49.177264955652475 12.9628859815081 5.988053866053562 #
edge $-1 $455 1 $455 0 $275 $-1 forward 7 unknown #
vertex $-1 $276 $456 #
ellipse-curve $-1 49.030923381880349 5.6504264362668941 2.813741685777289 0.80901700255871778 0 0.5877852410284794 0.2938926205142397 0 -0.40450850127935889 1 I I #
point $-1 50.930072936104082 5.6504264362668941 3.5755205810654567 #
edge $-1 $457 1 $457 0 $279 $-1 forward 7 unknown #
vertex $-1 $280 $458 #
ellipse-curve $-1 49.030923381880349 8.3925987657323446 2.813741685777289 0.80901700255871778 0 0.5877852410284794 0.2938926205142397 0 -0.40450850127935889 1 I I #
point $-1 50.930072936104082 8.3925987657323446 3.5755205810654567 #
edge $-1 $459 1 $459 0 $283 $-1 forward 7 unknown #
vertex $-1 $284 $460 #
ellipse-curve $-1 49.030923381880349 11.134771095197799 2.813741685777289 0.80901700255871778 0 0.5877852410284794 0.2938926205142397 0 -0.40450850127935889 1 I I #
point $-1 50.930072936104082 11.134771095197799 3.5755205810654567 #
plane-surface $-1 52.095095675527205 0 0 -1 0 0 0 0 1 forward_v I I I I #
coedge $-1 $398 $295 $298 $406 forward $288 $-1 #
coedge $-1 $295 $398 $290 $397 reversed $288 $-1 #
edge $-1 $403 -5.9880538660535594 $410 5.9880538660535594 $396 $461 forward 7 unknown #
coedge $-1 $396 $395 $291 $399 reversed $288 $-1 #
edge $-1 $410 -52.095095675527205 $400 52.095095675527205 $398 $462 forward 7 unknown #
vertex $-1 $293 $463 #
straight-curve $-1 52.095095675527205 0 -5.9880538660535594 0 -1 0 I I #
edge $-1 $403 -22.641421766556306 $306 22.641421766556306 $304 $464 forward 7 unknown #
vertex $-1 $296 $465 #
straight-curve $-1 0 22.641421766556306 5.9880538660535594 -1 0 0 I I #
straight-curve $-1 0 -22.641421766556306 5.9880538660535594 1 0 0 I I #
edge $-1 $301 -5.9880538660535594 $400 5.9880538660535594 $298 $466 forward 7 unknown #
point $-1 52.095095675527205 -22.641421766556306 5.9880538660535594 #
point $-1 52.095095675527205 22.641421766556306 5.9880538660535594 #
point $-1 -52.095095675527205 -22.641421766556306 5.9880538660535594 #
vertex $-1 $399 $467 #
straight-curve $-1 -52.095095675527205 0 -5.9880538660535594 0 1 0 I I #
plane-surface $-1 0 0 5.9880538660535594 0 0 1 1 0 0 forward_v I I I I #
coedge $-1 $319 $425 $414 $468 forward $312 $-1 #
coedge $-1 $315 $314 $413 $468 reversed $135 $-1 #
edge $-1 $421 -1.5 $419 1.5 $314 $469 forward 7 unknown #
coedge $-1 $327 $326 $315 $417 forward $328 $-1 #
edge $-1 $418 -1.5 $470 1.5 $315 $471 forward 7 unknown #
vertex $-1 $331 $472 #
vertex $-1 $321 $473 #
straight-curve $-1 -48.128207767917623 -29.514776328730569 0 0 0 -1 I I #
vertex $-1 $468 $474 #
straight-curve $-1 -45.128207767917623 -26.078099047643438 -5.9880538660535594 0 -1 0 I I #
straight-curve $-1 -48.128207767917623 -26.078099047643438 -5.9880538660535594 0 1 0 I I #
point $-1 -45.128207767917623 -22.641421766556306 -5.9880538660535594 #
coedge $-1 $413 $324 $327 $427 reversed $312 $-1 #
straight-curve $-1 -45.128207767917623 -22.641421766556306 0 0 0 -1 I I #
edge $-1 $470 -3.4366772810871318 $329 3.4366772810871318 $425 $475 forward 7 unknown #
point $-1 -45.128207767917623 -22.641421766556306 5.9880538660535594 #
straight-curve $-1 -48.128207767917623 -26.078099047643438 5.9880538660535594 0 -1 0 I I #
edge $-1 $431 25.618676651305929 $434 29.634726218723436 $335 $476 forward 7 unknown #
vertex $-1 $349 $477 #
straight-curve $-1 -68.193365989188237 12.9628859815081 5.9880538660535585 -1 0 0 I I #
edge $-1 $434 -8.7665865986419274 $346 0.37398783290958271 $345 $478 forward 7 unknown #
vertex $-1 $433 $479 #
straight-curve $-1 -52.09509567552719 12.9628859815081 1.9720042986360724 0.5877852410284794 0 0.80901700255871778 I I #
point $-1 -49.177264955652447 12.9628859815081 5.9880538660535594 #
point $-1 -52.095095675527205 3.8223115499565896 1.9720042986360529 #
straight-curve $-1 -52.095095675527205 0 5.9880538660535594 0 -1 0 I I #
vertex $-1 $352 $480 #
point $-1 -48.737030761366107 5.6504264362668941 3.2182501870566478 #
vertex $-1 $356 $481 #
point $-1 -48.737030761366107 8.3925987657323446 3.2182501870566478 #
vertex $-1 $360 $482 #
point $-1 -48.737030761366107 11.134771095197799 3.2182501870566478 #
coedge $-1 $375 $374 $367 $446 forward $364 $-1 #
edge $-1 $447 67.764494802730582 $450 71.78054437014805 $445 $483 forward 7 unknown #
vertex $-1 $379 $484 #
straight-curve $-1 37.572637621146789 3.8223115499565896 5.988053866053562 1 0 0 I I #
edge $-1 $450 -0.37398783290958271 $376 8.7665865986419274 $375 $485 forward 7 unknown #
vertex $-1 $449 $486 #
straight-curve $-1 -9.1463610605557051 3.8223115499565896 86.263640601485378 -0.5877852410284794 0 0.80901700255871778 I I #
point $-1 49.177264955652475 3.8223115499565896 5.988053866053562 #
point $-1 52.095095675527197 12.9628859815081 1.9720042986360937 #
straight-curve $-1 52.095095675527205 0 5.9880538660535594 0 1 0 I I #
vertex $-1 $382 $487 #
point $-1 49.324816002394591 5.6504264362668941 2.4092331844979302 #
vertex $-1 $386 $488 #
point $-1 49.324816002394591 8.3925987657323446 2.4092331844979302 #
vertex $-1 $390 $489 #
point $-1 49.324816002394591 11.134771095197799 2.4092331844979302 #
straight-curve $-1 -52.095095675527205 22.641421766556306 0 0 0 -1 I I #
straight-curve $-1 0 22.641421766556306 -5.9880538660535594 1 0 0 I I #
point $-1 52.095095675527205 22.641421766556306 -5.9880538660535594 #
straight-curve $-1 -52.095095675527205 0 5.9880538660535594 0 -1 0 I I #
point $-1 -52.095095675527205 22.641421766556306 5.9880538660535594 #
straight-curve $-1 52.095095675527205 22.641421766556306 0 0 0 -1 I I #
point $-1 -52.095095675527205 22.641421766556306 -5.9880538660535594 #
edge $-1 $470 -5.9880538660535594 $421 5.9880538660535594 $413 $490 forward 7 unknown #
straight-curve $-1 -46.628207767917623 -29.514776328730569 -5.9880538660535594 -1 0 0 I I #
vertex $-1 $427 $491 #
straight-curve $-1 -46.628207767917623 -29.514776328730569 5.9880538660535594 1 0 0 I I #
point $-1 -48.128207767917623 -29.514776328730569 5.9880538660535594 #
point $-1 -48.128207767917623 -29.514776328730569 -5.9880538660535594 #
point $-1 -45.128207767917623 -29.514776328730569 -5.9880538660535594 #
straight-curve $-1 -45.128207767917623 -26.078099047643438 5.9880538660535594 0 1 0 I I #
straight-curve $-1 -52.095095675527205 12.9628859815081 31.606730517359487 0 0 -1 I I #
point $-1 -52.095095675527205 12.9628859815081 5.9880538660535594 #
straight-curve $-1 -52.095095675527205 4.1962993828661723 1.9720042986360515 0 -1 0 I I #
point $-1 -52.095095675527205 12.9628859815081 1.9720042986360529 #
point $-1 -48.62641488060099 5.6504264362668941 2.5198490652630494 #
point $-1 -48.62641488060099 8.3925987657323446 2.5198490652630494 #
point $-1 -48.62641488060099 11.134771095197799 2.5198490652630494 #
straight-curve $-1 52.095095675527205 3.8223115499565896 73.752548668784144 0 0 -1 I I #
point $-1 52.095095675527205 3.8223115499565896 5.9880538660535594 #
straight-curve $-1 52.095095675527205 4.1962993828661723 1.9720042986360937 0 1 0 I I #
point $-1 52.095095675527197 3.8223115499565896 1.9720042986360937 #
point $-1 48.626414880600997 5.6504264362668941 2.5198490652630494 #
point $-1 48.626414880600997 8.3925987657323446 2.5198490652630494 #
point $-1 48.626414880600997 11.134771095197799 2.5198490652630494 #
straight-curve $-1 -45.128207767917623 -29.514776328730569 0 0 0 -1 I I #
point $-1 -45.128207767917623 -29.514776328730569 5.9880538660535594 #
End-of-ACIS-data 