500 0 8 0           
7 Unknown 11 ACIS 5.0 NT 24 Thu Mar 25 16:03:48 1999 
-1 9.9999999999999995e-007 1e-010 
body $-1 $8 $-1 $9 #
body $-1 $10 $-1 $11 #
body $-1 $12 $-1 $13 #
body $-1 $14 $-1 $15 #
body $-1 $16 $-1 $17 #
body $-1 $18 $-1 $19 #
body $-1 $20 $-1 $21 #
body $-1 $22 $-1 $23 #
lump $-1 $-1 $24 $0 #
transform $-1 1 0 0 0 1 0 0 0 1 59.805291909543143 39.401369691605439 13.944335566018657 1 rotate no_reflect no_shear #
lump $-1 $-1 $25 $1 #
transform $-1 1 0 0 0 1 0 0 0 1 59.805291909543143 39.401369691605439 13.944335566018657 1 rotate no_reflect no_shear #
lump $-1 $-1 $26 $2 #
transform $-1 1 0 0 0 1 0 0 0 1 59.805291909543143 39.401369691605439 13.944335566018657 1 rotate no_reflect no_shear #
lump $-1 $-1 $27 $3 #
transform $-1 1 0 0 0 1 0 0 0 1 59.805291909543143 39.401369691605439 13.944335566018657 1 rotate no_reflect no_shear #
lump $-1 $-1 $28 $4 #
transform $-1 1 0 0 0 1 0 0 0 1 59.805291909543143 39.401369691605439 13.944335566018657 1 rotate no_reflect no_shear #
lump $-1 $-1 $29 $5 #
transform $-1 1 0 0 0 1 0 0 0 1 59.805291909543143 39.401369691605439 13.944335566018657 1 rotate no_reflect no_shear #
lump $-1 $-1 $30 $6 #
transform $-1 1 0 0 0 1 0 0 0 1 59.805291909543143 39.401369691605439 13.944335566018657 1 rotate no_reflect no_shear #
lump $-1 $-1 $31 $7 #
transform $-1 1 0 0 0 1 0 0 0 1 59.805291909543143 39.401369691605439 13.944335566018657 1 rotate no_reflect no_shear #
shell $-1 $-1 $-1 $32 $-1 $8 #
shell $-1 $-1 $-1 $33 $-1 $10 #
shell $-1 $-1 $-1 $34 $-1 $12 #
shell $-1 $-1 $-1 $35 $-1 $14 #
shell $-1 $-1 $-1 $36 $-1 $16 #
shell $-1 $-1 $-1 $37 $-1 $18 #
shell $-1 $-1 $-1 $38 $-1 $20 #
shell $-1 $-1 $-1 $39 $-1 $22 #
face $-1 $40 $41 $24 $-1 $42 forward single #
face $-1 $43 $44 $25 $-1 $45 forward single #
face $-1 $46 $47 $26 $-1 $48 reversed single #
face $-1 $49 $50 $27 $-1 $51 forward single #
face $-1 $52 $53 $28 $-1 $54 forward single #
face $-1 $55 $56 $29 $-1 $57 forward single #
face $-1 $58 $59 $30 $-1 $60 reversed single #
face $-1 $61 $62 $31 $-1 $63 forward single #
face $-1 $64 $65 $24 $-1 $66 reversed single #
loop $-1 $-1 $67 $32 #
plane-surface $-1 0 0 13.944335566018657 0 0 1 1 0 0 forward_v I I I I #
face $-1 $68 $69 $25 $-1 $70 reversed single #
loop $-1 $-1 $71 $33 #
plane-surface $-1 0 -34.454971247711214 13.44433556601866 0 0 1 1 0 0 forward_v I I I I #
face $-1 $72 $73 $26 $-1 $74 reversed single #
loop $-1 $-1 $75 $34 #
plane-surface $-1 -161.24082074534684 -25.756511655141352 67.103428604467695 0 1 0 -0.84804810408105047 0 0.52991925155115449 forward_v I I I I #
face $-1 $76 $77 $27 $-1 $78 forward single #
loop $-1 $79 $80 $35 #
cone-surface $-1 -55.588165842898292 -21.908936466900894 8.1929614376522029 0.84804810408105047 0 -0.52991925155115449 0.79487887732673168 0 1.2720721561215758 1 I I 0 1 1.5 forward I I I I #
face $-1 $81 $82 $28 $-1 $83 forward single #
loop $-1 $84 $85 $36 #
cone-surface $-1 -55.588165842898292 -16.137573684540204 8.1929614376522029 0.84804810408105047 0 -0.52991925155115449 0.79487887732673168 0 1.2720721561215758 1 I I 0 1 1.5 forward I I I I #
face $-1 $86 $87 $29 $-1 $88 forward single #
loop $-1 $89 $90 $37 #
cone-surface $-1 -55.588165842898292 -10.366210902179514 8.1929614376522029 0.84804810408105047 0 -0.52991925155115449 0.79487887732673168 0 1.2720721561215758 1 I I 0 1 1.5 forward I I I I #
face $-1 $91 $92 $30 $-1 $93 reversed single #
loop $-1 $-1 $94 $38 #
plane-surface $-1 56.853133590870229 -9.5180822808083505 172.54902199779309 0 -1 0 -0.69465837861970381 0 -0.71933979245794832 forward_v I I I I #
face $-1 $95 $96 $31 $-1 $97 forward single #
loop $-1 $98 $99 $39 #
cone-surface $-1 51.319096016617479 -15.264292839521918 5.5372028476069408 -0.69465837861970381 0 -0.71933979245794832 1.7983494811448708 0 -1.7366459465492596 1 I I 0 1 2.5 forward I I I I #
face $-1 $100 $101 $24 $-1 $102 reversed single #
loop $-1 $-1 $103 $40 #
plane-surface $-1 0 0 -13.944335566018657 0 0 1 1 0 0 forward_v I I I I #
coedge $-1 $104 $105 $106 $107 forward $41 $-1 #
face $-1 $108 $109 $25 $-1 $110 reversed single #
loop $-1 $-1 $111 $43 #
plane-surface $-1 0 -34.454971247711214 7.9793748289448221 0 0 1 1 0 0 forward_v I I I I #
coedge $-1 $112 $113 $114 $115 reversed $44 $-1 #
face $-1 $116 $117 $26 $-1 $118 reversed single #
loop $-1 $-1 $119 $46 #
plane-surface $-1 -59.805291909543143 -16.137573684540204 3.7194775494608621 -0.84804810408105047 0 0.52991925155115449 0.52991925155115449 0 0.84804810408105047 forward_v I I I I #
coedge $-1 $120 $121 $122 $123 reversed $47 $-1 #
face $-1 $-1 $124 $27 $-1 $125 forward single #
loop $-1 $126 $127 $49 #
cone-surface $-1 -53.929603792972941 -21.908936466900894 7.1565768789012854 0.84804810408105047 0 -0.52991925155115449 0.39743943866336584 0 0.63603607806078788 1 I I -0.70710678118654757 0.70710678118654757 0.75 forward I I I I #
loop $-1 $-1 $128 $35 #
coedge $-1 $80 $80 $129 $130 reversed $50 $-1 #
face $-1 $-1 $131 $28 $-1 $132 forward single #
loop $-1 $133 $134 $52 #
cone-surface $-1 -53.929603792972941 -16.137573684540204 7.1565768789012854 0.84804810408105047 0 -0.52991925155115449 0.39743943866336584 0 0.63603607806078788 1 I I -0.70710678118654757 0.70710678118654757 0.75 forward I I I I #
loop $-1 $-1 $135 $36 #
coedge $-1 $85 $85 $136 $137 reversed $53 $-1 #
face $-1 $-1 $138 $29 $-1 $139 forward single #
loop $-1 $140 $141 $55 #
cone-surface $-1 -53.929603792972941 -10.366210902179514 7.1565768789012854 0.84804810408105047 0 -0.52991925155115449 0.39743943866336584 0 0.63603607806078788 1 I I -0.70710678118654757 0.70710678118654757 0.75 forward I I I I #
loop $-1 $-1 $142 $37 #
coedge $-1 $90 $90 $143 $144 reversed $56 $-1 #
face $-1 $145 $146 $30 $-1 $147 reversed single #
loop $-1 $-1 $148 $58 #
plane-surface $-1 -26.235360630652437 -15.264292839521918 86.508369457597524 0.69465837861970381 0 0.71933979245794832 0.71933979245794832 0 -0.69465837861970381 forward_v I I I I #
coedge $-1 $149 $150 $151 $152 reversed $59 $-1 #
face $-1 $-1 $153 $31 $-1 $154 forward single #
loop $-1 $155 $156 $61 #
cone-surface $-1 47.413775880674137 -15.264292839521918 1.4931255535946608 -0.69465837861970381 0 -0.71933979245794832 0.8991747405724354 0 -0.86832297327462982 1 I I -0.70710678118654746 0.70710678118654746 1.25 forward I I I I #
loop $-1 $-1 $157 $39 #
coedge $-1 $99 $99 $158 $159 reversed $62 $-1 #
face $-1 $160 $161 $24 $-1 $162 reversed single #
loop $-1 $-1 $163 $64 #
plane-surface $-1 0 -39.401369691605439 0 0 1 0 0 0 1 forward_v I I I I #
coedge $-1 $164 $165 $166 $167 forward $65 $-1 #
coedge $-1 $168 $67 $169 $170 forward $41 $-1 #
coedge $-1 $67 $168 $171 $172 forward $41 $-1 #
coedge $-1 $173 $174 $67 $107 reversed $175 $-1 #
edge $-1 $176 -39.401369691605439 $177 39.401369691605439 $106 $178 forward 7 unknown #
face $-1 $179 $180 $25 $-1 $181 reversed single #
loop $-1 $-1 $182 $68 #
plane-surface $-1 0 -29.508572803816989 10.711855197481741 0 -1 0 0 0 -1 forward_v I I I I #
coedge $-1 $183 $184 $185 $186 reversed $69 $-1 #
coedge $-1 $187 $71 $188 $189 forward $44 $-1 #
coedge $-1 $71 $187 $190 $191 reversed $44 $-1 #
coedge $-1 $192 $193 $71 $115 forward $194 $-1 #
edge $-1 $195 12.281087179961382 $196 22.173884067749832 $114 $197 forward 7 unknown #
face $-1 $198 $199 $26 $-1 $200 reversed single #
loop $-1 $-1 $201 $72 #
plane-surface $-1 -161.24082074534684 -6.5186357139390552 67.103428604467695 0 -1 0 0.84804810408105047 0 -0.52991925155115449 forward_v I I I I #
coedge $-1 $202 $203 $204 $205 reversed $73 $-1 #
coedge $-1 $121 $75 $206 $207 reversed $47 $-1 #
coedge $-1 $75 $120 $202 $208 reversed $47 $-1 #
coedge $-1 $204 $209 $75 $123 forward $210 $-1 #
edge $-1 $211 20.815118463130275 $212 27.204318652690844 $122 $213 forward 7 unknown #
loop $-1 $-1 $129 $76 #
plane-surface $-1 -59.805291909543143 -16.137573684540204 3.7194775494608621 -0.84804810408105047 0 0.52991925155115449 0.52991925155115449 0 0.84804810408105047 forward_v I I I I #
loop $-1 $-1 $214 $49 #
coedge $-1 $127 $127 $128 $215 reversed $77 $-1 #
coedge $-1 $128 $128 $127 $215 forward $79 $-1 #
coedge $-1 $129 $129 $80 $130 forward $124 $-1 #
edge $-1 $216 0 $216 6.2831853071796004 $129 $217 forward 7 unknown #
loop $-1 $-1 $136 $81 #
plane-surface $-1 -59.805291909543143 -16.137573684540204 3.7194775494608621 -0.84804810408105047 0 0.52991925155115449 0.52991925155115449 0 0.84804810408105047 forward_v I I I I #
loop $-1 $-1 $218 $52 #
coedge $-1 $134 $134 $135 $219 reversed $82 $-1 #
coedge $-1 $135 $135 $134 $219 forward $84 $-1 #
coedge $-1 $136 $136 $85 $137 forward $131 $-1 #
edge $-1 $220 0 $220 6.2831853071796004 $136 $221 forward 7 unknown #
loop $-1 $-1 $143 $86 #
plane-surface $-1 -59.805291909543143 -16.137573684540204 3.7194775494608621 -0.84804810408105047 0 0.52991925155115449 0.52991925155115449 0 0.84804810408105047 forward_v I I I I #
loop $-1 $-1 $222 $55 #
coedge $-1 $141 $141 $142 $223 reversed $87 $-1 #
coedge $-1 $142 $142 $141 $223 forward $89 $-1 #
coedge $-1 $143 $143 $90 $144 forward $138 $-1 #
edge $-1 $224 0 $224 6.2831853071796004 $143 $225 forward 7 unknown #
face $-1 $226 $227 $30 $-1 $228 forward single #
loop $-1 $-1 $229 $91 #
plane-surface $-1 56.853133590870229 -21.010503398235485 172.54902199779309 0 1 0 0.69465837861970381 0 0.71933979245794832 forward_v I I I I #
coedge $-1 $230 $231 $232 $233 reversed $92 $-1 #
coedge $-1 $150 $94 $234 $235 reversed $59 $-1 #
coedge $-1 $94 $149 $230 $236 reversed $59 $-1 #
coedge $-1 $232 $237 $94 $152 forward $227 $-1 #
edge $-1 $238 -31.378725114108029 $239 -20.480327653594124 $151 $240 forward 7 unknown #
loop $-1 $-1 $158 $95 #
plane-surface $-1 -26.235360630652437 -15.264292839521918 86.508369457597524 0.69465837861970381 0 0.71933979245794832 0.71933979245794832 0 -0.69465837861970381 forward_v I I I I #
loop $-1 $-1 $241 $61 #
coedge $-1 $156 $156 $157 $242 reversed $96 $-1 #
coedge $-1 $157 $157 $156 $242 forward $98 $-1 #
coedge $-1 $158 $158 $99 $159 forward $153 $-1 #
edge $-1 $243 0 $243 6.2831853071796004 $158 $244 forward 7 unknown #
face $-1 $245 $246 $24 $-1 $247 reversed single #
loop $-1 $-1 $248 $100 #
plane-surface $-1 -59.805291909543143 0 0 1 0 0 0 0 -1 forward_v I I I I #
coedge $-1 $249 $171 $250 $251 forward $101 $-1 #
coedge $-1 $252 $103 $249 $253 forward $65 $-1 #
coedge $-1 $103 $252 $254 $255 forward $65 $-1 #
coedge $-1 $174 $173 $103 $167 reversed $175 $-1 #
edge $-1 $256 -39.401369691605439 $257 39.401369691605439 $166 $258 forward 7 unknown #
coedge $-1 $105 $104 $259 $260 forward $41 $-1 #
coedge $-1 $261 $262 $104 $170 reversed $246 $-1 #
edge $-1 $177 -59.805291909543143 $263 59.805291909543143 $169 $264 forward 7 unknown #
coedge $-1 $163 $265 $105 $172 reversed $101 $-1 #
edge $-1 $266 -59.805291909543143 $176 59.805291909543143 $171 $267 forward 7 unknown #
coedge $-1 $166 $106 $265 $268 forward $175 $-1 #
coedge $-1 $106 $166 $261 $269 reversed $175 $-1 #
loop $-1 $-1 $173 $245 #
vertex $-1 $107 $270 #
vertex $-1 $107 $271 #
straight-curve $-1 59.805291909543143 0 13.944335566018657 0 1 0 I I #
face $-1 $272 $273 $25 $-1 $274 reversed single #
loop $-1 $-1 $275 $108 #
plane-surface $-1 -59.805291909543143 0 0 1 0 0 0 0 -1 forward_v I I I I #
coedge $-1 $276 $188 $193 $277 reversed $109 $-1 #
coedge $-1 $278 $111 $279 $280 reversed $69 $-1 #
coedge $-1 $111 $278 $276 $281 forward $69 $-1 #
coedge $-1 $193 $192 $111 $186 forward $194 $-1 #
edge $-1 $282 -22.173884067749832 $283 -12.281087179961382 $185 $284 forward 7 unknown #
coedge $-1 $113 $112 $275 $285 reversed $44 $-1 #
coedge $-1 $182 $286 $112 $189 reversed $109 $-1 #
edge $-1 $195 -59.805291909543143 $287 59.805291909543143 $188 $288 forward 7 unknown #
coedge $-1 $289 $290 $113 $191 forward $273 $-1 #
edge $-1 $196 -59.805291909543143 $291 59.805291909543143 $190 $292 forward 7 unknown #
coedge $-1 $185 $114 $290 $293 forward $194 $-1 #
coedge $-1 $114 $185 $182 $277 forward $194 $-1 #
loop $-1 $-1 $114 $272 #
vertex $-1 $115 $294 #
vertex $-1 $293 $295 #
straight-curve $-1 59.805291909543143 -17.227485623855607 13.44433556601866 0 -1 0 I I #
face $-1 $-1 $210 $26 $-1 $296 forward single #
loop $-1 $-1 $297 $116 #
plane-surface $-1 -59.805291909543143 0 0 1 0 0 0 0 -1 forward_v I I I I #
coedge $-1 $298 $299 $300 $301 reversed $117 $-1 #
coedge $-1 $302 $119 $121 $208 forward $73 $-1 #
coedge $-1 $119 $302 $298 $303 forward $73 $-1 #
coedge $-1 $300 $122 $119 $205 forward $210 $-1 #
edge $-1 $212 -17.687724812871252 $304 1.5501511283310467 $204 $305 forward 7 unknown #
coedge $-1 $306 $307 $120 $207 forward $199 $-1 #
edge $-1 $308 -29.832236752772985 $211 -19.607378736215189 $206 $309 forward 7 unknown #
edge $-1 $212 -12.056931637902197 $308 0 $121 $310 forward 7 unknown #
coedge $-1 $122 $300 $306 $311 forward $210 $-1 #
loop $-1 $-1 $300 $198 #
vertex $-1 $207 $312 #
vertex $-1 $123 $313 #
straight-curve $-1 -80.620410372673419 -25.756511655141352 13.944335566018658 1 0 0 I I #
coedge $-1 $214 $214 $-1 $314 reversed $126 $-1 #
edge $-1 $315 0 $315 6.2831853071796004 $127 $316 forward 7 unknown #
vertex $-1 $130 $317 #
ellipse-curve $-1 -56.610691814762859 -21.908936466900894 8.8319065577397566 -0.84804810408105047 0 0.52991925155115449 0.79487887732673168 0 1.2720721561215758 1 I I #
coedge $-1 $218 $218 $-1 $318 reversed $133 $-1 #
edge $-1 $319 0 $319 6.2831853071796004 $134 $320 forward 7 unknown #
vertex $-1 $137 $321 #
ellipse-curve $-1 -56.610691814762859 -16.137573684540204 8.8319065577397566 -0.84804810408105047 0 0.52991925155115449 0.79487887732673168 0 1.2720721561215758 1 I I #
coedge $-1 $222 $222 $-1 $322 reversed $140 $-1 #
edge $-1 $323 0 $323 6.2831853071796004 $141 $324 forward 7 unknown #
vertex $-1 $144 $325 #
ellipse-curve $-1 -56.610691814762859 -10.366210902179514 8.8319065577397566 -0.84804810408105047 0 0.52991925155115449 0.79487887732673168 0 1.2720721561215758 1 I I #
face $-1 $-1 $326 $30 $-1 $327 reversed single #
loop $-1 $-1 $151 $145 #
plane-surface $-1 0 0 13.944335566018657 0 0 1 1 0 0 forward_v I I I I #
coedge $-1 $328 $329 $330 $331 reversed $146 $-1 #
coedge $-1 $332 $148 $150 $236 forward $92 $-1 #
coedge $-1 $148 $332 $328 $333 forward $92 $-1 #
coedge $-1 $330 $151 $148 $233 forward $227 $-1 #
edge $-1 $239 1.8859358610473915 $334 13.378356978474526 $232 $335 forward 7 unknown #
coedge $-1 $336 $337 $149 $235 forward $326 $-1 #
edge $-1 $338 -82.854635762821701 $238 -72.330175432877894 $234 $339 forward 7 unknown #
edge $-1 $239 104.46002830306985 $338 119.61058381908632 $150 $340 forward 7 unknown #
coedge $-1 $151 $330 $336 $341 forward $227 $-1 #
vertex $-1 $235 $342 #
vertex $-1 $152 $343 #
straight-curve $-1 28.426566795435114 -9.5180822808083505 13.944335566018651 -1 0 0 I I #
coedge $-1 $241 $241 $-1 $344 reversed $155 $-1 #
edge $-1 $345 0 $345 6.2831853071796004 $156 $346 forward 7 unknown #
vertex $-1 $159 $347 #
ellipse-curve $-1 54.356093179286177 -15.264292839521918 8.6821054010467726 0.69465837861970381 0 0.71933979245794832 1.7983494811448708 0 -1.7366459465492596 1 I I #
face $-1 $-1 $175 $24 $-1 $348 reversed single #
loop $-1 $-1 $261 $160 #
plane-surface $-1 0 39.401369691605439 0 0 -1 0 0 0 -1 forward_v I I I I #
coedge $-1 $349 $259 $262 $350 forward $161 $-1 #
coedge $-1 $265 $163 $164 $253 reversed $101 $-1 #
coedge $-1 $259 $349 $163 $251 reversed $161 $-1 #
edge $-1 $266 -13.944335566018657 $351 13.944335566018657 $250 $352 forward 7 unknown #
coedge $-1 $165 $164 $349 $353 forward $65 $-1 #
edge $-1 $257 -59.805291909543143 $351 59.805291909543143 $249 $354 forward 7 unknown #
coedge $-1 $262 $261 $165 $255 reversed $246 $-1 #
edge $-1 $355 -59.805291909543143 $256 59.805291909543143 $254 $356 forward 7 unknown #
vertex $-1 $167 $357 #
vertex $-1 $268 $358 #
straight-curve $-1 59.805291909543143 0 -13.944335566018657 0 -1 0 I I #
coedge $-1 $248 $250 $168 $260 reversed $161 $-1 #
edge $-1 $263 -39.401369691605439 $266 39.401369691605439 $259 $359 forward 7 unknown #
coedge $-1 $254 $169 $174 $269 forward $246 $-1 #
coedge $-1 $169 $254 $248 $350 reversed $246 $-1 #
vertex $-1 $170 $360 #
straight-curve $-1 0 39.401369691605439 13.944335566018657 -1 0 0 I I #
coedge $-1 $171 $249 $173 $268 reversed $101 $-1 #
vertex $-1 $260 $361 #
straight-curve $-1 0 -39.401369691605439 13.944335566018657 1 0 0 I I #
edge $-1 $176 -13.944335566018657 $257 13.944335566018657 $173 $362 forward 7 unknown #
edge $-1 $177 -13.944335566018657 $256 13.944335566018657 $174 $363 forward 7 unknown #
point $-1 59.805291909543143 -39.401369691605439 13.944335566018657 #
point $-1 59.805291909543143 39.401369691605439 13.944335566018657 #
face $-1 $-1 $194 $25 $-1 $364 reversed single #
loop $-1 $-1 $190 $179 #
plane-surface $-1 0 -39.401369691605439 0 0 1 0 0 0 1 forward_v I I I I #
coedge $-1 $365 $366 $187 $285 forward $180 $-1 #
coedge $-1 $286 $182 $184 $281 reversed $109 $-1 #
edge $-1 $283 2.6234472302039515 $195 8.0884079672777887 $193 $367 forward 7 unknown #
coedge $-1 $184 $183 $368 $369 reversed $69 $-1 #
coedge $-1 $290 $289 $183 $280 forward $273 $-1 #
edge $-1 $370 -59.805291909543143 $282 59.805291909543143 $279 $371 forward 7 unknown #
edge $-1 $372 -59.805291909543143 $283 59.805291909543143 $276 $373 forward 7 unknown #
vertex $-1 $280 $374 #
vertex $-1 $186 $375 #
straight-curve $-1 59.805291909543143 -17.227485623855607 7.9793748289448221 0 1 0 I I #
edge $-1 $291 -22.173884067749832 $287 -12.281087179961382 $275 $376 forward 7 unknown #
coedge $-1 $188 $276 $365 $377 reversed $109 $-1 #
vertex $-1 $285 $378 #
straight-curve $-1 0 -29.508572803816989 13.44433556601866 -1 0 0 I I #
coedge $-1 $279 $190 $366 $379 forward $273 $-1 #
coedge $-1 $190 $279 $192 $293 reversed $273 $-1 #
vertex $-1 $379 $380 #
straight-curve $-1 0 -39.401369691605439 13.44433556601866 -1 0 0 I I #
edge $-1 $196 -13.44433556601866 $282 -7.9793748289448221 $192 $381 forward 7 unknown #
point $-1 59.805291909543143 -29.508572803816989 13.44433556601866 #
point $-1 59.805291909543143 -39.401369691605439 13.44433556601866 #
plane-surface $-1 0 0 13.944335566018657 0 0 1 1 0 0 forward_v I I I I #
coedge $-1 $307 $306 $299 $382 forward $199 $-1 #
coedge $-1 $299 $201 $203 $303 reversed $117 $-1 #
coedge $-1 $201 $298 $297 $382 reversed $117 $-1 #
coedge $-1 $209 $204 $201 $301 forward $210 $-1 #
edge $-1 $304 -27.204318652690844 $383 -20.815118463130275 $300 $384 forward 7 unknown #
coedge $-1 $203 $202 $307 $385 reversed $73 $-1 #
edge $-1 $386 0 $304 12.056931637902197 $298 $387 forward 7 unknown #
vertex $-1 $205 $388 #
straight-curve $-1 -53.416091719982575 -8.0687868422701019 13.944335566018657 0 1 0 I I #
coedge $-1 $297 $206 $209 $311 reversed $199 $-1 #
coedge $-1 $206 $297 $302 $385 forward $199 $-1 #
vertex $-1 $207 $389 #
straight-curve $-1 -59.805291909543143 -25.756511655141352 33.551714302233847 0 0 1 I I #
straight-curve $-1 -59.805291909543143 -25.756511655141352 3.7194775494608621 -0.52991925155115449 0 -0.84804810408105047 I I #
edge $-1 $383 6.5186357139390552 $211 25.756511655141352 $306 $390 forward 7 unknown #
point $-1 -59.805291909543143 -25.756511655141352 13.944335566018657 #
point $-1 -53.416091719982575 -25.756511655141352 13.944335566018657 #
edge $-1 $391 1 $391 0 $214 $-1 forward 7 unknown #
vertex $-1 $215 $392 #
ellipse-curve $-1 -54.565639871033731 -21.908936466900894 7.5540163175646509 -0.84804810408105047 0 0.52991925155115449 0.79487887732673168 0 1.2720721561215758 1 I I #
point $-1 -55.815812937436128 -21.908936466900894 10.103978713861331 #
edge $-1 $393 1 $393 0 $218 $-1 forward 7 unknown #
vertex $-1 $219 $394 #
ellipse-curve $-1 -54.565639871033731 -16.137573684540204 7.5540163175646509 -0.84804810408105047 0 0.52991925155115449 0.79487887732673168 0 1.2720721561215758 1 I I #
point $-1 -55.815812937436128 -16.137573684540204 10.103978713861331 #
edge $-1 $395 1 $395 0 $222 $-1 forward 7 unknown #
vertex $-1 $223 $396 #
ellipse-curve $-1 -54.565639871033731 -10.366210902179514 7.5540163175646509 -0.84804810408105047 0 0.52991925155115449 0.79487887732673168 0 1.2720721561215758 1 I I #
point $-1 -55.815812937436128 -10.366210902179514 10.103978713861331 #
loop $-1 $-1 $234 $226 #
plane-surface $-1 59.805291909543143 0 0 -1 0 0 0 0 1 forward_v I I I I #
coedge $-1 $329 $229 $231 $333 reversed $146 $-1 #
coedge $-1 $229 $328 $397 $398 reversed $146 $-1 #
coedge $-1 $237 $232 $229 $331 forward $227 $-1 #
edge $-1 $334 20.480327653594124 $399 31.378725114108029 $330 $400 forward 7 unknown #
coedge $-1 $231 $230 $337 $401 reversed $92 $-1 #
edge $-1 $402 -119.61058381908632 $334 -104.46002830306985 $328 $403 forward 7 unknown #
vertex $-1 $233 $404 #
straight-curve $-1 48.906894449029224 -7.632146419760959 13.944335566018658 0 -1 0 I I #
coedge $-1 $397 $234 $237 $341 reversed $326 $-1 #
coedge $-1 $234 $397 $332 $401 forward $326 $-1 #
vertex $-1 $235 $405 #
straight-curve $-1 59.805291909543143 -9.5180822808083505 86.274510998896545 0 0 1 I I #
straight-curve $-1 -26.235360630652437 -9.5180822808083505 86.508369457597524 0.71933979245794832 0 -0.69465837861970381 I I #
edge $-1 $399 -21.010503398235485 $238 -9.5180822808083505 $336 $406 forward 7 unknown #
point $-1 59.805291909543143 -9.5180822808083505 13.944335566018657 #
point $-1 48.906894449029238 -9.5180822808083505 13.944335566018651 #
edge $-1 $407 1 $407 0 $241 $-1 forward 7 unknown #
vertex $-1 $242 $408 #
ellipse-curve $-1 48.282098853948767 -15.264292839521918 2.3923002941670961 0.69465837861970381 0 0.71933979245794832 1.7983494811448708 0 -1.7366459465492596 1 I I #
point $-1 56.154442660431059 -15.264292839521918 6.9454594544975254 #
plane-surface $-1 59.805291909543143 0 0 -1 0 0 0 0 1 forward_v I I I I #
coedge $-1 $250 $248 $252 $353 reversed $161 $-1 #
edge $-1 $263 -13.944335566018657 $355 13.944335566018657 $262 $409 forward 7 unknown #
vertex $-1 $353 $410 #
straight-curve $-1 -59.805291909543143 -39.401369691605439 0 0 0 -1 I I #
edge $-1 $351 -39.401369691605439 $355 39.401369691605439 $349 $411 forward 7 unknown #
straight-curve $-1 0 -39.401369691605439 -13.944335566018657 -1 0 0 I I #
vertex $-1 $255 $412 #
straight-curve $-1 0 39.401369691605439 -13.944335566018657 1 0 0 I I #
point $-1 59.805291909543143 39.401369691605439 -13.944335566018657 #
point $-1 59.805291909543143 -39.401369691605439 -13.944335566018657 #
straight-curve $-1 -59.805291909543143 0 13.944335566018657 0 -1 0 I I #
point $-1 -59.805291909543143 39.401369691605439 13.944335566018657 #
point $-1 -59.805291909543143 -39.401369691605439 13.944335566018657 #
straight-curve $-1 59.805291909543143 -39.401369691605439 0 0 0 -1 I I #
straight-curve $-1 59.805291909543143 39.401369691605439 0 0 0 -1 I I #
plane-surface $-1 59.805291909543143 0 0 -1 0 0 0 0 1 forward_v I I I I #
coedge $-1 $368 $275 $286 $377 forward $180 $-1 #
coedge $-1 $275 $368 $289 $379 reversed $180 $-1 #
straight-curve $-1 59.805291909543143 -29.508572803816989 5.3559275987408705 0 0 1 I I #
coedge $-1 $366 $365 $278 $369 forward $180 $-1 #
edge $-1 $372 12.281087179961382 $370 22.173884067749832 $368 $413 forward 7 unknown #
vertex $-1 $280 $414 #
straight-curve $-1 0 -39.401369691605439 7.9793748289448221 1 0 0 I I #
vertex $-1 $369 $415 #
straight-curve $-1 0 -29.508572803816989 7.9793748289448221 1 0 0 I I #
point $-1 59.805291909543143 -39.401369691605439 7.9793748289448221 #
point $-1 59.805291909543143 -29.508572803816989 7.9793748289448221 #
straight-curve $-1 -59.805291909543143 -17.227485623855607 13.44433556601866 0 1 0 I I #
edge $-1 $287 -8.0884079672777887 $372 -2.6234472302039515 $365 $416 forward 7 unknown #
point $-1 -59.805291909543143 -29.508572803816989 13.44433556601866 #
edge $-1 $291 -13.44433556601866 $370 -7.9793748289448221 $366 $417 forward 7 unknown #
point $-1 -59.805291909543143 -39.401369691605439 13.44433556601866 #
straight-curve $-1 59.805291909543143 -39.401369691605439 0 0 0 -1 I I #
edge $-1 $383 19.607378736215189 $386 29.832236752772985 $297 $418 forward 7 unknown #
vertex $-1 $311 $419 #
straight-curve $-1 -80.620410372673419 -6.5186357139390552 13.944335566018658 -1 0 0 I I #
edge $-1 $386 -1.5501511283310467 $308 17.687724812871252 $307 $420 forward 7 unknown #
vertex $-1 $385 $421 #
straight-curve $-1 -59.805291909543143 -6.5186357139390552 3.7194775494608621 0.52991925155115449 0 0.84804810408105047 I I #
point $-1 -53.416091719982575 -6.5186357139390552 13.944335566018657 #
point $-1 -59.805291909543143 -25.756511655141352 3.7194775494608621 #
straight-curve $-1 -59.805291909543143 0 13.944335566018657 0 -1 0 I I #
vertex $-1 $314 $422 #
point $-1 -53.770760993707 -21.908936466900894 8.8260884736862266 #
vertex $-1 $318 $423 #
point $-1 -53.770760993707 -16.137573684540204 8.8260884736862266 #
vertex $-1 $322 $424 #
point $-1 -53.770760993707 -10.366210902179514 8.8260884736862266 #
coedge $-1 $337 $336 $329 $398 forward $326 $-1 #
edge $-1 $399 72.330175432877894 $402 82.854635762821701 $397 $425 forward 7 unknown #
vertex $-1 $341 $426 #
straight-curve $-1 28.426566795435114 -21.010503398235485 13.944335566018651 1 0 0 I I #
edge $-1 $402 -13.378356978474526 $338 -1.8859358610473915 $337 $427 forward 7 unknown #
vertex $-1 $401 $428 #
straight-curve $-1 -26.235360630652437 -21.010503398235485 86.508369457597524 -0.71933979245794832 0 0.69465837861970381 I I #
point $-1 48.906894449029238 -21.010503398235485 13.944335566018651 #
point $-1 59.805291909543143 -9.5180822808083505 3.4198752360748443 #
straight-curve $-1 59.805291909543143 0 13.944335566018657 0 1 0 I I #
vertex $-1 $344 $429 #
point $-1 50.080448335093635 -15.264292839521918 0.65565434761783659 #
straight-curve $-1 -59.805291909543143 39.401369691605439 0 0 0 -1 I I #
point $-1 -59.805291909543143 -39.401369691605439 -13.944335566018657 #
straight-curve $-1 -59.805291909543143 0 -13.944335566018657 0 1 0 I I #
point $-1 -59.805291909543143 39.401369691605439 -13.944335566018657 #
straight-curve $-1 -59.805291909543143 -17.227485623855607 7.9793748289448221 0 -1 0 I I #
point $-1 -59.805291909543143 -39.401369691605439 7.9793748289448221 #
point $-1 -59.805291909543143 -29.508572803816989 7.9793748289448221 #
straight-curve $-1 -59.805291909543143 -29.508572803816989 5.3559275987408705 0 0 -1 I I #
straight-curve $-1 -59.805291909543143 -39.401369691605439 0 0 0 -1 I I #
straight-curve $-1 -59.805291909543143 -6.5186357139390552 33.551714302233847 0 0 -1 I I #
point $-1 -59.805291909543143 -6.5186357139390552 13.944335566018657 #
straight-curve $-1 -59.805291909543143 -8.0687868422701019 3.7194775494608652 0 -1 0 I I #
point $-1 -59.805291909543143 -6.5186357139390552 3.7194775494608621 #
point $-1 -53.29356771491215 -21.908936466900894 6.7591374402379198 #
point $-1 -53.29356771491215 -16.137573684540204 6.7591374402379198 #
point $-1 -53.29356771491215 -10.366210902179514 6.7591374402379198 #
straight-curve $-1 59.805291909543143 -21.010503398235485 86.274510998896545 0 0 -1 I I #
point $-1 59.805291909543143 -21.010503398235485 13.944335566018657 #
straight-curve $-1 59.805291909543136 -7.632146419760959 3.4198752360748443 0 1 0 I I #
point $-1 59.805291909543143 -21.010503398235485 3.4198752360748443 #
point $-1 46.545452907399508 -15.264292839521918 0.59395081302222541 #
End-of-ACIS-data 