500 0 14 0           
7 Unknown 11 ACIS 5.0 NT 24 Fri Mar 26 16:33:40 1999 
-1 9.9999999999999995e-007 1e-010 
body $-1 $14 $-1 $15 #
body $-1 $16 $-1 $17 #
body $-1 $18 $-1 $19 #
body $-1 $20 $-1 $21 #
body $-1 $22 $-1 $23 #
body $-1 $24 $-1 $25 #
body $-1 $26 $-1 $27 #
body $-1 $28 $-1 $29 #
body $-1 $30 $-1 $31 #
body $-1 $32 $-1 $33 #
body $-1 $34 $-1 $35 #
body $-1 $36 $-1 $37 #
body $-1 $38 $-1 $39 #
body $-1 $40 $-1 $41 #
lump $-1 $-1 $42 $0 #
transform $-1 1 0 0 0 1 0 0 0 1 51.108737449262975 27.366500783366 13.012262912531529 1 rotate no_reflect no_shear #
lump $-1 $-1 $43 $1 #
transform $-1 1 0 0 0 1 0 0 0 1 51.108737449262975 27.366500783366 13.012262912531529 1 rotate no_reflect no_shear #
lump $-1 $-1 $44 $2 #
transform $-1 1 0 0 0 1 0 0 0 1 51.108737449262975 27.366500783366 13.012262912531529 1 rotate no_reflect no_shear #
lump $-1 $-1 $45 $3 #
transform $-1 1 0 0 0 1 0 0 0 1 51.108737449262975 27.366500783366 13.012262912531529 1 rotate no_reflect no_shear #
lump $-1 $-1 $46 $4 #
transform $-1 1 0 0 0 1 0 0 0 1 51.108737449262975 27.366500783366 13.012262912531529 1 rotate no_reflect no_shear #
lump $-1 $-1 $47 $5 #
transform $-1 1 0 0 0 1 0 0 0 1 51.108737449262975 27.366500783366 13.012262912531529 1 rotate no_reflect no_shear #
lump $-1 $-1 $48 $6 #
transform $-1 1 0 0 0 1 0 0 0 1 51.108737449262975 27.366500783366 13.012262912531529 1 rotate no_reflect no_shear #
lump $-1 $-1 $49 $7 #
transform $-1 1 0 0 0 1 0 0 0 1 51.108737449262975 27.366500783366 13.012262912531529 1 rotate no_reflect no_shear #
lump $-1 $-1 $50 $8 #
transform $-1 1 0 0 0 1 0 0 0 1 51.108737449262975 27.366500783366 13.012262912531529 1 rotate no_reflect no_shear #
lump $-1 $-1 $51 $9 #
transform $-1 1 0 0 0 1 0 0 0 1 51.108737449262975 27.366500783366 13.012262912531529 1 rotate no_reflect no_shear #
lump $-1 $-1 $52 $10 #
transform $-1 1 0 0 0 1 0 0 0 1 51.108737449262975 27.366500783366 13.012262912531529 1 rotate no_reflect no_shear #
lump $-1 $-1 $53 $11 #
transform $-1 1 0 0 0 1 0 0 0 1 51.108737449262975 27.366500783366 13.012262912531529 1 rotate no_reflect no_shear #
lump $-1 $-1 $54 $12 #
transform $-1 1 0 0 0 1 0 0 0 1 51.108737449262975 27.366500783366 13.012262912531529 1 rotate no_reflect no_shear #
lump $-1 $-1 $55 $13 #
transform $-1 1 0 0 0 1 0 0 0 1 51.108737449262975 27.366500783366 13.012262912531529 1 rotate no_reflect no_shear #
shell $-1 $-1 $-1 $56 $-1 $14 #
shell $-1 $-1 $-1 $57 $-1 $16 #
shell $-1 $-1 $-1 $58 $-1 $18 #
shell $-1 $-1 $-1 $59 $-1 $20 #
shell $-1 $-1 $-1 $60 $-1 $22 #
shell $-1 $-1 $-1 $61 $-1 $24 #
shell $-1 $-1 $-1 $62 $-1 $26 #
shell $-1 $-1 $-1 $63 $-1 $28 #
shell $-1 $-1 $-1 $64 $-1 $30 #
shell $-1 $-1 $-1 $65 $-1 $32 #
shell $-1 $-1 $-1 $66 $-1 $34 #
shell $-1 $-1 $-1 $67 $-1 $36 #
shell $-1 $-1 $-1 $68 $-1 $38 #
shell $-1 $-1 $-1 $69 $-1 $40 #
face $-1 $70 $71 $42 $-1 $72 forward single #
face $-1 $73 $74 $43 $-1 $75 reversed single #
face $-1 $76 $77 $44 $-1 $78 reversed single #
face $-1 $79 $80 $45 $-1 $81 forward single #
face $-1 $82 $83 $46 $-1 $84 forward single #
face $-1 $85 $86 $47 $-1 $87 forward single #
face $-1 $88 $89 $48 $-1 $90 reversed single #
face $-1 $91 $92 $49 $-1 $93 forward single #
face $-1 $94 $95 $50 $-1 $96 forward single #
face $-1 $97 $98 $51 $-1 $99 forward single #
face $-1 $100 $101 $52 $-1 $102 reversed single #
face $-1 $103 $104 $53 $-1 $105 forward single #
face $-1 $106 $107 $54 $-1 $108 reversed single #
face $-1 $109 $110 $55 $-1 $111 forward single #
face $-1 $112 $113 $42 $-1 $114 reversed single #
loop $-1 $-1 $115 $56 #
plane-surface $-1 0 0 13.012262912531529 0 0 1 1 0 0 forward_v I I I I #
face $-1 $116 $117 $43 $-1 $118 reversed single #
loop $-1 $-1 $119 $57 #
plane-surface $-1 -43.70400652512604 -11.685969134896901 0 0 1 0 0 0 1 forward_v I I I I #
face $-1 $120 $121 $44 $-1 $122 reversed single #
loop $-1 $-1 $123 $58 #
plane-surface $-1 0.88805430317198208 -115.88943154684333 59.970568075084074 -1 0 0 0 -0.86602541151947299 0.49999998660252726 forward_v I I I I #
face $-1 $124 $125 $45 $-1 $126 forward single #
loop $-1 $127 $128 $59 #
cone-surface $-1 -16.551614227922471 -25.635523329386601 10.629405627374689 0 0.86602541151947299 -0.49999998660252726 0.5 0 0 1 I I 0 1 0.5 forward I I I I #
face $-1 $129 $130 $46 $-1 $131 forward single #
loop $-1 $132 $133 $60 #
cone-surface $-1 -10.011738528762052 -25.635523329386601 10.629405627374689 0 0.86602541151947299 -0.49999998660252726 0.5 0 0 1 I I 0 1 0.5 forward I I I I #
face $-1 $134 $135 $47 $-1 $136 forward single #
loop $-1 $137 $138 $61 #
cone-surface $-1 -3.4718628296016334 -25.635523329386601 10.629405627374689 0 0.86602541151947299 -0.49999998660252726 0.5 0 0 1 I I 0 1 0.5 forward I I I I #
face $-1 $139 $140 $48 $-1 $141 reversed single #
loop $-1 $-1 $142 $62 #
plane-surface $-1 44.592060828298031 -115.88943154684333 59.970568075084074 -1 0 0 0 -0.86602541151947299 0.49999998660252726 forward_v I I I I #
face $-1 $143 $144 $49 $-1 $145 forward single #
loop $-1 $146 $147 $63 #
cone-surface $-1 27.152392297203576 -25.635523329386601 10.629405627374689 0 0.86602541151947299 -0.49999998660252726 0.5 0 0 1 I I 0 1 0.5 forward I I I I #
face $-1 $148 $149 $50 $-1 $150 forward single #
loop $-1 $151 $152 $64 #
cone-surface $-1 33.692267996363995 -25.635523329386601 10.629405627374689 0 0.86602541151947299 -0.49999998660252726 0.5 0 0 1 I I 0 1 0.5 forward I I I I #
face $-1 $153 $154 $51 $-1 $155 forward single #
loop $-1 $156 $157 $65 #
cone-surface $-1 40.232143695524414 -25.635523329386601 10.629405627374689 0 0.86602541151947299 -0.49999998660252726 0.5 0 0 1 I I 0 1 0.5 forward I I I I #
face $-1 $158 $159 $52 $-1 $160 reversed single #
loop $-1 $-1 $161 $66 #
plane-surface $-1 -31.718168893943599 85.047765349622495 109.47378057629876 1 0 0 0 -0.84804810408105047 -0.52991925155115449 forward_v I I I I #
face $-1 $162 $163 $53 $-1 $164 forward single #
loop $-1 $165 $166 $67 #
cone-surface $-1 -23.63232081637782 25.342973543237047 10.491653213179321 0 -0.84804810408105047 -0.52991925155115449 1 0 0 1 I I 0 1 1 forward I I I I #
face $-1 $167 $168 $54 $-1 $169 reversed single #
loop $-1 $-1 $170 $68 #
plane-surface $-1 30.355934587085919 85.047765349622495 109.47378057629876 1 0 0 0 -0.84804810408105047 -0.52991925155115449 forward_v I I I I #
face $-1 $171 $172 $55 $-1 $173 forward single #
loop $-1 $174 $175 $69 #
cone-surface $-1 38.441782664651697 25.342973543237047 10.491653213179321 0 -0.84804810408105047 -0.52991925155115449 1 0 0 1 I I 0 1 1 forward I I I I #
face $-1 $176 $177 $42 $-1 $178 reversed single #
loop $-1 $-1 $179 $70 #
plane-surface $-1 0 0 -13.012262912531529 0 0 1 1 0 0 forward_v I I I I #
coedge $-1 $180 $181 $182 $183 forward $71 $-1 #
face $-1 $184 $185 $43 $-1 $186 reversed single #
loop $-1 $-1 $187 $73 #
plane-surface $-1 -43.70400652512604 -6.6056786157765686 0 0 -1 0 0 0 -1 forward_v I I I I #
coedge $-1 $188 $189 $190 $191 reversed $74 $-1 #
face $-1 $192 $193 $44 $-1 $194 reversed single #
loop $-1 $-1 $195 $76 #
plane-surface $-1 -10.011738528762052 -27.366500783365993 8.8618319952769298 0 -0.86602541151947299 0.49999998660252726 1 0 0 forward_v I I I I #
coedge $-1 $196 $197 $198 $199 reversed $77 $-1 #
face $-1 $-1 $200 $45 $-1 $201 forward single #
loop $-1 $202 $203 $79 #
cone-surface $-1 -16.551614227922471 -24.886165683387311 10.196763804194514 0 0.86602541151947299 -0.49999998660252726 0.25 0 0 1 I I -0.70710678118654746 0.70710678118654746 0.25 forward I I I I #
loop $-1 $-1 $204 $59 #
coedge $-1 $128 $128 $205 $206 reversed $80 $-1 #
face $-1 $-1 $207 $46 $-1 $208 forward single #
loop $-1 $209 $210 $82 #
cone-surface $-1 -10.011738528762052 -24.886165683387311 10.196763804194514 0 0.86602541151947299 -0.49999998660252726 0.25 0 0 1 I I -0.70710678118654746 0.70710678118654746 0.25 forward I I I I #
loop $-1 $-1 $211 $60 #
coedge $-1 $133 $133 $212 $213 reversed $83 $-1 #
face $-1 $-1 $214 $47 $-1 $215 forward single #
loop $-1 $216 $217 $85 #
cone-surface $-1 -3.4718628296016334 -24.886165683387311 10.196763804194514 0 0.86602541151947299 -0.49999998660252726 0.25 0 0 1 I I -0.70710678118654746 0.70710678118654746 0.25 forward I I I I #
loop $-1 $-1 $218 $61 #
coedge $-1 $138 $138 $219 $220 reversed $86 $-1 #
face $-1 $221 $222 $48 $-1 $223 reversed single #
loop $-1 $-1 $224 $88 #
plane-surface $-1 33.692267996363995 -27.366500783365993 8.8618319952769298 0 -0.86602541151947299 0.49999998660252726 1 0 0 forward_v I I I I #
coedge $-1 $225 $226 $227 $228 reversed $89 $-1 #
face $-1 $-1 $229 $49 $-1 $230 forward single #
loop $-1 $231 $232 $91 #
cone-surface $-1 27.152392297203576 -24.886165683387311 10.196763804194514 0 0.86602541151947299 -0.49999998660252726 0.25 0 0 1 I I -0.70710678118654746 0.70710678118654746 0.25 forward I I I I #
loop $-1 $-1 $233 $63 #
coedge $-1 $147 $147 $234 $235 reversed $92 $-1 #
face $-1 $-1 $236 $50 $-1 $237 forward single #
loop $-1 $238 $239 $94 #
cone-surface $-1 33.692267996363995 -24.886165683387311 10.196763804194514 0 0.86602541151947299 -0.49999998660252726 0.25 0 0 1 I I -0.70710678118654746 0.70710678118654746 0.25 forward I I I I #
loop $-1 $-1 $240 $64 #
coedge $-1 $152 $152 $241 $242 reversed $95 $-1 #
face $-1 $-1 $243 $51 $-1 $244 forward single #
loop $-1 $245 $246 $97 #
cone-surface $-1 40.232143695524414 -24.886165683387311 10.196763804194514 0 0.86602541151947299 -0.49999998660252726 0.25 0 0 1 I I -0.70710678118654746 0.70710678118654746 0.25 forward I I I I #
loop $-1 $-1 $247 $65 #
coedge $-1 $157 $157 $248 $249 reversed $98 $-1 #
face $-1 $250 $251 $52 $-1 $252 reversed single #
loop $-1 $-1 $253 $100 #
plane-surface $-1 -23.63232081637782 -1.6375704420248098 55.306772782622971 0 0.84804810408105047 0.52991925155115449 1 0 0 forward_v I I I I #
coedge $-1 $254 $255 $256 $257 reversed $101 $-1 #
face $-1 $-1 $258 $53 $-1 $259 forward single #
loop $-1 $260 $261 $103 #
cone-surface $-1 -23.63232081637782 24.183186817565485 9.7669380576719398 0 -0.84804810408105047 -0.52991925155115449 0.5 0 0 1 I I -0.70710678118654746 0.70710678118654746 0.5 forward I I I I #
loop $-1 $-1 $262 $67 #
coedge $-1 $166 $166 $263 $264 reversed $104 $-1 #
face $-1 $265 $266 $54 $-1 $267 reversed single #
loop $-1 $-1 $268 $106 #
plane-surface $-1 38.441782664651697 -1.6375704420248098 55.306772782622971 0 0.84804810408105047 0.52991925155115449 1 0 0 forward_v I I I I #
coedge $-1 $269 $270 $271 $272 reversed $107 $-1 #
face $-1 $-1 $273 $55 $-1 $274 forward single #
loop $-1 $275 $276 $109 #
cone-surface $-1 38.441782664651697 24.183186817565485 9.7669380576719398 0 -0.84804810408105047 -0.52991925155115449 0.5 0 0 1 I I -0.70710678118654746 0.70710678118654746 0.5 forward I I I I #
loop $-1 $-1 $277 $69 #
coedge $-1 $175 $175 $278 $279 reversed $110 $-1 #
face $-1 $280 $281 $42 $-1 $282 reversed single #
loop $-1 $-1 $283 $112 #
plane-surface $-1 0 -27.366500783366 0 0 1 0 0 0 1 forward_v I I I I #
coedge $-1 $284 $285 $286 $287 forward $113 $-1 #
coedge $-1 $288 $115 $289 $290 forward $71 $-1 #
coedge $-1 $115 $288 $291 $292 forward $71 $-1 #
coedge $-1 $293 $294 $115 $183 reversed $295 $-1 #
edge $-1 $296 -27.366500783366 $297 27.366500783366 $182 $298 forward 7 unknown #
face $-1 $299 $300 $43 $-1 $301 reversed single #
loop $-1 $-1 $302 $116 #
plane-surface $-1 -36.299275600989105 -9.1458238753367347 0 -1 0 0 0 0 1 forward_v I I I I #
coedge $-1 $303 $304 $305 $306 forward $117 $-1 #
coedge $-1 $307 $119 $308 $309 reversed $74 $-1 #
coedge $-1 $119 $307 $310 $311 reversed $74 $-1 #
coedge $-1 $312 $313 $119 $191 forward $314 $-1 #
edge $-1 $315 -13.012262912531529 $316 13.012262912531529 $190 $317 forward 7 unknown #
face $-1 $318 $319 $44 $-1 $320 reversed single #
loop $-1 $-1 $321 $120 #
plane-surface $-1 -20.911531360696088 -115.88943154684333 59.970568075084074 1 0 0 0 0.86602541151947299 -0.49999998660252726 forward_v I I I I #
coedge $-1 $322 $323 $324 $325 reversed $121 $-1 #
coedge $-1 $197 $123 $326 $327 reversed $77 $-1 #
coedge $-1 $123 $196 $322 $328 reversed $77 $-1 #
coedge $-1 $324 $329 $123 $199 forward $330 $-1 #
edge $-1 $331 30.578214990055663 $332 32.974467311775626 $198 $333 forward 7 unknown #
loop $-1 $-1 $205 $124 #
plane-surface $-1 -10.011738528762052 -27.366500783365993 8.8618319952769298 0 -0.86602541151947299 0.49999998660252726 1 0 0 forward_v I I I I #
loop $-1 $-1 $334 $79 #
coedge $-1 $203 $203 $204 $335 reversed $125 $-1 #
coedge $-1 $204 $204 $203 $335 forward $127 $-1 #
coedge $-1 $205 $205 $128 $206 forward $200 $-1 #
edge $-1 $336 2.600767067782398e-015 $336 6.2831853071796031 $205 $337 forward 7 unknown #
loop $-1 $-1 $212 $129 #
plane-surface $-1 -10.011738528762052 -27.366500783365993 8.8618319952769298 0 -0.86602541151947299 0.49999998660252726 1 0 0 forward_v I I I I #
loop $-1 $-1 $338 $82 #
coedge $-1 $210 $210 $211 $339 reversed $130 $-1 #
coedge $-1 $211 $211 $210 $339 forward $132 $-1 #
coedge $-1 $212 $212 $133 $213 forward $207 $-1 #
edge $-1 $340 2.600767067782398e-015 $340 6.2831853071796031 $212 $341 forward 7 unknown #
loop $-1 $-1 $219 $134 #
plane-surface $-1 -10.011738528762052 -27.366500783365993 8.8618319952769298 0 -0.86602541151947299 0.49999998660252726 1 0 0 forward_v I I I I #
loop $-1 $-1 $342 $85 #
coedge $-1 $217 $217 $218 $343 reversed $135 $-1 #
coedge $-1 $218 $218 $217 $343 forward $137 $-1 #
coedge $-1 $219 $219 $138 $220 forward $214 $-1 #
edge $-1 $344 2.600767067782398e-015 $344 6.2831853071796031 $219 $345 forward 7 unknown #
face $-1 $346 $347 $48 $-1 $348 reversed single #
loop $-1 $-1 $349 $139 #
plane-surface $-1 22.792475164429959 -115.88943154684333 59.970568075084074 1 0 0 0 0.86602541151947299 -0.49999998660252726 forward_v I I I I #
coedge $-1 $350 $351 $352 $353 reversed $140 $-1 #
coedge $-1 $226 $142 $354 $355 reversed $89 $-1 #
coedge $-1 $142 $225 $350 $356 reversed $89 $-1 #
coedge $-1 $352 $357 $142 $228 forward $358 $-1 #
edge $-1 $359 30.578214990055663 $360 32.974467311775626 $227 $361 forward 7 unknown #
loop $-1 $-1 $234 $143 #
plane-surface $-1 33.692267996363995 -27.366500783365993 8.8618319952769298 0 -0.86602541151947299 0.49999998660252726 1 0 0 forward_v I I I I #
loop $-1 $-1 $362 $91 #
coedge $-1 $232 $232 $233 $363 reversed $144 $-1 #
coedge $-1 $233 $233 $232 $363 forward $146 $-1 #
coedge $-1 $234 $234 $147 $235 forward $229 $-1 #
edge $-1 $364 2.600767067782398e-015 $364 6.2831853071796031 $234 $365 forward 7 unknown #
loop $-1 $-1 $241 $148 #
plane-surface $-1 33.692267996363995 -27.366500783365993 8.8618319952769298 0 -0.86602541151947299 0.49999998660252726 1 0 0 forward_v I I I I #
loop $-1 $-1 $366 $94 #
coedge $-1 $239 $239 $240 $367 reversed $149 $-1 #
coedge $-1 $240 $240 $239 $367 forward $151 $-1 #
coedge $-1 $241 $241 $152 $242 forward $236 $-1 #
edge $-1 $368 2.600767067782398e-015 $368 6.2831853071796031 $241 $369 forward 7 unknown #
loop $-1 $-1 $248 $153 #
plane-surface $-1 33.692267996363995 -27.366500783365993 8.8618319952769298 0 -0.86602541151947299 0.49999998660252726 1 0 0 forward_v I I I I #
loop $-1 $-1 $370 $97 #
coedge $-1 $246 $246 $247 $371 reversed $154 $-1 #
coedge $-1 $247 $247 $246 $371 forward $156 $-1 #
coedge $-1 $248 $248 $157 $249 forward $243 $-1 #
edge $-1 $372 2.600767067782398e-015 $372 6.2831853071796031 $248 $373 forward 7 unknown #
face $-1 $374 $375 $52 $-1 $376 reversed single #
loop $-1 $-1 $377 $158 #
plane-surface $-1 -15.546472738812042 85.047765349622495 109.47378057629876 -1 0 0 0 0.84804810408105047 0.52991925155115449 forward_v I I I I #
coedge $-1 $378 $379 $380 $381 reversed $159 $-1 #
coedge $-1 $255 $161 $382 $383 reversed $101 $-1 #
coedge $-1 $161 $254 $378 $384 reversed $101 $-1 #
coedge $-1 $380 $385 $161 $257 forward $386 $-1 #
edge $-1 $387 15.157381891445247 $388 17.732911024441108 $256 $389 forward 7 unknown #
loop $-1 $-1 $263 $162 #
plane-surface $-1 -23.63232081637782 -1.6375704420248098 55.306772782622971 0 0.84804810408105047 0.52991925155115449 1 0 0 forward_v I I I I #
loop $-1 $-1 $390 $103 #
coedge $-1 $261 $261 $262 $391 reversed $163 $-1 #
coedge $-1 $262 $262 $261 $391 forward $165 $-1 #
coedge $-1 $263 $263 $166 $264 forward $258 $-1 #
edge $-1 $392 -1.8842261281874163e-015 $392 6.2831853071795987 $263 $393 forward 7 unknown #
face $-1 $394 $395 $54 $-1 $396 forward single #
loop $-1 $-1 $397 $167 #
plane-surface $-1 46.527630742217475 85.047765349622495 109.47378057629876 -1 0 0 0 0.84804810408105047 0.52991925155115449 forward_v I I I I #
coedge $-1 $398 $399 $400 $401 reversed $168 $-1 #
coedge $-1 $270 $170 $402 $403 reversed $107 $-1 #
coedge $-1 $170 $269 $398 $404 reversed $107 $-1 #
coedge $-1 $400 $405 $170 $272 forward $395 $-1 #
edge $-1 $406 15.157381891445247 $407 17.732911024441108 $271 $408 forward 7 unknown #
loop $-1 $-1 $278 $171 #
plane-surface $-1 38.441782664651697 -1.6375704420248098 55.306772782622971 0 0.84804810408105047 0.52991925155115449 1 0 0 forward_v I I I I #
loop $-1 $-1 $409 $109 #
coedge $-1 $276 $276 $277 $410 reversed $172 $-1 #
coedge $-1 $277 $277 $276 $410 forward $174 $-1 #
coedge $-1 $278 $278 $175 $279 forward $273 $-1 #
edge $-1 $411 -1.8842261281874163e-015 $411 6.2831853071795987 $278 $412 forward 7 unknown #
face $-1 $413 $414 $42 $-1 $415 reversed single #
loop $-1 $-1 $416 $176 #
plane-surface $-1 -51.108737449262975 0 0 1 0 0 0 0 -1 forward_v I I I I #
coedge $-1 $417 $291 $418 $419 forward $177 $-1 #
coedge $-1 $420 $179 $417 $421 forward $113 $-1 #
coedge $-1 $179 $420 $422 $423 forward $113 $-1 #
coedge $-1 $294 $293 $179 $287 reversed $295 $-1 #
edge $-1 $424 -27.366500783366 $425 27.366500783366 $286 $426 forward 7 unknown #
coedge $-1 $181 $180 $427 $428 forward $71 $-1 #
coedge $-1 $429 $430 $180 $290 reversed $414 $-1 #
edge $-1 $297 -51.108737449262975 $431 51.108737449262975 $289 $432 forward 7 unknown #
coedge $-1 $283 $433 $181 $292 reversed $177 $-1 #
edge $-1 $434 -51.108737449262975 $296 51.108737449262975 $291 $435 forward 7 unknown #
coedge $-1 $286 $182 $433 $436 forward $295 $-1 #
coedge $-1 $182 $286 $429 $437 reversed $295 $-1 #
loop $-1 $-1 $293 $413 #
vertex $-1 $183 $438 #
vertex $-1 $183 $439 #
straight-curve $-1 51.108737449262975 0 13.012262912531529 0 1 0 I I #
face $-1 $440 $441 $43 $-1 $442 forward single #
loop $-1 $-1 $443 $184 #
plane-surface $-1 0 0 -13.012262912531529 0 0 1 1 0 0 forward_v I I I I #
coedge $-1 $444 $445 $307 $446 forward $185 $-1 #
coedge $-1 $447 $187 $443 $448 reversed $117 $-1 #
coedge $-1 $187 $447 $449 $450 reversed $117 $-1 #
coedge $-1 $445 $444 $187 $306 reversed $185 $-1 #
edge $-1 $451 -13.012262912531529 $452 13.012262912531529 $305 $453 forward 7 unknown #
coedge $-1 $189 $188 $302 $446 reversed $74 $-1 #
coedge $-1 $454 $455 $188 $309 forward $300 $-1 #
edge $-1 $456 14.447272338426085 $315 29.256734186699955 $308 $457 forward 7 unknown #
coedge $-1 $458 $459 $189 $311 forward $441 $-1 #
edge $-1 $316 -29.256734186699955 $460 -14.447272338426085 $310 $461 forward 7 unknown #
coedge $-1 $462 $190 $459 $463 reversed $314 $-1 #
coedge $-1 $190 $462 $454 $464 reversed $314 $-1 #
loop $-1 $-1 $462 $440 #
vertex $-1 $464 $465 #
vertex $-1 $191 $466 #
straight-curve $-1 -51.108737449262975 -11.685969134896901 0 0 0 1 I I #
face $-1 $-1 $330 $44 $-1 $467 forward single #
loop $-1 $-1 $468 $192 #
plane-surface $-1 0 -27.366500783366 0 0 1 0 0 0 1 forward_v I I I I #
coedge $-1 $469 $470 $471 $472 reversed $193 $-1 #
coedge $-1 $473 $195 $197 $328 forward $121 $-1 #
coedge $-1 $195 $473 $469 $474 forward $121 $-1 #
coedge $-1 $471 $198 $195 $325 forward $330 $-1 #
edge $-1 $332 -5.8939235675530082 $475 15.905662096315062 $324 $476 forward 7 unknown #
coedge $-1 $477 $478 $196 $327 forward $319 $-1 #
edge $-1 $479 -21.123452042265122 $331 -16.973021125010508 $326 $480 forward 7 unknown #
edge $-1 $332 -4.7925047718548095 $479 1.4321304723534956e-014 $197 $481 forward 7 unknown #
coedge $-1 $198 $471 $477 $482 forward $330 $-1 #
loop $-1 $-1 $471 $318 #
vertex $-1 $327 $483 #
vertex $-1 $199 $484 #
straight-curve $-1 0.88805430317198208 -57.944715773421663 13.012262912531529 0 1 0 I I #
coedge $-1 $334 $334 $-1 $485 reversed $202 $-1 #
edge $-1 $486 0 $486 6.2831853071796004 $203 $487 forward 7 unknown #
vertex $-1 $206 $488 #
ellipse-curve $-1 -16.551614227922471 -26.168374622506018 10.937047453904229 0 -0.86602541151947299 0.49999998660252726 0.5 0 0 1 I I #
coedge $-1 $338 $338 $-1 $489 reversed $209 $-1 #
edge $-1 $490 0 $490 6.2831853071796004 $210 $491 forward 7 unknown #
vertex $-1 $213 $492 #
ellipse-curve $-1 -10.011738528762052 -26.168374622506018 10.937047453904229 0 -0.86602541151947299 0.49999998660252726 0.5 0 0 1 I I #
coedge $-1 $342 $342 $-1 $493 reversed $216 $-1 #
edge $-1 $494 0 $494 6.2831853071796004 $217 $495 forward 7 unknown #
vertex $-1 $220 $496 #
ellipse-curve $-1 -3.4718628296016334 -26.168374622506018 10.937047453904229 0 -0.86602541151947299 0.49999998660252726 0.5 0 0 1 I I #
face $-1 $-1 $358 $48 $-1 $497 forward single #
loop $-1 $-1 $498 $221 #
plane-surface $-1 0 -27.366500783366 0 0 1 0 0 0 1 forward_v I I I I #
coedge $-1 $499 $500 $501 $502 reversed $222 $-1 #
coedge $-1 $503 $224 $226 $356 forward $140 $-1 #
coedge $-1 $224 $503 $499 $504 forward $140 $-1 #
coedge $-1 $501 $227 $224 $353 forward $358 $-1 #
edge $-1 $360 -27.745926830116034 $505 -5.9463411662479615 $352 $506 forward 7 unknown #
coedge $-1 $507 $508 $225 $355 forward $347 $-1 #
edge $-1 $509 -21.123452042265122 $359 -16.973021125010508 $354 $510 forward 7 unknown #
edge $-1 $360 -4.7925047718548095 $509 1.4321304723534956e-014 $226 $511 forward 7 unknown #
coedge $-1 $227 $501 $507 $512 forward $358 $-1 #
loop $-1 $-1 $501 $346 #
vertex $-1 $355 $513 #
vertex $-1 $228 $514 #
straight-curve $-1 44.592060828298031 -57.944715773421663 13.012262912531529 0 1 0 I I #
coedge $-1 $362 $362 $-1 $515 reversed $231 $-1 #
edge $-1 $516 0 $516 6.2831853071796004 $232 $517 forward 7 unknown #
vertex $-1 $235 $518 #
ellipse-curve $-1 27.152392297203576 -26.168374622506018 10.937047453904229 0 -0.86602541151947299 0.49999998660252726 0.5 0 0 1 I I #
coedge $-1 $366 $366 $-1 $519 reversed $238 $-1 #
edge $-1 $520 0 $520 6.2831853071796004 $239 $521 forward 7 unknown #
vertex $-1 $242 $522 #
ellipse-curve $-1 33.692267996363995 -26.168374622506018 10.937047453904229 0 -0.86602541151947299 0.49999998660252726 0.5 0 0 1 I I #
coedge $-1 $370 $370 $-1 $523 reversed $245 $-1 #
edge $-1 $524 0 $524 6.2831853071796004 $246 $525 forward 7 unknown #
vertex $-1 $249 $526 #
ellipse-curve $-1 40.232143695524414 -26.168374622506018 10.937047453904229 0 -0.86602541151947299 0.49999998660252726 0.5 0 0 1 I I #
face $-1 $-1 $386 $52 $-1 $527 forward single #
loop $-1 $-1 $528 $250 #
plane-surface $-1 0 27.366500783366 0 0 -1 0 0 0 -1 forward_v I I I I #
coedge $-1 $529 $530 $531 $532 reversed $251 $-1 #
coedge $-1 $533 $253 $255 $384 forward $159 $-1 #
coedge $-1 $253 $533 $529 $534 forward $159 $-1 #
coedge $-1 $531 $256 $253 $381 forward $386 $-1 #
edge $-1 $388 -19.902008485754688 $535 -3.7303123306231321 $380 $536 forward 7 unknown #
coedge $-1 $537 $538 $254 $383 forward $375 $-1 #
edge $-1 $539 -45.846335714858682 $387 -41.724627375617857 $382 $540 forward 7 unknown #
edge $-1 $388 49.872772153558444 $539 54.733001566732035 $255 $541 forward 7 unknown #
coedge $-1 $256 $531 $537 $542 forward $386 $-1 #
loop $-1 $-1 $531 $374 #
vertex $-1 $383 $543 #
vertex $-1 $257 $544 #
straight-curve $-1 -31.718168893943599 42.523882674811247 13.012262912531526 0 -1 0 I I #
coedge $-1 $390 $390 $-1 $545 reversed $260 $-1 #
edge $-1 $546 0 $546 6.2831853071796004 $261 $547 forward 7 unknown #
vertex $-1 $264 $548 #
ellipse-curve $-1 -23.63232081637782 26.078736216868069 10.951408742911115 0 0.84804810408105047 0.52991925155115449 1 0 0 1 I I #
face $-1 $-1 $549 $54 $-1 $550 reversed single #
loop $-1 $-1 $271 $265 #
plane-surface $-1 0 0 13.012262912531529 0 0 1 1 0 0 forward_v I I I I #
coedge $-1 $551 $552 $553 $554 reversed $266 $-1 #
coedge $-1 $555 $268 $270 $404 forward $168 $-1 #
coedge $-1 $268 $555 $551 $556 forward $168 $-1 #
coedge $-1 $553 $271 $268 $401 forward $395 $-1 #
edge $-1 $407 11.13504325476007 $557 27.306739409891627 $400 $558 forward 7 unknown #
coedge $-1 $559 $560 $269 $403 forward $549 $-1 #
edge $-1 $561 -45.846335714858682 $406 -41.724627375617857 $402 $562 forward 7 unknown #
edge $-1 $407 49.872772153558444 $561 54.733001566732035 $270 $563 forward 7 unknown #
coedge $-1 $271 $553 $559 $564 forward $395 $-1 #
vertex $-1 $403 $565 #
vertex $-1 $272 $566 #
straight-curve $-1 30.355934587085919 42.523882674811247 13.012262912531526 0 -1 0 I I #
coedge $-1 $409 $409 $-1 $567 reversed $275 $-1 #
edge $-1 $568 0 $568 6.2831853071796004 $276 $569 forward 7 unknown #
vertex $-1 $279 $570 #
ellipse-curve $-1 38.441782664651697 26.078736216868069 10.951408742911115 0 0.84804810408105047 0.52991925155115449 1 0 0 1 I I #
face $-1 $-1 $295 $42 $-1 $571 reversed single #
loop $-1 $-1 $429 $280 #
plane-surface $-1 0 27.366500783366 0 0 -1 0 0 0 -1 forward_v I I I I #
coedge $-1 $572 $427 $430 $573 forward $281 $-1 #
coedge $-1 $433 $283 $284 $421 reversed $177 $-1 #
coedge $-1 $427 $572 $283 $419 reversed $281 $-1 #
edge $-1 $434 -13.012262912531529 $574 13.012262912531529 $418 $575 forward 7 unknown #
coedge $-1 $285 $284 $572 $576 forward $113 $-1 #
edge $-1 $425 -51.108737449262975 $574 51.108737449262975 $417 $577 forward 7 unknown #
coedge $-1 $430 $429 $285 $423 reversed $414 $-1 #
edge $-1 $578 -51.108737449262975 $424 51.108737449262975 $422 $579 forward 7 unknown #
vertex $-1 $287 $580 #
vertex $-1 $436 $581 #
straight-curve $-1 51.108737449262975 0 -13.012262912531529 0 -1 0 I I #
coedge $-1 $416 $418 $288 $428 reversed $281 $-1 #
edge $-1 $431 -27.366500783366 $434 27.366500783366 $427 $582 forward 7 unknown #
coedge $-1 $422 $289 $294 $437 forward $414 $-1 #
coedge $-1 $289 $422 $416 $573 reversed $414 $-1 #
vertex $-1 $290 $583 #
straight-curve $-1 0 27.366500783366 13.012262912531529 -1 0 0 I I #
coedge $-1 $291 $417 $293 $436 reversed $177 $-1 #
vertex $-1 $428 $584 #
straight-curve $-1 0 -27.366500783366 13.012262912531529 1 0 0 I I #
edge $-1 $296 -13.012262912531529 $425 13.012262912531529 $293 $585 forward 7 unknown #
edge $-1 $297 -13.012262912531529 $424 13.012262912531529 $294 $586 forward 7 unknown #
point $-1 51.108737449262975 -27.366500783366 13.012262912531529 #
point $-1 51.108737449262975 27.366500783366 13.012262912531529 #
face $-1 $-1 $314 $43 $-1 $587 reversed single #
loop $-1 $-1 $449 $299 #
plane-surface $-1 0 0 13.012262912531529 0 0 1 1 0 0 forward_v I I I I #
coedge $-1 $455 $454 $303 $448 forward $300 $-1 #
coedge $-1 $305 $302 $455 $588 reversed $185 $-1 #
coedge $-1 $302 $305 $458 $589 reversed $185 $-1 #
edge $-1 $460 -13.012262912531529 $456 13.012262912531529 $302 $590 forward 7 unknown #
coedge $-1 $304 $303 $462 $591 reversed $117 $-1 #
edge $-1 $592 -29.256734186699955 $452 -14.447272338426085 $443 $593 forward 7 unknown #
coedge $-1 $459 $458 $304 $450 forward $441 $-1 #
edge $-1 $451 14.447272338426085 $594 29.256734186699955 $449 $595 forward 7 unknown #
vertex $-1 $450 $596 #
vertex $-1 $448 $597 #
straight-curve $-1 -36.299275600989105 -6.6056786157765686 0 0 0 -1 I I #
coedge $-1 $443 $308 $313 $464 forward $300 $-1 #
coedge $-1 $308 $443 $444 $588 forward $300 $-1 #
vertex $-1 $309 $598 #
straight-curve $-1 -21.85200326256302 -11.685969134896901 -13.012262912531529 -1 0 0 I I #
coedge $-1 $449 $310 $445 $589 forward $441 $-1 #
coedge $-1 $310 $449 $312 $463 forward $441 $-1 #
vertex $-1 $311 $599 #
straight-curve $-1 -21.85200326256302 -11.685969134896901 13.012262912531529 1 0 0 I I #
coedge $-1 $313 $312 $447 $591 forward $314 $-1 #
edge $-1 $594 6.6056786157765686 $316 11.685969134896901 $312 $600 forward 7 unknown #
edge $-1 $315 -11.685969134896901 $592 -6.6056786157765686 $313 $601 forward 7 unknown #
point $-1 -51.108737449262975 -11.685969134896901 -13.012262912531529 #
point $-1 -51.108737449262975 -11.685969134896901 13.012262912531529 #
plane-surface $-1 0 0 13.012262912531529 0 0 1 1 0 0 forward_v I I I I #
coedge $-1 $478 $477 $470 $602 forward $319 $-1 #
coedge $-1 $470 $321 $323 $474 reversed $193 $-1 #
coedge $-1 $321 $469 $468 $602 reversed $193 $-1 #
coedge $-1 $329 $324 $321 $472 forward $330 $-1 #
edge $-1 $475 -32.974467311775626 $603 -30.578214990055663 $471 $604 forward 7 unknown #
coedge $-1 $323 $322 $478 $605 reversed $121 $-1 #
edge $-1 $606 -1.4321304723534956e-014 $475 4.7925047718548095 $469 $607 forward 7 unknown #
vertex $-1 $325 $608 #
straight-curve $-1 -5.0058692643810261 -24.97024846164604 13.012262912531529 -1 0 0 I I #
coedge $-1 $468 $326 $329 $482 reversed $319 $-1 #
coedge $-1 $326 $468 $473 $605 forward $319 $-1 #
vertex $-1 $327 $609 #
straight-curve $-1 0.88805430317198208 -27.366500783366 29.985284037542037 0 0 1 I I #
straight-curve $-1 0.88805430317198208 -27.366500783365993 8.8618319952769298 0 -0.49999998660252726 -0.86602541151947299 I I #
edge $-1 $603 -20.911531360696088 $331 0.88805430317198208 $477 $610 forward 7 unknown #
point $-1 0.88805430317198208 -27.366500783366 13.012262912531529 #
point $-1 0.88805430317198208 -24.97024846164604 13.012262912531529 #
edge $-1 $611 1 $611 0 $334 $-1 forward 7 unknown #
vertex $-1 $335 $612 #
ellipse-curve $-1 -16.551614227922471 -25.10267203626718 10.321763800845146 0 -0.86602541151947299 0.49999998660252726 0.5 0 0 1 I I #
point $-1 -16.051614227922471 -26.168374622506022 10.937047453904233 #
edge $-1 $613 1 $613 0 $338 $-1 forward 7 unknown #
vertex $-1 $339 $614 #
ellipse-curve $-1 -10.011738528762052 -25.10267203626718 10.321763800845146 0 -0.86602541151947299 0.49999998660252726 0.5 0 0 1 I I #
point $-1 -9.5117385287620522 -26.168374622506022 10.937047453904233 #
edge $-1 $615 1 $615 0 $342 $-1 forward 7 unknown #
vertex $-1 $343 $616 #
ellipse-curve $-1 -3.4718628296016334 -25.10267203626718 10.321763800845146 0 -0.86602541151947299 0.49999998660252726 0.5 0 0 1 I I #
point $-1 -2.9718628296016334 -26.168374622506022 10.937047453904233 #
plane-surface $-1 0 0 13.012262912531529 0 0 1 1 0 0 forward_v I I I I #
coedge $-1 $508 $507 $500 $617 forward $347 $-1 #
coedge $-1 $500 $349 $351 $504 reversed $222 $-1 #
coedge $-1 $349 $499 $498 $617 reversed $222 $-1 #
coedge $-1 $357 $352 $349 $502 forward $358 $-1 #
edge $-1 $505 -32.974467311775626 $618 -30.578214990055663 $501 $619 forward 7 unknown #
coedge $-1 $351 $350 $508 $620 reversed $140 $-1 #
edge $-1 $621 -1.4321304723534956e-014 $505 4.7925047718548095 $499 $622 forward 7 unknown #
vertex $-1 $353 $623 #
straight-curve $-1 16.846133998181998 -24.97024846164604 13.012262912531529 -1 0 0 I I #
coedge $-1 $498 $354 $357 $512 reversed $347 $-1 #
coedge $-1 $354 $498 $503 $620 forward $347 $-1 #
vertex $-1 $355 $624 #
straight-curve $-1 44.592060828298031 -27.366500783366 29.985284037542037 0 0 1 I I #
straight-curve $-1 44.592060828298031 -27.366500783365993 8.8618319952769298 0 -0.49999998660252726 -0.86602541151947299 I I #
edge $-1 $618 22.792475164429959 $359 44.592060828298031 $507 $625 forward 7 unknown #
point $-1 44.592060828298031 -27.366500783366 13.012262912531529 #
point $-1 44.592060828298031 -24.97024846164604 13.012262912531529 #
edge $-1 $626 1 $626 0 $362 $-1 forward 7 unknown #
vertex $-1 $363 $627 #
ellipse-curve $-1 27.152392297203576 -25.10267203626718 10.321763800845146 0 -0.86602541151947299 0.49999998660252726 0.5 0 0 1 I I #
point $-1 27.652392297203576 -26.168374622506022 10.937047453904233 #
edge $-1 $628 1 $628 0 $366 $-1 forward 7 unknown #
vertex $-1 $367 $629 #
ellipse-curve $-1 33.692267996363995 -25.10267203626718 10.321763800845146 0 -0.86602541151947299 0.49999998660252726 0.5 0 0 1 I I #
point $-1 34.192267996363995 -26.168374622506022 10.937047453904233 #
edge $-1 $630 1 $630 0 $370 $-1 forward 7 unknown #
vertex $-1 $371 $631 #
ellipse-curve $-1 40.232143695524414 -25.10267203626718 10.321763800845146 0 -0.86602541151947299 0.49999998660252726 0.5 0 0 1 I I #
point $-1 40.732143695524414 -26.168374622506022 10.937047453904233 #
plane-surface $-1 0 0 13.012262912531529 0 0 1 1 0 0 forward_v I I I I #
coedge $-1 $538 $537 $530 $632 forward $375 $-1 #
coedge $-1 $530 $377 $379 $534 reversed $251 $-1 #
coedge $-1 $377 $529 $528 $632 reversed $251 $-1 #
coedge $-1 $385 $380 $377 $532 forward $386 $-1 #
edge $-1 $535 -17.732911024441108 $633 -15.157381891445247 $531 $634 forward 7 unknown #
coedge $-1 $379 $378 $538 $635 reversed $159 $-1 #
edge $-1 $636 -54.733001566732035 $535 -49.872772153558444 $529 $637 forward 7 unknown #
vertex $-1 $381 $638 #
straight-curve $-1 -11.81616040818891 24.790971650370135 13.012262912531529 1 0 0 I I #
coedge $-1 $528 $382 $385 $542 reversed $375 $-1 #
coedge $-1 $382 $528 $533 $635 forward $375 $-1 #
vertex $-1 $383 $639 #
straight-curve $-1 -31.718168893943599 27.366500783366 54.736890288149382 0 0 1 I I #
straight-curve $-1 -31.718168893943599 -1.6375704420248098 55.306772782622971 0 0.52991925155115449 -0.84804810408105047 I I #
edge $-1 $633 15.546472738812042 $387 31.718168893943599 $537 $640 forward 7 unknown #
point $-1 -31.718168893943599 27.366500783366 13.012262912531529 #
point $-1 -31.718168893943599 24.790971650370139 13.012262912531526 #
edge $-1 $641 1 $641 0 $390 $-1 forward 7 unknown #
vertex $-1 $391 $642 #
ellipse-curve $-1 -23.63232081637782 24.607210869606011 10.031897683447516 0 0.84804810408105047 0.52991925155115449 1 0 0 1 I I #
point $-1 -22.63232081637782 26.07873621686808 10.951408742911124 #
loop $-1 $-1 $402 $394 #
plane-surface $-1 0 27.366500783366 0 0 -1 0 0 0 -1 forward_v I I I I #
coedge $-1 $552 $397 $399 $556 reversed $266 $-1 #
coedge $-1 $397 $551 $643 $644 reversed $266 $-1 #
coedge $-1 $405 $400 $397 $554 forward $395 $-1 #
edge $-1 $557 -17.732911024441108 $645 -15.157381891445247 $553 $646 forward 7 unknown #
coedge $-1 $399 $398 $560 $647 reversed $168 $-1 #
edge $-1 $648 -54.733001566732035 $557 -49.872772153558444 $551 $649 forward 7 unknown #
vertex $-1 $401 $650 #
straight-curve $-1 19.220891332325849 24.790971650370135 13.012262912531529 1 0 0 I I #
coedge $-1 $643 $402 $405 $564 reversed $549 $-1 #
coedge $-1 $402 $643 $555 $647 forward $549 $-1 #
vertex $-1 $403 $651 #
straight-curve $-1 30.355934587085919 27.366500783366 54.736890288149382 0 0 1 I I #
straight-curve $-1 30.355934587085919 -1.6375704420248098 55.306772782622971 0 0.52991925155115449 -0.84804810408105047 I I #
edge $-1 $645 -46.527630742217475 $406 -30.355934587085919 $559 $652 forward 7 unknown #
point $-1 30.355934587085919 27.366500783366 13.012262912531529 #
point $-1 30.355934587085919 24.790971650370139 13.012262912531526 #
edge $-1 $653 1 $653 0 $409 $-1 forward 7 unknown #
vertex $-1 $410 $654 #
ellipse-curve $-1 38.441782664651697 24.607210869606011 10.031897683447516 0 0.84804810408105047 0.52991925155115449 1 0 0 1 I I #
point $-1 39.441782664651697 26.07873621686808 10.951408742911124 #
plane-surface $-1 51.108737449262975 0 0 -1 0 0 0 0 1 forward_v I I I I #
coedge $-1 $418 $416 $420 $576 reversed $281 $-1 #
edge $-1 $431 -13.012262912531529 $578 13.012262912531529 $430 $655 forward 7 unknown #
vertex $-1 $576 $656 #
straight-curve $-1 -51.108737449262975 -27.366500783366 0 0 0 -1 I I #
edge $-1 $574 -27.366500783366 $578 27.366500783366 $572 $657 forward 7 unknown #
straight-curve $-1 0 -27.366500783366 -13.012262912531529 -1 0 0 I I #
vertex $-1 $423 $658 #
straight-curve $-1 0 27.366500783366 -13.012262912531529 1 0 0 I I #
point $-1 51.108737449262975 27.366500783366 -13.012262912531529 #
point $-1 51.108737449262975 -27.366500783366 -13.012262912531529 #
straight-curve $-1 -51.108737449262975 0 13.012262912531529 0 -1 0 I I #
point $-1 -51.108737449262975 27.366500783366 13.012262912531529 #
point $-1 -51.108737449262975 -27.366500783366 13.012262912531529 #
straight-curve $-1 51.108737449262975 -27.366500783366 0 0 0 -1 I I #
straight-curve $-1 51.108737449262975 27.366500783366 0 0 0 -1 I I #
plane-surface $-1 -51.108737449262975 0 0 1 0 0 0 0 -1 forward_v I I I I #
edge $-1 $452 2.0327666781082012 $456 7.1130571972285335 $455 $659 forward 7 unknown #
edge $-1 $460 -7.1130571972285335 $451 -2.0327666781082012 $458 $660 forward 7 unknown #
straight-curve $-1 -36.299275600989105 -11.685969134896901 0 0 0 -1 I I #
edge $-1 $594 -13.012262912531529 $592 13.012262912531529 $462 $661 forward 7 unknown #
vertex $-1 $591 $662 #
straight-curve $-1 -21.85200326256302 -6.6056786157765686 -13.012262912531529 1 0 0 I I #
vertex $-1 $463 $663 #
straight-curve $-1 -21.85200326256302 -6.6056786157765686 13.012262912531529 -1 0 0 I I #
point $-1 -36.299275600989105 -6.6056786157765686 13.012262912531529 #
point $-1 -36.299275600989105 -6.6056786157765686 -13.012262912531529 #
point $-1 -36.299275600989105 -11.685969134896901 -13.012262912531529 #
point $-1 -36.299275600989105 -11.685969134896901 13.012262912531529 #
straight-curve $-1 -51.108737449262975 0 13.012262912531529 0 -1 0 I I #
straight-curve $-1 -51.108737449262975 0 -13.012262912531529 0 1 0 I I #
edge $-1 $603 16.973021125010508 $606 21.123452042265122 $468 $664 forward 7 unknown #
vertex $-1 $482 $665 #
straight-curve $-1 -20.911531360696088 -57.944715773421663 13.012262912531529 0 -1 0 I I #
edge $-1 $606 -15.905662096315062 $479 5.8939235675530082 $478 $666 forward 7 unknown #
vertex $-1 $605 $667 #
straight-curve $-1 -20.911531360696088 -27.366500783365993 8.8618319952769298 0 0.49999998660252726 0.86602541151947299 I I #
point $-1 -20.911531360696088 -24.97024846164604 13.012262912531529 #
point $-1 0.88805430317198208 -27.366500783366 8.8618319952769173 #
straight-curve $-1 0 -27.366500783366 13.012262912531529 1 0 0 I I #
vertex $-1 $485 $668 #
point $-1 -16.051614227922471 -25.10267203626718 10.321763800845146 #
vertex $-1 $489 $669 #
point $-1 -9.5117385287620522 -25.10267203626718 10.321763800845146 #
vertex $-1 $493 $670 #
point $-1 -2.9718628296016334 -25.10267203626718 10.321763800845146 #
edge $-1 $618 16.973021125010508 $621 21.123452042265122 $498 $671 forward 7 unknown #
vertex $-1 $512 $672 #
straight-curve $-1 22.792475164429959 -57.944715773421663 13.012262912531529 0 -1 0 I I #
edge $-1 $621 5.9463411662479615 $509 27.745926830116034 $508 $673 forward 7 unknown #
vertex $-1 $620 $674 #
straight-curve $-1 22.792475164429959 -27.366500783365993 8.8618319952769298 0 0.49999998660252726 0.86602541151947299 I I #
point $-1 22.792475164429959 -24.97024846164604 13.012262912531529 #
point $-1 44.592060828298031 -27.366500783366 8.8618319952769173 #
straight-curve $-1 0 -27.366500783366 13.012262912531529 1 0 0 I I #
vertex $-1 $515 $675 #
point $-1 27.652392297203576 -25.10267203626718 10.321763800845146 #
vertex $-1 $519 $676 #
point $-1 34.192267996363995 -25.10267203626718 10.321763800845146 #
vertex $-1 $523 $677 #
point $-1 40.732143695524414 -25.10267203626718 10.321763800845146 #
edge $-1 $633 41.724627375617857 $636 45.846335714858682 $528 $678 forward 7 unknown #
vertex $-1 $542 $679 #
straight-curve $-1 -15.546472738812042 42.523882674811247 13.012262912531526 0 1 0 I I #
edge $-1 $636 3.7303123306231321 $539 19.902008485754688 $538 $680 forward 7 unknown #
vertex $-1 $635 $681 #
straight-curve $-1 -15.546472738812042 -1.6375704420248098 55.306772782622971 0 -0.52991925155115449 0.84804810408105047 I I #
point $-1 -15.546472738812042 24.790971650370139 13.012262912531526 #
point $-1 -31.718168893943599 27.366500783366 8.8905545732907001 #
straight-curve $-1 0 27.366500783366 13.012262912531529 -1 0 0 I I #
vertex $-1 $545 $682 #
point $-1 -22.63232081637782 24.607210869606011 10.031897683447516 #
coedge $-1 $560 $559 $552 $644 forward $549 $-1 #
edge $-1 $645 41.724627375617857 $648 45.846335714858682 $643 $683 forward 7 unknown #
vertex $-1 $564 $684 #
straight-curve $-1 46.527630742217475 42.523882674811247 13.012262912531526 0 1 0 I I #
edge $-1 $648 -27.306739409891627 $561 -11.13504325476007 $560 $685 forward 7 unknown #
vertex $-1 $647 $686 #
straight-curve $-1 46.527630742217475 -1.6375704420248098 55.306772782622971 0 -0.52991925155115449 0.84804810408105047 I I #
point $-1 46.527630742217475 24.790971650370139 13.012262912531526 #
point $-1 30.355934587085919 27.366500783366 8.8905545732907001 #
straight-curve $-1 0 27.366500783366 13.012262912531529 -1 0 0 I I #
vertex $-1 $567 $687 #
point $-1 39.441782664651697 24.607210869606011 10.031897683447516 #
straight-curve $-1 -51.108737449262975 27.366500783366 0 0 0 -1 I I #
point $-1 -51.108737449262975 -27.366500783366 -13.012262912531529 #
straight-curve $-1 -51.108737449262975 0 -13.012262912531529 0 1 0 I I #
point $-1 -51.108737449262975 27.366500783366 -13.012262912531529 #
straight-curve $-1 -36.299275600989105 -4.5729119376683673 -13.012262912531529 0 -1 0 I I #
straight-curve $-1 -36.299275600989105 -4.5729119376683673 13.012262912531529 0 1 0 I I #
straight-curve $-1 -51.108737449262975 -6.6056786157765686 0 0 0 -1 I I #
point $-1 -51.108737449262975 -6.6056786157765686 -13.012262912531529 #
point $-1 -51.108737449262975 -6.6056786157765686 13.012262912531529 #
straight-curve $-1 -20.911531360696088 -27.366500783366 29.985284037542037 0 0 -1 I I #
point $-1 -20.911531360696088 -27.366500783366 13.012262912531529 #
straight-curve $-1 -5.0058692643810261 -27.366500783366 8.8618319952769173 1 0 0 I I #
point $-1 -20.911531360696088 -27.366500783366 8.8618319952769173 #
point $-1 -16.551614227922471 -24.669659330507443 10.071763807543883 #
point $-1 -10.011738528762052 -24.669659330507443 10.071763807543883 #
point $-1 -3.4718628296016334 -24.669659330507443 10.071763807543883 #
straight-curve $-1 22.792475164429959 -27.366500783366 29.985284037542037 0 0 -1 I I #
point $-1 22.792475164429959 -27.366500783366 13.012262912531529 #
straight-curve $-1 16.846133998181998 -27.366500783366 8.8618319952769173 1 0 0 I I #
point $-1 22.792475164429959 -27.366500783366 8.8618319952769173 #
point $-1 27.152392297203576 -24.669659330507443 10.071763807543883 #
point $-1 33.692267996363995 -24.669659330507443 10.071763807543883 #
point $-1 40.232143695524414 -24.669659330507443 10.071763807543883 #
straight-curve $-1 -15.546472738812042 27.366500783366 54.736890288149382 0 0 -1 I I #
point $-1 -15.546472738812042 27.366500783366 13.012262912531529 #
straight-curve $-1 -11.81616040818891 27.366500783366 8.8905545732906965 -1 0 0 I I #
point $-1 -15.546472738812042 27.366500783366 8.8905545732907001 #
point $-1 -23.63232081637782 23.759162765524959 9.5019784318963634 #
straight-curve $-1 46.527630742217475 27.366500783366 54.736890288149382 0 0 -1 I I #
point $-1 46.527630742217475 27.366500783366 13.012262912531529 #
straight-curve $-1 19.220891332325849 27.366500783366 8.8905545732906965 -1 0 0 I I #
point $-1 46.527630742217475 27.366500783366 8.8905545732907001 #
point $-1 38.441782664651697 23.759162765524959 9.5019784318963634 #
End-of-ACIS-data 