500 0 11 0           
7 Unknown 11 ACIS 5.0 NT 24 Thu Mar 25 21:47:16 1999 
-1 9.9999999999999995e-007 1e-010 
body $-1 $11 $-1 $12 #
body $-1 $13 $-1 $14 #
body $-1 $15 $-1 $16 #
body $-1 $17 $-1 $18 #
body $-1 $19 $-1 $20 #
body $-1 $21 $-1 $22 #
body $-1 $23 $-1 $24 #
body $-1 $25 $-1 $26 #
body $-1 $27 $-1 $28 #
body $-1 $29 $-1 $30 #
body $-1 $31 $-1 $32 #
lump $-1 $-1 $33 $0 #
transform $-1 1 0 0 0 1 0 0 0 1 47.325663014618364 22.988050484926003 9.6953630569332514 1 rotate no_reflect no_shear #
lump $-1 $-1 $34 $1 #
transform $-1 1 0 0 0 0.57357642473473569 0.81915205242281985 0 -0.81915205242281985 0.57357642473473569 82.123825699945201 -77.533827981390743 67.005779597963652 1 rotate no_reflect no_shear #
lump $-1 $-1 $35 $2 #
transform $-1 1 0 0 0 -0.57357642473473569 -0.81915205242281985 0 0.81915205242281985 -0.57357642473473569 74.607325502370301 5.7106797883453373 13.69098242189056 1 rotate no_reflect no_shear #
lump $-1 $-1 $36 $3 #
transform $-1 1 0 0 0 -0.57357642473473569 -0.81915205242281985 0 0.81915205242281985 -0.57357642473473569 82.123825699945215 5.7106797883453373 13.69098242189056 1 rotate no_reflect no_shear #
lump $-1 $-1 $37 $4 #
transform $-1 1 0 0 0 -0.57357642473473569 -0.81915205242281985 0 0.81915205242281985 -0.57357642473473569 89.640325897520128 5.7106797883453373 13.69098242189056 1 rotate no_reflect no_shear #
lump $-1 $-1 $38 $5 #
transform $-1 1 0 0 0 0.57357642473473569 -0.81915205242281985 0 0.81915205242281985 0.57357642473473569 32.716631408604329 97.139121333711813 105.0777010641213 1 rotate no_reflect no_shear #
lump $-1 $-1 $39 $6 #
transform $-1 1 0 0 0 -0.57357642473473569 0.81915205242281985 0 -0.81915205242281985 -0.57357642473473569 28.367642547107465 40.797816784491403 14.168388704255523 1 rotate no_reflect no_shear #
lump $-1 $-1 $40 $7 #
transform $-1 1 0 0 0 -0.57357642473473569 0.81915205242281985 0 -0.81915205242281985 -0.57357642473473569 37.065620270101192 40.797816784491403 14.168388704255523 1 rotate no_reflect no_shear #
lump $-1 $-1 $41 $8 #
transform $-1 1 0 0 0 0.57357642473473569 -0.81915205242281985 0 0.81915205242281985 0.57357642473473569 80.0422944232227 97.139121333711813 105.0777010641213 1 rotate no_reflect no_shear #
lump $-1 $-1 $42 $9 #
transform $-1 1 0 0 0 -0.57357642473473569 0.81915205242281985 0 -0.81915205242281985 -0.57357642473473569 75.693305561725822 40.797816784491403 14.168388704255523 1 rotate no_reflect no_shear #
lump $-1 $-1 $43 $10 #
transform $-1 1 0 0 0 -0.57357642473473569 0.81915205242281985 0 -0.81915205242281985 -0.57357642473473569 84.391283284719549 40.797816784491403 14.168388704255523 1 rotate no_reflect no_shear #
shell $-1 $-1 $-1 $44 $-1 $11 #
shell $-1 $-1 $-1 $45 $-1 $13 #
shell $-1 $-1 $-1 $46 $-1 $15 #
shell $-1 $-1 $-1 $47 $-1 $17 #
shell $-1 $-1 $-1 $48 $-1 $19 #
shell $-1 $-1 $-1 $49 $-1 $21 #
shell $-1 $-1 $-1 $50 $-1 $23 #
shell $-1 $-1 $-1 $51 $-1 $25 #
shell $-1 $-1 $-1 $52 $-1 $27 #
shell $-1 $-1 $-1 $53 $-1 $29 #
shell $-1 $-1 $-1 $54 $-1 $31 #
face $-1 $55 $56 $33 $-1 $57 forward single #
face $-1 $58 $59 $34 $-1 $60 forward single #
face $-1 $61 $62 $35 $-1 $63 forward single #
face $-1 $64 $65 $36 $-1 $66 forward single #
face $-1 $67 $68 $37 $-1 $69 forward single #
face $-1 $70 $71 $38 $-1 $72 forward single #
face $-1 $73 $74 $39 $-1 $75 forward single #
face $-1 $76 $77 $40 $-1 $78 forward single #
face $-1 $79 $80 $41 $-1 $81 forward single #
face $-1 $82 $83 $42 $-1 $84 forward single #
face $-1 $85 $86 $43 $-1 $87 forward single #
face $-1 $88 $89 $33 $-1 $90 reversed single #
loop $-1 $-1 $91 $44 #
plane-surface $-1 0 0 9.6953630569332514 0 0 1 1 0 0 forward_v I I I I #
face $-1 $92 $93 $34 $-1 $94 reversed single #
loop $-1 $-1 $95 $45 #
plane-surface $-1 0 0 94.651326029236728 0 0 1 1 0 0 forward_v I I I I #
face $-1 $96 $97 $35 $-1 $98 forward single #
loop $-1 $99 $100 $46 #
cone-surface $-1 0 0 -2.4343470564897611 0 0 1 1.5 0 0 1 I I 0 1 1.5 forward I I I I #
face $-1 $101 $102 $36 $-1 $103 forward single #
loop $-1 $104 $105 $47 #
cone-surface $-1 0 0 -2.4343470564897611 0 0 1 1.5 0 0 1 I I 0 1 1.5 forward I I I I #
face $-1 $106 $107 $37 $-1 $108 forward single #
loop $-1 $109 $110 $48 #
cone-surface $-1 0 0 -2.4343470564897611 0 0 1 1.5 0 0 1 I I 0 1 1.5 forward I I I I #
face $-1 $111 $112 $38 $-1 $113 reversed single #
loop $-1 $-1 $114 $49 #
plane-surface $-1 0 0 94.651326029236728 0 0 1 1 0 0 forward_v I I I I #
face $-1 $115 $116 $39 $-1 $117 forward single #
loop $-1 $118 $119 $50 #
cone-surface $-1 0 0 -2.1971037934507276 0 0 1 1.5 0 0 1 I I 0 1 1.5 forward I I I I #
face $-1 $120 $121 $40 $-1 $122 forward single #
loop $-1 $123 $124 $51 #
cone-surface $-1 0 0 -2.1971037934507276 0 0 1 1.5 0 0 1 I I 0 1 1.5 forward I I I I #
face $-1 $125 $126 $41 $-1 $127 reversed single #
loop $-1 $-1 $128 $52 #
plane-surface $-1 0 0 94.651326029236728 0 0 1 1 0 0 forward_v I I I I #
face $-1 $129 $130 $42 $-1 $131 forward single #
loop $-1 $132 $133 $53 #
cone-surface $-1 0 0 -2.1971037934507276 0 0 1 1.5 0 0 1 I I 0 1 1.5 forward I I I I #
face $-1 $134 $135 $43 $-1 $136 forward single #
loop $-1 $137 $138 $54 #
cone-surface $-1 0 0 -2.1971037934507276 0 0 1 1.5 0 0 1 I I 0 1 1.5 forward I I I I #
face $-1 $139 $140 $33 $-1 $141 reversed single #
loop $-1 $-1 $142 $55 #
plane-surface $-1 0 0 -9.6953630569332514 0 0 1 1 0 0 forward_v I I I I #
coedge $-1 $143 $144 $145 $146 forward $56 $-1 #
face $-1 $147 $148 $34 $-1 $149 reversed single #
loop $-1 $-1 $150 $58 #
plane-surface $-1 0 0 -94.651326029236728 0 0 1 1 0 0 forward_v I I I I #
coedge $-1 $151 $152 $153 $154 forward $59 $-1 #
face $-1 $-1 $155 $35 $-1 $156 forward single #
loop $-1 $-1 $157 $61 #
plane-surface $-1 0 0 -4.1186941129795223 0 0 -1 -1 0 0 forward_v I I I I #
loop $-1 $-1 $158 $46 #
coedge $-1 $100 $100 $157 $159 reversed $62 $-1 #
face $-1 $-1 $160 $36 $-1 $161 forward single #
loop $-1 $-1 $162 $64 #
plane-surface $-1 0 0 -4.1186941129795223 0 0 -1 -1 0 0 forward_v I I I I #
loop $-1 $-1 $163 $47 #
coedge $-1 $105 $105 $162 $164 reversed $65 $-1 #
face $-1 $-1 $165 $37 $-1 $166 forward single #
loop $-1 $-1 $167 $67 #
plane-surface $-1 0 0 -4.1186941129795223 0 0 -1 -1 0 0 forward_v I I I I #
loop $-1 $-1 $168 $48 #
coedge $-1 $110 $110 $167 $169 reversed $68 $-1 #
face $-1 $170 $171 $38 $-1 $172 reversed single #
loop $-1 $-1 $173 $70 #
plane-surface $-1 0 0 -94.651326029236728 0 0 1 1 0 0 forward_v I I I I #
coedge $-1 $174 $175 $176 $177 forward $71 $-1 #
face $-1 $-1 $178 $39 $-1 $179 forward single #
loop $-1 $-1 $180 $73 #
plane-surface $-1 0 0 -3.6442075869014552 0 0 -1 -1 0 0 forward_v I I I I #
loop $-1 $-1 $181 $50 #
coedge $-1 $119 $119 $180 $182 reversed $74 $-1 #
face $-1 $-1 $183 $40 $-1 $184 forward single #
loop $-1 $-1 $185 $76 #
plane-surface $-1 0 0 -3.6442075869014552 0 0 -1 -1 0 0 forward_v I I I I #
loop $-1 $-1 $186 $51 #
coedge $-1 $124 $124 $185 $187 reversed $77 $-1 #
face $-1 $188 $189 $41 $-1 $190 reversed single #
loop $-1 $-1 $191 $79 #
plane-surface $-1 0 0 -94.651326029236728 0 0 1 1 0 0 forward_v I I I I #
coedge $-1 $192 $193 $194 $195 forward $80 $-1 #
face $-1 $-1 $196 $42 $-1 $197 forward single #
loop $-1 $-1 $198 $82 #
plane-surface $-1 0 0 -3.6442075869014552 0 0 -1 -1 0 0 forward_v I I I I #
loop $-1 $-1 $199 $53 #
coedge $-1 $133 $133 $198 $200 reversed $83 $-1 #
face $-1 $-1 $201 $43 $-1 $202 forward single #
loop $-1 $-1 $203 $85 #
plane-surface $-1 0 0 -3.6442075869014552 0 0 -1 -1 0 0 forward_v I I I I #
loop $-1 $-1 $204 $54 #
coedge $-1 $138 $138 $203 $205 reversed $86 $-1 #
face $-1 $206 $207 $33 $-1 $208 reversed single #
loop $-1 $-1 $209 $88 #
plane-surface $-1 0 -22.988050484926003 0 0 1 0 0 0 1 forward_v I I I I #
coedge $-1 $210 $211 $212 $213 forward $89 $-1 #
coedge $-1 $214 $91 $215 $216 forward $56 $-1 #
coedge $-1 $91 $214 $217 $218 forward $56 $-1 #
coedge $-1 $219 $220 $91 $146 reversed $221 $-1 #
edge $-1 $222 -22.988050484926003 $223 22.988050484926003 $145 $224 forward 7 unknown #
face $-1 $225 $226 $34 $-1 $227 reversed single #
loop $-1 $-1 $228 $92 #
plane-surface $-1 0 -189.30265205847346 0 0 1 0 0 0 1 forward_v I I I I #
coedge $-1 $229 $230 $231 $232 forward $93 $-1 #
coedge $-1 $233 $95 $234 $235 forward $59 $-1 #
coedge $-1 $95 $233 $236 $237 forward $59 $-1 #
coedge $-1 $238 $239 $95 $154 reversed $240 $-1 #
edge $-1 $241 -189.30265205847346 $242 189.30265205847346 $153 $243 forward 7 unknown #
loop $-1 $244 $245 $96 #
cone-surface $-1 0 0 0 0 0 1 0.75 0 0 1 I I -0.70710678118654757 0.70710678118654757 0.75 forward I I I I #
coedge $-1 $157 $157 $100 $159 forward $97 $-1 #
coedge $-1 $158 $158 $245 $246 forward $99 $-1 #
edge $-1 $247 0 $247 6.2831853071796004 $157 $248 forward 7 unknown #
loop $-1 $249 $250 $101 #
cone-surface $-1 0 0 0 0 0 1 0.75 0 0 1 I I -0.70710678118654757 0.70710678118654757 0.75 forward I I I I #
coedge $-1 $162 $162 $105 $164 forward $102 $-1 #
coedge $-1 $163 $163 $250 $251 forward $104 $-1 #
edge $-1 $252 0 $252 6.2831853071796004 $162 $253 forward 7 unknown #
loop $-1 $254 $255 $106 #
cone-surface $-1 0 0 0 0 0 1 0.75 0 0 1 I I -0.70710678118654757 0.70710678118654757 0.75 forward I I I I #
coedge $-1 $167 $167 $110 $169 forward $107 $-1 #
coedge $-1 $168 $168 $255 $256 forward $109 $-1 #
edge $-1 $257 0 $257 6.2831853071796004 $167 $258 forward 7 unknown #
face $-1 $259 $260 $38 $-1 $261 reversed single #
loop $-1 $-1 $262 $111 #
plane-surface $-1 0 -189.30265205847346 0 0 1 0 0 0 1 forward_v I I I I #
coedge $-1 $263 $264 $265 $266 forward $112 $-1 #
coedge $-1 $267 $114 $268 $269 forward $71 $-1 #
coedge $-1 $114 $267 $270 $271 forward $71 $-1 #
coedge $-1 $272 $273 $114 $177 reversed $274 $-1 #
edge $-1 $275 -189.30265205847346 $276 189.30265205847346 $176 $277 forward 7 unknown #
loop $-1 $278 $279 $115 #
cone-surface $-1 0 0 0 0 0 1 0.75 0 0 1 I I -0.70710678118654757 0.70710678118654757 0.75 forward I I I I #
coedge $-1 $180 $180 $119 $182 forward $116 $-1 #
coedge $-1 $181 $181 $279 $280 forward $118 $-1 #
edge $-1 $281 0 $281 6.2831853071796004 $180 $282 forward 7 unknown #
loop $-1 $283 $284 $120 #
cone-surface $-1 0 0 0 0 0 1 0.75 0 0 1 I I -0.70710678118654757 0.70710678118654757 0.75 forward I I I I #
coedge $-1 $185 $185 $124 $187 forward $121 $-1 #
coedge $-1 $186 $186 $284 $285 forward $123 $-1 #
edge $-1 $286 0 $286 6.2831853071796004 $185 $287 forward 7 unknown #
face $-1 $288 $289 $41 $-1 $290 reversed single #
loop $-1 $-1 $291 $125 #
plane-surface $-1 0 -189.30265205847346 0 0 1 0 0 0 1 forward_v I I I I #
coedge $-1 $292 $293 $294 $295 forward $126 $-1 #
coedge $-1 $296 $128 $297 $298 forward $80 $-1 #
coedge $-1 $128 $296 $299 $300 forward $80 $-1 #
coedge $-1 $301 $302 $128 $195 reversed $303 $-1 #
edge $-1 $304 -189.30265205847346 $305 189.30265205847346 $194 $306 forward 7 unknown #
loop $-1 $307 $308 $129 #
cone-surface $-1 0 0 0 0 0 1 0.75 0 0 1 I I -0.70710678118654757 0.70710678118654757 0.75 forward I I I I #
coedge $-1 $198 $198 $133 $200 forward $130 $-1 #
coedge $-1 $199 $199 $308 $309 forward $132 $-1 #
edge $-1 $310 0 $310 6.2831853071796004 $198 $311 forward 7 unknown #
loop $-1 $312 $313 $134 #
cone-surface $-1 0 0 0 0 0 1 0.75 0 0 1 I I -0.70710678118654757 0.70710678118654757 0.75 forward I I I I #
coedge $-1 $203 $203 $138 $205 forward $135 $-1 #
coedge $-1 $204 $204 $313 $314 forward $137 $-1 #
edge $-1 $315 0 $315 6.2831853071796004 $203 $316 forward 7 unknown #
face $-1 $317 $318 $33 $-1 $319 reversed single #
loop $-1 $-1 $320 $139 #
plane-surface $-1 -47.325663014618364 0 0 1 0 0 0 0 -1 forward_v I I I I #
coedge $-1 $321 $217 $322 $323 forward $140 $-1 #
coedge $-1 $324 $142 $321 $325 forward $89 $-1 #
coedge $-1 $142 $324 $326 $327 forward $89 $-1 #
coedge $-1 $220 $219 $142 $213 reversed $221 $-1 #
edge $-1 $328 -22.988050484926003 $329 22.988050484926003 $212 $330 forward 7 unknown #
coedge $-1 $144 $143 $331 $332 forward $56 $-1 #
coedge $-1 $333 $334 $143 $216 reversed $318 $-1 #
edge $-1 $223 -47.325663014618364 $335 47.325663014618364 $215 $336 forward 7 unknown #
coedge $-1 $209 $337 $144 $218 reversed $140 $-1 #
edge $-1 $338 -47.325663014618364 $222 47.325663014618364 $217 $339 forward 7 unknown #
coedge $-1 $212 $145 $337 $340 forward $221 $-1 #
coedge $-1 $145 $212 $333 $341 reversed $221 $-1 #
loop $-1 $-1 $219 $317 #
vertex $-1 $146 $342 #
vertex $-1 $146 $343 #
straight-curve $-1 47.325663014618364 0 9.6953630569332514 0 1 0 I I #
face $-1 $344 $345 $34 $-1 $346 reversed single #
loop $-1 $-1 $347 $147 #
plane-surface $-1 -12.52750032929152 0 0 1 0 0 0 0 -1 forward_v I I I I #
coedge $-1 $348 $236 $349 $350 forward $148 $-1 #
coedge $-1 $351 $150 $348 $352 forward $93 $-1 #
coedge $-1 $150 $351 $353 $354 forward $93 $-1 #
coedge $-1 $239 $238 $150 $232 reversed $240 $-1 #
edge $-1 $355 -189.30265205847346 $356 189.30265205847346 $231 $357 forward 7 unknown #
coedge $-1 $152 $151 $358 $359 forward $59 $-1 #
coedge $-1 $360 $361 $151 $235 reversed $345 $-1 #
edge $-1 $242 -12.52750032929152 $362 12.52750032929152 $234 $363 forward 7 unknown #
coedge $-1 $228 $364 $152 $237 reversed $148 $-1 #
edge $-1 $365 -12.52750032929152 $241 12.52750032929152 $236 $366 forward 7 unknown #
coedge $-1 $231 $153 $364 $367 forward $240 $-1 #
coedge $-1 $153 $231 $360 $368 reversed $240 $-1 #
loop $-1 $-1 $238 $344 #
vertex $-1 $154 $369 #
vertex $-1 $154 $370 #
straight-curve $-1 12.52750032929152 0 94.651326029236728 0 1 0 I I #
loop $-1 $-1 $371 $96 #
coedge $-1 $245 $245 $158 $246 reversed $155 $-1 #
edge $-1 $372 0 $372 6.2831853071796004 $245 $373 forward 7 unknown #
vertex $-1 $159 $374 #
ellipse-curve $-1 0 0 -4.1186941129795223 0 0 -1 1.5 0 0 1 I I #
loop $-1 $-1 $375 $101 #
coedge $-1 $250 $250 $163 $251 reversed $160 $-1 #
edge $-1 $376 0 $376 6.2831853071796004 $250 $377 forward 7 unknown #
vertex $-1 $164 $378 #
ellipse-curve $-1 0 0 -4.1186941129795223 0 0 -1 1.5 0 0 1 I I #
loop $-1 $-1 $379 $106 #
coedge $-1 $255 $255 $168 $256 reversed $165 $-1 #
edge $-1 $380 0 $380 6.2831853071796004 $255 $381 forward 7 unknown #
vertex $-1 $169 $382 #
ellipse-curve $-1 0 0 -4.1186941129795223 0 0 -1 1.5 0 0 1 I I #
face $-1 $383 $384 $38 $-1 $385 reversed single #
loop $-1 $-1 $386 $170 #
plane-surface $-1 -10.147640676826011 0 0 1 0 0 0 0 -1 forward_v I I I I #
coedge $-1 $387 $270 $388 $389 forward $171 $-1 #
coedge $-1 $390 $173 $387 $391 forward $112 $-1 #
coedge $-1 $173 $390 $392 $393 forward $112 $-1 #
coedge $-1 $273 $272 $173 $266 reversed $274 $-1 #
edge $-1 $394 -189.30265205847346 $395 189.30265205847346 $265 $396 forward 7 unknown #
coedge $-1 $175 $174 $397 $398 forward $71 $-1 #
coedge $-1 $399 $400 $174 $269 reversed $384 $-1 #
edge $-1 $276 -10.147640676826011 $401 10.147640676826011 $268 $402 forward 7 unknown #
coedge $-1 $262 $403 $175 $271 reversed $171 $-1 #
edge $-1 $404 -10.147640676826011 $275 10.147640676826011 $270 $405 forward 7 unknown #
coedge $-1 $265 $176 $403 $406 forward $274 $-1 #
coedge $-1 $176 $265 $399 $407 reversed $274 $-1 #
loop $-1 $-1 $272 $383 #
vertex $-1 $177 $408 #
vertex $-1 $177 $409 #
straight-curve $-1 10.147640676826011 0 94.651326029236728 0 1 0 I I #
loop $-1 $-1 $410 $115 #
coedge $-1 $279 $279 $181 $280 reversed $178 $-1 #
edge $-1 $411 0 $411 6.2831853071796004 $279 $412 forward 7 unknown #
vertex $-1 $182 $413 #
ellipse-curve $-1 0 0 -3.6442075869014552 0 0 -1 1.5 0 0 1 I I #
loop $-1 $-1 $414 $120 #
coedge $-1 $284 $284 $186 $285 reversed $183 $-1 #
edge $-1 $415 0 $415 6.2831853071796004 $284 $416 forward 7 unknown #
vertex $-1 $187 $417 #
ellipse-curve $-1 0 0 -3.6442075869014552 0 0 -1 1.5 0 0 1 I I #
face $-1 $418 $419 $41 $-1 $420 reversed single #
loop $-1 $-1 $421 $188 #
plane-surface $-1 -10.147640676826011 0 0 1 0 0 0 0 -1 forward_v I I I I #
coedge $-1 $422 $299 $423 $424 forward $189 $-1 #
coedge $-1 $425 $191 $422 $426 forward $126 $-1 #
coedge $-1 $191 $425 $427 $428 forward $126 $-1 #
coedge $-1 $302 $301 $191 $295 reversed $303 $-1 #
edge $-1 $429 -189.30265205847346 $430 189.30265205847346 $294 $431 forward 7 unknown #
coedge $-1 $193 $192 $432 $433 forward $80 $-1 #
coedge $-1 $434 $435 $192 $298 reversed $419 $-1 #
edge $-1 $305 -10.147640676826011 $436 10.147640676826011 $297 $437 forward 7 unknown #
coedge $-1 $291 $438 $193 $300 reversed $189 $-1 #
edge $-1 $439 -10.147640676826011 $304 10.147640676826011 $299 $440 forward 7 unknown #
coedge $-1 $294 $194 $438 $441 forward $303 $-1 #
coedge $-1 $194 $294 $434 $442 reversed $303 $-1 #
loop $-1 $-1 $301 $418 #
vertex $-1 $195 $443 #
vertex $-1 $195 $444 #
straight-curve $-1 10.147640676826011 0 94.651326029236728 0 1 0 I I #
loop $-1 $-1 $445 $129 #
coedge $-1 $308 $308 $199 $309 reversed $196 $-1 #
edge $-1 $446 0 $446 6.2831853071796004 $308 $447 forward 7 unknown #
vertex $-1 $200 $448 #
ellipse-curve $-1 0 0 -3.6442075869014552 0 0 -1 1.5 0 0 1 I I #
loop $-1 $-1 $449 $134 #
coedge $-1 $313 $313 $204 $314 reversed $201 $-1 #
edge $-1 $450 0 $450 6.2831853071796004 $313 $451 forward 7 unknown #
vertex $-1 $205 $452 #
ellipse-curve $-1 0 0 -3.6442075869014552 0 0 -1 1.5 0 0 1 I I #
face $-1 $-1 $221 $33 $-1 $453 reversed single #
loop $-1 $-1 $333 $206 #
plane-surface $-1 0 22.988050484926003 0 0 -1 0 0 0 -1 forward_v I I I I #
coedge $-1 $454 $331 $334 $455 forward $207 $-1 #
coedge $-1 $337 $209 $210 $325 reversed $140 $-1 #
coedge $-1 $331 $454 $209 $323 reversed $207 $-1 #
edge $-1 $338 -9.6953630569332514 $456 9.6953630569332514 $322 $457 forward 7 unknown #
coedge $-1 $211 $210 $454 $458 forward $89 $-1 #
edge $-1 $329 -47.325663014618364 $456 47.325663014618364 $321 $459 forward 7 unknown #
coedge $-1 $334 $333 $211 $327 reversed $318 $-1 #
edge $-1 $460 -47.325663014618364 $328 47.325663014618364 $326 $461 forward 7 unknown #
vertex $-1 $213 $462 #
vertex $-1 $340 $463 #
straight-curve $-1 47.325663014618364 0 -9.6953630569332514 0 -1 0 I I #
coedge $-1 $320 $322 $214 $332 reversed $207 $-1 #
edge $-1 $335 -22.988050484926003 $338 22.988050484926003 $331 $464 forward 7 unknown #
coedge $-1 $326 $215 $220 $341 forward $318 $-1 #
coedge $-1 $215 $326 $320 $455 reversed $318 $-1 #
vertex $-1 $216 $465 #
straight-curve $-1 0 22.988050484926003 9.6953630569332514 -1 0 0 I I #
coedge $-1 $217 $321 $219 $340 reversed $140 $-1 #
vertex $-1 $332 $466 #
straight-curve $-1 0 -22.988050484926003 9.6953630569332514 1 0 0 I I #
edge $-1 $222 -9.6953630569332514 $329 9.6953630569332514 $219 $467 forward 7 unknown #
edge $-1 $223 -9.6953630569332514 $328 9.6953630569332514 $220 $468 forward 7 unknown #
point $-1 47.325663014618364 -22.988050484926003 9.6953630569332514 #
point $-1 47.325663014618364 22.988050484926003 9.6953630569332514 #
face $-1 $-1 $240 $34 $-1 $469 reversed single #
loop $-1 $-1 $360 $225 #
plane-surface $-1 0 189.30265205847346 0 0 -1 0 0 0 -1 forward_v I I I I #
coedge $-1 $470 $358 $361 $471 forward $226 $-1 #
coedge $-1 $364 $228 $229 $352 reversed $148 $-1 #
coedge $-1 $358 $470 $228 $350 reversed $226 $-1 #
edge $-1 $365 -94.651326029236728 $472 94.651326029236728 $349 $473 forward 7 unknown #
coedge $-1 $230 $229 $470 $474 forward $93 $-1 #
edge $-1 $356 -12.52750032929152 $472 12.52750032929152 $348 $475 forward 7 unknown #
coedge $-1 $361 $360 $230 $354 reversed $345 $-1 #
edge $-1 $476 -12.52750032929152 $355 12.52750032929152 $353 $477 forward 7 unknown #
vertex $-1 $232 $478 #
vertex $-1 $367 $479 #
straight-curve $-1 12.52750032929152 0 -94.651326029236728 0 -1 0 I I #
coedge $-1 $347 $349 $233 $359 reversed $226 $-1 #
edge $-1 $362 -189.30265205847346 $365 189.30265205847346 $358 $480 forward 7 unknown #
coedge $-1 $353 $234 $239 $368 forward $345 $-1 #
coedge $-1 $234 $353 $347 $471 reversed $345 $-1 #
vertex $-1 $235 $481 #
straight-curve $-1 0 189.30265205847346 94.651326029236728 -1 0 0 I I #
coedge $-1 $236 $348 $238 $367 reversed $148 $-1 #
vertex $-1 $359 $482 #
straight-curve $-1 0 -189.30265205847346 94.651326029236728 1 0 0 I I #
edge $-1 $241 -94.651326029236728 $356 94.651326029236728 $238 $483 forward 7 unknown #
edge $-1 $242 -94.651326029236728 $355 94.651326029236728 $239 $484 forward 7 unknown #
point $-1 12.52750032929152 -189.30265205847346 94.651326029236728 #
point $-1 12.52750032929152 189.30265205847346 94.651326029236728 #
coedge $-1 $371 $371 $-1 $485 reversed $244 $-1 #
vertex $-1 $246 $486 #
ellipse-curve $-1 0 0 -0.75 0 0 -1 1.5 0 0 1 I I #
point $-1 1.5 0 -4.1186941129795223 #
coedge $-1 $375 $375 $-1 $487 reversed $249 $-1 #
vertex $-1 $251 $488 #
ellipse-curve $-1 0 0 -0.75 0 0 -1 1.5 0 0 1 I I #
point $-1 1.5 0 -4.1186941129795223 #
coedge $-1 $379 $379 $-1 $489 reversed $254 $-1 #
vertex $-1 $256 $490 #
ellipse-curve $-1 0 0 -0.75 0 0 -1 1.5 0 0 1 I I #
point $-1 1.5 0 -4.1186941129795223 #
face $-1 $-1 $274 $38 $-1 $491 reversed single #
loop $-1 $-1 $399 $259 #
plane-surface $-1 0 189.30265205847346 0 0 -1 0 0 0 -1 forward_v I I I I #
coedge $-1 $492 $397 $400 $493 forward $260 $-1 #
coedge $-1 $403 $262 $263 $391 reversed $171 $-1 #
coedge $-1 $397 $492 $262 $389 reversed $260 $-1 #
edge $-1 $404 -94.651326029236728 $494 94.651326029236728 $388 $495 forward 7 unknown #
coedge $-1 $264 $263 $492 $496 forward $112 $-1 #
edge $-1 $395 -10.147640676826011 $494 10.147640676826011 $387 $497 forward 7 unknown #
coedge $-1 $400 $399 $264 $393 reversed $384 $-1 #
edge $-1 $498 -10.147640676826011 $394 10.147640676826011 $392 $499 forward 7 unknown #
vertex $-1 $266 $500 #
vertex $-1 $406 $501 #
straight-curve $-1 10.147640676826011 0 -94.651326029236728 0 -1 0 I I #
coedge $-1 $386 $388 $267 $398 reversed $260 $-1 #
edge $-1 $401 -189.30265205847346 $404 189.30265205847346 $397 $502 forward 7 unknown #
coedge $-1 $392 $268 $273 $407 forward $384 $-1 #
coedge $-1 $268 $392 $386 $493 reversed $384 $-1 #
vertex $-1 $269 $503 #
straight-curve $-1 0 189.30265205847346 94.651326029236728 -1 0 0 I I #
coedge $-1 $270 $387 $272 $406 reversed $171 $-1 #
vertex $-1 $398 $504 #
straight-curve $-1 0 -189.30265205847346 94.651326029236728 1 0 0 I I #
edge $-1 $275 -94.651326029236728 $395 94.651326029236728 $272 $505 forward 7 unknown #
edge $-1 $276 -94.651326029236728 $394 94.651326029236728 $273 $506 forward 7 unknown #
point $-1 10.147640676826011 -189.30265205847346 94.651326029236728 #
point $-1 10.147640676826011 189.30265205847346 94.651326029236728 #
coedge $-1 $410 $410 $-1 $507 reversed $278 $-1 #
vertex $-1 $280 $508 #
ellipse-curve $-1 0 0 -0.75 0 0 -1 1.5 0 0 1 I I #
point $-1 1.5 0 -3.6442075869014552 #
coedge $-1 $414 $414 $-1 $509 reversed $283 $-1 #
vertex $-1 $285 $510 #
ellipse-curve $-1 0 0 -0.75 0 0 -1 1.5 0 0 1 I I #
point $-1 1.5 0 -3.6442075869014552 #
face $-1 $-1 $303 $41 $-1 $511 reversed single #
loop $-1 $-1 $434 $288 #
plane-surface $-1 0 189.30265205847346 0 0 -1 0 0 0 -1 forward_v I I I I #
coedge $-1 $512 $432 $435 $513 forward $289 $-1 #
coedge $-1 $438 $291 $292 $426 reversed $189 $-1 #
coedge $-1 $432 $512 $291 $424 reversed $289 $-1 #
edge $-1 $439 -94.651326029236728 $514 94.651326029236728 $423 $515 forward 7 unknown #
coedge $-1 $293 $292 $512 $516 forward $126 $-1 #
edge $-1 $430 -10.147640676826011 $514 10.147640676826011 $422 $517 forward 7 unknown #
coedge $-1 $435 $434 $293 $428 reversed $419 $-1 #
edge $-1 $518 -10.147640676826011 $429 10.147640676826011 $427 $519 forward 7 unknown #
vertex $-1 $295 $520 #
vertex $-1 $441 $521 #
straight-curve $-1 10.147640676826011 0 -94.651326029236728 0 -1 0 I I #
coedge $-1 $421 $423 $296 $433 reversed $289 $-1 #
edge $-1 $436 -189.30265205847346 $439 189.30265205847346 $432 $522 forward 7 unknown #
coedge $-1 $427 $297 $302 $442 forward $419 $-1 #
coedge $-1 $297 $427 $421 $513 reversed $419 $-1 #
vertex $-1 $298 $523 #
straight-curve $-1 0 189.30265205847346 94.651326029236728 -1 0 0 I I #
coedge $-1 $299 $422 $301 $441 reversed $189 $-1 #
vertex $-1 $433 $524 #
straight-curve $-1 0 -189.30265205847346 94.651326029236728 1 0 0 I I #
edge $-1 $304 -94.651326029236728 $430 94.651326029236728 $301 $525 forward 7 unknown #
edge $-1 $305 -94.651326029236728 $429 94.651326029236728 $302 $526 forward 7 unknown #
point $-1 10.147640676826011 -189.30265205847346 94.651326029236728 #
point $-1 10.147640676826011 189.30265205847346 94.651326029236728 #
coedge $-1 $445 $445 $-1 $527 reversed $307 $-1 #
vertex $-1 $309 $528 #
ellipse-curve $-1 0 0 -0.75 0 0 -1 1.5 0 0 1 I I #
point $-1 1.5 0 -3.6442075869014552 #
coedge $-1 $449 $449 $-1 $529 reversed $312 $-1 #
vertex $-1 $314 $530 #
ellipse-curve $-1 0 0 -0.75 0 0 -1 1.5 0 0 1 I I #
point $-1 1.5 0 -3.6442075869014552 #
plane-surface $-1 47.325663014618364 0 0 -1 0 0 0 0 1 forward_v I I I I #
coedge $-1 $322 $320 $324 $458 reversed $207 $-1 #
edge $-1 $335 -9.6953630569332514 $460 9.6953630569332514 $334 $531 forward 7 unknown #
vertex $-1 $458 $532 #
straight-curve $-1 -47.325663014618364 -22.988050484926003 0 0 0 -1 I I #
edge $-1 $456 -22.988050484926003 $460 22.988050484926003 $454 $533 forward 7 unknown #
straight-curve $-1 0 -22.988050484926003 -9.6953630569332514 -1 0 0 I I #
vertex $-1 $327 $534 #
straight-curve $-1 0 22.988050484926003 -9.6953630569332514 1 0 0 I I #
point $-1 47.325663014618364 22.988050484926003 -9.6953630569332514 #
point $-1 47.325663014618364 -22.988050484926003 -9.6953630569332514 #
straight-curve $-1 -47.325663014618364 0 9.6953630569332514 0 -1 0 I I #
point $-1 -47.325663014618364 22.988050484926003 9.6953630569332514 #
point $-1 -47.325663014618364 -22.988050484926003 9.6953630569332514 #
straight-curve $-1 47.325663014618364 -22.988050484926003 0 0 0 -1 I I #
straight-curve $-1 47.325663014618364 22.988050484926003 0 0 0 -1 I I #
plane-surface $-1 12.52750032929152 0 0 -1 0 0 0 0 1 forward_v I I I I #
coedge $-1 $349 $347 $351 $474 reversed $226 $-1 #
edge $-1 $362 -94.651326029236728 $476 94.651326029236728 $361 $535 forward 7 unknown #
vertex $-1 $474 $536 #
straight-curve $-1 -12.52750032929152 -189.30265205847346 0 0 0 -1 I I #
edge $-1 $472 -189.30265205847346 $476 189.30265205847346 $470 $537 forward 7 unknown #
straight-curve $-1 0 -189.30265205847346 -94.651326029236728 -1 0 0 I I #
vertex $-1 $354 $538 #
straight-curve $-1 0 189.30265205847346 -94.651326029236728 1 0 0 I I #
point $-1 12.52750032929152 189.30265205847346 -94.651326029236728 #
point $-1 12.52750032929152 -189.30265205847346 -94.651326029236728 #
straight-curve $-1 -12.52750032929152 0 94.651326029236728 0 -1 0 I I #
point $-1 -12.52750032929152 189.30265205847346 94.651326029236728 #
point $-1 -12.52750032929152 -189.30265205847346 94.651326029236728 #
straight-curve $-1 12.52750032929152 -189.30265205847346 0 0 0 -1 I I #
straight-curve $-1 12.52750032929152 189.30265205847346 0 0 0 -1 I I #
edge $-1 $539 1 $539 0 $371 $-1 forward 7 unknown #
point $-1 1.5 0 -0.75 #
edge $-1 $540 1 $540 0 $375 $-1 forward 7 unknown #
point $-1 1.5 0 -0.75 #
edge $-1 $541 1 $541 0 $379 $-1 forward 7 unknown #
point $-1 1.5 0 -0.75 #
plane-surface $-1 10.147640676826011 0 0 -1 0 0 0 0 1 forward_v I I I I #
coedge $-1 $388 $386 $390 $496 reversed $260 $-1 #
edge $-1 $401 -94.651326029236728 $498 94.651326029236728 $400 $542 forward 7 unknown #
vertex $-1 $496 $543 #
straight-curve $-1 -10.147640676826011 -189.30265205847346 0 0 0 -1 I I #
edge $-1 $494 -189.30265205847346 $498 189.30265205847346 $492 $544 forward 7 unknown #
straight-curve $-1 0 -189.30265205847346 -94.651326029236728 -1 0 0 I I #
vertex $-1 $393 $545 #
straight-curve $-1 0 189.30265205847346 -94.651326029236728 1 0 0 I I #
point $-1 10.147640676826011 189.30265205847346 -94.651326029236728 #
point $-1 10.147640676826011 -189.30265205847346 -94.651326029236728 #
straight-curve $-1 -10.147640676826011 0 94.651326029236728 0 -1 0 I I #
point $-1 -10.147640676826011 189.30265205847346 94.651326029236728 #
point $-1 -10.147640676826011 -189.30265205847346 94.651326029236728 #
straight-curve $-1 10.147640676826011 -189.30265205847346 0 0 0 -1 I I #
straight-curve $-1 10.147640676826011 189.30265205847346 0 0 0 -1 I I #
edge $-1 $546 1 $546 0 $410 $-1 forward 7 unknown #
point $-1 1.5 0 -0.75 #
edge $-1 $547 1 $547 0 $414 $-1 forward 7 unknown #
point $-1 1.5 0 -0.75 #
plane-surface $-1 10.147640676826011 0 0 -1 0 0 0 0 1 forward_v I I I I #
coedge $-1 $423 $421 $425 $516 reversed $289 $-1 #
edge $-1 $436 -94.651326029236728 $518 94.651326029236728 $435 $548 forward 7 unknown #
vertex $-1 $516 $549 #
straight-curve $-1 -10.147640676826011 -189.30265205847346 0 0 0 -1 I I #
edge $-1 $514 -189.30265205847346 $518 189.30265205847346 $512 $550 forward 7 unknown #
straight-curve $-1 0 -189.30265205847346 -94.651326029236728 -1 0 0 I I #
vertex $-1 $428 $551 #
straight-curve $-1 0 189.30265205847346 -94.651326029236728 1 0 0 I I #
point $-1 10.147640676826011 189.30265205847346 -94.651326029236728 #
point $-1 10.147640676826011 -189.30265205847346 -94.651326029236728 #
straight-curve $-1 -10.147640676826011 0 94.651326029236728 0 -1 0 I I #
point $-1 -10.147640676826011 189.30265205847346 94.651326029236728 #
point $-1 -10.147640676826011 -189.30265205847346 94.651326029236728 #
straight-curve $-1 10.147640676826011 -189.30265205847346 0 0 0 -1 I I #
straight-curve $-1 10.147640676826011 189.30265205847346 0 0 0 -1 I I #
edge $-1 $552 1 $552 0 $445 $-1 forward 7 unknown #
point $-1 1.5 0 -0.75 #
edge $-1 $553 1 $553 0 $449 $-1 forward 7 unknown #
point $-1 1.5 0 -0.75 #
straight-curve $-1 -47.325663014618364 22.988050484926003 0 0 0 -1 I I #
point $-1 -47.325663014618364 -22.988050484926003 -9.6953630569332514 #
straight-curve $-1 -47.325663014618364 0 -9.6953630569332514 0 1 0 I I #
point $-1 -47.325663014618364 22.988050484926003 -9.6953630569332514 #
straight-curve $-1 -12.52750032929152 189.30265205847346 0 0 0 -1 I I #
point $-1 -12.52750032929152 -189.30265205847346 -94.651326029236728 #
straight-curve $-1 -12.52750032929152 0 -94.651326029236728 0 1 0 I I #
point $-1 -12.52750032929152 189.30265205847346 -94.651326029236728 #
vertex $-1 $485 $554 #
vertex $-1 $487 $555 #
vertex $-1 $489 $556 #
straight-curve $-1 -10.147640676826011 189.30265205847346 0 0 0 -1 I I #
point $-1 -10.147640676826011 -189.30265205847346 -94.651326029236728 #
straight-curve $-1 -10.147640676826011 0 -94.651326029236728 0 1 0 I I #
point $-1 -10.147640676826011 189.30265205847346 -94.651326029236728 #
vertex $-1 $507 $557 #
vertex $-1 $509 $558 #
straight-curve $-1 -10.147640676826011 189.30265205847346 0 0 0 -1 I I #
point $-1 -10.147640676826011 -189.30265205847346 -94.651326029236728 #
straight-curve $-1 -10.147640676826011 0 -94.651326029236728 0 1 0 I I #
point $-1 -10.147640676826011 189.30265205847346 -94.651326029236728 #
vertex $-1 $527 $559 #
vertex $-1 $529 $560 #
point $-1 0 0 0.75 #
point $-1 0 0 0.75 #
point $-1 0 0 0.75 #
point $-1 0 0 0.75 #
point $-1 0 0 0.75 #
point $-1 0 0 0.75 #
point $-1 0 0 0.75 #
End-of-ACIS-data 