500 0 5 0           
7 Unknown 11 ACIS 5.0 NT 24 Fri Mar 26 16:40:37 1999 
-1 9.9999999999999995e-007 1e-010 
body $-1 $5 $-1 $6 #
body $-1 $7 $-1 $8 #
body $-1 $9 $-1 $10 #
body $-1 $11 $-1 $12 #
body $-1 $13 $-1 $14 #
lump $-1 $-1 $15 $0 #
transform $-1 1 0 0 0 1 0 0 0 1 72.825708792382585 30.619824519567093 6.6075538558734994 1 rotate no_reflect no_shear #
lump $-1 $-1 $16 $1 #
transform $-1 1 0 0 0 1 0 0 0 1 72.825708792382585 30.619824519567093 6.6075538558734994 1 rotate no_reflect no_shear #
lump $-1 $-1 $17 $2 #
transform $-1 1 0 0 0 1 0 0 0 1 72.825708792382585 30.619824519567093 6.6075538558734994 1 rotate no_reflect no_shear #
lump $-1 $-1 $18 $3 #
transform $-1 1 0 0 0 1 0 0 0 1 72.825708792382585 30.619824519567093 6.6075538558734994 1 rotate no_reflect no_shear #
lump $-1 $-1 $19 $4 #
transform $-1 1 0 0 0 1 0 0 0 1 72.825708792382585 30.619824519567093 6.6075538558734994 1 rotate no_reflect no_shear #
shell $-1 $-1 $-1 $20 $-1 $5 #
shell $-1 $-1 $-1 $21 $-1 $7 #
shell $-1 $-1 $-1 $22 $-1 $9 #
shell $-1 $-1 $-1 $23 $-1 $11 #
shell $-1 $-1 $-1 $24 $-1 $13 #
face $-1 $25 $26 $15 $-1 $27 forward single #
face $-1 $28 $29 $16 $-1 $30 forward single #
face $-1 $31 $32 $17 $-1 $33 reversed single #
face $-1 $34 $35 $18 $-1 $36 forward single #
face $-1 $37 $38 $19 $-1 $39 forward single #
face $-1 $40 $41 $15 $-1 $42 reversed single #
loop $-1 $-1 $43 $20 #
plane-surface $-1 0 0 6.6075538558734994 0 0 1 1 0 0 forward_v I I I I #
face $-1 $44 $45 $16 $-1 $46 reversed single #
loop $-1 $-1 $47 $21 #
plane-surface $-1 0 -28.38729325266652 -3.6075538558734994 0 0 1 1 0 0 forward_v I I I I #
face $-1 $48 $49 $17 $-1 $50 reversed single #
loop $-1 $-1 $51 $22 #
plane-surface $-1 83.605987274180336 16.423402504559668 207.67087800899037 0 1 0 0.74314483375859142 0 0.66913059716165679 forward_v I I I I #
face $-1 $52 $53 $18 $-1 $54 forward single #
loop $-1 $55 $56 $23 #
cone-surface $-1 69.617588654271756 20.479523080276078 3.2801594501444749 -0.74314483375859142 0 -0.66913059716165679 0.66913059716165679 0 -0.74314483375859142 1 I I 0 1 1 forward I I I I #
face $-1 $57 $58 $19 $-1 $59 forward single #
loop $-1 $60 $61 $24 #
cone-surface $-1 69.617588654271756 26.563703943850687 3.2801594501444749 -0.74314483375859142 0 -0.66913059716165679 0.66913059716165679 0 -0.74314483375859142 1 I I 0 1 1 forward I I I I #
face $-1 $62 $63 $15 $-1 $64 reversed single #
loop $-1 $-1 $65 $25 #
plane-surface $-1 0 0 -6.6075538558734994 0 0 1 1 0 0 forward_v I I I I #
coedge $-1 $66 $67 $68 $69 forward $26 $-1 #
face $-1 $70 $71 $16 $-1 $72 reversed single #
loop $-1 $-1 $73 $28 #
plane-surface $-1 0 -26.154761985765948 -5.1075538558734994 0 -1 0 0 0 -1 forward_v I I I I #
coedge $-1 $74 $75 $76 $77 reversed $29 $-1 #
face $-1 $78 $79 $17 $-1 $80 forward single #
loop $-1 $-1 $81 $31 #
plane-surface $-1 -24.634111233553156 23.521613512063379 110.21105798305462 0.74314483375859142 0 0.66913059716165679 0.66913059716165679 0 -0.74314483375859142 forward_v I I I I #
coedge $-1 $82 $83 $84 $85 reversed $32 $-1 #
face $-1 $-1 $86 $18 $-1 $87 forward single #
loop $-1 $88 $89 $34 #
cone-surface $-1 68.125300213338363 20.479523080276078 1.9364969361108049 -0.74314483375859142 0 -0.66913059716165679 0.3345652985808284 0 -0.37157241687929571 1 I I -0.70710678118654746 0.70710678118654746 0.5 forward I I I I #
loop $-1 $-1 $90 $23 #
coedge $-1 $56 $56 $91 $92 reversed $35 $-1 #
face $-1 $-1 $93 $19 $-1 $94 forward single #
loop $-1 $95 $96 $37 #
cone-surface $-1 68.125300213338363 26.563703943850687 1.9364969361108049 -0.74314483375859142 0 -0.66913059716165679 0.3345652985808284 0 -0.37157241687929571 1 I I -0.70710678118654746 0.70710678118654746 0.5 forward I I I I #
loop $-1 $-1 $97 $24 #
coedge $-1 $61 $61 $98 $99 reversed $38 $-1 #
face $-1 $100 $101 $15 $-1 $102 reversed single #
loop $-1 $-1 $103 $40 #
plane-surface $-1 0 -30.619824519567093 0 0 1 0 0 0 1 forward_v I I I I #
coedge $-1 $104 $105 $106 $107 forward $41 $-1 #
coedge $-1 $108 $43 $109 $110 forward $26 $-1 #
coedge $-1 $43 $108 $111 $112 forward $26 $-1 #
coedge $-1 $113 $114 $43 $69 reversed $115 $-1 #
edge $-1 $116 -30.619824519567093 $117 30.619824519567093 $68 $118 forward 7 unknown #
face $-1 $119 $120 $16 $-1 $121 reversed single #
loop $-1 $-1 $122 $44 #
plane-surface $-1 0 0 -6.6075538558734994 0 0 1 1 0 0 forward_v I I I I #
coedge $-1 $123 $124 $125 $126 reversed $45 $-1 #
coedge $-1 $127 $47 $124 $128 forward $29 $-1 #
coedge $-1 $47 $127 $129 $130 reversed $29 $-1 #
coedge $-1 $131 $125 $47 $77 forward $120 $-1 #
edge $-1 $132 11.961115359432688 $133 16.426177893233834 $76 $134 forward 7 unknown #
face $-1 $135 $136 $17 $-1 $137 reversed single #
loop $-1 $-1 $138 $48 #
plane-surface $-1 0 0 6.6075538558734994 0 0 1 1 0 0 forward_v I I I I #
coedge $-1 $139 $140 $141 $142 reversed $49 $-1 #
coedge $-1 $83 $51 $143 $144 reversed $32 $-1 #
coedge $-1 $51 $82 $139 $145 reversed $32 $-1 #
coedge $-1 $141 $146 $51 $85 forward $147 $-1 #
edge $-1 $148 97.227885148621681 $149 101.86447952917403 $84 $150 forward 7 unknown #
loop $-1 $-1 $91 $52 #
plane-surface $-1 -24.634111233553156 23.521613512063379 110.21105798305462 0.74314483375859142 0 0.66913059716165679 0.66913059716165679 0 -0.74314483375859142 forward_v I I I I #
loop $-1 $-1 $151 $34 #
coedge $-1 $89 $89 $90 $152 reversed $53 $-1 #
coedge $-1 $90 $90 $89 $152 forward $55 $-1 #
coedge $-1 $91 $91 $56 $92 forward $86 $-1 #
edge $-1 $153 0 $153 6.2831853071796004 $91 $154 forward 7 unknown #
loop $-1 $-1 $98 $57 #
plane-surface $-1 -24.634111233553156 23.521613512063379 110.21105798305462 0.74314483375859142 0 0.66913059716165679 0.66913059716165679 0 -0.74314483375859142 forward_v I I I I #
loop $-1 $-1 $155 $37 #
coedge $-1 $96 $96 $97 $156 reversed $58 $-1 #
coedge $-1 $97 $97 $96 $156 forward $60 $-1 #
coedge $-1 $98 $98 $61 $99 forward $93 $-1 #
edge $-1 $157 0 $157 6.2831853071796004 $98 $158 forward 7 unknown #
face $-1 $159 $160 $15 $-1 $161 reversed single #
loop $-1 $-1 $162 $62 #
plane-surface $-1 -72.825708792382585 0 0 1 0 0 0 0 -1 forward_v I I I I #
coedge $-1 $163 $111 $164 $165 forward $63 $-1 #
coedge $-1 $166 $65 $163 $167 forward $41 $-1 #
coedge $-1 $65 $166 $168 $169 forward $41 $-1 #
coedge $-1 $114 $113 $65 $107 reversed $115 $-1 #
edge $-1 $170 -30.619824519567093 $171 30.619824519567093 $106 $172 forward 7 unknown #
coedge $-1 $67 $66 $173 $174 forward $26 $-1 #
coedge $-1 $175 $176 $66 $110 reversed $160 $-1 #
edge $-1 $117 -72.825708792382585 $177 72.825708792382585 $109 $178 forward 7 unknown #
coedge $-1 $103 $179 $67 $112 reversed $63 $-1 #
edge $-1 $180 -72.825708792382585 $116 72.825708792382585 $111 $181 forward 7 unknown #
coedge $-1 $106 $68 $179 $182 forward $115 $-1 #
coedge $-1 $68 $106 $175 $183 reversed $115 $-1 #
loop $-1 $-1 $113 $159 #
vertex $-1 $69 $184 #
vertex $-1 $69 $185 #
straight-curve $-1 72.825708792382585 0 6.6075538558734994 0 1 0 I I #
face $-1 $186 $187 $16 $-1 $188 reversed single #
loop $-1 $-1 $125 $70 #
plane-surface $-1 72.825708792382585 0 0 -1 0 0 0 0 1 forward_v I I I I #
coedge $-1 $189 $190 $123 $191 forward $71 $-1 #
coedge $-1 $192 $73 $122 $191 reversed $45 $-1 #
coedge $-1 $73 $192 $74 $128 reversed $45 $-1 #
coedge $-1 $76 $193 $73 $126 forward $120 $-1 #
edge $-1 $194 -4.0537769279367497 $132 -1.0537769279367497 $125 $195 forward 7 unknown #
coedge $-1 $75 $74 $196 $197 reversed $29 $-1 #
edge $-1 $132 -72.825708792382585 $198 72.825708792382585 $124 $199 forward 7 unknown #
coedge $-1 $200 $201 $75 $130 forward $187 $-1 #
edge $-1 $133 -72.825708792382585 $202 72.825708792382585 $129 $203 forward 7 unknown #
coedge $-1 $193 $76 $201 $204 forward $120 $-1 #
vertex $-1 $77 $205 #
vertex $-1 $204 $206 #
straight-curve $-1 72.825708792382585 -14.19364662633326 -3.6075538558734994 0 -1 0 I I #
face $-1 $-1 $147 $17 $-1 $207 reversed single #
loop $-1 $-1 $208 $78 #
plane-surface $-1 0 30.619824519567093 0 0 -1 0 0 0 -1 forward_v I I I I #
coedge $-1 $143 $209 $210 $211 forward $79 $-1 #
coedge $-1 $210 $81 $83 $145 forward $49 $-1 #
coedge $-1 $81 $210 $208 $212 reversed $49 $-1 #
coedge $-1 $213 $84 $81 $142 forward $147 $-1 #
edge $-1 $149 4.6625957485279788 $214 18.859017763535405 $141 $215 forward 7 unknown #
coedge $-1 $216 $138 $82 $144 forward $79 $-1 #
edge $-1 $217 26.847906927178954 $148 31.022715155292417 $143 $218 forward 7 unknown #
edge $-1 $149 -145.65141758476511 $217 -139.41226450191056 $83 $219 forward 7 unknown #
coedge $-1 $84 $213 $216 $220 reversed $147 $-1 #
loop $-1 $-1 $141 $135 #
vertex $-1 $220 $221 #
vertex $-1 $85 $222 #
straight-curve $-1 72.825708792382585 16.423402504559668 103.83543900449519 0 0 -1 I I #
coedge $-1 $151 $151 $-1 $223 reversed $88 $-1 #
edge $-1 $224 0 $224 6.2831853071796004 $89 $225 forward 7 unknown #
vertex $-1 $92 $226 #
ellipse-curve $-1 70.738304678325861 20.479523080276078 4.2892566655973168 0.74314483375859142 0 0.66913059716165679 0.66913059716165679 0 -0.74314483375859142 1 I I #
coedge $-1 $155 $155 $-1 $227 reversed $95 $-1 #
edge $-1 $228 0 $228 6.2831853071796004 $96 $229 forward 7 unknown #
vertex $-1 $99 $230 #
ellipse-curve $-1 70.738304678325861 26.563703943850687 4.2892566655973168 0.74314483375859142 0 0.66913059716165679 0.66913059716165679 0 -0.74314483375859142 1 I I #
face $-1 $-1 $115 $15 $-1 $231 reversed single #
loop $-1 $-1 $175 $100 #
plane-surface $-1 0 30.619824519567093 0 0 -1 0 0 0 -1 forward_v I I I I #
coedge $-1 $232 $173 $176 $233 forward $101 $-1 #
coedge $-1 $179 $103 $104 $167 reversed $63 $-1 #
coedge $-1 $173 $232 $103 $165 reversed $101 $-1 #
edge $-1 $180 -6.6075538558734994 $234 6.6075538558734994 $164 $235 forward 7 unknown #
coedge $-1 $105 $104 $232 $236 forward $41 $-1 #
edge $-1 $171 -72.825708792382585 $234 72.825708792382585 $163 $237 forward 7 unknown #
coedge $-1 $176 $175 $105 $169 reversed $160 $-1 #
edge $-1 $238 -72.825708792382585 $170 72.825708792382585 $168 $239 forward 7 unknown #
vertex $-1 $107 $240 #
vertex $-1 $182 $241 #
straight-curve $-1 72.825708792382585 0 -6.6075538558734994 0 -1 0 I I #
coedge $-1 $162 $164 $108 $174 reversed $101 $-1 #
edge $-1 $177 -30.619824519567093 $180 30.619824519567093 $173 $242 forward 7 unknown #
coedge $-1 $168 $109 $114 $183 forward $160 $-1 #
coedge $-1 $109 $168 $162 $233 reversed $160 $-1 #
vertex $-1 $110 $243 #
straight-curve $-1 0 30.619824519567093 6.6075538558734994 -1 0 0 I I #
coedge $-1 $111 $163 $113 $182 reversed $63 $-1 #
vertex $-1 $174 $244 #
straight-curve $-1 0 -30.619824519567093 6.6075538558734994 1 0 0 I I #
edge $-1 $116 -6.6075538558734994 $171 6.6075538558734994 $113 $245 forward 7 unknown #
edge $-1 $117 -6.6075538558734994 $170 6.6075538558734994 $114 $246 forward 7 unknown #
point $-1 72.825708792382585 -30.619824519567093 6.6075538558734994 #
point $-1 72.825708792382585 30.619824519567093 6.6075538558734994 #
face $-1 $-1 $247 $16 $-1 $248 reversed single #
loop $-1 $-1 $129 $119 #
plane-surface $-1 0 -30.619824519567093 0 0 1 0 0 0 1 forward_v I I I I #
coedge $-1 $249 $122 $193 $250 forward $71 $-1 #
coedge $-1 $122 $249 $251 $252 forward $71 $-1 #
edge $-1 $253 -72.825708792382585 $194 72.825708792382585 $122 $254 forward 7 unknown #
coedge $-1 $124 $123 $255 $256 reversed $45 $-1 #
coedge $-1 $125 $131 $189 $250 reversed $120 $-1 #
vertex $-1 $250 $257 #
straight-curve $-1 72.825708792382585 -26.154761985765948 -2.5537769279367497 0 0 1 I I #
coedge $-1 $255 $258 $127 $197 forward $247 $-1 #
edge $-1 $202 -16.426177893233834 $198 -11.961115359432688 $196 $259 forward 7 unknown #
vertex $-1 $197 $260 #
straight-curve $-1 0 -26.154761985765948 -3.6075538558734994 -1 0 0 I I #
coedge $-1 $261 $129 $258 $262 forward $187 $-1 #
coedge $-1 $129 $261 $131 $204 reversed $187 $-1 #
vertex $-1 $262 $263 #
straight-curve $-1 0 -30.619824519567093 -3.6075538558734994 -1 0 0 I I #
edge $-1 $133 3.6075538558734994 $264 6.6075538558734994 $131 $265 forward 7 unknown #
point $-1 72.825708792382585 -26.154761985765948 -3.6075538558734994 #
point $-1 72.825708792382585 -30.619824519567093 -3.6075538558734994 #
plane-surface $-1 72.825708792382585 0 0 -1 0 0 0 0 1 forward_v I I I I #
coedge $-1 $266 $267 $140 $212 forward $136 $-1 #
coedge $-1 $138 $216 $266 $268 forward $79 $-1 #
coedge $-1 $140 $139 $138 $211 reversed $49 $-1 #
edge $-1 $269 -18.859017763535398 $217 -4.6625957485279788 $138 $270 forward 7 unknown #
edge $-1 $214 -96.458309623050269 $269 -90.219156540195712 $208 $271 forward 7 unknown #
coedge $-1 $146 $141 $267 $272 reversed $147 $-1 #
vertex $-1 $142 $273 #
straight-curve $-1 72.825708792382585 11.760806756031689 1.9709594753211377 0 1 0 I I #
coedge $-1 $209 $143 $146 $220 forward $79 $-1 #
vertex $-1 $144 $274 #
straight-curve $-1 41.802993637090168 16.423402504559668 6.6075538558735047 1 0 0 I I #
straight-curve $-1 -24.634111233553156 16.423402504559668 110.21105798305462 -0.66913059716165679 0 0.74314483375859142 I I #
edge $-1 $148 16.423402504559668 $275 30.619824519567093 $146 $276 forward 7 unknown #
point $-1 72.825708792382585 16.423402504559668 6.6075538558734994 #
point $-1 72.825708792382585 16.423402504559668 1.9709594753211519 #
edge $-1 $277 1 $277 0 $151 $-1 forward 7 unknown #
vertex $-1 $152 $278 #
ellipse-curve $-1 68.496872630217652 20.479523080276078 2.2710622346916334 0.74314483375859142 0 0.66913059716165679 0.66913059716165679 0 -0.74314483375859142 1 I I #
point $-1 71.407435275487515 20.479523080276078 3.5461118318387252 #
edge $-1 $279 1 $279 0 $155 $-1 forward 7 unknown #
vertex $-1 $156 $280 #
ellipse-curve $-1 68.496872630217652 26.563703943850687 2.2710622346916334 0.74314483375859142 0 0.66913059716165679 0.66913059716165679 0 -0.74314483375859142 1 I I #
point $-1 71.407435275487515 26.563703943850687 3.5461118318387252 #
plane-surface $-1 72.825708792382585 0 0 -1 0 0 0 0 1 forward_v I I I I #
coedge $-1 $164 $162 $166 $236 reversed $101 $-1 #
edge $-1 $177 -6.6075538558734994 $238 6.6075538558734994 $176 $281 forward 7 unknown #
vertex $-1 $236 $282 #
straight-curve $-1 -72.825708792382585 -30.619824519567093 0 0 0 -1 I I #
edge $-1 $234 -30.619824519567093 $238 30.619824519567093 $232 $283 forward 7 unknown #
straight-curve $-1 0 -30.619824519567093 -6.6075538558734994 -1 0 0 I I #
vertex $-1 $169 $284 #
straight-curve $-1 0 30.619824519567093 -6.6075538558734994 1 0 0 I I #
point $-1 72.825708792382585 30.619824519567093 -6.6075538558734994 #
point $-1 72.825708792382585 -30.619824519567093 -6.6075538558734994 #
straight-curve $-1 -72.825708792382585 0 6.6075538558734994 0 -1 0 I I #
point $-1 -72.825708792382585 30.619824519567093 6.6075538558734994 #
point $-1 -72.825708792382585 -30.619824519567093 6.6075538558734994 #
straight-curve $-1 72.825708792382585 -30.619824519567093 0 0 0 -1 I I #
straight-curve $-1 72.825708792382585 30.619824519567093 0 0 0 -1 I I #
loop $-1 $-1 $255 $186 #
plane-surface $-1 -72.825708792382585 0 0 1 0 0 0 0 -1 forward_v I I I I #
coedge $-1 $190 $189 $261 $285 forward $71 $-1 #
edge $-1 $194 26.154761985765948 $264 30.619824519567093 $193 $286 forward 7 unknown #
coedge $-1 $258 $255 $190 $252 reversed $247 $-1 #
edge $-1 $287 -30.619824519567093 $253 -26.154761985765948 $251 $288 forward 7 unknown #
vertex $-1 $256 $289 #
straight-curve $-1 0 -26.154761985765948 -6.6075538558734994 1 0 0 I I #
coedge $-1 $251 $196 $192 $256 forward $247 $-1 #
edge $-1 $198 1.0537769279367497 $253 4.0537769279367497 $255 $290 forward 7 unknown #
point $-1 72.825708792382585 -26.154761985765948 -6.6075538558734994 #
coedge $-1 $196 $251 $200 $262 reversed $247 $-1 #
straight-curve $-1 -72.825708792382585 -14.19364662633326 -3.6075538558734994 0 1 0 I I #
point $-1 -72.825708792382585 -26.154761985765948 -3.6075538558734994 #
coedge $-1 $201 $200 $249 $285 reversed $187 $-1 #
edge $-1 $202 3.6075538558734994 $287 6.6075538558734994 $258 $291 forward 7 unknown #
point $-1 -72.825708792382585 -30.619824519567093 -3.6075538558734994 #
vertex $-1 $204 $292 #
straight-curve $-1 72.825708792382585 -30.619824519567093 0 0 0 -1 I I #
coedge $-1 $267 $208 $209 $268 reversed $136 $-1 #
coedge $-1 $208 $266 $213 $272 forward $136 $-1 #
edge $-1 $275 -72.825708792382585 $269 -68.650900564269122 $266 $293 forward 7 unknown #
vertex $-1 $211 $294 #
straight-curve $-1 68.650900564269108 11.760806756031689 6.6075538558735047 0 -1 0 I I #
straight-curve $-1 8.2825024731069554 30.619824519567093 73.653453944777581 -0.66913059716165679 0 0.74314483375859142 I I #
edge $-1 $275 -6.6075538558734994 $214 -1.9709594753211461 $213 $295 forward 7 unknown #
point $-1 72.825708792382585 30.619824519567093 1.9709594753211461 #
point $-1 68.650900564269122 16.423402504559668 6.6075538558735047 #
vertex $-1 $220 $296 #
straight-curve $-1 72.825708792382585 0 6.6075538558734994 0 1 0 I I #
vertex $-1 $223 $297 #
point $-1 69.166003227379321 20.479523080276078 1.5279174009330418 #
vertex $-1 $227 $298 #
point $-1 69.166003227379321 26.563703943850687 1.5279174009330418 #
straight-curve $-1 -72.825708792382585 30.619824519567093 0 0 0 -1 I I #
point $-1 -72.825708792382585 -30.619824519567093 -6.6075538558734994 #
straight-curve $-1 -72.825708792382585 0 -6.6075538558734994 0 1 0 I I #
point $-1 -72.825708792382585 30.619824519567093 -6.6075538558734994 #
edge $-1 $264 -72.825708792382585 $287 72.825708792382585 $261 $299 forward 7 unknown #
straight-curve $-1 72.825708792382585 0 -6.6075538558734994 0 -1 0 I I #
vertex $-1 $252 $300 #
straight-curve $-1 -72.825708792382585 0 -6.6075538558734994 0 1 0 I I #
point $-1 -72.825708792382585 -26.154761985765948 -6.6075538558734994 #
straight-curve $-1 -72.825708792382585 -26.154761985765948 -2.5537769279367497 0 0 -1 I I #
straight-curve $-1 -72.825708792382585 -30.619824519567093 0 0 0 -1 I I #
point $-1 72.825708792382585 -30.619824519567093 -6.6075538558734994 #
straight-curve $-1 0 30.619824519567093 6.6075538558734994 -1 0 0 I I #
point $-1 68.650900564269122 30.619824519567089 6.6075538558735047 #
straight-curve $-1 72.825708792382585 30.619824519567093 0 0 0 -1 I I #
point $-1 72.825708792382585 30.619824519567093 6.6075538558734994 #
point $-1 67.753727796459074 20.479523080276078 1.6019316375299764 #
point $-1 67.753727796459074 26.563703943850687 1.6019316375299764 #
straight-curve $-1 0 -30.619824519567093 -6.6075538558734994 -1 0 0 I I #
point $-1 -72.825708792382585 -30.619824519567093 -6.6075538558734994 #
End-of-ACIS-data 