500 0 8 0           
7 Unknown 11 ACIS 5.0 NT 24 Fri Mar 26 20:42:05 1999 
-1 9.9999999999999995e-007 1e-010 
body $-1 $8 $-1 $9 #
body $-1 $10 $-1 $11 #
body $-1 $12 $-1 $13 #
body $-1 $14 $-1 $15 #
body $-1 $16 $-1 $17 #
body $-1 $18 $-1 $19 #
body $-1 $20 $-1 $21 #
body $-1 $22 $-1 $23 #
lump $-1 $-1 $24 $0 #
transform $-1 1 0 0 0 1 0 0 0 1 71.976073488570819 38.75158232538746 8.8608159250078735 1 rotate no_reflect no_shear #
lump $-1 $-1 $25 $1 #
transform $-1 1 0 0 0 1 0 0 0 1 71.976073488570819 38.75158232538746 8.8608159250078735 1 rotate no_reflect no_shear #
lump $-1 $-1 $26 $2 #
transform $-1 1 0 0 0 1 0 0 0 1 71.976073488570819 38.75158232538746 8.8608159250078735 1 rotate no_reflect no_shear #
lump $-1 $-1 $27 $3 #
transform $-1 1 0 0 0 1 0 0 0 1 71.976073488570819 38.75158232538746 8.8608159250078735 1 rotate no_reflect no_shear #
lump $-1 $-1 $28 $4 #
transform $-1 1 0 0 0 1 0 0 0 1 71.976073488570819 38.75158232538746 8.8608159250078735 1 rotate no_reflect no_shear #
lump $-1 $-1 $29 $5 #
transform $-1 1 0 0 0 1 0 0 0 1 71.976073488570819 38.75158232538746 8.8608159250078735 1 rotate no_reflect no_shear #
lump $-1 $-1 $30 $6 #
transform $-1 1 0 0 0 1 0 0 0 1 71.976073488570819 38.75158232538746 8.8608159250078735 1 rotate no_reflect no_shear #
lump $-1 $-1 $31 $7 #
transform $-1 1 0 0 0 1 0 0 0 1 71.976073488570819 38.75158232538746 8.8608159250078735 1 rotate no_reflect no_shear #
shell $-1 $-1 $-1 $32 $-1 $8 #
shell $-1 $-1 $-1 $33 $-1 $10 #
shell $-1 $-1 $-1 $34 $-1 $12 #
shell $-1 $-1 $-1 $35 $-1 $14 #
shell $-1 $-1 $-1 $36 $-1 $16 #
shell $-1 $-1 $-1 $37 $-1 $18 #
shell $-1 $-1 $-1 $38 $-1 $20 #
shell $-1 $-1 $-1 $39 $-1 $22 #
face $-1 $40 $41 $24 $-1 $42 forward single #
face $-1 $43 $44 $25 $-1 $45 reversed single #
face $-1 $46 $47 $26 $-1 $48 forward single #
face $-1 $49 $50 $27 $-1 $51 forward single #
face $-1 $52 $53 $28 $-1 $54 reversed single #
face $-1 $55 $56 $29 $-1 $57 forward single #
face $-1 $58 $59 $30 $-1 $60 forward single #
face $-1 $61 $62 $31 $-1 $63 forward single #
face $-1 $64 $65 $24 $-1 $66 reversed single #
loop $-1 $-1 $67 $32 #
plane-surface $-1 0 0 8.8608159250078735 0 0 1 1 0 0 forward_v I I I I #
face $-1 $68 $69 $25 $-1 $70 reversed single #
loop $-1 $-1 $71 $33 #
plane-surface $-1 -42.307442421316239 -110.72765677825575 126.68075374991582 -1 0 0 0 -0.50000000669873634 0.8660253999169214 forward_v I I I I #
face $-1 $72 $73 $26 $-1 $74 forward single #
loop $-1 $75 $76 $34 #
cone-surface $-1 -63.499321755069516 -31.674089863788257 3.4485170732902315 0 0.50000000669873634 -0.8660253999169214 2 0 0 1 I I 0 1 2 forward I I I I #
face $-1 $77 $78 $27 $-1 $79 forward single #
loop $-1 $80 $81 $35 #
cone-surface $-1 -50.784194154817555 -31.674089863788257 3.4485170732902315 0 0.50000000669873634 -0.8660253999169214 2 0 0 1 I I 0 1 2 forward I I I I #
face $-1 $82 $83 $28 $-1 $84 reversed single #
loop $-1 $-1 $85 $36 #
plane-surface $-1 -4.024315354837313 124.66621836333729 144.84409248830192 1 0 0 0 -0.86602541151947299 -0.49999998660252726 forward_v I I I I #
face $-1 $86 $87 $29 $-1 $88 forward single #
loop $-1 $89 $90 $37 #
cone-surface $-1 4.5244221799635511 37.149419027482352 6.8983048238474334 0 -0.86602541151947299 -0.49999998660252726 0.5 0 0 1 I I 0 1 0.5 forward I I I I #
face $-1 $91 $92 $30 $-1 $93 forward single #
loop $-1 $94 $95 $38 #
cone-surface $-1 17.347528482164847 37.149419027482352 6.8983048238474334 0 -0.86602541151947299 -0.49999998660252726 0.5 0 0 1 I I 0 1 0.5 forward I I I I #
face $-1 $96 $97 $31 $-1 $98 forward single #
loop $-1 $99 $100 $39 #
cone-surface $-1 30.170634784366143 37.149419027482352 6.8983048238474334 0 -0.86602541151947299 -0.49999998660252726 0.5 0 0 1 I I 0 1 0.5 forward I I I I #
face $-1 $101 $102 $24 $-1 $103 reversed single #
loop $-1 $-1 $104 $40 #
plane-surface $-1 0 0 -8.8608159250078735 0 0 1 1 0 0 forward_v I I I I #
coedge $-1 $105 $106 $107 $108 forward $41 $-1 #
face $-1 $109 $110 $25 $-1 $111 forward single #
loop $-1 $-1 $112 $43 #
plane-surface $-1 -57.141757954943529 -38.751582325387446 2.0145380951372829 0 -0.50000000669873634 0.8660253999169214 1 0 0 forward_v I I I I #
coedge $-1 $113 $114 $115 $116 reversed $44 $-1 #
face $-1 $-1 $117 $26 $-1 $118 forward single #
loop $-1 $119 $120 $46 #
cone-surface $-1 -63.499321755069516 -30.02564781161205 0.59333173659095806 0 0.50000000669873634 -0.8660253999169214 1 0 0 1 I I -0.70710678118654746 0.70710678118654746 1 forward I I I I #
loop $-1 $-1 $121 $34 #
coedge $-1 $76 $76 $122 $123 reversed $47 $-1 #
face $-1 $-1 $124 $27 $-1 $125 forward single #
loop $-1 $126 $127 $49 #
cone-surface $-1 -50.784194154817555 -30.02564781161205 0.59333173659095806 0 0.50000000669873634 -0.8660253999169214 1 0 0 1 I I -0.70710678118654746 0.70710678118654746 1 forward I I I I #
loop $-1 $-1 $128 $35 #
coedge $-1 $81 $81 $129 $130 reversed $50 $-1 #
face $-1 $131 $132 $28 $-1 $133 reversed single #
loop $-1 $-1 $134 $52 #
plane-surface $-1 17.347528482164847 1.0383465536278891e-006 72.868020928326075 0 0.86602541151947299 0.49999998660252726 1 0 0 forward_v I I I I #
coedge $-1 $135 $136 $137 $138 reversed $53 $-1 #
face $-1 $-1 $139 $29 $-1 $140 forward single #
loop $-1 $141 $142 $55 #
cone-surface $-1 4.5244221799635511 36.229252160977751 6.3670462547516884 0 -0.86602541151947299 -0.49999998660252726 0.25 0 0 1 I I -0.70710678118654746 0.70710678118654746 0.25 forward I I I I #
loop $-1 $-1 $143 $37 #
coedge $-1 $90 $90 $144 $145 reversed $56 $-1 #
face $-1 $-1 $146 $30 $-1 $147 forward single #
loop $-1 $148 $149 $58 #
cone-surface $-1 17.347528482164847 36.229252160977751 6.3670462547516884 0 -0.86602541151947299 -0.49999998660252726 0.25 0 0 1 I I -0.70710678118654746 0.70710678118654746 0.25 forward I I I I #
loop $-1 $-1 $150 $38 #
coedge $-1 $95 $95 $151 $152 reversed $59 $-1 #
face $-1 $-1 $153 $31 $-1 $154 forward single #
loop $-1 $155 $156 $61 #
cone-surface $-1 30.170634784366143 36.229252160977751 6.3670462547516884 0 -0.86602541151947299 -0.49999998660252726 0.25 0 0 1 I I -0.70710678118654746 0.70710678118654746 0.25 forward I I I I #
loop $-1 $-1 $157 $39 #
coedge $-1 $100 $100 $158 $159 reversed $62 $-1 #
face $-1 $160 $161 $24 $-1 $162 reversed single #
loop $-1 $-1 $163 $64 #
plane-surface $-1 0 -38.75158232538746 0 0 1 0 0 0 1 forward_v I I I I #
coedge $-1 $164 $165 $166 $167 forward $65 $-1 #
coedge $-1 $168 $67 $169 $170 forward $41 $-1 #
coedge $-1 $67 $168 $171 $172 forward $41 $-1 #
coedge $-1 $173 $174 $67 $108 reversed $175 $-1 #
edge $-1 $176 -38.75158232538746 $177 38.75158232538746 $107 $178 forward 7 unknown #
face $-1 $179 $180 $25 $-1 $181 reversed single #
loop $-1 $-1 $115 $68 #
plane-surface $-1 0 0 8.8608159250078735 0 0 1 1 0 0 forward_v I I I I #
coedge $-1 $182 $183 $184 $185 reversed $69 $-1 #
coedge $-1 $114 $71 $186 $187 reversed $44 $-1 #
coedge $-1 $71 $113 $182 $188 reversed $44 $-1 #
coedge $-1 $184 $189 $71 $116 forward $110 $-1 #
edge $-1 $190 16.612246063740415 $191 28.470346895983909 $115 $192 forward 7 unknown #
loop $-1 $-1 $122 $72 #
plane-surface $-1 -57.141757954943529 -38.751582325387446 2.0145380951372829 0 -0.50000000669873634 0.8660253999169214 1 0 0 forward_v I I I I #
loop $-1 $-1 $193 $46 #
coedge $-1 $120 $120 $121 $194 reversed $73 $-1 #
coedge $-1 $121 $121 $120 $194 forward $75 $-1 #
coedge $-1 $122 $122 $76 $123 forward $117 $-1 #
edge $-1 $195 2.5392883402449705e-016 $195 6.2831853071796004 $122 $196 forward 7 unknown #
loop $-1 $-1 $129 $77 #
plane-surface $-1 -57.141757954943529 -38.751582325387446 2.0145380951372829 0 -0.50000000669873634 0.8660253999169214 1 0 0 forward_v I I I I #
loop $-1 $-1 $197 $49 #
coedge $-1 $127 $127 $128 $198 reversed $78 $-1 #
coedge $-1 $128 $128 $127 $198 forward $80 $-1 #
coedge $-1 $129 $129 $81 $130 forward $124 $-1 #
edge $-1 $199 2.5392883402449705e-016 $199 6.2831853071796004 $129 $200 forward 7 unknown #
face $-1 $201 $202 $28 $-1 $203 forward single #
loop $-1 $-1 $204 $82 #
plane-surface $-1 38.719372319167007 124.66621836333729 144.84409248830192 -1 0 0 0 0.86602541151947299 0.49999998660252726 forward_v I I I I #
coedge $-1 $205 $206 $207 $208 reversed $83 $-1 #
coedge $-1 $136 $85 $209 $210 reversed $53 $-1 #
coedge $-1 $85 $135 $205 $211 reversed $53 $-1 #
coedge $-1 $207 $212 $85 $138 forward $202 $-1 #
edge $-1 $213 23.581526856281187 $214 25.378532424841914 $137 $215 forward 7 unknown #
loop $-1 $-1 $144 $86 #
plane-surface $-1 17.347528482164847 1.0383465536278891e-006 72.868020928326075 0 0.86602541151947299 0.49999998660252726 1 0 0 forward_v I I I I #
loop $-1 $-1 $216 $55 #
coedge $-1 $142 $142 $143 $217 reversed $87 $-1 #
coedge $-1 $143 $143 $142 $217 forward $89 $-1 #
coedge $-1 $144 $144 $90 $145 forward $139 $-1 #
edge $-1 $218 -4.3942097103170346e-015 $218 6.283185307179596 $144 $219 forward 7 unknown #
loop $-1 $-1 $151 $91 #
plane-surface $-1 17.347528482164847 1.0383465536278891e-006 72.868020928326075 0 0.86602541151947299 0.49999998660252726 1 0 0 forward_v I I I I #
loop $-1 $-1 $220 $58 #
coedge $-1 $149 $149 $150 $221 reversed $92 $-1 #
coedge $-1 $150 $150 $149 $221 forward $94 $-1 #
coedge $-1 $151 $151 $95 $152 forward $146 $-1 #
edge $-1 $222 -4.3942097103170346e-015 $222 6.283185307179596 $151 $223 forward 7 unknown #
loop $-1 $-1 $158 $96 #
plane-surface $-1 17.347528482164847 1.0383465536278891e-006 72.868020928326075 0 0.86602541151947299 0.49999998660252726 1 0 0 forward_v I I I I #
loop $-1 $-1 $224 $61 #
coedge $-1 $156 $156 $157 $225 reversed $97 $-1 #
coedge $-1 $157 $157 $156 $225 forward $99 $-1 #
coedge $-1 $158 $158 $100 $159 forward $153 $-1 #
edge $-1 $226 -4.3942097103170346e-015 $226 6.283185307179596 $158 $227 forward 7 unknown #
face $-1 $228 $229 $24 $-1 $230 reversed single #
loop $-1 $-1 $231 $101 #
plane-surface $-1 -71.976073488570819 0 0 1 0 0 0 0 -1 forward_v I I I I #
coedge $-1 $232 $171 $233 $234 forward $102 $-1 #
coedge $-1 $235 $104 $232 $236 forward $65 $-1 #
coedge $-1 $104 $235 $237 $238 forward $65 $-1 #
coedge $-1 $174 $173 $104 $167 reversed $175 $-1 #
edge $-1 $239 -38.75158232538746 $240 38.75158232538746 $166 $241 forward 7 unknown #
coedge $-1 $106 $105 $242 $243 forward $41 $-1 #
coedge $-1 $244 $245 $105 $170 reversed $229 $-1 #
edge $-1 $177 -71.976073488570819 $246 71.976073488570819 $169 $247 forward 7 unknown #
coedge $-1 $163 $248 $106 $172 reversed $102 $-1 #
edge $-1 $249 -71.976073488570819 $176 71.976073488570819 $171 $250 forward 7 unknown #
coedge $-1 $166 $107 $248 $251 forward $175 $-1 #
coedge $-1 $107 $166 $244 $252 reversed $175 $-1 #
loop $-1 $-1 $173 $228 #
vertex $-1 $108 $253 #
vertex $-1 $108 $254 #
straight-curve $-1 71.976073488570819 0 8.8608159250078735 0 1 0 I I #
face $-1 $-1 $255 $25 $-1 $256 reversed single #
loop $-1 $-1 $257 $109 #
plane-surface $-1 -71.976073488570819 0 0 1 0 0 0 0 -1 forward_v I I I I #
coedge $-1 $258 $112 $114 $188 forward $69 $-1 #
coedge $-1 $112 $258 $257 $259 reversed $69 $-1 #
coedge $-1 $260 $115 $112 $185 forward $110 $-1 #
edge $-1 $191 13.736563443844474 $261 43.405194511099054 $184 $262 forward 7 unknown #
coedge $-1 $263 $264 $113 $187 forward $255 $-1 #
edge $-1 $265 -61.325838779820636 $190 -54.479560949950042 $186 $266 forward 7 unknown #
edge $-1 $191 -13.692555476295544 $265 1.6303764080091705e-014 $114 $267 forward 7 unknown #
coedge $-1 $115 $260 $263 $268 forward $110 $-1 #
vertex $-1 $187 $269 #
vertex $-1 $116 $270 #
straight-curve $-1 -42.307442421316239 -55.363828389127875 8.86081592500787 0 1 0 I I #
coedge $-1 $193 $193 $-1 $271 reversed $119 $-1 #
edge $-1 $272 0 $272 6.2831853071796004 $120 $273 forward 7 unknown #
vertex $-1 $123 $274 #
ellipse-curve $-1 -63.499321755069516 -32.82253190926572 5.4376770100725702 0 -0.50000000669873634 0.8660253999169214 2 0 0 1 I I #
coedge $-1 $197 $197 $-1 $275 reversed $126 $-1 #
edge $-1 $276 0 $276 6.2831853071796004 $127 $277 forward 7 unknown #
vertex $-1 $130 $278 #
ellipse-curve $-1 -50.784194154817555 -32.82253190926572 5.4376770100725702 0 -0.50000000669873634 0.8660253999169214 2 0 0 1 I I #
face $-1 $-1 $279 $28 $-1 $280 reversed single #
loop $-1 $-1 $137 $131 #
plane-surface $-1 0 0 8.8608159250078735 0 0 1 1 0 0 forward_v I I I I #
coedge $-1 $281 $282 $283 $284 reversed $132 $-1 #
coedge $-1 $285 $134 $136 $211 forward $83 $-1 #
coedge $-1 $134 $285 $281 $286 forward $83 $-1 #
coedge $-1 $283 $137 $134 $208 forward $202 $-1 #
edge $-1 $214 -12.698079595919737 $287 30.045608078084584 $207 $288 forward 7 unknown #
coedge $-1 $289 $290 $135 $210 forward $279 $-1 #
edge $-1 $291 -66.673735376573674 $213 -63.561230319143093 $209 $292 forward 7 unknown #
edge $-1 $214 73.909153417352087 $291 77.503164650774877 $136 $293 forward 7 unknown #
coedge $-1 $137 $283 $289 $294 forward $202 $-1 #
vertex $-1 $210 $295 #
vertex $-1 $138 $296 #
straight-curve $-1 -4.024315354837313 62.333109181668647 8.86081592500787 0 -1 0 I I #
coedge $-1 $216 $216 $-1 $297 reversed $141 $-1 #
edge $-1 $298 0 $298 6.2831853071796004 $142 $299 forward 7 unknown #
vertex $-1 $145 $300 #
ellipse-curve $-1 4.5244221799635511 37.8530795411071 7.3045633962925569 0 0.86602541151947299 0.49999998660252726 0.5 0 0 1 I I #
coedge $-1 $220 $220 $-1 $301 reversed $148 $-1 #
edge $-1 $302 0 $302 6.2831853071796004 $149 $303 forward 7 unknown #
vertex $-1 $152 $304 #
ellipse-curve $-1 17.347528482164847 37.8530795411071 7.3045633962925569 0 0.86602541151947299 0.49999998660252726 0.5 0 0 1 I I #
coedge $-1 $224 $224 $-1 $305 reversed $155 $-1 #
edge $-1 $306 0 $306 6.2831853071796004 $156 $307 forward 7 unknown #
vertex $-1 $159 $308 #
ellipse-curve $-1 30.170634784366143 37.8530795411071 7.3045633962925569 0 0.86602541151947299 0.49999998660252726 0.5 0 0 1 I I #
face $-1 $-1 $175 $24 $-1 $309 reversed single #
loop $-1 $-1 $244 $160 #
plane-surface $-1 0 38.75158232538746 0 0 -1 0 0 0 -1 forward_v I I I I #
coedge $-1 $310 $242 $245 $311 forward $161 $-1 #
coedge $-1 $248 $163 $164 $236 reversed $102 $-1 #
coedge $-1 $242 $310 $163 $234 reversed $161 $-1 #
edge $-1 $249 -8.8608159250078735 $312 8.8608159250078735 $233 $313 forward 7 unknown #
coedge $-1 $165 $164 $310 $314 forward $65 $-1 #
edge $-1 $240 -71.976073488570819 $312 71.976073488570819 $232 $315 forward 7 unknown #
coedge $-1 $245 $244 $165 $238 reversed $229 $-1 #
edge $-1 $316 -71.976073488570819 $239 71.976073488570819 $237 $317 forward 7 unknown #
vertex $-1 $167 $318 #
vertex $-1 $251 $319 #
straight-curve $-1 71.976073488570819 0 -8.8608159250078735 0 -1 0 I I #
coedge $-1 $231 $233 $168 $243 reversed $161 $-1 #
edge $-1 $246 -38.75158232538746 $249 38.75158232538746 $242 $320 forward 7 unknown #
coedge $-1 $237 $169 $174 $252 forward $229 $-1 #
coedge $-1 $169 $237 $231 $311 reversed $229 $-1 #
vertex $-1 $170 $321 #
straight-curve $-1 0 38.75158232538746 8.8608159250078735 -1 0 0 I I #
coedge $-1 $171 $232 $173 $251 reversed $102 $-1 #
vertex $-1 $243 $322 #
straight-curve $-1 0 -38.75158232538746 8.8608159250078735 1 0 0 I I #
edge $-1 $176 -8.8608159250078735 $240 8.8608159250078735 $173 $323 forward 7 unknown #
edge $-1 $177 -8.8608159250078735 $239 8.8608159250078735 $174 $324 forward 7 unknown #
point $-1 71.976073488570819 -38.75158232538746 8.8608159250078735 #
point $-1 71.976073488570819 38.75158232538746 8.8608159250078735 #
loop $-1 $-1 $186 $179 #
plane-surface $-1 0 -38.75158232538746 0 0 1 0 0 0 1 forward_v I I I I #
coedge $-1 $325 $326 $183 $259 forward $180 $-1 #
coedge $-1 $183 $182 $264 $327 reversed $69 $-1 #
edge $-1 $261 2.5837372835512897 $328 16.27629275984685 $257 $329 forward 7 unknown #
coedge $-1 $189 $184 $326 $330 forward $110 $-1 #
vertex $-1 $330 $331 #
straight-curve $-1 -28.570878977471764 -26.893481493143966 8.8608159250078735 -1 0 0 I I #
coedge $-1 $332 $186 $189 $268 reversed $255 $-1 #
coedge $-1 $186 $332 $258 $327 forward $255 $-1 #
vertex $-1 $187 $333 #
straight-curve $-1 -42.307442421316239 -38.75158232538746 63.340376874957911 0 0 1 I I #
straight-curve $-1 -42.307442421316239 -38.751582325387446 2.0145380951372829 0 -0.8660253999169214 -0.50000000669873634 I I #
edge $-1 $334 -71.976073488570819 $190 -42.307442421316239 $263 $335 forward 7 unknown #
point $-1 -42.307442421316239 -38.75158232538746 8.8608159250078735 #
point $-1 -42.307442421316239 -26.893481493143966 8.8608159250078735 #
edge $-1 $336 1 $336 0 $193 $-1 forward 7 unknown #
vertex $-1 $194 $337 #
ellipse-curve $-1 -63.499321755069516 -30.525647818310787 1.4593571365078795 0 -0.50000000669873634 0.8660253999169214 2 0 0 1 I I #
point $-1 -61.499321755069516 -32.822531909265727 5.4376770100725835 #
edge $-1 $338 1 $338 0 $197 $-1 forward 7 unknown #
vertex $-1 $198 $339 #
ellipse-curve $-1 -50.784194154817555 -30.525647818310787 1.4593571365078795 0 -0.50000000669873634 0.8660253999169214 2 0 0 1 I I #
point $-1 -48.784194154817555 -32.822531909265727 5.4376770100725835 #
loop $-1 $-1 $209 $201 #
plane-surface $-1 0 38.75158232538746 0 0 -1 0 0 0 -1 forward_v I I I I #
coedge $-1 $282 $204 $206 $286 reversed $132 $-1 #
coedge $-1 $204 $281 $340 $341 reversed $132 $-1 #
coedge $-1 $212 $207 $204 $284 forward $202 $-1 #
edge $-1 $287 -25.378532424841914 $342 -23.581526856281187 $283 $343 forward 7 unknown #
coedge $-1 $206 $205 $290 $344 reversed $83 $-1 #
edge $-1 $345 -77.503164650774877 $287 -73.909153417352087 $281 $346 forward 7 unknown #
vertex $-1 $208 $347 #
straight-curve $-1 8.6737642410824236 36.954576756826725 8.86081592500787 1 0 0 I I #
coedge $-1 $340 $209 $212 $294 reversed $279 $-1 #
coedge $-1 $209 $340 $285 $344 forward $279 $-1 #
vertex $-1 $210 $348 #
straight-curve $-1 -4.024315354837313 38.75158232538746 72.422046244150962 0 0 1 I I #
straight-curve $-1 -4.024315354837313 1.0383465536278891e-006 72.868020928326075 0 0.49999998660252726 -0.86602541151947299 I I #
edge $-1 $342 -38.719372319167007 $213 4.024315354837313 $289 $349 forward 7 unknown #
point $-1 -4.024315354837313 38.75158232538746 8.8608159250078735 #
point $-1 -4.024315354837313 36.954576756826732 8.86081592500787 #
edge $-1 $350 1 $350 0 $216 $-1 forward 7 unknown #
vertex $-1 $217 $351 #
ellipse-curve $-1 4.5244221799635511 36.445758513857619 6.4920462514023205 0 0.86602541151947299 0.49999998660252726 0.5 0 0 1 I I #
point $-1 5.0244221799635511 37.853079541107078 7.3045633962925471 #
edge $-1 $352 1 $352 0 $220 $-1 forward 7 unknown #
vertex $-1 $221 $353 #
ellipse-curve $-1 17.347528482164847 36.445758513857619 6.4920462514023205 0 0.86602541151947299 0.49999998660252726 0.5 0 0 1 I I #
point $-1 17.847528482164847 37.853079541107078 7.3045633962925471 #
edge $-1 $354 1 $354 0 $224 $-1 forward 7 unknown #
vertex $-1 $225 $355 #
ellipse-curve $-1 30.170634784366143 36.445758513857619 6.4920462514023205 0 0.86602541151947299 0.49999998660252726 0.5 0 0 1 I I #
point $-1 30.670634784366143 37.853079541107078 7.3045633962925471 #
plane-surface $-1 71.976073488570819 0 0 -1 0 0 0 0 1 forward_v I I I I #
coedge $-1 $233 $231 $235 $314 reversed $161 $-1 #
edge $-1 $246 -8.8608159250078735 $316 8.8608159250078735 $245 $356 forward 7 unknown #
vertex $-1 $314 $357 #
straight-curve $-1 -71.976073488570819 -38.75158232538746 0 0 0 -1 I I #
edge $-1 $312 -38.75158232538746 $316 38.75158232538746 $310 $358 forward 7 unknown #
straight-curve $-1 0 -38.75158232538746 -8.8608159250078735 -1 0 0 I I #
vertex $-1 $238 $359 #
straight-curve $-1 0 38.75158232538746 -8.8608159250078735 1 0 0 I I #
point $-1 71.976073488570819 38.75158232538746 -8.8608159250078735 #
point $-1 71.976073488570819 -38.75158232538746 -8.8608159250078735 #
straight-curve $-1 -71.976073488570819 0 8.8608159250078735 0 -1 0 I I #
point $-1 -71.976073488570819 38.75158232538746 8.8608159250078735 #
point $-1 -71.976073488570819 -38.75158232538746 8.8608159250078735 #
straight-curve $-1 71.976073488570819 -38.75158232538746 0 0 0 -1 I I #
straight-curve $-1 71.976073488570819 38.75158232538746 0 0 0 -1 I I #
coedge $-1 $326 $257 $332 $360 reversed $180 $-1 #
coedge $-1 $257 $325 $260 $330 reversed $180 $-1 #
edge $-1 $328 -43.405194511099054 $265 -13.736563443844474 $264 $361 forward 7 unknown #
vertex $-1 $259 $362 #
straight-curve $-1 -71.976073488570819 -24.6558993788762 10.152684584091292 0 -0.8660253999169214 -0.50000000669873634 I I #
edge $-1 $261 26.893481493143966 $334 38.75158232538746 $326 $363 forward 7 unknown #
point $-1 -71.976073488570819 -26.893481493143966 8.8608159250078735 #
coedge $-1 $264 $263 $325 $360 forward $255 $-1 #
point $-1 -42.307442421316239 -38.75158232538746 2.0145380951372749 #
vertex $-1 $330 $364 #
straight-curve $-1 0 -38.75158232538746 8.8608159250078735 1 0 0 I I #
vertex $-1 $271 $365 #
point $-1 -61.499321755069516 -30.525647818310787 1.4593571365078795 #
vertex $-1 $275 $366 #
point $-1 -48.784194154817555 -30.525647818310787 1.4593571365078795 #
coedge $-1 $290 $289 $282 $341 forward $279 $-1 #
edge $-1 $342 63.561230319143093 $345 66.673735376573674 $340 $367 forward 7 unknown #
vertex $-1 $294 $368 #
straight-curve $-1 38.719372319167007 62.333109181668647 8.86081592500787 0 1 0 I I #
edge $-1 $345 -30.045608078084584 $291 12.698079595919737 $290 $369 forward 7 unknown #
vertex $-1 $344 $370 #
straight-curve $-1 38.719372319167007 1.0383465536278891e-006 72.868020928326075 0 -0.49999998660252726 0.86602541151947299 I I #
point $-1 38.719372319167007 36.954576756826732 8.86081592500787 #
point $-1 -4.024315354837313 38.75158232538746 5.7483108675772883 #
straight-curve $-1 0 38.75158232538746 8.8608159250078735 -1 0 0 I I #
vertex $-1 $297 $371 #
point $-1 5.0244221799635511 36.445758513857619 6.4920462514023205 #
vertex $-1 $301 $372 #
point $-1 17.847528482164847 36.445758513857619 6.4920462514023205 #
vertex $-1 $305 $373 #
point $-1 30.670634784366143 36.445758513857619 6.4920462514023205 #
straight-curve $-1 -71.976073488570819 38.75158232538746 0 0 0 -1 I I #
point $-1 -71.976073488570819 -38.75158232538746 -8.8608159250078735 #
straight-curve $-1 -71.976073488570819 0 -8.8608159250078735 0 1 0 I I #
point $-1 -71.976073488570819 38.75158232538746 -8.8608159250078735 #
edge $-1 $334 -8.8608159250078735 $328 -2.0145380951372749 $325 $374 forward 7 unknown #
straight-curve $-1 -28.570878977471764 -38.75158232538746 2.0145380951372758 1 0 0 I I #
point $-1 -71.976073488570819 -38.75158232538746 2.0145380951372749 #
straight-curve $-1 -71.976073488570819 0 8.8608159250078735 0 -1 0 I I #
point $-1 -71.976073488570819 -38.75158232538746 8.8608159250078735 #
point $-1 -63.499321755069516 -29.525647804913312 -0.27269366332596334 #
point $-1 -50.784194154817555 -29.525647804913312 -0.27269366332596334 #
straight-curve $-1 38.719372319167007 38.75158232538746 72.422046244150962 0 0 -1 I I #
point $-1 38.719372319167007 38.75158232538746 8.8608159250078735 #
straight-curve $-1 8.6737642410824236 38.75158232538746 5.7483108675772883 -1 0 0 I I #
point $-1 38.719372319167007 38.75158232538746 5.7483108675772883 #
point $-1 4.5244221799635511 36.012745808097883 6.2420462581010563 #
point $-1 17.347528482164847 36.012745808097883 6.2420462581010563 #
point $-1 30.170634784366143 36.012745808097883 6.2420462581010563 #
straight-curve $-1 -71.976073488570819 -38.75158232538746 0 0 0 -1 I I #
End-of-ACIS-data 