500 0 8 0           
7 Unknown 11 ACIS 5.0 NT 24 Fri Mar 26 00:05:23 1999 
-1 9.9999999999999995e-007 1e-010 
body $-1 $8 $-1 $9 #
body $-1 $10 $-1 $11 #
body $-1 $12 $-1 $13 #
body $-1 $14 $-1 $15 #
body $-1 $16 $-1 $17 #
body $-1 $18 $-1 $19 #
body $-1 $20 $-1 $21 #
body $-1 $22 $-1 $23 #
lump $-1 $-1 $24 $0 #
transform $-1 1 0 0 0 1 0 0 0 1 73.978087710196235 44.25364826884055 10.170762486128861 1 rotate no_reflect no_shear #
lump $-1 $-1 $25 $1 #
transform $-1 1 0 0 0 1 0 0 0 1 73.978087710196235 44.25364826884055 10.170762486128861 1 rotate no_reflect no_shear #
lump $-1 $-1 $26 $2 #
transform $-1 1 0 0 0 1 0 0 0 1 73.978087710196235 44.25364826884055 10.170762486128861 1 rotate no_reflect no_shear #
lump $-1 $-1 $27 $3 #
transform $-1 1 0 0 0 1 0 0 0 1 73.978087710196235 44.25364826884055 10.170762486128861 1 rotate no_reflect no_shear #
lump $-1 $-1 $28 $4 #
transform $-1 1 0 0 0 1 0 0 0 1 73.978087710196235 44.25364826884055 10.170762486128861 1 rotate no_reflect no_shear #
lump $-1 $-1 $29 $5 #
transform $-1 1 0 0 0 1 0 0 0 1 73.978087710196235 44.25364826884055 10.170762486128861 1 rotate no_reflect no_shear #
lump $-1 $-1 $30 $6 #
transform $-1 1 0 0 0 1 0 0 0 1 73.978087710196235 44.25364826884055 10.170762486128861 1 rotate no_reflect no_shear #
lump $-1 $-1 $31 $7 #
transform $-1 1 0 0 0 1 0 0 0 1 73.978087710196235 44.25364826884055 10.170762486128861 1 rotate no_reflect no_shear #
shell $-1 $-1 $-1 $32 $-1 $8 #
shell $-1 $-1 $-1 $33 $-1 $10 #
shell $-1 $-1 $-1 $34 $-1 $12 #
shell $-1 $-1 $-1 $35 $-1 $14 #
shell $-1 $-1 $-1 $36 $-1 $16 #
shell $-1 $-1 $-1 $37 $-1 $18 #
shell $-1 $-1 $-1 $38 $-1 $20 #
shell $-1 $-1 $-1 $39 $-1 $22 #
face $-1 $40 $41 $24 $-1 $42 forward single #
face $-1 $43 $44 $25 $-1 $45 forward single #
face $-1 $46 $47 $26 $-1 $48 reversed single #
face $-1 $49 $50 $27 $-1 $51 forward single #
face $-1 $52 $53 $28 $-1 $54 forward single #
face $-1 $55 $56 $29 $-1 $57 reversed single #
face $-1 $58 $59 $30 $-1 $60 forward single #
face $-1 $61 $62 $31 $-1 $63 forward single #
face $-1 $64 $65 $24 $-1 $66 reversed single #
loop $-1 $-1 $67 $32 #
plane-surface $-1 0 0 10.170762486128861 0 0 1 1 0 0 forward_v I I I I #
face $-1 $68 $69 $25 $-1 $70 reversed single #
loop $-1 $-1 $71 $33 #
plane-surface $-1 0 -44.25364826884055 0 0 1 0 0 0 1 forward_v I I I I #
face $-1 $72 $73 $26 $-1 $74 reversed single #
loop $-1 $-1 $75 $34 #
plane-surface $-1 -43.120498601187222 111.92942718931829 162.6449642409172 1 0 0 0 -0.80901700255871778 -0.5877852410284794 forward_v I I I I #
face $-1 $76 $77 $27 $-1 $78 forward single #
loop $-1 $79 $80 $35 #
cone-surface $-1 -38.462216441007058 39.752862316571729 5.4616413967187878 0 -0.80901700255871778 -0.5877852410284794 1.5 0 0 1 I I 0 1 1.5 forward I I I I #
face $-1 $81 $82 $28 $-1 $83 forward single #
loop $-1 $84 $85 $36 #
cone-surface $-1 -31.474793200736812 39.752862316571729 5.4616413967187878 0 -0.80901700255871778 -0.5877852410284794 1.5 0 0 1 I I 0 1 1.5 forward I I I I #
face $-1 $86 $87 $29 $-1 $88 reversed single #
loop $-1 $-1 $89 $37 #
plane-surface $-1 30.857589109009005 111.92942718931829 162.6449642409172 1 0 0 0 -0.80901700255871778 -0.5877852410284794 forward_v I I I I #
face $-1 $90 $91 $30 $-1 $92 forward single #
loop $-1 $93 $94 $38 #
cone-surface $-1 35.515871269189176 39.752862316571729 5.4616413967187878 0 -0.80901700255871778 -0.5877852410284794 1.5 0 0 1 I I 0 1 1.5 forward I I I I #
face $-1 $95 $96 $31 $-1 $97 forward single #
loop $-1 $98 $99 $39 #
cone-surface $-1 42.503294509459423 39.752862316571729 5.4616413967187878 0 -0.80901700255871778 -0.5877852410284794 1.5 0 0 1 I I 0 1 1.5 forward I I I I #
face $-1 $100 $101 $24 $-1 $102 reversed single #
loop $-1 $-1 $103 $40 #
plane-surface $-1 0 0 -10.170762486128861 0 0 1 1 0 0 forward_v I I I I #
coedge $-1 $104 $105 $106 $107 forward $41 $-1 #
face $-1 $108 $109 $25 $-1 $110 reversed single #
loop $-1 $-1 $111 $43 #
plane-surface $-1 0 0 -10.170762486128861 0 0 1 1 0 0 forward_v I I I I #
coedge $-1 $112 $113 $114 $115 forward $44 $-1 #
face $-1 $116 $117 $26 $-1 $118 reversed single #
loop $-1 $-1 $119 $46 #
plane-surface $-1 -34.968504820871935 -7.769634359339463 75.678508009789837 0 0.80901700255871778 0.5877852410284794 1 0 0 forward_v I I I I #
coedge $-1 $120 $121 $122 $123 reversed $47 $-1 #
face $-1 $-1 $124 $27 $-1 $125 forward single #
loop $-1 $126 $127 $49 #
cone-surface $-1 -38.462216441007058 36.859874104885847 3.3597624894520415 0 -0.80901700255871778 -0.5877852410284794 0.75 0 0 1 I I -0.70710678118654724 0.70710678118654768 0.75 forward I I I I #
loop $-1 $-1 $128 $35 #
coedge $-1 $80 $80 $129 $130 reversed $50 $-1 #
face $-1 $-1 $131 $28 $-1 $132 forward single #
loop $-1 $133 $134 $52 #
cone-surface $-1 -31.474793200736812 36.859874104885847 3.3597624894520415 0 -0.80901700255871778 -0.5877852410284794 0.75 0 0 1 I I -0.70710678118654724 0.70710678118654768 0.75 forward I I I I #
loop $-1 $-1 $135 $36 #
coedge $-1 $85 $85 $136 $137 reversed $53 $-1 #
face $-1 $138 $139 $29 $-1 $140 reversed single #
loop $-1 $-1 $141 $55 #
plane-surface $-1 39.009582889324292 -7.769634359339463 75.678508009789837 0 0.80901700255871778 0.5877852410284794 1 0 0 forward_v I I I I #
coedge $-1 $142 $143 $144 $145 reversed $56 $-1 #
face $-1 $-1 $146 $30 $-1 $147 forward single #
loop $-1 $148 $149 $58 #
cone-surface $-1 35.515871269189176 36.859874104885847 3.3597624894520415 0 -0.80901700255871778 -0.5877852410284794 0.75 0 0 1 I I -0.70710678118654724 0.70710678118654768 0.75 forward I I I I #
loop $-1 $-1 $150 $38 #
coedge $-1 $94 $94 $151 $152 reversed $59 $-1 #
face $-1 $-1 $153 $31 $-1 $154 forward single #
loop $-1 $155 $156 $61 #
cone-surface $-1 42.503294509459423 36.859874104885847 3.3597624894520415 0 -0.80901700255871778 -0.5877852410284794 0.75 0 0 1 I I -0.70710678118654724 0.70710678118654768 0.75 forward I I I I #
loop $-1 $-1 $157 $39 #
coedge $-1 $99 $99 $158 $159 reversed $62 $-1 #
face $-1 $160 $161 $24 $-1 $162 reversed single #
loop $-1 $-1 $163 $64 #
plane-surface $-1 0 -44.25364826884055 0 0 1 0 0 0 1 forward_v I I I I #
coedge $-1 $164 $165 $166 $167 forward $65 $-1 #
coedge $-1 $168 $67 $169 $170 forward $41 $-1 #
coedge $-1 $67 $168 $171 $172 forward $41 $-1 #
coedge $-1 $173 $174 $67 $107 reversed $175 $-1 #
edge $-1 $176 -44.25364826884055 $177 44.25364826884055 $106 $178 forward 7 unknown #
face $-1 $179 $180 $25 $-1 $181 forward single #
loop $-1 $-1 $182 $68 #
plane-surface $-1 73.978087710196235 0 0 -1 0 0 0 0 1 forward_v I I I I #
coedge $-1 $183 $184 $185 $186 forward $69 $-1 #
coedge $-1 $185 $71 $182 $187 reversed $44 $-1 #
coedge $-1 $71 $185 $188 $189 reversed $44 $-1 #
coedge $-1 $190 $191 $71 $115 reversed $180 $-1 #
edge $-1 $192 -73.978087710196235 $193 73.978087710196235 $114 $194 forward 7 unknown #
face $-1 $195 $196 $26 $-1 $197 forward single #
loop $-1 $-1 $198 $72 #
plane-surface $-1 -26.816511040556648 111.92942718931829 162.6449642409172 -1 0 0 0 0.80901700255871778 0.5877852410284794 forward_v I I I I #
coedge $-1 $199 $200 $201 $202 reversed $73 $-1 #
coedge $-1 $121 $75 $203 $204 reversed $47 $-1 #
coedge $-1 $75 $120 $199 $205 reversed $47 $-1 #
coedge $-1 $201 $206 $75 $123 forward $196 $-1 #
edge $-1 $207 11.711065325818595 $208 16.140186310822592 $122 $209 forward 7 unknown #
loop $-1 $-1 $129 $76 #
plane-surface $-1 -34.968504820871935 -7.769634359339463 75.678508009789837 0 0.80901700255871778 0.5877852410284794 1 0 0 forward_v I I I I #
loop $-1 $-1 $210 $49 #
coedge $-1 $127 $127 $128 $211 reversed $77 $-1 #
coedge $-1 $128 $128 $127 $211 forward $79 $-1 #
coedge $-1 $129 $129 $80 $130 forward $124 $-1 #
edge $-1 $212 1.07752068552374e-015 $212 6.2831853071796013 $129 $213 forward 7 unknown #
loop $-1 $-1 $136 $81 #
plane-surface $-1 -34.968504820871935 -7.769634359339463 75.678508009789837 0 0.80901700255871778 0.5877852410284794 1 0 0 forward_v I I I I #
loop $-1 $-1 $214 $52 #
coedge $-1 $134 $134 $135 $215 reversed $82 $-1 #
coedge $-1 $135 $135 $134 $215 forward $84 $-1 #
coedge $-1 $136 $136 $85 $137 forward $131 $-1 #
edge $-1 $216 1.07752068552374e-015 $216 6.2831853071796013 $136 $217 forward 7 unknown #
face $-1 $218 $219 $29 $-1 $220 forward single #
loop $-1 $-1 $221 $86 #
plane-surface $-1 47.16157666963958 111.92942718931829 162.6449642409172 -1 0 0 0 0.80901700255871778 0.5877852410284794 forward_v I I I I #
coedge $-1 $222 $223 $224 $225 reversed $87 $-1 #
coedge $-1 $143 $89 $226 $227 reversed $56 $-1 #
coedge $-1 $89 $142 $222 $228 reversed $56 $-1 #
coedge $-1 $224 $229 $89 $145 forward $219 $-1 #
edge $-1 $230 11.711065325818595 $231 16.140186310822592 $144 $232 forward 7 unknown #
loop $-1 $-1 $151 $90 #
plane-surface $-1 39.009582889324292 -7.769634359339463 75.678508009789837 0 0.80901700255871778 0.5877852410284794 1 0 0 forward_v I I I I #
loop $-1 $-1 $233 $58 #
coedge $-1 $149 $149 $150 $234 reversed $91 $-1 #
coedge $-1 $150 $150 $149 $234 forward $93 $-1 #
coedge $-1 $151 $151 $94 $152 forward $146 $-1 #
edge $-1 $235 1.07752068552374e-015 $235 6.2831853071796013 $151 $236 forward 7 unknown #
loop $-1 $-1 $158 $95 #
plane-surface $-1 39.009582889324292 -7.769634359339463 75.678508009789837 0 0.80901700255871778 0.5877852410284794 1 0 0 forward_v I I I I #
loop $-1 $-1 $237 $61 #
coedge $-1 $156 $156 $157 $238 reversed $96 $-1 #
coedge $-1 $157 $157 $156 $238 forward $98 $-1 #
coedge $-1 $158 $158 $99 $159 forward $153 $-1 #
edge $-1 $239 1.07752068552374e-015 $239 6.2831853071796013 $158 $240 forward 7 unknown #
face $-1 $241 $242 $24 $-1 $243 reversed single #
loop $-1 $-1 $244 $100 #
plane-surface $-1 -73.978087710196235 0 0 1 0 0 0 0 -1 forward_v I I I I #
coedge $-1 $171 $245 $173 $246 reversed $101 $-1 #
coedge $-1 $247 $103 $245 $248 forward $65 $-1 #
coedge $-1 $103 $247 $249 $250 forward $65 $-1 #
coedge $-1 $174 $173 $103 $167 reversed $175 $-1 #
edge $-1 $251 -44.25364826884055 $252 44.25364826884055 $166 $253 forward 7 unknown #
coedge $-1 $105 $104 $254 $255 forward $41 $-1 #
coedge $-1 $256 $257 $104 $170 reversed $242 $-1 #
edge $-1 $177 -73.978087710196235 $258 73.978087710196235 $169 $259 forward 7 unknown #
coedge $-1 $260 $163 $105 $172 reversed $101 $-1 #
edge $-1 $261 -73.978087710196235 $176 73.978087710196235 $171 $262 forward 7 unknown #
coedge $-1 $166 $106 $163 $246 forward $175 $-1 #
coedge $-1 $106 $166 $256 $263 reversed $175 $-1 #
loop $-1 $-1 $173 $241 #
vertex $-1 $107 $264 #
vertex $-1 $107 $265 #
straight-curve $-1 73.978087710196235 0 10.170762486128861 0 1 0 I I #
face $-1 $266 $267 $25 $-1 $268 reversed single #
loop $-1 $-1 $191 $108 #
plane-surface $-1 0 -47.665722270973632 -7.1494249243294554 0 0 1 1 0 0 forward_v I I I I #
coedge $-1 $269 $270 $112 $187 forward $109 $-1 #
coedge $-1 $271 $111 $270 $272 forward $69 $-1 #
coedge $-1 $111 $271 $273 $274 forward $69 $-1 #
coedge $-1 $113 $112 $111 $186 reversed $44 $-1 #
edge $-1 $275 -73.978087710196235 $276 73.978087710196235 $111 $277 forward 7 unknown #
edge $-1 $276 -10.170762486128861 $193 -7.1494249243294554 $182 $278 forward 7 unknown #
coedge $-1 $273 $279 $113 $189 forward $280 $-1 #
edge $-1 $192 7.1494249243294554 $275 10.170762486128861 $188 $281 forward 7 unknown #
coedge $-1 $282 $114 $279 $283 forward $180 $-1 #
coedge $-1 $114 $282 $269 $284 forward $180 $-1 #
vertex $-1 $189 $285 #
vertex $-1 $284 $286 #
straight-curve $-1 0 -44.25364826884055 -7.1494249243294554 1 0 0 I I #
face $-1 $-1 $287 $26 $-1 $288 reversed single #
loop $-1 $-1 $122 $116 #
plane-surface $-1 0 0 10.170762486128861 0 0 1 1 0 0 forward_v I I I I #
coedge $-1 $289 $290 $291 $292 reversed $117 $-1 #
coedge $-1 $293 $119 $121 $205 forward $73 $-1 #
coedge $-1 $119 $293 $289 $294 forward $73 $-1 #
coedge $-1 $291 $122 $119 $202 forward $196 $-1 #
edge $-1 $208 -25.636246190751255 $295 -9.3322586301206805 $201 $296 forward 7 unknown #
coedge $-1 $297 $298 $120 $204 forward $287 $-1 #
edge $-1 $299 -77.24788186015914 $207 -71.151719634329737 $203 $300 forward 7 unknown #
edge $-1 $208 80.972025700914088 $299 88.507296537681142 $121 $301 forward 7 unknown #
coedge $-1 $122 $291 $297 $302 forward $196 $-1 #
vertex $-1 $204 $303 #
vertex $-1 $123 $304 #
straight-curve $-1 -43.120498601187222 55.964713594659145 10.170762486128865 0 -1 0 I I #
coedge $-1 $210 $210 $-1 $305 reversed $126 $-1 #
edge $-1 $306 0 $306 6.2831853071796004 $127 $307 forward 7 unknown #
vertex $-1 $130 $308 #
ellipse-curve $-1 -38.462216441007058 42.039087776338548 7.1226813732141574 0 0.80901700255871778 0.5877852410284794 1.5 0 0 1 I I #
coedge $-1 $214 $214 $-1 $309 reversed $133 $-1 #
edge $-1 $310 0 $310 6.2831853071796004 $134 $311 forward 7 unknown #
vertex $-1 $137 $312 #
ellipse-curve $-1 -31.474793200736812 42.039087776338548 7.1226813732141574 0 0.80901700255871778 0.5877852410284794 1.5 0 0 1 I I #
face $-1 $-1 $313 $29 $-1 $314 reversed single #
loop $-1 $-1 $144 $138 #
plane-surface $-1 0 0 10.170762486128861 0 0 1 1 0 0 forward_v I I I I #
coedge $-1 $315 $316 $317 $318 reversed $139 $-1 #
coedge $-1 $319 $141 $143 $228 forward $87 $-1 #
coedge $-1 $141 $319 $315 $320 forward $87 $-1 #
coedge $-1 $317 $144 $141 $225 forward $219 $-1 #
edge $-1 $231 11.352797664346859 $321 27.656785224977433 $224 $322 forward 7 unknown #
coedge $-1 $323 $324 $142 $227 forward $313 $-1 #
edge $-1 $325 -77.24788186015914 $230 -71.151719634329737 $226 $326 forward 7 unknown #
edge $-1 $231 80.972025700914088 $325 88.507296537681142 $143 $327 forward 7 unknown #
coedge $-1 $144 $317 $323 $328 forward $219 $-1 #
vertex $-1 $145 $329 #
vertex $-1 $145 $330 #
straight-curve $-1 30.857589109009005 55.964713594659145 10.170762486128865 0 -1 0 I I #
coedge $-1 $233 $233 $-1 $331 reversed $148 $-1 #
edge $-1 $332 0 $332 6.2831853071796004 $149 $333 forward 7 unknown #
vertex $-1 $152 $334 #
ellipse-curve $-1 35.515871269189176 42.039087776338548 7.1226813732141574 0 0.80901700255871778 0.5877852410284794 1.5 0 0 1 I I #
coedge $-1 $237 $237 $-1 $335 reversed $155 $-1 #
edge $-1 $336 0 $336 6.2831853071796004 $156 $337 forward 7 unknown #
vertex $-1 $159 $338 #
ellipse-curve $-1 42.503294509459423 42.039087776338548 7.1226813732141574 0 0.80901700255871778 0.5877852410284794 1.5 0 0 1 I I #
face $-1 $-1 $175 $24 $-1 $339 reversed single #
loop $-1 $-1 $256 $160 #
plane-surface $-1 0 44.25364826884055 0 0 -1 0 0 0 -1 forward_v I I I I #
coedge $-1 $340 $254 $257 $341 forward $161 $-1 #
coedge $-1 $163 $260 $164 $248 reversed $101 $-1 #
edge $-1 $176 -10.170762486128861 $252 10.170762486128861 $173 $342 forward 7 unknown #
coedge $-1 $165 $164 $340 $343 forward $65 $-1 #
edge $-1 $252 -73.978087710196235 $344 73.978087710196235 $245 $345 forward 7 unknown #
coedge $-1 $257 $256 $165 $250 reversed $242 $-1 #
edge $-1 $346 -73.978087710196235 $251 73.978087710196235 $249 $347 forward 7 unknown #
vertex $-1 $167 $348 #
vertex $-1 $246 $349 #
straight-curve $-1 73.978087710196235 0 -10.170762486128861 0 -1 0 I I #
coedge $-1 $244 $350 $168 $255 reversed $161 $-1 #
edge $-1 $258 -44.25364826884055 $261 44.25364826884055 $254 $351 forward 7 unknown #
coedge $-1 $249 $169 $174 $263 forward $242 $-1 #
coedge $-1 $169 $249 $244 $341 reversed $242 $-1 #
vertex $-1 $170 $352 #
straight-curve $-1 0 44.25364826884055 10.170762486128861 -1 0 0 I I #
coedge $-1 $245 $171 $350 $353 forward $101 $-1 #
vertex $-1 $255 $354 #
straight-curve $-1 0 -44.25364826884055 10.170762486128861 1 0 0 I I #
edge $-1 $177 -10.170762486128861 $251 10.170762486128861 $174 $355 forward 7 unknown #
point $-1 73.978087710196235 -44.25364826884055 10.170762486128861 #
point $-1 73.978087710196235 44.25364826884055 10.170762486128861 #
face $-1 $-1 $280 $25 $-1 $356 reversed single #
loop $-1 $-1 $357 $179 #
plane-surface $-1 0 -51.077796273106713 -8.6600937052291584 0 1 0 0 0 1 forward_v I I I I #
coedge $-1 $358 $182 $191 $284 reversed $109 $-1 #
coedge $-1 $182 $358 $183 $272 reversed $109 $-1 #
coedge $-1 $184 $183 $359 $360 forward $69 $-1 #
edge $-1 $276 44.25364826884055 $361 51.077796273106713 $270 $362 forward 7 unknown #
coedge $-1 $363 $188 $184 $274 reversed $280 $-1 #
edge $-1 $364 -51.077796273106713 $275 -44.25364826884055 $273 $365 forward 7 unknown #
vertex $-1 $189 $366 #
vertex $-1 $272 $367 #
straight-curve $-1 0 -44.25364826884055 -10.170762486128861 1 0 0 I I #
straight-curve $-1 73.978087710196235 -44.25364826884055 0 0 0 1 I I #
coedge $-1 $188 $363 $190 $283 reversed $280 $-1 #
loop $-1 $-1 $188 $266 #
straight-curve $-1 -73.978087710196235 -44.25364826884055 0 0 0 -1 I I #
coedge $-1 $191 $190 $368 $369 forward $180 $-1 #
edge $-1 $192 -3.4120740021330818 $370 3.4120740021330818 $279 $371 forward 7 unknown #
edge $-1 $372 -3.4120740021330818 $193 3.4120740021330818 $269 $373 forward 7 unknown #
point $-1 -73.978087710196235 -44.25364826884055 -7.1494249243294554 #
point $-1 73.978087710196235 -44.25364826884055 -7.1494249243294554 #
loop $-1 $-1 $203 $195 #
plane-surface $-1 0 44.25364826884055 0 0 -1 0 0 0 -1 forward_v I I I I #
coedge $-1 $290 $198 $200 $294 reversed $117 $-1 #
coedge $-1 $198 $289 $374 $375 reversed $117 $-1 #
coedge $-1 $206 $201 $198 $292 forward $196 $-1 #
edge $-1 $295 -16.140186310822592 $376 -11.711065325818595 $291 $377 forward 7 unknown #
coedge $-1 $200 $199 $298 $378 reversed $73 $-1 #
edge $-1 $379 -88.507296537681142 $295 -80.972025700914088 $289 $380 forward 7 unknown #
vertex $-1 $202 $381 #
straight-curve $-1 -17.484252410435968 39.824527283836559 10.170762486128858 1 0 0 I I #
coedge $-1 $374 $203 $206 $302 reversed $287 $-1 #
coedge $-1 $203 $374 $293 $378 forward $287 $-1 #
vertex $-1 $204 $382 #
straight-curve $-1 -43.120498601187222 44.25364826884055 81.322482120458602 0 0 1 I I #
straight-curve $-1 -43.120498601187222 -7.769634359339463 75.678508009789837 0 0.5877852410284794 -0.80901700255871778 I I #
edge $-1 $376 26.816511040556648 $207 43.120498601187222 $297 $383 forward 7 unknown #
point $-1 -43.120498601187222 44.25364826884055 10.170762486128861 #
point $-1 -43.120498601187222 39.824527283836552 10.170762486128865 #
edge $-1 $384 1 $384 0 $210 $-1 forward 7 unknown #
vertex $-1 $211 $385 #
ellipse-curve $-1 -38.462216441007058 37.466636856804882 3.8006014202234013 0 0.80901700255871778 0.5877852410284794 1.5 0 0 1 I I #
point $-1 -36.962216441007058 42.039087776338576 7.122681373214176 #
edge $-1 $386 1 $386 0 $214 $-1 forward 7 unknown #
vertex $-1 $215 $387 #
ellipse-curve $-1 -31.474793200736812 37.466636856804882 3.8006014202234013 0 0.80901700255871778 0.5877852410284794 1.5 0 0 1 I I #
point $-1 -29.974793200736812 42.039087776338576 7.122681373214176 #
loop $-1 $-1 $226 $218 #
plane-surface $-1 0 44.25364826884055 0 0 -1 0 0 0 -1 forward_v I I I I #
coedge $-1 $316 $221 $223 $320 reversed $139 $-1 #
coedge $-1 $221 $315 $388 $389 reversed $139 $-1 #
coedge $-1 $229 $224 $221 $318 forward $219 $-1 #
edge $-1 $321 -16.140186310822592 $390 -11.711065325818595 $317 $391 forward 7 unknown #
coedge $-1 $223 $222 $324 $392 reversed $87 $-1 #
edge $-1 $393 -88.507296537681142 $321 -80.972025700914088 $315 $394 forward 7 unknown #
vertex $-1 $225 $395 #
straight-curve $-1 19.504791444662146 39.824527283836559 10.170762486128858 1 0 0 I I #
coedge $-1 $388 $226 $229 $328 reversed $313 $-1 #
coedge $-1 $226 $388 $319 $392 forward $313 $-1 #
vertex $-1 $227 $396 #
straight-curve $-1 30.857589109009005 44.25364826884055 81.322482120458602 0 0 1 I I #
straight-curve $-1 30.857589109009005 -7.769634359339463 75.678508009789837 0 0.5877852410284794 -0.80901700255871778 I I #
edge $-1 $390 -47.16157666963958 $230 -30.857589109009005 $323 $397 forward 7 unknown #
point $-1 30.857589109009005 44.25364826884055 10.170762486128861 #
point $-1 30.857589109009005 39.824527283836552 10.170762486128865 #
edge $-1 $398 1 $398 0 $233 $-1 forward 7 unknown #
vertex $-1 $234 $399 #
ellipse-curve $-1 35.515871269189176 37.466636856804882 3.8006014202234013 0 0.80901700255871778 0.5877852410284794 1.5 0 0 1 I I #
point $-1 37.015871269189176 42.039087776338576 7.122681373214176 #
edge $-1 $400 1 $400 0 $237 $-1 forward 7 unknown #
vertex $-1 $238 $401 #
ellipse-curve $-1 42.503294509459423 37.466636856804882 3.8006014202234013 0 0.80901700255871778 0.5877852410284794 1.5 0 0 1 I I #
point $-1 44.003294509459423 42.039087776338576 7.122681373214176 #
plane-surface $-1 73.978087710196235 0 0 -1 0 0 0 0 1 forward_v I I I I #
coedge $-1 $350 $244 $247 $343 reversed $161 $-1 #
edge $-1 $258 -10.170762486128861 $346 10.170762486128861 $257 $402 forward 7 unknown #
straight-curve $-1 73.978087710196235 -44.25364826884055 0 0 0 -1 I I #
edge $-1 $344 -44.25364826884055 $346 44.25364826884055 $340 $403 forward 7 unknown #
vertex $-1 $343 $404 #
straight-curve $-1 0 -44.25364826884055 -10.170762486128861 -1 0 0 I I #
vertex $-1 $250 $405 #
straight-curve $-1 0 44.25364826884055 -10.170762486128861 1 0 0 I I #
point $-1 73.978087710196235 44.25364826884055 -10.170762486128861 #
point $-1 73.978087710196235 -44.25364826884055 -10.170762486128861 #
coedge $-1 $254 $340 $260 $353 reversed $161 $-1 #
straight-curve $-1 -73.978087710196235 0 10.170762486128861 0 -1 0 I I #
point $-1 -73.978087710196235 44.25364826884055 10.170762486128861 #
edge $-1 $261 -10.170762486128861 $344 10.170762486128861 $350 $406 forward 7 unknown #
point $-1 -73.978087710196235 -44.25364826884055 10.170762486128861 #
straight-curve $-1 73.978087710196235 44.25364826884055 0 0 0 -1 I I #
plane-surface $-1 -73.978087710196235 0 0 1 0 0 0 0 -1 forward_v I I I I #
coedge $-1 $359 $368 $363 $407 forward $267 $-1 #
coedge $-1 $270 $269 $408 $409 forward $109 $-1 #
coedge $-1 $408 $357 $271 $360 reversed $267 $-1 #
edge $-1 $361 -73.978087710196235 $364 73.978087710196235 $359 $410 forward 7 unknown #
vertex $-1 $409 $411 #
straight-curve $-1 73.978087710196235 0 -10.170762486128861 0 -1 0 I I #
coedge $-1 $279 $273 $357 $407 reversed $280 $-1 #
vertex $-1 $274 $412 #
straight-curve $-1 -73.978087710196235 0 -10.170762486128861 0 1 0 I I #
point $-1 -73.978087710196235 -44.25364826884055 -10.170762486128861 #
point $-1 73.978087710196235 -44.25364826884055 -10.170762486128861 #
coedge $-1 $357 $408 $282 $369 reversed $267 $-1 #
edge $-1 $370 -73.978087710196235 $372 73.978087710196235 $368 $413 forward 7 unknown #
vertex $-1 $283 $414 #
straight-curve $-1 -73.978087710196235 -47.665722270973632 -7.1494249243294554 0 -1 0 I I #
vertex $-1 $284 $415 #
straight-curve $-1 73.978087710196235 -47.665722270973632 -7.1494249243294554 0 1 0 I I #
coedge $-1 $298 $297 $290 $375 forward $287 $-1 #
edge $-1 $376 71.151719634329737 $379 77.24788186015914 $374 $416 forward 7 unknown #
vertex $-1 $302 $417 #
straight-curve $-1 -26.816511040556648 55.964713594659145 10.170762486128865 0 1 0 I I #
edge $-1 $379 9.3322586301206805 $299 25.636246190751255 $298 $418 forward 7 unknown #
vertex $-1 $378 $419 #
straight-curve $-1 -26.816511040556648 -7.769634359339463 75.678508009789837 0 -0.5877852410284794 0.80901700255871778 I I #
point $-1 -26.816511040556648 39.824527283836552 10.170762486128865 #
point $-1 -43.120498601187222 44.25364826884055 4.0746002602994622 #
straight-curve $-1 0 44.25364826884055 10.170762486128861 -1 0 0 I I #
vertex $-1 $305 $420 #
point $-1 -36.962216441007058 37.466636856804882 3.8006014202234013 #
vertex $-1 $309 $421 #
point $-1 -29.974793200736812 37.466636856804882 3.8006014202234013 #
coedge $-1 $324 $323 $316 $389 forward $313 $-1 #
edge $-1 $390 71.151719634329737 $393 77.24788186015914 $388 $422 forward 7 unknown #
vertex $-1 $328 $423 #
straight-curve $-1 47.16157666963958 55.964713594659145 10.170762486128865 0 1 0 I I #
edge $-1 $393 -27.656785224977433 $325 -11.352797664346859 $324 $424 forward 7 unknown #
vertex $-1 $392 $425 #
straight-curve $-1 47.16157666963958 -7.769634359339463 75.678508009789837 0 -0.5877852410284794 0.80901700255871778 I I #
point $-1 47.16157666963958 39.824527283836552 10.170762486128865 #
point $-1 30.857589109009005 44.25364826884055 4.0746002602994622 #
straight-curve $-1 0 44.25364826884055 10.170762486128861 -1 0 0 I I #
vertex $-1 $331 $426 #
point $-1 37.015871269189176 37.466636856804882 3.8006014202234013 #
vertex $-1 $335 $427 #
point $-1 44.003294509459423 37.466636856804882 3.8006014202234013 #
straight-curve $-1 -73.978087710196235 44.25364826884055 0 0 0 -1 I I #
straight-curve $-1 -73.978087710196235 0 -10.170762486128861 0 1 0 I I #
point $-1 -73.978087710196235 -44.25364826884055 -10.170762486128861 #
point $-1 -73.978087710196235 44.25364826884055 -10.170762486128861 #
straight-curve $-1 -73.978087710196235 -44.25364826884055 0 0 0 -1 I I #
edge $-1 $370 -1.510668780899703 $364 1.510668780899703 $363 $428 forward 7 unknown #
coedge $-1 $368 $359 $358 $409 reversed $267 $-1 #
edge $-1 $372 -1.510668780899703 $361 1.510668780899703 $358 $429 forward 7 unknown #
straight-curve $-1 0 -51.077796273106713 -10.170762486128861 -1 0 0 I I #
point $-1 73.978087710196235 -51.077796273106713 -10.170762486128861 #
point $-1 -73.978087710196235 -51.077796273106713 -10.170762486128861 #
straight-curve $-1 0 -51.077796273106713 -7.1494249243294554 1 0 0 I I #
point $-1 -73.978087710196235 -51.077796273106713 -7.1494249243294554 #
point $-1 73.978087710196235 -51.077796273106713 -7.1494249243294554 #
straight-curve $-1 -26.816511040556648 44.25364826884055 81.322482120458602 0 0 -1 I I #
point $-1 -26.816511040556648 44.25364826884055 10.170762486128861 #
straight-curve $-1 -17.484252410435968 44.25364826884055 4.0746002602994551 -1 0 0 I I #
point $-1 -26.816511040556648 44.25364826884055 4.0746002602994622 #
point $-1 -38.462216441007058 36.253111352966812 2.9189235586806817 #
point $-1 -31.474793200736812 36.253111352966812 2.9189235586806817 #
straight-curve $-1 47.16157666963958 44.25364826884055 81.322482120458602 0 0 -1 I I #
point $-1 47.16157666963958 44.25364826884055 10.170762486128861 #
straight-curve $-1 19.504791444662146 44.25364826884055 4.0746002602994551 -1 0 0 I I #
point $-1 47.16157666963958 44.25364826884055 4.0746002602994622 #
point $-1 35.515871269189176 36.253111352966812 2.9189235586806817 #
point $-1 42.503294509459423 36.253111352966812 2.9189235586806817 #
straight-curve $-1 -73.978087710196235 -51.077796273106713 -8.6600937052291584 0 0 -1 I I #
straight-curve $-1 73.978087710196235 -51.077796273106713 -8.6600937052291584 0 0 -1 I I #
End-of-ACIS-data 