500 0 11 0           
7 Unknown 11 ACIS 5.0 NT 24 Thu Mar 25 23:57:47 1999 
-1 9.9999999999999995e-007 1e-010 
body $-1 $11 $-1 $12 #
body $-1 $13 $-1 $14 #
body $-1 $15 $-1 $16 #
body $-1 $17 $-1 $18 #
body $-1 $19 $-1 $20 #
body $-1 $21 $-1 $22 #
body $-1 $23 $-1 $24 #
body $-1 $25 $-1 $26 #
body $-1 $27 $-1 $28 #
body $-1 $29 $-1 $30 #
body $-1 $31 $-1 $32 #
lump $-1 $-1 $33 $0 #
transform $-1 1 0 0 0 1 0 0 0 1 53.861507003997922 29.986034213334477 11.834723662743171 1 rotate no_reflect no_shear #
lump $-1 $-1 $34 $1 #
transform $-1 1 0 0 0 0.52991925155115449 0.84804810408105047 0 -0.84804810408105047 0.52991925155115449 14.749760911806767 -91.354297795377306 70.297802963344651 1 rotate no_reflect no_shear #
lump $-1 $-1 $35 $2 #
transform $-1 1 0 0 0 -0.52991925155115449 -0.84804810408105047 0 0.84804810408105047 -0.52991925155115449 10.5140751312058 7.5311781145486227 15.776735083096478 1 rotate no_reflect no_shear #
lump $-1 $-1 $36 $3 #
transform $-1 1 0 0 0 -0.52991925155115449 -0.84804810408105047 0 0.84804810408105047 -0.52991925155115449 18.985446692407734 7.5311781145486227 15.776735083096478 1 rotate no_reflect no_shear #
lump $-1 $-1 $37 $4 #
transform $-1 1 0 0 0 0.52991925155115449 0.84804810408105047 0 -0.84804810408105047 0.52991925155115449 68.611267915804689 -91.354297795377306 70.297802963344651 1 rotate no_reflect no_shear #
lump $-1 $-1 $38 $5 #
transform $-1 1 0 0 0 -0.52991925155115449 -0.84804810408105047 0 0.84804810408105047 -0.52991925155115449 64.375582135203729 7.5311781145486227 15.776735083096478 1 rotate no_reflect no_shear #
lump $-1 $-1 $39 $6 #
transform $-1 1 0 0 0 -0.52991925155115449 -0.84804810408105047 0 0.84804810408105047 -0.52991925155115449 72.846953696405649 7.5311781145486227 15.776735083096478 1 rotate no_reflect no_shear #
lump $-1 $-1 $40 $7 #
transform $-1 1 0 0 0 0.64278759981090561 -0.7660444514056185 0 0.7660444514056185 0.64278759981090561 6.4486033220018326 103.94338367650997 132.98333302526672 1 rotate no_reflect no_shear #
lump $-1 $-1 $41 $8 #
transform $-1 1 0 0 0 -0.64278759981090561 0.7660444514056185 0 -0.7660444514056185 -0.64278759981090561 6.4486033220018326 55.379650047536657 18.947390086356798 1 rotate no_reflect no_shear #
lump $-1 $-1 $42 $9 #
transform $-1 1 0 0 0 0.64278759981090561 -0.7660444514056185 0 0.7660444514056185 0.64278759981090561 101.27441068599401 103.94338367650997 132.98333302526672 1 rotate no_reflect no_shear #
lump $-1 $-1 $43 $10 #
transform $-1 1 0 0 0 -0.64278759981090561 0.7660444514056185 0 -0.7660444514056185 -0.64278759981090561 101.27441068599401 55.379650047536657 18.947390086356798 1 rotate no_reflect no_shear #
shell $-1 $-1 $-1 $44 $-1 $11 #
shell $-1 $-1 $-1 $45 $-1 $13 #
shell $-1 $-1 $-1 $46 $-1 $15 #
shell $-1 $-1 $-1 $47 $-1 $17 #
shell $-1 $-1 $-1 $48 $-1 $19 #
shell $-1 $-1 $-1 $49 $-1 $21 #
shell $-1 $-1 $-1 $50 $-1 $23 #
shell $-1 $-1 $-1 $51 $-1 $25 #
shell $-1 $-1 $-1 $52 $-1 $27 #
shell $-1 $-1 $-1 $53 $-1 $29 #
shell $-1 $-1 $-1 $54 $-1 $31 #
face $-1 $55 $56 $33 $-1 $57 forward single #
face $-1 $58 $59 $34 $-1 $60 forward single #
face $-1 $61 $62 $35 $-1 $63 forward single #
face $-1 $64 $65 $36 $-1 $66 forward single #
face $-1 $67 $68 $37 $-1 $69 forward single #
face $-1 $70 $71 $38 $-1 $72 forward single #
face $-1 $73 $74 $39 $-1 $75 forward single #
face $-1 $76 $77 $40 $-1 $78 forward single #
face $-1 $79 $80 $41 $-1 $81 forward single #
face $-1 $82 $83 $42 $-1 $84 forward single #
face $-1 $85 $86 $43 $-1 $87 forward single #
face $-1 $88 $89 $33 $-1 $90 reversed single #
loop $-1 $-1 $91 $44 #
plane-surface $-1 0 0 11.834723662743171 0 0 1 1 0 0 forward_v I I I I #
face $-1 $92 $93 $34 $-1 $94 reversed single #
loop $-1 $-1 $95 $45 #
plane-surface $-1 0 0 107.72301400799584 0 0 1 1 0 0 forward_v I I I I #
face $-1 $96 $97 $35 $-1 $98 forward single #
loop $-1 $99 $100 $46 #
cone-surface $-1 0 0 -2.8891949217200228 0 0 1 1.5 0 0 1 I I 0 1 1.5 forward I I I I #
face $-1 $101 $102 $36 $-1 $103 forward single #
loop $-1 $104 $105 $47 #
cone-surface $-1 0 0 -2.8891949217200228 0 0 1 1.5 0 0 1 I I 0 1 1.5 forward I I I I #
face $-1 $106 $107 $37 $-1 $108 reversed single #
loop $-1 $-1 $109 $48 #
plane-surface $-1 0 0 107.72301400799584 0 0 1 1 0 0 forward_v I I I I #
face $-1 $110 $111 $38 $-1 $112 forward single #
loop $-1 $113 $114 $49 #
cone-surface $-1 0 0 -2.8891949217200228 0 0 1 1.5 0 0 1 I I 0 1 1.5 forward I I I I #
face $-1 $115 $116 $39 $-1 $117 forward single #
loop $-1 $118 $119 $50 #
cone-surface $-1 0 0 -2.8891949217200228 0 0 1 1.5 0 0 1 I I 0 1 1.5 forward I I I I #
face $-1 $120 $121 $40 $-1 $122 reversed single #
loop $-1 $-1 $123 $51 #
plane-surface $-1 0 0 107.72301400799586 0 0 1 1 0 0 forward_v I I I I #
face $-1 $124 $125 $41 $-1 $126 forward single #
loop $-1 $127 $128 $52 #
cone-surface $-1 0 0 -1.6399273659474467 0 0 1 1 0 0 1 I I 0 1 1 forward I I I I #
face $-1 $129 $130 $42 $-1 $131 reversed single #
loop $-1 $-1 $132 $53 #
plane-surface $-1 0 0 107.72301400799586 0 0 1 1 0 0 forward_v I I I I #
face $-1 $133 $134 $43 $-1 $135 forward single #
loop $-1 $136 $137 $54 #
cone-surface $-1 0 0 -1.6399273659474467 0 0 1 1 0 0 1 I I 0 1 1 forward I I I I #
face $-1 $138 $139 $33 $-1 $140 reversed single #
loop $-1 $-1 $141 $55 #
plane-surface $-1 0 0 -11.834723662743171 0 0 1 1 0 0 forward_v I I I I #
coedge $-1 $142 $143 $144 $145 forward $56 $-1 #
face $-1 $146 $147 $34 $-1 $148 reversed single #
loop $-1 $-1 $149 $58 #
plane-surface $-1 0 0 -107.72301400799584 0 0 1 1 0 0 forward_v I I I I #
coedge $-1 $150 $151 $152 $153 forward $59 $-1 #
face $-1 $-1 $154 $35 $-1 $155 forward single #
loop $-1 $-1 $156 $61 #
plane-surface $-1 0 0 -5.0283898434400456 0 0 -1 -1 0 0 forward_v I I I I #
loop $-1 $-1 $157 $46 #
coedge $-1 $100 $100 $156 $158 reversed $62 $-1 #
face $-1 $-1 $159 $36 $-1 $160 forward single #
loop $-1 $-1 $161 $64 #
plane-surface $-1 0 0 -5.0283898434400456 0 0 -1 -1 0 0 forward_v I I I I #
loop $-1 $-1 $162 $47 #
coedge $-1 $105 $105 $161 $163 reversed $65 $-1 #
face $-1 $164 $165 $37 $-1 $166 reversed single #
loop $-1 $-1 $167 $67 #
plane-surface $-1 0 0 -107.72301400799584 0 0 1 1 0 0 forward_v I I I I #
coedge $-1 $168 $169 $170 $171 forward $68 $-1 #
face $-1 $-1 $172 $38 $-1 $173 forward single #
loop $-1 $-1 $174 $70 #
plane-surface $-1 0 0 -5.0283898434400456 0 0 -1 -1 0 0 forward_v I I I I #
loop $-1 $-1 $175 $49 #
coedge $-1 $114 $114 $174 $176 reversed $71 $-1 #
face $-1 $-1 $177 $39 $-1 $178 forward single #
loop $-1 $-1 $179 $73 #
plane-surface $-1 0 0 -5.0283898434400456 0 0 -1 -1 0 0 forward_v I I I I #
loop $-1 $-1 $180 $50 #
coedge $-1 $119 $119 $179 $181 reversed $74 $-1 #
face $-1 $182 $183 $40 $-1 $184 reversed single #
loop $-1 $-1 $185 $76 #
plane-surface $-1 0 0 -107.72301400799586 0 0 1 1 0 0 forward_v I I I I #
coedge $-1 $186 $187 $188 $189 forward $77 $-1 #
face $-1 $-1 $190 $41 $-1 $191 forward single #
loop $-1 $-1 $192 $79 #
plane-surface $-1 0 0 -2.7798547318948934 0 0 -1 -1 0 0 forward_v I I I I #
loop $-1 $-1 $193 $52 #
coedge $-1 $128 $128 $192 $194 reversed $80 $-1 #
face $-1 $195 $196 $42 $-1 $197 reversed single #
loop $-1 $-1 $198 $82 #
plane-surface $-1 0 0 -107.72301400799586 0 0 1 1 0 0 forward_v I I I I #
coedge $-1 $199 $200 $201 $202 forward $83 $-1 #
face $-1 $-1 $203 $43 $-1 $204 forward single #
loop $-1 $-1 $205 $85 #
plane-surface $-1 0 0 -2.7798547318948934 0 0 -1 -1 0 0 forward_v I I I I #
loop $-1 $-1 $206 $54 #
coedge $-1 $137 $137 $205 $207 reversed $86 $-1 #
face $-1 $208 $209 $33 $-1 $210 reversed single #
loop $-1 $-1 $211 $88 #
plane-surface $-1 0 -29.986034213334477 0 0 1 0 0 0 1 forward_v I I I I #
coedge $-1 $212 $213 $214 $215 forward $89 $-1 #
coedge $-1 $216 $91 $217 $218 forward $56 $-1 #
coedge $-1 $91 $216 $219 $220 forward $56 $-1 #
coedge $-1 $221 $222 $91 $145 reversed $223 $-1 #
edge $-1 $224 -29.986034213334477 $225 29.986034213334477 $144 $226 forward 7 unknown #
face $-1 $227 $228 $34 $-1 $229 reversed single #
loop $-1 $-1 $230 $92 #
plane-surface $-1 0 -215.44602801599169 0 0 1 0 0 0 1 forward_v I I I I #
coedge $-1 $231 $232 $233 $234 forward $93 $-1 #
coedge $-1 $235 $95 $236 $237 forward $59 $-1 #
coedge $-1 $95 $235 $238 $239 forward $59 $-1 #
coedge $-1 $240 $241 $95 $153 reversed $242 $-1 #
edge $-1 $243 -215.44602801599169 $244 215.44602801599169 $152 $245 forward 7 unknown #
loop $-1 $246 $247 $96 #
cone-surface $-1 0 0 0 0 0 1 0.75 0 0 1 I I -0.70710678118654757 0.70710678118654757 0.75 forward I I I I #
coedge $-1 $156 $156 $100 $158 forward $97 $-1 #
coedge $-1 $157 $157 $247 $248 forward $99 $-1 #
edge $-1 $249 0 $249 6.2831853071796004 $156 $250 forward 7 unknown #
loop $-1 $251 $252 $101 #
cone-surface $-1 0 0 0 0 0 1 0.75 0 0 1 I I -0.70710678118654757 0.70710678118654757 0.75 forward I I I I #
coedge $-1 $161 $161 $105 $163 forward $102 $-1 #
coedge $-1 $162 $162 $252 $253 forward $104 $-1 #
edge $-1 $254 0 $254 6.2831853071796004 $161 $255 forward 7 unknown #
face $-1 $256 $257 $37 $-1 $258 reversed single #
loop $-1 $-1 $259 $106 #
plane-surface $-1 0 -215.44602801599169 0 0 1 0 0 0 1 forward_v I I I I #
coedge $-1 $260 $261 $262 $263 forward $107 $-1 #
coedge $-1 $264 $109 $265 $266 forward $68 $-1 #
coedge $-1 $109 $264 $267 $268 forward $68 $-1 #
coedge $-1 $269 $270 $109 $171 reversed $271 $-1 #
edge $-1 $272 -215.44602801599169 $273 215.44602801599169 $170 $274 forward 7 unknown #
loop $-1 $275 $276 $110 #
cone-surface $-1 0 0 0 0 0 1 0.75 0 0 1 I I -0.70710678118654757 0.70710678118654757 0.75 forward I I I I #
coedge $-1 $174 $174 $114 $176 forward $111 $-1 #
coedge $-1 $175 $175 $276 $277 forward $113 $-1 #
edge $-1 $278 0 $278 6.2831853071796004 $174 $279 forward 7 unknown #
loop $-1 $280 $281 $115 #
cone-surface $-1 0 0 0 0 0 1 0.75 0 0 1 I I -0.70710678118654757 0.70710678118654757 0.75 forward I I I I #
coedge $-1 $179 $179 $119 $181 forward $116 $-1 #
coedge $-1 $180 $180 $281 $282 forward $118 $-1 #
edge $-1 $283 0 $283 6.2831853071796004 $179 $284 forward 7 unknown #
face $-1 $285 $286 $40 $-1 $287 reversed single #
loop $-1 $-1 $288 $120 #
plane-surface $-1 0 -215.44602801599169 0 0 1 0 0 0 1 forward_v I I I I #
coedge $-1 $289 $290 $291 $292 forward $121 $-1 #
coedge $-1 $293 $123 $294 $295 forward $77 $-1 #
coedge $-1 $123 $293 $296 $297 forward $77 $-1 #
coedge $-1 $298 $299 $123 $189 reversed $300 $-1 #
edge $-1 $301 -215.44602801599169 $302 215.44602801599169 $188 $303 forward 7 unknown #
loop $-1 $304 $305 $124 #
cone-surface $-1 0 0 0 0 0 1 0.5 0 0 1 I I -0.70710678118654746 0.70710678118654746 0.5 forward I I I I #
coedge $-1 $192 $192 $128 $194 forward $125 $-1 #
coedge $-1 $193 $193 $305 $306 forward $127 $-1 #
edge $-1 $307 0 $307 6.2831853071796004 $192 $308 forward 7 unknown #
face $-1 $309 $310 $42 $-1 $311 reversed single #
loop $-1 $-1 $312 $129 #
plane-surface $-1 0 -215.44602801599169 0 0 1 0 0 0 1 forward_v I I I I #
coedge $-1 $313 $314 $315 $316 forward $130 $-1 #
coedge $-1 $317 $132 $318 $319 forward $83 $-1 #
coedge $-1 $132 $317 $320 $321 forward $83 $-1 #
coedge $-1 $322 $323 $132 $202 reversed $324 $-1 #
edge $-1 $325 -215.44602801599169 $326 215.44602801599169 $201 $327 forward 7 unknown #
loop $-1 $328 $329 $133 #
cone-surface $-1 0 0 0 0 0 1 0.5 0 0 1 I I -0.70710678118654746 0.70710678118654746 0.5 forward I I I I #
coedge $-1 $205 $205 $137 $207 forward $134 $-1 #
coedge $-1 $206 $206 $329 $330 forward $136 $-1 #
edge $-1 $331 0 $331 6.2831853071796004 $205 $332 forward 7 unknown #
face $-1 $333 $334 $33 $-1 $335 reversed single #
loop $-1 $-1 $336 $138 #
plane-surface $-1 -53.861507003997922 0 0 1 0 0 0 0 -1 forward_v I I I I #
coedge $-1 $337 $219 $338 $339 forward $139 $-1 #
coedge $-1 $340 $141 $337 $341 forward $89 $-1 #
coedge $-1 $141 $340 $342 $343 forward $89 $-1 #
coedge $-1 $222 $221 $141 $215 reversed $223 $-1 #
edge $-1 $344 -29.986034213334477 $345 29.986034213334477 $214 $346 forward 7 unknown #
coedge $-1 $143 $142 $347 $348 forward $56 $-1 #
coedge $-1 $349 $350 $142 $218 reversed $334 $-1 #
edge $-1 $225 -53.861507003997922 $351 53.861507003997922 $217 $352 forward 7 unknown #
coedge $-1 $211 $353 $143 $220 reversed $139 $-1 #
edge $-1 $354 -53.861507003997922 $224 53.861507003997922 $219 $355 forward 7 unknown #
coedge $-1 $214 $144 $353 $356 forward $223 $-1 #
coedge $-1 $144 $214 $349 $357 reversed $223 $-1 #
loop $-1 $-1 $221 $333 #
vertex $-1 $145 $358 #
vertex $-1 $145 $359 #
straight-curve $-1 53.861507003997922 0 11.834723662743171 0 1 0 I I #
face $-1 $360 $361 $34 $-1 $362 reversed single #
loop $-1 $-1 $363 $146 #
plane-surface $-1 -9.8832668214022554 0 0 1 0 0 0 0 -1 forward_v I I I I #
coedge $-1 $364 $238 $365 $366 forward $147 $-1 #
coedge $-1 $367 $149 $364 $368 forward $93 $-1 #
coedge $-1 $149 $367 $369 $370 forward $93 $-1 #
coedge $-1 $241 $240 $149 $234 reversed $242 $-1 #
edge $-1 $371 -215.44602801599169 $372 215.44602801599169 $233 $373 forward 7 unknown #
coedge $-1 $151 $150 $374 $375 forward $59 $-1 #
coedge $-1 $376 $377 $150 $237 reversed $361 $-1 #
edge $-1 $244 -9.8832668214022554 $378 9.8832668214022554 $236 $379 forward 7 unknown #
coedge $-1 $230 $380 $151 $239 reversed $147 $-1 #
edge $-1 $381 -9.8832668214022554 $243 9.8832668214022554 $238 $382 forward 7 unknown #
coedge $-1 $233 $152 $380 $383 forward $242 $-1 #
coedge $-1 $152 $233 $376 $384 reversed $242 $-1 #
loop $-1 $-1 $240 $360 #
vertex $-1 $153 $385 #
vertex $-1 $153 $386 #
straight-curve $-1 9.8832668214022554 0 107.72301400799584 0 1 0 I I #
loop $-1 $-1 $387 $96 #
coedge $-1 $247 $247 $157 $248 reversed $154 $-1 #
edge $-1 $388 0 $388 6.2831853071796004 $247 $389 forward 7 unknown #
vertex $-1 $158 $390 #
ellipse-curve $-1 0 0 -5.0283898434400456 0 0 -1 1.5 0 0 1 I I #
loop $-1 $-1 $391 $101 #
coedge $-1 $252 $252 $162 $253 reversed $159 $-1 #
edge $-1 $392 0 $392 6.2831853071796004 $252 $393 forward 7 unknown #
vertex $-1 $163 $394 #
ellipse-curve $-1 0 0 -5.0283898434400456 0 0 -1 1.5 0 0 1 I I #
face $-1 $395 $396 $37 $-1 $397 reversed single #
loop $-1 $-1 $398 $164 #
plane-surface $-1 -9.8832668214022554 0 0 1 0 0 0 0 -1 forward_v I I I I #
coedge $-1 $399 $267 $400 $401 forward $165 $-1 #
coedge $-1 $402 $167 $399 $403 forward $107 $-1 #
coedge $-1 $167 $402 $404 $405 forward $107 $-1 #
coedge $-1 $270 $269 $167 $263 reversed $271 $-1 #
edge $-1 $406 -215.44602801599169 $407 215.44602801599169 $262 $408 forward 7 unknown #
coedge $-1 $169 $168 $409 $410 forward $68 $-1 #
coedge $-1 $411 $412 $168 $266 reversed $396 $-1 #
edge $-1 $273 -9.8832668214022554 $413 9.8832668214022554 $265 $414 forward 7 unknown #
coedge $-1 $259 $415 $169 $268 reversed $165 $-1 #
edge $-1 $416 -9.8832668214022554 $272 9.8832668214022554 $267 $417 forward 7 unknown #
coedge $-1 $262 $170 $415 $418 forward $271 $-1 #
coedge $-1 $170 $262 $411 $419 reversed $271 $-1 #
loop $-1 $-1 $269 $395 #
vertex $-1 $171 $420 #
vertex $-1 $171 $421 #
straight-curve $-1 9.8832668214022554 0 107.72301400799584 0 1 0 I I #
loop $-1 $-1 $422 $110 #
coedge $-1 $276 $276 $175 $277 reversed $172 $-1 #
edge $-1 $423 0 $423 6.2831853071796004 $276 $424 forward 7 unknown #
vertex $-1 $176 $425 #
ellipse-curve $-1 0 0 -5.0283898434400456 0 0 -1 1.5 0 0 1 I I #
loop $-1 $-1 $426 $115 #
coedge $-1 $281 $281 $180 $282 reversed $177 $-1 #
edge $-1 $427 0 $427 6.2831853071796004 $281 $428 forward 7 unknown #
vertex $-1 $181 $429 #
ellipse-curve $-1 0 0 -5.0283898434400456 0 0 -1 1.5 0 0 1 I I #
face $-1 $430 $431 $40 $-1 $432 reversed single #
loop $-1 $-1 $433 $182 #
plane-surface $-1 -6.4486033220018326 0 0 1 0 0 0 0 -1 forward_v I I I I #
coedge $-1 $434 $296 $435 $436 forward $183 $-1 #
coedge $-1 $437 $185 $434 $438 forward $121 $-1 #
coedge $-1 $185 $437 $439 $440 forward $121 $-1 #
coedge $-1 $299 $298 $185 $292 reversed $300 $-1 #
edge $-1 $441 -215.44602801599169 $442 215.44602801599169 $291 $443 forward 7 unknown #
coedge $-1 $187 $186 $444 $445 forward $77 $-1 #
coedge $-1 $446 $447 $186 $295 reversed $431 $-1 #
edge $-1 $302 -6.4486033220018326 $448 6.4486033220018326 $294 $449 forward 7 unknown #
coedge $-1 $288 $450 $187 $297 reversed $183 $-1 #
edge $-1 $451 -6.4486033220018326 $301 6.4486033220018326 $296 $452 forward 7 unknown #
coedge $-1 $291 $188 $450 $453 forward $300 $-1 #
coedge $-1 $188 $291 $446 $454 reversed $300 $-1 #
loop $-1 $-1 $298 $430 #
vertex $-1 $189 $455 #
vertex $-1 $189 $456 #
straight-curve $-1 6.4486033220018326 0 107.72301400799586 0 1 0 I I #
loop $-1 $-1 $457 $124 #
coedge $-1 $305 $305 $193 $306 reversed $190 $-1 #
edge $-1 $458 0 $458 6.2831853071796004 $305 $459 forward 7 unknown #
vertex $-1 $194 $460 #
ellipse-curve $-1 0 0 -2.7798547318948934 0 0 -1 1 0 0 1 I I #
face $-1 $461 $462 $42 $-1 $463 reversed single #
loop $-1 $-1 $464 $195 #
plane-surface $-1 -6.4486033220018326 0 0 1 0 0 0 0 -1 forward_v I I I I #
coedge $-1 $465 $320 $466 $467 forward $196 $-1 #
coedge $-1 $468 $198 $465 $469 forward $130 $-1 #
coedge $-1 $198 $468 $470 $471 forward $130 $-1 #
coedge $-1 $323 $322 $198 $316 reversed $324 $-1 #
edge $-1 $472 -215.44602801599169 $473 215.44602801599169 $315 $474 forward 7 unknown #
coedge $-1 $200 $199 $475 $476 forward $83 $-1 #
coedge $-1 $477 $478 $199 $319 reversed $462 $-1 #
edge $-1 $326 -6.4486033220018326 $479 6.4486033220018326 $318 $480 forward 7 unknown #
coedge $-1 $312 $481 $200 $321 reversed $196 $-1 #
edge $-1 $482 -6.4486033220018326 $325 6.4486033220018326 $320 $483 forward 7 unknown #
coedge $-1 $315 $201 $481 $484 forward $324 $-1 #
coedge $-1 $201 $315 $477 $485 reversed $324 $-1 #
loop $-1 $-1 $322 $461 #
vertex $-1 $202 $486 #
vertex $-1 $202 $487 #
straight-curve $-1 6.4486033220018326 0 107.72301400799586 0 1 0 I I #
loop $-1 $-1 $488 $133 #
coedge $-1 $329 $329 $206 $330 reversed $203 $-1 #
edge $-1 $489 0 $489 6.2831853071796004 $329 $490 forward 7 unknown #
vertex $-1 $207 $491 #
ellipse-curve $-1 0 0 -2.7798547318948934 0 0 -1 1 0 0 1 I I #
face $-1 $-1 $223 $33 $-1 $492 reversed single #
loop $-1 $-1 $349 $208 #
plane-surface $-1 0 29.986034213334477 0 0 -1 0 0 0 -1 forward_v I I I I #
coedge $-1 $493 $347 $350 $494 forward $209 $-1 #
coedge $-1 $353 $211 $212 $341 reversed $139 $-1 #
coedge $-1 $347 $493 $211 $339 reversed $209 $-1 #
edge $-1 $354 -11.834723662743171 $495 11.834723662743171 $338 $496 forward 7 unknown #
coedge $-1 $213 $212 $493 $497 forward $89 $-1 #
edge $-1 $345 -53.861507003997922 $495 53.861507003997922 $337 $498 forward 7 unknown #
coedge $-1 $350 $349 $213 $343 reversed $334 $-1 #
edge $-1 $499 -53.861507003997922 $344 53.861507003997922 $342 $500 forward 7 unknown #
vertex $-1 $215 $501 #
vertex $-1 $356 $502 #
straight-curve $-1 53.861507003997922 0 -11.834723662743171 0 -1 0 I I #
coedge $-1 $336 $338 $216 $348 reversed $209 $-1 #
edge $-1 $351 -29.986034213334477 $354 29.986034213334477 $347 $503 forward 7 unknown #
coedge $-1 $342 $217 $222 $357 forward $334 $-1 #
coedge $-1 $217 $342 $336 $494 reversed $334 $-1 #
vertex $-1 $218 $504 #
straight-curve $-1 0 29.986034213334477 11.834723662743171 -1 0 0 I I #
coedge $-1 $219 $337 $221 $356 reversed $139 $-1 #
vertex $-1 $348 $505 #
straight-curve $-1 0 -29.986034213334477 11.834723662743171 1 0 0 I I #
edge $-1 $224 -11.834723662743171 $345 11.834723662743171 $221 $506 forward 7 unknown #
edge $-1 $225 -11.834723662743171 $344 11.834723662743171 $222 $507 forward 7 unknown #
point $-1 53.861507003997922 -29.986034213334477 11.834723662743171 #
point $-1 53.861507003997922 29.986034213334477 11.834723662743171 #
face $-1 $-1 $242 $34 $-1 $508 reversed single #
loop $-1 $-1 $376 $227 #
plane-surface $-1 0 215.44602801599169 0 0 -1 0 0 0 -1 forward_v I I I I #
coedge $-1 $509 $374 $377 $510 forward $228 $-1 #
coedge $-1 $380 $230 $231 $368 reversed $147 $-1 #
coedge $-1 $374 $509 $230 $366 reversed $228 $-1 #
edge $-1 $381 -107.72301400799584 $511 107.72301400799584 $365 $512 forward 7 unknown #
coedge $-1 $232 $231 $509 $513 forward $93 $-1 #
edge $-1 $372 -9.8832668214022554 $511 9.8832668214022554 $364 $514 forward 7 unknown #
coedge $-1 $377 $376 $232 $370 reversed $361 $-1 #
edge $-1 $515 -9.8832668214022554 $371 9.8832668214022554 $369 $516 forward 7 unknown #
vertex $-1 $234 $517 #
vertex $-1 $383 $518 #
straight-curve $-1 9.8832668214022554 0 -107.72301400799584 0 -1 0 I I #
coedge $-1 $363 $365 $235 $375 reversed $228 $-1 #
edge $-1 $378 -215.44602801599169 $381 215.44602801599169 $374 $519 forward 7 unknown #
coedge $-1 $369 $236 $241 $384 forward $361 $-1 #
coedge $-1 $236 $369 $363 $510 reversed $361 $-1 #
vertex $-1 $237 $520 #
straight-curve $-1 0 215.44602801599169 107.72301400799584 -1 0 0 I I #
coedge $-1 $238 $364 $240 $383 reversed $147 $-1 #
vertex $-1 $375 $521 #
straight-curve $-1 0 -215.44602801599169 107.72301400799584 1 0 0 I I #
edge $-1 $243 -107.72301400799584 $372 107.72301400799584 $240 $522 forward 7 unknown #
edge $-1 $244 -107.72301400799584 $371 107.72301400799584 $241 $523 forward 7 unknown #
point $-1 9.8832668214022554 -215.44602801599169 107.72301400799584 #
point $-1 9.8832668214022554 215.44602801599169 107.72301400799584 #
coedge $-1 $387 $387 $-1 $524 reversed $246 $-1 #
vertex $-1 $248 $525 #
ellipse-curve $-1 0 0 -0.75 0 0 -1 1.5 0 0 1 I I #
point $-1 1.5 0 -5.0283898434400456 #
coedge $-1 $391 $391 $-1 $526 reversed $251 $-1 #
vertex $-1 $253 $527 #
ellipse-curve $-1 0 0 -0.75 0 0 -1 1.5 0 0 1 I I #
point $-1 1.5 0 -5.0283898434400456 #
face $-1 $-1 $271 $37 $-1 $528 reversed single #
loop $-1 $-1 $411 $256 #
plane-surface $-1 0 215.44602801599169 0 0 -1 0 0 0 -1 forward_v I I I I #
coedge $-1 $529 $409 $412 $530 forward $257 $-1 #
coedge $-1 $415 $259 $260 $403 reversed $165 $-1 #
coedge $-1 $409 $529 $259 $401 reversed $257 $-1 #
edge $-1 $416 -107.72301400799584 $531 107.72301400799584 $400 $532 forward 7 unknown #
coedge $-1 $261 $260 $529 $533 forward $107 $-1 #
edge $-1 $407 -9.8832668214022554 $531 9.8832668214022554 $399 $534 forward 7 unknown #
coedge $-1 $412 $411 $261 $405 reversed $396 $-1 #
edge $-1 $535 -9.8832668214022554 $406 9.8832668214022554 $404 $536 forward 7 unknown #
vertex $-1 $263 $537 #
vertex $-1 $418 $538 #
straight-curve $-1 9.8832668214022554 0 -107.72301400799584 0 -1 0 I I #
coedge $-1 $398 $400 $264 $410 reversed $257 $-1 #
edge $-1 $413 -215.44602801599169 $416 215.44602801599169 $409 $539 forward 7 unknown #
coedge $-1 $404 $265 $270 $419 forward $396 $-1 #
coedge $-1 $265 $404 $398 $530 reversed $396 $-1 #
vertex $-1 $266 $540 #
straight-curve $-1 0 215.44602801599169 107.72301400799584 -1 0 0 I I #
coedge $-1 $267 $399 $269 $418 reversed $165 $-1 #
vertex $-1 $410 $541 #
straight-curve $-1 0 -215.44602801599169 107.72301400799584 1 0 0 I I #
edge $-1 $272 -107.72301400799584 $407 107.72301400799584 $269 $542 forward 7 unknown #
edge $-1 $273 -107.72301400799584 $406 107.72301400799584 $270 $543 forward 7 unknown #
point $-1 9.8832668214022554 -215.44602801599169 107.72301400799584 #
point $-1 9.8832668214022554 215.44602801599169 107.72301400799584 #
coedge $-1 $422 $422 $-1 $544 reversed $275 $-1 #
vertex $-1 $277 $545 #
ellipse-curve $-1 0 0 -0.75 0 0 -1 1.5 0 0 1 I I #
point $-1 1.5 0 -5.0283898434400456 #
coedge $-1 $426 $426 $-1 $546 reversed $280 $-1 #
vertex $-1 $282 $547 #
ellipse-curve $-1 0 0 -0.75 0 0 -1 1.5 0 0 1 I I #
point $-1 1.5 0 -5.0283898434400456 #
face $-1 $-1 $300 $40 $-1 $548 reversed single #
loop $-1 $-1 $446 $285 #
plane-surface $-1 0 215.44602801599169 0 0 -1 0 0 0 -1 forward_v I I I I #
coedge $-1 $549 $444 $447 $550 forward $286 $-1 #
coedge $-1 $450 $288 $289 $438 reversed $183 $-1 #
coedge $-1 $444 $549 $288 $436 reversed $286 $-1 #
edge $-1 $451 -107.72301400799586 $551 107.72301400799586 $435 $552 forward 7 unknown #
coedge $-1 $290 $289 $549 $553 forward $121 $-1 #
edge $-1 $442 -6.4486033220018326 $551 6.4486033220018326 $434 $554 forward 7 unknown #
coedge $-1 $447 $446 $290 $440 reversed $431 $-1 #
edge $-1 $555 -6.4486033220018326 $441 6.4486033220018326 $439 $556 forward 7 unknown #
vertex $-1 $292 $557 #
vertex $-1 $453 $558 #
straight-curve $-1 6.4486033220018326 0 -107.72301400799586 0 -1 0 I I #
coedge $-1 $433 $435 $293 $445 reversed $286 $-1 #
edge $-1 $448 -215.44602801599169 $451 215.44602801599169 $444 $559 forward 7 unknown #
coedge $-1 $439 $294 $299 $454 forward $431 $-1 #
coedge $-1 $294 $439 $433 $550 reversed $431 $-1 #
vertex $-1 $295 $560 #
straight-curve $-1 0 215.44602801599169 107.72301400799586 -1 0 0 I I #
coedge $-1 $296 $434 $298 $453 reversed $183 $-1 #
vertex $-1 $445 $561 #
straight-curve $-1 0 -215.44602801599169 107.72301400799586 1 0 0 I I #
edge $-1 $301 -107.72301400799586 $442 107.72301400799586 $298 $562 forward 7 unknown #
edge $-1 $302 -107.72301400799586 $441 107.72301400799586 $299 $563 forward 7 unknown #
point $-1 6.4486033220018326 -215.44602801599169 107.72301400799586 #
point $-1 6.4486033220018326 215.44602801599169 107.72301400799586 #
coedge $-1 $457 $457 $-1 $564 reversed $304 $-1 #
vertex $-1 $306 $565 #
ellipse-curve $-1 0 0 -0.5 0 0 -1 1 0 0 1 I I #
point $-1 1 0 -2.7798547318948934 #
face $-1 $-1 $324 $42 $-1 $566 reversed single #
loop $-1 $-1 $477 $309 #
plane-surface $-1 0 215.44602801599169 0 0 -1 0 0 0 -1 forward_v I I I I #
coedge $-1 $567 $475 $478 $568 forward $310 $-1 #
coedge $-1 $481 $312 $313 $469 reversed $196 $-1 #
coedge $-1 $475 $567 $312 $467 reversed $310 $-1 #
edge $-1 $482 -107.72301400799586 $569 107.72301400799586 $466 $570 forward 7 unknown #
coedge $-1 $314 $313 $567 $571 forward $130 $-1 #
edge $-1 $473 -6.4486033220018326 $569 6.4486033220018326 $465 $572 forward 7 unknown #
coedge $-1 $478 $477 $314 $471 reversed $462 $-1 #
edge $-1 $573 -6.4486033220018326 $472 6.4486033220018326 $470 $574 forward 7 unknown #
vertex $-1 $316 $575 #
vertex $-1 $484 $576 #
straight-curve $-1 6.4486033220018326 0 -107.72301400799586 0 -1 0 I I #
coedge $-1 $464 $466 $317 $476 reversed $310 $-1 #
edge $-1 $479 -215.44602801599169 $482 215.44602801599169 $475 $577 forward 7 unknown #
coedge $-1 $470 $318 $323 $485 forward $462 $-1 #
coedge $-1 $318 $470 $464 $568 reversed $462 $-1 #
vertex $-1 $319 $578 #
straight-curve $-1 0 215.44602801599169 107.72301400799586 -1 0 0 I I #
coedge $-1 $320 $465 $322 $484 reversed $196 $-1 #
vertex $-1 $476 $579 #
straight-curve $-1 0 -215.44602801599169 107.72301400799586 1 0 0 I I #
edge $-1 $325 -107.72301400799586 $473 107.72301400799586 $322 $580 forward 7 unknown #
edge $-1 $326 -107.72301400799586 $472 107.72301400799586 $323 $581 forward 7 unknown #
point $-1 6.4486033220018326 -215.44602801599169 107.72301400799586 #
point $-1 6.4486033220018326 215.44602801599169 107.72301400799586 #
coedge $-1 $488 $488 $-1 $582 reversed $328 $-1 #
vertex $-1 $330 $583 #
ellipse-curve $-1 0 0 -0.5 0 0 -1 1 0 0 1 I I #
point $-1 1 0 -2.7798547318948934 #
plane-surface $-1 53.861507003997922 0 0 -1 0 0 0 0 1 forward_v I I I I #
coedge $-1 $338 $336 $340 $497 reversed $209 $-1 #
edge $-1 $351 -11.834723662743171 $499 11.834723662743171 $350 $584 forward 7 unknown #
vertex $-1 $497 $585 #
straight-curve $-1 -53.861507003997922 -29.986034213334477 0 0 0 -1 I I #
edge $-1 $495 -29.986034213334477 $499 29.986034213334477 $493 $586 forward 7 unknown #
straight-curve $-1 0 -29.986034213334477 -11.834723662743171 -1 0 0 I I #
vertex $-1 $343 $587 #
straight-curve $-1 0 29.986034213334477 -11.834723662743171 1 0 0 I I #
point $-1 53.861507003997922 29.986034213334477 -11.834723662743171 #
point $-1 53.861507003997922 -29.986034213334477 -11.834723662743171 #
straight-curve $-1 -53.861507003997922 0 11.834723662743171 0 -1 0 I I #
point $-1 -53.861507003997922 29.986034213334477 11.834723662743171 #
point $-1 -53.861507003997922 -29.986034213334477 11.834723662743171 #
straight-curve $-1 53.861507003997922 -29.986034213334477 0 0 0 -1 I I #
straight-curve $-1 53.861507003997922 29.986034213334477 0 0 0 -1 I I #
plane-surface $-1 9.8832668214022554 0 0 -1 0 0 0 0 1 forward_v I I I I #
coedge $-1 $365 $363 $367 $513 reversed $228 $-1 #
edge $-1 $378 -107.72301400799584 $515 107.72301400799584 $377 $588 forward 7 unknown #
vertex $-1 $513 $589 #
straight-curve $-1 -9.8832668214022554 -215.44602801599169 0 0 0 -1 I I #
edge $-1 $511 -215.44602801599169 $515 215.44602801599169 $509 $590 forward 7 unknown #
straight-curve $-1 0 -215.44602801599169 -107.72301400799584 -1 0 0 I I #
vertex $-1 $370 $591 #
straight-curve $-1 0 215.44602801599169 -107.72301400799584 1 0 0 I I #
point $-1 9.8832668214022554 215.44602801599169 -107.72301400799584 #
point $-1 9.8832668214022554 -215.44602801599169 -107.72301400799584 #
straight-curve $-1 -9.8832668214022554 0 107.72301400799584 0 -1 0 I I #
point $-1 -9.8832668214022554 215.44602801599169 107.72301400799584 #
point $-1 -9.8832668214022554 -215.44602801599169 107.72301400799584 #
straight-curve $-1 9.8832668214022554 -215.44602801599169 0 0 0 -1 I I #
straight-curve $-1 9.8832668214022554 215.44602801599169 0 0 0 -1 I I #
edge $-1 $592 1 $592 0 $387 $-1 forward 7 unknown #
point $-1 1.5 0 -0.75 #
edge $-1 $593 1 $593 0 $391 $-1 forward 7 unknown #
point $-1 1.5 0 -0.75 #
plane-surface $-1 9.8832668214022554 0 0 -1 0 0 0 0 1 forward_v I I I I #
coedge $-1 $400 $398 $402 $533 reversed $257 $-1 #
edge $-1 $413 -107.72301400799584 $535 107.72301400799584 $412 $594 forward 7 unknown #
vertex $-1 $533 $595 #
straight-curve $-1 -9.8832668214022554 -215.44602801599169 0 0 0 -1 I I #
edge $-1 $531 -215.44602801599169 $535 215.44602801599169 $529 $596 forward 7 unknown #
straight-curve $-1 0 -215.44602801599169 -107.72301400799584 -1 0 0 I I #
vertex $-1 $405 $597 #
straight-curve $-1 0 215.44602801599169 -107.72301400799584 1 0 0 I I #
point $-1 9.8832668214022554 215.44602801599169 -107.72301400799584 #
point $-1 9.8832668214022554 -215.44602801599169 -107.72301400799584 #
straight-curve $-1 -9.8832668214022554 0 107.72301400799584 0 -1 0 I I #
point $-1 -9.8832668214022554 215.44602801599169 107.72301400799584 #
point $-1 -9.8832668214022554 -215.44602801599169 107.72301400799584 #
straight-curve $-1 9.8832668214022554 -215.44602801599169 0 0 0 -1 I I #
straight-curve $-1 9.8832668214022554 215.44602801599169 0 0 0 -1 I I #
edge $-1 $598 1 $598 0 $422 $-1 forward 7 unknown #
point $-1 1.5 0 -0.75 #
edge $-1 $599 1 $599 0 $426 $-1 forward 7 unknown #
point $-1 1.5 0 -0.75 #
plane-surface $-1 6.4486033220018326 0 0 -1 0 0 0 0 1 forward_v I I I I #
coedge $-1 $435 $433 $437 $553 reversed $286 $-1 #
edge $-1 $448 -107.72301400799586 $555 107.72301400799586 $447 $600 forward 7 unknown #
vertex $-1 $553 $601 #
straight-curve $-1 -6.4486033220018326 -215.44602801599169 0 0 0 -1 I I #
edge $-1 $551 -215.44602801599169 $555 215.44602801599169 $549 $602 forward 7 unknown #
straight-curve $-1 0 -215.44602801599169 -107.72301400799586 -1 0 0 I I #
vertex $-1 $440 $603 #
straight-curve $-1 0 215.44602801599169 -107.72301400799586 1 0 0 I I #
point $-1 6.4486033220018326 215.44602801599169 -107.72301400799586 #
point $-1 6.4486033220018326 -215.44602801599169 -107.72301400799586 #
straight-curve $-1 -6.4486033220018326 0 107.72301400799586 0 -1 0 I I #
point $-1 -6.4486033220018326 215.44602801599169 107.72301400799586 #
point $-1 -6.4486033220018326 -215.44602801599169 107.72301400799586 #
straight-curve $-1 6.4486033220018326 -215.44602801599169 0 0 0 -1 I I #
straight-curve $-1 6.4486033220018326 215.44602801599169 0 0 0 -1 I I #
edge $-1 $604 1 $604 0 $457 $-1 forward 7 unknown #
point $-1 1 0 -0.5 #
plane-surface $-1 6.4486033220018326 0 0 -1 0 0 0 0 1 forward_v I I I I #
coedge $-1 $466 $464 $468 $571 reversed $310 $-1 #
edge $-1 $479 -107.72301400799586 $573 107.72301400799586 $478 $605 forward 7 unknown #
vertex $-1 $571 $606 #
straight-curve $-1 -6.4486033220018326 -215.44602801599169 0 0 0 -1 I I #
edge $-1 $569 -215.44602801599169 $573 215.44602801599169 $567 $607 forward 7 unknown #
straight-curve $-1 0 -215.44602801599169 -107.72301400799586 -1 0 0 I I #
vertex $-1 $471 $608 #
straight-curve $-1 0 215.44602801599169 -107.72301400799586 1 0 0 I I #
point $-1 6.4486033220018326 215.44602801599169 -107.72301400799586 #
point $-1 6.4486033220018326 -215.44602801599169 -107.72301400799586 #
straight-curve $-1 -6.4486033220018326 0 107.72301400799586 0 -1 0 I I #
point $-1 -6.4486033220018326 215.44602801599169 107.72301400799586 #
point $-1 -6.4486033220018326 -215.44602801599169 107.72301400799586 #
straight-curve $-1 6.4486033220018326 -215.44602801599169 0 0 0 -1 I I #
straight-curve $-1 6.4486033220018326 215.44602801599169 0 0 0 -1 I I #
edge $-1 $609 1 $609 0 $488 $-1 forward 7 unknown #
point $-1 1 0 -0.5 #
straight-curve $-1 -53.861507003997922 29.986034213334477 0 0 0 -1 I I #
point $-1 -53.861507003997922 -29.986034213334477 -11.834723662743171 #
straight-curve $-1 -53.861507003997922 0 -11.834723662743171 0 1 0 I I #
point $-1 -53.861507003997922 29.986034213334477 -11.834723662743171 #
straight-curve $-1 -9.8832668214022554 215.44602801599169 0 0 0 -1 I I #
point $-1 -9.8832668214022554 -215.44602801599169 -107.72301400799584 #
straight-curve $-1 -9.8832668214022554 0 -107.72301400799584 0 1 0 I I #
point $-1 -9.8832668214022554 215.44602801599169 -107.72301400799584 #
vertex $-1 $524 $610 #
vertex $-1 $526 $611 #
straight-curve $-1 -9.8832668214022554 215.44602801599169 0 0 0 -1 I I #
point $-1 -9.8832668214022554 -215.44602801599169 -107.72301400799584 #
straight-curve $-1 -9.8832668214022554 0 -107.72301400799584 0 1 0 I I #
point $-1 -9.8832668214022554 215.44602801599169 -107.72301400799584 #
vertex $-1 $544 $612 #
vertex $-1 $546 $613 #
straight-curve $-1 -6.4486033220018326 215.44602801599169 0 0 0 -1 I I #
point $-1 -6.4486033220018326 -215.44602801599169 -107.72301400799586 #
straight-curve $-1 -6.4486033220018326 0 -107.72301400799586 0 1 0 I I #
point $-1 -6.4486033220018326 215.44602801599169 -107.72301400799586 #
vertex $-1 $564 $614 #
straight-curve $-1 -6.4486033220018326 215.44602801599169 0 0 0 -1 I I #
point $-1 -6.4486033220018326 -215.44602801599169 -107.72301400799586 #
straight-curve $-1 -6.4486033220018326 0 -107.72301400799586 0 1 0 I I #
point $-1 -6.4486033220018326 215.44602801599169 -107.72301400799586 #
vertex $-1 $582 $615 #
point $-1 0 0 0.75 #
point $-1 0 0 0.75 #
point $-1 0 0 0.75 #
point $-1 0 0 0.75 #
point $-1 0 0 0.5 #
point $-1 0 0 0.5 #
End-of-ACIS-data 