500 0 7 0           
7 Unknown 11 ACIS 5.0 NT 24 Fri Mar 26 19:10:35 1999 
-1 9.9999999999999995e-007 1e-010 
body $-1 $7 $-1 $8 #
body $-1 $9 $-1 $10 #
body $-1 $11 $-1 $12 #
body $-1 $13 $-1 $14 #
body $-1 $15 $-1 $16 #
body $-1 $17 $-1 $18 #
body $-1 $19 $-1 $20 #
lump $-1 $-1 $21 $0 #
transform $-1 1 0 0 0 1 0 0 0 1 59.440290536210213 29.295481062821537 6.6299499304012999 1 rotate no_reflect no_shear #
lump $-1 $-1 $22 $1 #
transform $-1 1 0 0 0 1 0 0 0 1 59.440290536210213 29.295481062821537 6.6299499304012999 1 rotate no_reflect no_shear #
lump $-1 $-1 $23 $2 #
transform $-1 1 0 0 0 1 0 0 0 1 59.440290536210213 29.295481062821537 6.6299499304012999 1 rotate no_reflect no_shear #
lump $-1 $-1 $24 $3 #
transform $-1 1 0 0 0 1 0 0 0 1 59.440290536210213 29.295481062821537 6.6299499304012999 1 rotate no_reflect no_shear #
lump $-1 $-1 $25 $4 #
transform $-1 1 0 0 0 1 0 0 0 1 59.440290536210213 29.295481062821537 6.6299499304012999 1 rotate no_reflect no_shear #
lump $-1 $-1 $26 $5 #
transform $-1 1 0 0 0 1 0 0 0 1 59.440290536210213 29.295481062821537 6.6299499304012999 1 rotate no_reflect no_shear #
lump $-1 $-1 $27 $6 #
transform $-1 1 0 0 0 1 0 0 0 1 59.440290536210213 29.295481062821537 6.6299499304012999 1 rotate no_reflect no_shear #
shell $-1 $-1 $-1 $28 $-1 $7 #
shell $-1 $-1 $-1 $29 $-1 $9 #
shell $-1 $-1 $-1 $30 $-1 $11 #
shell $-1 $-1 $-1 $31 $-1 $13 #
shell $-1 $-1 $-1 $32 $-1 $15 #
shell $-1 $-1 $-1 $33 $-1 $17 #
shell $-1 $-1 $-1 $34 $-1 $19 #
face $-1 $35 $36 $21 $-1 $37 forward single #
face $-1 $38 $39 $22 $-1 $40 reversed single #
face $-1 $41 $42 $23 $-1 $43 reversed single #
face $-1 $44 $45 $24 $-1 $46 forward single #
face $-1 $47 $48 $25 $-1 $49 forward single #
face $-1 $50 $51 $26 $-1 $52 reversed single #
face $-1 $53 $54 $27 $-1 $55 forward single #
face $-1 $56 $57 $21 $-1 $58 reversed single #
loop $-1 $-1 $59 $28 #
plane-surface $-1 0 0 6.6299499304012999 0 0 1 1 0 0 forward_v I I I I #
face $-1 $60 $61 $22 $-1 $62 reversed single #
loop $-1 $-1 $63 $29 #
plane-surface $-1 -56.590239621153842 -25.619802347468841 0 0 1 0 0 0 1 forward_v I I I I #
face $-1 $64 $65 $23 $-1 $66 reversed single #
loop $-1 $-1 $67 $30 #
plane-surface $-1 37.095375277980501 54.046779033996742 131.34964355580544 1 0 0 0 -0.6018150307709319 -0.79863550430605224 forward_v I I I I #
face $-1 $68 $69 $24 $-1 $70 forward single #
loop $-1 $71 $72 $31 #
cone-surface $-1 43.479636780331859 24.383921435718296 2.1986860584307406 0 -0.6018150307709319 -0.79863550430605224 2 0 0 1 I I 0 1 2 forward I I I I #
face $-1 $73 $74 $25 $-1 $75 forward single #
loop $-1 $76 $77 $32 #
cone-surface $-1 53.056029033858877 24.383921435718296 2.1986860584307406 0 -0.6018150307709319 -0.79863550430605224 2 0 0 1 I I 0 1 2 forward I I I I #
face $-1 $78 $79 $26 $-1 $80 reversed single #
loop $-1 $-1 $81 $33 #
plane-surface $-1 -30.035739873546888 -124.23773553997924 74.744239317389855 -1 0 0 0 -0.79863551827123203 0.60181501223851219 forward_v I I I I #
face $-1 $82 $83 $27 $-1 $84 forward single #
loop $-1 $85 $86 $34 #
cone-surface $-1 -41.887964289822179 -27.221418871070441 4.3259208679288461 0 0.79863551827123203 -0.60181501223851219 0.5 0 0 1 I I 0 1 0.5 forward I I I I #
face $-1 $87 $88 $21 $-1 $89 reversed single #
loop $-1 $-1 $90 $35 #
plane-surface $-1 0 0 -6.6299499304012999 0 0 1 1 0 0 forward_v I I I I #
coedge $-1 $91 $92 $93 $94 forward $36 $-1 #
face $-1 $95 $96 $22 $-1 $97 reversed single #
loop $-1 $-1 $98 $38 #
plane-surface $-1 -56.590239621153842 -22.619802347468841 0 0 -1 0 0 0 -1 forward_v I I I I #
coedge $-1 $99 $100 $101 $102 reversed $39 $-1 #
face $-1 $103 $104 $23 $-1 $105 forward single #
loop $-1 $-1 $106 $41 #
plane-surface $-1 48.267832907095354 -17.497341522168227 36.407390738836426 0 0.6018150307709319 0.79863550430605224 1 0 0 forward_v I I I I #
coedge $-1 $107 $108 $109 $110 reversed $42 $-1 #
face $-1 $-1 $111 $24 $-1 $112 forward single #
loop $-1 $113 $114 $44 #
cone-surface $-1 43.479636780331859 22.508959149537645 -0.28947288479224742 0 -0.6018150307709319 -0.79863550430605224 1 0 0 1 I I -0.70710678118654746 0.70710678118654746 1 forward I I I I #
loop $-1 $-1 $115 $31 #
coedge $-1 $72 $72 $116 $117 reversed $45 $-1 #
face $-1 $-1 $118 $25 $-1 $119 forward single #
loop $-1 $120 $121 $47 #
cone-surface $-1 53.056029033858877 22.508959149537645 -0.28947288479224742 0 -0.6018150307709319 -0.79863550430605224 1 0 0 1 I I -0.70710678118654746 0.70710678118654746 1 forward I I I I #
loop $-1 $-1 $122 $32 #
coedge $-1 $77 $77 $123 $124 reversed $48 $-1 #
face $-1 $125 $126 $26 $-1 $127 reversed single #
loop $-1 $-1 $128 $50 #
plane-surface $-1 -41.887964289822179 -29.295481062821537 3.2001209643697166 0 -0.79863551827123203 0.60181501223851219 1 0 0 forward_v I I I I #
coedge $-1 $129 $130 $131 $132 reversed $51 $-1 #
face $-1 $-1 $133 $27 $-1 $134 forward single #
loop $-1 $135 $136 $53 #
cone-surface $-1 -41.887964289822179 -26.239978517266088 3.5863525354125576 0 0.79863551827123203 -0.60181501223851219 0.25 0 0 1 I I -0.70710678118654746 0.70710678118654746 0.25 forward I I I I #
loop $-1 $-1 $137 $34 #
coedge $-1 $86 $86 $138 $139 reversed $54 $-1 #
face $-1 $140 $141 $21 $-1 $142 reversed single #
loop $-1 $-1 $143 $56 #
plane-surface $-1 0 -29.295481062821537 0 0 1 0 0 0 1 forward_v I I I I #
coedge $-1 $144 $145 $146 $147 forward $57 $-1 #
coedge $-1 $148 $59 $149 $150 forward $36 $-1 #
coedge $-1 $59 $148 $151 $152 forward $36 $-1 #
coedge $-1 $153 $154 $59 $94 reversed $155 $-1 #
edge $-1 $156 -29.295481062821537 $157 29.295481062821537 $93 $158 forward 7 unknown #
face $-1 $159 $160 $22 $-1 $161 reversed single #
loop $-1 $-1 $162 $60 #
plane-surface $-1 -53.74018870609747 -24.119802347468841 0 -1 0 0 0 0 1 forward_v I I I I #
coedge $-1 $163 $164 $165 $166 forward $61 $-1 #
coedge $-1 $167 $63 $168 $169 reversed $39 $-1 #
coedge $-1 $63 $167 $170 $171 reversed $39 $-1 #
coedge $-1 $172 $173 $63 $102 forward $174 $-1 #
edge $-1 $175 -6.6299499304012999 $176 6.6299499304012999 $101 $177 forward 7 unknown #
face $-1 $178 $179 $23 $-1 $180 reversed single #
loop $-1 $-1 $109 $64 #
plane-surface $-1 0 0 6.6299499304012999 0 0 1 1 0 0 forward_v I I I I #
coedge $-1 $181 $182 $183 $184 reversed $65 $-1 #
coedge $-1 $108 $67 $185 $186 reversed $42 $-1 #
coedge $-1 $67 $107 $181 $187 reversed $42 $-1 #
coedge $-1 $183 $188 $67 $110 forward $104 $-1 #
edge $-1 $189 -2.2720915458231659 $190 5.0047331975639011 $109 $191 forward 7 unknown #
loop $-1 $-1 $116 $68 #
plane-surface $-1 48.267832907095354 -17.497341522168227 36.407390738836426 0 0.6018150307709319 0.79863550430605224 1 0 0 forward_v I I I I #
loop $-1 $-1 $192 $44 #
coedge $-1 $114 $114 $115 $193 reversed $69 $-1 #
coedge $-1 $115 $115 $114 $193 forward $71 $-1 #
coedge $-1 $116 $116 $72 $117 forward $111 $-1 #
edge $-1 $194 2.9835744635978276e-016 $194 6.2831853071796004 $116 $195 forward 7 unknown #
loop $-1 $-1 $123 $73 #
plane-surface $-1 48.267832907095354 -17.497341522168227 36.407390738836426 0 0.6018150307709319 0.79863550430605224 1 0 0 forward_v I I I I #
loop $-1 $-1 $196 $47 #
coedge $-1 $121 $121 $122 $197 reversed $74 $-1 #
coedge $-1 $122 $122 $121 $197 forward $76 $-1 #
coedge $-1 $123 $123 $77 $124 forward $118 $-1 #
edge $-1 $198 2.9835744635978276e-016 $198 6.2831853071796004 $123 $199 forward 7 unknown #
face $-1 $200 $201 $26 $-1 $202 reversed single #
loop $-1 $-1 $203 $78 #
plane-surface $-1 -53.74018870609747 -124.23773553997924 74.744239317389855 1 0 0 0 0.79863551827123203 -0.60181501223851219 forward_v I I I I #
coedge $-1 $204 $205 $206 $207 reversed $79 $-1 #
coedge $-1 $130 $81 $208 $209 reversed $51 $-1 #
coedge $-1 $81 $129 $204 $210 reversed $51 $-1 #
coedge $-1 $206 $211 $81 $132 forward $212 $-1 #
edge $-1 $213 32.823386707168083 $214 35.407948142197178 $131 $215 forward 7 unknown #
loop $-1 $-1 $138 $82 #
plane-surface $-1 -41.887964289822179 -29.295481062821537 3.2001209643697166 0 -0.79863551827123203 0.60181501223851219 1 0 0 forward_v I I I I #
loop $-1 $-1 $216 $53 #
coedge $-1 $136 $136 $137 $217 reversed $83 $-1 #
coedge $-1 $137 $137 $136 $217 forward $85 $-1 #
coedge $-1 $138 $138 $86 $139 forward $133 $-1 #
edge $-1 $218 -2.837323330138133e-015 $218 6.2831853071795978 $138 $219 forward 7 unknown #
face $-1 $220 $221 $21 $-1 $222 reversed single #
loop $-1 $-1 $223 $87 #
plane-surface $-1 -59.440290536210213 0 0 1 0 0 0 0 -1 forward_v I I I I #
coedge $-1 $224 $151 $225 $226 forward $88 $-1 #
coedge $-1 $227 $90 $224 $228 forward $57 $-1 #
coedge $-1 $90 $227 $229 $230 forward $57 $-1 #
coedge $-1 $154 $153 $90 $147 reversed $155 $-1 #
edge $-1 $231 -29.295481062821537 $232 29.295481062821537 $146 $233 forward 7 unknown #
coedge $-1 $92 $91 $234 $235 forward $36 $-1 #
coedge $-1 $236 $237 $91 $150 reversed $221 $-1 #
edge $-1 $157 -59.440290536210213 $238 59.440290536210213 $149 $239 forward 7 unknown #
coedge $-1 $143 $240 $92 $152 reversed $88 $-1 #
edge $-1 $241 -59.440290536210213 $156 59.440290536210213 $151 $242 forward 7 unknown #
coedge $-1 $146 $93 $240 $243 forward $155 $-1 #
coedge $-1 $93 $146 $236 $244 reversed $155 $-1 #
loop $-1 $-1 $153 $220 #
vertex $-1 $94 $245 #
vertex $-1 $94 $246 #
straight-curve $-1 59.440290536210213 0 6.6299499304012999 0 1 0 I I #
face $-1 $247 $248 $22 $-1 $249 forward single #
loop $-1 $-1 $250 $95 #
plane-surface $-1 0 0 -6.6299499304012999 0 0 1 1 0 0 forward_v I I I I #
coedge $-1 $251 $252 $167 $253 forward $96 $-1 #
coedge $-1 $254 $98 $250 $255 reversed $61 $-1 #
coedge $-1 $98 $254 $256 $257 reversed $61 $-1 #
coedge $-1 $252 $251 $98 $166 reversed $96 $-1 #
edge $-1 $258 -6.6299499304012999 $259 6.6299499304012999 $165 $260 forward 7 unknown #
coedge $-1 $100 $99 $162 $253 reversed $39 $-1 #
coedge $-1 $261 $262 $99 $169 forward $160 $-1 #
edge $-1 $263 25.445068895520549 $175 31.145170725633292 $168 $264 forward 7 unknown #
coedge $-1 $265 $266 $100 $171 forward $248 $-1 #
edge $-1 $176 -31.145170725633292 $267 -25.445068895520549 $170 $268 forward 7 unknown #
coedge $-1 $269 $101 $266 $270 reversed $174 $-1 #
coedge $-1 $101 $269 $261 $271 reversed $174 $-1 #
loop $-1 $-1 $269 $247 #
vertex $-1 $271 $272 #
vertex $-1 $102 $273 #
straight-curve $-1 -59.440290536210213 -25.619802347468841 0 0 0 1 I I #
face $-1 $-1 $274 $23 $-1 $275 reversed single #
loop $-1 $-1 $276 $103 #
plane-surface $-1 59.440290536210213 0 0 -1 0 0 0 0 1 forward_v I I I I #
coedge $-1 $277 $106 $108 $187 forward $65 $-1 #
coedge $-1 $106 $277 $276 $278 reversed $65 $-1 #
coedge $-1 $279 $109 $106 $184 forward $104 $-1 #
edge $-1 $190 12.961458824432825 $280 35.306374082662529 $183 $281 forward 7 unknown #
coedge $-1 $282 $283 $107 $186 forward $274 $-1 #
edge $-1 $284 -64.528352713608683 $189 -59.044871847501419 $185 $285 forward 7 unknown #
edge $-1 $190 49.479390320793229 $284 58.590962125643088 $108 $286 forward 7 unknown #
coedge $-1 $109 $279 $282 $287 forward $104 $-1 #
vertex $-1 $186 $288 #
vertex $-1 $110 $289 #
straight-curve $-1 37.095375277980501 27.023389516998371 6.6299499304013025 0 -1 0 I I #
coedge $-1 $192 $192 $-1 $290 reversed $113 $-1 #
edge $-1 $291 0 $291 6.2831853071796004 $114 $292 forward 7 unknown #
vertex $-1 $117 $293 #
ellipse-curve $-1 43.479636780331859 25.657068691128007 3.8882094973476682 0 0.6018150307709319 0.79863550430605224 2 0 0 1 I I #
coedge $-1 $196 $196 $-1 $294 reversed $120 $-1 #
edge $-1 $295 0 $295 6.2831853071796004 $121 $296 forward 7 unknown #
vertex $-1 $124 $297 #
ellipse-curve $-1 53.056029033858877 25.657068691128007 3.8882094973476682 0 0.6018150307709319 0.79863550430605224 2 0 0 1 I I #
face $-1 $-1 $212 $26 $-1 $298 forward single #
loop $-1 $-1 $299 $125 #
plane-surface $-1 0 -29.295481062821537 0 0 1 0 0 0 1 forward_v I I I I #
coedge $-1 $300 $301 $302 $303 reversed $126 $-1 #
coedge $-1 $304 $128 $130 $210 forward $79 $-1 #
coedge $-1 $128 $304 $300 $305 forward $79 $-1 #
coedge $-1 $302 $131 $128 $207 forward $212 $-1 #
edge $-1 $214 9.0917577286357982 $306 32.796206561186381 $206 $307 forward 7 unknown #
coedge $-1 $308 $309 $129 $209 forward $201 $-1 #
edge $-1 $310 -34.171998694325211 $213 -30.742169728293629 $208 $311 forward 7 unknown #
edge $-1 $214 -4.2946111055215397 $310 0 $130 $312 forward 7 unknown #
coedge $-1 $131 $302 $308 $313 forward $212 $-1 #
loop $-1 $-1 $302 $200 #
vertex $-1 $209 $314 #
vertex $-1 $132 $315 #
straight-curve $-1 -30.035739873546888 -62.11886776998962 6.6299499304013025 0 1 0 I I #
coedge $-1 $216 $216 $-1 $316 reversed $135 $-1 #
edge $-1 $317 0 $317 6.2831853071796004 $136 $318 forward 7 unknown #
vertex $-1 $139 $319 #
ellipse-curve $-1 -41.887964289822179 -28.00320034530699 4.9150354473855087 0 -0.79863551827123203 0.60181501223851219 0.5 0 0 1 I I #
face $-1 $-1 $155 $21 $-1 $320 reversed single #
loop $-1 $-1 $236 $140 #
plane-surface $-1 0 29.295481062821537 0 0 -1 0 0 0 -1 forward_v I I I I #
coedge $-1 $321 $234 $237 $322 forward $141 $-1 #
coedge $-1 $240 $143 $144 $228 reversed $88 $-1 #
coedge $-1 $234 $321 $143 $226 reversed $141 $-1 #
edge $-1 $241 -6.6299499304012999 $323 6.6299499304012999 $225 $324 forward 7 unknown #
coedge $-1 $145 $144 $321 $325 forward $57 $-1 #
edge $-1 $232 -59.440290536210213 $323 59.440290536210213 $224 $326 forward 7 unknown #
coedge $-1 $237 $236 $145 $230 reversed $221 $-1 #
edge $-1 $327 -59.440290536210213 $231 59.440290536210213 $229 $328 forward 7 unknown #
vertex $-1 $147 $329 #
vertex $-1 $243 $330 #
straight-curve $-1 59.440290536210213 0 -6.6299499304012999 0 -1 0 I I #
coedge $-1 $223 $225 $148 $235 reversed $141 $-1 #
edge $-1 $238 -29.295481062821537 $241 29.295481062821537 $234 $331 forward 7 unknown #
coedge $-1 $229 $149 $154 $244 forward $221 $-1 #
coedge $-1 $149 $229 $223 $322 reversed $221 $-1 #
vertex $-1 $150 $332 #
straight-curve $-1 0 29.295481062821537 6.6299499304012999 -1 0 0 I I #
coedge $-1 $151 $224 $153 $243 reversed $88 $-1 #
vertex $-1 $235 $333 #
straight-curve $-1 0 -29.295481062821537 6.6299499304012999 1 0 0 I I #
edge $-1 $156 -6.6299499304012999 $232 6.6299499304012999 $153 $334 forward 7 unknown #
edge $-1 $157 -6.6299499304012999 $231 6.6299499304012999 $154 $335 forward 7 unknown #
point $-1 59.440290536210213 -29.295481062821537 6.6299499304012999 #
point $-1 59.440290536210213 29.295481062821537 6.6299499304012999 #
face $-1 $-1 $174 $22 $-1 $336 reversed single #
loop $-1 $-1 $256 $159 #
plane-surface $-1 0 0 6.6299499304012999 0 0 1 1 0 0 forward_v I I I I #
coedge $-1 $262 $261 $163 $255 forward $160 $-1 #
coedge $-1 $165 $162 $262 $337 reversed $96 $-1 #
coedge $-1 $162 $165 $265 $338 reversed $96 $-1 #
edge $-1 $267 -6.6299499304012999 $263 6.6299499304012999 $162 $339 forward 7 unknown #
coedge $-1 $164 $163 $269 $340 reversed $61 $-1 #
edge $-1 $341 -31.145170725633292 $259 -25.445068895520549 $250 $342 forward 7 unknown #
coedge $-1 $266 $265 $164 $257 forward $248 $-1 #
edge $-1 $258 25.445068895520549 $343 31.145170725633292 $256 $344 forward 7 unknown #
vertex $-1 $257 $345 #
vertex $-1 $255 $346 #
straight-curve $-1 -53.74018870609747 -22.619802347468841 0 0 0 -1 I I #
coedge $-1 $250 $168 $173 $271 forward $160 $-1 #
coedge $-1 $168 $250 $251 $337 forward $160 $-1 #
vertex $-1 $169 $347 #
straight-curve $-1 -28.295119810576921 -25.619802347468841 -6.6299499304012999 -1 0 0 I I #
coedge $-1 $256 $170 $252 $338 forward $248 $-1 #
coedge $-1 $170 $256 $172 $270 forward $248 $-1 #
vertex $-1 $171 $348 #
straight-curve $-1 -28.295119810576921 -25.619802347468841 6.6299499304012999 1 0 0 I I #
coedge $-1 $173 $172 $254 $340 forward $174 $-1 #
edge $-1 $343 22.619802347468841 $176 25.619802347468841 $172 $349 forward 7 unknown #
edge $-1 $175 -25.619802347468841 $341 -22.619802347468841 $173 $350 forward 7 unknown #
point $-1 -59.440290536210213 -25.619802347468841 -6.6299499304012999 #
point $-1 -59.440290536210213 -25.619802347468841 6.6299499304012999 #
loop $-1 $-1 $185 $178 #
plane-surface $-1 0 29.295481062821537 0 0 -1 0 0 0 -1 forward_v I I I I #
coedge $-1 $351 $352 $182 $278 forward $179 $-1 #
coedge $-1 $182 $181 $283 $353 reversed $65 $-1 #
edge $-1 $280 31.537133746616114 $354 40.648705551465966 $276 $355 forward 7 unknown #
coedge $-1 $188 $183 $352 $356 forward $104 $-1 #
vertex $-1 $356 $357 #
straight-curve $-1 24.133916453547677 22.018656319434481 6.629949930401299 1 0 0 I I #
coedge $-1 $358 $185 $188 $287 reversed $274 $-1 #
coedge $-1 $185 $358 $277 $353 forward $274 $-1 #
vertex $-1 $186 $359 #
straight-curve $-1 37.095375277980501 29.295481062821537 65.674821777902721 0 0 1 I I #
straight-curve $-1 37.095375277980501 -17.497341522168227 36.407390738836426 0 0.79863550430605224 -0.6018150307709319 I I #
edge $-1 $360 -59.440290536210213 $189 -37.095375277980501 $282 $361 forward 7 unknown #
point $-1 37.095375277980501 29.295481062821537 6.6299499304012999 #
point $-1 37.095375277980501 22.01865631943447 6.629949930401299 #
edge $-1 $362 1 $362 0 $192 $-1 forward 7 unknown #
vertex $-1 $193 $363 #
ellipse-curve $-1 43.479636780331859 23.110774180308578 0.50916261951380481 0 0.6018150307709319 0.79863550430605224 2 0 0 1 I I #
point $-1 45.479636780331859 25.657068691128014 3.8882094973476766 #
edge $-1 $364 1 $364 0 $196 $-1 forward 7 unknown #
vertex $-1 $197 $365 #
ellipse-curve $-1 53.056029033858877 23.110774180308578 0.50916261951380481 0 0.6018150307709319 0.79863550430605224 2 0 0 1 I I #
point $-1 55.056029033858877 25.657068691128014 3.8882094973476766 #
plane-surface $-1 0 0 6.6299499304012999 0 0 1 1 0 0 forward_v I I I I #
coedge $-1 $309 $308 $301 $366 forward $201 $-1 #
coedge $-1 $301 $203 $205 $305 reversed $126 $-1 #
coedge $-1 $203 $300 $299 $366 reversed $126 $-1 #
coedge $-1 $211 $206 $203 $303 forward $212 $-1 #
edge $-1 $306 -35.407948142197178 $367 -32.823386707168083 $302 $368 forward 7 unknown #
coedge $-1 $205 $204 $309 $369 reversed $79 $-1 #
edge $-1 $370 0 $306 4.2946111055215397 $300 $371 forward 7 unknown #
vertex $-1 $207 $372 #
straight-curve $-1 -20.943982144911089 -26.710919627792439 6.6299499304013008 -1 0 0 I I #
coedge $-1 $299 $208 $211 $313 reversed $201 $-1 #
coedge $-1 $208 $299 $304 $369 forward $201 $-1 #
vertex $-1 $209 $373 #
straight-curve $-1 -30.035739873546888 -29.295481062821537 37.372119658694928 0 0 1 I I #
straight-curve $-1 -30.035739873546888 -29.295481062821537 3.2001209643697166 0 -0.60181501223851219 -0.79863551827123203 I I #
edge $-1 $367 -53.74018870609747 $213 -30.035739873546888 $308 $374 forward 7 unknown #
point $-1 -30.035739873546888 -29.295481062821537 6.6299499304012999 #
point $-1 -30.035739873546888 -26.710919627792443 6.6299499304013008 #
edge $-1 $375 1 $375 0 $216 $-1 forward 7 unknown #
vertex $-1 $217 $376 #
ellipse-curve $-1 -41.887964289822179 -26.439637396833895 3.7368062884721858 0 -0.79863551827123203 0.60181501223851219 0.5 0 0 1 I I #
point $-1 -41.387964289822179 -28.00320034530699 4.9150354473855069 #
plane-surface $-1 59.440290536210213 0 0 -1 0 0 0 0 1 forward_v I I I I #
coedge $-1 $225 $223 $227 $325 reversed $141 $-1 #
edge $-1 $238 -6.6299499304012999 $327 6.6299499304012999 $237 $377 forward 7 unknown #
vertex $-1 $325 $378 #
straight-curve $-1 -59.440290536210213 -29.295481062821537 0 0 0 -1 I I #
edge $-1 $323 -29.295481062821537 $327 29.295481062821537 $321 $379 forward 7 unknown #
straight-curve $-1 0 -29.295481062821537 -6.6299499304012999 -1 0 0 I I #
vertex $-1 $230 $380 #
straight-curve $-1 0 29.295481062821537 -6.6299499304012999 1 0 0 I I #
point $-1 59.440290536210213 29.295481062821537 -6.6299499304012999 #
point $-1 59.440290536210213 -29.295481062821537 -6.6299499304012999 #
straight-curve $-1 -59.440290536210213 0 6.6299499304012999 0 -1 0 I I #
point $-1 -59.440290536210213 29.295481062821537 6.6299499304012999 #
point $-1 -59.440290536210213 -29.295481062821537 6.6299499304012999 #
straight-curve $-1 59.440290536210213 -29.295481062821537 0 0 0 -1 I I #
straight-curve $-1 59.440290536210213 29.295481062821537 0 0 0 -1 I I #
plane-surface $-1 -59.440290536210213 0 0 1 0 0 0 0 -1 forward_v I I I I #
edge $-1 $259 10.559901173734421 $263 13.559901173734421 $262 $381 forward 7 unknown #
edge $-1 $267 -13.559901173734421 $258 -10.559901173734421 $265 $382 forward 7 unknown #
straight-curve $-1 -53.74018870609747 -25.619802347468841 0 0 0 -1 I I #
edge $-1 $343 -6.6299499304012999 $341 6.6299499304012999 $269 $383 forward 7 unknown #
vertex $-1 $340 $384 #
straight-curve $-1 -28.295119810576921 -22.619802347468841 -6.6299499304012999 1 0 0 I I #
vertex $-1 $270 $385 #
straight-curve $-1 -28.295119810576921 -22.619802347468841 6.6299499304012999 -1 0 0 I I #
point $-1 -53.74018870609747 -22.619802347468841 6.6299499304012999 #
point $-1 -53.74018870609747 -22.619802347468841 -6.6299499304012999 #
point $-1 -53.74018870609747 -25.619802347468841 -6.6299499304012999 #
point $-1 -53.74018870609747 -25.619802347468841 6.6299499304012999 #
straight-curve $-1 -59.440290536210213 0 6.6299499304012999 0 -1 0 I I #
straight-curve $-1 -59.440290536210213 0 -6.6299499304012999 0 1 0 I I #
coedge $-1 $352 $276 $358 $386 reversed $179 $-1 #
coedge $-1 $276 $351 $279 $356 reversed $179 $-1 #
edge $-1 $354 -35.306374082662529 $284 -12.961458824432825 $283 $387 forward 7 unknown #
vertex $-1 $278 $388 #
straight-curve $-1 59.440290536210213 -3.1680183946617042 25.609471046548073 0 0.79863550430605224 -0.6018150307709319 I I #
edge $-1 $280 22.01865631943447 $360 29.295481062821537 $352 $389 forward 7 unknown #
point $-1 59.440290536210206 22.01865631943447 6.629949930401299 #
coedge $-1 $283 $282 $351 $386 forward $274 $-1 #
point $-1 37.095375277980501 29.295481062821537 1.1464690642940312 #
vertex $-1 $356 $390 #
straight-curve $-1 0 29.295481062821537 6.6299499304012999 -1 0 0 I I #
vertex $-1 $290 $391 #
point $-1 45.479636780331859 23.110774180308578 0.50916261951380481 #
vertex $-1 $294 $392 #
point $-1 55.056029033858877 23.110774180308578 0.50916261951380481 #
edge $-1 $367 30.742169728293629 $370 34.171998694325211 $299 $393 forward 7 unknown #
vertex $-1 $313 $394 #
straight-curve $-1 -53.74018870609747 -62.11886776998962 6.6299499304013025 0 -1 0 I I #
edge $-1 $370 -32.796206561186381 $310 -9.0917577286357982 $309 $395 forward 7 unknown #
vertex $-1 $369 $396 #
straight-curve $-1 -53.74018870609747 -29.295481062821537 3.2001209643697166 0 0.60181501223851219 0.79863551827123203 I I #
point $-1 -53.74018870609747 -26.710919627792443 6.6299499304013008 #
point $-1 -30.035739873546888 -29.295481062821537 3.2001209643697166 #
straight-curve $-1 0 -29.295481062821537 6.6299499304012999 1 0 0 I I #
vertex $-1 $316 $397 #
point $-1 -41.387964289822179 -26.439637396833895 3.7368062884721858 #
straight-curve $-1 -59.440290536210213 29.295481062821537 0 0 0 -1 I I #
point $-1 -59.440290536210213 -29.295481062821537 -6.6299499304012999 #
straight-curve $-1 -59.440290536210213 0 -6.6299499304012999 0 1 0 I I #
point $-1 -59.440290536210213 29.295481062821537 -6.6299499304012999 #
straight-curve $-1 -53.74018870609747 -12.059901173734421 -6.6299499304012999 0 -1 0 I I #
straight-curve $-1 -53.74018870609747 -12.059901173734421 6.6299499304012999 0 1 0 I I #
straight-curve $-1 -59.440290536210213 -22.619802347468841 0 0 0 -1 I I #
point $-1 -59.440290536210213 -22.619802347468841 -6.6299499304012999 #
point $-1 -59.440290536210213 -22.619802347468841 6.6299499304012999 #
edge $-1 $360 -6.6299499304012999 $354 -1.1464690642940312 $351 $398 forward 7 unknown #
straight-curve $-1 24.133916453547677 29.295481062821533 1.1464690642940347 -1 0 0 I I #
point $-1 59.440290536210206 29.295481062821537 1.1464690642940312 #
straight-curve $-1 59.440290536210213 0 6.6299499304012999 0 1 0 I I #
point $-1 59.440290536210213 29.295481062821537 6.6299499304012999 #
point $-1 43.479636780331859 21.907144118766713 -1.0881083890982997 #
point $-1 53.056029033858877 21.907144118766713 -1.0881083890982997 #
straight-curve $-1 -53.74018870609747 -29.295481062821537 37.372119658694928 0 0 -1 I I #
point $-1 -53.74018870609747 -29.295481062821537 6.6299499304012999 #
straight-curve $-1 -20.943982144911089 -29.295481062821537 3.2001209643697157 1 0 0 I I #
point $-1 -53.74018870609747 -29.295481062821537 3.2001209643697166 #
point $-1 -41.887964289822179 -26.040319637698282 3.4358987823529294 #
straight-curve $-1 59.440290536210213 29.295481062821537 0 0 0 -1 I I #
End-of-ACIS-data 