500 0 9 0           
7 Unknown 11 ACIS 5.0 NT 24 Fri Mar 26 14:54:38 1999 
-1 9.9999999999999995e-007 1e-010 
body $-1 $9 $-1 $10 #
body $-1 $11 $-1 $12 #
body $-1 $13 $-1 $14 #
body $-1 $15 $-1 $16 #
body $-1 $17 $-1 $18 #
body $-1 $19 $-1 $20 #
body $-1 $21 $-1 $22 #
body $-1 $23 $-1 $24 #
body $-1 $25 $-1 $26 #
lump $-1 $-1 $27 $0 #
transform $-1 1 0 0 0 1 0 0 0 1 49.431440168462174 30.358238949616968 14.64712994861231 1 rotate no_reflect no_shear #
lump $-1 $-1 $28 $1 #
transform $-1 1 0 0 0 1 0 0 0 1 49.431440168462174 30.358238949616968 14.64712994861231 1 rotate no_reflect no_shear #
lump $-1 $-1 $29 $2 #
transform $-1 1 0 0 0 1 0 0 0 1 49.431440168462174 30.358238949616968 14.64712994861231 1 rotate no_reflect no_shear #
lump $-1 $-1 $30 $3 #
transform $-1 1 0 0 0 1 0 0 0 1 49.431440168462174 30.358238949616968 14.64712994861231 1 rotate no_reflect no_shear #
lump $-1 $-1 $31 $4 #
transform $-1 1 0 0 0 1 0 0 0 1 49.431440168462174 30.358238949616968 14.64712994861231 1 rotate no_reflect no_shear #
lump $-1 $-1 $32 $5 #
transform $-1 1 0 0 0 1 0 0 0 1 49.431440168462174 30.358238949616968 14.64712994861231 1 rotate no_reflect no_shear #
lump $-1 $-1 $33 $6 #
transform $-1 1 0 0 0 1 0 0 0 1 49.431440168462174 30.358238949616968 14.64712994861231 1 rotate no_reflect no_shear #
lump $-1 $-1 $34 $7 #
transform $-1 1 0 0 0 1 0 0 0 1 49.431440168462174 30.358238949616968 14.64712994861231 1 rotate no_reflect no_shear #
lump $-1 $-1 $35 $8 #
transform $-1 1 0 0 0 1 0 0 0 1 49.431440168462174 30.358238949616968 14.64712994861231 1 rotate no_reflect no_shear #
shell $-1 $-1 $-1 $36 $-1 $9 #
shell $-1 $-1 $-1 $37 $-1 $11 #
shell $-1 $-1 $-1 $38 $-1 $13 #
shell $-1 $-1 $-1 $39 $-1 $15 #
shell $-1 $-1 $-1 $40 $-1 $17 #
shell $-1 $-1 $-1 $41 $-1 $19 #
shell $-1 $-1 $-1 $42 $-1 $21 #
shell $-1 $-1 $-1 $43 $-1 $23 #
shell $-1 $-1 $-1 $44 $-1 $25 #
face $-1 $45 $46 $27 $-1 $47 forward single #
face $-1 $48 $49 $28 $-1 $50 reversed single #
face $-1 $51 $52 $29 $-1 $53 reversed single #
face $-1 $54 $55 $30 $-1 $56 forward single #
face $-1 $57 $58 $31 $-1 $59 forward single #
face $-1 $60 $61 $32 $-1 $62 forward single #
face $-1 $63 $64 $33 $-1 $65 reversed single #
face $-1 $66 $67 $34 $-1 $68 forward single #
face $-1 $69 $70 $35 $-1 $71 forward single #
face $-1 $72 $73 $27 $-1 $74 reversed single #
loop $-1 $-1 $75 $36 #
plane-surface $-1 0 0 14.64712994861231 0 0 1 1 0 0 forward_v I I I I #
face $-1 $76 $77 $28 $-1 $78 reversed single #
loop $-1 $-1 $79 $37 #
plane-surface $-1 0 -22.162721170264241 9.8316853829083701 0 0 1 1 0 0 forward_v I I I I #
face $-1 $80 $81 $29 $-1 $82 reversed single #
loop $-1 $-1 $83 $38 #
plane-surface $-1 -25.181322064584435 24.466535009530098 71.710177162619516 0.6560590369687036 0 0.75470957328743171 0.75470957328743171 0 -0.6560590369687036 forward_v I I I I #
face $-1 $84 $85 $30 $-1 $86 forward single #
loop $-1 $87 $88 $39 #
cone-surface $-1 44.613211083208171 20.931512645477973 10.364935395684967 -0.6560590369687036 0 -0.75470957328743171 0.37735478664371586 0 -0.3280295184843518 1 I I 0 1 0.5 forward I I I I #
face $-1 $89 $90 $31 $-1 $91 forward single #
loop $-1 $92 $93 $40 #
cone-surface $-1 44.613211083208171 24.466535009530098 10.364935395684967 -0.6560590369687036 0 -0.75470957328743171 0.37735478664371586 0 -0.3280295184843518 1 I I 0 1 0.5 forward I I I I #
face $-1 $94 $95 $32 $-1 $96 forward single #
loop $-1 $97 $98 $41 #
cone-surface $-1 44.613211083208171 28.001557373582223 10.364935395684967 -0.6560590369687036 0 -0.75470957328743171 0.37735478664371586 0 -0.3280295184843518 1 I I 0 1 0.5 forward I I I I #
face $-1 $99 $100 $33 $-1 $101 reversed single #
loop $-1 $-1 $102 $42 #
plane-surface $-1 -49.431440168462174 25.214070766993252 8.8649989598800971 -0.85716730853699208 0 0.51503806187062418 0.51503806187062418 0 0.85716730853699208 forward_v I I I I #
face $-1 $103 $104 $34 $-1 $105 forward single #
loop $-1 $106 $107 $43 #
cone-surface $-1 -46.178489336336156 23.009427260154517 10.845265845459183 0.85716730853699208 0 -0.51503806187062418 0.51503806187062418 0 0.85716730853699208 1 I I 0 1 1 forward I I I I #
face $-1 $108 $109 $35 $-1 $110 forward single #
loop $-1 $111 $112 $44 #
cone-surface $-1 -46.178489336336156 27.418714273831988 10.845265845459183 0.85716730853699208 0 -0.51503806187062418 0.51503806187062418 0 0.85716730853699208 1 I I 0 1 1 forward I I I I #
face $-1 $113 $114 $27 $-1 $115 reversed single #
loop $-1 $-1 $116 $45 #
plane-surface $-1 0 0 -14.64712994861231 0 0 1 1 0 0 forward_v I I I I #
coedge $-1 $117 $118 $119 $120 forward $46 $-1 #
face $-1 $121 $122 $28 $-1 $123 reversed single #
loop $-1 $-1 $124 $48 #
plane-surface $-1 0 -13.967203390911513 12.239407665760339 0 -1 0 0 0 -1 forward_v I I I I #
coedge $-1 $125 $126 $127 $128 reversed $49 $-1 #
face $-1 $129 $130 $29 $-1 $131 reversed single #
loop $-1 $-1 $132 $51 #
plane-surface $-1 39.678564001210333 18.574831069443228 146.32293939566611 0 1 0 0.6560590369687036 0 0.75470957328743171 forward_v I I I I #
coedge $-1 $133 $134 $135 $136 reversed $52 $-1 #
face $-1 $-1 $137 $30 $-1 $138 forward single #
loop $-1 $139 $140 $54 #
cone-surface $-1 44.115585688609329 20.931512645477973 9.7924828753295543 -0.6560590369687036 0 -0.75470957328743171 0.18867739332185793 0 -0.1640147592421759 1 I I -0.70710678118654746 0.70710678118654746 0.25 forward I I I I #
loop $-1 $-1 $141 $39 #
coedge $-1 $88 $88 $142 $143 reversed $55 $-1 #
face $-1 $-1 $144 $31 $-1 $145 forward single #
loop $-1 $146 $147 $57 #
cone-surface $-1 44.115585688609329 24.466535009530098 9.7924828753295543 -0.6560590369687036 0 -0.75470957328743171 0.18867739332185793 0 -0.1640147592421759 1 I I -0.70710678118654746 0.70710678118654746 0.25 forward I I I I #
loop $-1 $-1 $148 $40 #
coedge $-1 $93 $93 $149 $150 reversed $58 $-1 #
face $-1 $-1 $151 $32 $-1 $152 forward single #
loop $-1 $153 $154 $60 #
cone-surface $-1 44.115585688609329 28.001557373582223 9.7924828753295543 -0.6560590369687036 0 -0.75470957328743171 0.18867739332185793 0 -0.1640147592421759 1 I I -0.70710678118654746 0.70710678118654746 0.25 forward I I I I #
loop $-1 $-1 $155 $41 #
coedge $-1 $98 $98 $156 $157 reversed $61 $-1 #
face $-1 $158 $159 $33 $-1 $160 forward single #
loop $-1 $-1 $161 $63 #
plane-surface $-1 -134.17346922107834 20.069902584369533 59.783145239557051 0 1 0 -0.85716730853699208 0 0.51503806187062418 forward_v I I I I #
coedge $-1 $162 $163 $164 $165 reversed $64 $-1 #
face $-1 $-1 $166 $34 $-1 $167 forward single #
loop $-1 $168 $169 $66 #
cone-surface $-1 -44.234082192678024 23.009427260154517 9.6769482057368528 0.85716730853699208 0 -0.51503806187062418 0.25751903093531209 0 0.42858365426849604 1 I I -0.70710678118654746 0.70710678118654746 0.5 forward I I I I #
loop $-1 $-1 $170 $43 #
coedge $-1 $107 $107 $171 $172 reversed $67 $-1 #
face $-1 $-1 $173 $35 $-1 $174 forward single #
loop $-1 $175 $176 $69 #
cone-surface $-1 -44.234082192678024 27.418714273831988 9.6769482057368528 0.85716730853699208 0 -0.51503806187062418 0.25751903093531209 0 0.42858365426849604 1 I I -0.70710678118654746 0.70710678118654746 0.5 forward I I I I #
loop $-1 $-1 $177 $44 #
coedge $-1 $112 $112 $178 $179 reversed $70 $-1 #
face $-1 $180 $181 $27 $-1 $182 reversed single #
loop $-1 $-1 $183 $72 #
plane-surface $-1 0 -30.358238949616968 0 0 1 0 0 0 1 forward_v I I I I #
coedge $-1 $184 $185 $186 $187 forward $73 $-1 #
coedge $-1 $188 $75 $189 $190 forward $46 $-1 #
coedge $-1 $75 $188 $191 $192 forward $46 $-1 #
coedge $-1 $193 $194 $75 $120 reversed $195 $-1 #
edge $-1 $196 -30.358238949616968 $197 30.358238949616968 $119 $198 forward 7 unknown #
face $-1 $199 $200 $28 $-1 $201 reversed single #
loop $-1 $-1 $202 $76 #
plane-surface $-1 -49.431440168462174 0 0 1 0 0 0 0 -1 forward_v I I I I #
coedge $-1 $203 $204 $205 $206 reversed $77 $-1 #
coedge $-1 $207 $79 $208 $209 reversed $49 $-1 #
coedge $-1 $79 $207 $203 $210 forward $49 $-1 #
coedge $-1 $205 $211 $79 $128 forward $212 $-1 #
edge $-1 $213 -19.276878364484848 $214 -2.8858428057793919 $127 $215 forward 7 unknown #
face $-1 $216 $217 $29 $-1 $218 forward single #
loop $-1 $-1 $219 $80 #
plane-surface $-1 0 30.358238949616968 0 0 -1 0 0 0 -1 forward_v I I I I #
coedge $-1 $220 $221 $222 $223 reversed $81 $-1 #
coedge $-1 $224 $83 $219 $225 reversed $52 $-1 #
coedge $-1 $83 $224 $220 $226 forward $52 $-1 #
coedge $-1 $222 $227 $83 $136 forward $217 $-1 #
edge $-1 $228 -18.124971444851919 $229 -6.3415635646781787 $135 $230 forward 7 unknown #
loop $-1 $-1 $142 $84 #
plane-surface $-1 -25.181322064584435 24.466535009530098 71.710177162619516 0.6560590369687036 0 0.75470957328743171 0.75470957328743171 0 -0.6560590369687036 forward_v I I I I #
loop $-1 $-1 $231 $54 #
coedge $-1 $140 $140 $141 $232 reversed $85 $-1 #
coedge $-1 $141 $141 $140 $232 forward $87 $-1 #
coedge $-1 $142 $142 $88 $143 forward $137 $-1 #
edge $-1 $233 0 $233 6.2831853071796004 $142 $234 forward 7 unknown #
loop $-1 $-1 $149 $89 #
plane-surface $-1 -25.181322064584435 24.466535009530098 71.710177162619516 0.6560590369687036 0 0.75470957328743171 0.75470957328743171 0 -0.6560590369687036 forward_v I I I I #
loop $-1 $-1 $235 $57 #
coedge $-1 $147 $147 $148 $236 reversed $90 $-1 #
coedge $-1 $148 $148 $147 $236 forward $92 $-1 #
coedge $-1 $149 $149 $93 $150 forward $144 $-1 #
edge $-1 $237 0 $237 6.2831853071796004 $149 $238 forward 7 unknown #
loop $-1 $-1 $156 $94 #
plane-surface $-1 -25.181322064584435 24.466535009530098 71.710177162619516 0.6560590369687036 0 0.75470957328743171 0.75470957328743171 0 -0.6560590369687036 forward_v I I I I #
loop $-1 $-1 $239 $60 #
coedge $-1 $154 $154 $155 $240 reversed $95 $-1 #
coedge $-1 $155 $155 $154 $240 forward $97 $-1 #
coedge $-1 $156 $156 $98 $157 forward $151 $-1 #
edge $-1 $241 0 $241 6.2831853071796004 $156 $242 forward 7 unknown #
face $-1 $243 $244 $33 $-1 $245 reversed single #
loop $-1 $-1 $246 $99 #
plane-surface $-1 0 0 14.64712994861231 0 0 1 1 0 0 forward_v I I I I #
coedge $-1 $247 $248 $249 $250 reversed $100 $-1 #
coedge $-1 $251 $102 $252 $253 reversed $64 $-1 #
coedge $-1 $102 $251 $247 $254 forward $64 $-1 #
coedge $-1 $249 $255 $102 $165 forward $256 $-1 #
edge $-1 $257 -17.751203566120342 $258 -7.4628672008729069 $164 $259 forward 7 unknown #
loop $-1 $-1 $171 $103 #
plane-surface $-1 -49.431440168462174 25.214070766993252 8.8649989598800971 -0.85716730853699208 0 0.51503806187062418 0.51503806187062418 0 0.85716730853699208 forward_v I I I I #
loop $-1 $-1 $260 $66 #
coedge $-1 $169 $169 $170 $261 reversed $104 $-1 #
coedge $-1 $170 $170 $169 $261 forward $106 $-1 #
coedge $-1 $171 $171 $107 $172 forward $166 $-1 #
edge $-1 $262 0 $262 6.2831853071796004 $171 $263 forward 7 unknown #
loop $-1 $-1 $178 $108 #
plane-surface $-1 -49.431440168462174 25.214070766993252 8.8649989598800971 -0.85716730853699208 0 0.51503806187062418 0.51503806187062418 0 0.85716730853699208 forward_v I I I I #
loop $-1 $-1 $264 $69 #
coedge $-1 $176 $176 $177 $265 reversed $109 $-1 #
coedge $-1 $177 $177 $176 $265 forward $111 $-1 #
coedge $-1 $178 $178 $112 $179 forward $173 $-1 #
edge $-1 $266 0 $266 6.2831853071796004 $178 $267 forward 7 unknown #
face $-1 $268 $269 $27 $-1 $270 reversed single #
loop $-1 $-1 $271 $113 #
plane-surface $-1 -49.431440168462174 0 0 1 0 0 0 0 -1 forward_v I I I I #
coedge $-1 $272 $191 $273 $274 forward $114 $-1 #
coedge $-1 $275 $116 $272 $276 forward $73 $-1 #
coedge $-1 $116 $275 $277 $278 forward $73 $-1 #
coedge $-1 $194 $193 $116 $187 reversed $195 $-1 #
edge $-1 $279 -30.358238949616968 $280 30.358238949616968 $186 $281 forward 7 unknown #
coedge $-1 $118 $117 $282 $283 forward $46 $-1 #
coedge $-1 $284 $285 $117 $190 reversed $269 $-1 #
edge $-1 $197 -49.431440168462174 $286 49.431440168462174 $189 $287 forward 7 unknown #
coedge $-1 $183 $288 $118 $192 reversed $114 $-1 #
edge $-1 $289 -49.431440168462174 $196 49.431440168462174 $191 $290 forward 7 unknown #
coedge $-1 $186 $119 $288 $291 forward $195 $-1 #
coedge $-1 $119 $186 $284 $292 reversed $195 $-1 #
loop $-1 $-1 $193 $268 #
vertex $-1 $120 $293 #
vertex $-1 $120 $294 #
straight-curve $-1 49.431440168462174 0 14.64712994861231 0 1 0 I I #
face $-1 $295 $296 $28 $-1 $297 forward single #
loop $-1 $-1 $208 $121 #
plane-surface $-1 0 -30.358238949616968 0 0 1 0 0 0 1 forward_v I I I I #
coedge $-1 $298 $299 $300 $301 forward $122 $-1 #
coedge $-1 $300 $124 $126 $210 reversed $77 $-1 #
coedge $-1 $124 $300 $302 $303 reversed $77 $-1 #
coedge $-1 $304 $127 $124 $206 forward $212 $-1 #
edge $-1 $214 3.7119815500282005 $305 8.5274261157321387 $205 $306 forward 7 unknown #
coedge $-1 $126 $125 $298 $307 reversed $49 $-1 #
coedge $-1 $308 $309 $125 $209 forward $200 $-1 #
edge $-1 $310 -49.431440168462174 $213 49.431440168462174 $208 $311 forward 7 unknown #
edge $-1 $312 -49.431440168462174 $214 49.431440168462174 $203 $313 forward 7 unknown #
coedge $-1 $127 $304 $308 $314 forward $212 $-1 #
loop $-1 $-1 $205 $295 #
vertex $-1 $209 $315 #
vertex $-1 $128 $316 #
straight-curve $-1 49.431440168462174 -11.081360585132121 9.8316853829083701 0 1 0 I I #
face $-1 $-1 $317 $29 $-1 $318 reversed single #
loop $-1 $-1 $135 $129 #
plane-surface $-1 0 0 14.64712994861231 0 0 1 1 0 0 forward_v I I I I #
coedge $-1 $319 $320 $133 $225 forward $130 $-1 #
coedge $-1 $221 $132 $134 $226 reversed $81 $-1 #
coedge $-1 $132 $220 $321 $322 reversed $81 $-1 #
coedge $-1 $323 $135 $132 $223 forward $217 $-1 #
edge $-1 $229 20.622921268062314 $324 29.592158167857008 $222 $325 forward 7 unknown #
coedge $-1 $134 $133 $326 $327 reversed $52 $-1 #
edge $-1 $328 -65.837533036754778 $228 -53.953177494892913 $219 $329 forward 7 unknown #
edge $-1 $330 -98.862880336924377 $229 -86.978524795062498 $220 $331 forward 7 unknown #
coedge $-1 $135 $323 $319 $332 forward $217 $-1 #
vertex $-1 $136 $333 #
vertex $-1 $136 $334 #
straight-curve $-1 40.462203268667466 12.233267504765049 14.647129948612317 0 -1 0 I I #
coedge $-1 $231 $231 $-1 $335 reversed $139 $-1 #
edge $-1 $336 0 $336 6.2831853071796004 $140 $337 forward 7 unknown #
vertex $-1 $143 $338 #
ellipse-curve $-1 44.946821718564827 20.931512645477973 10.748710522718516 0.6560590369687036 0 0.75470957328743171 0.37735478664371586 0 -0.3280295184843518 1 I I #
coedge $-1 $235 $235 $-1 $339 reversed $146 $-1 #
edge $-1 $340 0 $340 6.2831853071796004 $147 $341 forward 7 unknown #
vertex $-1 $150 $342 #
ellipse-curve $-1 44.946821718564827 24.466535009530098 10.748710522718516 0.6560590369687036 0 0.75470957328743171 0.37735478664371586 0 -0.3280295184843518 1 I I #
coedge $-1 $239 $239 $-1 $343 reversed $153 $-1 #
edge $-1 $344 0 $344 6.2831853071796004 $154 $345 forward 7 unknown #
vertex $-1 $157 $346 #
ellipse-curve $-1 44.946821718564827 28.001557373582223 10.748710522718516 0.6560590369687036 0 0.75470957328743171 0.37735478664371586 0 -0.3280295184843518 1 I I #
face $-1 $-1 $256 $33 $-1 $347 reversed single #
loop $-1 $-1 $252 $158 #
plane-surface $-1 0 30.358238949616968 0 0 -1 0 0 0 -1 forward_v I I I I #
coedge $-1 $348 $349 $248 $350 forward $159 $-1 #
coedge $-1 $248 $161 $163 $254 reversed $100 $-1 #
coedge $-1 $161 $247 $246 $350 reversed $100 $-1 #
coedge $-1 $351 $164 $161 $250 forward $256 $-1 #
edge $-1 $258 -21.026573659898428 $352 -15.244442671166215 $249 $353 forward 7 unknown #
coedge $-1 $163 $162 $348 $354 reversed $64 $-1 #
coedge $-1 $355 $356 $162 $253 forward $244 $-1 #
edge $-1 $357 2.1845158637366566 $257 8.930142920607409 $252 $358 forward 7 unknown #
edge $-1 $359 -6.7456270568707541 $258 0 $247 $360 forward 7 unknown #
coedge $-1 $164 $351 $355 $361 forward $256 $-1 #
loop $-1 $-1 $249 $243 #
vertex $-1 $253 $362 #
vertex $-1 $165 $363 #
straight-curve $-1 -49.431440168462174 12.607035383496626 8.8649989598800936 0 -1 0 I I #
coedge $-1 $260 $260 $-1 $364 reversed $168 $-1 #
edge $-1 $365 0 $365 6.2831853071796004 $169 $366 forward 7 unknown #
vertex $-1 $172 $367 #
ellipse-curve $-1 -47.694312825725795 23.009427260154517 11.756064454246204 -0.85716730853699208 0 0.51503806187062418 0.51503806187062418 0 0.85716730853699208 1 I I #
coedge $-1 $264 $264 $-1 $368 reversed $175 $-1 #
edge $-1 $369 0 $369 6.2831853071796004 $176 $370 forward 7 unknown #
vertex $-1 $179 $371 #
ellipse-curve $-1 -47.694312825725795 27.418714273831988 11.756064454246204 -0.85716730853699208 0 0.51503806187062418 0.51503806187062418 0 0.85716730853699208 1 I I #
face $-1 $-1 $195 $27 $-1 $372 reversed single #
loop $-1 $-1 $284 $180 #
plane-surface $-1 0 30.358238949616968 0 0 -1 0 0 0 -1 forward_v I I I I #
coedge $-1 $373 $282 $285 $374 forward $181 $-1 #
coedge $-1 $288 $183 $184 $276 reversed $114 $-1 #
coedge $-1 $282 $373 $183 $274 reversed $181 $-1 #
edge $-1 $289 -14.64712994861231 $375 14.64712994861231 $273 $376 forward 7 unknown #
coedge $-1 $185 $184 $373 $377 forward $73 $-1 #
edge $-1 $280 -49.431440168462174 $375 49.431440168462174 $272 $378 forward 7 unknown #
coedge $-1 $285 $284 $185 $278 reversed $269 $-1 #
edge $-1 $379 -49.431440168462174 $279 49.431440168462174 $277 $380 forward 7 unknown #
vertex $-1 $187 $381 #
vertex $-1 $291 $382 #
straight-curve $-1 49.431440168462174 0 -14.64712994861231 0 -1 0 I I #
coedge $-1 $271 $273 $188 $283 reversed $181 $-1 #
edge $-1 $286 -30.358238949616968 $289 30.358238949616968 $282 $383 forward 7 unknown #
coedge $-1 $277 $189 $194 $292 forward $269 $-1 #
coedge $-1 $189 $277 $271 $374 reversed $269 $-1 #
vertex $-1 $190 $384 #
straight-curve $-1 0 30.358238949616968 14.64712994861231 -1 0 0 I I #
coedge $-1 $191 $272 $193 $291 reversed $114 $-1 #
vertex $-1 $283 $385 #
straight-curve $-1 0 -30.358238949616968 14.64712994861231 1 0 0 I I #
edge $-1 $196 -14.64712994861231 $280 14.64712994861231 $193 $386 forward 7 unknown #
edge $-1 $197 -14.64712994861231 $279 14.64712994861231 $194 $387 forward 7 unknown #
point $-1 49.431440168462174 -30.358238949616968 14.64712994861231 #
point $-1 49.431440168462174 30.358238949616968 14.64712994861231 #
face $-1 $-1 $212 $28 $-1 $388 reversed single #
loop $-1 $-1 $302 $199 #
plane-surface $-1 0 0 14.64712994861231 0 0 1 1 0 0 forward_v I I I I #
coedge $-1 $389 $202 $207 $307 forward $122 $-1 #
coedge $-1 $202 $389 $390 $391 reversed $122 $-1 #
coedge $-1 $204 $203 $202 $301 reversed $77 $-1 #
edge $-1 $392 -8.5274261157321387 $312 -3.7119815500282005 $202 $393 forward 7 unknown #
coedge $-1 $390 $394 $204 $303 forward $296 $-1 #
edge $-1 $305 -49.431440168462174 $392 49.431440168462174 $302 $395 forward 7 unknown #
coedge $-1 $211 $205 $394 $396 reversed $212 $-1 #
vertex $-1 $206 $397 #
straight-curve $-1 49.431440168462174 -13.967203390911513 6.1197038328801696 0 0 1 I I #
edge $-1 $312 2.8858428057793919 $310 19.276878364484848 $298 $398 forward 7 unknown #
coedge $-1 $399 $208 $211 $314 reversed $200 $-1 #
coedge $-1 $208 $399 $389 $400 forward $200 $-1 #
vertex $-1 $209 $401 #
straight-curve $-1 0 -30.358238949616968 9.8316853829083701 1 0 0 I I #
vertex $-1 $307 $402 #
straight-curve $-1 0 -13.967203390911513 9.8316853829083701 1 0 0 I I #
edge $-1 $403 -14.64712994861231 $213 -9.8316853829083701 $211 $404 forward 7 unknown #
point $-1 49.431440168462174 -30.358238949616968 9.8316853829083701 #
point $-1 49.431440168462174 -13.967203390911513 9.8316853829083701 #
loop $-1 $-1 $326 $216 #
plane-surface $-1 49.431440168462174 0 0 -1 0 0 0 0 1 forward_v I I I I #
coedge $-1 $320 $219 $227 $332 reversed $130 $-1 #
coedge $-1 $219 $319 $405 $406 forward $130 $-1 #
coedge $-1 $326 $407 $221 $322 forward $317 $-1 #
edge $-1 $324 58.514339749220746 $330 66.311178601008322 $321 $408 forward 7 unknown #
coedge $-1 $227 $222 $407 $409 forward $217 $-1 #
vertex $-1 $409 $410 #
straight-curve $-1 19.839282000605166 18.574831069443228 14.647129948612317 1 0 0 I I #
coedge $-1 $405 $321 $224 $327 forward $317 $-1 #
edge $-1 $330 6.3415635646781787 $328 18.124971444851919 $326 $411 forward 7 unknown #
vertex $-1 $327 $412 #
straight-curve $-1 -0.25677629600420637 30.358238949616968 50.043599617313276 -0.75470957328743171 0 0.6560590369687036 I I #
vertex $-1 $327 $413 #
straight-curve $-1 -25.181322064584435 18.574831069443228 71.710177162619516 -0.75470957328743171 0 0.6560590369687036 I I #
edge $-1 $414 -49.431440168462174 $228 -40.46220326866748 $319 $415 forward 7 unknown #
point $-1 40.46220326866748 30.358238949616968 14.647129948612303 #
point $-1 40.46220326866748 18.574831069443228 14.647129948612303 #
edge $-1 $416 1 $416 0 $231 $-1 forward 7 unknown #
vertex $-1 $232 $417 #
ellipse-curve $-1 44.279600447851507 20.931512645477973 9.9811602686514114 0.6560590369687036 0 0.75470957328743171 0.37735478664371586 0 -0.3280295184843518 1 I I #
point $-1 45.324176505208548 20.931512645477973 10.42068100423417 #
edge $-1 $418 1 $418 0 $235 $-1 forward 7 unknown #
vertex $-1 $236 $419 #
ellipse-curve $-1 44.279600447851507 24.466535009530098 9.9811602686514114 0.6560590369687036 0 0.75470957328743171 0.37735478664371586 0 -0.3280295184843518 1 I I #
point $-1 45.324176505208548 24.466535009530098 10.42068100423417 #
edge $-1 $420 1 $420 0 $239 $-1 forward 7 unknown #
vertex $-1 $240 $421 #
ellipse-curve $-1 44.279600447851507 28.001557373582223 9.9811602686514114 0.6560590369687036 0 0.75470957328743171 0.37735478664371586 0 -0.3280295184843518 1 I I #
point $-1 45.324176505208548 28.001557373582223 10.42068100423417 #
plane-surface $-1 -49.431440168462174 0 0 1 0 0 0 0 -1 forward_v I I I I #
coedge $-1 $422 $246 $251 $354 forward $159 $-1 #
coedge $-1 $246 $422 $351 $423 forward $159 $-1 #
edge $-1 $352 17.655294442076993 $359 21.129549127549751 $246 $424 forward 7 unknown #
coedge $-1 $255 $249 $349 $423 reversed $256 $-1 #
vertex $-1 $350 $425 #
straight-curve $-1 -49.431440168462174 20.069902584369533 29.891572619778525 0 0 1 I I #
edge $-1 $359 7.4628672008729069 $357 17.751203566120346 $348 $426 forward 7 unknown #
coedge $-1 $356 $252 $255 $361 reversed $244 $-1 #
coedge $-1 $252 $355 $422 $427 reversed $244 $-1 #
vertex $-1 $427 $428 #
straight-curve $-1 -44.832076666404859 30.358238949616968 16.519625531987824 -0.51503806187062429 0 -0.85716730853699219 I I #
vertex $-1 $354 $429 #
straight-curve $-1 -49.431440168462174 20.069902584369533 8.8649989598800971 -0.51503806187062418 0 -0.85716730853699208 I I #
edge $-1 $430 -14.64712994861231 $257 -8.8649989598800971 $355 $431 forward 7 unknown #
point $-1 -49.431440168462174 30.358238949616968 8.8649989598800971 #
point $-1 -49.431440168462174 20.069902584369533 8.8649989598800971 #
edge $-1 $432 1 $432 0 $260 $-1 forward 7 unknown #
vertex $-1 $261 $433 #
ellipse-curve $-1 -44.662665846946517 23.009427260154517 9.9344672366721642 -0.85716730853699208 0 0.51503806187062418 0.51503806187062418 0 0.85716730853699208 1 I I #
point $-1 -47.179274763855169 23.009427260154517 12.613231762783194 #
edge $-1 $434 1 $434 0 $264 $-1 forward 7 unknown #
vertex $-1 $265 $435 #
ellipse-curve $-1 -44.662665846946517 27.418714273831988 9.9344672366721642 -0.85716730853699208 0 0.51503806187062418 0.51503806187062418 0 0.85716730853699208 1 I I #
point $-1 -47.179274763855169 27.418714273831988 12.613231762783194 #
plane-surface $-1 49.431440168462174 0 0 -1 0 0 0 0 1 forward_v I I I I #
coedge $-1 $273 $271 $275 $377 reversed $181 $-1 #
edge $-1 $286 -14.64712994861231 $379 14.64712994861231 $285 $436 forward 7 unknown #
vertex $-1 $377 $437 #
straight-curve $-1 -49.431440168462174 -30.358238949616968 0 0 0 -1 I I #
edge $-1 $375 -30.358238949616968 $379 30.358238949616968 $373 $438 forward 7 unknown #
straight-curve $-1 0 -30.358238949616968 -14.64712994861231 -1 0 0 I I #
vertex $-1 $278 $439 #
straight-curve $-1 0 30.358238949616968 -14.64712994861231 1 0 0 I I #
point $-1 49.431440168462174 30.358238949616968 -14.64712994861231 #
point $-1 49.431440168462174 -30.358238949616968 -14.64712994861231 #
straight-curve $-1 -49.431440168462174 0 14.64712994861231 0 -1 0 I I #
point $-1 -49.431440168462174 30.358238949616968 14.64712994861231 #
point $-1 -49.431440168462174 -30.358238949616968 14.64712994861231 #
straight-curve $-1 49.431440168462174 -30.358238949616968 0 0 0 -1 I I #
straight-curve $-1 49.431440168462174 30.358238949616968 0 0 0 -1 I I #
plane-surface $-1 49.431440168462174 0 0 -1 0 0 0 0 1 forward_v I I I I #
coedge $-1 $299 $298 $309 $400 reversed $122 $-1 #
coedge $-1 $440 $302 $299 $391 forward $296 $-1 #
edge $-1 $392 13.967203390911513 $441 30.358238949616968 $299 $442 forward 7 unknown #
vertex $-1 $391 $443 #
straight-curve $-1 -49.431440168462174 -13.967203390911513 6.1197038328801696 0 0 -1 I I #
coedge $-1 $302 $440 $304 $396 forward $296 $-1 #
straight-curve $-1 0 -13.967203390911513 14.64712994861231 -1 0 0 I I #
edge $-1 $403 -30.358238949616968 $305 -13.967203390911513 $304 $444 forward 7 unknown #
point $-1 49.431440168462174 -13.967203390911513 14.647129948612308 #
straight-curve $-1 -49.431440168462174 -11.081360585132121 9.8316853829083701 0 -1 0 I I #
coedge $-1 $309 $308 $440 $445 reversed $200 $-1 #
edge $-1 $441 -14.64712994861231 $310 -9.8316853829083701 $389 $446 forward 7 unknown #
point $-1 -49.431440168462174 -30.358238949616968 9.8316853829083701 #
point $-1 -49.431440168462174 -13.967203390911513 9.8316853829083701 #
vertex $-1 $396 $447 #
straight-curve $-1 49.431440168462174 -30.358238949616968 0 0 0 -1 I I #
coedge $-1 $407 $326 $320 $406 reversed $317 $-1 #
edge $-1 $414 -14.64712994861231 $328 -6.8502910968247335 $405 $448 forward 7 unknown #
coedge $-1 $321 $405 $323 $409 reversed $317 $-1 #
straight-curve $-1 49.431440168462174 18.574831069443228 73.161469697833056 0 0 -1 I I #
edge $-1 $324 18.574831069443228 $414 30.358238949616968 $407 $449 forward 7 unknown #
point $-1 49.431440168462174 18.574831069443228 14.64712994861231 #
straight-curve $-1 49.431440168462174 12.233267504765049 6.8502910968247299 0 1 0 I I #
point $-1 49.431440168462174 30.358238949616968 6.8502910968247335 #
point $-1 49.431440168462174 18.574831069443228 6.8502910968247335 #
vertex $-1 $409 $450 #
straight-curve $-1 0 30.358238949616968 14.64712994861231 -1 0 0 I I #
vertex $-1 $335 $451 #
point $-1 44.656955234495221 20.931512645477973 9.65313075016706 #
vertex $-1 $339 $452 #
point $-1 44.656955234495221 24.466535009530098 9.65313075016706 #
vertex $-1 $343 $453 #
point $-1 44.656955234495221 28.001557373582223 9.65313075016706 #
coedge $-1 $349 $348 $356 $427 forward $159 $-1 #
edge $-1 $430 -30.358238949616968 $352 -20.069902584369533 $351 $454 forward 7 unknown #
straight-curve $-1 -67.086734610539168 20.069902584369533 14.64712994861231 1 0 0 I I #
point $-1 -49.431440168462174 20.069902584369533 14.64712994861231 #
straight-curve $-1 -45.957185482989416 12.607035383496626 14.64712994861231 0 1 0 I I #
edge $-1 $357 45.957185482989416 $430 49.431440168462174 $356 $455 forward 7 unknown #
point $-1 -45.957185482989416 30.358238949616972 14.64712994861231 #
point $-1 -45.957185482989416 20.069902584369533 14.64712994861231 #
vertex $-1 $427 $456 #
straight-curve $-1 -49.431440168462174 30.358238949616968 0 0 0 -1 I I #
vertex $-1 $364 $457 #
point $-1 -44.147627785075898 23.009427260154517 10.791634545209156 #
vertex $-1 $368 $458 #
point $-1 -44.147627785075898 27.418714273831988 10.791634545209156 #
straight-curve $-1 -49.431440168462174 30.358238949616968 0 0 0 -1 I I #
point $-1 -49.431440168462174 -30.358238949616968 -14.64712994861231 #
straight-curve $-1 -49.431440168462174 0 -14.64712994861231 0 1 0 I I #
point $-1 -49.431440168462174 30.358238949616968 -14.64712994861231 #
coedge $-1 $394 $390 $399 $445 forward $296 $-1 #
vertex $-1 $391 $459 #
straight-curve $-1 -49.431440168462174 0 14.64712994861231 0 -1 0 I I #
point $-1 -49.431440168462174 -13.967203390911513 14.647129948612308 #
straight-curve $-1 49.431440168462174 0 14.64712994861231 0 1 0 I I #
edge $-1 $441 -49.431440168462174 $403 49.431440168462174 $399 $460 forward 7 unknown #
straight-curve $-1 -49.431440168462174 -30.358238949616968 0 0 0 -1 I I #
point $-1 49.431440168462174 -30.358238949616968 14.64712994861231 #
straight-curve $-1 49.431440168462174 30.358238949616968 0 0 0 -1 I I #
straight-curve $-1 49.431440168462174 0 14.64712994861231 0 1 0 I I #
point $-1 49.431440168462174 30.358238949616968 14.64712994861231 #
point $-1 43.951570929367151 20.931512645477973 9.6038054820076972 #
point $-1 43.951570929367151 24.466535009530098 9.6038054820076972 #
point $-1 43.951570929367151 28.001557373582223 9.6038054820076972 #
straight-curve $-1 -49.431440168462174 0 14.64712994861231 0 -1 0 I I #
straight-curve $-1 0 30.358238949616968 14.64712994861231 -1 0 0 I I #
point $-1 -49.431440168462174 30.358238949616968 14.64712994861231 #
point $-1 -43.80549853840953 23.009427260154517 9.4194291748015413 #
point $-1 -43.80549853840953 27.418714273831988 9.4194291748015413 #
point $-1 -49.431440168462174 -30.358238949616968 14.64712994861231 #
straight-curve $-1 0 -30.358238949616968 14.64712994861231 1 0 0 I I #
End-of-ACIS-data 