500 0 16 0           
7 Unknown 11 ACIS 5.0 NT 24 Thu Mar 25 22:09:23 1999 
-1 9.9999999999999995e-007 1e-010 
body $-1 $16 $-1 $17 #
body $-1 $18 $-1 $19 #
body $-1 $20 $-1 $21 #
body $-1 $22 $-1 $23 #
body $-1 $24 $-1 $25 #
body $-1 $26 $-1 $27 #
body $-1 $28 $-1 $29 #
body $-1 $30 $-1 $31 #
body $-1 $32 $-1 $33 #
body $-1 $34 $-1 $35 #
body $-1 $36 $-1 $37 #
body $-1 $38 $-1 $39 #
body $-1 $40 $-1 $41 #
body $-1 $42 $-1 $43 #
body $-1 $44 $-1 $45 #
body $-1 $46 $-1 $47 #
lump $-1 $-1 $48 $0 #
transform $-1 1 0 0 0 1 0 0 0 1 60.657368694112975 31.39532993077022 7.9160459106732537 1 rotate no_reflect no_shear #
lump $-1 $-1 $49 $1 #
transform $-1 1 0 0 0 1 0 0 0 1 60.657368694112975 31.39532993077022 7.9160459106732537 1 rotate no_reflect no_shear #
lump $-1 $-1 $50 $2 #
transform $-1 1 0 0 0 1 0 0 0 1 60.657368694112975 31.39532993077022 7.9160459106732537 1 rotate no_reflect no_shear #
lump $-1 $-1 $51 $3 #
transform $-1 1 0 0 0 1 0 0 0 1 60.657368694112975 31.39532993077022 7.9160459106732537 1 rotate no_reflect no_shear #
lump $-1 $-1 $52 $4 #
transform $-1 1 0 0 0 1 0 0 0 1 60.657368694112975 31.39532993077022 7.9160459106732537 1 rotate no_reflect no_shear #
lump $-1 $-1 $53 $5 #
transform $-1 1 0 0 0 1 0 0 0 1 60.657368694112975 31.39532993077022 7.9160459106732537 1 rotate no_reflect no_shear #
lump $-1 $-1 $54 $6 #
transform $-1 1 0 0 0 1 0 0 0 1 60.657368694112975 31.39532993077022 7.9160459106732537 1 rotate no_reflect no_shear #
lump $-1 $-1 $55 $7 #
transform $-1 1 0 0 0 1 0 0 0 1 60.657368694112975 31.39532993077022 7.9160459106732537 1 rotate no_reflect no_shear #
lump $-1 $-1 $56 $8 #
transform $-1 1 0 0 0 1 0 0 0 1 60.657368694112975 31.39532993077022 7.9160459106732537 1 rotate no_reflect no_shear #
lump $-1 $-1 $57 $9 #
transform $-1 1 0 0 0 1 0 0 0 1 60.657368694112975 31.39532993077022 7.9160459106732537 1 rotate no_reflect no_shear #
lump $-1 $-1 $58 $10 #
transform $-1 1 0 0 0 1 0 0 0 1 60.657368694112975 31.39532993077022 7.9160459106732537 1 rotate no_reflect no_shear #
lump $-1 $-1 $59 $11 #
transform $-1 1 0 0 0 1 0 0 0 1 60.657368694112975 31.39532993077022 7.9160459106732537 1 rotate no_reflect no_shear #
lump $-1 $-1 $60 $12 #
transform $-1 1 0 0 0 1 0 0 0 1 60.657368694112975 31.39532993077022 7.9160459106732537 1 rotate no_reflect no_shear #
lump $-1 $-1 $61 $13 #
transform $-1 1 0 0 0 1 0 0 0 1 60.657368694112975 31.39532993077022 7.9160459106732537 1 rotate no_reflect no_shear #
lump $-1 $-1 $62 $14 #
transform $-1 1 0 0 0 1 0 0 0 1 60.657368694112975 31.39532993077022 7.9160459106732537 1 rotate no_reflect no_shear #
lump $-1 $-1 $63 $15 #
transform $-1 1 0 0 0 1 0 0 0 1 60.657368694112975 31.39532993077022 7.9160459106732537 1 rotate no_reflect no_shear #
shell $-1 $-1 $-1 $64 $-1 $16 #
shell $-1 $-1 $-1 $65 $-1 $18 #
shell $-1 $-1 $-1 $66 $-1 $20 #
shell $-1 $-1 $-1 $67 $-1 $22 #
shell $-1 $-1 $-1 $68 $-1 $24 #
shell $-1 $-1 $-1 $69 $-1 $26 #
shell $-1 $-1 $-1 $70 $-1 $28 #
shell $-1 $-1 $-1 $71 $-1 $30 #
shell $-1 $-1 $-1 $72 $-1 $32 #
shell $-1 $-1 $-1 $73 $-1 $34 #
shell $-1 $-1 $-1 $74 $-1 $36 #
shell $-1 $-1 $-1 $75 $-1 $38 #
shell $-1 $-1 $-1 $76 $-1 $40 #
shell $-1 $-1 $-1 $77 $-1 $42 #
shell $-1 $-1 $-1 $78 $-1 $44 #
shell $-1 $-1 $-1 $79 $-1 $46 #
face $-1 $80 $81 $48 $-1 $82 forward single #
face $-1 $83 $84 $49 $-1 $85 forward single #
face $-1 $86 $87 $50 $-1 $88 reversed single #
face $-1 $89 $90 $51 $-1 $91 forward single #
face $-1 $92 $93 $52 $-1 $94 forward single #
face $-1 $95 $96 $53 $-1 $97 reversed single #
face $-1 $98 $99 $54 $-1 $100 forward single #
face $-1 $101 $102 $55 $-1 $103 forward single #
face $-1 $104 $105 $56 $-1 $106 reversed single #
face $-1 $107 $108 $57 $-1 $109 forward single #
face $-1 $110 $111 $58 $-1 $112 forward single #
face $-1 $113 $114 $59 $-1 $115 reversed single #
face $-1 $116 $117 $60 $-1 $118 forward single #
face $-1 $119 $120 $61 $-1 $121 forward single #
face $-1 $122 $123 $62 $-1 $124 reversed single #
face $-1 $125 $126 $63 $-1 $127 forward single #
face $-1 $128 $129 $48 $-1 $130 reversed single #
loop $-1 $-1 $131 $64 #
plane-surface $-1 0 0 7.9160459106732537 0 0 1 1 0 0 forward_v I I I I #
face $-1 $132 $133 $49 $-1 $134 reversed single #
loop $-1 $-1 $135 $65 #
plane-surface $-1 -60.657368694112975 0 0 1 0 0 0 0 -1 forward_v I I I I #
face $-1 $136 $137 $50 $-1 $138 reversed single #
loop $-1 $-1 $139 $66 #
plane-surface $-1 -43.176141491380136 65.908181186475261 135.51434887464868 1 0 0 0 -0.66913061440640931 -0.74314481823134659 forward_v I I I I #
face $-1 $140 $141 $51 $-1 $142 forward single #
loop $-1 $143 $144 $67 #
cone-surface $-1 -37.613501751024209 28.195408404029248 4.895777482767568 0 -0.66913061440640931 -0.74314481823134659 1.5 0 0 1 I I 0 1 1.5 forward I I I I #
face $-1 $145 $146 $52 $-1 $147 forward single #
loop $-1 $148 $149 $68 #
cone-surface $-1 -29.269542140490316 28.195408404029248 4.895777482767568 0 -0.66913061440640931 -0.74314481823134659 1.5 0 0 1 I I 0 1 1.5 forward I I I I #
face $-1 $150 $151 $53 $-1 $152 reversed single #
loop $-1 $-1 $153 $69 #
plane-surface $-1 -15.05471779329768 65.908181186475261 135.51434887464868 1 0 0 0 -0.66913061440640931 -0.74314481823134659 forward_v I I I I #
face $-1 $154 $155 $54 $-1 $156 forward single #
loop $-1 $157 $158 $70 #
cone-surface $-1 -9.492078052941757 28.195408404029248 4.895777482767568 0 -0.66913061440640931 -0.74314481823134659 1.5 0 0 1 I I 0 1 1.5 forward I I I I #
face $-1 $159 $160 $55 $-1 $161 forward single #
loop $-1 $162 $163 $71 #
cone-surface $-1 -1.1481184424078634 28.195408404029248 4.895777482767568 0 -0.66913061440640931 -0.74314481823134659 1.5 0 0 1 I I 0 1 1.5 forward I I I I #
face $-1 $164 $165 $56 $-1 $166 reversed single #
loop $-1 $-1 $167 $72 #
plane-surface $-1 13.066705904784772 65.908181186475261 135.51434887464868 1 0 0 0 -0.66913061440640931 -0.74314481823134659 forward_v I I I I #
face $-1 $168 $169 $57 $-1 $170 forward single #
loop $-1 $171 $172 $73 #
cone-surface $-1 18.629345645140702 28.195408404029248 4.895777482767568 0 -0.66913061440640931 -0.74314481823134659 1.5 0 0 1 I I 0 1 1.5 forward I I I I #
face $-1 $173 $174 $58 $-1 $175 forward single #
loop $-1 $176 $177 $74 #
cone-surface $-1 26.973305255674589 28.195408404029248 4.895777482767568 0 -0.66913061440640931 -0.74314481823134659 1.5 0 0 1 I I 0 1 1.5 forward I I I I #
face $-1 $178 $179 $59 $-1 $180 reversed single #
loop $-1 $-1 $181 $75 #
plane-surface $-1 41.188129602867221 65.908181186475261 135.51434887464868 1 0 0 0 -0.66913061440640931 -0.74314481823134659 forward_v I I I I #
face $-1 $182 $183 $60 $-1 $184 forward single #
loop $-1 $185 $186 $76 #
cone-surface $-1 46.750769343223155 28.195408404029248 4.895777482767568 0 -0.66913061440640931 -0.74314481823134659 1.5 0 0 1 I I 0 1 1.5 forward I I I I #
face $-1 $187 $188 $61 $-1 $189 forward single #
loop $-1 $190 $191 $77 #
cone-surface $-1 55.094728953757041 28.195408404029248 4.895777482767568 0 -0.66913061440640931 -0.74314481823134659 1.5 0 0 1 I I 0 1 1.5 forward I I I I #
face $-1 $192 $193 $62 $-1 $194 reversed single #
loop $-1 $-1 $195 $78 #
plane-surface $-1 0.16857916021606911 -99.233671046356761 104.11714249144921 -1 0 0 0 -0.55919291073839883 0.82903756765294845 forward_v I I I I #
face $-1 $196 $197 $63 $-1 $198 forward single #
loop $-1 $199 $200 $79 #
cone-surface $-1 -15.400804545231267 -27.661902789486945 5.0006376597899953 0 0.55919291073839883 -0.82903756765294845 1 0 0 1 I I 0 1 1 forward I I I I #
face $-1 $201 $202 $48 $-1 $203 reversed single #
loop $-1 $-1 $204 $80 #
plane-surface $-1 0 0 -7.9160459106732537 0 0 1 1 0 0 forward_v I I I I #
coedge $-1 $205 $206 $207 $208 forward $81 $-1 #
face $-1 $209 $210 $49 $-1 $211 forward single #
loop $-1 $-1 $212 $83 #
plane-surface $-1 0 31.39532993077022 0 0 -1 0 0 0 -1 forward_v I I I I #
coedge $-1 $213 $214 $215 $216 forward $84 $-1 #
face $-1 $217 $218 $50 $-1 $219 reversed single #
loop $-1 $-1 $220 $86 #
plane-surface $-1 -33.441521945757259 -15.267223578660563 45.359930409491952 0 0.66913061440640931 0.74314481823134659 1 0 0 forward_v I I I I #
coedge $-1 $221 $222 $223 $224 reversed $87 $-1 #
face $-1 $-1 $225 $51 $-1 $226 forward single #
loop $-1 $227 $228 $89 #
cone-surface $-1 -37.613501751024209 27.032092759908945 3.6037845978472172 0 -0.66913061440640931 -0.74314481823134659 0.75 0 0 1 I I -0.70710678118654757 0.70710678118654757 0.75 forward I I I I #
loop $-1 $-1 $229 $67 #
coedge $-1 $144 $144 $230 $231 reversed $90 $-1 #
face $-1 $-1 $232 $52 $-1 $233 forward single #
loop $-1 $234 $235 $92 #
cone-surface $-1 -29.269542140490316 27.032092759908945 3.6037845978472172 0 -0.66913061440640931 -0.74314481823134659 0.75 0 0 1 I I -0.70710678118654757 0.70710678118654757 0.75 forward I I I I #
loop $-1 $-1 $236 $68 #
coedge $-1 $149 $149 $237 $238 reversed $93 $-1 #
face $-1 $239 $240 $53 $-1 $241 reversed single #
loop $-1 $-1 $242 $95 #
plane-surface $-1 -5.3200982476748067 -15.267223578660563 45.359930409491952 0 0.66913061440640931 0.74314481823134659 1 0 0 forward_v I I I I #
coedge $-1 $243 $244 $245 $246 reversed $96 $-1 #
face $-1 $-1 $247 $54 $-1 $248 forward single #
loop $-1 $249 $250 $98 #
cone-surface $-1 -9.492078052941757 27.032092759908945 3.6037845978472172 0 -0.66913061440640931 -0.74314481823134659 0.75 0 0 1 I I -0.70710678118654757 0.70710678118654757 0.75 forward I I I I #
loop $-1 $-1 $251 $70 #
coedge $-1 $158 $158 $252 $253 reversed $99 $-1 #
face $-1 $-1 $254 $55 $-1 $255 forward single #
loop $-1 $256 $257 $101 #
cone-surface $-1 -1.1481184424078634 27.032092759908945 3.6037845978472172 0 -0.66913061440640931 -0.74314481823134659 0.75 0 0 1 I I -0.70710678118654757 0.70710678118654757 0.75 forward I I I I #
loop $-1 $-1 $258 $71 #
coedge $-1 $163 $163 $259 $260 reversed $102 $-1 #
face $-1 $261 $262 $56 $-1 $263 reversed single #
loop $-1 $-1 $264 $104 #
plane-surface $-1 22.801325450407646 -15.267223578660563 45.359930409491952 0 0.66913061440640931 0.74314481823134659 1 0 0 forward_v I I I I #
coedge $-1 $265 $266 $267 $268 reversed $105 $-1 #
face $-1 $-1 $269 $57 $-1 $270 forward single #
loop $-1 $271 $272 $107 #
cone-surface $-1 18.629345645140702 27.032092759908945 3.6037845978472172 0 -0.66913061440640931 -0.74314481823134659 0.75 0 0 1 I I -0.70710678118654757 0.70710678118654757 0.75 forward I I I I #
loop $-1 $-1 $273 $73 #
coedge $-1 $172 $172 $274 $275 reversed $108 $-1 #
face $-1 $-1 $276 $58 $-1 $277 forward single #
loop $-1 $278 $279 $110 #
cone-surface $-1 26.973305255674589 27.032092759908945 3.6037845978472172 0 -0.66913061440640931 -0.74314481823134659 0.75 0 0 1 I I -0.70710678118654757 0.70710678118654757 0.75 forward I I I I #
loop $-1 $-1 $280 $74 #
coedge $-1 $177 $177 $281 $282 reversed $111 $-1 #
face $-1 $283 $284 $59 $-1 $285 forward single #
loop $-1 $-1 $286 $113 #
plane-surface $-1 50.922749148490098 -15.267223578660563 45.359930409491952 0 0.66913061440640931 0.74314481823134659 1 0 0 forward_v I I I I #
coedge $-1 $287 $288 $289 $290 reversed $114 $-1 #
face $-1 $-1 $291 $60 $-1 $292 forward single #
loop $-1 $293 $294 $116 #
cone-surface $-1 46.750769343223155 27.032092759908945 3.6037845978472172 0 -0.66913061440640931 -0.74314481823134659 0.75 0 0 1 I I -0.70710678118654757 0.70710678118654757 0.75 forward I I I I #
loop $-1 $-1 $295 $76 #
coedge $-1 $186 $186 $296 $297 reversed $117 $-1 #
face $-1 $-1 $298 $61 $-1 $299 forward single #
loop $-1 $300 $301 $119 #
cone-surface $-1 55.094728953757041 27.032092759908945 3.6037845978472172 0 -0.66913061440640931 -0.74314481823134659 0.75 0 0 1 I I -0.70710678118654757 0.70710678118654757 0.75 forward I I I I #
loop $-1 $-1 $302 $77 #
coedge $-1 $191 $191 $303 $304 reversed $120 $-1 #
face $-1 $305 $306 $62 $-1 $307 reversed single #
loop $-1 $-1 $308 $122 #
plane-surface $-1 -15.400804545231267 -31.395329930770231 3.542667686658163 0 -0.55919291073839883 0.82903756765294845 1 0 0 forward_v I I I I #
coedge $-1 $309 $310 $311 $312 reversed $123 $-1 #
face $-1 $-1 $313 $63 $-1 $314 forward single #
loop $-1 $315 $316 $125 #
cone-surface $-1 -15.400804545231267 -26.890779059265384 3.8573997370878166 0 0.55919291073839883 -0.82903756765294845 0.5 0 0 1 I I -0.70710678118654746 0.70710678118654746 0.5 forward I I I I #
loop $-1 $-1 $317 $79 #
coedge $-1 $200 $200 $318 $319 reversed $126 $-1 #
face $-1 $320 $321 $48 $-1 $322 reversed single #
loop $-1 $-1 $323 $128 #
plane-surface $-1 0 -31.39532993077022 0 0 1 0 0 0 1 forward_v I I I I #
coedge $-1 $324 $325 $326 $327 forward $129 $-1 #
coedge $-1 $328 $131 $329 $330 forward $81 $-1 #
coedge $-1 $131 $328 $331 $332 forward $81 $-1 #
coedge $-1 $333 $334 $131 $208 reversed $335 $-1 #
edge $-1 $336 -31.39532993077022 $337 31.39532993077022 $207 $338 forward 7 unknown #
face $-1 $339 $340 $49 $-1 $341 reversed single #
loop $-1 $-1 $215 $132 #
plane-surface $-1 -65.071889992061045 0 -3.2000471246308151 0 0 1 1 0 0 forward_v I I I I #
coedge $-1 $342 $343 $214 $344 forward $133 $-1 #
coedge $-1 $345 $135 $346 $347 reversed $84 $-1 #
coedge $-1 $135 $345 $212 $344 reversed $84 $-1 #
coedge $-1 $348 $349 $135 $216 reversed $210 $-1 #
edge $-1 $350 -31.39532993077022 $351 31.39532993077022 $215 $352 forward 7 unknown #
face $-1 $353 $354 $50 $-1 $355 forward single #
loop $-1 $-1 $356 $136 #
plane-surface $-1 -23.706902400134386 65.908181186475261 135.51434887464868 -1 0 0 0 0.66913061440640931 0.74314481823134659 forward_v I I I I #
coedge $-1 $357 $358 $359 $360 reversed $137 $-1 #
coedge $-1 $222 $139 $361 $362 reversed $87 $-1 #
coedge $-1 $139 $221 $357 $363 reversed $87 $-1 #
coedge $-1 $359 $364 $139 $224 forward $354 $-1 #
edge $-1 $365 1.5587606624674102 $366 6.6356683493183795 $223 $367 forward 7 unknown #
loop $-1 $-1 $230 $140 #
plane-surface $-1 -33.441521945757259 -15.267223578660563 45.359930409491952 0 0.66913061440640931 0.74314481823134659 1 0 0 forward_v I I I I #
loop $-1 $-1 $368 $89 #
coedge $-1 $228 $228 $229 $369 reversed $141 $-1 #
coedge $-1 $229 $229 $228 $369 forward $143 $-1 #
coedge $-1 $230 $230 $144 $231 forward $225 $-1 #
edge $-1 $370 -9.1206430623589562e-017 $370 6.2831853071796004 $230 $371 forward 7 unknown #
loop $-1 $-1 $237 $145 #
plane-surface $-1 -33.441521945757259 -15.267223578660563 45.359930409491952 0 0.66913061440640931 0.74314481823134659 1 0 0 forward_v I I I I #
loop $-1 $-1 $372 $92 #
coedge $-1 $235 $235 $236 $373 reversed $146 $-1 #
coedge $-1 $236 $236 $235 $373 forward $148 $-1 #
coedge $-1 $237 $237 $149 $238 forward $232 $-1 #
edge $-1 $374 -9.1206430623589562e-017 $374 6.2831853071796004 $237 $375 forward 7 unknown #
face $-1 $376 $377 $53 $-1 $378 forward single #
loop $-1 $-1 $379 $150 #
plane-surface $-1 4.4145212979480668 65.908181186475261 135.51434887464868 -1 0 0 0 0.66913061440640931 0.74314481823134659 forward_v I I I I #
coedge $-1 $380 $381 $382 $383 reversed $151 $-1 #
coedge $-1 $244 $153 $384 $385 reversed $96 $-1 #
coedge $-1 $153 $243 $380 $386 reversed $96 $-1 #
coedge $-1 $382 $387 $153 $246 forward $377 $-1 #
edge $-1 $388 1.5587606624674102 $389 6.6356683493183795 $245 $390 forward 7 unknown #
loop $-1 $-1 $252 $154 #
plane-surface $-1 -5.3200982476748067 -15.267223578660563 45.359930409491952 0 0.66913061440640931 0.74314481823134659 1 0 0 forward_v I I I I #
loop $-1 $-1 $391 $98 #
coedge $-1 $250 $250 $251 $392 reversed $155 $-1 #
coedge $-1 $251 $251 $250 $392 forward $157 $-1 #
coedge $-1 $252 $252 $158 $253 forward $247 $-1 #
edge $-1 $393 -9.1206430623589562e-017 $393 6.2831853071796004 $252 $394 forward 7 unknown #
loop $-1 $-1 $259 $159 #
plane-surface $-1 -5.3200982476748067 -15.267223578660563 45.359930409491952 0 0.66913061440640931 0.74314481823134659 1 0 0 forward_v I I I I #
loop $-1 $-1 $395 $101 #
coedge $-1 $257 $257 $258 $396 reversed $160 $-1 #
coedge $-1 $258 $258 $257 $396 forward $162 $-1 #
coedge $-1 $259 $259 $163 $260 forward $254 $-1 #
edge $-1 $397 -9.1206430623589562e-017 $397 6.2831853071796004 $259 $398 forward 7 unknown #
face $-1 $399 $400 $56 $-1 $401 forward single #
loop $-1 $-1 $402 $164 #
plane-surface $-1 32.535944996030523 65.908181186475261 135.51434887464868 -1 0 0 0 0.66913061440640931 0.74314481823134659 forward_v I I I I #
coedge $-1 $403 $404 $405 $406 reversed $165 $-1 #
coedge $-1 $266 $167 $407 $408 reversed $105 $-1 #
coedge $-1 $167 $265 $403 $409 reversed $105 $-1 #
coedge $-1 $405 $410 $167 $268 forward $400 $-1 #
edge $-1 $411 1.5587606624674102 $412 6.6356683493183795 $267 $413 forward 7 unknown #
loop $-1 $-1 $274 $168 #
plane-surface $-1 22.801325450407646 -15.267223578660563 45.359930409491952 0 0.66913061440640931 0.74314481823134659 1 0 0 forward_v I I I I #
loop $-1 $-1 $414 $107 #
coedge $-1 $272 $272 $273 $415 reversed $169 $-1 #
coedge $-1 $273 $273 $272 $415 forward $171 $-1 #
coedge $-1 $274 $274 $172 $275 forward $269 $-1 #
edge $-1 $416 -9.1206430623589562e-017 $416 6.2831853071796004 $274 $417 forward 7 unknown #
loop $-1 $-1 $281 $173 #
plane-surface $-1 22.801325450407646 -15.267223578660563 45.359930409491952 0 0.66913061440640931 0.74314481823134659 1 0 0 forward_v I I I I #
loop $-1 $-1 $418 $110 #
coedge $-1 $279 $279 $280 $419 reversed $174 $-1 #
coedge $-1 $280 $280 $279 $419 forward $176 $-1 #
coedge $-1 $281 $281 $177 $282 forward $276 $-1 #
edge $-1 $420 -9.1206430623589562e-017 $420 6.2831853071796004 $281 $421 forward 7 unknown #
face $-1 $422 $423 $59 $-1 $424 reversed single #
loop $-1 $-1 $289 $178 #
plane-surface $-1 0 0 7.9160459106732537 0 0 1 1 0 0 forward_v I I I I #
coedge $-1 $425 $426 $427 $428 reversed $179 $-1 #
coedge $-1 $288 $181 $429 $430 reversed $114 $-1 #
coedge $-1 $181 $287 $425 $431 reversed $114 $-1 #
coedge $-1 $427 $432 $181 $290 forward $284 $-1 #
edge $-1 $433 1.5587606624674102 $434 6.6356683493183795 $289 $435 forward 7 unknown #
loop $-1 $-1 $296 $182 #
plane-surface $-1 50.922749148490098 -15.267223578660563 45.359930409491952 0 0.66913061440640931 0.74314481823134659 1 0 0 forward_v I I I I #
loop $-1 $-1 $436 $116 #
coedge $-1 $294 $294 $295 $437 reversed $183 $-1 #
coedge $-1 $295 $295 $294 $437 forward $185 $-1 #
coedge $-1 $296 $296 $186 $297 forward $291 $-1 #
edge $-1 $438 -9.1206430623589562e-017 $438 6.2831853071796004 $296 $439 forward 7 unknown #
loop $-1 $-1 $303 $187 #
plane-surface $-1 50.922749148490098 -15.267223578660563 45.359930409491952 0 0.66913061440640931 0.74314481823134659 1 0 0 forward_v I I I I #
loop $-1 $-1 $440 $119 #
coedge $-1 $301 $301 $302 $441 reversed $188 $-1 #
coedge $-1 $302 $302 $301 $441 forward $190 $-1 #
coedge $-1 $303 $303 $191 $304 forward $298 $-1 #
edge $-1 $442 -9.1206430623589562e-017 $442 6.2831853071796004 $303 $443 forward 7 unknown #
face $-1 $444 $445 $62 $-1 $446 forward single #
loop $-1 $-1 $447 $192 #
plane-surface $-1 -30.970188250678603 -99.233671046356761 104.11714249144921 1 0 0 0 0.55919291073839883 -0.82903756765294845 forward_v I I I I #
coedge $-1 $448 $449 $450 $451 reversed $193 $-1 #
coedge $-1 $310 $195 $452 $453 reversed $123 $-1 #
coedge $-1 $195 $309 $448 $454 reversed $123 $-1 #
coedge $-1 $450 $455 $195 $312 forward $445 $-1 #
edge $-1 $456 18.22150559240816 $457 24.705305325269947 $311 $458 forward 7 unknown #
loop $-1 $-1 $318 $196 #
plane-surface $-1 -15.400804545231267 -31.395329930770231 3.542667686658163 0 -0.55919291073839883 0.82903756765294845 1 0 0 forward_v I I I I #
loop $-1 $-1 $459 $125 #
coedge $-1 $316 $316 $317 $460 reversed $197 $-1 #
coedge $-1 $317 $317 $316 $460 forward $199 $-1 #
coedge $-1 $318 $318 $200 $319 forward $313 $-1 #
edge $-1 $461 -6.0059911905536441e-016 $461 6.2831853071795996 $318 $462 forward 7 unknown #
face $-1 $463 $464 $48 $-1 $465 reversed single #
loop $-1 $-1 $466 $201 #
plane-surface $-1 -60.657368694112975 0 0 1 0 0 0 0 -1 forward_v I I I I #
coedge $-1 $467 $331 $468 $469 forward $202 $-1 #
coedge $-1 $470 $204 $467 $471 forward $129 $-1 #
coedge $-1 $204 $470 $472 $473 forward $129 $-1 #
coedge $-1 $334 $333 $204 $327 reversed $335 $-1 #
edge $-1 $474 -31.39532993077022 $475 31.39532993077022 $326 $476 forward 7 unknown #
coedge $-1 $206 $205 $477 $478 forward $81 $-1 #
coedge $-1 $479 $480 $205 $330 reversed $464 $-1 #
edge $-1 $337 -60.657368694112975 $481 60.657368694112975 $329 $482 forward 7 unknown #
coedge $-1 $323 $483 $206 $332 reversed $202 $-1 #
edge $-1 $484 -60.657368694112975 $336 60.657368694112975 $331 $485 forward 7 unknown #
coedge $-1 $326 $207 $483 $486 forward $335 $-1 #
coedge $-1 $207 $326 $479 $487 reversed $335 $-1 #
loop $-1 $-1 $333 $463 #
vertex $-1 $208 $488 #
vertex $-1 $208 $489 #
straight-curve $-1 60.657368694112975 0 7.9160459106732537 0 1 0 I I #
face $-1 $490 $491 $49 $-1 $492 reversed single #
loop $-1 $-1 $493 $209 #
plane-surface $-1 -69.486411290009116 0 -5.5580465176520342 1 0 0 0 0 -1 forward_v I I I I #
coedge $-1 $494 $212 $495 $496 reversed $133 $-1 #
coedge $-1 $212 $494 $348 $497 reversed $133 $-1 #
edge $-1 $350 3.2000471246308151 $498 7.9160459106732537 $212 $499 forward 7 unknown #
coedge $-1 $214 $213 $500 $501 reversed $84 $-1 #
coedge $-1 $502 $503 $213 $347 forward $504 $-1 #
edge $-1 $505 -7.9160459106732537 $351 -3.2000471246308151 $346 $506 forward 7 unknown #
coedge $-1 $507 $215 $343 $497 forward $210 $-1 #
coedge $-1 $215 $507 $502 $508 forward $210 $-1 #
vertex $-1 $344 $509 #
vertex $-1 $508 $510 #
straight-curve $-1 -60.657368694112975 0 -3.2000471246308151 0 -1 0 I I #
face $-1 $-1 $511 $50 $-1 $512 reversed single #
loop $-1 $-1 $223 $217 #
plane-surface $-1 0 0 7.9160459106732537 0 0 1 1 0 0 forward_v I I I I #
coedge $-1 $513 $514 $515 $516 reversed $218 $-1 #
coedge $-1 $517 $220 $222 $363 forward $137 $-1 #
coedge $-1 $220 $517 $513 $518 forward $137 $-1 #
coedge $-1 $515 $223 $220 $360 forward $354 $-1 #
edge $-1 $366 -26.455380518501507 $519 -6.986141427255756 $359 $520 forward 7 unknown #
coedge $-1 $521 $522 $221 $362 forward $511 $-1 #
edge $-1 $523 -64.412396839968807 $365 -59.841128526651083 $361 $524 forward 7 unknown #
edge $-1 $366 55.959006646311408 $523 62.790659861540441 $222 $525 forward 7 unknown #
coedge $-1 $223 $515 $521 $526 forward $354 $-1 #
vertex $-1 $362 $527 #
vertex $-1 $224 $528 #
straight-curve $-1 -43.176141491380136 32.95409059323763 7.9160459106732546 0 -1 0 I I #
coedge $-1 $368 $368 $-1 $529 reversed $227 $-1 #
edge $-1 $530 0 $530 6.2831853071796004 $228 $531 forward 7 unknown #
vertex $-1 $231 $532 #
ellipse-curve $-1 -37.613501751024209 28.856876087344727 5.6304117540143928 0 0.66913061440640931 0.74314481823134659 1.5 0 0 1 I I #
coedge $-1 $372 $372 $-1 $533 reversed $234 $-1 #
edge $-1 $534 0 $534 6.2831853071796004 $235 $535 forward 7 unknown #
vertex $-1 $238 $536 #
ellipse-curve $-1 -29.269542140490316 28.856876087344727 5.6304117540143928 0 0.66913061440640931 0.74314481823134659 1.5 0 0 1 I I #
face $-1 $-1 $537 $53 $-1 $538 reversed single #
loop $-1 $-1 $245 $239 #
plane-surface $-1 0 0 7.9160459106732537 0 0 1 1 0 0 forward_v I I I I #
coedge $-1 $539 $540 $541 $542 reversed $240 $-1 #
coedge $-1 $543 $242 $244 $386 forward $151 $-1 #
coedge $-1 $242 $543 $539 $544 forward $151 $-1 #
coedge $-1 $541 $245 $242 $383 forward $377 $-1 #
edge $-1 $389 -12.394668669460277 $545 7.0745704217854701 $382 $546 forward 7 unknown #
coedge $-1 $547 $548 $243 $385 forward $537 $-1 #
edge $-1 $549 -64.412396839968807 $388 -59.841128526651083 $384 $550 forward 7 unknown #
edge $-1 $389 55.959006646311408 $549 62.790659861540441 $244 $551 forward 7 unknown #
coedge $-1 $245 $541 $547 $552 forward $377 $-1 #
vertex $-1 $246 $553 #
vertex $-1 $246 $554 #
straight-curve $-1 -15.05471779329768 32.95409059323763 7.9160459106732546 0 -1 0 I I #
coedge $-1 $391 $391 $-1 $555 reversed $249 $-1 #
edge $-1 $556 0 $556 6.2831853071796004 $250 $557 forward 7 unknown #
vertex $-1 $253 $558 #
ellipse-curve $-1 -9.492078052941757 28.856876087344727 5.6304117540143928 0 0.66913061440640931 0.74314481823134659 1.5 0 0 1 I I #
coedge $-1 $395 $395 $-1 $559 reversed $256 $-1 #
edge $-1 $560 0 $560 6.2831853071796004 $257 $561 forward 7 unknown #
vertex $-1 $260 $562 #
ellipse-curve $-1 -1.1481184424078634 28.856876087344727 5.6304117540143928 0 0.66913061440640931 0.74314481823134659 1.5 0 0 1 I I #
face $-1 $-1 $563 $56 $-1 $564 reversed single #
loop $-1 $-1 $267 $261 #
plane-surface $-1 0 0 7.9160459106732537 0 0 1 1 0 0 forward_v I I I I #
coedge $-1 $565 $566 $567 $568 reversed $262 $-1 #
coedge $-1 $569 $264 $266 $409 forward $165 $-1 #
coedge $-1 $264 $569 $565 $570 forward $165 $-1 #
coedge $-1 $567 $267 $264 $406 forward $400 $-1 #
edge $-1 $412 1.6660431795809494 $571 21.1352822708267 $405 $572 forward 7 unknown #
coedge $-1 $573 $574 $265 $408 forward $563 $-1 #
edge $-1 $575 -64.412396839968807 $411 -59.841128526651083 $407 $576 forward 7 unknown #
edge $-1 $412 55.959006646311408 $575 62.790659861540441 $266 $577 forward 7 unknown #
coedge $-1 $267 $567 $573 $578 forward $400 $-1 #
vertex $-1 $268 $579 #
vertex $-1 $268 $580 #
straight-curve $-1 13.066705904784772 32.95409059323763 7.9160459106732546 0 -1 0 I I #
coedge $-1 $414 $414 $-1 $581 reversed $271 $-1 #
edge $-1 $582 0 $582 6.2831853071796004 $272 $583 forward 7 unknown #
vertex $-1 $275 $584 #
ellipse-curve $-1 18.629345645140702 28.856876087344727 5.6304117540143928 0 0.66913061440640931 0.74314481823134659 1.5 0 0 1 I I #
coedge $-1 $418 $418 $-1 $585 reversed $278 $-1 #
edge $-1 $586 0 $586 6.2831853071796004 $279 $587 forward 7 unknown #
vertex $-1 $282 $588 #
ellipse-curve $-1 26.973305255674589 28.856876087344727 5.6304117540143928 0 0.66913061440640931 0.74314481823134659 1.5 0 0 1 I I #
face $-1 $-1 $589 $59 $-1 $590 reversed single #
loop $-1 $-1 $591 $283 #
plane-surface $-1 60.657368694112975 0 0 -1 0 0 0 0 1 forward_v I I I I #
coedge $-1 $592 $286 $288 $431 forward $179 $-1 #
coedge $-1 $286 $592 $591 $593 reversed $179 $-1 #
coedge $-1 $594 $289 $286 $428 forward $284 $-1 #
edge $-1 $434 15.726755028622172 $595 35.195994119867926 $427 $596 forward 7 unknown #
coedge $-1 $597 $598 $287 $430 forward $589 $-1 #
edge $-1 $599 -64.412396839968807 $433 -59.841128526651083 $429 $600 forward 7 unknown #
edge $-1 $434 55.959006646311408 $599 62.790659861540441 $288 $601 forward 7 unknown #
coedge $-1 $289 $594 $597 $602 forward $284 $-1 #
vertex $-1 $430 $603 #
vertex $-1 $290 $604 #
straight-curve $-1 41.188129602867221 32.95409059323763 7.9160459106732546 0 -1 0 I I #
coedge $-1 $436 $436 $-1 $605 reversed $293 $-1 #
edge $-1 $606 0 $606 6.2831853071796004 $294 $607 forward 7 unknown #
vertex $-1 $297 $608 #
ellipse-curve $-1 46.750769343223155 28.856876087344727 5.6304117540143928 0 0.66913061440640931 0.74314481823134659 1.5 0 0 1 I I #
coedge $-1 $440 $440 $-1 $609 reversed $300 $-1 #
edge $-1 $610 0 $610 6.2831853071796004 $301 $611 forward 7 unknown #
vertex $-1 $304 $612 #
ellipse-curve $-1 55.094728953757041 28.856876087344727 5.6304117540143928 0 0.66913061440640931 0.74314481823134659 1.5 0 0 1 I I #
face $-1 $-1 $613 $62 $-1 $614 reversed single #
loop $-1 $-1 $311 $305 #
plane-surface $-1 0 0 7.9160459106732537 0 0 1 1 0 0 forward_v I I I I #
coedge $-1 $615 $616 $617 $618 reversed $306 $-1 #
coedge $-1 $619 $308 $310 $454 forward $193 $-1 #
coedge $-1 $308 $619 $615 $620 forward $193 $-1 #
coedge $-1 $617 $311 $308 $451 forward $445 $-1 #
edge $-1 $457 -7.8689814328317027 $621 23.26978597806297 $450 $622 forward 7 unknown #
coedge $-1 $623 $624 $309 $453 forward $613 $-1 #
edge $-1 $625 -48.515903559066437 $456 -44.142525335051353 $452 $626 forward 7 unknown #
edge $-1 $457 -7.820875658527509 $625 -1.2809303926657532e-014 $310 $627 forward 7 unknown #
coedge $-1 $311 $617 $623 $628 forward $445 $-1 #
vertex $-1 $453 $629 #
vertex $-1 $312 $630 #
straight-curve $-1 0.16857916021606911 -49.616835523178381 7.9160459106732546 0 1 0 I I #
coedge $-1 $459 $459 $-1 $631 reversed $315 $-1 #
edge $-1 $632 0 $632 6.2831853071796004 $316 $633 forward 7 unknown #
vertex $-1 $319 $634 #
ellipse-curve $-1 -15.400804545231267 -28.153430064339318 5.7293567986657168 0 -0.55919291073839883 0.82903756765294845 1 0 0 1 I I #
face $-1 $-1 $335 $48 $-1 $635 reversed single #
loop $-1 $-1 $479 $320 #
plane-surface $-1 0 31.39532993077022 0 0 -1 0 0 0 -1 forward_v I I I I #
coedge $-1 $636 $477 $480 $637 forward $321 $-1 #
coedge $-1 $483 $323 $324 $471 reversed $202 $-1 #
coedge $-1 $477 $636 $323 $469 reversed $321 $-1 #
edge $-1 $484 -7.9160459106732537 $638 7.9160459106732537 $468 $639 forward 7 unknown #
coedge $-1 $325 $324 $636 $640 forward $129 $-1 #
edge $-1 $475 -60.657368694112975 $638 60.657368694112975 $467 $641 forward 7 unknown #
coedge $-1 $480 $479 $325 $473 reversed $464 $-1 #
edge $-1 $642 -60.657368694112975 $474 60.657368694112975 $472 $643 forward 7 unknown #
vertex $-1 $327 $644 #
vertex $-1 $486 $645 #
straight-curve $-1 60.657368694112975 0 -7.9160459106732537 0 -1 0 I I #
coedge $-1 $466 $468 $328 $478 reversed $321 $-1 #
edge $-1 $481 -31.39532993077022 $484 31.39532993077022 $477 $646 forward 7 unknown #
coedge $-1 $472 $329 $334 $487 forward $464 $-1 #
coedge $-1 $329 $472 $466 $637 reversed $464 $-1 #
vertex $-1 $330 $647 #
straight-curve $-1 0 31.39532993077022 7.9160459106732537 -1 0 0 I I #
coedge $-1 $331 $467 $333 $486 reversed $202 $-1 #
vertex $-1 $478 $648 #
straight-curve $-1 0 -31.39532993077022 7.9160459106732537 1 0 0 I I #
edge $-1 $336 -7.9160459106732537 $475 7.9160459106732537 $333 $649 forward 7 unknown #
edge $-1 $337 -7.9160459106732537 $474 7.9160459106732537 $334 $650 forward 7 unknown #
point $-1 60.657368694112975 -31.39532993077022 7.9160459106732537 #
point $-1 60.657368694112975 31.39532993077022 7.9160459106732537 #
face $-1 $-1 $504 $49 $-1 $651 reversed single #
loop $-1 $-1 $500 $339 #
plane-surface $-1 0 0 -7.9160459106732537 0 0 1 1 0 0 forward_v I I I I #
coedge $-1 $652 $653 $494 $654 forward $340 $-1 #
coedge $-1 $343 $342 $493 $654 reversed $133 $-1 #
coedge $-1 $500 $655 $342 $496 forward $491 $-1 #
edge $-1 $656 -69.486411290009116 $498 -60.657368694112975 $342 $657 forward 7 unknown #
edge $-1 $350 -4.4145212979480704 $658 4.4145212979480704 $343 $659 forward 7 unknown #
vertex $-1 $344 $660 #
straight-curve $-1 -60.657368694112975 31.39532993077022 0 0 0 -1 I I #
coedge $-1 $661 $495 $345 $501 forward $491 $-1 #
edge $-1 $498 -31.39532993077022 $505 31.39532993077022 $500 $662 forward 7 unknown #
coedge $-1 $663 $346 $349 $508 reversed $504 $-1 #
coedge $-1 $346 $663 $661 $664 reversed $504 $-1 #
loop $-1 $-1 $346 $490 #
vertex $-1 $664 $665 #
straight-curve $-1 -60.657368694112975 -31.39532993077022 0 0 0 1 I I #
coedge $-1 $349 $348 $653 $666 forward $210 $-1 #
edge $-1 $667 -4.4145212979480704 $351 4.4145212979480704 $502 $668 forward 7 unknown #
point $-1 -60.657368694112975 31.39532993077022 -3.2000471246308151 #
point $-1 -60.657368694112975 -31.39532993077022 -3.2000471246308151 #
loop $-1 $-1 $361 $353 #
plane-surface $-1 0 31.39532993077022 0 0 -1 0 0 0 -1 forward_v I I I I #
coedge $-1 $514 $356 $358 $518 reversed $218 $-1 #
coedge $-1 $356 $513 $669 $670 reversed $218 $-1 #
coedge $-1 $364 $359 $356 $516 forward $354 $-1 #
edge $-1 $519 -6.6356683493183795 $671 -1.5587606624674102 $515 $672 forward 7 unknown #
coedge $-1 $358 $357 $522 $673 reversed $137 $-1 #
edge $-1 $674 -62.790659861540441 $519 -55.959006646311408 $513 $675 forward 7 unknown #
vertex $-1 $360 $676 #
straight-curve $-1 -16.72076097287863 26.318422243919247 7.9160459106732546 1 0 0 I I #
coedge $-1 $669 $361 $364 $526 reversed $511 $-1 #
coedge $-1 $361 $669 $517 $673 forward $511 $-1 #
vertex $-1 $362 $677 #
straight-curve $-1 -43.176141491380136 31.39532993077022 67.757174437324338 0 0 1 I I #
straight-curve $-1 -43.176141491380136 -15.267223578660563 45.359930409491952 0 0.74314481823134659 -0.66913061440640931 I I #
edge $-1 $671 23.706902400134386 $365 43.176141491380136 $521 $678 forward 7 unknown #
point $-1 -43.176141491380136 31.39532993077022 7.9160459106732537 #
point $-1 -43.176141491380136 26.318422243919251 7.9160459106732546 #
edge $-1 $679 1 $679 0 $368 $-1 forward 7 unknown #
vertex $-1 $369 $680 #
ellipse-curve $-1 -37.613501751024209 27.533940720713751 4.1611432115207272 0 0.66913061440640931 0.74314481823134659 1.5 0 0 1 I I #
point $-1 -36.113501751024209 28.856876087344741 5.6304117540144087 #
edge $-1 $681 1 $681 0 $372 $-1 forward 7 unknown #
vertex $-1 $373 $682 #
ellipse-curve $-1 -29.269542140490316 27.533940720713751 4.1611432115207272 0 0.66913061440640931 0.74314481823134659 1.5 0 0 1 I I #
point $-1 -27.769542140490316 28.856876087344741 5.6304117540144087 #
loop $-1 $-1 $384 $376 #
plane-surface $-1 0 31.39532993077022 0 0 -1 0 0 0 -1 forward_v I I I I #
coedge $-1 $540 $379 $381 $544 reversed $240 $-1 #
coedge $-1 $379 $539 $683 $684 reversed $240 $-1 #
coedge $-1 $387 $382 $379 $542 forward $377 $-1 #
edge $-1 $545 -6.6356683493183795 $685 -1.5587606624674102 $541 $686 forward 7 unknown #
coedge $-1 $381 $380 $548 $687 reversed $151 $-1 #
edge $-1 $688 -62.790659861540441 $545 -55.959006646311408 $539 $689 forward 7 unknown #
vertex $-1 $383 $690 #
straight-curve $-1 -2.6600491238374033 26.318422243919247 7.9160459106732546 1 0 0 I I #
coedge $-1 $683 $384 $387 $552 reversed $537 $-1 #
coedge $-1 $384 $683 $543 $687 forward $537 $-1 #
vertex $-1 $385 $691 #
straight-curve $-1 -15.05471779329768 31.39532993077022 67.757174437324338 0 0 1 I I #
straight-curve $-1 -15.05471779329768 -15.267223578660563 45.359930409491952 0 0.74314481823134659 -0.66913061440640931 I I #
edge $-1 $685 -4.4145212979480668 $388 15.05471779329768 $547 $692 forward 7 unknown #
point $-1 -15.05471779329768 31.39532993077022 7.9160459106732537 #
point $-1 -15.05471779329768 26.318422243919251 7.9160459106732546 #
edge $-1 $693 1 $693 0 $391 $-1 forward 7 unknown #
vertex $-1 $392 $694 #
ellipse-curve $-1 -9.492078052941757 27.533940720713751 4.1611432115207272 0 0.66913061440640931 0.74314481823134659 1.5 0 0 1 I I #
point $-1 -7.992078052941757 28.856876087344741 5.6304117540144087 #
edge $-1 $695 1 $695 0 $395 $-1 forward 7 unknown #
vertex $-1 $396 $696 #
ellipse-curve $-1 -1.1481184424078634 27.533940720713751 4.1611432115207272 0 0.66913061440640931 0.74314481823134659 1.5 0 0 1 I I #
point $-1 0.35188155759213657 28.856876087344741 5.6304117540144087 #
loop $-1 $-1 $407 $399 #
plane-surface $-1 0 31.39532993077022 0 0 -1 0 0 0 -1 forward_v I I I I #
coedge $-1 $566 $402 $404 $570 reversed $262 $-1 #
coedge $-1 $402 $565 $697 $698 reversed $262 $-1 #
coedge $-1 $410 $405 $402 $568 forward $400 $-1 #
edge $-1 $571 -6.6356683493183795 $699 -1.5587606624674102 $567 $700 forward 7 unknown #
coedge $-1 $404 $403 $574 $701 reversed $165 $-1 #
edge $-1 $702 -62.790659861540441 $571 -55.959006646311408 $565 $703 forward 7 unknown #
vertex $-1 $406 $704 #
straight-curve $-1 11.400662725203823 26.318422243919247 7.9160459106732546 1 0 0 I I #
coedge $-1 $697 $407 $410 $578 reversed $563 $-1 #
coedge $-1 $407 $697 $569 $701 forward $563 $-1 #
vertex $-1 $408 $705 #
straight-curve $-1 13.066705904784772 31.39532993077022 67.757174437324338 0 0 1 I I #
straight-curve $-1 13.066705904784772 -15.267223578660563 45.359930409491952 0 0.74314481823134659 -0.66913061440640931 I I #
edge $-1 $699 -32.535944996030523 $411 -13.066705904784772 $573 $706 forward 7 unknown #
point $-1 13.066705904784772 31.39532993077022 7.9160459106732537 #
point $-1 13.066705904784772 26.318422243919251 7.9160459106732546 #
edge $-1 $707 1 $707 0 $414 $-1 forward 7 unknown #
vertex $-1 $415 $708 #
ellipse-curve $-1 18.629345645140702 27.533940720713751 4.1611432115207272 0 0.66913061440640931 0.74314481823134659 1.5 0 0 1 I I #
point $-1 20.129345645140702 28.856876087344741 5.6304117540144087 #
edge $-1 $709 1 $709 0 $418 $-1 forward 7 unknown #
vertex $-1 $419 $710 #
ellipse-curve $-1 26.973305255674589 27.533940720713751 4.1611432115207272 0 0.66913061440640931 0.74314481823134659 1.5 0 0 1 I I #
point $-1 28.473305255674589 28.856876087344741 5.6304117540144087 #
loop $-1 $-1 $429 $422 #
plane-surface $-1 0 31.39532993077022 0 0 -1 0 0 0 -1 forward_v I I I I #
coedge $-1 $711 $712 $426 $593 forward $423 $-1 #
coedge $-1 $426 $425 $598 $713 reversed $179 $-1 #
edge $-1 $595 35.11026854851324 $714 41.941921763742258 $591 $715 forward 7 unknown #
coedge $-1 $432 $427 $712 $716 forward $284 $-1 #
vertex $-1 $716 $717 #
straight-curve $-1 25.461374574245049 26.318422243919247 7.9160459106732546 1 0 0 I I #
coedge $-1 $718 $429 $432 $602 reversed $589 $-1 #
coedge $-1 $429 $718 $592 $713 forward $589 $-1 #
vertex $-1 $430 $719 #
straight-curve $-1 41.188129602867221 31.39532993077022 67.757174437324338 0 0 1 I I #
straight-curve $-1 41.188129602867221 -15.267223578660563 45.359930409491952 0 0.74314481823134659 -0.66913061440640931 I I #
edge $-1 $720 -60.657368694112975 $433 -41.188129602867221 $597 $721 forward 7 unknown #
point $-1 41.188129602867221 31.39532993077022 7.9160459106732537 #
point $-1 41.188129602867221 26.318422243919251 7.9160459106732546 #
edge $-1 $722 1 $722 0 $436 $-1 forward 7 unknown #
vertex $-1 $437 $723 #
ellipse-curve $-1 46.750769343223155 27.533940720713751 4.1611432115207272 0 0.66913061440640931 0.74314481823134659 1.5 0 0 1 I I #
point $-1 48.250769343223155 28.856876087344741 5.6304117540144087 #
edge $-1 $724 1 $724 0 $440 $-1 forward 7 unknown #
vertex $-1 $441 $725 #
ellipse-curve $-1 55.094728953757041 27.533940720713751 4.1611432115207272 0 0.66913061440640931 0.74314481823134659 1.5 0 0 1 I I #
point $-1 56.594728953757041 28.856876087344741 5.6304117540144087 #
loop $-1 $-1 $452 $444 #
plane-surface $-1 0 -31.39532993077022 0 0 1 0 0 0 1 forward_v I I I I #
coedge $-1 $616 $447 $449 $620 reversed $306 $-1 #
coedge $-1 $447 $615 $726 $727 reversed $306 $-1 #
coedge $-1 $455 $450 $447 $618 forward $445 $-1 #
edge $-1 $621 -24.705305325269947 $728 -18.22150559240816 $617 $729 forward 7 unknown #
coedge $-1 $449 $448 $624 $730 reversed $193 $-1 #
edge $-1 $731 1.2809303926657532e-014 $621 7.820875658527509 $615 $732 forward 7 unknown #
vertex $-1 $451 $733 #
straight-curve $-1 -7.7004022726156336 -24.911530197908434 7.9160459106732537 -1 0 0 I I #
coedge $-1 $726 $452 $455 $628 reversed $613 $-1 #
coedge $-1 $452 $726 $619 $730 forward $613 $-1 #
vertex $-1 $453 $734 #
straight-curve $-1 0.16857916021606911 -31.395329930770217 52.058571245724607 0 0 1 I I #
straight-curve $-1 0.16857916021606911 -31.395329930770231 3.542667686658163 0 -0.82903756765294845 -0.55919291073839883 I I #
edge $-1 $728 -30.970188250678603 $456 0.16857916021606911 $623 $735 forward 7 unknown #
point $-1 0.16857916021606911 -31.39532993077022 7.9160459106732537 #
point $-1 0.16857916021606911 -24.911530197908434 7.9160459106732537 #
edge $-1 $736 1 $736 0 $459 $-1 forward 7 unknown #
vertex $-1 $460 $737 #
ellipse-curve $-1 -15.400804545231267 -27.170375514634582 4.2719185209142907 0 -0.55919291073839883 0.82903756765294845 1 0 0 1 I I #
point $-1 -14.400804545231267 -28.153430064339307 5.7293567986656999 #
plane-surface $-1 60.657368694112975 0 0 -1 0 0 0 0 1 forward_v I I I I #
coedge $-1 $468 $466 $470 $640 reversed $321 $-1 #
edge $-1 $481 -7.9160459106732537 $642 7.9160459106732537 $480 $738 forward 7 unknown #
vertex $-1 $640 $739 #
straight-curve $-1 -60.657368694112975 -31.39532993077022 0 0 0 -1 I I #
edge $-1 $638 -31.39532993077022 $642 31.39532993077022 $636 $740 forward 7 unknown #
straight-curve $-1 0 -31.39532993077022 -7.9160459106732537 -1 0 0 I I #
vertex $-1 $473 $741 #
straight-curve $-1 0 31.39532993077022 -7.9160459106732537 1 0 0 I I #
point $-1 60.657368694112975 31.39532993077022 -7.9160459106732537 #
point $-1 60.657368694112975 -31.39532993077022 -7.9160459106732537 #
straight-curve $-1 -60.657368694112975 0 7.9160459106732537 0 -1 0 I I #
point $-1 -60.657368694112975 31.39532993077022 7.9160459106732537 #
point $-1 -60.657368694112975 -31.39532993077022 7.9160459106732537 #
straight-curve $-1 60.657368694112975 -31.39532993077022 0 0 0 -1 I I #
straight-curve $-1 60.657368694112975 31.39532993077022 0 0 0 -1 I I #
plane-surface $-1 0 -31.39532993077022 0 0 1 0 0 0 1 forward_v I I I I #
coedge $-1 $742 $493 $655 $743 reversed $340 $-1 #
coedge $-1 $493 $742 $507 $666 reversed $340 $-1 #
edge $-1 $658 -2.3579993930212191 $656 2.3579993930212186 $494 $744 forward 7 unknown #
coedge $-1 $495 $661 $652 $743 forward $491 $-1 #
vertex $-1 $496 $745 #
straight-curve $-1 0 31.39532993077022 -7.9160459106732537 1 0 0 I I #
vertex $-1 $497 $746 #
straight-curve $-1 -65.071889992061045 31.39532993077022 -3.2000471246308151 -1 0 0 I I #
point $-1 -60.657368694112975 31.39532993077022 -7.9160459106732537 #
coedge $-1 $655 $500 $503 $664 forward $491 $-1 #
straight-curve $-1 -60.657368694112975 0 -7.9160459106732537 0 -1 0 I I #
coedge $-1 $503 $502 $742 $747 forward $504 $-1 #
edge $-1 $505 -4.4145212979480704 $748 4.4145212979480704 $503 $749 forward 7 unknown #
point $-1 -60.657368694112975 -31.39532993077022 -7.9160459106732537 #
edge $-1 $658 -31.39532993077022 $667 31.39532993077022 $653 $750 forward 7 unknown #
vertex $-1 $666 $751 #
straight-curve $-1 -65.071889992061045 -31.39532993077022 -3.2000471246308151 1 0 0 I I #
coedge $-1 $522 $521 $514 $670 forward $511 $-1 #
edge $-1 $671 59.841128526651083 $674 64.412396839968807 $669 $752 forward 7 unknown #
vertex $-1 $526 $753 #
straight-curve $-1 -23.706902400134386 32.95409059323763 7.9160459106732546 0 1 0 I I #
edge $-1 $674 6.986141427255756 $523 26.455380518501507 $522 $754 forward 7 unknown #
vertex $-1 $673 $755 #
straight-curve $-1 -23.706902400134386 -15.267223578660563 45.359930409491952 0 -0.74314481823134659 0.66913061440640931 I I #
point $-1 -23.706902400134386 26.318422243919251 7.9160459106732546 #
point $-1 -43.176141491380136 31.395329930770217 3.3447775973555309 #
straight-curve $-1 0 31.39532993077022 7.9160459106732537 -1 0 0 I I #
vertex $-1 $529 $756 #
point $-1 -36.113501751024209 27.533940720713751 4.1611432115207272 #
vertex $-1 $533 $757 #
point $-1 -27.769542140490316 27.533940720713751 4.1611432115207272 #
coedge $-1 $548 $547 $540 $684 forward $537 $-1 #
edge $-1 $685 59.841128526651083 $688 64.412396839968807 $683 $758 forward 7 unknown #
vertex $-1 $552 $759 #
straight-curve $-1 4.4145212979480668 32.95409059323763 7.9160459106732546 0 1 0 I I #
edge $-1 $688 -7.0745704217854701 $549 12.394668669460277 $548 $760 forward 7 unknown #
vertex $-1 $687 $761 #
straight-curve $-1 4.4145212979480668 -15.267223578660563 45.359930409491952 0 -0.74314481823134659 0.66913061440640931 I I #
point $-1 4.4145212979480668 26.318422243919251 7.9160459106732546 #
point $-1 -15.05471779329768 31.395329930770217 3.3447775973555309 #
straight-curve $-1 0 31.39532993077022 7.9160459106732537 -1 0 0 I I #
vertex $-1 $555 $762 #
point $-1 -7.992078052941757 27.533940720713751 4.1611432115207272 #
vertex $-1 $559 $763 #
point $-1 0.35188155759213657 27.533940720713751 4.1611432115207272 #
coedge $-1 $574 $573 $566 $698 forward $563 $-1 #
edge $-1 $699 59.841128526651083 $702 64.412396839968807 $697 $764 forward 7 unknown #
vertex $-1 $578 $765 #
straight-curve $-1 32.535944996030523 32.95409059323763 7.9160459106732546 0 1 0 I I #
edge $-1 $702 -21.1352822708267 $575 -1.6660431795809494 $574 $766 forward 7 unknown #
vertex $-1 $701 $767 #
straight-curve $-1 32.535944996030523 -15.267223578660563 45.359930409491952 0 -0.74314481823134659 0.66913061440640931 I I #
point $-1 32.535944996030523 26.318422243919251 7.9160459106732546 #
point $-1 13.066705904784772 31.395329930770217 3.3447775973555309 #
straight-curve $-1 0 31.39532993077022 7.9160459106732537 -1 0 0 I I #
vertex $-1 $581 $768 #
point $-1 20.129345645140702 27.533940720713751 4.1611432115207272 #
vertex $-1 $585 $769 #
point $-1 28.473305255674589 27.533940720713751 4.1611432115207272 #
coedge $-1 $712 $591 $718 $770 reversed $423 $-1 #
coedge $-1 $591 $711 $594 $716 reversed $423 $-1 #
edge $-1 $714 -35.195994119867926 $599 -15.726755028622172 $598 $771 forward 7 unknown #
vertex $-1 $593 $772 #
straight-curve $-1 60.657368694112975 0.22640810538061196 31.409401476513942 0 0.74314481823134659 -0.66913061440640931 I I #
edge $-1 $595 26.318422243919251 $720 31.39532993077022 $712 $773 forward 7 unknown #
point $-1 60.657368694112975 26.318422243919251 7.9160459106732546 #
coedge $-1 $598 $597 $711 $770 forward $589 $-1 #
point $-1 41.188129602867221 31.395329930770217 3.3447775973555309 #
vertex $-1 $716 $774 #
straight-curve $-1 0 31.39532993077022 7.9160459106732537 -1 0 0 I I #
vertex $-1 $605 $775 #
point $-1 48.250769343223155 27.533940720713751 4.1611432115207272 #
vertex $-1 $609 $776 #
point $-1 56.594728953757041 27.533940720713751 4.1611432115207272 #
coedge $-1 $624 $623 $616 $727 forward $613 $-1 #
edge $-1 $728 44.142525335051353 $731 48.515903559066437 $726 $777 forward 7 unknown #
vertex $-1 $628 $778 #
straight-curve $-1 -30.970188250678603 -49.616835523178381 7.9160459106732546 0 -1 0 I I #
edge $-1 $731 -23.26978597806297 $625 7.8689814328317027 $624 $779 forward 7 unknown #
vertex $-1 $730 $780 #
straight-curve $-1 -30.970188250678603 -31.395329930770231 3.542667686658163 0 0.82903756765294845 0.55919291073839883 I I #
point $-1 -30.970188250678603 -24.911530197908434 7.9160459106732537 #
point $-1 0.16857916021606911 -31.39532993077022 3.5426676866581701 #
straight-curve $-1 0 -31.39532993077022 7.9160459106732537 1 0 0 I I #
vertex $-1 $631 $781 #
point $-1 -14.400804545231267 -27.170375514634582 4.2719185209142907 #
straight-curve $-1 -60.657368694112975 31.39532993077022 0 0 0 -1 I I #
point $-1 -60.657368694112975 -31.39532993077022 -7.9160459106732537 #
straight-curve $-1 -60.657368694112975 0 -7.9160459106732537 0 1 0 I I #
point $-1 -60.657368694112975 31.39532993077022 -7.9160459106732537 #
coedge $-1 $653 $652 $663 $747 reversed $340 $-1 #
edge $-1 $748 -31.39532993077022 $656 31.39532993077022 $652 $782 forward 7 unknown #
straight-curve $-1 -69.486411290009116 31.39532993077022 -5.5580465176520342 0 0 -1 I I #
point $-1 -69.486411290009116 31.39532993077022 -7.9160459106732528 #
point $-1 -69.486411290009116 31.39532993077022 -3.2000471246308151 #
edge $-1 $667 -2.3579993930212191 $748 2.3579993930212186 $742 $783 forward 7 unknown #
vertex $-1 $743 $784 #
straight-curve $-1 -65.071889992061045 -31.39532993077022 -7.9160459106732528 -1 0 0 I I #
straight-curve $-1 -69.486411290009116 0 -3.2000471246308151 0 -1 0 I I #
point $-1 -69.486411290009116 -31.39532993077022 -3.2000471246308151 #
straight-curve $-1 -23.706902400134386 31.39532993077022 67.757174437324338 0 0 -1 I I #
point $-1 -23.706902400134386 31.39532993077022 7.9160459106732537 #
straight-curve $-1 -16.72076097287863 31.395329930770217 3.3447775973555345 -1 0 0 I I #
point $-1 -23.706902400134386 31.395329930770217 3.3447775973555309 #
point $-1 -37.613501751024209 26.530244799104139 3.0464259841737071 #
point $-1 -29.269542140490316 26.530244799104139 3.0464259841737071 #
straight-curve $-1 4.4145212979480668 31.39532993077022 67.757174437324338 0 0 -1 I I #
point $-1 4.4145212979480668 31.39532993077022 7.9160459106732537 #
straight-curve $-1 -2.6600491238374033 31.395329930770217 3.3447775973555345 -1 0 0 I I #
point $-1 4.4145212979480668 31.395329930770217 3.3447775973555309 #
point $-1 -9.492078052941757 26.530244799104139 3.0464259841737071 #
point $-1 -1.1481184424078634 26.530244799104139 3.0464259841737071 #
straight-curve $-1 32.535944996030523 31.39532993077022 67.757174437324338 0 0 -1 I I #
point $-1 32.535944996030523 31.39532993077022 7.9160459106732537 #
straight-curve $-1 11.400662725203823 31.395329930770217 3.3447775973555345 -1 0 0 I I #
point $-1 32.535944996030523 31.395329930770217 3.3447775973555309 #
point $-1 18.629345645140702 26.530244799104139 3.0464259841737071 #
point $-1 26.973305255674589 26.530244799104139 3.0464259841737071 #
edge $-1 $720 -7.9160459106732537 $714 -3.3447775973555309 $711 $785 forward 7 unknown #
straight-curve $-1 25.461374574245049 31.395329930770217 3.3447775973555345 -1 0 0 I I #
point $-1 60.657368694112975 31.395329930770217 3.3447775973555309 #
straight-curve $-1 60.657368694112975 0 7.9160459106732537 0 1 0 I I #
point $-1 60.657368694112975 31.39532993077022 7.9160459106732537 #
point $-1 46.750769343223155 26.530244799104139 3.0464259841737071 #
point $-1 55.094728953757041 26.530244799104139 3.0464259841737071 #
straight-curve $-1 -30.970188250678603 -31.395329930770217 52.058571245724607 0 0 -1 I I #
point $-1 -30.970188250678603 -31.39532993077022 7.9160459106732537 #
straight-curve $-1 -7.7004022726156336 -31.39532993077022 3.5426676866581692 1 0 0 I I #
point $-1 -30.970188250678603 -31.39532993077022 3.5426676866581701 #
point $-1 -15.400804545231267 -26.611182603896186 3.4428809532613425 #
straight-curve $-1 -69.486411290009116 0 -7.9160459106732528 0 1 0 I I #
straight-curve $-1 -69.486411290009116 -31.39532993077022 -5.5580465176520342 0 0 -1 I I #
point $-1 -69.486411290009116 -31.39532993077022 -7.9160459106732528 #
straight-curve $-1 60.657368694112975 31.39532993077022 0 0 0 -1 I I #
End-of-ACIS-data 