500 0 9 0           
7 Unknown 11 ACIS 5.0 NT 24 Fri Mar 26 18:45:12 1999 
-1 9.9999999999999995e-007 1e-010 
body $-1 $9 $-1 $10 #
body $-1 $11 $-1 $12 #
body $-1 $13 $-1 $14 #
body $-1 $15 $-1 $16 #
body $-1 $17 $-1 $18 #
body $-1 $19 $-1 $20 #
body $-1 $21 $-1 $22 #
body $-1 $23 $-1 $24 #
body $-1 $25 $-1 $26 #
lump $-1 $-1 $27 $0 #
transform $-1 1 0 0 0 1 0 0 0 1 60.512100589007233 24.282957300177465 11.407142812546514 1 rotate no_reflect no_shear #
lump $-1 $-1 $28 $1 #
transform $-1 1 0 0 0 1 0 0 0 1 60.512100589007233 24.282957300177465 11.407142812546514 1 rotate no_reflect no_shear #
lump $-1 $-1 $29 $2 #
transform $-1 1 0 0 0 1 0 0 0 1 60.512100589007233 24.282957300177465 11.407142812546514 1 rotate no_reflect no_shear #
lump $-1 $-1 $30 $3 #
transform $-1 1 0 0 0 1 0 0 0 1 60.512100589007233 24.282957300177465 11.407142812546514 1 rotate no_reflect no_shear #
lump $-1 $-1 $31 $4 #
transform $-1 1 0 0 0 1 0 0 0 1 60.512100589007233 24.282957300177465 11.407142812546514 1 rotate no_reflect no_shear #
lump $-1 $-1 $32 $5 #
transform $-1 1 0 0 0 1 0 0 0 1 60.512100589007233 24.282957300177465 11.407142812546514 1 rotate no_reflect no_shear #
lump $-1 $-1 $33 $6 #
transform $-1 1 0 0 0 1 0 0 0 1 60.512100589007233 24.282957300177465 11.407142812546514 1 rotate no_reflect no_shear #
lump $-1 $-1 $34 $7 #
transform $-1 1 0 0 0 1 0 0 0 1 60.512100589007233 24.282957300177465 11.407142812546514 1 rotate no_reflect no_shear #
lump $-1 $-1 $35 $8 #
transform $-1 1 0 0 0 1 0 0 0 1 60.512100589007233 24.282957300177465 11.407142812546514 1 rotate no_reflect no_shear #
shell $-1 $-1 $-1 $36 $-1 $9 #
shell $-1 $-1 $-1 $37 $-1 $11 #
shell $-1 $-1 $-1 $38 $-1 $13 #
shell $-1 $-1 $-1 $39 $-1 $15 #
shell $-1 $-1 $-1 $40 $-1 $17 #
shell $-1 $-1 $-1 $41 $-1 $19 #
shell $-1 $-1 $-1 $42 $-1 $21 #
shell $-1 $-1 $-1 $43 $-1 $23 #
shell $-1 $-1 $-1 $44 $-1 $25 #
face $-1 $45 $46 $27 $-1 $47 forward single #
face $-1 $48 $49 $28 $-1 $50 forward single #
face $-1 $51 $52 $29 $-1 $53 reversed single #
face $-1 $54 $55 $30 $-1 $56 forward single #
face $-1 $57 $58 $31 $-1 $59 forward single #
face $-1 $60 $61 $32 $-1 $62 forward single #
face $-1 $63 $64 $33 $-1 $65 reversed single #
face $-1 $66 $67 $34 $-1 $68 forward single #
face $-1 $69 $70 $35 $-1 $71 forward single #
face $-1 $72 $73 $27 $-1 $74 reversed single #
loop $-1 $-1 $75 $36 #
plane-surface $-1 0 0 11.407142812546514 0 0 1 1 0 0 forward_v I I I I #
face $-1 $76 $77 $28 $-1 $78 reversed single #
loop $-1 $-1 $79 $37 #
plane-surface $-1 0 -18.411998510038472 9.4107826049121091 0 0 1 1 0 0 forward_v I I I I #
face $-1 $80 $81 $29 $-1 $82 reversed single #
loop $-1 $-1 $83 $38 #
plane-surface $-1 54.538911699652061 2.7471098926220918 171.55294488449334 0 1 0 0.68199836817093118 0 0.7313536940579346 forward_v I I I I #
face $-1 $84 $85 $30 $-1 $86 forward single #
loop $-1 $87 $88 $39 #
cone-surface $-1 54.324546125376322 4.916685975045656 5.5894648442170336 -0.68199836817093118 0 -0.7313536940579346 0.3656768470289673 0 -0.34099918408546559 1 I I 0 1 0.5 forward I I I I #
face $-1 $89 $90 $31 $-1 $91 forward single #
loop $-1 $92 $93 $40 #
cone-surface $-1 54.324546125376322 8.1710500986810004 5.5894648442170336 -0.68199836817093118 0 -0.7313536940579346 0.3656768470289673 0 -0.34099918408546559 1 I I 0 1 0.5 forward I I I I #
face $-1 $94 $95 $32 $-1 $96 forward single #
loop $-1 $97 $98 $41 #
cone-surface $-1 54.324546125376322 11.425414222316348 5.5894648442170336 -0.68199836817093118 0 -0.7313536940579346 0.3656768470289673 0 -0.34099918408546559 1 I I 0 1 0.5 forward I I I I #
face $-1 $99 $100 $33 $-1 $101 reversed single #
loop $-1 $-1 $102 $42 #
plane-surface $-1 -160.84571153119509 17.578410386790534 68.762205060050974 0 1 0 -0.82903758062907751 0 0.55919289150049634 forward_v I I I I #
face $-1 $103 $104 $34 $-1 $105 forward single #
loop $-1 $106 $107 $43 #
cone-surface $-1 -56.493527499642653 19.4939952191868 5.8839626060501402 0.82903758062907751 0 -0.55919289150049634 0.27959644575024817 0 0.41451879031453875 1 I I 0 1 0.5 forward I I I I #
face $-1 $108 $109 $35 $-1 $110 forward single #
loop $-1 $111 $112 $44 #
cone-surface $-1 -56.493527499642653 22.367372467781202 5.8839626060501402 0.82903758062907751 0 -0.55919289150049634 0.27959644575024817 0 0.41451879031453875 1 I I 0 1 0.5 forward I I I I #
face $-1 $113 $114 $27 $-1 $115 reversed single #
loop $-1 $-1 $116 $45 #
plane-surface $-1 0 0 -11.407142812546514 0 0 1 1 0 0 forward_v I I I I #
coedge $-1 $117 $118 $119 $120 forward $46 $-1 #
face $-1 $121 $122 $28 $-1 $123 reversed single #
loop $-1 $-1 $124 $48 #
plane-surface $-1 0 -18.411998510038472 4.6768548912498868 0 0 1 1 0 0 forward_v I I I I #
coedge $-1 $125 $126 $127 $128 reversed $49 $-1 #
face $-1 $129 $130 $29 $-1 $131 reversed single #
loop $-1 $-1 $132 $51 #
plane-surface $-1 -27.999396012944288 8.1710500986810004 83.041448282541822 0.68199836817093118 0 0.7313536940579346 0.7313536940579346 0 -0.68199836817093118 forward_v I I I I #
coedge $-1 $133 $134 $135 $136 reversed $52 $-1 #
face $-1 $-1 $137 $30 $-1 $138 forward single #
loop $-1 $139 $140 $54 #
cone-surface $-1 53.813047349248123 4.916685975045656 5.0409495736735828 -0.68199836817093118 0 -0.7313536940579346 0.18283842351448365 0 -0.17049959204273279 1 I I -0.70710678118654746 0.70710678118654746 0.25 forward I I I I #
loop $-1 $-1 $141 $39 #
coedge $-1 $88 $88 $142 $143 reversed $55 $-1 #
face $-1 $-1 $144 $31 $-1 $145 forward single #
loop $-1 $146 $147 $57 #
cone-surface $-1 53.813047349248123 8.1710500986810004 5.0409495736735828 -0.68199836817093118 0 -0.7313536940579346 0.18283842351448365 0 -0.17049959204273279 1 I I -0.70710678118654746 0.70710678118654746 0.25 forward I I I I #
loop $-1 $-1 $148 $40 #
coedge $-1 $93 $93 $149 $150 reversed $58 $-1 #
face $-1 $-1 $151 $32 $-1 $152 forward single #
loop $-1 $153 $154 $60 #
cone-surface $-1 53.813047349248123 11.425414222316348 5.0409495736735828 -0.68199836817093118 0 -0.7313536940579346 0.18283842351448365 0 -0.17049959204273279 1 I I -0.70710678118654746 0.70710678118654746 0.25 forward I I I I #
loop $-1 $-1 $155 $41 #
coedge $-1 $98 $98 $156 $157 reversed $61 $-1 #
face $-1 $158 $159 $33 $-1 $160 forward single #
loop $-1 $-1 $161 $63 #
plane-surface $-1 -60.512100589007233 20.930683843483997 1.086332061779288 -0.82903758062907751 0 0.55919289150049634 0.55919289150049634 0 0.82903758062907751 forward_v I I I I #
coedge $-1 $162 $163 $164 $165 reversed $64 $-1 #
face $-1 $-1 $166 $34 $-1 $167 forward single #
loop $-1 $168 $169 $66 #
cone-surface $-1 -55.748432282767723 19.4939952191868 5.3813895520622559 0.82903758062907751 0 -0.55919289150049634 0.13979822287512408 0 0.20725939515726938 1 I I -0.70710678118654746 0.70710678118654746 0.25 forward I I I I #
loop $-1 $-1 $170 $43 #
coedge $-1 $107 $107 $171 $172 reversed $67 $-1 #
face $-1 $-1 $173 $35 $-1 $174 forward single #
loop $-1 $175 $176 $69 #
cone-surface $-1 -55.748432282767723 22.367372467781202 5.3813895520622559 0.82903758062907751 0 -0.55919289150049634 0.13979822287512408 0 0.20725939515726938 1 I I -0.70710678118654746 0.70710678118654746 0.25 forward I I I I #
loop $-1 $-1 $177 $44 #
coedge $-1 $112 $112 $178 $179 reversed $70 $-1 #
face $-1 $180 $181 $27 $-1 $182 reversed single #
loop $-1 $-1 $183 $72 #
plane-surface $-1 0 -24.282957300177465 0 0 1 0 0 0 1 forward_v I I I I #
coedge $-1 $184 $185 $186 $187 forward $73 $-1 #
coedge $-1 $188 $75 $189 $190 forward $46 $-1 #
coedge $-1 $75 $188 $191 $192 forward $46 $-1 #
coedge $-1 $193 $194 $75 $120 reversed $195 $-1 #
edge $-1 $196 -24.282957300177465 $197 24.282957300177465 $119 $198 forward 7 unknown #
face $-1 $199 $200 $28 $-1 $201 reversed single #
loop $-1 $-1 $202 $76 #
plane-surface $-1 0 -12.541039719899478 7.0438187480809979 0 -1 0 0 0 -1 forward_v I I I I #
coedge $-1 $203 $204 $205 $206 reversed $77 $-1 #
coedge $-1 $207 $79 $208 $209 forward $49 $-1 #
coedge $-1 $79 $207 $210 $211 reversed $49 $-1 #
coedge $-1 $212 $213 $79 $128 forward $214 $-1 #
edge $-1 $215 3.3350404648802421 $216 15.076958045158229 $127 $217 forward 7 unknown #
face $-1 $218 $219 $29 $-1 $220 forward single #
loop $-1 $-1 $221 $80 #
plane-surface $-1 54.538911699652061 13.594990304739909 171.55294488449334 0 -1 0 -0.68199836817093118 0 -0.7313536940579346 forward_v I I I I #
coedge $-1 $222 $223 $224 $225 reversed $81 $-1 #
coedge $-1 $134 $83 $226 $227 reversed $52 $-1 #
coedge $-1 $83 $133 $222 $228 reversed $52 $-1 #
coedge $-1 $224 $229 $83 $136 forward $230 $-1 #
edge $-1 $231 74.369329629700161 $232 85.273331872301199 $135 $233 forward 7 unknown #
loop $-1 $-1 $142 $84 #
plane-surface $-1 -27.999396012944288 8.1710500986810004 83.041448282541822 0.68199836817093118 0 0.7313536940579346 0.7313536940579346 0 -0.68199836817093118 forward_v I I I I #
loop $-1 $-1 $234 $54 #
coedge $-1 $140 $140 $141 $235 reversed $85 $-1 #
coedge $-1 $141 $141 $140 $235 forward $87 $-1 #
coedge $-1 $142 $142 $88 $143 forward $137 $-1 #
edge $-1 $236 0 $236 6.2831853071796004 $142 $237 forward 7 unknown #
loop $-1 $-1 $149 $89 #
plane-surface $-1 -27.999396012944288 8.1710500986810004 83.041448282541822 0.68199836817093118 0 0.7313536940579346 0.7313536940579346 0 -0.68199836817093118 forward_v I I I I #
loop $-1 $-1 $238 $57 #
coedge $-1 $147 $147 $148 $239 reversed $90 $-1 #
coedge $-1 $148 $148 $147 $239 forward $92 $-1 #
coedge $-1 $149 $149 $93 $150 forward $144 $-1 #
edge $-1 $240 0 $240 6.2831853071796004 $149 $241 forward 7 unknown #
loop $-1 $-1 $156 $94 #
plane-surface $-1 -27.999396012944288 8.1710500986810004 83.041448282541822 0.68199836817093118 0 0.7313536940579346 0.7313536940579346 0 -0.68199836817093118 forward_v I I I I #
loop $-1 $-1 $242 $60 #
coedge $-1 $154 $154 $155 $243 reversed $95 $-1 #
coedge $-1 $155 $155 $154 $243 forward $97 $-1 #
coedge $-1 $156 $156 $98 $157 forward $151 $-1 #
edge $-1 $244 0 $244 6.2831853071796004 $156 $245 forward 7 unknown #
face $-1 $246 $247 $33 $-1 $248 reversed single #
loop $-1 $-1 $164 $99 #
plane-surface $-1 0 0 11.407142812546514 0 0 1 1 0 0 forward_v I I I I #
coedge $-1 $249 $250 $251 $252 reversed $100 $-1 #
coedge $-1 $163 $102 $253 $254 reversed $64 $-1 #
coedge $-1 $102 $162 $249 $255 reversed $64 $-1 #
coedge $-1 $251 $256 $102 $165 forward $159 $-1 #
edge $-1 $257 19.910755176590314 $258 26.872229711884152 $164 $259 forward 7 unknown #
loop $-1 $-1 $171 $103 #
plane-surface $-1 -60.512100589007233 20.930683843483997 1.086332061779288 -0.82903758062907751 0 0.55919289150049634 0.55919289150049634 0 0.82903758062907751 forward_v I I I I #
loop $-1 $-1 $260 $66 #
coedge $-1 $169 $169 $170 $261 reversed $104 $-1 #
coedge $-1 $170 $170 $169 $261 forward $106 $-1 #
coedge $-1 $171 $171 $107 $172 forward $166 $-1 #
edge $-1 $262 0 $262 6.2831853071796004 $171 $263 forward 7 unknown #
loop $-1 $-1 $178 $108 #
plane-surface $-1 -60.512100589007233 20.930683843483997 1.086332061779288 -0.82903758062907751 0 0.55919289150049634 0.55919289150049634 0 0.82903758062907751 forward_v I I I I #
loop $-1 $-1 $264 $69 #
coedge $-1 $176 $176 $177 $265 reversed $109 $-1 #
coedge $-1 $177 $177 $176 $265 forward $111 $-1 #
coedge $-1 $178 $178 $112 $179 forward $173 $-1 #
edge $-1 $266 0 $266 6.2831853071796004 $178 $267 forward 7 unknown #
face $-1 $268 $269 $27 $-1 $270 reversed single #
loop $-1 $-1 $271 $113 #
plane-surface $-1 -60.512100589007233 0 0 1 0 0 0 0 -1 forward_v I I I I #
coedge $-1 $272 $191 $273 $274 forward $114 $-1 #
coedge $-1 $275 $116 $272 $276 forward $73 $-1 #
coedge $-1 $116 $275 $277 $278 forward $73 $-1 #
coedge $-1 $194 $193 $116 $187 reversed $195 $-1 #
edge $-1 $279 -24.282957300177465 $280 24.282957300177465 $186 $281 forward 7 unknown #
coedge $-1 $118 $117 $282 $283 forward $46 $-1 #
coedge $-1 $284 $285 $117 $190 reversed $269 $-1 #
edge $-1 $197 -60.512100589007233 $286 60.512100589007233 $189 $287 forward 7 unknown #
coedge $-1 $183 $288 $118 $192 reversed $114 $-1 #
edge $-1 $289 -60.512100589007233 $196 60.512100589007233 $191 $290 forward 7 unknown #
coedge $-1 $186 $119 $288 $291 forward $195 $-1 #
coedge $-1 $119 $186 $284 $292 reversed $195 $-1 #
loop $-1 $-1 $193 $268 #
vertex $-1 $120 $293 #
vertex $-1 $120 $294 #
straight-curve $-1 60.512100589007233 0 11.407142812546514 0 1 0 I I #
face $-1 $295 $296 $28 $-1 $297 reversed single #
loop $-1 $-1 $298 $121 #
plane-surface $-1 -60.512100589007233 0 0 1 0 0 0 0 -1 forward_v I I I I #
coedge $-1 $299 $208 $213 $300 reversed $122 $-1 #
coedge $-1 $301 $124 $302 $303 reversed $77 $-1 #
coedge $-1 $124 $301 $299 $304 forward $77 $-1 #
coedge $-1 $213 $212 $124 $206 forward $214 $-1 #
edge $-1 $305 -15.076958045158229 $306 -3.3350404648802421 $205 $307 forward 7 unknown #
coedge $-1 $126 $125 $298 $308 reversed $49 $-1 #
coedge $-1 $202 $309 $125 $209 reversed $122 $-1 #
edge $-1 $215 -60.512100589007233 $310 60.512100589007233 $208 $311 forward 7 unknown #
coedge $-1 $312 $313 $126 $211 forward $296 $-1 #
edge $-1 $216 -60.512100589007233 $314 60.512100589007233 $210 $315 forward 7 unknown #
coedge $-1 $205 $127 $313 $316 forward $214 $-1 #
coedge $-1 $127 $205 $202 $300 forward $214 $-1 #
loop $-1 $-1 $127 $295 #
vertex $-1 $128 $317 #
vertex $-1 $316 $318 #
straight-curve $-1 60.512100589007233 -9.2059992550192362 9.4107826049121091 0 -1 0 I I #
face $-1 $-1 $230 $29 $-1 $319 reversed single #
loop $-1 $-1 $320 $129 #
plane-surface $-1 0 0 11.407142812546514 0 0 1 1 0 0 forward_v I I I I #
coedge $-1 $321 $322 $323 $324 reversed $130 $-1 #
coedge $-1 $325 $132 $134 $228 forward $81 $-1 #
coedge $-1 $132 $325 $321 $326 forward $81 $-1 #
coedge $-1 $323 $135 $132 $225 forward $230 $-1 #
edge $-1 $232 -1.3384151567184084 $327 9.5094652553994088 $224 $328 forward 7 unknown #
coedge $-1 $329 $330 $133 $227 forward $219 $-1 #
edge $-1 $331 21.549534180090305 $231 33.242644739181202 $226 $332 forward 7 unknown #
edge $-1 $232 -121.02420117801447 $331 -105.03588983960941 $134 $333 forward 7 unknown #
coedge $-1 $135 $323 $329 $334 reversed $230 $-1 #
loop $-1 $-1 $323 $218 #
vertex $-1 $334 $335 #
vertex $-1 $136 $336 #
straight-curve $-1 60.512100589007233 2.7471098926220918 85.776472442246671 0 0 -1 I I #
coedge $-1 $234 $234 $-1 $337 reversed $139 $-1 #
edge $-1 $338 0 $338 6.2831853071796004 $140 $339 forward 7 unknown #
vertex $-1 $143 $340 #
ellipse-curve $-1 54.665545309461791 4.916685975045656 5.9551416912460011 0.68199836817093118 0 0.7313536940579346 0.3656768470289673 0 -0.34099918408546559 1 I I #
coedge $-1 $238 $238 $-1 $341 reversed $146 $-1 #
edge $-1 $342 0 $342 6.2831853071796004 $147 $343 forward 7 unknown #
vertex $-1 $150 $344 #
ellipse-curve $-1 54.665545309461791 8.1710500986810004 5.9551416912460011 0.68199836817093118 0 0.7313536940579346 0.3656768470289673 0 -0.34099918408546559 1 I I #
coedge $-1 $242 $242 $-1 $345 reversed $153 $-1 #
edge $-1 $346 0 $346 6.2831853071796004 $154 $347 forward 7 unknown #
vertex $-1 $157 $348 #
ellipse-curve $-1 54.665545309461791 11.425414222316348 5.9551416912460011 0.68199836817093118 0 0.7313536940579346 0.3656768470289673 0 -0.34099918408546559 1 I I #
face $-1 $-1 $349 $33 $-1 $350 reversed single #
loop $-1 $-1 $351 $158 #
plane-surface $-1 0 24.282957300177465 0 0 -1 0 0 0 -1 forward_v I I I I #
coedge $-1 $352 $161 $163 $255 forward $100 $-1 #
coedge $-1 $161 $352 $351 $353 reversed $100 $-1 #
coedge $-1 $354 $164 $161 $252 forward $159 $-1 #
edge $-1 $258 7.113068465048535 $355 13.817615378435463 $251 $356 forward 7 unknown #
coedge $-1 $357 $358 $162 $254 forward $349 $-1 #
edge $-1 $359 -33.294770468246199 $257 -22.973959717478973 $253 $360 forward 7 unknown #
edge $-1 $258 -12.449147049444671 $359 0 $163 $361 forward 7 unknown #
coedge $-1 $164 $354 $357 $362 forward $159 $-1 #
vertex $-1 $254 $363 #
vertex $-1 $165 $364 #
straight-curve $-1 -80.422855765597546 17.578410386790534 11.407142812546514 1 0 0 I I #
coedge $-1 $260 $260 $-1 $365 reversed $168 $-1 #
edge $-1 $366 0 $366 6.2831853071796004 $169 $367 forward 7 unknown #
vertex $-1 $172 $368 #
ellipse-curve $-1 -57.031363321360317 19.4939952191868 6.2467374371629001 -0.82903758062907751 0 0.55919289150049634 0.27959644575024817 0 0.41451879031453875 1 I I #
coedge $-1 $264 $264 $-1 $369 reversed $175 $-1 #
edge $-1 $370 0 $370 6.2831853071796004 $176 $371 forward 7 unknown #
vertex $-1 $179 $372 #
ellipse-curve $-1 -57.031363321360317 22.367372467781202 6.2467374371629001 -0.82903758062907751 0 0.55919289150049634 0.27959644575024817 0 0.41451879031453875 1 I I #
face $-1 $-1 $195 $27 $-1 $373 reversed single #
loop $-1 $-1 $284 $180 #
plane-surface $-1 0 24.282957300177465 0 0 -1 0 0 0 -1 forward_v I I I I #
coedge $-1 $374 $282 $285 $375 forward $181 $-1 #
coedge $-1 $288 $183 $184 $276 reversed $114 $-1 #
coedge $-1 $282 $374 $183 $274 reversed $181 $-1 #
edge $-1 $289 -11.407142812546514 $376 11.407142812546514 $273 $377 forward 7 unknown #
coedge $-1 $185 $184 $374 $378 forward $73 $-1 #
edge $-1 $280 -60.512100589007233 $376 60.512100589007233 $272 $379 forward 7 unknown #
coedge $-1 $285 $284 $185 $278 reversed $269 $-1 #
edge $-1 $380 -60.512100589007233 $279 60.512100589007233 $277 $381 forward 7 unknown #
vertex $-1 $187 $382 #
vertex $-1 $291 $383 #
straight-curve $-1 60.512100589007233 0 -11.407142812546514 0 -1 0 I I #
coedge $-1 $271 $273 $188 $283 reversed $181 $-1 #
edge $-1 $286 -24.282957300177465 $289 24.282957300177465 $282 $384 forward 7 unknown #
coedge $-1 $277 $189 $194 $292 forward $269 $-1 #
coedge $-1 $189 $277 $271 $375 reversed $269 $-1 #
vertex $-1 $190 $385 #
straight-curve $-1 0 24.282957300177465 11.407142812546514 -1 0 0 I I #
coedge $-1 $191 $272 $193 $291 reversed $114 $-1 #
vertex $-1 $283 $386 #
straight-curve $-1 0 -24.282957300177465 11.407142812546514 1 0 0 I I #
edge $-1 $196 -11.407142812546514 $280 11.407142812546514 $193 $387 forward 7 unknown #
edge $-1 $197 -11.407142812546514 $279 11.407142812546514 $194 $388 forward 7 unknown #
point $-1 60.512100589007233 -24.282957300177465 11.407142812546514 #
point $-1 60.512100589007233 24.282957300177465 11.407142812546514 #
face $-1 $-1 $214 $28 $-1 $389 reversed single #
loop $-1 $-1 $210 $199 #
plane-surface $-1 0 -24.282957300177465 0 0 1 0 0 0 1 forward_v I I I I #
coedge $-1 $390 $391 $207 $308 forward $200 $-1 #
coedge $-1 $309 $202 $204 $304 reversed $122 $-1 #
edge $-1 $306 1.1549455172093879 $215 5.8888732308716101 $213 $392 forward 7 unknown #
coedge $-1 $204 $203 $393 $394 reversed $77 $-1 #
coedge $-1 $313 $312 $203 $303 forward $296 $-1 #
edge $-1 $395 -60.512100589007233 $305 60.512100589007233 $302 $396 forward 7 unknown #
edge $-1 $397 -60.512100589007233 $306 60.512100589007233 $299 $398 forward 7 unknown #
vertex $-1 $303 $399 #
vertex $-1 $206 $400 #
straight-curve $-1 60.512100589007233 -9.2059992550192362 4.6768548912498868 0 1 0 I I #
edge $-1 $314 -15.076958045158229 $310 -3.3350404648802421 $298 $401 forward 7 unknown #
coedge $-1 $208 $299 $390 $402 reversed $122 $-1 #
vertex $-1 $308 $403 #
straight-curve $-1 0 -12.541039719899478 9.4107826049121091 -1 0 0 I I #
coedge $-1 $302 $210 $391 $404 forward $296 $-1 #
coedge $-1 $210 $302 $212 $316 reversed $296 $-1 #
vertex $-1 $404 $405 #
straight-curve $-1 0 -24.282957300177465 9.4107826049121091 -1 0 0 I I #
edge $-1 $216 -9.4107826049121091 $305 -4.6768548912498868 $212 $406 forward 7 unknown #
point $-1 60.512100589007233 -12.541039719899478 9.4107826049121091 #
point $-1 60.512100589007233 -24.282957300177465 9.4107826049121091 #
plane-surface $-1 60.512100589007233 0 0 -1 0 0 0 0 1 forward_v I I I I #
coedge $-1 $330 $329 $322 $407 forward $219 $-1 #
coedge $-1 $322 $221 $223 $326 reversed $130 $-1 #
coedge $-1 $221 $321 $320 $407 reversed $130 $-1 #
coedge $-1 $229 $224 $221 $324 forward $230 $-1 #
edge $-1 $327 -85.273331872301199 $408 -74.369329629700161 $323 $409 forward 7 unknown #
coedge $-1 $223 $222 $330 $410 reversed $81 $-1 #
edge $-1 $411 105.03588983960941 $327 121.02420117801447 $321 $412 forward 7 unknown #
vertex $-1 $225 $413 #
straight-curve $-1 60.512100589007225 4.0855250493405002 0.5031405699454794 0 1 0 I I #
coedge $-1 $320 $226 $229 $334 forward $219 $-1 #
coedge $-1 $226 $320 $325 $410 forward $219 $-1 #
vertex $-1 $227 $414 #
straight-curve $-1 27.269455849826031 2.7471098926220918 11.40714281254651 1 0 0 I I #
straight-curve $-1 -27.999396012944288 2.7471098926220918 83.041448282541822 -0.7313536940579346 0 0.68199836817093118 I I #
edge $-1 $231 2.7471098926220918 $408 13.594990304739909 $229 $415 forward 7 unknown #
point $-1 60.512100589007233 2.7471098926220918 11.407142812546514 #
point $-1 60.512100589007233 2.7471098926220918 0.50314056994547229 #
edge $-1 $416 1 $416 0 $234 $-1 forward 7 unknown #
vertex $-1 $235 $417 #
ellipse-curve $-1 53.983546941290854 4.916685975045656 5.2237879971880661 0.68199836817093118 0 0.7313536940579346 0.3656768470289673 0 -0.34099918408546559 1 I I #
point $-1 55.031222156490756 4.916685975045656 5.6141425071605351 #
edge $-1 $418 1 $418 0 $238 $-1 forward 7 unknown #
vertex $-1 $239 $419 #
ellipse-curve $-1 53.983546941290854 8.1710500986810004 5.2237879971880661 0.68199836817093118 0 0.7313536940579346 0.3656768470289673 0 -0.34099918408546559 1 I I #
point $-1 55.031222156490756 8.1710500986810004 5.6141425071605351 #
edge $-1 $420 1 $420 0 $242 $-1 forward 7 unknown #
vertex $-1 $243 $421 #
ellipse-curve $-1 53.983546941290854 11.425414222316348 5.2237879971880661 0.68199836817093118 0 0.7313536940579346 0.3656768470289673 0 -0.34099918408546559 1 I I #
point $-1 55.031222156490756 11.425414222316348 5.6141425071605351 #
loop $-1 $-1 $253 $246 #
plane-surface $-1 -60.512100589007233 0 0 1 0 0 0 0 -1 forward_v I I I I #
coedge $-1 $422 $423 $250 $353 forward $247 $-1 #
coedge $-1 $250 $249 $358 $424 reversed $100 $-1 #
edge $-1 $355 4.0195161479946 $425 16.46866319743927 $351 $426 forward 7 unknown #
coedge $-1 $256 $251 $423 $427 forward $159 $-1 #
vertex $-1 $427 $428 #
straight-curve $-1 -53.550626053713394 10.465341921741999 11.407142812546514 0 1 0 I I #
coedge $-1 $429 $253 $256 $362 reversed $349 $-1 #
coedge $-1 $253 $429 $352 $424 forward $349 $-1 #
vertex $-1 $254 $430 #
straight-curve $-1 -60.512100589007233 17.578410386790534 34.381102530025487 0 0 1 I I #
straight-curve $-1 -60.512100589007233 17.578410386790534 1.086332061779288 -0.55919289150049634 0 -0.82903758062907751 I I #
edge $-1 $431 -24.282957300177465 $257 -17.578410386790534 $357 $432 forward 7 unknown #
point $-1 -60.512100589007233 17.578410386790534 11.407142812546514 #
point $-1 -53.550626053713394 17.578410386790534 11.407142812546514 #
edge $-1 $433 1 $433 0 $260 $-1 forward 7 unknown #
vertex $-1 $261 $434 #
ellipse-curve $-1 -55.955691677924996 19.4939952191868 5.5211877749373803 -0.82903758062907751 0 0.55919289150049634 0.27959644575024817 0 0.41451879031453875 1 I I #
point $-1 -56.751766875610066 19.4939952191868 6.6612562274774394 #
edge $-1 $435 1 $435 0 $264 $-1 forward 7 unknown #
vertex $-1 $265 $436 #
ellipse-curve $-1 -55.955691677924996 22.367372467781202 5.5211877749373803 -0.82903758062907751 0 0.55919289150049634 0.27959644575024817 0 0.41451879031453875 1 I I #
point $-1 -56.751766875610066 22.367372467781202 6.6612562274774394 #
plane-surface $-1 60.512100589007233 0 0 -1 0 0 0 0 1 forward_v I I I I #
coedge $-1 $273 $271 $275 $378 reversed $181 $-1 #
edge $-1 $286 -11.407142812546514 $380 11.407142812546514 $285 $437 forward 7 unknown #
vertex $-1 $378 $438 #
straight-curve $-1 -60.512100589007233 -24.282957300177465 0 0 0 -1 I I #
edge $-1 $376 -24.282957300177465 $380 24.282957300177465 $374 $439 forward 7 unknown #
straight-curve $-1 0 -24.282957300177465 -11.407142812546514 -1 0 0 I I #
vertex $-1 $278 $440 #
straight-curve $-1 0 24.282957300177465 -11.407142812546514 1 0 0 I I #
point $-1 60.512100589007233 24.282957300177465 -11.407142812546514 #
point $-1 60.512100589007233 -24.282957300177465 -11.407142812546514 #
straight-curve $-1 -60.512100589007233 0 11.407142812546514 0 -1 0 I I #
point $-1 -60.512100589007233 24.282957300177465 11.407142812546514 #
point $-1 -60.512100589007233 -24.282957300177465 11.407142812546514 #
straight-curve $-1 60.512100589007233 -24.282957300177465 0 0 0 -1 I I #
straight-curve $-1 60.512100589007233 24.282957300177465 0 0 0 -1 I I #
plane-surface $-1 60.512100589007233 0 0 -1 0 0 0 0 1 forward_v I I I I #
coedge $-1 $393 $298 $309 $402 forward $200 $-1 #
coedge $-1 $298 $393 $312 $404 reversed $200 $-1 #
straight-curve $-1 60.512100589007233 -12.541039719899478 3.521909374040499 0 0 1 I I #
coedge $-1 $391 $390 $301 $394 forward $200 $-1 #
edge $-1 $397 3.3350404648802421 $395 15.076958045158229 $393 $441 forward 7 unknown #
vertex $-1 $303 $442 #
straight-curve $-1 0 -24.282957300177465 4.6768548912498868 1 0 0 I I #
vertex $-1 $394 $443 #
straight-curve $-1 0 -12.541039719899478 4.6768548912498868 1 0 0 I I #
point $-1 60.512100589007233 -24.282957300177465 4.6768548912498868 #
point $-1 60.512100589007233 -12.541039719899478 4.6768548912498868 #
straight-curve $-1 -60.512100589007233 -9.2059992550192362 9.4107826049121091 0 1 0 I I #
edge $-1 $310 -5.8888732308716101 $397 -1.1549455172093879 $390 $444 forward 7 unknown #
point $-1 -60.512100589007233 -12.541039719899478 9.4107826049121091 #
edge $-1 $314 -9.4107826049121091 $395 -4.6768548912498868 $391 $445 forward 7 unknown #
point $-1 -60.512100589007233 -24.282957300177465 9.4107826049121091 #
straight-curve $-1 60.512100589007233 -24.282957300177465 0 0 0 -1 I I #
edge $-1 $408 -33.242644739181202 $411 -21.549534180090305 $320 $446 forward 7 unknown #
vertex $-1 $407 $447 #
straight-curve $-1 60.512100589007233 13.594990304739909 85.776472442246671 0 0 1 I I #
edge $-1 $411 -9.5094652553994088 $331 1.3384151567184084 $330 $448 forward 7 unknown #
vertex $-1 $410 $449 #
straight-curve $-1 -27.999396012944288 13.594990304739909 83.041448282541822 0.7313536940579346 0 -0.68199836817093118 I I #
point $-1 60.512100589007233 13.594990304739909 0.50314056994547229 #
point $-1 48.818990029916336 2.7471098926220918 11.40714281254651 #
straight-curve $-1 60.512100589007233 0 11.407142812546514 0 1 0 I I #
vertex $-1 $337 $450 #
point $-1 54.349223788319826 4.916685975045656 4.8827888131026009 #
vertex $-1 $341 $451 #
point $-1 54.349223788319826 8.1710500986810004 4.8827888131026009 #
vertex $-1 $345 $452 #
point $-1 54.349223788319826 11.425414222316348 4.8827888131026009 #
coedge $-1 $423 $351 $429 $453 reversed $247 $-1 #
coedge $-1 $351 $422 $354 $427 reversed $247 $-1 #
edge $-1 $425 -13.817615378435463 $359 -7.113068465048535 $358 $454 forward 7 unknown #
vertex $-1 $353 $455 #
straight-curve $-1 -51.30294119648336 24.282957300177465 14.739472755179468 -0.55919289150049634 0 -0.82903758062907751 I I #
edge $-1 $355 53.550626053713394 $431 60.512100589007233 $423 $456 forward 7 unknown #
point $-1 -53.550626053713394 24.282957300177461 11.407142812546514 #
coedge $-1 $358 $357 $422 $453 forward $349 $-1 #
point $-1 -60.512100589007233 17.578410386790534 1.086332061779288 #
vertex $-1 $427 $457 #
straight-curve $-1 -60.512100589007233 0 11.407142812546514 0 -1 0 I I #
vertex $-1 $365 $458 #
point $-1 -55.676095232174745 19.4939952191868 5.9357065652519188 #
vertex $-1 $369 $459 #
point $-1 -55.676095232174745 22.367372467781202 5.9357065652519188 #
straight-curve $-1 -60.512100589007233 24.282957300177465 0 0 0 -1 I I #
point $-1 -60.512100589007233 -24.282957300177465 -11.407142812546514 #
straight-curve $-1 -60.512100589007233 0 -11.407142812546514 0 1 0 I I #
point $-1 -60.512100589007233 24.282957300177465 -11.407142812546514 #
straight-curve $-1 -60.512100589007233 -9.2059992550192362 4.6768548912498868 0 -1 0 I I #
point $-1 -60.512100589007233 -24.282957300177465 4.6768548912498868 #
point $-1 -60.512100589007233 -12.541039719899478 4.6768548912498868 #
straight-curve $-1 -60.512100589007233 -12.541039719899478 3.521909374040499 0 0 -1 I I #
straight-curve $-1 -60.512100589007233 -24.282957300177465 0 0 0 -1 I I #
straight-curve $-1 27.269455849826031 13.594990304739909 11.40714281254651 -1 0 0 I I #
point $-1 60.512100589007233 13.594990304739909 11.407142812546514 #
straight-curve $-1 48.818990029916328 4.0855250493405002 11.407142812546518 0 -1 0 I I #
point $-1 48.818990029916336 13.594990304739909 11.40714281254651 #
point $-1 53.642547757205392 4.916685975045656 4.8581111501590994 #
point $-1 53.642547757205392 8.1710500986810004 4.8581111501590994 #
point $-1 53.642547757205392 11.425414222316348 4.8581111501590994 #
edge $-1 $431 -11.407142812546514 $425 -1.086332061779288 $422 $460 forward 7 unknown #
straight-curve $-1 -60.512100589007233 10.465341921741999 1.0863320617792922 0 -1 0 I I #
point $-1 -60.512100589007233 24.282957300177461 1.086332061779288 #
straight-curve $-1 0 24.282957300177465 11.407142812546514 -1 0 0 I I #
point $-1 -60.512100589007233 24.282957300177465 11.407142812546514 #
point $-1 -55.54117288761045 19.4939952191868 5.2415913291871314 #
point $-1 -55.54117288761045 22.367372467781202 5.2415913291871314 #
straight-curve $-1 -60.512100589007233 24.282957300177465 0 0 0 -1 I I #
End-of-ACIS-data 