500 0 9 0           
7 Unknown 11 ACIS 5.0 NT 24 Thu Mar 25 15:08:50 1999 
-1 9.9999999999999995e-007 1e-010 
body $-1 $9 $-1 $10 #
body $-1 $11 $-1 $12 #
body $-1 $13 $-1 $14 #
body $-1 $15 $-1 $16 #
body $-1 $17 $-1 $18 #
body $-1 $19 $-1 $20 #
body $-1 $21 $-1 $22 #
body $-1 $23 $-1 $24 #
body $-1 $25 $-1 $26 #
lump $-1 $-1 $27 $0 #
transform $-1 1 0 0 0 1 0 0 0 1 45.44938505203406 20.135907093688274 8.3243205384017696 1 rotate no_reflect no_shear #
lump $-1 $-1 $28 $1 #
transform $-1 1 0 0 0 1 0 0 0 1 45.44938505203406 20.135907093688274 8.3243205384017696 1 rotate no_reflect no_shear #
lump $-1 $-1 $29 $2 #
transform $-1 1 0 0 0 1 0 0 0 1 45.44938505203406 20.135907093688274 8.3243205384017696 1 rotate no_reflect no_shear #
lump $-1 $-1 $30 $3 #
transform $-1 1 0 0 0 1 0 0 0 1 45.44938505203406 20.135907093688274 8.3243205384017696 1 rotate no_reflect no_shear #
lump $-1 $-1 $31 $4 #
transform $-1 1 0 0 0 1 0 0 0 1 45.44938505203406 20.135907093688274 8.3243205384017696 1 rotate no_reflect no_shear #
lump $-1 $-1 $32 $5 #
transform $-1 1 0 0 0 1 0 0 0 1 45.44938505203406 20.135907093688274 8.3243205384017696 1 rotate no_reflect no_shear #
lump $-1 $-1 $33 $6 #
transform $-1 1 0 0 0 1 0 0 0 1 45.44938505203406 20.135907093688274 8.3243205384017696 1 rotate no_reflect no_shear #
lump $-1 $-1 $34 $7 #
transform $-1 1 0 0 0 1 0 0 0 1 45.44938505203406 20.135907093688274 8.3243205384017696 1 rotate no_reflect no_shear #
lump $-1 $-1 $35 $8 #
transform $-1 1 0 0 0 1 0 0 0 1 45.44938505203406 20.135907093688274 8.3243205384017696 1 rotate no_reflect no_shear #
shell $-1 $-1 $-1 $36 $-1 $9 #
shell $-1 $-1 $-1 $37 $-1 $11 #
shell $-1 $-1 $-1 $38 $-1 $13 #
shell $-1 $-1 $-1 $39 $-1 $15 #
shell $-1 $-1 $-1 $40 $-1 $17 #
shell $-1 $-1 $-1 $41 $-1 $19 #
shell $-1 $-1 $-1 $42 $-1 $21 #
shell $-1 $-1 $-1 $43 $-1 $23 #
shell $-1 $-1 $-1 $44 $-1 $25 #
face $-1 $45 $46 $27 $-1 $47 forward single #
face $-1 $48 $49 $28 $-1 $50 forward single #
face $-1 $51 $52 $29 $-1 $53 reversed single #
face $-1 $54 $55 $30 $-1 $56 forward single #
face $-1 $57 $58 $31 $-1 $59 forward single #
face $-1 $60 $61 $32 $-1 $62 forward single #
face $-1 $63 $64 $33 $-1 $65 reversed single #
face $-1 $66 $67 $34 $-1 $68 forward single #
face $-1 $69 $70 $35 $-1 $71 forward single #
face $-1 $72 $73 $27 $-1 $74 reversed single #
loop $-1 $-1 $75 $36 #
plane-surface $-1 0 0 8.3243205384017696 0 0 1 1 0 0 forward_v I I I I #
face $-1 $76 $77 $28 $-1 $78 reversed single #
loop $-1 $-1 $79 $37 #
plane-surface $-1 -45.44938505203406 0 0 1 0 0 0 0 -1 forward_v I I I I #
face $-1 $80 $81 $29 $-1 $82 reversed single #
loop $-1 $-1 $83 $38 #
plane-surface $-1 36.95897984303123 -20.135907093688282 3.4062847208019207 0 -0.62932039886446345 0.77714595512881146 1 0 0 forward_v I I I I #
face $-1 $84 $85 $30 $-1 $86 forward single #
loop $-1 $87 $88 $39 #
cone-surface $-1 31.864736717629526 -16.16325798993082 4.7094204620958475 0 0.62932039886446345 -0.77714595512881146 1.5 0 0 1 I I 0 1 1.5 forward I I I I #
face $-1 $89 $90 $31 $-1 $91 forward single #
loop $-1 $92 $93 $40 #
cone-surface $-1 36.95897984303123 -16.16325798993082 4.7094204620958475 0 0.62932039886446345 -0.77714595512881146 1.5 0 0 1 I I 0 1 1.5 forward I I I I #
face $-1 $94 $95 $32 $-1 $96 forward single #
loop $-1 $97 $98 $41 #
cone-surface $-1 42.053222968432934 -16.16325798993082 4.7094204620958475 0 0.62932039886446345 -0.77714595512881146 1.5 0 0 1 I I 0 1 1.5 forward I I I I #
face $-1 $99 $100 $33 $-1 $101 reversed single #
loop $-1 $-1 $102 $42 #
plane-surface $-1 35.631319155141355 -14.740506893314461 20.640439828186388 0 0.50000000669873634 0.8660253999169214 1 0 0 forward_v I I I I #
face $-1 $103 $104 $34 $-1 $105 forward single #
loop $-1 $106 $107 $43 #
cone-surface $-1 31.423576627901625 11.53763601466788 1.2514660929324144 0 -0.50000000669873634 -0.8660253999169214 2 0 0 1 I I 0 1 2 forward I I I I #
face $-1 $108 $109 $35 $-1 $110 forward single #
loop $-1 $111 $112 $44 #
cone-surface $-1 39.839061682381086 11.53763601466788 1.2514660929324144 0 -0.50000000669873634 -0.8660253999169214 2 0 0 1 I I 0 1 2 forward I I I I #
face $-1 $113 $114 $27 $-1 $115 reversed single #
loop $-1 $-1 $116 $45 #
plane-surface $-1 0 0 -8.3243205384017696 0 0 1 1 0 0 forward_v I I I I #
coedge $-1 $117 $118 $119 $120 forward $46 $-1 #
face $-1 $121 $122 $28 $-1 $123 reversed single #
loop $-1 $-1 $124 $48 #
plane-surface $-1 0 20.135907093688274 0 0 -1 0 0 0 -1 forward_v I I I I #
coedge $-1 $125 $126 $127 $128 forward $49 $-1 #
face $-1 $129 $130 $29 $-1 $131 reversed single #
loop $-1 $-1 $132 $51 #
plane-surface $-1 28.468574634028393 -77.340357351869599 74.047896233362195 1 0 0 0 0.62932039886446345 -0.77714595512881146 forward_v I I I I #
coedge $-1 $133 $134 $135 $136 reversed $52 $-1 #
face $-1 $-1 $137 $30 $-1 $138 forward single #
loop $-1 $139 $140 $54 #
cone-surface $-1 31.864736717629526 -14.755252748036455 2.9706788282432424 0 0.62932039886446345 -0.77714595512881146 0.75 0 0 1 I I -0.70710678118654724 0.70710678118654768 0.75 forward I I I I #
loop $-1 $-1 $141 $39 #
coedge $-1 $88 $88 $142 $143 reversed $55 $-1 #
face $-1 $-1 $144 $31 $-1 $145 forward single #
loop $-1 $146 $147 $57 #
cone-surface $-1 36.95897984303123 -14.755252748036455 2.9706788282432424 0 0.62932039886446345 -0.77714595512881146 0.75 0 0 1 I I -0.70710678118654724 0.70710678118654768 0.75 forward I I I I #
loop $-1 $-1 $148 $40 #
coedge $-1 $93 $93 $149 $150 reversed $58 $-1 #
face $-1 $-1 $151 $32 $-1 $152 forward single #
loop $-1 $153 $154 $60 #
cone-surface $-1 42.053222968432934 -14.755252748036455 2.9706788282432424 0 0.62932039886446345 -0.77714595512881146 0.75 0 0 1 I I -0.70710678118654724 0.70710678118654768 0.75 forward I I I I #
loop $-1 $-1 $155 $41 #
coedge $-1 $98 $98 $156 $157 reversed $61 $-1 #
face $-1 $158 $159 $33 $-1 $160 forward single #
loop $-1 $-1 $161 $63 #
plane-surface $-1 25.81325325824865 30.708878767626494 99.361083559518278 1 0 0 0 -0.50000000669873634 -0.8660253999169214 forward_v I I I I #
coedge $-1 $162 $163 $164 $165 reversed $64 $-1 #
face $-1 $-1 $166 $34 $-1 $167 forward single #
loop $-1 $168 $169 $66 #
cone-surface $-1 31.423576627901625 9.2114999319882926 -2.7775197156169007 0 -0.50000000669873634 -0.8660253999169214 1 0 0 1 I I -0.70710678118654746 0.70710678118654746 1 forward I I I I #
loop $-1 $-1 $170 $43 #
coedge $-1 $107 $107 $171 $172 reversed $67 $-1 #
face $-1 $-1 $173 $35 $-1 $174 forward single #
loop $-1 $175 $176 $69 #
cone-surface $-1 39.839061682381086 9.2114999319882926 -2.7775197156169007 0 -0.50000000669873634 -0.8660253999169214 1 0 0 1 I I -0.70710678118654746 0.70710678118654746 1 forward I I I I #
loop $-1 $-1 $177 $44 #
coedge $-1 $112 $112 $178 $179 reversed $70 $-1 #
face $-1 $180 $181 $27 $-1 $182 reversed single #
loop $-1 $-1 $183 $72 #
plane-surface $-1 0 -20.135907093688274 0 0 1 0 0 0 1 forward_v I I I I #
coedge $-1 $184 $185 $186 $187 forward $73 $-1 #
coedge $-1 $188 $75 $189 $190 forward $46 $-1 #
coedge $-1 $75 $188 $191 $192 forward $46 $-1 #
coedge $-1 $193 $194 $75 $120 reversed $195 $-1 #
edge $-1 $196 -20.135907093688274 $197 20.135907093688274 $119 $198 forward 7 unknown #
face $-1 $199 $200 $28 $-1 $201 reversed single #
loop $-1 $-1 $127 $76 #
plane-surface $-1 -49.639800301253899 0 4.3819861477335262 0 0 1 1 0 0 forward_v I I I I #
coedge $-1 $202 $203 $125 $204 forward $77 $-1 #
coedge $-1 $205 $79 $124 $204 reversed $49 $-1 #
coedge $-1 $79 $205 $206 $207 reversed $49 $-1 #
coedge $-1 $208 $209 $79 $128 reversed $122 $-1 #
edge $-1 $210 -20.135907093688274 $211 20.135907093688274 $127 $212 forward 7 unknown #
face $-1 $213 $214 $29 $-1 $215 forward single #
loop $-1 $-1 $216 $80 #
plane-surface $-1 45.44938505203406 0 0 -1 0 0 0 0 1 forward_v I I I I #
coedge $-1 $217 $218 $219 $220 reversed $81 $-1 #
coedge $-1 $221 $83 $216 $222 reversed $52 $-1 #
coedge $-1 $83 $221 $217 $223 forward $52 $-1 #
coedge $-1 $219 $224 $83 $136 forward $214 $-1 #
edge $-1 $225 -26.969895130518452 $226 -9.9890847125127777 $135 $227 forward 7 unknown #
loop $-1 $-1 $142 $84 #
plane-surface $-1 36.95897984303123 -20.135907093688282 3.4062847208019207 0 -0.62932039886446345 0.77714595512881146 1 0 0 forward_v I I I I #
loop $-1 $-1 $228 $54 #
coedge $-1 $140 $140 $141 $229 reversed $85 $-1 #
coedge $-1 $141 $141 $140 $229 forward $87 $-1 #
coedge $-1 $142 $142 $88 $143 forward $137 $-1 #
edge $-1 $230 -1.5130414072838773e-015 $230 6.2831853071795987 $142 $231 forward 7 unknown #
loop $-1 $-1 $149 $89 #
plane-surface $-1 36.95897984303123 -20.135907093688282 3.4062847208019207 0 -0.62932039886446345 0.77714595512881146 1 0 0 forward_v I I I I #
loop $-1 $-1 $232 $57 #
coedge $-1 $147 $147 $148 $233 reversed $90 $-1 #
coedge $-1 $148 $148 $147 $233 forward $92 $-1 #
coedge $-1 $149 $149 $93 $150 forward $144 $-1 #
edge $-1 $234 -1.5130414072838773e-015 $234 6.2831853071795987 $149 $235 forward 7 unknown #
loop $-1 $-1 $156 $94 #
plane-surface $-1 36.95897984303123 -20.135907093688282 3.4062847208019207 0 -0.62932039886446345 0.77714595512881146 1 0 0 forward_v I I I I #
loop $-1 $-1 $236 $60 #
coedge $-1 $154 $154 $155 $237 reversed $95 $-1 #
coedge $-1 $155 $155 $154 $237 forward $97 $-1 #
coedge $-1 $156 $156 $98 $157 forward $151 $-1 #
edge $-1 $238 -1.5130414072838773e-015 $238 6.2831853071795987 $156 $239 forward 7 unknown #
face $-1 $240 $241 $33 $-1 $242 reversed single #
loop $-1 $-1 $243 $99 #
plane-surface $-1 0 0 8.3243205384017696 0 0 1 1 0 0 forward_v I I I I #
coedge $-1 $244 $245 $246 $247 reversed $100 $-1 #
coedge $-1 $248 $102 $249 $250 reversed $64 $-1 #
coedge $-1 $102 $248 $244 $251 forward $64 $-1 #
coedge $-1 $246 $252 $102 $165 forward $253 $-1 #
edge $-1 $254 -27.633725474463382 $255 -7.9975936806779728 $164 $256 forward 7 unknown #
loop $-1 $-1 $171 $103 #
plane-surface $-1 35.631319155141355 -14.740506893314461 20.640439828186388 0 0.50000000669873634 0.8660253999169214 1 0 0 forward_v I I I I #
loop $-1 $-1 $257 $66 #
coedge $-1 $169 $169 $170 $258 reversed $104 $-1 #
coedge $-1 $170 $170 $169 $258 forward $106 $-1 #
coedge $-1 $171 $171 $107 $172 forward $166 $-1 #
edge $-1 $259 4.2814710273742124e-016 $259 6.2831853071796004 $171 $260 forward 7 unknown #
loop $-1 $-1 $178 $108 #
plane-surface $-1 35.631319155141355 -14.740506893314461 20.640439828186388 0 0.50000000669873634 0.8660253999169214 1 0 0 forward_v I I I I #
loop $-1 $-1 $261 $69 #
coedge $-1 $176 $176 $177 $262 reversed $109 $-1 #
coedge $-1 $177 $177 $176 $262 forward $111 $-1 #
coedge $-1 $178 $178 $112 $179 forward $173 $-1 #
edge $-1 $263 4.2814710273742124e-016 $263 6.2831853071796004 $178 $264 forward 7 unknown #
face $-1 $265 $266 $27 $-1 $267 reversed single #
loop $-1 $-1 $268 $113 #
plane-surface $-1 -45.44938505203406 0 0 1 0 0 0 0 -1 forward_v I I I I #
coedge $-1 $269 $191 $270 $271 forward $114 $-1 #
coedge $-1 $272 $116 $269 $273 forward $73 $-1 #
coedge $-1 $116 $272 $274 $275 forward $73 $-1 #
coedge $-1 $194 $193 $116 $187 reversed $195 $-1 #
edge $-1 $276 -20.135907093688274 $277 20.135907093688274 $186 $278 forward 7 unknown #
coedge $-1 $118 $117 $279 $280 forward $46 $-1 #
coedge $-1 $281 $282 $117 $190 reversed $266 $-1 #
edge $-1 $197 -45.44938505203406 $283 45.44938505203406 $189 $284 forward 7 unknown #
coedge $-1 $183 $285 $118 $192 reversed $114 $-1 #
edge $-1 $286 -45.44938505203406 $196 45.44938505203406 $191 $287 forward 7 unknown #
coedge $-1 $186 $119 $285 $288 forward $195 $-1 #
coedge $-1 $119 $186 $281 $289 reversed $195 $-1 #
loop $-1 $-1 $193 $265 #
vertex $-1 $120 $290 #
vertex $-1 $120 $291 #
straight-curve $-1 45.44938505203406 0 8.3243205384017696 0 1 0 I I #
face $-1 $292 $293 $28 $-1 $294 forward single #
loop $-1 $-1 $295 $121 #
plane-surface $-1 -53.830215550473739 0 6.3531533430676479 1 0 0 0 0 -1 forward_v I I I I #
coedge $-1 $296 $124 $209 $297 reversed $77 $-1 #
coedge $-1 $124 $296 $298 $299 reversed $77 $-1 #
edge $-1 $300 -8.3243205384017696 $211 -4.3819861477335262 $124 $301 forward 7 unknown #
coedge $-1 $126 $125 $302 $303 reversed $49 $-1 #
coedge $-1 $304 $305 $126 $207 forward $306 $-1 #
edge $-1 $210 4.3819861477335262 $307 8.3243205384017696 $206 $308 forward 7 unknown #
coedge $-1 $309 $127 $305 $310 forward $122 $-1 #
coedge $-1 $127 $309 $202 $297 forward $122 $-1 #
vertex $-1 $207 $311 #
vertex $-1 $204 $312 #
straight-curve $-1 -45.44938505203406 0 4.3819861477335262 0 1 0 I I #
face $-1 $-1 $313 $29 $-1 $314 reversed single #
loop $-1 $-1 $135 $129 #
plane-surface $-1 0 0 8.3243205384017696 0 0 1 1 0 0 forward_v I I I I #
coedge $-1 $315 $316 $133 $222 forward $130 $-1 #
coedge $-1 $218 $132 $134 $223 reversed $81 $-1 #
coedge $-1 $132 $217 $317 $318 reversed $81 $-1 #
coedge $-1 $319 $135 $132 $220 forward $214 $-1 #
edge $-1 $226 -24.607539904269384 $320 -18.534271582246525 $219 $321 forward 7 unknown #
coedge $-1 $134 $133 $322 $323 reversed $52 $-1 #
edge $-1 $324 -6.7524471457841901 $225 1.0623890274494698 $216 $325 forward 7 unknown #
edge $-1 $326 9.1551213131864128e-015 $226 7.8148361732336689 $217 $327 forward 7 unknown #
coedge $-1 $135 $319 $315 $328 forward $214 $-1 #
vertex $-1 $136 $329 #
vertex $-1 $136 $330 #
straight-curve $-1 18.479489921515615 -14.062638771665419 8.3243205384017696 -1 0 0 I I #
coedge $-1 $228 $228 $-1 $331 reversed $139 $-1 #
edge $-1 $332 0 $332 6.2831853071796004 $140 $333 forward 7 unknown #
vertex $-1 $143 $334 #
ellipse-curve $-1 31.864736717629526 -17.099272932676843 5.8653026296018504 0 -0.62932039886446345 0.77714595512881146 1.5 0 0 1 I I #
coedge $-1 $232 $232 $-1 $335 reversed $146 $-1 #
edge $-1 $336 0 $336 6.2831853071796004 $147 $337 forward 7 unknown #
vertex $-1 $150 $338 #
ellipse-curve $-1 36.95897984303123 -17.099272932676843 5.8653026296018504 0 -0.62932039886446345 0.77714595512881146 1.5 0 0 1 I I #
coedge $-1 $236 $236 $-1 $339 reversed $153 $-1 #
edge $-1 $340 0 $340 6.2831853071796004 $154 $341 forward 7 unknown #
vertex $-1 $157 $342 #
ellipse-curve $-1 42.053222968432934 -17.099272932676843 5.8653026296018504 0 -0.62932039886446345 0.77714595512881146 1.5 0 0 1 I I #
face $-1 $-1 $253 $33 $-1 $343 reversed single #
loop $-1 $-1 $249 $158 #
plane-surface $-1 45.44938505203406 0 0 -1 0 0 0 0 1 forward_v I I I I #
coedge $-1 $344 $345 $245 $346 forward $159 $-1 #
coedge $-1 $245 $161 $163 $251 reversed $100 $-1 #
coedge $-1 $161 $244 $243 $346 reversed $100 $-1 #
coedge $-1 $347 $164 $161 $247 forward $253 $-1 #
edge $-1 $255 -49.176009315031294 $348 -41.356221241357368 $246 $349 forward 7 unknown #
coedge $-1 $163 $162 $344 $350 reversed $64 $-1 #
coedge $-1 $351 $352 $162 $250 forward $241 $-1 #
edge $-1 $353 13.089301534750071 $254 28.728877472567138 $249 $354 forward 7 unknown #
edge $-1 $355 24.632238249559499 $255 40.271814187376563 $244 $356 forward 7 unknown #
coedge $-1 $164 $347 $351 $357 forward $253 $-1 #
loop $-1 $-1 $246 $240 #
vertex $-1 $250 $358 #
vertex $-1 $165 $359 #
straight-curve $-1 17.815659577570678 20.135907093688274 0.5045324647278413 -1 0 0 I I #
coedge $-1 $257 $257 $-1 $360 reversed $168 $-1 #
edge $-1 $361 0 $361 6.2831853071796004 $169 $362 forward 7 unknown #
vertex $-1 $172 $363 #
ellipse-curve $-1 31.423576627901625 13.36377209064873 4.4144265015648045 0 0.50000000669873634 0.8660253999169214 2 0 0 1 I I #
coedge $-1 $261 $261 $-1 $364 reversed $175 $-1 #
edge $-1 $365 0 $365 6.2831853071796004 $176 $366 forward 7 unknown #
vertex $-1 $179 $367 #
ellipse-curve $-1 39.839061682381086 13.36377209064873 4.4144265015648045 0 0.50000000669873634 0.8660253999169214 2 0 0 1 I I #
face $-1 $-1 $195 $27 $-1 $368 reversed single #
loop $-1 $-1 $281 $180 #
plane-surface $-1 0 20.135907093688274 0 0 -1 0 0 0 -1 forward_v I I I I #
coedge $-1 $369 $279 $282 $370 forward $181 $-1 #
coedge $-1 $285 $183 $184 $273 reversed $114 $-1 #
coedge $-1 $279 $369 $183 $271 reversed $181 $-1 #
edge $-1 $286 -8.3243205384017696 $371 8.3243205384017696 $270 $372 forward 7 unknown #
coedge $-1 $185 $184 $369 $373 forward $73 $-1 #
edge $-1 $277 -45.44938505203406 $371 45.44938505203406 $269 $374 forward 7 unknown #
coedge $-1 $282 $281 $185 $275 reversed $266 $-1 #
edge $-1 $375 -45.44938505203406 $276 45.44938505203406 $274 $376 forward 7 unknown #
vertex $-1 $187 $377 #
vertex $-1 $288 $378 #
straight-curve $-1 45.44938505203406 0 -8.3243205384017696 0 -1 0 I I #
coedge $-1 $268 $270 $188 $280 reversed $181 $-1 #
edge $-1 $283 -20.135907093688274 $286 20.135907093688274 $279 $379 forward 7 unknown #
coedge $-1 $274 $189 $194 $289 forward $266 $-1 #
coedge $-1 $189 $274 $268 $370 reversed $266 $-1 #
vertex $-1 $190 $380 #
straight-curve $-1 0 20.135907093688274 8.3243205384017696 -1 0 0 I I #
coedge $-1 $191 $269 $193 $288 reversed $114 $-1 #
vertex $-1 $280 $381 #
straight-curve $-1 0 -20.135907093688274 8.3243205384017696 1 0 0 I I #
edge $-1 $196 -8.3243205384017696 $277 8.3243205384017696 $193 $382 forward 7 unknown #
edge $-1 $197 -8.3243205384017696 $276 8.3243205384017696 $194 $383 forward 7 unknown #
point $-1 45.44938505203406 -20.135907093688274 8.3243205384017696 #
point $-1 45.44938505203406 20.135907093688274 8.3243205384017696 #
face $-1 $-1 $306 $28 $-1 $384 reversed single #
loop $-1 $-1 $302 $199 #
plane-surface $-1 0 0 8.3243205384017696 0 0 1 1 0 0 forward_v I I I I #
coedge $-1 $385 $386 $296 $387 forward $200 $-1 #
coedge $-1 $203 $202 $295 $387 reversed $77 $-1 #
edge $-1 $388 -4.1904152492198392 $211 4.1904152492198392 $202 $389 forward 7 unknown #
coedge $-1 $390 $302 $203 $299 forward $293 $-1 #
edge $-1 $300 45.44938505203406 $391 53.830215550473739 $203 $392 forward 7 unknown #
vertex $-1 $299 $393 #
straight-curve $-1 -45.44938505203406 20.135907093688274 0 0 0 -1 I I #
coedge $-1 $298 $394 $205 $303 forward $293 $-1 #
edge $-1 $307 -20.135907093688274 $300 20.135907093688274 $302 $395 forward 7 unknown #
coedge $-1 $396 $206 $394 $397 reversed $306 $-1 #
coedge $-1 $206 $396 $208 $310 reversed $306 $-1 #
loop $-1 $-1 $206 $292 #
vertex $-1 $207 $398 #
straight-curve $-1 -45.44938505203406 -20.135907093688274 0 0 0 1 I I #
coedge $-1 $209 $208 $385 $399 forward $122 $-1 #
edge $-1 $210 -4.1904152492198392 $400 4.1904152492198392 $305 $401 forward 7 unknown #
point $-1 -45.44938505203406 -20.135907093688274 4.3819861477335262 #
point $-1 -45.44938505203406 20.135907093688274 4.3819861477335262 #
loop $-1 $-1 $322 $213 #
plane-surface $-1 0 -20.135907093688274 0 0 1 0 0 0 1 forward_v I I I I #
coedge $-1 $316 $216 $224 $328 reversed $130 $-1 #
coedge $-1 $216 $315 $402 $403 forward $130 $-1 #
coedge $-1 $322 $404 $218 $318 forward $313 $-1 #
edge $-1 $320 28.699627578279326 $326 33.61766339587917 $317 $405 forward 7 unknown #
coedge $-1 $224 $219 $404 $406 forward $214 $-1 #
vertex $-1 $406 $407 #
straight-curve $-1 28.468574634028393 -38.6701786759348 8.3243205384017713 0 -1 0 I I #
coedge $-1 $402 $317 $221 $323 forward $313 $-1 #
edge $-1 $326 9.9890847125127777 $324 26.969895130518452 $322 $408 forward 7 unknown #
vertex $-1 $323 $409 #
straight-curve $-1 45.44938505203406 -14.888270107121004 7.655737451898041 0 0.77714595512881146 0.62932039886446345 I I #
vertex $-1 $323 $410 #
straight-curve $-1 28.468574634028393 -20.135907093688282 3.4062847208019207 0 0.77714595512881146 0.62932039886446345 I I #
edge $-1 $411 -20.135907093688274 $225 -14.062638771665416 $315 $412 forward 7 unknown #
point $-1 45.449385052034067 -14.062638771665416 8.3243205384017696 #
point $-1 28.468574634028393 -14.062638771665416 8.3243205384017696 #
edge $-1 $413 1 $413 0 $228 $-1 forward 7 unknown #
vertex $-1 $229 $414 #
ellipse-curve $-1 31.864736717629526 -15.227243047184803 3.5535382945898513 0 -0.62932039886446345 0.77714595512881146 1.5 0 0 1 I I #
point $-1 33.364736717629526 -17.09927293267684 5.8653026296018425 #
edge $-1 $415 1 $415 0 $232 $-1 forward 7 unknown #
vertex $-1 $233 $416 #
ellipse-curve $-1 36.95897984303123 -15.227243047184803 3.5535382945898513 0 -0.62932039886446345 0.77714595512881146 1.5 0 0 1 I I #
point $-1 38.45897984303123 -17.09927293267684 5.8653026296018425 #
edge $-1 $417 1 $417 0 $236 $-1 forward 7 unknown #
vertex $-1 $237 $418 #
ellipse-curve $-1 42.053222968432934 -15.227243047184803 3.5535382945898513 0 -0.62932039886446345 0.77714595512881146 1.5 0 0 1 I I #
point $-1 43.553222968432934 -17.09927293267684 5.8653026296018425 #
plane-surface $-1 0 20.135907093688274 0 0 -1 0 0 0 -1 forward_v I I I I #
coedge $-1 $419 $243 $248 $350 forward $159 $-1 #
coedge $-1 $243 $419 $347 $420 forward $159 $-1 #
edge $-1 $348 -4.7814677098750273 $355 8.7628022962040575 $243 $421 forward 7 unknown #
coedge $-1 $252 $246 $345 $420 reversed $253 $-1 #
vertex $-1 $346 $422 #
straight-curve $-1 25.81325325824865 20.135907093688274 49.680541779759139 0 0 1 I I #
edge $-1 $355 7.9975936806779728 $353 27.633725474463382 $344 $423 forward 7 unknown #
coedge $-1 $352 $249 $252 $357 reversed $241 $-1 #
coedge $-1 $249 $351 $419 $424 reversed $241 $-1 #
vertex $-1 $424 $425 #
straight-curve $-1 45.44938505203406 -4.7440305086559142 14.868971393458585 0 0.8660253999169214 -0.50000000669873634 I I #
vertex $-1 $350 $426 #
straight-curve $-1 25.81325325824865 -14.740506893314461 20.640439828186388 0 0.8660253999169214 -0.50000000669873634 I I #
edge $-1 $427 -8.3243205384017696 $254 -0.5045324647278413 $351 $428 forward 7 unknown #
point $-1 45.44938505203406 20.135907093688274 0.5045324647278413 #
point $-1 25.81325325824865 20.135907093688274 0.5045324647278413 #
edge $-1 $429 1 $429 0 $257 $-1 forward 7 unknown #
vertex $-1 $258 $430 #
ellipse-curve $-1 31.423576627901625 9.7114999386870284 -1.9114943156999793 0 0.50000000669873634 0.8660253999169214 2 0 0 1 I I #
point $-1 33.423576627901625 13.363772090648734 4.414426501564809 #
edge $-1 $431 1 $431 0 $261 $-1 forward 7 unknown #
vertex $-1 $262 $432 #
ellipse-curve $-1 39.839061682381086 9.7114999386870284 -1.9114943156999793 0 0.50000000669873634 0.8660253999169214 2 0 0 1 I I #
point $-1 41.839061682381086 13.363772090648734 4.414426501564809 #
plane-surface $-1 45.44938505203406 0 0 -1 0 0 0 0 1 forward_v I I I I #
coedge $-1 $270 $268 $272 $373 reversed $181 $-1 #
edge $-1 $283 -8.3243205384017696 $375 8.3243205384017696 $282 $433 forward 7 unknown #
vertex $-1 $373 $434 #
straight-curve $-1 -45.44938505203406 -20.135907093688274 0 0 0 -1 I I #
edge $-1 $371 -20.135907093688274 $375 20.135907093688274 $369 $435 forward 7 unknown #
straight-curve $-1 0 -20.135907093688274 -8.3243205384017696 -1 0 0 I I #
vertex $-1 $275 $436 #
straight-curve $-1 0 20.135907093688274 -8.3243205384017696 1 0 0 I I #
point $-1 45.44938505203406 20.135907093688274 -8.3243205384017696 #
point $-1 45.44938505203406 -20.135907093688274 -8.3243205384017696 #
straight-curve $-1 -45.44938505203406 0 8.3243205384017696 0 -1 0 I I #
point $-1 -45.44938505203406 20.135907093688274 8.3243205384017696 #
point $-1 -45.44938505203406 -20.135907093688274 8.3243205384017696 #
straight-curve $-1 45.44938505203406 -20.135907093688274 0 0 0 -1 I I #
straight-curve $-1 45.44938505203406 20.135907093688274 0 0 0 -1 I I #
plane-surface $-1 0 -20.135907093688274 0 0 1 0 0 0 1 forward_v I I I I #
coedge $-1 $437 $295 $309 $399 reversed $200 $-1 #
coedge $-1 $295 $437 $390 $438 reversed $200 $-1 #
edge $-1 $391 -1.9711671953341217 $388 1.9711671953341217 $296 $439 forward 7 unknown #
vertex $-1 $297 $440 #
straight-curve $-1 -49.639800301253899 20.135907093688274 4.3819861477335262 1 0 0 I I #
coedge $-1 $394 $298 $386 $438 forward $293 $-1 #
vertex $-1 $299 $441 #
straight-curve $-1 0 20.135907093688274 8.3243205384017696 -1 0 0 I I #
point $-1 -45.44938505203406 20.135907093688274 8.3243205384017696 #
coedge $-1 $302 $390 $304 $397 forward $293 $-1 #
straight-curve $-1 -45.44938505203406 0 8.3243205384017696 0 1 0 I I #
coedge $-1 $305 $304 $437 $442 forward $306 $-1 #
edge $-1 $443 -53.830215550473739 $307 -45.44938505203406 $304 $444 forward 7 unknown #
point $-1 -45.44938505203406 -20.135907093688274 8.3243205384017696 #
edge $-1 $400 -20.135907093688274 $388 20.135907093688274 $385 $445 forward 7 unknown #
vertex $-1 $399 $446 #
straight-curve $-1 -49.639800301253899 -20.135907093688274 4.3819861477335262 -1 0 0 I I #
coedge $-1 $404 $322 $316 $403 reversed $313 $-1 #
edge $-1 $411 -8.3243205384017696 $324 -3.4062847208019265 $316 $447 forward 7 unknown #
coedge $-1 $317 $402 $319 $406 reversed $313 $-1 #
straight-curve $-1 28.468574634028393 -20.135907093688274 37.023948116681098 0 0 -1 I I #
edge $-1 $320 28.468574634028393 $411 45.44938505203406 $404 $448 forward 7 unknown #
point $-1 28.468574634028393 -20.135907093688274 8.3243205384017696 #
straight-curve $-1 18.479489921515615 -20.135907093688274 3.4062847208019273 1 0 0 I I #
point $-1 45.449385052034067 -20.135907093688274 3.4062847208019265 #
point $-1 28.468574634028393 -20.135907093688274 3.4062847208019265 #
vertex $-1 $328 $449 #
straight-curve $-1 45.44938505203406 0 8.3243205384017696 0 1 0 I I #
vertex $-1 $331 $450 #
point $-1 33.364736717629526 -15.227243047184803 3.5535382945898513 #
vertex $-1 $335 $451 #
point $-1 38.45897984303123 -15.227243047184803 3.5535382945898513 #
vertex $-1 $339 $452 #
point $-1 43.553222968432934 -15.227243047184803 3.5535382945898513 #
coedge $-1 $345 $344 $352 $424 forward $159 $-1 #
edge $-1 $427 -45.44938505203406 $348 -25.81325325824865 $347 $453 forward 7 unknown #
straight-curve $-1 25.81325325824865 15.354439383813247 8.3243205384017713 0 -1 0 I I #
point $-1 25.81325325824865 20.135907093688274 8.3243205384017696 #
straight-curve $-1 17.815659577570678 6.5916370876091932 8.3243205384017713 1 0 0 I I #
edge $-1 $353 6.5916370876091896 $427 20.135907093688274 $352 $454 forward 7 unknown #
point $-1 45.44938505203406 6.5916370876091896 8.3243205384017696 #
point $-1 25.81325325824865 6.5916370876091896 8.3243205384017696 #
vertex $-1 $424 $455 #
straight-curve $-1 45.44938505203406 20.135907093688274 0 0 0 -1 I I #
vertex $-1 $360 $456 #
point $-1 33.423576627901625 9.7114999386870284 -1.9114943156999793 #
vertex $-1 $364 $457 #
point $-1 41.839061682381086 9.7114999386870284 -1.9114943156999793 #
straight-curve $-1 -45.44938505203406 20.135907093688274 0 0 0 -1 I I #
point $-1 -45.44938505203406 -20.135907093688274 -8.3243205384017696 #
straight-curve $-1 -45.44938505203406 0 -8.3243205384017696 0 1 0 I I #
point $-1 -45.44938505203406 20.135907093688274 -8.3243205384017696 #
coedge $-1 $386 $385 $396 $442 reversed $200 $-1 #
edge $-1 $391 -20.135907093688274 $443 20.135907093688274 $386 $458 forward 7 unknown #
straight-curve $-1 -53.830215550473739 20.135907093688274 6.3531533430676479 0 0 -1 I I #
point $-1 -53.830215550473739 20.135907093688274 4.3819861477335262 #
point $-1 -53.830215550473739 20.135907093688274 8.3243205384017696 #
edge $-1 $443 -1.9711671953341217 $400 1.9711671953341217 $437 $459 forward 7 unknown #
vertex $-1 $438 $460 #
straight-curve $-1 0 -20.135907093688274 8.3243205384017696 1 0 0 I I #
straight-curve $-1 -53.830215550473739 0 4.3819861477335262 0 1 0 I I #
point $-1 -53.830215550473739 -20.135907093688274 4.3819861477335262 #
straight-curve $-1 45.44938505203406 -20.135907093688274 0 0 0 -1 I I #
straight-curve $-1 0 -20.135907093688274 8.3243205384017696 1 0 0 I I #
point $-1 45.44938505203406 -20.135907093688274 8.3243205384017696 #
point $-1 31.864736717629526 -14.283262448888106 2.3878193618966335 #
point $-1 36.95897984303123 -14.283262448888106 2.3878193618966335 #
point $-1 42.053222968432934 -14.283262448888106 2.3878193618966335 #
straight-curve $-1 0 20.135907093688274 8.3243205384017696 -1 0 0 I I #
straight-curve $-1 45.44938505203406 0 8.3243205384017696 0 1 0 I I #
point $-1 45.44938505203406 20.135907093688274 8.3243205384017696 #
point $-1 31.423576627901625 8.7114999252895569 -3.6435451155338221 #
point $-1 39.839061682381086 8.7114999252895569 -3.6435451155338221 #
straight-curve $-1 -53.830215550473739 0 8.3243205384017696 0 -1 0 I I #
straight-curve $-1 -53.830215550473739 -20.135907093688274 6.3531533430676479 0 0 -1 I I #
point $-1 -53.830215550473739 -20.135907093688274 8.3243205384017696 #
End-of-ACIS-data 