500 0 8 0           
7 Unknown 11 ACIS 5.0 NT 24 Thu Mar 25 18:55:46 1999 
-1 9.9999999999999995e-007 1e-010 
body $-1 $8 $-1 $9 #
body $-1 $10 $-1 $11 #
body $-1 $12 $-1 $13 #
body $-1 $14 $-1 $15 #
body $-1 $16 $-1 $17 #
body $-1 $18 $-1 $19 #
body $-1 $20 $-1 $21 #
body $-1 $22 $-1 $23 #
lump $-1 $-1 $24 $0 #
transform $-1 1 0 0 0 1 0 0 0 1 45.250404370250557 27.237382137997457 8.3504309135313282 1 rotate no_reflect no_shear #
lump $-1 $-1 $25 $1 #
transform $-1 1 0 0 0 1 0 0 0 1 45.250404370250557 27.237382137997457 8.3504309135313282 1 rotate no_reflect no_shear #
lump $-1 $-1 $26 $2 #
transform $-1 1 0 0 0 1 0 0 0 1 45.250404370250557 27.237382137997457 8.3504309135313282 1 rotate no_reflect no_shear #
lump $-1 $-1 $27 $3 #
transform $-1 1 0 0 0 1 0 0 0 1 45.250404370250557 27.237382137997457 8.3504309135313282 1 rotate no_reflect no_shear #
lump $-1 $-1 $28 $4 #
transform $-1 1 0 0 0 1 0 0 0 1 45.250404370250557 27.237382137997457 8.3504309135313282 1 rotate no_reflect no_shear #
lump $-1 $-1 $29 $5 #
transform $-1 1 0 0 0 1 0 0 0 1 45.250404370250557 27.237382137997457 8.3504309135313282 1 rotate no_reflect no_shear #
lump $-1 $-1 $30 $6 #
transform $-1 1 0 0 0 1 0 0 0 1 45.250404370250557 27.237382137997457 8.3504309135313282 1 rotate no_reflect no_shear #
lump $-1 $-1 $31 $7 #
transform $-1 1 0 0 0 1 0 0 0 1 45.250404370250557 27.237382137997457 8.3504309135313282 1 rotate no_reflect no_shear #
shell $-1 $-1 $-1 $32 $-1 $8 #
shell $-1 $-1 $-1 $33 $-1 $10 #
shell $-1 $-1 $-1 $34 $-1 $12 #
shell $-1 $-1 $-1 $35 $-1 $14 #
shell $-1 $-1 $-1 $36 $-1 $16 #
shell $-1 $-1 $-1 $37 $-1 $18 #
shell $-1 $-1 $-1 $38 $-1 $20 #
shell $-1 $-1 $-1 $39 $-1 $22 #
face $-1 $40 $41 $24 $-1 $42 forward single #
face $-1 $43 $44 $25 $-1 $45 forward single #
face $-1 $46 $47 $26 $-1 $48 reversed single #
face $-1 $49 $50 $27 $-1 $51 forward single #
face $-1 $52 $53 $28 $-1 $54 forward single #
face $-1 $55 $56 $29 $-1 $57 reversed single #
face $-1 $58 $59 $30 $-1 $60 forward single #
face $-1 $61 $62 $31 $-1 $63 forward single #
face $-1 $64 $65 $24 $-1 $66 reversed single #
loop $-1 $-1 $67 $32 #
plane-surface $-1 0 0 8.3504309135313282 0 0 1 1 0 0 forward_v I I I I #
face $-1 $68 $69 $25 $-1 $70 reversed single #
loop $-1 $-1 $71 $33 #
plane-surface $-1 0 -27.237382137997457 0 0 1 0 0 0 1 forward_v I I I I #
face $-1 $72 $73 $26 $-1 $74 reversed single #
loop $-1 $-1 $75 $34 #
plane-surface $-1 -93.208526983760464 -15.296732559931286 80.627761748729455 0 1 0 -0.52991927123019833 0 0.84804809178421925 forward_v I I I I #
face $-1 $76 $77 $27 $-1 $78 forward single #
loop $-1 $79 $80 $35 #
cone-surface $-1 -41.374464733887429 -12.425907086622791 5.6379562116024315 0.52991927123019833 0 -0.84804809178421925 0.42402404589210962 0 0.26495963561509916 1 I I 0 1 0.5 forward I I I I #
face $-1 $81 $82 $28 $-1 $83 forward single #
loop $-1 $84 $85 $36 #
cone-surface $-1 -41.374464733887429 -8.1196688766600502 5.6379562116024315 0.52991927123019833 0 -0.84804809178421925 0.42402404589210962 0 0.26495963561509916 1 I I 0 1 0.5 forward I I I I #
face $-1 $86 $87 $29 $-1 $88 reversed single #
loop $-1 $-1 $89 $37 #
plane-surface $-1 14.287433734907786 14.95055251145692 128.9295155511499 0 1 0 0.51503808176128008 0 0.85716729658548041 forward_v I I I I #
face $-1 $90 $91 $30 $-1 $92 forward single #
loop $-1 $93 $94 $38 #
cone-surface $-1 41.70203329271758 18.461075261897072 5.636487733401272 -0.51503808176128008 0 -0.85716729658548041 0.85716729658548041 0 -0.51503808176128008 1 I I 0 1 1 forward I I I I #
face $-1 $95 $96 $31 $-1 $97 forward single #
loop $-1 $98 $99 $39 #
cone-surface $-1 41.70203329271758 23.726859387557305 5.636487733401272 -0.51503808176128008 0 -0.85716729658548041 0.85716729658548041 0 -0.51503808176128008 1 I I 0 1 1 forward I I I I #
face $-1 $100 $101 $24 $-1 $102 reversed single #
loop $-1 $-1 $103 $40 #
plane-surface $-1 0 0 -8.3504309135313282 0 0 1 1 0 0 forward_v I I I I #
coedge $-1 $104 $105 $106 $107 forward $41 $-1 #
face $-1 $108 $109 $25 $-1 $110 forward single #
loop $-1 $-1 $111 $43 #
plane-surface $-1 -45.250404370250557 0 0 1 0 0 0 0 -1 forward_v I I I I #
coedge $-1 $112 $113 $114 $115 forward $44 $-1 #
face $-1 $116 $117 $26 $-1 $118 reversed single #
loop $-1 $-1 $119 $46 #
plane-surface $-1 -45.25040437025055 -10.272787981641422 3.8787235914188898 -0.52991927123019833 0 0.84804809178421925 0.84804809178421925 0 0.52991927123019833 forward_v I I I I #
coedge $-1 $120 $121 $122 $123 reversed $47 $-1 #
face $-1 $-1 $124 $27 $-1 $125 forward single #
loop $-1 $126 $127 $49 #
cone-surface $-1 -40.944159029695484 -12.425907086622791 4.9493231477836925 0.52991927123019833 0 -0.84804809178421925 0.21201202294605481 0 0.13247981780754958 1 I I -0.70710678118654746 0.70710678118654746 0.25 forward I I I I #
loop $-1 $-1 $128 $35 #
coedge $-1 $80 $80 $129 $130 reversed $50 $-1 #
face $-1 $-1 $131 $28 $-1 $132 forward single #
loop $-1 $133 $134 $52 #
cone-surface $-1 -40.944159029695484 -8.1196688766600502 4.9493231477836925 0.52991927123019833 0 -0.84804809178421925 0.21201202294605481 0 0.13247981780754958 1 I I -0.70710678118654746 0.70710678118654746 0.25 forward I I I I #
loop $-1 $-1 $135 $36 #
coedge $-1 $85 $85 $136 $137 reversed $53 $-1 #
face $-1 $138 $139 $29 $-1 $140 reversed single #
loop $-1 $-1 $141 $55 #
plane-surface $-1 -32.3239291966444 21.093967324727188 51.355181984254955 0.51503808176128008 0 0.85716729658548041 0.85716729658548041 0 -0.51503808176128008 forward_v I I I I #
coedge $-1 $142 $143 $144 $145 reversed $56 $-1 #
face $-1 $-1 $146 $30 $-1 $147 forward single #
loop $-1 $148 $149 $58 #
cone-surface $-1 40.897348180356737 18.461075261897072 4.2972668353927457 -0.51503808176128008 0 -0.85716729658548041 0.4285836482927402 0 -0.25751904088064004 1 I I -0.70710678118654746 0.70710678118654746 0.5 forward I I I I #
loop $-1 $-1 $150 $38 #
coedge $-1 $94 $94 $151 $152 reversed $59 $-1 #
face $-1 $-1 $153 $31 $-1 $154 forward single #
loop $-1 $155 $156 $61 #
cone-surface $-1 40.897348180356737 23.726859387557305 4.2972668353927457 -0.51503808176128008 0 -0.85716729658548041 0.4285836482927402 0 -0.25751904088064004 1 I I -0.70710678118654746 0.70710678118654746 0.5 forward I I I I #
loop $-1 $-1 $157 $39 #
coedge $-1 $99 $99 $158 $159 reversed $62 $-1 #
face $-1 $160 $161 $24 $-1 $162 reversed single #
loop $-1 $-1 $163 $64 #
plane-surface $-1 0 -27.237382137997457 0 0 1 0 0 0 1 forward_v I I I I #
coedge $-1 $164 $165 $166 $167 forward $65 $-1 #
coedge $-1 $168 $67 $169 $170 forward $41 $-1 #
coedge $-1 $67 $168 $171 $172 forward $41 $-1 #
coedge $-1 $173 $174 $67 $107 reversed $175 $-1 #
edge $-1 $176 -27.237382137997457 $177 27.237382137997457 $106 $178 forward 7 unknown #
face $-1 $179 $180 $25 $-1 $181 reversed single #
loop $-1 $-1 $182 $68 #
plane-surface $-1 0 -30.430166224994483 1.3750388682367567 0 0 1 1 0 0 forward_v I I I I #
coedge $-1 $183 $184 $113 $185 forward $69 $-1 #
coedge $-1 $186 $71 $187 $188 reversed $44 $-1 #
coedge $-1 $71 $186 $111 $185 reversed $44 $-1 #
coedge $-1 $189 $182 $71 $115 reversed $109 $-1 #
edge $-1 $190 -45.250404370250557 $191 45.250404370250557 $114 $192 forward 7 unknown #
face $-1 $193 $194 $26 $-1 $195 forward single #
loop $-1 $-1 $196 $72 #
plane-surface $-1 -93.208526983760464 -5.2488434033515574 80.627761748729455 0 -1 0 0.52991927123019833 0 -0.84804809178421925 forward_v I I I I #
coedge $-1 $197 $198 $199 $200 reversed $73 $-1 #
coedge $-1 $121 $75 $201 $202 reversed $47 $-1 #
coedge $-1 $75 $120 $197 $203 reversed $47 $-1 #
coedge $-1 $199 $204 $75 $123 forward $194 $-1 #
edge $-1 $205 1.3538591216296751 $206 8.5100866215871633 $122 $207 forward 7 unknown #
loop $-1 $-1 $129 $76 #
plane-surface $-1 -45.25040437025055 -10.272787981641422 3.8787235914188898 -0.52991927123019833 0 0.84804809178421925 0.84804809178421925 0 0.52991927123019833 forward_v I I I I #
loop $-1 $-1 $208 $49 #
coedge $-1 $127 $127 $128 $209 reversed $77 $-1 #
coedge $-1 $128 $128 $127 $209 forward $79 $-1 #
coedge $-1 $129 $129 $80 $130 forward $124 $-1 #
edge $-1 $210 0 $210 6.2831853071796004 $129 $211 forward 7 unknown #
loop $-1 $-1 $136 $81 #
plane-surface $-1 -45.25040437025055 -10.272787981641422 3.8787235914188898 -0.52991927123019833 0 0.84804809178421925 0.84804809178421925 0 0.52991927123019833 forward_v I I I I #
loop $-1 $-1 $212 $52 #
coedge $-1 $134 $134 $135 $213 reversed $82 $-1 #
coedge $-1 $135 $135 $134 $213 forward $84 $-1 #
coedge $-1 $136 $136 $85 $137 forward $131 $-1 #
edge $-1 $214 0 $214 6.2831853071796004 $136 $215 forward 7 unknown #
face $-1 $216 $217 $29 $-1 $218 forward single #
loop $-1 $-1 $219 $86 #
plane-surface $-1 0 27.237382137997457 0 0 -1 0 0 0 -1 forward_v I I I I #
coedge $-1 $220 $221 $222 $223 reversed $87 $-1 #
coedge $-1 $143 $89 $224 $225 reversed $56 $-1 #
coedge $-1 $89 $142 $220 $226 reversed $56 $-1 #
coedge $-1 $222 $227 $89 $145 forward $228 $-1 #
edge $-1 $229 56.114326862043626 $230 59.720938722872177 $144 $231 forward 7 unknown #
loop $-1 $-1 $151 $90 #
plane-surface $-1 -32.3239291966444 21.093967324727188 51.355181984254955 0.51503808176128008 0 0.85716729658548041 0.85716729658548041 0 -0.51503808176128008 forward_v I I I I #
loop $-1 $-1 $232 $58 #
coedge $-1 $149 $149 $150 $233 reversed $91 $-1 #
coedge $-1 $150 $150 $149 $233 forward $93 $-1 #
coedge $-1 $151 $151 $94 $152 forward $146 $-1 #
edge $-1 $234 0 $234 6.2831853071796004 $151 $235 forward 7 unknown #
loop $-1 $-1 $158 $95 #
plane-surface $-1 -32.3239291966444 21.093967324727188 51.355181984254955 0.51503808176128008 0 0.85716729658548041 0.85716729658548041 0 -0.51503808176128008 forward_v I I I I #
loop $-1 $-1 $236 $61 #
coedge $-1 $156 $156 $157 $237 reversed $96 $-1 #
coedge $-1 $157 $157 $156 $237 forward $98 $-1 #
coedge $-1 $158 $158 $99 $159 forward $153 $-1 #
edge $-1 $238 0 $238 6.2831853071796004 $158 $239 forward 7 unknown #
face $-1 $240 $241 $24 $-1 $242 reversed single #
loop $-1 $-1 $243 $100 #
plane-surface $-1 -45.250404370250557 0 0 1 0 0 0 0 -1 forward_v I I I I #
coedge $-1 $244 $171 $245 $246 forward $101 $-1 #
coedge $-1 $247 $103 $244 $248 forward $65 $-1 #
coedge $-1 $103 $247 $249 $250 forward $65 $-1 #
coedge $-1 $174 $173 $103 $167 reversed $175 $-1 #
edge $-1 $251 -27.237382137997457 $252 27.237382137997457 $166 $253 forward 7 unknown #
coedge $-1 $105 $104 $254 $255 forward $41 $-1 #
coedge $-1 $256 $257 $104 $170 reversed $241 $-1 #
edge $-1 $177 -45.250404370250557 $258 45.250404370250557 $169 $259 forward 7 unknown #
coedge $-1 $163 $260 $105 $172 reversed $101 $-1 #
edge $-1 $261 -45.250404370250557 $176 45.250404370250557 $171 $262 forward 7 unknown #
coedge $-1 $166 $106 $260 $263 forward $175 $-1 #
coedge $-1 $106 $166 $256 $264 reversed $175 $-1 #
loop $-1 $-1 $173 $240 #
vertex $-1 $107 $265 #
vertex $-1 $107 $266 #
straight-curve $-1 45.250404370250557 0 8.3504309135313282 0 1 0 I I #
face $-1 $267 $268 $25 $-1 $269 reversed single #
loop $-1 $-1 $270 $108 #
plane-surface $-1 0 -30.430166224994483 -3.3044338488397211 0 0 1 1 0 0 forward_v I I I I #
coedge $-1 $114 $271 $272 $273 forward $109 $-1 #
coedge $-1 $274 $111 $275 $276 reversed $69 $-1 #
coedge $-1 $111 $274 $189 $277 reversed $69 $-1 #
edge $-1 $190 -1.3750388682367567 $278 3.3044338488397211 $111 $279 forward 7 unknown #
coedge $-1 $113 $112 $280 $281 forward $44 $-1 #
coedge $-1 $272 $282 $112 $188 forward $283 $-1 #
edge $-1 $284 -3.3044338488397211 $191 1.3750388682367567 $187 $285 forward 7 unknown #
coedge $-1 $271 $114 $184 $277 forward $109 $-1 #
vertex $-1 $185 $286 #
vertex $-1 $273 $287 #
straight-curve $-1 0 -27.237382137997457 1.3750388682367567 1 0 0 I I #
face $-1 $-1 $288 $26 $-1 $289 reversed single #
loop $-1 $-1 $122 $116 #
plane-surface $-1 0 0 8.3504309135313282 0 0 1 1 0 0 forward_v I I I I #
coedge $-1 $290 $291 $292 $293 reversed $117 $-1 #
coedge $-1 $294 $119 $121 $203 forward $73 $-1 #
coedge $-1 $119 $294 $290 $295 forward $73 $-1 #
coedge $-1 $292 $122 $119 $200 forward $194 $-1 #
edge $-1 $206 -10.160338569110575 $296 -0.11244941253084662 $199 $297 forward 7 unknown #
coedge $-1 $298 $299 $120 $202 forward $288 $-1 #
edge $-1 $300 -36.435157282945845 $205 -31.963449960833401 $201 $301 forward 7 unknown #
edge $-1 $206 -8.4384689610012611 $300 8.3790584163743152e-015 $121 $302 forward 7 unknown #
coedge $-1 $122 $292 $298 $303 forward $194 $-1 #
vertex $-1 $202 $304 #
vertex $-1 $123 $305 #
straight-curve $-1 -46.604263491880232 -15.296732559931286 8.3504309135313264 1 0 0 I I #
coedge $-1 $208 $208 $-1 $306 reversed $126 $-1 #
edge $-1 $307 0 $307 6.2831853071796004 $127 $308 forward 7 unknown #
vertex $-1 $130 $309 #
ellipse-curve $-1 -41.672290620271816 -12.425907086622791 6.1145772524751028 -0.52991927123019833 0 0.84804809178421925 0.42402404589210962 0 0.26495963561509916 1 I I #
coedge $-1 $212 $212 $-1 $310 reversed $133 $-1 #
edge $-1 $311 0 $311 6.2831853071796004 $134 $312 forward 7 unknown #
vertex $-1 $137 $313 #
ellipse-curve $-1 -41.672290620271816 -8.1196688766600502 6.1145772524751028 -0.52991927123019833 0 0.84804809178421925 0.42402404589210962 0 0.26495963561509916 1 I I #
face $-1 $-1 $228 $29 $-1 $314 reversed single #
loop $-1 $-1 $315 $138 #
plane-surface $-1 0 0 8.3504309135313282 0 0 1 1 0 0 forward_v I I I I #
coedge $-1 $316 $317 $221 $318 forward $139 $-1 #
coedge $-1 $319 $141 $143 $226 forward $87 $-1 #
coedge $-1 $141 $319 $219 $318 reversed $87 $-1 #
coedge $-1 $320 $144 $141 $223 forward $228 $-1 #
edge $-1 $230 4.4035688490933254 $321 16.690398475633863 $222 $322 forward 7 unknown #
coedge $-1 $323 $315 $142 $225 forward $217 $-1 #
edge $-1 $324 32.104277490691118 $229 38.10668750279666 $224 $325 forward 7 unknown #
edge $-1 $230 -90.5008087405011 $324 -83.498196722968359 $143 $326 forward 7 unknown #
coedge $-1 $144 $320 $323 $327 reversed $228 $-1 #
loop $-1 $-1 $222 $216 #
vertex $-1 $327 $328 #
vertex $-1 $145 $329 #
straight-curve $-1 45.250404370250557 14.95055251145692 64.464757775574952 0 0 -1 I I #
coedge $-1 $232 $232 $-1 $330 reversed $148 $-1 #
edge $-1 $331 0 $331 6.2831853071796004 $149 $332 forward 7 unknown #
vertex $-1 $152 $333 #
ellipse-curve $-1 42.249199364197779 18.461075261897072 6.5471249831170502 0.51503808176128008 0 0.85716729658548041 0.85716729658548041 0 -0.51503808176128008 1 I I #
coedge $-1 $236 $236 $-1 $334 reversed $155 $-1 #
edge $-1 $335 0 $335 6.2831853071796004 $156 $336 forward 7 unknown #
vertex $-1 $159 $337 #
ellipse-curve $-1 42.249199364197779 23.726859387557305 6.5471249831170502 0.51503808176128008 0 0.85716729658548041 0.85716729658548041 0 -0.51503808176128008 1 I I #
face $-1 $-1 $175 $24 $-1 $338 reversed single #
loop $-1 $-1 $256 $160 #
plane-surface $-1 0 27.237382137997457 0 0 -1 0 0 0 -1 forward_v I I I I #
coedge $-1 $339 $254 $257 $340 forward $161 $-1 #
coedge $-1 $260 $163 $164 $248 reversed $101 $-1 #
coedge $-1 $254 $339 $163 $246 reversed $161 $-1 #
edge $-1 $261 -8.3504309135313282 $341 8.3504309135313282 $245 $342 forward 7 unknown #
coedge $-1 $165 $164 $339 $343 forward $65 $-1 #
edge $-1 $252 -45.250404370250557 $341 45.250404370250557 $244 $344 forward 7 unknown #
coedge $-1 $257 $256 $165 $250 reversed $241 $-1 #
edge $-1 $345 -45.250404370250557 $251 45.250404370250557 $249 $346 forward 7 unknown #
vertex $-1 $167 $347 #
vertex $-1 $263 $348 #
straight-curve $-1 45.250404370250557 0 -8.3504309135313282 0 -1 0 I I #
coedge $-1 $243 $245 $168 $255 reversed $161 $-1 #
edge $-1 $258 -27.237382137997457 $261 27.237382137997457 $254 $349 forward 7 unknown #
coedge $-1 $249 $169 $174 $264 forward $241 $-1 #
coedge $-1 $169 $249 $243 $340 reversed $241 $-1 #
vertex $-1 $170 $350 #
straight-curve $-1 0 27.237382137997457 8.3504309135313282 -1 0 0 I I #
coedge $-1 $171 $244 $173 $263 reversed $101 $-1 #
vertex $-1 $255 $351 #
straight-curve $-1 0 -27.237382137997457 8.3504309135313282 1 0 0 I I #
edge $-1 $176 -8.3504309135313282 $252 8.3504309135313282 $173 $352 forward 7 unknown #
edge $-1 $177 -8.3504309135313282 $251 8.3504309135313282 $174 $353 forward 7 unknown #
point $-1 45.250404370250557 -27.237382137997457 8.3504309135313282 #
point $-1 45.250404370250557 27.237382137997457 8.3504309135313282 #
face $-1 $-1 $283 $25 $-1 $354 reversed single #
loop $-1 $-1 $355 $179 #
plane-surface $-1 0 -33.622950311991509 -0.96469749030148222 0 1 0 0 0 1 forward_v I I I I #
coedge $-1 $356 $280 $282 $357 forward $180 $-1 #
coedge $-1 $182 $189 $358 $359 forward $109 $-1 #
coedge $-1 $360 $187 $182 $273 reversed $283 $-1 #
edge $-1 $361 -3.1927840869970261 $191 3.1927840869970261 $272 $362 forward 7 unknown #
coedge $-1 $184 $183 $355 $363 reversed $69 $-1 #
coedge $-1 $280 $356 $183 $276 forward $180 $-1 #
edge $-1 $364 -3.1927840869970261 $278 3.1927840869970261 $183 $365 forward 7 unknown #
edge $-1 $190 -3.1927840869970261 $366 3.1927840869970261 $184 $367 forward 7 unknown #
vertex $-1 $185 $368 #
straight-curve $-1 -45.250404370250557 -27.237382137997457 0 0 0 -1 I I #
coedge $-1 $270 $275 $186 $281 reversed $180 $-1 #
edge $-1 $284 -45.250404370250557 $278 45.250404370250557 $280 $369 forward 7 unknown #
coedge $-1 $187 $360 $270 $357 reversed $283 $-1 #
loop $-1 $-1 $187 $267 #
vertex $-1 $188 $370 #
straight-curve $-1 45.250404370250557 -27.237382137997457 0 0 0 1 I I #
point $-1 -45.250404370250557 -27.237382137997457 1.3750388682367567 #
point $-1 45.250404370250557 -27.237382137997457 1.3750388682367567 #
loop $-1 $-1 $201 $193 #
plane-surface $-1 -45.250404370250557 0 0 1 0 0 0 0 -1 forward_v I I I I #
coedge $-1 $291 $196 $198 $295 reversed $117 $-1 #
coedge $-1 $196 $290 $371 $372 reversed $117 $-1 #
coedge $-1 $204 $199 $196 $293 forward $194 $-1 #
edge $-1 $296 -8.5100866215871633 $373 -1.3538591216296751 $292 $374 forward 7 unknown #
coedge $-1 $198 $197 $299 $375 reversed $73 $-1 #
edge $-1 $376 -8.3790584163743152e-015 $296 8.4384689610012611 $290 $377 forward 7 unknown #
vertex $-1 $200 $378 #
straight-curve $-1 -38.094176870293069 -5.1363939908207108 8.3504309135313264 0 1 0 I I #
coedge $-1 $371 $201 $204 $303 reversed $288 $-1 #
coedge $-1 $201 $371 $294 $375 forward $288 $-1 #
vertex $-1 $202 $379 #
straight-curve $-1 -45.250404370250557 -15.296732559931286 40.313880874364727 0 0 1 I I #
straight-curve $-1 -45.25040437025055 -15.296732559931286 3.8787235914188898 -0.84804809178421925 0 -0.52991927123019833 I I #
edge $-1 $373 5.2488434033515574 $205 15.296732559931286 $298 $380 forward 7 unknown #
point $-1 -45.250404370250557 -15.296732559931286 8.3504309135313282 #
point $-1 -38.094176870293069 -15.296732559931286 8.3504309135313282 #
edge $-1 $381 1 $381 0 $208 $-1 forward 7 unknown #
vertex $-1 $209 $382 #
ellipse-curve $-1 -41.076638847503034 -12.425907086622791 5.161335170729747 -0.52991927123019833 0 0.84804809178421925 0.42402404589210962 0 0.26495963561509916 1 I I #
point $-1 -41.24826657437972 -12.425907086622791 6.3795368880902146 #
edge $-1 $383 1 $383 0 $212 $-1 forward 7 unknown #
vertex $-1 $213 $384 #
ellipse-curve $-1 -41.076638847503034 -8.1196688766600502 5.161335170729747 -0.52991927123019833 0 0.84804809178421925 0.42402404589210962 0 0.26495963561509916 1 I I #
point $-1 -41.24826657437972 -8.1196688766600502 6.3795368880902146 #
plane-surface $-1 45.250404370250557 0 0 -1 0 0 0 0 1 forward_v I I I I #
coedge $-1 $224 $385 $319 $386 forward $217 $-1 #
coedge $-1 $317 $219 $385 $387 reversed $139 $-1 #
coedge $-1 $219 $316 $320 $388 forward $139 $-1 #
edge $-1 $321 -63.422364029410964 $389 -56.419752011878217 $219 $390 forward 7 unknown #
coedge $-1 $221 $220 $315 $386 reversed $87 $-1 #
coedge $-1 $227 $222 $317 $388 reversed $228 $-1 #
vertex $-1 $318 $391 #
straight-curve $-1 45.250404370250557 10.546983662363594 4.7438190527027722 0 1 0 I I #
coedge $-1 $385 $224 $227 $327 forward $217 $-1 #
vertex $-1 $225 $392 #
straight-curve $-1 7.1437168674538931 14.95055251145692 8.3504309135313264 1 0 0 I I #
straight-curve $-1 -32.3239291966444 14.95055251145692 51.355181984254955 -0.85716729658548041 0 0.51503808176128008 I I #
edge $-1 $229 14.95055251145692 $393 27.237382137997457 $227 $394 forward 7 unknown #
point $-1 45.250404370250557 14.95055251145692 8.3504309135313282 #
point $-1 45.25040437025055 14.95055251145692 4.7438190527027757 #
edge $-1 $395 1 $395 0 $232 $-1 forward 7 unknown #
vertex $-1 $233 $396 #
ellipse-curve $-1 41.154867221237375 18.461075261897072 4.7258504836854858 0.51503808176128008 0 0.85716729658548041 0.85716729658548041 0 -0.51503808176128008 1 I I #
point $-1 43.106366660783273 18.461075261897072 6.0320869013557772 #
edge $-1 $397 1 $397 0 $236 $-1 forward 7 unknown #
vertex $-1 $237 $398 #
ellipse-curve $-1 41.154867221237375 23.726859387557305 4.7258504836854858 0.51503808176128008 0 0.85716729658548041 0.85716729658548041 0 -0.51503808176128008 1 I I #
point $-1 43.106366660783273 23.726859387557305 6.0320869013557772 #
plane-surface $-1 45.250404370250557 0 0 -1 0 0 0 0 1 forward_v I I I I #
coedge $-1 $245 $243 $247 $343 reversed $161 $-1 #
edge $-1 $258 -8.3504309135313282 $345 8.3504309135313282 $257 $399 forward 7 unknown #
vertex $-1 $343 $400 #
straight-curve $-1 -45.250404370250557 -27.237382137997457 0 0 0 -1 I I #
edge $-1 $341 -27.237382137997457 $345 27.237382137997457 $339 $401 forward 7 unknown #
straight-curve $-1 0 -27.237382137997457 -8.3504309135313282 -1 0 0 I I #
vertex $-1 $250 $402 #
straight-curve $-1 0 27.237382137997457 -8.3504309135313282 1 0 0 I I #
point $-1 45.250404370250557 27.237382137997457 -8.3504309135313282 #
point $-1 45.250404370250557 -27.237382137997457 -8.3504309135313282 #
straight-curve $-1 -45.250404370250557 0 8.3504309135313282 0 -1 0 I I #
point $-1 -45.250404370250557 27.237382137997457 8.3504309135313282 #
point $-1 -45.250404370250557 -27.237382137997457 8.3504309135313282 #
straight-curve $-1 45.250404370250557 -27.237382137997457 0 0 0 -1 I I #
straight-curve $-1 45.250404370250557 27.237382137997457 0 0 0 -1 I I #
plane-surface $-1 45.250404370250557 0 0 -1 0 0 0 0 1 forward_v I I I I #
coedge $-1 $403 $358 $274 $363 forward $268 $-1 #
coedge $-1 $275 $270 $403 $404 forward $180 $-1 #
edge $-1 $284 -3.1927840869970261 $405 3.1927840869970261 $282 $406 forward 7 unknown #
coedge $-1 $355 $407 $271 $359 reversed $268 $-1 #
edge $-1 $366 -45.250404370250557 $361 45.250404370250557 $358 $408 forward 7 unknown #
coedge $-1 $282 $272 $407 $409 forward $283 $-1 #
vertex $-1 $273 $410 #
straight-curve $-1 45.250404370250557 -30.430166224994483 1.3750388682367567 0 1 0 I I #
edge $-1 $366 -2.3397363585382389 $364 2.3397363585382389 $274 $411 forward 7 unknown #
vertex $-1 $276 $412 #
straight-curve $-1 -45.250404370250557 -30.430166224994483 -3.3044338488397211 0 1 0 I I #
vertex $-1 $277 $413 #
straight-curve $-1 -45.250404370250557 -30.430166224994483 1.3750388682367567 0 -1 0 I I #
point $-1 -45.250404370250557 -27.237382137997457 -3.3044338488397211 #
straight-curve $-1 0 -27.237382137997457 -3.3044338488397211 -1 0 0 I I #
point $-1 45.250404370250557 -27.237382137997457 -3.3044338488397211 #
coedge $-1 $299 $298 $291 $372 forward $288 $-1 #
edge $-1 $373 31.963449960833401 $376 36.435157282945845 $371 $414 forward 7 unknown #
vertex $-1 $303 $415 #
straight-curve $-1 -46.604263491880232 -5.2488434033515574 8.3504309135313264 -1 0 0 I I #
edge $-1 $376 0.11244941253084662 $300 10.160338569110575 $299 $416 forward 7 unknown #
vertex $-1 $375 $417 #
straight-curve $-1 -45.25040437025055 -5.2488434033515574 3.8787235914188898 0.84804809178421925 0 0.52991927123019833 I I #
point $-1 -38.094176870293069 -5.2488434033515574 8.3504309135313282 #
point $-1 -45.250404370250557 -15.296732559931286 3.8787235914188853 #
straight-curve $-1 -45.250404370250557 0 8.3504309135313282 0 -1 0 I I #
vertex $-1 $306 $418 #
point $-1 -40.652614801610923 -12.425907086622791 5.4262948063448464 #
vertex $-1 $310 $419 #
point $-1 -40.652614801610923 -8.1196688766600502 5.4262948063448464 #
coedge $-1 $315 $323 $316 $387 forward $217 $-1 #
edge $-1 $389 -16.690398475633863 $324 -4.4035688490933254 $315 $420 forward 7 unknown #
edge $-1 $393 -45.250404370250557 $389 -39.247994358145007 $316 $421 forward 7 unknown #
edge $-1 $393 -8.3504309135313282 $321 -4.7438190527027757 $320 $422 forward 7 unknown #
vertex $-1 $318 $423 #
straight-curve $-1 -9.1131719478998647 27.237382137997457 37.408751763176205 -0.85716729658548041 0 0.51503808176128008 I I #
point $-1 45.250404370250557 27.237382137997457 4.7438190527027757 #
point $-1 39.247994358145007 14.95055251145692 8.3504309135313264 #
vertex $-1 $327 $424 #
straight-curve $-1 45.250404370250557 0 8.3504309135313282 0 1 0 I I #
vertex $-1 $330 $425 #
point $-1 42.012034517822855 18.461075261897072 4.2108124019242057 #
vertex $-1 $334 $426 #
point $-1 42.012034517822855 23.726859387557305 4.2108124019242057 #
straight-curve $-1 -45.250404370250557 27.237382137997457 0 0 0 -1 I I #
point $-1 -45.250404370250557 -27.237382137997457 -8.3504309135313282 #
straight-curve $-1 -45.250404370250557 0 -8.3504309135313282 0 1 0 I I #
point $-1 -45.250404370250557 27.237382137997457 -8.3504309135313282 #
coedge $-1 $407 $355 $356 $404 reversed $268 $-1 #
edge $-1 $405 -45.250404370250557 $364 45.250404370250557 $403 $427 forward 7 unknown #
vertex $-1 $409 $428 #
straight-curve $-1 45.250404370250557 -30.430166224994483 -3.3044338488397211 0 -1 0 I I #
coedge $-1 $358 $403 $360 $409 reversed $268 $-1 #
straight-curve $-1 0 -33.622950311991509 1.3750388682367567 1 0 0 I I #
edge $-1 $361 -2.3397363585382389 $405 2.3397363585382389 $360 $429 forward 7 unknown #
point $-1 45.250404370250557 -33.622950311991509 1.3750388682367567 #
straight-curve $-1 -45.250404370250557 -33.622950311991509 -0.96469749030148222 0 0 -1 I I #
point $-1 -45.250404370250557 -33.622950311991509 -3.3044338488397211 #
point $-1 -45.250404370250557 -33.622950311991509 1.3750388682367567 #
straight-curve $-1 -45.250404370250557 -5.2488434033515574 40.313880874364727 0 0 -1 I I #
point $-1 -45.250404370250557 -5.2488434033515574 8.3504309135313282 #
straight-curve $-1 -45.250404370250557 -5.1363939908207108 3.8787235914188827 0 -1 0 I I #
point $-1 -45.250404370250557 -5.2488434033515574 3.8787235914188853 #
point $-1 -40.811679211887935 -12.425907086622791 4.7373111248376381 #
point $-1 -40.811679211887935 -8.1196688766600502 4.7373111248376381 #
straight-curve $-1 39.247994358145014 10.546983662363594 8.3504309135313264 0 -1 0 I I #
straight-curve $-1 0 27.237382137997457 8.3504309135313282 -1 0 0 I I #
straight-curve $-1 45.250404370250557 27.237382137997457 0 0 0 -1 I I #
point $-1 39.247994358145007 27.237382137997457 8.3504309135313264 #
point $-1 45.250404370250557 27.237382137997457 8.3504309135313282 #
point $-1 40.639829139476099 18.461075261897072 3.8686831871000056 #
point $-1 40.639829139476099 23.726859387557305 3.8686831871000056 #
straight-curve $-1 0 -33.622950311991509 -3.3044338488397211 -1 0 0 I I #
point $-1 45.250404370250557 -33.622950311991509 -3.3044338488397211 #
straight-curve $-1 45.250404370250557 -33.622950311991509 -0.96469749030148222 0 0 -1 I I #
End-of-ACIS-data 