500 0 11 0           
7 Unknown 11 ACIS 5.0 NT 24 Fri Mar 26 15:14:24 1999 
-1 9.9999999999999995e-007 1e-010 
body $-1 $11 $-1 $12 #
body $-1 $13 $-1 $14 #
body $-1 $15 $-1 $16 #
body $-1 $17 $-1 $18 #
body $-1 $19 $-1 $20 #
body $-1 $21 $-1 $22 #
body $-1 $23 $-1 $24 #
body $-1 $25 $-1 $26 #
body $-1 $27 $-1 $28 #
body $-1 $29 $-1 $30 #
body $-1 $31 $-1 $32 #
lump $-1 $-1 $33 $0 #
transform $-1 1 0 0 0 1 0 0 0 1 65.915097506637778 31.065409078806621 12.052813672868085 1 rotate no_reflect no_shear #
lump $-1 $-1 $34 $1 #
transform $-1 1 0 0 0 1 0 0 0 1 65.915097506637778 31.065409078806621 12.052813672868085 1 rotate no_reflect no_shear #
lump $-1 $-1 $35 $2 #
transform $-1 1 0 0 0 1 0 0 0 1 65.915097506637778 31.065409078806621 12.052813672868085 1 rotate no_reflect no_shear #
lump $-1 $-1 $36 $3 #
transform $-1 1 0 0 0 1 0 0 0 1 65.915097506637778 31.065409078806621 12.052813672868085 1 rotate no_reflect no_shear #
lump $-1 $-1 $37 $4 #
transform $-1 1 0 0 0 1 0 0 0 1 65.915097506637778 31.065409078806621 12.052813672868085 1 rotate no_reflect no_shear #
lump $-1 $-1 $38 $5 #
transform $-1 1 0 0 0 1 0 0 0 1 65.915097506637778 31.065409078806621 12.052813672868085 1 rotate no_reflect no_shear #
lump $-1 $-1 $39 $6 #
transform $-1 1 0 0 0 1 0 0 0 1 65.915097506637778 31.065409078806621 12.052813672868085 1 rotate no_reflect no_shear #
lump $-1 $-1 $40 $7 #
transform $-1 1 0 0 0 1 0 0 0 1 65.915097506637778 31.065409078806621 12.052813672868085 1 rotate no_reflect no_shear #
lump $-1 $-1 $41 $8 #
transform $-1 1 0 0 0 1 0 0 0 1 65.915097506637778 31.065409078806621 12.052813672868085 1 rotate no_reflect no_shear #
lump $-1 $-1 $42 $9 #
transform $-1 1 0 0 0 1 0 0 0 1 65.915097506637778 31.065409078806621 12.052813672868085 1 rotate no_reflect no_shear #
lump $-1 $-1 $43 $10 #
transform $-1 1 0 0 0 1 0 0 0 1 65.915097506637778 31.065409078806621 12.052813672868085 1 rotate no_reflect no_shear #
shell $-1 $-1 $-1 $44 $-1 $11 #
shell $-1 $-1 $-1 $45 $-1 $13 #
shell $-1 $-1 $-1 $46 $-1 $15 #
shell $-1 $-1 $-1 $47 $-1 $17 #
shell $-1 $-1 $-1 $48 $-1 $19 #
shell $-1 $-1 $-1 $49 $-1 $21 #
shell $-1 $-1 $-1 $50 $-1 $23 #
shell $-1 $-1 $-1 $51 $-1 $25 #
shell $-1 $-1 $-1 $52 $-1 $27 #
shell $-1 $-1 $-1 $53 $-1 $29 #
shell $-1 $-1 $-1 $54 $-1 $31 #
face $-1 $55 $56 $33 $-1 $57 forward single #
face $-1 $58 $59 $34 $-1 $60 reversed single #
face $-1 $61 $62 $35 $-1 $63 forward single #
face $-1 $64 $65 $36 $-1 $66 reversed single #
face $-1 $67 $68 $37 $-1 $69 forward single #
face $-1 $70 $71 $38 $-1 $72 forward single #
face $-1 $73 $74 $39 $-1 $75 reversed single #
face $-1 $76 $77 $40 $-1 $78 forward single #
face $-1 $79 $80 $41 $-1 $81 forward single #
face $-1 $82 $83 $42 $-1 $84 reversed single #
face $-1 $85 $86 $43 $-1 $87 forward single #
face $-1 $88 $89 $33 $-1 $90 reversed single #
loop $-1 $-1 $91 $44 #
plane-surface $-1 0 0 12.052813672868085 0 0 1 1 0 0 forward_v I I I I #
face $-1 $92 $93 $34 $-1 $94 reversed single #
loop $-1 $-1 $95 $45 #
plane-surface $-1 -61.341424942613031 0 6.7498993506454195 0 0 1 1 0 0 forward_v I I I I #
face $-1 $96 $97 $35 $-1 $98 reversed single #
loop $-1 $-1 $99 $46 #
plane-surface $-1 65.915097506637778 0 0 -1 0 0 0 0 1 forward_v I I I I #
face $-1 $100 $101 $36 $-1 $102 reversed single #
loop $-1 $-1 $103 $47 #
plane-surface $-1 -47.969466326788897 114.16829971946029 120.91603826118923 1 0 0 0 -0.86602541151947299 -0.49999998660252726 forward_v I I I I #
face $-1 $104 $105 $37 $-1 $106 forward single #
loop $-1 $107 $108 $48 #
cone-surface $-1 -43.433515239078801 25.309347636283395 5.1099705339310066 0 -0.86602541151947299 -0.49999998660252726 2 0 0 1 I I 0 1 2 forward I I I I #
face $-1 $109 $110 $38 $-1 $111 forward single #
loop $-1 $112 $113 $49 #
cone-surface $-1 -36.629588607513654 25.309347636283395 5.1099705339310066 0 -0.86602541151947299 -0.49999998660252726 2 0 0 1 I I 0 1 2 forward I I I I #
face $-1 $114 $115 $39 $-1 $116 reversed single #
loop $-1 $-1 $117 $50 #
plane-surface $-1 8.97732920665851 114.16829971946029 120.91603826118923 1 0 0 0 -0.86602541151947299 -0.49999998660252726 forward_v I I I I #
face $-1 $118 $119 $40 $-1 $120 forward single #
loop $-1 $121 $122 $51 #
cone-surface $-1 13.513280294368599 25.309347636283395 5.1099705339310066 0 -0.86602541151947299 -0.49999998660252726 2 0 0 1 I I 0 1 2 forward I I I I #
face $-1 $123 $124 $41 $-1 $125 forward single #
loop $-1 $126 $127 $52 #
cone-surface $-1 20.317206925933746 25.309347636283395 5.1099705339310066 0 -0.86602541151947299 -0.49999998660252726 2 0 0 1 I I 0 1 2 forward I I I I #
face $-1 $128 $129 $42 $-1 $130 reversed single #
loop $-1 $-1 $131 $53 #
plane-surface $-1 -31.439488920067348 -140.35759500647205 79.196003095649488 -1 0 0 0 -0.82903758062907751 0.55919289150049634 forward_v I I I I #
face $-1 $132 $133 $43 $-1 $134 forward single #
loop $-1 $135 $136 $54 #
cone-surface $-1 -44.103620649327816 -27.216687421576793 7.6649180406229664 0 0.82903758062907751 -0.55919289150049634 1 0 0 1 I I 0 1 1 forward I I I I #
face $-1 $137 $138 $33 $-1 $139 reversed single #
loop $-1 $-1 $140 $55 #
plane-surface $-1 0 0 -12.052813672868085 0 0 1 1 0 0 forward_v I I I I #
coedge $-1 $141 $142 $143 $144 forward $56 $-1 #
face $-1 $145 $146 $34 $-1 $147 reversed single #
loop $-1 $-1 $148 $58 #
plane-surface $-1 -56.767752378588284 0 9.4013565117567506 -1 0 0 0 0 1 forward_v I I I I #
coedge $-1 $149 $150 $151 $152 forward $59 $-1 #
face $-1 $153 $154 $35 $-1 $155 reversed single #
loop $-1 $-1 $156 $61 #
plane-surface $-1 0 0 -12.052813672868085 0 0 1 1 0 0 forward_v I I I I #
coedge $-1 $157 $158 $159 $160 forward $62 $-1 #
face $-1 $161 $162 $36 $-1 $163 reversed single #
loop $-1 $-1 $164 $64 #
plane-surface $-1 -40.031551923296227 8.3239595483064477e-007 55.000942520742896 0 0.86602541151947299 0.49999998660252726 1 0 0 forward_v I I I I #
coedge $-1 $165 $166 $167 $168 reversed $65 $-1 #
face $-1 $-1 $169 $37 $-1 $170 forward single #
loop $-1 $171 $172 $67 #
cone-surface $-1 -43.433515239078801 21.821908472630756 3.096496665948278 0 -0.86602541151947299 -0.49999998660252726 1 0 0 1 I I -0.70710678118654746 0.70710678118654746 1 forward I I I I #
loop $-1 $-1 $173 $48 #
coedge $-1 $108 $108 $174 $175 reversed $68 $-1 #
face $-1 $-1 $176 $38 $-1 $177 forward single #
loop $-1 $178 $179 $70 #
cone-surface $-1 -36.629588607513654 21.821908472630756 3.096496665948278 0 -0.86602541151947299 -0.49999998660252726 1 0 0 1 I I -0.70710678118654746 0.70710678118654746 1 forward I I I I #
loop $-1 $-1 $180 $49 #
coedge $-1 $113 $113 $181 $182 reversed $71 $-1 #
face $-1 $183 $184 $39 $-1 $185 reversed single #
loop $-1 $-1 $186 $73 #
plane-surface $-1 16.91524361015118 8.3239595483064477e-007 55.000942520742896 0 0.86602541151947299 0.49999998660252726 1 0 0 forward_v I I I I #
coedge $-1 $187 $188 $189 $190 reversed $74 $-1 #
face $-1 $-1 $191 $40 $-1 $192 forward single #
loop $-1 $193 $194 $76 #
cone-surface $-1 13.513280294368599 21.821908472630756 3.096496665948278 0 -0.86602541151947299 -0.49999998660252726 1 0 0 1 I I -0.70710678118654746 0.70710678118654746 1 forward I I I I #
loop $-1 $-1 $195 $51 #
coedge $-1 $122 $122 $196 $197 reversed $77 $-1 #
face $-1 $-1 $198 $41 $-1 $199 forward single #
loop $-1 $200 $201 $79 #
cone-surface $-1 20.317206925933746 21.821908472630756 3.096496665948278 0 -0.86602541151947299 -0.49999998660252726 1 0 0 1 I I -0.70710678118654746 0.70710678118654746 1 forward I I I I #
loop $-1 $-1 $202 $52 #
coedge $-1 $127 $127 $203 $204 reversed $80 $-1 #
face $-1 $205 $206 $42 $-1 $207 forward single #
loop $-1 $-1 $208 $82 #
plane-surface $-1 -44.103620649327816 -31.06540907880661 5.4774951591016219 0 -0.82903758062907751 0.55919289150049634 1 0 0 forward_v I I I I #
coedge $-1 $209 $210 $211 $212 reversed $83 $-1 #
face $-1 $-1 $213 $43 $-1 $214 forward single #
loop $-1 $215 $216 $85 #
cone-surface $-1 -44.103620649327816 -25.171001074209521 6.2850852195108384 0 0.82903758062907751 -0.55919289150049634 0.5 0 0 1 I I -0.70710678118654746 0.70710678118654746 0.5 forward I I I I #
loop $-1 $-1 $217 $54 #
coedge $-1 $136 $136 $218 $219 reversed $86 $-1 #
face $-1 $220 $221 $33 $-1 $222 reversed single #
loop $-1 $-1 $223 $88 #
plane-surface $-1 0 -31.065409078806621 0 0 1 0 0 0 1 forward_v I I I I #
coedge $-1 $224 $225 $226 $227 forward $89 $-1 #
coedge $-1 $228 $91 $229 $230 forward $56 $-1 #
coedge $-1 $91 $228 $231 $232 forward $56 $-1 #
coedge $-1 $233 $234 $91 $144 reversed $235 $-1 #
edge $-1 $236 -31.065409078806621 $237 31.065409078806621 $143 $238 forward 7 unknown #
face $-1 $239 $240 $34 $-1 $241 reversed single #
loop $-1 $-1 $242 $92 #
plane-surface $-1 0 31.065409078806621 0 0 -1 0 0 0 -1 forward_v I I I I #
coedge $-1 $151 $243 $244 $245 reversed $93 $-1 #
coedge $-1 $246 $95 $247 $248 reversed $59 $-1 #
coedge $-1 $95 $246 $249 $250 reversed $59 $-1 #
coedge $-1 $251 $148 $95 $152 reversed $93 $-1 #
edge $-1 $252 -31.065409078806621 $253 31.065409078806621 $151 $254 forward 7 unknown #
face $-1 $255 $256 $35 $-1 $257 reversed single #
loop $-1 $-1 $159 $96 #
plane-surface $-1 70.309726915803424 -10.486793946079359 0 0 1 0 0 0 1 forward_v I I I I #
coedge $-1 $258 $259 $158 $260 forward $97 $-1 #
coedge $-1 $261 $99 $262 $263 reversed $62 $-1 #
coedge $-1 $99 $261 $156 $260 reversed $62 $-1 #
coedge $-1 $264 $265 $99 $160 reversed $154 $-1 #
edge $-1 $266 -12.052813672868085 $267 12.052813672868085 $159 $268 forward 7 unknown #
face $-1 $269 $270 $36 $-1 $271 reversed single #
loop $-1 $-1 $272 $100 #
plane-surface $-1 -32.093637519803558 114.16829971946029 120.91603826118923 -1 0 0 0 0.86602541151947299 0.49999998660252726 forward_v I I I I #
coedge $-1 $273 $274 $275 $276 reversed $101 $-1 #
coedge $-1 $166 $103 $277 $278 reversed $65 $-1 #
coedge $-1 $103 $165 $273 $279 reversed $65 $-1 #
coedge $-1 $275 $280 $103 $168 forward $281 $-1 #
edge $-1 $282 26.018740780923526 $283 32.288036161703616 $167 $284 forward 7 unknown #
loop $-1 $-1 $174 $104 #
plane-surface $-1 -40.031551923296227 8.3239595483064477e-007 55.000942520742896 0 0.86602541151947299 0.49999998660252726 1 0 0 forward_v I I I I #
loop $-1 $-1 $285 $67 #
coedge $-1 $172 $172 $173 $286 reversed $105 $-1 #
coedge $-1 $173 $173 $172 $286 forward $107 $-1 #
coedge $-1 $174 $174 $108 $175 forward $169 $-1 #
edge $-1 $287 -1.2175457420571751e-015 $287 6.2831853071795996 $174 $288 forward 7 unknown #
loop $-1 $-1 $181 $109 #
plane-surface $-1 -40.031551923296227 8.3239595483064477e-007 55.000942520742896 0 0.86602541151947299 0.49999998660252726 1 0 0 forward_v I I I I #
loop $-1 $-1 $289 $70 #
coedge $-1 $179 $179 $180 $290 reversed $110 $-1 #
coedge $-1 $180 $180 $179 $290 forward $112 $-1 #
coedge $-1 $181 $181 $113 $182 forward $176 $-1 #
edge $-1 $291 -1.2175457420571751e-015 $291 6.2831853071795996 $181 $292 forward 7 unknown #
face $-1 $293 $294 $39 $-1 $295 forward single #
loop $-1 $-1 $296 $114 #
plane-surface $-1 24.853158013643849 114.16829971946029 120.91603826118923 -1 0 0 0 0.86602541151947299 0.49999998660252726 forward_v I I I I #
coedge $-1 $297 $298 $299 $300 reversed $115 $-1 #
coedge $-1 $188 $117 $301 $302 reversed $74 $-1 #
coedge $-1 $117 $187 $297 $303 reversed $74 $-1 #
coedge $-1 $299 $304 $117 $190 forward $294 $-1 #
edge $-1 $305 26.018740780923526 $306 32.288036161703616 $189 $307 forward 7 unknown #
loop $-1 $-1 $196 $118 #
plane-surface $-1 16.91524361015118 8.3239595483064477e-007 55.000942520742896 0 0.86602541151947299 0.49999998660252726 1 0 0 forward_v I I I I #
loop $-1 $-1 $308 $76 #
coedge $-1 $194 $194 $195 $309 reversed $119 $-1 #
coedge $-1 $195 $195 $194 $309 forward $121 $-1 #
coedge $-1 $196 $196 $122 $197 forward $191 $-1 #
edge $-1 $310 -1.2175457420571751e-015 $310 6.2831853071795996 $196 $311 forward 7 unknown #
loop $-1 $-1 $203 $123 #
plane-surface $-1 16.91524361015118 8.3239595483064477e-007 55.000942520742896 0 0.86602541151947299 0.49999998660252726 1 0 0 forward_v I I I I #
loop $-1 $-1 $312 $79 #
coedge $-1 $201 $201 $202 $313 reversed $124 $-1 #
coedge $-1 $202 $202 $201 $313 forward $126 $-1 #
coedge $-1 $203 $203 $127 $204 forward $198 $-1 #
edge $-1 $314 -1.2175457420571751e-015 $314 6.2831853071795996 $203 $315 forward 7 unknown #
face $-1 $316 $317 $42 $-1 $318 reversed single #
loop $-1 $-1 $319 $128 #
plane-surface $-1 -56.767752378588284 0 9.4013565117567506 -1 0 0 0 0 1 forward_v I I I I #
coedge $-1 $320 $321 $322 $323 reversed $129 $-1 #
coedge $-1 $210 $131 $324 $325 reversed $83 $-1 #
coedge $-1 $131 $209 $320 $326 reversed $83 $-1 #
coedge $-1 $322 $327 $131 $212 forward $328 $-1 #
edge $-1 $329 39.113388424429402 $330 43.548496624783603 $211 $331 forward 7 unknown #
loop $-1 $-1 $218 $132 #
plane-surface $-1 -44.103620649327816 -31.06540907880661 5.4774951591016219 0 -0.82903758062907751 0.55919289150049634 1 0 0 forward_v I I I I #
loop $-1 $-1 $332 $85 #
coedge $-1 $216 $216 $217 $333 reversed $133 $-1 #
coedge $-1 $217 $217 $216 $333 forward $135 $-1 #
coedge $-1 $218 $218 $136 $219 forward $213 $-1 #
edge $-1 $334 -5.1398565825151937e-016 $334 6.2831853071795996 $218 $335 forward 7 unknown #
face $-1 $336 $337 $33 $-1 $338 reversed single #
loop $-1 $-1 $339 $137 #
plane-surface $-1 -65.915097506637778 0 0 1 0 0 0 0 -1 forward_v I I I I #
coedge $-1 $340 $231 $341 $342 forward $138 $-1 #
coedge $-1 $343 $140 $340 $344 forward $89 $-1 #
coedge $-1 $140 $343 $345 $346 forward $89 $-1 #
coedge $-1 $234 $233 $140 $227 reversed $235 $-1 #
edge $-1 $347 -31.065409078806621 $348 31.065409078806621 $226 $349 forward 7 unknown #
coedge $-1 $142 $141 $350 $351 forward $56 $-1 #
coedge $-1 $352 $353 $141 $230 reversed $337 $-1 #
edge $-1 $237 -65.915097506637778 $354 65.915097506637778 $229 $355 forward 7 unknown #
coedge $-1 $223 $356 $142 $232 reversed $138 $-1 #
edge $-1 $357 -65.915097506637778 $236 65.915097506637778 $231 $358 forward 7 unknown #
coedge $-1 $226 $143 $356 $359 forward $235 $-1 #
coedge $-1 $143 $226 $352 $360 reversed $235 $-1 #
loop $-1 $-1 $233 $336 #
vertex $-1 $144 $361 #
vertex $-1 $144 $362 #
straight-curve $-1 65.915097506637778 0 12.052813672868085 0 1 0 I I #
face $-1 $363 $364 $34 $-1 $365 forward single #
loop $-1 $-1 $366 $145 #
plane-surface $-1 -65.915097506637778 0 0 1 0 0 0 0 -1 forward_v I I I I #
coedge $-1 $249 $367 $251 $368 forward $146 $-1 #
coedge $-1 $148 $251 $369 $370 reversed $93 $-1 #
coedge $-1 $371 $247 $148 $245 forward $372 $-1 #
edge $-1 $253 2.0492210947670442 $373 7.3521354169897064 $244 $374 forward 7 unknown #
coedge $-1 $150 $149 $366 $375 reversed $59 $-1 #
coedge $-1 $244 $376 $149 $248 forward $372 $-1 #
edge $-1 $377 -35.244385035331263 $253 -26.097039907281768 $247 $378 forward 7 unknown #
coedge $-1 $379 $242 $150 $250 forward $146 $-1 #
edge $-1 $252 26.097039907281768 $380 35.244385035331263 $249 $381 forward 7 unknown #
coedge $-1 $243 $151 $242 $368 reversed $93 $-1 #
vertex $-1 $250 $382 #
vertex $-1 $248 $383 #
straight-curve $-1 -56.767752378588284 0 6.7498993506454195 0 -1 0 I I #
face $-1 $384 $385 $35 $-1 $386 reversed single #
loop $-1 $-1 $387 $153 #
plane-surface $-1 70.309726915803424 -6.9597817330704501 0 0 -1 0 0 0 -1 forward_v I I I I #
coedge $-1 $388 $156 $389 $390 forward $97 $-1 #
coedge $-1 $156 $388 $264 $391 forward $97 $-1 #
edge $-1 $266 -10.486793946079359 $392 -6.9597817330704501 $156 $393 forward 7 unknown #
coedge $-1 $158 $157 $394 $395 forward $62 $-1 #
coedge $-1 $396 $397 $157 $263 forward $398 $-1 #
edge $-1 $399 6.9597817330704501 $267 10.486793946079359 $262 $400 forward 7 unknown #
coedge $-1 $401 $159 $259 $391 reversed $154 $-1 #
coedge $-1 $159 $401 $396 $402 reversed $154 $-1 #
vertex $-1 $260 $403 #
vertex $-1 $402 $404 #
straight-curve $-1 65.915097506637778 -10.486793946079359 0 0 0 1 I I #
face $-1 $-1 $281 $36 $-1 $405 forward single #
loop $-1 $-1 $406 $161 #
plane-surface $-1 0 31.065409078806621 0 0 -1 0 0 0 -1 forward_v I I I I #
coedge $-1 $407 $408 $409 $410 reversed $162 $-1 #
coedge $-1 $411 $164 $166 $279 forward $101 $-1 #
coedge $-1 $164 $411 $407 $412 forward $101 $-1 #
coedge $-1 $409 $167 $164 $276 forward $281 $-1 #
edge $-1 $283 -27.953690365140783 $413 -12.077861558155444 $275 $414 forward 7 unknown #
coedge $-1 $415 $416 $165 $278 forward $270 $-1 #
edge $-1 $417 -59.263943972840252 $282 -48.405205457726531 $277 $418 forward 7 unknown #
edge $-1 $283 49.592227060082173 $417 62.13081815761322 $166 $419 forward 7 unknown #
coedge $-1 $167 $409 $415 $420 forward $281 $-1 #
loop $-1 $-1 $409 $269 #
vertex $-1 $278 $421 #
vertex $-1 $168 $422 #
straight-curve $-1 -47.969466326788897 57.084149859730147 12.052813672868083 0 -1 0 I I #
coedge $-1 $285 $285 $-1 $423 reversed $171 $-1 #
edge $-1 $424 0 $424 6.2831853071796004 $172 $425 forward 7 unknown #
vertex $-1 $175 $426 #
ellipse-curve $-1 -43.433515239078801 27.930761388416581 6.6234444153112202 0 0.86602541151947299 0.49999998660252726 2 0 0 1 I I #
coedge $-1 $289 $289 $-1 $427 reversed $178 $-1 #
edge $-1 $428 0 $428 6.2831853071796004 $179 $429 forward 7 unknown #
vertex $-1 $182 $430 #
ellipse-curve $-1 -36.629588607513654 27.930761388416581 6.6234444153112202 0 0.86602541151947299 0.49999998660252726 2 0 0 1 I I #
face $-1 $-1 $431 $39 $-1 $432 reversed single #
loop $-1 $-1 $189 $183 #
plane-surface $-1 0 0 12.052813672868085 0 0 1 1 0 0 forward_v I I I I #
coedge $-1 $433 $434 $435 $436 reversed $184 $-1 #
coedge $-1 $437 $186 $188 $303 forward $115 $-1 #
coedge $-1 $186 $437 $433 $438 forward $115 $-1 #
coedge $-1 $435 $189 $186 $300 forward $294 $-1 #
edge $-1 $306 0.51970740158292017 $439 16.395536208568259 $299 $440 forward 7 unknown #
coedge $-1 $441 $442 $187 $302 forward $431 $-1 #
edge $-1 $443 -59.263943972840252 $305 -48.405205457726531 $301 $444 forward 7 unknown #
edge $-1 $306 49.592227060082173 $443 62.13081815761322 $188 $445 forward 7 unknown #
coedge $-1 $189 $435 $441 $446 forward $294 $-1 #
vertex $-1 $302 $447 #
vertex $-1 $190 $448 #
straight-curve $-1 8.97732920665851 57.084149859730147 12.052813672868083 0 -1 0 I I #
coedge $-1 $308 $308 $-1 $449 reversed $193 $-1 #
edge $-1 $450 0 $450 6.2831853071796004 $194 $451 forward 7 unknown #
vertex $-1 $197 $452 #
ellipse-curve $-1 13.513280294368599 27.930761388416581 6.6234444153112202 0 0.86602541151947299 0.49999998660252726 2 0 0 1 I I #
coedge $-1 $312 $312 $-1 $453 reversed $200 $-1 #
edge $-1 $454 0 $454 6.2831853071796004 $201 $455 forward 7 unknown #
vertex $-1 $204 $456 #
ellipse-curve $-1 20.317206925933746 27.930761388416581 6.6234444153112202 0 0.86602541151947299 0.49999998660252726 2 0 0 1 I I #
face $-1 $-1 $328 $42 $-1 $457 forward single #
loop $-1 $-1 $458 $205 #
plane-surface $-1 0 -31.065409078806621 0 0 1 0 0 0 1 forward_v I I I I #
coedge $-1 $459 $460 $321 $461 reversed $206 $-1 #
coedge $-1 $462 $208 $210 $326 forward $129 $-1 #
coedge $-1 $208 $462 $319 $461 forward $129 $-1 #
coedge $-1 $463 $211 $208 $323 forward $328 $-1 #
edge $-1 $330 9.3876785954034396 $464 34.71594205392438 $322 $465 forward 7 unknown #
coedge $-1 $466 $467 $209 $325 forward $317 $-1 #
edge $-1 $468 -34.120506388723136 $329 -27.54518787495666 $324 $469 forward 7 unknown #
edge $-1 $330 -7.9312671311921505 $468 1.9213955892398137e-014 $210 $470 forward 7 unknown #
coedge $-1 $211 $463 $466 $471 forward $328 $-1 #
loop $-1 $-1 $322 $316 #
vertex $-1 $325 $472 #
vertex $-1 $212 $473 #
straight-curve $-1 -31.439488920067348 -70.178797503236027 12.052813672868083 0 1 0 I I #
coedge $-1 $332 $332 $-1 $474 reversed $215 $-1 #
edge $-1 $475 0 $475 6.2831853071796004 $216 $476 forward 7 unknown #
vertex $-1 $219 $477 #
ellipse-curve $-1 -44.103620649327816 -28.847854978629524 8.7651544159848456 0 -0.82903758062907751 0.55919289150049634 1 0 0 1 I I #
face $-1 $-1 $235 $33 $-1 $478 reversed single #
loop $-1 $-1 $352 $220 #
plane-surface $-1 0 31.065409078806621 0 0 -1 0 0 0 -1 forward_v I I I I #
coedge $-1 $479 $350 $353 $480 forward $221 $-1 #
coedge $-1 $356 $223 $224 $344 reversed $138 $-1 #
coedge $-1 $350 $479 $223 $342 reversed $221 $-1 #
edge $-1 $357 -12.052813672868085 $481 12.052813672868085 $341 $482 forward 7 unknown #
coedge $-1 $225 $224 $479 $483 forward $89 $-1 #
edge $-1 $348 -65.915097506637778 $481 65.915097506637778 $340 $484 forward 7 unknown #
coedge $-1 $353 $352 $225 $346 reversed $337 $-1 #
edge $-1 $485 -65.915097506637778 $347 65.915097506637778 $345 $486 forward 7 unknown #
vertex $-1 $227 $487 #
vertex $-1 $359 $488 #
straight-curve $-1 65.915097506637778 0 -12.052813672868085 0 -1 0 I I #
coedge $-1 $339 $341 $228 $351 reversed $221 $-1 #
edge $-1 $354 -31.065409078806621 $357 31.065409078806621 $350 $489 forward 7 unknown #
coedge $-1 $345 $229 $234 $360 forward $337 $-1 #
coedge $-1 $229 $345 $339 $480 reversed $337 $-1 #
vertex $-1 $230 $490 #
straight-curve $-1 0 31.065409078806621 12.052813672868085 -1 0 0 I I #
coedge $-1 $231 $340 $233 $359 reversed $138 $-1 #
vertex $-1 $351 $491 #
straight-curve $-1 0 -31.065409078806621 12.052813672868085 1 0 0 I I #
edge $-1 $236 -12.052813672868085 $348 12.052813672868085 $233 $492 forward 7 unknown #
edge $-1 $237 -12.052813672868085 $347 12.052813672868085 $234 $493 forward 7 unknown #
point $-1 65.915097506637778 -31.065409078806621 12.052813672868085 #
point $-1 65.915097506637778 31.065409078806621 12.052813672868085 #
face $-1 $-1 $372 $34 $-1 $494 reversed single #
loop $-1 $-1 $369 $239 #
plane-surface $-1 0 0 12.052813672868085 0 0 1 1 0 0 forward_v I I I I #
coedge $-1 $495 $496 $246 $375 forward $240 $-1 #
coedge $-1 $242 $379 $497 $498 reversed $146 $-1 #
edge $-1 $499 -7.3521354169897064 $252 -2.0492210947670442 $242 $500 forward 7 unknown #
coedge $-1 $497 $501 $243 $370 forward $364 $-1 #
edge $-1 $373 -31.065409078806621 $499 31.065409078806621 $369 $502 forward 7 unknown #
coedge $-1 $376 $244 $501 $503 reversed $372 $-1 #
loop $-1 $-1 $244 $363 #
vertex $-1 $245 $504 #
straight-curve $-1 -56.767752378588284 -31.065409078806621 4.7006782558783753 0 0 1 I I #
edge $-1 $380 -31.065409078806621 $377 31.065409078806621 $366 $505 forward 7 unknown #
coedge $-1 $247 $371 $495 $506 forward $372 $-1 #
vertex $-1 $375 $507 #
straight-curve $-1 -30.670712471306516 -31.065409078806621 6.7498993506454195 1 0 0 I I #
coedge $-1 $367 $249 $496 $508 reversed $146 $-1 #
vertex $-1 $375 $509 #
straight-curve $-1 -30.670712471306516 31.065409078806621 6.7498993506454195 -1 0 0 I I #
point $-1 -56.767752378588284 31.065409078806621 6.7498993506454195 #
point $-1 -56.767752378588284 -31.065409078806621 6.7498993506454195 #
face $-1 $-1 $398 $35 $-1 $510 forward single #
loop $-1 $-1 $511 $255 #
plane-surface $-1 74.704356324969055 -8.7232878395749047 0 -1 0 0 0 0 1 forward_v I I I I #
coedge $-1 $389 $512 $513 $514 forward $256 $-1 #
coedge $-1 $259 $258 $515 $516 forward $97 $-1 #
coedge $-1 $394 $387 $258 $390 reversed $256 $-1 #
edge $-1 $392 -4.3946294091656313 $517 4.3946294091656313 $389 $518 forward 7 unknown #
edge $-1 $519 -4.3946294091656313 $266 4.3946294091656313 $264 $520 forward 7 unknown #
vertex $-1 $390 $521 #
straight-curve $-1 65.915097506637778 0 -12.052813672868085 0 1 0 I I #
coedge $-1 $512 $389 $261 $395 reversed $256 $-1 #
edge $-1 $399 -12.052813672868085 $392 12.052813672868085 $394 $522 forward 7 unknown #
coedge $-1 $523 $262 $265 $402 forward $398 $-1 #
coedge $-1 $262 $523 $512 $524 forward $398 $-1 #
loop $-1 $-1 $262 $384 #
vertex $-1 $263 $525 #
straight-curve $-1 65.915097506637778 0 12.052813672868085 0 -1 0 I I #
coedge $-1 $265 $264 $511 $526 reversed $154 $-1 #
edge $-1 $267 -4.3946294091656313 $527 4.3946294091656313 $265 $528 forward 7 unknown #
point $-1 65.915097506637792 -10.486793946079359 -12.052813672868085 #
point $-1 65.915097506637792 -10.486793946079359 12.052813672868085 #
plane-surface $-1 0 0 12.052813672868085 0 0 1 1 0 0 forward_v I I I I #
coedge $-1 $416 $415 $408 $529 forward $270 $-1 #
coedge $-1 $408 $272 $274 $412 reversed $162 $-1 #
coedge $-1 $272 $407 $406 $529 reversed $162 $-1 #
coedge $-1 $280 $275 $272 $410 forward $281 $-1 #
edge $-1 $413 -32.288036161703616 $530 -26.018740780923526 $409 $531 forward 7 unknown #
coedge $-1 $274 $273 $416 $532 reversed $101 $-1 #
edge $-1 $533 -62.13081815761322 $413 -49.592227060082173 $407 $534 forward 7 unknown #
vertex $-1 $276 $535 #
straight-curve $-1 -20.015775961648114 24.796113698026534 12.052813672868087 1 0 0 I I #
coedge $-1 $406 $277 $280 $420 reversed $270 $-1 #
coedge $-1 $277 $406 $411 $532 forward $270 $-1 #
vertex $-1 $278 $536 #
straight-curve $-1 -47.969466326788897 31.065409078806624 60.458019130594614 0 0 1 I I #
straight-curve $-1 -47.969466326788897 8.3239595483064477e-007 55.000942520742896 0 0.49999998660252726 -0.86602541151947299 I I #
edge $-1 $530 32.093637519803558 $282 47.969466326788897 $415 $537 forward 7 unknown #
point $-1 -47.969466326788897 31.065409078806621 12.052813672868085 #
point $-1 -47.969466326788897 24.796113698026534 12.052813672868083 #
edge $-1 $538 1 $538 0 $285 $-1 forward 7 unknown #
vertex $-1 $286 $539 #
ellipse-curve $-1 -43.433515239078801 22.68793388415023 3.5964966525508051 0 0.86602541151947299 0.49999998660252726 2 0 0 1 I I #
point $-1 -41.433515239078801 27.930761388416556 6.6234444153112086 #
edge $-1 $540 1 $540 0 $289 $-1 forward 7 unknown #
vertex $-1 $290 $541 #
ellipse-curve $-1 -36.629588607513654 22.68793388415023 3.5964966525508051 0 0.86602541151947299 0.49999998660252726 2 0 0 1 I I #
point $-1 -34.629588607513654 27.930761388416556 6.6234444153112086 #
loop $-1 $-1 $301 $293 #
plane-surface $-1 0 31.065409078806621 0 0 -1 0 0 0 -1 forward_v I I I I #
coedge $-1 $434 $296 $298 $438 reversed $184 $-1 #
coedge $-1 $296 $433 $542 $543 reversed $184 $-1 #
coedge $-1 $304 $299 $296 $436 forward $294 $-1 #
edge $-1 $439 -32.288036161703616 $544 -26.018740780923526 $435 $545 forward 7 unknown #
coedge $-1 $298 $297 $442 $546 reversed $115 $-1 #
edge $-1 $547 -62.13081815761322 $439 -49.592227060082173 $433 $548 forward 7 unknown #
vertex $-1 $300 $549 #
straight-curve $-1 8.4576218050755898 24.796113698026534 12.052813672868087 1 0 0 I I #
coedge $-1 $542 $301 $304 $446 reversed $431 $-1 #
coedge $-1 $301 $542 $437 $546 forward $431 $-1 #
vertex $-1 $302 $550 #
straight-curve $-1 8.97732920665851 31.065409078806624 60.458019130594614 0 0 1 I I #
straight-curve $-1 8.97732920665851 8.3239595483064477e-007 55.000942520742896 0 0.49999998660252726 -0.86602541151947299 I I #
edge $-1 $544 -24.853158013643849 $305 -8.97732920665851 $441 $551 forward 7 unknown #
point $-1 8.97732920665851 31.065409078806621 12.052813672868085 #
point $-1 8.97732920665851 24.796113698026534 12.052813672868083 #
edge $-1 $552 1 $552 0 $308 $-1 forward 7 unknown #
vertex $-1 $309 $553 #
ellipse-curve $-1 13.513280294368599 22.68793388415023 3.5964966525508051 0 0.86602541151947299 0.49999998660252726 2 0 0 1 I I #
point $-1 15.513280294368599 27.930761388416556 6.6234444153112086 #
edge $-1 $554 1 $554 0 $312 $-1 forward 7 unknown #
vertex $-1 $313 $555 #
ellipse-curve $-1 20.317206925933746 22.68793388415023 3.5964966525508051 0 0.86602541151947299 0.49999998660252726 2 0 0 1 I I #
point $-1 22.317206925933746 27.930761388416556 6.6234444153112086 #
plane-surface $-1 0 0 12.052813672868085 0 0 1 1 0 0 forward_v I I I I #
coedge $-1 $467 $466 $459 $556 forward $317 $-1 #
coedge $-1 $460 $319 $458 $556 reversed $206 $-1 #
coedge $-1 $319 $459 $463 $557 reversed $206 $-1 #
edge $-1 $558 -1.9213955892398137e-014 $464 7.9312671311921505 $319 $559 forward 7 unknown #
coedge $-1 $321 $320 $467 $560 reversed $129 $-1 #
coedge $-1 $327 $322 $460 $557 forward $328 $-1 #
vertex $-1 $557 $561 #
straight-curve $-1 -22.051810324663908 -26.630300878452427 12.052813672868085 -1 0 0 I I #
coedge $-1 $458 $324 $327 $471 reversed $317 $-1 #
coedge $-1 $324 $458 $462 $560 forward $317 $-1 #
vertex $-1 $325 $562 #
straight-curve $-1 -31.439488920067348 -31.065409078806624 39.598001547824744 0 0 1 I I #
straight-curve $-1 -31.439488920067348 -31.06540907880661 5.4774951591016219 0 -0.55919289150049634 -0.82903758062907751 I I #
edge $-1 $563 -56.767752378588284 $329 -31.439488920067348 $466 $564 forward 7 unknown #
point $-1 -31.439488920067348 -31.065409078806621 12.052813672868085 #
point $-1 -31.439488920067348 -26.630300878452424 12.052813672868085 #
edge $-1 $565 1 $565 0 $332 $-1 forward 7 unknown #
vertex $-1 $333 $566 #
ellipse-curve $-1 -44.103620649327816 -25.585519864524059 6.5646816652610864 0 -0.82903758062907751 0.55919289150049634 1 0 0 1 I I #
point $-1 -43.103620649327816 -28.847854978629528 8.7651544159848473 #
plane-surface $-1 65.915097506637778 0 0 -1 0 0 0 0 1 forward_v I I I I #
coedge $-1 $341 $339 $343 $483 reversed $221 $-1 #
edge $-1 $354 -12.052813672868085 $485 12.052813672868085 $353 $567 forward 7 unknown #
vertex $-1 $483 $568 #
straight-curve $-1 -65.915097506637778 -31.065409078806621 0 0 0 -1 I I #
edge $-1 $481 -31.065409078806621 $485 31.065409078806621 $479 $569 forward 7 unknown #
straight-curve $-1 0 -31.065409078806621 -12.052813672868085 -1 0 0 I I #
vertex $-1 $346 $570 #
straight-curve $-1 0 31.065409078806621 -12.052813672868085 1 0 0 I I #
point $-1 65.915097506637778 31.065409078806621 -12.052813672868085 #
point $-1 65.915097506637778 -31.065409078806621 -12.052813672868085 #
straight-curve $-1 -65.915097506637778 0 12.052813672868085 0 -1 0 I I #
point $-1 -65.915097506637778 31.065409078806621 12.052813672868085 #
point $-1 -65.915097506637778 -31.065409078806621 12.052813672868085 #
straight-curve $-1 65.915097506637778 -31.065409078806621 0 0 0 -1 I I #
straight-curve $-1 65.915097506637778 31.065409078806621 0 0 0 -1 I I #
plane-surface $-1 0 -31.065409078806621 0 0 1 0 0 0 1 forward_v I I I I #
coedge $-1 $571 $366 $376 $506 reversed $240 $-1 #
coedge $-1 $366 $571 $379 $508 forward $240 $-1 #
coedge $-1 $572 $369 $367 $498 forward $364 $-1 #
edge $-1 $499 56.767752378588284 $573 65.915097506637778 $367 $574 forward 7 unknown #
vertex $-1 $498 $575 #
straight-curve $-1 -56.767752378588284 31.065409078806621 4.7006782558783753 0 0 -1 I I #
coedge $-1 $369 $572 $371 $503 forward $364 $-1 #
straight-curve $-1 -56.767752378588284 0 12.052813672868085 0 1 0 I I #
edge $-1 $576 -65.915097506637778 $373 -56.767752378588284 $371 $577 forward 7 unknown #
point $-1 -56.767752378588284 -31.065409078806621 12.052813672868082 #
straight-curve $-1 -65.915097506637778 0 6.7498993506454195 0 -1 0 I I #
edge $-1 $576 -12.052813672868085 $377 -6.7498993506454195 $495 $578 forward 7 unknown #
point $-1 -65.915097506637778 -31.065409078806621 6.7498993506454195 #
edge $-1 $573 -12.052813672868085 $380 -6.7498993506454195 $379 $579 forward 7 unknown #
point $-1 -65.915097506637778 31.065409078806621 6.7498993506454195 #
plane-surface $-1 0 0 12.052813672868085 0 0 1 1 0 0 forward_v I I I I #
coedge $-1 $515 $580 $401 $526 forward $385 $-1 #
coedge $-1 $387 $394 $397 $524 reversed $256 $-1 #
coedge $-1 $580 $515 $387 $514 reversed $385 $-1 #
edge $-1 $581 -12.052813672868085 $517 12.052813672868085 $513 $582 forward 7 unknown #
coedge $-1 $513 $511 $388 $516 reversed $385 $-1 #
edge $-1 $517 -1.7635061065044546 $519 1.7635061065044546 $515 $583 forward 7 unknown #
vertex $-1 $516 $584 #
straight-curve $-1 70.309726915803424 -6.9597817330704501 -12.052813672868085 1 0 0 I I #
vertex $-1 $526 $585 #
straight-curve $-1 70.309726915803424 -10.486793946079359 -12.052813672868085 -1 0 0 I I #
point $-1 65.915097506637792 -6.9597817330704501 -12.052813672868085 #
straight-curve $-1 65.915097506637778 -6.9597817330704501 0 0 0 -1 I I #
coedge $-1 $397 $396 $580 $586 forward $398 $-1 #
edge $-1 $581 -4.3946294091656313 $399 4.3946294091656313 $512 $587 forward 7 unknown #
point $-1 65.915097506637792 -6.9597817330704501 12.052813672868085 #
edge $-1 $527 -12.052813672868085 $519 12.052813672868085 $511 $588 forward 7 unknown #
vertex $-1 $586 $589 #
straight-curve $-1 70.309726915803424 -10.486793946079359 12.052813672868085 1 0 0 I I #
edge $-1 $530 48.405205457726531 $533 59.263943972840252 $406 $590 forward 7 unknown #
vertex $-1 $420 $591 #
straight-curve $-1 -32.093637519803558 57.084149859730147 12.052813672868083 0 1 0 I I #
edge $-1 $533 12.077861558155444 $417 27.953690365140783 $416 $592 forward 7 unknown #
vertex $-1 $532 $593 #
straight-curve $-1 -32.093637519803558 8.3239595483064477e-007 55.000942520742896 0 -0.49999998660252726 0.86602541151947299 I I #
point $-1 -32.093637519803558 24.796113698026534 12.052813672868083 #
point $-1 -47.969466326788897 31.065409078806621 1.1940751577543622 #
straight-curve $-1 0 31.065409078806621 12.052813672868085 -1 0 0 I I #
vertex $-1 $423 $594 #
point $-1 -41.433515239078801 22.68793388415023 3.5964966525508051 #
vertex $-1 $427 $595 #
point $-1 -34.629588607513654 22.68793388415023 3.5964966525508051 #
coedge $-1 $442 $441 $434 $543 forward $431 $-1 #
edge $-1 $544 48.405205457726531 $547 59.263943972840252 $542 $596 forward 7 unknown #
vertex $-1 $446 $597 #
straight-curve $-1 24.853158013643849 57.084149859730147 12.052813672868083 0 1 0 I I #
edge $-1 $547 -16.395536208568259 $443 -0.51970740158292017 $442 $598 forward 7 unknown #
vertex $-1 $546 $599 #
straight-curve $-1 24.853158013643849 8.3239595483064477e-007 55.000942520742896 0 -0.49999998660252726 0.86602541151947299 I I #
point $-1 24.853158013643849 24.796113698026534 12.052813672868083 #
point $-1 8.97732920665851 31.065409078806621 1.1940751577543622 #
straight-curve $-1 0 31.065409078806621 12.052813672868085 -1 0 0 I I #
vertex $-1 $449 $600 #
point $-1 15.513280294368599 22.68793388415023 3.5964966525508051 #
vertex $-1 $453 $601 #
point $-1 22.317206925933746 22.68793388415023 3.5964966525508051 #
edge $-1 $563 27.54518787495666 $558 34.120506388723136 $458 $602 forward 7 unknown #
edge $-1 $464 26.630300878452424 $563 31.065409078806621 $463 $603 forward 7 unknown #
vertex $-1 $556 $604 #
straight-curve $-1 -56.767752378588284 -31.06540907880661 5.4774951591016219 0 0.55919289150049634 0.82903758062907751 I I #
edge $-1 $558 -34.71594205392438 $468 -9.3876785954034396 $467 $605 forward 7 unknown #
point $-1 -56.767752378588284 -26.630300878452424 12.052813672868085 #
point $-1 -31.439488920067348 -31.065409078806621 5.4774951591016059 #
vertex $-1 $471 $606 #
straight-curve $-1 0 -31.065409078806621 12.052813672868085 1 0 0 I I #
vertex $-1 $474 $607 #
point $-1 -43.103620649327816 -25.585519864524059 6.5646816652610864 #
straight-curve $-1 -65.915097506637778 31.065409078806621 0 0 0 -1 I I #
point $-1 -65.915097506637778 -31.065409078806621 -12.052813672868085 #
straight-curve $-1 -65.915097506637778 0 -12.052813672868085 0 1 0 I I #
point $-1 -65.915097506637778 31.065409078806621 -12.052813672868085 #
coedge $-1 $496 $495 $572 $608 reversed $240 $-1 #
coedge $-1 $501 $497 $571 $608 forward $364 $-1 #
vertex $-1 $498 $609 #
straight-curve $-1 0 31.065409078806621 12.052813672868085 -1 0 0 I I #
point $-1 -56.767752378588284 31.065409078806621 12.052813672868082 #
vertex $-1 $608 $610 #
straight-curve $-1 0 -31.065409078806621 12.052813672868085 1 0 0 I I #
straight-curve $-1 -65.915097506637778 -31.065409078806621 0 0 0 -1 I I #
straight-curve $-1 -65.915097506637778 31.065409078806621 0 0 0 -1 I I #
coedge $-1 $511 $513 $523 $586 reversed $385 $-1 #
vertex $-1 $586 $611 #
straight-curve $-1 74.704356324969055 -6.9597817330704501 0 0 0 -1 I I #
straight-curve $-1 74.704356324969055 -8.7232878395749047 -12.052813672868085 0 -1 0 I I #
point $-1 74.704356324969055 -6.9597817330704501 -12.052813672868085 #
point $-1 74.704356324969055 -10.486793946079359 -12.052813672868085 #
edge $-1 $527 -1.7635061065044546 $581 1.7635061065044546 $580 $612 forward 7 unknown #
straight-curve $-1 70.309726915803424 -6.9597817330704501 12.052813672868085 -1 0 0 I I #
straight-curve $-1 74.704356324969055 -10.486793946079359 0 0 0 -1 I I #
point $-1 74.704356324969055 -10.486793946079359 12.052813672868085 #
straight-curve $-1 -32.093637519803558 31.065409078806624 60.458019130594614 0 0 -1 I I #
point $-1 -32.093637519803558 31.065409078806621 12.052813672868085 #
straight-curve $-1 -20.015775961648114 31.065409078806624 1.1940751577543622 -1 0 0 I I #
point $-1 -32.093637519803558 31.065409078806621 1.1940751577543622 #
point $-1 -43.433515239078801 20.955883061111283 2.5964966793457509 #
point $-1 -36.629588607513654 20.955883061111283 2.5964966793457509 #
straight-curve $-1 24.853158013643849 31.065409078806624 60.458019130594614 0 0 -1 I I #
point $-1 24.853158013643849 31.065409078806621 12.052813672868085 #
straight-curve $-1 8.4576218050755898 31.065409078806624 1.1940751577543622 -1 0 0 I I #
point $-1 24.853158013643849 31.065409078806621 1.1940751577543622 #
point $-1 13.513280294368599 20.955883061111283 2.5964966793457509 #
point $-1 20.317206925933746 20.955883061111283 2.5964966793457509 #
straight-curve $-1 -56.767752378588284 -31.065409078806624 39.598001547824744 0 0 -1 I I #
straight-curve $-1 -56.767752378588284 0 12.052813672868085 0 -1 0 I I #
point $-1 -56.767752378588284 -31.065409078806621 5.4774951591016059 #
straight-curve $-1 -22.051810324663908 -31.065409078806621 5.4774951591016112 1 0 0 I I #
point $-1 -56.767752378588284 -31.065409078806621 12.052813672868082 #
point $-1 -44.103620649327816 -24.756482283894982 6.0054887737605904 #
edge $-1 $573 -31.065409078806621 $576 31.065409078806621 $571 $613 forward 7 unknown #
point $-1 -65.915097506637778 31.065409078806621 12.052813672868085 #
point $-1 -65.915097506637778 -31.065409078806621 12.052813672868085 #
point $-1 74.704356324969055 -6.9597817330704501 12.052813672868085 #
straight-curve $-1 74.704356324969055 -8.7232878395749047 12.052813672868085 0 1 0 I I #
straight-curve $-1 -65.915097506637778 0 12.052813672868085 0 -1 0 I I #
End-of-ACIS-data 