500 0 9 0           
7 Unknown 11 ACIS 5.0 NT 24 Fri Mar 26 18:29:50 1999 
-1 9.9999999999999995e-007 1e-010 
body $-1 $9 $-1 $10 #
body $-1 $11 $-1 $12 #
body $-1 $13 $-1 $14 #
body $-1 $15 $-1 $16 #
body $-1 $17 $-1 $18 #
body $-1 $19 $-1 $20 #
body $-1 $21 $-1 $22 #
body $-1 $23 $-1 $24 #
body $-1 $25 $-1 $26 #
lump $-1 $-1 $27 $0 #
transform $-1 1 0 0 0 1 0 0 0 1 74.743491927854251 32.108428196834296 12.306679298283688 1 rotate no_reflect no_shear #
lump $-1 $-1 $28 $1 #
transform $-1 1 0 0 0 1 0 0 0 1 74.743491927854251 32.108428196834296 12.306679298283688 1 rotate no_reflect no_shear #
lump $-1 $-1 $29 $2 #
transform $-1 1 0 0 0 1 0 0 0 1 74.743491927854251 32.108428196834296 12.306679298283688 1 rotate no_reflect no_shear #
lump $-1 $-1 $30 $3 #
transform $-1 1 0 0 0 1 0 0 0 1 74.743491927854251 32.108428196834296 12.306679298283688 1 rotate no_reflect no_shear #
lump $-1 $-1 $31 $4 #
transform $-1 1 0 0 0 1 0 0 0 1 74.743491927854251 32.108428196834296 12.306679298283688 1 rotate no_reflect no_shear #
lump $-1 $-1 $32 $5 #
transform $-1 1 0 0 0 1 0 0 0 1 74.743491927854251 32.108428196834296 12.306679298283688 1 rotate no_reflect no_shear #
lump $-1 $-1 $33 $6 #
transform $-1 1 0 0 0 1 0 0 0 1 74.743491927854251 32.108428196834296 12.306679298283688 1 rotate no_reflect no_shear #
lump $-1 $-1 $34 $7 #
transform $-1 1 0 0 0 1 0 0 0 1 74.743491927854251 32.108428196834296 12.306679298283688 1 rotate no_reflect no_shear #
lump $-1 $-1 $35 $8 #
transform $-1 1 0 0 0 1 0 0 0 1 74.743491927854251 32.108428196834296 12.306679298283688 1 rotate no_reflect no_shear #
shell $-1 $-1 $-1 $36 $-1 $9 #
shell $-1 $-1 $-1 $37 $-1 $11 #
shell $-1 $-1 $-1 $38 $-1 $13 #
shell $-1 $-1 $-1 $39 $-1 $15 #
shell $-1 $-1 $-1 $40 $-1 $17 #
shell $-1 $-1 $-1 $41 $-1 $19 #
shell $-1 $-1 $-1 $42 $-1 $21 #
shell $-1 $-1 $-1 $43 $-1 $23 #
shell $-1 $-1 $-1 $44 $-1 $25 #
face $-1 $45 $46 $27 $-1 $47 reversed single #
face $-1 $48 $49 $28 $-1 $50 forward single #
face $-1 $51 $52 $29 $-1 $53 reversed single #
face $-1 $54 $55 $30 $-1 $56 forward single #
face $-1 $57 $58 $31 $-1 $59 forward single #
face $-1 $60 $61 $32 $-1 $62 reversed single #
face $-1 $63 $64 $33 $-1 $65 forward single #
face $-1 $66 $67 $34 $-1 $68 forward single #
face $-1 $69 $70 $35 $-1 $71 forward single #
face $-1 $72 $73 $27 $-1 $74 forward single #
loop $-1 $-1 $75 $36 #
plane-surface $-1 0 -32.108428196834296 0 0 1 0 0 0 1 forward_v I I I I #
face $-1 $76 $77 $28 $-1 $78 forward single #
loop $-1 $-1 $79 $37 #
plane-surface $-1 0 -32.108428196834296 0 0 1 0 0 0 1 forward_v I I I I #
face $-1 $80 $81 $29 $-1 $82 reversed single #
loop $-1 $-1 $83 $38 #
plane-surface $-1 -187.56275200139874 -3.8162796935153089 103.31511962111779 0 1 0 -0.75470958851134928 0 0.65605901945558964 forward_v I I I I #
face $-1 $84 $85 $30 $-1 $86 forward single #
loop $-1 $87 $88 $39 #
cone-surface $-1 -70.696143958384084 -0.17220716868440533 7.9253815463374799 0.75470958851134928 0 -0.65605901945558964 0.98408852918338452 0 1.132064382767024 1 I I 0 1 1.5 forward I I I I #
face $-1 $89 $90 $31 $-1 $91 forward single #
loop $-1 $92 $93 $40 #
cone-surface $-1 -70.696143958384084 5.2939016185619465 7.9253815463374799 0.75470958851134928 0 -0.65605901945558964 0.98408852918338452 0 1.132064382767024 1 I I 0 1 1.5 forward I I I I #
face $-1 $94 $95 $32 $-1 $96 reversed single #
loop $-1 $-1 $97 $41 #
plane-surface $-1 52.645495385104539 10.530412345542988 216.4651738109944 0 -1 0 -0.62932039886446345 0 -0.77714595512881146 forward_v I I I I #
face $-1 $98 $99 $33 $-1 $100 forward single #
loop $-1 $101 $102 $42 #
cone-surface $-1 70.030186591359723 -1.4644141525694252 8.0847471694259649 -0.62932039886446345 0 -0.77714595512881146 0.77714595512881146 0 -0.62932039886446345 1 I I 0 1 1 forward I I I I #
face $-1 $103 $104 $34 $-1 $105 forward single #
loop $-1 $106 $107 $43 #
cone-surface $-1 70.030186591359723 3.0336457842227347 8.0847471694259649 -0.62932039886446345 0 -0.77714595512881146 0.77714595512881146 0 -0.62932039886446345 1 I I 0 1 1 forward I I I I #
face $-1 $108 $109 $35 $-1 $110 forward single #
loop $-1 $111 $112 $44 #
cone-surface $-1 70.030186591359723 7.5317057210148946 8.0847471694259649 -0.62932039886446345 0 -0.77714595512881146 0.77714595512881146 0 -0.62932039886446345 1 I I 0 1 1 forward I I I I #
face $-1 $113 $114 $27 $-1 $115 reversed single #
loop $-1 $-1 $116 $45 #
plane-surface $-1 0 0 12.306679298283688 0 0 1 1 0 0 forward_v I I I I #
coedge $-1 $117 $118 $119 $120 reversed $46 $-1 #
face $-1 $121 $122 $28 $-1 $123 reversed single #
loop $-1 $-1 $124 $48 #
plane-surface $-1 0 0 12.306679298283688 0 0 1 1 0 0 forward_v I I I I #
coedge $-1 $125 $126 $127 $128 forward $49 $-1 #
face $-1 $129 $130 $29 $-1 $131 reversed single #
loop $-1 $-1 $132 $51 #
plane-surface $-1 -74.743491927854265 2.5608472249387688 5.2428355713681043 -0.75470958851134928 0 0.65605901945558964 0.65605901945558964 0 0.75470958851134928 forward_v I I I I #
coedge $-1 $133 $134 $135 $136 reversed $52 $-1 #
face $-1 $-1 $137 $30 $-1 $138 forward single #
loop $-1 $139 $140 $54 #
cone-surface $-1 -69.153016554096567 -0.17220716868440533 6.5839613932573737 0.75470958851134928 0 -0.65605901945558964 0.49204426459169226 0 0.56603219138351202 1 I I -0.70710678118654757 0.70710678118654757 0.75 forward I I I I #
loop $-1 $-1 $141 $39 #
coedge $-1 $88 $88 $142 $143 reversed $55 $-1 #
face $-1 $-1 $144 $31 $-1 $145 forward single #
loop $-1 $146 $147 $57 #
cone-surface $-1 -69.153016554096567 5.2939016185619465 6.5839613932573737 0.75470958851134928 0 -0.65605901945558964 0.49204426459169226 0 0.56603219138351202 1 I I -0.70710678118654757 0.70710678118654757 0.75 forward I I I I #
loop $-1 $-1 $148 $40 #
coedge $-1 $93 $93 $149 $150 reversed $58 $-1 #
face $-1 $151 $152 $32 $-1 $153 reversed single #
loop $-1 $-1 $154 $60 #
plane-surface $-1 -41.429712920015547 3.0336457842227276 100.2919689631246 0.62932039886446345 0 0.77714595512881146 0.77714595512881146 0 -0.62932039886446345 forward_v I I I I #
coedge $-1 $155 $156 $157 $158 reversed $61 $-1 #
face $-1 $-1 $159 $33 $-1 $160 forward single #
loop $-1 $161 $162 $63 #
cone-surface $-1 68.762432584326888 -1.4644141525694252 6.5192013831434199 -0.62932039886446345 0 -0.77714595512881146 0.38857297756440573 0 -0.31466019943223172 1 I I -0.70710678118654746 0.70710678118654746 0.5 forward I I I I #
loop $-1 $-1 $163 $42 #
coedge $-1 $102 $102 $164 $165 reversed $64 $-1 #
face $-1 $-1 $166 $34 $-1 $167 forward single #
loop $-1 $168 $169 $66 #
cone-surface $-1 68.762432584326888 3.0336457842227347 6.5192013831434199 -0.62932039886446345 0 -0.77714595512881146 0.38857297756440573 0 -0.31466019943223172 1 I I -0.70710678118654746 0.70710678118654746 0.5 forward I I I I #
loop $-1 $-1 $170 $43 #
coedge $-1 $107 $107 $171 $172 reversed $67 $-1 #
face $-1 $-1 $173 $35 $-1 $174 forward single #
loop $-1 $175 $176 $69 #
cone-surface $-1 68.762432584326888 7.5317057210148946 6.5192013831434199 -0.62932039886446345 0 -0.77714595512881146 0.38857297756440573 0 -0.31466019943223172 1 I I -0.70710678118654746 0.70710678118654746 0.5 forward I I I I #
loop $-1 $-1 $177 $44 #
coedge $-1 $112 $112 $178 $179 reversed $70 $-1 #
face $-1 $180 $181 $27 $-1 $182 reversed single #
loop $-1 $-1 $183 $72 #
plane-surface $-1 0 0 -12.306679298283688 0 0 1 1 0 0 forward_v I I I I #
coedge $-1 $184 $185 $186 $187 forward $73 $-1 #
coedge $-1 $188 $75 $189 $190 reversed $46 $-1 #
coedge $-1 $75 $188 $191 $192 forward $46 $-1 #
coedge $-1 $193 $183 $75 $120 forward $114 $-1 #
edge $-1 $194 -74.743491927854251 $195 74.743491927854251 $75 $196 forward 7 unknown #
face $-1 $197 $198 $28 $-1 $199 reversed single #
loop $-1 $-1 $200 $76 #
plane-surface $-1 -74.743491927854251 0 0 1 0 0 0 0 -1 forward_v I I I I #
coedge $-1 $201 $202 $126 $203 forward $77 $-1 #
coedge $-1 $204 $79 $205 $206 reversed $49 $-1 #
coedge $-1 $79 $204 $124 $203 reversed $49 $-1 #
coedge $-1 $207 $208 $79 $128 reversed $209 $-1 #
edge $-1 $210 -12.306679298283688 $211 12.306679298283688 $127 $212 forward 7 unknown #
face $-1 $213 $214 $29 $-1 $215 reversed single #
loop $-1 $-1 $216 $80 #
plane-surface $-1 -187.56275200139874 8.9379741433928466 103.31511962111779 0 -1 0 0.75470958851134928 0 -0.65605901945558964 forward_v I I I I #
coedge $-1 $217 $218 $219 $220 reversed $81 $-1 #
coedge $-1 $134 $83 $221 $222 reversed $52 $-1 #
coedge $-1 $83 $133 $217 $223 reversed $52 $-1 #
coedge $-1 $219 $224 $83 $136 forward $225 $-1 #
edge $-1 $226 19.037884072845117 $227 25.178389585977413 $135 $228 forward 7 unknown #
loop $-1 $-1 $142 $84 #
plane-surface $-1 -74.743491927854265 2.5608472249387688 5.2428355713681043 -0.75470958851134928 0 0.65605901945558964 0.65605901945558964 0 0.75470958851134928 forward_v I I I I #
loop $-1 $-1 $229 $54 #
coedge $-1 $140 $140 $141 $230 reversed $85 $-1 #
coedge $-1 $141 $141 $140 $230 forward $87 $-1 #
coedge $-1 $142 $142 $88 $143 forward $137 $-1 #
edge $-1 $231 0 $231 6.2831853071796004 $142 $232 forward 7 unknown #
loop $-1 $-1 $149 $89 #
plane-surface $-1 -74.743491927854265 2.5608472249387688 5.2428355713681043 -0.75470958851134928 0 0.65605901945558964 0.65605901945558964 0 0.75470958851134928 forward_v I I I I #
loop $-1 $-1 $233 $57 #
coedge $-1 $147 $147 $148 $234 reversed $90 $-1 #
coedge $-1 $148 $148 $147 $234 forward $92 $-1 #
coedge $-1 $149 $149 $93 $150 forward $144 $-1 #
edge $-1 $235 0 $235 6.2831853071796004 $149 $236 forward 7 unknown #
face $-1 $237 $238 $32 $-1 $239 forward single #
loop $-1 $-1 $240 $94 #
plane-surface $-1 52.645495385104539 -4.463120777097533 216.4651738109944 0 1 0 0.62932039886446345 0 0.77714595512881146 forward_v I I I I #
coedge $-1 $241 $242 $243 $244 reversed $95 $-1 #
coedge $-1 $156 $97 $245 $246 reversed $61 $-1 #
coedge $-1 $97 $155 $241 $247 reversed $61 $-1 #
coedge $-1 $243 $248 $97 $158 forward $238 $-1 #
edge $-1 $249 -48.420744235301981 $250 -40.900321177514215 $157 $251 forward 7 unknown #
loop $-1 $-1 $164 $98 #
plane-surface $-1 -41.429712920015547 3.0336457842227276 100.2919689631246 0.62932039886446345 0 0.77714595512881146 0.77714595512881146 0 -0.62932039886446345 forward_v I I I I #
loop $-1 $-1 $252 $63 #
coedge $-1 $162 $162 $163 $253 reversed $99 $-1 #
coedge $-1 $163 $163 $162 $253 forward $101 $-1 #
coedge $-1 $164 $164 $102 $165 forward $159 $-1 #
edge $-1 $254 0 $254 6.2831853071796004 $164 $255 forward 7 unknown #
loop $-1 $-1 $171 $103 #
plane-surface $-1 -41.429712920015547 3.0336457842227276 100.2919689631246 0.62932039886446345 0 0.77714595512881146 0.77714595512881146 0 -0.62932039886446345 forward_v I I I I #
loop $-1 $-1 $256 $66 #
coedge $-1 $169 $169 $170 $257 reversed $104 $-1 #
coedge $-1 $170 $170 $169 $257 forward $106 $-1 #
coedge $-1 $171 $171 $107 $172 forward $166 $-1 #
edge $-1 $258 0 $258 6.2831853071796004 $171 $259 forward 7 unknown #
loop $-1 $-1 $178 $108 #
plane-surface $-1 -41.429712920015547 3.0336457842227276 100.2919689631246 0.62932039886446345 0 0.77714595512881146 0.77714595512881146 0 -0.62932039886446345 forward_v I I I I #
loop $-1 $-1 $260 $69 #
coedge $-1 $176 $176 $177 $261 reversed $109 $-1 #
coedge $-1 $177 $177 $176 $261 forward $111 $-1 #
coedge $-1 $178 $178 $112 $179 forward $173 $-1 #
edge $-1 $262 0 $262 6.2831853071796004 $178 $263 forward 7 unknown #
face $-1 $264 $265 $27 $-1 $266 reversed single #
loop $-1 $-1 $267 $113 #
plane-surface $-1 -74.743491927854251 0 0 1 0 0 0 0 -1 forward_v I I I I #
coedge $-1 $119 $268 $269 $270 forward $114 $-1 #
coedge $-1 $271 $116 $272 $273 forward $73 $-1 #
coedge $-1 $116 $271 $188 $274 forward $73 $-1 #
coedge $-1 $189 $275 $116 $187 reversed $276 $-1 #
edge $-1 $277 -32.108428196834296 $278 32.108428196834296 $186 $279 forward 7 unknown #
coedge $-1 $118 $117 $185 $274 reversed $46 $-1 #
coedge $-1 $269 $186 $117 $190 forward $276 $-1 #
edge $-1 $277 -12.306679298283688 $194 12.306679298283688 $189 $280 forward 7 unknown #
coedge $-1 $281 $282 $118 $192 reversed $181 $-1 #
edge $-1 $283 -12.306679298283688 $195 12.306679298283688 $191 $284 forward 7 unknown #
coedge $-1 $268 $119 $282 $285 forward $114 $-1 #
vertex $-1 $190 $286 #
vertex $-1 $285 $287 #
straight-curve $-1 0 -32.108428196834296 -12.306679298283688 -1 0 0 I I #
face $-1 $288 $209 $28 $-1 $289 reversed single #
loop $-1 $-1 $290 $121 #
plane-surface $-1 -72.230663843343407 -43.179662168497899 0 0 1 0 0 0 1 forward_v I I I I #
coedge $-1 $291 $292 $204 $293 forward $122 $-1 #
coedge $-1 $294 $124 $292 $295 forward $77 $-1 #
coedge $-1 $124 $294 $207 $296 forward $77 $-1 #
edge $-1 $210 69.717835758832564 $297 74.743491927854251 $124 $298 forward 7 unknown #
coedge $-1 $126 $125 $200 $293 reversed $49 $-1 #
coedge $-1 $299 $300 $125 $206 forward $301 $-1 #
edge $-1 $302 -74.743491927854251 $211 -69.717835758832564 $205 $303 forward 7 unknown #
coedge $-1 $304 $127 $202 $296 reversed $209 $-1 #
coedge $-1 $127 $304 $299 $305 reversed $209 $-1 #
loop $-1 $-1 $304 $197 #
vertex $-1 $203 $306 #
vertex $-1 $305 $307 #
straight-curve $-1 -69.717835758832564 -32.108428196834296 0 0 0 -1 I I #
face $-1 $-1 $225 $29 $-1 $308 forward single #
loop $-1 $-1 $309 $129 #
plane-surface $-1 -74.743491927854251 0 0 1 0 0 0 0 -1 forward_v I I I I #
coedge $-1 $310 $311 $312 $313 reversed $130 $-1 #
coedge $-1 $314 $132 $134 $223 forward $81 $-1 #
coedge $-1 $132 $314 $310 $315 forward $81 $-1 #
coedge $-1 $312 $135 $132 $220 forward $225 $-1 #
edge $-1 $227 -5.0967033059846933 $316 7.6575505309234622 $219 $317 forward 7 unknown #
coedge $-1 $318 $319 $133 $222 forward $214 $-1 #
edge $-1 $320 -46.414724239190775 $226 -39.350880512275204 $221 $321 forward 7 unknown #
edge $-1 $227 -9.3596846183561659 $320 -2.1388861263899031e-014 $134 $322 forward 7 unknown #
coedge $-1 $135 $312 $318 $323 forward $225 $-1 #
loop $-1 $-1 $312 $213 #
vertex $-1 $222 $324 #
vertex $-1 $136 $325 #
straight-curve $-1 -93.781376000699368 -3.8162796935153089 12.30667929828369 1 0 0 I I #
coedge $-1 $229 $229 $-1 $326 reversed $139 $-1 #
edge $-1 $327 0 $327 6.2831853071796004 $140 $328 forward 7 unknown #
vertex $-1 $143 $329 #
ellipse-curve $-1 -71.673239171288103 -0.17220716868440533 8.7747574348259043 -0.75470958851134928 0 0.65605901945558964 0.98408852918338452 0 1.132064382767024 1 I I #
coedge $-1 $233 $233 $-1 $330 reversed $146 $-1 #
edge $-1 $331 0 $331 6.2831853071796004 $147 $332 forward 7 unknown #
vertex $-1 $150 $333 #
ellipse-curve $-1 -71.673239171288103 5.2939016185619465 8.7747574348259043 -0.75470958851134928 0 0.65605901945558964 0.98408852918338452 0 1.132064382767024 1 I I #
face $-1 $-1 $334 $32 $-1 $335 reversed single #
loop $-1 $-1 $157 $151 #
plane-surface $-1 0 0 12.306679298283688 0 0 1 1 0 0 forward_v I I I I #
coedge $-1 $336 $337 $338 $339 reversed $152 $-1 #
coedge $-1 $340 $154 $156 $247 forward $95 $-1 #
coedge $-1 $154 $340 $336 $341 forward $95 $-1 #
coedge $-1 $338 $157 $154 $244 forward $238 $-1 #
edge $-1 $250 -9.0135894534316243 $342 5.9799436692088968 $243 $343 forward 7 unknown #
coedge $-1 $344 $345 $155 $246 forward $334 $-1 #
edge $-1 $346 -102.01582624749268 $249 -95.925907607213517 $245 $347 forward 7 unknown #
edge $-1 $250 139.81000746773867 $346 149.4869838557085 $156 $348 forward 7 unknown #
coedge $-1 $157 $338 $344 $349 forward $238 $-1 #
vertex $-1 $158 $350 #
vertex $-1 $158 $351 #
straight-curve $-1 26.322747692552269 10.530412345542988 12.306679298283683 -1 0 0 I I #
coedge $-1 $252 $252 $-1 $352 reversed $161 $-1 #
edge $-1 $353 0 $353 6.2831853071796004 $162 $354 forward 7 unknown #
vertex $-1 $165 $355 #
ellipse-curve $-1 70.983280398960332 -1.4644141525694252 9.2617199781441144 0.62932039886446345 0 0.77714595512881146 0.77714595512881146 0 -0.62932039886446345 1 I I #
coedge $-1 $256 $256 $-1 $356 reversed $168 $-1 #
edge $-1 $357 0 $357 6.2831853071796004 $169 $358 forward 7 unknown #
vertex $-1 $172 $359 #
ellipse-curve $-1 70.983280398960332 3.0336457842227347 9.2617199781441144 0.62932039886446345 0 0.77714595512881146 0.77714595512881146 0 -0.62932039886446345 1 I I #
coedge $-1 $260 $260 $-1 $360 reversed $175 $-1 #
edge $-1 $361 0 $361 6.2831853071796004 $176 $362 forward 7 unknown #
vertex $-1 $179 $363 #
ellipse-curve $-1 70.983280398960332 7.5317057210148946 9.2617199781441144 0.62932039886446345 0 0.77714595512881146 0.77714595512881146 0 -0.62932039886446345 1 I I #
face $-1 $-1 $276 $27 $-1 $364 reversed single #
loop $-1 $-1 $365 $180 #
plane-surface $-1 0 32.108428196834296 0 0 -1 0 0 0 -1 forward_v I I I I #
coedge $-1 $282 $281 $366 $367 forward $181 $-1 #
coedge $-1 $183 $193 $368 $369 forward $114 $-1 #
coedge $-1 $275 $189 $183 $270 reversed $276 $-1 #
edge $-1 $370 -32.108428196834296 $194 32.108428196834296 $269 $371 forward 7 unknown #
coedge $-1 $185 $184 $281 $372 forward $73 $-1 #
coedge $-1 $365 $366 $184 $273 reversed $265 $-1 #
edge $-1 $278 -74.743491927854251 $373 74.743491927854251 $272 $374 forward 7 unknown #
edge $-1 $283 -74.743491927854251 $277 74.743491927854251 $188 $375 forward 7 unknown #
coedge $-1 $186 $269 $365 $376 reversed $276 $-1 #
loop $-1 $-1 $189 $264 #
vertex $-1 $187 $377 #
vertex $-1 $187 $378 #
straight-curve $-1 74.743491927854251 0 12.306679298283688 0 1 0 I I #
straight-curve $-1 74.743491927854251 -32.108428196834296 0 0 0 -1 I I #
coedge $-1 $267 $191 $271 $372 reversed $181 $-1 #
coedge $-1 $191 $267 $193 $285 reversed $181 $-1 #
vertex $-1 $372 $379 #
straight-curve $-1 -74.743491927854251 -32.108428196834296 0 0 0 -1 I I #
edge $-1 $195 -32.108428196834296 $380 32.108428196834296 $282 $381 forward 7 unknown #
point $-1 74.743491927854251 -32.108428196834296 -12.306679298283688 #
point $-1 -74.743491927854251 -32.108428196834296 -12.306679298283688 #
face $-1 $-1 $301 $28 $-1 $382 reversed single #
plane-surface $-1 -69.717835758832564 -37.644045182666098 0 -1 0 0 0 0 1 forward_v I I I I #
coedge $-1 $383 $384 $385 $386 forward $198 $-1 #
coedge $-1 $385 $200 $300 $387 reversed $122 $-1 #
coedge $-1 $200 $385 $201 $295 reversed $122 $-1 #
edge $-1 $297 -12.306679298283688 $302 12.306679298283688 $200 $388 forward 7 unknown #
coedge $-1 $202 $201 $384 $389 forward $77 $-1 #
edge $-1 $297 32.108428196834296 $390 43.179662168497899 $292 $391 forward 7 unknown #
edge $-1 $392 -5.5356169858318012 $210 5.5356169858318012 $207 $393 forward 7 unknown #
vertex $-1 $295 $394 #
straight-curve $-1 0 -32.108428196834296 12.306679298283688 -1 0 0 I I #
coedge $-1 $395 $205 $208 $305 forward $301 $-1 #
coedge $-1 $205 $395 $291 $387 forward $301 $-1 #
loop $-1 $-1 $205 $288 #
vertex $-1 $293 $396 #
straight-curve $-1 0 -32.108428196834296 -12.306679298283688 1 0 0 I I #
coedge $-1 $208 $207 $397 $398 forward $209 $-1 #
edge $-1 $211 -5.5356169858318012 $399 5.5356169858318012 $208 $400 forward 7 unknown #
point $-1 -69.717835758832564 -32.108428196834296 12.306679298283688 #
point $-1 -69.717835758832564 -32.108428196834296 -12.306679298283688 #
plane-surface $-1 0 0 12.306679298283688 0 0 1 1 0 0 forward_v I I I I #
coedge $-1 $319 $318 $311 $401 forward $214 $-1 #
coedge $-1 $311 $216 $218 $315 reversed $130 $-1 #
coedge $-1 $216 $310 $309 $401 reversed $130 $-1 #
coedge $-1 $224 $219 $216 $313 forward $225 $-1 #
edge $-1 $316 -25.178389585977413 $402 -19.037884072845117 $312 $403 forward 7 unknown #
coedge $-1 $218 $217 $319 $404 reversed $81 $-1 #
edge $-1 $405 2.1388861263899031e-014 $316 9.3596846183561659 $310 $406 forward 7 unknown #
vertex $-1 $220 $407 #
straight-curve $-1 -68.602986414721954 1.2804236124693844 12.306679298283688 0 1 0 I I #
coedge $-1 $309 $221 $224 $323 reversed $214 $-1 #
coedge $-1 $221 $309 $314 $404 forward $214 $-1 #
vertex $-1 $222 $408 #
straight-curve $-1 -74.743491927854251 -3.8162796935153089 51.657559810558894 0 0 1 I I #
straight-curve $-1 -74.743491927854265 -3.8162796935153089 5.2428355713681043 -0.65605901945558964 0 -0.75470958851134928 I I #
edge $-1 $402 -8.9379741433928466 $226 3.8162796935153089 $318 $409 forward 7 unknown #
point $-1 -74.743491927854251 -3.8162796935153089 12.306679298283688 #
point $-1 -68.602986414721954 -3.8162796935153089 12.306679298283688 #
edge $-1 $410 1 $410 0 $229 $-1 forward 7 unknown #
vertex $-1 $230 $411 #
ellipse-curve $-1 -69.71904874548008 -0.17220716868440533 7.0760056578490662 -0.75470958851134928 0 0.65605901945558964 0.98408852918338452 0 1.132064382767024 1 I I #
point $-1 -70.689150642104707 -0.17220716868440533 9.9068218175929186 #
edge $-1 $412 1 $412 0 $233 $-1 forward 7 unknown #
vertex $-1 $234 $413 #
ellipse-curve $-1 -69.71904874548008 5.2939016185619465 7.0760056578490662 -0.75470958851134928 0 0.65605901945558964 0.98408852918338452 0 1.132064382767024 1 I I #
point $-1 -70.689150642104707 5.2939016185619465 9.9068218175929186 #
loop $-1 $-1 $245 $237 #
plane-surface $-1 74.743491927854251 0 0 -1 0 0 0 0 1 forward_v I I I I #
coedge $-1 $337 $240 $242 $341 reversed $152 $-1 #
coedge $-1 $240 $336 $414 $415 reversed $152 $-1 #
coedge $-1 $248 $243 $240 $339 forward $238 $-1 #
edge $-1 $342 40.900321177514215 $416 48.420744235301981 $338 $417 forward 7 unknown #
coedge $-1 $242 $241 $345 $418 reversed $95 $-1 #
edge $-1 $419 -149.4869838557085 $342 -139.81000746773867 $336 $420 forward 7 unknown #
vertex $-1 $244 $421 #
straight-curve $-1 67.223068870066484 1.5168228921113638 12.306679298283683 0 -1 0 I I #
coedge $-1 $414 $245 $248 $349 reversed $334 $-1 #
coedge $-1 $245 $414 $340 $418 forward $334 $-1 #
vertex $-1 $246 $422 #
straight-curve $-1 74.743491927854251 10.530412345542988 108.2325869054972 0 0 1 I I #
straight-curve $-1 -41.429712920015547 10.530412345542988 100.2919689631246 0.77714595512881146 0 -0.62932039886446345 I I #
edge $-1 $416 -4.463120777097533 $249 10.530412345542988 $344 $423 forward 7 unknown #
point $-1 74.743491927854251 10.530412345542988 12.306679298283688 #
point $-1 67.223068870066484 10.530412345542988 12.306679298283683 #
edge $-1 $424 1 $424 0 $252 $-1 forward 7 unknown #
vertex $-1 $253 $425 #
ellipse-curve $-1 69.077092783759113 -1.4644141525694252 6.9077743607078252 0.62932039886446345 0 0.77714595512881146 0.77714595512881146 0 -0.62932039886446345 1 I I #
point $-1 71.760426354089134 -1.4644141525694252 8.6323995792796389 #
edge $-1 $426 1 $426 0 $256 $-1 forward 7 unknown #
vertex $-1 $257 $427 #
ellipse-curve $-1 69.077092783759113 3.0336457842227347 6.9077743607078252 0.62932039886446345 0 0.77714595512881146 0.77714595512881146 0 -0.62932039886446345 1 I I #
point $-1 71.760426354089134 3.0336457842227347 8.6323995792796389 #
edge $-1 $428 1 $428 0 $260 $-1 forward 7 unknown #
vertex $-1 $261 $429 #
ellipse-curve $-1 69.077092783759113 7.5317057210148946 6.9077743607078252 0.62932039886446345 0 0.77714595512881146 0.77714595512881146 0 -0.62932039886446345 1 I I #
point $-1 71.760426354089134 7.5317057210148946 8.6323995792796389 #
plane-surface $-1 74.743491927854251 0 0 -1 0 0 0 0 1 forward_v I I I I #
coedge $-1 $368 $272 $275 $376 forward $265 $-1 #
coedge $-1 $272 $368 $267 $367 reversed $265 $-1 #
edge $-1 $373 -12.306679298283688 $380 12.306679298283688 $366 $430 forward 7 unknown #
coedge $-1 $366 $365 $268 $369 reversed $265 $-1 #
edge $-1 $380 -74.743491927854251 $370 74.743491927854251 $368 $431 forward 7 unknown #
vertex $-1 $270 $432 #
straight-curve $-1 74.743491927854251 0 -12.306679298283688 0 -1 0 I I #
edge $-1 $373 -32.108428196834296 $283 32.108428196834296 $281 $433 forward 7 unknown #
vertex $-1 $273 $434 #
straight-curve $-1 0 32.108428196834296 12.306679298283688 -1 0 0 I I #
straight-curve $-1 0 -32.108428196834296 12.306679298283688 1 0 0 I I #
edge $-1 $278 -12.306679298283688 $370 12.306679298283688 $275 $435 forward 7 unknown #
point $-1 74.743491927854251 -32.108428196834296 12.306679298283688 #
point $-1 74.743491927854251 32.108428196834296 12.306679298283688 #
point $-1 -74.743491927854251 -32.108428196834296 12.306679298283688 #
vertex $-1 $369 $436 #
straight-curve $-1 -74.743491927854251 0 -12.306679298283688 0 1 0 I I #
plane-surface $-1 0 0 -12.306679298283688 0 0 1 1 0 0 forward_v I I I I #
coedge $-1 $397 $290 $395 $437 reversed $198 $-1 #
coedge $-1 $290 $397 $294 $389 reversed $198 $-1 #
coedge $-1 $292 $291 $290 $386 reversed $122 $-1 #
edge $-1 $390 -12.306679298283688 $438 12.306679298283688 $385 $439 forward 7 unknown #
edge $-1 $438 -43.179662168497899 $302 -32.108428196834296 $291 $440 forward 7 unknown #
straight-curve $-1 -74.743491927854251 -32.108428196834296 0 0 0 -1 I I #
edge $-1 $390 -2.5128280845108435 $392 2.5128280845108435 $384 $441 forward 7 unknown #
vertex $-1 $295 $442 #
straight-curve $-1 -74.743491927854251 0 12.306679298283688 0 -1 0 I I #
vertex $-1 $296 $443 #
straight-curve $-1 -69.717835758832564 -37.644045182666098 12.306679298283688 0 1 0 I I #
point $-1 -74.743491927854251 -32.108428196834296 12.306679298283688 #
coedge $-1 $300 $299 $383 $437 forward $301 $-1 #
point $-1 -74.743491927854251 -32.108428196834296 -12.306679298283688 #
coedge $-1 $384 $383 $304 $398 reversed $198 $-1 #
edge $-1 $392 -12.306679298283688 $399 12.306679298283688 $304 $444 forward 7 unknown #
vertex $-1 $398 $445 #
straight-curve $-1 -69.717835758832564 -37.644045182666098 -12.306679298283688 0 -1 0 I I #
edge $-1 $402 39.350880512275204 $405 46.414724239190775 $309 $446 forward 7 unknown #
vertex $-1 $323 $447 #
straight-curve $-1 -93.781376000699368 8.9379741433928466 12.30667929828369 -1 0 0 I I #
edge $-1 $405 -7.6575505309234622 $320 5.0967033059846933 $319 $448 forward 7 unknown #
vertex $-1 $404 $449 #
straight-curve $-1 -74.743491927854265 8.9379741433928466 5.2428355713681043 0.65605901945558964 0 0.75470958851134928 I I #
point $-1 -68.602986414721954 8.9379741433928466 12.306679298283688 #
point $-1 -74.743491927854251 -3.8162796935153089 5.2428355713681203 #
straight-curve $-1 -74.743491927854251 0 12.306679298283688 0 -1 0 I I #
vertex $-1 $326 $450 #
point $-1 -68.734960216296699 -0.17220716868440533 8.2080700406160894 #
vertex $-1 $330 $451 #
point $-1 -68.734960216296699 5.2939016185619465 8.2080700406160894 #
coedge $-1 $345 $344 $337 $415 forward $334 $-1 #
edge $-1 $416 95.925907607213517 $419 102.01582624749268 $414 $452 forward 7 unknown #
vertex $-1 $349 $453 #
straight-curve $-1 26.322747692552269 -4.463120777097533 12.306679298283683 1 0 0 I I #
edge $-1 $419 -5.9799436692088968 $346 9.0135894534316243 $345 $454 forward 7 unknown #
vertex $-1 $418 $455 #
straight-curve $-1 -41.429712920015547 -4.463120777097533 100.2919689631246 -0.77714595512881146 0 0.62932039886446345 I I #
point $-1 67.223068870066484 -4.463120777097533 12.306679298283683 #
point $-1 74.743491927854251 10.530412345542988 6.2167606580045174 #
straight-curve $-1 74.743491927854251 0 12.306679298283688 0 1 0 I I #
vertex $-1 $352 $456 #
point $-1 69.854238738887929 -1.4644141525694252 6.2784539618433621 #
vertex $-1 $356 $457 #
point $-1 69.854238738887929 3.0336457842227347 6.2784539618433621 #
vertex $-1 $360 $458 #
point $-1 69.854238738887929 7.5317057210148946 6.2784539618433621 #
straight-curve $-1 -74.743491927854251 32.108428196834296 0 0 0 -1 I I #
straight-curve $-1 0 32.108428196834296 -12.306679298283688 1 0 0 I I #
point $-1 74.743491927854251 32.108428196834296 -12.306679298283688 #
straight-curve $-1 -74.743491927854251 0 12.306679298283688 0 -1 0 I I #
point $-1 -74.743491927854251 32.108428196834296 12.306679298283688 #
straight-curve $-1 74.743491927854251 32.108428196834296 0 0 0 -1 I I #
point $-1 -74.743491927854251 32.108428196834296 -12.306679298283688 #
edge $-1 $399 -2.5128280845108435 $438 2.5128280845108435 $383 $459 forward 7 unknown #
vertex $-1 $387 $460 #
straight-curve $-1 -74.743491927854251 -43.179662168497899 0 0 0 -1 I I #
straight-curve $-1 -74.743491927854251 0 -12.306679298283688 0 1 0 I I #
straight-curve $-1 -72.230663843343407 -43.179662168497899 12.306679298283688 1 0 0 I I #
point $-1 -74.743491927854251 -43.179662168497899 12.306679298283688 #
point $-1 -69.717835758832564 -43.179662168497899 12.306679298283688 #
straight-curve $-1 -69.717835758832564 -43.179662168497899 0 0 0 -1 I I #
point $-1 -69.717835758832564 -43.179662168497899 -12.306679298283688 #
straight-curve $-1 -74.743491927854251 8.9379741433928466 51.657559810558894 0 0 -1 I I #
point $-1 -74.743491927854251 8.9379741433928466 12.306679298283688 #
straight-curve $-1 -74.743491927854251 1.2804236124693844 5.2428355713681114 0 -1 0 I I #
point $-1 -74.743491927854251 8.9379741433928466 5.2428355713681203 #
point $-1 -68.586984362713054 -0.17220716868440533 6.0919171286656812 #
point $-1 -68.586984362713054 5.2939016185619465 6.0919171286656812 #
straight-curve $-1 74.743491927854251 -4.463120777097533 108.2325869054972 0 0 -1 I I #
point $-1 74.743491927854251 -4.463120777097533 12.306679298283688 #
straight-curve $-1 74.743491927854251 1.5168228921113638 6.2167606580045245 0 1 0 I I #
point $-1 74.743491927854251 -4.463120777097533 6.2167606580045174 #
point $-1 68.447772384894662 -1.4644141525694252 6.1306284055790146 #
point $-1 68.447772384894662 3.0336457842227347 6.1306284055790146 #
point $-1 68.447772384894662 7.5317057210148946 6.1306284055790146 #
straight-curve $-1 -72.230663843343407 -43.179662168497899 -12.306679298283688 -1 0 0 I I #
point $-1 -74.743491927854251 -43.179662168497899 -12.306679298283688 #
End-of-ACIS-data 