500 0 14 0           
7 Unknown 11 ACIS 5.0 NT 24 Fri Mar 26 20:31:47 1999 
-1 9.9999999999999995e-007 1e-010 
body $-1 $14 $-1 $15 #
body $-1 $16 $-1 $17 #
body $-1 $18 $-1 $19 #
body $-1 $20 $-1 $21 #
body $-1 $22 $-1 $23 #
body $-1 $24 $-1 $25 #
body $-1 $26 $-1 $27 #
body $-1 $28 $-1 $29 #
body $-1 $30 $-1 $31 #
body $-1 $32 $-1 $33 #
body $-1 $34 $-1 $35 #
body $-1 $36 $-1 $37 #
body $-1 $38 $-1 $39 #
body $-1 $40 $-1 $41 #
lump $-1 $-1 $42 $0 #
transform $-1 1 0 0 0 1 0 0 0 1 63.476058229316081 37.119943387331332 10.030325960441003 1 rotate no_reflect no_shear #
lump $-1 $-1 $43 $1 #
transform $-1 1 0 0 0 1 0 0 0 1 63.476058229316081 37.119943387331332 10.030325960441003 1 rotate no_reflect no_shear #
lump $-1 $-1 $44 $2 #
transform $-1 1 0 0 0 1 0 0 0 1 63.476058229316081 37.119943387331332 10.030325960441003 1 rotate no_reflect no_shear #
lump $-1 $-1 $45 $3 #
transform $-1 1 0 0 0 1 0 0 0 1 63.476058229316081 37.119943387331332 10.030325960441003 1 rotate no_reflect no_shear #
lump $-1 $-1 $46 $4 #
transform $-1 1 0 0 0 1 0 0 0 1 63.476058229316081 37.119943387331332 10.030325960441003 1 rotate no_reflect no_shear #
lump $-1 $-1 $47 $5 #
transform $-1 1 0 0 0 1 0 0 0 1 63.476058229316081 37.119943387331332 10.030325960441003 1 rotate no_reflect no_shear #
lump $-1 $-1 $48 $6 #
transform $-1 1 0 0 0 1 0 0 0 1 63.476058229316081 37.119943387331332 10.030325960441003 1 rotate no_reflect no_shear #
lump $-1 $-1 $49 $7 #
transform $-1 1 0 0 0 1 0 0 0 1 63.476058229316081 37.119943387331332 10.030325960441003 1 rotate no_reflect no_shear #
lump $-1 $-1 $50 $8 #
transform $-1 1 0 0 0 1 0 0 0 1 63.476058229316081 37.119943387331332 10.030325960441003 1 rotate no_reflect no_shear #
lump $-1 $-1 $51 $9 #
transform $-1 1 0 0 0 1 0 0 0 1 63.476058229316081 37.119943387331332 10.030325960441003 1 rotate no_reflect no_shear #
lump $-1 $-1 $52 $10 #
transform $-1 1 0 0 0 1 0 0 0 1 63.476058229316081 37.119943387331332 10.030325960441003 1 rotate no_reflect no_shear #
lump $-1 $-1 $53 $11 #
transform $-1 1 0 0 0 1 0 0 0 1 63.476058229316081 37.119943387331332 10.030325960441003 1 rotate no_reflect no_shear #
lump $-1 $-1 $54 $12 #
transform $-1 1 0 0 0 1 0 0 0 1 63.476058229316081 37.119943387331332 10.030325960441003 1 rotate no_reflect no_shear #
lump $-1 $-1 $55 $13 #
transform $-1 1 0 0 0 1 0 0 0 1 63.476058229316081 37.119943387331332 10.030325960441003 1 rotate no_reflect no_shear #
shell $-1 $-1 $-1 $56 $-1 $14 #
shell $-1 $-1 $-1 $57 $-1 $16 #
shell $-1 $-1 $-1 $58 $-1 $18 #
shell $-1 $-1 $-1 $59 $-1 $20 #
shell $-1 $-1 $-1 $60 $-1 $22 #
shell $-1 $-1 $-1 $61 $-1 $24 #
shell $-1 $-1 $-1 $62 $-1 $26 #
shell $-1 $-1 $-1 $63 $-1 $28 #
shell $-1 $-1 $-1 $64 $-1 $30 #
shell $-1 $-1 $-1 $65 $-1 $32 #
shell $-1 $-1 $-1 $66 $-1 $34 #
shell $-1 $-1 $-1 $67 $-1 $36 #
shell $-1 $-1 $-1 $68 $-1 $38 #
shell $-1 $-1 $-1 $69 $-1 $40 #
face $-1 $70 $71 $42 $-1 $72 forward single #
face $-1 $73 $74 $43 $-1 $75 forward single #
face $-1 $76 $77 $44 $-1 $78 reversed single #
face $-1 $79 $80 $45 $-1 $81 forward single #
face $-1 $82 $83 $46 $-1 $84 forward single #
face $-1 $85 $86 $47 $-1 $87 reversed single #
face $-1 $88 $89 $48 $-1 $90 forward single #
face $-1 $91 $92 $49 $-1 $93 forward single #
face $-1 $94 $95 $50 $-1 $96 reversed single #
face $-1 $97 $98 $51 $-1 $99 forward single #
face $-1 $100 $101 $52 $-1 $102 forward single #
face $-1 $103 $104 $53 $-1 $105 reversed single #
face $-1 $106 $107 $54 $-1 $108 forward single #
face $-1 $109 $110 $55 $-1 $111 forward single #
face $-1 $112 $113 $42 $-1 $114 reversed single #
loop $-1 $-1 $115 $56 #
plane-surface $-1 0 0 10.030325960441003 0 0 1 1 0 0 forward_v I I I I #
face $-1 $116 $117 $43 $-1 $118 reversed single #
loop $-1 $-1 $119 $57 #
plane-surface $-1 0 -37.119943387331332 0 0 1 0 0 0 1 forward_v I I I I #
face $-1 $120 $121 $44 $-1 $122 reversed single #
loop $-1 $-1 $123 $58 #
plane-surface $-1 106.91009019600894 -15.026522008948106 180.52345189438543 0 -1 0 -0.85716730853699208 0 -0.51503806187062418 forward_v I I I I #
face $-1 $124 $125 $45 $-1 $126 forward single #
loop $-1 $127 $128 $59 #
cone-surface $-1 61.264062788579643 -22.93099170834628 7.5155427504419965 -0.85716730853699208 0 -0.51503806187062418 0.51503806187062418 0 -0.85716730853699208 1 I I 0 1 1 forward I I I I #
face $-1 $129 $130 $46 $-1 $131 forward single #
loop $-1 $132 $133 $60 #
cone-surface $-1 61.264062788579643 -18.188309888707376 7.5155427504419965 -0.85716730853699208 0 -0.51503806187062418 0.51503806187062418 0 -0.85716730853699208 1 I I 0 1 1 forward I I I I #
face $-1 $134 $135 $47 $-1 $136 reversed single #
loop $-1 $-1 $137 $61 #
plane-surface $-1 106.91009019600894 1.4509440846819892 180.52345189438543 0 -1 0 -0.85716730853699208 0 -0.51503806187062418 forward_v I I I I #
face $-1 $138 $139 $48 $-1 $140 forward single #
loop $-1 $141 $142 $62 #
cone-surface $-1 61.264062788579643 -6.4535256147161846 7.5155427504419965 -0.85716730853699208 0 -0.51503806187062418 0.51503806187062418 0 -0.85716730853699208 1 I I 0 1 1 forward I I I I #
face $-1 $143 $144 $49 $-1 $145 forward single #
loop $-1 $146 $147 $63 #
cone-surface $-1 61.264062788579643 -1.710843795077281 7.5155427504419965 -0.85716730853699208 0 -0.51503806187062418 0.51503806187062418 0 -0.85716730853699208 1 I I 0 1 1 forward I I I I #
face $-1 $148 $149 $50 $-1 $150 reversed single #
loop $-1 $-1 $151 $64 #
plane-surface $-1 106.91009019600894 17.928410178312088 180.52345189438543 0 -1 0 -0.85716730853699208 0 -0.51503806187062418 forward_v I I I I #
face $-1 $152 $153 $51 $-1 $154 forward single #
loop $-1 $155 $156 $65 #
cone-surface $-1 61.264062788579643 10.023940478913914 7.5155427504419965 -0.85716730853699208 0 -0.51503806187062418 0.51503806187062418 0 -0.85716730853699208 1 I I 0 1 1 forward I I I I #
face $-1 $157 $158 $52 $-1 $159 forward single #
loop $-1 $160 $161 $66 #
cone-surface $-1 61.264062788579643 14.766622298552818 7.5155427504419965 -0.85716730853699208 0 -0.51503806187062418 0.51503806187062418 0 -0.85716730853699208 1 I I 0 1 1 forward I I I I #
face $-1 $162 $163 $53 $-1 $164 reversed single #
loop $-1 $-1 $165 $67 #
plane-surface $-1 106.91009019600894 34.405876271942191 180.52345189438543 0 -1 0 -0.85716730853699208 0 -0.51503806187062418 forward_v I I I I #
face $-1 $166 $167 $54 $-1 $168 forward single #
loop $-1 $169 $170 $68 #
cone-surface $-1 61.264062788579643 26.501406572544013 7.5155427504419965 -0.85716730853699208 0 -0.51503806187062418 0.51503806187062418 0 -0.85716730853699208 1 I I 0 1 1 forward I I I I #
face $-1 $171 $172 $55 $-1 $173 forward single #
loop $-1 $174 $175 $69 #
cone-surface $-1 61.264062788579643 31.244088392182917 7.5155427504419965 -0.85716730853699208 0 -0.51503806187062418 0.51503806187062418 0 -0.85716730853699208 1 I I 0 1 1 forward I I I I #
face $-1 $176 $177 $42 $-1 $178 reversed single #
loop $-1 $-1 $179 $70 #
plane-surface $-1 0 0 -10.030325960441003 0 0 1 1 0 0 forward_v I I I I #
coedge $-1 $180 $181 $182 $183 forward $71 $-1 #
face $-1 $184 $185 $43 $-1 $186 reversed single #
loop $-1 $-1 $187 $73 #
plane-surface $-1 0 0 -10.030325960441003 0 0 1 1 0 0 forward_v I I I I #
coedge $-1 $188 $189 $190 $191 forward $74 $-1 #
face $-1 $192 $193 $44 $-1 $194 reversed single #
loop $-1 $-1 $195 $76 #
plane-surface $-1 -1.9091137819115858 -20.559650798526828 115.13827988315775 0.85716730853699208 0 0.51503806187062418 0.51503806187062418 0 -0.85716730853699208 forward_v I I I I #
coedge $-1 $196 $197 $198 $199 reversed $77 $-1 #
face $-1 $-1 $200 $45 $-1 $201 forward single #
loop $-1 $202 $203 $79 #
cone-surface $-1 59.738455657923097 -22.93099170834628 6.5988655371095621 -0.85716730853699208 0 -0.51503806187062418 0.25751903093531209 0 -0.42858365426849604 1 I I -0.70710678118654746 0.70710678118654746 0.5 forward I I I I #
loop $-1 $-1 $204 $59 #
coedge $-1 $128 $128 $205 $206 reversed $80 $-1 #
face $-1 $-1 $207 $46 $-1 $208 forward single #
loop $-1 $209 $210 $82 #
cone-surface $-1 59.738455657923097 -18.188309888707376 6.5988655371095621 -0.85716730853699208 0 -0.51503806187062418 0.25751903093531209 0 -0.42858365426849604 1 I I -0.70710678118654746 0.70710678118654746 0.5 forward I I I I #
loop $-1 $-1 $211 $60 #
coedge $-1 $133 $133 $212 $213 reversed $83 $-1 #
face $-1 $214 $215 $47 $-1 $216 reversed single #
loop $-1 $-1 $217 $85 #
plane-surface $-1 -1.9091137819115858 -4.0821847048967328 115.13827988315775 0.85716730853699208 0 0.51503806187062418 0.51503806187062418 0 -0.85716730853699208 forward_v I I I I #
coedge $-1 $218 $219 $220 $221 reversed $86 $-1 #
face $-1 $-1 $222 $48 $-1 $223 forward single #
loop $-1 $224 $225 $88 #
cone-surface $-1 59.738455657923097 -6.4535256147161846 6.5988655371095621 -0.85716730853699208 0 -0.51503806187062418 0.25751903093531209 0 -0.42858365426849604 1 I I -0.70710678118654746 0.70710678118654746 0.5 forward I I I I #
loop $-1 $-1 $226 $62 #
coedge $-1 $142 $142 $227 $228 reversed $89 $-1 #
face $-1 $-1 $229 $49 $-1 $230 forward single #
loop $-1 $231 $232 $91 #
cone-surface $-1 59.738455657923097 -1.710843795077281 6.5988655371095621 -0.85716730853699208 0 -0.51503806187062418 0.25751903093531209 0 -0.42858365426849604 1 I I -0.70710678118654746 0.70710678118654746 0.5 forward I I I I #
loop $-1 $-1 $233 $63 #
coedge $-1 $147 $147 $234 $235 reversed $92 $-1 #
face $-1 $236 $237 $50 $-1 $238 reversed single #
loop $-1 $-1 $239 $94 #
plane-surface $-1 -1.9091137819115858 12.395281388733366 115.13827988315775 0.85716730853699208 0 0.51503806187062418 0.51503806187062418 0 -0.85716730853699208 forward_v I I I I #
coedge $-1 $240 $241 $242 $243 reversed $95 $-1 #
face $-1 $-1 $244 $51 $-1 $245 forward single #
loop $-1 $246 $247 $97 #
cone-surface $-1 59.738455657923097 10.023940478913914 6.5988655371095621 -0.85716730853699208 0 -0.51503806187062418 0.25751903093531209 0 -0.42858365426849604 1 I I -0.70710678118654746 0.70710678118654746 0.5 forward I I I I #
loop $-1 $-1 $248 $65 #
coedge $-1 $156 $156 $249 $250 reversed $98 $-1 #
face $-1 $-1 $251 $52 $-1 $252 forward single #
loop $-1 $253 $254 $100 #
cone-surface $-1 59.738455657923097 14.766622298552818 6.5988655371095621 -0.85716730853699208 0 -0.51503806187062418 0.25751903093531209 0 -0.42858365426849604 1 I I -0.70710678118654746 0.70710678118654746 0.5 forward I I I I #
loop $-1 $-1 $255 $66 #
coedge $-1 $161 $161 $256 $257 reversed $101 $-1 #
face $-1 $258 $259 $53 $-1 $260 reversed single #
loop $-1 $-1 $261 $103 #
plane-surface $-1 -1.9091137819115858 28.872747482363465 115.13827988315775 0.85716730853699208 0 0.51503806187062418 0.51503806187062418 0 -0.85716730853699208 forward_v I I I I #
coedge $-1 $262 $263 $264 $265 reversed $104 $-1 #
face $-1 $-1 $266 $54 $-1 $267 forward single #
loop $-1 $268 $269 $106 #
cone-surface $-1 59.738455657923097 26.501406572544013 6.5988655371095621 -0.85716730853699208 0 -0.51503806187062418 0.25751903093531209 0 -0.42858365426849604 1 I I -0.70710678118654746 0.70710678118654746 0.5 forward I I I I #
loop $-1 $-1 $270 $68 #
coedge $-1 $170 $170 $271 $272 reversed $107 $-1 #
face $-1 $-1 $273 $55 $-1 $274 forward single #
loop $-1 $275 $276 $109 #
cone-surface $-1 59.738455657923097 31.244088392182917 6.5988655371095621 -0.85716730853699208 0 -0.51503806187062418 0.25751903093531209 0 -0.42858365426849604 1 I I -0.70710678118654746 0.70710678118654746 0.5 forward I I I I #
loop $-1 $-1 $277 $69 #
coedge $-1 $175 $175 $278 $279 reversed $110 $-1 #
face $-1 $280 $281 $42 $-1 $282 reversed single #
loop $-1 $-1 $283 $112 #
plane-surface $-1 0 -37.119943387331332 0 0 1 0 0 0 1 forward_v I I I I #
coedge $-1 $284 $285 $286 $287 forward $113 $-1 #
coedge $-1 $288 $115 $289 $290 forward $71 $-1 #
coedge $-1 $115 $288 $291 $292 forward $71 $-1 #
coedge $-1 $293 $294 $115 $183 reversed $295 $-1 #
edge $-1 $296 -37.119943387331332 $297 37.119943387331332 $182 $298 forward 7 unknown #
face $-1 $299 $300 $43 $-1 $301 forward single #
loop $-1 $-1 $302 $116 #
plane-surface $-1 63.476058229316081 0 0 -1 0 0 0 0 1 forward_v I I I I #
coedge $-1 $303 $304 $305 $306 forward $117 $-1 #
coedge $-1 $305 $119 $302 $307 reversed $74 $-1 #
coedge $-1 $119 $305 $308 $309 reversed $74 $-1 #
coedge $-1 $310 $311 $119 $191 reversed $300 $-1 #
edge $-1 $312 -63.476058229316081 $313 63.476058229316081 $190 $314 forward 7 unknown #
face $-1 $315 $316 $44 $-1 $317 reversed single #
loop $-1 $-1 $318 $120 #
plane-surface $-1 106.91009019600894 -26.09277958810555 180.52345189438543 0 1 0 0.85716730853699208 0 0.51503806187062418 forward_v I I I I #
coedge $-1 $319 $320 $321 $322 reversed $121 $-1 #
coedge $-1 $197 $123 $323 $324 reversed $77 $-1 #
coedge $-1 $123 $196 $319 $325 reversed $77 $-1 #
coedge $-1 $321 $326 $123 $199 forward $327 $-1 #
edge $-1 $328 -10.021013131311612 $329 -7.7910692026148851 $198 $330 forward 7 unknown #
loop $-1 $-1 $205 $124 #
plane-surface $-1 -1.9091137819115858 -20.559650798526828 115.13827988315775 0.85716730853699208 0 0.51503806187062418 0.51503806187062418 0 -0.85716730853699208 forward_v I I I I #
loop $-1 $-1 $331 $79 #
coedge $-1 $203 $203 $204 $332 reversed $125 $-1 #
coedge $-1 $204 $204 $203 $332 forward $127 $-1 #
coedge $-1 $205 $205 $128 $206 forward $200 $-1 #
edge $-1 $333 0 $333 6.2831853071796004 $205 $334 forward 7 unknown #
loop $-1 $-1 $212 $129 #
plane-surface $-1 -1.9091137819115858 -20.559650798526828 115.13827988315775 0.85716730853699208 0 0.51503806187062418 0.51503806187062418 0 -0.85716730853699208 forward_v I I I I #
loop $-1 $-1 $335 $82 #
coedge $-1 $210 $210 $211 $336 reversed $130 $-1 #
coedge $-1 $211 $211 $210 $336 forward $132 $-1 #
coedge $-1 $212 $212 $133 $213 forward $207 $-1 #
edge $-1 $337 0 $337 6.2831853071796004 $212 $338 forward 7 unknown #
face $-1 $339 $340 $47 $-1 $341 reversed single #
loop $-1 $-1 $342 $134 #
plane-surface $-1 106.91009019600894 -9.6153134944754548 180.52345189438543 0 1 0 0.85716730853699208 0 0.51503806187062418 forward_v I I I I #
coedge $-1 $343 $344 $345 $346 reversed $135 $-1 #
coedge $-1 $219 $137 $347 $348 reversed $86 $-1 #
coedge $-1 $137 $218 $343 $349 reversed $86 $-1 #
coedge $-1 $345 $350 $137 $221 forward $351 $-1 #
edge $-1 $352 -10.021013131311612 $353 -7.7910692026148851 $220 $354 forward 7 unknown #
loop $-1 $-1 $227 $138 #
plane-surface $-1 -1.9091137819115858 -4.0821847048967328 115.13827988315775 0.85716730853699208 0 0.51503806187062418 0.51503806187062418 0 -0.85716730853699208 forward_v I I I I #
loop $-1 $-1 $355 $88 #
coedge $-1 $225 $225 $226 $356 reversed $139 $-1 #
coedge $-1 $226 $226 $225 $356 forward $141 $-1 #
coedge $-1 $227 $227 $142 $228 forward $222 $-1 #
edge $-1 $357 0 $357 6.2831853071796004 $227 $358 forward 7 unknown #
loop $-1 $-1 $234 $143 #
plane-surface $-1 -1.9091137819115858 -4.0821847048967328 115.13827988315775 0.85716730853699208 0 0.51503806187062418 0.51503806187062418 0 -0.85716730853699208 forward_v I I I I #
loop $-1 $-1 $359 $91 #
coedge $-1 $232 $232 $233 $360 reversed $144 $-1 #
coedge $-1 $233 $233 $232 $360 forward $146 $-1 #
coedge $-1 $234 $234 $147 $235 forward $229 $-1 #
edge $-1 $361 0 $361 6.2831853071796004 $234 $362 forward 7 unknown #
face $-1 $363 $364 $50 $-1 $365 reversed single #
loop $-1 $-1 $366 $148 #
plane-surface $-1 106.91009019600894 6.8621525991546442 180.52345189438543 0 1 0 0.85716730853699208 0 0.51503806187062418 forward_v I I I I #
coedge $-1 $367 $368 $369 $370 reversed $149 $-1 #
coedge $-1 $241 $151 $371 $372 reversed $95 $-1 #
coedge $-1 $151 $240 $367 $373 reversed $95 $-1 #
coedge $-1 $369 $374 $151 $243 forward $375 $-1 #
edge $-1 $376 -10.021013131311612 $377 -7.7910692026148851 $242 $378 forward 7 unknown #
loop $-1 $-1 $249 $152 #
plane-surface $-1 -1.9091137819115858 12.395281388733366 115.13827988315775 0.85716730853699208 0 0.51503806187062418 0.51503806187062418 0 -0.85716730853699208 forward_v I I I I #
loop $-1 $-1 $379 $97 #
coedge $-1 $247 $247 $248 $380 reversed $153 $-1 #
coedge $-1 $248 $248 $247 $380 forward $155 $-1 #
coedge $-1 $249 $249 $156 $250 forward $244 $-1 #
edge $-1 $381 0 $381 6.2831853071796004 $249 $382 forward 7 unknown #
loop $-1 $-1 $256 $157 #
plane-surface $-1 -1.9091137819115858 12.395281388733366 115.13827988315775 0.85716730853699208 0 0.51503806187062418 0.51503806187062418 0 -0.85716730853699208 forward_v I I I I #
loop $-1 $-1 $383 $100 #
coedge $-1 $254 $254 $255 $384 reversed $158 $-1 #
coedge $-1 $255 $255 $254 $384 forward $160 $-1 #
coedge $-1 $256 $256 $161 $257 forward $251 $-1 #
edge $-1 $385 0 $385 6.2831853071796004 $256 $386 forward 7 unknown #
face $-1 $387 $388 $53 $-1 $389 reversed single #
loop $-1 $-1 $390 $162 #
plane-surface $-1 106.91009019600894 23.339618692784743 180.52345189438543 0 1 0 0.85716730853699208 0 0.51503806187062418 forward_v I I I I #
coedge $-1 $391 $392 $393 $394 reversed $163 $-1 #
coedge $-1 $263 $165 $395 $396 reversed $104 $-1 #
coedge $-1 $165 $262 $391 $397 reversed $104 $-1 #
coedge $-1 $393 $398 $165 $265 forward $399 $-1 #
edge $-1 $400 -10.021013131311612 $401 -7.7910692026148851 $264 $402 forward 7 unknown #
loop $-1 $-1 $271 $166 #
plane-surface $-1 -1.9091137819115858 28.872747482363465 115.13827988315775 0.85716730853699208 0 0.51503806187062418 0.51503806187062418 0 -0.85716730853699208 forward_v I I I I #
loop $-1 $-1 $403 $106 #
coedge $-1 $269 $269 $270 $404 reversed $167 $-1 #
coedge $-1 $270 $270 $269 $404 forward $169 $-1 #
coedge $-1 $271 $271 $170 $272 forward $266 $-1 #
edge $-1 $405 0 $405 6.2831853071796004 $271 $406 forward 7 unknown #
loop $-1 $-1 $278 $171 #
plane-surface $-1 -1.9091137819115858 28.872747482363465 115.13827988315775 0.85716730853699208 0 0.51503806187062418 0.51503806187062418 0 -0.85716730853699208 forward_v I I I I #
loop $-1 $-1 $407 $109 #
coedge $-1 $276 $276 $277 $408 reversed $172 $-1 #
coedge $-1 $277 $277 $276 $408 forward $174 $-1 #
coedge $-1 $278 $278 $175 $279 forward $273 $-1 #
edge $-1 $409 0 $409 6.2831853071796004 $278 $410 forward 7 unknown #
face $-1 $411 $412 $42 $-1 $413 reversed single #
loop $-1 $-1 $414 $176 #
plane-surface $-1 -63.476058229316081 0 0 1 0 0 0 0 -1 forward_v I I I I #
coedge $-1 $291 $415 $293 $416 reversed $177 $-1 #
coedge $-1 $417 $179 $415 $418 forward $113 $-1 #
coedge $-1 $179 $417 $419 $420 forward $113 $-1 #
coedge $-1 $294 $293 $179 $287 reversed $295 $-1 #
edge $-1 $421 -37.119943387331332 $422 37.119943387331332 $286 $423 forward 7 unknown #
coedge $-1 $181 $180 $424 $425 forward $71 $-1 #
coedge $-1 $426 $427 $180 $290 reversed $412 $-1 #
edge $-1 $297 -63.476058229316081 $428 63.476058229316081 $289 $429 forward 7 unknown #
coedge $-1 $430 $283 $181 $292 reversed $177 $-1 #
edge $-1 $431 -63.476058229316081 $296 63.476058229316081 $291 $432 forward 7 unknown #
coedge $-1 $286 $182 $283 $416 forward $295 $-1 #
coedge $-1 $182 $286 $426 $433 reversed $295 $-1 #
loop $-1 $-1 $293 $411 #
vertex $-1 $183 $434 #
vertex $-1 $183 $435 #
straight-curve $-1 63.476058229316081 0 10.030325960441003 0 1 0 I I #
face $-1 $436 $437 $43 $-1 $438 reversed single #
loop $-1 $-1 $311 $184 #
plane-surface $-1 0 -41.284954587402474 -6.7325964895760801 0 0 1 1 0 0 forward_v I I I I #
coedge $-1 $439 $440 $188 $307 forward $185 $-1 #
coedge $-1 $441 $187 $440 $442 forward $117 $-1 #
coedge $-1 $187 $441 $443 $444 forward $117 $-1 #
coedge $-1 $189 $188 $187 $306 reversed $74 $-1 #
edge $-1 $445 -63.476058229316081 $446 63.476058229316081 $187 $447 forward 7 unknown #
edge $-1 $446 -10.030325960441003 $313 -6.7325964895760801 $302 $448 forward 7 unknown #
coedge $-1 $443 $449 $189 $309 forward $450 $-1 #
edge $-1 $312 6.7325964895760801 $445 10.030325960441003 $308 $451 forward 7 unknown #
coedge $-1 $452 $190 $449 $453 forward $300 $-1 #
coedge $-1 $190 $452 $439 $454 forward $300 $-1 #
vertex $-1 $309 $455 #
vertex $-1 $454 $456 #
straight-curve $-1 0 -37.119943387331332 -6.7325964895760801 1 0 0 I I #
face $-1 $-1 $327 $44 $-1 $457 forward single #
loop $-1 $-1 $458 $192 #
plane-surface $-1 63.476058229316081 0 0 -1 0 0 0 0 1 forward_v I I I I #
coedge $-1 $459 $460 $461 $462 reversed $193 $-1 #
coedge $-1 $463 $195 $197 $325 forward $121 $-1 #
coedge $-1 $195 $463 $459 $464 forward $121 $-1 #
coedge $-1 $461 $198 $195 $322 forward $327 $-1 #
edge $-1 $329 4.7466966096846921 $465 15.812954188842136 $321 $466 forward 7 unknown #
coedge $-1 $467 $468 $196 $324 forward $316 $-1 #
edge $-1 $469 -83.942650041955446 $328 -80.231399986751711 $323 $470 forward 7 unknown #
edge $-1 $329 122.62244823838928 $469 126.95211645863215 $197 $471 forward 7 unknown #
coedge $-1 $198 $461 $467 $472 forward $327 $-1 #
loop $-1 $-1 $461 $315 #
vertex $-1 $324 $473 #
vertex $-1 $199 $474 #
straight-curve $-1 53.455045098004469 -15.026522008948106 10.030325960441004 -1 0 0 I I #
coedge $-1 $331 $331 $-1 $475 reversed $202 $-1 #
edge $-1 $476 0 $476 6.2831853071796004 $203 $477 forward 7 unknown #
vertex $-1 $206 $478 #
ellipse-curve $-1 62.36108626496771 -22.93099170834628 8.1747009328391282 0.85716730853699208 0 0.51503806187062418 0.51503806187062418 0 -0.85716730853699208 1 I I #
coedge $-1 $335 $335 $-1 $479 reversed $209 $-1 #
edge $-1 $480 0 $480 6.2831853071796004 $210 $481 forward 7 unknown #
vertex $-1 $213 $482 #
ellipse-curve $-1 62.36108626496771 -18.188309888707376 8.1747009328391282 0.85716730853699208 0 0.51503806187062418 0.51503806187062418 0 -0.85716730853699208 1 I I #
face $-1 $-1 $351 $47 $-1 $483 forward single #
loop $-1 $-1 $484 $214 #
plane-surface $-1 63.476058229316081 0 0 -1 0 0 0 0 1 forward_v I I I I #
coedge $-1 $485 $486 $487 $488 reversed $215 $-1 #
coedge $-1 $489 $217 $219 $349 forward $135 $-1 #
coedge $-1 $217 $489 $485 $490 forward $135 $-1 #
coedge $-1 $487 $220 $217 $346 forward $351 $-1 #
edge $-1 $353 -3.4920364371303556 $491 7.5742211420270884 $345 $492 forward 7 unknown #
coedge $-1 $493 $494 $218 $348 forward $340 $-1 #
edge $-1 $495 -83.942650041955446 $352 -80.231399986751711 $347 $496 forward 7 unknown #
edge $-1 $353 122.62244823838928 $495 126.95211645863215 $219 $497 forward 7 unknown #
coedge $-1 $220 $487 $493 $498 forward $351 $-1 #
loop $-1 $-1 $487 $339 #
vertex $-1 $348 $499 #
vertex $-1 $221 $500 #
straight-curve $-1 53.455045098004469 1.4509440846819892 10.030325960441004 -1 0 0 I I #
coedge $-1 $355 $355 $-1 $501 reversed $224 $-1 #
edge $-1 $502 0 $502 6.2831853071796004 $225 $503 forward 7 unknown #
vertex $-1 $228 $504 #
ellipse-curve $-1 62.36108626496771 -6.4535256147161846 8.1747009328391282 0.85716730853699208 0 0.51503806187062418 0.51503806187062418 0 -0.85716730853699208 1 I I #
coedge $-1 $359 $359 $-1 $505 reversed $231 $-1 #
edge $-1 $506 0 $506 6.2831853071796004 $232 $507 forward 7 unknown #
vertex $-1 $235 $508 #
ellipse-curve $-1 62.36108626496771 -1.710843795077281 8.1747009328391282 0.85716730853699208 0 0.51503806187062418 0.51503806187062418 0 -0.85716730853699208 1 I I #
face $-1 $-1 $375 $50 $-1 $509 forward single #
loop $-1 $-1 $510 $236 #
plane-surface $-1 63.476058229316081 0 0 -1 0 0 0 0 1 forward_v I I I I #
coedge $-1 $511 $512 $513 $514 reversed $237 $-1 #
coedge $-1 $515 $239 $241 $373 forward $149 $-1 #
coedge $-1 $239 $515 $511 $516 forward $149 $-1 #
coedge $-1 $513 $242 $239 $370 forward $375 $-1 #
edge $-1 $377 -11.730769483945405 $517 -0.66451190478796107 $369 $518 forward 7 unknown #
coedge $-1 $519 $520 $240 $372 forward $364 $-1 #
edge $-1 $521 -83.942650041955446 $376 -80.231399986751711 $371 $522 forward 7 unknown #
edge $-1 $377 122.62244823838928 $521 126.95211645863215 $241 $523 forward 7 unknown #
coedge $-1 $242 $513 $519 $524 forward $375 $-1 #
loop $-1 $-1 $513 $363 #
vertex $-1 $372 $525 #
vertex $-1 $243 $526 #
straight-curve $-1 53.455045098004469 17.928410178312088 10.030325960441004 -1 0 0 I I #
coedge $-1 $379 $379 $-1 $527 reversed $246 $-1 #
edge $-1 $528 0 $528 6.2831853071796004 $247 $529 forward 7 unknown #
vertex $-1 $250 $530 #
ellipse-curve $-1 62.36108626496771 10.023940478913914 8.1747009328391282 0.85716730853699208 0 0.51503806187062418 0.51503806187062418 0 -0.85716730853699208 1 I I #
coedge $-1 $383 $383 $-1 $531 reversed $253 $-1 #
edge $-1 $532 0 $532 6.2831853071796004 $254 $533 forward 7 unknown #
vertex $-1 $257 $534 #
ellipse-curve $-1 62.36108626496771 14.766622298552818 8.1747009328391282 0.85716730853699208 0 0.51503806187062418 0.51503806187062418 0 -0.85716730853699208 1 I I #
face $-1 $-1 $399 $53 $-1 $535 forward single #
loop $-1 $-1 $536 $258 #
plane-surface $-1 63.476058229316081 0 0 -1 0 0 0 0 1 forward_v I I I I #
coedge $-1 $537 $538 $539 $540 reversed $259 $-1 #
coedge $-1 $541 $261 $263 $397 forward $163 $-1 #
coedge $-1 $261 $541 $537 $542 forward $163 $-1 #
coedge $-1 $539 $264 $261 $394 forward $399 $-1 #
edge $-1 $401 -19.969502530760458 $543 -8.9032449516030105 $393 $544 forward 7 unknown #
coedge $-1 $545 $546 $262 $396 forward $388 $-1 #
edge $-1 $547 -83.942650041955446 $400 -80.231399986751711 $395 $548 forward 7 unknown #
edge $-1 $401 122.62244823838928 $547 126.95211645863215 $263 $549 forward 7 unknown #
coedge $-1 $264 $539 $545 $550 forward $399 $-1 #
loop $-1 $-1 $539 $387 #
vertex $-1 $396 $551 #
vertex $-1 $265 $552 #
straight-curve $-1 53.455045098004469 34.405876271942191 10.030325960441004 -1 0 0 I I #
coedge $-1 $403 $403 $-1 $553 reversed $268 $-1 #
edge $-1 $554 0 $554 6.2831853071796004 $269 $555 forward 7 unknown #
vertex $-1 $272 $556 #
ellipse-curve $-1 62.36108626496771 26.501406572544013 8.1747009328391282 0.85716730853699208 0 0.51503806187062418 0.51503806187062418 0 -0.85716730853699208 1 I I #
coedge $-1 $407 $407 $-1 $557 reversed $275 $-1 #
edge $-1 $558 0 $558 6.2831853071796004 $276 $559 forward 7 unknown #
vertex $-1 $279 $560 #
ellipse-curve $-1 62.36108626496771 31.244088392182917 8.1747009328391282 0.85716730853699208 0 0.51503806187062418 0.51503806187062418 0 -0.85716730853699208 1 I I #
face $-1 $-1 $295 $42 $-1 $561 reversed single #
loop $-1 $-1 $426 $280 #
plane-surface $-1 0 37.119943387331332 0 0 -1 0 0 0 -1 forward_v I I I I #
coedge $-1 $562 $424 $427 $563 forward $281 $-1 #
coedge $-1 $283 $430 $284 $418 reversed $177 $-1 #
edge $-1 $296 -10.030325960441003 $422 10.030325960441003 $293 $564 forward 7 unknown #
coedge $-1 $285 $284 $562 $565 forward $113 $-1 #
edge $-1 $422 -63.476058229316081 $566 63.476058229316081 $415 $567 forward 7 unknown #
coedge $-1 $427 $426 $285 $420 reversed $412 $-1 #
edge $-1 $568 -63.476058229316081 $421 63.476058229316081 $419 $569 forward 7 unknown #
vertex $-1 $287 $570 #
vertex $-1 $416 $571 #
straight-curve $-1 63.476058229316081 0 -10.030325960441003 0 -1 0 I I #
coedge $-1 $414 $572 $288 $425 reversed $281 $-1 #
edge $-1 $428 -37.119943387331332 $431 37.119943387331332 $424 $573 forward 7 unknown #
coedge $-1 $419 $289 $294 $433 forward $412 $-1 #
coedge $-1 $289 $419 $414 $563 reversed $412 $-1 #
vertex $-1 $290 $574 #
straight-curve $-1 0 37.119943387331332 10.030325960441003 -1 0 0 I I #
coedge $-1 $415 $291 $572 $575 forward $177 $-1 #
vertex $-1 $425 $576 #
straight-curve $-1 0 -37.119943387331332 10.030325960441003 1 0 0 I I #
edge $-1 $297 -10.030325960441003 $421 10.030325960441003 $294 $577 forward 7 unknown #
point $-1 63.476058229316081 -37.119943387331332 10.030325960441003 #
point $-1 63.476058229316081 37.119943387331332 10.030325960441003 #
face $-1 $-1 $450 $43 $-1 $578 reversed single #
loop $-1 $-1 $579 $299 #
plane-surface $-1 0 -45.449965787473616 -8.3814612250085414 0 1 0 0 0 1 forward_v I I I I #
coedge $-1 $580 $302 $311 $454 reversed $185 $-1 #
coedge $-1 $302 $580 $303 $442 reversed $185 $-1 #
coedge $-1 $304 $303 $581 $582 forward $117 $-1 #
edge $-1 $446 37.119943387331332 $583 45.449965787473616 $440 $584 forward 7 unknown #
coedge $-1 $585 $308 $304 $444 reversed $450 $-1 #
edge $-1 $586 -45.449965787473616 $445 -37.119943387331332 $443 $587 forward 7 unknown #
vertex $-1 $309 $588 #
vertex $-1 $442 $589 #
straight-curve $-1 0 -37.119943387331332 -10.030325960441003 1 0 0 I I #
straight-curve $-1 63.476058229316081 -37.119943387331332 0 0 0 1 I I #
coedge $-1 $308 $585 $310 $453 reversed $450 $-1 #
loop $-1 $-1 $308 $436 #
straight-curve $-1 -63.476058229316081 -37.119943387331332 0 0 0 -1 I I #
coedge $-1 $311 $310 $590 $591 forward $300 $-1 #
edge $-1 $312 -4.1650112000711417 $592 4.1650112000711417 $449 $593 forward 7 unknown #
edge $-1 $594 -4.1650112000711417 $313 4.1650112000711417 $439 $595 forward 7 unknown #
point $-1 -63.476058229316081 -37.119943387331332 -6.7325964895760801 #
point $-1 63.476058229316081 -37.119943387331332 -6.7325964895760801 #
plane-surface $-1 0 0 10.030325960441003 0 0 1 1 0 0 forward_v I I I I #
coedge $-1 $468 $467 $460 $596 forward $316 $-1 #
coedge $-1 $460 $318 $320 $464 reversed $193 $-1 #
coedge $-1 $318 $459 $458 $596 reversed $193 $-1 #
coedge $-1 $326 $321 $318 $462 forward $327 $-1 #
edge $-1 $465 7.7910692026148851 $597 10.021013131311612 $461 $598 forward 7 unknown #
coedge $-1 $320 $319 $468 $599 reversed $121 $-1 #
edge $-1 $600 -126.95211645863215 $465 -122.62244823838928 $459 $601 forward 7 unknown #
vertex $-1 $322 $602 #
straight-curve $-1 61.246114300619354 -10.279825399263414 10.030325960441004 0 -1 0 I I #
coedge $-1 $458 $323 $326 $472 reversed $316 $-1 #
coedge $-1 $323 $458 $463 $599 forward $316 $-1 #
vertex $-1 $324 $603 #
straight-curve $-1 63.476058229316081 -15.026522008948106 90.261725947192716 0 0 1 I I #
straight-curve $-1 -1.9091137819115858 -15.026522008948106 115.13827988315775 0.51503806187062418 0 -0.85716730853699208 I I #
edge $-1 $597 -26.09277958810555 $328 -15.026522008948106 $467 $604 forward 7 unknown #
point $-1 63.476058229316081 -15.026522008948106 10.030325960441003 #
point $-1 61.246114300619354 -15.026522008948106 10.030325960441004 #
edge $-1 $605 1 $605 0 $331 $-1 forward 7 unknown #
vertex $-1 $332 $606 #
ellipse-curve $-1 60.167039312191591 -22.93099170834628 6.8563845680448745 0.85716730853699208 0 0.51503806187062418 0.51503806187062418 0 -0.85716730853699208 1 I I #
point $-1 62.876124326838323 -22.93099170834628 7.3175336243021265 #
edge $-1 $607 1 $607 0 $335 $-1 forward 7 unknown #
vertex $-1 $336 $608 #
ellipse-curve $-1 60.167039312191591 -18.188309888707376 6.8563845680448745 0.85716730853699208 0 0.51503806187062418 0.51503806187062418 0 -0.85716730853699208 1 I I #
point $-1 62.876124326838323 -18.188309888707376 7.3175336243021265 #
plane-surface $-1 0 0 10.030325960441003 0 0 1 1 0 0 forward_v I I I I #
coedge $-1 $494 $493 $486 $609 forward $340 $-1 #
coedge $-1 $486 $342 $344 $490 reversed $215 $-1 #
coedge $-1 $342 $485 $484 $609 reversed $215 $-1 #
coedge $-1 $350 $345 $342 $488 forward $351 $-1 #
edge $-1 $491 7.7910692026148851 $610 10.021013131311612 $487 $611 forward 7 unknown #
coedge $-1 $344 $343 $494 $612 reversed $135 $-1 #
edge $-1 $613 -126.95211645863215 $491 -122.62244823838928 $485 $614 forward 7 unknown #
vertex $-1 $346 $615 #
straight-curve $-1 61.246114300619354 -2.0410923524483664 10.030325960441004 0 -1 0 I I #
coedge $-1 $484 $347 $350 $498 reversed $340 $-1 #
coedge $-1 $347 $484 $489 $612 forward $340 $-1 #
vertex $-1 $348 $616 #
straight-curve $-1 63.476058229316081 1.4509440846819892 90.261725947192716 0 0 1 I I #
straight-curve $-1 -1.9091137819115858 1.4509440846819892 115.13827988315775 0.51503806187062418 0 -0.85716730853699208 I I #
edge $-1 $610 -9.6153134944754548 $352 1.4509440846819892 $493 $617 forward 7 unknown #
point $-1 63.476058229316081 1.4509440846819892 10.030325960441003 #
point $-1 61.246114300619354 1.4509440846819892 10.030325960441004 #
edge $-1 $618 1 $618 0 $355 $-1 forward 7 unknown #
vertex $-1 $356 $619 #
ellipse-curve $-1 60.167039312191591 -6.4535256147161846 6.8563845680448745 0.85716730853699208 0 0.51503806187062418 0.51503806187062418 0 -0.85716730853699208 1 I I #
point $-1 62.876124326838323 -6.4535256147161846 7.3175336243021265 #
edge $-1 $620 1 $620 0 $359 $-1 forward 7 unknown #
vertex $-1 $360 $621 #
ellipse-curve $-1 60.167039312191591 -1.710843795077281 6.8563845680448745 0.85716730853699208 0 0.51503806187062418 0.51503806187062418 0 -0.85716730853699208 1 I I #
point $-1 62.876124326838323 -1.710843795077281 7.3175336243021265 #
plane-surface $-1 0 0 10.030325960441003 0 0 1 1 0 0 forward_v I I I I #
coedge $-1 $520 $519 $512 $622 forward $364 $-1 #
coedge $-1 $512 $366 $368 $516 reversed $237 $-1 #
coedge $-1 $366 $511 $510 $622 reversed $237 $-1 #
coedge $-1 $374 $369 $366 $514 forward $375 $-1 #
edge $-1 $517 7.7910692026148851 $623 10.021013131311612 $513 $624 forward 7 unknown #
coedge $-1 $368 $367 $520 $625 reversed $149 $-1 #
edge $-1 $626 -126.95211645863215 $517 -122.62244823838928 $511 $627 forward 7 unknown #
vertex $-1 $370 $628 #
straight-curve $-1 61.246114300619354 6.1976406943666831 10.030325960441004 0 -1 0 I I #
coedge $-1 $510 $371 $374 $524 reversed $364 $-1 #
coedge $-1 $371 $510 $515 $625 forward $364 $-1 #
vertex $-1 $372 $629 #
straight-curve $-1 63.476058229316081 17.928410178312088 90.261725947192716 0 0 1 I I #
straight-curve $-1 -1.9091137819115858 17.928410178312088 115.13827988315775 0.51503806187062418 0 -0.85716730853699208 I I #
edge $-1 $623 6.8621525991546442 $376 17.928410178312088 $519 $630 forward 7 unknown #
point $-1 63.476058229316081 17.928410178312088 10.030325960441003 #
point $-1 61.246114300619354 17.928410178312088 10.030325960441004 #
edge $-1 $631 1 $631 0 $379 $-1 forward 7 unknown #
vertex $-1 $380 $632 #
ellipse-curve $-1 60.167039312191591 10.023940478913914 6.8563845680448745 0.85716730853699208 0 0.51503806187062418 0.51503806187062418 0 -0.85716730853699208 1 I I #
point $-1 62.876124326838323 10.023940478913914 7.3175336243021265 #
edge $-1 $633 1 $633 0 $383 $-1 forward 7 unknown #
vertex $-1 $384 $634 #
ellipse-curve $-1 60.167039312191591 14.766622298552818 6.8563845680448745 0.85716730853699208 0 0.51503806187062418 0.51503806187062418 0 -0.85716730853699208 1 I I #
point $-1 62.876124326838323 14.766622298552818 7.3175336243021265 #
plane-surface $-1 0 0 10.030325960441003 0 0 1 1 0 0 forward_v I I I I #
coedge $-1 $546 $545 $538 $635 forward $388 $-1 #
coedge $-1 $538 $390 $392 $542 reversed $259 $-1 #
coedge $-1 $390 $537 $536 $635 reversed $259 $-1 #
coedge $-1 $398 $393 $390 $540 forward $399 $-1 #
edge $-1 $543 7.7910692026148851 $636 10.021013131311612 $539 $637 forward 7 unknown #
coedge $-1 $392 $391 $546 $638 reversed $163 $-1 #
edge $-1 $639 -126.95211645863215 $543 -122.62244823838928 $537 $640 forward 7 unknown #
vertex $-1 $394 $641 #
straight-curve $-1 61.246114300619354 14.436373741181733 10.030325960441004 0 -1 0 I I #
coedge $-1 $536 $395 $398 $550 reversed $388 $-1 #
coedge $-1 $395 $536 $541 $638 forward $388 $-1 #
vertex $-1 $396 $642 #
straight-curve $-1 63.476058229316081 34.405876271942191 90.261725947192716 0 0 1 I I #
straight-curve $-1 -1.9091137819115858 34.405876271942191 115.13827988315775 0.51503806187062418 0 -0.85716730853699208 I I #
edge $-1 $636 23.339618692784743 $400 34.405876271942191 $545 $643 forward 7 unknown #
point $-1 63.476058229316081 34.405876271942191 10.030325960441003 #
point $-1 61.246114300619354 34.405876271942191 10.030325960441004 #
edge $-1 $644 1 $644 0 $403 $-1 forward 7 unknown #
vertex $-1 $404 $645 #
ellipse-curve $-1 60.167039312191591 26.501406572544013 6.8563845680448745 0.85716730853699208 0 0.51503806187062418 0.51503806187062418 0 -0.85716730853699208 1 I I #
point $-1 62.876124326838323 26.501406572544013 7.3175336243021265 #
edge $-1 $646 1 $646 0 $407 $-1 forward 7 unknown #
vertex $-1 $408 $647 #
ellipse-curve $-1 60.167039312191591 31.244088392182917 6.8563845680448745 0.85716730853699208 0 0.51503806187062418 0.51503806187062418 0 -0.85716730853699208 1 I I #
point $-1 62.876124326838323 31.244088392182917 7.3175336243021265 #
plane-surface $-1 63.476058229316081 0 0 -1 0 0 0 0 1 forward_v I I I I #
coedge $-1 $572 $414 $417 $565 reversed $281 $-1 #
edge $-1 $428 -10.030325960441003 $568 10.030325960441003 $427 $648 forward 7 unknown #
straight-curve $-1 63.476058229316081 -37.119943387331332 0 0 0 -1 I I #
edge $-1 $566 -37.119943387331332 $568 37.119943387331332 $562 $649 forward 7 unknown #
vertex $-1 $565 $650 #
straight-curve $-1 0 -37.119943387331332 -10.030325960441003 -1 0 0 I I #
vertex $-1 $420 $651 #
straight-curve $-1 0 37.119943387331332 -10.030325960441003 1 0 0 I I #
point $-1 63.476058229316081 37.119943387331332 -10.030325960441003 #
point $-1 63.476058229316081 -37.119943387331332 -10.030325960441003 #
coedge $-1 $424 $562 $430 $575 reversed $281 $-1 #
straight-curve $-1 -63.476058229316081 0 10.030325960441003 0 -1 0 I I #
point $-1 -63.476058229316081 37.119943387331332 10.030325960441003 #
edge $-1 $431 -10.030325960441003 $566 10.030325960441003 $572 $652 forward 7 unknown #
point $-1 -63.476058229316081 -37.119943387331332 10.030325960441003 #
straight-curve $-1 63.476058229316081 37.119943387331332 0 0 0 -1 I I #
plane-surface $-1 -63.476058229316081 0 0 1 0 0 0 0 -1 forward_v I I I I #
coedge $-1 $581 $590 $585 $653 forward $437 $-1 #
coedge $-1 $440 $439 $654 $655 forward $185 $-1 #
coedge $-1 $654 $579 $441 $582 reversed $437 $-1 #
edge $-1 $583 -63.476058229316081 $586 63.476058229316081 $581 $656 forward 7 unknown #
vertex $-1 $655 $657 #
straight-curve $-1 63.476058229316081 0 -10.030325960441003 0 -1 0 I I #
coedge $-1 $449 $443 $579 $653 reversed $450 $-1 #
vertex $-1 $444 $658 #
straight-curve $-1 -63.476058229316081 0 -10.030325960441003 0 1 0 I I #
point $-1 -63.476058229316081 -37.119943387331332 -10.030325960441003 #
point $-1 63.476058229316081 -37.119943387331332 -10.030325960441003 #
coedge $-1 $579 $654 $452 $591 reversed $437 $-1 #
edge $-1 $592 -63.476058229316081 $594 63.476058229316081 $590 $659 forward 7 unknown #
vertex $-1 $453 $660 #
straight-curve $-1 -63.476058229316081 -41.284954587402474 -6.7325964895760801 0 -1 0 I I #
vertex $-1 $454 $661 #
straight-curve $-1 63.476058229316081 -41.284954587402474 -6.7325964895760801 0 1 0 I I #
edge $-1 $597 80.231399986751711 $600 83.942650041955446 $458 $662 forward 7 unknown #
vertex $-1 $472 $663 #
straight-curve $-1 53.455045098004469 -26.09277958810555 10.030325960441004 1 0 0 I I #
edge $-1 $600 -15.812954188842136 $469 -4.7466966096846921 $468 $664 forward 7 unknown #
vertex $-1 $599 $665 #
straight-curve $-1 -1.9091137819115858 -26.09277958810555 115.13827988315775 -0.51503806187062418 0 0.85716730853699208 I I #
point $-1 61.246114300619354 -26.09277958810555 10.030325960441004 #
point $-1 63.476058229316081 -15.026522008948106 6.3190759052372698 #
straight-curve $-1 63.476058229316081 0 10.030325960441003 0 1 0 I I #
vertex $-1 $475 $666 #
point $-1 60.682077374062217 -22.93099170834628 5.9992172595078816 #
vertex $-1 $479 $667 #
point $-1 60.682077374062217 -18.188309888707376 5.9992172595078816 #
edge $-1 $610 80.231399986751711 $613 83.942650041955446 $484 $668 forward 7 unknown #
vertex $-1 $498 $669 #
straight-curve $-1 53.455045098004469 -9.6153134944754548 10.030325960441004 1 0 0 I I #
edge $-1 $613 -7.5742211420270884 $495 3.4920364371303556 $494 $670 forward 7 unknown #
vertex $-1 $612 $671 #
straight-curve $-1 -1.9091137819115858 -9.6153134944754548 115.13827988315775 -0.51503806187062418 0 0.85716730853699208 I I #
point $-1 61.246114300619354 -9.6153134944754548 10.030325960441004 #
point $-1 63.476058229316081 1.4509440846819892 6.3190759052372698 #
straight-curve $-1 63.476058229316081 0 10.030325960441003 0 1 0 I I #
vertex $-1 $501 $672 #
point $-1 60.682077374062217 -6.4535256147161846 5.9992172595078816 #
vertex $-1 $505 $673 #
point $-1 60.682077374062217 -1.710843795077281 5.9992172595078816 #
edge $-1 $623 80.231399986751711 $626 83.942650041955446 $510 $674 forward 7 unknown #
vertex $-1 $524 $675 #
straight-curve $-1 53.455045098004469 6.8621525991546442 10.030325960441004 1 0 0 I I #
edge $-1 $626 0.66451190478796107 $521 11.730769483945405 $520 $676 forward 7 unknown #
vertex $-1 $625 $677 #
straight-curve $-1 -1.9091137819115858 6.8621525991546442 115.13827988315775 -0.51503806187062418 0 0.85716730853699208 I I #
point $-1 61.246114300619354 6.8621525991546442 10.030325960441004 #
point $-1 63.476058229316081 17.928410178312088 6.3190759052372698 #
straight-curve $-1 63.476058229316081 0 10.030325960441003 0 1 0 I I #
vertex $-1 $527 $678 #
point $-1 60.682077374062217 10.023940478913914 5.9992172595078816 #
vertex $-1 $531 $679 #
point $-1 60.682077374062217 14.766622298552818 5.9992172595078816 #
edge $-1 $636 80.231399986751711 $639 83.942650041955446 $536 $680 forward 7 unknown #
vertex $-1 $550 $681 #
straight-curve $-1 53.455045098004469 23.339618692784743 10.030325960441004 1 0 0 I I #
edge $-1 $639 8.9032449516030105 $547 19.969502530760458 $546 $682 forward 7 unknown #
vertex $-1 $638 $683 #
straight-curve $-1 -1.9091137819115858 23.339618692784743 115.13827988315775 -0.51503806187062418 0 0.85716730853699208 I I #
point $-1 61.246114300619354 23.339618692784743 10.030325960441004 #
point $-1 63.476058229316081 34.405876271942191 6.3190759052372698 #
straight-curve $-1 63.476058229316081 0 10.030325960441003 0 1 0 I I #
vertex $-1 $553 $684 #
point $-1 60.682077374062217 26.501406572544013 5.9992172595078816 #
vertex $-1 $557 $685 #
point $-1 60.682077374062217 31.244088392182917 5.9992172595078816 #
straight-curve $-1 -63.476058229316081 37.119943387331332 0 0 0 -1 I I #
straight-curve $-1 -63.476058229316081 0 -10.030325960441003 0 1 0 I I #
point $-1 -63.476058229316081 -37.119943387331332 -10.030325960441003 #
point $-1 -63.476058229316081 37.119943387331332 -10.030325960441003 #
straight-curve $-1 -63.476058229316081 -37.119943387331332 0 0 0 -1 I I #
edge $-1 $592 -1.6488647354324613 $586 1.6488647354324613 $585 $686 forward 7 unknown #
coedge $-1 $590 $581 $580 $655 reversed $437 $-1 #
edge $-1 $594 -1.6488647354324613 $583 1.6488647354324613 $580 $687 forward 7 unknown #
straight-curve $-1 0 -45.449965787473616 -10.030325960441003 -1 0 0 I I #
point $-1 63.476058229316081 -45.449965787473616 -10.030325960441003 #
point $-1 -63.476058229316081 -45.449965787473616 -10.030325960441003 #
straight-curve $-1 0 -45.449965787473616 -6.7325964895760801 1 0 0 I I #
point $-1 -63.476058229316081 -45.449965787473616 -6.7325964895760801 #
point $-1 63.476058229316081 -45.449965787473616 -6.7325964895760801 #
straight-curve $-1 63.476058229316081 -26.09277958810555 90.261725947192716 0 0 -1 I I #
point $-1 63.476058229316081 -26.09277958810555 10.030325960441003 #
straight-curve $-1 63.476058229316081 -10.279825399263414 6.3190759052372556 0 1 0 I I #
point $-1 63.476058229316081 -26.09277958810555 6.3190759052372698 #
point $-1 59.309872003654604 -22.93099170834628 6.3413465061742498 #
point $-1 59.309872003654604 -18.188309888707376 6.3413465061742498 #
straight-curve $-1 63.476058229316081 -9.6153134944754548 90.261725947192716 0 0 -1 I I #
point $-1 63.476058229316081 -9.6153134944754548 10.030325960441003 #
straight-curve $-1 63.476058229316081 -2.0410923524483664 6.3190759052372556 0 1 0 I I #
point $-1 63.476058229316081 -9.6153134944754548 6.3190759052372698 #
point $-1 59.309872003654604 -6.4535256147161846 6.3413465061742498 #
point $-1 59.309872003654604 -1.710843795077281 6.3413465061742498 #
straight-curve $-1 63.476058229316081 6.8621525991546442 90.261725947192716 0 0 -1 I I #
point $-1 63.476058229316081 6.8621525991546442 10.030325960441003 #
straight-curve $-1 63.476058229316081 6.1976406943666831 6.3190759052372556 0 1 0 I I #
point $-1 63.476058229316081 6.8621525991546442 6.3190759052372698 #
point $-1 59.309872003654604 10.023940478913914 6.3413465061742498 #
point $-1 59.309872003654604 14.766622298552818 6.3413465061742498 #
straight-curve $-1 63.476058229316081 23.339618692784743 90.261725947192716 0 0 -1 I I #
point $-1 63.476058229316081 23.339618692784743 10.030325960441003 #
straight-curve $-1 63.476058229316081 14.436373741181733 6.3190759052372556 0 1 0 I I #
point $-1 63.476058229316081 23.339618692784743 6.3190759052372698 #
point $-1 59.309872003654604 26.501406572544013 6.3413465061742498 #
point $-1 59.309872003654604 31.244088392182917 6.3413465061742498 #
straight-curve $-1 -63.476058229316081 -45.449965787473616 -8.3814612250085414 0 0 -1 I I #
straight-curve $-1 63.476058229316081 -45.449965787473616 -8.3814612250085414 0 0 -1 I I #
End-of-ACIS-data 