500 0 5 0           
7 Unknown 11 ACIS 5.0 NT 24 Thu Mar 25 16:28:26 1999 
-1 9.9999999999999995e-007 1e-010 
body $-1 $5 $-1 $6 #
body $-1 $7 $-1 $8 #
body $-1 $9 $-1 $10 #
body $-1 $11 $-1 $12 #
body $-1 $13 $-1 $14 #
lump $-1 $-1 $15 $0 #
transform $-1 1 0 0 0 1 0 0 0 1 68.800927762688076 31.251331172872725 8.1612831806204174 1 rotate no_reflect no_shear #
lump $-1 $-1 $16 $1 #
transform $-1 1 0 0 0 1 0 0 0 1 68.800927762688076 31.251331172872725 8.1612831806204174 1 rotate no_reflect no_shear #
lump $-1 $-1 $17 $2 #
transform $-1 1 0 0 0 1 0 0 0 1 68.800927762688076 31.251331172872725 8.1612831806204174 1 rotate no_reflect no_shear #
lump $-1 $-1 $18 $3 #
transform $-1 1 0 0 0 1 0 0 0 1 68.800927762688076 31.251331172872725 8.1612831806204174 1 rotate no_reflect no_shear #
lump $-1 $-1 $19 $4 #
transform $-1 1 0 0 0 1 0 0 0 1 68.800927762688076 31.251331172872725 8.1612831806204174 1 rotate no_reflect no_shear #
shell $-1 $-1 $-1 $20 $-1 $5 #
shell $-1 $-1 $-1 $21 $-1 $7 #
shell $-1 $-1 $-1 $22 $-1 $9 #
shell $-1 $-1 $-1 $23 $-1 $11 #
shell $-1 $-1 $-1 $24 $-1 $13 #
face $-1 $25 $26 $15 $-1 $27 forward single #
face $-1 $28 $29 $16 $-1 $30 reversed single #
face $-1 $31 $32 $17 $-1 $33 forward single #
face $-1 $34 $35 $18 $-1 $36 reversed single #
face $-1 $37 $38 $19 $-1 $39 reversed single #
face $-1 $40 $41 $15 $-1 $42 reversed single #
loop $-1 $-1 $43 $20 #
plane-surface $-1 0 0 8.1612831806204174 0 0 1 1 0 0 forward_v I I I I #
face $-1 $44 $45 $16 $-1 $46 forward single #
loop $-1 $-1 $47 $21 #
plane-surface $-1 0 -26.932820071286294 7.6612831806204174 0 0 1 1 0 0 forward_v I I I I #
face $-1 $48 $49 $17 $-1 $50 forward single #
loop $-1 $-1 $51 $22 #
plane-surface $-1 -151.61179267982965 23.230368840807344 112.74017487631214 0 1 0 -0.6018150307709319 0 0.79863550430605224 forward_v I I I I #
face $-1 $52 $53 $18 $-1 $54 reversed single #
loop $-1 $55 $56 $23 #
cone-surface $-1 -64.144756320112251 25.522072364254598 4.00475730224281 0.6018150307709319 0 -0.79863550430605224 0.79863550430605224 0 0.6018150307709319 1 I I 0 1 1 forward I I I I #
face $-1 $57 $58 $19 $-1 $59 reversed single #
loop $-1 $60 $61 $24 #
cone-surface $-1 -64.144756320112251 28.959627649425478 4.00475730224281 0.6018150307709319 0 -0.79863550430605224 0.79863550430605224 0 0.6018150307709319 1 I I 0 1 1 forward I I I I #
face $-1 $62 $63 $15 $-1 $64 reversed single #
loop $-1 $-1 $65 $25 #
plane-surface $-1 0 0 -8.1612831806204174 0 0 1 1 0 0 forward_v I I I I #
coedge $-1 $66 $67 $68 $69 forward $26 $-1 #
face $-1 $70 $71 $16 $-1 $72 forward single #
loop $-1 $-1 $73 $28 #
plane-surface $-1 0 -26.932820071286294 4.6612831806204174 0 0 1 1 0 0 forward_v I I I I #
coedge $-1 $74 $75 $76 $77 reversed $29 $-1 #
face $-1 $78 $79 $17 $-1 $80 forward single #
loop $-1 $-1 $81 $31 #
plane-surface $-1 -68.800927762688076 27.240850006840034 2.8464475953548174 -0.6018150307709319 0 0.79863550430605224 0.79863550430605224 0 0.6018150307709319 forward_v I I I I #
coedge $-1 $82 $83 $84 $85 reversed $32 $-1 #
face $-1 $86 $87 $18 $-1 $88 forward single #
loop $-1 $89 $90 $34 #
cone-surface $-1 -62.71418981274973 25.522072364254598 2.106331464344974 0.6018150307709319 0 -0.79863550430605224 0.39931775215302612 0 0.30090751538546595 1 I I -0.70710678118654746 0.70710678118654746 0.5 forward I I I I #
loop $-1 $-1 $91 $23 #
coedge $-1 $56 $56 $92 $93 reversed $35 $-1 #
face $-1 $94 $95 $19 $-1 $96 reversed single #
loop $-1 $97 $98 $37 #
cone-surface $-1 -62.71418981274973 28.959627649425478 2.106331464344974 0.6018150307709319 0 -0.79863550430605224 0.39931775215302612 0 0.30090751538546595 1 I I -0.70710678118654746 0.70710678118654746 0.5 forward I I I I #
loop $-1 $-1 $99 $24 #
coedge $-1 $61 $61 $100 $101 reversed $38 $-1 #
face $-1 $102 $103 $15 $-1 $104 reversed single #
loop $-1 $-1 $105 $40 #
plane-surface $-1 0 -31.251331172872725 0 0 1 0 0 0 1 forward_v I I I I #
coedge $-1 $106 $107 $108 $109 forward $41 $-1 #
coedge $-1 $110 $43 $111 $112 forward $26 $-1 #
coedge $-1 $43 $110 $113 $114 forward $26 $-1 #
coedge $-1 $115 $116 $43 $69 reversed $117 $-1 #
edge $-1 $118 -31.251331172872725 $119 31.251331172872725 $68 $120 forward 7 unknown #
face $-1 $121 $122 $16 $-1 $123 reversed single #
loop $-1 $-1 $124 $44 #
plane-surface $-1 0 -22.614308969699863 6.1612831806204174 0 -1 0 0 0 -1 forward_v I I I I #
coedge $-1 $125 $126 $127 $128 reversed $45 $-1 #
coedge $-1 $129 $47 $130 $131 reversed $29 $-1 #
coedge $-1 $47 $129 $132 $133 reversed $29 $-1 #
coedge $-1 $134 $135 $47 $77 forward $122 $-1 #
edge $-1 $136 -17.784921137229578 $137 -9.1478989340567161 $76 $138 forward 7 unknown #
face $-1 $139 $140 $17 $-1 $141 reversed single #
loop $-1 $-1 $142 $48 #
plane-surface $-1 0 0 8.1612831806204174 0 0 1 1 0 0 forward_v I I I I #
coedge $-1 $143 $144 $142 $145 reversed $49 $-1 #
coedge $-1 $83 $51 $144 $146 forward $32 $-1 #
coedge $-1 $51 $82 $147 $148 reversed $32 $-1 #
coedge $-1 $149 $142 $51 $85 forward $79 $-1 #
edge $-1 $150 -14.057993478424287 $151 -7.004968577226748 $84 $152 forward 7 unknown #
face $-1 $153 $154 $18 $-1 $155 forward single #
loop $-1 $-1 $156 $52 #
plane-surface $-1 -151.61179267982965 23.230368840807344 112.74017487631214 0 1 0 -0.6018150307709319 0 0.79863550430605224 forward_v I I I I #
loop $-1 $-1 $157 $34 #
coedge $-1 $90 $90 $91 $158 forward $53 $-1 #
coedge $-1 $91 $91 $90 $158 reversed $55 $-1 #
coedge $-1 $92 $92 $56 $93 forward $154 $-1 #
edge $-1 $159 0 $159 6.2831853071796004 $92 $160 forward 7 unknown #
face $-1 $161 $162 $19 $-1 $163 reversed single #
loop $-1 $164 $165 $57 #
cone-surface $-1 -64.144756320112251 25.522072364254598 4.00475730224281 0.6018150307709319 0 -0.79863550430605224 0.79863550430605224 0 0.6018150307709319 1 I I 0 1 1 forward I I I I #
loop $-1 $-1 $166 $37 #
coedge $-1 $98 $98 $99 $167 forward $58 $-1 #
coedge $-1 $99 $99 $98 $167 reversed $60 $-1 #
coedge $-1 $100 $100 $61 $101 forward $168 $-1 #
edge $-1 $169 0 $169 6.2831853071796004 $100 $170 forward 7 unknown #
face $-1 $171 $172 $15 $-1 $173 reversed single #
loop $-1 $-1 $174 $62 #
plane-surface $-1 -68.800927762688076 0 0 1 0 0 0 0 -1 forward_v I I I I #
coedge $-1 $175 $113 $176 $177 forward $63 $-1 #
coedge $-1 $178 $65 $175 $179 forward $41 $-1 #
coedge $-1 $65 $178 $180 $181 forward $41 $-1 #
coedge $-1 $116 $115 $65 $109 reversed $117 $-1 #
edge $-1 $182 -31.251331172872725 $183 31.251331172872725 $108 $184 forward 7 unknown #
coedge $-1 $67 $66 $185 $186 forward $26 $-1 #
coedge $-1 $187 $188 $66 $112 reversed $172 $-1 #
edge $-1 $119 -68.800927762688076 $189 68.800927762688076 $111 $190 forward 7 unknown #
coedge $-1 $105 $191 $67 $114 reversed $63 $-1 #
edge $-1 $192 -68.800927762688076 $118 68.800927762688076 $113 $193 forward 7 unknown #
coedge $-1 $108 $68 $191 $194 forward $117 $-1 #
coedge $-1 $68 $108 $187 $195 reversed $117 $-1 #
loop $-1 $-1 $115 $171 #
vertex $-1 $69 $196 #
vertex $-1 $69 $197 #
straight-curve $-1 68.800927762688076 0 8.1612831806204174 0 1 0 I I #
face $-1 $198 $199 $16 $-1 $200 reversed single #
loop $-1 $-1 $76 $70 #
plane-surface $-1 68.800927762688076 0 0 -1 0 0 0 0 1 forward_v I I I I #
coedge $-1 $132 $201 $134 $202 reversed $71 $-1 #
coedge $-1 $203 $73 $201 $204 reversed $45 $-1 #
coedge $-1 $73 $203 $205 $206 reversed $45 $-1 #
coedge $-1 $207 $134 $73 $128 forward $122 $-1 #
edge $-1 $208 9.1478989340567161 $209 17.784921137229578 $127 $210 forward 7 unknown #
coedge $-1 $75 $74 $211 $212 reversed $29 $-1 #
coedge $-1 $213 $214 $74 $131 forward $215 $-1 #
edge $-1 $216 -68.800927762688076 $136 68.800927762688076 $130 $217 forward 7 unknown #
coedge $-1 $218 $124 $75 $133 forward $71 $-1 #
edge $-1 $137 -68.800927762688076 $219 68.800927762688076 $132 $220 forward 7 unknown #
coedge $-1 $127 $76 $124 $202 forward $122 $-1 #
coedge $-1 $76 $221 $213 $222 forward $122 $-1 #
vertex $-1 $131 $223 #
vertex $-1 $77 $224 #
straight-curve $-1 68.800927762688076 -13.466410035643147 7.6612831806204174 0 1 0 I I #
face $-1 $225 $226 $17 $-1 $227 reversed single #
loop $-1 $-1 $147 $78 #
plane-surface $-1 -68.800927762688076 0 0 1 0 0 0 0 -1 forward_v I I I I #
coedge $-1 $84 $228 $81 $145 forward $79 $-1 #
coedge $-1 $229 $81 $230 $231 reversed $49 $-1 #
coedge $-1 $81 $229 $82 $146 reversed $49 $-1 #
edge $-1 $232 -17.630906169452707 $150 -9.6099438373873269 $142 $233 forward 7 unknown #
edge $-1 $150 -8.8313440401401007 $234 0 $82 $235 forward 7 unknown #
coedge $-1 $236 $237 $83 $148 forward $140 $-1 #
edge $-1 $151 48.208804257535654 $234 53.523639842801252 $147 $238 forward 7 unknown #
coedge $-1 $239 $84 $237 $240 forward $79 $-1 #
vertex $-1 $145 $241 #
vertex $-1 $240 $242 #
straight-curve $-1 -75.805896339914824 23.230368840807344 8.1612831806204156 -1 0 0 I I #
face $-1 $243 $244 $18 $-1 $245 forward single #
loop $-1 $246 $92 $86 #
plane-surface $-1 -68.800927762688076 27.240850006840034 2.8464475953548174 -0.6018150307709319 0 0.79863550430605224 0.79863550430605224 0 0.6018150307709319 forward_v I I I I #
coedge $-1 $247 $248 $249 $250 reversed $87 $-1 #
coedge $-1 $157 $157 $-1 $251 forward $89 $-1 #
edge $-1 $252 0 $252 6.2831853071796004 $90 $253 forward 7 unknown #
vertex $-1 $93 $254 #
ellipse-curve $-1 -65.274415312089303 25.522072364254598 5.5038653879876174 0.6018150307709319 0 -0.79863550430605224 0.79863550430605224 0 0.6018150307709319 1 I I #
face $-1 $255 $256 $19 $-1 $257 forward single #
loop $-1 $258 $259 $94 #
cone-surface $-1 -62.71418981274973 25.522072364254598 2.106331464344974 0.6018150307709319 0 -0.79863550430605224 0.39931775215302612 0 0.30090751538546595 1 I I -0.70710678118654746 0.70710678118654746 0.5 forward I I I I #
loop $-1 $-1 $260 $57 #
coedge $-1 $165 $165 $261 $262 reversed $95 $-1 #
coedge $-1 $166 $166 $-1 $263 forward $97 $-1 #
edge $-1 $264 0 $264 6.2831853071796004 $98 $265 forward 7 unknown #
loop $-1 $266 $100 $255 #
vertex $-1 $101 $267 #
ellipse-curve $-1 -65.274415312089303 28.959627649425478 5.5038653879876174 0.6018150307709319 0 -0.79863550430605224 0.79863550430605224 0 0.6018150307709319 1 I I #
face $-1 $-1 $117 $15 $-1 $268 reversed single #
loop $-1 $-1 $187 $102 #
plane-surface $-1 0 31.251331172872725 0 0 -1 0 0 0 -1 forward_v I I I I #
coedge $-1 $269 $185 $188 $270 forward $103 $-1 #
coedge $-1 $191 $105 $106 $179 reversed $63 $-1 #
coedge $-1 $185 $269 $105 $177 reversed $103 $-1 #
edge $-1 $192 -8.1612831806204174 $271 8.1612831806204174 $176 $272 forward 7 unknown #
coedge $-1 $107 $106 $269 $273 forward $41 $-1 #
edge $-1 $183 -68.800927762688076 $271 68.800927762688076 $175 $274 forward 7 unknown #
coedge $-1 $188 $187 $107 $181 reversed $172 $-1 #
edge $-1 $275 -68.800927762688076 $182 68.800927762688076 $180 $276 forward 7 unknown #
vertex $-1 $109 $277 #
vertex $-1 $194 $278 #
straight-curve $-1 68.800927762688076 0 -8.1612831806204174 0 -1 0 I I #
coedge $-1 $174 $176 $110 $186 reversed $103 $-1 #
edge $-1 $189 -31.251331172872725 $192 31.251331172872725 $185 $279 forward 7 unknown #
coedge $-1 $180 $111 $116 $195 forward $172 $-1 #
coedge $-1 $111 $180 $174 $270 reversed $172 $-1 #
vertex $-1 $112 $280 #
straight-curve $-1 0 31.251331172872725 8.1612831806204174 -1 0 0 I I #
coedge $-1 $113 $175 $115 $194 reversed $63 $-1 #
vertex $-1 $186 $281 #
straight-curve $-1 0 -31.251331172872725 8.1612831806204174 1 0 0 I I #
edge $-1 $118 -8.1612831806204174 $183 8.1612831806204174 $115 $282 forward 7 unknown #
edge $-1 $119 -8.1612831806204174 $182 8.1612831806204174 $116 $283 forward 7 unknown #
point $-1 68.800927762688076 -31.251331172872725 8.1612831806204174 #
point $-1 68.800927762688076 31.251331172872725 8.1612831806204174 #
face $-1 $284 $285 $16 $-1 $286 forward single #
loop $-1 $-1 $205 $121 #
plane-surface $-1 0 -31.251331172872725 0 0 1 0 0 0 1 forward_v I I I I #
coedge $-1 $124 $218 $125 $204 forward $71 $-1 #
edge $-1 $137 -4.5806415903102087 $208 -1.5806415903102087 $134 $287 forward 7 unknown #
coedge $-1 $126 $125 $288 $289 reversed $45 $-1 #
edge $-1 $290 -68.800927762688076 $208 68.800927762688076 $201 $291 forward 7 unknown #
coedge $-1 $292 $293 $126 $206 forward $199 $-1 #
edge $-1 $209 -68.800927762688076 $294 68.800927762688076 $205 $295 forward 7 unknown #
coedge $-1 $296 $127 $293 $297 forward $122 $-1 #
vertex $-1 $128 $298 #
vertex $-1 $297 $299 #
straight-curve $-1 68.800927762688076 -13.466410035643147 4.6612831806204174 0 -1 0 I I #
coedge $-1 $300 $301 $129 $212 forward $302 $-1 #
edge $-1 $219 9.1478989340567161 $216 17.784921137229578 $211 $303 forward 7 unknown #
coedge $-1 $304 $130 $135 $222 reversed $215 $-1 #
coedge $-1 $130 $304 $300 $305 forward $215 $-1 #
loop $-1 $-1 $130 $306 #
vertex $-1 $212 $307 #
straight-curve $-1 0 -31.251331172872725 7.6612831806204174 1 0 0 I I #
coedge $-1 $201 $132 $301 $308 reversed $71 $-1 #
vertex $-1 $212 $309 #
straight-curve $-1 0 -22.614308969699863 7.6612831806204174 -1 0 0 I I #
coedge $-1 $135 $310 $311 $312 reversed $122 $-1 #
edge $-1 $313 -8.1612831806204174 $136 -7.6612831806204174 $135 $314 forward 7 unknown #
point $-1 68.800927762688076 -31.251331172872725 7.6612831806204174 #
point $-1 68.800927762688076 -22.614308969699863 7.6612831806204174 #
face $-1 $315 $316 $17 $-1 $317 forward single #
loop $-1 $-1 $318 $139 #
plane-surface $-1 0 -26.932820071286294 7.6612831806204174 0 0 1 1 0 0 forward_v I I I I #
coedge $-1 $142 $319 $320 $321 forward $79 $-1 #
coedge $-1 $144 $143 $236 $322 reversed $49 $-1 #
coedge $-1 $320 $323 $143 $231 forward $324 $-1 #
edge $-1 $325 -26.61691434664618 $232 -17.785570306506081 $230 $326 forward 7 unknown #
vertex $-1 $231 $327 #
straight-curve $-1 -61.747902861490545 13.620425003420017 8.1612831806204191 0 -1 0 I I #
vertex $-1 $322 $328 #
straight-curve $-1 -68.800927762688076 23.230368840807344 2.8464475953548174 -0.79863550430605224 0 -0.6018150307709319 I I #
coedge $-1 $329 $147 $229 $322 forward $140 $-1 #
coedge $-1 $147 $330 $149 $240 reversed $140 $-1 #
straight-curve $-1 -68.800927762688076 23.230368840807344 56.370087438156069 0 0 -1 I I #
coedge $-1 $319 $149 $331 $332 forward $79 $-1 #
edge $-1 $151 -23.230368840807344 $333 31.251331172872725 $237 $334 forward 7 unknown #
point $-1 -61.747902861490537 23.230368840807344 8.1612831806204174 #
point $-1 -68.800927762688076 23.230368840807344 8.1612831806204174 #
face $-1 $335 $336 $18 $-1 $337 reversed single #
loop $-1 $-1 $338 $153 #
plane-surface $-1 0 0 8.1612831806204174 0 0 1 1 0 0 forward_v I I I I #
loop $-1 $-1 $339 $86 #
coedge $-1 $248 $156 $340 $341 forward $87 $-1 #
coedge $-1 $156 $247 $342 $343 reversed $87 $-1 #
coedge $-1 $344 $338 $156 $250 forward $244 $-1 #
edge $-1 $345 -14.057993478424287 $346 -7.004968577226748 $249 $347 forward 7 unknown #
edge $-1 $348 1 $348 0 $157 $-1 forward 7 unknown #
vertex $-1 $158 $349 #
ellipse-curve $-1 -63.015097328135198 25.522072364254598 2.505649216498 -0.6018150307709319 0 0.79863550430605224 0.79863550430605224 0 0.6018150307709319 1 I I #
point $-1 -64.475779807783269 25.522072364254598 6.1056804187585527 #
face $-1 $350 $168 $19 $-1 $351 forward single #
loop $-1 $-1 $352 $161 #
plane-surface $-1 -151.61179267982965 23.230368840807344 112.74017487631214 0 1 0 -0.6018150307709319 0 0.79863550430605224 forward_v I I I I #
loop $-1 $-1 $353 $94 #
coedge $-1 $259 $259 $260 $354 forward $162 $-1 #
coedge $-1 $260 $260 $259 $354 reversed $164 $-1 #
coedge $-1 $261 $261 $165 $262 forward $266 $-1 #
edge $-1 $355 0 $355 6.2831853071796004 $261 $356 forward 7 unknown #
edge $-1 $357 1 $357 0 $166 $-1 forward 7 unknown #
vertex $-1 $167 $358 #
ellipse-curve $-1 -63.015097328135198 28.959627649425478 2.505649216498 -0.6018150307709319 0 0.79863550430605224 0.79863550430605224 0 0.6018150307709319 1 I I #
loop $-1 $359 $261 $255 #
point $-1 -64.475779807783269 28.959627649425478 6.1056804187585527 #
plane-surface $-1 68.800927762688076 0 0 -1 0 0 0 0 1 forward_v I I I I #
coedge $-1 $176 $174 $178 $273 reversed $103 $-1 #
edge $-1 $189 -8.1612831806204174 $275 8.1612831806204174 $188 $360 forward 7 unknown #
vertex $-1 $273 $361 #
straight-curve $-1 -68.800927762688076 -31.251331172872725 0 0 0 -1 I I #
edge $-1 $271 -31.251331172872725 $275 31.251331172872725 $269 $362 forward 7 unknown #
straight-curve $-1 0 -31.251331172872725 -8.1612831806204174 -1 0 0 I I #
vertex $-1 $181 $363 #
straight-curve $-1 0 31.251331172872725 -8.1612831806204174 1 0 0 I I #
point $-1 68.800927762688076 31.251331172872725 -8.1612831806204174 #
point $-1 68.800927762688076 -31.251331172872725 -8.1612831806204174 #
straight-curve $-1 -68.800927762688076 0 8.1612831806204174 0 -1 0 I I #
point $-1 -68.800927762688076 31.251331172872725 8.1612831806204174 #
point $-1 -68.800927762688076 -31.251331172872725 8.1612831806204174 #
straight-curve $-1 68.800927762688076 -31.251331172872725 0 0 0 -1 I I #
straight-curve $-1 68.800927762688076 31.251331172872725 0 0 0 -1 I I #
face $-1 $306 $364 $16 $-1 $365 reversed single #
loop $-1 $-1 $311 $198 #
plane-surface $-1 0 0 8.1612831806204174 0 0 1 1 0 0 forward_v I I I I #
straight-curve $-1 68.800927762688076 -22.614308969699863 3.0806415903102087 0 0 -1 I I #
coedge $-1 $301 $366 $203 $289 forward $302 $-1 #
edge $-1 $294 -17.784921137229578 $290 -9.1478989340567161 $288 $367 forward 7 unknown #
vertex $-1 $289 $368 #
straight-curve $-1 0 -22.614308969699863 4.6612831806204174 1 0 0 I I #
coedge $-1 $369 $205 $366 $370 forward $199 $-1 #
coedge $-1 $205 $369 $207 $297 reversed $199 $-1 #
vertex $-1 $370 $371 #
straight-curve $-1 0 -31.251331172872725 4.6612831806204174 -1 0 0 I I #
coedge $-1 $310 $207 $372 $373 reversed $122 $-1 #
edge $-1 $209 -4.6612831806204174 $374 8.1612831806204174 $207 $314 forward 7 unknown #
point $-1 68.800927762688076 -22.614308969699863 4.6612831806204174 #
point $-1 68.800927762688076 -31.251331172872725 4.6612831806204174 #
coedge $-1 $375 $211 $214 $305 reversed $302 $-1 #
coedge $-1 $211 $288 $218 $308 forward $302 $-1 #
loop $-1 $-1 $211 $376 #
straight-curve $-1 -68.800927762688076 -13.466410035643147 7.6612831806204174 0 -1 0 I I #
coedge $-1 $214 $213 $377 $378 reversed $215 $-1 #
edge $-1 $379 -8.1612831806204174 $216 -7.6612831806204174 $300 $380 forward 7 unknown #
face $-1 $376 $215 $16 $-1 $200 reversed single #
point $-1 -68.800927762688076 -31.251331172872725 7.6612831806204174 #
edge $-1 $290 1.5806415903102087 $219 4.5806415903102087 $301 $381 forward 7 unknown #
point $-1 -68.800927762688076 -22.614308969699863 7.6612831806204174 #
coedge $-1 $221 $296 $382 $383 reversed $122 $-1 #
coedge $-1 $384 $377 $221 $312 forward $285 $-1 #
edge $-1 $313 -31.251331172872725 $385 31.251331172872725 $221 $386 forward 7 unknown #
vertex $-1 $312 $387 #
straight-curve $-1 68.800927762688076 -31.251331172872725 0 0 0 -1 I I #
face $-1 $388 $389 $17 $-1 $390 forward single #
loop $-1 $-1 $391 $225 #
plane-surface $-1 0 -26.932820071286294 4.6612831806204174 0 0 1 1 0 0 forward_v I I I I #
coedge $-1 $392 $393 $394 $395 reversed $226 $-1 #
coedge $-1 $228 $239 $396 $397 forward $79 $-1 #
coedge $-1 $398 $230 $228 $321 reversed $324 $-1 #
edge $-1 $399 -68.800927762688076 $232 61.747902861490537 $320 $400 forward 7 unknown #
edge $-1 $234 9.6099438373873269 $325 17.630906169452707 $236 $401 forward 7 unknown #
coedge $-1 $230 $402 $329 $403 reversed $324 $-1 #
loop $-1 $-1 $230 $404 #
vertex $-1 $403 $405 #
straight-curve $-1 -47.543714950383311 31.251331172872725 18.864906721908948 0.79863550430605224 0 0.6018150307709319 I I #
point $-1 -61.747902861490537 31.251331172872725 8.1612831806204174 #
point $-1 -68.800927762688076 23.230368840807344 2.8464475953548174 #
coedge $-1 $406 $236 $323 $403 forward $140 $-1 #
coedge $-1 $237 $407 $408 $409 reversed $140 $-1 #
coedge $-1 $408 $410 $239 $332 reversed $411 $-1 #
edge $-1 $333 -68.800927762688076 $412 68.800927762688076 $331 $413 forward 7 unknown #
vertex $-1 $240 $414 #
straight-curve $-1 -68.800927762688076 0 8.1612831806204174 0 -1 0 I I #
face $-1 $415 $416 $18 $-1 $417 reversed single #
loop $-1 $-1 $342 $243 #
plane-surface $-1 -68.800927762688076 0 0 1 0 0 0 0 -1 forward_v I I I I #
coedge $-1 $249 $418 $339 $419 forward $244 $-1 #
coedge $-1 $420 $340 $338 $419 reversed $246 $-1 #
coedge $-1 $339 $421 $247 $341 reversed $246 $-1 #
edge $-1 $345 -8.8313440401401007 $422 0 $247 $423 forward 7 unknown #
coedge $-1 $424 $425 $248 $343 forward $336 $-1 #
edge $-1 $346 48.208804257535654 $422 53.523639842801252 $342 $426 forward 7 unknown #
coedge $-1 $427 $249 $425 $428 forward $244 $-1 #
vertex $-1 $419 $429 #
vertex $-1 $428 $430 #
straight-curve $-1 -75.805896339914824 23.230368840807344 8.1612831806204156 -1 0 0 I I #
vertex $-1 $251 $431 #
point $-1 -62.216461823829142 25.522072364254598 3.1074642472689318 #
face $-1 $432 $433 $19 $-1 $434 forward single #
plane-surface $-1 -68.800927762688076 27.240850006840034 2.8464475953548174 -0.6018150307709319 0 0.79863550430605224 0.79863550430605224 0 0.6018150307709319 forward_v I I I I #
coedge $-1 $435 $436 $437 $438 reversed $256 $-1 #
coedge $-1 $353 $353 $-1 $439 forward $258 $-1 #
edge $-1 $440 0 $440 6.2831853071796004 $259 $441 forward 7 unknown #
vertex $-1 $262 $442 #
ellipse-curve $-1 -65.274415312089303 25.522072364254598 5.5038653879876174 0.6018150307709319 0 -0.79863550430605224 0.79863550430605224 0 0.6018150307709319 1 I I #
vertex $-1 $263 $443 #
point $-1 -62.216461823829142 28.959627649425478 3.1074642472689318 #
loop $-1 $-1 $444 $255 #
straight-curve $-1 -68.800927762688076 31.251331172872725 0 0 0 -1 I I #
point $-1 -68.800927762688076 -31.251331172872725 -8.1612831806204174 #
straight-curve $-1 -68.800927762688076 0 -8.1612831806204174 0 1 0 I I #
point $-1 -68.800927762688076 31.251331172872725 -8.1612831806204174 #
loop $-1 $-1 $372 $284 #
plane-surface $-1 0 0 -8.1612831806204174 0 0 1 1 0 0 forward_v I I I I #
coedge $-1 $288 $445 $292 $370 reversed $302 $-1 #
straight-curve $-1 -68.800927762688076 -13.466410035643147 4.6612831806204174 0 1 0 I I #
point $-1 -68.800927762688076 -22.614308969699863 4.6612831806204174 #
coedge $-1 $293 $292 $446 $447 reversed $199 $-1 #
edge $-1 $294 -4.6612831806204174 $448 8.1612831806204174 $366 $380 forward 7 unknown #
point $-1 -68.800927762688076 -31.251331172872725 4.6612831806204174 #
coedge $-1 $446 $449 $296 $373 forward $364 $-1 #
edge $-1 $450 -31.251331172872725 $374 31.251331172872725 $296 $451 forward 7 unknown #
vertex $-1 $297 $452 #
coedge $-1 $453 $300 $454 $455 reversed $302 $-1 #
face $-1 $456 $302 $16 $-1 $457 reversed single #
coedge $-1 $311 $454 $304 $378 forward $285 $-1 #
edge $-1 $379 -68.800927762688076 $313 68.800927762688076 $304 $458 forward 7 unknown #
vertex $-1 $455 $459 #
straight-curve $-1 -68.800927762688076 -31.251331172872725 0 0 0 -1 I I #
straight-curve $-1 -68.800927762688076 -22.614308969699863 3.0806415903102087 0 0 1 I I #
coedge $-1 $460 $461 $310 $383 forward $462 $-1 #
edge $-1 $385 -8.1612831806204174 $450 8.1612831806204174 $310 $463 forward 7 unknown #
coedge $-1 $454 $311 $461 $464 forward $285 $-1 #
vertex $-1 $312 $465 #
straight-curve $-1 68.800927762688076 0 8.1612831806204174 0 1 0 I I #
point $-1 68.800927762688076 -31.251331172872725 8.1612831806204174 #
face $-1 $466 $467 $17 $-1 $468 reversed single #
loop $-1 $-1 $469 $315 #
plane-surface $-1 0 -22.614308969699863 6.1612831806204174 0 -1 0 0 0 -1 forward_v I I I I #
coedge $-1 $470 $471 $472 $473 reversed $316 $-1 #
coedge $-1 $474 $318 $475 $476 reversed $226 $-1 #
coedge $-1 $318 $474 $477 $478 reversed $226 $-1 #
coedge $-1 $479 $480 $318 $395 forward $467 $-1 #
edge $-1 $481 -17.784921137229578 $482 -9.1478989340567161 $394 $483 forward 7 unknown #
coedge $-1 $480 $484 $319 $397 reversed $467 $-1 #
edge $-1 $412 -31.251331172872725 $399 31.251331172872725 $396 $485 forward 7 unknown #
coedge $-1 $402 $320 $484 $486 forward $324 $-1 #
vertex $-1 $397 $487 #
straight-curve $-1 0 31.251331172872725 8.1612831806204174 -1 0 0 I I #
straight-curve $-1 -68.800927762688076 13.620425003420017 2.8464475953548192 0 1 0 I I #
coedge $-1 $323 $398 $488 $489 reversed $324 $-1 #
edge $-1 $325 -2.8464475953548174 $490 8.1612831806204174 $323 $491 forward 7 unknown #
face $-1 $-1 $324 $17 $-1 $492 reversed single #
point $-1 -68.800927762688076 31.251331172872725 2.8464475953548174 #
coedge $-1 $493 $329 $494 $495 reversed $140 $-1 #
coedge $-1 $330 $496 $474 $497 forward $140 $-1 #
coedge $-1 $475 $331 $330 $409 forward $411 $-1 #
edge $-1 $333 -8.1612831806204174 $498 -7.6612831806204174 $330 $499 forward 7 unknown #
coedge $-1 $331 $475 $480 $500 reversed $411 $-1 #
loop $-1 $-1 $475 $501 #
vertex $-1 $397 $502 #
straight-curve $-1 0 -31.251331172872725 8.1612831806204174 1 0 0 I I #
point $-1 -68.800927762688076 -31.251331172872725 8.1612831806204174 #
face $-1 $503 $504 $18 $-1 $505 forward single #
loop $-1 $-1 $506 $335 #
plane-surface $-1 0 -26.932820071286294 7.6612831806204174 0 0 1 1 0 0 forward_v I I I I #
coedge $-1 $338 $507 $508 $509 forward $244 $-1 #
edge $-1 $510 -17.630906169452707 $345 -9.6099438373873269 $338 $511 forward 7 unknown #
coedge $-1 $421 $339 $512 $513 reversed $246 $-1 #
coedge $-1 $340 $420 $424 $514 reversed $246 $-1 #
vertex $-1 $514 $515 #
straight-curve $-1 -68.800927762688076 23.230368840807344 2.8464475953548174 -0.79863550430605224 0 -0.6018150307709319 I I #
coedge $-1 $516 $342 $421 $514 forward $336 $-1 #
coedge $-1 $342 $517 $344 $428 reversed $336 $-1 #
straight-curve $-1 -68.800927762688076 23.230368840807344 56.370087438156069 0 0 -1 I I #
coedge $-1 $507 $344 $518 $519 forward $244 $-1 #
edge $-1 $346 -23.230368840807344 $520 31.251331172872725 $425 $521 forward 7 unknown #
point $-1 -61.747902861490537 23.230368840807344 8.1612831806204174 #
point $-1 -68.800927762688076 23.230368840807344 8.1612831806204174 #
point $-1 -62.413282297364262 25.522072364254598 1.707013712191948 #
face $-1 $522 $523 $19 $-1 $524 reversed single #
loop $-1 $-1 $525 $350 #
plane-surface $-1 0 0 8.1612831806204174 0 0 1 1 0 0 forward_v I I I I #
coedge $-1 $436 $352 $526 $527 forward $256 $-1 #
coedge $-1 $352 $435 $528 $529 reversed $256 $-1 #
coedge $-1 $530 $525 $352 $438 forward $433 $-1 #
edge $-1 $531 -14.057993478424287 $532 -7.004968577226748 $437 $533 forward 7 unknown #
edge $-1 $534 1 $534 0 $353 $-1 forward 7 unknown #
vertex $-1 $354 $535 #
ellipse-curve $-1 -63.015097328135198 25.522072364254598 2.505649216498 -0.6018150307709319 0 0.79863550430605224 0.79863550430605224 0 0.6018150307709319 1 I I #
point $-1 -64.475779807783269 25.522072364254598 6.1056804187585527 #
point $-1 -62.413282297364262 28.959627649425478 1.707013712191948 #
coedge $-1 $536 $526 $525 $537 reversed $359 $-1 #
coedge $-1 $366 $453 $538 $539 reversed $302 $-1 #
coedge $-1 $538 $372 $369 $447 forward $364 $-1 #
edge $-1 $374 -68.800927762688076 $448 68.800927762688076 $369 $540 forward 7 unknown #
vertex $-1 $539 $541 #
coedge $-1 $372 $538 $460 $542 forward $364 $-1 #
vertex $-1 $373 $543 #
straight-curve $-1 68.800927762688076 0 -8.1612831806204174 0 -1 0 I I #
point $-1 68.800927762688076 -31.251331172872725 -8.1612831806204174 #
coedge $-1 $445 $375 $544 $545 forward $302 $-1 #
coedge $-1 $377 $384 $375 $455 forward $285 $-1 #
edge $-1 $546 -31.251331172872725 $379 31.251331172872725 $375 $547 forward 7 unknown #
face $-1 $-1 $462 $16 $-1 $548 reversed single #
plane-surface $-1 -68.800927762688076 0 0 1 0 0 0 0 -1 forward_v I I I I #
straight-curve $-1 0 -31.251331172872725 8.1612831806204174 1 0 0 I I #
point $-1 -68.800927762688076 -31.251331172872725 8.1612831806204174 #
coedge $-1 $544 $382 $449 $542 reversed $462 $-1 #
coedge $-1 $382 $544 $384 $464 reversed $462 $-1 #
loop $-1 $-1 $382 $456 #
straight-curve $-1 68.800927762688076 31.251331172872725 0 0 0 -1 I I #
edge $-1 $385 -68.800927762688076 $546 68.800927762688076 $461 $549 forward 7 unknown #
point $-1 68.800927762688076 31.251331172872725 8.1612831806204174 #
face $-1 $550 $551 $17 $-1 $552 reversed single #
loop $-1 $-1 $394 $388 #
plane-surface $-1 68.800927762688076 0 0 -1 0 0 0 0 1 forward_v I I I I #
coedge $-1 $477 $553 $479 $554 reversed $389 $-1 #
coedge $-1 $555 $391 $553 $556 reversed $316 $-1 #
coedge $-1 $391 $555 $557 $558 reversed $316 $-1 #
coedge $-1 $559 $479 $391 $473 forward $467 $-1 #
edge $-1 $560 9.1478989340567161 $561 17.784921137229578 $472 $562 forward 7 unknown #
coedge $-1 $393 $392 $407 $497 reversed $226 $-1 #
coedge $-1 $410 $408 $392 $476 forward $411 $-1 #
edge $-1 $498 -68.800927762688076 $481 68.800927762688076 $475 $563 forward 7 unknown #
coedge $-1 $564 $469 $393 $478 forward $389 $-1 #
edge $-1 $482 -68.800927762688076 $565 68.800927762688076 $477 $566 forward 7 unknown #
coedge $-1 $472 $394 $469 $554 forward $467 $-1 #
coedge $-1 $394 $396 $410 $500 forward $467 $-1 #
vertex $-1 $476 $567 #
vertex $-1 $395 $568 #
straight-curve $-1 68.800927762688076 -13.466410035643147 7.6612831806204174 0 1 0 I I #
coedge $-1 $396 $569 $398 $486 reversed $467 $-1 #
straight-curve $-1 68.800927762688076 0 8.1612831806204174 0 1 0 I I #
edge $-1 $399 -8.1612831806204174 $570 8.1612831806204174 $484 $571 forward 7 unknown #
point $-1 68.800927762688076 31.251331172872725 8.1612831806204174 #
coedge $-1 $572 $494 $402 $489 forward $573 $-1 #
edge $-1 $490 -68.800927762688076 $570 68.800927762688076 $402 $574 forward 7 unknown #
vertex $-1 $489 $575 #
straight-curve $-1 -68.800927762688076 31.251331172872725 0 0 0 -1 I I #
plane-surface $-1 0 31.251331172872725 0 0 -1 0 0 0 -1 forward_v I I I I #
coedge $-1 $576 $406 $577 $578 reversed $140 $-1 #
coedge $-1 $488 $579 $406 $495 forward $573 $-1 #
edge $-1 $580 -31.251331172872725 $490 31.251331172872725 $406 $581 forward 7 unknown #
coedge $-1 $407 $576 $564 $582 forward $140 $-1 #
edge $-1 $565 9.1478989340567161 $498 17.784921137229578 $407 $583 forward 7 unknown #
vertex $-1 $497 $584 #
straight-curve $-1 -68.800927762688076 -31.251331172872725 0 0 0 -1 I I #
edge $-1 $412 -8.1612831806204174 $481 -7.6612831806204174 $480 $585 forward 7 unknown #
face $-1 $404 $411 $17 $-1 $552 reversed single #
point $-1 68.800927762688076 -31.251331172872725 8.1612831806204174 #
face $-1 $586 $587 $18 $-1 $588 forward single #
loop $-1 $-1 $589 $415 #
plane-surface $-1 0 -26.932820071286294 4.6612831806204174 0 0 1 1 0 0 forward_v I I I I #
coedge $-1 $590 $591 $592 $593 reversed $416 $-1 #
coedge $-1 $418 $427 $594 $595 forward $244 $-1 #
coedge $-1 $596 $512 $418 $509 reversed $597 $-1 #
edge $-1 $598 -68.800927762688076 $510 61.747902861490537 $508 $599 forward 7 unknown #
vertex $-1 $513 $600 #
straight-curve $-1 -61.747902861490545 13.620425003420017 8.1612831806204191 0 -1 0 I I #
coedge $-1 $508 $601 $420 $513 forward $597 $-1 #
edge $-1 $602 -26.61691434664618 $510 -17.785570306506081 $512 $603 forward 7 unknown #
edge $-1 $422 9.6099438373873269 $602 17.630906169452707 $424 $604 forward 7 unknown #
point $-1 -68.800927762688076 23.230368840807344 2.8464475953548174 #
coedge $-1 $605 $424 $601 $606 forward $336 $-1 #
coedge $-1 $425 $607 $608 $609 reversed $336 $-1 #
coedge $-1 $608 $610 $427 $519 reversed $611 $-1 #
edge $-1 $520 -68.800927762688076 $612 68.800927762688076 $518 $613 forward 7 unknown #
vertex $-1 $428 $614 #
straight-curve $-1 -68.800927762688076 0 8.1612831806204174 0 -1 0 I I #
face $-1 $615 $616 $19 $-1 $617 reversed single #
loop $-1 $-1 $528 $432 #
plane-surface $-1 -68.800927762688076 0 0 1 0 0 0 0 -1 forward_v I I I I #
coedge $-1 $437 $618 $444 $537 forward $433 $-1 #
coedge $-1 $444 $619 $435 $527 reversed $359 $-1 #
edge $-1 $531 -8.8313440401401007 $620 0 $435 $621 forward 7 unknown #
coedge $-1 $622 $623 $436 $529 forward $523 $-1 #
edge $-1 $532 48.208804257535654 $620 53.523639842801252 $528 $624 forward 7 unknown #
coedge $-1 $625 $437 $623 $626 forward $433 $-1 #
vertex $-1 $537 $627 #
vertex $-1 $626 $628 #
straight-curve $-1 -75.805896339914824 23.230368840807344 8.1612831806204156 -1 0 0 I I #
vertex $-1 $439 $629 #
point $-1 -62.216461823829142 25.522072364254598 3.1074642472689318 #
coedge $-1 $619 $444 $630 $631 reversed $359 $-1 #
edge $-1 $632 -17.630906169452707 $531 -9.6099438373873269 $525 $633 forward 7 unknown #
coedge $-1 $449 $446 $445 $539 forward $364 $-1 #
edge $-1 $448 -31.251331172872725 $634 31.251331172872725 $445 $635 forward 7 unknown #
straight-curve $-1 0 -31.251331172872725 -8.1612831806204174 -1 0 0 I I #
point $-1 -68.800927762688076 -31.251331172872725 -8.1612831806204174 #
edge $-1 $634 -68.800927762688076 $450 68.800927762688076 $460 $636 forward 7 unknown #
point $-1 68.800927762688076 31.251331172872725 -8.1612831806204174 #
coedge $-1 $461 $460 $453 $545 reversed $462 $-1 #
edge $-1 $546 -8.1612831806204174 $634 8.1612831806204174 $544 $637 forward 7 unknown #
vertex $-1 $464 $638 #
straight-curve $-1 -68.800927762688076 0 8.1612831806204174 0 -1 0 I I #
plane-surface $-1 0 31.251331172872725 0 0 -1 0 0 0 -1 forward_v I I I I #
straight-curve $-1 0 31.251331172872725 8.1612831806204174 -1 0 0 I I #
face $-1 $501 $573 $17 $-1 $639 reversed single #
loop $-1 $-1 $557 $466 #
plane-surface $-1 0 -31.251331172872725 0 0 1 0 0 0 1 forward_v I I I I #
coedge $-1 $469 $564 $470 $556 forward $389 $-1 #
edge $-1 $482 -4.5806415903102087 $560 -1.5806415903102087 $479 $640 forward 7 unknown #
coedge $-1 $471 $470 $576 $641 reversed $316 $-1 #
edge $-1 $642 -68.800927762688076 $560 68.800927762688076 $553 $643 forward 7 unknown #
coedge $-1 $577 $644 $471 $558 forward $551 $-1 #
edge $-1 $561 -68.800927762688076 $645 68.800927762688076 $557 $646 forward 7 unknown #
coedge $-1 $569 $472 $644 $647 forward $467 $-1 #
vertex $-1 $473 $648 #
vertex $-1 $647 $649 #
straight-curve $-1 68.800927762688076 -13.466410035643147 4.6612831806204174 0 -1 0 I I #
straight-curve $-1 0 -31.251331172872725 7.6612831806204174 1 0 0 I I #
coedge $-1 $553 $477 $496 $582 reversed $389 $-1 #
vertex $-1 $497 $650 #
straight-curve $-1 0 -22.614308969699863 7.6612831806204174 -1 0 0 I I #
point $-1 68.800927762688076 -31.251331172872725 7.6612831806204174 #
point $-1 68.800927762688076 -22.614308969699863 7.6612831806204174 #
coedge $-1 $484 $559 $572 $651 reversed $467 $-1 #
vertex $-1 $651 $652 #
straight-curve $-1 68.800927762688076 31.251331172872725 0 0 0 -1 I I #
coedge $-1 $579 $488 $569 $651 forward $573 $-1 #
loop $-1 $-1 $572 $550 #
straight-curve $-1 0 31.251331172872725 -8.1612831806204174 1 0 0 I I #
point $-1 -68.800927762688076 31.251331172872725 -8.1612831806204174 #
coedge $-1 $496 $493 $555 $641 forward $140 $-1 #
coedge $-1 $653 $557 $493 $578 forward $551 $-1 #
edge $-1 $645 -4.6612831806204174 $580 8.1612831806204174 $493 $499 forward 7 unknown #
coedge $-1 $494 $572 $653 $654 forward $573 $-1 #
vertex $-1 $495 $655 #
straight-curve $-1 -68.800927762688076 0 -8.1612831806204174 0 1 0 I I #
edge $-1 $642 1.5806415903102087 $565 4.5806415903102087 $496 $656 forward 7 unknown #
straight-curve $-1 -68.800927762688076 -13.466410035643147 7.6612831806204174 0 -1 0 I I #
point $-1 -68.800927762688076 -31.251331172872725 7.6612831806204174 #
straight-curve $-1 68.800927762688076 -31.251331172872725 0 0 0 -1 I I #
face $-1 $657 $658 $18 $-1 $659 reversed single #
loop $-1 $-1 $660 $503 #
plane-surface $-1 0 -22.614308969699863 6.1612831806204174 0 -1 0 0 0 -1 forward_v I I I I #
coedge $-1 $661 $662 $663 $664 reversed $504 $-1 #
coedge $-1 $665 $506 $666 $667 reversed $416 $-1 #
coedge $-1 $506 $665 $668 $669 reversed $416 $-1 #
coedge $-1 $670 $671 $506 $593 forward $658 $-1 #
edge $-1 $672 -17.784921137229578 $673 -9.1478989340567161 $592 $674 forward 7 unknown #
coedge $-1 $671 $675 $507 $595 reversed $658 $-1 #
edge $-1 $612 -31.251331172872725 $598 31.251331172872725 $594 $676 forward 7 unknown #
coedge $-1 $677 $508 $675 $678 forward $597 $-1 #
loop $-1 $-1 $512 $679 #
vertex $-1 $595 $680 #
straight-curve $-1 0 31.251331172872725 8.1612831806204174 -1 0 0 I I #
point $-1 -61.747902861490537 31.251331172872725 8.1612831806204174 #
coedge $-1 $512 $677 $516 $606 reversed $597 $-1 #
vertex $-1 $606 $681 #
straight-curve $-1 -47.543714950383311 31.251331172872725 18.864906721908948 0.79863550430605224 0 0.6018150307709319 I I #
straight-curve $-1 -68.800927762688076 13.620425003420017 2.8464475953548192 0 1 0 I I #
coedge $-1 $682 $516 $683 $684 reversed $336 $-1 #
edge $-1 $602 -2.8464475953548174 $685 8.1612831806204174 $601 $686 forward 7 unknown #
coedge $-1 $517 $687 $665 $688 forward $336 $-1 #
coedge $-1 $666 $518 $517 $609 forward $611 $-1 #
edge $-1 $520 -8.1612831806204174 $689 -7.6612831806204174 $517 $690 forward 7 unknown #
coedge $-1 $518 $666 $671 $691 reversed $611 $-1 #
loop $-1 $-1 $666 $692 #
vertex $-1 $595 $693 #
straight-curve $-1 0 -31.251331172872725 8.1612831806204174 1 0 0 I I #
point $-1 -68.800927762688076 -31.251331172872725 8.1612831806204174 #
face $-1 $694 $695 $19 $-1 $696 forward single #
loop $-1 $-1 $697 $522 #
plane-surface $-1 0 -26.932820071286294 7.6612831806204174 0 0 1 1 0 0 forward_v I I I I #
coedge $-1 $525 $698 $699 $700 forward $433 $-1 #
coedge $-1 $526 $536 $622 $701 reversed $359 $-1 #
vertex $-1 $701 $702 #
straight-curve $-1 -68.800927762688076 23.230368840807344 2.8464475953548174 -0.79863550430605224 0 -0.6018150307709319 I I #
coedge $-1 $703 $528 $619 $701 forward $523 $-1 #
coedge $-1 $528 $704 $530 $626 reversed $523 $-1 #
straight-curve $-1 -68.800927762688076 23.230368840807344 56.370087438156069 0 0 -1 I I #
coedge $-1 $698 $530 $705 $706 forward $433 $-1 #
edge $-1 $532 -23.230368840807344 $707 31.251331172872725 $623 $708 forward 7 unknown #
point $-1 -61.747902861490537 23.230368840807344 8.1612831806204174 #
point $-1 -68.800927762688076 23.230368840807344 8.1612831806204174 #
point $-1 -62.413282297364262 25.522072364254598 1.707013712191948 #
coedge $-1 $699 $709 $536 $631 forward $710 $-1 #
edge $-1 $711 -26.61691434664618 $632 -17.785570306506081 $630 $712 forward 7 unknown #
vertex $-1 $631 $713 #
straight-curve $-1 -61.747902861490545 13.620425003420017 8.1612831806204191 0 -1 0 I I #
vertex $-1 $542 $714 #
straight-curve $-1 -68.800927762688076 0 -8.1612831806204174 0 1 0 I I #
straight-curve $-1 0 31.251331172872725 -8.1612831806204174 1 0 0 I I #
straight-curve $-1 -68.800927762688076 31.251331172872725 0 0 0 -1 I I #
point $-1 -68.800927762688076 31.251331172872725 8.1612831806204174 #
plane-surface $-1 0 0 -8.1612831806204174 0 0 1 1 0 0 forward_v I I I I #
straight-curve $-1 68.800927762688076 -22.614308969699863 3.0806415903102087 0 0 -1 I I #
edge $-1 $645 -17.784921137229578 $642 -9.1478989340567161 $576 $715 forward 7 unknown #
vertex $-1 $641 $716 #
straight-curve $-1 0 -22.614308969699863 4.6612831806204174 1 0 0 I I #
coedge $-1 $557 $653 $559 $647 reversed $551 $-1 #
vertex $-1 $578 $717 #
straight-curve $-1 0 -31.251331172872725 4.6612831806204174 -1 0 0 I I #
edge $-1 $561 -4.6612831806204174 $718 8.1612831806204174 $559 $585 forward 7 unknown #
point $-1 68.800927762688076 -22.614308969699863 4.6612831806204174 #
point $-1 68.800927762688076 -31.251331172872725 4.6612831806204174 #
point $-1 -68.800927762688076 -22.614308969699863 7.6612831806204174 #
edge $-1 $570 -31.251331172872725 $718 31.251331172872725 $569 $719 forward 7 unknown #
point $-1 68.800927762688076 31.251331172872725 -8.1612831806204174 #
coedge $-1 $644 $577 $579 $654 reversed $551 $-1 #
edge $-1 $718 -68.800927762688076 $580 68.800927762688076 $653 $720 forward 7 unknown #
point $-1 -68.800927762688076 -31.251331172872725 -8.1612831806204174 #
straight-curve $-1 -68.800927762688076 -22.614308969699863 3.0806415903102087 0 0 1 I I #
face $-1 $721 $722 $18 $-1 $723 reversed single #
loop $-1 $-1 $592 $586 #
plane-surface $-1 68.800927762688076 0 0 -1 0 0 0 0 1 forward_v I I I I #
coedge $-1 $668 $724 $670 $725 reversed $587 $-1 #
coedge $-1 $726 $589 $724 $727 reversed $504 $-1 #
coedge $-1 $589 $726 $728 $729 reversed $504 $-1 #
coedge $-1 $730 $670 $589 $664 forward $658 $-1 #
edge $-1 $731 9.1478989340567161 $732 17.784921137229578 $663 $733 forward 7 unknown #
coedge $-1 $591 $590 $607 $688 reversed $416 $-1 #
coedge $-1 $610 $608 $590 $667 forward $611 $-1 #
edge $-1 $689 -68.800927762688076 $672 68.800927762688076 $666 $734 forward 7 unknown #
coedge $-1 $735 $660 $591 $669 forward $587 $-1 #
edge $-1 $673 -68.800927762688076 $736 68.800927762688076 $668 $737 forward 7 unknown #
coedge $-1 $663 $592 $660 $725 forward $658 $-1 #
coedge $-1 $592 $594 $610 $691 forward $658 $-1 #
vertex $-1 $667 $738 #
vertex $-1 $593 $739 #
straight-curve $-1 68.800927762688076 -13.466410035643147 7.6612831806204174 0 1 0 I I #
coedge $-1 $594 $740 $596 $678 reversed $658 $-1 #
straight-curve $-1 68.800927762688076 0 8.1612831806204174 0 1 0 I I #
coedge $-1 $601 $596 $741 $742 reversed $597 $-1 #
edge $-1 $598 -8.1612831806204174 $743 8.1612831806204174 $675 $744 forward 7 unknown #
face $-1 $-1 $597 $18 $-1 $745 reversed single #
point $-1 68.800927762688076 31.251331172872725 8.1612831806204174 #
point $-1 -68.800927762688076 31.251331172872725 2.8464475953548174 #
coedge $-1 $746 $605 $747 $748 reversed $336 $-1 #
coedge $-1 $741 $749 $605 $684 forward $750 $-1 #
edge $-1 $751 -31.251331172872725 $685 31.251331172872725 $605 $752 forward 7 unknown #
vertex $-1 $742 $753 #
straight-curve $-1 -68.800927762688076 31.251331172872725 0 0 0 -1 I I #
coedge $-1 $607 $746 $735 $754 forward $336 $-1 #
edge $-1 $736 9.1478989340567161 $689 17.784921137229578 $607 $755 forward 7 unknown #
vertex $-1 $688 $756 #
straight-curve $-1 -68.800927762688076 -31.251331172872725 0 0 0 -1 I I #
edge $-1 $612 -8.1612831806204174 $672 -7.6612831806204174 $671 $757 forward 7 unknown #
face $-1 $679 $611 $18 $-1 $723 reversed single #
point $-1 68.800927762688076 -31.251331172872725 8.1612831806204174 #
face $-1 $758 $759 $19 $-1 $760 forward single #
loop $-1 $-1 $761 $615 #
plane-surface $-1 0 -26.932820071286294 4.6612831806204174 0 0 1 1 0 0 forward_v I I I I #
coedge $-1 $762 $763 $764 $765 reversed $616 $-1 #
coedge $-1 $618 $625 $766 $767 forward $433 $-1 #
coedge $-1 $768 $630 $618 $700 reversed $710 $-1 #
edge $-1 $769 -68.800927762688076 $632 61.747902861490537 $699 $770 forward 7 unknown #
edge $-1 $620 9.6099438373873269 $711 17.630906169452707 $622 $771 forward 7 unknown #
point $-1 -68.800927762688076 23.230368840807344 2.8464475953548174 #
coedge $-1 $772 $622 $709 $773 forward $523 $-1 #
coedge $-1 $623 $774 $775 $776 reversed $523 $-1 #
coedge $-1 $775 $777 $625 $706 reversed $778 $-1 #
edge $-1 $707 -68.800927762688076 $779 68.800927762688076 $705 $780 forward 7 unknown #
vertex $-1 $626 $781 #
straight-curve $-1 -68.800927762688076 0 8.1612831806204174 0 -1 0 I I #
coedge $-1 $630 $782 $703 $773 reversed $710 $-1 #
loop $-1 $-1 $630 $783 #
vertex $-1 $773 $784 #
straight-curve $-1 -47.543714950383311 31.251331172872725 18.864906721908948 0.79863550430605224 0 0.6018150307709319 I I #
point $-1 -61.747902861490537 31.251331172872725 8.1612831806204174 #
point $-1 -68.800927762688076 31.251331172872725 -8.1612831806204174 #
straight-curve $-1 -68.800927762688076 -13.466410035643147 4.6612831806204174 0 1 0 I I #
point $-1 -68.800927762688076 -22.614308969699863 4.6612831806204174 #
point $-1 -68.800927762688076 -31.251331172872725 4.6612831806204174 #
vertex $-1 $647 $785 #
straight-curve $-1 68.800927762688076 0 -8.1612831806204174 0 -1 0 I I #
straight-curve $-1 0 -31.251331172872725 -8.1612831806204174 -1 0 0 I I #
face $-1 $692 $750 $18 $-1 $786 reversed single #
loop $-1 $-1 $728 $657 #
plane-surface $-1 0 -31.251331172872725 0 0 1 0 0 0 1 forward_v I I I I #
coedge $-1 $660 $735 $661 $727 forward $587 $-1 #
edge $-1 $673 -4.5806415903102087 $731 -1.5806415903102087 $670 $787 forward 7 unknown #
coedge $-1 $662 $661 $746 $788 reversed $504 $-1 #
edge $-1 $789 -68.800927762688076 $731 68.800927762688076 $724 $790 forward 7 unknown #
coedge $-1 $747 $791 $662 $729 forward $722 $-1 #
edge $-1 $732 -68.800927762688076 $792 68.800927762688076 $728 $793 forward 7 unknown #
coedge $-1 $740 $663 $791 $794 forward $658 $-1 #
vertex $-1 $664 $795 #
vertex $-1 $794 $796 #
straight-curve $-1 68.800927762688076 -13.466410035643147 4.6612831806204174 0 -1 0 I I #
straight-curve $-1 0 -31.251331172872725 7.6612831806204174 1 0 0 I I #
coedge $-1 $724 $668 $687 $754 reversed $587 $-1 #
vertex $-1 $688 $797 #
straight-curve $-1 0 -22.614308969699863 7.6612831806204174 -1 0 0 I I #
point $-1 68.800927762688076 -31.251331172872725 7.6612831806204174 #
point $-1 68.800927762688076 -22.614308969699863 7.6612831806204174 #
coedge $-1 $675 $730 $798 $799 reversed $658 $-1 #
coedge $-1 $798 $683 $677 $742 forward $750 $-1 #
edge $-1 $685 -68.800927762688076 $743 68.800927762688076 $677 $800 forward 7 unknown #
vertex $-1 $799 $801 #
straight-curve $-1 68.800927762688076 31.251331172872725 0 0 0 -1 I I #
plane-surface $-1 0 31.251331172872725 0 0 -1 0 0 0 -1 forward_v I I I I #
coedge $-1 $687 $682 $726 $788 forward $336 $-1 #
coedge $-1 $802 $728 $682 $748 forward $722 $-1 #
edge $-1 $792 -4.6612831806204174 $751 8.1612831806204174 $682 $690 forward 7 unknown #
coedge $-1 $683 $798 $802 $803 forward $750 $-1 #
loop $-1 $-1 $798 $721 #
vertex $-1 $684 $804 #
straight-curve $-1 -68.800927762688076 0 -8.1612831806204174 0 1 0 I I #
point $-1 -68.800927762688076 31.251331172872725 -8.1612831806204174 #
edge $-1 $789 1.5806415903102087 $736 4.5806415903102087 $687 $805 forward 7 unknown #
straight-curve $-1 -68.800927762688076 -13.466410035643147 7.6612831806204174 0 -1 0 I I #
point $-1 -68.800927762688076 -31.251331172872725 7.6612831806204174 #
straight-curve $-1 68.800927762688076 -31.251331172872725 0 0 0 -1 I I #
face $-1 $806 $807 $19 $-1 $808 reversed single #
loop $-1 $-1 $809 $694 #
plane-surface $-1 0 -22.614308969699863 6.1612831806204174 0 -1 0 0 0 -1 forward_v I I I I #
coedge $-1 $810 $811 $812 $813 reversed $695 $-1 #
coedge $-1 $814 $697 $815 $816 reversed $616 $-1 #
coedge $-1 $697 $814 $817 $818 reversed $616 $-1 #
coedge $-1 $819 $820 $697 $765 forward $807 $-1 #
edge $-1 $821 -17.784921137229578 $822 -9.1478989340567161 $764 $823 forward 7 unknown #
coedge $-1 $820 $824 $698 $767 reversed $807 $-1 #
edge $-1 $779 -31.251331172872725 $769 31.251331172872725 $766 $825 forward 7 unknown #
coedge $-1 $782 $699 $824 $826 forward $710 $-1 #
vertex $-1 $767 $827 #
straight-curve $-1 0 31.251331172872725 8.1612831806204174 -1 0 0 I I #
straight-curve $-1 -68.800927762688076 13.620425003420017 2.8464475953548192 0 1 0 I I #
coedge $-1 $828 $703 $829 $830 reversed $523 $-1 #
edge $-1 $711 -2.8464475953548174 $831 8.1612831806204174 $709 $832 forward 7 unknown #
coedge $-1 $704 $833 $814 $834 forward $523 $-1 #
coedge $-1 $815 $705 $704 $776 forward $778 $-1 #
edge $-1 $707 -8.1612831806204174 $835 -7.6612831806204174 $704 $836 forward 7 unknown #
coedge $-1 $705 $815 $820 $837 reversed $778 $-1 #
loop $-1 $-1 $815 $838 #
vertex $-1 $767 $839 #
straight-curve $-1 0 -31.251331172872725 8.1612831806204174 1 0 0 I I #
point $-1 -68.800927762688076 -31.251331172872725 8.1612831806204174 #
coedge $-1 $709 $768 $840 $841 reversed $710 $-1 #
face $-1 $-1 $710 $19 $-1 $842 reversed single #
point $-1 -68.800927762688076 31.251331172872725 2.8464475953548174 #
point $-1 68.800927762688076 -31.251331172872725 -8.1612831806204174 #
plane-surface $-1 0 0 -8.1612831806204174 0 0 1 1 0 0 forward_v I I I I #
straight-curve $-1 68.800927762688076 -22.614308969699863 3.0806415903102087 0 0 -1 I I #
edge $-1 $792 -17.784921137229578 $789 -9.1478989340567161 $746 $843 forward 7 unknown #
vertex $-1 $788 $844 #
straight-curve $-1 0 -22.614308969699863 4.6612831806204174 1 0 0 I I #
coedge $-1 $728 $802 $730 $794 reversed $722 $-1 #
vertex $-1 $748 $845 #
straight-curve $-1 0 -31.251331172872725 4.6612831806204174 -1 0 0 I I #
edge $-1 $732 -4.6612831806204174 $846 8.1612831806204174 $730 $757 forward 7 unknown #
point $-1 68.800927762688076 -22.614308969699863 4.6612831806204174 #
point $-1 68.800927762688076 -31.251331172872725 4.6612831806204174 #
point $-1 -68.800927762688076 -22.614308969699863 7.6612831806204174 #
coedge $-1 $749 $741 $740 $799 forward $750 $-1 #
edge $-1 $743 -31.251331172872725 $846 31.251331172872725 $740 $847 forward 7 unknown #
straight-curve $-1 0 31.251331172872725 -8.1612831806204174 1 0 0 I I #
point $-1 68.800927762688076 31.251331172872725 -8.1612831806204174 #
coedge $-1 $791 $747 $749 $803 reversed $722 $-1 #
edge $-1 $846 -68.800927762688076 $751 68.800927762688076 $802 $848 forward 7 unknown #
point $-1 -68.800927762688076 -31.251331172872725 -8.1612831806204174 #
straight-curve $-1 -68.800927762688076 -22.614308969699863 3.0806415903102087 0 0 1 I I #
face $-1 $849 $850 $19 $-1 $851 reversed single #
loop $-1 $-1 $764 $758 #
plane-surface $-1 68.800927762688076 0 0 -1 0 0 0 0 1 forward_v I I I I #
coedge $-1 $817 $852 $819 $853 reversed $759 $-1 #
coedge $-1 $854 $761 $852 $855 reversed $695 $-1 #
coedge $-1 $761 $854 $856 $857 reversed $695 $-1 #
coedge $-1 $858 $819 $761 $813 forward $807 $-1 #
edge $-1 $859 9.1478989340567161 $860 17.784921137229578 $812 $861 forward 7 unknown #
coedge $-1 $763 $762 $774 $834 reversed $616 $-1 #
coedge $-1 $777 $775 $762 $816 forward $778 $-1 #
edge $-1 $835 -68.800927762688076 $821 68.800927762688076 $815 $862 forward 7 unknown #
coedge $-1 $863 $809 $763 $818 forward $759 $-1 #
edge $-1 $822 -68.800927762688076 $864 68.800927762688076 $817 $865 forward 7 unknown #
coedge $-1 $812 $764 $809 $853 forward $807 $-1 #
coedge $-1 $764 $766 $777 $837 forward $807 $-1 #
vertex $-1 $816 $866 #
vertex $-1 $765 $867 #
straight-curve $-1 68.800927762688076 -13.466410035643147 7.6612831806204174 0 1 0 I I #
coedge $-1 $766 $868 $768 $826 reversed $807 $-1 #
straight-curve $-1 68.800927762688076 0 8.1612831806204174 0 1 0 I I #
edge $-1 $769 -8.1612831806204174 $869 8.1612831806204174 $824 $870 forward 7 unknown #
point $-1 68.800927762688076 31.251331172872725 8.1612831806204174 #
coedge $-1 $871 $772 $872 $873 reversed $523 $-1 #
coedge $-1 $840 $874 $772 $830 forward $875 $-1 #
edge $-1 $876 -31.251331172872725 $831 31.251331172872725 $772 $877 forward 7 unknown #
vertex $-1 $841 $878 #
straight-curve $-1 -68.800927762688076 31.251331172872725 0 0 0 -1 I I #
coedge $-1 $774 $871 $863 $879 forward $523 $-1 #
edge $-1 $864 9.1478989340567161 $835 17.784921137229578 $774 $880 forward 7 unknown #
vertex $-1 $834 $881 #
straight-curve $-1 -68.800927762688076 -31.251331172872725 0 0 0 -1 I I #
edge $-1 $779 -8.1612831806204174 $821 -7.6612831806204174 $820 $882 forward 7 unknown #
face $-1 $783 $778 $19 $-1 $851 reversed single #
point $-1 68.800927762688076 -31.251331172872725 8.1612831806204174 #
coedge $-1 $883 $829 $782 $841 forward $875 $-1 #
edge $-1 $831 -68.800927762688076 $869 68.800927762688076 $782 $884 forward 7 unknown #
plane-surface $-1 0 31.251331172872725 0 0 -1 0 0 0 -1 forward_v I I I I #
straight-curve $-1 -68.800927762688076 -13.466410035643147 4.6612831806204174 0 1 0 I I #
point $-1 -68.800927762688076 -22.614308969699863 4.6612831806204174 #
point $-1 -68.800927762688076 -31.251331172872725 4.6612831806204174 #
vertex $-1 $794 $885 #
straight-curve $-1 68.800927762688076 0 -8.1612831806204174 0 -1 0 I I #
straight-curve $-1 0 -31.251331172872725 -8.1612831806204174 -1 0 0 I I #
face $-1 $838 $875 $19 $-1 $886 reversed single #
loop $-1 $-1 $856 $806 #
plane-surface $-1 0 -31.251331172872725 0 0 1 0 0 0 1 forward_v I I I I #
coedge $-1 $809 $863 $810 $855 forward $759 $-1 #
edge $-1 $822 -4.5806415903102087 $859 -1.5806415903102087 $819 $887 forward 7 unknown #
coedge $-1 $811 $810 $871 $888 reversed $695 $-1 #
edge $-1 $889 -68.800927762688076 $859 68.800927762688076 $852 $890 forward 7 unknown #
coedge $-1 $872 $891 $811 $857 forward $850 $-1 #
edge $-1 $860 -68.800927762688076 $892 68.800927762688076 $856 $893 forward 7 unknown #
coedge $-1 $868 $812 $891 $894 forward $807 $-1 #
vertex $-1 $813 $895 #
vertex $-1 $894 $896 #
straight-curve $-1 68.800927762688076 -13.466410035643147 4.6612831806204174 0 -1 0 I I #
straight-curve $-1 0 -31.251331172872725 7.6612831806204174 1 0 0 I I #
coedge $-1 $852 $817 $833 $879 reversed $759 $-1 #
vertex $-1 $834 $897 #
straight-curve $-1 0 -22.614308969699863 7.6612831806204174 -1 0 0 I I #
point $-1 68.800927762688076 -31.251331172872725 7.6612831806204174 #
point $-1 68.800927762688076 -22.614308969699863 7.6612831806204174 #
coedge $-1 $824 $858 $883 $898 reversed $807 $-1 #
vertex $-1 $898 $899 #
straight-curve $-1 68.800927762688076 31.251331172872725 0 0 0 -1 I I #
coedge $-1 $833 $828 $854 $888 forward $523 $-1 #
coedge $-1 $900 $856 $828 $873 forward $850 $-1 #
edge $-1 $892 -4.6612831806204174 $876 8.1612831806204174 $828 $836 forward 7 unknown #
coedge $-1 $829 $883 $900 $901 forward $875 $-1 #
loop $-1 $-1 $883 $849 #
vertex $-1 $830 $902 #
straight-curve $-1 -68.800927762688076 0 -8.1612831806204174 0 1 0 I I #
point $-1 -68.800927762688076 31.251331172872725 -8.1612831806204174 #
edge $-1 $889 1.5806415903102087 $864 4.5806415903102087 $833 $903 forward 7 unknown #
straight-curve $-1 -68.800927762688076 -13.466410035643147 7.6612831806204174 0 -1 0 I I #
point $-1 -68.800927762688076 -31.251331172872725 7.6612831806204174 #
straight-curve $-1 68.800927762688076 -31.251331172872725 0 0 0 -1 I I #
coedge $-1 $874 $840 $868 $898 forward $875 $-1 #
straight-curve $-1 0 31.251331172872725 -8.1612831806204174 1 0 0 I I #
point $-1 68.800927762688076 -31.251331172872725 -8.1612831806204174 #
plane-surface $-1 0 0 -8.1612831806204174 0 0 1 1 0 0 forward_v I I I I #
straight-curve $-1 68.800927762688076 -22.614308969699863 3.0806415903102087 0 0 -1 I I #
edge $-1 $892 -17.784921137229578 $889 -9.1478989340567161 $871 $904 forward 7 unknown #
vertex $-1 $888 $905 #
straight-curve $-1 0 -22.614308969699863 4.6612831806204174 1 0 0 I I #
coedge $-1 $856 $900 $858 $894 reversed $850 $-1 #
vertex $-1 $873 $906 #
straight-curve $-1 0 -31.251331172872725 4.6612831806204174 -1 0 0 I I #
edge $-1 $860 -4.6612831806204174 $907 8.1612831806204174 $858 $882 forward 7 unknown #
point $-1 68.800927762688076 -22.614308969699863 4.6612831806204174 #
point $-1 68.800927762688076 -31.251331172872725 4.6612831806204174 #
point $-1 -68.800927762688076 -22.614308969699863 7.6612831806204174 #
edge $-1 $869 -31.251331172872725 $907 31.251331172872725 $868 $908 forward 7 unknown #
point $-1 68.800927762688076 31.251331172872725 -8.1612831806204174 #
coedge $-1 $891 $872 $874 $901 reversed $850 $-1 #
edge $-1 $907 -68.800927762688076 $876 68.800927762688076 $900 $909 forward 7 unknown #
point $-1 -68.800927762688076 -31.251331172872725 -8.1612831806204174 #
straight-curve $-1 -68.800927762688076 -22.614308969699863 3.0806415903102087 0 0 1 I I #
straight-curve $-1 -68.800927762688076 -13.466410035643147 4.6612831806204174 0 1 0 I I #
point $-1 -68.800927762688076 -22.614308969699863 4.6612831806204174 #
point $-1 -68.800927762688076 -31.251331172872725 4.6612831806204174 #
vertex $-1 $894 $910 #
straight-curve $-1 68.800927762688076 0 -8.1612831806204174 0 -1 0 I I #
straight-curve $-1 0 -31.251331172872725 -8.1612831806204174 -1 0 0 I I #
point $-1 68.800927762688076 -31.251331172872725 -8.1612831806204174 #
End-of-ACIS-data 