500 0 13 0           
7 Unknown 11 ACIS 5.0 NT 24 Fri Mar 26 03:07:16 1999 
-1 9.9999999999999995e-007 1e-010 
body $-1 $13 $-1 $14 #
body $-1 $15 $-1 $16 #
body $-1 $17 $-1 $18 #
body $-1 $19 $-1 $20 #
body $-1 $21 $-1 $22 #
body $-1 $23 $-1 $24 #
body $-1 $25 $-1 $26 #
body $-1 $27 $-1 $28 #
body $-1 $29 $-1 $30 #
body $-1 $31 $-1 $32 #
body $-1 $33 $-1 $34 #
body $-1 $35 $-1 $36 #
body $-1 $37 $-1 $38 #
lump $-1 $-1 $39 $0 #
transform $-1 1 0 0 0 1 0 0 0 1 46.700643940549945 21.327772337533663 8.107443447953294 1 rotate no_reflect no_shear #
lump $-1 $-1 $40 $1 #
transform $-1 1 0 0 0 1 0 0 0 1 46.700643940549945 21.327772337533663 8.107443447953294 1 rotate no_reflect no_shear #
lump $-1 $-1 $41 $2 #
transform $-1 1 0 0 0 1 0 0 0 1 46.700643940549945 21.327772337533663 8.107443447953294 1 rotate no_reflect no_shear #
lump $-1 $-1 $42 $3 #
transform $-1 1 0 0 0 1 0 0 0 1 46.700643940549945 21.327772337533663 8.107443447953294 1 rotate no_reflect no_shear #
lump $-1 $-1 $43 $4 #
transform $-1 1 0 0 0 1 0 0 0 1 46.700643940549945 21.327772337533663 8.107443447953294 1 rotate no_reflect no_shear #
lump $-1 $-1 $44 $5 #
transform $-1 1 0 0 0 1 0 0 0 1 46.700643940549945 21.327772337533663 8.107443447953294 1 rotate no_reflect no_shear #
lump $-1 $-1 $45 $6 #
transform $-1 1 0 0 0 1 0 0 0 1 46.700643940549945 21.327772337533663 8.107443447953294 1 rotate no_reflect no_shear #
lump $-1 $-1 $46 $7 #
transform $-1 1 0 0 0 1 0 0 0 1 46.700643940549945 21.327772337533663 8.107443447953294 1 rotate no_reflect no_shear #
lump $-1 $-1 $47 $8 #
transform $-1 1 0 0 0 1 0 0 0 1 46.700643940549945 21.327772337533663 8.107443447953294 1 rotate no_reflect no_shear #
lump $-1 $-1 $48 $9 #
transform $-1 1 0 0 0 1 0 0 0 1 46.700643940549945 21.327772337533663 8.107443447953294 1 rotate no_reflect no_shear #
lump $-1 $-1 $49 $10 #
transform $-1 1 0 0 0 1 0 0 0 1 46.700643940549945 21.327772337533663 8.107443447953294 1 rotate no_reflect no_shear #
lump $-1 $-1 $50 $11 #
transform $-1 1 0 0 0 1 0 0 0 1 46.700643940549945 21.327772337533663 8.107443447953294 1 rotate no_reflect no_shear #
lump $-1 $-1 $51 $12 #
transform $-1 1 0 0 0 1 0 0 0 1 46.700643940549945 21.327772337533663 8.107443447953294 1 rotate no_reflect no_shear #
shell $-1 $-1 $-1 $52 $-1 $13 #
shell $-1 $-1 $-1 $53 $-1 $15 #
shell $-1 $-1 $-1 $54 $-1 $17 #
shell $-1 $-1 $-1 $55 $-1 $19 #
shell $-1 $-1 $-1 $56 $-1 $21 #
shell $-1 $-1 $-1 $57 $-1 $23 #
shell $-1 $-1 $-1 $58 $-1 $25 #
shell $-1 $-1 $-1 $59 $-1 $27 #
shell $-1 $-1 $-1 $60 $-1 $29 #
shell $-1 $-1 $-1 $61 $-1 $31 #
shell $-1 $-1 $-1 $62 $-1 $33 #
shell $-1 $-1 $-1 $63 $-1 $35 #
shell $-1 $-1 $-1 $64 $-1 $37 #
face $-1 $65 $66 $39 $-1 $67 forward single #
face $-1 $68 $69 $40 $-1 $70 forward single #
face $-1 $71 $72 $41 $-1 $73 reversed single #
face $-1 $74 $75 $42 $-1 $76 forward single #
face $-1 $77 $78 $43 $-1 $79 forward single #
face $-1 $80 $81 $44 $-1 $82 forward single #
face $-1 $83 $84 $45 $-1 $85 reversed single #
face $-1 $86 $87 $46 $-1 $88 forward single #
face $-1 $89 $90 $47 $-1 $91 forward single #
face $-1 $92 $93 $48 $-1 $94 forward single #
face $-1 $95 $96 $49 $-1 $97 reversed single #
face $-1 $98 $99 $50 $-1 $100 forward single #
face $-1 $101 $102 $51 $-1 $103 forward single #
face $-1 $104 $105 $39 $-1 $106 reversed single #
loop $-1 $-1 $107 $52 #
plane-surface $-1 0 0 8.107443447953294 0 0 1 1 0 0 forward_v I I I I #
face $-1 $108 $109 $40 $-1 $110 reversed single #
loop $-1 $-1 $111 $53 #
plane-surface $-1 0 -15.98665777463631 -3.7232828456923488 0 0 1 1 0 0 forward_v I I I I #
face $-1 $112 $113 $41 $-1 $114 reversed single #
loop $-1 $-1 $115 $54 #
plane-surface $-1 -118.25018227600535 -8.0898227254625006 60.317602595054431 0 1 0 -0.7660444514056185 0 0.64278759981090561 forward_v I I I I #
face $-1 $116 $117 $42 $-1 $118 forward single #
loop $-1 $119 $120 $55 #
cone-surface $-1 -43.033792594064053 -6.6154153050421165 3.8725343934285958 0.7660444514056185 0 -0.64278759981090561 0.3213937999054528 0 0.38302222570280925 1 I I 0 1 0.5 forward I I I I #
face $-1 $121 $122 $43 $-1 $123 forward single #
loop $-1 $124 $125 $56 #
cone-surface $-1 -43.033792594064053 -4.4038041744115404 3.8725343934285958 0.7660444514056185 0 -0.64278759981090561 0.3213937999054528 0 0.38302222570280925 1 I I 0 1 0.5 forward I I I I #
face $-1 $126 $127 $44 $-1 $128 forward single #
loop $-1 $129 $130 $57 #
cone-surface $-1 -43.033792594064053 -2.1921930437809642 3.8725343934285958 0.7660444514056185 0 -0.64278759981090561 0.3213937999054528 0 0.38302222570280925 1 I I 0 1 0.5 forward I I I I #
face $-1 $131 $132 $45 $-1 $133 reversed single #
loop $-1 $-1 $134 $58 #
plane-surface $-1 -118.25018227600535 7.8968350491738093 60.317602595054431 0 1 0 -0.7660444514056185 0 0.64278759981090561 forward_v I I I I #
face $-1 $135 $136 $46 $-1 $137 forward single #
loop $-1 $138 $139 $59 #
cone-surface $-1 -43.033792594064053 9.3712424695941898 3.8725343934285958 0.7660444514056185 0 -0.64278759981090561 0.3213937999054528 0 0.38302222570280925 1 I I 0 1 0.5 forward I I I I #
face $-1 $140 $141 $47 $-1 $142 forward single #
loop $-1 $143 $144 $60 #
cone-surface $-1 -43.033792594064053 11.58285360022477 3.8725343934285958 0.7660444514056185 0 -0.64278759981090561 0.3213937999054528 0 0.38302222570280925 1 I I 0 1 0.5 forward I I I I #
face $-1 $145 $146 $48 $-1 $147 forward single #
loop $-1 $148 $149 $61 #
cone-surface $-1 -43.033792594064053 13.794464730855342 3.8725343934285958 0.7660444514056185 0 -0.64278759981090561 0.3213937999054528 0 0.38302222570280925 1 I I 0 1 0.5 forward I I I I #
face $-1 $150 $151 $49 $-1 $152 reversed single #
loop $-1 $-1 $153 $62 #
plane-surface $-1 49.005922844448982 -1.6247571461122767 136.78265032775499 0 -1 0 -0.71933980857756763 0 -0.69465836192734942 forward_v I I I I #
face $-1 $154 $155 $50 $-1 $156 forward single #
loop $-1 $157 $158 $63 #
cone-surface $-1 44.549374213037865 -5.9840749916994049 5.9155304464870211 -0.71933980857756763 0 -0.69465836192734942 0.34732918096367471 0 -0.35966990428878381 1 I I 0 1 0.5 forward I I I I #
face $-1 $159 $160 $51 $-1 $161 forward single #
loop $-1 $162 $163 $64 #
cone-surface $-1 44.549374213037865 -3.3684842843471259 5.9155304464870211 -0.71933980857756763 0 -0.69465836192734942 0.34732918096367471 0 -0.35966990428878381 1 I I 0 1 0.5 forward I I I I #
face $-1 $164 $165 $39 $-1 $166 reversed single #
loop $-1 $-1 $167 $65 #
plane-surface $-1 0 0 -8.107443447953294 0 0 1 1 0 0 forward_v I I I I #
coedge $-1 $168 $169 $170 $171 forward $66 $-1 #
face $-1 $172 $173 $40 $-1 $174 reversed single #
loop $-1 $-1 $175 $68 #
plane-surface $-1 0 -10.645543211738957 -5.9153631468228216 0 -1 0 0 0 -1 forward_v I I I I #
coedge $-1 $176 $177 $178 $179 reversed $69 $-1 #
face $-1 $180 $181 $41 $-1 $182 reversed single #
loop $-1 $-1 $183 $71 #
plane-surface $-1 -46.700643940549938 -4.4038041744115404 0.28041293871481088 -0.7660444514056185 0 0.64278759981090561 0.64278759981090561 0 0.7660444514056185 forward_v I I I I #
coedge $-1 $184 $185 $186 $187 reversed $72 $-1 #
face $-1 $-1 $188 $42 $-1 $189 forward single #
loop $-1 $190 $191 $74 #
cone-surface $-1 -42.459259255509842 -6.6154153050421165 3.3904436935704165 0.7660444514056185 0 -0.64278759981090561 0.1606968999527264 0 0.19151111285140462 1 I I -0.70710678118654746 0.70710678118654746 0.25 forward I I I I #
loop $-1 $-1 $192 $55 #
coedge $-1 $120 $120 $193 $194 reversed $75 $-1 #
face $-1 $-1 $195 $43 $-1 $196 forward single #
loop $-1 $197 $198 $77 #
cone-surface $-1 -42.459259255509842 -4.4038041744115404 3.3904436935704165 0.7660444514056185 0 -0.64278759981090561 0.1606968999527264 0 0.19151111285140462 1 I I -0.70710678118654746 0.70710678118654746 0.25 forward I I I I #
loop $-1 $-1 $199 $56 #
coedge $-1 $125 $125 $200 $201 reversed $78 $-1 #
face $-1 $-1 $202 $44 $-1 $203 forward single #
loop $-1 $204 $205 $80 #
cone-surface $-1 -42.459259255509842 -2.1921930437809642 3.3904436935704165 0.7660444514056185 0 -0.64278759981090561 0.1606968999527264 0 0.19151111285140462 1 I I -0.70710678118654746 0.70710678118654746 0.25 forward I I I I #
loop $-1 $-1 $206 $57 #
coedge $-1 $130 $130 $207 $208 reversed $81 $-1 #
face $-1 $209 $210 $45 $-1 $211 reversed single #
loop $-1 $-1 $212 $83 #
plane-surface $-1 -46.700643940549938 11.58285360022477 0.28041293871481088 -0.7660444514056185 0 0.64278759981090561 0.64278759981090561 0 0.7660444514056185 forward_v I I I I #
coedge $-1 $213 $214 $215 $216 reversed $84 $-1 #
face $-1 $-1 $217 $46 $-1 $218 forward single #
loop $-1 $219 $220 $86 #
cone-surface $-1 -42.459259255509842 9.3712424695941898 3.3904436935704165 0.7660444514056185 0 -0.64278759981090561 0.1606968999527264 0 0.19151111285140462 1 I I -0.70710678118654746 0.70710678118654746 0.25 forward I I I I #
loop $-1 $-1 $221 $59 #
coedge $-1 $139 $139 $222 $223 reversed $87 $-1 #
face $-1 $-1 $224 $47 $-1 $225 forward single #
loop $-1 $226 $227 $89 #
cone-surface $-1 -42.459259255509842 11.58285360022477 3.3904436935704165 0.7660444514056185 0 -0.64278759981090561 0.1606968999527264 0 0.19151111285140462 1 I I -0.70710678118654746 0.70710678118654746 0.25 forward I I I I #
loop $-1 $-1 $228 $60 #
coedge $-1 $144 $144 $229 $230 reversed $90 $-1 #
face $-1 $-1 $231 $48 $-1 $232 forward single #
loop $-1 $233 $234 $92 #
cone-surface $-1 -42.459259255509842 13.794464730855342 3.3904436935704165 0.7660444514056185 0 -0.64278759981090561 0.1606968999527264 0 0.19151111285140462 1 I I -0.70710678118654746 0.70710678118654746 0.25 forward I I I I #
loop $-1 $-1 $235 $61 #
coedge $-1 $149 $149 $236 $237 reversed $93 $-1 #
face $-1 $238 $239 $49 $-1 $240 reversed single #
loop $-1 $-1 $241 $95 #
plane-surface $-1 -18.181341700839702 -4.6762796380232672 71.900664686365346 0.71933980857756763 0 0.69465836192734942 0.69465836192734942 0 -0.71933980857756763 forward_v I I I I #
coedge $-1 $242 $243 $244 $245 reversed $96 $-1 #
face $-1 $-1 $246 $50 $-1 $247 forward single #
loop $-1 $248 $249 $98 #
cone-surface $-1 43.85706425581413 -5.9840749916994049 5.2469745079772281 -0.71933980857756763 0 -0.69465836192734942 0.17366459048183736 0 -0.17983495214439191 1 I I -0.70710678118654746 0.70710678118654746 0.25 forward I I I I #
loop $-1 $-1 $250 $63 #
coedge $-1 $158 $158 $251 $252 reversed $99 $-1 #
face $-1 $-1 $253 $51 $-1 $254 forward single #
loop $-1 $255 $256 $101 #
cone-surface $-1 43.85706425581413 -3.3684842843471259 5.2469745079772281 -0.71933980857756763 0 -0.69465836192734942 0.17366459048183736 0 -0.17983495214439191 1 I I -0.70710678118654746 0.70710678118654746 0.25 forward I I I I #
loop $-1 $-1 $257 $64 #
coedge $-1 $163 $163 $258 $259 reversed $102 $-1 #
face $-1 $260 $261 $39 $-1 $262 reversed single #
loop $-1 $-1 $263 $104 #
plane-surface $-1 0 -21.327772337533663 0 0 1 0 0 0 1 forward_v I I I I #
coedge $-1 $264 $265 $266 $267 forward $105 $-1 #
coedge $-1 $268 $107 $269 $270 forward $66 $-1 #
coedge $-1 $107 $268 $271 $272 forward $66 $-1 #
coedge $-1 $273 $274 $107 $171 reversed $275 $-1 #
edge $-1 $276 -21.327772337533663 $277 21.327772337533663 $170 $278 forward 7 unknown #
face $-1 $279 $280 $40 $-1 $281 reversed single #
loop $-1 $-1 $282 $108 #
plane-surface $-1 0 0 -8.107443447953294 0 0 1 1 0 0 forward_v I I I I #
coedge $-1 $283 $284 $285 $286 reversed $109 $-1 #
coedge $-1 $287 $111 $284 $288 forward $69 $-1 #
coedge $-1 $111 $287 $289 $290 reversed $69 $-1 #
coedge $-1 $291 $285 $111 $179 forward $280 $-1 #
edge $-1 $292 2.6522143244208021 $293 13.334443450215508 $178 $294 forward 7 unknown #
face $-1 $295 $296 $41 $-1 $297 forward single #
loop $-1 $-1 $298 $112 #
plane-surface $-1 -118.25018227600535 -0.71778562336058016 60.317602595054431 0 -1 0 0.7660444514056185 0 -0.64278759981090561 forward_v I I I I #
coedge $-1 $299 $300 $301 $302 reversed $113 $-1 #
coedge $-1 $185 $115 $303 $304 reversed $72 $-1 #
coedge $-1 $115 $184 $299 $305 reversed $72 $-1 #
coedge $-1 $301 $306 $115 $187 forward $296 $-1 #
edge $-1 $307 12.424447197452729 $308 18.992105439018893 $186 $309 forward 7 unknown #
loop $-1 $-1 $193 $116 #
plane-surface $-1 -46.700643940549938 -4.4038041744115404 0.28041293871481088 -0.7660444514056185 0 0.64278759981090561 0.64278759981090561 0 0.7660444514056185 forward_v I I I I #
loop $-1 $-1 $310 $74 #
coedge $-1 $191 $191 $192 $311 reversed $117 $-1 #
coedge $-1 $192 $192 $191 $311 forward $119 $-1 #
coedge $-1 $193 $193 $120 $194 forward $188 $-1 #
edge $-1 $312 0 $312 6.2831853071796004 $193 $313 forward 7 unknown #
loop $-1 $-1 $200 $121 #
plane-surface $-1 -46.700643940549938 -4.4038041744115404 0.28041293871481088 -0.7660444514056185 0 0.64278759981090561 0.64278759981090561 0 0.7660444514056185 forward_v I I I I #
loop $-1 $-1 $314 $77 #
coedge $-1 $198 $198 $199 $315 reversed $122 $-1 #
coedge $-1 $199 $199 $198 $315 forward $124 $-1 #
coedge $-1 $200 $200 $125 $201 forward $195 $-1 #
edge $-1 $316 0 $316 6.2831853071796004 $200 $317 forward 7 unknown #
loop $-1 $-1 $207 $126 #
plane-surface $-1 -46.700643940549938 -4.4038041744115404 0.28041293871481088 -0.7660444514056185 0 0.64278759981090561 0.64278759981090561 0 0.7660444514056185 forward_v I I I I #
loop $-1 $-1 $318 $80 #
coedge $-1 $205 $205 $206 $319 reversed $127 $-1 #
coedge $-1 $206 $206 $205 $319 forward $129 $-1 #
coedge $-1 $207 $207 $130 $208 forward $202 $-1 #
edge $-1 $320 0 $320 6.2831853071796004 $207 $321 forward 7 unknown #
face $-1 $322 $323 $45 $-1 $324 forward single #
loop $-1 $-1 $325 $131 #
plane-surface $-1 -118.25018227600535 15.26887215127573 60.317602595054431 0 -1 0 0.7660444514056185 0 -0.64278759981090561 forward_v I I I I #
coedge $-1 $326 $327 $328 $329 reversed $132 $-1 #
coedge $-1 $214 $134 $330 $331 reversed $84 $-1 #
coedge $-1 $134 $213 $326 $332 reversed $84 $-1 #
coedge $-1 $328 $333 $134 $216 forward $323 $-1 #
edge $-1 $334 12.424447197452729 $335 18.992105439018893 $215 $336 forward 7 unknown #
loop $-1 $-1 $222 $135 #
plane-surface $-1 -46.700643940549938 11.58285360022477 0.28041293871481088 -0.7660444514056185 0 0.64278759981090561 0.64278759981090561 0 0.7660444514056185 forward_v I I I I #
loop $-1 $-1 $337 $86 #
coedge $-1 $220 $220 $221 $338 reversed $136 $-1 #
coedge $-1 $221 $221 $220 $338 forward $138 $-1 #
coedge $-1 $222 $222 $139 $223 forward $217 $-1 #
edge $-1 $339 0 $339 6.2831853071796004 $222 $340 forward 7 unknown #
loop $-1 $-1 $229 $140 #
plane-surface $-1 -46.700643940549938 11.58285360022477 0.28041293871481088 -0.7660444514056185 0 0.64278759981090561 0.64278759981090561 0 0.7660444514056185 forward_v I I I I #
loop $-1 $-1 $341 $89 #
coedge $-1 $227 $227 $228 $342 reversed $141 $-1 #
coedge $-1 $228 $228 $227 $342 forward $143 $-1 #
coedge $-1 $229 $229 $144 $230 forward $224 $-1 #
edge $-1 $343 0 $343 6.2831853071796004 $229 $344 forward 7 unknown #
loop $-1 $-1 $236 $145 #
plane-surface $-1 -46.700643940549938 11.58285360022477 0.28041293871481088 -0.7660444514056185 0 0.64278759981090561 0.64278759981090561 0 0.7660444514056185 forward_v I I I I #
loop $-1 $-1 $345 $92 #
coedge $-1 $234 $234 $235 $346 reversed $146 $-1 #
coedge $-1 $235 $235 $234 $346 forward $148 $-1 #
coedge $-1 $236 $236 $149 $237 forward $231 $-1 #
edge $-1 $347 0 $347 6.2831853071796004 $236 $348 forward 7 unknown #
face $-1 $349 $350 $49 $-1 $351 reversed single #
loop $-1 $-1 $352 $150 #
plane-surface $-1 49.005922844448982 -7.7278021299342576 136.78265032775499 0 1 0 0.71933980857756763 0 0.69465836192734942 forward_v I I I I #
coedge $-1 $353 $354 $355 $356 reversed $151 $-1 #
coedge $-1 $243 $153 $357 $358 reversed $96 $-1 #
coedge $-1 $153 $242 $353 $359 reversed $96 $-1 #
coedge $-1 $355 $360 $153 $245 forward $361 $-1 #
edge $-1 $362 -22.197682518325454 $363 -18.920093073459949 $244 $364 forward 7 unknown #
loop $-1 $-1 $251 $154 #
plane-surface $-1 -18.181341700839702 -4.6762796380232672 71.900664686365346 0.71933980857756763 0 0.69465836192734942 0.69465836192734942 0 -0.71933980857756763 forward_v I I I I #
loop $-1 $-1 $365 $98 #
coedge $-1 $249 $249 $250 $366 reversed $155 $-1 #
coedge $-1 $250 $250 $249 $366 forward $157 $-1 #
coedge $-1 $251 $251 $158 $252 forward $246 $-1 #
edge $-1 $367 0 $367 6.2831853071796004 $251 $368 forward 7 unknown #
loop $-1 $-1 $258 $159 #
plane-surface $-1 -18.181341700839702 -4.6762796380232672 71.900664686365346 0.71933980857756763 0 0.69465836192734942 0.69465836192734942 0 -0.71933980857756763 forward_v I I I I #
loop $-1 $-1 $369 $101 #
coedge $-1 $256 $256 $257 $370 reversed $160 $-1 #
coedge $-1 $257 $257 $256 $370 forward $162 $-1 #
coedge $-1 $258 $258 $163 $259 forward $253 $-1 #
edge $-1 $371 0 $371 6.2831853071796004 $258 $372 forward 7 unknown #
face $-1 $373 $374 $39 $-1 $375 reversed single #
loop $-1 $-1 $376 $164 #
plane-surface $-1 -46.700643940549945 0 0 1 0 0 0 0 -1 forward_v I I I I #
coedge $-1 $377 $271 $378 $379 forward $165 $-1 #
coedge $-1 $380 $167 $377 $381 forward $105 $-1 #
coedge $-1 $167 $380 $382 $383 forward $105 $-1 #
coedge $-1 $274 $273 $167 $267 reversed $275 $-1 #
edge $-1 $384 -21.327772337533663 $385 21.327772337533663 $266 $386 forward 7 unknown #
coedge $-1 $169 $168 $387 $388 forward $66 $-1 #
coedge $-1 $389 $390 $168 $270 reversed $374 $-1 #
edge $-1 $277 -46.700643940549945 $391 46.700643940549945 $269 $392 forward 7 unknown #
coedge $-1 $263 $393 $169 $272 reversed $165 $-1 #
edge $-1 $394 -46.700643940549945 $276 46.700643940549945 $271 $395 forward 7 unknown #
coedge $-1 $266 $170 $393 $396 forward $275 $-1 #
coedge $-1 $170 $266 $389 $397 reversed $275 $-1 #
loop $-1 $-1 $273 $373 #
vertex $-1 $171 $398 #
vertex $-1 $171 $399 #
straight-curve $-1 46.700643940549945 0 8.107443447953294 0 1 0 I I #
face $-1 $400 $401 $40 $-1 $402 reversed single #
loop $-1 $-1 $285 $172 #
plane-surface $-1 46.700643940549945 0 0 -1 0 0 0 0 1 forward_v I I I I #
coedge $-1 $403 $404 $283 $405 forward $173 $-1 #
coedge $-1 $406 $175 $282 $405 reversed $109 $-1 #
coedge $-1 $175 $406 $176 $288 reversed $109 $-1 #
coedge $-1 $178 $407 $175 $286 forward $280 $-1 #
edge $-1 $408 -5.1497618745418832 $292 -0.76560127228093799 $285 $409 forward 7 unknown #
coedge $-1 $177 $176 $410 $411 reversed $69 $-1 #
edge $-1 $292 -46.700643940549945 $412 46.700643940549945 $284 $413 forward 7 unknown #
coedge $-1 $414 $415 $177 $290 forward $401 $-1 #
edge $-1 $293 -46.700643940549945 $416 46.700643940549945 $289 $417 forward 7 unknown #
coedge $-1 $407 $178 $415 $418 forward $280 $-1 #
vertex $-1 $179 $419 #
vertex $-1 $418 $420 #
straight-curve $-1 46.700643940549945 -7.9933288873181549 -3.7232828456923488 0 -1 0 I I #
face $-1 $-1 $421 $41 $-1 $422 reversed single #
loop $-1 $-1 $186 $180 #
plane-surface $-1 0 0 8.107443447953294 0 0 1 1 0 0 forward_v I I I I #
coedge $-1 $423 $424 $425 $426 reversed $181 $-1 #
coedge $-1 $427 $183 $185 $305 forward $113 $-1 #
coedge $-1 $183 $427 $423 $428 forward $113 $-1 #
coedge $-1 $425 $186 $183 $302 forward $296 $-1 #
edge $-1 $308 -5.8879206382567304 $429 1.48411646384519 $301 $430 forward 7 unknown #
coedge $-1 $431 $432 $184 $304 forward $421 $-1 #
edge $-1 $433 -29.878388358812412 $307 -22.051357849573922 $303 $434 forward 7 unknown #
edge $-1 $308 -10.21746257005926 $433 1.107345403377511e-014 $185 $435 forward 7 unknown #
coedge $-1 $186 $425 $431 $436 forward $296 $-1 #
vertex $-1 $304 $437 #
vertex $-1 $187 $438 #
straight-curve $-1 -59.125091138002674 -8.0898227254625006 8.107443447953294 1 0 0 I I #
coedge $-1 $310 $310 $-1 $439 reversed $190 $-1 #
edge $-1 $440 0 $440 6.2831853071796004 $191 $441 forward 7 unknown #
vertex $-1 $194 $442 #
ellipse-curve $-1 -43.416814819766863 -6.6154153050421165 4.1939281933340489 -0.7660444514056185 0 0.64278759981090561 0.3213937999054528 0 0.38302222570280925 1 I I #
coedge $-1 $314 $314 $-1 $443 reversed $197 $-1 #
edge $-1 $444 0 $444 6.2831853071796004 $198 $445 forward 7 unknown #
vertex $-1 $201 $446 #
ellipse-curve $-1 -43.416814819766863 -4.4038041744115404 4.1939281933340489 -0.7660444514056185 0 0.64278759981090561 0.3213937999054528 0 0.38302222570280925 1 I I #
coedge $-1 $318 $318 $-1 $447 reversed $204 $-1 #
edge $-1 $448 0 $448 6.2831853071796004 $205 $449 forward 7 unknown #
vertex $-1 $208 $450 #
ellipse-curve $-1 -43.416814819766863 -2.1921930437809642 4.1939281933340489 -0.7660444514056185 0 0.64278759981090561 0.3213937999054528 0 0.38302222570280925 1 I I #
face $-1 $-1 $451 $45 $-1 $452 reversed single #
loop $-1 $-1 $215 $209 #
plane-surface $-1 0 0 8.107443447953294 0 0 1 1 0 0 forward_v I I I I #
coedge $-1 $453 $454 $455 $456 reversed $210 $-1 #
coedge $-1 $457 $212 $214 $332 forward $132 $-1 #
coedge $-1 $212 $457 $453 $458 forward $132 $-1 #
coedge $-1 $455 $215 $212 $329 forward $323 $-1 #
edge $-1 $335 2.1054082490614245 $459 9.477445351163345 $328 $460 forward 7 unknown #
coedge $-1 $461 $462 $213 $331 forward $451 $-1 #
edge $-1 $463 -29.878388358812412 $334 -22.051357849573922 $330 $464 forward 7 unknown #
edge $-1 $335 -10.21746257005926 $463 1.107345403377511e-014 $214 $465 forward 7 unknown #
coedge $-1 $215 $455 $461 $466 forward $323 $-1 #
vertex $-1 $216 $467 #
vertex $-1 $216 $468 #
straight-curve $-1 -59.125091138002674 7.8968350491738093 8.107443447953294 1 0 0 I I #
coedge $-1 $337 $337 $-1 $469 reversed $219 $-1 #
edge $-1 $470 0 $470 6.2831853071796004 $220 $471 forward 7 unknown #
vertex $-1 $223 $472 #
ellipse-curve $-1 -43.416814819766863 9.3712424695941898 4.1939281933340489 -0.7660444514056185 0 0.64278759981090561 0.3213937999054528 0 0.38302222570280925 1 I I #
coedge $-1 $341 $341 $-1 $473 reversed $226 $-1 #
edge $-1 $474 0 $474 6.2831853071796004 $227 $475 forward 7 unknown #
vertex $-1 $230 $476 #
ellipse-curve $-1 -43.416814819766863 11.58285360022477 4.1939281933340489 -0.7660444514056185 0 0.64278759981090561 0.3213937999054528 0 0.38302222570280925 1 I I #
coedge $-1 $345 $345 $-1 $477 reversed $233 $-1 #
edge $-1 $478 0 $478 6.2831853071796004 $234 $479 forward 7 unknown #
vertex $-1 $237 $480 #
ellipse-curve $-1 -43.416814819766863 13.794464730855342 4.1939281933340489 -0.7660444514056185 0 0.64278759981090561 0.3213937999054528 0 0.38302222570280925 1 I I #
face $-1 $-1 $361 $49 $-1 $481 forward single #
loop $-1 $-1 $482 $238 #
plane-surface $-1 46.700643940549945 0 0 -1 0 0 0 0 1 forward_v I I I I #
coedge $-1 $483 $484 $485 $486 reversed $239 $-1 #
coedge $-1 $487 $241 $243 $359 forward $151 $-1 #
coedge $-1 $241 $487 $483 $488 forward $151 $-1 #
coedge $-1 $485 $244 $241 $356 forward $361 $-1 #
edge $-1 $363 -0.71338267289935686 $489 5.389662310922624 $355 $490 forward 7 unknown #
coedge $-1 $491 $492 $242 $358 forward $350 $-1 #
edge $-1 $493 -63.677925022800835 $362 -60.283881715924203 $357 $494 forward 7 unknown #
edge $-1 $363 88.683012503586639 $493 93.401287881099904 $243 $495 forward 7 unknown #
coedge $-1 $244 $485 $491 $496 forward $361 $-1 #
loop $-1 $-1 $485 $349 #
vertex $-1 $358 $497 #
vertex $-1 $245 $498 #
straight-curve $-1 24.502961422224491 -1.6247571461122767 8.1074434479533011 -1 0 0 I I #
coedge $-1 $365 $365 $-1 $499 reversed $248 $-1 #
edge $-1 $500 0 $500 6.2831853071796004 $249 $501 forward 7 unknown #
vertex $-1 $252 $502 #
ellipse-curve $-1 45.061849218117196 -5.9840749916994049 6.410421794514968 0.71933980857756763 0 0.69465836192734942 0.34732918096367471 0 -0.35966990428878381 1 I I #
coedge $-1 $369 $369 $-1 $503 reversed $255 $-1 #
edge $-1 $504 0 $504 6.2831853071796004 $256 $505 forward 7 unknown #
vertex $-1 $259 $506 #
ellipse-curve $-1 45.061849218117196 -3.3684842843471259 6.410421794514968 0.71933980857756763 0 0.69465836192734942 0.34732918096367471 0 -0.35966990428878381 1 I I #
face $-1 $-1 $275 $39 $-1 $507 reversed single #
loop $-1 $-1 $389 $260 #
plane-surface $-1 0 21.327772337533663 0 0 -1 0 0 0 -1 forward_v I I I I #
coedge $-1 $508 $387 $390 $509 forward $261 $-1 #
coedge $-1 $393 $263 $264 $381 reversed $165 $-1 #
coedge $-1 $387 $508 $263 $379 reversed $261 $-1 #
edge $-1 $394 -8.107443447953294 $510 8.107443447953294 $378 $511 forward 7 unknown #
coedge $-1 $265 $264 $508 $512 forward $105 $-1 #
edge $-1 $385 -46.700643940549945 $510 46.700643940549945 $377 $513 forward 7 unknown #
coedge $-1 $390 $389 $265 $383 reversed $374 $-1 #
edge $-1 $514 -46.700643940549945 $384 46.700643940549945 $382 $515 forward 7 unknown #
vertex $-1 $267 $516 #
vertex $-1 $396 $517 #
straight-curve $-1 46.700643940549945 0 -8.107443447953294 0 -1 0 I I #
coedge $-1 $376 $378 $268 $388 reversed $261 $-1 #
edge $-1 $391 -21.327772337533663 $394 21.327772337533663 $387 $518 forward 7 unknown #
coedge $-1 $382 $269 $274 $397 forward $374 $-1 #
coedge $-1 $269 $382 $376 $509 reversed $374 $-1 #
vertex $-1 $270 $519 #
straight-curve $-1 0 21.327772337533663 8.107443447953294 -1 0 0 I I #
coedge $-1 $271 $377 $273 $396 reversed $165 $-1 #
vertex $-1 $388 $520 #
straight-curve $-1 0 -21.327772337533663 8.107443447953294 1 0 0 I I #
edge $-1 $276 -8.107443447953294 $385 8.107443447953294 $273 $521 forward 7 unknown #
edge $-1 $277 -8.107443447953294 $384 8.107443447953294 $274 $522 forward 7 unknown #
point $-1 46.700643940549945 -21.327772337533663 8.107443447953294 #
point $-1 46.700643940549945 21.327772337533663 8.107443447953294 #
face $-1 $-1 $523 $40 $-1 $524 reversed single #
loop $-1 $-1 $289 $279 #
plane-surface $-1 0 -21.327772337533663 0 0 1 0 0 0 1 forward_v I I I I #
coedge $-1 $525 $282 $407 $526 forward $173 $-1 #
coedge $-1 $282 $525 $527 $528 forward $173 $-1 #
edge $-1 $529 -46.700643940549945 $408 46.700643940549945 $282 $530 forward 7 unknown #
coedge $-1 $284 $283 $531 $532 reversed $109 $-1 #
coedge $-1 $285 $291 $403 $526 reversed $280 $-1 #
vertex $-1 $526 $533 #
straight-curve $-1 46.700643940549945 -10.645543211738957 -2.9576815734114108 0 0 1 I I #
coedge $-1 $531 $534 $287 $411 forward $523 $-1 #
edge $-1 $416 -13.334443450215508 $412 -2.6522143244208021 $410 $535 forward 7 unknown #
vertex $-1 $411 $536 #
straight-curve $-1 0 -10.645543211738957 -3.7232828456923488 -1 0 0 I I #
coedge $-1 $537 $289 $534 $538 forward $401 $-1 #
coedge $-1 $289 $537 $291 $418 reversed $401 $-1 #
vertex $-1 $538 $539 #
straight-curve $-1 0 -21.327772337533663 -3.7232828456923488 -1 0 0 I I #
edge $-1 $293 3.7232828456923488 $540 8.107443447953294 $291 $541 forward 7 unknown #
point $-1 46.700643940549945 -10.645543211738957 -3.7232828456923488 #
point $-1 46.700643940549945 -21.327772337533663 -3.7232828456923488 #
loop $-1 $-1 $303 $295 #
plane-surface $-1 -46.700643940549945 0 0 1 0 0 0 0 -1 forward_v I I I I #
coedge $-1 $424 $298 $300 $428 reversed $181 $-1 #
coedge $-1 $298 $423 $542 $543 reversed $181 $-1 #
coedge $-1 $306 $301 $298 $426 forward $296 $-1 #
edge $-1 $429 -18.992105439018893 $544 -12.424447197452729 $425 $545 forward 7 unknown #
coedge $-1 $300 $299 $432 $546 reversed $113 $-1 #
edge $-1 $547 -1.107345403377511e-014 $429 10.21746257005926 $423 $548 forward 7 unknown #
vertex $-1 $302 $549 #
straight-curve $-1 -40.132985698983781 -2.2019020872057702 8.107443447953294 0 1 0 I I #
coedge $-1 $542 $303 $306 $436 reversed $421 $-1 #
coedge $-1 $303 $542 $427 $546 forward $421 $-1 #
vertex $-1 $304 $550 #
straight-curve $-1 -46.700643940549945 -8.0898227254625006 30.158801297527216 0 0 1 I I #
straight-curve $-1 -46.700643940549938 -8.0898227254625006 0.28041293871481088 -0.64278759981090561 0 -0.7660444514056185 I I #
edge $-1 $544 0.71778562336058016 $307 8.0898227254625006 $431 $551 forward 7 unknown #
point $-1 -46.700643940549945 -8.0898227254625006 8.107443447953294 #
point $-1 -40.132985698983781 -8.0898227254625006 8.107443447953294 #
edge $-1 $552 1 $552 0 $310 $-1 forward 7 unknown #
vertex $-1 $311 $553 #
ellipse-curve $-1 -42.650770368361243 -6.6154153050421165 3.5511405935231428 -0.7660444514056185 0 0.64278759981090561 0.3213937999054528 0 0.38302222570280925 1 I I #
point $-1 -43.095421019861412 -6.6154153050421165 4.5769504190368577 #
edge $-1 $554 1 $554 0 $314 $-1 forward 7 unknown #
vertex $-1 $315 $555 #
ellipse-curve $-1 -42.650770368361243 -4.4038041744115404 3.5511405935231428 -0.7660444514056185 0 0.64278759981090561 0.3213937999054528 0 0.38302222570280925 1 I I #
point $-1 -43.095421019861412 -4.4038041744115404 4.5769504190368577 #
edge $-1 $556 1 $556 0 $318 $-1 forward 7 unknown #
vertex $-1 $319 $557 #
ellipse-curve $-1 -42.650770368361243 -2.1921930437809642 3.5511405935231428 -0.7660444514056185 0 0.64278759981090561 0.3213937999054528 0 0.38302222570280925 1 I I #
point $-1 -43.095421019861412 -2.1921930437809642 4.5769504190368577 #
loop $-1 $-1 $330 $322 #
plane-surface $-1 -46.700643940549945 0 0 1 0 0 0 0 -1 forward_v I I I I #
coedge $-1 $454 $325 $327 $458 reversed $210 $-1 #
coedge $-1 $325 $453 $558 $559 reversed $210 $-1 #
coedge $-1 $333 $328 $325 $456 forward $323 $-1 #
edge $-1 $459 -18.992105439018893 $560 -12.424447197452729 $455 $561 forward 7 unknown #
coedge $-1 $327 $326 $462 $562 reversed $132 $-1 #
edge $-1 $563 -1.107345403377511e-014 $459 10.21746257005926 $453 $564 forward 7 unknown #
vertex $-1 $329 $565 #
straight-curve $-1 -40.132985698983781 5.7914268001123848 8.107443447953294 0 1 0 I I #
coedge $-1 $558 $330 $333 $466 reversed $451 $-1 #
coedge $-1 $330 $558 $457 $562 forward $451 $-1 #
vertex $-1 $331 $566 #
straight-curve $-1 -46.700643940549945 7.8968350491738093 30.158801297527216 0 0 1 I I #
straight-curve $-1 -46.700643940549938 7.8968350491738093 0.28041293871481088 -0.64278759981090561 0 -0.7660444514056185 I I #
edge $-1 $560 -15.26887215127573 $334 -7.8968350491738093 $461 $567 forward 7 unknown #
point $-1 -46.700643940549945 7.8968350491738093 8.107443447953294 #
point $-1 -40.132985698983781 7.8968350491738093 8.107443447953294 #
edge $-1 $568 1 $568 0 $337 $-1 forward 7 unknown #
vertex $-1 $338 $569 #
ellipse-curve $-1 -42.650770368361243 9.3712424695941898 3.5511405935231428 -0.7660444514056185 0 0.64278759981090561 0.3213937999054528 0 0.38302222570280925 1 I I #
point $-1 -43.095421019861412 9.3712424695941898 4.5769504190368577 #
edge $-1 $570 1 $570 0 $341 $-1 forward 7 unknown #
vertex $-1 $342 $571 #
ellipse-curve $-1 -42.650770368361243 11.58285360022477 3.5511405935231428 -0.7660444514056185 0 0.64278759981090561 0.3213937999054528 0 0.38302222570280925 1 I I #
point $-1 -43.095421019861412 11.58285360022477 4.5769504190368577 #
edge $-1 $572 1 $572 0 $345 $-1 forward 7 unknown #
vertex $-1 $346 $573 #
ellipse-curve $-1 -42.650770368361243 13.794464730855342 3.5511405935231428 -0.7660444514056185 0 0.64278759981090561 0.3213937999054528 0 0.38302222570280925 1 I I #
point $-1 -43.095421019861412 13.794464730855342 4.5769504190368577 #
plane-surface $-1 0 0 8.107443447953294 0 0 1 1 0 0 forward_v I I I I #
coedge $-1 $492 $491 $484 $574 forward $350 $-1 #
coedge $-1 $484 $352 $354 $488 reversed $239 $-1 #
coedge $-1 $352 $483 $482 $574 reversed $239 $-1 #
coedge $-1 $360 $355 $352 $486 forward $361 $-1 #
edge $-1 $489 18.920093073459949 $575 22.197682518325454 $485 $576 forward 7 unknown #
coedge $-1 $354 $353 $492 $577 reversed $151 $-1 #
edge $-1 $578 -93.401287881099904 $489 -88.683012503586639 $483 $579 forward 7 unknown #
vertex $-1 $356 $580 #
straight-curve $-1 43.42305449568444 -2.3381398190116336 8.1074434479533011 0 -1 0 I I #
coedge $-1 $482 $357 $360 $496 reversed $350 $-1 #
coedge $-1 $357 $482 $487 $577 forward $350 $-1 #
vertex $-1 $358 $581 #
straight-curve $-1 46.700643940549945 -1.6247571461122767 68.391325163877497 0 0 1 I I #
straight-curve $-1 -18.181341700839702 -1.6247571461122767 71.900664686365346 0.69465836192734942 0 -0.71933980857756763 I I #
edge $-1 $575 -7.7278021299342576 $362 -1.6247571461122767 $491 $582 forward 7 unknown #
point $-1 46.700643940549945 -1.6247571461122767 8.107443447953294 #
point $-1 43.42305449568444 -1.6247571461122767 8.107443447953294 #
edge $-1 $583 1 $583 0 $365 $-1 forward 7 unknown #
vertex $-1 $366 $584 #
ellipse-curve $-1 44.03689920795852 -5.9840749916994049 5.4206390984590653 0.71933980857756763 0 0.69465836192734942 0.34732918096367471 0 -0.35966990428878381 1 I I #
point $-1 45.409178399080879 -5.9840749916994049 6.0507518902261941 #
edge $-1 $585 1 $585 0 $369 $-1 forward 7 unknown #
vertex $-1 $370 $586 #
ellipse-curve $-1 44.03689920795852 -3.3684842843471259 5.4206390984590653 0.71933980857756763 0 0.69465836192734942 0.34732918096367471 0 -0.35966990428878381 1 I I #
point $-1 45.409178399080879 -3.3684842843471259 6.0507518902261941 #
plane-surface $-1 46.700643940549945 0 0 -1 0 0 0 0 1 forward_v I I I I #
coedge $-1 $378 $376 $380 $512 reversed $261 $-1 #
edge $-1 $391 -8.107443447953294 $514 8.107443447953294 $390 $587 forward 7 unknown #
vertex $-1 $512 $588 #
straight-curve $-1 -46.700643940549945 -21.327772337533663 0 0 0 -1 I I #
edge $-1 $510 -21.327772337533663 $514 21.327772337533663 $508 $589 forward 7 unknown #
straight-curve $-1 0 -21.327772337533663 -8.107443447953294 -1 0 0 I I #
vertex $-1 $383 $590 #
straight-curve $-1 0 21.327772337533663 -8.107443447953294 1 0 0 I I #
point $-1 46.700643940549945 21.327772337533663 -8.107443447953294 #
point $-1 46.700643940549945 -21.327772337533663 -8.107443447953294 #
straight-curve $-1 -46.700643940549945 0 8.107443447953294 0 -1 0 I I #
point $-1 -46.700643940549945 21.327772337533663 8.107443447953294 #
point $-1 -46.700643940549945 -21.327772337533663 8.107443447953294 #
straight-curve $-1 46.700643940549945 -21.327772337533663 0 0 0 -1 I I #
straight-curve $-1 46.700643940549945 21.327772337533663 0 0 0 -1 I I #
loop $-1 $-1 $531 $400 #
plane-surface $-1 -46.700643940549945 0 0 1 0 0 0 0 -1 forward_v I I I I #
coedge $-1 $404 $403 $537 $591 forward $173 $-1 #
edge $-1 $408 10.645543211738957 $540 21.327772337533663 $407 $592 forward 7 unknown #
coedge $-1 $534 $531 $404 $528 reversed $523 $-1 #
edge $-1 $593 -21.327772337533663 $529 -10.645543211738957 $527 $594 forward 7 unknown #
vertex $-1 $532 $595 #
straight-curve $-1 0 -10.645543211738957 -8.107443447953294 1 0 0 I I #
coedge $-1 $527 $410 $406 $532 forward $523 $-1 #
edge $-1 $412 0.76560127228093799 $529 5.1497618745418832 $531 $596 forward 7 unknown #
point $-1 46.700643940549945 -10.645543211738957 -8.107443447953294 #
coedge $-1 $410 $527 $414 $538 reversed $523 $-1 #
straight-curve $-1 -46.700643940549945 -7.9933288873181549 -3.7232828456923488 0 1 0 I I #
point $-1 -46.700643940549945 -10.645543211738957 -3.7232828456923488 #
coedge $-1 $415 $414 $525 $591 reversed $401 $-1 #
edge $-1 $416 3.7232828456923488 $593 8.107443447953294 $534 $597 forward 7 unknown #
point $-1 -46.700643940549945 -21.327772337533663 -3.7232828456923488 #
vertex $-1 $418 $598 #
straight-curve $-1 46.700643940549945 -21.327772337533663 0 0 0 -1 I I #
coedge $-1 $432 $431 $424 $543 forward $421 $-1 #
edge $-1 $544 22.051357849573922 $547 29.878388358812412 $542 $599 forward 7 unknown #
vertex $-1 $436 $600 #
straight-curve $-1 -59.125091138002674 -0.71778562336058016 8.107443447953294 -1 0 0 I I #
edge $-1 $547 -1.48411646384519 $433 5.8879206382567304 $432 $601 forward 7 unknown #
vertex $-1 $546 $602 #
straight-curve $-1 -46.700643940549938 -0.71778562336058016 0.28041293871481088 0.64278759981090561 0 0.7660444514056185 I I #
point $-1 -40.132985698983781 -0.71778562336058016 8.107443447953294 #
point $-1 -46.700643940549945 -8.0898227254625006 0.28041293871480238 #
straight-curve $-1 -46.700643940549945 0 8.107443447953294 0 -1 0 I I #
vertex $-1 $439 $603 #
point $-1 -42.329376568455793 -6.6154153050421165 3.9341628192259521 #
vertex $-1 $443 $604 #
point $-1 -42.329376568455793 -4.4038041744115404 3.9341628192259521 #
vertex $-1 $447 $605 #
point $-1 -42.329376568455793 -2.1921930437809642 3.9341628192259521 #
coedge $-1 $462 $461 $454 $559 forward $451 $-1 #
edge $-1 $560 22.051357849573922 $563 29.878388358812412 $558 $606 forward 7 unknown #
vertex $-1 $466 $607 #
straight-curve $-1 -59.125091138002674 15.26887215127573 8.107443447953294 -1 0 0 I I #
edge $-1 $563 -9.477445351163345 $463 -2.1054082490614245 $462 $608 forward 7 unknown #
vertex $-1 $562 $609 #
straight-curve $-1 -46.700643940549938 15.26887215127573 0.28041293871481088 0.64278759981090561 0 0.7660444514056185 I I #
point $-1 -40.132985698983781 15.26887215127573 8.107443447953294 #
point $-1 -46.700643940549945 7.8968350491738093 0.28041293871480238 #
straight-curve $-1 -46.700643940549945 0 8.107443447953294 0 -1 0 I I #
vertex $-1 $469 $610 #
point $-1 -42.329376568455793 9.3712424695941898 3.9341628192259521 #
vertex $-1 $473 $611 #
point $-1 -42.329376568455793 11.58285360022477 3.9341628192259521 #
vertex $-1 $477 $612 #
point $-1 -42.329376568455793 13.794464730855342 3.9341628192259521 #
edge $-1 $575 60.283881715924203 $578 63.677925022800835 $482 $613 forward 7 unknown #
vertex $-1 $496 $614 #
straight-curve $-1 24.502961422224491 -7.7278021299342576 8.1074434479533011 1 0 0 I I #
edge $-1 $578 -5.389662310922624 $493 0.71338267289935686 $492 $615 forward 7 unknown #
vertex $-1 $577 $616 #
straight-curve $-1 -18.181341700839702 -7.7278021299342576 71.900664686365346 -0.69465836192734942 0 0.71933980857756763 I I #
point $-1 43.42305449568444 -7.7278021299342576 8.107443447953294 #
point $-1 46.700643940549945 -1.6247571461122767 4.7134001410766615 #
straight-curve $-1 46.700643940549945 0 8.107443447953294 0 1 0 I I #
vertex $-1 $499 $617 #
point $-1 44.384228388922196 -5.9840749916994049 5.0609691941702817 #
vertex $-1 $503 $618 #
point $-1 44.384228388922196 -3.3684842843471259 5.0609691941702817 #
straight-curve $-1 -46.700643940549945 21.327772337533663 0 0 0 -1 I I #
point $-1 -46.700643940549945 -21.327772337533663 -8.107443447953294 #
straight-curve $-1 -46.700643940549945 0 -8.107443447953294 0 1 0 I I #
point $-1 -46.700643940549945 21.327772337533663 -8.107443447953294 #
edge $-1 $540 -46.700643940549945 $593 46.700643940549945 $537 $619 forward 7 unknown #
straight-curve $-1 46.700643940549945 0 -8.107443447953294 0 -1 0 I I #
vertex $-1 $528 $620 #
straight-curve $-1 -46.700643940549945 0 -8.107443447953294 0 1 0 I I #
point $-1 -46.700643940549945 -10.645543211738957 -8.107443447953294 #
straight-curve $-1 -46.700643940549945 -10.645543211738957 -2.9576815734114108 0 0 -1 I I #
straight-curve $-1 -46.700643940549945 -21.327772337533663 0 0 0 -1 I I #
point $-1 46.700643940549945 -21.327772337533663 -8.107443447953294 #
straight-curve $-1 -46.700643940549945 -0.71778562336058016 30.158801297527216 0 0 -1 I I #
point $-1 -46.700643940549945 -0.71778562336058016 8.107443447953294 #
straight-curve $-1 -46.700643940549945 -2.2019020872057702 0.28041293871479467 0 -1 0 I I #
point $-1 -46.700643940549945 -0.71778562336058016 0.28041293871480238 #
point $-1 -42.267748142658441 -6.6154153050421165 3.2297467936176902 #
point $-1 -42.267748142658441 -4.4038041744115404 3.2297467936176902 #
point $-1 -42.267748142658441 -2.1921930437809642 3.2297467936176902 #
straight-curve $-1 -46.700643940549945 15.26887215127573 30.158801297527216 0 0 -1 I I #
point $-1 -46.700643940549945 15.26887215127573 8.107443447953294 #
straight-curve $-1 -46.700643940549945 5.7914268001123848 0.28041293871479467 0 -1 0 I I #
point $-1 -46.700643940549945 15.26887215127573 0.28041293871480238 #
point $-1 -42.267748142658441 9.3712424695941898 3.2297467936176902 #
point $-1 -42.267748142658441 11.58285360022477 3.2297467936176902 #
point $-1 -42.267748142658441 13.794464730855342 3.2297467936176902 #
straight-curve $-1 46.700643940549945 -7.7278021299342576 68.391325163877497 0 0 -1 I I #
point $-1 46.700643940549945 -7.7278021299342576 8.107443447953294 #
straight-curve $-1 46.700643940549945 -2.3381398190116336 4.7134001410766473 0 1 0 I I #
point $-1 46.700643940549945 -7.7278021299342576 4.7134001410766615 #
point $-1 43.677229303669741 -5.9840749916994049 5.0733099174953908 #
point $-1 43.677229303669741 -3.3684842843471259 5.0733099174953908 #
straight-curve $-1 0 -21.327772337533663 -8.107443447953294 -1 0 0 I I #
point $-1 -46.700643940549945 -21.327772337533663 -8.107443447953294 #
End-of-ACIS-data 