500 0 11 0           
7 Unknown 11 ACIS 5.0 NT 24 Thu Mar 25 16:48:12 1999 
-1 9.9999999999999995e-007 1e-010 
body $-1 $11 $-1 $12 #
body $-1 $13 $-1 $14 #
body $-1 $15 $-1 $16 #
body $-1 $17 $-1 $18 #
body $-1 $19 $-1 $20 #
body $-1 $21 $-1 $22 #
body $-1 $23 $-1 $24 #
body $-1 $25 $-1 $26 #
body $-1 $27 $-1 $28 #
body $-1 $29 $-1 $30 #
body $-1 $31 $-1 $32 #
lump $-1 $-1 $33 $0 #
transform $-1 1 0 0 0 1 0 0 0 1 67.771843623157451 27.35507146139464 7.0062777102758389 1 rotate no_reflect no_shear #
lump $-1 $-1 $34 $1 #
transform $-1 1 0 0 0 1 0 0 0 1 67.771843623157451 27.35507146139464 7.0062777102758389 1 rotate no_reflect no_shear #
lump $-1 $-1 $35 $2 #
transform $-1 1 0 0 0 1 0 0 0 1 67.771843623157451 27.35507146139464 7.0062777102758389 1 rotate no_reflect no_shear #
lump $-1 $-1 $36 $3 #
transform $-1 1 0 0 0 1 0 0 0 1 67.771843623157451 27.35507146139464 7.0062777102758389 1 rotate no_reflect no_shear #
lump $-1 $-1 $37 $4 #
transform $-1 1 0 0 0 1 0 0 0 1 67.771843623157451 27.35507146139464 7.0062777102758389 1 rotate no_reflect no_shear #
lump $-1 $-1 $38 $5 #
transform $-1 1 0 0 0 1 0 0 0 1 67.771843623157451 27.35507146139464 7.0062777102758389 1 rotate no_reflect no_shear #
lump $-1 $-1 $39 $6 #
transform $-1 1 0 0 0 1 0 0 0 1 67.771843623157451 27.35507146139464 7.0062777102758389 1 rotate no_reflect no_shear #
lump $-1 $-1 $40 $7 #
transform $-1 1 0 0 0 1 0 0 0 1 67.771843623157451 27.35507146139464 7.0062777102758389 1 rotate no_reflect no_shear #
lump $-1 $-1 $41 $8 #
transform $-1 1 0 0 0 1 0 0 0 1 67.771843623157451 27.35507146139464 7.0062777102758389 1 rotate no_reflect no_shear #
lump $-1 $-1 $42 $9 #
transform $-1 1 0 0 0 1 0 0 0 1 67.771843623157451 27.35507146139464 7.0062777102758389 1 rotate no_reflect no_shear #
lump $-1 $-1 $43 $10 #
transform $-1 1 0 0 0 1 0 0 0 1 67.771843623157451 27.35507146139464 7.0062777102758389 1 rotate no_reflect no_shear #
shell $-1 $-1 $-1 $44 $-1 $11 #
shell $-1 $-1 $-1 $45 $-1 $13 #
shell $-1 $-1 $-1 $46 $-1 $15 #
shell $-1 $-1 $-1 $47 $-1 $17 #
shell $-1 $-1 $-1 $48 $-1 $19 #
shell $-1 $-1 $-1 $49 $-1 $21 #
shell $-1 $-1 $-1 $50 $-1 $23 #
shell $-1 $-1 $-1 $51 $-1 $25 #
shell $-1 $-1 $-1 $52 $-1 $27 #
shell $-1 $-1 $-1 $53 $-1 $29 #
shell $-1 $-1 $-1 $54 $-1 $31 #
face $-1 $55 $56 $33 $-1 $57 forward single #
face $-1 $58 $59 $34 $-1 $60 reversed single #
face $-1 $61 $62 $35 $-1 $63 reversed single #
face $-1 $64 $65 $36 $-1 $66 forward single #
face $-1 $67 $68 $37 $-1 $69 forward single #
face $-1 $70 $71 $38 $-1 $72 reversed single #
face $-1 $73 $74 $39 $-1 $75 forward single #
face $-1 $76 $77 $40 $-1 $78 forward single #
face $-1 $79 $80 $41 $-1 $81 reversed single #
face $-1 $82 $83 $42 $-1 $84 forward single #
face $-1 $85 $86 $43 $-1 $87 forward single #
face $-1 $88 $89 $33 $-1 $90 reversed single #
loop $-1 $-1 $91 $44 #
plane-surface $-1 0 0 7.0062777102758389 0 0 1 1 0 0 forward_v I I I I #
face $-1 $92 $93 $34 $-1 $94 reversed single #
loop $-1 $-1 $95 $45 #
plane-surface $-1 0 -23.021709972793726 4.0062777102758389 0 0 1 1 0 0 forward_v I I I I #
face $-1 $96 $97 $35 $-1 $98 reversed single #
loop $-1 $-1 $99 $46 #
plane-surface $-1 -43.25904417354522 23.733572629446275 78.800185236863413 0.57357644374324357 0 0.81915203911291934 0.81915203911291934 0 -0.57357644374324357 forward_v I I I I #
face $-1 $100 $101 $36 $-1 $102 forward single #
loop $-1 $103 $104 $47 #
cone-surface $-1 63.235773483441506 22.181501701468402 3.6213224027193154 -0.57357644374324357 0 -0.81915203911291934 0.20478800977822983 0 -0.14339411093581089 1 I I 0 1 0.25 forward I I I I #
face $-1 $105 $106 $37 $-1 $107 forward single #
loop $-1 $108 $109 $48 #
cone-surface $-1 63.235773483441506 25.285643557424148 3.6213224027193154 -0.57357644374324357 0 -0.81915203911291934 0.20478800977822983 0 -0.14339411093581089 1 I I 0 1 0.25 forward I I I I #
face $-1 $110 $111 $38 $-1 $112 reversed single #
loop $-1 $-1 $113 $49 #
plane-surface $-1 -67.771843623157437 -12.958484819173108 3.497530447711128 -0.80901700255871778 0 0.5877852410284794 0.5877852410284794 0 0.80901700255871778 forward_v I I I I #
face $-1 $114 $115 $39 $-1 $116 forward single #
loop $-1 $117 $118 $50 #
cone-surface $-1 -65.969165553292129 -15.414140675610124 4.8682525425029208 0.80901700255871778 0 -0.5877852410284794 0.2938926205142397 0 0.40450850127935889 1 I I 0 1 0.5 forward I I I I #
face $-1 $119 $120 $40 $-1 $121 forward single #
loop $-1 $122 $123 $51 #
cone-surface $-1 -65.969165553292129 -10.502828962736093 4.8682525425029208 0.80901700255871778 0 -0.5877852410284794 0.2938926205142397 0 0.40450850127935889 1 I I 0 1 0.5 forward I I I I #
face $-1 $124 $125 $41 $-1 $126 reversed single #
loop $-1 $-1 $127 $52 #
plane-surface $-1 -177.42899119492742 4.3333614886009117 83.168109325675161 0 1 0 -0.80901700255871778 0 0.5877852410284794 forward_v I I I I #
face $-1 $128 $129 $42 $-1 $130 forward single #
loop $-1 $131 $132 $53 #
cone-surface $-1 -65.969165553292129 7.6075692971836055 4.8682525425029208 0.80901700255871778 0 -0.5877852410284794 0.2938926205142397 0 0.40450850127935889 1 I I 0 1 0.5 forward I I I I #
face $-1 $133 $134 $43 $-1 $135 forward single #
loop $-1 $136 $137 $54 #
cone-surface $-1 -65.969165553292129 12.51888101005763 4.8682525425029208 0.80901700255871778 0 -0.5877852410284794 0.2938926205142397 0 0.40450850127935889 1 I I 0 1 0.5 forward I I I I #
face $-1 $138 $139 $33 $-1 $140 reversed single #
loop $-1 $-1 $141 $55 #
plane-surface $-1 0 0 -7.0062777102758389 0 0 1 1 0 0 forward_v I I I I #
coedge $-1 $142 $143 $144 $145 forward $56 $-1 #
face $-1 $146 $147 $34 $-1 $148 reversed single #
loop $-1 $-1 $149 $58 #
plane-surface $-1 0 -18.688348484192812 5.5062777102758389 0 -1 0 0 0 -1 forward_v I I I I #
coedge $-1 $150 $151 $152 $153 reversed $59 $-1 #
face $-1 $154 $155 $35 $-1 $156 reversed single #
loop $-1 $-1 $157 $61 #
plane-surface $-1 34.485621929042523 20.11207379749791 189.83107303356607 0 1 0 0.57357644374324357 0 0.81915203911291934 forward_v I I I I #
coedge $-1 $158 $159 $160 $161 reversed $62 $-1 #
face $-1 $-1 $162 $36 $-1 $163 forward single #
loop $-1 $164 $165 $64 #
cone-surface $-1 62.87728820610198 22.181501701468402 3.1093523782737407 -0.57357644374324357 0 -0.81915203911291934 0.10239400488911492 0 -0.071697055467905446 1 I I -0.70710678118654746 0.70710678118654746 0.125 forward I I I I #
loop $-1 $-1 $166 $47 #
coedge $-1 $104 $104 $167 $168 reversed $65 $-1 #
face $-1 $-1 $169 $37 $-1 $170 forward single #
loop $-1 $171 $172 $67 #
cone-surface $-1 62.87728820610198 25.285643557424148 3.1093523782737407 -0.57357644374324357 0 -0.81915203911291934 0.10239400488911492 0 -0.071697055467905446 1 I I -0.70710678118654746 0.70710678118654746 0.125 forward I I I I #
loop $-1 $-1 $173 $48 #
coedge $-1 $109 $109 $174 $175 reversed $68 $-1 #
face $-1 $176 $177 $38 $-1 $178 forward single #
loop $-1 $-1 $179 $70 #
plane-surface $-1 -177.42899119492742 -7.2286211541534025 83.168109325675161 0 -1 0 0.80901700255871778 0 -0.5877852410284794 forward_v I I I I #
coedge $-1 $180 $181 $182 $183 reversed $71 $-1 #
face $-1 $-1 $184 $39 $-1 $185 forward single #
loop $-1 $186 $187 $73 #
cone-surface $-1 -65.238860248604965 -15.414140675610124 4.3376546957552353 0.80901700255871778 0 -0.5877852410284794 0.14694631025711985 0 0.20225425063967944 1 I I -0.70710678118654746 0.70710678118654746 0.25 forward I I I I #
loop $-1 $-1 $188 $50 #
coedge $-1 $118 $118 $189 $190 reversed $74 $-1 #
face $-1 $-1 $191 $40 $-1 $192 forward single #
loop $-1 $193 $194 $76 #
cone-surface $-1 -65.238860248604965 -10.502828962736093 4.3376546957552353 0.80901700255871778 0 -0.5877852410284794 0.14694631025711985 0 0.20225425063967944 1 I I -0.70710678118654746 0.70710678118654746 0.25 forward I I I I #
loop $-1 $-1 $195 $51 #
coedge $-1 $123 $123 $196 $197 reversed $77 $-1 #
face $-1 $198 $199 $41 $-1 $200 reversed single #
loop $-1 $-1 $201 $79 #
plane-surface $-1 -67.771843623157437 10.063225153620618 3.497530447711128 -0.80901700255871778 0 0.5877852410284794 0.5877852410284794 0 0.80901700255871778 forward_v I I I I #
coedge $-1 $202 $203 $204 $205 reversed $80 $-1 #
face $-1 $-1 $206 $42 $-1 $207 forward single #
loop $-1 $208 $209 $82 #
cone-surface $-1 -65.238860248604965 7.6075692971836055 4.3376546957552353 0.80901700255871778 0 -0.5877852410284794 0.14694631025711985 0 0.20225425063967944 1 I I -0.70710678118654746 0.70710678118654746 0.25 forward I I I I #
loop $-1 $-1 $210 $53 #
coedge $-1 $132 $132 $211 $212 reversed $83 $-1 #
face $-1 $-1 $213 $43 $-1 $214 forward single #
loop $-1 $215 $216 $85 #
cone-surface $-1 -65.238860248604965 12.51888101005763 4.3376546957552353 0.80901700255871778 0 -0.5877852410284794 0.14694631025711985 0 0.20225425063967944 1 I I -0.70710678118654746 0.70710678118654746 0.25 forward I I I I #
loop $-1 $-1 $217 $54 #
coedge $-1 $137 $137 $218 $219 reversed $86 $-1 #
face $-1 $220 $221 $33 $-1 $222 reversed single #
loop $-1 $-1 $223 $88 #
plane-surface $-1 0 -27.35507146139464 0 0 1 0 0 0 1 forward_v I I I I #
coedge $-1 $224 $225 $226 $227 forward $89 $-1 #
coedge $-1 $228 $91 $229 $230 forward $56 $-1 #
coedge $-1 $91 $228 $231 $232 forward $56 $-1 #
coedge $-1 $233 $234 $91 $145 reversed $235 $-1 #
edge $-1 $236 -27.35507146139464 $237 27.35507146139464 $144 $238 forward 7 unknown #
face $-1 $239 $240 $34 $-1 $241 reversed single #
loop $-1 $-1 $242 $92 #
plane-surface $-1 -67.771843623157451 0 0 1 0 0 0 0 -1 forward_v I I I I #
coedge $-1 $243 $244 $245 $246 reversed $93 $-1 #
coedge $-1 $247 $95 $248 $249 reversed $59 $-1 #
coedge $-1 $95 $247 $243 $250 forward $59 $-1 #
coedge $-1 $245 $251 $95 $153 forward $252 $-1 #
edge $-1 $253 -15.844216474997777 $254 -7.1774934977959486 $152 $255 forward 7 unknown #
face $-1 $256 $257 $35 $-1 $258 forward single #
loop $-1 $-1 $259 $96 #
plane-surface $-1 0 27.35507146139464 0 0 -1 0 0 0 -1 forward_v I I I I #
coedge $-1 $260 $261 $262 $263 reversed $97 $-1 #
coedge $-1 $264 $99 $259 $265 reversed $62 $-1 #
coedge $-1 $99 $264 $260 $266 forward $62 $-1 #
coedge $-1 $262 $267 $99 $161 forward $257 $-1 #
edge $-1 $268 -15.488285146671503 $269 -8.2452874827747724 $160 $270 forward 7 unknown #
loop $-1 $-1 $167 $100 #
plane-surface $-1 -43.25904417354522 23.733572629446275 78.800185236863413 0.57357644374324357 0 0.81915203911291934 0.81915203911291934 0 -0.57357644374324357 forward_v I I I I #
loop $-1 $-1 $271 $64 #
coedge $-1 $165 $165 $166 $272 reversed $101 $-1 #
coedge $-1 $166 $166 $165 $272 forward $103 $-1 #
coedge $-1 $167 $167 $104 $168 forward $162 $-1 #
edge $-1 $273 0 $273 6.2831853071796004 $167 $274 forward 7 unknown #
loop $-1 $-1 $174 $105 #
plane-surface $-1 -43.25904417354522 23.733572629446275 78.800185236863413 0.57357644374324357 0 0.81915203911291934 0.81915203911291934 0 -0.57357644374324357 forward_v I I I I #
loop $-1 $-1 $275 $67 #
coedge $-1 $172 $172 $173 $276 reversed $106 $-1 #
coedge $-1 $173 $173 $172 $276 forward $108 $-1 #
coedge $-1 $174 $174 $109 $175 forward $169 $-1 #
edge $-1 $277 0 $277 6.2831853071796004 $174 $278 forward 7 unknown #
face $-1 $279 $280 $38 $-1 $281 forward single #
loop $-1 $-1 $282 $110 #
plane-surface $-1 0 -18.688348484192812 5.5062777102758389 0 -1 0 0 0 -1 forward_v I I I I #
coedge $-1 $283 $284 $285 $286 reversed $111 $-1 #
coedge $-1 $287 $113 $282 $288 reversed $71 $-1 #
coedge $-1 $113 $287 $283 $289 forward $71 $-1 #
coedge $-1 $285 $290 $113 $183 forward $280 $-1 #
edge $-1 $291 -12.209106074606261 $292 -0.74937874456684828 $182 $293 forward 7 unknown #
loop $-1 $-1 $189 $114 #
plane-surface $-1 -67.771843623157437 -12.958484819173108 3.497530447711128 -0.80901700255871778 0 0.5877852410284794 0.5877852410284794 0 0.80901700255871778 forward_v I I I I #
loop $-1 $-1 $294 $73 #
coedge $-1 $187 $187 $188 $295 reversed $115 $-1 #
coedge $-1 $188 $188 $187 $295 forward $117 $-1 #
coedge $-1 $189 $189 $118 $190 forward $184 $-1 #
edge $-1 $296 0 $296 6.2831853071796004 $189 $297 forward 7 unknown #
loop $-1 $-1 $196 $119 #
plane-surface $-1 -67.771843623157437 -12.958484819173108 3.497530447711128 -0.80901700255871778 0 0.5877852410284794 0.5877852410284794 0 0.80901700255871778 forward_v I I I I #
loop $-1 $-1 $298 $76 #
coedge $-1 $194 $194 $195 $299 reversed $120 $-1 #
coedge $-1 $195 $195 $194 $299 forward $122 $-1 #
coedge $-1 $196 $196 $123 $197 forward $191 $-1 #
edge $-1 $300 0 $300 6.2831853071796004 $196 $301 forward 7 unknown #
face $-1 $302 $303 $41 $-1 $304 reversed single #
loop $-1 $-1 $305 $124 #
plane-surface $-1 -177.42899119492742 15.793088818640324 83.168109325675161 0 -1 0 0.80901700255871778 0 -0.5877852410284794 forward_v I I I I #
coedge $-1 $306 $307 $308 $309 reversed $125 $-1 #
coedge $-1 $203 $127 $310 $311 reversed $80 $-1 #
coedge $-1 $127 $202 $306 $312 reversed $80 $-1 #
coedge $-1 $308 $313 $127 $205 forward $314 $-1 #
edge $-1 $315 20.942651974306258 $316 23.491906005941942 $204 $317 forward 7 unknown #
loop $-1 $-1 $211 $128 #
plane-surface $-1 -67.771843623157437 10.063225153620618 3.497530447711128 -0.80901700255871778 0 0.5877852410284794 0.5877852410284794 0 0.80901700255871778 forward_v I I I I #
loop $-1 $-1 $318 $82 #
coedge $-1 $209 $209 $210 $319 reversed $129 $-1 #
coedge $-1 $210 $210 $209 $319 forward $131 $-1 #
coedge $-1 $211 $211 $132 $212 forward $206 $-1 #
edge $-1 $320 0 $320 6.2831853071796004 $211 $321 forward 7 unknown #
loop $-1 $-1 $218 $133 #
plane-surface $-1 -67.771843623157437 10.063225153620618 3.497530447711128 -0.80901700255871778 0 0.5877852410284794 0.5877852410284794 0 0.80901700255871778 forward_v I I I I #
loop $-1 $-1 $322 $85 #
coedge $-1 $216 $216 $217 $323 reversed $134 $-1 #
coedge $-1 $217 $217 $216 $323 forward $136 $-1 #
coedge $-1 $218 $218 $137 $219 forward $213 $-1 #
edge $-1 $324 0 $324 6.2831853071796004 $218 $325 forward 7 unknown #
face $-1 $326 $327 $33 $-1 $328 reversed single #
loop $-1 $-1 $329 $138 #
plane-surface $-1 -67.771843623157451 0 0 1 0 0 0 0 -1 forward_v I I I I #
coedge $-1 $330 $231 $331 $332 forward $139 $-1 #
coedge $-1 $333 $141 $330 $334 forward $89 $-1 #
coedge $-1 $141 $333 $335 $336 forward $89 $-1 #
coedge $-1 $234 $233 $141 $227 reversed $235 $-1 #
edge $-1 $337 -27.35507146139464 $338 27.35507146139464 $226 $339 forward 7 unknown #
coedge $-1 $143 $142 $340 $341 forward $56 $-1 #
coedge $-1 $342 $343 $142 $230 reversed $327 $-1 #
edge $-1 $237 -67.771843623157451 $344 67.771843623157451 $229 $345 forward 7 unknown #
coedge $-1 $223 $346 $143 $232 reversed $139 $-1 #
edge $-1 $347 -67.771843623157451 $236 67.771843623157451 $231 $348 forward 7 unknown #
coedge $-1 $226 $144 $346 $349 forward $235 $-1 #
coedge $-1 $144 $226 $342 $350 reversed $235 $-1 #
loop $-1 $-1 $233 $326 #
vertex $-1 $145 $351 #
vertex $-1 $145 $352 #
straight-curve $-1 67.771843623157451 0 7.0062777102758389 0 1 0 I I #
face $-1 $353 $354 $34 $-1 $355 forward single #
loop $-1 $-1 $248 $146 #
plane-surface $-1 0 -27.35507146139464 0 0 1 0 0 0 1 forward_v I I I I #
coedge $-1 $356 $357 $358 $359 forward $147 $-1 #
coedge $-1 $358 $149 $151 $250 reversed $93 $-1 #
coedge $-1 $149 $358 $360 $361 reversed $93 $-1 #
coedge $-1 $362 $152 $149 $246 forward $252 $-1 #
edge $-1 $254 1.2531388551379194 $363 4.2531388551379194 $245 $364 forward 7 unknown #
coedge $-1 $151 $150 $356 $365 reversed $59 $-1 #
coedge $-1 $366 $367 $150 $249 forward $240 $-1 #
edge $-1 $368 -67.771843623157451 $253 67.771843623157451 $248 $369 forward 7 unknown #
edge $-1 $370 -67.771843623157451 $254 67.771843623157451 $243 $371 forward 7 unknown #
coedge $-1 $152 $362 $366 $372 forward $252 $-1 #
loop $-1 $-1 $245 $353 #
vertex $-1 $249 $373 #
vertex $-1 $153 $374 #
straight-curve $-1 67.771843623157451 -11.510854986396863 4.0062777102758389 0 1 0 I I #
face $-1 $-1 $375 $35 $-1 $376 reversed single #
loop $-1 $-1 $160 $154 #
plane-surface $-1 0 0 7.0062777102758389 0 0 1 1 0 0 forward_v I I I I #
coedge $-1 $377 $378 $158 $265 forward $155 $-1 #
coedge $-1 $261 $157 $159 $266 reversed $97 $-1 #
coedge $-1 $157 $260 $379 $380 reversed $97 $-1 #
coedge $-1 $381 $160 $157 $263 forward $257 $-1 #
edge $-1 $269 42.030468822947533 $382 50.52903265863619 $262 $383 forward 7 unknown #
coedge $-1 $159 $158 $384 $385 reversed $62 $-1 #
edge $-1 $386 -95.226855116662733 $268 -84.852024279530269 $259 $387 forward 7 unknown #
edge $-1 $388 -135.54368724631493 $269 -125.16885640918245 $260 $389 forward 7 unknown #
coedge $-1 $160 $381 $377 $390 forward $257 $-1 #
vertex $-1 $161 $391 #
vertex $-1 $161 $392 #
straight-curve $-1 59.273279787468788 11.866786314723138 7.0062777102758531 0 -1 0 I I #
coedge $-1 $271 $271 $-1 $393 reversed $164 $-1 #
edge $-1 $394 0 $394 6.2831853071796004 $165 $395 forward 7 unknown #
vertex $-1 $168 $396 #
ellipse-curve $-1 63.522561705313109 22.181501701468402 4.0308984222757518 0.57357644374324357 0 0.81915203911291934 0.20478800977822983 0 -0.14339411093581089 1 I I #
coedge $-1 $275 $275 $-1 $397 reversed $171 $-1 #
edge $-1 $398 0 $398 6.2831853071796004 $172 $399 forward 7 unknown #
vertex $-1 $175 $400 #
ellipse-curve $-1 63.522561705313109 25.285643557424148 4.0308984222757518 0.57357644374324357 0 0.81915203911291934 0.20478800977822983 0 -0.14339411093581089 1 I I #
face $-1 $-1 $401 $38 $-1 $402 reversed single #
loop $-1 $-1 $285 $176 #
plane-surface $-1 0 0 7.0062777102758389 0 0 1 1 0 0 forward_v I I I I #
coedge $-1 $403 $404 $180 $288 forward $177 $-1 #
coedge $-1 $284 $179 $181 $289 reversed $111 $-1 #
coedge $-1 $179 $283 $405 $406 reversed $111 $-1 #
coedge $-1 $407 $182 $179 $286 forward $280 $-1 #
edge $-1 $292 -23.491906005941942 $408 -20.942651974306258 $285 $409 forward 7 unknown #
coedge $-1 $181 $180 $410 $411 reversed $71 $-1 #
edge $-1 $412 -20.730200064120098 $291 -16.393149975596067 $282 $413 forward 7 unknown #
edge $-1 $414 -2.4161062406544664e-014 $292 4.3370500885240038 $283 $415 forward 7 unknown #
coedge $-1 $182 $407 $403 $416 forward $280 $-1 #
vertex $-1 $183 $417 #
vertex $-1 $183 $418 #
straight-curve $-1 -65.222589591521768 -6.4792424095865542 7.0062777102758389 0 1 0 I I #
coedge $-1 $294 $294 $-1 $419 reversed $186 $-1 #
edge $-1 $420 0 $420 6.2831853071796004 $187 $421 forward 7 unknown #
vertex $-1 $190 $422 #
ellipse-curve $-1 -66.49721660733961 -15.414140675610124 5.2519040789934799 -0.80901700255871778 0 0.5877852410284794 0.2938926205142397 0 0.40450850127935889 1 I I #
coedge $-1 $298 $298 $-1 $423 reversed $193 $-1 #
edge $-1 $424 0 $424 6.2831853071796004 $194 $425 forward 7 unknown #
vertex $-1 $197 $426 #
ellipse-curve $-1 -66.49721660733961 -10.502828962736093 5.2519040789934799 -0.80901700255871778 0 0.5877852410284794 0.2938926205142397 0 0.40450850127935889 1 I I #
face $-1 $-1 $314 $41 $-1 $427 forward single #
loop $-1 $-1 $428 $198 #
plane-surface $-1 -67.771843623157451 0 0 1 0 0 0 0 -1 forward_v I I I I #
coedge $-1 $429 $430 $431 $432 reversed $199 $-1 #
coedge $-1 $433 $201 $203 $312 forward $125 $-1 #
coedge $-1 $201 $433 $429 $434 forward $125 $-1 #
coedge $-1 $431 $204 $201 $309 forward $314 $-1 #
edge $-1 $316 -0.69825108820939707 $435 10.761476241830016 $308 $436 forward 7 unknown #
coedge $-1 $437 $438 $202 $311 forward $303 $-1 #
edge $-1 $439 -38.086524215126474 $315 -34.577776952561742 $310 $440 forward 7 unknown #
edge $-1 $316 -4.3370500885240038 $439 2.4161062406544664e-014 $203 $441 forward 7 unknown #
coedge $-1 $204 $431 $437 $442 forward $314 $-1 #
loop $-1 $-1 $431 $302 #
vertex $-1 $311 $443 #
vertex $-1 $205 $444 #
straight-curve $-1 -88.71449559746371 4.3333614886009117 7.0062777102758389 1 0 0 I I #
coedge $-1 $318 $318 $-1 $445 reversed $208 $-1 #
edge $-1 $446 0 $446 6.2831853071796004 $209 $447 forward 7 unknown #
vertex $-1 $212 $448 #
ellipse-curve $-1 -66.49721660733961 7.6075692971836055 5.2519040789934799 -0.80901700255871778 0 0.5877852410284794 0.2938926205142397 0 0.40450850127935889 1 I I #
coedge $-1 $322 $322 $-1 $449 reversed $215 $-1 #
edge $-1 $450 0 $450 6.2831853071796004 $216 $451 forward 7 unknown #
vertex $-1 $219 $452 #
ellipse-curve $-1 -66.49721660733961 12.51888101005763 5.2519040789934799 -0.80901700255871778 0 0.5877852410284794 0.2938926205142397 0 0.40450850127935889 1 I I #
face $-1 $-1 $235 $33 $-1 $453 reversed single #
loop $-1 $-1 $342 $220 #
plane-surface $-1 0 27.35507146139464 0 0 -1 0 0 0 -1 forward_v I I I I #
coedge $-1 $454 $340 $343 $455 forward $221 $-1 #
coedge $-1 $346 $223 $224 $334 reversed $139 $-1 #
coedge $-1 $340 $454 $223 $332 reversed $221 $-1 #
edge $-1 $347 -7.0062777102758389 $456 7.0062777102758389 $331 $457 forward 7 unknown #
coedge $-1 $225 $224 $454 $458 forward $89 $-1 #
edge $-1 $338 -67.771843623157451 $456 67.771843623157451 $330 $459 forward 7 unknown #
coedge $-1 $343 $342 $225 $336 reversed $327 $-1 #
edge $-1 $460 -67.771843623157451 $337 67.771843623157451 $335 $461 forward 7 unknown #
vertex $-1 $227 $462 #
vertex $-1 $349 $463 #
straight-curve $-1 67.771843623157451 0 -7.0062777102758389 0 -1 0 I I #
coedge $-1 $329 $331 $228 $341 reversed $221 $-1 #
edge $-1 $344 -27.35507146139464 $347 27.35507146139464 $340 $464 forward 7 unknown #
coedge $-1 $335 $229 $234 $350 forward $327 $-1 #
coedge $-1 $229 $335 $329 $455 reversed $327 $-1 #
vertex $-1 $230 $465 #
straight-curve $-1 0 27.35507146139464 7.0062777102758389 -1 0 0 I I #
coedge $-1 $231 $330 $233 $349 reversed $139 $-1 #
vertex $-1 $341 $466 #
straight-curve $-1 0 -27.35507146139464 7.0062777102758389 1 0 0 I I #
edge $-1 $236 -7.0062777102758389 $338 7.0062777102758389 $233 $467 forward 7 unknown #
edge $-1 $237 -7.0062777102758389 $337 7.0062777102758389 $234 $468 forward 7 unknown #
point $-1 67.771843623157451 -27.35507146139464 7.0062777102758389 #
point $-1 67.771843623157451 27.35507146139464 7.0062777102758389 #
face $-1 $-1 $252 $34 $-1 $469 reversed single #
loop $-1 $-1 $360 $239 #
plane-surface $-1 0 0 7.0062777102758389 0 0 1 1 0 0 forward_v I I I I #
coedge $-1 $470 $242 $247 $365 forward $147 $-1 #
coedge $-1 $242 $470 $471 $472 reversed $147 $-1 #
coedge $-1 $244 $243 $242 $359 reversed $93 $-1 #
edge $-1 $473 -4.2531388551379194 $370 -1.2531388551379194 $242 $474 forward 7 unknown #
coedge $-1 $471 $475 $244 $361 forward $354 $-1 #
edge $-1 $363 -67.771843623157451 $473 67.771843623157451 $360 $476 forward 7 unknown #
coedge $-1 $251 $245 $475 $477 reversed $252 $-1 #
vertex $-1 $246 $478 #
straight-curve $-1 67.771843623157451 -18.688348484192812 2.7531388551379194 0 0 1 I I #
edge $-1 $370 7.1774934977959486 $368 15.844216474997777 $356 $479 forward 7 unknown #
coedge $-1 $480 $248 $251 $372 reversed $240 $-1 #
coedge $-1 $248 $480 $470 $481 forward $240 $-1 #
vertex $-1 $249 $482 #
straight-curve $-1 0 -27.35507146139464 4.0062777102758389 1 0 0 I I #
vertex $-1 $365 $483 #
straight-curve $-1 0 -18.688348484192812 4.0062777102758389 1 0 0 I I #
edge $-1 $484 -7.0062777102758389 $253 -4.0062777102758389 $251 $485 forward 7 unknown #
point $-1 67.771843623157451 -27.35507146139464 4.0062777102758389 #
point $-1 67.771843623157451 -18.688348484192812 4.0062777102758389 #
loop $-1 $-1 $384 $256 #
plane-surface $-1 67.771843623157451 0 0 -1 0 0 0 0 1 forward_v I I I I #
coedge $-1 $378 $259 $267 $390 reversed $155 $-1 #
coedge $-1 $259 $377 $486 $487 forward $155 $-1 #
coedge $-1 $384 $488 $261 $380 forward $375 $-1 #
edge $-1 $382 87.909258806507196 $388 93.86001738250738 $379 $489 forward 7 unknown #
coedge $-1 $267 $262 $488 $490 forward $257 $-1 #
vertex $-1 $490 $491 #
straight-curve $-1 17.242810964521261 20.11207379749791 7.0062777102758389 1 0 0 I I #
coedge $-1 $486 $379 $264 $385 forward $375 $-1 #
edge $-1 $388 8.2452874827747724 $386 15.488285146671503 $384 $492 forward 7 unknown #
vertex $-1 $385 $493 #
straight-curve $-1 -10.233428923967368 27.35507146139464 55.675400040944169 -0.81915203911291934 0 0.57357644374324357 I I #
vertex $-1 $385 $494 #
straight-curve $-1 -43.25904417354522 20.11207379749791 78.800185236863413 -0.81915203911291934 0 0.57357644374324357 I I #
edge $-1 $495 -67.771843623157451 $268 -59.273279787468795 $377 $496 forward 7 unknown #
point $-1 59.273279787468795 27.35507146139464 7.0062777102758389 #
point $-1 59.273279787468795 20.11207379749791 7.0062777102758389 #
edge $-1 $497 1 $497 0 $271 $-1 forward 7 unknown #
vertex $-1 $272 $498 #
ellipse-curve $-1 62.948985261569888 22.181501701468402 3.2117463831628554 0.57357644374324357 0 0.81915203911291934 0.20478800977822983 0 -0.14339411093581089 1 I I #
point $-1 63.727349715091357 22.181501701468402 3.8875043113399639 #
edge $-1 $499 1 $499 0 $275 $-1 forward 7 unknown #
vertex $-1 $276 $500 #
ellipse-curve $-1 62.948985261569888 25.285643557424148 3.2117463831628554 0.57357644374324357 0 0.81915203911291934 0.20478800977822983 0 -0.14339411093581089 1 I I #
point $-1 63.727349715091357 25.285643557424148 3.8875043113399639 #
loop $-1 $-1 $501 $279 #
plane-surface $-1 -67.771843623157451 0 0 1 0 0 0 0 -1 forward_v I I I I #
coedge $-1 $404 $282 $290 $416 reversed $177 $-1 #
coedge $-1 $282 $403 $501 $502 reversed $177 $-1 #
coedge $-1 $410 $503 $284 $406 forward $401 $-1 #
edge $-1 $408 34.577776952561742 $414 38.086524215126474 $405 $504 forward 7 unknown #
coedge $-1 $290 $285 $503 $505 forward $280 $-1 #
vertex $-1 $505 $506 #
straight-curve $-1 -88.71449559746371 -7.2286211541534025 7.0062777102758389 -1 0 0 I I #
coedge $-1 $501 $405 $287 $411 forward $401 $-1 #
edge $-1 $414 0.74937874456684828 $412 12.209106074606261 $410 $507 forward 7 unknown #
vertex $-1 $502 $508 #
straight-curve $-1 -55.586937981900022 -18.688348484192812 20.268614766028087 0.5877852410284794 0 0.80901700255871778 I I #
vertex $-1 $411 $509 #
straight-curve $-1 -67.771843623157437 -7.2286211541534025 3.497530447711128 0.5877852410284794 0 0.80901700255871778 I I #
edge $-1 $510 -67.771843623157451 $291 -65.222589591521768 $290 $511 forward 7 unknown #
point $-1 -65.222589591521768 -18.688348484192815 7.0062777102758389 #
point $-1 -65.222589591521768 -7.2286211541534025 7.0062777102758389 #
edge $-1 $512 1 $512 0 $294 $-1 forward 7 unknown #
vertex $-1 $295 $513 #
ellipse-curve $-1 -65.441114499244648 -15.414140675610124 4.4846010060123556 -0.80901700255871778 0 0.5877852410284794 0.2938926205142397 0 0.40450850127935889 1 I I #
point $-1 -66.203323986825382 -15.414140675610124 5.6564125802728444 #
edge $-1 $514 1 $514 0 $298 $-1 forward 7 unknown #
vertex $-1 $299 $515 #
ellipse-curve $-1 -65.441114499244648 -10.502828962736093 4.4846010060123556 -0.80901700255871778 0 0.5877852410284794 0.2938926205142397 0 0.40450850127935889 1 I I #
point $-1 -66.203323986825382 -10.502828962736093 5.6564125802728444 #
plane-surface $-1 0 0 7.0062777102758389 0 0 1 1 0 0 forward_v I I I I #
coedge $-1 $438 $437 $430 $516 forward $303 $-1 #
coedge $-1 $430 $305 $307 $434 reversed $199 $-1 #
coedge $-1 $305 $429 $428 $516 reversed $199 $-1 #
coedge $-1 $313 $308 $305 $432 forward $314 $-1 #
edge $-1 $435 -23.491906005941942 $517 -20.942651974306258 $431 $518 forward 7 unknown #
coedge $-1 $307 $306 $438 $519 reversed $125 $-1 #
edge $-1 $520 -2.4161062406544664e-014 $435 4.3370500885240038 $429 $521 forward 7 unknown #
vertex $-1 $309 $522 #
straight-curve $-1 -65.222589591521768 5.0316125768103088 7.0062777102758389 0 1 0 I I #
coedge $-1 $428 $310 $313 $442 reversed $303 $-1 #
coedge $-1 $310 $428 $433 $519 forward $303 $-1 #
vertex $-1 $311 $523 #
straight-curve $-1 -67.771843623157451 4.3333614886009117 41.58405466283758 0 0 1 I I #
straight-curve $-1 -67.771843623157437 4.3333614886009117 3.497530447711128 -0.5877852410284794 0 -0.80901700255871778 I I #
edge $-1 $517 -15.793088818640324 $315 -4.3333614886009117 $437 $524 forward 7 unknown #
point $-1 -67.771843623157451 4.3333614886009117 7.0062777102758389 #
point $-1 -65.222589591521768 4.3333614886009117 7.0062777102758389 #
edge $-1 $525 1 $525 0 $318 $-1 forward 7 unknown #
vertex $-1 $319 $526 #
ellipse-curve $-1 -65.441114499244648 7.6075692971836055 4.4846010060123556 -0.80901700255871778 0 0.5877852410284794 0.2938926205142397 0 0.40450850127935889 1 I I #
point $-1 -66.203323986825382 7.6075692971836055 5.6564125802728444 #
edge $-1 $527 1 $527 0 $322 $-1 forward 7 unknown #
vertex $-1 $323 $528 #
ellipse-curve $-1 -65.441114499244648 12.51888101005763 4.4846010060123556 -0.80901700255871778 0 0.5877852410284794 0.2938926205142397 0 0.40450850127935889 1 I I #
point $-1 -66.203323986825382 12.51888101005763 5.6564125802728444 #
plane-surface $-1 67.771843623157451 0 0 -1 0 0 0 0 1 forward_v I I I I #
coedge $-1 $331 $329 $333 $458 reversed $221 $-1 #
edge $-1 $344 -7.0062777102758389 $460 7.0062777102758389 $343 $529 forward 7 unknown #
vertex $-1 $458 $530 #
straight-curve $-1 -67.771843623157451 -27.35507146139464 0 0 0 -1 I I #
edge $-1 $456 -27.35507146139464 $460 27.35507146139464 $454 $531 forward 7 unknown #
straight-curve $-1 0 -27.35507146139464 -7.0062777102758389 -1 0 0 I I #
vertex $-1 $336 $532 #
straight-curve $-1 0 27.35507146139464 -7.0062777102758389 1 0 0 I I #
point $-1 67.771843623157451 27.35507146139464 -7.0062777102758389 #
point $-1 67.771843623157451 -27.35507146139464 -7.0062777102758389 #
straight-curve $-1 -67.771843623157451 0 7.0062777102758389 0 -1 0 I I #
point $-1 -67.771843623157451 27.35507146139464 7.0062777102758389 #
point $-1 -67.771843623157451 -27.35507146139464 7.0062777102758389 #
straight-curve $-1 67.771843623157451 -27.35507146139464 0 0 0 -1 I I #
straight-curve $-1 67.771843623157451 27.35507146139464 0 0 0 -1 I I #
plane-surface $-1 67.771843623157451 0 0 -1 0 0 0 0 1 forward_v I I I I #
coedge $-1 $357 $356 $367 $481 reversed $147 $-1 #
coedge $-1 $533 $360 $357 $472 forward $354 $-1 #
edge $-1 $473 18.688348484192812 $534 27.35507146139464 $357 $535 forward 7 unknown #
vertex $-1 $472 $536 #
straight-curve $-1 -67.771843623157451 -18.688348484192812 2.7531388551379194 0 0 -1 I I #
coedge $-1 $360 $533 $362 $477 forward $354 $-1 #
straight-curve $-1 0 -18.688348484192812 7.0062777102758389 -1 0 0 I I #
edge $-1 $484 -27.35507146139464 $363 -18.688348484192812 $362 $537 forward 7 unknown #
point $-1 67.771843623157451 -18.688348484192812 7.0062777102758389 #
straight-curve $-1 -67.771843623157451 -11.510854986396863 4.0062777102758389 0 -1 0 I I #
coedge $-1 $367 $366 $533 $538 reversed $240 $-1 #
edge $-1 $534 -7.0062777102758389 $368 -4.0062777102758389 $470 $539 forward 7 unknown #
point $-1 -67.771843623157451 -27.35507146139464 4.0062777102758389 #
point $-1 -67.771843623157451 -18.688348484192812 4.0062777102758389 #
vertex $-1 $477 $540 #
straight-curve $-1 67.771843623157451 -27.35507146139464 0 0 0 -1 I I #
coedge $-1 $488 $384 $378 $487 reversed $375 $-1 #
edge $-1 $495 -7.0062777102758389 $386 -1.0555191342756558 $486 $541 forward 7 unknown #
coedge $-1 $379 $486 $381 $490 reversed $375 $-1 #
straight-curve $-1 67.771843623157451 20.11207379749791 94.915536516783035 0 0 -1 I I #
edge $-1 $382 20.11207379749791 $495 27.35507146139464 $488 $542 forward 7 unknown #
point $-1 67.771843623157451 20.11207379749791 7.0062777102758389 #
straight-curve $-1 67.771843623157451 11.866786314723138 1.0555191342756487 0 1 0 I I #
point $-1 67.771843623157451 27.35507146139464 1.0555191342756558 #
point $-1 67.771843623157451 20.11207379749791 1.0555191342756558 #
vertex $-1 $490 $543 #
straight-curve $-1 0 27.35507146139464 7.0062777102758389 -1 0 0 I I #
vertex $-1 $393 $544 #
point $-1 63.153773271348115 22.181501701468402 3.0683522722270449 #
vertex $-1 $397 $545 #
point $-1 63.153773271348115 25.285643557424148 3.0683522722270449 #
coedge $-1 $503 $410 $404 $502 forward $401 $-1 #
edge $-1 $412 -38.086524215126474 $510 -34.577776952561742 $501 $546 forward 7 unknown #
coedge $-1 $405 $501 $407 $505 reversed $401 $-1 #
straight-curve $-1 -67.771843623157451 -7.2286211541534025 41.58405466283758 0 0 -1 I I #
edge $-1 $408 7.2286211541534025 $510 18.688348484192812 $503 $547 forward 7 unknown #
point $-1 -67.771843623157451 -7.2286211541534025 7.0062777102758389 #
straight-curve $-1 -67.771843623157451 -6.4792424095865542 3.4975304477111226 0 -1 0 I I #
point $-1 -67.771843623157451 -18.688348484192815 3.4975304477111084 #
point $-1 -67.771843623157451 -7.2286211541534025 3.4975304477111084 #
vertex $-1 $502 $548 #
straight-curve $-1 0 -18.688348484192812 7.0062777102758389 1 0 0 I I #
vertex $-1 $419 $549 #
point $-1 -65.147221878730406 -15.414140675610124 4.8891095072917139 #
vertex $-1 $423 $550 #
point $-1 -65.147221878730406 -10.502828962736093 4.8891095072917139 #
edge $-1 $517 34.577776952561742 $520 38.086524215126474 $428 $551 forward 7 unknown #
vertex $-1 $442 $552 #
straight-curve $-1 -88.71449559746371 15.793088818640324 7.0062777102758389 -1 0 0 I I #
edge $-1 $520 -10.761476241830016 $439 0.69825108820939707 $438 $553 forward 7 unknown #
vertex $-1 $519 $554 #
straight-curve $-1 -67.771843623157437 15.793088818640324 3.497530447711128 0.5877852410284794 0 0.80901700255871778 I I #
point $-1 -65.222589591521768 15.793088818640324 7.0062777102758389 #
point $-1 -67.771843623157451 4.3333614886009117 3.4975304477111084 #
straight-curve $-1 -67.771843623157451 0 7.0062777102758389 0 -1 0 I I #
vertex $-1 $445 $555 #
point $-1 -65.147221878730406 7.6075692971836055 4.8891095072917139 #
vertex $-1 $449 $556 #
point $-1 -65.147221878730406 12.51888101005763 4.8891095072917139 #
straight-curve $-1 -67.771843623157451 27.35507146139464 0 0 0 -1 I I #
point $-1 -67.771843623157451 -27.35507146139464 -7.0062777102758389 #
straight-curve $-1 -67.771843623157451 0 -7.0062777102758389 0 1 0 I I #
point $-1 -67.771843623157451 27.35507146139464 -7.0062777102758389 #
coedge $-1 $475 $471 $480 $538 forward $354 $-1 #
vertex $-1 $472 $557 #
straight-curve $-1 -67.771843623157451 0 7.0062777102758389 0 -1 0 I I #
point $-1 -67.771843623157451 -18.688348484192812 7.0062777102758389 #
straight-curve $-1 67.771843623157451 0 7.0062777102758389 0 1 0 I I #
edge $-1 $534 -67.771843623157451 $484 67.771843623157451 $480 $558 forward 7 unknown #
straight-curve $-1 -67.771843623157451 -27.35507146139464 0 0 0 -1 I I #
point $-1 67.771843623157451 -27.35507146139464 7.0062777102758389 #
straight-curve $-1 67.771843623157451 27.35507146139464 0 0 0 -1 I I #
straight-curve $-1 67.771843623157451 0 7.0062777102758389 0 1 0 I I #
point $-1 67.771843623157451 27.35507146139464 7.0062777102758389 #
point $-1 62.805591150634072 22.181501701468402 3.0069583733846259 #
point $-1 62.805591150634072 25.285643557424148 3.0069583733846259 #
straight-curve $-1 -67.771843623157451 -18.688348484192815 41.58405466283758 0 0 1 I I #
straight-curve $-1 -67.771843623157451 0 7.0062777102758389 0 -1 0 I I #
point $-1 -67.771843623157451 -18.688348484192812 7.0062777102758389 #
point $-1 -65.036605997965282 -15.414140675610124 4.1907083854981151 #
point $-1 -65.036605997965282 -10.502828962736093 4.1907083854981151 #
straight-curve $-1 -67.771843623157451 15.793088818640324 41.58405466283758 0 0 -1 I I #
point $-1 -67.771843623157451 15.793088818640324 7.0062777102758389 #
straight-curve $-1 -67.771843623157451 5.0316125768103088 3.4975304477111226 0 -1 0 I I #
point $-1 -67.771843623157451 15.793088818640324 3.4975304477111084 #
point $-1 -65.036605997965282 7.6075692971836055 4.1907083854981151 #
point $-1 -65.036605997965282 12.51888101005763 4.1907083854981151 #
point $-1 -67.771843623157451 -27.35507146139464 7.0062777102758389 #
straight-curve $-1 0 -27.35507146139464 7.0062777102758389 1 0 0 I I #
End-of-ACIS-data 