500 0 2 0           
7 Unknown 11 ACIS 5.0 NT 24 Thu Mar 25 23:47:54 1999 
-1 9.9999999999999995e-007 1e-010 
body $-1 $2 $-1 $3 #
body $-1 $4 $-1 $5 #
lump $-1 $-1 $6 $0 #
transform $-1 1 0 0 0 1 0 0 0 1 79.442121646778773 50.694144797305846 13.976279954524417 1 rotate no_reflect no_shear #
lump $-1 $-1 $7 $1 #
transform $-1 1 0 0 0 1 0 0 0 1 79.442121646778773 50.694144797305846 13.976279954524417 1 rotate no_reflect no_shear #
shell $-1 $-1 $-1 $8 $-1 $2 #
shell $-1 $-1 $-1 $9 $-1 $4 #
face $-1 $10 $11 $6 $-1 $12 forward single #
face $-1 $13 $14 $7 $-1 $15 forward single #
face $-1 $16 $17 $6 $-1 $18 reversed single #
loop $-1 $-1 $19 $8 #
plane-surface $-1 0 0 13.976279954524417 0 0 1 1 0 0 forward_v I I I I #
face $-1 $20 $21 $7 $-1 $22 reversed single #
loop $-1 $-1 $23 $9 #
plane-surface $-1 -86.036991874571356 0 -6.8551036383292523 0 0 1 1 0 0 forward_v I I I I #
face $-1 $24 $25 $6 $-1 $26 reversed single #
loop $-1 $-1 $27 $10 #
plane-surface $-1 0 0 -13.976279954524417 0 0 1 1 0 0 forward_v I I I I #
coedge $-1 $28 $29 $30 $31 forward $11 $-1 #
face $-1 $32 $33 $7 $-1 $34 forward single #
loop $-1 $-1 $35 $13 #
plane-surface $-1 -92.631862102363939 0 -10.415691796426835 1 0 0 0 0 -1 forward_v I I I I #
coedge $-1 $36 $37 $38 $39 reversed $14 $-1 #
face $-1 $40 $41 $6 $-1 $42 reversed single #
loop $-1 $-1 $43 $16 #
plane-surface $-1 0 -50.694144797305846 0 0 1 0 0 0 1 forward_v I I I I #
coedge $-1 $44 $45 $46 $47 forward $17 $-1 #
coedge $-1 $48 $19 $49 $50 forward $11 $-1 #
coedge $-1 $19 $48 $51 $52 forward $11 $-1 #
coedge $-1 $53 $54 $19 $31 reversed $55 $-1 #
edge $-1 $56 -50.694144797305846 $57 50.694144797305846 $30 $58 forward 7 unknown #
face $-1 $59 $60 $7 $-1 $61 reversed single #
loop $-1 $-1 $62 $20 #
plane-surface $-1 0 0 13.976279954524417 0 0 1 1 0 0 forward_v I I I I #
coedge $-1 $63 $64 $65 $66 forward $21 $-1 #
coedge $-1 $67 $23 $68 $69 forward $14 $-1 #
coedge $-1 $23 $67 $70 $71 forward $14 $-1 #
coedge $-1 $72 $73 $23 $39 forward $74 $-1 #
edge $-1 $75 -50.694144797305846 $76 50.694144797305846 $38 $77 forward 7 unknown #
face $-1 $78 $79 $6 $-1 $80 reversed single #
loop $-1 $-1 $81 $24 #
plane-surface $-1 -79.442121646778773 0 0 1 0 0 0 0 -1 forward_v I I I I #
coedge $-1 $82 $51 $83 $84 forward $25 $-1 #
coedge $-1 $85 $27 $82 $86 forward $17 $-1 #
coedge $-1 $27 $85 $87 $88 forward $17 $-1 #
coedge $-1 $54 $53 $27 $47 reversed $55 $-1 #
edge $-1 $89 -50.694144797305846 $90 50.694144797305846 $46 $91 forward 7 unknown #
coedge $-1 $29 $28 $92 $93 forward $11 $-1 #
coedge $-1 $94 $95 $28 $50 reversed $79 $-1 #
edge $-1 $57 -79.442121646778773 $96 79.442121646778773 $49 $97 forward 7 unknown #
coedge $-1 $43 $98 $29 $52 reversed $25 $-1 #
edge $-1 $99 -79.442121646778773 $56 79.442121646778773 $51 $100 forward 7 unknown #
coedge $-1 $46 $30 $98 $101 forward $55 $-1 #
coedge $-1 $30 $46 $94 $102 reversed $55 $-1 #
loop $-1 $-1 $53 $78 #
vertex $-1 $31 $103 #
vertex $-1 $31 $104 #
straight-curve $-1 79.442121646778773 0 13.976279954524417 0 1 0 I I #
face $-1 $105 $106 $7 $-1 $107 reversed single #
loop $-1 $-1 $108 $32 #
plane-surface $-1 0 0 -13.976279954524417 0 0 1 1 0 0 forward_v I I I I #
coedge $-1 $109 $110 $111 $112 forward $33 $-1 #
coedge $-1 $113 $35 $114 $115 reversed $21 $-1 #
coedge $-1 $35 $113 $67 $116 reversed $21 $-1 #
coedge $-1 $68 $117 $35 $66 reversed $118 $-1 #
edge $-1 $119 -3.5605881580975822 $120 3.5605881580975822 $65 $121 forward 7 unknown #
coedge $-1 $37 $36 $64 $116 forward $14 $-1 #
coedge $-1 $122 $65 $36 $69 reversed $118 $-1 #
edge $-1 $75 -6.5948702277925833 $119 6.5948702277925833 $68 $123 forward 7 unknown #
coedge $-1 $124 $125 $37 $71 reversed $106 $-1 #
edge $-1 $126 -6.5948702277925833 $76 6.5948702277925833 $70 $127 forward 7 unknown #
coedge $-1 $128 $38 $125 $129 reversed $74 $-1 #
coedge $-1 $38 $128 $122 $130 forward $74 $-1 #
loop $-1 $-1 $38 $105 #
vertex $-1 $130 $131 #
vertex $-1 $71 $132 #
straight-curve $-1 -79.442121646778773 0 -6.8551036383292523 0 -1 0 I I #
face $-1 $-1 $55 $6 $-1 $133 reversed single #
loop $-1 $-1 $94 $40 #
plane-surface $-1 0 50.694144797305846 0 0 -1 0 0 0 -1 forward_v I I I I #
coedge $-1 $134 $92 $95 $135 forward $41 $-1 #
coedge $-1 $98 $43 $44 $86 reversed $25 $-1 #
coedge $-1 $92 $134 $43 $84 reversed $41 $-1 #
edge $-1 $99 -13.976279954524417 $136 13.976279954524417 $83 $137 forward 7 unknown #
coedge $-1 $45 $44 $134 $138 forward $17 $-1 #
edge $-1 $90 -79.442121646778773 $136 79.442121646778773 $82 $139 forward 7 unknown #
coedge $-1 $95 $94 $45 $88 reversed $79 $-1 #
edge $-1 $140 -79.442121646778773 $89 79.442121646778773 $87 $141 forward 7 unknown #
vertex $-1 $47 $142 #
vertex $-1 $101 $143 #
straight-curve $-1 79.442121646778773 0 -13.976279954524417 0 -1 0 I I #
coedge $-1 $81 $83 $48 $93 reversed $41 $-1 #
edge $-1 $96 -50.694144797305846 $99 50.694144797305846 $92 $144 forward 7 unknown #
coedge $-1 $87 $49 $54 $102 forward $79 $-1 #
coedge $-1 $49 $87 $81 $135 reversed $79 $-1 #
vertex $-1 $50 $145 #
straight-curve $-1 0 50.694144797305846 13.976279954524417 -1 0 0 I I #
coedge $-1 $51 $82 $53 $101 reversed $25 $-1 #
vertex $-1 $93 $146 #
straight-curve $-1 0 -50.694144797305846 13.976279954524417 1 0 0 I I #
edge $-1 $56 -13.976279954524417 $90 13.976279954524417 $53 $147 forward 7 unknown #
edge $-1 $57 -13.976279954524417 $89 13.976279954524417 $54 $148 forward 7 unknown #
point $-1 79.442121646778773 -50.694144797305846 13.976279954524417 #
point $-1 79.442121646778773 50.694144797305846 13.976279954524417 #
face $-1 $149 $74 $7 $-1 $150 reversed single #
loop $-1 $-1 $125 $59 #
plane-surface $-1 0 -50.694144797305846 0 0 1 0 0 0 1 forward_v I I I I #
coedge $-1 $151 $152 $153 $154 forward $60 $-1 #
coedge $-1 $155 $62 $156 $157 forward $33 $-1 #
coedge $-1 $62 $155 $158 $159 forward $33 $-1 #
coedge $-1 $160 $161 $62 $112 reversed $162 $-1 #
edge $-1 $163 -50.694144797305846 $164 50.694144797305846 $111 $165 forward 7 unknown #
coedge $-1 $64 $63 $124 $166 reversed $21 $-1 #
coedge $-1 $152 $151 $63 $115 forward $60 $-1 #
edge $-1 $167 -50.694144797305846 $120 50.694144797305846 $63 $168 forward 7 unknown #
edge $-1 $119 -50.694144797305846 $126 50.694144797305846 $64 $169 forward 7 unknown #
coedge $-1 $65 $170 $152 $171 reversed $118 $-1 #
loop $-1 $-1 $170 $149 #
vertex $-1 $69 $172 #
vertex $-1 $171 $173 #
straight-curve $-1 -92.631862102363939 50.694144797305846 -10.415691796426835 0 0 -1 I I #
coedge $-1 $156 $68 $73 $130 reversed $118 $-1 #
straight-curve $-1 -86.036991874571356 50.694144797305846 -6.8551036383292523 -1 0 0 I I #
coedge $-1 $174 $70 $113 $166 forward $106 $-1 #
coedge $-1 $70 $158 $72 $129 forward $106 $-1 #
vertex $-1 $116 $175 #
straight-curve $-1 -86.036991874571356 -50.694144797305846 -6.8551036383292523 1 0 0 I I #
coedge $-1 $73 $72 $155 $176 reversed $74 $-1 #
edge $-1 $177 -13.976279954524417 $76 6.8551036383292523 $72 $178 forward 7 unknown #
edge $-1 $179 -13.976279954524417 $75 6.8551036383292523 $122 $180 forward 7 unknown #
point $-1 -79.442121646778773 50.694144797305846 -6.8551036383292523 #
point $-1 -79.442121646778773 -50.694144797305846 -6.8551036383292523 #
plane-surface $-1 79.442121646778773 0 0 -1 0 0 0 0 1 forward_v I I I I #
coedge $-1 $83 $81 $85 $138 reversed $41 $-1 #
edge $-1 $96 -13.976279954524417 $140 13.976279954524417 $95 $181 forward 7 unknown #
vertex $-1 $138 $182 #
straight-curve $-1 -79.442121646778773 -50.694144797305846 0 0 0 -1 I I #
edge $-1 $136 -50.694144797305846 $140 50.694144797305846 $134 $183 forward 7 unknown #
straight-curve $-1 0 -50.694144797305846 -13.976279954524417 -1 0 0 I I #
vertex $-1 $88 $184 #
straight-curve $-1 0 50.694144797305846 -13.976279954524417 1 0 0 I I #
point $-1 79.442121646778773 50.694144797305846 -13.976279954524417 #
point $-1 79.442121646778773 -50.694144797305846 -13.976279954524417 #
straight-curve $-1 -79.442121646778773 0 13.976279954524417 0 -1 0 I I #
point $-1 -79.442121646778773 50.694144797305846 13.976279954524417 #
point $-1 -79.442121646778773 -50.694144797305846 13.976279954524417 #
straight-curve $-1 79.442121646778773 -50.694144797305846 0 0 0 -1 I I #
straight-curve $-1 79.442121646778773 50.694144797305846 0 0 0 -1 I I #
face $-1 $185 $118 $7 $-1 $186 reversed single #
plane-surface $-1 -79.442121646778773 0 0 1 0 0 0 0 -1 forward_v I I I I #
coedge $-1 $114 $108 $174 $187 forward $60 $-1 #
coedge $-1 $108 $114 $117 $171 forward $60 $-1 #
coedge $-1 $161 $160 $108 $154 reversed $162 $-1 #
edge $-1 $188 -50.694144797305846 $189 50.694144797305846 $153 $190 forward 7 unknown #
coedge $-1 $110 $109 $128 $176 forward $33 $-1 #
coedge $-1 $170 $122 $109 $157 reversed $118 $-1 #
edge $-1 $164 -79.442121646778773 $179 79.442121646778773 $156 $191 forward 7 unknown #
coedge $-1 $125 $192 $110 $159 reversed $106 $-1 #
edge $-1 $177 -79.442121646778773 $163 79.442121646778773 $158 $193 forward 7 unknown #
coedge $-1 $153 $111 $192 $194 forward $162 $-1 #
coedge $-1 $111 $153 $170 $195 reversed $162 $-1 #
loop $-1 $-1 $160 $185 #
vertex $-1 $112 $196 #
vertex $-1 $112 $197 #
straight-curve $-1 79.442121646778773 0 13.976279954524417 0 1 0 I I #
edge $-1 $126 -3.5605881580975822 $167 3.5605881580975822 $113 $198 forward 7 unknown #
vertex $-1 $115 $199 #
straight-curve $-1 -92.631862102363939 0 -13.976279954524417 0 1 0 I I #
straight-curve $-1 -92.631862102363939 0 -6.8551036383292523 0 -1 0 I I #
coedge $-1 $117 $156 $161 $195 forward $118 $-1 #
edge $-1 $120 -92.631862102363939 $188 79.442121646778773 $117 $200 forward 7 unknown #
point $-1 -92.631862102363939 50.694144797305846 -6.8551036383292523 #
point $-1 -92.631862102363939 50.694144797305846 -13.976279954524417 #
coedge $-1 $192 $124 $151 $187 reversed $106 $-1 #
point $-1 -92.631862102363939 -50.694144797305846 -6.8551036383292523 #
edge $-1 $179 -50.694144797305846 $177 50.694144797305846 $128 $201 forward 7 unknown #
vertex $-1 $176 $202 #
straight-curve $-1 -79.442121646778773 -50.694144797305846 0 0 0 -1 I I #
vertex $-1 $157 $203 #
straight-curve $-1 -79.442121646778773 50.694144797305846 0 0 0 -1 I I #
straight-curve $-1 -79.442121646778773 50.694144797305846 0 0 0 -1 I I #
point $-1 -79.442121646778773 -50.694144797305846 -13.976279954524417 #
straight-curve $-1 -79.442121646778773 0 -13.976279954524417 0 1 0 I I #
point $-1 -79.442121646778773 50.694144797305846 -13.976279954524417 #
face $-1 $-1 $162 $7 $-1 $204 reversed single #
plane-surface $-1 0 50.694144797305846 0 0 -1 0 0 0 -1 forward_v I I I I #
edge $-1 $189 -165.47911352135014 $167 6.5948702277925833 $174 $205 forward 7 unknown #
vertex $-1 $154 $206 #
vertex $-1 $194 $207 #
straight-curve $-1 79.442121646778773 0 -13.976279954524417 0 -1 0 I I #
straight-curve $-1 0 50.694144797305846 13.976279954524417 -1 0 0 I I #
coedge $-1 $158 $174 $160 $194 reversed $106 $-1 #
straight-curve $-1 0 -50.694144797305846 13.976279954524417 1 0 0 I I #
edge $-1 $163 -13.976279954524417 $189 13.976279954524417 $160 $208 forward 7 unknown #
edge $-1 $164 -13.976279954524417 $188 13.976279954524417 $161 $209 forward 7 unknown #
point $-1 79.442121646778773 -50.694144797305846 13.976279954524417 #
point $-1 79.442121646778773 50.694144797305846 13.976279954524417 #
straight-curve $-1 -92.631862102363939 -50.694144797305846 -10.415691796426835 0 0 -1 I I #
point $-1 -92.631862102363939 -50.694144797305846 -13.976279954524417 #
straight-curve $-1 0 50.694144797305846 -13.976279954524417 1 0 0 I I #
straight-curve $-1 -79.442121646778773 0 13.976279954524417 0 -1 0 I I #
point $-1 -79.442121646778773 -50.694144797305846 13.976279954524417 #
point $-1 -79.442121646778773 50.694144797305846 13.976279954524417 #
plane-surface $-1 79.442121646778773 0 0 -1 0 0 0 0 1 forward_v I I I I #
straight-curve $-1 -86.036991874571356 -50.694144797305846 -13.976279954524417 -1 0 0 I I #
point $-1 79.442121646778773 50.694144797305846 -13.976279954524417 #
point $-1 79.442121646778773 -50.694144797305846 -13.976279954524417 #
straight-curve $-1 79.442121646778773 -50.694144797305846 0 0 0 -1 I I #
straight-curve $-1 79.442121646778773 50.694144797305846 0 0 0 -1 I I #
End-of-ACIS-data 