500 0 6 0           
7 Unknown 11 ACIS 5.0 NT 24 Thu Mar 25 17:35:29 1999 
-1 9.9999999999999995e-007 1e-010 
body $-1 $6 $-1 $7 #
body $-1 $8 $-1 $9 #
body $-1 $10 $-1 $11 #
body $-1 $12 $-1 $13 #
body $-1 $14 $-1 $15 #
body $-1 $16 $-1 $17 #
lump $-1 $-1 $18 $0 #
transform $-1 1 0 0 0 1 0 0 0 1 63.216040528580585 38.210524475873939 8.151819554692123 1 rotate no_reflect no_shear #
lump $-1 $-1 $19 $1 #
transform $-1 1 0 0 0 1 0 0 0 1 63.216040528580585 38.210524475873939 8.151819554692123 1 rotate no_reflect no_shear #
lump $-1 $-1 $20 $2 #
transform $-1 1 0 0 0 1 0 0 0 1 63.216040528580585 38.210524475873939 8.151819554692123 1 rotate no_reflect no_shear #
lump $-1 $-1 $21 $3 #
transform $-1 1 0 0 0 1 0 0 0 1 63.216040528580585 38.210524475873939 8.151819554692123 1 rotate no_reflect no_shear #
lump $-1 $-1 $22 $4 #
transform $-1 1 0 0 0 1 0 0 0 1 63.216040528580585 38.210524475873939 8.151819554692123 1 rotate no_reflect no_shear #
lump $-1 $-1 $23 $5 #
transform $-1 1 0 0 0 1 0 0 0 1 63.216040528580585 38.210524475873939 8.151819554692123 1 rotate no_reflect no_shear #
shell $-1 $-1 $-1 $24 $-1 $6 #
shell $-1 $-1 $-1 $25 $-1 $8 #
shell $-1 $-1 $-1 $26 $-1 $10 #
shell $-1 $-1 $-1 $27 $-1 $12 #
shell $-1 $-1 $-1 $28 $-1 $14 #
shell $-1 $-1 $-1 $29 $-1 $16 #
face $-1 $30 $31 $18 $-1 $32 reversed single #
face $-1 $33 $34 $19 $-1 $35 forward single #
face $-1 $36 $37 $20 $-1 $38 reversed single #
face $-1 $39 $40 $21 $-1 $41 forward single #
face $-1 $42 $43 $22 $-1 $44 reversed single #
face $-1 $45 $46 $23 $-1 $47 forward single #
face $-1 $48 $49 $18 $-1 $50 forward single #
loop $-1 $-1 $51 $24 #
plane-surface $-1 -63.216040528580585 0 0 1 0 0 0 0 -1 forward_v I I I I #
face $-1 $52 $53 $19 $-1 $54 reversed single #
loop $-1 $-1 $55 $25 #
plane-surface $-1 -63.216040528580585 0 0 1 0 0 0 0 -1 forward_v I I I I #
face $-1 $56 $57 $20 $-1 $58 reversed single #
loop $-1 $-1 $59 $26 #
plane-surface $-1 -22.362304917821138 40.400595994123961 148.7801611944908 1 0 0 0 -0.52991927123019833 -0.84804809178421925 forward_v I I I I #
face $-1 $60 $61 $21 $-1 $62 forward single #
loop $-1 $63 $64 $27 #
cone-surface $-1 -5.6136264973289869 32.122672357322266 3.9425356820594075 0 -0.52991927123019833 -0.84804809178421925 1 0 0 1 I I 0 1 1 forward I I I I #
face $-1 $65 $66 $22 $-1 $67 reversed single #
loop $-1 $-1 $68 $28 #
plane-surface $-1 18.972063525123275 -114.29925122772235 105.08256095889466 -1 0 0 0 -0.6018150307709319 0.79863550430605224 forward_v I I I I #
face $-1 $69 $70 $23 $-1 $71 forward single #
loop $-1 $72 $73 $29 #
cone-surface $-1 8.8603054576926255 -35.19063774073657 5.6825273932883018 0 0.6018150307709319 -0.79863550430605224 1 0 0 1 I I 0 1 1 forward I I I I #
face $-1 $74 $75 $18 $-1 $76 reversed single #
loop $-1 $-1 $77 $30 #
plane-surface $-1 0 0 8.151819554692123 0 0 1 1 0 0 forward_v I I I I #
coedge $-1 $78 $79 $80 $81 reversed $31 $-1 #
face $-1 $82 $83 $19 $-1 $84 reversed single #
loop $-1 $-1 $85 $33 #
plane-surface $-1 0 0 -8.151819554692123 0 0 1 1 0 0 forward_v I I I I #
coedge $-1 $86 $87 $88 $89 forward $34 $-1 #
face $-1 $90 $91 $20 $-1 $92 reversed single #
loop $-1 $-1 $93 $36 #
plane-surface $-1 -5.6136264973289869 -26.598200259804244 41.559676113657531 0 0.52991927123019833 0.84804809178421925 1 0 0 forward_v I I I I #
coedge $-1 $94 $95 $96 $97 reversed $37 $-1 #
face $-1 $-1 $98 $21 $-1 $99 forward single #
loop $-1 $100 $101 $39 #
cone-surface $-1 -5.6136264973289869 31.442350265496927 2.8537927676306598 0 -0.52991927123019833 -0.84804809178421925 0.5 0 0 1 I I -0.70710678118654746 0.70710678118654746 0.5 forward I I I I #
loop $-1 $-1 $102 $27 #
coedge $-1 $64 $64 $103 $104 reversed $40 $-1 #
face $-1 $105 $106 $22 $-1 $107 reversed single #
loop $-1 $-1 $108 $42 #
plane-surface $-1 8.8603054576926397 -38.210524475873939 4.1094121433450681 0 -0.6018150307709319 0.79863550430605224 1 0 0 forward_v I I I I #
coedge $-1 $109 $110 $111 $112 reversed $43 $-1 #
face $-1 $-1 $113 $23 $-1 $114 forward single #
loop $-1 $115 $116 $45 #
cone-surface $-1 8.8603054576926255 -34.552071348029159 4.8351211854049794 0 0.6018150307709319 -0.79863550430605224 0.5 0 0 1 I I -0.70710678118654746 0.70710678118654746 0.5 forward I I I I #
loop $-1 $-1 $117 $29 #
coedge $-1 $73 $73 $118 $119 reversed $46 $-1 #
face $-1 $120 $121 $18 $-1 $122 reversed single #
loop $-1 $-1 $123 $48 #
plane-surface $-1 0 0 -8.151819554692123 0 0 1 1 0 0 forward_v I I I I #
coedge $-1 $124 $125 $126 $127 forward $49 $-1 #
coedge $-1 $128 $51 $129 $130 reversed $31 $-1 #
coedge $-1 $51 $128 $131 $132 forward $31 $-1 #
coedge $-1 $133 $134 $51 $81 forward $75 $-1 #
edge $-1 $135 -38.210524475873939 $136 38.210524475873939 $51 $137 forward 7 unknown #
face $-1 $138 $139 $19 $-1 $140 reversed single #
loop $-1 $-1 $141 $52 #
plane-surface $-1 -67.804818101220349 -36.913336922569002 0 0 1 0 0 0 1 forward_v I I I I #
coedge $-1 $142 $143 $87 $144 forward $53 $-1 #
coedge $-1 $145 $55 $146 $147 reversed $34 $-1 #
coedge $-1 $55 $145 $85 $144 reversed $34 $-1 #
coedge $-1 $148 $149 $55 $89 reversed $150 $-1 #
edge $-1 $151 -8.151819554692123 $152 8.151819554692123 $88 $153 forward 7 unknown #
face $-1 $154 $155 $20 $-1 $156 forward single #
loop $-1 $-1 $157 $56 #
plane-surface $-1 11.135051923163164 40.400595994123961 148.7801611944908 -1 0 0 0 0.52991927123019833 0.84804809178421925 forward_v I I I I #
coedge $-1 $158 $159 $160 $161 reversed $57 $-1 #
coedge $-1 $95 $59 $162 $163 reversed $37 $-1 #
coedge $-1 $59 $94 $158 $164 reversed $37 $-1 #
coedge $-1 $160 $165 $59 $97 forward $155 $-1 #
edge $-1 $166 -18.010226478811958 $167 -6.6652471541291476 $96 $168 forward 7 unknown #
loop $-1 $-1 $103 $60 #
plane-surface $-1 -5.6136264973289869 -26.598200259804244 41.559676113657531 0 0.52991927123019833 0.84804809178421925 1 0 0 forward_v I I I I #
loop $-1 $-1 $169 $39 #
coedge $-1 $101 $101 $102 $170 reversed $61 $-1 #
coedge $-1 $102 $102 $101 $170 forward $63 $-1 #
coedge $-1 $103 $103 $64 $104 forward $98 $-1 #
edge $-1 $171 -5.3693350917480021e-015 $171 6.2831853071795951 $103 $172 forward 7 unknown #
face $-1 $173 $174 $22 $-1 $175 forward single #
loop $-1 $-1 $176 $65 #
plane-surface $-1 -1.2514526097379957 -114.29925122772235 105.08256095889466 1 0 0 0 0.6018150307709319 -0.79863550430605224 forward_v I I I I #
coedge $-1 $177 $178 $179 $180 reversed $66 $-1 #
coedge $-1 $110 $68 $181 $182 reversed $43 $-1 #
coedge $-1 $68 $109 $177 $183 reversed $43 $-1 #
coedge $-1 $179 $184 $68 $112 forward $174 $-1 #
edge $-1 $185 18.939101137987237 $186 24.303556853618083 $111 $187 forward 7 unknown #
loop $-1 $-1 $118 $69 #
plane-surface $-1 8.8603054576926397 -38.210524475873939 4.1094121433450681 0 -0.6018150307709319 0.79863550430605224 1 0 0 forward_v I I I I #
loop $-1 $-1 $188 $45 #
coedge $-1 $116 $116 $117 $189 reversed $70 $-1 #
coedge $-1 $117 $117 $116 $189 forward $72 $-1 #
coedge $-1 $118 $118 $73 $119 forward $113 $-1 #
edge $-1 $190 -5.1401274380657878e-015 $190 6.2831853071795951 $118 $191 forward 7 unknown #
face $-1 $192 $193 $18 $-1 $194 reversed single #
loop $-1 $-1 $129 $74 #
plane-surface $-1 0 -38.210524475873939 0 0 1 0 0 0 1 forward_v I I I I #
coedge $-1 $134 $133 $195 $196 forward $75 $-1 #
coedge $-1 $197 $77 $198 $199 forward $49 $-1 #
coedge $-1 $77 $197 $200 $201 forward $49 $-1 #
coedge $-1 $202 $203 $77 $127 reversed $204 $-1 #
edge $-1 $205 -38.210524475873939 $206 38.210524475873939 $126 $207 forward 7 unknown #
coedge $-1 $79 $78 $197 $208 reversed $31 $-1 #
coedge $-1 $209 $200 $78 $130 forward $121 $-1 #
edge $-1 $210 -8.151819554692123 $135 8.151819554692123 $78 $211 forward 7 unknown #
coedge $-1 $198 $212 $79 $132 reversed $193 $-1 #
edge $-1 $213 -8.151819554692123 $136 8.151819554692123 $131 $214 forward 7 unknown #
coedge $-1 $123 $80 $212 $215 forward $75 $-1 #
coedge $-1 $80 $123 $209 $216 forward $75 $-1 #
vertex $-1 $81 $217 #
vertex $-1 $215 $218 #
straight-curve $-1 -63.216040528580585 0 -8.151819554692123 0 1 0 I I #
face $-1 $219 $150 $19 $-1 $220 reversed single #
loop $-1 $-1 $221 $82 #
plane-surface $-1 -72.393595673860119 -34.617806229704236 0 1 0 0 0 0 -1 forward_v I I I I #
coedge $-1 $222 $223 $224 $225 forward $83 $-1 #
coedge $-1 $226 $85 $222 $227 forward $53 $-1 #
coedge $-1 $85 $226 $148 $228 forward $53 $-1 #
edge $-1 $151 32.32227553683947 $229 36.913336922569002 $85 $230 forward 7 unknown #
coedge $-1 $87 $86 $231 $232 forward $34 $-1 #
coedge $-1 $233 $234 $86 $147 forward $235 $-1 #
edge $-1 $236 -36.913336922569002 $152 -32.32227553683947 $146 $237 forward 7 unknown #
coedge $-1 $238 $88 $143 $228 reversed $150 $-1 #
coedge $-1 $88 $238 $233 $239 reversed $150 $-1 #
loop $-1 $-1 $88 $138 #
vertex $-1 $144 $240 #
vertex $-1 $239 $241 #
straight-curve $-1 -63.216040528580585 -32.32227553683947 0 0 0 1 I I #
face $-1 $-1 $242 $20 $-1 $243 reversed single #
loop $-1 $-1 $96 $90 #
plane-surface $-1 0 0 8.151819554692123 0 0 1 1 0 0 forward_v I I I I #
coedge $-1 $244 $245 $246 $247 reversed $91 $-1 #
coedge $-1 $248 $93 $95 $164 forward $57 $-1 #
coedge $-1 $93 $248 $244 $249 forward $57 $-1 #
coedge $-1 $246 $96 $93 $161 forward $155 $-1 #
edge $-1 $167 -19.555491669156645 $250 13.941865171827658 $160 $251 forward 7 unknown #
coedge $-1 $252 $253 $94 $163 forward $242 $-1 #
edge $-1 $254 -73.327391050745405 $166 -66.238261042553276 $162 $255 forward 7 unknown #
edge $-1 $167 63.043294276521891 $254 76.421048951747863 $95 $256 forward 7 unknown #
coedge $-1 $96 $246 $252 $257 forward $155 $-1 #
vertex $-1 $163 $258 #
vertex $-1 $97 $259 #
straight-curve $-1 -22.362304917821138 20.20029799706198 8.1518195546921248 0 -1 0 I I #
coedge $-1 $169 $169 $-1 $260 reversed $100 $-1 #
edge $-1 $261 0 $261 6.2831853071796004 $101 $262 forward 7 unknown #
vertex $-1 $104 $263 #
ellipse-curve $-1 -5.6136264973289869 32.538034813532519 4.6072545505960685 0 0.52991927123019833 0.84804809178421925 1 0 0 1 I I #
face $-1 $-1 $264 $22 $-1 $265 reversed single #
loop $-1 $-1 $111 $105 #
plane-surface $-1 0 0 8.151819554692123 0 0 1 1 0 0 forward_v I I I I #
coedge $-1 $266 $267 $268 $269 reversed $106 $-1 #
coedge $-1 $270 $108 $110 $183 forward $66 $-1 #
coedge $-1 $108 $270 $266 $271 forward $66 $-1 #
coedge $-1 $268 $111 $108 $180 forward $174 $-1 #
edge $-1 $186 -14.541910796276955 $272 5.6816053385843155 $179 $273 forward 7 unknown #
coedge $-1 $274 $275 $109 $182 forward $264 $-1 #
edge $-1 $276 -48.431868336102262 $185 -44.389460924755205 $181 $277 forward 7 unknown #
edge $-1 $186 -6.7170263364287965 $276 0 $110 $278 forward 7 unknown #
coedge $-1 $111 $268 $274 $279 forward $174 $-1 #
vertex $-1 $112 $280 #
vertex $-1 $112 $281 #
straight-curve $-1 18.972063525123275 -57.149625613861176 8.1518195546921248 0 1 0 I I #
coedge $-1 $188 $188 $-1 $282 reversed $115 $-1 #
edge $-1 $283 0 $283 6.2831853071796004 $116 $284 forward 7 unknown #
vertex $-1 $119 $285 #
ellipse-curve $-1 8.8603054576926255 -35.528296618058512 6.1306158490185974 0 -0.6018150307709319 0.79863550430605224 1 0 0 1 I I #
face $-1 $-1 $204 $18 $-1 $286 reversed single #
loop $-1 $-1 $287 $120 #
plane-surface $-1 0 38.210524475873939 0 0 -1 0 0 0 -1 forward_v I I I I #
coedge $-1 $203 $202 $123 $196 reversed $204 $-1 #
edge $-1 $288 -38.210524475873939 $289 38.210524475873939 $195 $290 forward 7 unknown #
coedge $-1 $125 $124 $128 $208 forward $49 $-1 #
coedge $-1 $287 $131 $124 $199 reversed $193 $-1 #
edge $-1 $206 -63.216040528580585 $213 63.216040528580585 $198 $291 forward 7 unknown #
coedge $-1 $129 $292 $125 $201 reversed $121 $-1 #
edge $-1 $210 -63.216040528580585 $205 63.216040528580585 $200 $293 forward 7 unknown #
coedge $-1 $195 $126 $292 $294 forward $204 $-1 #
coedge $-1 $126 $195 $287 $295 reversed $204 $-1 #
loop $-1 $-1 $202 $192 #
vertex $-1 $127 $296 #
vertex $-1 $127 $297 #
straight-curve $-1 63.216040528580585 0 8.151819554692123 0 1 0 I I #
edge $-1 $213 -38.210524475873939 $210 38.210524475873939 $128 $298 forward 7 unknown #
coedge $-1 $292 $129 $134 $216 reversed $121 $-1 #
vertex $-1 $208 $299 #
straight-curve $-1 -63.216040528580585 -38.210524475873939 0 0 0 -1 I I #
coedge $-1 $131 $287 $133 $215 reversed $193 $-1 #
vertex $-1 $199 $300 #
straight-curve $-1 -63.216040528580585 38.210524475873939 0 0 0 -1 I I #
edge $-1 $136 -63.216040528580585 $288 63.216040528580585 $212 $301 forward 7 unknown #
edge $-1 $289 -63.216040528580585 $135 63.216040528580585 $209 $302 forward 7 unknown #
point $-1 -63.216040528580585 -38.210524475873939 -8.151819554692123 #
point $-1 -63.216040528580585 38.210524475873939 -8.151819554692123 #
face $-1 $-1 $235 $19 $-1 $303 forward single #
plane-surface $-1 -67.804818101220349 -32.32227553683947 0 0 -1 0 0 0 -1 forward_v I I I I #
coedge $-1 $304 $305 $238 $306 forward $139 $-1 #
coedge $-1 $231 $141 $142 $227 reversed $83 $-1 #
coedge $-1 $141 $231 $234 $307 reversed $83 $-1 #
coedge $-1 $305 $304 $141 $225 reversed $139 $-1 #
edge $-1 $308 -8.151819554692123 $309 8.151819554692123 $224 $310 forward 7 unknown #
coedge $-1 $143 $142 $304 $311 forward $53 $-1 #
edge $-1 $229 -4.5887775726397706 $309 4.5887775726397706 $222 $312 forward 7 unknown #
edge $-1 $313 -4.5887775726397706 $151 4.5887775726397706 $148 $314 forward 7 unknown #
vertex $-1 $227 $315 #
straight-curve $-1 -63.216040528580585 0 -8.151819554692123 0 -1 0 I I #
coedge $-1 $223 $222 $145 $232 reversed $83 $-1 #
edge $-1 $236 -8.151819554692123 $229 8.151819554692123 $231 $316 forward 7 unknown #
coedge $-1 $317 $146 $149 $239 forward $235 $-1 #
coedge $-1 $146 $317 $223 $307 forward $235 $-1 #
loop $-1 $-1 $146 $219 #
vertex $-1 $147 $318 #
straight-curve $-1 -63.216040528580585 0 8.151819554692123 0 1 0 I I #
coedge $-1 $149 $148 $221 $306 reversed $150 $-1 #
edge $-1 $152 -4.5887775726397706 $319 4.5887775726397706 $149 $320 forward 7 unknown #
point $-1 -63.216040528580578 -32.32227553683947 -8.151819554692123 #
point $-1 -63.216040528580578 -32.32227553683947 8.151819554692123 #
loop $-1 $-1 $162 $154 #
plane-surface $-1 0 38.210524475873939 0 0 -1 0 0 0 -1 forward_v I I I I #
coedge $-1 $245 $157 $159 $249 reversed $91 $-1 #
coedge $-1 $157 $244 $321 $322 reversed $91 $-1 #
coedge $-1 $165 $160 $157 $247 forward $155 $-1 #
edge $-1 $250 6.6652471541291476 $323 18.010226478811958 $246 $324 forward 7 unknown #
coedge $-1 $159 $158 $253 $325 reversed $57 $-1 #
edge $-1 $326 -76.421048951747863 $250 -63.043294276521891 $244 $327 forward 7 unknown #
vertex $-1 $161 $328 #
straight-curve $-1 -2.8068132486644934 26.865545151191135 8.1518195546921177 1 0 0 I I #
coedge $-1 $321 $162 $165 $257 reversed $242 $-1 #
coedge $-1 $162 $321 $248 $325 forward $242 $-1 #
vertex $-1 $163 $329 #
straight-curve $-1 -22.362304917821138 38.210524475873939 74.390080597245401 0 0 1 I I #
straight-curve $-1 -22.362304917821138 -26.598200259804244 41.559676113657531 0 0.84804809178421925 -0.52991927123019833 I I #
edge $-1 $323 -11.135051923163164 $166 22.362304917821138 $252 $330 forward 7 unknown #
point $-1 -22.362304917821138 38.210524475873939 8.151819554692123 #
point $-1 -22.362304917821138 26.865545151191128 8.1518195546921248 #
edge $-1 $331 1 $331 0 $169 $-1 forward 7 unknown #
vertex $-1 $170 $332 #
ellipse-curve $-1 -5.6136264973289869 31.707309901112026 3.2778168135227697 0 0.52991927123019833 0.84804809178421925 1 0 0 1 I I #
point $-1 -4.6136264973289869 32.538034813532498 4.6072545505960445 #
loop $-1 $-1 $181 $173 #
plane-surface $-1 0 -38.210524475873939 0 0 1 0 0 0 1 forward_v I I I I #
coedge $-1 $267 $176 $178 $271 reversed $106 $-1 #
coedge $-1 $176 $266 $333 $334 reversed $106 $-1 #
coedge $-1 $184 $179 $176 $269 forward $174 $-1 #
edge $-1 $272 -24.303556853618083 $335 -18.939101137987237 $268 $336 forward 7 unknown #
coedge $-1 $178 $177 $275 $337 reversed $66 $-1 #
edge $-1 $338 0 $272 6.7170263364287965 $266 $339 forward 7 unknown #
vertex $-1 $180 $340 #
straight-curve $-1 4.4301527288463198 -32.846068760243099 8.151819554692123 -1 0 0 I I #
coedge $-1 $333 $181 $184 $279 reversed $264 $-1 #
coedge $-1 $181 $333 $270 $337 forward $264 $-1 #
vertex $-1 $182 $341 #
straight-curve $-1 18.972063525123275 -38.210524475873939 52.54128047944733 0 0 1 I I #
straight-curve $-1 18.972063525123275 -38.210524475873939 4.1094121433450681 0 -0.79863550430605224 -0.6018150307709319 I I #
edge $-1 $335 -1.2514526097379957 $185 18.972063525123275 $274 $342 forward 7 unknown #
point $-1 18.972063525123275 -38.210524475873939 8.151819554692123 #
point $-1 18.972063525123275 -32.846068760243092 8.151819554692123 #
edge $-1 $343 1 $343 0 $188 $-1 forward 7 unknown #
vertex $-1 $189 $344 #
ellipse-curve $-1 8.8603054576926255 -34.852978863414627 5.2344389375580054 0 -0.6018150307709319 0.79863550430605224 1 0 0 1 I I #
point $-1 9.8603054576926255 -35.528296618058519 6.1306158490185982 #
plane-surface $-1 63.216040528580585 0 0 -1 0 0 0 0 1 forward_v I I I I #
coedge $-1 $212 $198 $203 $295 forward $193 $-1 #
vertex $-1 $196 $345 #
vertex $-1 $294 $346 #
straight-curve $-1 63.216040528580585 0 -8.151819554692123 0 -1 0 I I #
straight-curve $-1 0 38.210524475873939 8.151819554692123 -1 0 0 I I #
coedge $-1 $200 $209 $202 $294 reversed $121 $-1 #
straight-curve $-1 0 -38.210524475873939 8.151819554692123 1 0 0 I I #
edge $-1 $205 -8.151819554692123 $289 8.151819554692123 $202 $347 forward 7 unknown #
edge $-1 $206 -8.151819554692123 $288 8.151819554692123 $203 $348 forward 7 unknown #
point $-1 63.216040528580585 -38.210524475873939 8.151819554692123 #
point $-1 63.216040528580585 38.210524475873939 8.151819554692123 #
straight-curve $-1 -63.216040528580585 0 8.151819554692123 0 -1 0 I I #
point $-1 -63.216040528580585 -38.210524475873939 8.151819554692123 #
point $-1 -63.216040528580585 38.210524475873939 8.151819554692123 #
straight-curve $-1 0 38.210524475873939 -8.151819554692123 1 0 0 I I #
straight-curve $-1 0 -38.210524475873939 -8.151819554692123 -1 0 0 I I #
plane-surface $-1 0 0 8.151819554692123 0 0 1 1 0 0 forward_v I I I I #
coedge $-1 $224 $221 $226 $311 reversed $139 $-1 #
coedge $-1 $221 $224 $317 $349 reversed $139 $-1 #
edge $-1 $319 -8.151819554692123 $313 8.151819554692123 $238 $350 forward 7 unknown #
edge $-1 $308 -4.5887775726397706 $236 4.5887775726397706 $223 $351 forward 7 unknown #
vertex $-1 $349 $352 #
vertex $-1 $311 $353 #
straight-curve $-1 -72.393595673860119 -36.913336922569002 0 0 0 -1 I I #
edge $-1 $309 -2.2955306928647659 $313 2.2955306928647659 $304 $354 forward 7 unknown #
straight-curve $-1 -67.804818101220349 -36.913336922569002 -8.151819554692123 -1 0 0 I I #
vertex $-1 $228 $355 #
straight-curve $-1 -67.804818101220349 -32.32227553683947 -8.151819554692123 1 0 0 I I #
point $-1 -63.216040528580578 -36.913336922569002 -8.151819554692123 #
straight-curve $-1 -63.216040528580585 -36.913336922569002 0 0 0 -1 I I #
coedge $-1 $234 $233 $305 $349 forward $235 $-1 #
point $-1 -63.216040528580578 -36.913336922569002 8.151819554692123 #
vertex $-1 $239 $356 #
straight-curve $-1 -67.804818101220349 -32.32227553683947 8.151819554692123 -1 0 0 I I #
coedge $-1 $253 $252 $245 $322 forward $242 $-1 #
edge $-1 $323 66.238261042553276 $326 73.327391050745405 $321 $357 forward 7 unknown #
vertex $-1 $257 $358 #
straight-curve $-1 11.135051923163164 20.20029799706198 8.1518195546921248 0 1 0 I I #
edge $-1 $326 -13.941865171827658 $254 19.555491669156645 $253 $359 forward 7 unknown #
vertex $-1 $325 $360 #
straight-curve $-1 11.135051923163164 -26.598200259804244 41.559676113657531 0 -0.84804809178421925 0.52991927123019833 I I #
point $-1 11.135051923163164 26.865545151191128 8.1518195546921248 #
point $-1 -22.362304917821138 38.210524475873939 1.062689546499989 #
straight-curve $-1 0 38.210524475873939 8.151819554692123 -1 0 0 I I #
vertex $-1 $260 $361 #
point $-1 -4.6136264973289869 31.707309901112026 3.2778168135227697 #
coedge $-1 $275 $274 $267 $334 forward $264 $-1 #
edge $-1 $335 44.389460924755205 $338 48.431868336102262 $333 $362 forward 7 unknown #
vertex $-1 $279 $363 #
straight-curve $-1 -1.2514526097379957 -57.149625613861176 8.1518195546921248 0 -1 0 I I #
edge $-1 $338 -5.6816053385843155 $276 14.541910796276955 $275 $364 forward 7 unknown #
vertex $-1 $337 $365 #
straight-curve $-1 -1.2514526097379957 -38.210524475873939 4.1094121433450681 0 0.79863550430605224 0.6018150307709319 I I #
point $-1 -1.2514526097379957 -32.846068760243092 8.151819554692123 #
point $-1 18.972063525123275 -38.210524475873939 4.1094121433450681 #
straight-curve $-1 0 -38.210524475873939 8.151819554692123 1 0 0 I I #
vertex $-1 $282 $366 #
point $-1 9.8603054576926255 -34.852978863414627 5.2344389375580054 #
point $-1 63.216040528580585 38.210524475873939 -8.151819554692123 #
point $-1 63.216040528580585 -38.210524475873939 -8.151819554692123 #
straight-curve $-1 63.216040528580585 -38.210524475873939 0 0 0 -1 I I #
straight-curve $-1 63.216040528580585 38.210524475873939 0 0 0 -1 I I #
edge $-1 $319 -2.2955306928647659 $308 2.2955306928647659 $305 $367 forward 7 unknown #
straight-curve $-1 -72.393595673860119 -32.32227553683947 0 0 0 -1 I I #
straight-curve $-1 -67.804818101220349 -36.913336922569002 8.151819554692123 1 0 0 I I #
point $-1 -72.393595673860119 -36.913336922569002 8.151819554692123 #
point $-1 -72.393595673860119 -36.913336922569002 -8.151819554692123 #
straight-curve $-1 -72.393595673860119 -34.617806229704236 -8.151819554692123 0 1 0 I I #
point $-1 -72.393595673860119 -32.32227553683947 -8.151819554692123 #
point $-1 -72.393595673860119 -32.32227553683947 8.151819554692123 #
straight-curve $-1 11.135051923163164 38.210524475873939 74.390080597245401 0 0 -1 I I #
point $-1 11.135051923163164 38.210524475873939 8.151819554692123 #
straight-curve $-1 -2.8068132486644934 38.210524475873939 1.0626895464999926 -1 0 0 I I #
point $-1 11.135051923163164 38.210524475873939 1.062689546499989 #
point $-1 -5.6136264973289869 31.177390629881828 2.42976872173855 #
straight-curve $-1 -1.2514526097379957 -38.210524475873939 52.54128047944733 0 0 -1 I I #
point $-1 -1.2514526097379957 -38.210524475873939 8.151819554692123 #
straight-curve $-1 4.4301527288463198 -38.210524475873939 4.1094121433450708 1 0 0 I I #
point $-1 -1.2514526097379957 -38.210524475873939 4.1094121433450681 #
point $-1 8.8603054576926255 -34.251163832643691 4.4358034332519534 #
straight-curve $-1 -72.393595673860119 -34.617806229704236 8.151819554692123 0 -1 0 I I #
End-of-ACIS-data 