500 0 5 0           
7 Unknown 11 ACIS 5.0 NT 24 Fri Mar 26 19:21:44 1999 
-1 9.9999999999999995e-007 1e-010 
body $-1 $5 $-1 $6 #
body $-1 $7 $-1 $8 #
body $-1 $9 $-1 $10 #
body $-1 $11 $-1 $12 #
body $-1 $13 $-1 $14 #
lump $-1 $-1 $15 $0 #
transform $-1 1 0 0 0 1 0 0 0 1 77.455977050080875 48.071542725481571 18.485398500003445 1 rotate no_reflect no_shear #
lump $-1 $-1 $16 $1 #
transform $-1 1 0 0 0 1 0 0 0 1 77.455977050080875 48.071542725481571 18.485398500003445 1 rotate no_reflect no_shear #
lump $-1 $-1 $17 $2 #
transform $-1 1 0 0 0 1 0 0 0 1 77.455977050080875 48.071542725481571 18.485398500003445 1 rotate no_reflect no_shear #
lump $-1 $-1 $18 $3 #
transform $-1 1 0 0 0 1 0 0 0 1 77.455977050080875 48.071542725481571 18.485398500003445 1 rotate no_reflect no_shear #
lump $-1 $-1 $19 $4 #
transform $-1 1 0 0 0 1 0 0 0 1 77.455977050080875 48.071542725481571 18.485398500003445 1 rotate no_reflect no_shear #
shell $-1 $-1 $-1 $20 $-1 $5 #
shell $-1 $-1 $-1 $21 $-1 $7 #
shell $-1 $-1 $-1 $22 $-1 $9 #
shell $-1 $-1 $-1 $23 $-1 $11 #
shell $-1 $-1 $-1 $24 $-1 $13 #
face $-1 $25 $26 $15 $-1 $27 forward single #
face $-1 $28 $29 $16 $-1 $30 forward single #
face $-1 $31 $32 $17 $-1 $33 forward single #
face $-1 $34 $35 $18 $-1 $36 reversed single #
face $-1 $37 $38 $19 $-1 $39 reversed single #
face $-1 $40 $41 $15 $-1 $42 reversed single #
loop $-1 $-1 $43 $20 #
plane-surface $-1 0 0 18.485398500003445 0 0 1 1 0 0 forward_v I I I I #
face $-1 $44 $45 $16 $-1 $46 forward single #
loop $-1 $-1 $47 $21 #
plane-surface $-1 -66.33911440200086 -41.936220515729765 0 0 -1 0 0 0 -1 forward_v I I I I #
face $-1 $48 $49 $17 $-1 $50 forward single #
loop $-1 $-1 $51 $22 #
plane-surface $-1 70.468668083432917 -171.78973147467357 95.887138098810013 -1 0 0 0 -0.79863551827123203 0.60181501223851219 forward_v I I I I #
face $-1 $52 $53 $18 $-1 $54 reversed single #
loop $-1 $55 $56 $23 #
cone-surface $-1 55.96146074813494 -40.379685475887349 9.2693858380689029 0 0.79863551827123203 -0.60181501223851219 2.5 0 0 1 I I 0 1 2.5 forward I I I I #
face $-1 $57 $58 $19 $-1 $59 reversed single #
loop $-1 $60 $61 $24 #
cone-surface $-1 64.66578514931372 -40.379685475887349 9.2693858380689029 0 0.79863551827123203 -0.60181501223851219 2.5 0 0 1 I I 0 1 2.5 forward I I I I #
face $-1 $62 $63 $15 $-1 $64 reversed single #
loop $-1 $-1 $65 $25 #
plane-surface $-1 0 0 -18.485398500003445 0 0 1 1 0 0 forward_v I I I I #
coedge $-1 $66 $67 $68 $69 forward $26 $-1 #
face $-1 $70 $71 $16 $-1 $72 forward single #
loop $-1 $-1 $73 $28 #
plane-surface $-1 -55.222251753920844 -45.003881620605668 0 -1 0 0 0 0 1 forward_v I I I I #
coedge $-1 $74 $75 $76 $77 reversed $29 $-1 #
face $-1 $78 $79 $17 $-1 $80 forward single #
loop $-1 $-1 $81 $31 #
plane-surface $-1 60.31362294872433 -48.071542725481592 2.6587985461293329 0 -0.79863551827123203 0.60181501223851219 1 0 0 forward_v I I I I #
coedge $-1 $82 $83 $84 $85 reversed $32 $-1 #
face $-1 $86 $87 $18 $-1 $88 forward single #
loop $-1 $89 $90 $34 #
cone-surface $-1 55.96146074813494 -37.65263290621138 7.214404387773282 0 0.79863551827123203 -0.60181501223851219 1.25 0 0 1 I I -0.70710678118654746 0.70710678118654746 1.25 forward I I I I #
loop $-1 $-1 $91 $23 #
coedge $-1 $56 $56 $92 $93 reversed $35 $-1 #
face $-1 $94 $95 $19 $-1 $96 reversed single #
loop $-1 $97 $98 $37 #
cone-surface $-1 64.66578514931372 -37.65263290621138 7.214404387773282 0 0.79863551827123203 -0.60181501223851219 1.25 0 0 1 I I -0.70710678118654746 0.70710678118654746 1.25 forward I I I I #
loop $-1 $-1 $99 $24 #
coedge $-1 $61 $61 $100 $101 reversed $38 $-1 #
face $-1 $102 $103 $15 $-1 $104 reversed single #
loop $-1 $-1 $105 $40 #
plane-surface $-1 0 -48.071542725481571 0 0 1 0 0 0 1 forward_v I I I I #
coedge $-1 $106 $107 $108 $109 forward $41 $-1 #
coedge $-1 $110 $43 $111 $112 forward $26 $-1 #
coedge $-1 $43 $110 $113 $114 forward $26 $-1 #
coedge $-1 $115 $116 $43 $69 reversed $117 $-1 #
edge $-1 $118 -48.071542725481571 $119 48.071542725481571 $68 $120 forward 7 unknown #
face $-1 $121 $122 $16 $-1 $123 reversed single #
loop $-1 $-1 $124 $44 #
plane-surface $-1 0 0 18.485398500003445 0 0 1 1 0 0 forward_v I I I I #
coedge $-1 $125 $126 $127 $128 reversed $45 $-1 #
coedge $-1 $129 $47 $124 $130 reversed $29 $-1 #
coedge $-1 $47 $129 $131 $132 reversed $29 $-1 #
coedge $-1 $126 $125 $47 $77 forward $45 $-1 #
edge $-1 $133 -18.485398500003445 $134 18.485398500003445 $76 $135 forward 7 unknown #
face $-1 $136 $137 $17 $-1 $138 forward single #
loop $-1 $-1 $139 $48 #
plane-surface $-1 50.158577814015743 -171.78973147467357 95.887138098810013 1 0 0 0 0.79863551827123203 -0.60181501223851219 forward_v I I I I #
coedge $-1 $140 $141 $142 $143 reversed $49 $-1 #
coedge $-1 $83 $51 $141 $144 forward $32 $-1 #
coedge $-1 $51 $82 $145 $146 reversed $32 $-1 #
coedge $-1 $147 $142 $51 $85 forward $137 $-1 #
edge $-1 $148 -49.749521167369757 $149 -37.823323011855216 $84 $150 forward 7 unknown #
face $-1 $151 $152 $18 $-1 $153 forward single #
loop $-1 $-1 $154 $52 #
plane-surface $-1 70.468668083432917 -171.78973147467357 95.887138098810013 -1 0 0 0 -0.79863551827123203 0.60181501223851219 forward_v I I I I #
loop $-1 $-1 $155 $34 #
coedge $-1 $90 $90 $91 $156 forward $53 $-1 #
coedge $-1 $91 $91 $90 $156 reversed $55 $-1 #
coedge $-1 $92 $92 $56 $93 forward $152 $-1 #
edge $-1 $157 1.1107279036944859e-015 $157 6.2831853071796013 $92 $158 forward 7 unknown #
face $-1 $159 $160 $19 $-1 $161 reversed single #
loop $-1 $162 $163 $57 #
cone-surface $-1 55.96146074813494 -40.379685475887349 9.2693858380689029 0 0.79863551827123203 -0.60181501223851219 2.5 0 0 1 I I 0 1 2.5 forward I I I I #
loop $-1 $-1 $164 $37 #
coedge $-1 $98 $98 $99 $165 forward $58 $-1 #
coedge $-1 $99 $99 $98 $165 reversed $60 $-1 #
coedge $-1 $100 $100 $61 $101 forward $166 $-1 #
edge $-1 $167 1.1107279036944859e-015 $167 6.2831853071796013 $100 $168 forward 7 unknown #
face $-1 $169 $170 $15 $-1 $171 reversed single #
loop $-1 $-1 $172 $62 #
plane-surface $-1 -77.455977050080875 0 0 1 0 0 0 0 -1 forward_v I I I I #
coedge $-1 $173 $113 $174 $175 forward $63 $-1 #
coedge $-1 $176 $65 $173 $177 forward $41 $-1 #
coedge $-1 $65 $176 $178 $179 forward $41 $-1 #
coedge $-1 $116 $115 $65 $109 reversed $117 $-1 #
edge $-1 $180 -48.071542725481571 $181 48.071542725481571 $108 $182 forward 7 unknown #
coedge $-1 $67 $66 $183 $184 forward $26 $-1 #
coedge $-1 $185 $186 $66 $112 reversed $170 $-1 #
edge $-1 $119 -77.455977050080875 $187 77.455977050080875 $111 $188 forward 7 unknown #
coedge $-1 $105 $189 $67 $114 reversed $63 $-1 #
edge $-1 $190 -77.455977050080875 $118 77.455977050080875 $113 $191 forward 7 unknown #
coedge $-1 $108 $68 $189 $192 forward $117 $-1 #
coedge $-1 $68 $108 $185 $193 reversed $117 $-1 #
loop $-1 $-1 $115 $169 #
vertex $-1 $69 $194 #
vertex $-1 $69 $195 #
straight-curve $-1 77.455977050080875 0 18.485398500003445 0 1 0 I I #
face $-1 $196 $197 $16 $-1 $198 reversed single #
loop $-1 $-1 $127 $70 #
plane-surface $-1 0 -48.071542725481571 0 0 1 0 0 0 1 forward_v I I I I #
coedge $-1 $199 $200 $74 $130 forward $71 $-1 #
coedge $-1 $76 $73 $199 $201 reversed $45 $-1 #
coedge $-1 $73 $76 $202 $203 reversed $45 $-1 #
coedge $-1 $204 $205 $73 $128 forward $122 $-1 #
edge $-1 $206 -18.485398500003445 $207 18.485398500003445 $127 $208 forward 7 unknown #
coedge $-1 $75 $74 $209 $210 reversed $29 $-1 #
edge $-1 $211 -44.286419849080445 $133 -22.052694552920414 $124 $212 forward 7 unknown #
coedge $-1 $213 $202 $75 $132 forward $197 $-1 #
edge $-1 $134 22.052694552920414 $214 44.286419849080445 $131 $215 forward 7 unknown #
vertex $-1 $130 $216 #
vertex $-1 $132 $217 #
straight-curve $-1 -55.222251753920844 -41.936220515729765 0 0 0 -1 I I #
face $-1 $218 $219 $17 $-1 $220 forward single #
loop $-1 $-1 $221 $78 #
plane-surface $-1 0 0 18.485398500003445 0 0 1 1 0 0 forward_v I I I I #
coedge $-1 $222 $223 $221 $224 reversed $79 $-1 #
coedge $-1 $225 $81 $223 $226 reversed $49 $-1 #
coedge $-1 $81 $225 $82 $144 reversed $49 $-1 #
coedge $-1 $84 $221 $81 $143 forward $137 $-1 #
edge $-1 $227 20.001766339653578 $148 40.311856609070752 $142 $228 forward 7 unknown #
edge $-1 $148 -19.817049945553627 $229 -3.5527045197628586e-014 $82 $230 forward 7 unknown #
coedge $-1 $231 $232 $83 $146 forward $233 $-1 #
edge $-1 $149 29.458170549401562 $229 45.284770503275645 $145 $234 forward 7 unknown #
coedge $-1 $235 $84 $232 $236 forward $137 $-1 #
vertex $-1 $143 $237 #
vertex $-1 $236 $238 #
straight-curve $-1 70.468668083432917 -85.894865737336787 18.485398500003448 0 -1 0 I I #
face $-1 $239 $240 $18 $-1 $241 forward single #
loop $-1 $242 $92 $86 #
plane-surface $-1 60.31362294872433 -48.071542725481592 2.6587985461293329 0 -0.79863551827123203 0.60181501223851219 1 0 0 forward_v I I I I #
coedge $-1 $243 $244 $245 $246 reversed $87 $-1 #
coedge $-1 $155 $155 $-1 $247 forward $89 $-1 #
edge $-1 $248 0 $248 6.2831853071796004 $90 $249 forward 7 unknown #
vertex $-1 $93 $250 #
ellipse-curve $-1 55.96146074813494 -42.1084436477243 10.5720985230664 0 0.79863551827123203 -0.60181501223851219 2.5 0 0 1 I I #
face $-1 $251 $252 $19 $-1 $253 forward single #
loop $-1 $254 $255 $94 #
cone-surface $-1 55.96146074813494 -37.65263290621138 7.214404387773282 0 0.79863551827123203 -0.60181501223851219 1.25 0 0 1 I I -0.70710678118654746 0.70710678118654746 1.25 forward I I I I #
loop $-1 $-1 $256 $57 #
coedge $-1 $163 $163 $257 $258 reversed $95 $-1 #
coedge $-1 $164 $164 $-1 $259 forward $97 $-1 #
edge $-1 $260 0 $260 6.2831853071796004 $98 $261 forward 7 unknown #
loop $-1 $262 $100 $251 #
vertex $-1 $101 $263 #
ellipse-curve $-1 64.66578514931372 -42.1084436477243 10.5720985230664 0 0.79863551827123203 -0.60181501223851219 2.5 0 0 1 I I #
face $-1 $-1 $117 $15 $-1 $264 reversed single #
loop $-1 $-1 $185 $102 #
plane-surface $-1 0 48.071542725481571 0 0 -1 0 0 0 -1 forward_v I I I I #
coedge $-1 $265 $183 $186 $266 forward $103 $-1 #
coedge $-1 $189 $105 $106 $177 reversed $63 $-1 #
coedge $-1 $183 $265 $105 $175 reversed $103 $-1 #
edge $-1 $190 -18.485398500003445 $267 18.485398500003445 $174 $268 forward 7 unknown #
coedge $-1 $107 $106 $265 $269 forward $41 $-1 #
edge $-1 $181 -77.455977050080875 $267 77.455977050080875 $173 $270 forward 7 unknown #
coedge $-1 $186 $185 $107 $179 reversed $170 $-1 #
edge $-1 $271 -77.455977050080875 $180 77.455977050080875 $178 $272 forward 7 unknown #
vertex $-1 $109 $273 #
vertex $-1 $192 $274 #
straight-curve $-1 77.455977050080875 0 -18.485398500003445 0 -1 0 I I #
coedge $-1 $172 $174 $110 $184 reversed $103 $-1 #
edge $-1 $187 -48.071542725481571 $190 48.071542725481571 $183 $275 forward 7 unknown #
coedge $-1 $178 $111 $116 $193 forward $170 $-1 #
coedge $-1 $111 $178 $172 $266 reversed $170 $-1 #
vertex $-1 $112 $276 #
straight-curve $-1 0 48.071542725481571 18.485398500003445 -1 0 0 I I #
coedge $-1 $113 $173 $115 $192 reversed $63 $-1 #
vertex $-1 $184 $277 #
straight-curve $-1 0 -48.071542725481571 18.485398500003445 1 0 0 I I #
edge $-1 $118 -18.485398500003445 $181 18.485398500003445 $115 $278 forward 7 unknown #
edge $-1 $119 -18.485398500003445 $180 18.485398500003445 $116 $279 forward 7 unknown #
point $-1 77.455977050080875 -48.071542725481571 18.485398500003445 #
point $-1 77.455977050080875 48.071542725481571 18.485398500003445 #
face $-1 $280 $281 $16 $-1 $282 reversed single #
loop $-1 $-1 $131 $121 #
plane-surface $-1 0 0 -18.485398500003445 0 0 1 1 0 0 forward_v I I I I #
coedge $-1 $283 $124 $125 $201 forward $71 $-1 #
coedge $-1 $124 $284 $285 $286 forward $71 $-1 #
edge $-1 $133 19.434279705426931 $206 25.569601915178737 $199 $287 forward 7 unknown #
coedge $-1 $131 $288 $126 $203 forward $197 $-1 #
edge $-1 $207 -25.569601915178737 $134 -19.434279705426931 $202 $289 forward 7 unknown #
coedge $-1 $290 $127 $288 $291 reversed $122 $-1 #
coedge $-1 $127 $290 $283 $292 reversed $122 $-1 #
vertex $-1 $292 $293 #
vertex $-1 $128 $294 #
straight-curve $-1 -55.222251753920844 -48.071542725481571 0 0 0 -1 I I #
coedge $-1 $285 $295 $129 $210 forward $281 $-1 #
edge $-1 $214 -18.485398500003445 $211 18.485398500003445 $209 $296 forward 7 unknown #
vertex $-1 $210 $297 #
straight-curve $-1 -33.16955720100043 -41.936220515729765 18.485398500003445 1 0 0 I I #
coedge $-1 $298 $131 $295 $299 forward $197 $-1 #
vertex $-1 $299 $300 #
straight-curve $-1 -33.16955720100043 -41.936220515729765 -18.485398500003445 -1 0 0 I I #
point $-1 -55.222251753920844 -41.936220515729765 18.485398500003445 #
point $-1 -55.222251753920844 -41.936220515729765 -18.485398500003445 #
face $-1 $301 $302 $17 $-1 $303 forward single #
loop $-1 $-1 $304 $136 #
plane-surface $-1 -66.33911440200086 -41.936220515729765 0 0 -1 0 0 0 -1 forward_v I I I I #
coedge $-1 $142 $305 $139 $224 forward $137 $-1 #
coedge $-1 $223 $139 $306 $307 reversed $79 $-1 #
coedge $-1 $139 $222 $140 $226 forward $79 $-1 #
edge $-1 $308 37.823323011855216 $227 49.749521167369757 $221 $309 forward 7 unknown #
coedge $-1 $141 $140 $231 $310 reversed $49 $-1 #
edge $-1 $311 3.5527045197628586e-014 $227 19.817049945553627 $223 $312 forward 7 unknown #
vertex $-1 $143 $313 #
straight-curve $-1 30.156811474362165 -36.14534456996703 18.485398500003445 1 0 0 I I #
vertex $-1 $310 $314 #
straight-curve $-1 70.468668083432917 -48.071542725481592 2.6587985461293329 0 -0.60181501223851219 -0.79863551827123203 I I #
coedge $-1 $306 $145 $225 $310 forward $233 $-1 #
coedge $-1 $145 $315 $147 $236 reversed $233 $-1 #
loop $-1 $-1 $306 $301 #
straight-curve $-1 70.468668083432917 -48.071542725481571 47.943569049405006 0 0 -1 I I #
coedge $-1 $316 $147 $317 $318 forward $137 $-1 #
edge $-1 $149 70.468668083432917 $319 77.455977050080875 $232 $320 forward 7 unknown #
point $-1 70.468668083432917 -36.14534456996703 18.485398500003445 #
point $-1 70.468668083432917 -48.071542725481571 18.485398500003445 #
face $-1 $321 $322 $18 $-1 $323 forward single #
loop $-1 $-1 $324 $151 #
plane-surface $-1 50.158577814015743 -171.78973147467357 95.887138098810013 1 0 0 0 0.79863551827123203 -0.60181501223851219 forward_v I I I I #
loop $-1 $-1 $325 $86 #
coedge $-1 $244 $154 $326 $327 forward $87 $-1 #
coedge $-1 $154 $243 $328 $329 reversed $87 $-1 #
coedge $-1 $330 $331 $154 $246 forward $322 $-1 #
edge $-1 $332 -49.749521167369757 $333 -37.823323011855216 $245 $334 forward 7 unknown #
edge $-1 $335 1 $335 0 $155 $-1 forward 7 unknown #
vertex $-1 $156 $336 #
ellipse-curve $-1 55.96146074813494 -38.65092730405042 7.9666731530714223 0 -0.79863551827123203 0.60181501223851219 2.5 0 0 1 I I #
point $-1 58.46146074813494 -42.108443647724279 10.57209852306638 #
face $-1 $337 $166 $19 $-1 $338 forward single #
loop $-1 $-1 $339 $159 #
plane-surface $-1 70.468668083432917 -171.78973147467357 95.887138098810013 -1 0 0 0 -0.79863551827123203 0.60181501223851219 forward_v I I I I #
loop $-1 $-1 $340 $94 #
coedge $-1 $255 $255 $256 $341 forward $160 $-1 #
coedge $-1 $256 $256 $255 $341 reversed $162 $-1 #
coedge $-1 $257 $257 $163 $258 forward $262 $-1 #
edge $-1 $342 1.1107279036944859e-015 $342 6.2831853071796013 $257 $343 forward 7 unknown #
edge $-1 $344 1 $344 0 $164 $-1 forward 7 unknown #
vertex $-1 $165 $345 #
ellipse-curve $-1 64.66578514931372 -38.65092730405042 7.9666731530714223 0 -0.79863551827123203 0.60181501223851219 2.5 0 0 1 I I #
loop $-1 $346 $257 $251 #
point $-1 67.16578514931372 -42.108443647724279 10.57209852306638 #
plane-surface $-1 77.455977050080875 0 0 -1 0 0 0 0 1 forward_v I I I I #
coedge $-1 $174 $172 $176 $269 reversed $103 $-1 #
edge $-1 $187 -18.485398500003445 $271 18.485398500003445 $186 $347 forward 7 unknown #
vertex $-1 $269 $348 #
straight-curve $-1 -77.455977050080875 -48.071542725481571 0 0 0 -1 I I #
edge $-1 $267 -48.071542725481571 $271 48.071542725481571 $265 $349 forward 7 unknown #
straight-curve $-1 0 -48.071542725481571 -18.485398500003445 -1 0 0 I I #
vertex $-1 $179 $350 #
straight-curve $-1 0 48.071542725481571 -18.485398500003445 1 0 0 I I #
point $-1 77.455977050080875 48.071542725481571 -18.485398500003445 #
point $-1 77.455977050080875 -48.071542725481571 -18.485398500003445 #
straight-curve $-1 -77.455977050080875 0 18.485398500003445 0 -1 0 I I #
point $-1 -77.455977050080875 48.071542725481571 18.485398500003445 #
point $-1 -77.455977050080875 -48.071542725481571 18.485398500003445 #
straight-curve $-1 77.455977050080875 -48.071542725481571 0 0 0 -1 I I #
straight-curve $-1 77.455977050080875 48.071542725481571 0 0 0 -1 I I #
face $-1 $351 $352 $16 $-1 $353 reversed single #
loop $-1 $-1 $209 $196 #
plane-surface $-1 -77.455977050080875 0 0 1 0 0 0 0 -1 forward_v I I I I #
coedge $-1 $354 $199 $205 $292 forward $71 $-1 #
coedge $-1 $200 $354 $355 $356 forward $71 $-1 #
coedge $-1 $357 $209 $200 $286 reversed $281 $-1 #
edge $-1 $358 -48.071542725481571 $211 41.936220515729765 $285 $359 forward 7 unknown #
straight-curve $-1 -55.222251753920844 -22.501940810302834 18.485398500003445 0 -1 0 I I #
coedge $-1 $202 $360 $204 $291 forward $197 $-1 #
straight-curve $-1 -55.222251753920844 -22.501940810302834 -18.485398500003445 0 1 0 I I #
coedge $-1 $205 $204 $361 $362 reversed $122 $-1 #
edge $-1 $363 -77.455977050080875 $207 55.222251753920844 $204 $364 forward 7 unknown #
edge $-1 $206 -55.222251753920844 $365 77.455977050080875 $205 $366 forward 7 unknown #
point $-1 -55.222251753920844 -48.071542725481571 18.485398500003445 #
point $-1 -55.222251753920844 -48.071542725481571 -18.485398500003445 #
coedge $-1 $209 $357 $213 $299 reversed $281 $-1 #
straight-curve $-1 -77.455977050080875 -41.936220515729765 0 0 0 1 I I #
point $-1 -77.455977050080875 -41.936220515729765 18.485398500003445 #
coedge $-1 $360 $213 $367 $368 forward $197 $-1 #
edge $-1 $214 -41.936220515729765 $369 48.071542725481571 $295 $370 forward 7 unknown #
point $-1 -77.455977050080875 -41.936220515729765 -18.485398500003445 #
face $-1 $371 $233 $17 $-1 $372 reversed single #
loop $-1 $-1 $373 $218 #
plane-surface $-1 -55.222251753920844 -45.003881620605668 0 -1 0 0 0 0 1 forward_v I I I I #
coedge $-1 $374 $375 $376 $377 reversed $219 $-1 #
coedge $-1 $221 $378 $379 $380 forward $137 $-1 #
coedge $-1 $379 $231 $222 $307 forward $233 $-1 #
edge $-1 $311 -45.284770503275645 $308 -29.458170549401562 $306 $381 forward 7 unknown #
vertex $-1 $307 $382 #
straight-curve $-1 50.158577814015743 -85.894865737336787 18.485398500003448 0 1 0 I I #
edge $-1 $229 -40.311856609070752 $311 -20.001766339653578 $231 $383 forward 7 unknown #
vertex $-1 $310 $384 #
straight-curve $-1 50.158577814015743 -48.071542725481592 2.6587985461293329 0 0.60181501223851219 0.79863551827123203 I I #
point $-1 50.158577814015743 -36.14534456996703 18.485398500003445 #
point $-1 70.468668083432917 -48.071542725481571 2.6587985461293613 #
coedge $-1 $232 $385 $386 $387 reversed $233 $-1 #
coedge $-1 $388 $235 $389 $390 forward $137 $-1 #
coedge $-1 $386 $391 $235 $318 reversed $392 $-1 #
edge $-1 $319 -48.071542725481571 $393 48.071542725481571 $317 $394 forward 7 unknown #
vertex $-1 $318 $395 #
straight-curve $-1 0 -48.071542725481571 18.485398500003445 1 0 0 I I #
face $-1 $396 $397 $18 $-1 $398 forward single #
loop $-1 $-1 $399 $239 #
plane-surface $-1 0 0 18.485398500003445 0 0 1 1 0 0 forward_v I I I I #
coedge $-1 $400 $401 $399 $402 reversed $240 $-1 #
coedge $-1 $403 $326 $331 $404 reversed $242 $-1 #
coedge $-1 $325 $405 $243 $327 reversed $242 $-1 #
edge $-1 $332 -19.817049945553627 $406 -3.5527045197628586e-014 $243 $407 forward 7 unknown #
coedge $-1 $408 $409 $244 $329 forward $410 $-1 #
edge $-1 $333 29.458170549401562 $406 45.284770503275645 $328 $411 forward 7 unknown #
coedge $-1 $412 $245 $409 $413 forward $322 $-1 #
coedge $-1 $245 $399 $325 $404 forward $322 $-1 #
vertex $-1 $404 $414 #
vertex $-1 $413 $415 #
straight-curve $-1 70.468668083432917 -85.894865737336787 18.485398500003448 0 -1 0 I I #
vertex $-1 $247 $416 #
point $-1 58.46146074813494 -38.65092730405042 7.9666731530714223 #
face $-1 $417 $418 $19 $-1 $419 forward single #
plane-surface $-1 60.31362294872433 -48.071542725481592 2.6587985461293329 0 -0.79863551827123203 0.60181501223851219 1 0 0 forward_v I I I I #
coedge $-1 $420 $421 $422 $423 reversed $252 $-1 #
coedge $-1 $340 $340 $-1 $424 forward $254 $-1 #
edge $-1 $425 0 $425 6.2831853071796004 $255 $426 forward 7 unknown #
vertex $-1 $258 $427 #
ellipse-curve $-1 55.96146074813494 -42.1084436477243 10.5720985230664 0 0.79863551827123203 -0.60181501223851219 2.5 0 0 1 I I #
vertex $-1 $259 $428 #
point $-1 67.16578514931372 -38.65092730405042 7.9666731530714223 #
loop $-1 $-1 $429 $251 #
straight-curve $-1 -77.455977050080875 48.071542725481571 0 0 0 -1 I I #
point $-1 -77.455977050080875 -48.071542725481571 -18.485398500003445 #
straight-curve $-1 -77.455977050080875 0 -18.485398500003445 0 1 0 I I #
point $-1 -77.455977050080875 48.071542725481571 -18.485398500003445 #
face $-1 $-1 $430 $16 $-1 $431 reversed single #
loop $-1 $-1 $432 $280 #
plane-surface $-1 0 48.071542725481571 0 0 -1 0 0 0 -1 forward_v I I I I #
coedge $-1 $284 $283 $433 $434 forward $71 $-1 #
coedge $-1 $432 $435 $284 $356 reversed $352 $-1 #
edge $-1 $436 -77.455977050080875 $358 77.455977050080875 $355 $437 forward 7 unknown #
coedge $-1 $295 $285 $435 $438 forward $281 $-1 #
vertex $-1 $356 $439 #
straight-curve $-1 -77.455977050080875 0 18.485398500003445 0 -1 0 I I #
coedge $-1 $288 $298 $440 $441 forward $197 $-1 #
coedge $-1 $440 $433 $290 $362 forward $430 $-1 #
edge $-1 $365 -18.485398500003445 $363 18.485398500003445 $361 $442 forward 7 unknown #
vertex $-1 $362 $443 #
straight-curve $-1 0 -48.071542725481571 -18.485398500003445 -1 0 0 I I #
vertex $-1 $434 $444 #
straight-curve $-1 0 -48.071542725481571 18.485398500003445 1 0 0 I I #
coedge $-1 $435 $432 $298 $368 reversed $352 $-1 #
edge $-1 $369 -77.455977050080875 $445 77.455977050080875 $367 $446 forward 7 unknown #
vertex $-1 $368 $447 #
straight-curve $-1 -77.455977050080875 0 -18.485398500003445 0 1 0 I I #
face $-1 $448 $449 $17 $-1 $450 reversed single #
plane-surface $-1 0 -48.071542725481571 0 0 1 0 0 0 1 forward_v I I I I #
coedge $-1 $451 $452 $453 $454 reversed $302 $-1 #
coedge $-1 $455 $304 $456 $457 reversed $219 $-1 #
coedge $-1 $304 $455 $458 $459 reversed $219 $-1 #
coedge $-1 $452 $451 $304 $377 forward $302 $-1 #
edge $-1 $460 -18.485398500003445 $461 18.485398500003445 $376 $462 forward 7 unknown #
coedge $-1 $305 $456 $451 $463 forward $137 $-1 #
coedge $-1 $453 $306 $305 $380 reversed $233 $-1 #
edge $-1 $464 -55.222251753920844 $308 50.158577814015743 $379 $320 forward 7 unknown #
straight-curve $-1 50.158577814015743 -48.071542725481571 47.943569049405006 0 0 1 I I #
point $-1 50.158577814015743 -48.071542725481571 18.485398500003445 #
straight-curve $-1 30.156811474362165 -48.071542725481571 2.6587985461293533 -1 0 0 I I #
point $-1 50.158577814015743 -48.071542725481571 2.6587985461293613 #
coedge $-1 $315 $453 $465 $466 reversed $233 $-1 #
coedge $-1 $467 $317 $315 $387 forward $392 $-1 #
edge $-1 $319 -18.485398500003445 $468 18.485398500003445 $386 $469 forward 7 unknown #
coedge $-1 $456 $316 $470 $471 forward $137 $-1 #
coedge $-1 $472 $473 $316 $390 reversed $474 $-1 #
edge $-1 $393 -77.455977050080875 $475 77.455977050080875 $389 $476 forward 7 unknown #
coedge $-1 $317 $467 $472 $477 reversed $392 $-1 #
loop $-1 $-1 $386 $478 #
vertex $-1 $318 $479 #
straight-curve $-1 77.455977050080875 0 18.485398500003445 0 1 0 I I #
point $-1 77.455977050080875 -48.071542725481571 18.485398500003445 #
face $-1 $480 $481 $18 $-1 $482 forward single #
loop $-1 $-1 $483 $321 #
plane-surface $-1 -66.33911440200086 -41.936220515729765 0 0 -1 0 0 0 -1 forward_v I I I I #
coedge $-1 $331 $484 $324 $402 forward $322 $-1 #
coedge $-1 $401 $324 $485 $486 reversed $240 $-1 #
coedge $-1 $324 $400 $403 $487 forward $240 $-1 #
edge $-1 $488 37.823323011855216 $489 49.749521167369757 $399 $490 forward 7 unknown #
coedge $-1 $405 $325 $401 $487 reversed $242 $-1 #
edge $-1 $489 20.001766339653578 $332 40.311856609070752 $331 $491 forward 7 unknown #
coedge $-1 $326 $403 $408 $492 reversed $242 $-1 #
vertex $-1 $492 $493 #
straight-curve $-1 70.468668083432917 -48.071542725481592 2.6587985461293329 0 -0.60181501223851219 -0.79863551827123203 I I #
coedge $-1 $485 $328 $405 $492 forward $410 $-1 #
coedge $-1 $328 $494 $330 $413 reversed $410 $-1 #
loop $-1 $-1 $485 $480 #
straight-curve $-1 70.468668083432917 -48.071542725481571 47.943569049405006 0 0 -1 I I #
coedge $-1 $495 $330 $496 $497 forward $322 $-1 #
edge $-1 $333 70.468668083432917 $498 77.455977050080875 $409 $499 forward 7 unknown #
point $-1 70.468668083432917 -36.14534456996703 18.485398500003445 #
point $-1 70.468668083432917 -48.071542725481571 18.485398500003445 #
point $-1 55.96146074813494 -36.654338508372341 6.4621356224751416 #
face $-1 $500 $501 $19 $-1 $502 forward single #
loop $-1 $-1 $503 $337 #
plane-surface $-1 50.158577814015743 -171.78973147467357 95.887138098810013 1 0 0 0 0.79863551827123203 -0.60181501223851219 forward_v I I I I #
coedge $-1 $421 $339 $504 $505 forward $252 $-1 #
coedge $-1 $339 $420 $506 $507 reversed $252 $-1 #
coedge $-1 $508 $509 $339 $423 forward $501 $-1 #
edge $-1 $510 -49.749521167369757 $511 -37.823323011855216 $422 $512 forward 7 unknown #
edge $-1 $513 1 $513 0 $340 $-1 forward 7 unknown #
vertex $-1 $341 $514 #
ellipse-curve $-1 55.96146074813494 -38.65092730405042 7.9666731530714223 0 -0.79863551827123203 0.60181501223851219 2.5 0 0 1 I I #
point $-1 58.46146074813494 -42.108443647724279 10.57209852306638 #
point $-1 64.66578514931372 -36.654338508372341 6.4621356224751416 #
coedge $-1 $515 $504 $509 $516 reversed $346 $-1 #
loop $-1 $-1 $361 $351 #
plane-surface $-1 77.455977050080875 0 0 -1 0 0 0 0 1 forward_v I I I I #
coedge $-1 $367 $355 $517 $518 forward $352 $-1 #
coedge $-1 $361 $517 $354 $434 reversed $430 $-1 #
edge $-1 $365 -48.071542725481571 $436 48.071542725481571 $433 $519 forward 7 unknown #
coedge $-1 $355 $367 $357 $438 reversed $352 $-1 #
vertex $-1 $434 $520 #
straight-curve $-1 0 48.071542725481571 18.485398500003445 -1 0 0 I I #
edge $-1 $358 -18.485398500003445 $369 18.485398500003445 $435 $521 forward 7 unknown #
point $-1 -77.455977050080875 48.071542725481571 18.485398500003445 #
coedge $-1 $517 $361 $360 $441 reversed $430 $-1 #
edge $-1 $445 -48.071542725481571 $363 48.071542725481571 $440 $522 forward 7 unknown #
straight-curve $-1 77.455977050080875 -48.071542725481571 0 0 0 -1 I I #
point $-1 77.455977050080875 -48.071542725481571 -18.485398500003445 #
point $-1 77.455977050080875 -48.071542725481571 18.485398500003445 #
vertex $-1 $441 $523 #
straight-curve $-1 0 48.071542725481571 -18.485398500003445 1 0 0 I I #
point $-1 -77.455977050080875 48.071542725481571 -18.485398500003445 #
face $-1 $524 $525 $17 $-1 $526 reversed single #
loop $-1 $-1 $458 $371 #
plane-surface $-1 0 0 -18.485398500003445 0 0 1 1 0 0 forward_v I I I I #
coedge $-1 $376 $373 $378 $463 reversed $302 $-1 #
coedge $-1 $373 $376 $527 $528 reversed $302 $-1 #
coedge $-1 $385 $379 $373 $454 forward $233 $-1 #
edge $-1 $464 -18.485398500003445 $529 18.485398500003445 $453 $530 forward 7 unknown #
coedge $-1 $375 $374 $531 $532 reversed $219 $-1 #
coedge $-1 $378 $388 $374 $457 forward $137 $-1 #
edge $-1 $533 -44.286419849080445 $460 -22.052694552920414 $456 $534 forward 7 unknown #
coedge $-1 $535 $527 $375 $459 forward $449 $-1 #
edge $-1 $461 22.052694552920414 $536 44.286419849080445 $458 $537 forward 7 unknown #
vertex $-1 $457 $538 #
vertex $-1 $459 $539 #
straight-curve $-1 -55.222251753920844 -41.936220515729765 0 0 0 -1 I I #
edge $-1 $460 19.434279705426931 $464 25.569601915178737 $378 $540 forward 7 unknown #
vertex $-1 $380 $541 #
coedge $-1 $527 $542 $385 $466 forward $449 $-1 #
edge $-1 $468 -77.455977050080875 $529 55.222251753920844 $385 $543 forward 7 unknown #
coedge $-1 $391 $386 $542 $544 reversed $392 $-1 #
vertex $-1 $387 $545 #
straight-curve $-1 77.455977050080875 -48.071542725481571 0 0 0 -1 I I #
coedge $-1 $546 $531 $388 $471 reversed $525 $-1 #
edge $-1 $475 -48.071542725481571 $533 41.936220515729765 $470 $547 forward 7 unknown #
coedge $-1 $548 $389 $391 $477 forward $474 $-1 #
coedge $-1 $389 $548 $546 $549 reversed $474 $-1 #
loop $-1 $-1 $472 $524 #
vertex $-1 $390 $550 #
straight-curve $-1 0 48.071542725481571 18.485398500003445 -1 0 0 I I #
edge $-1 $393 -18.485398500003445 $551 18.485398500003445 $391 $552 forward 7 unknown #
face $-1 $-1 $392 $17 $-1 $553 reversed single #
point $-1 77.455977050080875 48.071542725481571 18.485398500003445 #
face $-1 $554 $410 $18 $-1 $555 reversed single #
loop $-1 $-1 $556 $396 #
plane-surface $-1 -55.222251753920844 -45.003881620605668 0 -1 0 0 0 0 1 forward_v I I I I #
coedge $-1 $557 $558 $559 $560 reversed $397 $-1 #
coedge $-1 $399 $561 $562 $563 forward $322 $-1 #
coedge $-1 $562 $408 $400 $486 forward $410 $-1 #
edge $-1 $564 -45.284770503275645 $488 -29.458170549401562 $485 $565 forward 7 unknown #
edge $-1 $564 3.5527045197628586e-014 $489 19.817049945553627 $401 $566 forward 7 unknown #
vertex $-1 $486 $567 #
vertex $-1 $404 $568 #
straight-curve $-1 50.158577814015743 -85.894865737336787 18.485398500003448 0 1 0 I I #
straight-curve $-1 30.156811474362165 -36.14534456996703 18.485398500003445 1 0 0 I I #
edge $-1 $406 -40.311856609070752 $564 -20.001766339653578 $408 $569 forward 7 unknown #
point $-1 70.468668083432917 -48.071542725481571 2.6587985461293613 #
coedge $-1 $409 $570 $571 $572 reversed $410 $-1 #
coedge $-1 $573 $412 $574 $575 forward $322 $-1 #
coedge $-1 $571 $576 $412 $497 reversed $577 $-1 #
edge $-1 $498 -48.071542725481571 $578 48.071542725481571 $496 $579 forward 7 unknown #
vertex $-1 $497 $580 #
straight-curve $-1 0 -48.071542725481571 18.485398500003445 1 0 0 I I #
face $-1 $581 $582 $19 $-1 $583 forward single #
loop $-1 $-1 $584 $417 #
plane-surface $-1 0 0 18.485398500003445 0 0 1 1 0 0 forward_v I I I I #
coedge $-1 $585 $586 $584 $587 reversed $418 $-1 #
coedge $-1 $429 $588 $420 $505 reversed $346 $-1 #
edge $-1 $510 -19.817049945553627 $589 -3.5527045197628586e-014 $420 $590 forward 7 unknown #
coedge $-1 $591 $592 $421 $507 forward $593 $-1 #
edge $-1 $511 29.458170549401562 $589 45.284770503275645 $506 $594 forward 7 unknown #
coedge $-1 $595 $422 $592 $596 forward $501 $-1 #
coedge $-1 $422 $584 $429 $516 forward $501 $-1 #
vertex $-1 $516 $597 #
vertex $-1 $596 $598 #
straight-curve $-1 70.468668083432917 -85.894865737336787 18.485398500003448 0 -1 0 I I #
vertex $-1 $424 $599 #
point $-1 58.46146074813494 -38.65092730405042 7.9666731530714223 #
coedge $-1 $588 $429 $586 $600 reversed $346 $-1 #
edge $-1 $601 20.001766339653578 $510 40.311856609070752 $509 $602 forward 7 unknown #
coedge $-1 $433 $440 $432 $518 reversed $430 $-1 #
edge $-1 $436 -18.485398500003445 $445 18.485398500003445 $517 $603 forward 7 unknown #
straight-curve $-1 77.455977050080875 0 18.485398500003445 0 1 0 I I #
point $-1 77.455977050080875 48.071542725481571 18.485398500003445 #
straight-curve $-1 -77.455977050080875 48.071542725481571 0 0 0 -1 I I #
straight-curve $-1 77.455977050080875 0 -18.485398500003445 0 -1 0 I I #
point $-1 77.455977050080875 48.071542725481571 -18.485398500003445 #
face $-1 $478 $474 $17 $-1 $604 reversed single #
loop $-1 $-1 $531 $448 #
plane-surface $-1 -77.455977050080875 0 0 1 0 0 0 0 -1 forward_v I I I I #
coedge $-1 $458 $465 $452 $528 forward $449 $-1 #
edge $-1 $529 -25.569601915178737 $461 -19.434279705426931 $527 $605 forward 7 unknown #
vertex $-1 $454 $606 #
straight-curve $-1 -55.222251753920844 -48.071542725481571 0 0 0 -1 I I #
coedge $-1 $470 $607 $455 $532 forward $525 $-1 #
edge $-1 $536 -18.485398500003445 $533 18.485398500003445 $531 $608 forward 7 unknown #
vertex $-1 $532 $609 #
straight-curve $-1 -33.16955720100043 -41.936220515729765 18.485398500003445 1 0 0 I I #
coedge $-1 $610 $458 $607 $611 forward $449 $-1 #
vertex $-1 $611 $612 #
straight-curve $-1 -33.16955720100043 -41.936220515729765 -18.485398500003445 -1 0 0 I I #
point $-1 -55.222251753920844 -41.936220515729765 18.485398500003445 #
point $-1 -55.222251753920844 -41.936220515729765 -18.485398500003445 #
straight-curve $-1 -55.222251753920844 -22.501940810302834 18.485398500003445 0 -1 0 I I #
point $-1 -55.222251753920844 -48.071542725481571 18.485398500003445 #
coedge $-1 $465 $610 $467 $544 forward $449 $-1 #
straight-curve $-1 0 -48.071542725481571 -18.485398500003445 -1 0 0 I I #
edge $-1 $551 -48.071542725481571 $468 48.071542725481571 $467 $613 forward 7 unknown #
point $-1 77.455977050080875 -48.071542725481571 -18.485398500003445 #
coedge $-1 $607 $470 $473 $549 forward $525 $-1 #
straight-curve $-1 -77.455977050080875 0 18.485398500003445 0 -1 0 I I #
coedge $-1 $473 $472 $610 $614 reversed $474 $-1 #
edge $-1 $475 -18.485398500003445 $615 18.485398500003445 $473 $616 forward 7 unknown #
point $-1 -77.455977050080875 48.071542725481571 18.485398500003445 #
vertex $-1 $544 $617 #
straight-curve $-1 77.455977050080875 48.071542725481571 0 0 0 -1 I I #
plane-surface $-1 77.455977050080875 0 0 -1 0 0 0 0 1 forward_v I I I I #
face $-1 $618 $619 $18 $-1 $620 reversed single #
plane-surface $-1 0 -48.071542725481571 0 0 1 0 0 0 1 forward_v I I I I #
coedge $-1 $621 $622 $623 $624 reversed $481 $-1 #
coedge $-1 $625 $483 $626 $627 reversed $397 $-1 #
coedge $-1 $483 $625 $628 $629 reversed $397 $-1 #
coedge $-1 $622 $621 $483 $560 forward $481 $-1 #
edge $-1 $630 -18.485398500003445 $631 18.485398500003445 $559 $632 forward 7 unknown #
coedge $-1 $484 $626 $621 $633 forward $322 $-1 #
coedge $-1 $623 $485 $484 $563 reversed $410 $-1 #
edge $-1 $634 -55.222251753920844 $488 50.158577814015743 $562 $499 forward 7 unknown #
vertex $-1 $492 $635 #
straight-curve $-1 50.158577814015743 -48.071542725481571 47.943569049405006 0 0 1 I I #
straight-curve $-1 50.158577814015743 -48.071542725481592 2.6587985461293329 0 0.60181501223851219 0.79863551827123203 I I #
point $-1 50.158577814015743 -48.071542725481571 18.485398500003445 #
point $-1 50.158577814015743 -36.14534456996703 18.485398500003445 #
straight-curve $-1 30.156811474362165 -48.071542725481571 2.6587985461293533 -1 0 0 I I #
coedge $-1 $494 $623 $636 $637 reversed $410 $-1 #
coedge $-1 $638 $496 $494 $572 forward $577 $-1 #
edge $-1 $498 -18.485398500003445 $639 18.485398500003445 $571 $640 forward 7 unknown #
coedge $-1 $626 $495 $641 $642 forward $322 $-1 #
coedge $-1 $643 $644 $495 $575 reversed $645 $-1 #
edge $-1 $578 -77.455977050080875 $646 77.455977050080875 $574 $647 forward 7 unknown #
coedge $-1 $496 $638 $643 $648 reversed $577 $-1 #
loop $-1 $-1 $571 $649 #
vertex $-1 $497 $650 #
straight-curve $-1 77.455977050080875 0 18.485398500003445 0 1 0 I I #
point $-1 77.455977050080875 -48.071542725481571 18.485398500003445 #
face $-1 $651 $652 $19 $-1 $653 forward single #
loop $-1 $-1 $654 $500 #
plane-surface $-1 -66.33911440200086 -41.936220515729765 0 0 -1 0 0 0 -1 forward_v I I I I #
coedge $-1 $509 $655 $503 $587 forward $501 $-1 #
coedge $-1 $586 $503 $656 $657 reversed $418 $-1 #
coedge $-1 $503 $585 $515 $600 forward $418 $-1 #
edge $-1 $658 37.823323011855216 $601 49.749521167369757 $584 $659 forward 7 unknown #
coedge $-1 $504 $515 $591 $660 reversed $346 $-1 #
vertex $-1 $660 $661 #
straight-curve $-1 70.468668083432917 -48.071542725481592 2.6587985461293329 0 -0.60181501223851219 -0.79863551827123203 I I #
coedge $-1 $656 $506 $588 $660 forward $593 $-1 #
coedge $-1 $506 $662 $508 $596 reversed $593 $-1 #
loop $-1 $-1 $656 $651 #
straight-curve $-1 70.468668083432917 -48.071542725481571 47.943569049405006 0 0 -1 I I #
coedge $-1 $663 $508 $664 $665 forward $501 $-1 #
edge $-1 $511 70.468668083432917 $666 77.455977050080875 $592 $667 forward 7 unknown #
point $-1 70.468668083432917 -36.14534456996703 18.485398500003445 #
point $-1 70.468668083432917 -48.071542725481571 18.485398500003445 #
point $-1 55.96146074813494 -36.654338508372341 6.4621356224751416 #
edge $-1 $668 3.5527045197628586e-014 $601 19.817049945553627 $586 $669 forward 7 unknown #
vertex $-1 $516 $670 #
straight-curve $-1 30.156811474362165 -36.14534456996703 18.485398500003445 1 0 0 I I #
straight-curve $-1 77.455977050080875 48.071542725481571 0 0 0 -1 I I #
plane-surface $-1 0 48.071542725481571 0 0 -1 0 0 0 -1 forward_v I I I I #
straight-curve $-1 -55.222251753920844 -22.501940810302834 -18.485398500003445 0 1 0 I I #
point $-1 -55.222251753920844 -48.071542725481571 -18.485398500003445 #
coedge $-1 $531 $546 $535 $611 reversed $525 $-1 #
straight-curve $-1 -77.455977050080875 -41.936220515729765 0 0 0 1 I I #
point $-1 -77.455977050080875 -41.936220515729765 18.485398500003445 #
coedge $-1 $542 $535 $548 $614 forward $449 $-1 #
edge $-1 $536 -41.936220515729765 $615 48.071542725481571 $607 $671 forward 7 unknown #
point $-1 -77.455977050080875 -41.936220515729765 -18.485398500003445 #
straight-curve $-1 77.455977050080875 0 -18.485398500003445 0 -1 0 I I #
edge $-1 $615 -77.455977050080875 $551 77.455977050080875 $548 $672 forward 7 unknown #
vertex $-1 $614 $673 #
straight-curve $-1 -77.455977050080875 48.071542725481571 0 0 0 -1 I I #
point $-1 77.455977050080875 48.071542725481571 -18.485398500003445 #
face $-1 $674 $675 $18 $-1 $676 reversed single #
loop $-1 $-1 $628 $554 #
plane-surface $-1 0 0 -18.485398500003445 0 0 1 1 0 0 forward_v I I I I #
coedge $-1 $559 $556 $561 $633 reversed $481 $-1 #
coedge $-1 $556 $559 $677 $678 reversed $481 $-1 #
coedge $-1 $570 $562 $556 $624 forward $410 $-1 #
edge $-1 $634 -18.485398500003445 $679 18.485398500003445 $623 $680 forward 7 unknown #
coedge $-1 $558 $557 $681 $682 reversed $397 $-1 #
coedge $-1 $561 $573 $557 $627 forward $322 $-1 #
edge $-1 $683 -44.286419849080445 $630 -22.052694552920414 $626 $684 forward 7 unknown #
coedge $-1 $685 $677 $558 $629 forward $619 $-1 #
edge $-1 $631 22.052694552920414 $686 44.286419849080445 $628 $687 forward 7 unknown #
vertex $-1 $627 $688 #
vertex $-1 $629 $689 #
straight-curve $-1 -55.222251753920844 -41.936220515729765 0 0 0 -1 I I #
edge $-1 $630 19.434279705426931 $634 25.569601915178737 $561 $690 forward 7 unknown #
vertex $-1 $563 $691 #
point $-1 50.158577814015743 -48.071542725481571 2.6587985461293613 #
coedge $-1 $677 $692 $570 $637 forward $619 $-1 #
edge $-1 $639 -77.455977050080875 $679 55.222251753920844 $570 $693 forward 7 unknown #
coedge $-1 $576 $571 $692 $694 reversed $577 $-1 #
vertex $-1 $572 $695 #
straight-curve $-1 77.455977050080875 -48.071542725481571 0 0 0 -1 I I #
coedge $-1 $696 $681 $573 $642 reversed $675 $-1 #
edge $-1 $646 -48.071542725481571 $683 41.936220515729765 $641 $697 forward 7 unknown #
coedge $-1 $698 $574 $576 $648 forward $645 $-1 #
coedge $-1 $574 $698 $696 $699 reversed $645 $-1 #
loop $-1 $-1 $643 $674 #
vertex $-1 $575 $700 #
straight-curve $-1 0 48.071542725481571 18.485398500003445 -1 0 0 I I #
edge $-1 $578 -18.485398500003445 $701 18.485398500003445 $576 $702 forward 7 unknown #
face $-1 $-1 $577 $18 $-1 $703 reversed single #
point $-1 77.455977050080875 48.071542725481571 18.485398500003445 #
face $-1 $704 $593 $19 $-1 $705 reversed single #
loop $-1 $-1 $706 $581 #
plane-surface $-1 -55.222251753920844 -45.003881620605668 0 -1 0 0 0 0 1 forward_v I I I I #
coedge $-1 $707 $708 $709 $710 reversed $582 $-1 #
coedge $-1 $584 $711 $712 $713 forward $501 $-1 #
coedge $-1 $712 $591 $585 $657 forward $593 $-1 #
edge $-1 $668 -45.284770503275645 $658 -29.458170549401562 $656 $714 forward 7 unknown #
vertex $-1 $657 $715 #
straight-curve $-1 50.158577814015743 -85.894865737336787 18.485398500003448 0 1 0 I I #
edge $-1 $589 -40.311856609070752 $668 -20.001766339653578 $591 $716 forward 7 unknown #
point $-1 70.468668083432917 -48.071542725481571 2.6587985461293613 #
coedge $-1 $592 $717 $718 $719 reversed $593 $-1 #
coedge $-1 $720 $595 $721 $722 forward $501 $-1 #
coedge $-1 $718 $723 $595 $665 reversed $724 $-1 #
edge $-1 $666 -48.071542725481571 $725 48.071542725481571 $664 $726 forward 7 unknown #
vertex $-1 $665 $727 #
straight-curve $-1 0 -48.071542725481571 18.485398500003445 1 0 0 I I #
vertex $-1 $660 $728 #
straight-curve $-1 50.158577814015743 -48.071542725481592 2.6587985461293329 0 0.60181501223851219 0.79863551827123203 I I #
point $-1 50.158577814015743 -36.14534456996703 18.485398500003445 #
straight-curve $-1 -77.455977050080875 0 -18.485398500003445 0 1 0 I I #
straight-curve $-1 0 48.071542725481571 -18.485398500003445 1 0 0 I I #
point $-1 -77.455977050080875 48.071542725481571 -18.485398500003445 #
face $-1 $649 $645 $18 $-1 $729 reversed single #
loop $-1 $-1 $681 $618 #
plane-surface $-1 -77.455977050080875 0 0 1 0 0 0 0 -1 forward_v I I I I #
coedge $-1 $628 $636 $622 $678 forward $619 $-1 #
edge $-1 $679 -25.569601915178737 $631 -19.434279705426931 $677 $730 forward 7 unknown #
vertex $-1 $624 $731 #
straight-curve $-1 -55.222251753920844 -48.071542725481571 0 0 0 -1 I I #
coedge $-1 $641 $732 $625 $682 forward $675 $-1 #
edge $-1 $686 -18.485398500003445 $683 18.485398500003445 $681 $733 forward 7 unknown #
vertex $-1 $682 $734 #
straight-curve $-1 -33.16955720100043 -41.936220515729765 18.485398500003445 1 0 0 I I #
coedge $-1 $735 $628 $732 $736 forward $619 $-1 #
vertex $-1 $736 $737 #
straight-curve $-1 -33.16955720100043 -41.936220515729765 -18.485398500003445 -1 0 0 I I #
point $-1 -55.222251753920844 -41.936220515729765 18.485398500003445 #
point $-1 -55.222251753920844 -41.936220515729765 -18.485398500003445 #
straight-curve $-1 -55.222251753920844 -22.501940810302834 18.485398500003445 0 -1 0 I I #
point $-1 -55.222251753920844 -48.071542725481571 18.485398500003445 #
coedge $-1 $636 $735 $638 $694 forward $619 $-1 #
straight-curve $-1 0 -48.071542725481571 -18.485398500003445 -1 0 0 I I #
edge $-1 $701 -48.071542725481571 $639 48.071542725481571 $638 $738 forward 7 unknown #
point $-1 77.455977050080875 -48.071542725481571 -18.485398500003445 #
coedge $-1 $732 $641 $644 $699 forward $675 $-1 #
straight-curve $-1 -77.455977050080875 0 18.485398500003445 0 -1 0 I I #
coedge $-1 $644 $643 $735 $739 reversed $645 $-1 #
edge $-1 $646 -18.485398500003445 $740 18.485398500003445 $644 $741 forward 7 unknown #
point $-1 -77.455977050080875 48.071542725481571 18.485398500003445 #
vertex $-1 $694 $742 #
straight-curve $-1 77.455977050080875 48.071542725481571 0 0 0 -1 I I #
plane-surface $-1 77.455977050080875 0 0 -1 0 0 0 0 1 forward_v I I I I #
face $-1 $743 $744 $19 $-1 $745 reversed single #
plane-surface $-1 0 -48.071542725481571 0 0 1 0 0 0 1 forward_v I I I I #
coedge $-1 $746 $747 $748 $749 reversed $652 $-1 #
coedge $-1 $750 $654 $751 $752 reversed $582 $-1 #
coedge $-1 $654 $750 $753 $754 reversed $582 $-1 #
coedge $-1 $747 $746 $654 $710 forward $652 $-1 #
edge $-1 $755 -18.485398500003445 $756 18.485398500003445 $709 $757 forward 7 unknown #
coedge $-1 $655 $751 $746 $758 forward $501 $-1 #
coedge $-1 $748 $656 $655 $713 reversed $593 $-1 #
edge $-1 $759 -55.222251753920844 $658 50.158577814015743 $712 $667 forward 7 unknown #
straight-curve $-1 50.158577814015743 -48.071542725481571 47.943569049405006 0 0 1 I I #
point $-1 50.158577814015743 -48.071542725481571 18.485398500003445 #
straight-curve $-1 30.156811474362165 -48.071542725481571 2.6587985461293533 -1 0 0 I I #
coedge $-1 $662 $748 $760 $761 reversed $593 $-1 #
coedge $-1 $762 $664 $662 $719 forward $724 $-1 #
edge $-1 $666 -18.485398500003445 $763 18.485398500003445 $718 $764 forward 7 unknown #
coedge $-1 $751 $663 $765 $766 forward $501 $-1 #
coedge $-1 $767 $768 $663 $722 reversed $769 $-1 #
edge $-1 $725 -77.455977050080875 $770 77.455977050080875 $721 $771 forward 7 unknown #
coedge $-1 $664 $762 $767 $772 reversed $724 $-1 #
loop $-1 $-1 $718 $773 #
vertex $-1 $665 $774 #
straight-curve $-1 77.455977050080875 0 18.485398500003445 0 1 0 I I #
point $-1 77.455977050080875 -48.071542725481571 18.485398500003445 #
point $-1 50.158577814015743 -48.071542725481571 2.6587985461293613 #
plane-surface $-1 0 48.071542725481571 0 0 -1 0 0 0 -1 forward_v I I I I #
straight-curve $-1 -55.222251753920844 -22.501940810302834 -18.485398500003445 0 1 0 I I #
point $-1 -55.222251753920844 -48.071542725481571 -18.485398500003445 #
coedge $-1 $681 $696 $685 $736 reversed $675 $-1 #
straight-curve $-1 -77.455977050080875 -41.936220515729765 0 0 0 1 I I #
point $-1 -77.455977050080875 -41.936220515729765 18.485398500003445 #
coedge $-1 $692 $685 $698 $739 forward $619 $-1 #
edge $-1 $686 -41.936220515729765 $740 48.071542725481571 $732 $775 forward 7 unknown #
point $-1 -77.455977050080875 -41.936220515729765 -18.485398500003445 #
straight-curve $-1 77.455977050080875 0 -18.485398500003445 0 -1 0 I I #
edge $-1 $740 -77.455977050080875 $701 77.455977050080875 $698 $776 forward 7 unknown #
vertex $-1 $739 $777 #
straight-curve $-1 -77.455977050080875 48.071542725481571 0 0 0 -1 I I #
point $-1 77.455977050080875 48.071542725481571 -18.485398500003445 #
face $-1 $778 $779 $19 $-1 $780 reversed single #
loop $-1 $-1 $753 $704 #
plane-surface $-1 0 0 -18.485398500003445 0 0 1 1 0 0 forward_v I I I I #
coedge $-1 $709 $706 $711 $758 reversed $652 $-1 #
coedge $-1 $706 $709 $781 $782 reversed $652 $-1 #
coedge $-1 $717 $712 $706 $749 forward $593 $-1 #
edge $-1 $759 -18.485398500003445 $783 18.485398500003445 $748 $784 forward 7 unknown #
coedge $-1 $708 $707 $785 $786 reversed $582 $-1 #
coedge $-1 $711 $720 $707 $752 forward $501 $-1 #
edge $-1 $787 -44.286419849080445 $755 -22.052694552920414 $751 $788 forward 7 unknown #
coedge $-1 $789 $781 $708 $754 forward $744 $-1 #
edge $-1 $756 22.052694552920414 $790 44.286419849080445 $753 $791 forward 7 unknown #
vertex $-1 $752 $792 #
vertex $-1 $754 $793 #
straight-curve $-1 -55.222251753920844 -41.936220515729765 0 0 0 -1 I I #
edge $-1 $755 19.434279705426931 $759 25.569601915178737 $711 $794 forward 7 unknown #
vertex $-1 $713 $795 #
coedge $-1 $781 $796 $717 $761 forward $744 $-1 #
edge $-1 $763 -77.455977050080875 $783 55.222251753920844 $717 $797 forward 7 unknown #
coedge $-1 $723 $718 $796 $798 reversed $724 $-1 #
vertex $-1 $719 $799 #
straight-curve $-1 77.455977050080875 -48.071542725481571 0 0 0 -1 I I #
coedge $-1 $800 $785 $720 $766 reversed $779 $-1 #
edge $-1 $770 -48.071542725481571 $787 41.936220515729765 $765 $801 forward 7 unknown #
coedge $-1 $802 $721 $723 $772 forward $769 $-1 #
coedge $-1 $721 $802 $800 $803 reversed $769 $-1 #
loop $-1 $-1 $767 $778 #
vertex $-1 $722 $804 #
straight-curve $-1 0 48.071542725481571 18.485398500003445 -1 0 0 I I #
edge $-1 $725 -18.485398500003445 $805 18.485398500003445 $723 $806 forward 7 unknown #
face $-1 $-1 $724 $19 $-1 $807 reversed single #
point $-1 77.455977050080875 48.071542725481571 18.485398500003445 #
straight-curve $-1 -77.455977050080875 0 -18.485398500003445 0 1 0 I I #
straight-curve $-1 0 48.071542725481571 -18.485398500003445 1 0 0 I I #
point $-1 -77.455977050080875 48.071542725481571 -18.485398500003445 #
face $-1 $773 $769 $19 $-1 $808 reversed single #
loop $-1 $-1 $785 $743 #
plane-surface $-1 -77.455977050080875 0 0 1 0 0 0 0 -1 forward_v I I I I #
coedge $-1 $753 $760 $747 $782 forward $744 $-1 #
edge $-1 $783 -25.569601915178737 $756 -19.434279705426931 $781 $809 forward 7 unknown #
vertex $-1 $749 $810 #
straight-curve $-1 -55.222251753920844 -48.071542725481571 0 0 0 -1 I I #
coedge $-1 $765 $811 $750 $786 forward $779 $-1 #
edge $-1 $790 -18.485398500003445 $787 18.485398500003445 $785 $812 forward 7 unknown #
vertex $-1 $786 $813 #
straight-curve $-1 -33.16955720100043 -41.936220515729765 18.485398500003445 1 0 0 I I #
coedge $-1 $814 $753 $811 $815 forward $744 $-1 #
vertex $-1 $815 $816 #
straight-curve $-1 -33.16955720100043 -41.936220515729765 -18.485398500003445 -1 0 0 I I #
point $-1 -55.222251753920844 -41.936220515729765 18.485398500003445 #
point $-1 -55.222251753920844 -41.936220515729765 -18.485398500003445 #
straight-curve $-1 -55.222251753920844 -22.501940810302834 18.485398500003445 0 -1 0 I I #
point $-1 -55.222251753920844 -48.071542725481571 18.485398500003445 #
coedge $-1 $760 $814 $762 $798 forward $744 $-1 #
straight-curve $-1 0 -48.071542725481571 -18.485398500003445 -1 0 0 I I #
edge $-1 $805 -48.071542725481571 $763 48.071542725481571 $762 $817 forward 7 unknown #
point $-1 77.455977050080875 -48.071542725481571 -18.485398500003445 #
coedge $-1 $811 $765 $768 $803 forward $779 $-1 #
straight-curve $-1 -77.455977050080875 0 18.485398500003445 0 -1 0 I I #
coedge $-1 $768 $767 $814 $818 reversed $769 $-1 #
edge $-1 $770 -18.485398500003445 $819 18.485398500003445 $768 $820 forward 7 unknown #
point $-1 -77.455977050080875 48.071542725481571 18.485398500003445 #
vertex $-1 $798 $821 #
straight-curve $-1 77.455977050080875 48.071542725481571 0 0 0 -1 I I #
plane-surface $-1 77.455977050080875 0 0 -1 0 0 0 0 1 forward_v I I I I #
plane-surface $-1 0 48.071542725481571 0 0 -1 0 0 0 -1 forward_v I I I I #
straight-curve $-1 -55.222251753920844 -22.501940810302834 -18.485398500003445 0 1 0 I I #
point $-1 -55.222251753920844 -48.071542725481571 -18.485398500003445 #
coedge $-1 $785 $800 $789 $815 reversed $779 $-1 #
straight-curve $-1 -77.455977050080875 -41.936220515729765 0 0 0 1 I I #
point $-1 -77.455977050080875 -41.936220515729765 18.485398500003445 #
coedge $-1 $796 $789 $802 $818 forward $744 $-1 #
edge $-1 $790 -41.936220515729765 $819 48.071542725481571 $811 $822 forward 7 unknown #
point $-1 -77.455977050080875 -41.936220515729765 -18.485398500003445 #
straight-curve $-1 77.455977050080875 0 -18.485398500003445 0 -1 0 I I #
edge $-1 $819 -77.455977050080875 $805 77.455977050080875 $802 $823 forward 7 unknown #
vertex $-1 $818 $824 #
straight-curve $-1 -77.455977050080875 48.071542725481571 0 0 0 -1 I I #
point $-1 77.455977050080875 48.071542725481571 -18.485398500003445 #
straight-curve $-1 -77.455977050080875 0 -18.485398500003445 0 1 0 I I #
straight-curve $-1 0 48.071542725481571 -18.485398500003445 1 0 0 I I #
point $-1 -77.455977050080875 48.071542725481571 -18.485398500003445 #
End-of-ACIS-data 