500 0 10 0           
7 Unknown 11 ACIS 5.0 NT 24 Thu Mar 25 15:59:06 1999 
-1 9.9999999999999995e-007 1e-010 
body $-1 $10 $-1 $11 #
body $-1 $12 $-1 $13 #
body $-1 $14 $-1 $15 #
body $-1 $16 $-1 $17 #
body $-1 $18 $-1 $19 #
body $-1 $20 $-1 $21 #
body $-1 $22 $-1 $23 #
body $-1 $24 $-1 $25 #
body $-1 $26 $-1 $27 #
body $-1 $28 $-1 $29 #
lump $-1 $-1 $30 $0 #
transform $-1 1 0 0 0 1 0 0 0 1 59.838251899777219 38.560217302144409 8.7210320866338638 1 rotate no_reflect no_shear #
lump $-1 $-1 $31 $1 #
transform $-1 1 0 0 0 1 0 0 0 1 59.838251899777219 38.560217302144409 8.7210320866338638 1 rotate no_reflect no_shear #
lump $-1 $-1 $32 $2 #
transform $-1 1 0 0 0 1 0 0 0 1 59.838251899777219 38.560217302144409 8.7210320866338638 1 rotate no_reflect no_shear #
lump $-1 $-1 $33 $3 #
transform $-1 1 0 0 0 1 0 0 0 1 59.838251899777219 38.560217302144409 8.7210320866338638 1 rotate no_reflect no_shear #
lump $-1 $-1 $34 $4 #
transform $-1 1 0 0 0 1 0 0 0 1 59.838251899777219 38.560217302144409 8.7210320866338638 1 rotate no_reflect no_shear #
lump $-1 $-1 $35 $5 #
transform $-1 1 0 0 0 1 0 0 0 1 59.838251899777219 38.560217302144409 8.7210320866338638 1 rotate no_reflect no_shear #
lump $-1 $-1 $36 $6 #
transform $-1 1 0 0 0 1 0 0 0 1 59.838251899777219 38.560217302144409 8.7210320866338638 1 rotate no_reflect no_shear #
lump $-1 $-1 $37 $7 #
transform $-1 1 0 0 0 1 0 0 0 1 59.838251899777219 38.560217302144409 8.7210320866338638 1 rotate no_reflect no_shear #
lump $-1 $-1 $38 $8 #
transform $-1 1 0 0 0 1 0 0 0 1 59.838251899777219 38.560217302144409 8.7210320866338638 1 rotate no_reflect no_shear #
lump $-1 $-1 $39 $9 #
transform $-1 1 0 0 0 1 0 0 0 1 59.838251899777219 38.560217302144409 8.7210320866338638 1 rotate no_reflect no_shear #
shell $-1 $-1 $-1 $40 $-1 $10 #
shell $-1 $-1 $-1 $41 $-1 $12 #
shell $-1 $-1 $-1 $42 $-1 $14 #
shell $-1 $-1 $-1 $43 $-1 $16 #
shell $-1 $-1 $-1 $44 $-1 $18 #
shell $-1 $-1 $-1 $45 $-1 $20 #
shell $-1 $-1 $-1 $46 $-1 $22 #
shell $-1 $-1 $-1 $47 $-1 $24 #
shell $-1 $-1 $-1 $48 $-1 $26 #
shell $-1 $-1 $-1 $49 $-1 $28 #
face $-1 $50 $51 $30 $-1 $52 forward single #
face $-1 $53 $54 $31 $-1 $55 reversed single #
face $-1 $56 $57 $32 $-1 $58 reversed single #
face $-1 $59 $60 $33 $-1 $61 forward single #
face $-1 $62 $63 $34 $-1 $64 forward single #
face $-1 $65 $66 $35 $-1 $67 reversed single #
face $-1 $68 $69 $36 $-1 $70 forward single #
face $-1 $71 $72 $37 $-1 $73 forward single #
face $-1 $74 $75 $38 $-1 $76 reversed single #
face $-1 $77 $78 $39 $-1 $79 forward single #
face $-1 $80 $81 $30 $-1 $82 reversed single #
loop $-1 $-1 $83 $40 #
plane-surface $-1 0 0 8.7210320866338638 0 0 1 1 0 0 forward_v I I I I #
face $-1 $84 $85 $31 $-1 $86 reversed single #
loop $-1 $-1 $87 $41 #
plane-surface $-1 -46.334345732219099 -33.13378816963899 0 1 0 0 0 0 -1 forward_v I I I I #
face $-1 $88 $89 $32 $-1 $90 reversed single #
loop $-1 $-1 $91 $42 #
plane-surface $-1 -130.18233677776971 -27.707359037133571 99.96010928802923 0 1 0 -0.5877852598018023 0 0.80901698891910034 forward_v I I I I #
face $-1 $92 $93 $33 $-1 $94 forward single #
loop $-1 $95 $96 $43 #
cone-surface $-1 -54.839261033304098 -23.727155672955924 4.33652114815738 0.5877852598018023 0 -0.80901698891910034 0.80901698891910034 0 0.5877852598018023 1 I I 0 1 1 forward I I I I #
face $-1 $97 $98 $34 $-1 $99 forward single #
loop $-1 $100 $101 $44 #
cone-surface $-1 -54.839261033304098 -17.756850626689449 4.33652114815738 0.5877852598018023 0 -0.80901698891910034 0.80901698891910034 0 0.5877852598018023 1 I I 0 1 1 forward I I I I #
face $-1 $102 $103 $35 $-1 $104 reversed single #
loop $-1 $-1 $105 $45 #
plane-surface $-1 -130.18233677776971 5.4264291325054179 99.96010928802923 0 1 0 -0.5877852598018023 0 0.80901698891910034 forward_v I I I I #
face $-1 $106 $107 $36 $-1 $108 forward single #
loop $-1 $109 $110 $46 #
cone-surface $-1 -54.839261033304098 9.4066324966830663 4.33652114815738 0.5877852598018023 0 -0.80901698891910034 0.80901698891910034 0 0.5877852598018023 1 I I 0 1 1 forward I I I I #
face $-1 $111 $112 $37 $-1 $113 forward single #
loop $-1 $114 $115 $47 #
cone-surface $-1 -54.839261033304098 15.376937542949541 4.33652114815738 0.5877852598018023 0 -0.80901698891910034 0.80901698891910034 0 0.5877852598018023 1 I I 0 1 1 forward I I I I #
face $-1 $116 $117 $38 $-1 $118 reversed single #
loop $-1 $-1 $119 $48 #
plane-surface $-1 56.88446658278616 -2.5370415964840447 170.80176532018308 0 -1 0 -0.69465837861970381 0 -0.71933979245794832 forward_v I I I I #
face $-1 $120 $121 $39 $-1 $122 forward single #
loop $-1 $123 $124 $49 #
cone-surface $-1 53.215506289877283 -8.0754513130870222 2.1212301844790664 -0.69465837861970381 0 -0.71933979245794832 1.7983494811448708 0 -1.7366459465492596 1 I I 0 1 2.5 forward I I I I #
face $-1 $125 $126 $30 $-1 $127 reversed single #
loop $-1 $-1 $128 $50 #
plane-surface $-1 0 0 -8.7210320866338638 0 0 1 1 0 0 forward_v I I I I #
coedge $-1 $129 $130 $131 $132 forward $51 $-1 #
face $-1 $133 $134 $31 $-1 $135 reversed single #
loop $-1 $-1 $136 $53 #
plane-surface $-1 -44.365266729364293 -27.707359037133571 0 0 -1 0 0 0 -1 forward_v I I I I #
coedge $-1 $137 $138 $139 $140 forward $54 $-1 #
face $-1 $141 $142 $32 $-1 $143 reversed single #
loop $-1 $-1 $144 $56 #
plane-surface $-1 -59.838251899777219 -20.742003149822686 3.1397845397484332 -0.5877852598018023 0 0.80901698891910034 0.80901698891910034 0 0.5877852598018023 forward_v I I I I #
coedge $-1 $145 $146 $147 $148 reversed $57 $-1 #
face $-1 $-1 $149 $33 $-1 $150 forward single #
loop $-1 $151 $152 $59 #
cone-surface $-1 -53.387341570560238 -23.727155672955924 2.3381254886640619 0.5877852598018023 0 -0.80901698891910034 0.40450849445955017 0 0.29389262990090115 1 I I -0.70710678118654746 0.70710678118654746 0.5 forward I I I I #
loop $-1 $-1 $153 $43 #
coedge $-1 $96 $96 $154 $155 reversed $60 $-1 #
face $-1 $-1 $156 $34 $-1 $157 forward single #
loop $-1 $158 $159 $62 #
cone-surface $-1 -53.387341570560238 -17.756850626689449 2.3381254886640619 0.5877852598018023 0 -0.80901698891910034 0.40450849445955017 0 0.29389262990090115 1 I I -0.70710678118654746 0.70710678118654746 0.5 forward I I I I #
loop $-1 $-1 $160 $44 #
coedge $-1 $101 $101 $161 $162 reversed $63 $-1 #
face $-1 $163 $164 $35 $-1 $165 reversed single #
loop $-1 $-1 $166 $65 #
plane-surface $-1 -59.838251899777219 12.391785019816304 3.1397845397484332 -0.5877852598018023 0 0.80901698891910034 0.80901698891910034 0 0.5877852598018023 forward_v I I I I #
coedge $-1 $167 $168 $169 $170 reversed $66 $-1 #
face $-1 $-1 $171 $36 $-1 $172 forward single #
loop $-1 $173 $174 $68 #
cone-surface $-1 -53.387341570560238 9.4066324966830663 2.3381254886640619 0.5877852598018023 0 -0.80901698891910034 0.40450849445955017 0 0.29389262990090115 1 I I -0.70710678118654746 0.70710678118654746 0.5 forward I I I I #
loop $-1 $-1 $175 $46 #
coedge $-1 $110 $110 $176 $177 reversed $69 $-1 #
face $-1 $-1 $178 $37 $-1 $179 forward single #
loop $-1 $180 $181 $71 #
cone-surface $-1 -53.387341570560238 15.376937542949541 2.3381254886640619 0.5877852598018023 0 -0.80901698891910034 0.40450849445955017 0 0.29389262990090115 1 I I -0.70710678118654746 0.70710678118654746 0.5 forward I I I I #
loop $-1 $-1 $182 $47 #
coedge $-1 $115 $115 $183 $184 reversed $72 $-1 #
face $-1 $185 $186 $38 $-1 $187 reversed single #
loop $-1 $-1 $188 $74 #
plane-surface $-1 -26.249819505487153 -8.0754513130870222 84.713693914918721 0.69465837861970381 0 0.71933979245794832 0.71933979245794832 0 -0.69465837861970381 forward_v I I I I #
coedge $-1 $189 $190 $191 $192 reversed $75 $-1 #
face $-1 $-1 $193 $39 $-1 $194 forward single #
loop $-1 $195 $196 $77 #
cone-surface $-1 49.422121828213307 -8.0754513130870222 -1.8069343282539396 -0.69465837861970381 0 -0.71933979245794832 0.8991747405724354 0 -0.86832297327462982 1 I I -0.70710678118654746 0.70710678118654746 1.25 forward I I I I #
loop $-1 $-1 $197 $49 #
coedge $-1 $124 $124 $198 $199 reversed $78 $-1 #
face $-1 $200 $201 $30 $-1 $202 reversed single #
loop $-1 $-1 $203 $80 #
plane-surface $-1 0 -38.560217302144409 0 0 1 0 0 0 1 forward_v I I I I #
coedge $-1 $204 $205 $206 $207 forward $81 $-1 #
coedge $-1 $208 $83 $209 $210 forward $51 $-1 #
coedge $-1 $83 $208 $211 $212 forward $51 $-1 #
coedge $-1 $213 $214 $83 $132 reversed $215 $-1 #
edge $-1 $216 -38.560217302144409 $217 38.560217302144409 $131 $218 forward 7 unknown #
face $-1 $219 $220 $31 $-1 $221 forward single #
loop $-1 $-1 $222 $84 #
plane-surface $-1 -42.396187726509488 -33.13378816963899 0 -1 0 0 0 0 1 forward_v I I I I #
coedge $-1 $223 $224 $225 $226 forward $85 $-1 #
coedge $-1 $227 $87 $228 $229 reversed $54 $-1 #
coedge $-1 $87 $227 $230 $231 reversed $54 $-1 #
coedge $-1 $224 $223 $87 $140 reversed $85 $-1 #
edge $-1 $232 -8.7210320866338638 $233 8.7210320866338638 $139 $234 forward 7 unknown #
face $-1 $235 $236 $32 $-1 $237 reversed single #
loop $-1 $-1 $238 $88 #
plane-surface $-1 -130.18233677776971 -13.776647262511801 99.96010928802923 0 -1 0 0.5877852598018023 0 -0.80901698891910034 forward_v I I I I #
coedge $-1 $239 $240 $241 $242 reversed $89 $-1 #
coedge $-1 $146 $91 $243 $244 reversed $57 $-1 #
coedge $-1 $91 $145 $239 $245 reversed $57 $-1 #
coedge $-1 $241 $246 $91 $148 forward $247 $-1 #
edge $-1 $248 5.2529164891076334 $249 12.934844556367956 $147 $250 forward 7 unknown #
loop $-1 $-1 $154 $92 #
plane-surface $-1 -59.838251899777219 -20.742003149822686 3.1397845397484332 -0.5877852598018023 0 0.80901698891910034 0.80901698891910034 0 0.5877852598018023 forward_v I I I I #
loop $-1 $-1 $251 $59 #
coedge $-1 $152 $152 $153 $252 reversed $93 $-1 #
coedge $-1 $153 $153 $152 $252 forward $95 $-1 #
coedge $-1 $154 $154 $96 $155 forward $149 $-1 #
edge $-1 $253 0 $253 6.2831853071796004 $154 $254 forward 7 unknown #
loop $-1 $-1 $161 $97 #
plane-surface $-1 -59.838251899777219 -20.742003149822686 3.1397845397484332 -0.5877852598018023 0 0.80901698891910034 0.80901698891910034 0 0.5877852598018023 forward_v I I I I #
loop $-1 $-1 $255 $62 #
coedge $-1 $159 $159 $160 $256 reversed $98 $-1 #
coedge $-1 $160 $160 $159 $256 forward $100 $-1 #
coedge $-1 $161 $161 $101 $162 forward $156 $-1 #
edge $-1 $257 0 $257 6.2831853071796004 $161 $258 forward 7 unknown #
face $-1 $259 $260 $35 $-1 $261 forward single #
loop $-1 $-1 $262 $102 #
plane-surface $-1 -130.18233677776971 19.357140907127189 99.96010928802923 0 -1 0 0.5877852598018023 0 -0.80901698891910034 forward_v I I I I #
coedge $-1 $263 $264 $265 $266 reversed $103 $-1 #
coedge $-1 $168 $105 $267 $268 reversed $66 $-1 #
coedge $-1 $105 $167 $263 $269 reversed $66 $-1 #
coedge $-1 $265 $270 $105 $170 forward $260 $-1 #
edge $-1 $271 5.2529164891076334 $272 12.934844556367956 $169 $273 forward 7 unknown #
loop $-1 $-1 $176 $106 #
plane-surface $-1 -59.838251899777219 12.391785019816304 3.1397845397484332 -0.5877852598018023 0 0.80901698891910034 0.80901698891910034 0 0.5877852598018023 forward_v I I I I #
loop $-1 $-1 $274 $68 #
coedge $-1 $174 $174 $175 $275 reversed $107 $-1 #
coedge $-1 $175 $175 $174 $275 forward $109 $-1 #
coedge $-1 $176 $176 $110 $177 forward $171 $-1 #
edge $-1 $276 0 $276 6.2831853071796004 $176 $277 forward 7 unknown #
loop $-1 $-1 $183 $111 #
plane-surface $-1 -59.838251899777219 12.391785019816304 3.1397845397484332 -0.5877852598018023 0 0.80901698891910034 0.80901698891910034 0 0.5877852598018023 forward_v I I I I #
loop $-1 $-1 $278 $71 #
coedge $-1 $181 $181 $182 $279 reversed $112 $-1 #
coedge $-1 $182 $182 $181 $279 forward $114 $-1 #
coedge $-1 $183 $183 $115 $184 forward $178 $-1 #
edge $-1 $280 0 $280 6.2831853071796004 $183 $281 forward 7 unknown #
face $-1 $282 $283 $38 $-1 $284 forward single #
loop $-1 $-1 $285 $116 #
plane-surface $-1 56.88446658278616 -13.61386102969 170.80176532018308 0 1 0 0.69465837861970381 0 0.71933979245794832 forward_v I I I I #
coedge $-1 $286 $287 $288 $289 reversed $117 $-1 #
coedge $-1 $190 $119 $290 $291 reversed $75 $-1 #
coedge $-1 $119 $189 $286 $292 reversed $75 $-1 #
coedge $-1 $288 $293 $119 $192 forward $283 $-1 #
edge $-1 $294 -31.396018608384139 $295 -24.000650365362944 $191 $296 forward 7 unknown #
loop $-1 $-1 $198 $120 #
plane-surface $-1 -26.249819505487153 -8.0754513130870222 84.713693914918721 0.69465837861970381 0 0.71933979245794832 0.71933979245794832 0 -0.69465837861970381 forward_v I I I I #
loop $-1 $-1 $297 $77 #
coedge $-1 $196 $196 $197 $298 reversed $121 $-1 #
coedge $-1 $197 $197 $196 $298 forward $123 $-1 #
coedge $-1 $198 $198 $124 $199 forward $193 $-1 #
edge $-1 $299 0 $299 6.2831853071796004 $198 $300 forward 7 unknown #
face $-1 $301 $302 $30 $-1 $303 reversed single #
loop $-1 $-1 $304 $125 #
plane-surface $-1 -59.838251899777219 0 0 1 0 0 0 0 -1 forward_v I I I I #
coedge $-1 $305 $211 $306 $307 forward $126 $-1 #
coedge $-1 $308 $128 $305 $309 forward $81 $-1 #
coedge $-1 $128 $308 $310 $311 forward $81 $-1 #
coedge $-1 $214 $213 $128 $207 reversed $215 $-1 #
edge $-1 $312 -38.560217302144409 $313 38.560217302144409 $206 $314 forward 7 unknown #
coedge $-1 $130 $129 $315 $316 forward $51 $-1 #
coedge $-1 $317 $318 $129 $210 reversed $302 $-1 #
edge $-1 $217 -59.838251899777219 $319 59.838251899777219 $209 $320 forward 7 unknown #
coedge $-1 $203 $321 $130 $212 reversed $126 $-1 #
edge $-1 $322 -59.838251899777219 $216 59.838251899777219 $211 $323 forward 7 unknown #
coedge $-1 $206 $131 $321 $324 forward $215 $-1 #
coedge $-1 $131 $206 $317 $325 reversed $215 $-1 #
loop $-1 $-1 $213 $301 #
vertex $-1 $132 $326 #
vertex $-1 $132 $327 #
straight-curve $-1 59.838251899777219 0 8.7210320866338638 0 1 0 I I #
face $-1 $328 $329 $31 $-1 $330 reversed single #
loop $-1 $-1 $331 $133 #
plane-surface $-1 0 0 8.7210320866338638 0 0 1 1 0 0 forward_v I I I I #
coedge $-1 $332 $333 $334 $335 reversed $134 $-1 #
coedge $-1 $139 $136 $336 $337 reversed $85 $-1 #
coedge $-1 $136 $139 $338 $339 reversed $85 $-1 #
coedge $-1 $333 $332 $136 $226 reversed $134 $-1 #
edge $-1 $340 -8.7210320866338638 $341 8.7210320866338638 $225 $342 forward 7 unknown #
coedge $-1 $138 $137 $343 $344 reversed $54 $-1 #
coedge $-1 $336 $345 $137 $229 forward $329 $-1 #
edge $-1 $346 -21.993323217324914 $233 -11.140464952314076 $228 $347 forward 7 unknown #
coedge $-1 $348 $338 $138 $231 forward $220 $-1 #
edge $-1 $232 11.140464952314076 $349 21.993323217324914 $230 $350 forward 7 unknown #
vertex $-1 $231 $351 #
vertex $-1 $229 $352 #
straight-curve $-1 -46.334345732219099 -27.707359037133571 0 0 0 -1 I I #
face $-1 $-1 $247 $32 $-1 $353 forward single #
loop $-1 $-1 $354 $141 #
plane-surface $-1 -59.838251899777219 0 0 1 0 0 0 0 -1 forward_v I I I I #
coedge $-1 $355 $356 $357 $358 reversed $142 $-1 #
coedge $-1 $359 $144 $146 $245 forward $89 $-1 #
coedge $-1 $144 $359 $355 $360 forward $89 $-1 #
coedge $-1 $357 $147 $144 $242 forward $247 $-1 #
edge $-1 $249 -17.336357462222228 $361 -3.4056456876004582 $241 $362 forward 7 unknown #
coedge $-1 $363 $364 $145 $244 forward $236 $-1 #
edge $-1 $365 -46.840270104266182 $248 -41.259022557380753 $243 $366 forward 7 unknown #
edge $-1 $249 -9.4953853534322938 $365 0 $146 $367 forward 7 unknown #
coedge $-1 $147 $357 $363 $368 forward $247 $-1 #
loop $-1 $-1 $357 $235 #
vertex $-1 $244 $369 #
vertex $-1 $148 $370 #
straight-curve $-1 -65.091168388884853 -27.707359037133571 8.721032086633862 1 0 0 I I #
coedge $-1 $251 $251 $-1 $371 reversed $151 $-1 #
edge $-1 $372 0 $372 6.2831853071796004 $152 $373 forward 7 unknown #
vertex $-1 $155 $374 #
ellipse-curve $-1 -55.997287866147055 -23.727155672955924 5.9304083131911494 -0.5877852598018023 0 0.80901698891910034 0.80901698891910034 0 0.5877852598018023 1 I I #
coedge $-1 $255 $255 $-1 $375 reversed $158 $-1 #
edge $-1 $376 0 $376 6.2831853071796004 $159 $377 forward 7 unknown #
vertex $-1 $162 $378 #
ellipse-curve $-1 -55.997287866147055 -17.756850626689449 5.9304083131911494 -0.5877852598018023 0 0.80901698891910034 0.80901698891910034 0 0.5877852598018023 1 I I #
face $-1 $-1 $379 $35 $-1 $380 reversed single #
loop $-1 $-1 $169 $163 #
plane-surface $-1 0 0 8.7210320866338638 0 0 1 1 0 0 forward_v I I I I #
coedge $-1 $381 $382 $383 $384 reversed $164 $-1 #
coedge $-1 $385 $166 $168 $269 forward $103 $-1 #
coedge $-1 $166 $385 $381 $386 forward $103 $-1 #
coedge $-1 $383 $169 $166 $266 forward $260 $-1 #
edge $-1 $272 -0.76946337740273396 $387 13.161248397219037 $265 $388 forward 7 unknown #
coedge $-1 $389 $390 $167 $268 forward $379 $-1 #
edge $-1 $391 -46.840270104266182 $271 -41.259022557380753 $267 $392 forward 7 unknown #
edge $-1 $272 -9.4953853534322938 $391 0 $168 $393 forward 7 unknown #
coedge $-1 $169 $383 $389 $394 forward $260 $-1 #
vertex $-1 $268 $395 #
vertex $-1 $170 $396 #
straight-curve $-1 -65.091168388884853 5.4264291325054179 8.721032086633862 1 0 0 I I #
coedge $-1 $274 $274 $-1 $397 reversed $173 $-1 #
edge $-1 $398 0 $398 6.2831853071796004 $174 $399 forward 7 unknown #
vertex $-1 $177 $400 #
ellipse-curve $-1 -55.997287866147055 9.4066324966830663 5.9304083131911494 -0.5877852598018023 0 0.80901698891910034 0.80901698891910034 0 0.5877852598018023 1 I I #
coedge $-1 $278 $278 $-1 $401 reversed $180 $-1 #
edge $-1 $402 0 $402 6.2831853071796004 $181 $403 forward 7 unknown #
vertex $-1 $184 $404 #
ellipse-curve $-1 -55.997287866147055 15.376937542949541 5.9304083131911494 -0.5877852598018023 0 0.80901698891910034 0.80901698891910034 0 0.5877852598018023 1 I I #
face $-1 $-1 $405 $38 $-1 $406 reversed single #
loop $-1 $-1 $191 $185 #
plane-surface $-1 0 0 8.7210320866338638 0 0 1 1 0 0 forward_v I I I I #
coedge $-1 $407 $408 $409 $410 reversed $186 $-1 #
coedge $-1 $411 $188 $190 $292 forward $117 $-1 #
coedge $-1 $188 $411 $407 $412 forward $117 $-1 #
coedge $-1 $409 $191 $188 $289 forward $283 $-1 #
edge $-1 $295 -1.5006840600594664 $413 9.5761353731464887 $288 $414 forward 7 unknown #
coedge $-1 $415 $416 $189 $291 forward $405 $-1 #
edge $-1 $417 -83.821474833446146 $294 -76.679850573457671 $290 $418 forward 7 unknown #
edge $-1 $295 109.39573201331476 $417 119.67650379955445 $190 $419 forward 7 unknown #
coedge $-1 $191 $409 $415 $420 forward $283 $-1 #
vertex $-1 $291 $421 #
vertex $-1 $192 $422 #
straight-curve $-1 28.44223329139308 -2.5370415964840447 8.7210320866338691 -1 0 0 I I #
coedge $-1 $297 $297 $-1 $423 reversed $195 $-1 #
edge $-1 $424 0 $424 6.2831853071796004 $196 $425 forward 7 unknown #
vertex $-1 $199 $426 #
ellipse-curve $-1 56.140567778266622 -8.0754513130870222 5.1502199566396332 0.69465837861970381 0 0.71933979245794832 1.7983494811448708 0 -1.7366459465492596 1 I I #
face $-1 $-1 $215 $30 $-1 $427 reversed single #
loop $-1 $-1 $317 $200 #
plane-surface $-1 0 38.560217302144409 0 0 -1 0 0 0 -1 forward_v I I I I #
coedge $-1 $428 $315 $318 $429 forward $201 $-1 #
coedge $-1 $321 $203 $204 $309 reversed $126 $-1 #
coedge $-1 $315 $428 $203 $307 reversed $201 $-1 #
edge $-1 $322 -8.7210320866338638 $430 8.7210320866338638 $306 $431 forward 7 unknown #
coedge $-1 $205 $204 $428 $432 forward $81 $-1 #
edge $-1 $313 -59.838251899777219 $430 59.838251899777219 $305 $433 forward 7 unknown #
coedge $-1 $318 $317 $205 $311 reversed $302 $-1 #
edge $-1 $434 -59.838251899777219 $312 59.838251899777219 $310 $435 forward 7 unknown #
vertex $-1 $207 $436 #
vertex $-1 $324 $437 #
straight-curve $-1 59.838251899777219 0 -8.7210320866338638 0 -1 0 I I #
coedge $-1 $304 $306 $208 $316 reversed $201 $-1 #
edge $-1 $319 -38.560217302144409 $322 38.560217302144409 $315 $438 forward 7 unknown #
coedge $-1 $310 $209 $214 $325 forward $302 $-1 #
coedge $-1 $209 $310 $304 $429 reversed $302 $-1 #
vertex $-1 $210 $439 #
straight-curve $-1 0 38.560217302144409 8.7210320866338638 -1 0 0 I I #
coedge $-1 $211 $305 $213 $324 reversed $126 $-1 #
vertex $-1 $316 $440 #
straight-curve $-1 0 -38.560217302144409 8.7210320866338638 1 0 0 I I #
edge $-1 $216 -8.7210320866338638 $313 8.7210320866338638 $213 $441 forward 7 unknown #
edge $-1 $217 -8.7210320866338638 $312 8.7210320866338638 $214 $442 forward 7 unknown #
point $-1 59.838251899777219 -38.560217302144409 8.7210320866338638 #
point $-1 59.838251899777219 38.560217302144409 8.7210320866338638 #
face $-1 $-1 $443 $31 $-1 $444 reversed single #
loop $-1 $-1 $445 $219 #
plane-surface $-1 0 0 -8.7210320866338638 0 0 1 1 0 0 forward_v I I I I #
coedge $-1 $338 $348 $333 $446 forward $220 $-1 #
coedge $-1 $225 $222 $445 $447 reversed $134 $-1 #
coedge $-1 $222 $225 $331 $446 reversed $134 $-1 #
coedge $-1 $448 $449 $222 $335 forward $443 $-1 #
edge $-1 $450 -8.7210320866338638 $451 8.7210320866338638 $334 $452 forward 7 unknown #
coedge $-1 $445 $228 $223 $337 forward $329 $-1 #
edge $-1 $233 -24.151712367536952 $341 -20.213554361827342 $336 $453 forward 7 unknown #
coedge $-1 $230 $331 $224 $339 forward $220 $-1 #
edge $-1 $340 20.213554361827342 $232 24.151712367536952 $338 $454 forward 7 unknown #
vertex $-1 $339 $455 #
vertex $-1 $337 $456 #
straight-curve $-1 -42.396187726509488 -27.707359037133571 0 0 0 -1 I I #
coedge $-1 $449 $448 $227 $344 forward $443 $-1 #
edge $-1 $349 -8.7210320866338638 $346 8.7210320866338638 $343 $457 forward 7 unknown #
coedge $-1 $228 $445 $449 $458 forward $329 $-1 #
vertex $-1 $229 $459 #
straight-curve $-1 -46.334345732219099 -16.566894084819495 -8.7210320866338638 0 1 0 I I #
coedge $-1 $331 $230 $448 $460 forward $220 $-1 #
vertex $-1 $460 $461 #
straight-curve $-1 -46.334345732219099 -16.566894084819495 8.7210320866338638 0 -1 0 I I #
point $-1 -46.334345732219099 -27.707359037133571 8.7210320866338638 #
point $-1 -46.334345732219099 -27.707359037133571 -8.7210320866338638 #
plane-surface $-1 0 0 8.7210320866338638 0 0 1 1 0 0 forward_v I I I I #
coedge $-1 $364 $363 $356 $462 forward $236 $-1 #
coedge $-1 $356 $238 $240 $360 reversed $142 $-1 #
coedge $-1 $238 $355 $354 $462 reversed $142 $-1 #
coedge $-1 $246 $241 $238 $358 forward $247 $-1 #
edge $-1 $361 -12.934844556367956 $463 -5.2529164891076334 $357 $464 forward 7 unknown #
coedge $-1 $240 $239 $364 $465 reversed $89 $-1 #
edge $-1 $466 0 $361 9.4953853534322938 $355 $467 forward 7 unknown #
vertex $-1 $242 $468 #
straight-curve $-1 -52.156323832516897 -10.371001574911343 8.7210320866338638 0 1 0 I I #
coedge $-1 $354 $243 $246 $368 reversed $236 $-1 #
coedge $-1 $243 $354 $359 $465 forward $236 $-1 #
vertex $-1 $244 $469 #
straight-curve $-1 -59.838251899777219 -27.707359037133571 49.980054644014615 0 0 1 I I #
straight-curve $-1 -59.838251899777219 -27.707359037133571 3.1397845397484332 -0.80901698891910034 0 -0.5877852598018023 I I #
edge $-1 $463 13.776647262511801 $248 27.707359037133571 $363 $470 forward 7 unknown #
point $-1 -59.838251899777219 -27.707359037133571 8.7210320866338638 #
point $-1 -52.156323832516897 -27.707359037133571 8.7210320866338638 #
edge $-1 $471 1 $471 0 $251 $-1 forward 7 unknown #
vertex $-1 $252 $472 #
ellipse-curve $-1 -53.681234200461141 -23.727155672955924 2.742633983123612 -0.5877852598018023 0 0.80901698891910034 0.80901698891910034 0 0.5877852598018023 1 I I #
point $-1 -55.18827087722795 -23.727155672955924 6.5181935729929492 #
edge $-1 $473 1 $473 0 $255 $-1 forward 7 unknown #
vertex $-1 $256 $474 #
ellipse-curve $-1 -53.681234200461141 -17.756850626689449 2.742633983123612 -0.5877852598018023 0 0.80901698891910034 0.80901698891910034 0 0.5877852598018023 1 I I #
point $-1 -55.18827087722795 -17.756850626689449 6.5181935729929492 #
loop $-1 $-1 $267 $259 #
plane-surface $-1 -59.838251899777219 0 0 1 0 0 0 0 -1 forward_v I I I I #
coedge $-1 $382 $262 $264 $386 reversed $164 $-1 #
coedge $-1 $262 $381 $475 $476 reversed $164 $-1 #
coedge $-1 $270 $265 $262 $384 forward $260 $-1 #
edge $-1 $387 -12.934844556367956 $477 -5.2529164891076334 $383 $478 forward 7 unknown #
coedge $-1 $264 $263 $390 $479 reversed $103 $-1 #
edge $-1 $480 0 $387 9.4953853534322938 $381 $481 forward 7 unknown #
vertex $-1 $266 $482 #
straight-curve $-1 -52.156323832516897 6.1958925099081519 8.7210320866338638 0 1 0 I I #
coedge $-1 $475 $267 $270 $394 reversed $379 $-1 #
coedge $-1 $267 $475 $385 $479 forward $379 $-1 #
vertex $-1 $268 $483 #
straight-curve $-1 -59.838251899777219 5.4264291325054179 49.980054644014615 0 0 1 I I #
straight-curve $-1 -59.838251899777219 5.4264291325054179 3.1397845397484332 -0.80901698891910034 0 -0.5877852598018023 I I #
edge $-1 $477 -19.357140907127189 $271 -5.4264291325054179 $389 $484 forward 7 unknown #
point $-1 -59.838251899777219 5.4264291325054179 8.7210320866338638 #
point $-1 -52.156323832516897 5.4264291325054179 8.7210320866338638 #
edge $-1 $485 1 $485 0 $274 $-1 forward 7 unknown #
vertex $-1 $275 $486 #
ellipse-curve $-1 -53.681234200461141 9.4066324966830663 2.742633983123612 -0.5877852598018023 0 0.80901698891910034 0.80901698891910034 0 0.5877852598018023 1 I I #
point $-1 -55.18827087722795 9.4066324966830663 6.5181935729929492 #
edge $-1 $487 1 $487 0 $278 $-1 forward 7 unknown #
vertex $-1 $279 $488 #
ellipse-curve $-1 -53.681234200461141 15.376937542949541 2.742633983123612 -0.5877852598018023 0 0.80901698891910034 0.80901698891910034 0 0.5877852598018023 1 I I #
point $-1 -55.18827087722795 15.376937542949541 6.5181935729929492 #
loop $-1 $-1 $290 $282 #
plane-surface $-1 59.838251899777219 0 0 -1 0 0 0 0 1 forward_v I I I I #
coedge $-1 $408 $285 $287 $412 reversed $186 $-1 #
coedge $-1 $285 $407 $489 $490 reversed $186 $-1 #
coedge $-1 $293 $288 $285 $410 forward $283 $-1 #
edge $-1 $413 24.000650365362944 $491 31.396018608384139 $409 $492 forward 7 unknown #
coedge $-1 $287 $286 $416 $493 reversed $117 $-1 #
edge $-1 $494 -119.67650379955445 $413 -109.39573201331476 $407 $495 forward 7 unknown #
vertex $-1 $289 $496 #
straight-curve $-1 52.44288365675601 -4.0377256565435111 8.7210320866338691 0 -1 0 I I #
coedge $-1 $489 $290 $293 $420 reversed $405 $-1 #
coedge $-1 $290 $489 $411 $493 forward $405 $-1 #
vertex $-1 $291 $497 #
straight-curve $-1 59.838251899777219 -2.5370415964840447 85.40088266009154 0 0 1 I I #
straight-curve $-1 -26.249819505487153 -2.5370415964840447 84.713693914918721 0.71933979245794832 0 -0.69465837861970381 I I #
edge $-1 $491 -13.61386102969 $294 -2.5370415964840447 $415 $498 forward 7 unknown #
point $-1 59.838251899777219 -2.5370415964840447 8.7210320866338638 #
point $-1 52.442883656756024 -2.5370415964840447 8.7210320866338691 #
edge $-1 $499 1 $499 0 $297 $-1 forward 7 unknown #
vertex $-1 $298 $500 #
ellipse-curve $-1 50.290444801487936 -8.0754513130870222 -0.90775958768150422 0.69465837861970381 0 0.71933979245794832 1.7983494811448708 0 -1.7366459465492596 1 I I #
point $-1 57.938917259411497 -8.0754513130870222 3.413574010090378 #
plane-surface $-1 59.838251899777219 0 0 -1 0 0 0 0 1 forward_v I I I I #
coedge $-1 $306 $304 $308 $432 reversed $201 $-1 #
edge $-1 $319 -8.7210320866338638 $434 8.7210320866338638 $318 $501 forward 7 unknown #
vertex $-1 $432 $502 #
straight-curve $-1 -59.838251899777219 -38.560217302144409 0 0 0 -1 I I #
edge $-1 $430 -38.560217302144409 $434 38.560217302144409 $428 $503 forward 7 unknown #
straight-curve $-1 0 -38.560217302144409 -8.7210320866338638 -1 0 0 I I #
vertex $-1 $311 $504 #
straight-curve $-1 0 38.560217302144409 -8.7210320866338638 1 0 0 I I #
point $-1 59.838251899777219 38.560217302144409 -8.7210320866338638 #
point $-1 59.838251899777219 -38.560217302144409 -8.7210320866338638 #
straight-curve $-1 -59.838251899777219 0 8.7210320866338638 0 -1 0 I I #
point $-1 -59.838251899777219 38.560217302144409 8.7210320866338638 #
point $-1 -59.838251899777219 -38.560217302144409 8.7210320866338638 #
straight-curve $-1 59.838251899777219 -38.560217302144409 0 0 0 -1 I I #
straight-curve $-1 59.838251899777219 38.560217302144409 0 0 0 -1 I I #
loop $-1 $-1 $334 $328 #
plane-surface $-1 0 -38.560217302144409 0 0 1 0 0 0 1 forward_v I I I I #
coedge $-1 $345 $336 $332 $447 forward $329 $-1 #
edge $-1 $451 -21.993323217324914 $340 -11.140464952314076 $331 $505 forward 7 unknown #
edge $-1 $341 11.140464952314076 $450 21.993323217324914 $445 $506 forward 7 unknown #
coedge $-1 $343 $334 $348 $460 reversed $443 $-1 #
coedge $-1 $334 $343 $345 $458 reversed $443 $-1 #
vertex $-1 $458 $507 #
vertex $-1 $335 $508 #
straight-curve $-1 -42.396187726509488 -38.560217302144409 0 0 0 1 I I #
straight-curve $-1 -22.182633364682147 -27.707359037133571 -8.7210320866338638 1 0 0 I I #
straight-curve $-1 -22.182633364682147 -27.707359037133571 8.7210320866338638 -1 0 0 I I #
point $-1 -42.396187726509488 -27.707359037133571 8.7210320866338638 #
point $-1 -42.396187726509488 -27.707359037133571 -8.7210320866338638 #
straight-curve $-1 -46.334345732219099 -38.560217302144409 0 0 0 -1 I I #
edge $-1 $450 42.396187726509488 $346 46.334345732219099 $449 $509 forward 7 unknown #
point $-1 -46.334345732219099 -38.560217302144409 -8.7210320866338638 #
edge $-1 $349 -46.334345732219099 $451 -42.396187726509488 $448 $510 forward 7 unknown #
point $-1 -46.334345732219099 -38.560217302144409 8.7210320866338638 #
edge $-1 $463 41.259022557380753 $466 46.840270104266182 $354 $511 forward 7 unknown #
vertex $-1 $368 $512 #
straight-curve $-1 -65.091168388884853 -13.776647262511801 8.721032086633862 -1 0 0 I I #
edge $-1 $466 3.4056456876004582 $365 17.336357462222228 $364 $513 forward 7 unknown #
vertex $-1 $465 $514 #
straight-curve $-1 -59.838251899777219 -13.776647262511801 3.1397845397484332 0.80901698891910034 0 0.5877852598018023 I I #
point $-1 -52.156323832516897 -13.776647262511801 8.7210320866338638 #
point $-1 -59.838251899777219 -27.707359037133571 3.1397845397484332 #
straight-curve $-1 -59.838251899777219 0 8.7210320866338638 0 -1 0 I I #
vertex $-1 $371 $515 #
point $-1 -52.872217211542036 -23.727155672955924 3.3304192429254145 #
vertex $-1 $375 $516 #
point $-1 -52.872217211542036 -17.756850626689449 3.3304192429254145 #
coedge $-1 $390 $389 $382 $476 forward $379 $-1 #
edge $-1 $477 41.259022557380753 $480 46.840270104266182 $475 $517 forward 7 unknown #
vertex $-1 $394 $518 #
straight-curve $-1 -65.091168388884853 19.357140907127189 8.721032086633862 -1 0 0 I I #
edge $-1 $480 -13.161248397219037 $391 0.76946337740273396 $390 $519 forward 7 unknown #
vertex $-1 $479 $520 #
straight-curve $-1 -59.838251899777219 19.357140907127189 3.1397845397484332 0.80901698891910034 0 0.5877852598018023 I I #
point $-1 -52.156323832516897 19.357140907127189 8.7210320866338638 #
point $-1 -59.838251899777219 5.4264291325054179 3.1397845397484332 #
straight-curve $-1 -59.838251899777219 0 8.7210320866338638 0 -1 0 I I #
vertex $-1 $397 $521 #
point $-1 -52.872217211542036 9.4066324966830663 3.3304192429254145 #
vertex $-1 $401 $522 #
point $-1 -52.872217211542036 15.376937542949541 3.3304192429254145 #
coedge $-1 $416 $415 $408 $490 forward $405 $-1 #
edge $-1 $491 76.679850573457671 $494 83.821474833446146 $489 $523 forward 7 unknown #
vertex $-1 $420 $524 #
straight-curve $-1 28.44223329139308 -13.61386102969 8.7210320866338691 1 0 0 I I #
edge $-1 $494 -9.5761353731464887 $417 1.5006840600594664 $416 $525 forward 7 unknown #
vertex $-1 $493 $526 #
straight-curve $-1 -26.249819505487153 -13.61386102969 84.713693914918721 -0.71933979245794832 0 0.69465837861970381 I I #
point $-1 52.442883656756024 -13.61386102969 8.7210320866338691 #
point $-1 59.838251899777219 -2.5370415964840447 1.5794078266453937 #
straight-curve $-1 59.838251899777219 0 8.7210320866338638 0 1 0 I I #
vertex $-1 $423 $527 #
point $-1 52.088794282632804 -8.0754513130870222 -2.644405534230764 #
straight-curve $-1 -59.838251899777219 38.560217302144409 0 0 0 -1 I I #
point $-1 -59.838251899777219 -38.560217302144409 -8.7210320866338638 #
straight-curve $-1 -59.838251899777219 0 -8.7210320866338638 0 1 0 I I #
point $-1 -59.838251899777219 38.560217302144409 -8.7210320866338638 #
straight-curve $-1 -42.396187726509488 -16.566894084819495 8.7210320866338638 0 1 0 I I #
straight-curve $-1 -42.396187726509488 -16.566894084819495 -8.7210320866338638 0 -1 0 I I #
point $-1 -42.396187726509488 -38.560217302144409 -8.7210320866338638 #
point $-1 -42.396187726509488 -38.560217302144409 8.7210320866338638 #
straight-curve $-1 0 -38.560217302144409 -8.7210320866338638 -1 0 0 I I #
straight-curve $-1 0 -38.560217302144409 8.7210320866338638 1 0 0 I I #
straight-curve $-1 -59.838251899777219 -13.776647262511801 49.980054644014615 0 0 -1 I I #
point $-1 -59.838251899777219 -13.776647262511801 8.7210320866338638 #
straight-curve $-1 -59.838251899777219 -10.371001574911343 3.1397845397484314 0 -1 0 I I #
point $-1 -59.838251899777219 -13.776647262511801 3.1397845397484332 #
point $-1 -53.093448940659336 -23.727155672955924 1.9336169942045118 #
point $-1 -53.093448940659336 -17.756850626689449 1.9336169942045118 #
straight-curve $-1 -59.838251899777219 19.357140907127189 49.980054644014615 0 0 -1 I I #
point $-1 -59.838251899777219 19.357140907127189 8.7210320866338638 #
straight-curve $-1 -59.838251899777219 6.1958925099081519 3.1397845397484314 0 -1 0 I I #
point $-1 -59.838251899777219 19.357140907127189 3.1397845397484332 #
point $-1 -53.093448940659336 9.4066324966830663 1.9336169942045118 #
point $-1 -53.093448940659336 15.376937542949541 1.9336169942045118 #
straight-curve $-1 59.838251899777219 -13.61386102969 85.40088266009154 0 0 -1 I I #
point $-1 59.838251899777219 -13.61386102969 8.7210320866338638 #
straight-curve $-1 59.838251899777219 -4.0377256565435111 1.5794078266454008 0 1 0 I I #
point $-1 59.838251899777219 -13.61386102969 1.5794078266453937 #
point $-1 48.553798854938677 -8.0754513130870222 -2.7061090688263749 #
End-of-ACIS-data 