500 0 8 0           
7 Unknown 11 ACIS 5.0 NT 24 Fri Mar 26 17:14:53 1999 
-1 9.9999999999999995e-007 1e-010 
body $-1 $8 $-1 $9 #
body $-1 $10 $-1 $11 #
body $-1 $12 $-1 $13 #
body $-1 $14 $-1 $15 #
body $-1 $16 $-1 $17 #
body $-1 $18 $-1 $19 #
body $-1 $20 $-1 $21 #
body $-1 $22 $-1 $23 #
lump $-1 $-1 $24 $0 #
transform $-1 1 0 0 0 1 0 0 0 1 54.897915585802792 29.097888989518328 8.1407842565267305 1 rotate no_reflect no_shear #
lump $-1 $-1 $25 $1 #
transform $-1 1 0 0 0 1 0 0 0 1 54.897915585802792 29.097888989518328 8.1407842565267305 1 rotate no_reflect no_shear #
lump $-1 $-1 $26 $2 #
transform $-1 1 0 0 0 1 0 0 0 1 54.897915585802792 29.097888989518328 8.1407842565267305 1 rotate no_reflect no_shear #
lump $-1 $-1 $27 $3 #
transform $-1 1 0 0 0 1 0 0 0 1 54.897915585802792 29.097888989518328 8.1407842565267305 1 rotate no_reflect no_shear #
lump $-1 $-1 $28 $4 #
transform $-1 1 0 0 0 1 0 0 0 1 54.897915585802792 29.097888989518328 8.1407842565267305 1 rotate no_reflect no_shear #
lump $-1 $-1 $29 $5 #
transform $-1 1 0 0 0 1 0 0 0 1 54.897915585802792 29.097888989518328 8.1407842565267305 1 rotate no_reflect no_shear #
lump $-1 $-1 $30 $6 #
transform $-1 1 0 0 0 1 0 0 0 1 54.897915585802792 29.097888989518328 8.1407842565267305 1 rotate no_reflect no_shear #
lump $-1 $-1 $31 $7 #
transform $-1 1 0 0 0 1 0 0 0 1 54.897915585802792 29.097888989518328 8.1407842565267305 1 rotate no_reflect no_shear #
shell $-1 $-1 $-1 $32 $-1 $8 #
shell $-1 $-1 $-1 $33 $-1 $10 #
shell $-1 $-1 $-1 $34 $-1 $12 #
shell $-1 $-1 $-1 $35 $-1 $14 #
shell $-1 $-1 $-1 $36 $-1 $16 #
shell $-1 $-1 $-1 $37 $-1 $18 #
shell $-1 $-1 $-1 $38 $-1 $20 #
shell $-1 $-1 $-1 $39 $-1 $22 #
face $-1 $40 $41 $24 $-1 $42 forward single #
face $-1 $43 $44 $25 $-1 $45 reversed single #
face $-1 $46 $47 $26 $-1 $48 reversed single #
face $-1 $49 $50 $27 $-1 $51 forward single #
face $-1 $52 $53 $28 $-1 $54 reversed single #
face $-1 $55 $56 $29 $-1 $57 forward single #
face $-1 $58 $59 $30 $-1 $60 forward single #
face $-1 $61 $62 $31 $-1 $63 forward single #
face $-1 $64 $65 $24 $-1 $66 reversed single #
loop $-1 $-1 $67 $32 #
plane-surface $-1 0 0 8.1407842565267305 0 0 1 1 0 0 forward_v I I I I #
face $-1 $68 $69 $25 $-1 $70 reversed single #
loop $-1 $-1 $71 $33 #
plane-surface $-1 0 -26.164814135656503 3.8171028570597461 0 0 1 1 0 0 forward_v I I I I #
face $-1 $72 $73 $26 $-1 $74 reversed single #
loop $-1 $-1 $75 $34 #
plane-surface $-1 -6.4991327217476424 23.149772614058772 91.498204571048973 0.82903758062907751 0 0.55919289150049634 0.55919289150049634 0 -0.82903758062907751 forward_v I I I I #
face $-1 $76 $77 $27 $-1 $78 forward single #
loop $-1 $79 $80 $35 #
cone-surface $-1 50.137510208416124 23.149772614058772 2.8403234921308806 -0.82903758062907751 0 -0.55919289150049634 0.83878933725074445 0 -1.2435563709436162 1 I I 0 1 1.5 forward I I I I #
face $-1 $81 $82 $28 $-1 $83 reversed single #
loop $-1 $-1 $84 $36 #
plane-surface $-1 -150.9275141274365 -17.383800317898867 53.787029913909187 0 1 0 -0.87461971476443456 0 0.48480960649040278 forward_v I I I I #
face $-1 $85 $86 $29 $-1 $87 forward single #
loop $-1 $88 $89 $37 #
cone-surface $-1 -52.198167292123067 -15.132483074690308 4.0174731941760609 0.87461971476443456 0 -0.48480960649040278 0.24240480324520139 0 0.43730985738221728 1 I I 0 1 0.5 forward I I I I #
face $-1 $90 $91 $30 $-1 $92 forward single #
loop $-1 $93 $94 $38 #
cone-surface $-1 -52.198167292123067 -11.755507209877468 4.0174731941760609 0.87461971476443456 0 -0.48480960649040278 0.24240480324520139 0 0.43730985738221728 1 I I 0 1 0.5 forward I I I I #
face $-1 $95 $96 $31 $-1 $97 forward single #
loop $-1 $98 $99 $39 #
cone-surface $-1 -52.198167292123067 -8.3785313450646299 4.0174731941760609 0.87461971476443456 0 -0.48480960649040278 0.24240480324520139 0 0.43730985738221728 1 I I 0 1 0.5 forward I I I I #
face $-1 $100 $101 $24 $-1 $102 reversed single #
loop $-1 $-1 $103 $40 #
plane-surface $-1 0 0 -8.1407842565267305 0 0 1 1 0 0 forward_v I I I I #
coedge $-1 $104 $105 $106 $107 forward $41 $-1 #
face $-1 $108 $109 $25 $-1 $110 reversed single #
loop $-1 $-1 $111 $43 #
plane-surface $-1 0 -23.231739281794678 5.9789435567932383 0 -1 0 0 0 -1 forward_v I I I I #
coedge $-1 $112 $113 $114 $115 reversed $44 $-1 #
face $-1 $116 $117 $26 $-1 $118 reversed single #
loop $-1 $-1 $119 $46 #
plane-surface $-1 84.525737515918905 17.201656238599217 152.89525287859942 0 1 0 0.82903758062907751 0 0.55919289150049634 forward_v I I I I #
coedge $-1 $120 $121 $122 $123 reversed $47 $-1 #
face $-1 $-1 $124 $27 $-1 $125 forward single #
loop $-1 $126 $127 $49 #
cone-surface $-1 47.341206702831343 23.149772614058772 0.95419302068179768 -0.82903758062907751 0 -0.55919289150049634 0.41939466862537222 0 -0.62177818547180808 1 I I -0.70710678118654757 0.70710678118654757 0.75 forward I I I I #
loop $-1 $-1 $128 $35 #
coedge $-1 $80 $80 $129 $130 reversed $50 $-1 #
face $-1 $131 $132 $28 $-1 $133 reversed single #
loop $-1 $-1 $134 $52 #
plane-surface $-1 -54.897915585802807 -11.755507209877468 0.55695620931638246 -0.87461971476443456 0 0.48480960649040278 0.48480960649040278 0 0.87461971476443456 forward_v I I I I #
coedge $-1 $135 $136 $137 $138 reversed $53 $-1 #
face $-1 $-1 $139 $29 $-1 $140 forward single #
loop $-1 $141 $142 $55 #
cone-surface $-1 -51.381656257403868 -15.132483074690308 3.564873753807964 0.87461971476443456 0 -0.48480960649040278 0.12120240162260069 0 0.21865492869110864 1 I I -0.70710678118654746 0.70710678118654746 0.25 forward I I I I #
loop $-1 $-1 $143 $37 #
coedge $-1 $89 $89 $144 $145 reversed $56 $-1 #
face $-1 $-1 $146 $30 $-1 $147 forward single #
loop $-1 $148 $149 $58 #
cone-surface $-1 -51.381656257403868 -11.755507209877468 3.564873753807964 0.87461971476443456 0 -0.48480960649040278 0.12120240162260069 0 0.21865492869110864 1 I I -0.70710678118654746 0.70710678118654746 0.25 forward I I I I #
loop $-1 $-1 $150 $38 #
coedge $-1 $94 $94 $151 $152 reversed $59 $-1 #
face $-1 $-1 $153 $31 $-1 $154 forward single #
loop $-1 $155 $156 $61 #
cone-surface $-1 -51.381656257403868 -8.3785313450646299 3.564873753807964 0.87461971476443456 0 -0.48480960649040278 0.12120240162260069 0 0.21865492869110864 1 I I -0.70710678118654746 0.70710678118654746 0.25 forward I I I I #
loop $-1 $-1 $157 $39 #
coedge $-1 $99 $99 $158 $159 reversed $62 $-1 #
face $-1 $160 $161 $24 $-1 $162 reversed single #
loop $-1 $-1 $163 $64 #
plane-surface $-1 0 -29.097888989518328 0 0 1 0 0 0 1 forward_v I I I I #
coedge $-1 $164 $165 $166 $167 forward $65 $-1 #
coedge $-1 $168 $67 $169 $170 forward $41 $-1 #
coedge $-1 $67 $168 $171 $172 forward $41 $-1 #
coedge $-1 $173 $174 $67 $107 reversed $175 $-1 #
edge $-1 $176 -29.097888989518328 $177 29.097888989518328 $106 $178 forward 7 unknown #
face $-1 $179 $180 $25 $-1 $181 reversed single #
loop $-1 $-1 $182 $68 #
plane-surface $-1 -54.897915585802792 0 0 1 0 0 0 0 -1 forward_v I I I I #
coedge $-1 $183 $184 $185 $186 reversed $69 $-1 #
coedge $-1 $187 $71 $188 $189 reversed $44 $-1 #
coedge $-1 $71 $187 $183 $190 forward $44 $-1 #
coedge $-1 $185 $191 $71 $115 forward $192 $-1 #
edge $-1 $193 -16.015481921690075 $194 -10.149332213966426 $114 $195 forward 7 unknown #
face $-1 $196 $197 $26 $-1 $198 forward single #
loop $-1 $-1 $199 $72 #
plane-surface $-1 0 29.097888989518328 0 0 -1 0 0 0 -1 forward_v I I I I #
coedge $-1 $200 $201 $202 $203 reversed $73 $-1 #
coedge $-1 $204 $75 $199 $205 reversed $47 $-1 #
coedge $-1 $75 $204 $200 $206 forward $47 $-1 #
coedge $-1 $202 $207 $75 $123 forward $197 $-1 #
edge $-1 $208 -17.523002682488944 $209 -5.6267699315698305 $122 $210 forward 7 unknown #
loop $-1 $-1 $129 $76 #
plane-surface $-1 -6.4991327217476424 23.149772614058772 91.498204571048973 0.82903758062907751 0 0.55919289150049634 0.55919289150049634 0 -0.82903758062907751 forward_v I I I I #
loop $-1 $-1 $211 $49 #
coedge $-1 $127 $127 $128 $212 reversed $77 $-1 #
coedge $-1 $128 $128 $127 $212 forward $79 $-1 #
coedge $-1 $129 $129 $80 $130 forward $124 $-1 #
edge $-1 $213 0 $213 6.2831853071796004 $129 $214 forward 7 unknown #
face $-1 $215 $216 $28 $-1 $217 reversed single #
loop $-1 $-1 $218 $81 #
plane-surface $-1 -150.9275141274365 -6.1272141018560706 53.787029913909187 0 -1 0 0.87461971476443456 0 -0.48480960649040278 forward_v I I I I #
coedge $-1 $219 $220 $221 $222 reversed $82 $-1 #
coedge $-1 $136 $84 $223 $224 reversed $53 $-1 #
coedge $-1 $84 $135 $219 $225 reversed $53 $-1 #
coedge $-1 $221 $226 $84 $138 forward $227 $-1 #
edge $-1 $228 20.565841477915455 $229 24.769625853218706 $137 $230 forward 7 unknown #
loop $-1 $-1 $144 $85 #
plane-surface $-1 -54.897915585802807 -11.755507209877468 0.55695620931638246 -0.87461971476443456 0 0.48480960649040278 0.48480960649040278 0 0.87461971476443456 forward_v I I I I #
loop $-1 $-1 $231 $55 #
coedge $-1 $142 $142 $143 $232 reversed $86 $-1 #
coedge $-1 $143 $143 $142 $232 forward $88 $-1 #
coedge $-1 $144 $144 $89 $145 forward $139 $-1 #
edge $-1 $233 0 $233 6.2831853071796004 $144 $234 forward 7 unknown #
loop $-1 $-1 $151 $90 #
plane-surface $-1 -54.897915585802807 -11.755507209877468 0.55695620931638246 -0.87461971476443456 0 0.48480960649040278 0.48480960649040278 0 0.87461971476443456 forward_v I I I I #
loop $-1 $-1 $235 $58 #
coedge $-1 $149 $149 $150 $236 reversed $91 $-1 #
coedge $-1 $150 $150 $149 $236 forward $93 $-1 #
coedge $-1 $151 $151 $94 $152 forward $146 $-1 #
edge $-1 $237 0 $237 6.2831853071796004 $151 $238 forward 7 unknown #
loop $-1 $-1 $158 $95 #
plane-surface $-1 -54.897915585802807 -11.755507209877468 0.55695620931638246 -0.87461971476443456 0 0.48480960649040278 0.48480960649040278 0 0.87461971476443456 forward_v I I I I #
loop $-1 $-1 $239 $61 #
coedge $-1 $156 $156 $157 $240 reversed $96 $-1 #
coedge $-1 $157 $157 $156 $240 forward $98 $-1 #
coedge $-1 $158 $158 $99 $159 forward $153 $-1 #
edge $-1 $241 0 $241 6.2831853071796004 $158 $242 forward 7 unknown #
face $-1 $243 $244 $24 $-1 $245 reversed single #
loop $-1 $-1 $246 $100 #
plane-surface $-1 -54.897915585802792 0 0 1 0 0 0 0 -1 forward_v I I I I #
coedge $-1 $247 $171 $248 $249 forward $101 $-1 #
coedge $-1 $250 $103 $247 $251 forward $65 $-1 #
coedge $-1 $103 $250 $252 $253 forward $65 $-1 #
coedge $-1 $174 $173 $103 $167 reversed $175 $-1 #
edge $-1 $254 -29.097888989518328 $255 29.097888989518328 $166 $256 forward 7 unknown #
coedge $-1 $105 $104 $257 $258 forward $41 $-1 #
coedge $-1 $259 $260 $104 $170 reversed $244 $-1 #
edge $-1 $177 -54.897915585802792 $261 54.897915585802792 $169 $262 forward 7 unknown #
coedge $-1 $163 $263 $105 $172 reversed $101 $-1 #
edge $-1 $264 -54.897915585802792 $176 54.897915585802792 $171 $265 forward 7 unknown #
coedge $-1 $166 $106 $263 $266 forward $175 $-1 #
coedge $-1 $106 $166 $259 $267 reversed $175 $-1 #
loop $-1 $-1 $173 $243 #
vertex $-1 $107 $268 #
vertex $-1 $107 $269 #
straight-curve $-1 54.897915585802792 0 8.1407842565267305 0 1 0 I I #
face $-1 $270 $271 $25 $-1 $272 forward single #
loop $-1 $-1 $188 $108 #
plane-surface $-1 0 -29.097888989518328 0 0 1 0 0 0 1 forward_v I I I I #
coedge $-1 $273 $274 $275 $276 forward $109 $-1 #
coedge $-1 $275 $111 $113 $190 reversed $69 $-1 #
coedge $-1 $111 $275 $277 $278 reversed $69 $-1 #
coedge $-1 $279 $114 $111 $186 forward $192 $-1 #
edge $-1 $194 0.82763107866312691 $280 5.1513124781301114 $185 $281 forward 7 unknown #
coedge $-1 $113 $112 $273 $282 reversed $44 $-1 #
coedge $-1 $283 $284 $112 $189 forward $180 $-1 #
edge $-1 $285 -54.897915585802792 $193 54.897915585802792 $188 $286 forward 7 unknown #
edge $-1 $287 -54.897915585802792 $194 54.897915585802792 $183 $288 forward 7 unknown #
coedge $-1 $114 $279 $283 $289 forward $192 $-1 #
loop $-1 $-1 $185 $270 #
vertex $-1 $189 $290 #
vertex $-1 $115 $291 #
straight-curve $-1 54.897915585802792 -13.082407067828251 3.8171028570597461 0 1 0 I I #
face $-1 $-1 $292 $26 $-1 $293 reversed single #
loop $-1 $-1 $122 $116 #
plane-surface $-1 0 0 8.1407842565267305 0 0 1 1 0 0 forward_v I I I I #
coedge $-1 $294 $295 $120 $205 forward $117 $-1 #
coedge $-1 $201 $119 $121 $206 reversed $73 $-1 #
coedge $-1 $119 $200 $296 $297 reversed $73 $-1 #
coedge $-1 $298 $122 $119 $203 forward $197 $-1 #
edge $-1 $209 7.4632867132959788 $299 12.63504682784334 $202 $300 forward 7 unknown #
coedge $-1 $121 $120 $301 $302 reversed $47 $-1 #
edge $-1 $303 -70.050971687402352 $208 -60.802356060923543 $199 $304 forward 7 unknown #
edge $-1 $305 -109.79583117160556 $209 -100.54721554512675 $200 $306 forward 7 unknown #
coedge $-1 $122 $298 $294 $307 forward $197 $-1 #
vertex $-1 $123 $308 #
vertex $-1 $123 $309 #
straight-curve $-1 49.726155471255439 11.574886307029386 8.1407842565267359 0 -1 0 I I #
coedge $-1 $211 $211 $-1 $310 reversed $126 $-1 #
edge $-1 $311 0 $311 6.2831853071796004 $127 $312 forward 7 unknown #
vertex $-1 $130 $313 #
ellipse-curve $-1 52.312035528529115 23.149772614058772 4.3070592949546018 0.82903758062907751 0 0.55919289150049634 0.83878933725074445 0 -1.2435563709436162 1 I I #
face $-1 $-1 $227 $28 $-1 $314 forward single #
loop $-1 $-1 $315 $131 #
plane-surface $-1 -54.897915585802792 0 0 1 0 0 0 0 -1 forward_v I I I I #
coedge $-1 $316 $317 $318 $319 reversed $132 $-1 #
coedge $-1 $320 $134 $136 $225 forward $82 $-1 #
coedge $-1 $134 $320 $316 $321 forward $82 $-1 #
coedge $-1 $318 $137 $134 $222 forward $227 $-1 #
edge $-1 $229 -11.506046712960133 $322 -0.24946049691733663 $221 $323 forward 7 unknown #
coedge $-1 $324 $325 $135 $224 forward $216 $-1 #
edge $-1 $326 -26.336558747638186 $228 -18.752730700427861 $223 $327 forward 7 unknown #
edge $-1 $229 -8.6710005722349131 $326 -2.9320188914700558e-014 $136 $328 forward 7 unknown #
coedge $-1 $137 $318 $324 $329 forward $227 $-1 #
loop $-1 $-1 $318 $215 #
vertex $-1 $224 $330 #
vertex $-1 $138 $331 #
straight-curve $-1 -75.463757063718248 -17.383800317898867 8.1407842565267323 1 0 0 I I #
coedge $-1 $231 $231 $-1 $332 reversed $141 $-1 #
edge $-1 $333 0 $333 6.2831853071796004 $142 $334 forward 7 unknown #
vertex $-1 $145 $335 #
ellipse-curve $-1 -52.796023398151171 -15.132483074690308 4.3488702329215627 -0.87461971476443456 0 0.48480960649040278 0.24240480324520139 0 0.43730985738221728 1 I I #
coedge $-1 $235 $235 $-1 $336 reversed $148 $-1 #
edge $-1 $337 0 $337 6.2831853071796004 $149 $338 forward 7 unknown #
vertex $-1 $152 $339 #
ellipse-curve $-1 -52.796023398151171 -11.755507209877468 4.3488702329215627 -0.87461971476443456 0 0.48480960649040278 0.24240480324520139 0 0.43730985738221728 1 I I #
coedge $-1 $239 $239 $-1 $340 reversed $155 $-1 #
edge $-1 $341 0 $341 6.2831853071796004 $156 $342 forward 7 unknown #
vertex $-1 $159 $343 #
ellipse-curve $-1 -52.796023398151171 -8.3785313450646299 4.3488702329215627 -0.87461971476443456 0 0.48480960649040278 0.24240480324520139 0 0.43730985738221728 1 I I #
face $-1 $-1 $175 $24 $-1 $344 reversed single #
loop $-1 $-1 $259 $160 #
plane-surface $-1 0 29.097888989518328 0 0 -1 0 0 0 -1 forward_v I I I I #
coedge $-1 $345 $257 $260 $346 forward $161 $-1 #
coedge $-1 $263 $163 $164 $251 reversed $101 $-1 #
coedge $-1 $257 $345 $163 $249 reversed $161 $-1 #
edge $-1 $264 -8.1407842565267305 $347 8.1407842565267305 $248 $348 forward 7 unknown #
coedge $-1 $165 $164 $345 $349 forward $65 $-1 #
edge $-1 $255 -54.897915585802792 $347 54.897915585802792 $247 $350 forward 7 unknown #
coedge $-1 $260 $259 $165 $253 reversed $244 $-1 #
edge $-1 $351 -54.897915585802792 $254 54.897915585802792 $252 $352 forward 7 unknown #
vertex $-1 $167 $353 #
vertex $-1 $266 $354 #
straight-curve $-1 54.897915585802792 0 -8.1407842565267305 0 -1 0 I I #
coedge $-1 $246 $248 $168 $258 reversed $161 $-1 #
edge $-1 $261 -29.097888989518328 $264 29.097888989518328 $257 $355 forward 7 unknown #
coedge $-1 $252 $169 $174 $267 forward $244 $-1 #
coedge $-1 $169 $252 $246 $346 reversed $244 $-1 #
vertex $-1 $170 $356 #
straight-curve $-1 0 29.097888989518328 8.1407842565267305 -1 0 0 I I #
coedge $-1 $171 $247 $173 $266 reversed $101 $-1 #
vertex $-1 $258 $357 #
straight-curve $-1 0 -29.097888989518328 8.1407842565267305 1 0 0 I I #
edge $-1 $176 -8.1407842565267305 $255 8.1407842565267305 $173 $358 forward 7 unknown #
edge $-1 $177 -8.1407842565267305 $254 8.1407842565267305 $174 $359 forward 7 unknown #
point $-1 54.897915585802792 -29.097888989518328 8.1407842565267305 #
point $-1 54.897915585802792 29.097888989518328 8.1407842565267305 #
face $-1 $-1 $192 $25 $-1 $360 reversed single #
loop $-1 $-1 $277 $179 #
plane-surface $-1 0 0 8.1407842565267305 0 0 1 1 0 0 forward_v I I I I #
coedge $-1 $361 $182 $187 $282 forward $109 $-1 #
coedge $-1 $182 $361 $362 $363 reversed $109 $-1 #
coedge $-1 $184 $183 $182 $276 reversed $69 $-1 #
edge $-1 $364 -5.1513124781301114 $287 -0.82763107866312691 $182 $365 forward 7 unknown #
coedge $-1 $362 $366 $184 $278 forward $271 $-1 #
edge $-1 $280 -54.897915585802792 $364 54.897915585802792 $277 $367 forward 7 unknown #
coedge $-1 $191 $185 $366 $368 reversed $192 $-1 #
vertex $-1 $186 $369 #
straight-curve $-1 54.897915585802792 -23.231739281794678 2.9894717783966192 0 0 1 I I #
edge $-1 $287 10.149332213966426 $285 16.015481921690075 $273 $370 forward 7 unknown #
coedge $-1 $371 $188 $191 $289 reversed $180 $-1 #
coedge $-1 $188 $371 $361 $372 forward $180 $-1 #
vertex $-1 $189 $373 #
straight-curve $-1 0 -29.097888989518328 3.8171028570597461 1 0 0 I I #
vertex $-1 $282 $374 #
straight-curve $-1 0 -23.231739281794678 3.8171028570597461 1 0 0 I I #
edge $-1 $375 -8.1407842565267305 $193 -3.8171028570597461 $191 $376 forward 7 unknown #
point $-1 54.897915585802792 -29.097888989518328 3.8171028570597461 #
point $-1 54.897915585802792 -23.231739281794678 3.8171028570597461 #
loop $-1 $-1 $301 $196 #
plane-surface $-1 54.897915585802792 0 0 -1 0 0 0 0 1 forward_v I I I I #
coedge $-1 $295 $199 $207 $307 reversed $117 $-1 #
coedge $-1 $199 $294 $377 $378 forward $117 $-1 #
coedge $-1 $301 $379 $201 $297 forward $292 $-1 #
edge $-1 $299 68.306842182772982 $305 75.974292105917243 $296 $380 forward 7 unknown #
coedge $-1 $207 $202 $379 $381 forward $197 $-1 #
vertex $-1 $381 $382 #
straight-curve $-1 42.262868757959453 17.201656238599217 8.1407842565267288 1 0 0 I I #
coedge $-1 $377 $296 $204 $302 forward $292 $-1 #
edge $-1 $305 5.6267699315698305 $303 17.523002682488944 $301 $383 forward 7 unknown #
vertex $-1 $302 $384 #
straight-curve $-1 15.725910175504868 29.097888989518328 58.548222421822508 -0.55919289150049634 0 0.82903758062907751 I I #
vertex $-1 $302 $385 #
straight-curve $-1 -6.4991327217476424 17.201656238599217 91.498204571048973 -0.55919289150049634 0 0.82903758062907751 I I #
edge $-1 $386 -54.897915585802792 $208 -49.726155471255431 $294 $387 forward 7 unknown #
point $-1 49.726155471255431 29.097888989518328 8.1407842565267288 #
point $-1 49.726155471255431 17.201656238599217 8.1407842565267288 #
edge $-1 $388 1 $388 0 $211 $-1 forward 7 unknown #
vertex $-1 $212 $389 #
ellipse-curve $-1 47.962984888303154 23.149772614058772 1.3735876893071699 0.82903758062907751 0 0.55919289150049634 0.83878933725074445 0 -1.2435563709436162 1 I I #
point $-1 53.150824865779846 23.149772614058772 3.0635029240109755 #
plane-surface $-1 0 0 8.1407842565267305 0 0 1 1 0 0 forward_v I I I I #
coedge $-1 $325 $324 $317 $390 forward $216 $-1 #
coedge $-1 $317 $218 $220 $321 reversed $132 $-1 #
coedge $-1 $218 $316 $315 $390 reversed $132 $-1 #
coedge $-1 $226 $221 $218 $319 forward $227 $-1 #
edge $-1 $322 -24.769625853218706 $391 -20.565841477915455 $318 $392 forward 7 unknown #
coedge $-1 $220 $219 $325 $393 reversed $82 $-1 #
edge $-1 $394 2.9320188914700558e-014 $322 8.6710005722349131 $316 $395 forward 7 unknown #
vertex $-1 $222 $396 #
straight-curve $-1 -50.694131210499549 -5.877753604938734 8.1407842565267323 0 1 0 I I #
coedge $-1 $315 $223 $226 $329 reversed $216 $-1 #
coedge $-1 $223 $315 $320 $393 forward $216 $-1 #
vertex $-1 $224 $397 #
straight-curve $-1 -54.897915585802792 -17.383800317898867 26.893514956954593 0 0 1 I I #
straight-curve $-1 -54.897915585802807 -17.383800317898867 0.55695620931638246 -0.48480960649040278 0 -0.87461971476443456 I I #
edge $-1 $391 6.1272141018560706 $228 17.383800317898867 $324 $398 forward 7 unknown #
point $-1 -54.897915585802792 -17.383800317898867 8.1407842565267305 #
point $-1 -50.694131210499542 -17.383800317898867 8.1407842565267305 #
edge $-1 $399 1 $399 0 $231 $-1 forward 7 unknown #
vertex $-1 $232 $400 #
ellipse-curve $-1 -51.600311186094977 -15.132483074690308 3.6860761554305648 -0.87461971476443456 0 0.48480960649040278 0.24240480324520139 0 0.43730985738221728 1 I I #
point $-1 -52.553618594905963 -15.132483074690308 4.7861800903037741 #
edge $-1 $401 1 $401 0 $235 $-1 forward 7 unknown #
vertex $-1 $236 $402 #
ellipse-curve $-1 -51.600311186094977 -11.755507209877468 3.6860761554305648 -0.87461971476443456 0 0.48480960649040278 0.24240480324520139 0 0.43730985738221728 1 I I #
point $-1 -52.553618594905963 -11.755507209877468 4.7861800903037741 #
edge $-1 $403 1 $403 0 $239 $-1 forward 7 unknown #
vertex $-1 $240 $404 #
ellipse-curve $-1 -51.600311186094977 -8.3785313450646299 3.6860761554305648 -0.87461971476443456 0 0.48480960649040278 0.24240480324520139 0 0.43730985738221728 1 I I #
point $-1 -52.553618594905963 -8.3785313450646299 4.7861800903037741 #
plane-surface $-1 54.897915585802792 0 0 -1 0 0 0 0 1 forward_v I I I I #
coedge $-1 $248 $246 $250 $349 reversed $161 $-1 #
edge $-1 $261 -8.1407842565267305 $351 8.1407842565267305 $260 $405 forward 7 unknown #
vertex $-1 $349 $406 #
straight-curve $-1 -54.897915585802792 -29.097888989518328 0 0 0 -1 I I #
edge $-1 $347 -29.097888989518328 $351 29.097888989518328 $345 $407 forward 7 unknown #
straight-curve $-1 0 -29.097888989518328 -8.1407842565267305 -1 0 0 I I #
vertex $-1 $253 $408 #
straight-curve $-1 0 29.097888989518328 -8.1407842565267305 1 0 0 I I #
point $-1 54.897915585802792 29.097888989518328 -8.1407842565267305 #
point $-1 54.897915585802792 -29.097888989518328 -8.1407842565267305 #
straight-curve $-1 -54.897915585802792 0 8.1407842565267305 0 -1 0 I I #
point $-1 -54.897915585802792 29.097888989518328 8.1407842565267305 #
point $-1 -54.897915585802792 -29.097888989518328 8.1407842565267305 #
straight-curve $-1 54.897915585802792 -29.097888989518328 0 0 0 -1 I I #
straight-curve $-1 54.897915585802792 29.097888989518328 0 0 0 -1 I I #
plane-surface $-1 54.897915585802792 0 0 -1 0 0 0 0 1 forward_v I I I I #
coedge $-1 $274 $273 $284 $372 reversed $109 $-1 #
coedge $-1 $409 $277 $274 $363 forward $271 $-1 #
edge $-1 $364 23.231739281794678 $410 29.097888989518328 $274 $411 forward 7 unknown #
vertex $-1 $363 $412 #
straight-curve $-1 -54.897915585802792 -23.231739281794678 2.9894717783966192 0 0 -1 I I #
coedge $-1 $277 $409 $279 $368 forward $271 $-1 #
straight-curve $-1 0 -23.231739281794678 8.1407842565267305 -1 0 0 I I #
edge $-1 $375 -29.097888989518328 $280 -23.231739281794678 $279 $413 forward 7 unknown #
point $-1 54.897915585802792 -23.231739281794678 8.1407842565267305 #
straight-curve $-1 -54.897915585802792 -13.082407067828251 3.8171028570597461 0 -1 0 I I #
coedge $-1 $284 $283 $409 $414 reversed $180 $-1 #
edge $-1 $410 -8.1407842565267305 $285 -3.8171028570597461 $361 $415 forward 7 unknown #
point $-1 -54.897915585802792 -29.097888989518328 3.8171028570597461 #
point $-1 -54.897915585802792 -23.231739281794678 3.8171028570597461 #
vertex $-1 $368 $416 #
straight-curve $-1 54.897915585802792 -29.097888989518328 0 0 0 -1 I I #
coedge $-1 $379 $301 $295 $378 reversed $292 $-1 #
edge $-1 $386 -8.1407842565267305 $303 -0.47333433338246778 $377 $417 forward 7 unknown #
coedge $-1 $296 $377 $298 $381 reversed $292 $-1 #
straight-curve $-1 54.897915585802792 17.201656238599217 76.447626439299711 0 0 -1 I I #
edge $-1 $299 17.201656238599217 $386 29.097888989518328 $379 $418 forward 7 unknown #
point $-1 54.897915585802792 17.201656238599217 8.1407842565267305 #
straight-curve $-1 54.897915585802792 11.574886307029386 0.47333433338246067 0 1 0 I I #
point $-1 54.897915585802792 29.097888989518328 0.47333433338246778 #
point $-1 54.897915585802792 17.201656238599217 0.47333433338246778 #
vertex $-1 $381 $419 #
straight-curve $-1 0 29.097888989518328 8.1407842565267305 -1 0 0 I I #
vertex $-1 $310 $420 #
point $-1 48.801774225553899 23.149772614058772 0.13003131836355375 #
edge $-1 $391 18.752730700427861 $394 26.336558747638186 $315 $421 forward 7 unknown #
vertex $-1 $329 $422 #
straight-curve $-1 -75.463757063718248 -6.1272141018560706 8.1407842565267323 -1 0 0 I I #
edge $-1 $394 0.24946049691733663 $326 11.506046712960133 $325 $423 forward 7 unknown #
vertex $-1 $393 $424 #
straight-curve $-1 -54.897915585802807 -6.1272141018560706 0.55695620931638246 0.48480960649040278 0 0.87461971476443456 I I #
point $-1 -50.694131210499542 -6.1272141018560706 8.1407842565267305 #
point $-1 -54.897915585802792 -17.383800317898867 0.5569562093164081 #
straight-curve $-1 -54.897915585802792 0 8.1407842565267305 0 -1 0 I I #
vertex $-1 $332 $425 #
point $-1 -51.357906382849777 -15.132483074690308 4.1233860128127819 #
vertex $-1 $336 $426 #
point $-1 -51.357906382849777 -11.755507209877468 4.1233860128127819 #
vertex $-1 $340 $427 #
point $-1 -51.357906382849777 -8.3785313450646299 4.1233860128127819 #
straight-curve $-1 -54.897915585802792 29.097888989518328 0 0 0 -1 I I #
point $-1 -54.897915585802792 -29.097888989518328 -8.1407842565267305 #
straight-curve $-1 -54.897915585802792 0 -8.1407842565267305 0 1 0 I I #
point $-1 -54.897915585802792 29.097888989518328 -8.1407842565267305 #
coedge $-1 $366 $362 $371 $414 forward $271 $-1 #
vertex $-1 $363 $428 #
straight-curve $-1 -54.897915585802792 0 8.1407842565267305 0 -1 0 I I #
point $-1 -54.897915585802792 -23.231739281794678 8.1407842565267305 #
straight-curve $-1 54.897915585802792 0 8.1407842565267305 0 1 0 I I #
edge $-1 $410 -54.897915585802792 $375 54.897915585802792 $371 $429 forward 7 unknown #
straight-curve $-1 -54.897915585802792 -29.097888989518328 0 0 0 -1 I I #
point $-1 54.897915585802792 -29.097888989518328 8.1407842565267305 #
straight-curve $-1 54.897915585802792 29.097888989518328 0 0 0 -1 I I #
straight-curve $-1 54.897915585802792 0 8.1407842565267305 0 1 0 I I #
point $-1 54.897915585802792 29.097888989518328 8.1407842565267305 #
point $-1 46.719428517359532 23.149772614058772 0.53479835205642545 #
straight-curve $-1 -54.897915585802792 -6.1272141018560706 26.893514956954593 0 0 -1 I I #
point $-1 -54.897915585802792 -6.1272141018560706 8.1407842565267305 #
straight-curve $-1 -54.897915585802792 -5.877753604938734 0.55695620931641221 0 -1 0 I I #
point $-1 -54.897915585802792 -6.1272141018560706 0.5569562093164081 #
point $-1 -51.16300132871276 -15.132483074690308 3.4436713521853632 #
point $-1 -51.16300132871276 -11.755507209877468 3.4436713521853632 #
point $-1 -51.16300132871276 -8.3785313450646299 3.4436713521853632 #
point $-1 -54.897915585802792 -29.097888989518328 8.1407842565267305 #
straight-curve $-1 0 -29.097888989518328 8.1407842565267305 1 0 0 I I #
End-of-ACIS-data 