500 0 7 0           
7 Unknown 11 ACIS 5.0 NT 24 Fri Mar 26 18:28:54 1999 
-1 9.9999999999999995e-007 1e-010 
body $-1 $7 $-1 $8 #
body $-1 $9 $-1 $10 #
body $-1 $11 $-1 $12 #
body $-1 $13 $-1 $14 #
body $-1 $15 $-1 $16 #
body $-1 $17 $-1 $18 #
body $-1 $19 $-1 $20 #
lump $-1 $-1 $21 $0 #
transform $-1 1 0 0 0 1 0 0 0 1 60.98452711569567 27.816478327761601 12.634608302491577 1 rotate no_reflect no_shear #
lump $-1 $-1 $22 $1 #
transform $-1 1 0 0 0 1 0 0 0 1 60.98452711569567 27.816478327761601 12.634608302491577 1 rotate no_reflect no_shear #
lump $-1 $-1 $23 $2 #
transform $-1 1 0 0 0 1 0 0 0 1 60.98452711569567 27.816478327761601 12.634608302491577 1 rotate no_reflect no_shear #
lump $-1 $-1 $24 $3 #
transform $-1 1 0 0 0 1 0 0 0 1 60.98452711569567 27.816478327761601 12.634608302491577 1 rotate no_reflect no_shear #
lump $-1 $-1 $25 $4 #
transform $-1 1 0 0 0 1 0 0 0 1 60.98452711569567 27.816478327761601 12.634608302491577 1 rotate no_reflect no_shear #
lump $-1 $-1 $26 $5 #
transform $-1 1 0 0 0 1 0 0 0 1 60.98452711569567 27.816478327761601 12.634608302491577 1 rotate no_reflect no_shear #
lump $-1 $-1 $27 $6 #
transform $-1 1 0 0 0 1 0 0 0 1 60.98452711569567 27.816478327761601 12.634608302491577 1 rotate no_reflect no_shear #
shell $-1 $-1 $-1 $28 $-1 $7 #
shell $-1 $-1 $-1 $29 $-1 $9 #
shell $-1 $-1 $-1 $30 $-1 $11 #
shell $-1 $-1 $-1 $31 $-1 $13 #
shell $-1 $-1 $-1 $32 $-1 $15 #
shell $-1 $-1 $-1 $33 $-1 $17 #
shell $-1 $-1 $-1 $34 $-1 $19 #
face $-1 $35 $36 $21 $-1 $37 reversed single #
face $-1 $38 $39 $22 $-1 $40 reversed single #
face $-1 $41 $42 $23 $-1 $43 forward single #
face $-1 $44 $45 $24 $-1 $46 reversed single #
face $-1 $47 $48 $25 $-1 $49 forward single #
face $-1 $50 $51 $26 $-1 $52 reversed single #
face $-1 $53 $54 $27 $-1 $55 forward single #
face $-1 $56 $57 $21 $-1 $58 forward single #
loop $-1 $-1 $59 $28 #
plane-surface $-1 60.98452711569567 0 0 -1 0 0 0 0 1 forward_v I I I I #
face $-1 $60 $61 $22 $-1 $62 reversed single #
loop $-1 $-1 $63 $29 #
plane-surface $-1 -54.454593538432057 0 5.8472320976074474 0 0 1 1 0 0 forward_v I I I I #
face $-1 $64 $65 $23 $-1 $66 reversed single #
loop $-1 $-1 $67 $30 #
plane-surface $-1 60.98452711569567 0 0 -1 0 0 0 0 1 forward_v I I I I #
face $-1 $68 $69 $24 $-1 $70 reversed single #
loop $-1 $-1 $71 $31 #
plane-surface $-1 -9.4975227424085951 -117.01899863090524 89.330354346126839 -1 0 0 0 -0.73135370988377701 0.68199835119979291 forward_v I I I I #
face $-1 $72 $73 $25 $-1 $74 forward single #
loop $-1 $75 $76 $32 #
cone-surface $-1 -21.153947876531305 -23.886642572115758 8.5469774831432996 0 0.73135370988377701 -0.68199835119979291 2 0 0 1 I I 0 1 2 forward I I I I #
face $-1 $77 $78 $26 $-1 $79 reversed single #
loop $-1 $-1 $80 $33 #
plane-surface $-1 -32.810373010654018 79.077413919468881 130.0177235879471 1 0 0 0 -0.73135370988377701 -0.68199835119979291 forward_v I I I I #
face $-1 $81 $82 $27 $-1 $83 forward single #
loop $-1 $84 $85 $34 #
cone-surface $-1 -21.153947876531305 23.886642572115754 8.5469774831433032 0 -0.73135370988377701 -0.68199835119979291 2 0 0 1 I I 0 1 2 forward I I I I #
face $-1 $86 $87 $21 $-1 $88 reversed single #
loop $-1 $-1 $89 $35 #
plane-surface $-1 0 0 12.634608302491577 0 0 1 1 0 0 forward_v I I I I #
coedge $-1 $90 $91 $92 $93 reversed $36 $-1 #
face $-1 $94 $95 $22 $-1 $96 reversed single #
loop $-1 $-1 $97 $38 #
plane-surface $-1 -47.924659961168445 0 9.2409202000495103 -1 0 0 0 0 1 forward_v I I I I #
coedge $-1 $98 $99 $100 $101 forward $39 $-1 #
face $-1 $102 $103 $23 $-1 $104 forward single #
loop $-1 $-1 $105 $41 #
plane-surface $-1 0 -27.816478327761601 0 0 1 0 0 0 1 forward_v I I I I #
coedge $-1 $106 $107 $108 $109 forward $42 $-1 #
face $-1 $110 $111 $24 $-1 $112 reversed single #
loop $-1 $-1 $113 $44 #
plane-surface $-1 -21.153947876531305 -27.816478327761601 6.1476604629198164 0 -0.73135370988377701 0.68199835119979291 1 0 0 forward_v I I I I #
coedge $-1 $114 $115 $116 $117 reversed $45 $-1 #
face $-1 $-1 $118 $25 $-1 $119 forward single #
loop $-1 $120 $121 $47 #
cone-surface $-1 -21.153947876531305 -22.250041394796259 7.0208222323811054 0 0.73135370988377701 -0.68199835119979291 1 0 0 1 I I -0.70710678118654746 0.70710678118654746 1 forward I I I I #
loop $-1 $-1 $122 $32 #
coedge $-1 $76 $76 $123 $124 reversed $48 $-1 #
face $-1 $125 $126 $26 $-1 $127 reversed single #
loop $-1 $-1 $128 $50 #
plane-surface $-1 -21.153947876531305 -10.125106383674762 46.83502970474008 0 0.73135370988377701 0.68199835119979291 1 0 0 forward_v I I I I #
coedge $-1 $129 $130 $131 $132 reversed $51 $-1 #
face $-1 $-1 $133 $27 $-1 $134 forward single #
loop $-1 $135 $136 $53 #
cone-surface $-1 -21.153947876531305 22.250041394796256 7.0208222323811089 0 -0.73135370988377701 -0.68199835119979291 1 0 0 1 I I -0.70710678118654746 0.70710678118654746 1 forward I I I I #
loop $-1 $-1 $137 $34 #
coedge $-1 $85 $85 $138 $139 reversed $54 $-1 #
face $-1 $140 $141 $21 $-1 $142 reversed single #
loop $-1 $-1 $143 $56 #
plane-surface $-1 0 0 -12.634608302491577 0 0 1 1 0 0 forward_v I I I I #
coedge $-1 $144 $145 $90 $146 forward $57 $-1 #
coedge $-1 $147 $59 $89 $146 reversed $36 $-1 #
coedge $-1 $59 $147 $143 $148 reversed $36 $-1 #
coedge $-1 $149 $150 $59 $93 forward $151 $-1 #
edge $-1 $152 -12.634608302491577 $153 12.634608302491577 $59 $154 forward 7 unknown #
face $-1 $155 $156 $22 $-1 $157 reversed single #
loop $-1 $-1 $158 $60 #
plane-surface $-1 0 27.816478327761601 0 0 -1 0 0 0 -1 forward_v I I I I #
coedge $-1 $100 $159 $160 $161 reversed $61 $-1 #
coedge $-1 $162 $63 $163 $164 reversed $39 $-1 #
coedge $-1 $63 $162 $165 $166 reversed $39 $-1 #
coedge $-1 $167 $97 $63 $101 reversed $61 $-1 #
edge $-1 $168 -27.816478327761601 $169 27.816478327761601 $100 $170 forward 7 unknown #
face $-1 $171 $172 $23 $-1 $173 reversed single #
loop $-1 $-1 $174 $64 #
plane-surface $-1 68.909696705171285 0 12.134608302491573 0 0 1 1 0 0 forward_v I I I I #
coedge $-1 $175 $176 $107 $177 forward $65 $-1 #
coedge $-1 $178 $67 $179 $180 reversed $42 $-1 #
coedge $-1 $67 $178 $105 $177 reversed $42 $-1 #
coedge $-1 $181 $182 $67 $109 reversed $103 $-1 #
edge $-1 $183 -27.816478327761601 $184 27.816478327761601 $108 $185 forward 7 unknown #
face $-1 $186 $187 $24 $-1 $188 forward single #
loop $-1 $-1 $189 $68 #
plane-surface $-1 -32.810373010654018 -117.01899863090524 89.330354346126839 1 0 0 0 0.73135370988377701 -0.68199835119979291 forward_v I I I I #
coedge $-1 $190 $191 $192 $193 reversed $69 $-1 #
coedge $-1 $115 $71 $194 $195 reversed $45 $-1 #
coedge $-1 $71 $114 $190 $196 reversed $45 $-1 #
coedge $-1 $192 $197 $71 $117 forward $187 $-1 #
edge $-1 $198 30.693020987691021 $199 36.742197564111279 $116 $200 forward 7 unknown #
loop $-1 $-1 $123 $72 #
plane-surface $-1 -21.153947876531305 -27.816478327761601 6.1476604629198164 0 -0.73135370988377701 0.68199835119979291 1 0 0 forward_v I I I I #
loop $-1 $-1 $201 $47 #
coedge $-1 $121 $121 $122 $202 reversed $73 $-1 #
coedge $-1 $122 $122 $121 $202 forward $75 $-1 #
coedge $-1 $123 $123 $76 $124 forward $118 $-1 #
edge $-1 $203 8.7672728959347739e-017 $203 6.2831853071796004 $123 $204 forward 7 unknown #
face $-1 $205 $206 $26 $-1 $207 reversed single #
loop $-1 $-1 $208 $77 #
plane-surface $-1 -9.4975227424085951 79.077413919468881 130.0177235879471 -1 0 0 0 0.73135370988377701 0.68199835119979291 forward_v I I I I #
coedge $-1 $209 $210 $211 $212 reversed $78 $-1 #
coedge $-1 $130 $80 $213 $214 reversed $51 $-1 #
coedge $-1 $80 $129 $209 $215 reversed $51 $-1 #
coedge $-1 $211 $216 $80 $132 forward $217 $-1 #
edge $-1 $218 11.72222863197284 $219 17.771405208393087 $131 $220 forward 7 unknown #
loop $-1 $-1 $138 $81 #
plane-surface $-1 -21.153947876531305 -10.125106383674762 46.83502970474008 0 0.73135370988377701 0.68199835119979291 1 0 0 forward_v I I I I #
loop $-1 $-1 $221 $53 #
coedge $-1 $136 $136 $137 $222 reversed $82 $-1 #
coedge $-1 $137 $137 $136 $222 forward $84 $-1 #
coedge $-1 $138 $138 $85 $139 forward $133 $-1 #
edge $-1 $223 -5.6189985332704921e-016 $223 6.2831853071795996 $138 $224 forward 7 unknown #
face $-1 $225 $226 $21 $-1 $227 reversed single #
loop $-1 $-1 $228 $86 #
plane-surface $-1 0 -27.816478327761601 0 0 1 0 0 0 1 forward_v I I I I #
coedge $-1 $229 $230 $91 $148 forward $87 $-1 #
coedge $-1 $231 $89 $150 $232 forward $57 $-1 #
coedge $-1 $89 $231 $233 $234 forward $57 $-1 #
edge $-1 $235 -27.816478327761601 $152 27.816478327761601 $90 $236 forward 7 unknown #
coedge $-1 $91 $90 $237 $238 forward $36 $-1 #
edge $-1 $153 -27.816478327761601 $239 27.816478327761601 $91 $240 forward 7 unknown #
coedge $-1 $241 $92 $230 $242 reversed $151 $-1 #
coedge $-1 $92 $241 $144 $232 reversed $151 $-1 #
loop $-1 $-1 $92 $225 #
vertex $-1 $146 $243 #
vertex $-1 $148 $244 #
straight-curve $-1 60.98452711569567 27.816478327761601 0 0 0 -1 I I #
face $-1 $245 $246 $22 $-1 $247 forward single #
loop $-1 $-1 $248 $94 #
plane-surface $-1 -60.98452711569567 0 0 1 0 0 0 0 -1 forward_v I I I I #
coedge $-1 $165 $249 $167 $250 forward $95 $-1 #
coedge $-1 $97 $167 $251 $252 reversed $61 $-1 #
coedge $-1 $253 $163 $97 $161 forward $254 $-1 #
edge $-1 $169 1.2267719975826923 $255 8.0141482024668171 $160 $256 forward 7 unknown #
coedge $-1 $99 $98 $248 $257 reversed $39 $-1 #
coedge $-1 $160 $258 $98 $164 forward $254 $-1 #
edge $-1 $259 -33.757230346479645 $169 -20.697363191952416 $163 $260 forward 7 unknown #
coedge $-1 $261 $158 $99 $166 forward $95 $-1 #
edge $-1 $168 20.697363191952416 $262 33.757230346479645 $165 $263 forward 7 unknown #
coedge $-1 $159 $100 $158 $250 reversed $61 $-1 #
vertex $-1 $166 $264 #
vertex $-1 $164 $265 #
straight-curve $-1 -47.924659961168445 0 5.8472320976074474 0 -1 0 I I #
face $-1 $266 $267 $23 $-1 $268 reversed single #
loop $-1 $-1 $269 $102 #
plane-surface $-1 68.909696705171285 0 6.7544792200407873 0 0 1 1 0 0 forward_v I I I I #
coedge $-1 $182 $181 $270 $271 forward $103 $-1 #
coedge $-1 $272 $105 $273 $274 reversed $65 $-1 #
coedge $-1 $105 $272 $181 $275 reversed $65 $-1 #
edge $-1 $183 -12.134608302491573 $276 -6.7544792200407873 $105 $277 forward 7 unknown #
coedge $-1 $107 $106 $278 $279 forward $42 $-1 #
coedge $-1 $280 $281 $106 $180 forward $282 $-1 #
edge $-1 $283 6.7544792200407873 $184 12.134608302491573 $179 $284 forward 7 unknown #
coedge $-1 $174 $108 $176 $275 forward $103 $-1 #
coedge $-1 $108 $174 $280 $285 forward $103 $-1 #
vertex $-1 $177 $286 #
vertex $-1 $285 $287 #
straight-curve $-1 60.98452711569567 0 12.134608302491573 0 1 0 I I #
face $-1 $-1 $288 $24 $-1 $289 reversed single #
loop $-1 $-1 $116 $110 #
plane-surface $-1 0 0 12.634608302491577 0 0 1 1 0 0 forward_v I I I I #
coedge $-1 $290 $291 $292 $293 reversed $111 $-1 #
coedge $-1 $294 $113 $115 $196 forward $69 $-1 #
coedge $-1 $113 $294 $290 $295 forward $69 $-1 #
coedge $-1 $292 $116 $113 $193 forward $187 $-1 #
edge $-1 $199 -1.0794511958570574 $296 22.233399072388366 $192 $297 forward 7 unknown #
coedge $-1 $298 $299 $114 $195 forward $288 $-1 #
edge $-1 $300 -38.517516710143603 $198 -32.030568870571841 $194 $301 forward 7 unknown #
edge $-1 $199 -8.8697818195283809 $300 0 $115 $302 forward 7 unknown #
coedge $-1 $116 $292 $298 $303 forward $187 $-1 #
vertex $-1 $117 $304 #
vertex $-1 $117 $305 #
straight-curve $-1 -9.4975227424085951 -58.509499315452622 12.634608302491579 0 1 0 I I #
coedge $-1 $201 $201 $-1 $306 reversed $120 $-1 #
edge $-1 $307 0 $307 6.2831853071796004 $121 $308 forward 7 unknown #
vertex $-1 $124 $309 #
ellipse-curve $-1 -21.153947876531305 -24.791890039551472 9.3911343827056974 0 -0.73135370988377701 0.68199835119979291 2 0 0 1 I I #
face $-1 $-1 $217 $26 $-1 $310 forward single #
loop $-1 $-1 $311 $125 #
plane-surface $-1 0 27.816478327761601 0 0 -1 0 0 0 -1 forward_v I I I I #
coedge $-1 $312 $313 $314 $315 reversed $126 $-1 #
coedge $-1 $316 $128 $130 $215 forward $78 $-1 #
coedge $-1 $128 $316 $312 $317 forward $78 $-1 #
coedge $-1 $314 $131 $128 $212 forward $217 $-1 #
edge $-1 $219 -22.233399072388366 $318 1.0794511958570574 $211 $319 forward 7 unknown #
coedge $-1 $320 $321 $129 $214 forward $206 $-1 #
edge $-1 $322 -58.861201331053721 $218 -52.374253491481973 $213 $323 forward 7 unknown #
edge $-1 $219 46.763174835994818 $322 55.632956655523188 $130 $324 forward 7 unknown #
coedge $-1 $131 $314 $320 $325 forward $217 $-1 #
loop $-1 $-1 $314 $205 #
vertex $-1 $214 $326 #
vertex $-1 $132 $327 #
straight-curve $-1 -32.810373010654018 39.538706959734441 12.634608302491579 0 -1 0 I I #
coedge $-1 $221 $221 $-1 $328 reversed $135 $-1 #
edge $-1 $329 0 $329 6.2831853071796004 $136 $330 forward 7 unknown #
vertex $-1 $139 $331 #
ellipse-curve $-1 -21.153947876531305 24.791890039551475 9.3911343827057063 0 0.73135370988377701 0.68199835119979291 2 0 0 1 I I #
face $-1 $-1 $151 $21 $-1 $332 reversed single #
loop $-1 $-1 $333 $140 #
plane-surface $-1 -60.98452711569567 0 0 1 0 0 0 0 -1 forward_v I I I I #
coedge $-1 $334 $233 $335 $336 forward $141 $-1 #
coedge $-1 $337 $143 $334 $338 forward $87 $-1 #
coedge $-1 $143 $337 $149 $242 forward $87 $-1 #
coedge $-1 $145 $144 $339 $340 forward $57 $-1 #
edge $-1 $152 -60.98452711569567 $341 60.98452711569567 $150 $342 forward 7 unknown #
coedge $-1 $228 $237 $145 $234 reversed $141 $-1 #
edge $-1 $343 -60.98452711569567 $235 60.98452711569567 $233 $344 forward 7 unknown #
vertex $-1 $146 $345 #
straight-curve $-1 60.98452711569567 0 12.634608302491577 0 1 0 I I #
coedge $-1 $233 $334 $147 $238 reversed $141 $-1 #
edge $-1 $235 -12.634608302491577 $239 12.634608302491577 $147 $346 forward 7 unknown #
vertex $-1 $238 $347 #
straight-curve $-1 60.98452711569567 0 -12.634608302491577 0 -1 0 I I #
coedge $-1 $150 $149 $333 $348 reversed $151 $-1 #
edge $-1 $349 -60.98452711569567 $153 60.98452711569567 $149 $350 forward 7 unknown #
point $-1 60.98452711569567 27.816478327761601 12.634608302491577 #
point $-1 60.98452711569567 27.816478327761601 -12.634608302491577 #
face $-1 $-1 $254 $22 $-1 $351 reversed single #
loop $-1 $-1 $251 $155 #
plane-surface $-1 0 0 12.634608302491577 0 0 1 1 0 0 forward_v I I I I #
coedge $-1 $352 $353 $162 $257 forward $156 $-1 #
coedge $-1 $158 $261 $354 $355 reversed $95 $-1 #
edge $-1 $356 -8.0141482024668171 $168 -1.2267719975826923 $158 $357 forward 7 unknown #
coedge $-1 $354 $358 $159 $252 forward $246 $-1 #
edge $-1 $255 -27.816478327761601 $356 27.816478327761601 $251 $359 forward 7 unknown #
coedge $-1 $258 $160 $358 $360 reversed $254 $-1 #
loop $-1 $-1 $160 $245 #
vertex $-1 $161 $361 #
straight-curve $-1 -47.924659961168445 -27.816478327761601 4.6204601000247552 0 0 1 I I #
edge $-1 $262 -27.816478327761601 $259 27.816478327761601 $248 $362 forward 7 unknown #
coedge $-1 $163 $253 $352 $363 forward $254 $-1 #
vertex $-1 $257 $364 #
straight-curve $-1 -27.227296769216029 -27.816478327761601 5.8472320976074474 1 0 0 I I #
coedge $-1 $249 $165 $353 $365 reversed $95 $-1 #
vertex $-1 $257 $366 #
straight-curve $-1 -27.227296769216029 27.816478327761601 5.8472320976074474 -1 0 0 I I #
point $-1 -47.924659961168445 27.816478327761601 5.8472320976074474 #
point $-1 -47.924659961168445 -27.816478327761601 5.8472320976074474 #
face $-1 $-1 $282 $23 $-1 $367 reversed single #
loop $-1 $-1 $368 $171 #
plane-surface $-1 76.834866294646901 0 9.4445437612661802 -1 0 0 0 0 1 forward_v I I I I #
coedge $-1 $273 $369 $370 $371 forward $172 $-1 #
coedge $-1 $368 $372 $174 $271 reversed $267 $-1 #
edge $-1 $373 -27.816478327761601 $374 27.816478327761601 $270 $375 forward 7 unknown #
coedge $-1 $176 $175 $368 $376 reversed $65 $-1 #
coedge $-1 $278 $269 $175 $274 forward $172 $-1 #
edge $-1 $377 -7.9251695894756153 $276 7.9251695894756153 $175 $378 forward 7 unknown #
edge $-1 $183 -7.9251695894756153 $373 7.9251695894756153 $176 $379 forward 7 unknown #
vertex $-1 $177 $380 #
straight-curve $-1 60.98452711569567 -27.816478327761601 0 0 0 -1 I I #
coedge $-1 $369 $273 $178 $279 reversed $172 $-1 #
edge $-1 $283 -27.816478327761601 $276 27.816478327761601 $278 $381 forward 7 unknown #
coedge $-1 $382 $179 $182 $285 reversed $282 $-1 #
coedge $-1 $179 $382 $369 $383 reversed $282 $-1 #
loop $-1 $-1 $179 $266 #
vertex $-1 $180 $384 #
straight-curve $-1 60.98452711569567 27.816478327761601 0 0 0 1 I I #
edge $-1 $374 -7.9251695894756153 $184 7.9251695894756153 $280 $385 forward 7 unknown #
point $-1 60.98452711569567 -27.816478327761601 12.134608302491573 #
point $-1 60.98452711569567 27.816478327761601 12.134608302491573 #
loop $-1 $-1 $194 $186 #
plane-surface $-1 0 -27.816478327761601 0 0 1 0 0 0 1 forward_v I I I I #
coedge $-1 $291 $189 $191 $295 reversed $111 $-1 #
coedge $-1 $189 $290 $386 $387 reversed $111 $-1 #
coedge $-1 $197 $192 $189 $293 forward $187 $-1 #
edge $-1 $296 -36.742197564111279 $388 -30.693020987691021 $292 $389 forward 7 unknown #
coedge $-1 $191 $190 $299 $390 reversed $69 $-1 #
edge $-1 $391 0 $296 8.8697818195283809 $290 $392 forward 7 unknown #
vertex $-1 $193 $393 #
straight-curve $-1 -10.576973938265652 -21.767301751341346 12.634608302491577 -1 0 0 I I #
coedge $-1 $386 $194 $197 $303 reversed $288 $-1 #
coedge $-1 $194 $386 $294 $390 forward $288 $-1 #
vertex $-1 $195 $394 #
straight-curve $-1 -9.4975227424085951 -27.816478327761601 44.66517717306342 0 0 1 I I #
straight-curve $-1 -9.4975227424085951 -27.816478327761601 6.1476604629198164 0 -0.68199835119979291 -0.73135370988377701 I I #
edge $-1 $388 -32.810373010654018 $198 -9.4975227424085951 $298 $395 forward 7 unknown #
point $-1 -9.4975227424085951 -27.816478327761601 12.634608302491577 #
point $-1 -9.4975227424085951 -21.767301751341346 12.634608302491577 #
edge $-1 $396 1 $396 0 $201 $-1 forward 7 unknown #
vertex $-1 $202 $397 #
ellipse-curve $-1 -21.153947876531305 -22.981395104680036 7.7028205835808983 0 -0.73135370988377701 0.68199835119979291 2 0 0 1 I I #
point $-1 -19.153947876531305 -24.791890039551475 9.391134382705701 #
plane-surface $-1 0 0 12.634608302491577 0 0 1 1 0 0 forward_v I I I I #
coedge $-1 $321 $320 $313 $398 forward $206 $-1 #
coedge $-1 $313 $208 $210 $317 reversed $126 $-1 #
coedge $-1 $208 $312 $311 $398 reversed $126 $-1 #
coedge $-1 $216 $211 $208 $315 forward $217 $-1 #
edge $-1 $318 -17.771405208393087 $399 -11.72222863197284 $314 $400 forward 7 unknown #
coedge $-1 $210 $209 $321 $401 reversed $78 $-1 #
edge $-1 $402 -55.632956655523188 $318 -46.763174835994818 $312 $403 forward 7 unknown #
vertex $-1 $212 $404 #
straight-curve $-1 -10.576973938265652 21.767301751341357 12.634608302491579 1 0 0 I I #
coedge $-1 $311 $213 $216 $325 reversed $206 $-1 #
coedge $-1 $213 $311 $316 $401 forward $206 $-1 #
vertex $-1 $214 $405 #
straight-curve $-1 -32.810373010654018 27.816478327761601 65.008861793973551 0 0 1 I I #
straight-curve $-1 -32.810373010654018 -10.125106383674762 46.83502970474008 0 0.68199835119979291 -0.73135370988377701 I I #
edge $-1 $399 9.4975227424085951 $218 32.810373010654018 $320 $406 forward 7 unknown #
point $-1 -32.810373010654018 27.816478327761601 12.634608302491577 #
point $-1 -32.810373010654018 21.767301751341353 12.634608302491579 #
edge $-1 $407 1 $407 0 $221 $-1 forward 7 unknown #
vertex $-1 $222 $408 #
ellipse-curve $-1 -21.153947876531305 22.981395104680033 7.7028205835809018 0 0.73135370988377701 0.68199835119979291 2 0 0 1 I I #
point $-1 -19.153947876531305 24.791890039551472 9.3911343827057046 #
plane-surface $-1 0 27.816478327761601 0 0 -1 0 0 0 -1 forward_v I I I I #
coedge $-1 $409 $339 $241 $348 forward $226 $-1 #
coedge $-1 $237 $228 $229 $338 reversed $141 $-1 #
coedge $-1 $339 $409 $228 $336 reversed $226 $-1 #
edge $-1 $343 -12.634608302491577 $410 12.634608302491577 $335 $411 forward 7 unknown #
coedge $-1 $230 $229 $409 $412 forward $87 $-1 #
edge $-1 $239 -60.98452711569567 $410 60.98452711569567 $334 $413 forward 7 unknown #
coedge $-1 $333 $335 $231 $340 reversed $226 $-1 #
edge $-1 $341 -27.816478327761601 $343 27.816478327761601 $339 $414 forward 7 unknown #
vertex $-1 $232 $415 #
straight-curve $-1 0 27.816478327761601 12.634608302491577 -1 0 0 I I #
vertex $-1 $340 $416 #
straight-curve $-1 0 -27.816478327761601 12.634608302491577 1 0 0 I I #
point $-1 60.98452711569567 -27.816478327761601 12.634608302491577 #
straight-curve $-1 60.98452711569567 -27.816478327761601 0 0 0 -1 I I #
point $-1 60.98452711569567 -27.816478327761601 -12.634608302491577 #
edge $-1 $341 -12.634608302491577 $349 12.634608302491577 $241 $417 forward 7 unknown #
vertex $-1 $242 $418 #
straight-curve $-1 0 27.816478327761601 -12.634608302491577 1 0 0 I I #
plane-surface $-1 0 -27.816478327761601 0 0 1 0 0 0 1 forward_v I I I I #
coedge $-1 $419 $248 $258 $363 reversed $156 $-1 #
coedge $-1 $248 $419 $261 $365 forward $156 $-1 #
coedge $-1 $420 $251 $249 $355 forward $246 $-1 #
edge $-1 $356 47.924659961168445 $421 60.98452711569567 $249 $422 forward 7 unknown #
vertex $-1 $355 $423 #
straight-curve $-1 -47.924659961168445 27.816478327761601 4.6204601000247552 0 0 -1 I I #
coedge $-1 $251 $420 $253 $360 forward $246 $-1 #
straight-curve $-1 -47.924659961168445 0 12.634608302491577 0 1 0 I I #
edge $-1 $424 -60.98452711569567 $255 -47.924659961168445 $253 $425 forward 7 unknown #
point $-1 -47.924659961168445 -27.816478327761601 12.634608302491573 #
straight-curve $-1 -60.98452711569567 0 5.8472320976074474 0 -1 0 I I #
edge $-1 $424 -12.634608302491577 $259 -5.8472320976074474 $352 $426 forward 7 unknown #
point $-1 -60.98452711569567 -27.816478327761601 5.8472320976074474 #
edge $-1 $421 -12.634608302491577 $262 -5.8472320976074474 $261 $427 forward 7 unknown #
point $-1 -60.98452711569567 27.816478327761601 5.8472320976074474 #
plane-surface $-1 0 27.816478327761601 0 0 -1 0 0 0 -1 forward_v I I I I #
coedge $-1 $370 $270 $272 $376 forward $267 $-1 #
coedge $-1 $269 $278 $281 $383 forward $172 $-1 #
coedge $-1 $372 $368 $269 $371 reversed $267 $-1 #
edge $-1 $428 -27.816478327761601 $377 27.816478327761601 $370 $429 forward 7 unknown #
coedge $-1 $270 $370 $382 $430 reversed $267 $-1 #
vertex $-1 $271 $431 #
vertex $-1 $271 $432 #
straight-curve $-1 76.834866294646901 0 12.134608302491573 0 1 0 I I #
edge $-1 $373 -2.690064541225393 $377 2.690064541225393 $368 $433 forward 7 unknown #
vertex $-1 $376 $434 #
straight-curve $-1 68.909696705171285 -27.816478327761601 6.7544792200407873 -1 0 0 I I #
straight-curve $-1 68.909696705171285 -27.816478327761601 12.134608302491573 1 0 0 I I #
point $-1 60.98452711569567 -27.816478327761601 6.7544792200407873 #
straight-curve $-1 60.98452711569567 0 6.7544792200407873 0 -1 0 I I #
coedge $-1 $281 $280 $372 $430 forward $282 $-1 #
edge $-1 $283 -7.9251695894756153 $428 7.9251695894756153 $281 $435 forward 7 unknown #
point $-1 60.98452711569567 27.816478327761601 6.7544792200407873 #
straight-curve $-1 68.909696705171285 27.816478327761601 12.134608302491573 -1 0 0 I I #
coedge $-1 $299 $298 $291 $387 forward $288 $-1 #
edge $-1 $388 32.030568870571841 $391 38.517516710143603 $386 $436 forward 7 unknown #
vertex $-1 $303 $437 #
straight-curve $-1 -32.810373010654018 -58.509499315452622 12.634608302491579 0 -1 0 I I #
edge $-1 $391 -22.233399072388366 $300 1.0794511958570574 $299 $438 forward 7 unknown #
vertex $-1 $390 $439 #
straight-curve $-1 -32.810373010654018 -27.816478327761601 6.1476604629198164 0 0.68199835119979291 0.73135370988377701 I I #
point $-1 -32.810373010654018 -21.767301751341346 12.634608302491577 #
point $-1 -9.4975227424085951 -27.816478327761601 6.1476604629198164 #
straight-curve $-1 0 -27.816478327761601 12.634608302491577 1 0 0 I I #
vertex $-1 $306 $440 #
point $-1 -19.153947876531305 -22.981395104680036 7.7028205835808983 #
edge $-1 $399 52.374253491481973 $402 58.861201331053721 $311 $441 forward 7 unknown #
vertex $-1 $325 $442 #
straight-curve $-1 -9.4975227424085951 39.538706959734441 12.634608302491579 0 1 0 I I #
edge $-1 $402 -1.0794511958570574 $322 22.233399072388366 $321 $443 forward 7 unknown #
vertex $-1 $401 $444 #
straight-curve $-1 -9.4975227424085951 -10.125106383674762 46.83502970474008 0 -0.68199835119979291 0.73135370988377701 I I #
point $-1 -9.4975227424085951 21.767301751341353 12.634608302491579 #
point $-1 -32.810373010654018 27.816478327761601 6.1476604629198306 #
straight-curve $-1 0 27.816478327761601 12.634608302491577 -1 0 0 I I #
vertex $-1 $328 $445 #
point $-1 -19.153947876531305 22.981395104680033 7.7028205835809018 #
coedge $-1 $335 $333 $337 $412 reversed $226 $-1 #
vertex $-1 $412 $446 #
straight-curve $-1 -60.98452711569567 -27.816478327761601 0 0 0 -1 I I #
edge $-1 $410 -27.816478327761601 $349 27.816478327761601 $409 $447 forward 7 unknown #
straight-curve $-1 0 -27.816478327761601 -12.634608302491577 -1 0 0 I I #
straight-curve $-1 -60.98452711569567 0 12.634608302491577 0 -1 0 I I #
point $-1 -60.98452711569567 27.816478327761601 12.634608302491577 #
point $-1 -60.98452711569567 -27.816478327761601 12.634608302491577 #
straight-curve $-1 -60.98452711569567 27.816478327761601 0 0 0 -1 I I #
point $-1 -60.98452711569567 27.816478327761601 -12.634608302491577 #
coedge $-1 $353 $352 $420 $448 reversed $156 $-1 #
coedge $-1 $358 $354 $419 $448 forward $246 $-1 #
vertex $-1 $355 $449 #
straight-curve $-1 0 27.816478327761601 12.634608302491577 -1 0 0 I I #
point $-1 -47.924659961168445 27.816478327761601 12.634608302491573 #
vertex $-1 $448 $450 #
straight-curve $-1 0 -27.816478327761601 12.634608302491577 1 0 0 I I #
straight-curve $-1 -60.98452711569567 -27.816478327761601 0 0 0 -1 I I #
straight-curve $-1 -60.98452711569567 27.816478327761601 0 0 0 -1 I I #
vertex $-1 $371 $451 #
straight-curve $-1 76.834866294646901 0 6.7544792200407873 0 -1 0 I I #
edge $-1 $374 -2.690064541225393 $428 2.690064541225393 $372 $452 forward 7 unknown #
point $-1 76.834866294646901 -27.816478327761601 12.134608302491573 #
point $-1 76.834866294646901 27.816478327761601 12.134608302491573 #
straight-curve $-1 76.834866294646901 -27.816478327761601 9.4445437612661802 0 0 -1 I I #
point $-1 76.834866294646901 -27.816478327761601 6.7544792200407873 #
straight-curve $-1 68.909696705171285 27.816478327761601 6.7544792200407873 1 0 0 I I #
straight-curve $-1 -32.810373010654018 -27.816478327761601 44.66517717306342 0 0 -1 I I #
point $-1 -32.810373010654018 -27.816478327761601 12.634608302491577 #
straight-curve $-1 -10.576973938265652 -27.816478327761601 6.1476604629198155 1 0 0 I I #
point $-1 -32.810373010654018 -27.816478327761601 6.1476604629198164 #
point $-1 -21.153947876531305 -21.518687684912482 6.3388238811813125 #
straight-curve $-1 -9.4975227424085951 27.816478327761601 65.008861793973551 0 0 -1 I I #
point $-1 -9.4975227424085951 27.816478327761601 12.634608302491577 #
straight-curve $-1 -10.576973938265652 27.816478327761601 6.1476604629198341 -1 0 0 I I #
point $-1 -9.4975227424085951 27.816478327761601 6.1476604629198306 #
point $-1 -21.153947876531305 21.518687684912479 6.338823881181316 #
point $-1 -60.98452711569567 -27.816478327761601 -12.634608302491577 #
straight-curve $-1 -60.98452711569567 0 -12.634608302491577 0 1 0 I I #
edge $-1 $421 -27.816478327761601 $424 27.816478327761601 $419 $453 forward 7 unknown #
point $-1 -60.98452711569567 27.816478327761601 12.634608302491577 #
point $-1 -60.98452711569567 -27.816478327761601 12.634608302491577 #
point $-1 76.834866294646901 27.816478327761601 6.7544792200407873 #
straight-curve $-1 76.834866294646901 27.816478327761601 9.4445437612661802 0 0 -1 I I #
straight-curve $-1 -60.98452711569567 0 12.634608302491577 0 -1 0 I I #
End-of-ACIS-data 