500 0 15 0           
7 Unknown 11 ACIS 5.0 NT 24 Fri Mar 26 20:46:57 1999 
-1 9.9999999999999995e-007 1e-010 
body $-1 $15 $-1 $16 #
body $-1 $17 $-1 $18 #
body $-1 $19 $-1 $20 #
body $-1 $21 $-1 $22 #
body $-1 $23 $-1 $24 #
body $-1 $25 $-1 $26 #
body $-1 $27 $-1 $28 #
body $-1 $29 $-1 $30 #
body $-1 $31 $-1 $32 #
body $-1 $33 $-1 $34 #
body $-1 $35 $-1 $36 #
body $-1 $37 $-1 $38 #
body $-1 $39 $-1 $40 #
body $-1 $41 $-1 $42 #
body $-1 $43 $-1 $44 #
lump $-1 $-1 $45 $0 #
transform $-1 1 0 0 0 1 0 0 0 1 45.488448744163335 27.588486644879236 8.5947224851505251 1 rotate no_reflect no_shear #
lump $-1 $-1 $46 $1 #
transform $-1 1 0 0 0 1 0 0 0 1 45.488448744163335 27.588486644879236 8.5947224851505251 1 rotate no_reflect no_shear #
lump $-1 $-1 $47 $2 #
transform $-1 1 0 0 0 1 0 0 0 1 45.488448744163335 27.588486644879236 8.5947224851505251 1 rotate no_reflect no_shear #
lump $-1 $-1 $48 $3 #
transform $-1 1 0 0 0 1 0 0 0 1 45.488448744163335 27.588486644879236 8.5947224851505251 1 rotate no_reflect no_shear #
lump $-1 $-1 $49 $4 #
transform $-1 1 0 0 0 1 0 0 0 1 45.488448744163335 27.588486644879236 8.5947224851505251 1 rotate no_reflect no_shear #
lump $-1 $-1 $50 $5 #
transform $-1 1 0 0 0 1 0 0 0 1 45.488448744163335 27.588486644879236 8.5947224851505251 1 rotate no_reflect no_shear #
lump $-1 $-1 $51 $6 #
transform $-1 1 0 0 0 1 0 0 0 1 45.488448744163335 27.588486644879236 8.5947224851505251 1 rotate no_reflect no_shear #
lump $-1 $-1 $52 $7 #
transform $-1 1 0 0 0 1 0 0 0 1 45.488448744163335 27.588486644879236 8.5947224851505251 1 rotate no_reflect no_shear #
lump $-1 $-1 $53 $8 #
transform $-1 1 0 0 0 1 0 0 0 1 45.488448744163335 27.588486644879236 8.5947224851505251 1 rotate no_reflect no_shear #
lump $-1 $-1 $54 $9 #
transform $-1 1 0 0 0 1 0 0 0 1 45.488448744163335 27.588486644879236 8.5947224851505251 1 rotate no_reflect no_shear #
lump $-1 $-1 $55 $10 #
transform $-1 1 0 0 0 1 0 0 0 1 45.488448744163335 27.588486644879236 8.5947224851505251 1 rotate no_reflect no_shear #
lump $-1 $-1 $56 $11 #
transform $-1 1 0 0 0 1 0 0 0 1 45.488448744163335 27.588486644879236 8.5947224851505251 1 rotate no_reflect no_shear #
lump $-1 $-1 $57 $12 #
transform $-1 1 0 0 0 1 0 0 0 1 45.488448744163335 27.588486644879236 8.5947224851505251 1 rotate no_reflect no_shear #
lump $-1 $-1 $58 $13 #
transform $-1 1 0 0 0 1 0 0 0 1 45.488448744163335 27.588486644879236 8.5947224851505251 1 rotate no_reflect no_shear #
lump $-1 $-1 $59 $14 #
transform $-1 1 0 0 0 1 0 0 0 1 45.488448744163335 27.588486644879236 8.5947224851505251 1 rotate no_reflect no_shear #
shell $-1 $-1 $-1 $60 $-1 $15 #
shell $-1 $-1 $-1 $61 $-1 $17 #
shell $-1 $-1 $-1 $62 $-1 $19 #
shell $-1 $-1 $-1 $63 $-1 $21 #
shell $-1 $-1 $-1 $64 $-1 $23 #
shell $-1 $-1 $-1 $65 $-1 $25 #
shell $-1 $-1 $-1 $66 $-1 $27 #
shell $-1 $-1 $-1 $67 $-1 $29 #
shell $-1 $-1 $-1 $68 $-1 $31 #
shell $-1 $-1 $-1 $69 $-1 $33 #
shell $-1 $-1 $-1 $70 $-1 $35 #
shell $-1 $-1 $-1 $71 $-1 $37 #
shell $-1 $-1 $-1 $72 $-1 $39 #
shell $-1 $-1 $-1 $73 $-1 $41 #
shell $-1 $-1 $-1 $74 $-1 $43 #
face $-1 $75 $76 $45 $-1 $77 forward single #
face $-1 $78 $79 $46 $-1 $80 forward single #
face $-1 $81 $82 $47 $-1 $83 forward single #
face $-1 $84 $85 $48 $-1 $86 reversed single #
face $-1 $87 $88 $49 $-1 $89 forward single #
face $-1 $90 $91 $50 $-1 $92 forward single #
face $-1 $93 $94 $51 $-1 $95 forward single #
face $-1 $96 $97 $52 $-1 $98 reversed single #
face $-1 $99 $100 $53 $-1 $101 forward single #
face $-1 $102 $103 $54 $-1 $104 forward single #
face $-1 $105 $106 $55 $-1 $107 forward single #
face $-1 $108 $109 $56 $-1 $110 reversed single #
face $-1 $111 $112 $57 $-1 $113 forward single #
face $-1 $114 $115 $58 $-1 $116 forward single #
face $-1 $117 $118 $59 $-1 $119 forward single #
face $-1 $120 $121 $45 $-1 $122 reversed single #
loop $-1 $-1 $123 $60 #
plane-surface $-1 0 0 8.5947224851505251 0 0 1 1 0 0 forward_v I I I I #
face $-1 $124 $125 $46 $-1 $126 reversed single #
loop $-1 $-1 $127 $61 #
plane-surface $-1 0 -22.16880683111231 -3.2552836904986 0 0 1 1 0 0 forward_v I I I I #
face $-1 $128 $129 $47 $-1 $130 reversed single #
loop $-1 $-1 $131 $62 #
plane-surface $-1 0 24.299527900150476 -5.5947224851505251 0 0 1 1 0 0 forward_v I I I I #
face $-1 $132 $133 $48 $-1 $134 reversed single #
loop $-1 $-1 $135 $63 #
plane-surface $-1 78.788306304953508 -6.6827239187826031 129.17945537449936 0 1 0 0.86602541151947299 0 0.49999998660252726 forward_v I I I I #
face $-1 $136 $137 $49 $-1 $138 forward single #
loop $-1 $139 $140 $64 #
cone-surface $-1 43.743494407409941 -5.4610557672119739 6.3565993804450027 -0.86602541151947299 0 -0.49999998660252726 0.24999999330126363 0 -0.43301270575973649 1 I I 0 1 0.5 forward I I I I #
face $-1 $141 $142 $50 $-1 $143 forward single #
loop $-1 $144 $145 $65 #
cone-surface $-1 43.743494407409941 -3.628553539856032 6.3565993804450027 -0.86602541151947299 0 -0.49999998660252726 0.24999999330126363 0 -0.43301270575973649 1 I I 0 1 0.5 forward I I I I #
face $-1 $146 $147 $51 $-1 $148 forward single #
loop $-1 $149 $150 $66 #
cone-surface $-1 43.743494407409941 -1.7960513125000901 6.3565993804450027 -0.86602541151947299 0 -0.49999998660252726 0.24999999330126363 0 -0.43301270575973649 1 I I 0 1 0.5 forward I I I I #
face $-1 $151 $152 $52 $-1 $153 reversed single #
loop $-1 $-1 $154 $67 #
plane-surface $-1 78.788306304953508 12.197124167600951 129.17945537449936 0 1 0 0.86602541151947299 0 0.49999998660252726 forward_v I I I I #
face $-1 $155 $156 $53 $-1 $157 forward single #
loop $-1 $158 $159 $68 #
cone-surface $-1 43.743494407409941 13.418792319171576 6.3565993804450027 -0.86602541151947299 0 -0.49999998660252726 0.24999999330126363 0 -0.43301270575973649 1 I I 0 1 0.5 forward I I I I #
face $-1 $160 $161 $54 $-1 $162 forward single #
loop $-1 $163 $164 $69 #
cone-surface $-1 43.743494407409941 15.251294546527522 6.3565993804450027 -0.86602541151947299 0 -0.49999998660252726 0.24999999330126363 0 -0.43301270575973649 1 I I 0 1 0.5 forward I I I I #
face $-1 $165 $166 $55 $-1 $167 forward single #
loop $-1 $168 $169 $70 #
cone-surface $-1 43.743494407409941 17.08379677388346 6.3565993804450027 -0.86602541151947299 0 -0.49999998660252726 0.24999999330126363 0 -0.43301270575973649 1 I I 0 1 0.5 forward I I I I #
face $-1 $170 $171 $56 $-1 $172 reversed single #
loop $-1 $-1 $173 $71 #
plane-surface $-1 -108.68631284525534 2.5139170113270826 67.137239804804224 0 -1 0 0.69465837861970381 0 -0.71933979245794832 forward_v I I I I #
face $-1 $174 $175 $57 $-1 $176 forward single #
loop $-1 $177 $178 $72 #
cone-surface $-1 -41.246450920544646 -4.3148086322324168 4.4515479310742272 0.69465837861970381 0 -0.71933979245794832 0.35966989622897416 0 0.3473291893098519 1 I I 0 1 0.5 forward I I I I #
face $-1 $179 $180 $58 $-1 $181 forward single #
loop $-1 $182 $183 $73 #
cone-surface $-1 -41.246450920544646 -1.754036515897603 4.4515479310742272 0.69465837861970381 0 -0.71933979245794832 0.35966989622897416 0 0.3473291893098519 1 I I 0 1 0.5 forward I I I I #
face $-1 $184 $185 $59 $-1 $186 forward single #
loop $-1 $187 $188 $74 #
cone-surface $-1 -41.246450920544646 0.80673560043721082 4.4515479310742272 0.69465837861970381 0 -0.71933979245794832 0.35966989622897416 0 0.3473291893098519 1 I I 0 1 0.5 forward I I I I #
face $-1 $189 $190 $45 $-1 $191 reversed single #
loop $-1 $-1 $192 $75 #
plane-surface $-1 0 0 -8.5947224851505251 0 0 1 1 0 0 forward_v I I I I #
coedge $-1 $193 $194 $195 $196 forward $76 $-1 #
face $-1 $197 $198 $46 $-1 $199 reversed single #
loop $-1 $-1 $200 $78 #
plane-surface $-1 0 -22.16880683111231 -6.5335380489662134 0 0 1 1 0 0 forward_v I I I I #
coedge $-1 $201 $202 $203 $204 reversed $79 $-1 #
face $-1 $205 $206 $47 $-1 $207 reversed single #
loop $-1 $-1 $208 $81 #
plane-surface $-1 0 21.010569155421717 -7.0947224851505251 0 1 0 0 0 1 forward_v I I I I #
coedge $-1 $209 $210 $211 $212 reversed $82 $-1 #
face $-1 $213 $214 $48 $-1 $215 reversed single #
loop $-1 $-1 $216 $84 #
plane-surface $-1 1.2188604898710764e-006 -3.628553539856032 83.691007849196524 0.86602541151947299 0 0.49999998660252726 0.49999998660252726 0 -0.86602541151947299 forward_v I I I I #
coedge $-1 $217 $218 $219 $220 reversed $85 $-1 #
face $-1 $-1 $221 $49 $-1 $222 forward single #
loop $-1 $223 $224 $87 #
cone-surface $-1 42.847827969888115 -5.4610557672119739 5.8394861401123581 -0.86602541151947299 0 -0.49999998660252726 0.12499999665063181 0 -0.21650635287986825 1 I I -0.70710678118654746 0.70710678118654746 0.25 forward I I I I #
loop $-1 $-1 $225 $64 #
coedge $-1 $140 $140 $226 $227 reversed $88 $-1 #
face $-1 $-1 $228 $50 $-1 $229 forward single #
loop $-1 $230 $231 $90 #
cone-surface $-1 42.847827969888115 -3.628553539856032 5.8394861401123581 -0.86602541151947299 0 -0.49999998660252726 0.12499999665063181 0 -0.21650635287986825 1 I I -0.70710678118654746 0.70710678118654746 0.25 forward I I I I #
loop $-1 $-1 $232 $65 #
coedge $-1 $145 $145 $233 $234 reversed $91 $-1 #
face $-1 $-1 $235 $51 $-1 $236 forward single #
loop $-1 $237 $238 $93 #
cone-surface $-1 42.847827969888115 -1.7960513125000901 5.8394861401123581 -0.86602541151947299 0 -0.49999998660252726 0.12499999665063181 0 -0.21650635287986825 1 I I -0.70710678118654746 0.70710678118654746 0.25 forward I I I I #
loop $-1 $-1 $239 $66 #
coedge $-1 $150 $150 $240 $241 reversed $94 $-1 #
face $-1 $242 $243 $52 $-1 $244 reversed single #
loop $-1 $-1 $245 $96 #
plane-surface $-1 1.2188604898710764e-006 15.251294546527522 83.691007849196524 0.86602541151947299 0 0.49999998660252726 0.49999998660252726 0 -0.86602541151947299 forward_v I I I I #
coedge $-1 $246 $247 $248 $249 reversed $97 $-1 #
face $-1 $-1 $250 $53 $-1 $251 forward single #
loop $-1 $252 $253 $99 #
cone-surface $-1 42.847827969888115 13.418792319171576 5.8394861401123581 -0.86602541151947299 0 -0.49999998660252726 0.12499999665063181 0 -0.21650635287986825 1 I I -0.70710678118654746 0.70710678118654746 0.25 forward I I I I #
loop $-1 $-1 $254 $68 #
coedge $-1 $159 $159 $255 $256 reversed $100 $-1 #
face $-1 $-1 $257 $54 $-1 $258 forward single #
loop $-1 $259 $260 $102 #
cone-surface $-1 42.847827969888115 15.251294546527522 5.8394861401123581 -0.86602541151947299 0 -0.49999998660252726 0.12499999665063181 0 -0.21650635287986825 1 I I -0.70710678118654746 0.70710678118654746 0.25 forward I I I I #
loop $-1 $-1 $261 $69 #
coedge $-1 $164 $164 $262 $263 reversed $103 $-1 #
face $-1 $-1 $264 $55 $-1 $265 forward single #
loop $-1 $266 $267 $105 #
cone-surface $-1 42.847827969888115 17.08379677388346 5.8394861401123581 -0.86602541151947299 0 -0.49999998660252726 0.12499999665063181 0 -0.21650635287986825 1 I I -0.70710678118654746 0.70710678118654746 0.25 forward I I I I #
loop $-1 $-1 $268 $70 #
coedge $-1 $169 $169 $269 $270 reversed $106 $-1 #
face $-1 $271 $272 $56 $-1 $273 reversed single #
loop $-1 $-1 $274 $108 #
plane-surface $-1 -45.488448744163335 -1.7540365158976066 1.6939372470832836 -0.69465837861970381 0 0.71933979245794832 0.71933979245794832 0 0.69465837861970381 forward_v I I I I #
coedge $-1 $275 $276 $277 $278 reversed $109 $-1 #
face $-1 $-1 $279 $57 $-1 $280 forward single #
loop $-1 $281 $282 $111 #
cone-surface $-1 -40.403774572641126 -4.3148086322324168 3.5789310479170577 0.69465837861970381 0 -0.71933979245794832 0.17983494811448708 0 0.17366459465492595 1 I I -0.70710678118654746 0.70710678118654746 0.25 forward I I I I #
loop $-1 $-1 $283 $72 #
coedge $-1 $178 $178 $284 $285 reversed $112 $-1 #
face $-1 $-1 $286 $58 $-1 $287 forward single #
loop $-1 $288 $289 $114 #
cone-surface $-1 -40.403774572641126 -1.754036515897603 3.5789310479170577 0.69465837861970381 0 -0.71933979245794832 0.17983494811448708 0 0.17366459465492595 1 I I -0.70710678118654746 0.70710678118654746 0.25 forward I I I I #
loop $-1 $-1 $290 $73 #
coedge $-1 $183 $183 $291 $292 reversed $115 $-1 #
face $-1 $-1 $293 $59 $-1 $294 forward single #
loop $-1 $295 $296 $117 #
cone-surface $-1 -40.403774572641126 0.80673560043721082 3.5789310479170577 0.69465837861970381 0 -0.71933979245794832 0.17983494811448708 0 0.17366459465492595 1 I I -0.70710678118654746 0.70710678118654746 0.25 forward I I I I #
loop $-1 $-1 $297 $74 #
coedge $-1 $188 $188 $298 $299 reversed $118 $-1 #
face $-1 $300 $301 $45 $-1 $302 reversed single #
loop $-1 $-1 $303 $120 #
plane-surface $-1 0 -27.588486644879236 0 0 1 0 0 0 1 forward_v I I I I #
coedge $-1 $304 $305 $306 $307 forward $121 $-1 #
coedge $-1 $308 $123 $309 $310 forward $76 $-1 #
coedge $-1 $123 $308 $311 $312 forward $76 $-1 #
coedge $-1 $313 $314 $123 $196 reversed $315 $-1 #
edge $-1 $316 -27.588486644879236 $317 27.588486644879236 $195 $318 forward 7 unknown #
face $-1 $319 $320 $46 $-1 $321 reversed single #
loop $-1 $-1 $322 $124 #
plane-surface $-1 0 -16.749127017345383 -4.8944108697324067 0 -1 0 0 0 -1 forward_v I I I I #
coedge $-1 $323 $324 $325 $326 reversed $125 $-1 #
coedge $-1 $327 $127 $328 $329 forward $79 $-1 #
coedge $-1 $127 $327 $330 $331 reversed $79 $-1 #
coedge $-1 $332 $333 $127 $204 forward $334 $-1 #
edge $-1 $335 5.6647236017892286 $336 16.504083229323079 $203 $337 forward 7 unknown #
face $-1 $338 $339 $47 $-1 $340 reversed single #
loop $-1 $-1 $211 $128 #
plane-surface $-1 45.488448744163335 0 0 -1 0 0 0 0 1 forward_v I I I I #
coedge $-1 $341 $342 $343 $344 reversed $129 $-1 #
coedge $-1 $345 $131 $346 $347 reversed $82 $-1 #
coedge $-1 $131 $345 $342 $348 forward $82 $-1 #
coedge $-1 $349 $350 $131 $212 forward $206 $-1 #
edge $-1 $351 -15.438722694803998 $352 -8.8608052053464785 $211 $353 forward 7 unknown #
face $-1 $354 $355 $48 $-1 $356 forward single #
loop $-1 $-1 $357 $132 #
plane-surface $-1 78.788306304953508 -0.57438316092946096 129.17945537449936 0 -1 0 -0.86602541151947299 0 -0.49999998660252726 forward_v I I I I #
coedge $-1 $358 $359 $360 $361 reversed $133 $-1 #
coedge $-1 $218 $135 $362 $363 reversed $85 $-1 #
coedge $-1 $135 $217 $358 $364 reversed $85 $-1 #
coedge $-1 $360 $365 $135 $220 forward $366 $-1 #
edge $-1 $367 55.995005202099151 $368 59.687024924146186 $219 $369 forward 7 unknown #
loop $-1 $-1 $226 $136 #
plane-surface $-1 1.2188604898710764e-006 -3.628553539856032 83.691007849196524 0.86602541151947299 0 0.49999998660252726 0.49999998660252726 0 -0.86602541151947299 forward_v I I I I #
loop $-1 $-1 $370 $87 #
coedge $-1 $224 $224 $225 $371 reversed $137 $-1 #
coedge $-1 $225 $225 $224 $371 forward $139 $-1 #
coedge $-1 $226 $226 $140 $227 forward $221 $-1 #
edge $-1 $372 0 $372 6.2831853071796004 $226 $373 forward 7 unknown #
loop $-1 $-1 $233 $141 #
plane-surface $-1 1.2188604898710764e-006 -3.628553539856032 83.691007849196524 0.86602541151947299 0 0.49999998660252726 0.49999998660252726 0 -0.86602541151947299 forward_v I I I I #
loop $-1 $-1 $374 $90 #
coedge $-1 $231 $231 $232 $375 reversed $142 $-1 #
coedge $-1 $232 $232 $231 $375 forward $144 $-1 #
coedge $-1 $233 $233 $145 $234 forward $228 $-1 #
edge $-1 $376 0 $376 6.2831853071796004 $233 $377 forward 7 unknown #
loop $-1 $-1 $240 $146 #
plane-surface $-1 1.2188604898710764e-006 -3.628553539856032 83.691007849196524 0.86602541151947299 0 0.49999998660252726 0.49999998660252726 0 -0.86602541151947299 forward_v I I I I #
loop $-1 $-1 $378 $93 #
coedge $-1 $238 $238 $239 $379 reversed $147 $-1 #
coedge $-1 $239 $239 $238 $379 forward $149 $-1 #
coedge $-1 $240 $240 $150 $241 forward $235 $-1 #
edge $-1 $380 0 $380 6.2831853071796004 $240 $381 forward 7 unknown #
face $-1 $382 $383 $52 $-1 $384 reversed single #
loop $-1 $-1 $385 $151 #
plane-surface $-1 78.788306304953508 18.305464925454093 129.17945537449936 0 -1 0 -0.86602541151947299 0 -0.49999998660252726 forward_v I I I I #
coedge $-1 $386 $387 $388 $389 reversed $152 $-1 #
coedge $-1 $247 $154 $390 $391 reversed $97 $-1 #
coedge $-1 $154 $246 $386 $392 reversed $97 $-1 #
coedge $-1 $388 $393 $154 $249 forward $383 $-1 #
edge $-1 $394 55.995005202099151 $395 59.687024924146186 $248 $396 forward 7 unknown #
loop $-1 $-1 $255 $155 #
plane-surface $-1 1.2188604898710764e-006 15.251294546527522 83.691007849196524 0.86602541151947299 0 0.49999998660252726 0.49999998660252726 0 -0.86602541151947299 forward_v I I I I #
loop $-1 $-1 $397 $99 #
coedge $-1 $253 $253 $254 $398 reversed $156 $-1 #
coedge $-1 $254 $254 $253 $398 forward $158 $-1 #
coedge $-1 $255 $255 $159 $256 forward $250 $-1 #
edge $-1 $399 0 $399 6.2831853071796004 $255 $400 forward 7 unknown #
loop $-1 $-1 $262 $160 #
plane-surface $-1 1.2188604898710764e-006 15.251294546527522 83.691007849196524 0.86602541151947299 0 0.49999998660252726 0.49999998660252726 0 -0.86602541151947299 forward_v I I I I #
loop $-1 $-1 $401 $102 #
coedge $-1 $260 $260 $261 $402 reversed $161 $-1 #
coedge $-1 $261 $261 $260 $402 forward $163 $-1 #
coedge $-1 $262 $262 $164 $263 forward $257 $-1 #
edge $-1 $403 0 $403 6.2831853071796004 $262 $404 forward 7 unknown #
loop $-1 $-1 $269 $165 #
plane-surface $-1 1.2188604898710764e-006 15.251294546527522 83.691007849196524 0.86602541151947299 0 0.49999998660252726 0.49999998660252726 0 -0.86602541151947299 forward_v I I I I #
loop $-1 $-1 $405 $105 #
coedge $-1 $267 $267 $268 $406 reversed $166 $-1 #
coedge $-1 $268 $268 $267 $406 forward $168 $-1 #
coedge $-1 $269 $269 $169 $270 forward $264 $-1 #
edge $-1 $407 0 $407 6.2831853071796004 $269 $408 forward 7 unknown #
face $-1 $409 $410 $56 $-1 $411 reversed single #
loop $-1 $-1 $412 $170 #
plane-surface $-1 -108.68631284525534 -6.0219900431222957 67.137239804804224 0 1 0 -0.69465837861970381 0 0.71933979245794832 forward_v I I I I #
coedge $-1 $413 $414 $415 $416 reversed $171 $-1 #
coedge $-1 $276 $173 $417 $418 reversed $109 $-1 #
coedge $-1 $173 $275 $413 $419 reversed $109 $-1 #
coedge $-1 $415 $420 $173 $278 forward $410 $-1 #
edge $-1 $421 24.973897417251585 $422 31.874682655318828 $277 $423 forward 7 unknown #
loop $-1 $-1 $284 $174 #
plane-surface $-1 -45.488448744163335 -1.7540365158976066 1.6939372470832836 -0.69465837861970381 0 0.71933979245794832 0.71933979245794832 0 0.69465837861970381 forward_v I I I I #
loop $-1 $-1 $424 $111 #
coedge $-1 $282 $282 $283 $425 reversed $175 $-1 #
coedge $-1 $283 $283 $282 $425 forward $177 $-1 #
coedge $-1 $284 $284 $178 $285 forward $279 $-1 #
edge $-1 $426 0 $426 6.2831853071796004 $284 $427 forward 7 unknown #
loop $-1 $-1 $291 $179 #
plane-surface $-1 -45.488448744163335 -1.7540365158976066 1.6939372470832836 -0.69465837861970381 0 0.71933979245794832 0.71933979245794832 0 0.69465837861970381 forward_v I I I I #
loop $-1 $-1 $428 $114 #
coedge $-1 $289 $289 $290 $429 reversed $180 $-1 #
coedge $-1 $290 $290 $289 $429 forward $182 $-1 #
coedge $-1 $291 $291 $183 $292 forward $286 $-1 #
edge $-1 $430 0 $430 6.2831853071796004 $291 $431 forward 7 unknown #
loop $-1 $-1 $298 $184 #
plane-surface $-1 -45.488448744163335 -1.7540365158976066 1.6939372470832836 -0.69465837861970381 0 0.71933979245794832 0.71933979245794832 0 0.69465837861970381 forward_v I I I I #
loop $-1 $-1 $432 $117 #
coedge $-1 $296 $296 $297 $433 reversed $185 $-1 #
coedge $-1 $297 $297 $296 $433 forward $187 $-1 #
coedge $-1 $298 $298 $188 $299 forward $293 $-1 #
edge $-1 $434 0 $434 6.2831853071796004 $298 $435 forward 7 unknown #
face $-1 $436 $437 $45 $-1 $438 reversed single #
loop $-1 $-1 $439 $189 #
plane-surface $-1 -45.488448744163335 0 0 1 0 0 0 0 -1 forward_v I I I I #
coedge $-1 $440 $311 $441 $442 forward $190 $-1 #
coedge $-1 $443 $192 $440 $444 forward $121 $-1 #
coedge $-1 $192 $443 $445 $446 forward $121 $-1 #
coedge $-1 $314 $313 $192 $307 reversed $315 $-1 #
edge $-1 $447 -27.588486644879236 $448 27.588486644879236 $306 $449 forward 7 unknown #
coedge $-1 $194 $193 $450 $451 forward $76 $-1 #
coedge $-1 $452 $453 $193 $310 reversed $437 $-1 #
edge $-1 $317 -45.488448744163335 $454 45.488448744163335 $309 $455 forward 7 unknown #
coedge $-1 $303 $456 $194 $312 reversed $190 $-1 #
edge $-1 $457 -45.488448744163335 $316 45.488448744163335 $311 $458 forward 7 unknown #
coedge $-1 $306 $195 $456 $459 forward $315 $-1 #
coedge $-1 $195 $306 $452 $460 reversed $315 $-1 #
loop $-1 $-1 $313 $436 #
vertex $-1 $196 $461 #
vertex $-1 $196 $462 #
straight-curve $-1 45.488448744163335 0 8.5947224851505251 0 1 0 I I #
face $-1 $463 $464 $46 $-1 $465 reversed single #
loop $-1 $-1 $466 $197 #
plane-surface $-1 -45.488448744163335 0 0 1 0 0 0 0 -1 forward_v I I I I #
coedge $-1 $467 $328 $333 $468 reversed $198 $-1 #
coedge $-1 $469 $200 $470 $471 reversed $125 $-1 #
coedge $-1 $200 $469 $467 $472 forward $125 $-1 #
coedge $-1 $333 $332 $200 $326 forward $334 $-1 #
edge $-1 $473 -16.504083229323079 $474 -5.6647236017892286 $325 $475 forward 7 unknown #
coedge $-1 $202 $201 $466 $476 reversed $79 $-1 #
coedge $-1 $322 $477 $201 $329 reversed $198 $-1 #
edge $-1 $335 -45.488448744163335 $478 45.488448744163335 $328 $479 forward 7 unknown #
coedge $-1 $480 $481 $202 $331 forward $464 $-1 #
edge $-1 $336 -45.488448744163335 $482 45.488448744163335 $330 $483 forward 7 unknown #
coedge $-1 $325 $203 $481 $484 forward $334 $-1 #
coedge $-1 $203 $325 $322 $468 forward $334 $-1 #
loop $-1 $-1 $203 $463 #
vertex $-1 $204 $485 #
vertex $-1 $484 $486 #
straight-curve $-1 45.488448744163335 -11.084403415556155 -3.2552836904986 0 -1 0 I I #
face $-1 $487 $488 $47 $-1 $489 reversed single #
loop $-1 $-1 $490 $205 #
plane-surface $-1 0 0 -8.5947224851505251 0 0 1 1 0 0 forward_v I I I I #
coedge $-1 $491 $208 $490 $492 reversed $129 $-1 #
coedge $-1 $208 $491 $210 $348 reversed $129 $-1 #
coedge $-1 $493 $494 $208 $344 forward $488 $-1 #
edge $-1 $495 -5.0473612425752625 $496 -2.0473612425752625 $343 $497 forward 7 unknown #
coedge $-1 $210 $209 $493 $498 reversed $82 $-1 #
coedge $-1 $499 $500 $209 $347 forward $501 $-1 #
edge $-1 $502 -45.488448744163335 $351 45.488448744163335 $346 $503 forward 7 unknown #
edge $-1 $496 -45.488448744163335 $352 45.488448744163335 $342 $504 forward 7 unknown #
coedge $-1 $505 $211 $491 $506 forward $206 $-1 #
coedge $-1 $211 $505 $499 $507 reversed $206 $-1 #
vertex $-1 $507 $508 #
vertex $-1 $212 $509 #
straight-curve $-1 45.488448744163335 12.149763950075238 -5.5947224851505251 0 -1 0 I I #
face $-1 $-1 $366 $48 $-1 $510 reversed single #
loop $-1 $-1 $511 $213 #
plane-surface $-1 0 0 8.5947224851505251 0 0 1 1 0 0 forward_v I I I I #
coedge $-1 $512 $513 $514 $515 reversed $214 $-1 #
coedge $-1 $516 $216 $218 $364 forward $133 $-1 #
coedge $-1 $216 $516 $512 $517 forward $133 $-1 #
coedge $-1 $514 $219 $216 $361 forward $366 $-1 #
edge $-1 $368 -4.8684471488545871 $518 1.2398936089985551 $360 $519 forward 7 unknown #
coedge $-1 $520 $521 $217 $363 forward $355 $-1 #
edge $-1 $522 3.9627070874637127 $367 6.0942955916865813 $362 $523 forward 7 unknown #
edge $-1 $368 -90.976897488326685 $522 -86.713720365649351 $218 $524 forward 7 unknown #
coedge $-1 $219 $514 $520 $525 reversed $366 $-1 #
loop $-1 $-1 $514 $354 #
vertex $-1 $525 $526 #
vertex $-1 $220 $527 #
straight-curve $-1 45.488448744163335 -6.6827239187826031 64.589727687249678 0 0 -1 I I #
coedge $-1 $370 $370 $-1 $528 reversed $223 $-1 #
edge $-1 $529 0 $529 6.2831853071796004 $224 $530 forward 7 unknown #
vertex $-1 $227 $531 #
ellipse-curve $-1 44.422654492051898 -5.4610557672119739 6.7487126241270143 0.86602541151947299 0 0.49999998660252726 0.24999999330126363 0 -0.43301270575973649 1 I I #
coedge $-1 $374 $374 $-1 $532 reversed $230 $-1 #
edge $-1 $533 0 $533 6.2831853071796004 $231 $534 forward 7 unknown #
vertex $-1 $234 $535 #
ellipse-curve $-1 44.422654492051898 -3.628553539856032 6.7487126241270143 0.86602541151947299 0 0.49999998660252726 0.24999999330126363 0 -0.43301270575973649 1 I I #
coedge $-1 $378 $378 $-1 $536 reversed $237 $-1 #
edge $-1 $537 0 $537 6.2831853071796004 $238 $538 forward 7 unknown #
vertex $-1 $241 $539 #
ellipse-curve $-1 44.422654492051898 -1.7960513125000901 6.7487126241270143 0.86602541151947299 0 0.49999998660252726 0.24999999330126363 0 -0.43301270575973649 1 I I #
face $-1 $-1 $540 $52 $-1 $541 forward single #
loop $-1 $-1 $248 $242 #
plane-surface $-1 45.488448744163335 0 0 -1 0 0 0 0 1 forward_v I I I I #
coedge $-1 $542 $543 $544 $545 reversed $243 $-1 #
coedge $-1 $546 $245 $247 $392 forward $152 $-1 #
coedge $-1 $245 $546 $542 $547 forward $152 $-1 #
coedge $-1 $544 $248 $245 $389 forward $383 $-1 #
edge $-1 $395 4.5714768943371897 $548 10.679817652190332 $388 $549 forward 7 unknown #
coedge $-1 $550 $551 $246 $391 forward $540 $-1 #
edge $-1 $552 3.9627070874637127 $394 6.0942955916865813 $390 $553 forward 7 unknown #
edge $-1 $395 -90.976897488326685 $552 -86.713720365649351 $247 $554 forward 7 unknown #
coedge $-1 $248 $544 $550 $555 reversed $383 $-1 #
vertex $-1 $555 $556 #
vertex $-1 $249 $557 #
straight-curve $-1 45.488448744163335 12.197124167600951 64.589727687249678 0 0 -1 I I #
coedge $-1 $397 $397 $-1 $558 reversed $252 $-1 #
edge $-1 $559 0 $559 6.2831853071796004 $253 $560 forward 7 unknown #
vertex $-1 $256 $561 #
ellipse-curve $-1 44.422654492051898 13.418792319171576 6.7487126241270143 0.86602541151947299 0 0.49999998660252726 0.24999999330126363 0 -0.43301270575973649 1 I I #
coedge $-1 $401 $401 $-1 $562 reversed $259 $-1 #
edge $-1 $563 0 $563 6.2831853071796004 $260 $564 forward 7 unknown #
vertex $-1 $263 $565 #
ellipse-curve $-1 44.422654492051898 15.251294546527522 6.7487126241270143 0.86602541151947299 0 0.49999998660252726 0.24999999330126363 0 -0.43301270575973649 1 I I #
coedge $-1 $405 $405 $-1 $566 reversed $266 $-1 #
edge $-1 $567 0 $567 6.2831853071796004 $267 $568 forward 7 unknown #
vertex $-1 $270 $569 #
ellipse-curve $-1 44.422654492051898 17.08379677388346 6.7487126241270143 0.86602541151947299 0 0.49999998660252726 0.24999999330126363 0 -0.43301270575973649 1 I I #
face $-1 $-1 $570 $56 $-1 $571 forward single #
loop $-1 $-1 $277 $271 #
plane-surface $-1 -45.488448744163335 0 0 1 0 0 0 0 -1 forward_v I I I I #
coedge $-1 $572 $573 $574 $575 reversed $272 $-1 #
coedge $-1 $576 $274 $276 $419 forward $171 $-1 #
coedge $-1 $274 $576 $572 $577 forward $171 $-1 #
coedge $-1 $574 $277 $274 $416 forward $410 $-1 #
edge $-1 $422 -3.3909352692758858 $578 5.1449717851734924 $415 $579 forward 7 unknown #
coedge $-1 $580 $581 $275 $418 forward $570 $-1 #
edge $-1 $582 -16.000679819204535 $421 -8.8547076784643366 $417 $583 forward 7 unknown #
edge $-1 $422 0 $582 9.9340704013089116 $276 $584 forward 7 unknown #
coedge $-1 $277 $574 $580 $585 reversed $410 $-1 #
vertex $-1 $585 $586 #
vertex $-1 $278 $587 #
straight-curve $-1 -45.488448744163335 2.5139170113270826 33.568619902402112 0 0 -1 I I #
coedge $-1 $424 $424 $-1 $588 reversed $281 $-1 #
edge $-1 $589 0 $589 6.2831853071796004 $282 $590 forward 7 unknown #
vertex $-1 $285 $591 #
ellipse-curve $-1 -41.915462673793236 -4.3148086322324168 5.1443298661169043 -0.69465837861970381 0 0.71933979245794832 0.35966989622897416 0 0.3473291893098519 1 I I #
coedge $-1 $428 $428 $-1 $592 reversed $288 $-1 #
edge $-1 $593 0 $593 6.2831853071796004 $289 $594 forward 7 unknown #
vertex $-1 $292 $595 #
ellipse-curve $-1 -41.915462673793236 -1.754036515897603 5.1443298661169043 -0.69465837861970381 0 0.71933979245794832 0.35966989622897416 0 0.3473291893098519 1 I I #
coedge $-1 $432 $432 $-1 $596 reversed $295 $-1 #
edge $-1 $597 0 $597 6.2831853071796004 $296 $598 forward 7 unknown #
vertex $-1 $299 $599 #
ellipse-curve $-1 -41.915462673793236 0.80673560043721082 5.1443298661169043 -0.69465837861970381 0 0.71933979245794832 0.35966989622897416 0 0.3473291893098519 1 I I #
face $-1 $-1 $315 $45 $-1 $600 reversed single #
loop $-1 $-1 $452 $300 #
plane-surface $-1 0 27.588486644879236 0 0 -1 0 0 0 -1 forward_v I I I I #
coedge $-1 $601 $450 $453 $602 forward $301 $-1 #
coedge $-1 $456 $303 $304 $444 reversed $190 $-1 #
coedge $-1 $450 $601 $303 $442 reversed $301 $-1 #
edge $-1 $457 -8.5947224851505251 $603 8.5947224851505251 $441 $604 forward 7 unknown #
coedge $-1 $305 $304 $601 $605 forward $121 $-1 #
edge $-1 $448 -45.488448744163335 $603 45.488448744163335 $440 $606 forward 7 unknown #
coedge $-1 $453 $452 $305 $446 reversed $437 $-1 #
edge $-1 $607 -45.488448744163335 $447 45.488448744163335 $445 $608 forward 7 unknown #
vertex $-1 $307 $609 #
vertex $-1 $459 $610 #
straight-curve $-1 45.488448744163335 0 -8.5947224851505251 0 -1 0 I I #
coedge $-1 $439 $441 $308 $451 reversed $301 $-1 #
edge $-1 $454 -27.588486644879236 $457 27.588486644879236 $450 $611 forward 7 unknown #
coedge $-1 $445 $309 $314 $460 forward $437 $-1 #
coedge $-1 $309 $445 $439 $602 reversed $437 $-1 #
vertex $-1 $310 $612 #
straight-curve $-1 0 27.588486644879236 8.5947224851505251 -1 0 0 I I #
coedge $-1 $311 $440 $313 $459 reversed $190 $-1 #
vertex $-1 $451 $613 #
straight-curve $-1 0 -27.588486644879236 8.5947224851505251 1 0 0 I I #
edge $-1 $316 -8.5947224851505251 $448 8.5947224851505251 $313 $614 forward 7 unknown #
edge $-1 $317 -8.5947224851505251 $447 8.5947224851505251 $314 $615 forward 7 unknown #
point $-1 45.488448744163335 -27.588486644879236 8.5947224851505251 #
point $-1 45.488448744163335 27.588486644879236 8.5947224851505251 #
face $-1 $-1 $334 $46 $-1 $616 reversed single #
loop $-1 $-1 $330 $319 #
plane-surface $-1 0 -27.588486644879236 0 0 1 0 0 0 1 forward_v I I I I #
coedge $-1 $617 $618 $327 $476 forward $320 $-1 #
coedge $-1 $477 $322 $324 $472 reversed $198 $-1 #
edge $-1 $474 -4.0863326141000105 $335 -0.80807825563239666 $333 $619 forward 7 unknown #
coedge $-1 $324 $323 $620 $621 reversed $125 $-1 #
coedge $-1 $481 $480 $323 $471 forward $464 $-1 #
edge $-1 $622 -45.488448744163335 $473 45.488448744163335 $470 $623 forward 7 unknown #
edge $-1 $624 -45.488448744163335 $474 45.488448744163335 $467 $625 forward 7 unknown #
vertex $-1 $471 $626 #
vertex $-1 $326 $627 #
straight-curve $-1 45.488448744163335 -11.084403415556155 -6.5335380489662134 0 1 0 I I #
edge $-1 $482 -16.504083229323079 $478 -5.6647236017892286 $466 $628 forward 7 unknown #
coedge $-1 $328 $467 $617 $629 reversed $198 $-1 #
vertex $-1 $476 $630 #
straight-curve $-1 0 -16.749127017345383 -3.2552836904986 -1 0 0 I I #
coedge $-1 $470 $330 $618 $631 forward $464 $-1 #
coedge $-1 $330 $470 $332 $484 reversed $464 $-1 #
vertex $-1 $631 $632 #
straight-curve $-1 0 -27.588486644879236 -3.2552836904986 -1 0 0 I I #
edge $-1 $336 3.2552836904986 $473 6.5335380489662134 $332 $633 forward 7 unknown #
point $-1 45.488448744163335 -16.749127017345383 -3.2552836904986 #
point $-1 45.488448744163335 -27.588486644879236 -3.2552836904986 #
face $-1 $-1 $501 $47 $-1 $634 reversed single #
loop $-1 $-1 $493 $338 #
plane-surface $-1 -45.488448744163335 0 0 1 0 0 0 0 -1 forward_v I I I I #
coedge $-1 $635 $636 $341 $492 forward $339 $-1 #
coedge $-1 $342 $341 $349 $506 reversed $129 $-1 #
edge $-1 $637 -45.488448744163335 $495 45.488448744163335 $490 $638 forward 7 unknown #
coedge $-1 $639 $343 $345 $498 forward $488 $-1 #
coedge $-1 $343 $639 $635 $640 reversed $488 $-1 #
vertex $-1 $640 $641 #
vertex $-1 $498 $642 #
straight-curve $-1 -45.488448744163335 21.010569155421717 -3.5473612425752625 0 0 1 I I #
edge $-1 $496 8.8608052053464785 $502 15.438722694803998 $493 $643 forward 7 unknown #
coedge $-1 $644 $346 $350 $507 forward $501 $-1 #
coedge $-1 $346 $644 $639 $645 reversed $501 $-1 #
loop $-1 $-1 $346 $487 #
vertex $-1 $645 $646 #
straight-curve $-1 0 27.588486644879236 -5.5947224851505251 1 0 0 I I #
straight-curve $-1 0 21.010569155421717 -5.5947224851505251 1 0 0 I I #
coedge $-1 $350 $349 $636 $647 reversed $206 $-1 #
edge $-1 $352 2.0473612425752625 $637 5.0473612425752625 $349 $648 forward 7 unknown #
edge $-1 $351 5.5947224851505251 $649 8.5947224851505251 $350 $650 forward 7 unknown #
point $-1 45.488448744163335 27.588486644879236 -5.5947224851505251 #
point $-1 45.488448744163335 21.010569155421717 -5.5947224851505251 #
plane-surface $-1 45.488448744163335 0 0 -1 0 0 0 0 1 forward_v I I I I #
coedge $-1 $521 $520 $513 $651 forward $355 $-1 #
coedge $-1 $513 $357 $359 $517 reversed $214 $-1 #
coedge $-1 $357 $512 $511 $651 reversed $214 $-1 #
coedge $-1 $365 $360 $357 $515 forward $366 $-1 #
edge $-1 $518 -59.687024924146186 $652 -55.995005202099151 $514 $653 forward 7 unknown #
coedge $-1 $359 $358 $521 $654 reversed $133 $-1 #
edge $-1 $655 86.713720365649351 $518 90.976897488326685 $512 $656 forward 7 unknown #
vertex $-1 $361 $657 #
straight-curve $-1 45.488448744163335 -1.814276769928016 4.9027027631034912 0 1 0 I I #
coedge $-1 $511 $362 $365 $525 forward $355 $-1 #
coedge $-1 $362 $511 $516 $654 forward $355 $-1 #
vertex $-1 $363 $658 #
straight-curve $-1 39.394153152476754 -6.6827239187826031 8.5947224851505268 1 0 0 I I #
straight-curve $-1 1.2188604898710764e-006 -6.6827239187826031 83.691007849196524 -0.49999998660252726 0 0.86602541151947299 I I #
edge $-1 $367 -6.6827239187826031 $652 -0.57438316092946096 $365 $659 forward 7 unknown #
point $-1 45.488448744163335 -6.6827239187826031 8.5947224851505251 #
point $-1 45.488448744163335 -6.6827239187826031 4.9027027631034912 #
edge $-1 $660 1 $660 0 $370 $-1 forward 7 unknown #
vertex $-1 $371 $661 #
ellipse-curve $-1 43.064334322767984 -5.4610557672119739 5.9644861367629902 0.86602541151947299 0 0.49999998660252726 0.24999999330126363 0 -0.43301270575973649 1 I I #
point $-1 44.672654485353164 -5.4610557672119739 6.3156999183672777 #
edge $-1 $662 1 $662 0 $374 $-1 forward 7 unknown #
vertex $-1 $375 $663 #
ellipse-curve $-1 43.064334322767984 -3.628553539856032 5.9644861367629902 0.86602541151947299 0 0.49999998660252726 0.24999999330126363 0 -0.43301270575973649 1 I I #
point $-1 44.672654485353164 -3.628553539856032 6.3156999183672777 #
edge $-1 $664 1 $664 0 $378 $-1 forward 7 unknown #
vertex $-1 $379 $665 #
ellipse-curve $-1 43.064334322767984 -1.7960513125000901 5.9644861367629902 0.86602541151947299 0 0.49999998660252726 0.24999999330126363 0 -0.43301270575973649 1 I I #
point $-1 44.672654485353164 -1.7960513125000901 6.3156999183672777 #
loop $-1 $-1 $390 $382 #
plane-surface $-1 0 0 8.5947224851505251 0 0 1 1 0 0 forward_v I I I I #
coedge $-1 $543 $385 $387 $547 reversed $243 $-1 #
coedge $-1 $385 $542 $666 $667 reversed $243 $-1 #
coedge $-1 $393 $388 $385 $545 forward $383 $-1 #
edge $-1 $548 -59.687024924146186 $668 -55.995005202099151 $544 $669 forward 7 unknown #
coedge $-1 $387 $386 $551 $670 reversed $152 $-1 #
edge $-1 $671 86.713720365649351 $548 90.976897488326685 $542 $672 forward 7 unknown #
vertex $-1 $389 $673 #
straight-curve $-1 45.488448744163335 7.6256472732637608 4.9027027631034912 0 1 0 I I #
coedge $-1 $666 $390 $393 $555 forward $540 $-1 #
coedge $-1 $390 $666 $546 $670 forward $540 $-1 #
vertex $-1 $391 $674 #
straight-curve $-1 39.394153152476754 12.197124167600951 8.5947224851505268 1 0 0 I I #
straight-curve $-1 1.2188604898710764e-006 12.197124167600951 83.691007849196524 -0.49999998660252726 0 0.86602541151947299 I I #
edge $-1 $394 12.197124167600951 $668 18.305464925454093 $393 $675 forward 7 unknown #
point $-1 45.488448744163335 12.197124167600951 8.5947224851505251 #
point $-1 45.488448744163335 12.197124167600951 4.9027027631034912 #
edge $-1 $676 1 $676 0 $397 $-1 forward 7 unknown #
vertex $-1 $398 $677 #
ellipse-curve $-1 43.064334322767984 13.418792319171576 5.9644861367629902 0.86602541151947299 0 0.49999998660252726 0.24999999330126363 0 -0.43301270575973649 1 I I #
point $-1 44.672654485353164 13.418792319171576 6.3156999183672777 #
edge $-1 $678 1 $678 0 $401 $-1 forward 7 unknown #
vertex $-1 $402 $679 #
ellipse-curve $-1 43.064334322767984 15.251294546527522 5.9644861367629902 0.86602541151947299 0 0.49999998660252726 0.24999999330126363 0 -0.43301270575973649 1 I I #
point $-1 44.672654485353164 15.251294546527522 6.3156999183672777 #
edge $-1 $680 1 $680 0 $405 $-1 forward 7 unknown #
vertex $-1 $406 $681 #
ellipse-curve $-1 43.064334322767984 17.08379677388346 5.9644861367629902 0.86602541151947299 0 0.49999998660252726 0.24999999330126363 0 -0.43301270575973649 1 I I #
point $-1 44.672654485353164 17.08379677388346 6.3156999183672777 #
loop $-1 $-1 $417 $409 #
plane-surface $-1 0 0 8.5947224851505251 0 0 1 1 0 0 forward_v I I I I #
coedge $-1 $573 $412 $414 $577 reversed $272 $-1 #
coedge $-1 $412 $572 $682 $683 reversed $272 $-1 #
coedge $-1 $420 $415 $412 $575 forward $410 $-1 #
edge $-1 $578 -31.874682655318828 $684 -24.973897417251585 $574 $685 forward 7 unknown #
coedge $-1 $414 $413 $581 $686 reversed $171 $-1 #
edge $-1 $687 -9.9340704013089116 $578 0 $572 $688 forward 7 unknown #
vertex $-1 $416 $689 #
straight-curve $-1 -45.488448744163335 -0.87701825794880328 1.6939372470832803 0 -1 0 I I #
coedge $-1 $682 $417 $420 $585 forward $570 $-1 #
coedge $-1 $417 $682 $576 $686 forward $570 $-1 #
vertex $-1 $418 $690 #
straight-curve $-1 -54.343156422627672 2.5139170113270826 8.5947224851505268 -1 0 0 I I #
straight-curve $-1 -45.488448744163335 2.5139170113270826 1.6939372470832836 0.71933979245794832 0 0.69465837861970381 I I #
edge $-1 $421 -2.5139170113270826 $684 6.0219900431222957 $420 $691 forward 7 unknown #
point $-1 -45.488448744163335 2.5139170113270826 8.5947224851505251 #
point $-1 -45.488448744163335 2.5139170113270826 1.6939372470832836 #
edge $-1 $692 1 $692 0 $424 $-1 forward 7 unknown #
vertex $-1 $425 $693 #
ellipse-curve $-1 -40.577439167296049 -4.3148086322324168 3.7587659960315447 -0.69465837861970381 0 0.71933979245794832 0.35966989622897416 0 0.3473291893098519 1 I I #
point $-1 -41.555792777564264 -4.3148086322324168 5.4916590554267621 #
edge $-1 $694 1 $694 0 $428 $-1 forward 7 unknown #
vertex $-1 $429 $695 #
ellipse-curve $-1 -40.577439167296049 -1.754036515897603 3.7587659960315447 -0.69465837861970381 0 0.71933979245794832 0.35966989622897416 0 0.3473291893098519 1 I I #
point $-1 -41.555792777564264 -1.754036515897603 5.4916590554267621 #
edge $-1 $696 1 $696 0 $432 $-1 forward 7 unknown #
vertex $-1 $433 $697 #
ellipse-curve $-1 -40.577439167296049 0.80673560043721082 3.7587659960315447 -0.69465837861970381 0 0.71933979245794832 0.35966989622897416 0 0.3473291893098519 1 I I #
point $-1 -41.555792777564264 0.80673560043721082 5.4916590554267621 #
plane-surface $-1 45.488448744163335 0 0 -1 0 0 0 0 1 forward_v I I I I #
coedge $-1 $441 $439 $443 $605 reversed $301 $-1 #
edge $-1 $454 -8.5947224851505251 $607 8.5947224851505251 $453 $698 forward 7 unknown #
vertex $-1 $605 $699 #
straight-curve $-1 -45.488448744163335 -27.588486644879236 0 0 0 -1 I I #
edge $-1 $603 -27.588486644879236 $607 27.588486644879236 $601 $700 forward 7 unknown #
straight-curve $-1 0 -27.588486644879236 -8.5947224851505251 -1 0 0 I I #
vertex $-1 $446 $701 #
straight-curve $-1 0 27.588486644879236 -8.5947224851505251 1 0 0 I I #
point $-1 45.488448744163335 27.588486644879236 -8.5947224851505251 #
point $-1 45.488448744163335 -27.588486644879236 -8.5947224851505251 #
straight-curve $-1 -45.488448744163335 0 8.5947224851505251 0 -1 0 I I #
point $-1 -45.488448744163335 27.588486644879236 8.5947224851505251 #
point $-1 -45.488448744163335 -27.588486644879236 8.5947224851505251 #
straight-curve $-1 45.488448744163335 -27.588486644879236 0 0 0 -1 I I #
straight-curve $-1 45.488448744163335 27.588486644879236 0 0 0 -1 I I #
plane-surface $-1 45.488448744163335 0 0 -1 0 0 0 0 1 forward_v I I I I #
coedge $-1 $620 $466 $477 $629 forward $320 $-1 #
coedge $-1 $466 $620 $480 $631 reversed $320 $-1 #
straight-curve $-1 45.488448744163335 -16.749127017345383 -2.4472054348662033 0 0 1 I I #
coedge $-1 $618 $617 $469 $621 forward $320 $-1 #
edge $-1 $624 5.6647236017892286 $622 16.504083229323079 $620 $702 forward 7 unknown #
vertex $-1 $471 $703 #
straight-curve $-1 0 -27.588486644879236 -6.5335380489662134 1 0 0 I I #
vertex $-1 $621 $704 #
straight-curve $-1 0 -16.749127017345383 -6.5335380489662134 1 0 0 I I #
point $-1 45.488448744163335 -27.588486644879236 -6.5335380489662134 #
point $-1 45.488448744163335 -16.749127017345383 -6.5335380489662134 #
straight-curve $-1 -45.488448744163335 -11.084403415556155 -3.2552836904986 0 1 0 I I #
edge $-1 $478 0.80807825563239666 $624 4.0863326141000105 $617 $705 forward 7 unknown #
point $-1 -45.488448744163335 -16.749127017345383 -3.2552836904986 #
edge $-1 $482 3.2552836904986 $622 6.5335380489662134 $618 $706 forward 7 unknown #
point $-1 -45.488448744163335 -27.588486644879236 -3.2552836904986 #
straight-curve $-1 45.488448744163335 -27.588486644879236 0 0 0 -1 I I #
plane-surface $-1 0 27.588486644879236 0 0 -1 0 0 0 -1 forward_v I I I I #
coedge $-1 $707 $490 $494 $640 forward $339 $-1 #
coedge $-1 $490 $707 $505 $647 forward $339 $-1 #
vertex $-1 $492 $708 #
straight-curve $-1 0 21.010569155421717 -8.5947224851505251 -1 0 0 I I #
coedge $-1 $494 $493 $500 $645 forward $488 $-1 #
edge $-1 $495 21.010569155421717 $709 27.588486644879236 $494 $710 forward 7 unknown #
point $-1 -45.488448744163335 21.010569155421717 -8.5947224851505251 #
point $-1 -45.488448744163335 21.010569155421717 -5.5947224851505251 #
straight-curve $-1 -45.488448744163335 12.149763950075238 -5.5947224851505251 0 1 0 I I #
coedge $-1 $500 $499 $707 $711 reversed $501 $-1 #
edge $-1 $502 5.5947224851505251 $709 8.5947224851505251 $500 $712 forward 7 unknown #
point $-1 -45.488448744163335 27.588486644879236 -5.5947224851505251 #
edge $-1 $649 -27.588486644879236 $637 -21.010569155421717 $505 $713 forward 7 unknown #
straight-curve $-1 45.488448744163335 21.010569155421717 -3.5473612425752625 0 0 -1 I I #
vertex $-1 $647 $714 #
straight-curve $-1 45.488448744163335 27.588486644879236 0 0 0 -1 I I #
edge $-1 $652 -6.0942955916865813 $655 -3.9627070874637127 $511 $715 forward 7 unknown #
vertex $-1 $651 $716 #
straight-curve $-1 45.488448744163335 -0.57438316092946096 64.589727687249678 0 0 1 I I #
edge $-1 $655 -1.2398936089985551 $522 4.8684471488545871 $521 $717 forward 7 unknown #
vertex $-1 $654 $718 #
straight-curve $-1 1.2188604898710764e-006 -0.57438316092946096 83.691007849196524 0.49999998660252726 0 -0.86602541151947299 I I #
point $-1 45.488448744163335 -0.57438316092946096 4.9027027631034912 #
point $-1 43.356860239940467 -6.6827239187826031 8.5947224851505268 #
straight-curve $-1 45.488448744163335 0 8.5947224851505251 0 1 0 I I #
vertex $-1 $528 $719 #
point $-1 43.31433431606925 -5.4610557672119739 5.5314734310032536 #
vertex $-1 $532 $720 #
point $-1 43.31433431606925 -3.628553539856032 5.5314734310032536 #
vertex $-1 $536 $721 #
point $-1 43.31433431606925 -1.7960513125000901 5.5314734310032536 #
coedge $-1 $551 $550 $543 $667 forward $540 $-1 #
edge $-1 $668 -6.0942955916865813 $671 -3.9627070874637127 $666 $722 forward 7 unknown #
vertex $-1 $667 $723 #
straight-curve $-1 45.488448744163335 18.305464925454093 64.589727687249678 0 0 1 I I #
edge $-1 $671 -10.679817652190332 $552 -4.5714768943371897 $551 $724 forward 7 unknown #
vertex $-1 $670 $725 #
straight-curve $-1 1.2188604898710764e-006 18.305464925454093 83.691007849196524 0.49999998660252726 0 -0.86602541151947299 I I #
point $-1 45.488448744163335 18.305464925454093 4.9027027631034912 #
point $-1 43.356860239940467 12.197124167600951 8.5947224851505268 #
straight-curve $-1 45.488448744163335 0 8.5947224851505251 0 1 0 I I #
vertex $-1 $558 $726 #
point $-1 43.31433431606925 13.418792319171576 5.5314734310032536 #
vertex $-1 $562 $727 #
point $-1 43.31433431606925 15.251294546527522 5.5314734310032536 #
vertex $-1 $566 $728 #
point $-1 43.31433431606925 17.08379677388346 5.5314734310032536 #
coedge $-1 $581 $580 $573 $683 forward $570 $-1 #
edge $-1 $684 8.8547076784643366 $687 16.000679819204535 $682 $729 forward 7 unknown #
vertex $-1 $683 $730 #
straight-curve $-1 -45.488448744163335 -6.0219900431222957 33.568619902402112 0 0 1 I I #
edge $-1 $687 -5.1449717851734924 $582 3.3909352692758858 $581 $731 forward 7 unknown #
vertex $-1 $686 $732 #
straight-curve $-1 -45.488448744163335 -6.0219900431222957 1.6939372470832836 -0.71933979245794832 0 -0.69465837861970381 I I #
point $-1 -45.488448744163335 -6.0219900431222957 1.6939372470832836 #
point $-1 -38.342476603423137 2.5139170113270826 8.5947224851505251 #
straight-curve $-1 -45.488448744163335 0 8.5947224851505251 0 -1 0 I I #
vertex $-1 $588 $733 #
point $-1 -40.217769271067077 -4.3148086322324168 4.1060951853413972 #
vertex $-1 $592 $734 #
point $-1 -40.217769271067077 -1.754036515897603 4.1060951853413972 #
vertex $-1 $596 $735 #
point $-1 -40.217769271067077 0.80673560043721082 4.1060951853413972 #
straight-curve $-1 -45.488448744163335 27.588486644879236 0 0 0 -1 I I #
point $-1 -45.488448744163335 -27.588486644879236 -8.5947224851505251 #
straight-curve $-1 -45.488448744163335 0 -8.5947224851505251 0 1 0 I I #
point $-1 -45.488448744163335 27.588486644879236 -8.5947224851505251 #
straight-curve $-1 -45.488448744163335 -11.084403415556155 -6.5335380489662134 0 -1 0 I I #
point $-1 -45.488448744163335 -27.588486644879236 -6.5335380489662134 #
point $-1 -45.488448744163335 -16.749127017345383 -6.5335380489662134 #
straight-curve $-1 -45.488448744163335 -16.749127017345383 -2.4472054348662033 0 0 -1 I I #
straight-curve $-1 -45.488448744163335 -27.588486644879236 0 0 0 -1 I I #
coedge $-1 $636 $635 $644 $711 forward $339 $-1 #
point $-1 45.488448744163335 21.010569155421717 -8.5947224851505251 #
vertex $-1 $711 $736 #
straight-curve $-1 -45.488448744163335 0 -8.5947224851505251 0 1 0 I I #
edge $-1 $709 -45.488448744163335 $649 45.488448744163335 $644 $737 forward 7 unknown #
straight-curve $-1 -45.488448744163335 27.588486644879236 0 0 0 -1 I I #
straight-curve $-1 45.488448744163335 0 -8.5947224851505251 0 -1 0 I I #
point $-1 45.488448744163335 27.588486644879236 -8.5947224851505251 #
straight-curve $-1 39.394153152476754 -0.57438316092946096 8.5947224851505268 -1 0 0 I I #
point $-1 45.488448744163335 -0.57438316092946096 8.5947224851505251 #
straight-curve $-1 43.356860239940467 -1.814276769928016 8.5947224851505268 0 -1 0 I I #
point $-1 43.356860239940467 -0.57438316092946096 8.5947224851505268 #
point $-1 42.631321617008247 -5.4610557672119739 5.714486143461726 #
point $-1 42.631321617008247 -3.628553539856032 5.714486143461726 #
point $-1 42.631321617008247 -1.7960513125000901 5.714486143461726 #
straight-curve $-1 39.394153152476754 18.305464925454093 8.5947224851505268 -1 0 0 I I #
point $-1 45.488448744163335 18.305464925454093 8.5947224851505251 #
straight-curve $-1 43.356860239940467 7.6256472732637608 8.5947224851505268 0 -1 0 I I #
point $-1 43.356860239940467 18.305464925454093 8.5947224851505268 #
point $-1 42.631321617008247 13.418792319171576 5.714486143461726 #
point $-1 42.631321617008247 15.251294546527522 5.714486143461726 #
point $-1 42.631321617008247 17.08379677388346 5.714486143461726 #
straight-curve $-1 -54.343156422627672 -6.0219900431222957 8.5947224851505268 1 0 0 I I #
point $-1 -45.488448744163335 -6.0219900431222957 8.5947224851505251 #
straight-curve $-1 -38.34247660342313 -0.87701825794880328 8.5947224851505251 0 1 0 I I #
point $-1 -38.342476603423137 -6.0219900431222957 8.5947224851505251 #
point $-1 -40.230109977986203 -4.3148086322324168 3.3990960998025708 #
point $-1 -40.230109977986203 -1.754036515897603 3.3990960998025708 #
point $-1 -40.230109977986203 0.80673560043721082 3.3990960998025708 #
point $-1 -45.488448744163335 27.588486644879236 -8.5947224851505251 #
straight-curve $-1 0 27.588486644879236 -8.5947224851505251 1 0 0 I I #
End-of-ACIS-data 