500 0 18 0           
7 Unknown 11 ACIS 5.0 NT 24 Thu Mar 25 19:32:17 1999 
-1 9.9999999999999995e-007 1e-010 
body $-1 $18 $-1 $19 #
body $-1 $20 $-1 $21 #
body $-1 $22 $-1 $23 #
body $-1 $24 $-1 $25 #
body $-1 $26 $-1 $27 #
body $-1 $28 $-1 $29 #
body $-1 $30 $-1 $31 #
body $-1 $32 $-1 $33 #
body $-1 $34 $-1 $35 #
body $-1 $36 $-1 $37 #
body $-1 $38 $-1 $39 #
body $-1 $40 $-1 $41 #
body $-1 $42 $-1 $43 #
body $-1 $44 $-1 $45 #
body $-1 $46 $-1 $47 #
body $-1 $48 $-1 $49 #
body $-1 $50 $-1 $51 #
body $-1 $52 $-1 $53 #
lump $-1 $-1 $54 $0 #
transform $-1 1 0 0 0 1 0 0 0 1 75.422223578600423 45.705172352930667 17.466637447366811 1 rotate no_reflect no_shear #
lump $-1 $-1 $55 $1 #
transform $-1 1 0 0 0 1 0 0 0 1 75.422223578600423 45.705172352930667 17.466637447366811 1 rotate no_reflect no_shear #
lump $-1 $-1 $56 $2 #
transform $-1 1 0 0 0 1 0 0 0 1 75.422223578600423 45.705172352930667 17.466637447366811 1 rotate no_reflect no_shear #
lump $-1 $-1 $57 $3 #
transform $-1 1 0 0 0 1 0 0 0 1 75.422223578600423 45.705172352930667 17.466637447366811 1 rotate no_reflect no_shear #
lump $-1 $-1 $58 $4 #
transform $-1 1 0 0 0 1 0 0 0 1 75.422223578600423 45.705172352930667 17.466637447366811 1 rotate no_reflect no_shear #
lump $-1 $-1 $59 $5 #
transform $-1 1 0 0 0 1 0 0 0 1 75.422223578600423 45.705172352930667 17.466637447366811 1 rotate no_reflect no_shear #
lump $-1 $-1 $60 $6 #
transform $-1 1 0 0 0 1 0 0 0 1 75.422223578600423 45.705172352930667 17.466637447366811 1 rotate no_reflect no_shear #
lump $-1 $-1 $61 $7 #
transform $-1 1 0 0 0 1 0 0 0 1 75.422223578600423 45.705172352930667 17.466637447366811 1 rotate no_reflect no_shear #
lump $-1 $-1 $62 $8 #
transform $-1 1 0 0 0 1 0 0 0 1 75.422223578600423 45.705172352930667 17.466637447366811 1 rotate no_reflect no_shear #
lump $-1 $-1 $63 $9 #
transform $-1 1 0 0 0 1 0 0 0 1 75.422223578600423 45.705172352930667 17.466637447366811 1 rotate no_reflect no_shear #
lump $-1 $-1 $64 $10 #
transform $-1 1 0 0 0 1 0 0 0 1 75.422223578600423 45.705172352930667 17.466637447366811 1 rotate no_reflect no_shear #
lump $-1 $-1 $65 $11 #
transform $-1 1 0 0 0 1 0 0 0 1 75.422223578600423 45.705172352930667 17.466637447366811 1 rotate no_reflect no_shear #
lump $-1 $-1 $66 $12 #
transform $-1 1 0 0 0 1 0 0 0 1 75.422223578600423 45.705172352930667 17.466637447366811 1 rotate no_reflect no_shear #
lump $-1 $-1 $67 $13 #
transform $-1 1 0 0 0 1 0 0 0 1 75.422223578600423 45.705172352930667 17.466637447366811 1 rotate no_reflect no_shear #
lump $-1 $-1 $68 $14 #
transform $-1 1 0 0 0 1 0 0 0 1 75.422223578600423 45.705172352930667 17.466637447366811 1 rotate no_reflect no_shear #
lump $-1 $-1 $69 $15 #
transform $-1 1 0 0 0 1 0 0 0 1 75.422223578600423 45.705172352930667 17.466637447366811 1 rotate no_reflect no_shear #
lump $-1 $-1 $70 $16 #
transform $-1 1 0 0 0 1 0 0 0 1 75.422223578600423 45.705172352930667 17.466637447366811 1 rotate no_reflect no_shear #
lump $-1 $-1 $71 $17 #
transform $-1 1 0 0 0 1 0 0 0 1 75.422223578600423 45.705172352930667 17.466637447366811 1 rotate no_reflect no_shear #
shell $-1 $-1 $-1 $72 $-1 $18 #
shell $-1 $-1 $-1 $73 $-1 $20 #
shell $-1 $-1 $-1 $74 $-1 $22 #
shell $-1 $-1 $-1 $75 $-1 $24 #
shell $-1 $-1 $-1 $76 $-1 $26 #
shell $-1 $-1 $-1 $77 $-1 $28 #
shell $-1 $-1 $-1 $78 $-1 $30 #
shell $-1 $-1 $-1 $79 $-1 $32 #
shell $-1 $-1 $-1 $80 $-1 $34 #
shell $-1 $-1 $-1 $81 $-1 $36 #
shell $-1 $-1 $-1 $82 $-1 $38 #
shell $-1 $-1 $-1 $83 $-1 $40 #
shell $-1 $-1 $-1 $84 $-1 $42 #
shell $-1 $-1 $-1 $85 $-1 $44 #
shell $-1 $-1 $-1 $86 $-1 $46 #
shell $-1 $-1 $-1 $87 $-1 $48 #
shell $-1 $-1 $-1 $88 $-1 $50 #
shell $-1 $-1 $-1 $89 $-1 $52 #
face $-1 $90 $91 $54 $-1 $92 forward single #
face $-1 $93 $94 $55 $-1 $95 forward single #
face $-1 $96 $97 $56 $-1 $98 reversed single #
face $-1 $99 $100 $57 $-1 $101 forward single #
face $-1 $102 $103 $58 $-1 $104 forward single #
face $-1 $105 $106 $59 $-1 $107 reversed single #
face $-1 $108 $109 $60 $-1 $110 forward single #
face $-1 $111 $112 $61 $-1 $113 forward single #
face $-1 $114 $115 $62 $-1 $116 reversed single #
face $-1 $117 $118 $63 $-1 $119 forward single #
face $-1 $120 $121 $64 $-1 $122 forward single #
face $-1 $123 $124 $65 $-1 $125 reversed single #
face $-1 $126 $127 $66 $-1 $128 forward single #
face $-1 $129 $130 $67 $-1 $131 forward single #
face $-1 $132 $133 $68 $-1 $134 reversed single #
face $-1 $135 $136 $69 $-1 $137 forward single #
face $-1 $138 $139 $70 $-1 $140 forward single #
face $-1 $141 $142 $71 $-1 $143 forward single #
face $-1 $144 $145 $54 $-1 $146 reversed single #
loop $-1 $-1 $147 $72 #
plane-surface $-1 0 0 17.466637447366811 0 0 1 1 0 0 forward_v I I I I #
face $-1 $148 $149 $55 $-1 $150 reversed single #
loop $-1 $-1 $151 $73 #
plane-surface $-1 0 -45.705172352930667 0 0 1 0 0 0 1 forward_v I I I I #
face $-1 $152 $153 $56 $-1 $154 reversed single #
loop $-1 $-1 $155 $74 #
plane-surface $-1 123.41019446322726 -15.082426101487181 219.41101850881108 0 -1 0 -0.84804810408105047 0 -0.52991925155115449 forward_v I I I I #
face $-1 $156 $157 $57 $-1 $158 forward single #
loop $-1 $159 $160 $75 #
cone-surface $-1 73.150353780739309 -20.677017704879823 14.244506371808409 -0.84804810408105047 0 -0.52991925155115449 0.13247981288778862 0 -0.21201202602026262 1 I I 0 1 0.25 forward I I I I #
face $-1 $161 $162 $58 $-1 $163 forward single #
loop $-1 $164 $165 $76 #
cone-surface $-1 73.150353780739309 -17.320262742844236 14.244506371808409 -0.84804810408105047 0 -0.52991925155115449 0.13247981288778862 0 -0.21201202602026262 1 I I 0 1 0.25 forward I I I I #
face $-1 $166 $167 $59 $-1 $168 reversed single #
loop $-1 $-1 $169 $77 #
plane-surface $-1 123.41019446322726 2.6874629286604712 219.41101850881108 0 -1 0 -0.84804810408105047 0 -0.52991925155115449 forward_v I I I I #
face $-1 $170 $171 $60 $-1 $172 forward single #
loop $-1 $173 $174 $78 #
cone-surface $-1 73.150353780739309 -2.9071286747321707 14.244506371808409 -0.84804810408105047 0 -0.52991925155115449 0.13247981288778862 0 -0.21201202602026262 1 I I 0 1 0.25 forward I I I I #
face $-1 $175 $176 $61 $-1 $177 forward single #
loop $-1 $178 $179 $79 #
cone-surface $-1 73.150353780739309 0.44962628730341692 14.244506371808409 -0.84804810408105047 0 -0.52991925155115449 0.13247981288778862 0 -0.21201202602026262 1 I I 0 1 0.25 forward I I I I #
face $-1 $180 $181 $62 $-1 $182 reversed single #
loop $-1 $-1 $183 $80 #
plane-surface $-1 123.41019446322726 20.457351958808125 219.41101850881108 0 -1 0 -0.84804810408105047 0 -0.52991925155115449 forward_v I I I I #
face $-1 $184 $185 $63 $-1 $186 forward single #
loop $-1 $187 $188 $81 #
cone-surface $-1 73.150353780739309 14.862760355415482 14.244506371808409 -0.84804810408105047 0 -0.52991925155115449 0.13247981288778862 0 -0.21201202602026262 1 I I 0 1 0.25 forward I I I I #
face $-1 $189 $190 $64 $-1 $191 forward single #
loop $-1 $192 $193 $82 #
cone-surface $-1 73.150353780739309 18.219515317451069 14.244506371808409 -0.84804810408105047 0 -0.52991925155115449 0.13247981288778862 0 -0.21201202602026262 1 I I 0 1 0.25 forward I I I I #
face $-1 $194 $195 $65 $-1 $196 reversed single #
loop $-1 $-1 $197 $83 #
plane-surface $-1 123.41019446322726 38.227240988955778 219.41101850881108 0 -1 0 -0.84804810408105047 0 -0.52991925155115449 forward_v I I I I #
face $-1 $198 $199 $66 $-1 $200 forward single #
loop $-1 $201 $202 $84 #
cone-surface $-1 73.150353780739309 32.632649385563134 14.244506371808409 -0.84804810408105047 0 -0.52991925155115449 0.13247981288778862 0 -0.21201202602026262 1 I I 0 1 0.25 forward I I I I #
face $-1 $203 $204 $67 $-1 $205 forward single #
loop $-1 $206 $207 $85 #
cone-surface $-1 73.150353780739309 35.989404347598715 14.244506371808409 -0.84804810408105047 0 -0.52991925155115449 0.13247981288778862 0 -0.21201202602026262 1 I I 0 1 0.25 forward I I I I #
face $-1 $208 $209 $68 $-1 $210 reversed single #
loop $-1 $-1 $211 $86 #
plane-surface $-1 -150.84444816766802 -16.49244551216141 132.86646474612743 0 1 0 -0.50000000669873634 0 0.8660253999169214 forward_v I I I I #
face $-1 $212 $213 $69 $-1 $214 forward single #
loop $-1 $215 $216 $87 #
cone-surface $-1 -61.421207361097018 -13.889311598900168 8.4514609935918177 0.50000000669873634 0 -0.8660253999169214 0.8660253999169214 0 0.50000000669873634 1 I I 0 1 1 forward I I I I #
face $-1 $217 $218 $70 $-1 $219 forward single #
loop $-1 $220 $221 $88 #
cone-surface $-1 -61.421207361097018 -9.9846107290083026 8.4514609935918177 0.50000000669873634 0 -0.8660253999169214 0.8660253999169214 0 0.50000000669873634 1 I I 0 1 1 forward I I I I #
face $-1 $222 $223 $71 $-1 $224 forward single #
loop $-1 $225 $226 $89 #
cone-surface $-1 -61.421207361097018 -6.0799098591164409 8.4514609935918177 0.50000000669873634 0 -0.8660253999169214 0.8660253999169214 0 0.50000000669873634 1 I I 0 1 1 forward I I I I #
face $-1 $227 $228 $54 $-1 $229 reversed single #
loop $-1 $-1 $230 $90 #
plane-surface $-1 0 0 -17.466637447366811 0 0 1 1 0 0 forward_v I I I I #
coedge $-1 $231 $232 $233 $234 forward $91 $-1 #
face $-1 $235 $236 $55 $-1 $237 reversed single #
loop $-1 $-1 $238 $93 #
plane-surface $-1 0 0 -17.466637447366811 0 0 1 1 0 0 forward_v I I I I #
coedge $-1 $239 $240 $241 $242 forward $94 $-1 #
face $-1 $243 $244 $56 $-1 $245 reversed single #
loop $-1 $-1 $246 $96 #
plane-surface $-1 -4.5131529595911246 -18.998640223862033 139.47564197061953 0.84804810408105047 0 0.52991925155115449 0.52991925155115449 0 -0.84804810408105047 forward_v I I I I #
coedge $-1 $247 $248 $249 $250 reversed $97 $-1 #
face $-1 $-1 $251 $57 $-1 $252 forward single #
loop $-1 $253 $254 $99 #
cone-surface $-1 72.620323715688656 -20.677017704879823 13.913306839588937 -0.84804810408105047 0 -0.52991925155115449 0.066239906443894311 0 -0.10600601301013131 1 I I -0.70710678118654746 0.70710678118654746 0.125 forward I I I I #
loop $-1 $-1 $255 $75 #
coedge $-1 $160 $160 $256 $257 reversed $100 $-1 #
face $-1 $-1 $258 $58 $-1 $259 forward single #
loop $-1 $260 $261 $102 #
cone-surface $-1 72.620323715688656 -17.320262742844236 13.913306839588937 -0.84804810408105047 0 -0.52991925155115449 0.066239906443894311 0 -0.10600601301013131 1 I I -0.70710678118654746 0.70710678118654746 0.125 forward I I I I #
loop $-1 $-1 $262 $76 #
coedge $-1 $165 $165 $263 $264 reversed $103 $-1 #
face $-1 $265 $266 $59 $-1 $267 reversed single #
loop $-1 $-1 $268 $105 #
plane-surface $-1 -4.5131529595911246 -1.2287511937143805 139.47564197061953 0.84804810408105047 0 0.52991925155115449 0.52991925155115449 0 -0.84804810408105047 forward_v I I I I #
coedge $-1 $269 $270 $271 $272 reversed $106 $-1 #
face $-1 $-1 $273 $60 $-1 $274 forward single #
loop $-1 $275 $276 $108 #
cone-surface $-1 72.620323715688656 -2.9071286747321707 13.913306839588937 -0.84804810408105047 0 -0.52991925155115449 0.066239906443894311 0 -0.10600601301013131 1 I I -0.70710678118654746 0.70710678118654746 0.125 forward I I I I #
loop $-1 $-1 $277 $78 #
coedge $-1 $174 $174 $278 $279 reversed $109 $-1 #
face $-1 $-1 $280 $61 $-1 $281 forward single #
loop $-1 $282 $283 $111 #
cone-surface $-1 72.620323715688656 0.44962628730341692 13.913306839588937 -0.84804810408105047 0 -0.52991925155115449 0.066239906443894311 0 -0.10600601301013131 1 I I -0.70710678118654746 0.70710678118654746 0.125 forward I I I I #
loop $-1 $-1 $284 $79 #
coedge $-1 $179 $179 $285 $286 reversed $112 $-1 #
face $-1 $287 $288 $62 $-1 $289 reversed single #
loop $-1 $-1 $290 $114 #
plane-surface $-1 -4.5131529595911246 16.541137836433272 139.47564197061953 0.84804810408105047 0 0.52991925155115449 0.52991925155115449 0 -0.84804810408105047 forward_v I I I I #
coedge $-1 $291 $292 $293 $294 reversed $115 $-1 #
face $-1 $-1 $295 $63 $-1 $296 forward single #
loop $-1 $297 $298 $117 #
cone-surface $-1 72.620323715688656 14.862760355415482 13.913306839588937 -0.84804810408105047 0 -0.52991925155115449 0.066239906443894311 0 -0.10600601301013131 1 I I -0.70710678118654746 0.70710678118654746 0.125 forward I I I I #
loop $-1 $-1 $299 $81 #
coedge $-1 $188 $188 $300 $301 reversed $118 $-1 #
face $-1 $-1 $302 $64 $-1 $303 forward single #
loop $-1 $304 $305 $120 #
cone-surface $-1 72.620323715688656 18.219515317451069 13.913306839588937 -0.84804810408105047 0 -0.52991925155115449 0.066239906443894311 0 -0.10600601301013131 1 I I -0.70710678118654746 0.70710678118654746 0.125 forward I I I I #
loop $-1 $-1 $306 $82 #
coedge $-1 $193 $193 $307 $308 reversed $121 $-1 #
face $-1 $309 $310 $65 $-1 $311 reversed single #
loop $-1 $-1 $312 $123 #
plane-surface $-1 -4.5131529595911246 34.311026866580924 139.47564197061953 0.84804810408105047 0 0.52991925155115449 0.52991925155115449 0 -0.84804810408105047 forward_v I I I I #
coedge $-1 $313 $314 $315 $316 reversed $124 $-1 #
face $-1 $-1 $317 $66 $-1 $318 forward single #
loop $-1 $319 $320 $126 #
cone-surface $-1 72.620323715688656 32.632649385563134 13.913306839588937 -0.84804810408105047 0 -0.52991925155115449 0.066239906443894311 0 -0.10600601301013131 1 I I -0.70710678118654746 0.70710678118654746 0.125 forward I I I I #
loop $-1 $-1 $321 $84 #
coedge $-1 $202 $202 $322 $323 reversed $127 $-1 #
face $-1 $-1 $324 $67 $-1 $325 forward single #
loop $-1 $326 $327 $129 #
cone-surface $-1 72.620323715688656 35.989404347598715 13.913306839588937 -0.84804810408105047 0 -0.52991925155115449 0.066239906443894311 0 -0.10600601301013131 1 I I -0.70710678118654746 0.70710678118654746 0.125 forward I I I I #
loop $-1 $-1 $328 $85 #
coedge $-1 $207 $207 $329 $330 reversed $130 $-1 #
face $-1 $331 $332 $68 $-1 $333 reversed single #
loop $-1 $-1 $334 $132 #
plane-surface $-1 -75.422223578600409 -9.9846107290083026 2.2313420715656491 -0.50000000669873634 0 0.8660253999169214 0.8660253999169214 0 0.50000000669873634 forward_v I I I I #
coedge $-1 $335 $336 $337 $338 reversed $133 $-1 #
face $-1 $-1 $339 $69 $-1 $340 forward single #
loop $-1 $341 $342 $135 #
cone-surface $-1 -60.364343734156563 -13.889311598900168 6.6209195277589394 0.50000000669873634 0 -0.8660253999169214 0.4330126999584607 0 0.25000000334936817 1 I I -0.70710678118654746 0.70710678118654746 0.5 forward I I I I #
loop $-1 $-1 $343 $87 #
coedge $-1 $216 $216 $344 $345 reversed $136 $-1 #
face $-1 $-1 $346 $70 $-1 $347 forward single #
loop $-1 $348 $349 $138 #
cone-surface $-1 -60.364343734156563 -9.9846107290083026 6.6209195277589394 0.50000000669873634 0 -0.8660253999169214 0.4330126999584607 0 0.25000000334936817 1 I I -0.70710678118654746 0.70710678118654746 0.5 forward I I I I #
loop $-1 $-1 $350 $88 #
coedge $-1 $221 $221 $351 $352 reversed $139 $-1 #
face $-1 $-1 $353 $71 $-1 $354 forward single #
loop $-1 $355 $356 $141 #
cone-surface $-1 -60.364343734156563 -6.0799098591164409 6.6209195277589394 0.50000000669873634 0 -0.8660253999169214 0.4330126999584607 0 0.25000000334936817 1 I I -0.70710678118654746 0.70710678118654746 0.5 forward I I I I #
loop $-1 $-1 $357 $89 #
coedge $-1 $226 $226 $358 $359 reversed $142 $-1 #
face $-1 $360 $361 $54 $-1 $362 reversed single #
loop $-1 $-1 $363 $144 #
plane-surface $-1 0 -45.705172352930667 0 0 1 0 0 0 1 forward_v I I I I #
coedge $-1 $364 $365 $366 $367 forward $145 $-1 #
coedge $-1 $368 $147 $369 $370 forward $91 $-1 #
coedge $-1 $147 $368 $371 $372 forward $91 $-1 #
coedge $-1 $373 $374 $147 $234 reversed $375 $-1 #
edge $-1 $376 -45.705172352930667 $377 45.705172352930667 $233 $378 forward 7 unknown #
face $-1 $379 $380 $55 $-1 $381 reversed single #
loop $-1 $-1 $382 $148 #
plane-surface $-1 -44.66304165947048 -66.035960938201399 0 0 1 0 0 0 1 forward_v I I I I #
coedge $-1 $383 $384 $240 $385 forward $149 $-1 #
coedge $-1 $386 $151 $387 $388 reversed $94 $-1 #
coedge $-1 $151 $386 $238 $385 reversed $94 $-1 #
coedge $-1 $389 $390 $151 $242 reversed $380 $-1 #
edge $-1 $391 -17.466637447366811 $392 17.466637447366811 $241 $393 forward 7 unknown #
face $-1 $394 $395 $56 $-1 $396 forward single #
loop $-1 $-1 $397 $152 #
plane-surface $-1 123.41019446322726 -22.914854346236886 219.41101850881108 0 1 0 0.84804810408105047 0 0.52991925155115449 forward_v I I I I #
coedge $-1 $398 $399 $400 $401 reversed $153 $-1 #
coedge $-1 $248 $155 $402 $403 reversed $97 $-1 #
coedge $-1 $155 $247 $398 $404 reversed $97 $-1 #
coedge $-1 $400 $405 $155 $250 forward $395 $-1 #
edge $-1 $406 -13.717126346986795 $407 -10.021434855345682 $249 $408 forward 7 unknown #
loop $-1 $-1 $256 $156 #
plane-surface $-1 -4.5131529595911246 -18.998640223862033 139.47564197061953 0.84804810408105047 0 0.52991925155115449 0.52991925155115449 0 -0.84804810408105047 forward_v I I I I #
loop $-1 $-1 $409 $99 #
coedge $-1 $254 $254 $255 $410 reversed $157 $-1 #
coedge $-1 $255 $255 $254 $410 forward $159 $-1 #
coedge $-1 $256 $256 $160 $257 forward $251 $-1 #
edge $-1 $411 0 $411 6.2831853071796004 $256 $412 forward 7 unknown #
loop $-1 $-1 $263 $161 #
plane-surface $-1 -4.5131529595911246 -18.998640223862033 139.47564197061953 0.84804810408105047 0 0.52991925155115449 0.52991925155115449 0 -0.84804810408105047 forward_v I I I I #
loop $-1 $-1 $413 $102 #
coedge $-1 $261 $261 $262 $414 reversed $162 $-1 #
coedge $-1 $262 $262 $261 $414 forward $164 $-1 #
coedge $-1 $263 $263 $165 $264 forward $258 $-1 #
edge $-1 $415 0 $415 6.2831853071796004 $263 $416 forward 7 unknown #
face $-1 $417 $418 $59 $-1 $419 reversed single #
loop $-1 $-1 $420 $166 #
plane-surface $-1 123.41019446322726 -5.1449653160892321 219.41101850881108 0 1 0 0.84804810408105047 0 0.52991925155115449 forward_v I I I I #
coedge $-1 $421 $422 $423 $424 reversed $167 $-1 #
coedge $-1 $270 $169 $425 $426 reversed $106 $-1 #
coedge $-1 $169 $269 $421 $427 reversed $106 $-1 #
coedge $-1 $423 $428 $169 $272 forward $429 $-1 #
edge $-1 $430 -13.717126346986795 $431 -10.021434855345682 $271 $432 forward 7 unknown #
loop $-1 $-1 $278 $170 #
plane-surface $-1 -4.5131529595911246 -1.2287511937143805 139.47564197061953 0.84804810408105047 0 0.52991925155115449 0.52991925155115449 0 -0.84804810408105047 forward_v I I I I #
loop $-1 $-1 $433 $108 #
coedge $-1 $276 $276 $277 $434 reversed $171 $-1 #
coedge $-1 $277 $277 $276 $434 forward $173 $-1 #
coedge $-1 $278 $278 $174 $279 forward $273 $-1 #
edge $-1 $435 0 $435 6.2831853071796004 $278 $436 forward 7 unknown #
loop $-1 $-1 $285 $175 #
plane-surface $-1 -4.5131529595911246 -1.2287511937143805 139.47564197061953 0.84804810408105047 0 0.52991925155115449 0.52991925155115449 0 -0.84804810408105047 forward_v I I I I #
loop $-1 $-1 $437 $111 #
coedge $-1 $283 $283 $284 $438 reversed $176 $-1 #
coedge $-1 $284 $284 $283 $438 forward $178 $-1 #
coedge $-1 $285 $285 $179 $286 forward $280 $-1 #
edge $-1 $439 0 $439 6.2831853071796004 $285 $440 forward 7 unknown #
face $-1 $441 $442 $62 $-1 $443 reversed single #
loop $-1 $-1 $444 $180 #
plane-surface $-1 123.41019446322726 12.62492371405842 219.41101850881108 0 1 0 0.84804810408105047 0 0.52991925155115449 forward_v I I I I #
coedge $-1 $445 $446 $447 $448 reversed $181 $-1 #
coedge $-1 $292 $183 $449 $450 reversed $115 $-1 #
coedge $-1 $183 $291 $445 $451 reversed $115 $-1 #
coedge $-1 $447 $452 $183 $294 forward $453 $-1 #
edge $-1 $454 -13.717126346986795 $455 -10.021434855345682 $293 $456 forward 7 unknown #
loop $-1 $-1 $300 $184 #
plane-surface $-1 -4.5131529595911246 16.541137836433272 139.47564197061953 0.84804810408105047 0 0.52991925155115449 0.52991925155115449 0 -0.84804810408105047 forward_v I I I I #
loop $-1 $-1 $457 $117 #
coedge $-1 $298 $298 $299 $458 reversed $185 $-1 #
coedge $-1 $299 $299 $298 $458 forward $187 $-1 #
coedge $-1 $300 $300 $188 $301 forward $295 $-1 #
edge $-1 $459 0 $459 6.2831853071796004 $300 $460 forward 7 unknown #
loop $-1 $-1 $307 $189 #
plane-surface $-1 -4.5131529595911246 16.541137836433272 139.47564197061953 0.84804810408105047 0 0.52991925155115449 0.52991925155115449 0 -0.84804810408105047 forward_v I I I I #
loop $-1 $-1 $461 $120 #
coedge $-1 $305 $305 $306 $462 reversed $190 $-1 #
coedge $-1 $306 $306 $305 $462 forward $192 $-1 #
coedge $-1 $307 $307 $193 $308 forward $302 $-1 #
edge $-1 $463 0 $463 6.2831853071796004 $307 $464 forward 7 unknown #
face $-1 $465 $466 $65 $-1 $467 reversed single #
loop $-1 $-1 $468 $194 #
plane-surface $-1 123.41019446322726 30.394812744206071 219.41101850881108 0 1 0 0.84804810408105047 0 0.52991925155115449 forward_v I I I I #
coedge $-1 $469 $470 $471 $472 reversed $195 $-1 #
coedge $-1 $314 $197 $473 $474 reversed $124 $-1 #
coedge $-1 $197 $313 $469 $475 reversed $124 $-1 #
coedge $-1 $471 $476 $197 $316 forward $477 $-1 #
edge $-1 $478 -13.717126346986795 $479 -10.021434855345682 $315 $480 forward 7 unknown #
loop $-1 $-1 $322 $198 #
plane-surface $-1 -4.5131529595911246 34.311026866580924 139.47564197061953 0.84804810408105047 0 0.52991925155115449 0.52991925155115449 0 -0.84804810408105047 forward_v I I I I #
loop $-1 $-1 $481 $126 #
coedge $-1 $320 $320 $321 $482 reversed $199 $-1 #
coedge $-1 $321 $321 $320 $482 forward $201 $-1 #
coedge $-1 $322 $322 $202 $323 forward $317 $-1 #
edge $-1 $483 0 $483 6.2831853071796004 $322 $484 forward 7 unknown #
loop $-1 $-1 $329 $203 #
plane-surface $-1 -4.5131529595911246 34.311026866580924 139.47564197061953 0.84804810408105047 0 0.52991925155115449 0.52991925155115449 0 -0.84804810408105047 forward_v I I I I #
loop $-1 $-1 $485 $129 #
coedge $-1 $327 $327 $328 $486 reversed $204 $-1 #
coedge $-1 $328 $328 $327 $486 forward $206 $-1 #
coedge $-1 $329 $329 $207 $330 forward $324 $-1 #
edge $-1 $487 0 $487 6.2831853071796004 $329 $488 forward 7 unknown #
face $-1 $489 $490 $68 $-1 $491 reversed single #
loop $-1 $-1 $492 $208 #
plane-surface $-1 -150.84444816766802 -3.476775945855195 132.86646474612743 0 -1 0 0.50000000669873634 0 -0.8660253999169214 forward_v I I I I #
coedge $-1 $493 $494 $495 $496 reversed $209 $-1 #
coedge $-1 $336 $211 $497 $498 reversed $133 $-1 #
coedge $-1 $211 $335 $493 $499 reversed $133 $-1 #
coedge $-1 $495 $500 $211 $338 forward $501 $-1 #
edge $-1 $502 5.0523358652299066e-007 $503 26.38830569305825 $337 $504 forward 7 unknown #
loop $-1 $-1 $344 $212 #
plane-surface $-1 -75.422223578600409 -9.9846107290083026 2.2313420715656491 -0.50000000669873634 0 0.8660253999169214 0.8660253999169214 0 0.50000000669873634 forward_v I I I I #
loop $-1 $-1 $505 $135 #
coedge $-1 $342 $342 $343 $506 reversed $213 $-1 #
coedge $-1 $343 $343 $342 $506 forward $215 $-1 #
coedge $-1 $344 $344 $216 $345 forward $339 $-1 #
edge $-1 $507 0 $507 6.2831853071796004 $344 $508 forward 7 unknown #
loop $-1 $-1 $351 $217 #
plane-surface $-1 -75.422223578600409 -9.9846107290083026 2.2313420715656491 -0.50000000669873634 0 0.8660253999169214 0.8660253999169214 0 0.50000000669873634 forward_v I I I I #
loop $-1 $-1 $509 $138 #
coedge $-1 $349 $349 $350 $510 reversed $218 $-1 #
coedge $-1 $350 $350 $349 $510 forward $220 $-1 #
coedge $-1 $351 $351 $221 $352 forward $346 $-1 #
edge $-1 $511 0 $511 6.2831853071796004 $351 $512 forward 7 unknown #
loop $-1 $-1 $358 $222 #
plane-surface $-1 -75.422223578600409 -9.9846107290083026 2.2313420715656491 -0.50000000669873634 0 0.8660253999169214 0.8660253999169214 0 0.50000000669873634 forward_v I I I I #
loop $-1 $-1 $513 $141 #
coedge $-1 $356 $356 $357 $514 reversed $223 $-1 #
coedge $-1 $357 $357 $356 $514 forward $225 $-1 #
coedge $-1 $358 $358 $226 $359 forward $353 $-1 #
edge $-1 $515 0 $515 6.2831853071796004 $358 $516 forward 7 unknown #
face $-1 $517 $518 $54 $-1 $519 reversed single #
loop $-1 $-1 $520 $227 #
plane-surface $-1 -75.422223578600423 0 0 1 0 0 0 0 -1 forward_v I I I I #
coedge $-1 $521 $371 $522 $523 forward $228 $-1 #
coedge $-1 $524 $230 $521 $525 forward $145 $-1 #
coedge $-1 $230 $524 $526 $527 forward $145 $-1 #
coedge $-1 $374 $373 $230 $367 reversed $375 $-1 #
edge $-1 $528 -45.705172352930667 $529 45.705172352930667 $366 $530 forward 7 unknown #
coedge $-1 $232 $231 $531 $532 forward $91 $-1 #
coedge $-1 $533 $534 $231 $370 reversed $518 $-1 #
edge $-1 $377 -75.422223578600423 $535 75.422223578600423 $369 $536 forward 7 unknown #
coedge $-1 $363 $537 $232 $372 reversed $228 $-1 #
edge $-1 $538 -75.422223578600423 $376 75.422223578600423 $371 $539 forward 7 unknown #
coedge $-1 $366 $233 $537 $540 forward $375 $-1 #
coedge $-1 $233 $366 $533 $541 reversed $375 $-1 #
loop $-1 $-1 $373 $517 #
vertex $-1 $234 $542 #
vertex $-1 $234 $543 #
straight-curve $-1 75.422223578600423 0 17.466637447366811 0 1 0 I I #
face $-1 $544 $545 $55 $-1 $546 reversed single #
loop $-1 $-1 $241 $235 #
plane-surface $-1 -48.837134635074165 -55.870566645566029 0 1 0 0 0 0 -1 forward_v I I I I #
coedge $-1 $547 $548 $549 $550 forward $236 $-1 #
coedge $-1 $551 $238 $552 $553 forward $149 $-1 #
coedge $-1 $238 $551 $389 $554 forward $149 $-1 #
edge $-1 $391 -48.837134635074165 $555 -40.488948683866795 $238 $556 forward 7 unknown #
coedge $-1 $240 $239 $557 $558 forward $94 $-1 #
coedge $-1 $559 $560 $239 $388 forward $561 $-1 #
edge $-1 $562 40.488948683866795 $392 48.837134635074165 $387 $563 forward 7 unknown #
coedge $-1 $549 $241 $384 $554 reversed $380 $-1 #
coedge $-1 $241 $549 $559 $564 reversed $380 $-1 #
vertex $-1 $385 $565 #
vertex $-1 $564 $566 #
straight-curve $-1 -48.837134635074165 -45.705172352930667 0 0 0 1 I I #
face $-1 $-1 $567 $56 $-1 $568 reversed single #
loop $-1 $-1 $249 $243 #
plane-surface $-1 0 0 17.466637447366811 0 0 1 1 0 0 forward_v I I I I #
coedge $-1 $569 $570 $571 $572 reversed $244 $-1 #
coedge $-1 $573 $246 $248 $404 forward $153 $-1 #
coedge $-1 $246 $573 $569 $574 forward $153 $-1 #
coedge $-1 $571 $249 $246 $401 forward $395 $-1 #
edge $-1 $407 5.5831059895561648 $575 13.41553423430587 $400 $576 forward 7 unknown #
coedge $-1 $577 $578 $247 $403 forward $567 $-1 #
edge $-1 $579 -98.153214706604388 $406 -92.238871807038734 $402 $580 forward 7 unknown #
edge $-1 $407 143.87038180512454 $579 150.84444715720085 $248 $581 forward 7 unknown #
coedge $-1 $249 $571 $577 $582 forward $395 $-1 #
vertex $-1 $250 $583 #
vertex $-1 $250 $584 #
straight-curve $-1 61.705097231613628 -15.082426101487181 17.466637447366807 -1 0 0 I I #
coedge $-1 $409 $409 $-1 $585 reversed $253 $-1 #
edge $-1 $586 0 $586 6.2831853071796004 $254 $587 forward 7 unknown #
vertex $-1 $257 $588 #
ellipse-curve $-1 73.574377832779845 -20.677017704879823 14.509465997583995 0.84804810408105047 0 0.52991925155115449 0.13247981288778862 0 -0.21201202602026262 1 I I #
coedge $-1 $413 $413 $-1 $589 reversed $260 $-1 #
edge $-1 $590 0 $590 6.2831853071796004 $261 $591 forward 7 unknown #
vertex $-1 $264 $592 #
ellipse-curve $-1 73.574377832779845 -17.320262742844236 14.509465997583995 0.84804810408105047 0 0.52991925155115449 0.13247981288778862 0 -0.21201202602026262 1 I I #
face $-1 $-1 $429 $59 $-1 $593 forward single #
loop $-1 $-1 $594 $265 #
plane-surface $-1 75.422223578600423 0 0 -1 0 0 0 0 1 forward_v I I I I #
coedge $-1 $595 $596 $597 $598 reversed $266 $-1 #
coedge $-1 $599 $268 $270 $427 forward $167 $-1 #
coedge $-1 $268 $599 $595 $600 forward $167 $-1 #
coedge $-1 $597 $271 $268 $424 forward $429 $-1 #
edge $-1 $431 -3.3018385255176614 $601 4.5305897192320419 $423 $602 forward 7 unknown #
coedge $-1 $603 $604 $269 $426 forward $418 $-1 #
edge $-1 $605 -98.153214706604388 $430 -92.238871807038734 $425 $606 forward 7 unknown #
edge $-1 $431 143.87038180512454 $605 150.84444715720085 $270 $607 forward 7 unknown #
coedge $-1 $271 $597 $603 $608 forward $429 $-1 #
loop $-1 $-1 $597 $417 #
vertex $-1 $426 $609 #
vertex $-1 $272 $610 #
straight-curve $-1 61.705097231613628 2.6874629286604712 17.466637447366807 -1 0 0 I I #
coedge $-1 $433 $433 $-1 $611 reversed $275 $-1 #
edge $-1 $612 0 $612 6.2831853071796004 $276 $613 forward 7 unknown #
vertex $-1 $279 $614 #
ellipse-curve $-1 73.574377832779845 -2.9071286747321707 14.509465997583995 0.84804810408105047 0 0.52991925155115449 0.13247981288778862 0 -0.21201202602026262 1 I I #
coedge $-1 $437 $437 $-1 $615 reversed $282 $-1 #
edge $-1 $616 0 $616 6.2831853071796004 $283 $617 forward 7 unknown #
vertex $-1 $286 $618 #
ellipse-curve $-1 73.574377832779845 0.44962628730341692 14.509465997583995 0.84804810408105047 0 0.52991925155115449 0.13247981288778862 0 -0.21201202602026262 1 I I #
face $-1 $-1 $453 $62 $-1 $619 forward single #
loop $-1 $-1 $620 $287 #
plane-surface $-1 75.422223578600423 0 0 -1 0 0 0 0 1 forward_v I I I I #
coedge $-1 $621 $622 $623 $624 reversed $288 $-1 #
coedge $-1 $625 $290 $292 $451 forward $181 $-1 #
coedge $-1 $290 $625 $621 $626 forward $181 $-1 #
coedge $-1 $623 $293 $290 $448 forward $453 $-1 #
edge $-1 $455 -12.186783040591489 $627 -4.3543547958417843 $447 $628 forward 7 unknown #
coedge $-1 $629 $630 $291 $450 forward $442 $-1 #
edge $-1 $631 -98.153214706604388 $454 -92.238871807038734 $449 $632 forward 7 unknown #
edge $-1 $455 143.87038180512454 $631 150.84444715720085 $292 $633 forward 7 unknown #
coedge $-1 $293 $623 $629 $634 forward $453 $-1 #
loop $-1 $-1 $623 $441 #
vertex $-1 $450 $635 #
vertex $-1 $294 $636 #
straight-curve $-1 61.705097231613628 20.457351958808125 17.466637447366807 -1 0 0 I I #
coedge $-1 $457 $457 $-1 $637 reversed $297 $-1 #
edge $-1 $638 0 $638 6.2831853071796004 $298 $639 forward 7 unknown #
vertex $-1 $301 $640 #
ellipse-curve $-1 73.574377832779845 14.862760355415482 14.509465997583995 0.84804810408105047 0 0.52991925155115449 0.13247981288778862 0 -0.21201202602026262 1 I I #
coedge $-1 $461 $461 $-1 $641 reversed $304 $-1 #
edge $-1 $642 0 $642 6.2831853071796004 $305 $643 forward 7 unknown #
vertex $-1 $308 $644 #
ellipse-curve $-1 73.574377832779845 18.219515317451069 14.509465997583995 0.84804810408105047 0 0.52991925155115449 0.13247981288778862 0 -0.21201202602026262 1 I I #
face $-1 $-1 $477 $65 $-1 $645 forward single #
loop $-1 $-1 $646 $309 #
plane-surface $-1 75.422223578600423 0 0 -1 0 0 0 0 1 forward_v I I I I #
coedge $-1 $647 $648 $649 $650 reversed $310 $-1 #
coedge $-1 $651 $312 $314 $475 forward $195 $-1 #
coedge $-1 $312 $651 $647 $652 forward $195 $-1 #
coedge $-1 $649 $315 $312 $472 forward $477 $-1 #
edge $-1 $479 -21.071727555665316 $653 -13.239299310915609 $471 $654 forward 7 unknown #
coedge $-1 $655 $656 $313 $474 forward $466 $-1 #
edge $-1 $657 -98.153214706604388 $478 -92.238871807038734 $473 $658 forward 7 unknown #
edge $-1 $479 143.87038180512454 $657 150.84444715720085 $314 $659 forward 7 unknown #
coedge $-1 $315 $649 $655 $660 forward $477 $-1 #
loop $-1 $-1 $649 $465 #
vertex $-1 $474 $661 #
vertex $-1 $316 $662 #
straight-curve $-1 61.705097231613628 38.227240988955778 17.466637447366807 -1 0 0 I I #
coedge $-1 $481 $481 $-1 $663 reversed $319 $-1 #
edge $-1 $664 0 $664 6.2831853071796004 $320 $665 forward 7 unknown #
vertex $-1 $323 $666 #
ellipse-curve $-1 73.574377832779845 32.632649385563134 14.509465997583995 0.84804810408105047 0 0.52991925155115449 0.13247981288778862 0 -0.21201202602026262 1 I I #
coedge $-1 $485 $485 $-1 $667 reversed $326 $-1 #
edge $-1 $668 0 $668 6.2831853071796004 $327 $669 forward 7 unknown #
vertex $-1 $330 $670 #
ellipse-curve $-1 73.574377832779845 35.989404347598715 14.509465997583995 0.84804810408105047 0 0.52991925155115449 0.13247981288778862 0 -0.21201202602026262 1 I I #
face $-1 $-1 $501 $68 $-1 $671 forward single #
loop $-1 $-1 $672 $331 #
plane-surface $-1 -75.422223578600423 0 0 1 0 0 0 0 -1 forward_v I I I I #
coedge $-1 $673 $674 $675 $676 reversed $332 $-1 #
coedge $-1 $677 $334 $336 $499 forward $209 $-1 #
coedge $-1 $334 $677 $673 $678 forward $209 $-1 #
coedge $-1 $675 $337 $334 $496 forward $501 $-1 #
edge $-1 $503 -11.500140147657259 $679 1.5155294186489563 $495 $680 forward 7 unknown #
coedge $-1 $681 $682 $335 $498 forward $490 $-1 #
edge $-1 $683 -64.201890301498082 $502 -48.96659492569691 $497 $684 forward 7 unknown #
edge $-1 $503 -30.47059034337342 $683 1.6303764080091705e-014 $336 $685 forward 7 unknown #
coedge $-1 $337 $675 $681 $686 forward $501 $-1 #
loop $-1 $-1 $675 $489 #
vertex $-1 $498 $687 #
vertex $-1 $338 $688 #
straight-curve $-1 -75.42222408383401 -16.49244551216141 17.466637447366807 1 0 0 I I #
coedge $-1 $505 $505 $-1 $689 reversed $341 $-1 #
edge $-1 $690 0 $690 6.2831853071796004 $342 $691 forward 7 unknown #
vertex $-1 $345 $692 #
ellipse-curve $-1 -62.228070984688095 -13.889311598900168 9.8489897594662228 -0.50000000669873634 0 0.8660253999169214 0.8660253999169214 0 0.50000000669873634 1 I I #
coedge $-1 $509 $509 $-1 $693 reversed $348 $-1 #
edge $-1 $694 0 $694 6.2831853071796004 $349 $695 forward 7 unknown #
vertex $-1 $352 $696 #
ellipse-curve $-1 -62.228070984688095 -9.9846107290083026 9.8489897594662228 -0.50000000669873634 0 0.8660253999169214 0.8660253999169214 0 0.50000000669873634 1 I I #
coedge $-1 $513 $513 $-1 $697 reversed $355 $-1 #
edge $-1 $698 0 $698 6.2831853071796004 $356 $699 forward 7 unknown #
vertex $-1 $359 $700 #
ellipse-curve $-1 -62.228070984688095 -6.0799098591164409 9.8489897594662228 -0.50000000669873634 0 0.8660253999169214 0.8660253999169214 0 0.50000000669873634 1 I I #
face $-1 $-1 $375 $54 $-1 $701 reversed single #
loop $-1 $-1 $533 $360 #
plane-surface $-1 0 45.705172352930667 0 0 -1 0 0 0 -1 forward_v I I I I #
coedge $-1 $702 $531 $534 $703 forward $361 $-1 #
coedge $-1 $537 $363 $364 $525 reversed $228 $-1 #
coedge $-1 $531 $702 $363 $523 reversed $361 $-1 #
edge $-1 $538 -17.466637447366811 $704 17.466637447366811 $522 $705 forward 7 unknown #
coedge $-1 $365 $364 $702 $706 forward $145 $-1 #
edge $-1 $529 -75.422223578600423 $704 75.422223578600423 $521 $707 forward 7 unknown #
coedge $-1 $534 $533 $365 $527 reversed $518 $-1 #
edge $-1 $708 -75.422223578600423 $528 75.422223578600423 $526 $709 forward 7 unknown #
vertex $-1 $367 $710 #
vertex $-1 $540 $711 #
straight-curve $-1 75.422223578600423 0 -17.466637447366811 0 -1 0 I I #
coedge $-1 $520 $522 $368 $532 reversed $361 $-1 #
edge $-1 $535 -45.705172352930667 $538 45.705172352930667 $531 $712 forward 7 unknown #
coedge $-1 $526 $369 $374 $541 forward $518 $-1 #
coedge $-1 $369 $526 $520 $703 reversed $518 $-1 #
vertex $-1 $370 $713 #
straight-curve $-1 0 45.705172352930667 17.466637447366811 -1 0 0 I I #
coedge $-1 $371 $521 $373 $540 reversed $228 $-1 #
vertex $-1 $532 $714 #
straight-curve $-1 0 -45.705172352930667 17.466637447366811 1 0 0 I I #
edge $-1 $376 -17.466637447366811 $529 17.466637447366811 $373 $715 forward 7 unknown #
edge $-1 $377 -17.466637447366811 $528 17.466637447366811 $374 $716 forward 7 unknown #
point $-1 75.422223578600423 -45.705172352930667 17.466637447366811 #
point $-1 75.422223578600423 45.705172352930667 17.466637447366811 #
face $-1 $-1 $561 $55 $-1 $717 forward single #
loop $-1 $-1 $718 $379 #
plane-surface $-1 -40.488948683866795 -55.870566645566029 0 -1 0 0 0 0 1 forward_v I I I I #
coedge $-1 $719 $382 $551 $720 reversed $236 $-1 #
coedge $-1 $382 $719 $721 $722 reversed $236 $-1 #
coedge $-1 $390 $389 $382 $550 reversed $380 $-1 #
edge $-1 $723 -17.466637447366811 $724 17.466637447366811 $549 $725 forward 7 unknown #
coedge $-1 $384 $383 $547 $720 forward $149 $-1 #
coedge $-1 $557 $718 $383 $553 reversed $545 $-1 #
edge $-1 $555 -10.165394292635369 $726 10.165394292635369 $552 $727 forward 7 unknown #
edge $-1 $724 -10.165394292635369 $391 10.165394292635369 $389 $728 forward 7 unknown #
vertex $-1 $553 $729 #
straight-curve $-1 0 -45.705172352930667 -17.466637447366811 1 0 0 I I #
coedge $-1 $730 $552 $386 $558 reversed $545 $-1 #
edge $-1 $562 -17.466637447366811 $555 17.466637447366811 $557 $731 forward 7 unknown #
coedge $-1 $721 $387 $390 $564 forward $561 $-1 #
coedge $-1 $387 $721 $730 $732 forward $561 $-1 #
loop $-1 $-1 $387 $544 #
vertex $-1 $388 $733 #
straight-curve $-1 0 -45.705172352930667 17.466637447366811 -1 0 0 I I #
edge $-1 $392 -10.165394292635369 $723 10.165394292635369 $390 $734 forward 7 unknown #
point $-1 -48.837134635074165 -45.70517235293066 -17.466637447366811 #
point $-1 -48.837134635074165 -45.70517235293066 17.466637447366811 #
loop $-1 $-1 $402 $394 #
plane-surface $-1 75.422223578600423 0 0 -1 0 0 0 0 1 forward_v I I I I #
coedge $-1 $570 $397 $399 $574 reversed $244 $-1 #
coedge $-1 $397 $569 $735 $736 reversed $244 $-1 #
coedge $-1 $405 $400 $397 $572 forward $395 $-1 #
edge $-1 $575 10.021434855345682 $737 13.717126346986795 $571 $738 forward 7 unknown #
coedge $-1 $399 $398 $578 $739 reversed $153 $-1 #
edge $-1 $740 -150.84444715720085 $575 -143.87038180512454 $569 $741 forward 7 unknown #
vertex $-1 $401 $742 #
straight-curve $-1 71.72653208695931 -9.4993201119310164 17.466637447366807 0 -1 0 I I #
coedge $-1 $735 $402 $405 $582 reversed $567 $-1 #
coedge $-1 $402 $735 $573 $739 forward $567 $-1 #
vertex $-1 $403 $743 #
straight-curve $-1 75.422223578600423 -15.082426101487181 109.70550925440554 0 0 1 I I #
straight-curve $-1 -4.5131529595911246 -15.082426101487181 139.47564197061953 0.52991925155115449 0 -0.84804810408105047 I I #
edge $-1 $737 -22.914854346236886 $406 -15.082426101487181 $577 $744 forward 7 unknown #
point $-1 75.422223578600423 -15.082426101487181 17.466637447366811 #
point $-1 71.72653208695931 -15.082426101487181 17.466637447366807 #
edge $-1 $745 1 $745 0 $409 $-1 forward 7 unknown #
vertex $-1 $410 $746 #
ellipse-curve $-1 72.726329728698786 -20.677017704879823 13.979546746032831 0.84804810408105047 0 0.52991925155115449 0.13247981288778862 0 -0.21201202602026262 1 I I #
point $-1 73.706857645667625 -20.677017704879823 14.297453971563723 #
edge $-1 $747 1 $747 0 $413 $-1 forward 7 unknown #
vertex $-1 $414 $748 #
ellipse-curve $-1 72.726329728698786 -17.320262742844236 13.979546746032831 0.84804810408105047 0 0.52991925155115449 0.13247981288778862 0 -0.21201202602026262 1 I I #
point $-1 73.706857645667625 -17.320262742844236 14.297453971563723 #
plane-surface $-1 0 0 17.466637447366811 0 0 1 1 0 0 forward_v I I I I #
coedge $-1 $604 $603 $596 $749 forward $418 $-1 #
coedge $-1 $596 $420 $422 $600 reversed $266 $-1 #
coedge $-1 $420 $595 $594 $749 reversed $266 $-1 #
coedge $-1 $428 $423 $420 $598 forward $429 $-1 #
edge $-1 $601 10.021434855345682 $750 13.717126346986795 $597 $751 forward 7 unknown #
coedge $-1 $422 $421 $604 $752 reversed $167 $-1 #
edge $-1 $753 -150.84444715720085 $601 -143.87038180512454 $595 $754 forward 7 unknown #
vertex $-1 $424 $755 #
straight-curve $-1 71.72653208695931 -0.61437559685719023 17.466637447366807 0 -1 0 I I #
coedge $-1 $594 $425 $428 $608 reversed $418 $-1 #
coedge $-1 $425 $594 $599 $752 forward $418 $-1 #
vertex $-1 $426 $756 #
straight-curve $-1 75.422223578600423 2.6874629286604712 109.70550925440554 0 0 1 I I #
straight-curve $-1 -4.5131529595911246 2.6874629286604712 139.47564197061953 0.52991925155115449 0 -0.84804810408105047 I I #
edge $-1 $750 -5.1449653160892321 $430 2.6874629286604712 $603 $757 forward 7 unknown #
point $-1 75.422223578600423 2.6874629286604712 17.466637447366811 #
point $-1 71.72653208695931 2.6874629286604712 17.466637447366807 #
edge $-1 $758 1 $758 0 $433 $-1 forward 7 unknown #
vertex $-1 $434 $759 #
ellipse-curve $-1 72.726329728698786 -2.9071286747321707 13.979546746032831 0.84804810408105047 0 0.52991925155115449 0.13247981288778862 0 -0.21201202602026262 1 I I #
point $-1 73.706857645667625 -2.9071286747321707 14.297453971563723 #
edge $-1 $760 1 $760 0 $437 $-1 forward 7 unknown #
vertex $-1 $438 $761 #
ellipse-curve $-1 72.726329728698786 0.44962628730341692 13.979546746032831 0.84804810408105047 0 0.52991925155115449 0.13247981288778862 0 -0.21201202602026262 1 I I #
point $-1 73.706857645667625 0.44962628730341692 14.297453971563723 #
plane-surface $-1 0 0 17.466637447366811 0 0 1 1 0 0 forward_v I I I I #
coedge $-1 $630 $629 $622 $762 forward $442 $-1 #
coedge $-1 $622 $444 $446 $626 reversed $288 $-1 #
coedge $-1 $444 $621 $620 $762 reversed $288 $-1 #
coedge $-1 $452 $447 $444 $624 forward $453 $-1 #
edge $-1 $627 10.021434855345682 $763 13.717126346986795 $623 $764 forward 7 unknown #
coedge $-1 $446 $445 $630 $765 reversed $181 $-1 #
edge $-1 $766 -150.84444715720085 $627 -143.87038180512454 $621 $767 forward 7 unknown #
vertex $-1 $448 $768 #
straight-curve $-1 71.72653208695931 8.270568918216636 17.466637447366807 0 -1 0 I I #
coedge $-1 $620 $449 $452 $634 reversed $442 $-1 #
coedge $-1 $449 $620 $625 $765 forward $442 $-1 #
vertex $-1 $450 $769 #
straight-curve $-1 75.422223578600423 20.457351958808125 109.70550925440554 0 0 1 I I #
straight-curve $-1 -4.5131529595911246 20.457351958808125 139.47564197061953 0.52991925155115449 0 -0.84804810408105047 I I #
edge $-1 $763 12.62492371405842 $454 20.457351958808125 $629 $770 forward 7 unknown #
point $-1 75.422223578600423 20.457351958808125 17.466637447366811 #
point $-1 71.72653208695931 20.457351958808125 17.466637447366807 #
edge $-1 $771 1 $771 0 $457 $-1 forward 7 unknown #
vertex $-1 $458 $772 #
ellipse-curve $-1 72.726329728698786 14.862760355415482 13.979546746032831 0.84804810408105047 0 0.52991925155115449 0.13247981288778862 0 -0.21201202602026262 1 I I #
point $-1 73.706857645667625 14.862760355415482 14.297453971563723 #
edge $-1 $773 1 $773 0 $461 $-1 forward 7 unknown #
vertex $-1 $462 $774 #
ellipse-curve $-1 72.726329728698786 18.219515317451069 13.979546746032831 0.84804810408105047 0 0.52991925155115449 0.13247981288778862 0 -0.21201202602026262 1 I I #
point $-1 73.706857645667625 18.219515317451069 14.297453971563723 #
plane-surface $-1 0 0 17.466637447366811 0 0 1 1 0 0 forward_v I I I I #
coedge $-1 $656 $655 $648 $775 forward $466 $-1 #
coedge $-1 $648 $468 $470 $652 reversed $310 $-1 #
coedge $-1 $468 $647 $646 $775 reversed $310 $-1 #
coedge $-1 $476 $471 $468 $650 forward $477 $-1 #
edge $-1 $653 10.021434855345682 $776 13.717126346986795 $649 $777 forward 7 unknown #
coedge $-1 $470 $469 $656 $778 reversed $195 $-1 #
edge $-1 $779 -150.84444715720085 $653 -143.87038180512454 $647 $780 forward 7 unknown #
vertex $-1 $472 $781 #
straight-curve $-1 71.72653208695931 17.155513433290462 17.466637447366807 0 -1 0 I I #
coedge $-1 $646 $473 $476 $660 reversed $466 $-1 #
coedge $-1 $473 $646 $651 $778 forward $466 $-1 #
vertex $-1 $474 $782 #
straight-curve $-1 75.422223578600423 38.227240988955778 109.70550925440554 0 0 1 I I #
straight-curve $-1 -4.5131529595911246 38.227240988955778 139.47564197061953 0.52991925155115449 0 -0.84804810408105047 I I #
edge $-1 $776 30.394812744206071 $478 38.227240988955778 $655 $783 forward 7 unknown #
point $-1 75.422223578600423 38.227240988955778 17.466637447366811 #
point $-1 71.72653208695931 38.227240988955778 17.466637447366807 #
edge $-1 $784 1 $784 0 $481 $-1 forward 7 unknown #
vertex $-1 $482 $785 #
ellipse-curve $-1 72.726329728698786 32.632649385563134 13.979546746032831 0.84804810408105047 0 0.52991925155115449 0.13247981288778862 0 -0.21201202602026262 1 I I #
point $-1 73.706857645667625 32.632649385563134 14.297453971563723 #
edge $-1 $786 1 $786 0 $485 $-1 forward 7 unknown #
vertex $-1 $486 $787 #
ellipse-curve $-1 72.726329728698786 35.989404347598715 13.979546746032831 0.84804810408105047 0 0.52991925155115449 0.13247981288778862 0 -0.21201202602026262 1 I I #
point $-1 73.706857645667625 35.989404347598715 14.297453971563723 #
plane-surface $-1 0 0 17.466637447366811 0 0 1 1 0 0 forward_v I I I I #
coedge $-1 $682 $681 $674 $788 forward $490 $-1 #
coedge $-1 $674 $492 $494 $678 reversed $332 $-1 #
coedge $-1 $492 $673 $672 $788 reversed $332 $-1 #
coedge $-1 $500 $495 $492 $676 forward $501 $-1 #
edge $-1 $679 -26.38830569305825 $789 -5.0523358652299066e-007 $675 $790 forward 7 unknown #
coedge $-1 $494 $493 $682 $791 reversed $209 $-1 #
edge $-1 $792 -1.6303764080091705e-014 $679 30.47059034337342 $673 $793 forward 7 unknown #
vertex $-1 $496 $794 #
straight-curve $-1 -49.03391839077576 -4.9923053645041513 17.466637447366811 0 1 0 I I #
coedge $-1 $672 $497 $500 $686 reversed $490 $-1 #
coedge $-1 $497 $672 $677 $791 forward $490 $-1 #
vertex $-1 $498 $795 #
straight-curve $-1 -75.422223578600423 -16.49244551216141 66.433232373063717 0 0 1 I I #
straight-curve $-1 -75.422223578600409 -16.49244551216141 2.2313420715656491 -0.8660253999169214 0 -0.50000000669873634 I I #
edge $-1 $789 3.476775945855195 $502 16.49244551216141 $681 $796 forward 7 unknown #
point $-1 -75.422223578600423 -16.49244551216141 17.466637447366811 #
point $-1 -49.03391839077576 -16.49244551216141 17.466637447366811 #
edge $-1 $797 1 $797 0 $505 $-1 forward 7 unknown #
vertex $-1 $506 $798 #
ellipse-curve $-1 -60.614343737505934 -13.889311598900168 7.0539322277174001 -0.50000000669873634 0 0.8660253999169214 0.8660253999169214 0 0.50000000669873634 1 I I #
point $-1 -61.362045584771181 -13.889311598900168 10.348989766164973 #
edge $-1 $799 1 $799 0 $509 $-1 forward 7 unknown #
vertex $-1 $510 $800 #
ellipse-curve $-1 -60.614343737505934 -9.9846107290083026 7.0539322277174001 -0.50000000669873634 0 0.8660253999169214 0.8660253999169214 0 0.50000000669873634 1 I I #
point $-1 -61.362045584771181 -9.9846107290083026 10.348989766164973 #
edge $-1 $801 1 $801 0 $513 $-1 forward 7 unknown #
vertex $-1 $514 $802 #
ellipse-curve $-1 -60.614343737505934 -6.0799098591164409 7.0539322277174001 -0.50000000669873634 0 0.8660253999169214 0.8660253999169214 0 0.50000000669873634 1 I I #
point $-1 -61.362045584771181 -6.0799098591164409 10.348989766164973 #
plane-surface $-1 75.422223578600423 0 0 -1 0 0 0 0 1 forward_v I I I I #
coedge $-1 $522 $520 $524 $706 reversed $361 $-1 #
edge $-1 $535 -17.466637447366811 $708 17.466637447366811 $534 $803 forward 7 unknown #
vertex $-1 $706 $804 #
straight-curve $-1 -75.422223578600423 -45.705172352930667 0 0 0 -1 I I #
edge $-1 $704 -45.705172352930667 $708 45.705172352930667 $702 $805 forward 7 unknown #
straight-curve $-1 0 -45.705172352930667 -17.466637447366811 -1 0 0 I I #
vertex $-1 $527 $806 #
straight-curve $-1 0 45.705172352930667 -17.466637447366811 1 0 0 I I #
point $-1 75.422223578600423 45.705172352930667 -17.466637447366811 #
point $-1 75.422223578600423 -45.705172352930667 -17.466637447366811 #
straight-curve $-1 -75.422223578600423 0 17.466637447366811 0 -1 0 I I #
point $-1 -75.422223578600423 45.705172352930667 17.466637447366811 #
point $-1 -75.422223578600423 -45.705172352930667 17.466637447366811 #
straight-curve $-1 75.422223578600423 -45.705172352930667 0 0 0 -1 I I #
straight-curve $-1 75.422223578600423 45.705172352930667 0 0 0 -1 I I #
plane-surface $-1 0 0 17.466637447366811 0 0 1 1 0 0 forward_v I I I I #
coedge $-1 $552 $730 $719 $807 forward $545 $-1 #
coedge $-1 $548 $547 $718 $807 reversed $236 $-1 #
edge $-1 $726 -4.1740929756036849 $724 4.1740929756036849 $547 $808 forward 7 unknown #
coedge $-1 $560 $559 $548 $722 forward $561 $-1 #
edge $-1 $723 -4.1740929756036849 $809 4.1740929756036849 $548 $810 forward 7 unknown #
vertex $-1 $564 $811 #
vertex $-1 $554 $812 #
straight-curve $-1 -48.837134635074165 -66.035960938201399 0 0 0 -1 I I #
vertex $-1 $807 $813 #
straight-curve $-1 -40.488948683866795 -55.870566645566029 -17.466637447366811 0 -1 0 I I #
straight-curve $-1 -48.837134635074165 -55.870566645566029 -17.466637447366811 0 1 0 I I #
point $-1 -40.488948683866795 -45.70517235293066 -17.466637447366811 #
coedge $-1 $718 $557 $560 $732 reversed $545 $-1 #
straight-curve $-1 -40.488948683866795 -45.705172352930667 0 0 0 -1 I I #
edge $-1 $809 -10.165394292635369 $562 10.165394292635369 $730 $814 forward 7 unknown #
point $-1 -40.488948683866795 -45.70517235293066 17.466637447366811 #
straight-curve $-1 -48.837134635074165 -55.870566645566029 17.466637447366811 0 -1 0 I I #
coedge $-1 $578 $577 $570 $736 forward $567 $-1 #
edge $-1 $737 92.238871807038734 $740 98.153214706604388 $735 $815 forward 7 unknown #
vertex $-1 $582 $816 #
straight-curve $-1 61.705097231613628 -22.914854346236886 17.466637447366807 1 0 0 I I #
edge $-1 $740 -13.41553423430587 $579 -5.5831059895561648 $578 $817 forward 7 unknown #
vertex $-1 $739 $818 #
straight-curve $-1 -4.5131529595911246 -22.914854346236886 139.47564197061953 -0.52991925155115449 0 0.84804810408105047 I I #
point $-1 71.72653208695931 -22.914854346236886 17.466637447366807 #
point $-1 75.422223578600423 -15.082426101487181 11.552294547801154 #
straight-curve $-1 75.422223578600423 0 17.466637447366811 0 1 0 I I #
vertex $-1 $585 $819 #
point $-1 72.858809541586581 -20.677017704879823 13.76753472001257 #
vertex $-1 $589 $820 #
point $-1 72.858809541586581 -17.320262742844236 13.76753472001257 #
edge $-1 $750 92.238871807038734 $753 98.153214706604388 $594 $821 forward 7 unknown #
vertex $-1 $608 $822 #
straight-curve $-1 61.705097231613628 -5.1449653160892321 17.466637447366807 1 0 0 I I #
edge $-1 $753 -4.5305897192320419 $605 3.3018385255176614 $604 $823 forward 7 unknown #
vertex $-1 $752 $824 #
straight-curve $-1 -4.5131529595911246 -5.1449653160892321 139.47564197061953 -0.52991925155115449 0 0.84804810408105047 I I #
point $-1 71.72653208695931 -5.1449653160892321 17.466637447366807 #
point $-1 75.422223578600423 2.6874629286604712 11.552294547801154 #
straight-curve $-1 75.422223578600423 0 17.466637447366811 0 1 0 I I #
vertex $-1 $611 $825 #
point $-1 72.858809541586581 -2.9071286747321707 13.76753472001257 #
vertex $-1 $615 $826 #
point $-1 72.858809541586581 0.44962628730341692 13.76753472001257 #
edge $-1 $763 92.238871807038734 $766 98.153214706604388 $620 $827 forward 7 unknown #
vertex $-1 $634 $828 #
straight-curve $-1 61.705097231613628 12.62492371405842 17.466637447366807 1 0 0 I I #
edge $-1 $766 4.3543547958417843 $631 12.186783040591489 $630 $829 forward 7 unknown #
vertex $-1 $765 $830 #
straight-curve $-1 -4.5131529595911246 12.62492371405842 139.47564197061953 -0.52991925155115449 0 0.84804810408105047 I I #
point $-1 71.72653208695931 12.62492371405842 17.466637447366807 #
point $-1 75.422223578600423 20.457351958808125 11.552294547801154 #
straight-curve $-1 75.422223578600423 0 17.466637447366811 0 1 0 I I #
vertex $-1 $637 $831 #
point $-1 72.858809541586581 14.862760355415482 13.76753472001257 #
vertex $-1 $641 $832 #
point $-1 72.858809541586581 18.219515317451069 13.76753472001257 #
edge $-1 $776 92.238871807038734 $779 98.153214706604388 $646 $833 forward 7 unknown #
vertex $-1 $660 $834 #
straight-curve $-1 61.705097231613628 30.394812744206071 17.466637447366807 1 0 0 I I #
edge $-1 $779 13.239299310915609 $657 21.071727555665316 $656 $835 forward 7 unknown #
vertex $-1 $778 $836 #
straight-curve $-1 -4.5131529595911246 30.394812744206071 139.47564197061953 -0.52991925155115449 0 0.84804810408105047 I I #
point $-1 71.72653208695931 30.394812744206071 17.466637447366807 #
point $-1 75.422223578600423 38.227240988955778 11.552294547801154 #
straight-curve $-1 75.422223578600423 0 17.466637447366811 0 1 0 I I #
vertex $-1 $663 $837 #
point $-1 72.858809541586581 32.632649385563134 13.76753472001257 #
vertex $-1 $667 $838 #
point $-1 72.858809541586581 35.989404347598715 13.76753472001257 #
edge $-1 $789 48.96659492569691 $792 64.201890301498082 $672 $839 forward 7 unknown #
vertex $-1 $686 $840 #
straight-curve $-1 -75.42222408383401 -3.476775945855195 17.466637447366807 -1 0 0 I I #
edge $-1 $792 -1.5155294186489563 $683 11.500140147657259 $682 $841 forward 7 unknown #
vertex $-1 $791 $842 #
straight-curve $-1 -75.422223578600409 -3.476775945855195 2.2313420715656491 0.8660253999169214 0 0.50000000669873634 I I #
point $-1 -49.03391839077576 -3.476775945855195 17.466637447366811 #
point $-1 -75.422223578600423 -16.49244551216141 2.2313420715656411 #
straight-curve $-1 -75.422223578600423 0 17.466637447366811 0 -1 0 I I #
vertex $-1 $689 $843 #
point $-1 -59.748318337589012 -13.889311598900168 7.5539322344161368 #
vertex $-1 $693 $844 #
point $-1 -59.748318337589012 -9.9846107290083026 7.5539322344161368 #
vertex $-1 $697 $845 #
point $-1 -59.748318337589012 -6.0799098591164409 7.5539322344161368 #
straight-curve $-1 -75.422223578600423 45.705172352930667 0 0 0 -1 I I #
point $-1 -75.422223578600423 -45.705172352930667 -17.466637447366811 #
straight-curve $-1 -75.422223578600423 0 -17.466637447366811 0 1 0 I I #
point $-1 -75.422223578600423 45.705172352930667 -17.466637447366811 #
edge $-1 $809 -17.466637447366811 $726 17.466637447366811 $718 $846 forward 7 unknown #
straight-curve $-1 -44.66304165947048 -66.035960938201399 -17.466637447366811 -1 0 0 I I #
vertex $-1 $732 $847 #
straight-curve $-1 -44.66304165947048 -66.035960938201399 17.466637447366811 1 0 0 I I #
point $-1 -48.837134635074165 -66.035960938201399 17.466637447366811 #
point $-1 -48.837134635074165 -66.035960938201399 -17.466637447366811 #
point $-1 -40.488948683866795 -66.035960938201399 -17.466637447366811 #
straight-curve $-1 -40.488948683866795 -55.870566645566029 17.466637447366811 0 1 0 I I #
straight-curve $-1 75.422223578600423 -22.914854346236886 109.70550925440554 0 0 -1 I I #
point $-1 75.422223578600423 -22.914854346236886 17.466637447366811 #
straight-curve $-1 75.422223578600409 -9.4993201119310164 11.552294547801168 0 1 0 I I #
point $-1 75.422223578600423 -22.914854346236886 11.552294547801154 #
point $-1 72.514317702678525 -20.677017704879823 13.847066933145044 #
point $-1 72.514317702678525 -17.320262742844236 13.847066933145044 #
straight-curve $-1 75.422223578600423 -5.1449653160892321 109.70550925440554 0 0 -1 I I #
point $-1 75.422223578600423 -5.1449653160892321 17.466637447366811 #
straight-curve $-1 75.422223578600409 -0.61437559685719023 11.552294547801168 0 1 0 I I #
point $-1 75.422223578600423 -5.1449653160892321 11.552294547801154 #
point $-1 72.514317702678525 -2.9071286747321707 13.847066933145044 #
point $-1 72.514317702678525 0.44962628730341692 13.847066933145044 #
straight-curve $-1 75.422223578600423 12.62492371405842 109.70550925440554 0 0 -1 I I #
point $-1 75.422223578600423 12.62492371405842 17.466637447366811 #
straight-curve $-1 75.422223578600409 8.270568918216636 11.552294547801168 0 1 0 I I #
point $-1 75.422223578600423 12.62492371405842 11.552294547801154 #
point $-1 72.514317702678525 14.862760355415482 13.847066933145044 #
point $-1 72.514317702678525 18.219515317451069 13.847066933145044 #
straight-curve $-1 75.422223578600423 30.394812744206071 109.70550925440554 0 0 -1 I I #
point $-1 75.422223578600423 30.394812744206071 17.466637447366811 #
straight-curve $-1 75.422223578600409 17.155513433290462 11.552294547801168 0 1 0 I I #
point $-1 75.422223578600423 30.394812744206071 11.552294547801154 #
point $-1 72.514317702678525 32.632649385563134 13.847066933145044 #
point $-1 72.514317702678525 35.989404347598715 13.847066933145044 #
straight-curve $-1 -75.422223578600423 -3.476775945855195 66.433232373063717 0 0 -1 I I #
point $-1 -75.422223578600423 -3.476775945855195 17.466637447366811 #
straight-curve $-1 -75.422223578600423 -4.9923053645041513 2.2313420715656345 0 -1 0 I I #
point $-1 -75.422223578600423 -3.476775945855195 2.2313420715656411 #
point $-1 -60.114343730807192 -13.889311598900168 6.1879068278004787 #
point $-1 -60.114343730807192 -9.9846107290083026 6.1879068278004787 #
point $-1 -60.114343730807192 -6.0799098591164409 6.1879068278004787 #
straight-curve $-1 -40.488948683866795 -66.035960938201399 0 0 0 -1 I I #
point $-1 -40.488948683866795 -66.035960938201399 17.466637447366811 #
End-of-ACIS-data 