500 0 10 0           
7 Unknown 11 ACIS 5.0 NT 24 Fri Mar 26 00:24:09 1999 
-1 9.9999999999999995e-007 1e-010 
body $-1 $10 $-1 $11 #
body $-1 $12 $-1 $13 #
body $-1 $14 $-1 $15 #
body $-1 $16 $-1 $17 #
body $-1 $18 $-1 $19 #
body $-1 $20 $-1 $21 #
body $-1 $22 $-1 $23 #
body $-1 $24 $-1 $25 #
body $-1 $26 $-1 $27 #
body $-1 $28 $-1 $29 #
lump $-1 $-1 $30 $0 #
transform $-1 1 0 0 0 1 0 0 0 1 65.539109469893489 38.601209374383416 18.194767862345561 1 rotate no_reflect no_shear #
lump $-1 $-1 $31 $1 #
transform $-1 1 0 0 0 1 0 0 0 1 65.539109469893489 38.601209374383416 18.194767862345561 1 rotate no_reflect no_shear #
lump $-1 $-1 $32 $2 #
transform $-1 1 0 0 0 1 0 0 0 1 65.539109469893489 38.601209374383416 18.194767862345561 1 rotate no_reflect no_shear #
lump $-1 $-1 $33 $3 #
transform $-1 1 0 0 0 1 0 0 0 1 65.539109469893489 38.601209374383416 18.194767862345561 1 rotate no_reflect no_shear #
lump $-1 $-1 $34 $4 #
transform $-1 1 0 0 0 1 0 0 0 1 65.539109469893489 38.601209374383416 18.194767862345561 1 rotate no_reflect no_shear #
lump $-1 $-1 $35 $5 #
transform $-1 1 0 0 0 1 0 0 0 1 65.539109469893489 38.601209374383416 18.194767862345561 1 rotate no_reflect no_shear #
lump $-1 $-1 $36 $6 #
transform $-1 1 0 0 0 1 0 0 0 1 65.539109469893489 38.601209374383416 18.194767862345561 1 rotate no_reflect no_shear #
lump $-1 $-1 $37 $7 #
transform $-1 1 0 0 0 1 0 0 0 1 65.539109469893489 38.601209374383416 18.194767862345561 1 rotate no_reflect no_shear #
lump $-1 $-1 $38 $8 #
transform $-1 1 0 0 0 1 0 0 0 1 65.539109469893489 38.601209374383416 18.194767862345561 1 rotate no_reflect no_shear #
lump $-1 $-1 $39 $9 #
transform $-1 1 0 0 0 1 0 0 0 1 65.539109469893489 38.601209374383416 18.194767862345561 1 rotate no_reflect no_shear #
shell $-1 $-1 $-1 $40 $-1 $10 #
shell $-1 $-1 $-1 $41 $-1 $12 #
shell $-1 $-1 $-1 $42 $-1 $14 #
shell $-1 $-1 $-1 $43 $-1 $16 #
shell $-1 $-1 $-1 $44 $-1 $18 #
shell $-1 $-1 $-1 $45 $-1 $20 #
shell $-1 $-1 $-1 $46 $-1 $22 #
shell $-1 $-1 $-1 $47 $-1 $24 #
shell $-1 $-1 $-1 $48 $-1 $26 #
shell $-1 $-1 $-1 $49 $-1 $28 #
face $-1 $50 $51 $30 $-1 $52 forward single #
face $-1 $53 $54 $31 $-1 $55 reversed single #
face $-1 $56 $57 $32 $-1 $58 forward single #
face $-1 $59 $60 $33 $-1 $61 reversed single #
face $-1 $62 $63 $34 $-1 $64 forward single #
face $-1 $65 $66 $35 $-1 $67 forward single #
face $-1 $68 $69 $36 $-1 $70 forward single #
face $-1 $71 $72 $37 $-1 $73 reversed single #
face $-1 $74 $75 $38 $-1 $76 forward single #
face $-1 $77 $78 $39 $-1 $79 forward single #
face $-1 $80 $81 $30 $-1 $82 reversed single #
loop $-1 $-1 $83 $40 #
plane-surface $-1 0 0 18.194767862345561 0 0 1 1 0 0 forward_v I I I I #
face $-1 $84 $85 $31 $-1 $86 reversed single #
loop $-1 $-1 $87 $41 #
plane-surface $-1 0 -27.739387732586167 13.625836042986094 0 0 1 1 0 0 forward_v I I I I #
face $-1 $88 $89 $32 $-1 $90 reversed single #
loop $-1 $-1 $91 $42 #
plane-surface $-1 0 26.607505144668934 -13.535881137327959 0 0 1 1 0 0 forward_v I I I I #
face $-1 $92 $93 $33 $-1 $94 reversed single #
loop $-1 $-1 $95 $43 #
plane-surface $-1 -164.46509814874065 6.72386007066088 92.013227583851318 0 -1 0 0.75470958851134928 0 -0.65605901945558964 forward_v I I I I #
face $-1 $96 $97 $34 $-1 $98 forward single #
loop $-1 $99 $100 $44 #
cone-surface $-1 -59.869281550948827 0.3279533855503729 11.778444318559776 0.75470958851134928 0 -0.65605901945558964 0.16401475486389741 0 0.18867739712783732 1 I I 0 1 0.25 forward I I I I #
face $-1 $101 $102 $35 $-1 $103 forward single #
loop $-1 $104 $105 $45 #
cone-surface $-1 -59.869281550948827 2.7264183924668117 11.778444318559776 0.75470958851134928 0 -0.65605901945558964 0.16401475486389741 0 0.18867739712783732 1 I I 0 1 0.25 forward I I I I #
face $-1 $106 $107 $36 $-1 $108 forward single #
loop $-1 $109 $110 $46 #
cone-surface $-1 -59.869281550948827 5.1248833993832505 11.778444318559776 0.75470958851134928 0 -0.65605901945558964 0.16401475486389741 0 0.18867739712783732 1 I I 0 1 0.25 forward I I I I #
face $-1 $111 $112 $37 $-1 $113 reversed single #
loop $-1 $-1 $114 $47 #
plane-surface $-1 107.23887285287039 2.2768752589088876 181.17148063049066 0 -1 0 -0.84804810408105047 0 -0.52991925155115449 forward_v I I I I #
face $-1 $115 $116 $38 $-1 $117 forward single #
loop $-1 $118 $119 $48 #
cone-surface $-1 58.852708663536227 -3.667922704541688 8.6390520362796224 -0.84804810408105047 0 -0.52991925155115449 0.52991925155115449 0 -0.84804810408105047 1 I I 0 1 1 forward I I I I #
face $-1 $120 $121 $39 $-1 $122 forward single #
loop $-1 $123 $124 $49 #
cone-surface $-1 58.852708663536227 -0.1010439264713483 8.6390520362796224 -0.84804810408105047 0 -0.52991925155115449 0.52991925155115449 0 -0.84804810408105047 1 I I 0 1 1 forward I I I I #
face $-1 $125 $126 $30 $-1 $127 reversed single #
loop $-1 $-1 $128 $50 #
plane-surface $-1 0 0 -18.194767862345561 0 0 1 1 0 0 forward_v I I I I #
coedge $-1 $129 $130 $131 $132 forward $51 $-1 #
face $-1 $133 $134 $31 $-1 $135 reversed single #
loop $-1 $-1 $136 $53 #
plane-surface $-1 0 -16.877566090788918 15.910301952665829 0 -1 0 0 0 -1 forward_v I I I I #
coedge $-1 $137 $138 $139 $140 reversed $54 $-1 #
face $-1 $141 $142 $32 $-1 $143 reversed single #
loop $-1 $-1 $144 $56 #
plane-surface $-1 0 14.613800914954453 -15.86532449983676 0 1 0 0 0 1 forward_v I I I I #
coedge $-1 $145 $146 $147 $148 reversed $57 $-1 #
face $-1 $149 $150 $33 $-1 $151 reversed single #
loop $-1 $-1 $152 $59 #
plane-surface $-1 -65.539109469893475 2.7264183924668117 6.0181797942295674 -0.75470958851134928 0 0.65605901945558964 0.65605901945558964 0 0.75470958851134928 forward_v I I I I #
coedge $-1 $153 $154 $155 $156 reversed $60 $-1 #
face $-1 $-1 $157 $34 $-1 $158 forward single #
loop $-1 $159 $160 $62 #
cone-surface $-1 -59.39758805812923 0.3279533855503729 11.368407431400033 0.75470958851134928 0 -0.65605901945558964 0.082007377431948705 0 0.09433869856391866 1 I I -0.70710678118654746 0.70710678118654746 0.125 forward I I I I #
loop $-1 $-1 $161 $44 #
coedge $-1 $100 $100 $162 $163 reversed $63 $-1 #
face $-1 $-1 $164 $35 $-1 $165 forward single #
loop $-1 $166 $167 $65 #
cone-surface $-1 -59.39758805812923 2.7264183924668117 11.368407431400033 0.75470958851134928 0 -0.65605901945558964 0.082007377431948705 0 0.09433869856391866 1 I I -0.70710678118654746 0.70710678118654746 0.125 forward I I I I #
loop $-1 $-1 $168 $45 #
coedge $-1 $105 $105 $169 $170 reversed $66 $-1 #
face $-1 $-1 $171 $36 $-1 $172 forward single #
loop $-1 $173 $174 $68 #
cone-surface $-1 -59.39758805812923 5.1248833993832505 11.368407431400033 0.75470958851134928 0 -0.65605901945558964 0.082007377431948705 0 0.09433869856391866 1 I I -0.70710678118654746 0.70710678118654746 0.125 forward I I I I #
loop $-1 $-1 $175 $46 #
coedge $-1 $110 $110 $176 $177 reversed $69 $-1 #
face $-1 $178 $179 $37 $-1 $180 reversed single #
loop $-1 $-1 $181 $71 #
plane-surface $-1 -3.9217622053368331 -1.8844833155065146 111.71060895526037 0.84804810408105047 0 0.52991925155115449 0.52991925155115449 0 -0.84804810408105047 forward_v I I I I #
coedge $-1 $182 $183 $184 $185 reversed $72 $-1 #
face $-1 $-1 $186 $38 $-1 $187 forward single #
loop $-1 $188 $189 $74 #
cone-surface $-1 57.255129106522674 -3.667922704541688 7.6407735670842776 -0.84804810408105047 0 -0.52991925155115449 0.26495962577557725 0 -0.42402405204052523 1 I I -0.70710678118654746 0.70710678118654746 0.5 forward I I I I #
loop $-1 $-1 $190 $48 #
coedge $-1 $119 $119 $191 $192 reversed $75 $-1 #
face $-1 $-1 $193 $39 $-1 $194 forward single #
loop $-1 $195 $196 $77 #
cone-surface $-1 57.255129106522674 -0.1010439264713483 7.6407735670842776 -0.84804810408105047 0 -0.52991925155115449 0.26495962577557725 0 -0.42402405204052523 1 I I -0.70710678118654746 0.70710678118654746 0.5 forward I I I I #
loop $-1 $-1 $197 $49 #
coedge $-1 $124 $124 $198 $199 reversed $78 $-1 #
face $-1 $200 $201 $30 $-1 $202 reversed single #
loop $-1 $-1 $203 $80 #
plane-surface $-1 0 -38.601209374383416 0 0 1 0 0 0 1 forward_v I I I I #
coedge $-1 $204 $205 $206 $207 forward $81 $-1 #
coedge $-1 $208 $83 $209 $210 forward $51 $-1 #
coedge $-1 $83 $208 $211 $212 forward $51 $-1 #
coedge $-1 $213 $214 $83 $132 reversed $215 $-1 #
edge $-1 $216 -38.601209374383416 $217 38.601209374383416 $131 $218 forward 7 unknown #
face $-1 $219 $220 $31 $-1 $221 reversed single #
loop $-1 $-1 $222 $84 #
plane-surface $-1 -65.539109469893489 0 0 1 0 0 0 0 -1 forward_v I I I I #
coedge $-1 $223 $224 $225 $226 reversed $85 $-1 #
coedge $-1 $227 $87 $228 $229 reversed $54 $-1 #
coedge $-1 $87 $227 $223 $230 forward $54 $-1 #
coedge $-1 $225 $231 $87 $140 forward $232 $-1 #
edge $-1 $233 -24.731515508090332 $234 -3.0078722244958342 $139 $235 forward 7 unknown #
face $-1 $236 $237 $32 $-1 $238 reversed single #
loop $-1 $-1 $147 $88 #
plane-surface $-1 65.539109469893489 0 0 -1 0 0 0 0 1 forward_v I I I I #
coedge $-1 $239 $240 $241 $242 reversed $89 $-1 #
coedge $-1 $243 $91 $244 $245 reversed $57 $-1 #
coedge $-1 $91 $243 $240 $246 forward $57 $-1 #
coedge $-1 $247 $248 $91 $148 forward $142 $-1 #
edge $-1 $249 -25.297456802048949 $250 -1.3100483426199858 $147 $251 forward 7 unknown #
face $-1 $252 $253 $33 $-1 $254 reversed single #
loop $-1 $-1 $255 $92 #
plane-surface $-1 -164.46509814874065 -1.2710232857272565 92.013227583851318 0 1 0 -0.75470958851134928 0 0.65605901945558964 forward_v I I I I #
coedge $-1 $256 $257 $258 $259 reversed $93 $-1 #
coedge $-1 $154 $95 $260 $261 reversed $60 $-1 #
coedge $-1 $95 $153 $256 $262 reversed $60 $-1 #
coedge $-1 $258 $263 $95 $156 forward $253 $-1 #
edge $-1 $264 27.811845929580098 $265 39.988433997696106 $155 $266 forward 7 unknown #
loop $-1 $-1 $162 $96 #
plane-surface $-1 -65.539109469893475 2.7264183924668117 6.0181797942295674 -0.75470958851134928 0 0.65605901945558964 0.65605901945558964 0 0.75470958851134928 forward_v I I I I #
loop $-1 $-1 $267 $62 #
coedge $-1 $160 $160 $161 $268 reversed $97 $-1 #
coedge $-1 $161 $161 $160 $268 forward $99 $-1 #
coedge $-1 $162 $162 $100 $163 forward $157 $-1 #
edge $-1 $269 0 $269 6.2831853071796004 $162 $270 forward 7 unknown #
loop $-1 $-1 $169 $101 #
plane-surface $-1 -65.539109469893475 2.7264183924668117 6.0181797942295674 -0.75470958851134928 0 0.65605901945558964 0.65605901945558964 0 0.75470958851134928 forward_v I I I I #
loop $-1 $-1 $271 $65 #
coedge $-1 $167 $167 $168 $272 reversed $102 $-1 #
coedge $-1 $168 $168 $167 $272 forward $104 $-1 #
coedge $-1 $169 $169 $105 $170 forward $164 $-1 #
edge $-1 $273 0 $273 6.2831853071796004 $169 $274 forward 7 unknown #
loop $-1 $-1 $176 $106 #
plane-surface $-1 -65.539109469893475 2.7264183924668117 6.0181797942295674 -0.75470958851134928 0 0.65605901945558964 0.65605901945558964 0 0.75470958851134928 forward_v I I I I #
loop $-1 $-1 $275 $68 #
coedge $-1 $174 $174 $175 $276 reversed $107 $-1 #
coedge $-1 $175 $175 $174 $276 forward $109 $-1 #
coedge $-1 $176 $176 $110 $177 forward $171 $-1 #
edge $-1 $277 0 $277 6.2831853071796004 $176 $278 forward 7 unknown #
face $-1 $279 $280 $37 $-1 $281 forward single #
loop $-1 $-1 $282 $111 #
plane-surface $-1 107.23887285287039 -6.0458418899219168 181.17148063049066 0 1 0 0.84804810408105047 0 0.52991925155115449 forward_v I I I I #
coedge $-1 $283 $284 $285 $286 reversed $112 $-1 #
coedge $-1 $183 $114 $287 $288 reversed $72 $-1 #
coedge $-1 $114 $182 $283 $289 reversed $72 $-1 #
coedge $-1 $285 $290 $114 $185 forward $280 $-1 #
edge $-1 $291 -11.919673043458296 $292 -0.89398244068976851 $184 $293 forward 7 unknown #
loop $-1 $-1 $191 $115 #
plane-surface $-1 -3.9217622053368331 -1.8844833155065146 111.71060895526037 0.84804810408105047 0 0.52991925155115449 0.52991925155115449 0 -0.84804810408105047 forward_v I I I I #
loop $-1 $-1 $294 $74 #
coedge $-1 $189 $189 $190 $295 reversed $116 $-1 #
coedge $-1 $190 $190 $189 $295 forward $118 $-1 #
coedge $-1 $191 $191 $119 $192 forward $186 $-1 #
edge $-1 $296 0 $296 6.2831853071796004 $191 $297 forward 7 unknown #
loop $-1 $-1 $198 $120 #
plane-surface $-1 -3.9217622053368331 -1.8844833155065146 111.71060895526037 0.84804810408105047 0 0.52991925155115449 0.52991925155115449 0 -0.84804810408105047 forward_v I I I I #
loop $-1 $-1 $298 $77 #
coedge $-1 $196 $196 $197 $299 reversed $121 $-1 #
coedge $-1 $197 $197 $196 $299 forward $123 $-1 #
coedge $-1 $198 $198 $124 $199 forward $193 $-1 #
edge $-1 $300 0 $300 6.2831853071796004 $198 $301 forward 7 unknown #
face $-1 $302 $303 $30 $-1 $304 reversed single #
loop $-1 $-1 $305 $125 #
plane-surface $-1 -65.539109469893489 0 0 1 0 0 0 0 -1 forward_v I I I I #
coedge $-1 $306 $211 $307 $308 forward $126 $-1 #
coedge $-1 $309 $128 $306 $310 forward $81 $-1 #
coedge $-1 $128 $309 $311 $312 forward $81 $-1 #
coedge $-1 $214 $213 $128 $207 reversed $215 $-1 #
edge $-1 $313 -38.601209374383416 $314 38.601209374383416 $206 $315 forward 7 unknown #
coedge $-1 $130 $129 $316 $317 forward $51 $-1 #
coedge $-1 $318 $319 $129 $210 reversed $303 $-1 #
edge $-1 $217 -65.539109469893489 $320 65.539109469893489 $209 $321 forward 7 unknown #
coedge $-1 $203 $322 $130 $212 reversed $126 $-1 #
edge $-1 $323 -65.539109469893489 $216 65.539109469893489 $211 $324 forward 7 unknown #
coedge $-1 $206 $131 $322 $325 forward $215 $-1 #
coedge $-1 $131 $206 $318 $326 reversed $215 $-1 #
loop $-1 $-1 $213 $302 #
vertex $-1 $132 $327 #
vertex $-1 $132 $328 #
straight-curve $-1 65.539109469893489 0 18.194767862345561 0 1 0 I I #
face $-1 $329 $330 $31 $-1 $331 forward single #
loop $-1 $-1 $228 $133 #
plane-surface $-1 0 -38.601209374383416 0 0 1 0 0 0 1 forward_v I I I I #
coedge $-1 $332 $333 $334 $335 forward $134 $-1 #
coedge $-1 $334 $136 $138 $230 reversed $85 $-1 #
coedge $-1 $136 $334 $336 $337 reversed $85 $-1 #
coedge $-1 $338 $139 $136 $226 forward $232 $-1 #
edge $-1 $234 5.6706850666531796 $339 10.23961688601265 $225 $340 forward 7 unknown #
coedge $-1 $138 $137 $332 $341 reversed $54 $-1 #
coedge $-1 $342 $343 $137 $229 forward $220 $-1 #
edge $-1 $344 -65.539109469893489 $233 65.539109469893489 $228 $345 forward 7 unknown #
edge $-1 $346 -65.539109469893489 $234 65.539109469893489 $223 $347 forward 7 unknown #
coedge $-1 $139 $338 $342 $348 forward $232 $-1 #
loop $-1 $-1 $225 $329 #
vertex $-1 $229 $349 #
vertex $-1 $140 $350 #
straight-curve $-1 65.539109469893489 -13.869693866293083 13.625836042986094 0 1 0 I I #
face $-1 $351 $352 $32 $-1 $353 reversed single #
loop $-1 $-1 $354 $141 #
plane-surface $-1 0 0 -18.194767862345561 0 0 1 1 0 0 forward_v I I I I #
coedge $-1 $355 $144 $354 $356 reversed $89 $-1 #
coedge $-1 $144 $355 $146 $246 reversed $89 $-1 #
coedge $-1 $357 $358 $144 $242 forward $352 $-1 #
edge $-1 $359 -10.262105612427181 $360 -5.6032188874095787 $241 $361 forward 7 unknown #
coedge $-1 $146 $145 $357 $362 reversed $57 $-1 #
coedge $-1 $363 $364 $145 $245 forward $365 $-1 #
edge $-1 $366 -65.539109469893489 $249 65.539109469893489 $244 $367 forward 7 unknown #
edge $-1 $360 -65.539109469893489 $250 65.539109469893489 $240 $368 forward 7 unknown #
coedge $-1 $369 $147 $355 $370 forward $142 $-1 #
coedge $-1 $147 $369 $363 $371 reversed $142 $-1 #
vertex $-1 $371 $372 #
vertex $-1 $148 $373 #
straight-curve $-1 65.539109469893489 13.303752572334467 -13.535881137327959 0 -1 0 I I #
face $-1 $-1 $374 $33 $-1 $375 forward single #
loop $-1 $-1 $155 $149 #
plane-surface $-1 -65.539109469893489 0 0 1 0 0 0 0 -1 forward_v I I I I #
coedge $-1 $376 $377 $378 $379 reversed $150 $-1 #
coedge $-1 $380 $152 $154 $262 forward $93 $-1 #
coedge $-1 $152 $380 $376 $381 forward $93 $-1 #
coedge $-1 $378 $155 $152 $259 forward $253 $-1 #
edge $-1 $265 -5.3606508744274741 $382 2.6342324819606624 $258 $383 forward 7 unknown #
coedge $-1 $384 $385 $153 $261 forward $374 $-1 #
edge $-1 $386 -27.278385853854836 $264 -16.693439604476836 $260 $387 forward 7 unknown #
edge $-1 $265 -2.1388861263899031e-014 $386 16.134137227717076 $154 $388 forward 7 unknown #
coedge $-1 $155 $378 $384 $389 reversed $253 $-1 #
vertex $-1 $389 $390 #
vertex $-1 $156 $391 #
straight-curve $-1 -65.539109469893489 6.72386007066088 46.006613791925659 0 0 -1 I I #
coedge $-1 $267 $267 $-1 $392 reversed $159 $-1 #
edge $-1 $393 0 $393 6.2831853071796004 $160 $394 forward 7 unknown #
vertex $-1 $163 $395 #
ellipse-curve $-1 -60.246636345204486 0.3279533855503729 12.106473828287557 -0.75470958851134928 0 0.65605901945558964 0.16401475486389741 0 0.18867739712783732 1 I I #
coedge $-1 $271 $271 $-1 $396 reversed $166 $-1 #
edge $-1 $397 0 $397 6.2831853071796004 $167 $398 forward 7 unknown #
vertex $-1 $170 $399 #
ellipse-curve $-1 -60.246636345204486 2.7264183924668117 12.106473828287557 -0.75470958851134928 0 0.65605901945558964 0.16401475486389741 0 0.18867739712783732 1 I I #
coedge $-1 $275 $275 $-1 $400 reversed $173 $-1 #
edge $-1 $401 0 $401 6.2831853071796004 $174 $402 forward 7 unknown #
vertex $-1 $177 $403 #
ellipse-curve $-1 -60.246636345204486 5.1248833993832505 12.106473828287557 -0.75470958851134928 0 0.65605901945558964 0.16401475486389741 0 0.18867739712783732 1 I I #
face $-1 $-1 $404 $37 $-1 $405 reversed single #
loop $-1 $-1 $184 $178 #
plane-surface $-1 0 0 18.194767862345561 0 0 1 1 0 0 forward_v I I I I #
coedge $-1 $406 $407 $408 $409 reversed $179 $-1 #
coedge $-1 $410 $181 $183 $289 forward $112 $-1 #
coedge $-1 $181 $410 $406 $411 forward $112 $-1 #
coedge $-1 $408 $184 $181 $286 forward $280 $-1 #
edge $-1 $292 -3.2191169166621449 $412 5.1036002321686595 $285 $413 forward 7 unknown #
coedge $-1 $414 $415 $182 $288 forward $404 $-1 #
edge $-1 $416 -90.035766418192225 $291 -72.390972452899774 $287 $417 forward 7 unknown #
edge $-1 $292 110.27185915856634 $416 131.07821893978706 $183 $418 forward 7 unknown #
coedge $-1 $184 $408 $414 $419 forward $280 $-1 #
vertex $-1 $185 $420 #
vertex $-1 $185 $421 #
straight-curve $-1 53.619436426435193 2.2768752589088876 18.194767862345557 -1 0 0 I I #
coedge $-1 $294 $294 $-1 $422 reversed $188 $-1 #
edge $-1 $423 0 $423 6.2831853071796004 $189 $424 forward 7 unknown #
vertex $-1 $192 $425 #
ellipse-curve $-1 60.026264168509208 -3.667922704541688 9.3723708796993623 0.84804810408105047 0 0.52991925155115449 0.52991925155115449 0 -0.84804810408105047 1 I I #
coedge $-1 $298 $298 $-1 $426 reversed $195 $-1 #
edge $-1 $427 0 $427 6.2831853071796004 $196 $428 forward 7 unknown #
vertex $-1 $199 $429 #
ellipse-curve $-1 60.026264168509208 -0.1010439264713483 9.3723708796993623 0.84804810408105047 0 0.52991925155115449 0.52991925155115449 0 -0.84804810408105047 1 I I #
face $-1 $-1 $215 $30 $-1 $430 reversed single #
loop $-1 $-1 $318 $200 #
plane-surface $-1 0 38.601209374383416 0 0 -1 0 0 0 -1 forward_v I I I I #
coedge $-1 $431 $316 $319 $432 forward $201 $-1 #
coedge $-1 $322 $203 $204 $310 reversed $126 $-1 #
coedge $-1 $316 $431 $203 $308 reversed $201 $-1 #
edge $-1 $323 -18.194767862345561 $433 18.194767862345561 $307 $434 forward 7 unknown #
coedge $-1 $205 $204 $431 $435 forward $81 $-1 #
edge $-1 $314 -65.539109469893489 $433 65.539109469893489 $306 $436 forward 7 unknown #
coedge $-1 $319 $318 $205 $312 reversed $303 $-1 #
edge $-1 $437 -65.539109469893489 $313 65.539109469893489 $311 $438 forward 7 unknown #
vertex $-1 $207 $439 #
vertex $-1 $325 $440 #
straight-curve $-1 65.539109469893489 0 -18.194767862345561 0 -1 0 I I #
coedge $-1 $305 $307 $208 $317 reversed $201 $-1 #
edge $-1 $320 -38.601209374383416 $323 38.601209374383416 $316 $441 forward 7 unknown #
coedge $-1 $311 $209 $214 $326 forward $303 $-1 #
coedge $-1 $209 $311 $305 $432 reversed $303 $-1 #
vertex $-1 $210 $442 #
straight-curve $-1 0 38.601209374383416 18.194767862345561 -1 0 0 I I #
coedge $-1 $211 $306 $213 $325 reversed $126 $-1 #
vertex $-1 $317 $443 #
straight-curve $-1 0 -38.601209374383416 18.194767862345561 1 0 0 I I #
edge $-1 $216 -18.194767862345561 $314 18.194767862345561 $213 $444 forward 7 unknown #
edge $-1 $217 -18.194767862345561 $313 18.194767862345561 $214 $445 forward 7 unknown #
point $-1 65.539109469893489 -38.601209374383416 18.194767862345561 #
point $-1 65.539109469893489 38.601209374383416 18.194767862345561 #
face $-1 $-1 $232 $31 $-1 $446 reversed single #
loop $-1 $-1 $336 $219 #
plane-surface $-1 0 0 18.194767862345561 0 0 1 1 0 0 forward_v I I I I #
coedge $-1 $447 $222 $227 $341 forward $134 $-1 #
coedge $-1 $222 $447 $448 $449 reversed $134 $-1 #
coedge $-1 $224 $223 $222 $335 reversed $85 $-1 #
edge $-1 $450 -10.23961688601265 $346 -5.6706850666531796 $222 $451 forward 7 unknown #
coedge $-1 $448 $452 $224 $337 forward $330 $-1 #
edge $-1 $339 -65.539109469893489 $450 65.539109469893489 $336 $453 forward 7 unknown #
coedge $-1 $231 $225 $452 $454 reversed $232 $-1 #
vertex $-1 $226 $455 #
straight-curve $-1 65.539109469893489 -16.877566090788918 7.9551509763329147 0 0 1 I I #
edge $-1 $346 3.0078722244958342 $344 24.731515508090332 $332 $456 forward 7 unknown #
coedge $-1 $457 $228 $231 $348 reversed $220 $-1 #
coedge $-1 $228 $457 $447 $458 forward $220 $-1 #
vertex $-1 $229 $459 #
straight-curve $-1 0 -38.601209374383416 13.625836042986094 1 0 0 I I #
vertex $-1 $341 $460 #
straight-curve $-1 0 -16.877566090788918 13.625836042986094 1 0 0 I I #
edge $-1 $461 -18.194767862345561 $233 -13.625836042986094 $231 $462 forward 7 unknown #
point $-1 65.539109469893489 -38.601209374383416 13.625836042986094 #
point $-1 65.539109469893489 -16.877566090788918 13.625836042986094 #
face $-1 $-1 $365 $32 $-1 $463 reversed single #
loop $-1 $-1 $357 $236 #
plane-surface $-1 -65.539109469893489 0 0 1 0 0 0 0 -1 forward_v I I I I #
coedge $-1 $464 $465 $239 $356 forward $237 $-1 #
coedge $-1 $240 $239 $247 $370 reversed $89 $-1 #
edge $-1 $466 -65.539109469893489 $359 65.539109469893489 $354 $467 forward 7 unknown #
coedge $-1 $468 $241 $243 $362 forward $352 $-1 #
coedge $-1 $241 $468 $464 $469 reversed $352 $-1 #
vertex $-1 $469 $470 #
vertex $-1 $362 $471 #
straight-curve $-1 -65.539109469893489 14.613800914954453 -7.9326622499183799 0 0 1 I I #
edge $-1 $360 1.3100483426199858 $366 25.297456802048949 $357 $472 forward 7 unknown #
coedge $-1 $473 $244 $248 $371 forward $365 $-1 #
coedge $-1 $244 $473 $468 $474 reversed $365 $-1 #
loop $-1 $-1 $244 $351 #
vertex $-1 $474 $475 #
straight-curve $-1 0 38.601209374383416 -13.535881137327959 1 0 0 I I #
straight-curve $-1 0 14.613800914954453 -13.535881137327959 1 0 0 I I #
coedge $-1 $248 $247 $465 $476 reversed $142 $-1 #
edge $-1 $250 5.6032188874095787 $466 10.262105612427181 $247 $477 forward 7 unknown #
edge $-1 $249 13.535881137327959 $478 18.194767862345561 $248 $479 forward 7 unknown #
point $-1 65.539109469893489 38.601209374383416 -13.535881137327959 #
point $-1 65.539109469893489 14.613800914954453 -13.535881137327959 #
loop $-1 $-1 $260 $252 #
plane-surface $-1 0 0 18.194767862345561 0 0 1 1 0 0 forward_v I I I I #
coedge $-1 $377 $255 $257 $381 reversed $150 $-1 #
coedge $-1 $255 $376 $480 $481 reversed $150 $-1 #
coedge $-1 $263 $258 $255 $379 forward $253 $-1 #
edge $-1 $382 -39.988433997696106 $482 -27.811845929580098 $378 $483 forward 7 unknown #
coedge $-1 $257 $256 $385 $484 reversed $93 $-1 #
edge $-1 $485 -16.134137227717076 $382 2.1388861263899031e-014 $376 $486 forward 7 unknown #
vertex $-1 $259 $487 #
straight-curve $-1 -65.539109469893489 1.3632091962334059 6.018179794229547 0 -1 0 I I #
coedge $-1 $480 $260 $263 $389 forward $374 $-1 #
coedge $-1 $260 $480 $380 $484 forward $374 $-1 #
vertex $-1 $261 $488 #
straight-curve $-1 -82.232549074370326 6.72386007066088 18.194767862345564 -1 0 0 I I #
straight-curve $-1 -65.539109469893475 6.72386007066088 6.0181797942295674 0.65605901945558964 0 0.75470958851134928 I I #
edge $-1 $264 -6.72386007066088 $482 1.2710232857272565 $263 $489 forward 7 unknown #
point $-1 -65.539109469893489 6.72386007066088 18.194767862345561 #
point $-1 -65.539109469893489 6.72386007066088 6.0181797942295514 #
edge $-1 $490 1 $490 0 $267 $-1 forward 7 unknown #
vertex $-1 $268 $491 #
ellipse-curve $-1 -59.491926756693147 0.3279533855503729 11.450414808831981 -0.75470958851134928 0 0.65605901945558964 0.16401475486389741 0 0.18867739712783732 1 I I #
point $-1 -60.082621590340601 0.3279533855503729 12.29515122541541 #
edge $-1 $492 1 $492 0 $271 $-1 forward 7 unknown #
vertex $-1 $272 $493 #
ellipse-curve $-1 -59.491926756693147 2.7264183924668117 11.450414808831981 -0.75470958851134928 0 0.65605901945558964 0.16401475486389741 0 0.18867739712783732 1 I I #
point $-1 -60.082621590340601 2.7264183924668117 12.29515122541541 #
edge $-1 $494 1 $494 0 $275 $-1 forward 7 unknown #
vertex $-1 $276 $495 #
ellipse-curve $-1 -59.491926756693147 5.1248833993832505 11.450414808831981 -0.75470958851134928 0 0.65605901945558964 0.16401475486389741 0 0.18867739712783732 1 I I #
point $-1 -60.082621590340601 5.1248833993832505 12.29515122541541 #
loop $-1 $-1 $287 $279 #
plane-surface $-1 65.539109469893489 0 0 -1 0 0 0 0 1 forward_v I I I I #
coedge $-1 $407 $282 $284 $411 reversed $179 $-1 #
coedge $-1 $282 $406 $496 $497 reversed $179 $-1 #
coedge $-1 $290 $285 $282 $409 forward $280 $-1 #
edge $-1 $412 0.89398244068976851 $498 11.919673043458296 $408 $499 forward 7 unknown #
coedge $-1 $284 $283 $415 $500 reversed $112 $-1 #
edge $-1 $501 -131.07821893978706 $412 -110.27185915856634 $406 $502 forward 7 unknown #
vertex $-1 $286 $503 #
straight-curve $-1 54.513418867124969 -0.9422416577532573 18.194767862345557 0 -1 0 I I #
coedge $-1 $496 $287 $290 $419 reversed $404 $-1 #
coedge $-1 $287 $496 $410 $500 forward $404 $-1 #
vertex $-1 $288 $504 #
straight-curve $-1 65.539109469893489 2.2768752589088876 90.585740315245332 0 0 1 I I #
straight-curve $-1 -3.9217622053368331 2.2768752589088876 111.71060895526037 0.52991925155115449 0 -0.84804810408105047 I I #
edge $-1 $498 -6.0458418899219168 $291 2.2768752589088876 $414 $505 forward 7 unknown #
point $-1 65.539109469893489 2.2768752589088876 18.194767862345561 #
point $-1 54.513418867124962 2.2768752589088876 18.194767862345557 #
edge $-1 $506 1 $506 0 $294 $-1 forward 7 unknown #
vertex $-1 $295 $507 #
ellipse-curve $-1 57.679153158563196 -3.667922704541688 7.9057331928598549 0.84804810408105047 0 0.52991925155115449 0.52991925155115449 0 -0.84804810408105047 1 I I #
point $-1 60.556183420060407 -3.667922704541688 8.5243227756183408 #
edge $-1 $508 1 $508 0 $298 $-1 forward 7 unknown #
vertex $-1 $299 $509 #
ellipse-curve $-1 57.679153158563196 -0.1010439264713483 7.9057331928598549 0.84804810408105047 0 0.52991925155115449 0.52991925155115449 0 -0.84804810408105047 1 I I #
point $-1 60.556183420060407 -0.1010439264713483 8.5243227756183408 #
plane-surface $-1 65.539109469893489 0 0 -1 0 0 0 0 1 forward_v I I I I #
coedge $-1 $307 $305 $309 $435 reversed $201 $-1 #
edge $-1 $320 -18.194767862345561 $437 18.194767862345561 $319 $510 forward 7 unknown #
vertex $-1 $435 $511 #
straight-curve $-1 -65.539109469893489 -38.601209374383416 0 0 0 -1 I I #
edge $-1 $433 -38.601209374383416 $437 38.601209374383416 $431 $512 forward 7 unknown #
straight-curve $-1 0 -38.601209374383416 -18.194767862345561 -1 0 0 I I #
vertex $-1 $312 $513 #
straight-curve $-1 0 38.601209374383416 -18.194767862345561 1 0 0 I I #
point $-1 65.539109469893489 38.601209374383416 -18.194767862345561 #
point $-1 65.539109469893489 -38.601209374383416 -18.194767862345561 #
straight-curve $-1 -65.539109469893489 0 18.194767862345561 0 -1 0 I I #
point $-1 -65.539109469893489 38.601209374383416 18.194767862345561 #
point $-1 -65.539109469893489 -38.601209374383416 18.194767862345561 #
straight-curve $-1 65.539109469893489 -38.601209374383416 0 0 0 -1 I I #
straight-curve $-1 65.539109469893489 38.601209374383416 0 0 0 -1 I I #
plane-surface $-1 65.539109469893489 0 0 -1 0 0 0 0 1 forward_v I I I I #
coedge $-1 $333 $332 $343 $458 reversed $134 $-1 #
coedge $-1 $514 $336 $333 $449 forward $330 $-1 #
edge $-1 $450 16.877566090788918 $515 38.601209374383416 $333 $516 forward 7 unknown #
vertex $-1 $449 $517 #
straight-curve $-1 -65.539109469893489 -16.877566090788918 7.9551509763329147 0 0 -1 I I #
coedge $-1 $336 $514 $338 $454 forward $330 $-1 #
straight-curve $-1 0 -16.877566090788918 18.194767862345561 -1 0 0 I I #
edge $-1 $461 -38.601209374383416 $339 -16.877566090788918 $338 $518 forward 7 unknown #
point $-1 65.539109469893489 -16.877566090788918 18.194767862345564 #
straight-curve $-1 -65.539109469893489 -13.869693866293083 13.625836042986094 0 -1 0 I I #
coedge $-1 $343 $342 $514 $519 reversed $220 $-1 #
edge $-1 $515 -18.194767862345561 $344 -13.625836042986094 $447 $520 forward 7 unknown #
point $-1 -65.539109469893489 -38.601209374383416 13.625836042986094 #
point $-1 -65.539109469893489 -16.877566090788918 13.625836042986094 #
vertex $-1 $454 $521 #
straight-curve $-1 65.539109469893489 -38.601209374383416 0 0 0 -1 I I #
plane-surface $-1 0 38.601209374383416 0 0 -1 0 0 0 -1 forward_v I I I I #
coedge $-1 $522 $354 $358 $469 forward $237 $-1 #
coedge $-1 $354 $522 $369 $476 forward $237 $-1 #
vertex $-1 $356 $523 #
straight-curve $-1 0 14.613800914954453 -18.194767862345561 -1 0 0 I I #
coedge $-1 $358 $357 $364 $474 forward $352 $-1 #
edge $-1 $359 14.613800914954453 $524 38.601209374383416 $358 $525 forward 7 unknown #
point $-1 -65.539109469893489 14.613800914954453 -18.194767862345561 #
point $-1 -65.539109469893489 14.613800914954453 -13.535881137327959 #
straight-curve $-1 -65.539109469893489 13.303752572334467 -13.535881137327959 0 1 0 I I #
coedge $-1 $364 $363 $522 $526 reversed $365 $-1 #
edge $-1 $366 13.535881137327959 $524 18.194767862345561 $364 $527 forward 7 unknown #
point $-1 -65.539109469893489 38.601209374383416 -13.535881137327959 #
edge $-1 $478 -38.601209374383416 $466 -14.613800914954453 $369 $528 forward 7 unknown #
straight-curve $-1 65.539109469893489 14.613800914954453 -7.9326622499183799 0 0 -1 I I #
vertex $-1 $476 $529 #
straight-curve $-1 65.539109469893489 38.601209374383416 0 0 0 -1 I I #
coedge $-1 $385 $384 $377 $481 forward $374 $-1 #
edge $-1 $482 16.693439604476836 $485 27.278385853854836 $480 $530 forward 7 unknown #
vertex $-1 $481 $531 #
straight-curve $-1 -65.539109469893489 -1.2710232857272565 46.006613791925659 0 0 1 I I #
edge $-1 $485 -2.6342324819606624 $386 5.3606508744274741 $385 $532 forward 7 unknown #
vertex $-1 $484 $533 #
straight-curve $-1 -65.539109469893475 -1.2710232857272565 6.0181797942295674 -0.65605901945558964 0 -0.75470958851134928 I I #
point $-1 -65.539109469893489 -1.2710232857272565 6.0181797942295514 #
point $-1 -54.95416322051549 6.72386007066088 18.194767862345561 #
straight-curve $-1 -65.539109469893489 0 18.194767862345561 0 -1 0 I I #
vertex $-1 $392 $534 #
point $-1 -59.327912001829255 0.3279533855503729 11.63909220595982 #
vertex $-1 $396 $535 #
point $-1 -59.327912001829255 2.7264183924668117 11.63909220595982 #
vertex $-1 $400 $536 #
point $-1 -59.327912001829255 5.1248833993832505 11.63909220595982 #
coedge $-1 $415 $414 $407 $497 forward $404 $-1 #
edge $-1 $498 72.390972452899774 $501 90.035766418192225 $496 $537 forward 7 unknown #
vertex $-1 $419 $538 #
straight-curve $-1 53.619436426435193 -6.0458418899219168 18.194767862345557 1 0 0 I I #
edge $-1 $501 -5.1036002321686595 $416 3.2191169166621449 $415 $539 forward 7 unknown #
vertex $-1 $500 $540 #
straight-curve $-1 -3.9217622053368331 -6.0458418899219168 111.71060895526037 -0.52991925155115449 0 0.84804810408105047 I I #
point $-1 54.513418867124962 -6.0458418899219168 18.194767862345557 #
point $-1 65.539109469893489 2.2768752589088876 0.54997389705310695 #
straight-curve $-1 65.539109469893489 0 18.194767862345561 0 1 0 I I #
vertex $-1 $422 $541 #
point $-1 58.209072410114352 -3.667922704541688 7.0576850887788041 #
vertex $-1 $426 $542 #
point $-1 58.209072410114352 -0.1010439264713483 7.0576850887788041 #
straight-curve $-1 -65.539109469893489 38.601209374383416 0 0 0 -1 I I #
point $-1 -65.539109469893489 -38.601209374383416 -18.194767862345561 #
straight-curve $-1 -65.539109469893489 0 -18.194767862345561 0 1 0 I I #
point $-1 -65.539109469893489 38.601209374383416 -18.194767862345561 #
coedge $-1 $452 $448 $457 $519 forward $330 $-1 #
vertex $-1 $449 $543 #
straight-curve $-1 -65.539109469893489 0 18.194767862345561 0 -1 0 I I #
point $-1 -65.539109469893489 -16.877566090788918 18.194767862345564 #
straight-curve $-1 65.539109469893489 0 18.194767862345561 0 1 0 I I #
edge $-1 $515 -65.539109469893489 $461 65.539109469893489 $457 $544 forward 7 unknown #
straight-curve $-1 -65.539109469893489 -38.601209374383416 0 0 0 -1 I I #
point $-1 65.539109469893489 -38.601209374383416 18.194767862345561 #
coedge $-1 $465 $464 $473 $526 forward $237 $-1 #
point $-1 65.539109469893489 14.613800914954453 -18.194767862345561 #
vertex $-1 $526 $545 #
straight-curve $-1 -65.539109469893489 0 -18.194767862345561 0 1 0 I I #
edge $-1 $524 -65.539109469893489 $478 65.539109469893489 $473 $546 forward 7 unknown #
straight-curve $-1 -65.539109469893489 38.601209374383416 0 0 0 -1 I I #
straight-curve $-1 65.539109469893489 0 -18.194767862345561 0 -1 0 I I #
point $-1 65.539109469893489 38.601209374383416 -18.194767862345561 #
straight-curve $-1 -82.232549074370326 -1.2710232857272565 18.194767862345564 1 0 0 I I #
point $-1 -65.539109469893489 -1.2710232857272565 18.194767862345561 #
straight-curve $-1 -54.95416322051549 1.3632091962334059 18.194767862345561 0 1 0 I I #
point $-1 -54.95416322051549 -1.2710232857272565 18.194767862345561 #
point $-1 -59.303249359565314 0.3279533855503729 11.286400053968086 #
point $-1 -59.303249359565314 2.7264183924668117 11.286400053968086 #
point $-1 -59.303249359565314 5.1248833993832505 11.286400053968086 #
straight-curve $-1 65.539109469893489 -6.0458418899219168 90.585740315245332 0 0 -1 I I #
point $-1 65.539109469893489 -6.0458418899219168 18.194767862345561 #
straight-curve $-1 65.539109469893489 -0.9422416577532573 0.54997389705310695 0 1 0 I I #
point $-1 65.539109469893489 -6.0458418899219168 0.54997389705310695 #
point $-1 56.831105054482151 -3.667922704541688 7.3758139413087003 #
point $-1 56.831105054482151 -0.1010439264713483 7.3758139413087003 #
point $-1 -65.539109469893489 -38.601209374383416 18.194767862345561 #
straight-curve $-1 0 -38.601209374383416 18.194767862345561 1 0 0 I I #
point $-1 -65.539109469893489 38.601209374383416 -18.194767862345561 #
straight-curve $-1 0 38.601209374383416 -18.194767862345561 1 0 0 I I #
End-of-ACIS-data 