500 0 7 0           
7 Unknown 11 ACIS 5.0 NT 24 Thu Mar 25 16:35:49 1999 
-1 9.9999999999999995e-007 1e-010 
body $-1 $7 $-1 $8 #
body $-1 $9 $-1 $10 #
body $-1 $11 $-1 $12 #
body $-1 $13 $-1 $14 #
body $-1 $15 $-1 $16 #
body $-1 $17 $-1 $18 #
body $-1 $19 $-1 $20 #
lump $-1 $-1 $21 $0 #
transform $-1 1 0 0 0 1 0 0 0 1 65.592822046571243 36.515946612284736 15.214624857902114 1 rotate no_reflect no_shear #
lump $-1 $-1 $22 $1 #
transform $-1 1 0 0 0 1 0 0 0 1 65.592822046571243 36.515946612284736 15.214624857902114 1 rotate no_reflect no_shear #
lump $-1 $-1 $23 $2 #
transform $-1 1 0 0 0 1 0 0 0 1 65.592822046571243 36.515946612284736 15.214624857902114 1 rotate no_reflect no_shear #
lump $-1 $-1 $24 $3 #
transform $-1 1 0 0 0 1 0 0 0 1 65.592822046571243 36.515946612284736 15.214624857902114 1 rotate no_reflect no_shear #
lump $-1 $-1 $25 $4 #
transform $-1 1 0 0 0 1 0 0 0 1 65.592822046571243 36.515946612284736 15.214624857902114 1 rotate no_reflect no_shear #
lump $-1 $-1 $26 $5 #
transform $-1 1 0 0 0 1 0 0 0 1 65.592822046571243 36.515946612284736 15.214624857902114 1 rotate no_reflect no_shear #
lump $-1 $-1 $27 $6 #
transform $-1 1 0 0 0 1 0 0 0 1 65.592822046571243 36.515946612284736 15.214624857902114 1 rotate no_reflect no_shear #
shell $-1 $-1 $-1 $28 $-1 $7 #
shell $-1 $-1 $-1 $29 $-1 $9 #
shell $-1 $-1 $-1 $30 $-1 $11 #
shell $-1 $-1 $-1 $31 $-1 $13 #
shell $-1 $-1 $-1 $32 $-1 $15 #
shell $-1 $-1 $-1 $33 $-1 $17 #
shell $-1 $-1 $-1 $34 $-1 $19 #
face $-1 $35 $36 $21 $-1 $37 forward single #
face $-1 $38 $39 $22 $-1 $40 reversed single #
face $-1 $41 $42 $23 $-1 $43 forward single #
face $-1 $44 $45 $24 $-1 $46 forward single #
face $-1 $47 $48 $25 $-1 $49 reversed single #
face $-1 $50 $51 $26 $-1 $52 forward single #
face $-1 $53 $54 $27 $-1 $55 forward single #
face $-1 $56 $57 $21 $-1 $58 reversed single #
loop $-1 $-1 $59 $28 #
plane-surface $-1 0 0 15.214624857902114 0 0 1 1 0 0 forward_v I I I I #
face $-1 $60 $61 $22 $-1 $62 reversed single #
loop $-1 $-1 $63 $29 #
plane-surface $-1 110.47526763360032 17.859125157317735 181.42943394969555 0 1 0 0.85716730853699208 0 0.51503806187062418 forward_v I I I I #
face $-1 $64 $65 $23 $-1 $66 forward single #
loop $-1 $67 $68 $30 #
cone-surface $-1 59.750497708386348 23.189645573022588 7.2957050225559206 -0.85716730853699208 0 -0.51503806187062418 1.2875951546765605 0 -2.1429182713424804 1 I I 0 1 2.5 forward I I I I #
face $-1 $69 $70 $24 $-1 $71 forward single #
loop $-1 $72 $73 $31 #
cone-surface $-1 59.750497708386348 31.185426196579868 7.2957050225559206 -0.85716730853699208 0 -0.51503806187062418 1.2875951546765605 0 -2.1429182713424804 1 I I 0 1 2.5 forward I I I I #
face $-1 $74 $75 $25 $-1 $76 reversed single #
loop $-1 $-1 $77 $32 #
plane-surface $-1 -178.04086751258194 17.859125157317735 68.981388483684881 0 1 0 -0.85716730853699208 0 0.51503806187062418 forward_v I I I I #
face $-1 $78 $79 $26 $-1 $80 forward single #
loop $-1 $81 $82 $33 #
cone-surface $-1 -59.750497708386348 23.189645573022588 7.2957050225559064 0.85716730853699208 0 -0.51503806187062418 1.2875951546765605 0 2.1429182713424804 1 I I 0 1 2.5 forward I I I I #
face $-1 $83 $84 $27 $-1 $85 forward single #
loop $-1 $86 $87 $34 #
cone-surface $-1 -59.750497708386348 31.185426196579868 7.2957050225559064 0.85716730853699208 0 -0.51503806187062418 1.2875951546765605 0 2.1429182713424804 1 I I 0 1 2.5 forward I I I I #
face $-1 $88 $89 $21 $-1 $90 reversed single #
loop $-1 $-1 $91 $35 #
plane-surface $-1 0 0 -15.214624857902114 0 0 1 1 0 0 forward_v I I I I #
coedge $-1 $92 $93 $94 $95 forward $36 $-1 #
face $-1 $96 $97 $22 $-1 $98 forward single #
loop $-1 $-1 $99 $38 #
plane-surface $-1 -1.9727778324104008 27.187535884801235 113.86383407071393 0.85716730853699208 0 0.51503806187062418 0.51503806187062418 0 -0.85716730853699208 forward_v I I I I #
coedge $-1 $100 $101 $102 $103 reversed $39 $-1 #
face $-1 $-1 $104 $23 $-1 $105 forward single #
loop $-1 $106 $107 $41 #
cone-surface $-1 56.982302738160683 23.189645573022588 5.6324057364708526 -0.85716730853699208 0 -0.51503806187062418 0.64379757733828025 0 -1.0714591356712402 1 I I -0.70710678118654746 0.70710678118654746 1.25 forward I I I I #
loop $-1 $-1 $108 $30 #
coedge $-1 $68 $68 $109 $110 reversed $42 $-1 #
face $-1 $-1 $111 $24 $-1 $112 forward single #
loop $-1 $113 $114 $44 #
cone-surface $-1 56.982302738160683 31.185426196579868 5.6324057364708526 -0.85716730853699208 0 -0.51503806187062418 0.64379757733828025 0 -1.0714591356712402 1 I I -0.70710678118654746 0.70710678118654746 1.25 forward I I I I #
loop $-1 $-1 $115 $31 #
coedge $-1 $73 $73 $116 $117 reversed $45 $-1 #
face $-1 $118 $119 $25 $-1 $120 reversed single #
loop $-1 $-1 $121 $47 #
plane-surface $-1 -65.592822046571214 27.187535884801235 1.4157886047032662 -0.85716730853699208 0 0.51503806187062418 0.51503806187062418 0 0.85716730853699208 forward_v I I I I #
coedge $-1 $122 $123 $124 $125 reversed $48 $-1 #
face $-1 $-1 $126 $26 $-1 $127 forward single #
loop $-1 $128 $129 $50 #
cone-surface $-1 -56.982302738160683 23.189645573022588 5.6324057364708384 0.85716730853699208 0 -0.51503806187062418 0.64379757733828025 0 1.0714591356712402 1 I I -0.70710678118654746 0.70710678118654746 1.25 forward I I I I #
loop $-1 $-1 $130 $33 #
coedge $-1 $82 $82 $131 $132 reversed $51 $-1 #
face $-1 $-1 $133 $27 $-1 $134 forward single #
loop $-1 $135 $136 $53 #
cone-surface $-1 -56.982302738160683 31.185426196579868 5.6324057364708384 0.85716730853699208 0 -0.51503806187062418 0.64379757733828025 0 1.0714591356712402 1 I I -0.70710678118654746 0.70710678118654746 1.25 forward I I I I #
loop $-1 $-1 $137 $34 #
coedge $-1 $87 $87 $138 $139 reversed $54 $-1 #
face $-1 $140 $141 $21 $-1 $142 reversed single #
loop $-1 $-1 $143 $56 #
plane-surface $-1 0 -36.515946612284736 0 0 1 0 0 0 1 forward_v I I I I #
coedge $-1 $144 $145 $146 $147 forward $57 $-1 #
coedge $-1 $148 $59 $149 $150 forward $36 $-1 #
coedge $-1 $59 $148 $151 $152 forward $36 $-1 #
coedge $-1 $153 $154 $59 $95 reversed $155 $-1 #
edge $-1 $156 -36.515946612284736 $157 36.515946612284736 $94 $158 forward 7 unknown #
face $-1 $159 $160 $22 $-1 $161 reversed single #
loop $-1 $-1 $162 $60 #
plane-surface $-1 0 0 15.214624857902114 0 0 1 1 0 0 forward_v I I I I #
coedge $-1 $163 $164 $165 $166 reversed $61 $-1 #
coedge $-1 $101 $63 $167 $168 reversed $39 $-1 #
coedge $-1 $63 $100 $163 $169 reversed $39 $-1 #
coedge $-1 $165 $170 $63 $103 forward $160 $-1 #
edge $-1 $171 75.500092116945666 $172 89.298928370144594 $102 $173 forward 7 unknown #
loop $-1 $-1 $109 $64 #
plane-surface $-1 -1.9727778324104008 27.187535884801235 113.86383407071393 0.85716730853699208 0 0.51503806187062418 0.51503806187062418 0 -0.85716730853699208 forward_v I I I I #
loop $-1 $-1 $174 $41 #
coedge $-1 $107 $107 $108 $175 reversed $65 $-1 #
coedge $-1 $108 $108 $107 $175 forward $67 $-1 #
coedge $-1 $109 $109 $68 $110 forward $104 $-1 #
edge $-1 $176 0 $176 6.2831853071796004 $109 $177 forward 7 unknown #
loop $-1 $-1 $116 $69 #
plane-surface $-1 -1.9727778324104008 27.187535884801235 113.86383407071393 0.85716730853699208 0 0.51503806187062418 0.51503806187062418 0 -0.85716730853699208 forward_v I I I I #
loop $-1 $-1 $178 $44 #
coedge $-1 $114 $114 $115 $179 reversed $70 $-1 #
coedge $-1 $115 $115 $114 $179 forward $72 $-1 #
coedge $-1 $116 $116 $73 $117 forward $111 $-1 #
edge $-1 $180 0 $180 6.2831853071796004 $116 $181 forward 7 unknown #
face $-1 $182 $183 $25 $-1 $184 forward single #
loop $-1 $-1 $185 $74 #
plane-surface $-1 0 36.515946612284736 0 0 -1 0 0 0 -1 forward_v I I I I #
coedge $-1 $186 $187 $188 $189 reversed $75 $-1 #
coedge $-1 $123 $77 $190 $191 reversed $48 $-1 #
coedge $-1 $77 $122 $186 $192 reversed $48 $-1 #
coedge $-1 $188 $193 $77 $125 forward $183 $-1 #
edge $-1 $194 23.427611709719727 $195 31.718788716980683 $124 $196 forward 7 unknown #
loop $-1 $-1 $131 $78 #
plane-surface $-1 -65.592822046571214 27.187535884801235 1.4157886047032662 -0.85716730853699208 0 0.51503806187062418 0.51503806187062418 0 0.85716730853699208 forward_v I I I I #
loop $-1 $-1 $197 $50 #
coedge $-1 $129 $129 $130 $198 reversed $79 $-1 #
coedge $-1 $130 $130 $129 $198 forward $81 $-1 #
coedge $-1 $131 $131 $82 $132 forward $126 $-1 #
edge $-1 $199 0 $199 6.2831853071796004 $131 $200 forward 7 unknown #
loop $-1 $-1 $138 $83 #
plane-surface $-1 -65.592822046571214 27.187535884801235 1.4157886047032662 -0.85716730853699208 0 0.51503806187062418 0.51503806187062418 0 0.85716730853699208 forward_v I I I I #
loop $-1 $-1 $201 $53 #
coedge $-1 $136 $136 $137 $202 reversed $84 $-1 #
coedge $-1 $137 $137 $136 $202 forward $86 $-1 #
coedge $-1 $138 $138 $87 $139 forward $133 $-1 #
edge $-1 $203 0 $203 6.2831853071796004 $138 $204 forward 7 unknown #
face $-1 $205 $206 $21 $-1 $207 reversed single #
loop $-1 $-1 $208 $88 #
plane-surface $-1 -65.592822046571243 0 0 1 0 0 0 0 -1 forward_v I I I I #
coedge $-1 $209 $151 $210 $211 forward $89 $-1 #
coedge $-1 $212 $91 $209 $213 forward $57 $-1 #
coedge $-1 $91 $212 $214 $215 forward $57 $-1 #
coedge $-1 $154 $153 $91 $147 reversed $155 $-1 #
edge $-1 $216 -36.515946612284736 $217 36.515946612284736 $146 $218 forward 7 unknown #
coedge $-1 $93 $92 $219 $220 forward $36 $-1 #
coedge $-1 $221 $222 $92 $150 reversed $206 $-1 #
edge $-1 $157 -65.592822046571243 $223 65.592822046571243 $149 $224 forward 7 unknown #
coedge $-1 $143 $225 $93 $152 reversed $89 $-1 #
edge $-1 $226 -65.592822046571243 $156 65.592822046571243 $151 $227 forward 7 unknown #
coedge $-1 $146 $94 $225 $228 forward $155 $-1 #
coedge $-1 $94 $146 $221 $229 reversed $155 $-1 #
loop $-1 $-1 $153 $205 #
vertex $-1 $95 $230 #
vertex $-1 $95 $231 #
straight-curve $-1 65.592822046571243 0 15.214624857902114 0 1 0 I I #
face $-1 $-1 $232 $22 $-1 $233 reversed single #
loop $-1 $-1 $102 $96 #
plane-surface $-1 65.592822046571243 0 0 -1 0 0 0 0 1 forward_v I I I I #
coedge $-1 $167 $234 $235 $236 forward $97 $-1 #
coedge $-1 $235 $99 $101 $169 forward $61 $-1 #
coedge $-1 $99 $235 $237 $238 reversed $61 $-1 #
coedge $-1 $239 $102 $99 $166 forward $160 $-1 #
edge $-1 $172 4.2653572149171168 $240 22.922178669884119 $165 $241 forward 7 unknown #
coedge $-1 $242 $162 $100 $168 forward $97 $-1 #
edge $-1 $243 2.0640112225101035 $171 10.35518822977108 $167 $244 forward 7 unknown #
edge $-1 $172 -131.1856440931426 $243 -115.08746102459939 $101 $245 forward 7 unknown #
coedge $-1 $102 $239 $242 $246 reversed $160 $-1 #
vertex $-1 $246 $247 #
vertex $-1 $103 $248 #
straight-curve $-1 65.592822046571243 17.859125157317735 90.714716974847775 0 0 -1 I I #
coedge $-1 $174 $174 $-1 $249 reversed $106 $-1 #
edge $-1 $250 0 $250 6.2831853071796004 $107 $251 forward 7 unknown #
vertex $-1 $110 $252 #
ellipse-curve $-1 61.447233542940722 23.189645573022588 8.315206731302677 0.85716730853699208 0 0.51503806187062418 1.2875951546765605 0 -2.1429182713424804 1 I I #
coedge $-1 $178 $178 $-1 $253 reversed $113 $-1 #
edge $-1 $254 0 $254 6.2831853071796004 $114 $255 forward 7 unknown #
vertex $-1 $117 $256 #
ellipse-curve $-1 61.447233542940722 31.185426196579868 8.315206731302677 0.85716730853699208 0 0.51503806187062418 1.2875951546765605 0 -2.1429182713424804 1 I I #
face $-1 $-1 $257 $25 $-1 $258 reversed single #
loop $-1 $-1 $188 $118 #
plane-surface $-1 0 0 15.214624857902114 0 0 1 1 0 0 forward_v I I I I #
coedge $-1 $259 $260 $187 $261 forward $119 $-1 #
coedge $-1 $262 $121 $123 $192 forward $75 $-1 #
coedge $-1 $121 $262 $185 $261 reversed $75 $-1 #
coedge $-1 $263 $124 $121 $189 forward $183 $-1 #
edge $-1 $195 4.2653572149171168 $264 22.922178669884119 $188 $265 forward 7 unknown #
coedge $-1 $266 $267 $122 $191 forward $257 $-1 #
edge $-1 $268 -33.074905637139224 $194 -19.276069383940325 $190 $269 forward 7 unknown #
edge $-1 $195 -16.098183068543086 $268 5.5178419308758838e-014 $123 $270 forward 7 unknown #
coedge $-1 $124 $263 $266 $271 forward $183 $-1 #
vertex $-1 $191 $272 #
vertex $-1 $125 $273 #
straight-curve $-1 -89.02043375629097 17.859125157317735 15.214624857902116 1 0 0 I I #
coedge $-1 $197 $197 $-1 $274 reversed $128 $-1 #
edge $-1 $275 0 $275 6.2831853071796004 $129 $276 forward 7 unknown #
vertex $-1 $132 $277 #
ellipse-curve $-1 -61.447233542940758 23.189645573022588 8.3152067313026823 -0.85716730853699208 0 0.51503806187062418 1.2875951546765605 0 2.1429182713424804 1 I I #
coedge $-1 $201 $201 $-1 $278 reversed $135 $-1 #
edge $-1 $279 0 $279 6.2831853071796004 $136 $280 forward 7 unknown #
vertex $-1 $139 $281 #
ellipse-curve $-1 -61.447233542940758 31.185426196579868 8.3152067313026823 -0.85716730853699208 0 0.51503806187062418 1.2875951546765605 0 2.1429182713424804 1 I I #
face $-1 $-1 $155 $21 $-1 $282 reversed single #
loop $-1 $-1 $221 $140 #
plane-surface $-1 0 36.515946612284736 0 0 -1 0 0 0 -1 forward_v I I I I #
coedge $-1 $283 $219 $222 $284 forward $141 $-1 #
coedge $-1 $225 $143 $144 $213 reversed $89 $-1 #
coedge $-1 $219 $283 $143 $211 reversed $141 $-1 #
edge $-1 $226 -15.214624857902114 $285 15.214624857902114 $210 $286 forward 7 unknown #
coedge $-1 $145 $144 $283 $287 forward $57 $-1 #
edge $-1 $217 -65.592822046571243 $285 65.592822046571243 $209 $288 forward 7 unknown #
coedge $-1 $222 $221 $145 $215 reversed $206 $-1 #
edge $-1 $289 -65.592822046571243 $216 65.592822046571243 $214 $290 forward 7 unknown #
vertex $-1 $147 $291 #
vertex $-1 $228 $292 #
straight-curve $-1 65.592822046571243 0 -15.214624857902114 0 -1 0 I I #
coedge $-1 $208 $210 $148 $220 reversed $141 $-1 #
edge $-1 $223 -36.515946612284736 $226 36.515946612284736 $219 $293 forward 7 unknown #
coedge $-1 $214 $149 $154 $229 forward $206 $-1 #
coedge $-1 $149 $214 $208 $284 reversed $206 $-1 #
vertex $-1 $150 $294 #
straight-curve $-1 0 36.515946612284736 15.214624857902114 -1 0 0 I I #
coedge $-1 $151 $209 $153 $228 reversed $89 $-1 #
vertex $-1 $220 $295 #
straight-curve $-1 0 -36.515946612284736 15.214624857902114 1 0 0 I I #
edge $-1 $156 -15.214624857902114 $217 15.214624857902114 $153 $296 forward 7 unknown #
edge $-1 $157 -15.214624857902114 $216 15.214624857902114 $154 $297 forward 7 unknown #
point $-1 65.592822046571243 -36.515946612284736 15.214624857902114 #
point $-1 65.592822046571243 36.515946612284736 15.214624857902114 #
loop $-1 $-1 $237 $159 #
plane-surface $-1 0 36.515946612284736 0 0 -1 0 0 0 -1 forward_v I I I I #
coedge $-1 $162 $242 $298 $299 forward $97 $-1 #
coedge $-1 $164 $163 $162 $236 reversed $61 $-1 #
edge $-1 $300 -22.922178669884119 $243 -4.2653572149171168 $162 $301 forward 7 unknown #
coedge $-1 $298 $302 $164 $238 forward $232 $-1 #
edge $-1 $240 -81.877438162441322 $300 -65.779255093898115 $237 $303 forward 7 unknown #
coedge $-1 $170 $165 $302 $304 reversed $160 $-1 #
vertex $-1 $166 $305 #
straight-curve $-1 65.592822046571243 13.593767942400618 1.4157886047031667 0 1 0 I I #
coedge $-1 $234 $167 $170 $246 forward $97 $-1 #
vertex $-1 $168 $306 #
straight-curve $-1 55.237633816800162 17.859125157317735 15.214624857902109 1 0 0 I I #
straight-curve $-1 -1.9727778324104008 17.859125157317735 113.86383407071393 -0.51503806187062418 0 0.85716730853699208 I I #
edge $-1 $171 17.859125157317735 $307 36.515946612284736 $170 $308 forward 7 unknown #
point $-1 65.592822046571243 17.859125157317735 15.214624857902114 #
point $-1 65.592822046571243 17.859125157317735 1.4157886047031809 #
edge $-1 $309 1 $309 0 $174 $-1 forward 7 unknown #
vertex $-1 $175 $310 #
ellipse-curve $-1 58.053761873831924 23.189645573022588 6.2762033138091331 0.85716730853699208 0 0.51503806187062418 1.2875951546765605 0 -2.1429182713424804 1 I I #
point $-1 62.734828697617338 23.189645573022588 6.172288459960229 #
edge $-1 $311 1 $311 0 $178 $-1 forward 7 unknown #
vertex $-1 $179 $312 #
ellipse-curve $-1 58.053761873831924 31.185426196579868 6.2762033138091331 0.85716730853699208 0 0.51503806187062418 1.2875951546765605 0 -2.1429182713424804 1 I I #
point $-1 62.734828697617338 31.185426196579868 6.172288459960229 #
loop $-1 $-1 $190 $182 #
plane-surface $-1 -65.592822046571243 0 0 1 0 0 0 0 -1 forward_v I I I I #
coedge $-1 $260 $185 $313 $314 reversed $119 $-1 #
coedge $-1 $185 $259 $263 $315 reversed $119 $-1 #
edge $-1 $264 0.18643304732689139 $316 16.28461611587003 $185 $317 forward 7 unknown #
coedge $-1 $187 $186 $267 $318 reversed $75 $-1 #
coedge $-1 $193 $188 $260 $315 forward $183 $-1 #
vertex $-1 $315 $319 #
straight-curve $-1 -57.301645039310287 13.593767942400618 15.214624857902114 0 1 0 I I #
coedge $-1 $313 $190 $193 $271 reversed $257 $-1 #
coedge $-1 $190 $313 $262 $318 forward $257 $-1 #
vertex $-1 $191 $320 #
straight-curve $-1 -65.592822046571243 17.859125157317735 34.490694241842441 0 0 1 I I #
straight-curve $-1 -65.592822046571214 17.859125157317735 1.4157886047032662 -0.51503806187062418 0 -0.85716730853699208 I I #
edge $-1 $321 -36.515946612284736 $194 -17.859125157317735 $266 $322 forward 7 unknown #
point $-1 -65.592822046571243 17.859125157317735 15.214624857902114 #
point $-1 -57.301645039310287 17.859125157317735 15.214624857902116 #
edge $-1 $323 1 $323 0 $197 $-1 forward 7 unknown #
vertex $-1 $198 $324 #
ellipse-curve $-1 -58.053761873831924 23.189645573022588 6.2762033138091189 -0.85716730853699208 0 0.51503806187062418 1.2875951546765605 0 2.1429182713424804 1 I I #
point $-1 -60.15963838826422 23.189645573022588 10.458125002645176 #
edge $-1 $325 1 $325 0 $201 $-1 forward 7 unknown #
vertex $-1 $202 $326 #
ellipse-curve $-1 -58.053761873831924 31.185426196579868 6.2762033138091189 -0.85716730853699208 0 0.51503806187062418 1.2875951546765605 0 2.1429182713424804 1 I I #
point $-1 -60.15963838826422 31.185426196579868 10.458125002645176 #
plane-surface $-1 65.592822046571243 0 0 -1 0 0 0 0 1 forward_v I I I I #
coedge $-1 $210 $208 $212 $287 reversed $141 $-1 #
edge $-1 $223 -15.214624857902114 $289 15.214624857902114 $222 $327 forward 7 unknown #
vertex $-1 $287 $328 #
straight-curve $-1 -65.592822046571243 -36.515946612284736 0 0 0 -1 I I #
edge $-1 $285 -36.515946612284736 $289 36.515946612284736 $283 $329 forward 7 unknown #
straight-curve $-1 0 -36.515946612284736 -15.214624857902114 -1 0 0 I I #
vertex $-1 $215 $330 #
straight-curve $-1 0 36.515946612284736 -15.214624857902114 1 0 0 I I #
point $-1 65.592822046571243 36.515946612284736 -15.214624857902114 #
point $-1 65.592822046571243 -36.515946612284736 -15.214624857902114 #
straight-curve $-1 -65.592822046571243 0 15.214624857902114 0 -1 0 I I #
point $-1 -65.592822046571243 36.515946612284736 15.214624857902114 #
point $-1 -65.592822046571243 -36.515946612284736 15.214624857902114 #
straight-curve $-1 65.592822046571243 -36.515946612284736 0 0 0 -1 I I #
straight-curve $-1 65.592822046571243 36.515946612284736 0 0 0 -1 I I #
coedge $-1 $302 $237 $234 $299 reversed $232 $-1 #
edge $-1 $307 -65.592822046571243 $300 -57.301645039310266 $298 $331 forward 7 unknown #
vertex $-1 $238 $332 #
straight-curve $-1 57.301645039310259 13.593767942400618 15.214624857902116 0 -1 0 I I #
coedge $-1 $237 $298 $239 $304 forward $232 $-1 #
straight-curve $-1 23.422824984455588 36.515946612284736 71.598451904306984 -0.51503806187062429 0 0.85716730853699219 I I #
edge $-1 $307 -15.214624857902114 $240 -1.4157886047031565 $239 $333 forward 7 unknown #
point $-1 65.592822046571243 36.515946612284736 1.4157886047031565 #
point $-1 57.301645039310266 17.859125157317735 15.214624857902109 #
vertex $-1 $246 $334 #
straight-curve $-1 65.592822046571243 0 15.214624857902114 0 1 0 I I #
vertex $-1 $249 $335 #
point $-1 59.341357028508483 23.189645573022588 4.1332850424666523 #
vertex $-1 $253 $336 #
point $-1 59.341357028508483 31.185426196579868 4.1332850424666523 #
coedge $-1 $267 $266 $259 $314 forward $257 $-1 #
edge $-1 $321 -15.214624857902114 $316 -1.4157886047032189 $259 $337 forward 7 unknown #
edge $-1 $264 57.301645039310287 $321 65.592822046571243 $260 $338 forward 7 unknown #
vertex $-1 $261 $339 #
straight-curve $-1 -57.205624923946409 36.515946612284736 15.374429171301657 -0.51503806187062429 0 -0.85716730853699219 I I #
edge $-1 $316 -22.922178669884119 $268 -4.2653572149171168 $267 $340 forward 7 unknown #
point $-1 -57.301645039310287 36.515946612284736 15.214624857902116 #
point $-1 -65.592822046571243 17.859125157317735 1.4157886047032189 #
vertex $-1 $315 $341 #
straight-curve $-1 -65.592822046571243 0 15.214624857902114 0 -1 0 I I #
vertex $-1 $274 $342 #
point $-1 -56.766166719155365 23.189645573022588 8.4191215851515988 #
vertex $-1 $278 $343 #
point $-1 -56.766166719155365 31.185426196579868 8.4191215851515988 #
straight-curve $-1 -65.592822046571243 36.515946612284736 0 0 0 -1 I I #
point $-1 -65.592822046571243 -36.515946612284736 -15.214624857902114 #
straight-curve $-1 -65.592822046571243 0 -15.214624857902114 0 1 0 I I #
point $-1 -65.592822046571243 36.515946612284736 -15.214624857902114 #
straight-curve $-1 0 36.515946612284736 15.214624857902114 -1 0 0 I I #
point $-1 57.301645039310266 36.515946612284736 15.214624857902109 #
straight-curve $-1 65.592822046571243 36.515946612284736 0 0 0 -1 I I #
point $-1 65.592822046571243 36.515946612284736 15.214624857902114 #
point $-1 55.910843602489443 23.189645573022588 4.9886081591325722 #
point $-1 55.910843602489443 31.185426196579868 4.9886081591325722 #
straight-curve $-1 -65.592822046571243 36.515946612284736 0 0 0 -1 I I #
straight-curve $-1 0 36.515946612284736 15.214624857902114 -1 0 0 I I #
point $-1 -65.592822046571243 36.515946612284736 1.4157886047032189 #
straight-curve $-1 -65.592822046571243 13.593767942400618 1.4157886047032202 0 -1 0 I I #
point $-1 -65.592822046571243 36.515946612284736 15.214624857902114 #
point $-1 -55.910843602489443 23.189645573022588 4.988608159132558 #
point $-1 -55.910843602489443 31.185426196579868 4.988608159132558 #
End-of-ACIS-data 