500 0 9 0           
7 Unknown 11 ACIS 5.0 NT 24 Fri Mar 26 02:32:33 1999 
-1 9.9999999999999995e-007 1e-010 
body $-1 $9 $-1 $10 #
body $-1 $11 $-1 $12 #
body $-1 $13 $-1 $14 #
body $-1 $15 $-1 $16 #
body $-1 $17 $-1 $18 #
body $-1 $19 $-1 $20 #
body $-1 $21 $-1 $22 #
body $-1 $23 $-1 $24 #
body $-1 $25 $-1 $26 #
lump $-1 $-1 $27 $0 #
transform $-1 1 0 0 0 1 0 0 0 1 55.261696218756676 28.751361765426857 6.3170164726046814 1 rotate no_reflect no_shear #
lump $-1 $-1 $28 $1 #
transform $-1 1 0 0 0 1 0 0 0 1 55.261696218756676 28.751361765426857 6.3170164726046814 1 rotate no_reflect no_shear #
lump $-1 $-1 $29 $2 #
transform $-1 1 0 0 0 1 0 0 0 1 55.261696218756676 28.751361765426857 6.3170164726046814 1 rotate no_reflect no_shear #
lump $-1 $-1 $30 $3 #
transform $-1 1 0 0 0 1 0 0 0 1 55.261696218756676 28.751361765426857 6.3170164726046814 1 rotate no_reflect no_shear #
lump $-1 $-1 $31 $4 #
transform $-1 1 0 0 0 1 0 0 0 1 55.261696218756676 28.751361765426857 6.3170164726046814 1 rotate no_reflect no_shear #
lump $-1 $-1 $32 $5 #
transform $-1 1 0 0 0 1 0 0 0 1 55.261696218756676 28.751361765426857 6.3170164726046814 1 rotate no_reflect no_shear #
lump $-1 $-1 $33 $6 #
transform $-1 1 0 0 0 1 0 0 0 1 55.261696218756676 28.751361765426857 6.3170164726046814 1 rotate no_reflect no_shear #
lump $-1 $-1 $34 $7 #
transform $-1 1 0 0 0 1 0 0 0 1 55.261696218756676 28.751361765426857 6.3170164726046814 1 rotate no_reflect no_shear #
lump $-1 $-1 $35 $8 #
transform $-1 1 0 0 0 1 0 0 0 1 55.261696218756676 28.751361765426857 6.3170164726046814 1 rotate no_reflect no_shear #
shell $-1 $-1 $-1 $36 $-1 $9 #
shell $-1 $-1 $-1 $37 $-1 $11 #
shell $-1 $-1 $-1 $38 $-1 $13 #
shell $-1 $-1 $-1 $39 $-1 $15 #
shell $-1 $-1 $-1 $40 $-1 $17 #
shell $-1 $-1 $-1 $41 $-1 $19 #
shell $-1 $-1 $-1 $42 $-1 $21 #
shell $-1 $-1 $-1 $43 $-1 $23 #
shell $-1 $-1 $-1 $44 $-1 $25 #
face $-1 $45 $46 $27 $-1 $47 forward single #
face $-1 $48 $49 $28 $-1 $50 forward single #
face $-1 $51 $52 $29 $-1 $53 forward single #
face $-1 $54 $55 $30 $-1 $56 reversed single #
face $-1 $57 $58 $31 $-1 $59 forward single #
face $-1 $60 $61 $32 $-1 $62 forward single #
face $-1 $63 $64 $33 $-1 $65 reversed single #
face $-1 $66 $67 $34 $-1 $68 forward single #
face $-1 $69 $70 $35 $-1 $71 forward single #
face $-1 $72 $73 $27 $-1 $74 reversed single #
loop $-1 $-1 $75 $36 #
plane-surface $-1 0 0 6.3170164726046814 0 0 1 1 0 0 forward_v I I I I #
face $-1 $76 $77 $28 $-1 $78 forward single #
loop $-1 $-1 $79 $37 #
plane-surface $-1 -55.261696218756676 0 0 1 0 0 0 0 -1 forward_v I I I I #
face $-1 $80 $81 $29 $-1 $82 reversed single #
loop $-1 $-1 $83 $38 #
plane-surface $-1 55.261696218756676 0 0 -1 0 0 0 0 1 forward_v I I I I #
face $-1 $84 $85 $30 $-1 $86 reversed single #
loop $-1 $-1 $87 $39 #
plane-surface $-1 50.451055000289408 -92.144976150174671 92.808894577775675 -1 0 0 0 -0.57357644374324357 0.81915203911291934 forward_v I I I I #
face $-1 $88 $89 $31 $-1 $90 forward single #
loop $-1 $91 $92 $40 #
cone-surface $-1 30.51887518056126 -25.408169276242937 3.6443113778925103 0 0.57357644374324357 -0.81915203911291934 0.5 0 0 1 I I 0 1 0.5 forward I I I I #
face $-1 $93 $94 $32 $-1 $95 forward single #
loop $-1 $96 $97 $41 #
cone-surface $-1 42.478183072398146 -25.408169276242937 3.6443113778925103 0 0.57357644374324357 -0.81915203911291934 0.5 0 0 1 I I 0 1 0.5 forward I I I I #
face $-1 $98 $99 $33 $-1 $100 reversed single #
loop $-1 $-1 $101 $42 #
plane-surface $-1 -9.5865632453231306 57.863376231660204 122.02492082931064 1 0 0 0 -0.6560590369687036 -0.75470957328743171 forward_v I I I I #
face $-1 $102 $103 $34 $-1 $104 forward single #
loop $-1 $105 $106 $43 #
cone-surface $-1 -5.9755039472019789 24.144650732059645 1.8955448595358617 0 -0.6560590369687036 -0.75470957328743171 1.5 0 0 1 I I 0 1 1.5 forward I I I I #
face $-1 $107 $108 $35 $-1 $109 forward single #
loop $-1 $110 $111 $44 #
cone-surface $-1 -0.5589150000202423 24.144650732059645 1.8955448595358617 0 -0.6560590369687036 -0.75470957328743171 1.5 0 0 1 I I 0 1 1.5 forward I I I I #
face $-1 $112 $113 $27 $-1 $114 reversed single #
loop $-1 $-1 $115 $45 #
plane-surface $-1 0 0 -6.3170164726046814 0 0 1 1 0 0 forward_v I I I I #
coedge $-1 $116 $117 $118 $119 forward $46 $-1 #
face $-1 $120 $121 $28 $-1 $122 reversed single #
loop $-1 $-1 $123 $48 #
plane-surface $-1 0 0 6.3170164726046814 0 0 1 1 0 0 forward_v I I I I #
coedge $-1 $124 $125 $126 $127 forward $49 $-1 #
face $-1 $128 $129 $29 $-1 $130 reversed single #
loop $-1 $-1 $131 $51 #
plane-surface $-1 0 -28.751361765426857 0 0 1 0 0 0 1 forward_v I I I I #
coedge $-1 $132 $133 $134 $135 forward $52 $-1 #
face $-1 $136 $137 $30 $-1 $138 reversed single #
loop $-1 $-1 $139 $54 #
plane-surface $-1 36.498529126479703 -28.751361765426864 2.2734322929092059 0 -0.57357644374324357 0.81915203911291934 1 0 0 forward_v I I I I #
coedge $-1 $140 $141 $142 $143 reversed $55 $-1 #
face $-1 $-1 $144 $31 $-1 $145 forward single #
loop $-1 $146 $147 $57 #
cone-surface $-1 30.51887518056126 -24.809000963828389 2.7886103632498482 0 0.57357644374324357 -0.81915203911291934 0.25 0 0 1 I I -0.70710678118654746 0.70710678118654746 0.25 forward I I I I #
loop $-1 $-1 $148 $40 #
coedge $-1 $92 $92 $149 $150 reversed $58 $-1 #
face $-1 $-1 $151 $32 $-1 $152 forward single #
loop $-1 $153 $154 $60 #
cone-surface $-1 42.478183072398146 -24.809000963828389 2.7886103632498482 0 0.57357644374324357 -0.81915203911291934 0.25 0 0 1 I I -0.70710678118654746 0.70710678118654746 0.25 forward I I I I #
loop $-1 $-1 $155 $41 #
coedge $-1 $97 $97 $156 $157 reversed $61 $-1 #
face $-1 $158 $159 $33 $-1 $160 reversed single #
loop $-1 $-1 $161 $63 #
plane-surface $-1 -3.2672094736111106 -14.646494173408904 38.611858484515579 0 0.6560590369687036 0.75470957328743171 1 0 0 forward_v I I I I #
coedge $-1 $162 $163 $164 $165 reversed $64 $-1 #
face $-1 $-1 $166 $34 $-1 $167 forward single #
loop $-1 $168 $169 $66 #
cone-surface $-1 -5.9755039472019789 22.169340803626142 -0.37678922808923332 0 -0.6560590369687036 -0.75470957328743171 0.75 0 0 1 I I -0.70710678118654757 0.70710678118654757 0.75 forward I I I I #
loop $-1 $-1 $170 $43 #
coedge $-1 $106 $106 $171 $172 reversed $67 $-1 #
face $-1 $-1 $173 $35 $-1 $174 forward single #
loop $-1 $175 $176 $69 #
cone-surface $-1 -0.5589150000202423 22.169340803626142 -0.37678922808923332 0 -0.6560590369687036 -0.75470957328743171 0.75 0 0 1 I I -0.70710678118654757 0.70710678118654757 0.75 forward I I I I #
loop $-1 $-1 $177 $44 #
coedge $-1 $111 $111 $178 $179 reversed $70 $-1 #
face $-1 $180 $181 $27 $-1 $182 reversed single #
loop $-1 $-1 $183 $72 #
plane-surface $-1 0 -28.751361765426857 0 0 1 0 0 0 1 forward_v I I I I #
coedge $-1 $184 $185 $186 $187 forward $73 $-1 #
coedge $-1 $188 $75 $189 $190 forward $46 $-1 #
coedge $-1 $75 $188 $191 $192 forward $46 $-1 #
coedge $-1 $193 $194 $75 $119 reversed $195 $-1 #
edge $-1 $196 -28.751361765426857 $197 28.751361765426857 $118 $198 forward 7 unknown #
face $-1 $199 $200 $28 $-1 $201 reversed single #
loop $-1 $-1 $202 $76 #
plane-surface $-1 -60.072337437223943 -27.251361765426857 0 1 0 0 0 0 -1 forward_v I I I I #
coedge $-1 $203 $204 $124 $205 forward $77 $-1 #
coedge $-1 $206 $79 $123 $205 reversed $49 $-1 #
coedge $-1 $79 $206 $207 $208 reversed $49 $-1 #
coedge $-1 $209 $210 $79 $127 reversed $200 $-1 #
edge $-1 $211 -6.3170164726046814 $212 6.3170164726046814 $126 $213 forward 7 unknown #
face $-1 $214 $215 $29 $-1 $216 reversed single #
loop $-1 $-1 $217 $80 #
plane-surface $-1 0 0 -6.3170164726046814 0 0 1 1 0 0 forward_v I I I I #
coedge $-1 $218 $219 $220 $221 forward $81 $-1 #
coedge $-1 $220 $83 $217 $222 reversed $52 $-1 #
coedge $-1 $83 $220 $223 $224 reversed $52 $-1 #
coedge $-1 $225 $226 $83 $135 reversed $215 $-1 #
edge $-1 $227 -6.3170164726046814 $228 6.3170164726046814 $134 $229 forward 7 unknown #
face $-1 $230 $231 $30 $-1 $232 forward single #
loop $-1 $-1 $233 $84 #
plane-surface $-1 22.546003252669998 -92.144976150174671 92.808894577775675 1 0 0 0 0.57357644374324357 -0.81915203911291934 forward_v I I I I #
coedge $-1 $234 $235 $236 $237 reversed $85 $-1 #
coedge $-1 $141 $87 $238 $239 reversed $55 $-1 #
coedge $-1 $87 $140 $234 $240 reversed $55 $-1 #
coedge $-1 $236 $241 $87 $143 forward $231 $-1 #
edge $-1 $242 17.321126309660478 $243 23.09596288507084 $142 $244 forward 7 unknown #
loop $-1 $-1 $149 $88 #
plane-surface $-1 36.498529126479703 -28.751361765426864 2.2734322929092059 0 -0.57357644374324357 0.81915203911291934 1 0 0 forward_v I I I I #
loop $-1 $-1 $245 $57 #
coedge $-1 $147 $147 $148 $246 reversed $89 $-1 #
coedge $-1 $148 $148 $147 $246 forward $91 $-1 #
coedge $-1 $149 $149 $92 $150 forward $144 $-1 #
edge $-1 $247 1.7449195536988479e-015 $247 6.2831853071796022 $149 $248 forward 7 unknown #
loop $-1 $-1 $156 $93 #
plane-surface $-1 36.498529126479703 -28.751361765426864 2.2734322929092059 0 -0.57357644374324357 0.81915203911291934 1 0 0 forward_v I I I I #
loop $-1 $-1 $249 $60 #
coedge $-1 $154 $154 $155 $250 reversed $94 $-1 #
coedge $-1 $155 $155 $154 $250 forward $96 $-1 #
coedge $-1 $156 $156 $97 $157 forward $151 $-1 #
edge $-1 $251 1.7449195536988479e-015 $251 6.2831853071796022 $156 $252 forward 7 unknown #
face $-1 $253 $254 $33 $-1 $255 reversed single #
loop $-1 $-1 $256 $98 #
plane-surface $-1 3.0521442981009095 57.863376231660204 122.02492082931064 -1 0 0 0 0.6560590369687036 0.75470957328743171 forward_v I I I I #
coedge $-1 $257 $258 $259 $260 reversed $99 $-1 #
coedge $-1 $163 $101 $261 $262 reversed $64 $-1 #
coedge $-1 $101 $162 $257 $263 reversed $64 $-1 #
coedge $-1 $259 $264 $101 $165 forward $265 $-1 #
edge $-1 $266 0.18032635040324507 $267 6.4272171157236961 $164 $268 forward 7 unknown #
loop $-1 $-1 $171 $102 #
plane-surface $-1 -3.2672094736111106 -14.646494173408904 38.611858484515579 0 0.6560590369687036 0.75470957328743171 1 0 0 forward_v I I I I #
loop $-1 $-1 $269 $66 #
coedge $-1 $169 $169 $170 $270 reversed $103 $-1 #
coedge $-1 $170 $170 $169 $270 forward $105 $-1 #
coedge $-1 $171 $171 $106 $172 forward $166 $-1 #
edge $-1 $271 1.5481357925619894e-016 $271 6.2831853071796004 $171 $272 forward 7 unknown #
loop $-1 $-1 $178 $107 #
plane-surface $-1 -3.2672094736111106 -14.646494173408904 38.611858484515579 0 0.6560590369687036 0.75470957328743171 1 0 0 forward_v I I I I #
loop $-1 $-1 $273 $69 #
coedge $-1 $176 $176 $177 $274 reversed $108 $-1 #
coedge $-1 $177 $177 $176 $274 forward $110 $-1 #
coedge $-1 $178 $178 $111 $179 forward $173 $-1 #
edge $-1 $275 1.5481357925619894e-016 $275 6.2831853071796004 $178 $276 forward 7 unknown #
face $-1 $277 $278 $27 $-1 $279 reversed single #
loop $-1 $-1 $280 $112 #
plane-surface $-1 -55.261696218756676 0 0 1 0 0 0 0 -1 forward_v I I I I #
coedge $-1 $281 $191 $282 $283 forward $113 $-1 #
coedge $-1 $284 $115 $281 $285 forward $73 $-1 #
coedge $-1 $115 $284 $286 $287 forward $73 $-1 #
coedge $-1 $194 $193 $115 $187 reversed $195 $-1 #
edge $-1 $288 -28.751361765426857 $289 28.751361765426857 $186 $290 forward 7 unknown #
coedge $-1 $117 $116 $291 $292 forward $46 $-1 #
coedge $-1 $293 $294 $116 $190 reversed $278 $-1 #
edge $-1 $197 -55.261696218756676 $295 55.261696218756676 $189 $296 forward 7 unknown #
coedge $-1 $183 $297 $117 $192 reversed $113 $-1 #
edge $-1 $298 -55.261696218756676 $196 55.261696218756676 $191 $299 forward 7 unknown #
coedge $-1 $186 $118 $297 $300 forward $195 $-1 #
coedge $-1 $118 $186 $293 $301 reversed $195 $-1 #
loop $-1 $-1 $193 $277 #
vertex $-1 $119 $302 #
vertex $-1 $119 $303 #
straight-curve $-1 55.261696218756676 0 6.3170164726046814 0 1 0 I I #
face $-1 $304 $305 $28 $-1 $306 reversed single #
loop $-1 $-1 $126 $120 #
plane-surface $-1 -57.667016827990309 -25.751361765426857 0 0 -1 0 0 0 -1 forward_v I I I I #
coedge $-1 $307 $308 $309 $310 forward $121 $-1 #
coedge $-1 $311 $123 $210 $312 forward $77 $-1 #
coedge $-1 $123 $311 $313 $314 forward $77 $-1 #
edge $-1 $315 -28.751361765426857 $212 -25.751361765426857 $123 $316 forward 7 unknown #
coedge $-1 $125 $124 $317 $318 reversed $49 $-1 #
coedge $-1 $319 $320 $125 $208 forward $305 $-1 #
edge $-1 $211 25.751361765426857 $321 28.751361765426857 $207 $322 forward 7 unknown #
coedge $-1 $309 $126 $320 $323 reversed $200 $-1 #
coedge $-1 $126 $309 $203 $312 reversed $200 $-1 #
vertex $-1 $208 $324 #
vertex $-1 $312 $325 #
straight-curve $-1 -55.261696218756676 -25.751361765426857 0 0 0 1 I I #
face $-1 $326 $327 $29 $-1 $328 reversed single #
loop $-1 $-1 $329 $128 #
plane-surface $-1 57.667016827990317 -25.751361765426857 0 0 -1 0 0 0 -1 forward_v I I I I #
coedge $-1 $330 $331 $132 $222 forward $129 $-1 #
coedge $-1 $332 $131 $331 $333 reversed $81 $-1 #
coedge $-1 $131 $332 $334 $335 reversed $81 $-1 #
coedge $-1 $133 $132 $131 $221 reversed $52 $-1 #
edge $-1 $336 -6.3170164726046814 $337 6.3170164726046814 $131 $338 forward 7 unknown #
edge $-1 $337 -28.751361765426857 $228 -25.751361765426857 $217 $339 forward 7 unknown #
coedge $-1 $334 $340 $133 $224 forward $341 $-1 #
edge $-1 $227 25.751361765426857 $336 28.751361765426857 $223 $342 forward 7 unknown #
coedge $-1 $329 $134 $340 $343 reversed $215 $-1 #
coedge $-1 $134 $329 $330 $344 reversed $215 $-1 #
vertex $-1 $224 $345 #
vertex $-1 $344 $346 #
straight-curve $-1 55.261696218756676 -25.751361765426857 0 0 0 -1 I I #
face $-1 $-1 $347 $30 $-1 $348 reversed single #
loop $-1 $-1 $142 $136 #
plane-surface $-1 0 0 6.3170164726046814 0 0 1 1 0 0 forward_v I I I I #
coedge $-1 $349 $350 $351 $352 reversed $137 $-1 #
coedge $-1 $353 $139 $141 $240 forward $85 $-1 #
coedge $-1 $139 $353 $349 $354 forward $85 $-1 #
coedge $-1 $351 $142 $139 $237 forward $231 $-1 #
edge $-1 $243 -32.201790437049553 $355 -4.2967386894301463 $236 $356 forward 7 unknown #
coedge $-1 $357 $358 $140 $239 forward $347 $-1 #
edge $-1 $359 -44.131014995978624 $242 -40.08743081628316 $238 $360 forward 7 unknown #
edge $-1 $243 -7.0497737900574435 $359 -8.6223355153435888e-015 $141 $361 forward 7 unknown #
coedge $-1 $142 $351 $357 $362 forward $231 $-1 #
vertex $-1 $143 $363 #
vertex $-1 $143 $364 #
straight-curve $-1 50.451055000289408 -46.072488075087335 6.3170164726046778 0 1 0 I I #
coedge $-1 $245 $245 $-1 $365 reversed $146 $-1 #
edge $-1 $366 0 $366 6.2831853071796004 $147 $367 forward 7 unknown #
vertex $-1 $150 $368 #
ellipse-curve $-1 30.51887518056126 -25.863943477721676 4.2952243827569463 0 -0.57357644374324357 0.81915203911291934 0.5 0 0 1 I I #
coedge $-1 $249 $249 $-1 $369 reversed $153 $-1 #
edge $-1 $370 0 $370 6.2831853071796004 $154 $371 forward 7 unknown #
vertex $-1 $157 $372 #
ellipse-curve $-1 42.478183072398146 -25.863943477721676 4.2952243827569463 0 -0.57357644374324357 0.81915203911291934 0.5 0 0 1 I I #
face $-1 $-1 $265 $33 $-1 $373 forward single #
loop $-1 $-1 $374 $158 #
plane-surface $-1 0 28.751361765426857 0 0 -1 0 0 0 -1 forward_v I I I I #
coedge $-1 $375 $376 $377 $378 reversed $159 $-1 #
coedge $-1 $379 $161 $163 $263 forward $99 $-1 #
coedge $-1 $161 $379 $375 $380 forward $99 $-1 #
coedge $-1 $377 $164 $161 $260 forward $265 $-1 #
edge $-1 $267 -7.9529585085175754 $381 4.6857490349064648 $259 $382 forward 7 unknown #
coedge $-1 $383 $384 $162 $262 forward $254 $-1 #
edge $-1 $385 -60.125783352869234 $266 -54.695443942050645 $261 $386 forward 7 unknown #
edge $-1 $267 49.225512022710674 $385 57.502723530853707 $163 $387 forward 7 unknown #
coedge $-1 $164 $377 $383 $388 forward $265 $-1 #
loop $-1 $-1 $377 $253 #
vertex $-1 $262 $389 #
vertex $-1 $165 $390 #
straight-curve $-1 -9.5865632453231306 28.931688115830102 6.3170164726046778 0 -1 0 I I #
coedge $-1 $269 $269 $-1 $391 reversed $168 $-1 #
edge $-1 $392 0 $392 6.2831853071796004 $169 $393 forward 7 unknown #
vertex $-1 $172 $394 #
ellipse-curve $-1 -5.9755039472019789 25.627916382766628 3.6018467671953873 0 0.6560590369687036 0.75470957328743171 1.5 0 0 1 I I #
coedge $-1 $273 $273 $-1 $395 reversed $175 $-1 #
edge $-1 $396 0 $396 6.2831853071796004 $176 $397 forward 7 unknown #
vertex $-1 $179 $398 #
ellipse-curve $-1 -0.5589150000202423 25.627916382766628 3.6018467671953873 0 0.6560590369687036 0.75470957328743171 1.5 0 0 1 I I #
face $-1 $-1 $195 $27 $-1 $399 reversed single #
loop $-1 $-1 $293 $180 #
plane-surface $-1 0 28.751361765426857 0 0 -1 0 0 0 -1 forward_v I I I I #
coedge $-1 $400 $291 $294 $401 forward $181 $-1 #
coedge $-1 $297 $183 $184 $285 reversed $113 $-1 #
coedge $-1 $291 $400 $183 $283 reversed $181 $-1 #
edge $-1 $298 -6.3170164726046814 $402 6.3170164726046814 $282 $403 forward 7 unknown #
coedge $-1 $185 $184 $400 $404 forward $73 $-1 #
edge $-1 $289 -55.261696218756676 $402 55.261696218756676 $281 $405 forward 7 unknown #
coedge $-1 $294 $293 $185 $287 reversed $278 $-1 #
edge $-1 $406 -55.261696218756676 $288 55.261696218756676 $286 $407 forward 7 unknown #
vertex $-1 $187 $408 #
vertex $-1 $300 $409 #
straight-curve $-1 55.261696218756676 0 -6.3170164726046814 0 -1 0 I I #
coedge $-1 $280 $282 $188 $292 reversed $181 $-1 #
edge $-1 $295 -28.751361765426857 $298 28.751361765426857 $291 $410 forward 7 unknown #
coedge $-1 $286 $189 $194 $301 forward $278 $-1 #
coedge $-1 $189 $286 $280 $401 reversed $278 $-1 #
vertex $-1 $190 $411 #
straight-curve $-1 0 28.751361765426857 6.3170164726046814 -1 0 0 I I #
coedge $-1 $191 $281 $193 $300 reversed $113 $-1 #
vertex $-1 $292 $412 #
straight-curve $-1 0 -28.751361765426857 6.3170164726046814 1 0 0 I I #
edge $-1 $196 -6.3170164726046814 $289 6.3170164726046814 $193 $413 forward 7 unknown #
edge $-1 $197 -6.3170164726046814 $288 6.3170164726046814 $194 $414 forward 7 unknown #
point $-1 55.261696218756676 -28.751361765426857 6.3170164726046814 #
point $-1 55.261696218756676 28.751361765426857 6.3170164726046814 #
face $-1 $-1 $415 $28 $-1 $416 reversed single #
loop $-1 $-1 $207 $199 #
plane-surface $-1 0 0 -6.3170164726046814 0 0 1 1 0 0 forward_v I I I I #
coedge $-1 $417 $202 $418 $419 reversed $121 $-1 #
coedge $-1 $202 $417 $311 $420 reversed $121 $-1 #
coedge $-1 $210 $209 $202 $310 reversed $200 $-1 #
edge $-1 $421 -6.3170164726046814 $422 6.3170164726046814 $309 $423 forward 7 unknown #
coedge $-1 $204 $203 $308 $420 forward $77 $-1 #
edge $-1 $212 -2.4053206092336339 $421 2.4053206092336339 $210 $424 forward 7 unknown #
coedge $-1 $425 $317 $204 $314 reversed $415 $-1 #
edge $-1 $426 -60.072337437223943 $315 -55.261696218756676 $313 $427 forward 7 unknown #
vertex $-1 $318 $428 #
straight-curve $-1 -55.261696218756676 0 6.3170164726046814 0 1 0 I I #
coedge $-1 $313 $429 $206 $318 forward $415 $-1 #
edge $-1 $321 -6.3170164726046814 $315 6.3170164726046814 $317 $430 forward 7 unknown #
coedge $-1 $418 $207 $429 $431 forward $305 $-1 #
coedge $-1 $207 $418 $209 $323 forward $305 $-1 #
vertex $-1 $431 $432 #
straight-curve $-1 -55.261696218756676 0 -6.3170164726046814 0 -1 0 I I #
edge $-1 $422 -2.4053206092336339 $211 2.4053206092336339 $209 $433 forward 7 unknown #
point $-1 -55.261696218756676 -25.751361765426857 -6.3170164726046814 #
point $-1 -55.261696218756676 -25.751361765426857 6.3170164726046814 #
face $-1 $-1 $341 $29 $-1 $434 forward single #
loop $-1 $-1 $435 $214 #
plane-surface $-1 60.07233743722395 -27.251361765426857 0 -1 0 0 0 0 1 forward_v I I I I #
coedge $-1 $226 $225 $436 $437 forward $215 $-1 #
coedge $-1 $438 $217 $226 $344 forward $129 $-1 #
coedge $-1 $217 $438 $218 $333 forward $129 $-1 #
coedge $-1 $219 $218 $435 $439 reversed $81 $-1 #
edge $-1 $440 -2.4053206092336339 $337 2.405320609233641 $218 $441 forward 7 unknown #
coedge $-1 $442 $223 $219 $335 forward $341 $-1 #
edge $-1 $336 -2.405320609233641 $443 2.4053206092336339 $219 $444 forward 7 unknown #
vertex $-1 $335 $445 #
vertex $-1 $222 $446 #
straight-curve $-1 55.261696218756676 -28.751361765426857 0 0 0 -1 I I #
straight-curve $-1 55.261696218756676 0 -6.3170164726046814 0 1 0 I I #
coedge $-1 $223 $442 $225 $343 forward $341 $-1 #
loop $-1 $-1 $223 $326 #
straight-curve $-1 55.261696218756676 0 6.3170164726046814 0 -1 0 I I #
edge $-1 $447 -2.4053206092336339 $227 2.4053206092336339 $225 $448 forward 7 unknown #
edge $-1 $228 -2.4053206092336339 $449 2.4053206092336339 $226 $450 forward 7 unknown #
point $-1 55.261696218756683 -25.751361765426857 6.3170164726046814 #
point $-1 55.261696218756683 -25.751361765426857 -6.3170164726046814 #
loop $-1 $-1 $238 $230 #
plane-surface $-1 0 -28.751361765426857 0 0 1 0 0 0 1 forward_v I I I I #
coedge $-1 $350 $233 $235 $354 reversed $137 $-1 #
coedge $-1 $233 $349 $451 $452 reversed $137 $-1 #
coedge $-1 $241 $236 $233 $352 forward $231 $-1 #
edge $-1 $355 -23.09596288507084 $453 -17.321126309660478 $351 $454 forward 7 unknown #
coedge $-1 $235 $234 $358 $455 reversed $85 $-1 #
edge $-1 $456 8.6223355153435888e-015 $355 7.0497737900574435 $349 $457 forward 7 unknown #
vertex $-1 $237 $458 #
straight-curve $-1 18.249264563239851 -22.976525190016496 6.3170164726046814 -1 0 0 I I #
coedge $-1 $451 $238 $241 $362 reversed $347 $-1 #
coedge $-1 $238 $451 $353 $455 forward $347 $-1 #
vertex $-1 $239 $459 #
straight-curve $-1 50.451055000289408 -28.751361765426857 46.404447288887837 0 0 1 I I #
straight-curve $-1 50.451055000289408 -28.751361765426864 2.2734322929092059 0 -0.81915203911291934 -0.57357644374324357 I I #
edge $-1 $453 -35.121013575320319 $242 -7.2159618277009088 $357 $460 forward 7 unknown #
point $-1 50.451055000289408 -28.751361765426857 6.3170164726046814 #
point $-1 50.451055000289408 -22.976525190016496 6.3170164726046814 #
edge $-1 $461 1 $461 0 $245 $-1 forward 7 unknown #
vertex $-1 $246 $462 #
ellipse-curve $-1 30.51887518056126 -24.952395074764201 2.9933983730280782 0 -0.57357644374324357 0.81915203911291934 0.5 0 0 1 I I #
point $-1 31.01887518056126 -25.863943477721673 4.2952243827569427 #
edge $-1 $463 1 $463 0 $249 $-1 forward 7 unknown #
vertex $-1 $250 $464 #
ellipse-curve $-1 42.478183072398146 -24.952395074764201 2.9933983730280782 0 -0.57357644374324357 0.81915203911291934 0.5 0 0 1 I I #
point $-1 42.978183072398146 -25.863943477721673 4.2952243827569427 #
plane-surface $-1 0 0 6.3170164726046814 0 0 1 1 0 0 forward_v I I I I #
coedge $-1 $384 $383 $376 $465 forward $254 $-1 #
coedge $-1 $376 $256 $258 $380 reversed $159 $-1 #
coedge $-1 $256 $375 $374 $465 reversed $159 $-1 #
coedge $-1 $264 $259 $256 $378 forward $265 $-1 #
edge $-1 $381 -6.4272171157236961 $466 -0.18032635040324507 $377 $467 forward 7 unknown #
coedge $-1 $258 $257 $384 $468 reversed $99 $-1 #
edge $-1 $469 -57.502723530853707 $381 -49.225512022710674 $375 $470 forward 7 unknown #
vertex $-1 $260 $471 #
straight-curve $-1 -1.6336047368055553 22.504471000106399 6.3170164726046849 1 0 0 I I #
coedge $-1 $374 $261 $264 $388 reversed $254 $-1 #
coedge $-1 $261 $374 $379 $468 forward $254 $-1 #
vertex $-1 $262 $472 #
straight-curve $-1 -9.5865632453231306 28.751361765426857 61.012460414655322 0 0 1 I I #
straight-curve $-1 -9.5865632453231306 -14.646494173408904 38.611858484515579 0 0.75470957328743171 -0.6560590369687036 I I #
edge $-1 $466 -3.0521442981009095 $266 9.5865632453231306 $383 $473 forward 7 unknown #
point $-1 -9.5865632453231306 28.751361765426857 6.3170164726046814 #
point $-1 -9.5865632453231306 22.504471000106406 6.3170164726046778 #
edge $-1 $474 1 $474 0 $269 $-1 forward 7 unknown #
vertex $-1 $270 $475 #
ellipse-curve $-1 -5.9755039472019789 22.66138508135267 0.18924295187634044 0 0.6560590369687036 0.75470957328743171 1.5 0 0 1 I I #
point $-1 -4.4755039472019789 25.627916382766625 3.6018467671953829 #
edge $-1 $476 1 $476 0 $273 $-1 forward 7 unknown #
vertex $-1 $274 $477 #
ellipse-curve $-1 -0.5589150000202423 22.66138508135267 0.18924295187634044 0 0.6560590369687036 0.75470957328743171 1.5 0 0 1 I I #
point $-1 0.9410849999797577 25.627916382766625 3.6018467671953829 #
plane-surface $-1 55.261696218756676 0 0 -1 0 0 0 0 1 forward_v I I I I #
coedge $-1 $282 $280 $284 $404 reversed $181 $-1 #
edge $-1 $295 -6.3170164726046814 $406 6.3170164726046814 $294 $478 forward 7 unknown #
vertex $-1 $404 $479 #
straight-curve $-1 -55.261696218756676 -28.751361765426857 0 0 0 -1 I I #
edge $-1 $402 -28.751361765426857 $406 28.751361765426857 $400 $480 forward 7 unknown #
straight-curve $-1 0 -28.751361765426857 -6.3170164726046814 -1 0 0 I I #
vertex $-1 $287 $481 #
straight-curve $-1 0 28.751361765426857 -6.3170164726046814 1 0 0 I I #
point $-1 55.261696218756676 28.751361765426857 -6.3170164726046814 #
point $-1 55.261696218756676 -28.751361765426857 -6.3170164726046814 #
straight-curve $-1 -55.261696218756676 0 6.3170164726046814 0 -1 0 I I #
point $-1 -55.261696218756676 28.751361765426857 6.3170164726046814 #
point $-1 -55.261696218756676 -28.751361765426857 6.3170164726046814 #
straight-curve $-1 55.261696218756676 -28.751361765426857 0 0 0 -1 I I #
straight-curve $-1 55.261696218756676 28.751361765426857 0 0 0 -1 I I #
loop $-1 $-1 $317 $304 #
plane-surface $-1 0 -28.751361765426857 0 0 1 0 0 0 1 forward_v I I I I #
coedge $-1 $308 $307 $425 $482 reversed $121 $-1 #
coedge $-1 $320 $319 $307 $419 forward $305 $-1 #
edge $-1 $483 -1.5 $422 1.5 $307 $484 forward 7 unknown #
edge $-1 $421 -1.5 $426 1.5 $308 $485 forward 7 unknown #
vertex $-1 $312 $486 #
vertex $-1 $323 $487 #
straight-curve $-1 -60.072337437223943 -25.751361765426857 0 0 0 -1 I I #
straight-curve $-1 -57.667016827990309 -25.751361765426857 6.3170164726046814 -1 0 0 I I #
coedge $-1 $429 $313 $417 $482 forward $415 $-1 #
vertex $-1 $420 $488 #
straight-curve $-1 0 -28.751361765426857 6.3170164726046814 1 0 0 I I #
point $-1 -55.261696218756676 -28.751361765426857 6.3170164726046814 #
coedge $-1 $317 $425 $319 $431 reversed $415 $-1 #
straight-curve $-1 -55.261696218756676 -28.751361765426857 0 0 0 1 I I #
edge $-1 $321 -2.4053206092336339 $483 2.4053206092336339 $429 $489 forward 7 unknown #
point $-1 -55.261696218756676 -28.751361765426857 -6.3170164726046814 #
straight-curve $-1 -57.667016827990309 -25.751361765426857 -6.3170164726046814 1 0 0 I I #
plane-surface $-1 0 0 6.3170164726046814 0 0 1 1 0 0 forward_v I I I I #
coedge $-1 $490 $491 $332 $439 forward $327 $-1 #
coedge $-1 $491 $490 $329 $437 reversed $327 $-1 #
edge $-1 $447 -6.3170164726046814 $449 6.3170164726046814 $436 $492 forward 7 unknown #
coedge $-1 $331 $330 $490 $493 forward $129 $-1 #
edge $-1 $443 -6.3170164726046814 $440 6.3170164726046814 $435 $494 forward 7 unknown #
vertex $-1 $439 $495 #
straight-curve $-1 57.667016827990317 -28.751361765426857 -6.3170164726046814 -1 0 0 I I #
coedge $-1 $340 $334 $491 $496 forward $341 $-1 #
vertex $-1 $496 $497 #
straight-curve $-1 57.667016827990317 -28.751361765426857 6.3170164726046814 1 0 0 I I #
point $-1 55.261696218756676 -28.751361765426857 6.3170164726046814 #
point $-1 55.261696218756676 -28.751361765426857 -6.3170164726046814 #
vertex $-1 $496 $498 #
straight-curve $-1 57.667016827990317 -25.751361765426857 6.3170164726046814 -1 0 0 I I #
vertex $-1 $493 $499 #
straight-curve $-1 57.667016827990317 -25.751361765426857 -6.3170164726046814 1 0 0 I I #
coedge $-1 $358 $357 $350 $452 forward $347 $-1 #
edge $-1 $453 40.08743081628316 $456 44.131014995978624 $451 $500 forward 7 unknown #
vertex $-1 $362 $501 #
straight-curve $-1 22.546003252669998 -46.072488075087335 6.3170164726046778 0 -1 0 I I #
edge $-1 $456 4.2967386894301463 $359 32.201790437049553 $358 $502 forward 7 unknown #
vertex $-1 $455 $503 #
straight-curve $-1 22.546003252669998 -28.751361765426864 2.2734322929092059 0 0.81915203911291934 0.57357644374324357 I I #
point $-1 22.546003252669998 -22.976525190016496 6.3170164726046814 #
point $-1 50.451055000289408 -28.751361765426857 2.2734322929092108 #
straight-curve $-1 57.667016827990317 -28.751361765426857 6.3170164726046814 1 0 0 I I #
vertex $-1 $365 $504 #
point $-1 31.01887518056126 -24.952395074764201 2.9933983730280782 #
vertex $-1 $369 $505 #
point $-1 42.978183072398146 -24.952395074764201 2.9933983730280782 #
edge $-1 $466 54.695443942050645 $469 60.125783352869234 $374 $506 forward 7 unknown #
vertex $-1 $388 $507 #
straight-curve $-1 3.0521442981009095 28.931688115830102 6.3170164726046778 0 1 0 I I #
edge $-1 $469 -4.6857490349064648 $385 7.9529585085175754 $384 $508 forward 7 unknown #
vertex $-1 $468 $509 #
straight-curve $-1 3.0521442981009095 -14.646494173408904 38.611858484515579 0 -0.75470957328743171 0.6560590369687036 I I #
point $-1 3.0521442981009095 22.504471000106406 6.3170164726046778 #
point $-1 -9.5865632453231306 28.751361765426857 0.88667706178608796 #
straight-curve $-1 0 28.751361765426857 6.3170164726046814 -1 0 0 I I #
vertex $-1 $391 $510 #
point $-1 -4.4755039472019789 22.66138508135267 0.18924295187634044 #
vertex $-1 $395 $511 #
point $-1 0.9410849999797577 22.66138508135267 0.18924295187634044 #
straight-curve $-1 -55.261696218756676 28.751361765426857 0 0 0 -1 I I #
point $-1 -55.261696218756676 -28.751361765426857 -6.3170164726046814 #
straight-curve $-1 -55.261696218756676 0 -6.3170164726046814 0 1 0 I I #
point $-1 -55.261696218756676 28.751361765426857 -6.3170164726046814 #
edge $-1 $426 -6.3170164726046814 $483 6.3170164726046814 $417 $512 forward 7 unknown #
vertex $-1 $419 $513 #
straight-curve $-1 -60.072337437223943 -27.251361765426857 -6.3170164726046814 0 1 0 I I #
straight-curve $-1 -60.072337437223943 -27.251361765426857 6.3170164726046814 0 -1 0 I I #
point $-1 -60.072337437223943 -25.751361765426857 6.3170164726046814 #
point $-1 -60.072337437223943 -25.751361765426857 -6.3170164726046814 #
point $-1 -60.072337437223943 -28.751361765426857 6.3170164726046814 #
straight-curve $-1 -57.667016827990309 -28.751361765426857 -6.3170164726046814 -1 0 0 I I #
coedge $-1 $436 $435 $438 $493 reversed $327 $-1 #
coedge $-1 $435 $436 $442 $496 reversed $327 $-1 #
straight-curve $-1 60.07233743722395 -25.751361765426857 0 0 0 -1 I I #
edge $-1 $449 -1.5 $440 1.5 $490 $514 forward 7 unknown #
straight-curve $-1 60.07233743722395 -28.751361765426857 0 0 0 -1 I I #
point $-1 60.07233743722395 -28.751361765426857 -6.3170164726046814 #
edge $-1 $443 -1.5 $447 1.5 $491 $515 forward 7 unknown #
point $-1 60.07233743722395 -28.751361765426857 6.3170164726046814 #
point $-1 60.07233743722395 -25.751361765426857 6.3170164726046814 #
point $-1 60.07233743722395 -25.751361765426857 -6.3170164726046814 #
straight-curve $-1 22.546003252669998 -28.751361765426857 46.404447288887837 0 0 -1 I I #
point $-1 22.546003252669998 -28.751361765426857 6.3170164726046814 #
straight-curve $-1 18.249264563239851 -28.751361765426857 2.2734322929092117 1 0 0 I I #
point $-1 22.546003252669998 -28.751361765426857 2.2734322929092108 #
point $-1 30.51887518056126 -24.665606852892576 2.5838223534716183 #
point $-1 42.478183072398146 -24.665606852892576 2.5838223534716183 #
straight-curve $-1 3.0521442981009095 28.751361765426857 61.012460414655322 0 0 -1 I I #
point $-1 3.0521442981009095 28.751361765426857 6.3170164726046814 #
straight-curve $-1 -1.6336047368055553 28.751361765426854 0.88667706178608441 -1 0 0 I I #
point $-1 3.0521442981009095 28.751361765426857 0.88667706178608796 #
point $-1 -5.9755039472019789 21.677296525899614 -0.94282140805480708 #
point $-1 -0.5589150000202423 21.677296525899614 -0.94282140805480708 #
straight-curve $-1 -60.072337437223943 -28.751361765426857 0 0 0 -1 I I #
point $-1 -60.072337437223943 -28.751361765426857 -6.3170164726046814 #
straight-curve $-1 60.07233743722395 -27.251361765426857 -6.3170164726046814 0 -1 0 I I #
straight-curve $-1 60.07233743722395 -27.251361765426857 6.3170164726046814 0 1 0 I I #
End-of-ACIS-data 