500 0 4 0           
7 Unknown 11 ACIS 5.0 NT 24 Fri Mar 26 01:32:25 1999 
-1 9.9999999999999995e-007 1e-010 
body $-1 $4 $-1 $5 #
body $-1 $6 $-1 $7 #
body $-1 $8 $-1 $9 #
body $-1 $10 $-1 $11 #
lump $-1 $-1 $12 $0 #
transform $-1 1 0 0 0 1 0 0 0 1 66.692709128086193 34.416547943343843 10.618850003125459 1 rotate no_reflect no_shear #
lump $-1 $-1 $13 $1 #
transform $-1 1 0 0 0 1 0 0 0 1 66.692709128086193 34.416547943343843 10.618850003125459 1 rotate no_reflect no_shear #
lump $-1 $-1 $14 $2 #
transform $-1 1 0 0 0 1 0 0 0 1 66.692709128086193 34.416547943343843 10.618850003125459 1 rotate no_reflect no_shear #
lump $-1 $-1 $15 $3 #
transform $-1 1 0 0 0 1 0 0 0 1 66.692709128086193 34.416547943343843 10.618850003125459 1 rotate no_reflect no_shear #
shell $-1 $-1 $-1 $16 $-1 $4 #
shell $-1 $-1 $-1 $17 $-1 $6 #
shell $-1 $-1 $-1 $18 $-1 $8 #
shell $-1 $-1 $-1 $19 $-1 $10 #
face $-1 $20 $21 $12 $-1 $22 forward single #
face $-1 $23 $24 $13 $-1 $25 forward single #
face $-1 $26 $27 $14 $-1 $28 reversed single #
face $-1 $29 $30 $15 $-1 $31 forward single #
face $-1 $32 $33 $12 $-1 $34 reversed single #
loop $-1 $-1 $35 $16 #
plane-surface $-1 0 0 10.618850003125459 0 0 1 1 0 0 forward_v I I I I #
face $-1 $36 $37 $13 $-1 $38 reversed single #
loop $-1 $-1 $39 $17 #
plane-surface $-1 0 -30.608286825703285 -6.9860735888966374 0 0 1 1 0 0 forward_v I I I I #
face $-1 $40 $41 $14 $-1 $42 reversed single #
loop $-1 $-1 $43 $18 #
plane-surface $-1 89.681592208013598 -13.426987106599865 187.40286393822672 0 -1 0 -0.78801076186113728 0 -0.61566146476048833 forward_v I I I I #
face $-1 $44 $45 $15 $-1 $46 forward single #
loop $-1 $47 $48 $19 #
cone-surface $-1 61.30107857133315 -20.113506407331297 4.3717216696555168 -0.78801076186113728 0 -0.61566146476048833 0.9234921971407325 0 -1.182016142791706 1 I I 0 1 1.5 forward I I I I #
face $-1 $49 $50 $12 $-1 $51 reversed single #
loop $-1 $-1 $52 $20 #
plane-surface $-1 0 0 -10.618850003125459 0 0 1 1 0 0 forward_v I I I I #
coedge $-1 $53 $54 $55 $56 forward $21 $-1 #
face $-1 $57 $58 $13 $-1 $59 reversed single #
loop $-1 $-1 $60 $23 #
plane-surface $-1 0 -26.800025708062726 -8.8024617960110483 0 -1 0 0 0 -1 forward_v I I I I #
coedge $-1 $61 $62 $63 $64 reversed $24 $-1 #
face $-1 $65 $66 $14 $-1 $67 reversed single #
loop $-1 $-1 $68 $26 #
plane-surface $-1 -15.427552853199259 -20.113506407331293 105.28260195694125 0.78801076186113728 0 0.61566146476048833 0.61566146476048833 0 -0.78801076186113728 forward_v I I I I #
coedge $-1 $69 $70 $71 $72 reversed $27 $-1 #
face $-1 $-1 $73 $15 $-1 $74 forward single #
loop $-1 $75 $76 $29 #
cone-surface $-1 59.398857579429944 -20.113506407331297 2.8855437913137365 -0.78801076186113728 0 -0.61566146476048833 0.46174609857036625 0 -0.59100807139585299 1 I I -0.70710678118654757 0.70710678118654757 0.75 forward I I I I #
loop $-1 $-1 $77 $19 #
coedge $-1 $48 $48 $78 $79 reversed $30 $-1 #
face $-1 $80 $81 $12 $-1 $82 reversed single #
loop $-1 $-1 $83 $32 #
plane-surface $-1 0 -34.416547943343843 0 0 1 0 0 0 1 forward_v I I I I #
coedge $-1 $84 $85 $86 $87 forward $33 $-1 #
coedge $-1 $88 $35 $89 $90 forward $21 $-1 #
coedge $-1 $35 $88 $91 $92 forward $21 $-1 #
coedge $-1 $93 $94 $35 $56 reversed $95 $-1 #
edge $-1 $96 -34.416547943343843 $97 34.416547943343843 $55 $98 forward 7 unknown #
face $-1 $99 $100 $13 $-1 $101 reversed single #
loop $-1 $-1 $102 $36 #
plane-surface $-1 0 0 -10.618850003125459 0 0 1 1 0 0 forward_v I I I I #
coedge $-1 $103 $104 $105 $106 reversed $37 $-1 #
coedge $-1 $107 $39 $104 $108 forward $24 $-1 #
coedge $-1 $39 $107 $109 $110 reversed $24 $-1 #
coedge $-1 $111 $105 $39 $64 forward $100 $-1 #
edge $-1 $112 11.495882295211084 $113 19.112404530492199 $63 $114 forward 7 unknown #
face $-1 $115 $116 $14 $-1 $117 reversed single #
loop $-1 $-1 $118 $40 #
plane-surface $-1 89.681592208013598 -26.800025708062719 187.40286393822672 0 1 0 0.78801076186113728 0 0.61566146476048833 forward_v I I I I #
coedge $-1 $119 $120 $121 $122 reversed $41 $-1 #
coedge $-1 $70 $43 $123 $124 reversed $27 $-1 #
coedge $-1 $43 $69 $119 $125 reversed $27 $-1 #
coedge $-1 $121 $126 $43 $72 forward $127 $-1 #
edge $-1 $128 -21.851913024079394 $129 -13.691077751588026 $71 $130 forward 7 unknown #
loop $-1 $-1 $78 $44 #
plane-surface $-1 -15.427552853199259 -20.113506407331293 105.28260195694125 0.78801076186113728 0 0.61566146476048833 0.61566146476048833 0 -0.78801076186113728 forward_v I I I I #
loop $-1 $-1 $131 $29 #
coedge $-1 $76 $76 $77 $132 reversed $45 $-1 #
coedge $-1 $77 $77 $76 $132 forward $47 $-1 #
coedge $-1 $78 $78 $48 $79 forward $73 $-1 #
edge $-1 $133 0 $133 6.2831853071796004 $78 $134 forward 7 unknown #
face $-1 $135 $136 $12 $-1 $137 reversed single #
loop $-1 $-1 $138 $49 #
plane-surface $-1 -66.692709128086193 0 0 1 0 0 0 0 -1 forward_v I I I I #
coedge $-1 $139 $91 $140 $141 forward $50 $-1 #
coedge $-1 $142 $52 $139 $143 forward $33 $-1 #
coedge $-1 $52 $142 $144 $145 forward $33 $-1 #
coedge $-1 $94 $93 $52 $87 reversed $95 $-1 #
edge $-1 $146 -34.416547943343843 $147 34.416547943343843 $86 $148 forward 7 unknown #
coedge $-1 $54 $53 $149 $150 forward $21 $-1 #
coedge $-1 $151 $152 $53 $90 reversed $136 $-1 #
edge $-1 $97 -66.692709128086193 $153 66.692709128086193 $89 $154 forward 7 unknown #
coedge $-1 $83 $155 $54 $92 reversed $50 $-1 #
edge $-1 $156 -66.692709128086193 $96 66.692709128086193 $91 $157 forward 7 unknown #
coedge $-1 $86 $55 $155 $158 forward $95 $-1 #
coedge $-1 $55 $86 $151 $159 reversed $95 $-1 #
loop $-1 $-1 $93 $135 #
vertex $-1 $56 $160 #
vertex $-1 $56 $161 #
straight-curve $-1 66.692709128086193 0 10.618850003125459 0 1 0 I I #
face $-1 $162 $163 $13 $-1 $164 reversed single #
loop $-1 $-1 $105 $57 #
plane-surface $-1 66.692709128086193 0 0 -1 0 0 0 0 1 forward_v I I I I #
coedge $-1 $165 $166 $103 $167 forward $58 $-1 #
coedge $-1 $168 $60 $102 $167 reversed $37 $-1 #
coedge $-1 $60 $168 $61 $108 reversed $37 $-1 #
coedge $-1 $63 $169 $60 $106 forward $100 $-1 #
edge $-1 $170 -6.217619105119935 $112 -2.5848426908911133 $105 $171 forward 7 unknown #
coedge $-1 $62 $61 $172 $173 reversed $24 $-1 #
edge $-1 $112 -66.692709128086193 $174 66.692709128086193 $104 $175 forward 7 unknown #
coedge $-1 $176 $177 $62 $110 forward $163 $-1 #
edge $-1 $113 -66.692709128086193 $178 66.692709128086193 $109 $179 forward 7 unknown #
coedge $-1 $169 $63 $177 $180 forward $100 $-1 #
vertex $-1 $64 $181 #
vertex $-1 $180 $182 #
straight-curve $-1 66.692709128086193 -15.304143412851642 -6.9860735888966374 0 -1 0 I I #
face $-1 $-1 $127 $14 $-1 $183 forward single #
loop $-1 $-1 $184 $65 #
plane-surface $-1 66.692709128086193 0 0 -1 0 0 0 0 1 forward_v I I I I #
coedge $-1 $185 $186 $187 $188 reversed $66 $-1 #
coedge $-1 $189 $68 $70 $125 forward $41 $-1 #
coedge $-1 $68 $189 $185 $190 forward $41 $-1 #
coedge $-1 $187 $71 $68 $122 forward $127 $-1 #
edge $-1 $129 3.3702339029342188 $191 16.743272504397073 $121 $192 forward 7 unknown #
coedge $-1 $193 $194 $69 $124 forward $116 $-1 #
edge $-1 $195 -93.527975073384937 $128 -83.082581965987899 $123 $196 forward 7 unknown #
edge $-1 $129 120.13002427814226 $195 133.38541825617236 $70 $197 forward 7 unknown #
coedge $-1 $71 $187 $193 $198 forward $127 $-1 #
loop $-1 $-1 $187 $115 #
vertex $-1 $124 $199 #
vertex $-1 $72 $200 #
straight-curve $-1 44.840796104006799 -13.426987106599865 10.618850003125459 -1 0 0 I I #
coedge $-1 $131 $131 $-1 $201 reversed $75 $-1 #
edge $-1 $202 0 $202 6.2831853071796004 $76 $203 forward 7 unknown #
vertex $-1 $79 $204 #
ellipse-curve $-1 62.612291491840516 -20.113506407331297 5.396153449426941 0.78801076186113728 0 0.61566146476048833 0.9234921971407325 0 -1.182016142791706 1 I I #
face $-1 $-1 $95 $12 $-1 $205 reversed single #
loop $-1 $-1 $151 $80 #
plane-surface $-1 0 34.416547943343843 0 0 -1 0 0 0 -1 forward_v I I I I #
coedge $-1 $206 $149 $152 $207 forward $81 $-1 #
coedge $-1 $155 $83 $84 $143 reversed $50 $-1 #
coedge $-1 $149 $206 $83 $141 reversed $81 $-1 #
edge $-1 $156 -10.618850003125459 $208 10.618850003125459 $140 $209 forward 7 unknown #
coedge $-1 $85 $84 $206 $210 forward $33 $-1 #
edge $-1 $147 -66.692709128086193 $208 66.692709128086193 $139 $211 forward 7 unknown #
coedge $-1 $152 $151 $85 $145 reversed $136 $-1 #
edge $-1 $212 -66.692709128086193 $146 66.692709128086193 $144 $213 forward 7 unknown #
vertex $-1 $87 $214 #
vertex $-1 $158 $215 #
straight-curve $-1 66.692709128086193 0 -10.618850003125459 0 -1 0 I I #
coedge $-1 $138 $140 $88 $150 reversed $81 $-1 #
edge $-1 $153 -34.416547943343843 $156 34.416547943343843 $149 $216 forward 7 unknown #
coedge $-1 $144 $89 $94 $159 forward $136 $-1 #
coedge $-1 $89 $144 $138 $207 reversed $136 $-1 #
vertex $-1 $90 $217 #
straight-curve $-1 0 34.416547943343843 10.618850003125459 -1 0 0 I I #
coedge $-1 $91 $139 $93 $158 reversed $50 $-1 #
vertex $-1 $150 $218 #
straight-curve $-1 0 -34.416547943343843 10.618850003125459 1 0 0 I I #
edge $-1 $96 -10.618850003125459 $147 10.618850003125459 $93 $219 forward 7 unknown #
edge $-1 $97 -10.618850003125459 $146 10.618850003125459 $94 $220 forward 7 unknown #
point $-1 66.692709128086193 -34.416547943343843 10.618850003125459 #
point $-1 66.692709128086193 34.416547943343843 10.618850003125459 #
face $-1 $-1 $221 $13 $-1 $222 reversed single #
loop $-1 $-1 $109 $99 #
plane-surface $-1 0 -34.416547943343843 0 0 1 0 0 0 1 forward_v I I I I #
coedge $-1 $223 $102 $169 $224 forward $58 $-1 #
coedge $-1 $102 $223 $225 $226 forward $58 $-1 #
edge $-1 $227 -66.692709128086193 $170 66.692709128086193 $102 $228 forward 7 unknown #
coedge $-1 $104 $103 $229 $230 reversed $37 $-1 #
coedge $-1 $105 $111 $165 $224 reversed $100 $-1 #
vertex $-1 $224 $231 #
straight-curve $-1 66.692709128086193 -26.800025708062726 -4.4012308980055241 0 0 1 I I #
coedge $-1 $229 $232 $107 $173 forward $221 $-1 #
edge $-1 $178 -19.112404530492199 $174 -11.495882295211084 $172 $233 forward 7 unknown #
vertex $-1 $173 $234 #
straight-curve $-1 0 -26.800025708062726 -6.9860735888966374 -1 0 0 I I #
coedge $-1 $235 $109 $232 $236 forward $163 $-1 #
coedge $-1 $109 $235 $111 $180 reversed $163 $-1 #
vertex $-1 $236 $237 #
straight-curve $-1 0 -34.416547943343843 -6.9860735888966374 -1 0 0 I I #
edge $-1 $113 6.9860735888966374 $238 10.618850003125459 $111 $239 forward 7 unknown #
point $-1 66.692709128086193 -26.800025708062726 -6.9860735888966374 #
point $-1 66.692709128086193 -34.416547943343843 -6.9860735888966374 #
plane-surface $-1 0 0 10.618850003125459 0 0 1 1 0 0 forward_v I I I I #
coedge $-1 $194 $193 $186 $240 forward $116 $-1 #
coedge $-1 $186 $118 $120 $190 reversed $66 $-1 #
coedge $-1 $118 $185 $184 $240 reversed $66 $-1 #
coedge $-1 $126 $121 $118 $188 forward $127 $-1 #
edge $-1 $191 13.691077751588026 $241 21.851913024079394 $187 $242 forward 7 unknown #
coedge $-1 $120 $119 $194 $243 reversed $41 $-1 #
edge $-1 $244 -133.38541825617236 $191 -120.13002427814226 $185 $245 forward 7 unknown #
vertex $-1 $122 $246 #
straight-curve $-1 58.531873855594824 -10.056753203665647 10.618850003125459 0 -1 0 I I #
coedge $-1 $184 $123 $126 $198 reversed $116 $-1 #
coedge $-1 $123 $184 $189 $243 forward $116 $-1 #
vertex $-1 $124 $247 #
straight-curve $-1 66.692709128086193 -13.426987106599865 93.701431969113358 0 0 1 I I #
straight-curve $-1 -15.427552853199259 -13.426987106599865 105.28260195694125 0.61566146476048833 0 -0.78801076186113728 I I #
edge $-1 $241 -26.800025708062719 $128 -13.426987106599865 $193 $248 forward 7 unknown #
point $-1 66.692709128086193 -13.426987106599865 10.618850003125459 #
point $-1 58.531873855594824 -13.426987106599865 10.618850003125459 #
edge $-1 $249 1 $249 0 $131 $-1 forward 7 unknown #
vertex $-1 $132 $250 #
ellipse-curve $-1 59.989865650825799 -20.113506407331297 3.3472898898841028 0.78801076186113728 0 0.61566146476048833 0.9234921971407325 0 -1.182016142791706 1 I I #
point $-1 63.535783688981226 -20.113506407331297 4.2141373066352248 #
plane-surface $-1 66.692709128086193 0 0 -1 0 0 0 0 1 forward_v I I I I #
coedge $-1 $140 $138 $142 $210 reversed $81 $-1 #
edge $-1 $153 -10.618850003125459 $212 10.618850003125459 $152 $251 forward 7 unknown #
vertex $-1 $210 $252 #
straight-curve $-1 -66.692709128086193 -34.416547943343843 0 0 0 -1 I I #
edge $-1 $208 -34.416547943343843 $212 34.416547943343843 $206 $253 forward 7 unknown #
straight-curve $-1 0 -34.416547943343843 -10.618850003125459 -1 0 0 I I #
vertex $-1 $145 $254 #
straight-curve $-1 0 34.416547943343843 -10.618850003125459 1 0 0 I I #
point $-1 66.692709128086193 34.416547943343843 -10.618850003125459 #
point $-1 66.692709128086193 -34.416547943343843 -10.618850003125459 #
straight-curve $-1 -66.692709128086193 0 10.618850003125459 0 -1 0 I I #
point $-1 -66.692709128086193 34.416547943343843 10.618850003125459 #
point $-1 -66.692709128086193 -34.416547943343843 10.618850003125459 #
straight-curve $-1 66.692709128086193 -34.416547943343843 0 0 0 -1 I I #
straight-curve $-1 66.692709128086193 34.416547943343843 0 0 0 -1 I I #
loop $-1 $-1 $229 $162 #
plane-surface $-1 -66.692709128086193 0 0 1 0 0 0 0 -1 forward_v I I I I #
coedge $-1 $166 $165 $235 $255 forward $58 $-1 #
edge $-1 $170 26.800025708062726 $238 34.416547943343843 $169 $256 forward 7 unknown #
coedge $-1 $232 $229 $166 $226 reversed $221 $-1 #
edge $-1 $257 -34.416547943343843 $227 -26.800025708062726 $225 $258 forward 7 unknown #
vertex $-1 $230 $259 #
straight-curve $-1 0 -26.800025708062726 -10.618850003125459 1 0 0 I I #
coedge $-1 $225 $172 $168 $230 forward $221 $-1 #
edge $-1 $174 2.5848426908911133 $227 6.217619105119935 $229 $260 forward 7 unknown #
point $-1 66.692709128086193 -26.800025708062726 -10.618850003125459 #
coedge $-1 $172 $225 $176 $236 reversed $221 $-1 #
straight-curve $-1 -66.692709128086193 -15.304143412851642 -6.9860735888966374 0 1 0 I I #
point $-1 -66.692709128086193 -26.800025708062726 -6.9860735888966374 #
coedge $-1 $177 $176 $223 $255 reversed $163 $-1 #
edge $-1 $178 6.9860735888966374 $257 10.618850003125459 $232 $261 forward 7 unknown #
point $-1 -66.692709128086193 -34.416547943343843 -6.9860735888966374 #
vertex $-1 $180 $262 #
straight-curve $-1 66.692709128086193 -34.416547943343843 0 0 0 -1 I I #
edge $-1 $241 83.082581965987899 $244 93.527975073384937 $184 $263 forward 7 unknown #
vertex $-1 $198 $264 #
straight-curve $-1 44.840796104006799 -26.800025708062719 10.618850003125459 1 0 0 I I #
edge $-1 $244 -16.743272504397073 $195 -3.3702339029342188 $194 $265 forward 7 unknown #
vertex $-1 $243 $266 #
straight-curve $-1 -15.427552853199259 -26.800025708062719 105.28260195694125 -0.61566146476048833 0 0.78801076186113728 I I #
point $-1 58.531873855594824 -26.800025708062719 10.618850003125459 #
point $-1 66.692709128086193 -13.426987106599865 0.17345689572842105 #
straight-curve $-1 66.692709128086193 0 10.618850003125459 0 1 0 I I #
vertex $-1 $201 $267 #
point $-1 60.91335784796653 -20.113506407331297 2.1652737470923968 #
straight-curve $-1 -66.692709128086193 34.416547943343843 0 0 0 -1 I I #
point $-1 -66.692709128086193 -34.416547943343843 -10.618850003125459 #
straight-curve $-1 -66.692709128086193 0 -10.618850003125459 0 1 0 I I #
point $-1 -66.692709128086193 34.416547943343843 -10.618850003125459 #
edge $-1 $238 -66.692709128086193 $257 66.692709128086193 $235 $268 forward 7 unknown #
straight-curve $-1 66.692709128086193 0 -10.618850003125459 0 -1 0 I I #
vertex $-1 $226 $269 #
straight-curve $-1 -66.692709128086193 0 -10.618850003125459 0 1 0 I I #
point $-1 -66.692709128086193 -26.800025708062726 -10.618850003125459 #
straight-curve $-1 -66.692709128086193 -26.800025708062726 -4.4012308980055241 0 0 -1 I I #
straight-curve $-1 -66.692709128086193 -34.416547943343843 0 0 0 -1 I I #
point $-1 66.692709128086193 -34.416547943343843 -10.618850003125459 #
straight-curve $-1 66.692709128086193 -26.800025708062719 93.701431969113358 0 0 -1 I I #
point $-1 66.692709128086193 -26.800025708062719 10.618850003125459 #
straight-curve $-1 66.692709128086193 -10.056753203665647 0.17345689572842105 0 1 0 I I #
point $-1 66.692709128086193 -26.800025708062719 0.17345689572842105 #
point $-1 58.807849508034089 -20.113506407331297 2.4237976927433702 #
straight-curve $-1 0 -34.416547943343843 -10.618850003125459 -1 0 0 I I #
point $-1 -66.692709128086193 -34.416547943343843 -10.618850003125459 #
End-of-ACIS-data 