500 0 10 0           
7 Unknown 11 ACIS 5.0 NT 24 Fri Mar 26 20:26:31 1999 
-1 9.9999999999999995e-007 1e-010 
body $-1 $10 $-1 $11 #
body $-1 $12 $-1 $13 #
body $-1 $14 $-1 $15 #
body $-1 $16 $-1 $17 #
body $-1 $18 $-1 $19 #
body $-1 $20 $-1 $21 #
body $-1 $22 $-1 $23 #
body $-1 $24 $-1 $25 #
body $-1 $26 $-1 $27 #
body $-1 $28 $-1 $29 #
lump $-1 $-1 $30 $0 #
transform $-1 1 0 0 0 1 0 0 0 1 63.963133640552996 44.760724337836244 19.189587917130716 1 rotate no_reflect no_shear #
lump $-1 $-1 $31 $1 #
transform $-1 1 0 0 0 1 0 0 0 1 63.963133640552996 44.760724337836244 19.189587917130716 1 rotate no_reflect no_shear #
lump $-1 $-1 $32 $2 #
transform $-1 1 0 0 0 1 0 0 0 1 63.963133640552996 44.760724337836244 19.189587917130716 1 rotate no_reflect no_shear #
lump $-1 $-1 $33 $3 #
transform $-1 1 0 0 0 1 0 0 0 1 63.963133640552996 44.760724337836244 19.189587917130716 1 rotate no_reflect no_shear #
lump $-1 $-1 $34 $4 #
transform $-1 1 0 0 0 1 0 0 0 1 63.963133640552996 44.760724337836244 19.189587917130716 1 rotate no_reflect no_shear #
lump $-1 $-1 $35 $5 #
transform $-1 1 0 0 0 1 0 0 0 1 63.963133640552996 44.760724337836244 19.189587917130716 1 rotate no_reflect no_shear #
lump $-1 $-1 $36 $6 #
transform $-1 1 0 0 0 1 0 0 0 1 63.963133640552996 44.760724337836244 19.189587917130716 1 rotate no_reflect no_shear #
lump $-1 $-1 $37 $7 #
transform $-1 1 0 0 0 1 0 0 0 1 63.963133640552996 44.760724337836244 19.189587917130716 1 rotate no_reflect no_shear #
lump $-1 $-1 $38 $8 #
transform $-1 1 0 0 0 1 0 0 0 1 63.963133640552996 44.760724337836244 19.189587917130716 1 rotate no_reflect no_shear #
lump $-1 $-1 $39 $9 #
transform $-1 1 0 0 0 1 0 0 0 1 63.963133640552996 44.760724337836244 19.189587917130716 1 rotate no_reflect no_shear #
shell $-1 $-1 $-1 $40 $-1 $10 #
shell $-1 $-1 $-1 $41 $-1 $12 #
shell $-1 $-1 $-1 $42 $-1 $14 #
shell $-1 $-1 $-1 $43 $-1 $16 #
shell $-1 $-1 $-1 $44 $-1 $18 #
shell $-1 $-1 $-1 $45 $-1 $20 #
shell $-1 $-1 $-1 $46 $-1 $22 #
shell $-1 $-1 $-1 $47 $-1 $24 #
shell $-1 $-1 $-1 $48 $-1 $26 #
shell $-1 $-1 $-1 $49 $-1 $28 #
face $-1 $50 $51 $30 $-1 $52 forward single #
face $-1 $53 $54 $31 $-1 $55 reversed single #
face $-1 $56 $57 $32 $-1 $58 reversed single #
face $-1 $59 $60 $33 $-1 $61 forward single #
face $-1 $62 $63 $34 $-1 $64 reversed single #
face $-1 $65 $66 $35 $-1 $67 forward single #
face $-1 $68 $69 $36 $-1 $70 forward single #
face $-1 $71 $72 $37 $-1 $73 reversed single #
face $-1 $74 $75 $38 $-1 $76 forward single #
face $-1 $77 $78 $39 $-1 $79 forward single #
face $-1 $80 $81 $30 $-1 $82 reversed single #
loop $-1 $-1 $83 $40 #
plane-surface $-1 0 0 19.189587917130716 0 0 1 1 0 0 forward_v I I I I #
face $-1 $84 $85 $31 $-1 $86 reversed single #
loop $-1 $-1 $87 $41 #
plane-surface $-1 -56.184595204160402 -39.546558345789926 0 0 -1 0 0 0 -1 forward_v I I I I #
face $-1 $88 $89 $32 $-1 $90 reversed single #
loop $-1 $-1 $91 $42 #
plane-surface $-1 -33.603683382943544 -133.6257777502002 97.703410452732896 -1 0 0 0 -0.69465837861970381 0.71933979245794832 forward_v I I I I #
face $-1 $92 $93 $33 $-1 $94 forward single #
loop $-1 $95 $96 $43 #
cone-surface $-1 -39.827764383083377 -37.041186229561312 11.684264654860238 0 0.69465837861970381 -0.71933979245794832 1 0 0 1 I I 0 1 1 forward I I I I #
face $-1 $97 $98 $34 $-1 $99 reversed single #
loop $-1 $-1 $100 $44 #
plane-surface $-1 -44.511204790560306 42.079542035808508 169.61672817725272 1 0 0 0 -0.55919291073839883 -0.82903756765294845 forward_v I I I I #
face $-1 $101 $102 $35 $-1 $103 forward single #
loop $-1 $104 $105 $45 #
cone-surface $-1 -39.784790142620459 39.462241529230766 14.741519220772753 0 -0.55919291073839883 -0.82903756765294845 1 0 0 1 I I 0 1 1 forward I I I I #
face $-1 $106 $107 $36 $-1 $108 forward single #
loop $-1 $109 $110 $46 #
cone-surface $-1 -32.695168170710687 39.462241529230766 14.741519220772753 0 -0.55919291073839883 -0.82903756765294845 1 0 0 1 I I 0 1 1 forward I I I I #
face $-1 $111 $112 $37 $-1 $113 reversed single #
loop $-1 $-1 $114 $47 #
plane-surface $-1 11.673390413600094 42.079542035808508 169.61672817725272 1 0 0 0 -0.55919291073839883 -0.82903756765294845 forward_v I I I I #
face $-1 $115 $116 $38 $-1 $117 forward single #
loop $-1 $118 $119 $48 #
cone-surface $-1 16.399805061539951 39.462241529230766 14.741519220772753 0 -0.55919291073839883 -0.82903756765294845 1 0 0 1 I I 0 1 1 forward I I I I #
face $-1 $120 $121 $39 $-1 $122 forward single #
loop $-1 $123 $124 $49 #
cone-surface $-1 23.489427033449715 39.462241529230766 14.741519220772753 0 -0.55919291073839883 -0.82903756765294845 1 0 0 1 I I 0 1 1 forward I I I I #
face $-1 $125 $126 $30 $-1 $127 reversed single #
loop $-1 $-1 $128 $50 #
plane-surface $-1 0 0 -19.189587917130716 0 0 1 1 0 0 forward_v I I I I #
coedge $-1 $129 $130 $131 $132 forward $51 $-1 #
face $-1 $133 $134 $31 $-1 $135 forward single #
loop $-1 $-1 $136 $53 #
plane-surface $-1 -48.406056767767808 -42.153641341813085 0 -1 0 0 0 0 1 forward_v I I I I #
coedge $-1 $137 $138 $139 $140 forward $54 $-1 #
face $-1 $141 $142 $32 $-1 $143 reversed single #
loop $-1 $-1 $144 $56 #
plane-surface $-1 -39.827764383083377 -44.760724337836251 5.6809558968220841 0 -0.69465837861970381 0.71933979245794832 1 0 0 forward_v I I I I #
coedge $-1 $145 $146 $147 $148 reversed $57 $-1 #
face $-1 $-1 $149 $33 $-1 $150 forward single #
loop $-1 $151 $152 $59 #
cone-surface $-1 -39.827764383083377 -35.968617750618876 10.573587506515103 0 0.69465837861970381 -0.71933979245794832 0.5 0 0 1 I I -0.70710678118654746 0.70710678118654746 0.5 forward I I I I #
loop $-1 $-1 $153 $43 #
coedge $-1 $96 $96 $154 $155 reversed $60 $-1 #
face $-1 $156 $157 $34 $-1 $158 reversed single #
loop $-1 $-1 $159 $62 #
plane-surface $-1 -36.239979156665569 -29.455919725011547 63.561046711603652 0 0.55919291073839883 0.82903756765294845 1 0 0 forward_v I I I I #
coedge $-1 $160 $161 $162 $163 reversed $63 $-1 #
face $-1 $-1 $164 $35 $-1 $165 forward single #
loop $-1 $166 $167 $65 #
cone-surface $-1 -39.784790142620459 38.100788456322739 12.723082072585576 0 -0.55919291073839883 -0.82903756765294845 0.5 0 0 1 I I -0.70710678118654746 0.70710678118654746 0.5 forward I I I I #
loop $-1 $-1 $168 $45 #
coedge $-1 $105 $105 $169 $170 reversed $66 $-1 #
face $-1 $-1 $171 $36 $-1 $172 forward single #
loop $-1 $173 $174 $68 #
cone-surface $-1 -32.695168170710687 38.100788456322739 12.723082072585576 0 -0.55919291073839883 -0.82903756765294845 0.5 0 0 1 I I -0.70710678118654746 0.70710678118654746 0.5 forward I I I I #
loop $-1 $-1 $175 $46 #
coedge $-1 $110 $110 $176 $177 reversed $69 $-1 #
face $-1 $178 $179 $37 $-1 $180 reversed single #
loop $-1 $-1 $181 $71 #
plane-surface $-1 19.944616047494833 -29.455919725011547 63.561046711603652 0 0.55919291073839883 0.82903756765294845 1 0 0 forward_v I I I I #
coedge $-1 $182 $183 $184 $185 reversed $72 $-1 #
face $-1 $-1 $186 $38 $-1 $187 forward single #
loop $-1 $188 $189 $74 #
cone-surface $-1 16.399805061539951 38.100788456322739 12.723082072585576 0 -0.55919291073839883 -0.82903756765294845 0.5 0 0 1 I I -0.70710678118654746 0.70710678118654746 0.5 forward I I I I #
loop $-1 $-1 $190 $48 #
coedge $-1 $119 $119 $191 $192 reversed $75 $-1 #
face $-1 $-1 $193 $39 $-1 $194 forward single #
loop $-1 $195 $196 $77 #
cone-surface $-1 23.489427033449715 38.100788456322739 12.723082072585576 0 -0.55919291073839883 -0.82903756765294845 0.5 0 0 1 I I -0.70710678118654746 0.70710678118654746 0.5 forward I I I I #
loop $-1 $-1 $197 $49 #
coedge $-1 $124 $124 $198 $199 reversed $78 $-1 #
face $-1 $200 $201 $30 $-1 $202 reversed single #
loop $-1 $-1 $203 $80 #
plane-surface $-1 0 -44.760724337836244 0 0 1 0 0 0 1 forward_v I I I I #
coedge $-1 $204 $205 $206 $207 forward $81 $-1 #
coedge $-1 $208 $83 $209 $210 forward $51 $-1 #
coedge $-1 $83 $208 $211 $212 forward $51 $-1 #
coedge $-1 $213 $214 $83 $132 reversed $215 $-1 #
edge $-1 $216 -44.760724337836244 $217 44.760724337836244 $131 $218 forward 7 unknown #
face $-1 $219 $220 $31 $-1 $221 reversed single #
loop $-1 $-1 $222 $84 #
plane-surface $-1 0 0 19.189587917130716 0 0 1 1 0 0 forward_v I I I I #
coedge $-1 $223 $224 $225 $226 reversed $85 $-1 #
coedge $-1 $227 $87 $228 $229 reversed $54 $-1 #
coedge $-1 $87 $227 $230 $231 reversed $54 $-1 #
coedge $-1 $224 $223 $87 $140 reversed $85 $-1 #
edge $-1 $232 -19.189587917130716 $233 19.189587917130716 $139 $234 forward 7 unknown #
face $-1 $235 $236 $32 $-1 $237 forward single #
loop $-1 $-1 $238 $88 #
plane-surface $-1 -46.05184538322321 -133.6257777502002 97.703410452732896 1 0 0 0 0.69465837861970381 -0.71933979245794832 forward_v I I I I #
coedge $-1 $239 $240 $241 $242 reversed $89 $-1 #
coedge $-1 $146 $91 $243 $244 reversed $57 $-1 #
coedge $-1 $91 $145 $239 $245 reversed $57 $-1 #
coedge $-1 $241 $246 $91 $148 forward $236 $-1 #
edge $-1 $247 22.052164537263856 $248 36.040762174548547 $147 $249 forward 7 unknown #
loop $-1 $-1 $154 $92 #
plane-surface $-1 -39.827764383083377 -44.760724337836251 5.6809558968220841 0 -0.69465837861970381 0.71933979245794832 1 0 0 forward_v I I I I #
loop $-1 $-1 $250 $59 #
coedge $-1 $152 $152 $153 $251 reversed $93 $-1 #
coedge $-1 $153 $153 $152 $251 forward $95 $-1 #
coedge $-1 $154 $154 $96 $155 forward $149 $-1 #
edge $-1 $252 6.5205497957600673e-015 $252 6.2831853071796067 $154 $253 forward 7 unknown #
face $-1 $254 $255 $34 $-1 $256 reversed single #
loop $-1 $-1 $257 $97 #
plane-surface $-1 -27.968753522770832 42.079542035808508 169.61672817725272 -1 0 0 0 0.55919291073839883 0.82903756765294845 forward_v I I I I #
coedge $-1 $258 $259 $260 $261 reversed $98 $-1 #
coedge $-1 $161 $100 $262 $263 reversed $63 $-1 #
coedge $-1 $100 $160 $258 $264 reversed $63 $-1 #
coedge $-1 $260 $265 $100 $163 forward $266 $-1 #
edge $-1 $267 -23.72095331993199 $268 -15.287700937798629 $162 $269 forward 7 unknown #
loop $-1 $-1 $169 $101 #
plane-surface $-1 -36.239979156665569 -29.455919725011547 63.561046711603652 0 0.55919291073839883 0.82903756765294845 1 0 0 forward_v I I I I #
loop $-1 $-1 $270 $65 #
coedge $-1 $167 $167 $168 $271 reversed $102 $-1 #
coedge $-1 $168 $168 $167 $271 forward $104 $-1 #
coedge $-1 $169 $169 $105 $170 forward $164 $-1 #
edge $-1 $272 -2.0559429985940577e-015 $272 6.2831853071795987 $169 $273 forward 7 unknown #
loop $-1 $-1 $176 $106 #
plane-surface $-1 -36.239979156665569 -29.455919725011547 63.561046711603652 0 0.55919291073839883 0.82903756765294845 1 0 0 forward_v I I I I #
loop $-1 $-1 $274 $68 #
coedge $-1 $174 $174 $175 $275 reversed $107 $-1 #
coedge $-1 $175 $175 $174 $275 forward $109 $-1 #
coedge $-1 $176 $176 $110 $177 forward $171 $-1 #
edge $-1 $276 -2.0559429985940577e-015 $276 6.2831853071795987 $176 $277 forward 7 unknown #
face $-1 $278 $279 $37 $-1 $280 forward single #
loop $-1 $-1 $281 $111 #
plane-surface $-1 28.21584168138957 42.079542035808508 169.61672817725272 -1 0 0 0 0.55919291073839883 0.82903756765294845 forward_v I I I I #
coedge $-1 $282 $283 $284 $285 reversed $112 $-1 #
coedge $-1 $183 $114 $286 $287 reversed $72 $-1 #
coedge $-1 $114 $182 $282 $288 reversed $72 $-1 #
coedge $-1 $284 $289 $114 $185 forward $279 $-1 #
edge $-1 $290 -23.72095331993199 $291 -15.287700937798629 $184 $292 forward 7 unknown #
loop $-1 $-1 $191 $115 #
plane-surface $-1 19.944616047494833 -29.455919725011547 63.561046711603652 0 0.55919291073839883 0.82903756765294845 1 0 0 forward_v I I I I #
loop $-1 $-1 $293 $74 #
coedge $-1 $189 $189 $190 $294 reversed $116 $-1 #
coedge $-1 $190 $190 $189 $294 forward $118 $-1 #
coedge $-1 $191 $191 $119 $192 forward $186 $-1 #
edge $-1 $295 -2.0559429985940577e-015 $295 6.2831853071795987 $191 $296 forward 7 unknown #
loop $-1 $-1 $198 $120 #
plane-surface $-1 19.944616047494833 -29.455919725011547 63.561046711603652 0 0.55919291073839883 0.82903756765294845 1 0 0 forward_v I I I I #
loop $-1 $-1 $297 $77 #
coedge $-1 $196 $196 $197 $298 reversed $121 $-1 #
coedge $-1 $197 $197 $196 $298 forward $123 $-1 #
coedge $-1 $198 $198 $124 $199 forward $193 $-1 #
edge $-1 $299 -2.0559429985940577e-015 $299 6.2831853071795987 $198 $300 forward 7 unknown #
face $-1 $301 $302 $30 $-1 $303 reversed single #
loop $-1 $-1 $304 $125 #
plane-surface $-1 -63.963133640552996 0 0 1 0 0 0 0 -1 forward_v I I I I #
coedge $-1 $305 $211 $306 $307 forward $126 $-1 #
coedge $-1 $308 $128 $305 $309 forward $81 $-1 #
coedge $-1 $128 $308 $310 $311 forward $81 $-1 #
coedge $-1 $214 $213 $128 $207 reversed $215 $-1 #
edge $-1 $312 -44.760724337836244 $313 44.760724337836244 $206 $314 forward 7 unknown #
coedge $-1 $130 $129 $315 $316 forward $51 $-1 #
coedge $-1 $317 $318 $129 $210 reversed $302 $-1 #
edge $-1 $217 -63.963133640552996 $319 63.963133640552996 $209 $320 forward 7 unknown #
coedge $-1 $203 $321 $130 $212 reversed $126 $-1 #
edge $-1 $322 -63.963133640552996 $216 63.963133640552996 $211 $323 forward 7 unknown #
coedge $-1 $206 $131 $321 $324 forward $215 $-1 #
coedge $-1 $131 $206 $317 $325 reversed $215 $-1 #
loop $-1 $-1 $213 $301 #
vertex $-1 $132 $326 #
vertex $-1 $132 $327 #
straight-curve $-1 63.963133640552996 0 19.189587917130716 0 1 0 I I #
face $-1 $328 $329 $31 $-1 $330 reversed single #
loop $-1 $-1 $331 $133 #
plane-surface $-1 -63.963133640552996 0 0 1 0 0 0 0 -1 forward_v I I I I #
coedge $-1 $230 $332 $224 $333 forward $134 $-1 #
coedge $-1 $139 $136 $334 $335 reversed $85 $-1 #
coedge $-1 $136 $139 $222 $333 reversed $85 $-1 #
coedge $-1 $336 $337 $136 $226 forward $338 $-1 #
edge $-1 $339 -19.189587917130716 $340 19.189587917130716 $225 $341 forward 7 unknown #
coedge $-1 $138 $137 $331 $342 reversed $54 $-1 #
coedge $-1 $334 $343 $137 $229 forward $329 $-1 #
edge $-1 $344 -35.870836038472795 $233 -20.313759165687607 $228 $345 forward 7 unknown #
coedge $-1 $346 $222 $138 $231 forward $134 $-1 #
edge $-1 $232 20.313759165687607 $347 35.870836038472795 $230 $348 forward 7 unknown #
vertex $-1 $231 $349 #
vertex $-1 $229 $350 #
straight-curve $-1 -48.406056767767808 -39.546558345789926 0 0 0 -1 I I #
face $-1 $-1 $351 $32 $-1 $352 reversed single #
loop $-1 $-1 $147 $141 #
plane-surface $-1 0 0 19.189587917130716 0 0 1 1 0 0 forward_v I I I I #
coedge $-1 $353 $354 $355 $356 reversed $142 $-1 #
coedge $-1 $357 $144 $146 $245 forward $89 $-1 #
coedge $-1 $144 $357 $353 $358 forward $89 $-1 #
coedge $-1 $355 $147 $144 $242 forward $236 $-1 #
edge $-1 $248 13.689801191401855 $359 26.137963191681521 $241 $360 forward 7 unknown #
coedge $-1 $361 $362 $145 $244 forward $351 $-1 #
edge $-1 $363 -43.170749329544357 $247 -29.662117309235732 $243 $364 forward 7 unknown #
edge $-1 $248 -19.446439337779928 $363 -1.0047061288372931e-014 $146 $365 forward 7 unknown #
coedge $-1 $147 $355 $361 $366 forward $236 $-1 #
vertex $-1 $244 $367 #
vertex $-1 $148 $368 #
straight-curve $-1 -33.603683382943544 -66.8128888751001 19.189587917130716 0 1 0 I I #
coedge $-1 $250 $250 $-1 $369 reversed $151 $-1 #
edge $-1 $370 0 $370 6.2831853071796004 $152 $371 forward 7 unknown #
vertex $-1 $155 $372 #
ellipse-curve $-1 -39.827764383083377 -37.766425519193902 12.435271906976403 0 -0.69465837861970381 0.71933979245794832 1 0 0 1 I I #
face $-1 $-1 $266 $34 $-1 $373 forward single #
loop $-1 $-1 $374 $156 #
plane-surface $-1 0 44.760724337836244 0 0 -1 0 0 0 -1 forward_v I I I I #
coedge $-1 $375 $376 $377 $378 reversed $157 $-1 #
coedge $-1 $379 $159 $161 $264 forward $98 $-1 #
coedge $-1 $159 $379 $375 $380 forward $98 $-1 #
coedge $-1 $377 $162 $159 $261 forward $266 $-1 #
edge $-1 $268 -26.391215212227522 $381 -9.8487639444380477 $260 $382 forward 7 unknown #
coedge $-1 $383 $384 $160 $263 forward $255 $-1 #
edge $-1 $385 -71.307076835490193 $267 -65.618776171495654 $262 $386 forward 7 unknown #
edge $-1 $268 79.349108227930941 $385 89.521448675672502 $161 $387 forward 7 unknown #
coedge $-1 $162 $377 $383 $388 forward $266 $-1 #
loop $-1 $-1 $377 $254 #
vertex $-1 $263 $389 #
vertex $-1 $163 $390 #
straight-curve $-1 -44.511204790560306 21.039771017904254 19.189587917130709 0 -1 0 I I #
coedge $-1 $270 $270 $-1 $391 reversed $166 $-1 #
edge $-1 $392 0 $392 6.2831853071796004 $167 $393 forward 7 unknown #
vertex $-1 $170 $394 #
ellipse-curve $-1 -39.784790142620459 40.544098146769578 16.345437585133443 0 0.55919291073839883 0.82903756765294845 1 0 0 1 I I #
coedge $-1 $274 $274 $-1 $395 reversed $173 $-1 #
edge $-1 $396 0 $396 6.2831853071796004 $174 $397 forward 7 unknown #
vertex $-1 $177 $398 #
ellipse-curve $-1 -32.695168170710687 40.544098146769578 16.345437585133443 0 0.55919291073839883 0.82903756765294845 1 0 0 1 I I #
face $-1 $-1 $399 $37 $-1 $400 reversed single #
loop $-1 $-1 $184 $178 #
plane-surface $-1 0 0 19.189587917130716 0 0 1 1 0 0 forward_v I I I I #
coedge $-1 $401 $402 $403 $404 reversed $179 $-1 #
coedge $-1 $405 $181 $183 $288 forward $112 $-1 #
coedge $-1 $181 $405 $401 $406 forward $112 $-1 #
coedge $-1 $403 $184 $181 $285 forward $279 $-1 #
edge $-1 $291 1.7010823898526777 $407 18.243533657642153 $284 $408 forward 7 unknown #
coedge $-1 $409 $410 $182 $287 forward $399 $-1 #
edge $-1 $411 -71.307076835490193 $290 -65.618776171495654 $286 $412 forward 7 unknown #
edge $-1 $291 79.349108227930941 $411 89.521448675672502 $183 $413 forward 7 unknown #
coedge $-1 $184 $403 $409 $414 forward $279 $-1 #
vertex $-1 $287 $415 #
vertex $-1 $185 $416 #
straight-curve $-1 11.673390413600094 21.039771017904254 19.189587917130709 0 -1 0 I I #
coedge $-1 $293 $293 $-1 $417 reversed $188 $-1 #
edge $-1 $418 0 $418 6.2831853071796004 $189 $419 forward 7 unknown #
vertex $-1 $192 $420 #
ellipse-curve $-1 16.399805061539951 40.544098146769578 16.345437585133443 0 0.55919291073839883 0.82903756765294845 1 0 0 1 I I #
coedge $-1 $297 $297 $-1 $421 reversed $195 $-1 #
edge $-1 $422 0 $422 6.2831853071796004 $196 $423 forward 7 unknown #
vertex $-1 $199 $424 #
ellipse-curve $-1 23.489427033449715 40.544098146769578 16.345437585133443 0 0.55919291073839883 0.82903756765294845 1 0 0 1 I I #
face $-1 $-1 $215 $30 $-1 $425 reversed single #
loop $-1 $-1 $317 $200 #
plane-surface $-1 0 44.760724337836244 0 0 -1 0 0 0 -1 forward_v I I I I #
coedge $-1 $426 $315 $318 $427 forward $201 $-1 #
coedge $-1 $321 $203 $204 $309 reversed $126 $-1 #
coedge $-1 $315 $426 $203 $307 reversed $201 $-1 #
edge $-1 $322 -19.189587917130716 $428 19.189587917130716 $306 $429 forward 7 unknown #
coedge $-1 $205 $204 $426 $430 forward $81 $-1 #
edge $-1 $313 -63.963133640552996 $428 63.963133640552996 $305 $431 forward 7 unknown #
coedge $-1 $318 $317 $205 $311 reversed $302 $-1 #
edge $-1 $432 -63.963133640552996 $312 63.963133640552996 $310 $433 forward 7 unknown #
vertex $-1 $207 $434 #
vertex $-1 $324 $435 #
straight-curve $-1 63.963133640552996 0 -19.189587917130716 0 -1 0 I I #
coedge $-1 $304 $306 $208 $316 reversed $201 $-1 #
edge $-1 $319 -44.760724337836244 $322 44.760724337836244 $315 $436 forward 7 unknown #
coedge $-1 $310 $209 $214 $325 forward $302 $-1 #
coedge $-1 $209 $310 $304 $427 reversed $302 $-1 #
vertex $-1 $210 $437 #
straight-curve $-1 0 44.760724337836244 19.189587917130716 -1 0 0 I I #
coedge $-1 $211 $305 $213 $324 reversed $126 $-1 #
vertex $-1 $316 $438 #
straight-curve $-1 0 -44.760724337836244 19.189587917130716 1 0 0 I I #
edge $-1 $216 -19.189587917130716 $313 19.189587917130716 $213 $439 forward 7 unknown #
edge $-1 $217 -19.189587917130716 $312 19.189587917130716 $214 $440 forward 7 unknown #
point $-1 63.963133640552996 -44.760724337836244 19.189587917130716 #
point $-1 63.963133640552996 44.760724337836244 19.189587917130716 #
face $-1 $-1 $338 $31 $-1 $441 reversed single #
loop $-1 $-1 $334 $219 #
plane-surface $-1 0 0 -19.189587917130716 0 0 1 1 0 0 forward_v I I I I #
coedge $-1 $442 $443 $227 $342 forward $220 $-1 #
coedge $-1 $222 $346 $336 $444 forward $134 $-1 #
edge $-1 $340 -23.683903666929702 $232 -18.469737674883383 $222 $445 forward 7 unknown #
coedge $-1 $446 $228 $223 $335 forward $329 $-1 #
edge $-1 $233 18.469737674883383 $339 23.683903666929702 $334 $447 forward 7 unknown #
coedge $-1 $448 $225 $332 $444 reversed $338 $-1 #
coedge $-1 $225 $448 $446 $449 reversed $338 $-1 #
loop $-1 $-1 $225 $328 #
vertex $-1 $449 $450 #
vertex $-1 $226 $451 #
straight-curve $-1 -48.406056767767808 -44.760724337836244 0 0 0 1 I I #
edge $-1 $347 -19.189587917130716 $344 19.189587917130716 $331 $452 forward 7 unknown #
coedge $-1 $228 $446 $442 $453 forward $329 $-1 #
vertex $-1 $229 $454 #
straight-curve $-1 -28.092297602080201 -39.546558345789926 -19.189587917130716 1 0 0 I I #
coedge $-1 $332 $230 $443 $455 forward $134 $-1 #
vertex $-1 $455 $456 #
straight-curve $-1 -28.092297602080201 -39.546558345789926 19.189587917130716 -1 0 0 I I #
point $-1 -48.406056767767808 -39.546558345789926 19.189587917130716 #
point $-1 -48.406056767767808 -39.546558345789926 -19.189587917130716 #
loop $-1 $-1 $243 $235 #
plane-surface $-1 0 -44.760724337836244 0 0 1 0 0 0 1 forward_v I I I I #
coedge $-1 $354 $238 $240 $358 reversed $142 $-1 #
coedge $-1 $238 $353 $457 $458 reversed $142 $-1 #
coedge $-1 $246 $241 $238 $356 forward $236 $-1 #
edge $-1 $359 -36.040762174548547 $459 -22.052164537263856 $355 $460 forward 7 unknown #
coedge $-1 $240 $239 $362 $461 reversed $89 $-1 #
edge $-1 $462 1.0047061288372931e-014 $359 19.446439337779928 $353 $463 forward 7 unknown #
vertex $-1 $242 $464 #
straight-curve $-1 -19.913882191541688 -30.772126700551553 19.189587917130716 -1 0 0 I I #
coedge $-1 $457 $243 $246 $366 reversed $351 $-1 #
coedge $-1 $243 $457 $357 $461 forward $351 $-1 #
vertex $-1 $244 $465 #
straight-curve $-1 -33.603683382943544 -44.760724337836244 48.851705226366448 0 0 1 I I #
straight-curve $-1 -33.603683382943544 -44.760724337836251 5.6809558968220841 0 -0.71933979245794832 -0.69465837861970381 I I #
edge $-1 $459 -46.05184538322321 $247 -33.603683382943544 $361 $466 forward 7 unknown #
point $-1 -33.603683382943544 -44.760724337836244 19.189587917130716 #
point $-1 -33.603683382943544 -30.772126700551553 19.189587917130716 #
edge $-1 $467 1 $467 0 $250 $-1 forward 7 unknown #
vertex $-1 $251 $468 #
ellipse-curve $-1 -39.827764383083377 -36.315946939928729 10.933257402744077 0 -0.69465837861970381 0.71933979245794832 1 0 0 1 I I #
point $-1 -38.827764383083377 -37.766425519193888 12.435271906976398 #
plane-surface $-1 0 0 19.189587917130716 0 0 1 1 0 0 forward_v I I I I #
coedge $-1 $384 $383 $376 $469 forward $255 $-1 #
coedge $-1 $376 $257 $259 $380 reversed $157 $-1 #
coedge $-1 $257 $375 $374 $469 reversed $157 $-1 #
coedge $-1 $265 $260 $257 $378 forward $266 $-1 #
edge $-1 $381 15.287700937798629 $470 23.72095331993199 $377 $471 forward 7 unknown #
coedge $-1 $259 $258 $384 $472 reversed $98 $-1 #
edge $-1 $473 -89.521448675672502 $381 -79.349108227930941 $375 $474 forward 7 unknown #
vertex $-1 $261 $475 #
straight-curve $-1 -18.119989578332785 36.327471955702869 19.189587917130712 1 0 0 I I #
coedge $-1 $374 $262 $265 $388 reversed $255 $-1 #
coedge $-1 $262 $374 $379 $472 forward $255 $-1 #
vertex $-1 $263 $476 #
straight-curve $-1 -44.511204790560306 44.760724337836244 84.808364088626362 0 0 1 I I #
straight-curve $-1 -44.511204790560306 -29.455919725011547 63.561046711603652 0 0.82903756765294845 -0.55919291073839883 I I #
edge $-1 $470 27.968753522770832 $267 44.511204790560306 $383 $477 forward 7 unknown #
point $-1 -44.511204790560306 44.760724337836244 19.189587917130716 #
point $-1 -44.511204790560306 36.327471955702883 19.189587917130716 #
edge $-1 $478 1 $478 0 $270 $-1 forward 7 unknown #
vertex $-1 $271 $479 #
ellipse-curve $-1 -39.784790142620459 38.380384911691941 13.137600856412051 0 0.55919291073839883 0.82903756765294845 1 0 0 1 I I #
point $-1 -38.784790142620459 40.544098146769585 16.345437585133457 #
edge $-1 $480 1 $480 0 $274 $-1 forward 7 unknown #
vertex $-1 $275 $481 #
ellipse-curve $-1 -32.695168170710687 38.380384911691941 13.137600856412051 0 0.55919291073839883 0.82903756765294845 1 0 0 1 I I #
point $-1 -31.695168170710687 40.544098146769585 16.345437585133457 #
loop $-1 $-1 $286 $278 #
plane-surface $-1 0 44.760724337836244 0 0 -1 0 0 0 -1 forward_v I I I I #
coedge $-1 $402 $281 $283 $406 reversed $179 $-1 #
coedge $-1 $281 $401 $482 $483 reversed $179 $-1 #
coedge $-1 $289 $284 $281 $404 forward $279 $-1 #
edge $-1 $407 15.287700937798629 $484 23.72095331993199 $403 $485 forward 7 unknown #
coedge $-1 $283 $282 $410 $486 reversed $112 $-1 #
edge $-1 $487 -89.521448675672502 $407 -79.349108227930941 $401 $488 forward 7 unknown #
vertex $-1 $285 $489 #
straight-curve $-1 9.9723080237474164 36.327471955702869 19.189587917130712 1 0 0 I I #
coedge $-1 $482 $286 $289 $414 reversed $399 $-1 #
coedge $-1 $286 $482 $405 $486 forward $399 $-1 #
vertex $-1 $287 $490 #
straight-curve $-1 11.673390413600094 44.760724337836244 84.808364088626362 0 0 1 I I #
straight-curve $-1 11.673390413600094 -29.455919725011547 63.561046711603652 0 0.82903756765294845 -0.55919291073839883 I I #
edge $-1 $484 -28.21584168138957 $290 -11.673390413600094 $409 $491 forward 7 unknown #
point $-1 11.673390413600094 44.760724337836244 19.189587917130716 #
point $-1 11.673390413600094 36.327471955702883 19.189587917130716 #
edge $-1 $492 1 $492 0 $293 $-1 forward 7 unknown #
vertex $-1 $294 $493 #
ellipse-curve $-1 16.399805061539951 38.380384911691941 13.137600856412051 0 0.55919291073839883 0.82903756765294845 1 0 0 1 I I #
point $-1 17.399805061539951 40.544098146769585 16.345437585133457 #
edge $-1 $494 1 $494 0 $297 $-1 forward 7 unknown #
vertex $-1 $298 $495 #
ellipse-curve $-1 23.489427033449715 38.380384911691941 13.137600856412051 0 0.55919291073839883 0.82903756765294845 1 0 0 1 I I #
point $-1 24.489427033449715 40.544098146769585 16.345437585133457 #
plane-surface $-1 63.963133640552996 0 0 -1 0 0 0 0 1 forward_v I I I I #
coedge $-1 $306 $304 $308 $430 reversed $201 $-1 #
edge $-1 $319 -19.189587917130716 $432 19.189587917130716 $318 $496 forward 7 unknown #
vertex $-1 $430 $497 #
straight-curve $-1 -63.963133640552996 -44.760724337836244 0 0 0 -1 I I #
edge $-1 $428 -44.760724337836244 $432 44.760724337836244 $426 $498 forward 7 unknown #
straight-curve $-1 0 -44.760724337836244 -19.189587917130716 -1 0 0 I I #
vertex $-1 $311 $499 #
straight-curve $-1 0 44.760724337836244 -19.189587917130716 1 0 0 I I #
point $-1 63.963133640552996 44.760724337836244 -19.189587917130716 #
point $-1 63.963133640552996 -44.760724337836244 -19.189587917130716 #
straight-curve $-1 -63.963133640552996 0 19.189587917130716 0 -1 0 I I #
point $-1 -63.963133640552996 44.760724337836244 19.189587917130716 #
point $-1 -63.963133640552996 -44.760724337836244 19.189587917130716 #
straight-curve $-1 63.963133640552996 -44.760724337836244 0 0 0 -1 I I #
straight-curve $-1 63.963133640552996 44.760724337836244 0 0 0 -1 I I #
plane-surface $-1 0 -44.760724337836244 0 0 1 0 0 0 1 forward_v I I I I #
coedge $-1 $500 $331 $343 $453 reversed $220 $-1 #
coedge $-1 $331 $500 $346 $455 reversed $220 $-1 #
edge $-1 $501 -63.963133640552996 $340 -48.406056767767808 $336 $502 forward 7 unknown #
straight-curve $-1 -48.406056767767808 -21.076820670906542 19.189587917130716 0 1 0 I I #
coedge $-1 $343 $334 $337 $449 forward $329 $-1 #
straight-curve $-1 -48.406056767767808 -21.076820670906542 -19.189587917130716 0 -1 0 I I #
coedge $-1 $337 $336 $500 $503 forward $338 $-1 #
edge $-1 $339 48.406056767767808 $504 63.963133640552996 $337 $505 forward 7 unknown #
point $-1 -48.406056767767808 -44.760724337836244 -19.189587917130716 #
point $-1 -48.406056767767808 -44.760724337836244 19.189587917130716 #
straight-curve $-1 -63.963133640552996 -39.546558345789926 0 0 0 -1 I I #
edge $-1 $504 -44.760724337836244 $344 -39.546558345789926 $442 $506 forward 7 unknown #
point $-1 -63.963133640552996 -39.546558345789926 -19.189587917130716 #
edge $-1 $347 39.546558345789926 $501 44.760724337836244 $443 $507 forward 7 unknown #
point $-1 -63.963133640552996 -39.546558345789926 19.189587917130716 #
coedge $-1 $362 $361 $354 $458 forward $351 $-1 #
edge $-1 $459 29.662117309235732 $462 43.170749329544357 $457 $508 forward 7 unknown #
vertex $-1 $366 $509 #
straight-curve $-1 -46.05184538322321 -66.8128888751001 19.189587917130716 0 -1 0 I I #
edge $-1 $462 -26.137963191681521 $363 -13.689801191401855 $362 $510 forward 7 unknown #
vertex $-1 $461 $511 #
straight-curve $-1 -46.05184538322321 -44.760724337836251 5.6809558968220841 0 0.71933979245794832 0.69465837861970381 I I #
point $-1 -46.05184538322321 -30.772126700551553 19.189587917130716 #
point $-1 -33.603683382943544 -44.760724337836244 5.6809558968220912 #
straight-curve $-1 0 -44.760724337836244 19.189587917130716 1 0 0 I I #
vertex $-1 $369 $512 #
point $-1 -38.827764383083377 -36.315946939928729 10.933257402744077 #
edge $-1 $470 65.618776171495654 $473 71.307076835490193 $374 $513 forward 7 unknown #
vertex $-1 $388 $514 #
straight-curve $-1 -27.968753522770832 21.039771017904254 19.189587917130709 0 1 0 I I #
edge $-1 $473 9.8487639444380477 $385 26.391215212227522 $384 $515 forward 7 unknown #
vertex $-1 $472 $516 #
straight-curve $-1 -27.968753522770832 -29.455919725011547 63.561046711603652 0 -0.82903756765294845 0.55919291073839883 I I #
point $-1 -27.968753522770832 36.327471955702883 19.189587917130716 #
point $-1 -44.511204790560306 44.760724337836244 13.501287253136169 #
straight-curve $-1 0 44.760724337836244 19.189587917130716 -1 0 0 I I #
vertex $-1 $391 $517 #
point $-1 -38.784790142620459 38.380384911691941 13.137600856412051 #
vertex $-1 $395 $518 #
point $-1 -31.695168170710687 38.380384911691941 13.137600856412051 #
coedge $-1 $410 $409 $402 $483 forward $399 $-1 #
edge $-1 $484 65.618776171495654 $487 71.307076835490193 $482 $519 forward 7 unknown #
vertex $-1 $414 $520 #
straight-curve $-1 28.21584168138957 21.039771017904254 19.189587917130709 0 1 0 I I #
edge $-1 $487 -18.243533657642153 $411 -1.7010823898526777 $410 $521 forward 7 unknown #
vertex $-1 $486 $522 #
straight-curve $-1 28.21584168138957 -29.455919725011547 63.561046711603652 0 -0.82903756765294845 0.55919291073839883 I I #
point $-1 28.21584168138957 36.327471955702883 19.189587917130716 #
point $-1 11.673390413600094 44.760724337836244 13.501287253136169 #
straight-curve $-1 0 44.760724337836244 19.189587917130716 -1 0 0 I I #
vertex $-1 $417 $523 #
point $-1 17.399805061539951 38.380384911691941 13.137600856412051 #
vertex $-1 $421 $524 #
point $-1 24.489427033449715 38.380384911691941 13.137600856412051 #
straight-curve $-1 -63.963133640552996 44.760724337836244 0 0 0 -1 I I #
point $-1 -63.963133640552996 -44.760724337836244 -19.189587917130716 #
straight-curve $-1 -63.963133640552996 0 -19.189587917130716 0 1 0 I I #
point $-1 -63.963133640552996 44.760724337836244 -19.189587917130716 #
coedge $-1 $443 $442 $448 $503 reversed $220 $-1 #
vertex $-1 $455 $525 #
straight-curve $-1 0 -44.760724337836244 19.189587917130716 1 0 0 I I #
edge $-1 $501 -19.189587917130716 $504 19.189587917130716 $500 $526 forward 7 unknown #
vertex $-1 $453 $527 #
straight-curve $-1 0 -44.760724337836244 -19.189587917130716 -1 0 0 I I #
straight-curve $-1 -63.963133640552996 0 -19.189587917130716 0 1 0 I I #
straight-curve $-1 -63.963133640552996 0 19.189587917130716 0 -1 0 I I #
straight-curve $-1 -46.05184538322321 -44.760724337836244 48.851705226366448 0 0 -1 I I #
point $-1 -46.05184538322321 -44.760724337836244 19.189587917130716 #
straight-curve $-1 -19.913882191541688 -44.760724337836244 5.6809558968220948 1 0 0 I I #
point $-1 -46.05184538322321 -44.760724337836244 5.6809558968220912 #
point $-1 -39.827764383083377 -35.621288561309022 10.21391761028613 #
straight-curve $-1 -27.968753522770832 44.760724337836244 84.808364088626362 0 0 -1 I I #
point $-1 -27.968753522770832 44.760724337836244 19.189587917130716 #
straight-curve $-1 -18.119989578332785 44.760724337836251 13.501287253136162 -1 0 0 I I #
point $-1 -27.968753522770832 44.760724337836244 13.501287253136169 #
point $-1 -39.784790142620459 37.821192000953538 12.308563288759101 #
point $-1 -32.695168170710687 37.821192000953538 12.308563288759101 #
straight-curve $-1 28.21584168138957 44.760724337836244 84.808364088626362 0 0 -1 I I #
point $-1 28.21584168138957 44.760724337836244 19.189587917130716 #
straight-curve $-1 9.9723080237474164 44.760724337836251 13.501287253136162 -1 0 0 I I #
point $-1 28.21584168138957 44.760724337836244 13.501287253136169 #
point $-1 16.399805061539951 37.821192000953538 12.308563288759101 #
point $-1 23.489427033449715 37.821192000953538 12.308563288759101 #
point $-1 -63.963133640552996 -44.760724337836244 19.189587917130716 #
straight-curve $-1 -63.963133640552996 -44.760724337836244 0 0 0 -1 I I #
point $-1 -63.963133640552996 -44.760724337836244 -19.189587917130716 #
End-of-ACIS-data 