500 0 7 0           
7 Unknown 11 ACIS 5.0 NT 24 Thu Mar 25 20:09:10 1999 
-1 9.9999999999999995e-007 1e-010 
body $-1 $7 $-1 $8 #
body $-1 $9 $-1 $10 #
body $-1 $11 $-1 $12 #
body $-1 $13 $-1 $14 #
body $-1 $15 $-1 $16 #
body $-1 $17 $-1 $18 #
body $-1 $19 $-1 $20 #
lump $-1 $-1 $21 $0 #
transform $-1 1 0 0 0 1 0 0 0 1 75.219580675679794 45.960456209720768 22.038492508095146 1 rotate no_reflect no_shear #
lump $-1 $-1 $22 $1 #
transform $-1 1 0 0 0 1 0 0 0 1 75.219580675679794 45.960456209720768 22.038492508095146 1 rotate no_reflect no_shear #
lump $-1 $-1 $23 $2 #
transform $-1 1 0 0 0 1 0 0 0 1 75.219580675679794 45.960456209720768 22.038492508095146 1 rotate no_reflect no_shear #
lump $-1 $-1 $24 $3 #
transform $-1 1 0 0 0 1 0 0 0 1 75.219580675679794 45.960456209720768 22.038492508095146 1 rotate no_reflect no_shear #
lump $-1 $-1 $25 $4 #
transform $-1 1 0 0 0 1 0 0 0 1 75.219580675679794 45.960456209720768 22.038492508095146 1 rotate no_reflect no_shear #
lump $-1 $-1 $26 $5 #
transform $-1 1 0 0 0 1 0 0 0 1 75.219580675679794 45.960456209720768 22.038492508095146 1 rotate no_reflect no_shear #
lump $-1 $-1 $27 $6 #
transform $-1 1 0 0 0 1 0 0 0 1 75.219580675679794 45.960456209720768 22.038492508095146 1 rotate no_reflect no_shear #
shell $-1 $-1 $-1 $28 $-1 $7 #
shell $-1 $-1 $-1 $29 $-1 $9 #
shell $-1 $-1 $-1 $30 $-1 $11 #
shell $-1 $-1 $-1 $31 $-1 $13 #
shell $-1 $-1 $-1 $32 $-1 $15 #
shell $-1 $-1 $-1 $33 $-1 $17 #
shell $-1 $-1 $-1 $34 $-1 $19 #
face $-1 $35 $36 $21 $-1 $37 forward single #
face $-1 $38 $39 $22 $-1 $40 reversed single #
face $-1 $41 $42 $23 $-1 $43 reversed single #
face $-1 $44 $45 $24 $-1 $46 reversed single #
face $-1 $47 $48 $25 $-1 $49 forward single #
face $-1 $50 $51 $26 $-1 $52 forward single #
face $-1 $53 $54 $27 $-1 $55 forward single #
face $-1 $56 $57 $21 $-1 $58 reversed single #
loop $-1 $-1 $59 $28 #
plane-surface $-1 0 0 22.038492508095146 0 0 1 1 0 0 forward_v I I I I #
face $-1 $60 $61 $22 $-1 $62 reversed single #
loop $-1 $-1 $63 $29 #
plane-surface $-1 -70.84705820965064 -28.276205390459118 0 0 -1 0 0 0 -1 forward_v I I I I #
face $-1 $64 $65 $23 $-1 $66 reversed single #
loop $-1 $-1 $67 $30 #
plane-surface $-1 0 34.803814916470522 17.454577537555533 0 0 1 1 0 0 forward_v I I I I #
face $-1 $68 $69 $24 $-1 $70 reversed single #
loop $-1 $-1 $71 $31 #
plane-surface $-1 -75.219580675679779 -25.186622740222365 17.835186804665909 -0.51503808176128008 0 0.85716729658548041 0.85716729658548041 0 0.51503808176128008 forward_v I I I I #
face $-1 $72 $73 $25 $-1 $74 forward single #
loop $-1 $75 $76 $32 #
cone-surface $-1 -71.247251781312585 -27.04037233036442 19.146987211503742 0.51503808176128008 0 -0.85716729658548041 0.4285836482927402 0 0.25751904088064004 1 I I 0 1 0.5 forward I I I I #
face $-1 $77 $78 $26 $-1 $79 forward single #
loop $-1 $80 $81 $33 #
cone-surface $-1 -71.247251781312585 -25.186622740222365 19.146987211503742 0.51503808176128008 0 -0.85716729658548041 0.4285836482927402 0 0.25751904088064004 1 I I 0 1 0.5 forward I I I I #
face $-1 $82 $83 $27 $-1 $84 forward single #
loop $-1 $85 $86 $34 #
cone-surface $-1 -71.247251781312585 -23.33287315008031 19.146987211503742 0.51503808176128008 0 -0.85716729658548041 0.4285836482927402 0 0.25751904088064004 1 I I 0 1 0.5 forward I I I I #
face $-1 $87 $88 $21 $-1 $89 reversed single #
loop $-1 $-1 $90 $35 #
plane-surface $-1 0 0 -22.038492508095146 0 0 1 1 0 0 forward_v I I I I #
coedge $-1 $91 $92 $93 $94 forward $36 $-1 #
face $-1 $95 $96 $22 $-1 $97 forward single #
loop $-1 $-1 $98 $38 #
plane-surface $-1 -66.474535743621487 -37.118330800089943 0 -1 0 0 0 0 1 forward_v I I I I #
coedge $-1 $99 $100 $101 $102 reversed $39 $-1 #
face $-1 $103 $104 $23 $-1 $105 reversed single #
loop $-1 $-1 $106 $41 #
plane-surface $-1 0 23.647173623220283 19.746535022825341 0 1 0 0 0 1 forward_v I I I I #
coedge $-1 $107 $108 $109 $110 reversed $42 $-1 #
face $-1 $111 $112 $24 $-1 $113 forward single #
loop $-1 $-1 $114 $44 #
plane-surface $-1 -152.70147775985973 -22.097040089985608 146.7867160407977 0 -1 0 0.51503808176128008 0 -0.85716729658548041 forward_v I I I I #
coedge $-1 $115 $116 $117 $118 reversed $45 $-1 #
face $-1 $-1 $119 $25 $-1 $120 forward single #
loop $-1 $121 $122 $47 #
cone-surface $-1 -70.643901023310704 -27.04037233036442 18.142842942480584 0.51503808176128008 0 -0.85716729658548041 0.2142918241463701 0 0.12875952044032002 1 I I -0.70710678118654746 0.70710678118654746 0.25 forward I I I I #
loop $-1 $-1 $123 $32 #
coedge $-1 $76 $76 $124 $125 reversed $48 $-1 #
face $-1 $-1 $126 $26 $-1 $127 forward single #
loop $-1 $128 $129 $50 #
cone-surface $-1 -70.643901023310704 -25.186622740222365 18.142842942480584 0.51503808176128008 0 -0.85716729658548041 0.2142918241463701 0 0.12875952044032002 1 I I -0.70710678118654746 0.70710678118654746 0.25 forward I I I I #
loop $-1 $-1 $130 $33 #
coedge $-1 $81 $81 $131 $132 reversed $51 $-1 #
face $-1 $-1 $133 $27 $-1 $134 forward single #
loop $-1 $135 $136 $53 #
cone-surface $-1 -70.643901023310704 -23.33287315008031 18.142842942480584 0.51503808176128008 0 -0.85716729658548041 0.2142918241463701 0 0.12875952044032002 1 I I -0.70710678118654746 0.70710678118654746 0.25 forward I I I I #
loop $-1 $-1 $137 $34 #
coedge $-1 $86 $86 $138 $139 reversed $54 $-1 #
face $-1 $140 $141 $21 $-1 $142 reversed single #
loop $-1 $-1 $143 $56 #
plane-surface $-1 0 -45.960456209720768 0 0 1 0 0 0 1 forward_v I I I I #
coedge $-1 $144 $145 $146 $147 forward $57 $-1 #
coedge $-1 $148 $59 $149 $150 forward $36 $-1 #
coedge $-1 $59 $148 $151 $152 forward $36 $-1 #
coedge $-1 $153 $154 $59 $94 reversed $155 $-1 #
edge $-1 $156 -45.960456209720768 $157 45.960456209720768 $93 $158 forward 7 unknown #
face $-1 $159 $160 $22 $-1 $161 reversed single #
loop $-1 $-1 $162 $60 #
plane-surface $-1 0 0 22.038492508095146 0 0 1 1 0 0 forward_v I I I I #
coedge $-1 $163 $164 $165 $166 reversed $61 $-1 #
coedge $-1 $167 $63 $168 $169 forward $39 $-1 #
coedge $-1 $63 $167 $170 $171 reversed $39 $-1 #
coedge $-1 $172 $162 $63 $102 forward $96 $-1 #
edge $-1 $173 31.051006638796167 $174 39.796051570854473 $101 $175 forward 7 unknown #
face $-1 $176 $177 $23 $-1 $178 reversed single #
loop $-1 $-1 $179 $64 #
plane-surface $-1 0 45.960456209720768 0 0 -1 0 0 0 -1 forward_v I I I I #
coedge $-1 $180 $181 $182 $183 reversed $65 $-1 #
coedge $-1 $184 $67 $180 $185 forward $42 $-1 #
coedge $-1 $67 $184 $179 $186 reversed $42 $-1 #
coedge $-1 $187 $188 $67 $110 forward $189 $-1 #
edge $-1 $190 6.2452661649850221 $191 28.5585487514855 $109 $192 forward 7 unknown #
face $-1 $193 $194 $24 $-1 $195 forward single #
loop $-1 $-1 $196 $68 #
plane-surface $-1 -70.84705820965064 -28.276205390459118 0 0 -1 0 0 0 -1 forward_v I I I I #
coedge $-1 $197 $198 $199 $200 reversed $69 $-1 #
coedge $-1 $201 $71 $196 $202 reversed $45 $-1 #
coedge $-1 $71 $201 $197 $203 forward $45 $-1 #
coedge $-1 $199 $204 $71 $118 forward $194 $-1 #
edge $-1 $205 -15.682894020347939 $206 -9.5037287198744256 $117 $207 forward 7 unknown #
loop $-1 $-1 $124 $72 #
plane-surface $-1 -75.219580675679779 -25.186622740222365 17.835186804665909 -0.51503808176128008 0 0.85716729658548041 0.85716729658548041 0 0.51503808176128008 forward_v I I I I #
loop $-1 $-1 $208 $47 #
coedge $-1 $122 $122 $123 $209 reversed $73 $-1 #
coedge $-1 $123 $123 $122 $209 forward $75 $-1 #
coedge $-1 $124 $124 $76 $125 forward $119 $-1 #
edge $-1 $210 0 $210 6.2831853071796004 $124 $211 forward 7 unknown #
loop $-1 $-1 $131 $77 #
plane-surface $-1 -75.219580675679779 -25.186622740222365 17.835186804665909 -0.51503808176128008 0 0.85716729658548041 0.85716729658548041 0 0.51503808176128008 forward_v I I I I #
loop $-1 $-1 $212 $50 #
coedge $-1 $129 $129 $130 $213 reversed $78 $-1 #
coedge $-1 $130 $130 $129 $213 forward $80 $-1 #
coedge $-1 $131 $131 $81 $132 forward $126 $-1 #
edge $-1 $214 0 $214 6.2831853071796004 $131 $215 forward 7 unknown #
loop $-1 $-1 $138 $82 #
plane-surface $-1 -75.219580675679779 -25.186622740222365 17.835186804665909 -0.51503808176128008 0 0.85716729658548041 0.85716729658548041 0 0.51503808176128008 forward_v I I I I #
loop $-1 $-1 $216 $53 #
coedge $-1 $136 $136 $137 $217 reversed $83 $-1 #
coedge $-1 $137 $137 $136 $217 forward $85 $-1 #
coedge $-1 $138 $138 $86 $139 forward $133 $-1 #
edge $-1 $218 0 $218 6.2831853071796004 $138 $219 forward 7 unknown #
face $-1 $220 $221 $21 $-1 $222 reversed single #
loop $-1 $-1 $223 $87 #
plane-surface $-1 -75.219580675679794 0 0 1 0 0 0 0 -1 forward_v I I I I #
coedge $-1 $224 $151 $225 $226 forward $88 $-1 #
coedge $-1 $227 $90 $224 $228 forward $57 $-1 #
coedge $-1 $90 $227 $229 $230 forward $57 $-1 #
coedge $-1 $154 $153 $90 $147 reversed $155 $-1 #
edge $-1 $231 -45.960456209720768 $232 45.960456209720768 $146 $233 forward 7 unknown #
coedge $-1 $92 $91 $234 $235 forward $36 $-1 #
coedge $-1 $236 $237 $91 $150 reversed $221 $-1 #
edge $-1 $157 -75.219580675679794 $238 75.219580675679794 $149 $239 forward 7 unknown #
coedge $-1 $143 $240 $92 $152 reversed $88 $-1 #
edge $-1 $241 -75.219580675679794 $156 75.219580675679794 $151 $242 forward 7 unknown #
coedge $-1 $146 $93 $240 $243 forward $155 $-1 #
coedge $-1 $93 $146 $236 $244 reversed $155 $-1 #
loop $-1 $-1 $153 $220 #
vertex $-1 $94 $245 #
vertex $-1 $94 $246 #
straight-curve $-1 75.219580675679794 0 22.038492508095146 0 1 0 I I #
face $-1 $247 $248 $22 $-1 $249 reversed single #
loop $-1 $-1 $170 $95 #
plane-surface $-1 -75.219580675679794 0 0 1 0 0 0 0 -1 forward_v I I I I #
coedge $-1 $101 $250 $164 $251 forward $96 $-1 #
coedge $-1 $168 $98 $252 $253 reversed $61 $-1 #
coedge $-1 $98 $168 $162 $251 reversed $61 $-1 #
coedge $-1 $254 $255 $98 $166 forward $256 $-1 #
edge $-1 $257 -22.038492508095146 $258 22.038492508095146 $165 $259 forward 7 unknown #
coedge $-1 $100 $99 $260 $261 reversed $39 $-1 #
coedge $-1 $164 $163 $99 $169 reversed $61 $-1 #
edge $-1 $173 -22.038492508095146 $262 22.038492508095146 $168 $263 forward 7 unknown #
coedge $-1 $264 $265 $100 $171 forward $160 $-1 #
edge $-1 $174 -22.038492508095146 $266 22.038492508095146 $170 $267 forward 7 unknown #
coedge $-1 $250 $101 $265 $268 forward $96 $-1 #
vertex $-1 $102 $269 #
vertex $-1 $268 $270 #
straight-curve $-1 -35.42352910482532 -28.276205390459118 22.038492508095146 -1 0 0 I I #
face $-1 $271 $272 $23 $-1 $273 forward single #
loop $-1 $-1 $274 $103 #
plane-surface $-1 -75.219580675679794 0 0 1 0 0 0 0 -1 forward_v I I I I #
coedge $-1 $275 $276 $108 $186 forward $104 $-1 #
coedge $-1 $277 $106 $107 $185 reversed $65 $-1 #
coedge $-1 $106 $277 $278 $279 reversed $65 $-1 #
coedge $-1 $280 $274 $106 $183 forward $177 $-1 #
edge $-1 $281 7.5813100261428623 $282 12.165224996682479 $182 $283 forward 7 unknown #
coedge $-1 $108 $107 $274 $284 reversed $42 $-1 #
edge $-1 $190 -75.219580675679794 $281 75.219580675679794 $180 $285 forward 7 unknown #
edge $-1 $191 -75.219580675679794 $286 75.219580675679794 $179 $287 forward 7 unknown #
coedge $-1 $288 $109 $276 $289 reversed $189 $-1 #
coedge $-1 $109 $288 $277 $290 forward $189 $-1 #
loop $-1 $-1 $109 $271 #
vertex $-1 $110 $291 #
vertex $-1 $186 $292 #
straight-curve $-1 75.219580675679794 17.401907458235261 17.454577537555533 0 1 0 I I #
face $-1 $-1 $293 $24 $-1 $294 reversed single #
loop $-1 $-1 $117 $111 #
plane-surface $-1 0 0 22.038492508095146 0 0 1 1 0 0 forward_v I I I I #
coedge $-1 $295 $296 $115 $202 forward $112 $-1 #
coedge $-1 $198 $114 $116 $203 reversed $69 $-1 #
coedge $-1 $114 $197 $297 $298 reversed $69 $-1 #
coedge $-1 $299 $117 $114 $200 forward $194 $-1 #
edge $-1 $206 -8.1266335178614213 $300 -1.1311582042500703 $199 $301 forward 7 unknown #
coedge $-1 $116 $115 $302 $303 reversed $45 $-1 #
edge $-1 $304 2.7189085691318522 $205 10.880063738581004 $196 $305 forward 7 unknown #
edge $-1 $306 -1.584064559475167e-014 $206 8.1611551694491382 $197 $307 forward 7 unknown #
coedge $-1 $117 $299 $295 $308 forward $194 $-1 #
vertex $-1 $118 $309 #
vertex $-1 $118 $310 #
straight-curve $-1 -68.224105362068457 -12.593311370111183 22.038492508095146 0 1 0 I I #
coedge $-1 $208 $208 $-1 $311 reversed $121 $-1 #
edge $-1 $312 0 $312 6.2831853071796004 $122 $313 forward 7 unknown #
vertex $-1 $125 $314 #
ellipse-curve $-1 -71.721843018874139 -27.04037233036442 19.936839656380513 -0.51503808176128008 0 0.85716729658548041 0.4285836482927402 0 0.25751904088064004 1 I I #
coedge $-1 $212 $212 $-1 $315 reversed $128 $-1 #
edge $-1 $316 0 $316 6.2831853071796004 $129 $317 forward 7 unknown #
vertex $-1 $132 $318 #
ellipse-curve $-1 -71.721843018874139 -25.186622740222365 19.936839656380513 -0.51503808176128008 0 0.85716729658548041 0.4285836482927402 0 0.25751904088064004 1 I I #
coedge $-1 $216 $216 $-1 $319 reversed $135 $-1 #
edge $-1 $320 0 $320 6.2831853071796004 $136 $321 forward 7 unknown #
vertex $-1 $139 $322 #
ellipse-curve $-1 -71.721843018874139 -23.33287315008031 19.936839656380513 -0.51503808176128008 0 0.85716729658548041 0.4285836482927402 0 0.25751904088064004 1 I I #
face $-1 $-1 $155 $21 $-1 $323 reversed single #
loop $-1 $-1 $236 $140 #
plane-surface $-1 0 45.960456209720768 0 0 -1 0 0 0 -1 forward_v I I I I #
coedge $-1 $324 $234 $237 $325 forward $141 $-1 #
coedge $-1 $240 $143 $144 $228 reversed $88 $-1 #
coedge $-1 $234 $324 $143 $226 reversed $141 $-1 #
edge $-1 $241 -22.038492508095146 $326 22.038492508095146 $225 $327 forward 7 unknown #
coedge $-1 $145 $144 $324 $328 forward $57 $-1 #
edge $-1 $232 -75.219580675679794 $326 75.219580675679794 $224 $329 forward 7 unknown #
coedge $-1 $237 $236 $145 $230 reversed $221 $-1 #
edge $-1 $330 -75.219580675679794 $231 75.219580675679794 $229 $331 forward 7 unknown #
vertex $-1 $147 $332 #
vertex $-1 $243 $333 #
straight-curve $-1 75.219580675679794 0 -22.038492508095146 0 -1 0 I I #
coedge $-1 $223 $225 $148 $235 reversed $141 $-1 #
edge $-1 $238 -45.960456209720768 $241 45.960456209720768 $234 $334 forward 7 unknown #
coedge $-1 $229 $149 $154 $244 forward $221 $-1 #
coedge $-1 $149 $229 $223 $325 reversed $221 $-1 #
vertex $-1 $150 $335 #
straight-curve $-1 0 45.960456209720768 22.038492508095146 -1 0 0 I I #
coedge $-1 $151 $224 $153 $243 reversed $88 $-1 #
vertex $-1 $235 $336 #
straight-curve $-1 0 -45.960456209720768 22.038492508095146 1 0 0 I I #
edge $-1 $156 -22.038492508095146 $232 22.038492508095146 $153 $337 forward 7 unknown #
edge $-1 $157 -22.038492508095146 $231 22.038492508095146 $154 $338 forward 7 unknown #
point $-1 75.219580675679794 -45.960456209720768 22.038492508095146 #
point $-1 75.219580675679794 45.960456209720768 22.038492508095146 #
face $-1 $-1 $256 $22 $-1 $339 reversed single #
loop $-1 $-1 $252 $159 #
plane-surface $-1 0 0 -22.038492508095146 0 0 1 1 0 0 forward_v I I I I #
coedge $-1 $162 $172 $254 $340 forward $96 $-1 #
edge $-1 $258 -27.401290809675796 $173 -9.7170399904141469 $162 $341 forward 7 unknown #
coedge $-1 $342 $260 $163 $253 forward $248 $-1 #
edge $-1 $262 9.7170399904141469 $257 27.401290809675796 $252 $343 forward 7 unknown #
coedge $-1 $344 $165 $250 $340 reversed $256 $-1 #
coedge $-1 $165 $344 $342 $345 reversed $256 $-1 #
loop $-1 $-1 $165 $247 #
vertex $-1 $345 $346 #
vertex $-1 $166 $347 #
straight-curve $-1 -66.474535743621487 -45.960456209720768 0 0 0 1 I I #
coedge $-1 $252 $348 $167 $261 forward $248 $-1 #
edge $-1 $266 -39.796051570854473 $262 -31.051006638796167 $260 $349 forward 7 unknown #
vertex $-1 $261 $350 #
straight-curve $-1 -66.474535743621487 -28.276205390459118 0 0 0 -1 I I #
coedge $-1 $351 $170 $348 $352 reversed $160 $-1 #
coedge $-1 $170 $351 $172 $268 reversed $160 $-1 #
vertex $-1 $261 $353 #
straight-curve $-1 -75.219580675679794 -28.276205390459118 0 0 0 -1 I I #
edge $-1 $174 28.276205390459118 $354 45.960456209720768 $265 $355 forward 7 unknown #
point $-1 -66.474535743621487 -28.276205390459118 22.038492508095146 #
point $-1 -75.219580675679794 -28.276205390459118 22.038492508095146 #
face $-1 $-1 $189 $23 $-1 $356 reversed single #
loop $-1 $-1 $278 $176 #
plane-surface $-1 0 0 22.038492508095146 0 0 1 1 0 0 forward_v I I I I #
coedge $-1 $182 $357 $184 $284 forward $177 $-1 #
coedge $-1 $358 $179 $357 $359 reversed $104 $-1 #
coedge $-1 $179 $358 $187 $289 forward $104 $-1 #
coedge $-1 $181 $180 $188 $290 reversed $65 $-1 #
coedge $-1 $360 $361 $181 $279 forward $272 $-1 #
edge $-1 $282 -75.219580675679794 $362 75.219580675679794 $278 $363 forward 7 unknown #
coedge $-1 $357 $182 $361 $364 reversed $177 $-1 #
vertex $-1 $284 $365 #
vertex $-1 $183 $366 #
straight-curve $-1 -75.219580675679794 23.647173623220283 9.8732675114126707 0 0 1 I I #
edge $-1 $286 -28.5585487514855 $281 -6.2452661649850221 $274 $367 forward 7 unknown #
straight-curve $-1 0 23.647173623220283 17.454577537555533 -1 0 0 I I #
vertex $-1 $284 $368 #
straight-curve $-1 0 45.960456209720768 17.454577537555533 -1 0 0 I I #
coedge $-1 $188 $187 $360 $369 reversed $189 $-1 #
edge $-1 $370 -22.038492508095146 $191 -17.454577537555533 $187 $371 forward 7 unknown #
edge $-1 $362 -12.165224996682479 $190 -7.5813100261428623 $188 $372 forward 7 unknown #
point $-1 75.219580675679794 23.647173623220283 17.454577537555533 #
point $-1 75.219580675679794 45.960456209720761 17.454577537555533 #
loop $-1 $-1 $302 $193 #
plane-surface $-1 -75.219580675679794 0 0 1 0 0 0 0 -1 forward_v I I I I #
coedge $-1 $296 $196 $204 $308 reversed $112 $-1 #
coedge $-1 $196 $295 $373 $374 reversed $112 $-1 #
coedge $-1 $302 $375 $198 $298 forward $293 $-1 #
edge $-1 $300 51.354865512303704 $306 55.558171215732948 $297 $376 forward 7 unknown #
coedge $-1 $204 $199 $375 $377 forward $194 $-1 #
vertex $-1 $377 $378 #
straight-curve $-1 -76.350738879929864 -22.097040089985608 22.038492508095146 -1 0 0 I I #
coedge $-1 $373 $297 $201 $303 forward $293 $-1 #
edge $-1 $306 9.5037287198744256 $304 15.682894020347939 $302 $379 forward 7 unknown #
vertex $-1 $374 $380 #
straight-curve $-1 -77.550140183545636 -28.276205390459118 16.43484535073592 0.85716729658548041 0 0.51503808176128008 I I #
vertex $-1 $303 $381 #
straight-curve $-1 -75.219580675679779 -22.097040089985608 17.835186804665909 0.85716729658548041 0 0.51503808176128008 I I #
edge $-1 $382 -39.796051570854473 $205 -32.800576257243122 $204 $383 forward 7 unknown #
point $-1 -68.224105362068443 -28.276205390459122 22.038492508095146 #
point $-1 -68.224105362068443 -22.097040089985608 22.038492508095146 #
edge $-1 $384 1 $384 0 $208 $-1 forward 7 unknown #
vertex $-1 $209 $385 #
ellipse-curve $-1 -70.77266054375103 -27.04037233036442 18.357134766626956 -0.51503808176128008 0 0.85716729658548041 0.4285836482927402 0 0.25751904088064004 1 I I #
point $-1 -71.293259370581396 -27.04037233036442 20.194358697261173 #
edge $-1 $386 1 $386 0 $212 $-1 forward 7 unknown #
vertex $-1 $213 $387 #
ellipse-curve $-1 -70.77266054375103 -25.186622740222365 18.357134766626956 -0.51503808176128008 0 0.85716729658548041 0.4285836482927402 0 0.25751904088064004 1 I I #
point $-1 -71.293259370581396 -25.186622740222365 20.194358697261173 #
edge $-1 $388 1 $388 0 $216 $-1 forward 7 unknown #
vertex $-1 $217 $389 #
ellipse-curve $-1 -70.77266054375103 -23.33287315008031 18.357134766626956 -0.51503808176128008 0 0.85716729658548041 0.4285836482927402 0 0.25751904088064004 1 I I #
point $-1 -71.293259370581396 -23.33287315008031 20.194358697261173 #
plane-surface $-1 75.219580675679794 0 0 -1 0 0 0 0 1 forward_v I I I I #
coedge $-1 $225 $223 $227 $328 reversed $141 $-1 #
edge $-1 $238 -22.038492508095146 $330 22.038492508095146 $237 $390 forward 7 unknown #
vertex $-1 $328 $391 #
straight-curve $-1 -75.219580675679794 -45.960456209720768 0 0 0 -1 I I #
edge $-1 $326 -45.960456209720768 $330 45.960456209720768 $324 $392 forward 7 unknown #
straight-curve $-1 0 -45.960456209720768 -22.038492508095146 -1 0 0 I I #
vertex $-1 $230 $393 #
straight-curve $-1 0 45.960456209720768 -22.038492508095146 1 0 0 I I #
point $-1 75.219580675679794 45.960456209720768 -22.038492508095146 #
point $-1 75.219580675679794 -45.960456209720768 -22.038492508095146 #
straight-curve $-1 -75.219580675679794 0 22.038492508095146 0 -1 0 I I #
point $-1 -75.219580675679794 45.960456209720768 22.038492508095146 #
point $-1 -75.219580675679794 -45.960456209720768 22.038492508095146 #
straight-curve $-1 75.219580675679794 -45.960456209720768 0 0 0 -1 I I #
straight-curve $-1 75.219580675679794 45.960456209720768 0 0 0 -1 I I #
plane-surface $-1 0 -45.960456209720768 0 0 1 0 0 0 1 forward_v I I I I #
edge $-1 $354 -75.219580675679794 $258 -66.474535743621487 $254 $394 forward 7 unknown #
straight-curve $-1 -66.474535743621487 -18.559165400044972 22.038492508095146 0 1 0 I I #
coedge $-1 $348 $252 $255 $345 forward $248 $-1 #
straight-curve $-1 -66.474535743621487 -18.559165400044972 -22.038492508095146 0 -1 0 I I #
coedge $-1 $255 $254 $351 $395 forward $256 $-1 #
edge $-1 $257 66.474535743621487 $396 75.219580675679794 $255 $397 forward 7 unknown #
point $-1 -66.474535743621487 -45.960456209720768 -22.038492508095146 #
point $-1 -66.474535743621487 -45.960456209720768 22.038492508095146 #
coedge $-1 $260 $342 $264 $352 forward $248 $-1 #
straight-curve $-1 -35.42352910482532 -28.276205390459118 -22.038492508095146 1 0 0 I I #
point $-1 -66.474535743621487 -28.276205390459118 -22.038492508095146 #
coedge $-1 $265 $264 $344 $395 reversed $160 $-1 #
edge $-1 $396 -45.960456209720768 $266 -28.276205390459118 $264 $398 forward 7 unknown #
point $-1 -75.219580675679794 -28.276205390459118 -22.038492508095146 #
vertex $-1 $268 $399 #
straight-curve $-1 -75.219580675679794 0 22.038492508095146 0 -1 0 I I #
plane-surface $-1 75.219580675679794 0 0 -1 0 0 0 0 1 forward_v I I I I #
coedge $-1 $274 $280 $275 $359 forward $177 $-1 #
coedge $-1 $276 $275 $400 $401 reversed $104 $-1 #
edge $-1 $402 -22.038492508095146 $286 -17.454577537555533 $275 $403 forward 7 unknown #
coedge $-1 $400 $278 $288 $369 forward $272 $-1 #
coedge $-1 $278 $400 $280 $364 forward $272 $-1 #
vertex $-1 $369 $404 #
straight-curve $-1 0 23.647173623220283 22.038492508095146 1 0 0 I I #
edge $-1 $402 -45.960456209720768 $282 -23.647173623220283 $280 $405 forward 7 unknown #
point $-1 -75.219580675679794 23.647173623220283 17.454577537555533 #
point $-1 -75.219580675679794 23.647173623220283 22.03849250809515 #
straight-curve $-1 -75.219580675679794 17.401907458235261 17.454577537555533 0 -1 0 I I #
point $-1 -75.219580675679794 45.960456209720761 17.454577537555533 #
edge $-1 $362 23.647173623220283 $370 45.960456209720768 $288 $406 forward 7 unknown #
vertex $-1 $369 $407 #
straight-curve $-1 75.219580675679794 45.960456209720768 0 0 0 -1 I I #
straight-curve $-1 75.219580675679794 23.647173623220283 9.8732675114126707 0 0 -1 I I #
coedge $-1 $375 $302 $296 $374 forward $293 $-1 #
edge $-1 $304 17.835186804665902 $382 22.038492508095146 $373 $408 forward 7 unknown #
coedge $-1 $297 $373 $299 $377 reversed $293 $-1 #
straight-curve $-1 -75.219580675679794 -22.097040089985608 73.39335802039885 0 0 -1 I I #
edge $-1 $300 22.097040089985608 $382 28.276205390459118 $375 $409 forward 7 unknown #
point $-1 -75.219580675679794 -22.097040089985608 22.038492508095146 #
straight-curve $-1 -75.219580675679794 -12.593311370111183 17.835186804665906 0 -1 0 I I #
point $-1 -75.219580675679794 -28.276205390459122 17.835186804665902 #
point $-1 -75.219580675679794 -22.097040089985608 17.835186804665902 #
vertex $-1 $374 $410 #
straight-curve $-1 -35.42352910482532 -28.276205390459118 22.038492508095146 1 0 0 I I #
vertex $-1 $311 $411 #
point $-1 -70.344076895458286 -27.04037233036442 18.614653807507594 #
vertex $-1 $315 $412 #
point $-1 -70.344076895458286 -25.186622740222365 18.614653807507594 #
vertex $-1 $319 $413 #
point $-1 -70.344076895458286 -23.33287315008031 18.614653807507594 #
straight-curve $-1 -75.219580675679794 45.960456209720768 0 0 0 -1 I I #
point $-1 -75.219580675679794 -45.960456209720768 -22.038492508095146 #
straight-curve $-1 -75.219580675679794 0 -22.038492508095146 0 1 0 I I #
point $-1 -75.219580675679794 45.960456209720768 -22.038492508095146 #
straight-curve $-1 0 -45.960456209720768 22.038492508095146 1 0 0 I I #
edge $-1 $354 -22.038492508095146 $396 22.038492508095146 $351 $414 forward 7 unknown #
vertex $-1 $352 $415 #
straight-curve $-1 0 -45.960456209720768 -22.038492508095146 -1 0 0 I I #
straight-curve $-1 -75.219580675679794 0 -22.038492508095146 0 1 0 I I #
point $-1 -75.219580675679794 -45.960456209720768 22.038492508095146 #
coedge $-1 $361 $360 $358 $401 forward $272 $-1 #
edge $-1 $370 -75.219580675679794 $402 75.219580675679794 $358 $416 forward 7 unknown #
vertex $-1 $401 $417 #
straight-curve $-1 -75.219580675679794 45.960456209720768 0 0 0 -1 I I #
point $-1 75.219580675679794 23.647173623220283 22.03849250809515 #
straight-curve $-1 -75.219580675679794 0 22.038492508095146 0 -1 0 I I #
straight-curve $-1 75.219580675679794 0 22.038492508095146 0 1 0 I I #
point $-1 75.219580675679794 45.960456209720768 22.038492508095146 #
straight-curve $-1 -75.219580675679794 -28.276205390459118 0 0 0 1 I I #
straight-curve $-1 -75.219580675679794 0 22.038492508095146 0 -1 0 I I #
point $-1 -75.219580675679794 -28.276205390459118 22.038492508095146 #
point $-1 -70.515141502870378 -27.04037233036442 17.928551118334212 #
point $-1 -70.515141502870378 -25.186622740222365 17.928551118334212 #
point $-1 -70.515141502870378 -23.33287315008031 17.928551118334212 #
straight-curve $-1 -75.219580675679794 -45.960456209720768 0 0 0 -1 I I #
point $-1 -75.219580675679794 -45.960456209720768 -22.038492508095146 #
straight-curve $-1 0 45.960456209720768 22.038492508095146 -1 0 0 I I #
point $-1 -75.219580675679794 45.960456209720768 22.038492508095146 #
End-of-ACIS-data 