500 0 14 0           
7 Unknown 11 ACIS 5.0 NT 24 Fri Mar 26 01:29:40 1999 
-1 9.9999999999999995e-007 1e-010 
body $-1 $14 $-1 $15 #
body $-1 $16 $-1 $17 #
body $-1 $18 $-1 $19 #
body $-1 $20 $-1 $21 #
body $-1 $22 $-1 $23 #
body $-1 $24 $-1 $25 #
body $-1 $26 $-1 $27 #
body $-1 $28 $-1 $29 #
body $-1 $30 $-1 $31 #
body $-1 $32 $-1 $33 #
body $-1 $34 $-1 $35 #
body $-1 $36 $-1 $37 #
body $-1 $38 $-1 $39 #
body $-1 $40 $-1 $41 #
lump $-1 $-1 $42 $0 #
transform $-1 1 0 0 0 1 0 0 0 1 73.161412396618545 37.794890470939698 17.866266547124255 1 rotate no_reflect no_shear #
lump $-1 $-1 $43 $1 #
transform $-1 1 0 0 0 1 0 0 0 1 73.161412396618545 37.794890470939698 17.866266547124255 1 rotate no_reflect no_shear #
lump $-1 $-1 $44 $2 #
transform $-1 1 0 0 0 1 0 0 0 1 73.161412396618545 37.794890470939698 17.866266547124255 1 rotate no_reflect no_shear #
lump $-1 $-1 $45 $3 #
transform $-1 1 0 0 0 1 0 0 0 1 73.161412396618545 37.794890470939698 17.866266547124255 1 rotate no_reflect no_shear #
lump $-1 $-1 $46 $4 #
transform $-1 1 0 0 0 1 0 0 0 1 73.161412396618545 37.794890470939698 17.866266547124255 1 rotate no_reflect no_shear #
lump $-1 $-1 $47 $5 #
transform $-1 1 0 0 0 1 0 0 0 1 73.161412396618545 37.794890470939698 17.866266547124255 1 rotate no_reflect no_shear #
lump $-1 $-1 $48 $6 #
transform $-1 1 0 0 0 1 0 0 0 1 73.161412396618545 37.794890470939698 17.866266547124255 1 rotate no_reflect no_shear #
lump $-1 $-1 $49 $7 #
transform $-1 1 0 0 0 1 0 0 0 1 73.161412396618545 37.794890470939698 17.866266547124255 1 rotate no_reflect no_shear #
lump $-1 $-1 $50 $8 #
transform $-1 1 0 0 0 1 0 0 0 1 73.161412396618545 37.794890470939698 17.866266547124255 1 rotate no_reflect no_shear #
lump $-1 $-1 $51 $9 #
transform $-1 1 0 0 0 1 0 0 0 1 73.161412396618545 37.794890470939698 17.866266547124255 1 rotate no_reflect no_shear #
lump $-1 $-1 $52 $10 #
transform $-1 1 0 0 0 1 0 0 0 1 73.161412396618545 37.794890470939698 17.866266547124255 1 rotate no_reflect no_shear #
lump $-1 $-1 $53 $11 #
transform $-1 1 0 0 0 1 0 0 0 1 73.161412396618545 37.794890470939698 17.866266547124255 1 rotate no_reflect no_shear #
lump $-1 $-1 $54 $12 #
transform $-1 1 0 0 0 1 0 0 0 1 73.161412396618545 37.794890470939698 17.866266547124255 1 rotate no_reflect no_shear #
lump $-1 $-1 $55 $13 #
transform $-1 1 0 0 0 1 0 0 0 1 73.161412396618545 37.794890470939698 17.866266547124255 1 rotate no_reflect no_shear #
shell $-1 $-1 $-1 $56 $-1 $14 #
shell $-1 $-1 $-1 $57 $-1 $16 #
shell $-1 $-1 $-1 $58 $-1 $18 #
shell $-1 $-1 $-1 $59 $-1 $20 #
shell $-1 $-1 $-1 $60 $-1 $22 #
shell $-1 $-1 $-1 $61 $-1 $24 #
shell $-1 $-1 $-1 $62 $-1 $26 #
shell $-1 $-1 $-1 $63 $-1 $28 #
shell $-1 $-1 $-1 $64 $-1 $30 #
shell $-1 $-1 $-1 $65 $-1 $32 #
shell $-1 $-1 $-1 $66 $-1 $34 #
shell $-1 $-1 $-1 $67 $-1 $36 #
shell $-1 $-1 $-1 $68 $-1 $38 #
shell $-1 $-1 $-1 $69 $-1 $40 #
face $-1 $70 $71 $42 $-1 $72 forward single #
face $-1 $73 $74 $43 $-1 $75 reversed single #
face $-1 $76 $77 $44 $-1 $78 reversed single #
face $-1 $79 $80 $45 $-1 $81 forward single #
face $-1 $82 $83 $46 $-1 $84 forward single #
face $-1 $85 $86 $47 $-1 $87 reversed single #
face $-1 $88 $89 $48 $-1 $90 forward single #
face $-1 $91 $92 $49 $-1 $93 forward single #
face $-1 $94 $95 $50 $-1 $96 reversed single #
face $-1 $97 $98 $51 $-1 $99 forward single #
face $-1 $100 $101 $52 $-1 $102 forward single #
face $-1 $103 $104 $53 $-1 $105 reversed single #
face $-1 $106 $107 $54 $-1 $108 forward single #
face $-1 $109 $110 $55 $-1 $111 forward single #
face $-1 $112 $113 $42 $-1 $114 reversed single #
loop $-1 $-1 $115 $56 #
plane-surface $-1 0 0 17.866266547124255 0 0 1 1 0 0 forward_v I I I I #
face $-1 $116 $117 $43 $-1 $118 reversed single #
loop $-1 $-1 $119 $57 #
plane-surface $-1 -42.587506817929665 -27.711079556141293 0 1 0 0 0 0 -1 forward_v I I I I #
face $-1 $120 $121 $44 $-1 $122 reversed single #
loop $-1 $-1 $123 $58 #
plane-surface $-1 87.596242328317629 10.083810914798413 215.67397836983423 0 -1 0 -0.75470958851134928 0 -0.65605901945558964 forward_v I I I I #
face $-1 $124 $125 $45 $-1 $126 forward single #
loop $-1 $127 $128 $59 #
cone-surface $-1 69.037459664441471 4.8203025040545171 13.228269025078754 -0.75470958851134928 0 -0.65605901945558964 0.32802950972779482 0 -0.37735479425567464 1 I I 0 1 0.5 forward I I I I #
face $-1 $129 $130 $46 $-1 $131 forward single #
loop $-1 $132 $133 $60 #
cone-surface $-1 69.037459664441471 7.9784075505008545 13.228269025078754 -0.75470958851134928 0 -0.65605901945558964 0.32802950972779482 0 -0.37735479425567464 1 I I 0 1 0.5 forward I I I I #
face $-1 $134 $135 $47 $-1 $136 reversed single #
loop $-1 $-1 $137 $61 #
plane-surface $-1 -22.834996561204591 6.3993550272776858 119.67756941201107 0.75470958851134928 0 0.65605901945558964 0.65605901945558964 0 -0.75470958851134928 forward_v I I I I #
face $-1 $138 $139 $48 $-1 $140 forward single #
loop $-1 $141 $142 $62 #
cone-surface $-1 69.037459664441471 12.189214279095971 13.228269025078754 -0.75470958851134928 0 -0.65605901945558964 0.32802950972779482 0 -0.37735479425567464 1 I I 0 1 0.5 forward I I I I #
face $-1 $143 $144 $49 $-1 $145 forward single #
loop $-1 $146 $147 $63 #
cone-surface $-1 69.037459664441471 15.347319325542308 13.228269025078754 -0.75470958851134928 0 -0.65605901945558964 0.32802950972779482 0 -0.37735479425567464 1 I I 0 1 0.5 forward I I I I #
face $-1 $148 $149 $50 $-1 $150 reversed single #
loop $-1 $-1 $151 $64 #
plane-surface $-1 -174.80578862254362 -17.62726864134288 119.21515806906645 0 1 0 -0.69465837861970381 0 0.71933979245794832 forward_v I I I I #
face $-1 $152 $153 $51 $-1 $154 forward single #
loop $-1 $155 $156 $65 #
cone-surface $-1 -70.579678737934358 -14.975259524489367 15.334083878043085 0.69465837861970381 0 -0.71933979245794832 0.35966989622897416 0 0.3473291893098519 1 I I 0 1 0.5 forward I I I I #
face $-1 $157 $158 $52 $-1 $159 forward single #
loop $-1 $160 $161 $66 #
cone-surface $-1 -70.579678737934358 -10.997245849209094 15.334083878043085 0.69465837861970381 0 -0.71933979245794832 0.35966989622897416 0 0.3473291893098519 1 I I 0 1 0.5 forward I I I I #
face $-1 $162 $163 $53 $-1 $164 reversed single #
loop $-1 $-1 $165 $67 #
plane-surface $-1 -174.80578862254362 10.083810914798411 119.21515806906645 0 1 0 -0.69465837861970381 0 0.71933979245794832 forward_v I I I I #
face $-1 $166 $167 $54 $-1 $168 forward single #
loop $-1 $169 $170 $68 #
cone-surface $-1 -70.579678737934358 12.735820031651926 15.334083878043085 0.69465837861970381 0 -0.71933979245794832 0.35966989622897416 0 0.3473291893098519 1 I I 0 1 0.5 forward I I I I #
face $-1 $171 $172 $55 $-1 $173 forward single #
loop $-1 $174 $175 $69 #
cone-surface $-1 -70.579678737934358 16.713833706932199 15.334083878043085 0.69465837861970381 0 -0.71933979245794832 0.35966989622897416 0 0.3473291893098519 1 I I 0 1 0.5 forward I I I I #
face $-1 $176 $177 $42 $-1 $178 reversed single #
loop $-1 $-1 $179 $70 #
plane-surface $-1 0 0 -17.866266547124255 0 0 1 1 0 0 forward_v I I I I #
coedge $-1 $180 $181 $182 $183 forward $71 $-1 #
face $-1 $184 $185 $43 $-1 $186 reversed single #
loop $-1 $-1 $187 $73 #
plane-surface $-1 -40.00819306014985 -17.627268641342887 0 0 -1 0 0 0 -1 forward_v I I I I #
coedge $-1 $188 $189 $190 $191 forward $74 $-1 #
face $-1 $192 $193 $44 $-1 $194 reversed single #
loop $-1 $-1 $195 $76 #
plane-surface $-1 -22.834996561204591 6.3993550272776858 119.67756941201107 0.75470958851134928 0 0.65605901945558964 0.65605901945558964 0 -0.75470958851134928 forward_v I I I I #
coedge $-1 $196 $197 $198 $199 reversed $77 $-1 #
face $-1 $-1 $200 $45 $-1 $201 forward single #
loop $-1 $202 $203 $79 #
cone-surface $-1 68.471427473057958 4.8203025040545171 12.736224760487062 -0.75470958851134928 0 -0.65605901945558964 0.16401475486389741 0 -0.18867739712783732 1 I I -0.70710678118654746 0.70710678118654746 0.25 forward I I I I #
loop $-1 $-1 $204 $59 #
coedge $-1 $128 $128 $205 $206 reversed $80 $-1 #
face $-1 $-1 $207 $46 $-1 $208 forward single #
loop $-1 $209 $210 $82 #
cone-surface $-1 68.471427473057958 7.9784075505008545 12.736224760487062 -0.75470958851134928 0 -0.65605901945558964 0.16401475486389741 0 -0.18867739712783732 1 I I -0.70710678118654746 0.70710678118654746 0.25 forward I I I I #
loop $-1 $-1 $211 $60 #
coedge $-1 $133 $133 $212 $213 reversed $83 $-1 #
face $-1 $214 $215 $47 $-1 $216 reversed single #
loop $-1 $-1 $217 $85 #
plane-surface $-1 87.596242328317629 17.452722689839867 215.67397836983423 0 -1 0 -0.75470958851134928 0 -0.65605901945558964 forward_v I I I I #
coedge $-1 $218 $219 $220 $221 reversed $86 $-1 #
face $-1 $-1 $222 $48 $-1 $223 forward single #
loop $-1 $224 $225 $88 #
cone-surface $-1 68.471427473057958 12.189214279095971 12.736224760487062 -0.75470958851134928 0 -0.65605901945558964 0.16401475486389741 0 -0.18867739712783732 1 I I -0.70710678118654746 0.70710678118654746 0.25 forward I I I I #
loop $-1 $-1 $226 $62 #
coedge $-1 $142 $142 $227 $228 reversed $89 $-1 #
face $-1 $-1 $229 $49 $-1 $230 forward single #
loop $-1 $231 $232 $91 #
cone-surface $-1 68.471427473057958 15.347319325542308 12.736224760487062 -0.75470958851134928 0 -0.65605901945558964 0.16401475486389741 0 -0.18867739712783732 1 I I -0.70710678118654746 0.70710678118654746 0.25 forward I I I I #
loop $-1 $-1 $233 $63 #
coedge $-1 $147 $147 $234 $235 reversed $92 $-1 #
face $-1 $236 $237 $50 $-1 $238 reversed single #
loop $-1 $-1 $239 $94 #
plane-surface $-1 -73.161412396618545 -12.986252686849227 13.959327650438539 -0.69465837861970381 0 0.71933979245794832 0.71933979245794832 0 0.69465837861970381 forward_v I I I I #
coedge $-1 $240 $241 $242 $243 reversed $95 $-1 #
face $-1 $-1 $244 $51 $-1 $245 forward single #
loop $-1 $246 $247 $97 #
cone-surface $-1 -69.847157269492129 -14.975259524489367 14.575535709190291 0.69465837861970381 0 -0.71933979245794832 0.17983494811448708 0 0.17366459465492595 1 I I -0.70710678118654746 0.70710678118654746 0.25 forward I I I I #
loop $-1 $-1 $248 $65 #
coedge $-1 $156 $156 $249 $250 reversed $98 $-1 #
face $-1 $-1 $251 $52 $-1 $252 forward single #
loop $-1 $253 $254 $100 #
cone-surface $-1 -69.847157269492129 -10.997245849209094 14.575535709190291 0.69465837861970381 0 -0.71933979245794832 0.17983494811448708 0 0.17366459465492595 1 I I -0.70710678118654746 0.70710678118654746 0.25 forward I I I I #
loop $-1 $-1 $255 $66 #
coedge $-1 $161 $161 $256 $257 reversed $101 $-1 #
face $-1 $258 $259 $53 $-1 $260 reversed single #
loop $-1 $-1 $261 $103 #
plane-surface $-1 -73.161412396618545 14.724826869292066 13.959327650438539 -0.69465837861970381 0 0.71933979245794832 0.71933979245794832 0 0.69465837861970381 forward_v I I I I #
coedge $-1 $262 $263 $264 $265 reversed $104 $-1 #
face $-1 $-1 $266 $54 $-1 $267 forward single #
loop $-1 $268 $269 $106 #
cone-surface $-1 -69.847157269492129 12.735820031651926 14.575535709190291 0.69465837861970381 0 -0.71933979245794832 0.17983494811448708 0 0.17366459465492595 1 I I -0.70710678118654746 0.70710678118654746 0.25 forward I I I I #
loop $-1 $-1 $270 $68 #
coedge $-1 $170 $170 $271 $272 reversed $107 $-1 #
face $-1 $-1 $273 $55 $-1 $274 forward single #
loop $-1 $275 $276 $109 #
cone-surface $-1 -69.847157269492129 16.713833706932199 14.575535709190291 0.69465837861970381 0 -0.71933979245794832 0.17983494811448708 0 0.17366459465492595 1 I I -0.70710678118654746 0.70710678118654746 0.25 forward I I I I #
loop $-1 $-1 $277 $69 #
coedge $-1 $175 $175 $278 $279 reversed $110 $-1 #
face $-1 $280 $281 $42 $-1 $282 reversed single #
loop $-1 $-1 $283 $112 #
plane-surface $-1 0 -37.794890470939698 0 0 1 0 0 0 1 forward_v I I I I #
coedge $-1 $284 $285 $286 $287 forward $113 $-1 #
coedge $-1 $288 $115 $289 $290 forward $71 $-1 #
coedge $-1 $115 $288 $291 $292 forward $71 $-1 #
coedge $-1 $293 $294 $115 $183 reversed $295 $-1 #
edge $-1 $296 -37.794890470939698 $297 37.794890470939698 $182 $298 forward 7 unknown #
face $-1 $299 $300 $43 $-1 $301 forward single #
loop $-1 $-1 $302 $116 #
plane-surface $-1 -37.428879302370035 -27.711079556141293 0 -1 0 0 0 0 1 forward_v I I I I #
coedge $-1 $303 $304 $305 $306 forward $117 $-1 #
coedge $-1 $307 $119 $308 $309 reversed $74 $-1 #
coedge $-1 $119 $307 $310 $311 reversed $74 $-1 #
coedge $-1 $304 $303 $119 $191 reversed $117 $-1 #
edge $-1 $312 -17.866266547124255 $313 17.866266547124255 $190 $314 forward 7 unknown #
face $-1 $315 $316 $44 $-1 $317 reversed single #
loop $-1 $-1 $318 $120 #
plane-surface $-1 87.596242328317629 2.7148991397569588 215.67397836983423 0 1 0 0.75470958851134928 0 0.65605901945558964 forward_v I I I I #
coedge $-1 $319 $320 $321 $322 reversed $121 $-1 #
coedge $-1 $197 $123 $323 $324 reversed $77 $-1 #
coedge $-1 $123 $196 $319 $325 reversed $77 $-1 #
coedge $-1 $321 $326 $123 $199 forward $327 $-1 #
edge $-1 $328 -29.36329123245973 $329 -21.870095356617014 $198 $330 forward 7 unknown #
loop $-1 $-1 $205 $124 #
plane-surface $-1 -22.834996561204591 6.3993550272776858 119.67756941201107 0.75470958851134928 0 0.65605901945558964 0.65605901945558964 0 -0.75470958851134928 forward_v I I I I #
loop $-1 $-1 $331 $79 #
coedge $-1 $203 $203 $204 $332 reversed $125 $-1 #
coedge $-1 $204 $204 $203 $332 forward $127 $-1 #
coedge $-1 $205 $205 $128 $206 forward $200 $-1 #
edge $-1 $333 0 $333 6.2831853071796004 $205 $334 forward 7 unknown #
loop $-1 $-1 $212 $129 #
plane-surface $-1 -22.834996561204591 6.3993550272776858 119.67756941201107 0.75470958851134928 0 0.65605901945558964 0.65605901945558964 0 -0.75470958851134928 forward_v I I I I #
loop $-1 $-1 $335 $82 #
coedge $-1 $210 $210 $211 $336 reversed $130 $-1 #
coedge $-1 $211 $211 $210 $336 forward $132 $-1 #
coedge $-1 $212 $212 $133 $213 forward $207 $-1 #
edge $-1 $337 0 $337 6.2831853071796004 $212 $338 forward 7 unknown #
face $-1 $339 $340 $47 $-1 $341 forward single #
loop $-1 $-1 $342 $134 #
plane-surface $-1 73.161412396618545 0 0 -1 0 0 0 0 1 forward_v I I I I #
coedge $-1 $343 $344 $345 $346 reversed $135 $-1 #
coedge $-1 $347 $137 $348 $349 reversed $86 $-1 #
coedge $-1 $137 $347 $342 $350 reversed $86 $-1 #
coedge $-1 $351 $352 $137 $221 forward $340 $-1 #
edge $-1 $353 134.90129768419632 $354 146.32282479323706 $220 $355 forward 7 unknown #
loop $-1 $-1 $227 $138 #
plane-surface $-1 -22.834996561204591 6.3993550272776858 119.67756941201107 0.75470958851134928 0 0.65605901945558964 0.65605901945558964 0 -0.75470958851134928 forward_v I I I I #
loop $-1 $-1 $356 $88 #
coedge $-1 $225 $225 $226 $357 reversed $139 $-1 #
coedge $-1 $226 $226 $225 $357 forward $141 $-1 #
coedge $-1 $227 $227 $142 $228 forward $222 $-1 #
edge $-1 $358 0 $358 6.2831853071796004 $227 $359 forward 7 unknown #
loop $-1 $-1 $234 $143 #
plane-surface $-1 -22.834996561204591 6.3993550272776858 119.67756941201107 0.75470958851134928 0 0.65605901945558964 0.65605901945558964 0 -0.75470958851134928 forward_v I I I I #
loop $-1 $-1 $360 $91 #
coedge $-1 $232 $232 $233 $361 reversed $144 $-1 #
coedge $-1 $233 $233 $232 $361 forward $146 $-1 #
coedge $-1 $234 $234 $147 $235 forward $229 $-1 #
edge $-1 $362 0 $362 6.2831853071796004 $234 $363 forward 7 unknown #
face $-1 $364 $365 $50 $-1 $366 reversed single #
loop $-1 $-1 $367 $148 #
plane-surface $-1 -174.80578862254362 -8.3452367323555716 119.21515806906645 0 -1 0 0.69465837861970381 0 -0.71933979245794832 forward_v I I I I #
coedge $-1 $368 $369 $370 $371 reversed $149 $-1 #
coedge $-1 $241 $151 $372 $373 reversed $95 $-1 #
coedge $-1 $151 $240 $368 $374 reversed $95 $-1 #
coedge $-1 $370 $375 $151 $243 forward $376 $-1 #
edge $-1 $377 14.241481914653264 $378 18.287235484446995 $242 $379 forward 7 unknown #
loop $-1 $-1 $249 $152 #
plane-surface $-1 -73.161412396618545 -12.986252686849227 13.959327650438539 -0.69465837861970381 0 0.71933979245794832 0.71933979245794832 0 0.69465837861970381 forward_v I I I I #
loop $-1 $-1 $380 $97 #
coedge $-1 $247 $247 $248 $381 reversed $153 $-1 #
coedge $-1 $248 $248 $247 $381 forward $155 $-1 #
coedge $-1 $249 $249 $156 $250 forward $244 $-1 #
edge $-1 $382 0 $382 6.2831853071796004 $249 $383 forward 7 unknown #
loop $-1 $-1 $256 $157 #
plane-surface $-1 -73.161412396618545 -12.986252686849227 13.959327650438539 -0.69465837861970381 0 0.71933979245794832 0.71933979245794832 0 0.69465837861970381 forward_v I I I I #
loop $-1 $-1 $384 $100 #
coedge $-1 $254 $254 $255 $385 reversed $158 $-1 #
coedge $-1 $255 $255 $254 $385 forward $160 $-1 #
coedge $-1 $256 $256 $161 $257 forward $251 $-1 #
edge $-1 $386 0 $386 6.2831853071796004 $256 $387 forward 7 unknown #
face $-1 $388 $389 $53 $-1 $390 forward single #
loop $-1 $-1 $391 $162 #
plane-surface $-1 -174.80578862254362 19.365842823785719 119.21515806906645 0 -1 0 0.69465837861970381 0 -0.71933979245794832 forward_v I I I I #
coedge $-1 $392 $393 $394 $395 reversed $163 $-1 #
coedge $-1 $263 $165 $396 $397 reversed $104 $-1 #
coedge $-1 $165 $262 $392 $398 reversed $104 $-1 #
coedge $-1 $394 $399 $165 $265 forward $389 $-1 #
edge $-1 $400 14.241481914653264 $401 18.287235484446995 $264 $402 forward 7 unknown #
loop $-1 $-1 $271 $166 #
plane-surface $-1 -73.161412396618545 14.724826869292066 13.959327650438539 -0.69465837861970381 0 0.71933979245794832 0.71933979245794832 0 0.69465837861970381 forward_v I I I I #
loop $-1 $-1 $403 $106 #
coedge $-1 $269 $269 $270 $404 reversed $167 $-1 #
coedge $-1 $270 $270 $269 $404 forward $169 $-1 #
coedge $-1 $271 $271 $170 $272 forward $266 $-1 #
edge $-1 $405 0 $405 6.2831853071796004 $271 $406 forward 7 unknown #
loop $-1 $-1 $278 $171 #
plane-surface $-1 -73.161412396618545 14.724826869292066 13.959327650438539 -0.69465837861970381 0 0.71933979245794832 0.71933979245794832 0 0.69465837861970381 forward_v I I I I #
loop $-1 $-1 $407 $109 #
coedge $-1 $276 $276 $277 $408 reversed $172 $-1 #
coedge $-1 $277 $277 $276 $408 forward $174 $-1 #
coedge $-1 $278 $278 $175 $279 forward $273 $-1 #
edge $-1 $409 0 $409 6.2831853071796004 $278 $410 forward 7 unknown #
face $-1 $411 $412 $42 $-1 $413 reversed single #
loop $-1 $-1 $414 $176 #
plane-surface $-1 -73.161412396618545 0 0 1 0 0 0 0 -1 forward_v I I I I #
coedge $-1 $415 $291 $416 $417 forward $177 $-1 #
coedge $-1 $418 $179 $415 $419 forward $113 $-1 #
coedge $-1 $179 $418 $420 $421 forward $113 $-1 #
coedge $-1 $294 $293 $179 $287 reversed $295 $-1 #
edge $-1 $422 -37.794890470939698 $423 37.794890470939698 $286 $424 forward 7 unknown #
coedge $-1 $181 $180 $425 $426 forward $71 $-1 #
coedge $-1 $427 $428 $180 $290 reversed $412 $-1 #
edge $-1 $297 -73.161412396618545 $429 73.161412396618545 $289 $430 forward 7 unknown #
coedge $-1 $283 $431 $181 $292 reversed $177 $-1 #
edge $-1 $432 -73.161412396618545 $296 73.161412396618545 $291 $433 forward 7 unknown #
coedge $-1 $286 $182 $431 $434 forward $295 $-1 #
coedge $-1 $182 $286 $427 $435 reversed $295 $-1 #
loop $-1 $-1 $293 $411 #
vertex $-1 $183 $436 #
vertex $-1 $183 $437 #
straight-curve $-1 73.161412396618545 0 17.866266547124255 0 1 0 I I #
face $-1 $438 $439 $43 $-1 $440 reversed single #
loop $-1 $-1 $441 $184 #
plane-surface $-1 0 0 17.866266547124255 0 0 1 1 0 0 forward_v I I I I #
coedge $-1 $442 $443 $444 $445 reversed $185 $-1 #
coedge $-1 $190 $187 $446 $447 reversed $117 $-1 #
coedge $-1 $187 $190 $448 $449 reversed $117 $-1 #
coedge $-1 $443 $442 $187 $306 reversed $185 $-1 #
edge $-1 $450 -17.866266547124255 $451 17.866266547124255 $305 $452 forward 7 unknown #
coedge $-1 $189 $188 $453 $454 reversed $74 $-1 #
coedge $-1 $446 $455 $188 $309 forward $439 $-1 #
edge $-1 $456 -23.939350692869052 $313 -3.7717288632722408 $308 $457 forward 7 unknown #
coedge $-1 $458 $448 $189 $311 forward $300 $-1 #
edge $-1 $312 3.7717288632722408 $459 23.939350692869052 $310 $460 forward 7 unknown #
vertex $-1 $311 $461 #
vertex $-1 $309 $462 #
straight-curve $-1 -42.587506817929665 -17.627268641342887 0 0 0 -1 I I #
face $-1 $-1 $327 $44 $-1 $463 forward single #
loop $-1 $-1 $464 $192 #
plane-surface $-1 73.161412396618545 0 0 -1 0 0 0 0 1 forward_v I I I I #
coedge $-1 $465 $466 $467 $468 reversed $193 $-1 #
coedge $-1 $469 $195 $197 $325 forward $121 $-1 #
coedge $-1 $195 $469 $465 $470 forward $121 $-1 #
coedge $-1 $467 $198 $195 $322 forward $327 $-1 #
edge $-1 $329 -6.8841334011595698 $471 0.48477837388188405 $321 $472 forward 7 unknown #
coedge $-1 $473 $474 $196 $324 forward $316 $-1 #
edge $-1 $475 -98.590658662428226 $328 -89.970722637792861 $323 $476 forward 7 unknown #
edge $-1 $329 134.90129768419632 $475 146.32282479323706 $197 $477 forward 7 unknown #
coedge $-1 $198 $467 $473 $478 forward $327 $-1 #
loop $-1 $-1 $467 $315 #
vertex $-1 $324 $479 #
vertex $-1 $199 $480 #
straight-curve $-1 43.798121164158815 10.083810914798413 17.866266547124255 -1 0 0 I I #
coedge $-1 $331 $331 $-1 $481 reversed $202 $-1 #
edge $-1 $482 0 $482 6.2831853071796004 $203 $483 forward 7 unknown #
vertex $-1 $206 $484 #
ellipse-curve $-1 69.414814458697165 4.8203025040545171 13.556298534806567 0.75470958851134928 0 0.65605901945558964 0.32802950972779482 0 -0.37735479425567464 1 I I #
coedge $-1 $335 $335 $-1 $485 reversed $209 $-1 #
edge $-1 $486 0 $486 6.2831853071796004 $210 $487 forward 7 unknown #
vertex $-1 $213 $488 #
ellipse-curve $-1 69.414814458697165 7.9784075505008545 13.556298534806567 0.75470958851134928 0 0.65605901945558964 0.32802950972779482 0 -0.37735479425567464 1 I I #
face $-1 $-1 $489 $47 $-1 $490 forward single #
loop $-1 $-1 $352 $214 #
plane-surface $-1 87.596242328317629 10.083810914798413 215.67397836983423 0 -1 0 -0.75470958851134928 0 -0.65605901945558964 forward_v I I I I #
coedge $-1 $345 $491 $219 $350 forward $215 $-1 #
coedge $-1 $344 $217 $347 $492 reversed $135 $-1 #
coedge $-1 $217 $343 $493 $494 reversed $135 $-1 #
coedge $-1 $495 $342 $217 $346 forward $215 $-1 #
edge $-1 $496 -98.590658662428226 $497 -89.970722637792861 $345 $498 forward 7 unknown #
coedge $-1 $219 $218 $343 $492 forward $86 $-1 #
coedge $-1 $499 $493 $218 $349 forward $489 $-1 #
edge $-1 $500 -14.253045176201024 $353 -6.8841334011595698 $348 $501 forward 7 unknown #
edge $-1 $354 6.8841334011595698 $496 14.253045176201024 $342 $502 forward 7 unknown #
coedge $-1 $352 $220 $491 $503 reversed $340 $-1 #
coedge $-1 $220 $351 $499 $504 reversed $340 $-1 #
vertex $-1 $349 $505 #
vertex $-1 $350 $506 #
straight-curve $-1 -22.834996561204591 10.083810914798413 119.67756941201107 0.65605901945558964 0 -0.75470958851134928 I I #
coedge $-1 $356 $356 $-1 $507 reversed $224 $-1 #
edge $-1 $508 0 $508 6.2831853071796004 $225 $509 forward 7 unknown #
vertex $-1 $228 $510 #
ellipse-curve $-1 69.414814458697165 12.189214279095971 13.556298534806567 0.75470958851134928 0 0.65605901945558964 0.32802950972779482 0 -0.37735479425567464 1 I I #
coedge $-1 $360 $360 $-1 $511 reversed $231 $-1 #
edge $-1 $512 0 $512 6.2831853071796004 $232 $513 forward 7 unknown #
vertex $-1 $235 $514 #
ellipse-curve $-1 69.414814458697165 15.347319325542308 13.556298534806567 0.75470958851134928 0 0.65605901945558964 0.32802950972779482 0 -0.37735479425567464 1 I I #
face $-1 $-1 $376 $50 $-1 $515 forward single #
loop $-1 $-1 $516 $236 #
plane-surface $-1 -73.161412396618545 0 0 1 0 0 0 0 -1 forward_v I I I I #
coedge $-1 $517 $518 $519 $520 reversed $237 $-1 #
coedge $-1 $521 $239 $241 $374 forward $149 $-1 #
coedge $-1 $239 $521 $517 $522 forward $149 $-1 #
coedge $-1 $519 $242 $239 $371 forward $376 $-1 #
edge $-1 $378 -11.134142297918267 $523 -1.8521103889309583 $370 $524 forward 7 unknown #
coedge $-1 $525 $526 $240 $373 forward $365 $-1 #
edge $-1 $527 -45.648251384094685 $377 -41.741312487408969 $372 $528 forward 7 unknown #
edge $-1 $378 -5.6242593725693801 $527 0 $241 $529 forward 7 unknown #
coedge $-1 $242 $519 $525 $530 forward $376 $-1 #
loop $-1 $-1 $519 $364 #
vertex $-1 $373 $531 #
vertex $-1 $243 $532 #
straight-curve $-1 -87.402894311271808 -17.62726864134288 17.866266547124255 1 0 0 I I #
coedge $-1 $380 $380 $-1 $533 reversed $246 $-1 #
edge $-1 $534 0 $534 6.2831853071796004 $247 $535 forward 7 unknown #
vertex $-1 $250 $536 #
ellipse-curve $-1 -71.138535611721679 -14.975259524489367 15.912797098781402 -0.69465837861970381 0 0.71933979245794832 0.35966989622897416 0 0.3473291893098519 1 I I #
coedge $-1 $384 $384 $-1 $537 reversed $253 $-1 #
edge $-1 $538 0 $538 6.2831853071796004 $254 $539 forward 7 unknown #
vertex $-1 $257 $540 #
ellipse-curve $-1 -71.138535611721679 -10.997245849209094 15.912797098781402 -0.69465837861970381 0 0.71933979245794832 0.35966989622897416 0 0.3473291893098519 1 I I #
face $-1 $-1 $541 $53 $-1 $542 reversed single #
loop $-1 $-1 $264 $258 #
plane-surface $-1 0 0 17.866266547124255 0 0 1 1 0 0 forward_v I I I I #
coedge $-1 $543 $544 $545 $546 reversed $259 $-1 #
coedge $-1 $547 $261 $263 $398 forward $163 $-1 #
coedge $-1 $261 $547 $543 $548 forward $163 $-1 #
coedge $-1 $545 $264 $261 $395 forward $389 $-1 #
edge $-1 $401 2.7213974801523779 $549 12.003429389139686 $394 $550 forward 7 unknown #
coedge $-1 $551 $552 $262 $397 forward $541 $-1 #
edge $-1 $553 -45.648251384094685 $400 -41.741312487408969 $396 $554 forward 7 unknown #
edge $-1 $401 -5.6242593725693801 $553 0 $263 $555 forward 7 unknown #
coedge $-1 $264 $545 $551 $556 forward $389 $-1 #
vertex $-1 $397 $557 #
vertex $-1 $265 $558 #
straight-curve $-1 -87.402894311271808 10.083810914798411 17.866266547124255 1 0 0 I I #
coedge $-1 $403 $403 $-1 $559 reversed $268 $-1 #
edge $-1 $560 0 $560 6.2831853071796004 $269 $561 forward 7 unknown #
vertex $-1 $272 $562 #
ellipse-curve $-1 -71.138535611721679 12.735820031651926 15.912797098781402 -0.69465837861970381 0 0.71933979245794832 0.35966989622897416 0 0.3473291893098519 1 I I #
coedge $-1 $407 $407 $-1 $563 reversed $275 $-1 #
edge $-1 $564 0 $564 6.2831853071796004 $276 $565 forward 7 unknown #
vertex $-1 $279 $566 #
ellipse-curve $-1 -71.138535611721679 16.713833706932199 15.912797098781402 -0.69465837861970381 0 0.71933979245794832 0.35966989622897416 0 0.3473291893098519 1 I I #
face $-1 $-1 $295 $42 $-1 $567 reversed single #
loop $-1 $-1 $427 $280 #
plane-surface $-1 0 37.794890470939698 0 0 -1 0 0 0 -1 forward_v I I I I #
coedge $-1 $568 $425 $428 $569 forward $281 $-1 #
coedge $-1 $431 $283 $284 $419 reversed $177 $-1 #
coedge $-1 $425 $568 $283 $417 reversed $281 $-1 #
edge $-1 $432 -17.866266547124255 $570 17.866266547124255 $416 $571 forward 7 unknown #
coedge $-1 $285 $284 $568 $572 forward $113 $-1 #
edge $-1 $423 -73.161412396618545 $570 73.161412396618545 $415 $573 forward 7 unknown #
coedge $-1 $428 $427 $285 $421 reversed $412 $-1 #
edge $-1 $574 -73.161412396618545 $422 73.161412396618545 $420 $575 forward 7 unknown #
vertex $-1 $287 $576 #
vertex $-1 $434 $577 #
straight-curve $-1 73.161412396618545 0 -17.866266547124255 0 -1 0 I I #
coedge $-1 $414 $416 $288 $426 reversed $281 $-1 #
edge $-1 $429 -37.794890470939698 $432 37.794890470939698 $425 $578 forward 7 unknown #
coedge $-1 $420 $289 $294 $435 forward $412 $-1 #
coedge $-1 $289 $420 $414 $569 reversed $412 $-1 #
vertex $-1 $290 $579 #
straight-curve $-1 0 37.794890470939698 17.866266547124255 -1 0 0 I I #
coedge $-1 $291 $415 $293 $434 reversed $177 $-1 #
vertex $-1 $426 $580 #
straight-curve $-1 0 -37.794890470939698 17.866266547124255 1 0 0 I I #
edge $-1 $296 -17.866266547124255 $423 17.866266547124255 $293 $581 forward 7 unknown #
edge $-1 $297 -17.866266547124255 $422 17.866266547124255 $294 $582 forward 7 unknown #
point $-1 73.161412396618545 -37.794890470939698 17.866266547124255 #
point $-1 73.161412396618545 37.794890470939698 17.866266547124255 #
face $-1 $-1 $583 $43 $-1 $584 reversed single #
loop $-1 $-1 $585 $299 #
plane-surface $-1 0 0 -17.866266547124255 0 0 1 1 0 0 forward_v I I I I #
coedge $-1 $448 $458 $443 $586 forward $300 $-1 #
coedge $-1 $305 $302 $585 $587 reversed $185 $-1 #
coedge $-1 $302 $305 $441 $586 reversed $185 $-1 #
coedge $-1 $588 $589 $302 $445 forward $583 $-1 #
edge $-1 $590 -17.866266547124255 $591 17.866266547124255 $444 $592 forward 7 unknown #
coedge $-1 $585 $308 $303 $447 forward $439 $-1 #
edge $-1 $313 -22.58341028785474 $451 -17.42478277229511 $446 $593 forward 7 unknown #
coedge $-1 $310 $441 $304 $449 forward $300 $-1 #
edge $-1 $450 17.42478277229511 $312 22.58341028785474 $448 $594 forward 7 unknown #
vertex $-1 $449 $595 #
vertex $-1 $447 $596 #
straight-curve $-1 -37.428879302370035 -17.627268641342887 0 0 0 -1 I I #
coedge $-1 $589 $588 $307 $454 forward $583 $-1 #
edge $-1 $459 -17.866266547124255 $456 17.866266547124255 $453 $597 forward 7 unknown #
coedge $-1 $308 $585 $589 $598 forward $439 $-1 #
vertex $-1 $309 $599 #
straight-curve $-1 -42.587506817929665 -13.855539778070646 -17.866266547124255 0 1 0 I I #
coedge $-1 $441 $310 $588 $600 forward $300 $-1 #
vertex $-1 $600 $601 #
straight-curve $-1 -42.587506817929665 -13.855539778070646 17.866266547124255 0 -1 0 I I #
point $-1 -42.587506817929665 -17.627268641342887 17.866266547124255 #
point $-1 -42.587506817929665 -17.627268641342887 -17.866266547124255 #
plane-surface $-1 0 0 17.866266547124255 0 0 1 1 0 0 forward_v I I I I #
coedge $-1 $474 $473 $466 $602 forward $316 $-1 #
coedge $-1 $466 $318 $320 $470 reversed $193 $-1 #
coedge $-1 $318 $465 $464 $602 reversed $193 $-1 #
coedge $-1 $326 $321 $318 $468 forward $327 $-1 #
edge $-1 $471 21.870095356617014 $603 29.36329123245973 $467 $604 forward 7 unknown #
coedge $-1 $320 $319 $474 $605 reversed $121 $-1 #
edge $-1 $606 -146.32282479323706 $471 -134.90129768419632 $465 $607 forward 7 unknown #
vertex $-1 $322 $608 #
straight-curve $-1 65.668216520775843 3.1996775136388429 17.866266547124241 0 -1 0 I I #
coedge $-1 $464 $323 $326 $478 reversed $316 $-1 #
coedge $-1 $323 $464 $469 $605 forward $316 $-1 #
vertex $-1 $324 $609 #
straight-curve $-1 73.161412396618545 10.083810914798413 107.83698918491712 0 0 1 I I #
straight-curve $-1 -22.834996561204591 10.083810914798413 119.67756941201107 0.65605901945558964 0 -0.75470958851134928 I I #
edge $-1 $603 2.7148991397569588 $328 10.083810914798413 $473 $610 forward 7 unknown #
point $-1 73.161412396618545 10.083810914798413 17.866266547124255 #
point $-1 65.668216520775829 10.083810914798413 17.866266547124255 #
edge $-1 $611 1 $611 0 $331 $-1 forward 7 unknown #
vertex $-1 $332 $612 #
ellipse-curve $-1 68.660104870185791 4.8203025040545171 12.900239515350959 0.75470958851134928 0 0.65605901945558964 0.32802950972779482 0 -0.37735479425567464 1 I I #
point $-1 69.742843968424935 4.8203025040545171 13.178943740550874 #
edge $-1 $613 1 $613 0 $335 $-1 forward 7 unknown #
vertex $-1 $336 $614 #
ellipse-curve $-1 68.660104870185791 7.9784075505008545 12.900239515350959 0.75470958851134928 0 0.65605901945558964 0.32802950972779482 0 -0.37735479425567464 1 I I #
point $-1 69.742843968424935 7.9784075505008545 13.178943740550874 #
loop $-1 $-1 $348 $339 #
plane-surface $-1 0 0 17.866266547124255 0 0 1 1 0 0 forward_v I I I I #
coedge $-1 $342 $495 $351 $503 forward $215 $-1 #
edge $-1 $500 134.90129768419632 $496 146.32282479323706 $343 $615 forward 7 unknown #
coedge $-1 $348 $616 $344 $494 forward $489 $-1 #
edge $-1 $497 -29.36329123245973 $500 -21.870095356617014 $493 $617 forward 7 unknown #
coedge $-1 $491 $345 $616 $618 reversed $215 $-1 #
vertex $-1 $346 $619 #
vertex $-1 $346 $620 #
straight-curve $-1 73.161412396618545 17.452722689839867 107.83698918491712 0 0 1 I I #
coedge $-1 $616 $348 $352 $504 forward $489 $-1 #
vertex $-1 $494 $621 #
straight-curve $-1 65.668216520775843 3.1996775136388429 17.866266547124241 0 -1 0 I I #
straight-curve $-1 73.161412396618545 3.1996775136388429 9.2463305224888757 0 1 0 I I #
edge $-1 $622 89.970722637792861 $354 98.590658662428226 $491 $623 forward 7 unknown #
edge $-1 $353 21.870095356617014 $622 29.36329123245973 $499 $624 forward 7 unknown #
point $-1 65.668216520775829 10.083810914798413 17.866266547124255 #
point $-1 73.16141239661853 10.083810914798413 9.2463305224888899 #
edge $-1 $625 1 $625 0 $356 $-1 forward 7 unknown #
vertex $-1 $357 $626 #
ellipse-curve $-1 68.660104870185791 12.189214279095971 12.900239515350959 0.75470958851134928 0 0.65605901945558964 0.32802950972779482 0 -0.37735479425567464 1 I I #
point $-1 69.742843968424935 12.189214279095971 13.178943740550874 #
edge $-1 $627 1 $627 0 $360 $-1 forward 7 unknown #
vertex $-1 $361 $628 #
ellipse-curve $-1 68.660104870185791 15.347319325542308 12.900239515350959 0.75470958851134928 0 0.65605901945558964 0.32802950972779482 0 -0.37735479425567464 1 I I #
point $-1 69.742843968424935 15.347319325542308 13.178943740550874 #
plane-surface $-1 0 0 17.866266547124255 0 0 1 1 0 0 forward_v I I I I #
coedge $-1 $526 $525 $518 $629 forward $365 $-1 #
coedge $-1 $518 $367 $369 $522 reversed $237 $-1 #
coedge $-1 $367 $517 $516 $629 reversed $237 $-1 #
coedge $-1 $375 $370 $367 $520 forward $376 $-1 #
edge $-1 $523 -18.287235484446995 $630 -14.241481914653264 $519 $631 forward 7 unknown #
coedge $-1 $369 $368 $526 $632 reversed $149 $-1 #
edge $-1 $633 0 $523 5.6242593725693801 $517 $634 forward 7 unknown #
vertex $-1 $371 $635 #
straight-curve $-1 -69.115658826824813 -6.4931263434246134 17.866266547124255 0 1 0 I I #
coedge $-1 $516 $372 $375 $530 reversed $365 $-1 #
coedge $-1 $372 $516 $521 $632 forward $365 $-1 #
vertex $-1 $373 $636 #
straight-curve $-1 -73.161412396618545 -17.62726864134288 59.607579034533224 0 0 1 I I #
straight-curve $-1 -73.161412396618545 -17.62726864134288 13.959327650438539 -0.71933979245794832 0 -0.69465837861970381 I I #
edge $-1 $630 8.3452367323555716 $377 17.62726864134288 $525 $637 forward 7 unknown #
point $-1 -73.161412396618545 -17.62726864134288 17.866266547124255 #
point $-1 -69.115658826824813 -17.62726864134288 17.866266547124255 #
edge $-1 $638 1 $638 0 $380 $-1 forward 7 unknown #
vertex $-1 $381 $639 #
ellipse-curve $-1 -70.020821864147052 -14.975259524489367 14.755370657304779 -0.69465837861970381 0 0.71933979245794832 0.35966989622897416 0 0.3473291893098519 1 I I #
point $-1 -70.778865715492699 -14.975259524489367 16.260126288091243 #
edge $-1 $640 1 $640 0 $384 $-1 forward 7 unknown #
vertex $-1 $385 $641 #
ellipse-curve $-1 -70.020821864147052 -10.997245849209094 14.755370657304779 -0.69465837861970381 0 0.71933979245794832 0.35966989622897416 0 0.3473291893098519 1 I I #
point $-1 -70.778865715492699 -10.997245849209094 16.260126288091243 #
loop $-1 $-1 $396 $388 #
plane-surface $-1 -73.161412396618545 0 0 1 0 0 0 0 -1 forward_v I I I I #
coedge $-1 $544 $391 $393 $548 reversed $259 $-1 #
coedge $-1 $391 $543 $642 $643 reversed $259 $-1 #
coedge $-1 $399 $394 $391 $546 forward $389 $-1 #
edge $-1 $549 -18.287235484446995 $644 -14.241481914653264 $545 $645 forward 7 unknown #
coedge $-1 $393 $392 $552 $646 reversed $163 $-1 #
edge $-1 $647 0 $549 5.6242593725693801 $543 $648 forward 7 unknown #
vertex $-1 $395 $649 #
straight-curve $-1 -69.115658826824813 7.362413434646033 17.866266547124255 0 1 0 I I #
coedge $-1 $642 $396 $399 $556 reversed $541 $-1 #
coedge $-1 $396 $642 $547 $646 forward $541 $-1 #
vertex $-1 $397 $650 #
straight-curve $-1 -73.161412396618545 10.083810914798411 59.607579034533224 0 0 1 I I #
straight-curve $-1 -73.161412396618545 10.083810914798411 13.959327650438539 -0.71933979245794832 0 -0.69465837861970381 I I #
edge $-1 $644 -19.365842823785719 $400 -10.083810914798411 $551 $651 forward 7 unknown #
point $-1 -73.161412396618545 10.083810914798411 17.866266547124255 #
point $-1 -69.115658826824813 10.083810914798411 17.866266547124255 #
edge $-1 $652 1 $652 0 $403 $-1 forward 7 unknown #
vertex $-1 $404 $653 #
ellipse-curve $-1 -70.020821864147052 12.735820031651926 14.755370657304779 -0.69465837861970381 0 0.71933979245794832 0.35966989622897416 0 0.3473291893098519 1 I I #
point $-1 -70.778865715492699 12.735820031651926 16.260126288091243 #
edge $-1 $654 1 $654 0 $407 $-1 forward 7 unknown #
vertex $-1 $408 $655 #
ellipse-curve $-1 -70.020821864147052 16.713833706932199 14.755370657304779 -0.69465837861970381 0 0.71933979245794832 0.35966989622897416 0 0.3473291893098519 1 I I #
point $-1 -70.778865715492699 16.713833706932199 16.260126288091243 #
plane-surface $-1 73.161412396618545 0 0 -1 0 0 0 0 1 forward_v I I I I #
coedge $-1 $416 $414 $418 $572 reversed $281 $-1 #
edge $-1 $429 -17.866266547124255 $574 17.866266547124255 $428 $656 forward 7 unknown #
vertex $-1 $572 $657 #
straight-curve $-1 -73.161412396618545 -37.794890470939698 0 0 0 -1 I I #
edge $-1 $570 -37.794890470939698 $574 37.794890470939698 $568 $658 forward 7 unknown #
straight-curve $-1 0 -37.794890470939698 -17.866266547124255 -1 0 0 I I #
vertex $-1 $421 $659 #
straight-curve $-1 0 37.794890470939698 -17.866266547124255 1 0 0 I I #
point $-1 73.161412396618545 37.794890470939698 -17.866266547124255 #
point $-1 73.161412396618545 -37.794890470939698 -17.866266547124255 #
straight-curve $-1 -73.161412396618545 0 17.866266547124255 0 -1 0 I I #
point $-1 -73.161412396618545 37.794890470939698 17.866266547124255 #
point $-1 -73.161412396618545 -37.794890470939698 17.866266547124255 #
straight-curve $-1 73.161412396618545 -37.794890470939698 0 0 0 -1 I I #
straight-curve $-1 73.161412396618545 37.794890470939698 0 0 0 -1 I I #
loop $-1 $-1 $444 $438 #
plane-surface $-1 0 -37.794890470939698 0 0 1 0 0 0 1 forward_v I I I I #
coedge $-1 $455 $446 $442 $587 forward $439 $-1 #
edge $-1 $591 -23.939350692869052 $450 -3.7717288632722408 $441 $660 forward 7 unknown #
edge $-1 $451 3.7717288632722408 $590 23.939350692869052 $585 $661 forward 7 unknown #
coedge $-1 $453 $444 $458 $600 reversed $583 $-1 #
coedge $-1 $444 $453 $455 $598 reversed $583 $-1 #
vertex $-1 $598 $662 #
vertex $-1 $445 $663 #
straight-curve $-1 -37.428879302370035 -37.794890470939698 0 0 0 1 I I #
straight-curve $-1 -20.004096530074925 -17.627268641342887 -17.866266547124255 1 0 0 I I #
straight-curve $-1 -20.004096530074925 -17.627268641342887 17.866266547124255 -1 0 0 I I #
point $-1 -37.428879302370035 -17.627268641342887 17.866266547124255 #
point $-1 -37.428879302370035 -17.627268641342887 -17.866266547124255 #
straight-curve $-1 -42.587506817929665 -37.794890470939698 0 0 0 -1 I I #
edge $-1 $590 37.428879302370035 $456 42.587506817929665 $589 $664 forward 7 unknown #
point $-1 -42.587506817929665 -37.794890470939698 -17.866266547124255 #
edge $-1 $459 -42.587506817929665 $591 -37.428879302370035 $588 $665 forward 7 unknown #
point $-1 -42.587506817929665 -37.794890470939698 17.866266547124255 #
edge $-1 $603 89.970722637792861 $606 98.590658662428226 $464 $666 forward 7 unknown #
vertex $-1 $478 $667 #
straight-curve $-1 43.798121164158815 2.7148991397569588 17.866266547124255 1 0 0 I I #
edge $-1 $606 -0.48477837388188405 $475 6.8841334011595698 $474 $668 forward 7 unknown #
vertex $-1 $605 $669 #
straight-curve $-1 -22.834996561204591 2.7148991397569588 119.67756941201107 -0.65605901945558964 0 0.75470958851134928 I I #
point $-1 65.668216520775829 2.7148991397569588 17.866266547124255 #
point $-1 73.16141239661853 10.083810914798413 9.2463305224888899 #
straight-curve $-1 73.161412396618545 0 17.866266547124255 0 1 0 I I #
vertex $-1 $481 $670 #
point $-1 68.988134379913589 4.8203025040545171 12.522884721095284 #
vertex $-1 $485 $671 #
point $-1 68.988134379913589 7.9784075505008545 12.522884721095284 #
straight-curve $-1 -22.834996561204591 17.452722689839867 119.67756941201107 0.65605901945558964 0 -0.75470958851134928 I I #
coedge $-1 $493 $499 $495 $618 forward $489 $-1 #
straight-curve $-1 43.798121164158815 17.452722689839867 17.866266547124255 -1 0 0 I I #
edge $-1 $622 10.083810914798413 $497 17.452722689839867 $495 $672 forward 7 unknown #
point $-1 73.16141239661853 17.452722689839867 9.2463305224888899 #
point $-1 73.161412396618545 17.452722689839867 17.866266547124255 #
point $-1 65.668216520775829 17.452722689839867 17.866266547124255 #
vertex $-1 $618 $673 #
straight-curve $-1 73.161412396618545 10.083810914798413 107.83698918491712 0 0 -1 I I #
straight-curve $-1 43.798121164158815 10.083810914798413 17.866266547124255 1 0 0 I I #
vertex $-1 $507 $674 #
point $-1 68.988134379913589 12.189214279095971 12.522884721095284 #
vertex $-1 $511 $675 #
point $-1 68.988134379913589 15.347319325542308 12.522884721095284 #
edge $-1 $630 41.741312487408969 $633 45.648251384094685 $516 $676 forward 7 unknown #
vertex $-1 $530 $677 #
straight-curve $-1 -87.402894311271808 -8.3452367323555716 17.866266547124255 -1 0 0 I I #
edge $-1 $633 1.8521103889309583 $527 11.134142297918267 $526 $678 forward 7 unknown #
vertex $-1 $632 $679 #
straight-curve $-1 -73.161412396618545 -8.3452367323555716 13.959327650438539 0.71933979245794832 0 0.69465837861970381 I I #
point $-1 -69.115658826824813 -8.3452367323555716 17.866266547124255 #
point $-1 -73.161412396618545 -17.62726864134288 13.959327650438539 #
straight-curve $-1 -73.161412396618545 0 17.866266547124255 0 -1 0 I I #
vertex $-1 $533 $680 #
point $-1 -69.661151967918087 -14.975259524489367 15.10269984661463 #
vertex $-1 $537 $681 #
point $-1 -69.661151967918087 -10.997245849209094 15.10269984661463 #
coedge $-1 $552 $551 $544 $643 forward $541 $-1 #
edge $-1 $644 41.741312487408969 $647 45.648251384094685 $642 $682 forward 7 unknown #
vertex $-1 $556 $683 #
straight-curve $-1 -87.402894311271808 19.365842823785719 17.866266547124255 -1 0 0 I I #
edge $-1 $647 -12.003429389139686 $553 -2.7213974801523779 $552 $684 forward 7 unknown #
vertex $-1 $646 $685 #
straight-curve $-1 -73.161412396618545 19.365842823785719 13.959327650438539 0.71933979245794832 0 0.69465837861970381 I I #
point $-1 -69.115658826824813 19.365842823785719 17.866266547124255 #
point $-1 -73.161412396618545 10.083810914798411 13.959327650438539 #
straight-curve $-1 -73.161412396618545 0 17.866266547124255 0 -1 0 I I #
vertex $-1 $559 $686 #
point $-1 -69.661151967918087 12.735820031651926 15.10269984661463 #
vertex $-1 $563 $687 #
point $-1 -69.661151967918087 16.713833706932199 15.10269984661463 #
straight-curve $-1 -73.161412396618545 37.794890470939698 0 0 0 -1 I I #
point $-1 -73.161412396618545 -37.794890470939698 -17.866266547124255 #
straight-curve $-1 -73.161412396618545 0 -17.866266547124255 0 1 0 I I #
point $-1 -73.161412396618545 37.794890470939698 -17.866266547124255 #
straight-curve $-1 -37.428879302370035 -13.855539778070646 17.866266547124255 0 1 0 I I #
straight-curve $-1 -37.428879302370035 -13.855539778070646 -17.866266547124255 0 -1 0 I I #
point $-1 -37.428879302370035 -37.794890470939698 -17.866266547124255 #
point $-1 -37.428879302370035 -37.794890470939698 17.866266547124255 #
straight-curve $-1 0 -37.794890470939698 -17.866266547124255 -1 0 0 I I #
straight-curve $-1 0 -37.794890470939698 17.866266547124255 1 0 0 I I #
straight-curve $-1 73.161412396618545 2.7148991397569588 107.83698918491712 0 0 -1 I I #
point $-1 73.161412396618545 2.7148991397569588 17.866266547124255 #
straight-curve $-1 73.161412396618545 3.1996775136388429 9.2463305224888757 0 1 0 I I #
point $-1 73.16141239661853 2.7148991397569588 9.2463305224888899 #
point $-1 68.282750075930124 4.8203025040545171 12.572210005623164 #
point $-1 68.282750075930124 7.9784075505008545 12.572210005623164 #
straight-curve $-1 73.161412396618545 0 17.866266547124255 0 1 0 I I #
point $-1 73.161412396618545 10.083810914798413 17.866266547124255 #
point $-1 68.282750075930124 12.189214279095971 12.572210005623164 #
point $-1 68.282750075930124 15.347319325542308 12.572210005623164 #
straight-curve $-1 -73.161412396618545 -8.3452367323555716 59.607579034533224 0 0 -1 I I #
point $-1 -73.161412396618545 -8.3452367323555716 17.866266547124255 #
straight-curve $-1 -73.161412396618545 -6.4931263434246134 13.959327650438535 0 -1 0 I I #
point $-1 -73.161412396618545 -8.3452367323555716 13.959327650438539 #
point $-1 -69.673492674837206 -14.975259524489367 14.395700761075803 #
point $-1 -69.673492674837206 -10.997245849209094 14.395700761075803 #
straight-curve $-1 -73.161412396618545 19.365842823785719 59.607579034533224 0 0 -1 I I #
point $-1 -73.161412396618545 19.365842823785719 17.866266547124255 #
straight-curve $-1 -73.161412396618545 7.362413434646033 13.959327650438535 0 -1 0 I I #
point $-1 -73.161412396618545 19.365842823785719 13.959327650438539 #
point $-1 -69.673492674837206 12.735820031651926 14.395700761075803 #
point $-1 -69.673492674837206 16.713833706932199 14.395700761075803 #
End-of-ACIS-data 