500 0 8 0           
7 Unknown 11 ACIS 5.0 NT 24 Fri Mar 26 17:57:37 1999 
-1 9.9999999999999995e-007 1e-010 
body $-1 $8 $-1 $9 #
body $-1 $10 $-1 $11 #
body $-1 $12 $-1 $13 #
body $-1 $14 $-1 $15 #
body $-1 $16 $-1 $17 #
body $-1 $18 $-1 $19 #
body $-1 $20 $-1 $21 #
body $-1 $22 $-1 $23 #
lump $-1 $-1 $24 $0 #
transform $-1 1 0 0 0 1 0 0 0 1 55.895260475478381 31.847009977138466 14.812596684364721 1 rotate no_reflect no_shear #
lump $-1 $-1 $25 $1 #
transform $-1 1 0 0 0 1 0 0 0 1 55.895260475478381 31.847009977138466 14.812596684364721 1 rotate no_reflect no_shear #
lump $-1 $-1 $26 $2 #
transform $-1 1 0 0 0 1 0 0 0 1 55.895260475478381 31.847009977138466 14.812596684364721 1 rotate no_reflect no_shear #
lump $-1 $-1 $27 $3 #
transform $-1 1 0 0 0 1 0 0 0 1 55.895260475478381 31.847009977138466 14.812596684364721 1 rotate no_reflect no_shear #
lump $-1 $-1 $28 $4 #
transform $-1 1 0 0 0 1 0 0 0 1 55.895260475478381 31.847009977138466 14.812596684364721 1 rotate no_reflect no_shear #
lump $-1 $-1 $29 $5 #
transform $-1 1 0 0 0 1 0 0 0 1 55.895260475478381 31.847009977138466 14.812596684364721 1 rotate no_reflect no_shear #
lump $-1 $-1 $30 $6 #
transform $-1 1 0 0 0 1 0 0 0 1 55.895260475478381 31.847009977138466 14.812596684364721 1 rotate no_reflect no_shear #
lump $-1 $-1 $31 $7 #
transform $-1 1 0 0 0 1 0 0 0 1 55.895260475478381 31.847009977138466 14.812596684364721 1 rotate no_reflect no_shear #
shell $-1 $-1 $-1 $32 $-1 $8 #
shell $-1 $-1 $-1 $33 $-1 $10 #
shell $-1 $-1 $-1 $34 $-1 $12 #
shell $-1 $-1 $-1 $35 $-1 $14 #
shell $-1 $-1 $-1 $36 $-1 $16 #
shell $-1 $-1 $-1 $37 $-1 $18 #
shell $-1 $-1 $-1 $38 $-1 $20 #
shell $-1 $-1 $-1 $39 $-1 $22 #
face $-1 $40 $41 $24 $-1 $42 forward single #
face $-1 $43 $44 $25 $-1 $45 forward single #
face $-1 $46 $47 $26 $-1 $48 forward single #
face $-1 $49 $50 $27 $-1 $51 reversed single #
face $-1 $52 $53 $28 $-1 $54 forward single #
face $-1 $55 $56 $29 $-1 $57 forward single #
face $-1 $58 $59 $30 $-1 $60 reversed single #
face $-1 $61 $62 $31 $-1 $63 forward single #
face $-1 $64 $65 $24 $-1 $66 reversed single #
loop $-1 $-1 $67 $32 #
plane-surface $-1 0 0 14.812596684364721 0 0 1 1 0 0 forward_v I I I I #
face $-1 $68 $69 $25 $-1 $70 reversed single #
loop $-1 $-1 $71 $33 #
plane-surface $-1 -46.856488939333261 0 -8.7165895342240844 0 0 1 1 0 0 forward_v I I I I #
face $-1 $72 $73 $26 $-1 $74 reversed single #
loop $-1 $-1 $75 $34 #
plane-surface $-1 46.856488939333261 0 -8.7165895342240844 0 0 1 1 0 0 forward_v I I I I #
face $-1 $76 $77 $27 $-1 $78 reversed single #
loop $-1 $-1 $79 $35 #
plane-surface $-1 -17.131430423890777 43.79233310354789 139.70131510739384 -1 0 0 0 0.57357644374324357 0.81915203911291934 forward_v I I I I #
face $-1 $80 $81 $28 $-1 $82 forward single #
loop $-1 $83 $84 $36 #
cone-surface $-1 -24.621636528069779 29.079639472106859 12.533163364931383 0 -0.57357644374324357 -0.81915203911291934 1 0 0 1 I I 0 1 1 forward I I I I #
face $-1 $85 $86 $29 $-1 $87 forward single #
loop $-1 $88 $89 $37 #
cone-surface $-1 -20.12751286556238 29.079639472106859 12.533163364931383 0 -0.57357644374324357 -0.81915203911291934 1 0 0 1 I I 0 1 1 forward I I I I #
face $-1 $90 $91 $30 $-1 $92 reversed single #
loop $-1 $-1 $93 $38 #
plane-surface $-1 -37.817717403188134 -99.124225783137007 98.465852040392434 1 0 0 0 0.6018150307709319 -0.79863550430605224 forward_v I I I I #
face $-1 $94 $95 $31 $-1 $96 forward single #
loop $-1 $97 $98 $39 #
cone-surface $-1 -30.877294306655894 -26.348047689877859 9.6562924529708916 0 0.6018150307709319 -0.79863550430605224 2 0 0 1 I I 0 1 2 forward I I I I #
face $-1 $99 $100 $24 $-1 $101 reversed single #
loop $-1 $-1 $102 $40 #
plane-surface $-1 0 0 -14.812596684364721 0 0 1 1 0 0 forward_v I I I I #
coedge $-1 $103 $104 $105 $106 forward $41 $-1 #
face $-1 $107 $108 $25 $-1 $109 reversed single #
loop $-1 $-1 $110 $43 #
plane-surface $-1 -37.817717403188141 0 -11.764593109294402 -1 0 0 0 0 1 forward_v I I I I #
coedge $-1 $111 $112 $113 $114 forward $44 $-1 #
face $-1 $115 $116 $26 $-1 $117 reversed single #
loop $-1 $-1 $118 $46 #
plane-surface $-1 37.817717403188141 0 -11.764593109294402 1 0 0 0 0 -1 forward_v I I I I #
coedge $-1 $119 $120 $121 $122 reversed $47 $-1 #
face $-1 $123 $124 $27 $-1 $125 reversed single #
loop $-1 $-1 $126 $49 #
plane-surface $-1 -22.374574696816076 -20.328076347706457 48.127881916922078 0 0.57357644374324357 0.81915203911291934 1 0 0 forward_v I I I I #
coedge $-1 $127 $128 $129 $130 reversed $50 $-1 #
face $-1 $-1 $131 $28 $-1 $132 forward single #
loop $-1 $133 $134 $52 #
cone-surface $-1 -24.621636528069779 28.323445265084967 11.453206136205573 0 -0.57357644374324357 -0.81915203911291934 0.5 0 0 1 I I -0.70710678118654746 0.70710678118654746 0.5 forward I I I I #
loop $-1 $-1 $135 $36 #
coedge $-1 $84 $84 $136 $137 reversed $53 $-1 #
face $-1 $-1 $138 $29 $-1 $139 forward single #
loop $-1 $140 $141 $55 #
cone-surface $-1 -20.12751286556238 28.323445265084967 11.453206136205573 0 -0.57357644374324357 -0.81915203911291934 0.5 0 0 1 I I -0.70710678118654746 0.70710678118654746 0.5 forward I I I I #
loop $-1 $-1 $142 $37 #
coedge $-1 $89 $89 $143 $144 reversed $56 $-1 #
face $-1 $145 $146 $30 $-1 $147 reversed single #
loop $-1 $-1 $148 $58 #
plane-surface $-1 -30.877294306655894 -31.847009977138455 9.1859729640887764 0 -0.6018150307709319 0.79863550430605224 1 0 0 forward_v I I I I #
coedge $-1 $149 $150 $151 $152 reversed $59 $-1 #
face $-1 $-1 $153 $31 $-1 $154 forward single #
loop $-1 $155 $156 $61 #
cone-surface $-1 -30.877294306655894 -23.980661233342907 6.5146645774089791 0 0.6018150307709319 -0.79863550430605224 1 0 0 1 I I -0.70710678118654746 0.70710678118654746 1 forward I I I I #
loop $-1 $-1 $157 $39 #
coedge $-1 $98 $98 $158 $159 reversed $62 $-1 #
face $-1 $160 $161 $24 $-1 $162 reversed single #
loop $-1 $-1 $163 $64 #
plane-surface $-1 0 -31.847009977138466 0 0 1 0 0 0 1 forward_v I I I I #
coedge $-1 $164 $165 $166 $167 forward $65 $-1 #
coedge $-1 $168 $67 $169 $170 forward $41 $-1 #
coedge $-1 $67 $168 $171 $172 forward $41 $-1 #
coedge $-1 $173 $174 $67 $106 reversed $175 $-1 #
edge $-1 $176 -31.847009977138466 $177 31.847009977138466 $105 $178 forward 7 unknown #
face $-1 $179 $180 $25 $-1 $181 reversed single #
loop $-1 $-1 $182 $68 #
plane-surface $-1 0 0 -14.812596684364721 0 0 1 1 0 0 forward_v I I I I #
coedge $-1 $183 $113 $184 $185 reversed $69 $-1 #
coedge $-1 $186 $71 $187 $188 reversed $44 $-1 #
coedge $-1 $71 $186 $189 $190 reversed $44 $-1 #
coedge $-1 $110 $191 $71 $114 reversed $69 $-1 #
edge $-1 $192 -31.847009977138466 $193 31.847009977138466 $113 $194 forward 7 unknown #
face $-1 $195 $196 $26 $-1 $197 reversed single #
loop $-1 $-1 $198 $72 #
plane-surface $-1 0 -31.847009977138466 0 0 1 0 0 0 1 forward_v I I I I #
coedge $-1 $199 $200 $201 $202 reversed $73 $-1 #
coedge $-1 $203 $75 $204 $205 reversed $47 $-1 #
coedge $-1 $75 $203 $198 $206 reversed $47 $-1 #
coedge $-1 $207 $208 $75 $122 forward $209 $-1 #
edge $-1 $210 -31.847009977138466 $211 31.847009977138466 $121 $212 forward 7 unknown #
face $-1 $213 $214 $27 $-1 $215 reversed single #
loop $-1 $-1 $216 $76 #
plane-surface $-1 -27.617718969741375 43.79233310354789 139.70131510739384 1 0 0 0 -0.57357644374324357 -0.81915203911291934 forward_v I I I I #
coedge $-1 $217 $218 $219 $220 reversed $77 $-1 #
coedge $-1 $128 $79 $221 $222 reversed $50 $-1 #
coedge $-1 $79 $127 $217 $223 reversed $50 $-1 #
coedge $-1 $219 $224 $79 $130 forward $214 $-1 #
edge $-1 $225 55.038060869332199 $226 58.256165089860204 $129 $227 forward 7 unknown #
loop $-1 $-1 $136 $80 #
plane-surface $-1 -22.374574696816076 -20.328076347706457 48.127881916922078 0 0.57357644374324357 0.81915203911291934 1 0 0 forward_v I I I I #
loop $-1 $-1 $228 $52 #
coedge $-1 $134 $134 $135 $229 reversed $81 $-1 #
coedge $-1 $135 $135 $134 $229 forward $83 $-1 #
coedge $-1 $136 $136 $84 $137 forward $131 $-1 #
edge $-1 $230 1.4520862298733288e-015 $230 6.2831853071796022 $136 $231 forward 7 unknown #
loop $-1 $-1 $143 $85 #
plane-surface $-1 -22.374574696816076 -20.328076347706457 48.127881916922078 0 0.57357644374324357 0.81915203911291934 1 0 0 forward_v I I I I #
loop $-1 $-1 $232 $55 #
coedge $-1 $141 $141 $142 $233 reversed $86 $-1 #
coedge $-1 $142 $142 $141 $233 forward $88 $-1 #
coedge $-1 $143 $143 $89 $144 forward $138 $-1 #
edge $-1 $234 1.4520862298733288e-015 $234 6.2831853071796022 $143 $235 forward 7 unknown #
face $-1 $236 $237 $30 $-1 $238 forward single #
loop $-1 $-1 $239 $90 #
plane-surface $-1 -23.936871210123655 -99.124225783137007 98.465852040392434 -1 0 0 0 -0.6018150307709319 0.79863550430605224 forward_v I I I I #
coedge $-1 $240 $241 $242 $243 reversed $91 $-1 #
coedge $-1 $150 $93 $244 $245 reversed $59 $-1 #
coedge $-1 $93 $149 $240 $246 reversed $59 $-1 #
coedge $-1 $242 $247 $93 $152 forward $248 $-1 #
edge $-1 $249 34.420329335831497 $250 40.046953056107448 $151 $251 forward 7 unknown #
loop $-1 $-1 $158 $94 #
plane-surface $-1 -30.877294306655894 -31.847009977138455 9.1859729640887764 0 -0.6018150307709319 0.79863550430605224 1 0 0 forward_v I I I I #
loop $-1 $-1 $252 $61 #
coedge $-1 $156 $156 $157 $253 reversed $95 $-1 #
coedge $-1 $157 $157 $156 $253 forward $97 $-1 #
coedge $-1 $158 $158 $98 $159 forward $153 $-1 #
edge $-1 $254 -1.0488701828943208e-015 $254 6.2831853071795996 $158 $255 forward 7 unknown #
face $-1 $256 $257 $24 $-1 $258 reversed single #
loop $-1 $-1 $259 $99 #
plane-surface $-1 -55.895260475478381 0 0 1 0 0 0 0 -1 forward_v I I I I #
coedge $-1 $260 $171 $261 $262 forward $100 $-1 #
coedge $-1 $263 $102 $260 $264 forward $65 $-1 #
coedge $-1 $102 $263 $265 $266 forward $65 $-1 #
coedge $-1 $174 $173 $102 $167 reversed $175 $-1 #
edge $-1 $267 -31.847009977138466 $268 31.847009977138466 $166 $269 forward 7 unknown #
coedge $-1 $104 $103 $270 $271 forward $41 $-1 #
coedge $-1 $272 $273 $103 $170 reversed $257 $-1 #
edge $-1 $177 -55.895260475478381 $274 55.895260475478381 $169 $275 forward 7 unknown #
coedge $-1 $163 $276 $104 $172 reversed $100 $-1 #
edge $-1 $277 -55.895260475478381 $176 55.895260475478381 $171 $278 forward 7 unknown #
coedge $-1 $166 $105 $276 $279 forward $175 $-1 #
coedge $-1 $105 $166 $272 $280 reversed $175 $-1 #
loop $-1 $-1 $173 $256 #
vertex $-1 $106 $281 #
vertex $-1 $106 $282 #
straight-curve $-1 55.895260475478381 0 14.812596684364721 0 1 0 I I #
face $-1 $283 $284 $25 $-1 $285 reversed single #
loop $-1 $-1 $184 $107 #
plane-surface $-1 0 -31.847009977138466 0 0 1 0 0 0 1 forward_v I I I I #
coedge $-1 $286 $287 $183 $288 forward $108 $-1 #
coedge $-1 $191 $110 $182 $288 reversed $69 $-1 #
coedge $-1 $189 $289 $110 $185 forward $180 $-1 #
edge $-1 $290 -8.9303001297175193 $192 -2.8342929795768832 $184 $291 forward 7 unknown #
coedge $-1 $112 $111 $292 $293 reversed $44 $-1 #
coedge $-1 $294 $295 $111 $188 forward $296 $-1 #
edge $-1 $297 -32.46701600581175 $193 -14.38947293352151 $187 $298 forward 7 unknown #
coedge $-1 $299 $184 $112 $190 forward $180 $-1 #
edge $-1 $192 14.38947293352151 $300 32.46701600581175 $189 $301 forward 7 unknown #
coedge $-1 $113 $183 $294 $302 reversed $69 $-1 #
vertex $-1 $190 $303 #
vertex $-1 $188 $304 #
straight-curve $-1 -37.817717403188141 0 -8.7165895342240844 0 1 0 I I #
face $-1 $305 $306 $26 $-1 $307 reversed single #
loop $-1 $-1 $308 $115 #
plane-surface $-1 0 0 -14.812596684364721 0 0 1 1 0 0 forward_v I I I I #
coedge $-1 $309 $310 $120 $206 forward $116 $-1 #
coedge $-1 $311 $118 $308 $312 reversed $73 $-1 #
coedge $-1 $118 $311 $203 $313 reversed $73 $-1 #
coedge $-1 $204 $314 $118 $202 forward $306 $-1 #
edge $-1 $315 -8.9303001297175193 $316 -2.8342929795768832 $201 $317 forward 7 unknown #
coedge $-1 $120 $119 $200 $313 forward $47 $-1 #
coedge $-1 $318 $201 $119 $205 forward $306 $-1 #
edge $-1 $316 14.38947293352151 $210 32.46701600581175 $204 $319 forward 7 unknown #
edge $-1 $211 -32.46701600581175 $320 -14.38947293352151 $198 $321 forward 7 unknown #
coedge $-1 $322 $121 $310 $323 forward $209 $-1 #
coedge $-1 $121 $322 $318 $324 reversed $209 $-1 #
loop $-1 $-1 $121 $305 #
vertex $-1 $324 $325 #
vertex $-1 $323 $326 #
straight-curve $-1 55.895260475478381 0 -8.7165895342240844 0 -1 0 I I #
face $-1 $-1 $327 $27 $-1 $328 forward single #
loop $-1 $-1 $129 $123 #
plane-surface $-1 0 31.847009977138466 0 0 -1 0 0 0 -1 forward_v I I I I #
coedge $-1 $329 $330 $331 $332 reversed $124 $-1 #
coedge $-1 $333 $126 $128 $223 forward $77 $-1 #
coedge $-1 $126 $333 $329 $334 forward $77 $-1 #
coedge $-1 $331 $129 $126 $220 forward $214 $-1 #
edge $-1 $226 5.9441430754827387 $335 16.430431621333337 $219 $336 forward 7 unknown #
coedge $-1 $337 $338 $127 $222 forward $327 $-1 #
edge $-1 $339 5.354914385601802 $225 9.9508434253645213 $221 $340 forward 7 unknown #
edge $-1 $226 -63.694019954276939 $339 -58.083426535331441 $128 $341 forward 7 unknown #
coedge $-1 $129 $331 $337 $342 reversed $214 $-1 #
vertex $-1 $342 $343 #
vertex $-1 $130 $344 #
straight-curve $-1 -17.131430423890777 31.847009977138466 69.850657553696919 0 0 -1 I I #
coedge $-1 $228 $228 $-1 $345 reversed $133 $-1 #
edge $-1 $346 0 $346 6.2831853071796004 $134 $347 forward 7 unknown #
vertex $-1 $137 $348 #
ellipse-curve $-1 -24.621636528069779 29.549045457257112 13.203544574100713 0 0.57357644374324357 0.81915203911291934 1 0 0 1 I I #
coedge $-1 $232 $232 $-1 $349 reversed $140 $-1 #
edge $-1 $350 0 $350 6.2831853071796004 $141 $351 forward 7 unknown #
vertex $-1 $144 $352 #
ellipse-curve $-1 -20.12751286556238 29.549045457257112 13.203544574100713 0 0.57357644374324357 0.81915203911291934 1 0 0 1 I I #
face $-1 $-1 $248 $30 $-1 $353 reversed single #
loop $-1 $-1 $354 $145 #
plane-surface $-1 0 0 14.812596684364721 0 0 1 1 0 0 forward_v I I I I #
coedge $-1 $355 $356 $357 $358 reversed $146 $-1 #
coedge $-1 $359 $148 $150 $246 forward $91 $-1 #
coedge $-1 $148 $359 $355 $360 forward $91 $-1 #
coedge $-1 $357 $151 $148 $243 forward $248 $-1 #
edge $-1 $250 -22.379070249860185 $361 -8.4982240567957081 $242 $362 forward 7 unknown #
coedge $-1 $363 $364 $149 $245 forward $237 $-1 #
edge $-1 $365 -25.181884637423231 $249 -17.715102914430037 $244 $366 forward 7 unknown #
edge $-1 $250 -1.3857161071390631e-014 $365 9.3494237142401975 $150 $367 forward 7 unknown #
coedge $-1 $151 $357 $363 $368 reversed $248 $-1 #
loop $-1 $-1 $357 $236 #
vertex $-1 $368 $369 #
vertex $-1 $152 $370 #
straight-curve $-1 -37.817717403188134 -31.84700997713847 49.232926020196217 0 0 -1 I I #
coedge $-1 $252 $252 $-1 $371 reversed $155 $-1 #
edge $-1 $372 0 $372 6.2831853071796004 $156 $373 forward 7 unknown #
vertex $-1 $159 $374 #
ellipse-curve $-1 -30.877294306655894 -28.113619115641871 11.999284824226741 0 -0.6018150307709319 0.79863550430605224 2 0 0 1 I I #
face $-1 $-1 $175 $24 $-1 $375 reversed single #
loop $-1 $-1 $272 $160 #
plane-surface $-1 0 31.847009977138466 0 0 -1 0 0 0 -1 forward_v I I I I #
coedge $-1 $376 $270 $273 $377 forward $161 $-1 #
coedge $-1 $276 $163 $164 $264 reversed $100 $-1 #
coedge $-1 $270 $376 $163 $262 reversed $161 $-1 #
edge $-1 $277 -14.812596684364721 $378 14.812596684364721 $261 $379 forward 7 unknown #
coedge $-1 $165 $164 $376 $380 forward $65 $-1 #
edge $-1 $268 -55.895260475478381 $378 55.895260475478381 $260 $381 forward 7 unknown #
coedge $-1 $273 $272 $165 $266 reversed $257 $-1 #
edge $-1 $382 -55.895260475478381 $267 55.895260475478381 $265 $383 forward 7 unknown #
vertex $-1 $167 $384 #
vertex $-1 $279 $385 #
straight-curve $-1 55.895260475478381 0 -14.812596684364721 0 -1 0 I I #
coedge $-1 $259 $261 $168 $271 reversed $161 $-1 #
edge $-1 $274 -31.847009977138466 $277 31.847009977138466 $270 $386 forward 7 unknown #
coedge $-1 $265 $169 $174 $280 forward $257 $-1 #
coedge $-1 $169 $265 $259 $377 reversed $257 $-1 #
vertex $-1 $170 $387 #
straight-curve $-1 0 31.847009977138466 14.812596684364721 -1 0 0 I I #
coedge $-1 $171 $260 $173 $279 reversed $100 $-1 #
vertex $-1 $271 $388 #
straight-curve $-1 0 -31.847009977138466 14.812596684364721 1 0 0 I I #
edge $-1 $176 -14.812596684364721 $268 14.812596684364721 $173 $389 forward 7 unknown #
edge $-1 $177 -14.812596684364721 $267 14.812596684364721 $174 $390 forward 7 unknown #
point $-1 55.895260475478381 -31.847009977138466 14.812596684364721 #
point $-1 55.895260475478381 31.847009977138466 14.812596684364721 #
face $-1 $-1 $296 $25 $-1 $391 reversed single #
loop $-1 $-1 $292 $179 #
plane-surface $-1 -55.895260475478381 0 0 1 0 0 0 0 -1 forward_v I I I I #
coedge $-1 $392 $182 $289 $393 forward $108 $-1 #
coedge $-1 $182 $392 $394 $395 forward $108 $-1 #
edge $-1 $396 -31.847009977138466 $290 31.847009977138466 $182 $397 forward 7 unknown #
coedge $-1 $184 $299 $286 $393 reversed $180 $-1 #
vertex $-1 $393 $398 #
straight-curve $-1 -37.817717403188141 -31.847009977138466 -5.8822965546472012 0 0 1 I I #
coedge $-1 $399 $400 $186 $293 forward $284 $-1 #
edge $-1 $300 -31.847009977138466 $297 31.847009977138466 $292 $401 forward 7 unknown #
coedge $-1 $394 $187 $191 $302 forward $296 $-1 #
coedge $-1 $187 $394 $399 $402 reversed $296 $-1 #
loop $-1 $-1 $294 $283 #
vertex $-1 $402 $403 #
straight-curve $-1 -23.42824446966663 31.847009977138466 -8.7165895342240844 1 0 0 I I #
coedge $-1 $289 $189 $400 $404 forward $180 $-1 #
vertex $-1 $404 $405 #
straight-curve $-1 -23.42824446966663 -31.847009977138466 -8.7165895342240844 -1 0 0 I I #
edge $-1 $193 2.8342929795768832 $396 8.9303001297175193 $294 $406 forward 7 unknown #
point $-1 -37.817717403188141 -31.847009977138466 -8.7165895342240844 #
point $-1 -37.817717403188141 31.847009977138466 -8.7165895342240844 #
face $-1 $-1 $209 $26 $-1 $407 reversed single #
loop $-1 $-1 $204 $195 #
plane-surface $-1 0 31.847009977138466 0 0 -1 0 0 0 -1 forward_v I I I I #
coedge $-1 $408 $409 $199 $312 forward $196 $-1 #
coedge $-1 $410 $198 $311 $411 forward $116 $-1 #
coedge $-1 $198 $410 $207 $323 reversed $116 $-1 #
coedge $-1 $200 $199 $309 $411 reversed $73 $-1 #
edge $-1 $412 -31.847009977138466 $315 31.847009977138466 $308 $413 forward 7 unknown #
edge $-1 $316 -31.847009977138466 $320 31.847009977138466 $200 $414 forward 7 unknown #
coedge $-1 $201 $318 $408 $415 reversed $306 $-1 #
vertex $-1 $415 $416 #
vertex $-1 $205 $417 #
straight-curve $-1 37.817717403188141 31.847009977138466 -5.8822965546472012 0 0 1 I I #
coedge $-1 $314 $204 $208 $324 forward $306 $-1 #
straight-curve $-1 23.42824446966663 31.847009977138466 -8.7165895342240844 1 0 0 I I #
vertex $-1 $206 $418 #
straight-curve $-1 23.42824446966663 -31.847009977138466 -8.7165895342240844 -1 0 0 I I #
coedge $-1 $208 $207 $419 $420 reversed $209 $-1 #
edge $-1 $211 8.7165895342240844 $421 14.812596684364721 $207 $422 forward 7 unknown #
edge $-1 $210 8.7165895342240844 $423 14.812596684364721 $208 $424 forward 7 unknown #
point $-1 55.895260475478381 31.847009977138466 -8.7165895342240844 #
point $-1 55.895260475478381 -31.847009977138466 -8.7165895342240844 #
loop $-1 $-1 $221 $213 #
plane-surface $-1 0 0 14.812596684364721 0 0 1 1 0 0 forward_v I I I I #
coedge $-1 $330 $216 $218 $334 reversed $124 $-1 #
coedge $-1 $216 $329 $425 $426 reversed $124 $-1 #
coedge $-1 $224 $219 $216 $332 forward $214 $-1 #
edge $-1 $335 -58.256165089860204 $427 -55.038060869332199 $331 $428 forward 7 unknown #
coedge $-1 $218 $217 $338 $429 reversed $77 $-1 #
edge $-1 $430 58.083426535331441 $335 63.694019954276939 $329 $431 forward 7 unknown #
vertex $-1 $220 $432 #
straight-curve $-1 -11.187287348408038 31.84700997713847 11.594492463836723 -1 0 0 I I #
coedge $-1 $425 $221 $224 $342 forward $327 $-1 #
coedge $-1 $221 $425 $333 $429 forward $327 $-1 #
vertex $-1 $222 $433 #
straight-curve $-1 -17.131430423890777 21.896166551773945 14.812596684364721 0 1 0 I I #
straight-curve $-1 -17.131430423890777 -20.328076347706457 48.127881916922078 0 -0.81915203911291934 0.57357644374324357 I I #
edge $-1 $225 17.131430423890777 $427 27.617718969741375 $224 $434 forward 7 unknown #
point $-1 -17.131430423890777 31.847009977138466 14.812596684364721 #
point $-1 -17.131430423890777 31.84700997713847 11.594492463836716 #
edge $-1 $435 1 $435 0 $228 $-1 forward 7 unknown #
vertex $-1 $229 $436 #
ellipse-curve $-1 -24.621636528069779 28.610233486956588 11.862782155762032 0 0.57357644374324357 0.81915203911291934 1 0 0 1 I I #
point $-1 -23.621636528069779 29.549045457257126 13.20354457410073 #
edge $-1 $437 1 $437 0 $232 $-1 forward 7 unknown #
vertex $-1 $233 $438 #
ellipse-curve $-1 -20.12751286556238 28.610233486956588 11.862782155762032 0 0.57357644374324357 0.81915203911291934 1 0 0 1 I I #
point $-1 -19.12751286556238 29.549045457257126 13.20354457410073 #
plane-surface $-1 0 -31.847009977138466 0 0 1 0 0 0 1 forward_v I I I I #
coedge $-1 $364 $363 $356 $439 forward $237 $-1 #
coedge $-1 $356 $239 $241 $360 reversed $146 $-1 #
coedge $-1 $239 $355 $354 $439 reversed $146 $-1 #
coedge $-1 $247 $242 $239 $358 forward $248 $-1 #
edge $-1 $361 -40.046953056107448 $440 -34.420329335831497 $357 $441 forward 7 unknown #
coedge $-1 $241 $240 $364 $442 reversed $91 $-1 #
edge $-1 $443 -9.3494237142401975 $361 1.3857161071390631e-014 $355 $444 forward 7 unknown #
vertex $-1 $243 $445 #
straight-curve $-1 -15.438647153327947 -31.847009977138466 9.1859729640887728 1 0 0 I I #
coedge $-1 $354 $244 $247 $368 forward $237 $-1 #
coedge $-1 $244 $354 $359 $442 forward $237 $-1 #
vertex $-1 $245 $446 #
straight-curve $-1 -37.817717403188134 -49.562112891568503 14.812596684364721 0 -1 0 I I #
straight-curve $-1 -37.817717403188134 -31.847009977138455 9.1859729640887764 0 0.79863550430605224 0.6018150307709319 I I #
edge $-1 $249 -37.817717403188134 $440 -23.936871210123655 $247 $447 forward 7 unknown #
point $-1 -37.817717403188134 -31.847009977138466 14.812596684364721 #
point $-1 -37.817717403188134 -31.847009977138466 9.1859729640887675 #
edge $-1 $448 1 $448 0 $252 $-1 forward 7 unknown #
vertex $-1 $253 $449 #
ellipse-curve $-1 -30.877294306655894 -24.58247626411384 7.3133000817150311 0 -0.6018150307709319 0.79863550430605224 2 0 0 1 I I #
point $-1 -28.877294306655894 -28.113619115641882 11.999284824226752 #
plane-surface $-1 55.895260475478381 0 0 -1 0 0 0 0 1 forward_v I I I I #
coedge $-1 $261 $259 $263 $380 reversed $161 $-1 #
edge $-1 $274 -14.812596684364721 $382 14.812596684364721 $273 $450 forward 7 unknown #
vertex $-1 $380 $451 #
straight-curve $-1 -55.895260475478381 -31.847009977138466 0 0 0 -1 I I #
edge $-1 $378 -31.847009977138466 $382 31.847009977138466 $376 $452 forward 7 unknown #
straight-curve $-1 0 -31.847009977138466 -14.812596684364721 -1 0 0 I I #
vertex $-1 $266 $453 #
straight-curve $-1 0 31.847009977138466 -14.812596684364721 1 0 0 I I #
point $-1 55.895260475478381 31.847009977138466 -14.812596684364721 #
point $-1 55.895260475478381 -31.847009977138466 -14.812596684364721 #
straight-curve $-1 -55.895260475478381 0 14.812596684364721 0 -1 0 I I #
point $-1 -55.895260475478381 31.847009977138466 14.812596684364721 #
point $-1 -55.895260475478381 -31.847009977138466 14.812596684364721 #
straight-curve $-1 55.895260475478381 -31.847009977138466 0 0 0 -1 I I #
straight-curve $-1 55.895260475478381 31.847009977138466 0 0 0 -1 I I #
plane-surface $-1 0 31.847009977138466 0 0 -1 0 0 0 -1 forward_v I I I I #
coedge $-1 $287 $286 $454 $455 forward $108 $-1 #
edge $-1 $290 37.817717403188141 $456 55.895260475478381 $289 $457 forward 7 unknown #
coedge $-1 $295 $294 $287 $395 reversed $296 $-1 #
edge $-1 $458 -55.895260475478381 $396 -37.817717403188141 $394 $459 forward 7 unknown #
vertex $-1 $302 $460 #
straight-curve $-1 -37.817717403188141 0 -14.812596684364721 0 -1 0 I I #
point $-1 -37.817717403188141 -31.847009977138466 -14.812596684364721 #
coedge $-1 $454 $292 $295 $402 forward $284 $-1 #
coedge $-1 $292 $454 $299 $404 reversed $284 $-1 #
straight-curve $-1 -55.895260475478381 0 -8.7165895342240844 0 1 0 I I #
edge $-1 $297 8.7165895342240844 $458 14.812596684364721 $295 $461 forward 7 unknown #
point $-1 -55.895260475478381 31.847009977138466 -8.7165895342240844 #
edge $-1 $300 8.7165895342240844 $456 14.812596684364721 $400 $462 forward 7 unknown #
point $-1 -55.895260475478381 -31.847009977138466 -8.7165895342240844 #
straight-curve $-1 -37.817717403188141 31.847009977138466 -5.8822965546472012 0 0 -1 I I #
plane-surface $-1 55.895260475478381 0 0 -1 0 0 0 0 1 forward_v I I I I #
coedge $-1 $419 $308 $314 $415 forward $196 $-1 #
coedge $-1 $308 $419 $410 $463 forward $196 $-1 #
coedge $-1 $310 $309 $409 $463 reversed $116 $-1 #
edge $-1 $320 2.8342929795768832 $412 8.9303001297175193 $309 $464 forward 7 unknown #
vertex $-1 $312 $465 #
straight-curve $-1 37.817717403188141 0 -14.812596684364721 0 1 0 I I #
straight-curve $-1 37.817717403188141 0 -8.7165895342240844 0 -1 0 I I #
edge $-1 $315 37.817717403188141 $423 55.895260475478381 $314 $466 forward 7 unknown #
point $-1 37.817717403188141 31.847009977138466 -14.812596684364721 #
point $-1 37.817717403188141 31.847009977138466 -8.7165895342240844 #
point $-1 37.817717403188141 -31.847009977138466 -8.7165895342240844 #
coedge $-1 $409 $408 $322 $420 forward $196 $-1 #
edge $-1 $423 -31.847009977138466 $421 31.847009977138466 $322 $467 forward 7 unknown #
vertex $-1 $323 $468 #
straight-curve $-1 55.895260475478381 -31.847009977138466 0 0 0 -1 I I #
vertex $-1 $420 $469 #
straight-curve $-1 55.895260475478381 31.847009977138466 0 0 0 -1 I I #
coedge $-1 $338 $337 $330 $426 forward $327 $-1 #
edge $-1 $427 -9.9508434253645213 $430 -5.354914385601802 $425 $470 forward 7 unknown #
vertex $-1 $426 $471 #
straight-curve $-1 -27.617718969741375 31.847009977138466 69.850657553696919 0 0 1 I I #
edge $-1 $430 -16.430431621333337 $339 -5.9441430754827387 $338 $472 forward 7 unknown #
vertex $-1 $429 $473 #
straight-curve $-1 -27.617718969741375 -20.328076347706457 48.127881916922078 0 0.81915203911291934 -0.57357644374324357 I I #
point $-1 -27.617718969741375 31.84700997713847 11.594492463836716 #
point $-1 -17.131430423890777 27.251080937375747 14.812596684364721 #
straight-curve $-1 0 31.847009977138466 14.812596684364721 -1 0 0 I I #
vertex $-1 $345 $474 #
point $-1 -23.621636528069779 28.610233486956588 11.862782155762032 #
vertex $-1 $349 $475 #
point $-1 -19.12751286556238 28.610233486956588 11.862782155762032 #
edge $-1 $440 17.715102914430037 $443 25.181884637423231 $354 $476 forward 7 unknown #
vertex $-1 $358 $477 #
straight-curve $-1 -23.936871210123655 -31.84700997713847 49.232926020196217 0 0 1 I I #
edge $-1 $443 8.4982240567957081 $365 22.379070249860185 $364 $478 forward 7 unknown #
vertex $-1 $442 $479 #
straight-curve $-1 -23.936871210123655 -31.847009977138455 9.1859729640887764 0 -0.79863550430605224 -0.6018150307709319 I I #
point $-1 -23.936871210123655 -31.847009977138466 9.1859729640887675 #
point $-1 -37.817717403188134 -24.380228254145273 14.812596684364721 #
straight-curve $-1 0 -31.847009977138466 14.812596684364721 1 0 0 I I #
vertex $-1 $371 $480 #
point $-1 -28.877294306655894 -24.58247626411384 7.3133000817150311 #
straight-curve $-1 -55.895260475478381 31.847009977138466 0 0 0 -1 I I #
point $-1 -55.895260475478381 -31.847009977138466 -14.812596684364721 #
straight-curve $-1 -55.895260475478381 0 -14.812596684364721 0 1 0 I I #
point $-1 -55.895260475478381 31.847009977138466 -14.812596684364721 #
coedge $-1 $400 $399 $392 $455 reversed $284 $-1 #
edge $-1 $456 -31.847009977138466 $458 31.847009977138466 $454 $481 forward 7 unknown #
vertex $-1 $455 $482 #
straight-curve $-1 0 -31.847009977138466 -14.812596684364721 -1 0 0 I I #
vertex $-1 $395 $483 #
straight-curve $-1 0 31.847009977138466 -14.812596684364721 1 0 0 I I #
point $-1 -37.817717403188141 31.847009977138466 -14.812596684364721 #
straight-curve $-1 -55.895260475478381 31.847009977138466 0 0 0 -1 I I #
straight-curve $-1 -55.895260475478381 -31.847009977138466 0 0 0 -1 I I #
edge $-1 $421 -55.895260475478381 $412 -37.817717403188141 $410 $484 forward 7 unknown #
straight-curve $-1 37.817717403188141 -31.847009977138466 -5.8822965546472012 0 0 -1 I I #
point $-1 37.817717403188141 -31.847009977138466 -14.812596684364721 #
straight-curve $-1 0 31.847009977138466 -14.812596684364721 1 0 0 I I #
straight-curve $-1 55.895260475478381 0 -14.812596684364721 0 -1 0 I I #
point $-1 55.895260475478381 -31.847009977138466 -14.812596684364721 #
point $-1 55.895260475478381 31.847009977138466 -14.812596684364721 #
straight-curve $-1 -27.617718969741375 21.896166551773945 14.812596684364721 0 -1 0 I I #
point $-1 -27.617718969741375 31.847009977138466 14.812596684364721 #
straight-curve $-1 -11.187287348408038 27.251080937375743 14.812596684364724 1 0 0 I I #
point $-1 -27.617718969741375 27.251080937375747 14.812596684364721 #
point $-1 -24.621636528069779 28.036657043213346 11.043630116649114 #
point $-1 -20.12751286556238 28.036657043213346 11.043630116649114 #
straight-curve $-1 -23.936871210123655 -49.562112891568503 14.812596684364721 0 1 0 I I #
point $-1 -23.936871210123655 -31.847009977138466 14.812596684364721 #
straight-curve $-1 -15.438647153327947 -24.380228254145273 14.812596684364721 -1 0 0 I I #
point $-1 -23.936871210123655 -24.380228254145273 14.812596684364721 #
point $-1 -30.877294306655894 -23.378846202571975 5.7160290731029271 #
straight-curve $-1 -55.895260475478381 0 -14.812596684364721 0 1 0 I I #
point $-1 -55.895260475478381 -31.847009977138466 -14.812596684364721 #
point $-1 -55.895260475478381 31.847009977138466 -14.812596684364721 #
straight-curve $-1 0 -31.847009977138466 -14.812596684364721 -1 0 0 I I #
End-of-ACIS-data 