500 0 6 0           
7 Unknown 11 ACIS 5.0 NT 24 Fri Mar 26 17:17:22 1999 
-1 9.9999999999999995e-007 1e-010 
body $-1 $6 $-1 $7 #
body $-1 $8 $-1 $9 #
body $-1 $10 $-1 $11 #
body $-1 $12 $-1 $13 #
body $-1 $14 $-1 $15 #
body $-1 $16 $-1 $17 #
lump $-1 $-1 $18 $0 #
transform $-1 1 0 0 0 1 0 0 0 1 55.886715292825102 22.755838356788004 5.8189304485516233 1 rotate no_reflect no_shear #
lump $-1 $-1 $19 $1 #
transform $-1 1 0 0 0 1 0 0 0 1 55.886715292825102 22.755838356788004 5.8189304485516233 1 rotate no_reflect no_shear #
lump $-1 $-1 $20 $2 #
transform $-1 1 0 0 0 1 0 0 0 1 55.886715292825102 22.755838356788004 5.8189304485516233 1 rotate no_reflect no_shear #
lump $-1 $-1 $21 $3 #
transform $-1 1 0 0 0 1 0 0 0 1 55.886715292825102 22.755838356788004 5.8189304485516233 1 rotate no_reflect no_shear #
lump $-1 $-1 $22 $4 #
transform $-1 1 0 0 0 1 0 0 0 1 55.886715292825102 22.755838356788004 5.8189304485516233 1 rotate no_reflect no_shear #
lump $-1 $-1 $23 $5 #
transform $-1 1 0 0 0 1 0 0 0 1 55.886715292825102 22.755838356788004 5.8189304485516233 1 rotate no_reflect no_shear #
shell $-1 $-1 $-1 $24 $-1 $6 #
shell $-1 $-1 $-1 $25 $-1 $8 #
shell $-1 $-1 $-1 $26 $-1 $10 #
shell $-1 $-1 $-1 $27 $-1 $12 #
shell $-1 $-1 $-1 $28 $-1 $14 #
shell $-1 $-1 $-1 $29 $-1 $16 #
face $-1 $30 $31 $18 $-1 $32 forward single #
face $-1 $33 $34 $19 $-1 $35 forward single #
face $-1 $36 $37 $20 $-1 $38 reversed single #
face $-1 $39 $40 $21 $-1 $41 forward single #
face $-1 $42 $43 $22 $-1 $44 forward single #
face $-1 $45 $46 $23 $-1 $47 forward single #
face $-1 $48 $49 $18 $-1 $50 reversed single #
loop $-1 $-1 $51 $24 #
plane-surface $-1 0 0 5.8189304485516233 0 0 1 1 0 0 forward_v I I I I #
face $-1 $52 $53 $19 $-1 $54 forward single #
loop $-1 $-1 $55 $25 #
plane-surface $-1 -55.886715292825102 0 0 1 0 0 0 0 -1 forward_v I I I I #
face $-1 $56 $57 $20 $-1 $58 reversed single #
loop $-1 $-1 $59 $26 #
plane-surface $-1 9.5446624329281065 -98.985135621068295 83.513474605830439 -1 0 0 0 -0.68199836817093118 0.7313536940579346 forward_v I I I I #
face $-1 $60 $61 $21 $-1 $62 forward single #
loop $-1 $63 $64 $27 #
cone-surface $-1 -5.5563786865467222 -19.673287459219683 2.8171004781957341 0 0.68199836817093118 -0.7313536940579346 1 0 0 1 I I 0 1 1 forward I I I I #
face $-1 $65 $66 $22 $-1 $67 forward single #
loop $-1 $68 $69 $28 #
cone-surface $-1 0.10651173325634034 -19.673287459219683 2.8171004781957341 0 0.68199836817093118 -0.7313536940579346 1 0 0 1 I I 0 1 1 forward I I I I #
face $-1 $70 $71 $23 $-1 $72 forward single #
loop $-1 $73 $74 $29 #
cone-surface $-1 5.7694021530594028 -19.673287459219683 2.8171004781957341 0 0.68199836817093118 -0.7313536940579346 1 0 0 1 I I 0 1 1 forward I I I I #
face $-1 $75 $76 $18 $-1 $77 reversed single #
loop $-1 $-1 $78 $30 #
plane-surface $-1 0 0 -5.8189304485516233 0 0 1 1 0 0 forward_v I I I I #
coedge $-1 $79 $80 $81 $82 forward $31 $-1 #
face $-1 $83 $84 $19 $-1 $85 reversed single #
loop $-1 $-1 $86 $33 #
plane-surface $-1 0 0 5.8189304485516233 0 0 1 1 0 0 forward_v I I I I #
coedge $-1 $87 $88 $89 $90 forward $34 $-1 #
face $-1 $91 $92 $20 $-1 $93 reversed single #
loop $-1 $-1 $94 $36 #
plane-surface $-1 0.10651173325634034 -22.755838356788004 1.7675632494870257 0 -0.68199836817093118 0.7313536940579346 1 0 0 forward_v I I I I #
coedge $-1 $95 $96 $97 $98 reversed $37 $-1 #
face $-1 $-1 $99 $21 $-1 $100 forward single #
loop $-1 $101 $102 $39 #
cone-surface $-1 -5.5563786865467222 -18.42201703782926 1.4752772603431721 0 0.68199836817093118 -0.7313536940579346 0.5 0 0 1 I I -0.70710678118654746 0.70710678118654746 0.5 forward I I I I #
loop $-1 $-1 $103 $27 #
coedge $-1 $64 $64 $104 $105 reversed $40 $-1 #
face $-1 $-1 $106 $22 $-1 $107 forward single #
loop $-1 $108 $109 $42 #
cone-surface $-1 0.10651173325634034 -18.42201703782926 1.4752772603431721 0 0.68199836817093118 -0.7313536940579346 0.5 0 0 1 I I -0.70710678118654746 0.70710678118654746 0.5 forward I I I I #
loop $-1 $-1 $110 $28 #
coedge $-1 $69 $69 $111 $112 reversed $43 $-1 #
face $-1 $-1 $113 $23 $-1 $114 forward single #
loop $-1 $115 $116 $45 #
cone-surface $-1 5.7694021530594028 -18.42201703782926 1.4752772603431721 0 0.68199836817093118 -0.7313536940579346 0.5 0 0 1 I I -0.70710678118654746 0.70710678118654746 0.5 forward I I I I #
loop $-1 $-1 $117 $29 #
coedge $-1 $74 $74 $118 $119 reversed $46 $-1 #
face $-1 $120 $121 $18 $-1 $122 reversed single #
loop $-1 $-1 $123 $48 #
plane-surface $-1 0 -22.755838356788004 0 0 1 0 0 0 1 forward_v I I I I #
coedge $-1 $124 $125 $126 $127 forward $49 $-1 #
coedge $-1 $128 $51 $129 $130 forward $31 $-1 #
coedge $-1 $51 $128 $131 $132 forward $31 $-1 #
coedge $-1 $133 $134 $51 $82 reversed $135 $-1 #
edge $-1 $136 -22.755838356788004 $137 22.755838356788004 $81 $138 forward 7 unknown #
face $-1 $139 $140 $19 $-1 $141 reversed single #
loop $-1 $-1 $142 $52 #
plane-surface $-1 -60.588674631519524 -21.255838356788004 0 1 0 0 0 0 -1 forward_v I I I I #
coedge $-1 $143 $144 $87 $145 forward $53 $-1 #
coedge $-1 $146 $55 $86 $145 reversed $34 $-1 #
coedge $-1 $55 $146 $147 $148 reversed $34 $-1 #
coedge $-1 $149 $150 $55 $90 reversed $140 $-1 #
edge $-1 $151 -5.8189304485516233 $152 5.8189304485516233 $89 $153 forward 7 unknown #
face $-1 $154 $155 $20 $-1 $156 forward single #
loop $-1 $-1 $157 $56 #
plane-surface $-1 -9.3316389664154258 -98.985135621068295 83.513474605830439 1 0 0 0 0.68199836817093118 -0.7313536940579346 forward_v I I I I #
coedge $-1 $158 $159 $160 $161 reversed $57 $-1 #
coedge $-1 $96 $59 $162 $163 reversed $37 $-1 #
coedge $-1 $59 $95 $158 $164 reversed $37 $-1 #
coedge $-1 $160 $165 $59 $98 forward $155 $-1 #
edge $-1 $166 26.736729453746143 $167 31.081288774272878 $97 $168 forward 7 unknown #
loop $-1 $-1 $104 $60 #
plane-surface $-1 0.10651173325634034 -22.755838356788004 1.7675632494870257 0 -0.68199836817093118 0.7313536940579346 1 0 0 forward_v I I I I #
loop $-1 $-1 $169 $39 #
coedge $-1 $102 $102 $103 $170 reversed $61 $-1 #
coedge $-1 $103 $103 $102 $170 forward $63 $-1 #
coedge $-1 $104 $104 $64 $105 forward $99 $-1 #
edge $-1 $171 -2.4707674978812531e-015 $171 6.2831853071795978 $104 $172 forward 7 unknown #
loop $-1 $-1 $111 $65 #
plane-surface $-1 0.10651173325634034 -22.755838356788004 1.7675632494870257 0 -0.68199836817093118 0.7313536940579346 1 0 0 forward_v I I I I #
loop $-1 $-1 $173 $42 #
coedge $-1 $109 $109 $110 $174 reversed $66 $-1 #
coedge $-1 $110 $110 $109 $174 forward $68 $-1 #
coedge $-1 $111 $111 $69 $112 forward $106 $-1 #
edge $-1 $175 -2.4707674978812531e-015 $175 6.2831853071795978 $111 $176 forward 7 unknown #
loop $-1 $-1 $118 $70 #
plane-surface $-1 0.10651173325634034 -22.755838356788004 1.7675632494870257 0 -0.68199836817093118 0.7313536940579346 1 0 0 forward_v I I I I #
loop $-1 $-1 $177 $45 #
coedge $-1 $116 $116 $117 $178 reversed $71 $-1 #
coedge $-1 $117 $117 $116 $178 forward $73 $-1 #
coedge $-1 $118 $118 $74 $119 forward $113 $-1 #
edge $-1 $179 -2.4707674978812531e-015 $179 6.2831853071795978 $118 $180 forward 7 unknown #
face $-1 $181 $182 $18 $-1 $183 reversed single #
loop $-1 $-1 $184 $75 #
plane-surface $-1 -55.886715292825102 0 0 1 0 0 0 0 -1 forward_v I I I I #
coedge $-1 $185 $131 $186 $187 forward $76 $-1 #
coedge $-1 $188 $78 $185 $189 forward $49 $-1 #
coedge $-1 $78 $188 $190 $191 forward $49 $-1 #
coedge $-1 $134 $133 $78 $127 reversed $135 $-1 #
edge $-1 $192 -22.755838356788004 $193 22.755838356788004 $126 $194 forward 7 unknown #
coedge $-1 $80 $79 $195 $196 forward $31 $-1 #
coedge $-1 $197 $198 $79 $130 reversed $182 $-1 #
edge $-1 $137 -55.886715292825102 $199 55.886715292825102 $129 $200 forward 7 unknown #
coedge $-1 $123 $201 $80 $132 reversed $76 $-1 #
edge $-1 $202 -55.886715292825102 $136 55.886715292825102 $131 $203 forward 7 unknown #
coedge $-1 $126 $81 $201 $204 forward $135 $-1 #
coedge $-1 $81 $126 $197 $205 reversed $135 $-1 #
loop $-1 $-1 $133 $181 #
vertex $-1 $82 $206 #
vertex $-1 $82 $207 #
straight-curve $-1 55.886715292825102 0 5.8189304485516233 0 1 0 I I #
face $-1 $208 $209 $19 $-1 $210 reversed single #
loop $-1 $-1 $89 $83 #
plane-surface $-1 -58.237694962172313 -19.755838356788004 0 0 -1 0 0 0 -1 forward_v I I I I #
coedge $-1 $211 $212 $213 $214 forward $84 $-1 #
coedge $-1 $215 $86 $150 $216 forward $53 $-1 #
coedge $-1 $86 $215 $217 $218 forward $53 $-1 #
edge $-1 $219 -22.755838356788004 $152 -19.755838356788004 $86 $220 forward 7 unknown #
coedge $-1 $88 $87 $221 $222 reversed $34 $-1 #
coedge $-1 $223 $224 $88 $148 forward $209 $-1 #
edge $-1 $151 19.755838356788004 $225 22.755838356788004 $147 $226 forward 7 unknown #
coedge $-1 $213 $89 $224 $227 reversed $140 $-1 #
coedge $-1 $89 $213 $143 $216 reversed $140 $-1 #
vertex $-1 $148 $228 #
vertex $-1 $216 $229 #
straight-curve $-1 -55.886715292825102 -19.755838356788004 0 0 0 1 I I #
face $-1 $-1 $230 $20 $-1 $231 reversed single #
loop $-1 $-1 $97 $91 #
plane-surface $-1 0 0 5.8189304485516233 0 0 1 1 0 0 forward_v I I I I #
coedge $-1 $232 $233 $234 $235 reversed $92 $-1 #
coedge $-1 $236 $94 $96 $164 forward $57 $-1 #
coedge $-1 $94 $236 $232 $237 forward $57 $-1 #
coedge $-1 $234 $97 $94 $161 forward $155 $-1 #
edge $-1 $167 -9.4914065662999363 $238 9.384894833043596 $160 $239 forward 7 unknown #
coedge $-1 $240 $241 $95 $163 forward $230 $-1 #
edge $-1 $242 -39.989174053428194 $166 -35.937806854363593 $162 $243 forward 7 unknown #
edge $-1 $167 -5.9404353267443497 $242 0 $96 $244 forward 7 unknown #
coedge $-1 $97 $234 $240 $245 forward $155 $-1 #
vertex $-1 $98 $246 #
vertex $-1 $98 $247 #
straight-curve $-1 9.5446624329281065 -49.492567810534148 5.818930448551626 0 1 0 I I #
coedge $-1 $169 $169 $-1 $248 reversed $101 $-1 #
edge $-1 $249 0 $249 6.2831853071796004 $102 $250 forward 7 unknown #
vertex $-1 $105 $251 #
ellipse-curve $-1 -5.5563786865467222 -20.583558696524637 3.793246849019325 0 -0.68199836817093118 0.7313536940579346 1 0 0 1 I I #
coedge $-1 $173 $173 $-1 $252 reversed $108 $-1 #
edge $-1 $253 0 $253 6.2831853071796004 $109 $254 forward 7 unknown #
vertex $-1 $112 $255 #
ellipse-curve $-1 0.10651173325634034 -20.583558696524637 3.793246849019325 0 -0.68199836817093118 0.7313536940579346 1 0 0 1 I I #
coedge $-1 $177 $177 $-1 $256 reversed $115 $-1 #
edge $-1 $257 0 $257 6.2831853071796004 $116 $258 forward 7 unknown #
vertex $-1 $119 $259 #
ellipse-curve $-1 5.7694021530594028 -20.583558696524637 3.793246849019325 0 -0.68199836817093118 0.7313536940579346 1 0 0 1 I I #
face $-1 $-1 $135 $18 $-1 $260 reversed single #
loop $-1 $-1 $197 $120 #
plane-surface $-1 0 22.755838356788004 0 0 -1 0 0 0 -1 forward_v I I I I #
coedge $-1 $261 $195 $198 $262 forward $121 $-1 #
coedge $-1 $201 $123 $124 $189 reversed $76 $-1 #
coedge $-1 $195 $261 $123 $187 reversed $121 $-1 #
edge $-1 $202 -5.8189304485516233 $263 5.8189304485516233 $186 $264 forward 7 unknown #
coedge $-1 $125 $124 $261 $265 forward $49 $-1 #
edge $-1 $193 -55.886715292825102 $263 55.886715292825102 $185 $266 forward 7 unknown #
coedge $-1 $198 $197 $125 $191 reversed $182 $-1 #
edge $-1 $267 -55.886715292825102 $192 55.886715292825102 $190 $268 forward 7 unknown #
vertex $-1 $127 $269 #
vertex $-1 $204 $270 #
straight-curve $-1 55.886715292825102 0 -5.8189304485516233 0 -1 0 I I #
coedge $-1 $184 $186 $128 $196 reversed $121 $-1 #
edge $-1 $199 -22.755838356788004 $202 22.755838356788004 $195 $271 forward 7 unknown #
coedge $-1 $190 $129 $134 $205 forward $182 $-1 #
coedge $-1 $129 $190 $184 $262 reversed $182 $-1 #
vertex $-1 $130 $272 #
straight-curve $-1 0 22.755838356788004 5.8189304485516233 -1 0 0 I I #
coedge $-1 $131 $185 $133 $204 reversed $76 $-1 #
vertex $-1 $196 $273 #
straight-curve $-1 0 -22.755838356788004 5.8189304485516233 1 0 0 I I #
edge $-1 $136 -5.8189304485516233 $193 5.8189304485516233 $133 $274 forward 7 unknown #
edge $-1 $137 -5.8189304485516233 $192 5.8189304485516233 $134 $275 forward 7 unknown #
point $-1 55.886715292825102 -22.755838356788004 5.8189304485516233 #
point $-1 55.886715292825102 22.755838356788004 5.8189304485516233 #
face $-1 $-1 $276 $19 $-1 $277 reversed single #
loop $-1 $-1 $147 $139 #
plane-surface $-1 0 0 -5.8189304485516233 0 0 1 1 0 0 forward_v I I I I #
coedge $-1 $278 $142 $279 $280 reversed $84 $-1 #
coedge $-1 $142 $278 $215 $281 reversed $84 $-1 #
coedge $-1 $150 $149 $142 $214 reversed $140 $-1 #
edge $-1 $282 -5.8189304485516233 $283 5.8189304485516233 $213 $284 forward 7 unknown #
coedge $-1 $144 $143 $212 $281 forward $53 $-1 #
edge $-1 $152 -2.3509796693472111 $282 2.3509796693472111 $150 $285 forward 7 unknown #
coedge $-1 $286 $221 $144 $218 reversed $276 $-1 #
edge $-1 $287 -60.588674631519524 $219 -55.886715292825102 $217 $288 forward 7 unknown #
vertex $-1 $222 $289 #
straight-curve $-1 -55.886715292825102 0 5.8189304485516233 0 1 0 I I #
coedge $-1 $217 $290 $146 $222 forward $276 $-1 #
edge $-1 $225 -5.8189304485516233 $219 5.8189304485516233 $221 $291 forward 7 unknown #
coedge $-1 $279 $147 $290 $292 forward $209 $-1 #
coedge $-1 $147 $279 $149 $227 forward $209 $-1 #
vertex $-1 $292 $293 #
straight-curve $-1 -55.886715292825102 0 -5.8189304485516233 0 -1 0 I I #
edge $-1 $283 -2.3509796693472111 $151 2.3509796693472111 $149 $294 forward 7 unknown #
point $-1 -55.886715292825102 -19.755838356788004 -5.8189304485516233 #
point $-1 -55.886715292825102 -19.755838356788004 5.8189304485516233 #
loop $-1 $-1 $162 $154 #
plane-surface $-1 0 -22.755838356788004 0 0 1 0 0 0 1 forward_v I I I I #
coedge $-1 $233 $157 $159 $237 reversed $92 $-1 #
coedge $-1 $157 $232 $295 $296 reversed $92 $-1 #
coedge $-1 $165 $160 $157 $235 forward $155 $-1 #
edge $-1 $238 -31.081288774272878 $297 -26.736729453746143 $234 $298 forward 7 unknown #
coedge $-1 $159 $158 $241 $299 reversed $57 $-1 #
edge $-1 $300 0 $238 5.9404353267443497 $232 $301 forward 7 unknown #
vertex $-1 $161 $302 #
straight-curve $-1 0.053255866628170168 -18.411279036261273 5.8189304485516233 -1 0 0 I I #
coedge $-1 $295 $162 $165 $245 reversed $230 $-1 #
coedge $-1 $162 $295 $236 $299 forward $230 $-1 #
vertex $-1 $163 $303 #
straight-curve $-1 9.5446624329281065 -22.755838356788004 41.756737302915219 0 0 1 I I #
straight-curve $-1 9.5446624329281065 -22.755838356788004 1.7675632494870257 0 -0.7313536940579346 -0.68199836817093118 I I #
edge $-1 $297 -9.3316389664154258 $166 9.5446624329281065 $240 $304 forward 7 unknown #
point $-1 9.5446624329281065 -22.755838356788004 5.8189304485516233 #
point $-1 9.5446624329281065 -18.41127903626127 5.8189304485516233 #
edge $-1 $305 1 $305 0 $169 $-1 forward 7 unknown #
vertex $-1 $170 $306 #
ellipse-curve $-1 -5.5563786865467222 -18.763016221914725 1.8409541073721394 0 -0.68199836817093118 0.7313536940579346 1 0 0 1 I I #
point $-1 -4.5563786865467222 -20.583558696524644 3.793246849019329 #
edge $-1 $307 1 $307 0 $173 $-1 forward 7 unknown #
vertex $-1 $174 $308 #
ellipse-curve $-1 0.10651173325634034 -18.763016221914725 1.8409541073721394 0 -0.68199836817093118 0.7313536940579346 1 0 0 1 I I #
point $-1 1.1065117332563403 -20.583558696524644 3.793246849019329 #
edge $-1 $309 1 $309 0 $177 $-1 forward 7 unknown #
vertex $-1 $178 $310 #
ellipse-curve $-1 5.7694021530594028 -18.763016221914725 1.8409541073721394 0 -0.68199836817093118 0.7313536940579346 1 0 0 1 I I #
point $-1 6.7694021530594028 -20.583558696524644 3.793246849019329 #
plane-surface $-1 55.886715292825102 0 0 -1 0 0 0 0 1 forward_v I I I I #
coedge $-1 $186 $184 $188 $265 reversed $121 $-1 #
edge $-1 $199 -5.8189304485516233 $267 5.8189304485516233 $198 $311 forward 7 unknown #
vertex $-1 $265 $312 #
straight-curve $-1 -55.886715292825102 -22.755838356788004 0 0 0 -1 I I #
edge $-1 $263 -22.755838356788004 $267 22.755838356788004 $261 $313 forward 7 unknown #
straight-curve $-1 0 -22.755838356788004 -5.8189304485516233 -1 0 0 I I #
vertex $-1 $191 $314 #
straight-curve $-1 0 22.755838356788004 -5.8189304485516233 1 0 0 I I #
point $-1 55.886715292825102 22.755838356788004 -5.8189304485516233 #
point $-1 55.886715292825102 -22.755838356788004 -5.8189304485516233 #
straight-curve $-1 -55.886715292825102 0 5.8189304485516233 0 -1 0 I I #
point $-1 -55.886715292825102 22.755838356788004 5.8189304485516233 #
point $-1 -55.886715292825102 -22.755838356788004 5.8189304485516233 #
straight-curve $-1 55.886715292825102 -22.755838356788004 0 0 0 -1 I I #
straight-curve $-1 55.886715292825102 22.755838356788004 0 0 0 -1 I I #
loop $-1 $-1 $221 $208 #
plane-surface $-1 0 -22.755838356788004 0 0 1 0 0 0 1 forward_v I I I I #
coedge $-1 $212 $211 $286 $315 reversed $84 $-1 #
coedge $-1 $224 $223 $211 $280 forward $209 $-1 #
edge $-1 $316 -1.5 $283 1.5 $211 $317 forward 7 unknown #
edge $-1 $282 -1.5 $287 1.5 $212 $318 forward 7 unknown #
vertex $-1 $216 $319 #
vertex $-1 $227 $320 #
straight-curve $-1 -60.588674631519524 -19.755838356788004 0 0 0 -1 I I #
straight-curve $-1 -58.237694962172313 -19.755838356788004 5.8189304485516233 -1 0 0 I I #
coedge $-1 $290 $217 $278 $315 forward $276 $-1 #
vertex $-1 $281 $321 #
straight-curve $-1 0 -22.755838356788004 5.8189304485516233 1 0 0 I I #
point $-1 -55.886715292825102 -22.755838356788004 5.8189304485516233 #
coedge $-1 $221 $286 $223 $292 reversed $276 $-1 #
straight-curve $-1 -55.886715292825102 -22.755838356788004 0 0 0 1 I I #
edge $-1 $225 -2.3509796693472111 $316 2.3509796693472111 $290 $322 forward 7 unknown #
point $-1 -55.886715292825102 -22.755838356788004 -5.8189304485516233 #
straight-curve $-1 -58.237694962172313 -19.755838356788004 -5.8189304485516233 1 0 0 I I #
coedge $-1 $241 $240 $233 $296 forward $230 $-1 #
edge $-1 $297 35.937806854363593 $300 39.989174053428194 $295 $323 forward 7 unknown #
vertex $-1 $245 $324 #
straight-curve $-1 -9.3316389664154258 -49.492567810534148 5.818930448551626 0 -1 0 I I #
edge $-1 $300 -9.384894833043596 $242 9.4914065662999363 $241 $325 forward 7 unknown #
vertex $-1 $299 $326 #
straight-curve $-1 -9.3316389664154258 -22.755838356788004 1.7675632494870257 0 0.7313536940579346 0.68199836817093118 I I #
point $-1 -9.3316389664154258 -18.41127903626127 5.8189304485516233 #
point $-1 9.5446624329281065 -22.755838356788004 1.7675632494870257 #
straight-curve $-1 0 -22.755838356788004 5.8189304485516233 1 0 0 I I #
vertex $-1 $248 $327 #
point $-1 -4.5563786865467222 -18.763016221914725 1.8409541073721394 #
vertex $-1 $252 $328 #
point $-1 1.1065117332563403 -18.763016221914725 1.8409541073721394 #
vertex $-1 $256 $329 #
point $-1 6.7694021530594028 -18.763016221914725 1.8409541073721394 #
straight-curve $-1 -55.886715292825102 22.755838356788004 0 0 0 -1 I I #
point $-1 -55.886715292825102 -22.755838356788004 -5.8189304485516233 #
straight-curve $-1 -55.886715292825102 0 -5.8189304485516233 0 1 0 I I #
point $-1 -55.886715292825102 22.755838356788004 -5.8189304485516233 #
edge $-1 $287 -5.8189304485516233 $316 5.8189304485516233 $278 $330 forward 7 unknown #
vertex $-1 $280 $331 #
straight-curve $-1 -60.588674631519524 -21.255838356788004 -5.8189304485516233 0 1 0 I I #
straight-curve $-1 -60.588674631519524 -21.255838356788004 5.8189304485516233 0 -1 0 I I #
point $-1 -60.588674631519524 -19.755838356788004 5.8189304485516233 #
point $-1 -60.588674631519524 -19.755838356788004 -5.8189304485516233 #
point $-1 -60.588674631519524 -22.755838356788004 5.8189304485516233 #
straight-curve $-1 -58.237694962172313 -22.755838356788004 -5.8189304485516233 -1 0 0 I I #
straight-curve $-1 -9.3316389664154258 -22.755838356788004 41.756737302915219 0 0 -1 I I #
point $-1 -9.3316389664154258 -22.755838356788004 5.8189304485516233 #
straight-curve $-1 0.053255866628170168 -22.755838356788004 1.7675632494870253 1 0 0 I I #
point $-1 -9.3316389664154258 -22.755838356788004 1.7675632494870257 #
point $-1 -5.5563786865467222 -18.081017853743795 1.1096004133142048 #
point $-1 0.10651173325634034 -18.081017853743795 1.1096004133142048 #
point $-1 5.7694021530594028 -18.081017853743795 1.1096004133142048 #
straight-curve $-1 -60.588674631519524 -22.755838356788004 0 0 0 -1 I I #
point $-1 -60.588674631519524 -22.755838356788004 -5.8189304485516233 #
End-of-ACIS-data 