500 0 19 0           
7 Unknown 11 ACIS 5.0 NT 24 Fri Mar 26 15:02:49 1999 
-1 9.9999999999999995e-007 1e-010 
body $-1 $19 $-1 $20 #
body $-1 $21 $-1 $22 #
body $-1 $23 $-1 $24 #
body $-1 $25 $-1 $26 #
body $-1 $27 $-1 $28 #
body $-1 $29 $-1 $30 #
body $-1 $31 $-1 $32 #
body $-1 $33 $-1 $34 #
body $-1 $35 $-1 $36 #
body $-1 $37 $-1 $38 #
body $-1 $39 $-1 $40 #
body $-1 $41 $-1 $42 #
body $-1 $43 $-1 $44 #
body $-1 $45 $-1 $46 #
body $-1 $47 $-1 $48 #
body $-1 $49 $-1 $50 #
body $-1 $51 $-1 $52 #
body $-1 $53 $-1 $54 #
body $-1 $55 $-1 $56 #
lump $-1 $-1 $57 $0 #
transform $-1 1 0 0 0 1 0 0 0 1 61.983092745750298 33.937762595034826 15.433618823240851 1 rotate no_reflect no_shear #
lump $-1 $-1 $58 $1 #
transform $-1 1 0 0 0 1 0 0 0 1 61.983092745750298 33.937762595034826 15.433618823240851 1 rotate no_reflect no_shear #
lump $-1 $-1 $59 $2 #
transform $-1 1 0 0 0 1 0 0 0 1 61.983092745750298 33.937762595034826 15.433618823240851 1 rotate no_reflect no_shear #
lump $-1 $-1 $60 $3 #
transform $-1 1 0 0 0 1 0 0 0 1 61.983092745750298 33.937762595034826 15.433618823240851 1 rotate no_reflect no_shear #
lump $-1 $-1 $61 $4 #
transform $-1 1 0 0 0 1 0 0 0 1 61.983092745750298 33.937762595034826 15.433618823240851 1 rotate no_reflect no_shear #
lump $-1 $-1 $62 $5 #
transform $-1 1 0 0 0 1 0 0 0 1 61.983092745750298 33.937762595034826 15.433618823240851 1 rotate no_reflect no_shear #
lump $-1 $-1 $63 $6 #
transform $-1 1 0 0 0 1 0 0 0 1 61.983092745750298 33.937762595034826 15.433618823240851 1 rotate no_reflect no_shear #
lump $-1 $-1 $64 $7 #
transform $-1 1 0 0 0 1 0 0 0 1 61.983092745750298 33.937762595034826 15.433618823240851 1 rotate no_reflect no_shear #
lump $-1 $-1 $65 $8 #
transform $-1 1 0 0 0 1 0 0 0 1 61.983092745750298 33.937762595034826 15.433618823240851 1 rotate no_reflect no_shear #
lump $-1 $-1 $66 $9 #
transform $-1 1 0 0 0 1 0 0 0 1 61.983092745750298 33.937762595034826 15.433618823240851 1 rotate no_reflect no_shear #
lump $-1 $-1 $67 $10 #
transform $-1 1 0 0 0 1 0 0 0 1 61.983092745750298 33.937762595034826 15.433618823240851 1 rotate no_reflect no_shear #
lump $-1 $-1 $68 $11 #
transform $-1 1 0 0 0 1 0 0 0 1 61.983092745750298 33.937762595034826 15.433618823240851 1 rotate no_reflect no_shear #
lump $-1 $-1 $69 $12 #
transform $-1 1 0 0 0 1 0 0 0 1 61.983092745750298 33.937762595034826 15.433618823240851 1 rotate no_reflect no_shear #
lump $-1 $-1 $70 $13 #
transform $-1 1 0 0 0 1 0 0 0 1 61.983092745750298 33.937762595034826 15.433618823240851 1 rotate no_reflect no_shear #
lump $-1 $-1 $71 $14 #
transform $-1 1 0 0 0 1 0 0 0 1 61.983092745750298 33.937762595034826 15.433618823240851 1 rotate no_reflect no_shear #
lump $-1 $-1 $72 $15 #
transform $-1 1 0 0 0 1 0 0 0 1 61.983092745750298 33.937762595034826 15.433618823240851 1 rotate no_reflect no_shear #
lump $-1 $-1 $73 $16 #
transform $-1 1 0 0 0 1 0 0 0 1 61.983092745750298 33.937762595034826 15.433618823240851 1 rotate no_reflect no_shear #
lump $-1 $-1 $74 $17 #
transform $-1 1 0 0 0 1 0 0 0 1 61.983092745750298 33.937762595034826 15.433618823240851 1 rotate no_reflect no_shear #
lump $-1 $-1 $75 $18 #
transform $-1 1 0 0 0 1 0 0 0 1 61.983092745750298 33.937762595034826 15.433618823240851 1 rotate no_reflect no_shear #
shell $-1 $-1 $-1 $76 $-1 $19 #
shell $-1 $-1 $-1 $77 $-1 $21 #
shell $-1 $-1 $-1 $78 $-1 $23 #
shell $-1 $-1 $-1 $79 $-1 $25 #
shell $-1 $-1 $-1 $80 $-1 $27 #
shell $-1 $-1 $-1 $81 $-1 $29 #
shell $-1 $-1 $-1 $82 $-1 $31 #
shell $-1 $-1 $-1 $83 $-1 $33 #
shell $-1 $-1 $-1 $84 $-1 $35 #
shell $-1 $-1 $-1 $85 $-1 $37 #
shell $-1 $-1 $-1 $86 $-1 $39 #
shell $-1 $-1 $-1 $87 $-1 $41 #
shell $-1 $-1 $-1 $88 $-1 $43 #
shell $-1 $-1 $-1 $89 $-1 $45 #
shell $-1 $-1 $-1 $90 $-1 $47 #
shell $-1 $-1 $-1 $91 $-1 $49 #
shell $-1 $-1 $-1 $92 $-1 $51 #
shell $-1 $-1 $-1 $93 $-1 $53 #
shell $-1 $-1 $-1 $94 $-1 $55 #
face $-1 $95 $96 $57 $-1 $97 reversed single #
face $-1 $98 $99 $58 $-1 $100 forward single #
face $-1 $101 $102 $59 $-1 $103 forward single #
face $-1 $104 $105 $60 $-1 $106 reversed single #
face $-1 $107 $108 $61 $-1 $109 forward single #
face $-1 $110 $111 $62 $-1 $112 forward single #
face $-1 $113 $114 $63 $-1 $115 forward single #
face $-1 $116 $117 $64 $-1 $118 reversed single #
face $-1 $119 $120 $65 $-1 $121 forward single #
face $-1 $122 $123 $66 $-1 $124 forward single #
face $-1 $125 $126 $67 $-1 $127 forward single #
face $-1 $128 $129 $68 $-1 $130 reversed single #
face $-1 $131 $132 $69 $-1 $133 forward single #
face $-1 $134 $135 $70 $-1 $136 forward single #
face $-1 $137 $138 $71 $-1 $139 forward single #
face $-1 $140 $141 $72 $-1 $142 reversed single #
face $-1 $143 $144 $73 $-1 $145 forward single #
face $-1 $146 $147 $74 $-1 $148 forward single #
face $-1 $149 $150 $75 $-1 $151 forward single #
face $-1 $152 $153 $57 $-1 $154 forward single #
loop $-1 $-1 $155 $76 #
plane-surface $-1 61.983092745750298 0 0 -1 0 0 0 0 1 forward_v I I I I #
face $-1 $156 $157 $58 $-1 $158 reversed single #
loop $-1 $-1 $159 $77 #
plane-surface $-1 -61.983092745750298 0 0 1 0 0 0 0 -1 forward_v I I I I #
face $-1 $160 $161 $59 $-1 $162 reversed single #
loop $-1 $-1 $163 $78 #
plane-surface $-1 61.983092745750298 0 0 -1 0 0 0 0 1 forward_v I I I I #
face $-1 $164 $165 $60 $-1 $166 reversed single #
loop $-1 $-1 $167 $79 #
plane-surface $-1 -32.55685744117163 80.645002200710366 145.25914371699452 1 0 0 0 -0.74314483375859142 -0.66913059716165679 forward_v I I I I #
face $-1 $168 $169 $61 $-1 $170 forward single #
loop $-1 $171 $172 $80 #
cone-surface $-1 -30.340012869549444 31.630619187787779 13.018842428862056 0 -0.74314483375859142 -0.66913059716165679 0.5 0 0 1 I I 0 1 0.5 forward I I I I #
face $-1 $173 $174 $62 $-1 $175 forward single #
loop $-1 $176 $177 $81 #
cone-surface $-1 -27.014746012116156 31.630619187787779 13.018842428862056 0 -0.74314483375859142 -0.66913059716165679 0.5 0 0 1 I I 0 1 0.5 forward I I I I #
face $-1 $178 $179 $63 $-1 $180 forward single #
loop $-1 $181 $182 $82 #
cone-surface $-1 -23.689479154682871 31.630619187787779 13.018842428862056 0 -0.74314483375859142 -0.66913059716165679 0.5 0 0 1 I I 0 1 0.5 forward I I I I #
face $-1 $183 $184 $64 $-1 $185 reversed single #
loop $-1 $-1 $186 $83 #
plane-surface $-1 -11.08422285811095 80.645002200710366 145.25914371699452 1 0 0 0 -0.74314483375859142 -0.66913059716165679 forward_v I I I I #
face $-1 $187 $188 $65 $-1 $189 forward single #
loop $-1 $190 $191 $84 #
cone-surface $-1 -8.8673782864887585 31.630619187787779 13.018842428862056 0 -0.74314483375859142 -0.66913059716165679 0.5 0 0 1 I I 0 1 0.5 forward I I I I #
face $-1 $192 $193 $66 $-1 $194 forward single #
loop $-1 $195 $196 $85 #
cone-surface $-1 -5.542111429055474 31.630619187787779 13.018842428862056 0 -0.74314483375859142 -0.66913059716165679 0.5 0 0 1 I I 0 1 0.5 forward I I I I #
face $-1 $197 $198 $67 $-1 $199 forward single #
loop $-1 $200 $201 $86 #
cone-surface $-1 -2.2168445716221896 31.630619187787779 13.018842428862056 0 -0.74314483375859142 -0.66913059716165679 0.5 0 0 1 I I 0 1 0.5 forward I I I I #
face $-1 $202 $203 $68 $-1 $204 reversed single #
loop $-1 $-1 $205 $87 #
plane-surface $-1 10.388411724949739 80.645002200710366 145.25914371699452 1 0 0 0 -0.74314483375859142 -0.66913059716165679 forward_v I I I I #
face $-1 $206 $207 $69 $-1 $208 forward single #
loop $-1 $209 $210 $88 #
cone-surface $-1 12.605256296571923 31.630619187787779 13.018842428862056 0 -0.74314483375859142 -0.66913059716165679 0.5 0 0 1 I I 0 1 0.5 forward I I I I #
face $-1 $211 $212 $70 $-1 $213 forward single #
loop $-1 $214 $215 $89 #
cone-surface $-1 15.930523154005215 31.630619187787779 13.018842428862056 0 -0.74314483375859142 -0.66913059716165679 0.5 0 0 1 I I 0 1 0.5 forward I I I I #
face $-1 $216 $217 $71 $-1 $218 forward single #
loop $-1 $219 $220 $90 #
cone-surface $-1 19.255790011438492 31.630619187787779 13.018842428862056 0 -0.74314483375859142 -0.66913059716165679 0.5 0 0 1 I I 0 1 0.5 forward I I I I #
face $-1 $221 $222 $72 $-1 $223 reversed single #
loop $-1 $-1 $224 $91 #
plane-surface $-1 31.861046308010422 80.645002200710366 145.25914371699452 1 0 0 0 -0.74314483375859142 -0.66913059716165679 forward_v I I I I #
face $-1 $225 $226 $73 $-1 $227 forward single #
loop $-1 $228 $229 $92 #
cone-surface $-1 34.077890879632605 31.630619187787779 13.018842428862056 0 -0.74314483375859142 -0.66913059716165679 0.5 0 0 1 I I 0 1 0.5 forward I I I I #
face $-1 $230 $231 $74 $-1 $232 forward single #
loop $-1 $233 $234 $93 #
cone-surface $-1 37.403157737065897 31.630619187787779 13.018842428862056 0 -0.74314483375859142 -0.66913059716165679 0.5 0 0 1 I I 0 1 0.5 forward I I I I #
face $-1 $235 $236 $75 $-1 $237 forward single #
loop $-1 $238 $239 $94 #
cone-surface $-1 40.728424594499174 31.630619187787779 13.018842428862056 0 -0.74314483375859142 -0.66913059716165679 0.5 0 0 1 I I 0 1 0.5 forward I I I I #
face $-1 $240 $241 $57 $-1 $242 reversed single #
loop $-1 $-1 $243 $95 #
plane-surface $-1 0 0 15.433618823240851 0 0 1 1 0 0 forward_v I I I I #
coedge $-1 $244 $245 $246 $247 reversed $96 $-1 #
face $-1 $248 $249 $58 $-1 $250 forward single #
loop $-1 $-1 $251 $98 #
plane-surface $-1 0 33.937762595034826 0 0 -1 0 0 0 -1 forward_v I I I I #
coedge $-1 $252 $253 $254 $255 forward $99 $-1 #
face $-1 $256 $257 $59 $-1 $258 forward single #
loop $-1 $-1 $259 $101 #
plane-surface $-1 0 -33.937762595034826 0 0 1 0 0 0 1 forward_v I I I I #
coedge $-1 $260 $261 $262 $263 forward $102 $-1 #
face $-1 $264 $265 $60 $-1 $266 reversed single #
loop $-1 $-1 $267 $104 #
plane-surface $-1 -27.014746012116156 -11.479828108057561 62.309575991214004 0 0.74314483375859142 0.66913059716165679 1 0 0 forward_v I I I I #
coedge $-1 $268 $269 $270 $271 reversed $105 $-1 #
face $-1 $-1 $272 $61 $-1 $273 forward single #
loop $-1 $274 $275 $107 #
cone-surface $-1 -30.340012869549444 30.742834741696797 12.219477743031968 0 -0.74314483375859142 -0.66913059716165679 0.25 0 0 1 I I -0.70710678118654746 0.70710678118654746 0.25 forward I I I I #
loop $-1 $-1 $276 $80 #
coedge $-1 $172 $172 $277 $278 reversed $108 $-1 #
face $-1 $-1 $279 $62 $-1 $280 forward single #
loop $-1 $281 $282 $110 #
cone-surface $-1 -27.014746012116156 30.742834741696797 12.219477743031968 0 -0.74314483375859142 -0.66913059716165679 0.25 0 0 1 I I -0.70710678118654746 0.70710678118654746 0.25 forward I I I I #
loop $-1 $-1 $283 $81 #
coedge $-1 $177 $177 $284 $285 reversed $111 $-1 #
face $-1 $-1 $286 $63 $-1 $287 forward single #
loop $-1 $288 $289 $113 #
cone-surface $-1 -23.689479154682871 30.742834741696797 12.219477743031968 0 -0.74314483375859142 -0.66913059716165679 0.25 0 0 1 I I -0.70710678118654746 0.70710678118654746 0.25 forward I I I I #
loop $-1 $-1 $290 $82 #
coedge $-1 $182 $182 $291 $292 reversed $114 $-1 #
face $-1 $293 $294 $64 $-1 $295 reversed single #
loop $-1 $-1 $296 $116 #
plane-surface $-1 -5.542111429055474 -11.479828108057561 62.309575991214004 0 0.74314483375859142 0.66913059716165679 1 0 0 forward_v I I I I #
coedge $-1 $297 $298 $299 $300 reversed $117 $-1 #
face $-1 $-1 $301 $65 $-1 $302 forward single #
loop $-1 $303 $304 $119 #
cone-surface $-1 -8.8673782864887585 30.742834741696797 12.219477743031968 0 -0.74314483375859142 -0.66913059716165679 0.25 0 0 1 I I -0.70710678118654746 0.70710678118654746 0.25 forward I I I I #
loop $-1 $-1 $305 $84 #
coedge $-1 $191 $191 $306 $307 reversed $120 $-1 #
face $-1 $-1 $308 $66 $-1 $309 forward single #
loop $-1 $310 $311 $122 #
cone-surface $-1 -5.542111429055474 30.742834741696797 12.219477743031968 0 -0.74314483375859142 -0.66913059716165679 0.25 0 0 1 I I -0.70710678118654746 0.70710678118654746 0.25 forward I I I I #
loop $-1 $-1 $312 $85 #
coedge $-1 $196 $196 $313 $314 reversed $123 $-1 #
face $-1 $-1 $315 $67 $-1 $316 forward single #
loop $-1 $317 $318 $125 #
cone-surface $-1 -2.2168445716221896 30.742834741696797 12.219477743031968 0 -0.74314483375859142 -0.66913059716165679 0.25 0 0 1 I I -0.70710678118654746 0.70710678118654746 0.25 forward I I I I #
loop $-1 $-1 $319 $86 #
coedge $-1 $201 $201 $320 $321 reversed $126 $-1 #
face $-1 $322 $323 $68 $-1 $324 reversed single #
loop $-1 $-1 $325 $128 #
plane-surface $-1 15.930523154005215 -11.479828108057561 62.309575991214004 0 0.74314483375859142 0.66913059716165679 1 0 0 forward_v I I I I #
coedge $-1 $326 $327 $328 $329 reversed $129 $-1 #
face $-1 $-1 $330 $69 $-1 $331 forward single #
loop $-1 $332 $333 $131 #
cone-surface $-1 12.605256296571923 30.742834741696797 12.219477743031968 0 -0.74314483375859142 -0.66913059716165679 0.25 0 0 1 I I -0.70710678118654746 0.70710678118654746 0.25 forward I I I I #
loop $-1 $-1 $334 $88 #
coedge $-1 $210 $210 $335 $336 reversed $132 $-1 #
face $-1 $-1 $337 $70 $-1 $338 forward single #
loop $-1 $339 $340 $134 #
cone-surface $-1 15.930523154005215 30.742834741696797 12.219477743031968 0 -0.74314483375859142 -0.66913059716165679 0.25 0 0 1 I I -0.70710678118654746 0.70710678118654746 0.25 forward I I I I #
loop $-1 $-1 $341 $89 #
coedge $-1 $215 $215 $342 $343 reversed $135 $-1 #
face $-1 $-1 $344 $71 $-1 $345 forward single #
loop $-1 $346 $347 $137 #
cone-surface $-1 19.255790011438492 30.742834741696797 12.219477743031968 0 -0.74314483375859142 -0.66913059716165679 0.25 0 0 1 I I -0.70710678118654746 0.70710678118654746 0.25 forward I I I I #
loop $-1 $-1 $348 $90 #
coedge $-1 $220 $220 $349 $350 reversed $138 $-1 #
face $-1 $351 $352 $72 $-1 $353 reversed single #
loop $-1 $-1 $354 $140 #
plane-surface $-1 37.403157737065897 -11.479828108057561 62.309575991214004 0 0.74314483375859142 0.66913059716165679 1 0 0 forward_v I I I I #
coedge $-1 $355 $356 $357 $358 reversed $141 $-1 #
face $-1 $-1 $359 $73 $-1 $360 forward single #
loop $-1 $361 $362 $143 #
cone-surface $-1 34.077890879632605 30.742834741696797 12.219477743031968 0 -0.74314483375859142 -0.66913059716165679 0.25 0 0 1 I I -0.70710678118654746 0.70710678118654746 0.25 forward I I I I #
loop $-1 $-1 $363 $92 #
coedge $-1 $229 $229 $364 $365 reversed $144 $-1 #
face $-1 $-1 $366 $74 $-1 $367 forward single #
loop $-1 $368 $369 $146 #
cone-surface $-1 37.403157737065897 30.742834741696797 12.219477743031968 0 -0.74314483375859142 -0.66913059716165679 0.25 0 0 1 I I -0.70710678118654746 0.70710678118654746 0.25 forward I I I I #
loop $-1 $-1 $370 $93 #
coedge $-1 $234 $234 $371 $372 reversed $147 $-1 #
face $-1 $-1 $373 $75 $-1 $374 forward single #
loop $-1 $375 $376 $149 #
cone-surface $-1 40.728424594499174 30.742834741696797 12.219477743031968 0 -0.74314483375859142 -0.66913059716165679 0.25 0 0 1 I I -0.70710678118654746 0.70710678118654746 0.25 forward I I I I #
loop $-1 $-1 $377 $94 #
coedge $-1 $239 $239 $378 $379 reversed $150 $-1 #
face $-1 $380 $381 $57 $-1 $382 reversed single #
loop $-1 $-1 $383 $152 #
plane-surface $-1 0 0 -15.433618823240851 0 0 1 1 0 0 forward_v I I I I #
coedge $-1 $384 $385 $244 $386 forward $153 $-1 #
coedge $-1 $387 $155 $243 $386 reversed $96 $-1 #
coedge $-1 $155 $387 $383 $388 reversed $96 $-1 #
coedge $-1 $389 $390 $155 $247 forward $391 $-1 #
edge $-1 $392 -15.433618823240851 $393 15.433618823240851 $155 $394 forward 7 unknown #
face $-1 $395 $396 $58 $-1 $397 reversed single #
loop $-1 $-1 $254 $156 #
plane-surface $-1 -71.502004535564765 0 -3.6184902750650991 0 0 1 1 0 0 forward_v I I I I #
coedge $-1 $398 $399 $253 $400 forward $157 $-1 #
coedge $-1 $401 $159 $402 $403 reversed $99 $-1 #
coedge $-1 $159 $401 $251 $400 reversed $99 $-1 #
coedge $-1 $404 $405 $159 $255 reversed $249 $-1 #
edge $-1 $406 -33.937762595034826 $407 33.937762595034826 $254 $408 forward 7 unknown #
face $-1 $409 $410 $59 $-1 $411 reversed single #
loop $-1 $-1 $412 $160 #
plane-surface $-1 71.502004535564765 0 -3.6184902750650991 0 0 1 1 0 0 forward_v I I I I #
coedge $-1 $413 $414 $261 $415 forward $161 $-1 #
coedge $-1 $416 $163 $417 $418 reversed $102 $-1 #
coedge $-1 $163 $416 $259 $415 reversed $102 $-1 #
coedge $-1 $419 $420 $163 $263 reversed $257 $-1 #
edge $-1 $421 -33.937762595034826 $422 33.937762595034826 $262 $423 forward 7 unknown #
face $-1 $424 $425 $60 $-1 $426 reversed single #
loop $-1 $-1 $427 $164 #
plane-surface $-1 -21.472634583060682 80.645002200710366 145.25914371699452 -1 0 0 0 0.74314483375859142 0.66913059716165679 forward_v I I I I #
coedge $-1 $428 $429 $430 $431 reversed $165 $-1 #
coedge $-1 $269 $167 $432 $433 reversed $105 $-1 #
coedge $-1 $167 $268 $428 $434 reversed $105 $-1 #
coedge $-1 $430 $435 $167 $271 forward $436 $-1 #
edge $-1 $437 6.3847385053203567 $438 9.5950288445117664 $270 $439 forward 7 unknown #
loop $-1 $-1 $277 $168 #
plane-surface $-1 -27.014746012116156 -11.479828108057561 62.309575991214004 0 0.74314483375859142 0.66913059716165679 1 0 0 forward_v I I I I #
loop $-1 $-1 $440 $107 #
coedge $-1 $275 $275 $276 $441 reversed $169 $-1 #
coedge $-1 $276 $276 $275 $441 forward $171 $-1 #
coedge $-1 $277 $277 $172 $278 forward $272 $-1 #
edge $-1 $442 -1.5883752530884473e-015 $442 6.2831853071795987 $277 $443 forward 7 unknown #
loop $-1 $-1 $284 $173 #
plane-surface $-1 -27.014746012116156 -11.479828108057561 62.309575991214004 0 0.74314483375859142 0.66913059716165679 1 0 0 forward_v I I I I #
loop $-1 $-1 $444 $110 #
coedge $-1 $282 $282 $283 $445 reversed $174 $-1 #
coedge $-1 $283 $283 $282 $445 forward $176 $-1 #
coedge $-1 $284 $284 $177 $285 forward $279 $-1 #
edge $-1 $446 -1.5883752530884473e-015 $446 6.2831853071795987 $284 $447 forward 7 unknown #
loop $-1 $-1 $291 $178 #
plane-surface $-1 -27.014746012116156 -11.479828108057561 62.309575991214004 0 0.74314483375859142 0.66913059716165679 1 0 0 forward_v I I I I #
loop $-1 $-1 $448 $113 #
coedge $-1 $289 $289 $290 $449 reversed $179 $-1 #
coedge $-1 $290 $290 $289 $449 forward $181 $-1 #
coedge $-1 $291 $291 $182 $292 forward $286 $-1 #
edge $-1 $450 -1.5883752530884473e-015 $450 6.2831853071795987 $291 $451 forward 7 unknown #
face $-1 $452 $453 $64 $-1 $454 forward single #
loop $-1 $-1 $455 $183 #
plane-surface $-1 1.7763568394002505e-015 80.645002200710366 145.25914371699452 -1 0 0 0 0.74314483375859142 0.66913059716165679 forward_v I I I I #
coedge $-1 $456 $457 $458 $459 reversed $184 $-1 #
coedge $-1 $298 $186 $460 $461 reversed $117 $-1 #
coedge $-1 $186 $297 $456 $462 reversed $117 $-1 #
coedge $-1 $458 $463 $186 $300 forward $453 $-1 #
edge $-1 $464 6.3847385053203567 $465 9.5950288445117664 $299 $466 forward 7 unknown #
loop $-1 $-1 $306 $187 #
plane-surface $-1 -5.542111429055474 -11.479828108057561 62.309575991214004 0 0.74314483375859142 0.66913059716165679 1 0 0 forward_v I I I I #
loop $-1 $-1 $467 $119 #
coedge $-1 $304 $304 $305 $468 reversed $188 $-1 #
coedge $-1 $305 $305 $304 $468 forward $190 $-1 #
coedge $-1 $306 $306 $191 $307 forward $301 $-1 #
edge $-1 $469 -1.5883752530884473e-015 $469 6.2831853071795987 $306 $470 forward 7 unknown #
loop $-1 $-1 $313 $192 #
plane-surface $-1 -5.542111429055474 -11.479828108057561 62.309575991214004 0 0.74314483375859142 0.66913059716165679 1 0 0 forward_v I I I I #
loop $-1 $-1 $471 $122 #
coedge $-1 $311 $311 $312 $472 reversed $193 $-1 #
coedge $-1 $312 $312 $311 $472 forward $195 $-1 #
coedge $-1 $313 $313 $196 $314 forward $308 $-1 #
edge $-1 $473 -1.5883752530884473e-015 $473 6.2831853071795987 $313 $474 forward 7 unknown #
loop $-1 $-1 $320 $197 #
plane-surface $-1 -5.542111429055474 -11.479828108057561 62.309575991214004 0 0.74314483375859142 0.66913059716165679 1 0 0 forward_v I I I I #
loop $-1 $-1 $475 $125 #
coedge $-1 $318 $318 $319 $476 reversed $198 $-1 #
coedge $-1 $319 $319 $318 $476 forward $200 $-1 #
coedge $-1 $320 $320 $201 $321 forward $315 $-1 #
edge $-1 $477 -1.5883752530884473e-015 $477 6.2831853071795987 $320 $478 forward 7 unknown #
face $-1 $479 $480 $68 $-1 $481 forward single #
loop $-1 $-1 $482 $202 #
plane-surface $-1 21.472634583060689 80.645002200710366 145.25914371699452 -1 0 0 0 0.74314483375859142 0.66913059716165679 forward_v I I I I #
coedge $-1 $483 $484 $485 $486 reversed $203 $-1 #
coedge $-1 $327 $205 $487 $488 reversed $129 $-1 #
coedge $-1 $205 $326 $483 $489 reversed $129 $-1 #
coedge $-1 $485 $490 $205 $329 forward $480 $-1 #
edge $-1 $491 6.3847385053203567 $492 9.5950288445117664 $328 $493 forward 7 unknown #
loop $-1 $-1 $335 $206 #
plane-surface $-1 15.930523154005215 -11.479828108057561 62.309575991214004 0 0.74314483375859142 0.66913059716165679 1 0 0 forward_v I I I I #
loop $-1 $-1 $494 $131 #
coedge $-1 $333 $333 $334 $495 reversed $207 $-1 #
coedge $-1 $334 $334 $333 $495 forward $209 $-1 #
coedge $-1 $335 $335 $210 $336 forward $330 $-1 #
edge $-1 $496 -1.5883752530884473e-015 $496 6.2831853071795987 $335 $497 forward 7 unknown #
loop $-1 $-1 $342 $211 #
plane-surface $-1 15.930523154005215 -11.479828108057561 62.309575991214004 0 0.74314483375859142 0.66913059716165679 1 0 0 forward_v I I I I #
loop $-1 $-1 $498 $134 #
coedge $-1 $340 $340 $341 $499 reversed $212 $-1 #
coedge $-1 $341 $341 $340 $499 forward $214 $-1 #
coedge $-1 $342 $342 $215 $343 forward $337 $-1 #
edge $-1 $500 -1.5883752530884473e-015 $500 6.2831853071795987 $342 $501 forward 7 unknown #
loop $-1 $-1 $349 $216 #
plane-surface $-1 15.930523154005215 -11.479828108057561 62.309575991214004 0 0.74314483375859142 0.66913059716165679 1 0 0 forward_v I I I I #
loop $-1 $-1 $502 $137 #
coedge $-1 $347 $347 $348 $503 reversed $217 $-1 #
coedge $-1 $348 $348 $347 $503 forward $219 $-1 #
coedge $-1 $349 $349 $220 $350 forward $344 $-1 #
edge $-1 $504 -1.5883752530884473e-015 $504 6.2831853071795987 $349 $505 forward 7 unknown #
face $-1 $506 $507 $72 $-1 $508 forward single #
loop $-1 $-1 $509 $221 #
plane-surface $-1 42.945269166121371 80.645002200710366 145.25914371699452 -1 0 0 0 0.74314483375859142 0.66913059716165679 forward_v I I I I #
coedge $-1 $510 $511 $512 $513 reversed $222 $-1 #
coedge $-1 $356 $224 $514 $515 reversed $141 $-1 #
coedge $-1 $224 $355 $510 $516 reversed $141 $-1 #
coedge $-1 $512 $517 $224 $358 forward $507 $-1 #
edge $-1 $518 6.3847385053203567 $519 9.5950288445117664 $357 $520 forward 7 unknown #
loop $-1 $-1 $364 $225 #
plane-surface $-1 37.403157737065897 -11.479828108057561 62.309575991214004 0 0.74314483375859142 0.66913059716165679 1 0 0 forward_v I I I I #
loop $-1 $-1 $521 $143 #
coedge $-1 $362 $362 $363 $522 reversed $226 $-1 #
coedge $-1 $363 $363 $362 $522 forward $228 $-1 #
coedge $-1 $364 $364 $229 $365 forward $359 $-1 #
edge $-1 $523 -1.5883752530884473e-015 $523 6.2831853071795987 $364 $524 forward 7 unknown #
loop $-1 $-1 $371 $230 #
plane-surface $-1 37.403157737065897 -11.479828108057561 62.309575991214004 0 0.74314483375859142 0.66913059716165679 1 0 0 forward_v I I I I #
loop $-1 $-1 $525 $146 #
coedge $-1 $369 $369 $370 $526 reversed $231 $-1 #
coedge $-1 $370 $370 $369 $526 forward $233 $-1 #
coedge $-1 $371 $371 $234 $372 forward $366 $-1 #
edge $-1 $527 -1.5883752530884473e-015 $527 6.2831853071795987 $371 $528 forward 7 unknown #
loop $-1 $-1 $378 $235 #
plane-surface $-1 37.403157737065897 -11.479828108057561 62.309575991214004 0 0.74314483375859142 0.66913059716165679 1 0 0 forward_v I I I I #
loop $-1 $-1 $529 $149 #
coedge $-1 $376 $376 $377 $530 reversed $236 $-1 #
coedge $-1 $377 $377 $376 $530 forward $238 $-1 #
coedge $-1 $378 $378 $239 $379 forward $373 $-1 #
edge $-1 $531 -1.5883752530884473e-015 $531 6.2831853071795987 $378 $532 forward 7 unknown #
face $-1 $533 $534 $57 $-1 $535 reversed single #
loop $-1 $-1 $536 $240 #
plane-surface $-1 0 -33.937762595034826 0 0 1 0 0 0 1 forward_v I I I I #
coedge $-1 $537 $538 $245 $388 forward $241 $-1 #
coedge $-1 $539 $243 $390 $540 forward $153 $-1 #
coedge $-1 $243 $539 $541 $542 forward $153 $-1 #
edge $-1 $543 -33.937762595034826 $392 33.937762595034826 $244 $544 forward 7 unknown #
coedge $-1 $245 $244 $545 $546 forward $96 $-1 #
edge $-1 $393 -33.937762595034826 $547 33.937762595034826 $245 $548 forward 7 unknown #
coedge $-1 $549 $246 $538 $550 reversed $391 $-1 #
coedge $-1 $246 $549 $384 $540 reversed $391 $-1 #
loop $-1 $-1 $246 $533 #
vertex $-1 $386 $551 #
vertex $-1 $388 $552 #
straight-curve $-1 61.983092745750298 33.937762595034826 0 0 0 -1 I I #
face $-1 $553 $554 $58 $-1 $555 reversed single #
loop $-1 $-1 $556 $248 #
plane-surface $-1 -71.502004535564765 0 -12.170072556964456 0 0 1 1 0 0 forward_v I I I I #
coedge $-1 $557 $251 $558 $559 reversed $157 $-1 #
coedge $-1 $251 $557 $404 $560 reversed $157 $-1 #
edge $-1 $406 3.6184902750650991 $561 12.170072556964456 $251 $562 forward 7 unknown #
coedge $-1 $253 $252 $556 $563 forward $99 $-1 #
coedge $-1 $564 $565 $252 $403 forward $566 $-1 #
edge $-1 $567 -12.170072556964456 $407 -3.6184902750650991 $402 $568 forward 7 unknown #
coedge $-1 $569 $254 $399 $560 forward $249 $-1 #
coedge $-1 $254 $569 $564 $570 forward $249 $-1 #
vertex $-1 $400 $571 #
vertex $-1 $570 $572 #
straight-curve $-1 -61.983092745750298 0 -3.6184902750650991 0 -1 0 I I #
face $-1 $573 $574 $59 $-1 $575 reversed single #
loop $-1 $-1 $576 $256 #
plane-surface $-1 71.502004535564765 0 -12.170072556964456 0 0 1 1 0 0 forward_v I I I I #
coedge $-1 $420 $419 $577 $578 forward $257 $-1 #
coedge $-1 $579 $259 $580 $581 reversed $161 $-1 #
coedge $-1 $259 $579 $419 $582 reversed $161 $-1 #
edge $-1 $421 3.6184902750650991 $583 12.170072556964456 $259 $584 forward 7 unknown #
coedge $-1 $261 $260 $585 $586 forward $102 $-1 #
coedge $-1 $587 $588 $260 $418 forward $589 $-1 #
edge $-1 $590 -12.170072556964456 $422 -3.6184902750650991 $417 $591 forward 7 unknown #
coedge $-1 $412 $262 $414 $582 forward $257 $-1 #
coedge $-1 $262 $412 $587 $592 forward $257 $-1 #
vertex $-1 $415 $593 #
vertex $-1 $592 $594 #
straight-curve $-1 61.983092745750298 0 -3.6184902750650991 0 1 0 I I #
face $-1 $-1 $436 $60 $-1 $595 forward single #
loop $-1 $-1 $596 $264 #
plane-surface $-1 0 33.937762595034826 0 0 -1 0 0 0 -1 forward_v I I I I #
coedge $-1 $597 $598 $599 $600 reversed $265 $-1 #
coedge $-1 $601 $267 $269 $434 forward $165 $-1 #
coedge $-1 $267 $601 $597 $602 forward $165 $-1 #
coedge $-1 $599 $270 $267 $431 forward $436 $-1 #
edge $-1 $438 -19.049484435113552 $603 -7.9652615770026038 $430 $604 forward 7 unknown #
coedge $-1 $605 $606 $268 $433 forward $425 $-1 #
edge $-1 $607 -60.761341750934648 $437 -57.195953035256409 $432 $608 forward 7 unknown #
edge $-1 $438 63.077821493946729 $607 67.875525190069652 $269 $609 forward 7 unknown #
coedge $-1 $270 $599 $605 $610 forward $436 $-1 #
loop $-1 $-1 $599 $424 #
vertex $-1 $433 $611 #
vertex $-1 $271 $612 #
straight-curve $-1 -32.55685744117163 40.322501100355183 15.433618823240849 0 -1 0 I I #
coedge $-1 $440 $440 $-1 $613 reversed $274 $-1 #
edge $-1 $614 0 $614 6.2831853071796004 $275 $615 forward 7 unknown #
vertex $-1 $278 $616 #
ellipse-curve $-1 -30.340012869549444 32.332617425439118 13.650924465401735 0 0.74314483375859142 0.66913059716165679 0.5 0 0 1 I I #
coedge $-1 $444 $444 $-1 $617 reversed $281 $-1 #
edge $-1 $618 0 $618 6.2831853071796004 $282 $619 forward 7 unknown #
vertex $-1 $285 $620 #
ellipse-curve $-1 -27.014746012116156 32.332617425439118 13.650924465401735 0 0.74314483375859142 0.66913059716165679 0.5 0 0 1 I I #
coedge $-1 $448 $448 $-1 $621 reversed $288 $-1 #
edge $-1 $622 0 $622 6.2831853071796004 $289 $623 forward 7 unknown #
vertex $-1 $292 $624 #
ellipse-curve $-1 -23.689479154682871 32.332617425439118 13.650924465401735 0 0.74314483375859142 0.66913059716165679 0.5 0 0 1 I I #
face $-1 $-1 $625 $64 $-1 $626 reversed single #
loop $-1 $-1 $299 $293 #
plane-surface $-1 0 0 15.433618823240851 0 0 1 1 0 0 forward_v I I I I #
coedge $-1 $627 $628 $629 $630 reversed $294 $-1 #
coedge $-1 $631 $296 $298 $462 forward $184 $-1 #
coedge $-1 $296 $631 $627 $632 forward $184 $-1 #
coedge $-1 $629 $299 $296 $459 forward $453 $-1 #
edge $-1 $465 -8.3131671435832128 $633 2.7710557145277388 $458 $634 forward 7 unknown #
coedge $-1 $635 $636 $297 $461 forward $625 $-1 #
edge $-1 $637 -60.761341750934648 $464 -57.195953035256409 $460 $638 forward 7 unknown #
edge $-1 $465 63.077821493946729 $637 67.875525190069652 $298 $639 forward 7 unknown #
coedge $-1 $299 $629 $635 $640 forward $453 $-1 #
vertex $-1 $300 $641 #
vertex $-1 $300 $642 #
straight-curve $-1 -11.08422285811095 40.322501100355183 15.433618823240849 0 -1 0 I I #
coedge $-1 $467 $467 $-1 $643 reversed $303 $-1 #
edge $-1 $644 0 $644 6.2831853071796004 $304 $645 forward 7 unknown #
vertex $-1 $307 $646 #
ellipse-curve $-1 -8.8673782864887585 32.332617425439118 13.650924465401735 0 0.74314483375859142 0.66913059716165679 0.5 0 0 1 I I #
coedge $-1 $471 $471 $-1 $647 reversed $310 $-1 #
edge $-1 $648 0 $648 6.2831853071796004 $311 $649 forward 7 unknown #
vertex $-1 $314 $650 #
ellipse-curve $-1 -5.542111429055474 32.332617425439118 13.650924465401735 0 0.74314483375859142 0.66913059716165679 0.5 0 0 1 I I #
coedge $-1 $475 $475 $-1 $651 reversed $317 $-1 #
edge $-1 $652 0 $652 6.2831853071796004 $318 $653 forward 7 unknown #
vertex $-1 $321 $654 #
ellipse-curve $-1 -2.2168445716221896 32.332617425439118 13.650924465401735 0 0.74314483375859142 0.66913059716165679 0.5 0 0 1 I I #
face $-1 $-1 $655 $68 $-1 $656 reversed single #
loop $-1 $-1 $328 $322 #
plane-surface $-1 0 0 15.433618823240851 0 0 1 1 0 0 forward_v I I I I #
coedge $-1 $657 $658 $659 $660 reversed $323 $-1 #
coedge $-1 $661 $325 $327 $489 forward $203 $-1 #
coedge $-1 $325 $661 $657 $662 forward $203 $-1 #
coedge $-1 $659 $328 $325 $486 forward $480 $-1 #
edge $-1 $492 2.4231501479471316 $663 13.507373006058081 $485 $664 forward 7 unknown #
coedge $-1 $665 $666 $326 $488 forward $655 $-1 #
edge $-1 $667 -60.761341750934648 $491 -57.195953035256409 $487 $668 forward 7 unknown #
edge $-1 $492 63.077821493946729 $667 67.875525190069652 $327 $669 forward 7 unknown #
coedge $-1 $328 $659 $665 $670 forward $480 $-1 #
vertex $-1 $329 $671 #
vertex $-1 $329 $672 #
straight-curve $-1 10.388411724949739 40.322501100355183 15.433618823240849 0 -1 0 I I #
coedge $-1 $494 $494 $-1 $673 reversed $332 $-1 #
edge $-1 $674 0 $674 6.2831853071796004 $333 $675 forward 7 unknown #
vertex $-1 $336 $676 #
ellipse-curve $-1 12.605256296571923 32.332617425439118 13.650924465401735 0 0.74314483375859142 0.66913059716165679 0.5 0 0 1 I I #
coedge $-1 $498 $498 $-1 $677 reversed $339 $-1 #
edge $-1 $678 0 $678 6.2831853071796004 $340 $679 forward 7 unknown #
vertex $-1 $343 $680 #
ellipse-curve $-1 15.930523154005215 32.332617425439118 13.650924465401735 0 0.74314483375859142 0.66913059716165679 0.5 0 0 1 I I #
coedge $-1 $502 $502 $-1 $681 reversed $346 $-1 #
edge $-1 $682 0 $682 6.2831853071796004 $347 $683 forward 7 unknown #
vertex $-1 $350 $684 #
ellipse-curve $-1 19.255790011438492 32.332617425439118 13.650924465401735 0 0.74314483375859142 0.66913059716165679 0.5 0 0 1 I I #
face $-1 $-1 $685 $72 $-1 $686 reversed single #
loop $-1 $-1 $357 $351 #
plane-surface $-1 0 0 15.433618823240851 0 0 1 1 0 0 forward_v I I I I #
coedge $-1 $687 $688 $689 $690 reversed $352 $-1 #
coedge $-1 $691 $354 $356 $516 forward $222 $-1 #
coedge $-1 $354 $691 $687 $692 forward $222 $-1 #
coedge $-1 $689 $357 $354 $513 forward $507 $-1 #
edge $-1 $519 13.159467439477474 $693 24.243690297588422 $512 $694 forward 7 unknown #
coedge $-1 $695 $696 $355 $515 forward $685 $-1 #
edge $-1 $697 -60.761341750934648 $518 -57.195953035256409 $514 $698 forward 7 unknown #
edge $-1 $519 63.077821493946729 $697 67.875525190069652 $356 $699 forward 7 unknown #
coedge $-1 $357 $689 $695 $700 forward $507 $-1 #
vertex $-1 $358 $701 #
vertex $-1 $358 $702 #
straight-curve $-1 31.861046308010422 40.322501100355183 15.433618823240849 0 -1 0 I I #
coedge $-1 $521 $521 $-1 $703 reversed $361 $-1 #
edge $-1 $704 0 $704 6.2831853071796004 $362 $705 forward 7 unknown #
vertex $-1 $365 $706 #
ellipse-curve $-1 34.077890879632605 32.332617425439118 13.650924465401735 0 0.74314483375859142 0.66913059716165679 0.5 0 0 1 I I #
coedge $-1 $525 $525 $-1 $707 reversed $368 $-1 #
edge $-1 $708 0 $708 6.2831853071796004 $369 $709 forward 7 unknown #
vertex $-1 $372 $710 #
ellipse-curve $-1 37.403157737065897 32.332617425439118 13.650924465401735 0 0.74314483375859142 0.66913059716165679 0.5 0 0 1 I I #
coedge $-1 $529 $529 $-1 $711 reversed $375 $-1 #
edge $-1 $712 0 $712 6.2831853071796004 $376 $713 forward 7 unknown #
vertex $-1 $379 $714 #
ellipse-curve $-1 40.728424594499174 32.332617425439118 13.650924465401735 0 0.74314483375859142 0.66913059716165679 0.5 0 0 1 I I #
face $-1 $-1 $391 $57 $-1 $715 reversed single #
loop $-1 $-1 $716 $380 #
plane-surface $-1 -61.983092745750298 0 0 1 0 0 0 0 -1 forward_v I I I I #
coedge $-1 $717 $541 $716 $718 forward $381 $-1 #
coedge $-1 $719 $383 $717 $720 forward $241 $-1 #
coedge $-1 $383 $719 $389 $550 forward $241 $-1 #
coedge $-1 $385 $384 $721 $722 forward $153 $-1 #
edge $-1 $392 -61.983092745750298 $723 61.983092745750298 $390 $724 forward 7 unknown #
coedge $-1 $536 $545 $385 $542 reversed $381 $-1 #
edge $-1 $725 -61.983092745750298 $543 61.983092745750298 $541 $726 forward 7 unknown #
vertex $-1 $386 $727 #
straight-curve $-1 61.983092745750298 0 15.433618823240851 0 1 0 I I #
coedge $-1 $541 $717 $387 $546 reversed $381 $-1 #
edge $-1 $543 -15.433618823240851 $547 15.433618823240851 $387 $728 forward 7 unknown #
vertex $-1 $546 $729 #
straight-curve $-1 61.983092745750298 0 -15.433618823240851 0 -1 0 I I #
coedge $-1 $390 $389 $730 $731 reversed $391 $-1 #
edge $-1 $732 -61.983092745750298 $393 61.983092745750298 $389 $733 forward 7 unknown #
point $-1 61.983092745750298 33.937762595034826 15.433618823240851 #
point $-1 61.983092745750298 33.937762595034826 -15.433618823240851 #
face $-1 $-1 $566 $58 $-1 $734 reversed single #
loop $-1 $-1 $735 $395 #
plane-surface $-1 -81.020916325379233 0 -7.8942814160147776 1 0 0 0 0 -1 forward_v I I I I #
coedge $-1 $736 $558 $401 $563 reversed $396 $-1 #
coedge $-1 $399 $398 $735 $737 reversed $157 $-1 #
coedge $-1 $556 $738 $398 $559 forward $396 $-1 #
edge $-1 $739 -9.5189117898144673 $561 9.5189117898144673 $398 $740 forward 7 unknown #
edge $-1 $406 -9.5189117898144673 $741 9.5189117898144673 $399 $742 forward 7 unknown #
vertex $-1 $400 $743 #
straight-curve $-1 -61.983092745750298 33.937762595034826 0 0 0 -1 I I #
edge $-1 $567 -33.937762595034826 $561 33.937762595034826 $556 $744 forward 7 unknown #
coedge $-1 $745 $402 $405 $570 reversed $566 $-1 #
coedge $-1 $402 $745 $736 $746 reversed $566 $-1 #
loop $-1 $-1 $402 $553 #
vertex $-1 $403 $747 #
straight-curve $-1 -61.983092745750298 -33.937762595034826 0 0 0 1 I I #
coedge $-1 $405 $404 $748 $749 forward $249 $-1 #
edge $-1 $750 -9.5189117898144673 $407 9.5189117898144673 $564 $751 forward 7 unknown #
point $-1 -61.983092745750298 33.937762595034826 -3.6184902750650991 #
point $-1 -61.983092745750298 -33.937762595034826 -3.6184902750650991 #
face $-1 $-1 $589 $59 $-1 $752 reversed single #
loop $-1 $-1 $753 $409 #
plane-surface $-1 81.020916325379233 0 -7.8942814160147776 -1 0 0 0 0 1 forward_v I I I I #
coedge $-1 $580 $754 $755 $756 forward $410 $-1 #
coedge $-1 $753 $757 $412 $578 reversed $574 $-1 #
edge $-1 $758 -33.937762595034826 $759 33.937762595034826 $577 $760 forward 7 unknown #
coedge $-1 $414 $413 $753 $761 reversed $161 $-1 #
coedge $-1 $585 $576 $413 $581 forward $410 $-1 #
edge $-1 $762 -9.5189117898144673 $583 9.5189117898144673 $413 $763 forward 7 unknown #
edge $-1 $421 -9.5189117898144673 $758 9.5189117898144673 $414 $764 forward 7 unknown #
vertex $-1 $415 $765 #
straight-curve $-1 61.983092745750298 -33.937762595034826 0 0 0 -1 I I #
coedge $-1 $754 $580 $416 $586 reversed $410 $-1 #
edge $-1 $590 -33.937762595034826 $583 33.937762595034826 $585 $766 forward 7 unknown #
coedge $-1 $767 $417 $420 $592 reversed $589 $-1 #
coedge $-1 $417 $767 $754 $768 reversed $589 $-1 #
loop $-1 $-1 $417 $573 #
vertex $-1 $418 $769 #
straight-curve $-1 61.983092745750298 33.937762595034826 0 0 0 1 I I #
edge $-1 $759 -9.5189117898144673 $422 9.5189117898144673 $587 $770 forward 7 unknown #
point $-1 61.983092745750298 -33.937762595034826 -3.6184902750650991 #
point $-1 61.983092745750298 33.937762595034826 -3.6184902750650991 #
plane-surface $-1 0 0 15.433618823240851 0 0 1 1 0 0 forward_v I I I I #
coedge $-1 $606 $605 $598 $771 forward $425 $-1 #
coedge $-1 $598 $427 $429 $602 reversed $265 $-1 #
coedge $-1 $427 $597 $596 $771 reversed $265 $-1 #
coedge $-1 $435 $430 $427 $600 forward $436 $-1 #
edge $-1 $603 -9.5950288445117664 $772 -6.3847385053203567 $599 $773 forward 7 unknown #
coedge $-1 $429 $428 $606 $774 reversed $165 $-1 #
edge $-1 $775 -67.875525190069652 $603 -63.077821493946729 $597 $776 forward 7 unknown #
vertex $-1 $431 $777 #
straight-curve $-1 -13.507373006058078 30.727472255843409 15.433618823240849 1 0 0 I I #
coedge $-1 $596 $432 $435 $610 reversed $425 $-1 #
coedge $-1 $432 $596 $601 $774 forward $425 $-1 #
vertex $-1 $433 $778 #
straight-curve $-1 -32.55685744117163 33.937762595034826 72.629571858497258 0 0 1 I I #
straight-curve $-1 -32.55685744117163 -11.479828108057561 62.309575991214004 0 0.66913059716165679 -0.74314483375859142 I I #
edge $-1 $772 21.472634583060682 $437 32.55685744117163 $605 $779 forward 7 unknown #
point $-1 -32.55685744117163 33.937762595034826 15.433618823240851 #
point $-1 -32.55685744117163 30.727472255843416 15.433618823240849 #
edge $-1 $780 1 $780 0 $440 $-1 forward 7 unknown #
vertex $-1 $441 $781 #
ellipse-curve $-1 -30.340012869549444 30.928620950136445 12.386760392322381 0 0.74314483375859142 0.66913059716165679 0.5 0 0 1 I I #
point $-1 -29.840012869549444 32.332617425439111 13.650924465401729 #
edge $-1 $782 1 $782 0 $444 $-1 forward 7 unknown #
vertex $-1 $445 $783 #
ellipse-curve $-1 -27.014746012116156 30.928620950136445 12.386760392322381 0 0.74314483375859142 0.66913059716165679 0.5 0 0 1 I I #
point $-1 -26.514746012116156 32.332617425439111 13.650924465401729 #
edge $-1 $784 1 $784 0 $448 $-1 forward 7 unknown #
vertex $-1 $449 $785 #
ellipse-curve $-1 -23.689479154682871 30.928620950136445 12.386760392322381 0 0.74314483375859142 0.66913059716165679 0.5 0 0 1 I I #
point $-1 -23.189479154682871 32.332617425439111 13.650924465401729 #
loop $-1 $-1 $460 $452 #
plane-surface $-1 0 33.937762595034826 0 0 -1 0 0 0 -1 forward_v I I I I #
coedge $-1 $628 $455 $457 $632 reversed $294 $-1 #
coedge $-1 $455 $627 $786 $787 reversed $294 $-1 #
coedge $-1 $463 $458 $455 $630 forward $453 $-1 #
edge $-1 $633 -9.5950288445117664 $788 -6.3847385053203567 $629 $789 forward 7 unknown #
coedge $-1 $457 $456 $636 $790 reversed $184 $-1 #
edge $-1 $791 -67.875525190069652 $633 -63.077821493946729 $627 $792 forward 7 unknown #
vertex $-1 $459 $793 #
straight-curve $-1 -2.771055714527737 30.727472255843409 15.433618823240849 1 0 0 I I #
coedge $-1 $786 $460 $463 $640 reversed $625 $-1 #
coedge $-1 $460 $786 $631 $790 forward $625 $-1 #
vertex $-1 $461 $794 #
straight-curve $-1 -11.08422285811095 33.937762595034826 72.629571858497258 0 0 1 I I #
straight-curve $-1 -11.08422285811095 -11.479828108057561 62.309575991214004 0 0.66913059716165679 -0.74314483375859142 I I #
edge $-1 $788 -1.7763568394002505e-015 $464 11.08422285811095 $635 $795 forward 7 unknown #
point $-1 -11.08422285811095 33.937762595034826 15.433618823240851 #
point $-1 -11.08422285811095 30.727472255843416 15.433618823240849 #
edge $-1 $796 1 $796 0 $467 $-1 forward 7 unknown #
vertex $-1 $468 $797 #
ellipse-curve $-1 -8.8673782864887585 30.928620950136445 12.386760392322381 0 0.74314483375859142 0.66913059716165679 0.5 0 0 1 I I #
point $-1 -8.3673782864887585 32.332617425439111 13.650924465401729 #
edge $-1 $798 1 $798 0 $471 $-1 forward 7 unknown #
vertex $-1 $472 $799 #
ellipse-curve $-1 -5.542111429055474 30.928620950136445 12.386760392322381 0 0.74314483375859142 0.66913059716165679 0.5 0 0 1 I I #
point $-1 -5.042111429055474 32.332617425439111 13.650924465401729 #
edge $-1 $800 1 $800 0 $475 $-1 forward 7 unknown #
vertex $-1 $476 $801 #
ellipse-curve $-1 -2.2168445716221896 30.928620950136445 12.386760392322381 0 0.74314483375859142 0.66913059716165679 0.5 0 0 1 I I #
point $-1 -1.7168445716221896 32.332617425439111 13.650924465401729 #
loop $-1 $-1 $487 $479 #
plane-surface $-1 0 33.937762595034826 0 0 -1 0 0 0 -1 forward_v I I I I #
coedge $-1 $658 $482 $484 $662 reversed $323 $-1 #
coedge $-1 $482 $657 $802 $803 reversed $323 $-1 #
coedge $-1 $490 $485 $482 $660 forward $480 $-1 #
edge $-1 $663 -9.5950288445117664 $804 -6.3847385053203567 $659 $805 forward 7 unknown #
coedge $-1 $484 $483 $666 $806 reversed $203 $-1 #
edge $-1 $807 -67.875525190069652 $663 -63.077821493946729 $657 $808 forward 7 unknown #
vertex $-1 $486 $809 #
straight-curve $-1 7.9652615770026074 30.727472255843409 15.433618823240849 1 0 0 I I #
coedge $-1 $802 $487 $490 $670 reversed $655 $-1 #
coedge $-1 $487 $802 $661 $806 forward $655 $-1 #
vertex $-1 $488 $810 #
straight-curve $-1 10.388411724949739 33.937762595034826 72.629571858497258 0 0 1 I I #
straight-curve $-1 10.388411724949739 -11.479828108057561 62.309575991214004 0 0.66913059716165679 -0.74314483375859142 I I #
edge $-1 $804 -21.472634583060689 $491 -10.388411724949739 $665 $811 forward 7 unknown #
point $-1 10.388411724949739 33.937762595034826 15.433618823240851 #
point $-1 10.388411724949739 30.727472255843416 15.433618823240849 #
edge $-1 $812 1 $812 0 $494 $-1 forward 7 unknown #
vertex $-1 $495 $813 #
ellipse-curve $-1 12.605256296571923 30.928620950136445 12.386760392322381 0 0.74314483375859142 0.66913059716165679 0.5 0 0 1 I I #
point $-1 13.105256296571923 32.332617425439111 13.650924465401729 #
edge $-1 $814 1 $814 0 $498 $-1 forward 7 unknown #
vertex $-1 $499 $815 #
ellipse-curve $-1 15.930523154005215 30.928620950136445 12.386760392322381 0 0.74314483375859142 0.66913059716165679 0.5 0 0 1 I I #
point $-1 16.430523154005215 32.332617425439111 13.650924465401729 #
edge $-1 $816 1 $816 0 $502 $-1 forward 7 unknown #
vertex $-1 $503 $817 #
ellipse-curve $-1 19.255790011438492 30.928620950136445 12.386760392322381 0 0.74314483375859142 0.66913059716165679 0.5 0 0 1 I I #
point $-1 19.755790011438492 32.332617425439111 13.650924465401729 #
loop $-1 $-1 $514 $506 #
plane-surface $-1 0 33.937762595034826 0 0 -1 0 0 0 -1 forward_v I I I I #
coedge $-1 $688 $509 $511 $692 reversed $352 $-1 #
coedge $-1 $509 $687 $818 $819 reversed $352 $-1 #
coedge $-1 $517 $512 $509 $690 forward $507 $-1 #
edge $-1 $693 -9.5950288445117664 $820 -6.3847385053203567 $689 $821 forward 7 unknown #
coedge $-1 $511 $510 $696 $822 reversed $222 $-1 #
edge $-1 $823 -67.875525190069652 $693 -63.077821493946729 $687 $824 forward 7 unknown #
vertex $-1 $513 $825 #
straight-curve $-1 18.701578868532948 30.727472255843409 15.433618823240849 1 0 0 I I #
coedge $-1 $818 $514 $517 $700 reversed $685 $-1 #
coedge $-1 $514 $818 $691 $822 forward $685 $-1 #
vertex $-1 $515 $826 #
straight-curve $-1 31.861046308010422 33.937762595034826 72.629571858497258 0 0 1 I I #
straight-curve $-1 31.861046308010422 -11.479828108057561 62.309575991214004 0 0.66913059716165679 -0.74314483375859142 I I #
edge $-1 $820 -42.945269166121371 $518 -31.861046308010422 $695 $827 forward 7 unknown #
point $-1 31.861046308010422 33.937762595034826 15.433618823240851 #
point $-1 31.861046308010422 30.727472255843416 15.433618823240849 #
edge $-1 $828 1 $828 0 $521 $-1 forward 7 unknown #
vertex $-1 $522 $829 #
ellipse-curve $-1 34.077890879632605 30.928620950136445 12.386760392322381 0 0.74314483375859142 0.66913059716165679 0.5 0 0 1 I I #
point $-1 34.577890879632605 32.332617425439111 13.650924465401729 #
edge $-1 $830 1 $830 0 $525 $-1 forward 7 unknown #
vertex $-1 $526 $831 #
ellipse-curve $-1 37.403157737065897 30.928620950136445 12.386760392322381 0 0.74314483375859142 0.66913059716165679 0.5 0 0 1 I I #
point $-1 37.903157737065897 32.332617425439111 13.650924465401729 #
edge $-1 $832 1 $832 0 $529 $-1 forward 7 unknown #
vertex $-1 $530 $833 #
ellipse-curve $-1 40.728424594499174 30.928620950136445 12.386760392322381 0 0.74314483375859142 0.66913059716165679 0.5 0 0 1 I I #
point $-1 41.228424594499174 32.332617425439111 13.650924465401729 #
plane-surface $-1 0 33.937762595034826 0 0 -1 0 0 0 -1 forward_v I I I I #
coedge $-1 $721 $834 $536 $718 reversed $534 $-1 #
coedge $-1 $545 $536 $537 $720 reversed $381 $-1 #
edge $-1 $725 -15.433618823240851 $835 15.433618823240851 $716 $836 forward 7 unknown #
coedge $-1 $538 $537 $834 $837 forward $241 $-1 #
edge $-1 $547 -61.983092745750298 $835 61.983092745750298 $717 $838 forward 7 unknown #
coedge $-1 $730 $716 $539 $722 reversed $534 $-1 #
edge $-1 $723 -33.937762595034826 $725 33.937762595034826 $721 $839 forward 7 unknown #
vertex $-1 $540 $840 #
straight-curve $-1 0 33.937762595034826 15.433618823240851 -1 0 0 I I #
vertex $-1 $722 $841 #
straight-curve $-1 0 -33.937762595034826 15.433618823240851 1 0 0 I I #
point $-1 61.983092745750298 -33.937762595034826 15.433618823240851 #
straight-curve $-1 61.983092745750298 -33.937762595034826 0 0 0 -1 I I #
point $-1 61.983092745750298 -33.937762595034826 -15.433618823240851 #
coedge $-1 $834 $721 $549 $731 forward $534 $-1 #
edge $-1 $723 -15.433618823240851 $732 15.433618823240851 $549 $842 forward 7 unknown #
vertex $-1 $550 $843 #
straight-curve $-1 0 33.937762595034826 -15.433618823240851 1 0 0 I I #
plane-surface $-1 0 -33.937762595034826 0 0 1 0 0 0 1 forward_v I I I I #
coedge $-1 $844 $748 $557 $737 forward $554 $-1 #
coedge $-1 $738 $556 $565 $746 forward $396 $-1 #
edge $-1 $741 -4.2757911409496785 $739 4.2757911409496785 $557 $845 forward 7 unknown #
coedge $-1 $558 $736 $844 $846 forward $396 $-1 #
vertex $-1 $559 $847 #
straight-curve $-1 -71.502004535564765 33.937762595034826 -12.170072556964456 1 0 0 I I #
vertex $-1 $560 $848 #
straight-curve $-1 -71.502004535564765 33.937762595034826 -3.6184902750650991 -1 0 0 I I #
point $-1 -61.983092745750298 33.937762595034826 -12.170072556964456 #
straight-curve $-1 -61.983092745750298 0 -12.170072556964456 0 1 0 I I #
coedge $-1 $565 $564 $849 $850 forward $566 $-1 #
edge $-1 $567 -9.5189117898144673 $851 9.5189117898144673 $565 $852 forward 7 unknown #
point $-1 -61.983092745750298 -33.937762595034826 -12.170072556964456 #
coedge $-1 $735 $849 $569 $749 reversed $554 $-1 #
edge $-1 $741 -33.937762595034826 $750 33.937762595034826 $748 $853 forward 7 unknown #
vertex $-1 $749 $854 #
straight-curve $-1 -71.502004535564765 -33.937762595034826 -3.6184902750650991 1 0 0 I I #
plane-surface $-1 0 33.937762595034826 0 0 -1 0 0 0 -1 forward_v I I I I #
coedge $-1 $755 $577 $579 $761 forward $574 $-1 #
coedge $-1 $576 $585 $588 $768 forward $410 $-1 #
coedge $-1 $757 $753 $576 $756 reversed $574 $-1 #
edge $-1 $855 -33.937762595034826 $762 33.937762595034826 $755 $856 forward 7 unknown #
coedge $-1 $577 $755 $767 $857 reversed $574 $-1 #
vertex $-1 $578 $858 #
vertex $-1 $578 $859 #
straight-curve $-1 81.020916325379233 0 -3.6184902750650991 0 1 0 I I #
edge $-1 $758 -4.2757911409496785 $762 4.2757911409496785 $753 $860 forward 7 unknown #
vertex $-1 $761 $861 #
straight-curve $-1 71.502004535564765 -33.937762595034826 -12.170072556964456 -1 0 0 I I #
straight-curve $-1 71.502004535564765 -33.937762595034826 -3.6184902750650991 1 0 0 I I #
point $-1 61.983092745750298 -33.937762595034826 -12.170072556964456 #
straight-curve $-1 61.983092745750298 0 -12.170072556964456 0 -1 0 I I #
coedge $-1 $588 $587 $757 $857 forward $589 $-1 #
edge $-1 $590 -9.5189117898144673 $855 9.5189117898144673 $588 $862 forward 7 unknown #
point $-1 61.983092745750298 33.937762595034826 -12.170072556964456 #
straight-curve $-1 71.502004535564765 33.937762595034826 -3.6184902750650991 -1 0 0 I I #
edge $-1 $772 57.195953035256409 $775 60.761341750934648 $596 $863 forward 7 unknown #
vertex $-1 $610 $864 #
straight-curve $-1 -21.472634583060682 40.322501100355183 15.433618823240849 0 1 0 I I #
edge $-1 $775 7.9652615770026038 $607 19.049484435113552 $606 $865 forward 7 unknown #
vertex $-1 $774 $866 #
straight-curve $-1 -21.472634583060682 -11.479828108057561 62.309575991214004 0 -0.66913059716165679 0.74314483375859142 I I #
point $-1 -21.472634583060682 30.727472255843416 15.433618823240849 #
point $-1 -32.55685744117163 33.937762595034826 11.86823010756261 #
straight-curve $-1 0 33.937762595034826 15.433618823240851 -1 0 0 I I #
vertex $-1 $613 $867 #
point $-1 -29.840012869549444 30.928620950136445 12.386760392322381 #
vertex $-1 $617 $868 #
point $-1 -26.514746012116156 30.928620950136445 12.386760392322381 #
vertex $-1 $621 $869 #
point $-1 -23.189479154682871 30.928620950136445 12.386760392322381 #
coedge $-1 $636 $635 $628 $787 forward $625 $-1 #
edge $-1 $788 57.195953035256409 $791 60.761341750934648 $786 $870 forward 7 unknown #
vertex $-1 $640 $871 #
straight-curve $-1 1.7763568394002505e-015 40.322501100355183 15.433618823240849 0 1 0 I I #
edge $-1 $791 -2.7710557145277388 $637 8.3131671435832128 $636 $872 forward 7 unknown #
vertex $-1 $790 $873 #
straight-curve $-1 1.7763568394002505e-015 -11.479828108057561 62.309575991214004 0 -0.66913059716165679 0.74314483375859142 I I #
point $-1 1.7763568394002505e-015 30.727472255843416 15.433618823240849 #
point $-1 -11.08422285811095 33.937762595034826 11.86823010756261 #
straight-curve $-1 0 33.937762595034826 15.433618823240851 -1 0 0 I I #
vertex $-1 $643 $874 #
point $-1 -8.3673782864887585 30.928620950136445 12.386760392322381 #
vertex $-1 $647 $875 #
point $-1 -5.042111429055474 30.928620950136445 12.386760392322381 #
vertex $-1 $651 $876 #
point $-1 -1.7168445716221896 30.928620950136445 12.386760392322381 #
coedge $-1 $666 $665 $658 $803 forward $655 $-1 #
edge $-1 $804 57.195953035256409 $807 60.761341750934648 $802 $877 forward 7 unknown #
vertex $-1 $670 $878 #
straight-curve $-1 21.472634583060689 40.322501100355183 15.433618823240849 0 1 0 I I #
edge $-1 $807 -13.507373006058081 $667 -2.4231501479471316 $666 $879 forward 7 unknown #
vertex $-1 $806 $880 #
straight-curve $-1 21.472634583060689 -11.479828108057561 62.309575991214004 0 -0.66913059716165679 0.74314483375859142 I I #
point $-1 21.472634583060689 30.727472255843416 15.433618823240849 #
point $-1 10.388411724949739 33.937762595034826 11.86823010756261 #
straight-curve $-1 0 33.937762595034826 15.433618823240851 -1 0 0 I I #
vertex $-1 $673 $881 #
point $-1 13.105256296571923 30.928620950136445 12.386760392322381 #
vertex $-1 $677 $882 #
point $-1 16.430523154005215 30.928620950136445 12.386760392322381 #
vertex $-1 $681 $883 #
point $-1 19.755790011438492 30.928620950136445 12.386760392322381 #
coedge $-1 $696 $695 $688 $819 forward $685 $-1 #
edge $-1 $820 57.195953035256409 $823 60.761341750934648 $818 $884 forward 7 unknown #
vertex $-1 $700 $885 #
straight-curve $-1 42.945269166121371 40.322501100355183 15.433618823240849 0 1 0 I I #
edge $-1 $823 -24.243690297588422 $697 -13.159467439477474 $696 $886 forward 7 unknown #
vertex $-1 $822 $887 #
straight-curve $-1 42.945269166121371 -11.479828108057561 62.309575991214004 0 -0.66913059716165679 0.74314483375859142 I I #
point $-1 42.945269166121371 30.727472255843416 15.433618823240849 #
point $-1 31.861046308010422 33.937762595034826 11.86823010756261 #
straight-curve $-1 0 33.937762595034826 15.433618823240851 -1 0 0 I I #
vertex $-1 $703 $888 #
point $-1 34.577890879632605 30.928620950136445 12.386760392322381 #
vertex $-1 $707 $889 #
point $-1 37.903157737065897 30.928620950136445 12.386760392322381 #
vertex $-1 $711 $890 #
point $-1 41.228424594499174 30.928620950136445 12.386760392322381 #
coedge $-1 $716 $730 $719 $837 reversed $534 $-1 #
vertex $-1 $837 $891 #
straight-curve $-1 -61.983092745750298 -33.937762595034826 0 0 0 -1 I I #
edge $-1 $835 -33.937762595034826 $732 33.937762595034826 $834 $892 forward 7 unknown #
straight-curve $-1 0 -33.937762595034826 -15.433618823240851 -1 0 0 I I #
straight-curve $-1 -61.983092745750298 0 15.433618823240851 0 -1 0 I I #
point $-1 -61.983092745750298 33.937762595034826 15.433618823240851 #
point $-1 -61.983092745750298 -33.937762595034826 15.433618823240851 #
straight-curve $-1 -61.983092745750298 33.937762595034826 0 0 0 -1 I I #
point $-1 -61.983092745750298 33.937762595034826 -15.433618823240851 #
coedge $-1 $849 $735 $738 $846 reversed $554 $-1 #
straight-curve $-1 -81.020916325379233 33.937762595034826 -7.8942814160147776 0 0 -1 I I #
edge $-1 $851 -33.937762595034826 $739 33.937762595034826 $844 $893 forward 7 unknown #
point $-1 -81.020916325379233 33.937762595034826 -12.170072556964456 #
point $-1 -81.020916325379233 33.937762595034826 -3.6184902750650991 #
coedge $-1 $748 $844 $745 $850 reversed $554 $-1 #
edge $-1 $750 -4.2757911409496785 $851 4.2757911409496785 $849 $894 forward 7 unknown #
vertex $-1 $846 $895 #
straight-curve $-1 -71.502004535564765 -33.937762595034826 -12.170072556964456 -1 0 0 I I #
straight-curve $-1 -81.020916325379233 0 -3.6184902750650991 0 -1 0 I I #
point $-1 -81.020916325379233 -33.937762595034826 -3.6184902750650991 #
vertex $-1 $756 $896 #
straight-curve $-1 81.020916325379233 0 -12.170072556964456 0 -1 0 I I #
edge $-1 $759 -4.2757911409496785 $855 4.2757911409496785 $757 $897 forward 7 unknown #
point $-1 81.020916325379233 -33.937762595034826 -3.6184902750650991 #
point $-1 81.020916325379233 33.937762595034826 -3.6184902750650991 #
straight-curve $-1 81.020916325379233 -33.937762595034826 -7.8942814160147776 0 0 -1 I I #
point $-1 81.020916325379233 -33.937762595034826 -12.170072556964456 #
straight-curve $-1 71.502004535564765 33.937762595034826 -12.170072556964456 1 0 0 I I #
straight-curve $-1 -21.472634583060682 33.937762595034826 72.629571858497258 0 0 -1 I I #
point $-1 -21.472634583060682 33.937762595034826 15.433618823240851 #
straight-curve $-1 -13.507373006058078 33.937762595034826 11.868230107562603 -1 0 0 I I #
point $-1 -21.472634583060682 33.937762595034826 11.86823010756261 #
point $-1 -30.340012869549444 30.557048533257149 12.052195093741554 #
point $-1 -27.014746012116156 30.557048533257149 12.052195093741554 #
point $-1 -23.689479154682871 30.557048533257149 12.052195093741554 #
straight-curve $-1 1.7763568394002505e-015 33.937762595034826 72.629571858497258 0 0 -1 I I #
point $-1 1.7763568394002505e-015 33.937762595034826 15.433618823240851 #
straight-curve $-1 -2.771055714527737 33.937762595034826 11.868230107562603 -1 0 0 I I #
point $-1 1.7763568394002505e-015 33.937762595034826 11.86823010756261 #
point $-1 -8.8673782864887585 30.557048533257149 12.052195093741554 #
point $-1 -5.542111429055474 30.557048533257149 12.052195093741554 #
point $-1 -2.2168445716221896 30.557048533257149 12.052195093741554 #
straight-curve $-1 21.472634583060689 33.937762595034826 72.629571858497258 0 0 -1 I I #
point $-1 21.472634583060689 33.937762595034826 15.433618823240851 #
straight-curve $-1 7.9652615770026074 33.937762595034826 11.868230107562603 -1 0 0 I I #
point $-1 21.472634583060689 33.937762595034826 11.86823010756261 #
point $-1 12.605256296571923 30.557048533257149 12.052195093741554 #
point $-1 15.930523154005215 30.557048533257149 12.052195093741554 #
point $-1 19.255790011438492 30.557048533257149 12.052195093741554 #
straight-curve $-1 42.945269166121371 33.937762595034826 72.629571858497258 0 0 -1 I I #
point $-1 42.945269166121371 33.937762595034826 15.433618823240851 #
straight-curve $-1 18.701578868532948 33.937762595034826 11.868230107562603 -1 0 0 I I #
point $-1 42.945269166121371 33.937762595034826 11.86823010756261 #
point $-1 34.077890879632605 30.557048533257149 12.052195093741554 #
point $-1 37.403157737065897 30.557048533257149 12.052195093741554 #
point $-1 40.728424594499174 30.557048533257149 12.052195093741554 #
point $-1 -61.983092745750298 -33.937762595034826 -15.433618823240851 #
straight-curve $-1 -61.983092745750298 0 -15.433618823240851 0 1 0 I I #
straight-curve $-1 -81.020916325379233 0 -12.170072556964456 0 1 0 I I #
straight-curve $-1 -81.020916325379233 -33.937762595034826 -7.8942814160147776 0 0 -1 I I #
point $-1 -81.020916325379233 -33.937762595034826 -12.170072556964456 #
point $-1 81.020916325379233 33.937762595034826 -12.170072556964456 #
straight-curve $-1 81.020916325379233 33.937762595034826 -7.8942814160147776 0 0 -1 I I #
End-of-ACIS-data 