500 0 13 0           
7 Unknown 11 ACIS 5.0 NT 24 Thu Mar 25 22:53:37 1999 
-1 9.9999999999999995e-007 1e-010 
body $-1 $13 $-1 $14 #
body $-1 $15 $-1 $16 #
body $-1 $17 $-1 $18 #
body $-1 $19 $-1 $20 #
body $-1 $21 $-1 $22 #
body $-1 $23 $-1 $24 #
body $-1 $25 $-1 $26 #
body $-1 $27 $-1 $28 #
body $-1 $29 $-1 $30 #
body $-1 $31 $-1 $32 #
body $-1 $33 $-1 $34 #
body $-1 $35 $-1 $36 #
body $-1 $37 $-1 $38 #
lump $-1 $-1 $39 $0 #
transform $-1 1 0 0 0 1 0 0 0 1 79.334696493423266 34.016079742262058 10.937217619329695 1 rotate no_reflect no_shear #
lump $-1 $-1 $40 $1 #
transform $-1 1 0 0 0 1 0 0 0 1 7.082087901104309 34.016079742262058 2 1 rotate no_reflect no_shear #
lump $-1 $-1 $41 $2 #
transform $-1 1 0 0 0 0.49999998660252726 -0.86602541151947299 0 0.86602541151947299 0.49999998660252726 59.661252869524468 171.42780701069981 152.18323682102545 1 rotate no_reflect no_shear #
lump $-1 $-1 $42 $3 #
transform $-1 1 0 0 0 -0.49999998660252726 0.86602541151947299 0 -0.86602541151947299 -0.49999998660252726 52.252444320872584 62.78074911656239 16.194708163002751 1 rotate no_reflect no_shear #
lump $-1 $-1 $43 $4 #
transform $-1 1 0 0 0 -0.49999998660252726 0.86602541151947299 0 -0.86602541151947299 -0.49999998660252726 59.661252869524461 62.78074911656239 16.194708163002751 1 rotate no_reflect no_shear #
lump $-1 $-1 $44 $5 #
transform $-1 1 0 0 0 -0.49999998660252726 0.86602541151947299 0 -0.86602541151947299 -0.49999998660252726 67.070061418176337 62.78074911656239 16.194708163002751 1 rotate no_reflect no_shear #
lump $-1 $-1 $45 $6 #
transform $-1 1 0 0 0 0.49999998660252726 -0.86602541151947299 0 0.86602541151947299 0.49999998660252726 113.17231591953066 171.42780701069981 152.18323682102545 1 rotate no_reflect no_shear #
lump $-1 $-1 $46 $7 #
transform $-1 1 0 0 0 -0.49999998660252726 0.86602541151947299 0 -0.86602541151947299 -0.49999998660252726 105.76350737087878 62.78074911656239 16.194708163002751 1 rotate no_reflect no_shear #
lump $-1 $-1 $47 $8 #
transform $-1 1 0 0 0 -0.49999998660252726 0.86602541151947299 0 -0.86602541151947299 -0.49999998660252726 113.17231591953066 62.78074911656239 16.194708163002751 1 rotate no_reflect no_shear #
lump $-1 $-1 $48 $9 #
transform $-1 1 0 0 0 -0.49999998660252726 0.86602541151947299 0 -0.86602541151947299 -0.49999998660252726 120.58112446818254 62.78074911656239 16.194708163002751 1 rotate no_reflect no_shear #
lump $-1 $-1 $49 $10 #
transform $-1 1 0 0 0 0.5877852410284794 0.80901700255871778 0 -0.80901700255871778 0.5877852410284794 150.69794594188994 -128.36623671202983 109.95617855476051 1 rotate no_reflect no_shear #
lump $-1 $-1 $50 $11 #
transform $-1 1 0 0 0 -0.5877852410284794 -0.80901700255871778 0 0.80901700255871778 -0.5877852410284794 147.28161149405142 5.3147589991049706 16.789783544010234 1 rotate no_reflect no_shear #
lump $-1 $-1 $51 $12 #
transform $-1 1 0 0 0 -0.5877852410284794 -0.80901700255871778 0 0.80901700255871778 -0.5877852410284794 154.11428038972849 5.3147589991049706 16.789783544010234 1 rotate no_reflect no_shear #
shell $-1 $-1 $-1 $52 $-1 $13 #
shell $-1 $-1 $-1 $53 $-1 $15 #
shell $-1 $-1 $-1 $54 $-1 $17 #
shell $-1 $-1 $-1 $55 $-1 $19 #
shell $-1 $-1 $-1 $56 $-1 $21 #
shell $-1 $-1 $-1 $57 $-1 $23 #
shell $-1 $-1 $-1 $58 $-1 $25 #
shell $-1 $-1 $-1 $59 $-1 $27 #
shell $-1 $-1 $-1 $60 $-1 $29 #
shell $-1 $-1 $-1 $61 $-1 $31 #
shell $-1 $-1 $-1 $62 $-1 $33 #
shell $-1 $-1 $-1 $63 $-1 $35 #
shell $-1 $-1 $-1 $64 $-1 $37 #
face $-1 $65 $66 $39 $-1 $67 forward single #
face $-1 $68 $69 $40 $-1 $70 forward single #
face $-1 $71 $72 $41 $-1 $73 forward single #
face $-1 $74 $75 $42 $-1 $76 forward single #
face $-1 $77 $78 $43 $-1 $79 forward single #
face $-1 $80 $81 $44 $-1 $82 forward single #
face $-1 $83 $84 $45 $-1 $85 forward single #
face $-1 $86 $87 $46 $-1 $88 forward single #
face $-1 $89 $90 $47 $-1 $91 forward single #
face $-1 $92 $93 $48 $-1 $94 forward single #
face $-1 $95 $96 $49 $-1 $97 forward single #
face $-1 $98 $99 $50 $-1 $100 forward single #
face $-1 $101 $102 $51 $-1 $103 forward single #
face $-1 $104 $105 $39 $-1 $106 reversed single #
loop $-1 $-1 $107 $52 #
plane-surface $-1 0 0 10.937217619329695 0 0 1 1 0 0 forward_v I I I I #
face $-1 $108 $109 $40 $-1 $110 reversed single #
loop $-1 $-1 $111 $53 #
plane-surface $-1 0 0 1.5 0 0 1 1 0 0 forward_v I I I I #
face $-1 $112 $113 $41 $-1 $114 reversed single #
loop $-1 $-1 $115 $54 #
plane-surface $-1 0 0 158.66939298684656 0 0 1 1 0 0 forward_v I I I I #
face $-1 $116 $117 $42 $-1 $118 forward single #
loop $-1 $119 $120 $55 #
cone-surface $-1 0 0 -1.9579912717062893 0 0 1 1 0 0 1 I I 0 1 1 forward I I I I #
face $-1 $121 $122 $43 $-1 $123 forward single #
loop $-1 $124 $125 $56 #
cone-surface $-1 0 0 -1.9579912717062893 0 0 1 1 0 0 1 I I 0 1 1 forward I I I I #
face $-1 $126 $127 $44 $-1 $128 forward single #
loop $-1 $129 $130 $57 #
cone-surface $-1 0 0 -1.9579912717062893 0 0 1 1 0 0 1 I I 0 1 1 forward I I I I #
face $-1 $131 $132 $45 $-1 $133 reversed single #
loop $-1 $-1 $134 $58 #
plane-surface $-1 0 0 158.66939298684656 0 0 1 1 0 0 forward_v I I I I #
face $-1 $135 $136 $46 $-1 $137 forward single #
loop $-1 $138 $139 $59 #
cone-surface $-1 0 0 -1.9579912717062893 0 0 1 1 0 0 1 I I 0 1 1 forward I I I I #
face $-1 $140 $141 $47 $-1 $142 forward single #
loop $-1 $143 $144 $60 #
cone-surface $-1 0 0 -1.9579912717062893 0 0 1 1 0 0 1 I I 0 1 1 forward I I I I #
face $-1 $145 $146 $48 $-1 $147 forward single #
loop $-1 $148 $149 $61 #
cone-surface $-1 0 0 -1.9579912717062893 0 0 1 1 0 0 1 I I 0 1 1 forward I I I I #
face $-1 $150 $151 $49 $-1 $152 reversed single #
loop $-1 $-1 $153 $62 #
plane-surface $-1 0 0 158.66939298684653 0 0 1 1 0 0 forward_v I I I I #
face $-1 $154 $155 $50 $-1 $156 forward single #
loop $-1 $157 $158 $63 #
cone-surface $-1 0 0 -2.3713187047944579 0 0 1 1 0 0 1 I I 0 1 1 forward I I I I #
face $-1 $159 $160 $51 $-1 $161 forward single #
loop $-1 $162 $163 $64 #
cone-surface $-1 0 0 -2.3713187047944579 0 0 1 1 0 0 1 I I 0 1 1 forward I I I I #
face $-1 $164 $165 $39 $-1 $166 reversed single #
loop $-1 $-1 $167 $65 #
plane-surface $-1 0 0 -10.937217619329695 0 0 1 1 0 0 forward_v I I I I #
coedge $-1 $168 $169 $170 $171 forward $66 $-1 #
face $-1 $172 $173 $40 $-1 $174 reversed single #
loop $-1 $-1 $175 $68 #
plane-surface $-1 0 0 -1.5 0 0 1 1 0 0 forward_v I I I I #
coedge $-1 $176 $177 $178 $179 forward $69 $-1 #
face $-1 $180 $181 $41 $-1 $182 reversed single #
loop $-1 $-1 $183 $71 #
plane-surface $-1 0 0 -158.66939298684656 0 0 1 1 0 0 forward_v I I I I #
coedge $-1 $184 $185 $186 $187 forward $72 $-1 #
face $-1 $-1 $188 $42 $-1 $189 forward single #
loop $-1 $-1 $190 $74 #
plane-surface $-1 0 0 -3.4159825434125786 0 0 -1 -1 0 0 forward_v I I I I #
loop $-1 $-1 $191 $55 #
coedge $-1 $120 $120 $190 $192 reversed $75 $-1 #
face $-1 $-1 $193 $43 $-1 $194 forward single #
loop $-1 $-1 $195 $77 #
plane-surface $-1 0 0 -3.4159825434125786 0 0 -1 -1 0 0 forward_v I I I I #
loop $-1 $-1 $196 $56 #
coedge $-1 $125 $125 $195 $197 reversed $78 $-1 #
face $-1 $-1 $198 $44 $-1 $199 forward single #
loop $-1 $-1 $200 $80 #
plane-surface $-1 0 0 -3.4159825434125786 0 0 -1 -1 0 0 forward_v I I I I #
loop $-1 $-1 $201 $57 #
coedge $-1 $130 $130 $200 $202 reversed $81 $-1 #
face $-1 $203 $204 $45 $-1 $205 reversed single #
loop $-1 $-1 $206 $83 #
plane-surface $-1 0 0 -158.66939298684656 0 0 1 1 0 0 forward_v I I I I #
coedge $-1 $207 $208 $209 $210 forward $84 $-1 #
face $-1 $-1 $211 $46 $-1 $212 forward single #
loop $-1 $-1 $213 $86 #
plane-surface $-1 0 0 -3.4159825434125786 0 0 -1 -1 0 0 forward_v I I I I #
loop $-1 $-1 $214 $59 #
coedge $-1 $139 $139 $213 $215 reversed $87 $-1 #
face $-1 $-1 $216 $47 $-1 $217 forward single #
loop $-1 $-1 $218 $89 #
plane-surface $-1 0 0 -3.4159825434125786 0 0 -1 -1 0 0 forward_v I I I I #
loop $-1 $-1 $219 $60 #
coedge $-1 $144 $144 $218 $220 reversed $90 $-1 #
face $-1 $-1 $221 $48 $-1 $222 forward single #
loop $-1 $-1 $223 $92 #
plane-surface $-1 0 0 -3.4159825434125786 0 0 -1 -1 0 0 forward_v I I I I #
loop $-1 $-1 $224 $61 #
coedge $-1 $149 $149 $223 $225 reversed $93 $-1 #
face $-1 $226 $227 $49 $-1 $228 reversed single #
loop $-1 $-1 $229 $95 #
plane-surface $-1 0 0 -158.66939298684653 0 0 1 1 0 0 forward_v I I I I #
coedge $-1 $230 $231 $232 $233 forward $96 $-1 #
face $-1 $-1 $234 $50 $-1 $235 forward single #
loop $-1 $-1 $236 $98 #
plane-surface $-1 0 0 -4.2426374095889159 0 0 -1 -1 0 0 forward_v I I I I #
loop $-1 $-1 $237 $63 #
coedge $-1 $158 $158 $236 $238 reversed $99 $-1 #
face $-1 $-1 $239 $51 $-1 $240 forward single #
loop $-1 $-1 $241 $101 #
plane-surface $-1 0 0 -4.2426374095889159 0 0 -1 -1 0 0 forward_v I I I I #
loop $-1 $-1 $242 $64 #
coedge $-1 $163 $163 $241 $243 reversed $102 $-1 #
face $-1 $244 $245 $39 $-1 $246 reversed single #
loop $-1 $-1 $247 $104 #
plane-surface $-1 0 -34.016079742262058 0 0 1 0 0 0 1 forward_v I I I I #
coedge $-1 $248 $249 $250 $251 forward $105 $-1 #
coedge $-1 $252 $107 $253 $254 forward $66 $-1 #
coedge $-1 $107 $252 $255 $256 forward $66 $-1 #
coedge $-1 $257 $258 $107 $171 reversed $259 $-1 #
edge $-1 $260 -34.016079742262058 $261 34.016079742262058 $170 $262 forward 7 unknown #
face $-1 $263 $264 $40 $-1 $265 reversed single #
loop $-1 $-1 $266 $108 #
plane-surface $-1 0 -34.016079742262058 0 0 1 0 0 0 1 forward_v I I I I #
coedge $-1 $267 $268 $269 $270 forward $109 $-1 #
coedge $-1 $271 $111 $272 $273 forward $69 $-1 #
coedge $-1 $111 $271 $274 $275 forward $69 $-1 #
coedge $-1 $276 $277 $111 $179 reversed $278 $-1 #
edge $-1 $279 -34.016079742262058 $280 34.016079742262058 $178 $281 forward 7 unknown #
face $-1 $282 $283 $41 $-1 $284 reversed single #
loop $-1 $-1 $285 $112 #
plane-surface $-1 0 -317.33878597369306 0 0 1 0 0 0 1 forward_v I I I I #
coedge $-1 $286 $287 $288 $289 forward $113 $-1 #
coedge $-1 $290 $115 $291 $292 forward $72 $-1 #
coedge $-1 $115 $290 $293 $294 forward $72 $-1 #
coedge $-1 $295 $296 $115 $187 reversed $297 $-1 #
edge $-1 $298 -317.33878597369306 $299 317.33878597369306 $186 $300 forward 7 unknown #
loop $-1 $301 $302 $116 #
cone-surface $-1 0 0 0 0 0 1 0.5 0 0 1 I I -0.70710678118654746 0.70710678118654746 0.5 forward I I I I #
coedge $-1 $190 $190 $120 $192 forward $117 $-1 #
coedge $-1 $191 $191 $302 $303 forward $119 $-1 #
edge $-1 $304 0 $304 6.2831853071796004 $190 $305 forward 7 unknown #
loop $-1 $306 $307 $121 #
cone-surface $-1 0 0 0 0 0 1 0.5 0 0 1 I I -0.70710678118654746 0.70710678118654746 0.5 forward I I I I #
coedge $-1 $195 $195 $125 $197 forward $122 $-1 #
coedge $-1 $196 $196 $307 $308 forward $124 $-1 #
edge $-1 $309 0 $309 6.2831853071796004 $195 $310 forward 7 unknown #
loop $-1 $311 $312 $126 #
cone-surface $-1 0 0 0 0 0 1 0.5 0 0 1 I I -0.70710678118654746 0.70710678118654746 0.5 forward I I I I #
coedge $-1 $200 $200 $130 $202 forward $127 $-1 #
coedge $-1 $201 $201 $312 $313 forward $129 $-1 #
edge $-1 $314 0 $314 6.2831853071796004 $200 $315 forward 7 unknown #
face $-1 $316 $317 $45 $-1 $318 reversed single #
loop $-1 $-1 $319 $131 #
plane-surface $-1 0 -317.33878597369306 0 0 1 0 0 0 1 forward_v I I I I #
coedge $-1 $320 $321 $322 $323 forward $132 $-1 #
coedge $-1 $324 $134 $325 $326 forward $84 $-1 #
coedge $-1 $134 $324 $327 $328 forward $84 $-1 #
coedge $-1 $329 $330 $134 $210 reversed $331 $-1 #
edge $-1 $332 -317.33878597369306 $333 317.33878597369306 $209 $334 forward 7 unknown #
loop $-1 $335 $336 $135 #
cone-surface $-1 0 0 0 0 0 1 0.5 0 0 1 I I -0.70710678118654746 0.70710678118654746 0.5 forward I I I I #
coedge $-1 $213 $213 $139 $215 forward $136 $-1 #
coedge $-1 $214 $214 $336 $337 forward $138 $-1 #
edge $-1 $338 0 $338 6.2831853071796004 $213 $339 forward 7 unknown #
loop $-1 $340 $341 $140 #
cone-surface $-1 0 0 0 0 0 1 0.5 0 0 1 I I -0.70710678118654746 0.70710678118654746 0.5 forward I I I I #
coedge $-1 $218 $218 $144 $220 forward $141 $-1 #
coedge $-1 $219 $219 $341 $342 forward $143 $-1 #
edge $-1 $343 0 $343 6.2831853071796004 $218 $344 forward 7 unknown #
loop $-1 $345 $346 $145 #
cone-surface $-1 0 0 0 0 0 1 0.5 0 0 1 I I -0.70710678118654746 0.70710678118654746 0.5 forward I I I I #
coedge $-1 $223 $223 $149 $225 forward $146 $-1 #
coedge $-1 $224 $224 $346 $347 forward $148 $-1 #
edge $-1 $348 0 $348 6.2831853071796004 $223 $349 forward 7 unknown #
face $-1 $350 $351 $49 $-1 $352 reversed single #
loop $-1 $-1 $353 $150 #
plane-surface $-1 0 -317.33878597369306 0 0 1 0 0 0 1 forward_v I I I I #
coedge $-1 $354 $355 $356 $357 forward $151 $-1 #
coedge $-1 $358 $153 $359 $360 forward $96 $-1 #
coedge $-1 $153 $358 $361 $362 forward $96 $-1 #
coedge $-1 $363 $364 $153 $233 reversed $365 $-1 #
edge $-1 $366 -317.33878597369306 $367 317.33878597369306 $232 $368 forward 7 unknown #
loop $-1 $369 $370 $154 #
cone-surface $-1 0 0 0 0 0 1 0.5 0 0 1 I I -0.70710678118654746 0.70710678118654746 0.5 forward I I I I #
coedge $-1 $236 $236 $158 $238 forward $155 $-1 #
coedge $-1 $237 $237 $370 $371 forward $157 $-1 #
edge $-1 $372 0 $372 6.2831853071796004 $236 $373 forward 7 unknown #
loop $-1 $374 $375 $159 #
cone-surface $-1 0 0 0 0 0 1 0.5 0 0 1 I I -0.70710678118654746 0.70710678118654746 0.5 forward I I I I #
coedge $-1 $241 $241 $163 $243 forward $160 $-1 #
coedge $-1 $242 $242 $375 $376 forward $162 $-1 #
edge $-1 $377 0 $377 6.2831853071796004 $241 $378 forward 7 unknown #
face $-1 $379 $380 $39 $-1 $381 reversed single #
loop $-1 $-1 $382 $164 #
plane-surface $-1 -79.334696493423266 0 0 1 0 0 0 0 -1 forward_v I I I I #
coedge $-1 $383 $255 $384 $385 forward $165 $-1 #
coedge $-1 $386 $167 $383 $387 forward $105 $-1 #
coedge $-1 $167 $386 $388 $389 forward $105 $-1 #
coedge $-1 $258 $257 $167 $251 reversed $259 $-1 #
edge $-1 $390 -34.016079742262058 $391 34.016079742262058 $250 $392 forward 7 unknown #
coedge $-1 $169 $168 $393 $394 forward $66 $-1 #
coedge $-1 $395 $396 $168 $254 reversed $380 $-1 #
edge $-1 $261 -79.334696493423266 $397 79.334696493423266 $253 $398 forward 7 unknown #
coedge $-1 $247 $399 $169 $256 reversed $165 $-1 #
edge $-1 $400 -79.334696493423266 $260 79.334696493423266 $255 $401 forward 7 unknown #
coedge $-1 $250 $170 $399 $402 forward $259 $-1 #
coedge $-1 $170 $250 $395 $403 reversed $259 $-1 #
loop $-1 $-1 $257 $379 #
vertex $-1 $171 $404 #
vertex $-1 $171 $405 #
straight-curve $-1 79.334696493423266 0 10.937217619329695 0 1 0 I I #
face $-1 $406 $407 $40 $-1 $408 reversed single #
loop $-1 $-1 $409 $172 #
plane-surface $-1 -7.082087901104309 0 0 1 0 0 0 0 -1 forward_v I I I I #
coedge $-1 $410 $274 $411 $412 forward $173 $-1 #
coedge $-1 $413 $175 $410 $414 forward $109 $-1 #
coedge $-1 $175 $413 $415 $416 forward $109 $-1 #
coedge $-1 $277 $276 $175 $270 reversed $278 $-1 #
edge $-1 $417 -34.016079742262058 $418 34.016079742262058 $269 $419 forward 7 unknown #
coedge $-1 $177 $176 $420 $421 forward $69 $-1 #
coedge $-1 $422 $423 $176 $273 reversed $407 $-1 #
edge $-1 $280 -7.082087901104309 $424 7.082087901104309 $272 $425 forward 7 unknown #
coedge $-1 $266 $426 $177 $275 reversed $173 $-1 #
edge $-1 $427 -7.082087901104309 $279 7.082087901104309 $274 $428 forward 7 unknown #
coedge $-1 $269 $178 $426 $429 forward $278 $-1 #
coedge $-1 $178 $269 $422 $430 reversed $278 $-1 #
loop $-1 $-1 $276 $406 #
vertex $-1 $179 $431 #
vertex $-1 $179 $432 #
straight-curve $-1 7.082087901104309 0 1.5 0 1 0 I I #
face $-1 $433 $434 $41 $-1 $435 reversed single #
loop $-1 $-1 $436 $180 #
plane-surface $-1 -12.348014247753134 0 0 1 0 0 0 0 -1 forward_v I I I I #
coedge $-1 $437 $293 $438 $439 forward $181 $-1 #
coedge $-1 $440 $183 $437 $441 forward $113 $-1 #
coedge $-1 $183 $440 $442 $443 forward $113 $-1 #
coedge $-1 $296 $295 $183 $289 reversed $297 $-1 #
edge $-1 $444 -317.33878597369306 $445 317.33878597369306 $288 $446 forward 7 unknown #
coedge $-1 $185 $184 $447 $448 forward $72 $-1 #
coedge $-1 $449 $450 $184 $292 reversed $434 $-1 #
edge $-1 $299 -12.348014247753134 $451 12.348014247753134 $291 $452 forward 7 unknown #
coedge $-1 $285 $453 $185 $294 reversed $181 $-1 #
edge $-1 $454 -12.348014247753134 $298 12.348014247753134 $293 $455 forward 7 unknown #
coedge $-1 $288 $186 $453 $456 forward $297 $-1 #
coedge $-1 $186 $288 $449 $457 reversed $297 $-1 #
loop $-1 $-1 $295 $433 #
vertex $-1 $187 $458 #
vertex $-1 $187 $459 #
straight-curve $-1 12.348014247753134 0 158.66939298684656 0 1 0 I I #
loop $-1 $-1 $460 $116 #
coedge $-1 $302 $302 $191 $303 reversed $188 $-1 #
edge $-1 $461 0 $461 6.2831853071796004 $302 $462 forward 7 unknown #
vertex $-1 $192 $463 #
ellipse-curve $-1 0 0 -3.4159825434125786 0 0 -1 1 0 0 1 I I #
loop $-1 $-1 $464 $121 #
coedge $-1 $307 $307 $196 $308 reversed $193 $-1 #
edge $-1 $465 0 $465 6.2831853071796004 $307 $466 forward 7 unknown #
vertex $-1 $197 $467 #
ellipse-curve $-1 0 0 -3.4159825434125786 0 0 -1 1 0 0 1 I I #
loop $-1 $-1 $468 $126 #
coedge $-1 $312 $312 $201 $313 reversed $198 $-1 #
edge $-1 $469 0 $469 6.2831853071796004 $312 $470 forward 7 unknown #
vertex $-1 $202 $471 #
ellipse-curve $-1 0 0 -3.4159825434125786 0 0 -1 1 0 0 1 I I #
face $-1 $472 $473 $45 $-1 $474 reversed single #
loop $-1 $-1 $475 $203 #
plane-surface $-1 -12.348014247753134 0 0 1 0 0 0 0 -1 forward_v I I I I #
coedge $-1 $476 $327 $477 $478 forward $204 $-1 #
coedge $-1 $479 $206 $476 $480 forward $132 $-1 #
coedge $-1 $206 $479 $481 $482 forward $132 $-1 #
coedge $-1 $330 $329 $206 $323 reversed $331 $-1 #
edge $-1 $483 -317.33878597369306 $484 317.33878597369306 $322 $485 forward 7 unknown #
coedge $-1 $208 $207 $486 $487 forward $84 $-1 #
coedge $-1 $488 $489 $207 $326 reversed $473 $-1 #
edge $-1 $333 -12.348014247753134 $490 12.348014247753134 $325 $491 forward 7 unknown #
coedge $-1 $319 $492 $208 $328 reversed $204 $-1 #
edge $-1 $493 -12.348014247753134 $332 12.348014247753134 $327 $494 forward 7 unknown #
coedge $-1 $322 $209 $492 $495 forward $331 $-1 #
coedge $-1 $209 $322 $488 $496 reversed $331 $-1 #
loop $-1 $-1 $329 $472 #
vertex $-1 $210 $497 #
vertex $-1 $210 $498 #
straight-curve $-1 12.348014247753134 0 158.66939298684656 0 1 0 I I #
loop $-1 $-1 $499 $135 #
coedge $-1 $336 $336 $214 $337 reversed $211 $-1 #
edge $-1 $500 0 $500 6.2831853071796004 $336 $501 forward 7 unknown #
vertex $-1 $215 $502 #
ellipse-curve $-1 0 0 -3.4159825434125786 0 0 -1 1 0 0 1 I I #
loop $-1 $-1 $503 $140 #
coedge $-1 $341 $341 $219 $342 reversed $216 $-1 #
edge $-1 $504 0 $504 6.2831853071796004 $341 $505 forward 7 unknown #
vertex $-1 $220 $506 #
ellipse-curve $-1 0 0 -3.4159825434125786 0 0 -1 1 0 0 1 I I #
loop $-1 $-1 $507 $145 #
coedge $-1 $346 $346 $224 $347 reversed $221 $-1 #
edge $-1 $508 0 $508 6.2831853071796004 $346 $509 forward 7 unknown #
vertex $-1 $225 $510 #
ellipse-curve $-1 0 0 -3.4159825434125786 0 0 -1 1 0 0 1 I I #
face $-1 $511 $512 $49 $-1 $513 reversed single #
loop $-1 $-1 $514 $226 #
plane-surface $-1 -7.9714470449565766 0 0 1 0 0 0 0 -1 forward_v I I I I #
coedge $-1 $515 $361 $516 $517 forward $227 $-1 #
coedge $-1 $518 $229 $515 $519 forward $151 $-1 #
coedge $-1 $229 $518 $520 $521 forward $151 $-1 #
coedge $-1 $364 $363 $229 $357 reversed $365 $-1 #
edge $-1 $522 -317.33878597369306 $523 317.33878597369306 $356 $524 forward 7 unknown #
coedge $-1 $231 $230 $525 $526 forward $96 $-1 #
coedge $-1 $527 $528 $230 $360 reversed $512 $-1 #
edge $-1 $367 -7.9714470449565766 $529 7.9714470449565766 $359 $530 forward 7 unknown #
coedge $-1 $353 $531 $231 $362 reversed $227 $-1 #
edge $-1 $532 -7.9714470449565766 $366 7.9714470449565766 $361 $533 forward 7 unknown #
coedge $-1 $356 $232 $531 $534 forward $365 $-1 #
coedge $-1 $232 $356 $527 $535 reversed $365 $-1 #
loop $-1 $-1 $363 $511 #
vertex $-1 $233 $536 #
vertex $-1 $233 $537 #
straight-curve $-1 7.9714470449565766 0 158.66939298684653 0 1 0 I I #
loop $-1 $-1 $538 $154 #
coedge $-1 $370 $370 $237 $371 reversed $234 $-1 #
edge $-1 $539 0 $539 6.2831853071796004 $370 $540 forward 7 unknown #
vertex $-1 $238 $541 #
ellipse-curve $-1 0 0 -4.2426374095889159 0 0 -1 1 0 0 1 I I #
loop $-1 $-1 $542 $159 #
coedge $-1 $375 $375 $242 $376 reversed $239 $-1 #
edge $-1 $543 0 $543 6.2831853071796004 $375 $544 forward 7 unknown #
vertex $-1 $243 $545 #
ellipse-curve $-1 0 0 -4.2426374095889159 0 0 -1 1 0 0 1 I I #
face $-1 $-1 $259 $39 $-1 $546 reversed single #
loop $-1 $-1 $395 $244 #
plane-surface $-1 0 34.016079742262058 0 0 -1 0 0 0 -1 forward_v I I I I #
coedge $-1 $547 $393 $396 $548 forward $245 $-1 #
coedge $-1 $399 $247 $248 $387 reversed $165 $-1 #
coedge $-1 $393 $547 $247 $385 reversed $245 $-1 #
edge $-1 $400 -10.937217619329695 $549 10.937217619329695 $384 $550 forward 7 unknown #
coedge $-1 $249 $248 $547 $551 forward $105 $-1 #
edge $-1 $391 -79.334696493423266 $549 79.334696493423266 $383 $552 forward 7 unknown #
coedge $-1 $396 $395 $249 $389 reversed $380 $-1 #
edge $-1 $553 -79.334696493423266 $390 79.334696493423266 $388 $554 forward 7 unknown #
vertex $-1 $251 $555 #
vertex $-1 $402 $556 #
straight-curve $-1 79.334696493423266 0 -10.937217619329695 0 -1 0 I I #
coedge $-1 $382 $384 $252 $394 reversed $245 $-1 #
edge $-1 $397 -34.016079742262058 $400 34.016079742262058 $393 $557 forward 7 unknown #
coedge $-1 $388 $253 $258 $403 forward $380 $-1 #
coedge $-1 $253 $388 $382 $548 reversed $380 $-1 #
vertex $-1 $254 $558 #
straight-curve $-1 0 34.016079742262058 10.937217619329695 -1 0 0 I I #
coedge $-1 $255 $383 $257 $402 reversed $165 $-1 #
vertex $-1 $394 $559 #
straight-curve $-1 0 -34.016079742262058 10.937217619329695 1 0 0 I I #
edge $-1 $260 -10.937217619329695 $391 10.937217619329695 $257 $560 forward 7 unknown #
edge $-1 $261 -10.937217619329695 $390 10.937217619329695 $258 $561 forward 7 unknown #
point $-1 79.334696493423266 -34.016079742262058 10.937217619329695 #
point $-1 79.334696493423266 34.016079742262058 10.937217619329695 #
face $-1 $-1 $278 $40 $-1 $562 reversed single #
loop $-1 $-1 $422 $263 #
plane-surface $-1 0 34.016079742262058 0 0 -1 0 0 0 -1 forward_v I I I I #
coedge $-1 $563 $420 $423 $564 forward $264 $-1 #
coedge $-1 $426 $266 $267 $414 reversed $173 $-1 #
coedge $-1 $420 $563 $266 $412 reversed $264 $-1 #
edge $-1 $427 -1.5 $565 1.5 $411 $566 forward 7 unknown #
coedge $-1 $268 $267 $563 $567 forward $109 $-1 #
edge $-1 $418 -7.082087901104309 $565 7.082087901104309 $410 $568 forward 7 unknown #
coedge $-1 $423 $422 $268 $416 reversed $407 $-1 #
edge $-1 $569 -7.082087901104309 $417 7.082087901104309 $415 $570 forward 7 unknown #
vertex $-1 $270 $571 #
vertex $-1 $429 $572 #
straight-curve $-1 7.082087901104309 0 -1.5 0 -1 0 I I #
coedge $-1 $409 $411 $271 $421 reversed $264 $-1 #
edge $-1 $424 -34.016079742262058 $427 34.016079742262058 $420 $573 forward 7 unknown #
coedge $-1 $415 $272 $277 $430 forward $407 $-1 #
coedge $-1 $272 $415 $409 $564 reversed $407 $-1 #
vertex $-1 $273 $574 #
straight-curve $-1 0 34.016079742262058 1.5 -1 0 0 I I #
coedge $-1 $274 $410 $276 $429 reversed $173 $-1 #
vertex $-1 $421 $575 #
straight-curve $-1 0 -34.016079742262058 1.5 1 0 0 I I #
edge $-1 $279 -1.5 $418 1.5 $276 $576 forward 7 unknown #
edge $-1 $280 -1.5 $417 1.5 $277 $577 forward 7 unknown #
point $-1 7.082087901104309 -34.016079742262058 1.5 #
point $-1 7.082087901104309 34.016079742262058 1.5 #
face $-1 $-1 $297 $41 $-1 $578 reversed single #
loop $-1 $-1 $449 $282 #
plane-surface $-1 0 317.33878597369306 0 0 -1 0 0 0 -1 forward_v I I I I #
coedge $-1 $579 $447 $450 $580 forward $283 $-1 #
coedge $-1 $453 $285 $286 $441 reversed $181 $-1 #
coedge $-1 $447 $579 $285 $439 reversed $283 $-1 #
edge $-1 $454 -158.66939298684656 $581 158.66939298684656 $438 $582 forward 7 unknown #
coedge $-1 $287 $286 $579 $583 forward $113 $-1 #
edge $-1 $445 -12.348014247753134 $581 12.348014247753134 $437 $584 forward 7 unknown #
coedge $-1 $450 $449 $287 $443 reversed $434 $-1 #
edge $-1 $585 -12.348014247753134 $444 12.348014247753134 $442 $586 forward 7 unknown #
vertex $-1 $289 $587 #
vertex $-1 $456 $588 #
straight-curve $-1 12.348014247753134 0 -158.66939298684656 0 -1 0 I I #
coedge $-1 $436 $438 $290 $448 reversed $283 $-1 #
edge $-1 $451 -317.33878597369306 $454 317.33878597369306 $447 $589 forward 7 unknown #
coedge $-1 $442 $291 $296 $457 forward $434 $-1 #
coedge $-1 $291 $442 $436 $580 reversed $434 $-1 #
vertex $-1 $292 $590 #
straight-curve $-1 0 317.33878597369306 158.66939298684656 -1 0 0 I I #
coedge $-1 $293 $437 $295 $456 reversed $181 $-1 #
vertex $-1 $448 $591 #
straight-curve $-1 0 -317.33878597369306 158.66939298684656 1 0 0 I I #
edge $-1 $298 -158.66939298684656 $445 158.66939298684656 $295 $592 forward 7 unknown #
edge $-1 $299 -158.66939298684656 $444 158.66939298684656 $296 $593 forward 7 unknown #
point $-1 12.348014247753134 -317.33878597369306 158.66939298684656 #
point $-1 12.348014247753134 317.33878597369306 158.66939298684656 #
coedge $-1 $460 $460 $-1 $594 reversed $301 $-1 #
vertex $-1 $303 $595 #
ellipse-curve $-1 0 0 -0.5 0 0 -1 1 0 0 1 I I #
point $-1 1 0 -3.4159825434125786 #
coedge $-1 $464 $464 $-1 $596 reversed $306 $-1 #
vertex $-1 $308 $597 #
ellipse-curve $-1 0 0 -0.5 0 0 -1 1 0 0 1 I I #
point $-1 1 0 -3.4159825434125786 #
coedge $-1 $468 $468 $-1 $598 reversed $311 $-1 #
vertex $-1 $313 $599 #
ellipse-curve $-1 0 0 -0.5 0 0 -1 1 0 0 1 I I #
point $-1 1 0 -3.4159825434125786 #
face $-1 $-1 $331 $45 $-1 $600 reversed single #
loop $-1 $-1 $488 $316 #
plane-surface $-1 0 317.33878597369306 0 0 -1 0 0 0 -1 forward_v I I I I #
coedge $-1 $601 $486 $489 $602 forward $317 $-1 #
coedge $-1 $492 $319 $320 $480 reversed $204 $-1 #
coedge $-1 $486 $601 $319 $478 reversed $317 $-1 #
edge $-1 $493 -158.66939298684656 $603 158.66939298684656 $477 $604 forward 7 unknown #
coedge $-1 $321 $320 $601 $605 forward $132 $-1 #
edge $-1 $484 -12.348014247753134 $603 12.348014247753134 $476 $606 forward 7 unknown #
coedge $-1 $489 $488 $321 $482 reversed $473 $-1 #
edge $-1 $607 -12.348014247753134 $483 12.348014247753134 $481 $608 forward 7 unknown #
vertex $-1 $323 $609 #
vertex $-1 $495 $610 #
straight-curve $-1 12.348014247753134 0 -158.66939298684656 0 -1 0 I I #
coedge $-1 $475 $477 $324 $487 reversed $317 $-1 #
edge $-1 $490 -317.33878597369306 $493 317.33878597369306 $486 $611 forward 7 unknown #
coedge $-1 $481 $325 $330 $496 forward $473 $-1 #
coedge $-1 $325 $481 $475 $602 reversed $473 $-1 #
vertex $-1 $326 $612 #
straight-curve $-1 0 317.33878597369306 158.66939298684656 -1 0 0 I I #
coedge $-1 $327 $476 $329 $495 reversed $204 $-1 #
vertex $-1 $487 $613 #
straight-curve $-1 0 -317.33878597369306 158.66939298684656 1 0 0 I I #
edge $-1 $332 -158.66939298684656 $484 158.66939298684656 $329 $614 forward 7 unknown #
edge $-1 $333 -158.66939298684656 $483 158.66939298684656 $330 $615 forward 7 unknown #
point $-1 12.348014247753134 -317.33878597369306 158.66939298684656 #
point $-1 12.348014247753134 317.33878597369306 158.66939298684656 #
coedge $-1 $499 $499 $-1 $616 reversed $335 $-1 #
vertex $-1 $337 $617 #
ellipse-curve $-1 0 0 -0.5 0 0 -1 1 0 0 1 I I #
point $-1 1 0 -3.4159825434125786 #
coedge $-1 $503 $503 $-1 $618 reversed $340 $-1 #
vertex $-1 $342 $619 #
ellipse-curve $-1 0 0 -0.5 0 0 -1 1 0 0 1 I I #
point $-1 1 0 -3.4159825434125786 #
coedge $-1 $507 $507 $-1 $620 reversed $345 $-1 #
vertex $-1 $347 $621 #
ellipse-curve $-1 0 0 -0.5 0 0 -1 1 0 0 1 I I #
point $-1 1 0 -3.4159825434125786 #
face $-1 $-1 $365 $49 $-1 $622 reversed single #
loop $-1 $-1 $527 $350 #
plane-surface $-1 0 317.33878597369306 0 0 -1 0 0 0 -1 forward_v I I I I #
coedge $-1 $623 $525 $528 $624 forward $351 $-1 #
coedge $-1 $531 $353 $354 $519 reversed $227 $-1 #
coedge $-1 $525 $623 $353 $517 reversed $351 $-1 #
edge $-1 $532 -158.66939298684653 $625 158.66939298684653 $516 $626 forward 7 unknown #
coedge $-1 $355 $354 $623 $627 forward $151 $-1 #
edge $-1 $523 -7.9714470449565766 $625 7.9714470449565766 $515 $628 forward 7 unknown #
coedge $-1 $528 $527 $355 $521 reversed $512 $-1 #
edge $-1 $629 -7.9714470449565766 $522 7.9714470449565766 $520 $630 forward 7 unknown #
vertex $-1 $357 $631 #
vertex $-1 $534 $632 #
straight-curve $-1 7.9714470449565766 0 -158.66939298684653 0 -1 0 I I #
coedge $-1 $514 $516 $358 $526 reversed $351 $-1 #
edge $-1 $529 -317.33878597369306 $532 317.33878597369306 $525 $633 forward 7 unknown #
coedge $-1 $520 $359 $364 $535 forward $512 $-1 #
coedge $-1 $359 $520 $514 $624 reversed $512 $-1 #
vertex $-1 $360 $634 #
straight-curve $-1 0 317.33878597369306 158.66939298684653 -1 0 0 I I #
coedge $-1 $361 $515 $363 $534 reversed $227 $-1 #
vertex $-1 $526 $635 #
straight-curve $-1 0 -317.33878597369306 158.66939298684653 1 0 0 I I #
edge $-1 $366 -158.66939298684653 $523 158.66939298684653 $363 $636 forward 7 unknown #
edge $-1 $367 -158.66939298684653 $522 158.66939298684653 $364 $637 forward 7 unknown #
point $-1 7.9714470449565766 -317.33878597369306 158.66939298684653 #
point $-1 7.9714470449565766 317.33878597369306 158.66939298684653 #
coedge $-1 $538 $538 $-1 $638 reversed $369 $-1 #
vertex $-1 $371 $639 #
ellipse-curve $-1 0 0 -0.5 0 0 -1 1 0 0 1 I I #
point $-1 1 0 -4.2426374095889159 #
coedge $-1 $542 $542 $-1 $640 reversed $374 $-1 #
vertex $-1 $376 $641 #
ellipse-curve $-1 0 0 -0.5 0 0 -1 1 0 0 1 I I #
point $-1 1 0 -4.2426374095889159 #
plane-surface $-1 79.334696493423266 0 0 -1 0 0 0 0 1 forward_v I I I I #
coedge $-1 $384 $382 $386 $551 reversed $245 $-1 #
edge $-1 $397 -10.937217619329695 $553 10.937217619329695 $396 $642 forward 7 unknown #
vertex $-1 $551 $643 #
straight-curve $-1 -79.334696493423266 -34.016079742262058 0 0 0 -1 I I #
edge $-1 $549 -34.016079742262058 $553 34.016079742262058 $547 $644 forward 7 unknown #
straight-curve $-1 0 -34.016079742262058 -10.937217619329695 -1 0 0 I I #
vertex $-1 $389 $645 #
straight-curve $-1 0 34.016079742262058 -10.937217619329695 1 0 0 I I #
point $-1 79.334696493423266 34.016079742262058 -10.937217619329695 #
point $-1 79.334696493423266 -34.016079742262058 -10.937217619329695 #
straight-curve $-1 -79.334696493423266 0 10.937217619329695 0 -1 0 I I #
point $-1 -79.334696493423266 34.016079742262058 10.937217619329695 #
point $-1 -79.334696493423266 -34.016079742262058 10.937217619329695 #
straight-curve $-1 79.334696493423266 -34.016079742262058 0 0 0 -1 I I #
straight-curve $-1 79.334696493423266 34.016079742262058 0 0 0 -1 I I #
plane-surface $-1 7.082087901104309 0 0 -1 0 0 0 0 1 forward_v I I I I #
coedge $-1 $411 $409 $413 $567 reversed $264 $-1 #
edge $-1 $424 -1.5 $569 1.5 $423 $646 forward 7 unknown #
vertex $-1 $567 $647 #
straight-curve $-1 -7.082087901104309 -34.016079742262058 0 0 0 -1 I I #
edge $-1 $565 -34.016079742262058 $569 34.016079742262058 $563 $648 forward 7 unknown #
straight-curve $-1 0 -34.016079742262058 -1.5 -1 0 0 I I #
vertex $-1 $416 $649 #
straight-curve $-1 0 34.016079742262058 -1.5 1 0 0 I I #
point $-1 7.082087901104309 34.016079742262058 -1.5 #
point $-1 7.082087901104309 -34.016079742262058 -1.5 #
straight-curve $-1 -7.082087901104309 0 1.5 0 -1 0 I I #
point $-1 -7.082087901104309 34.016079742262058 1.5 #
point $-1 -7.082087901104309 -34.016079742262058 1.5 #
straight-curve $-1 7.082087901104309 -34.016079742262058 0 0 0 -1 I I #
straight-curve $-1 7.082087901104309 34.016079742262058 0 0 0 -1 I I #
plane-surface $-1 12.348014247753134 0 0 -1 0 0 0 0 1 forward_v I I I I #
coedge $-1 $438 $436 $440 $583 reversed $283 $-1 #
edge $-1 $451 -158.66939298684656 $585 158.66939298684656 $450 $650 forward 7 unknown #
vertex $-1 $583 $651 #
straight-curve $-1 -12.348014247753134 -317.33878597369306 0 0 0 -1 I I #
edge $-1 $581 -317.33878597369306 $585 317.33878597369306 $579 $652 forward 7 unknown #
straight-curve $-1 0 -317.33878597369306 -158.66939298684656 -1 0 0 I I #
vertex $-1 $443 $653 #
straight-curve $-1 0 317.33878597369306 -158.66939298684656 1 0 0 I I #
point $-1 12.348014247753134 317.33878597369306 -158.66939298684656 #
point $-1 12.348014247753134 -317.33878597369306 -158.66939298684656 #
straight-curve $-1 -12.348014247753134 0 158.66939298684656 0 -1 0 I I #
point $-1 -12.348014247753134 317.33878597369306 158.66939298684656 #
point $-1 -12.348014247753134 -317.33878597369306 158.66939298684656 #
straight-curve $-1 12.348014247753134 -317.33878597369306 0 0 0 -1 I I #
straight-curve $-1 12.348014247753134 317.33878597369306 0 0 0 -1 I I #
edge $-1 $654 1 $654 0 $460 $-1 forward 7 unknown #
point $-1 1 0 -0.5 #
edge $-1 $655 1 $655 0 $464 $-1 forward 7 unknown #
point $-1 1 0 -0.5 #
edge $-1 $656 1 $656 0 $468 $-1 forward 7 unknown #
point $-1 1 0 -0.5 #
plane-surface $-1 12.348014247753134 0 0 -1 0 0 0 0 1 forward_v I I I I #
coedge $-1 $477 $475 $479 $605 reversed $317 $-1 #
edge $-1 $490 -158.66939298684656 $607 158.66939298684656 $489 $657 forward 7 unknown #
vertex $-1 $605 $658 #
straight-curve $-1 -12.348014247753134 -317.33878597369306 0 0 0 -1 I I #
edge $-1 $603 -317.33878597369306 $607 317.33878597369306 $601 $659 forward 7 unknown #
straight-curve $-1 0 -317.33878597369306 -158.66939298684656 -1 0 0 I I #
vertex $-1 $482 $660 #
straight-curve $-1 0 317.33878597369306 -158.66939298684656 1 0 0 I I #
point $-1 12.348014247753134 317.33878597369306 -158.66939298684656 #
point $-1 12.348014247753134 -317.33878597369306 -158.66939298684656 #
straight-curve $-1 -12.348014247753134 0 158.66939298684656 0 -1 0 I I #
point $-1 -12.348014247753134 317.33878597369306 158.66939298684656 #
point $-1 -12.348014247753134 -317.33878597369306 158.66939298684656 #
straight-curve $-1 12.348014247753134 -317.33878597369306 0 0 0 -1 I I #
straight-curve $-1 12.348014247753134 317.33878597369306 0 0 0 -1 I I #
edge $-1 $661 1 $661 0 $499 $-1 forward 7 unknown #
point $-1 1 0 -0.5 #
edge $-1 $662 1 $662 0 $503 $-1 forward 7 unknown #
point $-1 1 0 -0.5 #
edge $-1 $663 1 $663 0 $507 $-1 forward 7 unknown #
point $-1 1 0 -0.5 #
plane-surface $-1 7.9714470449565766 0 0 -1 0 0 0 0 1 forward_v I I I I #
coedge $-1 $516 $514 $518 $627 reversed $351 $-1 #
edge $-1 $529 -158.66939298684653 $629 158.66939298684653 $528 $664 forward 7 unknown #
vertex $-1 $627 $665 #
straight-curve $-1 -7.9714470449565766 -317.33878597369306 0 0 0 -1 I I #
edge $-1 $625 -317.33878597369306 $629 317.33878597369306 $623 $666 forward 7 unknown #
straight-curve $-1 0 -317.33878597369306 -158.66939298684653 -1 0 0 I I #
vertex $-1 $521 $667 #
straight-curve $-1 0 317.33878597369306 -158.66939298684653 1 0 0 I I #
point $-1 7.9714470449565766 317.33878597369306 -158.66939298684653 #
point $-1 7.9714470449565766 -317.33878597369306 -158.66939298684653 #
straight-curve $-1 -7.9714470449565766 0 158.66939298684653 0 -1 0 I I #
point $-1 -7.9714470449565766 317.33878597369306 158.66939298684653 #
point $-1 -7.9714470449565766 -317.33878597369306 158.66939298684653 #
straight-curve $-1 7.9714470449565766 -317.33878597369306 0 0 0 -1 I I #
straight-curve $-1 7.9714470449565766 317.33878597369306 0 0 0 -1 I I #
edge $-1 $668 1 $668 0 $538 $-1 forward 7 unknown #
point $-1 1 0 -0.5 #
edge $-1 $669 1 $669 0 $542 $-1 forward 7 unknown #
point $-1 1 0 -0.5 #
straight-curve $-1 -79.334696493423266 34.016079742262058 0 0 0 -1 I I #
point $-1 -79.334696493423266 -34.016079742262058 -10.937217619329695 #
straight-curve $-1 -79.334696493423266 0 -10.937217619329695 0 1 0 I I #
point $-1 -79.334696493423266 34.016079742262058 -10.937217619329695 #
straight-curve $-1 -7.082087901104309 34.016079742262058 0 0 0 -1 I I #
point $-1 -7.082087901104309 -34.016079742262058 -1.5 #
straight-curve $-1 -7.082087901104309 0 -1.5 0 1 0 I I #
point $-1 -7.082087901104309 34.016079742262058 -1.5 #
straight-curve $-1 -12.348014247753134 317.33878597369306 0 0 0 -1 I I #
point $-1 -12.348014247753134 -317.33878597369306 -158.66939298684656 #
straight-curve $-1 -12.348014247753134 0 -158.66939298684656 0 1 0 I I #
point $-1 -12.348014247753134 317.33878597369306 -158.66939298684656 #
vertex $-1 $594 $670 #
vertex $-1 $596 $671 #
vertex $-1 $598 $672 #
straight-curve $-1 -12.348014247753134 317.33878597369306 0 0 0 -1 I I #
point $-1 -12.348014247753134 -317.33878597369306 -158.66939298684656 #
straight-curve $-1 -12.348014247753134 0 -158.66939298684656 0 1 0 I I #
point $-1 -12.348014247753134 317.33878597369306 -158.66939298684656 #
vertex $-1 $616 $673 #
vertex $-1 $618 $674 #
vertex $-1 $620 $675 #
straight-curve $-1 -7.9714470449565766 317.33878597369306 0 0 0 -1 I I #
point $-1 -7.9714470449565766 -317.33878597369306 -158.66939298684653 #
straight-curve $-1 -7.9714470449565766 0 -158.66939298684653 0 1 0 I I #
point $-1 -7.9714470449565766 317.33878597369306 -158.66939298684653 #
vertex $-1 $638 $676 #
vertex $-1 $640 $677 #
point $-1 0 0 0.5 #
point $-1 0 0 0.5 #
point $-1 0 0 0.5 #
point $-1 0 0 0.5 #
point $-1 0 0 0.5 #
point $-1 0 0 0.5 #
point $-1 0 0 0.5 #
point $-1 0 0 0.5 #
End-of-ACIS-data 