500 0 13 0           
7 Unknown 11 ACIS 5.0 NT 24 Thu Mar 25 15:41:04 1999 
-1 9.9999999999999995e-007 1e-010 
body $-1 $13 $-1 $14 #
body $-1 $15 $-1 $16 #
body $-1 $17 $-1 $18 #
body $-1 $19 $-1 $20 #
body $-1 $21 $-1 $22 #
body $-1 $23 $-1 $24 #
body $-1 $25 $-1 $26 #
body $-1 $27 $-1 $28 #
body $-1 $29 $-1 $30 #
body $-1 $31 $-1 $32 #
body $-1 $33 $-1 $34 #
body $-1 $35 $-1 $36 #
body $-1 $37 $-1 $38 #
lump $-1 $-1 $39 $0 #
transform $-1 1 0 0 0 1 0 0 0 1 42.215643787957397 21.998206470591061 6.5703923791125405 1 rotate no_reflect no_shear #
lump $-1 $-1 $40 $1 #
transform $-1 1 0 0 0 1 0 0 0 1 42.215643787957397 21.998206470591061 6.5703923791125405 1 rotate no_reflect no_shear #
lump $-1 $-1 $41 $2 #
transform $-1 1 0 0 0 1 0 0 0 1 42.215643787957397 21.998206470591061 6.5703923791125405 1 rotate no_reflect no_shear #
lump $-1 $-1 $42 $3 #
transform $-1 1 0 0 0 1 0 0 0 1 42.215643787957397 21.998206470591061 6.5703923791125405 1 rotate no_reflect no_shear #
lump $-1 $-1 $43 $4 #
transform $-1 1 0 0 0 1 0 0 0 1 42.215643787957397 21.998206470591061 6.5703923791125405 1 rotate no_reflect no_shear #
lump $-1 $-1 $44 $5 #
transform $-1 1 0 0 0 1 0 0 0 1 42.215643787957397 21.998206470591061 6.5703923791125405 1 rotate no_reflect no_shear #
lump $-1 $-1 $45 $6 #
transform $-1 1 0 0 0 1 0 0 0 1 42.215643787957397 21.998206470591061 6.5703923791125405 1 rotate no_reflect no_shear #
lump $-1 $-1 $46 $7 #
transform $-1 1 0 0 0 1 0 0 0 1 42.215643787957397 21.998206470591061 6.5703923791125405 1 rotate no_reflect no_shear #
lump $-1 $-1 $47 $8 #
transform $-1 1 0 0 0 1 0 0 0 1 42.215643787957397 21.998206470591061 6.5703923791125405 1 rotate no_reflect no_shear #
lump $-1 $-1 $48 $9 #
transform $-1 1 0 0 0 1 0 0 0 1 42.215643787957397 21.998206470591061 6.5703923791125405 1 rotate no_reflect no_shear #
lump $-1 $-1 $49 $10 #
transform $-1 1 0 0 0 1 0 0 0 1 42.215643787957397 21.998206470591061 6.5703923791125405 1 rotate no_reflect no_shear #
lump $-1 $-1 $50 $11 #
transform $-1 1 0 0 0 1 0 0 0 1 42.215643787957397 21.998206470591061 6.5703923791125405 1 rotate no_reflect no_shear #
lump $-1 $-1 $51 $12 #
transform $-1 1 0 0 0 1 0 0 0 1 42.215643787957397 21.998206470591061 6.5703923791125405 1 rotate no_reflect no_shear #
shell $-1 $-1 $-1 $52 $-1 $13 #
shell $-1 $-1 $-1 $53 $-1 $15 #
shell $-1 $-1 $-1 $54 $-1 $17 #
shell $-1 $-1 $-1 $55 $-1 $19 #
shell $-1 $-1 $-1 $56 $-1 $21 #
shell $-1 $-1 $-1 $57 $-1 $23 #
shell $-1 $-1 $-1 $58 $-1 $25 #
shell $-1 $-1 $-1 $59 $-1 $27 #
shell $-1 $-1 $-1 $60 $-1 $29 #
shell $-1 $-1 $-1 $61 $-1 $31 #
shell $-1 $-1 $-1 $62 $-1 $33 #
shell $-1 $-1 $-1 $63 $-1 $35 #
shell $-1 $-1 $-1 $64 $-1 $37 #
face $-1 $65 $66 $39 $-1 $67 reversed single #
face $-1 $68 $69 $40 $-1 $70 forward single #
face $-1 $71 $72 $41 $-1 $73 forward single #
face $-1 $74 $75 $42 $-1 $76 reversed single #
face $-1 $77 $78 $43 $-1 $79 forward single #
face $-1 $80 $81 $44 $-1 $82 reversed single #
face $-1 $83 $84 $45 $-1 $85 forward single #
face $-1 $86 $87 $46 $-1 $88 forward single #
face $-1 $89 $90 $47 $-1 $91 forward single #
face $-1 $92 $93 $48 $-1 $94 reversed single #
face $-1 $95 $96 $49 $-1 $97 forward single #
face $-1 $98 $99 $50 $-1 $100 forward single #
face $-1 $101 $102 $51 $-1 $103 forward single #
face $-1 $104 $105 $39 $-1 $106 reversed single #
loop $-1 $-1 $107 $52 #
plane-surface $-1 0 21.998206470591061 0 0 -1 0 0 0 -1 forward_v I I I I #
face $-1 $108 $109 $40 $-1 $110 reversed single #
loop $-1 $-1 $111 $53 #
plane-surface $-1 0 -21.998206470591061 0 0 1 0 0 0 1 forward_v I I I I #
face $-1 $112 $113 $41 $-1 $114 reversed single #
loop $-1 $-1 $115 $54 #
plane-surface $-1 0 21.998206470591061 0 0 -1 0 0 0 -1 forward_v I I I I #
face $-1 $116 $117 $42 $-1 $118 reversed single #
loop $-1 $-1 $119 $55 #
plane-surface $-1 33.886451986512633 -4.3013731068232737 119.3185145548027 0 -1 0 -0.6560590369687036 0 -0.75470957328743171 forward_v I I I I #
face $-1 $120 $121 $43 $-1 $122 forward single #
loop $-1 $123 $124 $56 #
cone-surface $-1 38.122597257126841 -7.3248945398415444 2.8909161143814543 -0.6560590369687036 0 -0.75470957328743171 0.75470957328743171 0 -0.6560590369687036 1 I I 0 1 1 forward I I I I #
face $-1 $125 $126 $44 $-1 $127 reversed single #
loop $-1 $-1 $128 $57 #
plane-surface $-1 -95.34997536187231 -10.74115674496009 67.41136267628093 0 1 0 -0.62932039886446345 0 0.77714595512881146 forward_v I I I I #
face $-1 $129 $130 $45 $-1 $131 forward single #
loop $-1 $132 $133 $58 #
cone-surface $-1 -38.839755145717227 -9.2555284979684913 3.6547443936178352 0.62932039886446345 0 -0.77714595512881146 0.38857297756440573 0 0.31466019943223172 1 I I 0 1 0.5 forward I I I I #
face $-1 $134 $135 $46 $-1 $136 forward single #
loop $-1 $137 $138 $59 #
cone-surface $-1 -38.839755145717227 -7.0270861274810912 3.6547443936178352 0.62932039886446345 0 -0.77714595512881146 0.38857297756440573 0 0.31466019943223172 1 I I 0 1 0.5 forward I I I I #
face $-1 $139 $140 $47 $-1 $141 forward single #
loop $-1 $142 $143 $60 #
cone-surface $-1 -38.839755145717227 -4.7986437569936911 3.6547443936178352 0.62932039886446345 0 -0.77714595512881146 0.38857297756440573 0 0.31466019943223172 1 I I 0 1 0.5 forward I I I I #
face $-1 $144 $145 $48 $-1 $146 reversed single #
loop $-1 $-1 $147 $61 #
plane-surface $-1 -95.34997536187231 3.3130155100020957 67.41136267628093 0 1 0 -0.62932039886446345 0 0.77714595512881146 forward_v I I I I #
face $-1 $148 $149 $49 $-1 $150 forward single #
loop $-1 $151 $152 $62 #
cone-surface $-1 -38.839755145717227 4.7986437569936946 3.6547443936178352 0.62932039886446345 0 -0.77714595512881146 0.38857297756440573 0 0.31466019943223172 1 I I 0 1 0.5 forward I I I I #
face $-1 $153 $154 $50 $-1 $155 forward single #
loop $-1 $156 $157 $63 #
cone-surface $-1 -38.839755145717227 7.0270861274810947 3.6547443936178352 0.62932039886446345 0 -0.77714595512881146 0.38857297756440573 0 0.31466019943223172 1 I I 0 1 0.5 forward I I I I #
face $-1 $158 $159 $51 $-1 $160 forward single #
loop $-1 $161 $162 $64 #
cone-surface $-1 -38.839755145717227 9.2555284979684949 3.6547443936178352 0.62932039886446345 0 -0.77714595512881146 0.38857297756440573 0 0.31466019943223172 1 I I 0 1 0.5 forward I I I I #
face $-1 $163 $164 $39 $-1 $165 forward single #
loop $-1 $-1 $166 $65 #
plane-surface $-1 0 -21.998206470591061 0 0 1 0 0 0 1 forward_v I I I I #
coedge $-1 $167 $168 $169 $170 reversed $66 $-1 #
face $-1 $171 $172 $40 $-1 $173 reversed single #
loop $-1 $-1 $174 $68 #
plane-surface $-1 0 0 -6.5703923791125405 0 0 1 1 0 0 forward_v I I I I #
coedge $-1 $175 $176 $177 $178 forward $69 $-1 #
face $-1 $179 $180 $41 $-1 $181 reversed single #
loop $-1 $-1 $182 $71 #
plane-surface $-1 0 0 -6.5703923791125405 0 0 1 1 0 0 forward_v I I I I #
coedge $-1 $183 $184 $185 $186 forward $72 $-1 #
face $-1 $187 $188 $42 $-1 $189 reversed single #
loop $-1 $-1 $190 $74 #
plane-surface $-1 -21.505457230569696 -7.3248945398415461 55.597413536275617 0.6560590369687036 0 0.75470957328743171 0.75470957328743171 0 -0.6560590369687036 forward_v I I I I #
coedge $-1 $191 $192 $193 $194 reversed $75 $-1 #
face $-1 $-1 $195 $43 $-1 $196 forward single #
loop $-1 $197 $198 $77 #
cone-surface $-1 37.362504199463864 -7.3248945398415444 2.0165290929662874 -0.6560590369687036 0 -0.75470957328743171 0.37735478664371586 0 -0.3280295184843518 1 I I -0.70710678118654746 0.70710678118654746 0.5 forward I I I I #
loop $-1 $-1 $199 $56 #
coedge $-1 $124 $124 $200 $201 reversed $78 $-1 #
face $-1 $202 $203 $44 $-1 $204 reversed single #
loop $-1 $-1 $205 $80 #
plane-surface $-1 -42.215643787957397 -7.0270861274810912 1.7959290503412717 -0.62932039886446345 0 0.77714595512881146 0.77714595512881146 0 0.62932039886446345 forward_v I I I I #
coedge $-1 $206 $207 $208 $209 reversed $81 $-1 #
face $-1 $-1 $210 $45 $-1 $211 forward single #
loop $-1 $212 $213 $83 #
cone-surface $-1 -38.254521937489486 -9.2555284979684913 2.932041583726555 0.62932039886446345 0 -0.77714595512881146 0.19428648878220287 0 0.15733009971611586 1 I I -0.70710678118654746 0.70710678118654746 0.25 forward I I I I #
loop $-1 $-1 $214 $58 #
coedge $-1 $133 $133 $215 $216 reversed $84 $-1 #
face $-1 $-1 $217 $46 $-1 $218 forward single #
loop $-1 $219 $220 $86 #
cone-surface $-1 -38.254521937489486 -7.0270861274810912 2.932041583726555 0.62932039886446345 0 -0.77714595512881146 0.19428648878220287 0 0.15733009971611586 1 I I -0.70710678118654746 0.70710678118654746 0.25 forward I I I I #
loop $-1 $-1 $221 $59 #
coedge $-1 $138 $138 $222 $223 reversed $87 $-1 #
face $-1 $-1 $224 $47 $-1 $225 forward single #
loop $-1 $226 $227 $89 #
cone-surface $-1 -38.254521937489486 -4.7986437569936911 2.932041583726555 0.62932039886446345 0 -0.77714595512881146 0.19428648878220287 0 0.15733009971611586 1 I I -0.70710678118654746 0.70710678118654746 0.25 forward I I I I #
loop $-1 $-1 $228 $60 #
coedge $-1 $143 $143 $229 $230 reversed $90 $-1 #
face $-1 $231 $232 $48 $-1 $233 reversed single #
loop $-1 $-1 $234 $92 #
plane-surface $-1 -42.215643787957397 7.0270861274810947 1.7959290503412717 -0.62932039886446345 0 0.77714595512881146 0.77714595512881146 0 0.62932039886446345 forward_v I I I I #
coedge $-1 $235 $236 $237 $238 reversed $93 $-1 #
face $-1 $-1 $239 $49 $-1 $240 forward single #
loop $-1 $241 $242 $95 #
cone-surface $-1 -38.254521937489486 4.7986437569936946 2.932041583726555 0.62932039886446345 0 -0.77714595512881146 0.19428648878220287 0 0.15733009971611586 1 I I -0.70710678118654746 0.70710678118654746 0.25 forward I I I I #
loop $-1 $-1 $243 $62 #
coedge $-1 $152 $152 $244 $245 reversed $96 $-1 #
face $-1 $-1 $246 $50 $-1 $247 forward single #
loop $-1 $248 $249 $98 #
cone-surface $-1 -38.254521937489486 7.0270861274810947 2.932041583726555 0.62932039886446345 0 -0.77714595512881146 0.19428648878220287 0 0.15733009971611586 1 I I -0.70710678118654746 0.70710678118654746 0.25 forward I I I I #
loop $-1 $-1 $250 $63 #
coedge $-1 $157 $157 $251 $252 reversed $99 $-1 #
face $-1 $-1 $253 $51 $-1 $254 forward single #
loop $-1 $255 $256 $101 #
cone-surface $-1 -38.254521937489486 9.2555284979684949 2.932041583726555 0.62932039886446345 0 -0.77714595512881146 0.19428648878220287 0 0.15733009971611586 1 I I -0.70710678118654746 0.70710678118654746 0.25 forward I I I I #
loop $-1 $-1 $257 $64 #
coedge $-1 $162 $162 $258 $259 reversed $102 $-1 #
face $-1 $260 $261 $39 $-1 $262 reversed single #
loop $-1 $-1 $263 $104 #
plane-surface $-1 0 0 6.5703923791125405 0 0 1 1 0 0 forward_v I I I I #
coedge $-1 $264 $265 $266 $267 reversed $105 $-1 #
coedge $-1 $268 $107 $269 $270 reversed $66 $-1 #
coedge $-1 $107 $268 $271 $272 forward $66 $-1 #
coedge $-1 $273 $274 $107 $170 forward $261 $-1 #
edge $-1 $275 -42.215643787957397 $276 42.215643787957397 $107 $277 forward 7 unknown #
face $-1 $278 $279 $40 $-1 $280 reversed single #
loop $-1 $-1 $281 $108 #
plane-surface $-1 -38.049768977710784 -27.235651575307084 0 0 1 0 0 0 1 forward_v I I I I #
coedge $-1 $282 $283 $176 $284 forward $109 $-1 #
coedge $-1 $285 $111 $286 $287 reversed $69 $-1 #
coedge $-1 $111 $285 $174 $284 reversed $69 $-1 #
coedge $-1 $288 $289 $111 $178 reversed $279 $-1 #
edge $-1 $290 -6.5703923791125405 $291 6.5703923791125405 $177 $292 forward 7 unknown #
face $-1 $293 $294 $41 $-1 $295 reversed single #
loop $-1 $-1 $296 $112 #
plane-surface $-1 -39.549768977710784 24.616929022949076 0 1 0 0 0 0 -1 forward_v I I I I #
coedge $-1 $297 $298 $184 $299 forward $113 $-1 #
coedge $-1 $300 $115 $301 $302 reversed $72 $-1 #
coedge $-1 $115 $300 $182 $299 reversed $72 $-1 #
coedge $-1 $303 $304 $115 $186 reversed $305 $-1 #
edge $-1 $306 -6.5703923791125405 $307 6.5703923791125405 $185 $308 forward 7 unknown #
face $-1 $309 $310 $42 $-1 $311 forward single #
loop $-1 $-1 $312 $116 #
plane-surface $-1 33.886451986512633 -10.348415972859819 119.3185145548027 0 1 0 0.6560590369687036 0 0.75470957328743171 forward_v I I I I #
coedge $-1 $313 $314 $315 $316 reversed $117 $-1 #
coedge $-1 $192 $119 $317 $318 reversed $75 $-1 #
coedge $-1 $119 $191 $313 $319 reversed $75 $-1 #
coedge $-1 $315 $320 $119 $194 forward $310 $-1 #
edge $-1 $321 -25.272417794701081 $322 -17.950451811397226 $193 $323 forward 7 unknown #
loop $-1 $-1 $200 $120 #
plane-surface $-1 -21.505457230569696 -7.3248945398415461 55.597413536275617 0.6560590369687036 0 0.75470957328743171 0.75470957328743171 0 -0.6560590369687036 forward_v I I I I #
loop $-1 $-1 $324 $77 #
coedge $-1 $198 $198 $199 $325 reversed $121 $-1 #
coedge $-1 $199 $199 $198 $325 forward $123 $-1 #
coedge $-1 $200 $200 $124 $201 forward $195 $-1 #
edge $-1 $326 0 $326 6.2831853071796004 $200 $327 forward 7 unknown #
face $-1 $328 $329 $44 $-1 $330 reversed single #
loop $-1 $-1 $331 $125 #
plane-surface $-1 -95.34997536187231 -3.3130155100020922 67.41136267628093 0 -1 0 0.62932039886446345 0 -0.77714595512881146 forward_v I I I I #
coedge $-1 $332 $333 $334 $335 reversed $126 $-1 #
coedge $-1 $207 $128 $336 $337 reversed $81 $-1 #
coedge $-1 $128 $206 $332 $338 reversed $81 $-1 #
coedge $-1 $334 $339 $128 $209 forward $340 $-1 #
edge $-1 $341 5.4593438929787581 $342 11.355314960435848 $208 $343 forward 7 unknown #
loop $-1 $-1 $215 $129 #
plane-surface $-1 -42.215643787957397 -7.0270861274810912 1.7959290503412717 -0.62932039886446345 0 0.77714595512881146 0.77714595512881146 0 0.62932039886446345 forward_v I I I I #
loop $-1 $-1 $344 $83 #
coedge $-1 $213 $213 $214 $345 reversed $130 $-1 #
coedge $-1 $214 $214 $213 $345 forward $132 $-1 #
coedge $-1 $215 $215 $133 $216 forward $210 $-1 #
edge $-1 $346 0 $346 6.2831853071796004 $215 $347 forward 7 unknown #
loop $-1 $-1 $222 $134 #
plane-surface $-1 -42.215643787957397 -7.0270861274810912 1.7959290503412717 -0.62932039886446345 0 0.77714595512881146 0.77714595512881146 0 0.62932039886446345 forward_v I I I I #
loop $-1 $-1 $348 $86 #
coedge $-1 $220 $220 $221 $349 reversed $135 $-1 #
coedge $-1 $221 $221 $220 $349 forward $137 $-1 #
coedge $-1 $222 $222 $138 $223 forward $217 $-1 #
edge $-1 $350 0 $350 6.2831853071796004 $222 $351 forward 7 unknown #
loop $-1 $-1 $229 $139 #
plane-surface $-1 -42.215643787957397 -7.0270861274810912 1.7959290503412717 -0.62932039886446345 0 0.77714595512881146 0.77714595512881146 0 0.62932039886446345 forward_v I I I I #
loop $-1 $-1 $352 $89 #
coedge $-1 $227 $227 $228 $353 reversed $140 $-1 #
coedge $-1 $228 $228 $227 $353 forward $142 $-1 #
coedge $-1 $229 $229 $143 $230 forward $224 $-1 #
edge $-1 $354 0 $354 6.2831853071796004 $229 $355 forward 7 unknown #
face $-1 $356 $357 $48 $-1 $358 forward single #
loop $-1 $-1 $359 $144 #
plane-surface $-1 -95.34997536187231 10.741156744960094 67.41136267628093 0 -1 0 0.62932039886446345 0 -0.77714595512881146 forward_v I I I I #
coedge $-1 $360 $361 $362 $363 reversed $145 $-1 #
coedge $-1 $236 $147 $364 $365 reversed $93 $-1 #
coedge $-1 $147 $235 $360 $366 reversed $93 $-1 #
coedge $-1 $362 $367 $147 $238 forward $357 $-1 #
edge $-1 $368 5.4593438929787581 $369 11.355314960435848 $237 $370 forward 7 unknown #
loop $-1 $-1 $244 $148 #
plane-surface $-1 -42.215643787957397 7.0270861274810947 1.7959290503412717 -0.62932039886446345 0 0.77714595512881146 0.77714595512881146 0 0.62932039886446345 forward_v I I I I #
loop $-1 $-1 $371 $95 #
coedge $-1 $242 $242 $243 $372 reversed $149 $-1 #
coedge $-1 $243 $243 $242 $372 forward $151 $-1 #
coedge $-1 $244 $244 $152 $245 forward $239 $-1 #
edge $-1 $373 0 $373 6.2831853071796004 $244 $374 forward 7 unknown #
loop $-1 $-1 $251 $153 #
plane-surface $-1 -42.215643787957397 7.0270861274810947 1.7959290503412717 -0.62932039886446345 0 0.77714595512881146 0.77714595512881146 0 0.62932039886446345 forward_v I I I I #
loop $-1 $-1 $375 $98 #
coedge $-1 $249 $249 $250 $376 reversed $154 $-1 #
coedge $-1 $250 $250 $249 $376 forward $156 $-1 #
coedge $-1 $251 $251 $157 $252 forward $246 $-1 #
edge $-1 $377 0 $377 6.2831853071796004 $251 $378 forward 7 unknown #
loop $-1 $-1 $258 $158 #
plane-surface $-1 -42.215643787957397 7.0270861274810947 1.7959290503412717 -0.62932039886446345 0 0.77714595512881146 0.77714595512881146 0 0.62932039886446345 forward_v I I I I #
loop $-1 $-1 $379 $101 #
coedge $-1 $256 $256 $257 $380 reversed $159 $-1 #
coedge $-1 $257 $257 $256 $380 forward $161 $-1 #
coedge $-1 $258 $258 $162 $259 forward $253 $-1 #
edge $-1 $381 0 $381 6.2831853071796004 $258 $382 forward 7 unknown #
face $-1 $383 $384 $39 $-1 $385 reversed single #
loop $-1 $-1 $273 $163 #
plane-surface $-1 0 0 -6.5703923791125405 0 0 1 1 0 0 forward_v I I I I #
coedge $-1 $386 $387 $388 $389 forward $164 $-1 #
coedge $-1 $390 $166 $391 $392 reversed $105 $-1 #
coedge $-1 $166 $390 $393 $394 forward $105 $-1 #
coedge $-1 $274 $273 $166 $267 forward $261 $-1 #
edge $-1 $395 -42.215643787957397 $396 42.215643787957397 $166 $397 forward 7 unknown #
coedge $-1 $168 $167 $386 $398 reversed $66 $-1 #
coedge $-1 $399 $400 $167 $270 forward $384 $-1 #
edge $-1 $401 -6.5703923791125405 $275 6.5703923791125405 $167 $402 forward 7 unknown #
coedge $-1 $388 $403 $168 $272 reversed $404 $-1 #
edge $-1 $405 -6.5703923791125405 $276 6.5703923791125405 $271 $406 forward 7 unknown #
coedge $-1 $266 $169 $403 $407 forward $261 $-1 #
coedge $-1 $169 $266 $399 $408 forward $261 $-1 #
vertex $-1 $170 $409 #
vertex $-1 $407 $410 #
straight-curve $-1 0 21.998206470591061 -6.5703923791125405 1 0 0 I I #
face $-1 $411 $412 $40 $-1 $413 reversed single #
loop $-1 $-1 $177 $171 #
plane-surface $-1 -39.549768977710784 -24.616929022949073 0 1 0 0 0 0 -1 forward_v I I I I #
coedge $-1 $414 $415 $416 $417 forward $172 $-1 #
coedge $-1 $418 $174 $419 $420 forward $109 $-1 #
coedge $-1 $174 $418 $288 $421 forward $109 $-1 #
edge $-1 $290 -39.549768977710784 $422 -36.549768977710784 $174 $423 forward 7 unknown #
coedge $-1 $176 $175 $424 $425 forward $69 $-1 #
coedge $-1 $426 $427 $175 $287 forward $428 $-1 #
edge $-1 $429 36.549768977710784 $291 39.549768977710784 $286 $430 forward 7 unknown #
coedge $-1 $416 $177 $283 $421 reversed $279 $-1 #
coedge $-1 $177 $416 $426 $431 reversed $279 $-1 #
vertex $-1 $284 $432 #
vertex $-1 $431 $433 #
straight-curve $-1 -39.549768977710784 -21.998206470591061 0 0 0 1 I I #
face $-1 $434 $305 $41 $-1 $435 reversed single #
loop $-1 $-1 $436 $179 #
plane-surface $-1 -38.049768977710784 27.235651575307088 0 0 -1 0 0 0 -1 forward_v I I I I #
coedge $-1 $437 $438 $439 $440 forward $180 $-1 #
coedge $-1 $441 $182 $437 $442 forward $113 $-1 #
coedge $-1 $182 $441 $303 $443 forward $113 $-1 #
edge $-1 $306 36.549768977710784 $444 39.549768977710784 $182 $445 forward 7 unknown #
coedge $-1 $184 $183 $446 $447 forward $72 $-1 #
coedge $-1 $448 $449 $183 $302 forward $450 $-1 #
edge $-1 $451 -39.549768977710784 $307 -36.549768977710784 $301 $452 forward 7 unknown #
coedge $-1 $453 $185 $298 $443 reversed $305 $-1 #
coedge $-1 $185 $453 $448 $454 reversed $305 $-1 #
loop $-1 $-1 $185 $293 #
vertex $-1 $299 $455 #
vertex $-1 $454 $456 #
straight-curve $-1 -36.549768977710784 21.998206470591061 0 0 0 1 I I #
face $-1 $-1 $457 $42 $-1 $458 reversed single #
loop $-1 $-1 $193 $187 #
plane-surface $-1 0 0 6.5703923791125405 0 0 1 1 0 0 forward_v I I I I #
coedge $-1 $459 $460 $461 $462 reversed $188 $-1 #
coedge $-1 $463 $190 $192 $319 forward $117 $-1 #
coedge $-1 $190 $463 $459 $464 forward $117 $-1 #
coedge $-1 $461 $193 $190 $316 forward $310 $-1 #
edge $-1 $322 0.6389258369025006 $465 6.6859687029390455 $315 $466 forward 7 unknown #
coedge $-1 $467 $468 $191 $318 forward $457 $-1 #
edge $-1 $469 -59.453752958208064 $321 -53.088864898288811 $317 $470 forward 7 unknown #
edge $-1 $322 74.729587422026228 $469 84.431287575914794 $192 $471 forward 7 unknown #
coedge $-1 $193 $461 $467 $472 forward $310 $-1 #
vertex $-1 $194 $473 #
vertex $-1 $194 $474 #
straight-curve $-1 16.943225993256316 -4.3013731068232737 6.5703923791125405 -1 0 0 I I #
coedge $-1 $324 $324 $-1 $475 reversed $197 $-1 #
edge $-1 $476 0 $476 6.2831853071796004 $198 $477 forward 7 unknown #
vertex $-1 $201 $478 #
ellipse-curve $-1 38.55466079630547 -7.3248945398415444 3.3879483491529072 0.6560590369687036 0 0.75470957328743171 0.75470957328743171 0 -0.6560590369687036 1 I I #
face $-1 $-1 $340 $44 $-1 $479 forward single #
loop $-1 $-1 $480 $202 #
plane-surface $-1 -42.215643787957397 0 0 1 0 0 0 0 -1 forward_v I I I I #
coedge $-1 $481 $482 $483 $484 reversed $203 $-1 #
coedge $-1 $485 $205 $207 $338 forward $126 $-1 #
coedge $-1 $205 $485 $481 $486 forward $126 $-1 #
coedge $-1 $483 $208 $205 $335 forward $340 $-1 #
edge $-1 $342 -7.2276136812195446 $487 0.20052755373845343 $334 $488 forward 7 unknown #
coedge $-1 $489 $490 $206 $337 forward $329 $-1 #
edge $-1 $491 -31.909752287799193 $341 -27.135288959027925 $336 $492 forward 7 unknown #
edge $-1 $342 -7.5866972330568672 $491 0 $207 $493 forward 7 unknown #
coedge $-1 $208 $483 $489 $494 forward $340 $-1 #
loop $-1 $-1 $483 $328 #
vertex $-1 $337 $495 #
vertex $-1 $209 $496 #
straight-curve $-1 -47.674987680936155 -10.74115674496009 6.5703923791125405 1 0 0 I I #
coedge $-1 $344 $344 $-1 $497 reversed $212 $-1 #
edge $-1 $498 0 $498 6.2831853071796004 $213 $499 forward 7 unknown #
vertex $-1 $216 $500 #
ellipse-curve $-1 -39.267658254228849 -9.2555284979684913 4.183160714726907 -0.62932039886446345 0 0.77714595512881146 0.38857297756440573 0 0.31466019943223172 1 I I #
coedge $-1 $348 $348 $-1 $501 reversed $219 $-1 #
edge $-1 $502 0 $502 6.2831853071796004 $220 $503 forward 7 unknown #
vertex $-1 $223 $504 #
ellipse-curve $-1 -39.267658254228849 -7.0270861274810912 4.183160714726907 -0.62932039886446345 0 0.77714595512881146 0.38857297756440573 0 0.31466019943223172 1 I I #
coedge $-1 $352 $352 $-1 $505 reversed $226 $-1 #
edge $-1 $506 0 $506 6.2831853071796004 $227 $507 forward 7 unknown #
vertex $-1 $230 $508 #
ellipse-curve $-1 -39.267658254228849 -4.7986437569936911 4.183160714726907 -0.62932039886446345 0 0.77714595512881146 0.38857297756440573 0 0.31466019943223172 1 I I #
face $-1 $-1 $509 $48 $-1 $510 reversed single #
loop $-1 $-1 $237 $231 #
plane-surface $-1 0 0 6.5703923791125405 0 0 1 1 0 0 forward_v I I I I #
coedge $-1 $511 $512 $513 $514 reversed $232 $-1 #
coedge $-1 $515 $234 $236 $366 forward $145 $-1 #
coedge $-1 $234 $515 $511 $516 forward $145 $-1 #
coedge $-1 $513 $237 $234 $363 forward $357 $-1 #
edge $-1 $369 -0.20052755373845166 $517 7.2276136812195464 $362 $518 forward 7 unknown #
coedge $-1 $519 $520 $235 $365 forward $509 $-1 #
edge $-1 $521 -31.909752287799193 $368 -27.135288959027925 $364 $522 forward 7 unknown #
edge $-1 $369 -7.5866972330568672 $521 0 $236 $523 forward 7 unknown #
coedge $-1 $237 $513 $519 $524 forward $357 $-1 #
vertex $-1 $365 $525 #
vertex $-1 $238 $526 #
straight-curve $-1 -47.674987680936155 3.3130155100020957 6.5703923791125405 1 0 0 I I #
coedge $-1 $371 $371 $-1 $527 reversed $241 $-1 #
edge $-1 $528 0 $528 6.2831853071796004 $242 $529 forward 7 unknown #
vertex $-1 $245 $530 #
ellipse-curve $-1 -39.267658254228849 4.7986437569936946 4.183160714726907 -0.62932039886446345 0 0.77714595512881146 0.38857297756440573 0 0.31466019943223172 1 I I #
coedge $-1 $375 $375 $-1 $531 reversed $248 $-1 #
edge $-1 $532 0 $532 6.2831853071796004 $249 $533 forward 7 unknown #
vertex $-1 $252 $534 #
ellipse-curve $-1 -39.267658254228849 7.0270861274810947 4.183160714726907 -0.62932039886446345 0 0.77714595512881146 0.38857297756440573 0 0.31466019943223172 1 I I #
coedge $-1 $379 $379 $-1 $535 reversed $255 $-1 #
edge $-1 $536 0 $536 6.2831853071796004 $256 $537 forward 7 unknown #
vertex $-1 $259 $538 #
ellipse-curve $-1 -39.267658254228849 9.2555284979684949 4.183160714726907 -0.62932039886446345 0 0.77714595512881146 0.38857297756440573 0 0.31466019943223172 1 I I #
face $-1 $-1 $404 $39 $-1 $539 reversed single #
loop $-1 $-1 $269 $260 #
plane-surface $-1 -42.215643787957397 0 0 1 0 0 0 0 -1 forward_v I I I I #
coedge $-1 $540 $263 $268 $398 forward $164 $-1 #
coedge $-1 $263 $540 $390 $541 forward $164 $-1 #
coedge $-1 $391 $271 $263 $389 reversed $404 $-1 #
edge $-1 $542 -21.998206470591061 $405 21.998206470591061 $388 $543 forward 7 unknown #
coedge $-1 $265 $264 $387 $541 reversed $105 $-1 #
coedge $-1 $403 $388 $264 $392 forward $404 $-1 #
edge $-1 $542 -6.5703923791125405 $395 6.5703923791125405 $391 $544 forward 7 unknown #
coedge $-1 $400 $399 $265 $394 reversed $384 $-1 #
edge $-1 $545 -6.5703923791125405 $396 6.5703923791125405 $393 $546 forward 7 unknown #
vertex $-1 $392 $547 #
vertex $-1 $408 $548 #
straight-curve $-1 0 -21.998206470591061 -6.5703923791125405 -1 0 0 I I #
edge $-1 $405 -42.215643787957397 $401 42.215643787957397 $268 $549 forward 7 unknown #
coedge $-1 $393 $269 $274 $408 reversed $384 $-1 #
coedge $-1 $269 $393 $540 $550 reversed $384 $-1 #
vertex $-1 $398 $551 #
straight-curve $-1 -42.215643787957397 21.998206470591061 0 0 0 -1 I I #
coedge $-1 $271 $391 $273 $407 reversed $404 $-1 #
loop $-1 $-1 $391 $383 #
vertex $-1 $389 $552 #
straight-curve $-1 42.215643787957397 21.998206470591061 0 0 0 -1 I I #
edge $-1 $276 -21.998206470591061 $395 21.998206470591061 $403 $553 forward 7 unknown #
edge $-1 $396 -21.998206470591061 $275 21.998206470591061 $399 $554 forward 7 unknown #
point $-1 -42.215643787957397 21.998206470591061 -6.5703923791125405 #
point $-1 42.215643787957397 21.998206470591061 -6.5703923791125405 #
face $-1 $-1 $428 $40 $-1 $555 forward single #
loop $-1 $-1 $556 $278 #
plane-surface $-1 -36.549768977710784 -24.616929022949073 0 -1 0 0 0 0 1 forward_v I I I I #
coedge $-1 $557 $281 $418 $558 reversed $172 $-1 #
coedge $-1 $281 $557 $559 $560 reversed $172 $-1 #
coedge $-1 $289 $288 $281 $417 reversed $279 $-1 #
edge $-1 $561 -6.5703923791125405 $562 6.5703923791125405 $416 $563 forward 7 unknown #
coedge $-1 $283 $282 $414 $558 forward $109 $-1 #
coedge $-1 $424 $556 $282 $420 reversed $412 $-1 #
edge $-1 $422 -2.6187225523580118 $564 2.6187225523580118 $419 $565 forward 7 unknown #
edge $-1 $562 -2.6187225523580118 $290 2.6187225523580118 $288 $566 forward 7 unknown #
vertex $-1 $420 $567 #
straight-curve $-1 0 -21.998206470591061 -6.5703923791125405 1 0 0 I I #
coedge $-1 $568 $419 $285 $425 reversed $412 $-1 #
edge $-1 $429 -6.5703923791125405 $422 6.5703923791125405 $424 $569 forward 7 unknown #
coedge $-1 $559 $286 $289 $431 forward $428 $-1 #
coedge $-1 $286 $559 $568 $570 forward $428 $-1 #
loop $-1 $-1 $286 $411 #
vertex $-1 $287 $571 #
straight-curve $-1 0 -21.998206470591061 6.5703923791125405 -1 0 0 I I #
edge $-1 $291 -2.6187225523580118 $561 2.6187225523580118 $289 $572 forward 7 unknown #
point $-1 -39.549768977710784 -21.998206470591061 -6.5703923791125405 #
point $-1 -39.549768977710784 -21.998206470591061 6.5703923791125405 #
face $-1 $-1 $450 $41 $-1 $573 forward single #
plane-surface $-1 -36.549768977710784 24.616929022949076 0 -1 0 0 0 0 1 forward_v I I I I #
coedge $-1 $574 $575 $453 $576 forward $294 $-1 #
coedge $-1 $446 $296 $297 $442 reversed $180 $-1 #
coedge $-1 $296 $446 $449 $577 reversed $180 $-1 #
coedge $-1 $575 $574 $296 $440 reversed $294 $-1 #
edge $-1 $578 -6.5703923791125405 $579 6.5703923791125405 $439 $580 forward 7 unknown #
coedge $-1 $298 $297 $574 $581 forward $113 $-1 #
edge $-1 $444 -2.6187225523580118 $579 2.6187225523580118 $437 $582 forward 7 unknown #
edge $-1 $583 -2.6187225523580118 $306 2.6187225523580118 $303 $584 forward 7 unknown #
vertex $-1 $442 $585 #
straight-curve $-1 0 21.998206470591061 -6.5703923791125405 -1 0 0 I I #
coedge $-1 $438 $437 $300 $447 reversed $180 $-1 #
edge $-1 $451 -6.5703923791125405 $444 6.5703923791125405 $446 $586 forward 7 unknown #
coedge $-1 $587 $301 $304 $454 forward $450 $-1 #
coedge $-1 $301 $587 $438 $577 forward $450 $-1 #
loop $-1 $-1 $301 $434 #
vertex $-1 $302 $588 #
straight-curve $-1 0 21.998206470591061 6.5703923791125405 1 0 0 I I #
coedge $-1 $304 $303 $436 $576 reversed $305 $-1 #
edge $-1 $307 -2.6187225523580118 $589 2.6187225523580118 $304 $590 forward 7 unknown #
point $-1 -36.549768977710784 21.998206470591064 -6.5703923791125405 #
point $-1 -36.549768977710784 21.998206470591064 6.5703923791125405 #
loop $-1 $-1 $317 $309 #
plane-surface $-1 42.215643787957397 0 0 -1 0 0 0 0 1 forward_v I I I I #
coedge $-1 $460 $312 $314 $464 reversed $188 $-1 #
coedge $-1 $312 $459 $591 $592 reversed $188 $-1 #
coedge $-1 $320 $315 $312 $462 forward $310 $-1 #
edge $-1 $465 17.950451811397226 $593 25.272417794701081 $461 $594 forward 7 unknown #
coedge $-1 $314 $313 $468 $595 reversed $117 $-1 #
edge $-1 $596 -84.431287575914794 $465 -74.729587422026228 $459 $597 forward 7 unknown #
vertex $-1 $316 $598 #
straight-curve $-1 34.893677804653549 -3.6624472699207731 6.5703923791125476 0 -1 0 I I #
coedge $-1 $591 $317 $320 $472 reversed $457 $-1 #
coedge $-1 $317 $591 $463 $595 forward $457 $-1 #
vertex $-1 $318 $599 #
straight-curve $-1 42.215643787957397 -4.3013731068232737 59.659257277401352 0 0 1 I I #
straight-curve $-1 -21.505457230569696 -4.3013731068232737 55.597413536275617 0.75470957328743171 0 -0.6560590369687036 I I #
edge $-1 $593 -10.348415972859819 $321 -4.3013731068232737 $467 $600 forward 7 unknown #
point $-1 42.215643787957397 -4.3013731068232737 6.5703923791125405 #
point $-1 34.893677804653542 -4.3013731068232737 6.5703923791125476 #
edge $-1 $601 1 $601 0 $324 $-1 forward 7 unknown #
vertex $-1 $325 $602 #
ellipse-curve $-1 37.690533717948213 -7.3248945398415444 2.3938838796100033 0.6560590369687036 0 0.75470957328743171 0.75470957328743171 0 -0.6560590369687036 1 I I #
point $-1 39.309370369592905 -7.3248945398415444 2.7318893121842014 #
plane-surface $-1 0 0 6.5703923791125405 0 0 1 1 0 0 forward_v I I I I #
coedge $-1 $490 $489 $482 $603 forward $329 $-1 #
coedge $-1 $482 $331 $333 $486 reversed $203 $-1 #
coedge $-1 $331 $481 $480 $603 reversed $203 $-1 #
coedge $-1 $339 $334 $331 $484 forward $340 $-1 #
edge $-1 $487 -11.355314960435848 $604 -5.4593438929787581 $483 $605 forward 7 unknown #
coedge $-1 $333 $332 $490 $606 reversed $126 $-1 #
edge $-1 $607 0 $487 7.5866972330568672 $481 $608 forward 7 unknown #
vertex $-1 $335 $609 #
straight-curve $-1 -36.319672720500307 -3.5135430637405456 6.5703923791125405 0 1 0 I I #
coedge $-1 $480 $336 $339 $494 reversed $329 $-1 #
coedge $-1 $336 $480 $485 $606 forward $329 $-1 #
vertex $-1 $337 $610 #
straight-curve $-1 -42.215643787957397 -10.74115674496009 33.705681338140465 0 0 1 I I #
straight-curve $-1 -42.215643787957397 -10.74115674496009 1.7959290503412717 -0.77714595512881146 0 -0.62932039886446345 I I #
edge $-1 $604 3.3130155100020922 $341 10.74115674496009 $489 $611 forward 7 unknown #
point $-1 -42.215643787957397 -10.74115674496009 6.5703923791125405 #
point $-1 -36.319672720500307 -10.74115674496009 6.5703923791125405 #
edge $-1 $612 1 $612 0 $344 $-1 forward 7 unknown #
vertex $-1 $345 $613 #
ellipse-curve $-1 -38.411852037205598 -9.2555284979684913 3.1263280725087577 -0.62932039886446345 0 0.77714595512881146 0.38857297756440573 0 0.31466019943223172 1 I I #
point $-1 -38.879085276664455 -9.2555284979684913 4.4978209141591448 #
edge $-1 $614 1 $614 0 $348 $-1 forward 7 unknown #
vertex $-1 $349 $615 #
ellipse-curve $-1 -38.411852037205598 -7.0270861274810912 3.1263280725087577 -0.62932039886446345 0 0.77714595512881146 0.38857297756440573 0 0.31466019943223172 1 I I #
point $-1 -38.879085276664455 -7.0270861274810912 4.4978209141591448 #
edge $-1 $616 1 $616 0 $352 $-1 forward 7 unknown #
vertex $-1 $353 $617 #
ellipse-curve $-1 -38.411852037205598 -4.7986437569936911 3.1263280725087577 -0.62932039886446345 0 0.77714595512881146 0.38857297756440573 0 0.31466019943223172 1 I I #
point $-1 -38.879085276664455 -4.7986437569936911 4.4978209141591448 #
loop $-1 $-1 $364 $356 #
plane-surface $-1 -42.215643787957397 0 0 1 0 0 0 0 -1 forward_v I I I I #
coedge $-1 $512 $359 $361 $516 reversed $232 $-1 #
coedge $-1 $359 $511 $618 $619 reversed $232 $-1 #
coedge $-1 $367 $362 $359 $514 forward $357 $-1 #
edge $-1 $517 -11.355314960435848 $620 -5.4593438929787581 $513 $621 forward 7 unknown #
coedge $-1 $361 $360 $520 $622 reversed $145 $-1 #
edge $-1 $623 0 $517 7.5866972330568672 $511 $624 forward 7 unknown #
vertex $-1 $363 $625 #
straight-curve $-1 -36.319672720500307 3.5135430637405474 6.5703923791125405 0 1 0 I I #
coedge $-1 $618 $364 $367 $524 reversed $509 $-1 #
coedge $-1 $364 $618 $515 $622 forward $509 $-1 #
vertex $-1 $365 $626 #
straight-curve $-1 -42.215643787957397 3.3130155100020957 33.705681338140465 0 0 1 I I #
straight-curve $-1 -42.215643787957397 3.3130155100020957 1.7959290503412717 -0.77714595512881146 0 -0.62932039886446345 I I #
edge $-1 $620 -10.741156744960094 $368 -3.3130155100020957 $519 $627 forward 7 unknown #
point $-1 -42.215643787957397 3.3130155100020957 6.5703923791125405 #
point $-1 -36.319672720500307 3.3130155100020957 6.5703923791125405 #
edge $-1 $628 1 $628 0 $371 $-1 forward 7 unknown #
vertex $-1 $372 $629 #
ellipse-curve $-1 -38.411852037205598 4.7986437569936946 3.1263280725087577 -0.62932039886446345 0 0.77714595512881146 0.38857297756440573 0 0.31466019943223172 1 I I #
point $-1 -38.879085276664455 4.7986437569936946 4.4978209141591448 #
edge $-1 $630 1 $630 0 $375 $-1 forward 7 unknown #
vertex $-1 $376 $631 #
ellipse-curve $-1 -38.411852037205598 7.0270861274810947 3.1263280725087577 -0.62932039886446345 0 0.77714595512881146 0.38857297756440573 0 0.31466019943223172 1 I I #
point $-1 -38.879085276664455 7.0270861274810947 4.4978209141591448 #
edge $-1 $632 1 $632 0 $379 $-1 forward 7 unknown #
vertex $-1 $380 $633 #
ellipse-curve $-1 -38.411852037205598 9.2555284979684949 3.1263280725087577 -0.62932039886446345 0 0.77714595512881146 0.38857297756440573 0 0.31466019943223172 1 I I #
point $-1 -38.879085276664455 9.2555284979684949 4.4978209141591448 #
plane-surface $-1 42.215643787957397 0 0 -1 0 0 0 0 1 forward_v I I I I #
coedge $-1 $387 $386 $400 $550 forward $164 $-1 #
edge $-1 $545 -42.215643787957397 $542 42.215643787957397 $390 $634 forward 7 unknown #
vertex $-1 $389 $635 #
straight-curve $-1 42.215643787957397 0 6.5703923791125405 0 1 0 I I #
straight-curve $-1 42.215643787957397 -21.998206470591061 0 0 0 -1 I I #
vertex $-1 $550 $636 #
straight-curve $-1 -42.215643787957397 -21.998206470591061 0 0 0 -1 I I #
point $-1 42.215643787957397 -21.998206470591061 -6.5703923791125405 #
point $-1 -42.215643787957397 -21.998206470591061 -6.5703923791125405 #
straight-curve $-1 0 21.998206470591061 6.5703923791125405 -1 0 0 I I #
edge $-1 $401 -21.998206470591061 $545 21.998206470591061 $400 $637 forward 7 unknown #
point $-1 -42.215643787957397 21.998206470591061 6.5703923791125405 #
point $-1 42.215643787957397 21.998206470591061 6.5703923791125405 #
straight-curve $-1 42.215643787957397 0 -6.5703923791125405 0 -1 0 I I #
straight-curve $-1 -42.215643787957397 0 -6.5703923791125405 0 1 0 I I #
plane-surface $-1 0 0 6.5703923791125405 0 0 1 1 0 0 forward_v I I I I #
coedge $-1 $419 $568 $557 $638 forward $412 $-1 #
coedge $-1 $415 $414 $556 $638 reversed $172 $-1 #
edge $-1 $564 -1.5 $562 1.5 $414 $639 forward 7 unknown #
coedge $-1 $427 $426 $415 $560 forward $428 $-1 #
edge $-1 $561 -1.5 $640 1.5 $415 $641 forward 7 unknown #
vertex $-1 $431 $642 #
vertex $-1 $421 $643 #
straight-curve $-1 -39.549768977710784 -27.235651575307084 0 0 0 -1 I I #
vertex $-1 $638 $644 #
straight-curve $-1 -36.549768977710784 -24.616929022949073 -6.5703923791125405 0 -1 0 I I #
straight-curve $-1 -39.549768977710784 -24.616929022949073 -6.5703923791125405 0 1 0 I I #
point $-1 -36.549768977710784 -21.998206470591061 -6.5703923791125405 #
coedge $-1 $556 $424 $427 $570 reversed $412 $-1 #
straight-curve $-1 -36.549768977710784 -21.998206470591061 0 0 0 -1 I I #
edge $-1 $640 -2.6187225523580118 $429 2.6187225523580118 $568 $645 forward 7 unknown #
point $-1 -36.549768977710784 -21.998206470591061 6.5703923791125405 #
straight-curve $-1 -39.549768977710784 -24.616929022949073 6.5703923791125405 0 -1 0 I I #
plane-surface $-1 0 0 6.5703923791125405 0 0 1 1 0 0 forward_v I I I I #
coedge $-1 $439 $436 $441 $581 reversed $294 $-1 #
coedge $-1 $436 $439 $587 $646 reversed $294 $-1 #
edge $-1 $589 -6.5703923791125405 $583 6.5703923791125405 $453 $647 forward 7 unknown #
edge $-1 $578 -2.6187225523580118 $451 2.6187225523580118 $438 $648 forward 7 unknown #
vertex $-1 $646 $649 #
vertex $-1 $581 $650 #
straight-curve $-1 -39.549768977710784 27.235651575307088 0 0 0 -1 I I #
edge $-1 $579 -1.5 $583 1.5 $574 $651 forward 7 unknown #
straight-curve $-1 -39.549768977710784 24.616929022949076 -6.5703923791125405 0 1 0 I I #
vertex $-1 $443 $652 #
straight-curve $-1 -36.549768977710784 24.616929022949076 -6.5703923791125405 0 -1 0 I I #
point $-1 -39.549768977710784 21.998206470591064 -6.5703923791125405 #
straight-curve $-1 -39.549768977710784 21.998206470591061 0 0 0 -1 I I #
coedge $-1 $449 $448 $575 $646 forward $450 $-1 #
point $-1 -39.549768977710784 21.998206470591064 6.5703923791125405 #
vertex $-1 $454 $653 #
straight-curve $-1 -36.549768977710784 24.616929022949076 6.5703923791125405 0 1 0 I I #
coedge $-1 $468 $467 $460 $592 forward $457 $-1 #
edge $-1 $593 53.088864898288811 $596 59.453752958208064 $591 $654 forward 7 unknown #
vertex $-1 $472 $655 #
straight-curve $-1 16.943225993256316 -10.348415972859819 6.5703923791125405 1 0 0 I I #
edge $-1 $596 -6.6859687029390455 $469 -0.6389258369025006 $468 $656 forward 7 unknown #
vertex $-1 $595 $657 #
straight-curve $-1 -21.505457230569696 -10.348415972859819 55.597413536275617 -0.75470957328743171 0 0.6560590369687036 I I #
point $-1 34.893677804653542 -10.348415972859819 6.5703923791125476 #
point $-1 42.21564378795739 -4.3013731068232737 0.20550431919328815 #
straight-curve $-1 42.215643787957397 0 6.5703923791125405 0 1 0 I I #
vertex $-1 $475 $658 #
point $-1 38.445243291235649 -7.3248945398415444 1.7378248426412997 #
edge $-1 $604 27.135288959027925 $607 31.909752287799193 $480 $659 forward 7 unknown #
vertex $-1 $494 $660 #
straight-curve $-1 -47.674987680936155 -3.3130155100020922 6.5703923791125405 -1 0 0 I I #
edge $-1 $607 -0.20052755373845343 $491 7.2276136812195446 $490 $661 forward 7 unknown #
vertex $-1 $606 $662 #
straight-curve $-1 -42.215643787957397 -3.3130155100020922 1.7959290503412717 0.77714595512881146 0 0.62932039886446345 I I #
point $-1 -36.319672720500307 -3.3130155100020922 6.5703923791125405 #
point $-1 -42.215643787957397 -10.74115674496009 1.7959290503412717 #
straight-curve $-1 -42.215643787957397 0 6.5703923791125405 0 -1 0 I I #
vertex $-1 $497 $663 #
point $-1 -38.023279059641197 -9.2555284979684913 3.4409882719409897 #
vertex $-1 $501 $664 #
point $-1 -38.023279059641197 -7.0270861274810912 3.4409882719409897 #
vertex $-1 $505 $665 #
point $-1 -38.023279059641197 -4.7986437569936911 3.4409882719409897 #
coedge $-1 $520 $519 $512 $619 forward $509 $-1 #
edge $-1 $620 27.135288959027925 $623 31.909752287799193 $618 $666 forward 7 unknown #
vertex $-1 $524 $667 #
straight-curve $-1 -47.674987680936155 10.741156744960094 6.5703923791125405 -1 0 0 I I #
edge $-1 $623 -7.2276136812195464 $521 0.20052755373845166 $520 $668 forward 7 unknown #
vertex $-1 $622 $669 #
straight-curve $-1 -42.215643787957397 10.741156744960094 1.7959290503412717 0.77714595512881146 0 0.62932039886446345 I I #
point $-1 -36.319672720500307 10.741156744960094 6.5703923791125405 #
point $-1 -42.215643787957397 3.3130155100020957 1.7959290503412717 #
straight-curve $-1 -42.215643787957397 0 6.5703923791125405 0 -1 0 I I #
vertex $-1 $527 $670 #
point $-1 -38.023279059641197 4.7986437569936946 3.4409882719409897 #
vertex $-1 $531 $671 #
point $-1 -38.023279059641197 7.0270861274810947 3.4409882719409897 #
vertex $-1 $535 $672 #
point $-1 -38.023279059641197 9.2555284979684949 3.4409882719409897 #
straight-curve $-1 0 -21.998206470591061 6.5703923791125405 1 0 0 I I #
point $-1 42.215643787957397 -21.998206470591061 6.5703923791125405 #
point $-1 -42.215643787957397 -21.998206470591061 6.5703923791125405 #
straight-curve $-1 -42.215643787957397 0 6.5703923791125405 0 -1 0 I I #
edge $-1 $640 -6.5703923791125405 $564 6.5703923791125405 $556 $673 forward 7 unknown #
straight-curve $-1 -38.049768977710784 -27.235651575307084 -6.5703923791125405 -1 0 0 I I #
vertex $-1 $570 $674 #
straight-curve $-1 -38.049768977710784 -27.235651575307084 6.5703923791125405 1 0 0 I I #
point $-1 -39.549768977710784 -27.235651575307084 6.5703923791125405 #
point $-1 -39.549768977710784 -27.235651575307084 -6.5703923791125405 #
point $-1 -36.549768977710784 -27.235651575307084 -6.5703923791125405 #
straight-curve $-1 -36.549768977710784 -24.616929022949073 6.5703923791125405 0 1 0 I I #
edge $-1 $589 -1.5 $578 1.5 $575 $675 forward 7 unknown #
straight-curve $-1 -36.549768977710784 27.235651575307088 0 0 0 -1 I I #
straight-curve $-1 -39.549768977710784 24.616929022949076 6.5703923791125405 0 -1 0 I I #
point $-1 -39.549768977710784 27.235651575307088 6.5703923791125405 #
point $-1 -39.549768977710784 27.235651575307088 -6.5703923791125405 #
straight-curve $-1 -38.049768977710784 27.235651575307088 -6.5703923791125405 1 0 0 I I #
point $-1 -36.549768977710784 27.235651575307088 -6.5703923791125405 #
point $-1 -36.549768977710784 27.235651575307088 6.5703923791125405 #
straight-curve $-1 42.215643787957397 -10.348415972859819 59.659257277401352 0 0 -1 I I #
point $-1 42.215643787957397 -10.348415972859819 6.5703923791125405 #
straight-curve $-1 42.215643787957397 -3.6624472699207731 0.20550431919328105 0 1 0 I I #
point $-1 42.21564378795739 -10.348415972859819 0.20550431919328815 #
point $-1 37.034474680979514 -7.3248945398415444 1.6391743063225714 #
straight-curve $-1 -42.215643787957397 -3.3130155100020922 33.705681338140465 0 0 -1 I I #
point $-1 -42.215643787957397 -3.3130155100020922 6.5703923791125405 #
straight-curve $-1 -42.215643787957397 -3.5135430637405456 1.7959290503412739 0 -1 0 I I #
point $-1 -42.215643787957397 -3.3130155100020922 1.7959290503412717 #
point $-1 -38.097191837773373 -9.2555284979684913 2.7377550949443523 #
point $-1 -38.097191837773373 -7.0270861274810912 2.7377550949443523 #
point $-1 -38.097191837773373 -4.7986437569936911 2.7377550949443523 #
straight-curve $-1 -42.215643787957397 10.741156744960094 33.705681338140465 0 0 -1 I I #
point $-1 -42.215643787957397 10.741156744960094 6.5703923791125405 #
straight-curve $-1 -42.215643787957397 3.5135430637405474 1.7959290503412739 0 -1 0 I I #
point $-1 -42.215643787957397 10.741156744960094 1.7959290503412717 #
point $-1 -38.097191837773373 4.7986437569936946 2.7377550949443523 #
point $-1 -38.097191837773373 7.0270861274810947 2.7377550949443523 #
point $-1 -38.097191837773373 9.2555284979684949 2.7377550949443523 #
straight-curve $-1 -36.549768977710784 -27.235651575307084 0 0 0 -1 I I #
point $-1 -36.549768977710784 -27.235651575307084 6.5703923791125405 #
straight-curve $-1 -38.049768977710784 27.235651575307088 6.5703923791125405 -1 0 0 I I #
End-of-ACIS-data 