500 0 3 0           
7 Unknown 11 ACIS 5.0 NT 24 Fri Mar 26 19:37:13 1999 
-1 9.9999999999999995e-007 1e-010 
body $-1 $3 $-1 $4 #
body $-1 $5 $-1 $6 #
body $-1 $7 $-1 $8 #
lump $-1 $-1 $9 $0 #
transform $-1 1 0 0 0 1 0 0 0 1 61.914731284524066 35.246066640109994 10.509495678391879 1 rotate no_reflect no_shear #
lump $-1 $-1 $10 $1 #
transform $-1 1 0 0 0 1 0 0 0 1 61.914731284524066 35.246066640109994 10.509495678391879 1 rotate no_reflect no_shear #
lump $-1 $-1 $11 $2 #
transform $-1 1 0 0 0 1 0 0 0 1 61.914731284524066 35.246066640109994 10.509495678391879 1 rotate no_reflect no_shear #
shell $-1 $-1 $-1 $12 $-1 $3 #
shell $-1 $-1 $-1 $13 $-1 $5 #
shell $-1 $-1 $-1 $14 $-1 $7 #
face $-1 $15 $16 $9 $-1 $17 forward single #
face $-1 $18 $19 $10 $-1 $20 reversed single #
face $-1 $21 $22 $11 $-1 $23 forward single #
face $-1 $24 $25 $9 $-1 $26 reversed single #
loop $-1 $-1 $27 $12 #
plane-surface $-1 0 0 10.509495678391879 0 0 1 1 0 0 forward_v I I I I #
face $-1 $28 $29 $10 $-1 $30 forward single #
loop $-1 $-1 $31 $13 #
plane-surface $-1 -56.478778276303771 0 3.2762534463793882 0 0 1 1 0 0 forward_v I I I I #
face $-1 $32 $33 $11 $-1 $34 forward single #
loop $-1 $-1 $35 $14 #
plane-surface $-1 56.754920751789015 0 6.1378251563539461 0 0 1 1 0 0 forward_v I I I I #
face $-1 $36 $37 $9 $-1 $38 reversed single #
loop $-1 $-1 $39 $15 #
plane-surface $-1 0 0 -10.509495678391879 0 0 1 1 0 0 forward_v I I I I #
coedge $-1 $40 $41 $42 $43 forward $16 $-1 #
face $-1 $44 $45 $10 $-1 $46 forward single #
loop $-1 $-1 $47 $18 #
plane-surface $-1 -56.478778276303771 0 0.2535907316877557 0 0 1 1 0 0 forward_v I I I I #
coedge $-1 $48 $49 $50 $51 reversed $19 $-1 #
face $-1 $52 $53 $11 $-1 $54 forward single #
loop $-1 $-1 $55 $21 #
plane-surface $-1 51.595110219053964 0 8.3236604173729134 1 0 0 0 0 -1 forward_v I I I I #
coedge $-1 $56 $57 $58 $59 reversed $22 $-1 #
face $-1 $60 $61 $9 $-1 $62 reversed single #
loop $-1 $-1 $63 $24 #
plane-surface $-1 0 -35.246066640109994 0 0 1 0 0 0 1 forward_v I I I I #
coedge $-1 $64 $65 $66 $67 forward $25 $-1 #
coedge $-1 $68 $27 $69 $70 forward $16 $-1 #
coedge $-1 $27 $68 $71 $72 forward $16 $-1 #
coedge $-1 $73 $74 $27 $43 reversed $75 $-1 #
edge $-1 $76 -35.246066640109994 $77 35.246066640109994 $42 $78 forward 7 unknown #
face $-1 $79 $80 $10 $-1 $81 reversed single #
loop $-1 $-1 $82 $28 #
plane-surface $-1 -51.042825268083476 0 1.764922089033572 -1 0 0 0 0 1 forward_v I I I I #
coedge $-1 $83 $84 $85 $86 reversed $29 $-1 #
coedge $-1 $87 $31 $88 $89 reversed $19 $-1 #
coedge $-1 $31 $87 $90 $91 reversed $19 $-1 #
coedge $-1 $92 $82 $31 $51 forward $45 $-1 #
edge $-1 $93 -35.246066640109994 $94 35.246066640109994 $50 $95 forward 7 unknown #
face $-1 $96 $97 $11 $-1 $98 reversed single #
loop $-1 $-1 $99 $32 #
plane-surface $-1 0 0 10.509495678391879 0 0 1 1 0 0 forward_v I I I I #
coedge $-1 $100 $101 $102 $103 reversed $33 $-1 #
coedge $-1 $104 $35 $105 $106 reversed $22 $-1 #
coedge $-1 $35 $104 $107 $108 reversed $22 $-1 #
coedge $-1 $109 $110 $35 $59 forward $111 $-1 #
edge $-1 $112 -35.246066640109994 $113 35.246066640109994 $58 $114 forward 7 unknown #
face $-1 $115 $116 $9 $-1 $117 reversed single #
loop $-1 $-1 $118 $36 #
plane-surface $-1 -61.914731284524066 0 0 1 0 0 0 0 -1 forward_v I I I I #
coedge $-1 $119 $71 $120 $121 forward $37 $-1 #
coedge $-1 $122 $39 $119 $123 forward $25 $-1 #
coedge $-1 $39 $122 $124 $125 forward $25 $-1 #
coedge $-1 $74 $73 $39 $67 reversed $75 $-1 #
edge $-1 $126 -35.246066640109994 $127 35.246066640109994 $66 $128 forward 7 unknown #
coedge $-1 $41 $40 $129 $130 forward $16 $-1 #
coedge $-1 $131 $132 $40 $70 reversed $116 $-1 #
edge $-1 $77 -61.914731284524066 $133 61.914731284524066 $69 $134 forward 7 unknown #
coedge $-1 $63 $135 $41 $72 reversed $37 $-1 #
edge $-1 $136 -61.914731284524066 $76 61.914731284524066 $71 $137 forward 7 unknown #
coedge $-1 $66 $42 $135 $138 forward $75 $-1 #
coedge $-1 $42 $66 $131 $139 reversed $75 $-1 #
loop $-1 $-1 $73 $115 #
vertex $-1 $43 $140 #
vertex $-1 $43 $141 #
straight-curve $-1 61.914731284524066 0 10.509495678391879 0 1 0 I I #
face $-1 $142 $143 $10 $-1 $81 reversed single #
loop $-1 $-1 $144 $44 #
plane-surface $-1 -61.914731284524066 0 0 1 0 0 0 0 -1 forward_v I I I I #
coedge $-1 $50 $85 $145 $146 reversed $45 $-1 #
coedge $-1 $147 $47 $148 $149 reversed $29 $-1 #
coedge $-1 $47 $147 $150 $151 reversed $29 $-1 #
coedge $-1 $82 $92 $47 $86 forward $45 $-1 #
edge $-1 $152 -35.246066640109994 $153 35.246066640109994 $85 $154 forward 7 unknown #
coedge $-1 $49 $48 $155 $156 reversed $19 $-1 #
coedge $-1 $145 $157 $48 $89 forward $158 $-1 #
edge $-1 $159 -33.675342146372181 $93 -22.80343612993159 $88 $160 forward 7 unknown #
coedge $-1 $161 $162 $49 $91 forward $163 $-1 #
edge $-1 $94 22.80343612993159 $164 33.675342146372181 $90 $165 forward 7 unknown #
coedge $-1 $85 $50 $162 $166 reversed $45 $-1 #
vertex $-1 $89 $167 #
vertex $-1 $91 $168 #
straight-curve $-1 -51.042825268083476 0 3.2762534463793882 0 1 0 I I #
face $-1 $169 $170 $11 $-1 $171 reversed single #
loop $-1 $-1 $102 $52 #
plane-surface $-1 0 35.246066640109994 0 0 -1 0 0 0 -1 forward_v I I I I #
coedge $-1 $172 $173 $100 $174 forward $53 $-1 #
coedge $-1 $175 $55 $99 $174 reversed $33 $-1 #
coedge $-1 $55 $175 $104 $176 forward $33 $-1 #
coedge $-1 $105 $177 $55 $103 forward $97 $-1 #
edge $-1 $178 -6.347665469705424 $179 -1.9759949476674894 $102 $180 forward 7 unknown #
coedge $-1 $57 $56 $101 $176 reversed $22 $-1 #
coedge $-1 $181 $102 $56 $106 forward $97 $-1 #
edge $-1 $179 23.217649843159457 $112 33.537270908629559 $105 $182 forward 7 unknown #
coedge $-1 $183 $184 $57 $108 forward $185 $-1 #
edge $-1 $113 -33.537270908629559 $186 -23.217649843159457 $107 $187 forward 7 unknown #
coedge $-1 $188 $58 $184 $189 forward $111 $-1 #
coedge $-1 $58 $188 $181 $190 reversed $111 $-1 #
loop $-1 $-1 $58 $191 #
vertex $-1 $190 $192 #
vertex $-1 $189 $193 #
straight-curve $-1 61.914731284524066 0 6.1378251563539461 0 -1 0 I I #
face $-1 $-1 $75 $9 $-1 $194 reversed single #
loop $-1 $-1 $131 $60 #
plane-surface $-1 0 35.246066640109994 0 0 -1 0 0 0 -1 forward_v I I I I #
coedge $-1 $195 $129 $132 $196 forward $61 $-1 #
coedge $-1 $135 $63 $64 $123 reversed $37 $-1 #
coedge $-1 $129 $195 $63 $121 reversed $61 $-1 #
edge $-1 $136 -10.509495678391879 $197 10.509495678391879 $120 $198 forward 7 unknown #
coedge $-1 $65 $64 $195 $199 forward $25 $-1 #
edge $-1 $127 -61.914731284524066 $197 61.914731284524066 $119 $200 forward 7 unknown #
coedge $-1 $132 $131 $65 $125 reversed $116 $-1 #
edge $-1 $201 -61.914731284524066 $126 61.914731284524066 $124 $202 forward 7 unknown #
vertex $-1 $67 $203 #
vertex $-1 $138 $204 #
straight-curve $-1 61.914731284524066 0 -10.509495678391879 0 -1 0 I I #
coedge $-1 $118 $120 $68 $130 reversed $61 $-1 #
edge $-1 $133 -35.246066640109994 $136 35.246066640109994 $129 $205 forward 7 unknown #
coedge $-1 $124 $69 $74 $139 forward $116 $-1 #
coedge $-1 $69 $124 $118 $196 reversed $116 $-1 #
vertex $-1 $70 $206 #
straight-curve $-1 0 35.246066640109994 10.509495678391879 -1 0 0 I I #
coedge $-1 $71 $119 $73 $138 reversed $37 $-1 #
vertex $-1 $130 $207 #
straight-curve $-1 0 -35.246066640109994 10.509495678391879 1 0 0 I I #
edge $-1 $76 -10.509495678391879 $127 10.509495678391879 $73 $208 forward 7 unknown #
edge $-1 $77 -10.509495678391879 $126 10.509495678391879 $74 $209 forward 7 unknown #
point $-1 61.914731284524066 -35.246066640109994 10.509495678391879 #
point $-1 61.914731284524066 35.246066640109994 10.509495678391879 #
face $-1 $210 $158 $10 $-1 $211 reversed single #
loop $-1 $-1 $155 $79 #
coedge $-1 $212 $213 $147 $214 forward $80 $-1 #
coedge $-1 $150 $88 $82 $146 forward $158 $-1 #
edge $-1 $93 -2.3937924018626022 $153 0.62887031282903028 $145 $215 forward 7 unknown #
coedge $-1 $84 $83 $144 $214 reversed $29 $-1 #
coedge $-1 $162 $216 $83 $149 forward $163 $-1 #
edge $-1 $217 -33.675342146372181 $152 -22.80343612993159 $148 $218 forward 7 unknown #
coedge $-1 $219 $145 $84 $151 forward $158 $-1 #
edge $-1 $153 22.80343612993159 $220 33.675342146372181 $150 $221 forward 7 unknown #
vertex $-1 $149 $222 #
vertex $-1 $151 $223 #
straight-curve $-1 -51.042825268083476 0 0.2535907316877557 0 -1 0 I I #
coedge $-1 $224 $225 $87 $156 forward $143 $-1 #
edge $-1 $164 -35.246066640109994 $159 35.246066640109994 $155 $226 forward 7 unknown #
coedge $-1 $88 $227 $224 $228 forward $158 $-1 #
loop $-1 $-1 $88 $142 #
vertex $-1 $89 $229 #
straight-curve $-1 -28.239389138151886 -35.246066640109994 3.2762534463793882 1 0 0 I I #
coedge $-1 $230 $90 $225 $231 reversed $163 $-1 #
coedge $-1 $90 $148 $92 $166 forward $163 $-1 #
loop $-1 $-1 $90 $232 #
vertex $-1 $156 $233 #
straight-curve $-1 -28.239389138151886 35.246066640109994 3.2762534463793882 -1 0 0 I I #
edge $-1 $152 -0.62887031282903028 $94 2.3937924018626022 $162 $234 forward 7 unknown #
point $-1 -51.042825268083476 -35.246066640109994 3.2762534463793882 #
point $-1 -51.042825268083476 35.246066640109994 3.2762534463793882 #
face $-1 $235 $236 $11 $-1 $237 forward single #
loop $-1 $-1 $238 $96 #
plane-surface $-1 -56.478778276303771 0 3.2762534463793882 0 0 1 1 0 0 forward_v I I I I #
coedge $-1 $239 $99 $177 $240 forward $53 $-1 #
coedge $-1 $99 $239 $241 $242 forward $53 $-1 #
edge $-1 $243 -35.246066640109994 $178 35.246066640109994 $99 $244 forward 7 unknown #
coedge $-1 $101 $100 $183 $245 reversed $33 $-1 #
edge $-1 $186 -35.246066640109994 $179 35.246066640109994 $101 $246 forward 7 unknown #
coedge $-1 $102 $247 $172 $240 reversed $97 $-1 #
vertex $-1 $240 $248 #
vertex $-1 $106 $249 #
straight-curve $-1 51.595110219053964 35.246066640109994 4.1618302086864567 0 0 -1 I I #
coedge $-1 $250 $105 $110 $190 forward $97 $-1 #
straight-curve $-1 28.377460375894508 35.246066640109994 6.1378251563539461 1 0 0 I I #
coedge $-1 $241 $107 $175 $245 forward $185 $-1 #
coedge $-1 $107 $251 $109 $189 reversed $185 $-1 #
loop $-1 $-1 $183 $252 #
vertex $-1 $108 $253 #
straight-curve $-1 28.377460375894508 -35.246066640109994 6.1378251563539461 -1 0 0 I I #
coedge $-1 $110 $109 $254 $255 reversed $111 $-1 #
edge $-1 $113 -6.1378251563539461 $256 10.509495678391879 $109 $257 forward 7 unknown #
edge $-1 $112 -6.1378251563539461 $258 10.509495678391879 $110 $259 forward 7 unknown #
face $-1 $-1 $111 $11 $-1 $260 reversed single #
point $-1 61.914731284524066 35.246066640109994 6.1378251563539461 #
point $-1 61.914731284524066 -35.246066640109994 6.1378251563539461 #
plane-surface $-1 61.914731284524066 0 0 -1 0 0 0 0 1 forward_v I I I I #
coedge $-1 $120 $118 $122 $199 reversed $61 $-1 #
edge $-1 $133 -10.509495678391879 $201 10.509495678391879 $132 $261 forward 7 unknown #
vertex $-1 $199 $262 #
straight-curve $-1 -61.914731284524066 -35.246066640109994 0 0 0 -1 I I #
edge $-1 $197 -35.246066640109994 $201 35.246066640109994 $195 $263 forward 7 unknown #
straight-curve $-1 0 -35.246066640109994 -10.509495678391879 -1 0 0 I I #
vertex $-1 $125 $264 #
straight-curve $-1 0 35.246066640109994 -10.509495678391879 1 0 0 I I #
point $-1 61.914731284524066 35.246066640109994 -10.509495678391879 #
point $-1 61.914731284524066 -35.246066640109994 -10.509495678391879 #
straight-curve $-1 -61.914731284524066 0 10.509495678391879 0 -1 0 I I #
point $-1 -61.914731284524066 35.246066640109994 10.509495678391879 #
point $-1 -61.914731284524066 -35.246066640109994 10.509495678391879 #
straight-curve $-1 61.914731284524066 -35.246066640109994 0 0 0 -1 I I #
straight-curve $-1 61.914731284524066 35.246066640109994 0 0 0 -1 I I #
face $-1 $265 $266 $10 $-1 $267 forward single #
plane-surface $-1 0 -35.246066640109994 0 0 1 0 0 0 1 forward_v I I I I #
coedge $-1 $268 $144 $216 $269 forward $80 $-1 #
coedge $-1 $144 $268 $219 $270 reversed $80 $-1 #
edge $-1 $220 -35.246066640109994 $217 35.246066640109994 $144 $271 forward 7 unknown #
straight-curve $-1 -51.042825268083476 -35.246066640109994 0.88246104451678598 0 0 -1 I I #
coedge $-1 $148 $272 $212 $269 reversed $163 $-1 #
vertex $-1 $269 $273 #
straight-curve $-1 -28.239389138151886 35.246066640109994 0.2535907316877557 1 0 0 I I #
coedge $-1 $274 $150 $213 $270 forward $158 $-1 #
vertex $-1 $270 $275 #
straight-curve $-1 -28.239389138151886 -35.246066640109994 0.2535907316877557 -1 0 0 I I #
point $-1 -51.042825268083476 35.246066640109994 0.2535907316877557 #
point $-1 -51.042825268083476 -35.246066640109994 0.2535907316877557 #
coedge $-1 $276 $155 $157 $228 reversed $143 $-1 #
coedge $-1 $155 $276 $161 $231 forward $143 $-1 #
straight-curve $-1 -61.914731284524066 0 3.2762534463793882 0 -1 0 I I #
coedge $-1 $157 $277 $278 $279 reversed $158 $-1 #
edge $-1 $280 -10.509495678391879 $159 -3.2762534463793882 $224 $281 forward 7 unknown #
point $-1 -61.914731284524066 -35.246066640109994 3.2762534463793882 #
coedge $-1 $282 $161 $283 $284 reversed $163 $-1 #
edge $-1 $285 -10.509495678391879 $164 -3.2762534463793882 $161 $286 forward 7 unknown #
face $-1 $287 $163 $10 $-1 $288 reversed single #
point $-1 -61.914731284524066 35.246066640109994 3.2762534463793882 #
straight-curve $-1 -51.042825268083476 35.246066640109994 0.88246104451678598 0 0 1 I I #
face $-1 $289 $290 $11 $-1 $291 forward single #
loop $-1 $-1 $292 $169 #
plane-surface $-1 -56.478778276303771 0 0.2535907316877557 0 0 1 1 0 0 forward_v I I I I #
coedge $-1 $293 $294 $295 $296 reversed $170 $-1 #
coedge $-1 $173 $172 $297 $298 forward $53 $-1 #
edge $-1 $178 -51.595110219053964 $299 61.914731284524066 $177 $300 forward 7 unknown #
coedge $-1 $301 $183 $173 $242 reversed $185 $-1 #
edge $-1 $302 -61.914731284524066 $243 51.595110219053964 $241 $303 forward 7 unknown #
vertex $-1 $174 $304 #
straight-curve $-1 51.595110219053964 0 10.509495678391879 0 1 0 I I #
edge $-1 $186 1.9759949476674894 $243 6.347665469705424 $183 $305 forward 7 unknown #
straight-curve $-1 51.595110219053964 0 6.1378251563539461 0 1 0 I I #
coedge $-1 $177 $306 $307 $308 reversed $97 $-1 #
point $-1 51.595110219053964 35.246066640109994 10.509495678391881 #
point $-1 51.595110219053964 35.246066640109994 6.1378251563539461 #
coedge $-1 $309 $181 $310 $311 reversed $97 $-1 #
coedge $-1 $184 $312 $313 $314 reversed $185 $-1 #
face $-1 $315 $185 $11 $-1 $316 reversed single #
point $-1 51.595110219053964 -35.246066640109994 6.1378251563539461 #
coedge $-1 $313 $310 $188 $255 forward $317 $-1 #
edge $-1 $258 -35.246066640109994 $256 35.246066640109994 $188 $318 forward 7 unknown #
vertex $-1 $189 $319 #
straight-curve $-1 61.914731284524066 -35.246066640109994 0 0 0 -1 I I #
vertex $-1 $255 $320 #
straight-curve $-1 61.914731284524066 35.246066640109994 0 0 0 -1 I I #
plane-surface $-1 61.914731284524066 0 0 -1 0 0 0 0 1 forward_v I I I I #
straight-curve $-1 -61.914731284524066 35.246066640109994 0 0 0 -1 I I #
point $-1 -61.914731284524066 -35.246066640109994 -10.509495678391879 #
straight-curve $-1 -61.914731284524066 0 -10.509495678391879 0 1 0 I I #
point $-1 -61.914731284524066 35.246066640109994 -10.509495678391879 #
face $-1 $232 $321 $10 $-1 $322 reversed single #
loop $-1 $-1 $323 $210 #
plane-surface $-1 0 0 10.509495678391879 0 0 1 1 0 0 forward_v I I I I #
coedge $-1 $213 $212 $324 $325 reversed $80 $-1 #
edge $-1 $217 -0.2535907316877557 $326 10.509495678391879 $216 $286 forward 7 unknown #
edge $-1 $220 -0.2535907316877557 $327 10.509495678391879 $213 $281 forward 7 unknown #
straight-curve $-1 -61.914731284524066 0 0.2535907316877557 0 1 0 I I #
coedge $-1 $216 $282 $328 $329 reversed $163 $-1 #
point $-1 -61.914731284524066 35.246066640109994 0.2535907316877557 #
coedge $-1 $277 $219 $330 $331 reversed $158 $-1 #
point $-1 -61.914731284524066 -35.246066640109994 0.2535907316877557 #
coedge $-1 $225 $224 $332 $333 reversed $143 $-1 #
coedge $-1 $227 $274 $334 $335 reversed $158 $-1 #
coedge $-1 $323 $332 $227 $279 forward $266 $-1 #
edge $-1 $280 -61.914731284524066 $336 61.914731284524066 $227 $337 forward 7 unknown #
vertex $-1 $333 $338 #
straight-curve $-1 -61.914731284524066 -35.246066640109994 0 0 0 -1 I I #
coedge $-1 $272 $230 $339 $340 forward $163 $-1 #
coedge $-1 $332 $323 $230 $284 forward $266 $-1 #
edge $-1 $341 -61.914731284524066 $285 61.914731284524066 $230 $342 forward 7 unknown #
vertex $-1 $284 $343 #
straight-curve $-1 -61.914731284524066 35.246066640109994 0 0 0 -1 I I #
face $-1 $-1 $344 $10 $-1 $345 reversed single #
plane-surface $-1 0 35.246066640109994 0 0 -1 0 0 0 -1 forward_v I I I I #
face $-1 $346 $347 $11 $-1 $348 reversed single #
loop $-1 $-1 $349 $235 #
plane-surface $-1 -51.042825268083476 0 1.764922089033572 -1 0 0 0 0 1 forward_v I I I I #
coedge $-1 $350 $351 $352 $353 reversed $236 $-1 #
coedge $-1 $354 $238 $355 $356 reversed $170 $-1 #
coedge $-1 $238 $354 $306 $357 reversed $170 $-1 #
coedge $-1 $358 $349 $238 $296 forward $290 $-1 #
edge $-1 $359 -35.246066640109994 $360 35.246066640109994 $295 $361 forward 7 unknown #
coedge $-1 $307 $362 $239 $298 reversed $363 $-1 #
edge $-1 $299 -35.246066640109994 $302 35.246066640109994 $297 $364 forward 7 unknown #
vertex $-1 $240 $365 #
straight-curve $-1 0 35.246066640109994 10.509495678391879 -1 0 0 I I #
coedge $-1 $355 $241 $362 $366 forward $185 $-1 #
vertex $-1 $298 $367 #
straight-curve $-1 0 -35.246066640109994 10.509495678391879 1 0 0 I I #
point $-1 51.595110219053964 -35.246066640109994 10.509495678391881 #
straight-curve $-1 51.595110219053964 -35.246066640109994 4.1618302086864567 0 0 1 I I #
coedge $-1 $247 $368 $294 $357 forward $97 $-1 #
coedge $-1 $369 $297 $247 $308 forward $363 $-1 #
edge $-1 $299 -10.509495678391879 $370 -3.2762534463793882 $247 $371 forward 7 unknown #
coedge $-1 $372 $250 $373 $374 reversed $97 $-1 #
coedge $-1 $254 $375 $250 $311 forward $317 $-1 #
edge $-1 $376 -61.914731284524066 $258 61.914731284524066 $250 $377 forward 7 unknown #
coedge $-1 $251 $378 $379 $380 forward $185 $-1 #
coedge $-1 $375 $254 $251 $314 forward $317 $-1 #
edge $-1 $256 -61.914731284524066 $381 61.914731284524066 $251 $382 forward 7 unknown #
face $-1 $191 $317 $11 $-1 $383 reversed single #
plane-surface $-1 0 -35.246066640109994 0 0 1 0 0 0 1 forward_v I I I I #
loop $-1 $-1 $254 $315 #
straight-curve $-1 61.914731284524066 0 -10.509495678391879 0 -1 0 I I #
point $-1 61.914731284524066 -35.246066640109994 -10.509495678391879 #
point $-1 61.914731284524066 35.246066640109994 -10.509495678391879 #
loop $-1 $-1 $384 $265 #
plane-surface $-1 0 0 -10.509495678391879 0 0 1 1 0 0 forward_v I I I I #
coedge $-1 $283 $278 $385 $386 forward $266 $-1 #
coedge $-1 $328 $330 $268 $325 forward $321 $-1 #
edge $-1 $327 -35.246066640109994 $326 35.246066640109994 $268 $387 forward 7 unknown #
vertex $-1 $329 $388 #
vertex $-1 $325 $389 #
coedge $-1 $384 $324 $272 $329 forward $321 $-1 #
edge $-1 $326 -61.914731284524066 $390 61.914731284524066 $272 $391 forward 7 unknown #
coedge $-1 $324 $384 $274 $331 forward $321 $-1 #
edge $-1 $392 -61.914731284524066 $327 61.914731284524066 $274 $393 forward 7 unknown #
coedge $-1 $278 $283 $276 $333 forward $266 $-1 #
edge $-1 $285 -35.246066640109994 $280 35.246066640109994 $276 $394 forward 7 unknown #
coedge $-1 $395 $385 $277 $335 forward $344 $-1 #
edge $-1 $336 -10.509495678391879 $392 10.509495678391879 $334 $396 forward 7 unknown #
vertex $-1 $386 $397 #
straight-curve $-1 0 -35.246066640109994 10.509495678391879 1 0 0 I I #
point $-1 -61.914731284524066 -35.246066640109994 10.509495678391879 #
coedge $-1 $385 $395 $282 $340 reversed $344 $-1 #
edge $-1 $341 -10.509495678391879 $390 10.509495678391879 $339 $398 forward 7 unknown #
vertex $-1 $386 $399 #
straight-curve $-1 0 35.246066640109994 10.509495678391879 -1 0 0 I I #
point $-1 -61.914731284524066 35.246066640109994 10.509495678391879 #
loop $-1 $-1 $334 $287 #
plane-surface $-1 61.914731284524066 0 0 -1 0 0 0 0 1 forward_v I I I I #
face $-1 $252 $363 $11 $-1 $348 reversed single #
loop $-1 $-1 $400 $289 #
plane-surface $-1 -61.914731284524066 0 0 1 0 0 0 0 -1 forward_v I I I I #
coedge $-1 $295 $352 $401 $402 reversed $290 $-1 #
coedge $-1 $403 $292 $372 $404 reversed $236 $-1 #
coedge $-1 $292 $403 $378 $405 reversed $236 $-1 #
coedge $-1 $349 $358 $292 $353 forward $290 $-1 #
edge $-1 $406 -35.246066640109994 $407 35.246066640109994 $352 $408 forward 7 unknown #
coedge $-1 $294 $293 $369 $409 reversed $170 $-1 #
coedge $-1 $401 $301 $293 $356 forward $185 $-1 #
edge $-1 $410 -33.675342146372181 $359 -22.80343612993159 $355 $411 forward 7 unknown #
edge $-1 $360 22.80343612993159 $370 33.675342146372181 $306 $412 forward 7 unknown #
coedge $-1 $352 $295 $368 $413 reversed $290 $-1 #
vertex $-1 $356 $414 #
vertex $-1 $357 $415 #
straight-curve $-1 -51.042825268083476 0 3.2762534463793882 0 1 0 I I #
coedge $-1 $297 $369 $301 $366 reversed $363 $-1 #
loop $-1 $-1 $369 $346 #
straight-curve $-1 -61.914731284524066 0 10.509495678391879 0 -1 0 I I #
point $-1 -61.914731284524066 35.246066640109994 10.509495678391879 #
edge $-1 $302 -10.509495678391879 $410 -3.2762534463793882 $362 $416 forward 7 unknown #
point $-1 -61.914731284524066 -35.246066640109994 10.509495678391879 #
coedge $-1 $306 $372 $358 $413 forward $97 $-1 #
coedge $-1 $362 $307 $354 $409 forward $363 $-1 #
vertex $-1 $409 $417 #
straight-curve $-1 -61.914731284524066 35.246066640109994 0 0 0 -1 I I #
coedge $-1 $368 $309 $350 $404 forward $97 $-1 #
coedge $-1 $418 $400 $309 $374 forward $347 $-1 #
edge $-1 $419 -0.2535907316877557 $376 10.509495678391879 $309 $371 forward 7 unknown #
coedge $-1 $310 $313 $418 $420 forward $317 $-1 #
vertex $-1 $311 $421 #
straight-curve $-1 0 35.246066640109994 -10.509495678391879 1 0 0 I I #
coedge $-1 $312 $401 $351 $405 forward $185 $-1 #
coedge $-1 $400 $418 $312 $380 reversed $347 $-1 #
edge $-1 $422 -0.2535907316877557 $381 10.509495678391879 $379 $416 forward 7 unknown #
vertex $-1 $420 $423 #
straight-curve $-1 0 -35.246066640109994 -10.509495678391879 -1 0 0 I I #
plane-surface $-1 0 0 -10.509495678391879 0 0 1 1 0 0 forward_v I I I I #
coedge $-1 $330 $328 $395 $424 forward $321 $-1 #
coedge $-1 $334 $339 $323 $386 reversed $344 $-1 #
edge $-1 $336 -35.246066640109994 $341 35.246066640109994 $385 $425 forward 7 unknown #
straight-curve $-1 -61.914731284524066 0 -10.509495678391879 0 1 0 I I #
point $-1 -61.914731284524066 35.246066640109994 -10.509495678391879 #
point $-1 -61.914731284524066 -35.246066640109994 -10.509495678391879 #
vertex $-1 $424 $426 #
straight-curve $-1 0 35.246066640109994 -10.509495678391879 1 0 0 I I #
vertex $-1 $335 $427 #
straight-curve $-1 0 -35.246066640109994 -10.509495678391879 -1 0 0 I I #
straight-curve $-1 -61.914731284524066 0 10.509495678391879 0 -1 0 I I #
coedge $-1 $339 $334 $384 $424 reversed $344 $-1 #
straight-curve $-1 61.914731284524066 -35.246066640109994 0 0 0 -1 I I #
point $-1 61.914731284524066 -35.246066640109994 10.509495678391879 #
straight-curve $-1 61.914731284524066 35.246066640109994 0 0 0 -1 I I #
point $-1 61.914731284524066 35.246066640109994 10.509495678391879 #
coedge $-1 $373 $379 $403 $428 forward $347 $-1 #
coedge $-1 $378 $355 $349 $402 forward $185 $-1 #
edge $-1 $359 -2.3937924018626022 $407 0.62887031282903028 $401 $429 forward 7 unknown #
coedge $-1 $351 $350 $400 $428 reversed $236 $-1 #
edge $-1 $419 -33.675342146372181 $406 -22.80343612993159 $372 $430 forward 7 unknown #
edge $-1 $407 22.80343612993159 $422 33.675342146372181 $378 $431 forward 7 unknown #
vertex $-1 $404 $432 #
vertex $-1 $405 $433 #
straight-curve $-1 -51.042825268083476 0 0.2535907316877557 0 -1 0 I I #
edge $-1 $370 -35.246066640109994 $410 35.246066640109994 $369 $434 forward 7 unknown #
vertex $-1 $356 $435 #
straight-curve $-1 -28.239389138151886 -35.246066640109994 3.2762534463793882 1 0 0 I I #
straight-curve $-1 -28.239389138151886 35.246066640109994 3.2762534463793882 -1 0 0 I I #
edge $-1 $406 -0.62887031282903028 $360 2.3937924018626022 $368 $436 forward 7 unknown #
point $-1 -51.042825268083476 -35.246066640109994 3.2762534463793882 #
point $-1 -51.042825268083476 35.246066640109994 3.2762534463793882 #
straight-curve $-1 -61.914731284524066 -35.246066640109994 0 0 0 -1 I I #
point $-1 -61.914731284524066 35.246066640109994 3.2762534463793882 #
coedge $-1 $379 $373 $375 $420 reversed $347 $-1 #
vertex $-1 $374 $437 #
edge $-1 $381 -35.246066640109994 $376 35.246066640109994 $418 $438 forward 7 unknown #
point $-1 -61.914731284524066 35.246066640109994 -10.509495678391879 #
vertex $-1 $380 $439 #
point $-1 -61.914731284524066 -35.246066640109994 -10.509495678391879 #
edge $-1 $390 -35.246066640109994 $392 35.246066640109994 $395 $440 forward 7 unknown #
straight-curve $-1 61.914731284524066 0 10.509495678391879 0 1 0 I I #
point $-1 61.914731284524066 35.246066640109994 -10.509495678391879 #
point $-1 61.914731284524066 -35.246066640109994 -10.509495678391879 #
edge $-1 $422 -35.246066640109994 $419 35.246066640109994 $400 $441 forward 7 unknown #
straight-curve $-1 -51.042825268083476 -35.246066640109994 0.88246104451678598 0 0 -1 I I #
straight-curve $-1 -28.239389138151886 35.246066640109994 0.2535907316877557 1 0 0 I I #
straight-curve $-1 -28.239389138151886 -35.246066640109994 0.2535907316877557 -1 0 0 I I #
point $-1 -51.042825268083476 35.246066640109994 0.2535907316877557 #
point $-1 -51.042825268083476 -35.246066640109994 0.2535907316877557 #
straight-curve $-1 -61.914731284524066 0 3.2762534463793882 0 -1 0 I I #
point $-1 -61.914731284524066 -35.246066640109994 3.2762534463793882 #
straight-curve $-1 -51.042825268083476 35.246066640109994 0.88246104451678598 0 0 1 I I #
point $-1 -61.914731284524066 35.246066640109994 0.2535907316877557 #
straight-curve $-1 -61.914731284524066 0 -10.509495678391879 0 1 0 I I #
point $-1 -61.914731284524066 -35.246066640109994 0.2535907316877557 #
straight-curve $-1 61.914731284524066 0 -10.509495678391879 0 -1 0 I I #
straight-curve $-1 -61.914731284524066 0 0.2535907316877557 0 1 0 I I #
End-of-ACIS-data 