500 0 8 0           
7 Unknown 11 ACIS 5.0 NT 24 Fri Mar 26 19:33:54 1999 
-1 9.9999999999999995e-007 1e-010 
body $-1 $8 $-1 $9 #
body $-1 $10 $-1 $11 #
body $-1 $12 $-1 $13 #
body $-1 $14 $-1 $15 #
body $-1 $16 $-1 $17 #
body $-1 $18 $-1 $19 #
body $-1 $20 $-1 $21 #
body $-1 $22 $-1 $23 #
lump $-1 $-1 $24 $0 #
transform $-1 1 0 0 0 1 0 0 0 1 40.45411542100284 21.403630847993885 4.7690636561541604 1 rotate no_reflect no_shear #
lump $-1 $-1 $25 $1 #
transform $-1 1 0 0 0 1 0 0 0 1 40.45411542100284 21.403630847993885 4.7690636561541604 1 rotate no_reflect no_shear #
lump $-1 $-1 $26 $2 #
transform $-1 1 0 0 0 1 0 0 0 1 40.45411542100284 21.403630847993885 4.7690636561541604 1 rotate no_reflect no_shear #
lump $-1 $-1 $27 $3 #
transform $-1 1 0 0 0 1 0 0 0 1 40.45411542100284 21.403630847993885 4.7690636561541604 1 rotate no_reflect no_shear #
lump $-1 $-1 $28 $4 #
transform $-1 1 0 0 0 1 0 0 0 1 40.45411542100284 21.403630847993885 4.7690636561541604 1 rotate no_reflect no_shear #
lump $-1 $-1 $29 $5 #
transform $-1 1 0 0 0 1 0 0 0 1 40.45411542100284 21.403630847993885 4.7690636561541604 1 rotate no_reflect no_shear #
lump $-1 $-1 $30 $6 #
transform $-1 1 0 0 0 1 0 0 0 1 40.45411542100284 21.403630847993885 4.7690636561541604 1 rotate no_reflect no_shear #
lump $-1 $-1 $31 $7 #
transform $-1 1 0 0 0 1 0 0 0 1 40.45411542100284 21.403630847993885 4.7690636561541604 1 rotate no_reflect no_shear #
shell $-1 $-1 $-1 $32 $-1 $8 #
shell $-1 $-1 $-1 $33 $-1 $10 #
shell $-1 $-1 $-1 $34 $-1 $12 #
shell $-1 $-1 $-1 $35 $-1 $14 #
shell $-1 $-1 $-1 $36 $-1 $16 #
shell $-1 $-1 $-1 $37 $-1 $18 #
shell $-1 $-1 $-1 $38 $-1 $20 #
shell $-1 $-1 $-1 $39 $-1 $22 #
face $-1 $40 $41 $24 $-1 $42 forward single #
face $-1 $43 $44 $25 $-1 $45 reversed single #
face $-1 $46 $47 $26 $-1 $48 reversed single #
face $-1 $49 $50 $27 $-1 $51 forward single #
face $-1 $52 $53 $28 $-1 $54 forward single #
face $-1 $55 $56 $29 $-1 $57 reversed single #
face $-1 $58 $59 $30 $-1 $60 forward single #
face $-1 $61 $62 $31 $-1 $63 forward single #
face $-1 $64 $65 $24 $-1 $66 reversed single #
loop $-1 $-1 $67 $32 #
plane-surface $-1 0 0 4.7690636561541604 0 0 1 1 0 0 forward_v I I I I #
face $-1 $68 $69 $25 $-1 $70 reversed single #
loop $-1 $-1 $71 $33 #
plane-surface $-1 -38.710106960107957 0 1.7690636561541604 0 0 1 1 0 0 forward_v I I I I #
face $-1 $72 $73 $26 $-1 $74 reversed single #
loop $-1 $-1 $75 $34 #
plane-surface $-1 50.426609222686707 -5.6658625577744868 114.66291725256202 0 -1 0 -0.7660444514056185 0 -0.64278759981090561 forward_v I I I I #
face $-1 $76 $77 $27 $-1 $78 forward single #
loop $-1 $79 $80 $35 #
cone-surface $-1 37.880387240401291 -11.623058297707567 2.0039759475785468 -0.7660444514056185 0 -0.64278759981090561 0.64278759981090561 0 -0.7660444514056185 1 I I 0 1 1 forward I I I I #
face $-1 $81 $82 $28 $-1 $83 forward single #
loop $-1 $84 $85 $36 #
cone-surface $-1 37.880387240401291 -8.0487408537477201 2.0039759475785468 -0.7660444514056185 0 -0.64278759981090561 0.64278759981090561 0 -0.7660444514056185 1 I I 0 1 1 forward I I I I #
face $-1 $86 $87 $29 $-1 $88 reversed single #
loop $-1 $-1 $89 $37 #
plane-surface $-1 50.426609222686707 14.005936593680797 114.66291725256202 0 -1 0 -0.7660444514056185 0 -0.64278759981090561 forward_v I I I I #
face $-1 $90 $91 $30 $-1 $92 forward single #
loop $-1 $93 $94 $38 #
cone-surface $-1 37.880387240401291 8.0487408537477201 2.0039759475785468 -0.7660444514056185 0 -0.64278759981090561 0.64278759981090561 0 -0.7660444514056185 1 I I 0 1 1 forward I I I I #
face $-1 $95 $96 $31 $-1 $97 forward single #
loop $-1 $98 $99 $39 #
cone-surface $-1 37.880387240401291 11.623058297707569 2.0039759475785468 -0.7660444514056185 0 -0.64278759981090561 0.64278759981090561 0 -0.7660444514056185 1 I I 0 1 1 forward I I I I #
face $-1 $100 $101 $24 $-1 $102 reversed single #
loop $-1 $-1 $103 $40 #
plane-surface $-1 0 0 -4.7690636561541604 0 0 1 1 0 0 forward_v I I I I #
coedge $-1 $104 $105 $106 $107 forward $41 $-1 #
face $-1 $108 $109 $25 $-1 $110 reversed single #
loop $-1 $-1 $111 $43 #
plane-surface $-1 -36.966098499213075 0 3.2690636561541604 -1 0 0 0 0 1 forward_v I I I I #
coedge $-1 $112 $113 $114 $115 forward $44 $-1 #
face $-1 $116 $117 $26 $-1 $118 reversed single #
loop $-1 $-1 $119 $46 #
plane-surface $-1 -11.552692086876675 -9.8358995757276428 62.65610974468251 0.7660444514056185 0 0.64278759981090561 0.64278759981090561 0 -0.7660444514056185 forward_v I I I I #
coedge $-1 $120 $121 $122 $123 reversed $47 $-1 #
face $-1 $-1 $124 $27 $-1 $125 forward single #
loop $-1 $126 $127 $49 #
cone-surface $-1 36.640541712473194 -11.623058297707567 0.96362204961499653 -0.7660444514056185 0 -0.64278759981090561 0.3213937999054528 0 -0.38302222570280925 1 I I -0.70710678118654746 0.70710678118654746 0.5 forward I I I I #
loop $-1 $-1 $128 $35 #
coedge $-1 $80 $80 $129 $130 reversed $50 $-1 #
face $-1 $-1 $131 $28 $-1 $132 forward single #
loop $-1 $133 $134 $52 #
cone-surface $-1 36.640541712473194 -8.0487408537477201 0.96362204961499653 -0.7660444514056185 0 -0.64278759981090561 0.3213937999054528 0 -0.38302222570280925 1 I I -0.70710678118654746 0.70710678118654746 0.5 forward I I I I #
loop $-1 $-1 $135 $36 #
coedge $-1 $85 $85 $136 $137 reversed $53 $-1 #
face $-1 $138 $139 $29 $-1 $140 reversed single #
loop $-1 $-1 $141 $55 #
plane-surface $-1 -11.552692086876675 9.8358995757276411 62.65610974468251 0.7660444514056185 0 0.64278759981090561 0.64278759981090561 0 -0.7660444514056185 forward_v I I I I #
coedge $-1 $142 $143 $144 $145 reversed $56 $-1 #
face $-1 $-1 $146 $30 $-1 $147 forward single #
loop $-1 $148 $149 $58 #
cone-surface $-1 36.640541712473194 8.0487408537477201 0.96362204961499653 -0.7660444514056185 0 -0.64278759981090561 0.3213937999054528 0 -0.38302222570280925 1 I I -0.70710678118654746 0.70710678118654746 0.5 forward I I I I #
loop $-1 $-1 $150 $38 #
coedge $-1 $94 $94 $151 $152 reversed $59 $-1 #
face $-1 $-1 $153 $31 $-1 $154 forward single #
loop $-1 $155 $156 $61 #
cone-surface $-1 36.640541712473194 11.623058297707569 0.96362204961499653 -0.7660444514056185 0 -0.64278759981090561 0.3213937999054528 0 -0.38302222570280925 1 I I -0.70710678118654746 0.70710678118654746 0.5 forward I I I I #
loop $-1 $-1 $157 $39 #
coedge $-1 $99 $99 $158 $159 reversed $62 $-1 #
face $-1 $160 $161 $24 $-1 $162 reversed single #
loop $-1 $-1 $163 $64 #
plane-surface $-1 0 -21.403630847993885 0 0 1 0 0 0 1 forward_v I I I I #
coedge $-1 $164 $165 $166 $167 forward $65 $-1 #
coedge $-1 $168 $67 $169 $170 forward $41 $-1 #
coedge $-1 $67 $168 $171 $172 forward $41 $-1 #
coedge $-1 $173 $174 $67 $107 reversed $175 $-1 #
edge $-1 $176 -21.403630847993885 $177 21.403630847993885 $106 $178 forward 7 unknown #
face $-1 $179 $180 $25 $-1 $181 reversed single #
loop $-1 $-1 $182 $68 #
plane-surface $-1 0 21.403630847993885 0 0 -1 0 0 0 -1 forward_v I I I I #
coedge $-1 $114 $183 $184 $185 reversed $69 $-1 #
coedge $-1 $186 $71 $187 $188 reversed $44 $-1 #
coedge $-1 $71 $186 $189 $190 reversed $44 $-1 #
coedge $-1 $191 $111 $71 $115 reversed $69 $-1 #
edge $-1 $192 -21.403630847993885 $193 21.403630847993885 $114 $194 forward 7 unknown #
face $-1 $195 $196 $26 $-1 $197 forward single #
loop $-1 $-1 $198 $72 #
plane-surface $-1 50.426609222686707 -14.005936593680799 114.66291725256202 0 1 0 0.7660444514056185 0 0.64278759981090561 forward_v I I I I #
coedge $-1 $199 $200 $201 $202 reversed $73 $-1 #
coedge $-1 $121 $75 $203 $204 reversed $47 $-1 #
coedge $-1 $75 $120 $199 $205 reversed $47 $-1 #
coedge $-1 $201 $206 $75 $123 forward $196 $-1 #
edge $-1 $207 -15.240810809659486 $208 -11.807001052906948 $122 $209 forward 7 unknown #
loop $-1 $-1 $129 $76 #
plane-surface $-1 -11.552692086876675 -9.8358995757276428 62.65610974468251 0.7660444514056185 0 0.64278759981090561 0.64278759981090561 0 -0.7660444514056185 forward_v I I I I #
loop $-1 $-1 $210 $49 #
coedge $-1 $127 $127 $128 $211 reversed $77 $-1 #
coedge $-1 $128 $128 $127 $211 forward $79 $-1 #
coedge $-1 $129 $129 $80 $130 forward $124 $-1 #
edge $-1 $212 0 $212 6.2831853071796004 $129 $213 forward 7 unknown #
loop $-1 $-1 $136 $81 #
plane-surface $-1 -11.552692086876675 -9.8358995757276428 62.65610974468251 0.7660444514056185 0 0.64278759981090561 0.64278759981090561 0 -0.7660444514056185 forward_v I I I I #
loop $-1 $-1 $214 $52 #
coedge $-1 $134 $134 $135 $215 reversed $82 $-1 #
coedge $-1 $135 $135 $134 $215 forward $84 $-1 #
coedge $-1 $136 $136 $85 $137 forward $131 $-1 #
edge $-1 $216 0 $216 6.2831853071796004 $136 $217 forward 7 unknown #
face $-1 $218 $219 $29 $-1 $220 reversed single #
loop $-1 $-1 $221 $86 #
plane-surface $-1 50.426609222686707 5.665862557774485 114.66291725256202 0 1 0 0.7660444514056185 0 0.64278759981090561 forward_v I I I I #
coedge $-1 $222 $223 $224 $225 reversed $87 $-1 #
coedge $-1 $143 $89 $226 $227 reversed $56 $-1 #
coedge $-1 $89 $142 $222 $228 reversed $56 $-1 #
coedge $-1 $224 $229 $89 $145 forward $230 $-1 #
edge $-1 $231 -15.240810809659486 $232 -11.807001052906948 $144 $233 forward 7 unknown #
loop $-1 $-1 $151 $90 #
plane-surface $-1 -11.552692086876675 9.8358995757276411 62.65610974468251 0.7660444514056185 0 0.64278759981090561 0.64278759981090561 0 -0.7660444514056185 forward_v I I I I #
loop $-1 $-1 $234 $58 #
coedge $-1 $149 $149 $150 $235 reversed $91 $-1 #
coedge $-1 $150 $150 $149 $235 forward $93 $-1 #
coedge $-1 $151 $151 $94 $152 forward $146 $-1 #
edge $-1 $236 0 $236 6.2831853071796004 $151 $237 forward 7 unknown #
loop $-1 $-1 $158 $95 #
plane-surface $-1 -11.552692086876675 9.8358995757276411 62.65610974468251 0.7660444514056185 0 0.64278759981090561 0.64278759981090561 0 -0.7660444514056185 forward_v I I I I #
loop $-1 $-1 $238 $61 #
coedge $-1 $156 $156 $157 $239 reversed $96 $-1 #
coedge $-1 $157 $157 $156 $239 forward $98 $-1 #
coedge $-1 $158 $158 $99 $159 forward $153 $-1 #
edge $-1 $240 0 $240 6.2831853071796004 $158 $241 forward 7 unknown #
face $-1 $242 $243 $24 $-1 $244 reversed single #
loop $-1 $-1 $245 $100 #
plane-surface $-1 -40.45411542100284 0 0 1 0 0 0 0 -1 forward_v I I I I #
coedge $-1 $246 $171 $247 $248 forward $101 $-1 #
coedge $-1 $249 $103 $246 $250 forward $65 $-1 #
coedge $-1 $103 $249 $251 $252 forward $65 $-1 #
coedge $-1 $174 $173 $103 $167 reversed $175 $-1 #
edge $-1 $253 -21.403630847993885 $254 21.403630847993885 $166 $255 forward 7 unknown #
coedge $-1 $105 $104 $256 $257 forward $41 $-1 #
coedge $-1 $258 $259 $104 $170 reversed $243 $-1 #
edge $-1 $177 -40.45411542100284 $260 40.45411542100284 $169 $261 forward 7 unknown #
coedge $-1 $163 $262 $105 $172 reversed $101 $-1 #
edge $-1 $263 -40.45411542100284 $176 40.45411542100284 $171 $264 forward 7 unknown #
coedge $-1 $166 $106 $262 $265 forward $175 $-1 #
coedge $-1 $106 $166 $258 $266 reversed $175 $-1 #
loop $-1 $-1 $173 $242 #
vertex $-1 $107 $267 #
vertex $-1 $107 $268 #
straight-curve $-1 40.45411542100284 0 4.7690636561541604 0 1 0 I I #
face $-1 $269 $270 $25 $-1 $271 forward single #
loop $-1 $-1 $272 $108 #
plane-surface $-1 -40.45411542100284 0 0 1 0 0 0 0 -1 forward_v I I I I #
coedge $-1 $189 $273 $191 $274 forward $109 $-1 #
coedge $-1 $111 $191 $275 $276 reversed $69 $-1 #
coedge $-1 $277 $187 $111 $185 forward $278 $-1 #
edge $-1 $193 0.1345318280770802 $279 3.1345318280770802 $184 $280 forward 7 unknown #
coedge $-1 $113 $112 $272 $281 reversed $44 $-1 #
coedge $-1 $184 $282 $112 $188 forward $278 $-1 #
edge $-1 $283 -21.099061940948861 $193 -17.611045019159096 $187 $284 forward 7 unknown #
coedge $-1 $285 $182 $113 $190 forward $109 $-1 #
edge $-1 $192 17.611045019159096 $286 21.099061940948861 $189 $287 forward 7 unknown #
coedge $-1 $183 $114 $182 $274 reversed $69 $-1 #
vertex $-1 $190 $288 #
vertex $-1 $188 $289 #
straight-curve $-1 -36.966098499213075 0 1.7690636561541604 0 -1 0 I I #
face $-1 $-1 $290 $26 $-1 $291 reversed single #
loop $-1 $-1 $122 $116 #
plane-surface $-1 0 0 4.7690636561541604 0 0 1 1 0 0 forward_v I I I I #
coedge $-1 $292 $293 $294 $295 reversed $117 $-1 #
coedge $-1 $296 $119 $121 $205 forward $73 $-1 #
coedge $-1 $119 $296 $292 $297 forward $73 $-1 #
coedge $-1 $294 $122 $119 $202 forward $196 $-1 #
edge $-1 $208 0.74791276991066535 $298 9.0879868058169784 $201 $299 forward 7 unknown #
coedge $-1 $300 $301 $120 $204 forward $290 $-1 #
edge $-1 $302 -56.654650191161885 $207 -52.562394970126853 $203 $303 forward 7 unknown #
edge $-1 $208 75.5661711044459 $302 80.908230842005693 $121 $304 forward 7 unknown #
coedge $-1 $122 $294 $300 $305 forward $196 $-1 #
vertex $-1 $204 $306 #
vertex $-1 $123 $307 #
straight-curve $-1 25.213304611343354 -5.6658625577744868 4.7690636561541595 -1 0 0 I I #
coedge $-1 $210 $210 $-1 $308 reversed $126 $-1 #
edge $-1 $309 0 $309 6.2831853071796004 $127 $310 forward 7 unknown #
vertex $-1 $130 $311 #
ellipse-curve $-1 38.73721054262657 -11.623058297707567 2.7229360456366427 0.7660444514056185 0 0.64278759981090561 0.64278759981090561 0 -0.7660444514056185 1 I I #
coedge $-1 $214 $214 $-1 $312 reversed $133 $-1 #
edge $-1 $313 0 $313 6.2831853071796004 $134 $314 forward 7 unknown #
vertex $-1 $137 $315 #
ellipse-curve $-1 38.73721054262657 -8.0487408537477201 2.7229360456366427 0.7660444514056185 0 0.64278759981090561 0.64278759981090561 0 -0.7660444514056185 1 I I #
face $-1 $-1 $230 $29 $-1 $316 forward single #
loop $-1 $-1 $317 $138 #
plane-surface $-1 40.45411542100284 0 0 -1 0 0 0 0 1 forward_v I I I I #
coedge $-1 $318 $319 $320 $321 reversed $139 $-1 #
coedge $-1 $322 $141 $143 $228 forward $87 $-1 #
coedge $-1 $141 $322 $318 $323 forward $87 $-1 #
coedge $-1 $320 $144 $141 $225 forward $230 $-1 #
edge $-1 $232 -9.0879868058169766 $324 -0.74791276991066447 $224 $325 forward 7 unknown #
coedge $-1 $326 $327 $142 $227 forward $219 $-1 #
edge $-1 $328 -56.654650191161885 $231 -52.562394970126853 $226 $329 forward 7 unknown #
edge $-1 $232 75.5661711044459 $328 80.908230842005693 $143 $330 forward 7 unknown #
coedge $-1 $144 $320 $326 $331 forward $230 $-1 #
loop $-1 $-1 $320 $218 #
vertex $-1 $227 $332 #
vertex $-1 $145 $333 #
straight-curve $-1 25.213304611343354 14.005936593680797 4.7690636561541595 -1 0 0 I I #
coedge $-1 $234 $234 $-1 $334 reversed $148 $-1 #
edge $-1 $335 0 $335 6.2831853071796004 $149 $336 forward 7 unknown #
vertex $-1 $152 $337 #
ellipse-curve $-1 38.73721054262657 8.0487408537477201 2.7229360456366427 0.7660444514056185 0 0.64278759981090561 0.64278759981090561 0 -0.7660444514056185 1 I I #
coedge $-1 $238 $238 $-1 $338 reversed $155 $-1 #
edge $-1 $339 0 $339 6.2831853071796004 $156 $340 forward 7 unknown #
vertex $-1 $159 $341 #
ellipse-curve $-1 38.73721054262657 11.623058297707569 2.7229360456366427 0.7660444514056185 0 0.64278759981090561 0.64278759981090561 0 -0.7660444514056185 1 I I #
face $-1 $-1 $175 $24 $-1 $342 reversed single #
loop $-1 $-1 $258 $160 #
plane-surface $-1 0 21.403630847993885 0 0 -1 0 0 0 -1 forward_v I I I I #
coedge $-1 $343 $256 $259 $344 forward $161 $-1 #
coedge $-1 $262 $163 $164 $250 reversed $101 $-1 #
coedge $-1 $256 $343 $163 $248 reversed $161 $-1 #
edge $-1 $263 -4.7690636561541604 $345 4.7690636561541604 $247 $346 forward 7 unknown #
coedge $-1 $165 $164 $343 $347 forward $65 $-1 #
edge $-1 $254 -40.45411542100284 $345 40.45411542100284 $246 $348 forward 7 unknown #
coedge $-1 $259 $258 $165 $252 reversed $243 $-1 #
edge $-1 $349 -40.45411542100284 $253 40.45411542100284 $251 $350 forward 7 unknown #
vertex $-1 $167 $351 #
vertex $-1 $265 $352 #
straight-curve $-1 40.45411542100284 0 -4.7690636561541604 0 -1 0 I I #
coedge $-1 $245 $247 $168 $257 reversed $161 $-1 #
edge $-1 $260 -21.403630847993885 $263 21.403630847993885 $256 $353 forward 7 unknown #
coedge $-1 $251 $169 $174 $266 forward $243 $-1 #
coedge $-1 $169 $251 $245 $344 reversed $243 $-1 #
vertex $-1 $170 $354 #
straight-curve $-1 0 21.403630847993885 4.7690636561541604 -1 0 0 I I #
coedge $-1 $171 $246 $173 $265 reversed $101 $-1 #
vertex $-1 $257 $355 #
straight-curve $-1 0 -21.403630847993885 4.7690636561541604 1 0 0 I I #
edge $-1 $176 -4.7690636561541604 $254 4.7690636561541604 $173 $356 forward 7 unknown #
edge $-1 $177 -4.7690636561541604 $253 4.7690636561541604 $174 $357 forward 7 unknown #
point $-1 40.45411542100284 -21.403630847993885 4.7690636561541604 #
point $-1 40.45411542100284 21.403630847993885 4.7690636561541604 #
face $-1 $-1 $278 $25 $-1 $358 reversed single #
loop $-1 $-1 $275 $179 #
plane-surface $-1 0 0 4.7690636561541604 0 0 1 1 0 0 forward_v I I I I #
coedge $-1 $359 $360 $186 $281 forward $180 $-1 #
coedge $-1 $182 $285 $361 $362 reversed $109 $-1 #
edge $-1 $363 -3.1345318280770802 $192 -0.1345318280770802 $182 $364 forward 7 unknown #
coedge $-1 $361 $365 $183 $276 forward $270 $-1 #
edge $-1 $279 -21.403630847993885 $363 21.403630847993885 $275 $366 forward 7 unknown #
coedge $-1 $282 $184 $365 $367 reversed $278 $-1 #
loop $-1 $-1 $184 $269 #
vertex $-1 $185 $368 #
straight-curve $-1 -36.966098499213075 -21.403630847993885 1.6345318280770802 0 0 1 I I #
edge $-1 $286 -21.403630847993885 $283 21.403630847993885 $272 $369 forward 7 unknown #
coedge $-1 $187 $277 $359 $370 forward $278 $-1 #
vertex $-1 $281 $371 #
straight-curve $-1 -19.355053480053979 -21.403630847993885 1.7690636561541604 1 0 0 I I #
coedge $-1 $273 $189 $360 $372 reversed $109 $-1 #
vertex $-1 $281 $373 #
straight-curve $-1 -19.355053480053979 21.403630847993885 1.7690636561541604 -1 0 0 I I #
point $-1 -36.966098499213075 21.403630847993885 1.7690636561541604 #
point $-1 -36.966098499213075 -21.403630847993885 1.7690636561541604 #
loop $-1 $-1 $203 $195 #
plane-surface $-1 40.45411542100284 0 0 -1 0 0 0 0 1 forward_v I I I I #
coedge $-1 $293 $198 $200 $297 reversed $117 $-1 #
coedge $-1 $198 $292 $374 $375 reversed $117 $-1 #
coedge $-1 $206 $201 $198 $295 forward $196 $-1 #
edge $-1 $298 11.807001052906948 $376 15.240810809659486 $294 $377 forward 7 unknown #
coedge $-1 $200 $199 $301 $378 reversed $73 $-1 #
edge $-1 $379 -80.908230842005693 $298 -75.5661711044459 $292 $380 forward 7 unknown #
vertex $-1 $202 $381 #
straight-curve $-1 37.020305664250309 -4.9179497878638214 4.7690636561541595 0 -1 0 I I #
coedge $-1 $374 $203 $206 $305 reversed $290 $-1 #
coedge $-1 $203 $374 $296 $378 forward $290 $-1 #
vertex $-1 $204 $382 #
straight-curve $-1 40.45411542100284 -5.6658625577744868 57.331458626281012 0 0 1 I I #
straight-curve $-1 -11.552692086876675 -5.6658625577744868 62.65610974468251 0.64278759981090561 0 -0.7660444514056185 I I #
edge $-1 $376 -14.005936593680799 $207 -5.6658625577744868 $300 $383 forward 7 unknown #
point $-1 40.45411542100284 -5.6658625577744868 4.7690636561541604 #
point $-1 37.020305664250301 -5.6658625577744868 4.7690636561541666 #
edge $-1 $384 1 $384 0 $210 $-1 forward 7 unknown #
vertex $-1 $211 $385 #
ellipse-curve $-1 37.023563938176004 -11.623058297707567 1.2850158495204493 0.7660444514056185 0 0.64278759981090561 0.64278759981090561 0 -0.7660444514056185 1 I I #
point $-1 39.379998142437479 -11.623058297707567 1.9568915942310263 #
edge $-1 $386 1 $386 0 $214 $-1 forward 7 unknown #
vertex $-1 $215 $387 #
ellipse-curve $-1 37.023563938176004 -8.0487408537477201 1.2850158495204493 0.7660444514056185 0 0.64278759981090561 0.64278759981090561 0 -0.7660444514056185 1 I I #
point $-1 39.379998142437479 -8.0487408537477201 1.9568915942310263 #
plane-surface $-1 0 0 4.7690636561541604 0 0 1 1 0 0 forward_v I I I I #
coedge $-1 $327 $326 $319 $388 forward $219 $-1 #
coedge $-1 $319 $221 $223 $323 reversed $139 $-1 #
coedge $-1 $221 $318 $317 $388 reversed $139 $-1 #
coedge $-1 $229 $224 $221 $321 forward $230 $-1 #
edge $-1 $324 11.807001052906948 $389 15.240810809659486 $320 $390 forward 7 unknown #
coedge $-1 $223 $222 $327 $391 reversed $87 $-1 #
edge $-1 $392 -80.908230842005693 $324 -75.5661711044459 $318 $393 forward 7 unknown #
vertex $-1 $225 $394 #
straight-curve $-1 37.020305664250309 4.9179497878638205 4.7690636561541595 0 -1 0 I I #
coedge $-1 $317 $226 $229 $331 reversed $219 $-1 #
coedge $-1 $226 $317 $322 $391 forward $219 $-1 #
vertex $-1 $227 $395 #
straight-curve $-1 40.45411542100284 14.005936593680797 57.331458626281012 0 0 1 I I #
straight-curve $-1 -11.552692086876675 14.005936593680797 62.65610974468251 0.64278759981090561 0 -0.7660444514056185 I I #
edge $-1 $389 5.665862557774485 $231 14.005936593680797 $326 $396 forward 7 unknown #
point $-1 40.45411542100284 14.005936593680797 4.7690636561541604 #
point $-1 37.020305664250301 14.005936593680797 4.7690636561541666 #
edge $-1 $397 1 $397 0 $234 $-1 forward 7 unknown #
vertex $-1 $235 $398 #
ellipse-curve $-1 37.023563938176004 8.0487408537477201 1.2850158495204493 0.7660444514056185 0 0.64278759981090561 0.64278759981090561 0 -0.7660444514056185 1 I I #
point $-1 39.379998142437479 8.0487408537477201 1.9568915942310263 #
edge $-1 $399 1 $399 0 $238 $-1 forward 7 unknown #
vertex $-1 $239 $400 #
ellipse-curve $-1 37.023563938176004 11.623058297707569 1.2850158495204493 0.7660444514056185 0 0.64278759981090561 0.64278759981090561 0 -0.7660444514056185 1 I I #
point $-1 39.379998142437479 11.623058297707569 1.9568915942310263 #
plane-surface $-1 40.45411542100284 0 0 -1 0 0 0 0 1 forward_v I I I I #
coedge $-1 $247 $245 $249 $347 reversed $161 $-1 #
edge $-1 $260 -4.7690636561541604 $349 4.7690636561541604 $259 $401 forward 7 unknown #
vertex $-1 $347 $402 #
straight-curve $-1 -40.45411542100284 -21.403630847993885 0 0 0 -1 I I #
edge $-1 $345 -21.403630847993885 $349 21.403630847993885 $343 $403 forward 7 unknown #
straight-curve $-1 0 -21.403630847993885 -4.7690636561541604 -1 0 0 I I #
vertex $-1 $252 $404 #
straight-curve $-1 0 21.403630847993885 -4.7690636561541604 1 0 0 I I #
point $-1 40.45411542100284 21.403630847993885 -4.7690636561541604 #
point $-1 40.45411542100284 -21.403630847993885 -4.7690636561541604 #
straight-curve $-1 -40.45411542100284 0 4.7690636561541604 0 -1 0 I I #
point $-1 -40.45411542100284 21.403630847993885 4.7690636561541604 #
point $-1 -40.45411542100284 -21.403630847993885 4.7690636561541604 #
straight-curve $-1 40.45411542100284 -21.403630847993885 0 0 0 -1 I I #
straight-curve $-1 40.45411542100284 21.403630847993885 0 0 0 -1 I I #
plane-surface $-1 0 -21.403630847993885 0 0 1 0 0 0 1 forward_v I I I I #
coedge $-1 $405 $272 $282 $370 reversed $180 $-1 #
coedge $-1 $272 $405 $285 $372 forward $180 $-1 #
coedge $-1 $406 $275 $273 $362 forward $270 $-1 #
edge $-1 $363 36.966098499213075 $407 40.45411542100284 $273 $408 forward 7 unknown #
vertex $-1 $362 $409 #
straight-curve $-1 -36.966098499213075 21.403630847993885 1.6345318280770802 0 0 -1 I I #
coedge $-1 $275 $406 $277 $367 forward $270 $-1 #
straight-curve $-1 -36.966098499213075 0 4.7690636561541604 0 1 0 I I #
edge $-1 $410 -40.45411542100284 $279 -36.966098499213075 $277 $411 forward 7 unknown #
point $-1 -36.966098499213075 -21.403630847993885 4.7690636561541604 #
straight-curve $-1 -40.45411542100284 0 1.7690636561541604 0 -1 0 I I #
edge $-1 $410 -4.7690636561541604 $283 -1.7690636561541604 $359 $412 forward 7 unknown #
point $-1 -40.45411542100284 -21.403630847993885 1.7690636561541604 #
edge $-1 $407 -4.7690636561541604 $286 -1.7690636561541604 $285 $413 forward 7 unknown #
point $-1 -40.45411542100284 21.403630847993885 1.7690636561541604 #
coedge $-1 $301 $300 $293 $375 forward $290 $-1 #
edge $-1 $376 52.562394970126853 $379 56.654650191161885 $374 $414 forward 7 unknown #
vertex $-1 $305 $415 #
straight-curve $-1 25.213304611343354 -14.005936593680799 4.7690636561541595 1 0 0 I I #
edge $-1 $379 -9.0879868058169784 $302 -0.74791276991066535 $301 $416 forward 7 unknown #
vertex $-1 $378 $417 #
straight-curve $-1 -11.552692086876675 -14.005936593680799 62.65610974468251 -0.64278759981090561 0 0.7660444514056185 I I #
point $-1 37.020305664250301 -14.005936593680799 4.7690636561541666 #
point $-1 40.45411542100284 -5.6658625577744868 0.67680843511912769 #
straight-curve $-1 40.45411542100284 0 4.7690636561541604 0 1 0 I I #
vertex $-1 $308 $418 #
point $-1 37.666351537986912 -11.623058297707567 0.51897139811483084 #
vertex $-1 $312 $419 #
point $-1 37.666351537986912 -8.0487408537477201 0.51897139811483084 #
edge $-1 $389 52.562394970126853 $392 56.654650191161885 $317 $420 forward 7 unknown #
vertex $-1 $331 $421 #
straight-curve $-1 25.213304611343354 5.665862557774485 4.7690636561541595 1 0 0 I I #
edge $-1 $392 0.74791276991066447 $328 9.0879868058169766 $327 $422 forward 7 unknown #
vertex $-1 $391 $423 #
straight-curve $-1 -11.552692086876675 5.665862557774485 62.65610974468251 -0.64278759981090561 0 0.7660444514056185 I I #
point $-1 37.020305664250301 5.665862557774485 4.7690636561541666 #
point $-1 40.45411542100284 14.005936593680797 0.67680843511912769 #
straight-curve $-1 40.45411542100284 0 4.7690636561541604 0 1 0 I I #
vertex $-1 $334 $424 #
point $-1 37.666351537986912 8.0487408537477201 0.51897139811483084 #
vertex $-1 $338 $425 #
point $-1 37.666351537986912 11.623058297707569 0.51897139811483084 #
straight-curve $-1 -40.45411542100284 21.403630847993885 0 0 0 -1 I I #
point $-1 -40.45411542100284 -21.403630847993885 -4.7690636561541604 #
straight-curve $-1 -40.45411542100284 0 -4.7690636561541604 0 1 0 I I #
point $-1 -40.45411542100284 21.403630847993885 -4.7690636561541604 #
coedge $-1 $360 $359 $406 $426 reversed $180 $-1 #
coedge $-1 $365 $361 $405 $426 forward $270 $-1 #
vertex $-1 $362 $427 #
straight-curve $-1 0 21.403630847993885 4.7690636561541604 -1 0 0 I I #
point $-1 -36.966098499213075 21.403630847993885 4.7690636561541604 #
vertex $-1 $426 $428 #
straight-curve $-1 0 -21.403630847993885 4.7690636561541604 1 0 0 I I #
straight-curve $-1 -40.45411542100284 -21.403630847993885 0 0 0 -1 I I #
straight-curve $-1 -40.45411542100284 21.403630847993885 0 0 0 -1 I I #
straight-curve $-1 40.45411542100284 -14.005936593680799 57.331458626281012 0 0 -1 I I #
point $-1 40.45411542100284 -14.005936593680799 4.7690636561541604 #
straight-curve $-1 40.45411542100284 -4.9179497878638214 0.67680843511912414 0 1 0 I I #
point $-1 40.45411542100284 -14.005936593680799 0.67680843511912769 #
point $-1 36.257519486770384 -11.623058297707567 0.64222824970954373 #
point $-1 36.257519486770384 -8.0487408537477201 0.64222824970954373 #
straight-curve $-1 40.45411542100284 5.665862557774485 57.331458626281012 0 0 -1 I I #
point $-1 40.45411542100284 5.665862557774485 4.7690636561541604 #
straight-curve $-1 40.45411542100284 4.9179497878638205 0.67680843511912414 0 1 0 I I #
point $-1 40.45411542100284 5.665862557774485 0.67680843511912769 #
point $-1 36.257519486770384 8.0487408537477201 0.64222824970954373 #
point $-1 36.257519486770384 11.623058297707569 0.64222824970954373 #
edge $-1 $407 -21.403630847993885 $410 21.403630847993885 $405 $429 forward 7 unknown #
point $-1 -40.45411542100284 21.403630847993885 4.7690636561541604 #
point $-1 -40.45411542100284 -21.403630847993885 4.7690636561541604 #
straight-curve $-1 -40.45411542100284 0 4.7690636561541604 0 -1 0 I I #
End-of-ACIS-data 