500 0 4 0           
7 Unknown 11 ACIS 5.0 NT 24 Thu Mar 25 21:10:56 1999 
-1 9.9999999999999995e-007 1e-010 
body $-1 $4 $-1 $5 #
body $-1 $6 $-1 $7 #
body $-1 $8 $-1 $9 #
body $-1 $10 $-1 $11 #
lump $-1 $-1 $12 $0 #
transform $-1 1 0 0 0 1 0 0 0 1 76.463515121921446 49.88971919449736 19.871081093151783 1 rotate no_reflect no_shear #
lump $-1 $-1 $13 $1 #
transform $-1 1 0 0 0 1 0 0 0 1 76.463515121921446 49.88971919449736 19.871081093151783 1 rotate no_reflect no_shear #
lump $-1 $-1 $14 $2 #
transform $-1 1 0 0 0 1 0 0 0 1 76.463515121921446 49.88971919449736 19.871081093151783 1 rotate no_reflect no_shear #
lump $-1 $-1 $15 $3 #
transform $-1 1 0 0 0 1 0 0 0 1 76.463515121921446 49.88971919449736 19.871081093151783 1 rotate no_reflect no_shear #
shell $-1 $-1 $-1 $16 $-1 $4 #
shell $-1 $-1 $-1 $17 $-1 $6 #
shell $-1 $-1 $-1 $18 $-1 $8 #
shell $-1 $-1 $-1 $19 $-1 $10 #
face $-1 $20 $21 $12 $-1 $22 reversed single #
face $-1 $23 $24 $13 $-1 $25 forward single #
face $-1 $26 $27 $14 $-1 $28 reversed single #
face $-1 $29 $30 $15 $-1 $31 forward single #
face $-1 $32 $33 $12 $-1 $34 forward single #
loop $-1 $-1 $35 $16 #
plane-surface $-1 0 -49.88971919449736 0 0 1 0 0 0 1 forward_v I I I I #
face $-1 $36 $37 $13 $-1 $38 reversed single #
loop $-1 $-1 $39 $17 #
plane-surface $-1 0 -49.88971919449736 0 0 1 0 0 0 1 forward_v I I I I #
face $-1 $40 $41 $14 $-1 $42 reversed single #
loop $-1 $-1 $43 $18 #
plane-surface $-1 -55.978191050468475 120.87602169560506 184.78949752893564 -1 0 0 0 0.82903758062907751 0.55919289150049634 forward_v I I I I #
face $-1 $44 $45 $15 $-1 $46 forward single #
loop $-1 $47 $48 $19 #
cone-surface $-1 -66.220853086194964 48.225236356950418 17.844101344574334 0 -0.82903758062907751 -0.55919289150049634 0.5 0 0 1 I I 0 1 0.5 forward I I I I #
face $-1 $49 $50 $12 $-1 $51 reversed single #
loop $-1 $-1 $52 $20 #
plane-surface $-1 0 0 19.871081093151783 0 0 1 1 0 0 forward_v I I I I #
coedge $-1 $53 $54 $55 $56 reversed $21 $-1 #
face $-1 $57 $58 $13 $-1 $59 reversed single #
loop $-1 $-1 $60 $23 #
plane-surface $-1 0 0 -19.871081093151783 0 0 1 1 0 0 forward_v I I I I #
coedge $-1 $61 $62 $63 $64 forward $24 $-1 #
face $-1 $65 $66 $14 $-1 $67 reversed single #
loop $-1 $-1 $68 $26 #
plane-surface $-1 -66.220853086194964 -5.9062334705402151 99.273789298297274 0 0.82903758062907751 0.55919289150049634 1 0 0 forward_v I I I I #
coedge $-1 $69 $70 $71 $72 reversed $27 $-1 #
face $-1 $-1 $73 $15 $-1 $74 forward single #
loop $-1 $75 $76 $29 #
cone-surface $-1 -66.220853086194964 47.472569818440817 17.336421369819167 0 -0.82903758062907751 -0.55919289150049634 0.25 0 0 1 I I -0.70710678118654746 0.70710678118654746 0.25 forward I I I I #
loop $-1 $-1 $77 $19 #
coedge $-1 $48 $48 $78 $79 reversed $30 $-1 #
face $-1 $80 $81 $12 $-1 $82 reversed single #
loop $-1 $-1 $83 $32 #
plane-surface $-1 0 0 -19.871081093151783 0 0 1 1 0 0 forward_v I I I I #
coedge $-1 $84 $85 $86 $87 forward $33 $-1 #
coedge $-1 $88 $35 $89 $90 reversed $21 $-1 #
coedge $-1 $35 $88 $91 $92 forward $21 $-1 #
coedge $-1 $93 $83 $35 $56 forward $50 $-1 #
edge $-1 $94 -76.463515121921446 $95 76.463515121921446 $35 $96 forward 7 unknown #
face $-1 $97 $98 $13 $-1 $99 reversed single #
loop $-1 $-1 $100 $36 #
plane-surface $-1 -67.422254964739992 -74.482533501996613 0 0 1 0 0 0 1 forward_v I I I I #
coedge $-1 $101 $102 $62 $103 forward $37 $-1 #
coedge $-1 $104 $39 $105 $106 reversed $24 $-1 #
coedge $-1 $39 $104 $60 $103 reversed $24 $-1 #
coedge $-1 $107 $108 $39 $64 reversed $98 $-1 #
edge $-1 $109 -19.871081093151783 $110 19.871081093151783 $63 $111 forward 7 unknown #
face $-1 $112 $113 $14 $-1 $114 forward single #
loop $-1 $-1 $115 $40 #
plane-surface $-1 -76.463515121921446 0 0 1 0 0 0 0 -1 forward_v I I I I #
coedge $-1 $116 $117 $118 $119 reversed $41 $-1 #
coedge $-1 $70 $43 $120 $121 reversed $27 $-1 #
coedge $-1 $43 $69 $116 $122 reversed $27 $-1 #
coedge $-1 $118 $123 $43 $72 forward $124 $-1 #
edge $-1 $125 72.523667671316034 $126 75.841863664710814 $71 $127 forward 7 unknown #
loop $-1 $-1 $78 $44 #
plane-surface $-1 -66.220853086194964 -5.9062334705402151 99.273789298297274 0 0.82903758062907751 0.55919289150049634 1 0 0 forward_v I I I I #
loop $-1 $-1 $128 $29 #
coedge $-1 $76 $76 $77 $129 reversed $45 $-1 #
coedge $-1 $77 $77 $76 $129 forward $47 $-1 #
coedge $-1 $78 $78 $48 $79 forward $73 $-1 #
edge $-1 $130 7.6694473457502301e-015 $130 6.2831853071796084 $78 $131 forward 7 unknown #
face $-1 $132 $133 $12 $-1 $134 reversed single #
loop $-1 $-1 $135 $49 #
plane-surface $-1 -76.463515121921446 0 0 1 0 0 0 0 -1 forward_v I I I I #
coedge $-1 $55 $136 $137 $138 forward $50 $-1 #
coedge $-1 $139 $52 $140 $141 forward $33 $-1 #
coedge $-1 $52 $139 $88 $142 forward $33 $-1 #
coedge $-1 $89 $143 $52 $87 reversed $144 $-1 #
edge $-1 $145 -49.88971919449736 $146 49.88971919449736 $86 $147 forward 7 unknown #
coedge $-1 $54 $53 $85 $142 reversed $21 $-1 #
coedge $-1 $137 $86 $53 $90 forward $144 $-1 #
edge $-1 $145 -19.871081093151783 $94 19.871081093151783 $89 $148 forward 7 unknown #
coedge $-1 $149 $150 $54 $92 reversed $81 $-1 #
edge $-1 $151 -19.871081093151783 $95 19.871081093151783 $91 $152 forward 7 unknown #
coedge $-1 $136 $55 $150 $153 forward $50 $-1 #
vertex $-1 $90 $154 #
vertex $-1 $153 $155 #
straight-curve $-1 0 -49.88971919449736 -19.871081093151783 -1 0 0 I I #
face $-1 $156 $157 $13 $-1 $158 reversed single #
loop $-1 $-1 $63 $57 #
plane-surface $-1 -73.059621300804622 -62.186126348246987 0 1 0 0 0 0 -1 forward_v I I I I #
coedge $-1 $159 $160 $161 $162 forward $58 $-1 #
coedge $-1 $163 $60 $164 $165 forward $37 $-1 #
coedge $-1 $60 $163 $107 $166 forward $37 $-1 #
edge $-1 $109 -73.059621300804622 $167 -61.784888628675361 $60 $168 forward 7 unknown #
coedge $-1 $62 $61 $169 $170 forward $24 $-1 #
coedge $-1 $171 $172 $61 $106 forward $173 $-1 #
edge $-1 $174 61.784888628675361 $110 73.059621300804622 $105 $175 forward 7 unknown #
coedge $-1 $161 $63 $102 $166 reversed $98 $-1 #
coedge $-1 $63 $161 $171 $176 reversed $98 $-1 #
vertex $-1 $103 $177 #
vertex $-1 $176 $178 #
straight-curve $-1 -73.059621300804622 -49.88971919449736 0 0 0 1 I I #
face $-1 $-1 $124 $14 $-1 $179 reversed single #
loop $-1 $-1 $120 $65 #
plane-surface $-1 0 0 19.871081093151783 0 0 1 1 0 0 forward_v I I I I #
coedge $-1 $180 $181 $117 $182 forward $66 $-1 #
coedge $-1 $183 $68 $70 $122 forward $41 $-1 #
coedge $-1 $68 $183 $115 $182 reversed $41 $-1 #
coedge $-1 $184 $71 $68 $119 forward $124 $-1 #
edge $-1 $126 22.867764507370993 $185 43.353088578823964 $118 $186 forward 7 unknown #
coedge $-1 $187 $188 $69 $121 forward $113 $-1 #
edge $-1 $189 -12.786443041694362 $125 -10.548291653305171 $120 $190 forward 7 unknown #
edge $-1 $126 -99.779438388994706 $189 -95.776970864088398 $70 $191 forward 7 unknown #
coedge $-1 $71 $184 $187 $192 reversed $124 $-1 #
loop $-1 $-1 $118 $112 #
vertex $-1 $192 $193 #
vertex $-1 $72 $194 #
straight-curve $-1 -55.978191050468475 49.88971919449736 92.39474876446782 0 0 -1 I I #
coedge $-1 $128 $128 $-1 $195 reversed $75 $-1 #
edge $-1 $196 0 $196 6.2831853071796004 $76 $197 forward 7 unknown #
vertex $-1 $79 $198 #
ellipse-curve $-1 -66.220853086194964 48.770643500302768 18.211983096454389 0 0.82903758062907751 0.55919289150049634 0.5 0 0 1 I I #
face $-1 $-1 $144 $12 $-1 $199 reversed single #
loop $-1 $-1 $200 $80 #
plane-surface $-1 0 49.88971919449736 0 0 -1 0 0 0 -1 forward_v I I I I #
coedge $-1 $150 $149 $201 $202 forward $81 $-1 #
coedge $-1 $83 $93 $203 $204 forward $50 $-1 #
coedge $-1 $143 $89 $83 $138 reversed $144 $-1 #
edge $-1 $205 -49.88971919449736 $94 49.88971919449736 $137 $206 forward 7 unknown #
coedge $-1 $85 $84 $149 $207 forward $33 $-1 #
coedge $-1 $200 $201 $84 $141 reversed $133 $-1 #
edge $-1 $146 -76.463515121921446 $208 76.463515121921446 $140 $209 forward 7 unknown #
edge $-1 $151 -76.463515121921446 $145 76.463515121921446 $88 $210 forward 7 unknown #
coedge $-1 $86 $137 $200 $211 reversed $144 $-1 #
loop $-1 $-1 $89 $132 #
vertex $-1 $87 $212 #
vertex $-1 $87 $213 #
straight-curve $-1 76.463515121921446 0 19.871081093151783 0 1 0 I I #
straight-curve $-1 76.463515121921446 -49.88971919449736 0 0 0 -1 I I #
coedge $-1 $135 $91 $139 $207 reversed $81 $-1 #
coedge $-1 $91 $135 $93 $153 reversed $81 $-1 #
vertex $-1 $207 $214 #
straight-curve $-1 -76.463515121921446 -49.88971919449736 0 0 0 -1 I I #
edge $-1 $95 -49.88971919449736 $215 49.88971919449736 $150 $216 forward 7 unknown #
point $-1 76.463515121921446 -49.88971919449736 -19.871081093151783 #
point $-1 -76.463515121921446 -49.88971919449736 -19.871081093151783 #
face $-1 $-1 $173 $13 $-1 $217 forward single #
loop $-1 $-1 $218 $97 #
plane-surface $-1 -61.784888628675361 -62.186126348246987 0 -1 0 0 0 0 1 forward_v I I I I #
coedge $-1 $219 $100 $163 $220 reversed $58 $-1 #
coedge $-1 $100 $219 $221 $222 reversed $58 $-1 #
coedge $-1 $108 $107 $100 $162 reversed $98 $-1 #
edge $-1 $223 -19.871081093151783 $224 19.871081093151783 $161 $225 forward 7 unknown #
coedge $-1 $102 $101 $159 $220 forward $37 $-1 #
coedge $-1 $169 $218 $101 $165 reversed $157 $-1 #
edge $-1 $167 -12.296407153749627 $226 12.296407153749627 $164 $227 forward 7 unknown #
edge $-1 $224 -12.296407153749627 $109 12.296407153749627 $107 $228 forward 7 unknown #
vertex $-1 $165 $229 #
straight-curve $-1 0 -49.88971919449736 -19.871081093151783 1 0 0 I I #
coedge $-1 $230 $164 $104 $170 reversed $157 $-1 #
edge $-1 $174 -19.871081093151783 $167 19.871081093151783 $169 $231 forward 7 unknown #
coedge $-1 $221 $105 $108 $176 forward $173 $-1 #
coedge $-1 $105 $221 $230 $232 forward $173 $-1 #
loop $-1 $-1 $105 $156 #
vertex $-1 $106 $233 #
straight-curve $-1 0 -49.88971919449736 19.871081093151783 -1 0 0 I I #
edge $-1 $110 -12.296407153749627 $223 12.296407153749627 $108 $234 forward 7 unknown #
point $-1 -73.059621300804622 -49.88971919449736 -19.871081093151783 #
point $-1 -73.059621300804622 -49.88971919449736 19.871081093151783 #
plane-surface $-1 0 49.88971919449736 0 0 -1 0 0 0 -1 forward_v I I I I #
coedge $-1 $181 $115 $235 $236 reversed $66 $-1 #
coedge $-1 $115 $180 $184 $237 forward $66 $-1 #
edge $-1 $185 -56.97722545298992 $238 -52.974757928083605 $115 $239 forward 7 unknown #
coedge $-1 $117 $116 $188 $240 reversed $41 $-1 #
coedge $-1 $123 $118 $181 $237 reversed $124 $-1 #
vertex $-1 $182 $241 #
straight-curve $-1 -33.110426543097482 49.88971919449736 16.552885099756999 -1 0 0 I I #
coedge $-1 $235 $120 $123 $192 forward $113 $-1 #
coedge $-1 $120 $235 $183 $240 forward $113 $-1 #
vertex $-1 $121 $242 #
straight-curve $-1 -55.978191050468475 60.438010847802531 19.871081093151787 0 1 0 I I #
straight-curve $-1 -55.978191050468475 -5.9062334705402151 99.273789298297274 0 -0.55919289150049634 0.82903758062907751 I I #
edge $-1 $125 55.978191050468475 $243 76.463515121921446 $123 $244 forward 7 unknown #
point $-1 -55.978191050468475 49.88971919449736 19.871081093151783 #
point $-1 -55.978191050468475 49.88971919449736 16.552885099757006 #
edge $-1 $245 1 $245 0 $128 $-1 forward 7 unknown #
vertex $-1 $129 $246 #
ellipse-curve $-1 -66.220853086194964 47.67982921359809 17.476219592694292 0 0.82903758062907751 0.55919289150049634 0.5 0 0 1 I I #
point $-1 -65.720853086194964 48.770643500302754 18.211983096454375 #
plane-surface $-1 76.463515121921446 0 0 -1 0 0 0 0 1 forward_v I I I I #
coedge $-1 $203 $140 $143 $211 forward $133 $-1 #
coedge $-1 $140 $203 $135 $202 reversed $133 $-1 #
edge $-1 $208 -19.871081093151783 $215 19.871081093151783 $201 $247 forward 7 unknown #
coedge $-1 $201 $200 $136 $204 reversed $133 $-1 #
edge $-1 $215 -76.463515121921446 $205 76.463515121921446 $203 $248 forward 7 unknown #
vertex $-1 $138 $249 #
straight-curve $-1 76.463515121921446 0 -19.871081093151783 0 -1 0 I I #
edge $-1 $208 -49.88971919449736 $151 49.88971919449736 $149 $250 forward 7 unknown #
vertex $-1 $141 $251 #
straight-curve $-1 0 49.88971919449736 19.871081093151783 -1 0 0 I I #
straight-curve $-1 0 -49.88971919449736 19.871081093151783 1 0 0 I I #
edge $-1 $146 -19.871081093151783 $205 19.871081093151783 $143 $252 forward 7 unknown #
point $-1 76.463515121921446 -49.88971919449736 19.871081093151783 #
point $-1 76.463515121921446 49.88971919449736 19.871081093151783 #
point $-1 -76.463515121921446 -49.88971919449736 19.871081093151783 #
vertex $-1 $204 $253 #
straight-curve $-1 -76.463515121921446 0 -19.871081093151783 0 1 0 I I #
plane-surface $-1 0 0 19.871081093151783 0 0 1 1 0 0 forward_v I I I I #
coedge $-1 $164 $230 $219 $254 forward $157 $-1 #
coedge $-1 $160 $159 $218 $254 reversed $58 $-1 #
edge $-1 $226 -5.6373663360646304 $224 5.6373663360646304 $159 $255 forward 7 unknown #
coedge $-1 $172 $171 $160 $222 forward $173 $-1 #
edge $-1 $223 -5.6373663360646304 $256 5.6373663360646304 $160 $257 forward 7 unknown #
vertex $-1 $176 $258 #
vertex $-1 $166 $259 #
straight-curve $-1 -73.059621300804622 -74.482533501996613 0 0 0 -1 I I #
vertex $-1 $254 $260 #
straight-curve $-1 -61.784888628675361 -62.186126348246987 -19.871081093151783 0 -1 0 I I #
straight-curve $-1 -73.059621300804622 -62.186126348246987 -19.871081093151783 0 1 0 I I #
point $-1 -61.784888628675361 -49.88971919449736 -19.871081093151783 #
coedge $-1 $218 $169 $172 $232 reversed $157 $-1 #
straight-curve $-1 -61.784888628675361 -49.88971919449736 0 0 0 -1 I I #
edge $-1 $256 -12.296407153749627 $174 12.296407153749627 $230 $261 forward 7 unknown #
point $-1 -61.784888628675361 -49.88971919449736 19.871081093151783 #
straight-curve $-1 -73.059621300804622 -62.186126348246987 19.871081093151783 0 -1 0 I I #
coedge $-1 $188 $187 $180 $236 forward $113 $-1 #
edge $-1 $243 -49.88971919449736 $238 -47.651567806108169 $180 $262 forward 7 unknown #
edge $-1 $243 -19.871081093151783 $185 -16.552885099757003 $184 $263 forward 7 unknown #
vertex $-1 $182 $264 #
straight-curve $-1 -76.463515121921446 18.028459743764248 63.78914624026126 0 -0.55919289150049634 0.82903758062907751 I I #
edge $-1 $238 -43.353088578823964 $189 -22.867764507370993 $188 $265 forward 7 unknown #
point $-1 -76.463515121921446 49.88971919449736 16.552885099757003 #
point $-1 -55.978191050468475 47.651567806108169 19.871081093151787 #
vertex $-1 $192 $266 #
straight-curve $-1 0 49.88971919449736 19.871081093151783 -1 0 0 I I #
vertex $-1 $195 $267 #
point $-1 -65.720853086194964 47.67982921359809 17.476219592694292 #
straight-curve $-1 -76.463515121921446 49.88971919449736 0 0 0 -1 I I #
straight-curve $-1 0 49.88971919449736 -19.871081093151783 1 0 0 I I #
point $-1 76.463515121921446 49.88971919449736 -19.871081093151783 #
straight-curve $-1 -76.463515121921446 0 19.871081093151783 0 -1 0 I I #
point $-1 -76.463515121921446 49.88971919449736 19.871081093151783 #
straight-curve $-1 76.463515121921446 49.88971919449736 0 0 0 -1 I I #
point $-1 -76.463515121921446 49.88971919449736 -19.871081093151783 #
edge $-1 $256 -19.871081093151783 $226 19.871081093151783 $218 $268 forward 7 unknown #
straight-curve $-1 -67.422254964739992 -74.482533501996613 -19.871081093151783 -1 0 0 I I #
vertex $-1 $232 $269 #
straight-curve $-1 -67.422254964739992 -74.482533501996613 19.871081093151783 1 0 0 I I #
point $-1 -73.059621300804622 -74.482533501996613 19.871081093151783 #
point $-1 -73.059621300804622 -74.482533501996613 -19.871081093151783 #
point $-1 -61.784888628675361 -74.482533501996613 -19.871081093151783 #
straight-curve $-1 -61.784888628675361 -62.186126348246987 19.871081093151783 0 1 0 I I #
straight-curve $-1 -76.463515121921446 0 19.871081093151783 0 -1 0 I I #
straight-curve $-1 -76.463515121921446 49.88971919449736 0 0 0 -1 I I #
point $-1 -76.463515121921446 47.651567806108169 19.871081093151787 #
straight-curve $-1 -33.110426543097482 47.651567806108169 19.871081093151794 1 0 0 I I #
point $-1 -76.463515121921446 49.88971919449736 19.871081093151783 #
point $-1 -66.220853086194964 47.265310423283545 17.196623146944042 #
straight-curve $-1 -61.784888628675361 -74.482533501996613 0 0 0 -1 I I #
point $-1 -61.784888628675361 -74.482533501996613 19.871081093151783 #
End-of-ACIS-data 