500 0 9 0           
7 Unknown 11 ACIS 5.0 NT 24 Fri Mar 26 18:50:28 1999 
-1 9.9999999999999995e-007 1e-010 
body $-1 $9 $-1 $10 #
body $-1 $11 $-1 $12 #
body $-1 $13 $-1 $14 #
body $-1 $15 $-1 $16 #
body $-1 $17 $-1 $18 #
body $-1 $19 $-1 $20 #
body $-1 $21 $-1 $22 #
body $-1 $23 $-1 $24 #
body $-1 $25 $-1 $26 #
lump $-1 $-1 $27 $0 #
transform $-1 1 0 0 0 1 0 0 0 1 60.784325693533127 40.955171586172561 19.724651579898918 1 rotate no_reflect no_shear #
lump $-1 $-1 $28 $1 #
transform $-1 1 0 0 0 1 0 0 0 1 60.784325693533127 6.9042480789397578 28.649235004628558 1 rotate no_reflect no_shear #
lump $-1 $-1 $29 $2 #
transform $-1 0.80901698891910034 0 -0.5877852598018023 0 1 0 0.5877852598018023 0 0.80901698891910034 94.673808434247562 23.346017775880309 191.24699964207284 1 rotate no_reflect no_shear #
lump $-1 $-1 $30 $3 #
transform $-1 0.80901698891910034 0 -0.5877852598018023 0 -1 0 -0.5877852598018023 0 -0.80901698891910034 106.34179286177135 19.258508511022825 26.545499017087756 1 rotate no_reflect no_shear #
lump $-1 $-1 $31 $4 #
transform $-1 0.80901698891910034 0 -0.5877852598018023 0 -1 0 -0.5877852598018023 0 -0.80901698891910034 106.34179286177135 27.43352704073779 26.545499017087756 1 rotate no_reflect no_shear #
lump $-1 $-1 $32 $5 #
transform $-1 0.66913059716165679 0 0.74314483375859142 0 1 0 -0.74314483375859142 0 0.66913059716165679 -90.34311522529751 21.740687210556253 107.25971538394154 1 rotate no_reflect no_shear #
lump $-1 $-1 $33 $6 #
transform $-1 0.66913059716165679 0 0.74314483375859142 0 -1 0 0.74314483375859142 0 -0.66913059716165679 10.886257142326519 16.981372578950211 28.366381356511329 1 rotate no_reflect no_shear #
lump $-1 $-1 $34 $7 #
transform $-1 0.66913059716165679 0 0.74314483375859142 0 -1 0 0.74314483375859142 0 -0.66913059716165679 10.886257142326519 21.740687210556253 28.366381356511329 1 rotate no_reflect no_shear #
lump $-1 $-1 $35 $8 #
transform $-1 0.66913059716165679 0 0.74314483375859142 0 -1 0 0.74314483375859142 0 -0.66913059716165679 10.886257142326519 26.500001842162295 28.366381356511329 1 rotate no_reflect no_shear #
shell $-1 $-1 $-1 $36 $-1 $9 #
shell $-1 $-1 $-1 $37 $-1 $11 #
shell $-1 $-1 $-1 $38 $-1 $13 #
shell $-1 $-1 $-1 $39 $-1 $15 #
shell $-1 $-1 $-1 $40 $-1 $17 #
shell $-1 $-1 $-1 $41 $-1 $19 #
shell $-1 $-1 $-1 $42 $-1 $21 #
shell $-1 $-1 $-1 $43 $-1 $23 #
shell $-1 $-1 $-1 $44 $-1 $25 #
face $-1 $45 $46 $27 $-1 $47 forward single #
face $-1 $48 $49 $28 $-1 $50 forward single #
face $-1 $51 $52 $29 $-1 $53 forward single #
face $-1 $54 $55 $30 $-1 $56 forward single #
face $-1 $57 $58 $31 $-1 $59 forward single #
face $-1 $60 $61 $32 $-1 $62 forward single #
face $-1 $63 $64 $33 $-1 $65 forward single #
face $-1 $66 $67 $34 $-1 $68 forward single #
face $-1 $69 $70 $35 $-1 $71 forward single #
face $-1 $72 $73 $27 $-1 $74 reversed single #
loop $-1 $-1 $75 $36 #
plane-surface $-1 0 0 19.724651579898918 0 0 1 1 0 0 forward_v I I I I #
face $-1 $76 $77 $28 $-1 $78 reversed single #
loop $-1 $-1 $79 $37 #
plane-surface $-1 0 0 4.5939109021881332 0 0 1 1 0 0 forward_v I I I I #
face $-1 $80 $81 $29 $-1 $82 reversed single #
loop $-1 $-1 $83 $38 #
plane-surface $-1 0 0 121.56865138706624 0 0 1 1 0 0 forward_v I I I I #
face $-1 $84 $85 $30 $-1 $86 forward single #
loop $-1 $87 $88 $39 #
cone-surface $-1 0 0 -2.9096957304605269 0 0 1 2 0 0 1 I I 0 1 2 forward I I I I #
face $-1 $89 $90 $31 $-1 $91 forward single #
loop $-1 $92 $93 $40 #
cone-surface $-1 0 0 -2.9096957304605269 0 0 1 2 0 0 1 I I 0 1 2 forward I I I I #
face $-1 $94 $95 $32 $-1 $96 reversed single #
loop $-1 $-1 $97 $41 #
plane-surface $-1 0 0 121.56865138706627 0 0 1 1 0 0 forward_v I I I I #
face $-1 $98 $99 $33 $-1 $100 forward single #
loop $-1 $101 $102 $42 #
cone-surface $-1 0 0 -3.5996887112033455 0 0 1 1.5 0 0 1 I I 0 1 1.5 forward I I I I #
face $-1 $103 $104 $34 $-1 $105 forward single #
loop $-1 $106 $107 $43 #
cone-surface $-1 0 0 -3.5996887112033455 0 0 1 1.5 0 0 1 I I 0 1 1.5 forward I I I I #
face $-1 $108 $109 $35 $-1 $110 forward single #
loop $-1 $111 $112 $44 #
cone-surface $-1 0 0 -3.5996887112033455 0 0 1 1.5 0 0 1 I I 0 1 1.5 forward I I I I #
face $-1 $113 $114 $27 $-1 $115 reversed single #
loop $-1 $-1 $116 $45 #
plane-surface $-1 0 0 -19.724651579898918 0 0 1 1 0 0 forward_v I I I I #
coedge $-1 $117 $118 $119 $120 forward $46 $-1 #
face $-1 $121 $122 $28 $-1 $123 reversed single #
loop $-1 $-1 $124 $48 #
plane-surface $-1 0 0 -4.5939109021881332 0 0 1 1 0 0 forward_v I I I I #
coedge $-1 $125 $126 $127 $128 forward $49 $-1 #
face $-1 $129 $130 $29 $-1 $131 reversed single #
loop $-1 $-1 $132 $51 #
plane-surface $-1 0 0 -121.56865138706624 0 0 1 1 0 0 forward_v I I I I #
coedge $-1 $133 $134 $135 $136 forward $52 $-1 #
face $-1 $-1 $137 $30 $-1 $138 forward single #
loop $-1 $-1 $139 $54 #
plane-surface $-1 0 0 -4.819391460921052 0 0 -1 -1 0 0 forward_v I I I I #
loop $-1 $-1 $140 $39 #
coedge $-1 $88 $88 $139 $141 reversed $55 $-1 #
face $-1 $-1 $142 $31 $-1 $143 forward single #
loop $-1 $-1 $144 $57 #
plane-surface $-1 0 0 -4.819391460921052 0 0 -1 -1 0 0 forward_v I I I I #
loop $-1 $-1 $145 $40 #
coedge $-1 $93 $93 $144 $146 reversed $58 $-1 #
face $-1 $147 $148 $32 $-1 $149 reversed single #
loop $-1 $-1 $150 $60 #
plane-surface $-1 0 0 -121.56865138706627 0 0 1 1 0 0 forward_v I I I I #
coedge $-1 $151 $152 $153 $154 forward $61 $-1 #
face $-1 $-1 $155 $33 $-1 $156 forward single #
loop $-1 $-1 $157 $63 #
plane-surface $-1 0 0 -6.4493774224066911 0 0 -1 -1 0 0 forward_v I I I I #
loop $-1 $-1 $158 $42 #
coedge $-1 $102 $102 $157 $159 reversed $64 $-1 #
face $-1 $-1 $160 $34 $-1 $161 forward single #
loop $-1 $-1 $162 $66 #
plane-surface $-1 0 0 -6.4493774224066911 0 0 -1 -1 0 0 forward_v I I I I #
loop $-1 $-1 $163 $43 #
coedge $-1 $107 $107 $162 $164 reversed $67 $-1 #
face $-1 $-1 $165 $35 $-1 $166 forward single #
loop $-1 $-1 $167 $69 #
plane-surface $-1 0 0 -6.4493774224066911 0 0 -1 -1 0 0 forward_v I I I I #
loop $-1 $-1 $168 $44 #
coedge $-1 $112 $112 $167 $169 reversed $70 $-1 #
face $-1 $170 $171 $27 $-1 $172 reversed single #
loop $-1 $-1 $173 $72 #
plane-surface $-1 0 -40.955171586172561 0 0 1 0 0 0 1 forward_v I I I I #
coedge $-1 $174 $175 $176 $177 forward $73 $-1 #
coedge $-1 $178 $75 $179 $180 forward $46 $-1 #
coedge $-1 $75 $178 $181 $182 forward $46 $-1 #
coedge $-1 $183 $184 $75 $120 reversed $185 $-1 #
edge $-1 $186 -40.955171586172561 $187 40.955171586172561 $119 $188 forward 7 unknown #
face $-1 $189 $190 $28 $-1 $191 reversed single #
loop $-1 $-1 $192 $76 #
plane-surface $-1 0 -6.9042480789397578 0 0 1 0 0 0 1 forward_v I I I I #
coedge $-1 $193 $194 $195 $196 forward $77 $-1 #
coedge $-1 $197 $79 $198 $199 forward $49 $-1 #
coedge $-1 $79 $197 $200 $201 forward $49 $-1 #
coedge $-1 $202 $203 $79 $128 reversed $204 $-1 #
edge $-1 $205 -6.9042480789397578 $206 6.9042480789397578 $127 $207 forward 7 unknown #
face $-1 $208 $209 $29 $-1 $210 reversed single #
loop $-1 $-1 $211 $80 #
plane-surface $-1 0 -9.5375216180007918 0 0 1 0 0 0 1 forward_v I I I I #
coedge $-1 $212 $213 $214 $215 forward $81 $-1 #
coedge $-1 $216 $83 $217 $218 forward $52 $-1 #
coedge $-1 $83 $216 $219 $220 forward $52 $-1 #
coedge $-1 $221 $222 $83 $136 reversed $223 $-1 #
edge $-1 $224 -9.5375216180007918 $225 9.5375216180007918 $135 $226 forward 7 unknown #
loop $-1 $227 $228 $84 #
cone-surface $-1 0 0 0 0 0 1 1 0 0 1 I I -0.70710678118654779 0.70710678118654713 1 forward I I I I #
coedge $-1 $139 $139 $88 $141 forward $85 $-1 #
coedge $-1 $140 $140 $228 $229 forward $87 $-1 #
edge $-1 $230 0 $230 6.2831853071796004 $139 $231 forward 7 unknown #
loop $-1 $232 $233 $89 #
cone-surface $-1 0 0 0 0 0 1 1 0 0 1 I I -0.70710678118654779 0.70710678118654713 1 forward I I I I #
coedge $-1 $144 $144 $93 $146 forward $90 $-1 #
coedge $-1 $145 $145 $233 $234 forward $92 $-1 #
edge $-1 $235 0 $235 6.2831853071796004 $144 $236 forward 7 unknown #
face $-1 $237 $238 $32 $-1 $239 reversed single #
loop $-1 $-1 $240 $94 #
plane-surface $-1 0 -7.9321910526767381 0 0 1 0 0 0 1 forward_v I I I I #
coedge $-1 $241 $242 $243 $244 forward $95 $-1 #
coedge $-1 $245 $97 $246 $247 forward $61 $-1 #
coedge $-1 $97 $245 $248 $249 forward $61 $-1 #
coedge $-1 $250 $251 $97 $154 reversed $252 $-1 #
edge $-1 $253 -7.9321910526767381 $254 7.9321910526767381 $153 $255 forward 7 unknown #
loop $-1 $256 $257 $98 #
cone-surface $-1 0 0 0 0 0 1 0.75 0 0 1 I I -0.70710678118654757 0.70710678118654757 0.75 forward I I I I #
coedge $-1 $157 $157 $102 $159 forward $99 $-1 #
coedge $-1 $158 $158 $257 $258 forward $101 $-1 #
edge $-1 $259 0 $259 6.2831853071796004 $157 $260 forward 7 unknown #
loop $-1 $261 $262 $103 #
cone-surface $-1 0 0 0 0 0 1 0.75 0 0 1 I I -0.70710678118654757 0.70710678118654757 0.75 forward I I I I #
coedge $-1 $162 $162 $107 $164 forward $104 $-1 #
coedge $-1 $163 $163 $262 $263 forward $106 $-1 #
edge $-1 $264 0 $264 6.2831853071796004 $162 $265 forward 7 unknown #
loop $-1 $266 $267 $108 #
cone-surface $-1 0 0 0 0 0 1 0.75 0 0 1 I I -0.70710678118654757 0.70710678118654757 0.75 forward I I I I #
coedge $-1 $167 $167 $112 $169 forward $109 $-1 #
coedge $-1 $168 $168 $267 $268 forward $111 $-1 #
edge $-1 $269 0 $269 6.2831853071796004 $167 $270 forward 7 unknown #
face $-1 $271 $272 $27 $-1 $273 reversed single #
loop $-1 $-1 $274 $113 #
plane-surface $-1 -60.784325693533127 0 0 1 0 0 0 0 -1 forward_v I I I I #
coedge $-1 $275 $181 $276 $277 forward $114 $-1 #
coedge $-1 $278 $116 $275 $279 forward $73 $-1 #
coedge $-1 $116 $278 $280 $281 forward $73 $-1 #
coedge $-1 $184 $183 $116 $177 reversed $185 $-1 #
edge $-1 $282 -40.955171586172561 $283 40.955171586172561 $176 $284 forward 7 unknown #
coedge $-1 $118 $117 $285 $286 forward $46 $-1 #
coedge $-1 $287 $288 $117 $180 reversed $272 $-1 #
edge $-1 $187 -60.784325693533127 $289 60.784325693533127 $179 $290 forward 7 unknown #
coedge $-1 $173 $291 $118 $182 reversed $114 $-1 #
edge $-1 $292 -60.784325693533127 $186 60.784325693533127 $181 $293 forward 7 unknown #
coedge $-1 $176 $119 $291 $294 forward $185 $-1 #
coedge $-1 $119 $176 $287 $295 reversed $185 $-1 #
loop $-1 $-1 $183 $271 #
vertex $-1 $120 $296 #
vertex $-1 $120 $297 #
straight-curve $-1 60.784325693533127 0 19.724651579898918 0 1 0 I I #
face $-1 $298 $299 $28 $-1 $300 reversed single #
loop $-1 $-1 $301 $121 #
plane-surface $-1 -60.784325693533127 0 0 1 0 0 0 0 -1 forward_v I I I I #
coedge $-1 $302 $200 $303 $304 forward $122 $-1 #
coedge $-1 $305 $124 $302 $306 forward $77 $-1 #
coedge $-1 $124 $305 $307 $308 forward $77 $-1 #
coedge $-1 $203 $202 $124 $196 reversed $204 $-1 #
edge $-1 $309 -6.9042480789397578 $310 6.9042480789397578 $195 $311 forward 7 unknown #
coedge $-1 $126 $125 $312 $313 forward $49 $-1 #
coedge $-1 $314 $315 $125 $199 reversed $299 $-1 #
edge $-1 $206 -60.784325693533127 $316 60.784325693533127 $198 $317 forward 7 unknown #
coedge $-1 $192 $318 $126 $201 reversed $122 $-1 #
edge $-1 $319 -60.784325693533127 $205 60.784325693533127 $200 $320 forward 7 unknown #
coedge $-1 $195 $127 $318 $321 forward $204 $-1 #
coedge $-1 $127 $195 $314 $322 reversed $204 $-1 #
loop $-1 $-1 $202 $298 #
vertex $-1 $128 $323 #
vertex $-1 $128 $324 #
straight-curve $-1 60.784325693533127 0 4.5939109021881332 0 1 0 I I #
face $-1 $325 $326 $29 $-1 $327 reversed single #
loop $-1 $-1 $328 $129 #
plane-surface $-1 -243.13730277413251 0 0 1 0 0 0 0 -1 forward_v I I I I #
coedge $-1 $329 $219 $330 $331 forward $130 $-1 #
coedge $-1 $332 $132 $329 $333 forward $81 $-1 #
coedge $-1 $132 $332 $334 $335 forward $81 $-1 #
coedge $-1 $222 $221 $132 $215 reversed $223 $-1 #
edge $-1 $336 -9.5375216180007918 $337 9.5375216180007918 $214 $338 forward 7 unknown #
coedge $-1 $134 $133 $339 $340 forward $52 $-1 #
coedge $-1 $341 $342 $133 $218 reversed $326 $-1 #
edge $-1 $225 -243.13730277413251 $343 243.13730277413251 $217 $344 forward 7 unknown #
coedge $-1 $211 $345 $134 $220 reversed $130 $-1 #
edge $-1 $346 -243.13730277413251 $224 243.13730277413251 $219 $347 forward 7 unknown #
coedge $-1 $214 $135 $345 $348 forward $223 $-1 #
coedge $-1 $135 $214 $341 $349 reversed $223 $-1 #
loop $-1 $-1 $221 $325 #
vertex $-1 $136 $350 #
vertex $-1 $136 $351 #
straight-curve $-1 243.13730277413251 0 121.56865138706624 0 1 0 I I #
loop $-1 $-1 $352 $84 #
coedge $-1 $228 $228 $140 $229 reversed $137 $-1 #
edge $-1 $353 0 $353 6.2831853071796004 $228 $354 forward 7 unknown #
vertex $-1 $141 $355 #
ellipse-curve $-1 0 0 -4.819391460921052 0 0 -1 2 0 0 1 I I #
loop $-1 $-1 $356 $89 #
coedge $-1 $233 $233 $145 $234 reversed $142 $-1 #
edge $-1 $357 0 $357 6.2831853071796004 $233 $358 forward 7 unknown #
vertex $-1 $146 $359 #
ellipse-curve $-1 0 0 -4.819391460921052 0 0 -1 2 0 0 1 I I #
face $-1 $360 $361 $32 $-1 $362 reversed single #
loop $-1 $-1 $363 $147 #
plane-surface $-1 -243.13730277413251 0 0 1 0 0 0 0 -1 forward_v I I I I #
coedge $-1 $364 $248 $365 $366 forward $148 $-1 #
coedge $-1 $367 $150 $364 $368 forward $95 $-1 #
coedge $-1 $150 $367 $369 $370 forward $95 $-1 #
coedge $-1 $251 $250 $150 $244 reversed $252 $-1 #
edge $-1 $371 -7.9321910526767381 $372 7.9321910526767381 $243 $373 forward 7 unknown #
coedge $-1 $152 $151 $374 $375 forward $61 $-1 #
coedge $-1 $376 $377 $151 $247 reversed $361 $-1 #
edge $-1 $254 -243.13730277413251 $378 243.13730277413251 $246 $379 forward 7 unknown #
coedge $-1 $240 $380 $152 $249 reversed $148 $-1 #
edge $-1 $381 -243.13730277413251 $253 243.13730277413251 $248 $382 forward 7 unknown #
coedge $-1 $243 $153 $380 $383 forward $252 $-1 #
coedge $-1 $153 $243 $376 $384 reversed $252 $-1 #
loop $-1 $-1 $250 $360 #
vertex $-1 $154 $385 #
vertex $-1 $154 $386 #
straight-curve $-1 243.13730277413251 0 121.56865138706627 0 1 0 I I #
loop $-1 $-1 $387 $98 #
coedge $-1 $257 $257 $158 $258 reversed $155 $-1 #
edge $-1 $388 0 $388 6.2831853071796004 $257 $389 forward 7 unknown #
vertex $-1 $159 $390 #
ellipse-curve $-1 0 0 -6.4493774224066911 0 0 -1 1.5 0 0 1 I I #
loop $-1 $-1 $391 $103 #
coedge $-1 $262 $262 $163 $263 reversed $160 $-1 #
edge $-1 $392 0 $392 6.2831853071796004 $262 $393 forward 7 unknown #
vertex $-1 $164 $394 #
ellipse-curve $-1 0 0 -6.4493774224066911 0 0 -1 1.5 0 0 1 I I #
loop $-1 $-1 $395 $108 #
coedge $-1 $267 $267 $168 $268 reversed $165 $-1 #
edge $-1 $396 0 $396 6.2831853071796004 $267 $397 forward 7 unknown #
vertex $-1 $169 $398 #
ellipse-curve $-1 0 0 -6.4493774224066911 0 0 -1 1.5 0 0 1 I I #
face $-1 $-1 $185 $27 $-1 $399 reversed single #
loop $-1 $-1 $287 $170 #
plane-surface $-1 0 40.955171586172561 0 0 -1 0 0 0 -1 forward_v I I I I #
coedge $-1 $400 $285 $288 $401 forward $171 $-1 #
coedge $-1 $291 $173 $174 $279 reversed $114 $-1 #
coedge $-1 $285 $400 $173 $277 reversed $171 $-1 #
edge $-1 $292 -19.724651579898918 $402 19.724651579898918 $276 $403 forward 7 unknown #
coedge $-1 $175 $174 $400 $404 forward $73 $-1 #
edge $-1 $283 -60.784325693533127 $402 60.784325693533127 $275 $405 forward 7 unknown #
coedge $-1 $288 $287 $175 $281 reversed $272 $-1 #
edge $-1 $406 -60.784325693533127 $282 60.784325693533127 $280 $407 forward 7 unknown #
vertex $-1 $177 $408 #
vertex $-1 $294 $409 #
straight-curve $-1 60.784325693533127 0 -19.724651579898918 0 -1 0 I I #
coedge $-1 $274 $276 $178 $286 reversed $171 $-1 #
edge $-1 $289 -40.955171586172561 $292 40.955171586172561 $285 $410 forward 7 unknown #
coedge $-1 $280 $179 $184 $295 forward $272 $-1 #
coedge $-1 $179 $280 $274 $401 reversed $272 $-1 #
vertex $-1 $180 $411 #
straight-curve $-1 0 40.955171586172561 19.724651579898918 -1 0 0 I I #
coedge $-1 $181 $275 $183 $294 reversed $114 $-1 #
vertex $-1 $286 $412 #
straight-curve $-1 0 -40.955171586172561 19.724651579898918 1 0 0 I I #
edge $-1 $186 -19.724651579898918 $283 19.724651579898918 $183 $413 forward 7 unknown #
edge $-1 $187 -19.724651579898918 $282 19.724651579898918 $184 $414 forward 7 unknown #
point $-1 60.784325693533127 -40.955171586172561 19.724651579898918 #
point $-1 60.784325693533127 40.955171586172561 19.724651579898918 #
face $-1 $-1 $204 $28 $-1 $415 reversed single #
loop $-1 $-1 $314 $189 #
plane-surface $-1 0 6.9042480789397578 0 0 -1 0 0 0 -1 forward_v I I I I #
coedge $-1 $416 $312 $315 $417 forward $190 $-1 #
coedge $-1 $318 $192 $193 $306 reversed $122 $-1 #
coedge $-1 $312 $416 $192 $304 reversed $190 $-1 #
edge $-1 $319 -4.5939109021881332 $418 4.5939109021881332 $303 $419 forward 7 unknown #
coedge $-1 $194 $193 $416 $420 forward $77 $-1 #
edge $-1 $310 -60.784325693533127 $418 60.784325693533127 $302 $421 forward 7 unknown #
coedge $-1 $315 $314 $194 $308 reversed $299 $-1 #
edge $-1 $422 -60.784325693533127 $309 60.784325693533127 $307 $423 forward 7 unknown #
vertex $-1 $196 $424 #
vertex $-1 $321 $425 #
straight-curve $-1 60.784325693533127 0 -4.5939109021881332 0 -1 0 I I #
coedge $-1 $301 $303 $197 $313 reversed $190 $-1 #
edge $-1 $316 -6.9042480789397578 $319 6.9042480789397578 $312 $426 forward 7 unknown #
coedge $-1 $307 $198 $203 $322 forward $299 $-1 #
coedge $-1 $198 $307 $301 $417 reversed $299 $-1 #
vertex $-1 $199 $427 #
straight-curve $-1 0 6.9042480789397578 4.5939109021881332 -1 0 0 I I #
coedge $-1 $200 $302 $202 $321 reversed $122 $-1 #
vertex $-1 $313 $428 #
straight-curve $-1 0 -6.9042480789397578 4.5939109021881332 1 0 0 I I #
edge $-1 $205 -4.5939109021881332 $310 4.5939109021881332 $202 $429 forward 7 unknown #
edge $-1 $206 -4.5939109021881332 $309 4.5939109021881332 $203 $430 forward 7 unknown #
point $-1 60.784325693533127 -6.9042480789397578 4.5939109021881332 #
point $-1 60.784325693533127 6.9042480789397578 4.5939109021881332 #
face $-1 $-1 $223 $29 $-1 $431 reversed single #
loop $-1 $-1 $341 $208 #
plane-surface $-1 0 9.5375216180007918 0 0 -1 0 0 0 -1 forward_v I I I I #
coedge $-1 $432 $339 $342 $433 forward $209 $-1 #
coedge $-1 $345 $211 $212 $333 reversed $130 $-1 #
coedge $-1 $339 $432 $211 $331 reversed $209 $-1 #
edge $-1 $346 -121.56865138706624 $434 121.56865138706624 $330 $435 forward 7 unknown #
coedge $-1 $213 $212 $432 $436 forward $81 $-1 #
edge $-1 $337 -243.13730277413251 $434 243.13730277413251 $329 $437 forward 7 unknown #
coedge $-1 $342 $341 $213 $335 reversed $326 $-1 #
edge $-1 $438 -243.13730277413251 $336 243.13730277413251 $334 $439 forward 7 unknown #
vertex $-1 $215 $440 #
vertex $-1 $348 $441 #
straight-curve $-1 243.13730277413251 0 -121.56865138706624 0 -1 0 I I #
coedge $-1 $328 $330 $216 $340 reversed $209 $-1 #
edge $-1 $343 -9.5375216180007918 $346 9.5375216180007918 $339 $442 forward 7 unknown #
coedge $-1 $334 $217 $222 $349 forward $326 $-1 #
coedge $-1 $217 $334 $328 $433 reversed $326 $-1 #
vertex $-1 $218 $443 #
straight-curve $-1 0 9.5375216180007918 121.56865138706624 -1 0 0 I I #
coedge $-1 $219 $329 $221 $348 reversed $130 $-1 #
vertex $-1 $340 $444 #
straight-curve $-1 0 -9.5375216180007918 121.56865138706624 1 0 0 I I #
edge $-1 $224 -121.56865138706624 $337 121.56865138706624 $221 $445 forward 7 unknown #
edge $-1 $225 -121.56865138706624 $336 121.56865138706624 $222 $446 forward 7 unknown #
point $-1 243.13730277413251 -9.5375216180007918 121.56865138706624 #
point $-1 243.13730277413251 9.5375216180007918 121.56865138706624 #
coedge $-1 $352 $352 $-1 $447 reversed $227 $-1 #
vertex $-1 $229 $448 #
ellipse-curve $-1 0 0 -0.99999999999999911 0 0 -1 2 0 0 1 I I #
point $-1 2 0 -4.819391460921052 #
coedge $-1 $356 $356 $-1 $449 reversed $232 $-1 #
vertex $-1 $234 $450 #
ellipse-curve $-1 0 0 -0.99999999999999911 0 0 -1 2 0 0 1 I I #
point $-1 2 0 -4.819391460921052 #
face $-1 $-1 $252 $32 $-1 $451 reversed single #
loop $-1 $-1 $376 $237 #
plane-surface $-1 0 7.9321910526767381 0 0 -1 0 0 0 -1 forward_v I I I I #
coedge $-1 $452 $374 $377 $453 forward $238 $-1 #
coedge $-1 $380 $240 $241 $368 reversed $148 $-1 #
coedge $-1 $374 $452 $240 $366 reversed $238 $-1 #
edge $-1 $381 -121.56865138706627 $454 121.56865138706627 $365 $455 forward 7 unknown #
coedge $-1 $242 $241 $452 $456 forward $95 $-1 #
edge $-1 $372 -243.13730277413251 $454 243.13730277413251 $364 $457 forward 7 unknown #
coedge $-1 $377 $376 $242 $370 reversed $361 $-1 #
edge $-1 $458 -243.13730277413251 $371 243.13730277413251 $369 $459 forward 7 unknown #
vertex $-1 $244 $460 #
vertex $-1 $383 $461 #
straight-curve $-1 243.13730277413251 0 -121.56865138706627 0 -1 0 I I #
coedge $-1 $363 $365 $245 $375 reversed $238 $-1 #
edge $-1 $378 -7.9321910526767381 $381 7.9321910526767381 $374 $462 forward 7 unknown #
coedge $-1 $369 $246 $251 $384 forward $361 $-1 #
coedge $-1 $246 $369 $363 $453 reversed $361 $-1 #
vertex $-1 $247 $463 #
straight-curve $-1 0 7.9321910526767381 121.56865138706627 -1 0 0 I I #
coedge $-1 $248 $364 $250 $383 reversed $148 $-1 #
vertex $-1 $375 $464 #
straight-curve $-1 0 -7.9321910526767381 121.56865138706627 1 0 0 I I #
edge $-1 $253 -121.56865138706627 $372 121.56865138706627 $250 $465 forward 7 unknown #
edge $-1 $254 -121.56865138706627 $371 121.56865138706627 $251 $466 forward 7 unknown #
point $-1 243.13730277413251 -7.9321910526767381 121.56865138706627 #
point $-1 243.13730277413251 7.9321910526767381 121.56865138706627 #
coedge $-1 $387 $387 $-1 $467 reversed $256 $-1 #
vertex $-1 $258 $468 #
ellipse-curve $-1 0 0 -0.75 0 0 -1 1.5 0 0 1 I I #
point $-1 1.5 0 -6.4493774224066911 #
coedge $-1 $391 $391 $-1 $469 reversed $261 $-1 #
vertex $-1 $263 $470 #
ellipse-curve $-1 0 0 -0.75 0 0 -1 1.5 0 0 1 I I #
point $-1 1.5 0 -6.4493774224066911 #
coedge $-1 $395 $395 $-1 $471 reversed $266 $-1 #
vertex $-1 $268 $472 #
ellipse-curve $-1 0 0 -0.75 0 0 -1 1.5 0 0 1 I I #
point $-1 1.5 0 -6.4493774224066911 #
plane-surface $-1 60.784325693533127 0 0 -1 0 0 0 0 1 forward_v I I I I #
coedge $-1 $276 $274 $278 $404 reversed $171 $-1 #
edge $-1 $289 -19.724651579898918 $406 19.724651579898918 $288 $473 forward 7 unknown #
vertex $-1 $404 $474 #
straight-curve $-1 -60.784325693533127 -40.955171586172561 0 0 0 -1 I I #
edge $-1 $402 -40.955171586172561 $406 40.955171586172561 $400 $475 forward 7 unknown #
straight-curve $-1 0 -40.955171586172561 -19.724651579898918 -1 0 0 I I #
vertex $-1 $281 $476 #
straight-curve $-1 0 40.955171586172561 -19.724651579898918 1 0 0 I I #
point $-1 60.784325693533127 40.955171586172561 -19.724651579898918 #
point $-1 60.784325693533127 -40.955171586172561 -19.724651579898918 #
straight-curve $-1 -60.784325693533127 0 19.724651579898918 0 -1 0 I I #
point $-1 -60.784325693533127 40.955171586172561 19.724651579898918 #
point $-1 -60.784325693533127 -40.955171586172561 19.724651579898918 #
straight-curve $-1 60.784325693533127 -40.955171586172561 0 0 0 -1 I I #
straight-curve $-1 60.784325693533127 40.955171586172561 0 0 0 -1 I I #
plane-surface $-1 60.784325693533127 0 0 -1 0 0 0 0 1 forward_v I I I I #
coedge $-1 $303 $301 $305 $420 reversed $190 $-1 #
edge $-1 $316 -4.5939109021881332 $422 4.5939109021881332 $315 $477 forward 7 unknown #
vertex $-1 $420 $478 #
straight-curve $-1 -60.784325693533127 -6.9042480789397578 0 0 0 -1 I I #
edge $-1 $418 -6.9042480789397578 $422 6.9042480789397578 $416 $479 forward 7 unknown #
straight-curve $-1 0 -6.9042480789397578 -4.5939109021881332 -1 0 0 I I #
vertex $-1 $308 $480 #
straight-curve $-1 0 6.9042480789397578 -4.5939109021881332 1 0 0 I I #
point $-1 60.784325693533127 6.9042480789397578 -4.5939109021881332 #
point $-1 60.784325693533127 -6.9042480789397578 -4.5939109021881332 #
straight-curve $-1 -60.784325693533127 0 4.5939109021881332 0 -1 0 I I #
point $-1 -60.784325693533127 6.9042480789397578 4.5939109021881332 #
point $-1 -60.784325693533127 -6.9042480789397578 4.5939109021881332 #
straight-curve $-1 60.784325693533127 -6.9042480789397578 0 0 0 -1 I I #
straight-curve $-1 60.784325693533127 6.9042480789397578 0 0 0 -1 I I #
plane-surface $-1 243.13730277413251 0 0 -1 0 0 0 0 1 forward_v I I I I #
coedge $-1 $330 $328 $332 $436 reversed $209 $-1 #
edge $-1 $343 -121.56865138706624 $438 121.56865138706624 $342 $481 forward 7 unknown #
vertex $-1 $436 $482 #
straight-curve $-1 -243.13730277413251 -9.5375216180007918 0 0 0 -1 I I #
edge $-1 $434 -9.5375216180007918 $438 9.5375216180007918 $432 $483 forward 7 unknown #
straight-curve $-1 0 -9.5375216180007918 -121.56865138706624 -1 0 0 I I #
vertex $-1 $335 $484 #
straight-curve $-1 0 9.5375216180007918 -121.56865138706624 1 0 0 I I #
point $-1 243.13730277413251 9.5375216180007918 -121.56865138706624 #
point $-1 243.13730277413251 -9.5375216180007918 -121.56865138706624 #
straight-curve $-1 -243.13730277413251 0 121.56865138706624 0 -1 0 I I #
point $-1 -243.13730277413251 9.5375216180007918 121.56865138706624 #
point $-1 -243.13730277413251 -9.5375216180007918 121.56865138706624 #
straight-curve $-1 243.13730277413251 -9.5375216180007918 0 0 0 -1 I I #
straight-curve $-1 243.13730277413251 9.5375216180007918 0 0 0 -1 I I #
edge $-1 $485 1 $485 0 $352 $-1 forward 7 unknown #
point $-1 2 0 -0.99999999999999911 #
edge $-1 $486 1 $486 0 $356 $-1 forward 7 unknown #
point $-1 2 0 -0.99999999999999911 #
plane-surface $-1 243.13730277413251 0 0 -1 0 0 0 0 1 forward_v I I I I #
coedge $-1 $365 $363 $367 $456 reversed $238 $-1 #
edge $-1 $378 -121.56865138706627 $458 121.56865138706627 $377 $487 forward 7 unknown #
vertex $-1 $456 $488 #
straight-curve $-1 -243.13730277413251 -7.9321910526767381 0 0 0 -1 I I #
edge $-1 $454 -7.9321910526767381 $458 7.9321910526767381 $452 $489 forward 7 unknown #
straight-curve $-1 0 -7.9321910526767381 -121.56865138706627 -1 0 0 I I #
vertex $-1 $370 $490 #
straight-curve $-1 0 7.9321910526767381 -121.56865138706627 1 0 0 I I #
point $-1 243.13730277413251 7.9321910526767381 -121.56865138706627 #
point $-1 243.13730277413251 -7.9321910526767381 -121.56865138706627 #
straight-curve $-1 -243.13730277413251 0 121.56865138706627 0 -1 0 I I #
point $-1 -243.13730277413251 7.9321910526767381 121.56865138706627 #
point $-1 -243.13730277413251 -7.9321910526767381 121.56865138706627 #
straight-curve $-1 243.13730277413251 -7.9321910526767381 0 0 0 -1 I I #
straight-curve $-1 243.13730277413251 7.9321910526767381 0 0 0 -1 I I #
edge $-1 $491 1 $491 0 $387 $-1 forward 7 unknown #
point $-1 1.5 0 -0.75 #
edge $-1 $492 1 $492 0 $391 $-1 forward 7 unknown #
point $-1 1.5 0 -0.75 #
edge $-1 $493 1 $493 0 $395 $-1 forward 7 unknown #
point $-1 1.5 0 -0.75 #
straight-curve $-1 -60.784325693533127 40.955171586172561 0 0 0 -1 I I #
point $-1 -60.784325693533127 -40.955171586172561 -19.724651579898918 #
straight-curve $-1 -60.784325693533127 0 -19.724651579898918 0 1 0 I I #
point $-1 -60.784325693533127 40.955171586172561 -19.724651579898918 #
straight-curve $-1 -60.784325693533127 6.9042480789397578 0 0 0 -1 I I #
point $-1 -60.784325693533127 -6.9042480789397578 -4.5939109021881332 #
straight-curve $-1 -60.784325693533127 0 -4.5939109021881332 0 1 0 I I #
point $-1 -60.784325693533127 6.9042480789397578 -4.5939109021881332 #
straight-curve $-1 -243.13730277413251 9.5375216180007918 0 0 0 -1 I I #
point $-1 -243.13730277413251 -9.5375216180007918 -121.56865138706624 #
straight-curve $-1 -243.13730277413251 0 -121.56865138706624 0 1 0 I I #
point $-1 -243.13730277413251 9.5375216180007918 -121.56865138706624 #
vertex $-1 $447 $494 #
vertex $-1 $449 $495 #
straight-curve $-1 -243.13730277413251 7.9321910526767381 0 0 0 -1 I I #
point $-1 -243.13730277413251 -7.9321910526767381 -121.56865138706627 #
straight-curve $-1 -243.13730277413251 0 -121.56865138706627 0 1 0 I I #
point $-1 -243.13730277413251 7.9321910526767381 -121.56865138706627 #
vertex $-1 $467 $496 #
vertex $-1 $469 $497 #
vertex $-1 $471 $498 #
point $-1 0 0 0.99999999999999911 #
point $-1 0 0 0.99999999999999911 #
point $-1 0 0 0.75 #
point $-1 0 0 0.75 #
point $-1 0 0 0.75 #
End-of-ACIS-data 