500 0 6 0           
7 Unknown 11 ACIS 5.0 NT 24 Fri Mar 26 20:41:37 1999 
-1 9.9999999999999995e-007 1e-010 
body $-1 $6 $-1 $7 #
body $-1 $8 $-1 $9 #
body $-1 $10 $-1 $11 #
body $-1 $12 $-1 $13 #
body $-1 $14 $-1 $15 #
body $-1 $16 $-1 $17 #
lump $-1 $-1 $18 $0 #
transform $-1 1 0 0 0 1 0 0 0 1 62.545854060487684 33.075985404386628 9.0708368920669784 1 rotate no_reflect no_shear #
lump $-1 $-1 $19 $1 #
transform $-1 1 0 0 0 1 0 0 0 1 62.545854060487684 33.075985404386628 9.0708368920669784 1 rotate no_reflect no_shear #
lump $-1 $-1 $20 $2 #
transform $-1 1 0 0 0 1 0 0 0 1 62.545854060487684 33.075985404386628 9.0708368920669784 1 rotate no_reflect no_shear #
lump $-1 $-1 $21 $3 #
transform $-1 1 0 0 0 1 0 0 0 1 62.545854060487684 33.075985404386628 9.0708368920669784 1 rotate no_reflect no_shear #
lump $-1 $-1 $22 $4 #
transform $-1 1 0 0 0 1 0 0 0 1 62.545854060487684 33.075985404386628 9.0708368920669784 1 rotate no_reflect no_shear #
lump $-1 $-1 $23 $5 #
transform $-1 1 0 0 0 1 0 0 0 1 62.545854060487684 33.075985404386628 9.0708368920669784 1 rotate no_reflect no_shear #
shell $-1 $-1 $-1 $24 $-1 $6 #
shell $-1 $-1 $-1 $25 $-1 $8 #
shell $-1 $-1 $-1 $26 $-1 $10 #
shell $-1 $-1 $-1 $27 $-1 $12 #
shell $-1 $-1 $-1 $28 $-1 $14 #
shell $-1 $-1 $-1 $29 $-1 $16 #
face $-1 $30 $31 $18 $-1 $32 forward single #
face $-1 $33 $34 $19 $-1 $35 forward single #
face $-1 $36 $37 $20 $-1 $38 forward single #
face $-1 $39 $40 $21 $-1 $41 reversed single #
face $-1 $42 $43 $22 $-1 $44 forward single #
face $-1 $45 $46 $23 $-1 $47 forward single #
face $-1 $48 $49 $18 $-1 $50 reversed single #
loop $-1 $-1 $51 $24 #
plane-surface $-1 0 0 9.0708368920669784 0 0 1 1 0 0 forward_v I I I I #
face $-1 $52 $53 $19 $-1 $54 reversed single #
loop $-1 $-1 $55 $25 #
plane-surface $-1 0 -27.201871772105871 0.30200234121624403 0 0 1 1 0 0 forward_v I I I I #
face $-1 $56 $57 $20 $-1 $58 reversed single #
loop $-1 $-1 $59 $26 #
plane-surface $-1 0 27.201871772105875 0.30200234121624403 0 0 1 1 0 0 forward_v I I I I #
face $-1 $60 $61 $21 $-1 $62 reversed single #
loop $-1 $-1 $63 $27 #
plane-surface $-1 -155.50711069662816 5.6675262691797723 86.666499827764724 0 -1 0 0.74314483375859142 0 -0.66913059716165679 forward_v I I I I #
face $-1 $64 $65 $22 $-1 $66 forward single #
loop $-1 $67 $68 $28 #
cone-surface $-1 -57.88554864691978 -3.4145665279361239 4.2967327781800551 0.74314483375859142 0 -0.66913059716165679 1.0036958957424851 0 1.1147172506378871 1 I I 0 1 1.5 forward I I I I #
face $-1 $69 $70 $23 $-1 $71 forward single #
loop $-1 $72 $73 $29 #
cone-surface $-1 -57.88554864691978 2.0346891503334135 4.2967327781800551 0.74314483375859142 0 -0.66913059716165679 1.0036958957424851 0 1.1147172506378871 1 I I 0 1 1.5 forward I I I I #
face $-1 $74 $75 $18 $-1 $76 reversed single #
loop $-1 $-1 $77 $30 #
plane-surface $-1 0 0 -9.0708368920669784 0 0 1 1 0 0 forward_v I I I I #
coedge $-1 $78 $79 $80 $81 forward $31 $-1 #
face $-1 $82 $83 $19 $-1 $84 reversed single #
loop $-1 $-1 $85 $33 #
plane-surface $-1 0 -27.201871772105871 -2.6979976587837551 0 0 1 1 0 0 forward_v I I I I #
coedge $-1 $86 $87 $88 $89 reversed $34 $-1 #
face $-1 $90 $91 $20 $-1 $92 reversed single #
loop $-1 $-1 $93 $36 #
plane-surface $-1 0 27.201871772105875 -2.6979976587837551 0 0 1 1 0 0 forward_v I I I I #
coedge $-1 $94 $95 $96 $97 reversed $37 $-1 #
face $-1 $98 $99 $21 $-1 $100 reversed single #
loop $-1 $-1 $101 $39 #
plane-surface $-1 -62.545854060487684 -0.68993868880135523 2.9638104728048091 -0.74314483375859142 0 0.66913059716165679 0.66913059716165679 0 0.74314483375859142 forward_v I I I I #
coedge $-1 $102 $103 $104 $105 reversed $40 $-1 #
face $-1 $-1 $106 $22 $-1 $107 forward single #
loop $-1 $108 $109 $42 #
cone-surface $-1 -55.417280182873434 -3.4145665279361239 2.074293926052972 0.74314483375859142 0 -0.66913059716165679 0.50184794787124254 0 0.55735862531894353 1 I I -0.70710678118654757 0.70710678118654757 0.75 forward I I I I #
loop $-1 $-1 $110 $28 #
coedge $-1 $68 $68 $111 $112 reversed $43 $-1 #
face $-1 $-1 $113 $23 $-1 $114 forward single #
loop $-1 $115 $116 $45 #
cone-surface $-1 -55.417280182873434 2.0346891503334135 2.074293926052972 0.74314483375859142 0 -0.66913059716165679 0.50184794787124254 0 0.55735862531894353 1 I I -0.70710678118654757 0.70710678118654757 0.75 forward I I I I #
loop $-1 $-1 $117 $29 #
coedge $-1 $73 $73 $118 $119 reversed $46 $-1 #
face $-1 $120 $121 $18 $-1 $122 reversed single #
loop $-1 $-1 $123 $48 #
plane-surface $-1 0 -33.075985404386628 0 0 1 0 0 0 1 forward_v I I I I #
coedge $-1 $124 $125 $126 $127 forward $49 $-1 #
coedge $-1 $128 $51 $129 $130 forward $31 $-1 #
coedge $-1 $51 $128 $131 $132 forward $31 $-1 #
coedge $-1 $133 $134 $51 $81 reversed $135 $-1 #
edge $-1 $136 -33.075985404386628 $137 33.075985404386628 $80 $138 forward 7 unknown #
face $-1 $139 $140 $19 $-1 $141 reversed single #
loop $-1 $-1 $142 $52 #
plane-surface $-1 0 -21.327758139825114 -1.1979976587837555 0 -1 0 0 0 -1 forward_v I I I I #
coedge $-1 $143 $144 $145 $146 reversed $53 $-1 #
coedge $-1 $147 $55 $148 $149 forward $34 $-1 #
coedge $-1 $55 $147 $150 $151 reversed $34 $-1 #
coedge $-1 $152 $153 $55 $89 forward $154 $-1 #
edge $-1 $155 7.7268222537721787 $156 19.475049518333691 $88 $157 forward 7 unknown #
face $-1 $158 $159 $20 $-1 $160 reversed single #
loop $-1 $-1 $161 $56 #
plane-surface $-1 0 21.327758139825118 -1.1979976587837555 0 1 0 0 0 1 forward_v I I I I #
coedge $-1 $162 $163 $164 $165 reversed $57 $-1 #
coedge $-1 $166 $59 $167 $168 reversed $37 $-1 #
coedge $-1 $59 $166 $169 $170 forward $37 $-1 #
coedge $-1 $171 $172 $59 $97 forward $159 $-1 #
edge $-1 $173 -19.475049518333691 $174 -7.7268222537721805 $96 $175 forward 7 unknown #
face $-1 $176 $177 $21 $-1 $178 reversed single #
loop $-1 $-1 $179 $60 #
plane-surface $-1 -155.50711069662816 -7.0474036467824828 86.666499827764724 0 1 0 -0.74314483375859142 0 0.66913059716165679 forward_v I I I I #
coedge $-1 $180 $181 $182 $183 reversed $61 $-1 #
coedge $-1 $103 $63 $184 $185 reversed $40 $-1 #
coedge $-1 $63 $102 $180 $186 reversed $40 $-1 #
coedge $-1 $182 $187 $63 $105 forward $177 $-1 #
edge $-1 $188 34.262413021815384 $189 40.369439441077553 $104 $190 forward 7 unknown #
loop $-1 $-1 $111 $64 #
plane-surface $-1 -62.545854060487684 -0.68993868880135523 2.9638104728048091 -0.74314483375859142 0 0.66913059716165679 0.66913059716165679 0 0.74314483375859142 forward_v I I I I #
loop $-1 $-1 $191 $42 #
coedge $-1 $109 $109 $110 $192 reversed $65 $-1 #
coedge $-1 $110 $110 $109 $192 forward $67 $-1 #
coedge $-1 $111 $111 $68 $112 forward $106 $-1 #
edge $-1 $193 0 $193 6.2831853071796004 $111 $194 forward 7 unknown #
loop $-1 $-1 $118 $69 #
plane-surface $-1 -62.545854060487684 -0.68993868880135523 2.9638104728048091 -0.74314483375859142 0 0.66913059716165679 0.66913059716165679 0 0.74314483375859142 forward_v I I I I #
loop $-1 $-1 $195 $45 #
coedge $-1 $116 $116 $117 $196 reversed $70 $-1 #
coedge $-1 $117 $117 $116 $196 forward $72 $-1 #
coedge $-1 $118 $118 $73 $119 forward $113 $-1 #
edge $-1 $197 0 $197 6.2831853071796004 $118 $198 forward 7 unknown #
face $-1 $199 $200 $18 $-1 $201 reversed single #
loop $-1 $-1 $202 $74 #
plane-surface $-1 -62.545854060487684 0 0 1 0 0 0 0 -1 forward_v I I I I #
coedge $-1 $203 $131 $204 $205 forward $75 $-1 #
coedge $-1 $206 $77 $203 $207 forward $49 $-1 #
coedge $-1 $77 $206 $208 $209 forward $49 $-1 #
coedge $-1 $134 $133 $77 $127 reversed $135 $-1 #
edge $-1 $210 -33.075985404386628 $211 33.075985404386628 $126 $212 forward 7 unknown #
coedge $-1 $79 $78 $213 $214 forward $31 $-1 #
coedge $-1 $215 $216 $78 $130 reversed $200 $-1 #
edge $-1 $137 -62.545854060487684 $217 62.545854060487684 $129 $218 forward 7 unknown #
coedge $-1 $123 $219 $79 $132 reversed $75 $-1 #
edge $-1 $220 -62.545854060487684 $136 62.545854060487684 $131 $221 forward 7 unknown #
coedge $-1 $126 $80 $219 $222 forward $135 $-1 #
coedge $-1 $80 $126 $215 $223 reversed $135 $-1 #
loop $-1 $-1 $133 $199 #
vertex $-1 $81 $224 #
vertex $-1 $81 $225 #
straight-curve $-1 62.545854060487684 0 9.0708368920669784 0 1 0 I I #
face $-1 $226 $227 $19 $-1 $228 reversed single #
loop $-1 $-1 $229 $82 #
plane-surface $-1 -62.545854060487684 0 0 1 0 0 0 0 -1 forward_v I I I I #
coedge $-1 $230 $148 $153 $231 reversed $83 $-1 #
coedge $-1 $232 $85 $233 $234 reversed $53 $-1 #
coedge $-1 $85 $232 $230 $235 forward $53 $-1 #
coedge $-1 $153 $152 $85 $146 forward $154 $-1 #
edge $-1 $236 -19.475049518333691 $237 -7.7268222537721787 $145 $238 forward 7 unknown #
coedge $-1 $87 $86 $229 $239 reversed $34 $-1 #
coedge $-1 $142 $240 $86 $149 reversed $83 $-1 #
edge $-1 $155 -62.545854060487684 $241 62.545854060487684 $148 $242 forward 7 unknown #
coedge $-1 $243 $244 $87 $151 forward $227 $-1 #
edge $-1 $156 -62.545854060487684 $245 62.545854060487684 $150 $246 forward 7 unknown #
coedge $-1 $145 $88 $244 $247 forward $154 $-1 #
coedge $-1 $88 $145 $142 $231 forward $154 $-1 #
loop $-1 $-1 $88 $226 #
vertex $-1 $89 $248 #
vertex $-1 $247 $249 #
straight-curve $-1 62.545854060487684 -13.600935886052936 0.30200234121624403 0 -1 0 I I #
face $-1 $250 $251 $20 $-1 $252 reversed single #
loop $-1 $-1 $96 $90 #
plane-surface $-1 62.545854060487684 0 0 -1 0 0 0 0 1 forward_v I I I I #
coedge $-1 $253 $169 $254 $255 reversed $91 $-1 #
coedge $-1 $256 $93 $253 $257 forward $57 $-1 #
coedge $-1 $93 $256 $258 $259 reversed $57 $-1 #
coedge $-1 $172 $171 $93 $165 forward $159 $-1 #
edge $-1 $260 7.7268222537721805 $261 19.475049518333691 $164 $262 forward 7 unknown #
coedge $-1 $95 $94 $263 $264 reversed $37 $-1 #
coedge $-1 $265 $266 $94 $168 forward $267 $-1 #
edge $-1 $268 -62.545854060487684 $173 62.545854060487684 $167 $269 forward 7 unknown #
coedge $-1 $161 $270 $95 $170 reversed $91 $-1 #
edge $-1 $271 -62.545854060487684 $174 62.545854060487684 $169 $272 forward 7 unknown #
coedge $-1 $164 $96 $270 $273 forward $159 $-1 #
coedge $-1 $96 $164 $265 $274 reversed $159 $-1 #
vertex $-1 $274 $275 #
vertex $-1 $97 $276 #
straight-curve $-1 62.545854060487684 13.600935886052937 0.30200234121624403 0 -1 0 I I #
face $-1 $-1 $277 $21 $-1 $278 forward single #
loop $-1 $-1 $104 $98 #
plane-surface $-1 -62.545854060487684 0 0 1 0 0 0 0 -1 forward_v I I I I #
coedge $-1 $279 $280 $281 $282 reversed $99 $-1 #
coedge $-1 $283 $101 $103 $186 forward $61 $-1 #
coedge $-1 $101 $283 $279 $284 forward $61 $-1 #
coedge $-1 $281 $104 $101 $183 forward $177 $-1 #
edge $-1 $189 -6.0124956135804499 $285 6.7024343023818052 $182 $286 forward 7 unknown #
coedge $-1 $287 $288 $102 $185 forward $277 $-1 #
edge $-1 $289 -20.706492437507407 $188 -15.207701287826396 $184 $290 forward 7 unknown #
edge $-1 $189 0 $289 8.2178145387551993 $103 $291 forward 7 unknown #
coedge $-1 $104 $281 $287 $292 reversed $177 $-1 #
vertex $-1 $292 $293 #
vertex $-1 $105 $294 #
straight-curve $-1 -62.545854060487684 5.6675262691797723 43.333249913882362 0 0 -1 I I #
coedge $-1 $191 $191 $-1 $295 reversed $108 $-1 #
edge $-1 $296 0 $296 6.2831853071796004 $109 $297 forward 7 unknown #
vertex $-1 $112 $298 #
ellipse-curve $-1 -59.796458485647179 -3.4145665279361239 6.0173236824358938 -0.74314483375859142 0 0.66913059716165679 1.0036958957424851 0 1.1147172506378871 1 I I #
coedge $-1 $195 $195 $-1 $299 reversed $115 $-1 #
edge $-1 $300 0 $300 6.2831853071796004 $116 $301 forward 7 unknown #
vertex $-1 $119 $302 #
ellipse-curve $-1 -59.796458485647179 2.0346891503334135 6.0173236824358938 -0.74314483375859142 0 0.66913059716165679 1.0036958957424851 0 1.1147172506378871 1 I I #
face $-1 $-1 $135 $18 $-1 $303 reversed single #
loop $-1 $-1 $215 $120 #
plane-surface $-1 0 33.075985404386628 0 0 -1 0 0 0 -1 forward_v I I I I #
coedge $-1 $304 $213 $216 $305 forward $121 $-1 #
coedge $-1 $219 $123 $124 $207 reversed $75 $-1 #
coedge $-1 $213 $304 $123 $205 reversed $121 $-1 #
edge $-1 $220 -9.0708368920669784 $306 9.0708368920669784 $204 $307 forward 7 unknown #
coedge $-1 $125 $124 $304 $308 forward $49 $-1 #
edge $-1 $211 -62.545854060487684 $306 62.545854060487684 $203 $309 forward 7 unknown #
coedge $-1 $216 $215 $125 $209 reversed $200 $-1 #
edge $-1 $310 -62.545854060487684 $210 62.545854060487684 $208 $311 forward 7 unknown #
vertex $-1 $127 $312 #
vertex $-1 $222 $313 #
straight-curve $-1 62.545854060487684 0 -9.0708368920669784 0 -1 0 I I #
coedge $-1 $202 $204 $128 $214 reversed $121 $-1 #
edge $-1 $217 -33.075985404386628 $220 33.075985404386628 $213 $314 forward 7 unknown #
coedge $-1 $208 $129 $134 $223 forward $200 $-1 #
coedge $-1 $129 $208 $202 $305 reversed $200 $-1 #
vertex $-1 $130 $315 #
straight-curve $-1 0 33.075985404386628 9.0708368920669784 -1 0 0 I I #
coedge $-1 $131 $203 $133 $222 reversed $75 $-1 #
vertex $-1 $214 $316 #
straight-curve $-1 0 -33.075985404386628 9.0708368920669784 1 0 0 I I #
edge $-1 $136 -9.0708368920669784 $211 9.0708368920669784 $133 $317 forward 7 unknown #
edge $-1 $137 -9.0708368920669784 $210 9.0708368920669784 $134 $318 forward 7 unknown #
point $-1 62.545854060487684 -33.075985404386628 9.0708368920669784 #
point $-1 62.545854060487684 33.075985404386628 9.0708368920669784 #
face $-1 $-1 $154 $19 $-1 $319 reversed single #
loop $-1 $-1 $150 $139 #
plane-surface $-1 0 -33.075985404386628 0 0 1 0 0 0 1 forward_v I I I I #
coedge $-1 $320 $321 $147 $239 forward $140 $-1 #
coedge $-1 $240 $142 $144 $235 reversed $83 $-1 #
edge $-1 $237 -2.0989988293918773 $155 0.90100117060812179 $153 $322 forward 7 unknown #
coedge $-1 $144 $143 $323 $324 reversed $53 $-1 #
coedge $-1 $244 $243 $143 $234 forward $227 $-1 #
edge $-1 $325 -62.545854060487684 $236 62.545854060487684 $233 $326 forward 7 unknown #
edge $-1 $327 -62.545854060487684 $237 62.545854060487684 $230 $328 forward 7 unknown #
vertex $-1 $234 $329 #
vertex $-1 $146 $330 #
straight-curve $-1 62.545854060487684 -13.600935886052936 -2.6979976587837551 0 1 0 I I #
edge $-1 $245 -19.475049518333691 $241 -7.7268222537721787 $229 $331 forward 7 unknown #
coedge $-1 $148 $230 $320 $332 reversed $83 $-1 #
vertex $-1 $239 $333 #
straight-curve $-1 0 -21.327758139825114 0.30200234121624403 -1 0 0 I I #
coedge $-1 $233 $150 $321 $334 forward $227 $-1 #
coedge $-1 $150 $233 $152 $247 reversed $227 $-1 #
vertex $-1 $334 $335 #
straight-curve $-1 0 -33.075985404386628 0.30200234121624403 -1 0 0 I I #
edge $-1 $156 -0.30200234121624403 $236 2.6979976587837551 $152 $336 forward 7 unknown #
point $-1 62.545854060487684 -21.327758139825114 0.30200234121624403 #
point $-1 62.545854060487684 -33.075985404386628 0.30200234121624403 #
face $-1 $-1 $267 $20 $-1 $337 reversed single #
loop $-1 $-1 $263 $158 #
plane-surface $-1 -62.545854060487684 0 0 1 0 0 0 0 -1 forward_v I I I I #
coedge $-1 $270 $161 $162 $257 reversed $91 $-1 #
coedge $-1 $263 $338 $161 $255 forward $251 $-1 #
edge $-1 $339 -2.0989988293918773 $271 0.90100117060812179 $254 $340 forward 7 unknown #
coedge $-1 $163 $162 $338 $341 reversed $57 $-1 #
edge $-1 $260 -62.545854060487684 $339 62.545854060487684 $253 $342 forward 7 unknown #
coedge $-1 $266 $265 $163 $259 forward $267 $-1 #
edge $-1 $261 -62.545854060487684 $343 62.545854060487684 $258 $344 forward 7 unknown #
vertex $-1 $165 $345 #
vertex $-1 $259 $346 #
straight-curve $-1 62.545854060487684 13.600935886052937 -2.6979976587837551 0 1 0 I I #
coedge $-1 $347 $254 $166 $264 forward $251 $-1 #
edge $-1 $271 7.7268222537721805 $268 19.475049518333691 $263 $348 forward 7 unknown #
coedge $-1 $258 $167 $172 $274 forward $267 $-1 #
coedge $-1 $167 $258 $347 $349 reversed $267 $-1 #
loop $-1 $-1 $167 $250 #
vertex $-1 $349 $350 #
straight-curve $-1 0 33.075985404386628 0.30200234121624403 1 0 0 I I #
coedge $-1 $169 $253 $171 $273 reversed $91 $-1 #
vertex $-1 $264 $351 #
straight-curve $-1 0 21.327758139825118 0.30200234121624403 1 0 0 I I #
edge $-1 $174 -0.90100117060812179 $260 2.0989988293918773 $171 $352 forward 7 unknown #
edge $-1 $173 -0.30200234121624403 $261 2.6979976587837551 $172 $353 forward 7 unknown #
point $-1 62.545854060487684 33.075985404386628 0.30200234121624403 #
point $-1 62.545854060487684 21.327758139825118 0.30200234121624403 #
loop $-1 $-1 $184 $176 #
plane-surface $-1 0 0 9.0708368920669784 0 0 1 1 0 0 forward_v I I I I #
coedge $-1 $280 $179 $181 $284 reversed $99 $-1 #
coedge $-1 $179 $279 $354 $355 reversed $99 $-1 #
coedge $-1 $187 $182 $179 $282 forward $177 $-1 #
edge $-1 $285 -40.369439441077553 $356 -34.262413021815384 $281 $357 forward 7 unknown #
coedge $-1 $181 $180 $288 $358 reversed $61 $-1 #
edge $-1 $359 -8.2178145387551993 $285 0 $279 $360 forward 7 unknown #
vertex $-1 $183 $361 #
straight-curve $-1 -62.545854060487684 -0.34496934440067761 2.9638104728048056 0 -1 0 I I #
coedge $-1 $354 $184 $187 $292 forward $277 $-1 #
coedge $-1 $184 $354 $283 $358 forward $277 $-1 #
vertex $-1 $185 $362 #
straight-curve $-1 -77.75355534831408 5.6675262691797723 9.0708368920669784 -1 0 0 I I #
straight-curve $-1 -62.545854060487684 5.6675262691797723 2.9638104728048091 0.66913059716165679 0 0.74314483375859142 I I #
edge $-1 $188 -5.6675262691797723 $356 7.0474036467824828 $187 $363 forward 7 unknown #
point $-1 -62.545854060487684 5.6675262691797723 9.0708368920669784 #
point $-1 -62.545854060487684 5.6675262691797723 2.9638104728048091 #
edge $-1 $364 1 $364 0 $191 $-1 forward 7 unknown #
vertex $-1 $192 $365 #
ellipse-curve $-1 -55.974638808192374 -3.4145665279361239 2.5761418739242146 -0.74314483375859142 0 0.66913059716165679 1.0036958957424851 0 1.1147172506378871 1 I I #
point $-1 -58.792762589904697 -3.4145665279361239 7.1320409330737835 #
edge $-1 $366 1 $366 0 $195 $-1 forward 7 unknown #
vertex $-1 $196 $367 #
ellipse-curve $-1 -55.974638808192374 2.0346891503334135 2.5761418739242146 -0.74314483375859142 0 0.66913059716165679 1.0036958957424851 0 1.1147172506378871 1 I I #
point $-1 -58.792762589904697 2.0346891503334135 7.1320409330737835 #
plane-surface $-1 62.545854060487684 0 0 -1 0 0 0 0 1 forward_v I I I I #
coedge $-1 $204 $202 $206 $308 reversed $121 $-1 #
edge $-1 $217 -9.0708368920669784 $310 9.0708368920669784 $216 $368 forward 7 unknown #
vertex $-1 $308 $369 #
straight-curve $-1 -62.545854060487684 -33.075985404386628 0 0 0 -1 I I #
edge $-1 $306 -33.075985404386628 $310 33.075985404386628 $304 $370 forward 7 unknown #
straight-curve $-1 0 -33.075985404386628 -9.0708368920669784 -1 0 0 I I #
vertex $-1 $209 $371 #
straight-curve $-1 0 33.075985404386628 -9.0708368920669784 1 0 0 I I #
point $-1 62.545854060487684 33.075985404386628 -9.0708368920669784 #
point $-1 62.545854060487684 -33.075985404386628 -9.0708368920669784 #
straight-curve $-1 -62.545854060487684 0 9.0708368920669784 0 -1 0 I I #
point $-1 -62.545854060487684 33.075985404386628 9.0708368920669784 #
point $-1 -62.545854060487684 -33.075985404386628 9.0708368920669784 #
straight-curve $-1 62.545854060487684 -33.075985404386628 0 0 0 -1 I I #
straight-curve $-1 62.545854060487684 33.075985404386628 0 0 0 -1 I I #
plane-surface $-1 62.545854060487684 0 0 -1 0 0 0 0 1 forward_v I I I I #
coedge $-1 $323 $229 $240 $332 forward $140 $-1 #
coedge $-1 $229 $323 $243 $334 reversed $140 $-1 #
straight-curve $-1 62.545854060487684 -21.327758139825114 -0.59899882939187776 0 0 1 I I #
coedge $-1 $321 $320 $232 $324 forward $140 $-1 #
edge $-1 $327 7.7268222537721787 $325 19.475049518333691 $323 $372 forward 7 unknown #
vertex $-1 $234 $373 #
straight-curve $-1 0 -33.075985404386628 -2.6979976587837551 1 0 0 I I #
vertex $-1 $324 $374 #
straight-curve $-1 0 -21.327758139825114 -2.6979976587837551 1 0 0 I I #
point $-1 62.545854060487684 -33.075985404386628 -2.6979976587837551 #
point $-1 62.545854060487684 -21.327758139825114 -2.6979976587837551 #
straight-curve $-1 -62.545854060487684 -13.600935886052936 0.30200234121624403 0 1 0 I I #
edge $-1 $241 -0.90100117060812179 $327 2.0989988293918773 $320 $375 forward 7 unknown #
point $-1 -62.545854060487684 -21.327758139825114 0.30200234121624403 #
edge $-1 $245 -0.30200234121624403 $325 2.6979976587837551 $321 $376 forward 7 unknown #
point $-1 -62.545854060487684 -33.075985404386628 0.30200234121624403 #
straight-curve $-1 62.545854060487684 -33.075985404386628 0 0 0 -1 I I #
plane-surface $-1 0 33.075985404386628 0 0 -1 0 0 0 -1 forward_v I I I I #
coedge $-1 $254 $347 $256 $341 forward $251 $-1 #
vertex $-1 $341 $377 #
straight-curve $-1 -62.545854060487684 21.327758139825118 -0.59899882939187776 0 0 1 I I #
edge $-1 $343 -19.475049518333691 $339 -7.7268222537721805 $338 $378 forward 7 unknown #
straight-curve $-1 0 21.327758139825118 -2.6979976587837551 -1 0 0 I I #
vertex $-1 $259 $379 #
straight-curve $-1 0 33.075985404386628 -2.6979976587837551 -1 0 0 I I #
point $-1 62.545854060487684 21.327758139825118 -2.6979976587837551 #
point $-1 62.545854060487684 33.075985404386628 -2.6979976587837551 #
coedge $-1 $338 $263 $266 $349 forward $251 $-1 #
straight-curve $-1 -62.545854060487684 13.600935886052937 0.30200234121624403 0 1 0 I I #
edge $-1 $268 -0.30200234121624403 $343 2.6979976587837551 $266 $380 forward 7 unknown #
point $-1 -62.545854060487684 33.075985404386628 0.30200234121624403 #
point $-1 -62.545854060487684 21.327758139825118 0.30200234121624403 #
straight-curve $-1 62.545854060487684 21.327758139825118 -0.59899882939187776 0 0 -1 I I #
straight-curve $-1 62.545854060487684 33.075985404386628 0 0 0 -1 I I #
coedge $-1 $288 $287 $280 $355 forward $277 $-1 #
edge $-1 $356 15.207701287826396 $359 20.706492437507407 $354 $381 forward 7 unknown #
vertex $-1 $355 $382 #
straight-curve $-1 -62.545854060487684 -7.0474036467824828 43.333249913882362 0 0 1 I I #
edge $-1 $359 -6.7024343023818052 $289 6.0124956135804499 $288 $383 forward 7 unknown #
vertex $-1 $358 $384 #
straight-curve $-1 -62.545854060487684 -7.0474036467824828 2.9638104728048091 -0.66913059716165679 0 -0.74314483375859142 I I #
point $-1 -62.545854060487684 -7.0474036467824828 2.9638104728048091 #
point $-1 -57.047062910806673 5.6675262691797723 9.0708368920669784 #
straight-curve $-1 -62.545854060487684 0 9.0708368920669784 0 -1 0 I I #
vertex $-1 $295 $385 #
point $-1 -54.970942912449893 -3.4145665279361239 3.6908591245621016 #
vertex $-1 $299 $386 #
point $-1 -54.970942912449893 2.0346891503334135 3.6908591245621016 #
straight-curve $-1 -62.545854060487684 33.075985404386628 0 0 0 -1 I I #
point $-1 -62.545854060487684 -33.075985404386628 -9.0708368920669784 #
straight-curve $-1 -62.545854060487684 0 -9.0708368920669784 0 1 0 I I #
point $-1 -62.545854060487684 33.075985404386628 -9.0708368920669784 #
straight-curve $-1 -62.545854060487684 -13.600935886052936 -2.6979976587837551 0 -1 0 I I #
point $-1 -62.545854060487684 -33.075985404386628 -2.6979976587837551 #
point $-1 -62.545854060487684 -21.327758139825114 -2.6979976587837551 #
straight-curve $-1 -62.545854060487684 -21.327758139825114 -0.59899882939187776 0 0 -1 I I #
straight-curve $-1 -62.545854060487684 -33.075985404386628 0 0 0 -1 I I #
point $-1 -62.545854060487684 21.327758139825118 -2.6979976587837551 #
straight-curve $-1 -62.545854060487684 13.600935886052937 -2.6979976587837551 0 -1 0 I I #
point $-1 -62.545854060487684 33.075985404386628 -2.6979976587837551 #
straight-curve $-1 -62.545854060487684 33.075985404386628 0 0 0 -1 I I #
straight-curve $-1 -77.75355534831408 -7.0474036467824828 9.0708368920669784 1 0 0 I I #
point $-1 -62.545854060487684 -7.0474036467824828 9.0708368920669784 #
straight-curve $-1 -57.047062910806673 -0.34496934440067761 9.0708368920669784 0 1 0 I I #
point $-1 -57.047062910806673 -7.0474036467824828 9.0708368920669784 #
point $-1 -54.859921557554493 -3.4145665279361239 1.5724459781817295 #
point $-1 -54.859921557554493 2.0346891503334135 1.5724459781817295 #
End-of-ACIS-data 