500 0 7 0           
7 Unknown 11 ACIS 5.0 NT 24 Fri Mar 26 17:52:01 1999 
-1 9.9999999999999995e-007 1e-010 
body $-1 $7 $-1 $8 #
body $-1 $9 $-1 $10 #
body $-1 $11 $-1 $12 #
body $-1 $13 $-1 $14 #
body $-1 $15 $-1 $16 #
body $-1 $17 $-1 $18 #
body $-1 $19 $-1 $20 #
lump $-1 $-1 $21 $0 #
transform $-1 1 0 0 0 1 0 0 0 1 67.270119327372058 46.513837475645325 12.303802188792258 1 rotate no_reflect no_shear #
lump $-1 $-1 $22 $1 #
transform $-1 1 0 0 0 1 0 0 0 1 67.270119327372058 46.513837475645325 12.303802188792258 1 rotate no_reflect no_shear #
lump $-1 $-1 $23 $2 #
transform $-1 1 0 0 0 1 0 0 0 1 67.270119327372058 46.513837475645325 12.303802188792258 1 rotate no_reflect no_shear #
lump $-1 $-1 $24 $3 #
transform $-1 1 0 0 0 1 0 0 0 1 67.270119327372058 46.513837475645325 12.303802188792258 1 rotate no_reflect no_shear #
lump $-1 $-1 $25 $4 #
transform $-1 1 0 0 0 1 0 0 0 1 67.270119327372058 46.513837475645325 12.303802188792258 1 rotate no_reflect no_shear #
lump $-1 $-1 $26 $5 #
transform $-1 1 0 0 0 1 0 0 0 1 67.270119327372058 46.513837475645325 12.303802188792258 1 rotate no_reflect no_shear #
lump $-1 $-1 $27 $6 #
transform $-1 1 0 0 0 1 0 0 0 1 67.270119327372058 46.513837475645325 12.303802188792258 1 rotate no_reflect no_shear #
shell $-1 $-1 $-1 $28 $-1 $7 #
shell $-1 $-1 $-1 $29 $-1 $9 #
shell $-1 $-1 $-1 $30 $-1 $11 #
shell $-1 $-1 $-1 $31 $-1 $13 #
shell $-1 $-1 $-1 $32 $-1 $15 #
shell $-1 $-1 $-1 $33 $-1 $17 #
shell $-1 $-1 $-1 $34 $-1 $19 #
face $-1 $35 $36 $21 $-1 $37 forward single #
face $-1 $38 $39 $22 $-1 $40 reversed single #
face $-1 $41 $42 $23 $-1 $43 reversed single #
face $-1 $44 $45 $24 $-1 $46 forward single #
face $-1 $47 $48 $25 $-1 $49 forward single #
face $-1 $50 $51 $26 $-1 $52 reversed single #
face $-1 $53 $54 $27 $-1 $55 forward single #
face $-1 $56 $57 $21 $-1 $58 reversed single #
loop $-1 $-1 $59 $28 #
plane-surface $-1 0 0 12.303802188792258 0 0 1 1 0 0 forward_v I I I I #
face $-1 $60 $61 $22 $-1 $62 reversed single #
loop $-1 $-1 $63 $29 #
plane-surface $-1 0 -40.403443455255029 8.2688219476861473 0 0 1 1 0 0 forward_v I I I I #
face $-1 $64 $65 $23 $-1 $66 reversed single #
loop $-1 $-1 $67 $30 #
plane-surface $-1 -24.486101605190058 42.037239024023158 102.74927489555405 0.73135370988377701 0 0.68199835119979291 0.68199835119979291 0 -0.73135370988377701 forward_v I I I I #
face $-1 $68 $69 $24 $-1 $70 forward single #
loop $-1 $71 $72 $31 #
cone-surface $-1 62.216158114060804 40.118696830470817 7.0724378314303111 -0.73135370988377701 0 -0.68199835119979291 0.68199835119979291 0 -0.73135370988377701 1 I I 0 1 1 forward I I I I #
face $-1 $73 $74 $25 $-1 $75 forward single #
loop $-1 $76 $77 $32 #
cone-surface $-1 62.216158114060804 43.955781217575527 7.0724378314303111 -0.73135370988377701 0 -0.68199835119979291 0.68199835119979291 0 -0.73135370988377701 1 I I 0 1 1 forward I I I I #
face $-1 $78 $79 $26 $-1 $80 reversed single #
loop $-1 $-1 $81 $33 #
plane-surface $-1 -176.11545992736768 4.1682278795929832 82.766284120601654 0 1 0 -0.80901700255871778 0 0.5877852410284794 forward_v I I I I #
face $-1 $82 $83 $27 $-1 $84 forward single #
loop $-1 $85 $86 $34 #
cone-surface $-1 -61.182297853339421 14.245845696770445 5.8462399488229586 0.80901700255871778 0 -0.5877852410284794 1.1755704820569588 0 1.6180340051174356 1 I I 0 1 2 forward I I I I #
face $-1 $87 $88 $21 $-1 $89 reversed single #
loop $-1 $-1 $90 $35 #
plane-surface $-1 0 0 -12.303802188792258 0 0 1 1 0 0 forward_v I I I I #
coedge $-1 $91 $92 $93 $94 forward $36 $-1 #
face $-1 $95 $96 $22 $-1 $97 reversed single #
loop $-1 $-1 $98 $38 #
plane-surface $-1 0 -34.293049434864734 10.286312068239202 0 -1 0 0 0 -1 forward_v I I I I #
coedge $-1 $99 $100 $101 $102 reversed $39 $-1 #
face $-1 $103 $104 $23 $-1 $105 reversed single #
loop $-1 $-1 $106 $41 #
plane-surface $-1 73.910401063605789 37.560640572400999 194.50549582811618 0 1 0 0.73135370988377701 0 0.68199835119979291 forward_v I I I I #
coedge $-1 $107 $108 $109 $110 reversed $42 $-1 #
face $-1 $-1 $111 $24 $-1 $112 forward single #
loop $-1 $113 $114 $44 #
cone-surface $-1 60.503747650702906 40.118696830470817 5.4755892794855221 -0.73135370988377701 0 -0.68199835119979291 0.34099917559989645 0 -0.36567685494188851 1 I I -0.70710678118654746 0.70710678118654746 0.5 forward I I I I #
loop $-1 $-1 $115 $31 #
coedge $-1 $72 $72 $116 $117 reversed $45 $-1 #
face $-1 $-1 $118 $25 $-1 $119 forward single #
loop $-1 $120 $121 $47 #
cone-surface $-1 60.503747650702906 43.955781217575527 5.4755892794855221 -0.73135370988377701 0 -0.68199835119979291 0.34099917559989645 0 -0.36567685494188851 1 I I -0.70710678118654746 0.70710678118654746 0.5 forward I I I I #
loop $-1 $-1 $122 $32 #
coedge $-1 $77 $77 $123 $124 reversed $48 $-1 #
face $-1 $125 $126 $26 $-1 $127 reversed single #
loop $-1 $-1 $128 $50 #
plane-surface $-1 -67.270119327372058 14.245845696770445 3.6855175148937462 -0.80901700255871778 0 0.5877852410284794 0.5877852410284794 0 0.80901700255871778 forward_v I I I I #
coedge $-1 $129 $130 $131 $132 reversed $51 $-1 #
face $-1 $-1 $133 $27 $-1 $134 forward single #
loop $-1 $135 $136 $53 #
cone-surface $-1 -57.41623445210368 14.245845696770445 3.1100348047744308 0.80901700255871778 0 -0.5877852410284794 0.5877852410284794 0 0.80901700255871778 1 I I -0.70710678118654746 0.70710678118654746 1 forward I I I I #
loop $-1 $-1 $137 $34 #
coedge $-1 $86 $86 $138 $139 reversed $54 $-1 #
face $-1 $140 $141 $21 $-1 $142 reversed single #
loop $-1 $-1 $143 $56 #
plane-surface $-1 0 -46.513837475645325 0 0 1 0 0 0 1 forward_v I I I I #
coedge $-1 $144 $145 $146 $147 forward $57 $-1 #
coedge $-1 $148 $59 $149 $150 forward $36 $-1 #
coedge $-1 $59 $148 $151 $152 forward $36 $-1 #
coedge $-1 $153 $154 $59 $94 reversed $155 $-1 #
edge $-1 $156 -46.513837475645325 $157 46.513837475645325 $93 $158 forward 7 unknown #
face $-1 $159 $160 $22 $-1 $161 reversed single #
loop $-1 $-1 $162 $60 #
plane-surface $-1 -67.270119327372058 0 0 1 0 0 0 0 -1 forward_v I I I I #
coedge $-1 $163 $164 $165 $166 reversed $61 $-1 #
coedge $-1 $167 $63 $168 $169 reversed $39 $-1 #
coedge $-1 $63 $167 $163 $170 forward $39 $-1 #
coedge $-1 $165 $171 $63 $102 forward $172 $-1 #
edge $-1 $173 -26.31211574801781 $174 -14.09132770723722 $101 $175 forward 7 unknown #
face $-1 $176 $177 $23 $-1 $178 forward single #
loop $-1 $-1 $179 $64 #
plane-surface $-1 0 46.513837475645325 0 0 -1 0 0 0 -1 forward_v I I I I #
coedge $-1 $180 $181 $182 $183 reversed $65 $-1 #
coedge $-1 $184 $67 $179 $185 reversed $42 $-1 #
coedge $-1 $67 $184 $180 $186 forward $42 $-1 #
coedge $-1 $182 $187 $67 $110 forward $177 $-1 #
edge $-1 $188 -25.495217963633738 $189 -16.54202106038942 $109 $190 forward 7 unknown #
loop $-1 $-1 $116 $68 #
plane-surface $-1 -24.486101605190058 42.037239024023158 102.74927489555405 0.73135370988377701 0 0.68199835119979291 0.68199835119979291 0 -0.73135370988377701 forward_v I I I I #
loop $-1 $-1 $191 $44 #
coedge $-1 $114 $114 $115 $192 reversed $69 $-1 #
coedge $-1 $115 $115 $114 $192 forward $71 $-1 #
coedge $-1 $116 $116 $72 $117 forward $111 $-1 #
edge $-1 $193 0 $193 6.2831853071796004 $116 $194 forward 7 unknown #
loop $-1 $-1 $123 $73 #
plane-surface $-1 -24.486101605190058 42.037239024023158 102.74927489555405 0.73135370988377701 0 0.68199835119979291 0.68199835119979291 0 -0.73135370988377701 forward_v I I I I #
loop $-1 $-1 $195 $47 #
coedge $-1 $121 $121 $122 $196 reversed $74 $-1 #
coedge $-1 $122 $122 $121 $196 forward $76 $-1 #
coedge $-1 $123 $123 $77 $124 forward $118 $-1 #
edge $-1 $197 0 $197 6.2831853071796004 $123 $198 forward 7 unknown #
face $-1 $199 $200 $26 $-1 $201 reversed single #
loop $-1 $-1 $202 $78 #
plane-surface $-1 -176.11545992736768 24.323463513947907 82.766284120601654 0 -1 0 0.80901700255871778 0 -0.5877852410284794 forward_v I I I I #
coedge $-1 $203 $204 $205 $206 reversed $79 $-1 #
coedge $-1 $130 $81 $207 $208 reversed $51 $-1 #
coedge $-1 $81 $129 $203 $209 reversed $51 $-1 #
coedge $-1 $205 $210 $81 $132 forward $211 $-1 #
edge $-1 $212 20.787610636311783 $213 27.049160787023013 $131 $214 forward 7 unknown #
loop $-1 $-1 $138 $82 #
plane-surface $-1 -67.270119327372058 14.245845696770445 3.6855175148937462 -0.80901700255871778 0 0.5877852410284794 0.5877852410284794 0 0.80901700255871778 forward_v I I I I #
loop $-1 $-1 $215 $53 #
coedge $-1 $136 $136 $137 $216 reversed $83 $-1 #
coedge $-1 $137 $137 $136 $216 forward $85 $-1 #
coedge $-1 $138 $138 $86 $139 forward $133 $-1 #
edge $-1 $217 0 $217 6.2831853071796004 $138 $218 forward 7 unknown #
face $-1 $219 $220 $21 $-1 $221 reversed single #
loop $-1 $-1 $222 $87 #
plane-surface $-1 -67.270119327372058 0 0 1 0 0 0 0 -1 forward_v I I I I #
coedge $-1 $223 $151 $224 $225 forward $88 $-1 #
coedge $-1 $226 $90 $223 $227 forward $57 $-1 #
coedge $-1 $90 $226 $228 $229 forward $57 $-1 #
coedge $-1 $154 $153 $90 $147 reversed $155 $-1 #
edge $-1 $230 -46.513837475645325 $231 46.513837475645325 $146 $232 forward 7 unknown #
coedge $-1 $92 $91 $233 $234 forward $36 $-1 #
coedge $-1 $235 $236 $91 $150 reversed $220 $-1 #
edge $-1 $157 -67.270119327372058 $237 67.270119327372058 $149 $238 forward 7 unknown #
coedge $-1 $143 $239 $92 $152 reversed $88 $-1 #
edge $-1 $240 -67.270119327372058 $156 67.270119327372058 $151 $241 forward 7 unknown #
coedge $-1 $146 $93 $239 $242 forward $155 $-1 #
coedge $-1 $93 $146 $235 $243 reversed $155 $-1 #
loop $-1 $-1 $153 $219 #
vertex $-1 $94 $244 #
vertex $-1 $94 $245 #
straight-curve $-1 67.270119327372058 0 12.303802188792258 0 1 0 I I #
face $-1 $246 $247 $22 $-1 $248 forward single #
loop $-1 $-1 $168 $95 #
plane-surface $-1 0 -46.513837475645325 0 0 1 0 0 0 1 forward_v I I I I #
coedge $-1 $249 $250 $251 $252 forward $96 $-1 #
coedge $-1 $251 $98 $100 $170 reversed $61 $-1 #
coedge $-1 $98 $251 $253 $254 reversed $61 $-1 #
coedge $-1 $255 $101 $98 $166 forward $172 $-1 #
edge $-1 $174 3.1256659135665465 $256 7.160646154672655 $165 $257 forward 7 unknown #
coedge $-1 $100 $99 $249 $258 reversed $39 $-1 #
coedge $-1 $259 $260 $99 $169 forward $160 $-1 #
edge $-1 $261 -67.270119327372058 $173 67.270119327372058 $168 $262 forward 7 unknown #
edge $-1 $263 -67.270119327372058 $174 67.270119327372058 $163 $264 forward 7 unknown #
coedge $-1 $101 $255 $259 $265 forward $172 $-1 #
loop $-1 $-1 $165 $246 #
vertex $-1 $169 $266 #
vertex $-1 $102 $267 #
straight-curve $-1 67.270119327372058 -20.201721727627515 8.2688219476861473 0 1 0 I I #
face $-1 $-1 $268 $23 $-1 $269 reversed single #
loop $-1 $-1 $109 $103 #
plane-surface $-1 0 0 12.303802188792258 0 0 1 1 0 0 forward_v I I I I #
coedge $-1 $270 $271 $107 $185 forward $104 $-1 #
coedge $-1 $181 $106 $108 $186 reversed $65 $-1 #
coedge $-1 $106 $180 $272 $273 reversed $65 $-1 #
coedge $-1 $274 $109 $106 $183 forward $177 $-1 #
edge $-1 $189 22.900463585778674 $275 30.314918795569163 $182 $276 forward 7 unknown #
coedge $-1 $108 $107 $277 $278 reversed $42 $-1 #
edge $-1 $279 -88.617466502353238 $188 -77.745805014100739 $179 $280 forward 7 unknown #
edge $-1 $281 -134.54023865474409 $189 -123.66857716649159 $180 $282 forward 7 unknown #
coedge $-1 $109 $274 $270 $283 forward $177 $-1 #
vertex $-1 $110 $284 #
vertex $-1 $110 $285 #
straight-curve $-1 59.855664117581583 21.018619512011579 12.303802188792247 0 -1 0 I I #
coedge $-1 $191 $191 $-1 $286 reversed $113 $-1 #
edge $-1 $287 0 $287 6.2831853071796004 $114 $288 forward 7 unknown #
vertex $-1 $117 $289 #
ellipse-curve $-1 63.562891722476834 40.118696830470817 8.3282872077752259 0.73135370988377701 0 0.68199835119979291 0.68199835119979291 0 -0.73135370988377701 1 I I #
coedge $-1 $195 $195 $-1 $290 reversed $120 $-1 #
edge $-1 $291 0 $291 6.2831853071796004 $121 $292 forward 7 unknown #
vertex $-1 $124 $293 #
ellipse-curve $-1 63.562891722476834 43.955781217575527 8.3282872077752259 0.73135370988377701 0 0.68199835119979291 0.68199835119979291 0 -0.73135370988377701 1 I I #
face $-1 $-1 $211 $26 $-1 $294 forward single #
loop $-1 $-1 $295 $125 #
plane-surface $-1 -67.270119327372058 0 0 1 0 0 0 0 -1 forward_v I I I I #
coedge $-1 $296 $297 $298 $299 reversed $126 $-1 #
coedge $-1 $300 $128 $130 $209 forward $79 $-1 #
coedge $-1 $128 $300 $296 $301 forward $79 $-1 #
coedge $-1 $298 $131 $128 $206 forward $211 $-1 #
edge $-1 $213 -2.9546949687922393 $302 17.200540665562684 $205 $303 forward 7 unknown #
coedge $-1 $304 $305 $129 $208 forward $200 $-1 #
edge $-1 $306 -37.697624545407081 $212 -29.079339871508569 $207 $307 forward 7 unknown #
edge $-1 $213 -10.652785598622822 $306 0 $130 $308 forward 7 unknown #
coedge $-1 $131 $298 $304 $309 forward $211 $-1 #
loop $-1 $-1 $298 $199 #
vertex $-1 $208 $310 #
vertex $-1 $132 $311 #
straight-curve $-1 -88.05772996368384 4.1682278795929832 12.303802188792254 1 0 0 I I #
coedge $-1 $215 $215 $-1 $312 reversed $135 $-1 #
edge $-1 $313 0 $313 6.2831853071796004 $136 $314 forward 7 unknown #
vertex $-1 $139 $315 #
ellipse-curve $-1 -64.139344252016443 14.245845696770445 7.9946598518430054 -0.80901700255871778 0 0.5877852410284794 1.1755704820569588 0 1.6180340051174356 1 I I #
face $-1 $-1 $155 $21 $-1 $316 reversed single #
loop $-1 $-1 $235 $140 #
plane-surface $-1 0 46.513837475645325 0 0 -1 0 0 0 -1 forward_v I I I I #
coedge $-1 $317 $233 $236 $318 forward $141 $-1 #
coedge $-1 $239 $143 $144 $227 reversed $88 $-1 #
coedge $-1 $233 $317 $143 $225 reversed $141 $-1 #
edge $-1 $240 -12.303802188792258 $319 12.303802188792258 $224 $320 forward 7 unknown #
coedge $-1 $145 $144 $317 $321 forward $57 $-1 #
edge $-1 $231 -67.270119327372058 $319 67.270119327372058 $223 $322 forward 7 unknown #
coedge $-1 $236 $235 $145 $229 reversed $220 $-1 #
edge $-1 $323 -67.270119327372058 $230 67.270119327372058 $228 $324 forward 7 unknown #
vertex $-1 $147 $325 #
vertex $-1 $242 $326 #
straight-curve $-1 67.270119327372058 0 -12.303802188792258 0 -1 0 I I #
coedge $-1 $222 $224 $148 $234 reversed $141 $-1 #
edge $-1 $237 -46.513837475645325 $240 46.513837475645325 $233 $327 forward 7 unknown #
coedge $-1 $228 $149 $154 $243 forward $220 $-1 #
coedge $-1 $149 $228 $222 $318 reversed $220 $-1 #
vertex $-1 $150 $328 #
straight-curve $-1 0 46.513837475645325 12.303802188792258 -1 0 0 I I #
coedge $-1 $151 $223 $153 $242 reversed $88 $-1 #
vertex $-1 $234 $329 #
straight-curve $-1 0 -46.513837475645325 12.303802188792258 1 0 0 I I #
edge $-1 $156 -12.303802188792258 $231 12.303802188792258 $153 $330 forward 7 unknown #
edge $-1 $157 -12.303802188792258 $230 12.303802188792258 $154 $331 forward 7 unknown #
point $-1 67.270119327372058 -46.513837475645325 12.303802188792258 #
point $-1 67.270119327372058 46.513837475645325 12.303802188792258 #
face $-1 $-1 $172 $22 $-1 $332 reversed single #
loop $-1 $-1 $253 $159 #
plane-surface $-1 0 0 12.303802188792258 0 0 1 1 0 0 forward_v I I I I #
coedge $-1 $333 $162 $167 $258 forward $96 $-1 #
coedge $-1 $162 $333 $334 $335 reversed $96 $-1 #
coedge $-1 $164 $163 $162 $252 reversed $61 $-1 #
edge $-1 $336 -7.160646154672655 $263 -3.1256659135665465 $162 $337 forward 7 unknown #
coedge $-1 $334 $338 $164 $254 forward $247 $-1 #
edge $-1 $256 -67.270119327372058 $336 67.270119327372058 $253 $339 forward 7 unknown #
coedge $-1 $171 $165 $338 $340 reversed $172 $-1 #
vertex $-1 $166 $341 #
straight-curve $-1 67.270119327372058 -34.293049434864734 5.1431560341196008 0 0 1 I I #
edge $-1 $263 14.09132770723722 $261 26.31211574801781 $249 $342 forward 7 unknown #
coedge $-1 $343 $168 $171 $265 reversed $160 $-1 #
coedge $-1 $168 $343 $333 $344 forward $160 $-1 #
vertex $-1 $169 $345 #
straight-curve $-1 0 -46.513837475645325 8.2688219476861473 1 0 0 I I #
vertex $-1 $258 $346 #
straight-curve $-1 0 -34.293049434864734 8.2688219476861473 1 0 0 I I #
edge $-1 $347 -12.303802188792258 $173 -8.2688219476861473 $171 $348 forward 7 unknown #
point $-1 67.270119327372058 -46.513837475645325 8.2688219476861473 #
point $-1 67.270119327372058 -34.293049434864734 8.2688219476861473 #
loop $-1 $-1 $277 $176 #
plane-surface $-1 67.270119327372058 0 0 -1 0 0 0 0 1 forward_v I I I I #
coedge $-1 $271 $179 $187 $283 reversed $104 $-1 #
coedge $-1 $179 $270 $349 $350 forward $104 $-1 #
coedge $-1 $277 $351 $181 $273 forward $268 $-1 #
edge $-1 $275 84.94894572526583 $281 92.899975687299872 $272 $352 forward 7 unknown #
coedge $-1 $187 $182 $351 $353 forward $177 $-1 #
vertex $-1 $353 $354 #
straight-curve $-1 36.955200531802895 37.560640572400999 12.303802188792261 1 0 0 I I #
coedge $-1 $349 $272 $184 $278 forward $268 $-1 #
edge $-1 $281 16.54202106038942 $279 25.495217963633738 $277 $355 forward 7 unknown #
vertex $-1 $278 $356 #
straight-curve $-1 6.8331532852642702 46.513837475645325 69.163485113755598 -0.68199835119979291 0 0.73135370988377701 I I #
vertex $-1 $278 $357 #
straight-curve $-1 -24.486101605190058 37.560640572400999 102.74927489555405 -0.68199835119979291 0 0.73135370988377701 I I #
edge $-1 $358 -67.270119327372058 $188 -59.855664117581568 $270 $359 forward 7 unknown #
point $-1 59.855664117581568 46.513837475645317 12.303802188792261 #
point $-1 59.855664117581568 37.560640572400999 12.303802188792261 #
edge $-1 $360 1 $360 0 $191 $-1 forward 7 unknown #
vertex $-1 $192 $361 #
ellipse-curve $-1 60.869424505644794 40.118696830470817 5.8165884550854186 0.73135370988377701 0 0.68199835119979291 0.68199835119979291 0 -0.73135370988377701 1 I I #
point $-1 64.244890073676601 40.118696830470817 7.5969334978914267 #
edge $-1 $362 1 $362 0 $195 $-1 forward 7 unknown #
vertex $-1 $196 $363 #
ellipse-curve $-1 60.869424505644794 43.955781217575527 5.8165884550854186 0.73135370988377701 0 0.68199835119979291 0.68199835119979291 0 -0.73135370988377701 1 I I #
point $-1 64.244890073676601 43.955781217575527 7.5969334978914267 #
plane-surface $-1 0 0 12.303802188792258 0 0 1 1 0 0 forward_v I I I I #
coedge $-1 $305 $304 $297 $364 forward $200 $-1 #
coedge $-1 $297 $202 $204 $301 reversed $126 $-1 #
coedge $-1 $202 $296 $295 $364 reversed $126 $-1 #
coedge $-1 $210 $205 $202 $299 forward $211 $-1 #
edge $-1 $302 -27.049160787023013 $365 -20.787610636311783 $298 $366 forward 7 unknown #
coedge $-1 $204 $203 $305 $367 reversed $79 $-1 #
edge $-1 $368 0 $302 10.652785598622822 $296 $369 forward 7 unknown #
vertex $-1 $206 $370 #
straight-curve $-1 -61.008569176660821 7.1229228483852225 12.303802188792258 0 1 0 I I #
coedge $-1 $295 $207 $210 $309 reversed $200 $-1 #
coedge $-1 $207 $295 $300 $367 forward $200 $-1 #
vertex $-1 $208 $371 #
straight-curve $-1 -67.270119327372058 4.1682278795929832 41.383142060300827 0 0 1 I I #
straight-curve $-1 -67.270119327372058 4.1682278795929832 3.6855175148937462 -0.5877852410284794 0 -0.80901700255871778 I I #
edge $-1 $365 -24.323463513947907 $212 -4.1682278795929832 $304 $372 forward 7 unknown #
point $-1 -67.270119327372058 4.1682278795929832 12.303802188792258 #
point $-1 -61.008569176660828 4.1682278795929832 12.303802188792258 #
edge $-1 $373 1 $373 0 $215 $-1 forward 7 unknown #
vertex $-1 $216 $374 #
ellipse-curve $-1 -58.225251454662398 14.245845696770445 3.69782004580291 -0.80901700255871778 0 0.5877852410284794 1.1755704820569588 0 1.6180340051174356 1 I I #
point $-1 -62.963773769959481 14.245845696770445 9.6126938569604423 #
plane-surface $-1 67.270119327372058 0 0 -1 0 0 0 0 1 forward_v I I I I #
coedge $-1 $224 $222 $226 $321 reversed $141 $-1 #
edge $-1 $237 -12.303802188792258 $323 12.303802188792258 $236 $375 forward 7 unknown #
vertex $-1 $321 $376 #
straight-curve $-1 -67.270119327372058 -46.513837475645325 0 0 0 -1 I I #
edge $-1 $319 -46.513837475645325 $323 46.513837475645325 $317 $377 forward 7 unknown #
straight-curve $-1 0 -46.513837475645325 -12.303802188792258 -1 0 0 I I #
vertex $-1 $229 $378 #
straight-curve $-1 0 46.513837475645325 -12.303802188792258 1 0 0 I I #
point $-1 67.270119327372058 46.513837475645325 -12.303802188792258 #
point $-1 67.270119327372058 -46.513837475645325 -12.303802188792258 #
straight-curve $-1 -67.270119327372058 0 12.303802188792258 0 -1 0 I I #
point $-1 -67.270119327372058 46.513837475645325 12.303802188792258 #
point $-1 -67.270119327372058 -46.513837475645325 12.303802188792258 #
straight-curve $-1 67.270119327372058 -46.513837475645325 0 0 0 -1 I I #
straight-curve $-1 67.270119327372058 46.513837475645325 0 0 0 -1 I I #
plane-surface $-1 67.270119327372058 0 0 -1 0 0 0 0 1 forward_v I I I I #
coedge $-1 $250 $249 $260 $344 reversed $96 $-1 #
coedge $-1 $379 $253 $250 $335 forward $247 $-1 #
edge $-1 $336 34.293049434864734 $380 46.513837475645325 $250 $381 forward 7 unknown #
vertex $-1 $335 $382 #
straight-curve $-1 -67.270119327372058 -34.293049434864734 5.1431560341196008 0 0 -1 I I #
coedge $-1 $253 $379 $255 $340 forward $247 $-1 #
straight-curve $-1 0 -34.293049434864734 12.303802188792258 -1 0 0 I I #
edge $-1 $347 -46.513837475645325 $256 -34.293049434864734 $255 $383 forward 7 unknown #
point $-1 67.270119327372058 -34.293049434864734 12.303802188792256 #
straight-curve $-1 -67.270119327372058 -20.201721727627515 8.2688219476861473 0 -1 0 I I #
coedge $-1 $260 $259 $379 $384 reversed $160 $-1 #
edge $-1 $380 -12.303802188792258 $261 -8.2688219476861473 $333 $385 forward 7 unknown #
point $-1 -67.270119327372058 -46.513837475645325 8.2688219476861473 #
point $-1 -67.270119327372058 -34.293049434864734 8.2688219476861473 #
vertex $-1 $340 $386 #
straight-curve $-1 67.270119327372058 -46.513837475645325 0 0 0 -1 I I #
coedge $-1 $351 $277 $271 $350 reversed $268 $-1 #
edge $-1 $358 -12.303802188792258 $279 -4.3527722267582192 $349 $387 forward 7 unknown #
coedge $-1 $272 $349 $274 $353 reversed $268 $-1 #
straight-curve $-1 67.270119327372058 37.560640572400999 97.252747914058091 0 0 -1 I I #
edge $-1 $275 37.560640572400999 $358 46.513837475645325 $351 $388 forward 7 unknown #
point $-1 67.270119327372058 37.560640572400999 12.303802188792258 #
straight-curve $-1 67.270119327372058 21.018619512011579 4.3527722267582192 0 1 0 I I #
point $-1 67.270119327372058 46.513837475645317 4.3527722267582192 #
point $-1 67.270119327372058 37.560640572400999 4.3527722267582192 #
vertex $-1 $353 $389 #
straight-curve $-1 0 46.513837475645325 12.303802188792258 -1 0 0 I I #
vertex $-1 $286 $390 #
point $-1 61.551422856844589 40.118696830470817 5.0852347452016415 #
vertex $-1 $290 $391 #
point $-1 61.551422856844589 43.955781217575527 5.0852347452016415 #
edge $-1 $365 29.079339871508569 $368 37.697624545407081 $295 $392 forward 7 unknown #
vertex $-1 $309 $393 #
straight-curve $-1 -88.05772996368384 24.323463513947907 12.303802188792254 -1 0 0 I I #
edge $-1 $368 -17.200540665562684 $306 2.9546949687922393 $305 $394 forward 7 unknown #
vertex $-1 $367 $395 #
straight-curve $-1 -67.270119327372058 24.323463513947907 3.6855175148937462 0.5877852410284794 0 0.80901700255871778 I I #
point $-1 -61.008569176660828 24.323463513947907 12.303802188792258 #
point $-1 -67.270119327372058 4.1682278795929832 3.6855175148937462 #
straight-curve $-1 -67.270119327372058 0 12.303802188792258 0 -1 0 I I #
vertex $-1 $312 $396 #
point $-1 -57.049680972605437 14.245845696770445 5.315854050920346 #
straight-curve $-1 -67.270119327372058 46.513837475645325 0 0 0 -1 I I #
point $-1 -67.270119327372058 -46.513837475645325 -12.303802188792258 #
straight-curve $-1 -67.270119327372058 0 -12.303802188792258 0 1 0 I I #
point $-1 -67.270119327372058 46.513837475645325 -12.303802188792258 #
coedge $-1 $338 $334 $343 $384 forward $247 $-1 #
vertex $-1 $335 $397 #
straight-curve $-1 -67.270119327372058 0 12.303802188792258 0 -1 0 I I #
point $-1 -67.270119327372058 -34.293049434864734 12.303802188792256 #
straight-curve $-1 67.270119327372058 0 12.303802188792258 0 1 0 I I #
edge $-1 $380 -67.270119327372058 $347 67.270119327372058 $343 $398 forward 7 unknown #
straight-curve $-1 -67.270119327372058 -46.513837475645325 0 0 0 -1 I I #
point $-1 67.270119327372058 -46.513837475645325 12.303802188792258 #
straight-curve $-1 67.270119327372058 46.513837475645325 0 0 0 -1 I I #
straight-curve $-1 67.270119327372058 0 12.303802188792258 0 1 0 I I #
point $-1 67.270119327372058 46.513837475645325 12.303802188792258 #
point $-1 60.138070795761017 40.118696830470817 5.1345901038856256 #
point $-1 60.138070795761017 43.955781217575527 5.1345901038856256 #
straight-curve $-1 -67.270119327372058 24.323463513947907 41.383142060300827 0 0 -1 I I #
point $-1 -67.270119327372058 24.323463513947907 12.303802188792258 #
straight-curve $-1 -67.270119327372058 7.1229228483852225 3.6855175148937369 0 -1 0 I I #
point $-1 -67.270119327372058 24.323463513947907 3.6855175148937462 #
point $-1 -56.607217449544962 14.245845696770445 2.5222495637459517 #
point $-1 -67.270119327372058 -46.513837475645325 12.303802188792258 #
straight-curve $-1 0 -46.513837475645325 12.303802188792258 1 0 0 I I #
End-of-ACIS-data 