500 0 6 0           
7 Unknown 11 ACIS 5.0 NT 24 Fri Mar 26 15:34:46 1999 
-1 9.9999999999999995e-007 1e-010 
body $-1 $6 $-1 $7 #
body $-1 $8 $-1 $9 #
body $-1 $10 $-1 $11 #
body $-1 $12 $-1 $13 #
body $-1 $14 $-1 $15 #
body $-1 $16 $-1 $17 #
lump $-1 $-1 $18 $0 #
transform $-1 1 0 0 0 1 0 0 0 1 67.356791894283887 35.655910940955877 14.953240497370324 1 rotate no_reflect no_shear #
lump $-1 $-1 $19 $1 #
transform $-1 1 0 0 0 1 0 0 0 1 67.356791894283887 35.655910940955877 14.953240497370324 1 rotate no_reflect no_shear #
lump $-1 $-1 $20 $2 #
transform $-1 1 0 0 0 1 0 0 0 1 67.356791894283887 35.655910940955877 14.953240497370324 1 rotate no_reflect no_shear #
lump $-1 $-1 $21 $3 #
transform $-1 1 0 0 0 1 0 0 0 1 67.356791894283887 35.655910940955877 14.953240497370324 1 rotate no_reflect no_shear #
lump $-1 $-1 $22 $4 #
transform $-1 1 0 0 0 1 0 0 0 1 67.356791894283887 35.655910940955877 14.953240497370324 1 rotate no_reflect no_shear #
lump $-1 $-1 $23 $5 #
transform $-1 1 0 0 0 1 0 0 0 1 67.356791894283887 35.655910940955877 14.953240497370324 1 rotate no_reflect no_shear #
shell $-1 $-1 $-1 $24 $-1 $6 #
shell $-1 $-1 $-1 $25 $-1 $8 #
shell $-1 $-1 $-1 $26 $-1 $10 #
shell $-1 $-1 $-1 $27 $-1 $12 #
shell $-1 $-1 $-1 $28 $-1 $14 #
shell $-1 $-1 $-1 $29 $-1 $16 #
face $-1 $30 $31 $18 $-1 $32 forward single #
face $-1 $33 $34 $19 $-1 $35 forward single #
face $-1 $36 $37 $20 $-1 $38 reversed single #
face $-1 $39 $40 $21 $-1 $41 forward single #
face $-1 $42 $43 $22 $-1 $44 reversed single #
face $-1 $45 $46 $23 $-1 $47 forward single #
face $-1 $48 $49 $18 $-1 $50 reversed single #
loop $-1 $-1 $51 $24 #
plane-surface $-1 0 0 14.953240497370324 0 0 1 1 0 0 forward_v I I I I #
face $-1 $52 $53 $19 $-1 $54 reversed single #
loop $-1 $-1 $55 $25 #
plane-surface $-1 -58.19394700792688 0 -8.0352390326089562 0 0 1 1 0 0 forward_v I I I I #
face $-1 $56 $57 $20 $-1 $58 reversed single #
loop $-1 $-1 $59 $26 #
plane-surface $-1 -32.662805417566645 -153.47906716900775 75.21608523976164 1 0 0 0 0.87461971476443456 -0.48480960649040278 forward_v I I I I #
face $-1 $60 $61 $21 $-1 $62 forward single #
loop $-1 $63 $64 $27 #
cone-surface $-1 -21.028455997289285 -32.949929021569361 11.704951088755493 0 0.87461971476443456 -0.48480960649040278 1 0 0 1 I I 0 1 1 forward I I I I #
face $-1 $65 $66 $22 $-1 $67 reversed single #
loop $-1 $-1 $68 $28 #
plane-surface $-1 27.719796349725925 -153.47906716900775 75.21608523976164 1 0 0 0 0.87461971476443456 -0.48480960649040278 forward_v I I I I #
face $-1 $69 $70 $23 $-1 $71 forward single #
loop $-1 $72 $73 $29 #
cone-surface $-1 39.354145770003285 -32.949929021569361 11.704951088755493 0 0.87461971476443456 -0.48480960649040278 1 0 0 1 I I 0 1 1 forward I I I I #
face $-1 $74 $75 $18 $-1 $76 reversed single #
loop $-1 $-1 $77 $30 #
plane-surface $-1 0 0 -14.953240497370324 0 0 1 1 0 0 forward_v I I I I #
coedge $-1 $78 $79 $80 $81 forward $31 $-1 #
face $-1 $82 $83 $19 $-1 $84 reversed single #
loop $-1 $-1 $85 $33 #
plane-surface $-1 -49.031102121569873 0 -11.49423976498964 -1 0 0 0 0 1 forward_v I I I I #
coedge $-1 $86 $87 $88 $89 forward $34 $-1 #
face $-1 $90 $91 $20 $-1 $92 reversed single #
loop $-1 $-1 $93 $36 #
plane-surface $-1 -21.028455997289285 -35.655910940955849 9.9056456943141882 0 -0.87461971476443456 0.48480960649040278 1 0 0 forward_v I I I I #
coedge $-1 $94 $95 $96 $97 reversed $37 $-1 #
face $-1 $-1 $98 $21 $-1 $99 forward single #
loop $-1 $100 $101 $39 #
cone-surface $-1 -21.028455997289285 -31.205600936610228 10.738054278423519 0 0.87461971476443456 -0.48480960649040278 0.5 0 0 1 I I -0.70710678118654746 0.70710678118654746 0.5 forward I I I I #
loop $-1 $-1 $102 $27 #
coedge $-1 $64 $64 $103 $104 reversed $40 $-1 #
face $-1 $105 $106 $22 $-1 $107 reversed single #
loop $-1 $-1 $108 $42 #
plane-surface $-1 39.354145770003285 -35.655910940955849 9.9056456943141882 0 -0.87461971476443456 0.48480960649040278 1 0 0 forward_v I I I I #
coedge $-1 $109 $110 $111 $112 reversed $43 $-1 #
face $-1 $-1 $113 $23 $-1 $114 forward single #
loop $-1 $115 $116 $45 #
cone-surface $-1 39.354145770003285 -31.205600936610228 10.738054278423519 0 0.87461971476443456 -0.48480960649040278 0.5 0 0 1 I I -0.70710678118654746 0.70710678118654746 0.5 forward I I I I #
loop $-1 $-1 $117 $29 #
coedge $-1 $73 $73 $118 $119 reversed $46 $-1 #
face $-1 $120 $121 $18 $-1 $122 reversed single #
loop $-1 $-1 $123 $48 #
plane-surface $-1 0 -35.655910940955877 0 0 1 0 0 0 1 forward_v I I I I #
coedge $-1 $124 $125 $126 $127 forward $49 $-1 #
coedge $-1 $128 $51 $129 $130 forward $31 $-1 #
coedge $-1 $51 $128 $131 $132 forward $31 $-1 #
coedge $-1 $133 $134 $51 $81 reversed $135 $-1 #
edge $-1 $136 -35.655910940955877 $137 35.655910940955877 $80 $138 forward 7 unknown #
face $-1 $139 $140 $19 $-1 $141 reversed single #
loop $-1 $-1 $142 $52 #
plane-surface $-1 0 0 -14.953240497370324 0 0 1 1 0 0 forward_v I I I I #
coedge $-1 $143 $88 $144 $145 reversed $53 $-1 #
coedge $-1 $146 $55 $147 $148 reversed $34 $-1 #
coedge $-1 $55 $146 $149 $150 reversed $34 $-1 #
coedge $-1 $85 $151 $55 $89 reversed $53 $-1 #
edge $-1 $152 -35.655910940955877 $153 35.655910940955877 $88 $154 forward 7 unknown #
face $-1 $155 $156 $20 $-1 $157 forward single #
loop $-1 $-1 $158 $56 #
plane-surface $-1 -9.3941065770119252 -153.47906716900775 75.21608523976164 -1 0 0 0 -0.87461971476443456 0.48480960649040278 forward_v I I I I #
coedge $-1 $159 $160 $161 $162 reversed $57 $-1 #
coedge $-1 $95 $59 $163 $164 reversed $37 $-1 #
coedge $-1 $59 $94 $159 $165 reversed $37 $-1 #
coedge $-1 $161 $166 $59 $97 forward $167 $-1 #
edge $-1 $168 22.654802122510496 $169 27.702396925566681 $96 $170 forward 7 unknown #
loop $-1 $-1 $103 $60 #
plane-surface $-1 -21.028455997289285 -35.655910940955849 9.9056456943141882 0 -0.87461971476443456 0.48480960649040278 1 0 0 forward_v I I I I #
loop $-1 $-1 $171 $39 #
coedge $-1 $101 $101 $102 $172 reversed $61 $-1 #
coedge $-1 $102 $102 $101 $172 forward $63 $-1 #
coedge $-1 $103 $103 $64 $104 forward $98 $-1 #
edge $-1 $173 1.75724935722226e-015 $173 6.2831853071796022 $103 $174 forward 7 unknown #
face $-1 $175 $176 $22 $-1 $177 reversed single #
loop $-1 $-1 $178 $65 #
plane-surface $-1 50.988495190280645 -153.47906716900775 75.21608523976164 -1 0 0 0 -0.87461971476443456 0.48480960649040278 forward_v I I I I #
coedge $-1 $179 $180 $181 $182 reversed $66 $-1 #
coedge $-1 $110 $68 $183 $184 reversed $43 $-1 #
coedge $-1 $68 $109 $179 $185 reversed $43 $-1 #
coedge $-1 $181 $186 $68 $112 forward $176 $-1 #
edge $-1 $187 22.654802122510496 $188 27.702396925566681 $111 $189 forward 7 unknown #
loop $-1 $-1 $118 $69 #
plane-surface $-1 39.354145770003285 -35.655910940955849 9.9056456943141882 0 -0.87461971476443456 0.48480960649040278 1 0 0 forward_v I I I I #
loop $-1 $-1 $190 $45 #
coedge $-1 $116 $116 $117 $191 reversed $70 $-1 #
coedge $-1 $117 $117 $116 $191 forward $72 $-1 #
coedge $-1 $118 $118 $73 $119 forward $113 $-1 #
edge $-1 $192 1.75724935722226e-015 $192 6.2831853071796022 $118 $193 forward 7 unknown #
face $-1 $194 $195 $18 $-1 $196 reversed single #
loop $-1 $-1 $197 $74 #
plane-surface $-1 -67.356791894283887 0 0 1 0 0 0 0 -1 forward_v I I I I #
coedge $-1 $198 $131 $199 $200 forward $75 $-1 #
coedge $-1 $201 $77 $198 $202 forward $49 $-1 #
coedge $-1 $77 $201 $203 $204 forward $49 $-1 #
coedge $-1 $134 $133 $77 $127 reversed $135 $-1 #
edge $-1 $205 -35.655910940955877 $206 35.655910940955877 $126 $207 forward 7 unknown #
coedge $-1 $79 $78 $208 $209 forward $31 $-1 #
coedge $-1 $210 $211 $78 $130 reversed $195 $-1 #
edge $-1 $137 -67.356791894283887 $212 67.356791894283887 $129 $213 forward 7 unknown #
coedge $-1 $123 $214 $79 $132 reversed $75 $-1 #
edge $-1 $215 -67.356791894283887 $136 67.356791894283887 $131 $216 forward 7 unknown #
coedge $-1 $126 $80 $214 $217 forward $135 $-1 #
coedge $-1 $80 $126 $210 $218 reversed $135 $-1 #
loop $-1 $-1 $133 $194 #
vertex $-1 $81 $219 #
vertex $-1 $81 $220 #
straight-curve $-1 67.356791894283887 0 14.953240497370324 0 1 0 I I #
face $-1 $221 $222 $19 $-1 $223 reversed single #
loop $-1 $-1 $144 $82 #
plane-surface $-1 0 -35.655910940955877 0 0 1 0 0 0 1 forward_v I I I I #
coedge $-1 $224 $225 $143 $226 forward $83 $-1 #
coedge $-1 $151 $85 $142 $226 reversed $53 $-1 #
coedge $-1 $149 $227 $85 $145 forward $140 $-1 #
edge $-1 $228 -9.2061206148755037 $152 -2.2881191501141362 $144 $229 forward 7 unknown #
coedge $-1 $87 $86 $230 $231 reversed $34 $-1 #
coedge $-1 $232 $233 $86 $148 forward $234 $-1 #
edge $-1 $235 -38.259818390320447 $153 -19.934128617606433 $147 $236 forward 7 unknown #
coedge $-1 $237 $144 $87 $150 forward $140 $-1 #
edge $-1 $152 19.934128617606433 $238 38.259818390320447 $149 $239 forward 7 unknown #
coedge $-1 $88 $143 $232 $240 reversed $53 $-1 #
vertex $-1 $150 $241 #
vertex $-1 $148 $242 #
straight-curve $-1 -49.031102121569873 0 -8.0352390326089562 0 1 0 I I #
face $-1 $-1 $167 $20 $-1 $243 reversed single #
loop $-1 $-1 $244 $90 #
plane-surface $-1 0 0 14.953240497370324 0 0 1 1 0 0 forward_v I I I I #
coedge $-1 $245 $246 $247 $248 reversed $91 $-1 #
coedge $-1 $249 $93 $95 $165 forward $57 $-1 #
coedge $-1 $93 $249 $245 $250 forward $57 $-1 #
coedge $-1 $247 $96 $93 $162 forward $167 $-1 #
edge $-1 $169 -22.148577418922002 $251 1.1201214216327173 $161 $252 forward 7 unknown #
coedge $-1 $253 $254 $94 $164 forward $156 $-1 #
edge $-1 $255 -43.881550027167251 $168 -41.083622643547997 $163 $256 forward 7 unknown #
edge $-1 $169 -5.8834582418425628e-014 $255 5.7711880007365579 $95 $257 forward 7 unknown #
coedge $-1 $96 $247 $253 $258 reversed $167 $-1 #
loop $-1 $-1 $247 $155 #
vertex $-1 $258 $259 #
vertex $-1 $97 $260 #
straight-curve $-1 -32.662805417566645 -35.655910940955877 37.60804261988082 0 0 -1 I I #
coedge $-1 $171 $171 $-1 $261 reversed $100 $-1 #
edge $-1 $262 0 $262 6.2831853071796004 $101 $263 forward 7 unknown #
vertex $-1 $104 $264 #
ellipse-curve $-1 -21.028455997289285 -34.256947249146243 12.429443095842249 0 -0.87461971476443456 0.48480960649040278 1 0 0 1 I I #
face $-1 $-1 $265 $22 $-1 $266 forward single #
loop $-1 $-1 $111 $105 #
plane-surface $-1 0 -35.655910940955877 0 0 1 0 0 0 1 forward_v I I I I #
coedge $-1 $267 $268 $269 $270 reversed $106 $-1 #
coedge $-1 $271 $108 $110 $185 forward $66 $-1 #
coedge $-1 $108 $271 $267 $272 forward $66 $-1 #
coedge $-1 $269 $111 $108 $182 forward $176 $-1 #
edge $-1 $188 8.0427234647242827 $273 31.311422305279002 $181 $274 forward 7 unknown #
coedge $-1 $275 $276 $109 $184 forward $265 $-1 #
edge $-1 $277 -43.881550027167251 $187 -41.083622643547997 $183 $278 forward 7 unknown #
edge $-1 $188 -5.8834582418425628e-014 $277 5.7711880007365579 $110 $279 forward 7 unknown #
coedge $-1 $111 $269 $275 $280 reversed $176 $-1 #
vertex $-1 $280 $281 #
vertex $-1 $112 $282 #
straight-curve $-1 27.719796349725925 -35.655910940955877 37.60804261988082 0 0 -1 I I #
coedge $-1 $190 $190 $-1 $283 reversed $115 $-1 #
edge $-1 $284 0 $284 6.2831853071796004 $116 $285 forward 7 unknown #
vertex $-1 $119 $286 #
ellipse-curve $-1 39.354145770003285 -34.256947249146243 12.429443095842249 0 -0.87461971476443456 0.48480960649040278 1 0 0 1 I I #
face $-1 $-1 $135 $18 $-1 $287 reversed single #
loop $-1 $-1 $210 $120 #
plane-surface $-1 0 35.655910940955877 0 0 -1 0 0 0 -1 forward_v I I I I #
coedge $-1 $288 $208 $211 $289 forward $121 $-1 #
coedge $-1 $214 $123 $124 $202 reversed $75 $-1 #
coedge $-1 $208 $288 $123 $200 reversed $121 $-1 #
edge $-1 $215 -14.953240497370324 $290 14.953240497370324 $199 $291 forward 7 unknown #
coedge $-1 $125 $124 $288 $292 forward $49 $-1 #
edge $-1 $206 -67.356791894283887 $290 67.356791894283887 $198 $293 forward 7 unknown #
coedge $-1 $211 $210 $125 $204 reversed $195 $-1 #
edge $-1 $294 -67.356791894283887 $205 67.356791894283887 $203 $295 forward 7 unknown #
vertex $-1 $127 $296 #
vertex $-1 $217 $297 #
straight-curve $-1 67.356791894283887 0 -14.953240497370324 0 -1 0 I I #
coedge $-1 $197 $199 $128 $209 reversed $121 $-1 #
edge $-1 $212 -35.655910940955877 $215 35.655910940955877 $208 $298 forward 7 unknown #
coedge $-1 $203 $129 $134 $218 forward $195 $-1 #
coedge $-1 $129 $203 $197 $289 reversed $195 $-1 #
vertex $-1 $130 $299 #
straight-curve $-1 0 35.655910940955877 14.953240497370324 -1 0 0 I I #
coedge $-1 $131 $198 $133 $217 reversed $75 $-1 #
vertex $-1 $209 $300 #
straight-curve $-1 0 -35.655910940955877 14.953240497370324 1 0 0 I I #
edge $-1 $136 -14.953240497370324 $206 14.953240497370324 $133 $301 forward 7 unknown #
edge $-1 $137 -14.953240497370324 $205 14.953240497370324 $134 $302 forward 7 unknown #
point $-1 67.356791894283887 -35.655910940955877 14.953240497370324 #
point $-1 67.356791894283887 35.655910940955877 14.953240497370324 #
face $-1 $-1 $234 $19 $-1 $303 reversed single #
loop $-1 $-1 $230 $139 #
plane-surface $-1 -67.356791894283887 0 0 1 0 0 0 0 -1 forward_v I I I I #
coedge $-1 $304 $142 $227 $305 forward $83 $-1 #
coedge $-1 $142 $304 $306 $307 forward $83 $-1 #
edge $-1 $308 -35.655910940955877 $228 35.655910940955877 $142 $309 forward 7 unknown #
coedge $-1 $144 $237 $224 $305 reversed $140 $-1 #
vertex $-1 $305 $310 #
straight-curve $-1 -49.031102121569873 -35.655910940955877 -5.74711988249482 0 0 1 I I #
coedge $-1 $311 $312 $146 $231 forward $222 $-1 #
edge $-1 $238 -35.655910940955877 $235 35.655910940955877 $230 $313 forward 7 unknown #
coedge $-1 $306 $147 $151 $240 forward $234 $-1 #
coedge $-1 $147 $306 $311 $314 reversed $234 $-1 #
loop $-1 $-1 $232 $221 #
vertex $-1 $314 $315 #
straight-curve $-1 -29.09697350396344 35.655910940955877 -8.0352390326089562 1 0 0 I I #
coedge $-1 $227 $149 $312 $316 forward $140 $-1 #
vertex $-1 $316 $317 #
straight-curve $-1 -29.09697350396344 -35.655910940955877 -8.0352390326089562 -1 0 0 I I #
edge $-1 $153 2.2881191501141362 $308 9.2061206148755037 $232 $318 forward 7 unknown #
point $-1 -49.031102121569873 -35.655910940955877 -8.0352390326089562 #
point $-1 -49.031102121569873 35.655910940955877 -8.0352390326089562 #
plane-surface $-1 0 -35.655910940955877 0 0 1 0 0 0 1 forward_v I I I I #
coedge $-1 $254 $253 $246 $319 forward $156 $-1 #
coedge $-1 $246 $158 $160 $250 reversed $91 $-1 #
coedge $-1 $158 $245 $244 $319 reversed $91 $-1 #
coedge $-1 $166 $161 $158 $248 forward $167 $-1 #
edge $-1 $251 -27.702396925566681 $320 -22.654802122510496 $247 $321 forward 7 unknown #
coedge $-1 $160 $159 $254 $322 reversed $57 $-1 #
edge $-1 $323 -5.7711880007365579 $251 5.8834582418425628e-014 $245 $324 forward 7 unknown #
vertex $-1 $162 $325 #
straight-curve $-1 -10.514227998644643 -35.655910940955877 9.905645694314142 1 0 0 I I #
coedge $-1 $244 $163 $166 $258 forward $156 $-1 #
coedge $-1 $163 $244 $249 $322 forward $156 $-1 #
vertex $-1 $164 $326 #
straight-curve $-1 -32.662805417566645 -76.739533584503874 14.953240497370324 0 -1 0 I I #
straight-curve $-1 -32.662805417566645 -35.655910940955849 9.9056456943141882 0 0.48480960649040278 0.87461971476443456 I I #
edge $-1 $168 -32.662805417566645 $320 -9.3941065770119252 $166 $327 forward 7 unknown #
point $-1 -32.662805417566645 -35.655910940955877 14.953240497370324 #
point $-1 -32.662805417566645 -35.655910940955877 9.9056456943141367 #
edge $-1 $328 1 $328 0 $171 $-1 forward 7 unknown #
vertex $-1 $172 $329 #
ellipse-curve $-1 -21.028455997289285 -31.642910793992446 10.98045908166872 0 -0.87461971476443456 0.48480960649040278 1 0 0 1 I I #
point $-1 -20.028455997289285 -34.256947249146272 12.429443095842267 #
loop $-1 $-1 $183 $175 #
plane-surface $-1 0 0 14.953240497370324 0 0 1 1 0 0 forward_v I I I I #
coedge $-1 $268 $178 $180 $272 reversed $106 $-1 #
coedge $-1 $178 $267 $330 $331 reversed $106 $-1 #
coedge $-1 $186 $181 $178 $270 forward $176 $-1 #
edge $-1 $273 -27.702396925566681 $332 -22.654802122510496 $269 $333 forward 7 unknown #
coedge $-1 $180 $179 $276 $334 reversed $66 $-1 #
edge $-1 $335 -5.7711880007365579 $273 5.8834582418425628e-014 $267 $336 forward 7 unknown #
vertex $-1 $182 $337 #
straight-curve $-1 19.677072885001643 -35.655910940955877 9.905645694314142 1 0 0 I I #
coedge $-1 $330 $183 $186 $280 forward $265 $-1 #
coedge $-1 $183 $330 $271 $334 forward $265 $-1 #
vertex $-1 $184 $338 #
straight-curve $-1 27.719796349725925 -76.739533584503874 14.953240497370324 0 -1 0 I I #
straight-curve $-1 27.719796349725925 -35.655910940955849 9.9056456943141882 0 0.48480960649040278 0.87461971476443456 I I #
edge $-1 $187 27.719796349725925 $332 50.988495190280645 $186 $339 forward 7 unknown #
point $-1 27.719796349725925 -35.655910940955877 14.953240497370324 #
point $-1 27.719796349725925 -35.655910940955877 9.9056456943141367 #
edge $-1 $340 1 $340 0 $190 $-1 forward 7 unknown #
vertex $-1 $191 $341 #
ellipse-curve $-1 39.354145770003285 -31.642910793992446 10.98045908166872 0 -0.87461971476443456 0.48480960649040278 1 0 0 1 I I #
point $-1 40.354145770003285 -34.256947249146272 12.429443095842267 #
plane-surface $-1 67.356791894283887 0 0 -1 0 0 0 0 1 forward_v I I I I #
coedge $-1 $199 $197 $201 $292 reversed $121 $-1 #
edge $-1 $212 -14.953240497370324 $294 14.953240497370324 $211 $342 forward 7 unknown #
vertex $-1 $292 $343 #
straight-curve $-1 -67.356791894283887 -35.655910940955877 0 0 0 -1 I I #
edge $-1 $290 -35.655910940955877 $294 35.655910940955877 $288 $344 forward 7 unknown #
straight-curve $-1 0 -35.655910940955877 -14.953240497370324 -1 0 0 I I #
vertex $-1 $204 $345 #
straight-curve $-1 0 35.655910940955877 -14.953240497370324 1 0 0 I I #
point $-1 67.356791894283887 35.655910940955877 -14.953240497370324 #
point $-1 67.356791894283887 -35.655910940955877 -14.953240497370324 #
straight-curve $-1 -67.356791894283887 0 14.953240497370324 0 -1 0 I I #
point $-1 -67.356791894283887 35.655910940955877 14.953240497370324 #
point $-1 -67.356791894283887 -35.655910940955877 14.953240497370324 #
straight-curve $-1 67.356791894283887 -35.655910940955877 0 0 0 -1 I I #
straight-curve $-1 67.356791894283887 35.655910940955877 0 0 0 -1 I I #
plane-surface $-1 0 35.655910940955877 0 0 -1 0 0 0 -1 forward_v I I I I #
coedge $-1 $225 $224 $346 $347 forward $83 $-1 #
edge $-1 $228 49.031102121569873 $348 67.356791894283887 $227 $349 forward 7 unknown #
coedge $-1 $233 $232 $225 $307 reversed $234 $-1 #
edge $-1 $350 -67.356791894283887 $308 -49.031102121569873 $306 $351 forward 7 unknown #
vertex $-1 $240 $352 #
straight-curve $-1 -49.031102121569873 0 -14.953240497370324 0 -1 0 I I #
point $-1 -49.031102121569873 -35.655910940955877 -14.953240497370324 #
coedge $-1 $346 $230 $233 $314 forward $222 $-1 #
coedge $-1 $230 $346 $237 $316 reversed $222 $-1 #
straight-curve $-1 -67.356791894283887 0 -8.0352390326089562 0 1 0 I I #
edge $-1 $235 8.0352390326089562 $350 14.953240497370324 $233 $353 forward 7 unknown #
point $-1 -67.356791894283887 35.655910940955877 -8.0352390326089562 #
edge $-1 $238 8.0352390326089562 $348 14.953240497370324 $312 $354 forward 7 unknown #
point $-1 -67.356791894283887 -35.655910940955877 -8.0352390326089562 #
straight-curve $-1 -49.031102121569873 35.655910940955877 -5.74711988249482 0 0 -1 I I #
edge $-1 $320 41.083622643547997 $323 43.881550027167251 $244 $355 forward 7 unknown #
vertex $-1 $248 $356 #
straight-curve $-1 -9.3941065770119252 -35.655910940955877 37.60804261988082 0 0 1 I I #
edge $-1 $323 -1.1201214216327173 $255 22.148577418922002 $254 $357 forward 7 unknown #
vertex $-1 $322 $358 #
straight-curve $-1 -9.3941065770119252 -35.655910940955849 9.9056456943141882 0 -0.48480960649040278 -0.87461971476443456 I I #
point $-1 -9.3941065770119252 -35.655910940955877 9.9056456943141367 #
point $-1 -32.662805417566645 -32.857983557336624 14.953240497370324 #
straight-curve $-1 0 -35.655910940955877 14.953240497370324 1 0 0 I I #
vertex $-1 $261 $359 #
point $-1 -20.028455997289285 -31.642910793992446 10.98045908166872 #
coedge $-1 $276 $275 $268 $331 forward $265 $-1 #
edge $-1 $332 41.083622643547997 $335 43.881550027167251 $330 $360 forward 7 unknown #
vertex $-1 $331 $361 #
straight-curve $-1 50.988495190280645 -35.655910940955877 37.60804261988082 0 0 1 I I #
edge $-1 $335 -31.311422305279002 $277 -8.0427234647242827 $276 $362 forward 7 unknown #
vertex $-1 $334 $363 #
straight-curve $-1 50.988495190280645 -35.655910940955849 9.9056456943141882 0 -0.48480960649040278 -0.87461971476443456 I I #
point $-1 50.988495190280645 -35.655910940955877 9.9056456943141367 #
point $-1 27.719796349725925 -32.857983557336624 14.953240497370324 #
straight-curve $-1 0 -35.655910940955877 14.953240497370324 1 0 0 I I #
vertex $-1 $283 $364 #
point $-1 40.354145770003285 -31.642910793992446 10.98045908166872 #
straight-curve $-1 -67.356791894283887 35.655910940955877 0 0 0 -1 I I #
point $-1 -67.356791894283887 -35.655910940955877 -14.953240497370324 #
straight-curve $-1 -67.356791894283887 0 -14.953240497370324 0 1 0 I I #
point $-1 -67.356791894283887 35.655910940955877 -14.953240497370324 #
coedge $-1 $312 $311 $304 $347 reversed $222 $-1 #
edge $-1 $348 -35.655910940955877 $350 35.655910940955877 $346 $365 forward 7 unknown #
vertex $-1 $347 $366 #
straight-curve $-1 0 -35.655910940955877 -14.953240497370324 -1 0 0 I I #
vertex $-1 $307 $367 #
straight-curve $-1 0 35.655910940955877 -14.953240497370324 1 0 0 I I #
point $-1 -49.031102121569873 35.655910940955877 -14.953240497370324 #
straight-curve $-1 -67.356791894283887 35.655910940955877 0 0 0 -1 I I #
straight-curve $-1 -67.356791894283887 -35.655910940955877 0 0 0 -1 I I #
straight-curve $-1 -9.3941065770119252 -76.739533584503874 14.953240497370324 0 1 0 I I #
point $-1 -9.3941065770119252 -35.655910940955877 14.953240497370324 #
straight-curve $-1 -10.514227998644643 -32.857983557336624 14.953240497370324 -1 0 0 I I #
point $-1 -9.3941065770119252 -32.857983557336624 14.953240497370324 #
point $-1 -21.028455997289285 -30.76829107922801 10.495649475178318 #
straight-curve $-1 50.988495190280645 -76.739533584503874 14.953240497370324 0 1 0 I I #
point $-1 50.988495190280645 -35.655910940955877 14.953240497370324 #
straight-curve $-1 19.677072885001643 -32.857983557336624 14.953240497370324 -1 0 0 I I #
point $-1 50.988495190280645 -32.857983557336624 14.953240497370324 #
point $-1 39.354145770003285 -30.76829107922801 10.495649475178318 #
straight-curve $-1 -67.356791894283887 0 -14.953240497370324 0 1 0 I I #
point $-1 -67.356791894283887 -35.655910940955877 -14.953240497370324 #
point $-1 -67.356791894283887 35.655910940955877 -14.953240497370324 #
End-of-ACIS-data 