500 0 8 0           
7 Unknown 11 ACIS 5.0 NT 24 Fri Mar 26 00:22:17 1999 
-1 9.9999999999999995e-007 1e-010 
body $-1 $8 $-1 $9 #
body $-1 $10 $-1 $11 #
body $-1 $12 $-1 $13 #
body $-1 $14 $-1 $15 #
body $-1 $16 $-1 $17 #
body $-1 $18 $-1 $19 #
body $-1 $20 $-1 $21 #
body $-1 $22 $-1 $23 #
lump $-1 $-1 $24 $0 #
transform $-1 1 0 0 0 1 0 0 0 1 45.040437025055695 18.506482860403377 9.1146418973197338 1 rotate no_reflect no_shear #
lump $-1 $-1 $25 $1 #
transform $-1 1 0 0 0 1 0 0 0 1 45.040437025055695 18.506482860403377 9.1146418973197338 1 rotate no_reflect no_shear #
lump $-1 $-1 $26 $2 #
transform $-1 1 0 0 0 1 0 0 0 1 45.040437025055695 18.506482860403377 9.1146418973197338 1 rotate no_reflect no_shear #
lump $-1 $-1 $27 $3 #
transform $-1 1 0 0 0 1 0 0 0 1 45.040437025055695 18.506482860403377 9.1146418973197338 1 rotate no_reflect no_shear #
lump $-1 $-1 $28 $4 #
transform $-1 1 0 0 0 1 0 0 0 1 45.040437025055695 18.506482860403377 9.1146418973197338 1 rotate no_reflect no_shear #
lump $-1 $-1 $29 $5 #
transform $-1 1 0 0 0 1 0 0 0 1 45.040437025055695 18.506482860403377 9.1146418973197338 1 rotate no_reflect no_shear #
lump $-1 $-1 $30 $6 #
transform $-1 1 0 0 0 1 0 0 0 1 45.040437025055695 18.506482860403377 9.1146418973197338 1 rotate no_reflect no_shear #
lump $-1 $-1 $31 $7 #
transform $-1 1 0 0 0 1 0 0 0 1 45.040437025055695 18.506482860403377 9.1146418973197338 1 rotate no_reflect no_shear #
shell $-1 $-1 $-1 $32 $-1 $8 #
shell $-1 $-1 $-1 $33 $-1 $10 #
shell $-1 $-1 $-1 $34 $-1 $12 #
shell $-1 $-1 $-1 $35 $-1 $14 #
shell $-1 $-1 $-1 $36 $-1 $16 #
shell $-1 $-1 $-1 $37 $-1 $18 #
shell $-1 $-1 $-1 $38 $-1 $20 #
shell $-1 $-1 $-1 $39 $-1 $22 #
face $-1 $40 $41 $24 $-1 $42 forward single #
face $-1 $43 $44 $25 $-1 $45 forward single #
face $-1 $46 $47 $26 $-1 $48 reversed single #
face $-1 $49 $50 $27 $-1 $51 forward single #
face $-1 $52 $53 $28 $-1 $54 forward single #
face $-1 $55 $56 $29 $-1 $57 reversed single #
face $-1 $58 $59 $30 $-1 $60 forward single #
face $-1 $61 $62 $31 $-1 $63 forward single #
face $-1 $64 $65 $24 $-1 $66 reversed single #
loop $-1 $-1 $67 $32 #
plane-surface $-1 0 0 9.1146418973197338 0 0 1 1 0 0 forward_v I I I I #
face $-1 $68 $69 $25 $-1 $70 reversed single #
loop $-1 $-1 $71 $33 #
plane-surface $-1 0 -18.506482860403377 0 0 1 0 0 0 1 forward_v I I I I #
face $-1 $72 $73 $26 $-1 $74 reversed single #
loop $-1 $-1 $75 $34 #
plane-surface $-1 -109.8391957207628 11.324855991309665 65.436906417652509 0 1 0 -0.71933980857756763 0 0.69465836192734942 forward_v I I I I #
face $-1 $76 $77 $27 $-1 $78 forward single #
loop $-1 $79 $80 $35 #
cone-surface $-1 -40.968156835509625 13.376749382479296 4.9712135365100227 0.71933980857756763 0 -0.69465836192734942 0.69465836192734942 0 0.71933980857756763 1 I I 0 1 1 forward I I I I #
face $-1 $81 $82 $28 $-1 $83 forward single #
loop $-1 $84 $85 $36 #
cone-surface $-1 -40.968156835509625 16.454589469233742 4.9712135365100227 0.71933980857756763 0 -0.69465836192734942 0.69465836192734942 0 0.71933980857756763 1 I I 0 1 1 forward I I I I #
face $-1 $86 $87 $29 $-1 $88 reversed single #
loop $-1 $-1 $89 $37 #
plane-surface $-1 71.527056341055115 16.502497182532988 130.52526701426379 0 -1 0 -0.83867057594974714 0 -0.54463902268945019 forward_v I I I I #
face $-1 $90 $91 $30 $-1 $92 forward single #
loop $-1 $93 $94 $38 #
cone-surface $-1 43.582337760164314 11.993635421007415 7.2427660807831948 -0.83867057594974714 0 -0.54463902268945019 0.2723195113447251 0 -0.41933528797487357 1 I I 0 1 0.5 forward I I I I #
face $-1 $95 $96 $31 $-1 $97 forward single #
loop $-1 $98 $99 $39 #
cone-surface $-1 43.582337760164314 14.698952477922763 7.2427660807831948 -0.83867057594974714 0 -0.54463902268945019 0.2723195113447251 0 -0.41933528797487357 1 I I 0 1 0.5 forward I I I I #
face $-1 $100 $101 $24 $-1 $102 reversed single #
loop $-1 $-1 $103 $40 #
plane-surface $-1 0 0 -9.1146418973197338 0 0 1 1 0 0 forward_v I I I I #
coedge $-1 $104 $105 $106 $107 forward $41 $-1 #
face $-1 $108 $109 $25 $-1 $110 reversed single #
loop $-1 $-1 $111 $43 #
plane-surface $-1 0 0 -9.1146418973197338 0 0 1 1 0 0 forward_v I I I I #
coedge $-1 $112 $113 $114 $115 forward $44 $-1 #
face $-1 $116 $117 $26 $-1 $118 reversed single #
loop $-1 $-1 $119 $46 #
plane-surface $-1 -45.040437025055695 14.915669425856517 2.8614740090182522 -0.71933980857756763 0 0.69465836192734942 0.69465836192734942 0 0.71933980857756763 forward_v I I I I #
coedge $-1 $120 $121 $122 $123 reversed $47 $-1 #
face $-1 $-1 $124 $27 $-1 $125 forward single #
loop $-1 $126 $127 $49 #
cone-surface $-1 -39.555513688369231 13.376749382479296 3.6070399388873824 0.71933980857756763 0 -0.69465836192734942 0.34732918096367471 0 0.35966990428878381 1 I I -0.70710678118654746 0.70710678118654746 0.5 forward I I I I #
loop $-1 $-1 $128 $35 #
coedge $-1 $80 $80 $129 $130 reversed $50 $-1 #
face $-1 $-1 $131 $28 $-1 $132 forward single #
loop $-1 $133 $134 $52 #
cone-surface $-1 -39.555513688369231 16.454589469233742 3.6070399388873824 0.71933980857756763 0 -0.69465836192734942 0.34732918096367471 0 0.35966990428878381 1 I I -0.70710678118654746 0.70710678118654746 0.5 forward I I I I #
loop $-1 $-1 $135 $36 #
coedge $-1 $85 $85 $136 $137 reversed $53 $-1 #
face $-1 $138 $139 $29 $-1 $140 reversed single #
loop $-1 $-1 $141 $55 #
plane-surface $-1 -4.0211221806084296 13.346293949465085 81.463707808599665 0.83867057594974714 0 0.54463902268945019 0.54463902268945019 0 -0.83867057594974714 forward_v I I I I #
coedge $-1 $142 $143 $144 $145 reversed $56 $-1 #
face $-1 $-1 $146 $30 $-1 $147 forward single #
loop $-1 $148 $149 $58 #
cone-surface $-1 42.953334828202003 11.993635421007415 6.8342868137661075 -0.83867057594974714 0 -0.54463902268945019 0.13615975567236255 0 -0.20966764398743679 1 I I -0.70710678118654746 0.70710678118654746 0.25 forward I I I I #
loop $-1 $-1 $150 $38 #
coedge $-1 $94 $94 $151 $152 reversed $59 $-1 #
face $-1 $-1 $153 $31 $-1 $154 forward single #
loop $-1 $155 $156 $61 #
cone-surface $-1 42.953334828202003 14.698952477922763 6.8342868137661075 -0.83867057594974714 0 -0.54463902268945019 0.13615975567236255 0 -0.20966764398743679 1 I I -0.70710678118654746 0.70710678118654746 0.25 forward I I I I #
loop $-1 $-1 $157 $39 #
coedge $-1 $99 $99 $158 $159 reversed $62 $-1 #
face $-1 $160 $161 $24 $-1 $162 reversed single #
loop $-1 $-1 $163 $64 #
plane-surface $-1 0 -18.506482860403377 0 0 1 0 0 0 1 forward_v I I I I #
coedge $-1 $164 $165 $166 $167 forward $65 $-1 #
coedge $-1 $168 $67 $169 $170 forward $41 $-1 #
coedge $-1 $67 $168 $171 $172 forward $41 $-1 #
coedge $-1 $173 $174 $67 $107 reversed $175 $-1 #
edge $-1 $176 -18.506482860403377 $177 18.506482860403377 $106 $178 forward 7 unknown #
face $-1 $179 $180 $25 $-1 $181 forward single #
loop $-1 $-1 $182 $68 #
plane-surface $-1 45.040437025055695 0 0 -1 0 0 0 0 1 forward_v I I I I #
coedge $-1 $183 $184 $185 $186 forward $69 $-1 #
coedge $-1 $185 $71 $182 $187 reversed $44 $-1 #
coedge $-1 $71 $185 $188 $189 reversed $44 $-1 #
coedge $-1 $190 $191 $71 $115 reversed $180 $-1 #
edge $-1 $192 -45.040437025055695 $193 45.040437025055695 $114 $194 forward 7 unknown #
face $-1 $195 $196 $26 $-1 $197 reversed single #
loop $-1 $-1 $198 $72 #
plane-surface $-1 0 18.506482860403377 0 0 -1 0 0 0 -1 forward_v I I I I #
coedge $-1 $199 $200 $201 $202 reversed $73 $-1 #
coedge $-1 $121 $75 $203 $204 reversed $47 $-1 #
coedge $-1 $75 $120 $199 $205 reversed $47 $-1 #
coedge $-1 $201 $206 $75 $123 forward $207 $-1 #
edge $-1 $208 9.8791608353257061 $209 15.917774728714605 $122 $210 forward 7 unknown #
loop $-1 $-1 $129 $76 #
plane-surface $-1 -45.040437025055695 14.915669425856517 2.8614740090182522 -0.71933980857756763 0 0.69465836192734942 0.69465836192734942 0 0.71933980857756763 forward_v I I I I #
loop $-1 $-1 $211 $49 #
coedge $-1 $127 $127 $128 $212 reversed $77 $-1 #
coedge $-1 $128 $128 $127 $212 forward $79 $-1 #
coedge $-1 $129 $129 $80 $130 forward $124 $-1 #
edge $-1 $213 0 $213 6.2831853071796004 $129 $214 forward 7 unknown #
loop $-1 $-1 $136 $81 #
plane-surface $-1 -45.040437025055695 14.915669425856517 2.8614740090182522 -0.71933980857756763 0 0.69465836192734942 0.69465836192734942 0 0.71933980857756763 forward_v I I I I #
loop $-1 $-1 $215 $52 #
coedge $-1 $134 $134 $135 $216 reversed $82 $-1 #
coedge $-1 $135 $135 $134 $216 forward $84 $-1 #
coedge $-1 $136 $136 $85 $137 forward $131 $-1 #
edge $-1 $217 0 $217 6.2831853071796004 $136 $218 forward 7 unknown #
face $-1 $219 $220 $29 $-1 $221 forward single #
loop $-1 $-1 $222 $86 #
plane-surface $-1 71.527056341055115 10.190090716397183 130.52526701426379 0 1 0 0.83867057594974714 0 0.54463902268945019 forward_v I I I I #
coedge $-1 $223 $224 $225 $226 reversed $87 $-1 #
coedge $-1 $143 $89 $227 $228 reversed $56 $-1 #
coedge $-1 $89 $142 $223 $229 reversed $56 $-1 #
coedge $-1 $225 $230 $89 $145 forward $220 $-1 #
edge $-1 $231 -9.2769088545281377 $232 -7.1993809006951324 $144 $233 forward 7 unknown #
loop $-1 $-1 $151 $90 #
plane-surface $-1 -4.0211221806084296 13.346293949465085 81.463707808599665 0.83867057594974714 0 0.54463902268945019 0.54463902268945019 0 -0.83867057594974714 forward_v I I I I #
loop $-1 $-1 $234 $58 #
coedge $-1 $149 $149 $150 $235 reversed $91 $-1 #
coedge $-1 $150 $150 $149 $235 forward $93 $-1 #
coedge $-1 $151 $151 $94 $152 forward $146 $-1 #
edge $-1 $236 0 $236 6.2831853071796004 $151 $237 forward 7 unknown #
loop $-1 $-1 $158 $95 #
plane-surface $-1 -4.0211221806084296 13.346293949465085 81.463707808599665 0.83867057594974714 0 0.54463902268945019 0.54463902268945019 0 -0.83867057594974714 forward_v I I I I #
loop $-1 $-1 $238 $61 #
coedge $-1 $156 $156 $157 $239 reversed $96 $-1 #
coedge $-1 $157 $157 $156 $239 forward $98 $-1 #
coedge $-1 $158 $158 $99 $159 forward $153 $-1 #
edge $-1 $240 0 $240 6.2831853071796004 $158 $241 forward 7 unknown #
face $-1 $242 $243 $24 $-1 $244 reversed single #
loop $-1 $-1 $245 $100 #
plane-surface $-1 -45.040437025055695 0 0 1 0 0 0 0 -1 forward_v I I I I #
coedge $-1 $171 $246 $173 $247 reversed $101 $-1 #
coedge $-1 $248 $103 $246 $249 forward $65 $-1 #
coedge $-1 $103 $248 $250 $251 forward $65 $-1 #
coedge $-1 $174 $173 $103 $167 reversed $175 $-1 #
edge $-1 $252 -18.506482860403377 $253 18.506482860403377 $166 $254 forward 7 unknown #
coedge $-1 $105 $104 $255 $256 forward $41 $-1 #
coedge $-1 $257 $258 $104 $170 reversed $243 $-1 #
edge $-1 $177 -45.040437025055695 $259 45.040437025055695 $169 $260 forward 7 unknown #
coedge $-1 $261 $163 $105 $172 reversed $101 $-1 #
edge $-1 $262 -45.040437025055695 $176 45.040437025055695 $171 $263 forward 7 unknown #
coedge $-1 $166 $106 $163 $247 forward $175 $-1 #
coedge $-1 $106 $166 $257 $264 reversed $175 $-1 #
loop $-1 $-1 $173 $242 #
vertex $-1 $107 $265 #
vertex $-1 $107 $266 #
straight-curve $-1 45.040437025055695 0 9.1146418973197338 0 1 0 I I #
face $-1 $267 $268 $25 $-1 $269 reversed single #
loop $-1 $-1 $191 $108 #
plane-surface $-1 0 -23.694343314053217 -5.7434455409130809 0 0 1 1 0 0 forward_v I I I I #
coedge $-1 $270 $271 $112 $187 forward $109 $-1 #
coedge $-1 $272 $111 $271 $273 forward $69 $-1 #
coedge $-1 $111 $272 $274 $275 forward $69 $-1 #
coedge $-1 $113 $112 $111 $186 reversed $44 $-1 #
edge $-1 $276 -45.040437025055695 $277 45.040437025055695 $111 $278 forward 7 unknown #
edge $-1 $277 -9.1146418973197338 $193 -5.7434455409130809 $182 $279 forward 7 unknown #
coedge $-1 $274 $280 $113 $189 forward $281 $-1 #
edge $-1 $192 5.7434455409130809 $276 9.1146418973197338 $188 $282 forward 7 unknown #
coedge $-1 $283 $114 $280 $284 forward $180 $-1 #
coedge $-1 $114 $283 $270 $285 forward $180 $-1 #
vertex $-1 $189 $286 #
vertex $-1 $285 $287 #
straight-curve $-1 0 -18.506482860403377 -5.7434455409130809 1 0 0 I I #
face $-1 $-1 $207 $26 $-1 $288 forward single #
loop $-1 $-1 $289 $116 #
plane-surface $-1 -45.040437025055695 0 0 1 0 0 0 0 -1 forward_v I I I I #
coedge $-1 $290 $291 $200 $292 forward $117 $-1 #
coedge $-1 $293 $119 $121 $205 forward $73 $-1 #
coedge $-1 $119 $293 $198 $292 reversed $73 $-1 #
coedge $-1 $294 $122 $119 $202 forward $207 $-1 #
edge $-1 $209 3.8670212783814062 $295 11.048648147475111 $201 $296 forward 7 unknown #
coedge $-1 $297 $289 $120 $204 forward $196 $-1 #
edge $-1 $298 -29.856979199808002 $208 -23.603811311506519 $203 $299 forward 7 unknown #
edge $-1 $209 -8.6929262272674475 $298 0 $121 $300 forward 7 unknown #
coedge $-1 $122 $294 $297 $301 forward $207 $-1 #
loop $-1 $-1 $201 $195 #
vertex $-1 $204 $302 #
vertex $-1 $123 $303 #
straight-curve $-1 -54.919597860381401 11.324855991309665 9.1146418973197356 1 0 0 I I #
coedge $-1 $211 $211 $-1 $304 reversed $126 $-1 #
edge $-1 $305 0 $305 6.2831853071796004 $127 $306 forward 7 unknown #
vertex $-1 $130 $307 #
ellipse-curve $-1 -42.021130078361246 13.376749382479296 5.9880579531689966 -0.71933980857756763 0 0.69465836192734942 0.69465836192734942 0 0.71933980857756763 1 I I #
coedge $-1 $215 $215 $-1 $308 reversed $133 $-1 #
edge $-1 $309 0 $309 6.2831853071796004 $134 $310 forward 7 unknown #
vertex $-1 $137 $311 #
ellipse-curve $-1 -42.021130078361246 16.454589469233742 5.9880579531689966 -0.71933980857756763 0 0.69465836192734942 0.69465836192734942 0 0.71933980857756763 1 I I #
face $-1 $-1 $312 $29 $-1 $313 reversed single #
loop $-1 $-1 $144 $138 #
plane-surface $-1 0 0 9.1146418973197338 0 0 1 1 0 0 forward_v I I I I #
coedge $-1 $314 $315 $316 $317 reversed $139 $-1 #
coedge $-1 $318 $141 $143 $229 forward $87 $-1 #
coedge $-1 $141 $318 $314 $319 forward $87 $-1 #
coedge $-1 $316 $144 $141 $226 forward $220 $-1 #
edge $-1 $232 -9.8293502078004451 $320 -3.5169437416646403 $225 $321 forward 7 unknown #
coedge $-1 $322 $323 $142 $228 forward $312 $-1 #
edge $-1 $324 -59.347104220195774 $231 -56.147991609812159 $227 $325 forward 7 unknown #
edge $-1 $232 86.266369640247248 $324 90.08087405011139 $143 $326 forward 7 unknown #
coedge $-1 $144 $316 $322 $327 forward $220 $-1 #
vertex $-1 $228 $328 #
vertex $-1 $145 $329 #
straight-curve $-1 35.763528170527557 16.502497182532988 9.1146418973197356 -1 0 0 I I #
coedge $-1 $234 $234 $-1 $330 reversed $148 $-1 #
edge $-1 $331 0 $331 6.2831853071796004 $149 $332 forward 7 unknown #
vertex $-1 $152 $333 #
ellipse-curve $-1 44.001673048139189 11.993635421007415 7.51508559212792 0.83867057594974714 0 0.54463902268945019 0.2723195113447251 0 -0.41933528797487357 1 I I #
coedge $-1 $238 $238 $-1 $334 reversed $155 $-1 #
edge $-1 $335 0 $335 6.2831853071796004 $156 $336 forward 7 unknown #
vertex $-1 $159 $337 #
ellipse-curve $-1 44.001673048139189 14.698952477922763 7.51508559212792 0.83867057594974714 0 0.54463902268945019 0.2723195113447251 0 -0.41933528797487357 1 I I #
face $-1 $-1 $175 $24 $-1 $338 reversed single #
loop $-1 $-1 $257 $160 #
plane-surface $-1 0 18.506482860403377 0 0 -1 0 0 0 -1 forward_v I I I I #
coedge $-1 $339 $255 $258 $340 forward $161 $-1 #
coedge $-1 $163 $261 $164 $249 reversed $101 $-1 #
edge $-1 $176 -9.1146418973197338 $253 9.1146418973197338 $173 $341 forward 7 unknown #
coedge $-1 $165 $164 $339 $342 forward $65 $-1 #
edge $-1 $253 -45.040437025055695 $343 45.040437025055695 $246 $344 forward 7 unknown #
coedge $-1 $258 $257 $165 $251 reversed $243 $-1 #
edge $-1 $345 -45.040437025055695 $252 45.040437025055695 $250 $346 forward 7 unknown #
vertex $-1 $167 $347 #
vertex $-1 $247 $348 #
straight-curve $-1 45.040437025055695 0 -9.1146418973197338 0 -1 0 I I #
coedge $-1 $245 $349 $168 $256 reversed $161 $-1 #
edge $-1 $259 -18.506482860403377 $262 18.506482860403377 $255 $350 forward 7 unknown #
coedge $-1 $250 $169 $174 $264 forward $243 $-1 #
coedge $-1 $169 $250 $245 $340 reversed $243 $-1 #
vertex $-1 $170 $351 #
straight-curve $-1 0 18.506482860403377 9.1146418973197338 -1 0 0 I I #
coedge $-1 $246 $171 $349 $352 forward $101 $-1 #
vertex $-1 $256 $353 #
straight-curve $-1 0 -18.506482860403377 9.1146418973197338 1 0 0 I I #
edge $-1 $177 -9.1146418973197338 $252 9.1146418973197338 $174 $354 forward 7 unknown #
point $-1 45.040437025055695 -18.506482860403377 9.1146418973197338 #
point $-1 45.040437025055695 18.506482860403377 9.1146418973197338 #
face $-1 $-1 $281 $25 $-1 $355 reversed single #
loop $-1 $-1 $356 $179 #
plane-surface $-1 0 -28.882203767703057 -7.4290437191164074 0 1 0 0 0 1 forward_v I I I I #
coedge $-1 $357 $182 $191 $285 reversed $109 $-1 #
coedge $-1 $182 $357 $183 $273 reversed $109 $-1 #
coedge $-1 $184 $183 $358 $359 forward $69 $-1 #
edge $-1 $277 18.506482860403377 $360 28.882203767703057 $271 $361 forward 7 unknown #
coedge $-1 $362 $188 $184 $275 reversed $281 $-1 #
edge $-1 $363 -28.882203767703057 $276 -18.506482860403377 $274 $364 forward 7 unknown #
vertex $-1 $189 $365 #
vertex $-1 $273 $366 #
straight-curve $-1 0 -18.506482860403377 -9.1146418973197338 1 0 0 I I #
straight-curve $-1 45.040437025055695 -18.506482860403377 0 0 0 1 I I #
coedge $-1 $188 $362 $190 $284 reversed $281 $-1 #
loop $-1 $-1 $188 $267 #
straight-curve $-1 -45.040437025055695 -18.506482860403377 0 0 0 -1 I I #
coedge $-1 $191 $190 $367 $368 forward $180 $-1 #
edge $-1 $192 -5.1878604536498401 $369 5.1878604536498401 $280 $370 forward 7 unknown #
edge $-1 $371 -5.1878604536498401 $193 5.1878604536498401 $270 $372 forward 7 unknown #
point $-1 -45.040437025055695 -18.506482860403377 -5.7434455409130809 #
point $-1 45.040437025055695 -18.506482860403377 -5.7434455409130809 #
plane-surface $-1 0 0 9.1146418973197338 0 0 1 1 0 0 forward_v I I I I #
coedge $-1 $203 $373 $293 $374 forward $196 $-1 #
coedge $-1 $291 $198 $373 $375 reversed $117 $-1 #
coedge $-1 $198 $290 $294 $376 reversed $117 $-1 #
edge $-1 $295 5.9217457919426781 $377 14.614672019210126 $198 $378 forward 7 unknown #
coedge $-1 $200 $199 $289 $374 reversed $73 $-1 #
coedge $-1 $206 $201 $291 $376 forward $207 $-1 #
vertex $-1 $376 $379 #
straight-curve $-1 -39.001823131666796 7.4578347129282587 9.1146418973197356 0 1 0 I I #
coedge $-1 $373 $203 $206 $301 reversed $196 $-1 #
vertex $-1 $204 $380 #
straight-curve $-1 -45.040437025055695 11.324855991309665 32.718453208826254 0 0 1 I I #
straight-curve $-1 -45.040437025055695 11.324855991309665 2.8614740090182522 -0.69465836192734942 0 -0.71933980857756763 I I #
edge $-1 $381 -18.506482860403377 $208 -11.324855991309665 $297 $382 forward 7 unknown #
point $-1 -45.040437025055695 11.324855991309665 9.1146418973197338 #
point $-1 -39.001823131666796 11.324855991309665 9.1146418973197338 #
edge $-1 $383 1 $383 0 $211 $-1 forward 7 unknown #
vertex $-1 $212 $384 #
ellipse-curve $-1 -39.915183592658018 13.376749382479296 3.9543691198510569 -0.71933980857756763 0 0.69465836192734942 0.69465836192734942 0 0.71933980857756763 1 I I #
point $-1 -41.326471716433886 13.376749382479296 6.7073977617465577 #
edge $-1 $385 1 $385 0 $215 $-1 forward 7 unknown #
vertex $-1 $216 $386 #
ellipse-curve $-1 -39.915183592658018 16.454589469233742 3.9543691198510569 -0.71933980857756763 0 0.69465836192734942 0.69465836192734942 0 0.71933980857756763 1 I I #
point $-1 -41.326471716433886 16.454589469233742 6.7073977617465577 #
loop $-1 $-1 $227 $219 #
plane-surface $-1 45.040437025055695 0 0 -1 0 0 0 0 1 forward_v I I I I #
coedge $-1 $315 $222 $224 $319 reversed $139 $-1 #
coedge $-1 $222 $314 $387 $388 reversed $139 $-1 #
coedge $-1 $230 $225 $222 $317 forward $220 $-1 #
edge $-1 $320 7.1993809006951324 $389 9.2769088545281377 $316 $390 forward 7 unknown #
coedge $-1 $224 $223 $323 $391 reversed $87 $-1 #
edge $-1 $392 -90.08087405011139 $320 -86.266369640247248 $314 $393 forward 7 unknown #
vertex $-1 $226 $394 #
straight-curve $-1 42.962909071222683 6.6731469747325427 9.1146418973197427 0 -1 0 I I #
coedge $-1 $387 $227 $230 $327 reversed $312 $-1 #
coedge $-1 $227 $387 $318 $391 forward $312 $-1 #
vertex $-1 $228 $395 #
straight-curve $-1 45.040437025055695 16.502497182532988 65.262633507131895 0 0 1 I I #
straight-curve $-1 -4.0211221806084296 16.502497182532988 81.463707808599665 0.54463902268945019 0 -0.83867057594974714 I I #
edge $-1 $389 10.190090716397183 $231 16.502497182532988 $322 $396 forward 7 unknown #
point $-1 45.040437025055695 16.502497182532988 9.1146418973197338 #
point $-1 42.96290907122269 16.502497182532988 9.1146418973197285 #
edge $-1 $397 1 $397 0 $234 $-1 forward 7 unknown #
vertex $-1 $235 $398 #
ellipse-curve $-1 43.16300247218944 11.993635421007415 6.9704465694384696 0.83867057594974714 0 0.54463902268945019 0.2723195113447251 0 -0.41933528797487357 1 I I #
point $-1 44.273992559483915 11.993635421007415 7.0957503041530465 #
edge $-1 $399 1 $399 0 $238 $-1 forward 7 unknown #
vertex $-1 $239 $400 #
ellipse-curve $-1 43.16300247218944 14.698952477922763 6.9704465694384696 0.83867057594974714 0 0.54463902268945019 0.2723195113447251 0 -0.41933528797487357 1 I I #
point $-1 44.273992559483915 14.698952477922763 7.0957503041530465 #
plane-surface $-1 45.040437025055695 0 0 -1 0 0 0 0 1 forward_v I I I I #
coedge $-1 $349 $245 $248 $342 reversed $161 $-1 #
edge $-1 $259 -9.1146418973197338 $345 9.1146418973197338 $258 $401 forward 7 unknown #
straight-curve $-1 45.040437025055695 -18.506482860403377 0 0 0 -1 I I #
edge $-1 $343 -18.506482860403377 $345 18.506482860403377 $339 $402 forward 7 unknown #
vertex $-1 $342 $403 #
straight-curve $-1 0 -18.506482860403377 -9.1146418973197338 -1 0 0 I I #
vertex $-1 $251 $404 #
straight-curve $-1 0 18.506482860403377 -9.1146418973197338 1 0 0 I I #
point $-1 45.040437025055695 18.506482860403377 -9.1146418973197338 #
point $-1 45.040437025055695 -18.506482860403377 -9.1146418973197338 #
coedge $-1 $255 $339 $261 $352 reversed $161 $-1 #
straight-curve $-1 -45.040437025055695 0 9.1146418973197338 0 -1 0 I I #
point $-1 -45.040437025055695 18.506482860403377 9.1146418973197338 #
edge $-1 $262 -9.1146418973197338 $343 9.1146418973197338 $349 $405 forward 7 unknown #
point $-1 -45.040437025055695 -18.506482860403377 9.1146418973197338 #
straight-curve $-1 45.040437025055695 18.506482860403377 0 0 0 -1 I I #
plane-surface $-1 -45.040437025055695 0 0 1 0 0 0 0 -1 forward_v I I I I #
coedge $-1 $358 $367 $362 $406 forward $268 $-1 #
coedge $-1 $271 $270 $407 $408 forward $109 $-1 #
coedge $-1 $407 $356 $272 $359 reversed $268 $-1 #
edge $-1 $360 -45.040437025055695 $363 45.040437025055695 $358 $409 forward 7 unknown #
vertex $-1 $408 $410 #
straight-curve $-1 45.040437025055695 0 -9.1146418973197338 0 -1 0 I I #
coedge $-1 $280 $274 $356 $406 reversed $281 $-1 #
vertex $-1 $275 $411 #
straight-curve $-1 -45.040437025055695 0 -9.1146418973197338 0 1 0 I I #
point $-1 -45.040437025055695 -18.506482860403377 -9.1146418973197338 #
point $-1 45.040437025055695 -18.506482860403377 -9.1146418973197338 #
coedge $-1 $356 $407 $283 $368 reversed $268 $-1 #
edge $-1 $369 -45.040437025055695 $371 45.040437025055695 $367 $412 forward 7 unknown #
vertex $-1 $284 $413 #
straight-curve $-1 -45.040437025055695 -23.694343314053217 -5.7434455409130809 0 -1 0 I I #
vertex $-1 $285 $414 #
straight-curve $-1 45.040437025055695 -23.694343314053217 -5.7434455409130809 0 1 0 I I #
coedge $-1 $289 $297 $290 $375 forward $196 $-1 #
edge $-1 $377 -11.048648147475111 $298 -3.8670212783814062 $289 $415 forward 7 unknown #
edge $-1 $381 -9.1146418973197338 $377 -2.8614740090182522 $290 $416 forward 7 unknown #
edge $-1 $295 39.001823131666796 $381 45.040437025055695 $291 $417 forward 7 unknown #
vertex $-1 $292 $418 #
straight-curve $-1 -34.888232900085725 18.506482860403377 13.3743893817408 -0.69465836192734942 0 -0.71933980857756763 I I #
point $-1 -39.001823131666796 18.50648286040337 9.1146418973197338 #
point $-1 -45.040437025055695 11.324855991309665 2.8614740090182522 #
vertex $-1 $376 $419 #
straight-curve $-1 -45.040437025055695 0 9.1146418973197338 0 -1 0 I I #
vertex $-1 $304 $420 #
point $-1 -39.220525230730665 13.376749382479296 4.6737089284286242 #
vertex $-1 $308 $421 #
point $-1 -39.220525230730665 16.454589469233742 4.6737089284286242 #
coedge $-1 $323 $322 $315 $388 forward $312 $-1 #
edge $-1 $389 56.147991609812159 $392 59.347104220195774 $387 $422 forward 7 unknown #
vertex $-1 $327 $423 #
straight-curve $-1 35.763528170527557 10.190090716397183 9.1146418973197356 1 0 0 I I #
edge $-1 $392 3.5169437416646403 $324 9.8293502078004451 $323 $424 forward 7 unknown #
vertex $-1 $391 $425 #
straight-curve $-1 -4.0211221806084296 10.190090716397183 81.463707808599665 -0.54463902268945019 0 0.83867057594974714 I I #
point $-1 42.96290907122269 10.190090716397183 9.1146418973197285 #
point $-1 45.040437025055695 16.502497182532988 5.9155292869361205 #
straight-curve $-1 45.040437025055695 0 9.1146418973197338 0 1 0 I I #
vertex $-1 $330 $426 #
point $-1 43.435321983534166 11.993635421007415 6.5511112814635961 #
vertex $-1 $334 $427 #
point $-1 43.435321983534166 14.698952477922763 6.5511112814635961 #
straight-curve $-1 -45.040437025055695 18.506482860403377 0 0 0 -1 I I #
straight-curve $-1 -45.040437025055695 0 -9.1146418973197338 0 1 0 I I #
point $-1 -45.040437025055695 -18.506482860403377 -9.1146418973197338 #
point $-1 -45.040437025055695 18.506482860403377 -9.1146418973197338 #
straight-curve $-1 -45.040437025055695 -18.506482860403377 0 0 0 -1 I I #
edge $-1 $369 -1.6855981782033265 $363 1.6855981782033265 $362 $428 forward 7 unknown #
coedge $-1 $367 $358 $357 $408 reversed $268 $-1 #
edge $-1 $371 -1.6855981782033265 $360 1.6855981782033265 $357 $429 forward 7 unknown #
straight-curve $-1 0 -28.882203767703057 -9.1146418973197338 -1 0 0 I I #
point $-1 45.040437025055695 -28.882203767703057 -9.1146418973197338 #
point $-1 -45.040437025055695 -28.882203767703057 -9.1146418973197338 #
straight-curve $-1 0 -28.882203767703057 -5.7434455409130809 1 0 0 I I #
point $-1 -45.040437025055695 -28.882203767703057 -5.7434455409130809 #
point $-1 45.040437025055695 -28.882203767703057 -5.7434455409130809 #
straight-curve $-1 -45.040437025055695 7.4578347129282587 2.8614740090182491 0 -1 0 I I #
straight-curve $-1 -45.040437025055695 18.506482860403377 0 0 0 -1 I I #
straight-curve $-1 0 18.506482860403377 9.1146418973197338 -1 0 0 I I #
point $-1 -45.040437025055695 18.50648286040337 2.8614740090182522 #
point $-1 -45.040437025055695 18.506482860403377 9.1146418973197338 #
point $-1 -39.195843784080445 13.376749382479296 3.2597107579237079 #
point $-1 -39.195843784080445 16.454589469233742 3.2597107579237079 #
straight-curve $-1 45.040437025055695 10.190090716397183 65.262633507131895 0 0 -1 I I #
point $-1 45.040437025055695 10.190090716397183 9.1146418973197338 #
straight-curve $-1 45.040437025055695 6.6731469747325427 5.9155292869361134 0 1 0 I I #
point $-1 45.040437025055695 10.190090716397183 5.9155292869361205 #
point $-1 42.743667184214566 11.993635421007415 6.6981270580937453 #
point $-1 42.743667184214566 14.698952477922763 6.6981270580937453 #
straight-curve $-1 -45.040437025055695 -28.882203767703057 -7.4290437191164074 0 0 -1 I I #
straight-curve $-1 45.040437025055695 -28.882203767703057 -7.4290437191164074 0 0 -1 I I #
End-of-ACIS-data 