600 0 7 0           
107 GICL ACIS Healer - Source: /gicl/data5/repository/Drexel/CICIRELLO-THESISDATA/Part10009.smdg.feat.sat - 6 0 18 ACIS 6.0.3 Solaris 24 Fri Apr 12 10:22:11 2002 
1 9.999999999999999547e-07 1.000000000000000036e-10 
body $-1 $7 $-1 $-1 #
body $-1 $8 $-1 $-1 #
body $-1 $9 $-1 $-1 #
body $-1 $10 $-1 $-1 #
body $-1 $11 $-1 $-1 #
body $-1 $12 $-1 $-1 #
body $-1 $13 $-1 $-1 #
lump $-1 $-1 $14 $0 #
lump $-1 $-1 $15 $1 #
lump $-1 $-1 $16 $2 #
lump $-1 $-1 $17 $3 #
lump $-1 $-1 $18 $4 #
lump $-1 $-1 $19 $5 #
lump $-1 $-1 $20 $6 #
shell $-1 $-1 $-1 $21 $-1 $7 #
shell $-1 $-1 $-1 $22 $-1 $8 #
shell $-1 $-1 $-1 $23 $-1 $9 #
shell $-1 $-1 $-1 $24 $-1 $10 #
shell $-1 $-1 $-1 $25 $-1 $11 #
shell $-1 $-1 $-1 $26 $-1 $12 #
shell $-1 $-1 $-1 $27 $-1 $13 #
face $-1 $28 $29 $14 $-1 $30 forward single #
face $-1 $31 $32 $15 $-1 $33 forward single #
face $-1 $34 $35 $16 $-1 $36 forward single #
face $-1 $37 $38 $17 $-1 $39 forward single #
face $-1 $40 $41 $18 $-1 $42 forward single #
face $-1 $43 $44 $19 $-1 $45 forward single #
face $-1 $46 $47 $20 $-1 $48 forward single #
face $-1 $49 $50 $14 $-1 $51 reversed single #
loop $-1 $-1 $52 $21 #
plane-surface $-1 64.31104464857936875 31.31922555849606127 22.6669872211255985 0 0 1 1 0 0 forward_v I I I I #
face $-1 $53 $54 $15 $-1 $55 reversed single #
loop $-1 $-1 $56 $22 #
plane-surface $-1 1.5 -7.220092950340920801 22.6669872211255985 0 0 1 1 0 0 forward_v I I I I #
face $-1 $57 $58 $16 $-1 $59 reversed single #
loop $-1 $-1 $60 $23 #
plane-surface $-1 64.31104464857936875 57.58475130244022466 22.6669872211255985 0 0 1 1 0 0 forward_v I I I I #
face $-1 $61 $62 $17 $-1 $63 reversed single #
loop $-1 $-1 $64 $24 #
plane-surface $-1 185.6418330539113981 38.52925048893491322 300.6596681150083441 0.6156614830463592591 0 0.788010747574649173 0.788010747574649173 0 -0.6156614830463592591 forward_v I I I I #
face $-1 $65 $66 $18 $-1 $67 forward single #
loop $-1 $68 $69 $25 #
cone-surface $-1 125.0509908615333359 38.52925048893491322 19.34274497601434462 -0.6156614830463592591 0 -0.788010747574649173 0.788010747574649173 0 -0.6156614830463592591 1 I I 0 1 1 forward I I I I #
face $-1 $70 $71 $19 $-1 $72 reversed single #
loop $-1 $-1 $73 $26 #
plane-surface $-1 -158.3753324984199935 38.52925048893491322 221.4720018657983474 -0.6156614830463592591 0 0.788010747574649173 0.788010747574649173 0 0.6156614830463592591 forward_v I I I I #
face $-1 $74 $75 $20 $-1 $76 forward single #
loop $-1 $77 $78 $27 #
cone-surface $-1 3.571098435625412293 38.52925048893491322 19.34274497601435883 0.6156614830463592591 0 -0.788010747574649173 0.788010747574649173 0 0.6156614830463592591 1 I I 0 1 1 forward I I I I #
face $-1 $79 $80 $14 $-1 $81 reversed single #
loop $-1 $-1 $82 $28 #
plane-surface $-1 64.31104464857936875 31.31922555849606127 0 0 0 1 1 0 0 forward_v I I I I #
coedge $-1 $83 $84 $85 $86 forward $29 $-1 #
face $-1 $87 $88 $15 $-1 $89 reversed single #
loop $-1 $-1 $90 $31 #
plane-surface $-1 1.5 -7.220092950340920801 0 0 0 1 1 0 0 forward_v I I I I #
coedge $-1 $91 $92 $93 $94 forward $32 $-1 #
face $-1 $95 $96 $16 $-1 $97 reversed single #
loop $-1 $-1 $98 $34 #
plane-surface $-1 64.31104464857936875 57.58475130244022466 16.46263706128327797 0 0 1 1 0 0 forward_v I I I I #
coedge $-1 $99 $100 $101 $102 forward $35 $-1 #
face $-1 $103 $104 $17 $-1 $105 reversed single #
loop $-1 $-1 $106 $37 #
plane-surface $-1 27.26650055549141882 38.52925048893491322 97.94849063167367831 0.6156614830463592591 0 0.788010747574649173 0.788010747574649173 0 -0.6156614830463592591 forward_v I I I I #
coedge $-1 $107 $108 $109 $110 forward $38 $-1 #
face $-1 $-1 $111 $18 $-1 $112 forward single #
loop $-1 $-1 $113 $40 #
plane-surface $-1 126.1222591279791345 38.52925048893491322 20.71390580179462404 0.6156614830463592591 0 0.788010747574649173 -0.788010747574649173 0 0.6156614830463592591 forward_v I I I I #
loop $-1 $-1 $114 $25 #
coedge $-1 $69 $69 $113 $115 reversed $41 $-1 #
face $-1 $116 $117 $19 $-1 $118 reversed single #
loop $-1 $-1 $119 $43 #
plane-surface $-1 -1.421085471520200372e-14 38.52925048893491322 18.76082438246369577 -0.6156614830463592591 0 0.788010747574649173 0.788010747574649173 0 0.6156614830463592591 forward_v I I I I #
coedge $-1 $120 $121 $122 $123 forward $44 $-1 #
face $-1 $-1 $124 $20 $-1 $125 forward single #
loop $-1 $-1 $126 $46 #
plane-surface $-1 2.499830169179606543 38.52925048893491322 20.71390580179463825 -0.6156614830463592591 0 0.788010747574649173 -0.788010747574649173 0 -0.6156614830463592591 forward_v I I I I #
loop $-1 $-1 $127 $27 #
coedge $-1 $78 $78 $126 $128 reversed $47 $-1 #
face $-1 $129 $130 $14 $-1 $131 reversed single #
loop $-1 $-1 $132 $49 #
plane-surface $-1 64.31104464857936875 0 11.33349361056279925 0 1 0 0 0 1 forward_v I I I I #
coedge $-1 $133 $134 $135 $136 forward $50 $-1 #
coedge $-1 $137 $52 $138 $139 forward $29 $-1 #
coedge $-1 $52 $137 $140 $141 forward $29 $-1 #
coedge $-1 $142 $143 $52 $86 reversed $144 $-1 #
edge $-1 $145 -31.31922555849606127 $146 31.31922555849606127 $85 $147 forward 7 unknown #
face $-1 $148 $149 $15 $-1 $150 reversed single #
loop $-1 $-1 $151 $53 #
plane-surface $-1 1.5 -14.4401859006818416 11.33349361056279925 0 1 0 0 0 1 forward_v I I I I #
coedge $-1 $152 $153 $154 $155 forward $54 $-1 #
coedge $-1 $156 $56 $157 $158 forward $32 $-1 #
coedge $-1 $56 $156 $159 $160 forward $32 $-1 #
coedge $-1 $161 $162 $56 $94 reversed $163 $-1 #
edge $-1 $164 -7.220092950340920801 $165 7.220092950340920801 $93 $166 forward 7 unknown #
face $-1 $167 $168 $16 $-1 $169 reversed single #
loop $-1 $-1 $170 $57 #
plane-surface $-1 64.31104464857936875 52.5310514878883339 19.56481214120443823 0 1 0 0 0 1 forward_v I I I I #
coedge $-1 $171 $172 $173 $174 forward $58 $-1 #
coedge $-1 $175 $60 $176 $177 forward $35 $-1 #
coedge $-1 $60 $175 $178 $179 forward $35 $-1 #
coedge $-1 $180 $181 $60 $102 reversed $182 $-1 #
edge $-1 $183 -5.053699814551890768 $184 5.053699814551890768 $101 $185 forward 7 unknown #
face $-1 $186 $187 $17 $-1 $188 reversed single #
loop $-1 $-1 $189 $61 #
plane-surface $-1 106.4541668047014156 34.36593500886278463 199.3040793733410112 0 1 0 0.6156614830463592591 0 0.788010747574649173 forward_v I I I I #
coedge $-1 $190 $191 $192 $193 forward $62 $-1 #
coedge $-1 $194 $64 $195 $196 forward $38 $-1 #
coedge $-1 $64 $194 $197 $198 forward $38 $-1 #
coedge $-1 $199 $200 $64 $110 reversed $201 $-1 #
edge $-1 $202 -4.163315480072128594 $203 4.163315480072128594 $109 $204 forward 7 unknown #
loop $-1 $205 $206 $65 #
cone-surface $-1 123.6718918535643468 38.52925048893491322 17.57757877644674238 -0.6156614830463592591 0 -0.788010747574649173 0.3940053737873245865 0 -0.3078307415231796296 1 I I -0.7071067811865474617 0.7071067811865474617 0.5 forward I I I I #
coedge $-1 $113 $113 $69 $115 forward $66 $-1 #
coedge $-1 $114 $114 $206 $207 forward $68 $-1 #
edge $-1 $208 0 $208 6.283185307179586232 $113 $209 forward 7 unknown #
face $-1 $210 $211 $19 $-1 $212 reversed single #
loop $-1 $-1 $213 $70 #
plane-surface $-1 -79.18766624921001096 34.36593500886278463 120.1164131241310287 0 1 0 -0.6156614830463592591 0 0.788010747574649173 forward_v I I I I #
coedge $-1 $214 $215 $216 $217 forward $71 $-1 #
coedge $-1 $218 $73 $219 $220 forward $44 $-1 #
coedge $-1 $73 $218 $221 $222 forward $44 $-1 #
coedge $-1 $223 $224 $73 $123 reversed $225 $-1 #
edge $-1 $226 -4.163315480072128594 $227 4.163315480072128594 $122 $228 forward 7 unknown #
loop $-1 $229 $230 $74 #
cone-surface $-1 4.950197443594396951 38.52925048893491322 17.57757877644675304 0.6156614830463592591 0 -0.788010747574649173 0.3940053737873245865 0 0.3078307415231796296 1 I I -0.7071067811865474617 0.7071067811865474617 0.5 forward I I I I #
coedge $-1 $126 $126 $78 $128 forward $75 $-1 #
coedge $-1 $127 $127 $230 $231 forward $77 $-1 #
edge $-1 $232 0 $232 6.283185307179586232 $126 $233 forward 7 unknown #
face $-1 $234 $235 $14 $-1 $236 reversed single #
loop $-1 $-1 $237 $79 #
plane-surface $-1 0 31.31922555849606127 11.33349361056279925 1 0 0 0 0 -1 forward_v I I I I #
coedge $-1 $238 $140 $239 $240 forward $80 $-1 #
coedge $-1 $241 $82 $238 $242 forward $50 $-1 #
coedge $-1 $82 $241 $243 $244 forward $50 $-1 #
coedge $-1 $143 $142 $82 $136 reversed $144 $-1 #
edge $-1 $245 -31.31922555849606127 $246 31.31922555849606127 $135 $247 forward 7 unknown #
coedge $-1 $84 $83 $248 $249 forward $29 $-1 #
coedge $-1 $250 $251 $83 $139 reversed $235 $-1 #
edge $-1 $146 -64.31104464857936875 $252 64.31104464857936875 $138 $253 forward 7 unknown #
coedge $-1 $132 $254 $84 $141 reversed $80 $-1 #
edge $-1 $255 -64.31104464857936875 $145 64.31104464857936875 $140 $256 forward 7 unknown #
coedge $-1 $135 $85 $254 $257 forward $144 $-1 #
coedge $-1 $85 $135 $250 $258 reversed $144 $-1 #
loop $-1 $-1 $142 $234 #
vertex $-1 $86 $259 #
vertex $-1 $86 $260 #
straight-curve $-1 128.6220892971587375 31.31922555849606127 22.6669872211255985 0 1 0 I I #
face $-1 $261 $262 $15 $-1 $263 reversed single #
loop $-1 $-1 $264 $87 #
plane-surface $-1 0 -7.220092950340920801 11.33349361056279925 1 0 0 0 0 -1 forward_v I I I I #
coedge $-1 $265 $159 $266 $267 forward $88 $-1 #
coedge $-1 $268 $90 $265 $269 forward $54 $-1 #
coedge $-1 $90 $268 $270 $271 forward $54 $-1 #
coedge $-1 $162 $161 $90 $155 reversed $163 $-1 #
edge $-1 $272 -7.220092950340920801 $273 7.220092950340920801 $154 $274 forward 7 unknown #
coedge $-1 $92 $91 $275 $276 forward $32 $-1 #
coedge $-1 $277 $278 $91 $158 reversed $262 $-1 #
edge $-1 $165 -1.5 $279 1.5 $157 $280 forward 7 unknown #
coedge $-1 $151 $281 $92 $160 reversed $88 $-1 #
edge $-1 $282 -1.5 $164 1.5 $159 $283 forward 7 unknown #
coedge $-1 $154 $93 $281 $284 forward $163 $-1 #
coedge $-1 $93 $154 $277 $285 reversed $163 $-1 #
loop $-1 $-1 $161 $261 #
vertex $-1 $94 $286 #
vertex $-1 $94 $287 #
straight-curve $-1 3 -7.220092950340920801 22.6669872211255985 0 1 0 I I #
face $-1 $288 $289 $16 $-1 $290 reversed single #
loop $-1 $-1 $291 $95 #
plane-surface $-1 0 57.58475130244022466 19.56481214120443823 1 0 0 0 0 -1 forward_v I I I I #
coedge $-1 $292 $178 $293 $294 forward $96 $-1 #
coedge $-1 $295 $98 $292 $296 forward $58 $-1 #
coedge $-1 $98 $295 $297 $298 forward $58 $-1 #
coedge $-1 $181 $180 $98 $174 reversed $182 $-1 #
edge $-1 $299 -5.053699814551890768 $300 5.053699814551890768 $173 $301 forward 7 unknown #
coedge $-1 $100 $99 $302 $303 forward $35 $-1 #
coedge $-1 $304 $305 $99 $177 reversed $289 $-1 #
edge $-1 $184 -64.31104464857936875 $306 64.31104464857936875 $176 $307 forward 7 unknown #
coedge $-1 $170 $308 $100 $179 reversed $96 $-1 #
edge $-1 $309 -64.31104464857936875 $183 64.31104464857936875 $178 $310 forward 7 unknown #
coedge $-1 $173 $101 $308 $311 forward $182 $-1 #
coedge $-1 $101 $173 $304 $312 reversed $182 $-1 #
loop $-1 $-1 $180 $288 #
vertex $-1 $102 $313 #
vertex $-1 $102 $314 #
straight-curve $-1 128.6220892971587375 57.58475130244022466 22.6669872211255985 0 1 0 I I #
face $-1 $315 $316 $17 $-1 $317 reversed single #
loop $-1 $-1 $318 $103 #
plane-surface $-1 -96.25701067863325022 38.52925048893491322 357.6794118717609763 0.788010747574649173 0 -0.6156614830463592591 -0.6156614830463592591 0 -0.788010747574649173 forward_v I I I I #
coedge $-1 $319 $197 $320 $321 forward $104 $-1 #
coedge $-1 $322 $106 $319 $323 forward $62 $-1 #
coedge $-1 $106 $322 $324 $325 forward $62 $-1 #
coedge $-1 $200 $199 $106 $193 reversed $201 $-1 #
edge $-1 $326 -4.163315480072128594 $327 4.163315480072128594 $192 $328 forward 7 unknown #
coedge $-1 $108 $107 $329 $330 forward $38 $-1 #
coedge $-1 $331 $332 $107 $196 reversed $316 $-1 #
edge $-1 $203 -257.244178594317475 $333 257.244178594317475 $195 $334 forward 7 unknown #
coedge $-1 $189 $335 $108 $198 reversed $104 $-1 #
edge $-1 $336 -257.244178594317475 $202 257.244178594317475 $197 $337 forward 7 unknown #
coedge $-1 $192 $109 $335 $338 forward $201 $-1 #
coedge $-1 $109 $192 $331 $339 reversed $201 $-1 #
loop $-1 $-1 $199 $315 #
vertex $-1 $110 $340 #
vertex $-1 $110 $341 #
straight-curve $-1 388.3530105372460639 38.52925048893491322 142.2843356165883506 0 1 0 I I #
loop $-1 $-1 $342 $65 #
coedge $-1 $206 $206 $114 $207 reversed $111 $-1 #
edge $-1 $343 0 $343 6.283185307179586232 $206 $344 forward 7 unknown #
vertex $-1 $115 $345 #
ellipse-curve $-1 126.1222591279791345 38.52925048893491322 20.71390580179462404 0.6156614830463592591 0 0.788010747574649173 0.788010747574649173 0 -0.6156614830463592591 1 I I #
face $-1 $346 $347 $19 $-1 $348 reversed single #
loop $-1 $-1 $349 $116 #
plane-surface $-1 -281.8988437325446625 38.52925048893491322 -38.25891937428896483 0.788010747574649173 0 0.6156614830463592591 0.6156614830463592591 0 -0.788010747574649173 forward_v I I I I #
coedge $-1 $350 $221 $351 $352 forward $117 $-1 #
coedge $-1 $353 $119 $350 $354 forward $71 $-1 #
coedge $-1 $119 $353 $355 $356 forward $71 $-1 #
coedge $-1 $224 $223 $119 $217 reversed $225 $-1 #
edge $-1 $357 -4.163315480072128594 $358 4.163315480072128594 $216 $359 forward 7 unknown #
coedge $-1 $121 $120 $360 $361 forward $44 $-1 #
coedge $-1 $362 $363 $120 $220 reversed $347 $-1 #
edge $-1 $227 -257.244178594317475 $364 257.244178594317475 $219 $365 forward 7 unknown #
coedge $-1 $213 $366 $121 $222 reversed $117 $-1 #
edge $-1 $367 -257.244178594317475 $226 257.244178594317475 $221 $368 forward 7 unknown #
coedge $-1 $216 $122 $366 $369 forward $225 $-1 #
coedge $-1 $122 $216 $362 $370 reversed $225 $-1 #
loop $-1 $-1 $223 $346 #
vertex $-1 $123 $371 #
vertex $-1 $123 $372 #
straight-curve $-1 44.33584498491465808 38.52925048893491322 379.8473343642183977 0 1 0 I I #
loop $-1 $-1 $373 $74 #
coedge $-1 $230 $230 $127 $231 reversed $124 $-1 #
edge $-1 $374 0 $374 6.283185307179586232 $230 $375 forward 7 unknown #
vertex $-1 $128 $376 #
ellipse-curve $-1 2.499830169179606543 38.52925048893491322 20.71390580179463825 -0.6156614830463592591 0 0.788010747574649173 0.788010747574649173 0 0.6156614830463592591 1 I I #
face $-1 $-1 $144 $14 $-1 $377 reversed single #
loop $-1 $-1 $250 $129 #
plane-surface $-1 64.31104464857936875 62.63845111699212254 11.33349361056279925 0 -1 0 0 0 -1 forward_v I I I I #
coedge $-1 $378 $248 $251 $379 forward $130 $-1 #
coedge $-1 $254 $132 $133 $242 reversed $80 $-1 #
coedge $-1 $248 $378 $132 $240 reversed $130 $-1 #
edge $-1 $255 -11.33349361056279925 $380 11.33349361056279925 $239 $381 forward 7 unknown #
coedge $-1 $134 $133 $378 $382 forward $50 $-1 #
edge $-1 $246 -64.31104464857936875 $380 64.31104464857936875 $238 $383 forward 7 unknown #
coedge $-1 $251 $250 $134 $244 reversed $235 $-1 #
edge $-1 $384 -64.31104464857936875 $245 64.31104464857936875 $243 $385 forward 7 unknown #
vertex $-1 $136 $386 #
vertex $-1 $257 $387 #
straight-curve $-1 128.6220892971587375 31.31922555849606127 0 0 -1 0 I I #
coedge $-1 $237 $239 $137 $249 reversed $130 $-1 #
edge $-1 $252 -31.31922555849606127 $255 31.31922555849606127 $248 $388 forward 7 unknown #
coedge $-1 $243 $138 $143 $258 forward $235 $-1 #
coedge $-1 $138 $243 $237 $379 reversed $235 $-1 #
vertex $-1 $139 $389 #
straight-curve $-1 64.31104464857936875 62.63845111699212254 22.6669872211255985 -1 0 0 I I #
coedge $-1 $140 $238 $142 $257 reversed $80 $-1 #
vertex $-1 $249 $390 #
straight-curve $-1 64.31104464857936875 0 22.6669872211255985 1 0 0 I I #
edge $-1 $145 -11.33349361056279925 $246 11.33349361056279925 $142 $391 forward 7 unknown #
edge $-1 $146 -11.33349361056279925 $245 11.33349361056279925 $143 $392 forward 7 unknown #
point $-1 128.6220892971587375 0 22.6669872211255985 #
point $-1 128.6220892971587375 62.63845111699212254 22.6669872211255985 #
face $-1 $-1 $163 $15 $-1 $393 reversed single #
loop $-1 $-1 $277 $148 #
plane-surface $-1 1.5 0 11.33349361056279925 0 -1 0 0 0 -1 forward_v I I I I #
coedge $-1 $394 $275 $278 $395 forward $149 $-1 #
coedge $-1 $281 $151 $152 $269 reversed $88 $-1 #
coedge $-1 $275 $394 $151 $267 reversed $149 $-1 #
edge $-1 $282 -11.33349361056279925 $396 11.33349361056279925 $266 $397 forward 7 unknown #
coedge $-1 $153 $152 $394 $398 forward $54 $-1 #
edge $-1 $273 -1.5 $396 1.5 $265 $399 forward 7 unknown #
coedge $-1 $278 $277 $153 $271 reversed $262 $-1 #
edge $-1 $400 -1.5 $272 1.5 $270 $401 forward 7 unknown #
vertex $-1 $155 $402 #
vertex $-1 $284 $403 #
straight-curve $-1 3 -7.220092950340920801 0 0 -1 0 I I #
coedge $-1 $264 $266 $156 $276 reversed $149 $-1 #
edge $-1 $279 -7.220092950340920801 $282 7.220092950340920801 $275 $404 forward 7 unknown #
coedge $-1 $270 $157 $162 $285 forward $262 $-1 #
coedge $-1 $157 $270 $264 $395 reversed $262 $-1 #
vertex $-1 $158 $405 #
straight-curve $-1 1.5 0 22.6669872211255985 -1 0 0 I I #
coedge $-1 $159 $265 $161 $284 reversed $88 $-1 #
vertex $-1 $276 $406 #
straight-curve $-1 1.5 -14.4401859006818416 22.6669872211255985 1 0 0 I I #
edge $-1 $164 -11.33349361056279925 $273 11.33349361056279925 $161 $407 forward 7 unknown #
edge $-1 $165 -11.33349361056279925 $272 11.33349361056279925 $162 $408 forward 7 unknown #
point $-1 3 -14.4401859006818416 22.6669872211255985 #
point $-1 3 0 22.6669872211255985 #
face $-1 $-1 $182 $16 $-1 $409 reversed single #
loop $-1 $-1 $304 $167 #
plane-surface $-1 64.31104464857936875 62.63845111699211543 19.56481214120443823 0 -1 0 0 0 -1 forward_v I I I I #
coedge $-1 $410 $302 $305 $411 forward $168 $-1 #
coedge $-1 $308 $170 $171 $296 reversed $96 $-1 #
coedge $-1 $302 $410 $170 $294 reversed $168 $-1 #
edge $-1 $309 -3.102175079921160261 $412 3.102175079921160261 $293 $413 forward 7 unknown #
coedge $-1 $172 $171 $410 $414 forward $58 $-1 #
edge $-1 $300 -64.31104464857936875 $412 64.31104464857936875 $292 $415 forward 7 unknown #
coedge $-1 $305 $304 $172 $298 reversed $289 $-1 #
edge $-1 $416 -64.31104464857936875 $299 64.31104464857936875 $297 $417 forward 7 unknown #
vertex $-1 $174 $418 #
vertex $-1 $311 $419 #
straight-curve $-1 128.6220892971587375 57.58475130244022466 16.46263706128327797 0 -1 0 I I #
coedge $-1 $291 $293 $175 $303 reversed $168 $-1 #
edge $-1 $306 -5.053699814551890768 $309 5.053699814551890768 $302 $420 forward 7 unknown #
coedge $-1 $297 $176 $181 $312 forward $289 $-1 #
coedge $-1 $176 $297 $291 $411 reversed $289 $-1 #
vertex $-1 $177 $421 #
straight-curve $-1 64.31104464857936875 62.63845111699211543 22.6669872211255985 -1 0 0 I I #
coedge $-1 $178 $292 $180 $311 reversed $96 $-1 #
vertex $-1 $303 $422 #
straight-curve $-1 64.31104464857936875 52.5310514878883339 22.6669872211255985 1 0 0 I I #
edge $-1 $183 -3.102175079921160261 $300 3.102175079921160261 $180 $423 forward 7 unknown #
edge $-1 $184 -3.102175079921160261 $299 3.102175079921160261 $181 $424 forward 7 unknown #
point $-1 128.6220892971587375 52.5310514878883339 22.6669872211255985 #
point $-1 128.6220892971587375 62.63845111699211543 22.6669872211255985 #
face $-1 $-1 $201 $17 $-1 $425 reversed single #
loop $-1 $-1 $331 $186 #
plane-surface $-1 106.4541668047014156 42.69256596900704182 199.3040793733410112 0 -1 0 -0.6156614830463592591 0 -0.788010747574649173 forward_v I I I I #
coedge $-1 $426 $329 $332 $427 forward $187 $-1 #
coedge $-1 $335 $189 $190 $323 reversed $104 $-1 #
coedge $-1 $329 $426 $189 $321 reversed $187 $-1 #
edge $-1 $336 -128.6220892971587375 $428 128.6220892971587091 $320 $429 forward 7 unknown #
coedge $-1 $191 $190 $426 $430 forward $62 $-1 #
edge $-1 $327 -257.244178594317475 $428 257.244178594317475 $319 $431 forward 7 unknown #
coedge $-1 $332 $331 $191 $325 reversed $316 $-1 #
edge $-1 $432 -257.244178594317475 $326 257.244178594317475 $324 $433 forward 7 unknown #
vertex $-1 $193 $434 #
vertex $-1 $338 $435 #
straight-curve $-1 229.9776780388260704 38.52925048893491322 -60.42684186674634361 0 -1 0 I I #
coedge $-1 $318 $320 $194 $330 reversed $187 $-1 #
edge $-1 $333 -4.163315480072128594 $336 4.163315480072128594 $329 $436 forward 7 unknown #
coedge $-1 $324 $195 $200 $339 forward $316 $-1 #
coedge $-1 $195 $324 $318 $427 reversed $316 $-1 #
vertex $-1 $196 $437 #
straight-curve $-1 185.6418330539113981 42.69256596900704182 300.6596681150083441 -0.788010747574649173 0 0.6156614830463592591 I I #
coedge $-1 $197 $319 $199 $338 reversed $104 $-1 #
vertex $-1 $330 $438 #
straight-curve $-1 185.6418330539113981 34.36593500886278463 300.6596681150083441 0.788010747574649173 0 -0.6156614830463592591 I I #
edge $-1 $202 -128.6220892971587375 $327 128.6220892971587375 $199 $439 forward 7 unknown #
edge $-1 $203 -128.6220892971587375 $326 128.6220892971587375 $200 $440 forward 7 unknown #
point $-1 388.3530105372460639 34.36593500886278463 142.2843356165883506 #
point $-1 388.3530105372460639 42.69256596900704182 142.2843356165883506 #
coedge $-1 $342 $342 $-1 $441 reversed $205 $-1 #
vertex $-1 $207 $442 #
ellipse-curve $-1 123.979722595087523 38.52925048893491322 17.97158415023406519 0.6156614830463592591 0 0.788010747574649173 0.788010747574649173 0 -0.6156614830463592591 1 I I #
point $-1 126.9102698755537801 38.52925048893491322 20.098244318748268 #
face $-1 $-1 $225 $19 $-1 $443 reversed single #
loop $-1 $-1 $362 $210 #
plane-surface $-1 -79.18766624921001096 42.69256596900704182 120.1164131241310287 0 -1 0 0.6156614830463592591 0 -0.788010747574649173 forward_v I I I I #
coedge $-1 $444 $360 $363 $445 forward $211 $-1 #
coedge $-1 $366 $213 $214 $354 reversed $117 $-1 #
coedge $-1 $360 $444 $213 $352 reversed $211 $-1 #
edge $-1 $367 -128.6220892971587375 $446 128.6220892971587375 $351 $447 forward 7 unknown #
coedge $-1 $215 $214 $444 $448 forward $71 $-1 #
edge $-1 $358 -257.244178594317475 $446 257.244178594317475 $350 $449 forward 7 unknown #
coedge $-1 $363 $362 $215 $356 reversed $347 $-1 #
edge $-1 $450 -257.244178594317475 $357 257.244178594317475 $355 $451 forward 7 unknown #
vertex $-1 $217 $452 #
vertex $-1 $369 $453 #
straight-curve $-1 202.7111774833346658 38.52925048893491322 177.1361568808836751 0 -1 0 I I #
coedge $-1 $349 $351 $218 $361 reversed $211 $-1 #
edge $-1 $364 -4.163315480072128594 $367 4.163315480072128594 $360 $454 forward 7 unknown #
coedge $-1 $355 $219 $224 $370 forward $347 $-1 #
coedge $-1 $219 $355 $349 $445 reversed $347 $-1 #
vertex $-1 $220 $455 #
straight-curve $-1 -158.3753324984199935 42.69256596900704182 221.4720018657983474 -0.788010747574649173 0 -0.6156614830463592591 I I #
coedge $-1 $221 $350 $223 $369 reversed $117 $-1 #
vertex $-1 $361 $456 #
straight-curve $-1 -158.3753324984199935 34.36593500886278463 221.4720018657983474 0.788010747574649173 0 0.6156614830463592591 I I #
edge $-1 $226 -128.6220892971587375 $358 128.6220892971587659 $223 $457 forward 7 unknown #
edge $-1 $227 -128.6220892971587375 $357 128.6220892971587659 $224 $458 forward 7 unknown #
point $-1 44.33584498491465808 34.36593500886278463 379.8473343642183977 #
point $-1 44.33584498491465808 42.69256596900704182 379.8473343642183977 #
coedge $-1 $373 $373 $-1 $459 reversed $229 $-1 #
vertex $-1 $231 $460 #
ellipse-curve $-1 4.642366702071217155 38.52925048893491322 17.9715841502340794 -0.6156614830463592591 0 0.788010747574649173 0.788010747574649173 0 0.6156614830463592591 1 I I #
point $-1 3.287840916754255716 38.52925048893491322 21.32956728484099429 #
plane-surface $-1 128.6220892971587375 31.31922555849606127 11.33349361056279925 -1 0 0 0 0 1 forward_v I I I I #
coedge $-1 $239 $237 $241 $382 reversed $130 $-1 #
edge $-1 $252 -11.33349361056279925 $384 11.33349361056279925 $251 $461 forward 7 unknown #
vertex $-1 $382 $462 #
straight-curve $-1 0 0 11.33349361056279925 0 0 -1 I I #
edge $-1 $380 -31.31922555849606127 $384 31.31922555849606127 $378 $463 forward 7 unknown #
straight-curve $-1 64.31104464857936875 0 0 -1 0 0 I I #
vertex $-1 $244 $464 #
straight-curve $-1 64.31104464857936875 62.63845111699212254 0 1 0 0 I I #
point $-1 128.6220892971587375 62.63845111699212254 0 #
point $-1 128.6220892971587375 0 0 #
straight-curve $-1 0 31.31922555849606127 22.6669872211255985 0 -1 0 I I #
point $-1 0 62.63845111699212254 22.6669872211255985 #
point $-1 0 0 22.6669872211255985 #
straight-curve $-1 128.6220892971587375 0 11.33349361056279925 0 0 -1 I I #
straight-curve $-1 128.6220892971587375 62.63845111699212254 11.33349361056279925 0 0 -1 I I #
plane-surface $-1 3 -7.220092950340920801 11.33349361056279925 -1 0 0 0 0 1 forward_v I I I I #
coedge $-1 $266 $264 $268 $398 reversed $149 $-1 #
edge $-1 $279 -11.33349361056279925 $400 11.33349361056279925 $278 $465 forward 7 unknown #
vertex $-1 $398 $466 #
straight-curve $-1 0 -14.4401859006818416 11.33349361056279925 0 0 -1 I I #
edge $-1 $396 -7.220092950340920801 $400 7.220092950340920801 $394 $467 forward 7 unknown #
straight-curve $-1 1.5 -14.4401859006818416 0 -1 0 0 I I #
vertex $-1 $271 $468 #
straight-curve $-1 1.5 0 0 1 0 0 I I #
point $-1 3 0 0 #
point $-1 3 -14.4401859006818416 0 #
straight-curve $-1 0 -7.220092950340920801 22.6669872211255985 0 -1 0 I I #
point $-1 0 0 22.6669872211255985 #
point $-1 0 -14.4401859006818416 22.6669872211255985 #
straight-curve $-1 3 -14.4401859006818416 11.33349361056279925 0 0 -1 I I #
straight-curve $-1 3 0 11.33349361056279925 0 0 -1 I I #
plane-surface $-1 128.6220892971587375 57.58475130244022466 19.56481214120443823 -1 0 0 0 0 1 forward_v I I I I #
coedge $-1 $293 $291 $295 $414 reversed $168 $-1 #
edge $-1 $306 -3.102175079921160261 $416 3.102175079921160261 $305 $469 forward 7 unknown #
vertex $-1 $414 $470 #
straight-curve $-1 0 52.5310514878883339 19.56481214120443823 0 0 -1 I I #
edge $-1 $412 -5.053699814551890768 $416 5.053699814551890768 $410 $471 forward 7 unknown #
straight-curve $-1 64.31104464857936875 52.5310514878883339 16.46263706128327797 -1 0 0 I I #
vertex $-1 $298 $472 #
straight-curve $-1 64.31104464857936875 62.63845111699211543 16.46263706128327797 1 0 0 I I #
point $-1 128.6220892971587375 62.63845111699211543 16.46263706128327797 #
point $-1 128.6220892971587375 52.5310514878883339 16.46263706128327797 #
straight-curve $-1 0 57.58475130244022466 22.6669872211255985 0 -1 0 I I #
point $-1 0 62.63845111699211543 22.6669872211255985 #
point $-1 0 52.5310514878883339 22.6669872211255985 #
straight-curve $-1 128.6220892971587375 52.5310514878883339 19.56481214120443823 0 0 -1 I I #
straight-curve $-1 128.6220892971587375 62.63845111699211543 19.56481214120443823 0 0 -1 I I #
plane-surface $-1 309.1653442880360672 38.52925048893491322 40.92874687492101771 -0.788010747574649173 0 0.6156614830463592591 0.6156614830463592591 0 0.788010747574649173 forward_v I I I I #
coedge $-1 $320 $318 $322 $430 reversed $187 $-1 #
edge $-1 $333 -128.6220892971587375 $432 128.6220892971587091 $332 $473 forward 7 unknown #
vertex $-1 $430 $474 #
straight-curve $-1 -96.25701067863325022 34.36593500886278463 357.6794118717609763 -0.6156614830463592591 0 -0.788010747574649173 I I #
edge $-1 $428 -4.163315480072128594 $432 4.163315480072128594 $426 $475 forward 7 unknown #
straight-curve $-1 27.26650055549141882 34.36593500886278463 97.94849063167367831 -0.788010747574649173 0 0.6156614830463592591 I I #
vertex $-1 $325 $476 #
straight-curve $-1 27.26650055549141882 42.69256596900704182 97.94849063167367831 0.788010747574649173 0 -0.6156614830463592591 I I #
point $-1 229.9776780388260704 42.69256596900704182 -60.42684186674634361 #
point $-1 229.9776780388260704 34.36593500886278463 -60.42684186674634361 #
straight-curve $-1 -17.06934442942325347 38.52925048893491322 459.0350006134283376 0 -1 0 I I #
point $-1 -17.06934442942325347 42.69256596900704182 459.0350006134283376 #
point $-1 -17.06934442942325347 34.36593500886278463 459.0350006134283376 #
straight-curve $-1 309.1653442880360672 34.36593500886278463 40.92874687492101771 -0.6156614830463592591 0 -0.788010747574649173 I I #
straight-curve $-1 309.1653442880360672 42.69256596900704182 40.92874687492101771 -0.6156614830463592591 0 -0.788010747574649173 I I #
edge $-1 $477 1 $477 0 $342 $-1 forward 7 unknown #
point $-1 124.7677333426621686 38.52925048893491322 17.35592266718770915 #
plane-surface $-1 123.5235112341246548 38.52925048893491322 278.4917456225510364 -0.788010747574649173 0 -0.6156614830463592591 -0.6156614830463592591 0 0.788010747574649173 forward_v I I I I #
coedge $-1 $351 $349 $353 $448 reversed $211 $-1 #
edge $-1 $364 -128.6220892971587375 $450 128.6220892971587375 $363 $478 forward 7 unknown #
vertex $-1 $448 $479 #
straight-curve $-1 -281.8988437325446625 34.36593500886278463 -38.25891937428896483 0.6156614830463592591 0 -0.788010747574649173 I I #
edge $-1 $446 -4.163315480072128594 $450 4.163315480072128594 $444 $480 forward 7 unknown #
straight-curve $-1 -1.421085471520200372e-14 34.36593500886278463 18.76082438246369577 -0.788010747574649173 0 -0.6156614830463592591 I I #
vertex $-1 $356 $481 #
straight-curve $-1 -1.421085471520200372e-14 42.69256596900704182 18.76082438246369577 0.788010747574649173 0 0.6156614830463592591 I I #
point $-1 202.7111774833346658 42.69256596900704182 177.1361568808836751 #
point $-1 202.7111774833346658 34.36593500886278463 177.1361568808836751 #
straight-curve $-1 -361.0865099817546593 38.52925048893491322 63.09666936737836807 0 -1 0 I I #
point $-1 -361.0865099817546593 42.69256596900704182 63.09666936737836807 #
point $-1 -361.0865099817546593 34.36593500886278463 63.09666936737836807 #
straight-curve $-1 123.5235112341246548 34.36593500886278463 278.4917456225510364 0.6156614830463592591 0 -0.788010747574649173 I I #
straight-curve $-1 123.5235112341246548 42.69256596900704182 278.4917456225510364 0.6156614830463592591 0 -0.788010747574649173 I I #
edge $-1 $482 1 $482 0 $373 $-1 forward 7 unknown #
point $-1 5.430377449645866328 38.52925048893491322 18.58724563328043544 #
straight-curve $-1 0 62.63845111699212254 11.33349361056279925 0 0 -1 I I #
point $-1 0 0 0 #
straight-curve $-1 0 31.31922555849606127 0 0 1 0 I I #
point $-1 0 62.63845111699212254 0 #
straight-curve $-1 0 0 11.33349361056279925 0 0 -1 I I #
point $-1 0 -14.4401859006818416 0 #
straight-curve $-1 0 -7.220092950340920801 0 0 1 0 I I #
point $-1 0 0 0 #
straight-curve $-1 0 62.63845111699211543 19.56481214120443823 0 0 -1 I I #
point $-1 0 52.5310514878883339 16.46263706128327797 #
straight-curve $-1 0 57.58475130244022466 16.46263706128327797 0 1 0 I I #
point $-1 0 62.63845111699211543 16.46263706128327797 #
straight-curve $-1 -96.25701067863325022 42.69256596900704182 357.6794118717609763 -0.6156614830463592591 0 -0.788010747574649173 I I #
point $-1 -175.4446769278432612 34.36593500886278463 256.3238231300936718 #
straight-curve $-1 -175.4446769278432612 38.52925048893491322 256.3238231300936718 0 1 0 I I #
point $-1 -175.4446769278432612 42.69256596900704182 256.3238231300936718 #
vertex $-1 $441 $483 #
straight-curve $-1 -281.8988437325446625 42.69256596900704182 -38.25891937428896483 0.6156614830463592591 0 -0.788010747574649173 I I #
point $-1 -202.7111774833346658 34.36593500886278463 -139.6145081159563119 #
straight-curve $-1 -202.7111774833346658 38.52925048893491322 -139.6145081159563119 0 1 0 I I #
point $-1 -202.7111774833346658 42.69256596900704182 -139.6145081159563119 #
vertex $-1 $459 $484 #
point $-1 123.3640611120411705 38.52925048893491322 17.18357340265941957 #
point $-1 5.258028185117576747 38.52925048893491322 17.18357340265942668 #
End-of-ACIS-data 