500 0 16 0           
7 Unknown 11 ACIS 5.0 NT 24 Fri Mar 26 20:18:51 1999 
-1 9.9999999999999995e-007 1e-010 
body $-1 $16 $-1 $17 #
body $-1 $18 $-1 $19 #
body $-1 $20 $-1 $21 #
body $-1 $22 $-1 $23 #
body $-1 $24 $-1 $25 #
body $-1 $26 $-1 $27 #
body $-1 $28 $-1 $29 #
body $-1 $30 $-1 $31 #
body $-1 $32 $-1 $33 #
body $-1 $34 $-1 $35 #
body $-1 $36 $-1 $37 #
body $-1 $38 $-1 $39 #
body $-1 $40 $-1 $41 #
body $-1 $42 $-1 $43 #
body $-1 $44 $-1 $45 #
body $-1 $46 $-1 $47 #
lump $-1 $-1 $48 $0 #
transform $-1 1 0 0 0 1 0 0 0 1 48.448744163335064 33.597851912700662 14.441734215815417 1 rotate no_reflect no_shear #
lump $-1 $-1 $49 $1 #
transform $-1 1 0 0 0 1 0 0 0 1 48.448744163335064 33.597851912700662 14.441734215815417 1 rotate no_reflect no_shear #
lump $-1 $-1 $50 $2 #
transform $-1 1 0 0 0 1 0 0 0 1 48.448744163335064 33.597851912700662 14.441734215815417 1 rotate no_reflect no_shear #
lump $-1 $-1 $51 $3 #
transform $-1 1 0 0 0 1 0 0 0 1 48.448744163335064 33.597851912700662 14.441734215815417 1 rotate no_reflect no_shear #
lump $-1 $-1 $52 $4 #
transform $-1 1 0 0 0 1 0 0 0 1 48.448744163335064 33.597851912700662 14.441734215815417 1 rotate no_reflect no_shear #
lump $-1 $-1 $53 $5 #
transform $-1 1 0 0 0 1 0 0 0 1 48.448744163335064 33.597851912700662 14.441734215815417 1 rotate no_reflect no_shear #
lump $-1 $-1 $54 $6 #
transform $-1 1 0 0 0 1 0 0 0 1 48.448744163335064 33.597851912700662 14.441734215815417 1 rotate no_reflect no_shear #
lump $-1 $-1 $55 $7 #
transform $-1 1 0 0 0 1 0 0 0 1 48.448744163335064 33.597851912700662 14.441734215815417 1 rotate no_reflect no_shear #
lump $-1 $-1 $56 $8 #
transform $-1 1 0 0 0 1 0 0 0 1 48.448744163335064 33.597851912700662 14.441734215815417 1 rotate no_reflect no_shear #
lump $-1 $-1 $57 $9 #
transform $-1 1 0 0 0 1 0 0 0 1 48.448744163335064 33.597851912700662 14.441734215815417 1 rotate no_reflect no_shear #
lump $-1 $-1 $58 $10 #
transform $-1 1 0 0 0 1 0 0 0 1 48.448744163335064 33.597851912700662 14.441734215815417 1 rotate no_reflect no_shear #
lump $-1 $-1 $59 $11 #
transform $-1 1 0 0 0 1 0 0 0 1 48.448744163335064 33.597851912700662 14.441734215815417 1 rotate no_reflect no_shear #
lump $-1 $-1 $60 $12 #
transform $-1 1 0 0 0 1 0 0 0 1 48.448744163335064 33.597851912700662 14.441734215815417 1 rotate no_reflect no_shear #
lump $-1 $-1 $61 $13 #
transform $-1 1 0 0 0 1 0 0 0 1 48.448744163335064 33.597851912700662 14.441734215815417 1 rotate no_reflect no_shear #
lump $-1 $-1 $62 $14 #
transform $-1 1 0 0 0 1 0 0 0 1 48.448744163335064 33.597851912700662 14.441734215815417 1 rotate no_reflect no_shear #
lump $-1 $-1 $63 $15 #
transform $-1 1 0 0 0 1 0 0 0 1 48.448744163335064 33.597851912700662 14.441734215815417 1 rotate no_reflect no_shear #
shell $-1 $-1 $-1 $64 $-1 $16 #
shell $-1 $-1 $-1 $65 $-1 $18 #
shell $-1 $-1 $-1 $66 $-1 $20 #
shell $-1 $-1 $-1 $67 $-1 $22 #
shell $-1 $-1 $-1 $68 $-1 $24 #
shell $-1 $-1 $-1 $69 $-1 $26 #
shell $-1 $-1 $-1 $70 $-1 $28 #
shell $-1 $-1 $-1 $71 $-1 $30 #
shell $-1 $-1 $-1 $72 $-1 $32 #
shell $-1 $-1 $-1 $73 $-1 $34 #
shell $-1 $-1 $-1 $74 $-1 $36 #
shell $-1 $-1 $-1 $75 $-1 $38 #
shell $-1 $-1 $-1 $76 $-1 $40 #
shell $-1 $-1 $-1 $77 $-1 $42 #
shell $-1 $-1 $-1 $78 $-1 $44 #
shell $-1 $-1 $-1 $79 $-1 $46 #
face $-1 $80 $81 $48 $-1 $82 forward single #
face $-1 $83 $84 $49 $-1 $85 forward single #
face $-1 $86 $87 $50 $-1 $88 reversed single #
face $-1 $89 $90 $51 $-1 $91 forward single #
face $-1 $92 $93 $52 $-1 $94 forward single #
face $-1 $95 $96 $53 $-1 $97 reversed single #
face $-1 $98 $99 $54 $-1 $100 forward single #
face $-1 $101 $102 $55 $-1 $103 forward single #
face $-1 $104 $105 $56 $-1 $106 reversed single #
face $-1 $107 $108 $57 $-1 $109 forward single #
face $-1 $110 $111 $58 $-1 $112 forward single #
face $-1 $113 $114 $59 $-1 $115 reversed single #
face $-1 $116 $117 $60 $-1 $118 forward single #
face $-1 $119 $120 $61 $-1 $121 forward single #
face $-1 $122 $123 $62 $-1 $124 reversed single #
face $-1 $125 $126 $63 $-1 $127 forward single #
face $-1 $128 $129 $48 $-1 $130 reversed single #
loop $-1 $-1 $131 $64 #
plane-surface $-1 0 0 14.441734215815417 0 0 1 1 0 0 forward_v I I I I #
face $-1 $132 $133 $49 $-1 $134 reversed single #
loop $-1 $-1 $135 $65 #
plane-surface $-1 0 -24.418137011724291 7.5680051411866955 0 0 1 1 0 0 forward_v I I I I #
face $-1 $136 $137 $50 $-1 $138 reversed single #
loop $-1 $-1 $139 $66 #
plane-surface $-1 15.297282563694296 -13.100935197344825 136.80673033782705 0 1 0 0.51503808176128008 0 0.85716729658548041 forward_v I I I I #
face $-1 $140 $141 $51 $-1 $142 forward single #
loop $-1 $143 $144 $67 #
cone-surface $-1 39.371993190256255 -10.814063210238825 8.7140213134538911 -0.51503808176128008 0 -0.85716729658548041 0.4285836482927402 0 -0.25751904088064004 1 I I 0 1 0.5 forward I I I I #
face $-1 $145 $146 $52 $-1 $147 forward single #
loop $-1 $148 $149 $68 #
cone-surface $-1 39.371993190256255 -7.3837552295798226 8.7140213134538911 -0.51503808176128008 0 -0.85716729658548041 0.4285836482927402 0 -0.25751904088064004 1 I I 0 1 0.5 forward I I I I #
face $-1 $150 $151 $53 $-1 $152 reversed single #
loop $-1 $-1 $153 $69 #
plane-surface $-1 15.297282563694296 -0.89186669148268294 136.80673033782705 0 1 0 0.51503808176128008 0 0.85716729658548041 forward_v I I I I #
face $-1 $154 $155 $54 $-1 $156 forward single #
loop $-1 $157 $158 $70 #
cone-surface $-1 39.371993190256255 1.3950052956233208 8.7140213134538911 -0.51503808176128008 0 -0.85716729658548041 0.4285836482927402 0 -0.25751904088064004 1 I I 0 1 0.5 forward I I I I #
face $-1 $159 $160 $55 $-1 $161 forward single #
loop $-1 $162 $163 $71 #
cone-surface $-1 39.371993190256255 4.8253132762823228 8.7140213134538911 -0.51503808176128008 0 -0.85716729658548041 0.4285836482927402 0 -0.25751904088064004 1 I I 0 1 0.5 forward I I I I #
face $-1 $164 $165 $56 $-1 $166 reversed single #
loop $-1 $-1 $167 $72 #
plane-surface $-1 15.297282563694296 11.317201814379466 136.80673033782705 0 1 0 0.51503808176128008 0 0.85716729658548041 forward_v I I I I #
face $-1 $168 $169 $57 $-1 $170 forward single #
loop $-1 $171 $172 $73 #
cone-surface $-1 39.371993190256255 13.60407380148547 8.7140213134538911 -0.51503808176128008 0 -0.85716729658548041 0.4285836482927402 0 -0.25751904088064004 1 I I 0 1 0.5 forward I I I I #
face $-1 $173 $174 $58 $-1 $175 forward single #
loop $-1 $176 $177 $74 #
cone-surface $-1 39.371993190256255 17.034381782144465 8.7140213134538911 -0.51503808176128008 0 -0.85716729658548041 0.4285836482927402 0 -0.25751904088064004 1 I I 0 1 0.5 forward I I I I #
face $-1 $178 $179 $59 $-1 $180 reversed single #
loop $-1 $-1 $181 $75 #
plane-surface $-1 15.297282563694296 23.526270320241615 136.80673033782705 0 1 0 0.51503808176128008 0 0.85716729658548041 forward_v I I I I #
face $-1 $182 $183 $60 $-1 $184 forward single #
loop $-1 $185 $186 $76 #
cone-surface $-1 39.371993190256255 25.813142307347618 8.7140213134538911 -0.51503808176128008 0 -0.85716729658548041 0.4285836482927402 0 -0.25751904088064004 1 I I 0 1 0.5 forward I I I I #
face $-1 $187 $188 $61 $-1 $189 forward single #
loop $-1 $190 $191 $77 #
cone-surface $-1 39.371993190256255 29.243450288006613 8.7140213134538911 -0.51503808176128008 0 -0.85716729658548041 0.4285836482927402 0 -0.25751904088064004 1 I I 0 1 0.5 forward I I I I #
face $-1 $192 $193 $62 $-1 $194 reversed single #
loop $-1 $-1 $195 $78 #
plane-surface $-1 -106.76310908227607 26.548668103052066 88.280336287280775 0 1 0 -0.6018150307709319 0 0.79863550430605224 forward_v I I I I #
face $-1 $196 $197 $63 $-1 $198 forward single #
loop $-1 $199 $200 $79 #
cone-surface $-1 -45.511630572017864 30.073260007876364 11.893836938237662 0.6018150307709319 0 -0.79863550430605224 0.79863550430605224 0 0.6018150307709319 1 I I 0 1 1 forward I I I I #
face $-1 $201 $202 $48 $-1 $203 reversed single #
loop $-1 $-1 $204 $80 #
plane-surface $-1 0 0 -14.441734215815417 0 0 1 1 0 0 forward_v I I I I #
coedge $-1 $205 $206 $207 $208 forward $81 $-1 #
face $-1 $209 $210 $49 $-1 $211 reversed single #
loop $-1 $-1 $212 $83 #
plane-surface $-1 0 -24.418137011724291 3.0892913512677787 0 0 1 1 0 0 forward_v I I I I #
coedge $-1 $213 $214 $215 $216 reversed $84 $-1 #
face $-1 $217 $218 $50 $-1 $219 reversed single #
loop $-1 $-1 $220 $86 #
plane-surface $-1 -34.608613951559917 -9.0989092199093236 53.749372222932067 0.51503808176128008 0 0.85716729658548041 0.85716729658548041 0 -0.51503808176128008 forward_v I I I I #
coedge $-1 $221 $222 $223 $224 reversed $87 $-1 #
face $-1 $-1 $225 $51 $-1 $226 forward single #
loop $-1 $227 $228 $89 #
cone-surface $-1 38.985714628935298 -10.814063210238825 8.0711458410147809 -0.51503808176128008 0 -0.85716729658548041 0.2142918241463701 0 -0.12875952044032002 1 I I -0.70710678118654746 0.70710678118654746 0.25 forward I I I I #
loop $-1 $-1 $229 $67 #
coedge $-1 $144 $144 $230 $231 reversed $90 $-1 #
face $-1 $-1 $232 $52 $-1 $233 forward single #
loop $-1 $234 $235 $92 #
cone-surface $-1 38.985714628935298 -7.3837552295798226 8.0711458410147809 -0.51503808176128008 0 -0.85716729658548041 0.2142918241463701 0 -0.12875952044032002 1 I I -0.70710678118654746 0.70710678118654746 0.25 forward I I I I #
loop $-1 $-1 $236 $68 #
coedge $-1 $149 $149 $237 $238 reversed $93 $-1 #
face $-1 $239 $240 $53 $-1 $241 reversed single #
loop $-1 $-1 $242 $95 #
plane-surface $-1 -34.608613951559917 3.1101592859528182 53.749372222932067 0.51503808176128008 0 0.85716729658548041 0.85716729658548041 0 -0.51503808176128008 forward_v I I I I #
coedge $-1 $243 $244 $245 $246 reversed $96 $-1 #
face $-1 $-1 $247 $54 $-1 $248 forward single #
loop $-1 $249 $250 $98 #
cone-surface $-1 38.985714628935298 1.3950052956233208 8.0711458410147809 -0.51503808176128008 0 -0.85716729658548041 0.2142918241463701 0 -0.12875952044032002 1 I I -0.70710678118654746 0.70710678118654746 0.25 forward I I I I #
loop $-1 $-1 $251 $70 #
coedge $-1 $158 $158 $252 $253 reversed $99 $-1 #
face $-1 $-1 $254 $55 $-1 $255 forward single #
loop $-1 $256 $257 $101 #
cone-surface $-1 38.985714628935298 4.8253132762823228 8.0711458410147809 -0.51503808176128008 0 -0.85716729658548041 0.2142918241463701 0 -0.12875952044032002 1 I I -0.70710678118654746 0.70710678118654746 0.25 forward I I I I #
loop $-1 $-1 $258 $71 #
coedge $-1 $163 $163 $259 $260 reversed $102 $-1 #
face $-1 $261 $262 $56 $-1 $263 reversed single #
loop $-1 $-1 $264 $104 #
plane-surface $-1 -34.608613951559917 15.319227791814967 53.749372222932067 0.51503808176128008 0 0.85716729658548041 0.85716729658548041 0 -0.51503808176128008 forward_v I I I I #
coedge $-1 $265 $266 $267 $268 reversed $105 $-1 #
face $-1 $-1 $269 $57 $-1 $270 forward single #
loop $-1 $271 $272 $107 #
cone-surface $-1 38.985714628935298 13.60407380148547 8.0711458410147809 -0.51503808176128008 0 -0.85716729658548041 0.2142918241463701 0 -0.12875952044032002 1 I I -0.70710678118654746 0.70710678118654746 0.25 forward I I I I #
loop $-1 $-1 $273 $73 #
coedge $-1 $172 $172 $274 $275 reversed $108 $-1 #
face $-1 $-1 $276 $58 $-1 $277 forward single #
loop $-1 $278 $279 $110 #
cone-surface $-1 38.985714628935298 17.034381782144465 8.0711458410147809 -0.51503808176128008 0 -0.85716729658548041 0.2142918241463701 0 -0.12875952044032002 1 I I -0.70710678118654746 0.70710678118654746 0.25 forward I I I I #
loop $-1 $-1 $280 $74 #
coedge $-1 $177 $177 $281 $282 reversed $111 $-1 #
face $-1 $283 $284 $59 $-1 $285 reversed single #
loop $-1 $-1 $286 $113 #
plane-surface $-1 -34.608613951559917 27.528296297677116 53.749372222932067 0.51503808176128008 0 0.85716729658548041 0.85716729658548041 0 -0.51503808176128008 forward_v I I I I #
coedge $-1 $287 $288 $289 $290 reversed $114 $-1 #
face $-1 $-1 $291 $60 $-1 $292 forward single #
loop $-1 $293 $294 $116 #
cone-surface $-1 38.985714628935298 25.813142307347618 8.0711458410147809 -0.51503808176128008 0 -0.85716729658548041 0.2142918241463701 0 -0.12875952044032002 1 I I -0.70710678118654746 0.70710678118654746 0.25 forward I I I I #
loop $-1 $-1 $295 $76 #
coedge $-1 $186 $186 $296 $297 reversed $117 $-1 #
face $-1 $-1 $298 $61 $-1 $299 forward single #
loop $-1 $300 $301 $119 #
cone-surface $-1 38.985714628935298 29.243450288006613 8.0711458410147809 -0.51503808176128008 0 -0.85716729658548041 0.2142918241463701 0 -0.12875952044032002 1 I I -0.70710678118654746 0.70710678118654746 0.25 forward I I I I #
loop $-1 $-1 $302 $77 #
coedge $-1 $191 $191 $303 $304 reversed $120 $-1 #
face $-1 $305 $306 $62 $-1 $307 forward single #
loop $-1 $-1 $308 $122 #
plane-surface $-1 -48.448744163335078 30.073260007876364 10.894561831520761 -0.6018150307709319 0 0.79863550430605224 0.79863550430605224 0 0.6018150307709319 forward_v I I I I #
coedge $-1 $309 $310 $311 $312 reversed $123 $-1 #
face $-1 $-1 $313 $63 $-1 $314 forward single #
loop $-1 $315 $316 $125 #
cone-surface $-1 -44.627237790585404 30.073260007876364 10.720208100654203 0.6018150307709319 0 -0.79863550430605224 0.39931775215302612 0 0.30090751538546595 1 I I -0.70710678118654746 0.70710678118654746 0.5 forward I I I I #
loop $-1 $-1 $317 $79 #
coedge $-1 $200 $200 $318 $319 reversed $126 $-1 #
face $-1 $320 $321 $48 $-1 $322 reversed single #
loop $-1 $-1 $323 $128 #
plane-surface $-1 0 -33.597851912700662 0 0 1 0 0 0 1 forward_v I I I I #
coedge $-1 $324 $325 $326 $327 forward $129 $-1 #
coedge $-1 $328 $131 $329 $330 forward $81 $-1 #
coedge $-1 $131 $328 $331 $332 forward $81 $-1 #
coedge $-1 $333 $334 $131 $208 reversed $335 $-1 #
edge $-1 $336 -33.597851912700662 $337 33.597851912700662 $207 $338 forward 7 unknown #
face $-1 $339 $340 $49 $-1 $341 reversed single #
loop $-1 $-1 $342 $132 #
plane-surface $-1 0 -15.238422110747921 5.3286482462272371 0 -1 0 0 0 -1 forward_v I I I I #
coedge $-1 $343 $344 $345 $346 reversed $133 $-1 #
coedge $-1 $347 $135 $348 $349 forward $84 $-1 #
coedge $-1 $135 $347 $350 $351 reversed $84 $-1 #
coedge $-1 $352 $353 $135 $216 forward $354 $-1 #
edge $-1 $355 3.0293536048857757 $356 21.388783406838517 $215 $357 forward 7 unknown #
face $-1 $358 $359 $50 $-1 $360 forward single #
loop $-1 $-1 $361 $136 #
plane-surface $-1 15.297282563694296 -5.0968832424738224 136.80673033782705 0 -1 0 -0.51503808176128008 0 -0.85716729658548041 forward_v I I I I #
coedge $-1 $362 $363 $364 $365 reversed $137 $-1 #
coedge $-1 $222 $139 $366 $367 reversed $87 $-1 #
coedge $-1 $139 $221 $362 $368 reversed $87 $-1 #
coedge $-1 $364 $369 $139 $224 forward $370 $-1 #
edge $-1 $371 53.961630953098108 $372 64.55988946123567 $223 $373 forward 7 unknown #
loop $-1 $-1 $230 $140 #
plane-surface $-1 -34.608613951559917 -9.0989092199093236 53.749372222932067 0.51503808176128008 0 0.85716729658548041 0.85716729658548041 0 -0.51503808176128008 forward_v I I I I #
loop $-1 $-1 $374 $89 #
coedge $-1 $228 $228 $229 $375 reversed $141 $-1 #
coedge $-1 $229 $229 $228 $375 forward $143 $-1 #
coedge $-1 $230 $230 $144 $231 forward $225 $-1 #
edge $-1 $376 0 $376 6.2831853071796004 $230 $377 forward 7 unknown #
loop $-1 $-1 $237 $145 #
plane-surface $-1 -34.608613951559917 -9.0989092199093236 53.749372222932067 0.51503808176128008 0 0.85716729658548041 0.85716729658548041 0 -0.51503808176128008 forward_v I I I I #
loop $-1 $-1 $378 $92 #
coedge $-1 $235 $235 $236 $379 reversed $146 $-1 #
coedge $-1 $236 $236 $235 $379 forward $148 $-1 #
coedge $-1 $237 $237 $149 $238 forward $232 $-1 #
edge $-1 $380 0 $380 6.2831853071796004 $237 $381 forward 7 unknown #
face $-1 $382 $383 $53 $-1 $384 reversed single #
loop $-1 $-1 $385 $150 #
plane-surface $-1 15.297282563694296 7.1121852633883194 136.80673033782705 0 -1 0 -0.51503808176128008 0 -0.85716729658548041 forward_v I I I I #
coedge $-1 $386 $387 $388 $389 reversed $151 $-1 #
coedge $-1 $244 $153 $390 $391 reversed $96 $-1 #
coedge $-1 $153 $243 $386 $392 reversed $96 $-1 #
coedge $-1 $388 $393 $153 $246 forward $383 $-1 #
edge $-1 $394 53.961630953098108 $395 64.55988946123567 $245 $396 forward 7 unknown #
loop $-1 $-1 $252 $154 #
plane-surface $-1 -34.608613951559917 3.1101592859528182 53.749372222932067 0.51503808176128008 0 0.85716729658548041 0.85716729658548041 0 -0.51503808176128008 forward_v I I I I #
loop $-1 $-1 $397 $98 #
coedge $-1 $250 $250 $251 $398 reversed $155 $-1 #
coedge $-1 $251 $251 $250 $398 forward $157 $-1 #
coedge $-1 $252 $252 $158 $253 forward $247 $-1 #
edge $-1 $399 0 $399 6.2831853071796004 $252 $400 forward 7 unknown #
loop $-1 $-1 $259 $159 #
plane-surface $-1 -34.608613951559917 3.1101592859528182 53.749372222932067 0.51503808176128008 0 0.85716729658548041 0.85716729658548041 0 -0.51503808176128008 forward_v I I I I #
loop $-1 $-1 $401 $101 #
coedge $-1 $257 $257 $258 $402 reversed $160 $-1 #
coedge $-1 $258 $258 $257 $402 forward $162 $-1 #
coedge $-1 $259 $259 $163 $260 forward $254 $-1 #
edge $-1 $403 0 $403 6.2831853071796004 $259 $404 forward 7 unknown #
face $-1 $405 $406 $56 $-1 $407 reversed single #
loop $-1 $-1 $408 $164 #
plane-surface $-1 15.297282563694296 19.321253769250468 136.80673033782705 0 -1 0 -0.51503808176128008 0 -0.85716729658548041 forward_v I I I I #
coedge $-1 $409 $410 $411 $412 reversed $165 $-1 #
coedge $-1 $266 $167 $413 $414 reversed $105 $-1 #
coedge $-1 $167 $265 $409 $415 reversed $105 $-1 #
coedge $-1 $411 $416 $167 $268 forward $406 $-1 #
edge $-1 $417 53.961630953098108 $418 64.55988946123567 $267 $419 forward 7 unknown #
loop $-1 $-1 $274 $168 #
plane-surface $-1 -34.608613951559917 15.319227791814967 53.749372222932067 0.51503808176128008 0 0.85716729658548041 0.85716729658548041 0 -0.51503808176128008 forward_v I I I I #
loop $-1 $-1 $420 $107 #
coedge $-1 $272 $272 $273 $421 reversed $169 $-1 #
coedge $-1 $273 $273 $272 $421 forward $171 $-1 #
coedge $-1 $274 $274 $172 $275 forward $269 $-1 #
edge $-1 $422 0 $422 6.2831853071796004 $274 $423 forward 7 unknown #
loop $-1 $-1 $281 $173 #
plane-surface $-1 -34.608613951559917 15.319227791814967 53.749372222932067 0.51503808176128008 0 0.85716729658548041 0.85716729658548041 0 -0.51503808176128008 forward_v I I I I #
loop $-1 $-1 $424 $110 #
coedge $-1 $279 $279 $280 $425 reversed $174 $-1 #
coedge $-1 $280 $280 $279 $425 forward $176 $-1 #
coedge $-1 $281 $281 $177 $282 forward $276 $-1 #
edge $-1 $426 0 $426 6.2831853071796004 $281 $427 forward 7 unknown #
face $-1 $428 $429 $59 $-1 $430 reversed single #
loop $-1 $-1 $431 $178 #
plane-surface $-1 15.297282563694296 31.530322275112617 136.80673033782705 0 -1 0 -0.51503808176128008 0 -0.85716729658548041 forward_v I I I I #
coedge $-1 $432 $433 $434 $435 reversed $179 $-1 #
coedge $-1 $288 $181 $436 $437 reversed $114 $-1 #
coedge $-1 $181 $287 $432 $438 reversed $114 $-1 #
coedge $-1 $434 $439 $181 $290 forward $429 $-1 #
edge $-1 $440 53.961630953098108 $441 64.55988946123567 $289 $442 forward 7 unknown #
loop $-1 $-1 $296 $182 #
plane-surface $-1 -34.608613951559917 27.528296297677116 53.749372222932067 0.51503808176128008 0 0.85716729658548041 0.85716729658548041 0 -0.51503808176128008 forward_v I I I I #
loop $-1 $-1 $443 $116 #
coedge $-1 $294 $294 $295 $444 reversed $183 $-1 #
coedge $-1 $295 $295 $294 $444 forward $185 $-1 #
coedge $-1 $296 $296 $186 $297 forward $291 $-1 #
edge $-1 $445 0 $445 6.2831853071796004 $296 $446 forward 7 unknown #
loop $-1 $-1 $303 $187 #
plane-surface $-1 -34.608613951559917 27.528296297677116 53.749372222932067 0.51503808176128008 0 0.85716729658548041 0.85716729658548041 0 -0.51503808176128008 forward_v I I I I #
loop $-1 $-1 $447 $119 #
coedge $-1 $301 $301 $302 $448 reversed $188 $-1 #
coedge $-1 $302 $302 $301 $448 forward $190 $-1 #
coedge $-1 $303 $303 $191 $304 forward $298 $-1 #
edge $-1 $449 0 $449 6.2831853071796004 $303 $450 forward 7 unknown #
face $-1 $451 $452 $62 $-1 $453 reversed single #
loop $-1 $-1 $311 $192 #
plane-surface $-1 0 0 14.441734215815417 0 0 1 1 0 0 forward_v I I I I #
coedge $-1 $454 $455 $456 $457 reversed $193 $-1 #
coedge $-1 $310 $195 $458 $459 reversed $123 $-1 #
coedge $-1 $195 $309 $454 $460 reversed $123 $-1 #
coedge $-1 $456 $461 $195 $312 forward $306 $-1 #
edge $-1 $462 4.9328103778029728 $463 9.6400670283433882 $311 $464 forward 7 unknown #
loop $-1 $-1 $318 $196 #
plane-surface $-1 -48.448744163335078 30.073260007876364 10.894561831520761 -0.6018150307709319 0 0.79863550430605224 0.79863550430605224 0 0.6018150307709319 forward_v I I I I #
loop $-1 $-1 $465 $125 #
coedge $-1 $316 $316 $317 $466 reversed $197 $-1 #
coedge $-1 $317 $317 $316 $466 forward $199 $-1 #
coedge $-1 $318 $318 $200 $319 forward $313 $-1 #
edge $-1 $467 0 $467 6.2831853071796004 $318 $468 forward 7 unknown #
face $-1 $469 $470 $48 $-1 $471 reversed single #
loop $-1 $-1 $472 $201 #
plane-surface $-1 -48.448744163335064 0 0 1 0 0 0 0 -1 forward_v I I I I #
coedge $-1 $473 $331 $474 $475 forward $202 $-1 #
coedge $-1 $476 $204 $473 $477 forward $129 $-1 #
coedge $-1 $204 $476 $478 $479 forward $129 $-1 #
coedge $-1 $334 $333 $204 $327 reversed $335 $-1 #
edge $-1 $480 -33.597851912700662 $481 33.597851912700662 $326 $482 forward 7 unknown #
coedge $-1 $206 $205 $483 $484 forward $81 $-1 #
coedge $-1 $485 $486 $205 $330 reversed $470 $-1 #
edge $-1 $337 -48.448744163335064 $487 48.448744163335064 $329 $488 forward 7 unknown #
coedge $-1 $323 $489 $206 $332 reversed $202 $-1 #
edge $-1 $490 -48.448744163335064 $336 48.448744163335064 $331 $491 forward 7 unknown #
coedge $-1 $326 $207 $489 $492 forward $335 $-1 #
coedge $-1 $207 $326 $485 $493 reversed $335 $-1 #
loop $-1 $-1 $333 $469 #
vertex $-1 $208 $494 #
vertex $-1 $208 $495 #
straight-curve $-1 48.448744163335064 0 14.441734215815417 0 1 0 I I #
face $-1 $496 $497 $49 $-1 $498 reversed single #
loop $-1 $-1 $499 $209 #
plane-surface $-1 -48.448744163335064 0 0 1 0 0 0 0 -1 forward_v I I I I #
coedge $-1 $500 $348 $353 $501 reversed $210 $-1 #
coedge $-1 $502 $212 $503 $504 reversed $133 $-1 #
coedge $-1 $212 $502 $500 $505 forward $133 $-1 #
coedge $-1 $353 $352 $212 $346 forward $354 $-1 #
edge $-1 $506 -21.388783406838517 $507 -3.0293536048857757 $345 $508 forward 7 unknown #
coedge $-1 $214 $213 $499 $509 reversed $84 $-1 #
coedge $-1 $342 $510 $213 $349 reversed $210 $-1 #
edge $-1 $355 -48.448744163335064 $511 48.448744163335064 $348 $512 forward 7 unknown #
coedge $-1 $513 $514 $214 $351 forward $497 $-1 #
edge $-1 $356 -48.448744163335064 $515 48.448744163335064 $350 $516 forward 7 unknown #
coedge $-1 $345 $215 $514 $517 forward $354 $-1 #
coedge $-1 $215 $345 $342 $501 forward $354 $-1 #
loop $-1 $-1 $215 $496 #
vertex $-1 $216 $518 #
vertex $-1 $517 $519 #
straight-curve $-1 48.448744163335064 -12.209068505862145 7.5680051411866955 0 -1 0 I I #
face $-1 $-1 $370 $50 $-1 $520 reversed single #
loop $-1 $-1 $521 $217 #
plane-surface $-1 0 0 14.441734215815417 0 0 1 1 0 0 forward_v I I I I #
coedge $-1 $522 $523 $524 $525 reversed $218 $-1 #
coedge $-1 $526 $220 $222 $368 forward $137 $-1 #
coedge $-1 $220 $526 $522 $527 forward $137 $-1 #
coedge $-1 $524 $223 $220 $365 forward $370 $-1 #
edge $-1 $372 -8.5514805873901629 $528 -0.54742863251916063 $364 $529 forward 7 unknown #
coedge $-1 $530 $531 $221 $367 forward $359 $-1 #
edge $-1 $532 23.161639017091588 $371 40.800102881487916 $366 $533 forward 7 unknown #
edge $-1 $372 -96.897488326670128 $532 -76.319867208063499 $222 $534 forward 7 unknown #
coedge $-1 $223 $524 $530 $535 reversed $370 $-1 #
loop $-1 $-1 $524 $358 #
vertex $-1 $535 $536 #
vertex $-1 $224 $537 #
straight-curve $-1 48.448744163335064 -13.100935197344825 68.403365168913524 0 0 -1 I I #
coedge $-1 $374 $374 $-1 $538 reversed $227 $-1 #
edge $-1 $539 0 $539 6.2831853071796004 $228 $540 forward 7 unknown #
vertex $-1 $231 $541 #
ellipse-curve $-1 39.6295122311369 -10.814063210238825 9.1426049617466383 0.51503808176128008 0 0.85716729658548041 0.4285836482927402 0 -0.25751904088064004 1 I I #
coedge $-1 $378 $378 $-1 $542 reversed $234 $-1 #
edge $-1 $543 0 $543 6.2831853071796004 $235 $544 forward 7 unknown #
vertex $-1 $238 $545 #
ellipse-curve $-1 39.6295122311369 -7.3837552295798226 9.1426049617466383 0.51503808176128008 0 0.85716729658548041 0.4285836482927402 0 -0.25751904088064004 1 I I #
face $-1 $-1 $546 $53 $-1 $547 forward single #
loop $-1 $-1 $245 $239 #
plane-surface $-1 48.448744163335064 0 0 -1 0 0 0 0 1 forward_v I I I I #
coedge $-1 $548 $549 $550 $551 reversed $240 $-1 #
coedge $-1 $552 $242 $244 $392 forward $151 $-1 #
coedge $-1 $242 $552 $548 $553 forward $151 $-1 #
coedge $-1 $550 $245 $242 $389 forward $383 $-1 #
edge $-1 $395 -2.446946334459092 $554 5.5571056204119103 $388 $555 forward 7 unknown #
coedge $-1 $556 $557 $243 $391 forward $546 $-1 #
edge $-1 $558 23.161639017091588 $394 40.800102881487916 $390 $559 forward 7 unknown #
edge $-1 $395 -96.897488326670128 $558 -76.319867208063499 $244 $560 forward 7 unknown #
coedge $-1 $245 $550 $556 $561 reversed $383 $-1 #
vertex $-1 $561 $562 #
vertex $-1 $246 $563 #
straight-curve $-1 48.448744163335064 -0.89186669148268294 68.403365168913524 0 0 -1 I I #
coedge $-1 $397 $397 $-1 $564 reversed $249 $-1 #
edge $-1 $565 0 $565 6.2831853071796004 $250 $566 forward 7 unknown #
vertex $-1 $253 $567 #
ellipse-curve $-1 39.6295122311369 1.3950052956233208 9.1426049617466383 0.51503808176128008 0 0.85716729658548041 0.4285836482927402 0 -0.25751904088064004 1 I I #
coedge $-1 $401 $401 $-1 $568 reversed $256 $-1 #
edge $-1 $569 0 $569 6.2831853071796004 $257 $570 forward 7 unknown #
vertex $-1 $260 $571 #
ellipse-curve $-1 39.6295122311369 4.8253132762823228 9.1426049617466383 0.51503808176128008 0 0.85716729658548041 0.4285836482927402 0 -0.25751904088064004 1 I I #
face $-1 $-1 $572 $56 $-1 $573 forward single #
loop $-1 $-1 $267 $261 #
plane-surface $-1 48.448744163335064 0 0 -1 0 0 0 0 1 forward_v I I I I #
coedge $-1 $574 $575 $576 $577 reversed $262 $-1 #
coedge $-1 $578 $264 $266 $415 forward $165 $-1 #
coedge $-1 $264 $578 $574 $579 forward $165 $-1 #
coedge $-1 $576 $267 $264 $412 forward $406 $-1 #
edge $-1 $418 3.6575879184719824 $580 11.661639873342985 $411 $581 forward 7 unknown #
coedge $-1 $582 $583 $265 $414 forward $572 $-1 #
edge $-1 $584 23.161639017091588 $417 40.800102881487916 $413 $585 forward 7 unknown #
edge $-1 $418 -96.897488326670128 $584 -76.319867208063499 $266 $586 forward 7 unknown #
coedge $-1 $267 $576 $582 $587 reversed $406 $-1 #
vertex $-1 $587 $588 #
vertex $-1 $268 $589 #
straight-curve $-1 48.448744163335064 11.317201814379466 68.403365168913524 0 0 -1 I I #
coedge $-1 $420 $420 $-1 $590 reversed $271 $-1 #
edge $-1 $591 0 $591 6.2831853071796004 $272 $592 forward 7 unknown #
vertex $-1 $275 $593 #
ellipse-curve $-1 39.6295122311369 13.60407380148547 9.1426049617466383 0.51503808176128008 0 0.85716729658548041 0.4285836482927402 0 -0.25751904088064004 1 I I #
coedge $-1 $424 $424 $-1 $594 reversed $278 $-1 #
edge $-1 $595 0 $595 6.2831853071796004 $279 $596 forward 7 unknown #
vertex $-1 $282 $597 #
ellipse-curve $-1 39.6295122311369 17.034381782144465 9.1426049617466383 0.51503808176128008 0 0.85716729658548041 0.4285836482927402 0 -0.25751904088064004 1 I I #
face $-1 $-1 $598 $59 $-1 $599 forward single #
loop $-1 $-1 $289 $283 #
plane-surface $-1 48.448744163335064 0 0 -1 0 0 0 0 1 forward_v I I I I #
coedge $-1 $600 $601 $602 $603 reversed $284 $-1 #
coedge $-1 $604 $286 $288 $438 forward $179 $-1 #
coedge $-1 $286 $604 $600 $605 forward $179 $-1 #
coedge $-1 $602 $289 $286 $435 forward $429 $-1 #
edge $-1 $441 9.7621221714030568 $606 17.766174126274059 $434 $607 forward 7 unknown #
coedge $-1 $608 $609 $287 $437 forward $598 $-1 #
edge $-1 $610 23.161639017091588 $440 40.800102881487916 $436 $611 forward 7 unknown #
edge $-1 $441 -96.897488326670128 $610 -76.319867208063499 $288 $612 forward 7 unknown #
coedge $-1 $289 $602 $608 $613 reversed $429 $-1 #
vertex $-1 $613 $614 #
vertex $-1 $290 $615 #
straight-curve $-1 48.448744163335064 23.526270320241615 68.403365168913524 0 0 -1 I I #
coedge $-1 $443 $443 $-1 $616 reversed $293 $-1 #
edge $-1 $617 0 $617 6.2831853071796004 $294 $618 forward 7 unknown #
vertex $-1 $297 $619 #
ellipse-curve $-1 39.6295122311369 25.813142307347618 9.1426049617466383 0.51503808176128008 0 0.85716729658548041 0.4285836482927402 0 -0.25751904088064004 1 I I #
coedge $-1 $447 $447 $-1 $620 reversed $300 $-1 #
edge $-1 $621 0 $621 6.2831853071796004 $301 $622 forward 7 unknown #
vertex $-1 $304 $623 #
ellipse-curve $-1 39.6295122311369 29.243450288006613 9.1426049617466383 0.51503808176128008 0 0.85716729658548041 0.4285836482927402 0 -0.25751904088064004 1 I I #
face $-1 $-1 $624 $62 $-1 $625 reversed single #
loop $-1 $-1 $626 $305 #
plane-surface $-1 0 33.597851912700662 0 0 -1 0 0 0 -1 forward_v I I I I #
coedge $-1 $627 $308 $310 $460 forward $193 $-1 #
coedge $-1 $308 $627 $626 $628 reversed $193 $-1 #
coedge $-1 $629 $311 $308 $457 forward $306 $-1 #
edge $-1 $463 11.512038099113884 $630 18.56122190876248 $456 $631 forward 7 unknown #
coedge $-1 $632 $633 $309 $459 forward $624 $-1 #
edge $-1 $634 -33.245606312119619 $462 -29.698433927824972 $458 $635 forward 7 unknown #
edge $-1 $463 -5.894123946606463 $634 -1.7763522597878294e-014 $310 $636 forward 7 unknown #
coedge $-1 $311 $629 $632 $637 forward $306 $-1 #
vertex $-1 $459 $638 #
vertex $-1 $312 $639 #
straight-curve $-1 -53.381554541138037 26.548668103052066 14.441734215815416 1 0 0 I I #
coedge $-1 $465 $465 $-1 $640 reversed $315 $-1 #
edge $-1 $641 0 $641 6.2831853071796004 $316 $642 forward 7 unknown #
vertex $-1 $319 $643 #
ellipse-curve $-1 -46.095115838064856 30.073260007876364 12.668148023668095 -0.6018150307709319 0 0.79863550430605224 0.79863550430605224 0 0.6018150307709319 1 I I #
face $-1 $-1 $335 $48 $-1 $644 reversed single #
loop $-1 $-1 $485 $320 #
plane-surface $-1 0 33.597851912700662 0 0 -1 0 0 0 -1 forward_v I I I I #
coedge $-1 $645 $483 $486 $646 forward $321 $-1 #
coedge $-1 $489 $323 $324 $477 reversed $202 $-1 #
coedge $-1 $483 $645 $323 $475 reversed $321 $-1 #
edge $-1 $490 -14.441734215815417 $647 14.441734215815417 $474 $648 forward 7 unknown #
coedge $-1 $325 $324 $645 $649 forward $129 $-1 #
edge $-1 $481 -48.448744163335064 $647 48.448744163335064 $473 $650 forward 7 unknown #
coedge $-1 $486 $485 $325 $479 reversed $470 $-1 #
edge $-1 $651 -48.448744163335064 $480 48.448744163335064 $478 $652 forward 7 unknown #
vertex $-1 $327 $653 #
vertex $-1 $492 $654 #
straight-curve $-1 48.448744163335064 0 -14.441734215815417 0 -1 0 I I #
coedge $-1 $472 $474 $328 $484 reversed $321 $-1 #
edge $-1 $487 -33.597851912700662 $490 33.597851912700662 $483 $655 forward 7 unknown #
coedge $-1 $478 $329 $334 $493 forward $470 $-1 #
coedge $-1 $329 $478 $472 $646 reversed $470 $-1 #
vertex $-1 $330 $656 #
straight-curve $-1 0 33.597851912700662 14.441734215815417 -1 0 0 I I #
coedge $-1 $331 $473 $333 $492 reversed $202 $-1 #
vertex $-1 $484 $657 #
straight-curve $-1 0 -33.597851912700662 14.441734215815417 1 0 0 I I #
edge $-1 $336 -14.441734215815417 $481 14.441734215815417 $333 $658 forward 7 unknown #
edge $-1 $337 -14.441734215815417 $480 14.441734215815417 $334 $659 forward 7 unknown #
point $-1 48.448744163335064 -33.597851912700662 14.441734215815417 #
point $-1 48.448744163335064 33.597851912700662 14.441734215815417 #
face $-1 $-1 $354 $49 $-1 $660 reversed single #
loop $-1 $-1 $350 $339 #
plane-surface $-1 0 -33.597851912700662 0 0 1 0 0 0 1 forward_v I I I I #
coedge $-1 $661 $662 $347 $509 forward $340 $-1 #
coedge $-1 $510 $342 $344 $505 reversed $210 $-1 #
edge $-1 $507 0.4249672281541601 $355 4.903681018073077 $353 $663 forward 7 unknown #
coedge $-1 $344 $343 $664 $665 reversed $133 $-1 #
coedge $-1 $514 $513 $343 $504 forward $497 $-1 #
edge $-1 $666 -48.448744163335064 $506 48.448744163335064 $503 $667 forward 7 unknown #
edge $-1 $668 -48.448744163335064 $507 48.448744163335064 $500 $669 forward 7 unknown #
vertex $-1 $504 $670 #
vertex $-1 $346 $671 #
straight-curve $-1 48.448744163335064 -12.209068505862145 3.0892913512677787 0 1 0 I I #
edge $-1 $515 -21.388783406838517 $511 -3.0293536048857757 $499 $672 forward 7 unknown #
coedge $-1 $348 $500 $661 $673 reversed $210 $-1 #
vertex $-1 $509 $674 #
straight-curve $-1 0 -15.238422110747921 7.5680051411866955 -1 0 0 I I #
coedge $-1 $503 $350 $662 $675 forward $497 $-1 #
coedge $-1 $350 $503 $352 $517 reversed $497 $-1 #
vertex $-1 $675 $676 #
straight-curve $-1 0 -33.597851912700662 7.5680051411866955 -1 0 0 I I #
edge $-1 $356 -7.5680051411866955 $506 -3.0892913512677787 $352 $677 forward 7 unknown #
point $-1 48.448744163335064 -15.238422110747921 7.5680051411866955 #
point $-1 48.448744163335064 -33.597851912700662 7.5680051411866955 #
plane-surface $-1 48.448744163335064 0 0 -1 0 0 0 0 1 forward_v I I I I #
coedge $-1 $531 $530 $523 $678 forward $359 $-1 #
coedge $-1 $523 $361 $363 $527 reversed $218 $-1 #
coedge $-1 $361 $522 $521 $678 reversed $218 $-1 #
coedge $-1 $369 $364 $361 $525 forward $370 $-1 #
edge $-1 $528 -64.55988946123567 $679 -53.961630953098108 $524 $680 forward 7 unknown #
coedge $-1 $363 $362 $531 $681 reversed $137 $-1 #
edge $-1 $682 76.319867208063499 $528 96.897488326670128 $522 $683 forward 7 unknown #
vertex $-1 $365 $684 #
straight-curve $-1 48.448744163335064 -4.5494546099546618 3.8434757076778574 0 1 0 I I #
coedge $-1 $521 $366 $369 $535 forward $359 $-1 #
coedge $-1 $366 $521 $526 $681 forward $359 $-1 #
vertex $-1 $367 $685 #
straight-curve $-1 7.6486412818471479 -13.100935197344825 14.441734215815416 1 0 0 I I #
straight-curve $-1 -34.608613951559917 -13.100935197344825 53.749372222932067 -0.85716729658548041 0 0.51503808176128008 I I #
edge $-1 $371 -13.100935197344825 $679 -5.0968832424738224 $369 $686 forward 7 unknown #
point $-1 48.448744163335064 -13.100935197344825 14.441734215815417 #
point $-1 48.448744163335064 -13.100935197344825 3.8434757076778538 #
edge $-1 $687 1 $687 0 $374 $-1 forward 7 unknown #
vertex $-1 $375 $688 #
ellipse-curve $-1 39.114474149375617 -10.814063210238825 8.285437665161151 0.51503808176128008 0 0.85716729658548041 0.4285836482927402 0 -0.25751904088064004 1 I I #
point $-1 40.058095879429636 -10.814063210238825 8.8850859208659916 #
edge $-1 $689 1 $689 0 $378 $-1 forward 7 unknown #
vertex $-1 $379 $690 #
ellipse-curve $-1 39.114474149375617 -7.3837552295798226 8.285437665161151 0.51503808176128008 0 0.85716729658548041 0.4285836482927402 0 -0.25751904088064004 1 I I #
point $-1 40.058095879429636 -7.3837552295798226 8.8850859208659916 #
loop $-1 $-1 $390 $382 #
plane-surface $-1 0 0 14.441734215815417 0 0 1 1 0 0 forward_v I I I I #
coedge $-1 $549 $385 $387 $553 reversed $240 $-1 #
coedge $-1 $385 $548 $691 $692 reversed $240 $-1 #
coedge $-1 $393 $388 $385 $551 forward $383 $-1 #
edge $-1 $554 -64.55988946123567 $693 -53.961630953098108 $550 $694 forward 7 unknown #
coedge $-1 $387 $386 $557 $695 reversed $151 $-1 #
edge $-1 $696 76.319867208063499 $554 96.897488326670128 $548 $697 forward 7 unknown #
vertex $-1 $389 $698 #
straight-curve $-1 48.448744163335064 1.5550796429764091 3.8434757076778574 0 1 0 I I #
coedge $-1 $691 $390 $393 $561 forward $546 $-1 #
coedge $-1 $390 $691 $552 $695 forward $546 $-1 #
vertex $-1 $391 $699 #
straight-curve $-1 7.6486412818471479 -0.89186669148268294 14.441734215815416 1 0 0 I I #
straight-curve $-1 -34.608613951559917 -0.89186669148268294 53.749372222932067 -0.85716729658548041 0 0.51503808176128008 I I #
edge $-1 $394 -0.89186669148268294 $693 7.1121852633883194 $393 $700 forward 7 unknown #
point $-1 48.448744163335064 -0.89186669148268294 14.441734215815417 #
point $-1 48.448744163335064 -0.89186669148268294 3.8434757076778538 #
edge $-1 $701 1 $701 0 $397 $-1 forward 7 unknown #
vertex $-1 $398 $702 #
ellipse-curve $-1 39.114474149375617 1.3950052956233208 8.285437665161151 0.51503808176128008 0 0.85716729658548041 0.4285836482927402 0 -0.25751904088064004 1 I I #
point $-1 40.058095879429636 1.3950052956233208 8.8850859208659916 #
edge $-1 $703 1 $703 0 $401 $-1 forward 7 unknown #
vertex $-1 $402 $704 #
ellipse-curve $-1 39.114474149375617 4.8253132762823228 8.285437665161151 0.51503808176128008 0 0.85716729658548041 0.4285836482927402 0 -0.25751904088064004 1 I I #
point $-1 40.058095879429636 4.8253132762823228 8.8850859208659916 #
loop $-1 $-1 $413 $405 #
plane-surface $-1 0 0 14.441734215815417 0 0 1 1 0 0 forward_v I I I I #
coedge $-1 $575 $408 $410 $579 reversed $262 $-1 #
coedge $-1 $408 $574 $705 $706 reversed $262 $-1 #
coedge $-1 $416 $411 $408 $577 forward $406 $-1 #
edge $-1 $580 -64.55988946123567 $707 -53.961630953098108 $576 $708 forward 7 unknown #
coedge $-1 $410 $409 $583 $709 reversed $165 $-1 #
edge $-1 $710 76.319867208063499 $580 96.897488326670128 $574 $711 forward 7 unknown #
vertex $-1 $412 $712 #
straight-curve $-1 48.448744163335064 7.6596138959074835 3.8434757076778574 0 1 0 I I #
coedge $-1 $705 $413 $416 $587 forward $572 $-1 #
coedge $-1 $413 $705 $578 $709 forward $572 $-1 #
vertex $-1 $414 $713 #
straight-curve $-1 7.6486412818471479 11.317201814379466 14.441734215815416 1 0 0 I I #
straight-curve $-1 -34.608613951559917 11.317201814379466 53.749372222932067 -0.85716729658548041 0 0.51503808176128008 I I #
edge $-1 $417 11.317201814379466 $707 19.321253769250468 $416 $714 forward 7 unknown #
point $-1 48.448744163335064 11.317201814379466 14.441734215815417 #
point $-1 48.448744163335064 11.317201814379466 3.8434757076778538 #
edge $-1 $715 1 $715 0 $420 $-1 forward 7 unknown #
vertex $-1 $421 $716 #
ellipse-curve $-1 39.114474149375617 13.60407380148547 8.285437665161151 0.51503808176128008 0 0.85716729658548041 0.4285836482927402 0 -0.25751904088064004 1 I I #
point $-1 40.058095879429636 13.60407380148547 8.8850859208659916 #
edge $-1 $717 1 $717 0 $424 $-1 forward 7 unknown #
vertex $-1 $425 $718 #
ellipse-curve $-1 39.114474149375617 17.034381782144465 8.285437665161151 0.51503808176128008 0 0.85716729658548041 0.4285836482927402 0 -0.25751904088064004 1 I I #
point $-1 40.058095879429636 17.034381782144465 8.8850859208659916 #
loop $-1 $-1 $436 $428 #
plane-surface $-1 0 0 14.441734215815417 0 0 1 1 0 0 forward_v I I I I #
coedge $-1 $601 $431 $433 $605 reversed $284 $-1 #
coedge $-1 $431 $600 $719 $720 reversed $284 $-1 #
coedge $-1 $439 $434 $431 $603 forward $429 $-1 #
edge $-1 $606 -64.55988946123567 $721 -53.961630953098108 $602 $722 forward 7 unknown #
coedge $-1 $433 $432 $609 $723 reversed $179 $-1 #
edge $-1 $724 76.319867208063499 $606 96.897488326670128 $600 $725 forward 7 unknown #
vertex $-1 $435 $726 #
straight-curve $-1 48.448744163335064 13.764148148838558 3.8434757076778574 0 1 0 I I #
coedge $-1 $719 $436 $439 $613 forward $598 $-1 #
coedge $-1 $436 $719 $604 $723 forward $598 $-1 #
vertex $-1 $437 $727 #
straight-curve $-1 7.6486412818471479 23.526270320241615 14.441734215815416 1 0 0 I I #
straight-curve $-1 -34.608613951559917 23.526270320241615 53.749372222932067 -0.85716729658548041 0 0.51503808176128008 I I #
edge $-1 $440 23.526270320241615 $721 31.530322275112617 $439 $728 forward 7 unknown #
point $-1 48.448744163335064 23.526270320241615 14.441734215815417 #
point $-1 48.448744163335064 23.526270320241615 3.8434757076778538 #
edge $-1 $729 1 $729 0 $443 $-1 forward 7 unknown #
vertex $-1 $444 $730 #
ellipse-curve $-1 39.114474149375617 25.813142307347618 8.285437665161151 0.51503808176128008 0 0.85716729658548041 0.4285836482927402 0 -0.25751904088064004 1 I I #
point $-1 40.058095879429636 25.813142307347618 8.8850859208659916 #
edge $-1 $731 1 $731 0 $447 $-1 forward 7 unknown #
vertex $-1 $448 $732 #
ellipse-curve $-1 39.114474149375617 29.243450288006613 8.285437665161151 0.51503808176128008 0 0.85716729658548041 0.4285836482927402 0 -0.25751904088064004 1 I I #
point $-1 40.058095879429636 29.243450288006613 8.8850859208659916 #
loop $-1 $-1 $458 $451 #
plane-surface $-1 -48.448744163335064 0 0 1 0 0 0 0 -1 forward_v I I I I #
coedge $-1 $733 $734 $455 $628 forward $452 $-1 #
coedge $-1 $455 $454 $633 $735 reversed $193 $-1 #
edge $-1 $630 10.174064135397302 $736 16.068188082003747 $626 $737 forward 7 unknown #
coedge $-1 $461 $456 $734 $738 forward $306 $-1 #
vertex $-1 $738 $739 #
straight-curve $-1 -43.741487512794649 15.036630003938182 14.441734215815419 0 1 0 I I #
coedge $-1 $740 $458 $461 $637 reversed $624 $-1 #
coedge $-1 $458 $740 $627 $735 forward $624 $-1 #
vertex $-1 $459 $741 #
straight-curve $-1 -48.448744163335064 26.548668103052066 44.140168143640388 0 0 1 I I #
straight-curve $-1 -48.448744163335078 26.548668103052066 10.894561831520761 -0.79863550430605224 0 -0.6018150307709319 I I #
edge $-1 $742 -33.597851912700662 $462 -26.548668103052066 $632 $743 forward 7 unknown #
point $-1 -48.448744163335064 26.548668103052066 14.441734215815417 #
point $-1 -43.741487512794649 26.548668103052066 14.441734215815417 #
edge $-1 $744 1 $744 0 $465 $-1 forward 7 unknown #
vertex $-1 $466 $745 #
ellipse-curve $-1 -44.928145305970872 30.073260007876364 11.119525852807229 -0.6018150307709319 0 0.79863550430605224 0.79863550430605224 0 0.6018150307709319 1 I I #
point $-1 -45.296480333758801 30.073260007876364 13.269963054439025 #
plane-surface $-1 48.448744163335064 0 0 -1 0 0 0 0 1 forward_v I I I I #
coedge $-1 $474 $472 $476 $649 reversed $321 $-1 #
edge $-1 $487 -14.441734215815417 $651 14.441734215815417 $486 $746 forward 7 unknown #
vertex $-1 $649 $747 #
straight-curve $-1 -48.448744163335064 -33.597851912700662 0 0 0 -1 I I #
edge $-1 $647 -33.597851912700662 $651 33.597851912700662 $645 $748 forward 7 unknown #
straight-curve $-1 0 -33.597851912700662 -14.441734215815417 -1 0 0 I I #
vertex $-1 $479 $749 #
straight-curve $-1 0 33.597851912700662 -14.441734215815417 1 0 0 I I #
point $-1 48.448744163335064 33.597851912700662 -14.441734215815417 #
point $-1 48.448744163335064 -33.597851912700662 -14.441734215815417 #
straight-curve $-1 -48.448744163335064 0 14.441734215815417 0 -1 0 I I #
point $-1 -48.448744163335064 33.597851912700662 14.441734215815417 #
point $-1 -48.448744163335064 -33.597851912700662 14.441734215815417 #
straight-curve $-1 48.448744163335064 -33.597851912700662 0 0 0 -1 I I #
straight-curve $-1 48.448744163335064 33.597851912700662 0 0 0 -1 I I #
plane-surface $-1 48.448744163335064 0 0 -1 0 0 0 0 1 forward_v I I I I #
coedge $-1 $664 $499 $510 $673 forward $340 $-1 #
coedge $-1 $499 $664 $513 $675 reversed $340 $-1 #
straight-curve $-1 48.448744163335064 -15.238422110747921 2.6643241231136185 0 0 1 I I #
coedge $-1 $662 $661 $502 $665 forward $340 $-1 #
edge $-1 $668 3.0293536048857757 $666 21.388783406838517 $664 $750 forward 7 unknown #
vertex $-1 $504 $751 #
straight-curve $-1 0 -33.597851912700662 3.0892913512677787 1 0 0 I I #
vertex $-1 $665 $752 #
straight-curve $-1 0 -15.238422110747921 3.0892913512677787 1 0 0 I I #
point $-1 48.448744163335064 -33.597851912700662 3.0892913512677787 #
point $-1 48.448744163335064 -15.238422110747921 3.0892913512677787 #
straight-curve $-1 -48.448744163335064 -12.209068505862145 7.5680051411866955 0 1 0 I I #
edge $-1 $511 -4.903681018073077 $668 -0.4249672281541601 $661 $753 forward 7 unknown #
point $-1 -48.448744163335064 -15.238422110747921 7.5680051411866955 #
edge $-1 $515 -7.5680051411866955 $666 -3.0892913512677787 $662 $754 forward 7 unknown #
point $-1 -48.448744163335064 -33.597851912700662 7.5680051411866955 #
straight-curve $-1 48.448744163335064 -33.597851912700662 0 0 0 -1 I I #
edge $-1 $679 -40.800102881487916 $682 -23.161639017091588 $521 $755 forward 7 unknown #
vertex $-1 $678 $756 #
straight-curve $-1 48.448744163335064 -5.0968832424738224 68.403365168913524 0 0 1 I I #
edge $-1 $682 0.54742863251916063 $532 8.5514805873901629 $531 $757 forward 7 unknown #
vertex $-1 $681 $758 #
straight-curve $-1 -34.608613951559917 -5.0968832424738224 53.749372222932067 0.85716729658548041 0 -0.51503808176128008 I I #
point $-1 48.448744163335064 -5.0968832424738224 3.8434757076778538 #
point $-1 30.810280298938736 -13.100935197344825 14.441734215815416 #
straight-curve $-1 48.448744163335064 0 14.441734215815417 0 1 0 I I #
vertex $-1 $538 $759 #
point $-1 39.543057797668361 -10.814063210238825 8.0279186242805114 #
vertex $-1 $542 $760 #
point $-1 39.543057797668361 -7.3837552295798226 8.0279186242805114 #
coedge $-1 $557 $556 $549 $692 forward $546 $-1 #
edge $-1 $693 -40.800102881487916 $696 -23.161639017091588 $691 $761 forward 7 unknown #
vertex $-1 $692 $762 #
straight-curve $-1 48.448744163335064 7.1121852633883194 68.403365168913524 0 0 1 I I #
edge $-1 $696 -5.5571056204119103 $558 2.446946334459092 $557 $763 forward 7 unknown #
vertex $-1 $695 $764 #
straight-curve $-1 -34.608613951559917 7.1121852633883194 53.749372222932067 0.85716729658548041 0 -0.51503808176128008 I I #
point $-1 48.448744163335064 7.1121852633883194 3.8434757076778538 #
point $-1 30.810280298938736 -0.89186669148268294 14.441734215815416 #
straight-curve $-1 48.448744163335064 0 14.441734215815417 0 1 0 I I #
vertex $-1 $564 $765 #
point $-1 39.543057797668361 1.3950052956233208 8.0279186242805114 #
vertex $-1 $568 $766 #
point $-1 39.543057797668361 4.8253132762823228 8.0279186242805114 #
coedge $-1 $583 $582 $575 $706 forward $572 $-1 #
edge $-1 $707 -40.800102881487916 $710 -23.161639017091588 $705 $767 forward 7 unknown #
vertex $-1 $706 $768 #
straight-curve $-1 48.448744163335064 19.321253769250468 68.403365168913524 0 0 1 I I #
edge $-1 $710 -11.661639873342985 $584 -3.6575879184719824 $583 $769 forward 7 unknown #
vertex $-1 $709 $770 #
straight-curve $-1 -34.608613951559917 19.321253769250468 53.749372222932067 0.85716729658548041 0 -0.51503808176128008 I I #
point $-1 48.448744163335064 19.321253769250468 3.8434757076778538 #
point $-1 30.810280298938736 11.317201814379466 14.441734215815416 #
straight-curve $-1 48.448744163335064 0 14.441734215815417 0 1 0 I I #
vertex $-1 $590 $771 #
point $-1 39.543057797668361 13.60407380148547 8.0279186242805114 #
vertex $-1 $594 $772 #
point $-1 39.543057797668361 17.034381782144465 8.0279186242805114 #
coedge $-1 $609 $608 $601 $720 forward $598 $-1 #
edge $-1 $721 -40.800102881487916 $724 -23.161639017091588 $719 $773 forward 7 unknown #
vertex $-1 $720 $774 #
straight-curve $-1 48.448744163335064 31.530322275112617 68.403365168913524 0 0 1 I I #
edge $-1 $724 -17.766174126274059 $610 -9.7621221714030568 $609 $775 forward 7 unknown #
vertex $-1 $723 $776 #
straight-curve $-1 -34.608613951559917 31.530322275112617 53.749372222932067 0.85716729658548041 0 -0.51503808176128008 I I #
point $-1 48.448744163335064 31.530322275112617 3.8434757076778538 #
point $-1 30.810280298938736 23.526270320241615 14.441734215815416 #
straight-curve $-1 48.448744163335064 0 14.441734215815417 0 1 0 I I #
vertex $-1 $616 $777 #
point $-1 39.543057797668361 25.813142307347618 8.0279186242805114 #
vertex $-1 $620 $778 #
point $-1 39.543057797668361 29.243450288006613 8.0279186242805114 #
coedge $-1 $734 $626 $740 $779 reversed $452 $-1 #
coedge $-1 $626 $733 $629 $738 reversed $452 $-1 #
edge $-1 $736 -18.56122190876248 $634 -11.512038099113884 $633 $780 forward 7 unknown #
vertex $-1 $628 $781 #
straight-curve $-1 -35.616118671179507 33.597851912700662 20.564638936524979 -0.79863550430605224 0 -0.6018150307709319 I I #
edge $-1 $630 43.741487512794649 $742 48.448744163335064 $734 $782 forward 7 unknown #
point $-1 -43.741487512794649 33.597851912700662 14.441734215815417 #
coedge $-1 $633 $632 $733 $779 forward $624 $-1 #
point $-1 -48.448744163335064 26.548668103052066 10.894561831520772 #
vertex $-1 $738 $783 #
straight-curve $-1 -48.448744163335064 0 14.441734215815417 0 -1 0 I I #
vertex $-1 $640 $784 #
point $-1 -44.129509801664817 30.073260007876364 11.721340883578161 #
straight-curve $-1 -48.448744163335064 33.597851912700662 0 0 0 -1 I I #
point $-1 -48.448744163335064 -33.597851912700662 -14.441734215815417 #
straight-curve $-1 -48.448744163335064 0 -14.441734215815417 0 1 0 I I #
point $-1 -48.448744163335064 33.597851912700662 -14.441734215815417 #
straight-curve $-1 -48.448744163335064 -12.209068505862145 3.0892913512677787 0 -1 0 I I #
point $-1 -48.448744163335064 -33.597851912700662 3.0892913512677787 #
point $-1 -48.448744163335064 -15.238422110747921 3.0892913512677787 #
straight-curve $-1 -48.448744163335064 -15.238422110747921 2.6643241231136185 0 0 -1 I I #
straight-curve $-1 -48.448744163335064 -33.597851912700662 0 0 0 -1 I I #
straight-curve $-1 7.6486412818471479 -5.0968832424738224 14.441734215815416 -1 0 0 I I #
point $-1 48.448744163335064 -5.0968832424738224 14.441734215815417 #
straight-curve $-1 30.810280298938736 -4.5494546099546618 14.441734215815416 0 -1 0 I I #
point $-1 30.810280298938736 -5.0968832424738224 14.441734215815416 #
point $-1 38.856955108494979 -10.814063210238825 7.8568540168684109 #
point $-1 38.856955108494979 -7.3837552295798226 7.8568540168684109 #
straight-curve $-1 7.6486412818471479 7.1121852633883194 14.441734215815416 -1 0 0 I I #
point $-1 48.448744163335064 7.1121852633883194 14.441734215815417 #
straight-curve $-1 30.810280298938736 1.5550796429764091 14.441734215815416 0 -1 0 I I #
point $-1 30.810280298938736 7.1121852633883194 14.441734215815416 #
point $-1 38.856955108494979 1.3950052956233208 7.8568540168684109 #
point $-1 38.856955108494979 4.8253132762823228 7.8568540168684109 #
straight-curve $-1 7.6486412818471479 19.321253769250468 14.441734215815416 -1 0 0 I I #
point $-1 48.448744163335064 19.321253769250468 14.441734215815417 #
straight-curve $-1 30.810280298938736 7.6596138959074835 14.441734215815416 0 -1 0 I I #
point $-1 30.810280298938736 19.321253769250468 14.441734215815416 #
point $-1 38.856955108494979 13.60407380148547 7.8568540168684109 #
point $-1 38.856955108494979 17.034381782144465 7.8568540168684109 #
straight-curve $-1 7.6486412818471479 31.530322275112617 14.441734215815416 -1 0 0 I I #
point $-1 48.448744163335064 31.530322275112617 14.441734215815417 #
straight-curve $-1 30.810280298938736 13.764148148838558 14.441734215815416 0 -1 0 I I #
point $-1 30.810280298938736 31.530322275112617 14.441734215815416 #
point $-1 38.856955108494979 25.813142307347618 7.8568540168684109 #
point $-1 38.856955108494979 29.243450288006613 7.8568540168684109 #
edge $-1 $742 -14.441734215815417 $736 -10.894561831520772 $733 $785 forward 7 unknown #
straight-curve $-1 -48.448744163335064 15.036630003938182 10.894561831520774 0 -1 0 I I #
point $-1 -48.448744163335064 33.597851912700662 10.894561831520772 #
straight-curve $-1 0 33.597851912700662 14.441734215815417 -1 0 0 I I #
point $-1 -48.448744163335064 33.597851912700662 14.441734215815417 #
point $-1 -44.326330275199936 30.073260007876364 10.320890348501177 #
straight-curve $-1 -48.448744163335064 33.597851912700662 0 0 0 -1 I I #
End-of-ACIS-data 