500 0 6 0           
7 Unknown 11 ACIS 5.0 NT 24 Thu Mar 25 15:39:35 1999 
-1 9.9999999999999995e-007 1e-010 
body $-1 $6 $-1 $7 #
body $-1 $8 $-1 $9 #
body $-1 $10 $-1 $11 #
body $-1 $12 $-1 $13 #
body $-1 $14 $-1 $15 #
body $-1 $16 $-1 $17 #
lump $-1 $-1 $18 $0 #
transform $-1 1 0 0 0 1 0 0 0 1 46.801965392010253 27.210614401488378 6.3668868256542073 1 rotate no_reflect no_shear #
lump $-1 $-1 $19 $1 #
transform $-1 1 0 0 0 1 0 0 0 1 46.801965392010253 27.210614401488378 6.3668868256542073 1 rotate no_reflect no_shear #
lump $-1 $-1 $20 $2 #
transform $-1 1 0 0 0 1 0 0 0 1 46.801965392010253 27.210614401488378 6.3668868256542073 1 rotate no_reflect no_shear #
lump $-1 $-1 $21 $3 #
transform $-1 1 0 0 0 1 0 0 0 1 46.801965392010253 27.210614401488378 6.3668868256542073 1 rotate no_reflect no_shear #
lump $-1 $-1 $22 $4 #
transform $-1 1 0 0 0 1 0 0 0 1 46.801965392010253 27.210614401488378 6.3668868256542073 1 rotate no_reflect no_shear #
lump $-1 $-1 $23 $5 #
transform $-1 1 0 0 0 1 0 0 0 1 46.801965392010253 27.210614401488378 6.3668868256542073 1 rotate no_reflect no_shear #
shell $-1 $-1 $-1 $24 $-1 $6 #
shell $-1 $-1 $-1 $25 $-1 $8 #
shell $-1 $-1 $-1 $26 $-1 $10 #
shell $-1 $-1 $-1 $27 $-1 $12 #
shell $-1 $-1 $-1 $28 $-1 $14 #
shell $-1 $-1 $-1 $29 $-1 $16 #
face $-1 $30 $31 $18 $-1 $32 forward single #
face $-1 $33 $34 $19 $-1 $35 forward single #
face $-1 $36 $37 $20 $-1 $38 reversed single #
face $-1 $39 $40 $21 $-1 $41 forward single #
face $-1 $42 $43 $22 $-1 $44 reversed single #
face $-1 $45 $46 $23 $-1 $47 forward single #
face $-1 $48 $49 $18 $-1 $50 reversed single #
loop $-1 $-1 $51 $24 #
plane-surface $-1 0 0 6.3668868256542073 0 0 1 1 0 0 forward_v I I I I #
face $-1 $52 $53 $19 $-1 $54 forward single #
loop $-1 $-1 $55 $25 #
plane-surface $-1 0 -27.210614401488378 0 0 1 0 0 0 1 forward_v I I I I #
face $-1 $56 $57 $20 $-1 $58 reversed single #
loop $-1 $-1 $59 $26 #
plane-surface $-1 -106.96941305745358 17.351625017348319 73.855171957563229 0 1 0 -0.64278761758704617 0 0.76604443648966558 forward_v I I I I #
face $-1 $60 $61 $21 $-1 $62 forward single #
loop $-1 $63 $64 $27 #
cone-surface $-1 -43.199587768056745 22.281119709418348 2.9597854170466507 0.64278761758704617 0 -0.76604443648966558 1.1490666547344983 0 0.96418142638056925 1 I I 0 1 1.5 forward I I I I #
face $-1 $65 $66 $22 $-1 $67 reversed single #
loop $-1 $-1 $68 $28 #
plane-surface $-1 56.036046429709806 9.5855069282226655 133.72906998912021 0 -1 0 -0.75470958851134928 0 -0.65605901945558964 forward_v I I I I #
face $-1 $69 $70 $23 $-1 $71 forward single #
loop $-1 $72 $73 $29 #
cone-surface $-1 43.655893348588442 2.3895736785136066 3.058910164478712 -0.75470958851134928 0 -0.65605901945558964 0.65605901945558964 0 -0.75470958851134928 1 I I 0 1 1 forward I I I I #
face $-1 $74 $75 $18 $-1 $76 reversed single #
loop $-1 $-1 $77 $30 #
plane-surface $-1 0 0 -6.3668868256542073 0 0 1 1 0 0 forward_v I I I I #
coedge $-1 $78 $79 $80 $81 forward $31 $-1 #
face $-1 $82 $83 $19 $-1 $84 reversed single #
loop $-1 $-1 $85 $33 #
plane-surface $-1 0 0 6.3668868256542073 0 0 1 1 0 0 forward_v I I I I #
coedge $-1 $86 $87 $88 $89 forward $34 $-1 #
face $-1 $90 $91 $20 $-1 $92 forward single #
loop $-1 $-1 $93 $36 #
plane-surface $-1 -46.801965392010267 22.281119709418348 2.1504015469005822 -0.64278761758704617 0 0.76604443648966558 0.76604443648966558 0 0.64278761758704617 forward_v I I I I #
coedge $-1 $94 $95 $96 $97 reversed $37 $-1 #
face $-1 $-1 $98 $21 $-1 $99 forward single #
loop $-1 $100 $101 $39 #
cone-surface $-1 -41.627625117826248 22.281119709418348 1.0863933204486598 0.64278761758704617 0 -0.76604443648966558 0.57453332736724916 0 0.48209071319028463 1 I I -0.70710678118654757 0.70710678118654757 0.75 forward I I I I #
loop $-1 $-1 $102 $27 #
coedge $-1 $64 $64 $103 $104 reversed $40 $-1 #
face $-1 $105 $106 $22 $-1 $107 reversed single #
loop $-1 $-1 $108 $42 #
plane-surface $-1 -14.607737655343136 2.3895736785136066 72.31936694176683 0.75470958851134928 0 0.65605901945558964 0.65605901945558964 0 -0.75470958851134928 forward_v I I I I #
coedge $-1 $109 $110 $111 $112 reversed $43 $-1 #
face $-1 $-1 $113 $23 $-1 $114 forward single #
loop $-1 $115 $116 $45 #
cone-surface $-1 42.171510620514745 2.3895736785136066 1.7685559780455815 -0.75470958851134928 0 -0.65605901945558964 0.32802950972779482 0 -0.37735479425567464 1 I I -0.70710678118654746 0.70710678118654746 0.5 forward I I I I #
loop $-1 $-1 $117 $29 #
coedge $-1 $73 $73 $118 $119 reversed $46 $-1 #
face $-1 $120 $121 $18 $-1 $122 reversed single #
loop $-1 $-1 $123 $48 #
plane-surface $-1 0 -27.210614401488378 0 0 1 0 0 0 1 forward_v I I I I #
coedge $-1 $124 $125 $126 $127 forward $49 $-1 #
coedge $-1 $128 $51 $129 $130 forward $31 $-1 #
coedge $-1 $51 $128 $131 $132 forward $31 $-1 #
coedge $-1 $133 $134 $51 $81 reversed $135 $-1 #
edge $-1 $136 -27.210614401488378 $137 27.210614401488378 $80 $138 forward 7 unknown #
face $-1 $139 $140 $19 $-1 $141 reversed single #
loop $-1 $-1 $142 $52 #
plane-surface $-1 -46.801965392010253 0 0 1 0 0 0 0 -1 forward_v I I I I #
coedge $-1 $143 $144 $145 $146 forward $53 $-1 #
coedge $-1 $145 $55 $142 $147 reversed $34 $-1 #
coedge $-1 $55 $145 $148 $149 reversed $34 $-1 #
coedge $-1 $150 $151 $55 $89 reversed $140 $-1 #
edge $-1 $152 -46.801965392010253 $153 46.801965392010253 $88 $154 forward 7 unknown #
face $-1 $155 $156 $20 $-1 $157 reversed single #
loop $-1 $-1 $96 $56 #
plane-surface $-1 0 0 6.3668868256542073 0 0 1 1 0 0 forward_v I I I I #
coedge $-1 $158 $159 $160 $161 reversed $57 $-1 #
coedge $-1 $95 $59 $162 $163 reversed $37 $-1 #
coedge $-1 $59 $94 $158 $164 reversed $37 $-1 #
coedge $-1 $160 $165 $59 $97 forward $91 $-1 #
edge $-1 $166 6.6827411367165368 $167 11.707752510543095 $96 $168 forward 7 unknown #
loop $-1 $-1 $103 $60 #
plane-surface $-1 -46.801965392010267 22.281119709418348 2.1504015469005822 -0.64278761758704617 0 0.76604443648966558 0.76604443648966558 0 0.64278761758704617 forward_v I I I I #
loop $-1 $-1 $169 $39 #
coedge $-1 $101 $101 $102 $170 reversed $61 $-1 #
coedge $-1 $102 $102 $101 $170 forward $63 $-1 #
coedge $-1 $103 $103 $64 $104 forward $98 $-1 #
edge $-1 $171 0 $171 6.2831853071796004 $103 $172 forward 7 unknown #
face $-1 $173 $174 $22 $-1 $175 reversed single #
loop $-1 $-1 $176 $65 #
plane-surface $-1 56.036046429709806 -4.8063595711954523 133.72906998912021 0 1 0 0.75470958851134928 0 0.65605901945558964 forward_v I I I I #
coedge $-1 $177 $178 $179 $180 reversed $66 $-1 #
coedge $-1 $110 $68 $181 $182 reversed $43 $-1 #
coedge $-1 $68 $109 $177 $183 reversed $43 $-1 #
coedge $-1 $179 $184 $68 $112 forward $185 $-1 #
edge $-1 $186 -18.78394217715535 $187 -14.705853957947806 $111 $188 forward 7 unknown #
loop $-1 $-1 $118 $69 #
plane-surface $-1 -14.607737655343136 2.3895736785136066 72.31936694176683 0.75470958851134928 0 0.65605901945558964 0.65605901945558964 0 -0.75470958851134928 forward_v I I I I #
loop $-1 $-1 $189 $45 #
coedge $-1 $116 $116 $117 $190 reversed $70 $-1 #
coedge $-1 $117 $117 $116 $190 forward $72 $-1 #
coedge $-1 $118 $118 $73 $119 forward $113 $-1 #
edge $-1 $191 0 $191 6.2831853071796004 $118 $192 forward 7 unknown #
face $-1 $193 $194 $18 $-1 $195 reversed single #
loop $-1 $-1 $196 $74 #
plane-surface $-1 -46.801965392010253 0 0 1 0 0 0 0 -1 forward_v I I I I #
coedge $-1 $197 $131 $198 $199 forward $75 $-1 #
coedge $-1 $200 $77 $197 $201 forward $49 $-1 #
coedge $-1 $77 $200 $202 $203 forward $49 $-1 #
coedge $-1 $134 $133 $77 $127 reversed $135 $-1 #
edge $-1 $204 -27.210614401488378 $205 27.210614401488378 $126 $206 forward 7 unknown #
coedge $-1 $79 $78 $207 $208 forward $31 $-1 #
coedge $-1 $209 $210 $78 $130 reversed $194 $-1 #
edge $-1 $137 -46.801965392010253 $211 46.801965392010253 $129 $212 forward 7 unknown #
coedge $-1 $123 $213 $79 $132 reversed $75 $-1 #
edge $-1 $214 -46.801965392010253 $136 46.801965392010253 $131 $215 forward 7 unknown #
coedge $-1 $126 $80 $213 $216 forward $135 $-1 #
coedge $-1 $80 $126 $209 $217 reversed $135 $-1 #
loop $-1 $-1 $133 $193 #
vertex $-1 $81 $218 #
vertex $-1 $81 $219 #
straight-curve $-1 46.801965392010253 0 6.3668868256542073 0 1 0 I I #
face $-1 $220 $221 $19 $-1 $222 reversed single #
loop $-1 $-1 $150 $82 #
plane-surface $-1 0 -29.418321284156931 3.3668868256542073 0 0 1 1 0 0 forward_v I I I I #
coedge $-1 $223 $224 $86 $147 forward $83 $-1 #
coedge $-1 $225 $85 $224 $226 forward $53 $-1 #
coedge $-1 $85 $225 $227 $228 forward $53 $-1 #
coedge $-1 $87 $86 $85 $146 reversed $34 $-1 #
edge $-1 $229 -46.801965392010253 $230 46.801965392010253 $85 $231 forward 7 unknown #
edge $-1 $230 -6.3668868256542073 $153 -3.3668868256542073 $142 $232 forward 7 unknown #
coedge $-1 $227 $233 $87 $149 forward $234 $-1 #
edge $-1 $152 3.3668868256542073 $229 6.3668868256542073 $148 $235 forward 7 unknown #
coedge $-1 $236 $88 $233 $237 forward $140 $-1 #
coedge $-1 $88 $236 $223 $238 forward $140 $-1 #
vertex $-1 $149 $239 #
vertex $-1 $147 $240 #
straight-curve $-1 0 -27.210614401488378 3.3668868256542073 -1 0 0 I I #
face $-1 $-1 $241 $20 $-1 $242 reversed single #
loop $-1 $-1 $243 $90 #
plane-surface $-1 0 27.210614401488378 0 0 -1 0 0 0 -1 forward_v I I I I #
coedge $-1 $244 $93 $95 $164 forward $57 $-1 #
coedge $-1 $93 $244 $243 $245 reversed $57 $-1 #
coedge $-1 $246 $96 $93 $161 forward $91 $-1 #
edge $-1 $167 6.2110651626391444 $247 16.070054546779204 $160 $248 forward 7 unknown #
coedge $-1 $249 $250 $94 $163 forward $241 $-1 #
edge $-1 $251 -34.777184431881018 $166 -30.560699153127409 $162 $252 forward 7 unknown #
edge $-1 $167 -6.5596865331380316 $251 -1.8593432412625586e-014 $95 $253 forward 7 unknown #
coedge $-1 $96 $246 $249 $254 forward $91 $-1 #
vertex $-1 $163 $255 #
vertex $-1 $97 $256 #
straight-curve $-1 -53.48470652872679 17.351625017348319 6.3668868256542055 1 0 0 I I #
coedge $-1 $169 $169 $-1 $257 reversed $100 $-1 #
edge $-1 $258 0 $258 6.2831853071796004 $101 $259 forward 7 unknown #
vertex $-1 $104 $260 #
ellipse-curve $-1 -44.289459705096967 22.281119709418348 4.2586441862774045 -0.64278761758704617 0 0.76604443648966558 1.1490666547344983 0 0.96418142638056925 1 I I #
face $-1 $-1 $185 $22 $-1 $261 forward single #
loop $-1 $-1 $262 $105 #
plane-surface $-1 46.801965392010253 0 0 -1 0 0 0 0 1 forward_v I I I I #
coedge $-1 $263 $264 $265 $266 reversed $106 $-1 #
coedge $-1 $267 $108 $110 $183 forward $66 $-1 #
coedge $-1 $108 $267 $263 $268 forward $66 $-1 #
coedge $-1 $265 $111 $108 $180 forward $185 $-1 #
edge $-1 $187 -8.3907200889658622 $269 6.0011464104522556 $179 $270 forward 7 unknown #
coedge $-1 $271 $272 $109 $182 forward $174 $-1 #
edge $-1 $273 -65.188952137846215 $186 -60.497648168905897 $181 $274 forward 7 unknown #
edge $-1 $187 87.387892137693242 $273 93.603930784020534 $110 $275 forward 7 unknown #
coedge $-1 $111 $265 $271 $276 forward $185 $-1 #
loop $-1 $-1 $265 $173 #
vertex $-1 $182 $277 #
vertex $-1 $112 $278 #
straight-curve $-1 28.018023214854903 9.5855069282226655 6.3668868256542055 -1 0 0 I I #
coedge $-1 $189 $189 $-1 $279 reversed $115 $-1 #
edge $-1 $280 0 $280 6.2831853071796004 $116 $281 forward 7 unknown #
vertex $-1 $119 $282 #
ellipse-curve $-1 44.762921282406467 2.3895736785136066 4.0212348411840484 0.75470958851134928 0 0.65605901945558964 0.65605901945558964 0 -0.75470958851134928 1 I I #
face $-1 $-1 $135 $18 $-1 $283 reversed single #
loop $-1 $-1 $209 $120 #
plane-surface $-1 0 27.210614401488378 0 0 -1 0 0 0 -1 forward_v I I I I #
coedge $-1 $284 $207 $210 $285 forward $121 $-1 #
coedge $-1 $213 $123 $124 $201 reversed $75 $-1 #
coedge $-1 $207 $284 $123 $199 reversed $121 $-1 #
edge $-1 $214 -6.3668868256542073 $286 6.3668868256542073 $198 $287 forward 7 unknown #
coedge $-1 $125 $124 $284 $288 forward $49 $-1 #
edge $-1 $205 -46.801965392010253 $286 46.801965392010253 $197 $289 forward 7 unknown #
coedge $-1 $210 $209 $125 $203 reversed $194 $-1 #
edge $-1 $290 -46.801965392010253 $204 46.801965392010253 $202 $291 forward 7 unknown #
vertex $-1 $127 $292 #
vertex $-1 $216 $293 #
straight-curve $-1 46.801965392010253 0 -6.3668868256542073 0 -1 0 I I #
coedge $-1 $196 $198 $128 $208 reversed $121 $-1 #
edge $-1 $211 -27.210614401488378 $214 27.210614401488378 $207 $294 forward 7 unknown #
coedge $-1 $202 $129 $134 $217 forward $194 $-1 #
coedge $-1 $129 $202 $196 $285 reversed $194 $-1 #
vertex $-1 $130 $295 #
straight-curve $-1 0 27.210614401488378 6.3668868256542073 -1 0 0 I I #
coedge $-1 $131 $197 $133 $216 reversed $75 $-1 #
vertex $-1 $208 $296 #
straight-curve $-1 0 -27.210614401488378 6.3668868256542073 1 0 0 I I #
edge $-1 $136 -6.3668868256542073 $205 6.3668868256542073 $133 $297 forward 7 unknown #
edge $-1 $137 -6.3668868256542073 $204 6.3668868256542073 $134 $298 forward 7 unknown #
point $-1 46.801965392010253 -27.210614401488378 6.3668868256542073 #
point $-1 46.801965392010253 27.210614401488378 6.3668868256542073 #
face $-1 $-1 $234 $19 $-1 $299 reversed single #
loop $-1 $-1 $300 $139 #
plane-surface $-1 0 -31.626028166825485 4.8668868256542073 0 1 0 0 0 1 forward_v I I I I #
coedge $-1 $301 $142 $151 $238 reversed $83 $-1 #
coedge $-1 $142 $301 $143 $226 reversed $83 $-1 #
coedge $-1 $144 $143 $302 $303 forward $53 $-1 #
edge $-1 $230 27.210614401488378 $304 31.626028166825485 $224 $305 forward 7 unknown #
coedge $-1 $306 $148 $144 $228 reversed $234 $-1 #
edge $-1 $307 -31.626028166825485 $229 -27.210614401488378 $227 $308 forward 7 unknown #
vertex $-1 $149 $309 #
vertex $-1 $226 $310 #
straight-curve $-1 0 -27.210614401488378 6.3668868256542073 -1 0 0 I I #
straight-curve $-1 -46.801965392010253 -27.210614401488378 0 0 0 -1 I I #
coedge $-1 $148 $306 $150 $237 reversed $234 $-1 #
loop $-1 $-1 $148 $220 #
straight-curve $-1 46.801965392010253 -27.210614401488378 0 0 0 1 I I #
coedge $-1 $151 $150 $311 $312 forward $140 $-1 #
edge $-1 $152 -2.2077068826685533 $313 2.2077068826685533 $233 $314 forward 7 unknown #
edge $-1 $315 -2.2077068826685533 $153 2.2077068826685533 $223 $316 forward 7 unknown #
point $-1 46.801965392010253 -27.210614401488378 3.3668868256542073 #
point $-1 -46.801965392010253 -27.210614401488378 3.3668868256542073 #
loop $-1 $-1 $162 $155 #
plane-surface $-1 -46.801965392010253 0 0 1 0 0 0 0 -1 forward_v I I I I #
coedge $-1 $317 $318 $159 $245 forward $156 $-1 #
coedge $-1 $159 $158 $250 $319 reversed $57 $-1 #
edge $-1 $247 10.675380325933773 $320 17.235066859071786 $243 $321 forward 7 unknown #
coedge $-1 $165 $160 $318 $322 forward $91 $-1 #
vertex $-1 $322 $323 #
straight-curve $-1 -41.776954018183694 11.140559854709174 6.366886825654209 0 1 0 I I #
coedge $-1 $324 $162 $165 $254 reversed $241 $-1 #
coedge $-1 $162 $324 $244 $319 forward $241 $-1 #
vertex $-1 $163 $325 #
straight-curve $-1 -46.801965392010253 17.351625017348319 36.927585978781615 0 0 1 I I #
straight-curve $-1 -46.801965392010267 17.351625017348319 2.1504015469005822 -0.76604443648966558 0 -0.64278761758704617 I I #
edge $-1 $326 -27.210614401488378 $166 -17.351625017348319 $249 $327 forward 7 unknown #
point $-1 -46.801965392010253 17.351625017348319 6.3668868256542073 #
point $-1 -41.776954018183694 17.351625017348319 6.3668868256542073 #
edge $-1 $328 1 $328 0 $169 $-1 forward 7 unknown #
vertex $-1 $170 $329 #
ellipse-curve $-1 -42.10971583101653 22.281119709418348 1.6609266478159088 -0.64278761758704617 0 0.76604443648966558 1.1490666547344983 0 0.96418142638056925 1 I I #
point $-1 -43.140393050362462 22.281119709418348 5.222825612657962 #
plane-surface $-1 0 0 6.3668868256542073 0 0 1 1 0 0 forward_v I I I I #
coedge $-1 $272 $271 $264 $330 forward $174 $-1 #
coedge $-1 $264 $176 $178 $268 reversed $106 $-1 #
coedge $-1 $176 $263 $262 $330 reversed $106 $-1 #
coedge $-1 $184 $179 $176 $266 forward $185 $-1 #
edge $-1 $269 14.705853957947806 $331 18.78394217715535 $265 $332 forward 7 unknown #
coedge $-1 $178 $177 $272 $333 reversed $66 $-1 #
edge $-1 $334 -93.603930784020534 $269 -87.387892137693242 $263 $335 forward 7 unknown #
vertex $-1 $180 $336 #
straight-curve $-1 42.723877172802702 1.1947868392568033 6.3668868256542055 0 -1 0 I I #
coedge $-1 $262 $181 $184 $276 reversed $174 $-1 #
coedge $-1 $181 $262 $267 $333 forward $174 $-1 #
vertex $-1 $182 $337 #
straight-curve $-1 46.801965392010253 9.5855069282226655 66.864534994560103 0 0 1 I I #
straight-curve $-1 -14.607737655343136 9.5855069282226655 72.31936694176683 0.65605901945558964 0 -0.75470958851134928 I I #
edge $-1 $331 -4.8063595711954523 $186 9.5855069282226655 $271 $338 forward 7 unknown #
point $-1 46.801965392010253 9.5855069282226655 6.3668868256542073 #
point $-1 42.723877172802709 9.5855069282226655 6.3668868256542055 #
edge $-1 $339 1 $339 0 $189 $-1 forward 7 unknown #
vertex $-1 $190 $340 #
ellipse-curve $-1 42.548865414770418 2.3895736785136066 2.0965854877733765 0.75470958851134928 0 0.65605901945558964 0.65605901945558964 0 -0.75470958851134928 1 I I #
point $-1 45.418980301862057 2.3895736785136066 3.2665252526726984 #
plane-surface $-1 46.801965392010253 0 0 -1 0 0 0 0 1 forward_v I I I I #
coedge $-1 $198 $196 $200 $288 reversed $121 $-1 #
edge $-1 $211 -6.3668868256542073 $290 6.3668868256542073 $210 $341 forward 7 unknown #
vertex $-1 $288 $342 #
straight-curve $-1 -46.801965392010253 -27.210614401488378 0 0 0 -1 I I #
edge $-1 $286 -27.210614401488378 $290 27.210614401488378 $284 $343 forward 7 unknown #
straight-curve $-1 0 -27.210614401488378 -6.3668868256542073 -1 0 0 I I #
vertex $-1 $203 $344 #
straight-curve $-1 0 27.210614401488378 -6.3668868256542073 1 0 0 I I #
point $-1 46.801965392010253 27.210614401488378 -6.3668868256542073 #
point $-1 46.801965392010253 -27.210614401488378 -6.3668868256542073 #
straight-curve $-1 -46.801965392010253 0 6.3668868256542073 0 -1 0 I I #
point $-1 -46.801965392010253 27.210614401488378 6.3668868256542073 #
point $-1 -46.801965392010253 -27.210614401488378 6.3668868256542073 #
straight-curve $-1 46.801965392010253 -27.210614401488378 0 0 0 -1 I I #
straight-curve $-1 46.801965392010253 27.210614401488378 0 0 0 -1 I I #
plane-surface $-1 46.801965392010253 0 0 -1 0 0 0 0 1 forward_v I I I I #
coedge $-1 $311 $302 $301 $345 forward $221 $-1 #
coedge $-1 $224 $223 $300 $345 reversed $83 $-1 #
coedge $-1 $300 $346 $225 $303 reversed $221 $-1 #
edge $-1 $304 -46.801965392010253 $307 46.801965392010253 $302 $347 forward 7 unknown #
vertex $-1 $226 $348 #
straight-curve $-1 -46.801965392010253 0 6.3668868256542073 0 -1 0 I I #
coedge $-1 $233 $227 $346 $349 forward $234 $-1 #
vertex $-1 $228 $350 #
straight-curve $-1 46.801965392010253 0 6.3668868256542073 0 1 0 I I #
point $-1 46.801965392010253 -27.210614401488378 6.3668868256542073 #
point $-1 -46.801965392010253 -27.210614401488378 6.3668868256542073 #
coedge $-1 $346 $300 $236 $312 reversed $221 $-1 #
edge $-1 $313 -46.801965392010253 $315 46.801965392010253 $311 $351 forward 7 unknown #
vertex $-1 $349 $352 #
straight-curve $-1 46.801965392010253 -29.418321284156931 3.3668868256542073 0 -1 0 I I #
vertex $-1 $238 $353 #
straight-curve $-1 -46.801965392010253 -29.418321284156931 3.3668868256542073 0 1 0 I I #
coedge $-1 $318 $243 $324 $354 reversed $156 $-1 #
coedge $-1 $243 $317 $246 $322 reversed $156 $-1 #
edge $-1 $320 -16.070054546779204 $251 -6.2110651626391444 $250 $355 forward 7 unknown #
vertex $-1 $245 $356 #
straight-curve $-1 -33.599138312090894 27.210614401488378 13.228889112196802 -0.76604443648966558 0 -0.64278761758704617 I I #
edge $-1 $247 41.776954018183694 $326 46.801965392010253 $318 $357 forward 7 unknown #
point $-1 -41.776954018183694 27.210614401488378 6.3668868256542073 #
coedge $-1 $250 $249 $317 $354 forward $241 $-1 #
point $-1 -46.801965392010253 17.351625017348319 2.1504015469005942 #
vertex $-1 $322 $358 #
straight-curve $-1 -46.801965392010253 0 6.3668868256542073 0 -1 0 I I #
vertex $-1 $257 $359 #
point $-1 -40.960649176282033 22.281119709418348 2.6251080741964783 #
edge $-1 $331 60.497648168905897 $334 65.188952137846215 $262 $360 forward 7 unknown #
vertex $-1 $276 $361 #
straight-curve $-1 28.018023214854903 -4.8063595711954523 6.3668868256542055 1 0 0 I I #
edge $-1 $334 -6.0011464104522556 $273 8.3907200889658622 $272 $362 forward 7 unknown #
vertex $-1 $333 $363 #
straight-curve $-1 -14.607737655343136 -4.8063595711954523 72.31936694176683 -0.65605901945558964 0 0.75470958851134928 I I #
point $-1 42.723877172802709 -4.8063595711954523 6.3668868256542055 #
point $-1 46.801965392010246 9.5855069282226655 1.6755828567138877 #
straight-curve $-1 46.801965392010253 0 6.3668868256542073 0 1 0 I I #
vertex $-1 $279 $364 #
point $-1 43.204924434226008 2.3895736785136066 1.341875899262027 #
straight-curve $-1 -46.801965392010253 27.210614401488378 0 0 0 -1 I I #
point $-1 -46.801965392010253 -27.210614401488378 -6.3668868256542073 #
straight-curve $-1 -46.801965392010253 0 -6.3668868256542073 0 1 0 I I #
point $-1 -46.801965392010253 27.210614401488378 -6.3668868256542073 #
edge $-1 $304 -1.5 $315 1.5 $301 $365 forward 7 unknown #
coedge $-1 $302 $311 $306 $349 reversed $221 $-1 #
straight-curve $-1 0 -31.626028166825485 6.3668868256542073 1 0 0 I I #
point $-1 -46.801965392010253 -31.626028166825485 6.3668868256542073 #
edge $-1 $307 -1.5 $313 1.5 $306 $366 forward 7 unknown #
point $-1 46.801965392010253 -31.626028166825485 6.3668868256542073 #
straight-curve $-1 0 -31.626028166825485 3.3668868256542073 -1 0 0 I I #
point $-1 46.801965392010253 -31.626028166825485 3.3668868256542073 #
point $-1 -46.801965392010253 -31.626028166825485 3.3668868256542073 #
edge $-1 $326 -6.3668868256542073 $320 -2.1504015469005942 $317 $367 forward 7 unknown #
straight-curve $-1 -46.801965392010253 11.140559854709174 2.1504015469005928 0 -1 0 I I #
point $-1 -46.801965392010253 27.210614401488378 2.1504015469005942 #
straight-curve $-1 0 27.210614401488378 6.3668868256542073 -1 0 0 I I #
point $-1 -46.801965392010253 27.210614401488378 6.3668868256542073 #
point $-1 -41.145534404635967 22.281119709418348 0.51185999308141061 #
straight-curve $-1 46.801965392010253 -4.8063595711954523 66.864534994560103 0 0 -1 I I #
point $-1 46.801965392010253 -4.8063595711954523 6.3668868256542073 #
straight-curve $-1 46.80196539201026 1.1947868392568033 1.6755828567138877 0 1 0 I I #
point $-1 46.801965392010246 -4.8063595711954523 1.6755828567138877 #
point $-1 41.794155826259072 2.3895736785136066 1.4405264683177867 #
straight-curve $-1 -46.801965392010253 -31.626028166825485 4.8668868256542073 0 0 -1 I I #
straight-curve $-1 46.801965392010253 -31.626028166825485 4.8668868256542073 0 0 -1 I I #
straight-curve $-1 -46.801965392010253 27.210614401488378 0 0 0 -1 I I #
End-of-ACIS-data 