500 0 8 0           
7 Unknown 11 ACIS 5.0 NT 24 Fri Mar 26 14:54:34 1999 
-1 9.9999999999999995e-007 1e-010 
body $-1 $8 $-1 $9 #
body $-1 $10 $-1 $11 #
body $-1 $12 $-1 $13 #
body $-1 $14 $-1 $15 #
body $-1 $16 $-1 $17 #
body $-1 $18 $-1 $19 #
body $-1 $20 $-1 $21 #
body $-1 $22 $-1 $23 #
lump $-1 $-1 $24 $0 #
transform $-1 1 0 0 0 1 0 0 0 1 60.429090243232523 40.724120504443775 20.08764130000224 1 rotate no_reflect no_shear #
lump $-1 $-1 $25 $1 #
transform $-1 1 0 0 0 1 0 0 0 1 60.429090243232523 40.724120504443775 20.08764130000224 1 rotate no_reflect no_shear #
lump $-1 $-1 $26 $2 #
transform $-1 1 0 0 0 1 0 0 0 1 60.429090243232523 40.724120504443775 20.08764130000224 1 rotate no_reflect no_shear #
lump $-1 $-1 $27 $3 #
transform $-1 1 0 0 0 1 0 0 0 1 60.429090243232523 40.724120504443775 20.08764130000224 1 rotate no_reflect no_shear #
lump $-1 $-1 $28 $4 #
transform $-1 1 0 0 0 1 0 0 0 1 60.429090243232523 40.724120504443775 20.08764130000224 1 rotate no_reflect no_shear #
lump $-1 $-1 $29 $5 #
transform $-1 1 0 0 0 1 0 0 0 1 60.429090243232523 40.724120504443775 20.08764130000224 1 rotate no_reflect no_shear #
lump $-1 $-1 $30 $6 #
transform $-1 1 0 0 0 1 0 0 0 1 60.429090243232523 40.724120504443775 20.08764130000224 1 rotate no_reflect no_shear #
lump $-1 $-1 $31 $7 #
transform $-1 1 0 0 0 1 0 0 0 1 60.429090243232523 40.724120504443775 20.08764130000224 1 rotate no_reflect no_shear #
shell $-1 $-1 $-1 $32 $-1 $8 #
shell $-1 $-1 $-1 $33 $-1 $10 #
shell $-1 $-1 $-1 $34 $-1 $12 #
shell $-1 $-1 $-1 $35 $-1 $14 #
shell $-1 $-1 $-1 $36 $-1 $16 #
shell $-1 $-1 $-1 $37 $-1 $18 #
shell $-1 $-1 $-1 $38 $-1 $20 #
shell $-1 $-1 $-1 $39 $-1 $22 #
face $-1 $40 $41 $24 $-1 $42 forward single #
face $-1 $43 $44 $25 $-1 $45 reversed single #
face $-1 $46 $47 $26 $-1 $48 reversed single #
face $-1 $49 $50 $27 $-1 $51 forward single #
face $-1 $52 $53 $28 $-1 $54 forward single #
face $-1 $55 $56 $29 $-1 $57 forward single #
face $-1 $58 $59 $30 $-1 $60 reversed single #
face $-1 $61 $62 $31 $-1 $63 forward single #
face $-1 $64 $65 $24 $-1 $66 reversed single #
loop $-1 $-1 $67 $32 #
plane-surface $-1 0 0 20.08764130000224 0 0 1 1 0 0 forward_v I I I I #
face $-1 $68 $69 $25 $-1 $70 reversed single #
loop $-1 $-1 $71 $33 #
plane-surface $-1 -26.669567440006617 -28.274080342990651 0 1 0 0 0 0 -1 forward_v I I I I #
face $-1 $72 $73 $26 $-1 $74 reversed single #
loop $-1 $-1 $75 $34 #
plane-surface $-1 101.77820848653472 -0.21114097437532564 167.8218178670075 0 -1 0 -0.85716730853699208 0 -0.51503806187062418 forward_v I I I I #
face $-1 $76 $77 $27 $-1 $78 forward single #
loop $-1 $79 $80 $35 #
cone-surface $-1 53.350588988823077 -11.036685324830991 10.049224089029188 -0.85716730853699208 0 -0.51503806187062418 0.51503806187062418 0 -0.85716730853699208 1 I I 0 1 1 forward I I I I #
face $-1 $81 $82 $28 $-1 $83 forward single #
loop $-1 $84 $85 $36 #
cone-surface $-1 53.350588988823077 -6.9771061934101155 10.049224089029188 -0.85716730853699208 0 -0.51503806187062418 0.51503806187062418 0 -0.85716730853699208 1 I I 0 1 1 forward I I I I #
face $-1 $86 $87 $29 $-1 $88 forward single #
loop $-1 $89 $90 $37 #
cone-surface $-1 53.350588988823077 -2.9175270619892402 10.049224089029188 -0.85716730853699208 0 -0.51503806187062418 0.51503806187062418 0 -0.85716730853699208 1 I I 0 1 1 forward I I I I #
face $-1 $91 $92 $30 $-1 $93 reversed single #
loop $-1 $-1 $94 $38 #
plane-surface $-1 -165.09534573451816 24.162260558808278 71.000199094705351 0 1 0 -0.86602541151947299 0 0.49999998660252726 forward_v I I I I #
face $-1 $95 $96 $31 $-1 $97 forward single #
loop $-1 $98 $99 $39 #
cone-surface $-1 -56.039556457553658 29.120114083760313 14.38116582132262 0.86602541151947299 0 -0.49999998660252726 0.99999997320505452 0 1.732050823038946 1 I I 0 1 2 forward I I I I #
face $-1 $100 $101 $24 $-1 $102 reversed single #
loop $-1 $-1 $103 $40 #
plane-surface $-1 0 0 -20.08764130000224 0 0 1 1 0 0 forward_v I I I I #
coedge $-1 $104 $105 $106 $107 forward $41 $-1 #
face $-1 $108 $109 $25 $-1 $110 reversed single #
loop $-1 $-1 $111 $43 #
plane-surface $-1 -23.46168754161733 -15.824040181537528 0 0 -1 0 0 0 -1 forward_v I I I I #
coedge $-1 $112 $113 $114 $115 forward $44 $-1 #
face $-1 $116 $117 $26 $-1 $118 reversed single #
loop $-1 $-1 $119 $46 #
plane-surface $-1 -1.8174727957265304 -6.9771061934101155 105.57525482804846 0.85716730853699208 0 0.51503806187062418 0.51503806187062418 0 -0.85716730853699208 forward_v I I I I #
coedge $-1 $120 $121 $122 $123 reversed $47 $-1 #
face $-1 $-1 $124 $27 $-1 $125 forward single #
loop $-1 $126 $127 $49 #
cone-surface $-1 51.283716292782486 -11.036685324830991 8.8073217242283519 -0.85716730853699208 0 -0.51503806187062418 0.25751903093531209 0 -0.42858365426849604 1 I I -0.70710678118654746 0.70710678118654746 0.5 forward I I I I #
loop $-1 $-1 $128 $35 #
coedge $-1 $80 $80 $129 $130 reversed $50 $-1 #
face $-1 $-1 $131 $28 $-1 $132 forward single #
loop $-1 $133 $134 $52 #
cone-surface $-1 51.283716292782486 -6.9771061934101155 8.8073217242283519 -0.85716730853699208 0 -0.51503806187062418 0.25751903093531209 0 -0.42858365426849604 1 I I -0.70710678118654746 0.70710678118654746 0.5 forward I I I I #
loop $-1 $-1 $135 $36 #
coedge $-1 $85 $85 $136 $137 reversed $53 $-1 #
face $-1 $-1 $138 $29 $-1 $139 forward single #
loop $-1 $140 $141 $55 #
cone-surface $-1 51.283716292782486 -2.9175270619892402 8.8073217242283519 -0.85716730853699208 0 -0.51503806187062418 0.25751903093531209 0 -0.42858365426849604 1 I I -0.70710678118654746 0.70710678118654746 0.5 forward I I I I #
loop $-1 $-1 $142 $37 #
coedge $-1 $90 $90 $143 $144 reversed $56 $-1 #
face $-1 $145 $146 $30 $-1 $147 reversed single #
loop $-1 $-1 $148 $58 #
plane-surface $-1 -60.429090243232523 29.120114083760299 10.571110470667001 -0.86602541151947299 0 0.49999998660252726 0.49999998660252726 0 0.86602541151947299 forward_v I I I I #
coedge $-1 $149 $150 $151 $152 reversed $59 $-1 #
face $-1 $-1 $153 $31 $-1 $154 forward single #
loop $-1 $155 $156 $61 #
cone-surface $-1 -53.531182980241773 29.120114083760313 12.932955770708098 0.86602541151947299 0 -0.49999998660252726 0.49999998660252726 0 0.86602541151947299 1 I I -0.70710678118654746 0.70710678118654746 1 forward I I I I #
loop $-1 $-1 $157 $39 #
coedge $-1 $99 $99 $158 $159 reversed $62 $-1 #
face $-1 $160 $161 $24 $-1 $162 reversed single #
loop $-1 $-1 $163 $64 #
plane-surface $-1 0 -40.724120504443775 0 0 1 0 0 0 1 forward_v I I I I #
coedge $-1 $164 $165 $166 $167 forward $65 $-1 #
coedge $-1 $168 $67 $169 $170 forward $41 $-1 #
coedge $-1 $67 $168 $171 $172 forward $41 $-1 #
coedge $-1 $173 $174 $67 $107 reversed $175 $-1 #
edge $-1 $176 -40.724120504443775 $177 40.724120504443775 $106 $178 forward 7 unknown #
face $-1 $179 $180 $25 $-1 $181 forward single #
loop $-1 $-1 $182 $68 #
plane-surface $-1 -20.253807643228043 -28.274080342990651 0 -1 0 0 0 0 1 forward_v I I I I #
coedge $-1 $183 $184 $185 $186 forward $69 $-1 #
coedge $-1 $187 $71 $188 $189 reversed $44 $-1 #
coedge $-1 $71 $187 $190 $191 reversed $44 $-1 #
coedge $-1 $184 $183 $71 $115 reversed $69 $-1 #
edge $-1 $192 -20.08764130000224 $193 20.08764130000224 $114 $194 forward 7 unknown #
face $-1 $195 $196 $26 $-1 $197 reversed single #
loop $-1 $-1 $198 $72 #
plane-surface $-1 101.77820848653472 -13.743071412444905 167.8218178670075 0 1 0 0.85716730853699208 0 0.51503806187062418 forward_v I I I I #
coedge $-1 $199 $200 $201 $202 reversed $73 $-1 #
coedge $-1 $121 $75 $203 $204 reversed $47 $-1 #
coedge $-1 $75 $120 $199 $205 reversed $47 $-1 #
coedge $-1 $201 $206 $75 $123 forward $207 $-1 #
edge $-1 $208 -9.5399859999651611 $209 1.3404384253095429 $122 $210 forward 7 unknown #
loop $-1 $-1 $129 $76 #
plane-surface $-1 -1.8174727957265304 -6.9771061934101155 105.57525482804846 0.85716730853699208 0 0.51503806187062418 0.51503806187062418 0 -0.85716730853699208 forward_v I I I I #
loop $-1 $-1 $211 $49 #
coedge $-1 $127 $127 $128 $212 reversed $77 $-1 #
coedge $-1 $128 $128 $127 $212 forward $79 $-1 #
coedge $-1 $129 $129 $80 $130 forward $124 $-1 #
edge $-1 $213 0 $213 6.2831853071796004 $129 $214 forward 7 unknown #
loop $-1 $-1 $136 $81 #
plane-surface $-1 -1.8174727957265304 -6.9771061934101155 105.57525482804846 0.85716730853699208 0 0.51503806187062418 0.51503806187062418 0 -0.85716730853699208 forward_v I I I I #
loop $-1 $-1 $215 $52 #
coedge $-1 $134 $134 $135 $216 reversed $82 $-1 #
coedge $-1 $135 $135 $134 $216 forward $84 $-1 #
coedge $-1 $136 $136 $85 $137 forward $131 $-1 #
edge $-1 $217 0 $217 6.2831853071796004 $136 $218 forward 7 unknown #
loop $-1 $-1 $143 $86 #
plane-surface $-1 -1.8174727957265304 -6.9771061934101155 105.57525482804846 0.85716730853699208 0 0.51503806187062418 0.51503806187062418 0 -0.85716730853699208 forward_v I I I I #
loop $-1 $-1 $219 $55 #
coedge $-1 $141 $141 $142 $220 reversed $87 $-1 #
coedge $-1 $142 $142 $141 $220 forward $89 $-1 #
coedge $-1 $143 $143 $90 $144 forward $138 $-1 #
edge $-1 $221 0 $221 6.2831853071796004 $143 $222 forward 7 unknown #
face $-1 $223 $224 $30 $-1 $225 reversed single #
loop $-1 $-1 $226 $91 #
plane-surface $-1 -165.09534573451816 34.077967608712321 71.000199094705351 0 -1 0 0.86602541151947299 0 -0.49999998660252726 forward_v I I I I #
coedge $-1 $227 $228 $229 $230 reversed $92 $-1 #
coedge $-1 $150 $94 $231 $232 reversed $59 $-1 #
coedge $-1 $94 $149 $227 $233 reversed $59 $-1 #
coedge $-1 $229 $234 $94 $152 forward $235 $-1 #
edge $-1 $236 22.118582624026558 $237 27.61295406379945 $151 $238 forward 7 unknown #
loop $-1 $-1 $158 $95 #
plane-surface $-1 -60.429090243232523 29.120114083760299 10.571110470667001 -0.86602541151947299 0 0.49999998660252726 0.49999998660252726 0 0.86602541151947299 forward_v I I I I #
loop $-1 $-1 $239 $61 #
coedge $-1 $156 $156 $157 $240 reversed $96 $-1 #
coedge $-1 $157 $157 $156 $240 forward $98 $-1 #
coedge $-1 $158 $158 $99 $159 forward $153 $-1 #
edge $-1 $241 0 $241 6.2831853071796004 $158 $242 forward 7 unknown #
face $-1 $243 $244 $24 $-1 $245 reversed single #
loop $-1 $-1 $246 $100 #
plane-surface $-1 -60.429090243232523 0 0 1 0 0 0 0 -1 forward_v I I I I #
coedge $-1 $247 $171 $248 $249 forward $101 $-1 #
coedge $-1 $250 $103 $247 $251 forward $65 $-1 #
coedge $-1 $103 $250 $252 $253 forward $65 $-1 #
coedge $-1 $174 $173 $103 $167 reversed $175 $-1 #
edge $-1 $254 -40.724120504443775 $255 40.724120504443775 $166 $256 forward 7 unknown #
coedge $-1 $105 $104 $257 $258 forward $41 $-1 #
coedge $-1 $259 $260 $104 $170 reversed $244 $-1 #
edge $-1 $177 -60.429090243232523 $261 60.429090243232523 $169 $262 forward 7 unknown #
coedge $-1 $163 $263 $105 $172 reversed $101 $-1 #
edge $-1 $264 -60.429090243232523 $176 60.429090243232523 $171 $265 forward 7 unknown #
coedge $-1 $166 $106 $263 $266 forward $175 $-1 #
coedge $-1 $106 $166 $259 $267 reversed $175 $-1 #
loop $-1 $-1 $173 $243 #
vertex $-1 $107 $268 #
vertex $-1 $107 $269 #
straight-curve $-1 60.429090243232523 0 20.08764130000224 0 1 0 I I #
face $-1 $270 $271 $25 $-1 $272 reversed single #
loop $-1 $-1 $273 $108 #
plane-surface $-1 0 0 20.08764130000224 0 0 1 1 0 0 forward_v I I I I #
coedge $-1 $274 $275 $276 $277 reversed $109 $-1 #
coedge $-1 $114 $111 $278 $279 reversed $69 $-1 #
coedge $-1 $111 $114 $280 $281 reversed $69 $-1 #
coedge $-1 $275 $274 $111 $186 reversed $109 $-1 #
edge $-1 $282 -20.08764130000224 $283 20.08764130000224 $185 $284 forward 7 unknown #
coedge $-1 $113 $112 $285 $286 reversed $44 $-1 #
coedge $-1 $278 $287 $112 $189 forward $271 $-1 #
edge $-1 $288 -26.58708033294845 $193 -1.6870000100422029 $188 $289 forward 7 unknown #
coedge $-1 $290 $280 $113 $191 forward $180 $-1 #
edge $-1 $192 1.6870000100422029 $291 26.58708033294845 $190 $292 forward 7 unknown #
vertex $-1 $191 $293 #
vertex $-1 $189 $294 #
straight-curve $-1 -26.669567440006617 -15.824040181537528 0 0 0 -1 I I #
face $-1 $-1 $207 $26 $-1 $295 forward single #
loop $-1 $-1 $296 $116 #
plane-surface $-1 60.429090243232523 0 0 -1 0 0 0 0 1 forward_v I I I I #
coedge $-1 $297 $298 $299 $300 reversed $117 $-1 #
coedge $-1 $301 $119 $121 $205 forward $73 $-1 #
coedge $-1 $119 $301 $297 $302 forward $73 $-1 #
coedge $-1 $299 $122 $119 $202 forward $207 $-1 #
edge $-1 $209 -3.2774121223297321 $303 10.254518315739848 $201 $304 forward 7 unknown #
coedge $-1 $305 $306 $120 $204 forward $196 $-1 #
edge $-1 $307 -81.931335387716544 $208 -63.823267633501509 $203 $308 forward 7 unknown #
edge $-1 $209 99.732704078455768 $307 120.85818048646506 $121 $309 forward 7 unknown #
coedge $-1 $122 $299 $305 $310 forward $207 $-1 #
loop $-1 $-1 $299 $195 #
vertex $-1 $204 $311 #
vertex $-1 $123 $312 #
straight-curve $-1 50.889104243267361 -0.21114097437532564 20.087641300002247 -1 0 0 I I #
coedge $-1 $211 $211 $-1 $313 reversed $126 $-1 #
edge $-1 $314 0 $314 6.2831853071796004 $127 $315 forward 7 unknown #
vertex $-1 $130 $316 #
ellipse-curve $-1 54.988878030595167 -11.036685324830991 11.033607422894708 0.85716730853699208 0 0.51503806187062418 0.51503806187062418 0 -0.85716730853699208 1 I I #
coedge $-1 $215 $215 $-1 $317 reversed $133 $-1 #
edge $-1 $318 0 $318 6.2831853071796004 $134 $319 forward 7 unknown #
vertex $-1 $137 $320 #
ellipse-curve $-1 54.988878030595167 -6.9771061934101155 11.033607422894708 0.85716730853699208 0 0.51503806187062418 0.51503806187062418 0 -0.85716730853699208 1 I I #
coedge $-1 $219 $219 $-1 $321 reversed $140 $-1 #
edge $-1 $322 0 $322 6.2831853071796004 $141 $323 forward 7 unknown #
vertex $-1 $144 $324 #
ellipse-curve $-1 54.988878030595167 -2.9175270619892402 11.033607422894708 0.85716730853699208 0 0.51503806187062418 0.51503806187062418 0 -0.85716730853699208 1 I I #
face $-1 $-1 $235 $30 $-1 $325 forward single #
loop $-1 $-1 $326 $145 #
plane-surface $-1 -60.429090243232523 0 0 1 0 0 0 0 -1 forward_v I I I I #
coedge $-1 $327 $328 $329 $330 reversed $146 $-1 #
coedge $-1 $331 $148 $150 $233 forward $92 $-1 #
coedge $-1 $148 $331 $327 $332 forward $92 $-1 #
coedge $-1 $329 $151 $148 $230 forward $235 $-1 #
edge $-1 $237 9.6022035169281281 $333 19.517910566832171 $229 $334 forward 7 unknown #
coedge $-1 $335 $336 $149 $232 forward $224 $-1 #
edge $-1 $337 -24.928989076685674 $236 -15.412458247350436 $231 $338 forward 7 unknown #
edge $-1 $237 -10.988743173988556 $337 0 $150 $339 forward 7 unknown #
coedge $-1 $151 $329 $335 $340 forward $235 $-1 #
loop $-1 $-1 $329 $223 #
vertex $-1 $232 $341 #
vertex $-1 $152 $342 #
straight-curve $-1 -82.547672867259081 24.162260558808278 20.08764130000224 1 0 0 I I #
coedge $-1 $239 $239 $-1 $343 reversed $155 $-1 #
edge $-1 $344 0 $344 6.2831853071796004 $156 $345 forward 7 unknown #
vertex $-1 $159 $346 #
ellipse-curve $-1 -57.681904523346077 29.120114083760313 15.329375885334619 -0.86602541151947299 0 0.49999998660252726 0.99999997320505452 0 1.732050823038946 1 I I #
face $-1 $-1 $175 $24 $-1 $347 reversed single #
loop $-1 $-1 $259 $160 #
plane-surface $-1 0 40.724120504443775 0 0 -1 0 0 0 -1 forward_v I I I I #
coedge $-1 $348 $257 $260 $349 forward $161 $-1 #
coedge $-1 $263 $163 $164 $251 reversed $101 $-1 #
coedge $-1 $257 $348 $163 $249 reversed $161 $-1 #
edge $-1 $264 -20.08764130000224 $350 20.08764130000224 $248 $351 forward 7 unknown #
coedge $-1 $165 $164 $348 $352 forward $65 $-1 #
edge $-1 $255 -60.429090243232523 $350 60.429090243232523 $247 $353 forward 7 unknown #
coedge $-1 $260 $259 $165 $253 reversed $244 $-1 #
edge $-1 $354 -60.429090243232523 $254 60.429090243232523 $252 $355 forward 7 unknown #
vertex $-1 $167 $356 #
vertex $-1 $266 $357 #
straight-curve $-1 60.429090243232523 0 -20.08764130000224 0 -1 0 I I #
coedge $-1 $246 $248 $168 $258 reversed $161 $-1 #
edge $-1 $261 -40.724120504443775 $264 40.724120504443775 $257 $358 forward 7 unknown #
coedge $-1 $252 $169 $174 $267 forward $244 $-1 #
coedge $-1 $169 $252 $246 $349 reversed $244 $-1 #
vertex $-1 $170 $359 #
straight-curve $-1 0 40.724120504443775 20.08764130000224 -1 0 0 I I #
coedge $-1 $171 $247 $173 $266 reversed $101 $-1 #
vertex $-1 $258 $360 #
straight-curve $-1 0 -40.724120504443775 20.08764130000224 1 0 0 I I #
edge $-1 $176 -20.08764130000224 $255 20.08764130000224 $173 $361 forward 7 unknown #
edge $-1 $177 -20.08764130000224 $254 20.08764130000224 $174 $362 forward 7 unknown #
point $-1 60.429090243232523 -40.724120504443775 20.08764130000224 #
point $-1 60.429090243232523 40.724120504443775 20.08764130000224 #
face $-1 $-1 $363 $25 $-1 $364 reversed single #
loop $-1 $-1 $365 $179 #
plane-surface $-1 0 0 -20.08764130000224 0 0 1 1 0 0 forward_v I I I I #
coedge $-1 $280 $290 $275 $366 forward $180 $-1 #
coedge $-1 $185 $182 $365 $367 reversed $109 $-1 #
coedge $-1 $182 $185 $273 $366 reversed $109 $-1 #
coedge $-1 $368 $369 $182 $277 forward $363 $-1 #
edge $-1 $370 -20.08764130000224 $371 20.08764130000224 $276 $372 forward 7 unknown #
coedge $-1 $365 $188 $183 $279 forward $271 $-1 #
edge $-1 $193 -14.938723669197952 $283 -8.5229638724193784 $278 $373 forward 7 unknown #
coedge $-1 $190 $273 $184 $281 forward $180 $-1 #
edge $-1 $282 8.5229638724193784 $192 14.938723669197952 $280 $374 forward 7 unknown #
vertex $-1 $281 $375 #
vertex $-1 $279 $376 #
straight-curve $-1 -20.253807643228043 -15.824040181537528 0 0 0 -1 I I #
coedge $-1 $369 $368 $187 $286 forward $363 $-1 #
edge $-1 $291 -20.08764130000224 $288 20.08764130000224 $285 $377 forward 7 unknown #
coedge $-1 $188 $365 $369 $378 forward $271 $-1 #
vertex $-1 $189 $379 #
straight-curve $-1 -26.669567440006617 -14.137040171495325 -20.08764130000224 0 1 0 I I #
coedge $-1 $273 $190 $368 $380 forward $180 $-1 #
vertex $-1 $380 $381 #
straight-curve $-1 -26.669567440006617 -14.137040171495325 20.08764130000224 0 -1 0 I I #
point $-1 -26.669567440006617 -15.824040181537528 20.08764130000224 #
point $-1 -26.669567440006617 -15.824040181537528 -20.08764130000224 #
plane-surface $-1 0 0 20.08764130000224 0 0 1 1 0 0 forward_v I I I I #
coedge $-1 $306 $305 $298 $382 forward $196 $-1 #
coedge $-1 $298 $198 $200 $302 reversed $117 $-1 #
coedge $-1 $198 $297 $296 $382 reversed $117 $-1 #
coedge $-1 $206 $201 $198 $300 forward $207 $-1 #
edge $-1 $303 -1.3404384253095429 $383 9.5399859999651611 $299 $384 forward 7 unknown #
coedge $-1 $200 $199 $306 $385 reversed $73 $-1 #
edge $-1 $386 -120.85818048646506 $303 -99.732704078455768 $297 $387 forward 7 unknown #
vertex $-1 $202 $388 #
straight-curve $-1 49.548665817957819 -3.4885530967050578 20.08764130000224 0 -1 0 I I #
coedge $-1 $296 $203 $206 $310 reversed $196 $-1 #
coedge $-1 $203 $296 $301 $385 forward $196 $-1 #
vertex $-1 $204 $389 #
straight-curve $-1 60.429090243232523 -0.21114097437532564 83.910908933503748 0 0 1 I I #
straight-curve $-1 -1.8174727957265304 -0.21114097437532564 105.57525482804846 0.51503806187062418 0 -0.85716730853699208 I I #
edge $-1 $383 -13.743071412444905 $208 -0.21114097437532564 $305 $390 forward 7 unknown #
point $-1 60.429090243232523 -0.21114097437532564 20.08764130000224 #
point $-1 49.548665817957819 -0.21114097437532564 20.087641300002247 #
edge $-1 $391 1 $391 0 $211 $-1 forward 7 unknown #
vertex $-1 $212 $392 #
ellipse-curve $-1 51.71229994705098 -11.036685324830991 9.0648407551636634 0.85716730853699208 0 0.51503806187062418 0.51503806187062418 0 -0.85716730853699208 1 I I #
point $-1 55.503916092465801 -11.036685324830991 10.176440114357719 #
edge $-1 $393 1 $393 0 $215 $-1 forward 7 unknown #
vertex $-1 $216 $394 #
ellipse-curve $-1 51.71229994705098 -6.9771061934101155 9.0648407551636634 0.85716730853699208 0 0.51503806187062418 0.51503806187062418 0 -0.85716730853699208 1 I I #
point $-1 55.503916092465801 -6.9771061934101155 10.176440114357719 #
edge $-1 $395 1 $395 0 $219 $-1 forward 7 unknown #
vertex $-1 $220 $396 #
ellipse-curve $-1 51.71229994705098 -2.9175270619892402 9.0648407551636634 0.85716730853699208 0 0.51503806187062418 0.51503806187062418 0 -0.85716730853699208 1 I I #
point $-1 55.503916092465801 -2.9175270619892402 10.176440114357719 #
plane-surface $-1 0 0 20.08764130000224 0 0 1 1 0 0 forward_v I I I I #
coedge $-1 $336 $335 $328 $397 forward $224 $-1 #
coedge $-1 $328 $226 $228 $332 reversed $146 $-1 #
coedge $-1 $226 $327 $326 $397 reversed $146 $-1 #
coedge $-1 $234 $229 $226 $330 forward $235 $-1 #
edge $-1 $333 -27.61295406379945 $398 -22.118582624026558 $329 $399 forward 7 unknown #
coedge $-1 $228 $227 $336 $400 reversed $92 $-1 #
edge $-1 $401 0 $333 10.988743173988556 $327 $402 forward 7 unknown #
vertex $-1 $230 $403 #
straight-curve $-1 -54.934718803459631 14.56005704188015 20.08764130000224 0 1 0 I I #
coedge $-1 $326 $231 $234 $340 reversed $224 $-1 #
coedge $-1 $231 $326 $331 $400 forward $224 $-1 #
vertex $-1 $232 $404 #
straight-curve $-1 -60.429090243232523 24.162260558808278 35.500099547352676 0 0 1 I I #
straight-curve $-1 -60.429090243232523 24.162260558808278 10.571110470667001 -0.49999998660252726 0 -0.86602541151947299 I I #
edge $-1 $398 -34.077967608712321 $236 -24.162260558808278 $335 $405 forward 7 unknown #
point $-1 -60.429090243232523 24.162260558808278 20.08764130000224 #
point $-1 -54.934718803459631 24.162260558808278 20.08764130000224 #
edge $-1 $406 1 $406 0 $239 $-1 forward 7 unknown #
vertex $-1 $240 $407 #
ellipse-curve $-1 -54.397208391761247 29.120114083760313 13.432955757310625 -0.86602541151947299 0 0.49999998660252726 0.99999997320505452 0 1.732050823038946 1 I I #
point $-1 -56.68190455014102 29.120114083760313 17.06142670837356 #
plane-surface $-1 60.429090243232523 0 0 -1 0 0 0 0 1 forward_v I I I I #
coedge $-1 $248 $246 $250 $352 reversed $161 $-1 #
edge $-1 $261 -20.08764130000224 $354 20.08764130000224 $260 $408 forward 7 unknown #
vertex $-1 $352 $409 #
straight-curve $-1 -60.429090243232523 -40.724120504443775 0 0 0 -1 I I #
edge $-1 $350 -40.724120504443775 $354 40.724120504443775 $348 $410 forward 7 unknown #
straight-curve $-1 0 -40.724120504443775 -20.08764130000224 -1 0 0 I I #
vertex $-1 $253 $411 #
straight-curve $-1 0 40.724120504443775 -20.08764130000224 1 0 0 I I #
point $-1 60.429090243232523 40.724120504443775 -20.08764130000224 #
point $-1 60.429090243232523 -40.724120504443775 -20.08764130000224 #
straight-curve $-1 -60.429090243232523 0 20.08764130000224 0 -1 0 I I #
point $-1 -60.429090243232523 40.724120504443775 20.08764130000224 #
point $-1 -60.429090243232523 -40.724120504443775 20.08764130000224 #
straight-curve $-1 60.429090243232523 -40.724120504443775 0 0 0 -1 I I #
straight-curve $-1 60.429090243232523 40.724120504443775 0 0 0 -1 I I #
loop $-1 $-1 $276 $270 #
plane-surface $-1 0 -40.724120504443775 0 0 1 0 0 0 1 forward_v I I I I #
coedge $-1 $287 $278 $274 $367 forward $271 $-1 #
edge $-1 $371 -26.58708033294845 $282 -1.6870000100422029 $273 $412 forward 7 unknown #
edge $-1 $283 1.6870000100422029 $370 26.58708033294845 $365 $413 forward 7 unknown #
coedge $-1 $285 $276 $290 $380 reversed $363 $-1 #
coedge $-1 $276 $285 $287 $378 reversed $363 $-1 #
vertex $-1 $378 $414 #
vertex $-1 $277 $415 #
straight-curve $-1 -20.253807643228043 -40.724120504443775 0 0 0 1 I I #
straight-curve $-1 -11.730843770808665 -15.824040181537528 -20.08764130000224 1 0 0 I I #
straight-curve $-1 -11.730843770808665 -15.824040181537528 20.08764130000224 -1 0 0 I I #
point $-1 -20.253807643228043 -15.824040181537528 20.08764130000224 #
point $-1 -20.253807643228043 -15.824040181537528 -20.08764130000224 #
straight-curve $-1 -26.669567440006617 -40.724120504443775 0 0 0 -1 I I #
edge $-1 $370 20.253807643228043 $288 26.669567440006617 $369 $416 forward 7 unknown #
point $-1 -26.669567440006617 -40.724120504443775 -20.08764130000224 #
edge $-1 $291 -26.669567440006617 $371 -20.253807643228043 $368 $417 forward 7 unknown #
point $-1 -26.669567440006617 -40.724120504443775 20.08764130000224 #
edge $-1 $383 63.823267633501509 $386 81.931335387716544 $296 $418 forward 7 unknown #
vertex $-1 $310 $419 #
straight-curve $-1 50.889104243267361 -13.743071412444905 20.087641300002247 1 0 0 I I #
edge $-1 $386 -10.254518315739848 $307 3.2774121223297321 $306 $420 forward 7 unknown #
vertex $-1 $385 $421 #
straight-curve $-1 -1.8174727957265304 -13.743071412444905 105.57525482804846 -0.51503806187062418 0 0.85716730853699208 I I #
point $-1 49.548665817957819 -13.743071412444905 20.087641300002247 #
point $-1 60.429090243232523 -0.21114097437532564 1.9795735457872041 #
straight-curve $-1 60.429090243232523 0 20.08764130000224 0 1 0 I I #
vertex $-1 $313 $422 #
point $-1 52.227338008921606 -11.036685324830991 8.2076734466266714 #
vertex $-1 $317 $423 #
point $-1 52.227338008921606 -6.9771061934101155 8.2076734466266714 #
vertex $-1 $321 $424 #
point $-1 52.227338008921606 -2.9175270619892402 8.2076734466266714 #
edge $-1 $398 15.412458247350436 $401 24.928989076685674 $326 $425 forward 7 unknown #
vertex $-1 $340 $426 #
straight-curve $-1 -82.547672867259081 34.077967608712321 20.08764130000224 -1 0 0 I I #
edge $-1 $401 -19.517910566832171 $337 -9.6022035169281281 $336 $427 forward 7 unknown #
vertex $-1 $400 $428 #
straight-curve $-1 -60.429090243232523 34.077967608712321 10.571110470667001 0.49999998660252726 0 0.86602541151947299 I I #
point $-1 -54.934718803459631 34.077967608712321 20.08764130000224 #
point $-1 -60.429090243232523 24.162260558808278 10.571110470667001 #
straight-curve $-1 -60.429090243232523 0 20.08764130000224 0 -1 0 I I #
vertex $-1 $343 $429 #
point $-1 -53.39720841855619 29.120114083760313 15.165006580349571 #
straight-curve $-1 -60.429090243232523 40.724120504443775 0 0 0 -1 I I #
point $-1 -60.429090243232523 -40.724120504443775 -20.08764130000224 #
straight-curve $-1 -60.429090243232523 0 -20.08764130000224 0 1 0 I I #
point $-1 -60.429090243232523 40.724120504443775 -20.08764130000224 #
straight-curve $-1 -20.253807643228043 -14.137040171495325 20.08764130000224 0 1 0 I I #
straight-curve $-1 -20.253807643228043 -14.137040171495325 -20.08764130000224 0 -1 0 I I #
point $-1 -20.253807643228043 -40.724120504443775 -20.08764130000224 #
point $-1 -20.253807643228043 -40.724120504443775 20.08764130000224 #
straight-curve $-1 0 -40.724120504443775 -20.08764130000224 -1 0 0 I I #
straight-curve $-1 0 -40.724120504443775 20.08764130000224 1 0 0 I I #
straight-curve $-1 60.429090243232523 -13.743071412444905 83.910908933503748 0 0 -1 I I #
point $-1 60.429090243232523 -13.743071412444905 20.08764130000224 #
straight-curve $-1 60.429090243232523 -3.4885530967050578 1.9795735457871899 0 1 0 I I #
point $-1 60.429090243232523 -13.743071412444905 1.9795735457872041 #
point $-1 50.855132638513993 -11.036685324830991 8.5498026932930404 #
point $-1 50.855132638513993 -6.9771061934101155 8.5498026932930404 #
point $-1 50.855132638513993 -2.9175270619892402 8.5498026932930404 #
straight-curve $-1 -60.429090243232523 34.077967608712321 35.500099547352676 0 0 -1 I I #
point $-1 -60.429090243232523 34.077967608712321 20.08764130000224 #
straight-curve $-1 -60.429090243232523 14.56005704188015 10.571110470667007 0 -1 0 I I #
point $-1 -60.429090243232523 34.077967608712321 10.571110470667001 #
point $-1 -52.6651575687223 29.120114083760313 12.432955784105571 #
End-of-ACIS-data 