500 0 17 0           
7 Unknown 11 ACIS 5.0 NT 24 Fri Mar 26 00:40:57 1999 
-1 9.9999999999999995e-007 1e-010 
body $-1 $17 $-1 $18 #
body $-1 $19 $-1 $20 #
body $-1 $21 $-1 $22 #
body $-1 $23 $-1 $24 #
body $-1 $25 $-1 $26 #
body $-1 $27 $-1 $28 #
body $-1 $29 $-1 $30 #
body $-1 $31 $-1 $32 #
body $-1 $33 $-1 $34 #
body $-1 $35 $-1 $36 #
body $-1 $37 $-1 $38 #
body $-1 $39 $-1 $40 #
body $-1 $41 $-1 $42 #
body $-1 $43 $-1 $44 #
body $-1 $45 $-1 $46 #
body $-1 $47 $-1 $48 #
body $-1 $49 $-1 $50 #
lump $-1 $-1 $51 $0 #
transform $-1 1 0 0 0 1 0 0 0 1 50.835291604358048 35.276592641602058 8.0591301369214356 1 rotate no_reflect no_shear #
lump $-1 $-1 $52 $1 #
transform $-1 1 0 0 0 1 0 0 0 1 50.835291604358048 35.276592641602058 8.0591301369214356 1 rotate no_reflect no_shear #
lump $-1 $-1 $53 $2 #
transform $-1 1 0 0 0 1 0 0 0 1 50.835291604358048 35.276592641602058 8.0591301369214356 1 rotate no_reflect no_shear #
lump $-1 $-1 $54 $3 #
transform $-1 1 0 0 0 1 0 0 0 1 50.835291604358048 35.276592641602058 8.0591301369214356 1 rotate no_reflect no_shear #
lump $-1 $-1 $55 $4 #
transform $-1 1 0 0 0 1 0 0 0 1 50.835291604358048 35.276592641602058 8.0591301369214356 1 rotate no_reflect no_shear #
lump $-1 $-1 $56 $5 #
transform $-1 1 0 0 0 1 0 0 0 1 50.835291604358048 35.276592641602058 8.0591301369214356 1 rotate no_reflect no_shear #
lump $-1 $-1 $57 $6 #
transform $-1 1 0 0 0 1 0 0 0 1 50.835291604358048 35.276592641602058 8.0591301369214356 1 rotate no_reflect no_shear #
lump $-1 $-1 $58 $7 #
transform $-1 1 0 0 0 1 0 0 0 1 50.835291604358048 35.276592641602058 8.0591301369214356 1 rotate no_reflect no_shear #
lump $-1 $-1 $59 $8 #
transform $-1 1 0 0 0 1 0 0 0 1 50.835291604358048 35.276592641602058 8.0591301369214356 1 rotate no_reflect no_shear #
lump $-1 $-1 $60 $9 #
transform $-1 1 0 0 0 1 0 0 0 1 50.835291604358048 35.276592641602058 8.0591301369214356 1 rotate no_reflect no_shear #
lump $-1 $-1 $61 $10 #
transform $-1 1 0 0 0 1 0 0 0 1 50.835291604358048 35.276592641602058 8.0591301369214356 1 rotate no_reflect no_shear #
lump $-1 $-1 $62 $11 #
transform $-1 1 0 0 0 1 0 0 0 1 50.835291604358048 35.276592641602058 8.0591301369214356 1 rotate no_reflect no_shear #
lump $-1 $-1 $63 $12 #
transform $-1 1 0 0 0 1 0 0 0 1 50.835291604358048 35.276592641602058 8.0591301369214356 1 rotate no_reflect no_shear #
lump $-1 $-1 $64 $13 #
transform $-1 1 0 0 0 1 0 0 0 1 50.835291604358048 35.276592641602058 8.0591301369214356 1 rotate no_reflect no_shear #
lump $-1 $-1 $65 $14 #
transform $-1 1 0 0 0 1 0 0 0 1 50.835291604358048 35.276592641602058 8.0591301369214356 1 rotate no_reflect no_shear #
lump $-1 $-1 $66 $15 #
transform $-1 1 0 0 0 1 0 0 0 1 50.835291604358048 35.276592641602058 8.0591301369214356 1 rotate no_reflect no_shear #
lump $-1 $-1 $67 $16 #
transform $-1 1 0 0 0 1 0 0 0 1 50.835291604358048 35.276592641602058 8.0591301369214356 1 rotate no_reflect no_shear #
shell $-1 $-1 $-1 $68 $-1 $17 #
shell $-1 $-1 $-1 $69 $-1 $19 #
shell $-1 $-1 $-1 $70 $-1 $21 #
shell $-1 $-1 $-1 $71 $-1 $23 #
shell $-1 $-1 $-1 $72 $-1 $25 #
shell $-1 $-1 $-1 $73 $-1 $27 #
shell $-1 $-1 $-1 $74 $-1 $29 #
shell $-1 $-1 $-1 $75 $-1 $31 #
shell $-1 $-1 $-1 $76 $-1 $33 #
shell $-1 $-1 $-1 $77 $-1 $35 #
shell $-1 $-1 $-1 $78 $-1 $37 #
shell $-1 $-1 $-1 $79 $-1 $39 #
shell $-1 $-1 $-1 $80 $-1 $41 #
shell $-1 $-1 $-1 $81 $-1 $43 #
shell $-1 $-1 $-1 $82 $-1 $45 #
shell $-1 $-1 $-1 $83 $-1 $47 #
shell $-1 $-1 $-1 $84 $-1 $49 #
face $-1 $85 $86 $51 $-1 $87 forward single #
face $-1 $88 $89 $52 $-1 $90 forward single #
face $-1 $91 $92 $53 $-1 $93 reversed single #
face $-1 $94 $95 $54 $-1 $96 forward single #
face $-1 $97 $98 $55 $-1 $99 forward single #
face $-1 $100 $101 $56 $-1 $102 reversed single #
face $-1 $103 $104 $57 $-1 $105 forward single #
face $-1 $106 $107 $58 $-1 $108 forward single #
face $-1 $109 $110 $59 $-1 $111 reversed single #
face $-1 $112 $113 $60 $-1 $114 forward single #
face $-1 $115 $116 $61 $-1 $117 forward single #
face $-1 $118 $119 $62 $-1 $120 reversed single #
face $-1 $121 $122 $63 $-1 $123 forward single #
face $-1 $124 $125 $64 $-1 $126 forward single #
face $-1 $127 $128 $65 $-1 $129 reversed single #
face $-1 $130 $131 $66 $-1 $132 forward single #
face $-1 $133 $134 $67 $-1 $135 forward single #
face $-1 $136 $137 $51 $-1 $138 reversed single #
loop $-1 $-1 $139 $68 #
plane-surface $-1 0 0 8.0591301369214356 0 0 1 1 0 0 forward_v I I I I #
face $-1 $140 $141 $52 $-1 $142 reversed single #
loop $-1 $-1 $143 $69 #
plane-surface $-1 -50.835291604358048 0 0 1 0 0 0 0 -1 forward_v I I I I #
face $-1 $144 $145 $53 $-1 $146 reversed single #
loop $-1 $-1 $147 $70 #
plane-surface $-1 -25.686347043357845 -117.52982311751427 63.456889491865397 -1 0 0 0 -0.80901700255871778 0.5877852410284794 forward_v I I I I #
face $-1 $148 $149 $54 $-1 $150 forward single #
loop $-1 $151 $152 $71 #
cone-surface $-1 -35.477572493686012 -32.545722847921816 5.0451412171413921 0 0.80901700255871778 -0.5877852410284794 1 0 0 1 I I 0 1 1 forward I I I I #
face $-1 $153 $154 $55 $-1 $155 forward single #
loop $-1 $156 $157 $72 #
cone-surface $-1 -29.602837223489111 -32.545722847921816 5.0451412171413921 0 0.80901700255871778 -0.5877852410284794 1 0 0 1 I I 0 1 1 forward I I I I #
face $-1 $158 $159 $56 $-1 $160 reversed single #
loop $-1 $-1 $161 $73 #
plane-surface $-1 -1.1197666227167069 -117.52982311751427 63.456889491865397 -1 0 0 0 -0.80901700255871778 0.5877852410284794 forward_v I I I I #
face $-1 $162 $163 $57 $-1 $164 forward single #
loop $-1 $165 $166 $74 #
cone-surface $-1 -10.910992073044866 -32.545722847921816 5.0451412171413921 0 0.80901700255871778 -0.5877852410284794 1 0 0 1 I I 0 1 1 forward I I I I #
face $-1 $167 $168 $58 $-1 $169 forward single #
loop $-1 $170 $171 $75 #
cone-surface $-1 -5.0362568028479728 -32.545722847921816 5.0451412171413921 0 0.80901700255871778 -0.5877852410284794 1 0 0 1 I I 0 1 1 forward I I I I #
face $-1 $172 $173 $59 $-1 $174 reversed single #
loop $-1 $-1 $175 $76 #
plane-surface $-1 23.446813797924431 -117.52982311751427 63.456889491865397 -1 0 0 0 -0.80901700255871778 0.5877852410284794 forward_v I I I I #
face $-1 $176 $177 $60 $-1 $178 forward single #
loop $-1 $179 $180 $77 #
cone-surface $-1 13.655588347596279 -32.545722847921816 5.0451412171413921 0 0.80901700255871778 -0.5877852410284794 1 0 0 1 I I 0 1 1 forward I I I I #
face $-1 $181 $182 $61 $-1 $183 forward single #
loop $-1 $184 $185 $78 #
cone-surface $-1 19.530323617793172 -32.545722847921816 5.0451412171413921 0 0.80901700255871778 -0.5877852410284794 1 0 0 1 I I 0 1 1 forward I I I I #
face $-1 $186 $187 $62 $-1 $188 reversed single #
loop $-1 $-1 $189 $79 #
plane-surface $-1 48.01339421856558 -117.52982311751427 63.456889491865397 -1 0 0 0 -0.80901700255871778 0.5877852410284794 forward_v I I I I #
face $-1 $190 $191 $63 $-1 $192 forward single #
loop $-1 $193 $194 $80 #
cone-surface $-1 38.222168768237424 -32.545722847921816 5.0451412171413921 0 0.80901700255871778 -0.5877852410284794 1 0 0 1 I I 0 1 1 forward I I I I #
face $-1 $195 $196 $64 $-1 $197 forward single #
loop $-1 $198 $199 $81 #
cone-surface $-1 44.096904038434317 -32.545722847921816 5.0451412171413921 0 0.80901700255871778 -0.5877852410284794 1 0 0 1 I I 0 1 1 forward I I I I #
face $-1 $200 $201 $65 $-1 $202 reversed single #
loop $-1 $-1 $203 $82 #
plane-surface $-1 1.5618125704667989 57.279917140577417 124.67909129209654 1 0 0 0 -0.70710678939079041 -0.70710677298230451 forward_v I I I I #
face $-1 $204 $205 $66 $-1 $206 forward single #
loop $-1 $207 $208 $83 #
cone-surface $-1 9.3247313654682529 31.962162149919692 4.7446996023977492 0 -0.70710678939079041 -0.70710677298230451 1.5 0 0 1 I I 0 1 1.5 forward I I I I #
face $-1 $209 $210 $67 $-1 $211 forward single #
loop $-1 $212 $213 $84 #
cone-surface $-1 20.969109557970441 31.962162149919692 4.7446996023977492 0 -0.70710678939079041 -0.70710677298230451 1.5 0 0 1 I I 0 1 1.5 forward I I I I #
face $-1 $214 $215 $51 $-1 $216 reversed single #
loop $-1 $-1 $217 $85 #
plane-surface $-1 0 0 -8.0591301369214356 0 0 1 1 0 0 forward_v I I I I #
coedge $-1 $218 $219 $220 $221 forward $86 $-1 #
face $-1 $222 $223 $52 $-1 $224 forward single #
loop $-1 $-1 $225 $88 #
plane-surface $-1 0 35.276592641602058 0 0 -1 0 0 0 -1 forward_v I I I I #
coedge $-1 $226 $227 $228 $229 forward $89 $-1 #
face $-1 $230 $231 $53 $-1 $232 reversed single #
loop $-1 $-1 $233 $91 #
plane-surface $-1 -32.540204858587558 -35.276592641602065 3.6964212350241326 0 -0.80901700255871778 0.5877852410284794 1 0 0 forward_v I I I I #
coedge $-1 $234 $235 $236 $237 reversed $92 $-1 #
face $-1 $-1 $238 $54 $-1 $239 forward single #
loop $-1 $240 $241 $94 #
cone-surface $-1 -35.477572493686012 -30.995191283827221 3.9186141277957542 0 0.80901700255871778 -0.5877852410284794 0.5 0 0 1 I I -0.70710678118654746 0.70710678118654746 0.5 forward I I I I #
loop $-1 $-1 $242 $71 #
coedge $-1 $152 $152 $243 $244 reversed $95 $-1 #
face $-1 $-1 $245 $55 $-1 $246 forward single #
loop $-1 $247 $248 $97 #
cone-surface $-1 -29.602837223489111 -30.995191283827221 3.9186141277957542 0 0.80901700255871778 -0.5877852410284794 0.5 0 0 1 I I -0.70710678118654746 0.70710678118654746 0.5 forward I I I I #
loop $-1 $-1 $249 $72 #
coedge $-1 $157 $157 $250 $251 reversed $98 $-1 #
face $-1 $252 $253 $56 $-1 $254 reversed single #
loop $-1 $-1 $255 $100 #
plane-surface $-1 -7.9736244379464196 -35.276592641602065 3.6964212350241326 0 -0.80901700255871778 0.5877852410284794 1 0 0 forward_v I I I I #
coedge $-1 $256 $257 $258 $259 reversed $101 $-1 #
face $-1 $-1 $260 $57 $-1 $261 forward single #
loop $-1 $262 $263 $103 #
cone-surface $-1 -10.910992073044866 -30.995191283827221 3.9186141277957542 0 0.80901700255871778 -0.5877852410284794 0.5 0 0 1 I I -0.70710678118654746 0.70710678118654746 0.5 forward I I I I #
loop $-1 $-1 $264 $74 #
coedge $-1 $166 $166 $265 $266 reversed $104 $-1 #
face $-1 $-1 $267 $58 $-1 $268 forward single #
loop $-1 $269 $270 $106 #
cone-surface $-1 -5.0362568028479728 -30.995191283827221 3.9186141277957542 0 0.80901700255871778 -0.5877852410284794 0.5 0 0 1 I I -0.70710678118654746 0.70710678118654746 0.5 forward I I I I #
loop $-1 $-1 $271 $75 #
coedge $-1 $171 $171 $272 $273 reversed $107 $-1 #
face $-1 $274 $275 $59 $-1 $276 reversed single #
loop $-1 $-1 $277 $109 #
plane-surface $-1 16.592955982694718 -35.276592641602065 3.6964212350241326 0 -0.80901700255871778 0.5877852410284794 1 0 0 forward_v I I I I #
coedge $-1 $278 $279 $280 $281 reversed $110 $-1 #
face $-1 $-1 $282 $60 $-1 $283 forward single #
loop $-1 $284 $285 $112 #
cone-surface $-1 13.655588347596279 -30.995191283827221 3.9186141277957542 0 0.80901700255871778 -0.5877852410284794 0.5 0 0 1 I I -0.70710678118654746 0.70710678118654746 0.5 forward I I I I #
loop $-1 $-1 $286 $77 #
coedge $-1 $180 $180 $287 $288 reversed $113 $-1 #
face $-1 $-1 $289 $61 $-1 $290 forward single #
loop $-1 $291 $292 $115 #
cone-surface $-1 19.530323617793172 -30.995191283827221 3.9186141277957542 0 0.80901700255871778 -0.5877852410284794 0.5 0 0 1 I I -0.70710678118654746 0.70710678118654746 0.5 forward I I I I #
loop $-1 $-1 $293 $78 #
coedge $-1 $185 $185 $294 $295 reversed $116 $-1 #
face $-1 $296 $297 $62 $-1 $298 reversed single #
loop $-1 $-1 $299 $118 #
plane-surface $-1 41.159536403335863 -35.276592641602065 3.6964212350241326 0 -0.80901700255871778 0.5877852410284794 1 0 0 forward_v I I I I #
coedge $-1 $300 $301 $302 $303 reversed $119 $-1 #
face $-1 $-1 $304 $63 $-1 $305 forward single #
loop $-1 $306 $307 $121 #
cone-surface $-1 38.222168768237424 -30.995191283827221 3.9186141277957542 0 0.80901700255871778 -0.5877852410284794 0.5 0 0 1 I I -0.70710678118654746 0.70710678118654746 0.5 forward I I I I #
loop $-1 $-1 $308 $80 #
coedge $-1 $194 $194 $309 $310 reversed $122 $-1 #
face $-1 $-1 $311 $64 $-1 $312 forward single #
loop $-1 $313 $314 $124 #
cone-surface $-1 44.096904038434317 -30.995191283827221 3.9186141277957542 0 0.80901700255871778 -0.5877852410284794 0.5 0 0 1 I I -0.70710678118654746 0.70710678118654746 0.5 forward I I I I #
loop $-1 $-1 $315 $81 #
coedge $-1 $199 $199 $316 $317 reversed $125 $-1 #
face $-1 $318 $319 $65 $-1 $320 reversed single #
loop $-1 $-1 $321 $127 #
plane-surface $-1 15.146920461719347 -14.612042527627032 52.787133292152433 0 0.70710678939079041 0.70710677298230451 1 0 0 forward_v I I I I #
coedge $-1 $322 $323 $324 $325 reversed $128 $-1 #
face $-1 $-1 $326 $66 $-1 $327 forward single #
loop $-1 $328 $329 $130 #
cone-surface $-1 9.3247313654682529 30.697718092152222 3.480255573971835 0 -0.70710678939079041 -0.70710677298230451 0.75 0 0 1 I I -0.70710678118654757 0.70710678118654757 0.75 forward I I I I #
loop $-1 $-1 $330 $83 #
coedge $-1 $208 $208 $331 $332 reversed $131 $-1 #
face $-1 $-1 $333 $67 $-1 $334 forward single #
loop $-1 $335 $336 $133 #
cone-surface $-1 20.969109557970441 30.697718092152222 3.480255573971835 0 -0.70710678939079041 -0.70710677298230451 0.75 0 0 1 I I -0.70710678118654757 0.70710678118654757 0.75 forward I I I I #
loop $-1 $-1 $337 $84 #
coedge $-1 $213 $213 $338 $339 reversed $134 $-1 #
face $-1 $340 $341 $51 $-1 $342 reversed single #
loop $-1 $-1 $343 $136 #
plane-surface $-1 0 -35.276592641602058 0 0 1 0 0 0 1 forward_v I I I I #
coedge $-1 $344 $345 $346 $347 forward $137 $-1 #
coedge $-1 $348 $139 $349 $350 forward $86 $-1 #
coedge $-1 $139 $348 $351 $352 forward $86 $-1 #
coedge $-1 $353 $354 $139 $221 reversed $355 $-1 #
edge $-1 $356 -35.276592641602058 $357 35.276592641602058 $220 $358 forward 7 unknown #
face $-1 $359 $360 $52 $-1 $361 reversed single #
loop $-1 $-1 $228 $140 #
plane-surface $-1 -55.144957376732201 0 -2.9986992415402955 0 0 1 1 0 0 forward_v I I I I #
coedge $-1 $362 $363 $227 $364 forward $141 $-1 #
coedge $-1 $365 $143 $366 $367 reversed $89 $-1 #
coedge $-1 $143 $365 $225 $364 reversed $89 $-1 #
coedge $-1 $368 $369 $143 $229 reversed $223 $-1 #
edge $-1 $370 -35.276592641602058 $371 35.276592641602058 $228 $372 forward 7 unknown #
face $-1 $373 $374 $53 $-1 $375 reversed single #
loop $-1 $-1 $376 $144 #
plane-surface $-1 -39.394062673817274 -117.52982311751427 63.456889491865397 1 0 0 0 0.80901700255871778 -0.5877852410284794 forward_v I I I I #
coedge $-1 $377 $378 $379 $380 reversed $145 $-1 #
coedge $-1 $235 $147 $381 $382 reversed $92 $-1 #
coedge $-1 $147 $234 $377 $383 reversed $92 $-1 #
coedge $-1 $379 $384 $147 $237 forward $385 $-1 #
edge $-1 $386 23.488318917155077 $387 26.658012378885104 $236 $388 forward 7 unknown #
loop $-1 $-1 $243 $148 #
plane-surface $-1 -32.540204858587558 -35.276592641602065 3.6964212350241326 0 -0.80901700255871778 0.5877852410284794 1 0 0 forward_v I I I I #
loop $-1 $-1 $389 $94 #
coedge $-1 $241 $241 $242 $390 reversed $149 $-1 #
coedge $-1 $242 $242 $241 $390 forward $151 $-1 #
coedge $-1 $243 $243 $152 $244 forward $238 $-1 #
edge $-1 $391 1.4371028856862683e-015 $391 6.2831853071796022 $243 $392 forward 7 unknown #
loop $-1 $-1 $250 $153 #
plane-surface $-1 -32.540204858587558 -35.276592641602065 3.6964212350241326 0 -0.80901700255871778 0.5877852410284794 1 0 0 forward_v I I I I #
loop $-1 $-1 $393 $97 #
coedge $-1 $248 $248 $249 $394 reversed $154 $-1 #
coedge $-1 $249 $249 $248 $394 forward $156 $-1 #
coedge $-1 $250 $250 $157 $251 forward $245 $-1 #
edge $-1 $395 1.4371028856862683e-015 $395 6.2831853071796022 $250 $396 forward 7 unknown #
face $-1 $397 $398 $56 $-1 $399 reversed single #
loop $-1 $-1 $400 $158 #
plane-surface $-1 -14.827482253176132 -117.52982311751427 63.456889491865397 1 0 0 0 0.80901700255871778 -0.5877852410284794 forward_v I I I I #
coedge $-1 $401 $402 $403 $404 reversed $159 $-1 #
coedge $-1 $257 $161 $405 $406 reversed $101 $-1 #
coedge $-1 $161 $256 $401 $407 reversed $101 $-1 #
coedge $-1 $403 $408 $161 $259 forward $409 $-1 #
edge $-1 $410 23.488318917155077 $411 26.658012378885104 $258 $412 forward 7 unknown #
loop $-1 $-1 $265 $162 #
plane-surface $-1 -7.9736244379464196 -35.276592641602065 3.6964212350241326 0 -0.80901700255871778 0.5877852410284794 1 0 0 forward_v I I I I #
loop $-1 $-1 $413 $103 #
coedge $-1 $263 $263 $264 $414 reversed $163 $-1 #
coedge $-1 $264 $264 $263 $414 forward $165 $-1 #
coedge $-1 $265 $265 $166 $266 forward $260 $-1 #
edge $-1 $415 1.4371028856862683e-015 $415 6.2831853071796022 $265 $416 forward 7 unknown #
loop $-1 $-1 $272 $167 #
plane-surface $-1 -7.9736244379464196 -35.276592641602065 3.6964212350241326 0 -0.80901700255871778 0.5877852410284794 1 0 0 forward_v I I I I #
loop $-1 $-1 $417 $106 #
coedge $-1 $270 $270 $271 $418 reversed $168 $-1 #
coedge $-1 $271 $271 $270 $418 forward $170 $-1 #
coedge $-1 $272 $272 $171 $273 forward $267 $-1 #
edge $-1 $419 1.4371028856862683e-015 $419 6.2831853071796022 $272 $420 forward 7 unknown #
face $-1 $421 $422 $59 $-1 $423 reversed single #
loop $-1 $-1 $424 $172 #
plane-surface $-1 9.7390981674650057 -117.52982311751427 63.456889491865397 1 0 0 0 0.80901700255871778 -0.5877852410284794 forward_v I I I I #
coedge $-1 $425 $426 $427 $428 reversed $173 $-1 #
coedge $-1 $279 $175 $429 $430 reversed $110 $-1 #
coedge $-1 $175 $278 $425 $431 reversed $110 $-1 #
coedge $-1 $427 $432 $175 $281 forward $433 $-1 #
edge $-1 $434 23.488318917155077 $435 26.658012378885104 $280 $436 forward 7 unknown #
loop $-1 $-1 $287 $176 #
plane-surface $-1 16.592955982694718 -35.276592641602065 3.6964212350241326 0 -0.80901700255871778 0.5877852410284794 1 0 0 forward_v I I I I #
loop $-1 $-1 $437 $112 #
coedge $-1 $285 $285 $286 $438 reversed $177 $-1 #
coedge $-1 $286 $286 $285 $438 forward $179 $-1 #
coedge $-1 $287 $287 $180 $288 forward $282 $-1 #
edge $-1 $439 1.4371028856862683e-015 $439 6.2831853071796022 $287 $440 forward 7 unknown #
loop $-1 $-1 $294 $181 #
plane-surface $-1 16.592955982694718 -35.276592641602065 3.6964212350241326 0 -0.80901700255871778 0.5877852410284794 1 0 0 forward_v I I I I #
loop $-1 $-1 $441 $115 #
coedge $-1 $292 $292 $293 $442 reversed $182 $-1 #
coedge $-1 $293 $293 $292 $442 forward $184 $-1 #
coedge $-1 $294 $294 $185 $295 forward $289 $-1 #
edge $-1 $443 1.4371028856862683e-015 $443 6.2831853071796022 $294 $444 forward 7 unknown #
face $-1 $445 $446 $62 $-1 $447 reversed single #
loop $-1 $-1 $448 $186 #
plane-surface $-1 34.305678588106147 -117.52982311751427 63.456889491865397 1 0 0 0 0.80901700255871778 -0.5877852410284794 forward_v I I I I #
coedge $-1 $449 $450 $451 $452 reversed $187 $-1 #
coedge $-1 $301 $189 $453 $454 reversed $119 $-1 #
coedge $-1 $189 $300 $449 $455 reversed $119 $-1 #
coedge $-1 $451 $456 $189 $303 forward $457 $-1 #
edge $-1 $458 23.488318917155077 $459 26.658012378885104 $302 $460 forward 7 unknown #
loop $-1 $-1 $309 $190 #
plane-surface $-1 41.159536403335863 -35.276592641602065 3.6964212350241326 0 -0.80901700255871778 0.5877852410284794 1 0 0 forward_v I I I I #
loop $-1 $-1 $461 $121 #
coedge $-1 $307 $307 $308 $462 reversed $191 $-1 #
coedge $-1 $308 $308 $307 $462 forward $193 $-1 #
coedge $-1 $309 $309 $194 $310 forward $304 $-1 #
edge $-1 $463 1.4371028856862683e-015 $463 6.2831853071796022 $309 $464 forward 7 unknown #
loop $-1 $-1 $316 $195 #
plane-surface $-1 41.159536403335863 -35.276592641602065 3.6964212350241326 0 -0.80901700255871778 0.5877852410284794 1 0 0 forward_v I I I I #
loop $-1 $-1 $465 $124 #
coedge $-1 $314 $314 $315 $466 reversed $196 $-1 #
coedge $-1 $315 $315 $314 $466 forward $198 $-1 #
coedge $-1 $316 $316 $199 $317 forward $311 $-1 #
edge $-1 $467 1.4371028856862683e-015 $467 6.2831853071796022 $316 $468 forward 7 unknown #
face $-1 $469 $470 $65 $-1 $471 forward single #
loop $-1 $-1 $472 $200 #
plane-surface $-1 28.732028352971895 57.279917140577417 124.67909129209654 -1 0 0 0 0.70710678939079041 0.70710677298230451 forward_v I I I I #
coedge $-1 $473 $474 $475 $476 reversed $201 $-1 #
coedge $-1 $323 $203 $477 $478 reversed $128 $-1 #
coedge $-1 $203 $322 $473 $479 reversed $128 $-1 #
coedge $-1 $475 $480 $203 $325 forward $470 $-1 #
edge $-1 $481 -6.6366340713133489 $482 -1.4760010193973336 $324 $483 forward 7 unknown #
loop $-1 $-1 $331 $204 #
plane-surface $-1 15.146920461719347 -14.612042527627032 52.787133292152433 0 0.70710678939079041 0.70710677298230451 1 0 0 forward_v I I I I #
loop $-1 $-1 $484 $130 #
coedge $-1 $329 $329 $330 $485 reversed $205 $-1 #
coedge $-1 $330 $330 $329 $485 forward $207 $-1 #
coedge $-1 $331 $331 $208 $332 forward $326 $-1 #
edge $-1 $486 4.1869109399495162e-016 $486 6.2831853071796004 $331 $487 forward 7 unknown #
loop $-1 $-1 $338 $209 #
plane-surface $-1 15.146920461719347 -14.612042527627032 52.787133292152433 0 0.70710678939079041 0.70710677298230451 1 0 0 forward_v I I I I #
loop $-1 $-1 $488 $133 #
coedge $-1 $336 $336 $337 $489 reversed $210 $-1 #
coedge $-1 $337 $337 $336 $489 forward $212 $-1 #
coedge $-1 $338 $338 $213 $339 forward $333 $-1 #
edge $-1 $490 4.1869109399495162e-016 $490 6.2831853071796004 $338 $491 forward 7 unknown #
face $-1 $492 $493 $51 $-1 $494 reversed single #
loop $-1 $-1 $495 $214 #
plane-surface $-1 -50.835291604358048 0 0 1 0 0 0 0 -1 forward_v I I I I #
coedge $-1 $496 $351 $497 $498 forward $215 $-1 #
coedge $-1 $499 $217 $496 $500 forward $137 $-1 #
coedge $-1 $217 $499 $501 $502 forward $137 $-1 #
coedge $-1 $354 $353 $217 $347 reversed $355 $-1 #
edge $-1 $503 -35.276592641602058 $504 35.276592641602058 $346 $505 forward 7 unknown #
coedge $-1 $219 $218 $506 $507 forward $86 $-1 #
coedge $-1 $508 $509 $218 $350 reversed $493 $-1 #
edge $-1 $357 -50.835291604358048 $510 50.835291604358048 $349 $511 forward 7 unknown #
coedge $-1 $343 $512 $219 $352 reversed $215 $-1 #
edge $-1 $513 -50.835291604358048 $356 50.835291604358048 $351 $514 forward 7 unknown #
coedge $-1 $346 $220 $512 $515 forward $355 $-1 #
coedge $-1 $220 $346 $508 $516 reversed $355 $-1 #
loop $-1 $-1 $353 $492 #
vertex $-1 $221 $517 #
vertex $-1 $221 $518 #
straight-curve $-1 50.835291604358048 0 8.0591301369214356 0 1 0 I I #
face $-1 $519 $520 $52 $-1 $521 reversed single #
loop $-1 $-1 $522 $222 #
plane-surface $-1 -55.144957376732201 0 -6.1324802018531344 0 0 1 1 0 0 forward_v I I I I #
coedge $-1 $523 $225 $524 $525 reversed $141 $-1 #
coedge $-1 $225 $523 $368 $526 reversed $141 $-1 #
edge $-1 $370 2.9986992415402955 $527 6.1324802018531344 $225 $528 forward 7 unknown #
coedge $-1 $227 $226 $522 $529 forward $89 $-1 #
coedge $-1 $530 $531 $226 $367 forward $532 $-1 #
edge $-1 $533 -6.1324802018531344 $371 -2.9986992415402955 $366 $534 forward 7 unknown #
coedge $-1 $535 $228 $363 $526 forward $223 $-1 #
coedge $-1 $228 $535 $530 $536 forward $223 $-1 #
vertex $-1 $364 $537 #
vertex $-1 $536 $538 #
straight-curve $-1 -50.835291604358048 0 -2.9986992415402955 0 -1 0 I I #
face $-1 $-1 $385 $53 $-1 $539 forward single #
loop $-1 $-1 $540 $230 #
plane-surface $-1 0 -35.276592641602058 0 0 1 0 0 0 1 forward_v I I I I #
coedge $-1 $541 $542 $543 $544 reversed $231 $-1 #
coedge $-1 $545 $233 $235 $383 forward $145 $-1 #
coedge $-1 $233 $545 $541 $546 forward $145 $-1 #
coedge $-1 $543 $236 $233 $380 forward $385 $-1 #
edge $-1 $387 9.4162446140640661 $547 23.123960244523495 $379 $548 forward 7 unknown #
coedge $-1 $549 $550 $234 $382 forward $374 $-1 #
edge $-1 $551 -28.032023510908555 $386 -23.669314609011263 $381 $552 forward 7 unknown #
edge $-1 $387 -5.3926047142385745 $551 -1.2080531203272332e-014 $235 $553 forward 7 unknown #
coedge $-1 $236 $543 $549 $554 forward $385 $-1 #
loop $-1 $-1 $543 $373 #
vertex $-1 $382 $555 #
vertex $-1 $237 $556 #
straight-curve $-1 -25.686347043357845 -58.764911558757134 8.0591301369214356 0 1 0 I I #
coedge $-1 $389 $389 $-1 $557 reversed $240 $-1 #
edge $-1 $558 0 $558 6.2831853071796004 $241 $559 forward 7 unknown #
vertex $-1 $244 $560 #
ellipse-curve $-1 -35.477572493686012 -33.691745910737048 5.8777756859727877 0 -0.80901700255871778 0.5877852410284794 1 0 0 1 I I #
coedge $-1 $393 $393 $-1 $561 reversed $247 $-1 #
edge $-1 $562 0 $562 6.2831853071796004 $248 $563 forward 7 unknown #
vertex $-1 $251 $564 #
ellipse-curve $-1 -29.602837223489111 -33.691745910737048 5.8777756859727877 0 -0.80901700255871778 0.5877852410284794 1 0 0 1 I I #
face $-1 $-1 $409 $56 $-1 $565 forward single #
loop $-1 $-1 $566 $252 #
plane-surface $-1 0 -35.276592641602058 0 0 1 0 0 0 1 forward_v I I I I #
coedge $-1 $567 $568 $569 $570 reversed $253 $-1 #
coedge $-1 $571 $255 $257 $407 forward $159 $-1 #
coedge $-1 $255 $571 $567 $572 forward $159 $-1 #
coedge $-1 $569 $258 $255 $404 forward $409 $-1 #
edge $-1 $411 -2.8670455962565029 $573 10.840670034202923 $403 $574 forward 7 unknown #
coedge $-1 $575 $576 $256 $406 forward $398 $-1 #
edge $-1 $577 -28.032023510908555 $410 -23.669314609011263 $405 $578 forward 7 unknown #
edge $-1 $411 -5.3926047142385745 $577 -1.2080531203272332e-014 $257 $579 forward 7 unknown #
coedge $-1 $258 $569 $575 $580 forward $409 $-1 #
loop $-1 $-1 $569 $397 #
vertex $-1 $406 $581 #
vertex $-1 $259 $582 #
straight-curve $-1 -1.1197666227167069 -58.764911558757134 8.0591301369214356 0 1 0 I I #
coedge $-1 $413 $413 $-1 $583 reversed $262 $-1 #
edge $-1 $584 0 $584 6.2831853071796004 $263 $585 forward 7 unknown #
vertex $-1 $266 $586 #
ellipse-curve $-1 -10.910992073044866 -33.691745910737048 5.8777756859727877 0 -0.80901700255871778 0.5877852410284794 1 0 0 1 I I #
coedge $-1 $417 $417 $-1 $587 reversed $269 $-1 #
edge $-1 $588 0 $588 6.2831853071796004 $270 $589 forward 7 unknown #
vertex $-1 $273 $590 #
ellipse-curve $-1 -5.0362568028479728 -33.691745910737048 5.8777756859727877 0 -0.80901700255871778 0.5877852410284794 1 0 0 1 I I #
face $-1 $-1 $433 $59 $-1 $591 forward single #
loop $-1 $-1 $592 $274 #
plane-surface $-1 0 -35.276592641602058 0 0 1 0 0 0 1 forward_v I I I I #
coedge $-1 $593 $594 $595 $596 reversed $275 $-1 #
coedge $-1 $597 $277 $279 $431 forward $173 $-1 #
coedge $-1 $277 $597 $593 $598 forward $173 $-1 #
coedge $-1 $595 $280 $277 $428 forward $433 $-1 #
edge $-1 $435 -15.150335806577072 $599 -1.4426201761176465 $427 $600 forward 7 unknown #
coedge $-1 $601 $602 $278 $430 forward $422 $-1 #
edge $-1 $603 -28.032023510908555 $434 -23.669314609011263 $429 $604 forward 7 unknown #
edge $-1 $435 -5.3926047142385745 $603 -1.2080531203272332e-014 $279 $605 forward 7 unknown #
coedge $-1 $280 $595 $601 $606 forward $433 $-1 #
loop $-1 $-1 $595 $421 #
vertex $-1 $430 $607 #
vertex $-1 $281 $608 #
straight-curve $-1 23.446813797924431 -58.764911558757134 8.0591301369214356 0 1 0 I I #
coedge $-1 $437 $437 $-1 $609 reversed $284 $-1 #
edge $-1 $610 0 $610 6.2831853071796004 $285 $611 forward 7 unknown #
vertex $-1 $288 $612 #
ellipse-curve $-1 13.655588347596279 -33.691745910737048 5.8777756859727877 0 -0.80901700255871778 0.5877852410284794 1 0 0 1 I I #
coedge $-1 $441 $441 $-1 $613 reversed $291 $-1 #
edge $-1 $614 0 $614 6.2831853071796004 $292 $615 forward 7 unknown #
vertex $-1 $295 $616 #
ellipse-curve $-1 19.530323617793172 -33.691745910737048 5.8777756859727877 0 -0.80901700255871778 0.5877852410284794 1 0 0 1 I I #
face $-1 $-1 $457 $62 $-1 $617 forward single #
loop $-1 $-1 $618 $296 #
plane-surface $-1 0 -35.276592641602058 0 0 1 0 0 0 1 forward_v I I I I #
coedge $-1 $619 $620 $621 $622 reversed $297 $-1 #
coedge $-1 $623 $299 $301 $455 forward $187 $-1 #
coedge $-1 $299 $623 $619 $624 forward $187 $-1 #
coedge $-1 $621 $302 $299 $452 forward $457 $-1 #
edge $-1 $459 -27.433626016897648 $625 -13.725910386438215 $451 $626 forward 7 unknown #
coedge $-1 $627 $628 $300 $454 forward $446 $-1 #
edge $-1 $629 -28.032023510908555 $458 -23.669314609011263 $453 $630 forward 7 unknown #
edge $-1 $459 -5.3926047142385745 $629 -1.2080531203272332e-014 $301 $631 forward 7 unknown #
coedge $-1 $302 $621 $627 $632 forward $457 $-1 #
loop $-1 $-1 $621 $445 #
vertex $-1 $454 $633 #
vertex $-1 $303 $634 #
straight-curve $-1 48.01339421856558 -58.764911558757134 8.0591301369214356 0 1 0 I I #
coedge $-1 $461 $461 $-1 $635 reversed $306 $-1 #
edge $-1 $636 0 $636 6.2831853071796004 $307 $637 forward 7 unknown #
vertex $-1 $310 $638 #
ellipse-curve $-1 38.222168768237424 -33.691745910737048 5.8777756859727877 0 -0.80901700255871778 0.5877852410284794 1 0 0 1 I I #
coedge $-1 $465 $465 $-1 $639 reversed $313 $-1 #
edge $-1 $640 0 $640 6.2831853071796004 $314 $641 forward 7 unknown #
vertex $-1 $317 $642 #
ellipse-curve $-1 44.096904038434317 -33.691745910737048 5.8777756859727877 0 -0.80901700255871778 0.5877852410284794 1 0 0 1 I I #
face $-1 $-1 $643 $65 $-1 $644 reversed single #
loop $-1 $-1 $324 $318 #
plane-surface $-1 0 0 8.0591301369214356 0 0 1 1 0 0 forward_v I I I I #
coedge $-1 $645 $646 $647 $648 reversed $319 $-1 #
coedge $-1 $649 $321 $323 $479 forward $201 $-1 #
coedge $-1 $321 $649 $645 $650 forward $201 $-1 #
coedge $-1 $647 $324 $321 $476 forward $470 $-1 #
edge $-1 $482 -6.0116476603928746 $651 21.158568122112221 $475 $652 forward 7 unknown #
coedge $-1 $653 $654 $322 $478 forward $643 $-1 #
edge $-1 $655 -59.441048680795873 $481 -54.28041550912684 $477 $656 forward 7 unknown #
edge $-1 $482 63.254947946075482 $655 70.553185283204144 $323 $657 forward 7 unknown #
coedge $-1 $324 $647 $653 $658 forward $470 $-1 #
vertex $-1 $325 $659 #
vertex $-1 $325 $660 #
straight-curve $-1 1.5618125704667989 28.639958570288709 8.0591301369214392 0 -1 0 I I #
coedge $-1 $484 $484 $-1 $661 reversed $328 $-1 #
edge $-1 $662 0 $662 6.2831853071796004 $329 $663 forward 7 unknown #
vertex $-1 $332 $664 #
ellipse-curve $-1 9.3247313654682529 32.696276115644046 5.4788135510869136 0 0.70710678939079041 0.70710677298230451 1.5 0 0 1 I I #
coedge $-1 $488 $488 $-1 $665 reversed $335 $-1 #
edge $-1 $666 0 $666 6.2831853071796004 $336 $667 forward 7 unknown #
vertex $-1 $339 $668 #
ellipse-curve $-1 20.969109557970441 32.696276115644046 5.4788135510869136 0 0.70710678939079041 0.70710677298230451 1.5 0 0 1 I I #
face $-1 $-1 $355 $51 $-1 $669 reversed single #
loop $-1 $-1 $508 $340 #
plane-surface $-1 0 35.276592641602058 0 0 -1 0 0 0 -1 forward_v I I I I #
coedge $-1 $670 $506 $509 $671 forward $341 $-1 #
coedge $-1 $512 $343 $344 $500 reversed $215 $-1 #
coedge $-1 $506 $670 $343 $498 reversed $341 $-1 #
edge $-1 $513 -8.0591301369214356 $672 8.0591301369214356 $497 $673 forward 7 unknown #
coedge $-1 $345 $344 $670 $674 forward $137 $-1 #
edge $-1 $504 -50.835291604358048 $672 50.835291604358048 $496 $675 forward 7 unknown #
coedge $-1 $509 $508 $345 $502 reversed $493 $-1 #
edge $-1 $676 -50.835291604358048 $503 50.835291604358048 $501 $677 forward 7 unknown #
vertex $-1 $347 $678 #
vertex $-1 $515 $679 #
straight-curve $-1 50.835291604358048 0 -8.0591301369214356 0 -1 0 I I #
coedge $-1 $495 $497 $348 $507 reversed $341 $-1 #
edge $-1 $510 -35.276592641602058 $513 35.276592641602058 $506 $680 forward 7 unknown #
coedge $-1 $501 $349 $354 $516 forward $493 $-1 #
coedge $-1 $349 $501 $495 $671 reversed $493 $-1 #
vertex $-1 $350 $681 #
straight-curve $-1 0 35.276592641602058 8.0591301369214356 -1 0 0 I I #
coedge $-1 $351 $496 $353 $515 reversed $215 $-1 #
vertex $-1 $507 $682 #
straight-curve $-1 0 -35.276592641602058 8.0591301369214356 1 0 0 I I #
edge $-1 $356 -8.0591301369214356 $504 8.0591301369214356 $353 $683 forward 7 unknown #
edge $-1 $357 -8.0591301369214356 $503 8.0591301369214356 $354 $684 forward 7 unknown #
point $-1 50.835291604358048 -35.276592641602058 8.0591301369214356 #
point $-1 50.835291604358048 35.276592641602058 8.0591301369214356 #
face $-1 $-1 $532 $52 $-1 $685 reversed single #
loop $-1 $-1 $686 $359 #
plane-surface $-1 -59.454623149106354 0 -4.565589721696715 1 0 0 0 0 -1 forward_v I I I I #
coedge $-1 $687 $524 $365 $529 reversed $360 $-1 #
coedge $-1 $363 $362 $686 $688 reversed $141 $-1 #
coedge $-1 $522 $689 $362 $525 forward $360 $-1 #
edge $-1 $690 -4.3096657723741529 $527 4.3096657723741529 $362 $691 forward 7 unknown #
edge $-1 $370 -4.3096657723741529 $692 4.3096657723741529 $363 $693 forward 7 unknown #
vertex $-1 $364 $694 #
straight-curve $-1 -50.835291604358048 35.276592641602058 0 0 0 -1 I I #
edge $-1 $533 -35.276592641602058 $527 35.276592641602058 $522 $695 forward 7 unknown #
coedge $-1 $696 $366 $369 $536 reversed $532 $-1 #
coedge $-1 $366 $696 $687 $697 reversed $532 $-1 #
loop $-1 $-1 $366 $519 #
vertex $-1 $367 $698 #
straight-curve $-1 -50.835291604358048 -35.276592641602058 0 0 0 1 I I #
coedge $-1 $369 $368 $699 $700 forward $223 $-1 #
edge $-1 $701 -4.3096657723741529 $371 4.3096657723741529 $530 $702 forward 7 unknown #
point $-1 -50.835291604358048 35.276592641602058 -2.9986992415402955 #
point $-1 -50.835291604358048 -35.276592641602058 -2.9986992415402955 #
plane-surface $-1 0 0 8.0591301369214356 0 0 1 1 0 0 forward_v I I I I #
coedge $-1 $550 $549 $542 $703 forward $374 $-1 #
coedge $-1 $542 $376 $378 $546 reversed $231 $-1 #
coedge $-1 $376 $541 $540 $703 reversed $231 $-1 #
coedge $-1 $384 $379 $376 $544 forward $385 $-1 #
edge $-1 $547 -26.658012378885104 $704 -23.488318917155077 $543 $705 forward 7 unknown #
coedge $-1 $378 $377 $550 $706 reversed $145 $-1 #
edge $-1 $707 1.2080531203272332e-014 $547 5.3926047142385745 $541 $708 forward 7 unknown #
vertex $-1 $380 $709 #
straight-curve $-1 -16.270102429293779 -32.10689917987203 8.0591301369214356 -1 0 0 I I #
coedge $-1 $540 $381 $384 $554 reversed $374 $-1 #
coedge $-1 $381 $540 $545 $706 forward $374 $-1 #
vertex $-1 $382 $710 #
straight-curve $-1 -25.686347043357845 -35.276592641602058 31.728444745932698 0 0 1 I I #
straight-curve $-1 -25.686347043357845 -35.276592641602065 3.6964212350241326 0 -0.5877852410284794 -0.80901700255871778 I I #
edge $-1 $704 -39.394062673817274 $386 -25.686347043357845 $549 $711 forward 7 unknown #
point $-1 -25.686347043357845 -35.276592641602058 8.0591301369214356 #
point $-1 -25.686347043357845 -32.10689917987203 8.0591301369214356 #
edge $-1 $712 1 $712 0 $389 $-1 forward 7 unknown #
vertex $-1 $390 $713 #
ellipse-curve $-1 -35.477572493686012 -31.399699785106581 4.2125067483099938 0 -0.80901700255871778 0.5877852410284794 1 0 0 1 I I #
point $-1 -34.477572493686012 -33.691745910737048 5.8777756859727894 #
edge $-1 $714 1 $714 0 $393 $-1 forward 7 unknown #
vertex $-1 $394 $715 #
ellipse-curve $-1 -29.602837223489111 -31.399699785106581 4.2125067483099938 0 -0.80901700255871778 0.5877852410284794 1 0 0 1 I I #
point $-1 -28.602837223489111 -33.691745910737048 5.8777756859727894 #
plane-surface $-1 0 0 8.0591301369214356 0 0 1 1 0 0 forward_v I I I I #
coedge $-1 $576 $575 $568 $716 forward $398 $-1 #
coedge $-1 $568 $400 $402 $572 reversed $253 $-1 #
coedge $-1 $400 $567 $566 $716 reversed $253 $-1 #
coedge $-1 $408 $403 $400 $570 forward $409 $-1 #
edge $-1 $573 -26.658012378885104 $717 -23.488318917155077 $569 $718 forward 7 unknown #
coedge $-1 $402 $401 $576 $719 reversed $159 $-1 #
edge $-1 $720 1.2080531203272332e-014 $573 5.3926047142385745 $567 $721 forward 7 unknown #
vertex $-1 $404 $722 #
straight-curve $-1 -3.9868122189732098 -32.10689917987203 8.0591301369214356 -1 0 0 I I #
coedge $-1 $566 $405 $408 $580 reversed $398 $-1 #
coedge $-1 $405 $566 $571 $719 forward $398 $-1 #
vertex $-1 $406 $723 #
straight-curve $-1 -1.1197666227167069 -35.276592641602058 31.728444745932698 0 0 1 I I #
straight-curve $-1 -1.1197666227167069 -35.276592641602065 3.6964212350241326 0 -0.5877852410284794 -0.80901700255871778 I I #
edge $-1 $717 -14.827482253176132 $410 -1.1197666227167069 $575 $724 forward 7 unknown #
point $-1 -1.1197666227167069 -35.276592641602058 8.0591301369214356 #
point $-1 -1.1197666227167069 -32.10689917987203 8.0591301369214356 #
edge $-1 $725 1 $725 0 $413 $-1 forward 7 unknown #
vertex $-1 $414 $726 #
ellipse-curve $-1 -10.910992073044866 -31.399699785106581 4.2125067483099938 0 -0.80901700255871778 0.5877852410284794 1 0 0 1 I I #
point $-1 -9.9109920730448664 -33.691745910737048 5.8777756859727894 #
edge $-1 $727 1 $727 0 $417 $-1 forward 7 unknown #
vertex $-1 $418 $728 #
ellipse-curve $-1 -5.0362568028479728 -31.399699785106581 4.2125067483099938 0 -0.80901700255871778 0.5877852410284794 1 0 0 1 I I #
point $-1 -4.0362568028479728 -33.691745910737048 5.8777756859727894 #
plane-surface $-1 0 0 8.0591301369214356 0 0 1 1 0 0 forward_v I I I I #
coedge $-1 $602 $601 $594 $729 forward $422 $-1 #
coedge $-1 $594 $424 $426 $598 reversed $275 $-1 #
coedge $-1 $424 $593 $592 $729 reversed $275 $-1 #
coedge $-1 $432 $427 $424 $596 forward $433 $-1 #
edge $-1 $599 -26.658012378885104 $730 -23.488318917155077 $595 $731 forward 7 unknown #
coedge $-1 $426 $425 $602 $732 reversed $173 $-1 #
edge $-1 $733 1.2080531203272332e-014 $599 5.3926047142385745 $593 $734 forward 7 unknown #
vertex $-1 $428 $735 #
straight-curve $-1 8.2964779913473592 -32.10689917987203 8.0591301369214356 -1 0 0 I I #
coedge $-1 $592 $429 $432 $606 reversed $422 $-1 #
coedge $-1 $429 $592 $597 $732 forward $422 $-1 #
vertex $-1 $430 $736 #
straight-curve $-1 23.446813797924431 -35.276592641602058 31.728444745932698 0 0 1 I I #
straight-curve $-1 23.446813797924431 -35.276592641602065 3.6964212350241326 0 -0.5877852410284794 -0.80901700255871778 I I #
edge $-1 $730 9.7390981674650057 $434 23.446813797924431 $601 $737 forward 7 unknown #
point $-1 23.446813797924431 -35.276592641602058 8.0591301369214356 #
point $-1 23.446813797924431 -32.10689917987203 8.0591301369214356 #
edge $-1 $738 1 $738 0 $437 $-1 forward 7 unknown #
vertex $-1 $438 $739 #
ellipse-curve $-1 13.655588347596279 -31.399699785106581 4.2125067483099938 0 -0.80901700255871778 0.5877852410284794 1 0 0 1 I I #
point $-1 14.655588347596279 -33.691745910737048 5.8777756859727894 #
edge $-1 $740 1 $740 0 $441 $-1 forward 7 unknown #
vertex $-1 $442 $741 #
ellipse-curve $-1 19.530323617793172 -31.399699785106581 4.2125067483099938 0 -0.80901700255871778 0.5877852410284794 1 0 0 1 I I #
point $-1 20.530323617793172 -33.691745910737048 5.8777756859727894 #
plane-surface $-1 0 0 8.0591301369214356 0 0 1 1 0 0 forward_v I I I I #
coedge $-1 $628 $627 $620 $742 forward $446 $-1 #
coedge $-1 $620 $448 $450 $624 reversed $297 $-1 #
coedge $-1 $448 $619 $618 $742 reversed $297 $-1 #
coedge $-1 $456 $451 $448 $622 forward $457 $-1 #
edge $-1 $625 -26.658012378885104 $743 -23.488318917155077 $621 $744 forward 7 unknown #
coedge $-1 $450 $449 $628 $745 reversed $187 $-1 #
edge $-1 $746 1.2080531203272332e-014 $625 5.3926047142385745 $619 $747 forward 7 unknown #
vertex $-1 $452 $748 #
straight-curve $-1 20.579768201667932 -32.10689917987203 8.0591301369214356 -1 0 0 I I #
coedge $-1 $618 $453 $456 $632 reversed $446 $-1 #
coedge $-1 $453 $618 $623 $745 forward $446 $-1 #
vertex $-1 $454 $749 #
straight-curve $-1 48.01339421856558 -35.276592641602058 31.728444745932698 0 0 1 I I #
straight-curve $-1 48.01339421856558 -35.276592641602065 3.6964212350241326 0 -0.5877852410284794 -0.80901700255871778 I I #
edge $-1 $743 34.305678588106147 $458 48.01339421856558 $627 $750 forward 7 unknown #
point $-1 48.01339421856558 -35.276592641602058 8.0591301369214356 #
point $-1 48.01339421856558 -32.10689917987203 8.0591301369214356 #
edge $-1 $751 1 $751 0 $461 $-1 forward 7 unknown #
vertex $-1 $462 $752 #
ellipse-curve $-1 38.222168768237424 -31.399699785106581 4.2125067483099938 0 -0.80901700255871778 0.5877852410284794 1 0 0 1 I I #
point $-1 39.222168768237424 -33.691745910737048 5.8777756859727894 #
edge $-1 $753 1 $753 0 $465 $-1 forward 7 unknown #
vertex $-1 $466 $754 #
ellipse-curve $-1 44.096904038434317 -31.399699785106581 4.2125067483099938 0 -0.80901700255871778 0.5877852410284794 1 0 0 1 I I #
point $-1 45.096904038434317 -33.691745910737048 5.8777756859727894 #
loop $-1 $-1 $477 $469 #
plane-surface $-1 0 35.276592641602058 0 0 -1 0 0 0 -1 forward_v I I I I #
coedge $-1 $646 $472 $474 $650 reversed $319 $-1 #
coedge $-1 $472 $645 $755 $756 reversed $319 $-1 #
coedge $-1 $480 $475 $472 $648 forward $470 $-1 #
edge $-1 $651 1.4760010193973336 $757 6.6366340713133489 $647 $758 forward 7 unknown #
coedge $-1 $474 $473 $654 $759 reversed $201 $-1 #
edge $-1 $760 -70.553185283204144 $651 -63.254947946075482 $645 $761 forward 7 unknown #
vertex $-1 $476 $762 #
straight-curve $-1 7.5734602308596735 30.115959589686049 8.0591301369214285 1 0 0 I I #
coedge $-1 $755 $477 $480 $658 reversed $643 $-1 #
coedge $-1 $477 $755 $649 $759 forward $643 $-1 #
vertex $-1 $478 $763 #
straight-curve $-1 1.5618125704667989 35.276592641602058 62.339545646048272 0 0 1 I I #
straight-curve $-1 1.5618125704667989 -14.612042527627032 52.787133292152433 0 0.70710677298230451 -0.70710678939079041 I I #
edge $-1 $757 -28.732028352971895 $481 -1.5618125704667989 $653 $764 forward 7 unknown #
point $-1 1.5618125704667989 35.276592641602058 8.0591301369214356 #
point $-1 1.5618125704667989 30.115959589686042 8.0591301369214392 #
edge $-1 $765 1 $765 0 $484 $-1 forward 7 unknown #
vertex $-1 $485 $766 #
ellipse-curve $-1 9.3247313654682529 31.228048184195316 4.0105856537085636 0 0.70710678939079041 0.70710677298230451 1.5 0 0 1 I I #
point $-1 10.824731365468253 32.696276115644068 5.478813551086934 #
edge $-1 $767 1 $767 0 $488 $-1 forward 7 unknown #
vertex $-1 $489 $768 #
ellipse-curve $-1 20.969109557970441 31.228048184195316 4.0105856537085636 0 0.70710678939079041 0.70710677298230451 1.5 0 0 1 I I #
point $-1 22.469109557970441 32.696276115644068 5.478813551086934 #
plane-surface $-1 50.835291604358048 0 0 -1 0 0 0 0 1 forward_v I I I I #
coedge $-1 $497 $495 $499 $674 reversed $341 $-1 #
edge $-1 $510 -8.0591301369214356 $676 8.0591301369214356 $509 $769 forward 7 unknown #
vertex $-1 $674 $770 #
straight-curve $-1 -50.835291604358048 -35.276592641602058 0 0 0 -1 I I #
edge $-1 $672 -35.276592641602058 $676 35.276592641602058 $670 $771 forward 7 unknown #
straight-curve $-1 0 -35.276592641602058 -8.0591301369214356 -1 0 0 I I #
vertex $-1 $502 $772 #
straight-curve $-1 0 35.276592641602058 -8.0591301369214356 1 0 0 I I #
point $-1 50.835291604358048 35.276592641602058 -8.0591301369214356 #
point $-1 50.835291604358048 -35.276592641602058 -8.0591301369214356 #
straight-curve $-1 -50.835291604358048 0 8.0591301369214356 0 -1 0 I I #
point $-1 -50.835291604358048 35.276592641602058 8.0591301369214356 #
point $-1 -50.835291604358048 -35.276592641602058 8.0591301369214356 #
straight-curve $-1 50.835291604358048 -35.276592641602058 0 0 0 -1 I I #
straight-curve $-1 50.835291604358048 35.276592641602058 0 0 0 -1 I I #
plane-surface $-1 0 -35.276592641602058 0 0 1 0 0 0 1 forward_v I I I I #
coedge $-1 $773 $699 $523 $688 forward $520 $-1 #
coedge $-1 $689 $522 $531 $697 forward $360 $-1 #
edge $-1 $692 -1.5668904801564194 $690 1.5668904801564194 $523 $774 forward 7 unknown #
coedge $-1 $524 $687 $773 $775 forward $360 $-1 #
vertex $-1 $525 $776 #
straight-curve $-1 -55.144957376732201 35.276592641602058 -6.1324802018531344 1 0 0 I I #
vertex $-1 $526 $777 #
straight-curve $-1 -55.144957376732201 35.276592641602058 -2.9986992415402955 -1 0 0 I I #
point $-1 -50.835291604358048 35.276592641602058 -6.1324802018531344 #
straight-curve $-1 -50.835291604358048 0 -6.1324802018531344 0 1 0 I I #
coedge $-1 $531 $530 $778 $779 forward $532 $-1 #
edge $-1 $533 -4.3096657723741529 $780 4.3096657723741529 $531 $781 forward 7 unknown #
point $-1 -50.835291604358048 -35.276592641602058 -6.1324802018531344 #
coedge $-1 $686 $778 $535 $700 reversed $520 $-1 #
edge $-1 $692 -35.276592641602058 $701 35.276592641602058 $699 $782 forward 7 unknown #
vertex $-1 $700 $783 #
straight-curve $-1 -55.144957376732201 -35.276592641602058 -2.9986992415402955 1 0 0 I I #
edge $-1 $704 23.669314609011263 $707 28.032023510908555 $540 $784 forward 7 unknown #
vertex $-1 $554 $785 #
straight-curve $-1 -39.394062673817274 -58.764911558757134 8.0591301369214356 0 -1 0 I I #
edge $-1 $707 -23.123960244523495 $551 -9.4162446140640661 $550 $786 forward 7 unknown #
vertex $-1 $706 $787 #
straight-curve $-1 -39.394062673817274 -35.276592641602065 3.6964212350241326 0 0.5877852410284794 0.80901700255871778 I I #
point $-1 -39.394062673817274 -32.10689917987203 8.0591301369214356 #
point $-1 -25.686347043357845 -35.276592641602058 3.6964212350241423 #
straight-curve $-1 0 -35.276592641602058 8.0591301369214356 1 0 0 I I #
vertex $-1 $557 $788 #
point $-1 -34.477572493686012 -31.399699785106581 4.2125067483099938 #
vertex $-1 $561 $789 #
point $-1 -28.602837223489111 -31.399699785106581 4.2125067483099938 #
edge $-1 $717 23.669314609011263 $720 28.032023510908555 $566 $790 forward 7 unknown #
vertex $-1 $580 $791 #
straight-curve $-1 -14.827482253176132 -58.764911558757134 8.0591301369214356 0 -1 0 I I #
edge $-1 $720 -10.840670034202923 $577 2.8670455962565029 $576 $792 forward 7 unknown #
vertex $-1 $719 $793 #
straight-curve $-1 -14.827482253176132 -35.276592641602065 3.6964212350241326 0 0.5877852410284794 0.80901700255871778 I I #
point $-1 -14.827482253176132 -32.10689917987203 8.0591301369214356 #
point $-1 -1.1197666227167069 -35.276592641602058 3.6964212350241423 #
straight-curve $-1 0 -35.276592641602058 8.0591301369214356 1 0 0 I I #
vertex $-1 $583 $794 #
point $-1 -9.9109920730448664 -31.399699785106581 4.2125067483099938 #
vertex $-1 $587 $795 #
point $-1 -4.0362568028479728 -31.399699785106581 4.2125067483099938 #
edge $-1 $730 23.669314609011263 $733 28.032023510908555 $592 $796 forward 7 unknown #
vertex $-1 $606 $797 #
straight-curve $-1 9.7390981674650057 -58.764911558757134 8.0591301369214356 0 -1 0 I I #
edge $-1 $733 1.4426201761176465 $603 15.150335806577072 $602 $798 forward 7 unknown #
vertex $-1 $732 $799 #
straight-curve $-1 9.7390981674650057 -35.276592641602065 3.6964212350241326 0 0.5877852410284794 0.80901700255871778 I I #
point $-1 9.7390981674650057 -32.10689917987203 8.0591301369214356 #
point $-1 23.446813797924431 -35.276592641602058 3.6964212350241423 #
straight-curve $-1 0 -35.276592641602058 8.0591301369214356 1 0 0 I I #
vertex $-1 $609 $800 #
point $-1 14.655588347596279 -31.399699785106581 4.2125067483099938 #
vertex $-1 $613 $801 #
point $-1 20.530323617793172 -31.399699785106581 4.2125067483099938 #
edge $-1 $743 23.669314609011263 $746 28.032023510908555 $618 $802 forward 7 unknown #
vertex $-1 $632 $803 #
straight-curve $-1 34.305678588106147 -58.764911558757134 8.0591301369214356 0 -1 0 I I #
edge $-1 $746 13.725910386438215 $629 27.433626016897648 $628 $804 forward 7 unknown #
vertex $-1 $745 $805 #
straight-curve $-1 34.305678588106147 -35.276592641602065 3.6964212350241326 0 0.5877852410284794 0.80901700255871778 I I #
point $-1 34.305678588106147 -32.10689917987203 8.0591301369214356 #
point $-1 48.01339421856558 -35.276592641602058 3.6964212350241423 #
straight-curve $-1 0 -35.276592641602058 8.0591301369214356 1 0 0 I I #
vertex $-1 $635 $806 #
point $-1 39.222168768237424 -31.399699785106581 4.2125067483099938 #
vertex $-1 $639 $807 #
point $-1 45.096904038434317 -31.399699785106581 4.2125067483099938 #
coedge $-1 $654 $653 $646 $756 forward $643 $-1 #
edge $-1 $757 54.28041550912684 $760 59.441048680795873 $755 $808 forward 7 unknown #
vertex $-1 $658 $809 #
straight-curve $-1 28.732028352971895 28.639958570288709 8.0591301369214392 0 1 0 I I #
edge $-1 $760 -21.158568122112221 $655 6.0116476603928746 $654 $810 forward 7 unknown #
vertex $-1 $759 $811 #
straight-curve $-1 28.732028352971895 -14.612042527627032 52.787133292152433 0 -0.70710677298230451 0.70710678939079041 I I #
point $-1 28.732028352971895 30.115959589686042 8.0591301369214392 #
point $-1 1.5618125704667989 35.276592641602058 2.8984969652523986 #
straight-curve $-1 0 35.276592641602058 8.0591301369214356 -1 0 0 I I #
vertex $-1 $661 $812 #
point $-1 10.824731365468253 31.228048184195316 4.0105856537085636 #
vertex $-1 $665 $813 #
point $-1 22.469109557970441 31.228048184195316 4.0105856537085636 #
straight-curve $-1 -50.835291604358048 35.276592641602058 0 0 0 -1 I I #
point $-1 -50.835291604358048 -35.276592641602058 -8.0591301369214356 #
straight-curve $-1 -50.835291604358048 0 -8.0591301369214356 0 1 0 I I #
point $-1 -50.835291604358048 35.276592641602058 -8.0591301369214356 #
coedge $-1 $778 $686 $689 $775 reversed $520 $-1 #
straight-curve $-1 -59.454623149106354 35.276592641602058 -4.565589721696715 0 0 -1 I I #
edge $-1 $780 -35.276592641602058 $690 35.276592641602058 $773 $814 forward 7 unknown #
point $-1 -59.454623149106354 35.276592641602058 -6.1324802018531344 #
point $-1 -59.454623149106354 35.276592641602058 -2.9986992415402955 #
coedge $-1 $699 $773 $696 $779 reversed $520 $-1 #
edge $-1 $701 -1.5668904801564194 $780 1.5668904801564194 $778 $815 forward 7 unknown #
vertex $-1 $775 $816 #
straight-curve $-1 -55.144957376732201 -35.276592641602058 -6.1324802018531344 -1 0 0 I I #
straight-curve $-1 -59.454623149106354 0 -2.9986992415402955 0 -1 0 I I #
point $-1 -59.454623149106354 -35.276592641602058 -2.9986992415402955 #
straight-curve $-1 -39.394062673817274 -35.276592641602058 31.728444745932698 0 0 -1 I I #
point $-1 -39.394062673817274 -35.276592641602058 8.0591301369214356 #
straight-curve $-1 -16.270102429293779 -35.276592641602058 3.6964212350241512 1 0 0 I I #
point $-1 -39.394062673817274 -35.276592641602058 3.6964212350241423 #
point $-1 -35.477572493686012 -30.590682782547862 3.6247215072815147 #
point $-1 -29.602837223489111 -30.590682782547862 3.6247215072815147 #
straight-curve $-1 -14.827482253176132 -35.276592641602058 31.728444745932698 0 0 -1 I I #
point $-1 -14.827482253176132 -35.276592641602058 8.0591301369214356 #
straight-curve $-1 -3.9868122189732098 -35.276592641602058 3.6964212350241512 1 0 0 I I #
point $-1 -14.827482253176132 -35.276592641602058 3.6964212350241423 #
point $-1 -10.910992073044866 -30.590682782547862 3.6247215072815147 #
point $-1 -5.0362568028479728 -30.590682782547862 3.6247215072815147 #
straight-curve $-1 9.7390981674650057 -35.276592641602058 31.728444745932698 0 0 -1 I I #
point $-1 9.7390981674650057 -35.276592641602058 8.0591301369214356 #
straight-curve $-1 8.2964779913473592 -35.276592641602058 3.6964212350241512 1 0 0 I I #
point $-1 9.7390981674650057 -35.276592641602058 3.6964212350241423 #
point $-1 13.655588347596279 -30.590682782547862 3.6247215072815147 #
point $-1 19.530323617793172 -30.590682782547862 3.6247215072815147 #
straight-curve $-1 34.305678588106147 -35.276592641602058 31.728444745932698 0 0 -1 I I #
point $-1 34.305678588106147 -35.276592641602058 8.0591301369214356 #
straight-curve $-1 20.579768201667932 -35.276592641602058 3.6964212350241512 1 0 0 I I #
point $-1 34.305678588106147 -35.276592641602058 3.6964212350241423 #
point $-1 38.222168768237424 -30.590682782547862 3.6247215072815147 #
point $-1 44.096904038434317 -30.590682782547862 3.6247215072815147 #
straight-curve $-1 28.732028352971895 35.276592641602058 62.339545646048272 0 0 -1 I I #
point $-1 28.732028352971895 35.276592641602058 8.0591301369214356 #
straight-curve $-1 7.5734602308596735 35.276592641602058 2.8984969652523951 -1 0 0 I I #
point $-1 28.732028352971895 35.276592641602058 2.8984969652523986 #
point $-1 9.3247313654682529 30.167388000109128 2.9499254942351065 #
point $-1 20.969109557970441 30.167388000109128 2.9499254942351065 #
straight-curve $-1 -59.454623149106354 0 -6.1324802018531344 0 1 0 I I #
straight-curve $-1 -59.454623149106354 -35.276592641602058 -4.565589721696715 0 0 -1 I I #
point $-1 -59.454623149106354 -35.276592641602058 -6.1324802018531344 #
End-of-ACIS-data 