500 0 8 0           
7 Unknown 11 ACIS 5.0 NT 24 Thu Mar 25 22:29:23 1999 
-1 9.9999999999999995e-007 1e-010 
body $-1 $8 $-1 $9 #
body $-1 $10 $-1 $11 #
body $-1 $12 $-1 $13 #
body $-1 $14 $-1 $15 #
body $-1 $16 $-1 $17 #
body $-1 $18 $-1 $19 #
body $-1 $20 $-1 $21 #
body $-1 $22 $-1 $23 #
lump $-1 $-1 $24 $0 #
transform $-1 1 0 0 0 1 0 0 0 1 67.552110354930264 45.301166348100281 12.213217673852286 1 rotate no_reflect no_shear #
lump $-1 $-1 $25 $1 #
transform $-1 1 0 0 0 1 0 0 0 1 67.552110354930264 45.301166348100281 12.213217673852286 1 rotate no_reflect no_shear #
lump $-1 $-1 $26 $2 #
transform $-1 1 0 0 0 1 0 0 0 1 67.552110354930264 45.301166348100281 12.213217673852286 1 rotate no_reflect no_shear #
lump $-1 $-1 $27 $3 #
transform $-1 1 0 0 0 1 0 0 0 1 67.552110354930264 45.301166348100281 12.213217673852286 1 rotate no_reflect no_shear #
lump $-1 $-1 $28 $4 #
transform $-1 1 0 0 0 1 0 0 0 1 67.552110354930264 45.301166348100281 12.213217673852286 1 rotate no_reflect no_shear #
lump $-1 $-1 $29 $5 #
transform $-1 1 0 0 0 1 0 0 0 1 67.552110354930264 45.301166348100281 12.213217673852286 1 rotate no_reflect no_shear #
lump $-1 $-1 $30 $6 #
transform $-1 1 0 0 0 1 0 0 0 1 67.552110354930264 45.301166348100281 12.213217673852286 1 rotate no_reflect no_shear #
lump $-1 $-1 $31 $7 #
transform $-1 1 0 0 0 1 0 0 0 1 67.552110354930264 45.301166348100281 12.213217673852286 1 rotate no_reflect no_shear #
shell $-1 $-1 $-1 $32 $-1 $8 #
shell $-1 $-1 $-1 $33 $-1 $10 #
shell $-1 $-1 $-1 $34 $-1 $12 #
shell $-1 $-1 $-1 $35 $-1 $14 #
shell $-1 $-1 $-1 $36 $-1 $16 #
shell $-1 $-1 $-1 $37 $-1 $18 #
shell $-1 $-1 $-1 $38 $-1 $20 #
shell $-1 $-1 $-1 $39 $-1 $22 #
face $-1 $40 $41 $24 $-1 $42 forward single #
face $-1 $43 $44 $25 $-1 $45 reversed single #
face $-1 $46 $47 $26 $-1 $48 reversed single #
face $-1 $49 $50 $27 $-1 $51 forward single #
face $-1 $52 $53 $28 $-1 $54 forward single #
face $-1 $55 $56 $29 $-1 $57 reversed single #
face $-1 $58 $59 $30 $-1 $60 forward single #
face $-1 $61 $62 $31 $-1 $63 forward single #
face $-1 $64 $65 $24 $-1 $66 reversed single #
loop $-1 $-1 $67 $32 #
plane-surface $-1 0 0 12.213217673852286 0 0 1 1 0 0 forward_v I I I I #
face $-1 $68 $69 $25 $-1 $70 reversed single #
loop $-1 $-1 $71 $33 #
plane-surface $-1 -60.404789411437456 0 5.2723290701063679 0 0 1 1 0 0 forward_v I I I I #
face $-1 $72 $73 $26 $-1 $74 reversed single #
loop $-1 $-1 $75 $34 #
plane-surface $-1 -31.270471693439365 -157.30764261817995 79.742743960230413 -1 0 0 0 -0.82903758062907751 0.55919289150049634 forward_v I I I I #
face $-1 $76 $77 $27 $-1 $78 forward single #
loop $-1 $79 $80 $35 #
cone-surface $-1 -46.975469389514565 -41.94193291378356 7.7618389064242486 0 0.82903758062907751 -0.55919289150049634 1 0 0 1 I I 0 1 1 forward I I I I #
face $-1 $81 $82 $28 $-1 $83 forward single #
loop $-1 $84 $85 $36 #
cone-surface $-1 -37.552470771869444 -41.94193291378356 7.7618389064242486 0 0.82903758062907751 -0.55919289150049634 1 0 0 1 I I 0 1 1 forward I I I I #
face $-1 $86 $87 $29 $-1 $88 reversed single #
loop $-1 $-1 $89 $37 #
plane-surface $-1 17.693852239329921 119.54110006727217 149.54598145066365 1 0 0 0 -0.87461971476443456 -0.48480960649040278 forward_v I I I I #
face $-1 $90 $91 $30 $-1 $92 forward single #
loop $-1 $93 $94 $38 #
cone-surface $-1 25.591568629153656 42.268443411470145 7.965667090338683 0 -0.87461971476443456 -0.48480960649040278 1 0 0 1 I I 0 1 1 forward I I I I #
face $-1 $95 $96 $31 $-1 $97 forward single #
loop $-1 $98 $99 $39 #
cone-surface $-1 37.438143213889262 42.268443411470145 7.965667090338683 0 -0.87461971476443456 -0.48480960649040278 1 0 0 1 I I 0 1 1 forward I I I I #
face $-1 $100 $101 $24 $-1 $102 reversed single #
loop $-1 $-1 $103 $40 #
plane-surface $-1 0 0 -12.213217673852286 0 0 1 1 0 0 forward_v I I I I #
coedge $-1 $104 $105 $106 $107 forward $41 $-1 #
face $-1 $108 $109 $25 $-1 $110 reversed single #
loop $-1 $-1 $111 $43 #
plane-surface $-1 -53.257468467944648 0 8.742773371979327 -1 0 0 0 0 1 forward_v I I I I #
coedge $-1 $112 $113 $114 $115 forward $44 $-1 #
face $-1 $116 $117 $26 $-1 $118 forward single #
loop $-1 $-1 $119 $46 #
plane-surface $-1 -42.263970080692005 -45.301166348100281 4.1934241275622668 0 -0.82903758062907751 0.55919289150049634 1 0 0 forward_v I I I I #
coedge $-1 $120 $121 $122 $123 reversed $47 $-1 #
face $-1 $-1 $124 $27 $-1 $125 forward single #
loop $-1 $126 $127 $49 #
cone-surface $-1 -46.975469389514565 -40.872890130058458 7.0407604663909691 0 0.82903758062907751 -0.55919289150049634 0.5 0 0 1 I I -0.70710678118654746 0.70710678118654746 0.5 forward I I I I #
loop $-1 $-1 $128 $35 #
coedge $-1 $80 $80 $129 $130 reversed $50 $-1 #
face $-1 $-1 $131 $28 $-1 $132 forward single #
loop $-1 $133 $134 $52 #
cone-surface $-1 -37.552470771869444 -40.872890130058458 7.0407604663909691 0 0.82903758062907751 -0.55919289150049634 0.5 0 0 1 I I -0.70710678118654746 0.70710678118654746 0.5 forward I I I I #
loop $-1 $-1 $135 $36 #
coedge $-1 $85 $85 $136 $137 reversed $53 $-1 #
face $-1 $138 $139 $29 $-1 $140 reversed single #
loop $-1 $-1 $141 $55 #
plane-surface $-1 31.514855921521459 1.3762850865427652 84.046157373123648 0 0.87461971476443456 0.48480960649040278 1 0 0 forward_v I I I I #
coedge $-1 $142 $143 $144 $145 reversed $56 $-1 #
face $-1 $-1 $146 $30 $-1 $147 forward single #
loop $-1 $148 $149 $58 #
cone-surface $-1 25.591568629153656 40.852027652811287 7.1805350438158637 0 -0.87461971476443456 -0.48480960649040278 0.5 0 0 1 I I -0.70710678118654746 0.70710678118654746 0.5 forward I I I I #
loop $-1 $-1 $150 $38 #
coedge $-1 $94 $94 $151 $152 reversed $59 $-1 #
face $-1 $-1 $153 $31 $-1 $154 forward single #
loop $-1 $155 $156 $61 #
cone-surface $-1 37.438143213889262 40.852027652811287 7.1805350438158637 0 -0.87461971476443456 -0.48480960649040278 0.5 0 0 1 I I -0.70710678118654746 0.70710678118654746 0.5 forward I I I I #
loop $-1 $-1 $157 $39 #
coedge $-1 $99 $99 $158 $159 reversed $62 $-1 #
face $-1 $160 $161 $24 $-1 $162 reversed single #
loop $-1 $-1 $163 $64 #
plane-surface $-1 0 -45.301166348100281 0 0 1 0 0 0 1 forward_v I I I I #
coedge $-1 $164 $165 $166 $167 forward $65 $-1 #
coedge $-1 $168 $67 $169 $170 forward $41 $-1 #
coedge $-1 $67 $168 $171 $172 forward $41 $-1 #
coedge $-1 $173 $174 $67 $107 reversed $175 $-1 #
edge $-1 $176 -45.301166348100281 $177 45.301166348100281 $106 $178 forward 7 unknown #
face $-1 $179 $180 $25 $-1 $181 reversed single #
loop $-1 $-1 $182 $68 #
plane-surface $-1 0 45.301166348100281 0 0 -1 0 0 0 -1 forward_v I I I I #
coedge $-1 $114 $183 $184 $185 reversed $69 $-1 #
coedge $-1 $186 $71 $187 $188 reversed $44 $-1 #
coedge $-1 $71 $186 $189 $190 reversed $44 $-1 #
coedge $-1 $191 $111 $71 $115 reversed $69 $-1 #
edge $-1 $192 -45.301166348100281 $193 45.301166348100281 $114 $194 forward 7 unknown #
face $-1 $195 $196 $26 $-1 $197 forward single #
loop $-1 $-1 $198 $72 #
plane-surface $-1 -53.257468467944648 0 8.742773371979327 -1 0 0 0 0 1 forward_v I I I I #
coedge $-1 $199 $200 $201 $202 reversed $73 $-1 #
coedge $-1 $121 $75 $203 $204 reversed $47 $-1 #
coedge $-1 $75 $120 $199 $205 reversed $47 $-1 #
coedge $-1 $201 $206 $75 $123 forward $196 $-1 #
edge $-1 $207 33.352654960989696 $208 38.762073842802018 $122 $209 forward 7 unknown #
loop $-1 $-1 $129 $76 #
plane-surface $-1 -42.263970080692005 -45.301166348100281 4.1934241275622668 0 -0.82903758062907751 0.55919289150049634 1 0 0 forward_v I I I I #
loop $-1 $-1 $210 $49 #
coedge $-1 $127 $127 $128 $211 reversed $77 $-1 #
coedge $-1 $128 $128 $127 $211 forward $79 $-1 #
coedge $-1 $129 $129 $80 $130 forward $124 $-1 #
edge $-1 $212 -1.0279713165030387e-015 $212 6.2831853071795996 $129 $213 forward 7 unknown #
loop $-1 $-1 $136 $81 #
plane-surface $-1 -42.263970080692005 -45.301166348100281 4.1934241275622668 0 -0.82903758062907751 0.55919289150049634 1 0 0 forward_v I I I I #
loop $-1 $-1 $214 $52 #
coedge $-1 $134 $134 $135 $215 reversed $82 $-1 #
coedge $-1 $135 $135 $134 $215 forward $84 $-1 #
coedge $-1 $136 $136 $85 $137 forward $131 $-1 #
edge $-1 $216 -1.0279713165030387e-015 $216 6.2831853071795996 $136 $217 forward 7 unknown #
face $-1 $218 $219 $29 $-1 $220 forward single #
loop $-1 $-1 $221 $86 #
plane-surface $-1 45.335859603712997 119.54110006727217 149.54598145066365 -1 0 0 0 0.87461971476443456 0.48480960649040278 forward_v I I I I #
coedge $-1 $222 $223 $224 $225 reversed $87 $-1 #
coedge $-1 $143 $89 $226 $227 reversed $56 $-1 #
coedge $-1 $89 $142 $222 $228 reversed $56 $-1 #
coedge $-1 $224 $229 $89 $145 forward $219 $-1 #
edge $-1 $230 14.469383685535803 $231 18.576617756242783 $144 $232 forward 7 unknown #
loop $-1 $-1 $151 $90 #
plane-surface $-1 31.514855921521459 1.3762850865427652 84.046157373123648 0 0.87461971476443456 0.48480960649040278 1 0 0 forward_v I I I I #
loop $-1 $-1 $233 $58 #
coedge $-1 $149 $149 $150 $234 reversed $91 $-1 #
coedge $-1 $150 $150 $149 $234 forward $93 $-1 #
coedge $-1 $151 $151 $94 $152 forward $146 $-1 #
edge $-1 $235 -6.7501203358497052e-016 $235 6.2831853071795996 $151 $236 forward 7 unknown #
loop $-1 $-1 $158 $95 #
plane-surface $-1 31.514855921521459 1.3762850865427652 84.046157373123648 0 0.87461971476443456 0.48480960649040278 1 0 0 forward_v I I I I #
loop $-1 $-1 $237 $61 #
coedge $-1 $156 $156 $157 $238 reversed $96 $-1 #
coedge $-1 $157 $157 $156 $238 forward $98 $-1 #
coedge $-1 $158 $158 $99 $159 forward $153 $-1 #
edge $-1 $239 -6.7501203358497052e-016 $239 6.2831853071795996 $158 $240 forward 7 unknown #
face $-1 $241 $242 $24 $-1 $243 reversed single #
loop $-1 $-1 $244 $100 #
plane-surface $-1 -67.552110354930264 0 0 1 0 0 0 0 -1 forward_v I I I I #
coedge $-1 $245 $171 $246 $247 forward $101 $-1 #
coedge $-1 $248 $103 $245 $249 forward $65 $-1 #
coedge $-1 $103 $248 $250 $251 forward $65 $-1 #
coedge $-1 $174 $173 $103 $167 reversed $175 $-1 #
edge $-1 $252 -45.301166348100281 $253 45.301166348100281 $166 $254 forward 7 unknown #
coedge $-1 $105 $104 $255 $256 forward $41 $-1 #
coedge $-1 $257 $258 $104 $170 reversed $242 $-1 #
edge $-1 $177 -67.552110354930264 $259 67.552110354930264 $169 $260 forward 7 unknown #
coedge $-1 $163 $261 $105 $172 reversed $101 $-1 #
edge $-1 $262 -67.552110354930264 $176 67.552110354930264 $171 $263 forward 7 unknown #
coedge $-1 $166 $106 $261 $264 forward $175 $-1 #
coedge $-1 $106 $166 $257 $265 reversed $175 $-1 #
loop $-1 $-1 $173 $241 #
vertex $-1 $107 $266 #
vertex $-1 $107 $267 #
straight-curve $-1 67.552110354930264 0 12.213217673852286 0 1 0 I I #
face $-1 $268 $269 $25 $-1 $270 forward single #
loop $-1 $-1 $271 $108 #
plane-surface $-1 -67.552110354930264 0 0 1 0 0 0 0 -1 forward_v I I I I #
coedge $-1 $189 $272 $191 $273 forward $109 $-1 #
coedge $-1 $111 $191 $274 $275 reversed $69 $-1 #
coedge $-1 $276 $187 $111 $185 forward $277 $-1 #
edge $-1 $193 0.90094238411670435 $278 7.8418309878626227 $184 $279 forward 7 unknown #
coedge $-1 $113 $112 $271 $280 reversed $44 $-1 #
coedge $-1 $184 $281 $112 $188 forward $277 $-1 #
edge $-1 $282 -37.349715649211532 $193 -23.05507376222592 $187 $283 forward 7 unknown #
coedge $-1 $284 $182 $113 $190 forward $109 $-1 #
edge $-1 $192 23.05507376222592 $285 37.349715649211532 $189 $286 forward 7 unknown #
coedge $-1 $183 $114 $182 $273 reversed $69 $-1 #
vertex $-1 $190 $287 #
vertex $-1 $188 $288 #
straight-curve $-1 -53.257468467944648 0 5.2723290701063679 0 -1 0 I I #
face $-1 $-1 $289 $26 $-1 $290 reversed single #
loop $-1 $-1 $201 $116 #
plane-surface $-1 0 0 12.213217673852286 0 0 1 1 0 0 forward_v I I I I #
coedge $-1 $291 $292 $200 $293 reversed $117 $-1 #
coedge $-1 $294 $119 $121 $205 forward $73 $-1 #
coedge $-1 $119 $294 $198 $293 forward $73 $-1 #
coedge $-1 $295 $122 $119 $202 forward $196 $-1 #
edge $-1 $208 10.138486653093363 $296 32.125483427598645 $201 $297 forward 7 unknown #
coedge $-1 $298 $299 $120 $204 forward $289 $-1 #
edge $-1 $300 -35.67794785255294 $207 -27.658154306262922 $203 $301 forward 7 unknown #
edge $-1 $208 -9.6736188246189805 $300 0 $121 $302 forward 7 unknown #
coedge $-1 $122 $295 $298 $303 forward $196 $-1 #
vertex $-1 $204 $304 #
vertex $-1 $123 $305 #
straight-curve $-1 -31.270471693439365 -78.653821309089977 12.213217673852284 0 1 0 I I #
coedge $-1 $210 $210 $-1 $306 reversed $126 $-1 #
edge $-1 $307 0 $307 6.2831853071796004 $127 $308 forward 7 unknown #
vertex $-1 $130 $309 #
ellipse-curve $-1 -46.975469389514565 -42.596456907194117 8.2033209007072774 0 -0.82903758062907751 0.55919289150049634 1 0 0 1 I I #
coedge $-1 $214 $214 $-1 $310 reversed $133 $-1 #
edge $-1 $311 0 $311 6.2831853071796004 $134 $312 forward 7 unknown #
vertex $-1 $137 $313 #
ellipse-curve $-1 -37.552470771869444 -42.596456907194117 8.2033209007072774 0 -0.82903758062907751 0.55919289150049634 1 0 0 1 I I #
face $-1 $-1 $314 $29 $-1 $315 reversed single #
loop $-1 $-1 $144 $138 #
plane-surface $-1 0 0 12.213217673852286 0 0 1 1 0 0 forward_v I I I I #
coedge $-1 $316 $317 $318 $319 reversed $139 $-1 #
coedge $-1 $320 $141 $143 $228 forward $87 $-1 #
coedge $-1 $141 $320 $316 $321 forward $87 $-1 #
coedge $-1 $318 $144 $141 $225 forward $219 $-1 #
edge $-1 $231 1.9364242785691914 $322 29.578431642952268 $224 $323 forward 7 unknown #
coedge $-1 $324 $325 $142 $227 forward $314 $-1 #
edge $-1 $326 -69.969419731951447 $230 -62.559773051479539 $226 $327 forward 7 unknown #
edge $-1 $231 82.130483096437487 $326 90.602332696200492 $143 $328 forward 7 unknown #
coedge $-1 $144 $318 $324 $329 forward $219 $-1 #
vertex $-1 $227 $330 #
vertex $-1 $145 $331 #
straight-curve $-1 17.693852239329921 59.770550033636084 12.213217673852284 0 -1 0 I I #
coedge $-1 $233 $233 $-1 $332 reversed $148 $-1 #
edge $-1 $333 0 $333 6.2831853071796004 $149 $334 forward 7 unknown #
vertex $-1 $152 $335 #
ellipse-curve $-1 25.591568629153656 43.247549312746798 8.5083943336163088 0 0.87461971476443456 0.48480960649040278 1 0 0 1 I I #
coedge $-1 $237 $237 $-1 $336 reversed $155 $-1 #
edge $-1 $337 0 $337 6.2831853071796004 $156 $338 forward 7 unknown #
vertex $-1 $159 $339 #
ellipse-curve $-1 37.438143213889262 43.247549312746798 8.5083943336163088 0 0.87461971476443456 0.48480960649040278 1 0 0 1 I I #
face $-1 $-1 $175 $24 $-1 $340 reversed single #
loop $-1 $-1 $257 $160 #
plane-surface $-1 0 45.301166348100281 0 0 -1 0 0 0 -1 forward_v I I I I #
coedge $-1 $341 $255 $258 $342 forward $161 $-1 #
coedge $-1 $261 $163 $164 $249 reversed $101 $-1 #
coedge $-1 $255 $341 $163 $247 reversed $161 $-1 #
edge $-1 $262 -12.213217673852286 $343 12.213217673852286 $246 $344 forward 7 unknown #
coedge $-1 $165 $164 $341 $345 forward $65 $-1 #
edge $-1 $253 -67.552110354930264 $343 67.552110354930264 $245 $346 forward 7 unknown #
coedge $-1 $258 $257 $165 $251 reversed $242 $-1 #
edge $-1 $347 -67.552110354930264 $252 67.552110354930264 $250 $348 forward 7 unknown #
vertex $-1 $167 $349 #
vertex $-1 $264 $350 #
straight-curve $-1 67.552110354930264 0 -12.213217673852286 0 -1 0 I I #
coedge $-1 $244 $246 $168 $256 reversed $161 $-1 #
edge $-1 $259 -45.301166348100281 $262 45.301166348100281 $255 $351 forward 7 unknown #
coedge $-1 $250 $169 $174 $265 forward $242 $-1 #
coedge $-1 $169 $250 $244 $342 reversed $242 $-1 #
vertex $-1 $170 $352 #
straight-curve $-1 0 45.301166348100281 12.213217673852286 -1 0 0 I I #
coedge $-1 $171 $245 $173 $264 reversed $101 $-1 #
vertex $-1 $256 $353 #
straight-curve $-1 0 -45.301166348100281 12.213217673852286 1 0 0 I I #
edge $-1 $176 -12.213217673852286 $253 12.213217673852286 $173 $354 forward 7 unknown #
edge $-1 $177 -12.213217673852286 $252 12.213217673852286 $174 $355 forward 7 unknown #
point $-1 67.552110354930264 -45.301166348100281 12.213217673852286 #
point $-1 67.552110354930264 45.301166348100281 12.213217673852286 #
face $-1 $-1 $277 $25 $-1 $356 reversed single #
loop $-1 $-1 $274 $179 #
plane-surface $-1 0 0 12.213217673852286 0 0 1 1 0 0 forward_v I I I I #
coedge $-1 $357 $358 $186 $280 forward $180 $-1 #
coedge $-1 $182 $284 $359 $360 reversed $109 $-1 #
edge $-1 $361 -7.8418309878626227 $192 -0.90094238411670435 $182 $362 forward 7 unknown #
coedge $-1 $359 $363 $183 $275 forward $269 $-1 #
edge $-1 $278 -45.301166348100281 $361 45.301166348100281 $274 $364 forward 7 unknown #
coedge $-1 $281 $184 $363 $365 reversed $277 $-1 #
loop $-1 $-1 $184 $268 #
vertex $-1 $185 $366 #
straight-curve $-1 -53.257468467944648 -45.301166348100281 4.3713866859896635 0 0 1 I I #
edge $-1 $285 -45.301166348100281 $282 45.301166348100281 $271 $367 forward 7 unknown #
coedge $-1 $187 $276 $357 $368 forward $277 $-1 #
vertex $-1 $280 $369 #
straight-curve $-1 -30.202394705718728 -45.301166348100281 5.2723290701063679 1 0 0 I I #
coedge $-1 $272 $189 $358 $370 reversed $109 $-1 #
vertex $-1 $280 $371 #
straight-curve $-1 -30.202394705718728 45.301166348100281 5.2723290701063679 -1 0 0 I I #
point $-1 -53.257468467944648 45.301166348100281 5.2723290701063679 #
point $-1 -53.257468467944648 -45.301166348100281 5.2723290701063679 #
loop $-1 $-1 $203 $195 #
plane-surface $-1 0 -45.301166348100281 0 0 1 0 0 0 1 forward_v I I I I #
coedge $-1 $292 $198 $372 $373 reversed $117 $-1 #
coedge $-1 $198 $291 $295 $374 reversed $117 $-1 #
edge $-1 $375 0 $296 9.6736188246189805 $198 $376 forward 7 unknown #
coedge $-1 $200 $199 $299 $377 reversed $73 $-1 #
coedge $-1 $206 $201 $292 $374 forward $196 $-1 #
vertex $-1 $374 $378 #
straight-curve $-1 -21.131985040346002 -39.89174746628796 12.213217673852286 -1 0 0 I I #
coedge $-1 $372 $203 $206 $303 reversed $289 $-1 #
coedge $-1 $203 $372 $294 $377 forward $289 $-1 #
vertex $-1 $204 $379 #
straight-curve $-1 -31.270471693439365 -45.301166348100281 39.871371980115207 0 0 1 I I #
straight-curve $-1 -31.270471693439365 -45.301166348100281 4.1934241275622668 0 -0.55919289150049634 -0.82903758062907751 I I #
edge $-1 $380 -53.257468467944648 $207 -31.270471693439365 $298 $381 forward 7 unknown #
point $-1 -31.270471693439365 -45.301166348100281 12.213217673852286 #
point $-1 -31.270471693439365 -39.89174746628796 12.213217673852286 #
edge $-1 $382 1 $382 0 $210 $-1 forward 7 unknown #
vertex $-1 $211 $383 #
ellipse-curve $-1 -46.975469389514565 -41.287408920372997 7.3203569121412171 0 -0.82903758062907751 0.55919289150049634 1 0 0 1 I I #
point $-1 -45.975469389514565 -42.596456907194124 8.2033209007072809 #
edge $-1 $384 1 $384 0 $214 $-1 forward 7 unknown #
vertex $-1 $215 $385 #
ellipse-curve $-1 -37.552470771869444 -41.287408920372997 7.3203569121412171 0 -0.82903758062907751 0.55919289150049634 1 0 0 1 I I #
point $-1 -36.552470771869444 -42.596456907194124 8.2033209007072809 #
loop $-1 $-1 $226 $218 #
plane-surface $-1 0 45.301166348100281 0 0 -1 0 0 0 -1 forward_v I I I I #
coedge $-1 $317 $221 $223 $321 reversed $139 $-1 #
coedge $-1 $221 $316 $386 $387 reversed $139 $-1 #
coedge $-1 $229 $224 $221 $319 forward $219 $-1 #
edge $-1 $322 -18.576617756242783 $388 -14.469383685535803 $318 $389 forward 7 unknown #
coedge $-1 $223 $222 $325 $390 reversed $87 $-1 #
edge $-1 $391 -90.602332696200492 $322 -82.130483096437487 $316 $392 forward 7 unknown #
vertex $-1 $225 $393 #
straight-curve $-1 15.757427960760729 41.193932277393294 12.213217673852292 1 0 0 I I #
coedge $-1 $386 $226 $229 $329 reversed $314 $-1 #
coedge $-1 $226 $386 $320 $390 forward $314 $-1 #
vertex $-1 $227 $394 #
straight-curve $-1 17.693852239329921 45.301166348100281 74.772990725331823 0 0 1 I I #
straight-curve $-1 17.693852239329921 1.3762850865427652 84.046157373123648 0 0.48480960649040278 -0.87461971476443456 I I #
edge $-1 $388 -45.335859603712997 $230 -17.693852239329921 $324 $395 forward 7 unknown #
point $-1 17.693852239329921 45.301166348100281 12.213217673852286 #
point $-1 17.693852239329921 41.193932277393301 12.213217673852284 #
edge $-1 $396 1 $396 0 $233 $-1 forward 7 unknown #
vertex $-1 $234 $397 #
ellipse-curve $-1 25.591568629153656 41.289337510193505 7.4229398470610652 0 0.87461971476443456 0.48480960649040278 1 0 0 1 I I #
point $-1 26.591568629153656 43.247549312746784 8.5083943336163017 #
edge $-1 $398 1 $398 0 $237 $-1 forward 7 unknown #
vertex $-1 $238 $399 #
ellipse-curve $-1 37.438143213889262 41.289337510193505 7.4229398470610652 0 0.87461971476443456 0.48480960649040278 1 0 0 1 I I #
point $-1 38.438143213889262 43.247549312746784 8.5083943336163017 #
plane-surface $-1 67.552110354930264 0 0 -1 0 0 0 0 1 forward_v I I I I #
coedge $-1 $246 $244 $248 $345 reversed $161 $-1 #
edge $-1 $259 -12.213217673852286 $347 12.213217673852286 $258 $400 forward 7 unknown #
vertex $-1 $345 $401 #
straight-curve $-1 -67.552110354930264 -45.301166348100281 0 0 0 -1 I I #
edge $-1 $343 -45.301166348100281 $347 45.301166348100281 $341 $402 forward 7 unknown #
straight-curve $-1 0 -45.301166348100281 -12.213217673852286 -1 0 0 I I #
vertex $-1 $251 $403 #
straight-curve $-1 0 45.301166348100281 -12.213217673852286 1 0 0 I I #
point $-1 67.552110354930264 45.301166348100281 -12.213217673852286 #
point $-1 67.552110354930264 -45.301166348100281 -12.213217673852286 #
straight-curve $-1 -67.552110354930264 0 12.213217673852286 0 -1 0 I I #
point $-1 -67.552110354930264 45.301166348100281 12.213217673852286 #
point $-1 -67.552110354930264 -45.301166348100281 12.213217673852286 #
straight-curve $-1 67.552110354930264 -45.301166348100281 0 0 0 -1 I I #
straight-curve $-1 67.552110354930264 45.301166348100281 0 0 0 -1 I I #
plane-surface $-1 0 -45.301166348100281 0 0 1 0 0 0 1 forward_v I I I I #
coedge $-1 $404 $271 $281 $368 reversed $180 $-1 #
coedge $-1 $271 $404 $284 $370 forward $180 $-1 #
coedge $-1 $405 $274 $272 $360 forward $269 $-1 #
edge $-1 $361 53.257468467944648 $406 67.552110354930264 $272 $407 forward 7 unknown #
vertex $-1 $360 $408 #
straight-curve $-1 -53.257468467944648 45.301166348100281 4.3713866859896635 0 0 -1 I I #
coedge $-1 $274 $405 $276 $365 forward $269 $-1 #
straight-curve $-1 -53.257468467944648 0 12.213217673852286 0 1 0 I I #
edge $-1 $409 -67.552110354930264 $278 -53.257468467944648 $276 $410 forward 7 unknown #
point $-1 -53.257468467944648 -45.301166348100281 12.213217673852286 #
straight-curve $-1 -67.552110354930264 0 5.2723290701063679 0 -1 0 I I #
edge $-1 $409 -12.213217673852286 $282 -5.2723290701063679 $357 $411 forward 7 unknown #
point $-1 -67.552110354930264 -45.301166348100281 5.2723290701063679 #
edge $-1 $406 -12.213217673852286 $285 -5.2723290701063679 $284 $412 forward 7 unknown #
point $-1 -67.552110354930264 45.301166348100281 5.2723290701063679 #
coedge $-1 $299 $298 $291 $373 forward $289 $-1 #
edge $-1 $380 27.658154306262922 $375 35.67794785255294 $372 $413 forward 7 unknown #
edge $-1 $296 39.89174746628796 $380 45.301166348100281 $295 $414 forward 7 unknown #
vertex $-1 $373 $415 #
straight-curve $-1 -53.257468467944648 -45.301166348100281 4.1934241275622668 0 0.55919289150049634 0.82903758062907751 I I #
edge $-1 $375 -32.125483427598645 $300 -10.138486653093363 $299 $416 forward 7 unknown #
point $-1 -53.257468467944648 -39.89174746628796 12.213217673852286 #
point $-1 -31.270471693439365 -45.301166348100281 4.1934241275622668 #
vertex $-1 $303 $417 #
straight-curve $-1 0 -45.301166348100281 12.213217673852286 1 0 0 I I #
vertex $-1 $306 $418 #
point $-1 -45.975469389514565 -41.287408920372997 7.3203569121412171 #
vertex $-1 $310 $419 #
point $-1 -36.552470771869444 -41.287408920372997 7.3203569121412171 #
coedge $-1 $325 $324 $317 $387 forward $314 $-1 #
edge $-1 $388 62.559773051479539 $391 69.969419731951447 $386 $420 forward 7 unknown #
vertex $-1 $329 $421 #
straight-curve $-1 45.335859603712997 59.770550033636084 12.213217673852284 0 1 0 I I #
edge $-1 $391 -29.578431642952268 $326 -1.9364242785691914 $325 $422 forward 7 unknown #
vertex $-1 $390 $423 #
straight-curve $-1 45.335859603712997 1.3762850865427652 84.046157373123648 0 -0.48480960649040278 0.87461971476443456 I I #
point $-1 45.335859603712997 41.193932277393301 12.213217673852284 #
point $-1 17.693852239329921 45.301166348100281 4.8035709933803759 #
straight-curve $-1 0 45.301166348100281 12.213217673852286 -1 0 0 I I #
vertex $-1 $332 $424 #
point $-1 26.591568629153656 41.289337510193505 7.4229398470610652 #
vertex $-1 $336 $425 #
point $-1 38.438143213889262 41.289337510193505 7.4229398470610652 #
straight-curve $-1 -67.552110354930264 45.301166348100281 0 0 0 -1 I I #
point $-1 -67.552110354930264 -45.301166348100281 -12.213217673852286 #
straight-curve $-1 -67.552110354930264 0 -12.213217673852286 0 1 0 I I #
point $-1 -67.552110354930264 45.301166348100281 -12.213217673852286 #
coedge $-1 $358 $357 $405 $426 reversed $180 $-1 #
coedge $-1 $363 $359 $404 $426 forward $269 $-1 #
vertex $-1 $360 $427 #
straight-curve $-1 0 45.301166348100281 12.213217673852286 -1 0 0 I I #
point $-1 -53.257468467944648 45.301166348100281 12.213217673852286 #
vertex $-1 $426 $428 #
straight-curve $-1 0 -45.301166348100281 12.213217673852286 1 0 0 I I #
straight-curve $-1 -67.552110354930264 -45.301166348100281 0 0 0 -1 I I #
straight-curve $-1 -67.552110354930264 45.301166348100281 0 0 0 -1 I I #
straight-curve $-1 -53.257468467944648 -45.301166348100281 39.871371980115207 0 0 -1 I I #
straight-curve $-1 -53.257468467944648 0 12.213217673852286 0 -1 0 I I #
point $-1 -53.257468467944648 -45.301166348100281 4.1934241275622668 #
straight-curve $-1 -21.131985040346002 -45.301166348100281 4.1934241275622712 1 0 0 I I #
point $-1 -53.257468467944648 -45.301166348100281 12.213217673852286 #
point $-1 -46.975469389514565 -40.45837133974392 6.7611640206407211 #
point $-1 -37.552470771869444 -40.45837133974392 6.7611640206407211 #
straight-curve $-1 45.335859603712997 45.301166348100281 74.772990725331823 0 0 -1 I I #
point $-1 45.335859603712997 45.301166348100281 12.213217673852286 #
straight-curve $-1 15.757427960760729 45.301166348100281 4.8035709933803616 -1 0 0 I I #
point $-1 45.335859603712997 45.301166348100281 4.8035709933803759 #
point $-1 25.591568629153656 40.41471779542907 6.9381302405706622 #
point $-1 37.438143213889262 40.41471779542907 6.9381302405706622 #
edge $-1 $406 -45.301166348100281 $409 45.301166348100281 $404 $429 forward 7 unknown #
point $-1 -67.552110354930264 45.301166348100281 12.213217673852286 #
point $-1 -67.552110354930264 -45.301166348100281 12.213217673852286 #
straight-curve $-1 -67.552110354930264 0 12.213217673852286 0 -1 0 I I #
End-of-ACIS-data 