500 0 7 0           
7 Unknown 11 ACIS 5.0 NT 24 Fri Mar 26 19:09:17 1999 
-1 9.9999999999999995e-007 1e-010 
body $-1 $7 $-1 $8 #
body $-1 $9 $-1 $10 #
body $-1 $11 $-1 $12 #
body $-1 $13 $-1 $14 #
body $-1 $15 $-1 $16 #
body $-1 $17 $-1 $18 #
body $-1 $19 $-1 $20 #
lump $-1 $-1 $21 $0 #
transform $-1 1 0 0 0 1 0 0 0 1 52.236701559495835 32.73486148114052 12.177844004114101 1 rotate no_reflect no_shear #
lump $-1 $-1 $22 $1 #
transform $-1 1 0 0 0 1 0 0 0 1 52.236701559495835 32.73486148114052 12.177844004114101 1 rotate no_reflect no_shear #
lump $-1 $-1 $23 $2 #
transform $-1 1 0 0 0 1 0 0 0 1 52.236701559495835 32.73486148114052 12.177844004114101 1 rotate no_reflect no_shear #
lump $-1 $-1 $24 $3 #
transform $-1 1 0 0 0 1 0 0 0 1 52.236701559495835 32.73486148114052 12.177844004114101 1 rotate no_reflect no_shear #
lump $-1 $-1 $25 $4 #
transform $-1 1 0 0 0 1 0 0 0 1 52.236701559495835 32.73486148114052 12.177844004114101 1 rotate no_reflect no_shear #
lump $-1 $-1 $26 $5 #
transform $-1 1 0 0 0 1 0 0 0 1 52.236701559495835 32.73486148114052 12.177844004114101 1 rotate no_reflect no_shear #
lump $-1 $-1 $27 $6 #
transform $-1 1 0 0 0 1 0 0 0 1 52.236701559495835 32.73486148114052 12.177844004114101 1 rotate no_reflect no_shear #
shell $-1 $-1 $-1 $28 $-1 $7 #
shell $-1 $-1 $-1 $29 $-1 $9 #
shell $-1 $-1 $-1 $30 $-1 $11 #
shell $-1 $-1 $-1 $31 $-1 $13 #
shell $-1 $-1 $-1 $32 $-1 $15 #
shell $-1 $-1 $-1 $33 $-1 $17 #
shell $-1 $-1 $-1 $34 $-1 $19 #
face $-1 $35 $36 $21 $-1 $37 forward single #
face $-1 $38 $39 $22 $-1 $40 reversed single #
face $-1 $41 $42 $23 $-1 $43 forward single #
face $-1 $44 $45 $24 $-1 $46 forward single #
face $-1 $47 $48 $25 $-1 $49 reversed single #
face $-1 $50 $51 $26 $-1 $52 forward single #
face $-1 $53 $54 $27 $-1 $55 forward single #
face $-1 $56 $57 $21 $-1 $58 reversed single #
loop $-1 $-1 $59 $28 #
plane-surface $-1 0 0 12.177844004114101 0 0 1 1 0 0 forward_v I I I I #
face $-1 $60 $61 $22 $-1 $62 reversed single #
loop $-1 $-1 $63 $29 #
plane-surface $-1 36.662936454210914 -32.734861481140527 0.99573459378721907 0 -0.70710678939079041 0.70710677298230451 1 0 0 forward_v I I I I #
face $-1 $64 $65 $23 $-1 $66 forward single #
loop $-1 $67 $68 $30 #
cone-surface $-1 29.988465694803104 -25.762642859940797 5.2056252852234337 0 0.70710678939079041 -0.70710677298230451 2.5 0 0 1 I I 0 1 2.5 forward I I I I #
face $-1 $69 $70 $24 $-1 $71 forward single #
loop $-1 $72 $73 $31 #
cone-surface $-1 43.337407213618739 -25.762642859940797 5.2056252852234337 0 0.70710678939079041 -0.70710677298230451 2.5 0 0 1 I I 0 1 2.5 forward I I I I #
face $-1 $74 $75 $25 $-1 $76 reversed single #
loop $-1 $-1 $77 $32 #
plane-surface $-1 36.662936454210914 -13.559223050763499 47.289820199950256 0 0.70710678939079041 0.70710677298230451 1 0 0 forward_v I I I I #
face $-1 $78 $79 $26 $-1 $80 forward single #
loop $-1 $81 $82 $33 #
cone-surface $-1 29.988465694803104 25.762642859940797 5.2056252852234284 0 -0.70710678939079041 -0.70710677298230451 2.5 0 0 1 I I 0 1 2.5 forward I I I I #
face $-1 $83 $84 $27 $-1 $85 forward single #
loop $-1 $86 $87 $34 #
cone-surface $-1 43.337407213618739 25.762642859940797 5.2056252852234284 0 -0.70710678939079041 -0.70710677298230451 2.5 0 0 1 I I 0 1 2.5 forward I I I I #
face $-1 $88 $89 $21 $-1 $90 reversed single #
loop $-1 $-1 $91 $35 #
plane-surface $-1 0 0 -12.177844004114101 0 0 1 1 0 0 forward_v I I I I #
coedge $-1 $92 $93 $94 $95 forward $36 $-1 #
face $-1 $96 $97 $22 $-1 $98 reversed single #
loop $-1 $-1 $99 $38 #
plane-surface $-1 21.089171348926001 -106.60871413734051 74.869585535736846 1 0 0 0 0.70710678939079041 -0.70710677298230451 forward_v I I I I #
coedge $-1 $100 $101 $102 $103 reversed $39 $-1 #
face $-1 $-1 $104 $23 $-1 $105 forward single #
loop $-1 $106 $107 $41 #
cone-surface $-1 29.988465694803104 -23.497595327425032 2.9405778052683296 0 0.70710678939079041 -0.70710677298230451 1.25 0 0 1 I I -0.70710678118654746 0.70710678118654768 1.25 forward I I I I #
loop $-1 $-1 $108 $30 #
coedge $-1 $68 $68 $109 $110 reversed $42 $-1 #
face $-1 $-1 $111 $24 $-1 $112 forward single #
loop $-1 $113 $114 $44 #
cone-surface $-1 43.337407213618739 -23.497595327425032 2.9405778052683296 0 0.70710678939079041 -0.70710677298230451 1.25 0 0 1 I I -0.70710678118654746 0.70710678118654768 1.25 forward I I I I #
loop $-1 $-1 $115 $31 #
coedge $-1 $73 $73 $116 $117 reversed $45 $-1 #
face $-1 $118 $119 $25 $-1 $120 forward single #
loop $-1 $-1 $121 $47 #
plane-surface $-1 21.089171348926001 60.314629605436487 121.16367114189988 1 0 0 0 -0.70710678939079041 -0.70710677298230451 forward_v I I I I #
coedge $-1 $122 $123 $124 $125 reversed $48 $-1 #
face $-1 $-1 $126 $26 $-1 $127 forward single #
loop $-1 $128 $129 $50 #
cone-surface $-1 29.988465694803104 23.497595327425032 2.9405778052683242 0 -0.70710678939079041 -0.70710677298230451 1.25 0 0 1 I I -0.70710678118654746 0.70710678118654768 1.25 forward I I I I #
loop $-1 $-1 $130 $33 #
coedge $-1 $82 $82 $131 $132 reversed $51 $-1 #
face $-1 $-1 $133 $27 $-1 $134 forward single #
loop $-1 $135 $136 $53 #
cone-surface $-1 43.337407213618739 23.497595327425032 2.9405778052683242 0 -0.70710678939079041 -0.70710677298230451 1.25 0 0 1 I I -0.70710678118654746 0.70710678118654768 1.25 forward I I I I #
loop $-1 $-1 $137 $34 #
coedge $-1 $87 $87 $138 $139 reversed $54 $-1 #
face $-1 $140 $141 $21 $-1 $142 reversed single #
loop $-1 $-1 $143 $56 #
plane-surface $-1 0 -32.73486148114052 0 0 1 0 0 0 1 forward_v I I I I #
coedge $-1 $144 $145 $146 $147 forward $57 $-1 #
coedge $-1 $148 $59 $149 $150 forward $36 $-1 #
coedge $-1 $59 $148 $151 $152 forward $36 $-1 #
coedge $-1 $153 $154 $59 $95 reversed $155 $-1 #
edge $-1 $156 -32.73486148114052 $157 32.73486148114052 $94 $158 forward 7 unknown #
face $-1 $159 $160 $22 $-1 $161 forward single #
loop $-1 $-1 $162 $60 #
plane-surface $-1 0 -32.73486148114052 0 0 1 0 0 0 1 forward_v I I I I #
coedge $-1 $163 $164 $165 $166 reversed $61 $-1 #
coedge $-1 $167 $63 $168 $169 reversed $39 $-1 #
coedge $-1 $63 $167 $163 $170 forward $39 $-1 #
coedge $-1 $165 $171 $63 $103 forward $160 $-1 #
edge $-1 $172 -33.905233332390367 $173 -2.7577031218205441 $102 $174 forward 7 unknown #
loop $-1 $-1 $109 $64 #
plane-surface $-1 36.662936454210914 -32.734861481140527 0.99573459378721907 0 -0.70710678939079041 0.70710677298230451 1 0 0 forward_v I I I I #
loop $-1 $-1 $175 $41 #
coedge $-1 $107 $107 $108 $176 reversed $65 $-1 #
coedge $-1 $108 $108 $107 $176 forward $67 $-1 #
coedge $-1 $109 $109 $68 $110 forward $104 $-1 #
edge $-1 $177 1.0048591152629639e-015 $177 6.2831853071796013 $109 $178 forward 7 unknown #
loop $-1 $-1 $116 $69 #
plane-surface $-1 36.662936454210914 -32.734861481140527 0.99573459378721907 0 -0.70710678939079041 0.70710677298230451 1 0 0 forward_v I I I I #
loop $-1 $-1 $179 $44 #
coedge $-1 $114 $114 $115 $180 reversed $70 $-1 #
coedge $-1 $115 $115 $114 $180 forward $72 $-1 #
coedge $-1 $116 $116 $73 $117 forward $111 $-1 #
edge $-1 $181 1.0048591152629639e-015 $181 6.2831853071796013 $116 $182 forward 7 unknown #
face $-1 $183 $184 $25 $-1 $185 reversed single #
loop $-1 $-1 $186 $74 #
plane-surface $-1 0 0 12.177844004114101 0 0 1 1 0 0 forward_v I I I I #
coedge $-1 $187 $188 $189 $190 reversed $75 $-1 #
coedge $-1 $191 $77 $192 $193 reversed $48 $-1 #
coedge $-1 $77 $191 $187 $194 forward $48 $-1 #
coedge $-1 $189 $195 $77 $125 forward $196 $-1 #
edge $-1 $197 -33.905233332390381 $198 -2.7577031218205441 $124 $199 forward 7 unknown #
loop $-1 $-1 $131 $78 #
plane-surface $-1 36.662936454210914 -13.559223050763499 47.289820199950256 0 0.70710678939079041 0.70710677298230451 1 0 0 forward_v I I I I #
loop $-1 $-1 $200 $50 #
coedge $-1 $129 $129 $130 $201 reversed $79 $-1 #
coedge $-1 $130 $130 $129 $201 forward $81 $-1 #
coedge $-1 $131 $131 $82 $132 forward $126 $-1 #
edge $-1 $202 -1.0048591385808245e-015 $202 6.2831853071795996 $131 $203 forward 7 unknown #
loop $-1 $-1 $138 $83 #
plane-surface $-1 36.662936454210914 -13.559223050763499 47.289820199950256 0 0.70710678939079041 0.70710677298230451 1 0 0 forward_v I I I I #
loop $-1 $-1 $204 $53 #
coedge $-1 $136 $136 $137 $205 reversed $84 $-1 #
coedge $-1 $137 $137 $136 $205 forward $86 $-1 #
coedge $-1 $138 $138 $87 $139 forward $133 $-1 #
edge $-1 $206 -1.0048591385808245e-015 $206 6.2831853071795996 $138 $207 forward 7 unknown #
face $-1 $208 $209 $21 $-1 $210 reversed single #
loop $-1 $-1 $211 $88 #
plane-surface $-1 -52.236701559495835 0 0 1 0 0 0 0 -1 forward_v I I I I #
coedge $-1 $212 $151 $213 $214 forward $89 $-1 #
coedge $-1 $215 $91 $212 $216 forward $57 $-1 #
coedge $-1 $91 $215 $217 $218 forward $57 $-1 #
coedge $-1 $154 $153 $91 $147 reversed $155 $-1 #
edge $-1 $219 -32.73486148114052 $220 32.73486148114052 $146 $221 forward 7 unknown #
coedge $-1 $93 $92 $222 $223 forward $36 $-1 #
coedge $-1 $224 $225 $92 $150 reversed $209 $-1 #
edge $-1 $157 -52.236701559495835 $226 52.236701559495835 $149 $227 forward 7 unknown #
coedge $-1 $143 $228 $93 $152 reversed $89 $-1 #
edge $-1 $229 -52.236701559495835 $156 52.236701559495835 $151 $230 forward 7 unknown #
coedge $-1 $146 $94 $228 $231 forward $155 $-1 #
coedge $-1 $94 $146 $224 $232 reversed $155 $-1 #
loop $-1 $-1 $153 $208 #
vertex $-1 $95 $233 #
vertex $-1 $95 $234 #
straight-curve $-1 52.236701559495835 0 12.177844004114101 0 1 0 I I #
face $-1 $-1 $235 $22 $-1 $236 reversed single #
loop $-1 $-1 $165 $96 #
plane-surface $-1 0 0 12.177844004114101 0 0 1 1 0 0 forward_v I I I I #
coedge $-1 $237 $238 $164 $239 forward $97 $-1 #
coedge $-1 $164 $99 $101 $170 reversed $61 $-1 #
coedge $-1 $99 $163 $162 $239 reversed $61 $-1 #
coedge $-1 $240 $102 $99 $166 forward $160 $-1 #
edge $-1 $173 -31.75160473837461 $241 -20.569495587529737 $165 $242 forward 7 unknown #
coedge $-1 $101 $100 $237 $243 reversed $39 $-1 #
coedge $-1 $244 $245 $100 $169 forward $235 $-1 #
edge $-1 $246 -11.221475787126888 $172 4.5924148134157097 $168 $247 forward 7 unknown #
edge $-1 $248 1.0048591735576163e-014 $173 15.813890600542612 $163 $249 forward 7 unknown #
coedge $-1 $102 $240 $244 $250 forward $160 $-1 #
vertex $-1 $169 $251 #
vertex $-1 $103 $252 #
straight-curve $-1 18.331468227105457 -21.552752330295643 12.177844004114101 -1 0 0 I I #
coedge $-1 $175 $175 $-1 $253 reversed $106 $-1 #
edge $-1 $254 0 $254 6.2831853071796004 $107 $255 forward 7 unknown #
vertex $-1 $110 $256 #
ellipse-curve $-1 29.988465694803104 -27.143806905718083 6.5867892989506647 0 -0.70710678939079041 0.70710677298230451 2.5 0 0 1 I I #
coedge $-1 $179 $179 $-1 $257 reversed $113 $-1 #
edge $-1 $258 0 $258 6.2831853071796004 $114 $259 forward 7 unknown #
vertex $-1 $117 $260 #
ellipse-curve $-1 43.337407213618739 -27.143806905718083 6.5867892989506647 0 -0.70710678939079041 0.70710677298230451 2.5 0 0 1 I I #
face $-1 $-1 $196 $25 $-1 $261 reversed single #
loop $-1 $-1 $192 $118 #
plane-surface $-1 52.236701559495835 0 0 -1 0 0 0 0 1 forward_v I I I I #
coedge $-1 $262 $263 $188 $264 forward $119 $-1 #
coedge $-1 $188 $121 $123 $194 reversed $75 $-1 #
coedge $-1 $121 $187 $186 $264 reversed $75 $-1 #
coedge $-1 $265 $124 $121 $190 forward $196 $-1 #
edge $-1 $198 -59.586100977162729 $266 -48.403991566835842 $189 $267 forward 7 unknown #
coedge $-1 $123 $122 $262 $268 reversed $48 $-1 #
coedge $-1 $269 $270 $122 $193 forward $184 $-1 #
edge $-1 $271 28.142446667724801 $197 43.956337268267426 $192 $272 forward 7 unknown #
edge $-1 $273 49.655832361738426 $198 65.46972296228104 $187 $274 forward 7 unknown #
coedge $-1 $124 $265 $269 $275 forward $196 $-1 #
loop $-1 $-1 $189 $183 #
vertex $-1 $193 $276 #
vertex $-1 $125 $277 #
straight-curve $-1 18.331468227105457 32.734861481140527 0.99573459378720841 -1 0 0 I I #
coedge $-1 $200 $200 $-1 $278 reversed $128 $-1 #
edge $-1 $279 0 $279 6.2831853071796004 $129 $280 forward 7 unknown #
vertex $-1 $132 $281 #
ellipse-curve $-1 29.988465694803104 27.14380690571808 6.5867892989506558 0 0.70710678939079041 0.70710677298230451 2.5 0 0 1 I I #
coedge $-1 $204 $204 $-1 $282 reversed $135 $-1 #
edge $-1 $283 0 $283 6.2831853071796004 $136 $284 forward 7 unknown #
vertex $-1 $139 $285 #
ellipse-curve $-1 43.337407213618739 27.14380690571808 6.5867892989506558 0 0.70710678939079041 0.70710677298230451 2.5 0 0 1 I I #
face $-1 $-1 $155 $21 $-1 $286 reversed single #
loop $-1 $-1 $224 $140 #
plane-surface $-1 0 32.73486148114052 0 0 -1 0 0 0 -1 forward_v I I I I #
coedge $-1 $287 $222 $225 $288 forward $141 $-1 #
coedge $-1 $228 $143 $144 $216 reversed $89 $-1 #
coedge $-1 $222 $287 $143 $214 reversed $141 $-1 #
edge $-1 $229 -12.177844004114101 $289 12.177844004114101 $213 $290 forward 7 unknown #
coedge $-1 $145 $144 $287 $291 forward $57 $-1 #
edge $-1 $220 -52.236701559495835 $289 52.236701559495835 $212 $292 forward 7 unknown #
coedge $-1 $225 $224 $145 $218 reversed $209 $-1 #
edge $-1 $293 -52.236701559495835 $219 52.236701559495835 $217 $294 forward 7 unknown #
vertex $-1 $147 $295 #
vertex $-1 $231 $296 #
straight-curve $-1 52.236701559495835 0 -12.177844004114101 0 -1 0 I I #
coedge $-1 $211 $213 $148 $223 reversed $141 $-1 #
edge $-1 $226 -32.73486148114052 $229 32.73486148114052 $222 $297 forward 7 unknown #
coedge $-1 $217 $149 $154 $232 forward $209 $-1 #
coedge $-1 $149 $217 $211 $288 reversed $209 $-1 #
vertex $-1 $150 $298 #
straight-curve $-1 0 32.73486148114052 12.177844004114101 -1 0 0 I I #
coedge $-1 $151 $212 $153 $231 reversed $89 $-1 #
vertex $-1 $223 $299 #
straight-curve $-1 0 -32.73486148114052 12.177844004114101 1 0 0 I I #
edge $-1 $156 -12.177844004114101 $220 12.177844004114101 $153 $300 forward 7 unknown #
edge $-1 $157 -12.177844004114101 $219 12.177844004114101 $154 $301 forward 7 unknown #
point $-1 52.236701559495835 -32.73486148114052 12.177844004114101 #
point $-1 52.236701559495835 32.73486148114052 12.177844004114101 #
loop $-1 $-1 $168 $159 #
plane-surface $-1 52.236701559495835 0 0 -1 0 0 0 0 1 forward_v I I I I #
coedge $-1 $302 $162 $167 $243 forward $97 $-1 #
coedge $-1 $162 $302 $240 $303 reversed $97 $-1 #
edge $-1 $241 25.256948763754323 $248 36.439058174081197 $162 $304 forward 7 unknown #
coedge $-1 $171 $165 $238 $303 forward $160 $-1 #
vertex $-1 $303 $305 #
straight-curve $-1 21.089171348926001 -53.304357068670257 12.1778440041141 0 -1 0 I I #
edge $-1 $248 2.7577031218205441 $246 33.905233332390367 $237 $306 forward 7 unknown #
coedge $-1 $245 $168 $171 $250 reversed $235 $-1 #
coedge $-1 $168 $244 $302 $307 forward $235 $-1 #
vertex $-1 $243 $308 #
straight-curve $-1 52.236701559495835 -24.800079949206161 8.930516309849013 0 0.70710677298230462 0.70710678939079052 I I #
vertex $-1 $243 $309 #
straight-curve $-1 21.089171348926001 -32.734861481140527 0.99573459378721907 0 0.70710677298230451 0.70710678939079041 I I #
edge $-1 $310 -32.73486148114052 $172 -21.552752330295647 $244 $311 forward 7 unknown #
point $-1 52.236701559495827 -21.552752330295647 12.177844004114101 #
point $-1 21.089171348926001 -21.552752330295647 12.177844004114101 #
edge $-1 $312 1 $312 0 $175 $-1 forward 7 unknown #
vertex $-1 $176 $313 #
ellipse-curve $-1 29.988465694803104 -24.381478814163518 3.8244612714962107 0 -0.70710678939079041 0.70710677298230451 2.5 0 0 1 I I #
point $-1 32.488465694803104 -27.143806905718073 6.5867892989506576 #
edge $-1 $314 1 $314 0 $179 $-1 forward 7 unknown #
vertex $-1 $180 $315 #
ellipse-curve $-1 43.337407213618739 -24.381478814163518 3.8244612714962107 0 -0.70710678939079041 0.70710677298230451 2.5 0 0 1 I I #
point $-1 45.837407213618739 -27.143806905718073 6.5867892989506576 #
plane-surface $-1 0 32.73486148114052 0 0 -1 0 0 0 -1 forward_v I I I I #
coedge $-1 $316 $186 $191 $268 forward $119 $-1 #
coedge $-1 $186 $316 $265 $317 forward $119 $-1 #
edge $-1 $266 -2.5775466784222765 $273 8.6045624724226109 $186 $318 forward 7 unknown #
coedge $-1 $195 $189 $263 $317 reversed $196 $-1 #
vertex $-1 $264 $319 #
straight-curve $-1 21.089171348926001 32.73486148114052 60.581835570949941 0 0 1 I I #
edge $-1 $273 2.7577031218205441 $271 33.905233332390367 $262 $320 forward 7 unknown #
coedge $-1 $270 $192 $195 $275 reversed $184 $-1 #
coedge $-1 $192 $269 $316 $321 reversed $184 $-1 #
vertex $-1 $321 $322 #
straight-curve $-1 52.236701559495835 1.6530376832541425 32.07755911293053 0 0.70710677298230462 -0.70710678939079052 I I #
vertex $-1 $268 $323 #
straight-curve $-1 21.089171348926001 -13.559223050763499 47.289820199950256 0 0.70710677298230451 -0.70710678939079041 I I #
edge $-1 $324 -12.177844004114101 $197 -0.99573459378720386 $269 $325 forward 7 unknown #
point $-1 52.236701559495835 32.73486148114052 0.99573459378720386 #
point $-1 21.089171348926001 32.734861481140513 0.99573459378721196 #
edge $-1 $326 1 $326 0 $200 $-1 forward 7 unknown #
vertex $-1 $201 $327 #
ellipse-curve $-1 29.988465694803104 24.381478814163518 3.8244612714962054 0 0.70710678939079041 0.70710677298230451 2.5 0 0 1 I I #
point $-1 32.488465694803104 27.143806905718073 6.5867892989506522 #
edge $-1 $328 1 $328 0 $204 $-1 forward 7 unknown #
vertex $-1 $205 $329 #
ellipse-curve $-1 43.337407213618739 24.381478814163518 3.8244612714962054 0 0.70710678939079041 0.70710677298230451 2.5 0 0 1 I I #
point $-1 45.837407213618739 27.143806905718073 6.5867892989506522 #
plane-surface $-1 52.236701559495835 0 0 -1 0 0 0 0 1 forward_v I I I I #
coedge $-1 $213 $211 $215 $291 reversed $141 $-1 #
edge $-1 $226 -12.177844004114101 $293 12.177844004114101 $225 $330 forward 7 unknown #
vertex $-1 $291 $331 #
straight-curve $-1 -52.236701559495835 -32.73486148114052 0 0 0 -1 I I #
edge $-1 $289 -32.73486148114052 $293 32.73486148114052 $287 $332 forward 7 unknown #
straight-curve $-1 0 -32.73486148114052 -12.177844004114101 -1 0 0 I I #
vertex $-1 $218 $333 #
straight-curve $-1 0 32.73486148114052 -12.177844004114101 1 0 0 I I #
point $-1 52.236701559495835 32.73486148114052 -12.177844004114101 #
point $-1 52.236701559495835 -32.73486148114052 -12.177844004114101 #
straight-curve $-1 -52.236701559495835 0 12.177844004114101 0 -1 0 I I #
point $-1 -52.236701559495835 32.73486148114052 12.177844004114101 #
point $-1 -52.236701559495835 -32.73486148114052 12.177844004114101 #
straight-curve $-1 52.236701559495835 -32.73486148114052 0 0 0 -1 I I #
straight-curve $-1 52.236701559495835 32.73486148114052 0 0 0 -1 I I #
coedge $-1 $238 $237 $245 $307 reversed $97 $-1 #
edge $-1 $241 21.089171348926001 $310 52.236701559495835 $238 $334 forward 7 unknown #
straight-curve $-1 21.089171348926001 -32.73486148114052 37.434792767868423 0 0 -1 I I #
point $-1 21.089171348926001 -32.73486148114052 12.177844004114101 #
straight-curve $-1 18.331468227105457 -32.73486148114052 0.9957345937872315 1 0 0 I I #
edge $-1 $310 -12.177844004114101 $246 -0.99573459378722617 $245 $335 forward 7 unknown #
point $-1 52.236701559495827 -32.73486148114052 0.99573459378722617 #
point $-1 21.089171348926001 -32.73486148114052 0.99573459378722617 #
vertex $-1 $250 $336 #
straight-curve $-1 52.236701559495835 0 12.177844004114101 0 1 0 I I #
vertex $-1 $253 $337 #
point $-1 32.488465694803104 -24.381478814163518 3.8244612714962107 #
vertex $-1 $257 $338 #
point $-1 45.837407213618739 -24.381478814163518 3.8244612714962107 #
coedge $-1 $263 $262 $270 $321 forward $119 $-1 #
edge $-1 $324 -52.236701559495835 $266 -21.089171348926001 $265 $339 forward 7 unknown #
straight-curve $-1 21.089171348926001 30.157314802718243 12.1778440041141 0 -1 0 I I #
point $-1 21.089171348926001 32.73486148114052 12.177844004114101 #
straight-curve $-1 18.331468227105457 21.552752330295629 12.1778440041141 1 0 0 I I #
edge $-1 $271 21.552752330295633 $324 32.73486148114052 $270 $340 forward 7 unknown #
point $-1 52.236701559495827 21.552752330295633 12.1778440041141 #
point $-1 21.089171348926001 21.552752330295633 12.1778440041141 #
vertex $-1 $321 $341 #
straight-curve $-1 52.236701559495835 32.73486148114052 0 0 0 -1 I I #
vertex $-1 $278 $342 #
point $-1 32.488465694803104 24.381478814163518 3.8244612714962054 #
vertex $-1 $282 $343 #
point $-1 45.837407213618739 24.381478814163518 3.8244612714962054 #
straight-curve $-1 -52.236701559495835 32.73486148114052 0 0 0 -1 I I #
point $-1 -52.236701559495835 -32.73486148114052 -12.177844004114101 #
straight-curve $-1 -52.236701559495835 0 -12.177844004114101 0 1 0 I I #
point $-1 -52.236701559495835 32.73486148114052 -12.177844004114101 #
straight-curve $-1 0 -32.73486148114052 12.177844004114101 1 0 0 I I #
straight-curve $-1 52.236701559495835 -32.73486148114052 0 0 0 -1 I I #
point $-1 52.236701559495835 -32.73486148114052 12.177844004114101 #
point $-1 29.988465694803104 -22.613711840686545 2.0566943390404484 #
point $-1 43.337407213618739 -22.613711840686545 2.0566943390404484 #
straight-curve $-1 0 32.73486148114052 12.177844004114101 -1 0 0 I I #
straight-curve $-1 52.236701559495835 0 12.177844004114101 0 1 0 I I #
point $-1 52.236701559495835 32.73486148114052 12.177844004114101 #
point $-1 29.988465694803104 22.613711840686545 2.0566943390404431 #
point $-1 43.337407213618739 22.613711840686545 2.0566943390404431 #
End-of-ACIS-data 