500 0 6 0           
7 Unknown 11 ACIS 5.0 NT 24 Thu Mar 25 22:13:08 1999 
-1 9.9999999999999995e-007 1e-010 
body $-1 $6 $-1 $7 #
body $-1 $8 $-1 $9 #
body $-1 $10 $-1 $11 #
body $-1 $12 $-1 $13 #
body $-1 $14 $-1 $15 #
body $-1 $16 $-1 $17 #
lump $-1 $-1 $18 $0 #
transform $-1 1 0 0 0 1 0 0 0 1 67.088229010895105 27.415738789775954 9.5850918172451962 1 rotate no_reflect no_shear #
lump $-1 $-1 $19 $1 #
transform $-1 1 0 0 0 1 0 0 0 1 67.088229010895105 27.415738789775954 9.5850918172451962 1 rotate no_reflect no_shear #
lump $-1 $-1 $20 $2 #
transform $-1 1 0 0 0 1 0 0 0 1 67.088229010895105 27.415738789775954 9.5850918172451962 1 rotate no_reflect no_shear #
lump $-1 $-1 $21 $3 #
transform $-1 1 0 0 0 1 0 0 0 1 67.088229010895105 27.415738789775954 9.5850918172451962 1 rotate no_reflect no_shear #
lump $-1 $-1 $22 $4 #
transform $-1 1 0 0 0 1 0 0 0 1 67.088229010895105 27.415738789775954 9.5850918172451962 1 rotate no_reflect no_shear #
lump $-1 $-1 $23 $5 #
transform $-1 1 0 0 0 1 0 0 0 1 67.088229010895105 27.415738789775954 9.5850918172451962 1 rotate no_reflect no_shear #
shell $-1 $-1 $-1 $24 $-1 $6 #
shell $-1 $-1 $-1 $25 $-1 $8 #
shell $-1 $-1 $-1 $26 $-1 $10 #
shell $-1 $-1 $-1 $27 $-1 $12 #
shell $-1 $-1 $-1 $28 $-1 $14 #
shell $-1 $-1 $-1 $29 $-1 $16 #
face $-1 $30 $31 $18 $-1 $32 forward single #
face $-1 $33 $34 $19 $-1 $35 forward single #
face $-1 $36 $37 $20 $-1 $38 reversed single #
face $-1 $39 $40 $21 $-1 $41 forward single #
face $-1 $42 $43 $22 $-1 $44 forward single #
face $-1 $45 $46 $23 $-1 $47 forward single #
face $-1 $48 $49 $18 $-1 $50 reversed single #
loop $-1 $-1 $51 $24 #
plane-surface $-1 0 0 9.5850918172451962 0 0 1 1 0 0 forward_v I I I I #
face $-1 $52 $53 $19 $-1 $54 reversed single #
loop $-1 $-1 $55 $25 #
plane-surface $-1 -67.088229010895105 0 0 1 0 0 0 0 -1 forward_v I I I I #
face $-1 $56 $57 $20 $-1 $58 reversed single #
loop $-1 $-1 $59 $26 #
plane-surface $-1 109.773631637893 21.264898411696223 190.36934553386789 0 1 0 0.84804810408105047 0 0.52991925155115449 forward_v I I I I #
face $-1 $60 $61 $21 $-1 $62 forward single #
loop $-1 $63 $64 $27 #
cone-surface $-1 65.122909483371444 22.495066487312169 7.1054816447635458 -0.84804810408105047 0 -0.52991925155115449 0.26495962577557725 0 -0.42402405204052523 1 I I 0 1 0.5 forward I I I I #
face $-1 $65 $66 $22 $-1 $67 forward single #
loop $-1 $68 $69 $28 #
cone-surface $-1 65.122909483371444 24.340318600736087 7.1054816447635458 -0.84804810408105047 0 -0.52991925155115449 0.26495962577557725 0 -0.42402405204052523 1 I I 0 1 0.5 forward I I I I #
face $-1 $70 $71 $23 $-1 $72 forward single #
loop $-1 $73 $74 $29 #
cone-surface $-1 65.122909483371444 26.185570714160004 7.1054816447635458 -0.84804810408105047 0 -0.52991925155115449 0.26495962577557725 0 -0.42402405204052523 1 I I 0 1 0.5 forward I I I I #
face $-1 $75 $76 $18 $-1 $77 reversed single #
loop $-1 $-1 $78 $30 #
plane-surface $-1 0 0 -9.5850918172451962 0 0 1 1 0 0 forward_v I I I I #
coedge $-1 $79 $80 $81 $82 forward $31 $-1 #
face $-1 $83 $84 $19 $-1 $85 forward single #
loop $-1 $-1 $86 $33 #
plane-surface $-1 0 27.415738789775954 0 0 -1 0 0 0 -1 forward_v I I I I #
coedge $-1 $87 $88 $89 $90 forward $34 $-1 #
face $-1 $91 $92 $20 $-1 $93 forward single #
loop $-1 $-1 $94 $36 #
plane-surface $-1 -4.0144591997968462 24.340318600736087 119.26665732317592 0.84804810408105047 0 0.52991925155115449 0.52991925155115449 0 -0.84804810408105047 forward_v I I I I #
coedge $-1 $95 $96 $97 $98 reversed $37 $-1 #
face $-1 $-1 $99 $21 $-1 $100 forward single #
loop $-1 $101 $102 $39 #
cone-surface $-1 64.228598798460752 22.495066487312169 6.546654325273682 -0.84804810408105047 0 -0.52991925155115449 0.13247981288778862 0 -0.21201202602026262 1 I I -0.70710678118654746 0.70710678118654746 0.25 forward I I I I #
loop $-1 $-1 $103 $27 #
coedge $-1 $64 $64 $104 $105 reversed $40 $-1 #
face $-1 $-1 $106 $22 $-1 $107 forward single #
loop $-1 $108 $109 $42 #
cone-surface $-1 64.228598798460752 24.340318600736087 6.546654325273682 -0.84804810408105047 0 -0.52991925155115449 0.13247981288778862 0 -0.21201202602026262 1 I I -0.70710678118654746 0.70710678118654746 0.25 forward I I I I #
loop $-1 $-1 $110 $28 #
coedge $-1 $69 $69 $111 $112 reversed $43 $-1 #
face $-1 $-1 $113 $23 $-1 $114 forward single #
loop $-1 $115 $116 $45 #
cone-surface $-1 64.228598798460752 26.185570714160004 6.546654325273682 -0.84804810408105047 0 -0.52991925155115449 0.13247981288778862 0 -0.21201202602026262 1 I I -0.70710678118654746 0.70710678118654746 0.25 forward I I I I #
loop $-1 $-1 $117 $29 #
coedge $-1 $74 $74 $118 $119 reversed $46 $-1 #
face $-1 $120 $121 $18 $-1 $122 reversed single #
loop $-1 $-1 $123 $48 #
plane-surface $-1 0 -27.415738789775954 0 0 1 0 0 0 1 forward_v I I I I #
coedge $-1 $124 $125 $126 $127 forward $49 $-1 #
coedge $-1 $128 $51 $129 $130 forward $31 $-1 #
coedge $-1 $51 $128 $131 $132 forward $31 $-1 #
coedge $-1 $133 $134 $51 $82 reversed $135 $-1 #
edge $-1 $136 -27.415738789775954 $137 27.415738789775954 $81 $138 forward 7 unknown #
face $-1 $139 $140 $19 $-1 $141 reversed single #
loop $-1 $-1 $89 $52 #
plane-surface $-1 -71.821120762155388 0 -4.6966277102255916 0 0 1 1 0 0 forward_v I I I I #
coedge $-1 $142 $143 $88 $144 forward $53 $-1 #
coedge $-1 $145 $55 $146 $147 reversed $34 $-1 #
coedge $-1 $55 $145 $86 $144 reversed $34 $-1 #
coedge $-1 $148 $149 $55 $90 reversed $84 $-1 #
edge $-1 $150 -27.415738789775954 $151 27.415738789775954 $89 $152 forward 7 unknown #
face $-1 $153 $154 $20 $-1 $155 reversed single #
loop $-1 $-1 $156 $56 #
plane-surface $-1 0 0 9.5850918172451962 0 0 1 1 0 0 forward_v I I I I #
coedge $-1 $157 $158 $159 $160 reversed $57 $-1 #
coedge $-1 $96 $59 $161 $162 reversed $37 $-1 #
coedge $-1 $59 $95 $157 $163 reversed $37 $-1 #
coedge $-1 $159 $164 $59 $98 forward $154 $-1 #
edge $-1 $165 85.599580949688743 $166 89.706106281447845 $97 $167 forward 7 unknown #
loop $-1 $-1 $104 $60 #
plane-surface $-1 -4.0144591997968462 24.340318600736087 119.26665732317592 0.84804810408105047 0 0.52991925155115449 0.52991925155115449 0 -0.84804810408105047 forward_v I I I I #
loop $-1 $-1 $168 $39 #
coedge $-1 $102 $102 $103 $169 reversed $61 $-1 #
coedge $-1 $103 $103 $102 $169 forward $63 $-1 #
coedge $-1 $104 $104 $64 $105 forward $99 $-1 #
edge $-1 $170 0 $170 6.2831853071796004 $104 $171 forward 7 unknown #
loop $-1 $-1 $111 $65 #
plane-surface $-1 -4.0144591997968462 24.340318600736087 119.26665732317592 0.84804810408105047 0 0.52991925155115449 0.52991925155115449 0 -0.84804810408105047 forward_v I I I I #
loop $-1 $-1 $172 $42 #
coedge $-1 $109 $109 $110 $173 reversed $66 $-1 #
coedge $-1 $110 $110 $109 $173 forward $68 $-1 #
coedge $-1 $111 $111 $69 $112 forward $106 $-1 #
edge $-1 $174 0 $174 6.2831853071796004 $111 $175 forward 7 unknown #
loop $-1 $-1 $118 $70 #
plane-surface $-1 -4.0144591997968462 24.340318600736087 119.26665732317592 0.84804810408105047 0 0.52991925155115449 0.52991925155115449 0 -0.84804810408105047 forward_v I I I I #
loop $-1 $-1 $176 $45 #
coedge $-1 $116 $116 $117 $177 reversed $71 $-1 #
coedge $-1 $117 $117 $116 $177 forward $73 $-1 #
coedge $-1 $118 $118 $74 $119 forward $113 $-1 #
edge $-1 $178 0 $178 6.2831853071796004 $118 $179 forward 7 unknown #
face $-1 $180 $181 $18 $-1 $182 reversed single #
loop $-1 $-1 $183 $75 #
plane-surface $-1 -67.088229010895105 0 0 1 0 0 0 0 -1 forward_v I I I I #
coedge $-1 $184 $131 $185 $186 forward $76 $-1 #
coedge $-1 $187 $78 $184 $188 forward $49 $-1 #
coedge $-1 $78 $187 $189 $190 forward $49 $-1 #
coedge $-1 $134 $133 $78 $127 reversed $135 $-1 #
edge $-1 $191 -27.415738789775954 $192 27.415738789775954 $126 $193 forward 7 unknown #
coedge $-1 $80 $79 $194 $195 forward $31 $-1 #
coedge $-1 $196 $197 $79 $130 reversed $181 $-1 #
edge $-1 $137 -67.088229010895105 $198 67.088229010895105 $129 $199 forward 7 unknown #
coedge $-1 $123 $200 $80 $132 reversed $76 $-1 #
edge $-1 $201 -67.088229010895105 $136 67.088229010895105 $131 $202 forward 7 unknown #
coedge $-1 $126 $81 $200 $203 forward $135 $-1 #
coedge $-1 $81 $126 $196 $204 reversed $135 $-1 #
loop $-1 $-1 $133 $180 #
vertex $-1 $82 $205 #
vertex $-1 $82 $206 #
straight-curve $-1 67.088229010895105 0 9.5850918172451962 0 1 0 I I #
face $-1 $207 $208 $19 $-1 $209 reversed single #
loop $-1 $-1 $210 $83 #
plane-surface $-1 -76.554012513415671 0 -7.1408597637353939 1 0 0 0 0 -1 forward_v I I I I #
coedge $-1 $211 $86 $212 $213 reversed $53 $-1 #
coedge $-1 $86 $211 $148 $214 reversed $53 $-1 #
edge $-1 $150 4.6966277102255916 $215 9.5850918172451962 $86 $216 forward 7 unknown #
coedge $-1 $88 $87 $217 $218 reversed $34 $-1 #
coedge $-1 $219 $220 $87 $147 forward $221 $-1 #
edge $-1 $222 -9.5850918172451962 $151 -4.6966277102255916 $146 $223 forward 7 unknown #
coedge $-1 $224 $89 $143 $214 forward $84 $-1 #
coedge $-1 $89 $224 $219 $225 forward $84 $-1 #
vertex $-1 $144 $226 #
vertex $-1 $225 $227 #
straight-curve $-1 -67.088229010895105 0 -4.6966277102255916 0 -1 0 I I #
face $-1 $-1 $228 $20 $-1 $229 reversed single #
loop $-1 $-1 $97 $91 #
plane-surface $-1 67.088229010895105 0 0 -1 0 0 0 0 1 forward_v I I I I #
coedge $-1 $161 $230 $231 $232 forward $92 $-1 #
coedge $-1 $231 $94 $96 $163 forward $57 $-1 #
coedge $-1 $94 $231 $233 $234 reversed $57 $-1 #
coedge $-1 $235 $97 $94 $160 forward $154 $-1 #
edge $-1 $166 9.0947391113281792 $236 15.245579489407911 $159 $237 forward 7 unknown #
coedge $-1 $238 $156 $95 $162 forward $92 $-1 #
edge $-1 $239 9.6353714546821863 $165 12.201413191948603 $161 $240 forward 7 unknown #
edge $-1 $166 -134.17645802179018 $239 -129.33413208296983 $96 $241 forward 7 unknown #
coedge $-1 $97 $235 $238 $242 reversed $154 $-1 #
vertex $-1 $242 $243 #
vertex $-1 $98 $244 #
straight-curve $-1 67.088229010895105 21.264898411696223 95.184672766933943 0 0 -1 I I #
coedge $-1 $168 $168 $-1 $245 reversed $101 $-1 #
edge $-1 $246 0 $246 6.2831853071796004 $102 $247 forward 7 unknown #
vertex $-1 $105 $248 #
ellipse-curve $-1 65.805208142261904 22.495066487312169 7.5318291513656392 0.84804810408105047 0 0.52991925155115449 0.26495962577557725 0 -0.42402405204052523 1 I I #
coedge $-1 $172 $172 $-1 $249 reversed $108 $-1 #
edge $-1 $250 0 $250 6.2831853071796004 $109 $251 forward 7 unknown #
vertex $-1 $112 $252 #
ellipse-curve $-1 65.805208142261904 24.340318600736087 7.5318291513656392 0.84804810408105047 0 0.52991925155115449 0.26495962577557725 0 -0.42402405204052523 1 I I #
coedge $-1 $176 $176 $-1 $253 reversed $115 $-1 #
edge $-1 $254 0 $254 6.2831853071796004 $116 $255 forward 7 unknown #
vertex $-1 $119 $256 #
ellipse-curve $-1 65.805208142261904 26.185570714160004 7.5318291513656392 0.84804810408105047 0 0.52991925155115449 0.26495962577557725 0 -0.42402405204052523 1 I I #
face $-1 $-1 $135 $18 $-1 $257 reversed single #
loop $-1 $-1 $196 $120 #
plane-surface $-1 0 27.415738789775954 0 0 -1 0 0 0 -1 forward_v I I I I #
coedge $-1 $258 $194 $197 $259 forward $121 $-1 #
coedge $-1 $200 $123 $124 $188 reversed $76 $-1 #
coedge $-1 $194 $258 $123 $186 reversed $121 $-1 #
edge $-1 $201 -9.5850918172451962 $260 9.5850918172451962 $185 $261 forward 7 unknown #
coedge $-1 $125 $124 $258 $262 forward $49 $-1 #
edge $-1 $192 -67.088229010895105 $260 67.088229010895105 $184 $263 forward 7 unknown #
coedge $-1 $197 $196 $125 $190 reversed $181 $-1 #
edge $-1 $264 -67.088229010895105 $191 67.088229010895105 $189 $265 forward 7 unknown #
vertex $-1 $127 $266 #
vertex $-1 $203 $267 #
straight-curve $-1 67.088229010895105 0 -9.5850918172451962 0 -1 0 I I #
coedge $-1 $183 $185 $128 $195 reversed $121 $-1 #
edge $-1 $198 -27.415738789775954 $201 27.415738789775954 $194 $268 forward 7 unknown #
coedge $-1 $189 $129 $134 $204 forward $181 $-1 #
coedge $-1 $129 $189 $183 $259 reversed $181 $-1 #
vertex $-1 $130 $269 #
straight-curve $-1 0 27.415738789775954 9.5850918172451962 -1 0 0 I I #
coedge $-1 $131 $184 $133 $203 reversed $76 $-1 #
vertex $-1 $195 $270 #
straight-curve $-1 0 -27.415738789775954 9.5850918172451962 1 0 0 I I #
edge $-1 $136 -9.5850918172451962 $192 9.5850918172451962 $133 $271 forward 7 unknown #
edge $-1 $137 -9.5850918172451962 $191 9.5850918172451962 $134 $272 forward 7 unknown #
point $-1 67.088229010895105 -27.415738789775954 9.5850918172451962 #
point $-1 67.088229010895105 27.415738789775954 9.5850918172451962 #
face $-1 $-1 $221 $19 $-1 $273 reversed single #
loop $-1 $-1 $217 $139 #
plane-surface $-1 0 0 -9.5850918172451962 0 0 1 1 0 0 forward_v I I I I #
coedge $-1 $274 $275 $211 $276 forward $140 $-1 #
coedge $-1 $143 $142 $210 $276 reversed $53 $-1 #
coedge $-1 $217 $277 $142 $213 forward $208 $-1 #
edge $-1 $278 -76.554012513415671 $215 -67.088229010895105 $142 $279 forward 7 unknown #
edge $-1 $150 -4.7328917512602828 $280 4.7328917512602828 $143 $281 forward 7 unknown #
vertex $-1 $144 $282 #
straight-curve $-1 -67.088229010895105 27.415738789775954 0 0 0 -1 I I #
coedge $-1 $283 $212 $145 $218 forward $208 $-1 #
edge $-1 $215 -27.415738789775954 $222 27.415738789775954 $217 $284 forward 7 unknown #
coedge $-1 $285 $146 $149 $225 reversed $221 $-1 #
coedge $-1 $146 $285 $283 $286 reversed $221 $-1 #
loop $-1 $-1 $146 $207 #
vertex $-1 $286 $287 #
straight-curve $-1 -67.088229010895105 -27.415738789775954 0 0 0 1 I I #
coedge $-1 $149 $148 $275 $288 forward $84 $-1 #
edge $-1 $289 -4.7328917512602828 $151 4.7328917512602828 $219 $290 forward 7 unknown #
point $-1 -67.088229010895105 27.415738789775954 -4.6966277102255916 #
point $-1 -67.088229010895105 -27.415738789775954 -4.6966277102255916 #
loop $-1 $-1 $233 $153 #
plane-surface $-1 0 27.415738789775954 0 0 -1 0 0 0 -1 forward_v I I I I #
coedge $-1 $156 $238 $291 $292 forward $92 $-1 #
coedge $-1 $158 $157 $156 $232 reversed $57 $-1 #
edge $-1 $293 -15.245579489407907 $239 -9.0947391113281792 $156 $294 forward 7 unknown #
coedge $-1 $291 $295 $158 $234 forward $228 $-1 #
edge $-1 $236 -82.540857103018837 $293 -77.698531164198499 $233 $296 forward 7 unknown #
coedge $-1 $164 $159 $295 $297 reversed $154 $-1 #
vertex $-1 $160 $298 #
straight-curve $-1 67.088229010895105 12.170159300368043 5.4785664854861125 0 1 0 I I #
coedge $-1 $230 $161 $164 $242 forward $92 $-1 #
vertex $-1 $162 $299 #
straight-curve $-1 54.886815818946502 21.264898411696223 9.5850918172451998 1 0 0 I I #
straight-curve $-1 -4.0144591997968462 21.264898411696223 119.26665732317592 -0.52991925155115449 0 0.84804810408105047 I I #
edge $-1 $165 21.264898411696223 $300 27.415738789775954 $164 $301 forward 7 unknown #
point $-1 67.088229010895105 21.264898411696223 9.5850918172451962 #
point $-1 67.088229010895105 21.264898411696223 5.4785664854860983 #
edge $-1 $302 1 $302 0 $168 $-1 forward 7 unknown #
vertex $-1 $169 $303 #
ellipse-curve $-1 64.440610824481013 22.495066487312169 6.6791341381614702 0.84804810408105047 0 0.52991925155115449 0.26495962577557725 0 -0.42402405204052523 1 I I #
point $-1 66.07016776803745 22.495066487312169 7.1078050993250965 #
edge $-1 $304 1 $304 0 $172 $-1 forward 7 unknown #
vertex $-1 $173 $305 #
ellipse-curve $-1 64.440610824481013 24.340318600736087 6.6791341381614702 0.84804810408105047 0 0.52991925155115449 0.26495962577557725 0 -0.42402405204052523 1 I I #
point $-1 66.07016776803745 24.340318600736087 7.1078050993250965 #
edge $-1 $306 1 $306 0 $176 $-1 forward 7 unknown #
vertex $-1 $177 $307 #
ellipse-curve $-1 64.440610824481013 26.185570714160004 6.6791341381614702 0.84804810408105047 0 0.52991925155115449 0.26495962577557725 0 -0.42402405204052523 1 I I #
point $-1 66.07016776803745 26.185570714160004 7.1078050993250965 #
plane-surface $-1 67.088229010895105 0 0 -1 0 0 0 0 1 forward_v I I I I #
coedge $-1 $185 $183 $187 $262 reversed $121 $-1 #
edge $-1 $198 -9.5850918172451962 $264 9.5850918172451962 $197 $308 forward 7 unknown #
vertex $-1 $262 $309 #
straight-curve $-1 -67.088229010895105 -27.415738789775954 0 0 0 -1 I I #
edge $-1 $260 -27.415738789775954 $264 27.415738789775954 $258 $310 forward 7 unknown #
straight-curve $-1 0 -27.415738789775954 -9.5850918172451962 -1 0 0 I I #
vertex $-1 $190 $311 #
straight-curve $-1 0 27.415738789775954 -9.5850918172451962 1 0 0 I I #
point $-1 67.088229010895105 27.415738789775954 -9.5850918172451962 #
point $-1 67.088229010895105 -27.415738789775954 -9.5850918172451962 #
straight-curve $-1 -67.088229010895105 0 9.5850918172451962 0 -1 0 I I #
point $-1 -67.088229010895105 27.415738789775954 9.5850918172451962 #
point $-1 -67.088229010895105 -27.415738789775954 9.5850918172451962 #
straight-curve $-1 67.088229010895105 -27.415738789775954 0 0 0 -1 I I #
straight-curve $-1 67.088229010895105 27.415738789775954 0 0 0 -1 I I #
plane-surface $-1 0 -27.415738789775954 0 0 1 0 0 0 1 forward_v I I I I #
coedge $-1 $312 $210 $277 $313 reversed $140 $-1 #
coedge $-1 $210 $312 $224 $288 reversed $140 $-1 #
edge $-1 $280 -2.4442320535098023 $278 2.4442320535098023 $211 $314 forward 7 unknown #
coedge $-1 $212 $283 $274 $313 forward $208 $-1 #
vertex $-1 $213 $315 #
straight-curve $-1 0 27.415738789775954 -9.5850918172451962 1 0 0 I I #
vertex $-1 $214 $316 #
straight-curve $-1 -71.821120762155388 27.415738789775954 -4.6966277102255916 -1 0 0 I I #
point $-1 -67.088229010895105 27.415738789775954 -9.5850918172451962 #
coedge $-1 $277 $217 $220 $286 forward $208 $-1 #
straight-curve $-1 -67.088229010895105 0 -9.5850918172451962 0 -1 0 I I #
coedge $-1 $220 $219 $312 $317 forward $221 $-1 #
edge $-1 $222 -4.7328917512602828 $318 4.7328917512602828 $220 $319 forward 7 unknown #
point $-1 -67.088229010895105 -27.415738789775954 -9.5850918172451962 #
edge $-1 $280 -27.415738789775954 $289 27.415738789775954 $275 $320 forward 7 unknown #
vertex $-1 $288 $321 #
straight-curve $-1 -71.821120762155388 -27.415738789775954 -4.6966277102255916 1 0 0 I I #
coedge $-1 $295 $233 $230 $292 reversed $228 $-1 #
edge $-1 $300 -67.088229010895105 $293 -64.522187273628688 $291 $322 forward 7 unknown #
vertex $-1 $234 $323 #
straight-curve $-1 64.522187273628674 12.170159300368043 9.5850918172451998 0 -1 0 I I #
coedge $-1 $233 $291 $235 $297 forward $228 $-1 #
straight-curve $-1 23.348239792472565 27.415738789775954 75.477183860926147 -0.52991925155115449 0 0.84804810408105047 I I #
edge $-1 $300 -9.5850918172451962 $236 -5.4785664854861151 $235 $324 forward 7 unknown #
point $-1 67.088229010895105 27.415738789775954 5.4785664854861151 #
point $-1 64.522187273628688 21.264898411696223 9.5850918172451998 #
vertex $-1 $242 $325 #
straight-curve $-1 67.088229010895105 0 9.5850918172451962 0 1 0 I I #
vertex $-1 $245 $326 #
point $-1 64.705570450256587 22.495066487312169 6.2551100861209452 #
vertex $-1 $249 $327 #
point $-1 64.705570450256587 24.340318600736087 6.2551100861209452 #
vertex $-1 $253 $328 #
point $-1 64.705570450256587 26.185570714160004 6.2551100861209452 #
straight-curve $-1 -67.088229010895105 27.415738789775954 0 0 0 -1 I I #
point $-1 -67.088229010895105 -27.415738789775954 -9.5850918172451962 #
straight-curve $-1 -67.088229010895105 0 -9.5850918172451962 0 1 0 I I #
point $-1 -67.088229010895105 27.415738789775954 -9.5850918172451962 #
coedge $-1 $275 $274 $285 $317 reversed $140 $-1 #
edge $-1 $318 -27.415738789775954 $278 27.415738789775954 $274 $329 forward 7 unknown #
straight-curve $-1 -76.554012513415671 27.415738789775954 -7.1408597637353939 0 0 -1 I I #
point $-1 -76.554012513415671 27.415738789775954 -9.5850918172451962 #
point $-1 -76.554012513415671 27.415738789775954 -4.6966277102255916 #
edge $-1 $289 -2.4442320535098023 $318 2.4442320535098023 $312 $330 forward 7 unknown #
vertex $-1 $313 $331 #
straight-curve $-1 -71.821120762155388 -27.415738789775954 -9.5850918172451962 -1 0 0 I I #
straight-curve $-1 -76.554012513415671 0 -4.6966277102255916 0 -1 0 I I #
point $-1 -76.554012513415671 -27.415738789775954 -4.6966277102255916 #
straight-curve $-1 0 27.415738789775954 9.5850918172451962 -1 0 0 I I #
point $-1 64.522187273628688 27.415738789775951 9.5850918172451998 #
straight-curve $-1 67.088229010895105 27.415738789775954 0 0 0 -1 I I #
point $-1 67.088229010895105 27.415738789775954 9.5850918172451962 #
point $-1 64.01658677244049 22.495066487312169 6.4141745123858938 #
point $-1 64.01658677244049 24.340318600736087 6.4141745123858938 #
point $-1 64.01658677244049 26.185570714160004 6.4141745123858938 #
straight-curve $-1 -76.554012513415671 0 -9.5850918172451962 0 1 0 I I #
straight-curve $-1 -76.554012513415671 -27.415738789775954 -7.1408597637353939 0 0 -1 I I #
point $-1 -76.554012513415671 -27.415738789775954 -9.5850918172451962 #
End-of-ACIS-data 