500 0 10 0           
7 Unknown 11 ACIS 5.0 NT 24 Thu Mar 25 17:50:49 1999 
-1 9.9999999999999995e-007 1e-010 
body $-1 $10 $-1 $11 #
body $-1 $12 $-1 $13 #
body $-1 $14 $-1 $15 #
body $-1 $16 $-1 $17 #
body $-1 $18 $-1 $19 #
body $-1 $20 $-1 $21 #
body $-1 $22 $-1 $23 #
body $-1 $24 $-1 $25 #
body $-1 $26 $-1 $27 #
body $-1 $28 $-1 $29 #
lump $-1 $-1 $30 $0 #
transform $-1 1 0 0 0 1 0 0 0 1 79.501937925351726 36.705258867833678 11.843878674748749 1 rotate no_reflect no_shear #
lump $-1 $-1 $31 $1 #
transform $-1 1 0 0 0 1 0 0 0 1 79.501937925351726 36.705258867833678 11.843878674748749 1 rotate no_reflect no_shear #
lump $-1 $-1 $32 $2 #
transform $-1 1 0 0 0 1 0 0 0 1 79.501937925351726 36.705258867833678 11.843878674748749 1 rotate no_reflect no_shear #
lump $-1 $-1 $33 $3 #
transform $-1 1 0 0 0 1 0 0 0 1 79.501937925351726 36.705258867833678 11.843878674748749 1 rotate no_reflect no_shear #
lump $-1 $-1 $34 $4 #
transform $-1 1 0 0 0 1 0 0 0 1 79.501937925351726 36.705258867833678 11.843878674748749 1 rotate no_reflect no_shear #
lump $-1 $-1 $35 $5 #
transform $-1 1 0 0 0 1 0 0 0 1 79.501937925351726 36.705258867833678 11.843878674748749 1 rotate no_reflect no_shear #
lump $-1 $-1 $36 $6 #
transform $-1 1 0 0 0 1 0 0 0 1 79.501937925351726 36.705258867833678 11.843878674748749 1 rotate no_reflect no_shear #
lump $-1 $-1 $37 $7 #
transform $-1 1 0 0 0 1 0 0 0 1 79.501937925351726 36.705258867833678 11.843878674748749 1 rotate no_reflect no_shear #
lump $-1 $-1 $38 $8 #
transform $-1 1 0 0 0 1 0 0 0 1 79.501937925351726 36.705258867833678 11.843878674748749 1 rotate no_reflect no_shear #
lump $-1 $-1 $39 $9 #
transform $-1 1 0 0 0 1 0 0 0 1 79.501937925351726 36.705258867833678 11.843878674748749 1 rotate no_reflect no_shear #
shell $-1 $-1 $-1 $40 $-1 $10 #
shell $-1 $-1 $-1 $41 $-1 $12 #
shell $-1 $-1 $-1 $42 $-1 $14 #
shell $-1 $-1 $-1 $43 $-1 $16 #
shell $-1 $-1 $-1 $44 $-1 $18 #
shell $-1 $-1 $-1 $45 $-1 $20 #
shell $-1 $-1 $-1 $46 $-1 $22 #
shell $-1 $-1 $-1 $47 $-1 $24 #
shell $-1 $-1 $-1 $48 $-1 $26 #
shell $-1 $-1 $-1 $49 $-1 $28 #
face $-1 $50 $51 $30 $-1 $52 forward single #
face $-1 $53 $54 $31 $-1 $55 reversed single #
face $-1 $56 $57 $32 $-1 $58 forward single #
face $-1 $59 $60 $33 $-1 $61 forward single #
face $-1 $62 $63 $34 $-1 $64 reversed single #
face $-1 $65 $66 $35 $-1 $67 forward single #
face $-1 $68 $69 $36 $-1 $70 forward single #
face $-1 $71 $72 $37 $-1 $73 reversed single #
face $-1 $74 $75 $38 $-1 $76 forward single #
face $-1 $77 $78 $39 $-1 $79 forward single #
face $-1 $80 $81 $30 $-1 $82 reversed single #
loop $-1 $-1 $83 $40 #
plane-surface $-1 0 0 11.843878674748749 0 0 1 1 0 0 forward_v I I I I #
face $-1 $84 $85 $31 $-1 $86 reversed single #
loop $-1 $-1 $87 $41 #
plane-surface $-1 -34.063039244410476 64.75902195975425 172.96610297836364 -1 0 0 0 0.55919291073839883 0.82903756765294845 forward_v I I I I #
face $-1 $88 $89 $32 $-1 $90 forward single #
loop $-1 $91 $92 $42 #
cone-surface $-1 -66.519395445082793 27.211020151359786 4.8054278478649834 0 -0.55919291073839883 -0.82903756765294845 2 0 0 1 I I 0 1 2 forward I I I I #
face $-1 $93 $94 $33 $-1 $95 forward single #
loop $-1 $96 $97 $43 #
cone-surface $-1 -47.045581724679408 27.211020151359786 4.8054278478649834 0 -0.55919291073839883 -0.82903756765294845 2 0 0 1 I I 0 1 2 forward I I I I #
face $-1 $98 $99 $34 $-1 $100 reversed single #
loop $-1 $-1 $101 $44 #
plane-surface $-1 0 -120.96447688141538 137.44964697054502 -1 0 0 0 -0.52991927123019833 0.84804809178421925 forward_v I I I I #
face $-1 $102 $103 $35 $-1 $104 forward single #
loop $-1 $105 $106 $45 #
cone-surface $-1 -13.418371806583025 -28.092941341676784 5.2712229186144191 0 0.52991927123019833 -0.84804809178421925 1.5 0 0 1 I I 0 1 1.5 forward I I I I #
face $-1 $107 $108 $36 $-1 $109 forward single #
loop $-1 $110 $111 $46 #
cone-surface $-1 -5.3673487226332099 -28.092941341676784 5.2712229186144191 0 0.52991927123019833 -0.84804809178421925 1.5 0 0 1 I I 0 1 1.5 forward I I I I #
face $-1 $112 $113 $37 $-1 $114 reversed single #
loop $-1 $-1 $115 $47 #
plane-surface $-1 70.109077660743608 -36.705258867833678 2.6067134690610487 0 -0.52991927123019833 0.84804809178421925 1 0 0 forward_v I I I I #
face $-1 $116 $117 $38 $-1 $118 forward single #
loop $-1 $119 $120 $48 #
cone-surface $-1 66.083566118768701 -28.092941341676784 5.2712229186144191 0 0.52991927123019833 -0.84804809178421925 1.5 0 0 1 I I 0 1 1.5 forward I I I I #
face $-1 $121 $122 $39 $-1 $123 forward single #
loop $-1 $124 $125 $49 #
cone-surface $-1 74.134589202718516 -28.092941341676784 5.2712229186144191 0 0.52991927123019833 -0.84804809178421925 1.5 0 0 1 I I 0 1 1.5 forward I I I I #
face $-1 $126 $127 $30 $-1 $128 reversed single #
loop $-1 $-1 $129 $50 #
plane-surface $-1 0 0 -11.843878674748749 0 0 1 1 0 0 forward_v I I I I #
coedge $-1 $130 $131 $132 $133 forward $51 $-1 #
face $-1 $134 $135 $31 $-1 $136 reversed single #
loop $-1 $-1 $137 $53 #
plane-surface $-1 -56.782488584881101 -24.154818195887614 41.145916495705052 0 0.55919291073839883 0.82903756765294845 1 0 0 forward_v I I I I #
coedge $-1 $138 $139 $140 $141 reversed $54 $-1 #
face $-1 $-1 $142 $32 $-1 $143 forward single #
loop $-1 $144 $145 $56 #
cone-surface $-1 -66.519395445082793 25.86659868112875 2.8122410885604499 0 -0.55919291073839883 -0.82903756765294845 1 0 0 1 I I -0.70710678118654746 0.70710678118654746 1 forward I I I I #
loop $-1 $-1 $146 $42 #
coedge $-1 $92 $92 $147 $148 reversed $57 $-1 #
face $-1 $-1 $149 $33 $-1 $150 forward single #
loop $-1 $151 $152 $59 #
cone-surface $-1 -47.045581724679408 25.86659868112875 2.8122410885604499 0 -0.55919291073839883 -0.82903756765294845 1 0 0 1 I I -0.70710678118654746 0.70710678118654746 1 forward I I I I #
loop $-1 $-1 $153 $43 #
coedge $-1 $97 $97 $154 $155 reversed $60 $-1 #
face $-1 $156 $157 $34 $-1 $158 reversed single #
loop $-1 $-1 $159 $62 #
plane-surface $-1 -9.3928602646081174 -36.705258867833678 2.6067134690610487 0 -0.52991927123019833 0.84804809178421925 1 0 0 forward_v I I I I #
coedge $-1 $160 $161 $162 $163 reversed $63 $-1 #
face $-1 $-1 $164 $35 $-1 $165 forward single #
loop $-1 $166 $167 $65 #
cone-surface $-1 -13.418371806583025 -26.474461440956407 2.6811136964857738 0 0.52991927123019833 -0.84804809178421925 0.75 0 0 1 I I -0.70710678118654757 0.70710678118654757 0.75 forward I I I I #
loop $-1 $-1 $168 $45 #
coedge $-1 $106 $106 $169 $170 reversed $66 $-1 #
face $-1 $-1 $171 $36 $-1 $172 forward single #
loop $-1 $173 $174 $68 #
cone-surface $-1 -5.3673487226332099 -26.474461440956407 2.6811136964857738 0 0.52991927123019833 -0.84804809178421925 0.75 0 0 1 I I -0.70710678118654757 0.70710678118654757 0.75 forward I I I I #
loop $-1 $-1 $175 $46 #
coedge $-1 $111 $111 $176 $177 reversed $69 $-1 #
face $-1 $178 $179 $37 $-1 $180 reversed single #
loop $-1 $-1 $181 $71 #
plane-surface $-1 60.716217396135491 -120.96447688141538 137.44964697054502 1 0 0 0 0.52991927123019833 -0.84804809178421925 forward_v I I I I #
coedge $-1 $182 $183 $184 $185 reversed $72 $-1 #
face $-1 $-1 $186 $38 $-1 $187 forward single #
loop $-1 $188 $189 $74 #
cone-surface $-1 66.083566118768701 -26.474461440956407 2.6811136964857738 0 0.52991927123019833 -0.84804809178421925 0.75 0 0 1 I I -0.70710678118654757 0.70710678118654757 0.75 forward I I I I #
loop $-1 $-1 $190 $48 #
coedge $-1 $120 $120 $191 $192 reversed $75 $-1 #
face $-1 $-1 $193 $39 $-1 $194 forward single #
loop $-1 $195 $196 $77 #
cone-surface $-1 74.134589202718516 -26.474461440956407 2.6811136964857738 0 0.52991927123019833 -0.84804809178421925 0.75 0 0 1 I I -0.70710678118654757 0.70710678118654757 0.75 forward I I I I #
loop $-1 $-1 $197 $49 #
coedge $-1 $125 $125 $198 $199 reversed $78 $-1 #
face $-1 $200 $201 $30 $-1 $202 reversed single #
loop $-1 $-1 $203 $80 #
plane-surface $-1 0 -36.705258867833678 0 0 1 0 0 0 1 forward_v I I I I #
coedge $-1 $204 $205 $206 $207 forward $81 $-1 #
coedge $-1 $208 $83 $209 $210 forward $51 $-1 #
coedge $-1 $83 $208 $211 $212 forward $51 $-1 #
coedge $-1 $213 $214 $83 $133 reversed $215 $-1 #
edge $-1 $216 -36.705258867833678 $217 36.705258867833678 $132 $218 forward 7 unknown #
face $-1 $219 $220 $31 $-1 $221 forward single #
loop $-1 $-1 $140 $84 #
plane-surface $-1 0 36.705258867833678 0 0 -1 0 0 0 -1 forward_v I I I I #
coedge $-1 $222 $223 $224 $225 reversed $85 $-1 #
coedge $-1 $139 $87 $226 $227 reversed $54 $-1 #
coedge $-1 $87 $138 $222 $228 reversed $54 $-1 #
coedge $-1 $224 $229 $87 $141 forward $135 $-1 #
edge $-1 $230 74.639172814433067 $231 86.387776084897439 $140 $232 forward 7 unknown #
loop $-1 $-1 $147 $88 #
plane-surface $-1 -56.782488584881101 -24.154818195887614 41.145916495705052 0 0.55919291073839883 0.82903756765294845 1 0 0 forward_v I I I I #
loop $-1 $-1 $233 $56 #
coedge $-1 $145 $145 $146 $234 reversed $89 $-1 #
coedge $-1 $146 $146 $145 $234 forward $91 $-1 #
coedge $-1 $147 $147 $92 $148 forward $142 $-1 #
edge $-1 $235 -2.6565421176494219e-016 $235 6.2831853071796004 $147 $236 forward 7 unknown #
loop $-1 $-1 $154 $93 #
plane-surface $-1 -56.782488584881101 -24.154818195887614 41.145916495705052 0 0.55919291073839883 0.82903756765294845 1 0 0 forward_v I I I I #
loop $-1 $-1 $237 $59 #
coedge $-1 $152 $152 $153 $238 reversed $94 $-1 #
coedge $-1 $153 $153 $152 $238 forward $96 $-1 #
coedge $-1 $154 $154 $97 $155 forward $149 $-1 #
edge $-1 $239 -2.6565421176494219e-016 $239 6.2831853071796004 $154 $240 forward 7 unknown #
face $-1 $241 $242 $34 $-1 $243 reversed single #
loop $-1 $-1 $244 $98 #
plane-surface $-1 -18.785720529216235 -120.96447688141538 137.44964697054502 1 0 0 0 0.52991927123019833 -0.84804809178421925 forward_v I I I I #
coedge $-1 $245 $246 $247 $248 reversed $99 $-1 #
coedge $-1 $161 $101 $249 $250 reversed $63 $-1 #
coedge $-1 $101 $160 $245 $251 reversed $63 $-1 #
coedge $-1 $247 $252 $101 $163 forward $253 $-1 #
edge $-1 $254 23.776979572874012 $255 38.559533730592349 $162 $256 forward 7 unknown #
loop $-1 $-1 $169 $102 #
plane-surface $-1 -9.3928602646081174 -36.705258867833678 2.6067134690610487 0 -0.52991927123019833 0.84804809178421925 1 0 0 forward_v I I I I #
loop $-1 $-1 $257 $65 #
coedge $-1 $167 $167 $168 $258 reversed $103 $-1 #
coedge $-1 $168 $168 $167 $258 forward $105 $-1 #
coedge $-1 $169 $169 $106 $170 forward $164 $-1 #
edge $-1 $259 6.2755048118650619e-016 $259 6.2831853071796013 $169 $260 forward 7 unknown #
loop $-1 $-1 $176 $107 #
plane-surface $-1 -9.3928602646081174 -36.705258867833678 2.6067134690610487 0 -0.52991927123019833 0.84804809178421925 1 0 0 forward_v I I I I #
loop $-1 $-1 $261 $68 #
coedge $-1 $174 $174 $175 $262 reversed $108 $-1 #
coedge $-1 $175 $175 $174 $262 forward $110 $-1 #
coedge $-1 $176 $176 $111 $177 forward $171 $-1 #
edge $-1 $263 6.2755048118650619e-016 $263 6.2831853071796013 $176 $264 forward 7 unknown #
face $-1 $265 $266 $37 $-1 $267 reversed single #
loop $-1 $-1 $268 $112 #
plane-surface $-1 0 -36.705258867833678 0 0 1 0 0 0 1 forward_v I I I I #
coedge $-1 $269 $270 $271 $272 reversed $113 $-1 #
coedge $-1 $273 $115 $274 $275 reversed $72 $-1 #
coedge $-1 $115 $273 $269 $276 forward $72 $-1 #
coedge $-1 $271 $277 $115 $185 forward $278 $-1 #
edge $-1 $279 -44.447399094979922 $280 -25.661678565763687 $184 $281 forward 7 unknown #
loop $-1 $-1 $191 $116 #
plane-surface $-1 70.109077660743608 -36.705258867833678 2.6067134690610487 0 -0.52991927123019833 0.84804809178421925 1 0 0 forward_v I I I I #
loop $-1 $-1 $282 $74 #
coedge $-1 $189 $189 $190 $283 reversed $117 $-1 #
coedge $-1 $190 $190 $189 $283 forward $119 $-1 #
coedge $-1 $191 $191 $120 $192 forward $186 $-1 #
edge $-1 $284 6.2755048118650619e-016 $284 6.2831853071796013 $191 $285 forward 7 unknown #
loop $-1 $-1 $198 $121 #
plane-surface $-1 70.109077660743608 -36.705258867833678 2.6067134690610487 0 -0.52991927123019833 0.84804809178421925 1 0 0 forward_v I I I I #
loop $-1 $-1 $286 $77 #
coedge $-1 $196 $196 $197 $287 reversed $122 $-1 #
coedge $-1 $197 $197 $196 $287 forward $124 $-1 #
coedge $-1 $198 $198 $125 $199 forward $193 $-1 #
edge $-1 $288 6.2755048118650619e-016 $288 6.2831853071796013 $198 $289 forward 7 unknown #
face $-1 $290 $291 $30 $-1 $292 reversed single #
loop $-1 $-1 $293 $126 #
plane-surface $-1 -79.501937925351726 0 0 1 0 0 0 0 -1 forward_v I I I I #
coedge $-1 $294 $211 $295 $296 forward $127 $-1 #
coedge $-1 $297 $129 $294 $298 forward $81 $-1 #
coedge $-1 $129 $297 $299 $300 forward $81 $-1 #
coedge $-1 $214 $213 $129 $207 reversed $215 $-1 #
edge $-1 $301 -36.705258867833678 $302 36.705258867833678 $206 $303 forward 7 unknown #
coedge $-1 $131 $130 $304 $305 forward $51 $-1 #
coedge $-1 $306 $307 $130 $210 reversed $291 $-1 #
edge $-1 $217 -79.501937925351726 $308 79.501937925351726 $209 $309 forward 7 unknown #
coedge $-1 $203 $310 $131 $212 reversed $127 $-1 #
edge $-1 $311 -79.501937925351726 $216 79.501937925351726 $211 $312 forward 7 unknown #
coedge $-1 $206 $132 $310 $313 forward $215 $-1 #
coedge $-1 $132 $206 $306 $314 reversed $215 $-1 #
loop $-1 $-1 $213 $290 #
vertex $-1 $133 $315 #
vertex $-1 $133 $316 #
straight-curve $-1 79.501937925351726 0 11.843878674748749 0 1 0 I I #
face $-1 $-1 $317 $31 $-1 $318 reversed single #
loop $-1 $-1 $226 $134 #
plane-surface $-1 0 0 11.843878674748749 0 0 1 1 0 0 forward_v I I I I #
coedge $-1 $319 $137 $139 $228 forward $85 $-1 #
coedge $-1 $137 $319 $320 $321 reversed $85 $-1 #
coedge $-1 $322 $140 $137 $225 forward $135 $-1 #
edge $-1 $231 5.6717949519699253 $323 51.110693632911179 $224 $324 forward 7 unknown #
coedge $-1 $325 $326 $138 $227 forward $220 $-1 #
edge $-1 $327 -13.09227242600597 $230 4.3257478879565525 $226 $328 forward 7 unknown #
edge $-1 $231 -73.410517735667355 $327 -52.400588881328567 $139 $329 forward 7 unknown #
coedge $-1 $140 $322 $325 $330 reversed $135 $-1 #
vertex $-1 $330 $331 #
vertex $-1 $141 $332 #
straight-curve $-1 -34.063039244410476 36.705258867833678 86.483051489181818 0 0 -1 I I #
coedge $-1 $233 $233 $-1 $333 reversed $144 $-1 #
edge $-1 $334 0 $334 6.2831853071796004 $145 $335 forward 7 unknown #
vertex $-1 $148 $336 #
ellipse-curve $-1 -66.519395445082793 27.996248710852417 5.9695770395165617 0 0.55919291073839883 0.82903756765294845 2 0 0 1 I I #
coedge $-1 $237 $237 $-1 $337 reversed $151 $-1 #
edge $-1 $338 0 $338 6.2831853071796004 $152 $339 forward 7 unknown #
vertex $-1 $155 $340 #
ellipse-curve $-1 -47.045581724679408 27.996248710852417 5.9695770395165617 0 0.55919291073839883 0.82903756765294845 2 0 0 1 I I #
face $-1 $-1 $253 $34 $-1 $341 forward single #
loop $-1 $-1 $342 $156 #
plane-surface $-1 0 -36.705258867833678 0 0 1 0 0 0 1 forward_v I I I I #
coedge $-1 $343 $344 $345 $346 reversed $157 $-1 #
coedge $-1 $347 $159 $161 $251 forward $99 $-1 #
coedge $-1 $159 $347 $343 $348 forward $99 $-1 #
coedge $-1 $345 $162 $159 $248 forward $253 $-1 #
edge $-1 $255 -4.6964301323040587 $349 14.089290396912176 $247 $350 forward 7 unknown #
coedge $-1 $351 $352 $160 $250 forward $242 $-1 #
edge $-1 $353 -66.11811001621146 $254 -56.880944810523758 $249 $354 forward 7 unknown #
edge $-1 $255 -17.431268699180883 $353 0 $161 $355 forward 7 unknown #
coedge $-1 $162 $345 $351 $356 forward $253 $-1 #
loop $-1 $-1 $345 $241 #
vertex $-1 $250 $357 #
vertex $-1 $163 $358 #
straight-curve $-1 0 -60.48223844070769 11.843878674748751 0 1 0 I I #
coedge $-1 $257 $257 $-1 $359 reversed $166 $-1 #
edge $-1 $360 0 $360 6.2831853071796004 $167 $361 forward 7 unknown #
vertex $-1 $170 $362 #
ellipse-curve $-1 -13.418371806583025 -29.313981788974509 7.2252960719048982 0 -0.52991927123019833 0.84804809178421925 1.5 0 0 1 I I #
coedge $-1 $261 $261 $-1 $363 reversed $173 $-1 #
edge $-1 $364 0 $364 6.2831853071796004 $174 $365 forward 7 unknown #
vertex $-1 $177 $366 #
ellipse-curve $-1 -5.3673487226332099 -29.313981788974509 7.2252960719048982 0 -0.52991927123019833 0.84804809178421925 1.5 0 0 1 I I #
face $-1 $-1 $278 $37 $-1 $367 forward single #
loop $-1 $-1 $274 $178 #
plane-surface $-1 79.501937925351726 0 0 -1 0 0 0 0 1 forward_v I I I I #
coedge $-1 $368 $369 $270 $370 forward $179 $-1 #
coedge $-1 $270 $181 $183 $276 reversed $113 $-1 #
coedge $-1 $181 $269 $268 $370 reversed $113 $-1 #
coedge $-1 $371 $184 $181 $272 forward $278 $-1 #
edge $-1 $280 -38.559533730592349 $372 -23.776979572874012 $271 $373 forward 7 unknown #
coedge $-1 $183 $182 $368 $374 reversed $72 $-1 #
coedge $-1 $375 $376 $182 $275 forward $266 $-1 #
edge $-1 $377 -14.873238519740685 $279 2.5580301794401992 $274 $378 forward 7 unknown #
edge $-1 $379 0 $280 17.431268699180883 $269 $380 forward 7 unknown #
coedge $-1 $184 $371 $375 $381 forward $278 $-1 #
loop $-1 $-1 $271 $265 #
vertex $-1 $275 $382 #
vertex $-1 $185 $383 #
straight-curve $-1 35.054538830371804 -21.92270471011534 11.843878674748749 -1 0 0 I I #
coedge $-1 $282 $282 $-1 $384 reversed $188 $-1 #
edge $-1 $385 0 $385 6.2831853071796004 $189 $386 forward 7 unknown #
vertex $-1 $192 $387 #
ellipse-curve $-1 66.083566118768701 -29.313981788974509 7.2252960719048982 0 -0.52991927123019833 0.84804809178421925 1.5 0 0 1 I I #
coedge $-1 $286 $286 $-1 $388 reversed $195 $-1 #
edge $-1 $389 0 $389 6.2831853071796004 $196 $390 forward 7 unknown #
vertex $-1 $199 $391 #
ellipse-curve $-1 74.134589202718516 -29.313981788974509 7.2252960719048982 0 -0.52991927123019833 0.84804809178421925 1.5 0 0 1 I I #
face $-1 $-1 $215 $30 $-1 $392 reversed single #
loop $-1 $-1 $306 $200 #
plane-surface $-1 0 36.705258867833678 0 0 -1 0 0 0 -1 forward_v I I I I #
coedge $-1 $393 $304 $307 $394 forward $201 $-1 #
coedge $-1 $310 $203 $204 $298 reversed $127 $-1 #
coedge $-1 $304 $393 $203 $296 reversed $201 $-1 #
edge $-1 $311 -11.843878674748749 $395 11.843878674748749 $295 $396 forward 7 unknown #
coedge $-1 $205 $204 $393 $397 forward $81 $-1 #
edge $-1 $302 -79.501937925351726 $395 79.501937925351726 $294 $398 forward 7 unknown #
coedge $-1 $307 $306 $205 $300 reversed $291 $-1 #
edge $-1 $399 -79.501937925351726 $301 79.501937925351726 $299 $400 forward 7 unknown #
vertex $-1 $207 $401 #
vertex $-1 $313 $402 #
straight-curve $-1 79.501937925351726 0 -11.843878674748749 0 -1 0 I I #
coedge $-1 $293 $295 $208 $305 reversed $201 $-1 #
edge $-1 $308 -36.705258867833678 $311 36.705258867833678 $304 $403 forward 7 unknown #
coedge $-1 $299 $209 $214 $314 forward $291 $-1 #
coedge $-1 $209 $299 $293 $394 reversed $291 $-1 #
vertex $-1 $210 $404 #
straight-curve $-1 0 36.705258867833678 11.843878674748749 -1 0 0 I I #
coedge $-1 $211 $294 $213 $313 reversed $127 $-1 #
vertex $-1 $305 $405 #
straight-curve $-1 0 -36.705258867833678 11.843878674748749 1 0 0 I I #
edge $-1 $216 -11.843878674748749 $302 11.843878674748749 $213 $406 forward 7 unknown #
edge $-1 $217 -11.843878674748749 $301 11.843878674748749 $214 $407 forward 7 unknown #
point $-1 79.501937925351726 -36.705258867833678 11.843878674748749 #
point $-1 79.501937925351726 36.705258867833678 11.843878674748749 #
loop $-1 $-1 $320 $219 #
plane-surface $-1 -79.501937925351726 0 0 1 0 0 0 0 -1 forward_v I I I I #
coedge $-1 $223 $222 $326 $408 reversed $85 $-1 #
coedge $-1 $409 $410 $223 $321 forward $317 $-1 #
edge $-1 $323 -51.893639468442217 $411 -30.883710614103435 $320 $412 forward 7 unknown #
coedge $-1 $229 $224 $410 $413 reversed $135 $-1 #
vertex $-1 $225 $414 #
straight-curve $-1 -28.39124429244055 36.705258867833685 0.0952754042843722 -1 0 0 I I #
coedge $-1 $415 $226 $229 $330 forward $220 $-1 #
coedge $-1 $226 $415 $319 $408 forward $220 $-1 #
vertex $-1 $227 $416 #
straight-curve $-1 -34.063039244410476 32.379510979877125 11.843878674748751 0 1 0 I I #
straight-curve $-1 -34.063039244410476 -24.154818195887614 41.145916495705052 0 -0.82903756765294845 0.55919291073839883 I I #
edge $-1 $230 34.063039244410476 $417 79.501937925351726 $229 $418 forward 7 unknown #
point $-1 -34.063039244410476 36.705258867833678 11.843878674748749 #
point $-1 -34.063039244410476 36.705258867833685 0.0952754042843722 #
edge $-1 $419 1 $419 0 $233 $-1 forward 7 unknown #
vertex $-1 $234 $420 #
ellipse-curve $-1 -66.519395445082793 26.425791591867149 3.6412786562133981 0 0.55919291073839883 0.82903756765294845 2 0 0 1 I I #
point $-1 -64.519395445082793 27.99624871085242 5.9695770395165679 #
edge $-1 $421 1 $421 0 $237 $-1 forward 7 unknown #
vertex $-1 $238 $422 #
ellipse-curve $-1 -47.045581724679408 26.425791591867149 3.6412786562133981 0 0.55919291073839883 0.82903756765294845 2 0 0 1 I I #
point $-1 -45.045581724679408 27.99624871085242 5.9695770395165679 #
plane-surface $-1 0 0 11.843878674748749 0 0 1 1 0 0 forward_v I I I I #
coedge $-1 $352 $351 $344 $423 forward $242 $-1 #
coedge $-1 $344 $244 $246 $348 reversed $157 $-1 #
coedge $-1 $244 $343 $342 $423 reversed $157 $-1 #
coedge $-1 $252 $247 $244 $346 forward $253 $-1 #
edge $-1 $349 -38.559533730592349 $424 -23.776979572874012 $345 $425 forward 7 unknown #
coedge $-1 $246 $245 $352 $426 reversed $99 $-1 #
edge $-1 $427 0 $349 17.431268699180883 $343 $428 forward 7 unknown #
vertex $-1 $248 $429 #
straight-curve $-1 -4.6964301323040587 -21.92270471011534 11.843878674748749 -1 0 0 I I #
coedge $-1 $342 $249 $252 $356 reversed $242 $-1 #
coedge $-1 $249 $342 $347 $426 forward $242 $-1 #
vertex $-1 $250 $430 #
straight-curve $-1 0 -36.705258867833678 68.724823485272509 0 0 1 I I #
straight-curve $-1 0 -36.705258867833678 2.6067134690610487 0 -0.84804809178421925 -0.52991927123019833 I I #
edge $-1 $424 -18.785720529216235 $254 0 $351 $431 forward 7 unknown #
point $-1 0 -36.705258867833678 11.843878674748749 #
point $-1 0 -21.92270471011534 11.843878674748749 #
edge $-1 $432 1 $432 0 $257 $-1 forward 7 unknown #
vertex $-1 $258 $433 #
ellipse-curve $-1 -13.418371806583025 -26.871900894379056 3.3171497653239381 0 -0.52991927123019833 0.84804809178421925 1.5 0 0 1 I I #
point $-1 -11.918371806583025 -29.313981788974509 7.2252960719049 #
edge $-1 $434 1 $434 0 $261 $-1 forward 7 unknown #
vertex $-1 $262 $435 #
ellipse-curve $-1 -5.3673487226332099 -26.871900894379056 3.3171497653239381 0 -0.52991927123019833 0.84804809178421925 1.5 0 0 1 I I #
point $-1 -3.8673487226332099 -29.313981788974509 7.2252960719049 #
plane-surface $-1 0 0 11.843878674748749 0 0 1 1 0 0 forward_v I I I I #
coedge $-1 $436 $268 $273 $374 forward $179 $-1 #
coedge $-1 $268 $436 $371 $437 reversed $179 $-1 #
edge $-1 $372 56.880944810523758 $379 66.11811001621146 $268 $438 forward 7 unknown #
coedge $-1 $277 $271 $369 $437 forward $278 $-1 #
vertex $-1 $437 $439 #
straight-curve $-1 60.716217396135491 -60.48223844070769 11.843878674748751 0 -1 0 I I #
edge $-1 $379 25.661678565763687 $377 44.447399094979922 $368 $440 forward 7 unknown #
coedge $-1 $376 $274 $277 $381 reversed $266 $-1 #
coedge $-1 $274 $375 $436 $441 forward $266 $-1 #
vertex $-1 $275 $442 #
straight-curve $-1 79.501937925351726 -24.092037322516045 10.488329186274946 0 0.84804809178421925 0.52991927123019833 I I #
vertex $-1 $374 $443 #
straight-curve $-1 60.716217396135491 -36.705258867833678 2.6067134690610487 0 0.84804809178421925 0.52991927123019833 I I #
edge $-1 $444 -36.705258867833678 $279 -21.92270471011534 $375 $445 forward 7 unknown #
point $-1 79.501937925351726 -21.92270471011534 11.843878674748749 #
point $-1 60.716217396135491 -21.92270471011534 11.843878674748749 #
edge $-1 $446 1 $446 0 $282 $-1 forward 7 unknown #
vertex $-1 $283 $447 #
ellipse-curve $-1 66.083566118768701 -26.871900894379056 3.3171497653239381 0 -0.52991927123019833 0.84804809178421925 1.5 0 0 1 I I #
point $-1 67.583566118768701 -29.313981788974509 7.2252960719049 #
edge $-1 $448 1 $448 0 $286 $-1 forward 7 unknown #
vertex $-1 $287 $449 #
ellipse-curve $-1 74.134589202718516 -26.871900894379056 3.3171497653239381 0 -0.52991927123019833 0.84804809178421925 1.5 0 0 1 I I #
point $-1 75.634589202718516 -29.313981788974509 7.2252960719049 #
plane-surface $-1 79.501937925351726 0 0 -1 0 0 0 0 1 forward_v I I I I #
coedge $-1 $295 $293 $297 $397 reversed $201 $-1 #
edge $-1 $308 -11.843878674748749 $399 11.843878674748749 $307 $450 forward 7 unknown #
vertex $-1 $397 $451 #
straight-curve $-1 -79.501937925351726 -36.705258867833678 0 0 0 -1 I I #
edge $-1 $395 -36.705258867833678 $399 36.705258867833678 $393 $452 forward 7 unknown #
straight-curve $-1 0 -36.705258867833678 -11.843878674748749 -1 0 0 I I #
vertex $-1 $300 $453 #
straight-curve $-1 0 36.705258867833678 -11.843878674748749 1 0 0 I I #
point $-1 79.501937925351726 36.705258867833678 -11.843878674748749 #
point $-1 79.501937925351726 -36.705258867833678 -11.843878674748749 #
straight-curve $-1 -79.501937925351726 0 11.843878674748749 0 -1 0 I I #
point $-1 -79.501937925351726 36.705258867833678 11.843878674748749 #
point $-1 -79.501937925351726 -36.705258867833678 11.843878674748749 #
straight-curve $-1 79.501937925351726 -36.705258867833678 0 0 0 -1 I I #
straight-curve $-1 79.501937925351726 36.705258867833678 0 0 0 -1 I I #
edge $-1 $411 -51.110693632911179 $327 -5.6717949519699253 $326 $454 forward 7 unknown #
coedge $-1 $410 $320 $415 $455 reversed $317 $-1 #
coedge $-1 $320 $409 $322 $413 forward $317 $-1 #
vertex $-1 $321 $456 #
straight-curve $-1 -79.501937925351726 -6.3165177737427056 29.113830707451637 0 -0.82903756765294845 0.55919291073839883 I I #
edge $-1 $417 -11.843878674748749 $323 -0.095275404284372367 $322 $457 forward 7 unknown #
point $-1 -79.501937925351726 36.705258867833678 0.095275404284372367 #
coedge $-1 $326 $325 $409 $455 forward $220 $-1 #
point $-1 -34.063039244410476 19.287238553871155 11.843878674748751 #
vertex $-1 $330 $458 #
straight-curve $-1 0 36.705258867833678 11.843878674748749 -1 0 0 I I #
vertex $-1 $333 $459 #
point $-1 -64.519395445082793 26.425791591867149 3.6412786562133981 #
vertex $-1 $337 $460 #
point $-1 -45.045581724679408 26.425791591867149 3.6412786562133981 #
edge $-1 $424 56.880944810523758 $427 66.11811001621146 $342 $461 forward 7 unknown #
vertex $-1 $356 $462 #
straight-curve $-1 -18.785720529216235 -60.48223844070769 11.843878674748751 0 -1 0 I I #
edge $-1 $427 -14.089290396912176 $353 4.6964301323040587 $352 $463 forward 7 unknown #
vertex $-1 $426 $464 #
straight-curve $-1 -18.785720529216235 -36.705258867833678 2.6067134690610487 0 0.84804809178421925 0.52991927123019833 I I #
point $-1 -18.785720529216235 -21.92270471011534 11.843878674748749 #
point $-1 0 -36.705258867833678 2.6067134690610487 #
straight-curve $-1 0 -36.705258867833678 11.843878674748749 1 0 0 I I #
vertex $-1 $359 $465 #
point $-1 -11.918371806583025 -26.871900894379056 3.3171497653239381 #
vertex $-1 $363 $466 #
point $-1 -3.8673487226332099 -26.871900894379056 3.3171497653239381 #
coedge $-1 $369 $368 $376 $441 reversed $179 $-1 #
edge $-1 $372 60.716217396135491 $444 79.501937925351726 $369 $467 forward 7 unknown #
straight-curve $-1 60.716217396135491 -36.705258867833678 68.724823485272509 0 0 -1 I I #
point $-1 60.716217396135491 -36.705258867833678 11.843878674748749 #
straight-curve $-1 35.054538830371804 -36.705258867833678 2.6067134690610487 1 0 0 I I #
edge $-1 $444 -11.843878674748749 $377 -2.6067134690610487 $376 $468 forward 7 unknown #
point $-1 79.501937925351726 -36.705258867833678 2.6067134690610487 #
point $-1 60.716217396135491 -36.705258867833678 2.6067134690610487 #
vertex $-1 $381 $469 #
straight-curve $-1 79.501937925351726 0 11.843878674748749 0 1 0 I I #
vertex $-1 $384 $470 #
point $-1 67.583566118768701 -26.871900894379056 3.3171497653239381 #
vertex $-1 $388 $471 #
point $-1 75.634589202718516 -26.871900894379056 3.3171497653239381 #
straight-curve $-1 -79.501937925351726 36.705258867833678 0 0 0 -1 I I #
point $-1 -79.501937925351726 -36.705258867833678 -11.843878674748749 #
straight-curve $-1 -79.501937925351726 0 -11.843878674748749 0 1 0 I I #
point $-1 -79.501937925351726 36.705258867833678 -11.843878674748749 #
straight-curve $-1 -28.39124429244055 19.287238553871155 11.843878674748751 1 0 0 I I #
edge $-1 $417 -36.705258867833678 $411 -19.287238553871155 $409 $472 forward 7 unknown #
point $-1 -79.501937925351726 19.287238553871155 11.843878674748751 #
straight-curve $-1 -79.501937925351726 36.705258867833678 0 0 0 -1 I I #
point $-1 -79.501937925351726 36.705258867833678 11.843878674748749 #
point $-1 -66.519395445082793 25.30740577039035 1.9832035209075014 #
point $-1 -47.045581724679408 25.30740577039035 1.9832035209075014 #
straight-curve $-1 -18.785720529216235 -36.705258867833678 68.724823485272509 0 0 -1 I I #
point $-1 -18.785720529216235 -36.705258867833678 11.843878674748749 #
straight-curve $-1 -4.6964301323040587 -36.705258867833678 2.6067134690610487 1 0 0 I I #
point $-1 -18.785720529216235 -36.705258867833678 2.6067134690610487 #
point $-1 -13.418371806583025 -26.077021987533758 2.0450776276476095 #
point $-1 -5.3673487226332099 -26.077021987533758 2.0450776276476095 #
straight-curve $-1 0 -36.705258867833678 11.843878674748749 1 0 0 I I #
straight-curve $-1 79.501937925351726 -36.705258867833678 0 0 0 -1 I I #
point $-1 79.501937925351726 -36.705258867833678 11.843878674748749 #
point $-1 66.083566118768701 -26.077021987533758 2.0450776276476095 #
point $-1 74.134589202718516 -26.077021987533758 2.0450776276476095 #
straight-curve $-1 -79.501937925351726 0 11.843878674748749 0 -1 0 I I #
End-of-ACIS-data 