500 0 7 0           
7 Unknown 11 ACIS 5.0 NT 24 Thu Mar 25 19:41:22 1999 
-1 9.9999999999999995e-007 1e-010 
body $-1 $7 $-1 $8 #
body $-1 $9 $-1 $10 #
body $-1 $11 $-1 $12 #
body $-1 $13 $-1 $14 #
body $-1 $15 $-1 $16 #
body $-1 $17 $-1 $18 #
body $-1 $19 $-1 $20 #
lump $-1 $-1 $21 $0 #
transform $-1 1 0 0 0 1 0 0 0 1 58.917813653981142 33.992595457232831 16.49305336519274 1 rotate no_reflect no_shear #
lump $-1 $-1 $22 $1 #
transform $-1 1 0 0 0 1 0 0 0 1 58.917813653981142 33.992595457232831 16.49305336519274 1 rotate no_reflect no_shear #
lump $-1 $-1 $23 $2 #
transform $-1 1 0 0 0 1 0 0 0 1 58.917813653981142 33.992595457232831 16.49305336519274 1 rotate no_reflect no_shear #
lump $-1 $-1 $24 $3 #
transform $-1 1 0 0 0 1 0 0 0 1 58.917813653981142 33.992595457232831 16.49305336519274 1 rotate no_reflect no_shear #
lump $-1 $-1 $25 $4 #
transform $-1 1 0 0 0 1 0 0 0 1 58.917813653981142 33.992595457232831 16.49305336519274 1 rotate no_reflect no_shear #
lump $-1 $-1 $26 $5 #
transform $-1 1 0 0 0 1 0 0 0 1 58.917813653981142 33.992595457232831 16.49305336519274 1 rotate no_reflect no_shear #
lump $-1 $-1 $27 $6 #
transform $-1 1 0 0 0 1 0 0 0 1 58.917813653981142 33.992595457232831 16.49305336519274 1 rotate no_reflect no_shear #
shell $-1 $-1 $-1 $28 $-1 $7 #
shell $-1 $-1 $-1 $29 $-1 $9 #
shell $-1 $-1 $-1 $30 $-1 $11 #
shell $-1 $-1 $-1 $31 $-1 $13 #
shell $-1 $-1 $-1 $32 $-1 $15 #
shell $-1 $-1 $-1 $33 $-1 $17 #
shell $-1 $-1 $-1 $34 $-1 $19 #
face $-1 $35 $36 $21 $-1 $37 forward single #
face $-1 $38 $39 $22 $-1 $40 reversed single #
face $-1 $41 $42 $23 $-1 $43 forward single #
face $-1 $44 $45 $24 $-1 $46 reversed single #
face $-1 $47 $48 $25 $-1 $49 forward single #
face $-1 $50 $51 $26 $-1 $52 forward single #
face $-1 $53 $54 $27 $-1 $55 forward single #
face $-1 $56 $57 $21 $-1 $58 reversed single #
loop $-1 $-1 $59 $28 #
plane-surface $-1 0 0 16.49305336519274 0 0 1 1 0 0 forward_v I I I I #
face $-1 $60 $61 $22 $-1 $62 reversed single #
loop $-1 $-1 $63 $29 #
plane-surface $-1 -49.771666336322809 -25.574378339049822 0 0 -1 0 0 0 -1 forward_v I I I I #
face $-1 $64 $65 $23 $-1 $66 reversed single #
loop $-1 $-1 $67 $30 #
plane-surface $-1 49.965176708534131 0 -12.128562696850008 0 0 1 1 0 0 forward_v I I I I #
face $-1 $68 $69 $24 $-1 $70 reversed single #
loop $-1 $-1 $71 $31 #
plane-surface $-1 18.583732102156677 -129.32362145654668 73.1946168241668 -1 0 0 0 -0.80901700255871778 0.5877852410284794 forward_v I I I I #
face $-1 $72 $73 $25 $-1 $74 forward single #
loop $-1 $75 $76 $32 #
cone-surface $-1 5.9707055870212713 -28.740031846068256 9.7117155312332653 0 0.80901700255871778 -0.5877852410284794 1.5 0 0 1 I I 0 1 1.5 forward I I I I #
face $-1 $77 $78 $26 $-1 $79 forward single #
loop $-1 $80 $81 $33 #
cone-surface $-1 10.700590530197047 -28.740031846068256 9.7117155312332653 0 0.80901700255871778 -0.5877852410284794 1.5 0 0 1 I I 0 1 1.5 forward I I I I #
face $-1 $82 $83 $27 $-1 $84 forward single #
loop $-1 $85 $86 $34 #
cone-surface $-1 15.430475473372823 -28.740031846068256 9.7117155312332653 0 0.80901700255871778 -0.5877852410284794 1.5 0 0 1 I I 0 1 1.5 forward I I I I #
face $-1 $87 $88 $21 $-1 $89 reversed single #
loop $-1 $-1 $90 $35 #
plane-surface $-1 0 0 -16.49305336519274 0 0 1 1 0 0 forward_v I I I I #
coedge $-1 $91 $92 $93 $94 forward $36 $-1 #
face $-1 $95 $96 $22 $-1 $97 forward single #
loop $-1 $-1 $98 $38 #
plane-surface $-1 -40.625519018664477 -29.783486898141327 0 -1 0 0 0 0 1 forward_v I I I I #
coedge $-1 $99 $100 $101 $102 forward $39 $-1 #
face $-1 $103 $104 $23 $-1 $105 reversed single #
loop $-1 $-1 $106 $41 #
plane-surface $-1 41.012539763087119 0 -14.310808031021374 1 0 0 0 0 -1 forward_v I I I I #
coedge $-1 $107 $108 $109 $110 reversed $42 $-1 #
face $-1 $111 $112 $24 $-1 $113 reversed single #
loop $-1 $-1 $114 $44 #
plane-surface $-1 10.700590530197047 -33.992595457232838 3.9325742252141254 0 -0.80901700255871778 0.5877852410284794 1 0 0 forward_v I I I I #
coedge $-1 $115 $116 $117 $118 reversed $45 $-1 #
face $-1 $-1 $119 $25 $-1 $120 forward single #
loop $-1 $121 $122 $47 #
cone-surface $-1 5.9707055870212713 -27.443566483047299 8.7697783364917505 0 0.80901700255871778 -0.5877852410284794 0.75 0 0 1 I I -0.70710678118654757 0.70710678118654757 0.75 forward I I I I #
loop $-1 $-1 $123 $32 #
coedge $-1 $76 $76 $124 $125 reversed $48 $-1 #
face $-1 $-1 $126 $26 $-1 $127 forward single #
loop $-1 $128 $129 $50 #
cone-surface $-1 10.700590530197047 -27.443566483047299 8.7697783364917505 0 0.80901700255871778 -0.5877852410284794 0.75 0 0 1 I I -0.70710678118654757 0.70710678118654757 0.75 forward I I I I #
loop $-1 $-1 $130 $33 #
coedge $-1 $81 $81 $131 $132 reversed $51 $-1 #
face $-1 $-1 $133 $27 $-1 $134 forward single #
loop $-1 $135 $136 $53 #
cone-surface $-1 15.430475473372823 -27.443566483047299 8.7697783364917505 0 0.80901700255871778 -0.5877852410284794 0.75 0 0 1 I I -0.70710678118654757 0.70710678118654757 0.75 forward I I I I #
loop $-1 $-1 $137 $34 #
coedge $-1 $86 $86 $138 $139 reversed $54 $-1 #
face $-1 $140 $141 $21 $-1 $142 reversed single #
loop $-1 $-1 $143 $56 #
plane-surface $-1 0 -33.992595457232831 0 0 1 0 0 0 1 forward_v I I I I #
coedge $-1 $144 $145 $146 $147 forward $57 $-1 #
coedge $-1 $148 $59 $149 $150 forward $36 $-1 #
coedge $-1 $59 $148 $151 $152 forward $36 $-1 #
coedge $-1 $153 $154 $59 $94 reversed $155 $-1 #
edge $-1 $156 -33.992595457232831 $157 33.992595457232831 $93 $158 forward 7 unknown #
face $-1 $159 $160 $22 $-1 $161 reversed single #
loop $-1 $-1 $162 $60 #
plane-surface $-1 0 0 16.49305336519274 0 0 1 1 0 0 forward_v I I I I #
coedge $-1 $163 $164 $165 $166 reversed $61 $-1 #
coedge $-1 $167 $63 $168 $169 reversed $39 $-1 #
coedge $-1 $63 $167 $170 $171 reversed $39 $-1 #
coedge $-1 $164 $163 $63 $102 reversed $61 $-1 #
edge $-1 $172 -16.49305336519274 $173 16.49305336519274 $101 $174 forward 7 unknown #
face $-1 $175 $176 $23 $-1 $177 reversed single #
loop $-1 $-1 $109 $64 #
plane-surface $-1 58.917813653981142 0 0 -1 0 0 0 0 1 forward_v I I I I #
coedge $-1 $178 $179 $180 $181 reversed $65 $-1 #
coedge $-1 $182 $67 $183 $184 reversed $42 $-1 #
coedge $-1 $67 $182 $185 $186 reversed $42 $-1 #
coedge $-1 $187 $188 $67 $110 forward $104 $-1 #
edge $-1 $189 -33.992595457232831 $190 33.992595457232831 $109 $191 forward 7 unknown #
face $-1 $192 $193 $24 $-1 $194 reversed single #
loop $-1 $-1 $195 $68 #
plane-surface $-1 2.8174489582374171 -129.32362145654668 73.1946168241668 1 0 0 0 0.80901700255871778 -0.5877852410284794 forward_v I I I I #
coedge $-1 $196 $197 $198 $199 reversed $69 $-1 #
coedge $-1 $116 $71 $200 $201 reversed $45 $-1 #
coedge $-1 $71 $115 $196 $202 reversed $45 $-1 #
coedge $-1 $198 $203 $71 $118 forward $204 $-1 #
edge $-1 $205 30.669215271040507 $206 39.7949372711658 $117 $207 forward 7 unknown #
loop $-1 $-1 $124 $72 #
plane-surface $-1 10.700590530197047 -33.992595457232838 3.9325742252141254 0 -0.80901700255871778 0.5877852410284794 1 0 0 forward_v I I I I #
loop $-1 $-1 $208 $47 #
coedge $-1 $122 $122 $123 $209 reversed $73 $-1 #
coedge $-1 $123 $123 $122 $209 forward $75 $-1 #
coedge $-1 $124 $124 $76 $125 forward $119 $-1 #
edge $-1 $210 2.5429542012717517e-016 $210 6.2831853071796004 $124 $211 forward 7 unknown #
loop $-1 $-1 $131 $77 #
plane-surface $-1 10.700590530197047 -33.992595457232838 3.9325742252141254 0 -0.80901700255871778 0.5877852410284794 1 0 0 forward_v I I I I #
loop $-1 $-1 $212 $50 #
coedge $-1 $129 $129 $130 $213 reversed $78 $-1 #
coedge $-1 $130 $130 $129 $213 forward $80 $-1 #
coedge $-1 $131 $131 $81 $132 forward $126 $-1 #
edge $-1 $214 2.5429542012717517e-016 $214 6.2831853071796004 $131 $215 forward 7 unknown #
loop $-1 $-1 $138 $82 #
plane-surface $-1 10.700590530197047 -33.992595457232838 3.9325742252141254 0 -0.80901700255871778 0.5877852410284794 1 0 0 forward_v I I I I #
loop $-1 $-1 $216 $53 #
coedge $-1 $136 $136 $137 $217 reversed $83 $-1 #
coedge $-1 $137 $137 $136 $217 forward $85 $-1 #
coedge $-1 $138 $138 $86 $139 forward $133 $-1 #
edge $-1 $218 2.5429542012717517e-016 $218 6.2831853071796004 $138 $219 forward 7 unknown #
face $-1 $220 $221 $21 $-1 $222 reversed single #
loop $-1 $-1 $223 $87 #
plane-surface $-1 -58.917813653981142 0 0 1 0 0 0 0 -1 forward_v I I I I #
coedge $-1 $224 $151 $225 $226 forward $88 $-1 #
coedge $-1 $227 $90 $224 $228 forward $57 $-1 #
coedge $-1 $90 $227 $229 $230 forward $57 $-1 #
coedge $-1 $154 $153 $90 $147 reversed $155 $-1 #
edge $-1 $231 -33.992595457232831 $232 33.992595457232831 $146 $233 forward 7 unknown #
coedge $-1 $92 $91 $234 $235 forward $36 $-1 #
coedge $-1 $236 $237 $91 $150 reversed $221 $-1 #
edge $-1 $157 -58.917813653981142 $238 58.917813653981142 $149 $239 forward 7 unknown #
coedge $-1 $143 $240 $92 $152 reversed $88 $-1 #
edge $-1 $241 -58.917813653981142 $156 58.917813653981142 $151 $242 forward 7 unknown #
coedge $-1 $146 $93 $240 $243 forward $155 $-1 #
coedge $-1 $93 $146 $236 $244 reversed $155 $-1 #
loop $-1 $-1 $153 $220 #
vertex $-1 $94 $245 #
vertex $-1 $94 $246 #
straight-curve $-1 58.917813653981142 0 16.49305336519274 0 1 0 I I #
face $-1 $247 $248 $22 $-1 $249 reversed single #
loop $-1 $-1 $250 $95 #
plane-surface $-1 -58.917813653981142 0 0 1 0 0 0 0 -1 forward_v I I I I #
coedge $-1 $170 $251 $164 $252 forward $96 $-1 #
coedge $-1 $101 $98 $253 $254 reversed $61 $-1 #
coedge $-1 $98 $101 $162 $252 reversed $61 $-1 #
coedge $-1 $255 $256 $98 $166 forward $257 $-1 #
edge $-1 $258 -16.49305336519274 $259 16.49305336519274 $165 $260 forward 7 unknown #
coedge $-1 $100 $99 $250 $261 reversed $39 $-1 #
coedge $-1 $253 $262 $99 $169 forward $248 $-1 #
edge $-1 $263 -34.031980485819737 $173 -15.739685850503072 $168 $264 forward 7 unknown #
coedge $-1 $265 $162 $100 $171 forward $96 $-1 #
edge $-1 $172 15.739685850503072 $266 34.031980485819737 $170 $267 forward 7 unknown #
vertex $-1 $171 $268 #
vertex $-1 $169 $269 #
straight-curve $-1 -40.625519018664477 -25.574378339049822 0 0 0 -1 I I #
face $-1 $270 $271 $23 $-1 $272 reversed single #
loop $-1 $-1 $185 $103 #
plane-surface $-1 0 -33.992595457232831 0 0 1 0 0 0 1 forward_v I I I I #
coedge $-1 $273 $106 $274 $275 reversed $65 $-1 #
coedge $-1 $106 $273 $182 $276 reversed $65 $-1 #
coedge $-1 $183 $277 $106 $181 forward $278 $-1 #
edge $-1 $279 -9.337649349682053 $280 -4.9731586813393207 $180 $281 forward 7 unknown #
coedge $-1 $108 $107 $179 $276 forward $42 $-1 #
coedge $-1 $282 $180 $107 $184 forward $278 $-1 #
edge $-1 $280 16.029951408820054 $189 33.935225299714077 $183 $283 forward 7 unknown #
coedge $-1 $284 $285 $108 $186 forward $176 $-1 #
edge $-1 $190 -33.935225299714077 $286 -16.029951408820054 $185 $287 forward 7 unknown #
coedge $-1 $288 $109 $285 $289 forward $104 $-1 #
coedge $-1 $109 $288 $282 $290 reversed $104 $-1 #
vertex $-1 $290 $291 #
vertex $-1 $289 $292 #
straight-curve $-1 58.917813653981142 0 -12.128562696850008 0 -1 0 I I #
face $-1 $-1 $204 $24 $-1 $293 forward single #
loop $-1 $-1 $294 $111 #
plane-surface $-1 0 -33.992595457232831 0 0 1 0 0 0 1 forward_v I I I I #
coedge $-1 $295 $296 $297 $298 reversed $112 $-1 #
coedge $-1 $299 $114 $116 $202 forward $69 $-1 #
coedge $-1 $114 $299 $295 $300 forward $69 $-1 #
coedge $-1 $297 $117 $114 $199 forward $204 $-1 #
edge $-1 $206 -13.233436837058154 $301 2.5328463068611065 $198 $302 forward 7 unknown #
coedge $-1 $303 $304 $115 $201 forward $193 $-1 #
edge $-1 $305 -32.664734186869268 $205 -20.10425504689066 $200 $306 forward 7 unknown #
edge $-1 $206 -15.525605889929347 $305 -1.2080531203272332e-014 $116 $307 forward 7 unknown #
coedge $-1 $117 $297 $303 $308 forward $204 $-1 #
loop $-1 $-1 $297 $192 #
vertex $-1 $201 $309 #
vertex $-1 $118 $310 #
straight-curve $-1 18.583732102156677 -64.661810728273338 16.49305336519274 0 1 0 I I #
coedge $-1 $208 $208 $-1 $311 reversed $121 $-1 #
edge $-1 $312 0 $312 6.2831853071796004 $122 $313 forward 7 unknown #
vertex $-1 $125 $314 #
ellipse-curve $-1 5.9707055870212713 -29.429734457170188 10.212813795203433 0 -0.80901700255871778 0.5877852410284794 1.5 0 0 1 I I #
coedge $-1 $212 $212 $-1 $315 reversed $128 $-1 #
edge $-1 $316 0 $316 6.2831853071796004 $129 $317 forward 7 unknown #
vertex $-1 $132 $318 #
ellipse-curve $-1 10.700590530197047 -29.429734457170188 10.212813795203433 0 -0.80901700255871778 0.5877852410284794 1.5 0 0 1 I I #
coedge $-1 $216 $216 $-1 $319 reversed $135 $-1 #
edge $-1 $320 0 $320 6.2831853071796004 $136 $321 forward 7 unknown #
vertex $-1 $139 $322 #
ellipse-curve $-1 15.430475473372823 -29.429734457170188 10.212813795203433 0 -0.80901700255871778 0.5877852410284794 1.5 0 0 1 I I #
face $-1 $-1 $155 $21 $-1 $323 reversed single #
loop $-1 $-1 $236 $140 #
plane-surface $-1 0 33.992595457232831 0 0 -1 0 0 0 -1 forward_v I I I I #
coedge $-1 $324 $234 $237 $325 forward $141 $-1 #
coedge $-1 $240 $143 $144 $228 reversed $88 $-1 #
coedge $-1 $234 $324 $143 $226 reversed $141 $-1 #
edge $-1 $241 -16.49305336519274 $326 16.49305336519274 $225 $327 forward 7 unknown #
coedge $-1 $145 $144 $324 $328 forward $57 $-1 #
edge $-1 $232 -58.917813653981142 $326 58.917813653981142 $224 $329 forward 7 unknown #
coedge $-1 $237 $236 $145 $230 reversed $221 $-1 #
edge $-1 $330 -58.917813653981142 $231 58.917813653981142 $229 $331 forward 7 unknown #
vertex $-1 $147 $332 #
vertex $-1 $243 $333 #
straight-curve $-1 58.917813653981142 0 -16.49305336519274 0 -1 0 I I #
coedge $-1 $223 $225 $148 $235 reversed $141 $-1 #
edge $-1 $238 -33.992595457232831 $241 33.992595457232831 $234 $334 forward 7 unknown #
coedge $-1 $229 $149 $154 $244 forward $221 $-1 #
coedge $-1 $149 $229 $223 $325 reversed $221 $-1 #
vertex $-1 $150 $335 #
straight-curve $-1 0 33.992595457232831 16.49305336519274 -1 0 0 I I #
coedge $-1 $151 $224 $153 $243 reversed $88 $-1 #
vertex $-1 $235 $336 #
straight-curve $-1 0 -33.992595457232831 16.49305336519274 1 0 0 I I #
edge $-1 $156 -16.49305336519274 $232 16.49305336519274 $153 $337 forward 7 unknown #
edge $-1 $157 -16.49305336519274 $231 16.49305336519274 $154 $338 forward 7 unknown #
point $-1 58.917813653981142 -33.992595457232831 16.49305336519274 #
point $-1 58.917813653981142 33.992595457232831 16.49305336519274 #
face $-1 $-1 $257 $22 $-1 $339 reversed single #
loop $-1 $-1 $253 $159 #
plane-surface $-1 0 0 -16.49305336519274 0 0 1 1 0 0 forward_v I I I I #
coedge $-1 $340 $341 $167 $261 forward $160 $-1 #
coedge $-1 $162 $265 $255 $342 forward $96 $-1 #
edge $-1 $259 -19.100852008162168 $172 -10.682634889979159 $162 $343 forward 7 unknown #
coedge $-1 $344 $168 $163 $254 forward $248 $-1 #
edge $-1 $173 10.682634889979159 $258 19.100852008162168 $253 $345 forward 7 unknown #
coedge $-1 $346 $165 $251 $342 reversed $257 $-1 #
coedge $-1 $165 $346 $344 $347 reversed $257 $-1 #
loop $-1 $-1 $165 $247 #
vertex $-1 $347 $348 #
vertex $-1 $166 $349 #
straight-curve $-1 -40.625519018664477 -33.992595457232831 0 0 0 1 I I #
edge $-1 $266 -16.49305336519274 $263 16.49305336519274 $250 $350 forward 7 unknown #
coedge $-1 $168 $344 $340 $351 forward $248 $-1 #
vertex $-1 $169 $352 #
straight-curve $-1 -24.885833168161405 -25.574378339049822 -16.49305336519274 1 0 0 I I #
coedge $-1 $251 $170 $341 $353 forward $96 $-1 #
vertex $-1 $353 $354 #
straight-curve $-1 -24.885833168161405 -25.574378339049822 16.49305336519274 -1 0 0 I I #
point $-1 -40.625519018664477 -25.574378339049822 16.49305336519274 #
point $-1 -40.625519018664477 -25.574378339049822 -16.49305336519274 #
face $-1 $-1 $278 $23 $-1 $355 reversed single #
loop $-1 $-1 $274 $175 #
plane-surface $-1 0 0 -16.49305336519274 0 0 1 1 0 0 forward_v I I I I #
coedge $-1 $179 $178 $284 $356 reversed $65 $-1 #
coedge $-1 $357 $358 $178 $275 forward $271 $-1 #
edge $-1 $359 -33.992595457232831 $279 33.992595457232831 $274 $360 forward 7 unknown #
edge $-1 $280 -33.992595457232831 $286 33.992595457232831 $179 $361 forward 7 unknown #
coedge $-1 $180 $282 $357 $362 reversed $278 $-1 #
loop $-1 $-1 $183 $270 #
vertex $-1 $362 $363 #
vertex $-1 $184 $364 #
straight-curve $-1 41.012539763087119 33.992595457232831 -7.1554040155106868 0 0 1 I I #
coedge $-1 $277 $183 $188 $290 forward $278 $-1 #
straight-curve $-1 24.982588354267065 33.992595457232831 -12.128562696850008 1 0 0 I I #
coedge $-1 $365 $185 $273 $356 forward $176 $-1 #
coedge $-1 $185 $365 $187 $289 reversed $176 $-1 #
vertex $-1 $186 $366 #
straight-curve $-1 24.982588354267065 -33.992595457232831 -12.128562696850008 -1 0 0 I I #
coedge $-1 $188 $187 $367 $368 reversed $104 $-1 #
edge $-1 $190 12.128562696850008 $369 16.49305336519274 $187 $370 forward 7 unknown #
edge $-1 $189 12.128562696850008 $371 16.49305336519274 $188 $372 forward 7 unknown #
point $-1 58.917813653981142 33.992595457232831 -12.128562696850008 #
point $-1 58.917813653981142 -33.992595457232831 -12.128562696850008 #
plane-surface $-1 0 0 16.49305336519274 0 0 1 1 0 0 forward_v I I I I #
coedge $-1 $304 $303 $296 $373 forward $193 $-1 #
coedge $-1 $296 $195 $197 $300 reversed $112 $-1 #
coedge $-1 $195 $295 $294 $373 reversed $112 $-1 #
coedge $-1 $203 $198 $195 $298 forward $204 $-1 #
edge $-1 $301 -39.7949372711658 $374 -30.669215271040507 $297 $375 forward 7 unknown #
coedge $-1 $197 $196 $304 $376 reversed $69 $-1 #
edge $-1 $377 1.2080531203272332e-014 $301 15.525605889929347 $295 $378 forward 7 unknown #
vertex $-1 $199 $379 #
straight-curve $-1 5.3502952650985236 -24.866873457107538 16.49305336519274 -1 0 0 I I #
coedge $-1 $294 $200 $203 $308 reversed $193 $-1 #
coedge $-1 $200 $294 $299 $376 forward $193 $-1 #
vertex $-1 $201 $380 #
straight-curve $-1 18.583732102156677 -33.992595457232831 36.5973084120834 0 0 1 I I #
straight-curve $-1 18.583732102156677 -33.992595457232838 3.9325742252141254 0 -0.5877852410284794 -0.80901700255871778 I I #
edge $-1 $374 2.8174489582374171 $205 18.583732102156677 $303 $381 forward 7 unknown #
point $-1 18.583732102156677 -33.992595457232831 16.49305336519274 #
point $-1 18.583732102156677 -24.866873457107538 16.49305336519274 #
edge $-1 $382 1 $382 0 $208 $-1 forward 7 unknown #
vertex $-1 $209 $383 #
ellipse-curve $-1 5.9707055870212713 -28.050329234966338 9.2106172672631104 0 -0.80901700255871778 0.5877852410284794 1.5 0 0 1 I I #
point $-1 7.4707055870212713 -29.42973445717017 10.21281379520342 #
edge $-1 $384 1 $384 0 $212 $-1 forward 7 unknown #
vertex $-1 $213 $385 #
ellipse-curve $-1 10.700590530197047 -28.050329234966338 9.2106172672631104 0 -0.80901700255871778 0.5877852410284794 1.5 0 0 1 I I #
point $-1 12.200590530197047 -29.42973445717017 10.21281379520342 #
edge $-1 $386 1 $386 0 $216 $-1 forward 7 unknown #
vertex $-1 $217 $387 #
ellipse-curve $-1 15.430475473372823 -28.050329234966338 9.2106172672631104 0 -0.80901700255871778 0.5877852410284794 1.5 0 0 1 I I #
point $-1 16.930475473372823 -29.42973445717017 10.21281379520342 #
plane-surface $-1 58.917813653981142 0 0 -1 0 0 0 0 1 forward_v I I I I #
coedge $-1 $225 $223 $227 $328 reversed $141 $-1 #
edge $-1 $238 -16.49305336519274 $330 16.49305336519274 $237 $388 forward 7 unknown #
vertex $-1 $328 $389 #
straight-curve $-1 -58.917813653981142 -33.992595457232831 0 0 0 -1 I I #
edge $-1 $326 -33.992595457232831 $330 33.992595457232831 $324 $390 forward 7 unknown #
straight-curve $-1 0 -33.992595457232831 -16.49305336519274 -1 0 0 I I #
vertex $-1 $230 $391 #
straight-curve $-1 0 33.992595457232831 -16.49305336519274 1 0 0 I I #
point $-1 58.917813653981142 33.992595457232831 -16.49305336519274 #
point $-1 58.917813653981142 -33.992595457232831 -16.49305336519274 #
straight-curve $-1 -58.917813653981142 0 16.49305336519274 0 -1 0 I I #
point $-1 -58.917813653981142 33.992595457232831 16.49305336519274 #
point $-1 -58.917813653981142 -33.992595457232831 16.49305336519274 #
straight-curve $-1 58.917813653981142 -33.992595457232831 0 0 0 -1 I I #
straight-curve $-1 58.917813653981142 33.992595457232831 0 0 0 -1 I I #
plane-surface $-1 0 -33.992595457232831 0 0 1 0 0 0 1 forward_v I I I I #
coedge $-1 $392 $250 $262 $351 reversed $160 $-1 #
coedge $-1 $250 $392 $265 $353 reversed $160 $-1 #
edge $-1 $393 -58.917813653981142 $259 -40.625519018664477 $255 $394 forward 7 unknown #
straight-curve $-1 -40.625519018664477 -14.891743449070663 16.49305336519274 0 1 0 I I #
coedge $-1 $262 $253 $256 $347 forward $248 $-1 #
straight-curve $-1 -40.625519018664477 -14.891743449070663 -16.49305336519274 0 -1 0 I I #
coedge $-1 $256 $255 $392 $395 forward $257 $-1 #
edge $-1 $258 40.625519018664477 $396 58.917813653981142 $256 $397 forward 7 unknown #
point $-1 -40.625519018664477 -33.992595457232831 -16.49305336519274 #
point $-1 -40.625519018664477 -33.992595457232831 16.49305336519274 #
straight-curve $-1 -58.917813653981142 -25.574378339049822 0 0 0 -1 I I #
edge $-1 $396 -33.992595457232831 $263 -25.574378339049822 $340 $398 forward 7 unknown #
point $-1 -58.917813653981142 -25.574378339049822 -16.49305336519274 #
edge $-1 $266 25.574378339049822 $393 33.992595457232831 $341 $399 forward 7 unknown #
point $-1 -58.917813653981142 -25.574378339049822 16.49305336519274 #
plane-surface $-1 0 33.992595457232831 0 0 -1 0 0 0 -1 forward_v I I I I #
edge $-1 $286 4.9731586813393207 $359 9.337649349682053 $284 $400 forward 7 unknown #
coedge $-1 $367 $274 $277 $362 forward $271 $-1 #
coedge $-1 $274 $367 $365 $401 forward $271 $-1 #
vertex $-1 $275 $402 #
straight-curve $-1 41.012539763087119 0 -16.49305336519274 0 1 0 I I #
straight-curve $-1 41.012539763087119 0 -12.128562696850008 0 -1 0 I I #
edge $-1 $279 41.012539763087119 $371 58.917813653981142 $277 $403 forward 7 unknown #
point $-1 41.012539763087119 33.992595457232831 -16.49305336519274 #
point $-1 41.012539763087119 33.992595457232831 -12.128562696850008 #
coedge $-1 $285 $284 $358 $401 reversed $176 $-1 #
point $-1 41.012539763087119 -33.992595457232831 -12.128562696850008 #
coedge $-1 $358 $357 $288 $368 forward $271 $-1 #
edge $-1 $371 -33.992595457232831 $369 33.992595457232831 $288 $404 forward 7 unknown #
vertex $-1 $289 $405 #
straight-curve $-1 58.917813653981142 -33.992595457232831 0 0 0 -1 I I #
vertex $-1 $368 $406 #
straight-curve $-1 58.917813653981142 33.992595457232831 0 0 0 -1 I I #
edge $-1 $374 20.10425504689066 $377 32.664734186869268 $294 $407 forward 7 unknown #
vertex $-1 $308 $408 #
straight-curve $-1 2.8174489582374171 -64.661810728273338 16.49305336519274 0 -1 0 I I #
edge $-1 $377 -2.5328463068611065 $305 13.233436837058154 $304 $409 forward 7 unknown #
vertex $-1 $376 $410 #
straight-curve $-1 2.8174489582374171 -33.992595457232838 3.9325742252141254 0 0.5877852410284794 0.80901700255871778 I I #
point $-1 2.8174489582374171 -24.866873457107538 16.49305336519274 #
point $-1 18.583732102156677 -33.992595457232831 3.9325742252141351 #
straight-curve $-1 0 -33.992595457232831 16.49305336519274 1 0 0 I I #
vertex $-1 $311 $411 #
point $-1 7.4707055870212713 -28.050329234966338 9.2106172672631104 #
vertex $-1 $315 $412 #
point $-1 12.200590530197047 -28.050329234966338 9.2106172672631104 #
vertex $-1 $319 $413 #
point $-1 16.930475473372823 -28.050329234966338 9.2106172672631104 #
straight-curve $-1 -58.917813653981142 33.992595457232831 0 0 0 -1 I I #
point $-1 -58.917813653981142 -33.992595457232831 -16.49305336519274 #
straight-curve $-1 -58.917813653981142 0 -16.49305336519274 0 1 0 I I #
point $-1 -58.917813653981142 33.992595457232831 -16.49305336519274 #
coedge $-1 $341 $340 $346 $395 reversed $160 $-1 #
vertex $-1 $353 $414 #
straight-curve $-1 0 -33.992595457232831 16.49305336519274 1 0 0 I I #
edge $-1 $393 -16.49305336519274 $396 16.49305336519274 $392 $415 forward 7 unknown #
vertex $-1 $351 $416 #
straight-curve $-1 0 -33.992595457232831 -16.49305336519274 -1 0 0 I I #
straight-curve $-1 -58.917813653981142 0 -16.49305336519274 0 1 0 I I #
straight-curve $-1 -58.917813653981142 0 16.49305336519274 0 -1 0 I I #
straight-curve $-1 41.012539763087119 -33.992595457232831 -7.1554040155106868 0 0 -1 I I #
edge $-1 $369 -58.917813653981142 $359 -41.012539763087119 $365 $417 forward 7 unknown #
point $-1 41.012539763087119 -33.992595457232831 -16.49305336519274 #
straight-curve $-1 0 33.992595457232831 -16.49305336519274 1 0 0 I I #
straight-curve $-1 58.917813653981142 0 -16.49305336519274 0 -1 0 I I #
point $-1 58.917813653981142 -33.992595457232831 -16.49305336519274 #
point $-1 58.917813653981142 33.992595457232831 -16.49305336519274 #
straight-curve $-1 2.8174489582374171 -33.992595457232831 36.5973084120834 0 0 -1 I I #
point $-1 2.8174489582374171 -33.992595457232831 16.49305336519274 #
straight-curve $-1 5.3502952650985236 -33.992595457232831 3.9325742252141387 1 0 0 I I #
point $-1 2.8174489582374171 -33.992595457232831 3.9325742252141351 #
point $-1 5.9707055870212713 -26.83680373112826 8.3289394057203907 #
point $-1 10.700590530197047 -26.83680373112826 8.3289394057203907 #
point $-1 15.430475473372823 -26.83680373112826 8.3289394057203907 #
point $-1 -58.917813653981142 -33.992595457232831 16.49305336519274 #
straight-curve $-1 -58.917813653981142 -33.992595457232831 0 0 0 -1 I I #
point $-1 -58.917813653981142 -33.992595457232831 -16.49305336519274 #
straight-curve $-1 0 -33.992595457232831 -16.49305336519274 -1 0 0 I I #
End-of-ACIS-data 