500 0 8 0           
7 Unknown 11 ACIS 5.0 NT 24 Thu Mar 25 23:29:16 1999 
-1 9.9999999999999995e-007 1e-010 
body $-1 $8 $-1 $9 #
body $-1 $10 $-1 $11 #
body $-1 $12 $-1 $13 #
body $-1 $14 $-1 $15 #
body $-1 $16 $-1 $17 #
body $-1 $18 $-1 $19 #
body $-1 $20 $-1 $21 #
body $-1 $22 $-1 $23 #
lump $-1 $-1 $24 $0 #
transform $-1 1 0 0 0 1 0 0 0 1 49.192175054170356 32.128568960136548 13.351294659340047 1 rotate no_reflect no_shear #
lump $-1 $-1 $25 $1 #
transform $-1 1 0 0 0 1 0 0 0 1 49.192175054170356 32.128568960136548 13.351294659340047 1 rotate no_reflect no_shear #
lump $-1 $-1 $26 $2 #
transform $-1 1 0 0 0 1 0 0 0 1 49.192175054170356 32.128568960136548 13.351294659340047 1 rotate no_reflect no_shear #
lump $-1 $-1 $27 $3 #
transform $-1 1 0 0 0 1 0 0 0 1 49.192175054170356 32.128568960136548 13.351294659340047 1 rotate no_reflect no_shear #
lump $-1 $-1 $28 $4 #
transform $-1 1 0 0 0 1 0 0 0 1 49.192175054170356 32.128568960136548 13.351294659340047 1 rotate no_reflect no_shear #
lump $-1 $-1 $29 $5 #
transform $-1 1 0 0 0 1 0 0 0 1 49.192175054170356 32.128568960136548 13.351294659340047 1 rotate no_reflect no_shear #
lump $-1 $-1 $30 $6 #
transform $-1 1 0 0 0 1 0 0 0 1 49.192175054170356 32.128568960136548 13.351294659340047 1 rotate no_reflect no_shear #
lump $-1 $-1 $31 $7 #
transform $-1 1 0 0 0 1 0 0 0 1 49.192175054170356 32.128568960136548 13.351294659340047 1 rotate no_reflect no_shear #
shell $-1 $-1 $-1 $32 $-1 $8 #
shell $-1 $-1 $-1 $33 $-1 $10 #
shell $-1 $-1 $-1 $34 $-1 $12 #
shell $-1 $-1 $-1 $35 $-1 $14 #
shell $-1 $-1 $-1 $36 $-1 $16 #
shell $-1 $-1 $-1 $37 $-1 $18 #
shell $-1 $-1 $-1 $38 $-1 $20 #
shell $-1 $-1 $-1 $39 $-1 $22 #
face $-1 $40 $41 $24 $-1 $42 forward single #
face $-1 $43 $44 $25 $-1 $45 forward single #
face $-1 $46 $47 $26 $-1 $48 forward single #
face $-1 $49 $50 $27 $-1 $51 reversed single #
face $-1 $52 $53 $28 $-1 $54 forward single #
face $-1 $55 $56 $29 $-1 $57 reversed single #
face $-1 $58 $59 $30 $-1 $60 forward single #
face $-1 $61 $62 $31 $-1 $63 forward single #
face $-1 $64 $65 $24 $-1 $66 reversed single #
loop $-1 $-1 $67 $32 #
plane-surface $-1 0 0 13.351294659340047 0 0 1 1 0 0 forward_v I I I I #
face $-1 $68 $69 $25 $-1 $70 reversed single #
loop $-1 $-1 $71 $33 #
plane-surface $-1 -49.192175054170356 0 0 1 0 0 0 0 -1 forward_v I I I I #
face $-1 $72 $73 $26 $-1 $74 reversed single #
loop $-1 $-1 $75 $34 #
plane-surface $-1 49.192175054170356 0 0 -1 0 0 0 0 1 forward_v I I I I #
face $-1 $76 $77 $27 $-1 $78 reversed single #
loop $-1 $-1 $79 $35 #
plane-surface $-1 33.358342096598662 -87.144400068325297 85.868226799393227 -1 0 0 0 -0.55919291073839883 0.82903756765294845 forward_v I I I I #
face $-1 $80 $81 $28 $-1 $82 forward single #
loop $-1 $83 $84 $36 #
cone-surface $-1 23.005749100951498 -23.549718956904265 6.0519543721230296 0 0.55919291073839883 -0.82903756765294845 2 0 0 1 I I 0 1 2 forward I I I I #
face $-1 $85 $86 $29 $-1 $87 reversed single #
loop $-1 $-1 $88 $37 #
plane-surface $-1 -20.209764763884635 64.223706449361927 119.13335130732661 1 0 0 0 -0.75470958851134928 -0.65605901945558964 forward_v I I I I #
face $-1 $89 $90 $30 $-1 $91 forward single #
loop $-1 $92 $93 $38 #
cone-surface $-1 -15.649018386161657 26.884162554225313 7.9055234167587916 0 -0.75470958851134928 -0.65605901945558964 1.5 0 0 1 I I 0 1 1.5 forward I I I I #
face $-1 $94 $95 $31 $-1 $96 forward single #
loop $-1 $97 $98 $39 #
cone-surface $-1 -8.8078988195771899 26.884162554225313 7.9055234167587916 0 -0.75470958851134928 -0.65605901945558964 1.5 0 0 1 I I 0 1 1.5 forward I I I I #
face $-1 $99 $100 $24 $-1 $101 reversed single #
loop $-1 $-1 $102 $40 #
plane-surface $-1 0 0 -13.351294659340047 0 0 1 1 0 0 forward_v I I I I #
coedge $-1 $103 $104 $105 $106 forward $41 $-1 #
face $-1 $107 $108 $25 $-1 $109 forward single #
loop $-1 $-1 $110 $43 #
plane-surface $-1 0 32.128568960136548 0 0 -1 0 0 0 -1 forward_v I I I I #
coedge $-1 $111 $112 $113 $114 forward $44 $-1 #
face $-1 $115 $116 $26 $-1 $117 forward single #
loop $-1 $-1 $118 $46 #
plane-surface $-1 0 -32.128568960136548 0 0 1 0 0 0 1 forward_v I I I I #
coedge $-1 $119 $120 $121 $122 forward $47 $-1 #
face $-1 $123 $124 $27 $-1 $125 reversed single #
loop $-1 $-1 $126 $49 #
plane-surface $-1 23.005749100951498 -32.128568960136548 4.3039044904583506 0 -0.55919291073839883 0.82903756765294845 1 0 0 forward_v I I I I #
coedge $-1 $127 $128 $129 $130 reversed $50 $-1 #
face $-1 $-1 $131 $28 $-1 $132 forward single #
loop $-1 $133 $134 $52 #
cone-surface $-1 23.005749100951498 -21.118329681757892 2.4472716016939131 0 0.55919291073839883 -0.82903756765294845 1 0 0 1 I I -0.70710678118654746 0.70710678118654746 1 forward I I I I #
loop $-1 $-1 $135 $36 #
coedge $-1 $84 $84 $136 $137 reversed $53 $-1 #
face $-1 $138 $139 $29 $-1 $140 reversed single #
loop $-1 $-1 $141 $55 #
plane-surface $-1 -12.228458602869424 -10.027905936860407 54.587411045473175 0 0.75470958851134928 0.65605901945558964 1 0 0 forward_v I I I I #
coedge $-1 $142 $143 $144 $145 reversed $56 $-1 #
face $-1 $-1 $146 $30 $-1 $147 forward single #
loop $-1 $148 $149 $58 #
cone-surface $-1 -15.649018386161657 24.228957315998272 5.597388775882445 0 -0.75470958851134928 -0.65605901945558964 0.75 0 0 1 I I -0.70710678118654757 0.70710678118654757 0.75 forward I I I I #
loop $-1 $-1 $150 $38 #
coedge $-1 $93 $93 $151 $152 reversed $59 $-1 #
face $-1 $-1 $153 $31 $-1 $154 forward single #
loop $-1 $155 $156 $61 #
cone-surface $-1 -8.8078988195771899 24.228957315998272 5.597388775882445 0 -0.75470958851134928 -0.65605901945558964 0.75 0 0 1 I I -0.70710678118654757 0.70710678118654757 0.75 forward I I I I #
loop $-1 $-1 $157 $39 #
coedge $-1 $98 $98 $158 $159 reversed $62 $-1 #
face $-1 $160 $161 $24 $-1 $162 reversed single #
loop $-1 $-1 $163 $64 #
plane-surface $-1 0 -32.128568960136548 0 0 1 0 0 0 1 forward_v I I I I #
coedge $-1 $164 $165 $166 $167 forward $65 $-1 #
coedge $-1 $168 $67 $169 $170 forward $41 $-1 #
coedge $-1 $67 $168 $171 $172 forward $41 $-1 #
coedge $-1 $173 $174 $67 $106 reversed $175 $-1 #
edge $-1 $176 -32.128568960136548 $177 32.128568960136548 $105 $178 forward 7 unknown #
face $-1 $179 $180 $25 $-1 $181 reversed single #
loop $-1 $-1 $113 $68 #
plane-surface $-1 -55.940973967146491 0 7.2314449959887863 0 0 1 1 0 0 forward_v I I I I #
coedge $-1 $182 $183 $112 $184 forward $69 $-1 #
coedge $-1 $185 $71 $186 $187 reversed $44 $-1 #
coedge $-1 $71 $185 $110 $184 reversed $44 $-1 #
coedge $-1 $188 $189 $71 $114 reversed $108 $-1 #
edge $-1 $190 -32.128568960136548 $191 32.128568960136548 $113 $192 forward 7 unknown #
face $-1 $193 $194 $26 $-1 $195 reversed single #
loop $-1 $-1 $196 $72 #
plane-surface $-1 55.940973967146498 0 7.2314449959887863 0 0 1 1 0 0 forward_v I I I I #
coedge $-1 $197 $198 $120 $199 forward $73 $-1 #
coedge $-1 $200 $75 $201 $202 reversed $47 $-1 #
coedge $-1 $75 $200 $118 $199 reversed $47 $-1 #
coedge $-1 $203 $204 $75 $122 reversed $116 $-1 #
edge $-1 $205 -32.128568960136548 $206 32.128568960136548 $121 $207 forward 7 unknown #
face $-1 $208 $209 $27 $-1 $210 forward single #
loop $-1 $-1 $211 $76 #
plane-surface $-1 12.653156105304333 -87.144400068325297 85.868226799393227 1 0 0 0 0.55919291073839883 -0.82903756765294845 forward_v I I I I #
coedge $-1 $212 $213 $214 $215 reversed $77 $-1 #
coedge $-1 $128 $79 $216 $217 reversed $50 $-1 #
coedge $-1 $79 $127 $212 $218 reversed $50 $-1 #
coedge $-1 $214 $219 $79 $130 forward $209 $-1 #
edge $-1 $220 11.443631074026101 $221 24.856938351674721 $129 $222 forward 7 unknown #
loop $-1 $-1 $136 $80 #
plane-surface $-1 23.005749100951498 -32.128568960136548 4.3039044904583506 0 -0.55919291073839883 0.82903756765294845 1 0 0 forward_v I I I I #
loop $-1 $-1 $223 $52 #
coedge $-1 $134 $134 $135 $224 reversed $81 $-1 #
coedge $-1 $135 $135 $134 $224 forward $83 $-1 #
coedge $-1 $136 $136 $84 $137 forward $131 $-1 #
edge $-1 $225 1.4726665534200628e-015 $225 6.2831853071796022 $136 $226 forward 7 unknown #
face $-1 $227 $228 $29 $-1 $229 reversed single #
loop $-1 $-1 $230 $85 #
plane-surface $-1 -4.2471524418542117 64.223706449361927 119.13335130732661 -1 0 0 0 0.75470958851134928 0.65605901945558964 forward_v I I I I #
coedge $-1 $231 $232 $233 $234 reversed $86 $-1 #
coedge $-1 $143 $88 $235 $236 reversed $56 $-1 #
coedge $-1 $88 $142 $231 $237 reversed $56 $-1 #
coedge $-1 $233 $238 $88 $145 forward $239 $-1 #
edge $-1 $240 -0.016715735455584024 $241 6.2937509826798035 $144 $242 forward 7 unknown #
loop $-1 $-1 $151 $89 #
plane-surface $-1 -12.228458602869424 -10.027905936860407 54.587411045473175 0 0.75470958851134928 0.65605901945558964 1 0 0 forward_v I I I I #
loop $-1 $-1 $243 $58 #
coedge $-1 $149 $149 $150 $244 reversed $90 $-1 #
coedge $-1 $150 $150 $149 $244 forward $92 $-1 #
coedge $-1 $151 $151 $93 $152 forward $146 $-1 #
edge $-1 $245 4.6730296814113435e-016 $245 6.2831853071796013 $151 $246 forward 7 unknown #
loop $-1 $-1 $158 $94 #
plane-surface $-1 -12.228458602869424 -10.027905936860407 54.587411045473175 0 0.75470958851134928 0.65605901945558964 1 0 0 forward_v I I I I #
loop $-1 $-1 $247 $61 #
coedge $-1 $156 $156 $157 $248 reversed $95 $-1 #
coedge $-1 $157 $157 $156 $248 forward $97 $-1 #
coedge $-1 $158 $158 $98 $159 forward $153 $-1 #
edge $-1 $249 4.6730296814113435e-016 $249 6.2831853071796013 $158 $250 forward 7 unknown #
face $-1 $251 $252 $24 $-1 $253 reversed single #
loop $-1 $-1 $254 $99 #
plane-surface $-1 -49.192175054170356 0 0 1 0 0 0 0 -1 forward_v I I I I #
coedge $-1 $255 $171 $256 $257 forward $100 $-1 #
coedge $-1 $258 $102 $255 $259 forward $65 $-1 #
coedge $-1 $102 $258 $260 $261 forward $65 $-1 #
coedge $-1 $174 $173 $102 $167 reversed $175 $-1 #
edge $-1 $262 -32.128568960136548 $263 32.128568960136548 $166 $264 forward 7 unknown #
coedge $-1 $104 $103 $265 $266 forward $41 $-1 #
coedge $-1 $267 $268 $103 $170 reversed $252 $-1 #
edge $-1 $177 -49.192175054170356 $269 49.192175054170356 $169 $270 forward 7 unknown #
coedge $-1 $163 $271 $104 $172 reversed $100 $-1 #
edge $-1 $272 -49.192175054170356 $176 49.192175054170356 $171 $273 forward 7 unknown #
coedge $-1 $166 $105 $271 $274 forward $175 $-1 #
coedge $-1 $105 $166 $267 $275 reversed $175 $-1 #
loop $-1 $-1 $173 $251 #
vertex $-1 $106 $276 #
vertex $-1 $106 $277 #
straight-curve $-1 49.192175054170356 0 13.351294659340047 0 1 0 I I #
face $-1 $278 $279 $25 $-1 $280 reversed single #
loop $-1 $-1 $281 $107 #
plane-surface $-1 -55.940973967146491 0 2.0310124346570486 0 0 1 1 0 0 forward_v I I I I #
coedge $-1 $282 $110 $283 $284 reversed $69 $-1 #
coedge $-1 $110 $282 $188 $285 reversed $69 $-1 #
edge $-1 $190 -7.2314449959887863 $286 -2.0310124346570486 $110 $287 forward 7 unknown #
coedge $-1 $112 $111 $281 $288 forward $44 $-1 #
coedge $-1 $289 $290 $111 $187 forward $291 $-1 #
edge $-1 $292 2.0310124346570486 $191 7.2314449959887863 $186 $293 forward 7 unknown #
coedge $-1 $294 $113 $183 $285 forward $108 $-1 #
coedge $-1 $113 $294 $289 $295 forward $108 $-1 #
vertex $-1 $184 $296 #
vertex $-1 $295 $297 #
straight-curve $-1 -49.192175054170356 0 7.2314449959887863 0 -1 0 I I #
face $-1 $298 $299 $26 $-1 $300 reversed single #
loop $-1 $-1 $301 $115 #
plane-surface $-1 55.940973967146498 0 2.0310124346570486 0 0 1 1 0 0 forward_v I I I I #
coedge $-1 $204 $203 $302 $303 forward $116 $-1 #
coedge $-1 $304 $118 $305 $306 reversed $73 $-1 #
coedge $-1 $118 $304 $203 $307 reversed $73 $-1 #
edge $-1 $205 -7.2314449959887863 $308 -2.0310124346570486 $118 $309 forward 7 unknown #
coedge $-1 $120 $119 $310 $311 forward $47 $-1 #
coedge $-1 $312 $313 $119 $202 forward $314 $-1 #
edge $-1 $315 2.0310124346570486 $206 7.2314449959887863 $201 $316 forward 7 unknown #
coedge $-1 $196 $121 $198 $307 forward $116 $-1 #
coedge $-1 $121 $196 $312 $317 forward $116 $-1 #
vertex $-1 $199 $318 #
vertex $-1 $317 $319 #
straight-curve $-1 49.192175054170356 0 7.2314449959887863 0 1 0 I I #
face $-1 $-1 $320 $27 $-1 $321 reversed single #
loop $-1 $-1 $129 $123 #
plane-surface $-1 0 0 13.351294659340047 0 0 1 1 0 0 forward_v I I I I #
coedge $-1 $322 $323 $324 $325 reversed $124 $-1 #
coedge $-1 $326 $126 $128 $218 forward $77 $-1 #
coedge $-1 $126 $326 $322 $327 forward $77 $-1 #
coedge $-1 $324 $129 $126 $215 forward $209 $-1 #
edge $-1 $221 -21.855467546122913 $328 -1.1502815548285845 $214 $329 forward 7 unknown #
coedge $-1 $330 $331 $127 $217 forward $320 $-1 #
edge $-1 $332 -38.630208909238263 $220 -29.582818740356565 $216 $333 forward 7 unknown #
edge $-1 $221 -16.179372082766335 $332 0 $128 $334 forward 7 unknown #
coedge $-1 $129 $324 $330 $335 forward $209 $-1 #
vertex $-1 $217 $336 #
vertex $-1 $130 $337 #
straight-curve $-1 33.358342096598662 -43.572200034162648 13.351294659340049 0 1 0 I I #
coedge $-1 $223 $223 $-1 $338 reversed $133 $-1 #
edge $-1 $339 0 $339 6.2831853071796004 $134 $340 forward 7 unknown #
vertex $-1 $137 $341 #
ellipse-curve $-1 23.005749100951498 -25.421915321312238 8.8275995748991978 0 -0.55919291073839883 0.82903756765294845 2 0 0 1 I I #
face $-1 $-1 $239 $29 $-1 $342 forward single #
loop $-1 $-1 $343 $138 #
plane-surface $-1 0 32.128568960136548 0 0 -1 0 0 0 -1 forward_v I I I I #
coedge $-1 $344 $345 $346 $347 reversed $139 $-1 #
coedge $-1 $348 $141 $143 $237 forward $86 $-1 #
coedge $-1 $141 $348 $344 $349 forward $86 $-1 #
coedge $-1 $346 $144 $141 $234 forward $239 $-1 #
edge $-1 $241 -14.095535462449924 $350 1.8670768595805001 $233 $351 forward 7 unknown #
coedge $-1 $352 $353 $142 $236 forward $228 $-1 #
edge $-1 $354 -53.474742726916453 $240 -46.215380994323255 $235 $355 forward 7 unknown #
edge $-1 $241 54.638389406805622 $354 64.257137920273109 $143 $356 forward 7 unknown #
coedge $-1 $144 $346 $352 $357 forward $239 $-1 #
loop $-1 $-1 $346 $227 #
vertex $-1 $236 $358 #
vertex $-1 $145 $359 #
straight-curve $-1 -20.209764763884635 32.111853224680964 13.351294659340049 0 -1 0 I I #
coedge $-1 $243 $243 $-1 $360 reversed $148 $-1 #
edge $-1 $361 0 $361 6.2831853071796004 $149 $362 forward 7 unknown #
vertex $-1 $152 $363 #
ellipse-curve $-1 -15.649018386161657 28.97333560106885 9.7216137930434527 0 0.75470958851134928 0.65605901945558964 1.5 0 0 1 I I #
coedge $-1 $247 $247 $-1 $364 reversed $155 $-1 #
edge $-1 $365 0 $365 6.2831853071796004 $156 $366 forward 7 unknown #
vertex $-1 $159 $367 #
ellipse-curve $-1 -8.8078988195771899 28.97333560106885 9.7216137930434527 0 0.75470958851134928 0.65605901945558964 1.5 0 0 1 I I #
face $-1 $-1 $175 $24 $-1 $368 reversed single #
loop $-1 $-1 $267 $160 #
plane-surface $-1 0 32.128568960136548 0 0 -1 0 0 0 -1 forward_v I I I I #
coedge $-1 $369 $265 $268 $370 forward $161 $-1 #
coedge $-1 $271 $163 $164 $259 reversed $100 $-1 #
coedge $-1 $265 $369 $163 $257 reversed $161 $-1 #
edge $-1 $272 -13.351294659340047 $371 13.351294659340047 $256 $372 forward 7 unknown #
coedge $-1 $165 $164 $369 $373 forward $65 $-1 #
edge $-1 $263 -49.192175054170356 $371 49.192175054170356 $255 $374 forward 7 unknown #
coedge $-1 $268 $267 $165 $261 reversed $252 $-1 #
edge $-1 $375 -49.192175054170356 $262 49.192175054170356 $260 $376 forward 7 unknown #
vertex $-1 $167 $377 #
vertex $-1 $274 $378 #
straight-curve $-1 49.192175054170356 0 -13.351294659340047 0 -1 0 I I #
coedge $-1 $254 $256 $168 $266 reversed $161 $-1 #
edge $-1 $269 -32.128568960136548 $272 32.128568960136548 $265 $379 forward 7 unknown #
coedge $-1 $260 $169 $174 $275 forward $252 $-1 #
coedge $-1 $169 $260 $254 $370 reversed $252 $-1 #
vertex $-1 $170 $380 #
straight-curve $-1 0 32.128568960136548 13.351294659340047 -1 0 0 I I #
coedge $-1 $171 $255 $173 $274 reversed $100 $-1 #
vertex $-1 $266 $381 #
straight-curve $-1 0 -32.128568960136548 13.351294659340047 1 0 0 I I #
edge $-1 $176 -13.351294659340047 $263 13.351294659340047 $173 $382 forward 7 unknown #
edge $-1 $177 -13.351294659340047 $262 13.351294659340047 $174 $383 forward 7 unknown #
point $-1 49.192175054170356 -32.128568960136548 13.351294659340047 #
point $-1 49.192175054170356 32.128568960136548 13.351294659340047 #
face $-1 $-1 $291 $25 $-1 $384 reversed single #
loop $-1 $-1 $385 $179 #
plane-surface $-1 -62.689772880122625 0 4.6312287153229175 1 0 0 0 0 -1 forward_v I I I I #
coedge $-1 $386 $283 $185 $288 reversed $180 $-1 #
coedge $-1 $183 $182 $385 $387 reversed $69 $-1 #
coedge $-1 $281 $388 $182 $284 forward $180 $-1 #
edge $-1 $389 -6.7487989129761345 $286 6.7487989129761345 $182 $390 forward 7 unknown #
edge $-1 $190 -6.7487989129761345 $391 6.7487989129761345 $183 $392 forward 7 unknown #
vertex $-1 $184 $393 #
straight-curve $-1 -49.192175054170356 32.128568960136548 0 0 0 -1 I I #
edge $-1 $292 -32.128568960136548 $286 32.128568960136548 $281 $394 forward 7 unknown #
coedge $-1 $395 $186 $189 $295 reversed $291 $-1 #
coedge $-1 $186 $395 $386 $396 reversed $291 $-1 #
loop $-1 $-1 $186 $278 #
vertex $-1 $187 $397 #
straight-curve $-1 -49.192175054170356 -32.128568960136548 0 0 0 1 I I #
coedge $-1 $189 $188 $398 $399 forward $108 $-1 #
edge $-1 $400 -6.7487989129761345 $191 6.7487989129761345 $289 $401 forward 7 unknown #
point $-1 -49.192175054170356 32.128568960136548 7.2314449959887863 #
point $-1 -49.192175054170356 -32.128568960136548 7.2314449959887863 #
face $-1 $-1 $314 $26 $-1 $402 reversed single #
loop $-1 $-1 $403 $193 #
plane-surface $-1 62.689772880122632 0 4.6312287153229175 -1 0 0 0 0 1 forward_v I I I I #
coedge $-1 $305 $404 $405 $406 forward $194 $-1 #
coedge $-1 $403 $407 $196 $303 reversed $299 $-1 #
edge $-1 $408 -32.128568960136548 $409 32.128568960136548 $302 $410 forward 7 unknown #
coedge $-1 $198 $197 $403 $411 reversed $73 $-1 #
coedge $-1 $310 $301 $197 $306 forward $194 $-1 #
edge $-1 $412 -6.7487989129761345 $308 6.7487989129761345 $197 $413 forward 7 unknown #
edge $-1 $205 -6.7487989129761345 $408 6.7487989129761345 $198 $414 forward 7 unknown #
vertex $-1 $199 $415 #
straight-curve $-1 49.192175054170356 -32.128568960136548 0 0 0 -1 I I #
coedge $-1 $404 $305 $200 $311 reversed $194 $-1 #
edge $-1 $315 -32.128568960136548 $308 32.128568960136548 $310 $416 forward 7 unknown #
coedge $-1 $417 $201 $204 $317 reversed $314 $-1 #
coedge $-1 $201 $417 $404 $418 reversed $314 $-1 #
loop $-1 $-1 $201 $298 #
vertex $-1 $202 $419 #
straight-curve $-1 49.192175054170356 32.128568960136548 0 0 0 1 I I #
edge $-1 $409 -6.7487989129761345 $206 6.7487989129761345 $312 $420 forward 7 unknown #
point $-1 49.192175054170363 -32.128568960136548 7.2314449959887863 #
point $-1 49.192175054170363 32.128568960136548 7.2314449959887863 #
loop $-1 $-1 $216 $208 #
plane-surface $-1 0 -32.128568960136548 0 0 1 0 0 0 1 forward_v I I I I #
coedge $-1 $323 $211 $213 $327 reversed $124 $-1 #
coedge $-1 $211 $322 $421 $422 reversed $124 $-1 #
coedge $-1 $219 $214 $211 $325 forward $209 $-1 #
edge $-1 $328 -24.856938351674721 $423 -11.443631074026101 $324 $424 forward 7 unknown #
coedge $-1 $213 $212 $331 $425 reversed $77 $-1 #
edge $-1 $426 0 $328 16.179372082766335 $322 $427 forward 7 unknown #
vertex $-1 $215 $428 #
straight-curve $-1 11.502874550475749 -18.715261682487931 13.351294659340047 -1 0 0 I I #
coedge $-1 $421 $216 $219 $335 reversed $320 $-1 #
coedge $-1 $216 $421 $326 $425 forward $320 $-1 #
vertex $-1 $217 $429 #
straight-curve $-1 33.358342096598662 -32.128568960136548 42.934113399696614 0 0 1 I I #
straight-curve $-1 33.358342096598662 -32.128568960136548 4.3039044904583506 0 -0.82903756765294845 -0.55919291073839883 I I #
edge $-1 $423 12.653156105304333 $220 33.358342096598662 $330 $430 forward 7 unknown #
point $-1 33.358342096598662 -32.128568960136548 13.351294659340047 #
point $-1 33.358342096598662 -18.715261682487927 13.351294659340049 #
edge $-1 $431 1 $431 0 $223 $-1 forward 7 unknown #
vertex $-1 $224 $432 #
ellipse-curve $-1 23.005749100951498 -21.677522592496292 3.2763091693468613 0 -0.55919291073839883 0.82903756765294845 2 0 0 1 I I #
point $-1 25.005749100951498 -25.421915321312234 8.8275995748991978 #
plane-surface $-1 0 0 13.351294659340047 0 0 1 1 0 0 forward_v I I I I #
coedge $-1 $353 $352 $345 $433 forward $228 $-1 #
coedge $-1 $345 $230 $232 $349 reversed $139 $-1 #
coedge $-1 $230 $344 $343 $433 reversed $139 $-1 #
coedge $-1 $238 $233 $230 $347 forward $239 $-1 #
edge $-1 $350 -6.2937509826798035 $434 0.016715735455584024 $346 $435 forward 7 unknown #
coedge $-1 $232 $231 $353 $436 reversed $86 $-1 #
edge $-1 $437 -64.257137920273109 $350 -54.638389406805622 $344 $438 forward 7 unknown #
vertex $-1 $234 $439 #
straight-curve $-1 -6.1142293014347118 25.818102242001157 13.351294659340045 1 0 0 I I #
coedge $-1 $343 $235 $238 $357 reversed $228 $-1 #
coedge $-1 $235 $343 $348 $436 forward $228 $-1 #
vertex $-1 $236 $440 #
straight-curve $-1 -20.209764763884635 32.128568960136548 59.566675653663303 0 0 1 I I #
straight-curve $-1 -20.209764763884635 -10.027905936860407 54.587411045473175 0 0.65605901945558964 -0.75470958851134928 I I #
edge $-1 $434 4.2471524418542117 $240 20.209764763884635 $352 $441 forward 7 unknown #
point $-1 -20.209764763884635 32.128568960136548 13.351294659340047 #
point $-1 -20.209764763884635 25.81810224200116 13.351294659340049 #
edge $-1 $442 1 $442 0 $243 $-1 forward 7 unknown #
vertex $-1 $244 $443 #
ellipse-curve $-1 -15.649018386161657 24.794989507381786 6.0894330404741375 0 0.75470958851134928 0.65605901945558964 1.5 0 0 1 I I #
point $-1 -14.149018386161657 28.973335601068843 9.7216137930434456 #
edge $-1 $444 1 $444 0 $247 $-1 forward 7 unknown #
vertex $-1 $248 $445 #
ellipse-curve $-1 -8.8078988195771899 24.794989507381786 6.0894330404741375 0 0.75470958851134928 0.65605901945558964 1.5 0 0 1 I I #
point $-1 -7.3078988195771899 28.973335601068843 9.7216137930434456 #
plane-surface $-1 49.192175054170356 0 0 -1 0 0 0 0 1 forward_v I I I I #
coedge $-1 $256 $254 $258 $373 reversed $161 $-1 #
edge $-1 $269 -13.351294659340047 $375 13.351294659340047 $268 $446 forward 7 unknown #
vertex $-1 $373 $447 #
straight-curve $-1 -49.192175054170356 -32.128568960136548 0 0 0 -1 I I #
edge $-1 $371 -32.128568960136548 $375 32.128568960136548 $369 $448 forward 7 unknown #
straight-curve $-1 0 -32.128568960136548 -13.351294659340047 -1 0 0 I I #
vertex $-1 $261 $449 #
straight-curve $-1 0 32.128568960136548 -13.351294659340047 1 0 0 I I #
point $-1 49.192175054170356 32.128568960136548 -13.351294659340047 #
point $-1 49.192175054170356 -32.128568960136548 -13.351294659340047 #
straight-curve $-1 -49.192175054170356 0 13.351294659340047 0 -1 0 I I #
point $-1 -49.192175054170356 32.128568960136548 13.351294659340047 #
point $-1 -49.192175054170356 -32.128568960136548 13.351294659340047 #
straight-curve $-1 49.192175054170356 -32.128568960136548 0 0 0 -1 I I #
straight-curve $-1 49.192175054170356 32.128568960136548 0 0 0 -1 I I #
plane-surface $-1 0 -32.128568960136548 0 0 1 0 0 0 1 forward_v I I I I #
coedge $-1 $450 $398 $282 $387 forward $279 $-1 #
coedge $-1 $388 $281 $290 $396 forward $180 $-1 #
edge $-1 $391 -2.6002162806658689 $389 2.6002162806658689 $282 $451 forward 7 unknown #
coedge $-1 $283 $386 $450 $452 forward $180 $-1 #
vertex $-1 $284 $453 #
straight-curve $-1 -55.940973967146491 32.128568960136548 2.0310124346570486 1 0 0 I I #
vertex $-1 $285 $454 #
straight-curve $-1 -55.940973967146491 32.128568960136548 7.2314449959887863 -1 0 0 I I #
point $-1 -49.192175054170356 32.128568960136548 2.0310124346570486 #
straight-curve $-1 -49.192175054170356 0 2.0310124346570486 0 1 0 I I #
coedge $-1 $290 $289 $455 $456 forward $291 $-1 #
edge $-1 $292 -6.7487989129761345 $457 6.7487989129761345 $290 $458 forward 7 unknown #
point $-1 -49.192175054170356 -32.128568960136548 2.0310124346570486 #
coedge $-1 $385 $455 $294 $399 reversed $279 $-1 #
edge $-1 $391 -32.128568960136548 $400 32.128568960136548 $398 $459 forward 7 unknown #
vertex $-1 $399 $460 #
straight-curve $-1 -55.940973967146491 -32.128568960136548 7.2314449959887863 1 0 0 I I #
plane-surface $-1 0 32.128568960136548 0 0 -1 0 0 0 -1 forward_v I I I I #
coedge $-1 $405 $302 $304 $411 forward $299 $-1 #
coedge $-1 $301 $310 $313 $418 forward $194 $-1 #
coedge $-1 $407 $403 $301 $406 reversed $299 $-1 #
edge $-1 $461 -32.128568960136548 $412 32.128568960136548 $405 $462 forward 7 unknown #
coedge $-1 $302 $405 $417 $463 reversed $299 $-1 #
vertex $-1 $303 $464 #
vertex $-1 $303 $465 #
straight-curve $-1 62.689772880122632 0 7.2314449959887863 0 1 0 I I #
edge $-1 $408 -2.6002162806658689 $412 2.6002162806658689 $403 $466 forward 7 unknown #
vertex $-1 $411 $467 #
straight-curve $-1 55.940973967146498 -32.128568960136548 2.0310124346570486 -1 0 0 I I #
straight-curve $-1 55.940973967146498 -32.128568960136548 7.2314449959887863 1 0 0 I I #
point $-1 49.192175054170363 -32.128568960136548 2.0310124346570486 #
straight-curve $-1 49.192175054170356 0 2.0310124346570486 0 -1 0 I I #
coedge $-1 $313 $312 $407 $463 forward $314 $-1 #
edge $-1 $315 -6.7487989129761345 $461 6.7487989129761345 $313 $468 forward 7 unknown #
point $-1 49.192175054170363 32.128568960136548 2.0310124346570486 #
straight-curve $-1 55.940973967146498 32.128568960136548 7.2314449959887863 -1 0 0 I I #
coedge $-1 $331 $330 $323 $422 forward $320 $-1 #
edge $-1 $423 29.582818740356565 $426 38.630208909238263 $421 $469 forward 7 unknown #
vertex $-1 $335 $470 #
straight-curve $-1 12.653156105304333 -43.572200034162648 13.351294659340049 0 -1 0 I I #
edge $-1 $426 1.1502815548285845 $332 21.855467546122913 $331 $471 forward 7 unknown #
vertex $-1 $425 $472 #
straight-curve $-1 12.653156105304333 -32.128568960136548 4.3039044904583506 0 0.82903756765294845 0.55919291073839883 I I #
point $-1 12.653156105304333 -18.715261682487927 13.351294659340049 #
point $-1 33.358342096598662 -32.128568960136548 4.3039044904583506 #
straight-curve $-1 0 -32.128568960136548 13.351294659340047 1 0 0 I I #
vertex $-1 $338 $473 #
point $-1 25.005749100951498 -21.677522592496292 3.2763091693468613 #
edge $-1 $434 46.215380994323255 $437 53.474742726916453 $343 $474 forward 7 unknown #
vertex $-1 $357 $475 #
straight-curve $-1 -4.2471524418542117 32.111853224680964 13.351294659340049 0 1 0 I I #
edge $-1 $437 -1.8670768595805001 $354 14.095535462449924 $353 $476 forward 7 unknown #
vertex $-1 $436 $477 #
straight-curve $-1 -4.2471524418542117 -10.027905936860407 54.587411045473175 0 -0.65605901945558964 0.75470958851134928 I I #
point $-1 -4.2471524418542117 25.81810224200116 13.351294659340049 #
point $-1 -20.209764763884635 32.128568960136548 6.0919329267468498 #
straight-curve $-1 0 32.128568960136548 13.351294659340047 -1 0 0 I I #
vertex $-1 $360 $478 #
point $-1 -14.149018386161657 24.794989507381786 6.0894330404741375 #
vertex $-1 $364 $479 #
point $-1 -7.3078988195771899 24.794989507381786 6.0894330404741375 #
straight-curve $-1 -49.192175054170356 32.128568960136548 0 0 0 -1 I I #
point $-1 -49.192175054170356 -32.128568960136548 -13.351294659340047 #
straight-curve $-1 -49.192175054170356 0 -13.351294659340047 0 1 0 I I #
point $-1 -49.192175054170356 32.128568960136548 -13.351294659340047 #
coedge $-1 $455 $385 $388 $452 reversed $279 $-1 #
straight-curve $-1 -62.689772880122625 32.128568960136548 4.6312287153229175 0 0 -1 I I #
edge $-1 $457 -32.128568960136548 $389 32.128568960136548 $450 $480 forward 7 unknown #
point $-1 -62.689772880122625 32.128568960136548 2.0310124346570486 #
point $-1 -62.689772880122625 32.128568960136548 7.2314449959887863 #
coedge $-1 $398 $450 $395 $456 reversed $279 $-1 #
edge $-1 $400 -2.6002162806658689 $457 2.6002162806658689 $455 $481 forward 7 unknown #
vertex $-1 $452 $482 #
straight-curve $-1 -55.940973967146491 -32.128568960136548 2.0310124346570486 -1 0 0 I I #
straight-curve $-1 -62.689772880122625 0 7.2314449959887863 0 -1 0 I I #
point $-1 -62.689772880122625 -32.128568960136548 7.2314449959887863 #
vertex $-1 $406 $483 #
straight-curve $-1 62.689772880122632 0 2.0310124346570486 0 -1 0 I I #
edge $-1 $409 -2.6002162806658689 $461 2.6002162806658689 $407 $484 forward 7 unknown #
point $-1 62.689772880122632 -32.128568960136548 7.2314449959887863 #
point $-1 62.689772880122632 32.128568960136548 7.2314449959887863 #
straight-curve $-1 62.689772880122632 -32.128568960136548 4.6312287153229175 0 0 -1 I I #
point $-1 62.689772880122632 -32.128568960136548 2.0310124346570486 #
straight-curve $-1 55.940973967146498 32.128568960136548 2.0310124346570486 1 0 0 I I #
straight-curve $-1 12.653156105304333 -32.128568960136548 42.934113399696614 0 0 -1 I I #
point $-1 12.653156105304333 -32.128568960136548 13.351294659340047 #
straight-curve $-1 11.502874550475749 -32.128568960136548 4.3039044904583514 1 0 0 I I #
point $-1 12.653156105304333 -32.128568960136548 4.3039044904583506 #
point $-1 23.005749100951498 -20.559136771019492 1.6182340340409647 #
straight-curve $-1 -4.2471524418542117 32.128568960136548 59.566675653663303 0 0 -1 I I #
point $-1 -4.2471524418542117 32.128568960136548 13.351294659340047 #
straight-curve $-1 -6.1142293014347118 32.128568960136548 6.0919329267468463 -1 0 0 I I #
point $-1 -4.2471524418542117 32.128568960136548 6.0919329267468498 #
point $-1 -15.649018386161657 23.662925124614759 5.1053445112907525 #
point $-1 -8.8078988195771899 23.662925124614759 5.1053445112907525 #
straight-curve $-1 -62.689772880122625 0 2.0310124346570486 0 1 0 I I #
straight-curve $-1 -62.689772880122625 -32.128568960136548 4.6312287153229175 0 0 -1 I I #
point $-1 -62.689772880122625 -32.128568960136548 2.0310124346570486 #
point $-1 62.689772880122632 32.128568960136548 2.0310124346570486 #
straight-curve $-1 62.689772880122632 32.128568960136548 4.6312287153229175 0 0 -1 I I #
End-of-ACIS-data 