500 0 15 0           
7 Unknown 11 ACIS 5.0 NT 24 Fri Mar 26 19:35:34 1999 
-1 9.9999999999999995e-007 1e-010 
body $-1 $15 $-1 $16 #
body $-1 $17 $-1 $18 #
body $-1 $19 $-1 $20 #
body $-1 $21 $-1 $22 #
body $-1 $23 $-1 $24 #
body $-1 $25 $-1 $26 #
body $-1 $27 $-1 $28 #
body $-1 $29 $-1 $30 #
body $-1 $31 $-1 $32 #
body $-1 $33 $-1 $34 #
body $-1 $35 $-1 $36 #
body $-1 $37 $-1 $38 #
body $-1 $39 $-1 $40 #
body $-1 $41 $-1 $42 #
body $-1 $43 $-1 $44 #
lump $-1 $-1 $45 $0 #
transform $-1 1 0 0 0 1 0 0 0 1 43.995483260597553 26.936777403305399 5.8825706272338874 1 rotate no_reflect no_shear #
lump $-1 $-1 $46 $1 #
transform $-1 1 0 0 0 1 0 0 0 1 43.995483260597553 26.936777403305399 5.8825706272338874 1 rotate no_reflect no_shear #
lump $-1 $-1 $47 $2 #
transform $-1 1 0 0 0 1 0 0 0 1 43.995483260597553 26.936777403305399 5.8825706272338874 1 rotate no_reflect no_shear #
lump $-1 $-1 $48 $3 #
transform $-1 1 0 0 0 1 0 0 0 1 43.995483260597553 26.936777403305399 5.8825706272338874 1 rotate no_reflect no_shear #
lump $-1 $-1 $49 $4 #
transform $-1 1 0 0 0 1 0 0 0 1 43.995483260597553 26.936777403305399 5.8825706272338874 1 rotate no_reflect no_shear #
lump $-1 $-1 $50 $5 #
transform $-1 1 0 0 0 1 0 0 0 1 43.995483260597553 26.936777403305399 5.8825706272338874 1 rotate no_reflect no_shear #
lump $-1 $-1 $51 $6 #
transform $-1 1 0 0 0 1 0 0 0 1 43.995483260597553 26.936777403305399 5.8825706272338874 1 rotate no_reflect no_shear #
lump $-1 $-1 $52 $7 #
transform $-1 1 0 0 0 1 0 0 0 1 43.995483260597553 26.936777403305399 5.8825706272338874 1 rotate no_reflect no_shear #
lump $-1 $-1 $53 $8 #
transform $-1 1 0 0 0 1 0 0 0 1 43.995483260597553 26.936777403305399 5.8825706272338874 1 rotate no_reflect no_shear #
lump $-1 $-1 $54 $9 #
transform $-1 1 0 0 0 1 0 0 0 1 43.995483260597553 26.936777403305399 5.8825706272338874 1 rotate no_reflect no_shear #
lump $-1 $-1 $55 $10 #
transform $-1 1 0 0 0 1 0 0 0 1 43.995483260597553 26.936777403305399 5.8825706272338874 1 rotate no_reflect no_shear #
lump $-1 $-1 $56 $11 #
transform $-1 1 0 0 0 1 0 0 0 1 43.995483260597553 26.936777403305399 5.8825706272338874 1 rotate no_reflect no_shear #
lump $-1 $-1 $57 $12 #
transform $-1 1 0 0 0 1 0 0 0 1 43.995483260597553 26.936777403305399 5.8825706272338874 1 rotate no_reflect no_shear #
lump $-1 $-1 $58 $13 #
transform $-1 1 0 0 0 1 0 0 0 1 43.995483260597553 26.936777403305399 5.8825706272338874 1 rotate no_reflect no_shear #
lump $-1 $-1 $59 $14 #
transform $-1 1 0 0 0 1 0 0 0 1 43.995483260597553 26.936777403305399 5.8825706272338874 1 rotate no_reflect no_shear #
shell $-1 $-1 $-1 $60 $-1 $15 #
shell $-1 $-1 $-1 $61 $-1 $17 #
shell $-1 $-1 $-1 $62 $-1 $19 #
shell $-1 $-1 $-1 $63 $-1 $21 #
shell $-1 $-1 $-1 $64 $-1 $23 #
shell $-1 $-1 $-1 $65 $-1 $25 #
shell $-1 $-1 $-1 $66 $-1 $27 #
shell $-1 $-1 $-1 $67 $-1 $29 #
shell $-1 $-1 $-1 $68 $-1 $31 #
shell $-1 $-1 $-1 $69 $-1 $33 #
shell $-1 $-1 $-1 $70 $-1 $35 #
shell $-1 $-1 $-1 $71 $-1 $37 #
shell $-1 $-1 $-1 $72 $-1 $39 #
shell $-1 $-1 $-1 $73 $-1 $41 #
shell $-1 $-1 $-1 $74 $-1 $43 #
face $-1 $75 $76 $45 $-1 $77 forward single #
face $-1 $78 $79 $46 $-1 $80 forward single #
face $-1 $81 $82 $47 $-1 $83 forward single #
face $-1 $84 $85 $48 $-1 $86 reversed single #
face $-1 $87 $88 $49 $-1 $89 forward single #
face $-1 $90 $91 $50 $-1 $92 forward single #
face $-1 $93 $94 $51 $-1 $95 forward single #
face $-1 $96 $97 $52 $-1 $98 reversed single #
face $-1 $99 $100 $53 $-1 $101 forward single #
face $-1 $102 $103 $54 $-1 $104 forward single #
face $-1 $105 $106 $55 $-1 $107 forward single #
face $-1 $108 $109 $56 $-1 $110 reversed single #
face $-1 $111 $112 $57 $-1 $113 forward single #
face $-1 $114 $115 $58 $-1 $116 forward single #
face $-1 $117 $118 $59 $-1 $119 forward single #
face $-1 $120 $121 $45 $-1 $122 reversed single #
loop $-1 $-1 $123 $60 #
plane-surface $-1 0 0 5.8825706272338874 0 0 1 1 0 0 forward_v I I I I #
face $-1 $124 $125 $46 $-1 $126 reversed single #
loop $-1 $-1 $127 $61 #
plane-surface $-1 0 -23.130172359546513 -2.8825706272338874 0 0 1 1 0 0 forward_v I I I I #
face $-1 $128 $129 $47 $-1 $130 reversed single #
loop $-1 $-1 $131 $62 #
plane-surface $-1 0 23.130172359546513 -2.8825706272338874 0 0 1 1 0 0 forward_v I I I I #
face $-1 $132 $133 $48 $-1 $134 reversed single #
loop $-1 $-1 $135 $63 #
plane-surface $-1 67.739378267632844 -2.4491437732821524 124.76564587209654 0 -1 0 -0.82903758062907751 0 -0.55919289150049634 forward_v I I I I #
face $-1 $136 $137 $49 $-1 $138 forward single #
loop $-1 $139 $140 $64 #
cone-surface $-1 42.478593060401352 -7.9376265992824671 3.9686413054868712 -0.82903758062907751 0 -0.55919289150049634 0.27959644575024817 0 -0.41451879031453875 1 I I 0 1 0.5 forward I I I I #
face $-1 $141 $142 $50 $-1 $143 forward single #
loop $-1 $144 $145 $65 #
cone-surface $-1 42.478593060401352 -5.8794455395323482 3.9686413054868712 -0.82903758062907751 0 -0.55919289150049634 0.27959644575024817 0 -0.41451879031453875 1 I I 0 1 0.5 forward I I I I #
face $-1 $146 $147 $51 $-1 $148 forward single #
loop $-1 $149 $150 $66 #
cone-surface $-1 42.478593060401352 -3.8212644797822293 3.9686413054868712 -0.82903758062907751 0 -0.55919289150049634 0.27959644575024817 0 -0.41451879031453875 1 I I 0 1 0.5 forward I I I I #
face $-1 $151 $152 $52 $-1 $153 reversed single #
loop $-1 $-1 $154 $67 #
plane-surface $-1 67.739378267632844 9.3097473057825511 124.76564587209654 0 -1 0 -0.82903758062907751 0 -0.55919289150049634 forward_v I I I I #
face $-1 $155 $156 $53 $-1 $157 forward single #
loop $-1 $158 $159 $68 #
cone-surface $-1 42.478593060401352 3.8212644797822399 3.9686413054868712 -0.82903758062907751 0 -0.55919289150049634 0.27959644575024817 0 -0.41451879031453875 1 I I 0 1 0.5 forward I I I I #
face $-1 $160 $161 $54 $-1 $162 forward single #
loop $-1 $163 $164 $69 #
cone-surface $-1 42.478593060401352 5.8794455395323553 3.9686413054868712 -0.82903758062907751 0 -0.55919289150049634 0.27959644575024817 0 -0.41451879031453875 1 I I 0 1 0.5 forward I I I I #
face $-1 $165 $166 $55 $-1 $167 forward single #
loop $-1 $168 $169 $70 #
cone-surface $-1 42.478593060401352 7.9376265992824813 3.9686413054868712 -0.82903758062907751 0 -0.55919289150049634 0.27959644575024817 0 -0.41451879031453875 1 I I 0 1 0.5 forward I I I I #
face $-1 $170 $171 $56 $-1 $172 reversed single #
loop $-1 $-1 $173 $71 #
plane-surface $-1 -96.949769485114615 -12.284189059608508 71.913559170945646 0 1 0 -0.6018150307709319 0 0.79863550430605224 forward_v I I I I #
face $-1 $174 $175 $57 $-1 $176 forward single #
loop $-1 $177 $178 $72 #
cone-surface $-1 -40.880098606147705 -10.790986242601146 3.3623921859209398 0.6018150307709319 0 -0.79863550430605224 0.39931775215302612 0 0.30090751538546595 1 I I 0 1 0.5 forward I I I I #
face $-1 $179 $180 $58 $-1 $181 forward single #
loop $-1 $182 $183 $73 #
cone-surface $-1 -40.880098606147705 -8.5511820170901061 3.3623921859209398 0.6018150307709319 0 -0.79863550430605224 0.39931775215302612 0 0.30090751538546595 1 I I 0 1 0.5 forward I I I I #
face $-1 $184 $185 $59 $-1 $186 forward single #
loop $-1 $187 $188 $74 #
cone-surface $-1 -40.880098606147705 -6.3113777915790656 3.3623921859209398 0.6018150307709319 0 -0.79863550430605224 0.39931775215302612 0 0.30090751538546595 1 I I 0 1 0.5 forward I I I I #
face $-1 $189 $190 $45 $-1 $191 reversed single #
loop $-1 $-1 $192 $75 #
plane-surface $-1 0 0 -5.8825706272338874 0 0 1 1 0 0 forward_v I I I I #
coedge $-1 $193 $194 $195 $196 forward $76 $-1 #
face $-1 $197 $198 $46 $-1 $199 reversed single #
loop $-1 $-1 $200 $78 #
plane-surface $-1 0 -19.323567315787628 -4.3825706272338874 0 -1 0 0 0 -1 forward_v I I I I #
coedge $-1 $201 $202 $203 $204 reversed $79 $-1 #
face $-1 $205 $206 $47 $-1 $207 reversed single #
loop $-1 $-1 $208 $81 #
plane-surface $-1 0 19.323567315787628 -4.3825706272338874 0 1 0 0 0 1 forward_v I I I I #
coedge $-1 $209 $210 $211 $212 reversed $82 $-1 #
face $-1 $213 $214 $48 $-1 $215 reversed single #
loop $-1 $-1 $216 $84 #
plane-surface $-1 -5.2084397343129041 -5.8794455395323482 75.561722877186085 0.82903758062907751 0 0.55919289150049634 0.55919289150049634 0 -0.82903758062907751 forward_v I I I I #
coedge $-1 $217 $218 $219 $220 reversed $85 $-1 #
face $-1 $-1 $221 $49 $-1 $222 forward single #
loop $-1 $223 $224 $87 #
cone-surface $-1 41.85681487492954 -7.9376265992824671 3.5492466368614988 -0.82903758062907751 0 -0.55919289150049634 0.13979822287512408 0 -0.20725939515726938 1 I I -0.70710678118654746 0.70710678118654746 0.25 forward I I I I #
loop $-1 $-1 $225 $64 #
coedge $-1 $140 $140 $226 $227 reversed $88 $-1 #
face $-1 $-1 $228 $50 $-1 $229 forward single #
loop $-1 $230 $231 $90 #
cone-surface $-1 41.85681487492954 -5.8794455395323482 3.5492466368614988 -0.82903758062907751 0 -0.55919289150049634 0.13979822287512408 0 -0.20725939515726938 1 I I -0.70710678118654746 0.70710678118654746 0.25 forward I I I I #
loop $-1 $-1 $232 $65 #
coedge $-1 $145 $145 $233 $234 reversed $91 $-1 #
face $-1 $-1 $235 $51 $-1 $236 forward single #
loop $-1 $237 $238 $93 #
cone-surface $-1 41.85681487492954 -3.8212644797822293 3.5492466368614988 -0.82903758062907751 0 -0.55919289150049634 0.13979822287512408 0 -0.20725939515726938 1 I I -0.70710678118654746 0.70710678118654746 0.25 forward I I I I #
loop $-1 $-1 $239 $66 #
coedge $-1 $150 $150 $240 $241 reversed $94 $-1 #
face $-1 $242 $243 $52 $-1 $244 reversed single #
loop $-1 $-1 $245 $96 #
plane-surface $-1 -5.2084397343129041 5.8794455395323553 75.561722877186085 0.82903758062907751 0 0.55919289150049634 0.55919289150049634 0 -0.82903758062907751 forward_v I I I I #
coedge $-1 $246 $247 $248 $249 reversed $97 $-1 #
face $-1 $-1 $250 $53 $-1 $251 forward single #
loop $-1 $252 $253 $99 #
cone-surface $-1 41.85681487492954 3.8212644797822399 3.5492466368614988 -0.82903758062907751 0 -0.55919289150049634 0.13979822287512408 0 -0.20725939515726938 1 I I -0.70710678118654746 0.70710678118654746 0.25 forward I I I I #
loop $-1 $-1 $254 $68 #
coedge $-1 $159 $159 $255 $256 reversed $100 $-1 #
face $-1 $-1 $257 $54 $-1 $258 forward single #
loop $-1 $259 $260 $102 #
cone-surface $-1 41.85681487492954 5.8794455395323553 3.5492466368614988 -0.82903758062907751 0 -0.55919289150049634 0.13979822287512408 0 -0.20725939515726938 1 I I -0.70710678118654746 0.70710678118654746 0.25 forward I I I I #
loop $-1 $-1 $261 $69 #
coedge $-1 $164 $164 $262 $263 reversed $103 $-1 #
face $-1 $-1 $264 $55 $-1 $265 forward single #
loop $-1 $266 $267 $105 #
cone-surface $-1 41.85681487492954 7.9376265992824813 3.5492466368614988 -0.82903758062907751 0 -0.55919289150049634 0.13979822287512408 0 -0.20725939515726938 1 I I -0.70710678118654746 0.70710678118654746 0.25 forward I I I I #
loop $-1 $-1 $268 $70 #
coedge $-1 $169 $169 $269 $270 reversed $106 $-1 #
face $-1 $271 $272 $56 $-1 $273 reversed single #
loop $-1 $-1 $274 $108 #
plane-surface $-1 -43.995483260597545 -8.5511820170901061 1.6408492489140372 -0.6018150307709319 0 0.79863550430605224 0.79863550430605224 0 0.6018150307709319 forward_v I I I I #
coedge $-1 $275 $276 $277 $278 reversed $109 $-1 #
face $-1 $-1 $279 $57 $-1 $280 forward single #
loop $-1 $281 $282 $111 #
cone-surface $-1 -40.428737333069506 -10.790986242601146 2.7634155576914008 0.6018150307709319 0 -0.79863550430605224 0.19965887607651306 0 0.15045375769273298 1 I I -0.70710678118654746 0.70710678118654746 0.25 forward I I I I #
loop $-1 $-1 $283 $72 #
coedge $-1 $178 $178 $284 $285 reversed $112 $-1 #
face $-1 $-1 $286 $58 $-1 $287 forward single #
loop $-1 $288 $289 $114 #
cone-surface $-1 -40.428737333069506 -8.5511820170901061 2.7634155576914008 0.6018150307709319 0 -0.79863550430605224 0.19965887607651306 0 0.15045375769273298 1 I I -0.70710678118654746 0.70710678118654746 0.25 forward I I I I #
loop $-1 $-1 $290 $73 #
coedge $-1 $183 $183 $291 $292 reversed $115 $-1 #
face $-1 $-1 $293 $59 $-1 $294 forward single #
loop $-1 $295 $296 $117 #
cone-surface $-1 -40.428737333069506 -6.3113777915790656 2.7634155576914008 0.6018150307709319 0 -0.79863550430605224 0.19965887607651306 0 0.15045375769273298 1 I I -0.70710678118654746 0.70710678118654746 0.25 forward I I I I #
loop $-1 $-1 $297 $74 #
coedge $-1 $188 $188 $298 $299 reversed $118 $-1 #
face $-1 $300 $301 $45 $-1 $302 reversed single #
loop $-1 $-1 $303 $120 #
plane-surface $-1 0 -26.936777403305399 0 0 1 0 0 0 1 forward_v I I I I #
coedge $-1 $304 $305 $306 $307 forward $121 $-1 #
coedge $-1 $308 $123 $309 $310 forward $76 $-1 #
coedge $-1 $123 $308 $311 $312 forward $76 $-1 #
coedge $-1 $313 $314 $123 $196 reversed $315 $-1 #
edge $-1 $316 -26.936777403305399 $317 26.936777403305399 $195 $318 forward 7 unknown #
face $-1 $319 $320 $46 $-1 $321 reversed single #
loop $-1 $-1 $322 $124 #
plane-surface $-1 0 0 -5.8825706272338874 0 0 1 1 0 0 forward_v I I I I #
coedge $-1 $323 $324 $325 $326 reversed $125 $-1 #
coedge $-1 $327 $127 $324 $328 forward $79 $-1 #
coedge $-1 $127 $327 $329 $330 reversed $79 $-1 #
coedge $-1 $331 $325 $127 $204 forward $320 $-1 #
edge $-1 $332 7.7584811360143711 $333 15.371691223532142 $203 $334 forward 7 unknown #
face $-1 $335 $336 $47 $-1 $337 reversed single #
loop $-1 $-1 $211 $128 #
plane-surface $-1 43.995483260597553 0 0 -1 0 0 0 0 1 forward_v I I I I #
coedge $-1 $338 $339 $340 $341 reversed $129 $-1 #
coedge $-1 $342 $131 $343 $344 reversed $82 $-1 #
coedge $-1 $131 $342 $339 $345 forward $82 $-1 #
coedge $-1 $346 $347 $131 $212 forward $206 $-1 #
edge $-1 $348 -15.371691223532142 $349 -7.7584811360143711 $211 $350 forward 7 unknown #
face $-1 $351 $352 $48 $-1 $353 forward single #
loop $-1 $-1 $354 $132 #
plane-surface $-1 67.739378267632844 -9.3097473057825439 124.76564587209654 0 1 0 0.82903758062907751 0 0.55919289150049634 forward_v I I I I #
coedge $-1 $355 $356 $357 $358 reversed $133 $-1 #
coedge $-1 $218 $135 $359 $360 reversed $85 $-1 #
coedge $-1 $135 $217 $355 $361 reversed $85 $-1 #
coedge $-1 $357 $362 $135 $220 forward $352 $-1 #
edge $-1 $363 -10.12579412678113 $364 -7.9210513070178123 $219 $365 forward 7 unknown #
loop $-1 $-1 $226 $136 #
plane-surface $-1 -5.2084397343129041 -5.8794455395323482 75.561722877186085 0.82903758062907751 0 0.55919289150049634 0.55919289150049634 0 -0.82903758062907751 forward_v I I I I #
loop $-1 $-1 $366 $87 #
coedge $-1 $224 $224 $225 $367 reversed $137 $-1 #
coedge $-1 $225 $225 $224 $367 forward $139 $-1 #
coedge $-1 $226 $226 $140 $227 forward $221 $-1 #
edge $-1 $368 0 $368 6.2831853071796004 $226 $369 forward 7 unknown #
loop $-1 $-1 $233 $141 #
plane-surface $-1 -5.2084397343129041 -5.8794455395323482 75.561722877186085 0.82903758062907751 0 0.55919289150049634 0.55919289150049634 0 -0.82903758062907751 forward_v I I I I #
loop $-1 $-1 $370 $90 #
coedge $-1 $231 $231 $232 $371 reversed $142 $-1 #
coedge $-1 $232 $232 $231 $371 forward $144 $-1 #
coedge $-1 $233 $233 $145 $234 forward $228 $-1 #
edge $-1 $372 0 $372 6.2831853071796004 $233 $373 forward 7 unknown #
loop $-1 $-1 $240 $146 #
plane-surface $-1 -5.2084397343129041 -5.8794455395323482 75.561722877186085 0.82903758062907751 0 0.55919289150049634 0.55919289150049634 0 -0.82903758062907751 forward_v I I I I #
loop $-1 $-1 $374 $93 #
coedge $-1 $238 $238 $239 $375 reversed $147 $-1 #
coedge $-1 $239 $239 $238 $375 forward $149 $-1 #
coedge $-1 $240 $240 $150 $241 forward $235 $-1 #
edge $-1 $376 0 $376 6.2831853071796004 $240 $377 forward 7 unknown #
face $-1 $378 $379 $52 $-1 $380 reversed single #
loop $-1 $-1 $381 $151 #
plane-surface $-1 67.739378267632844 2.4491437732821595 124.76564587209654 0 1 0 0.82903758062907751 0 0.55919289150049634 forward_v I I I I #
coedge $-1 $382 $383 $384 $385 reversed $152 $-1 #
coedge $-1 $247 $154 $386 $387 reversed $97 $-1 #
coedge $-1 $154 $246 $382 $388 reversed $97 $-1 #
coedge $-1 $384 $389 $154 $249 forward $390 $-1 #
edge $-1 $391 -10.12579412678113 $392 -7.9210513070178123 $248 $393 forward 7 unknown #
loop $-1 $-1 $255 $155 #
plane-surface $-1 -5.2084397343129041 5.8794455395323553 75.561722877186085 0.82903758062907751 0 0.55919289150049634 0.55919289150049634 0 -0.82903758062907751 forward_v I I I I #
loop $-1 $-1 $394 $99 #
coedge $-1 $253 $253 $254 $395 reversed $156 $-1 #
coedge $-1 $254 $254 $253 $395 forward $158 $-1 #
coedge $-1 $255 $255 $159 $256 forward $250 $-1 #
edge $-1 $396 0 $396 6.2831853071796004 $255 $397 forward 7 unknown #
loop $-1 $-1 $262 $160 #
plane-surface $-1 -5.2084397343129041 5.8794455395323553 75.561722877186085 0.82903758062907751 0 0.55919289150049634 0.55919289150049634 0 -0.82903758062907751 forward_v I I I I #
loop $-1 $-1 $398 $102 #
coedge $-1 $260 $260 $261 $399 reversed $161 $-1 #
coedge $-1 $261 $261 $260 $399 forward $163 $-1 #
coedge $-1 $262 $262 $164 $263 forward $257 $-1 #
edge $-1 $400 0 $400 6.2831853071796004 $262 $401 forward 7 unknown #
loop $-1 $-1 $269 $165 #
plane-surface $-1 -5.2084397343129041 5.8794455395323553 75.561722877186085 0.82903758062907751 0 0.55919289150049634 0.55919289150049634 0 -0.82903758062907751 forward_v I I I I #
loop $-1 $-1 $402 $105 #
coedge $-1 $267 $267 $268 $403 reversed $166 $-1 #
coedge $-1 $268 $268 $267 $403 forward $168 $-1 #
coedge $-1 $269 $269 $169 $270 forward $264 $-1 #
edge $-1 $404 0 $404 6.2831853071796004 $269 $405 forward 7 unknown #
face $-1 $406 $407 $56 $-1 $408 reversed single #
loop $-1 $-1 $409 $170 #
plane-surface $-1 -96.949769485114615 -4.8181749745717042 71.913559170945646 0 -1 0 0.6018150307709319 0 -0.79863550430605224 forward_v I I I I #
coedge $-1 $410 $411 $412 $413 reversed $171 $-1 #
coedge $-1 $276 $173 $414 $415 reversed $109 $-1 #
coedge $-1 $173 $275 $410 $416 reversed $109 $-1 #
coedge $-1 $412 $417 $173 $278 forward $418 $-1 #
edge $-1 $419 4.479401481959755 $420 10.108355760088536 $277 $421 forward 7 unknown #
loop $-1 $-1 $284 $174 #
plane-surface $-1 -43.995483260597545 -8.5511820170901061 1.6408492489140372 -0.6018150307709319 0 0.79863550430605224 0.79863550430605224 0 0.6018150307709319 forward_v I I I I #
loop $-1 $-1 $422 $111 #
coedge $-1 $282 $282 $283 $423 reversed $175 $-1 #
coedge $-1 $283 $283 $282 $423 forward $177 $-1 #
coedge $-1 $284 $284 $178 $285 forward $279 $-1 #
edge $-1 $424 0 $424 6.2831853071796004 $284 $425 forward 7 unknown #
loop $-1 $-1 $291 $179 #
plane-surface $-1 -43.995483260597545 -8.5511820170901061 1.6408492489140372 -0.6018150307709319 0 0.79863550430605224 0.79863550430605224 0 0.6018150307709319 forward_v I I I I #
loop $-1 $-1 $426 $114 #
coedge $-1 $289 $289 $290 $427 reversed $180 $-1 #
coedge $-1 $290 $290 $289 $427 forward $182 $-1 #
coedge $-1 $291 $291 $183 $292 forward $286 $-1 #
edge $-1 $428 0 $428 6.2831853071796004 $291 $429 forward 7 unknown #
loop $-1 $-1 $298 $184 #
plane-surface $-1 -43.995483260597545 -8.5511820170901061 1.6408492489140372 -0.6018150307709319 0 0.79863550430605224 0.79863550430605224 0 0.6018150307709319 forward_v I I I I #
loop $-1 $-1 $430 $117 #
coedge $-1 $296 $296 $297 $431 reversed $185 $-1 #
coedge $-1 $297 $297 $296 $431 forward $187 $-1 #
coedge $-1 $298 $298 $188 $299 forward $293 $-1 #
edge $-1 $432 0 $432 6.2831853071796004 $298 $433 forward 7 unknown #
face $-1 $434 $435 $45 $-1 $436 reversed single #
loop $-1 $-1 $437 $189 #
plane-surface $-1 -43.995483260597553 0 0 1 0 0 0 0 -1 forward_v I I I I #
coedge $-1 $438 $311 $439 $440 forward $190 $-1 #
coedge $-1 $441 $192 $438 $442 forward $121 $-1 #
coedge $-1 $192 $441 $443 $444 forward $121 $-1 #
coedge $-1 $314 $313 $192 $307 reversed $315 $-1 #
edge $-1 $445 -26.936777403305399 $446 26.936777403305399 $306 $447 forward 7 unknown #
coedge $-1 $194 $193 $448 $449 forward $76 $-1 #
coedge $-1 $450 $451 $193 $310 reversed $435 $-1 #
edge $-1 $317 -43.995483260597553 $452 43.995483260597553 $309 $453 forward 7 unknown #
coedge $-1 $303 $454 $194 $312 reversed $190 $-1 #
edge $-1 $455 -43.995483260597553 $316 43.995483260597553 $311 $456 forward 7 unknown #
coedge $-1 $306 $195 $454 $457 forward $315 $-1 #
coedge $-1 $195 $306 $450 $458 reversed $315 $-1 #
loop $-1 $-1 $313 $434 #
vertex $-1 $196 $459 #
vertex $-1 $196 $460 #
straight-curve $-1 43.995483260597553 0 5.8825706272338874 0 1 0 I I #
face $-1 $461 $462 $46 $-1 $463 reversed single #
loop $-1 $-1 $325 $197 #
plane-surface $-1 43.995483260597553 0 0 -1 0 0 0 0 1 forward_v I I I I #
coedge $-1 $464 $465 $323 $466 forward $198 $-1 #
coedge $-1 $467 $200 $322 $466 reversed $125 $-1 #
coedge $-1 $200 $467 $201 $328 reversed $125 $-1 #
coedge $-1 $203 $468 $200 $326 forward $320 $-1 #
edge $-1 $469 -3.6912853136169437 $332 -0.69128531361694368 $325 $470 forward 7 unknown #
coedge $-1 $202 $201 $471 $472 reversed $79 $-1 #
edge $-1 $332 -43.995483260597553 $473 43.995483260597553 $324 $474 forward 7 unknown #
coedge $-1 $475 $476 $202 $330 forward $462 $-1 #
edge $-1 $333 -43.995483260597553 $477 43.995483260597553 $329 $478 forward 7 unknown #
coedge $-1 $468 $203 $476 $479 forward $320 $-1 #
vertex $-1 $204 $480 #
vertex $-1 $479 $481 #
straight-curve $-1 43.995483260597553 -11.565086179773257 -2.8825706272338874 0 -1 0 I I #
face $-1 $482 $483 $47 $-1 $484 reversed single #
loop $-1 $-1 $485 $205 #
plane-surface $-1 0 0 -5.8825706272338874 0 0 1 1 0 0 forward_v I I I I #
coedge $-1 $486 $208 $485 $487 reversed $129 $-1 #
coedge $-1 $208 $486 $210 $345 reversed $129 $-1 #
coedge $-1 $488 $489 $208 $341 forward $483 $-1 #
edge $-1 $490 -3.6912853136169437 $491 -0.69128531361694368 $340 $492 forward 7 unknown #
coedge $-1 $210 $209 $488 $493 reversed $82 $-1 #
coedge $-1 $494 $495 $209 $344 forward $496 $-1 #
edge $-1 $497 -43.995483260597553 $348 43.995483260597553 $343 $498 forward 7 unknown #
edge $-1 $491 -43.995483260597553 $349 43.995483260597553 $339 $499 forward 7 unknown #
coedge $-1 $500 $211 $486 $501 forward $206 $-1 #
coedge $-1 $211 $500 $494 $502 reversed $206 $-1 #
vertex $-1 $502 $503 #
vertex $-1 $212 $504 #
straight-curve $-1 43.995483260597553 11.565086179773257 -2.8825706272338874 0 -1 0 I I #
face $-1 $-1 $505 $48 $-1 $506 reversed single #
loop $-1 $-1 $219 $213 #
plane-surface $-1 0 0 5.8825706272338874 0 0 1 1 0 0 forward_v I I I I #
coedge $-1 $507 $508 $509 $510 reversed $214 $-1 #
coedge $-1 $511 $216 $218 $361 forward $133 $-1 #
coedge $-1 $216 $511 $507 $512 forward $133 $-1 #
coedge $-1 $509 $219 $216 $358 forward $352 $-1 #
edge $-1 $364 -0.4905789964840217 $513 6.3700245360163699 $357 $514 forward 7 unknown #
coedge $-1 $515 $516 $217 $360 forward $505 $-1 #
edge $-1 $517 -59.768918060807934 $363 -56.500252308814382 $359 $518 forward 7 unknown #
edge $-1 $364 84.048243261878838 $517 87.990966521195105 $218 $519 forward 7 unknown #
coedge $-1 $219 $509 $515 $520 forward $352 $-1 #
vertex $-1 $360 $521 #
vertex $-1 $220 $522 #
straight-curve $-1 33.869689133816422 -2.4491437732821524 5.8825706272338891 -1 0 0 I I #
coedge $-1 $366 $366 $-1 $523 reversed $223 $-1 #
edge $-1 $524 0 $524 6.2831853071796004 $224 $525 forward 7 unknown #
vertex $-1 $227 $526 #
ellipse-curve $-1 42.89311185071589 -7.9376265992824671 4.2482377512371192 0.82903758062907751 0 0.55919289150049634 0.27959644575024817 0 -0.41451879031453875 1 I I #
coedge $-1 $370 $370 $-1 $527 reversed $230 $-1 #
edge $-1 $528 0 $528 6.2831853071796004 $231 $529 forward 7 unknown #
vertex $-1 $234 $530 #
ellipse-curve $-1 42.89311185071589 -5.8794455395323482 4.2482377512371192 0.82903758062907751 0 0.55919289150049634 0.27959644575024817 0 -0.41451879031453875 1 I I #
coedge $-1 $374 $374 $-1 $531 reversed $237 $-1 #
edge $-1 $532 0 $532 6.2831853071796004 $238 $533 forward 7 unknown #
vertex $-1 $241 $534 #
ellipse-curve $-1 42.89311185071589 -3.8212644797822293 4.2482377512371192 0.82903758062907751 0 0.55919289150049634 0.27959644575024817 0 -0.41451879031453875 1 I I #
face $-1 $-1 $390 $52 $-1 $535 forward single #
loop $-1 $-1 $536 $242 #
plane-surface $-1 43.995483260597553 0 0 -1 0 0 0 0 1 forward_v I I I I #
coedge $-1 $537 $538 $539 $540 reversed $243 $-1 #
coedge $-1 $541 $245 $247 $388 forward $152 $-1 #
coedge $-1 $245 $541 $537 $542 forward $152 $-1 #
coedge $-1 $539 $248 $245 $385 forward $390 $-1 #
edge $-1 $392 -6.3700245360163734 $543 0.49057899648401815 $384 $544 forward 7 unknown #
coedge $-1 $545 $546 $246 $387 forward $379 $-1 #
edge $-1 $547 -59.768918060807934 $391 -56.500252308814382 $386 $548 forward 7 unknown #
edge $-1 $392 84.048243261878838 $547 87.990966521195105 $247 $549 forward 7 unknown #
coedge $-1 $248 $539 $545 $550 forward $390 $-1 #
loop $-1 $-1 $539 $378 #
vertex $-1 $387 $551 #
vertex $-1 $249 $552 #
straight-curve $-1 33.869689133816422 9.3097473057825511 5.8825706272338891 -1 0 0 I I #
coedge $-1 $394 $394 $-1 $553 reversed $252 $-1 #
edge $-1 $554 0 $554 6.2831853071796004 $253 $555 forward 7 unknown #
vertex $-1 $256 $556 #
ellipse-curve $-1 42.89311185071589 3.8212644797822399 4.2482377512371192 0.82903758062907751 0 0.55919289150049634 0.27959644575024817 0 -0.41451879031453875 1 I I #
coedge $-1 $398 $398 $-1 $557 reversed $259 $-1 #
edge $-1 $558 0 $558 6.2831853071796004 $260 $559 forward 7 unknown #
vertex $-1 $263 $560 #
ellipse-curve $-1 42.89311185071589 5.8794455395323553 4.2482377512371192 0.82903758062907751 0 0.55919289150049634 0.27959644575024817 0 -0.41451879031453875 1 I I #
coedge $-1 $402 $402 $-1 $561 reversed $266 $-1 #
edge $-1 $562 0 $562 6.2831853071796004 $267 $563 forward 7 unknown #
vertex $-1 $270 $564 #
ellipse-curve $-1 42.89311185071589 7.9376265992824813 4.2482377512371192 0.82903758062907751 0 0.55919289150049634 0.27959644575024817 0 -0.41451879031453875 1 I I #
face $-1 $-1 $418 $56 $-1 $565 forward single #
loop $-1 $-1 $566 $271 #
plane-surface $-1 -43.995483260597553 0 0 1 0 0 0 0 -1 forward_v I I I I #
coedge $-1 $567 $568 $569 $570 reversed $272 $-1 #
coedge $-1 $571 $274 $276 $416 forward $171 $-1 #
coedge $-1 $274 $571 $567 $572 forward $171 $-1 #
coedge $-1 $569 $277 $274 $413 forward $418 $-1 #
edge $-1 $420 -8.0085980510634549 $573 -0.54258396602665115 $412 $574 forward 7 unknown #
coedge $-1 $575 $576 $275 $415 forward $407 $-1 #
edge $-1 $577 -34.315930336558793 $419 -30.074208958238934 $414 $578 forward 7 unknown #
edge $-1 $420 -7.0482144204443635 $577 8.8817612989391469e-015 $276 $579 forward 7 unknown #
coedge $-1 $277 $569 $575 $580 forward $418 $-1 #
loop $-1 $-1 $569 $406 #
vertex $-1 $415 $581 #
vertex $-1 $278 $582 #
straight-curve $-1 -48.474884742557308 -12.284189059608508 5.8825706272338891 1 0 0 I I #
coedge $-1 $422 $422 $-1 $583 reversed $281 $-1 #
edge $-1 $584 0 $584 6.2831853071796004 $282 $585 forward 7 unknown #
vertex $-1 $285 $586 #
ellipse-curve $-1 -41.181006121533166 -10.790986242601146 3.7617099380739578 -0.6018150307709319 0 0.79863550430605224 0.39931775215302612 0 0.30090751538546595 1 I I #
coedge $-1 $426 $426 $-1 $587 reversed $288 $-1 #
edge $-1 $588 0 $588 6.2831853071796004 $289 $589 forward 7 unknown #
vertex $-1 $292 $590 #
ellipse-curve $-1 -41.181006121533166 -8.5511820170901061 3.7617099380739578 -0.6018150307709319 0 0.79863550430605224 0.39931775215302612 0 0.30090751538546595 1 I I #
coedge $-1 $430 $430 $-1 $591 reversed $295 $-1 #
edge $-1 $592 0 $592 6.2831853071796004 $296 $593 forward 7 unknown #
vertex $-1 $299 $594 #
ellipse-curve $-1 -41.181006121533166 -6.3113777915790656 3.7617099380739578 -0.6018150307709319 0 0.79863550430605224 0.39931775215302612 0 0.30090751538546595 1 I I #
face $-1 $-1 $315 $45 $-1 $595 reversed single #
loop $-1 $-1 $450 $300 #
plane-surface $-1 0 26.936777403305399 0 0 -1 0 0 0 -1 forward_v I I I I #
coedge $-1 $596 $448 $451 $597 forward $301 $-1 #
coedge $-1 $454 $303 $304 $442 reversed $190 $-1 #
coedge $-1 $448 $596 $303 $440 reversed $301 $-1 #
edge $-1 $455 -5.8825706272338874 $598 5.8825706272338874 $439 $599 forward 7 unknown #
coedge $-1 $305 $304 $596 $600 forward $121 $-1 #
edge $-1 $446 -43.995483260597553 $598 43.995483260597553 $438 $601 forward 7 unknown #
coedge $-1 $451 $450 $305 $444 reversed $435 $-1 #
edge $-1 $602 -43.995483260597553 $445 43.995483260597553 $443 $603 forward 7 unknown #
vertex $-1 $307 $604 #
vertex $-1 $457 $605 #
straight-curve $-1 43.995483260597553 0 -5.8825706272338874 0 -1 0 I I #
coedge $-1 $437 $439 $308 $449 reversed $301 $-1 #
edge $-1 $452 -26.936777403305399 $455 26.936777403305399 $448 $606 forward 7 unknown #
coedge $-1 $443 $309 $314 $458 forward $435 $-1 #
coedge $-1 $309 $443 $437 $597 reversed $435 $-1 #
vertex $-1 $310 $607 #
straight-curve $-1 0 26.936777403305399 5.8825706272338874 -1 0 0 I I #
coedge $-1 $311 $438 $313 $457 reversed $190 $-1 #
vertex $-1 $449 $608 #
straight-curve $-1 0 -26.936777403305399 5.8825706272338874 1 0 0 I I #
edge $-1 $316 -5.8825706272338874 $446 5.8825706272338874 $313 $609 forward 7 unknown #
edge $-1 $317 -5.8825706272338874 $445 5.8825706272338874 $314 $610 forward 7 unknown #
point $-1 43.995483260597553 -26.936777403305399 5.8825706272338874 #
point $-1 43.995483260597553 26.936777403305399 5.8825706272338874 #
face $-1 $-1 $611 $46 $-1 $612 reversed single #
loop $-1 $-1 $329 $319 #
plane-surface $-1 0 -26.936777403305399 0 0 1 0 0 0 1 forward_v I I I I #
coedge $-1 $613 $322 $468 $614 forward $198 $-1 #
coedge $-1 $322 $613 $615 $616 forward $198 $-1 #
edge $-1 $617 -43.995483260597553 $469 43.995483260597553 $322 $618 forward 7 unknown #
coedge $-1 $324 $323 $619 $620 reversed $125 $-1 #
coedge $-1 $325 $331 $464 $614 reversed $320 $-1 #
vertex $-1 $614 $621 #
straight-curve $-1 43.995483260597553 -19.323567315787628 -2.1912853136169437 0 0 1 I I #
coedge $-1 $619 $622 $327 $472 forward $611 $-1 #
edge $-1 $477 -15.371691223532142 $473 -7.7584811360143711 $471 $623 forward 7 unknown #
vertex $-1 $472 $624 #
straight-curve $-1 0 -19.323567315787628 -2.8825706272338874 -1 0 0 I I #
coedge $-1 $625 $329 $622 $626 forward $462 $-1 #
coedge $-1 $329 $625 $331 $479 reversed $462 $-1 #
vertex $-1 $626 $627 #
straight-curve $-1 0 -26.936777403305399 -2.8825706272338874 -1 0 0 I I #
edge $-1 $333 2.8825706272338874 $628 5.8825706272338874 $331 $629 forward 7 unknown #
point $-1 43.995483260597553 -19.323567315787628 -2.8825706272338874 #
point $-1 43.995483260597553 -26.936777403305399 -2.8825706272338874 #
face $-1 $-1 $496 $47 $-1 $630 reversed single #
loop $-1 $-1 $488 $335 #
plane-surface $-1 -43.995483260597553 0 0 1 0 0 0 0 -1 forward_v I I I I #
coedge $-1 $631 $632 $338 $487 forward $336 $-1 #
coedge $-1 $339 $338 $346 $501 reversed $129 $-1 #
edge $-1 $633 -43.995483260597553 $490 43.995483260597553 $485 $634 forward 7 unknown #
coedge $-1 $635 $340 $342 $493 forward $483 $-1 #
coedge $-1 $340 $635 $631 $636 reversed $483 $-1 #
vertex $-1 $636 $637 #
vertex $-1 $493 $638 #
straight-curve $-1 -43.995483260597553 19.323567315787628 -2.1912853136169437 0 0 1 I I #
edge $-1 $491 7.7584811360143711 $497 15.371691223532142 $488 $639 forward 7 unknown #
coedge $-1 $640 $343 $347 $502 forward $496 $-1 #
coedge $-1 $343 $640 $635 $641 reversed $496 $-1 #
loop $-1 $-1 $343 $482 #
vertex $-1 $641 $642 #
straight-curve $-1 0 26.936777403305399 -2.8825706272338874 1 0 0 I I #
straight-curve $-1 0 19.323567315787628 -2.8825706272338874 1 0 0 I I #
coedge $-1 $347 $346 $632 $643 reversed $206 $-1 #
edge $-1 $349 0.69128531361694368 $633 3.6912853136169437 $346 $644 forward 7 unknown #
edge $-1 $348 2.8825706272338874 $645 5.8825706272338874 $347 $646 forward 7 unknown #
point $-1 43.995483260597553 26.936777403305399 -2.8825706272338874 #
point $-1 43.995483260597553 19.323567315787628 -2.8825706272338874 #
loop $-1 $-1 $359 $351 #
plane-surface $-1 43.995483260597553 0 0 -1 0 0 0 0 1 forward_v I I I I #
coedge $-1 $508 $354 $356 $512 reversed $214 $-1 #
coedge $-1 $354 $507 $647 $648 reversed $214 $-1 #
coedge $-1 $362 $357 $354 $510 forward $352 $-1 #
edge $-1 $513 7.9210513070178123 $649 10.12579412678113 $509 $650 forward 7 unknown #
coedge $-1 $356 $355 $516 $651 reversed $133 $-1 #
edge $-1 $652 -87.990966521195105 $513 -84.048243261878838 $507 $653 forward 7 unknown #
vertex $-1 $358 $654 #
straight-curve $-1 41.790740440834234 -2.9397227697661741 5.8825706272338891 0 -1 0 I I #
coedge $-1 $647 $359 $362 $520 reversed $505 $-1 #
coedge $-1 $359 $647 $511 $651 forward $505 $-1 #
vertex $-1 $360 $655 #
straight-curve $-1 43.995483260597553 -2.4491437732821524 62.382822936048271 0 0 1 I I #
straight-curve $-1 -5.2084397343129041 -2.4491437732821524 75.561722877186085 0.55919289150049634 0 -0.82903758062907751 I I #
edge $-1 $649 -9.3097473057825439 $363 -2.4491437732821524 $515 $656 forward 7 unknown #
point $-1 43.995483260597553 -2.4491437732821524 5.8825706272338874 #
point $-1 41.790740440834234 -2.4491437732821524 5.8825706272338891 #
edge $-1 $657 1 $657 0 $366 $-1 forward 7 unknown #
vertex $-1 $367 $658 #
ellipse-curve $-1 42.064074270086813 -7.9376265992824671 3.6890448597366228 0.82903758062907751 0 0.55919289150049634 0.27959644575024817 0 -0.41451879031453875 1 I I #
point $-1 43.172708296466134 -7.9376265992824671 3.8337189609225804 #
edge $-1 $659 1 $659 0 $370 $-1 forward 7 unknown #
vertex $-1 $371 $660 #
ellipse-curve $-1 42.064074270086813 -5.8794455395323482 3.6890448597366228 0.82903758062907751 0 0.55919289150049634 0.27959644575024817 0 -0.41451879031453875 1 I I #
point $-1 43.172708296466134 -5.8794455395323482 3.8337189609225804 #
edge $-1 $661 1 $661 0 $374 $-1 forward 7 unknown #
vertex $-1 $375 $662 #
ellipse-curve $-1 42.064074270086813 -3.8212644797822293 3.6890448597366228 0.82903758062907751 0 0.55919289150049634 0.27959644575024817 0 -0.41451879031453875 1 I I #
point $-1 43.172708296466134 -3.8212644797822293 3.8337189609225804 #
plane-surface $-1 0 0 5.8825706272338874 0 0 1 1 0 0 forward_v I I I I #
coedge $-1 $546 $545 $538 $663 forward $379 $-1 #
coedge $-1 $538 $381 $383 $542 reversed $243 $-1 #
coedge $-1 $381 $537 $536 $663 reversed $243 $-1 #
coedge $-1 $389 $384 $381 $540 forward $390 $-1 #
edge $-1 $543 7.9210513070178123 $664 10.12579412678113 $539 $665 forward 7 unknown #
coedge $-1 $383 $382 $546 $666 reversed $152 $-1 #
edge $-1 $667 -87.990966521195105 $543 -84.048243261878838 $537 $668 forward 7 unknown #
vertex $-1 $385 $669 #
straight-curve $-1 41.790740440834234 2.9397227697661776 5.8825706272338891 0 -1 0 I I #
coedge $-1 $536 $386 $389 $550 reversed $379 $-1 #
coedge $-1 $386 $536 $541 $666 forward $379 $-1 #
vertex $-1 $387 $670 #
straight-curve $-1 43.995483260597553 9.3097473057825511 62.382822936048271 0 0 1 I I #
straight-curve $-1 -5.2084397343129041 9.3097473057825511 75.561722877186085 0.55919289150049634 0 -0.82903758062907751 I I #
edge $-1 $664 2.4491437732821595 $391 9.3097473057825511 $545 $671 forward 7 unknown #
point $-1 43.995483260597553 9.3097473057825511 5.8825706272338874 #
point $-1 41.790740440834234 9.3097473057825511 5.8825706272338891 #
edge $-1 $672 1 $672 0 $394 $-1 forward 7 unknown #
vertex $-1 $395 $673 #
ellipse-curve $-1 42.064074270086813 3.8212644797822399 3.6890448597366228 0.82903758062907751 0 0.55919289150049634 0.27959644575024817 0 -0.41451879031453875 1 I I #
point $-1 43.172708296466134 3.8212644797822399 3.8337189609225804 #
edge $-1 $674 1 $674 0 $398 $-1 forward 7 unknown #
vertex $-1 $399 $675 #
ellipse-curve $-1 42.064074270086813 5.8794455395323553 3.6890448597366228 0.82903758062907751 0 0.55919289150049634 0.27959644575024817 0 -0.41451879031453875 1 I I #
point $-1 43.172708296466134 5.8794455395323553 3.8337189609225804 #
edge $-1 $676 1 $676 0 $402 $-1 forward 7 unknown #
vertex $-1 $403 $677 #
ellipse-curve $-1 42.064074270086813 7.9376265992824813 3.6890448597366228 0.82903758062907751 0 0.55919289150049634 0.27959644575024817 0 -0.41451879031453875 1 I I #
point $-1 43.172708296466134 7.9376265992824813 3.8337189609225804 #
plane-surface $-1 0 0 5.8825706272338874 0 0 1 1 0 0 forward_v I I I I #
coedge $-1 $576 $575 $568 $678 forward $407 $-1 #
coedge $-1 $568 $409 $411 $572 reversed $272 $-1 #
coedge $-1 $409 $567 $566 $678 reversed $272 $-1 #
coedge $-1 $417 $412 $409 $570 forward $418 $-1 #
edge $-1 $573 -10.108355760088536 $679 -4.479401481959755 $569 $680 forward 7 unknown #
coedge $-1 $411 $410 $576 $681 reversed $171 $-1 #
edge $-1 $682 -8.8817612989391469e-015 $573 7.0482144204443635 $567 $683 forward 7 unknown #
vertex $-1 $413 $684 #
straight-curve $-1 -38.366528982468779 -4.275591008545053 5.8825706272338874 0 1 0 I I #
coedge $-1 $566 $414 $417 $580 reversed $407 $-1 #
coedge $-1 $414 $566 $571 $681 forward $407 $-1 #
vertex $-1 $415 $685 #
straight-curve $-1 -43.995483260597553 -12.284189059608508 35.956779585472823 0 0 1 I I #
straight-curve $-1 -43.995483260597545 -12.284189059608508 1.6408492489140372 -0.79863550430605224 0 -0.6018150307709319 I I #
edge $-1 $679 4.8181749745717042 $419 12.284189059608508 $575 $686 forward 7 unknown #
point $-1 -43.995483260597553 -12.284189059608508 5.8825706272338874 #
point $-1 -38.366528982468772 -12.284189059608508 5.8825706272338874 #
edge $-1 $687 1 $687 0 $422 $-1 forward 7 unknown #
vertex $-1 $423 $688 #
ellipse-curve $-1 -40.579191090762237 -10.790986242601146 2.9630744337679138 -0.6018150307709319 0 0.79863550430605224 0.39931775215302612 0 0.30090751538546595 1 I I #
point $-1 -40.781688369380142 -10.790986242601146 4.0626174534594321 #
edge $-1 $689 1 $689 0 $426 $-1 forward 7 unknown #
vertex $-1 $427 $690 #
ellipse-curve $-1 -40.579191090762237 -8.5511820170901061 2.9630744337679138 -0.6018150307709319 0 0.79863550430605224 0.39931775215302612 0 0.30090751538546595 1 I I #
point $-1 -40.781688369380142 -8.5511820170901061 4.0626174534594321 #
edge $-1 $691 1 $691 0 $430 $-1 forward 7 unknown #
vertex $-1 $431 $692 #
ellipse-curve $-1 -40.579191090762237 -6.3113777915790656 2.9630744337679138 -0.6018150307709319 0 0.79863550430605224 0.39931775215302612 0 0.30090751538546595 1 I I #
point $-1 -40.781688369380142 -6.3113777915790656 4.0626174534594321 #
plane-surface $-1 43.995483260597553 0 0 -1 0 0 0 0 1 forward_v I I I I #
coedge $-1 $439 $437 $441 $600 reversed $301 $-1 #
edge $-1 $452 -5.8825706272338874 $602 5.8825706272338874 $451 $693 forward 7 unknown #
vertex $-1 $600 $694 #
straight-curve $-1 -43.995483260597553 -26.936777403305399 0 0 0 -1 I I #
edge $-1 $598 -26.936777403305399 $602 26.936777403305399 $596 $695 forward 7 unknown #
straight-curve $-1 0 -26.936777403305399 -5.8825706272338874 -1 0 0 I I #
vertex $-1 $444 $696 #
straight-curve $-1 0 26.936777403305399 -5.8825706272338874 1 0 0 I I #
point $-1 43.995483260597553 26.936777403305399 -5.8825706272338874 #
point $-1 43.995483260597553 -26.936777403305399 -5.8825706272338874 #
straight-curve $-1 -43.995483260597553 0 5.8825706272338874 0 -1 0 I I #
point $-1 -43.995483260597553 26.936777403305399 5.8825706272338874 #
point $-1 -43.995483260597553 -26.936777403305399 5.8825706272338874 #
straight-curve $-1 43.995483260597553 -26.936777403305399 0 0 0 -1 I I #
straight-curve $-1 43.995483260597553 26.936777403305399 0 0 0 -1 I I #
loop $-1 $-1 $619 $461 #
plane-surface $-1 -43.995483260597553 0 0 1 0 0 0 0 -1 forward_v I I I I #
coedge $-1 $465 $464 $625 $697 forward $198 $-1 #
edge $-1 $469 19.323567315787628 $628 26.936777403305399 $468 $698 forward 7 unknown #
coedge $-1 $622 $619 $465 $616 reversed $611 $-1 #
edge $-1 $699 -26.936777403305399 $617 -19.323567315787628 $615 $700 forward 7 unknown #
vertex $-1 $620 $701 #
straight-curve $-1 0 -19.323567315787628 -5.8825706272338874 1 0 0 I I #
coedge $-1 $615 $471 $467 $620 forward $611 $-1 #
edge $-1 $473 0.69128531361694368 $617 3.6912853136169437 $619 $702 forward 7 unknown #
point $-1 43.995483260597553 -19.323567315787628 -5.8825706272338874 #
coedge $-1 $471 $615 $475 $626 reversed $611 $-1 #
straight-curve $-1 -43.995483260597553 -11.565086179773257 -2.8825706272338874 0 1 0 I I #
point $-1 -43.995483260597553 -19.323567315787628 -2.8825706272338874 #
coedge $-1 $476 $475 $613 $697 reversed $462 $-1 #
edge $-1 $477 2.8825706272338874 $699 5.8825706272338874 $622 $703 forward 7 unknown #
point $-1 -43.995483260597553 -26.936777403305399 -2.8825706272338874 #
vertex $-1 $479 $704 #
straight-curve $-1 43.995483260597553 -26.936777403305399 0 0 0 -1 I I #
plane-surface $-1 0 26.936777403305399 0 0 -1 0 0 0 -1 forward_v I I I I #
coedge $-1 $705 $485 $489 $636 forward $336 $-1 #
coedge $-1 $485 $705 $500 $643 forward $336 $-1 #
vertex $-1 $487 $706 #
straight-curve $-1 0 19.323567315787628 -5.8825706272338874 -1 0 0 I I #
coedge $-1 $489 $488 $495 $641 forward $483 $-1 #
edge $-1 $490 19.323567315787628 $707 26.936777403305399 $489 $708 forward 7 unknown #
point $-1 -43.995483260597553 19.323567315787628 -5.8825706272338874 #
point $-1 -43.995483260597553 19.323567315787628 -2.8825706272338874 #
straight-curve $-1 -43.995483260597553 11.565086179773257 -2.8825706272338874 0 1 0 I I #
coedge $-1 $495 $494 $705 $709 reversed $496 $-1 #
edge $-1 $497 2.8825706272338874 $707 5.8825706272338874 $495 $710 forward 7 unknown #
point $-1 -43.995483260597553 26.936777403305399 -2.8825706272338874 #
edge $-1 $645 -26.936777403305399 $633 -19.323567315787628 $500 $711 forward 7 unknown #
straight-curve $-1 43.995483260597553 19.323567315787628 -2.1912853136169437 0 0 -1 I I #
vertex $-1 $643 $712 #
straight-curve $-1 43.995483260597553 26.936777403305399 0 0 0 -1 I I #
coedge $-1 $516 $515 $508 $648 forward $505 $-1 #
edge $-1 $649 56.500252308814382 $652 59.768918060807934 $647 $713 forward 7 unknown #
vertex $-1 $520 $714 #
straight-curve $-1 33.869689133816422 -9.3097473057825439 5.8825706272338891 1 0 0 I I #
edge $-1 $652 -6.3700245360163699 $517 0.4905789964840217 $516 $715 forward 7 unknown #
vertex $-1 $651 $716 #
straight-curve $-1 -5.2084397343129041 -9.3097473057825439 75.561722877186085 -0.55919289150049634 0 0.82903758062907751 I I #
point $-1 41.790740440834234 -9.3097473057825439 5.8825706272338891 #
point $-1 43.995483260597553 -2.4491437732821524 2.6139048752403369 #
straight-curve $-1 43.995483260597553 0 5.8825706272338874 0 1 0 I I #
vertex $-1 $523 $717 #
point $-1 42.343670715837057 -7.9376265992824671 3.2745260694220839 #
vertex $-1 $527 $718 #
point $-1 42.343670715837057 -5.8794455395323482 3.2745260694220839 #
vertex $-1 $531 $719 #
point $-1 42.343670715837057 -3.8212644797822293 3.2745260694220839 #
edge $-1 $664 56.500252308814382 $667 59.768918060807934 $536 $720 forward 7 unknown #
vertex $-1 $550 $721 #
straight-curve $-1 33.869689133816422 2.4491437732821595 5.8825706272338891 1 0 0 I I #
edge $-1 $667 -0.49057899648401815 $547 6.3700245360163734 $546 $722 forward 7 unknown #
vertex $-1 $666 $723 #
straight-curve $-1 -5.2084397343129041 2.4491437732821595 75.561722877186085 -0.55919289150049634 0 0.82903758062907751 I I #
point $-1 41.790740440834234 2.4491437732821595 5.8825706272338891 #
point $-1 43.995483260597553 9.3097473057825511 2.6139048752403369 #
straight-curve $-1 43.995483260597553 0 5.8825706272338874 0 1 0 I I #
vertex $-1 $553 $724 #
point $-1 42.343670715837057 3.8212644797822399 3.2745260694220839 #
vertex $-1 $557 $725 #
point $-1 42.343670715837057 5.8794455395323553 3.2745260694220839 #
vertex $-1 $561 $726 #
point $-1 42.343670715837057 7.9376265992824813 3.2745260694220839 #
edge $-1 $679 30.074208958238934 $682 34.315930336558793 $566 $727 forward 7 unknown #
vertex $-1 $580 $728 #
straight-curve $-1 -48.474884742557308 -4.8181749745717042 5.8825706272338891 -1 0 0 I I #
edge $-1 $682 0.54258396602665115 $577 8.0085980510634549 $576 $729 forward 7 unknown #
vertex $-1 $681 $730 #
straight-curve $-1 -43.995483260597545 -4.8181749745717042 1.6408492489140372 0.79863550430605224 0 0.6018150307709319 I I #
point $-1 -38.366528982468772 -4.8181749745717042 5.8825706272338874 #
point $-1 -43.995483260597553 -12.284189059608508 1.6408492489140318 #
straight-curve $-1 -43.995483260597553 0 5.8825706272338874 0 -1 0 I I #
vertex $-1 $583 $731 #
point $-1 -40.179873338609212 -10.790986242601146 3.2639819491533797 #
vertex $-1 $587 $732 #
point $-1 -40.179873338609212 -8.5511820170901061 3.2639819491533797 #
vertex $-1 $591 $733 #
point $-1 -40.179873338609212 -6.3113777915790656 3.2639819491533797 #
straight-curve $-1 -43.995483260597553 26.936777403305399 0 0 0 -1 I I #
point $-1 -43.995483260597553 -26.936777403305399 -5.8825706272338874 #
straight-curve $-1 -43.995483260597553 0 -5.8825706272338874 0 1 0 I I #
point $-1 -43.995483260597553 26.936777403305399 -5.8825706272338874 #
edge $-1 $628 -43.995483260597553 $699 43.995483260597553 $625 $734 forward 7 unknown #
straight-curve $-1 43.995483260597553 0 -5.8825706272338874 0 -1 0 I I #
vertex $-1 $616 $735 #
straight-curve $-1 -43.995483260597553 0 -5.8825706272338874 0 1 0 I I #
point $-1 -43.995483260597553 -19.323567315787628 -5.8825706272338874 #
straight-curve $-1 -43.995483260597553 -19.323567315787628 -2.1912853136169437 0 0 -1 I I #
straight-curve $-1 -43.995483260597553 -26.936777403305399 0 0 0 -1 I I #
point $-1 43.995483260597553 -26.936777403305399 -5.8825706272338874 #
coedge $-1 $632 $631 $640 $709 forward $336 $-1 #
point $-1 43.995483260597553 19.323567315787628 -5.8825706272338874 #
vertex $-1 $709 $736 #
straight-curve $-1 -43.995483260597553 0 -5.8825706272338874 0 1 0 I I #
edge $-1 $707 -43.995483260597553 $645 43.995483260597553 $640 $737 forward 7 unknown #
straight-curve $-1 -43.995483260597553 26.936777403305399 0 0 0 -1 I I #
straight-curve $-1 43.995483260597553 0 -5.8825706272338874 0 -1 0 I I #
point $-1 43.995483260597553 26.936777403305399 -5.8825706272338874 #
straight-curve $-1 43.995483260597553 -9.3097473057825439 62.382822936048271 0 0 -1 I I #
point $-1 43.995483260597553 -9.3097473057825439 5.8825706272338874 #
straight-curve $-1 43.995483260597553 -2.9397227697661741 2.6139048752403369 0 1 0 I I #
point $-1 43.995483260597553 -9.3097473057825439 2.6139048752403369 #
point $-1 41.649555479772268 -7.9376265992824671 3.4094484139863748 #
point $-1 41.649555479772268 -5.8794455395323482 3.4094484139863748 #
point $-1 41.649555479772268 -3.8212644797822293 3.4094484139863748 #
straight-curve $-1 43.995483260597553 2.4491437732821595 62.382822936048271 0 0 -1 I I #
point $-1 43.995483260597553 2.4491437732821595 5.8825706272338874 #
straight-curve $-1 43.995483260597553 2.9397227697661776 2.6139048752403369 0 1 0 I I #
point $-1 43.995483260597553 2.4491437732821595 2.6139048752403369 #
point $-1 41.649555479772268 3.8212644797822399 3.4094484139863748 #
point $-1 41.649555479772268 5.8794455395323553 3.4094484139863748 #
point $-1 41.649555479772268 7.9376265992824813 3.4094484139863748 #
straight-curve $-1 -43.995483260597553 -4.8181749745717042 35.956779585472823 0 0 -1 I I #
point $-1 -43.995483260597553 -4.8181749745717042 5.8825706272338874 #
straight-curve $-1 -43.995483260597553 -4.275591008545053 1.6408492489140369 0 -1 0 I I #
point $-1 -43.995483260597553 -4.8181749745717042 1.6408492489140318 #
point $-1 -40.278283575376776 -10.790986242601146 2.5637566816148878 #
point $-1 -40.278283575376776 -8.5511820170901061 2.5637566816148878 #
point $-1 -40.278283575376776 -6.3113777915790656 2.5637566816148878 #
straight-curve $-1 0 -26.936777403305399 -5.8825706272338874 -1 0 0 I I #
point $-1 -43.995483260597553 -26.936777403305399 -5.8825706272338874 #
point $-1 -43.995483260597553 26.936777403305399 -5.8825706272338874 #
straight-curve $-1 0 26.936777403305399 -5.8825706272338874 1 0 0 I I #
End-of-ACIS-data 