500 0 8 0           
7 Unknown 11 ACIS 5.0 NT 24 Thu Mar 25 16:18:20 1999 
-1 9.9999999999999995e-007 1e-010 
body $-1 $8 $-1 $9 #
body $-1 $10 $-1 $11 #
body $-1 $12 $-1 $13 #
body $-1 $14 $-1 $15 #
body $-1 $16 $-1 $17 #
body $-1 $18 $-1 $19 #
body $-1 $20 $-1 $21 #
body $-1 $22 $-1 $23 #
lump $-1 $-1 $24 $0 #
transform $-1 1 0 0 0 1 0 0 0 1 55.592516861476483 30.059523834748664 6.325095520976137 1 rotate no_reflect no_shear #
lump $-1 $-1 $25 $1 #
transform $-1 1 0 0 0 1 0 0 0 1 55.592516861476483 30.059523834748664 6.325095520976137 1 rotate no_reflect no_shear #
lump $-1 $-1 $26 $2 #
transform $-1 1 0 0 0 1 0 0 0 1 55.592516861476483 30.059523834748664 6.325095520976137 1 rotate no_reflect no_shear #
lump $-1 $-1 $27 $3 #
transform $-1 1 0 0 0 1 0 0 0 1 55.592516861476483 30.059523834748664 6.325095520976137 1 rotate no_reflect no_shear #
lump $-1 $-1 $28 $4 #
transform $-1 1 0 0 0 1 0 0 0 1 55.592516861476483 30.059523834748664 6.325095520976137 1 rotate no_reflect no_shear #
lump $-1 $-1 $29 $5 #
transform $-1 1 0 0 0 1 0 0 0 1 55.592516861476483 30.059523834748664 6.325095520976137 1 rotate no_reflect no_shear #
lump $-1 $-1 $30 $6 #
transform $-1 1 0 0 0 1 0 0 0 1 55.592516861476483 30.059523834748664 6.325095520976137 1 rotate no_reflect no_shear #
lump $-1 $-1 $31 $7 #
transform $-1 1 0 0 0 1 0 0 0 1 55.592516861476483 30.059523834748664 6.325095520976137 1 rotate no_reflect no_shear #
shell $-1 $-1 $-1 $32 $-1 $8 #
shell $-1 $-1 $-1 $33 $-1 $10 #
shell $-1 $-1 $-1 $34 $-1 $12 #
shell $-1 $-1 $-1 $35 $-1 $14 #
shell $-1 $-1 $-1 $36 $-1 $16 #
shell $-1 $-1 $-1 $37 $-1 $18 #
shell $-1 $-1 $-1 $38 $-1 $20 #
shell $-1 $-1 $-1 $39 $-1 $22 #
face $-1 $40 $41 $24 $-1 $42 forward single #
face $-1 $43 $44 $25 $-1 $45 reversed single #
face $-1 $46 $47 $26 $-1 $48 reversed single #
face $-1 $49 $50 $27 $-1 $51 forward single #
face $-1 $52 $53 $28 $-1 $54 forward single #
face $-1 $55 $56 $29 $-1 $57 reversed single #
face $-1 $58 $59 $30 $-1 $60 forward single #
face $-1 $61 $62 $31 $-1 $63 forward single #
face $-1 $64 $65 $24 $-1 $66 reversed single #
loop $-1 $-1 $67 $32 #
plane-surface $-1 0 0 6.325095520976137 0 0 1 1 0 0 forward_v I I I I #
face $-1 $68 $69 $25 $-1 $70 reversed single #
loop $-1 $-1 $71 $33 #
plane-surface $-1 -49.93705195536333 -25.992041702747152 0 1 0 0 0 0 -1 forward_v I I I I #
face $-1 $72 $73 $26 $-1 $74 reversed single #
loop $-1 $-1 $75 $34 #
plane-surface $-1 20.221353219934414 0.11273011254955101 155.84815457202643 0 -1 0 -0.52991927123019833 0 -0.84804809178421925 forward_v I I I I #
face $-1 $76 $77 $27 $-1 $78 forward single #
loop $-1 $79 $80 $35 #
cone-surface $-1 51.644380643684499 -10.372027722349461 2.8840351945811564 -0.52991927123019833 0 -0.84804809178421925 0.84804809178421925 0 -0.52991927123019833 1 I I 0 1 1 forward I I I I #
face $-1 $81 $82 $28 $-1 $83 forward single #
loop $-1 $84 $85 $36 #
cone-surface $-1 51.644380643684499 -4.0811730214100521 2.8840351945811564 -0.52991927123019833 0 -0.84804809178421925 0.84804809178421925 0 -0.52991927123019833 1 I I 0 1 1 forward I I I I #
face $-1 $86 $87 $29 $-1 $88 reversed single #
loop $-1 $-1 $89 $37 #
plane-surface $-1 -134.21220908562051 14.951895715563889 81.305278124081099 0 1 0 -0.70710678939079041 0 0.70710677298230451 forward_v I I I I #
face $-1 $90 $91 $30 $-1 $92 forward single #
loop $-1 $93 $94 $38 #
cone-surface $-1 -53.221397959170524 17.138310224910501 3.95397658923708 0.70710678939079041 0 -0.70710677298230451 0.70710677298230451 0 0.70710678939079041 1 I I 0 1 1 forward I I I I #
face $-1 $95 $96 $31 $-1 $97 forward single #
loop $-1 $98 $99 $39 #
cone-surface $-1 -53.221397959170524 20.417931988930416 3.95397658923708 0.70710678939079041 0 -0.70710677298230451 0.70710677298230451 0 0.70710678939079041 1 I I 0 1 1 forward I I I I #
face $-1 $100 $101 $24 $-1 $102 reversed single #
loop $-1 $-1 $103 $40 #
plane-surface $-1 0 0 -6.325095520976137 0 0 1 1 0 0 forward_v I I I I #
coedge $-1 $104 $105 $106 $107 forward $41 $-1 #
face $-1 $108 $109 $25 $-1 $110 reversed single #
loop $-1 $-1 $111 $43 #
plane-surface $-1 -48.43705195536333 -21.924559570745643 0 0 -1 0 0 0 -1 forward_v I I I I #
coedge $-1 $112 $113 $114 $115 forward $44 $-1 #
face $-1 $116 $117 $26 $-1 $118 reversed single #
loop $-1 $-1 $119 $46 #
plane-surface $-1 -38.697738822237845 -7.2266003718797585 61.557898888312096 0.52991927123019833 0 0.84804809178421925 0.84804809178421925 0 -0.52991927123019833 forward_v I I I I #
coedge $-1 $120 $121 $122 $123 reversed $47 $-1 #
face $-1 $-1 $124 $27 $-1 $125 forward single #
loop $-1 $126 $127 $49 #
cone-surface $-1 50.380932261300146 -10.372027722349461 0.86209515971222306 -0.52991927123019833 0 -0.84804809178421925 0.42402404589210962 0 -0.26495963561509916 1 I I -0.70710678118654746 0.70710678118654746 0.5 forward I I I I #
loop $-1 $-1 $128 $35 #
coedge $-1 $80 $80 $129 $130 reversed $50 $-1 #
face $-1 $-1 $131 $28 $-1 $132 forward single #
loop $-1 $133 $134 $52 #
cone-surface $-1 50.380932261300146 -4.0811730214100521 0.86209515971222306 -0.52991927123019833 0 -0.84804809178421925 0.42402404589210962 0 -0.26495963561509916 1 I I -0.70710678118654746 0.70710678118654746 0.5 forward I I I I #
loop $-1 $-1 $135 $36 #
coedge $-1 $85 $85 $136 $137 reversed $53 $-1 #
face $-1 $138 $139 $29 $-1 $140 reversed single #
loop $-1 $-1 $141 $55 #
plane-surface $-1 -55.592516861476483 18.778121106920455 2.6855877243151269 -0.70710678939079041 0 0.70710677298230451 0.70710677298230451 0 0.70710678939079041 forward_v I I I I #
coedge $-1 $142 $143 $144 $145 reversed $56 $-1 #
face $-1 $-1 $146 $30 $-1 $147 forward single #
loop $-1 $148 $149 $58 #
cone-surface $-1 -52.316479518272097 17.138310224910501 3.0490581693373793 0.70710678939079041 0 -0.70710677298230451 0.35355338649115226 0 0.35355339469539521 1 I I -0.70710678118654746 0.70710678118654746 0.5 forward I I I I #
loop $-1 $-1 $150 $38 #
coedge $-1 $94 $94 $151 $152 reversed $59 $-1 #
face $-1 $-1 $153 $31 $-1 $154 forward single #
loop $-1 $155 $156 $61 #
cone-surface $-1 -52.316479518272097 20.417931988930416 3.0490581693373793 0.70710678939079041 0 -0.70710677298230451 0.35355338649115226 0 0.35355339469539521 1 I I -0.70710678118654746 0.70710678118654746 0.5 forward I I I I #
loop $-1 $-1 $157 $39 #
coedge $-1 $99 $99 $158 $159 reversed $62 $-1 #
face $-1 $160 $161 $24 $-1 $162 reversed single #
loop $-1 $-1 $163 $64 #
plane-surface $-1 0 -30.059523834748664 0 0 1 0 0 0 1 forward_v I I I I #
coedge $-1 $164 $165 $166 $167 forward $65 $-1 #
coedge $-1 $168 $67 $169 $170 forward $41 $-1 #
coedge $-1 $67 $168 $171 $172 forward $41 $-1 #
coedge $-1 $173 $174 $67 $107 reversed $175 $-1 #
edge $-1 $176 -30.059523834748664 $177 30.059523834748664 $106 $178 forward 7 unknown #
face $-1 $179 $180 $25 $-1 $181 forward single #
loop $-1 $-1 $182 $68 #
plane-surface $-1 -46.93705195536333 -25.992041702747152 0 -1 0 0 0 0 1 forward_v I I I I #
coedge $-1 $183 $184 $185 $186 forward $69 $-1 #
coedge $-1 $187 $71 $188 $189 reversed $44 $-1 #
coedge $-1 $71 $187 $190 $191 reversed $44 $-1 #
coedge $-1 $184 $183 $71 $115 reversed $69 $-1 #
edge $-1 $192 -6.325095520976137 $193 6.325095520976137 $114 $194 forward 7 unknown #
face $-1 $195 $196 $26 $-1 $197 reversed single #
loop $-1 $-1 $198 $72 #
plane-surface $-1 20.221353219934414 -14.565930856309068 155.84815457202643 0 1 0 0.52991927123019833 0 0.84804809178421925 forward_v I I I I #
coedge $-1 $199 $200 $201 $202 reversed $73 $-1 #
coedge $-1 $121 $75 $203 $204 reversed $47 $-1 #
coedge $-1 $75 $120 $199 $205 reversed $47 $-1 #
coedge $-1 $201 $206 $75 $123 forward $207 $-1 #
edge $-1 $208 -45.481840251509276 $209 -39.582545309463868 $122 $210 forward 7 unknown #
loop $-1 $-1 $129 $76 #
plane-surface $-1 -38.697738822237845 -7.2266003718797585 61.557898888312096 0.52991927123019833 0 0.84804809178421925 0.84804809178421925 0 -0.52991927123019833 forward_v I I I I #
loop $-1 $-1 $211 $49 #
coedge $-1 $127 $127 $128 $212 reversed $77 $-1 #
coedge $-1 $128 $128 $127 $212 forward $79 $-1 #
coedge $-1 $129 $129 $80 $130 forward $124 $-1 #
edge $-1 $213 0 $213 6.2831853071796004 $129 $214 forward 7 unknown #
loop $-1 $-1 $136 $81 #
plane-surface $-1 -38.697738822237845 -7.2266003718797585 61.557898888312096 0.52991927123019833 0 0.84804809178421925 0.84804809178421925 0 -0.52991927123019833 forward_v I I I I #
loop $-1 $-1 $215 $52 #
coedge $-1 $134 $134 $135 $216 reversed $82 $-1 #
coedge $-1 $135 $135 $134 $216 forward $84 $-1 #
coedge $-1 $136 $136 $85 $137 forward $131 $-1 #
edge $-1 $217 0 $217 6.2831853071796004 $136 $218 forward 7 unknown #
face $-1 $219 $220 $29 $-1 $221 reversed single #
loop $-1 $-1 $222 $86 #
plane-surface $-1 -134.21220908562051 22.604346498277021 81.305278124081099 0 -1 0 0.70710678939079041 0 -0.70710677298230451 forward_v I I I I #
coedge $-1 $223 $224 $225 $226 reversed $87 $-1 #
coedge $-1 $143 $89 $227 $228 reversed $56 $-1 #
coedge $-1 $89 $142 $223 $229 reversed $56 $-1 #
coedge $-1 $225 $230 $89 $145 forward $231 $-1 #
edge $-1 $232 11.513587681333775 $233 15.15309539353963 $144 $234 forward 7 unknown #
loop $-1 $-1 $151 $90 #
plane-surface $-1 -55.592516861476483 18.778121106920455 2.6855877243151269 -0.70710678939079041 0 0.70710677298230451 0.70710677298230451 0 0.70710678939079041 forward_v I I I I #
loop $-1 $-1 $235 $58 #
coedge $-1 $149 $149 $150 $236 reversed $91 $-1 #
coedge $-1 $150 $150 $149 $236 forward $93 $-1 #
coedge $-1 $151 $151 $94 $152 forward $146 $-1 #
edge $-1 $237 0 $237 6.2831853071796004 $151 $238 forward 7 unknown #
loop $-1 $-1 $158 $95 #
plane-surface $-1 -55.592516861476483 18.778121106920455 2.6855877243151269 -0.70710678939079041 0 0.70710677298230451 0.70710677298230451 0 0.70710678939079041 forward_v I I I I #
loop $-1 $-1 $239 $61 #
coedge $-1 $156 $156 $157 $240 reversed $96 $-1 #
coedge $-1 $157 $157 $156 $240 forward $98 $-1 #
coedge $-1 $158 $158 $99 $159 forward $153 $-1 #
edge $-1 $241 0 $241 6.2831853071796004 $158 $242 forward 7 unknown #
face $-1 $243 $244 $24 $-1 $245 reversed single #
loop $-1 $-1 $246 $100 #
plane-surface $-1 -55.592516861476483 0 0 1 0 0 0 0 -1 forward_v I I I I #
coedge $-1 $247 $171 $248 $249 forward $101 $-1 #
coedge $-1 $250 $103 $247 $251 forward $65 $-1 #
coedge $-1 $103 $250 $252 $253 forward $65 $-1 #
coedge $-1 $174 $173 $103 $167 reversed $175 $-1 #
edge $-1 $254 -30.059523834748664 $255 30.059523834748664 $166 $256 forward 7 unknown #
coedge $-1 $105 $104 $257 $258 forward $41 $-1 #
coedge $-1 $259 $260 $104 $170 reversed $244 $-1 #
edge $-1 $177 -55.592516861476483 $261 55.592516861476483 $169 $262 forward 7 unknown #
coedge $-1 $163 $263 $105 $172 reversed $101 $-1 #
edge $-1 $264 -55.592516861476483 $176 55.592516861476483 $171 $265 forward 7 unknown #
coedge $-1 $166 $106 $263 $266 forward $175 $-1 #
coedge $-1 $106 $166 $259 $267 reversed $175 $-1 #
loop $-1 $-1 $173 $243 #
vertex $-1 $107 $268 #
vertex $-1 $107 $269 #
straight-curve $-1 55.592516861476483 0 6.325095520976137 0 1 0 I I #
face $-1 $270 $271 $25 $-1 $272 reversed single #
loop $-1 $-1 $273 $108 #
plane-surface $-1 0 0 6.325095520976137 0 0 1 1 0 0 forward_v I I I I #
coedge $-1 $274 $275 $276 $277 reversed $109 $-1 #
coedge $-1 $114 $111 $278 $279 reversed $69 $-1 #
coedge $-1 $111 $114 $280 $281 reversed $69 $-1 #
coedge $-1 $275 $274 $111 $186 reversed $109 $-1 #
edge $-1 $282 -6.325095520976137 $283 6.325095520976137 $185 $284 forward 7 unknown #
coedge $-1 $113 $112 $285 $286 reversed $44 $-1 #
coedge $-1 $278 $287 $112 $189 forward $271 $-1 #
edge $-1 $288 -17.063502983375084 $193 -8.9285387193720673 $188 $289 forward 7 unknown #
coedge $-1 $290 $280 $113 $191 forward $180 $-1 #
edge $-1 $192 8.9285387193720673 $291 17.063502983375084 $190 $292 forward 7 unknown #
vertex $-1 $191 $293 #
vertex $-1 $189 $294 #
straight-curve $-1 -49.93705195536333 -21.924559570745643 0 0 0 -1 I I #
face $-1 $-1 $207 $26 $-1 $295 forward single #
loop $-1 $-1 $296 $116 #
plane-surface $-1 55.592516861476483 0 0 -1 0 0 0 0 1 forward_v I I I I #
coedge $-1 $297 $298 $299 $300 reversed $117 $-1 #
coedge $-1 $301 $119 $121 $205 forward $73 $-1 #
coedge $-1 $119 $301 $297 $302 forward $73 $-1 #
coedge $-1 $299 $122 $119 $202 forward $207 $-1 #
edge $-1 $209 -3.7260302984894302 $303 10.952630670369189 $201 $304 forward 7 unknown #
coedge $-1 $305 $306 $120 $204 forward $196 $-1 #
edge $-1 $307 -75.285270439873372 $208 -71.598981765037081 $203 $308 forward 7 unknown #
edge $-1 $209 104.22871249636567 $307 111.18503372295295 $121 $309 forward 7 unknown #
coedge $-1 $122 $299 $305 $310 forward $207 $-1 #
loop $-1 $-1 $299 $195 #
vertex $-1 $204 $311 #
vertex $-1 $123 $312 #
straight-curve $-1 10.110676609967207 0.11273011254955101 6.3250955209761344 -1 0 0 I I #
coedge $-1 $211 $211 $-1 $313 reversed $126 $-1 #
edge $-1 $314 0 $314 6.2831853071796004 $127 $315 forward 7 unknown #
vertex $-1 $130 $316 #
ellipse-curve $-1 52.642869390453761 -10.372027722349461 4.481951183557995 0.52991927123019833 0 0.84804809178421925 0.84804809178421925 0 -0.52991927123019833 1 I I #
coedge $-1 $215 $215 $-1 $317 reversed $133 $-1 #
edge $-1 $318 0 $318 6.2831853071796004 $134 $319 forward 7 unknown #
vertex $-1 $137 $320 #
ellipse-curve $-1 52.642869390453761 -4.0811730214100521 4.481951183557995 0.52991927123019833 0 0.84804809178421925 0.84804809178421925 0 -0.52991927123019833 1 I I #
face $-1 $-1 $231 $29 $-1 $321 forward single #
loop $-1 $-1 $322 $138 #
plane-surface $-1 -55.592516861476483 0 0 1 0 0 0 0 -1 forward_v I I I I #
coedge $-1 $323 $324 $325 $326 reversed $139 $-1 #
coedge $-1 $327 $141 $143 $229 forward $87 $-1 #
coedge $-1 $141 $327 $323 $328 forward $87 $-1 #
coedge $-1 $325 $144 $141 $226 forward $231 $-1 #
edge $-1 $233 5.5628351621036618 $329 13.215285944816793 $225 $330 forward 7 unknown #
coedge $-1 $331 $332 $142 $228 forward $220 $-1 #
edge $-1 $333 -37.967051337725422 $232 -34.327543541064415 $227 $334 forward 7 unknown #
edge $-1 $233 -5.14704122668181 $333 0 $143 $335 forward 7 unknown #
coedge $-1 $144 $325 $331 $336 forward $231 $-1 #
loop $-1 $-1 $325 $219 #
vertex $-1 $228 $337 #
vertex $-1 $145 $338 #
straight-curve $-1 -67.106104542810257 14.951895715563889 6.3250955209761344 1 0 0 I I #
coedge $-1 $235 $235 $-1 $339 reversed $148 $-1 #
edge $-1 $340 0 $340 6.2831853071796004 $149 $341 forward 7 unknown #
vertex $-1 $152 $342 #
ellipse-curve $-1 -53.772763005373555 17.138310224910501 4.5053416226456298 -0.70710678939079041 0 0.70710677298230451 0.70710677298230451 0 0.70710678939079041 1 I I #
coedge $-1 $239 $239 $-1 $343 reversed $155 $-1 #
edge $-1 $344 0 $344 6.2831853071796004 $156 $345 forward 7 unknown #
vertex $-1 $159 $346 #
ellipse-curve $-1 -53.772763005373555 20.417931988930416 4.5053416226456298 -0.70710678939079041 0 0.70710677298230451 0.70710677298230451 0 0.70710678939079041 1 I I #
face $-1 $-1 $175 $24 $-1 $347 reversed single #
loop $-1 $-1 $259 $160 #
plane-surface $-1 0 30.059523834748664 0 0 -1 0 0 0 -1 forward_v I I I I #
coedge $-1 $348 $257 $260 $349 forward $161 $-1 #
coedge $-1 $263 $163 $164 $251 reversed $101 $-1 #
coedge $-1 $257 $348 $163 $249 reversed $161 $-1 #
edge $-1 $264 -6.325095520976137 $350 6.325095520976137 $248 $351 forward 7 unknown #
coedge $-1 $165 $164 $348 $352 forward $65 $-1 #
edge $-1 $255 -55.592516861476483 $350 55.592516861476483 $247 $353 forward 7 unknown #
coedge $-1 $260 $259 $165 $253 reversed $244 $-1 #
edge $-1 $354 -55.592516861476483 $254 55.592516861476483 $252 $355 forward 7 unknown #
vertex $-1 $167 $356 #
vertex $-1 $266 $357 #
straight-curve $-1 55.592516861476483 0 -6.325095520976137 0 -1 0 I I #
coedge $-1 $246 $248 $168 $258 reversed $161 $-1 #
edge $-1 $261 -30.059523834748664 $264 30.059523834748664 $257 $358 forward 7 unknown #
coedge $-1 $252 $169 $174 $267 forward $244 $-1 #
coedge $-1 $169 $252 $246 $349 reversed $244 $-1 #
vertex $-1 $170 $359 #
straight-curve $-1 0 30.059523834748664 6.325095520976137 -1 0 0 I I #
coedge $-1 $171 $247 $173 $266 reversed $101 $-1 #
vertex $-1 $258 $360 #
straight-curve $-1 0 -30.059523834748664 6.325095520976137 1 0 0 I I #
edge $-1 $176 -6.325095520976137 $255 6.325095520976137 $173 $361 forward 7 unknown #
edge $-1 $177 -6.325095520976137 $254 6.325095520976137 $174 $362 forward 7 unknown #
point $-1 55.592516861476483 -30.059523834748664 6.325095520976137 #
point $-1 55.592516861476483 30.059523834748664 6.325095520976137 #
face $-1 $-1 $363 $25 $-1 $364 reversed single #
loop $-1 $-1 $365 $179 #
plane-surface $-1 0 0 -6.325095520976137 0 0 1 1 0 0 forward_v I I I I #
coedge $-1 $280 $290 $275 $366 forward $180 $-1 #
coedge $-1 $185 $182 $365 $367 reversed $109 $-1 #
coedge $-1 $182 $185 $273 $366 reversed $109 $-1 #
coedge $-1 $368 $369 $182 $277 forward $363 $-1 #
edge $-1 $370 -6.325095520976137 $371 6.325095520976137 $276 $372 forward 7 unknown #
coedge $-1 $365 $188 $183 $279 forward $271 $-1 #
edge $-1 $193 -25.718525977681665 $283 -22.718525977681665 $278 $373 forward 7 unknown #
coedge $-1 $190 $273 $184 $281 forward $180 $-1 #
edge $-1 $282 22.718525977681665 $192 25.718525977681665 $280 $374 forward 7 unknown #
vertex $-1 $281 $375 #
vertex $-1 $279 $376 #
straight-curve $-1 -46.93705195536333 -21.924559570745643 0 0 0 -1 I I #
coedge $-1 $369 $368 $187 $286 forward $363 $-1 #
edge $-1 $291 -6.325095520976137 $288 6.325095520976137 $285 $377 forward 7 unknown #
coedge $-1 $188 $365 $369 $378 forward $271 $-1 #
vertex $-1 $189 $379 #
straight-curve $-1 -49.93705195536333 -12.996020851373576 -6.325095520976137 0 1 0 I I #
coedge $-1 $273 $190 $368 $380 forward $180 $-1 #
vertex $-1 $380 $381 #
straight-curve $-1 -49.93705195536333 -12.996020851373576 6.325095520976137 0 -1 0 I I #
point $-1 -49.93705195536333 -21.924559570745643 6.325095520976137 #
point $-1 -49.93705195536333 -21.924559570745643 -6.325095520976137 #
plane-surface $-1 0 0 6.325095520976137 0 0 1 1 0 0 forward_v I I I I #
coedge $-1 $306 $305 $298 $382 forward $196 $-1 #
coedge $-1 $298 $198 $200 $302 reversed $117 $-1 #
coedge $-1 $198 $297 $296 $382 reversed $117 $-1 #
coedge $-1 $206 $201 $198 $300 forward $207 $-1 #
edge $-1 $303 39.582545309463868 $383 45.481840251509276 $299 $384 forward 7 unknown #
coedge $-1 $200 $199 $306 $385 reversed $73 $-1 #
edge $-1 $386 -111.18503372295295 $303 -104.22871249636567 $297 $387 forward 7 unknown #
vertex $-1 $202 $388 #
straight-curve $-1 49.693221919431075 -3.6133001859398792 6.3250955209761273 0 -1 0 I I #
coedge $-1 $296 $203 $206 $310 reversed $196 $-1 #
coedge $-1 $203 $296 $301 $385 forward $196 $-1 #
vertex $-1 $204 $389 #
straight-curve $-1 55.592516861476483 0.11273011254955101 77.924077286013215 0 0 1 I I #
straight-curve $-1 -38.697738822237845 0.11273011254955101 61.557898888312096 0.84804809178421925 0 -0.52991927123019833 I I #
edge $-1 $383 -14.565930856309068 $208 0.11273011254955101 $305 $390 forward 7 unknown #
point $-1 55.592516861476483 0.11273011254955101 6.325095520976137 #
point $-1 49.693221919431075 0.11273011254955101 6.3250955209761344 #
edge $-1 $391 1 $391 0 $211 $-1 forward 7 unknown #
vertex $-1 $212 $392 #
ellipse-curve $-1 50.645891896915245 -10.372027722349461 1.2861192056043327 0.52991927123019833 0 0.84804809178421925 0.84804809178421925 0 -0.52991927123019833 1 I I #
point $-1 53.490917482237968 -10.372027722349461 3.9520319123277816 #
edge $-1 $393 1 $393 0 $215 $-1 forward 7 unknown #
vertex $-1 $216 $394 #
ellipse-curve $-1 50.645891896915245 -4.0811730214100521 1.2861192056043327 0.52991927123019833 0 0.84804809178421925 0.84804809178421925 0 -0.52991927123019833 1 I I #
point $-1 53.490917482237968 -4.0811730214100521 3.9520319123277816 #
plane-surface $-1 0 0 6.325095520976137 0 0 1 1 0 0 forward_v I I I I #
coedge $-1 $332 $331 $324 $395 forward $220 $-1 #
coedge $-1 $324 $222 $224 $328 reversed $139 $-1 #
coedge $-1 $222 $323 $322 $395 reversed $139 $-1 #
coedge $-1 $230 $225 $222 $326 forward $231 $-1 #
edge $-1 $329 -15.15309539353963 $396 -11.513587681333775 $325 $397 forward 7 unknown #
coedge $-1 $224 $223 $332 $398 reversed $87 $-1 #
edge $-1 $399 0 $329 5.14704122668181 $323 $400 forward 7 unknown #
vertex $-1 $226 $401 #
straight-curve $-1 -51.953009149270628 9.3890605534602276 6.3250955209761361 0 1 0 I I #
coedge $-1 $322 $227 $230 $336 reversed $220 $-1 #
coedge $-1 $227 $322 $327 $398 forward $220 $-1 #
vertex $-1 $228 $402 #
straight-curve $-1 -55.592516861476483 14.951895715563889 40.652639062040549 0 0 1 I I #
straight-curve $-1 -55.592516861476483 14.951895715563889 2.6855877243151269 -0.70710677298230451 0 -0.70710678939079041 I I #
edge $-1 $396 -22.604346498277021 $232 -14.951895715563889 $331 $403 forward 7 unknown #
point $-1 -55.592516861476483 14.951895715563889 6.325095520976137 #
point $-1 -51.953009149270628 14.951895715563889 6.325095520976137 #
edge $-1 $404 1 $404 0 $235 $-1 forward 7 unknown #
vertex $-1 $236 $405 #
ellipse-curve $-1 -52.670032912967493 17.138310224910501 3.4026115558285315 -0.70710678939079041 0 0.70710677298230451 0.70710677298230451 0 0.70710678939079041 1 I I #
point $-1 -53.065656232391248 17.138310224910501 5.2124484120364176 #
edge $-1 $406 1 $406 0 $239 $-1 forward 7 unknown #
vertex $-1 $240 $407 #
ellipse-curve $-1 -52.670032912967493 20.417931988930416 3.4026115558285315 -0.70710678939079041 0 0.70710677298230451 0.70710677298230451 0 0.70710678939079041 1 I I #
point $-1 -53.065656232391248 20.417931988930416 5.2124484120364176 #
plane-surface $-1 55.592516861476483 0 0 -1 0 0 0 0 1 forward_v I I I I #
coedge $-1 $248 $246 $250 $352 reversed $161 $-1 #
edge $-1 $261 -6.325095520976137 $354 6.325095520976137 $260 $408 forward 7 unknown #
vertex $-1 $352 $409 #
straight-curve $-1 -55.592516861476483 -30.059523834748664 0 0 0 -1 I I #
edge $-1 $350 -30.059523834748664 $354 30.059523834748664 $348 $410 forward 7 unknown #
straight-curve $-1 0 -30.059523834748664 -6.325095520976137 -1 0 0 I I #
vertex $-1 $253 $411 #
straight-curve $-1 0 30.059523834748664 -6.325095520976137 1 0 0 I I #
point $-1 55.592516861476483 30.059523834748664 -6.325095520976137 #
point $-1 55.592516861476483 -30.059523834748664 -6.325095520976137 #
straight-curve $-1 -55.592516861476483 0 6.325095520976137 0 -1 0 I I #
point $-1 -55.592516861476483 30.059523834748664 6.325095520976137 #
point $-1 -55.592516861476483 -30.059523834748664 6.325095520976137 #
straight-curve $-1 55.592516861476483 -30.059523834748664 0 0 0 -1 I I #
straight-curve $-1 55.592516861476483 30.059523834748664 0 0 0 -1 I I #
loop $-1 $-1 $276 $270 #
plane-surface $-1 0 -30.059523834748664 0 0 1 0 0 0 1 forward_v I I I I #
coedge $-1 $287 $278 $274 $367 forward $271 $-1 #
edge $-1 $371 -17.063502983375084 $282 -8.9285387193720673 $273 $412 forward 7 unknown #
edge $-1 $283 8.9285387193720673 $370 17.063502983375084 $365 $413 forward 7 unknown #
coedge $-1 $285 $276 $290 $380 reversed $363 $-1 #
coedge $-1 $276 $285 $287 $378 reversed $363 $-1 #
vertex $-1 $378 $414 #
vertex $-1 $277 $415 #
straight-curve $-1 -46.93705195536333 -30.059523834748664 0 0 0 1 I I #
straight-curve $-1 -24.218525977681665 -21.924559570745643 -6.325095520976137 1 0 0 I I #
straight-curve $-1 -24.218525977681665 -21.924559570745643 6.325095520976137 -1 0 0 I I #
point $-1 -46.93705195536333 -21.924559570745643 6.325095520976137 #
point $-1 -46.93705195536333 -21.924559570745643 -6.325095520976137 #
straight-curve $-1 -49.93705195536333 -30.059523834748664 0 0 0 -1 I I #
edge $-1 $370 46.93705195536333 $288 49.93705195536333 $369 $416 forward 7 unknown #
point $-1 -49.93705195536333 -30.05952383474866 -6.325095520976137 #
edge $-1 $291 -49.93705195536333 $371 -46.93705195536333 $368 $417 forward 7 unknown #
point $-1 -49.93705195536333 -30.05952383474866 6.325095520976137 #
edge $-1 $383 71.598981765037081 $386 75.285270439873372 $296 $418 forward 7 unknown #
vertex $-1 $310 $419 #
straight-curve $-1 10.110676609967207 -14.565930856309068 6.3250955209761344 1 0 0 I I #
edge $-1 $386 -10.952630670369189 $307 3.7260302984894302 $306 $420 forward 7 unknown #
vertex $-1 $385 $421 #
straight-curve $-1 -38.697738822237845 -14.565930856309068 61.557898888312096 -0.84804809178421925 0 0.52991927123019833 I I #
point $-1 49.693221919431075 -14.565930856309068 6.3250955209761344 #
point $-1 55.592516861476476 0.11273011254955101 2.6388068461398433 #
straight-curve $-1 55.592516861476483 0 6.325095520976137 0 1 0 I I #
vertex $-1 $313 $422 #
point $-1 51.493939988699466 -10.372027722349461 0.75619993437413435 #
vertex $-1 $317 $423 #
point $-1 51.493939988699466 -4.0811730214100521 0.75619993437413435 #
edge $-1 $396 34.327543541064415 $399 37.967051337725422 $322 $424 forward 7 unknown #
vertex $-1 $336 $425 #
straight-curve $-1 -67.106104542810257 22.604346498277021 6.3250955209761344 -1 0 0 I I #
edge $-1 $399 -13.215285944816793 $333 -5.5628351621036618 $332 $426 forward 7 unknown #
vertex $-1 $398 $427 #
straight-curve $-1 -55.592516861476483 22.604346498277021 2.6855877243151269 0.70710677298230451 0 0.70710678939079041 I I #
point $-1 -51.953009149270628 22.604346498277021 6.325095520976137 #
point $-1 -55.592516861476483 14.951895715563889 2.6855877243151269 #
straight-curve $-1 -55.592516861476483 0 6.325095520976137 0 -1 0 I I #
vertex $-1 $339 $428 #
point $-1 -51.962926139985186 17.138310224910501 4.1097183452193224 #
vertex $-1 $343 $429 #
point $-1 -51.962926139985186 20.417931988930416 4.1097183452193224 #
straight-curve $-1 -55.592516861476483 30.059523834748664 0 0 0 -1 I I #
point $-1 -55.592516861476483 -30.059523834748664 -6.325095520976137 #
straight-curve $-1 -55.592516861476483 0 -6.325095520976137 0 1 0 I I #
point $-1 -55.592516861476483 30.059523834748664 -6.325095520976137 #
straight-curve $-1 -46.93705195536333 -12.996020851373576 6.325095520976137 0 1 0 I I #
straight-curve $-1 -46.93705195536333 -12.996020851373576 -6.325095520976137 0 -1 0 I I #
point $-1 -46.93705195536333 -30.05952383474866 -6.325095520976137 #
point $-1 -46.93705195536333 -30.05952383474866 6.325095520976137 #
straight-curve $-1 0 -30.059523834748664 -6.325095520976137 -1 0 0 I I #
straight-curve $-1 0 -30.059523834748664 6.325095520976137 1 0 0 I I #
straight-curve $-1 55.592516861476483 -14.565930856309068 77.924077286013215 0 0 -1 I I #
point $-1 55.592516861476483 -14.565930856309068 6.325095520976137 #
straight-curve $-1 55.59251686147649 -3.6133001859398792 2.6388068461398362 0 1 0 I I #
point $-1 55.592516861476476 -14.565930856309068 2.6388068461398433 #
point $-1 50.115972625685046 -10.372027722349461 0.43807111382011343 #
point $-1 50.115972625685046 -4.0811730214100521 0.43807111382011343 #
straight-curve $-1 -55.592516861476483 22.604346498277021 40.652639062040549 0 0 -1 I I #
point $-1 -55.592516861476483 22.604346498277021 6.325095520976137 #
straight-curve $-1 -55.592516861476483 9.3890605534602276 2.6855877243151269 0 -1 0 I I #
point $-1 -55.592516861476483 22.604346498277021 2.6855877243151269 #
point $-1 -51.9629261235767 17.138310224910501 2.6955047828462271 #
point $-1 -51.9629261235767 20.417931988930416 2.6955047828462271 #
End-of-ACIS-data 