500 0 18 0           
7 Unknown 11 ACIS 5.0 NT 24 Fri Mar 26 02:35:29 1999 
-1 9.9999999999999995e-007 1e-010 
body $-1 $18 $-1 $19 #
body $-1 $20 $-1 $21 #
body $-1 $22 $-1 $23 #
body $-1 $24 $-1 $25 #
body $-1 $26 $-1 $27 #
body $-1 $28 $-1 $29 #
body $-1 $30 $-1 $31 #
body $-1 $32 $-1 $33 #
body $-1 $34 $-1 $35 #
body $-1 $36 $-1 $37 #
body $-1 $38 $-1 $39 #
body $-1 $40 $-1 $41 #
body $-1 $42 $-1 $43 #
body $-1 $44 $-1 $45 #
body $-1 $46 $-1 $47 #
body $-1 $48 $-1 $49 #
body $-1 $50 $-1 $51 #
body $-1 $52 $-1 $53 #
lump $-1 $-1 $54 $0 #
transform $-1 1 0 0 0 1 0 0 0 1 67.734000671407202 39.563420076607464 11.508853648066868 1 rotate no_reflect no_shear #
lump $-1 $-1 $55 $1 #
transform $-1 1 0 0 0 1 0 0 0 1 67.734000671407202 39.563420076607464 11.508853648066868 1 rotate no_reflect no_shear #
lump $-1 $-1 $56 $2 #
transform $-1 1 0 0 0 1 0 0 0 1 67.734000671407202 39.563420076607464 11.508853648066868 1 rotate no_reflect no_shear #
lump $-1 $-1 $57 $3 #
transform $-1 1 0 0 0 1 0 0 0 1 67.734000671407202 39.563420076607464 11.508853648066868 1 rotate no_reflect no_shear #
lump $-1 $-1 $58 $4 #
transform $-1 1 0 0 0 1 0 0 0 1 67.734000671407202 39.563420076607464 11.508853648066868 1 rotate no_reflect no_shear #
lump $-1 $-1 $59 $5 #
transform $-1 1 0 0 0 1 0 0 0 1 67.734000671407202 39.563420076607464 11.508853648066868 1 rotate no_reflect no_shear #
lump $-1 $-1 $60 $6 #
transform $-1 1 0 0 0 1 0 0 0 1 67.734000671407202 39.563420076607464 11.508853648066868 1 rotate no_reflect no_shear #
lump $-1 $-1 $61 $7 #
transform $-1 1 0 0 0 1 0 0 0 1 67.734000671407202 39.563420076607464 11.508853648066868 1 rotate no_reflect no_shear #
lump $-1 $-1 $62 $8 #
transform $-1 1 0 0 0 1 0 0 0 1 67.734000671407202 39.563420076607464 11.508853648066868 1 rotate no_reflect no_shear #
lump $-1 $-1 $63 $9 #
transform $-1 1 0 0 0 1 0 0 0 1 67.734000671407202 39.563420076607464 11.508853648066868 1 rotate no_reflect no_shear #
lump $-1 $-1 $64 $10 #
transform $-1 1 0 0 0 1 0 0 0 1 67.734000671407202 39.563420076607464 11.508853648066868 1 rotate no_reflect no_shear #
lump $-1 $-1 $65 $11 #
transform $-1 1 0 0 0 1 0 0 0 1 67.734000671407202 39.563420076607464 11.508853648066868 1 rotate no_reflect no_shear #
lump $-1 $-1 $66 $12 #
transform $-1 1 0 0 0 1 0 0 0 1 67.734000671407202 39.563420076607464 11.508853648066868 1 rotate no_reflect no_shear #
lump $-1 $-1 $67 $13 #
transform $-1 1 0 0 0 1 0 0 0 1 67.734000671407202 39.563420076607464 11.508853648066868 1 rotate no_reflect no_shear #
lump $-1 $-1 $68 $14 #
transform $-1 1 0 0 0 1 0 0 0 1 67.734000671407202 39.563420076607464 11.508853648066868 1 rotate no_reflect no_shear #
lump $-1 $-1 $69 $15 #
transform $-1 1 0 0 0 1 0 0 0 1 67.734000671407202 39.563420076607464 11.508853648066868 1 rotate no_reflect no_shear #
lump $-1 $-1 $70 $16 #
transform $-1 1 0 0 0 1 0 0 0 1 67.734000671407202 39.563420076607464 11.508853648066868 1 rotate no_reflect no_shear #
lump $-1 $-1 $71 $17 #
transform $-1 1 0 0 0 1 0 0 0 1 67.734000671407202 39.563420076607464 11.508853648066868 1 rotate no_reflect no_shear #
shell $-1 $-1 $-1 $72 $-1 $18 #
shell $-1 $-1 $-1 $73 $-1 $20 #
shell $-1 $-1 $-1 $74 $-1 $22 #
shell $-1 $-1 $-1 $75 $-1 $24 #
shell $-1 $-1 $-1 $76 $-1 $26 #
shell $-1 $-1 $-1 $77 $-1 $28 #
shell $-1 $-1 $-1 $78 $-1 $30 #
shell $-1 $-1 $-1 $79 $-1 $32 #
shell $-1 $-1 $-1 $80 $-1 $34 #
shell $-1 $-1 $-1 $81 $-1 $36 #
shell $-1 $-1 $-1 $82 $-1 $38 #
shell $-1 $-1 $-1 $83 $-1 $40 #
shell $-1 $-1 $-1 $84 $-1 $42 #
shell $-1 $-1 $-1 $85 $-1 $44 #
shell $-1 $-1 $-1 $86 $-1 $46 #
shell $-1 $-1 $-1 $87 $-1 $48 #
shell $-1 $-1 $-1 $88 $-1 $50 #
shell $-1 $-1 $-1 $89 $-1 $52 #
face $-1 $90 $91 $54 $-1 $92 forward single #
face $-1 $93 $94 $55 $-1 $95 forward single #
face $-1 $96 $97 $56 $-1 $98 reversed single #
face $-1 $99 $100 $57 $-1 $101 forward single #
face $-1 $102 $103 $58 $-1 $104 forward single #
face $-1 $105 $106 $59 $-1 $107 forward single #
face $-1 $108 $109 $60 $-1 $110 reversed single #
face $-1 $111 $112 $61 $-1 $113 forward single #
face $-1 $114 $115 $62 $-1 $116 forward single #
face $-1 $117 $118 $63 $-1 $119 forward single #
face $-1 $120 $121 $64 $-1 $122 reversed single #
face $-1 $123 $124 $65 $-1 $125 forward single #
face $-1 $126 $127 $66 $-1 $128 forward single #
face $-1 $129 $130 $67 $-1 $131 forward single #
face $-1 $132 $133 $68 $-1 $134 reversed single #
face $-1 $135 $136 $69 $-1 $137 forward single #
face $-1 $138 $139 $70 $-1 $140 forward single #
face $-1 $141 $142 $71 $-1 $143 forward single #
face $-1 $144 $145 $54 $-1 $146 reversed single #
loop $-1 $-1 $147 $72 #
plane-surface $-1 0 0 11.508853648066868 0 0 1 1 0 0 forward_v I I I I #
face $-1 $148 $149 $55 $-1 $150 reversed single #
loop $-1 $-1 $151 $73 #
plane-surface $-1 0 -39.563420076607464 0 0 1 0 0 0 1 forward_v I I I I #
face $-1 $152 $153 $56 $-1 $154 reversed single #
loop $-1 $-1 $155 $74 #
plane-surface $-1 -62.652869786728601 100.13325726299215 146.09595343856751 1 0 0 0 -0.79863551827123203 -0.60181501223851219 forward_v I I I I #
face $-1 $156 $157 $57 $-1 $158 forward single #
loop $-1 $159 $160 $75 #
cone-surface $-1 -58.802696127542958 34.998177655889869 5.8791590670972438 0 -0.79863551827123203 -0.60181501223851219 1 0 0 1 I I 0 1 1 forward I I I I #
face $-1 $161 $162 $58 $-1 $163 forward single #
loop $-1 $164 $165 $76 #
cone-surface $-1 -53.02743563876448 34.998177655889869 5.8791590670972438 0 -0.79863551827123203 -0.60181501223851219 1 0 0 1 I I 0 1 1 forward I I I I #
face $-1 $166 $167 $59 $-1 $168 forward single #
loop $-1 $169 $170 $77 #
cone-surface $-1 -47.252175149986002 34.998177655889869 5.8791590670972438 0 -0.79863551827123203 -0.60181501223851219 1 0 0 1 I I 0 1 1 forward I I I I #
face $-1 $171 $172 $60 $-1 $173 reversed single #
loop $-1 $-1 $174 $78 #
plane-surface $-1 -28.785869451025004 100.13325726299215 146.09595343856751 1 0 0 0 -0.79863551827123203 -0.60181501223851219 forward_v I I I I #
face $-1 $175 $176 $61 $-1 $177 forward single #
loop $-1 $178 $179 $79 #
cone-surface $-1 -24.93569579183935 34.998177655889869 5.8791590670972438 0 -0.79863551827123203 -0.60181501223851219 1 0 0 1 I I 0 1 1 forward I I I I #
face $-1 $180 $181 $62 $-1 $182 forward single #
loop $-1 $183 $184 $80 #
cone-surface $-1 -19.160435303060879 34.998177655889869 5.8791590670972438 0 -0.79863551827123203 -0.60181501223851219 1 0 0 1 I I 0 1 1 forward I I I I #
face $-1 $185 $186 $63 $-1 $187 forward single #
loop $-1 $188 $189 $81 #
cone-surface $-1 -13.385174814282408 34.998177655889869 5.8791590670972438 0 -0.79863551827123203 -0.60181501223851219 1 0 0 1 I I 0 1 1 forward I I I I #
face $-1 $190 $191 $64 $-1 $192 reversed single #
loop $-1 $-1 $193 $82 #
plane-surface $-1 5.0811308846786041 100.13325726299215 146.09595343856751 1 0 0 0 -0.79863551827123203 -0.60181501223851219 forward_v I I I I #
face $-1 $194 $195 $65 $-1 $196 forward single #
loop $-1 $197 $198 $83 #
cone-surface $-1 8.9313045438642433 34.998177655889869 5.8791590670972438 0 -0.79863551827123203 -0.60181501223851219 1 0 0 1 I I 0 1 1 forward I I I I #
face $-1 $199 $200 $66 $-1 $201 forward single #
loop $-1 $202 $203 $84 #
cone-surface $-1 14.706565032642729 34.998177655889869 5.8791590670972438 0 -0.79863551827123203 -0.60181501223851219 1 0 0 1 I I 0 1 1 forward I I I I #
face $-1 $204 $205 $67 $-1 $206 forward single #
loop $-1 $207 $208 $85 #
cone-surface $-1 20.481825521421186 34.998177655889869 5.8791590670972438 0 -0.79863551827123203 -0.60181501223851219 1 0 0 1 I I 0 1 1 forward I I I I #
face $-1 $209 $210 $68 $-1 $211 reversed single #
loop $-1 $-1 $212 $86 #
plane-surface $-1 38.948131220382209 100.13325726299215 146.09595343856751 1 0 0 0 -0.79863551827123203 -0.60181501223851219 forward_v I I I I #
face $-1 $213 $214 $69 $-1 $215 forward single #
loop $-1 $216 $217 $87 #
cone-surface $-1 42.798304879567851 34.998177655889869 5.8791590670972438 0 -0.79863551827123203 -0.60181501223851219 1 0 0 1 I I 0 1 1 forward I I I I #
face $-1 $218 $219 $70 $-1 $220 forward single #
loop $-1 $221 $222 $88 #
cone-surface $-1 48.573565368346337 34.998177655889869 5.8791590670972438 0 -0.79863551827123203 -0.60181501223851219 1 0 0 1 I I 0 1 1 forward I I I I #
face $-1 $223 $224 $71 $-1 $225 forward single #
loop $-1 $226 $227 $89 #
cone-surface $-1 54.348825857124794 34.998177655889869 5.8791590670972438 0 -0.79863551827123203 -0.60181501223851219 1 0 0 1 I I 0 1 1 forward I I I I #
face $-1 $228 $229 $54 $-1 $230 reversed single #
loop $-1 $-1 $231 $90 #
plane-surface $-1 0 0 -11.508853648066868 0 0 1 1 0 0 forward_v I I I I #
coedge $-1 $232 $233 $234 $235 forward $91 $-1 #
face $-1 $236 $237 $55 $-1 $238 reversed single #
loop $-1 $-1 $239 $93 #
plane-surface $-1 0 0 -11.508853648066868 0 0 1 1 0 0 forward_v I I I I #
coedge $-1 $240 $241 $242 $243 forward $94 $-1 #
face $-1 $244 $245 $56 $-1 $246 reversed single #
loop $-1 $-1 $247 $96 #
plane-surface $-1 -53.02743563876448 -8.0563001985943856 64.569276552514864 0 0.79863551827123203 0.60181501223851219 1 0 0 forward_v I I I I #
coedge $-1 $248 $249 $250 $251 reversed $97 $-1 #
face $-1 $-1 $252 $57 $-1 $253 forward single #
loop $-1 $254 $255 $99 #
cone-surface $-1 -58.802696127542958 33.851529892138863 5.0150980252482213 0 -0.79863551827123203 -0.60181501223851219 0.5 0 0 1 I I -0.70710678118654746 0.70710678118654746 0.5 forward I I I I #
loop $-1 $-1 $256 $75 #
coedge $-1 $160 $160 $257 $258 reversed $100 $-1 #
face $-1 $-1 $259 $58 $-1 $260 forward single #
loop $-1 $261 $262 $102 #
cone-surface $-1 -53.02743563876448 33.851529892138863 5.0150980252482213 0 -0.79863551827123203 -0.60181501223851219 0.5 0 0 1 I I -0.70710678118654746 0.70710678118654746 0.5 forward I I I I #
loop $-1 $-1 $263 $76 #
coedge $-1 $165 $165 $264 $265 reversed $103 $-1 #
face $-1 $-1 $266 $59 $-1 $267 forward single #
loop $-1 $268 $269 $105 #
cone-surface $-1 -47.252175149986002 33.851529892138863 5.0150980252482213 0 -0.79863551827123203 -0.60181501223851219 0.5 0 0 1 I I -0.70710678118654746 0.70710678118654746 0.5 forward I I I I #
loop $-1 $-1 $270 $77 #
coedge $-1 $170 $170 $271 $272 reversed $106 $-1 #
face $-1 $273 $274 $60 $-1 $275 reversed single #
loop $-1 $-1 $276 $108 #
plane-surface $-1 -19.160435303060879 -8.0563001985943856 64.569276552514864 0 0.79863551827123203 0.60181501223851219 1 0 0 forward_v I I I I #
coedge $-1 $277 $278 $279 $280 reversed $109 $-1 #
face $-1 $-1 $281 $61 $-1 $282 forward single #
loop $-1 $283 $284 $111 #
cone-surface $-1 -24.93569579183935 33.851529892138863 5.0150980252482213 0 -0.79863551827123203 -0.60181501223851219 0.5 0 0 1 I I -0.70710678118654746 0.70710678118654746 0.5 forward I I I I #
loop $-1 $-1 $285 $79 #
coedge $-1 $179 $179 $286 $287 reversed $112 $-1 #
face $-1 $-1 $288 $62 $-1 $289 forward single #
loop $-1 $290 $291 $114 #
cone-surface $-1 -19.160435303060879 33.851529892138863 5.0150980252482213 0 -0.79863551827123203 -0.60181501223851219 0.5 0 0 1 I I -0.70710678118654746 0.70710678118654746 0.5 forward I I I I #
loop $-1 $-1 $292 $80 #
coedge $-1 $184 $184 $293 $294 reversed $115 $-1 #
face $-1 $-1 $295 $63 $-1 $296 forward single #
loop $-1 $297 $298 $117 #
cone-surface $-1 -13.385174814282408 33.851529892138863 5.0150980252482213 0 -0.79863551827123203 -0.60181501223851219 0.5 0 0 1 I I -0.70710678118654746 0.70710678118654746 0.5 forward I I I I #
loop $-1 $-1 $299 $81 #
coedge $-1 $189 $189 $300 $301 reversed $118 $-1 #
face $-1 $302 $303 $64 $-1 $304 reversed single #
loop $-1 $-1 $305 $120 #
plane-surface $-1 14.706565032642729 -8.0563001985943856 64.569276552514864 0 0.79863551827123203 0.60181501223851219 1 0 0 forward_v I I I I #
coedge $-1 $306 $307 $308 $309 reversed $121 $-1 #
face $-1 $-1 $310 $65 $-1 $311 forward single #
loop $-1 $312 $313 $123 #
cone-surface $-1 8.9313045438642433 33.851529892138863 5.0150980252482213 0 -0.79863551827123203 -0.60181501223851219 0.5 0 0 1 I I -0.70710678118654746 0.70710678118654746 0.5 forward I I I I #
loop $-1 $-1 $314 $83 #
coedge $-1 $198 $198 $315 $316 reversed $124 $-1 #
face $-1 $-1 $317 $66 $-1 $318 forward single #
loop $-1 $319 $320 $126 #
cone-surface $-1 14.706565032642729 33.851529892138863 5.0150980252482213 0 -0.79863551827123203 -0.60181501223851219 0.5 0 0 1 I I -0.70710678118654746 0.70710678118654746 0.5 forward I I I I #
loop $-1 $-1 $321 $84 #
coedge $-1 $203 $203 $322 $323 reversed $127 $-1 #
face $-1 $-1 $324 $67 $-1 $325 forward single #
loop $-1 $326 $327 $129 #
cone-surface $-1 20.481825521421186 33.851529892138863 5.0150980252482213 0 -0.79863551827123203 -0.60181501223851219 0.5 0 0 1 I I -0.70710678118654746 0.70710678118654746 0.5 forward I I I I #
loop $-1 $-1 $328 $85 #
coedge $-1 $208 $208 $329 $330 reversed $130 $-1 #
face $-1 $331 $332 $68 $-1 $333 reversed single #
loop $-1 $-1 $334 $132 #
plane-surface $-1 48.573565368346337 -8.0563001985943856 64.569276552514864 0 0.79863551827123203 0.60181501223851219 1 0 0 forward_v I I I I #
coedge $-1 $335 $336 $337 $338 reversed $133 $-1 #
face $-1 $-1 $339 $69 $-1 $340 forward single #
loop $-1 $341 $342 $135 #
cone-surface $-1 42.798304879567851 33.851529892138863 5.0150980252482213 0 -0.79863551827123203 -0.60181501223851219 0.5 0 0 1 I I -0.70710678118654746 0.70710678118654746 0.5 forward I I I I #
loop $-1 $-1 $343 $87 #
coedge $-1 $217 $217 $344 $345 reversed $136 $-1 #
face $-1 $-1 $346 $70 $-1 $347 forward single #
loop $-1 $348 $349 $138 #
cone-surface $-1 48.573565368346337 33.851529892138863 5.0150980252482213 0 -0.79863551827123203 -0.60181501223851219 0.5 0 0 1 I I -0.70710678118654746 0.70710678118654746 0.5 forward I I I I #
loop $-1 $-1 $350 $88 #
coedge $-1 $222 $222 $351 $352 reversed $139 $-1 #
face $-1 $-1 $353 $71 $-1 $354 forward single #
loop $-1 $355 $356 $141 #
cone-surface $-1 54.348825857124794 33.851529892138863 5.0150980252482213 0 -0.79863551827123203 -0.60181501223851219 0.5 0 0 1 I I -0.70710678118654746 0.70710678118654746 0.5 forward I I I I #
loop $-1 $-1 $357 $89 #
coedge $-1 $227 $227 $358 $359 reversed $142 $-1 #
face $-1 $360 $361 $54 $-1 $362 reversed single #
loop $-1 $-1 $363 $144 #
plane-surface $-1 0 -39.563420076607464 0 0 1 0 0 0 1 forward_v I I I I #
coedge $-1 $364 $365 $366 $367 forward $145 $-1 #
coedge $-1 $368 $147 $369 $370 forward $91 $-1 #
coedge $-1 $147 $368 $371 $372 forward $91 $-1 #
coedge $-1 $373 $374 $147 $235 reversed $375 $-1 #
edge $-1 $376 -39.563420076607464 $377 39.563420076607464 $234 $378 forward 7 unknown #
face $-1 $379 $380 $55 $-1 $381 reversed single #
loop $-1 $-1 $382 $148 #
plane-surface $-1 -48.464180596228672 -51.214382620392826 0 0 1 0 0 0 1 forward_v I I I I #
coedge $-1 $383 $384 $241 $385 forward $149 $-1 #
coedge $-1 $386 $151 $387 $388 reversed $94 $-1 #
coedge $-1 $151 $386 $239 $385 reversed $94 $-1 #
coedge $-1 $389 $390 $151 $243 reversed $380 $-1 #
edge $-1 $391 -11.508853648066868 $392 11.508853648066868 $242 $393 forward 7 unknown #
face $-1 $394 $395 $56 $-1 $396 forward single #
loop $-1 $-1 $397 $152 #
plane-surface $-1 -43.402001490800359 100.13325726299215 146.09595343856751 -1 0 0 0 0.79863551827123203 0.60181501223851219 forward_v I I I I #
coedge $-1 $398 $399 $400 $401 reversed $153 $-1 #
coedge $-1 $249 $155 $402 $403 reversed $97 $-1 #
coedge $-1 $155 $248 $398 $404 reversed $97 $-1 #
coedge $-1 $400 $405 $155 $251 forward $395 $-1 #
edge $-1 $406 10.503208554888609 $407 18.139033387093029 $250 $408 forward 7 unknown #
loop $-1 $-1 $257 $156 #
plane-surface $-1 -53.02743563876448 -8.0563001985943856 64.569276552514864 0 0.79863551827123203 0.60181501223851219 1 0 0 forward_v I I I I #
loop $-1 $-1 $409 $99 #
coedge $-1 $255 $255 $256 $410 reversed $157 $-1 #
coedge $-1 $256 $256 $255 $410 forward $159 $-1 #
coedge $-1 $257 $257 $160 $258 forward $252 $-1 #
edge $-1 $411 -1.3783259511344542e-015 $411 6.2831853071795987 $257 $412 forward 7 unknown #
loop $-1 $-1 $264 $161 #
plane-surface $-1 -53.02743563876448 -8.0563001985943856 64.569276552514864 0 0.79863551827123203 0.60181501223851219 1 0 0 forward_v I I I I #
loop $-1 $-1 $413 $102 #
coedge $-1 $262 $262 $263 $414 reversed $162 $-1 #
coedge $-1 $263 $263 $262 $414 forward $164 $-1 #
coedge $-1 $264 $264 $165 $265 forward $259 $-1 #
edge $-1 $415 -1.3783259511344542e-015 $415 6.2831853071795987 $264 $416 forward 7 unknown #
loop $-1 $-1 $271 $166 #
plane-surface $-1 -53.02743563876448 -8.0563001985943856 64.569276552514864 0 0.79863551827123203 0.60181501223851219 1 0 0 forward_v I I I I #
loop $-1 $-1 $417 $105 #
coedge $-1 $269 $269 $270 $418 reversed $167 $-1 #
coedge $-1 $270 $270 $269 $418 forward $169 $-1 #
coedge $-1 $271 $271 $170 $272 forward $266 $-1 #
edge $-1 $419 -1.3783259511344542e-015 $419 6.2831853071795987 $271 $420 forward 7 unknown #
face $-1 $421 $422 $60 $-1 $423 forward single #
loop $-1 $-1 $424 $171 #
plane-surface $-1 -9.5350011550967544 100.13325726299215 146.09595343856751 -1 0 0 0 0.79863551827123203 0.60181501223851219 forward_v I I I I #
coedge $-1 $425 $426 $427 $428 reversed $172 $-1 #
coedge $-1 $278 $174 $429 $430 reversed $109 $-1 #
coedge $-1 $174 $277 $425 $431 reversed $109 $-1 #
coedge $-1 $427 $432 $174 $280 forward $422 $-1 #
edge $-1 $433 10.503208554888609 $434 18.139033387093029 $279 $435 forward 7 unknown #
loop $-1 $-1 $286 $175 #
plane-surface $-1 -19.160435303060879 -8.0563001985943856 64.569276552514864 0 0.79863551827123203 0.60181501223851219 1 0 0 forward_v I I I I #
loop $-1 $-1 $436 $111 #
coedge $-1 $284 $284 $285 $437 reversed $176 $-1 #
coedge $-1 $285 $285 $284 $437 forward $178 $-1 #
coedge $-1 $286 $286 $179 $287 forward $281 $-1 #
edge $-1 $438 -1.3783259511344542e-015 $438 6.2831853071795987 $286 $439 forward 7 unknown #
loop $-1 $-1 $293 $180 #
plane-surface $-1 -19.160435303060879 -8.0563001985943856 64.569276552514864 0 0.79863551827123203 0.60181501223851219 1 0 0 forward_v I I I I #
loop $-1 $-1 $440 $114 #
coedge $-1 $291 $291 $292 $441 reversed $181 $-1 #
coedge $-1 $292 $292 $291 $441 forward $183 $-1 #
coedge $-1 $293 $293 $184 $294 forward $288 $-1 #
edge $-1 $442 -1.3783259511344542e-015 $442 6.2831853071795987 $293 $443 forward 7 unknown #
loop $-1 $-1 $300 $185 #
plane-surface $-1 -19.160435303060879 -8.0563001985943856 64.569276552514864 0 0.79863551827123203 0.60181501223851219 1 0 0 forward_v I I I I #
loop $-1 $-1 $444 $117 #
coedge $-1 $298 $298 $299 $445 reversed $186 $-1 #
coedge $-1 $299 $299 $298 $445 forward $188 $-1 #
coedge $-1 $300 $300 $189 $301 forward $295 $-1 #
edge $-1 $446 -1.3783259511344542e-015 $446 6.2831853071795987 $300 $447 forward 7 unknown #
face $-1 $448 $449 $64 $-1 $450 forward single #
loop $-1 $-1 $451 $190 #
plane-surface $-1 24.331999180606854 100.13325726299215 146.09595343856751 -1 0 0 0 0.79863551827123203 0.60181501223851219 forward_v I I I I #
coedge $-1 $452 $453 $454 $455 reversed $191 $-1 #
coedge $-1 $307 $193 $456 $457 reversed $121 $-1 #
coedge $-1 $193 $306 $452 $458 reversed $121 $-1 #
coedge $-1 $454 $459 $193 $309 forward $449 $-1 #
edge $-1 $460 10.503208554888609 $461 18.139033387093029 $308 $462 forward 7 unknown #
loop $-1 $-1 $315 $194 #
plane-surface $-1 14.706565032642729 -8.0563001985943856 64.569276552514864 0 0.79863551827123203 0.60181501223851219 1 0 0 forward_v I I I I #
loop $-1 $-1 $463 $123 #
coedge $-1 $313 $313 $314 $464 reversed $195 $-1 #
coedge $-1 $314 $314 $313 $464 forward $197 $-1 #
coedge $-1 $315 $315 $198 $316 forward $310 $-1 #
edge $-1 $465 -1.3783259511344542e-015 $465 6.2831853071795987 $315 $466 forward 7 unknown #
loop $-1 $-1 $322 $199 #
plane-surface $-1 14.706565032642729 -8.0563001985943856 64.569276552514864 0 0.79863551827123203 0.60181501223851219 1 0 0 forward_v I I I I #
loop $-1 $-1 $467 $126 #
coedge $-1 $320 $320 $321 $468 reversed $200 $-1 #
coedge $-1 $321 $321 $320 $468 forward $202 $-1 #
coedge $-1 $322 $322 $203 $323 forward $317 $-1 #
edge $-1 $469 -1.3783259511344542e-015 $469 6.2831853071795987 $322 $470 forward 7 unknown #
loop $-1 $-1 $329 $204 #
plane-surface $-1 14.706565032642729 -8.0563001985943856 64.569276552514864 0 0.79863551827123203 0.60181501223851219 1 0 0 forward_v I I I I #
loop $-1 $-1 $471 $129 #
coedge $-1 $327 $327 $328 $472 reversed $205 $-1 #
coedge $-1 $328 $328 $327 $472 forward $207 $-1 #
coedge $-1 $329 $329 $208 $330 forward $324 $-1 #
edge $-1 $473 -1.3783259511344542e-015 $473 6.2831853071795987 $329 $474 forward 7 unknown #
face $-1 $475 $476 $68 $-1 $477 forward single #
loop $-1 $-1 $478 $209 #
plane-surface $-1 58.198999516310465 100.13325726299215 146.09595343856751 -1 0 0 0 0.79863551827123203 0.60181501223851219 forward_v I I I I #
coedge $-1 $479 $480 $481 $482 reversed $210 $-1 #
coedge $-1 $336 $212 $483 $484 reversed $133 $-1 #
coedge $-1 $212 $335 $479 $485 reversed $133 $-1 #
coedge $-1 $481 $486 $212 $338 forward $476 $-1 #
edge $-1 $487 10.503208554888609 $488 18.139033387093029 $337 $489 forward 7 unknown #
loop $-1 $-1 $344 $213 #
plane-surface $-1 48.573565368346337 -8.0563001985943856 64.569276552514864 0 0.79863551827123203 0.60181501223851219 1 0 0 forward_v I I I I #
loop $-1 $-1 $490 $135 #
coedge $-1 $342 $342 $343 $491 reversed $214 $-1 #
coedge $-1 $343 $343 $342 $491 forward $216 $-1 #
coedge $-1 $344 $344 $217 $345 forward $339 $-1 #
edge $-1 $492 -1.3783259511344542e-015 $492 6.2831853071795987 $344 $493 forward 7 unknown #
loop $-1 $-1 $351 $218 #
plane-surface $-1 48.573565368346337 -8.0563001985943856 64.569276552514864 0 0.79863551827123203 0.60181501223851219 1 0 0 forward_v I I I I #
loop $-1 $-1 $494 $138 #
coedge $-1 $349 $349 $350 $495 reversed $219 $-1 #
coedge $-1 $350 $350 $349 $495 forward $221 $-1 #
coedge $-1 $351 $351 $222 $352 forward $346 $-1 #
edge $-1 $496 -1.3783259511344542e-015 $496 6.2831853071795987 $351 $497 forward 7 unknown #
loop $-1 $-1 $358 $223 #
plane-surface $-1 48.573565368346337 -8.0563001985943856 64.569276552514864 0 0.79863551827123203 0.60181501223851219 1 0 0 forward_v I I I I #
loop $-1 $-1 $498 $141 #
coedge $-1 $356 $356 $357 $499 reversed $224 $-1 #
coedge $-1 $357 $357 $356 $499 forward $226 $-1 #
coedge $-1 $358 $358 $227 $359 forward $353 $-1 #
edge $-1 $500 -1.3783259511344542e-015 $500 6.2831853071795987 $358 $501 forward 7 unknown #
face $-1 $502 $503 $54 $-1 $504 reversed single #
loop $-1 $-1 $505 $228 #
plane-surface $-1 -67.734000671407202 0 0 1 0 0 0 0 -1 forward_v I I I I #
coedge $-1 $506 $371 $507 $508 forward $229 $-1 #
coedge $-1 $509 $231 $506 $510 forward $145 $-1 #
coedge $-1 $231 $509 $511 $512 forward $145 $-1 #
coedge $-1 $374 $373 $231 $367 reversed $375 $-1 #
edge $-1 $513 -39.563420076607464 $514 39.563420076607464 $366 $515 forward 7 unknown #
coedge $-1 $233 $232 $516 $517 forward $91 $-1 #
coedge $-1 $518 $519 $232 $370 reversed $503 $-1 #
edge $-1 $377 -67.734000671407202 $520 67.734000671407202 $369 $521 forward 7 unknown #
coedge $-1 $363 $522 $233 $372 reversed $229 $-1 #
edge $-1 $523 -67.734000671407202 $376 67.734000671407202 $371 $524 forward 7 unknown #
coedge $-1 $366 $234 $522 $525 forward $375 $-1 #
coedge $-1 $234 $366 $518 $526 reversed $375 $-1 #
loop $-1 $-1 $373 $502 #
vertex $-1 $235 $527 #
vertex $-1 $235 $528 #
straight-curve $-1 67.734000671407202 0 11.508853648066868 0 1 0 I I #
face $-1 $529 $530 $55 $-1 $531 reversed single #
loop $-1 $-1 $242 $236 #
plane-surface $-1 -51.712067817183879 -45.388901348500141 0 1 0 0 0 0 -1 forward_v I I I I #
coedge $-1 $532 $533 $534 $535 forward $237 $-1 #
coedge $-1 $536 $239 $537 $538 forward $149 $-1 #
coedge $-1 $239 $536 $389 $539 forward $149 $-1 #
edge $-1 $391 -51.712067817183879 $540 -45.216293375273466 $239 $541 forward 7 unknown #
coedge $-1 $241 $240 $542 $543 forward $94 $-1 #
coedge $-1 $544 $545 $240 $388 forward $546 $-1 #
edge $-1 $547 45.216293375273466 $392 51.712067817183879 $387 $548 forward 7 unknown #
coedge $-1 $534 $242 $384 $539 reversed $380 $-1 #
coedge $-1 $242 $534 $544 $549 reversed $380 $-1 #
vertex $-1 $385 $550 #
vertex $-1 $549 $551 #
straight-curve $-1 -51.712067817183879 -39.563420076607464 0 0 0 1 I I #
face $-1 $-1 $552 $56 $-1 $553 reversed single #
loop $-1 $-1 $250 $244 #
plane-surface $-1 0 0 11.508853648066868 0 0 1 1 0 0 forward_v I I I I #
coedge $-1 $554 $555 $556 $557 reversed $245 $-1 #
coedge $-1 $558 $247 $249 $404 forward $153 $-1 #
coedge $-1 $247 $558 $554 $559 forward $153 $-1 #
coedge $-1 $556 $250 $247 $401 forward $395 $-1 #
edge $-1 $407 -36.139151967346365 $560 -16.888283671418119 $400 $561 forward 7 unknown #
coedge $-1 $562 $563 $248 $403 forward $552 $-1 #
edge $-1 $564 -71.672205161696638 $406 -61.539123071216885 $402 $565 forward 7 unknown #
edge $-1 $407 66.438846871355466 $564 79.126840153214943 $249 $566 forward 7 unknown #
coedge $-1 $250 $556 $562 $567 forward $395 $-1 #
vertex $-1 $403 $568 #
vertex $-1 $251 $569 #
straight-curve $-1 -62.652869786728601 50.066628631496073 11.508853648066861 0 -1 0 I I #
coedge $-1 $409 $409 $-1 $570 reversed $254 $-1 #
edge $-1 $571 0 $571 6.2831853071796004 $255 $572 forward 7 unknown #
vertex $-1 $258 $573 #
ellipse-curve $-1 -58.802696127542958 35.745507660505247 6.4423126028269984 0 0.79863551827123203 0.60181501223851219 1 0 0 1 I I #
coedge $-1 $413 $413 $-1 $574 reversed $261 $-1 #
edge $-1 $575 0 $575 6.2831853071796004 $262 $576 forward 7 unknown #
vertex $-1 $265 $577 #
ellipse-curve $-1 -53.02743563876448 35.745507660505247 6.4423126028269984 0 0.79863551827123203 0.60181501223851219 1 0 0 1 I I #
coedge $-1 $417 $417 $-1 $578 reversed $268 $-1 #
edge $-1 $579 0 $579 6.2831853071796004 $269 $580 forward 7 unknown #
vertex $-1 $272 $581 #
ellipse-curve $-1 -47.252175149986002 35.745507660505247 6.4423126028269984 0 0.79863551827123203 0.60181501223851219 1 0 0 1 I I #
face $-1 $-1 $582 $60 $-1 $583 reversed single #
loop $-1 $-1 $279 $273 #
plane-surface $-1 0 0 11.508853648066868 0 0 1 1 0 0 forward_v I I I I #
coedge $-1 $584 $585 $586 $587 reversed $274 $-1 #
coedge $-1 $588 $276 $278 $431 forward $172 $-1 #
coedge $-1 $276 $588 $584 $589 forward $172 $-1 #
coedge $-1 $586 $279 $276 $428 forward $422 $-1 #
edge $-1 $434 -19.205651799494564 $590 0.045216496433685194 $427 $591 forward 7 unknown #
coedge $-1 $592 $593 $277 $430 forward $582 $-1 #
edge $-1 $594 -71.672205161696638 $433 -61.539123071216885 $429 $595 forward 7 unknown #
edge $-1 $434 66.438846871355466 $594 79.126840153214943 $278 $596 forward 7 unknown #
coedge $-1 $279 $586 $592 $597 forward $422 $-1 #
vertex $-1 $280 $598 #
vertex $-1 $280 $599 #
straight-curve $-1 -28.785869451025004 50.066628631496073 11.508853648066861 0 -1 0 I I #
coedge $-1 $436 $436 $-1 $600 reversed $283 $-1 #
edge $-1 $601 0 $601 6.2831853071796004 $284 $602 forward 7 unknown #
vertex $-1 $287 $603 #
ellipse-curve $-1 -24.93569579183935 35.745507660505247 6.4423126028269984 0 0.79863551827123203 0.60181501223851219 1 0 0 1 I I #
coedge $-1 $440 $440 $-1 $604 reversed $290 $-1 #
edge $-1 $605 0 $605 6.2831853071796004 $291 $606 forward 7 unknown #
vertex $-1 $294 $607 #
ellipse-curve $-1 -19.160435303060879 35.745507660505247 6.4423126028269984 0 0.79863551827123203 0.60181501223851219 1 0 0 1 I I #
coedge $-1 $444 $444 $-1 $608 reversed $297 $-1 #
edge $-1 $609 0 $609 6.2831853071796004 $298 $610 forward 7 unknown #
vertex $-1 $301 $611 #
ellipse-curve $-1 -13.385174814282408 35.745507660505247 6.4423126028269984 0 0.79863551827123203 0.60181501223851219 1 0 0 1 I I #
face $-1 $-1 $612 $64 $-1 $613 reversed single #
loop $-1 $-1 $308 $302 #
plane-surface $-1 0 0 11.508853648066868 0 0 1 1 0 0 forward_v I I I I #
coedge $-1 $614 $615 $616 $617 reversed $303 $-1 #
coedge $-1 $618 $305 $307 $458 forward $191 $-1 #
coedge $-1 $305 $618 $614 $619 forward $191 $-1 #
coedge $-1 $616 $308 $305 $455 forward $449 $-1 #
edge $-1 $461 -2.2721516316427603 $620 16.978716664285489 $454 $621 forward 7 unknown #
coedge $-1 $622 $623 $306 $457 forward $612 $-1 #
edge $-1 $624 -71.672205161696638 $460 -61.539123071216885 $456 $625 forward 7 unknown #
edge $-1 $461 66.438846871355466 $624 79.126840153214943 $307 $626 forward 7 unknown #
coedge $-1 $308 $616 $622 $627 forward $449 $-1 #
vertex $-1 $309 $628 #
vertex $-1 $309 $629 #
straight-curve $-1 5.0811308846786041 50.066628631496073 11.508853648066861 0 -1 0 I I #
coedge $-1 $463 $463 $-1 $630 reversed $312 $-1 #
edge $-1 $631 0 $631 6.2831853071796004 $313 $632 forward 7 unknown #
vertex $-1 $316 $633 #
ellipse-curve $-1 8.9313045438642433 35.745507660505247 6.4423126028269984 0 0.79863551827123203 0.60181501223851219 1 0 0 1 I I #
coedge $-1 $467 $467 $-1 $634 reversed $319 $-1 #
edge $-1 $635 0 $635 6.2831853071796004 $320 $636 forward 7 unknown #
vertex $-1 $323 $637 #
ellipse-curve $-1 14.706565032642729 35.745507660505247 6.4423126028269984 0 0.79863551827123203 0.60181501223851219 1 0 0 1 I I #
coedge $-1 $471 $471 $-1 $638 reversed $326 $-1 #
edge $-1 $639 0 $639 6.2831853071796004 $327 $640 forward 7 unknown #
vertex $-1 $330 $641 #
ellipse-curve $-1 20.481825521421186 35.745507660505247 6.4423126028269984 0 0.79863551827123203 0.60181501223851219 1 0 0 1 I I #
face $-1 $-1 $642 $68 $-1 $643 reversed single #
loop $-1 $-1 $337 $331 #
plane-surface $-1 0 0 11.508853648066868 0 0 1 1 0 0 forward_v I I I I #
coedge $-1 $644 $645 $646 $647 reversed $332 $-1 #
coedge $-1 $648 $334 $336 $485 forward $210 $-1 #
coedge $-1 $334 $648 $644 $649 forward $210 $-1 #
coedge $-1 $646 $337 $334 $482 forward $476 $-1 #
edge $-1 $488 14.66134853620904 $650 33.912216832137297 $481 $651 forward 7 unknown #
coedge $-1 $652 $653 $335 $484 forward $642 $-1 #
edge $-1 $654 -71.672205161696638 $487 -61.539123071216885 $483 $655 forward 7 unknown #
edge $-1 $488 66.438846871355466 $654 79.126840153214943 $336 $656 forward 7 unknown #
coedge $-1 $337 $646 $652 $657 forward $476 $-1 #
vertex $-1 $338 $658 #
vertex $-1 $338 $659 #
straight-curve $-1 38.948131220382209 50.066628631496073 11.508853648066861 0 -1 0 I I #
coedge $-1 $490 $490 $-1 $660 reversed $341 $-1 #
edge $-1 $661 0 $661 6.2831853071796004 $342 $662 forward 7 unknown #
vertex $-1 $345 $663 #
ellipse-curve $-1 42.798304879567851 35.745507660505247 6.4423126028269984 0 0.79863551827123203 0.60181501223851219 1 0 0 1 I I #
coedge $-1 $494 $494 $-1 $664 reversed $348 $-1 #
edge $-1 $665 0 $665 6.2831853071796004 $349 $666 forward 7 unknown #
vertex $-1 $352 $667 #
ellipse-curve $-1 48.573565368346337 35.745507660505247 6.4423126028269984 0 0.79863551827123203 0.60181501223851219 1 0 0 1 I I #
coedge $-1 $498 $498 $-1 $668 reversed $355 $-1 #
edge $-1 $669 0 $669 6.2831853071796004 $356 $670 forward 7 unknown #
vertex $-1 $359 $671 #
ellipse-curve $-1 54.348825857124794 35.745507660505247 6.4423126028269984 0 0.79863551827123203 0.60181501223851219 1 0 0 1 I I #
face $-1 $-1 $375 $54 $-1 $672 reversed single #
loop $-1 $-1 $518 $360 #
plane-surface $-1 0 39.563420076607464 0 0 -1 0 0 0 -1 forward_v I I I I #
coedge $-1 $673 $516 $519 $674 forward $361 $-1 #
coedge $-1 $522 $363 $364 $510 reversed $229 $-1 #
coedge $-1 $516 $673 $363 $508 reversed $361 $-1 #
edge $-1 $523 -11.508853648066868 $675 11.508853648066868 $507 $676 forward 7 unknown #
coedge $-1 $365 $364 $673 $677 forward $145 $-1 #
edge $-1 $514 -67.734000671407202 $675 67.734000671407202 $506 $678 forward 7 unknown #
coedge $-1 $519 $518 $365 $512 reversed $503 $-1 #
edge $-1 $679 -67.734000671407202 $513 67.734000671407202 $511 $680 forward 7 unknown #
vertex $-1 $367 $681 #
vertex $-1 $525 $682 #
straight-curve $-1 67.734000671407202 0 -11.508853648066868 0 -1 0 I I #
coedge $-1 $505 $507 $368 $517 reversed $361 $-1 #
edge $-1 $520 -39.563420076607464 $523 39.563420076607464 $516 $683 forward 7 unknown #
coedge $-1 $511 $369 $374 $526 forward $503 $-1 #
coedge $-1 $369 $511 $505 $674 reversed $503 $-1 #
vertex $-1 $370 $684 #
straight-curve $-1 0 39.563420076607464 11.508853648066868 -1 0 0 I I #
coedge $-1 $371 $506 $373 $525 reversed $229 $-1 #
vertex $-1 $517 $685 #
straight-curve $-1 0 -39.563420076607464 11.508853648066868 1 0 0 I I #
edge $-1 $376 -11.508853648066868 $514 11.508853648066868 $373 $686 forward 7 unknown #
edge $-1 $377 -11.508853648066868 $513 11.508853648066868 $374 $687 forward 7 unknown #
point $-1 67.734000671407202 -39.563420076607464 11.508853648066868 #
point $-1 67.734000671407202 39.563420076607464 11.508853648066868 #
face $-1 $-1 $546 $55 $-1 $688 forward single #
loop $-1 $-1 $689 $379 #
plane-surface $-1 -45.216293375273466 -45.388901348500141 0 -1 0 0 0 0 1 forward_v I I I I #
coedge $-1 $690 $382 $536 $691 reversed $237 $-1 #
coedge $-1 $382 $690 $692 $693 reversed $237 $-1 #
coedge $-1 $390 $389 $382 $535 reversed $380 $-1 #
edge $-1 $694 -11.508853648066868 $695 11.508853648066868 $534 $696 forward 7 unknown #
coedge $-1 $384 $383 $532 $691 forward $149 $-1 #
coedge $-1 $542 $689 $383 $538 reversed $530 $-1 #
edge $-1 $540 -5.8254812718926843 $697 5.8254812718926843 $537 $698 forward 7 unknown #
edge $-1 $695 -5.8254812718926843 $391 5.8254812718926843 $389 $699 forward 7 unknown #
vertex $-1 $538 $700 #
straight-curve $-1 0 -39.563420076607464 -11.508853648066868 1 0 0 I I #
coedge $-1 $701 $537 $386 $543 reversed $530 $-1 #
edge $-1 $547 -11.508853648066868 $540 11.508853648066868 $542 $702 forward 7 unknown #
coedge $-1 $692 $387 $390 $549 forward $546 $-1 #
coedge $-1 $387 $692 $701 $703 forward $546 $-1 #
loop $-1 $-1 $387 $529 #
vertex $-1 $388 $704 #
straight-curve $-1 0 -39.563420076607464 11.508853648066868 -1 0 0 I I #
edge $-1 $392 -5.8254812718926843 $694 5.8254812718926843 $390 $705 forward 7 unknown #
point $-1 -51.712067817183879 -39.563420076607457 -11.508853648066868 #
point $-1 -51.712067817183879 -39.563420076607457 11.508853648066868 #
loop $-1 $-1 $402 $394 #
plane-surface $-1 0 39.563420076607464 0 0 -1 0 0 0 -1 forward_v I I I I #
coedge $-1 $555 $397 $399 $559 reversed $245 $-1 #
coedge $-1 $397 $554 $706 $707 reversed $245 $-1 #
coedge $-1 $405 $400 $397 $557 forward $395 $-1 #
edge $-1 $560 -18.139033387093029 $708 -10.503208554888609 $556 $709 forward 7 unknown #
coedge $-1 $399 $398 $563 $710 reversed $153 $-1 #
edge $-1 $711 -79.126840153214943 $560 -66.438846871355466 $554 $712 forward 7 unknown #
vertex $-1 $401 $713 #
straight-curve $-1 -26.51371781938224 31.92759524440304 11.508853648066875 1 0 0 I I #
coedge $-1 $706 $402 $405 $567 reversed $552 $-1 #
coedge $-1 $402 $706 $558 $710 forward $552 $-1 #
vertex $-1 $403 $714 #
straight-curve $-1 -62.652869786728601 39.563420076607464 73.047976719283753 0 0 1 I I #
straight-curve $-1 -62.652869786728601 -8.0563001985943856 64.569276552514864 0 0.60181501223851219 -0.79863551827123203 I I #
edge $-1 $708 43.402001490800359 $406 62.652869786728601 $562 $715 forward 7 unknown #
point $-1 -62.652869786728601 39.563420076607464 11.508853648066868 #
point $-1 -62.652869786728601 31.927595244403044 11.508853648066868 #
edge $-1 $716 1 $716 0 $409 $-1 forward 7 unknown #
vertex $-1 $410 $717 #
ellipse-curve $-1 -58.802696127542958 34.250847651274476 5.3160055313674777 0 0.79863551827123203 0.60181501223851219 1 0 0 1 I I #
point $-1 -57.802696127542958 35.745507660505261 6.4423126028270108 #
edge $-1 $718 1 $718 0 $413 $-1 forward 7 unknown #
vertex $-1 $414 $719 #
ellipse-curve $-1 -53.02743563876448 34.250847651274476 5.3160055313674777 0 0.79863551827123203 0.60181501223851219 1 0 0 1 I I #
point $-1 -52.02743563876448 35.745507660505261 6.4423126028270108 #
edge $-1 $720 1 $720 0 $417 $-1 forward 7 unknown #
vertex $-1 $418 $721 #
ellipse-curve $-1 -47.252175149986002 34.250847651274476 5.3160055313674777 0 0.79863551827123203 0.60181501223851219 1 0 0 1 I I #
point $-1 -46.252175149986002 35.745507660505261 6.4423126028270108 #
loop $-1 $-1 $429 $421 #
plane-surface $-1 0 39.563420076607464 0 0 -1 0 0 0 -1 forward_v I I I I #
coedge $-1 $585 $424 $426 $589 reversed $274 $-1 #
coedge $-1 $424 $584 $722 $723 reversed $274 $-1 #
coedge $-1 $432 $427 $424 $587 forward $422 $-1 #
edge $-1 $590 -18.139033387093029 $724 -10.503208554888609 $586 $725 forward 7 unknown #
coedge $-1 $426 $425 $593 $726 reversed $172 $-1 #
edge $-1 $727 -79.126840153214943 $590 -66.438846871355466 $584 $728 forward 7 unknown #
vertex $-1 $428 $729 #
straight-curve $-1 -9.5802176515304396 31.92759524440304 11.508853648066875 1 0 0 I I #
coedge $-1 $722 $429 $432 $597 reversed $582 $-1 #
coedge $-1 $429 $722 $588 $726 forward $582 $-1 #
vertex $-1 $430 $730 #
straight-curve $-1 -28.785869451025004 39.563420076607464 73.047976719283753 0 0 1 I I #
straight-curve $-1 -28.785869451025004 -8.0563001985943856 64.569276552514864 0 0.60181501223851219 -0.79863551827123203 I I #
edge $-1 $724 9.5350011550967544 $433 28.785869451025004 $592 $731 forward 7 unknown #
point $-1 -28.785869451025004 39.563420076607464 11.508853648066868 #
point $-1 -28.785869451025004 31.927595244403044 11.508853648066868 #
edge $-1 $732 1 $732 0 $436 $-1 forward 7 unknown #
vertex $-1 $437 $733 #
ellipse-curve $-1 -24.93569579183935 34.250847651274476 5.3160055313674777 0 0.79863551827123203 0.60181501223851219 1 0 0 1 I I #
point $-1 -23.93569579183935 35.745507660505261 6.4423126028270108 #
edge $-1 $734 1 $734 0 $440 $-1 forward 7 unknown #
vertex $-1 $441 $735 #
ellipse-curve $-1 -19.160435303060879 34.250847651274476 5.3160055313674777 0 0.79863551827123203 0.60181501223851219 1 0 0 1 I I #
point $-1 -18.160435303060879 35.745507660505261 6.4423126028270108 #
edge $-1 $736 1 $736 0 $444 $-1 forward 7 unknown #
vertex $-1 $445 $737 #
ellipse-curve $-1 -13.385174814282408 34.250847651274476 5.3160055313674777 0 0.79863551827123203 0.60181501223851219 1 0 0 1 I I #
point $-1 -12.385174814282408 35.745507660505261 6.4423126028270108 #
loop $-1 $-1 $456 $448 #
plane-surface $-1 0 39.563420076607464 0 0 -1 0 0 0 -1 forward_v I I I I #
coedge $-1 $615 $451 $453 $619 reversed $303 $-1 #
coedge $-1 $451 $614 $738 $739 reversed $303 $-1 #
coedge $-1 $459 $454 $451 $617 forward $449 $-1 #
edge $-1 $620 -18.139033387093029 $740 -10.503208554888609 $616 $741 forward 7 unknown #
coedge $-1 $453 $452 $623 $742 reversed $191 $-1 #
edge $-1 $743 -79.126840153214943 $620 -66.438846871355466 $614 $744 forward 7 unknown #
vertex $-1 $455 $745 #
straight-curve $-1 7.3532825163213644 31.92759524440304 11.508853648066875 1 0 0 I I #
coedge $-1 $738 $456 $459 $627 reversed $612 $-1 #
coedge $-1 $456 $738 $618 $742 forward $612 $-1 #
vertex $-1 $457 $746 #
straight-curve $-1 5.0811308846786041 39.563420076607464 73.047976719283753 0 0 1 I I #
straight-curve $-1 5.0811308846786041 -8.0563001985943856 64.569276552514864 0 0.60181501223851219 -0.79863551827123203 I I #
edge $-1 $740 -24.331999180606854 $460 -5.0811308846786041 $622 $747 forward 7 unknown #
point $-1 5.0811308846786041 39.563420076607464 11.508853648066868 #
point $-1 5.0811308846786041 31.927595244403044 11.508853648066868 #
edge $-1 $748 1 $748 0 $463 $-1 forward 7 unknown #
vertex $-1 $464 $749 #
ellipse-curve $-1 8.9313045438642433 34.250847651274476 5.3160055313674777 0 0.79863551827123203 0.60181501223851219 1 0 0 1 I I #
point $-1 9.9313045438642433 35.745507660505261 6.4423126028270108 #
edge $-1 $750 1 $750 0 $467 $-1 forward 7 unknown #
vertex $-1 $468 $751 #
ellipse-curve $-1 14.706565032642729 34.250847651274476 5.3160055313674777 0 0.79863551827123203 0.60181501223851219 1 0 0 1 I I #
point $-1 15.706565032642729 35.745507660505261 6.4423126028270108 #
edge $-1 $752 1 $752 0 $471 $-1 forward 7 unknown #
vertex $-1 $472 $753 #
ellipse-curve $-1 20.481825521421186 34.250847651274476 5.3160055313674777 0 0.79863551827123203 0.60181501223851219 1 0 0 1 I I #
point $-1 21.481825521421186 35.745507660505261 6.4423126028270108 #
loop $-1 $-1 $483 $475 #
plane-surface $-1 0 39.563420076607464 0 0 -1 0 0 0 -1 forward_v I I I I #
coedge $-1 $645 $478 $480 $649 reversed $332 $-1 #
coedge $-1 $478 $644 $754 $755 reversed $332 $-1 #
coedge $-1 $486 $481 $478 $647 forward $476 $-1 #
edge $-1 $650 -18.139033387093029 $756 -10.503208554888609 $646 $757 forward 7 unknown #
coedge $-1 $480 $479 $653 $758 reversed $210 $-1 #
edge $-1 $759 -79.126840153214943 $650 -66.438846871355466 $644 $760 forward 7 unknown #
vertex $-1 $482 $761 #
straight-curve $-1 24.286782684173168 31.92759524440304 11.508853648066875 1 0 0 I I #
coedge $-1 $754 $483 $486 $657 reversed $642 $-1 #
coedge $-1 $483 $754 $648 $758 forward $642 $-1 #
vertex $-1 $484 $762 #
straight-curve $-1 38.948131220382209 39.563420076607464 73.047976719283753 0 0 1 I I #
straight-curve $-1 38.948131220382209 -8.0563001985943856 64.569276552514864 0 0.60181501223851219 -0.79863551827123203 I I #
edge $-1 $756 -58.198999516310465 $487 -38.948131220382209 $652 $763 forward 7 unknown #
point $-1 38.948131220382209 39.563420076607464 11.508853648066868 #
point $-1 38.948131220382209 31.927595244403044 11.508853648066868 #
edge $-1 $764 1 $764 0 $490 $-1 forward 7 unknown #
vertex $-1 $491 $765 #
ellipse-curve $-1 42.798304879567851 34.250847651274476 5.3160055313674777 0 0.79863551827123203 0.60181501223851219 1 0 0 1 I I #
point $-1 43.798304879567851 35.745507660505261 6.4423126028270108 #
edge $-1 $766 1 $766 0 $494 $-1 forward 7 unknown #
vertex $-1 $495 $767 #
ellipse-curve $-1 48.573565368346337 34.250847651274476 5.3160055313674777 0 0.79863551827123203 0.60181501223851219 1 0 0 1 I I #
point $-1 49.573565368346337 35.745507660505261 6.4423126028270108 #
edge $-1 $768 1 $768 0 $498 $-1 forward 7 unknown #
vertex $-1 $499 $769 #
ellipse-curve $-1 54.348825857124794 34.250847651274476 5.3160055313674777 0 0.79863551827123203 0.60181501223851219 1 0 0 1 I I #
point $-1 55.348825857124794 35.745507660505261 6.4423126028270108 #
plane-surface $-1 67.734000671407202 0 0 -1 0 0 0 0 1 forward_v I I I I #
coedge $-1 $507 $505 $509 $677 reversed $361 $-1 #
edge $-1 $520 -11.508853648066868 $679 11.508853648066868 $519 $770 forward 7 unknown #
vertex $-1 $677 $771 #
straight-curve $-1 -67.734000671407202 -39.563420076607464 0 0 0 -1 I I #
edge $-1 $675 -39.563420076607464 $679 39.563420076607464 $673 $772 forward 7 unknown #
straight-curve $-1 0 -39.563420076607464 -11.508853648066868 -1 0 0 I I #
vertex $-1 $512 $773 #
straight-curve $-1 0 39.563420076607464 -11.508853648066868 1 0 0 I I #
point $-1 67.734000671407202 39.563420076607464 -11.508853648066868 #
point $-1 67.734000671407202 -39.563420076607464 -11.508853648066868 #
straight-curve $-1 -67.734000671407202 0 11.508853648066868 0 -1 0 I I #
point $-1 -67.734000671407202 39.563420076607464 11.508853648066868 #
point $-1 -67.734000671407202 -39.563420076607464 11.508853648066868 #
straight-curve $-1 67.734000671407202 -39.563420076607464 0 0 0 -1 I I #
straight-curve $-1 67.734000671407202 39.563420076607464 0 0 0 -1 I I #
plane-surface $-1 0 0 11.508853648066868 0 0 1 1 0 0 forward_v I I I I #
coedge $-1 $537 $701 $690 $774 forward $530 $-1 #
coedge $-1 $533 $532 $689 $774 reversed $237 $-1 #
edge $-1 $697 -3.2478872209552065 $695 3.2478872209552065 $532 $775 forward 7 unknown #
coedge $-1 $545 $544 $533 $693 forward $546 $-1 #
edge $-1 $694 -3.2478872209552065 $776 3.2478872209552065 $533 $777 forward 7 unknown #
vertex $-1 $549 $778 #
vertex $-1 $539 $779 #
straight-curve $-1 -51.712067817183879 -51.214382620392826 0 0 0 -1 I I #
vertex $-1 $774 $780 #
straight-curve $-1 -45.216293375273466 -45.388901348500141 -11.508853648066868 0 -1 0 I I #
straight-curve $-1 -51.712067817183879 -45.388901348500141 -11.508853648066868 0 1 0 I I #
point $-1 -45.216293375273466 -39.563420076607457 -11.508853648066868 #
coedge $-1 $689 $542 $545 $703 reversed $530 $-1 #
straight-curve $-1 -45.216293375273466 -39.563420076607464 0 0 0 -1 I I #
edge $-1 $776 -5.8254812718926843 $547 5.8254812718926843 $701 $781 forward 7 unknown #
point $-1 -45.216293375273466 -39.563420076607457 11.508853648066868 #
straight-curve $-1 -51.712067817183879 -45.388901348500141 11.508853648066868 0 -1 0 I I #
coedge $-1 $563 $562 $555 $707 forward $552 $-1 #
edge $-1 $708 61.539123071216885 $711 71.672205161696638 $706 $782 forward 7 unknown #
vertex $-1 $567 $783 #
straight-curve $-1 -43.402001490800359 50.066628631496073 11.508853648066861 0 1 0 I I #
edge $-1 $711 16.888283671418119 $564 36.139151967346365 $563 $784 forward 7 unknown #
vertex $-1 $710 $785 #
straight-curve $-1 -43.402001490800359 -8.0563001985943856 64.569276552514864 0 -0.60181501223851219 0.79863551827123203 I I #
point $-1 -43.402001490800359 31.927595244403044 11.508853648066868 #
point $-1 -62.652869786728601 39.563420076607464 1.3757715575871146 #
straight-curve $-1 0 39.563420076607464 11.508853648066868 -1 0 0 I I #
vertex $-1 $570 $786 #
point $-1 -57.802696127542958 34.250847651274476 5.3160055313674777 #
vertex $-1 $574 $787 #
point $-1 -52.02743563876448 34.250847651274476 5.3160055313674777 #
vertex $-1 $578 $788 #
point $-1 -46.252175149986002 34.250847651274476 5.3160055313674777 #
coedge $-1 $593 $592 $585 $723 forward $582 $-1 #
edge $-1 $724 61.539123071216885 $727 71.672205161696638 $722 $789 forward 7 unknown #
vertex $-1 $597 $790 #
straight-curve $-1 -9.5350011550967544 50.066628631496073 11.508853648066861 0 1 0 I I #
edge $-1 $727 -0.045216496433685194 $594 19.205651799494564 $593 $791 forward 7 unknown #
vertex $-1 $726 $792 #
straight-curve $-1 -9.5350011550967544 -8.0563001985943856 64.569276552514864 0 -0.60181501223851219 0.79863551827123203 I I #
point $-1 -9.5350011550967544 31.927595244403044 11.508853648066868 #
point $-1 -28.785869451025004 39.563420076607464 1.3757715575871146 #
straight-curve $-1 0 39.563420076607464 11.508853648066868 -1 0 0 I I #
vertex $-1 $600 $793 #
point $-1 -23.93569579183935 34.250847651274476 5.3160055313674777 #
vertex $-1 $604 $794 #
point $-1 -18.160435303060879 34.250847651274476 5.3160055313674777 #
vertex $-1 $608 $795 #
point $-1 -12.385174814282408 34.250847651274476 5.3160055313674777 #
coedge $-1 $623 $622 $615 $739 forward $612 $-1 #
edge $-1 $740 61.539123071216885 $743 71.672205161696638 $738 $796 forward 7 unknown #
vertex $-1 $627 $797 #
straight-curve $-1 24.331999180606854 50.066628631496073 11.508853648066861 0 1 0 I I #
edge $-1 $743 -16.978716664285489 $624 2.2721516316427603 $623 $798 forward 7 unknown #
vertex $-1 $742 $799 #
straight-curve $-1 24.331999180606854 -8.0563001985943856 64.569276552514864 0 -0.60181501223851219 0.79863551827123203 I I #
point $-1 24.331999180606854 31.927595244403044 11.508853648066868 #
point $-1 5.0811308846786041 39.563420076607464 1.3757715575871146 #
straight-curve $-1 0 39.563420076607464 11.508853648066868 -1 0 0 I I #
vertex $-1 $630 $800 #
point $-1 9.9313045438642433 34.250847651274476 5.3160055313674777 #
vertex $-1 $634 $801 #
point $-1 15.706565032642729 34.250847651274476 5.3160055313674777 #
vertex $-1 $638 $802 #
point $-1 21.481825521421186 34.250847651274476 5.3160055313674777 #
coedge $-1 $653 $652 $645 $755 forward $642 $-1 #
edge $-1 $756 61.539123071216885 $759 71.672205161696638 $754 $803 forward 7 unknown #
vertex $-1 $657 $804 #
straight-curve $-1 58.198999516310465 50.066628631496073 11.508853648066861 0 1 0 I I #
edge $-1 $759 -33.912216832137297 $654 -14.66134853620904 $653 $805 forward 7 unknown #
vertex $-1 $758 $806 #
straight-curve $-1 58.198999516310465 -8.0563001985943856 64.569276552514864 0 -0.60181501223851219 0.79863551827123203 I I #
point $-1 58.198999516310465 31.927595244403044 11.508853648066868 #
point $-1 38.948131220382209 39.563420076607464 1.3757715575871146 #
straight-curve $-1 0 39.563420076607464 11.508853648066868 -1 0 0 I I #
vertex $-1 $660 $807 #
point $-1 43.798304879567851 34.250847651274476 5.3160055313674777 #
vertex $-1 $664 $808 #
point $-1 49.573565368346337 34.250847651274476 5.3160055313674777 #
vertex $-1 $668 $809 #
point $-1 55.348825857124794 34.250847651274476 5.3160055313674777 #
straight-curve $-1 -67.734000671407202 39.563420076607464 0 0 0 -1 I I #
point $-1 -67.734000671407202 -39.563420076607464 -11.508853648066868 #
straight-curve $-1 -67.734000671407202 0 -11.508853648066868 0 1 0 I I #
point $-1 -67.734000671407202 39.563420076607464 -11.508853648066868 #
edge $-1 $776 -11.508853648066868 $697 11.508853648066868 $689 $810 forward 7 unknown #
straight-curve $-1 -48.464180596228672 -51.214382620392826 -11.508853648066868 -1 0 0 I I #
vertex $-1 $703 $811 #
straight-curve $-1 -48.464180596228672 -51.214382620392826 11.508853648066868 1 0 0 I I #
point $-1 -51.712067817183879 -51.214382620392826 11.508853648066868 #
point $-1 -51.712067817183879 -51.214382620392826 -11.508853648066868 #
point $-1 -45.216293375273466 -51.214382620392826 -11.508853648066868 #
straight-curve $-1 -45.216293375273466 -45.388901348500141 11.508853648066868 0 1 0 I I #
straight-curve $-1 -43.402001490800359 39.563420076607464 73.047976719283753 0 0 -1 I I #
point $-1 -43.402001490800359 39.563420076607464 11.508853648066868 #
straight-curve $-1 -26.51371781938224 39.563420076607464 1.3757715575871181 -1 0 0 I I #
point $-1 -43.402001490800359 39.563420076607464 1.3757715575871146 #
point $-1 -58.802696127542958 33.45221213300325 4.714190519128965 #
point $-1 -53.02743563876448 33.45221213300325 4.714190519128965 #
point $-1 -47.252175149986002 33.45221213300325 4.714190519128965 #
straight-curve $-1 -9.5350011550967544 39.563420076607464 73.047976719283753 0 0 -1 I I #
point $-1 -9.5350011550967544 39.563420076607464 11.508853648066868 #
straight-curve $-1 -9.5802176515304396 39.563420076607464 1.3757715575871181 -1 0 0 I I #
point $-1 -9.5350011550967544 39.563420076607464 1.3757715575871146 #
point $-1 -24.93569579183935 33.45221213300325 4.714190519128965 #
point $-1 -19.160435303060879 33.45221213300325 4.714190519128965 #
point $-1 -13.385174814282408 33.45221213300325 4.714190519128965 #
straight-curve $-1 24.331999180606854 39.563420076607464 73.047976719283753 0 0 -1 I I #
point $-1 24.331999180606854 39.563420076607464 11.508853648066868 #
straight-curve $-1 7.3532825163213644 39.563420076607464 1.3757715575871181 -1 0 0 I I #
point $-1 24.331999180606854 39.563420076607464 1.3757715575871146 #
point $-1 8.9313045438642433 33.45221213300325 4.714190519128965 #
point $-1 14.706565032642729 33.45221213300325 4.714190519128965 #
point $-1 20.481825521421186 33.45221213300325 4.714190519128965 #
straight-curve $-1 58.198999516310465 39.563420076607464 73.047976719283753 0 0 -1 I I #
point $-1 58.198999516310465 39.563420076607464 11.508853648066868 #
straight-curve $-1 24.286782684173168 39.563420076607464 1.3757715575871181 -1 0 0 I I #
point $-1 58.198999516310465 39.563420076607464 1.3757715575871146 #
point $-1 42.798304879567851 33.45221213300325 4.714190519128965 #
point $-1 48.573565368346337 33.45221213300325 4.714190519128965 #
point $-1 54.348825857124794 33.45221213300325 4.714190519128965 #
straight-curve $-1 -45.216293375273466 -51.214382620392826 0 0 0 -1 I I #
point $-1 -45.216293375273466 -51.214382620392826 11.508853648066868 #
End-of-ACIS-data 