500 0 10 0           
7 Unknown 11 ACIS 5.0 NT 24 Thu Mar 25 15:46:18 1999 
-1 9.9999999999999995e-007 1e-010 
body $-1 $10 $-1 $11 #
body $-1 $12 $-1 $13 #
body $-1 $14 $-1 $15 #
body $-1 $16 $-1 $17 #
body $-1 $18 $-1 $19 #
body $-1 $20 $-1 $21 #
body $-1 $22 $-1 $23 #
body $-1 $24 $-1 $25 #
body $-1 $26 $-1 $27 #
body $-1 $28 $-1 $29 #
lump $-1 $-1 $30 $0 #
transform $-1 1 0 0 0 1 0 0 0 1 40.941190832239755 21.408318238459302 5.6854513782486293 1 rotate no_reflect no_shear #
lump $-1 $-1 $31 $1 #
transform $-1 1 0 0 0 1 0 0 0 1 40.941190832239755 21.408318238459302 5.6854513782486293 1 rotate no_reflect no_shear #
lump $-1 $-1 $32 $2 #
transform $-1 1 0 0 0 1 0 0 0 1 40.941190832239755 21.408318238459302 5.6854513782486293 1 rotate no_reflect no_shear #
lump $-1 $-1 $33 $3 #
transform $-1 1 0 0 0 1 0 0 0 1 40.941190832239755 21.408318238459302 5.6854513782486293 1 rotate no_reflect no_shear #
lump $-1 $-1 $34 $4 #
transform $-1 1 0 0 0 1 0 0 0 1 40.941190832239755 21.408318238459302 5.6854513782486293 1 rotate no_reflect no_shear #
lump $-1 $-1 $35 $5 #
transform $-1 1 0 0 0 1 0 0 0 1 40.941190832239755 21.408318238459302 5.6854513782486293 1 rotate no_reflect no_shear #
lump $-1 $-1 $36 $6 #
transform $-1 1 0 0 0 1 0 0 0 1 40.941190832239755 21.408318238459302 5.6854513782486293 1 rotate no_reflect no_shear #
lump $-1 $-1 $37 $7 #
transform $-1 1 0 0 0 1 0 0 0 1 40.941190832239755 21.408318238459302 5.6854513782486293 1 rotate no_reflect no_shear #
lump $-1 $-1 $38 $8 #
transform $-1 1 0 0 0 1 0 0 0 1 40.941190832239755 21.408318238459302 5.6854513782486293 1 rotate no_reflect no_shear #
lump $-1 $-1 $39 $9 #
transform $-1 1 0 0 0 1 0 0 0 1 40.941190832239755 21.408318238459302 5.6854513782486293 1 rotate no_reflect no_shear #
shell $-1 $-1 $-1 $40 $-1 $10 #
shell $-1 $-1 $-1 $41 $-1 $12 #
shell $-1 $-1 $-1 $42 $-1 $14 #
shell $-1 $-1 $-1 $43 $-1 $16 #
shell $-1 $-1 $-1 $44 $-1 $18 #
shell $-1 $-1 $-1 $45 $-1 $20 #
shell $-1 $-1 $-1 $46 $-1 $22 #
shell $-1 $-1 $-1 $47 $-1 $24 #
shell $-1 $-1 $-1 $48 $-1 $26 #
shell $-1 $-1 $-1 $49 $-1 $28 #
face $-1 $50 $51 $30 $-1 $52 forward single #
face $-1 $53 $54 $31 $-1 $55 forward single #
face $-1 $56 $57 $32 $-1 $58 reversed single #
face $-1 $59 $60 $33 $-1 $61 forward single #
face $-1 $62 $63 $34 $-1 $64 forward single #
face $-1 $65 $66 $35 $-1 $67 reversed single #
face $-1 $68 $69 $36 $-1 $70 forward single #
face $-1 $71 $72 $37 $-1 $73 forward single #
face $-1 $74 $75 $38 $-1 $76 reversed single #
face $-1 $77 $78 $39 $-1 $79 forward single #
face $-1 $80 $81 $30 $-1 $82 reversed single #
loop $-1 $-1 $83 $40 #
plane-surface $-1 0 0 5.6854513782486293 0 0 1 1 0 0 forward_v I I I I #
face $-1 $84 $85 $31 $-1 $86 reversed single #
loop $-1 $-1 $87 $41 #
plane-surface $-1 0 -21.408318238459302 0 0 1 0 0 0 1 forward_v I I I I #
face $-1 $88 $89 $32 $-1 $90 reversed single #
loop $-1 $-1 $91 $42 #
plane-surface $-1 14.892045329164702 -1.2923523930383531 114.92342162682377 0 -1 0 -0.52991927123019833 0 -0.84804809178421925 forward_v I I I I #
face $-1 $92 $93 $33 $-1 $94 forward single #
loop $-1 $95 $96 $43 #
cone-surface $-1 37.532173875946292 -7.6496809332081472 3.0345651022683198 -0.52991927123019833 0 -0.84804809178421925 0.84804809178421925 0 -0.52991927123019833 1 I I 0 1 1 forward I I I I #
face $-1 $97 $98 $34 $-1 $99 forward single #
loop $-1 $100 $101 $44 #
cone-surface $-1 37.532173875946292 -3.8352838091062722 3.0345651022683198 -0.52991927123019833 0 -0.84804809178421925 0.84804809178421925 0 -0.52991927123019833 1 I I 0 1 1 forward I I I I #
face $-1 $102 $103 $35 $-1 $104 reversed single #
loop $-1 $-1 $105 $45 #
plane-surface $-1 14.892045329164702 17.182995149059227 114.92342162682377 0 -1 0 -0.52991927123019833 0 -0.84804809178421925 forward_v I I I I #
face $-1 $106 $107 $36 $-1 $108 forward single #
loop $-1 $109 $110 $46 #
cone-surface $-1 37.532173875946292 10.825666608889428 3.0345651022683198 -0.52991927123019833 0 -0.84804809178421925 0.84804809178421925 0 -0.52991927123019833 1 I I 0 1 1 forward I I I I #
face $-1 $111 $112 $37 $-1 $113 forward single #
loop $-1 $114 $115 $47 #
cone-surface $-1 37.532173875946292 14.640063732991308 3.0345651022683198 -0.52991927123019833 0 -0.84804809178421925 0.84804809178421925 0 -0.52991927123019833 1 I I 0 1 1 forward I I I I #
face $-1 $116 $117 $38 $-1 $118 reversed single #
loop $-1 $-1 $119 $48 #
plane-surface $-1 -110.38138936044258 6.6015928019774464 45.694504993403903 0 1 0 -0.84804810408105047 0 0.52991925155115449 forward_v I I I I #
face $-1 $120 $121 $39 $-1 $122 forward single #
loop $-1 $123 $124 $49 #
cone-surface $-1 -39.410673091896349 10.136121899682021 3.6983494618854769 0.84804810408105047 0 -0.52991925155115449 0.26495962577557725 0 0.42402405204052523 1 I I 0 1 0.5 forward I I I I #
face $-1 $125 $126 $30 $-1 $127 reversed single #
loop $-1 $-1 $128 $50 #
plane-surface $-1 0 0 -5.6854513782486293 0 0 1 1 0 0 forward_v I I I I #
coedge $-1 $129 $130 $131 $132 forward $51 $-1 #
face $-1 $133 $134 $31 $-1 $135 reversed single #
loop $-1 $-1 $136 $53 #
plane-surface $-1 0 0 -5.6854513782486293 0 0 1 1 0 0 forward_v I I I I #
coedge $-1 $137 $138 $139 $140 forward $54 $-1 #
face $-1 $141 $142 $32 $-1 $143 reversed single #
loop $-1 $-1 $144 $56 #
plane-surface $-1 -28.499006689069233 -5.7424823711572088 45.483224105514779 0.52991927123019833 0 0.84804809178421925 0.84804809178421925 0 -0.52991927123019833 forward_v I I I I #
coedge $-1 $145 $146 $147 $148 reversed $57 $-1 #
face $-1 $-1 $149 $33 $-1 $150 forward single #
loop $-1 $151 $152 $59 #
cone-surface $-1 36.733421692162011 -7.6496809332081472 1.7562944258798012 -0.52991927123019833 0 -0.84804809178421925 0.42402404589210962 0 -0.26495963561509916 1 I I -0.70710678118654746 0.70710678118654746 0.5 forward I I I I #
loop $-1 $-1 $153 $43 #
coedge $-1 $96 $96 $154 $155 reversed $60 $-1 #
face $-1 $-1 $156 $34 $-1 $157 forward single #
loop $-1 $158 $159 $62 #
cone-surface $-1 36.733421692162011 -3.8352838091062722 1.7562944258798012 -0.52991927123019833 0 -0.84804809178421925 0.42402404589210962 0 -0.26495963561509916 1 I I -0.70710678118654746 0.70710678118654746 0.5 forward I I I I #
loop $-1 $-1 $160 $44 #
coedge $-1 $101 $101 $161 $162 reversed $63 $-1 #
face $-1 $163 $164 $35 $-1 $165 reversed single #
loop $-1 $-1 $166 $65 #
plane-surface $-1 -28.499006689069233 12.732865170940372 45.483224105514779 0.52991927123019833 0 0.84804809178421925 0.84804809178421925 0 -0.52991927123019833 forward_v I I I I #
coedge $-1 $167 $168 $169 $170 reversed $66 $-1 #
face $-1 $-1 $171 $36 $-1 $172 forward single #
loop $-1 $173 $174 $68 #
cone-surface $-1 36.733421692162011 10.825666608889428 1.7562944258798012 -0.52991927123019833 0 -0.84804809178421925 0.42402404589210962 0 -0.26495963561509916 1 I I -0.70710678118654746 0.70710678118654746 0.5 forward I I I I #
loop $-1 $-1 $175 $46 #
coedge $-1 $110 $110 $176 $177 reversed $69 $-1 #
face $-1 $-1 $178 $37 $-1 $179 forward single #
loop $-1 $180 $181 $71 #
cone-surface $-1 36.733421692162011 14.640063732991308 1.7562944258798012 -0.52991927123019833 0 -0.84804809178421925 0.42402404589210962 0 -0.26495963561509916 1 I I -0.70710678118654746 0.70710678118654746 0.5 forward I I I I #
loop $-1 $-1 $182 $47 #
coedge $-1 $115 $115 $183 $184 reversed $72 $-1 #
face $-1 $185 $186 $38 $-1 $187 reversed single #
loop $-1 $-1 $188 $74 #
plane-surface $-1 -40.941190832239769 10.136121899682021 2.3034545865369438 -0.84804810408105047 0 0.52991925155115449 0.52991925155115449 0 0.84804810408105047 forward_v I I I I #
coedge $-1 $189 $190 $191 $192 reversed $75 $-1 #
face $-1 $-1 $193 $39 $-1 $194 forward single #
loop $-1 $195 $196 $77 #
cone-surface $-1 -38.724796362069029 10.136121899682021 3.2697661284903798 0.84804810408105047 0 -0.52991925155115449 0.13247981288778862 0 0.21201202602026262 1 I I -0.70710678118654746 0.70710678118654746 0.25 forward I I I I #
loop $-1 $-1 $197 $49 #
coedge $-1 $124 $124 $198 $199 reversed $78 $-1 #
face $-1 $200 $201 $30 $-1 $202 reversed single #
loop $-1 $-1 $203 $80 #
plane-surface $-1 0 -21.408318238459302 0 0 1 0 0 0 1 forward_v I I I I #
coedge $-1 $204 $205 $206 $207 forward $81 $-1 #
coedge $-1 $208 $83 $209 $210 forward $51 $-1 #
coedge $-1 $83 $208 $211 $212 forward $51 $-1 #
coedge $-1 $213 $214 $83 $132 reversed $215 $-1 #
edge $-1 $216 -21.408318238459302 $217 21.408318238459302 $131 $218 forward 7 unknown #
face $-1 $219 $220 $31 $-1 $221 reversed single #
loop $-1 $-1 $222 $84 #
plane-surface $-1 -34.53161689582921 -28.398701038242464 0 0 1 0 0 0 1 forward_v I I I I #
coedge $-1 $223 $224 $138 $225 forward $85 $-1 #
coedge $-1 $226 $87 $227 $228 reversed $54 $-1 #
coedge $-1 $87 $226 $136 $225 reversed $54 $-1 #
coedge $-1 $229 $230 $87 $140 reversed $220 $-1 #
edge $-1 $231 -5.6854513782486293 $232 5.6854513782486293 $139 $233 forward 7 unknown #
face $-1 $234 $235 $32 $-1 $236 forward single #
loop $-1 $-1 $237 $88 #
plane-surface $-1 14.892045329164702 -10.192612349276065 114.92342162682377 0 1 0 0.52991927123019833 0 0.84804809178421925 forward_v I I I I #
coedge $-1 $238 $239 $240 $241 reversed $89 $-1 #
coedge $-1 $146 $91 $242 $243 reversed $57 $-1 #
coedge $-1 $91 $145 $238 $244 reversed $57 $-1 #
coedge $-1 $240 $245 $91 $148 forward $235 $-1 #
edge $-1 $246 -33.495168167657404 $247 -27.744719351408868 $147 $248 forward 7 unknown #
loop $-1 $-1 $154 $92 #
plane-surface $-1 -28.499006689069233 -5.7424823711572088 45.483224105514779 0.52991927123019833 0 0.84804809178421925 0.84804809178421925 0 -0.52991927123019833 forward_v I I I I #
loop $-1 $-1 $249 $59 #
coedge $-1 $152 $152 $153 $250 reversed $93 $-1 #
coedge $-1 $153 $153 $152 $250 forward $95 $-1 #
coedge $-1 $154 $154 $96 $155 forward $149 $-1 #
edge $-1 $251 0 $251 6.2831853071796004 $154 $252 forward 7 unknown #
loop $-1 $-1 $161 $97 #
plane-surface $-1 -28.499006689069233 -5.7424823711572088 45.483224105514779 0.52991927123019833 0 0.84804809178421925 0.84804809178421925 0 -0.52991927123019833 forward_v I I I I #
loop $-1 $-1 $253 $62 #
coedge $-1 $159 $159 $160 $254 reversed $98 $-1 #
coedge $-1 $160 $160 $159 $254 forward $100 $-1 #
coedge $-1 $161 $161 $101 $162 forward $156 $-1 #
edge $-1 $255 0 $255 6.2831853071796004 $161 $256 forward 7 unknown #
face $-1 $257 $258 $35 $-1 $259 reversed single #
loop $-1 $-1 $260 $102 #
plane-surface $-1 14.892045329164702 8.2827351928215158 114.92342162682377 0 1 0 0.52991927123019833 0 0.84804809178421925 forward_v I I I I #
coedge $-1 $261 $262 $263 $264 reversed $103 $-1 #
coedge $-1 $168 $105 $265 $266 reversed $66 $-1 #
coedge $-1 $105 $167 $261 $267 reversed $66 $-1 #
coedge $-1 $263 $268 $105 $170 forward $269 $-1 #
edge $-1 $270 -33.495168167657404 $271 -27.744719351408868 $169 $272 forward 7 unknown #
loop $-1 $-1 $176 $106 #
plane-surface $-1 -28.499006689069233 12.732865170940372 45.483224105514779 0.52991927123019833 0 0.84804809178421925 0.84804809178421925 0 -0.52991927123019833 forward_v I I I I #
loop $-1 $-1 $273 $68 #
coedge $-1 $174 $174 $175 $274 reversed $107 $-1 #
coedge $-1 $175 $175 $174 $274 forward $109 $-1 #
coedge $-1 $176 $176 $110 $177 forward $171 $-1 #
edge $-1 $275 0 $275 6.2831853071796004 $176 $276 forward 7 unknown #
loop $-1 $-1 $183 $111 #
plane-surface $-1 -28.499006689069233 12.732865170940372 45.483224105514779 0.52991927123019833 0 0.84804809178421925 0.84804809178421925 0 -0.52991927123019833 forward_v I I I I #
loop $-1 $-1 $277 $71 #
coedge $-1 $181 $181 $182 $278 reversed $112 $-1 #
coedge $-1 $182 $182 $181 $278 forward $114 $-1 #
coedge $-1 $183 $183 $115 $184 forward $178 $-1 #
edge $-1 $279 0 $279 6.2831853071796004 $183 $280 forward 7 unknown #
face $-1 $281 $282 $38 $-1 $283 reversed single #
loop $-1 $-1 $284 $116 #
plane-surface $-1 -110.38138936044258 13.670650997386595 45.694504993403903 0 -1 0 0.84804810408105047 0 -0.52991925155115449 forward_v I I I I #
coedge $-1 $285 $286 $287 $288 reversed $117 $-1 #
coedge $-1 $190 $119 $289 $290 reversed $75 $-1 #
coedge $-1 $119 $189 $285 $291 reversed $75 $-1 #
coedge $-1 $287 $292 $119 $192 forward $293 $-1 #
edge $-1 $294 14.249503847981536 $295 16.362809921054208 $191 $296 forward 7 unknown #
loop $-1 $-1 $198 $120 #
plane-surface $-1 -40.941190832239769 10.136121899682021 2.3034545865369438 -0.84804810408105047 0 0.52991925155115449 0.52991925155115449 0 0.84804810408105047 forward_v I I I I #
loop $-1 $-1 $297 $77 #
coedge $-1 $196 $196 $197 $298 reversed $121 $-1 #
coedge $-1 $197 $197 $196 $298 forward $123 $-1 #
coedge $-1 $198 $198 $124 $199 forward $193 $-1 #
edge $-1 $299 0 $299 6.2831853071796004 $198 $300 forward 7 unknown #
face $-1 $301 $302 $30 $-1 $303 reversed single #
loop $-1 $-1 $304 $125 #
plane-surface $-1 -40.941190832239755 0 0 1 0 0 0 0 -1 forward_v I I I I #
coedge $-1 $305 $211 $306 $307 forward $126 $-1 #
coedge $-1 $308 $128 $305 $309 forward $81 $-1 #
coedge $-1 $128 $308 $310 $311 forward $81 $-1 #
coedge $-1 $214 $213 $128 $207 reversed $215 $-1 #
edge $-1 $312 -21.408318238459302 $313 21.408318238459302 $206 $314 forward 7 unknown #
coedge $-1 $130 $129 $315 $316 forward $51 $-1 #
coedge $-1 $317 $318 $129 $210 reversed $302 $-1 #
edge $-1 $217 -40.941190832239755 $319 40.941190832239755 $209 $320 forward 7 unknown #
coedge $-1 $203 $321 $130 $212 reversed $126 $-1 #
edge $-1 $322 -40.941190832239755 $216 40.941190832239755 $211 $323 forward 7 unknown #
coedge $-1 $206 $131 $321 $324 forward $215 $-1 #
coedge $-1 $131 $206 $317 $325 reversed $215 $-1 #
loop $-1 $-1 $213 $301 #
vertex $-1 $132 $326 #
vertex $-1 $132 $327 #
straight-curve $-1 40.941190832239755 0 5.6854513782486293 0 1 0 I I #
face $-1 $328 $329 $31 $-1 $330 reversed single #
loop $-1 $-1 $139 $133 #
plane-surface $-1 -36.03161689582921 -24.903509638350883 0 1 0 0 0 0 -1 forward_v I I I I #
coedge $-1 $331 $332 $333 $334 forward $134 $-1 #
coedge $-1 $335 $136 $336 $337 forward $85 $-1 #
coedge $-1 $136 $335 $229 $338 forward $85 $-1 #
edge $-1 $231 -36.03161689582921 $339 -33.03161689582921 $136 $340 forward 7 unknown #
coedge $-1 $138 $137 $341 $342 forward $54 $-1 #
coedge $-1 $343 $344 $137 $228 forward $345 $-1 #
edge $-1 $346 33.03161689582921 $232 36.03161689582921 $227 $347 forward 7 unknown #
coedge $-1 $333 $139 $224 $338 reversed $220 $-1 #
coedge $-1 $139 $333 $343 $348 reversed $220 $-1 #
vertex $-1 $225 $349 #
vertex $-1 $348 $350 #
straight-curve $-1 -36.03161689582921 -21.408318238459302 0 0 0 1 I I #
face $-1 $-1 $351 $32 $-1 $352 reversed single #
loop $-1 $-1 $147 $141 #
plane-surface $-1 0 0 5.6854513782486293 0 0 1 1 0 0 forward_v I I I I #
coedge $-1 $353 $354 $355 $356 reversed $142 $-1 #
coedge $-1 $357 $144 $146 $244 forward $89 $-1 #
coedge $-1 $144 $357 $353 $358 forward $89 $-1 #
coedge $-1 $355 $147 $144 $241 forward $235 $-1 #
edge $-1 $247 -1.5788887925402513 $359 7.3213711636974601 $240 $360 forward 7 unknown #
coedge $-1 $361 $362 $145 $243 forward $351 $-1 #
edge $-1 $363 -55.36953872613104 $246 -51.776259435163254 $242 $364 forward 7 unknown #
edge $-1 $247 75.101576575760902 $363 81.88238166447951 $146 $365 forward 7 unknown #
coedge $-1 $147 $355 $361 $366 forward $235 $-1 #
vertex $-1 $148 $367 #
vertex $-1 $148 $368 #
straight-curve $-1 7.4460226645823511 -1.2923523930383531 5.6854513782486293 -1 0 0 I I #
coedge $-1 $249 $249 $-1 $369 reversed $151 $-1 #
edge $-1 $370 0 $370 6.2831853071796004 $152 $371 forward 7 unknown #
vertex $-1 $155 $372 #
ellipse-curve $-1 38.06596642411548 -7.6496809332081472 3.8888117327647467 0.52991927123019833 0 0.84804809178421925 0.84804809178421925 0 -0.52991927123019833 1 I I #
coedge $-1 $253 $253 $-1 $373 reversed $158 $-1 #
edge $-1 $374 0 $374 6.2831853071796004 $159 $375 forward 7 unknown #
vertex $-1 $162 $376 #
ellipse-curve $-1 38.06596642411548 -3.8352838091062722 3.8888117327647467 0.52991927123019833 0 0.84804809178421925 0.84804809178421925 0 -0.52991927123019833 1 I I #
face $-1 $-1 $269 $35 $-1 $377 forward single #
loop $-1 $-1 $378 $163 #
plane-surface $-1 40.941190832239755 0 0 -1 0 0 0 0 1 forward_v I I I I #
coedge $-1 $379 $380 $381 $382 reversed $164 $-1 #
coedge $-1 $383 $166 $168 $267 forward $103 $-1 #
coedge $-1 $166 $383 $379 $384 forward $103 $-1 #
coedge $-1 $381 $169 $166 $264 forward $269 $-1 #
edge $-1 $271 -10.816562563589041 $385 -1.9163026073513301 $263 $386 forward 7 unknown #
coedge $-1 $387 $388 $167 $266 forward $258 $-1 #
edge $-1 $389 -55.36953872613104 $270 -51.776259435163254 $265 $390 forward 7 unknown #
edge $-1 $271 75.101576575760902 $389 81.88238166447951 $168 $391 forward 7 unknown #
coedge $-1 $169 $381 $387 $392 forward $269 $-1 #
loop $-1 $-1 $381 $257 #
vertex $-1 $266 $393 #
vertex $-1 $170 $394 #
straight-curve $-1 7.4460226645823511 17.182995149059227 5.6854513782486293 -1 0 0 I I #
coedge $-1 $273 $273 $-1 $395 reversed $173 $-1 #
edge $-1 $396 0 $396 6.2831853071796004 $174 $397 forward 7 unknown #
vertex $-1 $177 $398 #
ellipse-curve $-1 38.06596642411548 10.825666608889428 3.8888117327647467 0.52991927123019833 0 0.84804809178421925 0.84804809178421925 0 -0.52991927123019833 1 I I #
coedge $-1 $277 $277 $-1 $399 reversed $180 $-1 #
edge $-1 $400 0 $400 6.2831853071796004 $181 $401 forward 7 unknown #
vertex $-1 $184 $402 #
ellipse-curve $-1 38.06596642411548 14.640063732991308 3.8888117327647467 0.52991927123019833 0 0.84804809178421925 0.84804809178421925 0 -0.52991927123019833 1 I I #
face $-1 $-1 $293 $38 $-1 $403 forward single #
loop $-1 $-1 $404 $185 #
plane-surface $-1 -40.941190832239755 0 0 1 0 0 0 0 -1 forward_v I I I I #
coedge $-1 $405 $406 $407 $408 reversed $186 $-1 #
coedge $-1 $409 $188 $190 $291 forward $117 $-1 #
coedge $-1 $188 $409 $405 $410 forward $117 $-1 #
coedge $-1 $407 $191 $188 $288 forward $293 $-1 #
edge $-1 $295 1.5335318521364361 $411 8.6025900475455845 $287 $412 forward 7 unknown #
coedge $-1 $413 $414 $189 $290 forward $282 $-1 #
edge $-1 $415 -20.543797910164987 $294 -17.161801118453322 $289 $416 forward 7 unknown #
edge $-1 $295 -3.9879775397604771 $415 -2.6737665129848107e-014 $190 $417 forward 7 unknown #
coedge $-1 $191 $407 $413 $418 forward $293 $-1 #
loop $-1 $-1 $407 $281 #
vertex $-1 $290 $419 #
vertex $-1 $192 $420 #
straight-curve $-1 -55.190694680221291 6.6015928019774464 5.6854513782486293 1 0 0 I I #
coedge $-1 $297 $297 $-1 $421 reversed $195 $-1 #
edge $-1 $422 0 $422 6.2831853071796004 $196 $423 forward 7 unknown #
vertex $-1 $199 $424 #
ellipse-curve $-1 -39.884537795703423 10.136121899682021 3.9944529823927923 -0.84804810408105047 0 0.52991925155115449 0.26495962577557725 0 0.42402405204052523 1 I I #
face $-1 $-1 $215 $30 $-1 $425 reversed single #
loop $-1 $-1 $317 $200 #
plane-surface $-1 0 21.408318238459302 0 0 -1 0 0 0 -1 forward_v I I I I #
coedge $-1 $426 $315 $318 $427 forward $201 $-1 #
coedge $-1 $321 $203 $204 $309 reversed $126 $-1 #
coedge $-1 $315 $426 $203 $307 reversed $201 $-1 #
edge $-1 $322 -5.6854513782486293 $428 5.6854513782486293 $306 $429 forward 7 unknown #
coedge $-1 $205 $204 $426 $430 forward $81 $-1 #
edge $-1 $313 -40.941190832239755 $428 40.941190832239755 $305 $431 forward 7 unknown #
coedge $-1 $318 $317 $205 $311 reversed $302 $-1 #
edge $-1 $432 -40.941190832239755 $312 40.941190832239755 $310 $433 forward 7 unknown #
vertex $-1 $207 $434 #
vertex $-1 $324 $435 #
straight-curve $-1 40.941190832239755 0 -5.6854513782486293 0 -1 0 I I #
coedge $-1 $304 $306 $208 $316 reversed $201 $-1 #
edge $-1 $319 -21.408318238459302 $322 21.408318238459302 $315 $436 forward 7 unknown #
coedge $-1 $310 $209 $214 $325 forward $302 $-1 #
coedge $-1 $209 $310 $304 $427 reversed $302 $-1 #
vertex $-1 $210 $437 #
straight-curve $-1 0 21.408318238459302 5.6854513782486293 -1 0 0 I I #
coedge $-1 $211 $305 $213 $324 reversed $126 $-1 #
vertex $-1 $316 $438 #
straight-curve $-1 0 -21.408318238459302 5.6854513782486293 1 0 0 I I #
edge $-1 $216 -5.6854513782486293 $313 5.6854513782486293 $213 $439 forward 7 unknown #
edge $-1 $217 -5.6854513782486293 $312 5.6854513782486293 $214 $440 forward 7 unknown #
point $-1 40.941190832239755 -21.408318238459302 5.6854513782486293 #
point $-1 40.941190832239755 21.408318238459302 5.6854513782486293 #
face $-1 $-1 $345 $31 $-1 $441 forward single #
loop $-1 $-1 $442 $219 #
plane-surface $-1 -33.03161689582921 -24.903509638350883 0 -1 0 0 0 0 1 forward_v I I I I #
coedge $-1 $443 $222 $335 $444 reversed $134 $-1 #
coedge $-1 $222 $443 $445 $446 reversed $134 $-1 #
coedge $-1 $230 $229 $222 $334 reversed $220 $-1 #
edge $-1 $447 -5.6854513782486293 $448 5.6854513782486293 $333 $449 forward 7 unknown #
coedge $-1 $224 $223 $331 $444 forward $85 $-1 #
coedge $-1 $341 $442 $223 $337 reversed $329 $-1 #
edge $-1 $339 -3.4951913998915813 $450 3.4951913998915813 $336 $451 forward 7 unknown #
edge $-1 $448 -3.4951913998915813 $231 3.4951913998915813 $229 $452 forward 7 unknown #
vertex $-1 $337 $453 #
straight-curve $-1 0 -21.408318238459302 -5.6854513782486293 1 0 0 I I #
coedge $-1 $454 $336 $226 $342 reversed $329 $-1 #
edge $-1 $346 -5.6854513782486293 $339 5.6854513782486293 $341 $455 forward 7 unknown #
coedge $-1 $445 $227 $230 $348 forward $345 $-1 #
coedge $-1 $227 $445 $454 $456 forward $345 $-1 #
loop $-1 $-1 $227 $328 #
vertex $-1 $228 $457 #
straight-curve $-1 0 -21.408318238459302 5.6854513782486293 -1 0 0 I I #
edge $-1 $232 -3.4951913998915813 $447 3.4951913998915813 $230 $458 forward 7 unknown #
point $-1 -36.03161689582921 -21.408318238459302 -5.6854513782486293 #
point $-1 -36.03161689582921 -21.408318238459302 5.6854513782486293 #
loop $-1 $-1 $242 $234 #
plane-surface $-1 40.941190832239755 0 0 -1 0 0 0 0 1 forward_v I I I I #
coedge $-1 $354 $237 $239 $358 reversed $142 $-1 #
coedge $-1 $237 $353 $459 $460 reversed $142 $-1 #
coedge $-1 $245 $240 $237 $356 forward $235 $-1 #
edge $-1 $359 27.744719351408868 $461 33.495168167657404 $355 $462 forward 7 unknown #
coedge $-1 $239 $238 $362 $463 reversed $89 $-1 #
edge $-1 $464 -81.88238166447951 $359 -75.101576575760902 $353 $465 forward 7 unknown #
vertex $-1 $241 $466 #
straight-curve $-1 35.190742015991219 -2.8712411855786044 5.6854513782486258 0 -1 0 I I #
coedge $-1 $459 $242 $245 $366 reversed $351 $-1 #
coedge $-1 $242 $459 $357 $463 forward $351 $-1 #
vertex $-1 $243 $467 #
straight-curve $-1 40.941190832239755 -1.2923523930383531 57.461710813411884 0 0 1 I I #
straight-curve $-1 -28.499006689069233 -1.2923523930383531 45.483224105514779 0.84804809178421925 0 -0.52991927123019833 I I #
edge $-1 $461 -10.192612349276065 $246 -1.2923523930383531 $361 $468 forward 7 unknown #
point $-1 40.941190832239755 -1.2923523930383531 5.6854513782486293 #
point $-1 35.190742015991219 -1.2923523930383531 5.6854513782486293 #
edge $-1 $469 1 $469 0 $249 $-1 forward 7 unknown #
vertex $-1 $250 $470 #
ellipse-curve $-1 36.998381327777111 -7.6496809332081472 2.1803184717719111 0.52991927123019833 0 0.84804809178421925 0.84804809178421925 0 -0.52991927123019833 1 I I #
point $-1 38.914014515899694 -7.6496809332081472 3.3588924615345301 #
edge $-1 $471 1 $471 0 $253 $-1 forward 7 unknown #
vertex $-1 $254 $472 #
ellipse-curve $-1 36.998381327777111 -3.8352838091062722 2.1803184717719111 0.52991927123019833 0 0.84804809178421925 0.84804809178421925 0 -0.52991927123019833 1 I I #
point $-1 38.914014515899694 -3.8352838091062722 3.3588924615345301 #
plane-surface $-1 0 0 5.6854513782486293 0 0 1 1 0 0 forward_v I I I I #
coedge $-1 $388 $387 $380 $473 forward $258 $-1 #
coedge $-1 $380 $260 $262 $384 reversed $164 $-1 #
coedge $-1 $260 $379 $378 $473 reversed $164 $-1 #
coedge $-1 $268 $263 $260 $382 forward $269 $-1 #
edge $-1 $385 27.744719351408868 $474 33.495168167657404 $381 $475 forward 7 unknown #
coedge $-1 $262 $261 $388 $476 reversed $103 $-1 #
edge $-1 $477 -81.88238166447951 $385 -75.101576575760902 $379 $478 forward 7 unknown #
vertex $-1 $264 $479 #
straight-curve $-1 35.190742015991219 6.3664325854701858 5.6854513782486258 0 -1 0 I I #
coedge $-1 $378 $265 $268 $392 reversed $258 $-1 #
coedge $-1 $265 $378 $383 $476 forward $258 $-1 #
vertex $-1 $266 $480 #
straight-curve $-1 40.941190832239755 17.182995149059227 57.461710813411884 0 0 1 I I #
straight-curve $-1 -28.499006689069233 17.182995149059227 45.483224105514779 0.84804809178421925 0 -0.52991927123019833 I I #
edge $-1 $474 8.2827351928215158 $270 17.182995149059227 $387 $481 forward 7 unknown #
point $-1 40.941190832239755 17.182995149059227 5.6854513782486293 #
point $-1 35.190742015991219 17.182995149059227 5.6854513782486293 #
edge $-1 $482 1 $482 0 $273 $-1 forward 7 unknown #
vertex $-1 $274 $483 #
ellipse-curve $-1 36.998381327777111 10.825666608889428 2.1803184717719111 0.52991927123019833 0 0.84804809178421925 0.84804809178421925 0 -0.52991927123019833 1 I I #
point $-1 38.914014515899694 10.825666608889428 3.3588924615345301 #
edge $-1 $484 1 $484 0 $277 $-1 forward 7 unknown #
vertex $-1 $278 $485 #
ellipse-curve $-1 36.998381327777111 14.640063732991308 2.1803184717719111 0.52991927123019833 0 0.84804809178421925 0.84804809178421925 0 -0.52991927123019833 1 I I #
point $-1 38.914014515899694 14.640063732991308 3.3588924615345301 #
plane-surface $-1 0 0 5.6854513782486293 0 0 1 1 0 0 forward_v I I I I #
coedge $-1 $414 $413 $406 $486 forward $282 $-1 #
coedge $-1 $406 $284 $286 $410 reversed $186 $-1 #
coedge $-1 $284 $405 $404 $486 reversed $186 $-1 #
coedge $-1 $292 $287 $284 $408 forward $293 $-1 #
edge $-1 $411 -16.362809921054208 $487 -14.249503847981536 $407 $488 forward 7 unknown #
coedge $-1 $286 $285 $414 $489 reversed $117 $-1 #
edge $-1 $490 2.6737665129848107e-014 $411 3.9879775397604771 $405 $491 forward 7 unknown #
vertex $-1 $288 $492 #
straight-curve $-1 -38.827884759167084 5.0680609498410103 5.6854513782486302 0 1 0 I I #
coedge $-1 $404 $289 $292 $418 reversed $282 $-1 #
coedge $-1 $289 $404 $409 $489 forward $282 $-1 #
vertex $-1 $290 $493 #
straight-curve $-1 -40.941190832239755 6.6015928019774464 22.847252496701952 0 0 1 I I #
straight-curve $-1 -40.941190832239769 6.6015928019774464 2.3034545865369438 -0.52991925155115449 0 -0.84804810408105047 I I #
edge $-1 $487 -13.670650997386595 $294 -6.6015928019774464 $413 $494 forward 7 unknown #
point $-1 -40.941190832239755 6.6015928019774464 5.6854513782486293 #
point $-1 -38.827884759167084 6.6015928019774464 5.6854513782486293 #
edge $-1 $495 1 $495 0 $297 $-1 forward 7 unknown #
vertex $-1 $298 $496 #
ellipse-curve $-1 -38.93680838808929 10.136121899682021 3.4022459413781685 -0.84804810408105047 0 0.52991925155115449 0.26495962577557725 0 0.42402405204052523 1 I I #
point $-1 -39.619578169927834 10.136121899682021 4.4184770344333106 #
plane-surface $-1 40.941190832239755 0 0 -1 0 0 0 0 1 forward_v I I I I #
coedge $-1 $306 $304 $308 $430 reversed $201 $-1 #
edge $-1 $319 -5.6854513782486293 $432 5.6854513782486293 $318 $497 forward 7 unknown #
vertex $-1 $430 $498 #
straight-curve $-1 -40.941190832239755 -21.408318238459302 0 0 0 -1 I I #
edge $-1 $428 -21.408318238459302 $432 21.408318238459302 $426 $499 forward 7 unknown #
straight-curve $-1 0 -21.408318238459302 -5.6854513782486293 -1 0 0 I I #
vertex $-1 $311 $500 #
straight-curve $-1 0 21.408318238459302 -5.6854513782486293 1 0 0 I I #
point $-1 40.941190832239755 21.408318238459302 -5.6854513782486293 #
point $-1 40.941190832239755 -21.408318238459302 -5.6854513782486293 #
straight-curve $-1 -40.941190832239755 0 5.6854513782486293 0 -1 0 I I #
point $-1 -40.941190832239755 21.408318238459302 5.6854513782486293 #
point $-1 -40.941190832239755 -21.408318238459302 5.6854513782486293 #
straight-curve $-1 40.941190832239755 -21.408318238459302 0 0 0 -1 I I #
straight-curve $-1 40.941190832239755 21.408318238459302 0 0 0 -1 I I #
plane-surface $-1 0 0 5.6854513782486293 0 0 1 1 0 0 forward_v I I I I #
coedge $-1 $336 $454 $443 $501 forward $329 $-1 #
coedge $-1 $332 $331 $442 $501 reversed $134 $-1 #
edge $-1 $450 -1.5 $448 1.5 $331 $502 forward 7 unknown #
coedge $-1 $344 $343 $332 $446 forward $345 $-1 #
edge $-1 $447 -1.5 $503 1.5 $332 $504 forward 7 unknown #
vertex $-1 $348 $505 #
vertex $-1 $338 $506 #
straight-curve $-1 -36.03161689582921 -28.398701038242464 0 0 0 -1 I I #
vertex $-1 $501 $507 #
straight-curve $-1 -33.03161689582921 -24.903509638350883 -5.6854513782486293 0 -1 0 I I #
straight-curve $-1 -36.03161689582921 -24.903509638350883 -5.6854513782486293 0 1 0 I I #
point $-1 -33.03161689582921 -21.408318238459302 -5.6854513782486293 #
coedge $-1 $442 $341 $344 $456 reversed $329 $-1 #
straight-curve $-1 -33.03161689582921 -21.408318238459302 0 0 0 -1 I I #
edge $-1 $503 -3.4951913998915813 $346 3.4951913998915813 $454 $508 forward 7 unknown #
point $-1 -33.03161689582921 -21.408318238459302 5.6854513782486293 #
straight-curve $-1 -36.03161689582921 -24.903509638350883 5.6854513782486293 0 -1 0 I I #
coedge $-1 $362 $361 $354 $460 forward $351 $-1 #
edge $-1 $461 51.776259435163254 $464 55.36953872613104 $459 $509 forward 7 unknown #
vertex $-1 $366 $510 #
straight-curve $-1 7.4460226645823511 -10.192612349276065 5.6854513782486293 1 0 0 I I #
edge $-1 $464 -7.3213711636974601 $363 1.5788887925402513 $362 $511 forward 7 unknown #
vertex $-1 $463 $512 #
straight-curve $-1 -28.499006689069233 -10.192612349276065 45.483224105514779 -0.84804809178421925 0 0.52991927123019833 I I #
point $-1 35.190742015991219 -10.192612349276065 5.6854513782486293 #
point $-1 40.941190832239755 -1.2923523930383531 2.0921720872808436 #
straight-curve $-1 40.941190832239755 0 5.6854513782486293 0 1 0 I I #
vertex $-1 $369 $513 #
point $-1 37.846429419561332 -7.6496809332081472 1.6503992005417125 #
vertex $-1 $373 $514 #
point $-1 37.846429419561332 -3.8352838091062722 1.6503992005417125 #
edge $-1 $474 51.776259435163254 $477 55.36953872613104 $378 $515 forward 7 unknown #
vertex $-1 $392 $516 #
straight-curve $-1 7.4460226645823511 8.2827351928215158 5.6854513782486293 1 0 0 I I #
edge $-1 $477 1.9163026073513301 $389 10.816562563589041 $388 $517 forward 7 unknown #
vertex $-1 $476 $518 #
straight-curve $-1 -28.499006689069233 8.2827351928215158 45.483224105514779 -0.84804809178421925 0 0.52991927123019833 I I #
point $-1 35.190742015991219 8.2827351928215158 5.6854513782486293 #
point $-1 40.941190832239755 17.182995149059227 2.0921720872808436 #
straight-curve $-1 40.941190832239755 0 5.6854513782486293 0 1 0 I I #
vertex $-1 $395 $519 #
point $-1 37.846429419561332 10.825666608889428 1.6503992005417125 #
vertex $-1 $399 $520 #
point $-1 37.846429419561332 14.640063732991308 1.6503992005417125 #
edge $-1 $487 17.161801118453322 $490 20.543797910164987 $404 $521 forward 7 unknown #
vertex $-1 $418 $522 #
straight-curve $-1 -55.190694680221291 13.670650997386595 5.6854513782486293 -1 0 0 I I #
edge $-1 $490 -8.6025900475455845 $415 -1.5335318521364361 $414 $523 forward 7 unknown #
vertex $-1 $489 $524 #
straight-curve $-1 -40.941190832239769 13.670650997386595 2.3034545865369438 0.52991925155115449 0 0.84804810408105047 I I #
point $-1 -38.827884759167084 13.670650997386595 5.6854513782486293 #
point $-1 -40.941190832239755 6.6015928019774464 2.3034545865369664 #
straight-curve $-1 -40.941190832239755 0 5.6854513782486293 0 -1 0 I I #
vertex $-1 $421 $525 #
point $-1 -38.671848762313715 10.136121899682021 3.8262699934186939 #
straight-curve $-1 -40.941190832239755 21.408318238459302 0 0 0 -1 I I #
point $-1 -40.941190832239755 -21.408318238459302 -5.6854513782486293 #
straight-curve $-1 -40.941190832239755 0 -5.6854513782486293 0 1 0 I I #
point $-1 -40.941190832239755 21.408318238459302 -5.6854513782486293 #
edge $-1 $503 -5.6854513782486293 $450 5.6854513782486293 $442 $526 forward 7 unknown #
straight-curve $-1 -34.53161689582921 -28.398701038242464 -5.6854513782486293 -1 0 0 I I #
vertex $-1 $456 $527 #
straight-curve $-1 -34.53161689582921 -28.398701038242464 5.6854513782486293 1 0 0 I I #
point $-1 -36.03161689582921 -28.398701038242464 5.6854513782486293 #
point $-1 -36.03161689582921 -28.398701038242464 -5.6854513782486293 #
point $-1 -33.03161689582921 -28.398701038242464 -5.6854513782486293 #
straight-curve $-1 -33.03161689582921 -24.903509638350883 5.6854513782486293 0 1 0 I I #
straight-curve $-1 40.941190832239755 -10.192612349276065 57.461710813411884 0 0 -1 I I #
point $-1 40.941190832239755 -10.192612349276065 5.6854513782486293 #
straight-curve $-1 40.941190832239762 -2.8712411855786044 2.09217208728084 0 1 0 I I #
point $-1 40.941190832239755 -10.192612349276065 2.0921720872808436 #
point $-1 36.468462056546912 -7.6496809332081472 1.3322703799876916 #
point $-1 36.468462056546912 -3.8352838091062722 1.3322703799876916 #
straight-curve $-1 40.941190832239755 8.2827351928215158 57.461710813411884 0 0 -1 I I #
point $-1 40.941190832239755 8.2827351928215158 5.6854513782486293 #
straight-curve $-1 40.941190832239762 6.3664325854701858 2.09217208728084 0 1 0 I I #
point $-1 40.941190832239755 8.2827351928215158 2.0921720872808436 #
point $-1 36.468462056546912 10.825666608889428 1.3322703799876916 #
point $-1 36.468462056546912 14.640063732991308 1.3322703799876916 #
straight-curve $-1 -40.941190832239755 13.670650997386595 22.847252496701952 0 0 -1 I I #
point $-1 -40.941190832239755 13.670650997386595 5.6854513782486293 #
straight-curve $-1 -40.941190832239755 5.0680609498410103 2.3034545865369678 0 -1 0 I I #
point $-1 -40.941190832239755 13.670650997386595 2.3034545865369664 #
point $-1 -38.512784336048767 10.136121899682021 3.1372863156025912 #
straight-curve $-1 -33.03161689582921 -28.398701038242464 0 0 0 -1 I I #
point $-1 -33.03161689582921 -28.398701038242464 5.6854513782486293 #
End-of-ACIS-data 