500 0 9 0           
7 Unknown 11 ACIS 5.0 NT 24 Fri Mar 26 15:13:46 1999 
-1 9.9999999999999995e-007 1e-010 
body $-1 $9 $-1 $10 #
body $-1 $11 $-1 $12 #
body $-1 $13 $-1 $14 #
body $-1 $15 $-1 $16 #
body $-1 $17 $-1 $18 #
body $-1 $19 $-1 $20 #
body $-1 $21 $-1 $22 #
body $-1 $23 $-1 $24 #
body $-1 $25 $-1 $26 #
lump $-1 $-1 $27 $0 #
transform $-1 1 0 0 0 1 0 0 0 1 54.420606097598196 35.711789254200433 10.130782977797624 1 rotate no_reflect no_shear #
lump $-1 $-1 $28 $1 #
transform $-1 1 0 0 0 1 0 0 0 1 54.420606097598196 35.711789254200433 10.130782977797624 1 rotate no_reflect no_shear #
lump $-1 $-1 $29 $2 #
transform $-1 1 0 0 0 1 0 0 0 1 54.420606097598196 35.711789254200433 10.130782977797624 1 rotate no_reflect no_shear #
lump $-1 $-1 $30 $3 #
transform $-1 1 0 0 0 1 0 0 0 1 54.420606097598196 35.711789254200433 10.130782977797624 1 rotate no_reflect no_shear #
lump $-1 $-1 $31 $4 #
transform $-1 1 0 0 0 1 0 0 0 1 54.420606097598196 35.711789254200433 10.130782977797624 1 rotate no_reflect no_shear #
lump $-1 $-1 $32 $5 #
transform $-1 1 0 0 0 1 0 0 0 1 54.420606097598196 35.711789254200433 10.130782977797624 1 rotate no_reflect no_shear #
lump $-1 $-1 $33 $6 #
transform $-1 1 0 0 0 1 0 0 0 1 54.420606097598196 35.711789254200433 10.130782977797624 1 rotate no_reflect no_shear #
lump $-1 $-1 $34 $7 #
transform $-1 1 0 0 0 1 0 0 0 1 54.420606097598196 35.711789254200433 10.130782977797624 1 rotate no_reflect no_shear #
lump $-1 $-1 $35 $8 #
transform $-1 1 0 0 0 1 0 0 0 1 54.420606097598196 35.711789254200433 10.130782977797624 1 rotate no_reflect no_shear #
shell $-1 $-1 $-1 $36 $-1 $9 #
shell $-1 $-1 $-1 $37 $-1 $11 #
shell $-1 $-1 $-1 $38 $-1 $13 #
shell $-1 $-1 $-1 $39 $-1 $15 #
shell $-1 $-1 $-1 $40 $-1 $17 #
shell $-1 $-1 $-1 $41 $-1 $19 #
shell $-1 $-1 $-1 $42 $-1 $21 #
shell $-1 $-1 $-1 $43 $-1 $23 #
shell $-1 $-1 $-1 $44 $-1 $25 #
face $-1 $45 $46 $27 $-1 $47 forward single #
face $-1 $48 $49 $28 $-1 $50 reversed single #
face $-1 $51 $52 $29 $-1 $53 reversed single #
face $-1 $54 $55 $30 $-1 $56 forward single #
face $-1 $57 $58 $31 $-1 $59 forward single #
face $-1 $60 $61 $32 $-1 $62 reversed single #
face $-1 $63 $64 $33 $-1 $65 forward single #
face $-1 $66 $67 $34 $-1 $68 forward single #
face $-1 $69 $70 $35 $-1 $71 forward single #
face $-1 $72 $73 $27 $-1 $74 reversed single #
loop $-1 $-1 $75 $36 #
plane-surface $-1 0 0 10.130782977797624 0 0 1 1 0 0 forward_v I I I I #
face $-1 $76 $77 $28 $-1 $78 reversed single #
loop $-1 $-1 $79 $37 #
plane-surface $-1 0 -32.049384599992301 4.1652244110504384 0 0 1 1 0 0 forward_v I I I I #
face $-1 $80 $81 $29 $-1 $82 reversed single #
loop $-1 $-1 $83 $38 #
plane-surface $-1 -108.84121292429498 13.198481727423079 97.31116936992531 0 1 0 -0.50000000669873634 0 0.8660253999169214 forward_v I I I I #
face $-1 $84 $85 $30 $-1 $86 forward single #
loop $-1 $87 $88 $39 #
cone-surface $-1 -47.831334363859831 16.226174594665267 5.7966973012623129 0.50000000669873634 0 -0.8660253999169214 0.8660253999169214 0 0.50000000669873634 1 I I 0 1 1 forward I I I I #
face $-1 $89 $90 $31 $-1 $91 forward single #
loop $-1 $92 $93 $40 #
cone-surface $-1 -47.831334363859831 20.767713895528544 5.7966973012623129 0.50000000669873634 0 -0.8660253999169214 0.8660253999169214 0 0.50000000669873634 1 I I 0 1 1 forward I I I I #
face $-1 $94 $95 $32 $-1 $96 reversed single #
loop $-1 $-1 $97 $41 #
plane-surface $-1 30.341476524432153 -11.051617984299005 152.98805224989925 0 -1 0 -0.5877852598018023 0 -0.80901698891910034 forward_v I I I I #
face $-1 $98 $99 $33 $-1 $100 forward single #
loop $-1 $101 $102 $42 #
cone-surface $-1 47.814364126083603 -19.829630162884378 5.1400841455092632 -0.5877852598018023 0 -0.80901698891910034 0.20225424722977509 0 -0.14694631495045057 1 I I 0 1 0.25 forward I I I I #
face $-1 $103 $104 $34 $-1 $105 forward single #
loop $-1 $106 $107 $43 #
cone-surface $-1 47.814364126083603 -16.537875595914862 5.1400841455092632 -0.5877852598018023 0 -0.80901698891910034 0.20225424722977509 0 -0.14694631495045057 1 I I 0 1 0.25 forward I I I I #
face $-1 $108 $109 $35 $-1 $110 forward single #
loop $-1 $111 $112 $44 #
cone-surface $-1 47.814364126083603 -13.246121028945346 5.1400841455092632 -0.5877852598018023 0 -0.80901698891910034 0.20225424722977509 0 -0.14694631495045057 1 I I 0 1 0.25 forward I I I I #
face $-1 $113 $114 $27 $-1 $115 reversed single #
loop $-1 $-1 $116 $45 #
plane-surface $-1 0 0 -10.130782977797624 0 0 1 1 0 0 forward_v I I I I #
coedge $-1 $117 $118 $119 $120 forward $46 $-1 #
face $-1 $121 $122 $28 $-1 $123 reversed single #
loop $-1 $-1 $124 $48 #
plane-surface $-1 0 -28.386979945784173 7.1480036944240322 0 -1 0 0 0 -1 forward_v I I I I #
coedge $-1 $125 $126 $127 $128 reversed $49 $-1 #
face $-1 $129 $130 $29 $-1 $131 reversed single #
loop $-1 $-1 $132 $51 #
plane-surface $-1 -54.420606097598203 18.496944245096905 3.0519150511378541 -0.50000000669873634 0 0.8660253999169214 0.8660253999169214 0 0.50000000669873634 forward_v I I I I #
coedge $-1 $133 $134 $135 $136 reversed $52 $-1 #
face $-1 $-1 $137 $30 $-1 $138 forward single #
loop $-1 $139 $140 $54 #
cone-surface $-1 -47.122541971783768 16.226174594665267 4.5690328880984268 0.50000000669873634 0 -0.8660253999169214 0.4330126999584607 0 0.25000000334936817 1 I I -0.70710678118654691 0.70710678118654813 0.5 forward I I I I #
loop $-1 $-1 $141 $39 #
coedge $-1 $88 $88 $142 $143 reversed $55 $-1 #
face $-1 $-1 $144 $31 $-1 $145 forward single #
loop $-1 $146 $147 $57 #
cone-surface $-1 -47.122541971783768 20.767713895528544 4.5690328880984268 0.50000000669873634 0 -0.8660253999169214 0.4330126999584607 0 0.25000000334936817 1 I I -0.70710678118654691 0.70710678118654813 0.5 forward I I I I #
loop $-1 $-1 $148 $40 #
coedge $-1 $93 $93 $149 $150 reversed $58 $-1 #
face $-1 $151 $152 $32 $-1 $153 reversed single #
loop $-1 $-1 $154 $60 #
plane-surface $-1 -33.633783662864452 -16.537875595914862 64.933662489436614 0.5877852598018023 0 0.80901698891910034 0.80901698891910034 0 -0.5877852598018023 forward_v I I I I #
coedge $-1 $155 $156 $157 $158 reversed $61 $-1 #
face $-1 $-1 $159 $33 $-1 $160 forward single #
loop $-1 $161 $162 $63 #
cone-surface $-1 47.446998338707473 -19.829630162884378 4.6344485274348255 -0.5877852598018023 0 -0.80901698891910034 0.10112712361488754 0 -0.073473157475225287 1 I I -0.70710678118654746 0.70710678118654746 0.125 forward I I I I #
loop $-1 $-1 $163 $42 #
coedge $-1 $102 $102 $164 $165 reversed $64 $-1 #
face $-1 $-1 $166 $34 $-1 $167 forward single #
loop $-1 $168 $169 $66 #
cone-surface $-1 47.446998338707473 -16.537875595914862 4.6344485274348255 -0.5877852598018023 0 -0.80901698891910034 0.10112712361488754 0 -0.073473157475225287 1 I I -0.70710678118654746 0.70710678118654746 0.125 forward I I I I #
loop $-1 $-1 $170 $43 #
coedge $-1 $107 $107 $171 $172 reversed $67 $-1 #
face $-1 $-1 $173 $35 $-1 $174 forward single #
loop $-1 $175 $176 $69 #
cone-surface $-1 47.446998338707473 -13.246121028945346 4.6344485274348255 -0.5877852598018023 0 -0.80901698891910034 0.10112712361488754 0 -0.073473157475225287 1 I I -0.70710678118654746 0.70710678118654746 0.125 forward I I I I #
loop $-1 $-1 $177 $44 #
coedge $-1 $112 $112 $178 $179 reversed $70 $-1 #
face $-1 $180 $181 $27 $-1 $182 reversed single #
loop $-1 $-1 $183 $72 #
plane-surface $-1 0 -35.711789254200433 0 0 1 0 0 0 1 forward_v I I I I #
coedge $-1 $184 $185 $186 $187 forward $73 $-1 #
coedge $-1 $188 $75 $189 $190 forward $46 $-1 #
coedge $-1 $75 $188 $191 $192 forward $46 $-1 #
coedge $-1 $193 $194 $75 $120 reversed $195 $-1 #
edge $-1 $196 -35.711789254200433 $197 35.711789254200433 $119 $198 forward 7 unknown #
face $-1 $199 $200 $28 $-1 $201 reversed single #
loop $-1 $-1 $202 $76 #
plane-surface $-1 -54.420606097598196 0 0 1 0 0 0 0 -1 forward_v I I I I #
coedge $-1 $203 $204 $205 $206 reversed $77 $-1 #
coedge $-1 $207 $79 $208 $209 reversed $49 $-1 #
coedge $-1 $79 $207 $203 $210 forward $49 $-1 #
coedge $-1 $205 $211 $79 $128 forward $212 $-1 #
edge $-1 $213 -19.687096954204282 $214 -12.362287645788022 $127 $215 forward 7 unknown #
face $-1 $216 $217 $29 $-1 $218 forward single #
loop $-1 $-1 $219 $80 #
plane-surface $-1 -108.84121292429498 23.795406762770732 97.31116936992531 0 -1 0 0.50000000669873634 0 -0.8660253999169214 forward_v I I I I #
coedge $-1 $220 $221 $222 $223 reversed $81 $-1 #
coedge $-1 $134 $83 $224 $225 reversed $52 $-1 #
coedge $-1 $83 $133 $220 $226 reversed $52 $-1 #
coedge $-1 $222 $227 $83 $136 forward $217 $-1 #
edge $-1 $228 3.6454929386309232e-007 $229 12.260959054572616 $135 $230 forward 7 unknown #
loop $-1 $-1 $142 $84 #
plane-surface $-1 -54.420606097598203 18.496944245096905 3.0519150511378541 -0.50000000669873634 0 0.8660253999169214 0.8660253999169214 0 0.50000000669873634 forward_v I I I I #
loop $-1 $-1 $231 $54 #
coedge $-1 $140 $140 $141 $232 reversed $85 $-1 #
coedge $-1 $141 $141 $140 $232 forward $87 $-1 #
coedge $-1 $142 $142 $88 $143 forward $137 $-1 #
edge $-1 $233 0 $233 6.2831853071796004 $142 $234 forward 7 unknown #
loop $-1 $-1 $149 $89 #
plane-surface $-1 -54.420606097598203 18.496944245096905 3.0519150511378541 -0.50000000669873634 0 0.8660253999169214 0.8660253999169214 0 0.50000000669873634 forward_v I I I I #
loop $-1 $-1 $235 $57 #
coedge $-1 $147 $147 $148 $236 reversed $90 $-1 #
coedge $-1 $148 $148 $147 $236 forward $92 $-1 #
coedge $-1 $149 $149 $93 $150 forward $144 $-1 #
edge $-1 $237 0 $237 6.2831853071796004 $149 $238 forward 7 unknown #
face $-1 $239 $240 $32 $-1 $241 reversed single #
loop $-1 $-1 $242 $94 #
plane-surface $-1 30.341476524432153 -22.024133207530717 152.98805224989925 0 1 0 0.5877852598018023 0 0.80901698891910034 forward_v I I I I #
coedge $-1 $243 $244 $245 $246 reversed $95 $-1 #
coedge $-1 $156 $97 $247 $248 reversed $61 $-1 #
coedge $-1 $97 $155 $243 $249 reversed $61 $-1 #
coedge $-1 $245 $250 $97 $158 forward $251 $-1 #
edge $-1 $252 -39.249867835382119 $253 -26.625169152154761 $157 $254 forward 7 unknown #
loop $-1 $-1 $164 $98 #
plane-surface $-1 -33.633783662864452 -16.537875595914862 64.933662489436614 0.5877852598018023 0 0.80901698891910034 0.80901698891910034 0 -0.5877852598018023 forward_v I I I I #
loop $-1 $-1 $255 $63 #
coedge $-1 $162 $162 $163 $256 reversed $99 $-1 #
coedge $-1 $163 $163 $162 $256 forward $101 $-1 #
coedge $-1 $164 $164 $102 $165 forward $159 $-1 #
edge $-1 $257 0 $257 6.2831853071796004 $164 $258 forward 7 unknown #
loop $-1 $-1 $171 $103 #
plane-surface $-1 -33.633783662864452 -16.537875595914862 64.933662489436614 0.5877852598018023 0 0.80901698891910034 0.80901698891910034 0 -0.5877852598018023 forward_v I I I I #
loop $-1 $-1 $259 $66 #
coedge $-1 $169 $169 $170 $260 reversed $104 $-1 #
coedge $-1 $170 $170 $169 $260 forward $106 $-1 #
coedge $-1 $171 $171 $107 $172 forward $166 $-1 #
edge $-1 $261 0 $261 6.2831853071796004 $171 $262 forward 7 unknown #
loop $-1 $-1 $178 $108 #
plane-surface $-1 -33.633783662864452 -16.537875595914862 64.933662489436614 0.5877852598018023 0 0.80901698891910034 0.80901698891910034 0 -0.5877852598018023 forward_v I I I I #
loop $-1 $-1 $263 $69 #
coedge $-1 $176 $176 $177 $264 reversed $109 $-1 #
coedge $-1 $177 $177 $176 $264 forward $111 $-1 #
coedge $-1 $178 $178 $112 $179 forward $173 $-1 #
edge $-1 $265 0 $265 6.2831853071796004 $178 $266 forward 7 unknown #
face $-1 $267 $268 $27 $-1 $269 reversed single #
loop $-1 $-1 $270 $113 #
plane-surface $-1 -54.420606097598196 0 0 1 0 0 0 0 -1 forward_v I I I I #
coedge $-1 $271 $191 $272 $273 forward $114 $-1 #
coedge $-1 $274 $116 $271 $275 forward $73 $-1 #
coedge $-1 $116 $274 $276 $277 forward $73 $-1 #
coedge $-1 $194 $193 $116 $187 reversed $195 $-1 #
edge $-1 $278 -35.711789254200433 $279 35.711789254200433 $186 $280 forward 7 unknown #
coedge $-1 $118 $117 $281 $282 forward $46 $-1 #
coedge $-1 $283 $284 $117 $190 reversed $268 $-1 #
edge $-1 $197 -54.420606097598196 $285 54.420606097598196 $189 $286 forward 7 unknown #
coedge $-1 $183 $287 $118 $192 reversed $114 $-1 #
edge $-1 $288 -54.420606097598196 $196 54.420606097598196 $191 $289 forward 7 unknown #
coedge $-1 $186 $119 $287 $290 forward $195 $-1 #
coedge $-1 $119 $186 $283 $291 reversed $195 $-1 #
loop $-1 $-1 $193 $267 #
vertex $-1 $120 $292 #
vertex $-1 $120 $293 #
straight-curve $-1 54.420606097598196 0 10.130782977797624 0 1 0 I I #
face $-1 $294 $295 $28 $-1 $296 forward single #
loop $-1 $-1 $208 $121 #
plane-surface $-1 0 -35.711789254200433 0 0 1 0 0 0 1 forward_v I I I I #
coedge $-1 $297 $298 $299 $300 forward $122 $-1 #
coedge $-1 $299 $124 $126 $210 reversed $77 $-1 #
coedge $-1 $124 $299 $301 $302 reversed $77 $-1 #
coedge $-1 $303 $127 $124 $206 forward $212 $-1 #
edge $-1 $214 0.59122256383842231 $304 6.5567811305856099 $205 $305 forward 7 unknown #
coedge $-1 $126 $125 $297 $306 reversed $49 $-1 #
coedge $-1 $307 $308 $125 $209 forward $200 $-1 #
edge $-1 $309 -54.420606097598196 $213 54.420606097598196 $208 $310 forward 7 unknown #
edge $-1 $311 -54.420606097598196 $214 54.420606097598196 $203 $312 forward 7 unknown #
coedge $-1 $127 $303 $307 $313 forward $212 $-1 #
loop $-1 $-1 $205 $294 #
vertex $-1 $209 $314 #
vertex $-1 $128 $315 #
straight-curve $-1 54.420606097598196 -16.024692299996151 4.1652244110504384 0 1 0 I I #
face $-1 $-1 $316 $29 $-1 $317 reversed single #
loop $-1 $-1 $135 $129 #
plane-surface $-1 0 0 10.130782977797624 0 0 1 1 0 0 forward_v I I I I #
coedge $-1 $318 $319 $320 $321 reversed $130 $-1 #
coedge $-1 $322 $132 $134 $226 forward $81 $-1 #
coedge $-1 $132 $322 $318 $323 forward $81 $-1 #
coedge $-1 $320 $135 $132 $223 forward $217 $-1 #
edge $-1 $229 3.9500096048746265 $324 14.546934640222279 $222 $325 forward 7 unknown #
coedge $-1 $326 $327 $133 $225 forward $316 $-1 #
edge $-1 $328 -45.603669633824794 $228 -38.524801707165032 $224 $329 forward 7 unknown #
edge $-1 $229 -14.157735663641661 $328 -8.1518820400458524e-015 $134 $330 forward 7 unknown #
coedge $-1 $135 $320 $326 $331 forward $217 $-1 #
vertex $-1 $225 $332 #
vertex $-1 $136 $333 #
straight-curve $-1 -54.420606462147489 13.198481727423079 10.130782977797622 1 0 0 I I #
coedge $-1 $231 $231 $-1 $334 reversed $139 $-1 #
edge $-1 $335 0 $335 6.2831853071796004 $140 $336 forward 7 unknown #
vertex $-1 $143 $337 #
ellipse-curve $-1 -48.290126752586531 16.226174594665267 6.5913490144677436 -0.50000000669873634 0 0.8660253999169214 0.8660253999169214 0 0.50000000669873634 1 I I #
coedge $-1 $235 $235 $-1 $338 reversed $146 $-1 #
edge $-1 $339 0 $339 6.2831853071796004 $147 $340 forward 7 unknown #
vertex $-1 $150 $341 #
ellipse-curve $-1 -48.290126752586531 20.767713895528544 6.5913490144677436 -0.50000000669873634 0 0.8660253999169214 0.8660253999169214 0 0.50000000669873634 1 I I #
face $-1 $-1 $251 $32 $-1 $342 forward single #
loop $-1 $-1 $343 $151 #
plane-surface $-1 54.420606097598196 0 0 -1 0 0 0 0 1 forward_v I I I I #
coedge $-1 $344 $345 $346 $347 reversed $152 $-1 #
coedge $-1 $348 $154 $156 $249 forward $95 $-1 #
coedge $-1 $154 $348 $344 $349 forward $95 $-1 #
coedge $-1 $346 $157 $154 $246 forward $251 $-1 #
edge $-1 $253 2.7826801863415742 $350 13.755195409573286 $245 $351 forward 7 unknown #
coedge $-1 $352 $353 $155 $248 forward $240 $-1 #
edge $-1 $354 -75.535623822809612 $252 -66.363243147152005 $247 $355 forward 7 unknown #
edge $-1 $253 93.236226322038419 $354 108.84121219519638 $156 $356 forward 7 unknown #
coedge $-1 $157 $346 $352 $357 forward $251 $-1 #
loop $-1 $-1 $346 $239 #
vertex $-1 $248 $358 #
vertex $-1 $158 $359 #
straight-curve $-1 15.170738262216076 -11.051617984299005 10.130782977797622 -1 0 0 I I #
coedge $-1 $255 $255 $-1 $360 reversed $161 $-1 #
edge $-1 $361 0 $361 6.2831853071796004 $162 $362 forward 7 unknown #
vertex $-1 $165 $363 #
ellipse-curve $-1 48.108256755984506 -19.829630162884378 5.544592639968819 0.5877852598018023 0 0.80901698891910034 0.20225424722977509 0 -0.14694631495045057 1 I I #
coedge $-1 $259 $259 $-1 $364 reversed $168 $-1 #
edge $-1 $365 0 $365 6.2831853071796004 $169 $366 forward 7 unknown #
vertex $-1 $172 $367 #
ellipse-curve $-1 48.108256755984506 -16.537875595914862 5.544592639968819 0.5877852598018023 0 0.80901698891910034 0.20225424722977509 0 -0.14694631495045057 1 I I #
coedge $-1 $263 $263 $-1 $368 reversed $175 $-1 #
edge $-1 $369 0 $369 6.2831853071796004 $176 $370 forward 7 unknown #
vertex $-1 $179 $371 #
ellipse-curve $-1 48.108256755984506 -13.246121028945346 5.544592639968819 0.5877852598018023 0 0.80901698891910034 0.20225424722977509 0 -0.14694631495045057 1 I I #
face $-1 $-1 $195 $27 $-1 $372 reversed single #
loop $-1 $-1 $283 $180 #
plane-surface $-1 0 35.711789254200433 0 0 -1 0 0 0 -1 forward_v I I I I #
coedge $-1 $373 $281 $284 $374 forward $181 $-1 #
coedge $-1 $287 $183 $184 $275 reversed $114 $-1 #
coedge $-1 $281 $373 $183 $273 reversed $181 $-1 #
edge $-1 $288 -10.130782977797624 $375 10.130782977797624 $272 $376 forward 7 unknown #
coedge $-1 $185 $184 $373 $377 forward $73 $-1 #
edge $-1 $279 -54.420606097598196 $375 54.420606097598196 $271 $378 forward 7 unknown #
coedge $-1 $284 $283 $185 $277 reversed $268 $-1 #
edge $-1 $379 -54.420606097598196 $278 54.420606097598196 $276 $380 forward 7 unknown #
vertex $-1 $187 $381 #
vertex $-1 $290 $382 #
straight-curve $-1 54.420606097598196 0 -10.130782977797624 0 -1 0 I I #
coedge $-1 $270 $272 $188 $282 reversed $181 $-1 #
edge $-1 $285 -35.711789254200433 $288 35.711789254200433 $281 $383 forward 7 unknown #
coedge $-1 $276 $189 $194 $291 forward $268 $-1 #
coedge $-1 $189 $276 $270 $374 reversed $268 $-1 #
vertex $-1 $190 $384 #
straight-curve $-1 0 35.711789254200433 10.130782977797624 -1 0 0 I I #
coedge $-1 $191 $271 $193 $290 reversed $114 $-1 #
vertex $-1 $282 $385 #
straight-curve $-1 0 -35.711789254200433 10.130782977797624 1 0 0 I I #
edge $-1 $196 -10.130782977797624 $279 10.130782977797624 $193 $386 forward 7 unknown #
edge $-1 $197 -10.130782977797624 $278 10.130782977797624 $194 $387 forward 7 unknown #
point $-1 54.420606097598196 -35.711789254200433 10.130782977797624 #
point $-1 54.420606097598196 35.711789254200433 10.130782977797624 #
face $-1 $-1 $212 $28 $-1 $388 reversed single #
loop $-1 $-1 $301 $199 #
plane-surface $-1 0 0 10.130782977797624 0 0 1 1 0 0 forward_v I I I I #
coedge $-1 $389 $202 $207 $306 forward $122 $-1 #
coedge $-1 $202 $389 $390 $391 reversed $122 $-1 #
coedge $-1 $204 $203 $202 $300 reversed $77 $-1 #
edge $-1 $392 -6.5567811305856099 $311 -0.59122256383842231 $202 $393 forward 7 unknown #
coedge $-1 $390 $394 $204 $302 forward $295 $-1 #
edge $-1 $304 -54.420606097598196 $392 54.420606097598196 $301 $395 forward 7 unknown #
coedge $-1 $211 $205 $394 $396 reversed $212 $-1 #
vertex $-1 $206 $397 #
straight-curve $-1 54.420606097598196 -28.386979945784173 3.5740018472120161 0 0 1 I I #
edge $-1 $311 12.362287645788022 $309 19.687096954204282 $297 $398 forward 7 unknown #
coedge $-1 $399 $208 $211 $313 reversed $200 $-1 #
coedge $-1 $208 $399 $389 $400 forward $200 $-1 #
vertex $-1 $209 $401 #
straight-curve $-1 0 -35.711789254200433 4.1652244110504384 1 0 0 I I #
vertex $-1 $306 $402 #
straight-curve $-1 0 -28.386979945784173 4.1652244110504384 1 0 0 I I #
edge $-1 $403 -10.130782977797624 $213 -4.1652244110504384 $211 $404 forward 7 unknown #
point $-1 54.420606097598196 -35.711789254200433 4.1652244110504384 #
point $-1 54.420606097598196 -28.386979945784173 4.1652244110504384 #
loop $-1 $-1 $224 $216 #
plane-surface $-1 -54.420606097598196 0 0 1 0 0 0 0 -1 forward_v I I I I #
coedge $-1 $319 $219 $221 $323 reversed $130 $-1 #
coedge $-1 $219 $318 $405 $406 reversed $130 $-1 #
coedge $-1 $227 $222 $219 $321 forward $217 $-1 #
edge $-1 $324 -12.260959054572616 $407 -3.6454929386309232e-007 $320 $408 forward 7 unknown #
coedge $-1 $221 $220 $327 $409 reversed $81 $-1 #
edge $-1 $410 8.1518820400458524e-015 $324 14.157735663641661 $318 $411 forward 7 unknown #
vertex $-1 $223 $412 #
straight-curve $-1 -42.159647407574866 9.2484721225484527 10.130782977797626 0 1 0 I I #
coedge $-1 $405 $224 $227 $331 reversed $316 $-1 #
coedge $-1 $224 $405 $322 $409 forward $316 $-1 #
vertex $-1 $225 $413 #
straight-curve $-1 -54.420606097598196 13.198481727423079 48.655584684962655 0 0 1 I I #
straight-curve $-1 -54.420606097598203 13.198481727423079 3.0519150511378541 -0.8660253999169214 0 -0.50000000669873634 I I #
edge $-1 $407 -23.795406762770732 $228 -13.198481727423079 $326 $414 forward 7 unknown #
point $-1 -54.420606097598196 13.198481727423079 10.130782977797624 #
point $-1 -42.159647407574873 13.198481727423079 10.130782977797624 #
edge $-1 $415 1 $415 0 $231 $-1 forward 7 unknown #
vertex $-1 $232 $416 #
ellipse-curve $-1 -47.372541975133139 16.226174594665267 5.0020455880568884 -0.50000000669873634 0 0.8660253999169214 0.8660253999169214 0 0.50000000669873634 1 I I #
point $-1 -47.424101352669602 16.226174594665267 7.0913490211664723 #
edge $-1 $417 1 $417 0 $235 $-1 forward 7 unknown #
vertex $-1 $236 $418 #
ellipse-curve $-1 -47.372541975133139 20.767713895528544 5.0020455880568884 -0.50000000669873634 0 0.8660253999169214 0.8660253999169214 0 0.50000000669873634 1 I I #
point $-1 -47.424101352669602 20.767713895528544 7.0913490211664723 #
plane-surface $-1 0 0 10.130782977797624 0 0 1 1 0 0 forward_v I I I I #
coedge $-1 $353 $352 $345 $419 forward $240 $-1 #
coedge $-1 $345 $242 $244 $349 reversed $152 $-1 #
coedge $-1 $242 $344 $343 $419 reversed $152 $-1 #
coedge $-1 $250 $245 $242 $347 forward $251 $-1 #
edge $-1 $350 26.625169152154761 $420 39.249867835382119 $346 $421 forward 7 unknown #
coedge $-1 $244 $243 $353 $422 reversed $95 $-1 #
edge $-1 $423 -108.84121219519638 $350 -93.236226322038419 $344 $424 forward 7 unknown #
vertex $-1 $246 $425 #
straight-curve $-1 41.795907414370831 -8.268937797957431 10.130782977797622 0 -1 0 I I #
coedge $-1 $343 $247 $250 $357 reversed $240 $-1 #
coedge $-1 $247 $343 $348 $422 forward $240 $-1 #
vertex $-1 $248 $426 #
straight-curve $-1 54.420606097598196 -11.051617984299005 76.494026124949627 0 0 1 I I #
straight-curve $-1 -33.633783662864452 -11.051617984299005 64.933662489436614 0.80901698891910034 0 -0.5877852598018023 I I #
edge $-1 $420 -22.024133207530717 $252 -11.051617984299005 $352 $427 forward 7 unknown #
point $-1 54.420606097598196 -11.051617984299005 10.130782977797624 #
point $-1 41.795907414370838 -11.051617984299005 10.130782977797622 #
edge $-1 $428 1 $428 0 $255 $-1 forward 7 unknown #
vertex $-1 $256 $429 #
ellipse-curve $-1 47.520471496182701 -19.829630162884378 4.7355756510497127 0.5877852598018023 0 0.80901698891910034 0.20225424722977509 0 -0.14694631495045057 1 I I #
point $-1 48.310511003214273 -19.829630162884378 5.3976463250183624 #
edge $-1 $430 1 $430 0 $259 $-1 forward 7 unknown #
vertex $-1 $260 $431 #
ellipse-curve $-1 47.520471496182701 -16.537875595914862 4.7355756510497127 0.5877852598018023 0 0.80901698891910034 0.20225424722977509 0 -0.14694631495045057 1 I I #
point $-1 48.310511003214273 -16.537875595914862 5.3976463250183624 #
edge $-1 $432 1 $432 0 $263 $-1 forward 7 unknown #
vertex $-1 $264 $433 #
ellipse-curve $-1 47.520471496182701 -13.246121028945346 4.7355756510497127 0.5877852598018023 0 0.80901698891910034 0.20225424722977509 0 -0.14694631495045057 1 I I #
point $-1 48.310511003214273 -13.246121028945346 5.3976463250183624 #
plane-surface $-1 54.420606097598196 0 0 -1 0 0 0 0 1 forward_v I I I I #
coedge $-1 $272 $270 $274 $377 reversed $181 $-1 #
edge $-1 $285 -10.130782977797624 $379 10.130782977797624 $284 $434 forward 7 unknown #
vertex $-1 $377 $435 #
straight-curve $-1 -54.420606097598196 -35.711789254200433 0 0 0 -1 I I #
edge $-1 $375 -35.711789254200433 $379 35.711789254200433 $373 $436 forward 7 unknown #
straight-curve $-1 0 -35.711789254200433 -10.130782977797624 -1 0 0 I I #
vertex $-1 $277 $437 #
straight-curve $-1 0 35.711789254200433 -10.130782977797624 1 0 0 I I #
point $-1 54.420606097598196 35.711789254200433 -10.130782977797624 #
point $-1 54.420606097598196 -35.711789254200433 -10.130782977797624 #
straight-curve $-1 -54.420606097598196 0 10.130782977797624 0 -1 0 I I #
point $-1 -54.420606097598196 35.711789254200433 10.130782977797624 #
point $-1 -54.420606097598196 -35.711789254200433 10.130782977797624 #
straight-curve $-1 54.420606097598196 -35.711789254200433 0 0 0 -1 I I #
straight-curve $-1 54.420606097598196 35.711789254200433 0 0 0 -1 I I #
plane-surface $-1 54.420606097598196 0 0 -1 0 0 0 0 1 forward_v I I I I #
coedge $-1 $298 $297 $308 $400 reversed $122 $-1 #
coedge $-1 $438 $301 $298 $391 forward $295 $-1 #
edge $-1 $392 28.386979945784173 $439 35.711789254200433 $298 $440 forward 7 unknown #
vertex $-1 $391 $441 #
straight-curve $-1 -54.420606097598196 -28.386979945784173 3.5740018472120161 0 0 -1 I I #
coedge $-1 $301 $438 $303 $396 forward $295 $-1 #
straight-curve $-1 0 -28.386979945784173 10.130782977797624 -1 0 0 I I #
edge $-1 $403 -35.711789254200433 $304 -28.386979945784173 $303 $442 forward 7 unknown #
point $-1 54.420606097598196 -28.386979945784173 10.130782977797626 #
straight-curve $-1 -54.420606097598196 -16.024692299996151 4.1652244110504384 0 -1 0 I I #
coedge $-1 $308 $307 $438 $443 reversed $200 $-1 #
edge $-1 $439 -10.130782977797624 $309 -4.1652244110504384 $389 $444 forward 7 unknown #
point $-1 -54.420606097598196 -35.711789254200433 4.1652244110504384 #
point $-1 -54.420606097598196 -28.386979945784173 4.1652244110504384 #
vertex $-1 $396 $445 #
straight-curve $-1 54.420606097598196 -35.711789254200433 0 0 0 -1 I I #
coedge $-1 $327 $326 $319 $406 forward $316 $-1 #
edge $-1 $407 38.524801707165032 $410 45.603669633824794 $405 $446 forward 7 unknown #
vertex $-1 $331 $447 #
straight-curve $-1 -54.420606462147489 23.795406762770732 10.130782977797622 -1 0 0 I I #
edge $-1 $410 -14.546934640222279 $328 -3.9500096048746265 $327 $448 forward 7 unknown #
vertex $-1 $409 $449 #
straight-curve $-1 -54.420606097598203 23.795406762770732 3.0519150511378541 0.8660253999169214 0 0.50000000669873634 I I #
point $-1 -42.159647407574873 23.795406762770732 10.130782977797624 #
point $-1 -54.420606097598196 13.198481727423079 3.0519150511378581 #
straight-curve $-1 -54.420606097598196 0 10.130782977797624 0 -1 0 I I #
vertex $-1 $334 $450 #
point $-1 -46.506516575216217 16.226174594665267 5.502045594755625 #
vertex $-1 $338 $451 #
point $-1 -46.506516575216217 20.767713895528544 5.502045594755625 #
edge $-1 $420 66.363243147152005 $423 75.535623822809612 $343 $452 forward 7 unknown #
vertex $-1 $357 $453 #
straight-curve $-1 15.170738262216076 -22.024133207530717 10.130782977797622 1 0 0 I I #
edge $-1 $423 -13.755195409573286 $354 -2.7826801863415742 $353 $454 forward 7 unknown #
vertex $-1 $422 $455 #
straight-curve $-1 -33.633783662864452 -22.024133207530717 64.933662489436614 -0.80901698891910034 0 0.5877852598018023 I I #
point $-1 41.795907414370838 -22.024133207530717 10.130782977797622 #
point $-1 54.420606097598188 -11.051617984299005 0.95840230214001565 #
straight-curve $-1 54.420606097598196 0 10.130782977797624 0 1 0 I I #
vertex $-1 $360 $456 #
point $-1 47.722725743412475 -19.829630162884378 4.5886293360992623 #
vertex $-1 $364 $457 #
point $-1 47.722725743412475 -16.537875595914862 4.5886293360992623 #
vertex $-1 $368 $458 #
point $-1 47.722725743412475 -13.246121028945346 4.5886293360992623 #
straight-curve $-1 -54.420606097598196 35.711789254200433 0 0 0 -1 I I #
point $-1 -54.420606097598196 -35.711789254200433 -10.130782977797624 #
straight-curve $-1 -54.420606097598196 0 -10.130782977797624 0 1 0 I I #
point $-1 -54.420606097598196 35.711789254200433 -10.130782977797624 #
coedge $-1 $394 $390 $399 $443 forward $295 $-1 #
vertex $-1 $391 $459 #
straight-curve $-1 -54.420606097598196 0 10.130782977797624 0 -1 0 I I #
point $-1 -54.420606097598196 -28.386979945784173 10.130782977797626 #
straight-curve $-1 54.420606097598196 0 10.130782977797624 0 1 0 I I #
edge $-1 $439 -54.420606097598196 $403 54.420606097598196 $399 $460 forward 7 unknown #
straight-curve $-1 -54.420606097598196 -35.711789254200433 0 0 0 -1 I I #
point $-1 54.420606097598196 -35.711789254200433 10.130782977797624 #
straight-curve $-1 -54.420606097598196 23.795406762770732 48.655584684962655 0 0 -1 I I #
point $-1 -54.420606097598196 23.795406762770732 10.130782977797624 #
straight-curve $-1 -54.420606097598196 9.2484721225484527 3.0519150511378563 0 -1 0 I I #
point $-1 -54.420606097598196 23.795406762770732 3.0519150511378581 #
point $-1 -46.872541968434398 16.226174594665267 4.1360201881399652 #
point $-1 -46.872541968434398 20.767713895528544 4.1360201881399652 #
straight-curve $-1 54.420606097598196 -22.024133207530717 76.494026124949627 0 0 -1 I I #
point $-1 54.420606097598196 -22.024133207530717 10.130782977797624 #
straight-curve $-1 54.420606097598196 -8.268937797957431 0.95840230214001565 0 1 0 I I #
point $-1 54.420606097598188 -22.024133207530717 0.95840230214001565 #
point $-1 47.373525181232246 -19.829630162884378 4.5333214038199383 #
point $-1 47.373525181232246 -16.537875595914862 4.5333214038199383 #
point $-1 47.373525181232246 -13.246121028945346 4.5333214038199383 #
point $-1 -54.420606097598196 -35.711789254200433 10.130782977797624 #
straight-curve $-1 0 -35.711789254200433 10.130782977797624 1 0 0 I I #
End-of-ACIS-data 