500 0 15 0           
7 Unknown 11 ACIS 5.0 NT 24 Fri Mar 26 15:43:45 1999 
-1 9.9999999999999995e-007 1e-010 
body $-1 $15 $-1 $16 #
body $-1 $17 $-1 $18 #
body $-1 $19 $-1 $20 #
body $-1 $21 $-1 $22 #
body $-1 $23 $-1 $24 #
body $-1 $25 $-1 $26 #
body $-1 $27 $-1 $28 #
body $-1 $29 $-1 $30 #
body $-1 $31 $-1 $32 #
body $-1 $33 $-1 $34 #
body $-1 $35 $-1 $36 #
body $-1 $37 $-1 $38 #
body $-1 $39 $-1 $40 #
body $-1 $41 $-1 $42 #
body $-1 $43 $-1 $44 #
lump $-1 $-1 $45 $0 #
transform $-1 1 0 0 0 1 0 0 0 1 42.818689535203099 24.225940837555367 8.6269102471673023 1 rotate no_reflect no_shear #
lump $-1 $-1 $46 $1 #
transform $-1 1 0 0 0 1 0 0 0 1 42.818689535203099 24.225940837555367 8.6269102471673023 1 rotate no_reflect no_shear #
lump $-1 $-1 $47 $2 #
transform $-1 1 0 0 0 1 0 0 0 1 42.818689535203099 24.225940837555367 8.6269102471673023 1 rotate no_reflect no_shear #
lump $-1 $-1 $48 $3 #
transform $-1 1 0 0 0 1 0 0 0 1 42.818689535203099 24.225940837555367 8.6269102471673023 1 rotate no_reflect no_shear #
lump $-1 $-1 $49 $4 #
transform $-1 1 0 0 0 1 0 0 0 1 42.818689535203099 24.225940837555367 8.6269102471673023 1 rotate no_reflect no_shear #
lump $-1 $-1 $50 $5 #
transform $-1 1 0 0 0 1 0 0 0 1 42.818689535203099 24.225940837555367 8.6269102471673023 1 rotate no_reflect no_shear #
lump $-1 $-1 $51 $6 #
transform $-1 1 0 0 0 1 0 0 0 1 42.818689535203099 24.225940837555367 8.6269102471673023 1 rotate no_reflect no_shear #
lump $-1 $-1 $52 $7 #
transform $-1 1 0 0 0 1 0 0 0 1 42.818689535203099 24.225940837555367 8.6269102471673023 1 rotate no_reflect no_shear #
lump $-1 $-1 $53 $8 #
transform $-1 1 0 0 0 1 0 0 0 1 42.818689535203099 24.225940837555367 8.6269102471673023 1 rotate no_reflect no_shear #
lump $-1 $-1 $54 $9 #
transform $-1 1 0 0 0 1 0 0 0 1 42.818689535203099 24.225940837555367 8.6269102471673023 1 rotate no_reflect no_shear #
lump $-1 $-1 $55 $10 #
transform $-1 1 0 0 0 1 0 0 0 1 42.818689535203099 24.225940837555367 8.6269102471673023 1 rotate no_reflect no_shear #
lump $-1 $-1 $56 $11 #
transform $-1 1 0 0 0 1 0 0 0 1 42.818689535203099 24.225940837555367 8.6269102471673023 1 rotate no_reflect no_shear #
lump $-1 $-1 $57 $12 #
transform $-1 1 0 0 0 1 0 0 0 1 42.818689535203099 24.225940837555367 8.6269102471673023 1 rotate no_reflect no_shear #
lump $-1 $-1 $58 $13 #
transform $-1 1 0 0 0 1 0 0 0 1 42.818689535203099 24.225940837555367 8.6269102471673023 1 rotate no_reflect no_shear #
lump $-1 $-1 $59 $14 #
transform $-1 1 0 0 0 1 0 0 0 1 42.818689535203099 24.225940837555367 8.6269102471673023 1 rotate no_reflect no_shear #
shell $-1 $-1 $-1 $60 $-1 $15 #
shell $-1 $-1 $-1 $61 $-1 $17 #
shell $-1 $-1 $-1 $62 $-1 $19 #
shell $-1 $-1 $-1 $63 $-1 $21 #
shell $-1 $-1 $-1 $64 $-1 $23 #
shell $-1 $-1 $-1 $65 $-1 $25 #
shell $-1 $-1 $-1 $66 $-1 $27 #
shell $-1 $-1 $-1 $67 $-1 $29 #
shell $-1 $-1 $-1 $68 $-1 $31 #
shell $-1 $-1 $-1 $69 $-1 $33 #
shell $-1 $-1 $-1 $70 $-1 $35 #
shell $-1 $-1 $-1 $71 $-1 $37 #
shell $-1 $-1 $-1 $72 $-1 $39 #
shell $-1 $-1 $-1 $73 $-1 $41 #
shell $-1 $-1 $-1 $74 $-1 $43 #
face $-1 $75 $76 $45 $-1 $77 forward single #
face $-1 $78 $79 $46 $-1 $80 reversed single #
face $-1 $81 $82 $47 $-1 $83 reversed single #
face $-1 $84 $85 $48 $-1 $86 reversed single #
face $-1 $87 $88 $49 $-1 $89 forward single #
face $-1 $90 $91 $50 $-1 $92 forward single #
face $-1 $93 $94 $51 $-1 $95 forward single #
face $-1 $96 $97 $52 $-1 $98 reversed single #
face $-1 $99 $100 $53 $-1 $101 forward single #
face $-1 $102 $103 $54 $-1 $104 forward single #
face $-1 $105 $106 $55 $-1 $107 forward single #
face $-1 $108 $109 $56 $-1 $110 reversed single #
face $-1 $111 $112 $57 $-1 $113 forward single #
face $-1 $114 $115 $58 $-1 $116 forward single #
face $-1 $117 $118 $59 $-1 $119 forward single #
face $-1 $120 $121 $45 $-1 $122 reversed single #
loop $-1 $-1 $123 $60 #
plane-surface $-1 0 0 8.6269102471673023 0 0 1 1 0 0 forward_v I I I I #
face $-1 $124 $125 $46 $-1 $126 reversed single #
loop $-1 $-1 $127 $61 #
plane-surface $-1 -37.769597262664249 -9.9721203432207624 0 0 1 0 0 0 1 forward_v I I I I #
face $-1 $128 $129 $47 $-1 $130 reversed single #
loop $-1 $-1 $131 $62 #
plane-surface $-1 37.769597262664242 -9.9721203432207624 0 0 1 0 0 0 1 forward_v I I I I #
face $-1 $132 $133 $48 $-1 $134 reversed single #
loop $-1 $-1 $135 $63 #
plane-surface $-1 16.994867909295216 50.52005930766434 97.852036901302483 1 0 0 0 -0.70710678939079041 -0.70710677298230451 forward_v I I I I #
face $-1 $136 $137 $49 $-1 $138 forward single #
loop $-1 $139 $140 $64 #
cone-surface $-1 18.982723217188607 21.077238208605653 5.4782075615600903 0 -0.70710678939079041 -0.70710677298230451 0.5 0 0 1 I I 0 1 0.5 forward I I I I #
face $-1 $141 $142 $50 $-1 $143 forward single #
loop $-1 $144 $145 $65 #
cone-surface $-1 21.964506179028696 21.077238208605653 5.4782075615600903 0 -0.70710678939079041 -0.70710677298230451 0.5 0 0 1 I I 0 1 0.5 forward I I I I #
face $-1 $146 $147 $51 $-1 $148 forward single #
loop $-1 $149 $150 $66 #
cone-surface $-1 24.946289140868792 21.077238208605653 5.4782075615600903 0 -0.70710678939079041 -0.70710677298230451 0.5 0 0 1 I I 0 1 0.5 forward I I I I #
face $-1 $151 $152 $52 $-1 $153 reversed single #
loop $-1 $-1 $154 $67 #
plane-surface $-1 -12.249607213747359 -97.631502565497584 46.9148989787315 -1 0 0 0 -0.85716730853699208 0.51503806187062418 forward_v I I I I #
face $-1 $155 $156 $53 $-1 $157 forward single #
loop $-1 $158 $159 $68 #
cone-surface $-1 -22.633252316726573 -21.092645408284156 4.8853163584181161 0 0.85716730853699208 -0.51503806187062418 1 0 0 1 I I 0 1 1 forward I I I I #
face $-1 $160 $161 $54 $-1 $162 forward single #
loop $-1 $163 $164 $69 #
cone-surface $-1 -18.739385403109367 -21.092645408284156 4.8853163584181161 0 0.85716730853699208 -0.51503806187062418 1 0 0 1 I I 0 1 1 forward I I I I #
face $-1 $165 $166 $55 $-1 $167 forward single #
loop $-1 $168 $169 $70 #
cone-surface $-1 -14.845518489492161 -21.092645408284156 4.8853163584181161 0 0.85716730853699208 -0.51503806187062418 1 0 0 1 I I 0 1 1 forward I I I I #
face $-1 $170 $171 $56 $-1 $172 reversed single #
loop $-1 $-1 $173 $71 #
plane-surface $-1 25.229163592471373 -97.631502565497584 46.9148989787315 -1 0 0 0 -0.85716730853699208 0.51503806187062418 forward_v I I I I #
face $-1 $174 $175 $57 $-1 $176 forward single #
loop $-1 $177 $178 $72 #
cone-surface $-1 14.845518489492157 -21.092645408284156 4.8853163584181161 0 0.85716730853699208 -0.51503806187062418 1 0 0 1 I I 0 1 1 forward I I I I #
face $-1 $179 $180 $58 $-1 $181 forward single #
loop $-1 $182 $183 $73 #
cone-surface $-1 18.739385403109367 -21.092645408284156 4.8853163584181161 0 0.85716730853699208 -0.51503806187062418 1 0 0 1 I I 0 1 1 forward I I I I #
face $-1 $184 $185 $59 $-1 $186 forward single #
loop $-1 $187 $188 $74 #
cone-surface $-1 22.633252316726576 -21.092645408284156 4.8853163584181161 0 0.85716730853699208 -0.51503806187062418 1 0 0 1 I I 0 1 1 forward I I I I #
face $-1 $189 $190 $45 $-1 $191 reversed single #
loop $-1 $-1 $192 $75 #
plane-surface $-1 0 0 -8.6269102471673023 0 0 1 1 0 0 forward_v I I I I #
coedge $-1 $193 $194 $195 $196 forward $76 $-1 #
face $-1 $197 $198 $46 $-1 $199 reversed single #
loop $-1 $-1 $200 $78 #
plane-surface $-1 -37.769597262664249 -6.9721203432207624 0 0 -1 0 0 0 -1 forward_v I I I I #
coedge $-1 $201 $202 $203 $204 reversed $79 $-1 #
face $-1 $205 $206 $47 $-1 $207 reversed single #
loop $-1 $-1 $208 $81 #
plane-surface $-1 32.720504990125391 -8.4721203432207624 0 1 0 0 0 0 -1 forward_v I I I I #
coedge $-1 $209 $210 $211 $212 forward $82 $-1 #
face $-1 $213 $214 $48 $-1 $215 reversed single #
loop $-1 $-1 $216 $84 #
plane-surface $-1 21.964506179028696 -10.034712858652661 37.297266140165213 0 0.70710678939079041 0.70710677298230451 1 0 0 forward_v I I I I #
coedge $-1 $217 $218 $219 $220 reversed $85 $-1 #
face $-1 $-1 $221 $49 $-1 $222 forward single #
loop $-1 $223 $224 $87 #
cone-surface $-1 18.982723217188607 20.546908116562559 4.9478774818233617 0 -0.70710678939079041 -0.70710677298230451 0.25 0 0 1 I I -0.70710678118654746 0.70710678118654746 0.25 forward I I I I #
loop $-1 $-1 $225 $64 #
coedge $-1 $140 $140 $226 $227 reversed $88 $-1 #
face $-1 $-1 $228 $50 $-1 $229 forward single #
loop $-1 $230 $231 $90 #
cone-surface $-1 21.964506179028696 20.546908116562559 4.9478774818233617 0 -0.70710678939079041 -0.70710677298230451 0.25 0 0 1 I I -0.70710678118654746 0.70710678118654746 0.25 forward I I I I #
loop $-1 $-1 $232 $65 #
coedge $-1 $145 $145 $233 $234 reversed $91 $-1 #
face $-1 $-1 $235 $51 $-1 $236 forward single #
loop $-1 $237 $238 $93 #
cone-surface $-1 24.946289140868792 20.546908116562559 4.9478774818233617 0 -0.70710678939079041 -0.70710677298230451 0.25 0 0 1 I I -0.70710678118654746 0.70710678118654746 0.25 forward I I I I #
loop $-1 $-1 $239 $66 #
coedge $-1 $150 $150 $240 $241 reversed $94 $-1 #
face $-1 $242 $243 $52 $-1 $244 reversed single #
loop $-1 $-1 $245 $96 #
plane-surface $-1 -18.739385403109367 -24.22594083755537 2.8083892386295375 0 -0.85716730853699208 0.51503806187062418 1 0 0 forward_v I I I I #
coedge $-1 $246 $247 $248 $249 reversed $97 $-1 #
face $-1 $-1 $250 $53 $-1 $251 forward single #
loop $-1 $252 $253 $99 #
cone-surface $-1 -22.633252316726573 -19.278826332017502 3.7954639430025008 0 0.85716730853699208 -0.51503806187062418 0.5 0 0 1 I I -0.70710678118654779 0.70710678118654713 0.5 forward I I I I #
loop $-1 $-1 $254 $68 #
coedge $-1 $159 $159 $255 $256 reversed $100 $-1 #
face $-1 $-1 $257 $54 $-1 $258 forward single #
loop $-1 $259 $260 $102 #
cone-surface $-1 -18.739385403109367 -19.278826332017502 3.7954639430025008 0 0.85716730853699208 -0.51503806187062418 0.5 0 0 1 I I -0.70710678118654779 0.70710678118654713 0.5 forward I I I I #
loop $-1 $-1 $261 $69 #
coedge $-1 $164 $164 $262 $263 reversed $103 $-1 #
face $-1 $-1 $264 $55 $-1 $265 forward single #
loop $-1 $266 $267 $105 #
cone-surface $-1 -14.845518489492161 -19.278826332017502 3.7954639430025008 0 0.85716730853699208 -0.51503806187062418 0.5 0 0 1 I I -0.70710678118654779 0.70710678118654713 0.5 forward I I I I #
loop $-1 $-1 $268 $70 #
coedge $-1 $169 $169 $269 $270 reversed $106 $-1 #
face $-1 $271 $272 $56 $-1 $273 reversed single #
loop $-1 $-1 $274 $108 #
plane-surface $-1 18.739385403109367 -24.22594083755537 2.8083892386295375 0 -0.85716730853699208 0.51503806187062418 1 0 0 forward_v I I I I #
coedge $-1 $275 $276 $277 $278 reversed $109 $-1 #
face $-1 $-1 $279 $57 $-1 $280 forward single #
loop $-1 $281 $282 $111 #
cone-surface $-1 14.845518489492157 -19.278826332017502 3.7954639430025008 0 0.85716730853699208 -0.51503806187062418 0.5 0 0 1 I I -0.70710678118654779 0.70710678118654713 0.5 forward I I I I #
loop $-1 $-1 $283 $72 #
coedge $-1 $178 $178 $284 $285 reversed $112 $-1 #
face $-1 $-1 $286 $58 $-1 $287 forward single #
loop $-1 $288 $289 $114 #
cone-surface $-1 18.739385403109367 -19.278826332017502 3.7954639430025008 0 0.85716730853699208 -0.51503806187062418 0.5 0 0 1 I I -0.70710678118654779 0.70710678118654713 0.5 forward I I I I #
loop $-1 $-1 $290 $73 #
coedge $-1 $183 $183 $291 $292 reversed $115 $-1 #
face $-1 $-1 $293 $59 $-1 $294 forward single #
loop $-1 $295 $296 $117 #
cone-surface $-1 22.633252316726576 -19.278826332017502 3.7954639430025008 0 0.85716730853699208 -0.51503806187062418 0.5 0 0 1 I I -0.70710678118654779 0.70710678118654713 0.5 forward I I I I #
loop $-1 $-1 $297 $74 #
coedge $-1 $188 $188 $298 $299 reversed $118 $-1 #
face $-1 $300 $301 $45 $-1 $302 reversed single #
loop $-1 $-1 $303 $120 #
plane-surface $-1 0 -24.225940837555367 0 0 1 0 0 0 1 forward_v I I I I #
coedge $-1 $304 $305 $306 $307 forward $121 $-1 #
coedge $-1 $308 $123 $309 $310 forward $76 $-1 #
coedge $-1 $123 $308 $311 $312 forward $76 $-1 #
coedge $-1 $313 $314 $123 $196 reversed $315 $-1 #
edge $-1 $316 -24.225940837555367 $317 24.225940837555367 $195 $318 forward 7 unknown #
face $-1 $319 $320 $46 $-1 $321 reversed single #
loop $-1 $-1 $322 $124 #
plane-surface $-1 -32.720504990125391 -8.4721203432207624 0 -1 0 0 0 0 1 forward_v I I I I #
coedge $-1 $323 $324 $325 $326 forward $125 $-1 #
coedge $-1 $327 $127 $328 $329 reversed $79 $-1 #
coedge $-1 $127 $327 $330 $331 reversed $79 $-1 #
coedge $-1 $332 $333 $127 $204 forward $334 $-1 #
edge $-1 $335 -8.6269102471673023 $336 8.6269102471673023 $203 $337 forward 7 unknown #
face $-1 $338 $339 $47 $-1 $340 reversed single #
loop $-1 $-1 $341 $128 #
plane-surface $-1 37.769597262664242 -6.9721203432207624 0 0 -1 0 0 0 -1 forward_v I I I I #
coedge $-1 $342 $343 $344 $345 forward $129 $-1 #
coedge $-1 $346 $131 $347 $348 reversed $82 $-1 #
coedge $-1 $131 $346 $349 $350 reversed $82 $-1 #
coedge $-1 $343 $342 $131 $212 reversed $129 $-1 #
edge $-1 $351 -8.6269102471673023 $352 8.6269102471673023 $211 $353 forward 7 unknown #
face $-1 $354 $355 $48 $-1 $356 reversed single #
loop $-1 $-1 $357 $132 #
plane-surface $-1 26.934144448762176 50.52005930766434 97.852036901302483 -1 0 0 0 0.70710678939079041 0.70710677298230451 forward_v I I I I #
coedge $-1 $358 $359 $360 $361 reversed $133 $-1 #
coedge $-1 $218 $135 $362 $363 reversed $85 $-1 #
coedge $-1 $135 $217 $358 $364 reversed $85 $-1 #
coedge $-1 $360 $365 $135 $220 forward $366 $-1 #
edge $-1 $367 1.0340888162768032 $368 6.6243872847854846 $219 $369 forward 7 unknown #
loop $-1 $-1 $226 $136 #
plane-surface $-1 21.964506179028696 -10.034712858652661 37.297266140165213 0 0.70710678939079041 0.70710677298230451 1 0 0 forward_v I I I I #
loop $-1 $-1 $370 $87 #
coedge $-1 $224 $224 $225 $371 reversed $137 $-1 #
coedge $-1 $225 $225 $224 $371 forward $139 $-1 #
coedge $-1 $226 $226 $140 $227 forward $221 $-1 #
edge $-1 $372 -2.5121483128092788e-015 $372 6.2831853071795978 $226 $373 forward 7 unknown #
loop $-1 $-1 $233 $141 #
plane-surface $-1 21.964506179028696 -10.034712858652661 37.297266140165213 0 0.70710678939079041 0.70710677298230451 1 0 0 forward_v I I I I #
loop $-1 $-1 $374 $90 #
coedge $-1 $231 $231 $232 $375 reversed $142 $-1 #
coedge $-1 $232 $232 $231 $375 forward $144 $-1 #
coedge $-1 $233 $233 $145 $234 forward $228 $-1 #
edge $-1 $376 -2.5121483128092788e-015 $376 6.2831853071795978 $233 $377 forward 7 unknown #
loop $-1 $-1 $240 $146 #
plane-surface $-1 21.964506179028696 -10.034712858652661 37.297266140165213 0 0.70710678939079041 0.70710677298230451 1 0 0 forward_v I I I I #
loop $-1 $-1 $378 $93 #
coedge $-1 $238 $238 $239 $379 reversed $147 $-1 #
coedge $-1 $239 $239 $238 $379 forward $149 $-1 #
coedge $-1 $240 $240 $150 $241 forward $235 $-1 #
edge $-1 $380 -2.5121483128092788e-015 $380 6.2831853071795978 $240 $381 forward 7 unknown #
face $-1 $382 $383 $52 $-1 $384 forward single #
loop $-1 $-1 $385 $151 #
plane-surface $-1 -25.229163592471373 -97.631502565497584 46.9148989787315 1 0 0 0 0.85716730853699208 -0.51503806187062418 forward_v I I I I #
coedge $-1 $386 $387 $388 $389 reversed $152 $-1 #
coedge $-1 $247 $154 $390 $391 reversed $97 $-1 #
coedge $-1 $154 $246 $386 $392 reversed $97 $-1 #
coedge $-1 $388 $393 $154 $249 forward $383 $-1 #
edge $-1 $394 24.589810445193425 $395 28.085930459739533 $248 $396 forward 7 unknown #
loop $-1 $-1 $255 $155 #
plane-surface $-1 -18.739385403109367 -24.22594083755537 2.8083892386295375 0 -0.85716730853699208 0.51503806187062418 1 0 0 forward_v I I I I #
loop $-1 $-1 $397 $99 #
coedge $-1 $253 $253 $254 $398 reversed $156 $-1 #
coedge $-1 $254 $254 $253 $398 forward $158 $-1 #
coedge $-1 $255 $255 $159 $256 forward $250 $-1 #
edge $-1 $399 0 $399 6.2831853071796004 $255 $400 forward 7 unknown #
loop $-1 $-1 $262 $160 #
plane-surface $-1 -18.739385403109367 -24.22594083755537 2.8083892386295375 0 -0.85716730853699208 0.51503806187062418 1 0 0 forward_v I I I I #
loop $-1 $-1 $401 $102 #
coedge $-1 $260 $260 $261 $402 reversed $161 $-1 #
coedge $-1 $261 $261 $260 $402 forward $163 $-1 #
coedge $-1 $262 $262 $164 $263 forward $257 $-1 #
edge $-1 $403 0 $403 6.2831853071796004 $262 $404 forward 7 unknown #
loop $-1 $-1 $269 $165 #
plane-surface $-1 -18.739385403109367 -24.22594083755537 2.8083892386295375 0 -0.85716730853699208 0.51503806187062418 1 0 0 forward_v I I I I #
loop $-1 $-1 $405 $105 #
coedge $-1 $267 $267 $268 $406 reversed $166 $-1 #
coedge $-1 $268 $268 $267 $406 forward $168 $-1 #
coedge $-1 $269 $269 $169 $270 forward $264 $-1 #
edge $-1 $407 0 $407 6.2831853071796004 $269 $408 forward 7 unknown #
face $-1 $409 $410 $56 $-1 $411 reversed single #
loop $-1 $-1 $412 $170 #
plane-surface $-1 12.249607213747359 -97.631502565497584 46.9148989787315 1 0 0 0 0.85716730853699208 -0.51503806187062418 forward_v I I I I #
coedge $-1 $413 $414 $415 $416 reversed $171 $-1 #
coedge $-1 $276 $173 $417 $418 reversed $109 $-1 #
coedge $-1 $173 $275 $413 $419 reversed $109 $-1 #
coedge $-1 $415 $420 $173 $278 forward $421 $-1 #
edge $-1 $422 24.589810445193425 $423 28.085930459739533 $277 $424 forward 7 unknown #
loop $-1 $-1 $284 $174 #
plane-surface $-1 18.739385403109367 -24.22594083755537 2.8083892386295375 0 -0.85716730853699208 0.51503806187062418 1 0 0 forward_v I I I I #
loop $-1 $-1 $425 $111 #
coedge $-1 $282 $282 $283 $426 reversed $175 $-1 #
coedge $-1 $283 $283 $282 $426 forward $177 $-1 #
coedge $-1 $284 $284 $178 $285 forward $279 $-1 #
edge $-1 $427 0 $427 6.2831853071796004 $284 $428 forward 7 unknown #
loop $-1 $-1 $291 $179 #
plane-surface $-1 18.739385403109367 -24.22594083755537 2.8083892386295375 0 -0.85716730853699208 0.51503806187062418 1 0 0 forward_v I I I I #
loop $-1 $-1 $429 $114 #
coedge $-1 $289 $289 $290 $430 reversed $180 $-1 #
coedge $-1 $290 $290 $289 $430 forward $182 $-1 #
coedge $-1 $291 $291 $183 $292 forward $286 $-1 #
edge $-1 $431 0 $431 6.2831853071796004 $291 $432 forward 7 unknown #
loop $-1 $-1 $298 $184 #
plane-surface $-1 18.739385403109367 -24.22594083755537 2.8083892386295375 0 -0.85716730853699208 0.51503806187062418 1 0 0 forward_v I I I I #
loop $-1 $-1 $433 $117 #
coedge $-1 $296 $296 $297 $434 reversed $185 $-1 #
coedge $-1 $297 $297 $296 $434 forward $187 $-1 #
coedge $-1 $298 $298 $188 $299 forward $293 $-1 #
edge $-1 $435 0 $435 6.2831853071796004 $298 $436 forward 7 unknown #
face $-1 $437 $438 $45 $-1 $439 reversed single #
loop $-1 $-1 $440 $189 #
plane-surface $-1 -42.818689535203099 0 0 1 0 0 0 0 -1 forward_v I I I I #
coedge $-1 $441 $311 $442 $443 forward $190 $-1 #
coedge $-1 $444 $192 $441 $445 forward $121 $-1 #
coedge $-1 $192 $444 $446 $447 forward $121 $-1 #
coedge $-1 $314 $313 $192 $307 reversed $315 $-1 #
edge $-1 $448 -24.225940837555367 $449 24.225940837555367 $306 $450 forward 7 unknown #
coedge $-1 $194 $193 $451 $452 forward $76 $-1 #
coedge $-1 $453 $454 $193 $310 reversed $438 $-1 #
edge $-1 $317 -42.818689535203099 $455 42.818689535203099 $309 $456 forward 7 unknown #
coedge $-1 $303 $457 $194 $312 reversed $190 $-1 #
edge $-1 $458 -42.818689535203099 $316 42.818689535203099 $311 $459 forward 7 unknown #
coedge $-1 $306 $195 $457 $460 forward $315 $-1 #
coedge $-1 $195 $306 $453 $461 reversed $315 $-1 #
loop $-1 $-1 $313 $437 #
vertex $-1 $196 $462 #
vertex $-1 $196 $463 #
straight-curve $-1 42.818689535203099 0 8.6269102471673023 0 1 0 I I #
face $-1 $464 $465 $46 $-1 $466 forward single #
loop $-1 $-1 $467 $197 #
plane-surface $-1 0 0 -8.6269102471673023 0 0 1 1 0 0 forward_v I I I I #
coedge $-1 $468 $469 $327 $470 forward $198 $-1 #
coedge $-1 $471 $200 $467 $472 reversed $125 $-1 #
coedge $-1 $200 $471 $473 $474 reversed $125 $-1 #
coedge $-1 $469 $468 $200 $326 reversed $198 $-1 #
edge $-1 $475 -8.6269102471673023 $476 8.6269102471673023 $325 $477 forward 7 unknown #
coedge $-1 $202 $201 $322 $470 reversed $79 $-1 #
coedge $-1 $478 $479 $201 $329 forward $320 $-1 #
edge $-1 $480 13.835706358793267 $335 23.933890903870982 $328 $481 forward 7 unknown #
coedge $-1 $482 $483 $202 $331 forward $465 $-1 #
edge $-1 $336 -23.933890903870982 $484 -13.835706358793267 $330 $485 forward 7 unknown #
coedge $-1 $486 $203 $483 $487 reversed $334 $-1 #
coedge $-1 $203 $486 $478 $488 reversed $334 $-1 #
loop $-1 $-1 $486 $464 #
vertex $-1 $488 $489 #
vertex $-1 $204 $490 #
straight-curve $-1 -42.818689535203099 -9.9721203432207624 0 0 0 1 I I #
face $-1 $491 $492 $47 $-1 $493 forward single #
loop $-1 $-1 $347 $205 #
plane-surface $-1 0 0 -8.6269102471673023 0 0 1 1 0 0 forward_v I I I I #
coedge $-1 $494 $495 $496 $497 reversed $206 $-1 #
coedge $-1 $211 $208 $498 $499 reversed $129 $-1 #
coedge $-1 $208 $211 $500 $501 reversed $129 $-1 #
coedge $-1 $495 $494 $208 $345 reversed $206 $-1 #
edge $-1 $502 -8.6269102471673023 $503 8.6269102471673023 $344 $504 forward 7 unknown #
coedge $-1 $210 $209 $505 $506 reversed $82 $-1 #
coedge $-1 $498 $507 $209 $348 forward $339 $-1 #
edge $-1 $508 -23.933890903870971 $352 -13.835706358793271 $347 $509 forward 7 unknown #
coedge $-1 $510 $500 $210 $350 forward $492 $-1 #
edge $-1 $351 13.835706358793271 $511 23.933890903870971 $349 $512 forward 7 unknown #
vertex $-1 $350 $513 #
vertex $-1 $348 $514 #
straight-curve $-1 32.720504990125391 -9.9721203432207624 0 0 0 -1 I I #
face $-1 $-1 $366 $48 $-1 $515 forward single #
loop $-1 $-1 $516 $213 #
plane-surface $-1 0 24.225940837555367 0 0 -1 0 0 0 -1 forward_v I I I I #
coedge $-1 $517 $518 $519 $520 reversed $214 $-1 #
coedge $-1 $521 $216 $218 $364 forward $133 $-1 #
coedge $-1 $216 $521 $517 $522 forward $133 $-1 #
coedge $-1 $519 $219 $216 $361 forward $366 $-1 #
edge $-1 $368 6.0126148197808682 $523 15.951891359247828 $360 $524 forward 7 unknown #
coedge $-1 $525 $526 $217 $363 forward $355 $-1 #
edge $-1 $527 -45.889406801716071 $367 -40.299108203483939 $362 $528 forward 7 unknown #
edge $-1 $368 40.54600567150392 $527 48.451881675110776 $218 $529 forward 7 unknown #
coedge $-1 $219 $519 $525 $530 forward $366 $-1 #
loop $-1 $-1 $519 $354 #
vertex $-1 $363 $531 #
vertex $-1 $220 $532 #
straight-curve $-1 16.994867909295216 25.26002965383217 8.6269102471673023 0 -1 0 I I #
coedge $-1 $370 $370 $-1 $533 reversed $223 $-1 #
edge $-1 $534 0 $534 6.2831853071796004 $224 $535 forward 7 unknown #
vertex $-1 $227 $536 #
ellipse-curve $-1 18.982723217188607 21.430791603301035 5.8317609480512296 0 0.70710678939079041 0.70710677298230451 0.5 0 0 1 I I #
coedge $-1 $374 $374 $-1 $537 reversed $230 $-1 #
edge $-1 $538 0 $538 6.2831853071796004 $231 $539 forward 7 unknown #
vertex $-1 $234 $540 #
ellipse-curve $-1 21.964506179028696 21.430791603301035 5.8317609480512296 0 0.70710678939079041 0.70710677298230451 0.5 0 0 1 I I #
coedge $-1 $378 $378 $-1 $541 reversed $237 $-1 #
edge $-1 $542 0 $542 6.2831853071796004 $238 $543 forward 7 unknown #
vertex $-1 $241 $544 #
ellipse-curve $-1 24.946289140868792 21.430791603301035 5.8317609480512296 0 0.70710678939079041 0.70710677298230451 0.5 0 0 1 I I #
face $-1 $-1 $545 $52 $-1 $546 reversed single #
loop $-1 $-1 $248 $242 #
plane-surface $-1 0 0 8.6269102471673023 0 0 1 1 0 0 forward_v I I I I #
coedge $-1 $547 $548 $549 $550 reversed $243 $-1 #
coedge $-1 $551 $245 $247 $392 forward $152 $-1 #
coedge $-1 $245 $551 $547 $552 forward $152 $-1 #
coedge $-1 $549 $248 $245 $389 forward $383 $-1 #
edge $-1 $395 2.8799145121926752 $553 15.85947089091669 $388 $554 forward 7 unknown #
coedge $-1 $555 $556 $246 $391 forward $545 $-1 #
edge $-1 $557 -20.649060250736206 $394 -14.830539242198448 $390 $558 forward 7 unknown #
edge $-1 $395 -6.7880808689131902 $557 -6.7783465533581367e-015 $247 $559 forward 7 unknown #
coedge $-1 $248 $549 $555 $560 forward $383 $-1 #
vertex $-1 $249 $561 #
vertex $-1 $249 $562 #
straight-curve $-1 -12.249607213747359 -48.815751282748792 8.6269102471673023 0 1 0 I I #
coedge $-1 $397 $397 $-1 $563 reversed $252 $-1 #
edge $-1 $564 0 $564 6.2831853071796004 $253 $565 forward 7 unknown #
vertex $-1 $256 $566 #
ellipse-curve $-1 -22.633252316726573 -22.477880830282313 5.7176497428984199 0 -0.85716730853699208 0.51503806187062418 1 0 0 1 I I #
coedge $-1 $401 $401 $-1 $567 reversed $259 $-1 #
edge $-1 $568 0 $568 6.2831853071796004 $260 $569 forward 7 unknown #
vertex $-1 $263 $570 #
ellipse-curve $-1 -18.739385403109367 -22.477880830282313 5.7176497428984199 0 -0.85716730853699208 0.51503806187062418 1 0 0 1 I I #
coedge $-1 $405 $405 $-1 $571 reversed $266 $-1 #
edge $-1 $572 0 $572 6.2831853071796004 $267 $573 forward 7 unknown #
vertex $-1 $270 $574 #
ellipse-curve $-1 -14.845518489492161 -22.477880830282313 5.7176497428984199 0 -0.85716730853699208 0.51503806187062418 1 0 0 1 I I #
face $-1 $-1 $421 $56 $-1 $575 forward single #
loop $-1 $-1 $576 $271 #
plane-surface $-1 0 -24.225940837555367 0 0 1 0 0 0 1 forward_v I I I I #
coedge $-1 $577 $578 $579 $580 reversed $272 $-1 #
coedge $-1 $581 $274 $276 $419 forward $171 $-1 #
coedge $-1 $274 $581 $577 $582 forward $171 $-1 #
coedge $-1 $579 $277 $274 $416 forward $421 $-1 #
edge $-1 $423 -15.85947089091669 $583 -2.8799145121926752 $415 $584 forward 7 unknown #
coedge $-1 $585 $586 $275 $418 forward $410 $-1 #
edge $-1 $587 -20.649060250736206 $422 -14.830539242198448 $417 $588 forward 7 unknown #
edge $-1 $423 -6.7880808689131902 $587 -6.7783465533581367e-015 $276 $589 forward 7 unknown #
coedge $-1 $277 $579 $585 $590 forward $421 $-1 #
loop $-1 $-1 $579 $409 #
vertex $-1 $418 $591 #
vertex $-1 $278 $592 #
straight-curve $-1 25.229163592471373 -48.815751282748792 8.6269102471673023 0 1 0 I I #
coedge $-1 $425 $425 $-1 $593 reversed $281 $-1 #
edge $-1 $594 0 $594 6.2831853071796004 $282 $595 forward 7 unknown #
vertex $-1 $285 $596 #
ellipse-curve $-1 14.845518489492157 -22.477880830282313 5.7176497428984199 0 -0.85716730853699208 0.51503806187062418 1 0 0 1 I I #
coedge $-1 $429 $429 $-1 $597 reversed $288 $-1 #
edge $-1 $598 0 $598 6.2831853071796004 $289 $599 forward 7 unknown #
vertex $-1 $292 $600 #
ellipse-curve $-1 18.739385403109367 -22.477880830282313 5.7176497428984199 0 -0.85716730853699208 0.51503806187062418 1 0 0 1 I I #
coedge $-1 $433 $433 $-1 $601 reversed $295 $-1 #
edge $-1 $602 0 $602 6.2831853071796004 $296 $603 forward 7 unknown #
vertex $-1 $299 $604 #
ellipse-curve $-1 22.633252316726576 -22.477880830282313 5.7176497428984199 0 -0.85716730853699208 0.51503806187062418 1 0 0 1 I I #
face $-1 $-1 $315 $45 $-1 $605 reversed single #
loop $-1 $-1 $453 $300 #
plane-surface $-1 0 24.225940837555367 0 0 -1 0 0 0 -1 forward_v I I I I #
coedge $-1 $606 $451 $454 $607 forward $301 $-1 #
coedge $-1 $457 $303 $304 $445 reversed $190 $-1 #
coedge $-1 $451 $606 $303 $443 reversed $301 $-1 #
edge $-1 $458 -8.6269102471673023 $608 8.6269102471673023 $442 $609 forward 7 unknown #
coedge $-1 $305 $304 $606 $610 forward $121 $-1 #
edge $-1 $449 -42.818689535203099 $608 42.818689535203099 $441 $611 forward 7 unknown #
coedge $-1 $454 $453 $305 $447 reversed $438 $-1 #
edge $-1 $612 -42.818689535203099 $448 42.818689535203099 $446 $613 forward 7 unknown #
vertex $-1 $307 $614 #
vertex $-1 $460 $615 #
straight-curve $-1 42.818689535203099 0 -8.6269102471673023 0 -1 0 I I #
coedge $-1 $440 $442 $308 $452 reversed $301 $-1 #
edge $-1 $455 -24.225940837555367 $458 24.225940837555367 $451 $616 forward 7 unknown #
coedge $-1 $446 $309 $314 $461 forward $438 $-1 #
coedge $-1 $309 $446 $440 $607 reversed $438 $-1 #
vertex $-1 $310 $617 #
straight-curve $-1 0 24.225940837555367 8.6269102471673023 -1 0 0 I I #
coedge $-1 $311 $441 $313 $460 reversed $190 $-1 #
vertex $-1 $452 $618 #
straight-curve $-1 0 -24.225940837555367 8.6269102471673023 1 0 0 I I #
edge $-1 $316 -8.6269102471673023 $449 8.6269102471673023 $313 $619 forward 7 unknown #
edge $-1 $317 -8.6269102471673023 $448 8.6269102471673023 $314 $620 forward 7 unknown #
point $-1 42.818689535203099 -24.225940837555367 8.6269102471673023 #
point $-1 42.818689535203099 24.225940837555367 8.6269102471673023 #
face $-1 $-1 $334 $46 $-1 $621 reversed single #
loop $-1 $-1 $473 $319 #
plane-surface $-1 0 0 8.6269102471673023 0 0 1 1 0 0 forward_v I I I I #
coedge $-1 $479 $478 $323 $472 forward $320 $-1 #
coedge $-1 $325 $322 $479 $622 reversed $198 $-1 #
coedge $-1 $322 $325 $482 $623 reversed $198 $-1 #
edge $-1 $484 -8.6269102471673023 $480 8.6269102471673023 $322 $624 forward 7 unknown #
coedge $-1 $324 $323 $486 $625 reversed $125 $-1 #
edge $-1 $626 -23.933890903870982 $476 -13.835706358793267 $467 $627 forward 7 unknown #
coedge $-1 $483 $482 $324 $474 forward $465 $-1 #
edge $-1 $475 13.835706358793267 $628 23.933890903870982 $473 $629 forward 7 unknown #
vertex $-1 $474 $630 #
vertex $-1 $472 $631 #
straight-curve $-1 -32.720504990125391 -6.9721203432207624 0 0 0 -1 I I #
coedge $-1 $467 $328 $333 $488 forward $320 $-1 #
coedge $-1 $328 $467 $468 $622 forward $320 $-1 #
vertex $-1 $329 $632 #
straight-curve $-1 -18.884798631332124 -9.9721203432207624 -8.6269102471673023 -1 0 0 I I #
coedge $-1 $473 $330 $469 $623 forward $465 $-1 #
coedge $-1 $330 $473 $332 $487 forward $465 $-1 #
vertex $-1 $331 $633 #
straight-curve $-1 -18.884798631332124 -9.9721203432207624 8.6269102471673023 1 0 0 I I #
coedge $-1 $333 $332 $471 $625 forward $334 $-1 #
edge $-1 $628 6.9721203432207624 $336 9.9721203432207624 $332 $634 forward 7 unknown #
edge $-1 $335 -9.9721203432207624 $626 -6.9721203432207624 $333 $635 forward 7 unknown #
point $-1 -42.818689535203106 -9.9721203432207624 -8.6269102471673023 #
point $-1 -42.818689535203106 -9.9721203432207624 8.6269102471673023 #
face $-1 $-1 $636 $47 $-1 $637 reversed single #
loop $-1 $-1 $349 $338 #
plane-surface $-1 0 0 8.6269102471673023 0 0 1 1 0 0 forward_v I I I I #
coedge $-1 $344 $341 $638 $639 reversed $206 $-1 #
coedge $-1 $341 $344 $640 $641 reversed $206 $-1 #
coedge $-1 $642 $643 $341 $497 forward $636 $-1 #
edge $-1 $644 -8.6269102471673023 $645 8.6269102471673023 $496 $646 forward 7 unknown #
coedge $-1 $638 $347 $342 $499 forward $339 $-1 #
edge $-1 $352 -5.7360601716103812 $503 -2.7360601716103812 $498 $647 forward 7 unknown #
coedge $-1 $349 $640 $343 $501 forward $492 $-1 #
edge $-1 $502 2.7360601716103812 $351 5.7360601716103812 $500 $648 forward 7 unknown #
vertex $-1 $501 $649 #
vertex $-1 $499 $650 #
straight-curve $-1 32.720504990125391 -6.9721203432207624 0 0 0 -1 I I #
coedge $-1 $643 $642 $346 $506 forward $636 $-1 #
edge $-1 $511 -8.6269102471673023 $508 8.6269102471673023 $505 $651 forward 7 unknown #
coedge $-1 $347 $638 $643 $652 forward $339 $-1 #
vertex $-1 $506 $653 #
straight-curve $-1 18.884798631332121 -9.9721203432207624 -8.6269102471673023 -1 0 0 I I #
coedge $-1 $640 $349 $642 $654 forward $492 $-1 #
vertex $-1 $654 $655 #
straight-curve $-1 18.884798631332121 -9.9721203432207624 8.6269102471673023 1 0 0 I I #
point $-1 32.720504990125391 -9.9721203432207624 8.6269102471673023 #
point $-1 32.720504990125391 -9.9721203432207624 -8.6269102471673023 #
plane-surface $-1 0 0 8.6269102471673023 0 0 1 1 0 0 forward_v I I I I #
coedge $-1 $526 $525 $518 $656 forward $355 $-1 #
coedge $-1 $518 $357 $359 $522 reversed $214 $-1 #
coedge $-1 $357 $517 $516 $656 reversed $214 $-1 #
coedge $-1 $365 $360 $357 $520 forward $366 $-1 #
edge $-1 $523 -6.6243872847854846 $657 -1.0340888162768032 $519 $658 forward 7 unknown #
coedge $-1 $359 $358 $526 $659 reversed $133 $-1 #
edge $-1 $660 -48.451881675110776 $523 -40.54600567150392 $517 $661 forward 7 unknown #
vertex $-1 $361 $662 #
straight-curve $-1 10.982253089514348 18.635642369046685 8.6269102471673023 1 0 0 I I #
coedge $-1 $516 $362 $365 $530 reversed $355 $-1 #
coedge $-1 $362 $516 $521 $659 forward $355 $-1 #
vertex $-1 $363 $663 #
straight-curve $-1 16.994867909295216 24.225940837555367 48.926018450651242 0 0 1 I I #
straight-curve $-1 16.994867909295216 -10.034712858652661 37.297266140165213 0 0.70710677298230451 -0.70710678939079041 I I #
edge $-1 $657 -26.934144448762176 $367 -16.994867909295216 $525 $664 forward 7 unknown #
point $-1 16.994867909295216 24.225940837555367 8.6269102471673023 #
point $-1 16.994867909295216 18.635642369046685 8.6269102471673023 #
edge $-1 $665 1 $665 0 $370 $-1 forward 7 unknown #
vertex $-1 $371 $666 #
ellipse-curve $-1 18.982723217188607 20.723684813910257 5.1246541750689376 0 0.70710678939079041 0.70710677298230451 0.5 0 0 1 I I #
point $-1 19.482723217188607 21.430791603301046 5.831760948051242 #
edge $-1 $667 1 $667 0 $374 $-1 forward 7 unknown #
vertex $-1 $375 $668 #
ellipse-curve $-1 21.964506179028696 20.723684813910257 5.1246541750689376 0 0.70710678939079041 0.70710677298230451 0.5 0 0 1 I I #
point $-1 22.464506179028696 21.430791603301046 5.831760948051242 #
edge $-1 $669 1 $669 0 $378 $-1 forward 7 unknown #
vertex $-1 $379 $670 #
ellipse-curve $-1 24.946289140868792 20.723684813910257 5.1246541750689376 0 0.70710678939079041 0.70710677298230451 0.5 0 0 1 I I #
point $-1 25.446289140868792 21.430791603301046 5.831760948051242 #
loop $-1 $-1 $390 $382 #
plane-surface $-1 0 -24.225940837555367 0 0 1 0 0 0 1 forward_v I I I I #
coedge $-1 $548 $385 $387 $552 reversed $243 $-1 #
coedge $-1 $385 $547 $671 $672 reversed $243 $-1 #
coedge $-1 $393 $388 $385 $550 forward $383 $-1 #
edge $-1 $553 -28.085930459739533 $673 -24.589810445193425 $549 $674 forward 7 unknown #
coedge $-1 $387 $386 $556 $675 reversed $152 $-1 #
edge $-1 $676 6.7783465533581367e-015 $553 6.7880808689131902 $547 $677 forward 7 unknown #
vertex $-1 $389 $678 #
straight-curve $-1 -9.3696927015546834 -20.729820823009259 8.6269102471673023 -1 0 0 I I #
coedge $-1 $671 $390 $393 $560 reversed $545 $-1 #
coedge $-1 $390 $671 $551 $675 forward $545 $-1 #
vertex $-1 $391 $679 #
straight-curve $-1 -12.249607213747359 -24.225940837555363 23.45744948936575 0 0 1 I I #
straight-curve $-1 -12.249607213747359 -24.22594083755537 2.8083892386295375 0 -0.51503806187062418 -0.85716730853699208 I I #
edge $-1 $673 -25.229163592471373 $394 -12.249607213747359 $555 $680 forward 7 unknown #
point $-1 -12.249607213747359 -24.225940837555367 8.6269102471673023 #
point $-1 -12.249607213747359 -20.729820823009259 8.6269102471673023 #
edge $-1 $681 1 $681 0 $397 $-1 forward 7 unknown #
vertex $-1 $398 $682 #
ellipse-curve $-1 -22.633252316726573 -19.707409986285999 4.0529829739378123 0 -0.85716730853699208 0.51503806187062418 1 0 0 1 I I #
point $-1 -21.633252316726573 -22.477880830282313 5.7176497428984199 #
edge $-1 $683 1 $683 0 $401 $-1 forward 7 unknown #
vertex $-1 $402 $684 #
ellipse-curve $-1 -18.739385403109367 -19.707409986285999 4.0529829739378123 0 -0.85716730853699208 0.51503806187062418 1 0 0 1 I I #
point $-1 -17.739385403109367 -22.477880830282313 5.7176497428984199 #
edge $-1 $685 1 $685 0 $405 $-1 forward 7 unknown #
vertex $-1 $406 $686 #
ellipse-curve $-1 -14.845518489492161 -19.707409986285999 4.0529829739378123 0 -0.85716730853699208 0.51503806187062418 1 0 0 1 I I #
point $-1 -13.845518489492161 -22.477880830282313 5.7176497428984199 #
plane-surface $-1 0 0 8.6269102471673023 0 0 1 1 0 0 forward_v I I I I #
coedge $-1 $586 $585 $578 $687 forward $410 $-1 #
coedge $-1 $578 $412 $414 $582 reversed $272 $-1 #
coedge $-1 $412 $577 $576 $687 reversed $272 $-1 #
coedge $-1 $420 $415 $412 $580 forward $421 $-1 #
edge $-1 $583 -28.085930459739533 $688 -24.589810445193425 $579 $689 forward 7 unknown #
coedge $-1 $414 $413 $586 $690 reversed $171 $-1 #
edge $-1 $691 6.7783465533581367e-015 $583 6.7880808689131902 $577 $692 forward 7 unknown #
vertex $-1 $416 $693 #
straight-curve $-1 9.3696927015546834 -20.729820823009259 8.6269102471673023 -1 0 0 I I #
coedge $-1 $576 $417 $420 $590 reversed $410 $-1 #
coedge $-1 $417 $576 $581 $690 forward $410 $-1 #
vertex $-1 $418 $694 #
straight-curve $-1 25.229163592471373 -24.225940837555363 23.45744948936575 0 0 1 I I #
straight-curve $-1 25.229163592471373 -24.22594083755537 2.8083892386295375 0 -0.51503806187062418 -0.85716730853699208 I I #
edge $-1 $688 12.249607213747359 $422 25.229163592471373 $585 $695 forward 7 unknown #
point $-1 25.229163592471373 -24.225940837555367 8.6269102471673023 #
point $-1 25.229163592471373 -20.729820823009259 8.6269102471673023 #
edge $-1 $696 1 $696 0 $425 $-1 forward 7 unknown #
vertex $-1 $426 $697 #
ellipse-curve $-1 14.845518489492157 -19.707409986285999 4.0529829739378123 0 -0.85716730853699208 0.51503806187062418 1 0 0 1 I I #
point $-1 15.845518489492157 -22.477880830282313 5.7176497428984199 #
edge $-1 $698 1 $698 0 $429 $-1 forward 7 unknown #
vertex $-1 $430 $699 #
ellipse-curve $-1 18.739385403109367 -19.707409986285999 4.0529829739378123 0 -0.85716730853699208 0.51503806187062418 1 0 0 1 I I #
point $-1 19.739385403109367 -22.477880830282313 5.7176497428984199 #
edge $-1 $700 1 $700 0 $433 $-1 forward 7 unknown #
vertex $-1 $434 $701 #
ellipse-curve $-1 22.633252316726576 -19.707409986285999 4.0529829739378123 0 -0.85716730853699208 0.51503806187062418 1 0 0 1 I I #
point $-1 23.633252316726576 -22.477880830282313 5.7176497428984199 #
plane-surface $-1 42.818689535203099 0 0 -1 0 0 0 0 1 forward_v I I I I #
coedge $-1 $442 $440 $444 $610 reversed $301 $-1 #
edge $-1 $455 -8.6269102471673023 $612 8.6269102471673023 $454 $702 forward 7 unknown #
vertex $-1 $610 $703 #
straight-curve $-1 -42.818689535203099 -24.225940837555367 0 0 0 -1 I I #
edge $-1 $608 -24.225940837555367 $612 24.225940837555367 $606 $704 forward 7 unknown #
straight-curve $-1 0 -24.225940837555367 -8.6269102471673023 -1 0 0 I I #
vertex $-1 $447 $705 #
straight-curve $-1 0 24.225940837555367 -8.6269102471673023 1 0 0 I I #
point $-1 42.818689535203099 24.225940837555367 -8.6269102471673023 #
point $-1 42.818689535203099 -24.225940837555367 -8.6269102471673023 #
straight-curve $-1 -42.818689535203099 0 8.6269102471673023 0 -1 0 I I #
point $-1 -42.818689535203099 24.225940837555367 8.6269102471673023 #
point $-1 -42.818689535203099 -24.225940837555367 8.6269102471673023 #
straight-curve $-1 42.818689535203099 -24.225940837555367 0 0 0 -1 I I #
straight-curve $-1 42.818689535203099 24.225940837555367 0 0 0 -1 I I #
plane-surface $-1 -42.818689535203099 0 0 1 0 0 0 0 -1 forward_v I I I I #
edge $-1 $476 2.7360601716103812 $480 5.7360601716103812 $479 $706 forward 7 unknown #
edge $-1 $484 -5.7360601716103812 $475 -2.7360601716103812 $482 $707 forward 7 unknown #
straight-curve $-1 -32.720504990125391 -9.9721203432207624 0 0 0 -1 I I #
edge $-1 $628 -8.6269102471673023 $626 8.6269102471673023 $486 $708 forward 7 unknown #
vertex $-1 $625 $709 #
straight-curve $-1 -18.884798631332124 -6.9721203432207624 -8.6269102471673023 1 0 0 I I #
vertex $-1 $487 $710 #
straight-curve $-1 -18.884798631332124 -6.9721203432207624 8.6269102471673023 -1 0 0 I I #
point $-1 -32.720504990125391 -6.9721203432207624 8.6269102471673023 #
point $-1 -32.720504990125391 -6.9721203432207624 -8.6269102471673023 #
point $-1 -32.720504990125391 -9.9721203432207624 -8.6269102471673023 #
point $-1 -32.720504990125391 -9.9721203432207624 8.6269102471673023 #
straight-curve $-1 -42.818689535203099 0 8.6269102471673023 0 -1 0 I I #
straight-curve $-1 -42.818689535203099 0 -8.6269102471673023 0 1 0 I I #
loop $-1 $-1 $505 $491 #
plane-surface $-1 42.818689535203099 0 0 -1 0 0 0 0 1 forward_v I I I I #
coedge $-1 $507 $498 $494 $639 forward $339 $-1 #
edge $-1 $503 13.835706358793271 $644 23.933890903870971 $638 $711 forward 7 unknown #
coedge $-1 $500 $510 $495 $641 forward $492 $-1 #
edge $-1 $645 -23.933890903870971 $502 -13.835706358793271 $640 $712 forward 7 unknown #
coedge $-1 $505 $496 $510 $654 reversed $636 $-1 #
coedge $-1 $496 $505 $507 $652 reversed $636 $-1 #
vertex $-1 $652 $713 #
vertex $-1 $497 $714 #
straight-curve $-1 42.818689535203099 -6.9721203432207624 0 0 0 1 I I #
straight-curve $-1 32.720504990125391 -4.2360601716103812 -8.6269102471673023 0 1 0 I I #
straight-curve $-1 32.720504990125391 -4.2360601716103812 8.6269102471673023 0 -1 0 I I #
point $-1 32.720504990125391 -6.9721203432207624 8.6269102471673023 #
point $-1 32.720504990125391 -6.9721203432207624 -8.6269102471673023 #
straight-curve $-1 42.818689535203099 -9.9721203432207624 0 0 0 -1 I I #
edge $-1 $644 6.9721203432207624 $508 9.9721203432207624 $643 $715 forward 7 unknown #
point $-1 42.818689535203092 -9.9721203432207624 -8.6269102471673023 #
edge $-1 $511 -9.9721203432207624 $645 -6.9721203432207624 $642 $716 forward 7 unknown #
point $-1 42.818689535203092 -9.9721203432207624 8.6269102471673023 #
edge $-1 $657 40.299108203483939 $660 45.889406801716071 $516 $717 forward 7 unknown #
vertex $-1 $530 $718 #
straight-curve $-1 26.934144448762176 25.26002965383217 8.6269102471673023 0 1 0 I I #
edge $-1 $660 -15.951891359247828 $527 -6.0126148197808682 $526 $719 forward 7 unknown #
vertex $-1 $659 $720 #
straight-curve $-1 26.934144448762176 -10.034712858652661 37.297266140165213 0 -0.70710677298230451 0.70710678939079041 I I #
point $-1 26.934144448762176 18.635642369046685 8.6269102471673023 #
point $-1 16.994867909295216 24.225940837555363 3.0366116489351711 #
straight-curve $-1 0 24.225940837555367 8.6269102471673023 -1 0 0 I I #
vertex $-1 $533 $721 #
point $-1 19.482723217188607 20.723684813910257 5.1246541750689376 #
vertex $-1 $537 $722 #
point $-1 22.464506179028696 20.723684813910257 5.1246541750689376 #
vertex $-1 $541 $723 #
point $-1 25.446289140868792 20.723684813910257 5.1246541750689376 #
coedge $-1 $556 $555 $548 $672 forward $545 $-1 #
edge $-1 $673 14.830539242198448 $676 20.649060250736206 $671 $724 forward 7 unknown #
vertex $-1 $560 $725 #
straight-curve $-1 -25.229163592471373 -48.815751282748792 8.6269102471673023 0 -1 0 I I #
edge $-1 $676 -15.85947089091669 $557 -2.8799145121926752 $556 $726 forward 7 unknown #
vertex $-1 $675 $727 #
straight-curve $-1 -25.229163592471373 -24.22594083755537 2.8083892386295375 0 0.51503806187062418 0.85716730853699208 I I #
point $-1 -25.229163592471373 -20.729820823009259 8.6269102471673023 #
point $-1 -12.249607213747359 -24.225940837555367 2.8083892386295433 #
straight-curve $-1 0 -24.225940837555367 8.6269102471673023 1 0 0 I I #
vertex $-1 $563 $728 #
point $-1 -21.633252316726573 -19.707409986285999 4.0529829739378123 #
vertex $-1 $567 $729 #
point $-1 -17.739385403109367 -19.707409986285999 4.0529829739378123 #
vertex $-1 $571 $730 #
point $-1 -13.845518489492161 -19.707409986285999 4.0529829739378123 #
edge $-1 $688 14.830539242198448 $691 20.649060250736206 $576 $731 forward 7 unknown #
vertex $-1 $590 $732 #
straight-curve $-1 12.249607213747359 -48.815751282748792 8.6269102471673023 0 -1 0 I I #
edge $-1 $691 2.8799145121926752 $587 15.85947089091669 $586 $733 forward 7 unknown #
vertex $-1 $690 $734 #
straight-curve $-1 12.249607213747359 -24.22594083755537 2.8083892386295375 0 0.51503806187062418 0.85716730853699208 I I #
point $-1 12.249607213747359 -20.729820823009259 8.6269102471673023 #
point $-1 25.229163592471373 -24.225940837555367 2.8083892386295433 #
straight-curve $-1 0 -24.225940837555367 8.6269102471673023 1 0 0 I I #
vertex $-1 $593 $735 #
point $-1 15.845518489492157 -19.707409986285999 4.0529829739378123 #
vertex $-1 $597 $736 #
point $-1 19.739385403109367 -19.707409986285999 4.0529829739378123 #
vertex $-1 $601 $737 #
point $-1 23.633252316726576 -19.707409986285999 4.0529829739378123 #
straight-curve $-1 -42.818689535203099 24.225940837555367 0 0 0 -1 I I #
point $-1 -42.818689535203099 -24.225940837555367 -8.6269102471673023 #
straight-curve $-1 -42.818689535203099 0 -8.6269102471673023 0 1 0 I I #
point $-1 -42.818689535203099 24.225940837555367 -8.6269102471673023 #
straight-curve $-1 -32.720504990125391 -4.2360601716103812 -8.6269102471673023 0 -1 0 I I #
straight-curve $-1 -32.720504990125391 -4.2360601716103812 8.6269102471673023 0 1 0 I I #
straight-curve $-1 -42.818689535203099 -6.9721203432207624 0 0 0 -1 I I #
point $-1 -42.818689535203106 -6.9721203432207624 -8.6269102471673023 #
point $-1 -42.818689535203106 -6.9721203432207624 8.6269102471673023 #
straight-curve $-1 18.884798631332121 -6.9721203432207624 -8.6269102471673023 1 0 0 I I #
straight-curve $-1 18.884798631332121 -6.9721203432207624 8.6269102471673023 -1 0 0 I I #
point $-1 42.818689535203092 -6.9721203432207624 -8.6269102471673023 #
point $-1 42.818689535203092 -6.9721203432207624 8.6269102471673023 #
straight-curve $-1 42.818689535203099 0 -8.6269102471673023 0 -1 0 I I #
straight-curve $-1 42.818689535203099 0 8.6269102471673023 0 1 0 I I #
straight-curve $-1 26.934144448762176 24.225940837555367 48.926018450651242 0 0 -1 I I #
point $-1 26.934144448762176 24.225940837555367 8.6269102471673023 #
straight-curve $-1 10.982253089514348 24.225940837555367 3.0366116489351711 -1 0 0 I I #
point $-1 26.934144448762176 24.225940837555363 3.0366116489351711 #
point $-1 18.982723217188607 20.370131419214861 4.7711007885777859 #
point $-1 21.964506179028696 20.370131419214861 4.7711007885777859 #
point $-1 24.946289140868792 20.370131419214861 4.7711007885777859 #
straight-curve $-1 -25.229163592471373 -24.225940837555363 23.45744948936575 0 0 -1 I I #
point $-1 -25.229163592471373 -24.225940837555367 8.6269102471673023 #
straight-curve $-1 -9.3696927015546834 -24.225940837555367 2.8083892386295464 1 0 0 I I #
point $-1 -25.229163592471373 -24.225940837555367 2.8083892386295433 #
point $-1 -22.633252316726573 -18.850242677749005 3.5379449120671889 #
point $-1 -18.739385403109367 -18.850242677749005 3.5379449120671889 #
point $-1 -14.845518489492161 -18.850242677749005 3.5379449120671889 #
straight-curve $-1 12.249607213747359 -24.225940837555363 23.45744948936575 0 0 -1 I I #
point $-1 12.249607213747359 -24.225940837555367 8.6269102471673023 #
straight-curve $-1 9.3696927015546834 -24.225940837555367 2.8083892386295464 1 0 0 I I #
point $-1 12.249607213747359 -24.225940837555367 2.8083892386295433 #
point $-1 14.845518489492157 -18.850242677749005 3.5379449120671889 #
point $-1 18.739385403109367 -18.850242677749005 3.5379449120671889 #
point $-1 22.633252316726576 -18.850242677749005 3.5379449120671889 #
End-of-ACIS-data 