500 0 14 0           
7 Unknown 11 ACIS 5.0 NT 24 Thu Mar 25 16:00:17 1999 
-1 9.9999999999999995e-007 1e-010 
body $-1 $14 $-1 $15 #
body $-1 $16 $-1 $17 #
body $-1 $18 $-1 $19 #
body $-1 $20 $-1 $21 #
body $-1 $22 $-1 $23 #
body $-1 $24 $-1 $25 #
body $-1 $26 $-1 $27 #
body $-1 $28 $-1 $29 #
body $-1 $30 $-1 $31 #
body $-1 $32 $-1 $33 #
body $-1 $34 $-1 $35 #
body $-1 $36 $-1 $37 #
body $-1 $38 $-1 $39 #
body $-1 $40 $-1 $41 #
lump $-1 $-1 $42 $0 #
transform $-1 1 0 0 0 1 0 0 0 1 58.965422528763696 31.803393929657695 7.383585883391369 1 rotate no_reflect no_shear #
lump $-1 $-1 $43 $1 #
transform $-1 1 0 0 0 1 0 0 0 1 58.965422528763696 31.803393929657695 7.383585883391369 1 rotate no_reflect no_shear #
lump $-1 $-1 $44 $2 #
transform $-1 1 0 0 0 1 0 0 0 1 58.965422528763696 31.803393929657695 7.383585883391369 1 rotate no_reflect no_shear #
lump $-1 $-1 $45 $3 #
transform $-1 1 0 0 0 1 0 0 0 1 58.965422528763696 31.803393929657695 7.383585883391369 1 rotate no_reflect no_shear #
lump $-1 $-1 $46 $4 #
transform $-1 1 0 0 0 1 0 0 0 1 58.965422528763696 31.803393929657695 7.383585883391369 1 rotate no_reflect no_shear #
lump $-1 $-1 $47 $5 #
transform $-1 1 0 0 0 1 0 0 0 1 58.965422528763696 31.803393929657695 7.383585883391369 1 rotate no_reflect no_shear #
lump $-1 $-1 $48 $6 #
transform $-1 1 0 0 0 1 0 0 0 1 58.965422528763696 31.803393929657695 7.383585883391369 1 rotate no_reflect no_shear #
lump $-1 $-1 $49 $7 #
transform $-1 1 0 0 0 1 0 0 0 1 58.965422528763696 31.803393929657695 7.383585883391369 1 rotate no_reflect no_shear #
lump $-1 $-1 $50 $8 #
transform $-1 1 0 0 0 1 0 0 0 1 58.965422528763696 31.803393929657695 7.383585883391369 1 rotate no_reflect no_shear #
lump $-1 $-1 $51 $9 #
transform $-1 1 0 0 0 1 0 0 0 1 58.965422528763696 31.803393929657695 7.383585883391369 1 rotate no_reflect no_shear #
lump $-1 $-1 $52 $10 #
transform $-1 1 0 0 0 1 0 0 0 1 58.965422528763696 31.803393929657695 7.383585883391369 1 rotate no_reflect no_shear #
lump $-1 $-1 $53 $11 #
transform $-1 1 0 0 0 1 0 0 0 1 58.965422528763696 31.803393929657695 7.383585883391369 1 rotate no_reflect no_shear #
lump $-1 $-1 $54 $12 #
transform $-1 1 0 0 0 1 0 0 0 1 58.965422528763696 31.803393929657695 7.383585883391369 1 rotate no_reflect no_shear #
lump $-1 $-1 $55 $13 #
transform $-1 1 0 0 0 1 0 0 0 1 58.965422528763696 31.803393929657695 7.383585883391369 1 rotate no_reflect no_shear #
shell $-1 $-1 $-1 $56 $-1 $14 #
shell $-1 $-1 $-1 $57 $-1 $16 #
shell $-1 $-1 $-1 $58 $-1 $18 #
shell $-1 $-1 $-1 $59 $-1 $20 #
shell $-1 $-1 $-1 $60 $-1 $22 #
shell $-1 $-1 $-1 $61 $-1 $24 #
shell $-1 $-1 $-1 $62 $-1 $26 #
shell $-1 $-1 $-1 $63 $-1 $28 #
shell $-1 $-1 $-1 $64 $-1 $30 #
shell $-1 $-1 $-1 $65 $-1 $32 #
shell $-1 $-1 $-1 $66 $-1 $34 #
shell $-1 $-1 $-1 $67 $-1 $36 #
shell $-1 $-1 $-1 $68 $-1 $38 #
shell $-1 $-1 $-1 $69 $-1 $40 #
face $-1 $70 $71 $42 $-1 $72 forward single #
face $-1 $73 $74 $43 $-1 $75 forward single #
face $-1 $76 $77 $44 $-1 $78 reversed single #
face $-1 $79 $80 $45 $-1 $81 forward single #
face $-1 $82 $83 $46 $-1 $84 forward single #
face $-1 $85 $86 $47 $-1 $87 forward single #
face $-1 $88 $89 $48 $-1 $90 reversed single #
face $-1 $91 $92 $49 $-1 $93 forward single #
face $-1 $94 $95 $50 $-1 $96 forward single #
face $-1 $97 $98 $51 $-1 $99 forward single #
face $-1 $100 $101 $52 $-1 $102 reversed single #
face $-1 $103 $104 $53 $-1 $105 forward single #
face $-1 $106 $107 $54 $-1 $108 forward single #
face $-1 $109 $110 $55 $-1 $111 forward single #
face $-1 $112 $113 $42 $-1 $114 reversed single #
loop $-1 $-1 $115 $56 #
plane-surface $-1 0 0 7.383585883391369 0 0 1 1 0 0 forward_v I I I I #
face $-1 $116 $117 $43 $-1 $118 reversed single #
loop $-1 $-1 $119 $57 #
plane-surface $-1 0 -29.359523220742417 -3.1264022943975718 0 0 1 1 0 0 forward_v I I I I #
face $-1 $120 $121 $44 $-1 $122 reversed single #
loop $-1 $-1 $123 $58 #
plane-surface $-1 35.754217760144257 -10.951119252805031 166.70335284955667 0 -1 0 -0.6018150307709319 0 -0.79863550430605224 forward_v I I I I #
face $-1 $124 $125 $45 $-1 $126 forward single #
loop $-1 $127 $128 $59 #
cone-surface $-1 54.730926728231935 -19.284373205372411 3.9851665737589168 -0.6018150307709319 0 -0.79863550430605224 0.39931775215302612 0 -0.30090751538546595 1 I I 0 1 0.5 forward I I I I #
face $-1 $129 $130 $46 $-1 $131 forward single #
loop $-1 $132 $133 $60 #
cone-surface $-1 54.730926728231935 -16.159402973159644 3.9851665737589168 -0.6018150307709319 0 -0.79863550430605224 0.39931775215302612 0 -0.30090751538546595 1 I I 0 1 0.5 forward I I I I #
face $-1 $134 $135 $47 $-1 $136 forward single #
loop $-1 $137 $138 $61 #
cone-surface $-1 54.730926728231935 -13.034432740946876 3.9851665737589168 -0.6018150307709319 0 -0.79863550430605224 0.39931775215302612 0 -0.30090751538546595 1 I I 0 1 0.5 forward I I I I #
face $-1 $139 $140 $48 $-1 $141 reversed single #
loop $-1 $-1 $142 $62 #
plane-surface $-1 35.754217760144257 18.408403967937389 166.70335284955667 0 -1 0 -0.6018150307709319 0 -0.79863550430605224 forward_v I I I I #
face $-1 $143 $144 $49 $-1 $145 forward single #
loop $-1 $146 $147 $63 #
cone-surface $-1 54.730926728231935 10.075150015370006 3.9851665737589168 -0.6018150307709319 0 -0.79863550430605224 0.39931775215302612 0 -0.30090751538546595 1 I I 0 1 0.5 forward I I I I #
face $-1 $148 $149 $50 $-1 $150 forward single #
loop $-1 $151 $152 $64 #
cone-surface $-1 54.730926728231935 13.200120247582774 3.9851665737589168 -0.6018150307709319 0 -0.79863550430605224 0.39931775215302612 0 -0.30090751538546595 1 I I 0 1 0.5 forward I I I I #
face $-1 $153 $154 $51 $-1 $155 forward single #
loop $-1 $156 $157 $65 #
cone-surface $-1 54.730926728231935 16.325090479795541 3.9851665737589168 -0.6018150307709319 0 -0.79863550430605224 0.39931775215302612 0 -0.30090751538546595 1 I I 0 1 0.5 forward I I I I #
face $-1 $158 $159 $52 $-1 $160 reversed single #
loop $-1 $-1 $161 $66 #
plane-surface $-1 -155.5687163015948 5.5928391806664806 71.438641930294267 0 1 0 -0.81915205242281985 0 0.57357642473473569 forward_v I I I I #
face $-1 $162 $163 $53 $-1 $164 forward single #
loop $-1 $165 $166 $67 #
cone-surface $-1 -57.28300851419106 7.6715595913157841 5.2913075295591998 0.81915205242281985 0 -0.57357642473473569 0.57357642473473569 0 0.81915205242281985 1 I I 0 1 1 forward I I I I #
face $-1 $167 $168 $54 $-1 $169 forward single #
loop $-1 $170 $171 $68 #
cone-surface $-1 -57.28300851419106 10.789640207289743 5.2913075295591998 0.81915205242281985 0 -0.57357642473473569 0.57357642473473569 0 0.81915205242281985 1 I I 0 1 1 forward I I I I #
face $-1 $172 $173 $55 $-1 $174 forward single #
loop $-1 $175 $176 $69 #
cone-surface $-1 -57.28300851419106 13.907720823263702 5.2913075295591998 0.81915205242281985 0 -0.57357642473473569 0.57357642473473569 0 0.81915205242281985 1 I I 0 1 1 forward I I I I #
face $-1 $177 $178 $42 $-1 $179 reversed single #
loop $-1 $-1 $180 $70 #
plane-surface $-1 0 0 -7.383585883391369 0 0 1 1 0 0 forward_v I I I I #
coedge $-1 $181 $182 $183 $184 forward $71 $-1 #
face $-1 $185 $186 $43 $-1 $187 reversed single #
loop $-1 $-1 $188 $73 #
plane-surface $-1 0 -26.91565251182714 -5.2549940888944704 0 -1 0 0 0 -1 forward_v I I I I #
coedge $-1 $189 $190 $191 $192 reversed $74 $-1 #
face $-1 $193 $194 $44 $-1 $195 reversed single #
loop $-1 $-1 $196 $76 #
plane-surface $-1 -35.218337386993596 -16.159402973159644 72.519592933799373 0.6018150307709319 0 0.79863550430605224 0.79863550430605224 0 -0.6018150307709319 forward_v I I I I #
coedge $-1 $197 $198 $199 $200 reversed $77 $-1 #
face $-1 $-1 $201 $45 $-1 $202 forward single #
loop $-1 $203 $204 $79 #
cone-surface $-1 54.218657557091845 -19.284373205372411 3.3053624364148746 -0.6018150307709319 0 -0.79863550430605224 0.19965887607651306 0 -0.15045375769273298 1 I I -0.70710678118654746 0.70710678118654746 0.25 forward I I I I #
loop $-1 $-1 $205 $59 #
coedge $-1 $128 $128 $206 $207 reversed $80 $-1 #
face $-1 $-1 $208 $46 $-1 $209 forward single #
loop $-1 $210 $211 $82 #
cone-surface $-1 54.218657557091845 -16.159402973159644 3.3053624364148746 -0.6018150307709319 0 -0.79863550430605224 0.19965887607651306 0 -0.15045375769273298 1 I I -0.70710678118654746 0.70710678118654746 0.25 forward I I I I #
loop $-1 $-1 $212 $60 #
coedge $-1 $133 $133 $213 $214 reversed $83 $-1 #
face $-1 $-1 $215 $47 $-1 $216 forward single #
loop $-1 $217 $218 $85 #
cone-surface $-1 54.218657557091845 -13.034432740946876 3.3053624364148746 -0.6018150307709319 0 -0.79863550430605224 0.19965887607651306 0 -0.15045375769273298 1 I I -0.70710678118654746 0.70710678118654746 0.25 forward I I I I #
loop $-1 $-1 $219 $61 #
coedge $-1 $138 $138 $220 $221 reversed $86 $-1 #
face $-1 $222 $223 $48 $-1 $224 reversed single #
loop $-1 $-1 $225 $88 #
plane-surface $-1 -35.218337386993596 13.200120247582774 72.519592933799373 0.6018150307709319 0 0.79863550430605224 0.79863550430605224 0 -0.6018150307709319 forward_v I I I I #
coedge $-1 $226 $227 $228 $229 reversed $89 $-1 #
face $-1 $-1 $230 $49 $-1 $231 forward single #
loop $-1 $232 $233 $91 #
cone-surface $-1 54.218657557091845 10.075150015370006 3.3053624364148746 -0.6018150307709319 0 -0.79863550430605224 0.19965887607651306 0 -0.15045375769273298 1 I I -0.70710678118654746 0.70710678118654746 0.25 forward I I I I #
loop $-1 $-1 $234 $63 #
coedge $-1 $147 $147 $235 $236 reversed $92 $-1 #
face $-1 $-1 $237 $50 $-1 $238 forward single #
loop $-1 $239 $240 $94 #
cone-surface $-1 54.218657557091845 13.200120247582774 3.3053624364148746 -0.6018150307709319 0 -0.79863550430605224 0.19965887607651306 0 -0.15045375769273298 1 I I -0.70710678118654746 0.70710678118654746 0.25 forward I I I I #
loop $-1 $-1 $241 $64 #
coedge $-1 $152 $152 $242 $243 reversed $95 $-1 #
face $-1 $-1 $244 $51 $-1 $245 forward single #
loop $-1 $246 $247 $97 #
cone-surface $-1 54.218657557091845 16.325090479795541 3.3053624364148746 -0.6018150307709319 0 -0.79863550430605224 0.19965887607651306 0 -0.15045375769273298 1 I I -0.70710678118654746 0.70710678118654746 0.25 forward I I I I #
loop $-1 $-1 $248 $65 #
coedge $-1 $157 $157 $249 $250 reversed $98 $-1 #
face $-1 $251 $252 $52 $-1 $253 reversed single #
loop $-1 $-1 $254 $100 #
plane-surface $-1 -58.965422528763682 10.789640207289743 3.7962894562516283 -0.81915205242281985 0 0.57357642473473569 0.57357642473473569 0 0.81915205242281985 forward_v I I I I #
coedge $-1 $255 $256 $257 $258 reversed $101 $-1 #
face $-1 $-1 $259 $53 $-1 $260 forward single #
loop $-1 $261 $262 $103 #
cone-surface $-1 -56.446944435538683 7.6715595913157841 4.7058891769295386 0.81915205242281985 0 -0.57357642473473569 0.28678821236736785 0 0.40957602621140993 1 I I -0.70710678118654813 0.70710678118654691 0.5 forward I I I I #
loop $-1 $-1 $263 $67 #
coedge $-1 $166 $166 $264 $265 reversed $104 $-1 #
face $-1 $-1 $266 $54 $-1 $267 forward single #
loop $-1 $268 $269 $106 #
cone-surface $-1 -56.446944435538683 10.789640207289743 4.7058891769295386 0.81915205242281985 0 -0.57357642473473569 0.28678821236736785 0 0.40957602621140993 1 I I -0.70710678118654813 0.70710678118654691 0.5 forward I I I I #
loop $-1 $-1 $270 $68 #
coedge $-1 $171 $171 $271 $272 reversed $107 $-1 #
face $-1 $-1 $273 $55 $-1 $274 forward single #
loop $-1 $275 $276 $109 #
cone-surface $-1 -56.446944435538683 13.907720823263702 4.7058891769295386 0.81915205242281985 0 -0.57357642473473569 0.28678821236736785 0 0.40957602621140993 1 I I -0.70710678118654813 0.70710678118654691 0.5 forward I I I I #
loop $-1 $-1 $277 $69 #
coedge $-1 $176 $176 $278 $279 reversed $110 $-1 #
face $-1 $280 $281 $42 $-1 $282 reversed single #
loop $-1 $-1 $283 $112 #
plane-surface $-1 0 -31.803393929657695 0 0 1 0 0 0 1 forward_v I I I I #
coedge $-1 $284 $285 $286 $287 forward $113 $-1 #
coedge $-1 $288 $115 $289 $290 forward $71 $-1 #
coedge $-1 $115 $288 $291 $292 forward $71 $-1 #
coedge $-1 $293 $294 $115 $184 reversed $295 $-1 #
edge $-1 $296 -31.803393929657695 $297 31.803393929657695 $183 $298 forward 7 unknown #
face $-1 $299 $300 $43 $-1 $301 reversed single #
loop $-1 $-1 $302 $116 #
plane-surface $-1 0 0 -7.383585883391369 0 0 1 1 0 0 forward_v I I I I #
coedge $-1 $303 $304 $305 $306 reversed $117 $-1 #
coedge $-1 $307 $119 $304 $308 forward $74 $-1 #
coedge $-1 $119 $307 $309 $310 reversed $74 $-1 #
coedge $-1 $311 $305 $119 $192 forward $300 $-1 #
edge $-1 $312 12.235890901455932 $313 17.123632319286486 $191 $314 forward 7 unknown #
face $-1 $315 $316 $44 $-1 $317 reversed single #
loop $-1 $-1 $318 $120 #
plane-surface $-1 35.754217760144257 -21.367686693514258 166.70335284955667 0 1 0 0.6018150307709319 0 0.79863550430605224 forward_v I I I I #
coedge $-1 $319 $320 $321 $322 reversed $121 $-1 #
coedge $-1 $198 $123 $323 $324 reversed $77 $-1 #
coedge $-1 $123 $197 $319 $325 reversed $77 $-1 #
coedge $-1 $321 $326 $123 $200 forward $327 $-1 #
edge $-1 $328 -41.088313648691567 $329 -33.34295287452278 $199 $330 forward 7 unknown #
loop $-1 $-1 $206 $124 #
plane-surface $-1 -35.218337386993596 -16.159402973159644 72.519592933799373 0.6018150307709319 0 0.79863550430605224 0.79863550430605224 0 -0.6018150307709319 forward_v I I I I #
loop $-1 $-1 $331 $79 #
coedge $-1 $204 $204 $205 $332 reversed $125 $-1 #
coedge $-1 $205 $205 $204 $332 forward $127 $-1 #
coedge $-1 $206 $206 $128 $207 forward $201 $-1 #
edge $-1 $333 0 $333 6.2831853071796004 $206 $334 forward 7 unknown #
loop $-1 $-1 $213 $129 #
plane-surface $-1 -35.218337386993596 -16.159402973159644 72.519592933799373 0.6018150307709319 0 0.79863550430605224 0.79863550430605224 0 -0.6018150307709319 forward_v I I I I #
loop $-1 $-1 $335 $82 #
coedge $-1 $211 $211 $212 $336 reversed $130 $-1 #
coedge $-1 $212 $212 $211 $336 forward $132 $-1 #
coedge $-1 $213 $213 $133 $214 forward $208 $-1 #
edge $-1 $337 0 $337 6.2831853071796004 $213 $338 forward 7 unknown #
loop $-1 $-1 $220 $134 #
plane-surface $-1 -35.218337386993596 -16.159402973159644 72.519592933799373 0.6018150307709319 0 0.79863550430605224 0.79863550430605224 0 -0.6018150307709319 forward_v I I I I #
loop $-1 $-1 $339 $85 #
coedge $-1 $218 $218 $219 $340 reversed $135 $-1 #
coedge $-1 $219 $219 $218 $340 forward $137 $-1 #
coedge $-1 $220 $220 $138 $221 forward $215 $-1 #
edge $-1 $341 0 $341 6.2831853071796004 $220 $342 forward 7 unknown #
face $-1 $343 $344 $48 $-1 $345 reversed single #
loop $-1 $-1 $346 $139 #
plane-surface $-1 35.754217760144257 7.9918365272281608 166.70335284955667 0 1 0 0.6018150307709319 0 0.79863550430605224 forward_v I I I I #
coedge $-1 $347 $348 $349 $350 reversed $140 $-1 #
coedge $-1 $227 $142 $351 $352 reversed $89 $-1 #
coedge $-1 $142 $226 $347 $353 reversed $89 $-1 #
coedge $-1 $349 $354 $142 $229 forward $355 $-1 #
edge $-1 $356 -41.088313648691567 $357 -33.34295287452278 $228 $358 forward 7 unknown #
loop $-1 $-1 $235 $143 #
plane-surface $-1 -35.218337386993596 13.200120247582774 72.519592933799373 0.6018150307709319 0 0.79863550430605224 0.79863550430605224 0 -0.6018150307709319 forward_v I I I I #
loop $-1 $-1 $359 $91 #
coedge $-1 $233 $233 $234 $360 reversed $144 $-1 #
coedge $-1 $234 $234 $233 $360 forward $146 $-1 #
coedge $-1 $235 $235 $147 $236 forward $230 $-1 #
edge $-1 $361 0 $361 6.2831853071796004 $235 $362 forward 7 unknown #
loop $-1 $-1 $242 $148 #
plane-surface $-1 -35.218337386993596 13.200120247582774 72.519592933799373 0.6018150307709319 0 0.79863550430605224 0.79863550430605224 0 -0.6018150307709319 forward_v I I I I #
loop $-1 $-1 $363 $94 #
coedge $-1 $240 $240 $241 $364 reversed $149 $-1 #
coedge $-1 $241 $241 $240 $364 forward $151 $-1 #
coedge $-1 $242 $242 $152 $243 forward $237 $-1 #
edge $-1 $365 0 $365 6.2831853071796004 $242 $366 forward 7 unknown #
loop $-1 $-1 $249 $153 #
plane-surface $-1 -35.218337386993596 13.200120247582774 72.519592933799373 0.6018150307709319 0 0.79863550430605224 0.79863550430605224 0 -0.6018150307709319 forward_v I I I I #
loop $-1 $-1 $367 $97 #
coedge $-1 $247 $247 $248 $368 reversed $154 $-1 #
coedge $-1 $248 $248 $247 $368 forward $156 $-1 #
coedge $-1 $249 $249 $157 $250 forward $244 $-1 #
edge $-1 $369 0 $369 6.2831853071796004 $249 $370 forward 7 unknown #
face $-1 $371 $372 $52 $-1 $373 forward single #
loop $-1 $-1 $374 $158 #
plane-surface $-1 -155.5687163015948 15.986441233913006 71.438641930294267 0 -1 0 0.81915205242281985 0 -0.57357642473473569 forward_v I I I I #
coedge $-1 $375 $376 $377 $378 reversed $159 $-1 #
coedge $-1 $256 $161 $379 $380 reversed $101 $-1 #
coedge $-1 $161 $255 $375 $381 reversed $101 $-1 #
coedge $-1 $377 $382 $161 $258 forward $372 $-1 #
edge $-1 $383 18.818935622033706 $384 21.330787546297032 $257 $385 forward 7 unknown #
loop $-1 $-1 $264 $162 #
plane-surface $-1 -58.965422528763682 10.789640207289743 3.7962894562516283 -0.81915205242281985 0 0.57357642473473569 0.57357642473473569 0 0.81915205242281985 forward_v I I I I #
loop $-1 $-1 $386 $103 #
coedge $-1 $262 $262 $263 $387 reversed $163 $-1 #
coedge $-1 $263 $263 $262 $387 forward $165 $-1 #
coedge $-1 $264 $264 $166 $265 forward $259 $-1 #
edge $-1 $388 0 $388 6.2831853071796004 $264 $389 forward 7 unknown #
loop $-1 $-1 $271 $167 #
plane-surface $-1 -58.965422528763682 10.789640207289743 3.7962894562516283 -0.81915205242281985 0 0.57357642473473569 0.57357642473473569 0 0.81915205242281985 forward_v I I I I #
loop $-1 $-1 $390 $106 #
coedge $-1 $269 $269 $270 $391 reversed $168 $-1 #
coedge $-1 $270 $270 $269 $391 forward $170 $-1 #
coedge $-1 $271 $271 $171 $272 forward $266 $-1 #
edge $-1 $392 0 $392 6.2831853071796004 $271 $393 forward 7 unknown #
loop $-1 $-1 $278 $172 #
plane-surface $-1 -58.965422528763682 10.789640207289743 3.7962894562516283 -0.81915205242281985 0 0.57357642473473569 0.57357642473473569 0 0.81915205242281985 forward_v I I I I #
loop $-1 $-1 $394 $109 #
coedge $-1 $276 $276 $277 $395 reversed $173 $-1 #
coedge $-1 $277 $277 $276 $395 forward $175 $-1 #
coedge $-1 $278 $278 $176 $279 forward $273 $-1 #
edge $-1 $396 0 $396 6.2831853071796004 $278 $397 forward 7 unknown #
face $-1 $398 $399 $42 $-1 $400 reversed single #
loop $-1 $-1 $401 $177 #
plane-surface $-1 -58.965422528763696 0 0 1 0 0 0 0 -1 forward_v I I I I #
coedge $-1 $402 $291 $403 $404 forward $178 $-1 #
coedge $-1 $405 $180 $402 $406 forward $113 $-1 #
coedge $-1 $180 $405 $407 $408 forward $113 $-1 #
coedge $-1 $294 $293 $180 $287 reversed $295 $-1 #
edge $-1 $409 -31.803393929657695 $410 31.803393929657695 $286 $411 forward 7 unknown #
coedge $-1 $182 $181 $412 $413 forward $71 $-1 #
coedge $-1 $414 $415 $181 $290 reversed $399 $-1 #
edge $-1 $297 -58.965422528763696 $416 58.965422528763696 $289 $417 forward 7 unknown #
coedge $-1 $283 $418 $182 $292 reversed $178 $-1 #
edge $-1 $419 -58.965422528763696 $296 58.965422528763696 $291 $420 forward 7 unknown #
coedge $-1 $286 $183 $418 $421 forward $295 $-1 #
coedge $-1 $183 $286 $414 $422 reversed $295 $-1 #
loop $-1 $-1 $293 $398 #
vertex $-1 $184 $423 #
vertex $-1 $184 $424 #
straight-curve $-1 58.965422528763696 0 7.383585883391369 0 1 0 I I #
face $-1 $425 $426 $43 $-1 $427 reversed single #
loop $-1 $-1 $305 $185 #
plane-surface $-1 58.965422528763696 0 0 -1 0 0 0 0 1 forward_v I I I I #
coedge $-1 $428 $429 $303 $430 forward $186 $-1 #
coedge $-1 $431 $188 $302 $430 reversed $117 $-1 #
coedge $-1 $188 $431 $189 $308 reversed $117 $-1 #
coedge $-1 $191 $432 $188 $306 forward $300 $-1 #
edge $-1 $433 -4.7560888389441338 $312 -0.49890524995033658 $305 $434 forward 7 unknown #
coedge $-1 $190 $189 $435 $436 reversed $74 $-1 #
edge $-1 $312 -58.965422528763696 $437 58.965422528763696 $304 $438 forward 7 unknown #
coedge $-1 $439 $440 $190 $310 forward $426 $-1 #
edge $-1 $313 -58.965422528763696 $441 58.965422528763696 $309 $442 forward 7 unknown #
coedge $-1 $432 $191 $440 $443 forward $300 $-1 #
vertex $-1 $192 $444 #
vertex $-1 $443 $445 #
straight-curve $-1 58.965422528763696 -14.679761610371209 -3.1264022943975718 0 -1 0 I I #
face $-1 $-1 $327 $44 $-1 $446 forward single #
loop $-1 $-1 $447 $193 #
plane-surface $-1 58.965422528763696 0 0 -1 0 0 0 0 1 forward_v I I I I #
coedge $-1 $448 $449 $450 $451 reversed $194 $-1 #
coedge $-1 $452 $196 $198 $325 forward $121 $-1 #
coedge $-1 $196 $452 $448 $453 forward $121 $-1 #
coedge $-1 $450 $199 $196 $322 forward $327 $-1 #
edge $-1 $329 2.8714177662252087 $454 13.287985206934437 $321 $455 forward 7 unknown #
coedge $-1 $456 $457 $197 $324 forward $316 $-1 #
edge $-1 $458 -81.804638638116813 $328 -75.968090541386971 $323 $459 forward 7 unknown #
edge $-1 $329 108.23260257718729 $458 117.93084505752741 $198 $460 forward 7 unknown #
coedge $-1 $199 $450 $456 $461 forward $327 $-1 #
loop $-1 $-1 $450 $315 #
vertex $-1 $324 $462 #
vertex $-1 $200 $463 #
straight-curve $-1 17.877108880072129 -10.951119252805031 7.3835858833913761 -1 0 0 I I #
coedge $-1 $331 $331 $-1 $464 reversed $203 $-1 #
edge $-1 $465 0 $465 6.2831853071796004 $204 $466 forward 7 unknown #
vertex $-1 $207 $467 #
ellipse-curve $-1 55.092742141679295 -19.284373205372411 4.4653118350264442 0.6018150307709319 0 0.79863550430605224 0.39931775215302612 0 -0.30090751538546595 1 I I #
coedge $-1 $335 $335 $-1 $468 reversed $210 $-1 #
edge $-1 $469 0 $469 6.2831853071796004 $211 $470 forward 7 unknown #
vertex $-1 $214 $471 #
ellipse-curve $-1 55.092742141679295 -16.159402973159644 4.4653118350264442 0.6018150307709319 0 0.79863550430605224 0.39931775215302612 0 -0.30090751538546595 1 I I #
coedge $-1 $339 $339 $-1 $472 reversed $217 $-1 #
edge $-1 $473 0 $473 6.2831853071796004 $218 $474 forward 7 unknown #
vertex $-1 $221 $475 #
ellipse-curve $-1 55.092742141679295 -13.034432740946876 4.4653118350264442 0.6018150307709319 0 0.79863550430605224 0.39931775215302612 0 -0.30090751538546595 1 I I #
face $-1 $-1 $355 $48 $-1 $476 forward single #
loop $-1 $-1 $477 $222 #
plane-surface $-1 58.965422528763696 0 0 -1 0 0 0 0 1 forward_v I I I I #
coedge $-1 $478 $479 $480 $481 reversed $223 $-1 #
coedge $-1 $482 $225 $227 $353 forward $140 $-1 #
coedge $-1 $225 $482 $478 $483 forward $140 $-1 #
coedge $-1 $480 $228 $225 $350 forward $355 $-1 #
edge $-1 $357 -11.808343844146002 $484 -1.3917764034367739 $349 $485 forward 7 unknown #
coedge $-1 $486 $487 $226 $352 forward $344 $-1 #
edge $-1 $488 -81.804638638116813 $356 -75.968090541386971 $351 $489 forward 7 unknown #
edge $-1 $357 108.23260257718729 $488 117.93084505752741 $227 $490 forward 7 unknown #
coedge $-1 $228 $480 $486 $491 forward $355 $-1 #
loop $-1 $-1 $480 $343 #
vertex $-1 $352 $492 #
vertex $-1 $229 $493 #
straight-curve $-1 17.877108880072129 18.408403967937389 7.3835858833913761 -1 0 0 I I #
coedge $-1 $359 $359 $-1 $494 reversed $232 $-1 #
edge $-1 $495 0 $495 6.2831853071796004 $233 $496 forward 7 unknown #
vertex $-1 $236 $497 #
ellipse-curve $-1 55.092742141679295 10.075150015370006 4.4653118350264442 0.6018150307709319 0 0.79863550430605224 0.39931775215302612 0 -0.30090751538546595 1 I I #
coedge $-1 $363 $363 $-1 $498 reversed $239 $-1 #
edge $-1 $499 0 $499 6.2831853071796004 $240 $500 forward 7 unknown #
vertex $-1 $243 $501 #
ellipse-curve $-1 55.092742141679295 13.200120247582774 4.4653118350264442 0.6018150307709319 0 0.79863550430605224 0.39931775215302612 0 -0.30090751538546595 1 I I #
coedge $-1 $367 $367 $-1 $502 reversed $246 $-1 #
edge $-1 $503 0 $503 6.2831853071796004 $247 $504 forward 7 unknown #
vertex $-1 $250 $505 #
ellipse-curve $-1 55.092742141679295 16.325090479795541 4.4653118350264442 0.6018150307709319 0 0.79863550430605224 0.39931775215302612 0 -0.30090751538546595 1 I I #
face $-1 $-1 $506 $52 $-1 $507 reversed single #
loop $-1 $-1 $257 $251 #
plane-surface $-1 0 0 7.383585883391369 0 0 1 1 0 0 forward_v I I I I #
coedge $-1 $508 $509 $510 $511 reversed $252 $-1 #
coedge $-1 $512 $254 $256 $381 forward $159 $-1 #
coedge $-1 $254 $512 $508 $513 forward $159 $-1 #
coedge $-1 $510 $257 $254 $378 forward $372 $-1 #
edge $-1 $384 0.19801907702160904 $514 10.591621130268134 $377 $515 forward 7 unknown #
coedge $-1 $516 $517 $255 $380 forward $506 $-1 #
edge $-1 $518 -31.923031508895527 $383 -28.335735081755764 $379 $519 forward 7 unknown #
edge $-1 $384 -4.3792802771225841 $518 2.4884734274515653e-014 $256 $520 forward 7 unknown #
coedge $-1 $257 $510 $516 $521 forward $372 $-1 #
vertex $-1 $380 $522 #
vertex $-1 $258 $523 #
straight-curve $-1 -77.784358150797402 5.5928391806664806 7.383585883391369 1 0 0 I I #
coedge $-1 $386 $386 $-1 $524 reversed $261 $-1 #
edge $-1 $525 0 $525 6.2831853071796004 $262 $526 forward 7 unknown #
vertex $-1 $265 $527 #
ellipse-curve $-1 -57.709496566632026 7.6715595913157841 5.5899376698214924 -0.81915205242281985 0 0.57357642473473569 0.57357642473473569 0 0.81915205242281985 1 I I #
coedge $-1 $390 $390 $-1 $528 reversed $268 $-1 #
edge $-1 $529 0 $529 6.2831853071796004 $269 $530 forward 7 unknown #
vertex $-1 $272 $531 #
ellipse-curve $-1 -57.709496566632026 10.789640207289743 5.5899376698214924 -0.81915205242281985 0 0.57357642473473569 0.57357642473473569 0 0.81915205242281985 1 I I #
coedge $-1 $394 $394 $-1 $532 reversed $275 $-1 #
edge $-1 $533 0 $533 6.2831853071796004 $276 $534 forward 7 unknown #
vertex $-1 $279 $535 #
ellipse-curve $-1 -57.709496566632026 13.907720823263702 5.5899376698214924 -0.81915205242281985 0 0.57357642473473569 0.57357642473473569 0 0.81915205242281985 1 I I #
face $-1 $-1 $295 $42 $-1 $536 reversed single #
loop $-1 $-1 $414 $280 #
plane-surface $-1 0 31.803393929657695 0 0 -1 0 0 0 -1 forward_v I I I I #
coedge $-1 $537 $412 $415 $538 forward $281 $-1 #
coedge $-1 $418 $283 $284 $406 reversed $178 $-1 #
coedge $-1 $412 $537 $283 $404 reversed $281 $-1 #
edge $-1 $419 -7.383585883391369 $539 7.383585883391369 $403 $540 forward 7 unknown #
coedge $-1 $285 $284 $537 $541 forward $113 $-1 #
edge $-1 $410 -58.965422528763696 $539 58.965422528763696 $402 $542 forward 7 unknown #
coedge $-1 $415 $414 $285 $408 reversed $399 $-1 #
edge $-1 $543 -58.965422528763696 $409 58.965422528763696 $407 $544 forward 7 unknown #
vertex $-1 $287 $545 #
vertex $-1 $421 $546 #
straight-curve $-1 58.965422528763696 0 -7.383585883391369 0 -1 0 I I #
coedge $-1 $401 $403 $288 $413 reversed $281 $-1 #
edge $-1 $416 -31.803393929657695 $419 31.803393929657695 $412 $547 forward 7 unknown #
coedge $-1 $407 $289 $294 $422 forward $399 $-1 #
coedge $-1 $289 $407 $401 $538 reversed $399 $-1 #
vertex $-1 $290 $548 #
straight-curve $-1 0 31.803393929657695 7.383585883391369 -1 0 0 I I #
coedge $-1 $291 $402 $293 $421 reversed $178 $-1 #
vertex $-1 $413 $549 #
straight-curve $-1 0 -31.803393929657695 7.383585883391369 1 0 0 I I #
edge $-1 $296 -7.383585883391369 $410 7.383585883391369 $293 $550 forward 7 unknown #
edge $-1 $297 -7.383585883391369 $409 7.383585883391369 $294 $551 forward 7 unknown #
point $-1 58.965422528763696 -31.803393929657695 7.383585883391369 #
point $-1 58.965422528763696 31.803393929657695 7.383585883391369 #
face $-1 $-1 $552 $43 $-1 $553 reversed single #
loop $-1 $-1 $309 $299 #
plane-surface $-1 0 -31.803393929657695 0 0 1 0 0 0 1 forward_v I I I I #
coedge $-1 $554 $302 $432 $555 forward $186 $-1 #
coedge $-1 $302 $554 $556 $557 forward $186 $-1 #
edge $-1 $558 -58.965422528763696 $433 58.965422528763696 $302 $559 forward 7 unknown #
coedge $-1 $304 $303 $560 $561 reversed $117 $-1 #
coedge $-1 $305 $311 $428 $555 reversed $300 $-1 #
vertex $-1 $555 $562 #
straight-curve $-1 58.965422528763696 -26.91565251182714 -2.6274970444472352 0 0 1 I I #
coedge $-1 $560 $563 $307 $436 forward $552 $-1 #
edge $-1 $441 -17.123632319286486 $437 -12.235890901455932 $435 $564 forward 7 unknown #
vertex $-1 $436 $565 #
straight-curve $-1 0 -26.91565251182714 -3.1264022943975718 -1 0 0 I I #
coedge $-1 $566 $309 $563 $567 forward $426 $-1 #
coedge $-1 $309 $566 $311 $443 reversed $426 $-1 #
vertex $-1 $567 $568 #
straight-curve $-1 0 -31.803393929657695 -3.1264022943975718 -1 0 0 I I #
edge $-1 $313 3.1264022943975718 $569 7.383585883391369 $311 $570 forward 7 unknown #
point $-1 58.965422528763696 -26.91565251182714 -3.1264022943975718 #
point $-1 58.965422528763696 -31.803393929657695 -3.1264022943975718 #
plane-surface $-1 0 0 7.383585883391369 0 0 1 1 0 0 forward_v I I I I #
coedge $-1 $457 $456 $449 $571 forward $316 $-1 #
coedge $-1 $449 $318 $320 $453 reversed $194 $-1 #
coedge $-1 $318 $448 $447 $571 reversed $194 $-1 #
coedge $-1 $326 $321 $318 $451 forward $327 $-1 #
edge $-1 $454 33.34295287452278 $572 41.088313648691567 $450 $573 forward 7 unknown #
coedge $-1 $320 $319 $457 $574 reversed $121 $-1 #
edge $-1 $575 -117.93084505752741 $454 -108.23260257718729 $448 $576 forward 7 unknown #
vertex $-1 $322 $577 #
straight-curve $-1 51.220061754594902 -8.0797014865798218 7.3835858833913619 0 -1 0 I I #
coedge $-1 $447 $323 $326 $461 reversed $316 $-1 #
coedge $-1 $323 $447 $452 $574 forward $316 $-1 #
vertex $-1 $324 $578 #
straight-curve $-1 58.965422528763696 -10.951119252805031 83.351676424778333 0 0 1 I I #
straight-curve $-1 -35.218337386993596 -10.951119252805031 72.519592933799373 0.79863550430605224 0 -0.6018150307709319 I I #
edge $-1 $572 -21.367686693514258 $328 -10.951119252805031 $456 $579 forward 7 unknown #
point $-1 58.965422528763696 -10.951119252805031 7.383585883391369 #
point $-1 51.220061754594909 -10.951119252805031 7.3835858833913619 #
edge $-1 $580 1 $580 0 $331 $-1 forward 7 unknown #
vertex $-1 $332 $581 #
ellipse-curve $-1 54.369111314784575 -19.284373205372411 3.5050213124913876 0.6018150307709319 0 0.79863550430605224 0.39931775215302612 0 -0.30090751538546595 1 I I #
point $-1 55.492059893832327 -19.284373205372411 4.1644043196409806 #
edge $-1 $582 1 $582 0 $335 $-1 forward 7 unknown #
vertex $-1 $336 $583 #
ellipse-curve $-1 54.369111314784575 -16.159402973159644 3.5050213124913876 0.6018150307709319 0 0.79863550430605224 0.39931775215302612 0 -0.30090751538546595 1 I I #
point $-1 55.492059893832327 -16.159402973159644 4.1644043196409806 #
edge $-1 $584 1 $584 0 $339 $-1 forward 7 unknown #
vertex $-1 $340 $585 #
ellipse-curve $-1 54.369111314784575 -13.034432740946876 3.5050213124913876 0.6018150307709319 0 0.79863550430605224 0.39931775215302612 0 -0.30090751538546595 1 I I #
point $-1 55.492059893832327 -13.034432740946876 4.1644043196409806 #
plane-surface $-1 0 0 7.383585883391369 0 0 1 1 0 0 forward_v I I I I #
coedge $-1 $487 $486 $479 $586 forward $344 $-1 #
coedge $-1 $479 $346 $348 $483 reversed $223 $-1 #
coedge $-1 $346 $478 $477 $586 reversed $223 $-1 #
coedge $-1 $354 $349 $346 $481 forward $355 $-1 #
edge $-1 $484 33.34295287452278 $587 41.088313648691567 $480 $588 forward 7 unknown #
coedge $-1 $348 $347 $487 $589 reversed $140 $-1 #
edge $-1 $590 -117.93084505752741 $484 -108.23260257718729 $478 $591 forward 7 unknown #
vertex $-1 $350 $592 #
straight-curve $-1 51.220061754594902 6.600060123791387 7.3835858833913619 0 -1 0 I I #
coedge $-1 $477 $351 $354 $491 reversed $344 $-1 #
coedge $-1 $351 $477 $482 $589 forward $344 $-1 #
vertex $-1 $352 $593 #
straight-curve $-1 58.965422528763696 18.408403967937389 83.351676424778333 0 0 1 I I #
straight-curve $-1 -35.218337386993596 18.408403967937389 72.519592933799373 0.79863550430605224 0 -0.6018150307709319 I I #
edge $-1 $587 7.9918365272281608 $356 18.408403967937389 $486 $594 forward 7 unknown #
point $-1 58.965422528763696 18.408403967937389 7.383585883391369 #
point $-1 51.220061754594909 18.408403967937389 7.3835858833913619 #
edge $-1 $595 1 $595 0 $359 $-1 forward 7 unknown #
vertex $-1 $360 $596 #
ellipse-curve $-1 54.369111314784575 10.075150015370006 3.5050213124913876 0.6018150307709319 0 0.79863550430605224 0.39931775215302612 0 -0.30090751538546595 1 I I #
point $-1 55.492059893832327 10.075150015370006 4.1644043196409806 #
edge $-1 $597 1 $597 0 $363 $-1 forward 7 unknown #
vertex $-1 $364 $598 #
ellipse-curve $-1 54.369111314784575 13.200120247582774 3.5050213124913876 0.6018150307709319 0 0.79863550430605224 0.39931775215302612 0 -0.30090751538546595 1 I I #
point $-1 55.492059893832327 13.200120247582774 4.1644043196409806 #
edge $-1 $599 1 $599 0 $367 $-1 forward 7 unknown #
vertex $-1 $368 $600 #
ellipse-curve $-1 54.369111314784575 16.325090479795541 3.5050213124913876 0.6018150307709319 0 0.79863550430605224 0.39931775215302612 0 -0.30090751538546595 1 I I #
point $-1 55.492059893832327 16.325090479795541 4.1644043196409806 #
loop $-1 $-1 $379 $371 #
plane-surface $-1 -58.965422528763696 0 0 1 0 0 0 0 -1 forward_v I I I I #
coedge $-1 $509 $374 $376 $513 reversed $252 $-1 #
coedge $-1 $374 $508 $601 $602 reversed $252 $-1 #
coedge $-1 $382 $377 $374 $511 forward $372 $-1 #
edge $-1 $514 -21.330787546297032 $603 -18.818935622033706 $510 $604 forward 7 unknown #
coedge $-1 $376 $375 $517 $605 reversed $159 $-1 #
edge $-1 $606 -2.4884734274515653e-014 $514 4.3792802771225841 $508 $607 forward 7 unknown #
vertex $-1 $378 $608 #
straight-curve $-1 -56.453570604500371 5.3948201036448715 7.383585883391369 0 1 0 I I #
coedge $-1 $601 $379 $382 $521 reversed $506 $-1 #
coedge $-1 $379 $601 $512 $605 forward $506 $-1 #
vertex $-1 $380 $609 #
straight-curve $-1 -58.965422528763696 5.5928391806664806 35.719320965147134 0 0 1 I I #
straight-curve $-1 -58.965422528763682 5.5928391806664806 3.7962894562516283 -0.57357642473473569 0 -0.81915205242281985 I I #
edge $-1 $603 -15.986441233913006 $383 -5.5928391806664806 $516 $610 forward 7 unknown #
point $-1 -58.965422528763696 5.5928391806664806 7.383585883391369 #
point $-1 -56.453570604500371 5.5928391806664806 7.383585883391369 #
edge $-1 $611 1 $611 0 $386 $-1 forward 7 unknown #
vertex $-1 $387 $612 #
ellipse-curve $-1 -56.856520461750094 7.6715595913157841 4.9926773892969063 -0.81915205242281985 0 0.57357642473473569 0.57357642473473569 0 0.81915205242281985 1 I I #
point $-1 -57.135920141897302 7.6715595913157841 6.4090897222443139 #
edge $-1 $613 1 $613 0 $390 $-1 forward 7 unknown #
vertex $-1 $391 $614 #
ellipse-curve $-1 -56.856520461750094 10.789640207289743 4.9926773892969063 -0.81915205242281985 0 0.57357642473473569 0.57357642473473569 0 0.81915205242281985 1 I I #
point $-1 -57.135920141897302 10.789640207289743 6.4090897222443139 #
edge $-1 $615 1 $615 0 $394 $-1 forward 7 unknown #
vertex $-1 $395 $616 #
ellipse-curve $-1 -56.856520461750094 13.907720823263702 4.9926773892969063 -0.81915205242281985 0 0.57357642473473569 0.57357642473473569 0 0.81915205242281985 1 I I #
point $-1 -57.135920141897302 13.907720823263702 6.4090897222443139 #
plane-surface $-1 58.965422528763696 0 0 -1 0 0 0 0 1 forward_v I I I I #
coedge $-1 $403 $401 $405 $541 reversed $281 $-1 #
edge $-1 $416 -7.383585883391369 $543 7.383585883391369 $415 $617 forward 7 unknown #
vertex $-1 $541 $618 #
straight-curve $-1 -58.965422528763696 -31.803393929657695 0 0 0 -1 I I #
edge $-1 $539 -31.803393929657695 $543 31.803393929657695 $537 $619 forward 7 unknown #
straight-curve $-1 0 -31.803393929657695 -7.383585883391369 -1 0 0 I I #
vertex $-1 $408 $620 #
straight-curve $-1 0 31.803393929657695 -7.383585883391369 1 0 0 I I #
point $-1 58.965422528763696 31.803393929657695 -7.383585883391369 #
point $-1 58.965422528763696 -31.803393929657695 -7.383585883391369 #
straight-curve $-1 -58.965422528763696 0 7.383585883391369 0 -1 0 I I #
point $-1 -58.965422528763696 31.803393929657695 7.383585883391369 #
point $-1 -58.965422528763696 -31.803393929657695 7.383585883391369 #
straight-curve $-1 58.965422528763696 -31.803393929657695 0 0 0 -1 I I #
straight-curve $-1 58.965422528763696 31.803393929657695 0 0 0 -1 I I #
loop $-1 $-1 $560 $425 #
plane-surface $-1 -58.965422528763696 0 0 1 0 0 0 0 -1 forward_v I I I I #
coedge $-1 $429 $428 $566 $621 forward $186 $-1 #
edge $-1 $433 26.91565251182714 $569 31.803393929657695 $432 $622 forward 7 unknown #
coedge $-1 $563 $560 $429 $557 reversed $552 $-1 #
edge $-1 $623 -31.803393929657695 $558 -26.91565251182714 $556 $624 forward 7 unknown #
vertex $-1 $561 $625 #
straight-curve $-1 0 -26.91565251182714 -7.383585883391369 1 0 0 I I #
coedge $-1 $556 $435 $431 $561 forward $552 $-1 #
edge $-1 $437 0.49890524995033658 $558 4.7560888389441338 $560 $626 forward 7 unknown #
point $-1 58.965422528763696 -26.91565251182714 -7.383585883391369 #
coedge $-1 $435 $556 $439 $567 reversed $552 $-1 #
straight-curve $-1 -58.965422528763696 -14.679761610371209 -3.1264022943975718 0 1 0 I I #
point $-1 -58.965422528763696 -26.91565251182714 -3.1264022943975718 #
coedge $-1 $440 $439 $554 $621 reversed $426 $-1 #
edge $-1 $441 3.1264022943975718 $623 7.383585883391369 $563 $627 forward 7 unknown #
point $-1 -58.965422528763696 -31.803393929657695 -3.1264022943975718 #
vertex $-1 $443 $628 #
straight-curve $-1 58.965422528763696 -31.803393929657695 0 0 0 -1 I I #
edge $-1 $572 75.968090541386971 $575 81.804638638116813 $447 $629 forward 7 unknown #
vertex $-1 $461 $630 #
straight-curve $-1 17.877108880072129 -21.367686693514258 7.3835858833913761 1 0 0 I I #
edge $-1 $575 -13.287985206934437 $458 -2.8714177662252087 $457 $631 forward 7 unknown #
vertex $-1 $574 $632 #
straight-curve $-1 -35.218337386993596 -21.367686693514258 72.519592933799373 -0.79863550430605224 0 0.6018150307709319 I I #
point $-1 51.220061754594909 -21.367686693514258 7.3835858833913619 #
point $-1 58.965422528763696 -10.951119252805031 1.5470377866615195 #
straight-curve $-1 58.965422528763696 0 7.383585883391369 0 1 0 I I #
vertex $-1 $464 $633 #
point $-1 54.768429066937607 -19.284373205372411 3.2041137971059217 #
vertex $-1 $468 $634 #
point $-1 54.768429066937607 -16.159402973159644 3.2041137971059217 #
vertex $-1 $472 $635 #
point $-1 54.768429066937607 -13.034432740946876 3.2041137971059217 #
edge $-1 $587 75.968090541386971 $590 81.804638638116813 $477 $636 forward 7 unknown #
vertex $-1 $491 $637 #
straight-curve $-1 17.877108880072129 7.9918365272281608 7.3835858833913761 1 0 0 I I #
edge $-1 $590 1.3917764034367739 $488 11.808343844146002 $487 $638 forward 7 unknown #
vertex $-1 $589 $639 #
straight-curve $-1 -35.218337386993596 7.9918365272281608 72.519592933799373 -0.79863550430605224 0 0.6018150307709319 I I #
point $-1 51.220061754594909 7.9918365272281608 7.3835858833913619 #
point $-1 58.965422528763696 18.408403967937389 1.5470377866615195 #
straight-curve $-1 58.965422528763696 0 7.383585883391369 0 1 0 I I #
vertex $-1 $494 $640 #
point $-1 54.768429066937607 10.075150015370006 3.2041137971059217 #
vertex $-1 $498 $641 #
point $-1 54.768429066937607 13.200120247582774 3.2041137971059217 #
vertex $-1 $502 $642 #
point $-1 54.768429066937607 16.325090479795541 3.2041137971059217 #
coedge $-1 $517 $516 $509 $602 forward $506 $-1 #
edge $-1 $603 28.335735081755764 $606 31.923031508895527 $601 $643 forward 7 unknown #
vertex $-1 $521 $644 #
straight-curve $-1 -77.784358150797402 15.986441233913006 7.383585883391369 -1 0 0 I I #
edge $-1 $606 -10.591621130268134 $518 -0.19801907702160904 $517 $645 forward 7 unknown #
vertex $-1 $605 $646 #
straight-curve $-1 -58.965422528763682 15.986441233913006 3.7962894562516283 0.57357642473473569 0 0.81915205242281985 I I #
point $-1 -56.453570604500371 15.986441233913006 7.383585883391369 #
point $-1 -58.965422528763696 5.5928391806664806 3.7962894562516079 #
straight-curve $-1 -58.965422528763696 0 7.383585883391369 0 -1 0 I I #
vertex $-1 $524 $647 #
point $-1 -56.282944037015355 7.6715595913157841 5.811829441719726 #
vertex $-1 $528 $648 #
point $-1 -56.282944037015355 10.789640207289743 5.811829441719726 #
vertex $-1 $532 $649 #
point $-1 -56.282944037015355 13.907720823263702 5.811829441719726 #
straight-curve $-1 -58.965422528763696 31.803393929657695 0 0 0 -1 I I #
point $-1 -58.965422528763696 -31.803393929657695 -7.383585883391369 #
straight-curve $-1 -58.965422528763696 0 -7.383585883391369 0 1 0 I I #
point $-1 -58.965422528763696 31.803393929657695 -7.383585883391369 #
edge $-1 $569 -58.965422528763696 $623 58.965422528763696 $566 $650 forward 7 unknown #
straight-curve $-1 58.965422528763696 0 -7.383585883391369 0 -1 0 I I #
vertex $-1 $557 $651 #
straight-curve $-1 -58.965422528763696 0 -7.383585883391369 0 1 0 I I #
point $-1 -58.965422528763696 -26.91565251182714 -7.383585883391369 #
straight-curve $-1 -58.965422528763696 -26.91565251182714 -2.6274970444472352 0 0 -1 I I #
straight-curve $-1 -58.965422528763696 -31.803393929657695 0 0 0 -1 I I #
point $-1 58.965422528763696 -31.803393929657695 -7.383585883391369 #
straight-curve $-1 58.965422528763696 -21.367686693514258 83.351676424778333 0 0 -1 I I #
point $-1 58.965422528763696 -21.367686693514258 7.383585883391369 #
straight-curve $-1 58.965422528763696 -8.0797014865798218 1.5470377866615195 0 1 0 I I #
point $-1 58.965422528763696 -21.367686693514258 1.5470377866615195 #
point $-1 54.068203799399114 -19.284373205372411 3.1057035603383616 #
point $-1 54.068203799399114 -16.159402973159644 3.1057035603383616 #
point $-1 54.068203799399114 -13.034432740946876 3.1057035603383616 #
straight-curve $-1 58.965422528763696 7.9918365272281608 83.351676424778333 0 0 -1 I I #
point $-1 58.965422528763696 7.9918365272281608 7.383585883391369 #
straight-curve $-1 58.965422528763696 6.600060123791387 1.5470377866615195 0 1 0 I I #
point $-1 58.965422528763696 7.9918365272281608 1.5470377866615195 #
point $-1 54.068203799399114 10.075150015370006 3.1057035603383616 #
point $-1 54.068203799399114 13.200120247582774 3.1057035603383616 #
point $-1 54.068203799399114 16.325090479795541 3.1057035603383616 #
straight-curve $-1 -58.965422528763696 15.986441233913006 35.719320965147134 0 0 -1 I I #
point $-1 -58.965422528763696 15.986441233913006 7.383585883391369 #
straight-curve $-1 -58.965422528763696 5.3948201036448715 3.7962894562516127 0 -1 0 I I #
point $-1 -58.965422528763696 15.986441233913006 3.7962894562516079 #
point $-1 -56.037368409327271 7.6715595913157841 4.4191009645621708 #
point $-1 -56.037368409327271 10.789640207289743 4.4191009645621708 #
point $-1 -56.037368409327271 13.907720823263702 4.4191009645621708 #
straight-curve $-1 0 -31.803393929657695 -7.383585883391369 -1 0 0 I I #
point $-1 -58.965422528763696 -31.803393929657695 -7.383585883391369 #
End-of-ACIS-data 