500 0 5 0           
7 Unknown 11 ACIS 5.0 NT 24 Fri Mar 26 02:41:43 1999 
-1 9.9999999999999995e-007 1e-010 
body $-1 $5 $-1 $6 #
body $-1 $7 $-1 $8 #
body $-1 $9 $-1 $10 #
body $-1 $11 $-1 $12 #
body $-1 $13 $-1 $14 #
lump $-1 $-1 $15 $0 #
transform $-1 1 0 0 0 1 0 0 0 1 67.854853968932161 34.787649352662569 13.353013121987921 1 rotate no_reflect no_shear #
lump $-1 $-1 $16 $1 #
transform $-1 1 0 0 0 1 0 0 0 1 67.854853968932161 34.787649352662569 13.353013121987921 1 rotate no_reflect no_shear #
lump $-1 $-1 $17 $2 #
transform $-1 1 0 0 0 1 0 0 0 1 67.854853968932161 34.787649352662569 13.353013121987921 1 rotate no_reflect no_shear #
lump $-1 $-1 $18 $3 #
transform $-1 1 0 0 0 1 0 0 0 1 67.854853968932161 34.787649352662569 13.353013121987921 1 rotate no_reflect no_shear #
lump $-1 $-1 $19 $4 #
transform $-1 1 0 0 0 1 0 0 0 1 67.854853968932161 34.787649352662569 13.353013121987921 1 rotate no_reflect no_shear #
shell $-1 $-1 $-1 $20 $-1 $5 #
shell $-1 $-1 $-1 $21 $-1 $7 #
shell $-1 $-1 $-1 $22 $-1 $9 #
shell $-1 $-1 $-1 $23 $-1 $11 #
shell $-1 $-1 $-1 $24 $-1 $13 #
face $-1 $25 $26 $15 $-1 $27 forward single #
face $-1 $28 $29 $16 $-1 $30 forward single #
face $-1 $31 $32 $17 $-1 $33 forward single #
face $-1 $34 $35 $18 $-1 $36 reversed single #
face $-1 $37 $38 $19 $-1 $39 forward single #
face $-1 $40 $41 $15 $-1 $42 reversed single #
loop $-1 $-1 $43 $20 #
plane-surface $-1 0 0 13.353013121987921 0 0 1 1 0 0 forward_v I I I I #
face $-1 $44 $45 $16 $-1 $46 forward single #
loop $-1 $-1 $47 $21 #
plane-surface $-1 0 -34.787649352662569 0 0 1 0 0 0 1 forward_v I I I I #
face $-1 $48 $49 $17 $-1 $50 forward single #
loop $-1 $-1 $51 $22 #
plane-surface $-1 0 34.787649352662569 0 0 -1 0 0 0 -1 forward_v I I I I #
face $-1 $52 $53 $18 $-1 $54 reversed single #
loop $-1 $-1 $55 $23 #
plane-surface $-1 -168.70682231384333 9.857486955090323 97.462552410867232 0 1 0 -0.74314483375859142 0 0.66913059716165679 forward_v I I I I #
face $-1 $56 $57 $19 $-1 $58 forward single #
loop $-1 $59 $60 $24 #
cone-surface $-1 -62.474623735391219 14.019929723270167 7.874760275364121 0.74314483375859142 0 -0.66913059716165679 1.3382611943233136 0 1.4862896675171828 1 I I 0 1 2 forward I I I I #
face $-1 $61 $62 $15 $-1 $63 reversed single #
loop $-1 $-1 $64 $25 #
plane-surface $-1 0 0 -13.353013121987921 0 0 1 1 0 0 forward_v I I I I #
coedge $-1 $65 $66 $67 $68 forward $26 $-1 #
face $-1 $69 $70 $16 $-1 $71 reversed single #
loop $-1 $-1 $72 $28 #
plane-surface $-1 0 0 13.353013121987921 0 0 1 1 0 0 forward_v I I I I #
coedge $-1 $73 $74 $75 $76 forward $29 $-1 #
face $-1 $77 $78 $17 $-1 $79 reversed single #
loop $-1 $-1 $80 $31 #
plane-surface $-1 0 0 13.353013121987921 0 0 1 1 0 0 forward_v I I I I #
coedge $-1 $81 $82 $83 $84 forward $32 $-1 #
face $-1 $85 $86 $18 $-1 $87 reversed single #
loop $-1 $-1 $88 $34 #
plane-surface $-1 -67.854853968932161 14.019929723270167 6.6550344977700462 -0.74314483375859142 0 0.66913059716165679 0.66913059716165679 0 0.74314483375859142 forward_v I I I I #
coedge $-1 $89 $90 $91 $92 reversed $35 $-1 #
face $-1 $-1 $93 $19 $-1 $94 forward single #
loop $-1 $95 $96 $37 #
cone-surface $-1 -59.366692113975091 14.019929723270167 5.0763661436875935 0.74314483375859142 0 -0.66913059716165679 0.66913059716165679 0 0.74314483375859142 1 I I -0.70710678118654746 0.70710678118654746 1 forward I I I I #
loop $-1 $-1 $97 $24 #
coedge $-1 $60 $60 $98 $99 reversed $38 $-1 #
face $-1 $100 $101 $15 $-1 $102 reversed single #
loop $-1 $-1 $103 $40 #
plane-surface $-1 0 -34.787649352662569 0 0 1 0 0 0 1 forward_v I I I I #
coedge $-1 $104 $105 $106 $107 forward $41 $-1 #
coedge $-1 $108 $43 $109 $110 forward $26 $-1 #
coedge $-1 $43 $108 $111 $112 forward $26 $-1 #
coedge $-1 $113 $114 $43 $68 reversed $115 $-1 #
edge $-1 $116 -34.787649352662569 $117 34.787649352662569 $67 $118 forward 7 unknown #
face $-1 $119 $120 $16 $-1 $121 reversed single #
loop $-1 $-1 $122 $44 #
plane-surface $-1 -67.854853968932161 0 0 1 0 0 0 0 -1 forward_v I I I I #
coedge $-1 $123 $124 $74 $125 forward $45 $-1 #
coedge $-1 $126 $47 $127 $128 reversed $29 $-1 #
coedge $-1 $47 $126 $72 $125 reversed $29 $-1 #
coedge $-1 $129 $130 $47 $76 reversed $131 $-1 #
edge $-1 $132 -13.353013121987921 $133 13.353013121987921 $75 $134 forward 7 unknown #
face $-1 $135 $136 $17 $-1 $137 reversed single #
loop $-1 $-1 $138 $48 #
plane-surface $-1 -66.015783778856189 51.392926213875128 0 0 -1 0 0 0 -1 forward_v I I I I #
coedge $-1 $139 $140 $81 $141 forward $49 $-1 #
coedge $-1 $142 $51 $80 $141 reversed $32 $-1 #
coedge $-1 $51 $142 $143 $144 reversed $32 $-1 #
coedge $-1 $145 $146 $51 $84 reversed $136 $-1 #
edge $-1 $147 -13.353013121987921 $148 13.353013121987921 $83 $149 forward 7 unknown #
face $-1 $150 $151 $18 $-1 $152 reversed single #
loop $-1 $-1 $153 $52 #
plane-surface $-1 -168.70682231384333 18.18237249145001 97.462552410867232 0 -1 0 0.74314483375859142 0 -0.66913059716165679 forward_v I I I I #
coedge $-1 $154 $155 $156 $157 reversed $53 $-1 #
coedge $-1 $90 $55 $158 $159 reversed $35 $-1 #
coedge $-1 $55 $89 $154 $160 reversed $35 $-1 #
coedge $-1 $156 $161 $55 $92 forward $162 $-1 #
edge $-1 $163 16.498557187989505 $164 22.529444079756324 $91 $165 forward 7 unknown #
loop $-1 $-1 $98 $56 #
plane-surface $-1 -67.854853968932161 14.019929723270167 6.6550344977700462 -0.74314483375859142 0 0.66913059716165679 0.66913059716165679 0 0.74314483375859142 forward_v I I I I #
loop $-1 $-1 $166 $37 #
coedge $-1 $96 $96 $97 $167 reversed $57 $-1 #
coedge $-1 $97 $97 $96 $167 forward $59 $-1 #
coedge $-1 $98 $98 $60 $99 forward $93 $-1 #
edge $-1 $168 0 $168 6.2831853071796004 $98 $169 forward 7 unknown #
face $-1 $170 $171 $15 $-1 $172 reversed single #
loop $-1 $-1 $173 $61 #
plane-surface $-1 -67.854853968932161 0 0 1 0 0 0 0 -1 forward_v I I I I #
coedge $-1 $174 $111 $175 $176 forward $62 $-1 #
coedge $-1 $177 $64 $174 $178 forward $41 $-1 #
coedge $-1 $64 $177 $179 $180 forward $41 $-1 #
coedge $-1 $114 $113 $64 $107 reversed $115 $-1 #
edge $-1 $181 -34.787649352662569 $182 34.787649352662569 $106 $183 forward 7 unknown #
coedge $-1 $66 $65 $184 $185 forward $26 $-1 #
coedge $-1 $186 $187 $65 $110 reversed $171 $-1 #
edge $-1 $117 -67.854853968932161 $188 67.854853968932161 $109 $189 forward 7 unknown #
coedge $-1 $103 $190 $66 $112 reversed $62 $-1 #
edge $-1 $191 -67.854853968932161 $116 67.854853968932161 $111 $192 forward 7 unknown #
coedge $-1 $106 $67 $190 $193 forward $115 $-1 #
coedge $-1 $67 $106 $186 $194 reversed $115 $-1 #
loop $-1 $-1 $113 $170 #
vertex $-1 $68 $195 #
vertex $-1 $68 $196 #
straight-curve $-1 67.854853968932161 0 13.353013121987921 0 1 0 I I #
face $-1 $197 $131 $16 $-1 $198 reversed single #
loop $-1 $-1 $199 $69 #
plane-surface $-1 -66.015783778856189 -51.392926213875128 0 0 1 0 0 0 1 forward_v I I I I #
coedge $-1 $200 $201 $126 $202 forward $70 $-1 #
coedge $-1 $203 $72 $201 $204 forward $45 $-1 #
coedge $-1 $72 $203 $129 $205 forward $45 $-1 #
edge $-1 $132 64.176713588780217 $206 67.854853968932161 $72 $207 forward 7 unknown #
coedge $-1 $74 $73 $122 $202 reversed $29 $-1 #
coedge $-1 $208 $209 $73 $128 forward $210 $-1 #
edge $-1 $211 -67.854853968932161 $133 -64.176713588780217 $127 $212 forward 7 unknown #
coedge $-1 $213 $75 $124 $205 reversed $131 $-1 #
coedge $-1 $75 $213 $208 $214 reversed $131 $-1 #
loop $-1 $-1 $213 $119 #
vertex $-1 $125 $215 #
vertex $-1 $214 $216 #
straight-curve $-1 -64.176713588780217 -34.787649352662569 0 0 0 -1 I I #
face $-1 $217 $218 $17 $-1 $219 reversed single #
loop $-1 $-1 $83 $77 #
plane-surface $-1 -64.176713588780217 43.090287783268849 0 -1 0 0 0 0 1 forward_v I I I I #
coedge $-1 $220 $221 $222 $223 forward $78 $-1 #
coedge $-1 $224 $80 $146 $225 forward $49 $-1 #
coedge $-1 $80 $224 $226 $227 forward $49 $-1 #
edge $-1 $228 -67.854853968932161 $148 -64.176713588780217 $80 $229 forward 7 unknown #
coedge $-1 $82 $81 $230 $231 reversed $32 $-1 #
coedge $-1 $232 $233 $82 $144 forward $218 $-1 #
edge $-1 $147 64.176713588780217 $234 67.854853968932161 $143 $235 forward 7 unknown #
coedge $-1 $222 $83 $233 $236 reversed $136 $-1 #
coedge $-1 $83 $222 $139 $225 reversed $136 $-1 #
vertex $-1 $144 $237 #
vertex $-1 $225 $238 #
straight-curve $-1 -64.176713588780217 34.787649352662569 0 0 0 1 I I #
face $-1 $-1 $162 $18 $-1 $239 forward single #
loop $-1 $-1 $240 $85 #
plane-surface $-1 -67.854853968932161 0 0 1 0 0 0 0 -1 forward_v I I I I #
coedge $-1 $241 $242 $243 $244 reversed $86 $-1 #
coedge $-1 $245 $88 $90 $160 forward $53 $-1 #
coedge $-1 $88 $245 $241 $246 forward $53 $-1 #
coedge $-1 $243 $91 $88 $157 forward $162 $-1 #
edge $-1 $164 2.8475220934552397 $247 11.172407629814927 $156 $248 forward 7 unknown #
coedge $-1 $249 $250 $89 $159 forward $151 $-1 #
edge $-1 $251 -42.07624170766357 $163 -35.378263083445695 $158 $252 forward 7 unknown #
edge $-1 $164 -9.0130191585153305 $251 0 $90 $253 forward 7 unknown #
coedge $-1 $91 $243 $249 $254 forward $162 $-1 #
loop $-1 $-1 $243 $150 #
vertex $-1 $159 $255 #
vertex $-1 $92 $256 #
straight-curve $-1 -84.353411156921666 9.857486955090323 13.353013121987921 1 0 0 I I #
coedge $-1 $166 $166 $-1 $257 reversed $95 $-1 #
edge $-1 $258 0 $258 6.2831853071796004 $96 $259 forward 7 unknown #
vertex $-1 $99 $260 #
ellipse-curve $-1 -64.839410523048755 14.019929723270167 10.004023809878985 -0.74314483375859142 0 0.66913059716165679 1.3382611943233136 0 1.4862896675171828 1 I I #
face $-1 $-1 $115 $15 $-1 $261 reversed single #
loop $-1 $-1 $186 $100 #
plane-surface $-1 0 34.787649352662569 0 0 -1 0 0 0 -1 forward_v I I I I #
coedge $-1 $262 $184 $187 $263 forward $101 $-1 #
coedge $-1 $190 $103 $104 $178 reversed $62 $-1 #
coedge $-1 $184 $262 $103 $176 reversed $101 $-1 #
edge $-1 $191 -13.353013121987921 $264 13.353013121987921 $175 $265 forward 7 unknown #
coedge $-1 $105 $104 $262 $266 forward $41 $-1 #
edge $-1 $182 -67.854853968932161 $264 67.854853968932161 $174 $267 forward 7 unknown #
coedge $-1 $187 $186 $105 $180 reversed $171 $-1 #
edge $-1 $268 -67.854853968932161 $181 67.854853968932161 $179 $269 forward 7 unknown #
vertex $-1 $107 $270 #
vertex $-1 $193 $271 #
straight-curve $-1 67.854853968932161 0 -13.353013121987921 0 -1 0 I I #
coedge $-1 $173 $175 $108 $185 reversed $101 $-1 #
edge $-1 $188 -34.787649352662569 $191 34.787649352662569 $184 $272 forward 7 unknown #
coedge $-1 $179 $109 $114 $194 forward $171 $-1 #
coedge $-1 $109 $179 $173 $263 reversed $171 $-1 #
vertex $-1 $110 $273 #
straight-curve $-1 0 34.787649352662569 13.353013121987921 -1 0 0 I I #
coedge $-1 $111 $174 $113 $193 reversed $62 $-1 #
vertex $-1 $185 $274 #
straight-curve $-1 0 -34.787649352662569 13.353013121987921 1 0 0 I I #
edge $-1 $116 -13.353013121987921 $182 13.353013121987921 $113 $275 forward 7 unknown #
edge $-1 $117 -13.353013121987921 $181 13.353013121987921 $114 $276 forward 7 unknown #
point $-1 67.854853968932161 -34.787649352662569 13.353013121987921 #
point $-1 67.854853968932161 34.787649352662569 13.353013121987921 #
face $-1 $-1 $210 $16 $-1 $277 reversed single #
plane-surface $-1 -64.176713588780217 -43.090287783268849 0 -1 0 0 0 0 1 forward_v I I I I #
coedge $-1 $278 $279 $280 $281 forward $120 $-1 #
coedge $-1 $280 $122 $209 $282 reversed $70 $-1 #
coedge $-1 $122 $280 $123 $204 reversed $70 $-1 #
edge $-1 $206 -13.353013121987921 $211 13.353013121987921 $122 $283 forward 7 unknown #
coedge $-1 $124 $123 $279 $284 forward $45 $-1 #
edge $-1 $206 34.787649352662569 $285 51.392926213875128 $201 $286 forward 7 unknown #
edge $-1 $287 -8.3026384306062795 $132 8.3026384306062795 $129 $288 forward 7 unknown #
vertex $-1 $204 $289 #
straight-curve $-1 0 -34.787649352662569 13.353013121987921 -1 0 0 I I #
coedge $-1 $290 $127 $130 $214 forward $210 $-1 #
coedge $-1 $127 $290 $200 $282 forward $210 $-1 #
loop $-1 $-1 $127 $197 #
vertex $-1 $202 $291 #
straight-curve $-1 0 -34.787649352662569 -13.353013121987921 1 0 0 I I #
coedge $-1 $130 $129 $292 $293 forward $131 $-1 #
edge $-1 $133 -8.3026384306062795 $294 8.3026384306062795 $130 $295 forward 7 unknown #
point $-1 -64.176713588780217 -34.787649352662569 13.353013121987921 #
point $-1 -64.176713588780217 -34.787649352662569 -13.353013121987921 #
face $-1 $-1 $296 $17 $-1 $297 reversed single #
loop $-1 $-1 $143 $135 #
plane-surface $-1 0 0 -13.353013121987921 0 0 1 1 0 0 forward_v I I I I #
coedge $-1 $298 $138 $299 $300 reversed $78 $-1 #
coedge $-1 $138 $298 $224 $301 reversed $78 $-1 #
coedge $-1 $146 $145 $138 $223 reversed $136 $-1 #
edge $-1 $302 -13.353013121987921 $303 13.353013121987921 $222 $304 forward 7 unknown #
coedge $-1 $140 $139 $221 $301 forward $49 $-1 #
edge $-1 $148 -8.3026384306062795 $302 8.3026384306062795 $146 $305 forward 7 unknown #
coedge $-1 $306 $230 $140 $227 reversed $296 $-1 #
edge $-1 $307 -51.392926213875128 $228 -34.787649352662569 $226 $308 forward 7 unknown #
vertex $-1 $231 $309 #
straight-curve $-1 0 34.787649352662569 13.353013121987921 1 0 0 I I #
coedge $-1 $226 $310 $142 $231 forward $296 $-1 #
edge $-1 $234 -13.353013121987921 $228 13.353013121987921 $230 $311 forward 7 unknown #
coedge $-1 $299 $143 $310 $312 forward $218 $-1 #
coedge $-1 $143 $299 $145 $236 forward $218 $-1 #
vertex $-1 $312 $313 #
straight-curve $-1 0 34.787649352662569 -13.353013121987921 -1 0 0 I I #
edge $-1 $303 -8.3026384306062795 $147 8.3026384306062795 $145 $314 forward 7 unknown #
point $-1 -64.176713588780217 34.787649352662569 -13.353013121987921 #
point $-1 -64.176713588780217 34.787649352662569 13.353013121987921 #
plane-surface $-1 0 0 13.353013121987921 0 0 1 1 0 0 forward_v I I I I #
coedge $-1 $250 $249 $242 $315 forward $151 $-1 #
coedge $-1 $242 $153 $155 $246 reversed $86 $-1 #
coedge $-1 $153 $241 $240 $315 reversed $86 $-1 #
coedge $-1 $161 $156 $153 $244 forward $162 $-1 #
edge $-1 $247 -22.529444079756324 $316 -16.498557187989505 $243 $317 forward 7 unknown #
coedge $-1 $155 $154 $250 $318 reversed $53 $-1 #
edge $-1 $319 0 $247 9.0130191585153305 $241 $320 forward 7 unknown #
vertex $-1 $157 $321 #
straight-curve $-1 -61.823967077165342 7.0099648616350834 13.353013121987921 0 1 0 I I #
coedge $-1 $240 $158 $161 $254 reversed $151 $-1 #
coedge $-1 $158 $240 $245 $318 forward $151 $-1 #
vertex $-1 $159 $322 #
straight-curve $-1 -67.854853968932161 9.857486955090323 48.731276205433616 0 0 1 I I #
straight-curve $-1 -67.854853968932161 9.857486955090323 6.6550344977700462 -0.66913059716165679 0 -0.74314483375859142 I I #
edge $-1 $316 -18.18237249145001 $163 -9.857486955090323 $249 $323 forward 7 unknown #
point $-1 -67.854853968932161 9.857486955090323 13.353013121987921 #
point $-1 -61.823967077165342 9.857486955090323 13.353013121987921 #
edge $-1 $324 1 $324 0 $166 $-1 forward 7 unknown #
vertex $-1 $167 $325 #
ellipse-curve $-1 -60.109836947733683 14.019929723270167 5.7454967408492505 -0.74314483375859142 0 0.66913059716165679 1.3382611943233136 0 1.4862896675171828 1 I I #
point $-1 -63.501149328725447 14.019929723270167 11.490313477396175 #
plane-surface $-1 67.854853968932161 0 0 -1 0 0 0 0 1 forward_v I I I I #
coedge $-1 $175 $173 $177 $266 reversed $101 $-1 #
edge $-1 $188 -13.353013121987921 $268 13.353013121987921 $187 $326 forward 7 unknown #
vertex $-1 $266 $327 #
straight-curve $-1 -67.854853968932161 -34.787649352662569 0 0 0 -1 I I #
edge $-1 $264 -34.787649352662569 $268 34.787649352662569 $262 $328 forward 7 unknown #
straight-curve $-1 0 -34.787649352662569 -13.353013121987921 -1 0 0 I I #
vertex $-1 $180 $329 #
straight-curve $-1 0 34.787649352662569 -13.353013121987921 1 0 0 I I #
point $-1 67.854853968932161 34.787649352662569 -13.353013121987921 #
point $-1 67.854853968932161 -34.787649352662569 -13.353013121987921 #
straight-curve $-1 -67.854853968932161 0 13.353013121987921 0 -1 0 I I #
point $-1 -67.854853968932161 34.787649352662569 13.353013121987921 #
point $-1 -67.854853968932161 -34.787649352662569 13.353013121987921 #
straight-curve $-1 67.854853968932161 -34.787649352662569 0 0 0 -1 I I #
straight-curve $-1 67.854853968932161 34.787649352662569 0 0 0 -1 I I #
plane-surface $-1 0 0 -13.353013121987921 0 0 1 1 0 0 forward_v I I I I #
coedge $-1 $292 $199 $290 $330 reversed $120 $-1 #
coedge $-1 $199 $292 $203 $284 reversed $120 $-1 #
coedge $-1 $201 $200 $199 $281 reversed $70 $-1 #
edge $-1 $285 -13.353013121987921 $331 13.353013121987921 $280 $332 forward 7 unknown #
edge $-1 $331 -51.392926213875128 $211 -34.787649352662569 $200 $333 forward 7 unknown #
straight-curve $-1 -67.854853968932161 -34.787649352662569 0 0 0 -1 I I #
edge $-1 $285 -1.8390701900759723 $287 1.8390701900759723 $279 $334 forward 7 unknown #
vertex $-1 $204 $335 #
straight-curve $-1 -67.854853968932161 0 13.353013121987921 0 -1 0 I I #
vertex $-1 $205 $336 #
straight-curve $-1 -64.176713588780217 -43.090287783268849 13.353013121987921 0 1 0 I I #
point $-1 -67.854853968932161 -34.787649352662569 13.353013121987921 #
coedge $-1 $209 $208 $278 $330 forward $210 $-1 #
point $-1 -67.854853968932161 -34.787649352662569 -13.353013121987921 #
coedge $-1 $279 $278 $213 $293 reversed $120 $-1 #
edge $-1 $287 -13.353013121987921 $294 13.353013121987921 $213 $337 forward 7 unknown #
vertex $-1 $293 $338 #
straight-curve $-1 -64.176713588780217 -43.090287783268849 -13.353013121987921 0 -1 0 I I #
loop $-1 $-1 $230 $217 #
plane-surface $-1 -67.854853968932161 0 0 1 0 0 0 0 -1 forward_v I I I I #
coedge $-1 $221 $220 $306 $339 reversed $78 $-1 #
coedge $-1 $233 $232 $220 $300 forward $218 $-1 #
edge $-1 $340 -1.8390701900759723 $303 1.8390701900759723 $220 $341 forward 7 unknown #
edge $-1 $302 -1.8390701900759723 $307 1.8390701900759723 $221 $342 forward 7 unknown #
vertex $-1 $225 $343 #
vertex $-1 $236 $344 #
straight-curve $-1 -64.176713588780217 51.392926213875128 0 0 0 -1 I I #
straight-curve $-1 -64.176713588780217 43.090287783268849 13.353013121987921 0 1 0 I I #
coedge $-1 $310 $226 $298 $339 forward $296 $-1 #
vertex $-1 $301 $345 #
straight-curve $-1 -67.854853968932161 0 13.353013121987921 0 -1 0 I I #
point $-1 -67.854853968932161 34.787649352662569 13.353013121987921 #
coedge $-1 $230 $306 $232 $312 reversed $296 $-1 #
straight-curve $-1 -67.854853968932161 34.787649352662569 0 0 0 1 I I #
edge $-1 $234 -8.3026384306062795 $340 8.3026384306062795 $310 $346 forward 7 unknown #
point $-1 -67.854853968932161 34.787649352662569 -13.353013121987921 #
straight-curve $-1 -64.176713588780217 43.090287783268849 -13.353013121987921 0 -1 0 I I #
edge $-1 $316 35.378263083445695 $319 42.07624170766357 $240 $347 forward 7 unknown #
vertex $-1 $254 $348 #
straight-curve $-1 -84.353411156921666 18.18237249145001 13.353013121987921 -1 0 0 I I #
edge $-1 $319 -11.172407629814927 $251 -2.8475220934552397 $250 $349 forward 7 unknown #
vertex $-1 $318 $350 #
straight-curve $-1 -67.854853968932161 18.18237249145001 6.6550344977700462 0.66913059716165679 0 0.74314483375859142 I I #
point $-1 -61.823967077165342 18.18237249145001 13.353013121987921 #
point $-1 -67.854853968932161 9.857486955090323 6.6550344977700462 #
straight-curve $-1 -67.854853968932161 0 13.353013121987921 0 -1 0 I I #
vertex $-1 $257 $351 #
point $-1 -58.771575753410367 14.019929723270167 7.2317864083664336 #
straight-curve $-1 -67.854853968932161 34.787649352662569 0 0 0 -1 I I #
point $-1 -67.854853968932161 -34.787649352662569 -13.353013121987921 #
straight-curve $-1 -67.854853968932161 0 -13.353013121987921 0 1 0 I I #
point $-1 -67.854853968932161 34.787649352662569 -13.353013121987921 #
edge $-1 $294 -1.8390701900759723 $331 1.8390701900759723 $278 $352 forward 7 unknown #
vertex $-1 $282 $353 #
straight-curve $-1 -67.854853968932161 -51.392926213875128 0 0 0 -1 I I #
straight-curve $-1 -67.854853968932161 0 -13.353013121987921 0 1 0 I I #
straight-curve $-1 -66.015783778856189 -51.392926213875128 13.353013121987921 1 0 0 I I #
point $-1 -67.854853968932161 -51.392926213875128 13.353013121987921 #
point $-1 -64.176713588780217 -51.392926213875128 13.353013121987921 #
straight-curve $-1 -64.176713588780217 -51.392926213875128 0 0 0 -1 I I #
point $-1 -64.176713588780217 -51.392926213875128 -13.353013121987921 #
edge $-1 $307 -13.353013121987921 $340 13.353013121987921 $298 $354 forward 7 unknown #
vertex $-1 $300 $355 #
straight-curve $-1 -66.015783778856189 51.392926213875128 -13.353013121987921 1 0 0 I I #
straight-curve $-1 -66.015783778856189 51.392926213875128 13.353013121987921 -1 0 0 I I #
point $-1 -64.176713588780217 51.392926213875128 13.353013121987921 #
point $-1 -64.176713588780217 51.392926213875128 -13.353013121987921 #
point $-1 -67.854853968932161 51.392926213875128 13.353013121987921 #
straight-curve $-1 -67.854853968932161 43.090287783268849 -13.353013121987921 0 1 0 I I #
straight-curve $-1 -67.854853968932161 18.18237249145001 48.731276205433616 0 0 -1 I I #
point $-1 -67.854853968932161 18.18237249145001 13.353013121987921 #
straight-curve $-1 -67.854853968932161 7.0099648616350834 6.6550344977700515 0 -1 0 I I #
point $-1 -67.854853968932161 18.18237249145001 6.6550344977700462 #
point $-1 -58.623547280216499 14.019929723270167 4.4072355465259365 #
straight-curve $-1 -66.015783778856189 -51.392926213875128 -13.353013121987921 -1 0 0 I I #
point $-1 -67.854853968932161 -51.392926213875128 -13.353013121987921 #
straight-curve $-1 -67.854853968932161 51.392926213875128 0 0 0 -1 I I #
point $-1 -67.854853968932161 51.392926213875128 -13.353013121987921 #
End-of-ACIS-data 