500 0 14 0           
7 Unknown 11 ACIS 5.0 NT 24 Thu Mar 25 20:31:05 1999 
-1 9.9999999999999995e-007 1e-010 
body $-1 $14 $-1 $15 #
body $-1 $16 $-1 $17 #
body $-1 $18 $-1 $19 #
body $-1 $20 $-1 $21 #
body $-1 $22 $-1 $23 #
body $-1 $24 $-1 $25 #
body $-1 $26 $-1 $27 #
body $-1 $28 $-1 $29 #
body $-1 $30 $-1 $31 #
body $-1 $32 $-1 $33 #
body $-1 $34 $-1 $35 #
body $-1 $36 $-1 $37 #
body $-1 $38 $-1 $39 #
body $-1 $40 $-1 $41 #
lump $-1 $-1 $42 $0 #
transform $-1 1 0 0 0 1 0 0 0 1 79.086886196478162 47.268455701176428 12.527648238951583 1 rotate no_reflect no_shear #
lump $-1 $-1 $43 $1 #
transform $-1 1 0 0 0 1 0 0 0 1 79.086886196478162 47.268455701176428 12.527648238951583 1 rotate no_reflect no_shear #
lump $-1 $-1 $44 $2 #
transform $-1 1 0 0 0 1 0 0 0 1 79.086886196478162 47.268455701176428 12.527648238951583 1 rotate no_reflect no_shear #
lump $-1 $-1 $45 $3 #
transform $-1 1 0 0 0 1 0 0 0 1 79.086886196478162 47.268455701176428 12.527648238951583 1 rotate no_reflect no_shear #
lump $-1 $-1 $46 $4 #
transform $-1 1 0 0 0 1 0 0 0 1 79.086886196478162 47.268455701176428 12.527648238951583 1 rotate no_reflect no_shear #
lump $-1 $-1 $47 $5 #
transform $-1 1 0 0 0 1 0 0 0 1 79.086886196478162 47.268455701176428 12.527648238951583 1 rotate no_reflect no_shear #
lump $-1 $-1 $48 $6 #
transform $-1 1 0 0 0 1 0 0 0 1 79.086886196478162 47.268455701176428 12.527648238951583 1 rotate no_reflect no_shear #
lump $-1 $-1 $49 $7 #
transform $-1 1 0 0 0 1 0 0 0 1 79.086886196478162 47.268455701176428 12.527648238951583 1 rotate no_reflect no_shear #
lump $-1 $-1 $50 $8 #
transform $-1 1 0 0 0 1 0 0 0 1 79.086886196478162 47.268455701176428 12.527648238951583 1 rotate no_reflect no_shear #
lump $-1 $-1 $51 $9 #
transform $-1 1 0 0 0 1 0 0 0 1 79.086886196478162 47.268455701176428 12.527648238951583 1 rotate no_reflect no_shear #
lump $-1 $-1 $52 $10 #
transform $-1 1 0 0 0 1 0 0 0 1 79.086886196478162 47.268455701176428 12.527648238951583 1 rotate no_reflect no_shear #
lump $-1 $-1 $53 $11 #
transform $-1 1 0 0 0 1 0 0 0 1 79.086886196478162 47.268455701176428 12.527648238951583 1 rotate no_reflect no_shear #
lump $-1 $-1 $54 $12 #
transform $-1 1 0 0 0 1 0 0 0 1 79.086886196478162 47.268455701176428 12.527648238951583 1 rotate no_reflect no_shear #
lump $-1 $-1 $55 $13 #
transform $-1 1 0 0 0 1 0 0 0 1 79.086886196478162 47.268455701176428 12.527648238951583 1 rotate no_reflect no_shear #
shell $-1 $-1 $-1 $56 $-1 $14 #
shell $-1 $-1 $-1 $57 $-1 $16 #
shell $-1 $-1 $-1 $58 $-1 $18 #
shell $-1 $-1 $-1 $59 $-1 $20 #
shell $-1 $-1 $-1 $60 $-1 $22 #
shell $-1 $-1 $-1 $61 $-1 $24 #
shell $-1 $-1 $-1 $62 $-1 $26 #
shell $-1 $-1 $-1 $63 $-1 $28 #
shell $-1 $-1 $-1 $64 $-1 $30 #
shell $-1 $-1 $-1 $65 $-1 $32 #
shell $-1 $-1 $-1 $66 $-1 $34 #
shell $-1 $-1 $-1 $67 $-1 $36 #
shell $-1 $-1 $-1 $68 $-1 $38 #
shell $-1 $-1 $-1 $69 $-1 $40 #
face $-1 $70 $71 $42 $-1 $72 forward single #
face $-1 $73 $74 $43 $-1 $75 forward single #
face $-1 $76 $77 $44 $-1 $78 forward single #
face $-1 $79 $80 $45 $-1 $81 reversed single #
face $-1 $82 $83 $46 $-1 $84 forward single #
face $-1 $85 $86 $47 $-1 $87 forward single #
face $-1 $88 $89 $48 $-1 $90 reversed single #
face $-1 $91 $92 $49 $-1 $93 forward single #
face $-1 $94 $95 $50 $-1 $96 forward single #
face $-1 $97 $98 $51 $-1 $99 forward single #
face $-1 $100 $101 $52 $-1 $102 reversed single #
face $-1 $103 $104 $53 $-1 $105 forward single #
face $-1 $106 $107 $54 $-1 $108 forward single #
face $-1 $109 $110 $55 $-1 $111 forward single #
face $-1 $112 $113 $42 $-1 $114 reversed single #
loop $-1 $-1 $115 $56 #
plane-surface $-1 0 0 12.527648238951583 0 0 1 1 0 0 forward_v I I I I #
face $-1 $116 $117 $43 $-1 $118 reversed single #
loop $-1 $-1 $119 $57 #
plane-surface $-1 0 -41.564558235815809 -6.7260169951149589 0 0 1 1 0 0 forward_v I I I I #
face $-1 $120 $121 $44 $-1 $122 reversed single #
loop $-1 $-1 $123 $58 #
plane-surface $-1 0 41.564558235815817 -6.7260169951149589 0 0 1 1 0 0 forward_v I I I I #
face $-1 $124 $125 $45 $-1 $126 reversed single #
loop $-1 $-1 $127 $59 #
plane-surface $-1 47.955049413260141 -9.8097070444909011 221.88033236867582 0 -1 0 -0.6018150307709319 0 -0.79863550430605224 forward_v I I I I #
face $-1 $128 $129 $46 $-1 $130 forward single #
loop $-1 $131 $132 $60 #
cone-surface $-1 69.707265937417318 -22.38030162321299 4.7083509503934735 -0.6018150307709319 0 -0.79863550430605224 1.5972710086121045 0 -1.2036300615418638 1 I I 0 1 2 forward I I I I #
face $-1 $133 $134 $47 $-1 $135 forward single #
loop $-1 $136 $137 $61 #
cone-surface $-1 69.707265937417318 -14.837944875979737 4.7083509503934735 -0.6018150307709319 0 -0.79863550430605224 1.5972710086121045 0 -1.2036300615418638 1 I I 0 1 2 forward I I I I #
face $-1 $138 $139 $48 $-1 $140 reversed single #
loop $-1 $-1 $141 $62 #
plane-surface $-1 -207.05215742123252 -32.836395348809454 95.695557219998946 0 1 0 -0.80901700255871778 0 0.5877852410284794 forward_v I I I I #
face $-1 $142 $143 $49 $-1 $144 forward single #
loop $-1 $145 $146 $63 #
cone-surface $-1 -74.028039996424155 -29.793837110498743 6.5377000282194144 0.80901700255871778 0 -0.5877852410284794 0.5877852410284794 0 0.80901700255871778 1 I I 0 1 1 forward I I I I #
face $-1 $147 $148 $50 $-1 $149 forward single #
loop $-1 $150 $151 $64 #
cone-surface $-1 -74.028039996424155 -25.229999753032679 6.5377000282194144 0.80901700255871778 0 -0.5877852410284794 0.5877852410284794 0 0.80901700255871778 1 I I 0 1 1 forward I I I I #
face $-1 $152 $153 $51 $-1 $154 forward single #
loop $-1 $155 $156 $65 #
cone-surface $-1 -74.028039996424155 -20.666162395566616 6.5377000282194144 0.80901700255871778 0 -0.5877852410284794 0.5877852410284794 0 0.80901700255871778 1 I I 0 1 1 forward I I I I #
face $-1 $157 $158 $52 $-1 $159 reversed single #
loop $-1 $-1 $160 $66 #
plane-surface $-1 -207.05215742123252 3.024265421645727 95.695557219998946 0 1 0 -0.80901700255871778 0 0.5877852410284794 forward_v I I I I #
face $-1 $161 $162 $53 $-1 $163 forward single #
loop $-1 $164 $165 $67 #
cone-surface $-1 -74.028039996424155 6.0668236599564409 6.5377000282194144 0.80901700255871778 0 -0.5877852410284794 0.5877852410284794 0 0.80901700255871778 1 I I 0 1 1 forward I I I I #
face $-1 $166 $167 $54 $-1 $168 forward single #
loop $-1 $169 $170 $68 #
cone-surface $-1 -74.028039996424155 10.630661017422504 6.5377000282194144 0.80901700255871778 0 -0.5877852410284794 0.5877852410284794 0 0.80901700255871778 1 I I 0 1 1 forward I I I I #
face $-1 $171 $172 $55 $-1 $173 forward single #
loop $-1 $174 $175 $69 #
cone-surface $-1 -74.028039996424155 15.194498374888568 6.5377000282194144 0.80901700255871778 0 -0.5877852410284794 0.5877852410284794 0 0.80901700255871778 1 I I 0 1 1 forward I I I I #
face $-1 $176 $177 $42 $-1 $178 reversed single #
loop $-1 $-1 $179 $70 #
plane-surface $-1 0 0 -12.527648238951583 0 0 1 1 0 0 forward_v I I I I #
coedge $-1 $180 $181 $182 $183 forward $71 $-1 #
face $-1 $184 $185 $43 $-1 $186 reversed single #
loop $-1 $-1 $187 $73 #
plane-surface $-1 0 -35.860660770455183 -9.626832617033271 0 -1 0 0 0 -1 forward_v I I I I #
coedge $-1 $188 $189 $190 $191 reversed $74 $-1 #
face $-1 $192 $193 $44 $-1 $194 reversed single #
loop $-1 $-1 $195 $76 #
plane-surface $-1 0 35.860660770455198 -9.626832617033271 0 1 0 0 0 1 forward_v I I I I #
coedge $-1 $196 $197 $198 $199 reversed $77 $-1 #
face $-1 $200 $201 $45 $-1 $202 reversed single #
loop $-1 $-1 $203 $79 #
plane-surface $-1 -47.23630428656125 -18.609123249596365 95.557141885636426 0.6018150307709319 0 0.79863550430605224 0.79863550430605224 0 -0.6018150307709319 forward_v I I I I #
coedge $-1 $204 $205 $206 $207 reversed $80 $-1 #
face $-1 $-1 $208 $46 $-1 $209 forward single #
loop $-1 $210 $211 $82 #
cone-surface $-1 67.795497189807037 -22.38030162321299 2.1713481840975977 -0.6018150307709319 0 -0.79863550430605224 0.79863550430605224 0 -0.6018150307709319 1 I I -0.70710678118654746 0.70710678118654746 1 forward I I I I #
loop $-1 $-1 $212 $60 #
coedge $-1 $132 $132 $213 $214 reversed $83 $-1 #
face $-1 $-1 $215 $47 $-1 $216 forward single #
loop $-1 $217 $218 $85 #
cone-surface $-1 67.795497189807037 -14.837944875979737 2.1713481840975977 -0.6018150307709319 0 -0.79863550430605224 0.79863550430605224 0 -0.6018150307709319 1 I I -0.70710678118654746 0.70710678118654746 1 forward I I I I #
loop $-1 $-1 $219 $61 #
coedge $-1 $137 $137 $220 $221 reversed $86 $-1 #
face $-1 $222 $223 $48 $-1 $224 reversed single #
loop $-1 $-1 $225 $88 #
plane-surface $-1 -79.086886196478133 -25.229999753032676 2.7233482896212706 -0.80901700255871778 0 0.5877852410284794 0.5877852410284794 0 0.80901700255871778 forward_v I I I I #
coedge $-1 $226 $227 $228 $229 reversed $89 $-1 #
face $-1 $-1 $230 $49 $-1 $231 forward single #
loop $-1 $232 $233 $91 #
cone-surface $-1 -72.126305626064223 -29.793837110498743 5.1560091716381553 0.80901700255871778 0 -0.5877852410284794 0.2938926205142397 0 0.40450850127935889 1 I I -0.70710678118654746 0.70710678118654746 0.5 forward I I I I #
loop $-1 $-1 $234 $63 #
coedge $-1 $146 $146 $235 $236 reversed $92 $-1 #
face $-1 $-1 $237 $50 $-1 $238 forward single #
loop $-1 $239 $240 $94 #
cone-surface $-1 -72.126305626064223 -25.229999753032679 5.1560091716381553 0.80901700255871778 0 -0.5877852410284794 0.2938926205142397 0 0.40450850127935889 1 I I -0.70710678118654746 0.70710678118654746 0.5 forward I I I I #
loop $-1 $-1 $241 $64 #
coedge $-1 $151 $151 $242 $243 reversed $95 $-1 #
face $-1 $-1 $244 $51 $-1 $245 forward single #
loop $-1 $246 $247 $97 #
cone-surface $-1 -72.126305626064223 -20.666162395566616 5.1560091716381553 0.80901700255871778 0 -0.5877852410284794 0.2938926205142397 0 0.40450850127935889 1 I I -0.70710678118654746 0.70710678118654746 0.5 forward I I I I #
loop $-1 $-1 $248 $65 #
coedge $-1 $156 $156 $249 $250 reversed $98 $-1 #
face $-1 $251 $252 $52 $-1 $253 reversed single #
loop $-1 $-1 $254 $100 #
plane-surface $-1 -79.086886196478133 10.630661017422504 2.7233482896212706 -0.80901700255871778 0 0.5877852410284794 0.5877852410284794 0 0.80901700255871778 forward_v I I I I #
coedge $-1 $255 $256 $257 $258 reversed $101 $-1 #
face $-1 $-1 $259 $53 $-1 $260 forward single #
loop $-1 $261 $262 $103 #
cone-surface $-1 -72.126305626064223 6.0668236599564409 5.1560091716381553 0.80901700255871778 0 -0.5877852410284794 0.2938926205142397 0 0.40450850127935889 1 I I -0.70710678118654746 0.70710678118654746 0.5 forward I I I I #
loop $-1 $-1 $263 $67 #
coedge $-1 $165 $165 $264 $265 reversed $104 $-1 #
face $-1 $-1 $266 $54 $-1 $267 forward single #
loop $-1 $268 $269 $106 #
cone-surface $-1 -72.126305626064223 10.630661017422504 5.1560091716381553 0.80901700255871778 0 -0.5877852410284794 0.2938926205142397 0 0.40450850127935889 1 I I -0.70710678118654746 0.70710678118654746 0.5 forward I I I I #
loop $-1 $-1 $270 $68 #
coedge $-1 $170 $170 $271 $272 reversed $107 $-1 #
face $-1 $-1 $273 $55 $-1 $274 forward single #
loop $-1 $275 $276 $109 #
cone-surface $-1 -72.126305626064223 15.194498374888568 5.1560091716381553 0.80901700255871778 0 -0.5877852410284794 0.2938926205142397 0 0.40450850127935889 1 I I -0.70710678118654746 0.70710678118654746 0.5 forward I I I I #
loop $-1 $-1 $277 $69 #
coedge $-1 $175 $175 $278 $279 reversed $110 $-1 #
face $-1 $280 $281 $42 $-1 $282 reversed single #
loop $-1 $-1 $283 $112 #
plane-surface $-1 0 -47.268455701176428 0 0 1 0 0 0 1 forward_v I I I I #
coedge $-1 $284 $285 $286 $287 forward $113 $-1 #
coedge $-1 $288 $115 $289 $290 forward $71 $-1 #
coedge $-1 $115 $288 $291 $292 forward $71 $-1 #
coedge $-1 $293 $294 $115 $183 reversed $295 $-1 #
edge $-1 $296 -47.268455701176428 $297 47.268455701176428 $182 $298 forward 7 unknown #
face $-1 $299 $300 $43 $-1 $301 reversed single #
loop $-1 $-1 $302 $116 #
plane-surface $-1 0 0 -12.527648238951583 0 0 1 1 0 0 forward_v I I I I #
coedge $-1 $303 $304 $305 $306 reversed $117 $-1 #
coedge $-1 $307 $119 $304 $308 forward $74 $-1 #
coedge $-1 $119 $307 $309 $310 reversed $74 $-1 #
coedge $-1 $311 $305 $119 $191 forward $300 $-1 #
edge $-1 $312 15.078381652547279 $313 26.486176583268531 $190 $314 forward 7 unknown #
face $-1 $315 $316 $44 $-1 $317 reversed single #
loop $-1 $-1 $198 $120 #
plane-surface $-1 79.086886196478162 0 0 -1 0 0 0 0 1 forward_v I I I I #
coedge $-1 $318 $319 $320 $321 reversed $121 $-1 #
coedge $-1 $322 $123 $323 $324 reversed $77 $-1 #
coedge $-1 $123 $322 $319 $325 forward $77 $-1 #
coedge $-1 $326 $327 $123 $199 forward $193 $-1 #
edge $-1 $328 -26.486176583268527 $329 -15.078381652547289 $198 $330 forward 7 unknown #
face $-1 $331 $332 $45 $-1 $333 forward single #
loop $-1 $-1 $334 $124 #
plane-surface $-1 47.955049413260141 -27.408539454701831 221.88033236867582 0 1 0 0.6018150307709319 0 0.79863550430605224 forward_v I I I I #
coedge $-1 $335 $336 $337 $338 reversed $125 $-1 #
coedge $-1 $205 $127 $339 $340 reversed $80 $-1 #
coedge $-1 $127 $204 $335 $341 reversed $80 $-1 #
coedge $-1 $337 $342 $127 $207 forward $332 $-1 #
edge $-1 $343 -55.109361489848091 $344 -38.970028405405152 $206 $345 forward 7 unknown #
loop $-1 $-1 $213 $128 #
plane-surface $-1 -47.23630428656125 -18.609123249596365 95.557141885636426 0.6018150307709319 0 0.79863550430605224 0.79863550430605224 0 -0.6018150307709319 forward_v I I I I #
loop $-1 $-1 $346 $82 #
coedge $-1 $211 $211 $212 $347 reversed $129 $-1 #
coedge $-1 $212 $212 $211 $347 forward $131 $-1 #
coedge $-1 $213 $213 $132 $214 forward $208 $-1 #
edge $-1 $348 0 $348 6.2831853071796004 $213 $349 forward 7 unknown #
loop $-1 $-1 $220 $133 #
plane-surface $-1 -47.23630428656125 -18.609123249596365 95.557141885636426 0.6018150307709319 0 0.79863550430605224 0.79863550430605224 0 -0.6018150307709319 forward_v I I I I #
loop $-1 $-1 $350 $85 #
coedge $-1 $218 $218 $219 $351 reversed $134 $-1 #
coedge $-1 $219 $219 $218 $351 forward $136 $-1 #
coedge $-1 $220 $220 $137 $221 forward $215 $-1 #
edge $-1 $352 0 $352 6.2831853071796004 $220 $353 forward 7 unknown #
face $-1 $354 $355 $48 $-1 $356 reversed single #
loop $-1 $-1 $357 $138 #
plane-surface $-1 -207.05215742123252 -17.623604157255897 95.695557219998946 0 -1 0 0.80901700255871778 0 -0.5877852410284794 forward_v I I I I #
coedge $-1 $358 $359 $360 $361 reversed $139 $-1 #
coedge $-1 $227 $141 $362 $363 reversed $89 $-1 #
coedge $-1 $141 $226 $358 $364 reversed $89 $-1 #
coedge $-1 $360 $365 $141 $229 forward $366 $-1 #
edge $-1 $367 24.439192514138099 $368 31.562433176084994 $228 $369 forward 7 unknown #
loop $-1 $-1 $235 $142 #
plane-surface $-1 -79.086886196478133 -25.229999753032676 2.7233482896212706 -0.80901700255871778 0 0.5877852410284794 0.5877852410284794 0 0.80901700255871778 forward_v I I I I #
loop $-1 $-1 $370 $91 #
coedge $-1 $233 $233 $234 $371 reversed $143 $-1 #
coedge $-1 $234 $234 $233 $371 forward $145 $-1 #
coedge $-1 $235 $235 $146 $236 forward $230 $-1 #
edge $-1 $372 0 $372 6.2831853071796004 $235 $373 forward 7 unknown #
loop $-1 $-1 $242 $147 #
plane-surface $-1 -79.086886196478133 -25.229999753032676 2.7233482896212706 -0.80901700255871778 0 0.5877852410284794 0.5877852410284794 0 0.80901700255871778 forward_v I I I I #
loop $-1 $-1 $374 $94 #
coedge $-1 $240 $240 $241 $375 reversed $148 $-1 #
coedge $-1 $241 $241 $240 $375 forward $150 $-1 #
coedge $-1 $242 $242 $151 $243 forward $237 $-1 #
edge $-1 $376 0 $376 6.2831853071796004 $242 $377 forward 7 unknown #
loop $-1 $-1 $249 $152 #
plane-surface $-1 -79.086886196478133 -25.229999753032676 2.7233482896212706 -0.80901700255871778 0 0.5877852410284794 0.5877852410284794 0 0.80901700255871778 forward_v I I I I #
loop $-1 $-1 $378 $97 #
coedge $-1 $247 $247 $248 $379 reversed $153 $-1 #
coedge $-1 $248 $248 $247 $379 forward $155 $-1 #
coedge $-1 $249 $249 $156 $250 forward $244 $-1 #
edge $-1 $380 0 $380 6.2831853071796004 $249 $381 forward 7 unknown #
face $-1 $382 $383 $52 $-1 $384 forward single #
loop $-1 $-1 $385 $157 #
plane-surface $-1 -207.05215742123252 18.237056613199282 95.695557219998946 0 -1 0 0.80901700255871778 0 -0.5877852410284794 forward_v I I I I #
coedge $-1 $386 $387 $388 $389 reversed $158 $-1 #
coedge $-1 $256 $160 $390 $391 reversed $101 $-1 #
coedge $-1 $160 $255 $386 $392 reversed $101 $-1 #
coedge $-1 $388 $393 $160 $258 forward $383 $-1 #
edge $-1 $394 24.439192514138099 $395 31.562433176084994 $257 $396 forward 7 unknown #
loop $-1 $-1 $264 $161 #
plane-surface $-1 -79.086886196478133 10.630661017422504 2.7233482896212706 -0.80901700255871778 0 0.5877852410284794 0.5877852410284794 0 0.80901700255871778 forward_v I I I I #
loop $-1 $-1 $397 $103 #
coedge $-1 $262 $262 $263 $398 reversed $162 $-1 #
coedge $-1 $263 $263 $262 $398 forward $164 $-1 #
coedge $-1 $264 $264 $165 $265 forward $259 $-1 #
edge $-1 $399 0 $399 6.2831853071796004 $264 $400 forward 7 unknown #
loop $-1 $-1 $271 $166 #
plane-surface $-1 -79.086886196478133 10.630661017422504 2.7233482896212706 -0.80901700255871778 0 0.5877852410284794 0.5877852410284794 0 0.80901700255871778 forward_v I I I I #
loop $-1 $-1 $401 $106 #
coedge $-1 $269 $269 $270 $402 reversed $167 $-1 #
coedge $-1 $270 $270 $269 $402 forward $169 $-1 #
coedge $-1 $271 $271 $170 $272 forward $266 $-1 #
edge $-1 $403 0 $403 6.2831853071796004 $271 $404 forward 7 unknown #
loop $-1 $-1 $278 $171 #
plane-surface $-1 -79.086886196478133 10.630661017422504 2.7233482896212706 -0.80901700255871778 0 0.5877852410284794 0.5877852410284794 0 0.80901700255871778 forward_v I I I I #
loop $-1 $-1 $405 $109 #
coedge $-1 $276 $276 $277 $406 reversed $172 $-1 #
coedge $-1 $277 $277 $276 $406 forward $174 $-1 #
coedge $-1 $278 $278 $175 $279 forward $273 $-1 #
edge $-1 $407 0 $407 6.2831853071796004 $278 $408 forward 7 unknown #
face $-1 $409 $410 $42 $-1 $411 reversed single #
loop $-1 $-1 $412 $176 #
plane-surface $-1 -79.086886196478162 0 0 1 0 0 0 0 -1 forward_v I I I I #
coedge $-1 $413 $291 $414 $415 forward $177 $-1 #
coedge $-1 $416 $179 $413 $417 forward $113 $-1 #
coedge $-1 $179 $416 $418 $419 forward $113 $-1 #
coedge $-1 $294 $293 $179 $287 reversed $295 $-1 #
edge $-1 $420 -47.268455701176428 $421 47.268455701176428 $286 $422 forward 7 unknown #
coedge $-1 $181 $180 $423 $424 forward $71 $-1 #
coedge $-1 $425 $426 $180 $290 reversed $410 $-1 #
edge $-1 $297 -79.086886196478162 $427 79.086886196478162 $289 $428 forward 7 unknown #
coedge $-1 $283 $429 $181 $292 reversed $177 $-1 #
edge $-1 $430 -79.086886196478162 $296 79.086886196478162 $291 $431 forward 7 unknown #
coedge $-1 $286 $182 $429 $432 forward $295 $-1 #
coedge $-1 $182 $286 $425 $433 reversed $295 $-1 #
loop $-1 $-1 $293 $409 #
vertex $-1 $183 $434 #
vertex $-1 $183 $435 #
straight-curve $-1 79.086886196478162 0 12.527648238951583 0 1 0 I I #
face $-1 $436 $437 $43 $-1 $438 reversed single #
loop $-1 $-1 $305 $184 #
plane-surface $-1 79.086886196478162 0 0 -1 0 0 0 0 1 forward_v I I I I #
coedge $-1 $439 $440 $303 $441 forward $185 $-1 #
coedge $-1 $442 $187 $302 $441 reversed $117 $-1 #
coedge $-1 $187 $442 $188 $308 reversed $117 $-1 #
coedge $-1 $190 $443 $187 $306 forward $300 $-1 #
edge $-1 $444 -7.7142319304349476 $312 -1.9126006865983234 $305 $445 forward 7 unknown #
coedge $-1 $189 $188 $446 $447 reversed $74 $-1 #
edge $-1 $312 -79.086886196478162 $448 79.086886196478162 $304 $449 forward 7 unknown #
coedge $-1 $450 $451 $189 $310 forward $437 $-1 #
edge $-1 $313 -79.086886196478162 $452 79.086886196478162 $309 $453 forward 7 unknown #
coedge $-1 $443 $190 $451 $454 forward $300 $-1 #
vertex $-1 $191 $455 #
vertex $-1 $454 $456 #
straight-curve $-1 79.086886196478162 -20.782279117907905 -6.7260169951149589 0 -1 0 I I #
face $-1 $457 $458 $44 $-1 $459 reversed single #
loop $-1 $-1 $460 $192 #
plane-surface $-1 0 0 -12.527648238951583 0 0 1 1 0 0 forward_v I I I I #
coedge $-1 $461 $195 $460 $462 reversed $121 $-1 #
coedge $-1 $195 $461 $197 $325 reversed $121 $-1 #
coedge $-1 $463 $464 $195 $321 forward $458 $-1 #
edge $-1 $465 -7.7142319304349476 $466 -1.9126006865983234 $320 $467 forward 7 unknown #
coedge $-1 $197 $196 $463 $468 reversed $77 $-1 #
coedge $-1 $469 $470 $196 $324 forward $471 $-1 #
edge $-1 $472 -79.086886196478162 $328 79.086886196478162 $323 $473 forward 7 unknown #
edge $-1 $466 -79.086886196478162 $329 79.086886196478162 $319 $474 forward 7 unknown #
coedge $-1 $475 $198 $461 $476 forward $193 $-1 #
coedge $-1 $198 $475 $469 $477 reversed $193 $-1 #
vertex $-1 $477 $478 #
vertex $-1 $199 $479 #
straight-curve $-1 79.086886196478162 20.782279117907908 -6.7260169951149589 0 -1 0 I I #
face $-1 $-1 $480 $45 $-1 $481 reversed single #
loop $-1 $-1 $206 $200 #
plane-surface $-1 0 0 12.527648238951583 0 0 1 1 0 0 forward_v I I I I #
coedge $-1 $482 $483 $484 $485 reversed $201 $-1 #
coedge $-1 $486 $203 $205 $341 forward $125 $-1 #
coedge $-1 $203 $486 $482 $487 forward $125 $-1 #
coedge $-1 $484 $206 $203 $338 forward $332 $-1 #
edge $-1 $344 0.50514541969271853 $488 18.103977829903648 $337 $489 forward 7 unknown #
coedge $-1 $490 $491 $204 $340 forward $480 $-1 #
edge $-1 $492 -110.57437799852289 $343 -98.412517945386327 $339 $493 forward 7 unknown #
edge $-1 $344 137.96513779378876 $492 158.17377239295635 $205 $494 forward 7 unknown #
coedge $-1 $206 $484 $490 $495 forward $332 $-1 #
vertex $-1 $340 $496 #
vertex $-1 $207 $497 #
straight-curve $-1 23.977524706630071 -9.8097070444909011 12.527648238951585 -1 0 0 I I #
coedge $-1 $346 $346 $-1 $498 reversed $210 $-1 #
edge $-1 $499 0 $499 6.2831853071796004 $211 $500 forward 7 unknown #
vertex $-1 $214 $501 #
ellipse-curve $-1 71.017219654256692 -22.38030162321299 6.446718212383316 0.6018150307709319 0 0.79863550430605224 1.5972710086121045 0 -1.2036300615418638 1 I I #
coedge $-1 $350 $350 $-1 $502 reversed $217 $-1 #
edge $-1 $503 0 $503 6.2831853071796004 $218 $504 forward 7 unknown #
vertex $-1 $221 $505 #
ellipse-curve $-1 71.017219654256692 -14.837944875979737 6.446718212383316 0.6018150307709319 0 0.79863550430605224 1.5972710086121045 0 -1.2036300615418638 1 I I #
face $-1 $-1 $366 $48 $-1 $506 forward single #
loop $-1 $-1 $507 $222 #
plane-surface $-1 -79.086886196478162 0 0 1 0 0 0 0 -1 forward_v I I I I #
coedge $-1 $508 $509 $510 $511 reversed $223 $-1 #
coedge $-1 $512 $225 $227 $364 forward $139 $-1 #
coedge $-1 $225 $512 $508 $513 forward $139 $-1 #
coedge $-1 $510 $228 $225 $361 forward $366 $-1 #
edge $-1 $368 -20.221395472293118 $514 -5.0086042807395597 $360 $515 forward 7 unknown #
coedge $-1 $516 $517 $226 $363 forward $355 $-1 #
edge $-1 $518 -45.124430320378238 $367 -35.320130371047888 $362 $519 forward 7 unknown #
edge $-1 $368 -12.118781086580103 $518 4.8322124813089328e-014 $227 $520 forward 7 unknown #
coedge $-1 $228 $510 $516 $521 forward $366 $-1 #
loop $-1 $-1 $510 $354 #
vertex $-1 $363 $522 #
vertex $-1 $229 $523 #
straight-curve $-1 -103.52607871061626 -32.836395348809454 12.527648238951585 1 0 0 I I #
coedge $-1 $370 $370 $-1 $524 reversed $232 $-1 #
edge $-1 $525 0 $525 6.2831853071796004 $233 $526 forward 7 unknown #
vertex $-1 $236 $527 #
ellipse-curve $-1 -75.525265865504707 -29.793837110498743 7.625498264286418 -0.80901700255871778 0 0.5877852410284794 0.5877852410284794 0 0.80901700255871778 1 I I #
coedge $-1 $374 $374 $-1 $528 reversed $239 $-1 #
edge $-1 $529 0 $529 6.2831853071796004 $240 $530 forward 7 unknown #
vertex $-1 $243 $531 #
ellipse-curve $-1 -75.525265865504707 -25.229999753032679 7.625498264286418 -0.80901700255871778 0 0.5877852410284794 0.5877852410284794 0 0.80901700255871778 1 I I #
coedge $-1 $378 $378 $-1 $532 reversed $246 $-1 #
edge $-1 $533 0 $533 6.2831853071796004 $247 $534 forward 7 unknown #
vertex $-1 $250 $535 #
ellipse-curve $-1 -75.525265865504707 -20.666162395566616 7.625498264286418 -0.80901700255871778 0 0.5877852410284794 0.5877852410284794 0 0.80901700255871778 1 I I #
face $-1 $-1 $536 $52 $-1 $537 reversed single #
loop $-1 $-1 $257 $251 #
plane-surface $-1 0 0 12.527648238951583 0 0 1 1 0 0 forward_v I I I I #
coedge $-1 $538 $539 $540 $541 reversed $252 $-1 #
coedge $-1 $542 $254 $256 $392 forward $158 $-1 #
coedge $-1 $254 $542 $538 $543 forward $158 $-1 #
coedge $-1 $540 $257 $254 $389 forward $383 $-1 #
edge $-1 $395 -2.2910650870655251 $544 12.92172610448803 $388 $545 forward 7 unknown #
coedge $-1 $546 $547 $255 $391 forward $536 $-1 #
edge $-1 $548 -45.124430320378238 $394 -35.320130371047888 $390 $549 forward 7 unknown #
edge $-1 $395 -12.118781086580103 $548 4.8322124813089328e-014 $256 $550 forward 7 unknown #
coedge $-1 $257 $540 $546 $551 forward $383 $-1 #
vertex $-1 $391 $552 #
vertex $-1 $258 $553 #
straight-curve $-1 -103.52607871061626 3.024265421645727 12.527648238951585 1 0 0 I I #
coedge $-1 $397 $397 $-1 $554 reversed $261 $-1 #
edge $-1 $555 0 $555 6.2831853071796004 $262 $556 forward 7 unknown #
vertex $-1 $265 $557 #
ellipse-curve $-1 -75.525265865504707 6.0668236599564409 7.625498264286418 -0.80901700255871778 0 0.5877852410284794 0.5877852410284794 0 0.80901700255871778 1 I I #
coedge $-1 $401 $401 $-1 $558 reversed $268 $-1 #
edge $-1 $559 0 $559 6.2831853071796004 $269 $560 forward 7 unknown #
vertex $-1 $272 $561 #
ellipse-curve $-1 -75.525265865504707 10.630661017422504 7.625498264286418 -0.80901700255871778 0 0.5877852410284794 0.5877852410284794 0 0.80901700255871778 1 I I #
coedge $-1 $405 $405 $-1 $562 reversed $275 $-1 #
edge $-1 $563 0 $563 6.2831853071796004 $276 $564 forward 7 unknown #
vertex $-1 $279 $565 #
ellipse-curve $-1 -75.525265865504707 15.194498374888568 7.625498264286418 -0.80901700255871778 0 0.5877852410284794 0.5877852410284794 0 0.80901700255871778 1 I I #
face $-1 $-1 $295 $42 $-1 $566 reversed single #
loop $-1 $-1 $425 $280 #
plane-surface $-1 0 47.268455701176428 0 0 -1 0 0 0 -1 forward_v I I I I #
coedge $-1 $567 $423 $426 $568 forward $281 $-1 #
coedge $-1 $429 $283 $284 $417 reversed $177 $-1 #
coedge $-1 $423 $567 $283 $415 reversed $281 $-1 #
edge $-1 $430 -12.527648238951583 $569 12.527648238951583 $414 $570 forward 7 unknown #
coedge $-1 $285 $284 $567 $571 forward $113 $-1 #
edge $-1 $421 -79.086886196478162 $569 79.086886196478162 $413 $572 forward 7 unknown #
coedge $-1 $426 $425 $285 $419 reversed $410 $-1 #
edge $-1 $573 -79.086886196478162 $420 79.086886196478162 $418 $574 forward 7 unknown #
vertex $-1 $287 $575 #
vertex $-1 $432 $576 #
straight-curve $-1 79.086886196478162 0 -12.527648238951583 0 -1 0 I I #
coedge $-1 $412 $414 $288 $424 reversed $281 $-1 #
edge $-1 $427 -47.268455701176428 $430 47.268455701176428 $423 $577 forward 7 unknown #
coedge $-1 $418 $289 $294 $433 forward $410 $-1 #
coedge $-1 $289 $418 $412 $568 reversed $410 $-1 #
vertex $-1 $290 $578 #
straight-curve $-1 0 47.268455701176428 12.527648238951583 -1 0 0 I I #
coedge $-1 $291 $413 $293 $432 reversed $177 $-1 #
vertex $-1 $424 $579 #
straight-curve $-1 0 -47.268455701176428 12.527648238951583 1 0 0 I I #
edge $-1 $296 -12.527648238951583 $421 12.527648238951583 $293 $580 forward 7 unknown #
edge $-1 $297 -12.527648238951583 $420 12.527648238951583 $294 $581 forward 7 unknown #
point $-1 79.086886196478162 -47.268455701176428 12.527648238951583 #
point $-1 79.086886196478162 47.268455701176428 12.527648238951583 #
face $-1 $-1 $582 $43 $-1 $583 reversed single #
loop $-1 $-1 $309 $299 #
plane-surface $-1 0 -47.268455701176428 0 0 1 0 0 0 1 forward_v I I I I #
coedge $-1 $584 $302 $443 $585 forward $185 $-1 #
coedge $-1 $302 $584 $586 $587 forward $185 $-1 #
edge $-1 $588 -79.086886196478162 $444 79.086886196478162 $302 $589 forward 7 unknown #
coedge $-1 $304 $303 $590 $591 reversed $117 $-1 #
coedge $-1 $305 $311 $439 $585 reversed $300 $-1 #
vertex $-1 $585 $592 #
straight-curve $-1 79.086886196478162 -35.860660770455183 -4.8134163085166355 0 0 1 I I #
coedge $-1 $590 $593 $307 $447 forward $582 $-1 #
edge $-1 $452 -26.486176583268531 $448 -15.078381652547279 $446 $594 forward 7 unknown #
vertex $-1 $447 $595 #
straight-curve $-1 0 -35.860660770455183 -6.7260169951149589 -1 0 0 I I #
coedge $-1 $596 $309 $593 $597 forward $437 $-1 #
coedge $-1 $309 $596 $311 $454 reversed $437 $-1 #
vertex $-1 $597 $598 #
straight-curve $-1 0 -47.268455701176428 -6.7260169951149589 -1 0 0 I I #
edge $-1 $313 6.7260169951149589 $599 12.527648238951583 $311 $600 forward 7 unknown #
point $-1 79.086886196478162 -35.860660770455183 -6.7260169951149589 #
point $-1 79.086886196478162 -47.268455701176435 -6.7260169951149589 #
face $-1 $-1 $471 $44 $-1 $601 reversed single #
loop $-1 $-1 $463 $315 #
plane-surface $-1 -79.086886196478162 0 0 1 0 0 0 0 -1 forward_v I I I I #
coedge $-1 $602 $603 $318 $462 forward $316 $-1 #
coedge $-1 $319 $318 $326 $476 reversed $121 $-1 #
edge $-1 $604 -79.086886196478162 $465 79.086886196478162 $460 $605 forward 7 unknown #
coedge $-1 $606 $320 $322 $468 forward $458 $-1 #
coedge $-1 $320 $606 $602 $607 reversed $458 $-1 #
vertex $-1 $607 $608 #
vertex $-1 $468 $609 #
straight-curve $-1 -79.086886196478162 35.860660770455198 -4.8134163085166355 0 0 1 I I #
edge $-1 $466 15.078381652547289 $472 26.486176583268527 $463 $610 forward 7 unknown #
coedge $-1 $611 $323 $327 $477 forward $471 $-1 #
coedge $-1 $323 $611 $606 $612 reversed $471 $-1 #
loop $-1 $-1 $323 $457 #
vertex $-1 $612 $613 #
straight-curve $-1 0 47.268455701176428 -6.7260169951149589 1 0 0 I I #
straight-curve $-1 0 35.860660770455198 -6.7260169951149589 1 0 0 I I #
coedge $-1 $327 $326 $603 $614 reversed $193 $-1 #
edge $-1 $329 1.9126006865983234 $604 7.7142319304349476 $326 $615 forward 7 unknown #
edge $-1 $328 6.7260169951149589 $616 12.527648238951583 $327 $617 forward 7 unknown #
point $-1 79.086886196478162 47.268455701176435 -6.7260169951149589 #
point $-1 79.086886196478162 35.860660770455198 -6.7260169951149589 #
loop $-1 $-1 $339 $331 #
plane-surface $-1 79.086886196478162 0 0 -1 0 0 0 0 1 forward_v I I I I #
coedge $-1 $483 $334 $336 $487 reversed $201 $-1 #
coedge $-1 $334 $482 $618 $619 reversed $201 $-1 #
coedge $-1 $342 $337 $334 $485 forward $332 $-1 #
edge $-1 $488 38.970028405405152 $620 55.109361489848091 $484 $621 forward 7 unknown #
coedge $-1 $336 $335 $491 $622 reversed $125 $-1 #
edge $-1 $623 -158.17377239295635 $488 -137.96513779378876 $482 $624 forward 7 unknown #
vertex $-1 $338 $625 #
straight-curve $-1 62.947553112035237 -9.3045616247981826 12.527648238951585 0 -1 0 I I #
coedge $-1 $618 $339 $342 $495 reversed $480 $-1 #
coedge $-1 $339 $618 $486 $622 forward $480 $-1 #
vertex $-1 $340 $626 #
straight-curve $-1 79.086886196478162 -9.8097070444909011 110.94016618433791 0 0 1 I I #
straight-curve $-1 -47.23630428656125 -9.8097070444909011 95.557141885636426 0.79863550430605224 0 -0.6018150307709319 I I #
edge $-1 $620 -27.408539454701831 $343 -9.8097070444909011 $490 $627 forward 7 unknown #
point $-1 79.086886196478162 -9.8097070444909011 12.527648238951583 #
point $-1 62.947553112035223 -9.8097070444909011 12.527648238951585 #
edge $-1 $628 1 $628 0 $346 $-1 forward 7 unknown #
vertex $-1 $347 $629 #
ellipse-curve $-1 68.397312220577973 -22.38030162321299 2.9699836884036497 0.6018150307709319 0 0.79863550430605224 1.5972710086121045 0 -1.2036300615418638 1 I I #
point $-1 72.614490662868789 -22.38030162321299 5.2430881508414346 #
edge $-1 $630 1 $630 0 $350 $-1 forward 7 unknown #
vertex $-1 $351 $631 #
ellipse-curve $-1 68.397312220577973 -14.837944875979737 2.9699836884036497 0.6018150307709319 0 0.79863550430605224 1.5972710086121045 0 -1.2036300615418638 1 I I #
point $-1 72.614490662868789 -14.837944875979737 5.2430881508414346 #
plane-surface $-1 0 0 12.527648238951583 0 0 1 1 0 0 forward_v I I I I #
coedge $-1 $517 $516 $509 $632 forward $355 $-1 #
coedge $-1 $509 $357 $359 $513 reversed $223 $-1 #
coedge $-1 $357 $508 $507 $632 reversed $223 $-1 #
coedge $-1 $365 $360 $357 $511 forward $366 $-1 #
edge $-1 $514 -31.562433176084994 $633 -24.439192514138099 $510 $634 forward 7 unknown #
coedge $-1 $359 $358 $517 $635 reversed $139 $-1 #
edge $-1 $636 -4.8322124813089328e-014 $514 12.118781086580103 $508 $637 forward 7 unknown #
vertex $-1 $361 $638 #
straight-curve $-1 -71.963645534531281 -12.614999876516338 12.527648238951583 0 1 0 I I #
coedge $-1 $507 $362 $365 $521 reversed $355 $-1 #
coedge $-1 $362 $507 $512 $635 forward $355 $-1 #
vertex $-1 $363 $639 #
straight-curve $-1 -79.086886196478162 -32.836395348809454 47.847778609999473 0 0 1 I I #
straight-curve $-1 -79.086886196478133 -32.836395348809454 2.7233482896212706 -0.5877852410284794 0 -0.80901700255871778 I I #
edge $-1 $633 17.623604157255897 $367 32.836395348809454 $516 $640 forward 7 unknown #
point $-1 -79.086886196478162 -32.836395348809454 12.527648238951583 #
point $-1 -71.963645534531267 -32.836395348809454 12.527648238951583 #
edge $-1 $641 1 $641 0 $370 $-1 forward 7 unknown #
vertex $-1 $371 $642 #
ellipse-curve $-1 -72.530814127343575 -29.793837110498743 5.4499017921523949 -0.80901700255871778 0 0.5877852410284794 0.5877852410284794 0 0.80901700255871778 1 I I #
point $-1 -74.937480624476251 -29.793837110498743 8.4345152668451515 #
edge $-1 $643 1 $643 0 $374 $-1 forward 7 unknown #
vertex $-1 $375 $644 #
ellipse-curve $-1 -72.530814127343575 -25.229999753032679 5.4499017921523949 -0.80901700255871778 0 0.5877852410284794 0.5877852410284794 0 0.80901700255871778 1 I I #
point $-1 -74.937480624476251 -25.229999753032679 8.4345152668451515 #
edge $-1 $645 1 $645 0 $378 $-1 forward 7 unknown #
vertex $-1 $379 $646 #
ellipse-curve $-1 -72.530814127343575 -20.666162395566616 5.4499017921523949 -0.80901700255871778 0 0.5877852410284794 0.5877852410284794 0 0.80901700255871778 1 I I #
point $-1 -74.937480624476251 -20.666162395566616 8.4345152668451515 #
loop $-1 $-1 $390 $382 #
plane-surface $-1 -79.086886196478162 0 0 1 0 0 0 0 -1 forward_v I I I I #
coedge $-1 $539 $385 $387 $543 reversed $252 $-1 #
coedge $-1 $385 $538 $647 $648 reversed $252 $-1 #
coedge $-1 $393 $388 $385 $541 forward $383 $-1 #
edge $-1 $544 -31.562433176084994 $649 -24.439192514138099 $540 $650 forward 7 unknown #
coedge $-1 $387 $386 $547 $651 reversed $158 $-1 #
edge $-1 $652 -4.8322124813089328e-014 $544 12.118781086580103 $538 $653 forward 7 unknown #
vertex $-1 $389 $654 #
straight-curve $-1 -71.963645534531281 5.3153305087112521 12.527648238951583 0 1 0 I I #
coedge $-1 $647 $390 $393 $551 reversed $536 $-1 #
coedge $-1 $390 $647 $542 $651 forward $536 $-1 #
vertex $-1 $391 $655 #
straight-curve $-1 -79.086886196478162 3.024265421645727 47.847778609999473 0 0 1 I I #
straight-curve $-1 -79.086886196478133 3.024265421645727 2.7233482896212706 -0.5877852410284794 0 -0.80901700255871778 I I #
edge $-1 $649 -18.237056613199282 $394 -3.024265421645727 $546 $656 forward 7 unknown #
point $-1 -79.086886196478162 3.024265421645727 12.527648238951583 #
point $-1 -71.963645534531267 3.024265421645727 12.527648238951583 #
edge $-1 $657 1 $657 0 $397 $-1 forward 7 unknown #
vertex $-1 $398 $658 #
ellipse-curve $-1 -72.530814127343575 6.0668236599564409 5.4499017921523949 -0.80901700255871778 0 0.5877852410284794 0.5877852410284794 0 0.80901700255871778 1 I I #
point $-1 -74.937480624476251 6.0668236599564409 8.4345152668451515 #
edge $-1 $659 1 $659 0 $401 $-1 forward 7 unknown #
vertex $-1 $402 $660 #
ellipse-curve $-1 -72.530814127343575 10.630661017422504 5.4499017921523949 -0.80901700255871778 0 0.5877852410284794 0.5877852410284794 0 0.80901700255871778 1 I I #
point $-1 -74.937480624476251 10.630661017422504 8.4345152668451515 #
edge $-1 $661 1 $661 0 $405 $-1 forward 7 unknown #
vertex $-1 $406 $662 #
ellipse-curve $-1 -72.530814127343575 15.194498374888568 5.4499017921523949 -0.80901700255871778 0 0.5877852410284794 0.5877852410284794 0 0.80901700255871778 1 I I #
point $-1 -74.937480624476251 15.194498374888568 8.4345152668451515 #
plane-surface $-1 79.086886196478162 0 0 -1 0 0 0 0 1 forward_v I I I I #
coedge $-1 $414 $412 $416 $571 reversed $281 $-1 #
edge $-1 $427 -12.527648238951583 $573 12.527648238951583 $426 $663 forward 7 unknown #
vertex $-1 $571 $664 #
straight-curve $-1 -79.086886196478162 -47.268455701176428 0 0 0 -1 I I #
edge $-1 $569 -47.268455701176428 $573 47.268455701176428 $567 $665 forward 7 unknown #
straight-curve $-1 0 -47.268455701176428 -12.527648238951583 -1 0 0 I I #
vertex $-1 $419 $666 #
straight-curve $-1 0 47.268455701176428 -12.527648238951583 1 0 0 I I #
point $-1 79.086886196478162 47.268455701176428 -12.527648238951583 #
point $-1 79.086886196478162 -47.268455701176428 -12.527648238951583 #
straight-curve $-1 -79.086886196478162 0 12.527648238951583 0 -1 0 I I #
point $-1 -79.086886196478162 47.268455701176428 12.527648238951583 #
point $-1 -79.086886196478162 -47.268455701176428 12.527648238951583 #
straight-curve $-1 79.086886196478162 -47.268455701176428 0 0 0 -1 I I #
straight-curve $-1 79.086886196478162 47.268455701176428 0 0 0 -1 I I #
loop $-1 $-1 $590 $436 #
plane-surface $-1 -79.086886196478162 0 0 1 0 0 0 0 -1 forward_v I I I I #
coedge $-1 $440 $439 $596 $667 forward $185 $-1 #
edge $-1 $444 35.860660770455183 $599 47.268455701176428 $443 $668 forward 7 unknown #
coedge $-1 $593 $590 $440 $587 reversed $582 $-1 #
edge $-1 $669 -47.268455701176428 $588 -35.860660770455183 $586 $670 forward 7 unknown #
vertex $-1 $591 $671 #
straight-curve $-1 0 -35.860660770455183 -12.527648238951583 1 0 0 I I #
coedge $-1 $586 $446 $442 $591 forward $582 $-1 #
edge $-1 $448 1.9126006865983234 $588 7.7142319304349476 $590 $672 forward 7 unknown #
point $-1 79.086886196478162 -35.860660770455183 -12.527648238951583 #
coedge $-1 $446 $586 $450 $597 reversed $582 $-1 #
straight-curve $-1 -79.086886196478162 -20.782279117907905 -6.7260169951149589 0 1 0 I I #
point $-1 -79.086886196478162 -35.860660770455183 -6.7260169951149589 #
coedge $-1 $451 $450 $584 $667 reversed $437 $-1 #
edge $-1 $452 6.7260169951149589 $669 12.527648238951583 $593 $673 forward 7 unknown #
point $-1 -79.086886196478162 -47.268455701176435 -6.7260169951149589 #
vertex $-1 $454 $674 #
straight-curve $-1 79.086886196478162 -47.268455701176428 0 0 0 -1 I I #
plane-surface $-1 0 47.268455701176428 0 0 -1 0 0 0 -1 forward_v I I I I #
coedge $-1 $675 $460 $464 $607 forward $316 $-1 #
coedge $-1 $460 $675 $475 $614 forward $316 $-1 #
vertex $-1 $462 $676 #
straight-curve $-1 0 35.860660770455198 -12.527648238951583 -1 0 0 I I #
coedge $-1 $464 $463 $470 $612 forward $458 $-1 #
edge $-1 $465 35.860660770455198 $677 47.268455701176428 $464 $678 forward 7 unknown #
point $-1 -79.086886196478162 35.860660770455198 -12.527648238951583 #
point $-1 -79.086886196478162 35.860660770455198 -6.7260169951149589 #
straight-curve $-1 -79.086886196478162 20.782279117907908 -6.7260169951149589 0 1 0 I I #
coedge $-1 $470 $469 $675 $679 reversed $471 $-1 #
edge $-1 $472 6.7260169951149589 $677 12.527648238951583 $470 $680 forward 7 unknown #
point $-1 -79.086886196478162 47.268455701176435 -6.7260169951149589 #
edge $-1 $616 -47.268455701176428 $604 -35.860660770455198 $475 $681 forward 7 unknown #
straight-curve $-1 79.086886196478162 35.860660770455198 -4.8134163085166355 0 0 -1 I I #
vertex $-1 $614 $682 #
straight-curve $-1 79.086886196478162 47.268455701176428 0 0 0 -1 I I #
coedge $-1 $491 $490 $483 $619 forward $480 $-1 #
edge $-1 $620 98.412517945386327 $623 110.57437799852289 $618 $683 forward 7 unknown #
vertex $-1 $495 $684 #
straight-curve $-1 23.977524706630071 -27.408539454701831 12.527648238951585 1 0 0 I I #
edge $-1 $623 -18.103977829903648 $492 -0.50514541969271853 $491 $685 forward 7 unknown #
vertex $-1 $622 $686 #
straight-curve $-1 -47.23630428656125 -27.408539454701831 95.557141885636426 -0.79863550430605224 0 0.6018150307709319 I I #
point $-1 62.947553112035223 -27.408539454701831 12.527648238951585 #
point $-1 79.086886196478162 -9.8097070444909011 0.36578818581502048 #
straight-curve $-1 79.086886196478162 0 12.527648238951583 0 1 0 I I #
vertex $-1 $498 $687 #
point $-1 69.99458322919007 -22.38030162321299 1.7663536268617861 #
vertex $-1 $502 $688 #
point $-1 69.99458322919007 -14.837944875979737 1.7663536268617861 #
edge $-1 $633 35.320130371047888 $636 45.124430320378238 $507 $689 forward 7 unknown #
vertex $-1 $521 $690 #
straight-curve $-1 -103.52607871061626 -17.623604157255897 12.527648238951585 -1 0 0 I I #
edge $-1 $636 5.0086042807395597 $518 20.221395472293118 $517 $691 forward 7 unknown #
vertex $-1 $635 $692 #
straight-curve $-1 -79.086886196478133 -17.623604157255897 2.7233482896212706 0.5877852410284794 0 0.80901700255871778 I I #
point $-1 -71.963645534531267 -17.623604157255897 12.527648238951583 #
point $-1 -79.086886196478162 -32.836395348809454 2.7233482896212315 #
straight-curve $-1 -79.086886196478162 0 12.527648238951583 0 -1 0 I I #
vertex $-1 $524 $693 #
point $-1 -71.943028886315105 -29.793837110498743 6.2589187947111125 #
vertex $-1 $528 $694 #
point $-1 -71.943028886315105 -25.229999753032679 6.2589187947111125 #
vertex $-1 $532 $695 #
point $-1 -71.943028886315105 -20.666162395566616 6.2589187947111125 #
coedge $-1 $547 $546 $539 $648 forward $536 $-1 #
edge $-1 $649 35.320130371047888 $652 45.124430320378238 $647 $696 forward 7 unknown #
vertex $-1 $551 $697 #
straight-curve $-1 -103.52607871061626 18.237056613199282 12.527648238951585 -1 0 0 I I #
edge $-1 $652 -12.92172610448803 $548 2.2910650870655251 $547 $698 forward 7 unknown #
vertex $-1 $651 $699 #
straight-curve $-1 -79.086886196478133 18.237056613199282 2.7233482896212706 0.5877852410284794 0 0.80901700255871778 I I #
point $-1 -71.963645534531267 18.237056613199282 12.527648238951583 #
point $-1 -79.086886196478162 3.024265421645727 2.7233482896212315 #
straight-curve $-1 -79.086886196478162 0 12.527648238951583 0 -1 0 I I #
vertex $-1 $554 $700 #
point $-1 -71.943028886315105 6.0668236599564409 6.2589187947111125 #
vertex $-1 $558 $701 #
point $-1 -71.943028886315105 10.630661017422504 6.2589187947111125 #
vertex $-1 $562 $702 #
point $-1 -71.943028886315105 15.194498374888568 6.2589187947111125 #
straight-curve $-1 -79.086886196478162 47.268455701176428 0 0 0 -1 I I #
point $-1 -79.086886196478162 -47.268455701176428 -12.527648238951583 #
straight-curve $-1 -79.086886196478162 0 -12.527648238951583 0 1 0 I I #
point $-1 -79.086886196478162 47.268455701176428 -12.527648238951583 #
edge $-1 $599 -79.086886196478162 $669 79.086886196478162 $596 $703 forward 7 unknown #
straight-curve $-1 79.086886196478162 0 -12.527648238951583 0 -1 0 I I #
vertex $-1 $587 $704 #
straight-curve $-1 -79.086886196478162 0 -12.527648238951583 0 1 0 I I #
point $-1 -79.086886196478162 -35.860660770455183 -12.527648238951583 #
straight-curve $-1 -79.086886196478162 -35.860660770455183 -4.8134163085166355 0 0 -1 I I #
straight-curve $-1 -79.086886196478162 -47.268455701176428 0 0 0 -1 I I #
point $-1 79.086886196478162 -47.268455701176428 -12.527648238951583 #
coedge $-1 $603 $602 $611 $679 forward $316 $-1 #
point $-1 79.086886196478162 35.860660770455198 -12.527648238951583 #
vertex $-1 $679 $705 #
straight-curve $-1 -79.086886196478162 0 -12.527648238951583 0 1 0 I I #
edge $-1 $677 -79.086886196478162 $616 79.086886196478162 $611 $706 forward 7 unknown #
straight-curve $-1 -79.086886196478162 47.268455701176428 0 0 0 -1 I I #
straight-curve $-1 79.086886196478162 0 -12.527648238951583 0 -1 0 I I #
point $-1 79.086886196478162 47.268455701176428 -12.527648238951583 #
straight-curve $-1 79.086886196478162 -27.408539454701831 110.94016618433791 0 0 -1 I I #
point $-1 79.086886196478162 -27.408539454701831 12.527648238951583 #
straight-curve $-1 79.086886196478162 -9.3045616247981826 0.36578818581502048 0 1 0 I I #
point $-1 79.086886196478162 -27.408539454701831 0.36578818581502048 #
point $-1 67.193682159036101 -22.38030162321299 1.3727126797915454 #
point $-1 67.193682159036101 -14.837944875979737 1.3727126797915454 #
straight-curve $-1 -79.086886196478162 -17.623604157255897 47.847778609999473 0 0 -1 I I #
point $-1 -79.086886196478162 -17.623604157255897 12.527648238951583 #
straight-curve $-1 -79.086886196478162 -12.614999876516338 2.7233482896212311 0 -1 0 I I #
point $-1 -79.086886196478162 -17.623604157255897 2.7233482896212315 #
point $-1 -71.721797124784871 -29.793837110498743 4.8621165511239157 #
point $-1 -71.721797124784871 -25.229999753032679 4.8621165511239157 #
point $-1 -71.721797124784871 -20.666162395566616 4.8621165511239157 #
straight-curve $-1 -79.086886196478162 18.237056613199282 47.847778609999473 0 0 -1 I I #
point $-1 -79.086886196478162 18.237056613199282 12.527648238951583 #
straight-curve $-1 -79.086886196478162 5.3153305087112521 2.7233482896212311 0 -1 0 I I #
point $-1 -79.086886196478162 18.237056613199282 2.7233482896212315 #
point $-1 -71.721797124784871 6.0668236599564409 4.8621165511239157 #
point $-1 -71.721797124784871 10.630661017422504 4.8621165511239157 #
point $-1 -71.721797124784871 15.194498374888568 4.8621165511239157 #
straight-curve $-1 0 -47.268455701176428 -12.527648238951583 -1 0 0 I I #
point $-1 -79.086886196478162 -47.268455701176428 -12.527648238951583 #
point $-1 -79.086886196478162 47.268455701176428 -12.527648238951583 #
straight-curve $-1 0 47.268455701176428 -12.527648238951583 1 0 0 I I #
End-of-ACIS-data 