500 0 9 0           
7 Unknown 11 ACIS 5.0 NT 24 Thu Mar 25 20:17:32 1999 
-1 9.9999999999999995e-007 1e-010 
body $-1 $9 $-1 $10 #
body $-1 $11 $-1 $12 #
body $-1 $13 $-1 $14 #
body $-1 $15 $-1 $16 #
body $-1 $17 $-1 $18 #
body $-1 $19 $-1 $20 #
body $-1 $21 $-1 $22 #
body $-1 $23 $-1 $24 #
body $-1 $25 $-1 $26 #
lump $-1 $-1 $27 $0 #
transform $-1 1 0 0 0 1 0 0 0 1 54.91988891262551 28.432234490744165 14.123185566733248 1 rotate no_reflect no_shear #
lump $-1 $-1 $28 $1 #
transform $-1 1 0 0 0 1 0 0 0 1 54.91988891262551 28.432234490744165 14.123185566733248 1 rotate no_reflect no_shear #
lump $-1 $-1 $29 $2 #
transform $-1 1 0 0 0 1 0 0 0 1 54.91988891262551 28.432234490744165 14.123185566733248 1 rotate no_reflect no_shear #
lump $-1 $-1 $30 $3 #
transform $-1 1 0 0 0 1 0 0 0 1 54.91988891262551 28.432234490744165 14.123185566733248 1 rotate no_reflect no_shear #
lump $-1 $-1 $31 $4 #
transform $-1 1 0 0 0 1 0 0 0 1 54.91988891262551 28.432234490744165 14.123185566733248 1 rotate no_reflect no_shear #
lump $-1 $-1 $32 $5 #
transform $-1 1 0 0 0 1 0 0 0 1 54.91988891262551 28.432234490744165 14.123185566733248 1 rotate no_reflect no_shear #
lump $-1 $-1 $33 $6 #
transform $-1 1 0 0 0 1 0 0 0 1 54.91988891262551 28.432234490744165 14.123185566733248 1 rotate no_reflect no_shear #
lump $-1 $-1 $34 $7 #
transform $-1 1 0 0 0 1 0 0 0 1 54.91988891262551 28.432234490744165 14.123185566733248 1 rotate no_reflect no_shear #
lump $-1 $-1 $35 $8 #
transform $-1 1 0 0 0 1 0 0 0 1 54.91988891262551 28.432234490744165 14.123185566733248 1 rotate no_reflect no_shear #
shell $-1 $-1 $-1 $36 $-1 $9 #
shell $-1 $-1 $-1 $37 $-1 $11 #
shell $-1 $-1 $-1 $38 $-1 $13 #
shell $-1 $-1 $-1 $39 $-1 $15 #
shell $-1 $-1 $-1 $40 $-1 $17 #
shell $-1 $-1 $-1 $41 $-1 $19 #
shell $-1 $-1 $-1 $42 $-1 $21 #
shell $-1 $-1 $-1 $43 $-1 $23 #
shell $-1 $-1 $-1 $44 $-1 $25 #
face $-1 $45 $46 $27 $-1 $47 reversed single #
face $-1 $48 $49 $28 $-1 $50 reversed single #
face $-1 $51 $52 $29 $-1 $53 forward single #
face $-1 $54 $55 $30 $-1 $56 reversed single #
face $-1 $57 $58 $31 $-1 $59 forward single #
face $-1 $60 $61 $32 $-1 $62 forward single #
face $-1 $63 $64 $33 $-1 $65 reversed single #
face $-1 $66 $67 $34 $-1 $68 forward single #
face $-1 $69 $70 $35 $-1 $71 forward single #
face $-1 $72 $73 $27 $-1 $74 forward single #
loop $-1 $-1 $75 $36 #
plane-surface $-1 54.91988891262551 0 0 -1 0 0 0 0 1 forward_v I I I I #
face $-1 $76 $77 $28 $-1 $78 reversed single #
loop $-1 $-1 $79 $37 #
plane-surface $-1 -47.015827227353405 0 10.538921321125153 0 0 1 1 0 0 forward_v I I I I #
face $-1 $80 $81 $29 $-1 $82 reversed single #
loop $-1 $-1 $83 $38 #
plane-surface $-1 54.91988891262551 0 0 -1 0 0 0 0 1 forward_v I I I I #
face $-1 $84 $85 $30 $-1 $86 reversed single #
loop $-1 $-1 $87 $39 #
plane-surface $-1 37.244033819128838 -120.5516242216397 60.620088474768629 -1 0 0 0 -0.83867057594974714 0.54463902268945019 forward_v I I I I #
face $-1 $88 $89 $31 $-1 $90 forward single #
loop $-1 $91 $92 $40 #
cone-surface $-1 30.60868384824316 -22.533889647028275 6.4397075211643093 0 0.83867057594974714 -0.54463902268945019 1 0 0 1 I I 0 1 1 forward I I I I #
face $-1 $93 $94 $32 $-1 $95 forward single #
loop $-1 $96 $97 $41 #
cone-surface $-1 34.589893830774571 -22.533889647028275 6.4397075211643093 0 0.83867057594974714 -0.54463902268945019 1 0 0 1 I I 0 1 1 forward I I I I #
face $-1 $98 $99 $33 $-1 $100 reversed single #
loop $-1 $-1 $101 $42 #
plane-surface $-1 -35.967657493090037 57.577454231399258 128.17077825574796 1 0 0 0 -0.6560590369687036 -0.75470957328743171 forward_v I I I I #
face $-1 $102 $103 $34 $-1 $104 forward single #
loop $-1 $105 $106 $43 #
cone-surface $-1 -30.925248822305704 22.597773746856344 8.4066677901752893 0 -0.6560590369687036 -0.75470957328743171 2 0 0 1 I I 0 1 2 forward I I I I #
face $-1 $107 $108 $35 $-1 $109 forward single #
loop $-1 $110 $111 $44 #
cone-surface $-1 -23.361635816129201 22.597773746856344 8.4066677901752893 0 -0.6560590369687036 -0.75470957328743171 2 0 0 1 I I 0 1 2 forward I I I I #
face $-1 $112 $113 $27 $-1 $114 reversed single #
loop $-1 $-1 $115 $45 #
plane-surface $-1 0 0 14.123185566733248 0 0 1 1 0 0 forward_v I I I I #
coedge $-1 $116 $117 $118 $119 reversed $46 $-1 #
face $-1 $120 $121 $28 $-1 $122 reversed single #
loop $-1 $-1 $123 $48 #
plane-surface $-1 -39.111765542081301 0 12.3310534439292 -1 0 0 0 0 1 forward_v I I I I #
coedge $-1 $124 $125 $126 $127 forward $49 $-1 #
face $-1 $128 $129 $29 $-1 $130 reversed single #
loop $-1 $-1 $131 $51 #
plane-surface $-1 0 -28.432234490744165 0 0 1 0 0 0 1 forward_v I I I I #
coedge $-1 $132 $133 $134 $135 forward $52 $-1 #
face $-1 $136 $137 $30 $-1 $138 reversed single #
loop $-1 $-1 $139 $54 #
plane-surface $-1 32.599288839508858 -28.432234490744165 0.79705922759757186 0 -0.83867057594974714 0.54463902268945019 1 0 0 forward_v I I I I #
coedge $-1 $140 $141 $142 $143 reversed $55 $-1 #
face $-1 $-1 $144 $31 $-1 $145 forward single #
loop $-1 $146 $147 $57 #
cone-surface $-1 30.60868384824316 -20.543253192387827 5.1469731338184843 0 0.83867057594974714 -0.54463902268945019 0.5 0 0 1 I I -0.70710678118654746 0.70710678118654746 0.5 forward I I I I #
loop $-1 $-1 $148 $40 #
coedge $-1 $92 $92 $149 $150 reversed $58 $-1 #
face $-1 $-1 $151 $32 $-1 $152 forward single #
loop $-1 $153 $154 $60 #
cone-surface $-1 34.589893830774571 -20.543253192387827 5.1469731338184843 0 0.83867057594974714 -0.54463902268945019 0.5 0 0 1 I I -0.70710678118654746 0.70710678118654746 0.5 forward I I I I #
loop $-1 $-1 $155 $41 #
coedge $-1 $97 $97 $156 $157 reversed $61 $-1 #
face $-1 $158 $159 $33 $-1 $160 reversed single #
loop $-1 $-1 $161 $63 #
plane-surface $-1 -27.143442319217453 -14.483924629491284 45.273646403266454 0 0.6560590369687036 0.75470957328743171 1 0 0 forward_v I I I I #
coedge $-1 $162 $163 $164 $165 reversed $64 $-1 #
face $-1 $-1 $166 $34 $-1 $167 forward single #
loop $-1 $168 $169 $66 #
cone-surface $-1 -30.925248822305704 19.648080900293024 5.0134344009292704 0 -0.6560590369687036 -0.75470957328743171 1 0 0 1 I I -0.70710678118654746 0.70710678118654746 1 forward I I I I #
loop $-1 $-1 $170 $43 #
coedge $-1 $106 $106 $171 $172 reversed $67 $-1 #
face $-1 $-1 $173 $35 $-1 $174 forward single #
loop $-1 $175 $176 $69 #
cone-surface $-1 -23.361635816129201 19.648080900293024 5.0134344009292704 0 -0.6560590369687036 -0.75470957328743171 1 0 0 1 I I -0.70710678118654746 0.70710678118654746 1 forward I I I I #
loop $-1 $-1 $177 $44 #
coedge $-1 $111 $111 $178 $179 reversed $70 $-1 #
face $-1 $180 $181 $27 $-1 $182 reversed single #
loop $-1 $-1 $118 $72 #
plane-surface $-1 0 0 -14.123185566733248 0 0 1 1 0 0 forward_v I I I I #
coedge $-1 $183 $184 $185 $186 forward $73 $-1 #
coedge $-1 $185 $75 $187 $188 reversed $46 $-1 #
coedge $-1 $75 $185 $189 $190 forward $46 $-1 #
coedge $-1 $191 $192 $75 $119 forward $113 $-1 #
edge $-1 $193 -28.432234490744165 $194 28.432234490744165 $75 $195 forward 7 unknown #
face $-1 $196 $197 $28 $-1 $198 reversed single #
loop $-1 $-1 $199 $76 #
plane-surface $-1 0 28.432234490744165 0 0 -1 0 0 0 -1 forward_v I I I I #
coedge $-1 $126 $200 $201 $202 reversed $77 $-1 #
coedge $-1 $203 $79 $204 $205 reversed $49 $-1 #
coedge $-1 $79 $203 $206 $207 reversed $49 $-1 #
coedge $-1 $208 $123 $79 $127 reversed $77 $-1 #
edge $-1 $209 -28.432234490744165 $210 28.432234490744165 $126 $211 forward 7 unknown #
face $-1 $212 $213 $29 $-1 $214 reversed single #
loop $-1 $-1 $215 $80 #
plane-surface $-1 0 0 -14.123185566733248 0 0 1 1 0 0 forward_v I I I I #
coedge $-1 $216 $217 $218 $219 forward $81 $-1 #
coedge $-1 $218 $83 $215 $220 reversed $52 $-1 #
coedge $-1 $83 $218 $221 $222 reversed $52 $-1 #
coedge $-1 $223 $224 $83 $135 reversed $213 $-1 #
edge $-1 $225 -14.123185566733248 $226 14.123185566733248 $134 $227 forward 7 unknown #
face $-1 $228 $229 $30 $-1 $230 forward single #
loop $-1 $-1 $231 $84 #
plane-surface $-1 27.954543859888879 -120.5516242216397 60.620088474768629 1 0 0 0 0.83867057594974714 -0.54463902268945019 forward_v I I I I #
coedge $-1 $232 $233 $234 $235 reversed $85 $-1 #
coedge $-1 $141 $87 $236 $237 reversed $55 $-1 #
coedge $-1 $87 $140 $232 $238 reversed $55 $-1 #
coedge $-1 $234 $239 $87 $143 forward $229 $-1 #
edge $-1 $240 31.843577620075685 $241 40.49766497417631 $142 $242 forward 7 unknown #
loop $-1 $-1 $149 $88 #
plane-surface $-1 32.599288839508858 -28.432234490744165 0.79705922759757186 0 -0.83867057594974714 0.54463902268945019 1 0 0 forward_v I I I I #
loop $-1 $-1 $243 $57 #
coedge $-1 $147 $147 $148 $244 reversed $89 $-1 #
coedge $-1 $148 $148 $147 $244 forward $91 $-1 #
coedge $-1 $149 $149 $92 $150 forward $144 $-1 #
edge $-1 $245 -7.4488910679604037e-016 $245 6.2831853071795996 $149 $246 forward 7 unknown #
loop $-1 $-1 $156 $93 #
plane-surface $-1 32.599288839508858 -28.432234490744165 0.79705922759757186 0 -0.83867057594974714 0.54463902268945019 1 0 0 forward_v I I I I #
loop $-1 $-1 $247 $60 #
coedge $-1 $154 $154 $155 $248 reversed $94 $-1 #
coedge $-1 $155 $155 $154 $248 forward $96 $-1 #
coedge $-1 $156 $156 $97 $157 forward $151 $-1 #
edge $-1 $249 -7.4488910679604037e-016 $249 6.2831853071795996 $156 $250 forward 7 unknown #
face $-1 $251 $252 $33 $-1 $253 reversed single #
loop $-1 $-1 $254 $98 #
plane-surface $-1 -18.319227145344868 57.577454231399258 128.17077825574796 -1 0 0 0 0.6560590369687036 0.75470957328743171 forward_v I I I I #
coedge $-1 $255 $256 $257 $258 reversed $99 $-1 #
coedge $-1 $163 $101 $259 $260 reversed $64 $-1 #
coedge $-1 $101 $162 $255 $261 reversed $64 $-1 #
coedge $-1 $257 $262 $101 $165 forward $263 $-1 #
edge $-1 $264 0.35649262495546452 $265 7.4381464935418649 $164 $266 forward 7 unknown #
loop $-1 $-1 $171 $102 #
plane-surface $-1 -27.143442319217453 -14.483924629491284 45.273646403266454 0 0.6560590369687036 0.75470957328743171 1 0 0 forward_v I I I I #
loop $-1 $-1 $267 $66 #
coedge $-1 $169 $169 $170 $268 reversed $103 $-1 #
coedge $-1 $170 $170 $169 $268 forward $105 $-1 #
coedge $-1 $171 $171 $106 $172 forward $166 $-1 #
edge $-1 $269 -1.7523855490027546e-016 $269 6.2831853071796004 $171 $270 forward 7 unknown #
loop $-1 $-1 $178 $107 #
plane-surface $-1 -27.143442319217453 -14.483924629491284 45.273646403266454 0 0.6560590369687036 0.75470957328743171 1 0 0 forward_v I I I I #
loop $-1 $-1 $271 $69 #
coedge $-1 $176 $176 $177 $272 reversed $108 $-1 #
coedge $-1 $177 $177 $176 $272 forward $110 $-1 #
coedge $-1 $178 $178 $111 $179 forward $173 $-1 #
edge $-1 $273 -1.7523855490027546e-016 $273 6.2831853071796004 $178 $274 forward 7 unknown #
face $-1 $275 $276 $27 $-1 $277 reversed single #
loop $-1 $-1 $278 $112 #
plane-surface $-1 0 -28.432234490744165 0 0 1 0 0 0 1 forward_v I I I I #
coedge $-1 $279 $115 $280 $281 forward $73 $-1 #
coedge $-1 $115 $279 $282 $283 forward $73 $-1 #
coedge $-1 $117 $116 $115 $186 reversed $46 $-1 #
edge $-1 $284 -28.432234490744165 $285 28.432234490744165 $185 $286 forward 7 unknown #
coedge $-1 $287 $280 $116 $188 forward $288 $-1 #
edge $-1 $285 -14.123185566733248 $193 14.123185566733248 $116 $289 forward 7 unknown #
coedge $-1 $282 $290 $117 $190 reversed $181 $-1 #
edge $-1 $284 -14.123185566733248 $194 14.123185566733248 $117 $291 forward 7 unknown #
coedge $-1 $292 $118 $290 $293 forward $113 $-1 #
coedge $-1 $118 $292 $287 $294 forward $113 $-1 #
vertex $-1 $119 $295 #
vertex $-1 $190 $296 #
straight-curve $-1 54.91988891262551 0 -14.123185566733248 0 -1 0 I I #
face $-1 $297 $298 $28 $-1 $299 forward single #
loop $-1 $-1 $300 $120 #
plane-surface $-1 -54.91988891262551 0 0 1 0 0 0 0 -1 forward_v I I I I #
coedge $-1 $206 $301 $208 $302 forward $121 $-1 #
coedge $-1 $123 $208 $303 $304 reversed $77 $-1 #
coedge $-1 $305 $204 $123 $202 forward $306 $-1 #
edge $-1 $210 4.3733945991605534 $307 7.9576588447686465 $201 $308 forward 7 unknown #
coedge $-1 $125 $124 $300 $309 reversed $49 $-1 #
coedge $-1 $201 $310 $124 $205 forward $306 $-1 #
edge $-1 $311 -31.411975298948807 $210 -15.603851928404598 $204 $312 forward 7 unknown #
coedge $-1 $313 $199 $125 $207 forward $121 $-1 #
edge $-1 $209 15.603851928404598 $314 31.411975298948807 $206 $315 forward 7 unknown #
coedge $-1 $200 $126 $199 $302 reversed $77 $-1 #
vertex $-1 $207 $316 #
vertex $-1 $205 $317 #
straight-curve $-1 -39.111765542081301 0 10.538921321125153 0 -1 0 I I #
face $-1 $318 $319 $29 $-1 $320 reversed single #
loop $-1 $-1 $321 $128 #
plane-surface $-1 61.592612429652149 -20.896391972001197 0 0 -1 0 0 0 -1 forward_v I I I I #
coedge $-1 $322 $323 $132 $220 forward $129 $-1 #
coedge $-1 $324 $131 $323 $325 reversed $81 $-1 #
coedge $-1 $131 $324 $326 $327 reversed $81 $-1 #
coedge $-1 $133 $132 $131 $219 reversed $52 $-1 #
edge $-1 $328 -14.123185566733248 $329 14.123185566733248 $131 $330 forward 7 unknown #
edge $-1 $329 -28.432234490744165 $226 -20.896391972001197 $215 $331 forward 7 unknown #
coedge $-1 $326 $332 $133 $222 forward $333 $-1 #
edge $-1 $225 20.896391972001197 $328 28.432234490744165 $221 $334 forward 7 unknown #
coedge $-1 $321 $134 $332 $335 reversed $213 $-1 #
coedge $-1 $134 $321 $322 $336 reversed $213 $-1 #
vertex $-1 $222 $337 #
vertex $-1 $336 $338 #
straight-curve $-1 54.91988891262551 -20.896391972001197 0 0 0 -1 I I #
face $-1 $-1 $339 $30 $-1 $340 reversed single #
loop $-1 $-1 $142 $136 #
plane-surface $-1 0 0 14.123185566733248 0 0 1 1 0 0 forward_v I I I I #
coedge $-1 $341 $342 $343 $344 reversed $137 $-1 #
coedge $-1 $345 $139 $141 $238 forward $85 $-1 #
coedge $-1 $139 $345 $341 $346 forward $85 $-1 #
coedge $-1 $343 $142 $139 $235 forward $229 $-1 #
edge $-1 $241 -20.944389399374408 $347 -11.65489944013445 $234 $348 forward 7 unknown #
coedge $-1 $349 $350 $140 $237 forward $339 $-1 #
edge $-1 $351 -29.512985009786743 $240 -16.186858670651066 $236 $352 forward 7 unknown #
edge $-1 $241 -15.889583730828509 $351 0 $141 $353 forward 7 unknown #
coedge $-1 $142 $343 $349 $354 forward $229 $-1 #
vertex $-1 $143 $355 #
vertex $-1 $143 $356 #
straight-curve $-1 37.244033819128838 -60.275812110819849 14.123185566733248 0 1 0 I I #
coedge $-1 $243 $243 $-1 $357 reversed $146 $-1 #
edge $-1 $358 0 $358 6.2831853071796004 $147 $359 forward 7 unknown #
vertex $-1 $150 $360 #
ellipse-curve $-1 30.60868384824316 -24.105190813693852 7.46012239716541 0 -0.83867057594974714 0.54463902268945019 1 0 0 1 I I #
coedge $-1 $247 $247 $-1 $361 reversed $153 $-1 #
edge $-1 $362 0 $362 6.2831853071796004 $154 $363 forward 7 unknown #
vertex $-1 $157 $364 #
ellipse-curve $-1 34.589893830774571 -24.105190813693852 7.46012239716541 0 -0.83867057594974714 0.54463902268945019 1 0 0 1 I I #
face $-1 $-1 $263 $33 $-1 $365 forward single #
loop $-1 $-1 $366 $158 #
plane-surface $-1 0 28.432234490744165 0 0 -1 0 0 0 -1 forward_v I I I I #
coedge $-1 $367 $368 $369 $370 reversed $159 $-1 #
coedge $-1 $371 $161 $163 $261 forward $99 $-1 #
coedge $-1 $161 $371 $367 $372 forward $99 $-1 #
coedge $-1 $369 $164 $161 $258 forward $263 $-1 #
edge $-1 $265 -22.395936333481309 $373 -4.7475059857361419 $257 $374 forward 7 unknown #
coedge $-1 $375 $376 $162 $260 forward $252 $-1 #
edge $-1 $377 -56.118191482339476 $264 -49.962203561140733 $259 $378 forward 7 unknown #
edge $-1 $265 47.481185504985575 $377 56.864468981488329 $163 $379 forward 7 unknown #
coedge $-1 $164 $369 $375 $380 forward $263 $-1 #
loop $-1 $-1 $369 $251 #
vertex $-1 $260 $381 #
vertex $-1 $165 $382 #
straight-curve $-1 -35.967657493090037 28.788727115699629 14.123185566733248 0 -1 0 I I #
coedge $-1 $267 $267 $-1 $383 reversed $168 $-1 #
edge $-1 $384 0 $384 6.2831853071796004 $169 $385 forward 7 unknown #
vertex $-1 $172 $386 #
ellipse-curve $-1 -30.925248822305704 24.891407556450964 11.04519160613388 0 0.6560590369687036 0.75470957328743171 2 0 0 1 I I #
coedge $-1 $271 $271 $-1 $387 reversed $175 $-1 #
edge $-1 $388 0 $388 6.2831853071796004 $176 $389 forward 7 unknown #
vertex $-1 $179 $390 #
ellipse-curve $-1 -23.361635816129201 24.891407556450964 11.04519160613388 0 0.6560590369687036 0.75470957328743171 2 0 0 1 I I #
face $-1 $-1 $288 $27 $-1 $391 reversed single #
loop $-1 $-1 $392 $180 #
plane-surface $-1 -54.91988891262551 0 0 1 0 0 0 0 -1 forward_v I I I I #
coedge $-1 $290 $282 $393 $394 forward $181 $-1 #
coedge $-1 $184 $183 $395 $396 forward $73 $-1 #
coedge $-1 $187 $397 $183 $281 reversed $288 $-1 #
edge $-1 $285 -54.91988891262551 $398 54.91988891262551 $280 $399 forward 7 unknown #
coedge $-1 $278 $189 $184 $283 reversed $181 $-1 #
edge $-1 $400 -54.91988891262551 $284 54.91988891262551 $282 $401 forward 7 unknown #
vertex $-1 $186 $402 #
vertex $-1 $186 $403 #
straight-curve $-1 54.91988891262551 0 14.123185566733248 0 1 0 I I #
coedge $-1 $397 $187 $192 $294 reversed $288 $-1 #
loop $-1 $-1 $187 $275 #
straight-curve $-1 54.91988891262551 28.432234490744165 0 0 0 -1 I I #
coedge $-1 $189 $278 $191 $293 reversed $181 $-1 #
straight-curve $-1 54.91988891262551 -28.432234490744165 0 0 0 -1 I I #
coedge $-1 $192 $191 $404 $405 forward $113 $-1 #
edge $-1 $194 -54.91988891262551 $406 54.91988891262551 $290 $407 forward 7 unknown #
edge $-1 $408 -54.91988891262551 $193 54.91988891262551 $287 $409 forward 7 unknown #
point $-1 54.91988891262551 28.432234490744165 -14.123185566733248 #
point $-1 54.91988891262551 -28.432234490744165 -14.123185566733248 #
face $-1 $-1 $306 $28 $-1 $410 reversed single #
loop $-1 $-1 $303 $196 #
plane-surface $-1 0 0 14.123185566733248 0 0 1 1 0 0 forward_v I I I I #
coedge $-1 $411 $412 $203 $309 forward $197 $-1 #
coedge $-1 $199 $313 $413 $414 reversed $121 $-1 #
edge $-1 $415 -7.9576588447686465 $209 -4.3733945991605534 $199 $416 forward 7 unknown #
coedge $-1 $413 $417 $200 $304 forward $298 $-1 #
edge $-1 $307 -28.432234490744165 $415 28.432234490744165 $303 $418 forward 7 unknown #
coedge $-1 $310 $201 $417 $419 reversed $306 $-1 #
loop $-1 $-1 $201 $297 #
vertex $-1 $202 $420 #
straight-curve $-1 -39.111765542081301 -28.432234490744165 6.1655267219645999 0 0 1 I I #
edge $-1 $314 -28.432234490744165 $311 28.432234490744165 $300 $421 forward 7 unknown #
coedge $-1 $204 $305 $411 $422 forward $306 $-1 #
vertex $-1 $309 $423 #
straight-curve $-1 -23.507913613676703 -28.432234490744165 10.538921321125153 1 0 0 I I #
coedge $-1 $301 $206 $412 $424 reversed $121 $-1 #
vertex $-1 $309 $425 #
straight-curve $-1 -23.507913613676703 28.432234490744165 10.538921321125153 -1 0 0 I I #
point $-1 -39.111765542081301 28.432234490744165 10.538921321125153 #
point $-1 -39.111765542081301 -28.432234490744165 10.538921321125153 #
face $-1 $-1 $333 $29 $-1 $426 forward single #
loop $-1 $-1 $427 $212 #
plane-surface $-1 68.265335946678789 -24.664313231372681 0 -1 0 0 0 0 1 forward_v I I I I #
coedge $-1 $224 $223 $428 $429 forward $213 $-1 #
coedge $-1 $430 $215 $224 $336 forward $129 $-1 #
coedge $-1 $215 $430 $216 $325 forward $129 $-1 #
coedge $-1 $217 $216 $427 $431 reversed $81 $-1 #
edge $-1 $432 -6.6727235170266397 $329 6.6727235170266397 $216 $433 forward 7 unknown #
coedge $-1 $434 $221 $217 $327 forward $333 $-1 #
edge $-1 $328 -6.6727235170266397 $435 6.6727235170266397 $217 $436 forward 7 unknown #
vertex $-1 $327 $437 #
vertex $-1 $220 $438 #
straight-curve $-1 54.91988891262551 -28.432234490744165 0 0 0 -1 I I #
straight-curve $-1 54.91988891262551 0 -14.123185566733248 0 1 0 I I #
coedge $-1 $221 $434 $223 $335 forward $333 $-1 #
loop $-1 $-1 $221 $318 #
straight-curve $-1 54.91988891262551 0 14.123185566733248 0 -1 0 I I #
edge $-1 $439 -6.6727235170266397 $225 6.6727235170266397 $223 $440 forward 7 unknown #
edge $-1 $226 -6.6727235170266397 $441 6.6727235170266397 $224 $442 forward 7 unknown #
point $-1 54.91988891262551 -20.896391972001197 14.123185566733248 #
point $-1 54.91988891262551 -20.896391972001197 -14.123185566733248 #
loop $-1 $-1 $236 $228 #
plane-surface $-1 0 -28.432234490744165 0 0 1 0 0 0 1 forward_v I I I I #
coedge $-1 $342 $231 $233 $346 reversed $137 $-1 #
coedge $-1 $231 $341 $443 $444 reversed $137 $-1 #
coedge $-1 $239 $234 $231 $344 forward $229 $-1 #
edge $-1 $347 -40.49766497417631 $445 -31.843577620075685 $343 $446 forward 7 unknown #
coedge $-1 $233 $232 $350 $447 reversed $85 $-1 #
edge $-1 $448 0 $347 15.889583730828509 $341 $449 forward 7 unknown #
vertex $-1 $235 $450 #
straight-curve $-1 16.299644419754429 -19.77814713664354 14.123185566733248 -1 0 0 I I #
coedge $-1 $443 $236 $239 $354 reversed $339 $-1 #
coedge $-1 $236 $443 $345 $447 forward $339 $-1 #
vertex $-1 $237 $451 #
straight-curve $-1 37.244033819128838 -28.432234490744165 30.310044237384314 0 0 1 I I #
straight-curve $-1 37.244033819128838 -28.432234490744165 0.79705922759757186 0 -0.54463902268945019 -0.83867057594974714 I I #
edge $-1 $445 -33.63806856976327 $240 -24.348578610523312 $349 $452 forward 7 unknown #
point $-1 37.244033819128838 -28.432234490744165 14.123185566733248 #
point $-1 37.244033819128838 -19.77814713664354 14.123185566733248 #
edge $-1 $453 1 $453 0 $243 $-1 forward 7 unknown #
vertex $-1 $244 $454 #
ellipse-curve $-1 30.60868384824316 -20.962588480362701 5.4192926451632095 0 -0.83867057594974714 0.54463902268945019 1 0 0 1 I I #
point $-1 31.60868384824316 -24.105190813693852 7.4601223971654091 #
edge $-1 $455 1 $455 0 $247 $-1 forward 7 unknown #
vertex $-1 $248 $456 #
ellipse-curve $-1 34.589893830774571 -20.962588480362701 5.4192926451632095 0 -0.83867057594974714 0.54463902268945019 1 0 0 1 I I #
point $-1 35.589893830774571 -24.105190813693852 7.4601223971654091 #
plane-surface $-1 0 0 14.123185566733248 0 0 1 1 0 0 forward_v I I I I #
coedge $-1 $376 $375 $368 $457 forward $252 $-1 #
coedge $-1 $368 $254 $256 $372 reversed $159 $-1 #
coedge $-1 $254 $367 $366 $457 reversed $159 $-1 #
coedge $-1 $262 $257 $254 $370 forward $263 $-1 #
edge $-1 $373 -7.4381464935418649 $458 -0.35649262495546452 $369 $459 forward 7 unknown #
coedge $-1 $256 $255 $376 $460 reversed $99 $-1 #
edge $-1 $461 -56.864468981488329 $373 -47.481185504985575 $367 $462 forward 7 unknown #
vertex $-1 $258 $463 #
straight-curve $-1 -13.571721159608726 21.350580622157768 14.123185566733248 1 0 0 I I #
coedge $-1 $366 $259 $262 $380 reversed $252 $-1 #
coedge $-1 $259 $366 $371 $460 forward $252 $-1 #
vertex $-1 $260 $464 #
straight-curve $-1 -35.967657493090037 28.432234490744165 64.085389127873981 0 0 1 I I #
straight-curve $-1 -35.967657493090037 -14.483924629491284 45.273646403266454 0 0.75470957328743171 -0.6560590369687036 I I #
edge $-1 $458 18.319227145344868 $264 35.967657493090037 $375 $465 forward 7 unknown #
point $-1 -35.967657493090037 28.432234490744165 14.123185566733248 #
point $-1 -35.967657493090037 21.350580622157764 14.123185566733248 #
edge $-1 $466 1 $466 0 $267 $-1 forward 7 unknown #
vertex $-1 $268 $467 #
ellipse-curve $-1 -30.925248822305704 20.304139937261727 5.7681439742167022 0 0.6560590369687036 0.75470957328743171 2 0 0 1 I I #
point $-1 -28.925248822305704 24.891407556450961 11.045191606133876 #
edge $-1 $468 1 $468 0 $271 $-1 forward 7 unknown #
vertex $-1 $272 $469 #
ellipse-curve $-1 -23.361635816129201 20.304139937261727 5.7681439742167022 0 0.6560590369687036 0.75470957328743171 2 0 0 1 I I #
point $-1 -21.361635816129201 24.891407556450961 11.045191606133876 #
plane-surface $-1 0 28.432234490744165 0 0 -1 0 0 0 -1 forward_v I I I I #
coedge $-1 $404 $395 $397 $470 forward $276 $-1 #
coedge $-1 $395 $404 $278 $394 reversed $276 $-1 #
edge $-1 $400 -14.123185566733248 $406 14.123185566733248 $393 $471 forward 7 unknown #
coedge $-1 $392 $393 $279 $396 reversed $276 $-1 #
edge $-1 $398 -28.432234490744165 $400 28.432234490744165 $395 $472 forward 7 unknown #
coedge $-1 $280 $287 $392 $470 reversed $288 $-1 #
vertex $-1 $281 $473 #
straight-curve $-1 0 28.432234490744165 14.123185566733248 -1 0 0 I I #
vertex $-1 $396 $474 #
straight-curve $-1 0 -28.432234490744165 14.123185566733248 1 0 0 I I #
point $-1 54.91988891262551 -28.432234490744165 14.123185566733248 #
point $-1 54.91988891262551 28.432234490744165 14.123185566733248 #
coedge $-1 $393 $392 $292 $405 reversed $276 $-1 #
edge $-1 $406 -28.432234490744165 $408 28.432234490744165 $404 $475 forward 7 unknown #
vertex $-1 $405 $476 #
straight-curve $-1 0 -28.432234490744165 -14.123185566733248 -1 0 0 I I #
vertex $-1 $294 $477 #
straight-curve $-1 0 28.432234490744165 -14.123185566733248 1 0 0 I I #
plane-surface $-1 0 -28.432234490744165 0 0 1 0 0 0 1 forward_v I I I I #
coedge $-1 $478 $300 $310 $422 reversed $197 $-1 #
coedge $-1 $300 $478 $313 $424 forward $197 $-1 #
coedge $-1 $479 $303 $301 $414 forward $298 $-1 #
edge $-1 $415 39.111765542081301 $480 54.91988891262551 $301 $481 forward 7 unknown #
vertex $-1 $414 $482 #
straight-curve $-1 -39.111765542081301 28.432234490744165 6.1655267219645999 0 0 -1 I I #
coedge $-1 $303 $479 $305 $419 forward $298 $-1 #
straight-curve $-1 -39.111765542081301 0 14.123185566733248 0 1 0 I I #
edge $-1 $483 -54.91988891262551 $307 -39.111765542081301 $305 $484 forward 7 unknown #
point $-1 -39.111765542081301 -28.432234490744165 14.123185566733246 #
straight-curve $-1 -54.91988891262551 0 10.538921321125153 0 -1 0 I I #
edge $-1 $483 -14.123185566733248 $311 -10.538921321125153 $411 $485 forward 7 unknown #
point $-1 -54.91988891262551 -28.432234490744165 10.538921321125153 #
edge $-1 $480 -14.123185566733248 $314 -10.538921321125153 $313 $486 forward 7 unknown #
point $-1 -54.91988891262551 28.432234490744165 10.538921321125153 #
plane-surface $-1 0 0 14.123185566733248 0 0 1 1 0 0 forward_v I I I I #
coedge $-1 $487 $488 $324 $431 forward $319 $-1 #
coedge $-1 $488 $487 $321 $429 reversed $319 $-1 #
edge $-1 $439 -14.123185566733248 $441 14.123185566733248 $428 $489 forward 7 unknown #
coedge $-1 $323 $322 $487 $490 forward $129 $-1 #
edge $-1 $435 -14.123185566733248 $432 14.123185566733248 $427 $491 forward 7 unknown #
vertex $-1 $431 $492 #
straight-curve $-1 61.592612429652149 -28.432234490744165 -14.123185566733248 -1 0 0 I I #
coedge $-1 $332 $326 $488 $493 forward $333 $-1 #
vertex $-1 $493 $494 #
straight-curve $-1 61.592612429652149 -28.432234490744165 14.123185566733248 1 0 0 I I #
point $-1 54.91988891262551 -28.432234490744165 14.123185566733248 #
point $-1 54.91988891262551 -28.432234490744165 -14.123185566733248 #
vertex $-1 $493 $495 #
straight-curve $-1 61.592612429652149 -20.896391972001197 14.123185566733248 -1 0 0 I I #
vertex $-1 $490 $496 #
straight-curve $-1 61.592612429652149 -20.896391972001197 -14.123185566733248 1 0 0 I I #
coedge $-1 $350 $349 $342 $444 forward $339 $-1 #
edge $-1 $445 16.186858670651066 $448 29.512985009786743 $443 $497 forward 7 unknown #
vertex $-1 $354 $498 #
straight-curve $-1 27.954543859888879 -60.275812110819849 14.123185566733248 0 -1 0 I I #
edge $-1 $448 11.65489944013445 $351 20.944389399374408 $350 $499 forward 7 unknown #
vertex $-1 $447 $500 #
straight-curve $-1 27.954543859888879 -28.432234490744165 0.79705922759757186 0 0.54463902268945019 0.83867057594974714 I I #
point $-1 27.954543859888879 -19.77814713664354 14.123185566733248 #
point $-1 37.244033819128838 -28.432234490744165 0.79705922759757186 #
straight-curve $-1 61.592612429652149 -28.432234490744165 14.123185566733248 1 0 0 I I #
vertex $-1 $357 $501 #
point $-1 31.60868384824316 -20.962588480362701 5.4192926451632095 #
vertex $-1 $361 $502 #
point $-1 35.589893830774571 -20.962588480362701 5.4192926451632095 #
edge $-1 $458 49.962203561140733 $461 56.118191482339476 $366 $503 forward 7 unknown #
vertex $-1 $380 $504 #
straight-curve $-1 -18.319227145344868 28.788727115699629 14.123185566733248 0 1 0 I I #
edge $-1 $461 4.7475059857361419 $377 22.395936333481309 $376 $505 forward 7 unknown #
vertex $-1 $460 $506 #
straight-curve $-1 -18.319227145344868 -14.483924629491284 45.273646403266454 0 -0.75470957328743171 0.6560590369687036 I I #
point $-1 -18.319227145344868 21.350580622157764 14.123185566733248 #
point $-1 -35.967657493090037 28.432234490744165 7.9671976455345046 #
straight-curve $-1 0 28.432234490744165 14.123185566733248 -1 0 0 I I #
vertex $-1 $383 $507 #
point $-1 -28.925248822305704 20.304139937261727 5.7681439742167022 #
vertex $-1 $387 $508 #
point $-1 -21.361635816129201 20.304139937261727 5.7681439742167022 #
edge $-1 $398 -14.123185566733248 $408 14.123185566733248 $397 $509 forward 7 unknown #
straight-curve $-1 -54.91988891262551 -28.432234490744165 0 0 0 -1 I I #
straight-curve $-1 -54.91988891262551 0 14.123185566733248 0 -1 0 I I #
point $-1 -54.91988891262551 28.432234490744165 14.123185566733248 #
point $-1 -54.91988891262551 -28.432234490744165 14.123185566733248 #
straight-curve $-1 -54.91988891262551 0 -14.123185566733248 0 1 0 I I #
point $-1 -54.91988891262551 -28.432234490744165 -14.123185566733248 #
point $-1 -54.91988891262551 28.432234490744165 -14.123185566733248 #
coedge $-1 $412 $411 $479 $510 reversed $197 $-1 #
coedge $-1 $417 $413 $478 $510 forward $298 $-1 #
vertex $-1 $414 $511 #
straight-curve $-1 0 28.432234490744165 14.123185566733248 -1 0 0 I I #
point $-1 -39.111765542081301 28.432234490744165 14.123185566733246 #
vertex $-1 $510 $512 #
straight-curve $-1 0 -28.432234490744165 14.123185566733248 1 0 0 I I #
straight-curve $-1 -54.91988891262551 -28.432234490744165 0 0 0 -1 I I #
straight-curve $-1 -54.91988891262551 28.432234490744165 0 0 0 -1 I I #
coedge $-1 $428 $427 $430 $490 reversed $319 $-1 #
coedge $-1 $427 $428 $434 $493 reversed $319 $-1 #
straight-curve $-1 68.265335946678789 -20.896391972001197 0 0 0 -1 I I #
edge $-1 $441 -3.7679212593714837 $432 3.7679212593714837 $487 $513 forward 7 unknown #
straight-curve $-1 68.265335946678789 -28.432234490744165 0 0 0 -1 I I #
point $-1 68.265335946678789 -28.432234490744165 -14.123185566733248 #
edge $-1 $435 -3.7679212593714837 $439 3.7679212593714837 $488 $514 forward 7 unknown #
point $-1 68.265335946678789 -28.432234490744165 14.123185566733248 #
point $-1 68.265335946678789 -20.896391972001197 14.123185566733248 #
point $-1 68.265335946678789 -20.896391972001197 -14.123185566733248 #
straight-curve $-1 27.954543859888879 -28.432234490744165 30.310044237384314 0 0 -1 I I #
point $-1 27.954543859888879 -28.432234490744165 14.123185566733248 #
straight-curve $-1 16.299644419754429 -28.432234490744165 0.79705922759756975 1 0 0 I I #
point $-1 27.954543859888879 -28.432234490744165 0.79705922759757186 #
point $-1 30.60868384824316 -20.123917904412952 4.8746536224737591 #
point $-1 34.589893830774571 -20.123917904412952 4.8746536224737591 #
straight-curve $-1 -18.319227145344868 28.432234490744165 64.085389127873981 0 0 -1 I I #
point $-1 -18.319227145344868 28.432234490744165 14.123185566733248 #
straight-curve $-1 -13.571721159608726 28.432234490744165 7.9671976455345117 -1 0 0 I I #
point $-1 -18.319227145344868 28.432234490744165 7.9671976455345046 #
point $-1 -30.925248822305704 18.992021863324322 4.2587248276418386 #
point $-1 -23.361635816129201 18.992021863324322 4.2587248276418386 #
straight-curve $-1 -54.91988891262551 28.432234490744165 0 0 0 -1 I I #
edge $-1 $480 -28.432234490744165 $483 28.432234490744165 $478 $515 forward 7 unknown #
point $-1 -54.91988891262551 28.432234490744165 14.123185566733248 #
point $-1 -54.91988891262551 -28.432234490744165 14.123185566733248 #
straight-curve $-1 68.265335946678789 -24.664313231372681 -14.123185566733248 0 -1 0 I I #
straight-curve $-1 68.265335946678789 -24.664313231372681 14.123185566733248 0 1 0 I I #
straight-curve $-1 -54.91988891262551 0 14.123185566733248 0 -1 0 I I #
End-of-ACIS-data 