500 0 3 0           
7 Unknown 11 ACIS 5.0 NT 24 Fri Mar 26 20:34:36 1999 
-1 9.9999999999999995e-007 1e-010 
body $-1 $3 $-1 $4 #
body $-1 $5 $-1 $6 #
body $-1 $7 $-1 $8 #
lump $-1 $-1 $9 $0 #
transform $-1 1 0 0 0 1 0 0 0 1 76.779686880092783 31.808493101592564 8.8202144938831761 1 rotate no_reflect no_shear #
lump $-1 $-1 $10 $1 #
transform $-1 1 0 0 0 1 0 0 0 1 76.779686880092783 31.808493101592564 8.8202144938831761 1 rotate no_reflect no_shear #
lump $-1 $-1 $11 $2 #
transform $-1 1 0 0 0 1 0 0 0 1 76.779686880092783 31.808493101592564 8.8202144938831761 1 rotate no_reflect no_shear #
shell $-1 $-1 $-1 $12 $-1 $3 #
shell $-1 $-1 $-1 $13 $-1 $5 #
shell $-1 $-1 $-1 $14 $-1 $7 #
face $-1 $15 $16 $9 $-1 $17 forward single #
face $-1 $18 $19 $10 $-1 $20 forward single #
face $-1 $21 $22 $11 $-1 $23 forward single #
face $-1 $24 $25 $9 $-1 $26 reversed single #
loop $-1 $-1 $27 $12 #
plane-surface $-1 0 0 8.8202144938831761 0 0 1 1 0 0 forward_v I I I I #
face $-1 $28 $29 $10 $-1 $30 reversed single #
loop $-1 $-1 $31 $13 #
plane-surface $-1 -76.779686880092783 0 0 1 0 0 0 0 -1 forward_v I I I I #
face $-1 $32 $33 $11 $-1 $34 reversed single #
loop $-1 $-1 $35 $14 #
plane-surface $-1 76.779686880092783 0 0 -1 0 0 0 0 1 forward_v I I I I #
face $-1 $36 $37 $9 $-1 $38 reversed single #
loop $-1 $-1 $39 $15 #
plane-surface $-1 0 0 -8.8202144938831761 0 0 1 1 0 0 forward_v I I I I #
coedge $-1 $40 $41 $42 $43 forward $16 $-1 #
face $-1 $44 $45 $10 $-1 $46 forward single #
loop $-1 $-1 $47 $18 #
plane-surface $-1 0 31.808493101592564 0 0 -1 0 0 0 -1 forward_v I I I I #
coedge $-1 $48 $49 $50 $51 forward $19 $-1 #
face $-1 $52 $53 $11 $-1 $54 forward single #
loop $-1 $-1 $55 $21 #
plane-surface $-1 0 31.808493101592564 0 0 -1 0 0 0 -1 forward_v I I I I #
coedge $-1 $56 $57 $58 $59 forward $22 $-1 #
face $-1 $60 $61 $9 $-1 $62 reversed single #
loop $-1 $-1 $63 $24 #
plane-surface $-1 0 -31.808493101592564 0 0 1 0 0 0 1 forward_v I I I I #
coedge $-1 $64 $65 $66 $67 forward $25 $-1 #
coedge $-1 $68 $27 $69 $70 forward $16 $-1 #
coedge $-1 $27 $68 $71 $72 forward $16 $-1 #
coedge $-1 $73 $74 $27 $43 reversed $75 $-1 #
edge $-1 $76 -31.808493101592564 $77 31.808493101592564 $42 $78 forward 7 unknown #
face $-1 $79 $80 $10 $-1 $81 reversed single #
loop $-1 $-1 $50 $28 #
plane-surface $-1 -81.471652295207988 0 -4.3313183195951854 0 0 1 1 0 0 forward_v I I I I #
coedge $-1 $82 $83 $49 $84 forward $29 $-1 #
coedge $-1 $85 $31 $86 $87 reversed $19 $-1 #
coedge $-1 $31 $85 $47 $84 reversed $19 $-1 #
coedge $-1 $88 $89 $31 $51 reversed $45 $-1 #
edge $-1 $90 -31.808493101592564 $91 31.808493101592564 $50 $92 forward 7 unknown #
face $-1 $93 $94 $11 $-1 $95 reversed single #
loop $-1 $-1 $96 $32 #
plane-surface $-1 81.471652295207974 0 -4.3313183195951854 0 0 1 1 0 0 forward_v I I I I #
coedge $-1 $97 $98 $56 $99 forward $33 $-1 #
coedge $-1 $100 $35 $55 $99 reversed $22 $-1 #
coedge $-1 $35 $100 $101 $102 reversed $22 $-1 #
coedge $-1 $103 $104 $35 $59 reversed $53 $-1 #
edge $-1 $105 -31.808493101592564 $106 31.808493101592564 $58 $107 forward 7 unknown #
face $-1 $108 $109 $9 $-1 $110 reversed single #
loop $-1 $-1 $111 $36 #
plane-surface $-1 -76.779686880092783 0 0 1 0 0 0 0 -1 forward_v I I I I #
coedge $-1 $112 $71 $111 $113 forward $37 $-1 #
coedge $-1 $114 $39 $112 $115 forward $25 $-1 #
coedge $-1 $39 $114 $116 $117 forward $25 $-1 #
coedge $-1 $74 $73 $39 $67 reversed $75 $-1 #
edge $-1 $118 -31.808493101592564 $119 31.808493101592564 $66 $120 forward 7 unknown #
coedge $-1 $41 $40 $121 $122 forward $16 $-1 #
coedge $-1 $123 $124 $40 $70 reversed $109 $-1 #
edge $-1 $77 -76.779686880092783 $125 76.779686880092783 $69 $126 forward 7 unknown #
coedge $-1 $63 $127 $41 $72 reversed $37 $-1 #
edge $-1 $128 -76.779686880092783 $76 76.779686880092783 $71 $129 forward 7 unknown #
coedge $-1 $66 $42 $127 $130 forward $75 $-1 #
coedge $-1 $42 $66 $123 $131 reversed $75 $-1 #
loop $-1 $-1 $74 $108 #
vertex $-1 $43 $132 #
vertex $-1 $43 $133 #
straight-curve $-1 76.779686880092783 0 8.8202144938831761 0 1 0 I I #
face $-1 $134 $135 $10 $-1 $136 reversed single #
loop $-1 $-1 $137 $44 #
plane-surface $-1 -86.163617710323194 0 -6.5757664067391808 1 0 0 0 0 -1 forward_v I I I I #
coedge $-1 $138 $47 $139 $140 reversed $29 $-1 #
coedge $-1 $47 $138 $88 $141 reversed $29 $-1 #
edge $-1 $90 4.3313183195951854 $142 8.8202144938831761 $47 $143 forward 7 unknown #
coedge $-1 $49 $48 $144 $145 reversed $19 $-1 #
coedge $-1 $146 $147 $48 $87 forward $148 $-1 #
edge $-1 $149 -8.8202144938831761 $91 -4.3313183195951854 $86 $150 forward 7 unknown #
coedge $-1 $151 $50 $83 $141 forward $45 $-1 #
coedge $-1 $50 $151 $146 $152 forward $45 $-1 #
vertex $-1 $84 $153 #
vertex $-1 $152 $154 #
straight-curve $-1 -76.779686880092783 0 -4.3313183195951854 0 -1 0 I I #
face $-1 $155 $156 $11 $-1 $157 reversed single #
loop $-1 $-1 $158 $52 #
plane-surface $-1 86.16361771032318 0 -6.5757664067391808 -1 0 0 0 0 1 forward_v I I I I #
coedge $-1 $104 $103 $159 $160 forward $53 $-1 #
coedge $-1 $161 $55 $104 $162 reversed $33 $-1 #
coedge $-1 $55 $161 $163 $164 reversed $33 $-1 #
edge $-1 $165 -8.8202144938831761 $106 -4.3313183195951854 $55 $166 forward 7 unknown #
coedge $-1 $57 $56 $167 $168 reversed $22 $-1 #
coedge $-1 $169 $170 $57 $102 forward $171 $-1 #
edge $-1 $105 4.3313183195951854 $172 8.8202144938831761 $101 $173 forward 7 unknown #
coedge $-1 $96 $58 $170 $174 forward $53 $-1 #
coedge $-1 $58 $96 $97 $162 forward $53 $-1 #
vertex $-1 $102 $175 #
vertex $-1 $162 $176 #
straight-curve $-1 76.779686880092783 0 -4.3313183195951854 0 1 0 I I #
face $-1 $-1 $75 $9 $-1 $177 reversed single #
loop $-1 $-1 $123 $60 #
plane-surface $-1 0 31.808493101592564 0 0 -1 0 0 0 -1 forward_v I I I I #
coedge $-1 $121 $178 $63 $113 reversed $61 $-1 #
coedge $-1 $127 $63 $64 $115 reversed $37 $-1 #
edge $-1 $128 -8.8202144938831761 $179 8.8202144938831761 $111 $180 forward 7 unknown #
coedge $-1 $65 $64 $178 $181 forward $25 $-1 #
edge $-1 $119 -76.779686880092783 $179 76.779686880092783 $112 $182 forward 7 unknown #
coedge $-1 $124 $123 $65 $117 reversed $109 $-1 #
edge $-1 $183 -76.779686880092783 $118 76.779686880092783 $116 $184 forward 7 unknown #
vertex $-1 $67 $185 #
vertex $-1 $130 $186 #
straight-curve $-1 76.779686880092783 0 -8.8202144938831761 0 -1 0 I I #
coedge $-1 $187 $111 $68 $122 reversed $61 $-1 #
edge $-1 $125 -31.808493101592564 $128 31.808493101592564 $121 $188 forward 7 unknown #
coedge $-1 $116 $69 $74 $131 forward $109 $-1 #
coedge $-1 $69 $116 $187 $189 reversed $109 $-1 #
vertex $-1 $70 $190 #
straight-curve $-1 0 31.808493101592564 8.8202144938831761 -1 0 0 I I #
coedge $-1 $71 $112 $73 $130 reversed $37 $-1 #
vertex $-1 $122 $191 #
straight-curve $-1 0 -31.808493101592564 8.8202144938831761 1 0 0 I I #
edge $-1 $76 -8.8202144938831761 $119 8.8202144938831761 $73 $192 forward 7 unknown #
edge $-1 $77 -8.8202144938831761 $118 8.8202144938831761 $74 $193 forward 7 unknown #
point $-1 76.779686880092783 -31.808493101592564 8.8202144938831761 #
point $-1 76.779686880092783 31.808493101592564 8.8202144938831761 #
face $-1 $-1 $148 $10 $-1 $194 reversed single #
loop $-1 $-1 $144 $79 #
plane-surface $-1 0 0 -8.8202144938831761 0 0 1 1 0 0 forward_v I I I I #
coedge $-1 $195 $196 $138 $197 forward $80 $-1 #
coedge $-1 $83 $82 $137 $197 reversed $29 $-1 #
coedge $-1 $144 $198 $82 $140 forward $135 $-1 #
edge $-1 $199 -86.163617710323194 $142 -76.779686880092783 $82 $200 forward 7 unknown #
edge $-1 $90 -4.6919654151152059 $201 4.6919654151152059 $83 $202 forward 7 unknown #
vertex $-1 $84 $203 #
straight-curve $-1 -76.779686880092783 31.808493101592564 0 0 0 -1 I I #
coedge $-1 $204 $139 $85 $145 forward $135 $-1 #
edge $-1 $142 -31.808493101592564 $149 31.808493101592564 $144 $205 forward 7 unknown #
coedge $-1 $206 $86 $89 $152 reversed $148 $-1 #
coedge $-1 $86 $206 $204 $207 reversed $148 $-1 #
loop $-1 $-1 $86 $134 #
vertex $-1 $207 $208 #
straight-curve $-1 -76.779686880092783 -31.808493101592564 0 0 0 1 I I #
coedge $-1 $89 $88 $196 $209 forward $45 $-1 #
edge $-1 $210 -4.6919654151152059 $91 4.6919654151152059 $146 $211 forward 7 unknown #
point $-1 -76.779686880092783 31.808493101592564 -4.3313183195951854 #
point $-1 -76.779686880092783 -31.808493101592564 -4.3313183195951854 #
face $-1 $-1 $171 $11 $-1 $212 reversed single #
loop $-1 $-1 $167 $93 #
plane-surface $-1 0 0 -8.8202144938831761 0 0 1 1 0 0 forward_v I I I I #
coedge $-1 $213 $159 $214 $215 forward $94 $-1 #
coedge $-1 $158 $216 $96 $160 reversed $94 $-1 #
edge $-1 $217 -31.808493101592564 $218 31.808493101592564 $159 $219 forward 7 unknown #
coedge $-1 $98 $97 $216 $220 forward $33 $-1 #
edge $-1 $218 -4.6919654151152059 $106 4.6919654151152059 $97 $221 forward 7 unknown #
coedge $-1 $222 $167 $98 $164 forward $156 $-1 #
edge $-1 $165 -4.6919654151151917 $223 4.6919654151152059 $98 $224 forward 7 unknown #
vertex $-1 $164 $225 #
straight-curve $-1 76.779686880092783 31.808493101592564 0 0 0 1 I I #
coedge $-1 $163 $226 $100 $168 forward $156 $-1 #
edge $-1 $172 -31.808493101592564 $165 31.808493101592564 $167 $227 forward 7 unknown #
coedge $-1 $214 $101 $226 $228 reversed $171 $-1 #
coedge $-1 $101 $214 $103 $174 reversed $171 $-1 #
loop $-1 $-1 $101 $155 #
vertex $-1 $102 $229 #
straight-curve $-1 76.779686880092783 -31.808493101592564 0 0 0 -1 I I #
edge $-1 $105 -4.6919654151152059 $217 4.6919654151152059 $170 $230 forward 7 unknown #
point $-1 76.779686880092768 -31.808493101592564 -4.3313183195951854 #
point $-1 76.779686880092768 31.808493101592564 -4.3313183195951854 #
plane-surface $-1 76.779686880092783 0 0 -1 0 0 0 0 1 forward_v I I I I #
coedge $-1 $111 $187 $114 $181 reversed $61 $-1 #
vertex $-1 $181 $231 #
straight-curve $-1 -76.779686880092783 -31.808493101592564 0 0 0 -1 I I #
edge $-1 $179 -31.808493101592564 $183 31.808493101592564 $178 $232 forward 7 unknown #
straight-curve $-1 0 -31.808493101592564 -8.8202144938831761 -1 0 0 I I #
vertex $-1 $117 $233 #
straight-curve $-1 0 31.808493101592564 -8.8202144938831761 1 0 0 I I #
point $-1 76.779686880092783 31.808493101592564 -8.8202144938831761 #
point $-1 76.779686880092783 -31.808493101592564 -8.8202144938831761 #
coedge $-1 $178 $121 $124 $189 forward $61 $-1 #
straight-curve $-1 -76.779686880092783 0 8.8202144938831761 0 -1 0 I I #
edge $-1 $125 -8.8202144938831761 $183 8.8202144938831761 $124 $234 forward 7 unknown #
point $-1 -76.779686880092783 31.808493101592564 8.8202144938831761 #
point $-1 -76.779686880092783 -31.808493101592564 8.8202144938831761 #
straight-curve $-1 76.779686880092783 -31.808493101592564 0 0 0 -1 I I #
straight-curve $-1 76.779686880092783 31.808493101592564 0 0 0 -1 I I #
plane-surface $-1 0 -31.808493101592564 0 0 1 0 0 0 1 forward_v I I I I #
coedge $-1 $235 $137 $198 $236 reversed $80 $-1 #
coedge $-1 $137 $235 $151 $209 reversed $80 $-1 #
edge $-1 $201 -2.2444480871439954 $199 2.2444480871439954 $138 $237 forward 7 unknown #
coedge $-1 $139 $204 $195 $236 forward $135 $-1 #
vertex $-1 $140 $238 #
straight-curve $-1 0 31.808493101592564 -8.8202144938831761 1 0 0 I I #
vertex $-1 $141 $239 #
straight-curve $-1 -81.471652295207988 31.808493101592564 -4.3313183195951854 -1 0 0 I I #
point $-1 -76.779686880092783 31.808493101592564 -8.8202144938831761 #
coedge $-1 $198 $144 $147 $207 forward $135 $-1 #
straight-curve $-1 -76.779686880092783 0 -8.8202144938831761 0 -1 0 I I #
coedge $-1 $147 $146 $235 $240 forward $148 $-1 #
edge $-1 $149 -4.6919654151152059 $241 4.6919654151152059 $147 $242 forward 7 unknown #
point $-1 -76.779686880092783 -31.808493101592564 -8.8202144938831761 #
edge $-1 $201 -31.808493101592564 $210 31.808493101592564 $196 $243 forward 7 unknown #
vertex $-1 $209 $244 #
straight-curve $-1 -81.471652295207988 -31.808493101592564 -4.3313183195951854 1 0 0 I I #
plane-surface $-1 0 -31.808493101592564 0 0 1 0 0 0 1 forward_v I I I I #
coedge $-1 $216 $158 $222 $245 reversed $94 $-1 #
coedge $-1 $170 $169 $158 $215 reversed $171 $-1 #
edge $-1 $217 -2.2444480871439954 $246 2.2444480871439954 $158 $247 forward 7 unknown #
coedge $-1 $159 $213 $161 $220 reversed $94 $-1 #
vertex $-1 $160 $248 #
vertex $-1 $160 $249 #
straight-curve $-1 86.16361771032318 0 -4.3313183195951854 0 1 0 I I #
edge $-1 $218 -2.2444480871439954 $223 2.2444480871439954 $216 $250 forward 7 unknown #
straight-curve $-1 81.471652295207974 31.808493101592564 -4.3313183195951854 -1 0 0 I I #
coedge $-1 $226 $163 $213 $245 forward $156 $-1 #
vertex $-1 $245 $251 #
straight-curve $-1 81.471652295207974 31.808493101592564 -8.8202144938831761 1 0 0 I I #
point $-1 76.779686880092783 31.808493101592564 -8.8202144938831761 #
coedge $-1 $167 $222 $169 $228 forward $156 $-1 #
straight-curve $-1 76.779686880092783 0 -8.8202144938831761 0 1 0 I I #
edge $-1 $246 -4.6919654151152059 $172 4.6919654151151917 $169 $252 forward 7 unknown #
point $-1 76.779686880092783 -31.808493101592564 -8.8202144938831761 #
straight-curve $-1 81.471652295207974 -31.808493101592564 -4.3313183195951854 1 0 0 I I #
point $-1 -76.779686880092783 -31.808493101592564 -8.8202144938831761 #
straight-curve $-1 -76.779686880092783 0 -8.8202144938831761 0 1 0 I I #
point $-1 -76.779686880092783 31.808493101592564 -8.8202144938831761 #
straight-curve $-1 -76.779686880092783 31.808493101592564 0 0 0 -1 I I #
coedge $-1 $196 $195 $206 $240 reversed $80 $-1 #
edge $-1 $241 -31.808493101592564 $199 31.808493101592564 $195 $253 forward 7 unknown #
straight-curve $-1 -86.163617710323194 31.808493101592564 -6.5757664067391808 0 0 -1 I I #
point $-1 -86.163617710323194 31.808493101592564 -8.8202144938831761 #
point $-1 -86.163617710323194 31.808493101592564 -4.3313183195951854 #
edge $-1 $210 -2.2444480871439954 $241 2.2444480871439954 $235 $254 forward 7 unknown #
vertex $-1 $236 $255 #
straight-curve $-1 -81.471652295207988 -31.808493101592564 -8.8202144938831761 -1 0 0 I I #
straight-curve $-1 -86.163617710323194 0 -4.3313183195951854 0 -1 0 I I #
point $-1 -86.163617710323194 -31.808493101592564 -4.3313183195951854 #
edge $-1 $223 -31.808493101592564 $246 31.808493101592564 $213 $256 forward 7 unknown #
vertex $-1 $215 $257 #
straight-curve $-1 86.16361771032318 -31.808493101592564 -6.5757664067391808 0 0 -1 I I #
point $-1 86.16361771032318 -31.808493101592564 -4.3313183195951854 #
point $-1 86.16361771032318 31.808493101592564 -4.3313183195951854 #
straight-curve $-1 86.16361771032318 31.808493101592564 -6.5757664067391808 0 0 -1 I I #
point $-1 86.16361771032318 31.808493101592564 -8.8202144938831761 #
straight-curve $-1 81.471652295207974 -31.808493101592564 -8.8202144938831761 -1 0 0 I I #
straight-curve $-1 -86.163617710323194 0 -8.8202144938831761 0 1 0 I I #
straight-curve $-1 -86.163617710323194 -31.808493101592564 -6.5757664067391808 0 0 -1 I I #
point $-1 -86.163617710323194 -31.808493101592564 -8.8202144938831761 #
straight-curve $-1 86.16361771032318 0 -8.8202144938831761 0 -1 0 I I #
point $-1 86.16361771032318 -31.808493101592564 -8.8202144938831761 #
End-of-ACIS-data 