500 0 9 0           
7 Unknown 11 ACIS 5.0 NT 24 Fri Mar 26 14:45:17 1999 
-1 9.9999999999999995e-007 1e-010 
body $-1 $9 $-1 $10 #
body $-1 $11 $-1 $12 #
body $-1 $13 $-1 $14 #
body $-1 $15 $-1 $16 #
body $-1 $17 $-1 $18 #
body $-1 $19 $-1 $20 #
body $-1 $21 $-1 $22 #
body $-1 $23 $-1 $24 #
body $-1 $25 $-1 $26 #
lump $-1 $-1 $27 $0 #
transform $-1 1 0 0 0 1 0 0 0 1 64.416028321176796 37.190146811559138 13.860471598338577 1 rotate no_reflect no_shear #
lump $-1 $-1 $28 $1 #
transform $-1 1 0 0 0 1 0 0 0 1 64.416028321176796 37.190146811559138 13.860471598338577 1 rotate no_reflect no_shear #
lump $-1 $-1 $29 $2 #
transform $-1 1 0 0 0 1 0 0 0 1 64.416028321176796 37.190146811559138 13.860471598338577 1 rotate no_reflect no_shear #
lump $-1 $-1 $30 $3 #
transform $-1 1 0 0 0 1 0 0 0 1 64.416028321176796 37.190146811559138 13.860471598338577 1 rotate no_reflect no_shear #
lump $-1 $-1 $31 $4 #
transform $-1 1 0 0 0 1 0 0 0 1 64.416028321176796 37.190146811559138 13.860471598338577 1 rotate no_reflect no_shear #
lump $-1 $-1 $32 $5 #
transform $-1 1 0 0 0 1 0 0 0 1 64.416028321176796 37.190146811559138 13.860471598338577 1 rotate no_reflect no_shear #
lump $-1 $-1 $33 $6 #
transform $-1 1 0 0 0 1 0 0 0 1 64.416028321176796 37.190146811559138 13.860471598338577 1 rotate no_reflect no_shear #
lump $-1 $-1 $34 $7 #
transform $-1 1 0 0 0 1 0 0 0 1 64.416028321176796 37.190146811559138 13.860471598338577 1 rotate no_reflect no_shear #
lump $-1 $-1 $35 $8 #
transform $-1 1 0 0 0 1 0 0 0 1 64.416028321176796 37.190146811559138 13.860471598338577 1 rotate no_reflect no_shear #
shell $-1 $-1 $-1 $36 $-1 $9 #
shell $-1 $-1 $-1 $37 $-1 $11 #
shell $-1 $-1 $-1 $38 $-1 $13 #
shell $-1 $-1 $-1 $39 $-1 $15 #
shell $-1 $-1 $-1 $40 $-1 $17 #
shell $-1 $-1 $-1 $41 $-1 $19 #
shell $-1 $-1 $-1 $42 $-1 $21 #
shell $-1 $-1 $-1 $43 $-1 $23 #
shell $-1 $-1 $-1 $44 $-1 $25 #
face $-1 $45 $46 $27 $-1 $47 forward single #
face $-1 $48 $49 $28 $-1 $50 reversed single #
face $-1 $51 $52 $29 $-1 $53 reversed single #
face $-1 $54 $55 $30 $-1 $56 forward single #
face $-1 $57 $58 $31 $-1 $59 forward single #
face $-1 $60 $61 $32 $-1 $62 reversed single #
face $-1 $63 $64 $33 $-1 $65 forward single #
face $-1 $66 $67 $34 $-1 $68 forward single #
face $-1 $69 $70 $35 $-1 $71 forward single #
face $-1 $72 $73 $27 $-1 $74 reversed single #
loop $-1 $-1 $75 $36 #
plane-surface $-1 0 0 13.860471598338577 0 0 1 1 0 0 forward_v I I I I #
face $-1 $76 $77 $28 $-1 $78 reversed single #
loop $-1 $-1 $79 $37 #
plane-surface $-1 0 -28.063174102879554 9.63376166746548 0 0 1 1 0 0 forward_v I I I I #
face $-1 $80 $81 $29 $-1 $82 reversed single #
loop $-1 $-1 $83 $38 #
plane-surface $-1 51.706676838363848 -8.5239071493973331 186.77295650658567 0 -1 0 -0.6560590369687036 0 -0.75470957328743171 forward_v I I I I #
face $-1 $84 $85 $30 $-1 $86 forward single #
loop $-1 $87 $88 $39 #
cone-surface $-1 58.970125453786402 -15.961260181399215 9.0248301173436154 -0.6560590369687036 0 -0.75470957328743171 0.75470957328743171 0 -0.6560590369687036 1 I I 0 1 1 forward I I I I #
face $-1 $89 $90 $31 $-1 $91 forward single #
loop $-1 $92 $93 $40 #
cone-surface $-1 58.970125453786402 -11.498848362198085 9.0248301173436154 -0.6560590369687036 0 -0.75470957328743171 0.75470957328743171 0 -0.6560590369687036 1 I I 0 1 1 forward I I I I #
face $-1 $94 $95 $32 $-1 $96 reversed single #
loop $-1 $-1 $97 $41 #
plane-surface $-1 -64.416028321176768 -12.676098079065248 2.9187082398440225 -0.86602541151947299 0 0.49999998660252726 0.49999998660252726 0 0.86602541151947299 forward_v I I I I #
face $-1 $98 $99 $33 $-1 $100 forward single #
loop $-1 $101 $102 $42 #
cone-surface $-1 -59.616624716491884 -16.432160068146082 7.4422801510847316 0.86602541151947299 0 -0.49999998660252726 0.49999998660252726 0 0.86602541151947299 1 I I 0 1 1 forward I I I I #
face $-1 $103 $104 $34 $-1 $105 forward single #
loop $-1 $106 $107 $43 #
cone-surface $-1 -59.616624716491884 -12.676098079065252 7.4422801510847316 0.86602541151947299 0 -0.49999998660252726 0.49999998660252726 0 0.86602541151947299 1 I I 0 1 1 forward I I I I #
face $-1 $108 $109 $35 $-1 $110 forward single #
loop $-1 $111 $112 $44 #
cone-surface $-1 -59.616624716491884 -8.9200360899844213 7.4422801510847316 0.86602541151947299 0 -0.49999998660252726 0.49999998660252726 0 0.86602541151947299 1 I I 0 1 1 forward I I I I #
face $-1 $113 $114 $27 $-1 $115 reversed single #
loop $-1 $-1 $116 $45 #
plane-surface $-1 0 0 -13.860471598338577 0 0 1 1 0 0 forward_v I I I I #
coedge $-1 $117 $118 $119 $120 forward $46 $-1 #
face $-1 $121 $122 $28 $-1 $123 reversed single #
loop $-1 $-1 $124 $48 #
plane-surface $-1 0 -18.936201394199969 11.747116632902028 0 -1 0 0 0 -1 forward_v I I I I #
coedge $-1 $125 $126 $127 $128 reversed $49 $-1 #
face $-1 $129 $130 $29 $-1 $131 forward single #
loop $-1 $-1 $132 $51 #
plane-surface $-1 -32.814758173116118 -13.73005427179865 89.542170012292758 0.6560590369687036 0 0.75470957328743171 0.75470957328743171 0 -0.6560590369687036 forward_v I I I I #
coedge $-1 $133 $134 $135 $136 reversed $52 $-1 #
face $-1 $-1 $137 $30 $-1 $138 forward single #
loop $-1 $139 $140 $54 #
cone-surface $-1 58.280669814331546 -15.961260181399215 8.2317021484678321 -0.6560590369687036 0 -0.75470957328743171 0.37735478664371586 0 -0.3280295184843518 1 I I -0.70710678118654746 0.70710678118654746 0.5 forward I I I I #
loop $-1 $-1 $141 $39 #
coedge $-1 $88 $88 $142 $143 reversed $55 $-1 #
face $-1 $-1 $144 $31 $-1 $145 forward single #
loop $-1 $146 $147 $57 #
cone-surface $-1 58.280669814331546 -11.498848362198085 8.2317021484678321 -0.6560590369687036 0 -0.75470957328743171 0.37735478664371586 0 -0.3280295184843518 1 I I -0.70710678118654746 0.70710678118654746 0.5 forward I I I I #
loop $-1 $-1 $148 $40 #
coedge $-1 $93 $93 $149 $150 reversed $58 $-1 #
face $-1 $151 $152 $32 $-1 $153 forward single #
loop $-1 $-1 $154 $60 #
plane-surface $-1 -175.98786319177111 -6.4159947639305273 67.334734834996866 0 -1 0 0.86602541151947299 0 -0.49999998660252726 forward_v I I I I #
coedge $-1 $155 $156 $157 $158 reversed $61 $-1 #
face $-1 $-1 $159 $33 $-1 $160 forward single #
loop $-1 $161 $162 $63 #
cone-surface $-1 -57.542823303418679 -16.432160068146082 6.244970389776892 0.86602541151947299 0 -0.49999998660252726 0.24999999330126363 0 0.43301270575973649 1 I I -0.70710678118654746 0.70710678118654746 0.5 forward I I I I #
loop $-1 $-1 $163 $42 #
coedge $-1 $102 $102 $164 $165 reversed $64 $-1 #
face $-1 $-1 $166 $34 $-1 $167 forward single #
loop $-1 $168 $169 $66 #
cone-surface $-1 -57.542823303418679 -12.676098079065252 6.244970389776892 0.86602541151947299 0 -0.49999998660252726 0.24999999330126363 0 0.43301270575973649 1 I I -0.70710678118654746 0.70710678118654746 0.5 forward I I I I #
loop $-1 $-1 $170 $43 #
coedge $-1 $107 $107 $171 $172 reversed $67 $-1 #
face $-1 $-1 $173 $35 $-1 $174 forward single #
loop $-1 $175 $176 $69 #
cone-surface $-1 -57.542823303418679 -8.9200360899844213 6.244970389776892 0.86602541151947299 0 -0.49999998660252726 0.24999999330126363 0 0.43301270575973649 1 I I -0.70710678118654746 0.70710678118654746 0.5 forward I I I I #
loop $-1 $-1 $177 $44 #
coedge $-1 $112 $112 $178 $179 reversed $70 $-1 #
face $-1 $180 $181 $27 $-1 $182 reversed single #
loop $-1 $-1 $183 $72 #
plane-surface $-1 0 -37.190146811559138 0 0 1 0 0 0 1 forward_v I I I I #
coedge $-1 $184 $185 $186 $187 forward $73 $-1 #
coedge $-1 $188 $75 $189 $190 forward $46 $-1 #
coedge $-1 $75 $188 $191 $192 forward $46 $-1 #
coedge $-1 $193 $194 $75 $120 reversed $195 $-1 #
edge $-1 $196 -37.190146811559138 $197 37.190146811559138 $119 $198 forward 7 unknown #
face $-1 $199 $200 $28 $-1 $201 reversed single #
loop $-1 $-1 $202 $76 #
plane-surface $-1 -64.416028321176796 0 0 1 0 0 0 0 -1 forward_v I I I I #
coedge $-1 $203 $204 $205 $206 reversed $77 $-1 #
coedge $-1 $207 $79 $208 $209 reversed $49 $-1 #
coedge $-1 $79 $207 $210 $211 forward $49 $-1 #
coedge $-1 $212 $213 $79 $128 forward $214 $-1 #
edge $-1 $215 -23.15855976011936 $216 -4.9046143427601923 $127 $217 forward 7 unknown #
face $-1 $218 $219 $29 $-1 $220 forward single #
loop $-1 $-1 $221 $80 #
plane-surface $-1 0 -18.936201394199969 11.747116632902028 0 -1 0 0 0 -1 forward_v I I I I #
coedge $-1 $222 $223 $224 $225 reversed $81 $-1 #
coedge $-1 $134 $83 $226 $227 reversed $52 $-1 #
coedge $-1 $83 $133 $222 $228 reversed $52 $-1 #
coedge $-1 $224 $229 $83 $136 forward $219 $-1 #
edge $-1 $230 -38.562689901994872 $231 -28.39373640915511 $135 $232 forward 7 unknown #
loop $-1 $-1 $142 $84 #
plane-surface $-1 -32.814758173116118 -13.73005427179865 89.542170012292758 0.6560590369687036 0 0.75470957328743171 0.75470957328743171 0 -0.6560590369687036 forward_v I I I I #
loop $-1 $-1 $233 $54 #
coedge $-1 $140 $140 $141 $234 reversed $85 $-1 #
coedge $-1 $141 $141 $140 $234 forward $87 $-1 #
coedge $-1 $142 $142 $88 $143 forward $137 $-1 #
edge $-1 $235 0 $235 6.2831853071796004 $142 $236 forward 7 unknown #
loop $-1 $-1 $149 $89 #
plane-surface $-1 -32.814758173116118 -13.73005427179865 89.542170012292758 0.6560590369687036 0 0.75470957328743171 0.75470957328743171 0 -0.6560590369687036 forward_v I I I I #
loop $-1 $-1 $237 $57 #
coedge $-1 $147 $147 $148 $238 reversed $90 $-1 #
coedge $-1 $148 $148 $147 $238 forward $92 $-1 #
coedge $-1 $149 $149 $93 $150 forward $144 $-1 #
edge $-1 $239 0 $239 6.2831853071796004 $149 $240 forward 7 unknown #
face $-1 $241 $242 $32 $-1 $243 reversed single #
loop $-1 $-1 $157 $94 #
plane-surface $-1 0 0 13.860471598338577 0 0 1 1 0 0 forward_v I I I I #
coedge $-1 $244 $245 $246 $247 reversed $95 $-1 #
coedge $-1 $248 $97 $249 $250 reversed $61 $-1 #
coedge $-1 $97 $248 $244 $251 forward $61 $-1 #
coedge $-1 $246 $252 $97 $158 forward $152 $-1 #
edge $-1 $253 -12.598152354667345 $254 -0.077945724397903149 $157 $255 forward 7 unknown #
loop $-1 $-1 $164 $98 #
plane-surface $-1 -64.416028321176768 -12.676098079065248 2.9187082398440225 -0.86602541151947299 0 0.49999998660252726 0.49999998660252726 0 0.86602541151947299 forward_v I I I I #
loop $-1 $-1 $256 $63 #
coedge $-1 $162 $162 $163 $257 reversed $99 $-1 #
coedge $-1 $163 $163 $162 $257 forward $101 $-1 #
coedge $-1 $164 $164 $102 $165 forward $159 $-1 #
edge $-1 $258 0 $258 6.2831853071796004 $164 $259 forward 7 unknown #
loop $-1 $-1 $171 $103 #
plane-surface $-1 -64.416028321176768 -12.676098079065248 2.9187082398440225 -0.86602541151947299 0 0.49999998660252726 0.49999998660252726 0 0.86602541151947299 forward_v I I I I #
loop $-1 $-1 $260 $66 #
coedge $-1 $169 $169 $170 $261 reversed $104 $-1 #
coedge $-1 $170 $170 $169 $261 forward $106 $-1 #
coedge $-1 $171 $171 $107 $172 forward $166 $-1 #
edge $-1 $262 0 $262 6.2831853071796004 $171 $263 forward 7 unknown #
loop $-1 $-1 $178 $108 #
plane-surface $-1 -64.416028321176768 -12.676098079065248 2.9187082398440225 -0.86602541151947299 0 0.49999998660252726 0.49999998660252726 0 0.86602541151947299 forward_v I I I I #
loop $-1 $-1 $264 $69 #
coedge $-1 $176 $176 $177 $265 reversed $109 $-1 #
coedge $-1 $177 $177 $176 $265 forward $111 $-1 #
coedge $-1 $178 $178 $112 $179 forward $173 $-1 #
edge $-1 $266 0 $266 6.2831853071796004 $178 $267 forward 7 unknown #
face $-1 $268 $269 $27 $-1 $270 reversed single #
loop $-1 $-1 $271 $113 #
plane-surface $-1 -64.416028321176796 0 0 1 0 0 0 0 -1 forward_v I I I I #
coedge $-1 $272 $191 $273 $274 forward $114 $-1 #
coedge $-1 $275 $116 $272 $276 forward $73 $-1 #
coedge $-1 $116 $275 $277 $278 forward $73 $-1 #
coedge $-1 $194 $193 $116 $187 reversed $195 $-1 #
edge $-1 $279 -37.190146811559138 $280 37.190146811559138 $186 $281 forward 7 unknown #
coedge $-1 $118 $117 $282 $283 forward $46 $-1 #
coedge $-1 $284 $285 $117 $190 reversed $269 $-1 #
edge $-1 $197 -64.416028321176796 $286 64.416028321176796 $189 $287 forward 7 unknown #
coedge $-1 $183 $288 $118 $192 reversed $114 $-1 #
edge $-1 $289 -64.416028321176796 $196 64.416028321176796 $191 $290 forward 7 unknown #
coedge $-1 $186 $119 $288 $291 forward $195 $-1 #
coedge $-1 $119 $186 $284 $292 reversed $195 $-1 #
loop $-1 $-1 $193 $268 #
vertex $-1 $120 $293 #
vertex $-1 $120 $294 #
straight-curve $-1 64.416028321176796 0 13.860471598338577 0 1 0 I I #
face $-1 $295 $296 $28 $-1 $297 forward single #
loop $-1 $-1 $208 $121 #
plane-surface $-1 0 -37.190146811559138 0 0 1 0 0 0 1 forward_v I I I I #
coedge $-1 $298 $299 $204 $300 forward $122 $-1 #
coedge $-1 $210 $124 $212 $301 reversed $77 $-1 #
coedge $-1 $124 $210 $202 $300 reversed $77 $-1 #
coedge $-1 $302 $303 $124 $206 forward $296 $-1 #
edge $-1 $304 -64.416028321176796 $305 64.416028321176796 $205 $306 forward 7 unknown #
coedge $-1 $126 $125 $298 $307 reversed $49 $-1 #
coedge $-1 $308 $309 $125 $209 forward $200 $-1 #
edge $-1 $310 -64.416028321176796 $215 64.416028321176796 $208 $311 forward 7 unknown #
coedge $-1 $204 $203 $126 $211 reversed $77 $-1 #
edge $-1 $312 -64.416028321176796 $216 64.416028321176796 $210 $313 forward 7 unknown #
coedge $-1 $314 $127 $203 $301 forward $214 $-1 #
coedge $-1 $127 $314 $308 $315 forward $214 $-1 #
loop $-1 $-1 $212 $295 #
vertex $-1 $209 $316 #
vertex $-1 $128 $317 #
straight-curve $-1 64.416028321176796 -14.031587051439777 9.63376166746548 0 1 0 I I #
face $-1 $-1 $318 $29 $-1 $319 reversed single #
loop $-1 $-1 $224 $129 #
plane-surface $-1 0 0 13.860471598338577 0 0 1 1 0 0 forward_v I I I I #
coedge $-1 $320 $321 $223 $322 reversed $130 $-1 #
coedge $-1 $323 $132 $134 $228 forward $81 $-1 #
coedge $-1 $132 $323 $221 $322 forward $81 $-1 #
coedge $-1 $324 $135 $132 $225 forward $219 $-1 #
edge $-1 $231 1.658880013498008 $325 12.071174258300644 $224 $326 forward 7 unknown #
coedge $-1 $327 $328 $133 $227 forward $318 $-1 #
edge $-1 $329 -88.365743252480044 $230 -79.526006654954259 $226 $330 forward 7 unknown #
edge $-1 $231 115.35806101176298 $329 128.83205664235359 $134 $331 forward 7 unknown #
coedge $-1 $135 $324 $327 $332 forward $219 $-1 #
vertex $-1 $227 $333 #
vertex $-1 $136 $334 #
straight-curve $-1 25.853338419181924 -8.5239071493973331 13.860471598338577 -1 0 0 I I #
coedge $-1 $233 $233 $-1 $335 reversed $139 $-1 #
edge $-1 $336 0 $336 6.2831853071796004 $140 $337 forward 7 unknown #
vertex $-1 $143 $338 #
ellipse-curve $-1 59.331551574756915 -15.961260181399215 9.4406032995756899 0.6560590369687036 0 0.75470957328743171 0.75470957328743171 0 -0.6560590369687036 1 I I #
coedge $-1 $237 $237 $-1 $339 reversed $146 $-1 #
edge $-1 $340 0 $340 6.2831853071796004 $147 $341 forward 7 unknown #
vertex $-1 $150 $342 #
ellipse-curve $-1 59.331551574756915 -11.498848362198085 9.4406032995756899 0.6560590369687036 0 0.75470957328743171 0.75470957328743171 0 -0.6560590369687036 1 I I #
face $-1 $-1 $343 $32 $-1 $344 forward single #
loop $-1 $-1 $345 $151 #
plane-surface $-1 -64.416028321176796 0 0 1 0 0 0 0 -1 forward_v I I I I #
coedge $-1 $245 $154 $156 $251 reversed $95 $-1 #
coedge $-1 $154 $244 $345 $346 reversed $95 $-1 #
coedge $-1 $347 $157 $154 $247 forward $152 $-1 #
edge $-1 $254 -29.895133069451695 $348 -23.57790327470876 $246 $349 forward 7 unknown #
coedge $-1 $156 $155 $350 $351 reversed $61 $-1 #
coedge $-1 $352 $353 $155 $250 forward $343 $-1 #
edge $-1 $354 -19.926819654618271 $253 -7.2923597265927356 $249 $355 forward 7 unknown #
edge $-1 $356 -5.6900626353428066e-014 $254 12.634459928025477 $244 $357 forward 7 unknown #
coedge $-1 $157 $347 $352 $358 forward $152 $-1 #
vertex $-1 $250 $359 #
vertex $-1 $158 $360 #
straight-curve $-1 -58.09879852643386 -6.3380490395326241 13.860471598338577 0 1 0 I I #
coedge $-1 $256 $256 $-1 $361 reversed $161 $-1 #
edge $-1 $362 0 $362 6.2831853071796004 $162 $363 forward 7 unknown #
vertex $-1 $165 $364 #
ellipse-curve $-1 -61.257413423805318 -16.432160068146082 8.3895899190912893 -0.86602541151947299 0 0.49999998660252726 0.49999998660252726 0 0.86602541151947299 1 I I #
coedge $-1 $260 $260 $-1 $365 reversed $168 $-1 #
edge $-1 $366 0 $366 6.2831853071796004 $169 $367 forward 7 unknown #
vertex $-1 $172 $368 #
ellipse-curve $-1 -61.257413423805318 -12.676098079065252 8.3895899190912893 -0.86602541151947299 0 0.49999998660252726 0.49999998660252726 0 0.86602541151947299 1 I I #
coedge $-1 $264 $264 $-1 $369 reversed $175 $-1 #
edge $-1 $370 0 $370 6.2831853071796004 $176 $371 forward 7 unknown #
vertex $-1 $179 $372 #
ellipse-curve $-1 -61.257413423805318 -8.9200360899844213 8.3895899190912893 -0.86602541151947299 0 0.49999998660252726 0.49999998660252726 0 0.86602541151947299 1 I I #
face $-1 $-1 $195 $27 $-1 $373 reversed single #
loop $-1 $-1 $284 $180 #
plane-surface $-1 0 37.190146811559138 0 0 -1 0 0 0 -1 forward_v I I I I #
coedge $-1 $374 $282 $285 $375 forward $181 $-1 #
coedge $-1 $288 $183 $184 $276 reversed $114 $-1 #
coedge $-1 $282 $374 $183 $274 reversed $181 $-1 #
edge $-1 $289 -13.860471598338577 $376 13.860471598338577 $273 $377 forward 7 unknown #
coedge $-1 $185 $184 $374 $378 forward $73 $-1 #
edge $-1 $280 -64.416028321176796 $376 64.416028321176796 $272 $379 forward 7 unknown #
coedge $-1 $285 $284 $185 $278 reversed $269 $-1 #
edge $-1 $380 -64.416028321176796 $279 64.416028321176796 $277 $381 forward 7 unknown #
vertex $-1 $187 $382 #
vertex $-1 $291 $383 #
straight-curve $-1 64.416028321176796 0 -13.860471598338577 0 -1 0 I I #
coedge $-1 $271 $273 $188 $283 reversed $181 $-1 #
edge $-1 $286 -37.190146811559138 $289 37.190146811559138 $282 $384 forward 7 unknown #
coedge $-1 $277 $189 $194 $292 forward $269 $-1 #
coedge $-1 $189 $277 $271 $375 reversed $269 $-1 #
vertex $-1 $190 $385 #
straight-curve $-1 0 37.190146811559138 13.860471598338577 -1 0 0 I I #
coedge $-1 $191 $272 $193 $291 reversed $114 $-1 #
vertex $-1 $283 $386 #
straight-curve $-1 0 -37.190146811559138 13.860471598338577 1 0 0 I I #
edge $-1 $196 -13.860471598338577 $280 13.860471598338577 $193 $387 forward 7 unknown #
edge $-1 $197 -13.860471598338577 $279 13.860471598338577 $194 $388 forward 7 unknown #
point $-1 64.416028321176796 -37.190146811559138 13.860471598338577 #
point $-1 64.416028321176796 37.190146811559138 13.860471598338577 #
face $-1 $-1 $214 $28 $-1 $389 reversed single #
loop $-1 $-1 $205 $199 #
plane-surface $-1 0 0 13.860471598338577 0 0 1 1 0 0 forward_v I I I I #
coedge $-1 $390 $202 $207 $307 forward $122 $-1 #
coedge $-1 $202 $390 $302 $391 reversed $122 $-1 #
edge $-1 $305 -7.9869132818875617 $312 -3.7602033510144661 $202 $392 forward 7 unknown #
edge $-1 $216 3.7602033510144661 $304 7.9869132818875617 $212 $393 forward 7 unknown #
coedge $-1 $394 $205 $299 $391 forward $296 $-1 #
coedge $-1 $205 $394 $314 $395 forward $296 $-1 #
vertex $-1 $301 $396 #
vertex $-1 $391 $397 #
straight-curve $-1 0 -18.936201394199969 13.860471598338577 -1 0 0 I I #
edge $-1 $312 4.9046143427601923 $310 23.15855976011936 $298 $398 forward 7 unknown #
coedge $-1 $399 $208 $213 $315 reversed $200 $-1 #
coedge $-1 $208 $399 $390 $400 forward $200 $-1 #
vertex $-1 $209 $401 #
straight-curve $-1 0 -37.190146811559138 9.63376166746548 1 0 0 I I #
vertex $-1 $307 $402 #
straight-curve $-1 0 -18.936201394199969 9.63376166746548 1 0 0 I I #
coedge $-1 $213 $212 $303 $395 reversed $214 $-1 #
edge $-1 $403 -13.860471598338577 $215 -9.63376166746548 $213 $404 forward 7 unknown #
point $-1 64.416028321176796 -37.190146811559138 9.63376166746548 #
point $-1 64.416028321176796 -18.936201394199969 9.63376166746548 #
loop $-1 $-1 $226 $218 #
plane-surface $-1 64.416028321176796 0 0 -1 0 0 0 0 1 forward_v I I I I #
coedge $-1 $321 $221 $405 $406 reversed $130 $-1 #
coedge $-1 $221 $320 $324 $407 reversed $130 $-1 #
edge $-1 $408 -128.83205664235359 $325 -115.35806101176298 $221 $409 forward 7 unknown #
coedge $-1 $223 $222 $328 $410 reversed $81 $-1 #
coedge $-1 $229 $224 $321 $407 forward $219 $-1 #
vertex $-1 $407 $411 #
straight-curve $-1 54.247074828337034 -6.8650271358993251 13.860471598338584 0 -1 0 I I #
coedge $-1 $405 $226 $229 $332 reversed $318 $-1 #
coedge $-1 $226 $405 $323 $410 forward $318 $-1 #
vertex $-1 $227 $412 #
straight-curve $-1 64.416028321176796 -8.5239071493973331 93.386478253292836 0 0 1 I I #
straight-curve $-1 -32.814758173116118 -8.5239071493973331 89.542170012292758 0.75470957328743171 0 -0.6560590369687036 I I #
edge $-1 $413 -18.936201394199969 $230 -8.5239071493973331 $327 $414 forward 7 unknown #
point $-1 64.416028321176796 -8.5239071493973331 13.860471598338577 #
point $-1 54.247074828337034 -8.5239071493973331 13.860471598338577 #
edge $-1 $415 1 $415 0 $233 $-1 forward 7 unknown #
vertex $-1 $234 $416 #
ellipse-curve $-1 58.608699332815895 -15.961260181399215 8.609056935111548 0.6560590369687036 0 0.75470957328743171 0.75470957328743171 0 -0.6560590369687036 1 I I #
point $-1 60.086261148044343 -15.961260181399215 8.7845442626069765 #
edge $-1 $417 1 $417 0 $237 $-1 forward 7 unknown #
vertex $-1 $238 $418 #
ellipse-curve $-1 58.608699332815895 -11.498848362198085 8.609056935111548 0.6560590369687036 0 0.75470957328743171 0.75470957328743171 0 -0.6560590369687036 1 I I #
point $-1 60.086261148044343 -11.498848362198085 8.7845442626069765 #
loop $-1 $-1 $249 $241 #
plane-surface $-1 0 -18.936201394199969 11.747116632902028 0 -1 0 0 0 -1 forward_v I I I I #
coedge $-1 $350 $419 $245 $346 forward $242 $-1 #
edge $-1 $348 19.806895819159855 $356 30.74865917765446 $345 $420 forward 7 unknown #
coedge $-1 $252 $246 $419 $421 forward $152 $-1 #
vertex $-1 $421 $422 #
straight-curve $-1 -87.993931595885556 -6.4159947639305273 13.860471598338577 -1 0 0 I I #
coedge $-1 $423 $345 $248 $351 forward $242 $-1 #
edge $-1 $356 0.077945724397903149 $354 12.598152354667345 $350 $424 forward 7 unknown #
coedge $-1 $353 $249 $252 $358 reversed $343 $-1 #
coedge $-1 $249 $352 $423 $425 reversed $343 $-1 #
vertex $-1 $425 $426 #
straight-curve $-1 -54.452618760836685 -18.936201394199969 20.175840431509084 0.49999998660252726 0 0.86602541151947299 I I #
vertex $-1 $351 $427 #
straight-curve $-1 -64.416028321176768 -6.4159947639305273 2.9187082398440225 0.49999998660252726 0 0.86602541151947299 I I #
edge $-1 $428 -64.416028321176796 $253 -58.09879852643386 $252 $429 forward 7 unknown #
point $-1 -58.09879852643386 -18.936201394199969 13.860471598338577 #
point $-1 -58.09879852643386 -6.4159947639305273 13.860471598338577 #
edge $-1 $430 1 $430 0 $256 $-1 forward 7 unknown #
vertex $-1 $257 $431 #
ellipse-curve $-1 -57.975836009178416 -16.432160068146082 6.4949703830781553 -0.86602541151947299 0 0.49999998660252726 0.49999998660252726 0 0.86602541151947299 1 I I #
point $-1 -60.757413437202821 -16.432160068146082 9.2556153306107802 #
edge $-1 $432 1 $432 0 $260 $-1 forward 7 unknown #
vertex $-1 $261 $433 #
ellipse-curve $-1 -57.975836009178416 -12.676098079065252 6.4949703830781553 -0.86602541151947299 0 0.49999998660252726 0.49999998660252726 0 0.86602541151947299 1 I I #
point $-1 -60.757413437202821 -12.676098079065252 9.2556153306107802 #
edge $-1 $434 1 $434 0 $264 $-1 forward 7 unknown #
vertex $-1 $265 $435 #
ellipse-curve $-1 -57.975836009178416 -8.9200360899844213 6.4949703830781553 -0.86602541151947299 0 0.49999998660252726 0.49999998660252726 0 0.86602541151947299 1 I I #
point $-1 -60.757413437202821 -8.9200360899844213 9.2556153306107802 #
plane-surface $-1 64.416028321176796 0 0 -1 0 0 0 0 1 forward_v I I I I #
coedge $-1 $273 $271 $275 $378 reversed $181 $-1 #
edge $-1 $286 -13.860471598338577 $380 13.860471598338577 $285 $436 forward 7 unknown #
vertex $-1 $378 $437 #
straight-curve $-1 -64.416028321176796 -37.190146811559138 0 0 0 -1 I I #
edge $-1 $376 -37.190146811559138 $380 37.190146811559138 $374 $438 forward 7 unknown #
straight-curve $-1 0 -37.190146811559138 -13.860471598338577 -1 0 0 I I #
vertex $-1 $278 $439 #
straight-curve $-1 0 37.190146811559138 -13.860471598338577 1 0 0 I I #
point $-1 64.416028321176796 37.190146811559138 -13.860471598338577 #
point $-1 64.416028321176796 -37.190146811559138 -13.860471598338577 #
straight-curve $-1 -64.416028321176796 0 13.860471598338577 0 -1 0 I I #
point $-1 -64.416028321176796 37.190146811559138 13.860471598338577 #
point $-1 -64.416028321176796 -37.190146811559138 13.860471598338577 #
straight-curve $-1 64.416028321176796 -37.190146811559138 0 0 0 -1 I I #
straight-curve $-1 64.416028321176796 37.190146811559138 0 0 0 -1 I I #
plane-surface $-1 64.416028321176796 0 0 -1 0 0 0 0 1 forward_v I I I I #
coedge $-1 $299 $298 $309 $400 reversed $122 $-1 #
edge $-1 $305 18.936201394199969 $440 37.190146811559138 $299 $441 forward 7 unknown #
straight-curve $-1 -64.416028321176796 -18.936201394199969 5.8735583164510139 0 0 -1 I I #
straight-curve $-1 64.416028321176796 -18.936201394199969 5.8735583164510139 0 0 1 I I #
coedge $-1 $303 $302 $399 $442 forward $296 $-1 #
edge $-1 $403 -37.190146811559138 $304 -18.936201394199969 $314 $443 forward 7 unknown #
point $-1 64.416028321176796 -18.936201394199969 13.860471598338576 #
point $-1 -64.416028321176796 -18.936201394199969 13.860471598338576 #
straight-curve $-1 -64.416028321176796 -14.031587051439777 9.63376166746548 0 -1 0 I I #
coedge $-1 $309 $308 $394 $442 reversed $200 $-1 #
edge $-1 $440 -13.860471598338577 $310 -9.63376166746548 $390 $444 forward 7 unknown #
point $-1 -64.416028321176796 -37.190146811559138 9.63376166746548 #
point $-1 -64.416028321176796 -18.936201394199969 9.63376166746548 #
vertex $-1 $395 $445 #
straight-curve $-1 64.416028321176796 -37.190146811559138 0 0 0 -1 I I #
coedge $-1 $328 $327 $320 $406 forward $318 $-1 #
edge $-1 $413 79.526006654954259 $408 88.365743252480044 $405 $446 forward 7 unknown #
edge $-1 $325 54.247074828337041 $413 64.416028321176796 $324 $447 forward 7 unknown #
vertex $-1 $406 $448 #
straight-curve $-1 -32.814758173116118 -18.936201394199969 89.542170012292758 -0.75470957328743171 0 0.6560590369687036 I I #
edge $-1 $408 -12.071174258300644 $329 -1.658880013498008 $328 $449 forward 7 unknown #
point $-1 54.247074828337041 -18.936201394199969 13.860471598338577 #
point $-1 64.416028321176796 -8.5239071493973331 5.0207350008127918 #
vertex $-1 $332 $450 #
straight-curve $-1 64.416028321176796 0 13.860471598338577 0 1 0 I I #
vertex $-1 $335 $451 #
point $-1 59.363408906103331 -15.961260181399215 7.9529978981428444 #
vertex $-1 $339 $452 #
point $-1 59.363408906103331 -11.498848362198085 7.9529978981428444 #
coedge $-1 $345 $423 $347 $421 reversed $242 $-1 #
straight-curve $-1 -64.416028321176796 -6.4159947639305273 33.667367417498433 0 0 -1 I I #
edge $-1 $348 6.4159947639305273 $428 18.936201394199969 $419 $453 forward 7 unknown #
point $-1 -64.416028321176796 -6.4159947639305273 13.860471598338577 #
coedge $-1 $419 $350 $353 $425 forward $242 $-1 #
straight-curve $-1 -64.416028321176796 -6.3380490395326241 2.9187082398439648 0 -1 0 I I #
edge $-1 $354 -30.74865917765446 $428 -19.806895819159855 $423 $454 forward 7 unknown #
point $-1 -64.416028321176796 -18.936201394199969 2.9187082398439732 #
point $-1 -64.416028321176796 -6.4159947639305273 2.9187082398439732 #
vertex $-1 $425 $455 #
straight-curve $-1 0 -18.936201394199969 13.860471598338577 1 0 0 I I #
vertex $-1 $361 $456 #
point $-1 -57.475836022575891 -16.432160068146082 7.3609957945976285 #
vertex $-1 $365 $457 #
point $-1 -57.475836022575891 -12.676098079065252 7.3609957945976285 #
vertex $-1 $369 $458 #
point $-1 -57.475836022575891 -8.9200360899844213 7.3609957945976285 #
straight-curve $-1 -64.416028321176796 37.190146811559138 0 0 0 -1 I I #
point $-1 -64.416028321176796 -37.190146811559138 -13.860471598338577 #
straight-curve $-1 -64.416028321176796 0 -13.860471598338577 0 1 0 I I #
point $-1 -64.416028321176796 37.190146811559138 -13.860471598338577 #
vertex $-1 $391 $459 #
straight-curve $-1 -64.416028321176796 0 13.860471598338577 0 -1 0 I I #
edge $-1 $440 -64.416028321176796 $403 64.416028321176796 $399 $460 forward 7 unknown #
straight-curve $-1 64.416028321176796 0 13.860471598338577 0 1 0 I I #
straight-curve $-1 -64.416028321176796 -37.190146811559138 0 0 0 -1 I I #
point $-1 64.416028321176796 -37.190146811559138 13.860471598338577 #
straight-curve $-1 64.416028321176796 -18.936201394199969 93.386478253292836 0 0 -1 I I #
straight-curve $-1 0 -18.936201394199969 13.860471598338577 1 0 0 I I #
point $-1 64.416028321176796 -18.936201394199969 5.0207350008127918 #
straight-curve $-1 64.416028321176796 -6.8650271358993251 5.0207350008127847 0 1 0 I I #
point $-1 64.416028321176796 -18.936201394199969 13.860471598338576 #
point $-1 57.952640295847196 -15.961260181399215 7.8543473618241162 #
point $-1 57.952640295847196 -11.498848362198085 7.8543473618241162 #
straight-curve $-1 -64.416028321176796 0 13.860471598338577 0 -1 0 I I #
straight-curve $-1 -64.416028321176796 -18.936201394199969 33.667367417498433 0 0 1 I I #
point $-1 -64.416028321176796 -18.936201394199969 13.860471598338576 #
point $-1 -57.109810597658942 -16.432160068146082 5.9949703964756287 #
point $-1 -57.109810597658942 -12.676098079065252 5.9949703964756287 #
point $-1 -57.109810597658942 -8.9200360899844213 5.9949703964756287 #
point $-1 -64.416028321176796 -37.190146811559138 13.860471598338577 #
straight-curve $-1 0 -37.190146811559138 13.860471598338577 1 0 0 I I #
End-of-ACIS-data 