500 0 5 0           
7 Unknown 11 ACIS 5.0 NT 24 Fri Mar 26 19:55:19 1999 
-1 9.9999999999999995e-007 1e-010 
body $-1 $5 $-1 $6 #
body $-1 $7 $-1 $8 #
body $-1 $9 $-1 $10 #
body $-1 $11 $-1 $12 #
body $-1 $13 $-1 $14 #
lump $-1 $-1 $15 $0 #
transform $-1 1 0 0 0 1 0 0 0 1 78.660847804193239 38.018729598675151 15.357979501720134 1 rotate no_reflect no_shear #
lump $-1 $-1 $16 $1 #
transform $-1 1 0 0 0 1 0 0 0 1 78.660847804193239 38.018729598675151 15.357979501720134 1 rotate no_reflect no_shear #
lump $-1 $-1 $17 $2 #
transform $-1 1 0 0 0 1 0 0 0 1 78.660847804193239 38.018729598675151 15.357979501720134 1 rotate no_reflect no_shear #
lump $-1 $-1 $18 $3 #
transform $-1 1 0 0 0 1 0 0 0 1 78.660847804193239 38.018729598675151 15.357979501720134 1 rotate no_reflect no_shear #
lump $-1 $-1 $19 $4 #
transform $-1 1 0 0 0 1 0 0 0 1 78.660847804193239 38.018729598675151 15.357979501720134 1 rotate no_reflect no_shear #
shell $-1 $-1 $-1 $20 $-1 $5 #
shell $-1 $-1 $-1 $21 $-1 $7 #
shell $-1 $-1 $-1 $22 $-1 $9 #
shell $-1 $-1 $-1 $23 $-1 $11 #
shell $-1 $-1 $-1 $24 $-1 $13 #
face $-1 $25 $26 $15 $-1 $27 forward single #
face $-1 $28 $29 $16 $-1 $30 reversed single #
face $-1 $31 $32 $17 $-1 $33 forward single #
face $-1 $34 $35 $18 $-1 $36 reversed single #
face $-1 $37 $38 $19 $-1 $39 reversed single #
face $-1 $40 $41 $15 $-1 $42 reversed single #
loop $-1 $-1 $43 $20 #
plane-surface $-1 0 0 15.357979501720134 0 0 1 1 0 0 forward_v I I I I #
face $-1 $44 $45 $16 $-1 $46 reversed single #
loop $-1 $-1 $47 $21 #
plane-surface $-1 -87.315048396144931 -26.606439212848599 0 0 1 0 0 0 1 forward_v I I I I #
face $-1 $48 $49 $17 $-1 $50 forward single #
loop $-1 $-1 $51 $22 #
plane-surface $-1 65.687387802762075 -38.018729598675137 5.1887900016682948 0 -0.74314483375859142 0.66913059716165679 1 0 0 forward_v I I I I #
face $-1 $52 $53 $18 $-1 $54 reversed single #
loop $-1 $55 $56 $23 #
cone-surface $-1 60.127333516434462 -29.923875354146055 7.1069657284485128 0 0.74314483375859142 -0.66913059716165679 3 0 0 1 I I 0 1 3 forward I I I I #
face $-1 $57 $58 $19 $-1 $59 reversed single #
loop $-1 $60 $61 $24 #
cone-surface $-1 71.247442089089716 -29.923875354146055 7.1069657284485128 0 0.74314483375859142 -0.66913059716165679 3 0 0 1 I I 0 1 3 forward I I I I #
face $-1 $62 $63 $15 $-1 $64 reversed single #
loop $-1 $-1 $65 $25 #
plane-surface $-1 0 0 -15.357979501720134 0 0 1 1 0 0 forward_v I I I I #
coedge $-1 $66 $67 $68 $69 forward $26 $-1 #
face $-1 $70 $71 $16 $-1 $72 reversed single #
loop $-1 $-1 $73 $28 #
plane-surface $-1 -95.969248988096609 -22.323106369671933 0 1 0 0 0 0 -1 forward_v I I I I #
coedge $-1 $74 $75 $76 $77 forward $29 $-1 #
face $-1 $78 $79 $17 $-1 $80 forward single #
loop $-1 $-1 $81 $31 #
plane-surface $-1 52.713927801330925 -154.93153492818925 110.45755013059235 1 0 0 0 0.74314483375859142 -0.66913059716165679 forward_v I I I I #
coedge $-1 $82 $83 $84 $85 reversed $32 $-1 #
face $-1 $86 $87 $18 $-1 $88 forward single #
loop $-1 $89 $90 $34 #
cone-surface $-1 60.127333516434462 -25.292493421573916 2.9368508094603172 0 0.74314483375859142 -0.66913059716165679 1.5 0 0 1 I I -0.70710678118654757 0.70710678118654757 1.5 forward I I I I #
loop $-1 $-1 $91 $23 #
coedge $-1 $56 $56 $92 $93 reversed $35 $-1 #
face $-1 $94 $95 $19 $-1 $96 reversed single #
loop $-1 $97 $98 $37 #
cone-surface $-1 71.247442089089716 -25.292493421573916 2.9368508094603172 0 0.74314483375859142 -0.66913059716165679 1.5 0 0 1 I I -0.70710678118654757 0.70710678118654757 1.5 forward I I I I #
loop $-1 $-1 $99 $24 #
coedge $-1 $61 $61 $100 $101 reversed $38 $-1 #
face $-1 $102 $103 $15 $-1 $104 reversed single #
loop $-1 $-1 $105 $40 #
plane-surface $-1 0 -38.018729598675151 0 0 1 0 0 0 1 forward_v I I I I #
coedge $-1 $106 $107 $108 $109 forward $41 $-1 #
coedge $-1 $110 $43 $111 $112 forward $26 $-1 #
coedge $-1 $43 $110 $113 $114 forward $26 $-1 #
coedge $-1 $115 $116 $43 $69 reversed $117 $-1 #
edge $-1 $118 -38.018729598675151 $119 38.018729598675151 $68 $120 forward 7 unknown #
face $-1 $121 $122 $16 $-1 $123 reversed single #
loop $-1 $-1 $124 $44 #
plane-surface $-1 -87.315048396144931 -18.039773526495267 0 0 -1 0 0 0 -1 forward_v I I I I #
coedge $-1 $125 $126 $127 $128 forward $45 $-1 #
coedge $-1 $129 $47 $130 $131 reversed $29 $-1 #
coedge $-1 $47 $129 $132 $133 reversed $29 $-1 #
coedge $-1 $126 $125 $47 $77 reversed $45 $-1 #
edge $-1 $134 -15.357979501720134 $135 15.357979501720134 $76 $136 forward 7 unknown #
face $-1 $137 $138 $17 $-1 $139 reversed single #
loop $-1 $-1 $140 $48 #
plane-surface $-1 0 0 15.357979501720134 0 0 1 1 0 0 forward_v I I I I #
coedge $-1 $141 $142 $140 $143 reversed $49 $-1 #
coedge $-1 $144 $51 $142 $145 reversed $32 $-1 #
coedge $-1 $51 $144 $146 $147 reversed $32 $-1 #
coedge $-1 $148 $140 $51 $85 forward $79 $-1 #
edge $-1 $149 19.870233899949888 $150 45.817153902812187 $84 $151 forward 7 unknown #
face $-1 $152 $153 $18 $-1 $154 forward single #
loop $-1 $155 $92 $52 #
plane-surface $-1 65.687387802762075 -38.018729598675137 5.1887900016682948 0 -0.74314483375859142 0.66913059716165679 1 0 0 forward_v I I I I #
loop $-1 $-1 $156 $34 #
coedge $-1 $90 $90 $91 $157 forward $53 $-1 #
coedge $-1 $91 $91 $90 $157 reversed $55 $-1 #
coedge $-1 $92 $92 $56 $93 forward $87 $-1 #
edge $-1 $158 -7.9063199041588651e-016 $158 6.2831853071795996 $92 $159 forward 7 unknown #
face $-1 $160 $161 $19 $-1 $162 reversed single #
loop $-1 $163 $164 $57 #
cone-surface $-1 60.127333516434462 -29.923875354146055 7.1069657284485128 0 0.74314483375859142 -0.66913059716165679 3 0 0 1 I I 0 1 3 forward I I I I #
loop $-1 $-1 $165 $37 #
coedge $-1 $98 $98 $99 $166 forward $58 $-1 #
coedge $-1 $99 $99 $98 $166 reversed $60 $-1 #
coedge $-1 $100 $100 $61 $101 forward $167 $-1 #
edge $-1 $168 -7.9063199041588651e-016 $168 6.2831853071795996 $100 $169 forward 7 unknown #
face $-1 $170 $171 $15 $-1 $172 reversed single #
loop $-1 $-1 $173 $62 #
plane-surface $-1 -78.660847804193239 0 0 1 0 0 0 0 -1 forward_v I I I I #
coedge $-1 $174 $113 $175 $176 forward $63 $-1 #
coedge $-1 $177 $65 $174 $178 forward $41 $-1 #
coedge $-1 $65 $177 $179 $180 forward $41 $-1 #
coedge $-1 $116 $115 $65 $109 reversed $117 $-1 #
edge $-1 $181 -38.018729598675151 $182 38.018729598675151 $108 $183 forward 7 unknown #
coedge $-1 $67 $66 $184 $185 forward $26 $-1 #
coedge $-1 $186 $187 $66 $112 reversed $171 $-1 #
edge $-1 $119 -78.660847804193239 $188 78.660847804193239 $111 $189 forward 7 unknown #
coedge $-1 $105 $190 $67 $114 reversed $63 $-1 #
edge $-1 $191 -78.660847804193239 $118 78.660847804193239 $113 $192 forward 7 unknown #
coedge $-1 $108 $68 $190 $193 forward $117 $-1 #
coedge $-1 $68 $108 $186 $194 reversed $117 $-1 #
loop $-1 $-1 $115 $170 #
vertex $-1 $69 $195 #
vertex $-1 $69 $196 #
straight-curve $-1 78.660847804193239 0 15.357979501720134 0 1 0 I I #
face $-1 $197 $198 $16 $-1 $123 reversed single #
loop $-1 $-1 $199 $70 #
plane-surface $-1 -78.660847804193239 0 0 1 0 0 0 0 -1 forward_v I I I I #
coedge $-1 $200 $201 $199 $202 reversed $71 $-1 #
coedge $-1 $76 $73 $203 $204 reversed $45 $-1 #
coedge $-1 $73 $76 $205 $206 reversed $45 $-1 #
coedge $-1 $201 $200 $73 $128 reversed $71 $-1 #
edge $-1 $207 -15.357979501720134 $208 15.357979501720134 $127 $209 forward 7 unknown #
coedge $-1 $75 $74 $210 $211 reversed $29 $-1 #
coedge $-1 $203 $212 $74 $131 forward $213 $-1 #
edge $-1 $214 -8.6542005919516782 $135 8.6542005919516782 $74 $215 forward 7 unknown #
coedge $-1 $216 $205 $75 $133 forward $217 $-1 #
edge $-1 $134 -8.6542005919516782 $218 8.6542005919516782 $75 $219 forward 7 unknown #
vertex $-1 $206 $220 #
vertex $-1 $204 $221 #
straight-curve $-1 -95.969248988096609 -26.606439212848599 0 0 0 -1 I I #
face $-1 $222 $223 $17 $-1 $224 reversed single #
loop $-1 $-1 $146 $78 #
plane-surface $-1 78.660847804193239 0 0 -1 0 0 0 0 1 forward_v I I I I #
coedge $-1 $84 $225 $81 $143 forward $79 $-1 #
coedge $-1 $142 $81 $226 $227 reversed $49 $-1 #
coedge $-1 $81 $141 $82 $145 forward $49 $-1 #
edge $-1 $228 39.447037865419475 $149 48.60341699060919 $140 $229 forward 7 unknown #
coedge $-1 $83 $82 $230 $231 reversed $32 $-1 #
edge $-1 $232 -2.1389731374768986e-014 $149 13.683994072352352 $142 $233 forward 7 unknown #
coedge $-1 $234 $235 $83 $147 forward $138 $-1 #
edge $-1 $150 -2.8922576941068385 $236 10.791736378245535 $146 $237 forward 7 unknown #
coedge $-1 $238 $84 $235 $239 forward $79 $-1 #
vertex $-1 $85 $240 #
vertex $-1 $239 $241 #
straight-curve $-1 32.843693901381037 -28.862350473485435 15.357979501720134 1 0 0 I I #
face $-1 $242 $243 $18 $-1 $244 forward single #
loop $-1 $-1 $245 $86 #
plane-surface $-1 52.713927801330925 -154.93153492818925 110.45755013059235 1 0 0 0 0.74314483375859142 -0.66913059716165679 forward_v I I I I #
loop $-1 $-1 $246 $52 #
coedge $-1 $156 $156 $-1 $247 forward $89 $-1 #
edge $-1 $248 0 $248 6.2831853071796004 $90 $249 forward 7 unknown #
vertex $-1 $93 $250 #
ellipse-curve $-1 60.127333516434462 -33.440540036080293 10.273384751694207 0 0.74314483375859142 -0.66913059716165679 3 0 0 1 I I #
face $-1 $251 $167 $19 $-1 $252 forward single #
loop $-1 $253 $254 $94 #
cone-surface $-1 60.127333516434462 -25.292493421573916 2.9368508094603172 0 0.74314483375859142 -0.66913059716165679 1.5 0 0 1 I I -0.70710678118654757 0.70710678118654757 1.5 forward I I I I #
loop $-1 $-1 $255 $57 #
coedge $-1 $164 $164 $256 $257 reversed $95 $-1 #
coedge $-1 $165 $165 $-1 $258 forward $97 $-1 #
edge $-1 $259 0 $259 6.2831853071796004 $98 $260 forward 7 unknown #
loop $-1 $261 $100 $160 #
vertex $-1 $101 $262 #
ellipse-curve $-1 71.247442089089716 -33.440540036080293 10.273384751694207 0 0.74314483375859142 -0.66913059716165679 3 0 0 1 I I #
face $-1 $-1 $117 $15 $-1 $263 reversed single #
loop $-1 $-1 $186 $102 #
plane-surface $-1 0 38.018729598675151 0 0 -1 0 0 0 -1 forward_v I I I I #
coedge $-1 $264 $184 $187 $265 forward $103 $-1 #
coedge $-1 $190 $105 $106 $178 reversed $63 $-1 #
coedge $-1 $184 $264 $105 $176 reversed $103 $-1 #
edge $-1 $191 -15.357979501720134 $266 15.357979501720134 $175 $267 forward 7 unknown #
coedge $-1 $107 $106 $264 $268 forward $41 $-1 #
edge $-1 $182 -78.660847804193239 $266 78.660847804193239 $174 $269 forward 7 unknown #
coedge $-1 $187 $186 $107 $180 reversed $171 $-1 #
edge $-1 $270 -78.660847804193239 $181 78.660847804193239 $179 $271 forward 7 unknown #
vertex $-1 $109 $272 #
vertex $-1 $193 $273 #
straight-curve $-1 78.660847804193239 0 -15.357979501720134 0 -1 0 I I #
coedge $-1 $173 $175 $110 $185 reversed $103 $-1 #
edge $-1 $188 -38.018729598675151 $191 38.018729598675151 $184 $274 forward 7 unknown #
coedge $-1 $179 $111 $116 $194 forward $171 $-1 #
coedge $-1 $111 $179 $173 $265 reversed $171 $-1 #
vertex $-1 $112 $275 #
straight-curve $-1 0 38.018729598675151 15.357979501720134 -1 0 0 I I #
coedge $-1 $113 $174 $115 $193 reversed $63 $-1 #
vertex $-1 $185 $276 #
straight-curve $-1 0 -38.018729598675151 15.357979501720134 1 0 0 I I #
edge $-1 $118 -15.357979501720134 $182 15.357979501720134 $115 $277 forward 7 unknown #
edge $-1 $119 -15.357979501720134 $181 15.357979501720134 $116 $278 forward 7 unknown #
point $-1 78.660847804193239 -38.018729598675151 15.357979501720134 #
point $-1 78.660847804193239 38.018729598675151 15.357979501720134 #
face $-1 $279 $217 $16 $-1 $280 forward single #
loop $-1 $-1 $210 $121 #
coedge $-1 $281 $282 $124 $202 forward $122 $-1 #
coedge $-1 $127 $124 $283 $284 reversed $71 $-1 #
coedge $-1 $124 $127 $285 $286 reversed $71 $-1 #
edge $-1 $287 -15.357979501720134 $288 15.357979501720134 $199 $289 forward 7 unknown #
coedge $-1 $283 $130 $125 $204 forward $213 $-1 #
edge $-1 $135 -4.283332843176666 $208 4.283332843176666 $125 $290 forward 7 unknown #
coedge $-1 $132 $285 $126 $206 forward $217 $-1 #
edge $-1 $207 -4.283332843176666 $134 4.283332843176666 $126 $291 forward 7 unknown #
vertex $-1 $286 $292 #
vertex $-1 $284 $293 #
straight-curve $-1 -95.969248988096609 -18.039773526495267 0 0 0 -1 I I #
coedge $-1 $294 $295 $129 $211 forward $198 $-1 #
edge $-1 $218 -15.357979501720134 $214 15.357979501720134 $210 $296 forward 7 unknown #
coedge $-1 $130 $297 $294 $298 forward $213 $-1 #
loop $-1 $-1 $299 $279 #
vertex $-1 $131 $300 #
straight-curve $-1 -87.315048396144931 -26.606439212848599 -15.357979501720134 -1 0 0 I I #
coedge $-1 $301 $132 $295 $302 forward $217 $-1 #
loop $-1 $-1 $303 $197 #
vertex $-1 $302 $304 #
straight-curve $-1 -87.315048396144931 -26.606439212848599 15.357979501720134 1 0 0 I I #
point $-1 -95.969248988096609 -26.606439212848599 15.357979501720134 #
point $-1 -95.969248988096609 -26.606439212848599 -15.357979501720134 #
face $-1 $305 $306 $17 $-1 $307 reversed single #
loop $-1 $-1 $308 $137 #
plane-surface $-1 -87.315048396144931 -26.606439212848599 0 0 1 0 0 0 1 forward_v I I I I #
coedge $-1 $140 $309 $310 $311 forward $79 $-1 #
coedge $-1 $310 $230 $141 $227 forward $312 $-1 #
edge $-1 $232 -50.039985063627896 $228 -39.870795563576038 $226 $313 forward 7 unknown #
vertex $-1 $227 $314 #
straight-curve $-1 52.713927801330925 -77.465767464094625 15.357979501720138 0 1 0 I I #
coedge $-1 $226 $315 $144 $231 forward $312 $-1 #
edge $-1 $236 -45.817153902812187 $232 -19.870233899949888 $230 $316 forward 7 unknown #
vertex $-1 $231 $317 #
straight-curve $-1 52.713927801330925 -38.018729598675137 5.1887900016682948 0 0.66913059716165679 0.74314483375859142 I I #
coedge $-1 $318 $146 $315 $319 forward $138 $-1 #
coedge $-1 $146 $320 $148 $239 reversed $138 $-1 #
vertex $-1 $319 $321 #
straight-curve $-1 78.660847804193239 -30.797648591488539 13.208613138446099 0 -0.66913059716165679 -0.74314483375859142 I I #
coedge $-1 $322 $148 $323 $324 forward $79 $-1 #
edge $-1 $150 -28.862350473485435 $325 38.018729598675151 $235 $326 forward 7 unknown #
point $-1 52.713927801330925 -28.862350473485435 15.357979501720134 #
point $-1 78.660847804193224 -28.862350473485435 15.357979501720134 #
face $-1 $327 $328 $18 $-1 $329 reversed single #
loop $-1 $-1 $330 $152 #
plane-surface $-1 0 0 15.357979501720134 0 0 1 1 0 0 forward_v I I I I #
coedge $-1 $331 $332 $330 $333 reversed $153 $-1 #
coedge $-1 $334 $335 $336 $337 reversed $155 $-1 #
edge $-1 $338 1 $338 0 $156 $-1 forward 7 unknown #
vertex $-1 $157 $339 #
ellipse-curve $-1 60.127333516434462 -26.407210672211804 3.9405467052028023 0 -0.74314483375859142 0.66913059716165679 3 0 0 1 I I #
point $-1 63.127333516434462 -33.440540036080307 10.273384751694223 #
face $-1 $340 $341 $19 $-1 $342 forward single #
plane-surface $-1 65.687387802762075 -38.018729598675137 5.1887900016682948 0 -0.74314483375859142 0.66913059716165679 1 0 0 forward_v I I I I #
loop $-1 $-1 $343 $94 #
coedge $-1 $254 $254 $255 $344 forward $161 $-1 #
coedge $-1 $255 $255 $254 $344 reversed $163 $-1 #
coedge $-1 $256 $256 $164 $257 forward $261 $-1 #
edge $-1 $345 -7.9063199041588651e-016 $345 6.2831853071795996 $256 $346 forward 7 unknown #
edge $-1 $347 1 $347 0 $165 $-1 forward 7 unknown #
vertex $-1 $166 $348 #
ellipse-curve $-1 71.247442089089716 -26.407210672211804 3.9405467052028023 0 -0.74314483375859142 0.66913059716165679 3 0 0 1 I I #
loop $-1 $349 $256 $160 #
point $-1 74.247442089089716 -33.440540036080307 10.273384751694223 #
plane-surface $-1 78.660847804193239 0 0 -1 0 0 0 0 1 forward_v I I I I #
coedge $-1 $175 $173 $177 $268 reversed $103 $-1 #
edge $-1 $188 -15.357979501720134 $270 15.357979501720134 $187 $350 forward 7 unknown #
vertex $-1 $268 $351 #
straight-curve $-1 -78.660847804193239 -38.018729598675151 0 0 0 -1 I I #
edge $-1 $266 -38.018729598675151 $270 38.018729598675151 $264 $352 forward 7 unknown #
straight-curve $-1 0 -38.018729598675151 -15.357979501720134 -1 0 0 I I #
vertex $-1 $180 $353 #
straight-curve $-1 0 38.018729598675151 -15.357979501720134 1 0 0 I I #
point $-1 78.660847804193239 38.018729598675151 -15.357979501720134 #
point $-1 78.660847804193239 -38.018729598675151 -15.357979501720134 #
straight-curve $-1 -78.660847804193239 0 15.357979501720134 0 -1 0 I I #
point $-1 -78.660847804193239 38.018729598675151 15.357979501720134 #
point $-1 -78.660847804193239 -38.018729598675151 15.357979501720134 #
straight-curve $-1 78.660847804193239 -38.018729598675151 0 0 0 -1 I I #
straight-curve $-1 78.660847804193239 38.018729598675151 0 0 0 -1 I I #
face $-1 $354 $213 $16 $-1 $355 reversed single #
plane-surface $-1 0 0 15.357979501720134 0 0 1 1 0 0 forward_v I I I I #
coedge $-1 $356 $199 $357 $358 reversed $122 $-1 #
coedge $-1 $199 $356 $359 $360 reversed $122 $-1 #
coedge $-1 $359 $203 $200 $284 forward $213 $-1 #
edge $-1 $208 -8.6542005919516782 $287 8.6542005919516782 $200 $361 forward 7 unknown #
coedge $-1 $205 $357 $201 $286 forward $217 $-1 #
edge $-1 $288 -8.6542005919516782 $207 8.6542005919516782 $201 $362 forward 7 unknown #
vertex $-1 $360 $363 #
vertex $-1 $286 $364 #
straight-curve $-1 -78.660847804193239 -18.039773526495267 0 0 0 1 I I #
straight-curve $-1 -95.969248988096609 -22.323106369671933 -15.357979501720134 0 1 0 I I #
straight-curve $-1 -95.969248988096609 -22.323106369671933 15.357979501720134 0 -1 0 I I #
point $-1 -95.969248988096609 -18.039773526495267 15.357979501720134 #
point $-1 -95.969248988096609 -18.039773526495267 -15.357979501720134 #
coedge $-1 $365 $210 $212 $298 reversed $198 $-1 #
coedge $-1 $210 $365 $216 $302 reversed $198 $-1 #
straight-curve $-1 -78.660847804193239 -26.606439212848599 0 0 0 -1 I I #
coedge $-1 $212 $299 $366 $367 forward $213 $-1 #
edge $-1 $368 -38.018729598675151 $214 -26.606439212848599 $294 $369 forward 7 unknown #
coedge $-1 $297 $370 $371 $372 forward $213 $-1 #
point $-1 -78.660847804193253 -26.606439212848599 -15.357979501720134 #
coedge $-1 $303 $216 $373 $374 forward $217 $-1 #
edge $-1 $218 26.606439212848599 $375 38.018729598675151 $295 $376 forward 7 unknown #
coedge $-1 $377 $301 $378 $379 forward $217 $-1 #
point $-1 -78.660847804193253 -26.606439212848599 15.357979501720134 #
face $-1 $380 $381 $17 $-1 $382 reversed single #
loop $-1 $-1 $383 $222 #
plane-surface $-1 -95.969248988096609 -22.323106369671933 0 1 0 0 0 0 -1 forward_v I I I I #
coedge $-1 $384 $385 $386 $387 forward $223 $-1 #
coedge $-1 $225 $388 $389 $390 forward $79 $-1 #
coedge $-1 $391 $226 $225 $311 reversed $312 $-1 #
edge $-1 $392 -78.660847804193239 $228 52.713927801330925 $310 $393 forward 7 unknown #
loop $-1 $-1 $226 $394 #
straight-curve $-1 52.713927801330925 -38.018729598675151 55.228775065296176 0 0 1 I I #
point $-1 52.713927801330925 -38.018729598675151 15.357979501720134 #
coedge $-1 $230 $395 $234 $319 reversed $312 $-1 #
straight-curve $-1 32.843693901381037 -38.018729598675151 5.1887900016682753 -1 0 0 I I #
point $-1 52.713927801330925 -38.018729598675151 5.1887900016682789 #
coedge $-1 $320 $234 $396 $397 reversed $138 $-1 #
edge $-1 $236 -5.1887900016682789 $398 15.357979501720134 $234 $399 forward 7 unknown #
coedge $-1 $235 $318 $400 $401 reversed $138 $-1 #
point $-1 78.660847804193224 -38.018729598675151 5.1887900016682789 #
coedge $-1 $402 $238 $403 $404 forward $79 $-1 #
coedge $-1 $400 $405 $238 $324 reversed $406 $-1 #
edge $-1 $325 -78.660847804193239 $407 78.660847804193239 $323 $408 forward 7 unknown #
vertex $-1 $239 $409 #
straight-curve $-1 78.660847804193239 0 15.357979501720134 0 1 0 I I #
face $-1 $410 $411 $18 $-1 $412 reversed single #
loop $-1 $-1 $413 $242 #
plane-surface $-1 78.660847804193239 0 0 -1 0 0 0 0 1 forward_v I I I I #
coedge $-1 $336 $414 $245 $333 forward $243 $-1 #
coedge $-1 $332 $245 $415 $416 reversed $153 $-1 #
coedge $-1 $245 $331 $334 $417 forward $153 $-1 #
edge $-1 $418 39.447037865419475 $419 48.60341699060919 $330 $420 forward 7 unknown #
coedge $-1 $421 $246 $332 $417 reversed $155 $-1 #
coedge $-1 $246 $421 $413 $422 reversed $155 $-1 #
coedge $-1 $423 $330 $246 $337 forward $243 $-1 #
edge $-1 $419 19.870233899949888 $424 45.817153902812187 $336 $425 forward 7 unknown #
vertex $-1 $247 $426 #
point $-1 63.127333516434462 -26.407210672211804 3.9405467052028023 #
face $-1 $427 $428 $19 $-1 $429 forward single #
loop $-1 $-1 $430 $251 #
plane-surface $-1 52.713927801330925 -154.93153492818925 110.45755013059235 1 0 0 0 0.74314483375859142 -0.66913059716165679 forward_v I I I I #
coedge $-1 $343 $343 $-1 $431 forward $253 $-1 #
edge $-1 $432 0 $432 6.2831853071796004 $254 $433 forward 7 unknown #
vertex $-1 $257 $434 #
ellipse-curve $-1 60.127333516434462 -33.440540036080293 10.273384751694207 0 0.74314483375859142 -0.66913059716165679 3 0 0 1 I I #
vertex $-1 $258 $435 #
point $-1 74.247442089089716 -26.407210672211804 3.9405467052028023 #
loop $-1 $-1 $436 $160 #
straight-curve $-1 -78.660847804193239 38.018729598675151 0 0 0 -1 I I #
point $-1 -78.660847804193239 -38.018729598675151 -15.357979501720134 #
straight-curve $-1 -78.660847804193239 0 -15.357979501720134 0 1 0 I I #
point $-1 -78.660847804193239 38.018729598675151 -15.357979501720134 #
face $-1 $437 $438 $16 $-1 $439 reversed single #
plane-surface $-1 0 0 -15.357979501720134 0 0 1 1 0 0 forward_v I I I I #
coedge $-1 $282 $281 $440 $441 forward $122 $-1 #
coedge $-1 $285 $377 $281 $358 forward $217 $-1 #
edge $-1 $442 -38.018729598675151 $288 18.039773526495267 $281 $376 forward 7 unknown #
coedge $-1 $370 $283 $282 $360 forward $213 $-1 #
edge $-1 $287 -18.039773526495267 $443 38.018729598675151 $282 $369 forward 7 unknown #
straight-curve $-1 -87.315048396144931 -18.039773526495267 -15.357979501720134 1 0 0 I I #
straight-curve $-1 -87.315048396144931 -18.039773526495267 15.357979501720134 -1 0 0 I I #
point $-1 -78.660847804193253 -18.039773526495267 -15.357979501720134 #
point $-1 -78.660847804193253 -18.039773526495267 15.357979501720134 #
coedge $-1 $295 $294 $444 $445 reversed $198 $-1 #
coedge $-1 $446 $444 $297 $367 reversed $438 $-1 #
edge $-1 $447 -78.660847804193239 $368 78.660847804193239 $366 $448 forward 7 unknown #
vertex $-1 $298 $449 #
straight-curve $-1 -78.660847804193239 0 -15.357979501720134 0 1 0 I I #
coedge $-1 $299 $359 $450 $451 forward $213 $-1 #
coedge $-1 $452 $453 $299 $372 reversed $454 $-1 #
edge $-1 $455 -38.018729598675151 $447 38.018729598675151 $371 $456 forward 7 unknown #
coedge $-1 $444 $446 $301 $374 reversed $438 $-1 #
edge $-1 $375 -78.660847804193239 $457 78.660847804193239 $373 $458 forward 7 unknown #
vertex $-1 $302 $459 #
straight-curve $-1 -78.660847804193239 0 15.357979501720134 0 -1 0 I I #
coedge $-1 $357 $303 $460 $461 forward $217 $-1 #
coedge $-1 $453 $452 $303 $379 reversed $454 $-1 #
edge $-1 $457 -38.018729598675151 $462 38.018729598675151 $378 $463 forward 7 unknown #
face $-1 $464 $465 $17 $-1 $466 reversed single #
loop $-1 $-1 $467 $305 #
plane-surface $-1 -87.315048396144931 -18.039773526495267 0 0 -1 0 0 0 -1 forward_v I I I I #
coedge $-1 $468 $469 $470 $471 forward $306 $-1 #
coedge $-1 $472 $308 $473 $474 reversed $223 $-1 #
coedge $-1 $308 $472 $388 $475 reversed $223 $-1 #
coedge $-1 $469 $468 $308 $387 reversed $306 $-1 #
edge $-1 $476 -15.357979501720134 $477 15.357979501720134 $386 $478 forward 7 unknown #
coedge $-1 $309 $479 $385 $475 forward $79 $-1 #
coedge $-1 $480 $481 $309 $390 reversed $482 $-1 #
edge $-1 $483 26.606439212848599 $392 38.018729598675151 $389 $484 forward 7 unknown #
coedge $-1 $395 $310 $481 $485 forward $312 $-1 #
vertex $-1 $390 $486 #
straight-curve $-1 0 -38.018729598675151 15.357979501720134 1 0 0 I I #
face $-1 $487 $312 $17 $-1 $488 reversed single #
coedge $-1 $315 $391 $489 $490 reversed $312 $-1 #
coedge $-1 $489 $491 $318 $397 forward $492 $-1 #
edge $-1 $493 -38.018729598675151 $398 38.018729598675151 $318 $494 forward 7 unknown #
vertex $-1 $319 $495 #
straight-curve $-1 78.660847804193239 -38.018729598675151 0 0 0 -1 I I #
coedge $-1 $496 $323 $320 $401 forward $406 $-1 #
edge $-1 $325 -15.357979501720134 $493 15.357979501720134 $320 $497 forward 7 unknown #
coedge $-1 $479 $322 $498 $499 forward $79 $-1 #
coedge $-1 $500 $501 $322 $404 reversed $465 $-1 #
edge $-1 $407 -38.018729598675151 $502 18.039773526495267 $403 $484 forward 7 unknown #
coedge $-1 $323 $496 $500 $503 reversed $406 $-1 #
loop $-1 $-1 $400 $487 #
vertex $-1 $324 $504 #
straight-curve $-1 0 38.018729598675151 15.357979501720134 -1 0 0 I I #
point $-1 78.660847804193239 38.018729598675151 15.357979501720134 #
face $-1 $505 $506 $18 $-1 $507 reversed single #
loop $-1 $-1 $508 $327 #
plane-surface $-1 -87.315048396144931 -26.606439212848599 0 0 1 0 0 0 1 forward_v I I I I #
coedge $-1 $509 $510 $335 $422 forward $328 $-1 #
coedge $-1 $330 $511 $512 $513 forward $243 $-1 #
coedge $-1 $512 $514 $331 $416 forward $515 $-1 #
edge $-1 $516 -50.039985063627896 $418 -39.870795563576038 $415 $517 forward 7 unknown #
edge $-1 $516 -2.1389731374768986e-014 $419 13.683994072352352 $332 $518 forward 7 unknown #
vertex $-1 $416 $519 #
vertex $-1 $337 $520 #
straight-curve $-1 52.713927801330925 -77.465767464094625 15.357979501720138 0 1 0 I I #
coedge $-1 $335 $334 $514 $521 reversed $155 $-1 #
edge $-1 $424 -2.8922576941068385 $522 10.791736378245535 $413 $523 forward 7 unknown #
coedge $-1 $524 $336 $510 $525 forward $243 $-1 #
vertex $-1 $525 $526 #
straight-curve $-1 32.843693901381037 -28.862350473485435 15.357979501720134 1 0 0 I I #
point $-1 60.127333516434462 -24.177776170936028 1.9331549137178321 #
face $-1 $527 $528 $19 $-1 $529 reversed single #
loop $-1 $-1 $530 $340 #
plane-surface $-1 0 0 15.357979501720134 0 0 1 1 0 0 forward_v I I I I #
coedge $-1 $531 $532 $530 $533 reversed $341 $-1 #
edge $-1 $534 1 $534 0 $343 $-1 forward 7 unknown #
vertex $-1 $344 $535 #
ellipse-curve $-1 60.127333516434462 -26.407210672211804 3.9405467052028023 0 -0.74314483375859142 0.66913059716165679 3 0 0 1 I I #
point $-1 63.127333516434462 -33.440540036080307 10.273384751694223 #
point $-1 71.247442089089716 -24.177776170936028 1.9331549137178321 #
coedge $-1 $536 $537 $538 $539 reversed $349 $-1 #
face $-1 $540 $541 $16 $-1 $542 reversed single #
loop $-1 $-1 $444 $354 #
plane-surface $-1 0 -38.018729598675151 0 0 1 0 0 0 1 forward_v I I I I #
coedge $-1 $460 $450 $356 $441 reversed $541 $-1 #
edge $-1 $442 -15.357979501720134 $443 15.357979501720134 $440 $543 forward 7 unknown #
vertex $-1 $461 $544 #
vertex $-1 $451 $545 #
coedge $-1 $366 $373 $365 $445 forward $438 $-1 #
edge $-1 $375 -15.357979501720134 $368 15.357979501720134 $365 $546 forward 7 unknown #
coedge $-1 $373 $366 $453 $547 reversed $438 $-1 #
vertex $-1 $547 $548 #
straight-curve $-1 0 -38.018729598675151 -15.357979501720134 -1 0 0 I I #
point $-1 -78.660847804193239 -38.018729598675151 -15.357979501720134 #
coedge $-1 $440 $549 $370 $451 reversed $541 $-1 #
edge $-1 $443 -78.660847804193239 $455 78.660847804193239 $450 $550 forward 7 unknown #
coedge $-1 $378 $371 $549 $551 reversed $454 $-1 #
coedge $-1 $371 $378 $446 $547 forward $454 $-1 #
loop $-1 $-1 $453 $540 #
vertex $-1 $372 $552 #
straight-curve $-1 78.660847804193239 0 -15.357979501720134 0 -1 0 I I #
vertex $-1 $379 $553 #
straight-curve $-1 0 -38.018729598675151 15.357979501720134 1 0 0 I I #
point $-1 -78.660847804193239 -38.018729598675151 15.357979501720134 #
coedge $-1 $549 $440 $377 $461 reversed $541 $-1 #
edge $-1 $462 -78.660847804193239 $442 78.660847804193239 $460 $554 forward 7 unknown #
vertex $-1 $379 $555 #
straight-curve $-1 78.660847804193239 0 15.357979501720134 0 1 0 I I #
face $-1 $556 $482 $17 $-1 $466 reversed single #
loop $-1 $-1 $501 $380 #
plane-surface $-1 -78.660847804193239 0 0 1 0 0 0 0 -1 forward_v I I I I #
coedge $-1 $557 $498 $501 $558 reversed $381 $-1 #
coedge $-1 $386 $383 $559 $560 reversed $306 $-1 #
coedge $-1 $383 $386 $479 $561 reversed $306 $-1 #
coedge $-1 $498 $557 $383 $471 reversed $381 $-1 #
edge $-1 $562 -15.357979501720134 $563 15.357979501720134 $470 $564 forward 7 unknown #
coedge $-1 $385 $384 $480 $565 reversed $223 $-1 #
coedge $-1 $559 $566 $384 $474 forward $492 $-1 #
edge $-1 $567 -8.6542005919516782 $477 8.6542005919516782 $384 $568 forward 7 unknown #
edge $-1 $476 -8.6542005919516782 $483 8.6542005919516782 $385 $569 forward 7 unknown #
vertex $-1 $561 $570 #
vertex $-1 $560 $571 #
straight-curve $-1 -95.969248988096609 -26.606439212848599 0 0 0 -1 I I #
coedge $-1 $388 $402 $469 $561 forward $79 $-1 #
coedge $-1 $572 $389 $472 $565 forward $482 $-1 #
coedge $-1 $389 $572 $391 $485 reversed $482 $-1 #
loop $-1 $-1 $480 $464 #
vertex $-1 $390 $573 #
straight-curve $-1 -78.660847804193239 0 15.357979501720134 0 -1 0 I I #
edge $-1 $392 -15.357979501720134 $574 15.357979501720134 $481 $575 forward 7 unknown #
point $-1 -78.660847804193239 -38.018729598675151 15.357979501720134 #
face $-1 $-1 $406 $17 $-1 $576 reversed single #
plane-surface $-1 0 -38.018729598675151 0 0 1 0 0 0 1 forward_v I I I I #
coedge $-1 $566 $396 $395 $490 forward $492 $-1 #
edge $-1 $398 -78.660847804193239 $574 78.660847804193239 $395 $577 forward 7 unknown #
coedge $-1 $396 $578 $496 $579 forward $492 $-1 #
loop $-1 $-1 $396 $556 #
vertex $-1 $397 $580 #
straight-curve $-1 78.660847804193239 0 -15.357979501720134 0 -1 0 I I #
point $-1 78.660847804193239 -38.018729598675151 -15.357979501720134 #
coedge $-1 $405 $400 $491 $579 reversed $406 $-1 #
straight-curve $-1 78.660847804193239 38.018729598675151 0 0 0 -1 I I #
coedge $-1 $467 $470 $402 $499 reversed $381 $-1 #
edge $-1 $502 -8.6542005919516782 $562 8.6542005919516782 $498 $581 forward 7 unknown #
coedge $-1 $582 $403 $405 $503 forward $465 $-1 #
coedge $-1 $403 $582 $467 $558 forward $465 $-1 #
vertex $-1 $499 $583 #
edge $-1 $407 -15.357979501720134 $584 15.357979501720134 $405 $585 forward 7 unknown #
point $-1 -78.660847804193239 38.018729598675151 15.357979501720134 #
face $-1 $586 $587 $18 $-1 $588 reversed single #
loop $-1 $-1 $589 $410 #
plane-surface $-1 -95.969248988096609 -22.323106369671933 0 1 0 0 0 0 -1 forward_v I I I I #
coedge $-1 $590 $591 $592 $593 forward $411 $-1 #
coedge $-1 $594 $413 $595 $596 forward $328 $-1 #
coedge $-1 $413 $597 $423 $525 reversed $328 $-1 #
coedge $-1 $414 $598 $599 $600 forward $243 $-1 #
coedge $-1 $601 $415 $414 $513 reversed $515 $-1 #
edge $-1 $602 -78.660847804193239 $418 52.713927801330925 $512 $603 forward 7 unknown #
coedge $-1 $415 $595 $421 $521 forward $515 $-1 #
loop $-1 $-1 $415 $604 #
vertex $-1 $521 $605 #
straight-curve $-1 52.713927801330925 -38.018729598675151 55.228775065296176 0 0 1 I I #
straight-curve $-1 52.713927801330925 -38.018729598675137 5.1887900016682948 0 0.66913059716165679 0.74314483375859142 I I #
point $-1 52.713927801330925 -38.018729598675151 15.357979501720134 #
point $-1 52.713927801330925 -28.862350473485435 15.357979501720134 #
edge $-1 $522 -45.817153902812187 $516 -19.870233899949888 $514 $606 forward 7 unknown #
vertex $-1 $596 $607 #
straight-curve $-1 78.660847804193239 -30.797648591488539 13.208613138446099 0 -0.66913059716165679 -0.74314483375859142 I I #
coedge $-1 $608 $423 $609 $610 forward $243 $-1 #
edge $-1 $424 -28.862350473485435 $611 38.018729598675151 $510 $612 forward 7 unknown #
point $-1 78.660847804193224 -28.862350473485435 15.357979501720134 #
face $-1 $613 $614 $19 $-1 $615 reversed single #
loop $-1 $-1 $616 $427 #
plane-surface $-1 78.660847804193239 0 0 -1 0 0 0 0 1 forward_v I I I I #
coedge $-1 $538 $617 $430 $533 forward $428 $-1 #
coedge $-1 $532 $430 $618 $619 reversed $341 $-1 #
coedge $-1 $430 $531 $536 $620 forward $341 $-1 #
edge $-1 $621 39.447037865419475 $622 48.60341699060919 $530 $623 forward 7 unknown #
vertex $-1 $431 $624 #
point $-1 63.127333516434462 -26.407210672211804 3.9405467052028023 #
coedge $-1 $625 $436 $532 $620 reversed $349 $-1 #
coedge $-1 $436 $625 $616 $626 reversed $349 $-1 #
coedge $-1 $627 $530 $436 $539 forward $428 $-1 #
edge $-1 $622 19.870233899949888 $628 45.817153902812187 $538 $629 forward 7 unknown #
face $-1 $-1 $454 $16 $-1 $630 reversed single #
loop $-1 $-1 $549 $437 #
plane-surface $-1 0 38.018729598675151 0 0 -1 0 0 0 -1 forward_v I I I I #
straight-curve $-1 -78.660847804193239 38.018729598675151 0 0 0 -1 I I #
point $-1 -78.660847804193239 38.018729598675151 15.357979501720134 #
point $-1 -78.660847804193239 38.018729598675151 -15.357979501720134 #
straight-curve $-1 -78.660847804193239 -38.018729598675151 0 0 0 -1 I I #
edge $-1 $457 -15.357979501720134 $447 15.357979501720134 $453 $631 forward 7 unknown #
point $-1 78.660847804193239 -38.018729598675151 -15.357979501720134 #
coedge $-1 $450 $460 $452 $551 forward $541 $-1 #
straight-curve $-1 0 38.018729598675151 -15.357979501720134 1 0 0 I I #
edge $-1 $462 -15.357979501720134 $455 15.357979501720134 $452 $632 forward 7 unknown #
point $-1 78.660847804193239 38.018729598675151 -15.357979501720134 #
point $-1 78.660847804193239 -38.018729598675151 15.357979501720134 #
straight-curve $-1 0 38.018729598675151 15.357979501720134 -1 0 0 I I #
point $-1 78.660847804193239 38.018729598675151 15.357979501720134 #
face $-1 $394 $492 $17 $-1 $633 reversed single #
coedge $-1 $470 $467 $634 $635 reversed $381 $-1 #
edge $-1 $636 -15.357979501720134 $502 15.357979501720134 $501 $637 forward 7 unknown #
coedge $-1 $634 $473 $468 $560 forward $492 $-1 #
edge $-1 $477 -4.283332843176666 $563 4.283332843176666 $468 $638 forward 7 unknown #
edge $-1 $562 -4.283332843176666 $476 4.283332843176666 $469 $639 forward 7 unknown #
vertex $-1 $499 $640 #
vertex $-1 $635 $641 #
straight-curve $-1 -95.969248988096609 -18.039773526495267 0 0 0 -1 I I #
edge $-1 $483 -15.357979501720134 $567 15.357979501720134 $480 $642 forward 7 unknown #
coedge $-1 $473 $489 $572 $643 forward $492 $-1 #
vertex $-1 $474 $644 #
straight-curve $-1 -87.315048396144931 -26.606439212848599 -15.357979501720134 -1 0 0 I I #
straight-curve $-1 -87.315048396144931 -26.606439212848599 15.357979501720134 1 0 0 I I #
point $-1 -95.969248988096609 -26.606439212848599 15.357979501720134 #
point $-1 -95.969248988096609 -26.606439212848599 -15.357979501720134 #
coedge $-1 $481 $480 $566 $643 reversed $482 $-1 #
point $-1 -78.660847804193253 -26.606439212848599 15.357979501720134 #
vertex $-1 $643 $645 #
straight-curve $-1 -78.660847804193239 -38.018729598675151 0 0 0 -1 I I #
plane-surface $-1 0 38.018729598675151 0 0 -1 0 0 0 -1 forward_v I I I I #
straight-curve $-1 0 -38.018729598675151 -15.357979501720134 -1 0 0 I I #
coedge $-1 $491 $634 $582 $646 forward $492 $-1 #
edge $-1 $584 -78.660847804193239 $493 78.660847804193239 $496 $647 forward 7 unknown #
point $-1 78.660847804193239 38.018729598675151 -15.357979501720134 #
straight-curve $-1 -87.315048396144931 -18.039773526495267 15.357979501720134 -1 0 0 I I #
coedge $-1 $501 $500 $578 $646 reversed $465 $-1 #
point $-1 -78.660847804193253 -18.039773526495267 15.357979501720134 #
vertex $-1 $579 $648 #
straight-curve $-1 -78.660847804193239 38.018729598675151 0 0 0 -1 I I #
face $-1 $649 $650 $18 $-1 $651 reversed single #
loop $-1 $-1 $652 $505 #
plane-surface $-1 -87.315048396144931 -18.039773526495267 0 0 -1 0 0 0 -1 forward_v I I I I #
coedge $-1 $653 $654 $655 $656 forward $506 $-1 #
coedge $-1 $657 $508 $658 $659 reversed $411 $-1 #
coedge $-1 $508 $657 $598 $660 reversed $411 $-1 #
coedge $-1 $654 $653 $508 $593 reversed $506 $-1 #
edge $-1 $661 -15.357979501720134 $662 15.357979501720134 $592 $663 forward 7 unknown #
coedge $-1 $597 $509 $664 $665 reversed $328 $-1 #
coedge $-1 $514 $666 $509 $596 reversed $515 $-1 #
edge $-1 $522 -5.1887900016682789 $667 15.357979501720134 $509 $668 forward 7 unknown #
coedge $-1 $510 $594 $669 $670 reversed $328 $-1 #
coedge $-1 $511 $671 $591 $660 forward $243 $-1 #
coedge $-1 $672 $673 $511 $600 reversed $674 $-1 #
edge $-1 $675 26.606439212848599 $602 38.018729598675151 $599 $676 forward 7 unknown #
coedge $-1 $666 $512 $673 $677 forward $515 $-1 #
vertex $-1 $600 $678 #
straight-curve $-1 0 -38.018729598675151 15.357979501720134 1 0 0 I I #
face $-1 $679 $515 $18 $-1 $680 reversed single #
point $-1 52.713927801330925 -38.018729598675151 5.1887900016682789 #
straight-curve $-1 32.843693901381037 -38.018729598675151 5.1887900016682753 -1 0 0 I I #
point $-1 78.660847804193224 -38.018729598675151 5.1887900016682789 #
coedge $-1 $681 $524 $682 $683 forward $243 $-1 #
coedge $-1 $669 $684 $524 $610 reversed $685 $-1 #
edge $-1 $611 -78.660847804193239 $686 78.660847804193239 $609 $687 forward 7 unknown #
vertex $-1 $525 $688 #
straight-curve $-1 78.660847804193239 0 15.357979501720134 0 1 0 I I #
face $-1 $689 $690 $19 $-1 $691 reversed single #
loop $-1 $-1 $692 $527 #
plane-surface $-1 -87.315048396144931 -26.606439212848599 0 0 1 0 0 0 1 forward_v I I I I #
coedge $-1 $693 $694 $537 $626 forward $528 $-1 #
coedge $-1 $530 $695 $696 $697 forward $428 $-1 #
coedge $-1 $696 $698 $531 $619 forward $699 $-1 #
edge $-1 $700 -50.039985063627896 $621 -39.870795563576038 $618 $701 forward 7 unknown #
edge $-1 $700 -2.1389731374768986e-014 $622 13.683994072352352 $532 $702 forward 7 unknown #
vertex $-1 $619 $703 #
vertex $-1 $539 $704 #
straight-curve $-1 52.713927801330925 -77.465767464094625 15.357979501720138 0 1 0 I I #
point $-1 60.127333516434462 -24.177776170936028 1.9331549137178321 #
coedge $-1 $537 $536 $698 $705 reversed $349 $-1 #
edge $-1 $628 -2.8922576941068385 $706 10.791736378245535 $616 $707 forward 7 unknown #
coedge $-1 $708 $538 $694 $709 forward $428 $-1 #
vertex $-1 $709 $710 #
straight-curve $-1 32.843693901381037 -28.862350473485435 15.357979501720134 1 0 0 I I #
plane-surface $-1 78.660847804193239 0 0 -1 0 0 0 0 1 forward_v I I I I #
straight-curve $-1 78.660847804193239 -38.018729598675151 0 0 0 -1 I I #
straight-curve $-1 78.660847804193239 38.018729598675151 0 0 0 -1 I I #
plane-surface $-1 0 0 -15.357979501720134 0 0 1 1 0 0 forward_v I I I I #
coedge $-1 $578 $559 $557 $635 forward $492 $-1 #
edge $-1 $563 -8.6542005919516782 $636 8.6542005919516782 $557 $711 forward 7 unknown #
vertex $-1 $646 $712 #
straight-curve $-1 -78.660847804193239 -18.039773526495267 0 0 0 1 I I #
straight-curve $-1 -95.969248988096609 -22.323106369671933 -15.357979501720134 0 1 0 I I #
straight-curve $-1 -95.969248988096609 -22.323106369671933 15.357979501720134 0 -1 0 I I #
point $-1 -95.969248988096609 -18.039773526495267 15.357979501720134 #
point $-1 -95.969248988096609 -18.039773526495267 -15.357979501720134 #
straight-curve $-1 -78.660847804193239 -26.606439212848599 0 0 0 -1 I I #
edge $-1 $574 -38.018729598675151 $567 -26.606439212848599 $572 $713 forward 7 unknown #
point $-1 -78.660847804193253 -26.606439212848599 -15.357979501720134 #
point $-1 -78.660847804193239 -38.018729598675151 -15.357979501720134 #
edge $-1 $636 -18.039773526495267 $584 38.018729598675151 $582 $713 forward 7 unknown #
straight-curve $-1 0 38.018729598675151 -15.357979501720134 1 0 0 I I #
point $-1 -78.660847804193239 38.018729598675151 -15.357979501720134 #
face $-1 $714 $674 $18 $-1 $651 reversed single #
loop $-1 $-1 $715 $586 #
plane-surface $-1 -78.660847804193239 0 0 1 0 0 0 0 -1 forward_v I I I I #
coedge $-1 $716 $717 $715 $718 reversed $587 $-1 #
coedge $-1 $592 $589 $719 $720 reversed $506 $-1 #
coedge $-1 $589 $592 $671 $721 reversed $506 $-1 #
coedge $-1 $717 $716 $589 $656 reversed $587 $-1 #
edge $-1 $722 -15.357979501720134 $723 15.357979501720134 $655 $724 forward 7 unknown #
coedge $-1 $591 $590 $672 $725 reversed $411 $-1 #
coedge $-1 $719 $726 $590 $659 forward $727 $-1 #
edge $-1 $728 -8.6542005919516782 $662 8.6542005919516782 $590 $729 forward 7 unknown #
edge $-1 $661 -8.6542005919516782 $675 8.6542005919516782 $591 $730 forward 7 unknown #
vertex $-1 $721 $731 #
vertex $-1 $720 $732 #
straight-curve $-1 -95.969248988096609 -26.606439212848599 0 0 0 -1 I I #
coedge $-1 $733 $734 $594 $665 forward $727 $-1 #
edge $-1 $735 -38.018729598675151 $667 38.018729598675151 $594 $736 forward 7 unknown #
coedge $-1 $595 $601 $733 $737 reversed $515 $-1 #
vertex $-1 $596 $738 #
straight-curve $-1 78.660847804193239 -38.018729598675151 0 0 0 -1 I I #
coedge $-1 $739 $609 $597 $670 forward $685 $-1 #
edge $-1 $611 -15.357979501720134 $735 15.357979501720134 $597 $740 forward 7 unknown #
coedge $-1 $598 $681 $654 $721 forward $243 $-1 #
coedge $-1 $741 $599 $657 $725 forward $674 $-1 #
coedge $-1 $599 $741 $601 $677 reversed $674 $-1 #
loop $-1 $-1 $672 $649 #
vertex $-1 $600 $742 #
straight-curve $-1 -78.660847804193239 0 15.357979501720134 0 -1 0 I I #
edge $-1 $602 -15.357979501720134 $743 15.357979501720134 $673 $744 forward 7 unknown #
point $-1 -78.660847804193239 -38.018729598675151 15.357979501720134 #
face $-1 $-1 $685 $18 $-1 $745 reversed single #
plane-surface $-1 0 -38.018729598675151 0 0 1 0 0 0 1 forward_v I I I I #
coedge $-1 $671 $608 $717 $746 forward $243 $-1 #
coedge $-1 $747 $715 $608 $683 reversed $650 $-1 #
edge $-1 $686 -38.018729598675151 $748 18.039773526495267 $682 $676 forward 7 unknown #
coedge $-1 $609 $739 $747 $749 reversed $685 $-1 #
loop $-1 $-1 $669 $679 #
vertex $-1 $610 $750 #
straight-curve $-1 0 38.018729598675151 15.357979501720134 -1 0 0 I I #
point $-1 78.660847804193239 38.018729598675151 15.357979501720134 #
face $-1 $751 $752 $19 $-1 $753 reversed single #
loop $-1 $-1 $754 $613 #
plane-surface $-1 -95.969248988096609 -22.323106369671933 0 1 0 0 0 0 -1 forward_v I I I I #
coedge $-1 $755 $756 $757 $758 forward $614 $-1 #
coedge $-1 $759 $616 $760 $761 forward $528 $-1 #
coedge $-1 $616 $762 $627 $709 reversed $528 $-1 #
coedge $-1 $617 $763 $764 $765 forward $428 $-1 #
coedge $-1 $766 $618 $617 $697 reversed $699 $-1 #
edge $-1 $767 -78.660847804193239 $621 52.713927801330925 $696 $768 forward 7 unknown #
coedge $-1 $618 $760 $625 $705 forward $699 $-1 #
loop $-1 $-1 $618 $769 #
vertex $-1 $705 $770 #
straight-curve $-1 52.713927801330925 -38.018729598675151 55.228775065296176 0 0 1 I I #
straight-curve $-1 52.713927801330925 -38.018729598675137 5.1887900016682948 0 0.66913059716165679 0.74314483375859142 I I #
point $-1 52.713927801330925 -38.018729598675151 15.357979501720134 #
point $-1 52.713927801330925 -28.862350473485435 15.357979501720134 #
edge $-1 $706 -45.817153902812187 $700 -19.870233899949888 $698 $771 forward 7 unknown #
vertex $-1 $761 $772 #
straight-curve $-1 78.660847804193239 -30.797648591488539 13.208613138446099 0 -0.66913059716165679 -0.74314483375859142 I I #
coedge $-1 $773 $627 $774 $775 forward $428 $-1 #
edge $-1 $628 -28.862350473485435 $776 38.018729598675151 $694 $777 forward 7 unknown #
point $-1 78.660847804193224 -28.862350473485435 15.357979501720134 #
straight-curve $-1 -87.315048396144931 -18.039773526495267 -15.357979501720134 1 0 0 I I #
point $-1 -78.660847804193253 -18.039773526495267 -15.357979501720134 #
straight-curve $-1 -78.660847804193239 0 -15.357979501720134 0 1 0 I I #
face $-1 $604 $727 $18 $-1 $778 reversed single #
coedge $-1 $682 $779 $652 $718 forward $650 $-1 #
coedge $-1 $655 $652 $780 $781 reversed $587 $-1 #
coedge $-1 $652 $655 $681 $746 reversed $587 $-1 #
edge $-1 $782 -15.357979501720134 $748 15.357979501720134 $715 $783 forward 7 unknown #
coedge $-1 $780 $658 $653 $720 forward $727 $-1 #
edge $-1 $662 -4.283332843176666 $723 4.283332843176666 $653 $784 forward 7 unknown #
edge $-1 $722 -4.283332843176666 $661 4.283332843176666 $654 $785 forward 7 unknown #
vertex $-1 $746 $786 #
vertex $-1 $781 $787 #
straight-curve $-1 -95.969248988096609 -18.039773526495267 0 0 0 -1 I I #
edge $-1 $675 -15.357979501720134 $728 15.357979501720134 $672 $788 forward 7 unknown #
coedge $-1 $658 $733 $741 $789 forward $727 $-1 #
loop $-1 $-1 $664 $714 #
vertex $-1 $659 $790 #
straight-curve $-1 -87.315048396144931 -26.606439212848599 -15.357979501720134 -1 0 0 I I #
straight-curve $-1 -87.315048396144931 -26.606439212848599 15.357979501720134 1 0 0 I I #
point $-1 -95.969248988096609 -26.606439212848599 15.357979501720134 #
point $-1 -95.969248988096609 -26.606439212848599 -15.357979501720134 #
coedge $-1 $726 $664 $666 $737 forward $727 $-1 #
coedge $-1 $664 $791 $739 $792 forward $727 $-1 #
vertex $-1 $665 $793 #
straight-curve $-1 78.660847804193239 0 -15.357979501720134 0 -1 0 I I #
edge $-1 $667 -78.660847804193239 $743 78.660847804193239 $666 $794 forward 7 unknown #
point $-1 78.660847804193239 -38.018729598675151 -15.357979501720134 #
coedge $-1 $684 $669 $734 $792 reversed $685 $-1 #
straight-curve $-1 78.660847804193239 38.018729598675151 0 0 0 -1 I I #
coedge $-1 $673 $672 $726 $789 reversed $674 $-1 #
point $-1 -78.660847804193253 -26.606439212848599 15.357979501720134 #
vertex $-1 $789 $795 #
straight-curve $-1 -78.660847804193239 -38.018729598675151 0 0 0 -1 I I #
plane-surface $-1 0 38.018729598675151 0 0 -1 0 0 0 -1 forward_v I I I I #
edge $-1 $748 -8.6542005919516782 $722 8.6542005919516782 $717 $796 forward 7 unknown #
coedge $-1 $779 $682 $684 $749 forward $650 $-1 #
vertex $-1 $746 $797 #
edge $-1 $686 -15.357979501720134 $798 15.357979501720134 $684 $799 forward 7 unknown #
point $-1 -78.660847804193239 38.018729598675151 15.357979501720134 #
face $-1 $800 $801 $19 $-1 $802 reversed single #
loop $-1 $-1 $803 $689 #
plane-surface $-1 -87.315048396144931 -18.039773526495267 0 0 -1 0 0 0 -1 forward_v I I I I #
coedge $-1 $804 $805 $806 $807 forward $690 $-1 #
coedge $-1 $808 $692 $809 $810 reversed $614 $-1 #
coedge $-1 $692 $808 $763 $811 reversed $614 $-1 #
coedge $-1 $805 $804 $692 $758 reversed $690 $-1 #
edge $-1 $812 -15.357979501720134 $813 15.357979501720134 $757 $814 forward 7 unknown #
coedge $-1 $762 $693 $815 $816 reversed $528 $-1 #
coedge $-1 $698 $817 $693 $761 reversed $699 $-1 #
edge $-1 $706 -5.1887900016682789 $818 15.357979501720134 $693 $819 forward 7 unknown #
coedge $-1 $694 $759 $820 $821 reversed $528 $-1 #
coedge $-1 $695 $822 $756 $811 forward $428 $-1 #
coedge $-1 $823 $824 $695 $765 reversed $825 $-1 #
edge $-1 $826 26.606439212848599 $767 38.018729598675151 $764 $827 forward 7 unknown #
coedge $-1 $817 $696 $824 $828 forward $699 $-1 #
vertex $-1 $765 $829 #
straight-curve $-1 0 -38.018729598675151 15.357979501720134 1 0 0 I I #
face $-1 $830 $699 $19 $-1 $831 reversed single #
point $-1 52.713927801330925 -38.018729598675151 5.1887900016682789 #
straight-curve $-1 32.843693901381037 -38.018729598675151 5.1887900016682753 -1 0 0 I I #
point $-1 78.660847804193224 -38.018729598675151 5.1887900016682789 #
coedge $-1 $832 $708 $833 $834 forward $428 $-1 #
coedge $-1 $820 $835 $708 $775 reversed $836 $-1 #
edge $-1 $776 -78.660847804193239 $837 78.660847804193239 $774 $838 forward 7 unknown #
vertex $-1 $709 $839 #
straight-curve $-1 78.660847804193239 0 15.357979501720134 0 1 0 I I #
plane-surface $-1 0 0 -15.357979501720134 0 0 1 1 0 0 forward_v I I I I #
coedge $-1 $715 $747 $791 $840 reversed $650 $-1 #
coedge $-1 $791 $719 $716 $781 forward $727 $-1 #
edge $-1 $723 -8.6542005919516782 $782 8.6542005919516782 $716 $841 forward 7 unknown #
vertex $-1 $840 $842 #
straight-curve $-1 -78.660847804193239 -18.039773526495267 0 0 0 1 I I #
straight-curve $-1 -95.969248988096609 -22.323106369671933 -15.357979501720134 0 1 0 I I #
straight-curve $-1 -95.969248988096609 -22.323106369671933 15.357979501720134 0 -1 0 I I #
point $-1 -95.969248988096609 -18.039773526495267 15.357979501720134 #
point $-1 -95.969248988096609 -18.039773526495267 -15.357979501720134 #
straight-curve $-1 -78.660847804193239 -26.606439212848599 0 0 0 -1 I I #
edge $-1 $743 -38.018729598675151 $728 -26.606439212848599 $741 $843 forward 7 unknown #
point $-1 -78.660847804193253 -26.606439212848599 -15.357979501720134 #
coedge $-1 $734 $780 $779 $840 forward $727 $-1 #
edge $-1 $798 -78.660847804193239 $735 78.660847804193239 $739 $844 forward 7 unknown #
point $-1 78.660847804193239 38.018729598675151 -15.357979501720134 #
straight-curve $-1 0 -38.018729598675151 -15.357979501720134 -1 0 0 I I #
point $-1 -78.660847804193239 -38.018729598675151 -15.357979501720134 #
straight-curve $-1 -87.315048396144931 -18.039773526495267 15.357979501720134 -1 0 0 I I #
point $-1 -78.660847804193253 -18.039773526495267 15.357979501720134 #
vertex $-1 $792 $845 #
straight-curve $-1 -78.660847804193239 38.018729598675151 0 0 0 -1 I I #
face $-1 $846 $825 $19 $-1 $802 reversed single #
loop $-1 $-1 $847 $751 #
plane-surface $-1 -78.660847804193239 0 0 1 0 0 0 0 -1 forward_v I I I I #
coedge $-1 $848 $849 $847 $850 reversed $752 $-1 #
coedge $-1 $757 $754 $851 $852 reversed $690 $-1 #
coedge $-1 $754 $757 $822 $853 reversed $690 $-1 #
coedge $-1 $849 $848 $754 $807 reversed $752 $-1 #
edge $-1 $854 -15.357979501720134 $855 15.357979501720134 $806 $856 forward 7 unknown #
coedge $-1 $756 $755 $823 $857 reversed $614 $-1 #
coedge $-1 $851 $858 $755 $810 forward $859 $-1 #
edge $-1 $860 -8.6542005919516782 $813 8.6542005919516782 $755 $861 forward 7 unknown #
edge $-1 $812 -8.6542005919516782 $826 8.6542005919516782 $756 $862 forward 7 unknown #
vertex $-1 $853 $863 #
vertex $-1 $852 $864 #
straight-curve $-1 -95.969248988096609 -26.606439212848599 0 0 0 -1 I I #
coedge $-1 $865 $866 $759 $816 forward $859 $-1 #
edge $-1 $867 -38.018729598675151 $818 38.018729598675151 $759 $868 forward 7 unknown #
coedge $-1 $760 $766 $865 $869 reversed $699 $-1 #
vertex $-1 $761 $870 #
straight-curve $-1 78.660847804193239 -38.018729598675151 0 0 0 -1 I I #
coedge $-1 $871 $774 $762 $821 forward $836 $-1 #
edge $-1 $776 -15.357979501720134 $867 15.357979501720134 $762 $872 forward 7 unknown #
coedge $-1 $763 $832 $805 $853 forward $428 $-1 #
coedge $-1 $873 $764 $808 $857 forward $825 $-1 #
coedge $-1 $764 $873 $766 $828 reversed $825 $-1 #
loop $-1 $-1 $823 $800 #
vertex $-1 $765 $874 #
straight-curve $-1 -78.660847804193239 0 15.357979501720134 0 -1 0 I I #
edge $-1 $767 -15.357979501720134 $875 15.357979501720134 $824 $876 forward 7 unknown #
point $-1 -78.660847804193239 -38.018729598675151 15.357979501720134 #
face $-1 $-1 $836 $19 $-1 $877 reversed single #
plane-surface $-1 0 -38.018729598675151 0 0 1 0 0 0 1 forward_v I I I I #
coedge $-1 $822 $773 $849 $878 forward $428 $-1 #
coedge $-1 $879 $847 $773 $834 reversed $801 $-1 #
edge $-1 $837 -38.018729598675151 $880 18.039773526495267 $833 $827 forward 7 unknown #
coedge $-1 $774 $871 $879 $881 reversed $836 $-1 #
loop $-1 $-1 $820 $830 #
vertex $-1 $775 $882 #
straight-curve $-1 0 38.018729598675151 15.357979501720134 -1 0 0 I I #
point $-1 78.660847804193239 38.018729598675151 15.357979501720134 #
edge $-1 $782 -18.039773526495267 $798 38.018729598675151 $779 $843 forward 7 unknown #
straight-curve $-1 -87.315048396144931 -18.039773526495267 -15.357979501720134 1 0 0 I I #
point $-1 -78.660847804193253 -18.039773526495267 -15.357979501720134 #
straight-curve $-1 -78.660847804193239 0 -15.357979501720134 0 1 0 I I #
straight-curve $-1 0 38.018729598675151 -15.357979501720134 1 0 0 I I #
point $-1 -78.660847804193239 38.018729598675151 -15.357979501720134 #
face $-1 $769 $859 $19 $-1 $883 reversed single #
coedge $-1 $833 $884 $803 $850 forward $801 $-1 #
coedge $-1 $806 $803 $885 $886 reversed $752 $-1 #
coedge $-1 $803 $806 $832 $878 reversed $752 $-1 #
edge $-1 $887 -15.357979501720134 $880 15.357979501720134 $847 $888 forward 7 unknown #
coedge $-1 $885 $809 $804 $852 forward $859 $-1 #
edge $-1 $813 -4.283332843176666 $855 4.283332843176666 $804 $889 forward 7 unknown #
edge $-1 $854 -4.283332843176666 $812 4.283332843176666 $805 $890 forward 7 unknown #
vertex $-1 $878 $891 #
vertex $-1 $886 $892 #
straight-curve $-1 -95.969248988096609 -18.039773526495267 0 0 0 -1 I I #
edge $-1 $826 -15.357979501720134 $860 15.357979501720134 $823 $893 forward 7 unknown #
coedge $-1 $809 $865 $873 $894 forward $859 $-1 #
loop $-1 $-1 $815 $846 #
vertex $-1 $810 $895 #
straight-curve $-1 -87.315048396144931 -26.606439212848599 -15.357979501720134 -1 0 0 I I #
straight-curve $-1 -87.315048396144931 -26.606439212848599 15.357979501720134 1 0 0 I I #
point $-1 -95.969248988096609 -26.606439212848599 15.357979501720134 #
point $-1 -95.969248988096609 -26.606439212848599 -15.357979501720134 #
coedge $-1 $858 $815 $817 $869 forward $859 $-1 #
coedge $-1 $815 $896 $871 $897 forward $859 $-1 #
vertex $-1 $816 $898 #
straight-curve $-1 78.660847804193239 0 -15.357979501720134 0 -1 0 I I #
edge $-1 $818 -78.660847804193239 $875 78.660847804193239 $817 $899 forward 7 unknown #
point $-1 78.660847804193239 -38.018729598675151 -15.357979501720134 #
coedge $-1 $835 $820 $866 $897 reversed $836 $-1 #
straight-curve $-1 78.660847804193239 38.018729598675151 0 0 0 -1 I I #
coedge $-1 $824 $823 $858 $894 reversed $825 $-1 #
point $-1 -78.660847804193253 -26.606439212848599 15.357979501720134 #
vertex $-1 $894 $900 #
straight-curve $-1 -78.660847804193239 -38.018729598675151 0 0 0 -1 I I #
plane-surface $-1 0 38.018729598675151 0 0 -1 0 0 0 -1 forward_v I I I I #
edge $-1 $880 -8.6542005919516782 $854 8.6542005919516782 $849 $901 forward 7 unknown #
coedge $-1 $884 $833 $835 $881 forward $801 $-1 #
vertex $-1 $878 $902 #
edge $-1 $837 -15.357979501720134 $903 15.357979501720134 $835 $904 forward 7 unknown #
point $-1 -78.660847804193239 38.018729598675151 15.357979501720134 #
plane-surface $-1 0 0 -15.357979501720134 0 0 1 1 0 0 forward_v I I I I #
coedge $-1 $847 $879 $896 $905 reversed $801 $-1 #
coedge $-1 $896 $851 $848 $886 forward $859 $-1 #
edge $-1 $855 -8.6542005919516782 $887 8.6542005919516782 $848 $906 forward 7 unknown #
vertex $-1 $905 $907 #
straight-curve $-1 -78.660847804193239 -18.039773526495267 0 0 0 1 I I #
straight-curve $-1 -95.969248988096609 -22.323106369671933 -15.357979501720134 0 1 0 I I #
straight-curve $-1 -95.969248988096609 -22.323106369671933 15.357979501720134 0 -1 0 I I #
point $-1 -95.969248988096609 -18.039773526495267 15.357979501720134 #
point $-1 -95.969248988096609 -18.039773526495267 -15.357979501720134 #
straight-curve $-1 -78.660847804193239 -26.606439212848599 0 0 0 -1 I I #
edge $-1 $875 -38.018729598675151 $860 -26.606439212848599 $873 $908 forward 7 unknown #
point $-1 -78.660847804193253 -26.606439212848599 -15.357979501720134 #
coedge $-1 $866 $885 $884 $905 forward $859 $-1 #
edge $-1 $903 -78.660847804193239 $867 78.660847804193239 $871 $909 forward 7 unknown #
point $-1 78.660847804193239 38.018729598675151 -15.357979501720134 #
straight-curve $-1 0 -38.018729598675151 -15.357979501720134 -1 0 0 I I #
point $-1 -78.660847804193239 -38.018729598675151 -15.357979501720134 #
straight-curve $-1 -87.315048396144931 -18.039773526495267 15.357979501720134 -1 0 0 I I #
point $-1 -78.660847804193253 -18.039773526495267 15.357979501720134 #
vertex $-1 $897 $910 #
straight-curve $-1 -78.660847804193239 38.018729598675151 0 0 0 -1 I I #
edge $-1 $887 -18.039773526495267 $903 38.018729598675151 $884 $908 forward 7 unknown #
straight-curve $-1 -87.315048396144931 -18.039773526495267 -15.357979501720134 1 0 0 I I #
point $-1 -78.660847804193253 -18.039773526495267 -15.357979501720134 #
straight-curve $-1 -78.660847804193239 0 -15.357979501720134 0 1 0 I I #
straight-curve $-1 0 38.018729598675151 -15.357979501720134 1 0 0 I I #
point $-1 -78.660847804193239 38.018729598675151 -15.357979501720134 #
End-of-ACIS-data 