500 0 7 0           
7 Unknown 11 ACIS 5.0 NT 24 Fri Mar 26 20:06:14 1999 
-1 9.9999999999999995e-007 1e-010 
body $-1 $7 $-1 $8 #
body $-1 $9 $-1 $10 #
body $-1 $11 $-1 $12 #
body $-1 $13 $-1 $14 #
body $-1 $15 $-1 $16 #
body $-1 $17 $-1 $18 #
body $-1 $19 $-1 $20 #
lump $-1 $-1 $21 $0 #
transform $-1 1 0 0 0 1 0 0 0 1 49.781792657246619 23.731696285974326 9.2139848063651044 1 rotate no_reflect no_shear #
lump $-1 $-1 $22 $1 #
transform $-1 1 0 0 0 1 0 0 0 1 49.781792657246619 23.731696285974326 9.2139848063651044 1 rotate no_reflect no_shear #
lump $-1 $-1 $23 $2 #
transform $-1 1 0 0 0 1 0 0 0 1 49.781792657246619 23.731696285974326 9.2139848063651044 1 rotate no_reflect no_shear #
lump $-1 $-1 $24 $3 #
transform $-1 1 0 0 0 1 0 0 0 1 49.781792657246619 23.731696285974326 9.2139848063651044 1 rotate no_reflect no_shear #
lump $-1 $-1 $25 $4 #
transform $-1 1 0 0 0 1 0 0 0 1 49.781792657246619 23.731696285974326 9.2139848063651044 1 rotate no_reflect no_shear #
lump $-1 $-1 $26 $5 #
transform $-1 1 0 0 0 1 0 0 0 1 49.781792657246619 23.731696285974326 9.2139848063651044 1 rotate no_reflect no_shear #
lump $-1 $-1 $27 $6 #
transform $-1 1 0 0 0 1 0 0 0 1 49.781792657246619 23.731696285974326 9.2139848063651044 1 rotate no_reflect no_shear #
shell $-1 $-1 $-1 $28 $-1 $7 #
shell $-1 $-1 $-1 $29 $-1 $9 #
shell $-1 $-1 $-1 $30 $-1 $11 #
shell $-1 $-1 $-1 $31 $-1 $13 #
shell $-1 $-1 $-1 $32 $-1 $15 #
shell $-1 $-1 $-1 $33 $-1 $17 #
shell $-1 $-1 $-1 $34 $-1 $19 #
face $-1 $35 $36 $21 $-1 $37 forward single #
face $-1 $38 $39 $22 $-1 $40 reversed single #
face $-1 $41 $42 $23 $-1 $43 reversed single #
face $-1 $44 $45 $24 $-1 $46 reversed single #
face $-1 $47 $48 $25 $-1 $49 forward single #
face $-1 $50 $51 $26 $-1 $52 reversed single #
face $-1 $53 $54 $27 $-1 $55 forward single #
face $-1 $56 $57 $21 $-1 $58 reversed single #
loop $-1 $-1 $59 $28 #
plane-surface $-1 0 0 9.2139848063651044 0 0 1 1 0 0 forward_v I I I I #
face $-1 $60 $61 $22 $-1 $62 reversed single #
loop $-1 $-1 $63 $29 #
plane-surface $-1 -46.366935285851682 -8.3037266732441175 0 0 1 0 0 0 1 forward_v I I I I #
face $-1 $64 $65 $23 $-1 $66 reversed single #
loop $-1 $-1 $67 $30 #
plane-surface $-1 46.366935285851675 -8.3037266732441175 0 0 1 0 0 0 1 forward_v I I I I #
face $-1 $68 $69 $24 $-1 $70 reversed single #
loop $-1 $-1 $71 $31 #
plane-surface $-1 42.952077914456737 -98.873288789390131 68.8785912025199 -1 0 0 0 -0.75470958851134928 0.65605901945558964 forward_v I I I I #
face $-1 $72 $73 $25 $-1 $74 forward single #
loop $-1 $75 $76 $32 #
cone-surface $-1 32.402621819978883 -19.17938881809248 4.5658535640650388 0 0.75470958851134928 -0.65605901945558964 1.5 0 0 1 I I 0 1 1.5 forward I I I I #
face $-1 $77 $78 $26 $-1 $79 reversed single #
loop $-1 $-1 $80 $33 #
plane-surface $-1 -2.5401118019063595 56.921371509689436 110.51147667873134 1 0 0 0 -0.68199836817093118 -0.7313536940579346 forward_v I I I I #
face $-1 $81 $82 $27 $-1 $83 forward single #
loop $-1 $84 $85 $34 #
cone-surface $-1 7.1164045826399303 21.21880327821329 6.8108371696203465 0 -0.68199836817093118 -0.7313536940579346 1 0 0 1 I I 0 1 1 forward I I I I #
face $-1 $86 $87 $21 $-1 $88 reversed single #
loop $-1 $-1 $89 $35 #
plane-surface $-1 0 0 -9.2139848063651044 0 0 1 1 0 0 forward_v I I I I #
coedge $-1 $90 $91 $92 $93 forward $36 $-1 #
face $-1 $94 $95 $22 $-1 $96 reversed single #
loop $-1 $-1 $97 $38 #
plane-surface $-1 -46.366935285851682 -5.3037266732441175 0 0 -1 0 0 0 -1 forward_v I I I I #
coedge $-1 $98 $99 $100 $101 reversed $39 $-1 #
face $-1 $102 $103 $23 $-1 $104 reversed single #
loop $-1 $-1 $105 $41 #
plane-surface $-1 42.952077914456737 -6.8037266732441175 0 1 0 0 0 0 -1 forward_v I I I I #
coedge $-1 $106 $107 $108 $109 forward $42 $-1 #
face $-1 $110 $111 $24 $-1 $112 reversed single #
loop $-1 $-1 $113 $44 #
plane-surface $-1 32.402621819978869 -23.731696285974323 3.559003047610517 0 -0.75470958851134928 0.65605901945558964 1 0 0 forward_v I I I I #
coedge $-1 $114 $115 $116 $117 reversed $45 $-1 #
face $-1 $-1 $118 $25 $-1 $119 forward single #
loop $-1 $120 $121 $47 #
cone-surface $-1 32.402621819978883 -16.518949418850113 2.2531689365505727 0 0.75470958851134928 -0.65605901945558964 0.75 0 0 1 I I -0.70710678118654757 0.70710678118654757 0.75 forward I I I I #
loop $-1 $-1 $122 $32 #
coedge $-1 $76 $76 $123 $124 reversed $48 $-1 #
face $-1 $125 $126 $26 $-1 $127 reversed single #
loop $-1 $-1 $128 $50 #
plane-surface $-1 7.1164045826399374 -10.980831204042246 37.695280765324384 0 0.68199836817093118 0.7313536940579346 1 0 0 forward_v I I I I #
coedge $-1 $129 $130 $131 $132 reversed $51 $-1 #
face $-1 $-1 $133 $27 $-1 $134 forward single #
loop $-1 $135 $136 $53 #
cone-surface $-1 7.1164045826399303 20.449949867152338 5.9863428473296239 0 -0.68199836817093118 -0.7313536940579346 0.5 0 0 1 I I -0.70710678118654746 0.70710678118654746 0.5 forward I I I I #
loop $-1 $-1 $137 $34 #
coedge $-1 $85 $85 $138 $139 reversed $54 $-1 #
face $-1 $140 $141 $21 $-1 $142 reversed single #
loop $-1 $-1 $143 $56 #
plane-surface $-1 0 -23.731696285974326 0 0 1 0 0 0 1 forward_v I I I I #
coedge $-1 $144 $145 $146 $147 forward $57 $-1 #
coedge $-1 $148 $59 $149 $150 forward $36 $-1 #
coedge $-1 $59 $148 $151 $152 forward $36 $-1 #
coedge $-1 $153 $154 $59 $93 reversed $155 $-1 #
edge $-1 $156 -23.731696285974326 $157 23.731696285974326 $92 $158 forward 7 unknown #
face $-1 $159 $160 $22 $-1 $161 reversed single #
loop $-1 $-1 $162 $60 #
plane-surface $-1 -42.952077914456744 -6.8037266732441175 0 -1 0 0 0 0 1 forward_v I I I I #
coedge $-1 $163 $164 $165 $166 forward $61 $-1 #
coedge $-1 $167 $63 $168 $169 reversed $39 $-1 #
coedge $-1 $63 $167 $170 $171 reversed $39 $-1 #
coedge $-1 $172 $173 $63 $101 forward $174 $-1 #
edge $-1 $175 -9.2139848063651044 $176 9.2139848063651044 $100 $177 forward 7 unknown #
face $-1 $178 $179 $23 $-1 $180 reversed single #
loop $-1 $-1 $181 $64 #
plane-surface $-1 46.366935285851675 -5.3037266732441175 0 0 -1 0 0 0 -1 forward_v I I I I #
coedge $-1 $182 $183 $184 $185 forward $65 $-1 #
coedge $-1 $186 $67 $187 $188 reversed $42 $-1 #
coedge $-1 $67 $186 $189 $190 reversed $42 $-1 #
coedge $-1 $183 $182 $67 $109 reversed $65 $-1 #
edge $-1 $191 -9.2139848063651044 $192 9.2139848063651044 $108 $193 forward 7 unknown #
face $-1 $194 $195 $24 $-1 $196 forward single #
loop $-1 $-1 $197 $68 #
plane-surface $-1 21.853165725501 -98.873288789390131 68.8785912025199 1 0 0 0 0.75470958851134928 -0.65605901945558964 forward_v I I I I #
coedge $-1 $198 $199 $200 $201 reversed $69 $-1 #
coedge $-1 $115 $71 $202 $203 reversed $45 $-1 #
coedge $-1 $71 $114 $198 $204 reversed $45 $-1 #
coedge $-1 $200 $205 $71 $117 forward $195 $-1 #
edge $-1 $206 25.704948108720739 $207 30.620748628766727 $116 $208 forward 7 unknown #
loop $-1 $-1 $123 $72 #
plane-surface $-1 32.402621819978869 -23.731696285974323 3.559003047610517 0 -0.75470958851134928 0.65605901945558964 1 0 0 forward_v I I I I #
loop $-1 $-1 $209 $47 #
coedge $-1 $121 $121 $122 $210 reversed $73 $-1 #
coedge $-1 $122 $122 $121 $210 forward $75 $-1 #
coedge $-1 $123 $123 $76 $124 forward $118 $-1 #
edge $-1 $211 2.3365148407056718e-016 $211 6.2831853071796004 $123 $212 forward 7 unknown #
face $-1 $213 $214 $26 $-1 $215 reversed single #
loop $-1 $-1 $216 $77 #
plane-surface $-1 16.772920967186234 56.921371509689436 110.51147667873134 -1 0 0 0 0.68199836817093118 0.7313536940579346 forward_v I I I I #
coedge $-1 $217 $218 $219 $220 reversed $78 $-1 #
coedge $-1 $130 $80 $221 $222 reversed $51 $-1 #
coedge $-1 $80 $129 $217 $223 reversed $51 $-1 #
coedge $-1 $219 $224 $80 $132 forward $225 $-1 #
edge $-1 $226 4.7289894688703917 $227 8.8990670304414792 $131 $228 forward 7 unknown #
loop $-1 $-1 $138 $81 #
plane-surface $-1 7.1164045826399374 -10.980831204042246 37.695280765324384 0 0.68199836817093118 0.7313536940579346 1 0 0 forward_v I I I I #
loop $-1 $-1 $229 $53 #
coedge $-1 $136 $136 $137 $230 reversed $82 $-1 #
coedge $-1 $137 $137 $136 $230 forward $84 $-1 #
coedge $-1 $138 $138 $85 $139 forward $133 $-1 #
edge $-1 $231 -5.2603602420124135e-016 $231 6.2831853071795996 $138 $232 forward 7 unknown #
face $-1 $233 $234 $21 $-1 $235 reversed single #
loop $-1 $-1 $236 $86 #
plane-surface $-1 -49.781792657246619 0 0 1 0 0 0 0 -1 forward_v I I I I #
coedge $-1 $237 $151 $238 $239 forward $87 $-1 #
coedge $-1 $240 $89 $237 $241 forward $57 $-1 #
coedge $-1 $89 $240 $242 $243 forward $57 $-1 #
coedge $-1 $154 $153 $89 $147 reversed $155 $-1 #
edge $-1 $244 -23.731696285974326 $245 23.731696285974326 $146 $246 forward 7 unknown #
coedge $-1 $91 $90 $247 $248 forward $36 $-1 #
coedge $-1 $249 $250 $90 $150 reversed $234 $-1 #
edge $-1 $157 -49.781792657246619 $251 49.781792657246619 $149 $252 forward 7 unknown #
coedge $-1 $143 $253 $91 $152 reversed $87 $-1 #
edge $-1 $254 -49.781792657246619 $156 49.781792657246619 $151 $255 forward 7 unknown #
coedge $-1 $146 $92 $253 $256 forward $155 $-1 #
coedge $-1 $92 $146 $249 $257 reversed $155 $-1 #
loop $-1 $-1 $153 $233 #
vertex $-1 $93 $258 #
vertex $-1 $93 $259 #
straight-curve $-1 49.781792657246619 0 9.2139848063651044 0 1 0 I I #
face $-1 $260 $261 $22 $-1 $262 forward single #
loop $-1 $-1 $263 $94 #
plane-surface $-1 0 0 -9.2139848063651044 0 0 1 1 0 0 forward_v I I I I #
coedge $-1 $264 $265 $167 $266 forward $95 $-1 #
coedge $-1 $267 $97 $263 $268 reversed $61 $-1 #
coedge $-1 $97 $267 $269 $270 reversed $61 $-1 #
coedge $-1 $265 $264 $97 $166 reversed $95 $-1 #
edge $-1 $271 -9.2139848063651044 $272 9.2139848063651044 $165 $273 forward 7 unknown #
coedge $-1 $99 $98 $162 $266 reversed $39 $-1 #
coedge $-1 $274 $275 $98 $169 forward $160 $-1 #
edge $-1 $276 19.768610271530903 $175 26.598325014320778 $168 $277 forward 7 unknown #
coedge $-1 $278 $279 $99 $171 forward $261 $-1 #
edge $-1 $176 -26.598325014320778 $280 -19.768610271530903 $170 $281 forward 7 unknown #
coedge $-1 $282 $100 $279 $283 reversed $174 $-1 #
coedge $-1 $100 $282 $274 $284 reversed $174 $-1 #
loop $-1 $-1 $282 $260 #
vertex $-1 $284 $285 #
vertex $-1 $101 $286 #
straight-curve $-1 -49.781792657246619 -8.3037266732441175 0 0 0 1 I I #
face $-1 $287 $288 $23 $-1 $289 forward single #
loop $-1 $-1 $187 $102 #
plane-surface $-1 0 0 -9.2139848063651044 0 0 1 1 0 0 forward_v I I I I #
coedge $-1 $290 $291 $292 $293 reversed $103 $-1 #
coedge $-1 $108 $105 $294 $295 reversed $65 $-1 #
coedge $-1 $105 $108 $296 $297 reversed $65 $-1 #
coedge $-1 $291 $290 $105 $185 reversed $103 $-1 #
edge $-1 $298 -9.2139848063651044 $299 9.2139848063651044 $184 $300 forward 7 unknown #
coedge $-1 $107 $106 $301 $302 reversed $42 $-1 #
coedge $-1 $294 $303 $106 $188 forward $179 $-1 #
edge $-1 $304 -26.598325014320775 $192 -19.7686102715309 $187 $305 forward 7 unknown #
coedge $-1 $306 $296 $107 $190 forward $288 $-1 #
edge $-1 $191 19.7686102715309 $307 26.598325014320775 $189 $308 forward 7 unknown #
vertex $-1 $190 $309 #
vertex $-1 $188 $310 #
straight-curve $-1 42.952077914456737 -8.3037266732441175 0 0 0 -1 I I #
face $-1 $-1 $311 $24 $-1 $312 reversed single #
loop $-1 $-1 $116 $110 #
plane-surface $-1 0 0 9.2139848063651044 0 0 1 1 0 0 forward_v I I I I #
coedge $-1 $313 $314 $315 $316 reversed $111 $-1 #
coedge $-1 $317 $113 $115 $204 forward $69 $-1 #
coedge $-1 $113 $317 $313 $318 forward $69 $-1 #
coedge $-1 $315 $116 $113 $201 forward $195 $-1 #
edge $-1 $207 -26.750767004467303 $319 -5.651854815511566 $200 $320 forward 7 unknown #
coedge $-1 $321 $322 $114 $203 forward $311 $-1 #
edge $-1 $323 -30.880292553649436 $206 -25.225310794894845 $202 $324 forward 7 unknown #
edge $-1 $207 -7.4929242252095092 $323 5.3472153159747578e-015 $115 $325 forward 7 unknown #
coedge $-1 $116 $315 $321 $326 forward $195 $-1 #
vertex $-1 $117 $327 #
vertex $-1 $117 $328 #
straight-curve $-1 42.952077914456737 -49.436644394695065 9.2139848063651044 0 1 0 I I #
coedge $-1 $209 $209 $-1 $329 reversed $120 $-1 #
edge $-1 $330 0 $330 6.2831853071796004 $121 $331 forward 7 unknown #
vertex $-1 $124 $332 #
ellipse-curve $-1 32.402621819978883 -21.273796025951334 6.3864939269878098 0 -0.75470958851134928 0.65605901945558964 1.5 0 0 1 I I #
face $-1 $-1 $225 $26 $-1 $333 forward single #
loop $-1 $-1 $334 $125 #
plane-surface $-1 0 23.731696285974326 0 0 -1 0 0 0 -1 forward_v I I I I #
coedge $-1 $335 $336 $337 $338 reversed $126 $-1 #
coedge $-1 $339 $128 $130 $223 forward $78 $-1 #
coedge $-1 $128 $339 $335 $340 forward $78 $-1 #
coedge $-1 $337 $131 $128 $220 forward $225 $-1 #
edge $-1 $227 -6.0983140932263282 $341 13.214718675866266 $219 $342 forward 7 unknown #
coedge $-1 $343 $344 $129 $222 forward $214 $-1 #
edge $-1 $345 -49.930413855966556 $226 -46.041753533000566 $221 $346 forward 7 unknown #
edge $-1 $227 41.761530948151673 $345 47.463392571948638 $130 $347 forward 7 unknown #
coedge $-1 $131 $337 $343 $348 forward $225 $-1 #
loop $-1 $-1 $337 $213 #
vertex $-1 $222 $349 #
vertex $-1 $132 $350 #
straight-curve $-1 -2.5401118019063595 28.460685754844718 9.2139848063651044 0 -1 0 I I #
coedge $-1 $229 $229 $-1 $351 reversed $135 $-1 #
edge $-1 $352 0 $352 6.2831853071796004 $136 $353 forward 7 unknown #
vertex $-1 $139 $354 #
ellipse-curve $-1 7.1164045826399303 21.646657505188784 7.2696546448821122 0 0.68199836817093118 0.7313536940579346 1 0 0 1 I I #
face $-1 $-1 $155 $21 $-1 $355 reversed single #
loop $-1 $-1 $249 $140 #
plane-surface $-1 0 23.731696285974326 0 0 -1 0 0 0 -1 forward_v I I I I #
coedge $-1 $356 $247 $250 $357 forward $141 $-1 #
coedge $-1 $253 $143 $144 $241 reversed $87 $-1 #
coedge $-1 $247 $356 $143 $239 reversed $141 $-1 #
edge $-1 $254 -9.2139848063651044 $358 9.2139848063651044 $238 $359 forward 7 unknown #
coedge $-1 $145 $144 $356 $360 forward $57 $-1 #
edge $-1 $245 -49.781792657246619 $358 49.781792657246619 $237 $361 forward 7 unknown #
coedge $-1 $250 $249 $145 $243 reversed $234 $-1 #
edge $-1 $362 -49.781792657246619 $244 49.781792657246619 $242 $363 forward 7 unknown #
vertex $-1 $147 $364 #
vertex $-1 $256 $365 #
straight-curve $-1 49.781792657246619 0 -9.2139848063651044 0 -1 0 I I #
coedge $-1 $236 $238 $148 $248 reversed $141 $-1 #
edge $-1 $251 -23.731696285974326 $254 23.731696285974326 $247 $366 forward 7 unknown #
coedge $-1 $242 $149 $154 $257 forward $234 $-1 #
coedge $-1 $149 $242 $236 $357 reversed $234 $-1 #
vertex $-1 $150 $367 #
straight-curve $-1 0 23.731696285974326 9.2139848063651044 -1 0 0 I I #
coedge $-1 $151 $237 $153 $256 reversed $87 $-1 #
vertex $-1 $248 $368 #
straight-curve $-1 0 -23.731696285974326 9.2139848063651044 1 0 0 I I #
edge $-1 $156 -9.2139848063651044 $245 9.2139848063651044 $153 $369 forward 7 unknown #
edge $-1 $157 -9.2139848063651044 $244 9.2139848063651044 $154 $370 forward 7 unknown #
point $-1 49.781792657246619 -23.731696285974326 9.2139848063651044 #
point $-1 49.781792657246619 23.731696285974326 9.2139848063651044 #
face $-1 $-1 $174 $22 $-1 $371 reversed single #
loop $-1 $-1 $269 $159 #
plane-surface $-1 0 0 9.2139848063651044 0 0 1 1 0 0 forward_v I I I I #
coedge $-1 $275 $274 $163 $268 forward $160 $-1 #
coedge $-1 $165 $162 $275 $372 reversed $95 $-1 #
coedge $-1 $162 $165 $278 $373 reversed $95 $-1 #
edge $-1 $280 -9.2139848063651044 $276 9.2139848063651044 $162 $374 forward 7 unknown #
coedge $-1 $164 $163 $282 $375 reversed $61 $-1 #
edge $-1 $376 -26.598325014320778 $272 -19.768610271530903 $263 $377 forward 7 unknown #
coedge $-1 $279 $278 $164 $270 forward $261 $-1 #
edge $-1 $271 19.768610271530903 $378 26.598325014320778 $269 $379 forward 7 unknown #
vertex $-1 $270 $380 #
vertex $-1 $268 $381 #
straight-curve $-1 -42.952077914456744 -5.3037266732441175 0 0 0 -1 I I #
coedge $-1 $263 $168 $173 $284 forward $160 $-1 #
coedge $-1 $168 $263 $264 $372 forward $160 $-1 #
vertex $-1 $169 $382 #
straight-curve $-1 -23.183467642925841 -8.3037266732441175 -9.2139848063651044 -1 0 0 I I #
coedge $-1 $269 $170 $265 $373 forward $261 $-1 #
coedge $-1 $170 $269 $172 $283 forward $261 $-1 #
vertex $-1 $171 $383 #
straight-curve $-1 -23.183467642925841 -8.3037266732441175 9.2139848063651044 1 0 0 I I #
coedge $-1 $173 $172 $267 $375 forward $174 $-1 #
edge $-1 $378 5.3037266732441175 $176 8.3037266732441175 $172 $384 forward 7 unknown #
edge $-1 $175 -8.3037266732441175 $376 -5.3037266732441175 $173 $385 forward 7 unknown #
point $-1 -49.781792657246619 -8.3037266732441175 -9.2139848063651044 #
point $-1 -49.781792657246619 -8.3037266732441175 9.2139848063651044 #
face $-1 $-1 $386 $23 $-1 $387 reversed single #
loop $-1 $-1 $189 $178 #
plane-surface $-1 0 0 9.2139848063651044 0 0 1 1 0 0 forward_v I I I I #
coedge $-1 $184 $181 $388 $389 reversed $103 $-1 #
coedge $-1 $181 $184 $390 $391 reversed $103 $-1 #
coedge $-1 $392 $393 $181 $293 forward $386 $-1 #
edge $-1 $394 -9.2139848063651044 $395 9.2139848063651044 $292 $396 forward 7 unknown #
coedge $-1 $388 $187 $182 $295 forward $179 $-1 #
edge $-1 $192 -4.9018633366220588 $299 -1.9018633366220588 $294 $397 forward 7 unknown #
coedge $-1 $189 $390 $183 $297 forward $288 $-1 #
edge $-1 $298 1.9018633366220588 $191 4.9018633366220588 $296 $398 forward 7 unknown #
vertex $-1 $297 $399 #
vertex $-1 $295 $400 #
straight-curve $-1 42.952077914456737 -5.3037266732441175 0 0 0 -1 I I #
coedge $-1 $393 $392 $186 $302 forward $386 $-1 #
edge $-1 $307 -9.2139848063651044 $304 9.2139848063651044 $301 $401 forward 7 unknown #
coedge $-1 $187 $388 $393 $402 forward $179 $-1 #
vertex $-1 $302 $403 #
straight-curve $-1 23.183467642925837 -8.3037266732441175 -9.2139848063651044 -1 0 0 I I #
coedge $-1 $390 $189 $392 $404 forward $288 $-1 #
vertex $-1 $404 $405 #
straight-curve $-1 23.183467642925837 -8.3037266732441175 9.2139848063651044 1 0 0 I I #
point $-1 42.952077914456737 -8.3037266732441175 9.2139848063651044 #
point $-1 42.952077914456737 -8.3037266732441175 -9.2139848063651044 #
loop $-1 $-1 $202 $194 #
plane-surface $-1 0 -23.731696285974326 0 0 1 0 0 0 1 forward_v I I I I #
coedge $-1 $314 $197 $199 $318 reversed $111 $-1 #
coedge $-1 $197 $313 $406 $407 reversed $111 $-1 #
coedge $-1 $205 $200 $197 $316 forward $195 $-1 #
edge $-1 $319 -30.620748628766727 $408 -25.704948108720739 $315 $409 forward 7 unknown #
coedge $-1 $199 $198 $322 $410 reversed $69 $-1 #
edge $-1 $411 -5.3472153159747578e-015 $319 7.4929242252095092 $313 $412 forward 7 unknown #
vertex $-1 $201 $413 #
straight-curve $-1 16.201310909989434 -18.815895765928342 9.2139848063651044 -1 0 0 I I #
coedge $-1 $406 $202 $205 $326 reversed $311 $-1 #
coedge $-1 $202 $406 $317 $410 forward $311 $-1 #
vertex $-1 $203 $414 #
straight-curve $-1 42.952077914456737 -23.731696285974323 34.43929560125995 0 0 1 I I #
straight-curve $-1 42.952077914456737 -23.731696285974323 3.559003047610517 0 -0.65605901945558964 -0.75470958851134928 I I #
edge $-1 $408 21.853165725501 $206 42.952077914456737 $321 $415 forward 7 unknown #
point $-1 42.952077914456737 -23.731696285974326 9.2139848063651044 #
point $-1 42.952077914456737 -18.815895765928339 9.2139848063651044 #
edge $-1 $416 1 $416 0 $209 $-1 forward 7 unknown #
vertex $-1 $210 $417 #
ellipse-curve $-1 32.402621819978883 -17.084981610233626 2.7452132011422652 0 -0.75470958851134928 0.65605901945558964 1.5 0 0 1 I I #
point $-1 33.902621819978883 -21.273796025951338 6.3864939269878134 #
plane-surface $-1 0 0 9.2139848063651044 0 0 1 1 0 0 forward_v I I I I #
coedge $-1 $344 $343 $336 $418 forward $214 $-1 #
coedge $-1 $336 $216 $218 $340 reversed $126 $-1 #
coedge $-1 $216 $335 $334 $418 reversed $126 $-1 #
coedge $-1 $224 $219 $216 $338 forward $225 $-1 #
edge $-1 $341 -8.8990670304414792 $419 -4.7289894688703917 $337 $420 forward 7 unknown #
coedge $-1 $218 $217 $344 $421 reversed $78 $-1 #
edge $-1 $422 -47.463392571948638 $341 -41.761530948151673 $335 $423 forward 7 unknown #
vertex $-1 $220 $424 #
straight-curve $-1 3.5582022913199687 19.561618724403235 9.2139848063651044 1 0 0 I I #
coedge $-1 $334 $221 $224 $348 reversed $214 $-1 #
coedge $-1 $221 $334 $339 $421 forward $214 $-1 #
vertex $-1 $222 $425 #
straight-curve $-1 -2.5401118019063595 23.731696285974326 55.255738339365671 0 0 1 I I #
straight-curve $-1 -2.5401118019063595 -10.980831204042246 37.695280765324384 0 0.7313536940579346 -0.68199836817093118 I I #
edge $-1 $419 -16.772920967186234 $226 2.5401118019063595 $343 $426 forward 7 unknown #
point $-1 -2.5401118019063595 23.731696285974326 9.2139848063651044 #
point $-1 -2.5401118019063595 19.561618724403239 9.2139848063651009 #
edge $-1 $427 1 $427 0 $229 $-1 forward 7 unknown #
vertex $-1 $230 $428 #
ellipse-curve $-1 7.1164045826399303 20.790949051237803 6.3520196943585914 0 0.68199836817093118 0.7313536940579346 1 0 0 1 I I #
point $-1 8.1164045826399303 21.646657505188774 7.2696546448821016 #
plane-surface $-1 49.781792657246619 0 0 -1 0 0 0 0 1 forward_v I I I I #
coedge $-1 $238 $236 $240 $360 reversed $141 $-1 #
edge $-1 $251 -9.2139848063651044 $362 9.2139848063651044 $250 $429 forward 7 unknown #
vertex $-1 $360 $430 #
straight-curve $-1 -49.781792657246619 -23.731696285974326 0 0 0 -1 I I #
edge $-1 $358 -23.731696285974326 $362 23.731696285974326 $356 $431 forward 7 unknown #
straight-curve $-1 0 -23.731696285974326 -9.2139848063651044 -1 0 0 I I #
vertex $-1 $243 $432 #
straight-curve $-1 0 23.731696285974326 -9.2139848063651044 1 0 0 I I #
point $-1 49.781792657246619 23.731696285974326 -9.2139848063651044 #
point $-1 49.781792657246619 -23.731696285974326 -9.2139848063651044 #
straight-curve $-1 -49.781792657246619 0 9.2139848063651044 0 -1 0 I I #
point $-1 -49.781792657246619 23.731696285974326 9.2139848063651044 #
point $-1 -49.781792657246619 -23.731696285974326 9.2139848063651044 #
straight-curve $-1 49.781792657246619 -23.731696285974326 0 0 0 -1 I I #
straight-curve $-1 49.781792657246619 23.731696285974326 0 0 0 -1 I I #
plane-surface $-1 -49.781792657246619 0 0 1 0 0 0 0 -1 forward_v I I I I #
edge $-1 $272 1.9018633366220588 $276 4.9018633366220588 $275 $433 forward 7 unknown #
edge $-1 $280 -4.9018633366220588 $271 -1.9018633366220588 $278 $434 forward 7 unknown #
straight-curve $-1 -42.952077914456744 -8.3037266732441175 0 0 0 -1 I I #
edge $-1 $378 -9.2139848063651044 $376 9.2139848063651044 $282 $435 forward 7 unknown #
vertex $-1 $375 $436 #
straight-curve $-1 -23.183467642925841 -5.3037266732441175 -9.2139848063651044 1 0 0 I I #
vertex $-1 $283 $437 #
straight-curve $-1 -23.183467642925841 -5.3037266732441175 9.2139848063651044 -1 0 0 I I #
point $-1 -42.952077914456744 -5.3037266732441175 9.2139848063651044 #
point $-1 -42.952077914456744 -5.3037266732441175 -9.2139848063651044 #
point $-1 -42.952077914456744 -8.3037266732441175 -9.2139848063651044 #
point $-1 -42.952077914456744 -8.3037266732441175 9.2139848063651044 #
straight-curve $-1 -49.781792657246619 0 9.2139848063651044 0 -1 0 I I #
straight-curve $-1 -49.781792657246619 0 -9.2139848063651044 0 1 0 I I #
loop $-1 $-1 $301 $287 #
plane-surface $-1 49.781792657246619 0 0 -1 0 0 0 0 1 forward_v I I I I #
coedge $-1 $303 $294 $290 $389 forward $179 $-1 #
edge $-1 $299 19.7686102715309 $394 26.598325014320775 $388 $438 forward 7 unknown #
coedge $-1 $296 $306 $291 $391 forward $288 $-1 #
edge $-1 $395 -26.598325014320775 $298 -19.7686102715309 $390 $439 forward 7 unknown #
coedge $-1 $301 $292 $306 $404 reversed $386 $-1 #
coedge $-1 $292 $301 $303 $402 reversed $386 $-1 #
vertex $-1 $402 $440 #
vertex $-1 $293 $441 #
straight-curve $-1 49.781792657246619 -5.3037266732441175 0 0 0 1 I I #
straight-curve $-1 42.952077914456737 -3.4018633366220588 -9.2139848063651044 0 1 0 I I #
straight-curve $-1 42.952077914456737 -3.4018633366220588 9.2139848063651044 0 -1 0 I I #
point $-1 42.952077914456737 -5.3037266732441175 9.2139848063651044 #
point $-1 42.952077914456737 -5.3037266732441175 -9.2139848063651044 #
straight-curve $-1 49.781792657246619 -8.3037266732441175 0 0 0 -1 I I #
edge $-1 $394 5.3037266732441175 $304 8.3037266732441175 $393 $442 forward 7 unknown #
point $-1 49.781792657246612 -8.3037266732441175 -9.2139848063651044 #
edge $-1 $307 -8.3037266732441175 $395 -5.3037266732441175 $392 $443 forward 7 unknown #
point $-1 49.781792657246612 -8.3037266732441175 9.2139848063651044 #
coedge $-1 $322 $321 $314 $407 forward $311 $-1 #
edge $-1 $408 25.225310794894845 $411 30.880292553649436 $406 $444 forward 7 unknown #
vertex $-1 $326 $445 #
straight-curve $-1 21.853165725501 -49.436644394695065 9.2139848063651044 0 -1 0 I I #
edge $-1 $411 5.651854815511566 $323 26.750767004467303 $322 $446 forward 7 unknown #
vertex $-1 $410 $447 #
straight-curve $-1 21.853165725501 -23.731696285974323 3.559003047610517 0 0.65605901945558964 0.75470958851134928 I I #
point $-1 21.853165725501 -18.815895765928339 9.2139848063651044 #
point $-1 42.952077914456737 -23.731696285974326 3.559003047610513 #
straight-curve $-1 0 -23.731696285974326 9.2139848063651044 1 0 0 I I #
vertex $-1 $329 $448 #
point $-1 33.902621819978883 -17.084981610233626 2.7452132011422652 #
edge $-1 $419 46.041753533000566 $422 49.930413855966556 $334 $449 forward 7 unknown #
vertex $-1 $348 $450 #
straight-curve $-1 16.772920967186234 28.460685754844718 9.2139848063651044 0 1 0 I I #
edge $-1 $422 -13.214718675866266 $345 6.0983140932263282 $344 $451 forward 7 unknown #
vertex $-1 $421 $452 #
straight-curve $-1 16.772920967186234 -10.980831204042246 37.695280765324384 0 -0.7313536940579346 0.68199836817093118 I I #
point $-1 16.772920967186234 19.561618724403239 9.2139848063651009 #
point $-1 -2.5401118019063595 23.731696285974323 5.3253244833991147 #
straight-curve $-1 0 23.731696285974326 9.2139848063651044 -1 0 0 I I #
vertex $-1 $351 $453 #
point $-1 8.1164045826399303 20.790949051237803 6.3520196943585914 #
straight-curve $-1 -49.781792657246619 23.731696285974326 0 0 0 -1 I I #
point $-1 -49.781792657246619 -23.731696285974326 -9.2139848063651044 #
straight-curve $-1 -49.781792657246619 0 -9.2139848063651044 0 1 0 I I #
point $-1 -49.781792657246619 23.731696285974326 -9.2139848063651044 #
straight-curve $-1 -42.952077914456744 -3.4018633366220588 -9.2139848063651044 0 -1 0 I I #
straight-curve $-1 -42.952077914456744 -3.4018633366220588 9.2139848063651044 0 1 0 I I #
straight-curve $-1 -49.781792657246619 -5.3037266732441175 0 0 0 -1 I I #
point $-1 -49.781792657246619 -5.3037266732441175 -9.2139848063651044 #
point $-1 -49.781792657246619 -5.3037266732441175 9.2139848063651044 #
straight-curve $-1 23.183467642925837 -5.3037266732441175 -9.2139848063651044 1 0 0 I I #
straight-curve $-1 23.183467642925837 -5.3037266732441175 9.2139848063651044 -1 0 0 I I #
point $-1 49.781792657246612 -5.3037266732441175 -9.2139848063651044 #
point $-1 49.781792657246612 -5.3037266732441175 9.2139848063651044 #
straight-curve $-1 49.781792657246619 0 -9.2139848063651044 0 -1 0 I I #
straight-curve $-1 49.781792657246619 0 9.2139848063651044 0 1 0 I I #
straight-curve $-1 21.853165725501 -23.731696285974323 34.43929560125995 0 0 -1 I I #
point $-1 21.853165725501 -23.731696285974326 9.2139848063651044 #
straight-curve $-1 16.201310909989434 -23.731696285974326 3.5590030476105108 1 0 0 I I #
point $-1 21.853165725501 -23.731696285974326 3.559003047610513 #
point $-1 32.402621819978883 -15.952917227466601 1.7611246719588804 #
straight-curve $-1 16.772920967186234 23.731696285974326 55.255738339365671 0 0 -1 I I #
point $-1 16.772920967186234 23.731696285974326 9.2139848063651044 #
straight-curve $-1 3.5582022913199687 23.731696285974326 5.3253244833991165 -1 0 0 I I #
point $-1 16.772920967186234 23.731696285974323 5.3253244833991147 #
point $-1 7.1164045826399303 20.108950683066873 5.6206660003006563 #
End-of-ACIS-data 