500 0 12 0           
7 Unknown 11 ACIS 5.0 NT 24 Fri Mar 26 18:07:25 1999 
-1 9.9999999999999995e-007 1e-010 
body $-1 $12 $-1 $13 #
body $-1 $14 $-1 $15 #
body $-1 $16 $-1 $17 #
body $-1 $18 $-1 $19 #
body $-1 $20 $-1 $21 #
body $-1 $22 $-1 $23 #
body $-1 $24 $-1 $25 #
body $-1 $26 $-1 $27 #
body $-1 $28 $-1 $29 #
body $-1 $30 $-1 $31 #
body $-1 $32 $-1 $33 #
body $-1 $34 $-1 $35 #
lump $-1 $-1 $36 $0 #
transform $-1 1 0 0 0 1 0 0 0 1 53.696707052827541 24.104933094969372 5.3539626017602346 1 rotate no_reflect no_shear #
lump $-1 $-1 $37 $1 #
transform $-1 1 0 0 0 1 0 0 0 1 53.696707052827541 24.104933094969372 5.3539626017602346 1 rotate no_reflect no_shear #
lump $-1 $-1 $38 $2 #
transform $-1 1 0 0 0 1 0 0 0 1 53.696707052827541 24.104933094969372 5.3539626017602346 1 rotate no_reflect no_shear #
lump $-1 $-1 $39 $3 #
transform $-1 1 0 0 0 1 0 0 0 1 53.696707052827541 24.104933094969372 5.3539626017602346 1 rotate no_reflect no_shear #
lump $-1 $-1 $40 $4 #
transform $-1 1 0 0 0 1 0 0 0 1 53.696707052827541 24.104933094969372 5.3539626017602346 1 rotate no_reflect no_shear #
lump $-1 $-1 $41 $5 #
transform $-1 1 0 0 0 1 0 0 0 1 53.696707052827541 24.104933094969372 5.3539626017602346 1 rotate no_reflect no_shear #
lump $-1 $-1 $42 $6 #
transform $-1 1 0 0 0 1 0 0 0 1 53.696707052827541 24.104933094969372 5.3539626017602346 1 rotate no_reflect no_shear #
lump $-1 $-1 $43 $7 #
transform $-1 1 0 0 0 1 0 0 0 1 53.696707052827541 24.104933094969372 5.3539626017602346 1 rotate no_reflect no_shear #
lump $-1 $-1 $44 $8 #
transform $-1 1 0 0 0 1 0 0 0 1 53.696707052827541 24.104933094969372 5.3539626017602346 1 rotate no_reflect no_shear #
lump $-1 $-1 $45 $9 #
transform $-1 1 0 0 0 1 0 0 0 1 53.696707052827541 24.104933094969372 5.3539626017602346 1 rotate no_reflect no_shear #
lump $-1 $-1 $46 $10 #
transform $-1 1 0 0 0 1 0 0 0 1 53.696707052827541 24.104933094969372 5.3539626017602346 1 rotate no_reflect no_shear #
lump $-1 $-1 $47 $11 #
transform $-1 1 0 0 0 1 0 0 0 1 53.696707052827541 24.104933094969372 5.3539626017602346 1 rotate no_reflect no_shear #
shell $-1 $-1 $-1 $48 $-1 $12 #
shell $-1 $-1 $-1 $49 $-1 $14 #
shell $-1 $-1 $-1 $50 $-1 $16 #
shell $-1 $-1 $-1 $51 $-1 $18 #
shell $-1 $-1 $-1 $52 $-1 $20 #
shell $-1 $-1 $-1 $53 $-1 $22 #
shell $-1 $-1 $-1 $54 $-1 $24 #
shell $-1 $-1 $-1 $55 $-1 $26 #
shell $-1 $-1 $-1 $56 $-1 $28 #
shell $-1 $-1 $-1 $57 $-1 $30 #
shell $-1 $-1 $-1 $58 $-1 $32 #
shell $-1 $-1 $-1 $59 $-1 $34 #
face $-1 $60 $61 $36 $-1 $62 forward single #
face $-1 $63 $64 $37 $-1 $65 reversed single #
face $-1 $66 $67 $38 $-1 $68 forward single #
face $-1 $69 $70 $39 $-1 $71 forward single #
face $-1 $72 $73 $40 $-1 $74 forward single #
face $-1 $75 $76 $41 $-1 $77 reversed single #
face $-1 $78 $79 $42 $-1 $80 forward single #
face $-1 $81 $82 $43 $-1 $83 forward single #
face $-1 $84 $85 $44 $-1 $86 forward single #
face $-1 $87 $88 $45 $-1 $89 reversed single #
face $-1 $90 $91 $46 $-1 $92 forward single #
face $-1 $93 $94 $47 $-1 $95 forward single #
face $-1 $96 $97 $36 $-1 $98 reversed single #
loop $-1 $-1 $99 $48 #
plane-surface $-1 0 0 5.3539626017602346 0 0 1 1 0 0 forward_v I I I I #
face $-1 $100 $101 $37 $-1 $102 reversed single #
loop $-1 $-1 $103 $49 #
plane-surface $-1 -46.113260658208659 40.130487805210919 118.91803340231708 1 0 0 0 -0.52991927123019833 -0.84804809178421925 forward_v I I I I #
face $-1 $104 $105 $38 $-1 $106 forward single #
loop $-1 $107 $108 $50 #
cone-surface $-1 -42.332908913102735 21.01498022698469 2.7959173429203679 0 -0.52991927123019833 -0.84804809178421925 1 0 0 1 I I 0 1 1 forward I I I I #
face $-1 $109 $110 $39 $-1 $111 forward single #
loop $-1 $112 $113 $51 #
cone-surface $-1 -36.662381295443851 21.01498022698469 2.7959173429203679 0 -0.52991927123019833 -0.84804809178421925 1 0 0 1 I I 0 1 1 forward I I I I #
face $-1 $114 $115 $40 $-1 $116 forward single #
loop $-1 $117 $118 $52 #
cone-surface $-1 -30.991853677784967 21.01498022698469 2.7959173429203679 0 -0.52991927123019833 -0.84804809178421925 1 0 0 1 I I 0 1 1 forward I I I I #
face $-1 $119 $120 $41 $-1 $121 reversed single #
loop $-1 $-1 $122 $53 #
plane-surface $-1 7.5834463946188997 40.130487805210919 118.91803340231708 1 0 0 0 -0.52991927123019833 -0.84804809178421925 forward_v I I I I #
face $-1 $123 $124 $42 $-1 $125 forward single #
loop $-1 $126 $127 $54 #
cone-surface $-1 11.363798139724814 21.01498022698469 2.7959173429203679 0 -0.52991927123019833 -0.84804809178421925 1 0 0 1 I I 0 1 1 forward I I I I #
face $-1 $128 $129 $43 $-1 $130 forward single #
loop $-1 $131 $132 $55 #
cone-surface $-1 17.034325757383705 21.01498022698469 2.7959173429203679 0 -0.52991927123019833 -0.84804809178421925 1 0 0 1 I I 0 1 1 forward I I I I #
face $-1 $133 $134 $44 $-1 $135 forward single #
loop $-1 $136 $137 $56 #
cone-surface $-1 22.704853375042582 21.01498022698469 2.7959173429203679 0 -0.52991927123019833 -0.84804809178421925 1 0 0 1 I I 0 1 1 forward I I I I #
face $-1 $138 $139 $45 $-1 $140 reversed single #
loop $-1 $-1 $141 $57 #
plane-surface $-1 41.09367557951979 -117.11035874030048 54.965461786691385 -1 0 0 0 -0.86602541151947299 0.49999998660252726 forward_v I I I I #
face $-1 $142 $143 $46 $-1 $144 forward single #
loop $-1 $145 $146 $58 #
cone-surface $-1 28.035933559954977 -22.259551682581936 2.9267956596095357 0 0.86602541151947299 -0.49999998660252726 1 0 0 1 I I 0 1 1 forward I I I I #
face $-1 $147 $148 $47 $-1 $149 forward single #
loop $-1 $150 $151 $59 #
cone-surface $-1 35.870578771693864 -22.259551682581936 2.9267956596095357 0 0.86602541151947299 -0.49999998660252726 1 0 0 1 I I 0 1 1 forward I I I I #
face $-1 $152 $153 $36 $-1 $154 reversed single #
loop $-1 $-1 $155 $60 #
plane-surface $-1 0 0 -5.3539626017602346 0 0 1 1 0 0 forward_v I I I I #
coedge $-1 $156 $157 $158 $159 forward $61 $-1 #
face $-1 $160 $161 $37 $-1 $162 reversed single #
loop $-1 $-1 $163 $63 #
plane-surface $-1 -36.662381295443851 -16.779351932580724 27.843253499823831 0 0.52991927123019833 0.84804809178421925 1 0 0 forward_v I I I I #
coedge $-1 $164 $165 $166 $167 reversed $64 $-1 #
face $-1 $-1 $168 $38 $-1 $169 forward single #
loop $-1 $170 $171 $66 #
cone-surface $-1 -42.332908913102735 20.10701618863278 1.3428711678954519 0 -0.52991927123019833 -0.84804809178421925 0.5 0 0 1 I I -0.70710678118654746 0.70710678118654746 0.5 forward I I I I #
loop $-1 $-1 $172 $50 #
coedge $-1 $108 $108 $173 $174 reversed $67 $-1 #
face $-1 $-1 $175 $39 $-1 $176 forward single #
loop $-1 $177 $178 $69 #
cone-surface $-1 -36.662381295443851 20.10701618863278 1.3428711678954519 0 -0.52991927123019833 -0.84804809178421925 0.5 0 0 1 I I -0.70710678118654746 0.70710678118654746 0.5 forward I I I I #
loop $-1 $-1 $179 $51 #
coedge $-1 $113 $113 $180 $181 reversed $70 $-1 #
face $-1 $-1 $182 $40 $-1 $183 forward single #
loop $-1 $184 $185 $72 #
cone-surface $-1 -30.991853677784967 20.10701618863278 1.3428711678954519 0 -0.52991927123019833 -0.84804809178421925 0.5 0 0 1 I I -0.70710678118654746 0.70710678118654746 0.5 forward I I I I #
loop $-1 $-1 $186 $52 #
coedge $-1 $118 $118 $187 $188 reversed $73 $-1 #
face $-1 $189 $190 $41 $-1 $191 reversed single #
loop $-1 $-1 $192 $75 #
plane-surface $-1 17.034325757383705 -16.779351932580724 27.843253499823831 0 0.52991927123019833 0.84804809178421925 1 0 0 forward_v I I I I #
coedge $-1 $193 $194 $195 $196 reversed $76 $-1 #
face $-1 $-1 $197 $42 $-1 $198 forward single #
loop $-1 $199 $200 $78 #
cone-surface $-1 11.363798139724814 20.10701618863278 1.3428711678954519 0 -0.52991927123019833 -0.84804809178421925 0.5 0 0 1 I I -0.70710678118654746 0.70710678118654746 0.5 forward I I I I #
loop $-1 $-1 $201 $54 #
coedge $-1 $127 $127 $202 $203 reversed $79 $-1 #
face $-1 $-1 $204 $43 $-1 $205 forward single #
loop $-1 $206 $207 $81 #
cone-surface $-1 17.034325757383705 20.10701618863278 1.3428711678954519 0 -0.52991927123019833 -0.84804809178421925 0.5 0 0 1 I I -0.70710678118654746 0.70710678118654746 0.5 forward I I I I #
loop $-1 $-1 $208 $55 #
coedge $-1 $132 $132 $209 $210 reversed $82 $-1 #
face $-1 $-1 $211 $44 $-1 $212 forward single #
loop $-1 $213 $214 $84 #
cone-surface $-1 22.704853375042582 20.10701618863278 1.3428711678954519 0 -0.52991927123019833 -0.84804809178421925 0.5 0 0 1 I I -0.70710678118654746 0.70710678118654746 0.5 forward I I I I #
loop $-1 $-1 $215 $56 #
coedge $-1 $137 $137 $216 $217 reversed $85 $-1 #
face $-1 $218 $219 $45 $-1 $220 reversed single #
loop $-1 $-1 $221 $87 #
plane-surface $-1 31.953256165824421 -24.104933094969368 1.2687561726641832 0 -0.86602541151947299 0.49999998660252726 1 0 0 forward_v I I I I #
coedge $-1 $222 $223 $224 $225 reversed $88 $-1 #
face $-1 $-1 $226 $46 $-1 $227 forward single #
loop $-1 $228 $229 $90 #
cone-surface $-1 28.035933559954977 -21.160455038069376 2.2922319387055961 0 0.86602541151947299 -0.49999998660252726 0.5 0 0 1 I I -0.70710678118654746 0.70710678118654746 0.5 forward I I I I #
loop $-1 $-1 $230 $58 #
coedge $-1 $146 $146 $231 $232 reversed $91 $-1 #
face $-1 $-1 $233 $47 $-1 $234 forward single #
loop $-1 $235 $236 $93 #
cone-surface $-1 35.870578771693864 -21.160455038069376 2.2922319387055961 0 0.86602541151947299 -0.49999998660252726 0.5 0 0 1 I I -0.70710678118654746 0.70710678118654746 0.5 forward I I I I #
loop $-1 $-1 $237 $59 #
coedge $-1 $151 $151 $238 $239 reversed $94 $-1 #
face $-1 $240 $241 $36 $-1 $242 reversed single #
loop $-1 $-1 $243 $96 #
plane-surface $-1 0 -24.104933094969372 0 0 1 0 0 0 1 forward_v I I I I #
coedge $-1 $244 $245 $246 $247 forward $97 $-1 #
coedge $-1 $248 $99 $249 $250 forward $61 $-1 #
coedge $-1 $99 $248 $251 $252 forward $61 $-1 #
coedge $-1 $253 $254 $99 $159 reversed $255 $-1 #
edge $-1 $256 -24.104933094969372 $257 24.104933094969372 $158 $258 forward 7 unknown #
face $-1 $259 $260 $37 $-1 $261 reversed single #
loop $-1 $-1 $262 $100 #
plane-surface $-1 -27.211501932679045 40.130487805210919 118.91803340231708 -1 0 0 0 0.52991927123019833 0.84804809178421925 forward_v I I I I #
coedge $-1 $263 $264 $265 $266 reversed $101 $-1 #
coedge $-1 $165 $103 $267 $268 reversed $64 $-1 #
coedge $-1 $103 $164 $263 $269 reversed $64 $-1 #
coedge $-1 $265 $270 $103 $167 forward $271 $-1 #
edge $-1 $272 -4.0396891923639124 $273 0.85420773813183359 $166 $274 forward 7 unknown #
loop $-1 $-1 $173 $104 #
plane-surface $-1 -36.662381295443851 -16.779351932580724 27.843253499823831 0 0.52991927123019833 0.84804809178421925 1 0 0 forward_v I I I I #
loop $-1 $-1 $275 $66 #
coedge $-1 $171 $171 $172 $276 reversed $105 $-1 #
coedge $-1 $172 $172 $171 $276 forward $107 $-1 #
coedge $-1 $173 $173 $108 $174 forward $168 $-1 #
edge $-1 $277 -1.176657152224699e-015 $277 6.2831853071795996 $173 $278 forward 7 unknown #
loop $-1 $-1 $180 $109 #
plane-surface $-1 -36.662381295443851 -16.779351932580724 27.843253499823831 0 0.52991927123019833 0.84804809178421925 1 0 0 forward_v I I I I #
loop $-1 $-1 $279 $69 #
coedge $-1 $178 $178 $179 $280 reversed $110 $-1 #
coedge $-1 $179 $179 $178 $280 forward $112 $-1 #
coedge $-1 $180 $180 $113 $181 forward $175 $-1 #
edge $-1 $281 -1.176657152224699e-015 $281 6.2831853071795996 $180 $282 forward 7 unknown #
loop $-1 $-1 $187 $114 #
plane-surface $-1 -36.662381295443851 -16.779351932580724 27.843253499823831 0 0.52991927123019833 0.84804809178421925 1 0 0 forward_v I I I I #
loop $-1 $-1 $283 $72 #
coedge $-1 $185 $185 $186 $284 reversed $115 $-1 #
coedge $-1 $186 $186 $185 $284 forward $117 $-1 #
coedge $-1 $187 $187 $118 $188 forward $182 $-1 #
edge $-1 $285 -1.176657152224699e-015 $285 6.2831853071795996 $187 $286 forward 7 unknown #
face $-1 $287 $288 $41 $-1 $289 forward single #
loop $-1 $-1 $290 $119 #
plane-surface $-1 26.48520512014851 40.130487805210919 118.91803340231708 -1 0 0 0 0.52991927123019833 0.84804809178421925 forward_v I I I I #
coedge $-1 $291 $292 $293 $294 reversed $120 $-1 #
coedge $-1 $194 $122 $295 $296 reversed $76 $-1 #
coedge $-1 $122 $193 $291 $297 reversed $76 $-1 #
coedge $-1 $293 $298 $122 $196 forward $288 $-1 #
edge $-1 $299 -4.0396891923639124 $300 0.85420773813183359 $195 $301 forward 7 unknown #
loop $-1 $-1 $202 $123 #
plane-surface $-1 17.034325757383705 -16.779351932580724 27.843253499823831 0 0.52991927123019833 0.84804809178421925 1 0 0 forward_v I I I I #
loop $-1 $-1 $302 $78 #
coedge $-1 $200 $200 $201 $303 reversed $124 $-1 #
coedge $-1 $201 $201 $200 $303 forward $126 $-1 #
coedge $-1 $202 $202 $127 $203 forward $197 $-1 #
edge $-1 $304 -1.176657152224699e-015 $304 6.2831853071795996 $202 $305 forward 7 unknown #
loop $-1 $-1 $209 $128 #
plane-surface $-1 17.034325757383705 -16.779351932580724 27.843253499823831 0 0.52991927123019833 0.84804809178421925 1 0 0 forward_v I I I I #
loop $-1 $-1 $306 $81 #
coedge $-1 $207 $207 $208 $307 reversed $129 $-1 #
coedge $-1 $208 $208 $207 $307 forward $131 $-1 #
coedge $-1 $209 $209 $132 $210 forward $204 $-1 #
edge $-1 $308 -1.176657152224699e-015 $308 6.2831853071795996 $209 $309 forward 7 unknown #
loop $-1 $-1 $216 $133 #
plane-surface $-1 17.034325757383705 -16.779351932580724 27.843253499823831 0 0.52991927123019833 0.84804809178421925 1 0 0 forward_v I I I I #
loop $-1 $-1 $310 $84 #
coedge $-1 $214 $214 $215 $311 reversed $134 $-1 #
coedge $-1 $215 $215 $214 $311 forward $136 $-1 #
coedge $-1 $216 $216 $137 $217 forward $211 $-1 #
edge $-1 $312 -1.176657152224699e-015 $312 6.2831853071795996 $216 $313 forward 7 unknown #
face $-1 $314 $315 $45 $-1 $316 reversed single #
loop $-1 $-1 $317 $138 #
plane-surface $-1 22.812836752129051 -117.11035874030048 54.965461786691385 1 0 0 0 0.86602541151947299 -0.49999998660252726 forward_v I I I I #
coedge $-1 $318 $319 $320 $321 reversed $139 $-1 #
coedge $-1 $223 $141 $322 $323 reversed $88 $-1 #
coedge $-1 $141 $222 $318 $324 reversed $88 $-1 #
coedge $-1 $320 $325 $141 $225 forward $326 $-1 #
edge $-1 $327 34.450246275180874 $328 36.808841222450098 $224 $329 forward 7 unknown #
loop $-1 $-1 $231 $142 #
plane-surface $-1 31.953256165824421 -24.104933094969368 1.2687561726641832 0 -0.86602541151947299 0.49999998660252726 1 0 0 forward_v I I I I #
loop $-1 $-1 $330 $90 #
coedge $-1 $229 $229 $230 $331 reversed $143 $-1 #
coedge $-1 $230 $230 $229 $331 forward $145 $-1 #
coedge $-1 $231 $231 $146 $232 forward $226 $-1 #
edge $-1 $332 -8.6056579862342477e-016 $332 6.2831853071795996 $231 $333 forward 7 unknown #
loop $-1 $-1 $238 $147 #
plane-surface $-1 31.953256165824421 -24.104933094969368 1.2687561726641832 0 -0.86602541151947299 0.49999998660252726 1 0 0 forward_v I I I I #
loop $-1 $-1 $334 $93 #
coedge $-1 $236 $236 $237 $335 reversed $148 $-1 #
coedge $-1 $237 $237 $236 $335 forward $150 $-1 #
coedge $-1 $238 $238 $151 $239 forward $233 $-1 #
edge $-1 $336 -8.6056579862342477e-016 $336 6.2831853071795996 $238 $337 forward 7 unknown #
face $-1 $338 $339 $36 $-1 $340 reversed single #
loop $-1 $-1 $341 $152 #
plane-surface $-1 -53.696707052827541 0 0 1 0 0 0 0 -1 forward_v I I I I #
coedge $-1 $342 $251 $343 $344 forward $153 $-1 #
coedge $-1 $345 $155 $342 $346 forward $97 $-1 #
coedge $-1 $155 $345 $347 $348 forward $97 $-1 #
coedge $-1 $254 $253 $155 $247 reversed $255 $-1 #
edge $-1 $349 -24.104933094969372 $350 24.104933094969372 $246 $351 forward 7 unknown #
coedge $-1 $157 $156 $352 $353 forward $61 $-1 #
coedge $-1 $354 $355 $156 $250 reversed $339 $-1 #
edge $-1 $257 -53.696707052827541 $356 53.696707052827541 $249 $357 forward 7 unknown #
coedge $-1 $243 $358 $157 $252 reversed $153 $-1 #
edge $-1 $359 -53.696707052827541 $256 53.696707052827541 $251 $360 forward 7 unknown #
coedge $-1 $246 $158 $358 $361 forward $255 $-1 #
coedge $-1 $158 $246 $354 $362 reversed $255 $-1 #
loop $-1 $-1 $253 $338 #
vertex $-1 $159 $363 #
vertex $-1 $159 $364 #
straight-curve $-1 53.696707052827541 0 5.3539626017602346 0 1 0 I I #
face $-1 $-1 $271 $37 $-1 $365 forward single #
loop $-1 $-1 $366 $160 #
plane-surface $-1 0 24.104933094969372 0 0 -1 0 0 0 -1 forward_v I I I I #
coedge $-1 $367 $368 $369 $370 reversed $161 $-1 #
coedge $-1 $371 $163 $165 $269 forward $101 $-1 #
coedge $-1 $163 $371 $367 $372 forward $101 $-1 #
coedge $-1 $369 $166 $163 $266 forward $271 $-1 #
edge $-1 $273 -27.782070010486734 $373 -8.88031128495712 $265 $374 forward 7 unknown #
coedge $-1 $375 $376 $164 $268 forward $260 $-1 #
edge $-1 $377 -57.163100358812422 $272 -54.105054099398302 $267 $378 forward 7 unknown #
edge $-1 $273 42.439088591466216 $377 48.209866189938737 $165 $379 forward 7 unknown #
coedge $-1 $166 $369 $375 $380 forward $271 $-1 #
loop $-1 $-1 $369 $259 #
vertex $-1 $268 $381 #
vertex $-1 $167 $382 #
straight-curve $-1 -46.113260658208659 20.065243902605459 5.3539626017602373 0 -1 0 I I #
coedge $-1 $275 $275 $-1 $383 reversed $170 $-1 #
edge $-1 $384 0 $384 6.2831853071796004 $171 $385 forward 7 unknown #
vertex $-1 $174 $386 #
ellipse-curve $-1 -42.332908913102735 21.657984629721501 3.8249394720531722 0 0.52991927123019833 0.84804809178421925 1 0 0 1 I I #
coedge $-1 $279 $279 $-1 $387 reversed $177 $-1 #
edge $-1 $388 0 $388 6.2831853071796004 $178 $389 forward 7 unknown #
vertex $-1 $181 $390 #
ellipse-curve $-1 -36.662381295443851 21.657984629721501 3.8249394720531722 0 0.52991927123019833 0.84804809178421925 1 0 0 1 I I #
coedge $-1 $283 $283 $-1 $391 reversed $184 $-1 #
edge $-1 $392 0 $392 6.2831853071796004 $185 $393 forward 7 unknown #
vertex $-1 $188 $394 #
ellipse-curve $-1 -30.991853677784967 21.657984629721501 3.8249394720531722 0 0.52991927123019833 0.84804809178421925 1 0 0 1 I I #
face $-1 $-1 $395 $41 $-1 $396 reversed single #
loop $-1 $-1 $195 $189 #
plane-surface $-1 0 0 5.3539626017602346 0 0 1 1 0 0 forward_v I I I I #
coedge $-1 $397 $398 $399 $400 reversed $190 $-1 #
coedge $-1 $401 $192 $194 $297 forward $120 $-1 #
coedge $-1 $192 $401 $397 $402 forward $120 $-1 #
coedge $-1 $399 $195 $192 $294 forward $288 $-1 #
edge $-1 $300 -0.93371648407295282 $403 17.968042241456658 $293 $404 forward 7 unknown #
coedge $-1 $405 $406 $193 $296 forward $395 $-1 #
edge $-1 $407 -57.163100358812422 $299 -54.105054099398302 $295 $408 forward 7 unknown #
edge $-1 $300 42.439088591466216 $407 48.209866189938737 $194 $409 forward 7 unknown #
coedge $-1 $195 $399 $405 $410 forward $288 $-1 #
vertex $-1 $196 $411 #
vertex $-1 $196 $412 #
straight-curve $-1 7.5834463946188997 20.065243902605459 5.3539626017602373 0 -1 0 I I #
coedge $-1 $302 $302 $-1 $413 reversed $199 $-1 #
edge $-1 $414 0 $414 6.2831853071796004 $200 $415 forward 7 unknown #
vertex $-1 $203 $416 #
ellipse-curve $-1 11.363798139724814 21.657984629721501 3.8249394720531722 0 0.52991927123019833 0.84804809178421925 1 0 0 1 I I #
coedge $-1 $306 $306 $-1 $417 reversed $206 $-1 #
edge $-1 $418 0 $418 6.2831853071796004 $207 $419 forward 7 unknown #
vertex $-1 $210 $420 #
ellipse-curve $-1 17.034325757383705 21.657984629721501 3.8249394720531722 0 0.52991927123019833 0.84804809178421925 1 0 0 1 I I #
coedge $-1 $310 $310 $-1 $421 reversed $213 $-1 #
edge $-1 $422 0 $422 6.2831853071796004 $214 $423 forward 7 unknown #
vertex $-1 $217 $424 #
ellipse-curve $-1 22.704853375042582 21.657984629721501 3.8249394720531722 0 0.52991927123019833 0.84804809178421925 1 0 0 1 I I #
face $-1 $-1 $326 $45 $-1 $425 forward single #
loop $-1 $-1 $426 $218 #
plane-surface $-1 0 -24.104933094969372 0 0 1 0 0 0 1 forward_v I I I I #
coedge $-1 $427 $428 $429 $430 reversed $219 $-1 #
coedge $-1 $431 $221 $223 $324 forward $139 $-1 #
coedge $-1 $221 $431 $427 $432 forward $139 $-1 #
coedge $-1 $429 $224 $221 $321 forward $326 $-1 #
edge $-1 $328 -25.117047496607579 $433 -6.8362086692168411 $320 $434 forward 7 unknown #
coedge $-1 $435 $436 $222 $323 forward $315 $-1 #
edge $-1 $437 -26.213974720681517 $327 -22.128768291585459 $322 $438 forward 7 unknown #
edge $-1 $328 -4.7171900209353073 $437 7.160652361767478e-015 $223 $439 forward 7 unknown #
coedge $-1 $224 $429 $435 $440 forward $326 $-1 #
loop $-1 $-1 $429 $314 #
vertex $-1 $323 $441 #
vertex $-1 $225 $442 #
straight-curve $-1 41.09367557951979 -58.555179370150242 5.3539626017602338 0 1 0 I I #
coedge $-1 $330 $330 $-1 $443 reversed $228 $-1 #
edge $-1 $444 0 $444 6.2831853071796004 $229 $445 forward 7 unknown #
vertex $-1 $232 $446 #
ellipse-curve $-1 28.035933559954977 -22.925635621334752 3.3113593872122089 0 -0.86602541151947299 0.49999998660252726 1 0 0 1 I I #
coedge $-1 $334 $334 $-1 $447 reversed $235 $-1 #
edge $-1 $448 0 $448 6.2831853071796004 $236 $449 forward 7 unknown #
vertex $-1 $239 $450 #
ellipse-curve $-1 35.870578771693864 -22.925635621334752 3.3113593872122089 0 -0.86602541151947299 0.49999998660252726 1 0 0 1 I I #
face $-1 $-1 $255 $36 $-1 $451 reversed single #
loop $-1 $-1 $354 $240 #
plane-surface $-1 0 24.104933094969372 0 0 -1 0 0 0 -1 forward_v I I I I #
coedge $-1 $452 $352 $355 $453 forward $241 $-1 #
coedge $-1 $358 $243 $244 $346 reversed $153 $-1 #
coedge $-1 $352 $452 $243 $344 reversed $241 $-1 #
edge $-1 $359 -5.3539626017602346 $454 5.3539626017602346 $343 $455 forward 7 unknown #
coedge $-1 $245 $244 $452 $456 forward $97 $-1 #
edge $-1 $350 -53.696707052827541 $454 53.696707052827541 $342 $457 forward 7 unknown #
coedge $-1 $355 $354 $245 $348 reversed $339 $-1 #
edge $-1 $458 -53.696707052827541 $349 53.696707052827541 $347 $459 forward 7 unknown #
vertex $-1 $247 $460 #
vertex $-1 $361 $461 #
straight-curve $-1 53.696707052827541 0 -5.3539626017602346 0 -1 0 I I #
coedge $-1 $341 $343 $248 $353 reversed $241 $-1 #
edge $-1 $356 -24.104933094969372 $359 24.104933094969372 $352 $462 forward 7 unknown #
coedge $-1 $347 $249 $254 $362 forward $339 $-1 #
coedge $-1 $249 $347 $341 $453 reversed $339 $-1 #
vertex $-1 $250 $463 #
straight-curve $-1 0 24.104933094969372 5.3539626017602346 -1 0 0 I I #
coedge $-1 $251 $342 $253 $361 reversed $153 $-1 #
vertex $-1 $353 $464 #
straight-curve $-1 0 -24.104933094969372 5.3539626017602346 1 0 0 I I #
edge $-1 $256 -5.3539626017602346 $350 5.3539626017602346 $253 $465 forward 7 unknown #
edge $-1 $257 -5.3539626017602346 $349 5.3539626017602346 $254 $466 forward 7 unknown #
point $-1 53.696707052827541 -24.104933094969372 5.3539626017602346 #
point $-1 53.696707052827541 24.104933094969372 5.3539626017602346 #
plane-surface $-1 0 0 5.3539626017602346 0 0 1 1 0 0 forward_v I I I I #
coedge $-1 $376 $375 $368 $467 forward $260 $-1 #
coedge $-1 $368 $262 $264 $372 reversed $161 $-1 #
coedge $-1 $262 $367 $366 $467 reversed $161 $-1 #
coedge $-1 $270 $265 $262 $370 forward $271 $-1 #
edge $-1 $373 -0.85420773813183359 $468 4.0396891923639124 $369 $469 forward 7 unknown #
coedge $-1 $264 $263 $376 $470 reversed $101 $-1 #
edge $-1 $471 -48.209866189938737 $373 -42.439088591466216 $367 $472 forward 7 unknown #
vertex $-1 $266 $473 #
straight-curve $-1 -18.331190647721925 19.211036164473636 5.3539626017602302 1 0 0 I I #
coedge $-1 $366 $267 $270 $380 reversed $260 $-1 #
coedge $-1 $267 $366 $371 $470 forward $260 $-1 #
vertex $-1 $268 $474 #
straight-curve $-1 -46.113260658208659 24.104933094969372 59.459016701158539 0 0 1 I I #
straight-curve $-1 -46.113260658208659 -16.779351932580724 27.843253499823831 0 0.84804809178421925 -0.52991927123019833 I I #
edge $-1 $468 27.211501932679045 $272 46.113260658208659 $375 $475 forward 7 unknown #
point $-1 -46.113260658208659 24.104933094969372 5.3539626017602346 #
point $-1 -46.113260658208659 19.211036164473626 5.3539626017602338 #
edge $-1 $476 1 $476 0 $275 $-1 forward 7 unknown #
vertex $-1 $276 $477 #
ellipse-curve $-1 -42.332908913102735 20.37197582424788 1.7668952137875615 0 0.52991927123019833 0.84804809178421925 1 0 0 1 I I #
point $-1 -41.332908913102735 21.657984629721501 3.8249394720531744 #
edge $-1 $478 1 $478 0 $279 $-1 forward 7 unknown #
vertex $-1 $280 $479 #
ellipse-curve $-1 -36.662381295443851 20.37197582424788 1.7668952137875615 0 0.52991927123019833 0.84804809178421925 1 0 0 1 I I #
point $-1 -35.662381295443851 21.657984629721501 3.8249394720531744 #
edge $-1 $480 1 $480 0 $283 $-1 forward 7 unknown #
vertex $-1 $284 $481 #
ellipse-curve $-1 -30.991853677784967 20.37197582424788 1.7668952137875615 0 0.52991927123019833 0.84804809178421925 1 0 0 1 I I #
point $-1 -29.991853677784967 21.657984629721501 3.8249394720531744 #
loop $-1 $-1 $295 $287 #
plane-surface $-1 0 24.104933094969372 0 0 -1 0 0 0 -1 forward_v I I I I #
coedge $-1 $398 $290 $292 $402 reversed $190 $-1 #
coedge $-1 $290 $397 $482 $483 reversed $190 $-1 #
coedge $-1 $298 $293 $290 $400 forward $288 $-1 #
edge $-1 $403 -0.85420773813183359 $484 4.0396891923639124 $399 $485 forward 7 unknown #
coedge $-1 $292 $291 $406 $486 reversed $120 $-1 #
edge $-1 $487 -48.209866189938737 $403 -42.439088591466216 $397 $488 forward 7 unknown #
vertex $-1 $294 $489 #
straight-curve $-1 8.5171628786918525 19.211036164473636 5.3539626017602302 1 0 0 I I #
coedge $-1 $482 $295 $298 $410 reversed $395 $-1 #
coedge $-1 $295 $482 $401 $486 forward $395 $-1 #
vertex $-1 $296 $490 #
straight-curve $-1 7.5834463946188997 24.104933094969372 59.459016701158539 0 0 1 I I #
straight-curve $-1 7.5834463946188997 -16.779351932580724 27.843253499823831 0 0.84804809178421925 -0.52991927123019833 I I #
edge $-1 $484 -26.48520512014851 $299 -7.5834463946188997 $405 $491 forward 7 unknown #
point $-1 7.5834463946188997 24.104933094969372 5.3539626017602346 #
point $-1 7.5834463946188997 19.211036164473626 5.3539626017602338 #
edge $-1 $492 1 $492 0 $302 $-1 forward 7 unknown #
vertex $-1 $303 $493 #
ellipse-curve $-1 11.363798139724814 20.37197582424788 1.7668952137875615 0 0.52991927123019833 0.84804809178421925 1 0 0 1 I I #
point $-1 12.363798139724814 21.657984629721501 3.8249394720531744 #
edge $-1 $494 1 $494 0 $306 $-1 forward 7 unknown #
vertex $-1 $307 $495 #
ellipse-curve $-1 17.034325757383705 20.37197582424788 1.7668952137875615 0 0.52991927123019833 0.84804809178421925 1 0 0 1 I I #
point $-1 18.034325757383705 21.657984629721501 3.8249394720531744 #
edge $-1 $496 1 $496 0 $310 $-1 forward 7 unknown #
vertex $-1 $311 $497 #
ellipse-curve $-1 22.704853375042582 20.37197582424788 1.7668952137875615 0 0.52991927123019833 0.84804809178421925 1 0 0 1 I I #
point $-1 23.704853375042582 21.657984629721501 3.8249394720531744 #
plane-surface $-1 0 0 5.3539626017602346 0 0 1 1 0 0 forward_v I I I I #
coedge $-1 $436 $435 $428 $498 forward $315 $-1 #
coedge $-1 $428 $317 $319 $432 reversed $219 $-1 #
coedge $-1 $317 $427 $426 $498 reversed $219 $-1 #
coedge $-1 $325 $320 $317 $430 forward $326 $-1 #
edge $-1 $433 -36.808841222450098 $499 -34.450246275180874 $429 $500 forward 7 unknown #
coedge $-1 $319 $318 $436 $501 reversed $139 $-1 #
edge $-1 $502 -7.160652361767478e-015 $433 4.7171900209353073 $427 $503 forward 7 unknown #
vertex $-1 $321 $504 #
straight-curve $-1 15.97662808291221 -21.74633814770014 5.3539626017602346 -1 0 0 I I #
coedge $-1 $426 $322 $325 $440 reversed $315 $-1 #
coedge $-1 $322 $426 $431 $501 forward $315 $-1 #
vertex $-1 $323 $505 #
straight-curve $-1 41.09367557951979 -24.104933094969368 27.482730893345693 0 0 1 I I #
straight-curve $-1 41.09367557951979 -24.104933094969368 1.2687561726641832 0 -0.49999998660252726 -0.86602541151947299 I I #
edge $-1 $499 22.812836752129051 $327 41.09367557951979 $435 $506 forward 7 unknown #
point $-1 41.09367557951979 -24.104933094969372 5.3539626017602346 #
point $-1 41.09367557951979 -21.74633814770014 5.3539626017602346 #
edge $-1 $507 1 $507 0 $330 $-1 forward 7 unknown #
vertex $-1 $331 $508 #
ellipse-curve $-1 28.035933559954977 -21.593467743829112 2.5422319320068598 0 -0.86602541151947299 0.49999998660252726 1 0 0 1 I I #
point $-1 29.035933559954977 -22.925635621334759 3.311359387212212 #
edge $-1 $509 1 $509 0 $334 $-1 forward 7 unknown #
vertex $-1 $335 $510 #
ellipse-curve $-1 35.870578771693864 -21.593467743829112 2.5422319320068598 0 -0.86602541151947299 0.49999998660252726 1 0 0 1 I I #
point $-1 36.870578771693864 -22.925635621334759 3.311359387212212 #
plane-surface $-1 53.696707052827541 0 0 -1 0 0 0 0 1 forward_v I I I I #
coedge $-1 $343 $341 $345 $456 reversed $241 $-1 #
edge $-1 $356 -5.3539626017602346 $458 5.3539626017602346 $355 $511 forward 7 unknown #
vertex $-1 $456 $512 #
straight-curve $-1 -53.696707052827541 -24.104933094969372 0 0 0 -1 I I #
edge $-1 $454 -24.104933094969372 $458 24.104933094969372 $452 $513 forward 7 unknown #
straight-curve $-1 0 -24.104933094969372 -5.3539626017602346 -1 0 0 I I #
vertex $-1 $348 $514 #
straight-curve $-1 0 24.104933094969372 -5.3539626017602346 1 0 0 I I #
point $-1 53.696707052827541 24.104933094969372 -5.3539626017602346 #
point $-1 53.696707052827541 -24.104933094969372 -5.3539626017602346 #
straight-curve $-1 -53.696707052827541 0 5.3539626017602346 0 -1 0 I I #
point $-1 -53.696707052827541 24.104933094969372 5.3539626017602346 #
point $-1 -53.696707052827541 -24.104933094969372 5.3539626017602346 #
straight-curve $-1 53.696707052827541 -24.104933094969372 0 0 0 -1 I I #
straight-curve $-1 53.696707052827541 24.104933094969372 0 0 0 -1 I I #
edge $-1 $468 54.105054099398302 $471 57.163100358812422 $366 $515 forward 7 unknown #
vertex $-1 $380 $516 #
straight-curve $-1 -27.211501932679045 20.065243902605459 5.3539626017602373 0 1 0 I I #
edge $-1 $471 8.88031128495712 $377 27.782070010486734 $376 $517 forward 7 unknown #
vertex $-1 $470 $518 #
straight-curve $-1 -27.211501932679045 -16.779351932580724 27.843253499823831 0 -0.84804809178421925 0.52991927123019833 I I #
point $-1 -27.211501932679045 19.211036164473626 5.3539626017602338 #
point $-1 -46.113260658208659 24.104933094969368 2.2959163423461177 #
straight-curve $-1 0 24.104933094969372 5.3539626017602346 -1 0 0 I I #
vertex $-1 $383 $519 #
point $-1 -41.332908913102735 20.37197582424788 1.7668952137875615 #
vertex $-1 $387 $520 #
point $-1 -35.662381295443851 20.37197582424788 1.7668952137875615 #
vertex $-1 $391 $521 #
point $-1 -29.991853677784967 20.37197582424788 1.7668952137875615 #
coedge $-1 $406 $405 $398 $483 forward $395 $-1 #
edge $-1 $484 54.105054099398302 $487 57.163100358812422 $482 $522 forward 7 unknown #
vertex $-1 $410 $523 #
straight-curve $-1 26.48520512014851 20.065243902605459 5.3539626017602373 0 1 0 I I #
edge $-1 $487 -17.968042241456658 $407 0.93371648407295282 $406 $524 forward 7 unknown #
vertex $-1 $486 $525 #
straight-curve $-1 26.48520512014851 -16.779351932580724 27.843253499823831 0 -0.84804809178421925 0.52991927123019833 I I #
point $-1 26.48520512014851 19.211036164473626 5.3539626017602338 #
point $-1 7.5834463946188997 24.104933094969368 2.2959163423461177 #
straight-curve $-1 0 24.104933094969372 5.3539626017602346 -1 0 0 I I #
vertex $-1 $413 $526 #
point $-1 12.363798139724814 20.37197582424788 1.7668952137875615 #
vertex $-1 $417 $527 #
point $-1 18.034325757383705 20.37197582424788 1.7668952137875615 #
vertex $-1 $421 $528 #
point $-1 23.704853375042582 20.37197582424788 1.7668952137875615 #
edge $-1 $499 22.128768291585459 $502 26.213974720681517 $426 $529 forward 7 unknown #
vertex $-1 $440 $530 #
straight-curve $-1 22.812836752129051 -58.555179370150242 5.3539626017602338 0 -1 0 I I #
edge $-1 $502 6.8362086692168411 $437 25.117047496607579 $436 $531 forward 7 unknown #
vertex $-1 $501 $532 #
straight-curve $-1 22.812836752129051 -24.104933094969368 1.2687561726641832 0 0.49999998660252726 0.86602541151947299 I I #
point $-1 22.812836752129051 -21.74633814770014 5.3539626017602346 #
point $-1 41.09367557951979 -24.104933094969372 1.268756172664177 #
straight-curve $-1 0 -24.104933094969372 5.3539626017602346 1 0 0 I I #
vertex $-1 $443 $533 #
point $-1 29.035933559954977 -21.593467743829112 2.5422319320068598 #
vertex $-1 $447 $534 #
point $-1 36.870578771693864 -21.593467743829112 2.5422319320068598 #
straight-curve $-1 -53.696707052827541 24.104933094969372 0 0 0 -1 I I #
point $-1 -53.696707052827541 -24.104933094969372 -5.3539626017602346 #
straight-curve $-1 -53.696707052827541 0 -5.3539626017602346 0 1 0 I I #
point $-1 -53.696707052827541 24.104933094969372 -5.3539626017602346 #
straight-curve $-1 -27.211501932679045 24.104933094969372 59.459016701158539 0 0 -1 I I #
point $-1 -27.211501932679045 24.104933094969372 5.3539626017602346 #
straight-curve $-1 -18.331190647721925 24.104933094969375 2.2959163423461177 -1 0 0 I I #
point $-1 -27.211501932679045 24.104933094969368 2.2959163423461177 #
point $-1 -42.332908913102735 19.842056553017681 0.91884712200334229 #
point $-1 -36.662381295443851 19.842056553017681 0.91884712200334229 #
point $-1 -30.991853677784967 19.842056553017681 0.91884712200334229 #
straight-curve $-1 26.48520512014851 24.104933094969372 59.459016701158539 0 0 -1 I I #
point $-1 26.48520512014851 24.104933094969372 5.3539626017602346 #
straight-curve $-1 8.5171628786918525 24.104933094969375 2.2959163423461177 -1 0 0 I I #
point $-1 26.48520512014851 24.104933094969368 2.2959163423461177 #
point $-1 11.363798139724814 19.842056553017681 0.91884712200334229 #
point $-1 17.034325757383705 19.842056553017681 0.91884712200334229 #
point $-1 22.704853375042582 19.842056553017681 0.91884712200334229 #
straight-curve $-1 22.812836752129051 -24.104933094969368 27.482730893345693 0 0 -1 I I #
point $-1 22.812836752129051 -24.104933094969372 5.3539626017602346 #
straight-curve $-1 15.97662808291221 -24.104933094969372 1.2687561726641727 1 0 0 I I #
point $-1 22.812836752129051 -24.104933094969372 1.268756172664177 #
point $-1 28.035933559954977 -20.727442332309639 2.0422319454043323 #
point $-1 35.870578771693864 -20.727442332309639 2.0422319454043323 #
End-of-ACIS-data 