500 0 5 0           
7 Unknown 11 ACIS 5.0 NT 24 Fri Mar 26 19:28:23 1999 
-1 9.9999999999999995e-007 1e-010 
body $-1 $5 $-1 $6 #
body $-1 $7 $-1 $8 #
body $-1 $9 $-1 $10 #
body $-1 $11 $-1 $12 #
body $-1 $13 $-1 $14 #
lump $-1 $-1 $15 $0 #
transform $-1 1 0 0 0 1 0 0 0 1 71.702627643665892 32.761056832838378 13.841788967890389 1 rotate no_reflect no_shear #
lump $-1 $-1 $16 $1 #
transform $-1 1 0 0 0 1 0 0 0 1 71.702627643665892 32.761056832838378 13.841788967890389 1 rotate no_reflect no_shear #
lump $-1 $-1 $17 $2 #
transform $-1 1 0 0 0 1 0 0 0 1 71.702627643665892 32.761056832838378 13.841788967890389 1 rotate no_reflect no_shear #
lump $-1 $-1 $18 $3 #
transform $-1 1 0 0 0 1 0 0 0 1 71.702627643665892 32.761056832838378 13.841788967890389 1 rotate no_reflect no_shear #
lump $-1 $-1 $19 $4 #
transform $-1 1 0 0 0 1 0 0 0 1 71.702627643665892 32.761056832838378 13.841788967890389 1 rotate no_reflect no_shear #
shell $-1 $-1 $-1 $20 $-1 $5 #
shell $-1 $-1 $-1 $21 $-1 $7 #
shell $-1 $-1 $-1 $22 $-1 $9 #
shell $-1 $-1 $-1 $23 $-1 $11 #
shell $-1 $-1 $-1 $24 $-1 $13 #
face $-1 $25 $26 $15 $-1 $27 forward single #
face $-1 $28 $29 $16 $-1 $30 forward single #
face $-1 $31 $32 $17 $-1 $33 reversed single #
face $-1 $34 $35 $18 $-1 $36 forward single #
face $-1 $37 $38 $19 $-1 $39 forward single #
face $-1 $40 $41 $15 $-1 $42 reversed single #
loop $-1 $-1 $43 $20 #
plane-surface $-1 0 0 13.841788967890389 0 0 1 1 0 0 forward_v I I I I #
face $-1 $44 $45 $16 $-1 $46 reversed single #
loop $-1 $-1 $47 $21 #
plane-surface $-1 -71.702627643665892 0 0 1 0 0 0 0 -1 forward_v I I I I #
face $-1 $48 $49 $17 $-1 $50 reversed single #
loop $-1 $-1 $51 $22 #
plane-surface $-1 -2.156537101583524 -28.339159007141966 129.82369244713408 0.85716730853699208 0 0.51503806187062418 0.51503806187062418 0 -0.85716730853699208 forward_v I I I I #
face $-1 $52 $53 $18 $-1 $54 forward single #
loop $-1 $55 $56 $23 #
cone-surface $-1 68.721208277303205 -30.234258075297571 9.8330320160117317 -0.85716730853699208 0 -0.51503806187062418 0.51503806187062418 0 -0.85716730853699208 1 I I 0 1 1 forward I I I I #
face $-1 $57 $58 $19 $-1 $59 forward single #
loop $-1 $60 $61 $24 #
cone-surface $-1 68.721208277303205 -26.444059938986364 9.8330320160117317 -0.85716730853699208 0 -0.51503806187062418 0.51503806187062418 0 -0.85716730853699208 1 I I 0 1 1 forward I I I I #
face $-1 $62 $63 $15 $-1 $64 reversed single #
loop $-1 $-1 $65 $25 #
plane-surface $-1 0 0 -13.841788967890389 0 0 1 1 0 0 forward_v I I I I #
coedge $-1 $66 $67 $68 $69 forward $26 $-1 #
face $-1 $70 $71 $16 $-1 $72 reversed single #
loop $-1 $-1 $73 $28 #
plane-surface $-1 0 32.761056832838378 0 0 -1 0 0 0 -1 forward_v I I I I #
coedge $-1 $74 $75 $76 $77 forward $29 $-1 #
face $-1 $78 $79 $17 $-1 $80 forward single #
loop $-1 $-1 $81 $31 #
plane-surface $-1 120.76575960311891 -23.917261181445554 203.68285719238352 0 -1 0 -0.85716730853699208 0 -0.51503806187062418 forward_v I I I I #
coedge $-1 $82 $83 $84 $85 reversed $32 $-1 #
face $-1 $-1 $86 $18 $-1 $87 forward single #
loop $-1 $88 $89 $34 #
cone-surface $-1 67.396309669695768 -30.234258075297571 9.0369526459271494 -0.85716730853699208 0 -0.51503806187062418 0.25751903093531209 0 -0.42858365426849604 1 I I -0.70710678118654746 0.70710678118654746 0.5 forward I I I I #
loop $-1 $-1 $90 $23 #
coedge $-1 $56 $56 $91 $92 reversed $35 $-1 #
face $-1 $-1 $93 $19 $-1 $94 forward single #
loop $-1 $95 $96 $37 #
cone-surface $-1 67.396309669695768 -26.444059938986364 9.0369526459271494 -0.85716730853699208 0 -0.51503806187062418 0.25751903093531209 0 -0.42858365426849604 1 I I -0.70710678118654746 0.70710678118654746 0.5 forward I I I I #
loop $-1 $-1 $97 $24 #
coedge $-1 $61 $61 $98 $99 reversed $38 $-1 #
face $-1 $100 $101 $15 $-1 $102 reversed single #
loop $-1 $-1 $103 $40 #
plane-surface $-1 0 -32.761056832838378 0 0 1 0 0 0 1 forward_v I I I I #
coedge $-1 $104 $105 $106 $107 forward $41 $-1 #
coedge $-1 $108 $43 $109 $110 forward $26 $-1 #
coedge $-1 $43 $108 $111 $112 forward $26 $-1 #
coedge $-1 $113 $114 $43 $69 reversed $115 $-1 #
edge $-1 $116 -32.761056832838378 $117 32.761056832838378 $68 $118 forward 7 unknown #
face $-1 $119 $120 $16 $-1 $121 reversed single #
loop $-1 $-1 $76 $44 #
plane-surface $-1 -76.57752094693906 0 9.3941843862280248 0 0 1 1 0 0 forward_v I I I I #
coedge $-1 $122 $123 $74 $124 forward $45 $-1 #
coedge $-1 $125 $47 $73 $124 reversed $29 $-1 #
coedge $-1 $47 $125 $126 $127 reversed $29 $-1 #
coedge $-1 $128 $129 $47 $77 reversed $71 $-1 #
edge $-1 $130 -32.761056832838378 $131 32.761056832838378 $76 $132 forward 7 unknown #
face $-1 $133 $134 $17 $-1 $135 reversed single #
loop $-1 $-1 $136 $48 #
plane-surface $-1 0 0 13.841788967890389 0 0 1 1 0 0 forward_v I I I I #
coedge $-1 $137 $138 $139 $140 reversed $49 $-1 #
coedge $-1 $141 $51 $142 $143 reversed $32 $-1 #
coedge $-1 $51 $141 $137 $144 forward $32 $-1 #
coedge $-1 $139 $145 $51 $85 forward $146 $-1 #
edge $-1 $147 -18.591477329267395 $148 -9.7476816778745707 $84 $149 forward 7 unknown #
loop $-1 $-1 $91 $52 #
plane-surface $-1 -2.156537101583524 -28.339159007141966 129.82369244713408 0.85716730853699208 0 0.51503806187062418 0.51503806187062418 0 -0.85716730853699208 forward_v I I I I #
loop $-1 $-1 $150 $34 #
coedge $-1 $89 $89 $90 $151 reversed $53 $-1 #
coedge $-1 $90 $90 $89 $151 forward $55 $-1 #
coedge $-1 $91 $91 $56 $92 forward $86 $-1 #
edge $-1 $152 0 $152 6.2831853071796004 $91 $153 forward 7 unknown #
loop $-1 $-1 $98 $57 #
plane-surface $-1 -2.156537101583524 -28.339159007141966 129.82369244713408 0.85716730853699208 0 0.51503806187062418 0.51503806187062418 0 -0.85716730853699208 forward_v I I I I #
loop $-1 $-1 $154 $37 #
coedge $-1 $96 $96 $97 $155 reversed $58 $-1 #
coedge $-1 $97 $97 $96 $155 forward $60 $-1 #
coedge $-1 $98 $98 $61 $99 forward $93 $-1 #
edge $-1 $156 0 $156 6.2831853071796004 $98 $157 forward 7 unknown #
face $-1 $158 $159 $15 $-1 $160 reversed single #
loop $-1 $-1 $161 $62 #
plane-surface $-1 -71.702627643665892 0 0 1 0 0 0 0 -1 forward_v I I I I #
coedge $-1 $162 $111 $163 $164 forward $63 $-1 #
coedge $-1 $165 $65 $162 $166 forward $41 $-1 #
coedge $-1 $65 $165 $167 $168 forward $41 $-1 #
coedge $-1 $114 $113 $65 $107 reversed $115 $-1 #
edge $-1 $169 -32.761056832838378 $170 32.761056832838378 $106 $171 forward 7 unknown #
coedge $-1 $67 $66 $172 $173 forward $26 $-1 #
coedge $-1 $174 $175 $66 $110 reversed $159 $-1 #
edge $-1 $117 -71.702627643665892 $176 71.702627643665892 $109 $177 forward 7 unknown #
coedge $-1 $103 $178 $67 $112 reversed $63 $-1 #
edge $-1 $179 -71.702627643665892 $116 71.702627643665892 $111 $180 forward 7 unknown #
coedge $-1 $106 $68 $178 $181 forward $115 $-1 #
coedge $-1 $68 $106 $174 $182 reversed $115 $-1 #
loop $-1 $-1 $113 $158 #
vertex $-1 $69 $183 #
vertex $-1 $69 $184 #
straight-curve $-1 71.702627643665892 0 13.841788967890389 0 1 0 I I #
face $-1 $185 $186 $16 $-1 $187 forward single #
loop $-1 $-1 $188 $70 #
plane-surface $-1 -81.452414250212229 0 11.617986677059209 1 0 0 0 0 -1 forward_v I I I I #
coedge $-1 $189 $73 $129 $190 reversed $45 $-1 #
coedge $-1 $73 $189 $191 $192 reversed $45 $-1 #
edge $-1 $193 -13.841788967890389 $131 -9.3941843862280248 $73 $194 forward 7 unknown #
coedge $-1 $75 $74 $195 $196 reversed $29 $-1 #
coedge $-1 $197 $198 $75 $127 forward $199 $-1 #
edge $-1 $130 9.3941843862280248 $200 13.841788967890389 $126 $201 forward 7 unknown #
coedge $-1 $202 $76 $198 $203 forward $71 $-1 #
coedge $-1 $76 $202 $122 $190 forward $71 $-1 #
vertex $-1 $127 $204 #
vertex $-1 $124 $205 #
straight-curve $-1 -71.702627643665892 0 9.3941843862280248 0 1 0 I I #
face $-1 $-1 $146 $17 $-1 $206 reversed single #
loop $-1 $-1 $142 $78 #
plane-surface $-1 0 -32.761056832838378 0 0 1 0 0 0 1 forward_v I I I I #
coedge $-1 $207 $208 $138 $209 forward $79 $-1 #
coedge $-1 $138 $81 $83 $144 reversed $49 $-1 #
coedge $-1 $81 $137 $136 $209 reversed $49 $-1 #
coedge $-1 $210 $84 $81 $140 forward $146 $-1 #
edge $-1 $148 -94.940032853760059 $211 -87.999639628301367 $139 $212 forward 7 unknown #
coedge $-1 $83 $82 $207 $213 reversed $32 $-1 #
coedge $-1 $214 $215 $82 $143 forward $134 $-1 #
edge $-1 $216 79.112698970515794 $147 87.209593423133825 $142 $217 forward 7 unknown #
edge $-1 $218 135.30836083471374 $148 143.40525528733176 $137 $219 forward 7 unknown #
coedge $-1 $84 $210 $214 $220 forward $146 $-1 #
loop $-1 $-1 $139 $133 #
vertex $-1 $143 $221 #
vertex $-1 $85 $222 #
straight-curve $-1 71.702627643665892 -14.169579503570983 6.9013957424316885 0 1 0 I I #
coedge $-1 $150 $150 $-1 $223 reversed $88 $-1 #
edge $-1 $224 0 $224 6.2831853071796004 $89 $225 forward 7 unknown #
vertex $-1 $92 $226 #
ellipse-curve $-1 69.617523230642192 -30.234258075297571 10.371592355161031 0.85716730853699208 0 0.51503806187062418 0.51503806187062418 0 -0.85716730853699208 1 I I #
coedge $-1 $154 $154 $-1 $227 reversed $95 $-1 #
edge $-1 $228 0 $228 6.2831853071796004 $96 $229 forward 7 unknown #
vertex $-1 $99 $230 #
ellipse-curve $-1 69.617523230642192 -26.444059938986364 10.371592355161031 0.85716730853699208 0 0.51503806187062418 0.51503806187062418 0 -0.85716730853699208 1 I I #
face $-1 $-1 $115 $15 $-1 $231 reversed single #
loop $-1 $-1 $174 $100 #
plane-surface $-1 0 32.761056832838378 0 0 -1 0 0 0 -1 forward_v I I I I #
coedge $-1 $232 $172 $175 $233 forward $101 $-1 #
coedge $-1 $178 $103 $104 $166 reversed $63 $-1 #
coedge $-1 $172 $232 $103 $164 reversed $101 $-1 #
edge $-1 $179 -13.841788967890389 $234 13.841788967890389 $163 $235 forward 7 unknown #
coedge $-1 $105 $104 $232 $236 forward $41 $-1 #
edge $-1 $170 -71.702627643665892 $234 71.702627643665892 $162 $237 forward 7 unknown #
coedge $-1 $175 $174 $105 $168 reversed $159 $-1 #
edge $-1 $238 -71.702627643665892 $169 71.702627643665892 $167 $239 forward 7 unknown #
vertex $-1 $107 $240 #
vertex $-1 $181 $241 #
straight-curve $-1 71.702627643665892 0 -13.841788967890389 0 -1 0 I I #
coedge $-1 $161 $163 $108 $173 reversed $101 $-1 #
edge $-1 $176 -32.761056832838378 $179 32.761056832838378 $172 $242 forward 7 unknown #
coedge $-1 $167 $109 $114 $182 forward $159 $-1 #
coedge $-1 $109 $167 $161 $233 reversed $159 $-1 #
vertex $-1 $110 $243 #
straight-curve $-1 0 32.761056832838378 13.841788967890389 -1 0 0 I I #
coedge $-1 $111 $162 $113 $181 reversed $63 $-1 #
vertex $-1 $173 $244 #
straight-curve $-1 0 -32.761056832838378 13.841788967890389 1 0 0 I I #
edge $-1 $116 -13.841788967890389 $170 13.841788967890389 $113 $245 forward 7 unknown #
edge $-1 $117 -13.841788967890389 $169 13.841788967890389 $114 $246 forward 7 unknown #
point $-1 71.702627643665892 -32.761056832838378 13.841788967890389 #
point $-1 71.702627643665892 32.761056832838378 13.841788967890389 #
face $-1 $-1 $199 $16 $-1 $247 reversed single #
loop $-1 $-1 $195 $119 #
plane-surface $-1 0 0 13.841788967890389 0 0 1 1 0 0 forward_v I I I I #
coedge $-1 $248 $249 $189 $250 forward $120 $-1 #
coedge $-1 $123 $122 $188 $250 reversed $45 $-1 #
edge $-1 $251 -4.8748933032731685 $131 4.8748933032731685 $122 $252 forward 7 unknown #
coedge $-1 $253 $195 $123 $192 forward $186 $-1 #
edge $-1 $193 71.702627643665892 $254 81.452414250212229 $123 $255 forward 7 unknown #
vertex $-1 $192 $256 #
straight-curve $-1 -71.702627643665892 32.761056832838378 0 0 0 -1 I I #
coedge $-1 $191 $257 $125 $196 forward $186 $-1 #
edge $-1 $200 -32.761056832838378 $193 32.761056832838378 $195 $258 forward 7 unknown #
coedge $-1 $259 $126 $257 $260 reversed $199 $-1 #
coedge $-1 $126 $259 $128 $203 reversed $199 $-1 #
loop $-1 $-1 $126 $185 #
vertex $-1 $127 $261 #
straight-curve $-1 -71.702627643665892 -32.761056832838378 0 0 0 1 I I #
coedge $-1 $129 $128 $248 $262 forward $71 $-1 #
edge $-1 $130 -4.8748933032731685 $263 4.8748933032731685 $198 $264 forward 7 unknown #
point $-1 -71.702627643665892 -32.761056832838378 9.3941843862280248 #
point $-1 -71.702627643665892 32.761056832838378 9.3941843862280248 #
plane-surface $-1 71.702627643665892 0 0 -1 0 0 0 0 1 forward_v I I I I #
coedge $-1 $265 $136 $141 $213 forward $79 $-1 #
coedge $-1 $136 $265 $210 $266 forward $79 $-1 #
edge $-1 $211 -11.319747842106437 $218 -7.1495390160590375 $136 $267 forward 7 unknown #
coedge $-1 $145 $139 $208 $266 reversed $146 $-1 #
vertex $-1 $209 $268 #
straight-curve $-1 71.702627643665892 -23.917261181445554 101.84142859619176 0 0 1 I I #
edge $-1 $218 9.7476816778745707 $216 18.591477329267395 $207 $269 forward 7 unknown #
coedge $-1 $215 $142 $145 $220 reversed $134 $-1 #
coedge $-1 $142 $214 $265 $270 reversed $134 $-1 #
vertex $-1 $270 $271 #
straight-curve $-1 26.786367670489913 -32.761056832838378 81.65460821554467 0.51503806187062429 0 -0.85716730853699219 I I #
vertex $-1 $213 $272 #
straight-curve $-1 -2.156537101583524 -23.917261181445554 129.82369244713408 0.51503806187062418 0 -0.85716730853699208 I I #
edge $-1 $273 -13.841788967890389 $147 -6.9013957424316885 $145 $274 forward 7 unknown #
point $-1 71.702627643665892 -32.761056832838378 6.9013957424316885 #
point $-1 71.702627643665892 -23.917261181445554 6.9013957424317027 #
edge $-1 $275 1 $275 0 $150 $-1 forward 7 unknown #
vertex $-1 $151 $276 #
ellipse-curve $-1 67.824893323964261 -30.234258075297571 9.2944716768624609 0.85716730853699208 0 0.51503806187062418 0.51503806187062418 0 -0.85716730853699208 1 I I #
point $-1 70.132561292512776 -30.234258075297571 9.5144250466240088 #
edge $-1 $277 1 $277 0 $154 $-1 forward 7 unknown #
vertex $-1 $155 $278 #
ellipse-curve $-1 67.824893323964261 -26.444059938986364 9.2944716768624609 0.85716730853699208 0 0.51503806187062418 0.51503806187062418 0 -0.85716730853699208 1 I I #
point $-1 70.132561292512776 -26.444059938986364 9.5144250466240088 #
plane-surface $-1 71.702627643665892 0 0 -1 0 0 0 0 1 forward_v I I I I #
coedge $-1 $163 $161 $165 $236 reversed $101 $-1 #
edge $-1 $176 -13.841788967890389 $238 13.841788967890389 $175 $279 forward 7 unknown #
vertex $-1 $236 $280 #
straight-curve $-1 -71.702627643665892 -32.761056832838378 0 0 0 -1 I I #
edge $-1 $234 -32.761056832838378 $238 32.761056832838378 $232 $281 forward 7 unknown #
straight-curve $-1 0 -32.761056832838378 -13.841788967890389 -1 0 0 I I #
vertex $-1 $168 $282 #
straight-curve $-1 0 32.761056832838378 -13.841788967890389 1 0 0 I I #
point $-1 71.702627643665892 32.761056832838378 -13.841788967890389 #
point $-1 71.702627643665892 -32.761056832838378 -13.841788967890389 #
straight-curve $-1 -71.702627643665892 0 13.841788967890389 0 -1 0 I I #
point $-1 -71.702627643665892 32.761056832838378 13.841788967890389 #
point $-1 -71.702627643665892 -32.761056832838378 13.841788967890389 #
straight-curve $-1 71.702627643665892 -32.761056832838378 0 0 0 -1 I I #
straight-curve $-1 71.702627643665892 32.761056832838378 0 0 0 -1 I I #
plane-surface $-1 0 -32.761056832838378 0 0 1 0 0 0 1 forward_v I I I I #
coedge $-1 $283 $188 $202 $262 reversed $120 $-1 #
coedge $-1 $188 $283 $253 $284 reversed $120 $-1 #
edge $-1 $254 -2.2238022908311841 $251 2.2238022908311841 $189 $285 forward 7 unknown #
vertex $-1 $190 $286 #
straight-curve $-1 -76.57752094693906 32.761056832838378 9.3941843862280248 1 0 0 I I #
coedge $-1 $257 $191 $249 $284 forward $186 $-1 #
vertex $-1 $192 $287 #
straight-curve $-1 0 32.761056832838378 13.841788967890389 -1 0 0 I I #
point $-1 -71.702627643665892 32.761056832838378 13.841788967890389 #
coedge $-1 $195 $253 $197 $260 forward $186 $-1 #
straight-curve $-1 -71.702627643665892 0 13.841788967890389 0 1 0 I I #
coedge $-1 $198 $197 $283 $288 forward $199 $-1 #
edge $-1 $289 -81.452414250212229 $200 -71.702627643665892 $197 $290 forward 7 unknown #
point $-1 -71.702627643665892 -32.761056832838378 13.841788967890389 #
edge $-1 $263 -32.761056832838378 $251 32.761056832838378 $248 $291 forward 7 unknown #
vertex $-1 $262 $292 #
straight-curve $-1 -76.57752094693906 -32.761056832838378 9.3941843862280248 -1 0 0 I I #
coedge $-1 $208 $207 $215 $270 forward $79 $-1 #
edge $-1 $273 -32.761056832838378 $211 -23.917261181445554 $210 $293 forward 7 unknown #
straight-curve $-1 60.382879801559454 -23.917261181445554 13.841788967890395 -1 0 0 I I #
point $-1 71.702627643665892 -23.917261181445554 13.841788967890389 #
straight-curve $-1 67.532418817618463 -14.169579503570983 13.841788967890395 0 -1 0 I I #
edge $-1 $216 67.532418817618492 $273 71.702627643665892 $215 $294 forward 7 unknown #
point $-1 67.532418817618492 -32.761056832838378 13.84178896789038 #
point $-1 67.532418817618492 -23.917261181445554 13.84178896789038 #
vertex $-1 $266 $295 #
straight-curve $-1 71.702627643665892 -32.761056832838378 0 0 0 -1 I I #
vertex $-1 $223 $296 #
point $-1 68.339931385834888 -30.234258075297571 8.4373043683254689 #
vertex $-1 $227 $297 #
point $-1 68.339931385834888 -26.444059938986364 8.4373043683254689 #
straight-curve $-1 -71.702627643665892 32.761056832838378 0 0 0 -1 I I #
point $-1 -71.702627643665892 -32.761056832838378 -13.841788967890389 #
straight-curve $-1 -71.702627643665892 0 -13.841788967890389 0 1 0 I I #
point $-1 -71.702627643665892 32.761056832838378 -13.841788967890389 #
coedge $-1 $249 $248 $259 $288 reversed $120 $-1 #
edge $-1 $254 -32.761056832838378 $289 32.761056832838378 $249 $298 forward 7 unknown #
straight-curve $-1 -81.452414250212229 32.761056832838378 11.617986677059209 0 0 -1 I I #
point $-1 -81.452414250212229 32.761056832838378 9.3941843862280248 #
point $-1 -81.452414250212229 32.761056832838378 13.841788967890393 #
edge $-1 $289 -2.2238022908311841 $263 2.2238022908311841 $283 $299 forward 7 unknown #
vertex $-1 $284 $300 #
straight-curve $-1 0 -32.761056832838378 13.841788967890389 1 0 0 I I #
straight-curve $-1 -81.452414250212229 0 9.3941843862280248 0 1 0 I I #
point $-1 -81.452414250212229 -32.761056832838378 9.3941843862280248 #
straight-curve $-1 71.702627643665892 0 13.841788967890389 0 1 0 I I #
straight-curve $-1 0 -32.761056832838378 13.841788967890389 1 0 0 I I #
point $-1 71.702627643665892 -32.761056832838378 13.841788967890389 #
point $-1 66.967726015427274 -30.234258075297571 8.7794336149918379 #
point $-1 66.967726015427274 -26.444059938986364 8.7794336149918379 #
straight-curve $-1 -81.452414250212229 0 13.841788967890393 0 -1 0 I I #
straight-curve $-1 -81.452414250212229 -32.761056832838378 11.617986677059209 0 0 -1 I I #
point $-1 -81.452414250212229 -32.761056832838378 13.841788967890393 #
End-of-ACIS-data 