500 0 18 0           
7 Unknown 11 ACIS 5.0 NT 24 Fri Mar 26 19:37:53 1999 
-1 9.9999999999999995e-007 1e-010 
body $-1 $18 $-1 $19 #
body $-1 $20 $-1 $21 #
body $-1 $22 $-1 $23 #
body $-1 $24 $-1 $25 #
body $-1 $26 $-1 $27 #
body $-1 $28 $-1 $29 #
body $-1 $30 $-1 $31 #
body $-1 $32 $-1 $33 #
body $-1 $34 $-1 $35 #
body $-1 $36 $-1 $37 #
body $-1 $38 $-1 $39 #
body $-1 $40 $-1 $41 #
body $-1 $42 $-1 $43 #
body $-1 $44 $-1 $45 #
body $-1 $46 $-1 $47 #
body $-1 $48 $-1 $49 #
body $-1 $50 $-1 $51 #
body $-1 $52 $-1 $53 #
lump $-1 $-1 $54 $0 #
transform $-1 1 0 0 0 1 0 0 0 1 41.7383342997528 23.035377401353788 11.331673476201104 1 rotate no_reflect no_shear #
lump $-1 $-1 $55 $1 #
transform $-1 1 0 0 0 1 0 0 0 1 41.7383342997528 23.035377401353788 11.331673476201104 1 rotate no_reflect no_shear #
lump $-1 $-1 $56 $2 #
transform $-1 1 0 0 0 1 0 0 0 1 41.7383342997528 23.035377401353788 11.331673476201104 1 rotate no_reflect no_shear #
lump $-1 $-1 $57 $3 #
transform $-1 1 0 0 0 1 0 0 0 1 41.7383342997528 23.035377401353788 11.331673476201104 1 rotate no_reflect no_shear #
lump $-1 $-1 $58 $4 #
transform $-1 1 0 0 0 1 0 0 0 1 41.7383342997528 23.035377401353788 11.331673476201104 1 rotate no_reflect no_shear #
lump $-1 $-1 $59 $5 #
transform $-1 1 0 0 0 1 0 0 0 1 41.7383342997528 23.035377401353788 11.331673476201104 1 rotate no_reflect no_shear #
lump $-1 $-1 $60 $6 #
transform $-1 1 0 0 0 1 0 0 0 1 41.7383342997528 23.035377401353788 11.331673476201104 1 rotate no_reflect no_shear #
lump $-1 $-1 $61 $7 #
transform $-1 1 0 0 0 1 0 0 0 1 41.7383342997528 23.035377401353788 11.331673476201104 1 rotate no_reflect no_shear #
lump $-1 $-1 $62 $8 #
transform $-1 1 0 0 0 1 0 0 0 1 41.7383342997528 23.035377401353788 11.331673476201104 1 rotate no_reflect no_shear #
lump $-1 $-1 $63 $9 #
transform $-1 1 0 0 0 1 0 0 0 1 41.7383342997528 23.035377401353788 11.331673476201104 1 rotate no_reflect no_shear #
lump $-1 $-1 $64 $10 #
transform $-1 1 0 0 0 1 0 0 0 1 41.7383342997528 23.035377401353788 11.331673476201104 1 rotate no_reflect no_shear #
lump $-1 $-1 $65 $11 #
transform $-1 1 0 0 0 1 0 0 0 1 41.7383342997528 23.035377401353788 11.331673476201104 1 rotate no_reflect no_shear #
lump $-1 $-1 $66 $12 #
transform $-1 1 0 0 0 1 0 0 0 1 41.7383342997528 23.035377401353788 11.331673476201104 1 rotate no_reflect no_shear #
lump $-1 $-1 $67 $13 #
transform $-1 1 0 0 0 1 0 0 0 1 41.7383342997528 23.035377401353788 11.331673476201104 1 rotate no_reflect no_shear #
lump $-1 $-1 $68 $14 #
transform $-1 1 0 0 0 1 0 0 0 1 41.7383342997528 23.035377401353788 11.331673476201104 1 rotate no_reflect no_shear #
lump $-1 $-1 $69 $15 #
transform $-1 1 0 0 0 1 0 0 0 1 41.7383342997528 23.035377401353788 11.331673476201104 1 rotate no_reflect no_shear #
lump $-1 $-1 $70 $16 #
transform $-1 1 0 0 0 1 0 0 0 1 41.7383342997528 23.035377401353788 11.331673476201104 1 rotate no_reflect no_shear #
lump $-1 $-1 $71 $17 #
transform $-1 1 0 0 0 1 0 0 0 1 41.7383342997528 23.035377401353788 11.331673476201104 1 rotate no_reflect no_shear #
shell $-1 $-1 $-1 $72 $-1 $18 #
shell $-1 $-1 $-1 $73 $-1 $20 #
shell $-1 $-1 $-1 $74 $-1 $22 #
shell $-1 $-1 $-1 $75 $-1 $24 #
shell $-1 $-1 $-1 $76 $-1 $26 #
shell $-1 $-1 $-1 $77 $-1 $28 #
shell $-1 $-1 $-1 $78 $-1 $30 #
shell $-1 $-1 $-1 $79 $-1 $32 #
shell $-1 $-1 $-1 $80 $-1 $34 #
shell $-1 $-1 $-1 $81 $-1 $36 #
shell $-1 $-1 $-1 $82 $-1 $38 #
shell $-1 $-1 $-1 $83 $-1 $40 #
shell $-1 $-1 $-1 $84 $-1 $42 #
shell $-1 $-1 $-1 $85 $-1 $44 #
shell $-1 $-1 $-1 $86 $-1 $46 #
shell $-1 $-1 $-1 $87 $-1 $48 #
shell $-1 $-1 $-1 $88 $-1 $50 #
shell $-1 $-1 $-1 $89 $-1 $52 #
face $-1 $90 $91 $54 $-1 $92 forward single #
face $-1 $93 $94 $55 $-1 $95 forward single #
face $-1 $96 $97 $56 $-1 $98 reversed single #
face $-1 $99 $100 $57 $-1 $101 forward single #
face $-1 $102 $103 $58 $-1 $104 forward single #
face $-1 $105 $106 $59 $-1 $107 forward single #
face $-1 $108 $109 $60 $-1 $110 reversed single #
face $-1 $111 $112 $61 $-1 $113 forward single #
face $-1 $114 $115 $62 $-1 $116 forward single #
face $-1 $117 $118 $63 $-1 $119 forward single #
face $-1 $120 $121 $64 $-1 $122 reversed single #
face $-1 $123 $124 $65 $-1 $125 forward single #
face $-1 $126 $127 $66 $-1 $128 forward single #
face $-1 $129 $130 $67 $-1 $131 forward single #
face $-1 $132 $133 $68 $-1 $134 reversed single #
face $-1 $135 $136 $69 $-1 $137 forward single #
face $-1 $138 $139 $70 $-1 $140 forward single #
face $-1 $141 $142 $71 $-1 $143 forward single #
face $-1 $144 $145 $54 $-1 $146 reversed single #
loop $-1 $-1 $147 $72 #
plane-surface $-1 0 0 11.331673476201104 0 0 1 1 0 0 forward_v I I I I #
face $-1 $148 $149 $55 $-1 $150 forward single #
loop $-1 $-1 $151 $73 #
plane-surface $-1 0 -23.035377401353788 0 0 1 0 0 0 1 forward_v I I I I #
face $-1 $152 $153 $56 $-1 $154 reversed single #
loop $-1 $-1 $155 $74 #
plane-surface $-1 -83.476669158693795 -8.5492595955397412 75.81989802768463 0 1 0 -0.50000000669873634 0 0.8660253999169214 forward_v I I I I #
face $-1 $156 $157 $57 $-1 $158 forward single #
loop $-1 $159 $160 $75 #
cone-surface $-1 -34.680879226597568 -6.9402309771768387 6.9124932736032605 0.50000000669873634 0 -0.8660253999169214 0.4330126999584607 0 0.25000000334936817 1 I I 0 1 0.5 forward I I I I #
face $-1 $161 $162 $58 $-1 $163 forward single #
loop $-1 $164 $165 $76 #
cone-surface $-1 -34.680879226597568 -4.5266880496324795 6.9124932736032605 0.50000000669873634 0 -0.8660253999169214 0.4330126999584607 0 0.25000000334936817 1 I I 0 1 0.5 forward I I I I #
face $-1 $166 $167 $59 $-1 $168 forward single #
loop $-1 $169 $170 $77 #
cone-surface $-1 -34.680879226597568 -2.1131451220881239 6.9124932736032605 0.50000000669873634 0 -0.8660253999169214 0.4330126999584607 0 0.25000000334936817 1 I I 0 1 0.5 forward I I I I #
face $-1 $171 $172 $60 $-1 $173 reversed single #
loop $-1 $-1 $174 $78 #
plane-surface $-1 -83.476669158693795 9.9575084100420206 75.81989802768463 0 1 0 -0.50000000669873634 0 0.8660253999169214 forward_v I I I I #
face $-1 $175 $176 $61 $-1 $177 forward single #
loop $-1 $178 $179 $79 #
cone-surface $-1 -34.680879226597568 11.56653702840492 6.9124932736032605 0.50000000669873634 0 -0.8660253999169214 0.4330126999584607 0 0.25000000334936817 1 I I 0 1 0.5 forward I I I I #
face $-1 $180 $181 $62 $-1 $182 forward single #
loop $-1 $183 $184 $80 #
cone-surface $-1 -34.680879226597568 13.980079955949282 6.9124932736032605 0.50000000669873634 0 -0.8660253999169214 0.4330126999584607 0 0.25000000334936817 1 I I 0 1 0.5 forward I I I I #
face $-1 $185 $186 $63 $-1 $187 forward single #
loop $-1 $188 $189 $81 #
cone-surface $-1 -34.680879226597568 16.393622883493638 6.9124932736032605 0.50000000669873634 0 -0.8660253999169214 0.4330126999584607 0 0.25000000334936817 1 I I 0 1 0.5 forward I I I I #
face $-1 $190 $191 $64 $-1 $192 reversed single #
loop $-1 $-1 $193 $82 #
plane-surface $-1 11.183753851074634 -0.50411650372521688 117.55823288662563 0 -1 0 -0.50000000669873634 0 -0.8660253999169214 forward_v I I I I #
face $-1 $194 $195 $65 $-1 $196 forward single #
loop $-1 $197 $198 $83 #
cone-surface $-1 34.680879226597568 -6.9402309771768387 6.9124932736032676 -0.50000000669873634 0 -0.8660253999169214 0.4330126999584607 0 -0.25000000334936817 1 I I 0 1 0.5 forward I I I I #
face $-1 $199 $200 $66 $-1 $201 forward single #
loop $-1 $202 $203 $84 #
cone-surface $-1 34.680879226597568 -4.5266880496324795 6.9124932736032676 -0.50000000669873634 0 -0.8660253999169214 0.4330126999584607 0 -0.25000000334936817 1 I I 0 1 0.5 forward I I I I #
face $-1 $204 $205 $67 $-1 $206 forward single #
loop $-1 $207 $208 $85 #
cone-surface $-1 34.680879226597568 -2.1131451220881239 6.9124932736032676 -0.50000000669873634 0 -0.8660253999169214 0.4330126999584607 0 -0.25000000334936817 1 I I 0 1 0.5 forward I I I I #
face $-1 $209 $210 $68 $-1 $211 reversed single #
loop $-1 $-1 $212 $86 #
plane-surface $-1 11.183753851074634 18.002651501856544 117.55823288662563 0 -1 0 -0.50000000669873634 0 -0.8660253999169214 forward_v I I I I #
face $-1 $213 $214 $69 $-1 $215 forward single #
loop $-1 $216 $217 $87 #
cone-surface $-1 34.680879226597568 11.56653702840492 6.9124932736032676 -0.50000000669873634 0 -0.8660253999169214 0.4330126999584607 0 -0.25000000334936817 1 I I 0 1 0.5 forward I I I I #
face $-1 $218 $219 $70 $-1 $220 forward single #
loop $-1 $221 $222 $88 #
cone-surface $-1 34.680879226597568 13.980079955949282 6.9124932736032676 -0.50000000669873634 0 -0.8660253999169214 0.4330126999584607 0 -0.25000000334936817 1 I I 0 1 0.5 forward I I I I #
face $-1 $223 $224 $71 $-1 $225 forward single #
loop $-1 $226 $227 $89 #
cone-surface $-1 34.680879226597568 16.393622883493638 6.9124932736032676 -0.50000000669873634 0 -0.8660253999169214 0.4330126999584607 0 -0.25000000334936817 1 I I 0 1 0.5 forward I I I I #
face $-1 $228 $229 $54 $-1 $230 reversed single #
loop $-1 $-1 $231 $90 #
plane-surface $-1 0 0 -11.331673476201104 0 0 1 1 0 0 forward_v I I I I #
coedge $-1 $232 $233 $234 $235 forward $91 $-1 #
face $-1 $236 $237 $55 $-1 $238 reversed single #
loop $-1 $-1 $239 $93 #
plane-surface $-1 0 0 11.331673476201104 0 0 1 1 0 0 forward_v I I I I #
coedge $-1 $240 $241 $242 $243 forward $94 $-1 #
face $-1 $244 $245 $56 $-1 $246 reversed single #
loop $-1 $-1 $247 $96 #
plane-surface $-1 -41.738334299752793 -4.5266880496324795 3.5269827200654618 -0.50000000669873634 0 0.8660253999169214 0.8660253999169214 0 0.50000000669873634 forward_v I I I I #
coedge $-1 $248 $249 $250 $251 reversed $97 $-1 #
face $-1 $-1 $252 $57 $-1 $253 forward single #
loop $-1 $254 $255 $99 #
cone-surface $-1 -34.257484494523588 -6.9402309771768387 6.1791520990940043 0.50000000669873634 0 -0.8660253999169214 0.21650634997923035 0 0.12500000167468409 1 I I -0.70710678118654746 0.70710678118654746 0.25 forward I I I I #
loop $-1 $-1 $256 $75 #
coedge $-1 $160 $160 $257 $258 reversed $100 $-1 #
face $-1 $-1 $259 $58 $-1 $260 forward single #
loop $-1 $261 $262 $102 #
cone-surface $-1 -34.257484494523588 -4.5266880496324795 6.1791520990940043 0.50000000669873634 0 -0.8660253999169214 0.21650634997923035 0 0.12500000167468409 1 I I -0.70710678118654746 0.70710678118654746 0.25 forward I I I I #
loop $-1 $-1 $263 $76 #
coedge $-1 $165 $165 $264 $265 reversed $103 $-1 #
face $-1 $-1 $266 $59 $-1 $267 forward single #
loop $-1 $268 $269 $105 #
cone-surface $-1 -34.257484494523588 -2.1131451220881239 6.1791520990940043 0.50000000669873634 0 -0.8660253999169214 0.21650634997923035 0 0.12500000167468409 1 I I -0.70710678118654746 0.70710678118654746 0.25 forward I I I I #
loop $-1 $-1 $270 $77 #
coedge $-1 $170 $170 $271 $272 reversed $106 $-1 #
face $-1 $273 $274 $60 $-1 $275 reversed single #
loop $-1 $-1 $276 $108 #
plane-surface $-1 -41.738334299752793 13.980079955949282 3.5269827200654618 -0.50000000669873634 0 0.8660253999169214 0.8660253999169214 0 0.50000000669873634 forward_v I I I I #
coedge $-1 $277 $278 $279 $280 reversed $109 $-1 #
face $-1 $-1 $281 $61 $-1 $282 forward single #
loop $-1 $283 $284 $111 #
cone-surface $-1 -34.257484494523588 11.56653702840492 6.1791520990940043 0.50000000669873634 0 -0.8660253999169214 0.21650634997923035 0 0.12500000167468409 1 I I -0.70710678118654746 0.70710678118654746 0.25 forward I I I I #
loop $-1 $-1 $285 $79 #
coedge $-1 $179 $179 $286 $287 reversed $112 $-1 #
face $-1 $-1 $288 $62 $-1 $289 forward single #
loop $-1 $290 $291 $114 #
cone-surface $-1 -34.257484494523588 13.980079955949282 6.1791520990940043 0.50000000669873634 0 -0.8660253999169214 0.21650634997923035 0 0.12500000167468409 1 I I -0.70710678118654746 0.70710678118654746 0.25 forward I I I I #
loop $-1 $-1 $292 $80 #
coedge $-1 $184 $184 $293 $294 reversed $115 $-1 #
face $-1 $-1 $295 $63 $-1 $296 forward single #
loop $-1 $297 $298 $117 #
cone-surface $-1 -34.257484494523588 16.393622883493638 6.1791520990940043 0.50000000669873634 0 -0.8660253999169214 0.21650634997923035 0 0.12500000167468409 1 I I -0.70710678118654746 0.70710678118654746 0.25 forward I I I I #
loop $-1 $-1 $299 $81 #
coedge $-1 $189 $189 $300 $301 reversed $118 $-1 #
face $-1 $302 $303 $64 $-1 $304 reversed single #
loop $-1 $-1 $305 $120 #
plane-surface $-1 -30.554581007866368 -4.5266880496324795 45.265317579006464 0.50000000669873634 0 0.8660253999169214 0.8660253999169214 0 -0.50000000669873634 forward_v I I I I #
coedge $-1 $306 $307 $308 $309 reversed $121 $-1 #
face $-1 $-1 $310 $65 $-1 $311 forward single #
loop $-1 $312 $313 $123 #
cone-surface $-1 34.257484494523588 -6.9402309771768387 6.1791520990940114 -0.50000000669873634 0 -0.8660253999169214 0.21650634997923035 0 -0.12500000167468409 1 I I -0.70710678118654746 0.70710678118654746 0.25 forward I I I I #
loop $-1 $-1 $314 $83 #
coedge $-1 $198 $198 $315 $316 reversed $124 $-1 #
face $-1 $-1 $317 $66 $-1 $318 forward single #
loop $-1 $319 $320 $126 #
cone-surface $-1 34.257484494523588 -4.5266880496324795 6.1791520990940114 -0.50000000669873634 0 -0.8660253999169214 0.21650634997923035 0 -0.12500000167468409 1 I I -0.70710678118654746 0.70710678118654746 0.25 forward I I I I #
loop $-1 $-1 $321 $84 #
coedge $-1 $203 $203 $322 $323 reversed $127 $-1 #
face $-1 $-1 $324 $67 $-1 $325 forward single #
loop $-1 $326 $327 $129 #
cone-surface $-1 34.257484494523588 -2.1131451220881239 6.1791520990940114 -0.50000000669873634 0 -0.8660253999169214 0.21650634997923035 0 -0.12500000167468409 1 I I -0.70710678118654746 0.70710678118654746 0.25 forward I I I I #
loop $-1 $-1 $328 $85 #
coedge $-1 $208 $208 $329 $330 reversed $130 $-1 #
face $-1 $331 $332 $68 $-1 $333 reversed single #
loop $-1 $-1 $334 $132 #
plane-surface $-1 -30.554581007866368 13.980079955949282 45.265317579006464 0.50000000669873634 0 0.8660253999169214 0.8660253999169214 0 -0.50000000669873634 forward_v I I I I #
coedge $-1 $335 $336 $337 $338 reversed $133 $-1 #
face $-1 $-1 $339 $69 $-1 $340 forward single #
loop $-1 $341 $342 $135 #
cone-surface $-1 34.257484494523588 11.56653702840492 6.1791520990940114 -0.50000000669873634 0 -0.8660253999169214 0.21650634997923035 0 -0.12500000167468409 1 I I -0.70710678118654746 0.70710678118654746 0.25 forward I I I I #
loop $-1 $-1 $343 $87 #
coedge $-1 $217 $217 $344 $345 reversed $136 $-1 #
face $-1 $-1 $346 $70 $-1 $347 forward single #
loop $-1 $348 $349 $138 #
cone-surface $-1 34.257484494523588 13.980079955949282 6.1791520990940114 -0.50000000669873634 0 -0.8660253999169214 0.21650634997923035 0 -0.12500000167468409 1 I I -0.70710678118654746 0.70710678118654746 0.25 forward I I I I #
loop $-1 $-1 $350 $88 #
coedge $-1 $222 $222 $351 $352 reversed $139 $-1 #
face $-1 $-1 $353 $71 $-1 $354 forward single #
loop $-1 $355 $356 $141 #
cone-surface $-1 34.257484494523588 16.393622883493638 6.1791520990940114 -0.50000000669873634 0 -0.8660253999169214 0.21650634997923035 0 -0.12500000167468409 1 I I -0.70710678118654746 0.70710678118654746 0.25 forward I I I I #
loop $-1 $-1 $357 $89 #
coedge $-1 $227 $227 $358 $359 reversed $142 $-1 #
face $-1 $360 $361 $54 $-1 $362 reversed single #
loop $-1 $-1 $363 $144 #
plane-surface $-1 0 -23.035377401353788 0 0 1 0 0 0 1 forward_v I I I I #
coedge $-1 $364 $365 $366 $367 forward $145 $-1 #
coedge $-1 $368 $147 $369 $370 forward $91 $-1 #
coedge $-1 $147 $368 $371 $372 forward $91 $-1 #
coedge $-1 $373 $374 $147 $235 reversed $375 $-1 #
edge $-1 $376 -23.035377401353788 $377 23.035377401353788 $234 $378 forward 7 unknown #
face $-1 $379 $380 $55 $-1 $381 reversed single #
loop $-1 $-1 $382 $148 #
plane-surface $-1 -41.7383342997528 0 0 1 0 0 0 0 -1 forward_v I I I I #
coedge $-1 $383 $384 $385 $386 forward $149 $-1 #
coedge $-1 $385 $151 $382 $387 reversed $94 $-1 #
coedge $-1 $151 $385 $388 $389 reversed $94 $-1 #
coedge $-1 $390 $391 $151 $243 reversed $380 $-1 #
edge $-1 $392 -41.7383342997528 $393 41.7383342997528 $242 $394 forward 7 unknown #
face $-1 $395 $396 $56 $-1 $397 forward single #
loop $-1 $-1 $398 $152 #
plane-surface $-1 -83.476669158693795 -0.50411650372521688 75.81989802768463 0 -1 0 0.50000000669873634 0 -0.8660253999169214 forward_v I I I I #
coedge $-1 $399 $400 $401 $402 reversed $153 $-1 #
coedge $-1 $249 $155 $403 $404 reversed $97 $-1 #
coedge $-1 $155 $248 $399 $405 reversed $97 $-1 #
coedge $-1 $401 $406 $155 $251 forward $396 $-1 #
edge $-1 $407 2.7959409720779149e-007 $408 13.518120965105989 $250 $409 forward 7 unknown #
loop $-1 $-1 $257 $156 #
plane-surface $-1 -41.738334299752793 -4.5266880496324795 3.5269827200654618 -0.50000000669873634 0 0.8660253999169214 0.8660253999169214 0 0.50000000669873634 forward_v I I I I #
loop $-1 $-1 $410 $99 #
coedge $-1 $255 $255 $256 $411 reversed $157 $-1 #
coedge $-1 $256 $256 $255 $411 forward $159 $-1 #
coedge $-1 $257 $257 $160 $258 forward $252 $-1 #
edge $-1 $412 0 $412 6.2831853071796004 $257 $413 forward 7 unknown #
loop $-1 $-1 $264 $161 #
plane-surface $-1 -41.738334299752793 -4.5266880496324795 3.5269827200654618 -0.50000000669873634 0 0.8660253999169214 0.8660253999169214 0 0.50000000669873634 forward_v I I I I #
loop $-1 $-1 $414 $102 #
coedge $-1 $262 $262 $263 $415 reversed $162 $-1 #
coedge $-1 $263 $263 $262 $415 forward $164 $-1 #
coedge $-1 $264 $264 $165 $265 forward $259 $-1 #
edge $-1 $416 0 $416 6.2831853071796004 $264 $417 forward 7 unknown #
loop $-1 $-1 $271 $166 #
plane-surface $-1 -41.738334299752793 -4.5266880496324795 3.5269827200654618 -0.50000000669873634 0 0.8660253999169214 0.8660253999169214 0 0.50000000669873634 forward_v I I I I #
loop $-1 $-1 $418 $105 #
coedge $-1 $269 $269 $270 $419 reversed $167 $-1 #
coedge $-1 $270 $270 $269 $419 forward $169 $-1 #
coedge $-1 $271 $271 $170 $272 forward $266 $-1 #
edge $-1 $420 0 $420 6.2831853071796004 $271 $421 forward 7 unknown #
face $-1 $422 $423 $60 $-1 $424 forward single #
loop $-1 $-1 $425 $171 #
plane-surface $-1 -83.476669158693795 18.002651501856544 75.81989802768463 0 -1 0 0.50000000669873634 0 -0.8660253999169214 forward_v I I I I #
coedge $-1 $426 $427 $428 $429 reversed $172 $-1 #
coedge $-1 $278 $174 $430 $431 reversed $109 $-1 #
coedge $-1 $174 $277 $426 $432 reversed $109 $-1 #
coedge $-1 $428 $433 $174 $280 forward $423 $-1 #
edge $-1 $434 2.7959409720779149e-007 $435 13.518120965105989 $279 $436 forward 7 unknown #
loop $-1 $-1 $286 $175 #
plane-surface $-1 -41.738334299752793 13.980079955949282 3.5269827200654618 -0.50000000669873634 0 0.8660253999169214 0.8660253999169214 0 0.50000000669873634 forward_v I I I I #
loop $-1 $-1 $437 $111 #
coedge $-1 $284 $284 $285 $438 reversed $176 $-1 #
coedge $-1 $285 $285 $284 $438 forward $178 $-1 #
coedge $-1 $286 $286 $179 $287 forward $281 $-1 #
edge $-1 $439 0 $439 6.2831853071796004 $286 $440 forward 7 unknown #
loop $-1 $-1 $293 $180 #
plane-surface $-1 -41.738334299752793 13.980079955949282 3.5269827200654618 -0.50000000669873634 0 0.8660253999169214 0.8660253999169214 0 0.50000000669873634 forward_v I I I I #
loop $-1 $-1 $441 $114 #
coedge $-1 $291 $291 $292 $442 reversed $181 $-1 #
coedge $-1 $292 $292 $291 $442 forward $183 $-1 #
coedge $-1 $293 $293 $184 $294 forward $288 $-1 #
edge $-1 $443 0 $443 6.2831853071796004 $293 $444 forward 7 unknown #
loop $-1 $-1 $300 $185 #
plane-surface $-1 -41.738334299752793 13.980079955949282 3.5269827200654618 -0.50000000669873634 0 0.8660253999169214 0.8660253999169214 0 0.50000000669873634 forward_v I I I I #
loop $-1 $-1 $445 $117 #
coedge $-1 $298 $298 $299 $446 reversed $186 $-1 #
coedge $-1 $299 $299 $298 $446 forward $188 $-1 #
coedge $-1 $300 $300 $189 $301 forward $295 $-1 #
edge $-1 $447 0 $447 6.2831853071796004 $300 $448 forward 7 unknown #
face $-1 $449 $450 $64 $-1 $451 reversed single #
loop $-1 $-1 $452 $190 #
plane-surface $-1 11.183753851074634 -8.5492595955397412 117.55823288662563 0 1 0 0.50000000669873634 0 0.8660253999169214 forward_v I I I I #
coedge $-1 $453 $454 $455 $456 reversed $191 $-1 #
coedge $-1 $307 $193 $457 $458 reversed $121 $-1 #
coedge $-1 $193 $306 $453 $459 reversed $121 $-1 #
coedge $-1 $455 $460 $193 $309 forward $461 $-1 #
edge $-1 $462 -36.146457374215487 $463 -22.628336688703595 $308 $464 forward 7 unknown #
loop $-1 $-1 $315 $194 #
plane-surface $-1 -30.554581007866368 -4.5266880496324795 45.265317579006464 0.50000000669873634 0 0.8660253999169214 0.8660253999169214 0 -0.50000000669873634 forward_v I I I I #
loop $-1 $-1 $465 $123 #
coedge $-1 $313 $313 $314 $466 reversed $195 $-1 #
coedge $-1 $314 $314 $313 $466 forward $197 $-1 #
coedge $-1 $315 $315 $198 $316 forward $310 $-1 #
edge $-1 $467 0 $467 6.2831853071796004 $315 $468 forward 7 unknown #
loop $-1 $-1 $322 $199 #
plane-surface $-1 -30.554581007866368 -4.5266880496324795 45.265317579006464 0.50000000669873634 0 0.8660253999169214 0.8660253999169214 0 -0.50000000669873634 forward_v I I I I #
loop $-1 $-1 $469 $126 #
coedge $-1 $320 $320 $321 $470 reversed $200 $-1 #
coedge $-1 $321 $321 $320 $470 forward $202 $-1 #
coedge $-1 $322 $322 $203 $323 forward $317 $-1 #
edge $-1 $471 0 $471 6.2831853071796004 $322 $472 forward 7 unknown #
loop $-1 $-1 $329 $204 #
plane-surface $-1 -30.554581007866368 -4.5266880496324795 45.265317579006464 0.50000000669873634 0 0.8660253999169214 0.8660253999169214 0 -0.50000000669873634 forward_v I I I I #
loop $-1 $-1 $473 $129 #
coedge $-1 $327 $327 $328 $474 reversed $205 $-1 #
coedge $-1 $328 $328 $327 $474 forward $207 $-1 #
coedge $-1 $329 $329 $208 $330 forward $324 $-1 #
edge $-1 $475 0 $475 6.2831853071796004 $329 $476 forward 7 unknown #
face $-1 $477 $478 $68 $-1 $479 reversed single #
loop $-1 $-1 $480 $209 #
plane-surface $-1 11.183753851074634 9.9575084100420206 117.55823288662563 0 1 0 0.50000000669873634 0 0.8660253999169214 forward_v I I I I #
coedge $-1 $481 $482 $483 $484 reversed $210 $-1 #
coedge $-1 $336 $212 $485 $486 reversed $133 $-1 #
coedge $-1 $212 $335 $481 $487 reversed $133 $-1 #
coedge $-1 $483 $488 $212 $338 forward $489 $-1 #
edge $-1 $490 -36.146457374215487 $491 -22.628336688703595 $337 $492 forward 7 unknown #
loop $-1 $-1 $344 $213 #
plane-surface $-1 -30.554581007866368 13.980079955949282 45.265317579006464 0.50000000669873634 0 0.8660253999169214 0.8660253999169214 0 -0.50000000669873634 forward_v I I I I #
loop $-1 $-1 $493 $135 #
coedge $-1 $342 $342 $343 $494 reversed $214 $-1 #
coedge $-1 $343 $343 $342 $494 forward $216 $-1 #
coedge $-1 $344 $344 $217 $345 forward $339 $-1 #
edge $-1 $495 0 $495 6.2831853071796004 $344 $496 forward 7 unknown #
loop $-1 $-1 $351 $218 #
plane-surface $-1 -30.554581007866368 13.980079955949282 45.265317579006464 0.50000000669873634 0 0.8660253999169214 0.8660253999169214 0 -0.50000000669873634 forward_v I I I I #
loop $-1 $-1 $497 $138 #
coedge $-1 $349 $349 $350 $498 reversed $219 $-1 #
coedge $-1 $350 $350 $349 $498 forward $221 $-1 #
coedge $-1 $351 $351 $222 $352 forward $346 $-1 #
edge $-1 $499 0 $499 6.2831853071796004 $351 $500 forward 7 unknown #
loop $-1 $-1 $358 $223 #
plane-surface $-1 -30.554581007866368 13.980079955949282 45.265317579006464 0.50000000669873634 0 0.8660253999169214 0.8660253999169214 0 -0.50000000669873634 forward_v I I I I #
loop $-1 $-1 $501 $141 #
coedge $-1 $356 $356 $357 $502 reversed $224 $-1 #
coedge $-1 $357 $357 $356 $502 forward $226 $-1 #
coedge $-1 $358 $358 $227 $359 forward $353 $-1 #
edge $-1 $503 0 $503 6.2831853071796004 $358 $504 forward 7 unknown #
face $-1 $505 $506 $54 $-1 $507 reversed single #
loop $-1 $-1 $508 $228 #
plane-surface $-1 -41.7383342997528 0 0 1 0 0 0 0 -1 forward_v I I I I #
coedge $-1 $509 $371 $510 $511 forward $229 $-1 #
coedge $-1 $512 $231 $509 $513 forward $145 $-1 #
coedge $-1 $231 $512 $514 $515 forward $145 $-1 #
coedge $-1 $374 $373 $231 $367 reversed $375 $-1 #
edge $-1 $516 -23.035377401353788 $517 23.035377401353788 $366 $518 forward 7 unknown #
coedge $-1 $233 $232 $519 $520 forward $91 $-1 #
coedge $-1 $521 $522 $232 $370 reversed $506 $-1 #
edge $-1 $377 -41.7383342997528 $523 41.7383342997528 $369 $524 forward 7 unknown #
coedge $-1 $363 $525 $233 $372 reversed $229 $-1 #
edge $-1 $526 -41.7383342997528 $376 41.7383342997528 $371 $527 forward 7 unknown #
coedge $-1 $366 $234 $525 $528 forward $375 $-1 #
coedge $-1 $234 $366 $521 $529 reversed $375 $-1 #
loop $-1 $-1 $373 $505 #
vertex $-1 $235 $530 #
vertex $-1 $235 $531 #
straight-curve $-1 41.7383342997528 0 11.331673476201104 0 1 0 I I #
face $-1 $532 $533 $55 $-1 $534 reversed single #
loop $-1 $-1 $390 $236 #
plane-surface $-1 0 -27.563986797125814 7.1980178757179392 0 0 1 1 0 0 forward_v I I I I #
coedge $-1 $535 $536 $240 $387 forward $237 $-1 #
coedge $-1 $537 $239 $536 $538 forward $149 $-1 #
coedge $-1 $239 $537 $539 $540 forward $149 $-1 #
coedge $-1 $241 $240 $239 $386 reversed $94 $-1 #
edge $-1 $541 -41.7383342997528 $542 41.7383342997528 $239 $543 forward 7 unknown #
edge $-1 $542 -11.331673476201104 $393 -7.1980178757179392 $382 $544 forward 7 unknown #
coedge $-1 $539 $545 $241 $389 forward $546 $-1 #
edge $-1 $392 7.1980178757179392 $541 11.331673476201104 $388 $547 forward 7 unknown #
coedge $-1 $548 $242 $545 $549 forward $380 $-1 #
coedge $-1 $242 $548 $535 $550 forward $380 $-1 #
vertex $-1 $389 $551 #
vertex $-1 $387 $552 #
straight-curve $-1 0 -23.035377401353788 7.1980178757179392 -1 0 0 I I #
face $-1 $-1 $553 $56 $-1 $554 reversed single #
loop $-1 $-1 $250 $244 #
plane-surface $-1 0 0 11.331673476201104 0 0 1 1 0 0 forward_v I I I I #
coedge $-1 $555 $556 $557 $558 reversed $245 $-1 #
coedge $-1 $559 $247 $249 $405 forward $153 $-1 #
coedge $-1 $247 $559 $555 $560 forward $153 $-1 #
coedge $-1 $557 $250 $247 $402 forward $396 $-1 #
edge $-1 $408 -6.2859155707235015 $561 1.7592275210910229 $401 $562 forward 7 unknown #
coedge $-1 $563 $564 $248 $404 forward $553 $-1 #
edge $-1 $565 -34.38296629377686 $407 -26.578275537641211 $403 $566 forward 7 unknown #
edge $-1 $408 -15.609381303145025 $565 8.1518820400458524e-015 $249 $567 forward 7 unknown #
coedge $-1 $250 $557 $563 $568 forward $396 $-1 #
vertex $-1 $404 $569 #
vertex $-1 $251 $570 #
straight-curve $-1 -41.738334579346898 -8.5492595955397412 11.331673476201104 1 0 0 I I #
coedge $-1 $410 $410 $-1 $571 reversed $254 $-1 #
edge $-1 $572 0 $572 6.2831853071796004 $255 $573 forward 7 unknown #
vertex $-1 $258 $574 #
ellipse-curve $-1 -34.979273956996863 -6.9402309771768387 7.4293280981332774 -0.50000000669873634 0 0.8660253999169214 0.4330126999584607 0 0.25000000334936817 1 I I #
coedge $-1 $414 $414 $-1 $575 reversed $261 $-1 #
edge $-1 $576 0 $576 6.2831853071796004 $262 $577 forward 7 unknown #
vertex $-1 $265 $578 #
ellipse-curve $-1 -34.979273956996863 -4.5266880496324795 7.4293280981332774 -0.50000000669873634 0 0.8660253999169214 0.4330126999584607 0 0.25000000334936817 1 I I #
coedge $-1 $418 $418 $-1 $579 reversed $268 $-1 #
edge $-1 $580 0 $580 6.2831853071796004 $269 $581 forward 7 unknown #
vertex $-1 $272 $582 #
ellipse-curve $-1 -34.979273956996863 -2.1131451220881239 7.4293280981332774 -0.50000000669873634 0 0.8660253999169214 0.4330126999584607 0 0.25000000334936817 1 I I #
face $-1 $-1 $583 $60 $-1 $584 reversed single #
loop $-1 $-1 $279 $273 #
plane-surface $-1 0 0 11.331673476201104 0 0 1 1 0 0 forward_v I I I I #
coedge $-1 $585 $586 $587 $588 reversed $274 $-1 #
coedge $-1 $589 $276 $278 $432 forward $172 $-1 #
coedge $-1 $276 $589 $585 $590 forward $172 $-1 #
coedge $-1 $587 $279 $276 $429 forward $423 $-1 #
edge $-1 $435 2.9674684320673794 $591 11.012611523881903 $428 $592 forward 7 unknown #
coedge $-1 $593 $594 $277 $431 forward $583 $-1 #
edge $-1 $595 -34.38296629377686 $434 -26.578275537641211 $430 $596 forward 7 unknown #
edge $-1 $435 -15.609381303145025 $595 8.1518820400458524e-015 $278 $597 forward 7 unknown #
coedge $-1 $279 $587 $593 $598 forward $423 $-1 #
vertex $-1 $280 $599 #
vertex $-1 $280 $600 #
straight-curve $-1 -41.738334579346898 9.9575084100420206 11.331673476201104 1 0 0 I I #
coedge $-1 $437 $437 $-1 $601 reversed $283 $-1 #
edge $-1 $602 0 $602 6.2831853071796004 $284 $603 forward 7 unknown #
vertex $-1 $287 $604 #
ellipse-curve $-1 -34.979273956996863 11.56653702840492 7.4293280981332774 -0.50000000669873634 0 0.8660253999169214 0.4330126999584607 0 0.25000000334936817 1 I I #
coedge $-1 $441 $441 $-1 $605 reversed $290 $-1 #
edge $-1 $606 0 $606 6.2831853071796004 $291 $607 forward 7 unknown #
vertex $-1 $294 $608 #
ellipse-curve $-1 -34.979273956996863 13.980079955949282 7.4293280981332774 -0.50000000669873634 0 0.8660253999169214 0.4330126999584607 0 0.25000000334936817 1 I I #
coedge $-1 $445 $445 $-1 $609 reversed $297 $-1 #
edge $-1 $610 0 $610 6.2831853071796004 $298 $611 forward 7 unknown #
vertex $-1 $301 $612 #
ellipse-curve $-1 -34.979273956996863 16.393622883493638 7.4293280981332774 -0.50000000669873634 0 0.8660253999169214 0.4330126999584607 0 0.25000000334936817 1 I I #
face $-1 $-1 $461 $64 $-1 $613 forward single #
loop $-1 $-1 $614 $302 #
plane-surface $-1 41.7383342997528 0 0 -1 0 0 0 0 1 forward_v I I I I #
coedge $-1 $615 $616 $617 $618 reversed $303 $-1 #
coedge $-1 $619 $305 $307 $459 forward $191 $-1 #
coedge $-1 $305 $619 $615 $620 forward $191 $-1 #
coedge $-1 $617 $308 $305 $456 forward $461 $-1 #
edge $-1 $463 -1.7592275210910229 $621 6.2859155707235015 $455 $622 forward 7 unknown #
coedge $-1 $623 $624 $306 $458 forward $450 $-1 #
edge $-1 $625 -55.252133723247354 $462 -47.447442967111712 $457 $626 forward 7 unknown #
edge $-1 $463 67.867287296360587 $625 83.476668599505615 $307 $627 forward 7 unknown #
coedge $-1 $308 $617 $623 $628 forward $461 $-1 #
loop $-1 $-1 $617 $449 #
vertex $-1 $458 $629 #
vertex $-1 $309 $630 #
straight-curve $-1 5.5918769255373171 -0.50411650372521688 11.331673476201104 -1 0 0 I I #
coedge $-1 $465 $465 $-1 $631 reversed $312 $-1 #
edge $-1 $632 0 $632 6.2831853071796004 $313 $633 forward 7 unknown #
vertex $-1 $316 $634 #
ellipse-curve $-1 34.979273956996856 -6.9402309771768387 7.4293280981332739 0.50000000669873634 0 0.8660253999169214 0.4330126999584607 0 -0.25000000334936817 1 I I #
coedge $-1 $469 $469 $-1 $635 reversed $319 $-1 #
edge $-1 $636 0 $636 6.2831853071796004 $320 $637 forward 7 unknown #
vertex $-1 $323 $638 #
ellipse-curve $-1 34.979273956996856 -4.5266880496324795 7.4293280981332739 0.50000000669873634 0 0.8660253999169214 0.4330126999584607 0 -0.25000000334936817 1 I I #
coedge $-1 $473 $473 $-1 $639 reversed $326 $-1 #
edge $-1 $640 0 $640 6.2831853071796004 $327 $641 forward 7 unknown #
vertex $-1 $330 $642 #
ellipse-curve $-1 34.979273956996856 -2.1131451220881239 7.4293280981332739 0.50000000669873634 0 0.8660253999169214 0.4330126999584607 0 -0.25000000334936817 1 I I #
face $-1 $-1 $489 $68 $-1 $643 forward single #
loop $-1 $-1 $644 $331 #
plane-surface $-1 41.7383342997528 0 0 -1 0 0 0 0 1 forward_v I I I I #
coedge $-1 $645 $646 $647 $648 reversed $332 $-1 #
coedge $-1 $649 $334 $336 $487 forward $210 $-1 #
coedge $-1 $334 $649 $645 $650 forward $210 $-1 #
coedge $-1 $647 $337 $334 $484 forward $489 $-1 #
edge $-1 $491 -11.012611523881903 $651 -2.9674684320673794 $483 $652 forward 7 unknown #
coedge $-1 $653 $654 $335 $486 forward $478 $-1 #
edge $-1 $655 -55.252133723247354 $490 -47.447442967111712 $485 $656 forward 7 unknown #
edge $-1 $491 67.867287296360587 $655 83.476668599505615 $336 $657 forward 7 unknown #
coedge $-1 $337 $647 $653 $658 forward $489 $-1 #
loop $-1 $-1 $647 $477 #
vertex $-1 $486 $659 #
vertex $-1 $338 $660 #
straight-curve $-1 5.5918769255373171 18.002651501856544 11.331673476201104 -1 0 0 I I #
coedge $-1 $493 $493 $-1 $661 reversed $341 $-1 #
edge $-1 $662 0 $662 6.2831853071796004 $342 $663 forward 7 unknown #
vertex $-1 $345 $664 #
ellipse-curve $-1 34.979273956996856 11.56653702840492 7.4293280981332739 0.50000000669873634 0 0.8660253999169214 0.4330126999584607 0 -0.25000000334936817 1 I I #
coedge $-1 $497 $497 $-1 $665 reversed $348 $-1 #
edge $-1 $666 0 $666 6.2831853071796004 $349 $667 forward 7 unknown #
vertex $-1 $352 $668 #
ellipse-curve $-1 34.979273956996856 13.980079955949282 7.4293280981332739 0.50000000669873634 0 0.8660253999169214 0.4330126999584607 0 -0.25000000334936817 1 I I #
coedge $-1 $501 $501 $-1 $669 reversed $355 $-1 #
edge $-1 $670 0 $670 6.2831853071796004 $356 $671 forward 7 unknown #
vertex $-1 $359 $672 #
ellipse-curve $-1 34.979273956996856 16.393622883493638 7.4293280981332739 0.50000000669873634 0 0.8660253999169214 0.4330126999584607 0 -0.25000000334936817 1 I I #
face $-1 $-1 $375 $54 $-1 $673 reversed single #
loop $-1 $-1 $521 $360 #
plane-surface $-1 0 23.035377401353788 0 0 -1 0 0 0 -1 forward_v I I I I #
coedge $-1 $674 $519 $522 $675 forward $361 $-1 #
coedge $-1 $525 $363 $364 $513 reversed $229 $-1 #
coedge $-1 $519 $674 $363 $511 reversed $361 $-1 #
edge $-1 $526 -11.331673476201104 $676 11.331673476201104 $510 $677 forward 7 unknown #
coedge $-1 $365 $364 $674 $678 forward $145 $-1 #
edge $-1 $517 -41.7383342997528 $676 41.7383342997528 $509 $679 forward 7 unknown #
coedge $-1 $522 $521 $365 $515 reversed $506 $-1 #
edge $-1 $680 -41.7383342997528 $516 41.7383342997528 $514 $681 forward 7 unknown #
vertex $-1 $367 $682 #
vertex $-1 $528 $683 #
straight-curve $-1 41.7383342997528 0 -11.331673476201104 0 -1 0 I I #
coedge $-1 $508 $510 $368 $520 reversed $361 $-1 #
edge $-1 $523 -23.035377401353788 $526 23.035377401353788 $519 $684 forward 7 unknown #
coedge $-1 $514 $369 $374 $529 forward $506 $-1 #
coedge $-1 $369 $514 $508 $675 reversed $506 $-1 #
vertex $-1 $370 $685 #
straight-curve $-1 0 23.035377401353788 11.331673476201104 -1 0 0 I I #
coedge $-1 $371 $509 $373 $528 reversed $229 $-1 #
vertex $-1 $520 $686 #
straight-curve $-1 0 -23.035377401353788 11.331673476201104 1 0 0 I I #
edge $-1 $376 -11.331673476201104 $517 11.331673476201104 $373 $687 forward 7 unknown #
edge $-1 $377 -11.331673476201104 $516 11.331673476201104 $374 $688 forward 7 unknown #
point $-1 41.7383342997528 -23.035377401353788 11.331673476201104 #
point $-1 41.7383342997528 23.035377401353788 11.331673476201104 #
face $-1 $-1 $546 $55 $-1 $689 reversed single #
loop $-1 $-1 $690 $379 #
plane-surface $-1 0 -32.092596192897844 9.2648456759595206 0 1 0 0 0 1 forward_v I I I I #
coedge $-1 $691 $382 $391 $550 reversed $237 $-1 #
coedge $-1 $382 $691 $383 $538 reversed $237 $-1 #
coedge $-1 $384 $383 $692 $693 forward $149 $-1 #
edge $-1 $542 23.035377401353788 $694 32.092596192897844 $536 $695 forward 7 unknown #
coedge $-1 $696 $388 $384 $540 reversed $546 $-1 #
edge $-1 $697 -32.092596192897844 $541 -23.035377401353788 $539 $698 forward 7 unknown #
vertex $-1 $389 $699 #
vertex $-1 $538 $700 #
straight-curve $-1 0 -23.035377401353788 11.331673476201104 -1 0 0 I I #
straight-curve $-1 -41.7383342997528 -23.035377401353788 0 0 0 -1 I I #
coedge $-1 $388 $696 $390 $549 reversed $546 $-1 #
loop $-1 $-1 $388 $532 #
straight-curve $-1 41.7383342997528 -23.035377401353788 0 0 0 1 I I #
coedge $-1 $391 $390 $701 $702 forward $380 $-1 #
edge $-1 $392 -4.5286093957720297 $703 4.5286093957720297 $545 $704 forward 7 unknown #
edge $-1 $705 -4.5286093957720297 $393 4.5286093957720297 $535 $706 forward 7 unknown #
point $-1 41.7383342997528 -23.035377401353784 7.1980178757179392 #
point $-1 -41.7383342997528 -23.035377401353784 7.1980178757179392 #
loop $-1 $-1 $403 $395 #
plane-surface $-1 -41.7383342997528 0 0 1 0 0 0 0 -1 forward_v I I I I #
coedge $-1 $556 $398 $400 $560 reversed $245 $-1 #
coedge $-1 $398 $555 $707 $708 reversed $245 $-1 #
coedge $-1 $406 $401 $398 $558 forward $396 $-1 #
edge $-1 $561 -13.518120965105989 $709 -2.7959409720779149e-007 $557 $710 forward 7 unknown #
coedge $-1 $400 $399 $564 $711 reversed $153 $-1 #
edge $-1 $712 -8.1518820400458524e-015 $561 15.609381303145025 $555 $713 forward 7 unknown #
vertex $-1 $402 $714 #
straight-curve $-1 -28.220213614240908 -2.2633440248162398 11.331673476201104 0 1 0 I I #
coedge $-1 $707 $403 $406 $568 reversed $553 $-1 #
coedge $-1 $403 $707 $559 $711 forward $553 $-1 #
vertex $-1 $404 $715 #
straight-curve $-1 -41.7383342997528 -8.5492595955397412 37.909949013842315 0 0 1 I I #
straight-curve $-1 -41.738334299752793 -8.5492595955397412 3.5269827200654618 -0.8660253999169214 0 -0.50000000669873634 I I #
edge $-1 $709 0.50411650372521688 $407 8.5492595955397412 $563 $716 forward 7 unknown #
point $-1 -41.7383342997528 -8.5492595955397412 11.331673476201104 #
point $-1 -28.220213614240908 -8.5492595955397412 11.331673476201104 #
edge $-1 $717 1 $717 0 $410 $-1 forward 7 unknown #
vertex $-1 $411 $718 #
ellipse-curve $-1 -34.382484496198273 -6.9402309771768387 6.3956584490732347 -0.50000000669873634 0 0.8660253999169214 0.4330126999584607 0 0.25000000334936817 1 I I #
point $-1 -34.54626125703841 -6.9402309771768387 7.679328101482656 #
edge $-1 $719 1 $719 0 $414 $-1 forward 7 unknown #
vertex $-1 $415 $720 #
ellipse-curve $-1 -34.382484496198273 -4.5266880496324795 6.3956584490732347 -0.50000000669873634 0 0.8660253999169214 0.4330126999584607 0 0.25000000334936817 1 I I #
point $-1 -34.54626125703841 -4.5266880496324795 7.679328101482656 #
edge $-1 $721 1 $721 0 $418 $-1 forward 7 unknown #
vertex $-1 $419 $722 #
ellipse-curve $-1 -34.382484496198273 -2.1131451220881239 6.3956584490732347 -0.50000000669873634 0 0.8660253999169214 0.4330126999584607 0 0.25000000334936817 1 I I #
point $-1 -34.54626125703841 -2.1131451220881239 7.679328101482656 #
loop $-1 $-1 $430 $422 #
plane-surface $-1 -41.7383342997528 0 0 1 0 0 0 0 -1 forward_v I I I I #
coedge $-1 $586 $425 $427 $590 reversed $274 $-1 #
coedge $-1 $425 $585 $723 $724 reversed $274 $-1 #
coedge $-1 $433 $428 $425 $588 forward $423 $-1 #
edge $-1 $591 -13.518120965105989 $725 -2.7959409720779149e-007 $587 $726 forward 7 unknown #
coedge $-1 $427 $426 $594 $727 reversed $172 $-1 #
edge $-1 $728 -8.1518820400458524e-015 $591 15.609381303145025 $585 $729 forward 7 unknown #
vertex $-1 $429 $730 #
straight-curve $-1 -28.220213614240908 6.9900399779746412 11.331673476201104 0 1 0 I I #
coedge $-1 $723 $430 $433 $598 reversed $583 $-1 #
coedge $-1 $430 $723 $589 $727 forward $583 $-1 #
vertex $-1 $431 $731 #
straight-curve $-1 -41.7383342997528 9.9575084100420206 37.909949013842315 0 0 1 I I #
straight-curve $-1 -41.738334299752793 9.9575084100420206 3.5269827200654618 -0.8660253999169214 0 -0.50000000669873634 I I #
edge $-1 $725 -18.002651501856544 $434 -9.9575084100420206 $593 $732 forward 7 unknown #
point $-1 -41.7383342997528 9.9575084100420206 11.331673476201104 #
point $-1 -28.220213614240908 9.9575084100420206 11.331673476201104 #
edge $-1 $733 1 $733 0 $437 $-1 forward 7 unknown #
vertex $-1 $438 $734 #
ellipse-curve $-1 -34.382484496198273 11.56653702840492 6.3956584490732347 -0.50000000669873634 0 0.8660253999169214 0.4330126999584607 0 0.25000000334936817 1 I I #
point $-1 -34.54626125703841 11.56653702840492 7.679328101482656 #
edge $-1 $735 1 $735 0 $441 $-1 forward 7 unknown #
vertex $-1 $442 $736 #
ellipse-curve $-1 -34.382484496198273 13.980079955949282 6.3956584490732347 -0.50000000669873634 0 0.8660253999169214 0.4330126999584607 0 0.25000000334936817 1 I I #
point $-1 -34.54626125703841 13.980079955949282 7.679328101482656 #
edge $-1 $737 1 $737 0 $445 $-1 forward 7 unknown #
vertex $-1 $446 $738 #
ellipse-curve $-1 -34.382484496198273 16.393622883493638 6.3956584490732347 -0.50000000669873634 0 0.8660253999169214 0.4330126999584607 0 0.25000000334936817 1 I I #
point $-1 -34.54626125703841 16.393622883493638 7.679328101482656 #
plane-surface $-1 0 0 11.331673476201104 0 0 1 1 0 0 forward_v I I I I #
coedge $-1 $624 $623 $616 $739 forward $450 $-1 #
coedge $-1 $616 $452 $454 $620 reversed $303 $-1 #
coedge $-1 $452 $615 $614 $739 reversed $303 $-1 #
coedge $-1 $460 $455 $452 $618 forward $461 $-1 #
edge $-1 $621 22.628336688703595 $740 36.146457374215487 $617 $741 forward 7 unknown #
coedge $-1 $454 $453 $624 $742 reversed $191 $-1 #
edge $-1 $743 -83.476668599505615 $621 -67.867287296360587 $615 $744 forward 7 unknown #
vertex $-1 $456 $745 #
straight-curve $-1 28.220213614240905 -2.2633440248162398 11.331673476201107 0 -1 0 I I #
coedge $-1 $614 $457 $460 $628 reversed $450 $-1 #
coedge $-1 $457 $614 $619 $742 forward $450 $-1 #
vertex $-1 $458 $746 #
straight-curve $-1 41.7383342997528 -0.50411650372521688 58.779116443312816 0 0 1 I I #
straight-curve $-1 -30.554581007866368 -0.50411650372521688 45.265317579006464 0.8660253999169214 0 -0.50000000669873634 I I #
edge $-1 $740 -8.5492595955397412 $462 -0.50411650372521688 $623 $747 forward 7 unknown #
point $-1 41.7383342997528 -0.50411650372521688 11.331673476201104 #
point $-1 28.220213614240912 -0.50411650372521688 11.331673476201104 #
edge $-1 $748 1 $748 0 $465 $-1 forward 7 unknown #
vertex $-1 $466 $749 #
ellipse-curve $-1 34.382484496198273 -6.9402309771768387 6.3956584490732418 0.50000000669873634 0 0.8660253999169214 0.4330126999584607 0 -0.25000000334936817 1 I I #
point $-1 35.412286656955331 -6.9402309771768387 7.1793280947839264 #
edge $-1 $750 1 $750 0 $469 $-1 forward 7 unknown #
vertex $-1 $470 $751 #
ellipse-curve $-1 34.382484496198273 -4.5266880496324795 6.3956584490732418 0.50000000669873634 0 0.8660253999169214 0.4330126999584607 0 -0.25000000334936817 1 I I #
point $-1 35.412286656955331 -4.5266880496324795 7.1793280947839264 #
edge $-1 $752 1 $752 0 $473 $-1 forward 7 unknown #
vertex $-1 $474 $753 #
ellipse-curve $-1 34.382484496198273 -2.1131451220881239 6.3956584490732418 0.50000000669873634 0 0.8660253999169214 0.4330126999584607 0 -0.25000000334936817 1 I I #
point $-1 35.412286656955331 -2.1131451220881239 7.1793280947839264 #
plane-surface $-1 0 0 11.331673476201104 0 0 1 1 0 0 forward_v I I I I #
coedge $-1 $654 $653 $646 $754 forward $478 $-1 #
coedge $-1 $646 $480 $482 $650 reversed $332 $-1 #
coedge $-1 $480 $645 $644 $754 reversed $332 $-1 #
coedge $-1 $488 $483 $480 $648 forward $489 $-1 #
edge $-1 $651 22.628336688703595 $755 36.146457374215487 $647 $756 forward 7 unknown #
coedge $-1 $482 $481 $654 $757 reversed $210 $-1 #
edge $-1 $758 -83.476668599505615 $651 -67.867287296360587 $645 $759 forward 7 unknown #
vertex $-1 $484 $760 #
straight-curve $-1 28.220213614240905 6.9900399779746412 11.331673476201107 0 -1 0 I I #
coedge $-1 $644 $485 $488 $658 reversed $478 $-1 #
coedge $-1 $485 $644 $649 $757 forward $478 $-1 #
vertex $-1 $486 $761 #
straight-curve $-1 41.7383342997528 18.002651501856544 58.779116443312816 0 0 1 I I #
straight-curve $-1 -30.554581007866368 18.002651501856544 45.265317579006464 0.8660253999169214 0 -0.50000000669873634 I I #
edge $-1 $755 9.9575084100420206 $490 18.002651501856544 $653 $762 forward 7 unknown #
point $-1 41.7383342997528 18.002651501856544 11.331673476201104 #
point $-1 28.220213614240912 18.002651501856544 11.331673476201104 #
edge $-1 $763 1 $763 0 $493 $-1 forward 7 unknown #
vertex $-1 $494 $764 #
ellipse-curve $-1 34.382484496198273 11.56653702840492 6.3956584490732418 0.50000000669873634 0 0.8660253999169214 0.4330126999584607 0 -0.25000000334936817 1 I I #
point $-1 35.412286656955331 11.56653702840492 7.1793280947839264 #
edge $-1 $765 1 $765 0 $497 $-1 forward 7 unknown #
vertex $-1 $498 $766 #
ellipse-curve $-1 34.382484496198273 13.980079955949282 6.3956584490732418 0.50000000669873634 0 0.8660253999169214 0.4330126999584607 0 -0.25000000334936817 1 I I #
point $-1 35.412286656955331 13.980079955949282 7.1793280947839264 #
edge $-1 $767 1 $767 0 $501 $-1 forward 7 unknown #
vertex $-1 $502 $768 #
ellipse-curve $-1 34.382484496198273 16.393622883493638 6.3956584490732418 0.50000000669873634 0 0.8660253999169214 0.4330126999584607 0 -0.25000000334936817 1 I I #
point $-1 35.412286656955331 16.393622883493638 7.1793280947839264 #
plane-surface $-1 41.7383342997528 0 0 -1 0 0 0 0 1 forward_v I I I I #
coedge $-1 $510 $508 $512 $678 reversed $361 $-1 #
edge $-1 $523 -11.331673476201104 $680 11.331673476201104 $522 $769 forward 7 unknown #
vertex $-1 $678 $770 #
straight-curve $-1 -41.7383342997528 -23.035377401353788 0 0 0 -1 I I #
edge $-1 $676 -23.035377401353788 $680 23.035377401353788 $674 $771 forward 7 unknown #
straight-curve $-1 0 -23.035377401353788 -11.331673476201104 -1 0 0 I I #
vertex $-1 $515 $772 #
straight-curve $-1 0 23.035377401353788 -11.331673476201104 1 0 0 I I #
point $-1 41.7383342997528 23.035377401353788 -11.331673476201104 #
point $-1 41.7383342997528 -23.035377401353788 -11.331673476201104 #
straight-curve $-1 -41.7383342997528 0 11.331673476201104 0 -1 0 I I #
point $-1 -41.7383342997528 23.035377401353788 11.331673476201104 #
point $-1 -41.7383342997528 -23.035377401353788 11.331673476201104 #
straight-curve $-1 41.7383342997528 -23.035377401353788 0 0 0 -1 I I #
straight-curve $-1 41.7383342997528 23.035377401353788 0 0 0 -1 I I #
plane-surface $-1 41.7383342997528 0 0 -1 0 0 0 0 1 forward_v I I I I #
coedge $-1 $701 $692 $691 $773 forward $533 $-1 #
coedge $-1 $536 $535 $690 $773 reversed $237 $-1 #
coedge $-1 $690 $774 $537 $693 reversed $533 $-1 #
edge $-1 $694 -41.7383342997528 $697 41.7383342997528 $692 $775 forward 7 unknown #
vertex $-1 $538 $776 #
straight-curve $-1 -41.7383342997528 0 11.331673476201104 0 -1 0 I I #
coedge $-1 $545 $539 $774 $777 forward $546 $-1 #
vertex $-1 $540 $778 #
straight-curve $-1 41.7383342997528 0 11.331673476201104 0 1 0 I I #
point $-1 41.7383342997528 -23.035377401353788 11.331673476201104 #
point $-1 -41.7383342997528 -23.035377401353788 11.331673476201104 #
coedge $-1 $774 $690 $548 $702 reversed $533 $-1 #
edge $-1 $703 -41.7383342997528 $705 41.7383342997528 $701 $779 forward 7 unknown #
vertex $-1 $777 $780 #
straight-curve $-1 41.7383342997528 -27.563986797125814 7.1980178757179392 0 -1 0 I I #
vertex $-1 $550 $781 #
straight-curve $-1 -41.7383342997528 -27.563986797125814 7.1980178757179392 0 1 0 I I #
coedge $-1 $564 $563 $556 $708 forward $553 $-1 #
edge $-1 $709 26.578275537641211 $712 34.38296629377686 $707 $782 forward 7 unknown #
vertex $-1 $568 $783 #
straight-curve $-1 -41.738334579346898 -0.50411650372521688 11.331673476201104 -1 0 0 I I #
edge $-1 $712 -1.7592275210910229 $565 6.2859155707235015 $564 $784 forward 7 unknown #
vertex $-1 $711 $785 #
straight-curve $-1 -41.738334299752793 -0.50411650372521688 3.5269827200654618 0.8660253999169214 0 0.50000000669873634 I I #
point $-1 -28.220213614240908 -0.50411650372521688 11.331673476201104 #
point $-1 -41.7383342997528 -8.5492595955397412 3.5269827200654578 #
straight-curve $-1 -41.7383342997528 0 11.331673476201104 0 -1 0 I I #
vertex $-1 $571 $786 #
point $-1 -33.949471796239813 -6.9402309771768387 6.6456584524226026 #
vertex $-1 $575 $787 #
point $-1 -33.949471796239813 -4.5266880496324795 6.6456584524226026 #
vertex $-1 $579 $788 #
point $-1 -33.949471796239813 -2.1131451220881239 6.6456584524226026 #
coedge $-1 $594 $593 $586 $724 forward $583 $-1 #
edge $-1 $725 26.578275537641211 $728 34.38296629377686 $723 $789 forward 7 unknown #
vertex $-1 $598 $790 #
straight-curve $-1 -41.738334579346898 18.002651501856544 11.331673476201104 -1 0 0 I I #
edge $-1 $728 -11.012611523881903 $595 -2.9674684320673794 $594 $791 forward 7 unknown #
vertex $-1 $727 $792 #
straight-curve $-1 -41.738334299752793 18.002651501856544 3.5269827200654618 0.8660253999169214 0 0.50000000669873634 I I #
point $-1 -28.220213614240908 18.002651501856544 11.331673476201104 #
point $-1 -41.7383342997528 9.9575084100420206 3.5269827200654578 #
straight-curve $-1 -41.7383342997528 0 11.331673476201104 0 -1 0 I I #
vertex $-1 $601 $793 #
point $-1 -33.949471796239813 11.56653702840492 6.6456584524226026 #
vertex $-1 $605 $794 #
point $-1 -33.949471796239813 13.980079955949282 6.6456584524226026 #
vertex $-1 $609 $795 #
point $-1 -33.949471796239813 16.393622883493638 6.6456584524226026 #
edge $-1 $740 47.447442967111712 $743 55.252133723247354 $614 $796 forward 7 unknown #
vertex $-1 $628 $797 #
straight-curve $-1 5.5918769255373171 -8.5492595955397412 11.331673476201104 1 0 0 I I #
edge $-1 $743 -6.2859155707235015 $625 1.7592275210910229 $624 $798 forward 7 unknown #
vertex $-1 $742 $799 #
straight-curve $-1 -30.554581007866368 -8.5492595955397412 45.265317579006464 -0.8660253999169214 0 0.50000000669873634 I I #
point $-1 28.220213614240912 -8.5492595955397412 11.331673476201104 #
point $-1 41.7383342997528 -0.50411650372521688 3.5269827200654618 #
straight-curve $-1 41.7383342997528 0 11.331673476201104 0 1 0 I I #
vertex $-1 $631 $800 #
point $-1 34.815497196156734 -6.9402309771768387 6.1456584457238739 #
vertex $-1 $635 $801 #
point $-1 34.815497196156734 -4.5266880496324795 6.1456584457238739 #
vertex $-1 $639 $802 #
point $-1 34.815497196156734 -2.1131451220881239 6.1456584457238739 #
edge $-1 $755 47.447442967111712 $758 55.252133723247354 $644 $803 forward 7 unknown #
vertex $-1 $658 $804 #
straight-curve $-1 5.5918769255373171 9.9575084100420206 11.331673476201104 1 0 0 I I #
edge $-1 $758 2.9674684320673794 $655 11.012611523881903 $654 $805 forward 7 unknown #
vertex $-1 $757 $806 #
straight-curve $-1 -30.554581007866368 9.9575084100420206 45.265317579006464 -0.8660253999169214 0 0.50000000669873634 I I #
point $-1 28.220213614240912 9.9575084100420206 11.331673476201104 #
point $-1 41.7383342997528 18.002651501856544 3.5269827200654618 #
straight-curve $-1 41.7383342997528 0 11.331673476201104 0 1 0 I I #
vertex $-1 $661 $807 #
point $-1 34.815497196156734 11.56653702840492 6.1456584457238739 #
vertex $-1 $665 $808 #
point $-1 34.815497196156734 13.980079955949282 6.1456584457238739 #
vertex $-1 $669 $809 #
point $-1 34.815497196156734 16.393622883493638 6.1456584457238739 #
straight-curve $-1 -41.7383342997528 23.035377401353788 0 0 0 -1 I I #
point $-1 -41.7383342997528 -23.035377401353788 -11.331673476201104 #
straight-curve $-1 -41.7383342997528 0 -11.331673476201104 0 1 0 I I #
point $-1 -41.7383342997528 23.035377401353788 -11.331673476201104 #
edge $-1 $694 -2.0668278002415814 $705 2.0668278002415814 $691 $810 forward 7 unknown #
coedge $-1 $692 $701 $696 $777 reversed $533 $-1 #
straight-curve $-1 0 -32.092596192897844 11.331673476201102 1 0 0 I I #
point $-1 -41.7383342997528 -32.092596192897844 11.331673476201102 #
edge $-1 $697 -2.0668278002415814 $703 2.0668278002415814 $696 $811 forward 7 unknown #
point $-1 41.7383342997528 -32.092596192897844 11.331673476201102 #
straight-curve $-1 0 -32.092596192897844 7.1980178757179392 -1 0 0 I I #
point $-1 41.7383342997528 -32.092596192897844 7.1980178757179392 #
point $-1 -41.7383342997528 -32.092596192897844 7.1980178757179392 #
straight-curve $-1 -41.7383342997528 -0.50411650372521688 37.909949013842315 0 0 -1 I I #
point $-1 -41.7383342997528 -0.50411650372521688 11.331673476201104 #
straight-curve $-1 -41.7383342997528 -2.2633440248162398 3.5269827200654538 0 -1 0 I I #
point $-1 -41.7383342997528 -0.50411650372521688 3.5269827200654578 #
point $-1 -34.132484492848903 -6.9402309771768387 5.962645749114774 #
point $-1 -34.132484492848903 -4.5266880496324795 5.962645749114774 #
point $-1 -34.132484492848903 -2.1131451220881239 5.962645749114774 #
straight-curve $-1 -41.7383342997528 18.002651501856544 37.909949013842315 0 0 -1 I I #
point $-1 -41.7383342997528 18.002651501856544 11.331673476201104 #
straight-curve $-1 -41.7383342997528 6.9900399779746412 3.5269827200654538 0 -1 0 I I #
point $-1 -41.7383342997528 18.002651501856544 3.5269827200654578 #
point $-1 -34.132484492848903 11.56653702840492 5.962645749114774 #
point $-1 -34.132484492848903 13.980079955949282 5.962645749114774 #
point $-1 -34.132484492848903 16.393622883493638 5.962645749114774 #
straight-curve $-1 41.7383342997528 -8.5492595955397412 58.779116443312816 0 0 -1 I I #
point $-1 41.7383342997528 -8.5492595955397412 11.331673476201104 #
straight-curve $-1 41.7383342997528 -2.2633440248162398 3.5269827200654653 0 1 0 I I #
point $-1 41.7383342997528 -8.5492595955397412 3.5269827200654618 #
point $-1 34.132484492848903 -6.9402309771768387 5.9626457491147811 #
point $-1 34.132484492848903 -4.5266880496324795 5.9626457491147811 #
point $-1 34.132484492848903 -2.1131451220881239 5.9626457491147811 #
straight-curve $-1 41.7383342997528 9.9575084100420206 58.779116443312816 0 0 -1 I I #
point $-1 41.7383342997528 9.9575084100420206 11.331673476201104 #
straight-curve $-1 41.7383342997528 6.9900399779746412 3.5269827200654653 0 1 0 I I #
point $-1 41.7383342997528 9.9575084100420206 3.5269827200654618 #
point $-1 34.132484492848903 11.56653702840492 5.9626457491147811 #
point $-1 34.132484492848903 13.980079955949282 5.9626457491147811 #
point $-1 34.132484492848903 16.393622883493638 5.9626457491147811 #
straight-curve $-1 -41.7383342997528 -32.092596192897844 9.2648456759595206 0 0 -1 I I #
straight-curve $-1 41.7383342997528 -32.092596192897844 9.2648456759595206 0 0 -1 I I #
End-of-ACIS-data 