500 0 8 0           
7 Unknown 11 ACIS 5.0 NT 24 Fri Mar 26 01:08:58 1999 
-1 9.9999999999999995e-007 1e-010 
body $-1 $8 $-1 $9 #
body $-1 $10 $-1 $11 #
body $-1 $12 $-1 $13 #
body $-1 $14 $-1 $15 #
body $-1 $16 $-1 $17 #
body $-1 $18 $-1 $19 #
body $-1 $20 $-1 $21 #
body $-1 $22 $-1 $23 #
lump $-1 $-1 $24 $0 #
transform $-1 1 0 0 0 1 0 0 0 1 66.690267647328113 38.033011672478132 12.16471375262428 1 rotate no_reflect no_shear #
lump $-1 $-1 $25 $1 #
transform $-1 1 0 0 0 1 0 0 0 1 66.690267647328113 38.033011672478132 12.16471375262428 1 rotate no_reflect no_shear #
lump $-1 $-1 $26 $2 #
transform $-1 1 0 0 0 1 0 0 0 1 66.690267647328113 38.033011672478132 12.16471375262428 1 rotate no_reflect no_shear #
lump $-1 $-1 $27 $3 #
transform $-1 1 0 0 0 1 0 0 0 1 66.690267647328113 38.033011672478132 12.16471375262428 1 rotate no_reflect no_shear #
lump $-1 $-1 $28 $4 #
transform $-1 1 0 0 0 1 0 0 0 1 66.690267647328113 38.033011672478132 12.16471375262428 1 rotate no_reflect no_shear #
lump $-1 $-1 $29 $5 #
transform $-1 1 0 0 0 1 0 0 0 1 66.690267647328113 38.033011672478132 12.16471375262428 1 rotate no_reflect no_shear #
lump $-1 $-1 $30 $6 #
transform $-1 1 0 0 0 1 0 0 0 1 66.690267647328113 38.033011672478132 12.16471375262428 1 rotate no_reflect no_shear #
lump $-1 $-1 $31 $7 #
transform $-1 1 0 0 0 1 0 0 0 1 66.690267647328113 38.033011672478132 12.16471375262428 1 rotate no_reflect no_shear #
shell $-1 $-1 $-1 $32 $-1 $8 #
shell $-1 $-1 $-1 $33 $-1 $10 #
shell $-1 $-1 $-1 $34 $-1 $12 #
shell $-1 $-1 $-1 $35 $-1 $14 #
shell $-1 $-1 $-1 $36 $-1 $16 #
shell $-1 $-1 $-1 $37 $-1 $18 #
shell $-1 $-1 $-1 $38 $-1 $20 #
shell $-1 $-1 $-1 $39 $-1 $22 #
face $-1 $40 $41 $24 $-1 $42 forward single #
face $-1 $43 $44 $25 $-1 $45 reversed single #
face $-1 $46 $47 $26 $-1 $48 reversed single #
face $-1 $49 $50 $27 $-1 $51 forward single #
face $-1 $52 $53 $28 $-1 $54 forward single #
face $-1 $55 $56 $29 $-1 $57 reversed single #
face $-1 $58 $59 $30 $-1 $60 forward single #
face $-1 $61 $62 $31 $-1 $63 forward single #
face $-1 $64 $65 $24 $-1 $66 reversed single #
loop $-1 $-1 $67 $32 #
plane-surface $-1 0 0 12.16471375262428 0 0 1 1 0 0 forward_v I I I I #
face $-1 $68 $69 $25 $-1 $70 reversed single #
loop $-1 $-1 $71 $33 #
plane-surface $-1 0 -33.540981270862844 9.1647137526242801 0 0 1 1 0 0 forward_v I I I I #
face $-1 $72 $73 $26 $-1 $74 reversed single #
loop $-1 $-1 $75 $34 #
plane-surface $-1 -66.690267647328099 -24.566413222125888 7.2806989866195408 -0.73135370988377701 0 0.68199835119979291 0.68199835119979291 0 0.73135370988377701 forward_v I I I I #
face $-1 $76 $77 $27 $-1 $78 forward single #
loop $-1 $79 $80 $35 #
cone-surface $-1 -63.762101277762959 -26.487500785178032 9.115678508885745 0.73135370988377701 0 -0.68199835119979291 0.68199835119979291 0 0.73135370988377701 1 I I 0 1 1 forward I I I I #
face $-1 $81 $82 $28 $-1 $83 forward single #
loop $-1 $84 $85 $36 #
cone-surface $-1 -63.762101277762959 -22.645325659073752 9.115678508885745 0.73135370988377701 0 -0.68199835119979291 0.68199835119979291 0 0.73135370988377701 1 I I 0 1 1 forward I I I I #
face $-1 $86 $87 $29 $-1 $88 reversed single #
loop $-1 $-1 $89 $37 #
plane-surface $-1 -3.9906457875084698 28.010638500654487 117.63155701156028 0.84804810408105047 0 0.52991925155115449 0.52991925155115449 0 -0.84804810408105047 forward_v I I I I #
face $-1 $90 $91 $30 $-1 $92 forward single #
loop $-1 $93 $94 $38 #
cone-surface $-1 61.799441400278347 23.715335712730081 6.778240115165314 -0.84804810408105047 0 -0.52991925155115449 0.79487887732673168 0 -1.2720721561215758 1 I I 0 1 1.5 forward I I I I #
face $-1 $95 $96 $31 $-1 $97 forward single #
loop $-1 $98 $99 $39 #
cone-surface $-1 61.799441400278347 32.305941288578914 6.778240115165314 -0.84804810408105047 0 -0.52991925155115449 0.79487887732673168 0 -1.2720721561215758 1 I I 0 1 1.5 forward I I I I #
face $-1 $100 $101 $24 $-1 $102 reversed single #
loop $-1 $-1 $103 $40 #
plane-surface $-1 0 0 -12.16471375262428 0 0 1 1 0 0 forward_v I I I I #
coedge $-1 $104 $105 $106 $107 forward $41 $-1 #
face $-1 $108 $109 $25 $-1 $110 reversed single #
loop $-1 $-1 $111 $43 #
plane-surface $-1 0 -29.048950869247555 10.66471375262428 0 -1 0 0 0 -1 forward_v I I I I #
coedge $-1 $112 $113 $114 $115 reversed $44 $-1 #
face $-1 $116 $117 $26 $-1 $118 forward single #
loop $-1 $-1 $119 $46 #
plane-surface $-1 -164.23861696135899 -20.083875575004228 98.246004139720867 0 -1 0 0.73135370988377701 0 -0.68199835119979291 forward_v I I I I #
coedge $-1 $120 $121 $122 $123 reversed $47 $-1 #
face $-1 $-1 $124 $27 $-1 $125 forward single #
loop $-1 $126 $127 $49 #
cone-surface $-1 -62.745466723038959 -26.487500785178032 8.1676514725496823 0.73135370988377701 0 -0.68199835119979291 0.34099917559989645 0 0.36567685494188851 1 I I -0.70710678118654746 0.70710678118654746 0.5 forward I I I I #
loop $-1 $-1 $128 $35 #
coedge $-1 $80 $80 $129 $130 reversed $50 $-1 #
face $-1 $-1 $131 $28 $-1 $132 forward single #
loop $-1 $133 $134 $52 #
cone-surface $-1 -62.745466723038959 -22.645325659073752 8.1676514725496823 0.73135370988377701 0 -0.68199835119979291 0.34099917559989645 0 0.36567685494188851 1 I I -0.70710678118654746 0.70710678118654746 0.5 forward I I I I #
loop $-1 $-1 $135 $36 #
coedge $-1 $85 $85 $136 $137 reversed $53 $-1 #
face $-1 $138 $139 $29 $-1 $140 reversed single #
loop $-1 $-1 $141 $55 #
plane-surface $-1 109.12246429044038 17.988265328830849 188.31247044639684 0 1 0 0.84804810408105047 0 0.52991925155115449 forward_v I I I I #
coedge $-1 $142 $143 $144 $145 reversed $56 $-1 #
face $-1 $-1 $146 $30 $-1 $147 forward single #
loop $-1 $148 $149 $58 #
cone-surface $-1 58.661537891532575 23.715335712730081 4.8174604485493973 -0.84804810408105047 0 -0.52991925155115449 0.39743943866336584 0 -0.63603607806078788 1 I I -0.70710678118654757 0.70710678118654757 0.75 forward I I I I #
loop $-1 $-1 $150 $38 #
coedge $-1 $94 $94 $151 $152 reversed $59 $-1 #
face $-1 $-1 $153 $31 $-1 $154 forward single #
loop $-1 $155 $156 $61 #
cone-surface $-1 58.661537891532575 32.305941288578914 4.8174604485493973 -0.84804810408105047 0 -0.52991925155115449 0.39743943866336584 0 -0.63603607806078788 1 I I -0.70710678118654757 0.70710678118654757 0.75 forward I I I I #
loop $-1 $-1 $157 $39 #
coedge $-1 $99 $99 $158 $159 reversed $62 $-1 #
face $-1 $160 $161 $24 $-1 $162 reversed single #
loop $-1 $-1 $163 $64 #
plane-surface $-1 0 -38.033011672478132 0 0 1 0 0 0 1 forward_v I I I I #
coedge $-1 $164 $165 $166 $167 forward $65 $-1 #
coedge $-1 $168 $67 $169 $170 forward $41 $-1 #
coedge $-1 $67 $168 $171 $172 forward $41 $-1 #
coedge $-1 $173 $174 $67 $107 reversed $175 $-1 #
edge $-1 $176 -38.033011672478132 $177 38.033011672478132 $106 $178 forward 7 unknown #
face $-1 $179 $180 $25 $-1 $181 reversed single #
loop $-1 $-1 $182 $68 #
plane-surface $-1 -66.690267647328113 0 0 1 0 0 0 0 -1 forward_v I I I I #
coedge $-1 $183 $184 $185 $186 reversed $69 $-1 #
coedge $-1 $187 $71 $188 $189 reversed $44 $-1 #
coedge $-1 $71 $187 $190 $191 forward $44 $-1 #
coedge $-1 $192 $193 $71 $115 forward $194 $-1 #
edge $-1 $195 -21.26252103704671 $196 -12.278460233816133 $114 $197 forward 7 unknown #
face $-1 $198 $199 $26 $-1 $200 reversed single #
loop $-1 $-1 $122 $72 #
plane-surface $-1 0 0 12.16471375262428 0 0 1 1 0 0 forward_v I I I I #
coedge $-1 $201 $202 $203 $204 reversed $73 $-1 #
coedge $-1 $205 $75 $206 $207 reversed $47 $-1 #
coedge $-1 $75 $205 $201 $208 forward $47 $-1 #
coedge $-1 $203 $209 $75 $123 forward $117 $-1 #
edge $-1 $210 -16.765744258184611 $211 -7.8006689639412841 $122 $212 forward 7 unknown #
loop $-1 $-1 $129 $76 #
plane-surface $-1 -66.690267647328099 -24.566413222125888 7.2806989866195408 -0.73135370988377701 0 0.68199835119979291 0.68199835119979291 0 0.73135370988377701 forward_v I I I I #
loop $-1 $-1 $213 $49 #
coedge $-1 $127 $127 $128 $214 reversed $77 $-1 #
coedge $-1 $128 $128 $127 $214 forward $79 $-1 #
coedge $-1 $129 $129 $80 $130 forward $124 $-1 #
edge $-1 $215 0 $215 6.2831853071796004 $129 $216 forward 7 unknown #
loop $-1 $-1 $136 $81 #
plane-surface $-1 -66.690267647328099 -24.566413222125888 7.2806989866195408 -0.73135370988377701 0 0.68199835119979291 0.68199835119979291 0 0.73135370988377701 forward_v I I I I #
loop $-1 $-1 $217 $52 #
coedge $-1 $134 $134 $135 $218 reversed $82 $-1 #
coedge $-1 $135 $135 $134 $218 forward $84 $-1 #
coedge $-1 $136 $136 $85 $137 forward $131 $-1 #
edge $-1 $219 0 $219 6.2831853071796004 $136 $220 forward 7 unknown #
face $-1 $221 $222 $29 $-1 $223 forward single #
loop $-1 $-1 $224 $86 #
plane-surface $-1 0 38.033011672478132 0 0 -1 0 0 0 -1 forward_v I I I I #
coedge $-1 $225 $226 $227 $228 reversed $87 $-1 #
coedge $-1 $229 $89 $224 $230 reversed $56 $-1 #
coedge $-1 $89 $229 $225 $231 forward $56 $-1 #
coedge $-1 $227 $232 $89 $145 forward $222 $-1 #
edge $-1 $233 -24.027692422150881 $234 -3.9829460785036055 $144 $235 forward 7 unknown #
loop $-1 $-1 $151 $90 #
plane-surface $-1 -3.9906457875084698 28.010638500654487 117.63155701156028 0.84804810408105047 0 0.52991925155115449 0.52991925155115449 0 -0.84804810408105047 forward_v I I I I #
loop $-1 $-1 $236 $58 #
coedge $-1 $149 $149 $150 $237 reversed $91 $-1 #
coedge $-1 $150 $150 $149 $237 forward $93 $-1 #
coedge $-1 $151 $151 $94 $152 forward $146 $-1 #
edge $-1 $238 0 $238 6.2831853071796004 $151 $239 forward 7 unknown #
loop $-1 $-1 $158 $95 #
plane-surface $-1 -3.9906457875084698 28.010638500654487 117.63155701156028 0.84804810408105047 0 0.52991925155115449 0.52991925155115449 0 -0.84804810408105047 forward_v I I I I #
loop $-1 $-1 $240 $61 #
coedge $-1 $156 $156 $157 $241 reversed $96 $-1 #
coedge $-1 $157 $157 $156 $241 forward $98 $-1 #
coedge $-1 $158 $158 $99 $159 forward $153 $-1 #
edge $-1 $242 0 $242 6.2831853071796004 $158 $243 forward 7 unknown #
face $-1 $244 $245 $24 $-1 $246 reversed single #
loop $-1 $-1 $247 $100 #
plane-surface $-1 -66.690267647328113 0 0 1 0 0 0 0 -1 forward_v I I I I #
coedge $-1 $248 $171 $249 $250 forward $101 $-1 #
coedge $-1 $251 $103 $248 $252 forward $65 $-1 #
coedge $-1 $103 $251 $253 $254 forward $65 $-1 #
coedge $-1 $174 $173 $103 $167 reversed $175 $-1 #
edge $-1 $255 -38.033011672478132 $256 38.033011672478132 $166 $257 forward 7 unknown #
coedge $-1 $105 $104 $258 $259 forward $41 $-1 #
coedge $-1 $260 $261 $104 $170 reversed $245 $-1 #
edge $-1 $177 -66.690267647328113 $262 66.690267647328113 $169 $263 forward 7 unknown #
coedge $-1 $163 $264 $105 $172 reversed $101 $-1 #
edge $-1 $265 -66.690267647328113 $176 66.690267647328113 $171 $266 forward 7 unknown #
coedge $-1 $166 $106 $264 $267 forward $175 $-1 #
coedge $-1 $106 $166 $260 $268 reversed $175 $-1 #
loop $-1 $-1 $173 $244 #
vertex $-1 $107 $269 #
vertex $-1 $107 $270 #
straight-curve $-1 66.690267647328113 0 12.16471375262428 0 1 0 I I #
face $-1 $271 $272 $25 $-1 $273 forward single #
loop $-1 $-1 $188 $108 #
plane-surface $-1 0 -38.033011672478132 0 0 1 0 0 0 1 forward_v I I I I #
coedge $-1 $274 $275 $184 $276 forward $109 $-1 #
coedge $-1 $190 $111 $192 $277 reversed $69 $-1 #
coedge $-1 $111 $190 $182 $276 reversed $69 $-1 #
coedge $-1 $278 $279 $111 $186 forward $272 $-1 #
edge $-1 $280 -66.690267647328113 $281 66.690267647328113 $185 $282 forward 7 unknown #
coedge $-1 $113 $112 $274 $283 reversed $44 $-1 #
coedge $-1 $284 $285 $112 $189 forward $180 $-1 #
edge $-1 $286 -66.690267647328113 $195 66.690267647328113 $188 $287 forward 7 unknown #
coedge $-1 $184 $183 $113 $191 reversed $69 $-1 #
edge $-1 $288 -66.690267647328113 $196 66.690267647328113 $190 $289 forward 7 unknown #
coedge $-1 $290 $114 $183 $277 forward $194 $-1 #
coedge $-1 $114 $290 $284 $291 forward $194 $-1 #
loop $-1 $-1 $192 $271 #
vertex $-1 $189 $292 #
vertex $-1 $115 $293 #
straight-curve $-1 66.690267647328113 -16.770490635431422 9.1647137526242801 0 1 0 I I #
face $-1 $-1 $294 $26 $-1 $295 forward single #
loop $-1 $-1 $296 $116 #
plane-surface $-1 -66.690267647328113 0 0 1 0 0 0 0 -1 forward_v I I I I #
coedge $-1 $202 $119 $121 $208 reversed $73 $-1 #
coedge $-1 $119 $201 $296 $297 reversed $73 $-1 #
coedge $-1 $298 $122 $119 $204 forward $117 $-1 #
edge $-1 $211 -19.983458172917501 $299 -15.42904083335138 $203 $300 forward 7 unknown #
coedge $-1 $121 $120 $301 $302 reversed $47 $-1 #
coedge $-1 $303 $304 $120 $207 forward $294 $-1 #
edge $-1 $305 -23.978782164984871 $210 -17.300734730480308 $206 $306 forward 7 unknown #
edge $-1 $307 -2.0734513383776317e-014 $211 6.6780474345045455 $201 $308 forward 7 unknown #
coedge $-1 $122 $298 $303 $309 forward $117 $-1 #
vertex $-1 $207 $310 #
vertex $-1 $123 $311 #
straight-curve $-1 -62.135850307761984 -12.283206611062944 12.164713752624278 0 1 0 I I #
coedge $-1 $213 $213 $-1 $312 reversed $126 $-1 #
edge $-1 $313 0 $313 6.2831853071796004 $127 $314 forward 7 unknown #
vertex $-1 $130 $315 #
ellipse-curve $-1 -64.413058977545049 -26.487500785178032 9.7227063696218998 -0.73135370988377701 0 0.68199835119979291 0.68199835119979291 0 0.73135370988377701 1 I I #
coedge $-1 $217 $217 $-1 $316 reversed $133 $-1 #
edge $-1 $317 0 $317 6.2831853071796004 $134 $318 forward 7 unknown #
vertex $-1 $137 $319 #
ellipse-curve $-1 -64.413058977545049 -22.645325659073752 9.7227063696218998 -0.73135370988377701 0 0.68199835119979291 0.68199835119979291 0 0.73135370988377701 1 I I #
face $-1 $-1 $320 $29 $-1 $321 reversed single #
loop $-1 $-1 $144 $138 #
plane-surface $-1 0 0 12.16471375262428 0 0 1 1 0 0 forward_v I I I I #
coedge $-1 $322 $323 $142 $230 forward $139 $-1 #
coedge $-1 $226 $141 $143 $231 reversed $87 $-1 #
coedge $-1 $141 $225 $324 $325 reversed $87 $-1 #
coedge $-1 $326 $144 $141 $228 forward $222 $-1 #
edge $-1 $234 7.3511178693783563 $327 12.129035502107925 $227 $328 forward 7 unknown #
coedge $-1 $143 $142 $329 $330 reversed $56 $-1 #
edge $-1 $331 -82.44456582831728 $233 -73.428253213246435 $224 $332 forward 7 unknown #
edge $-1 $333 -133.38053529465623 $234 -124.36422267958542 $225 $334 forward 7 unknown #
coedge $-1 $144 $326 $322 $335 forward $222 $-1 #
vertex $-1 $230 $336 #
vertex $-1 $145 $337 #
straight-curve $-1 61.912350014598545 14.005319250327243 12.16471375262428 0 -1 0 I I #
coedge $-1 $236 $236 $-1 $338 reversed $148 $-1 #
edge $-1 $339 0 $339 6.2831853071796004 $149 $340 forward 7 unknown #
vertex $-1 $152 $341 #
ellipse-curve $-1 64.301308830963322 23.715335712730081 8.3415803431178617 0.84804810408105047 0 0.52991925155115449 0.79487887732673168 0 -1.2720721561215758 1 I I #
coedge $-1 $240 $240 $-1 $342 reversed $155 $-1 #
edge $-1 $343 0 $343 6.2831853071796004 $156 $344 forward 7 unknown #
vertex $-1 $159 $345 #
ellipse-curve $-1 64.301308830963322 32.305941288578914 8.3415803431178617 0.84804810408105047 0 0.52991925155115449 0.79487887732673168 0 -1.2720721561215758 1 I I #
face $-1 $-1 $175 $24 $-1 $346 reversed single #
loop $-1 $-1 $260 $160 #
plane-surface $-1 0 38.033011672478132 0 0 -1 0 0 0 -1 forward_v I I I I #
coedge $-1 $347 $258 $261 $348 forward $161 $-1 #
coedge $-1 $264 $163 $164 $252 reversed $101 $-1 #
coedge $-1 $258 $347 $163 $250 reversed $161 $-1 #
edge $-1 $265 -12.16471375262428 $349 12.16471375262428 $249 $350 forward 7 unknown #
coedge $-1 $165 $164 $347 $351 forward $65 $-1 #
edge $-1 $256 -66.690267647328113 $349 66.690267647328113 $248 $352 forward 7 unknown #
coedge $-1 $261 $260 $165 $254 reversed $245 $-1 #
edge $-1 $353 -66.690267647328113 $255 66.690267647328113 $253 $354 forward 7 unknown #
vertex $-1 $167 $355 #
vertex $-1 $267 $356 #
straight-curve $-1 66.690267647328113 0 -12.16471375262428 0 -1 0 I I #
coedge $-1 $247 $249 $168 $259 reversed $161 $-1 #
edge $-1 $262 -38.033011672478132 $265 38.033011672478132 $258 $357 forward 7 unknown #
coedge $-1 $253 $169 $174 $268 forward $245 $-1 #
coedge $-1 $169 $253 $247 $348 reversed $245 $-1 #
vertex $-1 $170 $358 #
straight-curve $-1 0 38.033011672478132 12.16471375262428 -1 0 0 I I #
coedge $-1 $171 $248 $173 $267 reversed $101 $-1 #
vertex $-1 $259 $359 #
straight-curve $-1 0 -38.033011672478132 12.16471375262428 1 0 0 I I #
edge $-1 $176 -12.16471375262428 $256 12.16471375262428 $173 $360 forward 7 unknown #
edge $-1 $177 -12.16471375262428 $255 12.16471375262428 $174 $361 forward 7 unknown #
point $-1 66.690267647328113 -38.033011672478132 12.16471375262428 #
point $-1 66.690267647328113 38.033011672478132 12.16471375262428 #
face $-1 $-1 $194 $25 $-1 $362 reversed single #
loop $-1 $-1 $185 $179 #
plane-surface $-1 0 0 12.16471375262428 0 0 1 1 0 0 forward_v I I I I #
coedge $-1 $363 $182 $187 $283 forward $109 $-1 #
coedge $-1 $182 $363 $278 $364 reversed $109 $-1 #
edge $-1 $281 -6.8323568763121401 $288 -3.8323568763121401 $182 $365 forward 7 unknown #
edge $-1 $196 3.8323568763121401 $280 6.8323568763121401 $192 $366 forward 7 unknown #
coedge $-1 $367 $185 $275 $364 forward $272 $-1 #
coedge $-1 $185 $367 $290 $368 forward $272 $-1 #
vertex $-1 $277 $369 #
vertex $-1 $364 $370 #
straight-curve $-1 0 -29.048950869247555 12.16471375262428 -1 0 0 I I #
edge $-1 $288 12.278460233816133 $286 21.26252103704671 $274 $371 forward 7 unknown #
coedge $-1 $372 $188 $193 $291 reversed $180 $-1 #
coedge $-1 $188 $372 $363 $373 forward $180 $-1 #
vertex $-1 $189 $374 #
straight-curve $-1 0 -38.033011672478132 9.1647137526242801 1 0 0 I I #
vertex $-1 $283 $375 #
straight-curve $-1 0 -29.048950869247555 9.1647137526242801 1 0 0 I I #
coedge $-1 $193 $192 $279 $368 reversed $194 $-1 #
edge $-1 $376 -12.16471375262428 $195 -9.1647137526242801 $193 $377 forward 7 unknown #
point $-1 66.690267647328113 -38.033011672478132 9.1647137526242801 #
point $-1 66.690267647328113 -29.048950869247555 9.1647137526242801 #
loop $-1 $-1 $206 $198 #
plane-surface $-1 0 -29.048950869247555 10.66471375262428 0 -1 0 0 0 -1 forward_v I I I I #
coedge $-1 $301 $378 $202 $297 forward $199 $-1 #
edge $-1 $299 36.958288317236153 $307 41.842303083240907 $296 $379 forward 7 unknown #
coedge $-1 $209 $203 $378 $380 forward $117 $-1 #
vertex $-1 $380 $381 #
straight-curve $-1 -82.119308480679493 -20.083875575004228 12.16471375262428 -1 0 0 I I #
coedge $-1 $382 $296 $205 $302 forward $199 $-1 #
edge $-1 $307 7.8006689639412841 $305 16.765744258184604 $301 $383 forward 7 unknown #
coedge $-1 $304 $206 $209 $309 reversed $294 $-1 #
coedge $-1 $206 $303 $382 $384 reversed $294 $-1 #
vertex $-1 $384 $385 #
straight-curve $-1 -50.33677774702943 -29.048950869247555 24.817670281476161 0.68199835119979291 0 0.73135370988377701 I I #
vertex $-1 $302 $386 #
straight-curve $-1 -66.690267647328099 -20.083875575004228 7.2806989866195408 0.68199835119979291 0 0.73135370988377701 I I #
edge $-1 $387 -66.690267647328113 $210 -62.135850307761991 $209 $388 forward 7 unknown #
point $-1 -62.135850307761991 -29.048950869247555 12.16471375262428 #
point $-1 -62.135850307761991 -20.083875575004228 12.16471375262428 #
edge $-1 $389 1 $389 0 $213 $-1 forward 7 unknown #
vertex $-1 $214 $390 #
ellipse-curve $-1 -63.111143577980847 -26.487500785178032 8.5086506481495796 -0.73135370988377701 0 0.68199835119979291 0.68199835119979291 0 0.73135370988377701 1 I I #
point $-1 -63.731060626345268 -26.487500785178032 10.454060079505687 #
edge $-1 $391 1 $391 0 $217 $-1 forward 7 unknown #
vertex $-1 $218 $392 #
ellipse-curve $-1 -63.111143577980847 -22.645325659073752 8.5086506481495796 -0.73135370988377701 0 0.68199835119979291 0.68199835119979291 0 0.73135370988377701 1 I I #
point $-1 -63.731060626345268 -22.645325659073752 10.454060079505687 #
loop $-1 $-1 $329 $221 #
plane-surface $-1 66.690267647328113 0 0 -1 0 0 0 0 1 forward_v I I I I #
coedge $-1 $323 $224 $232 $335 reversed $139 $-1 #
coedge $-1 $224 $322 $393 $394 forward $139 $-1 #
coedge $-1 $329 $395 $226 $325 forward $320 $-1 #
edge $-1 $327 81.991521470574142 $333 89.637788289587021 $324 $396 forward 7 unknown #
coedge $-1 $232 $227 $395 $397 forward $222 $-1 #
vertex $-1 $397 $398 #
straight-curve $-1 54.561232145220188 17.988265328830849 12.16471375262428 1 0 0 I I #
coedge $-1 $393 $324 $229 $330 forward $320 $-1 #
edge $-1 $333 3.9829460785036055 $331 24.027692422150881 $329 $399 forward 7 unknown #
vertex $-1 $230 $400 #
straight-curve $-1 23.001305029126339 38.033011672478132 74.435404676101228 -0.52991925155115449 0 0.84804810408105047 I I #
vertex $-1 $330 $401 #
straight-curve $-1 -3.9906457875084698 17.988265328830849 117.63155701156028 -0.52991925155115449 0 0.84804810408105047 I I #
edge $-1 $402 -66.690267647328113 $233 -61.912350014598545 $322 $403 forward 7 unknown #
point $-1 61.912350014598545 38.033011672478125 12.16471375262428 #
point $-1 61.912350014598545 17.988265328830849 12.16471375262428 #
edge $-1 $404 1 $404 0 $236 $-1 forward 7 unknown #
vertex $-1 $237 $405 #
ellipse-curve $-1 59.297573969593365 23.715335712730081 5.2148998872127628 0.84804810408105047 0 0.52991925155115449 0.79487887732673168 0 -1.2720721561215758 1 I I #
point $-1 65.096187708290074 23.715335712730081 7.0695081869962877 #
edge $-1 $406 1 $406 0 $240 $-1 forward 7 unknown #
vertex $-1 $241 $407 #
ellipse-curve $-1 59.297573969593365 32.305941288578914 5.2148998872127628 0.84804810408105047 0 0.52991925155115449 0.79487887732673168 0 -1.2720721561215758 1 I I #
point $-1 65.096187708290074 32.305941288578914 7.0695081869962877 #
plane-surface $-1 66.690267647328113 0 0 -1 0 0 0 0 1 forward_v I I I I #
coedge $-1 $249 $247 $251 $351 reversed $161 $-1 #
edge $-1 $262 -12.16471375262428 $353 12.16471375262428 $261 $408 forward 7 unknown #
vertex $-1 $351 $409 #
straight-curve $-1 -66.690267647328113 -38.033011672478132 0 0 0 -1 I I #
edge $-1 $349 -38.033011672478132 $353 38.033011672478132 $347 $410 forward 7 unknown #
straight-curve $-1 0 -38.033011672478132 -12.16471375262428 -1 0 0 I I #
vertex $-1 $254 $411 #
straight-curve $-1 0 38.033011672478132 -12.16471375262428 1 0 0 I I #
point $-1 66.690267647328113 38.033011672478132 -12.16471375262428 #
point $-1 66.690267647328113 -38.033011672478132 -12.16471375262428 #
straight-curve $-1 -66.690267647328113 0 12.16471375262428 0 -1 0 I I #
point $-1 -66.690267647328113 38.033011672478132 12.16471375262428 #
point $-1 -66.690267647328113 -38.033011672478132 12.16471375262428 #
straight-curve $-1 66.690267647328113 -38.033011672478132 0 0 0 -1 I I #
straight-curve $-1 66.690267647328113 38.033011672478132 0 0 0 -1 I I #
plane-surface $-1 66.690267647328113 0 0 -1 0 0 0 0 1 forward_v I I I I #
coedge $-1 $275 $274 $285 $373 reversed $109 $-1 #
edge $-1 $281 29.048950869247555 $412 38.033011672478132 $275 $413 forward 7 unknown #
straight-curve $-1 -66.690267647328113 -29.048950869247555 5.3323568763121401 0 0 -1 I I #
straight-curve $-1 66.690267647328113 -29.048950869247555 5.3323568763121401 0 0 1 I I #
coedge $-1 $279 $278 $372 $414 forward $272 $-1 #
edge $-1 $376 -38.033011672478132 $280 -29.048950869247555 $290 $415 forward 7 unknown #
point $-1 66.690267647328113 -29.048950869247555 12.16471375262428 #
point $-1 -66.690267647328113 -29.048950869247555 12.16471375262428 #
straight-curve $-1 -66.690267647328113 -16.770490635431422 9.1647137526242801 0 -1 0 I I #
coedge $-1 $285 $284 $367 $414 reversed $180 $-1 #
edge $-1 $412 -12.16471375262428 $286 -9.1647137526242801 $363 $416 forward 7 unknown #
point $-1 -66.690267647328113 -38.033011672478132 9.1647137526242801 #
point $-1 -66.690267647328113 -29.048950869247555 9.1647137526242801 #
vertex $-1 $368 $417 #
straight-curve $-1 66.690267647328113 -38.033011672478132 0 0 0 -1 I I #
coedge $-1 $296 $382 $298 $380 reversed $199 $-1 #
straight-curve $-1 -66.690267647328113 -20.083875575004228 49.123002069860433 0 0 -1 I I #
edge $-1 $299 20.083875575004228 $387 29.048950869247555 $378 $418 forward 7 unknown #
point $-1 -66.690267647328113 -20.083875575004228 12.16471375262428 #
coedge $-1 $378 $301 $304 $384 forward $199 $-1 #
straight-curve $-1 -66.690267647328113 -12.283206611062944 7.2806989866195311 0 -1 0 I I #
edge $-1 $305 -41.842303083240907 $387 -36.958288317236153 $382 $419 forward 7 unknown #
point $-1 -66.690267647328113 -29.048950869247548 7.2806989866195257 #
point $-1 -66.690267647328113 -20.083875575004228 7.2806989866195257 #
vertex $-1 $384 $420 #
straight-curve $-1 0 -29.048950869247555 12.16471375262428 1 0 0 I I #
vertex $-1 $312 $421 #
point $-1 -62.429145226781053 -26.487500785178032 9.2400043580333566 #
vertex $-1 $316 $422 #
point $-1 -62.429145226781053 -22.645325659073752 9.2400043580333566 #
coedge $-1 $395 $329 $323 $394 reversed $320 $-1 #
edge $-1 $402 -12.16471375262428 $331 -4.5184469336114006 $393 $423 forward 7 unknown #
coedge $-1 $324 $393 $326 $397 reversed $320 $-1 #
straight-curve $-1 66.690267647328113 17.988265328830849 94.156235223198422 0 0 -1 I I #
edge $-1 $327 17.988265328830849 $402 38.033011672478132 $395 $424 forward 7 unknown #
point $-1 66.690267647328113 17.988265328830849 12.16471375262428 #
straight-curve $-1 66.690267647328113 14.005319250327243 4.5184469336114219 0 1 0 I I #
point $-1 66.690267647328113 38.033011672478125 4.5184469336114006 #
point $-1 66.690267647328113 17.988265328830849 4.5184469336114006 #
vertex $-1 $397 $425 #
straight-curve $-1 0 38.033011672478132 12.16471375262428 -1 0 0 I I #
vertex $-1 $338 $426 #
point $-1 60.092452846920096 23.715335712730081 3.9428277310911874 #
vertex $-1 $342 $427 #
point $-1 60.092452846920096 32.305941288578914 3.9428277310911874 #
straight-curve $-1 -66.690267647328113 38.033011672478132 0 0 0 -1 I I #
point $-1 -66.690267647328113 -38.033011672478132 -12.16471375262428 #
straight-curve $-1 -66.690267647328113 0 -12.16471375262428 0 1 0 I I #
point $-1 -66.690267647328113 38.033011672478132 -12.16471375262428 #
vertex $-1 $364 $428 #
straight-curve $-1 -66.690267647328113 0 12.16471375262428 0 -1 0 I I #
edge $-1 $412 -66.690267647328113 $376 66.690267647328113 $372 $429 forward 7 unknown #
straight-curve $-1 66.690267647328113 0 12.16471375262428 0 1 0 I I #
straight-curve $-1 -66.690267647328113 -38.033011672478132 0 0 0 -1 I I #
point $-1 66.690267647328113 -38.033011672478132 12.16471375262428 #
straight-curve $-1 -66.690267647328113 0 12.16471375262428 0 -1 0 I I #
straight-curve $-1 -66.690267647328113 -29.048950869247548 49.123002069860433 0 0 1 I I #
point $-1 -66.690267647328113 -29.048950869247555 12.16471375262428 #
point $-1 -62.37978986809707 -26.487500785178032 7.8266522969497858 #
point $-1 -62.37978986809707 -22.645325659073752 7.8266522969497858 #
straight-curve $-1 66.690267647328113 38.033011672478132 0 0 0 -1 I I #
straight-curve $-1 66.690267647328113 0 12.16471375262428 0 1 0 I I #
point $-1 66.690267647328113 38.033011672478132 12.16471375262428 #
point $-1 58.025501813471784 23.715335712730081 4.4200210098860317 #
point $-1 58.025501813471784 32.305941288578914 4.4200210098860317 #
point $-1 -66.690267647328113 -38.033011672478132 12.16471375262428 #
straight-curve $-1 0 -38.033011672478132 12.16471375262428 1 0 0 I I #
End-of-ACIS-data 