500 0 5 0           
7 Unknown 11 ACIS 5.0 NT 24 Thu Mar 25 17:44:33 1999 
-1 9.9999999999999995e-007 1e-010 
body $-1 $5 $-1 $6 #
body $-1 $7 $-1 $8 #
body $-1 $9 $-1 $10 #
body $-1 $11 $-1 $12 #
body $-1 $13 $-1 $14 #
lump $-1 $-1 $15 $0 #
transform $-1 1 0 0 0 1 0 0 0 1 54.676961577196572 25.574707834495172 6.6624428097181383 1 rotate no_reflect no_shear #
lump $-1 $-1 $16 $1 #
transform $-1 1 0 0 0 1 0 0 0 1 54.676961577196572 25.574707834495172 6.6624428097181383 1 rotate no_reflect no_shear #
lump $-1 $-1 $17 $2 #
transform $-1 1 0 0 0 1 0 0 0 1 54.676961577196572 25.574707834495172 6.6624428097181383 1 rotate no_reflect no_shear #
lump $-1 $-1 $18 $3 #
transform $-1 1 0 0 0 1 0 0 0 1 54.676961577196572 25.574707834495172 6.6624428097181383 1 rotate no_reflect no_shear #
lump $-1 $-1 $19 $4 #
transform $-1 1 0 0 0 1 0 0 0 1 54.676961577196572 25.574707834495172 6.6624428097181383 1 rotate no_reflect no_shear #
shell $-1 $-1 $-1 $20 $-1 $5 #
shell $-1 $-1 $-1 $21 $-1 $7 #
shell $-1 $-1 $-1 $22 $-1 $9 #
shell $-1 $-1 $-1 $23 $-1 $11 #
shell $-1 $-1 $-1 $24 $-1 $13 #
face $-1 $25 $26 $15 $-1 $27 forward single #
face $-1 $28 $29 $16 $-1 $30 forward single #
face $-1 $31 $32 $17 $-1 $33 reversed single #
face $-1 $34 $35 $18 $-1 $36 reversed single #
face $-1 $37 $38 $19 $-1 $39 reversed single #
face $-1 $40 $41 $15 $-1 $42 reversed single #
loop $-1 $-1 $43 $20 #
plane-surface $-1 0 0 6.6624428097181383 0 0 1 1 0 0 forward_v I I I I #
face $-1 $44 $45 $16 $-1 $46 forward single #
loop $-1 $-1 $47 $21 #
plane-surface $-1 10.055095527264022 -112.9086349278964 67.774783607366984 -1 0 0 0 -0.79863551827123203 0.60181501223851219 forward_v I I I I #
face $-1 $48 $49 $17 $-1 $50 reversed single #
loop $-1 $51 $52 $22 #
cone-surface $-1 -6.5719604065380111 -22.363263210079783 3.2272042975904052 0 0.79863551827123203 -0.60181501223851219 1 0 0 1 I I 0 1 1 forward I I I I #
face $-1 $53 $54 $18 $-1 $55 reversed single #
loop $-1 $56 $57 $23 #
cone-surface $-1 -0.33681443136224942 -22.363263210079783 3.2272042975904052 0 0.79863551827123203 -0.60181501223851219 1 0 0 1 I I 0 1 1 forward I I I I #
face $-1 $58 $59 $19 $-1 $60 reversed single #
loop $-1 $61 $62 $24 #
cone-surface $-1 5.8983315438135122 -22.363263210079783 3.2272042975904052 0 0.79863551827123203 -0.60181501223851219 1 0 0 1 I I 0 1 1 forward I I I I #
face $-1 $63 $64 $15 $-1 $65 reversed single #
loop $-1 $-1 $66 $25 #
plane-surface $-1 0 0 -6.6624428097181383 0 0 1 1 0 0 forward_v I I I I #
coedge $-1 $67 $68 $69 $70 forward $26 $-1 #
face $-1 $71 $72 $16 $-1 $73 forward single #
loop $-1 $-1 $74 $28 #
plane-surface $-1 -0.33681443136224942 -25.574707834495157 1.9639510058765524 0 -0.79863551827123203 0.60181501223851219 1 0 0 forward_v I I I I #
coedge $-1 $75 $76 $77 $78 reversed $29 $-1 #
face $-1 $79 $80 $17 $-1 $81 forward single #
loop $-1 $82 $83 $31 #
cone-surface $-1 -6.5719604065380111 -20.522784540276128 1.8403041812642034 0 0.79863551827123203 -0.60181501223851219 0.5 0 0 1 I I -0.70710678118654746 0.70710678118654746 0.5 forward I I I I #
loop $-1 $-1 $84 $22 #
coedge $-1 $52 $52 $85 $86 reversed $32 $-1 #
face $-1 $87 $88 $18 $-1 $89 reversed single #
loop $-1 $90 $91 $34 #
cone-surface $-1 -0.33681443136224942 -20.522784540276128 1.8403041812642034 0 0.79863551827123203 -0.60181501223851219 0.5 0 0 1 I I -0.70710678118654746 0.70710678118654746 0.5 forward I I I I #
loop $-1 $-1 $92 $23 #
coedge $-1 $57 $57 $93 $94 reversed $35 $-1 #
face $-1 $95 $96 $19 $-1 $97 reversed single #
loop $-1 $98 $99 $37 #
cone-surface $-1 5.8983315438135122 -20.522784540276128 1.8403041812642034 0 0.79863551827123203 -0.60181501223851219 0.5 0 0 1 I I -0.70710678118654746 0.70710678118654746 0.5 forward I I I I #
loop $-1 $-1 $100 $24 #
coedge $-1 $62 $62 $101 $102 reversed $38 $-1 #
face $-1 $103 $104 $15 $-1 $105 reversed single #
loop $-1 $-1 $106 $40 #
plane-surface $-1 0 -25.574707834495172 0 0 1 0 0 0 1 forward_v I I I I #
coedge $-1 $107 $108 $109 $110 forward $41 $-1 #
coedge $-1 $111 $43 $112 $113 forward $26 $-1 #
coedge $-1 $43 $111 $114 $115 forward $26 $-1 #
coedge $-1 $116 $117 $43 $70 reversed $118 $-1 #
edge $-1 $119 -25.574707834495172 $120 25.574707834495172 $69 $121 forward 7 unknown #
face $-1 $122 $123 $16 $-1 $124 forward single #
loop $-1 $-1 $125 $44 #
plane-surface $-1 -10.728724389988521 -112.9086349278964 67.774783607366984 1 0 0 0 0.79863551827123203 -0.60181501223851219 forward_v I I I I #
coedge $-1 $126 $127 $128 $129 reversed $45 $-1 #
coedge $-1 $76 $47 $127 $130 forward $29 $-1 #
coedge $-1 $47 $75 $131 $132 reversed $29 $-1 #
coedge $-1 $133 $128 $47 $78 forward $123 $-1 #
edge $-1 $134 -34.420177056947743 $135 -30.879609629453029 $77 $136 forward 7 unknown #
face $-1 $137 $138 $17 $-1 $139 forward single #
loop $-1 $-1 $140 $48 #
plane-surface $-1 10.055095527264022 -112.9086349278964 67.774783607366984 -1 0 0 0 -0.79863551827123203 0.60181501223851219 forward_v I I I I #
loop $-1 $-1 $141 $31 #
coedge $-1 $83 $83 $84 $142 forward $49 $-1 #
coedge $-1 $84 $84 $83 $142 reversed $51 $-1 #
coedge $-1 $85 $85 $52 $86 forward $138 $-1 #
edge $-1 $143 4.0335713934611979e-017 $143 6.2831853071796004 $85 $144 forward 7 unknown #
face $-1 $145 $146 $18 $-1 $147 reversed single #
loop $-1 $148 $149 $53 #
cone-surface $-1 -6.5719604065380111 -22.363263210079783 3.2272042975904052 0 0.79863551827123203 -0.60181501223851219 1 0 0 1 I I 0 1 1 forward I I I I #
loop $-1 $-1 $150 $34 #
coedge $-1 $91 $91 $92 $151 forward $54 $-1 #
coedge $-1 $92 $92 $91 $151 reversed $56 $-1 #
coedge $-1 $93 $93 $57 $94 forward $152 $-1 #
edge $-1 $153 4.0335713934611979e-017 $153 6.2831853071796004 $93 $154 forward 7 unknown #
face $-1 $155 $156 $19 $-1 $157 reversed single #
loop $-1 $158 $159 $58 #
cone-surface $-1 -0.33681443136224942 -22.363263210079783 3.2272042975904052 0 0.79863551827123203 -0.60181501223851219 1 0 0 1 I I 0 1 1 forward I I I I #
loop $-1 $-1 $160 $37 #
coedge $-1 $99 $99 $100 $161 forward $59 $-1 #
coedge $-1 $100 $100 $99 $161 reversed $61 $-1 #
coedge $-1 $101 $101 $62 $102 forward $162 $-1 #
edge $-1 $163 4.0335713934611979e-017 $163 6.2831853071796004 $101 $164 forward 7 unknown #
face $-1 $165 $166 $15 $-1 $167 reversed single #
loop $-1 $-1 $168 $63 #
plane-surface $-1 -54.676961577196572 0 0 1 0 0 0 0 -1 forward_v I I I I #
coedge $-1 $169 $114 $170 $171 forward $64 $-1 #
coedge $-1 $172 $66 $169 $173 forward $41 $-1 #
coedge $-1 $66 $172 $174 $175 forward $41 $-1 #
coedge $-1 $117 $116 $66 $110 reversed $118 $-1 #
edge $-1 $176 -25.574707834495172 $177 25.574707834495172 $109 $178 forward 7 unknown #
coedge $-1 $68 $67 $179 $180 forward $26 $-1 #
coedge $-1 $181 $182 $67 $113 reversed $166 $-1 #
edge $-1 $120 -54.676961577196572 $183 54.676961577196572 $112 $184 forward 7 unknown #
coedge $-1 $106 $185 $68 $115 reversed $64 $-1 #
edge $-1 $186 -54.676961577196572 $119 54.676961577196572 $114 $187 forward 7 unknown #
coedge $-1 $109 $69 $185 $188 forward $118 $-1 #
coedge $-1 $69 $109 $181 $189 reversed $118 $-1 #
loop $-1 $-1 $116 $165 #
vertex $-1 $70 $190 #
vertex $-1 $70 $191 #
straight-curve $-1 54.676961577196572 0 6.6624428097181383 0 1 0 I I #
face $-1 $192 $193 $16 $-1 $194 reversed single #
loop $-1 $-1 $195 $71 #
plane-surface $-1 0 0 6.6624428097181383 0 0 1 1 0 0 forward_v I I I I #
coedge $-1 $196 $197 $195 $198 reversed $72 $-1 #
coedge $-1 $199 $74 $197 $200 reversed $45 $-1 #
coedge $-1 $74 $199 $75 $130 reversed $45 $-1 #
coedge $-1 $77 $195 $74 $129 forward $123 $-1 #
edge $-1 $201 -10.560317174307396 $134 10.223502742945147 $128 $202 forward 7 unknown #
edge $-1 $134 -5.8831490665631616 $203 2.3625585895707848e-014 $75 $204 forward 7 unknown #
coedge $-1 $205 $206 $76 $132 forward $207 $-1 #
edge $-1 $135 27.224948993965356 $203 31.923440797806958 $131 $208 forward 7 unknown #
coedge $-1 $209 $77 $206 $210 forward $123 $-1 #
vertex $-1 $129 $211 #
vertex $-1 $210 $212 #
straight-curve $-1 10.055095527264022 -56.4543174639482 6.6624428097181365 0 -1 0 I I #
face $-1 $213 $214 $17 $-1 $215 forward single #
loop $-1 $216 $85 $79 #
plane-surface $-1 -0.33681443136224942 -25.574707834495157 1.9639510058765524 0 -0.79863551827123203 0.60181501223851219 1 0 0 forward_v I I I I #
coedge $-1 $217 $218 $219 $220 reversed $80 $-1 #
coedge $-1 $141 $141 $-1 $221 forward $82 $-1 #
edge $-1 $222 0 $222 6.2831853071796004 $83 $223 forward 7 unknown #
vertex $-1 $86 $224 #
ellipse-curve $-1 -6.5719604065380111 -23.804424120747811 4.3131969077973409 0 0.79863551827123203 -0.60181501223851219 1 0 0 1 I I #
face $-1 $225 $226 $18 $-1 $227 forward single #
loop $-1 $228 $229 $87 #
cone-surface $-1 -6.5719604065380111 -20.522784540276128 1.8403041812642034 0 0.79863551827123203 -0.60181501223851219 0.5 0 0 1 I I -0.70710678118654746 0.70710678118654746 0.5 forward I I I I #
loop $-1 $-1 $230 $53 #
coedge $-1 $149 $149 $231 $232 reversed $88 $-1 #
coedge $-1 $150 $150 $-1 $233 forward $90 $-1 #
edge $-1 $234 0 $234 6.2831853071796004 $91 $235 forward 7 unknown #
loop $-1 $236 $93 $225 #
vertex $-1 $94 $237 #
ellipse-curve $-1 -0.33681443136224942 -23.804424120747811 4.3131969077973409 0 0.79863551827123203 -0.60181501223851219 1 0 0 1 I I #
face $-1 $238 $239 $19 $-1 $240 reversed single #
loop $-1 $241 $242 $95 #
cone-surface $-1 -0.33681443136224942 -20.522784540276128 1.8403041812642034 0 0.79863551827123203 -0.60181501223851219 0.5 0 0 1 I I -0.70710678118654746 0.70710678118654746 0.5 forward I I I I #
loop $-1 $-1 $243 $58 #
coedge $-1 $159 $159 $244 $245 reversed $96 $-1 #
coedge $-1 $160 $160 $-1 $246 forward $98 $-1 #
edge $-1 $247 0 $247 6.2831853071796004 $99 $248 forward 7 unknown #
loop $-1 $249 $101 $250 #
vertex $-1 $102 $251 #
ellipse-curve $-1 5.8983315438135122 -23.804424120747811 4.3131969077973409 0 0.79863551827123203 -0.60181501223851219 1 0 0 1 I I #
face $-1 $-1 $118 $15 $-1 $252 reversed single #
loop $-1 $-1 $181 $103 #
plane-surface $-1 0 25.574707834495172 0 0 -1 0 0 0 -1 forward_v I I I I #
coedge $-1 $253 $179 $182 $254 forward $104 $-1 #
coedge $-1 $185 $106 $107 $173 reversed $64 $-1 #
coedge $-1 $179 $253 $106 $171 reversed $104 $-1 #
edge $-1 $186 -6.6624428097181383 $255 6.6624428097181383 $170 $256 forward 7 unknown #
coedge $-1 $108 $107 $253 $257 forward $41 $-1 #
edge $-1 $177 -54.676961577196572 $255 54.676961577196572 $169 $258 forward 7 unknown #
coedge $-1 $182 $181 $108 $175 reversed $166 $-1 #
edge $-1 $259 -54.676961577196572 $176 54.676961577196572 $174 $260 forward 7 unknown #
vertex $-1 $110 $261 #
vertex $-1 $188 $262 #
straight-curve $-1 54.676961577196572 0 -6.6624428097181383 0 -1 0 I I #
coedge $-1 $168 $170 $111 $180 reversed $104 $-1 #
edge $-1 $183 -25.574707834495172 $186 25.574707834495172 $179 $263 forward 7 unknown #
coedge $-1 $174 $112 $117 $189 forward $166 $-1 #
coedge $-1 $112 $174 $168 $254 reversed $166 $-1 #
vertex $-1 $113 $264 #
straight-curve $-1 0 25.574707834495172 6.6624428097181383 -1 0 0 I I #
coedge $-1 $114 $169 $116 $188 reversed $64 $-1 #
vertex $-1 $180 $265 #
straight-curve $-1 0 -25.574707834495172 6.6624428097181383 1 0 0 I I #
edge $-1 $119 -6.6624428097181383 $177 6.6624428097181383 $116 $266 forward 7 unknown #
edge $-1 $120 -6.6624428097181383 $176 6.6624428097181383 $117 $267 forward 7 unknown #
point $-1 54.676961577196572 -25.574707834495172 6.6624428097181383 #
point $-1 54.676961577196572 25.574707834495172 6.6624428097181383 #
face $-1 $268 $207 $16 $-1 $269 reversed single #
loop $-1 $-1 $270 $122 #
plane-surface $-1 0 0 -6.6624428097181383 0 0 1 1 0 0 forward_v I I I I #
coedge $-1 $128 $271 $125 $198 forward $123 $-1 #
coedge $-1 $197 $125 $272 $273 reversed $72 $-1 #
coedge $-1 $125 $196 $126 $200 forward $72 $-1 #
edge $-1 $274 30.879609629453029 $201 34.420177056947743 $195 $275 forward 7 unknown #
coedge $-1 $127 $126 $205 $276 reversed $45 $-1 #
edge $-1 $277 -2.3625585895707848e-014 $201 5.8831490665631616 $197 $278 forward 7 unknown #
vertex $-1 $129 $279 #
straight-curve $-1 -0.16840721568112471 -22.034140407000457 6.6624428097181383 1 0 0 I I #
vertex $-1 $276 $280 #
straight-curve $-1 10.055095527264022 -25.574707834495157 1.9639510058765524 0 -0.60181501223851219 -0.79863551827123203 I I #
coedge $-1 $272 $131 $199 $276 forward $207 $-1 #
coedge $-1 $131 $281 $133 $210 reversed $207 $-1 #
loop $-1 $-1 $272 $192 #
straight-curve $-1 10.055095527264022 -25.574707834495172 33.887391803683492 0 0 -1 I I #
coedge $-1 $282 $133 $283 $284 forward $123 $-1 #
edge $-1 $135 10.055095527264022 $285 54.676961577196572 $206 $286 forward 7 unknown #
point $-1 10.055095527264022 -22.034140407000457 6.6624428097181383 #
point $-1 10.055095527264022 -25.574707834495172 6.6624428097181383 #
face $-1 $287 $288 $17 $-1 $289 forward single #
loop $-1 $-1 $290 $137 #
plane-surface $-1 -10.728724389988521 -112.9086349278964 67.774783607366984 1 0 0 0 0.79863551827123203 -0.60181501223851219 forward_v I I I I #
loop $-1 $-1 $291 $79 #
coedge $-1 $218 $140 $292 $293 forward $80 $-1 #
coedge $-1 $140 $217 $294 $295 reversed $80 $-1 #
coedge $-1 $296 $297 $140 $220 forward $288 $-1 #
edge $-1 $298 -34.420177056947743 $299 -30.879609629453029 $219 $300 forward 7 unknown #
edge $-1 $301 1 $301 0 $141 $-1 forward 7 unknown #
vertex $-1 $142 $302 #
ellipse-curve $-1 -6.5719604065380111 -20.922102299411744 2.1412116873834597 0 -0.79863551827123203 0.60181501223851219 1 0 0 1 I I #
point $-1 -5.5719604065380111 -23.804424120747825 4.3131969077973515 #
face $-1 $303 $152 $18 $-1 $304 forward single #
loop $-1 $-1 $305 $145 #
plane-surface $-1 10.055095527264022 -112.9086349278964 67.774783607366984 -1 0 0 0 -0.79863551827123203 0.60181501223851219 forward_v I I I I #
loop $-1 $-1 $306 $87 #
coedge $-1 $229 $229 $230 $307 forward $146 $-1 #
coedge $-1 $230 $230 $229 $307 reversed $148 $-1 #
coedge $-1 $231 $231 $149 $232 forward $236 $-1 #
edge $-1 $308 4.0335713934611979e-017 $308 6.2831853071796004 $231 $309 forward 7 unknown #
edge $-1 $310 1 $310 0 $150 $-1 forward 7 unknown #
vertex $-1 $151 $311 #
ellipse-curve $-1 -0.33681443136224942 -20.922102299411744 2.1412116873834597 0 -0.79863551827123203 0.60181501223851219 1 0 0 1 I I #
loop $-1 $312 $231 $225 #
point $-1 0.66318556863775058 -23.804424120747825 4.3131969077973515 #
face $-1 $313 $314 $19 $-1 $315 reversed single #
loop $-1 $316 $317 $155 #
cone-surface $-1 -6.5719604065380111 -22.363263210079783 3.2272042975904052 0 0.79863551827123203 -0.60181501223851219 1 0 0 1 I I 0 1 1 forward I I I I #
loop $-1 $-1 $318 $95 #
coedge $-1 $242 $242 $243 $319 forward $156 $-1 #
coedge $-1 $243 $243 $242 $319 reversed $158 $-1 #
coedge $-1 $244 $244 $159 $245 forward $249 $-1 #
edge $-1 $320 4.0335713934611979e-017 $320 6.2831853071796004 $244 $321 forward 7 unknown #
edge $-1 $322 1 $322 0 $160 $-1 forward 7 unknown #
vertex $-1 $161 $323 #
ellipse-curve $-1 5.8983315438135122 -20.922102299411744 2.1412116873834597 0 -0.79863551827123203 0.60181501223851219 1 0 0 1 I I #
loop $-1 $324 $244 $250 #
face $-1 $325 $162 $19 $-1 $326 forward single #
point $-1 6.8983315438135122 -23.804424120747825 4.3131969077973515 #
plane-surface $-1 54.676961577196572 0 0 -1 0 0 0 0 1 forward_v I I I I #
coedge $-1 $170 $168 $172 $257 reversed $104 $-1 #
edge $-1 $183 -6.6624428097181383 $259 6.6624428097181383 $182 $327 forward 7 unknown #
vertex $-1 $257 $328 #
straight-curve $-1 -54.676961577196572 -25.574707834495172 0 0 0 -1 I I #
edge $-1 $255 -25.574707834495172 $259 25.574707834495172 $253 $329 forward 7 unknown #
straight-curve $-1 0 -25.574707834495172 -6.6624428097181383 -1 0 0 I I #
vertex $-1 $175 $330 #
straight-curve $-1 0 25.574707834495172 -6.6624428097181383 1 0 0 I I #
point $-1 54.676961577196572 25.574707834495172 -6.6624428097181383 #
point $-1 54.676961577196572 -25.574707834495172 -6.6624428097181383 #
straight-curve $-1 -54.676961577196572 0 6.6624428097181383 0 -1 0 I I #
point $-1 -54.676961577196572 25.574707834495172 6.6624428097181383 #
point $-1 -54.676961577196572 -25.574707834495172 6.6624428097181383 #
straight-curve $-1 54.676961577196572 -25.574707834495172 0 0 0 -1 I I #
straight-curve $-1 54.676961577196572 25.574707834495172 0 0 0 -1 I I #
face $-1 $331 $332 $16 $-1 $333 reversed single #
plane-surface $-1 0 -25.574707834495172 0 0 1 0 0 0 1 forward_v I I I I #
coedge $-1 $334 $335 $336 $337 forward $193 $-1 #
coedge $-1 $195 $338 $339 $340 forward $123 $-1 #
coedge $-1 $339 $205 $196 $273 forward $207 $-1 #
edge $-1 $277 -31.923440797806958 $274 -27.224948993965356 $272 $341 forward 7 unknown #
vertex $-1 $273 $342 #
straight-curve $-1 -10.728724389988521 -56.4543174639482 6.6624428097181365 0 1 0 I I #
edge $-1 $203 -10.223502742945147 $277 10.560317174307396 $205 $343 forward 7 unknown #
vertex $-1 $276 $344 #
straight-curve $-1 -10.728724389988521 -25.574707834495157 1.9639510058765524 0 0.60181501223851219 0.79863551827123203 I I #
point $-1 -10.728724389988521 -22.034140407000457 6.6624428097181383 #
point $-1 10.055095527264022 -25.574707834495172 1.9639510058765335 #
coedge $-1 $206 $345 $346 $347 reversed $207 $-1 #
coedge $-1 $338 $209 $348 $349 forward $123 $-1 #
coedge $-1 $346 $350 $209 $284 reversed $351 $-1 #
edge $-1 $285 -25.574707834495172 $352 25.574707834495172 $283 $353 forward 7 unknown #
vertex $-1 $284 $354 #
straight-curve $-1 0 -25.574707834495172 6.6624428097181383 1 0 0 I I #
face $-1 $355 $356 $17 $-1 $357 reversed single #
loop $-1 $-1 $358 $213 #
plane-surface $-1 0 0 6.6624428097181383 0 0 1 1 0 0 forward_v I I I I #
coedge $-1 $359 $360 $358 $361 reversed $214 $-1 #
coedge $-1 $362 $292 $297 $363 reversed $216 $-1 #
coedge $-1 $291 $364 $217 $293 reversed $216 $-1 #
edge $-1 $298 -5.8831490665631616 $365 2.3625585895707848e-014 $217 $366 forward 7 unknown #
coedge $-1 $367 $368 $218 $295 forward $369 $-1 #
edge $-1 $299 27.224948993965356 $365 31.923440797806958 $294 $370 forward 7 unknown #
coedge $-1 $371 $219 $368 $372 forward $288 $-1 #
coedge $-1 $219 $358 $291 $363 forward $288 $-1 #
vertex $-1 $363 $373 #
vertex $-1 $372 $374 #
straight-curve $-1 10.055095527264022 -56.4543174639482 6.6624428097181365 0 -1 0 I I #
vertex $-1 $221 $375 #
point $-1 -5.5719604065380111 -20.922102299411744 2.1412116873834597 #
face $-1 $376 $377 $18 $-1 $378 forward single #
plane-surface $-1 -0.33681443136224942 -25.574707834495157 1.9639510058765524 0 -0.79863551827123203 0.60181501223851219 1 0 0 forward_v I I I I #
coedge $-1 $379 $380 $381 $382 reversed $226 $-1 #
coedge $-1 $306 $306 $-1 $383 forward $228 $-1 #
edge $-1 $384 0 $384 6.2831853071796004 $229 $385 forward 7 unknown #
vertex $-1 $232 $386 #
ellipse-curve $-1 -6.5719604065380111 -23.804424120747811 4.3131969077973409 0 0.79863551827123203 -0.60181501223851219 1 0 0 1 I I #
vertex $-1 $233 $387 #
point $-1 0.66318556863775058 -20.922102299411744 2.1412116873834597 #
loop $-1 $-1 $388 $225 #
face $-1 $250 $389 $19 $-1 $390 forward single #
loop $-1 $391 $392 $238 #
cone-surface $-1 -6.5719604065380111 -20.522784540276128 1.8403041812642034 0 0.79863551827123203 -0.60181501223851219 0.5 0 0 1 I I -0.70710678118654746 0.70710678118654746 0.5 forward I I I I #
loop $-1 $-1 $393 $155 #
coedge $-1 $317 $317 $394 $395 reversed $239 $-1 #
coedge $-1 $318 $318 $-1 $396 forward $241 $-1 #
edge $-1 $397 0 $397 6.2831853071796004 $242 $398 forward 7 unknown #
vertex $-1 $245 $399 #
ellipse-curve $-1 -0.33681443136224942 -23.804424120747811 4.3131969077973409 0 0.79863551827123203 -0.60181501223851219 1 0 0 1 I I #
vertex $-1 $246 $400 #
point $-1 6.8983315438135122 -20.922102299411744 2.1412116873834597 #
loop $-1 $401 $394 $250 #
face $-1 $402 $403 $19 $-1 $404 forward single #
plane-surface $-1 -0.33681443136224942 -25.574707834495157 1.9639510058765524 0 -0.79863551827123203 0.60181501223851219 1 0 0 forward_v I I I I #
straight-curve $-1 -54.676961577196572 25.574707834495172 0 0 0 -1 I I #
point $-1 -54.676961577196572 -25.574707834495172 -6.6624428097181383 #
straight-curve $-1 -54.676961577196572 0 -6.6624428097181383 0 1 0 I I #
point $-1 -54.676961577196572 25.574707834495172 -6.6624428097181383 #
face $-1 $405 $406 $16 $-1 $407 reversed single #
loop $-1 $-1 $408 $268 #
plane-surface $-1 -54.676961577196572 0 0 1 0 0 0 0 -1 forward_v I I I I #
coedge $-1 $409 $270 $345 $410 forward $193 $-1 #
coedge $-1 $270 $409 $411 $412 forward $193 $-1 #
coedge $-1 $350 $346 $270 $337 reversed $351 $-1 #
edge $-1 $413 -25.574707834495172 $414 25.574707834495172 $336 $415 forward 7 unknown #
coedge $-1 $271 $282 $416 $417 forward $123 $-1 #
coedge $-1 $418 $272 $271 $340 reversed $207 $-1 #
edge $-1 $419 -54.676961577196572 $274 -10.728724389988521 $339 $286 forward 7 unknown #
straight-curve $-1 -10.728724389988521 -25.574707834495172 33.887391803683492 0 0 1 I I #
point $-1 -10.728724389988521 -25.574707834495172 6.6624428097181383 #
straight-curve $-1 -0.16840721568112471 -25.574707834495172 1.9639510058765333 -1 0 0 I I #
point $-1 -10.728724389988521 -25.574707834495172 1.9639510058765335 #
coedge $-1 $281 $418 $334 $410 reversed $207 $-1 #
coedge $-1 $336 $283 $281 $347 forward $351 $-1 #
edge $-1 $285 -6.6624428097181383 $414 6.6624428097181383 $346 $420 forward 7 unknown #
coedge $-1 $421 $422 $282 $349 reversed $406 $-1 #
edge $-1 $352 -54.676961577196572 $423 54.676961577196572 $348 $424 forward 7 unknown #
coedge $-1 $283 $336 $421 $425 reversed $351 $-1 #
loop $-1 $-1 $346 $405 #
vertex $-1 $284 $426 #
straight-curve $-1 54.676961577196572 0 6.6624428097181383 0 1 0 I I #
point $-1 54.676961577196572 -25.574707834495172 6.6624428097181383 #
face $-1 $427 $369 $17 $-1 $428 reversed single #
loop $-1 $-1 $429 $287 #
plane-surface $-1 0 0 -6.6624428097181383 0 0 1 1 0 0 forward_v I I I I #
coedge $-1 $297 $430 $290 $361 forward $288 $-1 #
coedge $-1 $360 $290 $431 $432 reversed $214 $-1 #
coedge $-1 $290 $359 $362 $433 forward $214 $-1 #
edge $-1 $434 30.879609629453029 $435 34.420177056947743 $358 $436 forward 7 unknown #
coedge $-1 $364 $291 $360 $433 reversed $216 $-1 #
edge $-1 $435 -10.560317174307396 $298 10.223502742945147 $297 $437 forward 7 unknown #
coedge $-1 $292 $362 $367 $438 reversed $216 $-1 #
vertex $-1 $438 $439 #
straight-curve $-1 10.055095527264022 -25.574707834495157 1.9639510058765524 0 -0.60181501223851219 -0.79863551827123203 I I #
coedge $-1 $431 $294 $364 $438 forward $369 $-1 #
coedge $-1 $294 $440 $296 $372 reversed $369 $-1 #
loop $-1 $-1 $431 $355 #
straight-curve $-1 10.055095527264022 -25.574707834495172 33.887391803683492 0 0 -1 I I #
coedge $-1 $441 $296 $442 $443 forward $288 $-1 #
edge $-1 $299 10.055095527264022 $444 54.676961577196572 $368 $445 forward 7 unknown #
point $-1 10.055095527264022 -22.034140407000457 6.6624428097181383 #
point $-1 10.055095527264022 -25.574707834495172 6.6624428097181383 #
point $-1 -6.5719604065380111 -20.123466781140511 1.5393966751449473 #
face $-1 $446 $447 $18 $-1 $448 forward single #
loop $-1 $-1 $449 $303 #
plane-surface $-1 -10.728724389988521 -112.9086349278964 67.774783607366984 1 0 0 0 0.79863551827123203 -0.60181501223851219 forward_v I I I I #
coedge $-1 $380 $305 $450 $451 forward $226 $-1 #
coedge $-1 $305 $379 $452 $453 reversed $226 $-1 #
coedge $-1 $454 $455 $305 $382 forward $447 $-1 #
edge $-1 $456 -34.420177056947743 $457 -30.879609629453029 $381 $458 forward 7 unknown #
edge $-1 $459 1 $459 0 $306 $-1 forward 7 unknown #
vertex $-1 $307 $460 #
ellipse-curve $-1 -6.5719604065380111 -20.922102299411744 2.1412116873834597 0 -0.79863551827123203 0.60181501223851219 1 0 0 1 I I #
point $-1 -5.5719604065380111 -23.804424120747825 4.3131969077973515 #
point $-1 -0.33681443136224942 -20.123466781140511 1.5393966751449473 #
coedge $-1 $461 $450 $455 $462 reversed $312 $-1 #
loop $-1 $-1 $463 $313 #
plane-surface $-1 10.055095527264022 -112.9086349278964 67.774783607366984 -1 0 0 0 -0.79863551827123203 0.60181501223851219 forward_v I I I I #
loop $-1 $-1 $464 $238 #
coedge $-1 $392 $392 $393 $465 forward $314 $-1 #
coedge $-1 $393 $393 $392 $465 reversed $316 $-1 #
coedge $-1 $394 $394 $317 $395 forward $324 $-1 #
edge $-1 $466 4.0335713934611979e-017 $466 6.2831853071796004 $394 $467 forward 7 unknown #
edge $-1 $468 1 $468 0 $318 $-1 forward 7 unknown #
vertex $-1 $319 $469 #
ellipse-curve $-1 -0.33681443136224942 -20.922102299411744 2.1412116873834597 0 -0.79863551827123203 0.60181501223851219 1 0 0 1 I I #
point $-1 0.66318556863775058 -23.804424120747825 4.3131969077973515 #
point $-1 5.8983315438135122 -20.123466781140511 1.5393966751449473 #
loop $-1 $-1 $470 $250 #
face $-1 $471 $472 $19 $-1 $473 forward single #
loop $-1 $-1 $474 $325 #
plane-surface $-1 -10.728724389988521 -112.9086349278964 67.774783607366984 1 0 0 0 0.79863551827123203 -0.60181501223851219 forward_v I I I I #
face $-1 $-1 $351 $16 $-1 $475 reversed single #
loop $-1 $-1 $421 $331 #
plane-surface $-1 0 25.574707834495172 0 0 -1 0 0 0 -1 forward_v I I I I #
coedge $-1 $476 $416 $422 $477 forward $332 $-1 #
coedge $-1 $335 $334 $476 $478 forward $193 $-1 #
edge $-1 $414 -54.676961577196572 $479 54.676961577196572 $345 $480 forward 7 unknown #
coedge $-1 $422 $421 $335 $412 reversed $406 $-1 #
edge $-1 $481 -54.676961577196572 $413 54.676961577196572 $411 $482 forward 7 unknown #
vertex $-1 $337 $483 #
vertex $-1 $347 $484 #
straight-curve $-1 54.676961577196572 0 -6.6624428097181383 0 -1 0 I I #
coedge $-1 $408 $485 $338 $417 reversed $332 $-1 #
edge $-1 $423 -25.574707834495172 $419 25.574707834495172 $416 $486 forward 7 unknown #
coedge $-1 $345 $339 $485 $487 forward $207 $-1 #
vertex $-1 $417 $488 #
straight-curve $-1 54.676961577196572 -25.574707834495172 0 0 0 -1 I I #
coedge $-1 $411 $348 $350 $425 forward $406 $-1 #
coedge $-1 $348 $411 $408 $477 reversed $406 $-1 #
vertex $-1 $349 $489 #
straight-curve $-1 0 25.574707834495172 6.6624428097181383 -1 0 0 I I #
edge $-1 $352 -6.6624428097181383 $413 6.6624428097181383 $350 $490 forward 7 unknown #
point $-1 54.676961577196572 25.574707834495172 6.6624428097181383 #
face $-1 $491 $492 $17 $-1 $493 reversed single #
plane-surface $-1 0 -25.574707834495172 0 0 1 0 0 0 1 forward_v I I I I #
coedge $-1 $494 $495 $496 $497 forward $356 $-1 #
coedge $-1 $358 $498 $499 $500 forward $288 $-1 #
coedge $-1 $499 $367 $359 $432 forward $369 $-1 #
edge $-1 $501 -31.923440797806958 $434 -27.224948993965356 $431 $502 forward 7 unknown #
edge $-1 $501 -2.3625585895707848e-014 $435 5.8831490665631616 $360 $503 forward 7 unknown #
vertex $-1 $432 $504 #
vertex $-1 $363 $505 #
straight-curve $-1 -10.728724389988521 -56.4543174639482 6.6624428097181365 0 1 0 I I #
straight-curve $-1 -0.16840721568112471 -22.034140407000457 6.6624428097181383 1 0 0 I I #
edge $-1 $365 -10.223502742945147 $501 10.560317174307396 $367 $506 forward 7 unknown #
point $-1 10.055095527264022 -25.574707834495172 1.9639510058765335 #
coedge $-1 $368 $507 $508 $509 reversed $369 $-1 #
coedge $-1 $498 $371 $510 $511 forward $288 $-1 #
coedge $-1 $508 $512 $371 $443 reversed $513 $-1 #
edge $-1 $444 -25.574707834495172 $514 25.574707834495172 $442 $515 forward 7 unknown #
vertex $-1 $443 $516 #
straight-curve $-1 0 -25.574707834495172 6.6624428097181383 1 0 0 I I #
face $-1 $517 $518 $18 $-1 $519 reversed single #
loop $-1 $-1 $520 $376 #
plane-surface $-1 0 0 6.6624428097181383 0 0 1 1 0 0 forward_v I I I I #
coedge $-1 $521 $522 $520 $523 reversed $377 $-1 #
coedge $-1 $388 $524 $379 $451 reversed $312 $-1 #
edge $-1 $456 -5.8831490665631616 $525 2.3625585895707848e-014 $379 $526 forward 7 unknown #
coedge $-1 $527 $528 $380 $453 forward $529 $-1 #
edge $-1 $457 27.224948993965356 $525 31.923440797806958 $452 $530 forward 7 unknown #
coedge $-1 $531 $381 $528 $532 forward $447 $-1 #
coedge $-1 $381 $520 $388 $462 forward $447 $-1 #
vertex $-1 $462 $533 #
vertex $-1 $532 $534 #
straight-curve $-1 10.055095527264022 -56.4543174639482 6.6624428097181365 0 -1 0 I I #
vertex $-1 $383 $535 #
point $-1 -5.5719604065380111 -20.922102299411744 2.1412116873834597 #
coedge $-1 $524 $388 $522 $536 reversed $312 $-1 #
edge $-1 $537 -10.560317174307396 $456 10.223502742945147 $455 $538 forward 7 unknown #
coedge $-1 $539 $540 $541 $542 reversed $389 $-1 #
coedge $-1 $464 $464 $-1 $543 forward $391 $-1 #
edge $-1 $544 0 $544 6.2831853071796004 $392 $545 forward 7 unknown #
vertex $-1 $395 $546 #
ellipse-curve $-1 -6.5719604065380111 -23.804424120747811 4.3131969077973409 0 0.79863551827123203 -0.60181501223851219 1 0 0 1 I I #
vertex $-1 $396 $547 #
point $-1 0.66318556863775058 -20.922102299411744 2.1412116873834597 #
coedge $-1 $548 $549 $550 $551 reversed $401 $-1 #
face $-1 $552 $553 $19 $-1 $554 reversed single #
loop $-1 $-1 $555 $402 #
plane-surface $-1 0 0 6.6624428097181383 0 0 1 1 0 0 forward_v I I I I #
coedge $-1 $556 $557 $555 $558 reversed $403 $-1 #
plane-surface $-1 54.676961577196572 0 0 -1 0 0 0 0 1 forward_v I I I I #
coedge $-1 $485 $408 $409 $478 reversed $332 $-1 #
edge $-1 $423 -6.6624428097181383 $481 6.6624428097181383 $422 $559 forward 7 unknown #
edge $-1 $479 -25.574707834495172 $481 25.574707834495172 $476 $560 forward 7 unknown #
vertex $-1 $478 $561 #
straight-curve $-1 0 -25.574707834495172 -6.6624428097181383 -1 0 0 I I #
vertex $-1 $412 $562 #
straight-curve $-1 0 25.574707834495172 -6.6624428097181383 1 0 0 I I #
point $-1 54.676961577196572 25.574707834495172 -6.6624428097181383 #
point $-1 54.676961577196572 -25.574707834495172 -6.6624428097181383 #
coedge $-1 $416 $476 $418 $487 reversed $332 $-1 #
straight-curve $-1 -54.676961577196572 0 6.6624428097181383 0 -1 0 I I #
edge $-1 $419 -6.6624428097181383 $479 6.6624428097181383 $485 $563 forward 7 unknown #
point $-1 -54.676961577196572 -25.574707834495172 6.6624428097181383 #
point $-1 -54.676961577196572 25.574707834495172 6.6624428097181383 #
straight-curve $-1 54.676961577196572 25.574707834495172 0 0 0 -1 I I #
face $-1 $564 $565 $17 $-1 $566 reversed single #
loop $-1 $-1 $567 $427 #
plane-surface $-1 -54.676961577196572 0 0 1 0 0 0 0 -1 forward_v I I I I #
coedge $-1 $568 $429 $507 $569 forward $356 $-1 #
coedge $-1 $429 $568 $570 $571 forward $356 $-1 #
coedge $-1 $512 $508 $429 $497 reversed $513 $-1 #
edge $-1 $572 -25.574707834495172 $573 25.574707834495172 $496 $574 forward 7 unknown #
coedge $-1 $430 $441 $575 $576 forward $288 $-1 #
coedge $-1 $577 $431 $430 $500 reversed $369 $-1 #
edge $-1 $578 -54.676961577196572 $434 -10.728724389988521 $499 $445 forward 7 unknown #
vertex $-1 $438 $579 #
straight-curve $-1 -10.728724389988521 -25.574707834495172 33.887391803683492 0 0 1 I I #
straight-curve $-1 -10.728724389988521 -25.574707834495157 1.9639510058765524 0 0.60181501223851219 0.79863551827123203 I I #
point $-1 -10.728724389988521 -25.574707834495172 6.6624428097181383 #
point $-1 -10.728724389988521 -22.034140407000457 6.6624428097181383 #
straight-curve $-1 -0.16840721568112471 -25.574707834495172 1.9639510058765333 -1 0 0 I I #
coedge $-1 $440 $577 $494 $569 reversed $369 $-1 #
coedge $-1 $496 $442 $440 $509 forward $513 $-1 #
edge $-1 $444 -6.6624428097181383 $573 6.6624428097181383 $508 $580 forward 7 unknown #
coedge $-1 $581 $582 $441 $511 reversed $565 $-1 #
edge $-1 $514 -54.676961577196572 $583 54.676961577196572 $510 $584 forward 7 unknown #
coedge $-1 $442 $496 $581 $585 reversed $513 $-1 #
loop $-1 $-1 $508 $564 #
vertex $-1 $443 $586 #
straight-curve $-1 54.676961577196572 0 6.6624428097181383 0 1 0 I I #
point $-1 54.676961577196572 -25.574707834495172 6.6624428097181383 #
face $-1 $587 $529 $18 $-1 $588 reversed single #
loop $-1 $-1 $589 $446 #
plane-surface $-1 0 0 -6.6624428097181383 0 0 1 1 0 0 forward_v I I I I #
coedge $-1 $455 $590 $449 $523 forward $447 $-1 #
coedge $-1 $522 $449 $591 $592 reversed $377 $-1 #
coedge $-1 $449 $521 $461 $536 forward $377 $-1 #
edge $-1 $593 30.879609629453029 $537 34.420177056947743 $520 $594 forward 7 unknown #
coedge $-1 $450 $461 $527 $595 reversed $312 $-1 #
vertex $-1 $595 $596 #
straight-curve $-1 10.055095527264022 -25.574707834495157 1.9639510058765524 0 -0.60181501223851219 -0.79863551827123203 I I #
coedge $-1 $591 $452 $524 $595 forward $529 $-1 #
coedge $-1 $452 $597 $454 $532 reversed $529 $-1 #
loop $-1 $-1 $591 $517 #
straight-curve $-1 10.055095527264022 -25.574707834495172 33.887391803683492 0 0 -1 I I #
coedge $-1 $598 $454 $599 $600 forward $447 $-1 #
edge $-1 $457 10.055095527264022 $601 54.676961577196572 $528 $602 forward 7 unknown #
point $-1 10.055095527264022 -22.034140407000457 6.6624428097181383 #
point $-1 10.055095527264022 -25.574707834495172 6.6624428097181383 #
point $-1 -6.5719604065380111 -20.123466781140511 1.5393966751449473 #
edge $-1 $603 -2.3625585895707848e-014 $537 5.8831490665631616 $522 $604 forward 7 unknown #
vertex $-1 $462 $605 #
straight-curve $-1 -0.16840721568112471 -22.034140407000457 6.6624428097181383 1 0 0 I I #
coedge $-1 $540 $463 $549 $606 forward $389 $-1 #
coedge $-1 $463 $539 $607 $608 reversed $389 $-1 #
coedge $-1 $609 $550 $463 $542 forward $472 $-1 #
edge $-1 $610 -34.420177056947743 $611 -30.879609629453029 $541 $612 forward 7 unknown #
edge $-1 $613 1 $613 0 $464 $-1 forward 7 unknown #
vertex $-1 $465 $614 #
ellipse-curve $-1 -6.5719604065380111 -20.922102299411744 2.1412116873834597 0 -0.79863551827123203 0.60181501223851219 1 0 0 1 I I #
point $-1 -5.5719604065380111 -23.804424120747825 4.3131969077973515 #
point $-1 -0.33681443136224942 -20.123466781140511 1.5393966751449473 #
coedge $-1 $615 $470 $557 $616 reversed $401 $-1 #
coedge $-1 $470 $615 $539 $606 reversed $401 $-1 #
coedge $-1 $541 $555 $470 $551 forward $472 $-1 #
edge $-1 $617 -10.560317174307396 $610 10.223502742945147 $550 $618 forward 7 unknown #
face $-1 $619 $620 $19 $-1 $621 reversed single #
loop $-1 $-1 $622 $471 #
plane-surface $-1 0 0 -6.6624428097181383 0 0 1 1 0 0 forward_v I I I I #
coedge $-1 $550 $623 $474 $558 forward $472 $-1 #
coedge $-1 $557 $474 $624 $625 reversed $403 $-1 #
coedge $-1 $474 $556 $548 $616 forward $403 $-1 #
edge $-1 $626 30.879609629453029 $617 34.420177056947743 $555 $627 forward 7 unknown #
straight-curve $-1 -54.676961577196572 25.574707834495172 0 0 0 -1 I I #
straight-curve $-1 -54.676961577196572 0 -6.6624428097181383 0 1 0 I I #
point $-1 -54.676961577196572 -25.574707834495172 -6.6624428097181383 #
point $-1 -54.676961577196572 25.574707834495172 -6.6624428097181383 #
straight-curve $-1 -54.676961577196572 -25.574707834495172 0 0 0 -1 I I #
face $-1 $-1 $513 $17 $-1 $628 reversed single #
loop $-1 $-1 $581 $491 #
plane-surface $-1 0 25.574707834495172 0 0 -1 0 0 0 -1 forward_v I I I I #
coedge $-1 $629 $575 $582 $630 forward $492 $-1 #
coedge $-1 $495 $494 $629 $631 forward $356 $-1 #
edge $-1 $573 -54.676961577196572 $632 54.676961577196572 $507 $633 forward 7 unknown #
coedge $-1 $582 $581 $495 $571 reversed $565 $-1 #
edge $-1 $634 -54.676961577196572 $572 54.676961577196572 $570 $635 forward 7 unknown #
vertex $-1 $497 $636 #
vertex $-1 $509 $637 #
straight-curve $-1 54.676961577196572 0 -6.6624428097181383 0 -1 0 I I #
coedge $-1 $567 $638 $498 $576 reversed $492 $-1 #
edge $-1 $583 -25.574707834495172 $578 25.574707834495172 $575 $639 forward 7 unknown #
coedge $-1 $507 $499 $638 $640 forward $369 $-1 #
vertex $-1 $576 $641 #
point $-1 -10.728724389988521 -25.574707834495172 1.9639510058765335 #
straight-curve $-1 54.676961577196572 -25.574707834495172 0 0 0 -1 I I #
coedge $-1 $570 $510 $512 $585 forward $565 $-1 #
coedge $-1 $510 $570 $567 $630 reversed $565 $-1 #
vertex $-1 $511 $642 #
straight-curve $-1 0 25.574707834495172 6.6624428097181383 -1 0 0 I I #
edge $-1 $514 -6.6624428097181383 $572 6.6624428097181383 $512 $643 forward 7 unknown #
point $-1 54.676961577196572 25.574707834495172 6.6624428097181383 #
face $-1 $644 $645 $18 $-1 $646 reversed single #
plane-surface $-1 0 -25.574707834495172 0 0 1 0 0 0 1 forward_v I I I I #
coedge $-1 $647 $648 $649 $650 forward $518 $-1 #
coedge $-1 $520 $651 $652 $653 forward $447 $-1 #
coedge $-1 $652 $527 $521 $592 forward $529 $-1 #
edge $-1 $603 -31.923440797806958 $593 -27.224948993965356 $591 $654 forward 7 unknown #
vertex $-1 $592 $655 #
straight-curve $-1 -10.728724389988521 -56.4543174639482 6.6624428097181365 0 1 0 I I #
edge $-1 $525 -10.223502742945147 $603 10.560317174307396 $527 $656 forward 7 unknown #
point $-1 10.055095527264022 -25.574707834495172 1.9639510058765335 #
coedge $-1 $528 $657 $658 $659 reversed $529 $-1 #
coedge $-1 $651 $531 $660 $661 forward $447 $-1 #
coedge $-1 $658 $662 $531 $600 reversed $663 $-1 #
edge $-1 $601 -25.574707834495172 $664 25.574707834495172 $599 $665 forward 7 unknown #
vertex $-1 $600 $666 #
straight-curve $-1 0 -25.574707834495172 6.6624428097181383 1 0 0 I I #
vertex $-1 $595 $667 #
straight-curve $-1 -10.728724389988521 -25.574707834495157 1.9639510058765524 0 0.60181501223851219 0.79863551827123203 I I #
point $-1 -10.728724389988521 -22.034140407000457 6.6624428097181383 #
edge $-1 $610 -5.8831490665631616 $668 2.3625585895707848e-014 $539 $669 forward 7 unknown #
coedge $-1 $670 $671 $540 $608 forward $620 $-1 #
edge $-1 $611 27.224948993965356 $668 31.923440797806958 $607 $672 forward 7 unknown #
coedge $-1 $673 $541 $671 $674 forward $472 $-1 #
vertex $-1 $551 $675 #
vertex $-1 $674 $676 #
straight-curve $-1 10.055095527264022 -56.4543174639482 6.6624428097181365 0 -1 0 I I #
vertex $-1 $543 $677 #
point $-1 -5.5719604065380111 -20.922102299411744 2.1412116873834597 #
coedge $-1 $549 $548 $670 $678 reversed $401 $-1 #
edge $-1 $679 -2.3625585895707848e-014 $617 5.8831490665631616 $557 $680 forward 7 unknown #
vertex $-1 $551 $681 #
straight-curve $-1 -0.16840721568112471 -22.034140407000457 6.6624428097181383 1 0 0 I I #
face $-1 $682 $683 $19 $-1 $684 reversed single #
loop $-1 $-1 $624 $552 #
plane-surface $-1 0 -25.574707834495172 0 0 1 0 0 0 1 forward_v I I I I #
coedge $-1 $685 $686 $687 $688 forward $553 $-1 #
coedge $-1 $555 $689 $690 $691 forward $472 $-1 #
coedge $-1 $690 $670 $556 $625 forward $620 $-1 #
edge $-1 $679 -31.923440797806958 $626 -27.224948993965356 $624 $692 forward 7 unknown #
vertex $-1 $625 $693 #
straight-curve $-1 -10.728724389988521 -56.4543174639482 6.6624428097181365 0 1 0 I I #
plane-surface $-1 54.676961577196572 0 0 -1 0 0 0 0 1 forward_v I I I I #
coedge $-1 $638 $567 $568 $631 reversed $492 $-1 #
edge $-1 $583 -6.6624428097181383 $634 6.6624428097181383 $582 $694 forward 7 unknown #
edge $-1 $632 -25.574707834495172 $634 25.574707834495172 $629 $695 forward 7 unknown #
vertex $-1 $631 $696 #
straight-curve $-1 0 -25.574707834495172 -6.6624428097181383 -1 0 0 I I #
vertex $-1 $571 $697 #
straight-curve $-1 0 25.574707834495172 -6.6624428097181383 1 0 0 I I #
point $-1 54.676961577196572 25.574707834495172 -6.6624428097181383 #
point $-1 54.676961577196572 -25.574707834495172 -6.6624428097181383 #
coedge $-1 $575 $629 $577 $640 reversed $492 $-1 #
straight-curve $-1 -54.676961577196572 0 6.6624428097181383 0 -1 0 I I #
edge $-1 $578 -6.6624428097181383 $632 6.6624428097181383 $638 $698 forward 7 unknown #
point $-1 -54.676961577196572 -25.574707834495172 6.6624428097181383 #
point $-1 -54.676961577196572 25.574707834495172 6.6624428097181383 #
straight-curve $-1 54.676961577196572 25.574707834495172 0 0 0 -1 I I #
face $-1 $699 $700 $18 $-1 $701 reversed single #
loop $-1 $-1 $702 $587 #
plane-surface $-1 -54.676961577196572 0 0 1 0 0 0 0 -1 forward_v I I I I #
coedge $-1 $703 $589 $657 $704 forward $518 $-1 #
coedge $-1 $589 $703 $705 $706 forward $518 $-1 #
coedge $-1 $662 $658 $589 $650 reversed $663 $-1 #
edge $-1 $707 -25.574707834495172 $708 25.574707834495172 $649 $709 forward 7 unknown #
coedge $-1 $590 $598 $710 $711 forward $447 $-1 #
coedge $-1 $712 $591 $590 $653 reversed $529 $-1 #
edge $-1 $713 -54.676961577196572 $593 -10.728724389988521 $652 $602 forward 7 unknown #
straight-curve $-1 -10.728724389988521 -25.574707834495172 33.887391803683492 0 0 1 I I #
point $-1 -10.728724389988521 -25.574707834495172 6.6624428097181383 #
straight-curve $-1 -0.16840721568112471 -25.574707834495172 1.9639510058765333 -1 0 0 I I #
coedge $-1 $597 $712 $647 $704 reversed $529 $-1 #
coedge $-1 $649 $599 $597 $659 forward $663 $-1 #
edge $-1 $601 -6.6624428097181383 $708 6.6624428097181383 $658 $714 forward 7 unknown #
coedge $-1 $715 $716 $598 $661 reversed $700 $-1 #
edge $-1 $664 -54.676961577196572 $717 54.676961577196572 $660 $718 forward 7 unknown #
coedge $-1 $599 $649 $715 $719 reversed $663 $-1 #
loop $-1 $-1 $658 $699 #
vertex $-1 $600 $720 #
straight-curve $-1 54.676961577196572 0 6.6624428097181383 0 1 0 I I #
point $-1 54.676961577196572 -25.574707834495172 6.6624428097181383 #
point $-1 -10.728724389988521 -25.574707834495172 1.9639510058765335 #
vertex $-1 $678 $721 #
straight-curve $-1 10.055095527264022 -25.574707834495157 1.9639510058765524 0 -0.60181501223851219 -0.79863551827123203 I I #
coedge $-1 $624 $607 $615 $678 forward $620 $-1 #
coedge $-1 $607 $722 $609 $674 reversed $620 $-1 #
straight-curve $-1 10.055095527264022 -25.574707834495172 33.887391803683492 0 0 -1 I I #
coedge $-1 $723 $609 $724 $725 forward $472 $-1 #
edge $-1 $611 10.055095527264022 $726 54.676961577196572 $671 $727 forward 7 unknown #
point $-1 10.055095527264022 -22.034140407000457 6.6624428097181383 #
point $-1 10.055095527264022 -25.574707834495172 6.6624428097181383 #
point $-1 -6.5719604065380111 -20.123466781140511 1.5393966751449473 #
edge $-1 $668 -10.223502742945147 $679 10.560317174307396 $670 $728 forward 7 unknown #
vertex $-1 $678 $729 #
straight-curve $-1 -10.728724389988521 -25.574707834495157 1.9639510058765524 0 0.60181501223851219 0.79863551827123203 I I #
point $-1 -10.728724389988521 -22.034140407000457 6.6624428097181383 #
face $-1 $730 $731 $19 $-1 $732 reversed single #
loop $-1 $-1 $733 $619 #
plane-surface $-1 -54.676961577196572 0 0 1 0 0 0 0 -1 forward_v I I I I #
coedge $-1 $734 $622 $735 $736 forward $553 $-1 #
coedge $-1 $622 $734 $737 $738 forward $553 $-1 #
coedge $-1 $739 $740 $622 $688 reversed $741 $-1 #
edge $-1 $742 -25.574707834495172 $743 25.574707834495172 $687 $744 forward 7 unknown #
coedge $-1 $623 $723 $745 $746 forward $472 $-1 #
coedge $-1 $747 $624 $623 $691 reversed $620 $-1 #
edge $-1 $748 -54.676961577196572 $626 -10.728724389988521 $690 $727 forward 7 unknown #
straight-curve $-1 -10.728724389988521 -25.574707834495172 33.887391803683492 0 0 1 I I #
point $-1 -10.728724389988521 -25.574707834495172 6.6624428097181383 #
straight-curve $-1 -54.676961577196572 25.574707834495172 0 0 0 -1 I I #
straight-curve $-1 -54.676961577196572 0 -6.6624428097181383 0 1 0 I I #
point $-1 -54.676961577196572 -25.574707834495172 -6.6624428097181383 #
point $-1 -54.676961577196572 25.574707834495172 -6.6624428097181383 #
straight-curve $-1 -54.676961577196572 -25.574707834495172 0 0 0 -1 I I #
face $-1 $-1 $663 $18 $-1 $749 reversed single #
loop $-1 $-1 $715 $644 #
plane-surface $-1 0 25.574707834495172 0 0 -1 0 0 0 -1 forward_v I I I I #
coedge $-1 $750 $710 $716 $751 forward $645 $-1 #
coedge $-1 $648 $647 $750 $752 forward $518 $-1 #
edge $-1 $708 -54.676961577196572 $753 54.676961577196572 $657 $754 forward 7 unknown #
coedge $-1 $716 $715 $648 $706 reversed $700 $-1 #
edge $-1 $755 -54.676961577196572 $707 54.676961577196572 $705 $756 forward 7 unknown #
vertex $-1 $650 $757 #
vertex $-1 $659 $758 #
straight-curve $-1 54.676961577196572 0 -6.6624428097181383 0 -1 0 I I #
coedge $-1 $702 $759 $651 $711 reversed $645 $-1 #
edge $-1 $717 -25.574707834495172 $713 25.574707834495172 $710 $760 forward 7 unknown #
coedge $-1 $657 $652 $759 $761 forward $529 $-1 #
vertex $-1 $711 $762 #
straight-curve $-1 54.676961577196572 -25.574707834495172 0 0 0 -1 I I #
coedge $-1 $705 $660 $662 $719 forward $700 $-1 #
coedge $-1 $660 $705 $702 $751 reversed $700 $-1 #
vertex $-1 $661 $763 #
straight-curve $-1 0 25.574707834495172 6.6624428097181383 -1 0 0 I I #
edge $-1 $664 -6.6624428097181383 $707 6.6624428097181383 $662 $764 forward 7 unknown #
point $-1 54.676961577196572 25.574707834495172 6.6624428097181383 #
point $-1 10.055095527264022 -25.574707834495172 1.9639510058765335 #
coedge $-1 $671 $735 $740 $765 reversed $620 $-1 #
coedge $-1 $689 $673 $766 $767 forward $472 $-1 #
coedge $-1 $740 $739 $673 $725 reversed $741 $-1 #
edge $-1 $726 -25.574707834495172 $768 25.574707834495172 $724 $769 forward 7 unknown #
vertex $-1 $725 $770 #
straight-curve $-1 0 -25.574707834495172 6.6624428097181383 1 0 0 I I #
straight-curve $-1 -0.16840721568112471 -25.574707834495172 1.9639510058765333 -1 0 0 I I #
point $-1 -10.728724389988521 -25.574707834495172 1.9639510058765335 #
face $-1 $-1 $741 $19 $-1 $771 reversed single #
loop $-1 $-1 $772 $682 #
plane-surface $-1 0 25.574707834495172 0 0 -1 0 0 0 -1 forward_v I I I I #
coedge $-1 $773 $745 $774 $775 forward $683 $-1 #
coedge $-1 $686 $685 $773 $776 forward $553 $-1 #
coedge $-1 $722 $747 $685 $736 reversed $620 $-1 #
edge $-1 $743 -54.676961577196572 $777 54.676961577196572 $735 $778 forward 7 unknown #
coedge $-1 $774 $772 $686 $738 reversed $731 $-1 #
edge $-1 $779 -54.676961577196572 $742 54.676961577196572 $737 $780 forward 7 unknown #
coedge $-1 $724 $687 $772 $781 reversed $741 $-1 #
coedge $-1 $687 $724 $722 $765 forward $741 $-1 #
loop $-1 $-1 $740 $730 #
vertex $-1 $688 $782 #
vertex $-1 $765 $783 #
straight-curve $-1 54.676961577196572 0 -6.6624428097181383 0 -1 0 I I #
coedge $-1 $733 $784 $689 $746 reversed $683 $-1 #
edge $-1 $785 -25.574707834495172 $748 25.574707834495172 $745 $786 forward 7 unknown #
coedge $-1 $735 $690 $784 $787 forward $620 $-1 #
vertex $-1 $746 $788 #
plane-surface $-1 54.676961577196572 0 0 -1 0 0 0 0 1 forward_v I I I I #
coedge $-1 $759 $702 $703 $752 reversed $645 $-1 #
edge $-1 $717 -6.6624428097181383 $755 6.6624428097181383 $716 $789 forward 7 unknown #
edge $-1 $753 -25.574707834495172 $755 25.574707834495172 $750 $790 forward 7 unknown #
vertex $-1 $752 $791 #
straight-curve $-1 0 -25.574707834495172 -6.6624428097181383 -1 0 0 I I #
vertex $-1 $706 $792 #
straight-curve $-1 0 25.574707834495172 -6.6624428097181383 1 0 0 I I #
point $-1 54.676961577196572 25.574707834495172 -6.6624428097181383 #
point $-1 54.676961577196572 -25.574707834495172 -6.6624428097181383 #
coedge $-1 $710 $750 $712 $761 reversed $645 $-1 #
straight-curve $-1 -54.676961577196572 0 6.6624428097181383 0 -1 0 I I #
edge $-1 $713 -6.6624428097181383 $753 6.6624428097181383 $759 $793 forward 7 unknown #
point $-1 -54.676961577196572 -25.574707834495172 6.6624428097181383 #
point $-1 -54.676961577196572 25.574707834495172 6.6624428097181383 #
straight-curve $-1 54.676961577196572 25.574707834495172 0 0 0 -1 I I #
edge $-1 $726 -6.6624428097181383 $743 6.6624428097181383 $740 $794 forward 7 unknown #
coedge $-1 $772 $774 $723 $767 reversed $731 $-1 #
edge $-1 $768 -54.676961577196572 $785 54.676961577196572 $766 $795 forward 7 unknown #
vertex $-1 $725 $796 #
straight-curve $-1 54.676961577196572 0 6.6624428097181383 0 1 0 I I #
point $-1 54.676961577196572 -25.574707834495172 6.6624428097181383 #
plane-surface $-1 54.676961577196572 0 0 -1 0 0 0 0 1 forward_v I I I I #
coedge $-1 $737 $766 $739 $781 forward $731 $-1 #
coedge $-1 $784 $733 $734 $776 reversed $683 $-1 #
coedge $-1 $766 $737 $733 $775 reversed $731 $-1 #
edge $-1 $785 -6.6624428097181383 $779 6.6624428097181383 $774 $797 forward 7 unknown #
edge $-1 $777 -25.574707834495172 $779 25.574707834495172 $773 $798 forward 7 unknown #
vertex $-1 $776 $799 #
straight-curve $-1 0 -25.574707834495172 -6.6624428097181383 -1 0 0 I I #
vertex $-1 $738 $800 #
straight-curve $-1 0 25.574707834495172 -6.6624428097181383 1 0 0 I I #
edge $-1 $768 -6.6624428097181383 $742 6.6624428097181383 $739 $801 forward 7 unknown #
point $-1 54.676961577196572 25.574707834495172 -6.6624428097181383 #
point $-1 54.676961577196572 -25.574707834495172 -6.6624428097181383 #
coedge $-1 $745 $773 $747 $787 reversed $683 $-1 #
vertex $-1 $767 $802 #
straight-curve $-1 -54.676961577196572 0 6.6624428097181383 0 -1 0 I I #
edge $-1 $748 -6.6624428097181383 $777 6.6624428097181383 $784 $803 forward 7 unknown #
point $-1 -54.676961577196572 -25.574707834495172 6.6624428097181383 #
straight-curve $-1 -54.676961577196572 25.574707834495172 0 0 0 -1 I I #
straight-curve $-1 -54.676961577196572 0 -6.6624428097181383 0 1 0 I I #
point $-1 -54.676961577196572 -25.574707834495172 -6.6624428097181383 #
point $-1 -54.676961577196572 25.574707834495172 -6.6624428097181383 #
straight-curve $-1 -54.676961577196572 -25.574707834495172 0 0 0 -1 I I #
straight-curve $-1 54.676961577196572 -25.574707834495172 0 0 0 -1 I I #
straight-curve $-1 0 25.574707834495172 6.6624428097181383 -1 0 0 I I #
point $-1 54.676961577196572 25.574707834495172 6.6624428097181383 #
straight-curve $-1 -54.676961577196572 25.574707834495172 0 0 0 -1 I I #
straight-curve $-1 -54.676961577196572 0 -6.6624428097181383 0 1 0 I I #
point $-1 -54.676961577196572 -25.574707834495172 -6.6624428097181383 #
point $-1 -54.676961577196572 25.574707834495172 -6.6624428097181383 #
straight-curve $-1 54.676961577196572 25.574707834495172 0 0 0 -1 I I #
point $-1 -54.676961577196572 25.574707834495172 6.6624428097181383 #
straight-curve $-1 -54.676961577196572 -25.574707834495172 0 0 0 -1 I I #
End-of-ACIS-data 