500 0 5 0           
7 Unknown 11 ACIS 5.0 NT 24 Fri Mar 26 17:38:02 1999 
-1 9.9999999999999995e-007 1e-010 
body $-1 $5 $-1 $6 #
body $-1 $7 $-1 $8 #
body $-1 $9 $-1 $10 #
body $-1 $11 $-1 $12 #
body $-1 $13 $-1 $14 #
lump $-1 $-1 $15 $0 #
transform $-1 1 0 0 0 1 0 0 0 1 72.566911832026122 49.247480345540161 23.953269852565438 1 rotate no_reflect no_shear #
lump $-1 $-1 $16 $1 #
transform $-1 1 0 0 0 1 0 0 0 1 72.566911832026122 49.247480345540161 23.953269852565438 1 rotate no_reflect no_shear #
lump $-1 $-1 $17 $2 #
transform $-1 1 0 0 0 1 0 0 0 1 72.566911832026122 49.247480345540161 23.953269852565438 1 rotate no_reflect no_shear #
lump $-1 $-1 $18 $3 #
transform $-1 1 0 0 0 1 0 0 0 1 72.566911832026122 49.247480345540161 23.953269852565438 1 rotate no_reflect no_shear #
lump $-1 $-1 $19 $4 #
transform $-1 1 0 0 0 1 0 0 0 1 72.566911832026122 49.247480345540161 23.953269852565438 1 rotate no_reflect no_shear #
shell $-1 $-1 $-1 $20 $-1 $5 #
shell $-1 $-1 $-1 $21 $-1 $7 #
shell $-1 $-1 $-1 $22 $-1 $9 #
shell $-1 $-1 $-1 $23 $-1 $11 #
shell $-1 $-1 $-1 $24 $-1 $13 #
face $-1 $25 $26 $15 $-1 $27 forward single #
face $-1 $28 $29 $16 $-1 $30 reversed single #
face $-1 $31 $32 $17 $-1 $33 forward single #
face $-1 $34 $35 $18 $-1 $36 reversed single #
face $-1 $37 $38 $19 $-1 $39 reversed single #
face $-1 $40 $41 $15 $-1 $42 reversed single #
loop $-1 $-1 $43 $20 #
plane-surface $-1 0 0 23.953269852565438 0 0 1 1 0 0 forward_v I I I I #
face $-1 $44 $45 $16 $-1 $46 reversed single #
loop $-1 $-1 $47 $21 #
plane-surface $-1 0 -63.618872062966901 14.993473494188002 0 0 1 1 0 0 forward_v I I I I #
face $-1 $48 $49 $17 $-1 $50 forward single #
loop $-1 $-1 $51 $22 #
plane-surface $-1 115.24083543457344 -2.0677734676164654 211.75609392115427 0 -1 0 -0.83867057594974714 0 -0.54463902268945019 forward_v I I I I #
face $-1 $52 $53 $18 $-1 $54 reversed single #
loop $-1 $55 $56 $23 #
cone-surface $-1 67.597626604074577 -10.310377692430635 16.978357637191731 -0.83867057594974714 0 -0.54463902268945019 0.54463902268945019 0 -0.83867057594974714 1 I I 0 1 1 forward I I I I #
face $-1 $57 $58 $19 $-1 $59 reversed single #
loop $-1 $60 $61 $24 #
cone-surface $-1 67.597626604074577 -5.3648151575421323 16.978357637191731 -0.83867057594974714 0 -0.54463902268945019 0.54463902268945019 0 -0.83867057594974714 1 I I 0 1 1 forward I I I I #
face $-1 $62 $63 $15 $-1 $64 reversed single #
loop $-1 $-1 $65 $25 #
plane-surface $-1 0 0 -23.953269852565438 0 0 1 1 0 0 forward_v I I I I #
coedge $-1 $66 $67 $68 $69 forward $26 $-1 #
face $-1 $70 $71 $16 $-1 $72 forward single #
loop $-1 $-1 $73 $28 #
plane-surface $-1 0 -77.990263780393647 19.473371673376722 0 1 0 0 0 1 forward_v I I I I #
coedge $-1 $74 $75 $76 $77 forward $29 $-1 #
face $-1 $78 $79 $17 $-1 $80 forward single #
loop $-1 $-1 $81 $31 #
plane-surface $-1 -6.4786320475462702 -7.8375964249863799 132.71055004158188 0.83867057594974714 0 0.54463902268945019 0.54463902268945019 0 -0.83867057594974714 forward_v I I I I #
coedge $-1 $82 $83 $84 $85 reversed $32 $-1 #
face $-1 $86 $87 $18 $-1 $88 forward single #
loop $-1 $89 $90 $34 #
cone-surface $-1 66.417877379023409 -10.310377692430635 16.212219557024955 -0.83867057594974714 0 -0.54463902268945019 0.2723195113447251 0 -0.41933528797487357 1 I I -0.70710678118654746 0.70710678118654746 0.5 forward I I I I #
loop $-1 $-1 $91 $23 #
coedge $-1 $56 $56 $92 $93 reversed $35 $-1 #
face $-1 $94 $95 $19 $-1 $96 reversed single #
loop $-1 $97 $98 $37 #
cone-surface $-1 66.417877379023409 -5.3648151575421323 16.212219557024955 -0.83867057594974714 0 -0.54463902268945019 0.2723195113447251 0 -0.41933528797487357 1 I I -0.70710678118654746 0.70710678118654746 0.5 forward I I I I #
loop $-1 $-1 $99 $24 #
coedge $-1 $61 $61 $100 $101 reversed $38 $-1 #
face $-1 $102 $103 $15 $-1 $104 reversed single #
loop $-1 $-1 $105 $40 #
plane-surface $-1 0 -49.247480345540161 0 0 1 0 0 0 1 forward_v I I I I #
coedge $-1 $106 $107 $108 $109 forward $41 $-1 #
coedge $-1 $110 $43 $111 $112 forward $26 $-1 #
coedge $-1 $43 $110 $113 $114 forward $26 $-1 #
coedge $-1 $115 $116 $43 $69 reversed $117 $-1 #
edge $-1 $118 -49.247480345540161 $119 49.247480345540161 $68 $120 forward 7 unknown #
face $-1 $121 $122 $16 $-1 $123 reversed single #
loop $-1 $-1 $124 $44 #
plane-surface $-1 0 0 23.953269852565438 0 0 1 1 0 0 forward_v I I I I #
coedge $-1 $125 $126 $127 $128 forward $45 $-1 #
coedge $-1 $129 $47 $125 $130 forward $29 $-1 #
coedge $-1 $47 $129 $131 $132 reversed $29 $-1 #
coedge $-1 $133 $134 $47 $77 reversed $135 $-1 #
edge $-1 $136 -14.371391717426739 $137 14.371391717426746 $76 $138 forward 7 unknown #
face $-1 $139 $140 $17 $-1 $141 forward single #
loop $-1 $-1 $142 $48 #
plane-surface $-1 115.24083543457344 -13.607419382356294 211.75609392115427 0 1 0 0.83867057594974714 0 0.54463902268945019 forward_v I I I I #
coedge $-1 $143 $144 $145 $146 reversed $49 $-1 #
coedge $-1 $83 $51 $144 $147 forward $32 $-1 #
coedge $-1 $51 $82 $148 $149 reversed $32 $-1 #
coedge $-1 $150 $145 $51 $85 forward $140 $-1 #
edge $-1 $151 6.5287515329889416 $152 14.946494114739401 $84 $153 forward 7 unknown #
face $-1 $154 $155 $18 $-1 $156 forward single #
loop $-1 $-1 $157 $52 #
plane-surface $-1 115.24083543457344 -2.0677734676164654 211.75609392115427 0 -1 0 -0.83867057594974714 0 -0.54463902268945019 forward_v I I I I #
loop $-1 $-1 $158 $34 #
coedge $-1 $90 $90 $91 $159 forward $53 $-1 #
coedge $-1 $91 $91 $90 $159 reversed $55 $-1 #
coedge $-1 $92 $92 $56 $93 forward $155 $-1 #
edge $-1 $160 0 $160 6.2831853071796004 $92 $161 forward 7 unknown #
face $-1 $162 $163 $19 $-1 $164 reversed single #
loop $-1 $165 $166 $57 #
cone-surface $-1 67.597626604074577 -10.310377692430635 16.978357637191731 -0.83867057594974714 0 -0.54463902268945019 0.54463902268945019 0 -0.83867057594974714 1 I I 0 1 1 forward I I I I #
loop $-1 $-1 $167 $37 #
coedge $-1 $98 $98 $99 $168 forward $58 $-1 #
coedge $-1 $99 $99 $98 $168 reversed $60 $-1 #
coedge $-1 $100 $100 $61 $101 forward $169 $-1 #
edge $-1 $170 0 $170 6.2831853071796004 $100 $171 forward 7 unknown #
face $-1 $172 $173 $15 $-1 $174 reversed single #
loop $-1 $-1 $175 $62 #
plane-surface $-1 -72.566911832026122 0 0 1 0 0 0 0 -1 forward_v I I I I #
coedge $-1 $176 $113 $177 $178 forward $63 $-1 #
coedge $-1 $179 $65 $176 $180 forward $41 $-1 #
coedge $-1 $65 $179 $181 $182 forward $41 $-1 #
coedge $-1 $116 $115 $65 $109 reversed $117 $-1 #
edge $-1 $183 -49.247480345540161 $184 49.247480345540161 $108 $185 forward 7 unknown #
coedge $-1 $67 $66 $186 $187 forward $26 $-1 #
coedge $-1 $188 $189 $66 $112 reversed $173 $-1 #
edge $-1 $119 -72.566911832026122 $190 72.566911832026122 $111 $191 forward 7 unknown #
coedge $-1 $105 $192 $67 $114 reversed $63 $-1 #
edge $-1 $193 -72.566911832026122 $118 72.566911832026122 $113 $194 forward 7 unknown #
coedge $-1 $108 $68 $192 $195 forward $117 $-1 #
coedge $-1 $68 $108 $188 $196 reversed $117 $-1 #
loop $-1 $-1 $115 $172 #
vertex $-1 $69 $197 #
vertex $-1 $69 $198 #
straight-curve $-1 72.566911832026122 0 23.953269852565438 0 1 0 I I #
face $-1 $199 $200 $16 $-1 $201 reversed single #
loop $-1 $-1 $202 $70 #
plane-surface $-1 0 0 -23.953269852565438 0 0 1 1 0 0 forward_v I I I I #
coedge $-1 $203 $204 $205 $206 forward $71 $-1 #
coedge $-1 $207 $73 $74 $130 reversed $45 $-1 #
coedge $-1 $73 $207 $204 $208 reversed $45 $-1 #
coedge $-1 $209 $210 $73 $128 reversed $211 $-1 #
edge $-1 $212 -4.4798981791887194 $213 4.4798981791887194 $127 $214 forward 7 unknown #
coedge $-1 $75 $74 $210 $215 forward $29 $-1 #
edge $-1 $137 -72.566911832026122 $213 72.566911832026122 $125 $216 forward 7 unknown #
coedge $-1 $217 $218 $75 $132 forward $200 $-1 #
edge $-1 $136 -72.566911832026122 $219 72.566911832026122 $131 $220 forward 7 unknown #
coedge $-1 $221 $76 $218 $222 forward $135 $-1 #
coedge $-1 $76 $205 $207 $223 forward $135 $-1 #
loop $-1 $-1 $133 $224 #
vertex $-1 $222 $225 #
vertex $-1 $223 $226 #
straight-curve $-1 72.566911832026122 -63.618872062966901 14.993473494188002 0 -1 0 I I #
face $-1 $227 $228 $17 $-1 $229 reversed single #
loop $-1 $-1 $230 $78 #
plane-surface $-1 0 0 23.953269852565438 0 0 1 1 0 0 forward_v I I I I #
coedge $-1 $231 $232 $230 $233 reversed $79 $-1 #
coedge $-1 $234 $81 $232 $235 reversed $49 $-1 #
coedge $-1 $81 $234 $82 $147 reversed $49 $-1 #
coedge $-1 $84 $230 $81 $146 forward $140 $-1 #
edge $-1 $236 -9.6886211698631044 $151 1.8510247448767245 $145 $237 forward 7 unknown #
edge $-1 $151 129.67818748840085 $238 145.13382366405222 $82 $239 forward 7 unknown #
coedge $-1 $240 $241 $83 $149 forward $242 $-1 #
edge $-1 $152 81.924777108011696 $238 94.886964401114966 $148 $243 forward 7 unknown #
coedge $-1 $244 $84 $241 $245 forward $140 $-1 #
vertex $-1 $146 $246 #
vertex $-1 $245 $247 #
straight-curve $-1 57.62041771728672 -2.0677734676164654 23.953269852565441 1 0 0 I I #
face $-1 $248 $249 $18 $-1 $250 forward single #
loop $-1 $251 $92 $86 #
plane-surface $-1 -6.4786320475462702 -7.8375964249863799 132.71055004158188 0.83867057594974714 0 0.54463902268945019 0.54463902268945019 0 -0.83867057594974714 forward_v I I I I #
coedge $-1 $252 $253 $254 $255 reversed $87 $-1 #
coedge $-1 $158 $158 $-1 $256 forward $89 $-1 #
edge $-1 $257 0 $257 6.2831853071796004 $90 $258 forward 7 unknown #
vertex $-1 $93 $259 #
ellipse-curve $-1 68.358040541150899 -10.310377692430635 17.472176206013803 -0.83867057594974714 0 -0.54463902268945019 0.54463902268945019 0 -0.83867057594974714 1 I I #
face $-1 $260 $261 $19 $-1 $262 forward single #
loop $-1 $263 $264 $94 #
cone-surface $-1 66.417877379023409 -10.310377692430635 16.212219557024955 -0.83867057594974714 0 -0.54463902268945019 0.2723195113447251 0 -0.41933528797487357 1 I I -0.70710678118654746 0.70710678118654746 0.5 forward I I I I #
loop $-1 $-1 $265 $57 #
coedge $-1 $166 $166 $266 $267 reversed $95 $-1 #
coedge $-1 $167 $167 $-1 $268 forward $97 $-1 #
edge $-1 $269 0 $269 6.2831853071796004 $98 $270 forward 7 unknown #
loop $-1 $271 $100 $260 #
vertex $-1 $101 $272 #
ellipse-curve $-1 68.358040541150899 -5.3648151575421323 17.472176206013803 -0.83867057594974714 0 -0.54463902268945019 0.54463902268945019 0 -0.83867057594974714 1 I I #
face $-1 $-1 $117 $15 $-1 $273 reversed single #
loop $-1 $-1 $188 $102 #
plane-surface $-1 0 49.247480345540161 0 0 -1 0 0 0 -1 forward_v I I I I #
coedge $-1 $274 $186 $189 $275 forward $103 $-1 #
coedge $-1 $192 $105 $106 $180 reversed $63 $-1 #
coedge $-1 $186 $274 $105 $178 reversed $103 $-1 #
edge $-1 $193 -23.953269852565438 $276 23.953269852565438 $177 $277 forward 7 unknown #
coedge $-1 $107 $106 $274 $278 forward $41 $-1 #
edge $-1 $184 -72.566911832026122 $276 72.566911832026122 $176 $279 forward 7 unknown #
coedge $-1 $189 $188 $107 $182 reversed $173 $-1 #
edge $-1 $280 -72.566911832026122 $183 72.566911832026122 $181 $281 forward 7 unknown #
vertex $-1 $109 $282 #
vertex $-1 $195 $283 #
straight-curve $-1 72.566911832026122 0 -23.953269852565438 0 -1 0 I I #
coedge $-1 $175 $177 $110 $187 reversed $103 $-1 #
edge $-1 $190 -49.247480345540161 $193 49.247480345540161 $186 $284 forward 7 unknown #
coedge $-1 $181 $111 $116 $196 forward $173 $-1 #
coedge $-1 $111 $181 $175 $275 reversed $173 $-1 #
vertex $-1 $112 $285 #
straight-curve $-1 0 49.247480345540161 23.953269852565438 -1 0 0 I I #
coedge $-1 $113 $176 $115 $195 reversed $63 $-1 #
vertex $-1 $187 $286 #
straight-curve $-1 0 -49.247480345540161 23.953269852565438 1 0 0 I I #
edge $-1 $118 -23.953269852565438 $184 23.953269852565438 $115 $287 forward 7 unknown #
edge $-1 $119 -23.953269852565438 $183 23.953269852565438 $116 $288 forward 7 unknown #
point $-1 72.566911832026122 -49.247480345540161 23.953269852565438 #
point $-1 72.566911832026122 49.247480345540161 23.953269852565438 #
face $-1 $289 $211 $16 $-1 $290 reversed single #
loop $-1 $-1 $131 $121 #
plane-surface $-1 0 -49.247480345540161 0 0 1 0 0 0 1 forward_v I I I I #
coedge $-1 $291 $292 $221 $293 forward $122 $-1 #
coedge $-1 $294 $124 $295 $296 forward $71 $-1 #
coedge $-1 $124 $294 $126 $208 forward $71 $-1 #
coedge $-1 $134 $297 $124 $206 reversed $135 $-1 #
edge $-1 $298 -77.990263780393647 $299 49.247480345540161 $205 $300 forward 7 unknown #
coedge $-1 $126 $125 $134 $223 reversed $45 $-1 #
edge $-1 $212 -72.566911832026122 $298 72.566911832026122 $126 $301 forward 7 unknown #
coedge $-1 $302 $127 $294 $303 reversed $211 $-1 #
coedge $-1 $127 $304 $129 $215 reversed $211 $-1 #
loop $-1 $-1 $302 $199 #
vertex $-1 $303 $305 #
vertex $-1 $215 $306 #
straight-curve $-1 -72.566911832026122 -77.990263780393647 19.473371673376722 0 0 -1 I I #
edge $-1 $213 -14.371391717426746 $219 14.371391717426739 $210 $307 forward 7 unknown #
straight-curve $-1 0 -77.990263780393647 14.993473494188002 -1 0 0 I I #
coedge $-1 $308 $131 $304 $309 forward $200 $-1 #
coedge $-1 $131 $308 $133 $222 reversed $200 $-1 #
vertex $-1 $309 $310 #
straight-curve $-1 0 -49.247480345540161 14.993473494188002 -1 0 0 I I #
coedge $-1 $297 $133 $202 $293 reversed $135 $-1 #
edge $-1 $136 -14.993473494188002 $311 23.953269852565438 $133 $312 forward 7 unknown #
edge $-1 $298 -4.4798981791887194 $137 4.4798981791887194 $134 $313 forward 7 unknown #
face $-1 $-1 $135 $16 $-1 $314 reversed single #
point $-1 72.566911832026122 -49.247480345540161 14.993473494188002 #
point $-1 72.566911832026122 -77.990263780393647 14.993473494188002 #
face $-1 $315 $316 $17 $-1 $317 reversed single #
loop $-1 $-1 $318 $139 #
plane-surface $-1 0 -63.618872062966901 14.993473494188002 0 0 1 1 0 0 forward_v I I I I #
coedge $-1 $145 $319 $142 $233 forward $140 $-1 #
coedge $-1 $232 $142 $320 $321 reversed $79 $-1 #
coedge $-1 $142 $231 $143 $235 forward $79 $-1 #
edge $-1 $322 -14.946494114739401 $236 -6.5287515329889416 $230 $323 forward 7 unknown #
coedge $-1 $144 $143 $240 $324 reversed $49 $-1 #
edge $-1 $325 -145.13382366405222 $236 -129.67818748840085 $232 $326 forward 7 unknown #
vertex $-1 $146 $327 #
straight-curve $-1 64.149169250275648 -3.9187982124931899 23.953269852565441 0 1 0 I I #
vertex $-1 $324 $328 #
straight-curve $-1 -6.4786320475462702 -2.0677734676164654 132.71055004158188 0.54463902268945019 0 -0.83867057594974714 I I #
coedge $-1 $320 $148 $234 $324 forward $242 $-1 #
coedge $-1 $148 $329 $150 $245 reversed $242 $-1 #
loop $-1 $-1 $320 $330 #
straight-curve $-1 72.566911832026122 -2.0677734676164654 105.87804696057714 0 0 -1 I I #
coedge $-1 $331 $150 $332 $333 forward $140 $-1 #
edge $-1 $152 -2.0677734676164654 $334 49.247480345540161 $241 $335 forward 7 unknown #
point $-1 64.149169250275662 -2.0677734676164654 23.953269852565441 #
point $-1 72.566911832026122 -2.0677734676164654 23.953269852565438 #
face $-1 $336 $337 $18 $-1 $338 forward single #
loop $-1 $-1 $339 $154 #
plane-surface $-1 115.24083543457344 -13.607419382356294 211.75609392115427 0 1 0 0.83867057594974714 0 0.54463902268945019 forward_v I I I I #
loop $-1 $-1 $340 $86 #
coedge $-1 $253 $157 $341 $342 forward $87 $-1 #
coedge $-1 $157 $252 $343 $344 reversed $87 $-1 #
coedge $-1 $345 $346 $157 $255 forward $337 $-1 #
edge $-1 $347 6.5287515329889416 $348 14.946494114739401 $254 $349 forward 7 unknown #
edge $-1 $350 1 $350 0 $158 $-1 forward 7 unknown #
vertex $-1 $159 $351 #
ellipse-curve $-1 66.837212666998283 -10.310377692430635 16.484539068369681 0.83867057594974714 0 0.54463902268945019 0.54463902268945019 0 -0.83867057594974714 1 I I #
point $-1 68.902679563840323 -10.310377692430635 16.633505630064036 #
face $-1 $352 $169 $19 $-1 $353 forward single #
loop $-1 $-1 $354 $162 #
plane-surface $-1 115.24083543457344 -2.0677734676164654 211.75609392115427 0 -1 0 -0.83867057594974714 0 -0.54463902268945019 forward_v I I I I #
loop $-1 $-1 $355 $94 #
coedge $-1 $264 $264 $265 $356 forward $163 $-1 #
coedge $-1 $265 $265 $264 $356 reversed $165 $-1 #
coedge $-1 $266 $266 $166 $267 forward $271 $-1 #
edge $-1 $357 0 $357 6.2831853071796004 $266 $358 forward 7 unknown #
edge $-1 $359 1 $359 0 $167 $-1 forward 7 unknown #
vertex $-1 $168 $360 #
ellipse-curve $-1 66.837212666998283 -5.3648151575421323 16.484539068369681 0.83867057594974714 0 0.54463902268945019 0.54463902268945019 0 -0.83867057594974714 1 I I #
loop $-1 $361 $266 $260 #
point $-1 68.902679563840323 -5.3648151575421323 16.633505630064036 #
plane-surface $-1 72.566911832026122 0 0 -1 0 0 0 0 1 forward_v I I I I #
coedge $-1 $177 $175 $179 $278 reversed $103 $-1 #
edge $-1 $190 -23.953269852565438 $280 23.953269852565438 $189 $362 forward 7 unknown #
vertex $-1 $278 $363 #
straight-curve $-1 -72.566911832026122 -49.247480345540161 0 0 0 -1 I I #
edge $-1 $276 -49.247480345540161 $280 49.247480345540161 $274 $364 forward 7 unknown #
straight-curve $-1 0 -49.247480345540161 -23.953269852565438 -1 0 0 I I #
vertex $-1 $182 $365 #
straight-curve $-1 0 49.247480345540161 -23.953269852565438 1 0 0 I I #
point $-1 72.566911832026122 49.247480345540161 -23.953269852565438 #
point $-1 72.566911832026122 -49.247480345540161 -23.953269852565438 #
straight-curve $-1 -72.566911832026122 0 23.953269852565438 0 -1 0 I I #
point $-1 -72.566911832026122 49.247480345540161 23.953269852565438 #
point $-1 -72.566911832026122 -49.247480345540161 23.953269852565438 #
straight-curve $-1 72.566911832026122 -49.247480345540161 0 0 0 -1 I I #
straight-curve $-1 72.566911832026122 49.247480345540161 0 0 0 -1 I I #
face $-1 $224 $366 $16 $-1 $367 reversed single #
plane-surface $-1 -72.566911832026122 0 0 1 0 0 0 0 -1 forward_v I I I I #
coedge $-1 $368 $202 $308 $369 forward $122 $-1 #
coedge $-1 $202 $368 $370 $371 forward $122 $-1 #
edge $-1 $372 -49.247480345540161 $311 49.247480345540161 $221 $373 forward 7 unknown #
coedge $-1 $204 $203 $209 $303 forward $71 $-1 #
coedge $-1 $374 $375 $203 $296 reversed $366 $-1 #
edge $-1 $299 -72.566911832026122 $376 72.566911832026122 $295 $377 forward 7 unknown #
coedge $-1 $205 $221 $374 $378 reversed $135 $-1 #
vertex $-1 $206 $379 #
vertex $-1 $206 $380 #
straight-curve $-1 72.566911832026122 0 23.953269852565438 0 1 0 I I #
straight-curve $-1 0 -77.990263780393647 23.953269852565441 1 0 0 I I #
coedge $-1 $381 $209 $375 $382 forward $211 $-1 #
edge $-1 $376 -49.247480345540161 $212 77.990263780393647 $209 $383 forward 7 unknown #
coedge $-1 $210 $381 $217 $309 reversed $211 $-1 #
point $-1 -72.566911832026122 -77.990263780393647 23.953269852565441 #
point $-1 -72.566911832026122 -77.990263780393647 14.993473494188002 #
straight-curve $-1 -72.566911832026122 -63.618872062966901 14.993473494188002 0 1 0 I I #
coedge $-1 $218 $217 $291 $369 reversed $200 $-1 #
edge $-1 $219 -14.993473494188002 $384 23.953269852565438 $304 $385 forward 7 unknown #
point $-1 -72.566911832026122 -49.247480345540161 14.993473494188002 #
vertex $-1 $222 $386 #
straight-curve $-1 72.566911832026122 -49.247480345540161 0 0 0 -1 I I #
straight-curve $-1 72.566911832026122 -77.990263780393647 19.473371673376722 0 0 -1 I I #
plane-surface $-1 72.566911832026122 0 0 -1 0 0 0 0 1 forward_v I I I I #
face $-1 $387 $388 $17 $-1 $389 reversed single #
loop $-1 $-1 $390 $227 #
plane-surface $-1 0 -77.990263780393647 19.473371673376722 0 1 0 0 0 1 forward_v I I I I #
coedge $-1 $391 $392 $393 $394 forward $228 $-1 #
coedge $-1 $230 $395 $396 $397 forward $140 $-1 #
coedge $-1 $396 $240 $231 $321 forward $242 $-1 #
edge $-1 $325 -94.886964401114966 $322 -81.924777108011696 $320 $398 forward 7 unknown #
vertex $-1 $321 $399 #
straight-curve $-1 57.62041771728672 -13.607419382356294 23.953269852565441 -1 0 0 I I #
edge $-1 $238 -1.8510247448767245 $325 9.6886211698631044 $240 $400 forward 7 unknown #
vertex $-1 $324 $401 #
straight-curve $-1 -6.4786320475462702 -13.607419382356294 132.71055004158188 -0.54463902268945019 0 0.83867057594974714 I I #
point $-1 64.149169250275662 -13.607419382356294 23.953269852565441 #
point $-1 72.566911832026122 -2.0677734676164654 10.991082559462171 #
coedge $-1 $241 $402 $403 $404 reversed $242 $-1 #
face $-1 $-1 $242 $17 $-1 $405 reversed single #
coedge $-1 $395 $244 $406 $407 forward $140 $-1 #
coedge $-1 $403 $408 $244 $333 reversed $409 $-1 #
edge $-1 $334 -72.566911832026122 $410 72.566911832026122 $332 $411 forward 7 unknown #
vertex $-1 $245 $412 #
straight-curve $-1 72.566911832026122 0 23.953269852565438 0 1 0 I I #
face $-1 $413 $414 $18 $-1 $415 reversed single #
loop $-1 $-1 $416 $248 #
plane-surface $-1 0 0 23.953269852565438 0 0 1 1 0 0 forward_v I I I I #
coedge $-1 $417 $418 $416 $419 reversed $249 $-1 #
coedge $-1 $420 $341 $346 $421 reversed $251 $-1 #
coedge $-1 $340 $422 $252 $342 reversed $251 $-1 #
edge $-1 $347 129.67818748840085 $423 145.13382366405222 $252 $424 forward 7 unknown #
coedge $-1 $425 $426 $253 $344 forward $427 $-1 #
edge $-1 $348 81.924777108011696 $423 94.886964401114966 $343 $428 forward 7 unknown #
coedge $-1 $429 $254 $426 $430 forward $337 $-1 #
coedge $-1 $254 $416 $340 $421 forward $337 $-1 #
vertex $-1 $421 $431 #
vertex $-1 $430 $432 #
straight-curve $-1 57.62041771728672 -2.0677734676164654 23.953269852565441 1 0 0 I I #
vertex $-1 $256 $433 #
point $-1 67.381851689687736 -10.310377692430635 15.645868492419932 #
face $-1 $434 $435 $19 $-1 $436 forward single #
plane-surface $-1 -6.4786320475462702 -7.8375964249863799 132.71055004158188 0.83867057594974714 0 0.54463902268945019 0.54463902268945019 0 -0.83867057594974714 forward_v I I I I #
coedge $-1 $437 $438 $439 $440 reversed $261 $-1 #
coedge $-1 $355 $355 $-1 $441 forward $263 $-1 #
edge $-1 $442 0 $442 6.2831853071796004 $264 $443 forward 7 unknown #
vertex $-1 $267 $444 #
ellipse-curve $-1 68.358040541150899 -10.310377692430635 17.472176206013803 -0.83867057594974714 0 -0.54463902268945019 0.54463902268945019 0 -0.83867057594974714 1 I I #
vertex $-1 $268 $445 #
point $-1 67.381851689687736 -5.3648151575421323 15.645868492419932 #
loop $-1 $-1 $446 $260 #
straight-curve $-1 -72.566911832026122 49.247480345540161 0 0 0 -1 I I #
point $-1 -72.566911832026122 -49.247480345540161 -23.953269852565438 #
straight-curve $-1 -72.566911832026122 0 -23.953269852565438 0 1 0 I I #
point $-1 -72.566911832026122 49.247480345540161 -23.953269852565438 #
loop $-1 $-1 $374 $289 #
plane-surface $-1 0 49.247480345540161 0 0 -1 0 0 0 -1 forward_v I I I I #
coedge $-1 $292 $291 $381 $447 forward $122 $-1 #
edge $-1 $311 -72.566911832026122 $384 72.566911832026122 $308 $448 forward 7 unknown #
coedge $-1 $375 $374 $292 $371 reversed $366 $-1 #
edge $-1 $449 -72.566911832026122 $372 72.566911832026122 $370 $450 forward 7 unknown #
vertex $-1 $293 $451 #
straight-curve $-1 72.566911832026122 0 -23.953269852565438 0 -1 0 I I #
coedge $-1 $370 $295 $297 $378 forward $366 $-1 #
coedge $-1 $295 $370 $302 $382 reversed $366 $-1 #
vertex $-1 $296 $452 #
straight-curve $-1 0 49.247480345540161 23.953269852565438 -1 0 0 I I #
edge $-1 $299 -23.953269852565438 $372 23.953269852565438 $297 $453 forward 7 unknown #
point $-1 72.566911832026122 -77.990263780393647 23.953269852565441 #
point $-1 72.566911832026122 49.247480345540161 23.953269852565438 #
coedge $-1 $304 $302 $368 $447 reversed $211 $-1 #
edge $-1 $376 -23.953269852565438 $449 23.953269852565438 $375 $454 forward 7 unknown #
straight-curve $-1 -72.566911832026122 0 23.953269852565438 0 -1 0 I I #
vertex $-1 $447 $455 #
straight-curve $-1 -72.566911832026122 -49.247480345540161 0 0 0 -1 I I #
point $-1 72.566911832026122 -49.247480345540161 -23.953269852565438 #
face $-1 $456 $457 $17 $-1 $458 reversed single #
loop $-1 $-1 $459 $315 #
plane-surface $-1 0 0 -23.953269852565438 0 0 1 1 0 0 forward_v I I I I #
coedge $-1 $460 $461 $462 $463 forward $316 $-1 #
coedge $-1 $464 $318 $460 $465 forward $228 $-1 #
coedge $-1 $318 $464 $466 $467 reversed $228 $-1 #
coedge $-1 $468 $469 $318 $394 reversed $242 $-1 #
edge $-1 $470 -14.371391717426739 $471 14.371391717426746 $393 $472 forward 7 unknown #
coedge $-1 $319 $331 $461 $473 forward $140 $-1 #
coedge $-1 $469 $320 $319 $397 reversed $242 $-1 #
edge $-1 $474 -77.990263780393647 $322 -13.607419382356294 $396 $335 forward 7 unknown #
straight-curve $-1 72.566911832026122 -13.607419382356294 105.87804696057714 0 0 1 I I #
point $-1 72.566911832026122 -13.607419382356294 23.953269852565438 #
straight-curve $-1 72.566911832026122 -3.9187982124931899 10.991082559462193 0 -1 0 I I #
point $-1 72.566911832026122 -13.607419382356294 10.991082559462171 #
coedge $-1 $329 $468 $459 $475 reversed $242 $-1 #
coedge $-1 $476 $332 $329 $404 forward $409 $-1 #
edge $-1 $334 -23.953269852565438 $477 23.953269852565438 $329 $478 forward 7 unknown #
plane-surface $-1 72.566911832026122 0 0 -1 0 0 0 0 1 forward_v I I I I #
coedge $-1 $479 $462 $331 $407 reversed $480 $-1 #
edge $-1 $410 -49.247480345540161 $481 77.990263780393647 $406 $482 forward 7 unknown #
coedge $-1 $332 $476 $479 $483 reversed $409 $-1 #
loop $-1 $-1 $403 $484 #
vertex $-1 $333 $485 #
straight-curve $-1 0 49.247480345540161 23.953269852565438 -1 0 0 I I #
point $-1 72.566911832026122 49.247480345540161 23.953269852565438 #
face $-1 $486 $487 $18 $-1 $488 reversed single #
loop $-1 $-1 $489 $336 #
plane-surface $-1 0 -63.618872062966901 14.993473494188002 0 0 1 1 0 0 forward_v I I I I #
coedge $-1 $346 $490 $339 $419 forward $337 $-1 #
coedge $-1 $418 $339 $491 $492 reversed $249 $-1 #
coedge $-1 $339 $417 $420 $493 forward $249 $-1 #
edge $-1 $494 -14.946494114739401 $495 -6.5287515329889416 $416 $496 forward 7 unknown #
coedge $-1 $422 $340 $418 $493 reversed $251 $-1 #
edge $-1 $495 -9.6886211698631044 $347 1.8510247448767245 $346 $497 forward 7 unknown #
coedge $-1 $341 $420 $425 $498 reversed $251 $-1 #
vertex $-1 $498 $499 #
straight-curve $-1 -6.4786320475462702 -2.0677734676164654 132.71055004158188 0.54463902268945019 0 -0.83867057594974714 I I #
coedge $-1 $491 $343 $422 $498 forward $427 $-1 #
coedge $-1 $343 $500 $345 $430 reversed $427 $-1 #
loop $-1 $-1 $491 $501 #
straight-curve $-1 72.566911832026122 -2.0677734676164654 105.87804696057714 0 0 -1 I I #
coedge $-1 $502 $345 $503 $504 forward $337 $-1 #
edge $-1 $348 -2.0677734676164654 $505 49.247480345540161 $426 $506 forward 7 unknown #
point $-1 64.149169250275662 -2.0677734676164654 23.953269852565441 #
point $-1 72.566911832026122 -2.0677734676164654 23.953269852565438 #
point $-1 65.998542091048535 -10.310377692430635 15.939900045680231 #
face $-1 $507 $508 $19 $-1 $509 forward single #
loop $-1 $-1 $510 $352 #
plane-surface $-1 115.24083543457344 -13.607419382356294 211.75609392115427 0 1 0 0.83867057594974714 0 0.54463902268945019 forward_v I I I I #
coedge $-1 $438 $354 $511 $512 forward $261 $-1 #
coedge $-1 $354 $437 $513 $514 reversed $261 $-1 #
coedge $-1 $515 $516 $354 $440 forward $508 $-1 #
edge $-1 $517 6.5287515329889416 $518 14.946494114739401 $439 $519 forward 7 unknown #
edge $-1 $520 1 $520 0 $355 $-1 forward 7 unknown #
vertex $-1 $356 $521 #
ellipse-curve $-1 66.837212666998283 -10.310377692430635 16.484539068369681 0.83867057594974714 0 0.54463902268945019 0.54463902268945019 0 -0.83867057594974714 1 I I #
point $-1 68.902679563840323 -10.310377692430635 16.633505630064036 #
point $-1 65.998542091048535 -5.3648151575421323 15.939900045680231 #
coedge $-1 $522 $511 $516 $523 reversed $361 $-1 #
edge $-1 $384 -49.247480345540161 $449 49.247480345540161 $381 $524 forward 7 unknown #
straight-curve $-1 0 -49.247480345540161 -23.953269852565438 -1 0 0 I I #
vertex $-1 $371 $525 #
straight-curve $-1 0 49.247480345540161 -23.953269852565438 1 0 0 I I #
point $-1 72.566911832026122 49.247480345540161 -23.953269852565438 #
point $-1 -72.566911832026122 49.247480345540161 23.953269852565438 #
straight-curve $-1 72.566911832026122 49.247480345540161 0 0 0 -1 I I #
straight-curve $-1 -72.566911832026122 49.247480345540161 0 0 0 -1 I I #
point $-1 -72.566911832026122 -49.247480345540161 -23.953269852565438 #
face $-1 $484 $480 $17 $-1 $526 reversed single #
loop $-1 $-1 $466 $387 #
plane-surface $-1 0 -49.247480345540161 0 0 1 0 0 0 1 forward_v I I I I #
coedge $-1 $527 $528 $402 $475 forward $388 $-1 #
coedge $-1 $529 $390 $391 $465 reversed $316 $-1 #
coedge $-1 $390 $529 $395 $473 reversed $316 $-1 #
coedge $-1 $406 $530 $390 $463 reversed $480 $-1 #
edge $-1 $481 -4.4798981791887194 $531 4.4798981791887194 $462 $532 forward 7 unknown #
coedge $-1 $392 $391 $530 $533 forward $228 $-1 #
edge $-1 $471 -72.566911832026122 $531 72.566911832026122 $460 $534 forward 7 unknown #
coedge $-1 $535 $536 $392 $467 forward $457 $-1 #
edge $-1 $470 -72.566911832026122 $537 72.566911832026122 $466 $538 forward 7 unknown #
coedge $-1 $402 $393 $536 $539 forward $242 $-1 #
coedge $-1 $393 $396 $529 $540 forward $242 $-1 #
vertex $-1 $539 $541 #
vertex $-1 $540 $542 #
straight-curve $-1 72.566911832026122 -63.618872062966901 14.993473494188002 0 -1 0 I I #
edge $-1 $481 -72.566911832026122 $474 72.566911832026122 $461 $543 forward 7 unknown #
vertex $-1 $397 $544 #
edge $-1 $477 -49.247480345540161 $545 49.247480345540161 $402 $546 forward 7 unknown #
coedge $-1 $408 $403 $528 $547 reversed $409 $-1 #
vertex $-1 $475 $548 #
straight-curve $-1 72.566911832026122 49.247480345540161 0 0 0 -1 I I #
coedge $-1 $549 $406 $408 $483 forward $480 $-1 #
loop $-1 $-1 $479 $456 #
vertex $-1 $407 $550 #
straight-curve $-1 -72.566911832026122 0 23.953269852565438 0 -1 0 I I #
edge $-1 $410 -23.953269852565438 $551 23.953269852565438 $408 $552 forward 7 unknown #
face $-1 $330 $409 $17 $-1 $553 reversed single #
point $-1 -72.566911832026122 49.247480345540161 23.953269852565438 #
face $-1 $554 $555 $18 $-1 $556 reversed single #
loop $-1 $-1 $557 $413 #
plane-surface $-1 0 -77.990263780393647 19.473371673376722 0 1 0 0 0 1 forward_v I I I I #
coedge $-1 $558 $559 $560 $561 forward $414 $-1 #
coedge $-1 $416 $562 $563 $564 forward $337 $-1 #
coedge $-1 $563 $425 $417 $492 forward $427 $-1 #
edge $-1 $565 -94.886964401114966 $494 -81.924777108011696 $491 $566 forward 7 unknown #
edge $-1 $565 -145.13382366405222 $495 -129.67818748840085 $418 $567 forward 7 unknown #
vertex $-1 $492 $568 #
vertex $-1 $421 $569 #
straight-curve $-1 57.62041771728672 -13.607419382356294 23.953269852565441 -1 0 0 I I #
straight-curve $-1 64.149169250275648 -3.9187982124931899 23.953269852565441 0 1 0 I I #
edge $-1 $423 -1.8510247448767245 $565 9.6886211698631044 $425 $570 forward 7 unknown #
point $-1 72.566911832026122 -2.0677734676164654 10.991082559462171 #
coedge $-1 $426 $571 $572 $573 reversed $427 $-1 #
face $-1 $-1 $427 $18 $-1 $574 reversed single #
coedge $-1 $562 $429 $575 $576 forward $337 $-1 #
coedge $-1 $572 $577 $429 $504 reversed $578 $-1 #
edge $-1 $505 -72.566911832026122 $579 72.566911832026122 $503 $580 forward 7 unknown #
vertex $-1 $430 $581 #
straight-curve $-1 72.566911832026122 0 23.953269852565438 0 1 0 I I #
face $-1 $582 $583 $19 $-1 $584 reversed single #
loop $-1 $-1 $585 $434 #
plane-surface $-1 0 0 23.953269852565438 0 0 1 1 0 0 forward_v I I I I #
coedge $-1 $586 $587 $585 $588 reversed $435 $-1 #
coedge $-1 $446 $589 $437 $512 reversed $361 $-1 #
edge $-1 $517 129.67818748840085 $590 145.13382366405222 $437 $591 forward 7 unknown #
coedge $-1 $592 $593 $438 $514 forward $594 $-1 #
edge $-1 $518 81.924777108011696 $590 94.886964401114966 $513 $595 forward 7 unknown #
coedge $-1 $596 $439 $593 $597 forward $508 $-1 #
coedge $-1 $439 $585 $446 $523 forward $508 $-1 #
vertex $-1 $523 $598 #
vertex $-1 $597 $599 #
straight-curve $-1 57.62041771728672 -2.0677734676164654 23.953269852565441 1 0 0 I I #
vertex $-1 $441 $600 #
point $-1 67.381851689687736 -10.310377692430635 15.645868492419932 #
coedge $-1 $589 $446 $587 $601 reversed $361 $-1 #
edge $-1 $602 -9.6886211698631044 $517 1.8510247448767245 $516 $603 forward 7 unknown #
straight-curve $-1 -72.566911832026122 0 -23.953269852565438 0 1 0 I I #
point $-1 -72.566911832026122 49.247480345540161 -23.953269852565438 #
plane-surface $-1 -72.566911832026122 0 0 1 0 0 0 0 -1 forward_v I I I I #
coedge $-1 $604 $459 $605 $606 forward $388 $-1 #
coedge $-1 $459 $604 $476 $547 forward $388 $-1 #
coedge $-1 $461 $460 $469 $540 reversed $316 $-1 #
coedge $-1 $462 $607 $464 $533 reversed $480 $-1 #
vertex $-1 $533 $608 #
straight-curve $-1 -72.566911832026122 -77.990263780393647 19.473371673376722 0 0 -1 I I #
edge $-1 $531 -14.371391717426746 $537 14.371391717426739 $530 $609 forward 7 unknown #
straight-curve $-1 0 -77.990263780393647 14.993473494188002 -1 0 0 I I #
coedge $-1 $605 $466 $607 $610 forward $457 $-1 #
coedge $-1 $466 $605 $468 $539 reversed $457 $-1 #
vertex $-1 $610 $611 #
straight-curve $-1 0 -49.247480345540161 14.993473494188002 -1 0 0 I I #
edge $-1 $470 -14.993473494188002 $545 23.953269852565438 $468 $612 forward 7 unknown #
edge $-1 $474 -4.4798981791887194 $471 4.4798981791887194 $469 $613 forward 7 unknown #
point $-1 72.566911832026122 -49.247480345540161 14.993473494188002 #
point $-1 72.566911832026122 -77.990263780393647 14.993473494188002 #
straight-curve $-1 0 -77.990263780393647 23.953269852565441 1 0 0 I I #
point $-1 72.566911832026122 -77.990263780393647 23.953269852565441 #
vertex $-1 $539 $614 #
straight-curve $-1 72.566911832026122 0 -23.953269852565438 0 -1 0 I I #
edge $-1 $551 -72.566911832026122 $477 72.566911832026122 $476 $615 forward 7 unknown #
point $-1 72.566911832026122 49.247480345540161 -23.953269852565438 #
coedge $-1 $607 $479 $604 $616 reversed $480 $-1 #
point $-1 -72.566911832026122 -77.990263780393647 23.953269852565441 #
vertex $-1 $547 $617 #
straight-curve $-1 -72.566911832026122 49.247480345540161 0 0 0 -1 I I #
plane-surface $-1 0 49.247480345540161 0 0 -1 0 0 0 -1 forward_v I I I I #
face $-1 $618 $619 $18 $-1 $620 reversed single #
loop $-1 $-1 $621 $486 #
plane-surface $-1 0 0 -23.953269852565438 0 0 1 1 0 0 forward_v I I I I #
coedge $-1 $622 $623 $624 $625 forward $487 $-1 #
coedge $-1 $626 $489 $622 $627 forward $414 $-1 #
coedge $-1 $489 $626 $628 $629 reversed $414 $-1 #
coedge $-1 $630 $631 $489 $561 reversed $427 $-1 #
edge $-1 $632 -14.371391717426739 $633 14.371391717426746 $560 $634 forward 7 unknown #
coedge $-1 $490 $502 $623 $635 forward $337 $-1 #
coedge $-1 $631 $491 $490 $564 reversed $427 $-1 #
edge $-1 $636 -77.990263780393647 $494 -13.607419382356294 $563 $506 forward 7 unknown #
vertex $-1 $498 $637 #
straight-curve $-1 72.566911832026122 -13.607419382356294 105.87804696057714 0 0 1 I I #
straight-curve $-1 -6.4786320475462702 -13.607419382356294 132.71055004158188 -0.54463902268945019 0 0.83867057594974714 I I #
point $-1 72.566911832026122 -13.607419382356294 23.953269852565438 #
point $-1 64.149169250275662 -13.607419382356294 23.953269852565441 #
straight-curve $-1 72.566911832026122 -3.9187982124931899 10.991082559462193 0 -1 0 I I #
coedge $-1 $500 $630 $621 $638 reversed $427 $-1 #
coedge $-1 $639 $503 $500 $573 forward $578 $-1 #
edge $-1 $505 -23.953269852565438 $640 23.953269852565438 $500 $641 forward 7 unknown #
plane-surface $-1 72.566911832026122 0 0 -1 0 0 0 0 1 forward_v I I I I #
coedge $-1 $642 $624 $502 $576 reversed $643 $-1 #
edge $-1 $579 -49.247480345540161 $644 77.990263780393647 $575 $645 forward 7 unknown #
coedge $-1 $503 $639 $642 $646 reversed $578 $-1 #
loop $-1 $-1 $572 $647 #
vertex $-1 $504 $648 #
straight-curve $-1 0 49.247480345540161 23.953269852565438 -1 0 0 I I #
point $-1 72.566911832026122 49.247480345540161 23.953269852565438 #
face $-1 $649 $650 $19 $-1 $651 reversed single #
loop $-1 $-1 $652 $507 #
plane-surface $-1 0 -63.618872062966901 14.993473494188002 0 0 1 1 0 0 forward_v I I I I #
coedge $-1 $516 $653 $510 $588 forward $508 $-1 #
coedge $-1 $587 $510 $654 $655 reversed $435 $-1 #
coedge $-1 $510 $586 $522 $601 forward $435 $-1 #
edge $-1 $656 -14.946494114739401 $602 -6.5287515329889416 $585 $657 forward 7 unknown #
coedge $-1 $511 $522 $592 $658 reversed $361 $-1 #
vertex $-1 $658 $659 #
straight-curve $-1 -6.4786320475462702 -2.0677734676164654 132.71055004158188 0.54463902268945019 0 -0.83867057594974714 I I #
coedge $-1 $654 $513 $589 $658 forward $594 $-1 #
coedge $-1 $513 $660 $515 $597 reversed $594 $-1 #
loop $-1 $-1 $654 $661 #
straight-curve $-1 72.566911832026122 -2.0677734676164654 105.87804696057714 0 0 -1 I I #
coedge $-1 $662 $515 $663 $664 forward $508 $-1 #
edge $-1 $518 -2.0677734676164654 $665 49.247480345540161 $593 $666 forward 7 unknown #
point $-1 64.149169250275662 -2.0677734676164654 23.953269852565441 #
point $-1 72.566911832026122 -2.0677734676164654 23.953269852565438 #
point $-1 65.998542091048535 -10.310377692430635 15.939900045680231 #
edge $-1 $667 -145.13382366405222 $602 -129.67818748840085 $587 $668 forward 7 unknown #
vertex $-1 $523 $669 #
straight-curve $-1 64.149169250275648 -3.9187982124931899 23.953269852565441 0 1 0 I I #
coedge $-1 $528 $527 $549 $616 forward $388 $-1 #
coedge $-1 $536 $535 $527 $606 reversed $457 $-1 #
edge $-1 $545 -72.566911832026122 $670 72.566911832026122 $605 $671 forward 7 unknown #
coedge $-1 $530 $549 $535 $610 reversed $480 $-1 #
point $-1 -72.566911832026122 -77.990263780393647 14.993473494188002 #
straight-curve $-1 -72.566911832026122 -63.618872062966901 14.993473494188002 0 1 0 I I #
edge $-1 $537 -14.993473494188002 $670 23.953269852565438 $607 $672 forward 7 unknown #
point $-1 -72.566911832026122 -49.247480345540161 14.993473494188002 #
straight-curve $-1 72.566911832026122 -49.247480345540161 0 0 0 -1 I I #
straight-curve $-1 72.566911832026122 -77.990263780393647 19.473371673376722 0 0 -1 I I #
point $-1 72.566911832026122 -49.247480345540161 -23.953269852565438 #
straight-curve $-1 0 49.247480345540161 -23.953269852565438 1 0 0 I I #
edge $-1 $670 -49.247480345540161 $551 49.247480345540161 $549 $673 forward 7 unknown #
point $-1 -72.566911832026122 49.247480345540161 -23.953269852565438 #
face $-1 $647 $643 $18 $-1 $674 reversed single #
loop $-1 $-1 $628 $554 #
plane-surface $-1 0 -49.247480345540161 0 0 1 0 0 0 1 forward_v I I I I #
coedge $-1 $675 $676 $571 $638 forward $555 $-1 #
coedge $-1 $677 $557 $558 $627 reversed $487 $-1 #
coedge $-1 $557 $677 $562 $635 reversed $487 $-1 #
coedge $-1 $575 $678 $557 $625 reversed $643 $-1 #
edge $-1 $644 -4.4798981791887194 $679 4.4798981791887194 $624 $680 forward 7 unknown #
coedge $-1 $559 $558 $678 $681 forward $414 $-1 #
edge $-1 $633 -72.566911832026122 $679 72.566911832026122 $622 $682 forward 7 unknown #
coedge $-1 $683 $684 $559 $629 forward $619 $-1 #
edge $-1 $632 -72.566911832026122 $685 72.566911832026122 $628 $686 forward 7 unknown #
coedge $-1 $571 $560 $684 $687 forward $427 $-1 #
coedge $-1 $560 $563 $677 $688 forward $427 $-1 #
vertex $-1 $687 $689 #
vertex $-1 $688 $690 #
straight-curve $-1 72.566911832026122 -63.618872062966901 14.993473494188002 0 -1 0 I I #
edge $-1 $644 -72.566911832026122 $636 72.566911832026122 $623 $691 forward 7 unknown #
vertex $-1 $564 $692 #
point $-1 72.566911832026122 -13.607419382356294 10.991082559462171 #
edge $-1 $640 -49.247480345540161 $693 49.247480345540161 $571 $694 forward 7 unknown #
coedge $-1 $577 $572 $676 $695 reversed $578 $-1 #
vertex $-1 $638 $696 #
straight-curve $-1 72.566911832026122 49.247480345540161 0 0 0 -1 I I #
coedge $-1 $697 $575 $577 $646 forward $643 $-1 #
loop $-1 $-1 $642 $618 #
vertex $-1 $576 $698 #
straight-curve $-1 -72.566911832026122 0 23.953269852565438 0 -1 0 I I #
edge $-1 $579 -23.953269852565438 $699 23.953269852565438 $577 $700 forward 7 unknown #
face $-1 $501 $578 $18 $-1 $701 reversed single #
point $-1 -72.566911832026122 49.247480345540161 23.953269852565438 #
face $-1 $702 $703 $19 $-1 $704 reversed single #
loop $-1 $-1 $705 $582 #
plane-surface $-1 0 -77.990263780393647 19.473371673376722 0 1 0 0 0 1 forward_v I I I I #
coedge $-1 $706 $707 $708 $709 forward $583 $-1 #
coedge $-1 $585 $710 $711 $712 forward $508 $-1 #
coedge $-1 $711 $592 $586 $655 forward $594 $-1 #
edge $-1 $667 -94.886964401114966 $656 -81.924777108011696 $654 $713 forward 7 unknown #
vertex $-1 $655 $714 #
straight-curve $-1 57.62041771728672 -13.607419382356294 23.953269852565441 -1 0 0 I I #
edge $-1 $590 -1.8510247448767245 $667 9.6886211698631044 $592 $715 forward 7 unknown #
point $-1 72.566911832026122 -2.0677734676164654 10.991082559462171 #
coedge $-1 $593 $716 $717 $718 reversed $594 $-1 #
face $-1 $-1 $594 $19 $-1 $719 reversed single #
coedge $-1 $710 $596 $720 $721 forward $508 $-1 #
coedge $-1 $717 $722 $596 $664 reversed $723 $-1 #
edge $-1 $665 -72.566911832026122 $724 72.566911832026122 $663 $725 forward 7 unknown #
vertex $-1 $597 $726 #
straight-curve $-1 72.566911832026122 0 23.953269852565438 0 1 0 I I #
vertex $-1 $658 $727 #
straight-curve $-1 -6.4786320475462702 -13.607419382356294 132.71055004158188 -0.54463902268945019 0 0.83867057594974714 I I #
point $-1 64.149169250275662 -13.607419382356294 23.953269852565441 #
vertex $-1 $616 $728 #
straight-curve $-1 0 -49.247480345540161 -23.953269852565438 -1 0 0 I I #
straight-curve $-1 -72.566911832026122 -49.247480345540161 0 0 0 -1 I I #
straight-curve $-1 -72.566911832026122 0 -23.953269852565438 0 1 0 I I #
plane-surface $-1 -72.566911832026122 0 0 1 0 0 0 0 -1 forward_v I I I I #
coedge $-1 $729 $621 $730 $731 forward $555 $-1 #
coedge $-1 $621 $729 $639 $695 forward $555 $-1 #
coedge $-1 $623 $622 $631 $688 reversed $487 $-1 #
coedge $-1 $624 $732 $626 $681 reversed $643 $-1 #
vertex $-1 $681 $733 #
straight-curve $-1 -72.566911832026122 -77.990263780393647 19.473371673376722 0 0 -1 I I #
edge $-1 $679 -14.371391717426746 $685 14.371391717426739 $678 $734 forward 7 unknown #
straight-curve $-1 0 -77.990263780393647 14.993473494188002 -1 0 0 I I #
coedge $-1 $730 $628 $732 $735 forward $619 $-1 #
coedge $-1 $628 $730 $630 $687 reversed $619 $-1 #
vertex $-1 $735 $736 #
straight-curve $-1 0 -49.247480345540161 14.993473494188002 -1 0 0 I I #
edge $-1 $632 -14.993473494188002 $693 23.953269852565438 $630 $737 forward 7 unknown #
edge $-1 $636 -4.4798981791887194 $633 4.4798981791887194 $631 $738 forward 7 unknown #
point $-1 72.566911832026122 -49.247480345540161 14.993473494188002 #
point $-1 72.566911832026122 -77.990263780393647 14.993473494188002 #
straight-curve $-1 0 -77.990263780393647 23.953269852565441 1 0 0 I I #
point $-1 72.566911832026122 -77.990263780393647 23.953269852565441 #
vertex $-1 $687 $739 #
straight-curve $-1 72.566911832026122 0 -23.953269852565438 0 -1 0 I I #
edge $-1 $699 -72.566911832026122 $640 72.566911832026122 $639 $740 forward 7 unknown #
point $-1 72.566911832026122 49.247480345540161 -23.953269852565438 #
coedge $-1 $732 $642 $729 $741 reversed $643 $-1 #
point $-1 -72.566911832026122 -77.990263780393647 23.953269852565441 #
vertex $-1 $695 $742 #
straight-curve $-1 -72.566911832026122 49.247480345540161 0 0 0 -1 I I #
plane-surface $-1 0 49.247480345540161 0 0 -1 0 0 0 -1 forward_v I I I I #
face $-1 $743 $744 $19 $-1 $745 reversed single #
loop $-1 $-1 $746 $649 #
plane-surface $-1 0 0 -23.953269852565438 0 0 1 1 0 0 forward_v I I I I #
coedge $-1 $747 $748 $749 $750 forward $650 $-1 #
coedge $-1 $751 $652 $747 $752 forward $583 $-1 #
coedge $-1 $652 $751 $753 $754 reversed $583 $-1 #
coedge $-1 $755 $756 $652 $709 reversed $594 $-1 #
edge $-1 $757 -14.371391717426739 $758 14.371391717426746 $708 $759 forward 7 unknown #
coedge $-1 $653 $662 $748 $760 forward $508 $-1 #
coedge $-1 $756 $654 $653 $712 reversed $594 $-1 #
edge $-1 $761 -77.990263780393647 $656 -13.607419382356294 $711 $666 forward 7 unknown #
straight-curve $-1 72.566911832026122 -13.607419382356294 105.87804696057714 0 0 1 I I #
point $-1 72.566911832026122 -13.607419382356294 23.953269852565438 #
straight-curve $-1 72.566911832026122 -3.9187982124931899 10.991082559462193 0 -1 0 I I #
coedge $-1 $660 $755 $746 $762 reversed $594 $-1 #
coedge $-1 $763 $663 $660 $718 forward $723 $-1 #
edge $-1 $665 -23.953269852565438 $764 23.953269852565438 $660 $765 forward 7 unknown #
plane-surface $-1 72.566911832026122 0 0 -1 0 0 0 0 1 forward_v I I I I #
coedge $-1 $766 $749 $662 $721 reversed $767 $-1 #
edge $-1 $724 -49.247480345540161 $768 77.990263780393647 $720 $769 forward 7 unknown #
coedge $-1 $663 $763 $766 $770 reversed $723 $-1 #
loop $-1 $-1 $717 $771 #
vertex $-1 $664 $772 #
straight-curve $-1 0 49.247480345540161 23.953269852565438 -1 0 0 I I #
point $-1 72.566911832026122 49.247480345540161 23.953269852565438 #
point $-1 72.566911832026122 -13.607419382356294 10.991082559462171 #
point $-1 -72.566911832026122 -49.247480345540161 -23.953269852565438 #
coedge $-1 $676 $675 $697 $741 forward $555 $-1 #
coedge $-1 $684 $683 $675 $731 reversed $619 $-1 #
edge $-1 $693 -72.566911832026122 $773 72.566911832026122 $730 $774 forward 7 unknown #
coedge $-1 $678 $697 $683 $735 reversed $643 $-1 #
point $-1 -72.566911832026122 -77.990263780393647 14.993473494188002 #
straight-curve $-1 -72.566911832026122 -63.618872062966901 14.993473494188002 0 1 0 I I #
edge $-1 $685 -14.993473494188002 $773 23.953269852565438 $732 $775 forward 7 unknown #
point $-1 -72.566911832026122 -49.247480345540161 14.993473494188002 #
straight-curve $-1 72.566911832026122 -49.247480345540161 0 0 0 -1 I I #
straight-curve $-1 72.566911832026122 -77.990263780393647 19.473371673376722 0 0 -1 I I #
point $-1 72.566911832026122 -49.247480345540161 -23.953269852565438 #
straight-curve $-1 0 49.247480345540161 -23.953269852565438 1 0 0 I I #
edge $-1 $773 -49.247480345540161 $699 49.247480345540161 $697 $776 forward 7 unknown #
point $-1 -72.566911832026122 49.247480345540161 -23.953269852565438 #
face $-1 $771 $767 $19 $-1 $777 reversed single #
loop $-1 $-1 $753 $702 #
plane-surface $-1 0 -49.247480345540161 0 0 1 0 0 0 1 forward_v I I I I #
coedge $-1 $778 $779 $716 $762 forward $703 $-1 #
coedge $-1 $780 $705 $706 $752 reversed $650 $-1 #
coedge $-1 $705 $780 $710 $760 reversed $650 $-1 #
coedge $-1 $720 $781 $705 $750 reversed $767 $-1 #
edge $-1 $768 -4.4798981791887194 $782 4.4798981791887194 $749 $783 forward 7 unknown #
coedge $-1 $707 $706 $781 $784 forward $583 $-1 #
edge $-1 $758 -72.566911832026122 $782 72.566911832026122 $747 $785 forward 7 unknown #
coedge $-1 $786 $787 $707 $754 forward $744 $-1 #
edge $-1 $757 -72.566911832026122 $788 72.566911832026122 $753 $789 forward 7 unknown #
coedge $-1 $716 $708 $787 $790 forward $594 $-1 #
coedge $-1 $708 $711 $780 $791 forward $594 $-1 #
vertex $-1 $790 $792 #
vertex $-1 $791 $793 #
straight-curve $-1 72.566911832026122 -63.618872062966901 14.993473494188002 0 -1 0 I I #
edge $-1 $768 -72.566911832026122 $761 72.566911832026122 $748 $794 forward 7 unknown #
vertex $-1 $712 $795 #
edge $-1 $764 -49.247480345540161 $796 49.247480345540161 $716 $797 forward 7 unknown #
coedge $-1 $722 $717 $779 $798 reversed $723 $-1 #
vertex $-1 $762 $799 #
straight-curve $-1 72.566911832026122 49.247480345540161 0 0 0 -1 I I #
coedge $-1 $800 $720 $722 $770 forward $767 $-1 #
loop $-1 $-1 $766 $743 #
vertex $-1 $721 $801 #
straight-curve $-1 -72.566911832026122 0 23.953269852565438 0 -1 0 I I #
edge $-1 $724 -23.953269852565438 $802 23.953269852565438 $722 $803 forward 7 unknown #
face $-1 $661 $723 $19 $-1 $804 reversed single #
point $-1 -72.566911832026122 49.247480345540161 23.953269852565438 #
vertex $-1 $741 $805 #
straight-curve $-1 0 -49.247480345540161 -23.953269852565438 -1 0 0 I I #
straight-curve $-1 -72.566911832026122 -49.247480345540161 0 0 0 -1 I I #
straight-curve $-1 -72.566911832026122 0 -23.953269852565438 0 1 0 I I #
plane-surface $-1 -72.566911832026122 0 0 1 0 0 0 0 -1 forward_v I I I I #
coedge $-1 $806 $746 $807 $808 forward $703 $-1 #
coedge $-1 $746 $806 $763 $798 forward $703 $-1 #
coedge $-1 $748 $747 $756 $791 reversed $650 $-1 #
coedge $-1 $749 $809 $751 $784 reversed $767 $-1 #
vertex $-1 $784 $810 #
straight-curve $-1 -72.566911832026122 -77.990263780393647 19.473371673376722 0 0 -1 I I #
edge $-1 $782 -14.371391717426746 $788 14.371391717426739 $781 $811 forward 7 unknown #
straight-curve $-1 0 -77.990263780393647 14.993473494188002 -1 0 0 I I #
coedge $-1 $807 $753 $809 $812 forward $744 $-1 #
coedge $-1 $753 $807 $755 $790 reversed $744 $-1 #
vertex $-1 $812 $813 #
straight-curve $-1 0 -49.247480345540161 14.993473494188002 -1 0 0 I I #
edge $-1 $757 -14.993473494188002 $796 23.953269852565438 $755 $814 forward 7 unknown #
edge $-1 $761 -4.4798981791887194 $758 4.4798981791887194 $756 $815 forward 7 unknown #
point $-1 72.566911832026122 -49.247480345540161 14.993473494188002 #
point $-1 72.566911832026122 -77.990263780393647 14.993473494188002 #
straight-curve $-1 0 -77.990263780393647 23.953269852565441 1 0 0 I I #
point $-1 72.566911832026122 -77.990263780393647 23.953269852565441 #
vertex $-1 $790 $816 #
straight-curve $-1 72.566911832026122 0 -23.953269852565438 0 -1 0 I I #
edge $-1 $802 -72.566911832026122 $764 72.566911832026122 $763 $817 forward 7 unknown #
point $-1 72.566911832026122 49.247480345540161 -23.953269852565438 #
coedge $-1 $809 $766 $806 $818 reversed $767 $-1 #
point $-1 -72.566911832026122 -77.990263780393647 23.953269852565441 #
vertex $-1 $798 $819 #
straight-curve $-1 -72.566911832026122 49.247480345540161 0 0 0 -1 I I #
plane-surface $-1 0 49.247480345540161 0 0 -1 0 0 0 -1 forward_v I I I I #
point $-1 -72.566911832026122 -49.247480345540161 -23.953269852565438 #
coedge $-1 $779 $778 $800 $818 forward $703 $-1 #
coedge $-1 $787 $786 $778 $808 reversed $744 $-1 #
edge $-1 $796 -72.566911832026122 $820 72.566911832026122 $807 $821 forward 7 unknown #
coedge $-1 $781 $800 $786 $812 reversed $767 $-1 #
point $-1 -72.566911832026122 -77.990263780393647 14.993473494188002 #
straight-curve $-1 -72.566911832026122 -63.618872062966901 14.993473494188002 0 1 0 I I #
edge $-1 $788 -14.993473494188002 $820 23.953269852565438 $809 $822 forward 7 unknown #
point $-1 -72.566911832026122 -49.247480345540161 14.993473494188002 #
straight-curve $-1 72.566911832026122 -49.247480345540161 0 0 0 -1 I I #
straight-curve $-1 72.566911832026122 -77.990263780393647 19.473371673376722 0 0 -1 I I #
point $-1 72.566911832026122 -49.247480345540161 -23.953269852565438 #
straight-curve $-1 0 49.247480345540161 -23.953269852565438 1 0 0 I I #
edge $-1 $820 -49.247480345540161 $802 49.247480345540161 $800 $823 forward 7 unknown #
point $-1 -72.566911832026122 49.247480345540161 -23.953269852565438 #
vertex $-1 $818 $824 #
straight-curve $-1 0 -49.247480345540161 -23.953269852565438 -1 0 0 I I #
straight-curve $-1 -72.566911832026122 -49.247480345540161 0 0 0 -1 I I #
straight-curve $-1 -72.566911832026122 0 -23.953269852565438 0 1 0 I I #
point $-1 -72.566911832026122 -49.247480345540161 -23.953269852565438 #
End-of-ACIS-data 