500 0 17 0           
7 Unknown 11 ACIS 5.0 NT 24 Fri Mar 26 14:39:24 1999 
-1 9.9999999999999995e-007 1e-010 
body $-1 $17 $-1 $18 #
body $-1 $19 $-1 $20 #
body $-1 $21 $-1 $22 #
body $-1 $23 $-1 $24 #
body $-1 $25 $-1 $26 #
body $-1 $27 $-1 $28 #
body $-1 $29 $-1 $30 #
body $-1 $31 $-1 $32 #
body $-1 $33 $-1 $34 #
body $-1 $35 $-1 $36 #
body $-1 $37 $-1 $38 #
body $-1 $39 $-1 $40 #
body $-1 $41 $-1 $42 #
body $-1 $43 $-1 $44 #
body $-1 $45 $-1 $46 #
body $-1 $47 $-1 $48 #
body $-1 $49 $-1 $50 #
lump $-1 $-1 $51 $0 #
transform $-1 1 0 0 0 1 0 0 0 1 69.070711386455883 43.364442110726351 20.129851580102027 1 rotate no_reflect no_shear #
lump $-1 $-1 $52 $1 #
transform $-1 1 0 0 0 1 0 0 0 1 69.070711386455883 43.364442110726351 20.129851580102027 1 rotate no_reflect no_shear #
lump $-1 $-1 $53 $2 #
transform $-1 1 0 0 0 1 0 0 0 1 69.070711386455883 43.364442110726351 20.129851580102027 1 rotate no_reflect no_shear #
lump $-1 $-1 $54 $3 #
transform $-1 1 0 0 0 1 0 0 0 1 69.070711386455883 43.364442110726351 20.129851580102027 1 rotate no_reflect no_shear #
lump $-1 $-1 $55 $4 #
transform $-1 1 0 0 0 1 0 0 0 1 69.070711386455883 43.364442110726351 20.129851580102027 1 rotate no_reflect no_shear #
lump $-1 $-1 $56 $5 #
transform $-1 1 0 0 0 1 0 0 0 1 69.070711386455883 43.364442110726351 20.129851580102027 1 rotate no_reflect no_shear #
lump $-1 $-1 $57 $6 #
transform $-1 1 0 0 0 1 0 0 0 1 69.070711386455883 43.364442110726351 20.129851580102027 1 rotate no_reflect no_shear #
lump $-1 $-1 $58 $7 #
transform $-1 1 0 0 0 1 0 0 0 1 69.070711386455883 43.364442110726351 20.129851580102027 1 rotate no_reflect no_shear #
lump $-1 $-1 $59 $8 #
transform $-1 1 0 0 0 1 0 0 0 1 69.070711386455883 43.364442110726351 20.129851580102027 1 rotate no_reflect no_shear #
lump $-1 $-1 $60 $9 #
transform $-1 1 0 0 0 1 0 0 0 1 69.070711386455883 43.364442110726351 20.129851580102027 1 rotate no_reflect no_shear #
lump $-1 $-1 $61 $10 #
transform $-1 1 0 0 0 1 0 0 0 1 69.070711386455883 43.364442110726351 20.129851580102027 1 rotate no_reflect no_shear #
lump $-1 $-1 $62 $11 #
transform $-1 1 0 0 0 1 0 0 0 1 69.070711386455883 43.364442110726351 20.129851580102027 1 rotate no_reflect no_shear #
lump $-1 $-1 $63 $12 #
transform $-1 1 0 0 0 1 0 0 0 1 69.070711386455883 43.364442110726351 20.129851580102027 1 rotate no_reflect no_shear #
lump $-1 $-1 $64 $13 #
transform $-1 1 0 0 0 1 0 0 0 1 69.070711386455883 43.364442110726351 20.129851580102027 1 rotate no_reflect no_shear #
lump $-1 $-1 $65 $14 #
transform $-1 1 0 0 0 1 0 0 0 1 69.070711386455883 43.364442110726351 20.129851580102027 1 rotate no_reflect no_shear #
lump $-1 $-1 $66 $15 #
transform $-1 1 0 0 0 1 0 0 0 1 69.070711386455883 43.364442110726351 20.129851580102027 1 rotate no_reflect no_shear #
lump $-1 $-1 $67 $16 #
transform $-1 1 0 0 0 1 0 0 0 1 69.070711386455883 43.364442110726351 20.129851580102027 1 rotate no_reflect no_shear #
shell $-1 $-1 $-1 $68 $-1 $17 #
shell $-1 $-1 $-1 $69 $-1 $19 #
shell $-1 $-1 $-1 $70 $-1 $21 #
shell $-1 $-1 $-1 $71 $-1 $23 #
shell $-1 $-1 $-1 $72 $-1 $25 #
shell $-1 $-1 $-1 $73 $-1 $27 #
shell $-1 $-1 $-1 $74 $-1 $29 #
shell $-1 $-1 $-1 $75 $-1 $31 #
shell $-1 $-1 $-1 $76 $-1 $33 #
shell $-1 $-1 $-1 $77 $-1 $35 #
shell $-1 $-1 $-1 $78 $-1 $37 #
shell $-1 $-1 $-1 $79 $-1 $39 #
shell $-1 $-1 $-1 $80 $-1 $41 #
shell $-1 $-1 $-1 $81 $-1 $43 #
shell $-1 $-1 $-1 $82 $-1 $45 #
shell $-1 $-1 $-1 $83 $-1 $47 #
shell $-1 $-1 $-1 $84 $-1 $49 #
face $-1 $85 $86 $51 $-1 $87 forward single #
face $-1 $88 $89 $52 $-1 $90 forward single #
face $-1 $91 $92 $53 $-1 $93 reversed single #
face $-1 $94 $95 $54 $-1 $96 forward single #
face $-1 $97 $98 $55 $-1 $99 forward single #
face $-1 $100 $101 $56 $-1 $102 reversed single #
face $-1 $103 $104 $57 $-1 $105 forward single #
face $-1 $106 $107 $58 $-1 $108 forward single #
face $-1 $109 $110 $59 $-1 $111 reversed single #
face $-1 $112 $113 $60 $-1 $114 forward single #
face $-1 $115 $116 $61 $-1 $117 forward single #
face $-1 $118 $119 $62 $-1 $120 reversed single #
face $-1 $121 $122 $63 $-1 $123 forward single #
face $-1 $124 $125 $64 $-1 $126 forward single #
face $-1 $127 $128 $65 $-1 $129 reversed single #
face $-1 $130 $131 $66 $-1 $132 forward single #
face $-1 $133 $134 $67 $-1 $135 forward single #
face $-1 $136 $137 $51 $-1 $138 reversed single #
loop $-1 $-1 $139 $68 #
plane-surface $-1 0 0 20.129851580102027 0 0 1 1 0 0 forward_v I I I I #
face $-1 $140 $141 $52 $-1 $142 reversed single #
loop $-1 $-1 $143 $69 #
plane-surface $-1 0 -43.364442110726351 0 0 1 0 0 0 1 forward_v I I I I #
face $-1 $144 $145 $53 $-1 $146 reversed single #
loop $-1 $-1 $147 $70 #
plane-surface $-1 -146.31841568038413 -12.915713464398568 125.14308647495197 0 1 0 -0.55919291073839883 0 0.82903756765294845 forward_v I I I I #
face $-1 $148 $149 $54 $-1 $150 forward single #
loop $-1 $151 $152 $71 #
cone-surface $-1 -61.740652397571466 -11.001323300556884 14.959735679814314 0.55919291073839883 0 -0.82903756765294845 0.41451878382647422 0 0.27959645536919941 1 I I 0 1 0.5 forward I I I I #
face $-1 $153 $154 $55 $-1 $155 forward single #
loop $-1 $156 $157 $72 #
cone-surface $-1 -61.740652397571466 -8.1297380547943519 14.959735679814314 0.55919291073839883 0 -0.82903756765294845 0.41451878382647422 0 0.27959645536919941 1 I I 0 1 0.5 forward I I I I #
face $-1 $158 $159 $56 $-1 $160 reversed single #
loop $-1 $-1 $161 $73 #
plane-surface $-1 -146.31841568038413 0.33547283823429197 125.14308647495197 0 1 0 -0.55919291073839883 0 0.82903756765294845 forward_v I I I I #
face $-1 $162 $163 $57 $-1 $164 forward single #
loop $-1 $165 $166 $74 #
cone-surface $-1 -61.740652397571466 2.2498630020759762 14.959735679814314 0.55919291073839883 0 -0.82903756765294845 0.41451878382647422 0 0.27959645536919941 1 I I 0 1 0.5 forward I I I I #
face $-1 $167 $168 $58 $-1 $169 forward single #
loop $-1 $170 $171 $75 #
cone-surface $-1 -61.740652397571466 5.1214482478385079 14.959735679814314 0.55919291073839883 0 -0.82903756765294845 0.41451878382647422 0 0.27959645536919941 1 I I 0 1 0.5 forward I I I I #
face $-1 $172 $173 $59 $-1 $174 reversed single #
loop $-1 $-1 $175 $76 #
plane-surface $-1 -146.31841568038413 13.586659140867152 125.14308647495197 0 1 0 -0.55919291073839883 0 0.82903756765294845 forward_v I I I I #
face $-1 $176 $177 $60 $-1 $178 forward single #
loop $-1 $179 $180 $77 #
cone-surface $-1 -61.740652397571466 15.501049304708836 14.959735679814314 0.55919291073839883 0 -0.82903756765294845 0.41451878382647422 0 0.27959645536919941 1 I I 0 1 0.5 forward I I I I #
face $-1 $181 $182 $61 $-1 $183 forward single #
loop $-1 $184 $185 $78 #
cone-surface $-1 -61.740652397571466 18.372634550471368 14.959735679814314 0.55919291073839883 0 -0.82903756765294845 0.41451878382647422 0 0.27959645536919941 1 I I 0 1 0.5 forward I I I I #
face $-1 $186 $187 $62 $-1 $188 reversed single #
loop $-1 $-1 $189 $79 #
plane-surface $-1 -146.31841568038413 26.837845443500012 125.14308647495197 0 1 0 -0.55919291073839883 0 0.82903756765294845 forward_v I I I I #
face $-1 $190 $191 $63 $-1 $192 forward single #
loop $-1 $193 $194 $80 #
cone-surface $-1 -61.740652397571466 28.752235607341696 14.959735679814314 0.55919291073839883 0 -0.82903756765294845 0.41451878382647422 0 0.27959645536919941 1 I I 0 1 0.5 forward I I I I #
face $-1 $195 $196 $64 $-1 $197 forward single #
loop $-1 $198 $199 $81 #
cone-surface $-1 -61.740652397571466 31.623820853104228 14.959735679814314 0.55919291073839883 0 -0.82903756765294845 0.41451878382647422 0 0.27959645536919941 1 I I 0 1 0.5 forward I I I I #
face $-1 $200 $201 $65 $-1 $202 reversed single #
loop $-1 $-1 $203 $82 #
plane-surface $-1 28.452778713267136 -9.1290766102912286 207.49241117136302 0 -1 0 -0.54463904215088732 0 -0.83867056331134215 forward_v I I I I #
face $-1 $204 $205 $66 $-1 $206 forward single #
loop $-1 $207 $208 $83 #
cone-surface $-1 65.12759272163639 -18.85255371592536 16.615100735839185 -0.54463904215088732 0 -0.83867056331134215 0.83867056331134215 0 -0.54463904215088732 1 I I 0 1 1 forward I I I I #
face $-1 $209 $210 $67 $-1 $211 forward single #
loop $-1 $212 $213 $84 #
cone-surface $-1 65.12759272163639 -13.018467452544883 16.615100735839185 -0.54463904215088732 0 -0.83867056331134215 0.83867056331134215 0 -0.54463904215088732 1 I I 0 1 1 forward I I I I #
face $-1 $214 $215 $51 $-1 $216 reversed single #
loop $-1 $-1 $217 $85 #
plane-surface $-1 0 0 -20.129851580102027 0 0 1 1 0 0 forward_v I I I I #
coedge $-1 $218 $219 $220 $221 forward $86 $-1 #
face $-1 $222 $223 $52 $-1 $224 forward single #
loop $-1 $-1 $225 $88 #
plane-surface $-1 -69.070711386455883 0 0 1 0 0 0 0 -1 forward_v I I I I #
coedge $-1 $226 $227 $228 $229 forward $89 $-1 #
face $-1 $230 $231 $53 $-1 $232 reversed single #
loop $-1 $-1 $233 $91 #
plane-surface $-1 -69.070711386455869 -9.5655306776756177 10.618657347179578 -0.55919291073839883 0 0.82903756765294845 0.82903756765294845 0 0.55919291073839883 forward_v I I I I #
coedge $-1 $234 $235 $236 $237 reversed $92 $-1 #
face $-1 $-1 $238 $54 $-1 $239 forward single #
loop $-1 $240 $241 $94 #
cone-surface $-1 -61.321257714517664 -11.001323300556884 14.337957504074602 0.55919291073839883 0 -0.82903756765294845 0.20725939191323711 0 0.13979822768459971 1 I I -0.70710678118654746 0.70710678118654746 0.25 forward I I I I #
loop $-1 $-1 $242 $71 #
coedge $-1 $152 $152 $243 $244 reversed $95 $-1 #
face $-1 $-1 $245 $55 $-1 $246 forward single #
loop $-1 $247 $248 $97 #
cone-surface $-1 -61.321257714517664 -8.1297380547943519 14.337957504074602 0.55919291073839883 0 -0.82903756765294845 0.20725939191323711 0 0.13979822768459971 1 I I -0.70710678118654746 0.70710678118654746 0.25 forward I I I I #
loop $-1 $-1 $249 $72 #
coedge $-1 $157 $157 $250 $251 reversed $98 $-1 #
face $-1 $252 $253 $56 $-1 $254 reversed single #
loop $-1 $-1 $255 $100 #
plane-surface $-1 -69.070711386455869 3.6856556249572421 10.618657347179578 -0.55919291073839883 0 0.82903756765294845 0.82903756765294845 0 0.55919291073839883 forward_v I I I I #
coedge $-1 $256 $257 $258 $259 reversed $101 $-1 #
face $-1 $-1 $260 $57 $-1 $261 forward single #
loop $-1 $262 $263 $103 #
cone-surface $-1 -61.321257714517664 2.2498630020759762 14.337957504074602 0.55919291073839883 0 -0.82903756765294845 0.20725939191323711 0 0.13979822768459971 1 I I -0.70710678118654746 0.70710678118654746 0.25 forward I I I I #
loop $-1 $-1 $264 $74 #
coedge $-1 $166 $166 $265 $266 reversed $104 $-1 #
face $-1 $-1 $267 $58 $-1 $268 forward single #
loop $-1 $269 $270 $106 #
cone-surface $-1 -61.321257714517664 5.1214482478385079 14.337957504074602 0.55919291073839883 0 -0.82903756765294845 0.20725939191323711 0 0.13979822768459971 1 I I -0.70710678118654746 0.70710678118654746 0.25 forward I I I I #
loop $-1 $-1 $271 $75 #
coedge $-1 $171 $171 $272 $273 reversed $107 $-1 #
face $-1 $274 $275 $59 $-1 $276 reversed single #
loop $-1 $-1 $277 $109 #
plane-surface $-1 -69.070711386455869 16.936841927590102 10.618657347179578 -0.55919291073839883 0 0.82903756765294845 0.82903756765294845 0 0.55919291073839883 forward_v I I I I #
coedge $-1 $278 $279 $280 $281 reversed $110 $-1 #
face $-1 $-1 $282 $60 $-1 $283 forward single #
loop $-1 $284 $285 $112 #
cone-surface $-1 -61.321257714517664 15.501049304708836 14.337957504074602 0.55919291073839883 0 -0.82903756765294845 0.20725939191323711 0 0.13979822768459971 1 I I -0.70710678118654746 0.70710678118654746 0.25 forward I I I I #
loop $-1 $-1 $286 $77 #
coedge $-1 $180 $180 $287 $288 reversed $113 $-1 #
face $-1 $-1 $289 $61 $-1 $290 forward single #
loop $-1 $291 $292 $115 #
cone-surface $-1 -61.321257714517664 18.372634550471368 14.337957504074602 0.55919291073839883 0 -0.82903756765294845 0.20725939191323711 0 0.13979822768459971 1 I I -0.70710678118654746 0.70710678118654746 0.25 forward I I I I #
loop $-1 $-1 $293 $78 #
coedge $-1 $185 $185 $294 $295 reversed $116 $-1 #
face $-1 $296 $297 $62 $-1 $298 reversed single #
loop $-1 $-1 $299 $118 #
plane-surface $-1 -69.070711386455869 30.188028230222962 10.618657347179578 -0.55919291073839883 0 0.82903756765294845 0.82903756765294845 0 0.55919291073839883 forward_v I I I I #
coedge $-1 $300 $301 $302 $303 reversed $119 $-1 #
face $-1 $-1 $304 $63 $-1 $305 forward single #
loop $-1 $306 $307 $121 #
cone-surface $-1 -61.321257714517664 28.752235607341696 14.337957504074602 0.55919291073839883 0 -0.82903756765294845 0.20725939191323711 0 0.13979822768459971 1 I I -0.70710678118654746 0.70710678118654746 0.25 forward I I I I #
loop $-1 $-1 $308 $80 #
coedge $-1 $194 $194 $309 $310 reversed $122 $-1 #
face $-1 $-1 $311 $64 $-1 $312 forward single #
loop $-1 $313 $314 $124 #
cone-surface $-1 -61.321257714517664 31.623820853104228 14.337957504074602 0.55919291073839883 0 -0.82903756765294845 0.20725939191323711 0 0.13979822768459971 1 I I -0.70710678118654746 0.70710678118654746 0.25 forward I I I I #
loop $-1 $-1 $315 $81 #
coedge $-1 $199 $199 $316 $317 reversed $125 $-1 #
face $-1 $318 $319 $65 $-1 $320 reversed single #
loop $-1 $-1 $321 $127 #
plane-surface $-1 -46.784433467132303 -15.935510584235121 91.637266317774831 0.54463904215088732 0 0.83867056331134215 0.83867056331134215 0 -0.54463904215088732 forward_v I I I I #
coedge $-1 $322 $323 $324 $325 reversed $128 $-1 #
face $-1 $-1 $326 $66 $-1 $327 forward single #
loop $-1 $328 $329 $130 #
cone-surface $-1 63.783846684338954 -18.85255371592536 14.545913331283977 -0.54463904215088732 0 -0.83867056331134215 0.41933528165567108 0 -0.27231952107544366 1 I I -0.70710678118654746 0.70710678118654746 0.5 forward I I I I #
loop $-1 $-1 $330 $83 #
coedge $-1 $208 $208 $331 $332 reversed $131 $-1 #
face $-1 $-1 $333 $67 $-1 $334 forward single #
loop $-1 $335 $336 $133 #
cone-surface $-1 63.783846684338954 -13.018467452544883 14.545913331283977 -0.54463904215088732 0 -0.83867056331134215 0.41933528165567108 0 -0.27231952107544366 1 I I -0.70710678118654746 0.70710678118654746 0.5 forward I I I I #
loop $-1 $-1 $337 $84 #
coedge $-1 $213 $213 $338 $339 reversed $134 $-1 #
face $-1 $340 $341 $51 $-1 $342 reversed single #
loop $-1 $-1 $343 $136 #
plane-surface $-1 0 -43.364442110726351 0 0 1 0 0 0 1 forward_v I I I I #
coedge $-1 $344 $345 $346 $347 forward $137 $-1 #
coedge $-1 $348 $139 $349 $350 forward $86 $-1 #
coedge $-1 $139 $348 $351 $352 forward $86 $-1 #
coedge $-1 $353 $354 $139 $221 reversed $355 $-1 #
edge $-1 $356 -43.364442110726351 $357 43.364442110726351 $220 $358 forward 7 unknown #
face $-1 $359 $360 $52 $-1 $361 reversed single #
loop $-1 $-1 $362 $140 #
plane-surface $-1 0 -53.675690887000016 -2.8662361558540583 0 0 1 1 0 0 forward_v I I I I #
coedge $-1 $363 $364 $227 $365 forward $141 $-1 #
coedge $-1 $366 $143 $367 $368 reversed $89 $-1 #
coedge $-1 $143 $366 $225 $365 reversed $89 $-1 #
coedge $-1 $369 $362 $143 $229 reversed $223 $-1 #
edge $-1 $370 -69.070711386455883 $371 69.070711386455883 $228 $372 forward 7 unknown #
face $-1 $373 $374 $53 $-1 $375 forward single #
loop $-1 $-1 $376 $144 #
plane-surface $-1 -146.31841568038413 -6.2153478909526676 125.14308647495197 0 -1 0 0.55919291073839883 0 -0.82903756765294845 forward_v I I I I #
coedge $-1 $377 $378 $379 $380 reversed $145 $-1 #
coedge $-1 $235 $147 $381 $382 reversed $92 $-1 #
coedge $-1 $147 $234 $377 $383 reversed $92 $-1 #
coedge $-1 $379 $384 $147 $237 forward $374 $-1 #
edge $-1 $385 4.0884964537361839 $386 18.189421520766594 $236 $387 forward 7 unknown #
loop $-1 $-1 $243 $148 #
plane-surface $-1 -69.070711386455869 -9.5655306776756177 10.618657347179578 -0.55919291073839883 0 0.82903756765294845 0.82903756765294845 0 0.55919291073839883 forward_v I I I I #
loop $-1 $-1 $388 $94 #
coedge $-1 $241 $241 $242 $389 reversed $149 $-1 #
coedge $-1 $242 $242 $241 $389 forward $151 $-1 #
coedge $-1 $243 $243 $152 $244 forward $238 $-1 #
edge $-1 $390 0 $390 6.2831853071796004 $243 $391 forward 7 unknown #
loop $-1 $-1 $250 $153 #
plane-surface $-1 -69.070711386455869 -9.5655306776756177 10.618657347179578 -0.55919291073839883 0 0.82903756765294845 0.82903756765294845 0 0.55919291073839883 forward_v I I I I #
loop $-1 $-1 $392 $97 #
coedge $-1 $248 $248 $249 $393 reversed $154 $-1 #
coedge $-1 $249 $249 $248 $393 forward $156 $-1 #
coedge $-1 $250 $250 $157 $251 forward $245 $-1 #
edge $-1 $394 0 $394 6.2831853071796004 $250 $395 forward 7 unknown #
face $-1 $396 $397 $56 $-1 $398 forward single #
loop $-1 $-1 $399 $158 #
plane-surface $-1 -146.31841568038413 7.0358384116801922 125.14308647495197 0 -1 0 0.55919291073839883 0 -0.82903756765294845 forward_v I I I I #
coedge $-1 $400 $401 $402 $403 reversed $159 $-1 #
coedge $-1 $257 $161 $404 $405 reversed $101 $-1 #
coedge $-1 $161 $256 $400 $406 reversed $101 $-1 #
coedge $-1 $402 $407 $161 $259 forward $397 $-1 #
edge $-1 $408 4.0884964537361839 $409 18.189421520766594 $258 $410 forward 7 unknown #
loop $-1 $-1 $265 $162 #
plane-surface $-1 -69.070711386455869 3.6856556249572421 10.618657347179578 -0.55919291073839883 0 0.82903756765294845 0.82903756765294845 0 0.55919291073839883 forward_v I I I I #
loop $-1 $-1 $411 $103 #
coedge $-1 $263 $263 $264 $412 reversed $163 $-1 #
coedge $-1 $264 $264 $263 $412 forward $165 $-1 #
coedge $-1 $265 $265 $166 $266 forward $260 $-1 #
edge $-1 $413 0 $413 6.2831853071796004 $265 $414 forward 7 unknown #
loop $-1 $-1 $272 $167 #
plane-surface $-1 -69.070711386455869 3.6856556249572421 10.618657347179578 -0.55919291073839883 0 0.82903756765294845 0.82903756765294845 0 0.55919291073839883 forward_v I I I I #
loop $-1 $-1 $415 $106 #
coedge $-1 $270 $270 $271 $416 reversed $168 $-1 #
coedge $-1 $271 $271 $270 $416 forward $170 $-1 #
coedge $-1 $272 $272 $171 $273 forward $267 $-1 #
edge $-1 $417 0 $417 6.2831853071796004 $272 $418 forward 7 unknown #
face $-1 $419 $420 $59 $-1 $421 forward single #
loop $-1 $-1 $422 $172 #
plane-surface $-1 -146.31841568038413 20.287024714313052 125.14308647495197 0 -1 0 0.55919291073839883 0 -0.82903756765294845 forward_v I I I I #
coedge $-1 $423 $424 $425 $426 reversed $173 $-1 #
coedge $-1 $279 $175 $427 $428 reversed $110 $-1 #
coedge $-1 $175 $278 $423 $429 reversed $110 $-1 #
coedge $-1 $425 $430 $175 $281 forward $420 $-1 #
edge $-1 $431 4.0884964537361839 $432 18.189421520766594 $280 $433 forward 7 unknown #
loop $-1 $-1 $287 $176 #
plane-surface $-1 -69.070711386455869 16.936841927590102 10.618657347179578 -0.55919291073839883 0 0.82903756765294845 0.82903756765294845 0 0.55919291073839883 forward_v I I I I #
loop $-1 $-1 $434 $112 #
coedge $-1 $285 $285 $286 $435 reversed $177 $-1 #
coedge $-1 $286 $286 $285 $435 forward $179 $-1 #
coedge $-1 $287 $287 $180 $288 forward $282 $-1 #
edge $-1 $436 0 $436 6.2831853071796004 $287 $437 forward 7 unknown #
loop $-1 $-1 $294 $181 #
plane-surface $-1 -69.070711386455869 16.936841927590102 10.618657347179578 -0.55919291073839883 0 0.82903756765294845 0.82903756765294845 0 0.55919291073839883 forward_v I I I I #
loop $-1 $-1 $438 $115 #
coedge $-1 $292 $292 $293 $439 reversed $182 $-1 #
coedge $-1 $293 $293 $292 $439 forward $184 $-1 #
coedge $-1 $294 $294 $185 $295 forward $289 $-1 #
edge $-1 $440 0 $440 6.2831853071796004 $294 $441 forward 7 unknown #
face $-1 $442 $443 $62 $-1 $444 forward single #
loop $-1 $-1 $445 $186 #
plane-surface $-1 -146.31841568038413 33.538211016945908 125.14308647495197 0 -1 0 0.55919291073839883 0 -0.82903756765294845 forward_v I I I I #
coedge $-1 $446 $447 $448 $449 reversed $187 $-1 #
coedge $-1 $301 $189 $450 $451 reversed $119 $-1 #
coedge $-1 $189 $300 $446 $452 reversed $119 $-1 #
coedge $-1 $448 $453 $189 $303 forward $443 $-1 #
edge $-1 $454 4.0884964537361839 $455 18.189421520766594 $302 $456 forward 7 unknown #
loop $-1 $-1 $309 $190 #
plane-surface $-1 -69.070711386455869 30.188028230222962 10.618657347179578 -0.55919291073839883 0 0.82903756765294845 0.82903756765294845 0 0.55919291073839883 forward_v I I I I #
loop $-1 $-1 $457 $121 #
coedge $-1 $307 $307 $308 $458 reversed $191 $-1 #
coedge $-1 $308 $308 $307 $458 forward $193 $-1 #
coedge $-1 $309 $309 $194 $310 forward $304 $-1 #
edge $-1 $459 0 $459 6.2831853071796004 $309 $460 forward 7 unknown #
loop $-1 $-1 $316 $195 #
plane-surface $-1 -69.070711386455869 30.188028230222962 10.618657347179578 -0.55919291073839883 0 0.82903756765294845 0.82903756765294845 0 0.55919291073839883 forward_v I I I I #
loop $-1 $-1 $461 $124 #
coedge $-1 $314 $314 $315 $462 reversed $196 $-1 #
coedge $-1 $315 $315 $314 $462 forward $198 $-1 #
coedge $-1 $316 $316 $199 $317 forward $311 $-1 #
edge $-1 $463 0 $463 6.2831853071796004 $316 $464 forward 7 unknown #
face $-1 $465 $466 $65 $-1 $467 reversed single #
loop $-1 $-1 $468 $200 #
plane-surface $-1 28.452778713267136 -22.741944558179014 207.49241117136302 0 1 0 0.54463904215088732 0 0.83867056331134215 forward_v I I I I #
coedge $-1 $469 $470 $471 $472 reversed $201 $-1 #
coedge $-1 $323 $203 $473 $474 reversed $128 $-1 #
coedge $-1 $203 $322 $469 $475 reversed $128 $-1 #
coedge $-1 $471 $476 $203 $325 forward $477 $-1 #
edge $-1 $478 -54.844322029822315 $479 -49.10093773262728 $324 $480 forward 7 unknown #
loop $-1 $-1 $331 $204 #
plane-surface $-1 -46.784433467132303 -15.935510584235121 91.637266317774831 0.54463904215088732 0 0.83867056331134215 0.83867056331134215 0 -0.54463904215088732 forward_v I I I I #
loop $-1 $-1 $481 $130 #
coedge $-1 $329 $329 $330 $482 reversed $205 $-1 #
coedge $-1 $330 $330 $329 $482 forward $207 $-1 #
coedge $-1 $331 $331 $208 $332 forward $326 $-1 #
edge $-1 $483 0 $483 6.2831853071796004 $331 $484 forward 7 unknown #
loop $-1 $-1 $338 $209 #
plane-surface $-1 -46.784433467132303 -15.935510584235121 91.637266317774831 0.54463904215088732 0 0.83867056331134215 0.83867056331134215 0 -0.54463904215088732 forward_v I I I I #
loop $-1 $-1 $485 $133 #
coedge $-1 $336 $336 $337 $486 reversed $210 $-1 #
coedge $-1 $337 $337 $336 $486 forward $212 $-1 #
coedge $-1 $338 $338 $213 $339 forward $333 $-1 #
edge $-1 $487 0 $487 6.2831853071796004 $338 $488 forward 7 unknown #
face $-1 $489 $490 $51 $-1 $491 reversed single #
loop $-1 $-1 $492 $214 #
plane-surface $-1 -69.070711386455883 0 0 1 0 0 0 0 -1 forward_v I I I I #
coedge $-1 $493 $351 $494 $495 forward $215 $-1 #
coedge $-1 $496 $217 $493 $497 forward $137 $-1 #
coedge $-1 $217 $496 $498 $499 forward $137 $-1 #
coedge $-1 $354 $353 $217 $347 reversed $355 $-1 #
edge $-1 $500 -43.364442110726351 $501 43.364442110726351 $346 $502 forward 7 unknown #
coedge $-1 $219 $218 $503 $504 forward $86 $-1 #
coedge $-1 $505 $506 $218 $350 reversed $490 $-1 #
edge $-1 $357 -69.070711386455883 $507 69.070711386455883 $349 $508 forward 7 unknown #
coedge $-1 $343 $509 $219 $352 reversed $215 $-1 #
edge $-1 $510 -69.070711386455883 $356 69.070711386455883 $351 $511 forward 7 unknown #
coedge $-1 $346 $220 $509 $512 forward $355 $-1 #
coedge $-1 $220 $346 $505 $513 reversed $355 $-1 #
loop $-1 $-1 $353 $489 #
vertex $-1 $221 $514 #
vertex $-1 $221 $515 #
straight-curve $-1 69.070711386455883 0 20.129851580102027 0 1 0 I I #
face $-1 $516 $517 $52 $-1 $518 reversed single #
loop $-1 $-1 $519 $222 #
plane-surface $-1 0 -53.675690887000016 -7.5072767377516625 0 0 1 1 0 0 forward_v I I I I #
coedge $-1 $228 $520 $521 $522 forward $223 $-1 #
coedge $-1 $523 $225 $524 $525 reversed $141 $-1 #
coedge $-1 $225 $523 $369 $526 reversed $141 $-1 #
edge $-1 $370 2.8662361558540583 $527 7.5072767377516625 $225 $528 forward 7 unknown #
coedge $-1 $227 $226 $529 $530 forward $89 $-1 #
coedge $-1 $521 $531 $226 $368 forward $532 $-1 #
edge $-1 $533 -7.5072767377516625 $371 -2.8662361558540583 $367 $534 forward 7 unknown #
coedge $-1 $520 $228 $364 $526 forward $223 $-1 #
vertex $-1 $365 $535 #
vertex $-1 $522 $536 #
straight-curve $-1 0 -43.364442110726351 -2.8662361558540583 1 0 0 I I #
face $-1 $-1 $537 $53 $-1 $538 reversed single #
loop $-1 $-1 $236 $230 #
plane-surface $-1 0 0 20.129851580102027 0 0 1 1 0 0 forward_v I I I I #
coedge $-1 $539 $540 $541 $542 reversed $231 $-1 #
coedge $-1 $543 $233 $235 $383 forward $145 $-1 #
coedge $-1 $233 $543 $539 $544 forward $145 $-1 #
coedge $-1 $541 $236 $233 $380 forward $374 $-1 #
edge $-1 $386 -8.132948125560759 $545 -1.4325825521148587 $379 $546 forward 7 unknown #
coedge $-1 $547 $548 $234 $382 forward $537 $-1 #
edge $-1 $549 -51.952885890296415 $385 -42.441691657373958 $381 $550 forward 7 unknown #
edge $-1 $386 -17.008789006933547 $549 1.6747963185031944e-014 $235 $551 forward 7 unknown #
coedge $-1 $236 $541 $547 $552 forward $374 $-1 #
vertex $-1 $382 $553 #
vertex $-1 $237 $554 #
straight-curve $-1 -73.159207840192067 -12.915713464398568 20.129851580102027 1 0 0 I I #
coedge $-1 $388 $388 $-1 $555 reversed $240 $-1 #
edge $-1 $556 0 $556 6.2831853071796004 $241 $557 forward 7 unknown #
vertex $-1 $244 $558 #
ellipse-curve $-1 -62.020248852940675 -11.001323300556884 15.374254463640801 -0.55919291073839883 0 0.82903756765294845 0.41451878382647422 0 0.27959645536919941 1 I I #
coedge $-1 $392 $392 $-1 $559 reversed $247 $-1 #
edge $-1 $560 0 $560 6.2831853071796004 $248 $561 forward 7 unknown #
vertex $-1 $251 $562 #
ellipse-curve $-1 -62.020248852940675 -8.1297380547943519 15.374254463640801 -0.55919291073839883 0 0.82903756765294845 0.41451878382647422 0 0.27959645536919941 1 I I #
face $-1 $-1 $563 $56 $-1 $564 reversed single #
loop $-1 $-1 $258 $252 #
plane-surface $-1 0 0 20.129851580102027 0 0 1 1 0 0 forward_v I I I I #
coedge $-1 $565 $566 $567 $568 reversed $253 $-1 #
coedge $-1 $569 $255 $257 $406 forward $159 $-1 #
coedge $-1 $255 $569 $565 $570 forward $159 $-1 #
coedge $-1 $567 $258 $255 $403 forward $397 $-1 #
edge $-1 $409 -1.5073549742443291 $571 5.1930105992015712 $402 $572 forward 7 unknown #
coedge $-1 $573 $574 $256 $405 forward $563 $-1 #
edge $-1 $575 -51.952885890296415 $408 -42.441691657373958 $404 $576 forward 7 unknown #
edge $-1 $409 -17.008789006933547 $575 1.6747963185031944e-014 $257 $577 forward 7 unknown #
coedge $-1 $258 $567 $573 $578 forward $397 $-1 #
vertex $-1 $259 $579 #
vertex $-1 $259 $580 #
straight-curve $-1 -73.159207840192067 0.33547283823429197 20.129851580102027 1 0 0 I I #
coedge $-1 $411 $411 $-1 $581 reversed $262 $-1 #
edge $-1 $582 0 $582 6.2831853071796004 $263 $583 forward 7 unknown #
vertex $-1 $266 $584 #
ellipse-curve $-1 -62.020248852940675 2.2498630020759762 15.374254463640801 -0.55919291073839883 0 0.82903756765294845 0.41451878382647422 0 0.27959645536919941 1 I I #
coedge $-1 $415 $415 $-1 $585 reversed $269 $-1 #
edge $-1 $586 0 $586 6.2831853071796004 $270 $587 forward 7 unknown #
vertex $-1 $273 $588 #
ellipse-curve $-1 -62.020248852940675 5.1214482478385079 15.374254463640801 -0.55919291073839883 0 0.82903756765294845 0.41451878382647422 0 0.27959645536919941 1 I I #
face $-1 $-1 $589 $59 $-1 $590 reversed single #
loop $-1 $-1 $280 $274 #
plane-surface $-1 0 0 20.129851580102027 0 0 1 1 0 0 forward_v I I I I #
coedge $-1 $591 $592 $593 $594 reversed $275 $-1 #
coedge $-1 $595 $277 $279 $429 forward $173 $-1 #
coedge $-1 $277 $595 $591 $596 forward $173 $-1 #
coedge $-1 $593 $280 $277 $426 forward $420 $-1 #
edge $-1 $432 5.1182381770721008 $597 11.818603750518001 $425 $598 forward 7 unknown #
coedge $-1 $599 $600 $278 $428 forward $589 $-1 #
edge $-1 $601 -51.952885890296415 $431 -42.441691657373958 $427 $602 forward 7 unknown #
edge $-1 $432 -17.008789006933547 $601 1.6747963185031944e-014 $279 $603 forward 7 unknown #
coedge $-1 $280 $593 $599 $604 forward $420 $-1 #
vertex $-1 $281 $605 #
vertex $-1 $281 $606 #
straight-curve $-1 -73.159207840192067 13.586659140867152 20.129851580102027 1 0 0 I I #
coedge $-1 $434 $434 $-1 $607 reversed $284 $-1 #
edge $-1 $608 0 $608 6.2831853071796004 $285 $609 forward 7 unknown #
vertex $-1 $288 $610 #
ellipse-curve $-1 -62.020248852940675 15.501049304708836 15.374254463640801 -0.55919291073839883 0 0.82903756765294845 0.41451878382647422 0 0.27959645536919941 1 I I #
coedge $-1 $438 $438 $-1 $611 reversed $291 $-1 #
edge $-1 $612 0 $612 6.2831853071796004 $292 $613 forward 7 unknown #
vertex $-1 $295 $614 #
ellipse-curve $-1 -62.020248852940675 18.372634550471368 15.374254463640801 -0.55919291073839883 0 0.82903756765294845 0.41451878382647422 0 0.27959645536919941 1 I I #
face $-1 $-1 $615 $62 $-1 $616 reversed single #
loop $-1 $-1 $302 $296 #
plane-surface $-1 0 0 20.129851580102027 0 0 1 1 0 0 forward_v I I I I #
coedge $-1 $617 $618 $619 $620 reversed $297 $-1 #
coedge $-1 $621 $299 $301 $452 forward $187 $-1 #
coedge $-1 $299 $621 $617 $622 forward $187 $-1 #
coedge $-1 $619 $302 $299 $449 forward $443 $-1 #
edge $-1 $455 11.743831328388531 $623 18.444196901834427 $448 $624 forward 7 unknown #
coedge $-1 $625 $626 $300 $451 forward $615 $-1 #
edge $-1 $627 -51.952885890296415 $454 -42.441691657373958 $450 $628 forward 7 unknown #
edge $-1 $455 -17.008789006933547 $627 1.6747963185031944e-014 $301 $629 forward 7 unknown #
coedge $-1 $302 $619 $625 $630 forward $443 $-1 #
vertex $-1 $303 $631 #
vertex $-1 $303 $632 #
straight-curve $-1 -73.159207840192067 26.837845443500012 20.129851580102027 1 0 0 I I #
coedge $-1 $457 $457 $-1 $633 reversed $306 $-1 #
edge $-1 $634 0 $634 6.2831853071796004 $307 $635 forward 7 unknown #
vertex $-1 $310 $636 #
ellipse-curve $-1 -62.020248852940675 28.752235607341696 15.374254463640801 -0.55919291073839883 0 0.82903756765294845 0.41451878382647422 0 0.27959645536919941 1 I I #
coedge $-1 $461 $461 $-1 $637 reversed $313 $-1 #
edge $-1 $638 0 $638 6.2831853071796004 $314 $639 forward 7 unknown #
vertex $-1 $317 $640 #
ellipse-curve $-1 -62.020248852940675 31.623820853104228 15.374254463640801 -0.55919291073839883 0 0.82903756765294845 0.41451878382647422 0 0.27959645536919941 1 I I #
face $-1 $-1 $477 $65 $-1 $641 forward single #
loop $-1 $-1 $642 $318 #
plane-surface $-1 69.070711386455883 0 0 -1 0 0 0 0 1 forward_v I I I I #
coedge $-1 $643 $644 $645 $646 reversed $319 $-1 #
coedge $-1 $647 $321 $323 $475 forward $201 $-1 #
coedge $-1 $321 $647 $643 $648 forward $201 $-1 #
coedge $-1 $645 $324 $321 $472 forward $477 $-1 #
edge $-1 $479 1.1613213181736679 $649 14.774189266061454 $471 $650 forward 7 unknown #
coedge $-1 $651 $652 $322 $474 forward $466 $-1 #
edge $-1 $653 -87.346151448306117 $478 -83.616354005579481 $473 $654 forward 7 unknown #
edge $-1 $479 131.29322212244622 $653 138.14142277291177 $323 $655 forward 7 unknown #
coedge $-1 $324 $645 $651 $656 forward $477 $-1 #
loop $-1 $-1 $645 $465 #
vertex $-1 $474 $657 #
vertex $-1 $325 $658 #
straight-curve $-1 14.226389356633568 -9.1290766102912286 20.129851580102027 -1 0 0 I I #
coedge $-1 $481 $481 $-1 $659 reversed $328 $-1 #
edge $-1 $660 0 $660 6.2831853071796004 $329 $661 forward 7 unknown #
vertex $-1 $332 $662 #
ellipse-curve $-1 66.199019237858366 -18.85255371592536 18.264952858738699 0.54463904215088732 0 0.83867056331134215 0.83867056331134215 0 -0.54463904215088732 1 I I #
coedge $-1 $485 $485 $-1 $663 reversed $335 $-1 #
edge $-1 $664 0 $664 6.2831853071796004 $336 $665 forward 7 unknown #
vertex $-1 $339 $666 #
ellipse-curve $-1 66.199019237858366 -13.018467452544883 18.264952858738699 0.54463904215088732 0 0.83867056331134215 0.83867056331134215 0 -0.54463904215088732 1 I I #
face $-1 $-1 $355 $51 $-1 $667 reversed single #
loop $-1 $-1 $505 $340 #
plane-surface $-1 0 43.364442110726351 0 0 -1 0 0 0 -1 forward_v I I I I #
coedge $-1 $668 $503 $506 $669 forward $341 $-1 #
coedge $-1 $509 $343 $344 $497 reversed $215 $-1 #
coedge $-1 $503 $668 $343 $495 reversed $341 $-1 #
edge $-1 $510 -20.129851580102027 $670 20.129851580102027 $494 $671 forward 7 unknown #
coedge $-1 $345 $344 $668 $672 forward $137 $-1 #
edge $-1 $501 -69.070711386455883 $670 69.070711386455883 $493 $673 forward 7 unknown #
coedge $-1 $506 $505 $345 $499 reversed $490 $-1 #
edge $-1 $674 -69.070711386455883 $500 69.070711386455883 $498 $675 forward 7 unknown #
vertex $-1 $347 $676 #
vertex $-1 $512 $677 #
straight-curve $-1 69.070711386455883 0 -20.129851580102027 0 -1 0 I I #
coedge $-1 $492 $494 $348 $504 reversed $341 $-1 #
edge $-1 $507 -43.364442110726351 $510 43.364442110726351 $503 $678 forward 7 unknown #
coedge $-1 $498 $349 $354 $513 forward $490 $-1 #
coedge $-1 $349 $498 $492 $669 reversed $490 $-1 #
vertex $-1 $350 $679 #
straight-curve $-1 0 43.364442110726351 20.129851580102027 -1 0 0 I I #
coedge $-1 $351 $493 $353 $512 reversed $215 $-1 #
vertex $-1 $504 $680 #
straight-curve $-1 0 -43.364442110726351 20.129851580102027 1 0 0 I I #
edge $-1 $356 -20.129851580102027 $501 20.129851580102027 $353 $681 forward 7 unknown #
edge $-1 $357 -20.129851580102027 $500 20.129851580102027 $354 $682 forward 7 unknown #
point $-1 69.070711386455883 -43.364442110726351 20.129851580102027 #
point $-1 69.070711386455883 43.364442110726351 20.129851580102027 #
face $-1 $-1 $532 $52 $-1 $683 reversed single #
loop $-1 $-1 $684 $359 #
plane-surface $-1 0 -63.986939663273688 -5.1867564468028604 0 1 0 0 0 1 forward_v I I I I #
coedge $-1 $685 $529 $531 $686 forward $360 $-1 #
coedge $-1 $362 $369 $687 $688 forward $223 $-1 #
coedge $-1 $689 $367 $362 $522 reversed $532 $-1 #
edge $-1 $690 -10.311248776273672 $371 10.311248776273672 $521 $691 forward 7 unknown #
coedge $-1 $364 $363 $684 $692 reversed $141 $-1 #
coedge $-1 $529 $685 $363 $525 forward $360 $-1 #
edge $-1 $693 -10.311248776273672 $527 10.311248776273672 $363 $694 forward 7 unknown #
edge $-1 $370 -10.311248776273672 $695 10.311248776273672 $364 $696 forward 7 unknown #
vertex $-1 $365 $697 #
straight-curve $-1 -69.070711386455883 -43.364442110726351 0 0 0 -1 I I #
coedge $-1 $519 $524 $366 $530 reversed $360 $-1 #
edge $-1 $533 -69.070711386455883 $527 69.070711386455883 $529 $698 forward 7 unknown #
coedge $-1 $367 $689 $519 $686 reversed $532 $-1 #
loop $-1 $-1 $367 $516 #
vertex $-1 $368 $699 #
straight-curve $-1 69.070711386455883 -43.364442110726351 0 0 0 1 I I #
point $-1 -69.070711386455883 -43.364442110726344 -2.8662361558540583 #
point $-1 69.070711386455883 -43.364442110726344 -2.8662361558540583 #
loop $-1 $-1 $381 $373 #
plane-surface $-1 -69.070711386455883 0 0 1 0 0 0 0 -1 forward_v I I I I #
coedge $-1 $540 $376 $378 $544 reversed $231 $-1 #
coedge $-1 $376 $539 $700 $701 reversed $231 $-1 #
coedge $-1 $384 $379 $376 $542 forward $374 $-1 #
edge $-1 $545 -18.189421520766594 $702 -4.0884964537361839 $541 $703 forward 7 unknown #
coedge $-1 $378 $377 $548 $704 reversed $145 $-1 #
edge $-1 $705 -1.6747963185031944e-014 $545 17.008789006933547 $539 $706 forward 7 unknown #
vertex $-1 $380 $707 #
straight-curve $-1 -54.969786319425474 -4.7827653388378089 20.129851580102027 0 1 0 I I #
coedge $-1 $700 $381 $384 $552 reversed $537 $-1 #
coedge $-1 $381 $700 $543 $704 forward $537 $-1 #
vertex $-1 $382 $708 #
straight-curve $-1 -69.070711386455883 -12.915713464398568 62.571543237475986 0 0 1 I I #
straight-curve $-1 -69.070711386455869 -12.915713464398568 10.618657347179578 -0.82903756765294845 0 -0.55919291073839883 I I #
edge $-1 $702 6.2153478909526676 $385 12.915713464398568 $547 $709 forward 7 unknown #
point $-1 -69.070711386455883 -12.915713464398568 20.129851580102027 #
point $-1 -54.969786319425474 -12.915713464398568 20.129851580102027 #
edge $-1 $710 1 $710 0 $388 $-1 forward 7 unknown #
vertex $-1 $389 $711 #
ellipse-curve $-1 -61.461055942202265 -11.001323300556884 14.545216895987839 -0.55919291073839883 0 0.82903756765294845 0.41451878382647422 0 0.27959645536919941 1 I I #
point $-1 -61.605730069114188 -11.001323300556884 15.653850919009987 #
edge $-1 $712 1 $712 0 $392 $-1 forward 7 unknown #
vertex $-1 $393 $713 #
ellipse-curve $-1 -61.461055942202265 -8.1297380547943519 14.545216895987839 -0.55919291073839883 0 0.82903756765294845 0.41451878382647422 0 0.27959645536919941 1 I I #
point $-1 -61.605730069114188 -8.1297380547943519 15.653850919009987 #
loop $-1 $-1 $404 $396 #
plane-surface $-1 -69.070711386455883 0 0 1 0 0 0 0 -1 forward_v I I I I #
coedge $-1 $566 $399 $401 $570 reversed $253 $-1 #
coedge $-1 $399 $565 $714 $715 reversed $253 $-1 #
coedge $-1 $407 $402 $399 $568 forward $397 $-1 #
edge $-1 $571 -18.189421520766594 $716 -4.0884964537361839 $567 $717 forward 7 unknown #
coedge $-1 $401 $400 $574 $718 reversed $159 $-1 #
edge $-1 $719 -1.6747963185031944e-014 $571 17.008789006933547 $565 $720 forward 7 unknown #
vertex $-1 $403 $721 #
straight-curve $-1 -54.969786319425474 1.842827812478621 20.129851580102027 0 1 0 I I #
coedge $-1 $714 $404 $407 $578 reversed $563 $-1 #
coedge $-1 $404 $714 $569 $718 forward $563 $-1 #
vertex $-1 $405 $722 #
straight-curve $-1 -69.070711386455883 0.33547283823429197 62.571543237475986 0 0 1 I I #
straight-curve $-1 -69.070711386455869 0.33547283823429197 10.618657347179578 -0.82903756765294845 0 -0.55919291073839883 I I #
edge $-1 $716 -7.0358384116801922 $408 -0.33547283823429197 $573 $723 forward 7 unknown #
point $-1 -69.070711386455883 0.33547283823429197 20.129851580102027 #
point $-1 -54.969786319425474 0.33547283823429197 20.129851580102027 #
edge $-1 $724 1 $724 0 $411 $-1 forward 7 unknown #
vertex $-1 $412 $725 #
ellipse-curve $-1 -61.461055942202265 2.2498630020759762 14.545216895987839 -0.55919291073839883 0 0.82903756765294845 0.41451878382647422 0 0.27959645536919941 1 I I #
point $-1 -61.605730069114188 2.2498630020759762 15.653850919009987 #
edge $-1 $726 1 $726 0 $415 $-1 forward 7 unknown #
vertex $-1 $416 $727 #
ellipse-curve $-1 -61.461055942202265 5.1214482478385079 14.545216895987839 -0.55919291073839883 0 0.82903756765294845 0.41451878382647422 0 0.27959645536919941 1 I I #
point $-1 -61.605730069114188 5.1214482478385079 15.653850919009987 #
loop $-1 $-1 $427 $419 #
plane-surface $-1 -69.070711386455883 0 0 1 0 0 0 0 -1 forward_v I I I I #
coedge $-1 $592 $422 $424 $596 reversed $275 $-1 #
coedge $-1 $422 $591 $728 $729 reversed $275 $-1 #
coedge $-1 $430 $425 $422 $594 forward $420 $-1 #
edge $-1 $597 -18.189421520766594 $730 -4.0884964537361839 $593 $731 forward 7 unknown #
coedge $-1 $424 $423 $600 $732 reversed $173 $-1 #
edge $-1 $733 -1.6747963185031944e-014 $597 17.008789006933547 $591 $734 forward 7 unknown #
vertex $-1 $426 $735 #
straight-curve $-1 -54.969786319425474 8.4684209637950509 20.129851580102027 0 1 0 I I #
coedge $-1 $728 $427 $430 $604 reversed $589 $-1 #
coedge $-1 $427 $728 $595 $732 forward $589 $-1 #
vertex $-1 $428 $736 #
straight-curve $-1 -69.070711386455883 13.586659140867152 62.571543237475986 0 0 1 I I #
straight-curve $-1 -69.070711386455869 13.586659140867152 10.618657347179578 -0.82903756765294845 0 -0.55919291073839883 I I #
edge $-1 $730 -20.287024714313052 $431 -13.586659140867152 $599 $737 forward 7 unknown #
point $-1 -69.070711386455883 13.586659140867152 20.129851580102027 #
point $-1 -54.969786319425474 13.586659140867152 20.129851580102027 #
edge $-1 $738 1 $738 0 $434 $-1 forward 7 unknown #
vertex $-1 $435 $739 #
ellipse-curve $-1 -61.461055942202265 15.501049304708836 14.545216895987839 -0.55919291073839883 0 0.82903756765294845 0.41451878382647422 0 0.27959645536919941 1 I I #
point $-1 -61.605730069114188 15.501049304708836 15.653850919009987 #
edge $-1 $740 1 $740 0 $438 $-1 forward 7 unknown #
vertex $-1 $439 $741 #
ellipse-curve $-1 -61.461055942202265 18.372634550471368 14.545216895987839 -0.55919291073839883 0 0.82903756765294845 0.41451878382647422 0 0.27959645536919941 1 I I #
point $-1 -61.605730069114188 18.372634550471368 15.653850919009987 #
loop $-1 $-1 $450 $442 #
plane-surface $-1 -69.070711386455883 0 0 1 0 0 0 0 -1 forward_v I I I I #
coedge $-1 $618 $445 $447 $622 reversed $297 $-1 #
coedge $-1 $445 $617 $742 $743 reversed $297 $-1 #
coedge $-1 $453 $448 $445 $620 forward $443 $-1 #
edge $-1 $623 -18.189421520766594 $744 -4.0884964537361839 $619 $745 forward 7 unknown #
coedge $-1 $447 $446 $626 $746 reversed $187 $-1 #
edge $-1 $747 -1.6747963185031944e-014 $623 17.008789006933547 $617 $748 forward 7 unknown #
vertex $-1 $449 $749 #
straight-curve $-1 -54.969786319425474 15.094014115111481 20.129851580102027 0 1 0 I I #
coedge $-1 $742 $450 $453 $630 reversed $615 $-1 #
coedge $-1 $450 $742 $621 $746 forward $615 $-1 #
vertex $-1 $451 $750 #
straight-curve $-1 -69.070711386455883 26.837845443500012 62.571543237475986 0 0 1 I I #
straight-curve $-1 -69.070711386455869 26.837845443500012 10.618657347179578 -0.82903756765294845 0 -0.55919291073839883 I I #
edge $-1 $744 -33.538211016945908 $454 -26.837845443500012 $625 $751 forward 7 unknown #
point $-1 -69.070711386455883 26.837845443500012 20.129851580102027 #
point $-1 -54.969786319425474 26.837845443500012 20.129851580102027 #
edge $-1 $752 1 $752 0 $457 $-1 forward 7 unknown #
vertex $-1 $458 $753 #
ellipse-curve $-1 -61.461055942202265 28.752235607341696 14.545216895987839 -0.55919291073839883 0 0.82903756765294845 0.41451878382647422 0 0.27959645536919941 1 I I #
point $-1 -61.605730069114188 28.752235607341696 15.653850919009987 #
edge $-1 $754 1 $754 0 $461 $-1 forward 7 unknown #
vertex $-1 $462 $755 #
ellipse-curve $-1 -61.461055942202265 31.623820853104228 14.545216895987839 -0.55919291073839883 0 0.82903756765294845 0.41451878382647422 0 0.27959645536919941 1 I I #
point $-1 -61.605730069114188 31.623820853104228 15.653850919009987 #
plane-surface $-1 0 0 20.129851580102027 0 0 1 1 0 0 forward_v I I I I #
coedge $-1 $652 $651 $644 $756 forward $466 $-1 #
coedge $-1 $644 $468 $470 $648 reversed $319 $-1 #
coedge $-1 $468 $643 $642 $756 reversed $319 $-1 #
coedge $-1 $476 $471 $468 $646 forward $477 $-1 #
edge $-1 $649 49.10093773262728 $757 54.844322029822315 $645 $758 forward 7 unknown #
coedge $-1 $470 $469 $652 $759 reversed $201 $-1 #
edge $-1 $760 -138.14142277291177 $649 -131.29322212244622 $643 $761 forward 7 unknown #
vertex $-1 $472 $762 #
straight-curve $-1 63.327327089260848 -7.9677552921175607 20.129851580102027 0 -1 0 I I #
coedge $-1 $642 $473 $476 $656 reversed $466 $-1 #
coedge $-1 $473 $642 $647 $759 forward $466 $-1 #
vertex $-1 $474 $763 #
straight-curve $-1 69.070711386455883 -9.1290766102912286 103.74620558568151 0 0 1 I I #
straight-curve $-1 -46.784433467132303 -9.1290766102912286 91.637266317774831 0.83867056331134215 0 -0.54463904215088732 I I #
edge $-1 $757 -22.741944558179014 $478 -9.1290766102912286 $651 $764 forward 7 unknown #
point $-1 69.070711386455883 -9.1290766102912286 20.129851580102027 #
point $-1 63.327327089260848 -9.1290766102912286 20.129851580102027 #
edge $-1 $765 1 $765 0 $481 $-1 forward 7 unknown #
vertex $-1 $482 $766 #
ellipse-curve $-1 64.056166205414399 -18.85255371592536 14.965248612939648 0.54463904215088732 0 0.83867056331134215 0.83867056331134215 0 -0.54463904215088732 1 I I #
point $-1 67.037689801169734 -18.85255371592536 17.720313816587836 #
edge $-1 $767 1 $767 0 $485 $-1 forward 7 unknown #
vertex $-1 $486 $768 #
ellipse-curve $-1 64.056166205414399 -13.018467452544883 14.965248612939648 0.54463904215088732 0 0.83867056331134215 0.83867056331134215 0 -0.54463904215088732 1 I I #
point $-1 67.037689801169734 -13.018467452544883 17.720313816587836 #
plane-surface $-1 69.070711386455883 0 0 -1 0 0 0 0 1 forward_v I I I I #
coedge $-1 $494 $492 $496 $672 reversed $341 $-1 #
edge $-1 $507 -20.129851580102027 $674 20.129851580102027 $506 $769 forward 7 unknown #
vertex $-1 $672 $770 #
straight-curve $-1 -69.070711386455883 -43.364442110726351 0 0 0 -1 I I #
edge $-1 $670 -43.364442110726351 $674 43.364442110726351 $668 $771 forward 7 unknown #
straight-curve $-1 0 -43.364442110726351 -20.129851580102027 -1 0 0 I I #
vertex $-1 $499 $772 #
straight-curve $-1 0 43.364442110726351 -20.129851580102027 1 0 0 I I #
point $-1 69.070711386455883 43.364442110726351 -20.129851580102027 #
point $-1 69.070711386455883 -43.364442110726351 -20.129851580102027 #
straight-curve $-1 -69.070711386455883 0 20.129851580102027 0 -1 0 I I #
point $-1 -69.070711386455883 43.364442110726351 20.129851580102027 #
point $-1 -69.070711386455883 -43.364442110726351 20.129851580102027 #
straight-curve $-1 69.070711386455883 -43.364442110726351 0 0 0 -1 I I #
straight-curve $-1 69.070711386455883 43.364442110726351 0 0 0 -1 I I #
plane-surface $-1 69.070711386455883 0 0 -1 0 0 0 0 1 forward_v I I I I #
coedge $-1 $773 $687 $523 $692 forward $517 $-1 #
coedge $-1 $524 $519 $773 $774 forward $360 $-1 #
edge $-1 $533 -10.311248776273672 $775 10.311248776273672 $531 $776 forward 7 unknown #
coedge $-1 $684 $777 $520 $688 reversed $517 $-1 #
edge $-1 $695 -69.070711386455883 $690 69.070711386455883 $687 $778 forward 7 unknown #
coedge $-1 $531 $521 $777 $779 forward $532 $-1 #
vertex $-1 $522 $780 #
straight-curve $-1 69.070711386455883 -53.675690887000016 -2.8662361558540583 0 1 0 I I #
edge $-1 $695 -2.3205202909488021 $693 2.3205202909488021 $523 $781 forward 7 unknown #
vertex $-1 $525 $782 #
straight-curve $-1 -69.070711386455883 -53.675690887000016 -7.5072767377516625 0 1 0 I I #
vertex $-1 $526 $783 #
straight-curve $-1 -69.070711386455883 -53.675690887000016 -2.8662361558540583 0 -1 0 I I #
point $-1 -69.070711386455883 -43.364442110726344 -7.5072767377516625 #
straight-curve $-1 0 -43.364442110726351 -7.5072767377516625 -1 0 0 I I #
point $-1 69.070711386455883 -43.364442110726344 -7.5072767377516625 #
coedge $-1 $548 $547 $540 $701 forward $537 $-1 #
edge $-1 $702 42.441691657373958 $705 51.952885890296415 $700 $784 forward 7 unknown #
vertex $-1 $552 $785 #
straight-curve $-1 -73.159207840192067 -6.2153478909526676 20.129851580102027 -1 0 0 I I #
edge $-1 $705 1.4325825521148587 $549 8.132948125560759 $548 $786 forward 7 unknown #
vertex $-1 $704 $787 #
straight-curve $-1 -69.070711386455869 -6.2153478909526676 10.618657347179578 0.82903756765294845 0 0.55919291073839883 I I #
point $-1 -54.969786319425474 -6.2153478909526676 20.129851580102027 #
point $-1 -69.070711386455883 -12.915713464398568 10.618657347179569 #
straight-curve $-1 -69.070711386455883 0 20.129851580102027 0 -1 0 I I #
vertex $-1 $555 $788 #
point $-1 -61.046537158375791 -11.001323300556884 14.824813351357038 #
vertex $-1 $559 $789 #
point $-1 -61.046537158375791 -8.1297380547943519 14.824813351357038 #
coedge $-1 $574 $573 $566 $715 forward $563 $-1 #
edge $-1 $716 42.441691657373958 $719 51.952885890296415 $714 $790 forward 7 unknown #
vertex $-1 $578 $791 #
straight-curve $-1 -73.159207840192067 7.0358384116801922 20.129851580102027 -1 0 0 I I #
edge $-1 $719 -5.1930105992015712 $575 1.5073549742443291 $574 $792 forward 7 unknown #
vertex $-1 $718 $793 #
straight-curve $-1 -69.070711386455869 7.0358384116801922 10.618657347179578 0.82903756765294845 0 0.55919291073839883 I I #
point $-1 -54.969786319425474 7.0358384116801922 20.129851580102027 #
point $-1 -69.070711386455883 0.33547283823429197 10.618657347179569 #
straight-curve $-1 -69.070711386455883 0 20.129851580102027 0 -1 0 I I #
vertex $-1 $581 $794 #
point $-1 -61.046537158375791 2.2498630020759762 14.824813351357038 #
vertex $-1 $585 $795 #
point $-1 -61.046537158375791 5.1214482478385079 14.824813351357038 #
coedge $-1 $600 $599 $592 $729 forward $589 $-1 #
edge $-1 $730 42.441691657373958 $733 51.952885890296415 $728 $796 forward 7 unknown #
vertex $-1 $604 $797 #
straight-curve $-1 -73.159207840192067 20.287024714313052 20.129851580102027 -1 0 0 I I #
edge $-1 $733 -11.818603750518001 $601 -5.1182381770721008 $600 $798 forward 7 unknown #
vertex $-1 $732 $799 #
straight-curve $-1 -69.070711386455869 20.287024714313052 10.618657347179578 0.82903756765294845 0 0.55919291073839883 I I #
point $-1 -54.969786319425474 20.287024714313052 20.129851580102027 #
point $-1 -69.070711386455883 13.586659140867152 10.618657347179569 #
straight-curve $-1 -69.070711386455883 0 20.129851580102027 0 -1 0 I I #
vertex $-1 $607 $800 #
point $-1 -61.046537158375791 15.501049304708836 14.824813351357038 #
vertex $-1 $611 $801 #
point $-1 -61.046537158375791 18.372634550471368 14.824813351357038 #
coedge $-1 $626 $625 $618 $743 forward $615 $-1 #
edge $-1 $744 42.441691657373958 $747 51.952885890296415 $742 $802 forward 7 unknown #
vertex $-1 $630 $803 #
straight-curve $-1 -73.159207840192067 33.538211016945908 20.129851580102027 -1 0 0 I I #
edge $-1 $747 -18.444196901834427 $627 -11.743831328388531 $626 $804 forward 7 unknown #
vertex $-1 $746 $805 #
straight-curve $-1 -69.070711386455869 33.538211016945908 10.618657347179578 0.82903756765294845 0 0.55919291073839883 I I #
point $-1 -54.969786319425474 33.538211016945908 20.129851580102027 #
point $-1 -69.070711386455883 26.837845443500012 10.618657347179569 #
straight-curve $-1 -69.070711386455883 0 20.129851580102027 0 -1 0 I I #
vertex $-1 $633 $806 #
point $-1 -61.046537158375791 28.752235607341696 14.824813351357038 #
vertex $-1 $637 $807 #
point $-1 -61.046537158375791 31.623820853104228 14.824813351357038 #
edge $-1 $757 83.616354005579481 $760 87.346151448306117 $642 $808 forward 7 unknown #
vertex $-1 $656 $809 #
straight-curve $-1 14.226389356633568 -22.741944558179014 20.129851580102027 1 0 0 I I #
edge $-1 $760 -14.774189266061454 $653 -1.1613213181736679 $652 $810 forward 7 unknown #
vertex $-1 $759 $811 #
straight-curve $-1 -46.784433467132303 -22.741944558179014 91.637266317774831 -0.83867056331134215 0 0.54463904215088732 I I #
point $-1 63.327327089260848 -22.741944558179014 20.129851580102027 #
point $-1 69.070711386455883 -9.1290766102912286 16.400054137375392 #
straight-curve $-1 69.070711386455883 0 20.129851580102027 0 1 0 I I #
vertex $-1 $659 $812 #
point $-1 64.894836768725739 -18.85255371592536 14.420609570788761 #
vertex $-1 $663 $813 #
point $-1 64.894836768725739 -13.018467452544883 14.420609570788761 #
straight-curve $-1 -69.070711386455883 43.364442110726351 0 0 0 -1 I I #
point $-1 -69.070711386455883 -43.364442110726351 -20.129851580102027 #
straight-curve $-1 -69.070711386455883 0 -20.129851580102027 0 1 0 I I #
point $-1 -69.070711386455883 43.364442110726351 -20.129851580102027 #
coedge $-1 $777 $684 $685 $774 reversed $517 $-1 #
edge $-1 $775 -69.070711386455883 $693 69.070711386455883 $773 $814 forward 7 unknown #
vertex $-1 $779 $815 #
straight-curve $-1 69.070711386455883 -53.675690887000016 -7.5072767377516625 0 -1 0 I I #
coedge $-1 $687 $773 $689 $779 reversed $517 $-1 #
straight-curve $-1 0 -63.986939663273688 -2.8662361558540583 1 0 0 I I #
edge $-1 $690 -2.3205202909488021 $775 2.3205202909488021 $689 $816 forward 7 unknown #
point $-1 69.070711386455883 -63.986939663273688 -2.8662361558540583 #
straight-curve $-1 -69.070711386455883 -63.986939663273688 -5.1867564468028604 0 0 -1 I I #
point $-1 -69.070711386455883 -63.986939663273688 -7.5072767377516625 #
point $-1 -69.070711386455883 -63.986939663273688 -2.8662361558540583 #
straight-curve $-1 -69.070711386455883 -6.2153478909526676 62.571543237475986 0 0 -1 I I #
point $-1 -69.070711386455883 -6.2153478909526676 20.129851580102027 #
straight-curve $-1 -69.070711386455883 -4.7827653388378089 10.618657347179569 0 -1 0 I I #
point $-1 -69.070711386455883 -6.2153478909526676 10.618657347179569 #
point $-1 -61.181459486833063 -11.001323300556884 14.130698112161365 #
point $-1 -61.181459486833063 -8.1297380547943519 14.130698112161365 #
straight-curve $-1 -69.070711386455883 7.0358384116801922 62.571543237475986 0 0 -1 I I #
point $-1 -69.070711386455883 7.0358384116801922 20.129851580102027 #
straight-curve $-1 -69.070711386455883 1.842827812478621 10.618657347179569 0 -1 0 I I #
point $-1 -69.070711386455883 7.0358384116801922 10.618657347179569 #
point $-1 -61.181459486833063 2.2498630020759762 14.130698112161365 #
point $-1 -61.181459486833063 5.1214482478385079 14.130698112161365 #
straight-curve $-1 -69.070711386455883 20.287024714313052 62.571543237475986 0 0 -1 I I #
point $-1 -69.070711386455883 20.287024714313052 20.129851580102027 #
straight-curve $-1 -69.070711386455883 8.4684209637950509 10.618657347179569 0 -1 0 I I #
point $-1 -69.070711386455883 20.287024714313052 10.618657347179569 #
point $-1 -61.181459486833063 15.501049304708836 14.130698112161365 #
point $-1 -61.181459486833063 18.372634550471368 14.130698112161365 #
straight-curve $-1 -69.070711386455883 33.538211016945908 62.571543237475986 0 0 -1 I I #
point $-1 -69.070711386455883 33.538211016945908 20.129851580102027 #
straight-curve $-1 -69.070711386455883 15.094014115111481 10.618657347179569 0 -1 0 I I #
point $-1 -69.070711386455883 33.538211016945908 10.618657347179569 #
point $-1 -61.181459486833063 28.752235607341696 14.130698112161365 #
point $-1 -61.181459486833063 31.623820853104228 14.130698112161365 #
straight-curve $-1 69.070711386455883 -22.741944558179014 103.74620558568151 0 0 -1 I I #
point $-1 69.070711386455883 -22.741944558179014 20.129851580102027 #
straight-curve $-1 69.070711386455883 -7.9677552921175607 16.400054137375385 0 1 0 I I #
point $-1 69.070711386455883 -22.741944558179014 16.400054137375392 #
point $-1 63.511527163263509 -18.85255371592536 14.126578049628305 #
point $-1 63.511527163263509 -13.018467452544883 14.126578049628305 #
straight-curve $-1 0 -63.986939663273688 -7.5072767377516625 -1 0 0 I I #
point $-1 69.070711386455883 -63.986939663273688 -7.5072767377516625 #
straight-curve $-1 69.070711386455883 -63.986939663273688 -5.1867564468028604 0 0 -1 I I #
End-of-ACIS-data 