500 0 6 0           
7 Unknown 11 ACIS 5.0 NT 24 Thu Mar 25 21:38:28 1999 
-1 9.9999999999999995e-007 1e-010 
body $-1 $6 $-1 $7 #
body $-1 $8 $-1 $9 #
body $-1 $10 $-1 $11 #
body $-1 $12 $-1 $13 #
body $-1 $14 $-1 $15 #
body $-1 $16 $-1 $17 #
lump $-1 $-1 $18 $0 #
transform $-1 1 0 0 0 1 0 0 0 1 67.224951933347569 34.373621545068879 10.717327407240262 1 rotate no_reflect no_shear #
lump $-1 $-1 $19 $1 #
transform $-1 1 0 0 0 1 0 0 0 1 67.224951933347569 34.373621545068879 10.717327407240262 1 rotate no_reflect no_shear #
lump $-1 $-1 $20 $2 #
transform $-1 1 0 0 0 1 0 0 0 1 67.224951933347569 34.373621545068879 10.717327407240262 1 rotate no_reflect no_shear #
lump $-1 $-1 $21 $3 #
transform $-1 1 0 0 0 1 0 0 0 1 67.224951933347569 34.373621545068879 10.717327407240262 1 rotate no_reflect no_shear #
lump $-1 $-1 $22 $4 #
transform $-1 1 0 0 0 1 0 0 0 1 67.224951933347569 34.373621545068879 10.717327407240262 1 rotate no_reflect no_shear #
lump $-1 $-1 $23 $5 #
transform $-1 1 0 0 0 1 0 0 0 1 67.224951933347569 34.373621545068879 10.717327407240262 1 rotate no_reflect no_shear #
shell $-1 $-1 $-1 $24 $-1 $6 #
shell $-1 $-1 $-1 $25 $-1 $8 #
shell $-1 $-1 $-1 $26 $-1 $10 #
shell $-1 $-1 $-1 $27 $-1 $12 #
shell $-1 $-1 $-1 $28 $-1 $14 #
shell $-1 $-1 $-1 $29 $-1 $16 #
face $-1 $30 $31 $18 $-1 $32 forward single #
face $-1 $33 $34 $19 $-1 $35 reversed single #
face $-1 $36 $37 $20 $-1 $38 forward single #
face $-1 $39 $40 $21 $-1 $41 reversed single #
face $-1 $42 $43 $22 $-1 $44 forward single #
face $-1 $45 $46 $23 $-1 $47 forward single #
face $-1 $48 $49 $18 $-1 $50 reversed single #
loop $-1 $-1 $51 $24 #
plane-surface $-1 0 0 10.717327407240262 0 0 1 1 0 0 forward_v I I I I #
face $-1 $52 $53 $19 $-1 $54 reversed single #
loop $-1 $-1 $55 $25 #
plane-surface $-1 -63.623472671067304 -23.443463955551145 0 0 1 0 0 0 1 forward_v I I I I #
face $-1 $56 $57 $20 $-1 $58 reversed single #
loop $-1 $-1 $59 $26 #
plane-surface $-1 61.007982951177127 0 -6.4643470222082149 0 0 1 1 0 0 forward_v I I I I #
face $-1 $60 $61 $21 $-1 $62 reversed single #
loop $-1 $-1 $63 $27 #
plane-surface $-1 -15.959957369001945 111.96312000856813 134.55291880304873 -1 0 0 0 0.84804810408105047 0.52991925155115449 forward_v I I I I #
face $-1 $64 $65 $22 $-1 $66 forward single #
loop $-1 $67 $68 $28 #
cone-surface $-1 -31.306384247490705 31.798267920407504 7.3669307855172255 0 -0.84804810408105047 -0.52991925155115449 1 0 0 1 I I 0 1 1 forward I I I I #
face $-1 $69 $70 $23 $-1 $71 forward single #
loop $-1 $72 $73 $29 #
cone-surface $-1 -22.098528120397447 31.798267920407504 7.3669307855172255 0 -0.84804810408105047 -0.52991925155115449 1 0 0 1 I I 0 1 1 forward I I I I #
face $-1 $74 $75 $18 $-1 $76 reversed single #
loop $-1 $-1 $77 $30 #
plane-surface $-1 0 0 -10.717327407240262 0 0 1 1 0 0 forward_v I I I I #
coedge $-1 $78 $79 $80 $81 forward $31 $-1 #
face $-1 $82 $83 $19 $-1 $84 reversed single #
loop $-1 $-1 $85 $33 #
plane-surface $-1 -63.623472671067304 -20.443463955551145 0 0 -1 0 0 0 -1 forward_v I I I I #
coedge $-1 $86 $87 $88 $89 reversed $34 $-1 #
face $-1 $90 $91 $20 $-1 $92 reversed single #
loop $-1 $-1 $93 $36 #
plane-surface $-1 54.791013969006698 0 -8.5908372147242389 1 0 0 0 0 -1 forward_v I I I I #
coedge $-1 $94 $95 $96 $97 reversed $37 $-1 #
face $-1 $98 $99 $21 $-1 $100 reversed single #
loop $-1 $-1 $101 $39 #
plane-surface $-1 -26.702456183944079 -2.0568660594621804 63.30532637488497 0 0.84804810408105047 0.52991925155115449 1 0 0 forward_v I I I I #
coedge $-1 $102 $103 $104 $105 reversed $40 $-1 #
face $-1 $-1 $106 $22 $-1 $107 forward single #
loop $-1 $108 $109 $42 #
cone-surface $-1 -31.306384247490705 30.58382017615569 6.6080596358914931 0 -0.84804810408105047 -0.52991925155115449 0.5 0 0 1 I I -0.70710678118654746 0.70710678118654746 0.5 forward I I I I #
loop $-1 $-1 $110 $28 #
coedge $-1 $68 $68 $111 $112 reversed $43 $-1 #
face $-1 $-1 $113 $23 $-1 $114 forward single #
loop $-1 $115 $116 $45 #
cone-surface $-1 -22.098528120397447 30.58382017615569 6.6080596358914931 0 -0.84804810408105047 -0.52991925155115449 0.5 0 0 1 I I -0.70710678118654746 0.70710678118654746 0.5 forward I I I I #
loop $-1 $-1 $117 $29 #
coedge $-1 $73 $73 $118 $119 reversed $46 $-1 #
face $-1 $120 $121 $18 $-1 $122 reversed single #
loop $-1 $-1 $123 $48 #
plane-surface $-1 0 -34.373621545068879 0 0 1 0 0 0 1 forward_v I I I I #
coedge $-1 $124 $125 $126 $127 forward $49 $-1 #
coedge $-1 $128 $51 $129 $130 forward $31 $-1 #
coedge $-1 $51 $128 $131 $132 forward $31 $-1 #
coedge $-1 $133 $134 $51 $81 reversed $135 $-1 #
edge $-1 $136 -34.373621545068879 $137 34.373621545068879 $80 $138 forward 7 unknown #
face $-1 $139 $140 $19 $-1 $141 reversed single #
loop $-1 $-1 $142 $52 #
plane-surface $-1 -60.02199340878704 -21.943463955551145 0 -1 0 0 0 0 1 forward_v I I I I #
coedge $-1 $143 $144 $145 $146 forward $53 $-1 #
coedge $-1 $147 $55 $148 $149 reversed $34 $-1 #
coedge $-1 $55 $147 $150 $151 reversed $34 $-1 #
coedge $-1 $152 $153 $55 $89 forward $154 $-1 #
edge $-1 $155 -10.717327407240262 $156 10.717327407240262 $88 $157 forward 7 unknown #
face $-1 $158 $159 $20 $-1 $160 reversed single #
loop $-1 $-1 $161 $56 #
plane-surface $-1 0 -34.373621545068879 0 0 1 0 0 0 1 forward_v I I I I #
coedge $-1 $162 $163 $164 $165 reversed $57 $-1 #
coedge $-1 $166 $59 $167 $168 reversed $37 $-1 #
coedge $-1 $59 $166 $161 $169 reversed $37 $-1 #
coedge $-1 $170 $171 $59 $97 forward $172 $-1 #
edge $-1 $173 -34.373621545068879 $174 34.373621545068879 $96 $175 forward 7 unknown #
face $-1 $176 $177 $21 $-1 $178 reversed single #
loop $-1 $-1 $179 $60 #
plane-surface $-1 -37.444954998886217 111.96312000856813 134.55291880304873 1 0 0 0 -0.84804810408105047 -0.52991925155115449 forward_v I I I I #
coedge $-1 $180 $181 $182 $183 reversed $61 $-1 #
coedge $-1 $103 $63 $184 $185 reversed $40 $-1 #
coedge $-1 $63 $102 $180 $186 reversed $40 $-1 #
coedge $-1 $182 $187 $63 $105 forward $177 $-1 #
edge $-1 $188 56.559131994284101 $189 62.272102190029791 $104 $190 forward 7 unknown #
loop $-1 $-1 $111 $64 #
plane-surface $-1 -26.702456183944079 -2.0568660594621804 63.30532637488497 0 0.84804810408105047 0.52991925155115449 1 0 0 forward_v I I I I #
loop $-1 $-1 $191 $42 #
coedge $-1 $109 $109 $110 $192 reversed $65 $-1 #
coedge $-1 $110 $110 $109 $192 forward $67 $-1 #
coedge $-1 $111 $111 $68 $112 forward $106 $-1 #
edge $-1 $193 2.362131812860923e-018 $193 6.2831853071796004 $111 $194 forward 7 unknown #
loop $-1 $-1 $118 $69 #
plane-surface $-1 -26.702456183944079 -2.0568660594621804 63.30532637488497 0 0.84804810408105047 0.52991925155115449 1 0 0 forward_v I I I I #
loop $-1 $-1 $195 $45 #
coedge $-1 $116 $116 $117 $196 reversed $70 $-1 #
coedge $-1 $117 $117 $116 $196 forward $72 $-1 #
coedge $-1 $118 $118 $73 $119 forward $113 $-1 #
edge $-1 $197 2.362131812860923e-018 $197 6.2831853071796004 $118 $198 forward 7 unknown #
face $-1 $199 $200 $18 $-1 $201 reversed single #
loop $-1 $-1 $202 $74 #
plane-surface $-1 -67.224951933347569 0 0 1 0 0 0 0 -1 forward_v I I I I #
coedge $-1 $203 $131 $204 $205 forward $75 $-1 #
coedge $-1 $206 $77 $203 $207 forward $49 $-1 #
coedge $-1 $77 $206 $208 $209 forward $49 $-1 #
coedge $-1 $134 $133 $77 $127 reversed $135 $-1 #
edge $-1 $210 -34.373621545068879 $211 34.373621545068879 $126 $212 forward 7 unknown #
coedge $-1 $79 $78 $213 $214 forward $31 $-1 #
coedge $-1 $215 $216 $78 $130 reversed $200 $-1 #
edge $-1 $137 -67.224951933347569 $217 67.224951933347569 $129 $218 forward 7 unknown #
coedge $-1 $123 $219 $79 $132 reversed $75 $-1 #
edge $-1 $220 -67.224951933347569 $136 67.224951933347569 $131 $221 forward 7 unknown #
coedge $-1 $126 $80 $219 $222 forward $135 $-1 #
coedge $-1 $80 $126 $215 $223 reversed $135 $-1 #
loop $-1 $-1 $133 $199 #
vertex $-1 $81 $224 #
vertex $-1 $81 $225 #
straight-curve $-1 67.224951933347569 0 10.717327407240262 0 1 0 I I #
face $-1 $226 $227 $19 $-1 $228 forward single #
loop $-1 $-1 $229 $82 #
plane-surface $-1 0 0 -10.717327407240262 0 0 1 1 0 0 forward_v I I I I #
coedge $-1 $230 $231 $147 $232 forward $83 $-1 #
coedge $-1 $233 $85 $229 $234 reversed $53 $-1 #
coedge $-1 $85 $233 $235 $236 reversed $53 $-1 #
coedge $-1 $231 $230 $85 $146 reversed $83 $-1 #
edge $-1 $237 -10.717327407240262 $238 10.717327407240262 $145 $239 forward 7 unknown #
coedge $-1 $87 $86 $142 $232 reversed $34 $-1 #
coedge $-1 $240 $241 $86 $149 forward $140 $-1 #
edge $-1 $242 28.210257073253388 $155 35.413215597813917 $148 $243 forward 7 unknown #
coedge $-1 $244 $245 $87 $151 forward $227 $-1 #
edge $-1 $156 -35.413215597813917 $246 -28.210257073253388 $150 $247 forward 7 unknown #
coedge $-1 $248 $88 $245 $249 reversed $154 $-1 #
coedge $-1 $88 $248 $240 $250 reversed $154 $-1 #
loop $-1 $-1 $248 $226 #
vertex $-1 $250 $251 #
vertex $-1 $89 $252 #
straight-curve $-1 -67.224951933347569 -23.443463955551145 0 0 0 1 I I #
face $-1 $253 $254 $20 $-1 $255 reversed single #
loop $-1 $-1 $256 $90 #
plane-surface $-1 0 0 -10.717327407240262 0 0 1 1 0 0 forward_v I I I I #
coedge $-1 $257 $258 $95 $169 forward $91 $-1 #
coedge $-1 $259 $93 $256 $260 reversed $57 $-1 #
coedge $-1 $93 $259 $166 $261 reversed $57 $-1 #
coedge $-1 $167 $262 $93 $165 forward $254 $-1 #
edge $-1 $263 -6.4219087998781426 $264 -2.1689284148460954 $164 $265 forward 7 unknown #
coedge $-1 $95 $94 $163 $261 forward $37 $-1 #
coedge $-1 $266 $164 $94 $168 forward $254 $-1 #
edge $-1 $264 24.287022493418135 $173 36.720960457758991 $167 $267 forward 7 unknown #
edge $-1 $174 -36.720960457758991 $268 -24.287022493418135 $161 $269 forward 7 unknown #
coedge $-1 $270 $96 $258 $271 forward $172 $-1 #
coedge $-1 $96 $270 $266 $272 reversed $172 $-1 #
loop $-1 $-1 $96 $253 #
vertex $-1 $272 $273 #
vertex $-1 $271 $274 #
straight-curve $-1 67.224951933347569 0 -6.4643470222082149 0 -1 0 I I #
face $-1 $-1 $275 $21 $-1 $276 forward single #
loop $-1 $-1 $104 $98 #
plane-surface $-1 0 34.373621545068879 0 0 -1 0 0 0 -1 forward_v I I I I #
coedge $-1 $277 $278 $279 $280 reversed $99 $-1 #
coedge $-1 $281 $101 $103 $186 forward $61 $-1 #
coedge $-1 $101 $281 $277 $282 forward $61 $-1 #
coedge $-1 $279 $104 $101 $183 forward $177 $-1 #
edge $-1 $189 2.6087292770299051 $283 24.093726906914178 $182 $284 forward 7 unknown #
coedge $-1 $285 $286 $102 $185 forward $275 $-1 #
edge $-1 $287 -25.177798324115329 $188 -21.607938459215184 $184 $288 forward 7 unknown #
edge $-1 $189 -68.747243090137729 $287 -62.01063207921365 $103 $289 forward 7 unknown #
coedge $-1 $104 $279 $285 $290 reversed $177 $-1 #
vertex $-1 $290 $291 #
vertex $-1 $105 $292 #
straight-curve $-1 -15.959957369001945 34.373621545068879 67.276459401524363 0 0 -1 I I #
coedge $-1 $191 $191 $-1 $293 reversed $108 $-1 #
edge $-1 $294 0 $294 6.2831853071796004 $109 $295 forward 7 unknown #
vertex $-1 $112 $296 #
ellipse-curve $-1 -31.306384247490705 32.588691612618817 7.8608423093673947 0 0.84804810408105047 0.52991925155115449 1 0 0 1 I I #
coedge $-1 $195 $195 $-1 $297 reversed $115 $-1 #
edge $-1 $298 0 $298 6.2831853071796004 $116 $299 forward 7 unknown #
vertex $-1 $119 $300 #
ellipse-curve $-1 -22.098528120397447 32.588691612618817 7.8608423093673947 0 0.84804810408105047 0.52991925155115449 1 0 0 1 I I #
face $-1 $-1 $135 $18 $-1 $301 reversed single #
loop $-1 $-1 $215 $120 #
plane-surface $-1 0 34.373621545068879 0 0 -1 0 0 0 -1 forward_v I I I I #
coedge $-1 $302 $213 $216 $303 forward $121 $-1 #
coedge $-1 $219 $123 $124 $207 reversed $75 $-1 #
coedge $-1 $213 $302 $123 $205 reversed $121 $-1 #
edge $-1 $220 -10.717327407240262 $304 10.717327407240262 $204 $305 forward 7 unknown #
coedge $-1 $125 $124 $302 $306 forward $49 $-1 #
edge $-1 $211 -67.224951933347569 $304 67.224951933347569 $203 $307 forward 7 unknown #
coedge $-1 $216 $215 $125 $209 reversed $200 $-1 #
edge $-1 $308 -67.224951933347569 $210 67.224951933347569 $208 $309 forward 7 unknown #
vertex $-1 $127 $310 #
vertex $-1 $222 $311 #
straight-curve $-1 67.224951933347569 0 -10.717327407240262 0 -1 0 I I #
coedge $-1 $202 $204 $128 $214 reversed $121 $-1 #
edge $-1 $217 -34.373621545068879 $220 34.373621545068879 $213 $312 forward 7 unknown #
coedge $-1 $208 $129 $134 $223 forward $200 $-1 #
coedge $-1 $129 $208 $202 $303 reversed $200 $-1 #
vertex $-1 $130 $313 #
straight-curve $-1 0 34.373621545068879 10.717327407240262 -1 0 0 I I #
coedge $-1 $131 $203 $133 $222 reversed $75 $-1 #
vertex $-1 $214 $314 #
straight-curve $-1 0 -34.373621545068879 10.717327407240262 1 0 0 I I #
edge $-1 $136 -10.717327407240262 $211 10.717327407240262 $133 $315 forward 7 unknown #
edge $-1 $137 -10.717327407240262 $210 10.717327407240262 $134 $316 forward 7 unknown #
point $-1 67.224951933347569 -34.373621545068879 10.717327407240262 #
point $-1 67.224951933347569 34.373621545068879 10.717327407240262 #
face $-1 $-1 $154 $19 $-1 $317 reversed single #
loop $-1 $-1 $235 $139 #
plane-surface $-1 0 0 10.717327407240262 0 0 1 1 0 0 forward_v I I I I #
coedge $-1 $241 $240 $143 $234 forward $140 $-1 #
coedge $-1 $145 $142 $241 $318 reversed $83 $-1 #
coedge $-1 $142 $145 $244 $319 reversed $83 $-1 #
edge $-1 $246 -10.717327407240262 $242 10.717327407240262 $142 $320 forward 7 unknown #
coedge $-1 $144 $143 $248 $321 reversed $53 $-1 #
edge $-1 $322 -35.413215597813917 $238 -28.210257073253388 $229 $323 forward 7 unknown #
coedge $-1 $245 $244 $144 $236 forward $227 $-1 #
edge $-1 $237 28.210257073253388 $324 35.413215597813917 $235 $325 forward 7 unknown #
vertex $-1 $236 $326 #
vertex $-1 $234 $327 #
straight-curve $-1 -60.02199340878704 -20.443463955551145 0 0 0 -1 I I #
coedge $-1 $229 $148 $153 $250 forward $140 $-1 #
coedge $-1 $148 $229 $230 $318 forward $140 $-1 #
vertex $-1 $149 $328 #
straight-curve $-1 -31.811736335533652 -23.443463955551145 -10.717327407240262 -1 0 0 I I #
coedge $-1 $235 $150 $231 $319 forward $227 $-1 #
coedge $-1 $150 $235 $152 $249 forward $227 $-1 #
vertex $-1 $151 $329 #
straight-curve $-1 -31.811736335533652 -23.443463955551145 10.717327407240262 1 0 0 I I #
coedge $-1 $153 $152 $233 $321 forward $154 $-1 #
edge $-1 $324 20.443463955551145 $156 23.443463955551145 $152 $330 forward 7 unknown #
edge $-1 $155 -23.443463955551145 $322 -20.443463955551145 $153 $331 forward 7 unknown #
point $-1 -67.224951933347569 -23.443463955551145 -10.717327407240262 #
point $-1 -67.224951933347569 -23.443463955551145 10.717327407240262 #
face $-1 $-1 $172 $20 $-1 $332 reversed single #
loop $-1 $-1 $167 $158 #
plane-surface $-1 0 34.373621545068879 0 0 -1 0 0 0 -1 forward_v I I I I #
coedge $-1 $333 $334 $162 $260 forward $159 $-1 #
coedge $-1 $335 $161 $259 $336 forward $91 $-1 #
coedge $-1 $161 $335 $170 $271 reversed $91 $-1 #
coedge $-1 $163 $162 $257 $336 reversed $57 $-1 #
edge $-1 $337 -34.373621545068879 $263 34.373621545068879 $256 $338 forward 7 unknown #
edge $-1 $264 -34.373621545068879 $268 34.373621545068879 $163 $339 forward 7 unknown #
coedge $-1 $164 $266 $333 $340 reversed $254 $-1 #
vertex $-1 $340 $341 #
vertex $-1 $168 $342 #
straight-curve $-1 54.791013969006698 34.373621545068879 -4.2954186073621194 0 0 1 I I #
coedge $-1 $262 $167 $171 $272 forward $254 $-1 #
straight-curve $-1 30.503991475588563 34.373621545068879 -6.4643470222082149 1 0 0 I I #
vertex $-1 $169 $343 #
straight-curve $-1 30.503991475588563 -34.373621545068879 -6.4643470222082149 -1 0 0 I I #
coedge $-1 $171 $170 $344 $345 reversed $172 $-1 #
edge $-1 $174 6.4643470222082149 $346 10.717327407240262 $170 $347 forward 7 unknown #
edge $-1 $173 6.4643470222082149 $348 10.717327407240262 $171 $349 forward 7 unknown #
point $-1 67.224951933347555 34.373621545068879 -6.4643470222082149 #
point $-1 67.224951933347555 -34.373621545068879 -6.4643470222082149 #
loop $-1 $-1 $184 $176 #
plane-surface $-1 0 0 10.717327407240262 0 0 1 1 0 0 forward_v I I I I #
coedge $-1 $278 $179 $181 $282 reversed $99 $-1 #
coedge $-1 $179 $277 $350 $351 reversed $99 $-1 #
coedge $-1 $187 $182 $179 $280 forward $177 $-1 #
edge $-1 $283 -62.272102190029791 $352 -56.559131994284101 $279 $353 forward 7 unknown #
coedge $-1 $181 $180 $286 $354 reversed $61 $-1 #
edge $-1 $355 62.01063207921365 $283 68.747243090137729 $277 $356 forward 7 unknown #
vertex $-1 $183 $357 #
straight-curve $-1 -13.35122809197204 34.373621545068879 5.0043572114945754 -1 0 0 I I #
coedge $-1 $350 $184 $187 $290 forward $275 $-1 #
coedge $-1 $184 $350 $281 $354 forward $275 $-1 #
vertex $-1 $185 $358 #
straight-curve $-1 -15.959957369001945 55.981560004284063 10.717327407240262 0 1 0 I I #
straight-curve $-1 -15.959957369001945 -2.0568660594621804 63.30532637488497 0 -0.52991925155115449 0.84804810408105047 I I #
edge $-1 $188 15.959957369001945 $352 37.444954998886217 $187 $359 forward 7 unknown #
point $-1 -15.959957369001945 34.373621545068879 10.717327407240262 #
point $-1 -15.959957369001945 34.373621545068879 5.0043572114945718 #
edge $-1 $360 1 $360 0 $191 $-1 forward 7 unknown #
vertex $-1 $192 $361 #
ellipse-curve $-1 -31.306384247490705 31.007844228196216 6.8730192616670704 0 0.84804810408105047 0.52991925155115449 1 0 0 1 I I #
point $-1 -30.306384247490705 32.588691612618796 7.8608423093673814 #
edge $-1 $362 1 $362 0 $195 $-1 forward 7 unknown #
vertex $-1 $196 $363 #
ellipse-curve $-1 -22.098528120397447 31.007844228196216 6.8730192616670704 0 0.84804810408105047 0.52991925155115449 1 0 0 1 I I #
point $-1 -21.098528120397447 32.588691612618796 7.8608423093673814 #
plane-surface $-1 67.224951933347569 0 0 -1 0 0 0 0 1 forward_v I I I I #
coedge $-1 $204 $202 $206 $306 reversed $121 $-1 #
edge $-1 $217 -10.717327407240262 $308 10.717327407240262 $216 $364 forward 7 unknown #
vertex $-1 $306 $365 #
straight-curve $-1 -67.224951933347569 -34.373621545068879 0 0 0 -1 I I #
edge $-1 $304 -34.373621545068879 $308 34.373621545068879 $302 $366 forward 7 unknown #
straight-curve $-1 0 -34.373621545068879 -10.717327407240262 -1 0 0 I I #
vertex $-1 $209 $367 #
straight-curve $-1 0 34.373621545068879 -10.717327407240262 1 0 0 I I #
point $-1 67.224951933347569 34.373621545068879 -10.717327407240262 #
point $-1 67.224951933347569 -34.373621545068879 -10.717327407240262 #
straight-curve $-1 -67.224951933347569 0 10.717327407240262 0 -1 0 I I #
point $-1 -67.224951933347569 34.373621545068879 10.717327407240262 #
point $-1 -67.224951933347569 -34.373621545068879 10.717327407240262 #
straight-curve $-1 67.224951933347569 -34.373621545068879 0 0 0 -1 I I #
straight-curve $-1 67.224951933347569 34.373621545068879 0 0 0 -1 I I #
plane-surface $-1 -67.224951933347569 0 0 1 0 0 0 0 -1 forward_v I I I I #
edge $-1 $238 9.4717319777755726 $242 12.471731977775573 $241 $368 forward 7 unknown #
edge $-1 $246 -12.471731977775573 $237 -9.4717319777755726 $244 $369 forward 7 unknown #
straight-curve $-1 -60.02199340878704 -23.443463955551145 0 0 0 -1 I I #
edge $-1 $324 -10.717327407240262 $322 10.717327407240262 $248 $370 forward 7 unknown #
vertex $-1 $321 $371 #
straight-curve $-1 -31.811736335533652 -20.443463955551145 -10.717327407240262 1 0 0 I I #
vertex $-1 $249 $372 #
straight-curve $-1 -31.811736335533652 -20.443463955551145 10.717327407240262 -1 0 0 I I #
point $-1 -60.02199340878704 -20.443463955551145 10.717327407240262 #
point $-1 -60.02199340878704 -20.443463955551145 -10.717327407240262 #
point $-1 -60.02199340878704 -23.443463955551145 -10.717327407240262 #
point $-1 -60.02199340878704 -23.443463955551145 10.717327407240262 #
straight-curve $-1 -67.224951933347569 0 10.717327407240262 0 -1 0 I I #
straight-curve $-1 -67.224951933347569 0 -10.717327407240262 0 1 0 I I #
plane-surface $-1 67.224951933347569 0 0 -1 0 0 0 0 1 forward_v I I I I #
coedge $-1 $344 $256 $262 $340 forward $159 $-1 #
coedge $-1 $256 $344 $335 $373 forward $159 $-1 #
coedge $-1 $258 $257 $334 $373 reversed $91 $-1 #
edge $-1 $268 2.1689284148460954 $337 6.4219087998781426 $257 $374 forward 7 unknown #
vertex $-1 $260 $375 #
straight-curve $-1 54.791013969006698 0 -10.717327407240262 0 1 0 I I #
straight-curve $-1 54.791013969006698 0 -6.4643470222082149 0 -1 0 I I #
edge $-1 $263 54.791013969006698 $348 67.224951933347569 $262 $376 forward 7 unknown #
point $-1 54.791013969006698 34.373621545068879 -10.717327407240262 #
point $-1 54.791013969006698 34.373621545068879 -6.4643470222082149 #
point $-1 54.791013969006698 -34.373621545068879 -6.4643470222082149 #
coedge $-1 $334 $333 $270 $345 forward $159 $-1 #
edge $-1 $348 -34.373621545068879 $346 34.373621545068879 $270 $377 forward 7 unknown #
vertex $-1 $271 $378 #
straight-curve $-1 67.224951933347569 -34.373621545068879 0 0 0 -1 I I #
vertex $-1 $345 $379 #
straight-curve $-1 67.224951933347569 34.373621545068879 0 0 0 -1 I I #
coedge $-1 $286 $285 $278 $351 forward $275 $-1 #
edge $-1 $352 21.607938459215184 $355 25.177798324115329 $350 $380 forward 7 unknown #
vertex $-1 $351 $381 #
straight-curve $-1 -37.444954998886217 34.373621545068879 67.276459401524363 0 0 1 I I #
edge $-1 $355 -24.093726906914178 $287 -2.6087292770299051 $286 $382 forward 7 unknown #
vertex $-1 $354 $383 #
straight-curve $-1 -37.444954998886217 -2.0568660594621804 63.30532637488497 0 0.52991925155115449 -0.84804810408105047 I I #
point $-1 -37.444954998886217 34.373621545068879 5.0043572114945718 #
point $-1 -15.959957369001945 30.803761680168734 10.717327407240262 #
straight-curve $-1 0 34.373621545068879 10.717327407240262 -1 0 0 I I #
vertex $-1 $293 $384 #
point $-1 -30.306384247490705 31.007844228196216 6.8730192616670704 #
vertex $-1 $297 $385 #
point $-1 -21.098528120397447 31.007844228196216 6.8730192616670704 #
straight-curve $-1 -67.224951933347569 34.373621545068879 0 0 0 -1 I I #
point $-1 -67.224951933347569 -34.373621545068879 -10.717327407240262 #
straight-curve $-1 -67.224951933347569 0 -10.717327407240262 0 1 0 I I #
point $-1 -67.224951933347569 34.373621545068879 -10.717327407240262 #
straight-curve $-1 -60.02199340878704 -10.971731977775573 -10.717327407240262 0 -1 0 I I #
straight-curve $-1 -60.02199340878704 -10.971731977775573 10.717327407240262 0 1 0 I I #
straight-curve $-1 -67.224951933347569 -20.443463955551145 0 0 0 -1 I I #
point $-1 -67.224951933347569 -20.443463955551145 -10.717327407240262 #
point $-1 -67.224951933347569 -20.443463955551145 10.717327407240262 #
edge $-1 $346 -67.224951933347569 $337 -54.791013969006698 $335 $386 forward 7 unknown #
straight-curve $-1 54.791013969006698 -34.373621545068879 -4.2954186073621194 0 0 -1 I I #
point $-1 54.791013969006698 -34.373621545068879 -10.717327407240262 #
straight-curve $-1 0 34.373621545068879 -10.717327407240262 1 0 0 I I #
straight-curve $-1 67.224951933347569 0 -10.717327407240262 0 -1 0 I I #
point $-1 67.224951933347569 -34.373621545068879 -10.717327407240262 #
point $-1 67.224951933347569 34.373621545068879 -10.717327407240262 #
straight-curve $-1 -37.444954998886217 55.981560004284063 10.717327407240262 0 -1 0 I I #
point $-1 -37.444954998886217 34.373621545068879 10.717327407240262 #
straight-curve $-1 -13.35122809197204 30.80376168016873 10.717327407240262 1 0 0 I I #
point $-1 -37.444954998886217 30.803761680168734 10.717327407240262 #
point $-1 -31.306384247490705 30.159796124115164 6.3431000101159158 #
point $-1 -22.098528120397447 30.159796124115164 6.3431000101159158 #
straight-curve $-1 0 -34.373621545068879 -10.717327407240262 -1 0 0 I I #
End-of-ACIS-data 