500 0 10 0           
7 Unknown 11 ACIS 5.0 NT 24 Fri Mar 26 17:40:16 1999 
-1 9.9999999999999995e-007 1e-010 
body $-1 $10 $-1 $11 #
body $-1 $12 $-1 $13 #
body $-1 $14 $-1 $15 #
body $-1 $16 $-1 $17 #
body $-1 $18 $-1 $19 #
body $-1 $20 $-1 $21 #
body $-1 $22 $-1 $23 #
body $-1 $24 $-1 $25 #
body $-1 $26 $-1 $27 #
body $-1 $28 $-1 $29 #
lump $-1 $-1 $30 $0 #
transform $-1 1 0 0 0 1 0 0 0 1 60.422986541337323 33.398880954518312 10.506678212563839 1 rotate no_reflect no_shear #
lump $-1 $-1 $31 $1 #
transform $-1 1 0 0 0 1 0 0 0 1 60.422986541337323 33.398880954518312 10.506678212563839 1 rotate no_reflect no_shear #
lump $-1 $-1 $32 $2 #
transform $-1 1 0 0 0 1 0 0 0 1 60.422986541337323 33.398880954518312 10.506678212563839 1 rotate no_reflect no_shear #
lump $-1 $-1 $33 $3 #
transform $-1 1 0 0 0 1 0 0 0 1 60.422986541337323 33.398880954518312 10.506678212563839 1 rotate no_reflect no_shear #
lump $-1 $-1 $34 $4 #
transform $-1 1 0 0 0 1 0 0 0 1 60.422986541337323 33.398880954518312 10.506678212563839 1 rotate no_reflect no_shear #
lump $-1 $-1 $35 $5 #
transform $-1 1 0 0 0 1 0 0 0 1 60.422986541337323 33.398880954518312 10.506678212563839 1 rotate no_reflect no_shear #
lump $-1 $-1 $36 $6 #
transform $-1 1 0 0 0 1 0 0 0 1 60.422986541337323 33.398880954518312 10.506678212563839 1 rotate no_reflect no_shear #
lump $-1 $-1 $37 $7 #
transform $-1 1 0 0 0 1 0 0 0 1 60.422986541337323 33.398880954518312 10.506678212563839 1 rotate no_reflect no_shear #
lump $-1 $-1 $38 $8 #
transform $-1 1 0 0 0 1 0 0 0 1 60.422986541337323 33.398880954518312 10.506678212563839 1 rotate no_reflect no_shear #
lump $-1 $-1 $39 $9 #
transform $-1 1 0 0 0 1 0 0 0 1 60.422986541337323 33.398880954518312 10.506678212563839 1 rotate no_reflect no_shear #
shell $-1 $-1 $-1 $40 $-1 $10 #
shell $-1 $-1 $-1 $41 $-1 $12 #
shell $-1 $-1 $-1 $42 $-1 $14 #
shell $-1 $-1 $-1 $43 $-1 $16 #
shell $-1 $-1 $-1 $44 $-1 $18 #
shell $-1 $-1 $-1 $45 $-1 $20 #
shell $-1 $-1 $-1 $46 $-1 $22 #
shell $-1 $-1 $-1 $47 $-1 $24 #
shell $-1 $-1 $-1 $48 $-1 $26 #
shell $-1 $-1 $-1 $49 $-1 $28 #
face $-1 $50 $51 $30 $-1 $52 reversed single #
face $-1 $53 $54 $31 $-1 $55 forward single #
face $-1 $56 $57 $32 $-1 $58 forward single #
face $-1 $59 $60 $33 $-1 $61 reversed single #
face $-1 $62 $63 $34 $-1 $64 forward single #
face $-1 $65 $66 $35 $-1 $67 reversed single #
face $-1 $68 $69 $36 $-1 $70 forward single #
face $-1 $71 $72 $37 $-1 $73 reversed single #
face $-1 $74 $75 $38 $-1 $76 forward single #
face $-1 $77 $78 $39 $-1 $79 forward single #
face $-1 $80 $81 $30 $-1 $82 reversed single #
loop $-1 $-1 $83 $40 #
plane-surface $-1 60.422986541337323 0 0 -1 0 0 0 0 1 forward_v I I I I #
face $-1 $84 $85 $31 $-1 $86 reversed single #
loop $-1 $-1 $87 $41 #
plane-surface $-1 -60.422986541337323 0 0 1 0 0 0 0 -1 forward_v I I I I #
face $-1 $88 $89 $32 $-1 $90 reversed single #
loop $-1 $-1 $91 $42 #
plane-surface $-1 60.422986541337323 0 0 -1 0 0 0 0 1 forward_v I I I I #
face $-1 $92 $93 $33 $-1 $94 reversed single #
loop $-1 $-1 $95 $43 #
plane-surface $-1 -28.116631875903128 64.620210539716993 134.9492167964998 1 0 0 0 -0.66913061440640931 -0.74314481823134659 forward_v I I I I #
face $-1 $96 $97 $34 $-1 $98 forward single #
loop $-1 $99 $100 $44 #
cone-surface $-1 -22.194539565640916 25.766889102808367 3.2047909400092296 0 -0.66913061440640931 -0.74314481823134659 2 0 0 1 I I 0 1 2 forward I I I I #
face $-1 $101 $102 $35 $-1 $103 reversed single #
loop $-1 $-1 $104 $45 #
plane-surface $-1 19.781375857506415 64.620210539716993 134.9492167964998 1 0 0 0 -0.66913061440640931 -0.74314481823134659 forward_v I I I I #
face $-1 $105 $106 $36 $-1 $107 forward single #
loop $-1 $108 $109 $46 #
cone-surface $-1 25.703468167768634 25.766889102808367 3.2047909400092296 0 -0.66913061440640931 -0.74314481823134659 2 0 0 1 I I 0 1 2 forward I I I I #
face $-1 $110 $111 $37 $-1 $112 reversed single #
loop $-1 $-1 $113 $47 #
plane-surface $-1 22.015030055990337 -117.34554867884947 91.253440591004008 -1 0 0 0 -0.69465837861970381 0.71933979245794832 forward_v I I I I #
face $-1 $114 $115 $38 $-1 $116 forward single #
loop $-1 $117 $118 $48 #
cone-surface $-1 12.01669238931386 -29.411379050030348 6.6010696086054814 0 0.69465837861970381 -0.71933979245794832 1 0 0 1 I I 0 1 1 forward I I I I #
face $-1 $119 $120 $39 $-1 $121 forward single #
loop $-1 $122 $123 $49 #
cone-surface $-1 18.015694989319741 -29.411379050030348 6.6010696086054814 0 0.69465837861970381 -0.71933979245794832 1 0 0 1 I I 0 1 1 forward I I I I #
face $-1 $124 $125 $30 $-1 $126 forward single #
loop $-1 $-1 $127 $50 #
plane-surface $-1 -60.422986541337323 0 0 1 0 0 0 0 -1 forward_v I I I I #
coedge $-1 $128 $129 $130 $131 reversed $51 $-1 #
face $-1 $132 $133 $31 $-1 $134 reversed single #
loop $-1 $-1 $135 $53 #
plane-surface $-1 0 0 -10.506678212563839 0 0 1 1 0 0 forward_v I I I I #
coedge $-1 $136 $137 $138 $139 forward $54 $-1 #
face $-1 $140 $141 $32 $-1 $142 reversed single #
loop $-1 $-1 $143 $56 #
plane-surface $-1 0 0 -10.506678212563839 0 0 1 1 0 0 forward_v I I I I #
coedge $-1 $144 $145 $146 $147 forward $57 $-1 #
face $-1 $148 $149 $33 $-1 $150 reversed single #
loop $-1 $-1 $151 $59 #
plane-surface $-1 -22.194539565640909 -16.241529677633494 45.143158095985342 0 0.66913061440640931 0.74314481823134659 1 0 0 forward_v I I I I #
coedge $-1 $152 $153 $154 $155 reversed $60 $-1 #
face $-1 $-1 $156 $34 $-1 $157 forward single #
loop $-1 $158 $159 $62 #
cone-surface $-1 -22.194539565640916 23.052118357552395 0.18973264109588861 0 -0.66913061440640931 -0.74314481823134659 1 0 0 1 I I -0.70710678118654746 0.70710678118654746 1 forward I I I I #
loop $-1 $-1 $160 $44 #
coedge $-1 $100 $100 $161 $162 reversed $63 $-1 #
face $-1 $163 $164 $35 $-1 $165 reversed single #
loop $-1 $-1 $166 $65 #
plane-surface $-1 25.703468167768634 -16.241529677633494 45.143158095985342 0 0.66913061440640931 0.74314481823134659 1 0 0 forward_v I I I I #
coedge $-1 $167 $168 $169 $170 reversed $66 $-1 #
face $-1 $-1 $171 $36 $-1 $172 forward single #
loop $-1 $173 $174 $68 #
cone-surface $-1 25.703468167768634 23.052118357552395 0.18973264109588861 0 -0.66913061440640931 -0.74314481823134659 1 0 0 1 I I -0.70710678118654746 0.70710678118654746 1 forward I I I I #
loop $-1 $-1 $175 $46 #
coedge $-1 $109 $109 $176 $177 reversed $69 $-1 #
face $-1 $178 $179 $37 $-1 $180 reversed single #
loop $-1 $-1 $181 $71 #
plane-surface $-1 15.016193689316808 -33.398880954518333 4.3241233943340234 0 -0.69465837861970381 0.71933979245794832 1 0 0 forward_v I I I I #
coedge $-1 $182 $183 $184 $185 reversed $72 $-1 #
face $-1 $-1 $186 $38 $-1 $187 forward single #
loop $-1 $188 $189 $74 #
cone-surface $-1 12.01669238931386 -28.277659349031318 5.4270685175330637 0 0.69465837861970381 -0.71933979245794832 0.5 0 0 1 I I -0.70710678118654746 0.70710678118654746 0.5 forward I I I I #
loop $-1 $-1 $190 $48 #
coedge $-1 $118 $118 $191 $192 reversed $75 $-1 #
face $-1 $-1 $193 $39 $-1 $194 forward single #
loop $-1 $195 $196 $77 #
cone-surface $-1 18.015694989319741 -28.277659349031318 5.4270685175330637 0 0.69465837861970381 -0.71933979245794832 0.5 0 0 1 I I -0.70710678118654746 0.70710678118654746 0.5 forward I I I I #
loop $-1 $-1 $197 $49 #
coedge $-1 $123 $123 $198 $199 reversed $78 $-1 #
face $-1 $200 $201 $30 $-1 $202 reversed single #
loop $-1 $-1 $203 $80 #
plane-surface $-1 0 0 10.506678212563839 0 0 1 1 0 0 forward_v I I I I #
coedge $-1 $204 $205 $206 $207 reversed $81 $-1 #
coedge $-1 $208 $83 $209 $210 reversed $51 $-1 #
coedge $-1 $83 $208 $211 $212 forward $51 $-1 #
coedge $-1 $213 $214 $83 $131 forward $201 $-1 #
edge $-1 $215 -33.398880954518312 $216 33.398880954518312 $83 $217 forward 7 unknown #
face $-1 $218 $219 $31 $-1 $220 reversed single #
loop $-1 $-1 $221 $84 #
plane-surface $-1 -66.685475945301221 -31.428060226832446 0 0 1 0 0 0 1 forward_v I I I I #
coedge $-1 $222 $223 $137 $224 forward $85 $-1 #
coedge $-1 $225 $87 $226 $227 reversed $54 $-1 #
coedge $-1 $87 $225 $135 $224 reversed $54 $-1 #
coedge $-1 $228 $229 $87 $139 reversed $230 $-1 #
edge $-1 $231 -10.506678212563839 $232 10.506678212563839 $138 $233 forward 7 unknown #
face $-1 $234 $235 $32 $-1 $236 reversed single #
loop $-1 $-1 $146 $88 #
plane-surface $-1 66.685475945301221 -31.428060226832446 0 0 1 0 0 0 1 forward_v I I I I #
coedge $-1 $237 $238 $145 $239 forward $89 $-1 #
coedge $-1 $240 $91 $241 $242 reversed $57 $-1 #
coedge $-1 $91 $240 $143 $239 reversed $57 $-1 #
coedge $-1 $243 $244 $91 $147 reversed $141 $-1 #
edge $-1 $245 -10.506678212563839 $246 10.506678212563839 $146 $247 forward 7 unknown #
face $-1 $248 $249 $33 $-1 $250 reversed single #
loop $-1 $-1 $251 $92 #
plane-surface $-1 -16.27244725537869 64.620210539716993 134.9492167964998 -1 0 0 0 0.66913061440640931 0.74314481823134659 forward_v I I I I #
coedge $-1 $252 $253 $254 $255 reversed $93 $-1 #
coedge $-1 $153 $95 $256 $257 reversed $60 $-1 #
coedge $-1 $95 $152 $252 $258 reversed $60 $-1 #
coedge $-1 $254 $259 $95 $155 forward $260 $-1 #
edge $-1 $261 -1.0887756846598151 $262 10.083927757060962 $154 $263 forward 7 unknown #
loop $-1 $-1 $161 $96 #
plane-surface $-1 -22.194539565640909 -16.241529677633494 45.143158095985342 0 0.66913061440640931 0.74314481823134659 1 0 0 forward_v I I I I #
loop $-1 $-1 $264 $62 #
coedge $-1 $159 $159 $160 $265 reversed $97 $-1 #
coedge $-1 $160 $160 $159 $265 forward $99 $-1 #
coedge $-1 $161 $161 $100 $162 forward $156 $-1 #
edge $-1 $266 1.1544123318690708e-015 $266 6.2831853071796013 $161 $267 forward 7 unknown #
face $-1 $268 $269 $35 $-1 $270 forward single #
loop $-1 $-1 $271 $101 #
plane-surface $-1 31.625560478030852 64.620210539716993 134.9492167964998 -1 0 0 0 0.66913061440640931 0.74314481823134659 forward_v I I I I #
coedge $-1 $272 $273 $274 $275 reversed $102 $-1 #
coedge $-1 $168 $104 $276 $277 reversed $66 $-1 #
coedge $-1 $104 $167 $272 $278 reversed $66 $-1 #
coedge $-1 $274 $279 $104 $170 forward $269 $-1 #
edge $-1 $280 -1.0887756846598151 $281 10.083927757060962 $169 $282 forward 7 unknown #
loop $-1 $-1 $176 $105 #
plane-surface $-1 25.703468167768634 -16.241529677633494 45.143158095985342 0 0.66913061440640931 0.74314481823134659 1 0 0 forward_v I I I I #
loop $-1 $-1 $283 $68 #
coedge $-1 $174 $174 $175 $284 reversed $106 $-1 #
coedge $-1 $175 $175 $174 $284 forward $108 $-1 #
coedge $-1 $176 $176 $109 $177 forward $171 $-1 #
edge $-1 $285 1.1544123318690708e-015 $285 6.2831853071796013 $176 $286 forward 7 unknown #
face $-1 $287 $288 $37 $-1 $289 forward single #
loop $-1 $-1 $290 $110 #
plane-surface $-1 8.0173573226432779 -117.34554867884947 91.253440591004008 1 0 0 0 0.69465837861970381 -0.71933979245794832 forward_v I I I I #
coedge $-1 $291 $292 $293 $294 reversed $111 $-1 #
coedge $-1 $183 $113 $295 $296 reversed $72 $-1 #
coedge $-1 $113 $182 $291 $297 reversed $72 $-1 #
coedge $-1 $293 $298 $113 $185 forward $288 $-1 #
edge $-1 $299 25.273893384906422 $300 31.67611617050396 $184 $301 forward 7 unknown #
loop $-1 $-1 $191 $114 #
plane-surface $-1 15.016193689316808 -33.398880954518333 4.3241233943340234 0 -0.69465837861970381 0.71933979245794832 1 0 0 forward_v I I I I #
loop $-1 $-1 $302 $74 #
coedge $-1 $189 $189 $190 $303 reversed $115 $-1 #
coedge $-1 $190 $190 $189 $303 forward $117 $-1 #
coedge $-1 $191 $191 $118 $192 forward $186 $-1 #
edge $-1 $304 1.6723911446841345e-015 $304 6.2831853071796022 $191 $305 forward 7 unknown #
loop $-1 $-1 $198 $119 #
plane-surface $-1 15.016193689316808 -33.398880954518333 4.3241233943340234 0 -0.69465837861970381 0.71933979245794832 1 0 0 forward_v I I I I #
loop $-1 $-1 $306 $77 #
coedge $-1 $196 $196 $197 $307 reversed $120 $-1 #
coedge $-1 $197 $197 $196 $307 forward $122 $-1 #
coedge $-1 $198 $198 $123 $199 forward $193 $-1 #
edge $-1 $308 1.6723911446841345e-015 $308 6.2831853071796022 $198 $309 forward 7 unknown #
face $-1 $310 $311 $30 $-1 $312 reversed single #
loop $-1 $-1 $130 $124 #
plane-surface $-1 0 0 -10.506678212563839 0 0 1 1 0 0 forward_v I I I I #
coedge $-1 $313 $314 $208 $315 forward $125 $-1 #
coedge $-1 $316 $127 $317 $318 reversed $81 $-1 #
coedge $-1 $127 $316 $319 $320 forward $81 $-1 #
coedge $-1 $214 $213 $127 $207 forward $201 $-1 #
edge $-1 $321 -33.398880954518312 $322 33.398880954518312 $127 $323 forward 7 unknown #
coedge $-1 $129 $128 $203 $315 reversed $51 $-1 #
coedge $-1 $324 $325 $128 $210 forward $326 $-1 #
edge $-1 $327 -10.506678212563839 $215 10.506678212563839 $128 $328 forward 7 unknown #
coedge $-1 $329 $330 $129 $212 reversed $311 $-1 #
edge $-1 $331 -10.506678212563839 $216 10.506678212563839 $129 $332 forward 7 unknown #
coedge $-1 $206 $130 $330 $333 forward $201 $-1 #
coedge $-1 $130 $206 $324 $334 forward $201 $-1 #
vertex $-1 $131 $335 #
vertex $-1 $212 $336 #
straight-curve $-1 60.422986541337323 0 -10.506678212563839 0 -1 0 I I #
face $-1 $337 $230 $31 $-1 $338 reversed single #
loop $-1 $-1 $339 $132 #
plane-surface $-1 -72.947965349265118 -29.928060226832446 0 1 0 0 0 0 -1 forward_v I I I I #
coedge $-1 $340 $341 $342 $343 forward $133 $-1 #
coedge $-1 $344 $135 $340 $345 forward $85 $-1 #
coedge $-1 $135 $344 $228 $346 forward $85 $-1 #
edge $-1 $231 28.428060226832446 $347 31.428060226832446 $135 $348 forward 7 unknown #
coedge $-1 $137 $136 $349 $350 forward $54 $-1 #
coedge $-1 $351 $352 $136 $227 forward $353 $-1 #
edge $-1 $354 -31.428060226832446 $232 -28.428060226832446 $226 $355 forward 7 unknown #
coedge $-1 $356 $138 $223 $346 reversed $230 $-1 #
coedge $-1 $138 $356 $351 $357 reversed $230 $-1 #
loop $-1 $-1 $138 $218 #
vertex $-1 $224 $358 #
vertex $-1 $357 $359 #
straight-curve $-1 -60.422986541337323 -28.428060226832446 0 0 0 1 I I #
face $-1 $360 $361 $32 $-1 $362 reversed single #
loop $-1 $-1 $363 $140 #
plane-surface $-1 66.685475945301221 -28.428060226832446 0 0 -1 0 0 0 -1 forward_v I I I I #
coedge $-1 $364 $143 $365 $366 forward $89 $-1 #
coedge $-1 $143 $364 $243 $367 forward $89 $-1 #
edge $-1 $245 -31.428060226832446 $368 -28.428060226832446 $143 $369 forward 7 unknown #
coedge $-1 $145 $144 $370 $371 forward $57 $-1 #
coedge $-1 $372 $373 $144 $242 forward $374 $-1 #
edge $-1 $375 28.428060226832446 $246 31.428060226832446 $241 $376 forward 7 unknown #
coedge $-1 $377 $146 $238 $367 reversed $141 $-1 #
coedge $-1 $146 $377 $372 $378 reversed $141 $-1 #
vertex $-1 $239 $379 #
vertex $-1 $378 $380 #
straight-curve $-1 60.422986541337323 -31.428060226832446 0 0 0 1 I I #
face $-1 $-1 $260 $33 $-1 $381 forward single #
loop $-1 $-1 $382 $148 #
plane-surface $-1 0 33.398880954518312 0 0 -1 0 0 0 -1 forward_v I I I I #
coedge $-1 $383 $384 $385 $386 reversed $149 $-1 #
coedge $-1 $387 $151 $153 $258 forward $93 $-1 #
coedge $-1 $151 $387 $383 $388 forward $93 $-1 #
coedge $-1 $385 $154 $151 $255 forward $260 $-1 #
edge $-1 $262 -17.019362093082673 $389 -5.1751774725582358 $254 $390 forward 7 unknown #
coedge $-1 $391 $392 $152 $257 forward $249 $-1 #
edge $-1 $393 -67.027877769431299 $261 -56.967930185686058 $256 $394 forward 7 unknown #
edge $-1 $262 51.763406333078592 $393 66.797761909036652 $153 $395 forward 7 unknown #
coedge $-1 $154 $385 $391 $396 forward $260 $-1 #
loop $-1 $-1 $385 $248 #
vertex $-1 $257 $397 #
vertex $-1 $155 $398 #
straight-curve $-1 -28.116631875903128 32.310105269858497 10.506678212563841 0 -1 0 I I #
coedge $-1 $264 $264 $-1 $399 reversed $158 $-1 #
edge $-1 $400 0 $400 6.2831853071796004 $159 $401 forward 7 unknown #
vertex $-1 $162 $402 #
ellipse-curve $-1 -22.194539565640916 27.812529233657926 5.4767044206912203 0 0.66913061440640931 0.74314481823134659 2 0 0 1 I I #
face $-1 $-1 $403 $35 $-1 $404 reversed single #
loop $-1 $-1 $169 $163 #
plane-surface $-1 0 0 10.506678212563839 0 0 1 1 0 0 forward_v I I I I #
coedge $-1 $405 $406 $407 $408 reversed $164 $-1 #
coedge $-1 $409 $166 $168 $278 forward $102 $-1 #
coedge $-1 $166 $409 $405 $410 forward $102 $-1 #
coedge $-1 $407 $169 $166 $275 forward $269 $-1 #
edge $-1 $281 6.9296417736220981 $411 18.773826394146536 $274 $412 forward 7 unknown #
coedge $-1 $413 $414 $167 $277 forward $403 $-1 #
edge $-1 $415 -67.027877769431299 $280 -56.967930185686058 $276 $416 forward 7 unknown #
edge $-1 $281 51.763406333078592 $415 66.797761909036652 $168 $417 forward 7 unknown #
coedge $-1 $169 $407 $413 $418 forward $269 $-1 #
vertex $-1 $277 $419 #
vertex $-1 $170 $420 #
straight-curve $-1 19.781375857506415 32.310105269858497 10.506678212563841 0 -1 0 I I #
coedge $-1 $283 $283 $-1 $421 reversed $173 $-1 #
edge $-1 $422 0 $422 6.2831853071796004 $174 $423 forward 7 unknown #
vertex $-1 $177 $424 #
ellipse-curve $-1 25.703468167768634 27.812529233657926 5.4767044206912203 0 0.66913061440640931 0.74314481823134659 2 0 0 1 I I #
face $-1 $-1 $425 $37 $-1 $426 reversed single #
loop $-1 $-1 $184 $178 #
plane-surface $-1 0 0 10.506678212563839 0 0 1 1 0 0 forward_v I I I I #
coedge $-1 $427 $428 $429 $430 reversed $179 $-1 #
coedge $-1 $431 $181 $183 $297 forward $111 $-1 #
coedge $-1 $181 $431 $427 $432 forward $111 $-1 #
coedge $-1 $429 $184 $181 $294 forward $288 $-1 #
edge $-1 $300 -14.506933211331933 $433 -0.50926047798487417 $293 $434 forward 7 unknown #
coedge $-1 $435 $436 $182 $296 forward $425 $-1 #
edge $-1 $437 -41.302596901167959 $299 -35.120042082938163 $295 $438 forward 7 unknown #
edge $-1 $300 -8.9001371156202591 $437 -2.9524203284164893e-014 $183 $439 forward 7 unknown #
coedge $-1 $184 $429 $435 $440 forward $288 $-1 #
vertex $-1 $185 $441 #
vertex $-1 $185 $442 #
straight-curve $-1 22.015030055990337 -58.672774339424734 10.506678212563841 0 1 0 I I #
coedge $-1 $302 $302 $-1 $443 reversed $188 $-1 #
edge $-1 $444 0 $444 6.2831853071796004 $189 $445 forward 7 unknown #
vertex $-1 $192 $446 #
ellipse-curve $-1 12.01669238931386 -30.197769561719543 7.415400803448942 0 -0.69465837861970381 0.71933979245794832 1 0 0 1 I I #
coedge $-1 $306 $306 $-1 $447 reversed $195 $-1 #
edge $-1 $448 0 $448 6.2831853071796004 $196 $449 forward 7 unknown #
vertex $-1 $199 $450 #
ellipse-curve $-1 18.015694989319741 -30.197769561719543 7.415400803448942 0 -0.69465837861970381 0.71933979245794832 1 0 0 1 I I #
face $-1 $-1 $326 $30 $-1 $451 reversed single #
loop $-1 $-1 $317 $200 #
plane-surface $-1 0 -33.398880954518312 0 0 1 0 0 0 1 forward_v I I I I #
coedge $-1 $452 $203 $325 $453 forward $125 $-1 #
coedge $-1 $203 $452 $329 $454 forward $125 $-1 #
edge $-1 $331 -33.398880954518312 $327 33.398880954518312 $208 $455 forward 7 unknown #
coedge $-1 $205 $204 $452 $456 reversed $81 $-1 #
coedge $-1 $330 $329 $204 $318 forward $311 $-1 #
edge $-1 $457 -10.506678212563839 $321 10.506678212563839 $204 $458 forward 7 unknown #
coedge $-1 $325 $324 $205 $320 reversed $326 $-1 #
edge $-1 $459 -10.506678212563839 $322 10.506678212563839 $319 $460 forward 7 unknown #
vertex $-1 $207 $461 #
vertex $-1 $334 $462 #
straight-curve $-1 -60.422986541337323 0 -10.506678212563839 0 1 0 I I #
coedge $-1 $319 $209 $214 $334 reversed $326 $-1 #
coedge $-1 $209 $319 $313 $453 reversed $326 $-1 #
loop $-1 $-1 $209 $310 #
vertex $-1 $315 $463 #
straight-curve $-1 60.422986541337323 33.398880954518312 0 0 0 -1 I I #
coedge $-1 $317 $211 $314 $454 reversed $311 $-1 #
coedge $-1 $211 $317 $213 $333 reversed $311 $-1 #
vertex $-1 $315 $464 #
straight-curve $-1 60.422986541337323 -33.398880954518312 0 0 0 -1 I I #
edge $-1 $216 -60.422986541337323 $321 60.422986541337323 $330 $465 forward 7 unknown #
edge $-1 $322 -60.422986541337323 $215 60.422986541337323 $324 $466 forward 7 unknown #
point $-1 60.422986541337323 33.398880954518312 -10.506678212563839 #
point $-1 60.422986541337323 -33.398880954518312 -10.506678212563839 #
face $-1 $-1 $353 $31 $-1 $467 forward single #
plane-surface $-1 -66.685475945301221 -28.428060226832446 0 0 -1 0 0 0 -1 forward_v I I I I #
coedge $-1 $468 $469 $356 $470 forward $219 $-1 #
coedge $-1 $349 $221 $222 $345 reversed $133 $-1 #
coedge $-1 $221 $349 $352 $471 reversed $133 $-1 #
coedge $-1 $469 $468 $221 $343 reversed $219 $-1 #
edge $-1 $472 -10.506678212563839 $473 10.506678212563839 $342 $474 forward 7 unknown #
coedge $-1 $223 $222 $468 $475 forward $85 $-1 #
edge $-1 $347 -6.2624894039638903 $473 6.2624894039638974 $340 $476 forward 7 unknown #
edge $-1 $477 -6.2624894039638974 $231 6.2624894039638903 $228 $478 forward 7 unknown #
vertex $-1 $345 $479 #
straight-curve $-1 -60.422986541337323 0 -10.506678212563839 0 -1 0 I I #
coedge $-1 $341 $340 $225 $350 reversed $133 $-1 #
edge $-1 $354 -10.506678212563839 $347 10.506678212563839 $349 $480 forward 7 unknown #
coedge $-1 $481 $226 $229 $357 forward $353 $-1 #
coedge $-1 $226 $481 $341 $471 forward $353 $-1 #
loop $-1 $-1 $226 $337 #
vertex $-1 $227 $482 #
straight-curve $-1 -60.422986541337323 0 10.506678212563839 0 1 0 I I #
coedge $-1 $229 $228 $339 $470 reversed $230 $-1 #
edge $-1 $232 -6.2624894039638903 $483 6.2624894039638974 $229 $484 forward 7 unknown #
point $-1 -60.42298654133733 -28.428060226832446 -10.506678212563839 #
point $-1 -60.42298654133733 -28.428060226832446 10.506678212563839 #
face $-1 $-1 $374 $32 $-1 $485 forward single #
loop $-1 $-1 $486 $234 #
plane-surface $-1 72.947965349265118 -29.928060226832446 0 -1 0 0 0 0 1 forward_v I I I I #
coedge $-1 $365 $487 $488 $489 forward $235 $-1 #
coedge $-1 $238 $237 $490 $491 forward $89 $-1 #
coedge $-1 $370 $363 $237 $366 reversed $235 $-1 #
edge $-1 $368 -6.2624894039638974 $492 6.2624894039638974 $365 $493 forward 7 unknown #
edge $-1 $494 -6.2624894039638974 $245 6.2624894039638974 $243 $495 forward 7 unknown #
vertex $-1 $366 $496 #
straight-curve $-1 60.422986541337323 0 -10.506678212563839 0 1 0 I I #
coedge $-1 $487 $365 $240 $371 reversed $235 $-1 #
edge $-1 $375 -10.506678212563839 $368 10.506678212563839 $370 $497 forward 7 unknown #
coedge $-1 $498 $241 $244 $378 forward $374 $-1 #
coedge $-1 $241 $498 $487 $499 forward $374 $-1 #
loop $-1 $-1 $241 $360 #
vertex $-1 $242 $500 #
straight-curve $-1 60.422986541337323 0 10.506678212563839 0 -1 0 I I #
coedge $-1 $244 $243 $486 $501 reversed $141 $-1 #
edge $-1 $246 -6.2624894039638974 $502 6.2624894039638974 $244 $503 forward 7 unknown #
point $-1 60.422986541337323 -31.428060226832446 -10.506678212563839 #
point $-1 60.422986541337323 -31.428060226832446 10.506678212563839 #
plane-surface $-1 0 0 10.506678212563839 0 0 1 1 0 0 forward_v I I I I #
coedge $-1 $392 $391 $384 $504 forward $249 $-1 #
coedge $-1 $384 $251 $253 $388 reversed $149 $-1 #
coedge $-1 $251 $383 $382 $504 reversed $149 $-1 #
coedge $-1 $259 $254 $251 $386 forward $260 $-1 #
edge $-1 $389 -10.083927757060962 $505 1.0887756846598151 $385 $506 forward 7 unknown #
coedge $-1 $253 $252 $392 $507 reversed $93 $-1 #
edge $-1 $508 -66.797761909036652 $389 -51.763406333078592 $383 $509 forward 7 unknown #
vertex $-1 $255 $510 #
straight-curve $-1 -11.097269782820455 22.226177512797534 10.506678212563838 1 0 0 I I #
coedge $-1 $382 $256 $259 $396 reversed $249 $-1 #
coedge $-1 $256 $382 $387 $507 forward $249 $-1 #
vertex $-1 $257 $511 #
straight-curve $-1 -28.116631875903128 33.398880954518312 67.474608398249899 0 0 1 I I #
straight-curve $-1 -28.116631875903128 -16.241529677633494 45.143158095985342 0 0.74314481823134659 -0.66913061440640931 I I #
edge $-1 $505 16.27244725537869 $261 28.116631875903128 $391 $512 forward 7 unknown #
point $-1 -28.116631875903128 33.398880954518312 10.506678212563839 #
point $-1 -28.116631875903128 22.226177512797534 10.506678212563841 #
edge $-1 $513 1 $513 0 $264 $-1 forward 7 unknown #
vertex $-1 $265 $514 #
ellipse-curve $-1 -22.194539565640916 23.721248971958804 0.9328774593272352 0 0.66913061440640931 0.74314481823134659 2 0 0 1 I I #
point $-1 -20.194539565640916 27.812529233657934 5.4767044206912248 #
loop $-1 $-1 $276 $268 #
plane-surface $-1 0 33.398880954518312 0 0 -1 0 0 0 -1 forward_v I I I I #
coedge $-1 $406 $271 $273 $410 reversed $164 $-1 #
coedge $-1 $271 $405 $515 $516 reversed $164 $-1 #
coedge $-1 $279 $274 $271 $408 forward $269 $-1 #
edge $-1 $411 -10.083927757060962 $517 1.0887756846598151 $407 $518 forward 7 unknown #
coedge $-1 $273 $272 $414 $519 reversed $102 $-1 #
edge $-1 $520 -66.797761909036652 $411 -51.763406333078592 $405 $521 forward 7 unknown #
vertex $-1 $275 $522 #
straight-curve $-1 12.851734083884317 22.226177512797534 10.506678212563838 1 0 0 I I #
coedge $-1 $515 $276 $279 $418 reversed $403 $-1 #
coedge $-1 $276 $515 $409 $519 forward $403 $-1 #
vertex $-1 $277 $523 #
straight-curve $-1 19.781375857506415 33.398880954518312 67.474608398249899 0 0 1 I I #
straight-curve $-1 19.781375857506415 -16.241529677633494 45.143158095985342 0 0.74314481823134659 -0.66913061440640931 I I #
edge $-1 $517 -31.625560478030852 $280 -19.781375857506415 $413 $524 forward 7 unknown #
point $-1 19.781375857506415 33.398880954518312 10.506678212563839 #
point $-1 19.781375857506415 22.226177512797534 10.506678212563841 #
edge $-1 $525 1 $525 0 $283 $-1 forward 7 unknown #
vertex $-1 $284 $526 #
ellipse-curve $-1 25.703468167768634 23.721248971958804 0.9328774593272352 0 0.66913061440640931 0.74314481823134659 2 0 0 1 I I #
point $-1 27.703468167768634 27.812529233657934 5.4767044206912248 #
loop $-1 $-1 $295 $287 #
plane-surface $-1 0 -33.398880954518312 0 0 1 0 0 0 1 forward_v I I I I #
coedge $-1 $428 $290 $292 $432 reversed $179 $-1 #
coedge $-1 $290 $427 $527 $528 reversed $179 $-1 #
coedge $-1 $298 $293 $290 $430 forward $288 $-1 #
edge $-1 $433 -31.67611617050396 $529 -25.273893384906422 $429 $530 forward 7 unknown #
coedge $-1 $292 $291 $436 $531 reversed $111 $-1 #
edge $-1 $532 2.9524203284164893e-014 $433 8.9001371156202591 $427 $533 forward 7 unknown #
vertex $-1 $294 $534 #
straight-curve $-1 7.5080968446584038 -26.996658168920774 10.506678212563839 -1 0 0 I I #
coedge $-1 $527 $295 $298 $440 reversed $425 $-1 #
coedge $-1 $295 $527 $431 $531 forward $425 $-1 #
vertex $-1 $296 $535 #
straight-curve $-1 22.015030055990337 -33.398880954518312 45.626720295502004 0 0 1 I I #
straight-curve $-1 22.015030055990337 -33.398880954518333 4.3241233943340234 0 -0.71933979245794832 -0.69465837861970381 I I #
edge $-1 $529 8.0173573226432779 $299 22.015030055990337 $435 $536 forward 7 unknown #
point $-1 22.015030055990337 -33.398880954518312 10.506678212563839 #
point $-1 22.015030055990337 -26.996658168920774 10.506678212563841 #
edge $-1 $537 1 $537 0 $302 $-1 forward 7 unknown #
vertex $-1 $303 $538 #
ellipse-curve $-1 12.01669238931386 -28.624988538341171 5.7867384137620377 0 -0.69465837861970381 0.71933979245794832 1 0 0 1 I I #
point $-1 13.01669238931386 -30.197769561719525 7.415400803448926 #
edge $-1 $539 1 $539 0 $306 $-1 forward 7 unknown #
vertex $-1 $307 $540 #
ellipse-curve $-1 18.015694989319741 -28.624988538341171 5.7867384137620377 0 -0.69465837861970381 0.71933979245794832 1 0 0 1 I I #
point $-1 19.015694989319741 -30.197769561719525 7.415400803448926 #
plane-surface $-1 0 33.398880954518312 0 0 -1 0 0 0 -1 forward_v I I I I #
coedge $-1 $314 $313 $316 $456 forward $125 $-1 #
edge $-1 $327 -60.422986541337323 $459 60.422986541337323 $325 $541 forward 7 unknown #
edge $-1 $457 -60.422986541337323 $331 60.422986541337323 $329 $542 forward 7 unknown #
straight-curve $-1 60.422986541337323 0 10.506678212563839 0 1 0 I I #
edge $-1 $459 -33.398880954518312 $457 33.398880954518312 $316 $543 forward 7 unknown #
vertex $-1 $456 $544 #
straight-curve $-1 -60.422986541337323 -33.398880954518312 0 0 0 -1 I I #
vertex $-1 $453 $545 #
straight-curve $-1 -60.422986541337323 33.398880954518312 0 0 0 -1 I I #
point $-1 -60.422986541337323 -33.398880954518312 -10.506678212563839 #
point $-1 -60.422986541337323 33.398880954518312 -10.506678212563839 #
point $-1 60.422986541337323 33.398880954518312 10.506678212563839 #
point $-1 60.422986541337323 -33.398880954518312 10.506678212563839 #
straight-curve $-1 0 -33.398880954518312 -10.506678212563839 -1 0 0 I I #
straight-curve $-1 0 33.398880954518312 -10.506678212563839 1 0 0 I I #
plane-surface $-1 0 0 10.506678212563839 0 0 1 1 0 0 forward_v I I I I #
coedge $-1 $342 $339 $344 $475 reversed $219 $-1 #
coedge $-1 $339 $342 $481 $546 reversed $219 $-1 #
edge $-1 $483 -10.506678212563839 $477 10.506678212563839 $356 $547 forward 7 unknown #
edge $-1 $472 -6.2624894039638974 $354 6.2624894039638903 $341 $548 forward 7 unknown #
vertex $-1 $546 $549 #
vertex $-1 $475 $550 #
straight-curve $-1 -72.947965349265118 -31.428060226832446 0 0 0 -1 I I #
edge $-1 $473 -1.5 $477 1.5 $468 $551 forward 7 unknown #
straight-curve $-1 -66.685475945301221 -31.428060226832446 -10.506678212563839 -1 0 0 I I #
vertex $-1 $346 $552 #
straight-curve $-1 -66.685475945301221 -28.428060226832446 -10.506678212563839 1 0 0 I I #
point $-1 -60.42298654133733 -31.428060226832446 -10.506678212563839 #
straight-curve $-1 -60.422986541337323 -31.428060226832446 0 0 0 -1 I I #
coedge $-1 $352 $351 $469 $546 forward $353 $-1 #
point $-1 -60.42298654133733 -31.428060226832446 10.506678212563839 #
vertex $-1 $357 $553 #
straight-curve $-1 -66.685475945301221 -28.428060226832446 10.506678212563839 -1 0 0 I I #
plane-surface $-1 0 0 10.506678212563839 0 0 1 1 0 0 forward_v I I I I #
coedge $-1 $490 $554 $377 $501 forward $361 $-1 #
coedge $-1 $363 $370 $373 $499 reversed $235 $-1 #
coedge $-1 $554 $490 $363 $489 reversed $361 $-1 #
edge $-1 $555 -10.506678212563839 $492 10.506678212563839 $488 $556 forward 7 unknown #
coedge $-1 $488 $486 $364 $491 reversed $361 $-1 #
edge $-1 $492 -1.5 $494 1.5 $490 $557 forward 7 unknown #
vertex $-1 $491 $558 #
straight-curve $-1 66.685475945301221 -28.428060226832446 -10.506678212563839 1 0 0 I I #
vertex $-1 $501 $559 #
straight-curve $-1 66.685475945301221 -31.428060226832446 -10.506678212563839 -1 0 0 I I #
point $-1 60.422986541337323 -28.428060226832446 -10.506678212563839 #
straight-curve $-1 60.422986541337323 -28.428060226832446 0 0 0 -1 I I #
coedge $-1 $373 $372 $554 $560 forward $374 $-1 #
edge $-1 $555 -6.2624894039638974 $375 6.2624894039638974 $487 $561 forward 7 unknown #
point $-1 60.422986541337323 -28.428060226832446 10.506678212563839 #
edge $-1 $502 -10.506678212563839 $494 10.506678212563839 $486 $562 forward 7 unknown #
vertex $-1 $560 $563 #
straight-curve $-1 66.685475945301221 -31.428060226832446 10.506678212563839 1 0 0 I I #
edge $-1 $505 56.967930185686058 $508 67.027877769431299 $382 $564 forward 7 unknown #
vertex $-1 $396 $565 #
straight-curve $-1 -16.27244725537869 32.310105269858497 10.506678212563841 0 1 0 I I #
edge $-1 $508 5.1751774725582358 $393 17.019362093082673 $392 $566 forward 7 unknown #
vertex $-1 $507 $567 #
straight-curve $-1 -16.27244725537869 -16.241529677633494 45.143158095985342 0 -0.74314481823134659 0.66913061440640931 I I #
point $-1 -16.27244725537869 22.226177512797534 10.506678212563841 #
point $-1 -28.116631875903128 33.398880954518319 0.44673062881859948 #
straight-curve $-1 0 33.398880954518312 10.506678212563839 -1 0 0 I I #
vertex $-1 $399 $568 #
point $-1 -20.194539565640916 23.721248971958804 0.9328774593272352 #
coedge $-1 $414 $413 $406 $516 forward $403 $-1 #
edge $-1 $517 56.967930185686058 $520 67.027877769431299 $515 $569 forward 7 unknown #
vertex $-1 $418 $570 #
straight-curve $-1 31.625560478030852 32.310105269858497 10.506678212563841 0 1 0 I I #
edge $-1 $520 -18.773826394146536 $415 -6.9296417736220981 $414 $571 forward 7 unknown #
vertex $-1 $519 $572 #
straight-curve $-1 31.625560478030852 -16.241529677633494 45.143158095985342 0 -0.74314481823134659 0.66913061440640931 I I #
point $-1 31.625560478030852 22.226177512797534 10.506678212563841 #
point $-1 19.781375857506415 33.398880954518319 0.44673062881859948 #
straight-curve $-1 0 33.398880954518312 10.506678212563839 -1 0 0 I I #
vertex $-1 $421 $573 #
point $-1 27.703468167768634 23.721248971958804 0.9328774593272352 #
coedge $-1 $436 $435 $428 $528 forward $425 $-1 #
edge $-1 $529 35.120042082938163 $532 41.302596901167959 $527 $574 forward 7 unknown #
vertex $-1 $440 $575 #
straight-curve $-1 8.0173573226432779 -58.672774339424734 10.506678212563841 0 -1 0 I I #
edge $-1 $532 0.50926047798487417 $437 14.506933211331933 $436 $576 forward 7 unknown #
vertex $-1 $531 $577 #
straight-curve $-1 8.0173573226432779 -33.398880954518333 4.3241233943340234 0 0.71933979245794832 0.69465837861970381 I I #
point $-1 8.0173573226432779 -26.996658168920774 10.506678212563841 #
point $-1 22.015030055990337 -33.398880954518312 4.3241233943340438 #
straight-curve $-1 0 -33.398880954518312 10.506678212563839 1 0 0 I I #
vertex $-1 $443 $578 #
point $-1 13.01669238931386 -28.624988538341171 5.7867384137620377 #
vertex $-1 $447 $579 #
point $-1 19.015694989319741 -28.624988538341171 5.7867384137620377 #
straight-curve $-1 0 33.398880954518312 10.506678212563839 -1 0 0 I I #
straight-curve $-1 0 -33.398880954518312 10.506678212563839 1 0 0 I I #
straight-curve $-1 -60.422986541337323 0 10.506678212563839 0 -1 0 I I #
point $-1 -60.422986541337323 -33.398880954518312 10.506678212563839 #
point $-1 -60.422986541337323 33.398880954518312 10.506678212563839 #
edge $-1 $483 -1.5 $472 1.5 $469 $580 forward 7 unknown #
straight-curve $-1 -72.947965349265118 -28.428060226832446 0 0 0 -1 I I #
straight-curve $-1 -66.685475945301221 -31.428060226832446 10.506678212563839 1 0 0 I I #
point $-1 -72.947965349265118 -31.428060226832446 10.506678212563839 #
point $-1 -72.947965349265118 -31.428060226832446 -10.506678212563839 #
straight-curve $-1 -72.947965349265118 -29.928060226832446 -10.506678212563839 0 1 0 I I #
point $-1 -72.947965349265118 -28.428060226832446 -10.506678212563839 #
point $-1 -72.947965349265118 -28.428060226832446 10.506678212563839 #
coedge $-1 $486 $488 $498 $560 reversed $361 $-1 #
vertex $-1 $560 $581 #
straight-curve $-1 72.947965349265118 -28.428060226832446 0 0 0 -1 I I #
straight-curve $-1 72.947965349265118 -29.928060226832446 -10.506678212563839 0 -1 0 I I #
point $-1 72.947965349265118 -28.428060226832446 -10.506678212563839 #
point $-1 72.947965349265118 -31.428060226832446 -10.506678212563839 #
edge $-1 $502 -1.5 $555 1.5 $554 $582 forward 7 unknown #
straight-curve $-1 66.685475945301221 -28.428060226832446 10.506678212563839 -1 0 0 I I #
straight-curve $-1 72.947965349265118 -31.428060226832446 0 0 0 -1 I I #
point $-1 72.947965349265118 -31.428060226832446 10.506678212563839 #
straight-curve $-1 -16.27244725537869 33.398880954518312 67.474608398249899 0 0 -1 I I #
point $-1 -16.27244725537869 33.398880954518312 10.506678212563839 #
straight-curve $-1 -11.097269782820455 33.398880954518312 0.44673062881860659 -1 0 0 I I #
point $-1 -16.27244725537869 33.398880954518319 0.44673062881859948 #
point $-1 -22.194539565640916 22.382987743145986 -0.55341217713545798 #
straight-curve $-1 31.625560478030852 33.398880954518312 67.474608398249899 0 0 -1 I I #
point $-1 31.625560478030852 33.398880954518312 10.506678212563839 #
straight-curve $-1 12.851734083884317 33.398880954518312 0.44673062881860659 -1 0 0 I I #
point $-1 31.625560478030852 33.398880954518319 0.44673062881859948 #
point $-1 25.703468167768634 22.382987743145986 -0.55341217713545798 #
straight-curve $-1 8.0173573226432779 -33.398880954518312 45.626720295502004 0 0 -1 I I #
point $-1 8.0173573226432779 -33.398880954518312 10.506678212563839 #
straight-curve $-1 7.5080968446584038 -33.398880954518312 4.3241233943340402 1 0 0 I I #
point $-1 8.0173573226432779 -33.398880954518312 4.3241233943340438 #
point $-1 12.01669238931386 -27.930330159721464 5.0673986213040898 #
point $-1 18.015694989319741 -27.930330159721464 5.0673986213040898 #
straight-curve $-1 -72.947965349265118 -29.928060226832446 10.506678212563839 0 -1 0 I I #
point $-1 72.947965349265118 -28.428060226832446 10.506678212563839 #
straight-curve $-1 72.947965349265118 -29.928060226832446 10.506678212563839 0 1 0 I I #
End-of-ACIS-data 