500 0 6 0           
7 Unknown 11 ACIS 5.0 NT 24 Thu Mar 25 22:51:06 1999 
-1 9.9999999999999995e-007 1e-010 
body $-1 $6 $-1 $7 #
body $-1 $8 $-1 $9 #
body $-1 $10 $-1 $11 #
body $-1 $12 $-1 $13 #
body $-1 $14 $-1 $15 #
body $-1 $16 $-1 $17 #
lump $-1 $-1 $18 $0 #
transform $-1 1 0 0 0 1 0 0 0 1 46.545609912411877 26.943525820937637 7.4502339457565689 1 rotate no_reflect no_shear #
lump $-1 $-1 $19 $1 #
transform $-1 1 0 0 0 1 0 0 0 1 46.545609912411877 26.943525820937637 7.4502339457565689 1 rotate no_reflect no_shear #
lump $-1 $-1 $20 $2 #
transform $-1 1 0 0 0 1 0 0 0 1 46.545609912411877 26.943525820937637 7.4502339457565689 1 rotate no_reflect no_shear #
lump $-1 $-1 $21 $3 #
transform $-1 1 0 0 0 1 0 0 0 1 46.545609912411877 26.943525820937637 7.4502339457565689 1 rotate no_reflect no_shear #
lump $-1 $-1 $22 $4 #
transform $-1 1 0 0 0 1 0 0 0 1 46.545609912411877 26.943525820937637 7.4502339457565689 1 rotate no_reflect no_shear #
lump $-1 $-1 $23 $5 #
transform $-1 1 0 0 0 1 0 0 0 1 46.545609912411877 26.943525820937637 7.4502339457565689 1 rotate no_reflect no_shear #
shell $-1 $-1 $-1 $24 $-1 $6 #
shell $-1 $-1 $-1 $25 $-1 $8 #
shell $-1 $-1 $-1 $26 $-1 $10 #
shell $-1 $-1 $-1 $27 $-1 $12 #
shell $-1 $-1 $-1 $28 $-1 $14 #
shell $-1 $-1 $-1 $29 $-1 $16 #
face $-1 $30 $31 $18 $-1 $32 forward single #
face $-1 $33 $34 $19 $-1 $35 reversed single #
face $-1 $36 $37 $20 $-1 $38 forward single #
face $-1 $39 $40 $21 $-1 $41 reversed single #
face $-1 $42 $43 $22 $-1 $44 forward single #
face $-1 $45 $46 $23 $-1 $47 forward single #
face $-1 $48 $49 $18 $-1 $50 reversed single #
loop $-1 $-1 $51 $24 #
plane-surface $-1 0 0 7.4502339457565689 0 0 1 1 0 0 forward_v I I I I #
face $-1 $52 $53 $19 $-1 $54 reversed single #
loop $-1 $-1 $55 $25 #
plane-surface $-1 -24.629242924447226 39.931108480742196 107.28706092252753 -1 0 0 0 0.6018150307709319 0.79863550430605224 forward_v I I I I #
face $-1 $56 $57 $20 $-1 $58 forward single #
loop $-1 $59 $60 $26 #
cone-surface $-1 -35.587426418429551 20.417346427047011 1.4302195871808272 0 -0.6018150307709319 -0.79863550430605224 2 0 0 1 I I 0 1 2 forward I I I I #
face $-1 $61 $62 $21 $-1 $63 reversed single #
loop $-1 $-1 $64 $27 #
plane-surface $-1 -30.025448342559045 -76.274357188438444 81.121715548454418 -1 0 0 0 -0.52991927123019833 0.84804809178421925 forward_v I I I I #
face $-1 $65 $66 $22 $-1 $67 forward single #
loop $-1 $68 $69 $28 #
cone-surface $-1 -41.825563749596782 -21.709242693328488 3.1904459904903413 0 0.52991927123019833 -0.84804809178421925 1.5 0 0 1 I I 0 1 1.5 forward I I I I #
face $-1 $70 $71 $23 $-1 $72 forward single #
loop $-1 $73 $74 $29 #
cone-surface $-1 -34.74549450537414 -21.709242693328488 3.1904459904903413 0 0.52991927123019833 -0.84804809178421925 1.5 0 0 1 I I 0 1 1.5 forward I I I I #
face $-1 $75 $76 $18 $-1 $77 reversed single #
loop $-1 $-1 $78 $30 #
plane-surface $-1 0 0 -7.4502339457565689 0 0 1 1 0 0 forward_v I I I I #
coedge $-1 $79 $80 $81 $82 forward $31 $-1 #
face $-1 $83 $84 $19 $-1 $85 reversed single #
loop $-1 $-1 $86 $33 #
plane-surface $-1 -35.587426418429551 -16.092586842637694 32.941107631263847 0 0.6018150307709319 0.79863550430605224 1 0 0 forward_v I I I I #
coedge $-1 $87 $88 $89 $90 reversed $34 $-1 #
face $-1 $-1 $91 $20 $-1 $92 forward single #
loop $-1 $93 $94 $36 #
cone-surface $-1 -35.587426418429551 17.893642708422412 -1.9188482974496246 0 -0.6018150307709319 -0.79863550430605224 1 0 0 1 I I -0.70710678118654746 0.70710678118654746 1 forward I I I I #
loop $-1 $-1 $95 $26 #
coedge $-1 $60 $60 $96 $97 reversed $37 $-1 #
face $-1 $98 $99 $21 $-1 $100 reversed single #
loop $-1 $-1 $101 $39 #
plane-surface $-1 -38.285529127485461 -26.943525820937651 2.1758842141473593 0 -0.52991927123019833 0.84804809178421925 1 0 0 forward_v I I I I #
coedge $-1 $102 $103 $104 $105 reversed $40 $-1 #
face $-1 $-1 $106 $22 $-1 $107 forward single #
loop $-1 $108 $109 $42 #
cone-surface $-1 -41.825563749596782 -20.297882031679286 0.93179683219056386 0 0.52991927123019833 -0.84804809178421925 0.75 0 0 1 I I -0.70710678118654757 0.70710678118654757 0.75 forward I I I I #
loop $-1 $-1 $110 $28 #
coedge $-1 $69 $69 $111 $112 reversed $43 $-1 #
face $-1 $-1 $113 $23 $-1 $114 forward single #
loop $-1 $115 $116 $45 #
cone-surface $-1 -34.74549450537414 -20.297882031679286 0.93179683219056386 0 0.52991927123019833 -0.84804809178421925 0.75 0 0 1 I I -0.70710678118654757 0.70710678118654757 0.75 forward I I I I #
loop $-1 $-1 $117 $29 #
coedge $-1 $74 $74 $118 $119 reversed $46 $-1 #
face $-1 $120 $121 $18 $-1 $122 reversed single #
loop $-1 $-1 $123 $48 #
plane-surface $-1 0 -26.943525820937637 0 0 1 0 0 0 1 forward_v I I I I #
coedge $-1 $124 $125 $126 $127 forward $49 $-1 #
coedge $-1 $128 $51 $129 $130 forward $31 $-1 #
coedge $-1 $51 $128 $131 $132 forward $31 $-1 #
coedge $-1 $133 $134 $51 $82 reversed $135 $-1 #
edge $-1 $136 -26.943525820937637 $137 26.943525820937637 $81 $138 forward 7 unknown #
face $-1 $139 $140 $19 $-1 $141 forward single #
loop $-1 $-1 $89 $52 #
plane-surface $-1 0 26.943525820937637 0 0 -1 0 0 0 -1 forward_v I I I I #
coedge $-1 $142 $143 $144 $145 reversed $53 $-1 #
coedge $-1 $88 $55 $146 $147 reversed $34 $-1 #
coedge $-1 $55 $87 $142 $148 reversed $34 $-1 #
coedge $-1 $144 $149 $55 $90 forward $84 $-1 #
edge $-1 $150 46.1932965155072 $151 53.132460472009875 $89 $152 forward 7 unknown #
loop $-1 $-1 $96 $56 #
plane-surface $-1 -35.587426418429551 -16.092586842637694 32.941107631263847 0 0.6018150307709319 0.79863550430605224 1 0 0 forward_v I I I I #
loop $-1 $-1 $153 $36 #
coedge $-1 $94 $94 $95 $154 reversed $57 $-1 #
coedge $-1 $95 $95 $94 $154 forward $59 $-1 #
coedge $-1 $96 $96 $60 $97 forward $91 $-1 #
edge $-1 $155 -4.0088934223643143e-016 $155 6.2831853071796004 $96 $156 forward 7 unknown #
face $-1 $157 $158 $21 $-1 $159 forward single #
loop $-1 $-1 $160 $61 #
plane-surface $-1 -46.545609912411877 0 0 1 0 0 0 0 -1 forward_v I I I I #
coedge $-1 $161 $162 $163 $164 reversed $62 $-1 #
coedge $-1 $103 $64 $165 $166 reversed $40 $-1 #
coedge $-1 $64 $102 $161 $167 reversed $40 $-1 #
coedge $-1 $163 $168 $64 $105 forward $158 $-1 #
edge $-1 $169 11.193652773281585 $170 19.634376612046736 $104 $171 forward 7 unknown #
loop $-1 $-1 $111 $65 #
plane-surface $-1 -38.285529127485461 -26.943525820937651 2.1758842141473593 0 -0.52991927123019833 0.84804809178421925 1 0 0 forward_v I I I I #
loop $-1 $-1 $172 $42 #
coedge $-1 $109 $109 $110 $173 reversed $66 $-1 #
coedge $-1 $110 $110 $109 $173 forward $68 $-1 #
coedge $-1 $111 $111 $69 $112 forward $106 $-1 #
edge $-1 $174 1.1312701895149883e-015 $174 6.2831853071796013 $111 $175 forward 7 unknown #
loop $-1 $-1 $118 $70 #
plane-surface $-1 -38.285529127485461 -26.943525820937651 2.1758842141473593 0 -0.52991927123019833 0.84804809178421925 1 0 0 forward_v I I I I #
loop $-1 $-1 $176 $45 #
coedge $-1 $116 $116 $117 $177 reversed $71 $-1 #
coedge $-1 $117 $117 $116 $177 forward $73 $-1 #
coedge $-1 $118 $118 $74 $119 forward $113 $-1 #
edge $-1 $178 1.1312701895149883e-015 $178 6.2831853071796013 $118 $179 forward 7 unknown #
face $-1 $180 $181 $18 $-1 $182 reversed single #
loop $-1 $-1 $183 $75 #
plane-surface $-1 -46.545609912411877 0 0 1 0 0 0 0 -1 forward_v I I I I #
coedge $-1 $184 $131 $185 $186 forward $76 $-1 #
coedge $-1 $187 $78 $184 $188 forward $49 $-1 #
coedge $-1 $78 $187 $189 $190 forward $49 $-1 #
coedge $-1 $134 $133 $78 $127 reversed $135 $-1 #
edge $-1 $191 -26.943525820937637 $192 26.943525820937637 $126 $193 forward 7 unknown #
coedge $-1 $80 $79 $194 $195 forward $31 $-1 #
coedge $-1 $196 $197 $79 $130 reversed $181 $-1 #
edge $-1 $137 -46.545609912411877 $198 46.545609912411877 $129 $199 forward 7 unknown #
coedge $-1 $123 $200 $80 $132 reversed $76 $-1 #
edge $-1 $201 -46.545609912411877 $136 46.545609912411877 $131 $202 forward 7 unknown #
coedge $-1 $126 $81 $200 $203 forward $135 $-1 #
coedge $-1 $81 $126 $196 $204 reversed $135 $-1 #
loop $-1 $-1 $133 $180 #
vertex $-1 $82 $205 #
vertex $-1 $82 $206 #
straight-curve $-1 46.545609912411877 0 7.4502339457565689 0 1 0 I I #
face $-1 $-1 $207 $19 $-1 $208 reversed single #
loop $-1 $-1 $146 $83 #
plane-surface $-1 0 0 7.4502339457565689 0 0 1 1 0 0 forward_v I I I I #
coedge $-1 $209 $86 $88 $148 forward $53 $-1 #
coedge $-1 $86 $209 $210 $211 reversed $53 $-1 #
coedge $-1 $212 $89 $86 $145 forward $84 $-1 #
edge $-1 $151 6.8355297152324503 $213 28.751896703197101 $144 $214 forward 7 unknown #
coedge $-1 $215 $216 $87 $147 forward $140 $-1 #
edge $-1 $217 -2.2306098315073868 $150 6.977971580566539 $146 $218 forward 7 unknown #
edge $-1 $151 -53.887051641875267 $217 -42.356658411893065 $88 $219 forward 7 unknown #
coedge $-1 $89 $212 $215 $220 reversed $84 $-1 #
vertex $-1 $220 $221 #
vertex $-1 $90 $222 #
straight-curve $-1 -24.629242924447226 26.943525820937637 53.643530461263765 0 0 -1 I I #
coedge $-1 $153 $153 $-1 $223 reversed $93 $-1 #
edge $-1 $224 0 $224 6.2831853071796004 $94 $225 forward 7 unknown #
vertex $-1 $97 $226 #
ellipse-curve $-1 -35.587426418429551 22.339235114900678 3.9806519675052257 0 0.6018150307709319 0.79863550430605224 2 0 0 1 I I #
face $-1 $-1 $227 $21 $-1 $228 reversed single #
loop $-1 $-1 $163 $98 #
plane-surface $-1 0 0 7.4502339457565689 0 0 1 1 0 0 forward_v I I I I #
coedge $-1 $229 $230 $162 $231 forward $99 $-1 #
coedge $-1 $232 $101 $103 $167 forward $62 $-1 #
coedge $-1 $101 $232 $160 $231 reversed $62 $-1 #
coedge $-1 $233 $104 $101 $164 forward $158 $-1 #
edge $-1 $170 10.882683778816315 $234 27.402845348669146 $163 $235 forward 7 unknown #
coedge $-1 $236 $237 $102 $166 forward $227 $-1 #
edge $-1 $238 -38.384973560079843 $169 -33.110623828470636 $165 $239 forward 7 unknown #
edge $-1 $170 -9.9531193107299138 $238 -1.675811683274863e-014 $103 $240 forward 7 unknown #
coedge $-1 $104 $233 $236 $241 forward $158 $-1 #
vertex $-1 $166 $242 #
vertex $-1 $105 $243 #
straight-curve $-1 -30.025448342559045 -38.137178594219222 7.4502339457565725 0 1 0 I I #
coedge $-1 $172 $172 $-1 $244 reversed $108 $-1 #
edge $-1 $245 0 $245 6.2831853071796004 $109 $246 forward 7 unknown #
vertex $-1 $112 $247 #
ellipse-curve $-1 -41.825563749596782 -22.723163901555054 4.8130590799519739 0 -0.52991927123019833 0.84804809178421925 1.5 0 0 1 I I #
coedge $-1 $176 $176 $-1 $248 reversed $115 $-1 #
edge $-1 $249 0 $249 6.2831853071796004 $116 $250 forward 7 unknown #
vertex $-1 $119 $251 #
ellipse-curve $-1 -34.74549450537414 -22.723163901555054 4.8130590799519739 0 -0.52991927123019833 0.84804809178421925 1.5 0 0 1 I I #
face $-1 $-1 $135 $18 $-1 $252 reversed single #
loop $-1 $-1 $196 $120 #
plane-surface $-1 0 26.943525820937637 0 0 -1 0 0 0 -1 forward_v I I I I #
coedge $-1 $253 $194 $197 $254 forward $121 $-1 #
coedge $-1 $200 $123 $124 $188 reversed $76 $-1 #
coedge $-1 $194 $253 $123 $186 reversed $121 $-1 #
edge $-1 $201 -7.4502339457565689 $255 7.4502339457565689 $185 $256 forward 7 unknown #
coedge $-1 $125 $124 $253 $257 forward $49 $-1 #
edge $-1 $192 -46.545609912411877 $255 46.545609912411877 $184 $258 forward 7 unknown #
coedge $-1 $197 $196 $125 $190 reversed $181 $-1 #
edge $-1 $259 -46.545609912411877 $191 46.545609912411877 $189 $260 forward 7 unknown #
vertex $-1 $127 $261 #
vertex $-1 $203 $262 #
straight-curve $-1 46.545609912411877 0 -7.4502339457565689 0 -1 0 I I #
coedge $-1 $183 $185 $128 $195 reversed $121 $-1 #
edge $-1 $198 -26.943525820937637 $201 26.943525820937637 $194 $263 forward 7 unknown #
coedge $-1 $189 $129 $134 $204 forward $181 $-1 #
coedge $-1 $129 $189 $183 $254 reversed $181 $-1 #
vertex $-1 $130 $264 #
straight-curve $-1 0 26.943525820937637 7.4502339457565689 -1 0 0 I I #
coedge $-1 $131 $184 $133 $203 reversed $76 $-1 #
vertex $-1 $195 $265 #
straight-curve $-1 0 -26.943525820937637 7.4502339457565689 1 0 0 I I #
edge $-1 $136 -7.4502339457565689 $192 7.4502339457565689 $133 $266 forward 7 unknown #
edge $-1 $137 -7.4502339457565689 $191 7.4502339457565689 $134 $267 forward 7 unknown #
point $-1 46.545609912411877 -26.943525820937637 7.4502339457565689 #
point $-1 46.545609912411877 26.943525820937637 7.4502339457565689 #
loop $-1 $-1 $210 $139 #
plane-surface $-1 -46.545609912411877 0 0 1 0 0 0 0 -1 forward_v I I I I #
coedge $-1 $143 $142 $216 $268 reversed $53 $-1 #
coedge $-1 $269 $270 $143 $211 forward $207 $-1 #
edge $-1 $213 -37.548769186177005 $271 -26.018375956194806 $210 $272 forward 7 unknown #
coedge $-1 $149 $144 $270 $273 reversed $84 $-1 #
vertex $-1 $145 $274 #
straight-curve $-1 -17.793713209214776 26.943525820937637 0.5110699892538868 -1 0 0 I I #
coedge $-1 $275 $146 $149 $220 forward $140 $-1 #
coedge $-1 $146 $275 $209 $268 forward $140 $-1 #
vertex $-1 $147 $276 #
straight-curve $-1 -24.629242924447226 19.965554240371098 7.4502339457565654 0 1 0 I I #
straight-curve $-1 -24.629242924447226 -16.092586842637694 32.941107631263847 0 -0.79863550430605224 0.6018150307709319 I I #
edge $-1 $150 24.629242924447226 $277 46.545609912411877 $149 $278 forward 7 unknown #
point $-1 -24.629242924447226 26.943525820937637 7.4502339457565689 #
point $-1 -24.629242924447226 26.943525820937637 0.51106998925389036 #
edge $-1 $279 1 $279 0 $153 $-1 forward 7 unknown #
vertex $-1 $154 $280 #
ellipse-curve $-1 -35.587426418429551 18.495457739193345 -1.1202127931435724 0 0.6018150307709319 0.79863550430605224 2 0 0 1 I I #
point $-1 -33.587426418429551 22.339235114900678 3.980651967505227 #
loop $-1 $-1 $165 $157 #
plane-surface $-1 0 -26.943525820937637 0 0 1 0 0 0 1 forward_v I I I I #
coedge $-1 $230 $160 $281 $282 reversed $99 $-1 #
coedge $-1 $160 $229 $233 $283 reversed $99 $-1 #
edge $-1 $234 0.895062029941462 $284 10.848181340671358 $160 $285 forward 7 unknown #
coedge $-1 $162 $161 $237 $286 reversed $62 $-1 #
coedge $-1 $168 $163 $230 $283 forward $158 $-1 #
vertex $-1 $283 $287 #
straight-curve $-1 -19.14276456374273 -18.502801982172482 7.4502339457565689 -1 0 0 I I #
coedge $-1 $281 $165 $168 $241 reversed $227 $-1 #
coedge $-1 $165 $281 $232 $286 forward $227 $-1 #
vertex $-1 $166 $288 #
straight-curve $-1 -30.025448342559045 -26.943525820937637 40.560857774227209 0 0 1 I I #
straight-curve $-1 -30.025448342559045 -26.943525820937651 2.1758842141473593 0 -0.84804809178421925 -0.52991927123019833 I I #
edge $-1 $289 -46.545609912411877 $169 -30.025448342559045 $236 $290 forward 7 unknown #
point $-1 -30.025448342559045 -26.943525820937637 7.4502339457565689 #
point $-1 -30.025448342559045 -18.502801982172485 7.4502339457565689 #
edge $-1 $291 1 $291 0 $172 $-1 forward 7 unknown #
vertex $-1 $173 $292 #
ellipse-curve $-1 -41.825563749596782 -20.695321485101935 1.5678329010287282 0 -0.52991927123019833 0.84804809178421925 1.5 0 0 1 I I #
point $-1 -40.325563749596782 -22.72316390155504 4.8130590799519544 #
edge $-1 $293 1 $293 0 $176 $-1 forward 7 unknown #
vertex $-1 $177 $294 #
ellipse-curve $-1 -34.74549450537414 -20.695321485101935 1.5678329010287282 0 -0.52991927123019833 0.84804809178421925 1.5 0 0 1 I I #
point $-1 -33.24549450537414 -22.72316390155504 4.8130590799519544 #
plane-surface $-1 46.545609912411877 0 0 -1 0 0 0 0 1 forward_v I I I I #
coedge $-1 $185 $183 $187 $257 reversed $121 $-1 #
edge $-1 $198 -7.4502339457565689 $259 7.4502339457565689 $197 $295 forward 7 unknown #
vertex $-1 $257 $296 #
straight-curve $-1 -46.545609912411877 -26.943525820937637 0 0 0 -1 I I #
edge $-1 $255 -26.943525820937637 $259 26.943525820937637 $253 $297 forward 7 unknown #
straight-curve $-1 0 -26.943525820937637 -7.4502339457565689 -1 0 0 I I #
vertex $-1 $190 $298 #
straight-curve $-1 0 26.943525820937637 -7.4502339457565689 1 0 0 I I #
point $-1 46.545609912411877 26.943525820937637 -7.4502339457565689 #
point $-1 46.545609912411877 -26.943525820937637 -7.4502339457565689 #
straight-curve $-1 -46.545609912411877 0 7.4502339457565689 0 -1 0 I I #
point $-1 -46.545609912411877 26.943525820937637 7.4502339457565689 #
point $-1 -46.545609912411877 -26.943525820937637 7.4502339457565689 #
straight-curve $-1 46.545609912411877 -26.943525820937637 0 0 0 -1 I I #
straight-curve $-1 46.545609912411877 26.943525820937637 0 0 0 -1 I I #
edge $-1 $271 -28.751896703197101 $217 -6.8355297152324503 $216 $299 forward 7 unknown #
coedge $-1 $270 $210 $275 $300 reversed $207 $-1 #
coedge $-1 $210 $269 $212 $273 forward $207 $-1 #
vertex $-1 $211 $301 #
straight-curve $-1 -46.545609912411877 -3.0442543941363862 23.108483672443619 0 -0.79863550430605224 0.6018150307709319 I I #
edge $-1 $277 -7.4502339457565689 $213 -0.51106998925388758 $212 $302 forward 7 unknown #
point $-1 -46.545609912411877 26.943525820937637 0.51106998925388758 #
coedge $-1 $216 $215 $269 $300 forward $140 $-1 #
point $-1 -24.629242924447226 17.734944408863711 7.4502339457565689 #
vertex $-1 $220 $303 #
straight-curve $-1 0 26.943525820937637 7.4502339457565689 -1 0 0 I I #
vertex $-1 $223 $304 #
point $-1 -33.587426418429551 18.495457739193345 -1.1202127931435724 #
coedge $-1 $237 $236 $229 $282 forward $227 $-1 #
edge $-1 $289 -7.4502339457565689 $284 -2.1758842141473682 $229 $305 forward 7 unknown #
edge $-1 $234 18.502801982172485 $289 26.943525820937637 $230 $306 forward 7 unknown #
vertex $-1 $231 $307 #
straight-curve $-1 -46.545609912411877 -17.743746335652119 7.9245445643689711 0 -0.84804809178421925 -0.52991927123019833 I I #
edge $-1 $284 -27.402845348669146 $238 -10.882683778816315 $237 $308 forward 7 unknown #
point $-1 -46.545609912411877 -18.502801982172485 7.4502339457565689 #
point $-1 -30.025448342559045 -26.943525820937637 2.1758842141473682 #
vertex $-1 $283 $309 #
straight-curve $-1 0 -26.943525820937637 7.4502339457565689 1 0 0 I I #
vertex $-1 $244 $310 #
point $-1 -40.325563749596782 -20.695321485101935 1.5678329010287282 #
vertex $-1 $248 $311 #
point $-1 -33.24549450537414 -20.695321485101935 1.5678329010287282 #
straight-curve $-1 -46.545609912411877 26.943525820937637 0 0 0 -1 I I #
point $-1 -46.545609912411877 -26.943525820937637 -7.4502339457565689 #
straight-curve $-1 -46.545609912411877 0 -7.4502339457565689 0 1 0 I I #
point $-1 -46.545609912411877 26.943525820937637 -7.4502339457565689 #
straight-curve $-1 -17.793713209214776 17.734944408863715 7.4502339457565689 1 0 0 I I #
edge $-1 $277 -26.943525820937637 $271 -17.734944408863711 $269 $312 forward 7 unknown #
point $-1 -46.545609912411877 17.734944408863711 7.4502339457565689 #
straight-curve $-1 -46.545609912411877 26.943525820937637 0 0 0 -1 I I #
point $-1 -46.545609912411877 26.943525820937637 7.4502339457565689 #
point $-1 -35.587426418429551 17.291827677651479 -2.7174838017556766 #
straight-curve $-1 -46.545609912411877 -26.943525820937637 0 0 0 -1 I I #
straight-curve $-1 -46.545609912411877 0 7.4502339457565689 0 -1 0 I I #
point $-1 -46.545609912411877 -26.943525820937637 2.1758842141473682 #
straight-curve $-1 -19.14276456374273 -26.943525820937637 2.1758842141473673 1 0 0 I I #
point $-1 -46.545609912411877 -26.943525820937637 7.4502339457565689 #
point $-1 -41.825563749596782 -19.900442578256637 0.29576076335239943 #
point $-1 -34.74549450537414 -19.900442578256637 0.29576076335239943 #
straight-curve $-1 -46.545609912411877 0 7.4502339457565689 0 -1 0 I I #
End-of-ACIS-data 