500 0 3 0           
7 Unknown 11 ACIS 5.0 NT 24 Fri Mar 26 18:37:34 1999 
-1 9.9999999999999995e-007 1e-010 
body $-1 $3 $-1 $4 #
body $-1 $5 $-1 $6 #
body $-1 $7 $-1 $8 #
lump $-1 $-1 $9 $0 #
transform $-1 1 0 0 0 1 0 0 0 1 63.125705740531629 37.29882126138672 17.335693487904383 1 rotate no_reflect no_shear #
lump $-1 $-1 $10 $1 #
transform $-1 1 0 0 0 1 0 0 0 1 63.125705740531629 37.29882126138672 17.335693487904383 1 rotate no_reflect no_shear #
lump $-1 $-1 $11 $2 #
transform $-1 1 0 0 0 1 0 0 0 1 63.125705740531629 37.29882126138672 17.335693487904383 1 rotate no_reflect no_shear #
shell $-1 $-1 $-1 $12 $-1 $3 #
shell $-1 $-1 $-1 $13 $-1 $5 #
shell $-1 $-1 $-1 $14 $-1 $7 #
face $-1 $15 $16 $9 $-1 $17 reversed single #
face $-1 $18 $19 $10 $-1 $20 forward single #
face $-1 $21 $22 $11 $-1 $23 forward single #
face $-1 $24 $25 $9 $-1 $26 reversed single #
loop $-1 $-1 $27 $12 #
plane-surface $-1 63.125705740531629 0 0 -1 0 0 0 0 1 forward_v I I I I #
face $-1 $28 $29 $10 $-1 $30 reversed single #
loop $-1 $-1 $31 $13 #
plane-surface $-1 -63.125705740531629 0 0 1 0 0 0 0 -1 forward_v I I I I #
face $-1 $32 $33 $11 $-1 $34 reversed single #
loop $-1 $-1 $35 $14 #
plane-surface $-1 63.125705740531629 0 0 -1 0 0 0 0 1 forward_v I I I I #
face $-1 $36 $37 $9 $-1 $38 forward single #
loop $-1 $-1 $39 $15 #
plane-surface $-1 -63.125705740531629 0 0 1 0 0 0 0 -1 forward_v I I I I #
coedge $-1 $40 $41 $42 $43 reversed $16 $-1 #
face $-1 $44 $45 $10 $-1 $46 reversed single #
loop $-1 $-1 $47 $18 #
plane-surface $-1 0 0 -17.335693487904383 0 0 1 1 0 0 forward_v I I I I #
coedge $-1 $48 $49 $50 $51 forward $19 $-1 #
face $-1 $52 $53 $11 $-1 $54 reversed single #
loop $-1 $-1 $55 $21 #
plane-surface $-1 0 0 -17.335693487904383 0 0 1 1 0 0 forward_v I I I I #
coedge $-1 $56 $57 $58 $59 forward $22 $-1 #
face $-1 $60 $61 $9 $-1 $62 reversed single #
loop $-1 $-1 $63 $24 #
plane-surface $-1 0 0 17.335693487904383 0 0 1 1 0 0 forward_v I I I I #
coedge $-1 $64 $65 $66 $67 reversed $25 $-1 #
coedge $-1 $68 $27 $69 $70 reversed $16 $-1 #
coedge $-1 $27 $68 $71 $72 forward $16 $-1 #
coedge $-1 $73 $74 $27 $43 forward $61 $-1 #
edge $-1 $75 -37.29882126138672 $76 37.29882126138672 $27 $77 forward 7 unknown #
face $-1 $78 $79 $10 $-1 $80 reversed single #
loop $-1 $-1 $81 $28 #
plane-surface $-1 -72.497154038684656 -9.5730335545957583 0 0 1 0 0 0 1 forward_v I I I I #
coedge $-1 $82 $83 $49 $84 forward $29 $-1 #
coedge $-1 $85 $31 $86 $87 reversed $19 $-1 #
coedge $-1 $31 $85 $47 $84 reversed $19 $-1 #
coedge $-1 $88 $89 $31 $51 reversed $90 $-1 #
edge $-1 $91 -17.335693487904383 $92 17.335693487904383 $50 $93 forward 7 unknown #
face $-1 $94 $95 $11 $-1 $96 reversed single #
loop $-1 $-1 $58 $32 #
plane-surface $-1 72.49715403868467 -9.5730335545957583 0 0 1 0 0 0 1 forward_v I I I I #
coedge $-1 $97 $98 $57 $99 forward $33 $-1 #
coedge $-1 $100 $35 $101 $102 reversed $22 $-1 #
coedge $-1 $35 $100 $55 $99 reversed $22 $-1 #
coedge $-1 $103 $104 $35 $59 reversed $53 $-1 #
edge $-1 $105 -17.335693487904383 $106 17.335693487904383 $58 $107 forward 7 unknown #
face $-1 $108 $109 $9 $-1 $110 reversed single #
loop $-1 $-1 $42 $36 #
plane-surface $-1 0 0 -17.335693487904383 0 0 1 1 0 0 forward_v I I I I #
coedge $-1 $111 $112 $68 $113 forward $37 $-1 #
coedge $-1 $114 $39 $115 $116 reversed $25 $-1 #
coedge $-1 $39 $114 $117 $118 forward $25 $-1 #
coedge $-1 $74 $73 $39 $67 forward $61 $-1 #
edge $-1 $119 -37.29882126138672 $120 37.29882126138672 $39 $121 forward 7 unknown #
coedge $-1 $41 $40 $63 $113 reversed $16 $-1 #
coedge $-1 $122 $123 $40 $70 forward $124 $-1 #
edge $-1 $125 -17.335693487904383 $75 17.335693487904383 $40 $126 forward 7 unknown #
coedge $-1 $127 $128 $41 $72 reversed $109 $-1 #
edge $-1 $129 -17.335693487904383 $76 17.335693487904383 $41 $130 forward 7 unknown #
coedge $-1 $66 $42 $128 $131 forward $61 $-1 #
coedge $-1 $42 $66 $122 $132 forward $61 $-1 #
vertex $-1 $43 $133 #
vertex $-1 $72 $134 #
straight-curve $-1 63.125705740531629 0 -17.335693487904383 0 -1 0 I I #
face $-1 $135 $90 $10 $-1 $136 reversed single #
loop $-1 $-1 $137 $44 #
plane-surface $-1 -81.868602336837682 -6.1002339200868576 0 1 0 0 0 0 -1 forward_v I I I I #
coedge $-1 $138 $139 $140 $141 forward $45 $-1 #
coedge $-1 $142 $47 $138 $143 forward $29 $-1 #
coedge $-1 $47 $142 $88 $144 forward $29 $-1 #
edge $-1 $91 2.6274342855779569 $145 9.5730335545957583 $47 $146 forward 7 unknown #
coedge $-1 $49 $48 $147 $148 forward $19 $-1 #
coedge $-1 $149 $150 $48 $87 forward $151 $-1 #
edge $-1 $152 -9.5730335545957583 $92 -2.6274342855779569 $86 $153 forward 7 unknown #
coedge $-1 $154 $50 $83 $144 reversed $90 $-1 #
coedge $-1 $50 $154 $149 $155 reversed $90 $-1 #
loop $-1 $-1 $50 $78 #
vertex $-1 $84 $156 #
vertex $-1 $155 $157 #
straight-curve $-1 -63.125705740531629 -2.6274342855779569 0 0 0 1 I I #
face $-1 $158 $159 $11 $-1 $160 reversed single #
loop $-1 $-1 $161 $52 #
plane-surface $-1 72.49715403868467 -2.6274342855779569 0 0 -1 0 0 0 -1 forward_v I I I I #
coedge $-1 $162 $55 $163 $164 forward $33 $-1 #
coedge $-1 $55 $162 $103 $165 forward $33 $-1 #
edge $-1 $105 -9.5730335545957583 $166 -2.6274342855779569 $55 $167 forward 7 unknown #
coedge $-1 $57 $56 $168 $169 forward $22 $-1 #
coedge $-1 $170 $171 $56 $102 forward $172 $-1 #
edge $-1 $173 2.6274342855779569 $106 9.5730335545957583 $101 $174 forward 7 unknown #
coedge $-1 $175 $58 $98 $165 reversed $53 $-1 #
coedge $-1 $58 $175 $170 $176 reversed $53 $-1 #
vertex $-1 $99 $177 #
vertex $-1 $176 $178 #
straight-curve $-1 63.125705740531629 -9.5730335545957583 0 0 0 1 I I #
face $-1 $-1 $124 $9 $-1 $179 reversed single #
loop $-1 $-1 $115 $60 #
plane-surface $-1 0 -37.29882126138672 0 0 1 0 0 0 1 forward_v I I I I #
coedge $-1 $180 $63 $123 $181 forward $37 $-1 #
coedge $-1 $63 $180 $127 $182 forward $37 $-1 #
edge $-1 $129 -37.29882126138672 $125 37.29882126138672 $68 $183 forward 7 unknown #
coedge $-1 $65 $64 $180 $184 reversed $25 $-1 #
coedge $-1 $128 $127 $64 $116 forward $109 $-1 #
edge $-1 $185 -17.335693487904383 $119 17.335693487904383 $64 $186 forward 7 unknown #
coedge $-1 $123 $122 $65 $118 reversed $124 $-1 #
edge $-1 $187 -17.335693487904383 $120 17.335693487904383 $117 $188 forward 7 unknown #
vertex $-1 $67 $189 #
vertex $-1 $132 $190 #
straight-curve $-1 -63.125705740531629 0 -17.335693487904383 0 1 0 I I #
coedge $-1 $117 $69 $74 $132 reversed $124 $-1 #
coedge $-1 $69 $117 $111 $181 reversed $124 $-1 #
loop $-1 $-1 $69 $108 #
vertex $-1 $113 $191 #
straight-curve $-1 63.125705740531629 37.29882126138672 0 0 0 -1 I I #
coedge $-1 $115 $71 $112 $182 reversed $109 $-1 #
coedge $-1 $71 $115 $73 $131 reversed $109 $-1 #
vertex $-1 $113 $192 #
straight-curve $-1 63.125705740531629 -37.29882126138672 0 0 0 -1 I I #
edge $-1 $76 -63.125705740531629 $119 63.125705740531629 $128 $193 forward 7 unknown #
edge $-1 $120 -63.125705740531629 $75 63.125705740531629 $122 $194 forward 7 unknown #
point $-1 63.125705740531629 37.29882126138672 -17.335693487904383 #
point $-1 63.125705740531629 -37.29882126138672 -17.335693487904383 #
face $-1 $-1 $151 $10 $-1 $195 forward single #
plane-surface $-1 -72.497154038684656 -2.6274342855779569 0 0 -1 0 0 0 -1 forward_v I I I I #
coedge $-1 $196 $197 $154 $198 forward $79 $-1 #
coedge $-1 $147 $81 $82 $143 reversed $45 $-1 #
coedge $-1 $81 $147 $150 $199 reversed $45 $-1 #
coedge $-1 $197 $196 $81 $141 reversed $79 $-1 #
edge $-1 $200 -17.335693487904383 $201 17.335693487904383 $140 $202 forward 7 unknown #
coedge $-1 $83 $82 $196 $203 forward $29 $-1 #
edge $-1 $145 -9.3714482981530338 $201 9.3714482981530267 $138 $204 forward 7 unknown #
edge $-1 $205 -9.3714482981530267 $91 9.3714482981530338 $88 $206 forward 7 unknown #
vertex $-1 $143 $207 #
straight-curve $-1 -63.125705740531629 0 -17.335693487904383 0 -1 0 I I #
coedge $-1 $139 $138 $85 $148 reversed $45 $-1 #
edge $-1 $152 -17.335693487904383 $145 17.335693487904383 $147 $208 forward 7 unknown #
coedge $-1 $209 $86 $89 $155 forward $151 $-1 #
coedge $-1 $86 $209 $139 $199 forward $151 $-1 #
loop $-1 $-1 $86 $135 #
vertex $-1 $87 $210 #
straight-curve $-1 -63.125705740531629 0 17.335693487904383 0 1 0 I I #
coedge $-1 $89 $88 $137 $198 reversed $90 $-1 #
edge $-1 $92 -9.3714482981530338 $211 9.3714482981530267 $89 $212 forward 7 unknown #
point $-1 -63.125705740531622 -2.6274342855779569 -17.335693487904383 #
point $-1 -63.125705740531622 -2.6274342855779569 17.335693487904383 #
face $-1 $-1 $172 $11 $-1 $213 forward single #
loop $-1 $-1 $214 $94 #
plane-surface $-1 81.868602336837696 -6.1002339200868576 0 -1 0 0 0 0 1 forward_v I I I I #
coedge $-1 $163 $215 $216 $217 forward $95 $-1 #
coedge $-1 $98 $97 $218 $219 forward $33 $-1 #
coedge $-1 $168 $161 $97 $164 reversed $95 $-1 #
edge $-1 $166 -9.3714482981530267 $220 9.3714482981530267 $163 $221 forward 7 unknown #
edge $-1 $222 -9.3714482981530267 $105 9.3714482981530267 $103 $223 forward 7 unknown #
vertex $-1 $164 $224 #
straight-curve $-1 63.125705740531629 0 -17.335693487904383 0 1 0 I I #
coedge $-1 $215 $163 $100 $169 reversed $95 $-1 #
edge $-1 $173 -17.335693487904383 $166 17.335693487904383 $168 $225 forward 7 unknown #
coedge $-1 $226 $101 $104 $176 forward $172 $-1 #
coedge $-1 $101 $226 $215 $227 forward $172 $-1 #
loop $-1 $-1 $101 $158 #
vertex $-1 $102 $228 #
straight-curve $-1 63.125705740531629 0 17.335693487904383 0 -1 0 I I #
coedge $-1 $104 $103 $214 $229 reversed $53 $-1 #
edge $-1 $106 -9.3714482981530267 $230 9.3714482981530267 $104 $231 forward 7 unknown #
point $-1 63.125705740531643 -9.5730335545957583 -17.335693487904383 #
point $-1 63.125705740531643 -9.5730335545957583 17.335693487904383 #
plane-surface $-1 0 37.29882126138672 0 0 -1 0 0 0 -1 forward_v I I I I #
coedge $-1 $112 $111 $114 $184 forward $37 $-1 #
edge $-1 $125 -63.125705740531629 $187 63.125705740531629 $123 $232 forward 7 unknown #
edge $-1 $185 -63.125705740531629 $129 63.125705740531629 $127 $233 forward 7 unknown #
straight-curve $-1 63.125705740531629 0 17.335693487904383 0 1 0 I I #
edge $-1 $187 -37.29882126138672 $185 37.29882126138672 $114 $234 forward 7 unknown #
vertex $-1 $184 $235 #
straight-curve $-1 -63.125705740531629 -37.29882126138672 0 0 0 -1 I I #
vertex $-1 $181 $236 #
straight-curve $-1 -63.125705740531629 37.29882126138672 0 0 0 -1 I I #
point $-1 -63.125705740531629 -37.29882126138672 -17.335693487904383 #
point $-1 -63.125705740531629 37.29882126138672 -17.335693487904383 #
point $-1 63.125705740531629 37.29882126138672 17.335693487904383 #
point $-1 63.125705740531629 -37.29882126138672 17.335693487904383 #
straight-curve $-1 0 -37.29882126138672 -17.335693487904383 -1 0 0 I I #
straight-curve $-1 0 37.29882126138672 -17.335693487904383 1 0 0 I I #
plane-surface $-1 0 0 17.335693487904383 0 0 1 1 0 0 forward_v I I I I #
coedge $-1 $140 $137 $142 $203 reversed $79 $-1 #
coedge $-1 $137 $140 $209 $237 reversed $79 $-1 #
edge $-1 $211 -17.335693487904383 $205 17.335693487904383 $154 $238 forward 7 unknown #
edge $-1 $200 -9.3714482981530267 $152 9.3714482981530338 $139 $239 forward 7 unknown #
vertex $-1 $237 $240 #
vertex $-1 $203 $241 #
straight-curve $-1 -81.868602336837682 -9.5730335545957583 0 0 0 -1 I I #
edge $-1 $201 -3.4727996345089007 $205 3.4727996345089007 $196 $242 forward 7 unknown #
straight-curve $-1 -72.497154038684656 -9.5730335545957583 -17.335693487904383 -1 0 0 I I #
vertex $-1 $144 $243 #
straight-curve $-1 -72.497154038684656 -2.6274342855779569 -17.335693487904383 1 0 0 I I #
point $-1 -63.125705740531622 -9.5730335545957583 -17.335693487904383 #
straight-curve $-1 -63.125705740531629 -9.5730335545957583 0 0 0 -1 I I #
coedge $-1 $150 $149 $197 $237 forward $151 $-1 #
point $-1 -63.125705740531622 -9.5730335545957583 17.335693487904383 #
vertex $-1 $155 $244 #
straight-curve $-1 -72.497154038684656 -2.6274342855779569 17.335693487904383 -1 0 0 I I #
plane-surface $-1 0 0 17.335693487904383 0 0 1 1 0 0 forward_v I I I I #
coedge $-1 $218 $245 $175 $229 forward $159 $-1 #
coedge $-1 $161 $168 $171 $227 reversed $95 $-1 #
coedge $-1 $245 $218 $161 $217 reversed $159 $-1 #
edge $-1 $246 -17.335693487904383 $220 17.335693487904383 $216 $247 forward 7 unknown #
coedge $-1 $216 $214 $162 $219 reversed $159 $-1 #
edge $-1 $220 -3.4727996345089007 $222 3.4727996345089007 $218 $248 forward 7 unknown #
vertex $-1 $219 $249 #
straight-curve $-1 72.49715403868467 -2.6274342855779569 -17.335693487904383 1 0 0 I I #
vertex $-1 $229 $250 #
straight-curve $-1 72.49715403868467 -9.5730335545957583 -17.335693487904383 -1 0 0 I I #
point $-1 63.125705740531643 -2.6274342855779569 -17.335693487904383 #
straight-curve $-1 63.125705740531629 -2.6274342855779569 0 0 0 -1 I I #
coedge $-1 $171 $170 $245 $251 forward $172 $-1 #
edge $-1 $246 -9.3714482981530267 $173 9.3714482981530267 $215 $252 forward 7 unknown #
point $-1 63.125705740531643 -2.6274342855779569 17.335693487904383 #
edge $-1 $230 -17.335693487904383 $222 17.335693487904383 $214 $253 forward 7 unknown #
vertex $-1 $251 $254 #
straight-curve $-1 72.49715403868467 -9.5730335545957583 17.335693487904383 1 0 0 I I #
straight-curve $-1 0 37.29882126138672 17.335693487904383 -1 0 0 I I #
straight-curve $-1 0 -37.29882126138672 17.335693487904383 1 0 0 I I #
straight-curve $-1 -63.125705740531629 0 17.335693487904383 0 -1 0 I I #
point $-1 -63.125705740531629 -37.29882126138672 17.335693487904383 #
point $-1 -63.125705740531629 37.29882126138672 17.335693487904383 #
edge $-1 $211 -3.4727996345089007 $200 3.4727996345089007 $197 $255 forward 7 unknown #
straight-curve $-1 -81.868602336837682 -2.6274342855779569 0 0 0 -1 I I #
straight-curve $-1 -72.497154038684656 -9.5730335545957583 17.335693487904383 1 0 0 I I #
point $-1 -81.868602336837682 -9.5730335545957583 17.335693487904383 #
point $-1 -81.868602336837682 -9.5730335545957583 -17.335693487904383 #
straight-curve $-1 -81.868602336837682 -6.1002339200868576 -17.335693487904383 0 1 0 I I #
point $-1 -81.868602336837682 -2.6274342855779569 -17.335693487904383 #
point $-1 -81.868602336837682 -2.6274342855779569 17.335693487904383 #
coedge $-1 $214 $216 $226 $251 reversed $159 $-1 #
vertex $-1 $251 $256 #
straight-curve $-1 81.868602336837696 -2.6274342855779569 0 0 0 -1 I I #
straight-curve $-1 81.868602336837696 -6.1002339200868576 -17.335693487904383 0 -1 0 I I #
point $-1 81.868602336837696 -2.6274342855779569 -17.335693487904383 #
point $-1 81.868602336837696 -9.5730335545957583 -17.335693487904383 #
edge $-1 $230 -3.4727996345089007 $246 3.4727996345089007 $245 $257 forward 7 unknown #
straight-curve $-1 72.49715403868467 -2.6274342855779569 17.335693487904383 -1 0 0 I I #
straight-curve $-1 81.868602336837696 -9.5730335545957583 0 0 0 -1 I I #
point $-1 81.868602336837696 -9.5730335545957583 17.335693487904383 #
straight-curve $-1 -81.868602336837682 -6.1002339200868576 17.335693487904383 0 -1 0 I I #
point $-1 81.868602336837696 -2.6274342855779569 17.335693487904383 #
straight-curve $-1 81.868602336837696 -6.1002339200868576 17.335693487904383 0 1 0 I I #
End-of-ACIS-data 