500 0 6 0           
7 Unknown 11 ACIS 5.0 NT 24 Fri Mar 26 19:27:59 1999 
-1 9.9999999999999995e-007 1e-010 
body $-1 $6 $-1 $7 #
body $-1 $8 $-1 $9 #
body $-1 $10 $-1 $11 #
body $-1 $12 $-1 $13 #
body $-1 $14 $-1 $15 #
body $-1 $16 $-1 $17 #
lump $-1 $-1 $18 $0 #
transform $-1 1 0 0 0 1 0 0 0 1 79.523911252174443 37.549061486259568 9.3377034065000188 1 rotate no_reflect no_shear #
lump $-1 $-1 $19 $1 #
transform $-1 1 0 0 0 1 0 0 0 1 79.523911252174443 37.549061486259568 9.3377034065000188 1 rotate no_reflect no_shear #
lump $-1 $-1 $20 $2 #
transform $-1 1 0 0 0 1 0 0 0 1 79.523911252174443 37.549061486259568 9.3377034065000188 1 rotate no_reflect no_shear #
lump $-1 $-1 $21 $3 #
transform $-1 1 0 0 0 1 0 0 0 1 79.523911252174443 37.549061486259568 9.3377034065000188 1 rotate no_reflect no_shear #
lump $-1 $-1 $22 $4 #
transform $-1 1 0 0 0 1 0 0 0 1 79.523911252174443 37.549061486259568 9.3377034065000188 1 rotate no_reflect no_shear #
lump $-1 $-1 $23 $5 #
transform $-1 1 0 0 0 1 0 0 0 1 79.523911252174443 37.549061486259568 9.3377034065000188 1 rotate no_reflect no_shear #
shell $-1 $-1 $-1 $24 $-1 $6 #
shell $-1 $-1 $-1 $25 $-1 $8 #
shell $-1 $-1 $-1 $26 $-1 $10 #
shell $-1 $-1 $-1 $27 $-1 $12 #
shell $-1 $-1 $-1 $28 $-1 $14 #
shell $-1 $-1 $-1 $29 $-1 $16 #
face $-1 $30 $31 $18 $-1 $32 forward single #
face $-1 $33 $34 $19 $-1 $35 forward single #
face $-1 $36 $37 $20 $-1 $38 reversed single #
face $-1 $39 $40 $21 $-1 $41 forward single #
face $-1 $42 $43 $22 $-1 $44 forward single #
face $-1 $45 $46 $23 $-1 $47 forward single #
face $-1 $48 $49 $18 $-1 $50 reversed single #
loop $-1 $-1 $51 $24 #
plane-surface $-1 0 0 9.3377034065000188 0 0 1 1 0 0 forward_v I I I I #
face $-1 $52 $53 $19 $-1 $54 reversed single #
loop $-1 $-1 $55 $25 #
plane-surface $-1 -73.685656607221588 0 -5.7148005911531428 0 0 1 1 0 0 forward_v I I I I #
face $-1 $56 $57 $20 $-1 $58 reversed single #
loop $-1 $-1 $59 $26 #
plane-surface $-1 50.052796896258982 -139.78303239623736 126.49015837258744 1 0 0 0 0.64278761758704617 -0.76604443648966558 forward_v I I I I #
face $-1 $60 $61 $21 $-1 $62 forward single #
loop $-1 $63 $64 $27 #
cone-surface $-1 55.947019767442086 -34.076025647711752 6.1832498108171912 0 0.64278761758704617 -0.76604443648966558 1 0 0 1 I I 0 1 1 forward I I I I #
face $-1 $65 $66 $22 $-1 $67 forward single #
loop $-1 $68 $69 $28 #
cone-surface $-1 64.788354074216713 -34.076025647711752 6.1832498108171912 0 0.64278761758704617 -0.76604443648966558 1 0 0 1 I I 0 1 1 forward I I I I #
face $-1 $70 $71 $23 $-1 $72 forward single #
loop $-1 $73 $74 $29 #
cone-surface $-1 73.62968838099134 -34.076025647711752 6.1832498108171912 0 0.64278761758704617 -0.76604443648966558 1 0 0 1 I I 0 1 1 forward I I I I #
face $-1 $75 $76 $18 $-1 $77 reversed single #
loop $-1 $-1 $78 $30 #
plane-surface $-1 0 0 -9.3377034065000188 0 0 1 1 0 0 forward_v I I I I #
coedge $-1 $79 $80 $81 $82 forward $31 $-1 #
face $-1 $83 $84 $19 $-1 $85 reversed single #
loop $-1 $-1 $86 $33 #
plane-surface $-1 -73.685656607221588 0 -8.8377034065000188 0 0 1 1 0 0 forward_v I I I I #
coedge $-1 $87 $88 $89 $90 forward $34 $-1 #
face $-1 $91 $92 $20 $-1 $93 forward single #
loop $-1 $-1 $94 $36 #
plane-surface $-1 64.788354074216713 -37.549061486259546 4.6524588073351509 0 -0.64278761758704617 0.76604443648966558 1 0 0 forward_v I I I I #
coedge $-1 $95 $96 $97 $98 reversed $37 $-1 #
face $-1 $-1 $99 $21 $-1 $100 forward single #
loop $-1 $101 $102 $39 #
cone-surface $-1 55.947019767442086 -33.073424483514351 4.9883962964719561 0 0.64278761758704617 -0.76604443648966558 0.5 0 0 1 I I -0.70710678118654746 0.70710678118654746 0.5 forward I I I I #
loop $-1 $-1 $103 $27 #
coedge $-1 $64 $64 $104 $105 reversed $40 $-1 #
face $-1 $-1 $106 $22 $-1 $107 forward single #
loop $-1 $108 $109 $42 #
cone-surface $-1 64.788354074216713 -33.073424483514351 4.9883962964719561 0 0.64278761758704617 -0.76604443648966558 0.5 0 0 1 I I -0.70710678118654746 0.70710678118654746 0.5 forward I I I I #
loop $-1 $-1 $110 $28 #
coedge $-1 $69 $69 $111 $112 reversed $43 $-1 #
face $-1 $-1 $113 $23 $-1 $114 forward single #
loop $-1 $115 $116 $45 #
cone-surface $-1 73.62968838099134 -33.073424483514351 4.9883962964719561 0 0.64278761758704617 -0.76604443648966558 0.5 0 0 1 I I -0.70710678118654746 0.70710678118654746 0.5 forward I I I I #
loop $-1 $-1 $117 $29 #
coedge $-1 $74 $74 $118 $119 reversed $46 $-1 #
face $-1 $120 $121 $18 $-1 $122 reversed single #
loop $-1 $-1 $123 $48 #
plane-surface $-1 0 -37.549061486259568 0 0 1 0 0 0 1 forward_v I I I I #
coedge $-1 $124 $125 $126 $127 forward $49 $-1 #
coedge $-1 $128 $51 $129 $130 forward $31 $-1 #
coedge $-1 $51 $128 $131 $132 forward $31 $-1 #
coedge $-1 $133 $134 $51 $82 reversed $135 $-1 #
edge $-1 $136 -37.549061486259568 $137 37.549061486259568 $81 $138 forward 7 unknown #
face $-1 $139 $140 $19 $-1 $141 reversed single #
loop $-1 $-1 $142 $52 #
plane-surface $-1 -67.847401962268734 0 -7.2762519988265808 -1 0 0 0 0 1 forward_v I I I I #
coedge $-1 $143 $144 $145 $146 forward $53 $-1 #
coedge $-1 $147 $55 $148 $149 reversed $34 $-1 #
coedge $-1 $55 $147 $150 $151 reversed $34 $-1 #
coedge $-1 $142 $152 $55 $90 reversed $84 $-1 #
edge $-1 $153 -37.549061486259568 $154 37.549061486259568 $89 $155 forward 7 unknown #
face $-1 $156 $157 $20 $-1 $158 reversed single #
loop $-1 $-1 $159 $56 #
plane-surface $-1 0 0 9.3377034065000188 0 0 1 1 0 0 forward_v I I I I #
coedge $-1 $160 $161 $162 $163 reversed $57 $-1 #
coedge $-1 $96 $59 $164 $165 reversed $37 $-1 #
coedge $-1 $59 $95 $160 $166 reversed $37 $-1 #
coedge $-1 $162 $167 $59 $98 forward $157 $-1 #
edge $-1 $168 53.907375779793703 $169 58.592620378958586 $97 $170 forward 7 unknown #
loop $-1 $-1 $104 $60 #
plane-surface $-1 64.788354074216713 -37.549061486259546 4.6524588073351509 0 -0.64278761758704617 0.76604443648966558 1 0 0 forward_v I I I I #
loop $-1 $-1 $171 $39 #
coedge $-1 $102 $102 $103 $172 reversed $61 $-1 #
coedge $-1 $103 $103 $102 $172 forward $63 $-1 #
coedge $-1 $104 $104 $64 $105 forward $99 $-1 #
edge $-1 $173 -4.3401073902984481e-015 $173 6.283185307179596 $104 $174 forward 7 unknown #
loop $-1 $-1 $111 $65 #
plane-surface $-1 64.788354074216713 -37.549061486259546 4.6524588073351509 0 -0.64278761758704617 0.76604443648966558 1 0 0 forward_v I I I I #
loop $-1 $-1 $175 $42 #
coedge $-1 $109 $109 $110 $176 reversed $66 $-1 #
coedge $-1 $110 $110 $109 $176 forward $68 $-1 #
coedge $-1 $111 $111 $69 $112 forward $106 $-1 #
edge $-1 $177 -4.3401073902984481e-015 $177 6.283185307179596 $111 $178 forward 7 unknown #
loop $-1 $-1 $118 $70 #
plane-surface $-1 64.788354074216713 -37.549061486259546 4.6524588073351509 0 -0.64278761758704617 0.76604443648966558 1 0 0 forward_v I I I I #
loop $-1 $-1 $179 $45 #
coedge $-1 $116 $116 $117 $180 reversed $71 $-1 #
coedge $-1 $117 $117 $116 $180 forward $73 $-1 #
coedge $-1 $118 $118 $74 $119 forward $113 $-1 #
edge $-1 $181 -4.3401073902984481e-015 $181 6.283185307179596 $118 $182 forward 7 unknown #
face $-1 $183 $184 $18 $-1 $185 reversed single #
loop $-1 $-1 $186 $75 #
plane-surface $-1 -79.523911252174443 0 0 1 0 0 0 0 -1 forward_v I I I I #
coedge $-1 $187 $131 $188 $189 forward $76 $-1 #
coedge $-1 $190 $78 $187 $191 forward $49 $-1 #
coedge $-1 $78 $190 $192 $193 forward $49 $-1 #
coedge $-1 $134 $133 $78 $127 reversed $135 $-1 #
edge $-1 $194 -37.549061486259568 $195 37.549061486259568 $126 $196 forward 7 unknown #
coedge $-1 $80 $79 $197 $198 forward $31 $-1 #
coedge $-1 $199 $200 $79 $130 reversed $184 $-1 #
edge $-1 $137 -79.523911252174443 $201 79.523911252174443 $129 $202 forward 7 unknown #
coedge $-1 $123 $203 $80 $132 reversed $76 $-1 #
edge $-1 $204 -79.523911252174443 $136 79.523911252174443 $131 $205 forward 7 unknown #
coedge $-1 $126 $81 $203 $206 forward $135 $-1 #
coedge $-1 $81 $126 $199 $207 reversed $135 $-1 #
loop $-1 $-1 $133 $183 #
vertex $-1 $82 $208 #
vertex $-1 $82 $209 #
straight-curve $-1 79.523911252174443 0 9.3377034065000188 0 1 0 I I #
face $-1 $210 $211 $19 $-1 $212 reversed single #
loop $-1 $-1 $213 $83 #
plane-surface $-1 0 -37.549061486259568 0 0 1 0 0 0 1 forward_v I I I I #
coedge $-1 $145 $89 $214 $215 reversed $84 $-1 #
coedge $-1 $216 $86 $213 $217 reversed $53 $-1 #
coedge $-1 $86 $216 $218 $219 reversed $53 $-1 #
coedge $-1 $152 $142 $86 $146 reversed $84 $-1 #
edge $-1 $220 -37.549061486259568 $221 37.549061486259568 $145 $222 forward 7 unknown #
coedge $-1 $88 $87 $223 $224 reversed $34 $-1 #
coedge $-1 $225 $226 $87 $149 forward $227 $-1 #
edge $-1 $228 -42.681082948563649 $154 -31.004573658657939 $148 $229 forward 7 unknown #
coedge $-1 $230 $214 $88 $151 forward $140 $-1 #
edge $-1 $153 31.004573658657939 $231 42.681082948563649 $150 $232 forward 7 unknown #
coedge $-1 $89 $145 $225 $233 reversed $84 $-1 #
vertex $-1 $151 $234 #
vertex $-1 $149 $235 #
straight-curve $-1 -67.847401962268734 0 -5.7148005911531428 0 1 0 I I #
face $-1 $-1 $236 $20 $-1 $237 reversed single #
loop $-1 $-1 $97 $91 #
plane-surface $-1 0 -37.549061486259568 0 0 1 0 0 0 1 forward_v I I I I #
coedge $-1 $164 $238 $239 $240 forward $92 $-1 #
coedge $-1 $239 $94 $96 $166 forward $57 $-1 #
coedge $-1 $94 $239 $241 $242 reversed $57 $-1 #
coedge $-1 $243 $97 $94 $163 forward $157 $-1 #
edge $-1 $169 17.658619859150626 $244 47.129734215066087 $162 $245 forward 7 unknown #
coedge $-1 $246 $159 $95 $165 forward $92 $-1 #
edge $-1 $247 -37.926111678147009 $168 -32.342454711859112 $164 $248 forward 7 unknown #
edge $-1 $169 -2.7747421096340558e-014 $247 7.2889465680013545 $96 $249 forward 7 unknown #
coedge $-1 $97 $243 $246 $250 reversed $157 $-1 #
vertex $-1 $250 $251 #
vertex $-1 $98 $252 #
straight-curve $-1 50.052796896258982 -37.549061486259568 63.245079186293722 0 0 -1 I I #
coedge $-1 $171 $171 $-1 $253 reversed $101 $-1 #
edge $-1 $254 0 $254 6.2831853071796004 $102 $255 forward 7 unknown #
vertex $-1 $105 $256 #
ellipse-curve $-1 55.947019767442086 -34.757233003115616 6.9950811069175751 0 -0.64278761758704617 0.76604443648966558 1 0 0 1 I I #
coedge $-1 $175 $175 $-1 $257 reversed $108 $-1 #
edge $-1 $258 0 $258 6.2831853071796004 $109 $259 forward 7 unknown #
vertex $-1 $112 $260 #
ellipse-curve $-1 64.788354074216713 -34.757233003115616 6.9950811069175751 0 -0.64278761758704617 0.76604443648966558 1 0 0 1 I I #
coedge $-1 $179 $179 $-1 $261 reversed $115 $-1 #
edge $-1 $262 0 $262 6.2831853071796004 $116 $263 forward 7 unknown #
vertex $-1 $119 $264 #
ellipse-curve $-1 73.62968838099134 -34.757233003115616 6.9950811069175751 0 -0.64278761758704617 0.76604443648966558 1 0 0 1 I I #
face $-1 $-1 $135 $18 $-1 $265 reversed single #
loop $-1 $-1 $199 $120 #
plane-surface $-1 0 37.549061486259568 0 0 -1 0 0 0 -1 forward_v I I I I #
coedge $-1 $266 $197 $200 $267 forward $121 $-1 #
coedge $-1 $203 $123 $124 $191 reversed $76 $-1 #
coedge $-1 $197 $266 $123 $189 reversed $121 $-1 #
edge $-1 $204 -9.3377034065000188 $268 9.3377034065000188 $188 $269 forward 7 unknown #
coedge $-1 $125 $124 $266 $270 forward $49 $-1 #
edge $-1 $195 -79.523911252174443 $268 79.523911252174443 $187 $271 forward 7 unknown #
coedge $-1 $200 $199 $125 $193 reversed $184 $-1 #
edge $-1 $272 -79.523911252174443 $194 79.523911252174443 $192 $273 forward 7 unknown #
vertex $-1 $127 $274 #
vertex $-1 $206 $275 #
straight-curve $-1 79.523911252174443 0 -9.3377034065000188 0 -1 0 I I #
coedge $-1 $186 $188 $128 $198 reversed $121 $-1 #
edge $-1 $201 -37.549061486259568 $204 37.549061486259568 $197 $276 forward 7 unknown #
coedge $-1 $192 $129 $134 $207 forward $184 $-1 #
coedge $-1 $129 $192 $186 $267 reversed $184 $-1 #
vertex $-1 $130 $277 #
straight-curve $-1 0 37.549061486259568 9.3377034065000188 -1 0 0 I I #
coedge $-1 $131 $187 $133 $206 reversed $76 $-1 #
vertex $-1 $198 $278 #
straight-curve $-1 0 -37.549061486259568 9.3377034065000188 1 0 0 I I #
edge $-1 $136 -9.3377034065000188 $195 9.3377034065000188 $133 $279 forward 7 unknown #
edge $-1 $137 -9.3377034065000188 $194 9.3377034065000188 $134 $280 forward 7 unknown #
point $-1 79.523911252174443 -37.549061486259568 9.3377034065000188 #
point $-1 79.523911252174443 37.549061486259568 9.3377034065000188 #
face $-1 $-1 $227 $19 $-1 $281 reversed single #
loop $-1 $-1 $282 $139 #
plane-surface $-1 -79.523911252174443 0 0 1 0 0 0 0 -1 forward_v I I I I #
coedge $-1 $214 $230 $143 $217 forward $140 $-1 #
coedge $-1 $150 $213 $142 $215 forward $140 $-1 #
edge $-1 $221 -5.1995774070867284 $153 -2.0766745917398524 $214 $283 forward 7 unknown #
coedge $-1 $144 $143 $282 $284 reversed $53 $-1 #
edge $-1 $285 -42.681082948563649 $221 -31.004573658657939 $213 $286 forward 7 unknown #
coedge $-1 $226 $225 $144 $219 forward $227 $-1 #
edge $-1 $220 31.004573658657939 $287 42.681082948563649 $218 $288 forward 7 unknown #
vertex $-1 $219 $289 #
vertex $-1 $217 $290 #
straight-curve $-1 -67.847401962268734 0 -8.8377034065000188 0 -1 0 I I #
coedge $-1 $291 $292 $147 $224 forward $211 $-1 #
edge $-1 $231 -37.549061486259568 $228 37.549061486259568 $223 $293 forward 7 unknown #
coedge $-1 $218 $148 $152 $233 forward $227 $-1 #
coedge $-1 $148 $218 $291 $294 reversed $227 $-1 #
loop $-1 $-1 $218 $210 #
vertex $-1 $294 $295 #
straight-curve $-1 -36.842828303610794 37.549061486259568 -5.7148005911531428 1 0 0 I I #
coedge $-1 $213 $150 $292 $296 forward $140 $-1 #
vertex $-1 $296 $297 #
straight-curve $-1 -36.842828303610794 -37.549061486259568 -5.7148005911531428 -1 0 0 I I #
edge $-1 $154 2.0766745917398524 $220 5.1995774070867284 $225 $298 forward 7 unknown #
point $-1 -67.847401962268734 -37.549061486259568 -5.7148005911531428 #
point $-1 -67.847401962268734 37.549061486259568 -5.7148005911531428 #
loop $-1 $-1 $241 $156 #
plane-surface $-1 79.523911252174443 0 0 -1 0 0 0 0 1 forward_v I I I I #
coedge $-1 $159 $246 $299 $300 forward $92 $-1 #
coedge $-1 $161 $160 $159 $240 reversed $57 $-1 #
edge $-1 $301 -47.129734215066087 $247 -17.658619859150626 $159 $302 forward 7 unknown #
coedge $-1 $299 $303 $161 $242 forward $236 $-1 #
edge $-1 $244 -12.886853367134362 $301 -5.5979067991329803 $241 $304 forward 7 unknown #
coedge $-1 $167 $162 $303 $305 reversed $157 $-1 #
vertex $-1 $163 $306 #
straight-curve $-1 32.394177037108356 -37.549061486259568 4.6524588073351332 1 0 0 I I #
coedge $-1 $238 $164 $167 $250 forward $92 $-1 #
vertex $-1 $165 $307 #
straight-curve $-1 50.052796896258982 -69.89151619811868 9.3377034065000188 0 -1 0 I I #
straight-curve $-1 50.052796896258982 -37.549061486259546 4.6524588073351509 0 0.76604443648966558 0.64278761758704617 I I #
edge $-1 $168 50.052796896258982 $308 79.523911252174443 $167 $309 forward 7 unknown #
point $-1 50.052796896258982 -37.549061486259568 9.3377034065000188 #
point $-1 50.052796896258982 -37.549061486259568 4.6524588073351332 #
edge $-1 $310 1 $310 0 $171 $-1 forward 7 unknown #
vertex $-1 $172 $311 #
ellipse-curve $-1 55.947019767442086 -33.394818292307875 5.3714185147167886 0 -0.64278761758704617 0.76604443648966558 1 0 0 1 I I #
point $-1 56.947019767442086 -34.757233003115637 6.9950811069175938 #
edge $-1 $312 1 $312 0 $175 $-1 forward 7 unknown #
vertex $-1 $176 $313 #
ellipse-curve $-1 64.788354074216713 -33.394818292307875 5.3714185147167886 0 -0.64278761758704617 0.76604443648966558 1 0 0 1 I I #
point $-1 65.788354074216713 -34.757233003115637 6.9950811069175938 #
edge $-1 $314 1 $314 0 $179 $-1 forward 7 unknown #
vertex $-1 $180 $315 #
ellipse-curve $-1 73.62968838099134 -33.394818292307875 5.3714185147167886 0 -0.64278761758704617 0.76604443648966558 1 0 0 1 I I #
point $-1 74.62968838099134 -34.757233003115637 6.9950811069175938 #
plane-surface $-1 79.523911252174443 0 0 -1 0 0 0 0 1 forward_v I I I I #
coedge $-1 $188 $186 $190 $270 reversed $121 $-1 #
edge $-1 $201 -9.3377034065000188 $272 9.3377034065000188 $200 $316 forward 7 unknown #
vertex $-1 $270 $317 #
straight-curve $-1 -79.523911252174443 -37.549061486259568 0 0 0 -1 I I #
edge $-1 $268 -37.549061486259568 $272 37.549061486259568 $266 $318 forward 7 unknown #
straight-curve $-1 0 -37.549061486259568 -9.3377034065000188 -1 0 0 I I #
vertex $-1 $193 $319 #
straight-curve $-1 0 37.549061486259568 -9.3377034065000188 1 0 0 I I #
point $-1 79.523911252174443 37.549061486259568 -9.3377034065000188 #
point $-1 79.523911252174443 -37.549061486259568 -9.3377034065000188 #
straight-curve $-1 -79.523911252174443 0 9.3377034065000188 0 -1 0 I I #
point $-1 -79.523911252174443 37.549061486259568 9.3377034065000188 #
point $-1 -79.523911252174443 -37.549061486259568 9.3377034065000188 #
straight-curve $-1 79.523911252174443 -37.549061486259568 0 0 0 -1 I I #
straight-curve $-1 79.523911252174443 37.549061486259568 0 0 0 -1 I I #
plane-surface $-1 0 37.549061486259568 0 0 -1 0 0 0 -1 forward_v I I I I #
coedge $-1 $292 $291 $216 $284 forward $211 $-1 #
straight-curve $-1 -67.847401962268734 -37.549061486259568 -3.6381259994132904 0 0 1 I I #
edge $-1 $287 -37.549061486259568 $285 37.549061486259568 $282 $320 forward 7 unknown #
vertex $-1 $217 $321 #
straight-curve $-1 -36.842828303610794 -37.549061486259568 -8.8377034065000188 1 0 0 I I #
vertex $-1 $219 $322 #
straight-curve $-1 -36.842828303610794 37.549061486259568 -8.8377034065000188 -1 0 0 I I #
point $-1 -67.847401962268734 37.549061486259568 -8.8377034065000188 #
point $-1 -67.847401962268734 -37.549061486259568 -8.8377034065000188 #
coedge $-1 $282 $223 $226 $294 forward $211 $-1 #
coedge $-1 $223 $282 $230 $296 reversed $211 $-1 #
straight-curve $-1 -79.523911252174443 0 -5.7148005911531428 0 1 0 I I #
edge $-1 $228 5.7148005911531428 $287 8.8377034065000188 $226 $323 forward 7 unknown #
point $-1 -79.523911252174443 37.549061486259568 -5.7148005911531428 #
edge $-1 $231 5.7148005911531428 $285 8.8377034065000188 $292 $324 forward 7 unknown #
point $-1 -79.523911252174443 -37.549061486259568 -5.7148005911531428 #
straight-curve $-1 -67.847401962268734 37.549061486259568 -3.6381259994132904 0 0 -1 I I #
coedge $-1 $303 $241 $238 $300 reversed $236 $-1 #
edge $-1 $308 -37.549061486259568 $301 -31.965404519971667 $299 $325 forward 7 unknown #
vertex $-1 $242 $326 #
straight-curve $-1 32.394177037108356 -31.965404519971667 9.3377034065000188 -1 0 0 I I #
coedge $-1 $241 $299 $243 $305 forward $236 $-1 #
straight-curve $-1 79.523911252174443 -27.677159160508175 12.935968581389034 0 0.76604443648966558 0.64278761758704617 I I #
edge $-1 $308 -9.3377034065000188 $244 -4.6524588073351332 $303 $327 forward 7 unknown #
point $-1 79.523911252174443 -37.549061486259568 4.6524588073351332 #
point $-1 50.052796896258982 -31.965404519971667 9.3377034065000188 #
vertex $-1 $300 $328 #
straight-curve $-1 0 -37.549061486259568 9.3377034065000188 1 0 0 I I #
vertex $-1 $253 $329 #
point $-1 56.947019767442086 -33.394818292307875 5.3714185147167886 #
vertex $-1 $257 $330 #
point $-1 65.788354074216713 -33.394818292307875 5.3714185147167886 #
vertex $-1 $261 $331 #
point $-1 74.62968838099134 -33.394818292307875 5.3714185147167886 #
straight-curve $-1 -79.523911252174443 37.549061486259568 0 0 0 -1 I I #
point $-1 -79.523911252174443 -37.549061486259568 -9.3377034065000188 #
straight-curve $-1 -79.523911252174443 0 -9.3377034065000188 0 1 0 I I #
point $-1 -79.523911252174443 37.549061486259568 -9.3377034065000188 #
straight-curve $-1 -79.523911252174443 0 -8.8377034065000188 0 -1 0 I I #
point $-1 -79.523911252174443 -37.549061486259568 -8.8377034065000188 #
point $-1 -79.523911252174443 37.549061486259568 -8.8377034065000188 #
straight-curve $-1 -79.523911252174443 37.549061486259568 0 0 0 -1 I I #
straight-curve $-1 -79.523911252174443 -37.549061486259568 0 0 0 -1 I I #
straight-curve $-1 79.523911252174443 0 9.3377034065000188 0 1 0 I I #
point $-1 79.523911252174443 -31.965404519971667 9.3377034065000188 #
straight-curve $-1 79.523911252174443 -37.549061486259568 0 0 0 -1 I I #
point $-1 79.523911252174443 -37.549061486259568 9.3377034065000188 #
point $-1 55.947019767442086 -32.752030674720828 4.6053740782271237 #
point $-1 64.788354074216713 -32.752030674720828 4.6053740782271237 #
point $-1 73.62968838099134 -32.752030674720828 4.6053740782271237 #
End-of-ACIS-data 