500 0 11 0           
7 Unknown 11 ACIS 5.0 NT 24 Fri Mar 26 17:50:54 1999 
-1 9.9999999999999995e-007 1e-010 
body $-1 $11 $-1 $12 #
body $-1 $13 $-1 $14 #
body $-1 $15 $-1 $16 #
body $-1 $17 $-1 $18 #
body $-1 $19 $-1 $20 #
body $-1 $21 $-1 $22 #
body $-1 $23 $-1 $24 #
body $-1 $25 $-1 $26 #
body $-1 $27 $-1 $28 #
body $-1 $29 $-1 $30 #
body $-1 $31 $-1 $32 #
lump $-1 $-1 $33 $0 #
transform $-1 1 0 0 0 1 0 0 0 1 55.171361430707719 24.399693285952779 5.9881897487608411 1 rotate no_reflect no_shear #
lump $-1 $-1 $34 $1 #
transform $-1 1 0 0 0 1 0 0 0 1 55.171361430707719 24.399693285952779 5.9881897487608411 1 rotate no_reflect no_shear #
lump $-1 $-1 $35 $2 #
transform $-1 1 0 0 0 1 0 0 0 1 55.171361430707719 24.399693285952779 5.9881897487608411 1 rotate no_reflect no_shear #
lump $-1 $-1 $36 $3 #
transform $-1 1 0 0 0 1 0 0 0 1 55.171361430707719 24.399693285952779 5.9881897487608411 1 rotate no_reflect no_shear #
lump $-1 $-1 $37 $4 #
transform $-1 1 0 0 0 1 0 0 0 1 55.171361430707719 24.399693285952779 5.9881897487608411 1 rotate no_reflect no_shear #
lump $-1 $-1 $38 $5 #
transform $-1 1 0 0 0 1 0 0 0 1 55.171361430707719 24.399693285952779 5.9881897487608411 1 rotate no_reflect no_shear #
lump $-1 $-1 $39 $6 #
transform $-1 1 0 0 0 1 0 0 0 1 55.171361430707719 24.399693285952779 5.9881897487608411 1 rotate no_reflect no_shear #
lump $-1 $-1 $40 $7 #
transform $-1 1 0 0 0 1 0 0 0 1 55.171361430707719 24.399693285952779 5.9881897487608411 1 rotate no_reflect no_shear #
lump $-1 $-1 $41 $8 #
transform $-1 1 0 0 0 1 0 0 0 1 55.171361430707719 24.399693285952779 5.9881897487608411 1 rotate no_reflect no_shear #
lump $-1 $-1 $42 $9 #
transform $-1 1 0 0 0 1 0 0 0 1 55.171361430707719 24.399693285952779 5.9881897487608411 1 rotate no_reflect no_shear #
lump $-1 $-1 $43 $10 #
transform $-1 1 0 0 0 1 0 0 0 1 55.171361430707719 24.399693285952779 5.9881897487608411 1 rotate no_reflect no_shear #
shell $-1 $-1 $-1 $44 $-1 $11 #
shell $-1 $-1 $-1 $45 $-1 $13 #
shell $-1 $-1 $-1 $46 $-1 $15 #
shell $-1 $-1 $-1 $47 $-1 $17 #
shell $-1 $-1 $-1 $48 $-1 $19 #
shell $-1 $-1 $-1 $49 $-1 $21 #
shell $-1 $-1 $-1 $50 $-1 $23 #
shell $-1 $-1 $-1 $51 $-1 $25 #
shell $-1 $-1 $-1 $52 $-1 $27 #
shell $-1 $-1 $-1 $53 $-1 $29 #
shell $-1 $-1 $-1 $54 $-1 $31 #
face $-1 $55 $56 $33 $-1 $57 forward single #
face $-1 $58 $59 $34 $-1 $60 forward single #
face $-1 $61 $62 $35 $-1 $63 forward single #
face $-1 $64 $65 $36 $-1 $66 reversed single #
face $-1 $67 $68 $37 $-1 $69 forward single #
face $-1 $70 $71 $38 $-1 $72 forward single #
face $-1 $73 $74 $39 $-1 $75 forward single #
face $-1 $76 $77 $40 $-1 $78 reversed single #
face $-1 $79 $80 $41 $-1 $81 forward single #
face $-1 $82 $83 $42 $-1 $84 forward single #
face $-1 $85 $86 $43 $-1 $87 forward single #
face $-1 $88 $89 $33 $-1 $90 reversed single #
loop $-1 $-1 $91 $44 #
plane-surface $-1 0 0 5.9881897487608411 0 0 1 1 0 0 forward_v I I I I #
face $-1 $92 $93 $34 $-1 $94 reversed single #
loop $-1 $-1 $95 $45 #
plane-surface $-1 -55.171361430707719 0 0 1 0 0 0 0 -1 forward_v I I I I #
face $-1 $96 $97 $35 $-1 $98 forward single #
loop $-1 $-1 $99 $46 #
plane-surface $-1 55.171361430707719 0 0 -1 0 0 0 0 1 forward_v I I I I #
face $-1 $100 $101 $36 $-1 $102 reversed single #
loop $-1 $-1 $103 $47 #
plane-surface $-1 -41.872702785010986 65.94684963263721 113.36391801811801 1 0 0 0 -0.69465837861970381 -0.71933979245794832 forward_v I I I I #
face $-1 $104 $105 $37 $-1 $106 forward single #
loop $-1 $107 $108 $48 #
cone-surface $-1 -38.045712133455808 20.606361530029961 2.273327231452368 0 -0.69465837861970381 -0.71933979245794832 1 0 0 1 I I 0 1 1 forward I I I I #
face $-1 $109 $110 $38 $-1 $111 forward single #
loop $-1 $112 $113 $49 #
cone-surface $-1 -32.305226156123041 20.606361530029961 2.273327231452368 0 -0.69465837861970381 -0.71933979245794832 1 0 0 1 I I 0 1 1 forward I I I I #
face $-1 $114 $115 $39 $-1 $116 forward single #
loop $-1 $117 $118 $50 #
cone-surface $-1 -26.564740178790274 20.606361530029961 2.273327231452368 0 -0.69465837861970381 -0.71933979245794832 1 0 0 1 I I 0 1 1 forward I I I I #
face $-1 $119 $120 $40 $-1 $121 reversed single #
loop $-1 $-1 $122 $51 #
plane-surface $-1 22.737749527235092 65.94684963263721 113.36391801811801 1 0 0 0 -0.69465837861970381 -0.71933979245794832 forward_v I I I I #
face $-1 $123 $124 $41 $-1 $125 forward single #
loop $-1 $126 $127 $52 #
cone-surface $-1 26.564740178790274 20.606361530029961 2.273327231452368 0 -0.69465837861970381 -0.71933979245794832 1 0 0 1 I I 0 1 1 forward I I I I #
face $-1 $128 $129 $42 $-1 $130 forward single #
loop $-1 $131 $132 $53 #
cone-surface $-1 32.305226156123041 20.606361530029961 2.273327231452368 0 -0.69465837861970381 -0.71933979245794832 1 0 0 1 I I 0 1 1 forward I I I I #
face $-1 $133 $134 $43 $-1 $135 forward single #
loop $-1 $136 $137 $54 #
cone-surface $-1 38.045712133455808 20.606361530029961 2.273327231452368 0 -0.69465837861970381 -0.71933979245794832 1 0 0 1 I I 0 1 1 forward I I I I #
face $-1 $138 $139 $33 $-1 $140 reversed single #
loop $-1 $-1 $141 $55 #
plane-surface $-1 0 0 -5.9881897487608411 0 0 1 1 0 0 forward_v I I I I #
coedge $-1 $142 $143 $144 $145 forward $56 $-1 #
face $-1 $146 $147 $34 $-1 $148 reversed single #
loop $-1 $-1 $149 $58 #
plane-surface $-1 0 24.399693285952779 0 0 -1 0 0 0 -1 forward_v I I I I #
coedge $-1 $150 $151 $152 $153 forward $59 $-1 #
face $-1 $154 $155 $35 $-1 $156 reversed single #
loop $-1 $-1 $157 $61 #
plane-surface $-1 0 0 5.9881897487608411 0 0 1 1 0 0 forward_v I I I I #
coedge $-1 $158 $159 $160 $161 forward $62 $-1 #
face $-1 $162 $163 $36 $-1 $164 reversed single #
loop $-1 $-1 $165 $64 #
plane-surface $-1 -32.305226156123041 -10.703647322756964 33.990006655742519 0 0.69465837861970381 0.71933979245794832 1 0 0 forward_v I I I I #
coedge $-1 $166 $167 $168 $169 reversed $65 $-1 #
face $-1 $-1 $170 $37 $-1 $171 forward single #
loop $-1 $172 $173 $67 #
cone-surface $-1 -38.045712133455808 19.519006094115966 1.1473377412621035 0 -0.69465837861970381 -0.71933979245794832 0.5 0 0 1 I I -0.70710678118654746 0.70710678118654746 0.5 forward I I I I #
loop $-1 $-1 $174 $48 #
coedge $-1 $108 $108 $175 $176 reversed $68 $-1 #
face $-1 $-1 $177 $38 $-1 $178 forward single #
loop $-1 $179 $180 $70 #
cone-surface $-1 -32.305226156123041 19.519006094115966 1.1473377412621035 0 -0.69465837861970381 -0.71933979245794832 0.5 0 0 1 I I -0.70710678118654746 0.70710678118654746 0.5 forward I I I I #
loop $-1 $-1 $181 $49 #
coedge $-1 $113 $113 $182 $183 reversed $71 $-1 #
face $-1 $-1 $184 $39 $-1 $185 forward single #
loop $-1 $186 $187 $73 #
cone-surface $-1 -26.564740178790274 19.519006094115966 1.1473377412621035 0 -0.69465837861970381 -0.71933979245794832 0.5 0 0 1 I I -0.70710678118654746 0.70710678118654746 0.5 forward I I I I #
loop $-1 $-1 $188 $50 #
coedge $-1 $118 $118 $189 $190 reversed $74 $-1 #
face $-1 $191 $192 $40 $-1 $193 reversed single #
loop $-1 $-1 $194 $76 #
plane-surface $-1 32.305226156123041 -10.703647322756964 33.990006655742519 0 0.69465837861970381 0.71933979245794832 1 0 0 forward_v I I I I #
coedge $-1 $195 $196 $197 $198 reversed $77 $-1 #
face $-1 $-1 $199 $41 $-1 $200 forward single #
loop $-1 $201 $202 $79 #
cone-surface $-1 26.564740178790274 19.519006094115966 1.1473377412621035 0 -0.69465837861970381 -0.71933979245794832 0.5 0 0 1 I I -0.70710678118654746 0.70710678118654746 0.5 forward I I I I #
loop $-1 $-1 $203 $52 #
coedge $-1 $127 $127 $204 $205 reversed $80 $-1 #
face $-1 $-1 $206 $42 $-1 $207 forward single #
loop $-1 $208 $209 $82 #
cone-surface $-1 32.305226156123041 19.519006094115966 1.1473377412621035 0 -0.69465837861970381 -0.71933979245794832 0.5 0 0 1 I I -0.70710678118654746 0.70710678118654746 0.5 forward I I I I #
loop $-1 $-1 $210 $53 #
coedge $-1 $132 $132 $211 $212 reversed $83 $-1 #
face $-1 $-1 $213 $43 $-1 $214 forward single #
loop $-1 $215 $216 $85 #
cone-surface $-1 38.045712133455808 19.519006094115966 1.1473377412621035 0 -0.69465837861970381 -0.71933979245794832 0.5 0 0 1 I I -0.70710678118654746 0.70710678118654746 0.5 forward I I I I #
loop $-1 $-1 $217 $54 #
coedge $-1 $137 $137 $218 $219 reversed $86 $-1 #
face $-1 $220 $221 $33 $-1 $222 reversed single #
loop $-1 $-1 $223 $88 #
plane-surface $-1 0 -24.399693285952779 0 0 1 0 0 0 1 forward_v I I I I #
coedge $-1 $224 $225 $226 $227 forward $89 $-1 #
coedge $-1 $228 $91 $229 $230 forward $56 $-1 #
coedge $-1 $91 $228 $231 $232 forward $56 $-1 #
coedge $-1 $233 $234 $91 $145 reversed $235 $-1 #
edge $-1 $236 -24.399693285952779 $237 24.399693285952779 $144 $238 forward 7 unknown #
face $-1 $239 $240 $34 $-1 $241 reversed single #
loop $-1 $-1 $152 $92 #
plane-surface $-1 -58.942100776196156 0 2.9881897487608411 0 0 1 1 0 0 forward_v I I I I #
coedge $-1 $242 $243 $150 $244 forward $93 $-1 #
coedge $-1 $245 $95 $149 $244 reversed $59 $-1 #
coedge $-1 $95 $245 $246 $247 reversed $59 $-1 #
coedge $-1 $248 $249 $95 $153 reversed $147 $-1 #
edge $-1 $250 -24.399693285952779 $251 24.399693285952779 $152 $252 forward 7 unknown #
face $-1 $253 $254 $35 $-1 $255 reversed single #
loop $-1 $-1 $256 $96 #
plane-surface $-1 0 -24.399693285952779 0 0 1 0 0 0 1 forward_v I I I I #
coedge $-1 $257 $258 $259 $260 forward $97 $-1 #
coedge $-1 $259 $99 $256 $261 reversed $62 $-1 #
coedge $-1 $99 $259 $262 $263 reversed $62 $-1 #
coedge $-1 $264 $265 $99 $161 reversed $254 $-1 #
edge $-1 $266 -24.399693285952779 $267 24.399693285952779 $160 $268 forward 7 unknown #
face $-1 $269 $270 $36 $-1 $271 reversed single #
loop $-1 $-1 $272 $100 #
plane-surface $-1 -22.737749527235092 65.94684963263721 113.36391801811801 -1 0 0 0 0.69465837861970381 0.71933979245794832 forward_v I I I I #
coedge $-1 $273 $274 $275 $276 reversed $101 $-1 #
coedge $-1 $167 $103 $277 $278 reversed $65 $-1 #
coedge $-1 $103 $166 $273 $279 reversed $65 $-1 #
coedge $-1 $275 $280 $103 $169 forward $281 $-1 #
edge $-1 $282 8.5737315303658264 $283 14.680342549003189 $168 $284 forward 7 unknown #
loop $-1 $-1 $175 $104 #
plane-surface $-1 -32.305226156123041 -10.703647322756964 33.990006655742519 0 0.69465837861970381 0.71933979245794832 1 0 0 forward_v I I I I #
loop $-1 $-1 $285 $67 #
coedge $-1 $173 $173 $174 $286 reversed $105 $-1 #
coedge $-1 $174 $174 $173 $286 forward $107 $-1 #
coedge $-1 $175 $175 $108 $176 forward $170 $-1 #
edge $-1 $287 -3.5392259128809776e-016 $287 6.2831853071796004 $175 $288 forward 7 unknown #
loop $-1 $-1 $182 $109 #
plane-surface $-1 -32.305226156123041 -10.703647322756964 33.990006655742519 0 0.69465837861970381 0.71933979245794832 1 0 0 forward_v I I I I #
loop $-1 $-1 $289 $70 #
coedge $-1 $180 $180 $181 $290 reversed $110 $-1 #
coedge $-1 $181 $181 $180 $290 forward $112 $-1 #
coedge $-1 $182 $182 $113 $183 forward $177 $-1 #
edge $-1 $291 -3.5392259128809776e-016 $291 6.2831853071796004 $182 $292 forward 7 unknown #
loop $-1 $-1 $189 $114 #
plane-surface $-1 -32.305226156123041 -10.703647322756964 33.990006655742519 0 0.69465837861970381 0.71933979245794832 1 0 0 forward_v I I I I #
loop $-1 $-1 $293 $73 #
coedge $-1 $187 $187 $188 $294 reversed $115 $-1 #
coedge $-1 $188 $188 $187 $294 forward $117 $-1 #
coedge $-1 $189 $189 $118 $190 forward $184 $-1 #
edge $-1 $295 -3.5392259128809776e-016 $295 6.2831853071796004 $189 $296 forward 7 unknown #
face $-1 $297 $298 $40 $-1 $299 forward single #
loop $-1 $-1 $300 $119 #
plane-surface $-1 41.872702785010986 65.94684963263721 113.36391801811801 -1 0 0 0 0.69465837861970381 0.71933979245794832 forward_v I I I I #
coedge $-1 $301 $302 $303 $304 reversed $120 $-1 #
coedge $-1 $196 $122 $305 $306 reversed $77 $-1 #
coedge $-1 $122 $195 $301 $307 reversed $77 $-1 #
coedge $-1 $303 $308 $122 $198 forward $298 $-1 #
edge $-1 $309 8.5737315303658264 $310 14.680342549003189 $197 $311 forward 7 unknown #
loop $-1 $-1 $204 $123 #
plane-surface $-1 32.305226156123041 -10.703647322756964 33.990006655742519 0 0.69465837861970381 0.71933979245794832 1 0 0 forward_v I I I I #
loop $-1 $-1 $312 $79 #
coedge $-1 $202 $202 $203 $313 reversed $124 $-1 #
coedge $-1 $203 $203 $202 $313 forward $126 $-1 #
coedge $-1 $204 $204 $127 $205 forward $199 $-1 #
edge $-1 $314 -3.5392259128809776e-016 $314 6.2831853071796004 $204 $315 forward 7 unknown #
loop $-1 $-1 $211 $128 #
plane-surface $-1 32.305226156123041 -10.703647322756964 33.990006655742519 0 0.69465837861970381 0.71933979245794832 1 0 0 forward_v I I I I #
loop $-1 $-1 $316 $82 #
coedge $-1 $209 $209 $210 $317 reversed $129 $-1 #
coedge $-1 $210 $210 $209 $317 forward $131 $-1 #
coedge $-1 $211 $211 $132 $212 forward $206 $-1 #
edge $-1 $318 -3.5392259128809776e-016 $318 6.2831853071796004 $211 $319 forward 7 unknown #
loop $-1 $-1 $218 $133 #
plane-surface $-1 32.305226156123041 -10.703647322756964 33.990006655742519 0 0.69465837861970381 0.71933979245794832 1 0 0 forward_v I I I I #
loop $-1 $-1 $320 $85 #
coedge $-1 $216 $216 $217 $321 reversed $134 $-1 #
coedge $-1 $217 $217 $216 $321 forward $136 $-1 #
coedge $-1 $218 $218 $137 $219 forward $213 $-1 #
edge $-1 $322 -3.5392259128809776e-016 $322 6.2831853071796004 $218 $323 forward 7 unknown #
face $-1 $324 $325 $33 $-1 $326 reversed single #
loop $-1 $-1 $327 $138 #
plane-surface $-1 -55.171361430707719 0 0 1 0 0 0 0 -1 forward_v I I I I #
coedge $-1 $328 $231 $329 $330 forward $139 $-1 #
coedge $-1 $331 $141 $328 $332 forward $89 $-1 #
coedge $-1 $141 $331 $333 $334 forward $89 $-1 #
coedge $-1 $234 $233 $141 $227 reversed $235 $-1 #
edge $-1 $335 -24.399693285952779 $336 24.399693285952779 $226 $337 forward 7 unknown #
coedge $-1 $143 $142 $338 $339 forward $56 $-1 #
coedge $-1 $340 $341 $142 $230 reversed $325 $-1 #
edge $-1 $237 -55.171361430707719 $342 55.171361430707719 $229 $343 forward 7 unknown #
coedge $-1 $223 $344 $143 $232 reversed $139 $-1 #
edge $-1 $345 -55.171361430707719 $236 55.171361430707719 $231 $346 forward 7 unknown #
coedge $-1 $226 $144 $344 $347 forward $235 $-1 #
coedge $-1 $144 $226 $340 $348 reversed $235 $-1 #
loop $-1 $-1 $233 $324 #
vertex $-1 $145 $349 #
vertex $-1 $145 $350 #
straight-curve $-1 55.171361430707719 0 5.9881897487608411 0 1 0 I I #
face $-1 $351 $352 $34 $-1 $353 forward single #
loop $-1 $-1 $354 $146 #
plane-surface $-1 -62.712840121684593 0 4.4881897487608411 1 0 0 0 0 -1 forward_v I I I I #
coedge $-1 $355 $149 $249 $356 reversed $93 $-1 #
coedge $-1 $149 $355 $357 $358 reversed $93 $-1 #
edge $-1 $359 -5.9881897487608411 $251 -2.9881897487608411 $149 $360 forward 7 unknown #
coedge $-1 $151 $150 $361 $362 reversed $59 $-1 #
coedge $-1 $363 $364 $151 $247 forward $365 $-1 #
edge $-1 $250 2.9881897487608411 $366 5.9881897487608411 $246 $367 forward 7 unknown #
coedge $-1 $368 $152 $364 $369 forward $147 $-1 #
coedge $-1 $152 $368 $242 $356 forward $147 $-1 #
vertex $-1 $247 $370 #
vertex $-1 $244 $371 #
straight-curve $-1 -55.171361430707719 0 2.9881897487608411 0 1 0 I I #
face $-1 $372 $373 $35 $-1 $374 reversed single #
loop $-1 $-1 $375 $154 #
plane-surface $-1 58.942100776196156 0 2.9881897487608411 0 0 1 1 0 0 forward_v I I I I #
coedge $-1 $376 $377 $158 $261 forward $155 $-1 #
coedge $-1 $378 $157 $377 $379 forward $97 $-1 #
coedge $-1 $157 $378 $380 $381 forward $97 $-1 #
coedge $-1 $159 $158 $157 $260 reversed $62 $-1 #
edge $-1 $382 -24.399693285952779 $383 24.399693285952779 $157 $384 forward 7 unknown #
edge $-1 $383 -5.9881897487608411 $267 -2.9881897487608411 $256 $385 forward 7 unknown #
coedge $-1 $380 $386 $159 $263 forward $387 $-1 #
edge $-1 $266 2.9881897487608411 $382 5.9881897487608411 $262 $388 forward 7 unknown #
coedge $-1 $375 $160 $386 $389 forward $254 $-1 #
coedge $-1 $160 $375 $376 $390 forward $254 $-1 #
vertex $-1 $263 $391 #
vertex $-1 $261 $392 #
straight-curve $-1 55.171361430707719 0 2.9881897487608411 0 -1 0 I I #
face $-1 $-1 $281 $36 $-1 $393 forward single #
loop $-1 $-1 $394 $162 #
plane-surface $-1 0 24.399693285952779 0 0 -1 0 0 0 -1 forward_v I I I I #
coedge $-1 $395 $396 $397 $398 reversed $163 $-1 #
coedge $-1 $399 $165 $167 $279 forward $101 $-1 #
coedge $-1 $165 $399 $395 $400 forward $101 $-1 #
coedge $-1 $397 $168 $165 $276 forward $281 $-1 #
edge $-1 $283 -25.720089706949466 $401 -6.5851364491735715 $275 $402 forward 7 unknown #
coedge $-1 $403 $404 $166 $278 forward $270 $-1 #
edge $-1 $405 -56.590855106992557 $282 -50.693769260298168 $277 $406 forward 7 unknown #
edge $-1 $283 40.310198176291621 $405 48.799386571905572 $167 $407 forward 7 unknown #
coedge $-1 $168 $397 $403 $408 forward $281 $-1 #
loop $-1 $-1 $397 $269 #
vertex $-1 $278 $409 #
vertex $-1 $169 $410 #
straight-curve $-1 -41.872702785010986 32.973424816318605 5.9881897487608384 0 -1 0 I I #
coedge $-1 $285 $285 $-1 $411 reversed $172 $-1 #
edge $-1 $412 0 $412 6.2831853071796004 $173 $413 forward 7 unknown #
vertex $-1 $176 $414 #
ellipse-curve $-1 -38.045712133455808 21.346387776634096 3.0396468254136471 0 0.69465837861970381 0.71933979245794832 1 0 0 1 I I #
coedge $-1 $289 $289 $-1 $415 reversed $179 $-1 #
edge $-1 $416 0 $416 6.2831853071796004 $180 $417 forward 7 unknown #
vertex $-1 $183 $418 #
ellipse-curve $-1 -32.305226156123041 21.346387776634096 3.0396468254136471 0 0.69465837861970381 0.71933979245794832 1 0 0 1 I I #
coedge $-1 $293 $293 $-1 $419 reversed $186 $-1 #
edge $-1 $420 0 $420 6.2831853071796004 $187 $421 forward 7 unknown #
vertex $-1 $190 $422 #
ellipse-curve $-1 -26.564740178790274 21.346387776634096 3.0396468254136471 0 0.69465837861970381 0.71933979245794832 1 0 0 1 I I #
face $-1 $-1 $423 $40 $-1 $424 reversed single #
loop $-1 $-1 $197 $191 #
plane-surface $-1 0 0 5.9881897487608411 0 0 1 1 0 0 forward_v I I I I #
coedge $-1 $425 $426 $427 $428 reversed $192 $-1 #
coedge $-1 $429 $194 $196 $307 forward $120 $-1 #
coedge $-1 $194 $429 $425 $430 forward $120 $-1 #
coedge $-1 $427 $197 $194 $304 forward $298 $-1 #
edge $-1 $310 6.5851364491735715 $431 25.720089706949466 $303 $432 forward 7 unknown #
coedge $-1 $433 $434 $195 $306 forward $423 $-1 #
edge $-1 $435 -56.590855106992557 $309 -50.693769260298168 $305 $436 forward 7 unknown #
edge $-1 $310 40.310198176291621 $435 48.799386571905572 $196 $437 forward 7 unknown #
coedge $-1 $197 $427 $433 $438 forward $298 $-1 #
vertex $-1 $198 $439 #
vertex $-1 $198 $440 #
straight-curve $-1 22.737749527235092 32.973424816318605 5.9881897487608384 0 -1 0 I I #
coedge $-1 $312 $312 $-1 $441 reversed $201 $-1 #
edge $-1 $442 0 $442 6.2831853071796004 $202 $443 forward 7 unknown #
vertex $-1 $205 $444 #
ellipse-curve $-1 26.564740178790274 21.346387776634096 3.0396468254136471 0 0.69465837861970381 0.71933979245794832 1 0 0 1 I I #
coedge $-1 $316 $316 $-1 $445 reversed $208 $-1 #
edge $-1 $446 0 $446 6.2831853071796004 $209 $447 forward 7 unknown #
vertex $-1 $212 $448 #
ellipse-curve $-1 32.305226156123041 21.346387776634096 3.0396468254136471 0 0.69465837861970381 0.71933979245794832 1 0 0 1 I I #
coedge $-1 $320 $320 $-1 $449 reversed $215 $-1 #
edge $-1 $450 0 $450 6.2831853071796004 $216 $451 forward 7 unknown #
vertex $-1 $219 $452 #
ellipse-curve $-1 38.045712133455808 21.346387776634096 3.0396468254136471 0 0.69465837861970381 0.71933979245794832 1 0 0 1 I I #
face $-1 $-1 $235 $33 $-1 $453 reversed single #
loop $-1 $-1 $340 $220 #
plane-surface $-1 0 24.399693285952779 0 0 -1 0 0 0 -1 forward_v I I I I #
coedge $-1 $454 $338 $341 $455 forward $221 $-1 #
coedge $-1 $344 $223 $224 $332 reversed $139 $-1 #
coedge $-1 $338 $454 $223 $330 reversed $221 $-1 #
edge $-1 $345 -5.9881897487608411 $456 5.9881897487608411 $329 $457 forward 7 unknown #
coedge $-1 $225 $224 $454 $458 forward $89 $-1 #
edge $-1 $336 -55.171361430707719 $456 55.171361430707719 $328 $459 forward 7 unknown #
coedge $-1 $341 $340 $225 $334 reversed $325 $-1 #
edge $-1 $460 -55.171361430707719 $335 55.171361430707719 $333 $461 forward 7 unknown #
vertex $-1 $227 $462 #
vertex $-1 $347 $463 #
straight-curve $-1 55.171361430707719 0 -5.9881897487608411 0 -1 0 I I #
coedge $-1 $327 $329 $228 $339 reversed $221 $-1 #
edge $-1 $342 -24.399693285952779 $345 24.399693285952779 $338 $464 forward 7 unknown #
coedge $-1 $333 $229 $234 $348 forward $325 $-1 #
coedge $-1 $229 $333 $327 $455 reversed $325 $-1 #
vertex $-1 $230 $465 #
straight-curve $-1 0 24.399693285952779 5.9881897487608411 -1 0 0 I I #
coedge $-1 $231 $328 $233 $347 reversed $139 $-1 #
vertex $-1 $339 $466 #
straight-curve $-1 0 -24.399693285952779 5.9881897487608411 1 0 0 I I #
edge $-1 $236 -5.9881897487608411 $336 5.9881897487608411 $233 $467 forward 7 unknown #
edge $-1 $237 -5.9881897487608411 $335 5.9881897487608411 $234 $468 forward 7 unknown #
point $-1 55.171361430707719 -24.399693285952779 5.9881897487608411 #
point $-1 55.171361430707719 24.399693285952779 5.9881897487608411 #
face $-1 $-1 $365 $34 $-1 $469 reversed single #
loop $-1 $-1 $361 $239 #
plane-surface $-1 0 0 5.9881897487608411 0 0 1 1 0 0 forward_v I I I I #
coedge $-1 $470 $471 $355 $472 forward $240 $-1 #
coedge $-1 $243 $242 $354 $472 reversed $93 $-1 #
edge $-1 $473 -3.7707393454884368 $251 3.7707393454884368 $242 $474 forward 7 unknown #
coedge $-1 $475 $361 $243 $358 forward $352 $-1 #
edge $-1 $359 55.171361430707719 $476 62.712840121684593 $243 $477 forward 7 unknown #
vertex $-1 $358 $478 #
straight-curve $-1 -55.171361430707719 24.399693285952779 0 0 0 -1 I I #
coedge $-1 $357 $479 $245 $362 forward $352 $-1 #
edge $-1 $366 -24.399693285952779 $359 24.399693285952779 $361 $480 forward 7 unknown #
coedge $-1 $481 $246 $479 $482 reversed $365 $-1 #
coedge $-1 $246 $481 $248 $369 reversed $365 $-1 #
loop $-1 $-1 $246 $351 #
vertex $-1 $247 $483 #
straight-curve $-1 -55.171361430707719 -24.399693285952779 0 0 0 1 I I #
coedge $-1 $249 $248 $470 $484 forward $147 $-1 #
edge $-1 $250 -3.7707393454884368 $485 3.7707393454884368 $364 $486 forward 7 unknown #
point $-1 -55.171361430707719 -24.399693285952779 2.9881897487608411 #
point $-1 -55.171361430707719 24.399693285952779 2.9881897487608411 #
face $-1 $-1 $387 $35 $-1 $487 reversed single #
loop $-1 $-1 $488 $253 #
plane-surface $-1 62.712840121684593 0 4.4881897487608411 -1 0 0 0 0 1 forward_v I I I I #
coedge $-1 $265 $264 $489 $490 forward $254 $-1 #
coedge $-1 $491 $256 $265 $390 reversed $155 $-1 #
coedge $-1 $256 $491 $257 $379 reversed $155 $-1 #
coedge $-1 $258 $257 $492 $493 forward $97 $-1 #
edge $-1 $383 -3.7707393454884368 $494 3.7707393454884368 $377 $495 forward 7 unknown #
coedge $-1 $496 $262 $258 $381 reversed $387 $-1 #
edge $-1 $497 -62.712840121684593 $382 -55.171361430707719 $380 $498 forward 7 unknown #
vertex $-1 $263 $499 #
vertex $-1 $379 $500 #
straight-curve $-1 55.171361430707719 0 5.9881897487608411 0 -1 0 I I #
straight-curve $-1 55.171361430707719 -24.399693285952779 0 0 0 -1 I I #
coedge $-1 $262 $496 $264 $389 reversed $387 $-1 #
loop $-1 $-1 $262 $372 #
straight-curve $-1 55.171361430707719 24.399693285952779 0 0 0 1 I I #
edge $-1 $266 -3.7707393454884368 $501 3.7707393454884368 $386 $502 forward 7 unknown #
edge $-1 $503 -3.7707393454884368 $267 3.7707393454884368 $376 $504 forward 7 unknown #
point $-1 55.171361430707719 24.399693285952779 2.9881897487608411 #
point $-1 55.171361430707719 -24.399693285952779 2.9881897487608411 #
plane-surface $-1 0 0 5.9881897487608411 0 0 1 1 0 0 forward_v I I I I #
coedge $-1 $404 $403 $396 $505 forward $270 $-1 #
coedge $-1 $396 $272 $274 $400 reversed $163 $-1 #
coedge $-1 $272 $395 $394 $505 reversed $163 $-1 #
coedge $-1 $280 $275 $272 $398 forward $281 $-1 #
edge $-1 $401 -14.680342549003189 $506 -8.5737315303658264 $397 $507 forward 7 unknown #
coedge $-1 $274 $273 $404 $508 reversed $101 $-1 #
edge $-1 $509 -48.799386571905572 $401 -40.310198176291621 $395 $510 forward 7 unknown #
vertex $-1 $276 $511 #
straight-curve $-1 -16.15261307806152 18.293082267315413 5.988189748760842 1 0 0 I I #
coedge $-1 $394 $277 $280 $408 reversed $270 $-1 #
coedge $-1 $277 $394 $399 $508 forward $270 $-1 #
vertex $-1 $278 $512 #
straight-curve $-1 -41.872702785010986 24.399693285952779 56.681959009059007 0 0 1 I I #
straight-curve $-1 -41.872702785010986 -10.703647322756964 33.990006655742519 0 0.71933979245794832 -0.69465837861970381 I I #
edge $-1 $506 22.737749527235092 $282 41.872702785010986 $403 $513 forward 7 unknown #
point $-1 -41.872702785010986 24.399693285952779 5.9881897487608411 #
point $-1 -41.872702785010986 18.293082267315416 5.988189748760842 #
edge $-1 $514 1 $514 0 $285 $-1 forward 7 unknown #
vertex $-1 $286 $515 #
ellipse-curve $-1 -38.045712133455808 19.866335283425819 1.5070076374910777 0 0.69465837861970381 0.71933979245794832 1 0 0 1 I I #
point $-1 -37.045712133455808 21.346387776634106 3.0396468254136586 #
edge $-1 $516 1 $516 0 $289 $-1 forward 7 unknown #
vertex $-1 $290 $517 #
ellipse-curve $-1 -32.305226156123041 19.866335283425819 1.5070076374910777 0 0.69465837861970381 0.71933979245794832 1 0 0 1 I I #
point $-1 -31.305226156123041 21.346387776634106 3.0396468254136586 #
edge $-1 $518 1 $518 0 $293 $-1 forward 7 unknown #
vertex $-1 $294 $519 #
ellipse-curve $-1 -26.564740178790274 19.866335283425819 1.5070076374910777 0 0.69465837861970381 0.71933979245794832 1 0 0 1 I I #
point $-1 -25.564740178790274 21.346387776634106 3.0396468254136586 #
loop $-1 $-1 $305 $297 #
plane-surface $-1 0 24.399693285952779 0 0 -1 0 0 0 -1 forward_v I I I I #
coedge $-1 $426 $300 $302 $430 reversed $192 $-1 #
coedge $-1 $300 $425 $520 $521 reversed $192 $-1 #
coedge $-1 $308 $303 $300 $428 forward $298 $-1 #
edge $-1 $431 -14.680342549003189 $522 -8.5737315303658264 $427 $523 forward 7 unknown #
coedge $-1 $302 $301 $434 $524 reversed $120 $-1 #
edge $-1 $525 -48.799386571905572 $431 -40.310198176291621 $425 $526 forward 7 unknown #
vertex $-1 $304 $527 #
straight-curve $-1 16.15261307806152 18.293082267315413 5.988189748760842 1 0 0 I I #
coedge $-1 $520 $305 $308 $438 reversed $423 $-1 #
coedge $-1 $305 $520 $429 $524 forward $423 $-1 #
vertex $-1 $306 $528 #
straight-curve $-1 22.737749527235092 24.399693285952779 56.681959009059007 0 0 1 I I #
straight-curve $-1 22.737749527235092 -10.703647322756964 33.990006655742519 0 0.71933979245794832 -0.69465837861970381 I I #
edge $-1 $522 -41.872702785010986 $309 -22.737749527235092 $433 $529 forward 7 unknown #
point $-1 22.737749527235092 24.399693285952779 5.9881897487608411 #
point $-1 22.737749527235092 18.293082267315416 5.988189748760842 #
edge $-1 $530 1 $530 0 $312 $-1 forward 7 unknown #
vertex $-1 $313 $531 #
ellipse-curve $-1 26.564740178790274 19.866335283425819 1.5070076374910777 0 0.69465837861970381 0.71933979245794832 1 0 0 1 I I #
point $-1 27.564740178790274 21.346387776634106 3.0396468254136586 #
edge $-1 $532 1 $532 0 $316 $-1 forward 7 unknown #
vertex $-1 $317 $533 #
ellipse-curve $-1 32.305226156123041 19.866335283425819 1.5070076374910777 0 0.69465837861970381 0.71933979245794832 1 0 0 1 I I #
point $-1 33.305226156123041 21.346387776634106 3.0396468254136586 #
edge $-1 $534 1 $534 0 $320 $-1 forward 7 unknown #
vertex $-1 $321 $535 #
ellipse-curve $-1 38.045712133455808 19.866335283425819 1.5070076374910777 0 0.69465837861970381 0.71933979245794832 1 0 0 1 I I #
point $-1 39.045712133455808 21.346387776634106 3.0396468254136586 #
plane-surface $-1 55.171361430707719 0 0 -1 0 0 0 0 1 forward_v I I I I #
coedge $-1 $329 $327 $331 $458 reversed $221 $-1 #
edge $-1 $342 -5.9881897487608411 $460 5.9881897487608411 $341 $536 forward 7 unknown #
vertex $-1 $458 $537 #
straight-curve $-1 -55.171361430707719 -24.399693285952779 0 0 0 -1 I I #
edge $-1 $456 -24.399693285952779 $460 24.399693285952779 $454 $538 forward 7 unknown #
straight-curve $-1 0 -24.399693285952779 -5.9881897487608411 -1 0 0 I I #
vertex $-1 $334 $539 #
straight-curve $-1 0 24.399693285952779 -5.9881897487608411 1 0 0 I I #
point $-1 55.171361430707719 24.399693285952779 -5.9881897487608411 #
point $-1 55.171361430707719 -24.399693285952779 -5.9881897487608411 #
straight-curve $-1 -55.171361430707719 0 5.9881897487608411 0 -1 0 I I #
point $-1 -55.171361430707719 24.399693285952779 5.9881897487608411 #
point $-1 -55.171361430707719 -24.399693285952779 5.9881897487608411 #
straight-curve $-1 55.171361430707719 -24.399693285952779 0 0 0 -1 I I #
straight-curve $-1 55.171361430707719 24.399693285952779 0 0 0 -1 I I #
plane-surface $-1 0 -24.399693285952779 0 0 1 0 0 0 1 forward_v I I I I #
coedge $-1 $540 $354 $368 $484 reversed $240 $-1 #
coedge $-1 $354 $540 $475 $541 reversed $240 $-1 #
edge $-1 $476 -1.5 $473 1.5 $355 $542 forward 7 unknown #
vertex $-1 $356 $543 #
straight-curve $-1 -58.942100776196156 24.399693285952779 2.9881897487608411 1 0 0 I I #
coedge $-1 $479 $357 $471 $541 forward $352 $-1 #
vertex $-1 $358 $544 #
straight-curve $-1 0 24.399693285952779 5.9881897487608411 -1 0 0 I I #
point $-1 -55.171361430707719 24.399693285952779 5.9881897487608411 #
coedge $-1 $361 $475 $363 $482 forward $352 $-1 #
straight-curve $-1 -55.171361430707719 0 5.9881897487608411 0 1 0 I I #
coedge $-1 $364 $363 $540 $545 forward $365 $-1 #
edge $-1 $546 -62.712840121684593 $366 -55.171361430707719 $363 $547 forward 7 unknown #
point $-1 -55.171361430707719 -24.399693285952779 5.9881897487608411 #
edge $-1 $485 -24.399693285952779 $473 24.399693285952779 $470 $548 forward 7 unknown #
vertex $-1 $484 $549 #
straight-curve $-1 -58.942100776196156 -24.399693285952779 2.9881897487608411 -1 0 0 I I #
plane-surface $-1 0 24.399693285952779 0 0 -1 0 0 0 -1 forward_v I I I I #
coedge $-1 $489 $492 $491 $550 forward $373 $-1 #
coedge $-1 $551 $488 $375 $490 reversed $373 $-1 #
edge $-1 $501 -24.399693285952779 $503 24.399693285952779 $489 $552 forward 7 unknown #
coedge $-1 $377 $376 $488 $550 reversed $155 $-1 #
coedge $-1 $488 $551 $378 $493 reversed $373 $-1 #
edge $-1 $494 -24.399693285952779 $497 24.399693285952779 $492 $553 forward 7 unknown #
vertex $-1 $493 $554 #
straight-curve $-1 58.942100776196156 -24.399693285952779 5.9881897487608411 1 0 0 I I #
coedge $-1 $386 $380 $551 $555 forward $387 $-1 #
vertex $-1 $493 $556 #
straight-curve $-1 0 24.399693285952779 5.9881897487608411 -1 0 0 I I #
point $-1 55.171361430707719 24.399693285952779 5.9881897487608411 #
point $-1 55.171361430707719 -24.399693285952779 5.9881897487608411 #
vertex $-1 $490 $557 #
straight-curve $-1 58.942100776196156 24.399693285952779 2.9881897487608411 1 0 0 I I #
vertex $-1 $550 $558 #
straight-curve $-1 58.942100776196156 -24.399693285952779 2.9881897487608411 -1 0 0 I I #
edge $-1 $506 50.693769260298168 $509 56.590855106992557 $394 $559 forward 7 unknown #
vertex $-1 $408 $560 #
straight-curve $-1 -22.737749527235092 32.973424816318605 5.9881897487608384 0 1 0 I I #
edge $-1 $509 6.5851364491735715 $405 25.720089706949466 $404 $561 forward 7 unknown #
vertex $-1 $508 $562 #
straight-curve $-1 -22.737749527235092 -10.703647322756964 33.990006655742519 0 -0.71933979245794832 0.69465837861970381 I I #
point $-1 -22.737749527235092 18.293082267315416 5.988189748760842 #
point $-1 -41.872702785010986 24.399693285952779 0.09110390206645036 #
straight-curve $-1 0 24.399693285952779 5.9881897487608411 -1 0 0 I I #
vertex $-1 $411 $563 #
point $-1 -37.045712133455808 19.866335283425819 1.5070076374910777 #
vertex $-1 $415 $564 #
point $-1 -31.305226156123041 19.866335283425819 1.5070076374910777 #
vertex $-1 $419 $565 #
point $-1 -25.564740178790274 19.866335283425819 1.5070076374910777 #
coedge $-1 $434 $433 $426 $521 forward $423 $-1 #
edge $-1 $522 50.693769260298168 $525 56.590855106992557 $520 $566 forward 7 unknown #
vertex $-1 $438 $567 #
straight-curve $-1 41.872702785010986 32.973424816318605 5.9881897487608384 0 1 0 I I #
edge $-1 $525 -25.720089706949466 $435 -6.5851364491735715 $434 $568 forward 7 unknown #
vertex $-1 $524 $569 #
straight-curve $-1 41.872702785010986 -10.703647322756964 33.990006655742519 0 -0.71933979245794832 0.69465837861970381 I I #
point $-1 41.872702785010986 18.293082267315416 5.988189748760842 #
point $-1 22.737749527235092 24.399693285952779 0.09110390206645036 #
straight-curve $-1 0 24.399693285952779 5.9881897487608411 -1 0 0 I I #
vertex $-1 $441 $570 #
point $-1 27.564740178790274 19.866335283425819 1.5070076374910777 #
vertex $-1 $445 $571 #
point $-1 33.305226156123041 19.866335283425819 1.5070076374910777 #
vertex $-1 $449 $572 #
point $-1 39.045712133455808 19.866335283425819 1.5070076374910777 #
straight-curve $-1 -55.171361430707719 24.399693285952779 0 0 0 -1 I I #
point $-1 -55.171361430707719 -24.399693285952779 -5.9881897487608411 #
straight-curve $-1 -55.171361430707719 0 -5.9881897487608411 0 1 0 I I #
point $-1 -55.171361430707719 24.399693285952779 -5.9881897487608411 #
coedge $-1 $471 $470 $481 $545 reversed $240 $-1 #
edge $-1 $476 -24.399693285952779 $546 24.399693285952779 $471 $573 forward 7 unknown #
straight-curve $-1 -62.712840121684593 24.399693285952779 4.4881897487608411 0 0 -1 I I #
point $-1 -62.712840121684593 24.399693285952779 2.9881897487608411 #
point $-1 -62.712840121684593 24.399693285952779 5.9881897487608411 #
edge $-1 $546 -1.5 $485 1.5 $540 $574 forward 7 unknown #
vertex $-1 $541 $575 #
straight-curve $-1 0 -24.399693285952779 5.9881897487608411 1 0 0 I I #
straight-curve $-1 -62.712840121684593 0 2.9881897487608411 0 1 0 I I #
point $-1 -62.712840121684593 -24.399693285952779 2.9881897487608411 #
edge $-1 $494 -1.5 $503 1.5 $488 $576 forward 7 unknown #
coedge $-1 $492 $489 $496 $555 reversed $373 $-1 #
straight-curve $-1 62.712840121684593 0 2.9881897487608411 0 -1 0 I I #
straight-curve $-1 62.712840121684593 0 5.9881897487608411 0 1 0 I I #
point $-1 62.712840121684593 -24.399693285952779 5.9881897487608411 #
edge $-1 $497 -1.5 $501 1.5 $551 $577 forward 7 unknown #
point $-1 62.712840121684593 24.399693285952779 5.9881897487608411 #
point $-1 62.712840121684593 24.399693285952779 2.9881897487608411 #
point $-1 62.712840121684593 -24.399693285952779 2.9881897487608411 #
straight-curve $-1 -22.737749527235092 24.399693285952779 56.681959009059007 0 0 -1 I I #
point $-1 -22.737749527235092 24.399693285952779 5.9881897487608411 #
straight-curve $-1 -16.15261307806152 24.399693285952775 0.09110390206645036 -1 0 0 I I #
point $-1 -22.737749527235092 24.399693285952779 0.09110390206645036 #
point $-1 -38.045712133455808 19.171676904806112 0.78766784503312937 #
point $-1 -32.305226156123041 19.171676904806112 0.78766784503312937 #
point $-1 -26.564740178790274 19.171676904806112 0.78766784503312937 #
straight-curve $-1 41.872702785010986 24.399693285952779 56.681959009059007 0 0 -1 I I #
point $-1 41.872702785010986 24.399693285952779 5.9881897487608411 #
straight-curve $-1 16.15261307806152 24.399693285952775 0.09110390206645036 -1 0 0 I I #
point $-1 41.872702785010986 24.399693285952779 0.09110390206645036 #
point $-1 26.564740178790274 19.171676904806112 0.78766784503312937 #
point $-1 32.305226156123041 19.171676904806112 0.78766784503312937 #
point $-1 38.045712133455808 19.171676904806112 0.78766784503312937 #
straight-curve $-1 -62.712840121684593 0 5.9881897487608411 0 -1 0 I I #
straight-curve $-1 -62.712840121684593 -24.399693285952779 4.4881897487608411 0 0 -1 I I #
point $-1 -62.712840121684593 -24.399693285952779 5.9881897487608411 #
straight-curve $-1 62.712840121684593 -24.399693285952779 4.4881897487608411 0 0 -1 I I #
straight-curve $-1 62.712840121684593 24.399693285952779 4.4881897487608411 0 0 -1 I I #
End-of-ACIS-data 