500 0 3 0           
7 Unknown 11 ACIS 5.0 NT 24 Fri Mar 26 01:23:40 1999 
-1 9.9999999999999995e-007 1e-010 
body $-1 $3 $-1 $4 #
body $-1 $5 $-1 $6 #
body $-1 $7 $-1 $8 #
lump $-1 $-1 $9 $0 #
transform $-1 1 0 0 0 1 0 0 0 1 63.632312997833182 39.299900650036612 13.778532934284057 1 rotate no_reflect no_shear #
lump $-1 $-1 $10 $1 #
transform $-1 1 0 0 0 1 0 0 0 1 63.632312997833182 39.299900650036612 13.778532934284057 1 rotate no_reflect no_shear #
lump $-1 $-1 $11 $2 #
transform $-1 1 0 0 0 1 0 0 0 1 63.632312997833182 39.299900650036612 13.778532934284057 1 rotate no_reflect no_shear #
shell $-1 $-1 $-1 $12 $-1 $3 #
shell $-1 $-1 $-1 $13 $-1 $5 #
shell $-1 $-1 $-1 $14 $-1 $7 #
face $-1 $15 $16 $9 $-1 $17 forward single #
face $-1 $18 $19 $10 $-1 $20 forward single #
face $-1 $21 $22 $11 $-1 $23 reversed single #
face $-1 $24 $25 $9 $-1 $26 reversed single #
loop $-1 $-1 $27 $12 #
plane-surface $-1 0 0 13.778532934284057 0 0 1 1 0 0 forward_v I I I I #
face $-1 $28 $29 $10 $-1 $30 forward single #
loop $-1 $-1 $31 $13 #
plane-surface $-1 0 -39.299900650036612 0 0 1 0 0 0 1 forward_v I I I I #
face $-1 $32 $33 $11 $-1 $34 reversed single #
loop $-1 $-1 $35 $14 #
plane-surface $-1 -59.979469046698441 29.278563018337593 0 0 1 0 0 0 1 forward_v I I I I #
face $-1 $36 $37 $9 $-1 $38 reversed single #
loop $-1 $-1 $39 $15 #
plane-surface $-1 0 0 -13.778532934284057 0 0 1 1 0 0 forward_v I I I I #
coedge $-1 $40 $41 $42 $43 forward $16 $-1 #
face $-1 $44 $45 $10 $-1 $46 reversed single #
loop $-1 $-1 $47 $18 #
plane-surface $-1 0 0 13.778532934284057 0 0 1 1 0 0 forward_v I I I I #
coedge $-1 $48 $49 $50 $51 forward $19 $-1 #
face $-1 $52 $53 $11 $-1 $54 reversed single #
loop $-1 $-1 $55 $21 #
plane-surface $-1 -56.326625095563699 34.289231834187099 0 -1 0 0 0 0 1 forward_v I I I I #
coedge $-1 $56 $57 $58 $59 reversed $22 $-1 #
face $-1 $60 $61 $9 $-1 $62 reversed single #
loop $-1 $-1 $63 $24 #
plane-surface $-1 0 -39.299900650036612 0 0 1 0 0 0 1 forward_v I I I I #
coedge $-1 $64 $65 $66 $67 forward $25 $-1 #
coedge $-1 $68 $27 $69 $70 forward $16 $-1 #
coedge $-1 $27 $68 $71 $72 forward $16 $-1 #
coedge $-1 $73 $74 $27 $43 reversed $75 $-1 #
edge $-1 $76 -39.299900650036612 $77 39.299900650036612 $42 $78 forward 7 unknown #
face $-1 $79 $80 $10 $-1 $81 reversed single #
loop $-1 $-1 $82 $28 #
plane-surface $-1 -63.632312997833182 0 0 1 0 0 0 0 -1 forward_v I I I I #
coedge $-1 $83 $84 $85 $86 forward $29 $-1 #
coedge $-1 $85 $31 $82 $87 reversed $19 $-1 #
coedge $-1 $31 $85 $88 $89 reversed $19 $-1 #
coedge $-1 $90 $91 $31 $51 reversed $80 $-1 #
edge $-1 $92 -63.632312997833182 $93 63.632312997833182 $50 $94 forward 7 unknown #
face $-1 $95 $96 $11 $-1 $97 reversed single #
loop $-1 $-1 $98 $32 #
plane-surface $-1 0 39.299900650036612 0 0 -1 0 0 0 -1 forward_v I I I I #
coedge $-1 $99 $100 $101 $102 forward $33 $-1 #
coedge $-1 $101 $35 $103 $104 reversed $22 $-1 #
coedge $-1 $35 $101 $105 $106 reversed $22 $-1 #
coedge $-1 $107 $108 $35 $59 forward $109 $-1 #
edge $-1 $110 -13.778532934284057 $111 13.778532934284057 $58 $112 forward 7 unknown #
face $-1 $113 $114 $9 $-1 $115 reversed single #
loop $-1 $-1 $116 $36 #
plane-surface $-1 -63.632312997833182 0 0 1 0 0 0 0 -1 forward_v I I I I #
coedge $-1 $117 $71 $118 $119 forward $37 $-1 #
coedge $-1 $120 $39 $117 $121 forward $25 $-1 #
coedge $-1 $39 $120 $122 $123 forward $25 $-1 #
coedge $-1 $74 $73 $39 $67 reversed $75 $-1 #
edge $-1 $124 -39.299900650036612 $125 39.299900650036612 $66 $126 forward 7 unknown #
coedge $-1 $41 $40 $127 $128 forward $16 $-1 #
coedge $-1 $129 $130 $40 $70 reversed $114 $-1 #
edge $-1 $77 -63.632312997833182 $131 63.632312997833182 $69 $132 forward 7 unknown #
coedge $-1 $63 $133 $41 $72 reversed $37 $-1 #
edge $-1 $134 -63.632312997833182 $76 63.632312997833182 $71 $135 forward 7 unknown #
coedge $-1 $66 $42 $133 $136 forward $75 $-1 #
coedge $-1 $42 $66 $129 $137 reversed $75 $-1 #
loop $-1 $-1 $73 $113 #
vertex $-1 $43 $138 #
vertex $-1 $43 $139 #
straight-curve $-1 63.632312997833182 0 13.778532934284057 0 1 0 I I #
face $-1 $140 $141 $10 $-1 $142 reversed single #
loop $-1 $-1 $90 $44 #
plane-surface $-1 0 -44.061902415621574 6.715053197856653 0 0 1 1 0 0 forward_v I I I I #
coedge $-1 $143 $144 $48 $87 forward $45 $-1 #
coedge $-1 $145 $47 $144 $146 forward $29 $-1 #
coedge $-1 $47 $145 $147 $148 forward $29 $-1 #
coedge $-1 $49 $48 $47 $86 reversed $19 $-1 #
edge $-1 $149 -63.632312997833182 $150 63.632312997833182 $47 $151 forward 7 unknown #
edge $-1 $150 -13.778532934284057 $93 -6.715053197856653 $82 $152 forward 7 unknown #
coedge $-1 $147 $153 $49 $89 forward $154 $-1 #
edge $-1 $92 6.715053197856653 $149 13.778532934284057 $88 $155 forward 7 unknown #
coedge $-1 $156 $50 $153 $157 forward $80 $-1 #
coedge $-1 $50 $156 $143 $158 forward $80 $-1 #
vertex $-1 $89 $159 #
vertex $-1 $87 $160 #
straight-curve $-1 0 -39.299900650036612 6.715053197856653 -1 0 0 I I #
face $-1 $161 $162 $11 $-1 $163 forward single #
loop $-1 $-1 $164 $52 #
plane-surface $-1 0 0 -13.778532934284057 0 0 1 1 0 0 forward_v I I I I #
coedge $-1 $165 $166 $167 $168 forward $53 $-1 #
coedge $-1 $167 $55 $164 $169 reversed $33 $-1 #
coedge $-1 $55 $167 $170 $171 reversed $33 $-1 #
coedge $-1 $57 $56 $55 $102 reversed $22 $-1 #
edge $-1 $172 -13.778532934284057 $173 13.778532934284057 $55 $174 forward 7 unknown #
coedge $-1 $175 $164 $56 $104 forward $96 $-1 #
edge $-1 $173 26.336890572214479 $110 33.642578474483962 $103 $176 forward 7 unknown #
coedge $-1 $170 $177 $57 $106 forward $162 $-1 #
edge $-1 $111 -33.642578474483962 $172 -26.336890572214479 $105 $178 forward 7 unknown #
coedge $-1 $179 $58 $177 $180 reversed $109 $-1 #
coedge $-1 $58 $179 $175 $181 reversed $109 $-1 #
loop $-1 $-1 $58 $161 #
vertex $-1 $181 $182 #
vertex $-1 $59 $183 #
straight-curve $-1 -63.632312997833182 29.278563018337593 0 0 0 1 I I #
face $-1 $-1 $75 $9 $-1 $184 reversed single #
loop $-1 $-1 $129 $60 #
plane-surface $-1 0 39.299900650036612 0 0 -1 0 0 0 -1 forward_v I I I I #
coedge $-1 $185 $127 $130 $186 forward $61 $-1 #
coedge $-1 $133 $63 $64 $121 reversed $37 $-1 #
coedge $-1 $127 $185 $63 $119 reversed $61 $-1 #
edge $-1 $134 -13.778532934284057 $187 13.778532934284057 $118 $188 forward 7 unknown #
coedge $-1 $65 $64 $185 $189 forward $25 $-1 #
edge $-1 $125 -63.632312997833182 $187 63.632312997833182 $117 $190 forward 7 unknown #
coedge $-1 $130 $129 $65 $123 reversed $114 $-1 #
edge $-1 $191 -63.632312997833182 $124 63.632312997833182 $122 $192 forward 7 unknown #
vertex $-1 $67 $193 #
vertex $-1 $136 $194 #
straight-curve $-1 63.632312997833182 0 -13.778532934284057 0 -1 0 I I #
coedge $-1 $116 $118 $68 $128 reversed $61 $-1 #
edge $-1 $131 -39.299900650036612 $134 39.299900650036612 $127 $195 forward 7 unknown #
coedge $-1 $122 $69 $74 $137 forward $114 $-1 #
coedge $-1 $69 $122 $116 $186 reversed $114 $-1 #
vertex $-1 $70 $196 #
straight-curve $-1 0 39.299900650036612 13.778532934284057 -1 0 0 I I #
coedge $-1 $71 $117 $73 $136 reversed $37 $-1 #
vertex $-1 $128 $197 #
straight-curve $-1 0 -39.299900650036612 13.778532934284057 1 0 0 I I #
edge $-1 $76 -13.778532934284057 $125 13.778532934284057 $73 $198 forward 7 unknown #
edge $-1 $77 -13.778532934284057 $124 13.778532934284057 $74 $199 forward 7 unknown #
point $-1 63.632312997833182 -39.299900650036612 13.778532934284057 #
point $-1 63.632312997833182 39.299900650036612 13.778532934284057 #
face $-1 $-1 $154 $10 $-1 $200 reversed single #
loop $-1 $-1 $201 $79 #
plane-surface $-1 0 -48.823904181206544 10.246793066070355 0 1 0 0 0 1 forward_v I I I I #
coedge $-1 $202 $82 $91 $158 reversed $45 $-1 #
coedge $-1 $82 $202 $83 $146 reversed $45 $-1 #
coedge $-1 $84 $83 $203 $204 forward $29 $-1 #
edge $-1 $150 39.299900650036612 $205 48.823904181206544 $144 $206 forward 7 unknown #
coedge $-1 $207 $88 $84 $148 reversed $154 $-1 #
edge $-1 $208 -48.823904181206544 $149 -39.299900650036612 $147 $209 forward 7 unknown #
vertex $-1 $89 $210 #
vertex $-1 $146 $211 #
straight-curve $-1 0 -39.299900650036612 13.778532934284057 -1 0 0 I I #
straight-curve $-1 -63.632312997833182 -39.299900650036612 0 0 0 -1 I I #
coedge $-1 $88 $207 $90 $157 reversed $154 $-1 #
loop $-1 $-1 $88 $140 #
straight-curve $-1 63.632312997833182 -39.299900650036612 0 0 0 1 I I #
coedge $-1 $91 $90 $212 $213 forward $80 $-1 #
edge $-1 $92 -4.7620017655849693 $214 4.7620017655849693 $153 $215 forward 7 unknown #
edge $-1 $216 -4.7620017655849693 $93 4.7620017655849693 $143 $217 forward 7 unknown #
point $-1 63.632312997833182 -39.299900650036605 6.715053197856653 #
point $-1 -63.632312997833182 -39.299900650036605 6.715053197856653 #
face $-1 $-1 $109 $11 $-1 $218 reversed single #
loop $-1 $-1 $170 $95 #
plane-surface $-1 0 0 13.778532934284057 0 0 1 1 0 0 forward_v I I I I #
coedge $-1 $103 $219 $99 $169 forward $96 $-1 #
coedge $-1 $220 $98 $219 $221 reversed $53 $-1 #
coedge $-1 $98 $220 $222 $223 reversed $53 $-1 #
coedge $-1 $100 $99 $98 $168 reversed $33 $-1 #
edge $-1 $224 -13.778532934284057 $225 13.778532934284057 $98 $226 forward 7 unknown #
edge $-1 $225 -22.155284732943056 $173 -12.133947101244043 $164 $227 forward 7 unknown #
coedge $-1 $222 $105 $100 $171 forward $162 $-1 #
edge $-1 $172 12.133947101244043 $224 22.155284732943056 $170 $228 forward 7 unknown #
vertex $-1 $106 $229 #
vertex $-1 $104 $230 #
straight-curve $-1 -56.326625095563699 29.278563018337593 0 0 0 -1 I I #
coedge $-1 $219 $103 $108 $181 forward $96 $-1 #
straight-curve $-1 -29.98973452334922 29.278563018337593 -13.778532934284057 -1 0 0 I I #
coedge $-1 $105 $222 $107 $180 forward $162 $-1 #
straight-curve $-1 -29.98973452334922 29.278563018337593 13.778532934284057 1 0 0 I I #
coedge $-1 $108 $107 $220 $231 forward $109 $-1 #
edge $-1 $232 -39.299900650036612 $111 -29.278563018337593 $107 $233 forward 7 unknown #
edge $-1 $110 29.278563018337593 $234 39.299900650036612 $108 $235 forward 7 unknown #
point $-1 -63.632312997833182 29.278563018337593 -13.778532934284057 #
point $-1 -63.632312997833182 29.278563018337593 13.778532934284057 #
plane-surface $-1 63.632312997833182 0 0 -1 0 0 0 0 1 forward_v I I I I #
coedge $-1 $118 $116 $120 $189 reversed $61 $-1 #
edge $-1 $131 -13.778532934284057 $191 13.778532934284057 $130 $236 forward 7 unknown #
vertex $-1 $189 $237 #
straight-curve $-1 -63.632312997833182 -39.299900650036612 0 0 0 -1 I I #
edge $-1 $187 -39.299900650036612 $191 39.299900650036612 $185 $238 forward 7 unknown #
straight-curve $-1 0 -39.299900650036612 -13.778532934284057 -1 0 0 I I #
vertex $-1 $123 $239 #
straight-curve $-1 0 39.299900650036612 -13.778532934284057 1 0 0 I I #
point $-1 63.632312997833182 39.299900650036612 -13.778532934284057 #
point $-1 63.632312997833182 -39.299900650036612 -13.778532934284057 #
straight-curve $-1 -63.632312997833182 0 13.778532934284057 0 -1 0 I I #
point $-1 -63.632312997833182 39.299900650036612 13.778532934284057 #
point $-1 -63.632312997833182 -39.299900650036612 13.778532934284057 #
straight-curve $-1 63.632312997833182 -39.299900650036612 0 0 0 -1 I I #
straight-curve $-1 63.632312997833182 39.299900650036612 0 0 0 -1 I I #
plane-surface $-1 63.632312997833182 0 0 -1 0 0 0 0 1 forward_v I I I I #
coedge $-1 $212 $203 $202 $240 forward $141 $-1 #
coedge $-1 $144 $143 $201 $240 reversed $45 $-1 #
coedge $-1 $201 $241 $145 $204 reversed $141 $-1 #
edge $-1 $205 -63.632312997833182 $208 63.632312997833182 $203 $242 forward 7 unknown #
vertex $-1 $146 $243 #
straight-curve $-1 -63.632312997833182 0 13.778532934284057 0 -1 0 I I #
coedge $-1 $153 $147 $241 $244 forward $154 $-1 #
vertex $-1 $148 $245 #
straight-curve $-1 63.632312997833182 0 13.778532934284057 0 1 0 I I #
point $-1 63.632312997833182 -39.299900650036612 13.778532934284057 #
point $-1 -63.632312997833182 -39.299900650036612 13.778532934284057 #
coedge $-1 $241 $201 $156 $213 reversed $141 $-1 #
edge $-1 $214 -63.632312997833182 $216 63.632312997833182 $212 $246 forward 7 unknown #
vertex $-1 $244 $247 #
straight-curve $-1 63.632312997833182 -44.061902415621574 6.715053197856653 0 -1 0 I I #
vertex $-1 $158 $248 #
straight-curve $-1 -63.632312997833182 -44.061902415621574 6.715053197856653 0 1 0 I I #
plane-surface $-1 -63.632312997833182 0 0 1 0 0 0 0 -1 forward_v I I I I #
coedge $-1 $164 $175 $165 $221 forward $96 $-1 #
coedge $-1 $166 $165 $179 $231 reversed $53 $-1 #
edge $-1 $234 -63.632312997833182 $225 -56.326625095563699 $165 $249 forward 7 unknown #
coedge $-1 $177 $170 $166 $223 forward $162 $-1 #
edge $-1 $224 56.326625095563699 $232 63.632312997833182 $166 $250 forward 7 unknown #
vertex $-1 $223 $251 #
vertex $-1 $169 $252 #
straight-curve $-1 -56.326625095563699 39.299900650036612 0 0 0 -1 I I #
straight-curve $-1 -56.326625095563699 17.144615917093549 -13.778532934284057 0 -1 0 I I #
straight-curve $-1 -56.326625095563699 17.144615917093549 13.778532934284057 0 1 0 I I #
point $-1 -56.326625095563699 29.278563018337593 13.778532934284057 #
point $-1 -56.326625095563699 29.278563018337593 -13.778532934284057 #
edge $-1 $232 -13.778532934284057 $234 13.778532934284057 $220 $253 forward 7 unknown #
vertex $-1 $223 $254 #
straight-curve $-1 -63.632312997833182 0 13.778532934284057 0 -1 0 I I #
vertex $-1 $221 $255 #
straight-curve $-1 -63.632312997833182 0 -13.778532934284057 0 1 0 I I #
straight-curve $-1 -63.632312997833182 39.299900650036612 0 0 0 -1 I I #
point $-1 -63.632312997833182 -39.299900650036612 -13.778532934284057 #
straight-curve $-1 -63.632312997833182 0 -13.778532934284057 0 1 0 I I #
point $-1 -63.632312997833182 39.299900650036612 -13.778532934284057 #
edge $-1 $205 -3.5317398682137018 $216 3.5317398682137018 $202 $256 forward 7 unknown #
coedge $-1 $203 $212 $207 $244 reversed $141 $-1 #
straight-curve $-1 0 -48.823904181206544 13.778532934284057 1 0 0 I I #
point $-1 -63.632312997833182 -48.823904181206544 13.778532934284057 #
edge $-1 $208 -3.5317398682137018 $214 3.5317398682137018 $207 $257 forward 7 unknown #
point $-1 63.632312997833182 -48.823904181206544 13.778532934284057 #
straight-curve $-1 0 -48.823904181206544 6.715053197856653 -1 0 0 I I #
point $-1 63.632312997833182 -48.823904181206544 6.715053197856653 #
point $-1 -63.632312997833182 -48.823904181206544 6.715053197856653 #
straight-curve $-1 0 39.299900650036612 -13.778532934284057 1 0 0 I I #
straight-curve $-1 0 39.299900650036612 13.778532934284057 -1 0 0 I I #
point $-1 -56.326625095563699 39.299900650036605 13.778532934284057 #
point $-1 -56.326625095563699 39.299900650036605 -13.778532934284057 #
straight-curve $-1 -63.632312997833182 39.299900650036612 0 0 0 -1 I I #
point $-1 -63.632312997833182 39.299900650036612 13.778532934284057 #
point $-1 -63.632312997833182 39.299900650036612 -13.778532934284057 #
straight-curve $-1 -63.632312997833182 -48.823904181206544 10.246793066070355 0 0 -1 I I #
straight-curve $-1 63.632312997833182 -48.823904181206544 10.246793066070355 0 0 -1 I I #
End-of-ACIS-data 