500 0 17 0           
7 Unknown 11 ACIS 5.0 NT 24 Thu Mar 25 21:28:23 1999 
-1 9.9999999999999995e-007 1e-010 
body $-1 $17 $-1 $18 #
body $-1 $19 $-1 $20 #
body $-1 $21 $-1 $22 #
body $-1 $23 $-1 $24 #
body $-1 $25 $-1 $26 #
body $-1 $27 $-1 $28 #
body $-1 $29 $-1 $30 #
body $-1 $31 $-1 $32 #
body $-1 $33 $-1 $34 #
body $-1 $35 $-1 $36 #
body $-1 $37 $-1 $38 #
body $-1 $39 $-1 $40 #
body $-1 $41 $-1 $42 #
body $-1 $43 $-1 $44 #
body $-1 $45 $-1 $46 #
body $-1 $47 $-1 $48 #
body $-1 $49 $-1 $50 #
lump $-1 $-1 $51 $0 #
transform $-1 1 0 0 0 1 0 0 0 1 56.360362559892579 22.705140230585833 4.9233158925850828 1 rotate no_reflect no_shear #
lump $-1 $-1 $52 $1 #
transform $-1 1 0 0 0 1 0 0 0 1 56.360362559892579 22.705140230585833 4.9233158925850828 1 rotate no_reflect no_shear #
lump $-1 $-1 $53 $2 #
transform $-1 1 0 0 0 1 0 0 0 1 56.360362559892579 22.705140230585833 4.9233158925850828 1 rotate no_reflect no_shear #
lump $-1 $-1 $54 $3 #
transform $-1 1 0 0 0 1 0 0 0 1 56.360362559892579 22.705140230585833 4.9233158925850828 1 rotate no_reflect no_shear #
lump $-1 $-1 $55 $4 #
transform $-1 1 0 0 0 1 0 0 0 1 56.360362559892579 22.705140230585833 4.9233158925850828 1 rotate no_reflect no_shear #
lump $-1 $-1 $56 $5 #
transform $-1 1 0 0 0 1 0 0 0 1 56.360362559892579 22.705140230585833 4.9233158925850828 1 rotate no_reflect no_shear #
lump $-1 $-1 $57 $6 #
transform $-1 1 0 0 0 1 0 0 0 1 56.360362559892579 22.705140230585833 4.9233158925850828 1 rotate no_reflect no_shear #
lump $-1 $-1 $58 $7 #
transform $-1 1 0 0 0 1 0 0 0 1 56.360362559892579 22.705140230585833 4.9233158925850828 1 rotate no_reflect no_shear #
lump $-1 $-1 $59 $8 #
transform $-1 1 0 0 0 1 0 0 0 1 56.360362559892579 22.705140230585833 4.9233158925850828 1 rotate no_reflect no_shear #
lump $-1 $-1 $60 $9 #
transform $-1 1 0 0 0 1 0 0 0 1 56.360362559892579 22.705140230585833 4.9233158925850828 1 rotate no_reflect no_shear #
lump $-1 $-1 $61 $10 #
transform $-1 1 0 0 0 1 0 0 0 1 56.360362559892579 22.705140230585833 4.9233158925850828 1 rotate no_reflect no_shear #
lump $-1 $-1 $62 $11 #
transform $-1 1 0 0 0 1 0 0 0 1 56.360362559892579 22.705140230585833 4.9233158925850828 1 rotate no_reflect no_shear #
lump $-1 $-1 $63 $12 #
transform $-1 1 0 0 0 1 0 0 0 1 56.360362559892579 22.705140230585833 4.9233158925850828 1 rotate no_reflect no_shear #
lump $-1 $-1 $64 $13 #
transform $-1 1 0 0 0 1 0 0 0 1 56.360362559892579 22.705140230585833 4.9233158925850828 1 rotate no_reflect no_shear #
lump $-1 $-1 $65 $14 #
transform $-1 1 0 0 0 1 0 0 0 1 56.360362559892579 22.705140230585833 4.9233158925850828 1 rotate no_reflect no_shear #
lump $-1 $-1 $66 $15 #
transform $-1 1 0 0 0 1 0 0 0 1 56.360362559892579 22.705140230585833 4.9233158925850828 1 rotate no_reflect no_shear #
lump $-1 $-1 $67 $16 #
transform $-1 1 0 0 0 1 0 0 0 1 56.360362559892579 22.705140230585833 4.9233158925850828 1 rotate no_reflect no_shear #
shell $-1 $-1 $-1 $68 $-1 $17 #
shell $-1 $-1 $-1 $69 $-1 $19 #
shell $-1 $-1 $-1 $70 $-1 $21 #
shell $-1 $-1 $-1 $71 $-1 $23 #
shell $-1 $-1 $-1 $72 $-1 $25 #
shell $-1 $-1 $-1 $73 $-1 $27 #
shell $-1 $-1 $-1 $74 $-1 $29 #
shell $-1 $-1 $-1 $75 $-1 $31 #
shell $-1 $-1 $-1 $76 $-1 $33 #
shell $-1 $-1 $-1 $77 $-1 $35 #
shell $-1 $-1 $-1 $78 $-1 $37 #
shell $-1 $-1 $-1 $79 $-1 $39 #
shell $-1 $-1 $-1 $80 $-1 $41 #
shell $-1 $-1 $-1 $81 $-1 $43 #
shell $-1 $-1 $-1 $82 $-1 $45 #
shell $-1 $-1 $-1 $83 $-1 $47 #
shell $-1 $-1 $-1 $84 $-1 $49 #
face $-1 $85 $86 $51 $-1 $87 forward single #
face $-1 $88 $89 $52 $-1 $90 reversed single #
face $-1 $91 $92 $53 $-1 $93 forward single #
face $-1 $94 $95 $54 $-1 $96 forward single #
face $-1 $97 $98 $55 $-1 $99 forward single #
face $-1 $100 $101 $56 $-1 $102 reversed single #
face $-1 $103 $104 $57 $-1 $105 forward single #
face $-1 $106 $107 $58 $-1 $108 forward single #
face $-1 $109 $110 $59 $-1 $111 forward single #
face $-1 $112 $113 $60 $-1 $114 reversed single #
face $-1 $115 $116 $61 $-1 $117 forward single #
face $-1 $118 $119 $62 $-1 $120 forward single #
face $-1 $121 $122 $63 $-1 $123 forward single #
face $-1 $124 $125 $64 $-1 $126 reversed single #
face $-1 $127 $128 $65 $-1 $129 forward single #
face $-1 $130 $131 $66 $-1 $132 forward single #
face $-1 $133 $134 $67 $-1 $135 forward single #
face $-1 $136 $137 $51 $-1 $138 reversed single #
loop $-1 $-1 $139 $68 #
plane-surface $-1 0 0 4.9233158925850828 0 0 1 1 0 0 forward_v I I I I #
face $-1 $140 $141 $52 $-1 $142 reversed single #
loop $-1 $-1 $143 $69 #
plane-surface $-1 -43.908690553191491 81.727982469270415 107.98518763271201 -1 0 0 0 0.77714596973225614 0.62932038083071107 forward_v I I I I #
face $-1 $144 $145 $53 $-1 $146 forward single #
loop $-1 $147 $148 $70 #
cone-surface $-1 -53.870028158552365 20.731645027105198 2.7802644799647833 0 -0.77714596973225614 -0.62932038083071107 1 0 0 1 I I 0 1 1 forward I I I I #
face $-1 $149 $150 $54 $-1 $151 forward single #
loop $-1 $152 $153 $71 #
cone-surface $-1 -50.134526556542042 20.731645027105198 2.7802644799647833 0 -0.77714596973225614 -0.62932038083071107 1 0 0 1 I I 0 1 1 forward I I I I #
face $-1 $154 $155 $55 $-1 $156 forward single #
loop $-1 $157 $158 $72 #
cone-surface $-1 -46.399024954531711 20.731645027105198 2.7802644799647833 0 -0.77714596973225614 -0.62932038083071107 1 0 0 1 I I 0 1 1 forward I I I I #
face $-1 $159 $160 $56 $-1 $161 reversed single #
loop $-1 $-1 $162 $73 #
plane-surface $-1 50.134526556542028 -5.8724747628681087 37.047737972814915 0 0.77714596973225614 0.62932038083071107 1 0 0 forward_v I I I I #
face $-1 $163 $164 $57 $-1 $165 forward single #
loop $-1 $166 $167 $74 #
cone-surface $-1 46.399024954531711 20.731645027105198 2.7802644799647833 0 -0.77714596973225614 -0.62932038083071107 1 0 0 1 I I 0 1 1 forward I I I I #
face $-1 $168 $169 $58 $-1 $170 forward single #
loop $-1 $171 $172 $75 #
cone-surface $-1 50.134526556542028 20.731645027105198 2.7802644799647833 0 -0.77714596973225614 -0.62932038083071107 1 0 0 1 I I 0 1 1 forward I I I I #
face $-1 $173 $174 $59 $-1 $175 forward single #
loop $-1 $176 $177 $76 #
cone-surface $-1 53.870028158552358 20.731645027105198 2.7802644799647833 0 -0.77714596973225614 -0.62932038083071107 1 0 0 1 I I 0 1 1 forward I I I I #
face $-1 $178 $179 $60 $-1 $180 reversed single #
loop $-1 $-1 $181 $77 #
plane-surface $-1 -43.908690553191491 -110.30559746272436 72.69477118790104 -1 0 0 0 -0.77714596973225614 0.62932038083071107 forward_v I I I I #
face $-1 $182 $183 $61 $-1 $184 forward single #
loop $-1 $185 $186 $78 #
cone-surface $-1 -53.870028158552365 -20.731645027105198 2.7802644799647869 0 0.77714596973225614 -0.62932038083071107 1 0 0 1 I I 0 1 1 forward I I I I #
face $-1 $187 $188 $62 $-1 $189 forward single #
loop $-1 $190 $191 $79 #
cone-surface $-1 -50.134526556542042 -20.731645027105198 2.7802644799647869 0 0.77714596973225614 -0.62932038083071107 1 0 0 1 I I 0 1 1 forward I I I I #
face $-1 $192 $193 $63 $-1 $194 forward single #
loop $-1 $195 $196 $80 #
cone-surface $-1 -46.399024954531711 -20.731645027105198 2.7802644799647869 0 0.77714596973225614 -0.62932038083071107 1 0 0 1 I I 0 1 1 forward I I I I #
face $-1 $197 $198 $64 $-1 $199 reversed single #
loop $-1 $-1 $200 $81 #
plane-surface $-1 50.134526556542028 -22.70514023058584 1.757321528003942 0 -0.77714596973225614 0.62932038083071107 1 0 0 forward_v I I I I #
face $-1 $201 $202 $65 $-1 $203 forward single #
loop $-1 $204 $205 $82 #
cone-surface $-1 46.399024954531711 -20.731645027105198 2.7802644799647869 0 0.77714596973225614 -0.62932038083071107 1 0 0 1 I I 0 1 1 forward I I I I #
face $-1 $206 $207 $66 $-1 $208 forward single #
loop $-1 $209 $210 $83 #
cone-surface $-1 50.134526556542028 -20.731645027105198 2.7802644799647869 0 0.77714596973225614 -0.62932038083071107 1 0 0 1 I I 0 1 1 forward I I I I #
face $-1 $211 $212 $67 $-1 $213 forward single #
loop $-1 $214 $215 $84 #
cone-surface $-1 53.870028158552358 -20.731645027105198 2.7802644799647869 0 0.77714596973225614 -0.62932038083071107 1 0 0 1 I I 0 1 1 forward I I I I #
face $-1 $216 $217 $51 $-1 $218 reversed single #
loop $-1 $-1 $219 $85 #
plane-surface $-1 0 0 -4.9233158925850828 0 0 1 1 0 0 forward_v I I I I #
coedge $-1 $220 $221 $222 $223 forward $86 $-1 #
face $-1 $224 $225 $52 $-1 $226 reversed single #
loop $-1 $-1 $227 $88 #
plane-surface $-1 -50.134526556542035 -5.8724747628681087 37.047737972814915 0 0.77714596973225614 0.62932038083071107 1 0 0 forward_v I I I I #
coedge $-1 $228 $229 $230 $231 reversed $89 $-1 #
face $-1 $-1 $232 $53 $-1 $233 forward single #
loop $-1 $234 $235 $91 #
cone-surface $-1 -53.870028158552365 19.65146264710441 1.9055500592197072 0 -0.77714596973225614 -0.62932038083071107 0.5 0 0 1 I I -0.70710678118654746 0.70710678118654746 0.5 forward I I I I #
loop $-1 $-1 $236 $70 #
coedge $-1 $148 $148 $237 $238 reversed $92 $-1 #
face $-1 $-1 $239 $54 $-1 $240 forward single #
loop $-1 $241 $242 $94 #
cone-surface $-1 -50.134526556542042 19.65146264710441 1.9055500592197072 0 -0.77714596973225614 -0.62932038083071107 0.5 0 0 1 I I -0.70710678118654746 0.70710678118654746 0.5 forward I I I I #
loop $-1 $-1 $243 $71 #
coedge $-1 $153 $153 $244 $245 reversed $95 $-1 #
face $-1 $-1 $246 $55 $-1 $247 forward single #
loop $-1 $248 $249 $97 #
cone-surface $-1 -46.399024954531711 19.65146264710441 1.9055500592197072 0 -0.77714596973225614 -0.62932038083071107 0.5 0 0 1 I I -0.70710678118654746 0.70710678118654746 0.5 forward I I I I #
loop $-1 $-1 $250 $72 #
coedge $-1 $158 $158 $251 $252 reversed $98 $-1 #
face $-1 $253 $254 $56 $-1 $255 forward single #
loop $-1 $-1 $256 $100 #
plane-surface $-1 43.908690553191484 81.727982469270415 107.98518763271201 1 0 0 0 -0.77714596973225614 -0.62932038083071107 forward_v I I I I #
coedge $-1 $257 $258 $259 $260 reversed $101 $-1 #
face $-1 $-1 $261 $57 $-1 $262 forward single #
loop $-1 $263 $264 $103 #
cone-surface $-1 46.399024954531711 19.65146264710441 1.9055500592197072 0 -0.77714596973225614 -0.62932038083071107 0.5 0 0 1 I I -0.70710678118654746 0.70710678118654746 0.5 forward I I I I #
loop $-1 $-1 $265 $74 #
coedge $-1 $167 $167 $266 $267 reversed $104 $-1 #
face $-1 $-1 $268 $58 $-1 $269 forward single #
loop $-1 $270 $271 $106 #
cone-surface $-1 50.134526556542028 19.65146264710441 1.9055500592197072 0 -0.77714596973225614 -0.62932038083071107 0.5 0 0 1 I I -0.70710678118654746 0.70710678118654746 0.5 forward I I I I #
loop $-1 $-1 $272 $75 #
coedge $-1 $172 $172 $273 $274 reversed $107 $-1 #
face $-1 $-1 $275 $59 $-1 $276 forward single #
loop $-1 $277 $278 $109 #
cone-surface $-1 53.870028158552358 19.65146264710441 1.9055500592197072 0 -0.77714596973225614 -0.62932038083071107 0.5 0 0 1 I I -0.70710678118654746 0.70710678118654746 0.5 forward I I I I #
loop $-1 $-1 $279 $76 #
coedge $-1 $177 $177 $280 $281 reversed $110 $-1 #
face $-1 $282 $283 $60 $-1 $284 reversed single #
loop $-1 $-1 $285 $112 #
plane-surface $-1 -50.134526556542035 -22.70514023058584 1.757321528003942 0 -0.77714596973225614 0.62932038083071107 1 0 0 forward_v I I I I #
coedge $-1 $286 $287 $288 $289 reversed $113 $-1 #
face $-1 $-1 $290 $61 $-1 $291 forward single #
loop $-1 $292 $293 $115 #
cone-surface $-1 -53.870028158552365 -19.65146264710441 1.9055500592197108 0 0.77714596973225614 -0.62932038083071107 0.5 0 0 1 I I -0.70710678118654746 0.70710678118654746 0.5 forward I I I I #
loop $-1 $-1 $294 $78 #
coedge $-1 $186 $186 $295 $296 reversed $116 $-1 #
face $-1 $-1 $297 $62 $-1 $298 forward single #
loop $-1 $299 $300 $118 #
cone-surface $-1 -50.134526556542042 -19.65146264710441 1.9055500592197108 0 0.77714596973225614 -0.62932038083071107 0.5 0 0 1 I I -0.70710678118654746 0.70710678118654746 0.5 forward I I I I #
loop $-1 $-1 $301 $79 #
coedge $-1 $191 $191 $302 $303 reversed $119 $-1 #
face $-1 $-1 $304 $63 $-1 $305 forward single #
loop $-1 $306 $307 $121 #
cone-surface $-1 -46.399024954531711 -19.65146264710441 1.9055500592197108 0 0.77714596973225614 -0.62932038083071107 0.5 0 0 1 I I -0.70710678118654746 0.70710678118654746 0.5 forward I I I I #
loop $-1 $-1 $308 $80 #
coedge $-1 $196 $196 $309 $310 reversed $122 $-1 #
face $-1 $311 $312 $64 $-1 $313 reversed single #
loop $-1 $-1 $314 $124 #
plane-surface $-1 43.908690553191484 -110.30559746272436 72.69477118790104 1 0 0 0 0.77714596973225614 -0.62932038083071107 forward_v I I I I #
coedge $-1 $315 $316 $317 $318 reversed $125 $-1 #
face $-1 $-1 $319 $65 $-1 $320 forward single #
loop $-1 $321 $322 $127 #
cone-surface $-1 46.399024954531711 -19.65146264710441 1.9055500592197108 0 0.77714596973225614 -0.62932038083071107 0.5 0 0 1 I I -0.70710678118654746 0.70710678118654746 0.5 forward I I I I #
loop $-1 $-1 $323 $82 #
coedge $-1 $205 $205 $324 $325 reversed $128 $-1 #
face $-1 $-1 $326 $66 $-1 $327 forward single #
loop $-1 $328 $329 $130 #
cone-surface $-1 50.134526556542028 -19.65146264710441 1.9055500592197108 0 0.77714596973225614 -0.62932038083071107 0.5 0 0 1 I I -0.70710678118654746 0.70710678118654746 0.5 forward I I I I #
loop $-1 $-1 $330 $83 #
coedge $-1 $210 $210 $331 $332 reversed $131 $-1 #
face $-1 $-1 $333 $67 $-1 $334 forward single #
loop $-1 $335 $336 $133 #
cone-surface $-1 53.870028158552358 -19.65146264710441 1.9055500592197108 0 0.77714596973225614 -0.62932038083071107 0.5 0 0 1 I I -0.70710678118654746 0.70710678118654746 0.5 forward I I I I #
loop $-1 $-1 $337 $84 #
coedge $-1 $215 $215 $338 $339 reversed $134 $-1 #
face $-1 $340 $341 $51 $-1 $342 reversed single #
loop $-1 $-1 $343 $136 #
plane-surface $-1 0 -22.705140230585833 0 0 1 0 0 0 1 forward_v I I I I #
coedge $-1 $344 $345 $346 $347 forward $137 $-1 #
coedge $-1 $348 $139 $349 $350 forward $86 $-1 #
coedge $-1 $139 $348 $351 $352 forward $86 $-1 #
coedge $-1 $353 $354 $139 $223 reversed $355 $-1 #
edge $-1 $356 -22.705140230585833 $357 22.705140230585833 $222 $358 forward 7 unknown #
face $-1 $359 $360 $52 $-1 $361 forward single #
loop $-1 $-1 $230 $140 #
plane-surface $-1 0 22.705140230585833 0 0 -1 0 0 0 -1 forward_v I I I I #
coedge $-1 $362 $363 $364 $365 reversed $141 $-1 #
coedge $-1 $229 $143 $366 $367 reversed $89 $-1 #
coedge $-1 $143 $228 $362 $368 reversed $89 $-1 #
coedge $-1 $364 $369 $143 $231 forward $225 $-1 #
edge $-1 $370 49.069277923770926 $371 52.235272288352057 $230 $372 forward 7 unknown #
loop $-1 $-1 $237 $144 #
plane-surface $-1 -50.134526556542035 -5.8724747628681087 37.047737972814915 0 0.77714596973225614 0.62932038083071107 1 0 0 forward_v I I I I #
loop $-1 $-1 $373 $91 #
coedge $-1 $235 $235 $236 $374 reversed $145 $-1 #
coedge $-1 $236 $236 $235 $374 forward $147 $-1 #
coedge $-1 $237 $237 $148 $238 forward $232 $-1 #
edge $-1 $375 3.601197042614006e-016 $375 6.2831853071796004 $237 $376 forward 7 unknown #
loop $-1 $-1 $244 $149 #
plane-surface $-1 -50.134526556542035 -5.8724747628681087 37.047737972814915 0 0.77714596973225614 0.62932038083071107 1 0 0 forward_v I I I I #
loop $-1 $-1 $377 $94 #
coedge $-1 $242 $242 $243 $378 reversed $150 $-1 #
coedge $-1 $243 $243 $242 $378 forward $152 $-1 #
coedge $-1 $244 $244 $153 $245 forward $239 $-1 #
edge $-1 $379 3.601197042614006e-016 $379 6.2831853071796004 $244 $380 forward 7 unknown #
loop $-1 $-1 $251 $154 #
plane-surface $-1 -50.134526556542035 -5.8724747628681087 37.047737972814915 0 0.77714596973225614 0.62932038083071107 1 0 0 forward_v I I I I #
loop $-1 $-1 $381 $97 #
coedge $-1 $249 $249 $250 $382 reversed $155 $-1 #
coedge $-1 $250 $250 $249 $382 forward $157 $-1 #
coedge $-1 $251 $251 $158 $252 forward $246 $-1 #
edge $-1 $383 3.601197042614006e-016 $383 6.2831853071796004 $251 $384 forward 7 unknown #
face $-1 $385 $386 $56 $-1 $387 reversed single #
loop $-1 $-1 $388 $159 #
plane-surface $-1 0 0 4.9233158925850828 0 0 1 1 0 0 forward_v I I I I #
coedge $-1 $389 $390 $391 $392 reversed $160 $-1 #
coedge $-1 $393 $162 $394 $395 reversed $101 $-1 #
coedge $-1 $162 $393 $389 $396 forward $101 $-1 #
coedge $-1 $391 $397 $162 $260 forward $398 $-1 #
edge $-1 $399 -31.293099281621558 $400 -18.84142727492047 $259 $401 forward 7 unknown #
loop $-1 $-1 $266 $163 #
plane-surface $-1 50.134526556542028 -5.8724747628681087 37.047737972814915 0 0.77714596973225614 0.62932038083071107 1 0 0 forward_v I I I I #
loop $-1 $-1 $402 $103 #
coedge $-1 $264 $264 $265 $403 reversed $164 $-1 #
coedge $-1 $265 $265 $264 $403 forward $166 $-1 #
coedge $-1 $266 $266 $167 $267 forward $261 $-1 #
edge $-1 $404 3.601197042614006e-016 $404 6.2831853071796004 $266 $405 forward 7 unknown #
loop $-1 $-1 $273 $168 #
plane-surface $-1 50.134526556542028 -5.8724747628681087 37.047737972814915 0 0.77714596973225614 0.62932038083071107 1 0 0 forward_v I I I I #
loop $-1 $-1 $406 $106 #
coedge $-1 $271 $271 $272 $407 reversed $169 $-1 #
coedge $-1 $272 $272 $271 $407 forward $171 $-1 #
coedge $-1 $273 $273 $172 $274 forward $268 $-1 #
edge $-1 $408 3.601197042614006e-016 $408 6.2831853071796004 $273 $409 forward 7 unknown #
loop $-1 $-1 $280 $173 #
plane-surface $-1 50.134526556542028 -5.8724747628681087 37.047737972814915 0 0.77714596973225614 0.62932038083071107 1 0 0 forward_v I I I I #
loop $-1 $-1 $410 $109 #
coedge $-1 $278 $278 $279 $411 reversed $174 $-1 #
coedge $-1 $279 $279 $278 $411 forward $176 $-1 #
coedge $-1 $280 $280 $177 $281 forward $275 $-1 #
edge $-1 $412 3.601197042614006e-016 $412 6.2831853071796004 $280 $413 forward 7 unknown #
face $-1 $414 $415 $60 $-1 $416 reversed single #
loop $-1 $-1 $417 $178 #
plane-surface $-1 -56.360362559892579 0 0 1 0 0 0 0 -1 forward_v I I I I #
coedge $-1 $418 $419 $420 $421 reversed $179 $-1 #
coedge $-1 $287 $181 $422 $423 reversed $113 $-1 #
coedge $-1 $181 $286 $418 $424 reversed $113 $-1 #
coedge $-1 $420 $425 $181 $289 forward $426 $-1 #
edge $-1 $427 32.447658500776349 $428 35.011430117468279 $288 $429 forward 7 unknown #
loop $-1 $-1 $295 $182 #
plane-surface $-1 -50.134526556542035 -22.70514023058584 1.757321528003942 0 -0.77714596973225614 0.62932038083071107 1 0 0 forward_v I I I I #
loop $-1 $-1 $430 $115 #
coedge $-1 $293 $293 $294 $431 reversed $183 $-1 #
coedge $-1 $294 $294 $293 $431 forward $185 $-1 #
coedge $-1 $295 $295 $186 $296 forward $290 $-1 #
edge $-1 $432 4.9518686251757369e-016 $432 6.2831853071796013 $295 $433 forward 7 unknown #
loop $-1 $-1 $302 $187 #
plane-surface $-1 -50.134526556542035 -22.70514023058584 1.757321528003942 0 -0.77714596973225614 0.62932038083071107 1 0 0 forward_v I I I I #
loop $-1 $-1 $434 $118 #
coedge $-1 $300 $300 $301 $435 reversed $188 $-1 #
coedge $-1 $301 $301 $300 $435 forward $190 $-1 #
coedge $-1 $302 $302 $191 $303 forward $297 $-1 #
edge $-1 $436 4.9518686251757369e-016 $436 6.2831853071796013 $302 $437 forward 7 unknown #
loop $-1 $-1 $309 $192 #
plane-surface $-1 -50.134526556542035 -22.70514023058584 1.757321528003942 0 -0.77714596973225614 0.62932038083071107 1 0 0 forward_v I I I I #
loop $-1 $-1 $438 $121 #
coedge $-1 $307 $307 $308 $439 reversed $193 $-1 #
coedge $-1 $308 $308 $307 $439 forward $195 $-1 #
coedge $-1 $309 $309 $196 $310 forward $304 $-1 #
edge $-1 $440 4.9518686251757369e-016 $440 6.2831853071796013 $309 $441 forward 7 unknown #
face $-1 $442 $443 $64 $-1 $444 reversed single #
loop $-1 $-1 $445 $197 #
plane-surface $-1 0 -22.705140230585833 0 0 1 0 0 0 1 forward_v I I I I #
coedge $-1 $446 $447 $448 $449 reversed $198 $-1 #
coedge $-1 $450 $200 $451 $452 reversed $125 $-1 #
coedge $-1 $200 $450 $446 $453 forward $125 $-1 #
coedge $-1 $448 $454 $200 $318 forward $455 $-1 #
edge $-1 $456 -31.293099281621558 $457 -18.84142727492047 $317 $458 forward 7 unknown #
loop $-1 $-1 $324 $201 #
plane-surface $-1 50.134526556542028 -22.70514023058584 1.757321528003942 0 -0.77714596973225614 0.62932038083071107 1 0 0 forward_v I I I I #
loop $-1 $-1 $459 $127 #
coedge $-1 $322 $322 $323 $460 reversed $202 $-1 #
coedge $-1 $323 $323 $322 $460 forward $204 $-1 #
coedge $-1 $324 $324 $205 $325 forward $319 $-1 #
edge $-1 $461 4.9518686251757369e-016 $461 6.2831853071796013 $324 $462 forward 7 unknown #
loop $-1 $-1 $331 $206 #
plane-surface $-1 50.134526556542028 -22.70514023058584 1.757321528003942 0 -0.77714596973225614 0.62932038083071107 1 0 0 forward_v I I I I #
loop $-1 $-1 $463 $130 #
coedge $-1 $329 $329 $330 $464 reversed $207 $-1 #
coedge $-1 $330 $330 $329 $464 forward $209 $-1 #
coedge $-1 $331 $331 $210 $332 forward $326 $-1 #
edge $-1 $465 4.9518686251757369e-016 $465 6.2831853071796013 $331 $466 forward 7 unknown #
loop $-1 $-1 $338 $211 #
plane-surface $-1 50.134526556542028 -22.70514023058584 1.757321528003942 0 -0.77714596973225614 0.62932038083071107 1 0 0 forward_v I I I I #
loop $-1 $-1 $467 $133 #
coedge $-1 $336 $336 $337 $468 reversed $212 $-1 #
coedge $-1 $337 $337 $336 $468 forward $214 $-1 #
coedge $-1 $338 $338 $215 $339 forward $333 $-1 #
edge $-1 $469 4.9518686251757369e-016 $469 6.2831853071796013 $338 $470 forward 7 unknown #
face $-1 $471 $472 $51 $-1 $473 reversed single #
loop $-1 $-1 $474 $216 #
plane-surface $-1 -56.360362559892579 0 0 1 0 0 0 0 -1 forward_v I I I I #
coedge $-1 $475 $351 $476 $477 forward $217 $-1 #
coedge $-1 $478 $219 $475 $479 forward $137 $-1 #
coedge $-1 $219 $478 $480 $481 forward $137 $-1 #
coedge $-1 $354 $353 $219 $347 reversed $355 $-1 #
edge $-1 $482 -22.705140230585833 $483 22.705140230585833 $346 $484 forward 7 unknown #
coedge $-1 $221 $220 $485 $486 forward $86 $-1 #
coedge $-1 $487 $488 $220 $350 reversed $472 $-1 #
edge $-1 $357 -56.360362559892579 $489 56.360362559892579 $349 $490 forward 7 unknown #
coedge $-1 $343 $491 $221 $352 reversed $217 $-1 #
edge $-1 $492 -56.360362559892579 $356 56.360362559892579 $351 $493 forward 7 unknown #
coedge $-1 $346 $222 $491 $494 forward $355 $-1 #
coedge $-1 $222 $346 $487 $495 reversed $355 $-1 #
loop $-1 $-1 $353 $471 #
vertex $-1 $223 $496 #
vertex $-1 $223 $497 #
straight-curve $-1 56.360362559892579 0 4.9233158925850828 0 1 0 I I #
face $-1 $-1 $498 $52 $-1 $499 reversed single #
loop $-1 $-1 $366 $224 #
plane-surface $-1 0 0 4.9233158925850828 0 0 1 1 0 0 forward_v I I I I #
coedge $-1 $500 $227 $229 $368 forward $141 $-1 #
coedge $-1 $227 $500 $501 $502 reversed $141 $-1 #
coedge $-1 $503 $230 $227 $365 forward $225 $-1 #
edge $-1 $371 18.841427274920473 $504 31.293099281621561 $364 $505 forward 7 unknown #
coedge $-1 $506 $507 $228 $367 forward $360 $-1 #
edge $-1 $508 -20.722622620741301 $370 -18.158851004049374 $366 $509 forward 7 unknown #
edge $-1 $371 -45.410280461171652 $508 -41.336406970362859 $229 $510 forward 7 unknown #
coedge $-1 $230 $503 $506 $511 reversed $225 $-1 #
vertex $-1 $511 $512 #
vertex $-1 $231 $513 #
straight-curve $-1 -43.908690553191491 22.705140230585833 53.992593816356006 0 0 -1 I I #
coedge $-1 $373 $373 $-1 $514 reversed $234 $-1 #
edge $-1 $515 0 $515 6.2831853071796004 $235 $516 forward 7 unknown #
vertex $-1 $238 $517 #
ellipse-curve $-1 -53.870028158552365 21.423254422239868 3.3403187102945102 0 0.77714596973225614 0.62932038083071107 1 0 0 1 I I #
coedge $-1 $377 $377 $-1 $518 reversed $241 $-1 #
edge $-1 $519 0 $519 6.2831853071796004 $242 $520 forward 7 unknown #
vertex $-1 $245 $521 #
ellipse-curve $-1 -50.134526556542042 21.423254422239868 3.3403187102945102 0 0.77714596973225614 0.62932038083071107 1 0 0 1 I I #
coedge $-1 $381 $381 $-1 $522 reversed $248 $-1 #
edge $-1 $523 0 $523 6.2831853071796004 $249 $524 forward 7 unknown #
vertex $-1 $252 $525 #
ellipse-curve $-1 -46.399024954531711 21.423254422239868 3.3403187102945102 0 0.77714596973225614 0.62932038083071107 1 0 0 1 I I #
face $-1 $-1 $398 $56 $-1 $526 reversed single #
loop $-1 $-1 $394 $253 #
plane-surface $-1 56.360362559892579 0 0 -1 0 0 0 0 1 forward_v I I I I #
coedge $-1 $527 $528 $390 $529 forward $254 $-1 #
coedge $-1 $390 $256 $258 $396 reversed $160 $-1 #
coedge $-1 $256 $389 $388 $529 reversed $160 $-1 #
coedge $-1 $530 $259 $256 $392 forward $398 $-1 #
edge $-1 $400 -52.235272288352057 $531 -49.069277923770926 $391 $532 forward 7 unknown #
coedge $-1 $258 $257 $527 $533 reversed $101 $-1 #
coedge $-1 $534 $535 $257 $395 forward $386 $-1 #
edge $-1 $536 25.09282281663452 $399 29.166696307443313 $394 $537 forward 7 unknown #
edge $-1 $538 41.336406970362859 $400 45.410280461171652 $389 $539 forward 7 unknown #
coedge $-1 $259 $530 $534 $540 forward $398 $-1 #
loop $-1 $-1 $391 $385 #
vertex $-1 $395 $541 #
vertex $-1 $260 $542 #
straight-curve $-1 25.067263278271014 22.705140230585833 1.7573215280039456 -1 0 0 I I #
coedge $-1 $402 $402 $-1 $543 reversed $263 $-1 #
edge $-1 $544 0 $544 6.2831853071796004 $264 $545 forward 7 unknown #
vertex $-1 $267 $546 #
ellipse-curve $-1 46.399024954531711 21.423254422239868 3.3403187102945102 0 0.77714596973225614 0.62932038083071107 1 0 0 1 I I #
coedge $-1 $406 $406 $-1 $547 reversed $270 $-1 #
edge $-1 $548 0 $548 6.2831853071796004 $271 $549 forward 7 unknown #
vertex $-1 $274 $550 #
ellipse-curve $-1 50.134526556542028 21.423254422239868 3.3403187102945102 0 0.77714596973225614 0.62932038083071107 1 0 0 1 I I #
coedge $-1 $410 $410 $-1 $551 reversed $277 $-1 #
edge $-1 $552 0 $552 6.2831853071796004 $278 $553 forward 7 unknown #
vertex $-1 $281 $554 #
ellipse-curve $-1 53.870028158552358 21.423254422239868 3.3403187102945102 0 0.77714596973225614 0.62932038083071107 1 0 0 1 I I #
face $-1 $-1 $426 $60 $-1 $555 forward single #
loop $-1 $-1 $556 $282 #
plane-surface $-1 0 -22.705140230585833 0 0 1 0 0 0 1 forward_v I I I I #
coedge $-1 $557 $558 $419 $559 forward $283 $-1 #
coedge $-1 $560 $285 $287 $424 forward $179 $-1 #
coedge $-1 $285 $560 $417 $559 reversed $179 $-1 #
coedge $-1 $561 $288 $285 $421 forward $426 $-1 #
edge $-1 $428 18.841427274920473 $562 31.293099281621561 $420 $563 forward 7 unknown #
coedge $-1 $564 $556 $286 $423 forward $415 $-1 #
edge $-1 $565 -34.590064065946571 $427 -31.424069701365436 $422 $566 forward 7 unknown #
edge $-1 $428 -4.0738734908088068 $565 -1.1374033043381581e-014 $287 $567 forward 7 unknown #
coedge $-1 $288 $561 $564 $568 forward $426 $-1 #
loop $-1 $-1 $420 $414 #
vertex $-1 $423 $569 #
vertex $-1 $289 $570 #
straight-curve $-1 -43.908690553191491 -55.152798731362182 4.9233158925850802 0 1 0 I I #
coedge $-1 $430 $430 $-1 $571 reversed $292 $-1 #
edge $-1 $572 0 $572 6.2831853071796004 $293 $573 forward 7 unknown #
vertex $-1 $296 $574 #
ellipse-curve $-1 -53.870028158552365 -21.423254422239872 3.3403187102945155 0 -0.77714596973225614 0.62932038083071107 1 0 0 1 I I #
coedge $-1 $434 $434 $-1 $575 reversed $299 $-1 #
edge $-1 $576 0 $576 6.2831853071796004 $300 $577 forward 7 unknown #
vertex $-1 $303 $578 #
ellipse-curve $-1 -50.134526556542042 -21.423254422239872 3.3403187102945155 0 -0.77714596973225614 0.62932038083071107 1 0 0 1 I I #
coedge $-1 $438 $438 $-1 $579 reversed $306 $-1 #
edge $-1 $580 0 $580 6.2831853071796004 $307 $581 forward 7 unknown #
vertex $-1 $310 $582 #
ellipse-curve $-1 -46.399024954531711 -21.423254422239872 3.3403187102945155 0 -0.77714596973225614 0.62932038083071107 1 0 0 1 I I #
face $-1 $-1 $455 $64 $-1 $583 forward single #
loop $-1 $-1 $451 $311 #
plane-surface $-1 56.360362559892579 0 0 -1 0 0 0 0 1 forward_v I I I I #
coedge $-1 $584 $585 $447 $586 forward $312 $-1 #
coedge $-1 $447 $314 $316 $453 reversed $198 $-1 #
coedge $-1 $314 $446 $445 $586 reversed $198 $-1 #
coedge $-1 $587 $317 $314 $449 forward $455 $-1 #
edge $-1 $457 -35.011430117468279 $588 -32.447658500776349 $448 $589 forward 7 unknown #
coedge $-1 $316 $315 $584 $590 reversed $125 $-1 #
coedge $-1 $591 $592 $315 $452 forward $443 $-1 #
edge $-1 $593 -6.4615560768574802 $456 -2.387682586048685 $451 $594 forward 7 unknown #
edge $-1 $595 1.1374033043381581e-014 $457 4.0738734908088068 $446 $596 forward 7 unknown #
coedge $-1 $317 $587 $591 $597 forward $455 $-1 #
loop $-1 $-1 $448 $442 #
vertex $-1 $452 $598 #
vertex $-1 $318 $599 #
straight-curve $-1 25.067263278271014 -20.141368613893903 4.9233158925850828 -1 0 0 I I #
coedge $-1 $459 $459 $-1 $600 reversed $321 $-1 #
edge $-1 $601 0 $601 6.2831853071796004 $322 $602 forward 7 unknown #
vertex $-1 $325 $603 #
ellipse-curve $-1 46.399024954531711 -21.423254422239872 3.3403187102945155 0 -0.77714596973225614 0.62932038083071107 1 0 0 1 I I #
coedge $-1 $463 $463 $-1 $604 reversed $328 $-1 #
edge $-1 $605 0 $605 6.2831853071796004 $329 $606 forward 7 unknown #
vertex $-1 $332 $607 #
ellipse-curve $-1 50.134526556542028 -21.423254422239872 3.3403187102945155 0 -0.77714596973225614 0.62932038083071107 1 0 0 1 I I #
coedge $-1 $467 $467 $-1 $608 reversed $335 $-1 #
edge $-1 $609 0 $609 6.2831853071796004 $336 $610 forward 7 unknown #
vertex $-1 $339 $611 #
ellipse-curve $-1 53.870028158552358 -21.423254422239872 3.3403187102945155 0 -0.77714596973225614 0.62932038083071107 1 0 0 1 I I #
face $-1 $-1 $355 $51 $-1 $612 reversed single #
loop $-1 $-1 $487 $340 #
plane-surface $-1 0 22.705140230585833 0 0 -1 0 0 0 -1 forward_v I I I I #
coedge $-1 $613 $485 $488 $614 forward $341 $-1 #
coedge $-1 $491 $343 $344 $479 reversed $217 $-1 #
coedge $-1 $485 $613 $343 $477 reversed $341 $-1 #
edge $-1 $492 -4.9233158925850828 $615 4.9233158925850828 $476 $616 forward 7 unknown #
coedge $-1 $345 $344 $613 $617 forward $137 $-1 #
edge $-1 $483 -56.360362559892579 $615 56.360362559892579 $475 $618 forward 7 unknown #
coedge $-1 $488 $487 $345 $481 reversed $472 $-1 #
edge $-1 $619 -56.360362559892579 $482 56.360362559892579 $480 $620 forward 7 unknown #
vertex $-1 $347 $621 #
vertex $-1 $494 $622 #
straight-curve $-1 56.360362559892579 0 -4.9233158925850828 0 -1 0 I I #
coedge $-1 $474 $476 $348 $486 reversed $341 $-1 #
edge $-1 $489 -22.705140230585833 $492 22.705140230585833 $485 $623 forward 7 unknown #
coedge $-1 $480 $349 $354 $495 forward $472 $-1 #
coedge $-1 $349 $480 $474 $614 reversed $472 $-1 #
vertex $-1 $350 $624 #
straight-curve $-1 0 22.705140230585833 4.9233158925850828 -1 0 0 I I #
coedge $-1 $351 $475 $353 $494 reversed $217 $-1 #
vertex $-1 $486 $625 #
straight-curve $-1 0 -22.705140230585833 4.9233158925850828 1 0 0 I I #
edge $-1 $356 -4.9233158925850828 $483 4.9233158925850828 $353 $626 forward 7 unknown #
edge $-1 $357 -4.9233158925850828 $482 4.9233158925850828 $354 $627 forward 7 unknown #
point $-1 56.360362559892579 -22.705140230585833 4.9233158925850828 #
point $-1 56.360362559892579 22.705140230585833 4.9233158925850828 #
loop $-1 $-1 $501 $359 #
plane-surface $-1 -56.360362559892579 0 0 1 0 0 0 0 -1 forward_v I I I I #
coedge $-1 $363 $362 $507 $628 reversed $141 $-1 #
coedge $-1 $629 $630 $363 $502 forward $498 $-1 #
edge $-1 $504 -29.166696307443317 $631 -25.09282281663452 $501 $632 forward 7 unknown #
coedge $-1 $369 $364 $630 $633 reversed $225 $-1 #
vertex $-1 $365 $634 #
straight-curve $-1 -25.067263278271017 22.705140230585833 1.7573215280039456 -1 0 0 I I #
coedge $-1 $635 $366 $369 $511 forward $360 $-1 #
coedge $-1 $366 $635 $500 $628 forward $360 $-1 #
vertex $-1 $367 $636 #
straight-curve $-1 -43.908690553191491 40.863991234635208 4.9233158925850802 0 1 0 I I #
straight-curve $-1 -43.908690553191491 -5.8724747628681087 37.047737972814915 0 -0.62932038083071107 0.77714596973225614 I I #
edge $-1 $370 43.908690553191491 $637 56.360362559892579 $369 $638 forward 7 unknown #
point $-1 -43.908690553191491 22.705140230585833 4.9233158925850828 #
point $-1 -43.908690553191491 22.705140230585833 1.7573215280039491 #
edge $-1 $639 1 $639 0 $373 $-1 forward 7 unknown #
vertex $-1 $374 $640 #
ellipse-curve $-1 -53.870028158552365 20.040035631970536 2.2202102496350626 0 0.77714596973225614 0.62932038083071107 1 0 0 1 I I #
point $-1 -52.870028158552365 21.423254422239861 3.340318710294504 #
edge $-1 $641 1 $641 0 $377 $-1 forward 7 unknown #
vertex $-1 $378 $642 #
ellipse-curve $-1 -50.134526556542042 20.040035631970536 2.2202102496350626 0 0.77714596973225614 0.62932038083071107 1 0 0 1 I I #
point $-1 -49.134526556542042 21.423254422239861 3.340318710294504 #
edge $-1 $643 1 $643 0 $381 $-1 forward 7 unknown #
vertex $-1 $382 $644 #
ellipse-curve $-1 -46.399024954531711 20.040035631970536 2.2202102496350626 0 0.77714596973225614 0.62932038083071107 1 0 0 1 I I #
point $-1 -45.399024954531711 21.423254422239861 3.340318710294504 #
plane-surface $-1 0 22.705140230585833 0 0 -1 0 0 0 -1 forward_v I I I I #
coedge $-1 $645 $388 $393 $533 forward $254 $-1 #
coedge $-1 $388 $645 $530 $646 forward $254 $-1 #
edge $-1 $531 18.158851004049374 $538 20.722622620741301 $388 $647 forward 7 unknown #
coedge $-1 $397 $391 $528 $646 reversed $398 $-1 #
vertex $-1 $392 $648 #
straight-curve $-1 43.908690553191484 22.705140230585833 53.992593816356006 0 0 1 I I #
edge $-1 $538 18.84142727492047 $536 31.293099281621558 $527 $649 forward 7 unknown #
coedge $-1 $535 $394 $397 $540 reversed $386 $-1 #
coedge $-1 $394 $534 $645 $650 reversed $386 $-1 #
vertex $-1 $650 $651 #
straight-curve $-1 56.360362559892579 4.3499438028119108 24.424102013738196 0 0.62932038083071107 -0.77714596973225614 I I #
vertex $-1 $533 $652 #
straight-curve $-1 43.908690553191484 -5.8724747628681087 37.047737972814915 0 0.62932038083071107 -0.77714596973225614 I I #
edge $-1 $653 -4.9233158925850828 $399 -1.7573215280039491 $534 $654 forward 7 unknown #
point $-1 56.360362559892572 22.705140230585833 1.7573215280039491 #
point $-1 43.908690553191484 22.705140230585833 1.7573215280039491 #
edge $-1 $655 1 $655 0 $402 $-1 forward 7 unknown #
vertex $-1 $403 $656 #
ellipse-curve $-1 46.399024954531711 20.040035631970536 2.2202102496350626 0 0.77714596973225614 0.62932038083071107 1 0 0 1 I I #
point $-1 47.399024954531711 21.423254422239861 3.340318710294504 #
edge $-1 $657 1 $657 0 $406 $-1 forward 7 unknown #
vertex $-1 $407 $658 #
ellipse-curve $-1 50.134526556542028 20.040035631970536 2.2202102496350626 0 0.77714596973225614 0.62932038083071107 1 0 0 1 I I #
point $-1 51.134526556542028 21.423254422239861 3.340318710294504 #
edge $-1 $659 1 $659 0 $410 $-1 forward 7 unknown #
vertex $-1 $411 $660 #
ellipse-curve $-1 53.870028158552358 20.040035631970536 2.2202102496350626 0 0.77714596973225614 0.62932038083071107 1 0 0 1 I I #
point $-1 54.870028158552358 21.423254422239861 3.340318710294504 #
plane-surface $-1 0 0 4.9233158925850828 0 0 1 1 0 0 forward_v I I I I #
coedge $-1 $422 $661 $560 $662 forward $415 $-1 #
coedge $-1 $558 $417 $661 $663 reversed $283 $-1 #
coedge $-1 $417 $557 $561 $664 reversed $283 $-1 #
edge $-1 $562 2.387682586048685 $665 6.4615560768574802 $417 $666 forward 7 unknown #
coedge $-1 $419 $418 $556 $662 reversed $179 $-1 #
coedge $-1 $425 $420 $558 $664 forward $426 $-1 #
vertex $-1 $664 $667 #
straight-curve $-1 -25.067263278271017 -20.141368613893903 4.9233158925850828 -1 0 0 I I #
coedge $-1 $661 $422 $425 $568 reversed $415 $-1 #
vertex $-1 $423 $668 #
straight-curve $-1 -43.908690553191491 -22.705140230585833 36.34738559395052 0 0 1 I I #
straight-curve $-1 -43.908690553191491 -22.70514023058584 1.757321528003942 0 -0.62932038083071107 -0.77714596973225614 I I #
edge $-1 $669 -56.360362559892579 $427 -43.908690553191491 $564 $670 forward 7 unknown #
point $-1 -43.908690553191491 -22.705140230585833 4.9233158925850828 #
point $-1 -43.908690553191491 -20.141368613893903 4.9233158925850828 #
edge $-1 $671 1 $671 0 $430 $-1 forward 7 unknown #
vertex $-1 $431 $672 #
ellipse-curve $-1 -53.870028158552365 -20.040035631970536 2.2202102496350662 0 -0.77714596973225614 0.62932038083071107 1 0 0 1 I I #
point $-1 -52.870028158552365 -21.423254422239861 3.3403187102945076 #
edge $-1 $673 1 $673 0 $434 $-1 forward 7 unknown #
vertex $-1 $435 $674 #
ellipse-curve $-1 -50.134526556542042 -20.040035631970536 2.2202102496350662 0 -0.77714596973225614 0.62932038083071107 1 0 0 1 I I #
point $-1 -49.134526556542042 -21.423254422239861 3.3403187102945076 #
edge $-1 $675 1 $675 0 $438 $-1 forward 7 unknown #
vertex $-1 $439 $676 #
ellipse-curve $-1 -46.399024954531711 -20.040035631970536 2.2202102496350662 0 -0.77714596973225614 0.62932038083071107 1 0 0 1 I I #
point $-1 -45.399024954531711 -21.423254422239861 3.3403187102945076 #
plane-surface $-1 0 0 4.9233158925850828 0 0 1 1 0 0 forward_v I I I I #
coedge $-1 $677 $445 $450 $590 forward $312 $-1 #
coedge $-1 $445 $677 $587 $678 reversed $312 $-1 #
edge $-1 $588 31.424069701365436 $595 34.590064065946571 $445 $679 forward 7 unknown #
coedge $-1 $454 $448 $585 $678 forward $455 $-1 #
vertex $-1 $678 $680 #
straight-curve $-1 43.908690553191484 -55.152798731362182 4.9233158925850802 0 -1 0 I I #
edge $-1 $595 18.84142727492047 $593 31.293099281621558 $584 $681 forward 7 unknown #
coedge $-1 $592 $451 $454 $597 reversed $443 $-1 #
coedge $-1 $451 $591 $677 $682 forward $443 $-1 #
vertex $-1 $452 $683 #
straight-curve $-1 56.360362559892579 -18.638751299538889 6.7788937913327105 0 0.62932038083071107 0.77714596973225614 I I #
vertex $-1 $590 $684 #
straight-curve $-1 43.908690553191484 -22.70514023058584 1.757321528003942 0 0.62932038083071107 0.77714596973225614 I I #
edge $-1 $685 -22.705140230585833 $456 -20.141368613893903 $591 $686 forward 7 unknown #
point $-1 56.360362559892572 -20.141368613893903 4.9233158925850828 #
point $-1 43.908690553191484 -20.141368613893903 4.9233158925850828 #
edge $-1 $687 1 $687 0 $459 $-1 forward 7 unknown #
vertex $-1 $460 $688 #
ellipse-curve $-1 46.399024954531711 -20.040035631970536 2.2202102496350662 0 -0.77714596973225614 0.62932038083071107 1 0 0 1 I I #
point $-1 47.399024954531711 -21.423254422239861 3.3403187102945076 #
edge $-1 $689 1 $689 0 $463 $-1 forward 7 unknown #
vertex $-1 $464 $690 #
ellipse-curve $-1 50.134526556542028 -20.040035631970536 2.2202102496350662 0 -0.77714596973225614 0.62932038083071107 1 0 0 1 I I #
point $-1 51.134526556542028 -21.423254422239861 3.3403187102945076 #
edge $-1 $691 1 $691 0 $467 $-1 forward 7 unknown #
vertex $-1 $468 $692 #
ellipse-curve $-1 53.870028158552358 -20.040035631970536 2.2202102496350662 0 -0.77714596973225614 0.62932038083071107 1 0 0 1 I I #
point $-1 54.870028158552358 -21.423254422239861 3.3403187102945076 #
plane-surface $-1 56.360362559892579 0 0 -1 0 0 0 0 1 forward_v I I I I #
coedge $-1 $476 $474 $478 $617 reversed $341 $-1 #
edge $-1 $489 -4.9233158925850828 $619 4.9233158925850828 $488 $693 forward 7 unknown #
vertex $-1 $617 $694 #
straight-curve $-1 -56.360362559892579 -22.705140230585833 0 0 0 -1 I I #
edge $-1 $615 -22.705140230585833 $619 22.705140230585833 $613 $695 forward 7 unknown #
straight-curve $-1 0 -22.705140230585833 -4.9233158925850828 -1 0 0 I I #
vertex $-1 $481 $696 #
straight-curve $-1 0 22.705140230585833 -4.9233158925850828 1 0 0 I I #
point $-1 56.360362559892579 22.705140230585833 -4.9233158925850828 #
point $-1 56.360362559892579 -22.705140230585833 -4.9233158925850828 #
straight-curve $-1 -56.360362559892579 0 4.9233158925850828 0 -1 0 I I #
point $-1 -56.360362559892579 22.705140230585833 4.9233158925850828 #
point $-1 -56.360362559892579 -22.705140230585833 4.9233158925850828 #
straight-curve $-1 56.360362559892579 -22.705140230585833 0 0 0 -1 I I #
straight-curve $-1 56.360362559892579 22.705140230585833 0 0 0 -1 I I #
edge $-1 $631 -31.293099281621561 $508 -18.841427274920473 $507 $697 forward 7 unknown #
coedge $-1 $630 $501 $635 $698 reversed $498 $-1 #
coedge $-1 $501 $629 $503 $633 forward $498 $-1 #
vertex $-1 $502 $699 #
straight-curve $-1 -56.360362559892579 4.3499438028119108 24.424102013738196 0 -0.62932038083071107 0.77714596973225614 I I #
edge $-1 $637 -4.9233158925850828 $504 -1.7573215280039431 $503 $700 forward 7 unknown #
point $-1 -56.360362559892579 22.705140230585833 1.7573215280039431 #
coedge $-1 $507 $506 $629 $698 forward $360 $-1 #
point $-1 -43.908690553191491 20.141368613893906 4.9233158925850802 #
vertex $-1 $511 $701 #
straight-curve $-1 0 22.705140230585833 4.9233158925850828 -1 0 0 I I #
vertex $-1 $514 $702 #
point $-1 -52.870028158552365 20.040035631970536 2.2202102496350626 #
vertex $-1 $518 $703 #
point $-1 -49.134526556542042 20.040035631970536 2.2202102496350626 #
vertex $-1 $522 $704 #
point $-1 -45.399024954531711 20.040035631970536 2.2202102496350626 #
coedge $-1 $528 $527 $535 $650 forward $254 $-1 #
edge $-1 $653 -56.360362559892579 $531 -43.908690553191484 $530 $705 forward 7 unknown #
straight-curve $-1 43.908690553191484 40.863991234635208 4.9233158925850802 0 -1 0 I I #
point $-1 43.908690553191484 22.705140230585833 4.9233158925850828 #
straight-curve $-1 25.067263278271014 20.141368613893899 4.9233158925850837 1 0 0 I I #
edge $-1 $536 20.141368613893906 $653 22.705140230585833 $535 $706 forward 7 unknown #
point $-1 56.360362559892572 20.141368613893906 4.9233158925850802 #
point $-1 43.908690553191484 20.141368613893906 4.9233158925850802 #
vertex $-1 $650 $707 #
straight-curve $-1 56.360362559892579 22.705140230585833 0 0 0 -1 I I #
vertex $-1 $543 $708 #
point $-1 47.399024954531711 20.040035631970536 2.2202102496350626 #
vertex $-1 $547 $709 #
point $-1 51.134526556542028 20.040035631970536 2.2202102496350626 #
vertex $-1 $551 $710 #
point $-1 54.870028158552358 20.040035631970536 2.2202102496350626 #
coedge $-1 $556 $564 $557 $663 forward $415 $-1 #
edge $-1 $665 -31.293099281621561 $565 -18.841427274920473 $556 $711 forward 7 unknown #
edge $-1 $669 -4.9233158925850828 $665 -1.7573215280039509 $557 $712 forward 7 unknown #
edge $-1 $562 20.141368613893903 $669 22.705140230585833 $558 $713 forward 7 unknown #
vertex $-1 $662 $714 #
straight-curve $-1 -56.360362559892579 -18.638751299538889 6.7788937913327105 0 -0.62932038083071107 -0.77714596973225614 I I #
point $-1 -56.360362559892579 -20.141368613893903 4.9233158925850828 #
point $-1 -43.908690553191491 -22.705140230585833 1.7573215280039509 #
vertex $-1 $664 $715 #
straight-curve $-1 0 -22.705140230585833 4.9233158925850828 1 0 0 I I #
vertex $-1 $571 $716 #
point $-1 -52.870028158552365 -20.040035631970536 2.2202102496350662 #
vertex $-1 $575 $717 #
point $-1 -49.134526556542042 -20.040035631970536 2.2202102496350662 #
vertex $-1 $579 $718 #
point $-1 -45.399024954531711 -20.040035631970536 2.2202102496350662 #
coedge $-1 $585 $584 $592 $682 reversed $312 $-1 #
edge $-1 $588 43.908690553191484 $685 56.360362559892579 $585 $719 forward 7 unknown #
straight-curve $-1 43.908690553191484 -22.705140230585833 36.34738559395052 0 0 -1 I I #
point $-1 43.908690553191484 -22.705140230585833 4.9233158925850828 #
straight-curve $-1 25.067263278271014 -22.705140230585833 1.75732152800395 1 0 0 I I #
edge $-1 $685 -4.9233158925850828 $593 -1.7573215280039509 $592 $720 forward 7 unknown #
point $-1 56.360362559892572 -22.705140230585833 1.7573215280039509 #
point $-1 43.908690553191484 -22.705140230585833 1.7573215280039509 #
vertex $-1 $597 $721 #
straight-curve $-1 56.360362559892579 0 4.9233158925850828 0 1 0 I I #
vertex $-1 $600 $722 #
point $-1 47.399024954531711 -20.040035631970536 2.2202102496350662 #
vertex $-1 $604 $723 #
point $-1 51.134526556542028 -20.040035631970536 2.2202102496350662 #
vertex $-1 $608 $724 #
point $-1 54.870028158552358 -20.040035631970536 2.2202102496350662 #
straight-curve $-1 -56.360362559892579 22.705140230585833 0 0 0 -1 I I #
point $-1 -56.360362559892579 -22.705140230585833 -4.9233158925850828 #
straight-curve $-1 -56.360362559892579 0 -4.9233158925850828 0 1 0 I I #
point $-1 -56.360362559892579 22.705140230585833 -4.9233158925850828 #
straight-curve $-1 -25.067263278271017 20.141368613893899 4.9233158925850837 1 0 0 I I #
edge $-1 $637 -22.705140230585833 $631 -20.141368613893906 $629 $725 forward 7 unknown #
point $-1 -56.360362559892579 20.141368613893906 4.9233158925850802 #
straight-curve $-1 -56.360362559892579 22.705140230585833 0 0 0 -1 I I #
point $-1 -56.360362559892579 22.705140230585833 4.9233158925850828 #
point $-1 -53.870028158552365 19.262889662238283 1.5908898688043518 #
point $-1 -50.134526556542042 19.262889662238283 1.5908898688043518 #
point $-1 -46.399024954531711 19.262889662238283 1.5908898688043518 #
straight-curve $-1 0 22.705140230585833 4.9233158925850828 -1 0 0 I I #
straight-curve $-1 56.360362559892579 0 4.9233158925850828 0 1 0 I I #
point $-1 56.360362559892579 22.705140230585833 4.9233158925850828 #
point $-1 46.399024954531711 19.262889662238283 1.5908898688043518 #
point $-1 50.134526556542028 19.262889662238283 1.5908898688043518 #
point $-1 53.870028158552358 19.262889662238283 1.5908898688043518 #
straight-curve $-1 -25.067263278271017 -22.705140230585833 1.75732152800395 1 0 0 I I #
straight-curve $-1 -56.360362559892579 -22.705140230585833 0 0 0 -1 I I #
straight-curve $-1 -56.360362559892579 0 4.9233158925850828 0 -1 0 I I #
point $-1 -56.360362559892579 -22.705140230585833 1.7573215280039509 #
point $-1 -56.360362559892579 -22.705140230585833 4.9233158925850828 #
point $-1 -53.870028158552365 -19.262889662238283 1.5908898688043553 #
point $-1 -50.134526556542042 -19.262889662238283 1.5908898688043553 #
point $-1 -46.399024954531711 -19.262889662238283 1.5908898688043553 #
straight-curve $-1 0 -22.705140230585833 4.9233158925850828 1 0 0 I I #
straight-curve $-1 56.360362559892579 -22.705140230585833 0 0 0 -1 I I #
point $-1 56.360362559892579 -22.705140230585833 4.9233158925850828 #
point $-1 46.399024954531711 -19.262889662238283 1.5908898688043553 #
point $-1 50.134526556542028 -19.262889662238283 1.5908898688043553 #
point $-1 53.870028158552358 -19.262889662238283 1.5908898688043553 #
straight-curve $-1 -56.360362559892579 0 4.9233158925850828 0 -1 0 I I #
End-of-ACIS-data 