500 0 9 0           
7 Unknown 11 ACIS 5.0 NT 24 Fri Mar 26 17:13:26 1999 
-1 9.9999999999999995e-007 1e-010 
body $-1 $9 $-1 $10 #
body $-1 $11 $-1 $12 #
body $-1 $13 $-1 $14 #
body $-1 $15 $-1 $16 #
body $-1 $17 $-1 $18 #
body $-1 $19 $-1 $20 #
body $-1 $21 $-1 $22 #
body $-1 $23 $-1 $24 #
body $-1 $25 $-1 $26 #
lump $-1 $-1 $27 $0 #
transform $-1 1 0 0 0 1 0 0 0 1 69.430829798272654 38.669753549898871 9.0113377531149581 1 rotate no_reflect no_shear #
lump $-1 $-1 $28 $1 #
transform $-1 1 0 0 0 1 0 0 0 1 69.430829798272654 38.669753549898871 9.0113377531149581 1 rotate no_reflect no_shear #
lump $-1 $-1 $29 $2 #
transform $-1 1 0 0 0 1 0 0 0 1 69.430829798272654 38.669753549898871 9.0113377531149581 1 rotate no_reflect no_shear #
lump $-1 $-1 $30 $3 #
transform $-1 1 0 0 0 1 0 0 0 1 69.430829798272654 38.669753549898871 9.0113377531149581 1 rotate no_reflect no_shear #
lump $-1 $-1 $31 $4 #
transform $-1 1 0 0 0 1 0 0 0 1 69.430829798272654 38.669753549898871 9.0113377531149581 1 rotate no_reflect no_shear #
lump $-1 $-1 $32 $5 #
transform $-1 1 0 0 0 1 0 0 0 1 69.430829798272654 38.669753549898871 9.0113377531149581 1 rotate no_reflect no_shear #
lump $-1 $-1 $33 $6 #
transform $-1 1 0 0 0 1 0 0 0 1 69.430829798272654 38.669753549898871 9.0113377531149581 1 rotate no_reflect no_shear #
lump $-1 $-1 $34 $7 #
transform $-1 1 0 0 0 1 0 0 0 1 69.430829798272654 38.669753549898871 9.0113377531149581 1 rotate no_reflect no_shear #
lump $-1 $-1 $35 $8 #
transform $-1 1 0 0 0 1 0 0 0 1 69.430829798272654 38.669753549898871 9.0113377531149581 1 rotate no_reflect no_shear #
shell $-1 $-1 $-1 $36 $-1 $9 #
shell $-1 $-1 $-1 $37 $-1 $11 #
shell $-1 $-1 $-1 $38 $-1 $13 #
shell $-1 $-1 $-1 $39 $-1 $15 #
shell $-1 $-1 $-1 $40 $-1 $17 #
shell $-1 $-1 $-1 $41 $-1 $19 #
shell $-1 $-1 $-1 $42 $-1 $21 #
shell $-1 $-1 $-1 $43 $-1 $23 #
shell $-1 $-1 $-1 $44 $-1 $25 #
face $-1 $45 $46 $27 $-1 $47 forward single #
face $-1 $48 $49 $28 $-1 $50 forward single #
face $-1 $51 $52 $29 $-1 $53 forward single #
face $-1 $54 $55 $30 $-1 $56 reversed single #
face $-1 $57 $58 $31 $-1 $59 forward single #
face $-1 $60 $61 $32 $-1 $62 forward single #
face $-1 $63 $64 $33 $-1 $65 reversed single #
face $-1 $66 $67 $34 $-1 $68 forward single #
face $-1 $69 $70 $35 $-1 $71 forward single #
face $-1 $72 $73 $27 $-1 $74 reversed single #
loop $-1 $-1 $75 $36 #
plane-surface $-1 0 0 9.0113377531149581 0 0 1 1 0 0 forward_v I I I I #
face $-1 $76 $77 $28 $-1 $78 reversed single #
loop $-1 $-1 $79 $37 #
plane-surface $-1 -69.430829798272654 0 0 1 0 0 0 0 -1 forward_v I I I I #
face $-1 $80 $81 $29 $-1 $82 reversed single #
loop $-1 $-1 $83 $38 #
plane-surface $-1 69.430829798272654 0 0 -1 0 0 0 0 1 forward_v I I I I #
face $-1 $84 $85 $30 $-1 $86 reversed single #
loop $-1 $-1 $87 $39 #
plane-surface $-1 27.545319524626187 -110.18879633869139 124.0903546092905 -1 0 0 0 -0.51503808176128008 0.85716729658548041 forward_v I I I I #
face $-1 $88 $89 $31 $-1 $90 forward single #
loop $-1 $91 $92 $40 #
cone-surface $-1 4.1422168282245764 -34.971717818118016 6.3509905278583076 0 0.51503808176128008 -0.85716729658548041 1.5 0 0 1 I I 0 1 1.5 forward I I I I #
face $-1 $93 $94 $32 $-1 $95 forward single #
loop $-1 $96 $97 $41 #
cone-surface $-1 18.184078446065556 -34.971717818118016 6.3509905278583076 0 0.51503808176128008 -0.85716729658548041 1.5 0 0 1 I I 0 1 1.5 forward I I I I #
face $-1 $98 $99 $33 $-1 $100 reversed single #
loop $-1 $-1 $101 $42 #
plane-surface $-1 -56.399358500760513 76.810644582193163 157.32137486015574 1 0 0 0 -0.68199836817093118 -0.7313536940579346 forward_v I I I I #
face $-1 $102 $103 $34 $-1 $104 forward single #
loop $-1 $105 $106 $43 #
cone-surface $-1 -48.652834200824522 33.164644722543514 3.5571829448121259 0 -0.68199836817093118 -0.7313536940579346 2 0 0 1 I I 0 1 2 forward I I I I #
face $-1 $107 $108 $35 $-1 $109 forward single #
loop $-1 $110 $111 $44 #
cone-surface $-1 -37.033047750920531 33.164644722543514 3.5571829448121259 0 -0.68199836817093118 -0.7313536940579346 2 0 0 1 I I 0 1 2 forward I I I I #
face $-1 $112 $113 $27 $-1 $114 reversed single #
loop $-1 $-1 $115 $45 #
plane-surface $-1 0 0 -9.0113377531149581 0 0 1 1 0 0 forward_v I I I I #
coedge $-1 $116 $117 $118 $119 forward $46 $-1 #
face $-1 $120 $121 $28 $-1 $122 reversed single #
loop $-1 $-1 $123 $48 #
plane-surface $-1 0 0 -9.0113377531149581 0 0 1 1 0 0 forward_v I I I I #
coedge $-1 $124 $125 $126 $127 forward $49 $-1 #
face $-1 $128 $129 $29 $-1 $130 reversed single #
loop $-1 $-1 $131 $51 #
plane-surface $-1 0 0 -9.0113377531149581 0 0 1 1 0 0 forward_v I I I I #
coedge $-1 $132 $133 $134 $135 forward $52 $-1 #
face $-1 $136 $137 $30 $-1 $138 reversed single #
loop $-1 $-1 $139 $54 #
plane-surface $-1 11.163147637145059 -38.669753549898843 5.0626812535465291 0 -0.51503808176128008 0.85716729658548041 1 0 0 forward_v I I I I #
coedge $-1 $140 $141 $142 $143 reversed $55 $-1 #
face $-1 $-1 $144 $31 $-1 $145 forward single #
loop $-1 $146 $147 $57 #
cone-surface $-1 4.1422168282245764 -34.173237463067125 5.022096079946742 0 0.51503808176128008 -0.85716729658548041 0.75 0 0 1 I I -0.70710678118654757 0.70710678118654757 0.75 forward I I I I #
loop $-1 $-1 $148 $40 #
coedge $-1 $92 $92 $149 $150 reversed $58 $-1 #
face $-1 $-1 $151 $32 $-1 $152 forward single #
loop $-1 $153 $154 $60 #
cone-surface $-1 18.184078446065556 -34.173237463067125 5.022096079946742 0 0.51503808176128008 -0.85716729658548041 0.75 0 0 1 I I -0.70710678118654757 0.70710678118654757 0.75 forward I I I I #
loop $-1 $-1 $155 $41 #
coedge $-1 $97 $97 $156 $157 reversed $61 $-1 #
face $-1 $158 $159 $33 $-1 $160 reversed single #
loop $-1 $-1 $161 $63 #
plane-surface $-1 -42.84294097587253 -17.892780664158067 55.76438715120689 0 0.68199836817093118 0.7313536940579346 1 0 0 forward_v I I I I #
coedge $-1 $162 $163 $164 $165 reversed $64 $-1 #
face $-1 $-1 $166 $34 $-1 $167 forward single #
loop $-1 $168 $169 $66 #
cone-surface $-1 -48.652834200824522 30.190551554884564 0.3678585620085002 0 -0.68199836817093118 -0.7313536940579346 1 0 0 1 I I -0.70710678118654735 0.70710678118654768 1 forward I I I I #
loop $-1 $-1 $170 $43 #
coedge $-1 $106 $106 $171 $172 reversed $67 $-1 #
face $-1 $-1 $173 $35 $-1 $174 forward single #
loop $-1 $175 $176 $69 #
cone-surface $-1 -37.033047750920531 30.190551554884564 0.3678585620085002 0 -0.68199836817093118 -0.7313536940579346 1 0 0 1 I I -0.70710678118654735 0.70710678118654768 1 forward I I I I #
loop $-1 $-1 $177 $44 #
coedge $-1 $111 $111 $178 $179 reversed $70 $-1 #
face $-1 $180 $181 $27 $-1 $182 reversed single #
loop $-1 $-1 $183 $72 #
plane-surface $-1 0 -38.669753549898871 0 0 1 0 0 0 1 forward_v I I I I #
coedge $-1 $184 $185 $186 $187 forward $73 $-1 #
coedge $-1 $188 $75 $189 $190 forward $46 $-1 #
coedge $-1 $75 $188 $191 $192 forward $46 $-1 #
coedge $-1 $193 $194 $75 $119 reversed $195 $-1 #
edge $-1 $196 -38.669753549898871 $197 38.669753549898871 $118 $198 forward 7 unknown #
face $-1 $199 $200 $28 $-1 $201 reversed single #
loop $-1 $-1 $202 $76 #
plane-surface $-1 -73.571851222607236 -25.817149852376176 0 0 1 0 0 0 1 forward_v I I I I #
coedge $-1 $203 $204 $125 $205 forward $77 $-1 #
coedge $-1 $206 $79 $207 $208 reversed $49 $-1 #
coedge $-1 $79 $206 $123 $205 reversed $49 $-1 #
coedge $-1 $209 $210 $79 $127 reversed $211 $-1 #
edge $-1 $212 -9.0113377531149581 $213 9.0113377531149581 $126 $214 forward 7 unknown #
face $-1 $215 $216 $29 $-1 $217 reversed single #
loop $-1 $-1 $134 $80 #
plane-surface $-1 73.571851222607236 -25.817149852376176 0 0 1 0 0 0 1 forward_v I I I I #
coedge $-1 $218 $219 $133 $220 forward $81 $-1 #
coedge $-1 $221 $83 $222 $223 reversed $52 $-1 #
coedge $-1 $83 $221 $131 $220 reversed $52 $-1 #
coedge $-1 $224 $225 $83 $135 reversed $129 $-1 #
edge $-1 $226 -9.0113377531149581 $227 9.0113377531149581 $134 $228 forward 7 unknown #
face $-1 $229 $230 $30 $-1 $231 forward single #
loop $-1 $-1 $232 $84 #
plane-surface $-1 -5.2190242503360693 -110.18879633869139 124.0903546092905 1 0 0 0 0.51503808176128008 -0.85716729658548041 forward_v I I I I #
coedge $-1 $233 $234 $235 $236 reversed $85 $-1 #
coedge $-1 $141 $87 $237 $238 reversed $55 $-1 #
coedge $-1 $87 $140 $233 $239 reversed $55 $-1 #
coedge $-1 $235 $240 $87 $143 forward $230 $-1 #
edge $-1 $241 16.424644619446823 $242 22.996312495548764 $142 $243 forward 7 unknown #
loop $-1 $-1 $149 $88 #
plane-surface $-1 11.163147637145059 -38.669753549898843 5.0626812535465291 0 -0.51503808176128008 0.85716729658548041 1 0 0 forward_v I I I I #
loop $-1 $-1 $244 $57 #
coedge $-1 $147 $147 $148 $245 reversed $89 $-1 #
coedge $-1 $148 $148 $147 $245 forward $91 $-1 #
coedge $-1 $149 $149 $92 $150 forward $144 $-1 #
edge $-1 $246 -1.6031771857865399e-015 $246 6.2831853071795987 $149 $247 forward 7 unknown #
loop $-1 $-1 $156 $93 #
plane-surface $-1 11.163147637145059 -38.669753549898843 5.0626812535465291 0 -0.51503808176128008 0.85716729658548041 1 0 0 forward_v I I I I #
loop $-1 $-1 $248 $60 #
coedge $-1 $154 $154 $155 $249 reversed $94 $-1 #
coedge $-1 $155 $155 $154 $249 forward $96 $-1 #
coedge $-1 $156 $156 $97 $157 forward $151 $-1 #
edge $-1 $250 -1.6031771857865399e-015 $250 6.2831853071795987 $156 $251 forward 7 unknown #
face $-1 $252 $253 $33 $-1 $254 reversed single #
loop $-1 $-1 $255 $98 #
plane-surface $-1 -29.286523450984546 76.810644582193163 157.32137486015574 -1 0 0 0 0.68199836817093118 0.7313536940579346 forward_v I I I I #
coedge $-1 $256 $257 $258 $259 reversed $99 $-1 #
coedge $-1 $163 $101 $260 $261 reversed $64 $-1 #
coedge $-1 $101 $162 $256 $262 reversed $64 $-1 #
coedge $-1 $258 $263 $101 $165 forward $264 $-1 #
edge $-1 $265 -0.2644312588022899 $266 6.161596796932379 $164 $267 forward 7 unknown #
loop $-1 $-1 $171 $102 #
plane-surface $-1 -42.84294097587253 -17.892780664158067 55.76438715120689 0 0.68199836817093118 0.7313536940579346 1 0 0 forward_v I I I I #
loop $-1 $-1 $268 $66 #
coedge $-1 $169 $169 $170 $269 reversed $103 $-1 #
coedge $-1 $170 $170 $169 $269 forward $105 $-1 #
coedge $-1 $171 $171 $106 $172 forward $166 $-1 #
edge $-1 $270 -2.4707674978812531e-015 $270 6.2831853071795978 $171 $271 forward 7 unknown #
loop $-1 $-1 $178 $107 #
plane-surface $-1 -42.84294097587253 -17.892780664158067 55.76438715120689 0 0.68199836817093118 0.7313536940579346 1 0 0 forward_v I I I I #
loop $-1 $-1 $272 $69 #
coedge $-1 $176 $176 $177 $273 reversed $108 $-1 #
coedge $-1 $177 $177 $176 $273 forward $110 $-1 #
coedge $-1 $178 $178 $111 $179 forward $173 $-1 #
edge $-1 $274 -2.4707674978812531e-015 $274 6.2831853071795978 $178 $275 forward 7 unknown #
face $-1 $276 $277 $27 $-1 $278 reversed single #
loop $-1 $-1 $279 $112 #
plane-surface $-1 -69.430829798272654 0 0 1 0 0 0 0 -1 forward_v I I I I #
coedge $-1 $280 $191 $281 $282 forward $113 $-1 #
coedge $-1 $283 $115 $280 $284 forward $73 $-1 #
coedge $-1 $115 $283 $285 $286 forward $73 $-1 #
coedge $-1 $194 $193 $115 $187 reversed $195 $-1 #
edge $-1 $287 -38.669753549898871 $288 38.669753549898871 $186 $289 forward 7 unknown #
coedge $-1 $117 $116 $290 $291 forward $46 $-1 #
coedge $-1 $292 $293 $116 $190 reversed $277 $-1 #
edge $-1 $197 -69.430829798272654 $294 69.430829798272654 $189 $295 forward 7 unknown #
coedge $-1 $183 $296 $117 $192 reversed $113 $-1 #
edge $-1 $297 -69.430829798272654 $196 69.430829798272654 $191 $298 forward 7 unknown #
coedge $-1 $186 $118 $296 $299 forward $195 $-1 #
coedge $-1 $118 $186 $292 $300 reversed $195 $-1 #
loop $-1 $-1 $193 $276 #
vertex $-1 $119 $301 #
vertex $-1 $119 $302 #
straight-curve $-1 69.430829798272654 0 9.0113377531149581 0 1 0 I I #
face $-1 $303 $211 $28 $-1 $304 reversed single #
loop $-1 $-1 $305 $120 #
plane-surface $-1 -77.712872646941818 -23.232113948022565 0 1 0 0 0 0 -1 forward_v I I I I #
coedge $-1 $306 $307 $308 $309 forward $121 $-1 #
coedge $-1 $310 $123 $306 $311 forward $77 $-1 #
coedge $-1 $123 $310 $209 $312 forward $77 $-1 #
edge $-1 $212 20.647078043668955 $313 25.817149852376176 $123 $314 forward 7 unknown #
coedge $-1 $125 $124 $315 $316 forward $49 $-1 #
coedge $-1 $317 $318 $124 $208 forward $319 $-1 #
edge $-1 $320 -25.817149852376176 $213 -20.647078043668955 $207 $321 forward 7 unknown #
coedge $-1 $322 $126 $204 $312 reversed $211 $-1 #
coedge $-1 $126 $322 $317 $323 reversed $211 $-1 #
loop $-1 $-1 $126 $199 #
vertex $-1 $205 $324 #
vertex $-1 $323 $325 #
straight-curve $-1 -69.430829798272654 -20.647078043668955 0 0 0 1 I I #
face $-1 $326 $327 $29 $-1 $328 reversed single #
loop $-1 $-1 $329 $128 #
plane-surface $-1 73.571851222607236 -20.647078043668955 0 0 -1 0 0 0 -1 forward_v I I I I #
coedge $-1 $330 $131 $331 $332 forward $81 $-1 #
coedge $-1 $131 $330 $224 $333 forward $81 $-1 #
edge $-1 $226 -25.817149852376176 $334 -20.647078043668955 $131 $335 forward 7 unknown #
coedge $-1 $133 $132 $336 $337 forward $52 $-1 #
coedge $-1 $338 $339 $132 $223 forward $340 $-1 #
edge $-1 $341 20.647078043668955 $227 25.817149852376176 $222 $342 forward 7 unknown #
coedge $-1 $343 $134 $219 $333 reversed $129 $-1 #
coedge $-1 $134 $343 $338 $344 reversed $129 $-1 #
vertex $-1 $220 $345 #
vertex $-1 $344 $346 #
straight-curve $-1 69.430829798272654 -25.817149852376176 0 0 0 1 I I #
face $-1 $-1 $347 $30 $-1 $348 reversed single #
loop $-1 $-1 $142 $136 #
plane-surface $-1 0 0 9.0113377531149581 0 0 1 1 0 0 forward_v I I I I #
coedge $-1 $349 $350 $351 $352 reversed $137 $-1 #
coedge $-1 $353 $139 $141 $239 forward $85 $-1 #
coedge $-1 $139 $353 $349 $354 forward $85 $-1 #
coedge $-1 $351 $142 $139 $236 forward $230 $-1 #
edge $-1 $242 -21.963745706053658 $355 10.800598068908599 $235 $356 forward 7 unknown #
coedge $-1 $357 $358 $140 $238 forward $347 $-1 #
edge $-1 $359 -56.982496051098735 $241 -53.033839551530292 $237 $360 forward 7 unknown #
edge $-1 $242 -7.6667272564878566 $359 3.3053628318135693e-014 $141 $361 forward 7 unknown #
coedge $-1 $142 $351 $357 $362 forward $230 $-1 #
vertex $-1 $143 $363 #
vertex $-1 $143 $364 #
straight-curve $-1 27.545319524626187 -55.094398169345695 9.0113377531149581 0 1 0 I I #
coedge $-1 $244 $244 $-1 $365 reversed $146 $-1 #
edge $-1 $366 0 $366 6.2831853071796004 $147 $367 forward 7 unknown #
vertex $-1 $150 $368 #
ellipse-curve $-1 4.1422168282245764 -35.383919611847922 7.0370095033307205 0 -0.51503808176128008 0.85716729658548041 1.5 0 0 1 I I #
coedge $-1 $248 $248 $-1 $369 reversed $153 $-1 #
edge $-1 $370 0 $370 6.2831853071796004 $154 $371 forward 7 unknown #
vertex $-1 $157 $372 #
ellipse-curve $-1 18.184078446065556 -35.383919611847922 7.0370095033307205 0 -0.51503808176128008 0.85716729658548041 1.5 0 0 1 I I #
face $-1 $-1 $264 $33 $-1 $373 forward single #
loop $-1 $-1 $374 $158 #
plane-surface $-1 0 38.669753549898871 0 0 -1 0 0 0 -1 forward_v I I I I #
coedge $-1 $375 $376 $377 $378 reversed $159 $-1 #
coedge $-1 $379 $161 $163 $262 forward $99 $-1 #
coedge $-1 $161 $379 $375 $380 forward $99 $-1 #
coedge $-1 $377 $164 $161 $259 forward $264 $-1 #
edge $-1 $266 -34.977888012824252 $381 -7.8650529630482815 $258 $382 forward 7 unknown #
coedge $-1 $383 $384 $162 $261 forward $253 $-1 #
edge $-1 $385 -75.641717916077198 $265 -69.649349676962913 $260 $386 forward 7 unknown #
edge $-1 $266 68.553022382561011 $385 77.339507099797743 $163 $387 forward 7 unknown #
coedge $-1 $164 $377 $383 $388 forward $264 $-1 #
loop $-1 $-1 $377 $252 #
vertex $-1 $261 $389 #
vertex $-1 $165 $390 #
straight-curve $-1 -56.399358500760513 38.405322291096581 9.0113377531149581 0 -1 0 I I #
coedge $-1 $268 $268 $-1 $391 reversed $168 $-1 #
edge $-1 $392 0 $392 6.2831853071796004 $169 $393 forward 7 unknown #
vertex $-1 $172 $394 #
ellipse-curve $-1 -48.652834200824522 35.45673952203154 6.0151536335578246 0 0.68199836817093118 0.7313536940579346 2 0 0 1 I I #
coedge $-1 $272 $272 $-1 $395 reversed $175 $-1 #
edge $-1 $396 0 $396 6.2831853071796004 $176 $397 forward 7 unknown #
vertex $-1 $179 $398 #
ellipse-curve $-1 -37.033047750920531 35.45673952203154 6.0151536335578246 0 0.68199836817093118 0.7313536940579346 2 0 0 1 I I #
face $-1 $-1 $195 $27 $-1 $399 reversed single #
loop $-1 $-1 $292 $180 #
plane-surface $-1 0 38.669753549898871 0 0 -1 0 0 0 -1 forward_v I I I I #
coedge $-1 $400 $290 $293 $401 forward $181 $-1 #
coedge $-1 $296 $183 $184 $284 reversed $113 $-1 #
coedge $-1 $290 $400 $183 $282 reversed $181 $-1 #
edge $-1 $297 -9.0113377531149581 $402 9.0113377531149581 $281 $403 forward 7 unknown #
coedge $-1 $185 $184 $400 $404 forward $73 $-1 #
edge $-1 $288 -69.430829798272654 $402 69.430829798272654 $280 $405 forward 7 unknown #
coedge $-1 $293 $292 $185 $286 reversed $277 $-1 #
edge $-1 $406 -69.430829798272654 $287 69.430829798272654 $285 $407 forward 7 unknown #
vertex $-1 $187 $408 #
vertex $-1 $299 $409 #
straight-curve $-1 69.430829798272654 0 -9.0113377531149581 0 -1 0 I I #
coedge $-1 $279 $281 $188 $291 reversed $181 $-1 #
edge $-1 $294 -38.669753549898871 $297 38.669753549898871 $290 $410 forward 7 unknown #
coedge $-1 $285 $189 $194 $300 forward $277 $-1 #
coedge $-1 $189 $285 $279 $401 reversed $277 $-1 #
vertex $-1 $190 $411 #
straight-curve $-1 0 38.669753549898871 9.0113377531149581 -1 0 0 I I #
coedge $-1 $191 $280 $193 $299 reversed $113 $-1 #
vertex $-1 $291 $412 #
straight-curve $-1 0 -38.669753549898871 9.0113377531149581 1 0 0 I I #
edge $-1 $196 -9.0113377531149581 $288 9.0113377531149581 $193 $413 forward 7 unknown #
edge $-1 $197 -9.0113377531149581 $287 9.0113377531149581 $194 $414 forward 7 unknown #
point $-1 69.430829798272654 -38.669753549898871 9.0113377531149581 #
point $-1 69.430829798272654 38.669753549898871 9.0113377531149581 #
face $-1 $-1 $319 $28 $-1 $415 forward single #
plane-surface $-1 -73.571851222607236 -20.647078043668955 0 0 -1 0 0 0 -1 forward_v I I I I #
coedge $-1 $416 $417 $322 $418 forward $200 $-1 #
coedge $-1 $315 $202 $203 $311 reversed $121 $-1 #
coedge $-1 $202 $315 $318 $419 reversed $121 $-1 #
coedge $-1 $417 $416 $202 $309 reversed $200 $-1 #
edge $-1 $420 -9.0113377531149581 $421 9.0113377531149581 $308 $422 forward 7 unknown #
coedge $-1 $204 $203 $416 $423 forward $77 $-1 #
edge $-1 $313 -4.141021424334582 $421 4.141021424334582 $306 $424 forward 7 unknown #
edge $-1 $425 -4.141021424334582 $212 4.141021424334582 $209 $426 forward 7 unknown #
vertex $-1 $311 $427 #
straight-curve $-1 -69.430829798272654 0 -9.0113377531149581 0 -1 0 I I #
coedge $-1 $307 $306 $206 $316 reversed $121 $-1 #
edge $-1 $320 -9.0113377531149581 $313 9.0113377531149581 $315 $428 forward 7 unknown #
coedge $-1 $429 $207 $210 $323 forward $319 $-1 #
coedge $-1 $207 $429 $307 $419 forward $319 $-1 #
loop $-1 $-1 $207 $303 #
vertex $-1 $208 $430 #
straight-curve $-1 -69.430829798272654 0 9.0113377531149581 0 1 0 I I #
coedge $-1 $210 $209 $305 $418 reversed $211 $-1 #
edge $-1 $213 -4.141021424334582 $431 4.141021424334582 $210 $432 forward 7 unknown #
point $-1 -69.430829798272654 -20.647078043668955 -9.0113377531149581 #
point $-1 -69.430829798272654 -20.647078043668955 9.0113377531149581 #
face $-1 $-1 $340 $29 $-1 $433 forward single #
loop $-1 $-1 $434 $215 #
plane-surface $-1 77.712872646941818 -23.232113948022565 0 -1 0 0 0 0 1 forward_v I I I I #
coedge $-1 $331 $435 $436 $437 forward $216 $-1 #
coedge $-1 $219 $218 $438 $439 forward $81 $-1 #
coedge $-1 $336 $329 $218 $332 reversed $216 $-1 #
edge $-1 $334 -4.141021424334582 $440 4.141021424334582 $331 $441 forward 7 unknown #
edge $-1 $442 -4.141021424334582 $226 4.141021424334582 $224 $443 forward 7 unknown #
vertex $-1 $332 $444 #
straight-curve $-1 69.430829798272654 0 -9.0113377531149581 0 1 0 I I #
coedge $-1 $435 $331 $221 $337 reversed $216 $-1 #
edge $-1 $341 -9.0113377531149581 $334 9.0113377531149581 $336 $445 forward 7 unknown #
coedge $-1 $446 $222 $225 $344 forward $340 $-1 #
coedge $-1 $222 $446 $435 $447 forward $340 $-1 #
loop $-1 $-1 $222 $326 #
vertex $-1 $223 $448 #
straight-curve $-1 69.430829798272654 0 9.0113377531149581 0 -1 0 I I #
coedge $-1 $225 $224 $434 $449 reversed $129 $-1 #
edge $-1 $227 -4.141021424334582 $450 4.141021424334582 $225 $451 forward 7 unknown #
point $-1 69.430829798272654 -25.817149852376176 -9.0113377531149581 #
point $-1 69.430829798272654 -25.817149852376176 9.0113377531149581 #
loop $-1 $-1 $237 $229 #
plane-surface $-1 0 -38.669753549898871 0 0 1 0 0 0 1 forward_v I I I I #
coedge $-1 $350 $232 $234 $354 reversed $137 $-1 #
coedge $-1 $232 $349 $452 $453 reversed $137 $-1 #
coedge $-1 $240 $235 $232 $352 forward $230 $-1 #
edge $-1 $355 -22.996312495548764 $454 -16.424644619446823 $351 $455 forward 7 unknown #
coedge $-1 $234 $233 $358 $456 reversed $85 $-1 #
edge $-1 $457 -3.3053628318135693e-014 $355 7.6667272564878566 $349 $458 forward 7 unknown #
vertex $-1 $236 $459 #
straight-curve $-1 5.5815738185725294 -32.098085673796923 9.0113377531149581 -1 0 0 I I #
coedge $-1 $452 $237 $240 $362 reversed $347 $-1 #
coedge $-1 $237 $452 $353 $456 forward $347 $-1 #
vertex $-1 $238 $460 #
straight-curve $-1 27.545319524626187 -38.669753549898871 62.04517730464525 0 0 1 I I #
straight-curve $-1 27.545319524626187 -38.669753549898843 5.0626812535465291 0 -0.85716729658548041 -0.51503808176128008 I I #
edge $-1 $454 -5.2190242503360693 $241 27.545319524626187 $357 $461 forward 7 unknown #
point $-1 27.545319524626187 -38.669753549898871 9.0113377531149581 #
point $-1 27.545319524626187 -32.09808567379693 9.0113377531149581 #
edge $-1 $462 1 $462 0 $244 $-1 forward 7 unknown #
vertex $-1 $245 $463 #
ellipse-curve $-1 4.1422168282245764 -34.559516024388081 5.6649715523858521 0 -0.51503808176128008 0.85716729658548041 1.5 0 0 1 I I #
point $-1 5.6422168282245764 -35.383919611847951 7.0370095033307631 #
edge $-1 $464 1 $464 0 $248 $-1 forward 7 unknown #
vertex $-1 $249 $465 #
ellipse-curve $-1 18.184078446065556 -34.559516024388081 5.6649715523858521 0 -0.51503808176128008 0.85716729658548041 1.5 0 0 1 I I #
point $-1 19.684078446065556 -35.383919611847951 7.0370095033307631 #
plane-surface $-1 0 0 9.0113377531149581 0 0 1 1 0 0 forward_v I I I I #
coedge $-1 $384 $383 $376 $466 forward $253 $-1 #
coedge $-1 $376 $255 $257 $380 reversed $159 $-1 #
coedge $-1 $255 $375 $374 $466 reversed $159 $-1 #
coedge $-1 $263 $258 $255 $378 forward $264 $-1 #
edge $-1 $381 -6.161596796932379 $467 0.2644312588022899 $377 $468 forward 7 unknown #
coedge $-1 $257 $256 $384 $469 reversed $99 $-1 #
edge $-1 $470 -77.339507099797743 $381 -68.553022382561011 $375 $471 forward 7 unknown #
vertex $-1 $259 $472 #
straight-curve $-1 -21.421470487936265 32.24372549416421 9.0113377531149546 1 0 0 I I #
coedge $-1 $374 $260 $263 $388 reversed $253 $-1 #
coedge $-1 $260 $374 $379 $469 forward $253 $-1 #
vertex $-1 $261 $473 #
straight-curve $-1 -56.399358500760513 38.669753549898871 78.660687430077871 0 0 1 I I #
straight-curve $-1 -56.399358500760513 -17.892780664158067 55.76438715120689 0 0.7313536940579346 -0.68199836817093118 I I #
edge $-1 $467 29.286523450984546 $265 56.399358500760513 $383 $474 forward 7 unknown #
point $-1 -56.399358500760513 38.669753549898871 9.0113377531149581 #
point $-1 -56.399358500760513 32.243725494164202 9.0113377531149581 #
edge $-1 $475 1 $475 0 $268 $-1 forward 7 unknown #
vertex $-1 $269 $476 #
ellipse-curve $-1 -48.652834200824522 30.872549923055495 1.0992122560664352 0 0.68199836817093118 0.7313536940579346 2 0 0 1 I I #
point $-1 -46.652834200824522 35.456739522031526 6.0151536335578166 #
edge $-1 $477 1 $477 0 $272 $-1 forward 7 unknown #
vertex $-1 $273 $478 #
ellipse-curve $-1 -37.033047750920531 30.872549923055495 1.0992122560664352 0 0.68199836817093118 0.7313536940579346 2 0 0 1 I I #
point $-1 -35.033047750920531 35.456739522031526 6.0151536335578166 #
plane-surface $-1 69.430829798272654 0 0 -1 0 0 0 0 1 forward_v I I I I #
coedge $-1 $281 $279 $283 $404 reversed $181 $-1 #
edge $-1 $294 -9.0113377531149581 $406 9.0113377531149581 $293 $479 forward 7 unknown #
vertex $-1 $404 $480 #
straight-curve $-1 -69.430829798272654 -38.669753549898871 0 0 0 -1 I I #
edge $-1 $402 -38.669753549898871 $406 38.669753549898871 $400 $481 forward 7 unknown #
straight-curve $-1 0 -38.669753549898871 -9.0113377531149581 -1 0 0 I I #
vertex $-1 $286 $482 #
straight-curve $-1 0 38.669753549898871 -9.0113377531149581 1 0 0 I I #
point $-1 69.430829798272654 38.669753549898871 -9.0113377531149581 #
point $-1 69.430829798272654 -38.669753549898871 -9.0113377531149581 #
straight-curve $-1 -69.430829798272654 0 9.0113377531149581 0 -1 0 I I #
point $-1 -69.430829798272654 38.669753549898871 9.0113377531149581 #
point $-1 -69.430829798272654 -38.669753549898871 9.0113377531149581 #
straight-curve $-1 69.430829798272654 -38.669753549898871 0 0 0 -1 I I #
straight-curve $-1 69.430829798272654 38.669753549898871 0 0 0 -1 I I #
plane-surface $-1 0 0 9.0113377531149581 0 0 1 1 0 0 forward_v I I I I #
coedge $-1 $308 $305 $310 $423 reversed $200 $-1 #
coedge $-1 $305 $308 $429 $483 reversed $200 $-1 #
edge $-1 $431 -9.0113377531149581 $425 9.0113377531149581 $322 $484 forward 7 unknown #
edge $-1 $420 -4.141021424334582 $320 4.141021424334582 $307 $485 forward 7 unknown #
vertex $-1 $483 $486 #
vertex $-1 $423 $487 #
straight-curve $-1 -77.712872646941818 -25.817149852376176 0 0 0 -1 I I #
edge $-1 $421 -2.5850359043536102 $425 2.5850359043536102 $416 $488 forward 7 unknown #
straight-curve $-1 -73.571851222607236 -25.817149852376176 -9.0113377531149581 -1 0 0 I I #
vertex $-1 $312 $489 #
straight-curve $-1 -73.571851222607236 -20.647078043668955 -9.0113377531149581 1 0 0 I I #
point $-1 -69.430829798272654 -25.817149852376176 -9.0113377531149581 #
straight-curve $-1 -69.430829798272654 -25.817149852376176 0 0 0 -1 I I #
coedge $-1 $318 $317 $417 $483 forward $319 $-1 #
point $-1 -69.430829798272654 -25.817149852376176 9.0113377531149581 #
vertex $-1 $323 $490 #
straight-curve $-1 -73.571851222607236 -20.647078043668955 9.0113377531149581 -1 0 0 I I #
plane-surface $-1 0 0 9.0113377531149581 0 0 1 1 0 0 forward_v I I I I #
coedge $-1 $438 $491 $343 $449 forward $327 $-1 #
coedge $-1 $329 $336 $339 $447 reversed $216 $-1 #
coedge $-1 $491 $438 $329 $437 reversed $327 $-1 #
edge $-1 $492 -9.0113377531149581 $440 9.0113377531149581 $436 $493 forward 7 unknown #
coedge $-1 $436 $434 $330 $439 reversed $327 $-1 #
edge $-1 $440 -2.5850359043536102 $442 2.5850359043536102 $438 $494 forward 7 unknown #
vertex $-1 $439 $495 #
straight-curve $-1 73.571851222607236 -20.647078043668955 -9.0113377531149581 1 0 0 I I #
vertex $-1 $449 $496 #
straight-curve $-1 73.571851222607236 -25.817149852376176 -9.0113377531149581 -1 0 0 I I #
point $-1 69.430829798272654 -20.647078043668955 -9.0113377531149581 #
straight-curve $-1 69.430829798272654 -20.647078043668955 0 0 0 -1 I I #
coedge $-1 $339 $338 $491 $497 forward $340 $-1 #
edge $-1 $492 -4.141021424334582 $341 4.141021424334582 $435 $498 forward 7 unknown #
point $-1 69.430829798272654 -20.647078043668955 9.0113377531149581 #
edge $-1 $450 -9.0113377531149581 $442 9.0113377531149581 $434 $499 forward 7 unknown #
vertex $-1 $497 $500 #
straight-curve $-1 73.571851222607236 -25.817149852376176 9.0113377531149581 1 0 0 I I #
coedge $-1 $358 $357 $350 $453 forward $347 $-1 #
edge $-1 $454 53.033839551530292 $457 56.982496051098735 $452 $501 forward 7 unknown #
vertex $-1 $362 $502 #
straight-curve $-1 -5.2190242503360693 -55.094398169345695 9.0113377531149581 0 -1 0 I I #
edge $-1 $457 -10.800598068908599 $359 21.963745706053658 $358 $503 forward 7 unknown #
vertex $-1 $456 $504 #
straight-curve $-1 -5.2190242503360693 -38.669753549898843 5.0626812535465291 0 0.85716729658548041 0.51503808176128008 I I #
point $-1 -5.2190242503360693 -32.09808567379693 9.0113377531149581 #
point $-1 27.545319524626187 -38.669753549898871 5.0626812535465122 #
straight-curve $-1 0 -38.669753549898871 9.0113377531149581 1 0 0 I I #
vertex $-1 $365 $505 #
point $-1 5.6422168282245764 -34.559516024388081 5.6649715523858521 #
vertex $-1 $369 $506 #
point $-1 19.684078446065556 -34.559516024388081 5.6649715523858521 #
edge $-1 $467 69.649349676962913 $470 75.641717916077198 $374 $507 forward 7 unknown #
vertex $-1 $388 $508 #
straight-curve $-1 -29.286523450984546 38.405322291096581 9.0113377531149581 0 1 0 I I #
edge $-1 $470 7.8650529630482815 $385 34.977888012824252 $384 $509 forward 7 unknown #
vertex $-1 $469 $510 #
straight-curve $-1 -29.286523450984546 -17.892780664158067 55.76438715120689 0 -0.7313536940579346 0.68199836817093118 I I #
point $-1 -29.286523450984546 32.243725494164202 9.0113377531149581 #
point $-1 -56.399358500760513 38.669753549898871 3.0189695140006805 #
straight-curve $-1 0 38.669753549898871 9.0113377531149581 -1 0 0 I I #
vertex $-1 $391 $511 #
point $-1 -46.652834200824522 30.872549923055495 1.0992122560664352 #
vertex $-1 $395 $512 #
point $-1 -35.033047750920531 30.872549923055495 1.0992122560664352 #
straight-curve $-1 -69.430829798272654 38.669753549898871 0 0 0 -1 I I #
point $-1 -69.430829798272654 -38.669753549898871 -9.0113377531149581 #
straight-curve $-1 -69.430829798272654 0 -9.0113377531149581 0 1 0 I I #
point $-1 -69.430829798272654 38.669753549898871 -9.0113377531149581 #
edge $-1 $431 -2.5850359043536102 $420 2.5850359043536102 $417 $513 forward 7 unknown #
straight-curve $-1 -77.712872646941818 -20.647078043668955 0 0 0 -1 I I #
straight-curve $-1 -73.571851222607236 -25.817149852376176 9.0113377531149581 1 0 0 I I #
point $-1 -77.712872646941818 -25.817149852376176 9.0113377531149581 #
point $-1 -77.712872646941818 -25.817149852376176 -9.0113377531149581 #
straight-curve $-1 -77.712872646941818 -23.232113948022565 -9.0113377531149581 0 1 0 I I #
point $-1 -77.712872646941818 -20.647078043668955 -9.0113377531149581 #
point $-1 -77.712872646941818 -20.647078043668955 9.0113377531149581 #
coedge $-1 $434 $436 $446 $497 reversed $327 $-1 #
vertex $-1 $497 $514 #
straight-curve $-1 77.712872646941818 -20.647078043668955 0 0 0 -1 I I #
straight-curve $-1 77.712872646941818 -23.232113948022565 -9.0113377531149581 0 -1 0 I I #
point $-1 77.712872646941818 -20.647078043668955 -9.0113377531149581 #
point $-1 77.712872646941818 -25.817149852376176 -9.0113377531149581 #
edge $-1 $450 -2.5850359043536102 $492 2.5850359043536102 $491 $515 forward 7 unknown #
straight-curve $-1 73.571851222607236 -20.647078043668955 9.0113377531149581 -1 0 0 I I #
straight-curve $-1 77.712872646941818 -25.817149852376176 0 0 0 -1 I I #
point $-1 77.712872646941818 -25.817149852376176 9.0113377531149581 #
straight-curve $-1 -5.2190242503360693 -38.669753549898871 62.04517730464525 0 0 -1 I I #
point $-1 -5.2190242503360693 -38.669753549898871 9.0113377531149581 #
straight-curve $-1 5.5815738185725294 -38.669753549898871 5.0626812535465122 1 0 0 I I #
point $-1 -5.2190242503360693 -38.669753549898871 5.0626812535465122 #
point $-1 4.1422168282245764 -33.786958901746168 4.3792206075076319 #
point $-1 18.184078446065556 -33.786958901746168 4.3792206075076319 #
straight-curve $-1 -29.286523450984546 38.669753549898871 78.660687430077871 0 0 -1 I I #
point $-1 -29.286523450984546 38.669753549898871 9.0113377531149581 #
straight-curve $-1 -21.421470487936265 38.669753549898871 3.0189695140006805 -1 0 0 I I #
point $-1 -29.286523450984546 38.669753549898871 3.0189695140006805 #
point $-1 -48.652834200824522 29.508553186713634 -0.36349513204943473 #
point $-1 -37.033047750920531 29.508553186713634 -0.36349513204943473 #
straight-curve $-1 -77.712872646941818 -23.232113948022565 9.0113377531149581 0 -1 0 I I #
point $-1 77.712872646941818 -20.647078043668955 9.0113377531149581 #
straight-curve $-1 77.712872646941818 -23.232113948022565 9.0113377531149581 0 1 0 I I #
End-of-ACIS-data 