500 0 7 0           
7 Unknown 11 ACIS 5.0 NT 24 Fri Mar 26 19:24:46 1999 
-1 9.9999999999999995e-007 1e-010 
body $-1 $7 $-1 $8 #
body $-1 $9 $-1 $10 #
body $-1 $11 $-1 $12 #
body $-1 $13 $-1 $14 #
body $-1 $15 $-1 $16 #
body $-1 $17 $-1 $18 #
body $-1 $19 $-1 $20 #
lump $-1 $-1 $21 $0 #
transform $-1 1 0 0 0 1 0 0 0 1 41.424604022339551 24.676634214095046 11.82658966942804 1 rotate no_reflect no_shear #
lump $-1 $-1 $22 $1 #
transform $-1 1 0 0 0 1 0 0 0 1 41.424604022339551 24.676634214095046 11.82658966942804 1 rotate no_reflect no_shear #
lump $-1 $-1 $23 $2 #
transform $-1 1 0 0 0 1 0 0 0 1 41.424604022339551 24.676634214095046 11.82658966942804 1 rotate no_reflect no_shear #
lump $-1 $-1 $24 $3 #
transform $-1 1 0 0 0 1 0 0 0 1 41.424604022339551 24.676634214095046 11.82658966942804 1 rotate no_reflect no_shear #
lump $-1 $-1 $25 $4 #
transform $-1 1 0 0 0 1 0 0 0 1 41.424604022339551 24.676634214095046 11.82658966942804 1 rotate no_reflect no_shear #
lump $-1 $-1 $26 $5 #
transform $-1 1 0 0 0 1 0 0 0 1 41.424604022339551 24.676634214095046 11.82658966942804 1 rotate no_reflect no_shear #
lump $-1 $-1 $27 $6 #
transform $-1 1 0 0 0 1 0 0 0 1 41.424604022339551 24.676634214095046 11.82658966942804 1 rotate no_reflect no_shear #
shell $-1 $-1 $-1 $28 $-1 $7 #
shell $-1 $-1 $-1 $29 $-1 $9 #
shell $-1 $-1 $-1 $30 $-1 $11 #
shell $-1 $-1 $-1 $31 $-1 $13 #
shell $-1 $-1 $-1 $32 $-1 $15 #
shell $-1 $-1 $-1 $33 $-1 $17 #
shell $-1 $-1 $-1 $34 $-1 $19 #
face $-1 $35 $36 $21 $-1 $37 reversed single #
face $-1 $38 $39 $22 $-1 $40 forward single #
face $-1 $41 $42 $23 $-1 $43 forward single #
face $-1 $44 $45 $24 $-1 $46 reversed single #
face $-1 $47 $48 $25 $-1 $49 forward single #
face $-1 $50 $51 $26 $-1 $52 reversed single #
face $-1 $53 $54 $27 $-1 $55 forward single #
face $-1 $56 $57 $21 $-1 $58 forward single #
loop $-1 $-1 $59 $28 #
plane-surface $-1 41.424604022339551 0 0 -1 0 0 0 0 1 forward_v I I I I #
face $-1 $60 $61 $22 $-1 $62 reversed single #
loop $-1 $-1 $63 $29 #
plane-surface $-1 -36.546939755027999 0 -2.5285591811072421 0 0 1 1 0 0 forward_v I I I I #
face $-1 $64 $65 $23 $-1 $66 reversed single #
loop $-1 $-1 $67 $30 #
plane-surface $-1 41.424604022339551 0 0 -1 0 0 0 0 1 forward_v I I I I #
face $-1 $68 $69 $24 $-1 $70 reversed single #
loop $-1 $-1 $71 $31 #
plane-surface $-1 18.027901896163144 -71.005324012970306 75.758337876481008 1 0 0 0 0.55919291073839883 -0.82903756765294845 forward_v I I I I #
face $-1 $72 $73 $25 $-1 $74 forward single #
loop $-1 $75 $76 $32 #
cone-surface $-1 25.420420742813079 -20.115082358870012 7.9110412964392109 0 0.55919291073839883 -0.82903756765294845 1 0 0 1 I I 0 1 1 forward I I I I #
face $-1 $77 $78 $26 $-1 $79 reversed single #
loop $-1 $-1 $80 $33 #
plane-surface $-1 18.027901896163144 30.089610399540547 103.35633570329415 1 0 0 0 -0.55919291073839883 -0.82903756765294845 forward_v I I I I #
face $-1 $81 $82 $27 $-1 $83 forward single #
loop $-1 $84 $85 $34 #
cone-surface $-1 25.420420742813079 20.115082358870016 7.9110412964392109 0 -0.55919291073839883 -0.82903756765294845 1 0 0 1 I I 0 1 1 forward I I I I #
face $-1 $86 $87 $21 $-1 $88 reversed single #
loop $-1 $-1 $89 $35 #
plane-surface $-1 0 0 11.82658966942804 0 0 1 1 0 0 forward_v I I I I #
coedge $-1 $90 $91 $92 $93 reversed $36 $-1 #
face $-1 $94 $95 $22 $-1 $96 reversed single #
loop $-1 $-1 $97 $38 #
plane-surface $-1 -36.546939755027999 0 -7.29723705916801 0 0 1 1 0 0 forward_v I I I I #
coedge $-1 $98 $99 $100 $101 forward $39 $-1 #
face $-1 $102 $103 $23 $-1 $104 reversed single #
loop $-1 $-1 $105 $41 #
plane-surface $-1 0 -24.676634214095046 0 0 1 0 0 0 1 forward_v I I I I #
coedge $-1 $106 $107 $108 $109 forward $42 $-1 #
face $-1 $110 $111 $24 $-1 $112 reversed single #
loop $-1 $-1 $113 $44 #
plane-surface $-1 25.420420742813079 -24.676634214095031 7.0732319571471578 0 -0.55919291073839883 0.82903756765294845 1 0 0 forward_v I I I I #
coedge $-1 $114 $115 $116 $117 reversed $45 $-1 #
face $-1 $-1 $118 $25 $-1 $119 forward single #
loop $-1 $120 $121 $47 #
cone-surface $-1 25.420420742813079 -18.797505288449504 5.9576529957643398 0 0.55919291073839883 -0.82903756765294845 0.5 0 0 1 I I -0.70710678118654746 0.70710678118654746 0.5 forward I I I I #
loop $-1 $-1 $122 $32 #
coedge $-1 $76 $76 $123 $124 reversed $48 $-1 #
face $-1 $125 $126 $26 $-1 $127 reversed single #
loop $-1 $-1 $128 $50 #
plane-surface $-1 25.420420742813079 -16.239079399334727 34.6712297839603 0 0.55919291073839883 0.82903756765294845 1 0 0 forward_v I I I I #
coedge $-1 $129 $130 $131 $132 reversed $51 $-1 #
face $-1 $-1 $133 $27 $-1 $134 forward single #
loop $-1 $135 $136 $53 #
cone-surface $-1 25.420420742813079 18.797505288449507 5.9576529957643398 0 -0.55919291073839883 -0.82903756765294845 0.5 0 0 1 I I -0.70710678118654746 0.70710678118654746 0.5 forward I I I I #
loop $-1 $-1 $137 $34 #
coedge $-1 $85 $85 $138 $139 reversed $54 $-1 #
face $-1 $140 $141 $21 $-1 $142 reversed single #
loop $-1 $-1 $92 $56 #
plane-surface $-1 0 0 -11.82658966942804 0 0 1 1 0 0 forward_v I I I I #
coedge $-1 $143 $144 $145 $146 forward $57 $-1 #
coedge $-1 $145 $59 $147 $148 reversed $36 $-1 #
coedge $-1 $59 $145 $149 $150 forward $36 $-1 #
coedge $-1 $151 $152 $59 $93 forward $87 $-1 #
edge $-1 $153 -24.676634214095046 $154 24.676634214095046 $59 $155 forward 7 unknown #
face $-1 $156 $157 $22 $-1 $158 reversed single #
loop $-1 $-1 $159 $60 #
plane-surface $-1 -31.669275487716448 0 -4.9128981201376263 -1 0 0 0 0 1 forward_v I I I I #
coedge $-1 $160 $161 $162 $163 forward $61 $-1 #
coedge $-1 $164 $63 $165 $166 reversed $39 $-1 #
coedge $-1 $63 $164 $167 $168 reversed $39 $-1 #
coedge $-1 $159 $169 $63 $101 reversed $95 $-1 #
edge $-1 $170 -24.676634214095046 $171 24.676634214095046 $100 $172 forward 7 unknown #
face $-1 $173 $174 $23 $-1 $175 reversed single #
loop $-1 $-1 $176 $64 #
plane-surface $-1 0 0 -11.82658966942804 0 0 1 1 0 0 forward_v I I I I #
coedge $-1 $177 $178 $179 $180 forward $65 $-1 #
coedge $-1 $179 $67 $176 $181 reversed $42 $-1 #
coedge $-1 $67 $179 $182 $183 reversed $42 $-1 #
coedge $-1 $184 $185 $67 $109 reversed $174 $-1 #
edge $-1 $186 -11.82658966942804 $187 11.82658966942804 $108 $188 forward 7 unknown #
face $-1 $189 $190 $24 $-1 $191 reversed single #
loop $-1 $-1 $192 $68 #
plane-surface $-1 32.812939589463014 -71.005324012970306 75.758337876481008 -1 0 0 0 -0.55919291073839883 0.82903756765294845 forward_v I I I I #
coedge $-1 $193 $194 $195 $196 reversed $69 $-1 #
coedge $-1 $115 $71 $197 $198 reversed $45 $-1 #
coedge $-1 $71 $114 $193 $199 reversed $45 $-1 #
coedge $-1 $195 $200 $71 $117 forward $190 $-1 #
edge $-1 $201 26.052579268812465 $202 30.805936981093357 $116 $203 forward 7 unknown #
loop $-1 $-1 $123 $72 #
plane-surface $-1 25.420420742813079 -24.676634214095031 7.0732319571471578 0 -0.55919291073839883 0.82903756765294845 1 0 0 forward_v I I I I #
loop $-1 $-1 $204 $47 #
coedge $-1 $121 $121 $122 $205 reversed $73 $-1 #
coedge $-1 $122 $122 $121 $205 forward $75 $-1 #
coedge $-1 $123 $123 $76 $124 forward $118 $-1 #
edge $-1 $206 1.385813910509611e-016 $206 6.2831853071796004 $123 $207 forward 7 unknown #
face $-1 $208 $209 $26 $-1 $210 reversed single #
loop $-1 $-1 $211 $77 #
plane-surface $-1 32.812939589463014 30.089610399540547 103.35633570329415 -1 0 0 0 0.55919291073839883 0.82903756765294845 forward_v I I I I #
coedge $-1 $212 $213 $214 $215 reversed $78 $-1 #
coedge $-1 $130 $80 $216 $217 reversed $51 $-1 #
coedge $-1 $80 $129 $212 $218 reversed $51 $-1 #
coedge $-1 $214 $219 $80 $132 forward $220 $-1 #
edge $-1 $221 -9.6318290143247722 $222 -2.5846865339772975 $131 $223 forward 7 unknown #
loop $-1 $-1 $138 $81 #
plane-surface $-1 25.420420742813079 -16.239079399334727 34.6712297839603 0 0.55919291073839883 0.82903756765294845 1 0 0 forward_v I I I I #
loop $-1 $-1 $224 $53 #
coedge $-1 $136 $136 $137 $225 reversed $82 $-1 #
coedge $-1 $137 $137 $136 $225 forward $84 $-1 #
coedge $-1 $138 $138 $85 $139 forward $133 $-1 #
edge $-1 $226 8.8939010824606818e-016 $226 6.2831853071796013 $138 $227 forward 7 unknown #
face $-1 $228 $229 $21 $-1 $230 reversed single #
loop $-1 $-1 $231 $86 #
plane-surface $-1 0 -24.676634214095046 0 0 1 0 0 0 1 forward_v I I I I #
coedge $-1 $232 $89 $233 $234 forward $57 $-1 #
coedge $-1 $89 $232 $235 $236 forward $57 $-1 #
coedge $-1 $91 $90 $89 $146 reversed $36 $-1 #
edge $-1 $237 -24.676634214095046 $238 24.676634214095046 $145 $239 forward 7 unknown #
coedge $-1 $240 $233 $90 $148 forward $241 $-1 #
edge $-1 $238 -11.82658966942804 $153 11.82658966942804 $90 $242 forward 7 unknown #
coedge $-1 $235 $243 $91 $150 reversed $141 $-1 #
edge $-1 $237 -11.82658966942804 $154 11.82658966942804 $91 $244 forward 7 unknown #
coedge $-1 $245 $92 $243 $246 forward $87 $-1 #
coedge $-1 $92 $245 $240 $247 forward $87 $-1 #
vertex $-1 $93 $248 #
vertex $-1 $150 $249 #
straight-curve $-1 41.424604022339551 0 -11.82658966942804 0 -1 0 I I #
face $-1 $250 $251 $22 $-1 $252 reversed single #
loop $-1 $-1 $253 $94 #
plane-surface $-1 0 -24.676634214095046 0 0 1 0 0 0 1 forward_v I I I I #
coedge $-1 $162 $100 $254 $255 reversed $95 $-1 #
coedge $-1 $256 $97 $253 $257 reversed $61 $-1 #
coedge $-1 $97 $256 $258 $259 reversed $61 $-1 #
coedge $-1 $169 $159 $97 $163 reversed $95 $-1 #
edge $-1 $260 -24.676634214095046 $261 24.676634214095046 $162 $262 forward 7 unknown #
coedge $-1 $99 $98 $263 $264 reversed $39 $-1 #
coedge $-1 $265 $266 $98 $166 forward $267 $-1 #
edge $-1 $268 -23.151134144825551 $171 -13.395805610202448 $165 $269 forward 7 unknown #
coedge $-1 $270 $254 $99 $168 forward $157 $-1 #
edge $-1 $170 13.395805610202448 $271 23.151134144825551 $167 $272 forward 7 unknown #
coedge $-1 $100 $162 $265 $273 reversed $95 $-1 #
vertex $-1 $168 $274 #
vertex $-1 $166 $275 #
straight-curve $-1 -31.669275487716448 0 -2.5285591811072421 0 1 0 I I #
face $-1 $276 $277 $23 $-1 $278 reversed single #
loop $-1 $-1 $279 $102 #
plane-surface $-1 45.730436238777813 -21.107398542810706 0 0 -1 0 0 0 -1 forward_v I I I I #
coedge $-1 $280 $281 $106 $181 forward $103 $-1 #
coedge $-1 $282 $105 $281 $283 reversed $65 $-1 #
coedge $-1 $105 $282 $284 $285 reversed $65 $-1 #
coedge $-1 $107 $106 $105 $180 reversed $42 $-1 #
edge $-1 $286 -11.82658966942804 $287 11.82658966942804 $105 $288 forward 7 unknown #
edge $-1 $287 -24.676634214095046 $187 -21.107398542810706 $176 $289 forward 7 unknown #
coedge $-1 $284 $290 $107 $183 forward $291 $-1 #
edge $-1 $186 21.107398542810706 $286 24.676634214095046 $182 $292 forward 7 unknown #
coedge $-1 $279 $108 $290 $293 reversed $174 $-1 #
coedge $-1 $108 $279 $280 $294 reversed $174 $-1 #
vertex $-1 $183 $295 #
vertex $-1 $294 $296 #
straight-curve $-1 41.424604022339551 -21.107398542810706 0 0 0 -1 I I #
face $-1 $-1 $297 $24 $-1 $298 forward single #
loop $-1 $-1 $116 $110 #
plane-surface $-1 0 -24.676634214095046 0 0 1 0 0 0 1 forward_v I I I I #
coedge $-1 $299 $300 $301 $302 reversed $111 $-1 #
coedge $-1 $303 $113 $115 $199 forward $69 $-1 #
coedge $-1 $113 $303 $299 $304 forward $69 $-1 #
coedge $-1 $301 $116 $113 $196 forward $190 $-1 #
edge $-1 $202 5.3176915247566043 $305 20.102729218056474 $195 $306 forward 7 unknown #
coedge $-1 $307 $308 $114 $198 forward $297 $-1 #
edge $-1 $309 -17.8731702727376 $201 -10.826027792390107 $197 $310 forward 7 unknown #
edge $-1 $202 -1.7244626260799089e-014 $309 8.500389795722203 $115 $311 forward 7 unknown #
coedge $-1 $116 $301 $307 $312 reversed $190 $-1 #
vertex $-1 $312 $313 #
vertex $-1 $117 $314 #
straight-curve $-1 18.027901896163144 -24.676634214095046 37.879168938240504 0 0 -1 I I #
coedge $-1 $204 $204 $-1 $315 reversed $120 $-1 #
edge $-1 $316 0 $316 6.2831853071796004 $121 $317 forward 7 unknown #
vertex $-1 $124 $318 #
ellipse-curve $-1 25.420420742813079 -21.153062973921308 9.4499108132875875 0 -0.55919291073839883 0.82903756765294845 1 0 0 1 I I #
face $-1 $-1 $220 $26 $-1 $319 forward single #
loop $-1 $-1 $320 $125 #
plane-surface $-1 0 24.676634214095046 0 0 -1 0 0 0 -1 forward_v I I I I #
coedge $-1 $321 $322 $323 $324 reversed $126 $-1 #
coedge $-1 $325 $128 $130 $218 forward $78 $-1 #
coedge $-1 $128 $325 $321 $326 forward $78 $-1 #
coedge $-1 $323 $131 $128 $215 forward $220 $-1 #
edge $-1 $222 5.3176915247566043 $327 20.102729218056474 $214 $328 forward 7 unknown #
coedge $-1 $329 $330 $129 $217 forward $209 $-1 #
edge $-1 $331 -44.604935894499917 $221 -39.851578182219036 $216 $332 forward 7 unknown #
edge $-1 $222 40.852878632467892 $331 49.353268428190091 $130 $333 forward 7 unknown #
coedge $-1 $131 $323 $329 $334 forward $220 $-1 #
loop $-1 $-1 $323 $208 #
vertex $-1 $217 $335 #
vertex $-1 $132 $336 #
straight-curve $-1 18.027901896163144 15.044805199770273 11.826589669428039 0 -1 0 I I #
coedge $-1 $224 $224 $-1 $337 reversed $135 $-1 #
edge $-1 $338 0 $338 6.2831853071796004 $136 $339 forward 7 unknown #
vertex $-1 $139 $340 #
ellipse-curve $-1 25.420420742813079 21.153062973921315 9.4499108132875946 0 0.55919291073839883 0.82903756765294845 1 0 0 1 I I #
face $-1 $-1 $241 $21 $-1 $341 reversed single #
loop $-1 $-1 $342 $140 #
plane-surface $-1 -41.424604022339551 0 0 1 0 0 0 0 -1 forward_v I I I I #
coedge $-1 $243 $235 $343 $344 forward $141 $-1 #
coedge $-1 $144 $143 $345 $346 forward $57 $-1 #
coedge $-1 $147 $347 $143 $234 reversed $241 $-1 #
edge $-1 $238 -41.424604022339551 $348 41.424604022339551 $233 $349 forward 7 unknown #
coedge $-1 $231 $149 $144 $236 reversed $141 $-1 #
edge $-1 $350 -41.424604022339551 $237 41.424604022339551 $235 $351 forward 7 unknown #
vertex $-1 $146 $352 #
vertex $-1 $146 $353 #
straight-curve $-1 41.424604022339551 0 11.82658966942804 0 1 0 I I #
coedge $-1 $347 $147 $152 $247 reversed $241 $-1 #
loop $-1 $-1 $147 $228 #
straight-curve $-1 41.424604022339551 24.676634214095046 0 0 0 -1 I I #
coedge $-1 $149 $231 $151 $246 reversed $141 $-1 #
straight-curve $-1 41.424604022339551 -24.676634214095046 0 0 0 -1 I I #
coedge $-1 $152 $151 $354 $355 forward $87 $-1 #
edge $-1 $154 -41.424604022339551 $356 41.424604022339551 $243 $357 forward 7 unknown #
edge $-1 $358 -41.424604022339551 $153 41.424604022339551 $240 $359 forward 7 unknown #
point $-1 41.424604022339551 24.676634214095046 -11.82658966942804 #
point $-1 41.424604022339551 -24.676634214095046 -11.82658966942804 #
face $-1 $-1 $267 $22 $-1 $360 reversed single #
loop $-1 $-1 $361 $156 #
plane-surface $-1 -41.424604022339551 0 0 1 0 0 0 0 -1 forward_v I I I I #
coedge $-1 $254 $270 $160 $257 forward $157 $-1 #
coedge $-1 $167 $253 $159 $255 forward $157 $-1 #
edge $-1 $261 -4.8407879990991969 $170 -0.072110121038428954 $254 $362 forward 7 unknown #
coedge $-1 $161 $160 $361 $363 reversed $61 $-1 #
edge $-1 $364 -23.151134144825551 $261 -13.395805610202448 $253 $365 forward 7 unknown #
coedge $-1 $266 $265 $161 $259 forward $267 $-1 #
edge $-1 $260 13.395805610202448 $366 23.151134144825551 $258 $367 forward 7 unknown #
vertex $-1 $259 $368 #
vertex $-1 $257 $369 #
straight-curve $-1 -31.669275487716448 0 -7.29723705916801 0 -1 0 I I #
coedge $-1 $370 $371 $164 $264 forward $251 $-1 #
edge $-1 $271 -24.676634214095046 $268 24.676634214095046 $263 $372 forward 7 unknown #
coedge $-1 $258 $165 $169 $273 forward $267 $-1 #
coedge $-1 $165 $258 $370 $373 reversed $267 $-1 #
loop $-1 $-1 $258 $250 #
vertex $-1 $373 $374 #
straight-curve $-1 -18.273469877514 24.676634214095046 -2.5285591811072421 1 0 0 I I #
coedge $-1 $253 $167 $371 $375 forward $157 $-1 #
vertex $-1 $375 $376 #
straight-curve $-1 -18.273469877514 -24.676634214095046 -2.5285591811072421 -1 0 0 I I #
edge $-1 $171 0.072110121038428954 $260 4.8407879990991969 $265 $377 forward 7 unknown #
point $-1 -31.669275487716448 -24.676634214095046 -2.5285591811072421 #
point $-1 -31.669275487716448 24.676634214095046 -2.5285591811072421 #
face $-1 $-1 $291 $23 $-1 $378 forward single #
loop $-1 $-1 $379 $173 #
plane-surface $-1 50.036268455216081 -22.892016378452876 0 -1 0 0 0 0 1 forward_v I I I I #
coedge $-1 $185 $184 $380 $381 forward $174 $-1 #
coedge $-1 $382 $176 $185 $294 forward $103 $-1 #
coedge $-1 $176 $382 $177 $283 forward $103 $-1 #
coedge $-1 $178 $177 $379 $383 reversed $65 $-1 #
edge $-1 $384 -4.3058322164382687 $287 4.3058322164382616 $177 $385 forward 7 unknown #
coedge $-1 $386 $182 $178 $285 forward $291 $-1 #
edge $-1 $286 -4.3058322164382616 $387 4.3058322164382687 $178 $388 forward 7 unknown #
vertex $-1 $285 $389 #
vertex $-1 $181 $390 #
straight-curve $-1 41.424604022339551 -24.676634214095046 0 0 0 -1 I I #
straight-curve $-1 41.424604022339551 0 -11.82658966942804 0 1 0 I I #
coedge $-1 $182 $386 $184 $293 forward $291 $-1 #
loop $-1 $-1 $182 $276 #
straight-curve $-1 41.424604022339551 0 11.82658966942804 0 -1 0 I I #
edge $-1 $391 -4.3058322164382687 $186 4.3058322164382687 $184 $392 forward 7 unknown #
edge $-1 $187 -4.3058322164382687 $393 4.3058322164382687 $185 $394 forward 7 unknown #
point $-1 41.424604022339544 -21.107398542810706 11.82658966942804 #
point $-1 41.424604022339544 -21.107398542810706 -11.82658966942804 #
loop $-1 $-1 $197 $189 #
plane-surface $-1 0 0 11.82658966942804 0 0 1 1 0 0 forward_v I I I I #
coedge $-1 $300 $192 $194 $304 reversed $111 $-1 #
coedge $-1 $192 $299 $395 $396 reversed $111 $-1 #
coedge $-1 $200 $195 $192 $302 forward $190 $-1 #
edge $-1 $305 -30.805936981093357 $397 -26.052579268812465 $301 $398 forward 7 unknown #
coedge $-1 $194 $193 $308 $399 reversed $69 $-1 #
edge $-1 $400 -8.500389795722203 $305 1.7244626260799089e-014 $299 $401 forward 7 unknown #
vertex $-1 $196 $402 #
straight-curve $-1 12.710210371406539 -24.676634214095046 7.0732319571471489 1 0 0 I I #
coedge $-1 $395 $197 $200 $312 forward $297 $-1 #
coedge $-1 $197 $395 $303 $399 forward $297 $-1 #
vertex $-1 $198 $403 #
straight-curve $-1 18.027901896163144 -35.502662006485153 11.826589669428039 0 -1 0 I I #
straight-curve $-1 18.027901896163144 -24.676634214095031 7.0732319571471578 0 0.82903756765294845 0.55919291073839883 I I #
edge $-1 $201 -27.702534342614669 $397 -12.917496649314799 $200 $404 forward 7 unknown #
point $-1 18.027901896163144 -24.676634214095046 11.82658966942804 #
point $-1 18.027901896163144 -24.676634214095046 7.073231957147148 #
edge $-1 $405 1 $405 0 $204 $-1 forward 7 unknown #
vertex $-1 $205 $406 #
ellipse-curve $-1 25.420420742813079 -19.077101743818702 6.3721717795908139 0 -0.55919291073839883 0.82903756765294845 1 0 0 1 I I #
point $-1 26.420420742813079 -21.153062973921323 9.4499108132876088 #
plane-surface $-1 0 0 11.82658966942804 0 0 1 1 0 0 forward_v I I I I #
coedge $-1 $330 $329 $322 $407 forward $209 $-1 #
coedge $-1 $322 $211 $213 $326 reversed $126 $-1 #
coedge $-1 $211 $321 $320 $407 reversed $126 $-1 #
coedge $-1 $219 $214 $211 $324 forward $220 $-1 #
edge $-1 $327 2.5846865339772975 $408 9.6318290143247722 $323 $409 forward 7 unknown #
coedge $-1 $213 $212 $330 $410 reversed $78 $-1 #
edge $-1 $411 -49.353268428190091 $327 -40.852878632467892 $321 $412 forward 7 unknown #
vertex $-1 $215 $413 #
straight-curve $-1 12.710210371406539 17.629491733747571 11.826589669428039 1 0 0 I I #
coedge $-1 $320 $216 $219 $334 reversed $209 $-1 #
coedge $-1 $216 $320 $325 $410 forward $209 $-1 #
vertex $-1 $217 $414 #
straight-curve $-1 18.027901896163144 24.676634214095046 51.678167851647075 0 0 1 I I #
straight-curve $-1 18.027901896163144 -16.239079399334727 34.6712297839603 0 0.82903756765294845 -0.55919291073839883 I I #
edge $-1 $408 -32.812939589463014 $221 -18.027901896163144 $329 $415 forward 7 unknown #
point $-1 18.027901896163144 24.676634214095046 11.82658966942804 #
point $-1 18.027901896163144 17.629491733747571 11.826589669428039 #
edge $-1 $416 1 $416 0 $224 $-1 forward 7 unknown #
vertex $-1 $225 $417 #
ellipse-curve $-1 25.420420742813079 19.077101743818705 6.3721717795908139 0 0.55919291073839883 0.82903756765294845 1 0 0 1 I I #
point $-1 26.420420742813079 21.153062973921326 9.4499108132876088 #
plane-surface $-1 0 24.676634214095046 0 0 -1 0 0 0 -1 forward_v I I I I #
coedge $-1 $354 $345 $347 $418 forward $229 $-1 #
coedge $-1 $345 $354 $231 $344 reversed $229 $-1 #
edge $-1 $350 -11.82658966942804 $356 11.82658966942804 $343 $419 forward 7 unknown #
coedge $-1 $342 $343 $232 $346 reversed $229 $-1 #
edge $-1 $348 -24.676634214095046 $350 24.676634214095046 $345 $420 forward 7 unknown #
coedge $-1 $233 $240 $342 $418 reversed $241 $-1 #
vertex $-1 $234 $421 #
straight-curve $-1 0 24.676634214095046 11.82658966942804 -1 0 0 I I #
vertex $-1 $346 $422 #
straight-curve $-1 0 -24.676634214095046 11.82658966942804 1 0 0 I I #
point $-1 41.424604022339551 -24.676634214095046 11.82658966942804 #
point $-1 41.424604022339551 24.676634214095046 11.82658966942804 #
coedge $-1 $343 $342 $245 $355 reversed $229 $-1 #
edge $-1 $356 -24.676634214095046 $358 24.676634214095046 $354 $423 forward 7 unknown #
vertex $-1 $355 $424 #
straight-curve $-1 0 -24.676634214095046 -11.82658966942804 -1 0 0 I I #
vertex $-1 $247 $425 #
straight-curve $-1 0 24.676634214095046 -11.82658966942804 1 0 0 I I #
plane-surface $-1 0 24.676634214095046 0 0 -1 0 0 0 -1 forward_v I I I I #
coedge $-1 $371 $370 $256 $363 forward $251 $-1 #
straight-curve $-1 -31.669275487716448 -24.676634214095046 -2.4564490600688131 0 0 1 I I #
edge $-1 $366 -24.676634214095046 $364 24.676634214095046 $361 $426 forward 7 unknown #
vertex $-1 $257 $427 #
straight-curve $-1 -18.273469877514 -24.676634214095046 -7.29723705916801 1 0 0 I I #
vertex $-1 $259 $428 #
straight-curve $-1 -18.273469877514 24.676634214095046 -7.29723705916801 -1 0 0 I I #
point $-1 -31.669275487716448 24.676634214095046 -7.29723705916801 #
point $-1 -31.669275487716448 -24.676634214095046 -7.29723705916801 #
coedge $-1 $361 $263 $266 $373 forward $251 $-1 #
coedge $-1 $263 $361 $270 $375 reversed $251 $-1 #
straight-curve $-1 -41.424604022339551 0 -2.5285591811072421 0 1 0 I I #
edge $-1 $268 2.5285591811072421 $366 7.29723705916801 $266 $429 forward 7 unknown #
point $-1 -41.424604022339551 24.676634214095046 -2.5285591811072421 #
edge $-1 $271 2.5285591811072421 $364 7.29723705916801 $371 $430 forward 7 unknown #
point $-1 -41.424604022339551 -24.676634214095046 -2.5285591811072421 #
straight-curve $-1 -31.669275487716448 24.676634214095046 -2.4564490600688131 0 0 -1 I I #
plane-surface $-1 0 0 11.82658966942804 0 0 1 1 0 0 forward_v I I I I #
coedge $-1 $431 $432 $282 $383 forward $277 $-1 #
coedge $-1 $432 $431 $279 $381 reversed $277 $-1 #
edge $-1 $391 -11.82658966942804 $393 11.82658966942804 $380 $433 forward 7 unknown #
coedge $-1 $281 $280 $431 $434 forward $103 $-1 #
edge $-1 $387 -11.82658966942804 $384 11.82658966942804 $379 $435 forward 7 unknown #
vertex $-1 $383 $436 #
straight-curve $-1 45.730436238777813 -24.676634214095046 -11.82658966942804 -1 0 0 I I #
coedge $-1 $290 $284 $432 $437 forward $291 $-1 #
vertex $-1 $437 $438 #
straight-curve $-1 45.730436238777813 -24.676634214095046 11.82658966942804 1 0 0 I I #
point $-1 41.424604022339551 -24.676634214095046 11.82658966942804 #
point $-1 41.424604022339551 -24.676634214095046 -11.82658966942804 #
vertex $-1 $437 $439 #
straight-curve $-1 45.730436238777813 -21.107398542810706 11.82658966942804 -1 0 0 I I #
vertex $-1 $434 $440 #
straight-curve $-1 45.730436238777813 -21.107398542810706 -11.82658966942804 1 0 0 I I #
coedge $-1 $308 $307 $300 $396 forward $297 $-1 #
edge $-1 $397 10.826027792390107 $400 17.8731702727376 $395 $441 forward 7 unknown #
vertex $-1 $396 $442 #
straight-curve $-1 32.812939589463014 -24.676634214095046 37.879168938240504 0 0 1 I I #
edge $-1 $400 -20.102729218056474 $309 -5.3176915247566043 $308 $443 forward 7 unknown #
vertex $-1 $399 $444 #
straight-curve $-1 32.812939589463014 -24.676634214095031 7.0732319571471578 0 -0.82903756765294845 -0.55919291073839883 I I #
point $-1 32.812939589463014 -24.676634214095046 7.073231957147148 #
point $-1 18.027901896163144 -17.629491733747553 11.82658966942804 #
straight-curve $-1 45.730436238777813 -24.676634214095046 11.82658966942804 1 0 0 I I #
vertex $-1 $315 $445 #
point $-1 26.420420742813079 -19.077101743818702 6.3721717795908139 #
edge $-1 $408 39.851578182219036 $411 44.604935894499917 $320 $446 forward 7 unknown #
vertex $-1 $334 $447 #
straight-curve $-1 32.812939589463014 15.044805199770273 11.826589669428039 0 1 0 I I #
edge $-1 $411 -20.102729218056474 $331 -5.3176915247566043 $330 $448 forward 7 unknown #
vertex $-1 $410 $449 #
straight-curve $-1 32.812939589463014 -16.239079399334727 34.6712297839603 0 -0.82903756765294845 0.55919291073839883 I I #
point $-1 32.812939589463014 17.629491733747571 11.826589669428039 #
point $-1 18.027901896163144 24.676634214095046 7.0732319571471578 #
straight-curve $-1 0 24.676634214095046 11.82658966942804 -1 0 0 I I #
vertex $-1 $337 $450 #
point $-1 26.420420742813079 19.077101743818705 6.3721717795908139 #
edge $-1 $348 -11.82658966942804 $358 11.82658966942804 $347 $451 forward 7 unknown #
straight-curve $-1 -41.424604022339551 -24.676634214095046 0 0 0 -1 I I #
straight-curve $-1 -41.424604022339551 0 11.82658966942804 0 -1 0 I I #
point $-1 -41.424604022339551 24.676634214095046 11.82658966942804 #
point $-1 -41.424604022339551 -24.676634214095046 11.82658966942804 #
straight-curve $-1 -41.424604022339551 0 -11.82658966942804 0 1 0 I I #
point $-1 -41.424604022339551 -24.676634214095046 -11.82658966942804 #
point $-1 -41.424604022339551 24.676634214095046 -11.82658966942804 #
straight-curve $-1 -41.424604022339551 0 -7.29723705916801 0 -1 0 I I #
point $-1 -41.424604022339551 -24.676634214095046 -7.29723705916801 #
point $-1 -41.424604022339551 24.676634214095046 -7.29723705916801 #
straight-curve $-1 -41.424604022339551 24.676634214095046 0 0 0 -1 I I #
straight-curve $-1 -41.424604022339551 -24.676634214095046 0 0 0 -1 I I #
coedge $-1 $380 $379 $382 $434 reversed $277 $-1 #
coedge $-1 $379 $380 $386 $437 reversed $277 $-1 #
straight-curve $-1 50.036268455216081 -21.107398542810706 0 0 0 -1 I I #
edge $-1 $393 -1.7846178356421696 $384 1.7846178356421696 $431 $452 forward 7 unknown #
straight-curve $-1 50.036268455216081 -24.676634214095046 0 0 0 -1 I I #
point $-1 50.036268455216081 -24.676634214095046 -11.82658966942804 #
edge $-1 $387 -1.7846178356421696 $391 1.7846178356421696 $432 $453 forward 7 unknown #
point $-1 50.036268455216081 -24.676634214095046 11.82658966942804 #
point $-1 50.036268455216081 -21.107398542810706 11.82658966942804 #
point $-1 50.036268455216081 -21.107398542810706 -11.82658966942804 #
straight-curve $-1 32.812939589463014 -35.502662006485153 11.826589669428039 0 1 0 I I #
point $-1 32.812939589463014 -24.676634214095046 11.82658966942804 #
straight-curve $-1 12.710210371406539 -17.629491733747553 11.82658966942804 -1 0 0 I I #
point $-1 32.812939589463014 -17.629491733747553 11.82658966942804 #
point $-1 25.420420742813079 -18.517908833080305 5.5431342119378657 #
straight-curve $-1 32.812939589463014 24.676634214095046 51.678167851647075 0 0 -1 I I #
point $-1 32.812939589463014 24.676634214095046 11.82658966942804 #
straight-curve $-1 12.710210371406539 24.676634214095046 7.0732319571471578 -1 0 0 I I #
point $-1 32.812939589463014 24.676634214095046 7.0732319571471578 #
point $-1 25.420420742813079 18.517908833080309 5.5431342119378657 #
straight-curve $-1 -41.424604022339551 24.676634214095046 0 0 0 -1 I I #
straight-curve $-1 50.036268455216081 -22.892016378452876 -11.82658966942804 0 -1 0 I I #
straight-curve $-1 50.036268455216081 -22.892016378452876 11.82658966942804 0 1 0 I I #
End-of-ACIS-data 