500 0 8 0           
7 Unknown 11 ACIS 5.0 NT 24 Thu Mar 25 23:42:35 1999 
-1 9.9999999999999995e-007 1e-010 
body $-1 $8 $-1 $9 #
body $-1 $10 $-1 $11 #
body $-1 $12 $-1 $13 #
body $-1 $14 $-1 $15 #
body $-1 $16 $-1 $17 #
body $-1 $18 $-1 $19 #
body $-1 $20 $-1 $21 #
body $-1 $22 $-1 $23 #
lump $-1 $-1 $24 $0 #
transform $-1 1 0 0 0 1 0 0 0 1 49.804986724448376 32.241991619505718 11.099168104155478 1 rotate no_reflect no_shear #
lump $-1 $-1 $25 $1 #
transform $-1 1 0 0 0 1 0 0 0 1 49.804986724448376 32.241991619505718 11.099168104155478 1 rotate no_reflect no_shear #
lump $-1 $-1 $26 $2 #
transform $-1 1 0 0 0 1 0 0 0 1 49.804986724448376 32.241991619505718 11.099168104155478 1 rotate no_reflect no_shear #
lump $-1 $-1 $27 $3 #
transform $-1 1 0 0 0 1 0 0 0 1 49.804986724448376 32.241991619505718 11.099168104155478 1 rotate no_reflect no_shear #
lump $-1 $-1 $28 $4 #
transform $-1 1 0 0 0 1 0 0 0 1 49.804986724448376 32.241991619505718 11.099168104155478 1 rotate no_reflect no_shear #
lump $-1 $-1 $29 $5 #
transform $-1 1 0 0 0 1 0 0 0 1 49.804986724448376 32.241991619505718 11.099168104155478 1 rotate no_reflect no_shear #
lump $-1 $-1 $30 $6 #
transform $-1 1 0 0 0 1 0 0 0 1 49.804986724448376 32.241991619505718 11.099168104155478 1 rotate no_reflect no_shear #
lump $-1 $-1 $31 $7 #
transform $-1 1 0 0 0 1 0 0 0 1 49.804986724448376 32.241991619505718 11.099168104155478 1 rotate no_reflect no_shear #
shell $-1 $-1 $-1 $32 $-1 $8 #
shell $-1 $-1 $-1 $33 $-1 $10 #
shell $-1 $-1 $-1 $34 $-1 $12 #
shell $-1 $-1 $-1 $35 $-1 $14 #
shell $-1 $-1 $-1 $36 $-1 $16 #
shell $-1 $-1 $-1 $37 $-1 $18 #
shell $-1 $-1 $-1 $38 $-1 $20 #
shell $-1 $-1 $-1 $39 $-1 $22 #
face $-1 $40 $41 $24 $-1 $42 forward single #
face $-1 $43 $44 $25 $-1 $45 forward single #
face $-1 $46 $47 $26 $-1 $48 reversed single #
face $-1 $49 $50 $27 $-1 $51 forward single #
face $-1 $52 $53 $28 $-1 $54 forward single #
face $-1 $55 $56 $29 $-1 $57 reversed single #
face $-1 $58 $59 $30 $-1 $60 forward single #
face $-1 $61 $62 $31 $-1 $63 forward single #
face $-1 $64 $65 $24 $-1 $66 reversed single #
loop $-1 $-1 $67 $32 #
plane-surface $-1 0 0 11.099168104155478 0 0 1 1 0 0 forward_v I I I I #
face $-1 $68 $69 $25 $-1 $70 reversed single #
loop $-1 $-1 $71 $33 #
plane-surface $-1 -49.804986724448376 0 0 1 0 0 0 0 -1 forward_v I I I I #
face $-1 $72 $73 $26 $-1 $74 reversed single #
loop $-1 $-1 $75 $34 #
plane-surface $-1 -17.042474202241209 -92.188770855745219 82.724299406822155 -1 0 0 0 -0.6018150307709319 0.79863550430605224 forward_v I I I I #
face $-1 $76 $77 $27 $-1 $78 forward single #
loop $-1 $79 $80 $35 #
cone-surface $-1 -30.855992356415427 -25.386655971910539 5.0182173123743947 0 0.6018150307709319 -0.79863550430605224 1.5 0 0 1 I I 0 1 1.5 forward I I I I #
face $-1 $81 $82 $28 $-1 $83 forward single #
loop $-1 $84 $85 $36 #
cone-surface $-1 -22.567881463910897 -25.386655971910539 5.0182173123743947 0 0.6018150307709319 -0.79863550430605224 1.5 0 0 1 I I 0 1 1.5 forward I I I I #
face $-1 $86 $87 $29 $-1 $88 reversed single #
loop $-1 $-1 $89 $37 #
plane-surface $-1 -36.381399618085112 40.689572381994303 121.53172976404009 1 0 0 0 -0.6018150307709319 -0.79863550430605224 forward_v I I I I #
face $-1 $90 $91 $30 $-1 $92 forward single #
loop $-1 $93 $94 $38 #
cone-surface $-1 -30.855992356415427 25.386655971910542 5.0182173123743947 0 -0.6018150307709319 -0.79863550430605224 1.5 0 0 1 I I 0 1 1.5 forward I I I I #
face $-1 $95 $96 $31 $-1 $97 forward single #
loop $-1 $98 $99 $39 #
cone-surface $-1 -22.567881463910897 25.386655971910542 5.0182173123743947 0 -0.6018150307709319 -0.79863550430605224 1.5 0 0 1 I I 0 1 1.5 forward I I I I #
face $-1 $100 $101 $24 $-1 $102 reversed single #
loop $-1 $-1 $103 $40 #
plane-surface $-1 0 0 -11.099168104155478 0 0 1 1 0 0 forward_v I I I I #
coedge $-1 $104 $105 $106 $107 forward $41 $-1 #
face $-1 $108 $109 $25 $-1 $110 forward single #
loop $-1 $-1 $111 $43 #
plane-surface $-1 0 32.241991619505718 0 0 -1 0 0 0 -1 forward_v I I I I #
coedge $-1 $112 $113 $114 $115 forward $44 $-1 #
face $-1 $116 $117 $26 $-1 $118 reversed single #
loop $-1 $-1 $119 $46 #
plane-surface $-1 -26.711936910163161 -32.241991619505711 3.1722380275500228 0 -0.6018150307709319 0.79863550430605224 1 0 0 forward_v I I I I #
coedge $-1 $120 $121 $122 $123 reversed $47 $-1 #
face $-1 $-1 $124 $27 $-1 $125 forward single #
loop $-1 $126 $127 $49 #
cone-surface $-1 -30.855992356415427 -23.339654701592455 2.3017549306665046 0 0.6018150307709319 -0.79863550430605224 0.75 0 0 1 I I -0.70710678118654757 0.70710678118654757 0.75 forward I I I I #
loop $-1 $-1 $128 $35 #
coedge $-1 $80 $80 $129 $130 reversed $50 $-1 #
face $-1 $-1 $131 $28 $-1 $132 forward single #
loop $-1 $133 $134 $52 #
cone-surface $-1 -22.567881463910897 -23.339654701592455 2.3017549306665046 0 0.6018150307709319 -0.79863550430605224 0.75 0 0 1 I I -0.70710678118654757 0.70710678118654757 0.75 forward I I I I #
loop $-1 $-1 $135 $36 #
coedge $-1 $85 $85 $136 $137 reversed $53 $-1 #
face $-1 $138 $139 $29 $-1 $140 reversed single #
loop $-1 $-1 $141 $55 #
plane-surface $-1 -26.711936910163161 -19.257206854245204 41.979668384767962 0 0.6018150307709319 0.79863550430605224 1 0 0 forward_v I I I I #
coedge $-1 $142 $143 $144 $145 reversed $56 $-1 #
face $-1 $-1 $146 $30 $-1 $147 forward single #
loop $-1 $148 $149 $58 #
cone-surface $-1 -30.855992356415427 23.339654701592458 2.3017549306665046 0 -0.6018150307709319 -0.79863550430605224 0.75 0 0 1 I I -0.70710678118654757 0.70710678118654757 0.75 forward I I I I #
loop $-1 $-1 $150 $38 #
coedge $-1 $94 $94 $151 $152 reversed $59 $-1 #
face $-1 $-1 $153 $31 $-1 $154 forward single #
loop $-1 $155 $156 $61 #
cone-surface $-1 -22.567881463910897 23.339654701592458 2.3017549306665046 0 -0.6018150307709319 -0.79863550430605224 0.75 0 0 1 I I -0.70710678118654757 0.70710678118654757 0.75 forward I I I I #
loop $-1 $-1 $157 $39 #
coedge $-1 $99 $99 $158 $159 reversed $62 $-1 #
face $-1 $160 $161 $24 $-1 $162 reversed single #
loop $-1 $-1 $163 $64 #
plane-surface $-1 0 -32.241991619505718 0 0 1 0 0 0 1 forward_v I I I I #
coedge $-1 $164 $165 $166 $167 forward $65 $-1 #
coedge $-1 $168 $67 $169 $170 forward $41 $-1 #
coedge $-1 $67 $168 $171 $172 forward $41 $-1 #
coedge $-1 $173 $174 $67 $107 reversed $175 $-1 #
edge $-1 $176 -32.241991619505718 $177 32.241991619505718 $106 $178 forward 7 unknown #
face $-1 $179 $180 $25 $-1 $181 reversed single #
loop $-1 $-1 $114 $68 #
plane-surface $-1 -54.301262534901319 0 3.0179387941600666 0 0 1 1 0 0 forward_v I I I I #
coedge $-1 $182 $183 $113 $184 forward $69 $-1 #
coedge $-1 $185 $71 $186 $187 reversed $44 $-1 #
coedge $-1 $71 $185 $111 $184 reversed $44 $-1 #
coedge $-1 $188 $189 $71 $115 reversed $109 $-1 #
edge $-1 $190 -32.241991619505718 $191 32.241991619505718 $114 $192 forward 7 unknown #
face $-1 $193 $194 $26 $-1 $195 reversed single #
loop $-1 $-1 $196 $72 #
plane-surface $-1 -36.381399618085112 -92.188770855745219 82.724299406822155 1 0 0 0 0.6018150307709319 -0.79863550430605224 forward_v I I I I #
coedge $-1 $197 $198 $199 $200 reversed $73 $-1 #
coedge $-1 $121 $75 $201 $202 reversed $47 $-1 #
coedge $-1 $75 $120 $197 $203 reversed $47 $-1 #
coedge $-1 $199 $204 $75 $123 forward $205 $-1 #
edge $-1 $206 13.852393808366891 $207 24.371785109077479 $122 $208 forward 7 unknown #
loop $-1 $-1 $129 $76 #
plane-surface $-1 -26.711936910163161 -32.241991619505711 3.1722380275500228 0 -0.6018150307709319 0.79863550430605224 1 0 0 forward_v I I I I #
loop $-1 $-1 $209 $49 #
coedge $-1 $127 $127 $128 $210 reversed $77 $-1 #
coedge $-1 $128 $128 $127 $210 forward $79 $-1 #
coedge $-1 $129 $129 $80 $130 forward $124 $-1 #
edge $-1 $211 -3.5634608198793902e-016 $211 6.2831853071796004 $129 $212 forward 7 unknown #
loop $-1 $-1 $136 $81 #
plane-surface $-1 -26.711936910163161 -32.241991619505711 3.1722380275500228 0 -0.6018150307709319 0.79863550430605224 1 0 0 forward_v I I I I #
loop $-1 $-1 $213 $52 #
coedge $-1 $134 $134 $135 $214 reversed $82 $-1 #
coedge $-1 $135 $135 $134 $214 forward $84 $-1 #
coedge $-1 $136 $136 $85 $137 forward $131 $-1 #
edge $-1 $215 -3.5634608198793902e-016 $215 6.2831853071796004 $136 $216 forward 7 unknown #
face $-1 $217 $218 $29 $-1 $219 forward single #
loop $-1 $-1 $220 $86 #
plane-surface $-1 -17.042474202241209 40.689572381994303 121.53172976404009 -1 0 0 0 0.6018150307709319 0.79863550430605224 forward_v I I I I #
coedge $-1 $221 $222 $223 $224 reversed $87 $-1 #
coedge $-1 $143 $89 $225 $226 reversed $56 $-1 #
coedge $-1 $89 $142 $221 $227 reversed $56 $-1 #
coedge $-1 $223 $228 $89 $145 forward $218 $-1 #
edge $-1 $229 -11.897205428508567 $230 -1.3778141277980005 $144 $231 forward 7 unknown #
loop $-1 $-1 $151 $90 #
plane-surface $-1 -26.711936910163161 -19.257206854245204 41.979668384767962 0 0.6018150307709319 0.79863550430605224 1 0 0 forward_v I I I I #
loop $-1 $-1 $232 $58 #
coedge $-1 $149 $149 $150 $233 reversed $91 $-1 #
coedge $-1 $150 $150 $149 $233 forward $93 $-1 #
coedge $-1 $151 $151 $94 $152 forward $146 $-1 #
edge $-1 $234 -5.759829694736795e-016 $234 6.2831853071795996 $151 $235 forward 7 unknown #
loop $-1 $-1 $158 $95 #
plane-surface $-1 -26.711936910163161 -19.257206854245204 41.979668384767962 0 0.6018150307709319 0.79863550430605224 1 0 0 forward_v I I I I #
loop $-1 $-1 $236 $61 #
coedge $-1 $156 $156 $157 $237 reversed $96 $-1 #
coedge $-1 $157 $157 $156 $237 forward $98 $-1 #
coedge $-1 $158 $158 $99 $159 forward $153 $-1 #
edge $-1 $238 -5.759829694736795e-016 $238 6.2831853071795996 $158 $239 forward 7 unknown #
face $-1 $240 $241 $24 $-1 $242 reversed single #
loop $-1 $-1 $243 $100 #
plane-surface $-1 -49.804986724448376 0 0 1 0 0 0 0 -1 forward_v I I I I #
coedge $-1 $244 $171 $245 $246 forward $101 $-1 #
coedge $-1 $247 $103 $244 $248 forward $65 $-1 #
coedge $-1 $103 $247 $249 $250 forward $65 $-1 #
coedge $-1 $174 $173 $103 $167 reversed $175 $-1 #
edge $-1 $251 -32.241991619505718 $252 32.241991619505718 $166 $253 forward 7 unknown #
coedge $-1 $105 $104 $254 $255 forward $41 $-1 #
coedge $-1 $256 $257 $104 $170 reversed $241 $-1 #
edge $-1 $177 -49.804986724448376 $258 49.804986724448376 $169 $259 forward 7 unknown #
coedge $-1 $163 $260 $105 $172 reversed $101 $-1 #
edge $-1 $261 -49.804986724448376 $176 49.804986724448376 $171 $262 forward 7 unknown #
coedge $-1 $166 $106 $260 $263 forward $175 $-1 #
coedge $-1 $106 $166 $256 $264 reversed $175 $-1 #
loop $-1 $-1 $173 $240 #
vertex $-1 $107 $265 #
vertex $-1 $107 $266 #
straight-curve $-1 49.804986724448376 0 11.099168104155478 0 1 0 I I #
face $-1 $267 $268 $25 $-1 $269 reversed single #
loop $-1 $-1 $270 $108 #
plane-surface $-1 -54.301262534901319 0 -0.81845019824217147 0 0 1 1 0 0 forward_v I I I I #
coedge $-1 $271 $111 $272 $273 reversed $69 $-1 #
coedge $-1 $111 $271 $188 $274 reversed $69 $-1 #
edge $-1 $190 -3.0179387941600666 $275 0.81845019824217147 $111 $276 forward 7 unknown #
coedge $-1 $113 $112 $270 $277 forward $44 $-1 #
coedge $-1 $278 $279 $112 $187 forward $280 $-1 #
edge $-1 $281 -0.81845019824217147 $191 3.0179387941600666 $186 $282 forward 7 unknown #
coedge $-1 $283 $114 $183 $274 forward $109 $-1 #
coedge $-1 $114 $283 $278 $284 forward $109 $-1 #
vertex $-1 $184 $285 #
vertex $-1 $284 $286 #
straight-curve $-1 -49.804986724448376 0 3.0179387941600666 0 -1 0 I I #
face $-1 $-1 $205 $26 $-1 $287 forward single #
loop $-1 $-1 $288 $116 #
plane-surface $-1 0 -32.241991619505718 0 0 1 0 0 0 1 forward_v I I I I #
coedge $-1 $289 $290 $291 $292 reversed $117 $-1 #
coedge $-1 $293 $119 $121 $203 forward $73 $-1 #
coedge $-1 $119 $293 $289 $294 forward $73 $-1 #
coedge $-1 $291 $122 $119 $200 forward $205 $-1 #
edge $-1 $207 3.6865057471596288 $295 23.025431163003532 $199 $296 forward 7 unknown #
coedge $-1 $297 $298 $120 $202 forward $194 $-1 #
edge $-1 $299 -38.189911675861062 $206 -30.2629815992556 $201 $300 forward 7 unknown #
edge $-1 $207 -13.17170504440703 $299 8.8817612989391469e-015 $121 $301 forward 7 unknown #
coedge $-1 $122 $291 $297 $302 forward $205 $-1 #
loop $-1 $-1 $291 $193 #
vertex $-1 $202 $303 #
vertex $-1 $123 $304 #
straight-curve $-1 -17.042474202241209 -46.094385427872609 11.099168104155474 0 1 0 I I #
coedge $-1 $209 $209 $-1 $305 reversed $126 $-1 #
edge $-1 $306 0 $306 6.2831853071796004 $127 $307 forward 7 unknown #
vertex $-1 $130 $308 #
ellipse-curve $-1 -30.855992356415427 -26.982295969150424 7.1357030658527467 0 -0.6018150307709319 0.79863550430605224 1.5 0 0 1 I I #
coedge $-1 $213 $213 $-1 $309 reversed $133 $-1 #
edge $-1 $310 0 $310 6.2831853071796004 $134 $311 forward 7 unknown #
vertex $-1 $137 $312 #
ellipse-curve $-1 -22.567881463910897 -26.982295969150424 7.1357030658527467 0 -0.6018150307709319 0.79863550430605224 1.5 0 0 1 I I #
face $-1 $-1 $313 $29 $-1 $314 reversed single #
loop $-1 $-1 $144 $138 #
plane-surface $-1 0 0 11.099168104155478 0 0 1 1 0 0 forward_v I I I I #
coedge $-1 $315 $316 $317 $318 reversed $139 $-1 #
coedge $-1 $319 $141 $143 $227 forward $87 $-1 #
coedge $-1 $141 $319 $315 $320 forward $87 $-1 #
coedge $-1 $317 $144 $141 $224 forward $218 $-1 #
edge $-1 $230 -23.025431163003532 $321 -3.6865057471596288 $223 $322 forward 7 unknown #
coedge $-1 $323 $324 $142 $226 forward $313 $-1 #
edge $-1 $325 -57.59362685447001 $229 -49.666696777864573 $225 $326 forward 7 unknown #
edge $-1 $230 51.312278194604431 $325 64.483983239011451 $143 $327 forward 7 unknown #
coedge $-1 $144 $317 $323 $328 forward $218 $-1 #
vertex $-1 $145 $329 #
vertex $-1 $145 $330 #
straight-curve $-1 -36.381399618085112 20.344786190997151 11.099168104155481 0 -1 0 I I #
coedge $-1 $232 $232 $-1 $331 reversed $148 $-1 #
edge $-1 $332 0 $332 6.2831853071796004 $149 $333 forward 7 unknown #
vertex $-1 $152 $334 #
ellipse-curve $-1 -30.855992356415427 26.982295969150435 7.1357030658527538 0 0.6018150307709319 0.79863550430605224 1.5 0 0 1 I I #
coedge $-1 $236 $236 $-1 $335 reversed $155 $-1 #
edge $-1 $336 0 $336 6.2831853071796004 $156 $337 forward 7 unknown #
vertex $-1 $159 $338 #
ellipse-curve $-1 -22.567881463910897 26.982295969150435 7.1357030658527538 0 0.6018150307709319 0.79863550430605224 1.5 0 0 1 I I #
face $-1 $-1 $175 $24 $-1 $339 reversed single #
loop $-1 $-1 $256 $160 #
plane-surface $-1 0 32.241991619505718 0 0 -1 0 0 0 -1 forward_v I I I I #
coedge $-1 $340 $254 $257 $341 forward $161 $-1 #
coedge $-1 $260 $163 $164 $248 reversed $101 $-1 #
coedge $-1 $254 $340 $163 $246 reversed $161 $-1 #
edge $-1 $261 -11.099168104155478 $342 11.099168104155478 $245 $343 forward 7 unknown #
coedge $-1 $165 $164 $340 $344 forward $65 $-1 #
edge $-1 $252 -49.804986724448376 $342 49.804986724448376 $244 $345 forward 7 unknown #
coedge $-1 $257 $256 $165 $250 reversed $241 $-1 #
edge $-1 $346 -49.804986724448376 $251 49.804986724448376 $249 $347 forward 7 unknown #
vertex $-1 $167 $348 #
vertex $-1 $263 $349 #
straight-curve $-1 49.804986724448376 0 -11.099168104155478 0 -1 0 I I #
coedge $-1 $243 $245 $168 $255 reversed $161 $-1 #
edge $-1 $258 -32.241991619505718 $261 32.241991619505718 $254 $350 forward 7 unknown #
coedge $-1 $249 $169 $174 $264 forward $241 $-1 #
coedge $-1 $169 $249 $243 $341 reversed $241 $-1 #
vertex $-1 $170 $351 #
straight-curve $-1 0 32.241991619505718 11.099168104155478 -1 0 0 I I #
coedge $-1 $171 $244 $173 $263 reversed $101 $-1 #
vertex $-1 $255 $352 #
straight-curve $-1 0 -32.241991619505718 11.099168104155478 1 0 0 I I #
edge $-1 $176 -11.099168104155478 $252 11.099168104155478 $173 $353 forward 7 unknown #
edge $-1 $177 -11.099168104155478 $251 11.099168104155478 $174 $354 forward 7 unknown #
point $-1 49.804986724448376 -32.241991619505718 11.099168104155478 #
point $-1 49.804986724448376 32.241991619505718 11.099168104155478 #
face $-1 $-1 $280 $25 $-1 $355 reversed single #
loop $-1 $-1 $356 $179 #
plane-surface $-1 -58.797538345354262 0 1.0997442979589476 1 0 0 0 0 -1 forward_v I I I I #
coedge $-1 $357 $272 $185 $277 reversed $180 $-1 #
coedge $-1 $183 $182 $356 $358 reversed $69 $-1 #
coedge $-1 $270 $359 $182 $273 forward $180 $-1 #
edge $-1 $360 -4.4962758104529428 $275 4.4962758104529428 $182 $361 forward 7 unknown #
edge $-1 $190 -4.4962758104529428 $362 4.4962758104529428 $183 $363 forward 7 unknown #
vertex $-1 $184 $364 #
straight-curve $-1 -49.804986724448376 32.241991619505718 0 0 0 -1 I I #
edge $-1 $281 -32.241991619505718 $275 32.241991619505718 $270 $365 forward 7 unknown #
coedge $-1 $366 $186 $189 $284 reversed $280 $-1 #
coedge $-1 $186 $366 $357 $367 reversed $280 $-1 #
loop $-1 $-1 $186 $267 #
vertex $-1 $187 $368 #
straight-curve $-1 -49.804986724448376 -32.241991619505718 0 0 0 1 I I #
coedge $-1 $189 $188 $369 $370 forward $109 $-1 #
edge $-1 $371 -4.4962758104529428 $191 4.4962758104529428 $278 $372 forward 7 unknown #
point $-1 -49.804986724448376 32.241991619505718 3.0179387941600666 #
point $-1 -49.804986724448376 -32.241991619505718 3.0179387941600666 #
plane-surface $-1 0 0 11.099168104155478 0 0 1 1 0 0 forward_v I I I I #
coedge $-1 $298 $297 $290 $373 forward $194 $-1 #
coedge $-1 $290 $196 $198 $294 reversed $117 $-1 #
coedge $-1 $196 $289 $288 $373 reversed $117 $-1 #
coedge $-1 $204 $199 $196 $292 forward $205 $-1 #
edge $-1 $295 -24.371785109077479 $374 -13.852393808366891 $291 $375 forward 7 unknown #
coedge $-1 $198 $197 $298 $376 reversed $73 $-1 #
edge $-1 $377 -8.8817612989391469e-015 $295 13.17170504440703 $289 $378 forward 7 unknown #
vertex $-1 $200 $379 #
straight-curve $-1 -13.35596845508158 -21.722600318795134 11.099168104155478 -1 0 0 I I #
coedge $-1 $288 $201 $204 $302 reversed $194 $-1 #
coedge $-1 $201 $288 $293 $376 forward $194 $-1 #
vertex $-1 $202 $380 #
straight-curve $-1 -17.042474202241209 -32.241991619505718 41.362149703411077 0 0 1 I I #
straight-curve $-1 -17.042474202241209 -32.241991619505711 3.1722380275500228 0 -0.79863550430605224 -0.6018150307709319 I I #
edge $-1 $374 -36.381399618085112 $206 -17.042474202241209 $297 $381 forward 7 unknown #
point $-1 -17.042474202241209 -32.241991619505718 11.099168104155478 #
point $-1 -17.042474202241209 -21.722600318795131 11.099168104155478 #
edge $-1 $382 1 $382 0 $209 $-1 forward 7 unknown #
vertex $-1 $210 $383 #
ellipse-curve $-1 -30.855992356415427 -23.791015974670653 2.9007315588960436 0 -0.6018150307709319 0.79863550430605224 1.5 0 0 1 I I #
point $-1 -29.355992356415427 -26.982295969150424 7.1357030658527458 #
edge $-1 $384 1 $384 0 $213 $-1 forward 7 unknown #
vertex $-1 $214 $385 #
ellipse-curve $-1 -22.567881463910897 -23.791015974670653 2.9007315588960436 0 -0.6018150307709319 0.79863550430605224 1.5 0 0 1 I I #
point $-1 -21.067881463910897 -26.982295969150424 7.1357030658527458 #
loop $-1 $-1 $225 $217 #
plane-surface $-1 0 32.241991619505718 0 0 -1 0 0 0 -1 forward_v I I I I #
coedge $-1 $316 $220 $222 $320 reversed $139 $-1 #
coedge $-1 $220 $315 $386 $387 reversed $139 $-1 #
coedge $-1 $228 $223 $220 $318 forward $218 $-1 #
edge $-1 $321 1.3778141277980005 $388 11.897205428508567 $317 $389 forward 7 unknown #
coedge $-1 $222 $221 $324 $390 reversed $87 $-1 #
edge $-1 $391 -64.483983239011451 $321 -51.312278194604431 $315 $392 forward 7 unknown #
vertex $-1 $224 $393 #
straight-curve $-1 -13.35596845508158 21.722600318795159 11.099168104155478 1 0 0 I I #
coedge $-1 $386 $225 $228 $328 reversed $313 $-1 #
coedge $-1 $225 $386 $319 $390 forward $313 $-1 #
vertex $-1 $226 $394 #
straight-curve $-1 -36.381399618085112 32.241991619505718 60.765864882020047 0 0 1 I I #
straight-curve $-1 -36.381399618085112 -19.257206854245204 41.979668384767962 0 0.79863550430605224 -0.6018150307709319 I I #
edge $-1 $388 17.042474202241209 $229 36.381399618085112 $323 $395 forward 7 unknown #
point $-1 -36.381399618085112 32.241991619505718 11.099168104155478 #
point $-1 -36.381399618085112 21.722600318795152 11.099168104155478 #
edge $-1 $396 1 $396 0 $232 $-1 forward 7 unknown #
vertex $-1 $233 $397 #
ellipse-curve $-1 -30.855992356415427 23.791015974670657 2.9007315588960436 0 0.6018150307709319 0.79863550430605224 1.5 0 0 1 I I #
point $-1 -29.355992356415427 26.982295969150428 7.1357030658527458 #
edge $-1 $398 1 $398 0 $236 $-1 forward 7 unknown #
vertex $-1 $237 $399 #
ellipse-curve $-1 -22.567881463910897 23.791015974670657 2.9007315588960436 0 0.6018150307709319 0.79863550430605224 1.5 0 0 1 I I #
point $-1 -21.067881463910897 26.982295969150428 7.1357030658527458 #
plane-surface $-1 49.804986724448376 0 0 -1 0 0 0 0 1 forward_v I I I I #
coedge $-1 $245 $243 $247 $344 reversed $161 $-1 #
edge $-1 $258 -11.099168104155478 $346 11.099168104155478 $257 $400 forward 7 unknown #
vertex $-1 $344 $401 #
straight-curve $-1 -49.804986724448376 -32.241991619505718 0 0 0 -1 I I #
edge $-1 $342 -32.241991619505718 $346 32.241991619505718 $340 $402 forward 7 unknown #
straight-curve $-1 0 -32.241991619505718 -11.099168104155478 -1 0 0 I I #
vertex $-1 $250 $403 #
straight-curve $-1 0 32.241991619505718 -11.099168104155478 1 0 0 I I #
point $-1 49.804986724448376 32.241991619505718 -11.099168104155478 #
point $-1 49.804986724448376 -32.241991619505718 -11.099168104155478 #
straight-curve $-1 -49.804986724448376 0 11.099168104155478 0 -1 0 I I #
point $-1 -49.804986724448376 32.241991619505718 11.099168104155478 #
point $-1 -49.804986724448376 -32.241991619505718 11.099168104155478 #
straight-curve $-1 49.804986724448376 -32.241991619505718 0 0 0 -1 I I #
straight-curve $-1 49.804986724448376 32.241991619505718 0 0 0 -1 I I #
plane-surface $-1 0 -32.241991619505718 0 0 1 0 0 0 1 forward_v I I I I #
coedge $-1 $404 $369 $271 $358 forward $268 $-1 #
coedge $-1 $359 $270 $279 $367 forward $180 $-1 #
edge $-1 $362 -1.918194496201119 $360 1.918194496201119 $271 $405 forward 7 unknown #
coedge $-1 $272 $357 $404 $406 forward $180 $-1 #
vertex $-1 $273 $407 #
straight-curve $-1 -54.301262534901319 32.241991619505718 -0.81845019824217147 1 0 0 I I #
vertex $-1 $274 $408 #
straight-curve $-1 -54.301262534901319 32.241991619505718 3.0179387941600666 -1 0 0 I I #
point $-1 -49.804986724448376 32.241991619505718 -0.81845019824217147 #
straight-curve $-1 -49.804986724448376 0 -0.81845019824217147 0 1 0 I I #
coedge $-1 $279 $278 $409 $410 forward $280 $-1 #
edge $-1 $281 -4.4962758104529428 $411 4.4962758104529428 $279 $412 forward 7 unknown #
point $-1 -49.804986724448376 -32.241991619505718 -0.81845019824217147 #
coedge $-1 $356 $409 $283 $370 reversed $268 $-1 #
edge $-1 $362 -32.241991619505718 $371 32.241991619505718 $369 $413 forward 7 unknown #
vertex $-1 $370 $414 #
straight-curve $-1 -54.301262534901319 -32.241991619505718 3.0179387941600666 1 0 0 I I #
edge $-1 $374 30.2629815992556 $377 38.189911675861062 $288 $415 forward 7 unknown #
vertex $-1 $302 $416 #
straight-curve $-1 -36.381399618085112 -46.094385427872609 11.099168104155474 0 -1 0 I I #
edge $-1 $377 -23.025431163003532 $299 -3.6865057471596288 $298 $417 forward 7 unknown #
vertex $-1 $376 $418 #
straight-curve $-1 -36.381399618085112 -32.241991619505711 3.1722380275500228 0 0.79863550430605224 0.6018150307709319 I I #
point $-1 -36.381399618085112 -21.722600318795131 11.099168104155478 #
point $-1 -17.042474202241209 -32.241991619505718 3.1722380275500175 #
straight-curve $-1 0 -32.241991619505718 11.099168104155478 1 0 0 I I #
vertex $-1 $305 $419 #
point $-1 -29.355992356415427 -23.791015974670653 2.9007315588960436 #
vertex $-1 $309 $420 #
point $-1 -21.067881463910897 -23.791015974670653 2.9007315588960436 #
coedge $-1 $324 $323 $316 $387 forward $313 $-1 #
edge $-1 $388 49.666696777864573 $391 57.59362685447001 $386 $421 forward 7 unknown #
vertex $-1 $328 $422 #
straight-curve $-1 -17.042474202241209 20.344786190997151 11.099168104155481 0 1 0 I I #
edge $-1 $391 3.6865057471596288 $325 23.025431163003532 $324 $423 forward 7 unknown #
vertex $-1 $390 $424 #
straight-curve $-1 -17.042474202241209 -19.257206854245204 41.979668384767962 0 -0.79863550430605224 0.6018150307709319 I I #
point $-1 -17.042474202241209 21.722600318795152 11.099168104155478 #
point $-1 -36.381399618085112 32.241991619505711 3.172238027550037 #
straight-curve $-1 0 32.241991619505718 11.099168104155478 -1 0 0 I I #
vertex $-1 $331 $425 #
point $-1 -29.355992356415427 23.791015974670657 2.9007315588960436 #
vertex $-1 $335 $426 #
point $-1 -21.067881463910897 23.791015974670657 2.9007315588960436 #
straight-curve $-1 -49.804986724448376 32.241991619505718 0 0 0 -1 I I #
point $-1 -49.804986724448376 -32.241991619505718 -11.099168104155478 #
straight-curve $-1 -49.804986724448376 0 -11.099168104155478 0 1 0 I I #
point $-1 -49.804986724448376 32.241991619505718 -11.099168104155478 #
coedge $-1 $409 $356 $359 $406 reversed $268 $-1 #
straight-curve $-1 -58.797538345354262 32.241991619505718 1.0997442979589476 0 0 -1 I I #
edge $-1 $411 -32.241991619505718 $360 32.241991619505718 $404 $427 forward 7 unknown #
point $-1 -58.797538345354262 32.241991619505718 -0.81845019824217147 #
point $-1 -58.797538345354262 32.241991619505718 3.0179387941600666 #
coedge $-1 $369 $404 $366 $410 reversed $268 $-1 #
edge $-1 $371 -1.918194496201119 $411 1.918194496201119 $409 $428 forward 7 unknown #
vertex $-1 $406 $429 #
straight-curve $-1 -54.301262534901319 -32.241991619505718 -0.81845019824217147 -1 0 0 I I #
straight-curve $-1 -58.797538345354262 0 3.0179387941600666 0 -1 0 I I #
point $-1 -58.797538345354262 -32.241991619505718 3.0179387941600666 #
straight-curve $-1 -36.381399618085112 -32.241991619505718 41.362149703411077 0 0 -1 I I #
point $-1 -36.381399618085112 -32.241991619505718 11.099168104155478 #
straight-curve $-1 -13.35596845508158 -32.241991619505718 3.1722380275500166 1 0 0 I I #
point $-1 -36.381399618085112 -32.241991619505718 3.1722380275500175 #
point $-1 -30.855992356415427 -22.888293428514256 1.7027783024369654 #
point $-1 -22.567881463910897 -22.888293428514256 1.7027783024369654 #
straight-curve $-1 -17.042474202241209 32.241991619505718 60.765864882020047 0 0 -1 I I #
point $-1 -17.042474202241209 32.241991619505718 11.099168104155478 #
straight-curve $-1 -13.35596845508158 32.241991619505718 3.1722380275500335 -1 0 0 I I #
point $-1 -17.042474202241209 32.241991619505711 3.172238027550037 #
point $-1 -30.855992356415427 22.88829342851426 1.7027783024369654 #
point $-1 -22.567881463910897 22.88829342851426 1.7027783024369654 #
straight-curve $-1 -58.797538345354262 0 -0.81845019824217147 0 1 0 I I #
straight-curve $-1 -58.797538345354262 -32.241991619505718 1.0997442979589476 0 0 -1 I I #
point $-1 -58.797538345354262 -32.241991619505718 -0.81845019824217147 #
End-of-ACIS-data 