500 0 9 0           
7 Unknown 11 ACIS 5.0 NT 24 Thu Mar 25 20:17:32 1999 
-1 9.9999999999999995e-007 1e-010 
body $-1 $9 $-1 $10 #
body $-1 $11 $-1 $12 #
body $-1 $13 $-1 $14 #
body $-1 $15 $-1 $16 #
body $-1 $17 $-1 $18 #
body $-1 $19 $-1 $20 #
body $-1 $21 $-1 $22 #
body $-1 $23 $-1 $24 #
body $-1 $25 $-1 $26 #
lump $-1 $-1 $27 $0 #
transform $-1 1 0 0 0 1 0 0 0 1 54.91988891262551 28.432234490744165 14.123185566733248 1 rotate no_reflect no_shear #
lump $-1 $-1 $28 $1 #
transform $-1 1 0 0 0 1 0 0 0 1 54.91988891262551 28.432234490744165 14.123185566733248 1 rotate no_reflect no_shear #
lump $-1 $-1 $29 $2 #
transform $-1 1 0 0 0 1 0 0 0 1 54.91988891262551 28.432234490744165 14.123185566733248 1 rotate no_reflect no_shear #
lump $-1 $-1 $30 $3 #
transform $-1 1 0 0 0 1 0 0 0 1 54.91988891262551 28.432234490744165 14.123185566733248 1 rotate no_reflect no_shear #
lump $-1 $-1 $31 $4 #
transform $-1 1 0 0 0 1 0 0 0 1 54.91988891262551 28.432234490744165 14.123185566733248 1 rotate no_reflect no_shear #
lump $-1 $-1 $32 $5 #
transform $-1 1 0 0 0 1 0 0 0 1 54.91988891262551 28.432234490744165 14.123185566733248 1 rotate no_reflect no_shear #
lump $-1 $-1 $33 $6 #
transform $-1 1 0 0 0 1 0 0 0 1 54.91988891262551 28.432234490744165 14.123185566733248 1 rotate no_reflect no_shear #
lump $-1 $-1 $34 $7 #
transform $-1 1 0 0 0 1 0 0 0 1 54.91988891262551 28.432234490744165 14.123185566733248 1 rotate no_reflect no_shear #
lump $-1 $-1 $35 $8 #
transform $-1 1 0 0 0 1 0 0 0 1 54.91988891262551 28.432234490744165 14.123185566733248 1 rotate no_reflect no_shear #
shell $-1 $-1 $-1 $36 $-1 $9 #
shell $-1 $-1 $-1 $37 $-1 $11 #
shell $-1 $-1 $-1 $38 $-1 $13 #
shell $-1 $-1 $-1 $39 $-1 $15 #
shell $-1 $-1 $-1 $40 $-1 $17 #
shell $-1 $-1 $-1 $41 $-1 $19 #
shell $-1 $-1 $-1 $42 $-1 $21 #
shell $-1 $-1 $-1 $43 $-1 $23 #
shell $-1 $-1 $-1 $44 $-1 $25 #
face $-1 $45 $46 $27 $-1 $47 forward single #
face $-1 $48 $49 $28 $-1 $50 reversed single #
face $-1 $51 $52 $29 $-1 $53 forward single #
face $-1 $54 $55 $30 $-1 $56 reversed single #
face $-1 $57 $58 $31 $-1 $59 forward single #
face $-1 $60 $61 $32 $-1 $62 forward single #
face $-1 $63 $64 $33 $-1 $65 reversed single #
face $-1 $66 $67 $34 $-1 $68 forward single #
face $-1 $69 $70 $35 $-1 $71 forward single #
face $-1 $72 $73 $27 $-1 $74 reversed single #
loop $-1 $-1 $75 $36 #
plane-surface $-1 0 0 14.123185566733248 0 0 1 1 0 0 forward_v I I I I #
face $-1 $76 $77 $28 $-1 $78 reversed single #
loop $-1 $-1 $79 $37 #
plane-surface $-1 -47.015827227353405 0 10.538921321125153 0 0 1 1 0 0 forward_v I I I I #
face $-1 $80 $81 $29 $-1 $82 reversed single #
loop $-1 $-1 $83 $38 #
plane-surface $-1 54.91988891262551 0 0 -1 0 0 0 0 1 forward_v I I I I #
face $-1 $84 $85 $30 $-1 $86 reversed single #
loop $-1 $-1 $87 $39 #
plane-surface $-1 37.244033819128838 -120.5516242216397 60.620088474768629 -1 0 0 0 -0.83867057594974714 0.54463902268945019 forward_v I I I I #
face $-1 $88 $89 $31 $-1 $90 forward single #
loop $-1 $91 $92 $40 #
cone-surface $-1 30.60868384824316 -22.533889647028275 6.4397075211643093 0 0.83867057594974714 -0.54463902268945019 1 0 0 1 I I 0 1 1 forward I I I I #
face $-1 $93 $94 $32 $-1 $95 forward single #
loop $-1 $96 $97 $41 #
cone-surface $-1 34.589893830774571 -22.533889647028275 6.4397075211643093 0 0.83867057594974714 -0.54463902268945019 1 0 0 1 I I 0 1 1 forward I I I I #
face $-1 $98 $99 $33 $-1 $100 reversed single #
loop $-1 $-1 $101 $42 #
plane-surface $-1 -35.967657493090037 57.577454231399258 128.17077825574796 1 0 0 0 -0.6560590369687036 -0.75470957328743171 forward_v I I I I #
face $-1 $102 $103 $34 $-1 $104 forward single #
loop $-1 $105 $106 $43 #
cone-surface $-1 -30.925248822305704 22.597773746856344 8.4066677901752893 0 -0.6560590369687036 -0.75470957328743171 2 0 0 1 I I 0 1 2 forward I I I I #
face $-1 $107 $108 $35 $-1 $109 forward single #
loop $-1 $110 $111 $44 #
cone-surface $-1 -23.361635816129201 22.597773746856344 8.4066677901752893 0 -0.6560590369687036 -0.75470957328743171 2 0 0 1 I I 0 1 2 forward I I I I #
face $-1 $112 $113 $27 $-1 $114 reversed single #
loop $-1 $-1 $115 $45 #
plane-surface $-1 0 0 -14.123185566733248 0 0 1 1 0 0 forward_v I I I I #
coedge $-1 $116 $117 $118 $119 forward $46 $-1 #
face $-1 $120 $121 $28 $-1 $122 reversed single #
loop $-1 $-1 $123 $48 #
plane-surface $-1 -39.111765542081301 0 12.3310534439292 -1 0 0 0 0 1 forward_v I I I I #
coedge $-1 $124 $125 $126 $127 forward $49 $-1 #
face $-1 $128 $129 $29 $-1 $130 reversed single #
loop $-1 $-1 $131 $51 #
plane-surface $-1 0 -28.432234490744165 0 0 1 0 0 0 1 forward_v I I I I #
coedge $-1 $132 $133 $134 $135 forward $52 $-1 #
face $-1 $136 $137 $30 $-1 $138 reversed single #
loop $-1 $-1 $139 $54 #
plane-surface $-1 32.599288839508858 -28.432234490744165 0.79705922759757186 0 -0.83867057594974714 0.54463902268945019 1 0 0 forward_v I I I I #
coedge $-1 $140 $141 $142 $143 reversed $55 $-1 #
face $-1 $-1 $144 $31 $-1 $145 forward single #
loop $-1 $146 $147 $57 #
cone-surface $-1 30.60868384824316 -20.543253192387827 5.1469731338184843 0 0.83867057594974714 -0.54463902268945019 0.5 0 0 1 I I -0.70710678118654746 0.70710678118654746 0.5 forward I I I I #
loop $-1 $-1 $148 $40 #
coedge $-1 $92 $92 $149 $150 reversed $58 $-1 #
face $-1 $-1 $151 $32 $-1 $152 forward single #
loop $-1 $153 $154 $60 #
cone-surface $-1 34.589893830774571 -20.543253192387827 5.1469731338184843 0 0.83867057594974714 -0.54463902268945019 0.5 0 0 1 I I -0.70710678118654746 0.70710678118654746 0.5 forward I I I I #
loop $-1 $-1 $155 $41 #
coedge $-1 $97 $97 $156 $157 reversed $61 $-1 #
face $-1 $158 $159 $33 $-1 $160 reversed single #
loop $-1 $-1 $161 $63 #
plane-surface $-1 -27.143442319217453 -14.483924629491284 45.273646403266454 0 0.6560590369687036 0.75470957328743171 1 0 0 forward_v I I I I #
coedge $-1 $162 $163 $164 $165 reversed $64 $-1 #
face $-1 $-1 $166 $34 $-1 $167 forward single #
loop $-1 $168 $169 $66 #
cone-surface $-1 -30.925248822305704 19.648080900293024 5.0134344009292704 0 -0.6560590369687036 -0.75470957328743171 1 0 0 1 I I -0.70710678118654746 0.70710678118654746 1 forward I I I I #
loop $-1 $-1 $170 $43 #
coedge $-1 $106 $106 $171 $172 reversed $67 $-1 #
face $-1 $-1 $173 $35 $-1 $174 forward single #
loop $-1 $175 $176 $69 #
cone-surface $-1 -23.361635816129201 19.648080900293024 5.0134344009292704 0 -0.6560590369687036 -0.75470957328743171 1 0 0 1 I I -0.70710678118654746 0.70710678118654746 1 forward I I I I #
loop $-1 $-1 $177 $44 #
coedge $-1 $111 $111 $178 $179 reversed $70 $-1 #
face $-1 $180 $181 $27 $-1 $182 reversed single #
loop $-1 $-1 $183 $72 #
plane-surface $-1 0 -28.432234490744165 0 0 1 0 0 0 1 forward_v I I I I #
coedge $-1 $184 $185 $186 $187 forward $73 $-1 #
coedge $-1 $188 $75 $189 $190 forward $46 $-1 #
coedge $-1 $75 $188 $191 $192 forward $46 $-1 #
coedge $-1 $193 $194 $75 $119 reversed $195 $-1 #
edge $-1 $196 -28.432234490744165 $197 28.432234490744165 $118 $198 forward 7 unknown #
face $-1 $199 $200 $28 $-1 $201 reversed single #
loop $-1 $-1 $202 $76 #
plane-surface $-1 0 28.432234490744165 0 0 -1 0 0 0 -1 forward_v I I I I #
coedge $-1 $126 $203 $204 $205 reversed $77 $-1 #
coedge $-1 $206 $79 $207 $208 reversed $49 $-1 #
coedge $-1 $79 $206 $209 $210 reversed $49 $-1 #
coedge $-1 $211 $123 $79 $127 reversed $77 $-1 #
edge $-1 $212 -28.432234490744165 $213 28.432234490744165 $126 $214 forward 7 unknown #
face $-1 $215 $216 $29 $-1 $217 reversed single #
loop $-1 $-1 $218 $80 #
plane-surface $-1 0 0 -14.123185566733248 0 0 1 1 0 0 forward_v I I I I #
coedge $-1 $219 $220 $221 $222 forward $81 $-1 #
coedge $-1 $221 $83 $218 $223 reversed $52 $-1 #
coedge $-1 $83 $221 $224 $225 reversed $52 $-1 #
coedge $-1 $226 $227 $83 $135 reversed $216 $-1 #
edge $-1 $228 -14.123185566733248 $229 14.123185566733248 $134 $230 forward 7 unknown #
face $-1 $231 $232 $30 $-1 $233 forward single #
loop $-1 $-1 $234 $84 #
plane-surface $-1 27.954543859888879 -120.5516242216397 60.620088474768629 1 0 0 0 0.83867057594974714 -0.54463902268945019 forward_v I I I I #
coedge $-1 $235 $236 $237 $238 reversed $85 $-1 #
coedge $-1 $141 $87 $239 $240 reversed $55 $-1 #
coedge $-1 $87 $140 $235 $241 reversed $55 $-1 #
coedge $-1 $237 $242 $87 $143 forward $232 $-1 #
edge $-1 $243 31.843577620075685 $244 40.49766497417631 $142 $245 forward 7 unknown #
loop $-1 $-1 $149 $88 #
plane-surface $-1 32.599288839508858 -28.432234490744165 0.79705922759757186 0 -0.83867057594974714 0.54463902268945019 1 0 0 forward_v I I I I #
loop $-1 $-1 $246 $57 #
coedge $-1 $147 $147 $148 $247 reversed $89 $-1 #
coedge $-1 $148 $148 $147 $247 forward $91 $-1 #
coedge $-1 $149 $149 $92 $150 forward $144 $-1 #
edge $-1 $248 -7.4488910679604037e-016 $248 6.2831853071795996 $149 $249 forward 7 unknown #
loop $-1 $-1 $156 $93 #
plane-surface $-1 32.599288839508858 -28.432234490744165 0.79705922759757186 0 -0.83867057594974714 0.54463902268945019 1 0 0 forward_v I I I I #
loop $-1 $-1 $250 $60 #
coedge $-1 $154 $154 $155 $251 reversed $94 $-1 #
coedge $-1 $155 $155 $154 $251 forward $96 $-1 #
coedge $-1 $156 $156 $97 $157 forward $151 $-1 #
edge $-1 $252 -7.4488910679604037e-016 $252 6.2831853071795996 $156 $253 forward 7 unknown #
face $-1 $254 $255 $33 $-1 $256 reversed single #
loop $-1 $-1 $257 $98 #
plane-surface $-1 -18.319227145344868 57.577454231399258 128.17077825574796 -1 0 0 0 0.6560590369687036 0.75470957328743171 forward_v I I I I #
coedge $-1 $258 $259 $260 $261 reversed $99 $-1 #
coedge $-1 $163 $101 $262 $263 reversed $64 $-1 #
coedge $-1 $101 $162 $258 $264 reversed $64 $-1 #
coedge $-1 $260 $265 $101 $165 forward $266 $-1 #
edge $-1 $267 0.35649262495546452 $268 7.4381464935418649 $164 $269 forward 7 unknown #
loop $-1 $-1 $171 $102 #
plane-surface $-1 -27.143442319217453 -14.483924629491284 45.273646403266454 0 0.6560590369687036 0.75470957328743171 1 0 0 forward_v I I I I #
loop $-1 $-1 $270 $66 #
coedge $-1 $169 $169 $170 $271 reversed $103 $-1 #
coedge $-1 $170 $170 $169 $271 forward $105 $-1 #
coedge $-1 $171 $171 $106 $172 forward $166 $-1 #
edge $-1 $272 -1.7523855490027546e-016 $272 6.2831853071796004 $171 $273 forward 7 unknown #
loop $-1 $-1 $178 $107 #
plane-surface $-1 -27.143442319217453 -14.483924629491284 45.273646403266454 0 0.6560590369687036 0.75470957328743171 1 0 0 forward_v I I I I #
loop $-1 $-1 $274 $69 #
coedge $-1 $176 $176 $177 $275 reversed $108 $-1 #
coedge $-1 $177 $177 $176 $275 forward $110 $-1 #
coedge $-1 $178 $178 $111 $179 forward $173 $-1 #
edge $-1 $276 -1.7523855490027546e-016 $276 6.2831853071796004 $178 $277 forward 7 unknown #
face $-1 $278 $279 $27 $-1 $280 reversed single #
loop $-1 $-1 $281 $112 #
plane-surface $-1 -54.91988891262551 0 0 1 0 0 0 0 -1 forward_v I I I I #
coedge $-1 $282 $191 $283 $284 forward $113 $-1 #
coedge $-1 $285 $115 $282 $286 forward $73 $-1 #
coedge $-1 $115 $285 $287 $288 forward $73 $-1 #
coedge $-1 $194 $193 $115 $187 reversed $195 $-1 #
edge $-1 $289 -28.432234490744165 $290 28.432234490744165 $186 $291 forward 7 unknown #
coedge $-1 $117 $116 $292 $293 forward $46 $-1 #
coedge $-1 $294 $295 $116 $190 reversed $279 $-1 #
edge $-1 $197 -54.91988891262551 $296 54.91988891262551 $189 $297 forward 7 unknown #
coedge $-1 $183 $298 $117 $192 reversed $113 $-1 #
edge $-1 $299 -54.91988891262551 $196 54.91988891262551 $191 $300 forward 7 unknown #
coedge $-1 $186 $118 $298 $301 forward $195 $-1 #
coedge $-1 $118 $186 $294 $302 reversed $195 $-1 #
loop $-1 $-1 $193 $278 #
vertex $-1 $119 $303 #
vertex $-1 $119 $304 #
straight-curve $-1 54.91988891262551 0 14.123185566733248 0 1 0 I I #
face $-1 $305 $306 $28 $-1 $307 forward single #
loop $-1 $-1 $308 $120 #
plane-surface $-1 -54.91988891262551 0 0 1 0 0 0 0 -1 forward_v I I I I #
coedge $-1 $209 $309 $211 $310 forward $121 $-1 #
coedge $-1 $123 $211 $311 $312 reversed $77 $-1 #
coedge $-1 $313 $207 $123 $205 forward $314 $-1 #
edge $-1 $213 4.3733945991605534 $315 7.9576588447686465 $204 $316 forward 7 unknown #
coedge $-1 $125 $124 $308 $317 reversed $49 $-1 #
coedge $-1 $204 $318 $124 $208 forward $314 $-1 #
edge $-1 $319 -31.411975298948807 $213 -15.603851928404598 $207 $320 forward 7 unknown #
coedge $-1 $321 $202 $125 $210 forward $121 $-1 #
edge $-1 $212 15.603851928404598 $322 31.411975298948807 $209 $323 forward 7 unknown #
coedge $-1 $203 $126 $202 $310 reversed $77 $-1 #
vertex $-1 $210 $324 #
vertex $-1 $208 $325 #
straight-curve $-1 -39.111765542081301 0 10.538921321125153 0 -1 0 I I #
face $-1 $326 $327 $29 $-1 $328 reversed single #
loop $-1 $-1 $329 $128 #
plane-surface $-1 61.592612429652149 -20.896391972001197 0 0 -1 0 0 0 -1 forward_v I I I I #
coedge $-1 $330 $331 $132 $223 forward $129 $-1 #
coedge $-1 $332 $131 $331 $333 reversed $81 $-1 #
coedge $-1 $131 $332 $334 $335 reversed $81 $-1 #
coedge $-1 $133 $132 $131 $222 reversed $52 $-1 #
edge $-1 $336 -14.123185566733248 $337 14.123185566733248 $131 $338 forward 7 unknown #
edge $-1 $337 -28.432234490744165 $229 -20.896391972001197 $218 $339 forward 7 unknown #
coedge $-1 $334 $340 $133 $225 forward $341 $-1 #
edge $-1 $228 20.896391972001197 $336 28.432234490744165 $224 $342 forward 7 unknown #
coedge $-1 $329 $134 $340 $343 reversed $216 $-1 #
coedge $-1 $134 $329 $330 $344 reversed $216 $-1 #
vertex $-1 $225 $345 #
vertex $-1 $344 $346 #
straight-curve $-1 54.91988891262551 -20.896391972001197 0 0 0 -1 I I #
face $-1 $-1 $347 $30 $-1 $348 reversed single #
loop $-1 $-1 $142 $136 #
plane-surface $-1 0 0 14.123185566733248 0 0 1 1 0 0 forward_v I I I I #
coedge $-1 $349 $350 $351 $352 reversed $137 $-1 #
coedge $-1 $353 $139 $141 $241 forward $85 $-1 #
coedge $-1 $139 $353 $349 $354 forward $85 $-1 #
coedge $-1 $351 $142 $139 $238 forward $232 $-1 #
edge $-1 $244 -20.944389399374408 $355 -11.65489944013445 $237 $356 forward 7 unknown #
coedge $-1 $357 $358 $140 $240 forward $347 $-1 #
edge $-1 $359 -29.512985009786743 $243 -16.186858670651066 $239 $360 forward 7 unknown #
edge $-1 $244 -15.889583730828509 $359 0 $141 $361 forward 7 unknown #
coedge $-1 $142 $351 $357 $362 forward $232 $-1 #
vertex $-1 $143 $363 #
vertex $-1 $143 $364 #
straight-curve $-1 37.244033819128838 -60.275812110819849 14.123185566733248 0 1 0 I I #
coedge $-1 $246 $246 $-1 $365 reversed $146 $-1 #
edge $-1 $366 0 $366 6.2831853071796004 $147 $367 forward 7 unknown #
vertex $-1 $150 $368 #
ellipse-curve $-1 30.60868384824316 -24.105190813693852 7.46012239716541 0 -0.83867057594974714 0.54463902268945019 1 0 0 1 I I #
coedge $-1 $250 $250 $-1 $369 reversed $153 $-1 #
edge $-1 $370 0 $370 6.2831853071796004 $154 $371 forward 7 unknown #
vertex $-1 $157 $372 #
ellipse-curve $-1 34.589893830774571 -24.105190813693852 7.46012239716541 0 -0.83867057594974714 0.54463902268945019 1 0 0 1 I I #
face $-1 $-1 $266 $33 $-1 $373 forward single #
loop $-1 $-1 $374 $158 #
plane-surface $-1 0 28.432234490744165 0 0 -1 0 0 0 -1 forward_v I I I I #
coedge $-1 $375 $376 $377 $378 reversed $159 $-1 #
coedge $-1 $379 $161 $163 $264 forward $99 $-1 #
coedge $-1 $161 $379 $375 $380 forward $99 $-1 #
coedge $-1 $377 $164 $161 $261 forward $266 $-1 #
edge $-1 $268 -22.395936333481309 $381 -4.7475059857361419 $260 $382 forward 7 unknown #
coedge $-1 $383 $384 $162 $263 forward $255 $-1 #
edge $-1 $385 -56.118191482339476 $267 -49.962203561140733 $262 $386 forward 7 unknown #
edge $-1 $268 47.481185504985575 $385 56.864468981488329 $163 $387 forward 7 unknown #
coedge $-1 $164 $377 $383 $388 forward $266 $-1 #
loop $-1 $-1 $377 $254 #
vertex $-1 $263 $389 #
vertex $-1 $165 $390 #
straight-curve $-1 -35.967657493090037 28.788727115699629 14.123185566733248 0 -1 0 I I #
coedge $-1 $270 $270 $-1 $391 reversed $168 $-1 #
edge $-1 $392 0 $392 6.2831853071796004 $169 $393 forward 7 unknown #
vertex $-1 $172 $394 #
ellipse-curve $-1 -30.925248822305704 24.891407556450964 11.04519160613388 0 0.6560590369687036 0.75470957328743171 2 0 0 1 I I #
coedge $-1 $274 $274 $-1 $395 reversed $175 $-1 #
edge $-1 $396 0 $396 6.2831853071796004 $176 $397 forward 7 unknown #
vertex $-1 $179 $398 #
ellipse-curve $-1 -23.361635816129201 24.891407556450964 11.04519160613388 0 0.6560590369687036 0.75470957328743171 2 0 0 1 I I #
face $-1 $-1 $195 $27 $-1 $399 reversed single #
loop $-1 $-1 $294 $180 #
plane-surface $-1 0 28.432234490744165 0 0 -1 0 0 0 -1 forward_v I I I I #
coedge $-1 $400 $292 $295 $401 forward $181 $-1 #
coedge $-1 $298 $183 $184 $286 reversed $113 $-1 #
coedge $-1 $292 $400 $183 $284 reversed $181 $-1 #
edge $-1 $299 -14.123185566733248 $402 14.123185566733248 $283 $403 forward 7 unknown #
coedge $-1 $185 $184 $400 $404 forward $73 $-1 #
edge $-1 $290 -54.91988891262551 $402 54.91988891262551 $282 $405 forward 7 unknown #
coedge $-1 $295 $294 $185 $288 reversed $279 $-1 #
edge $-1 $406 -54.91988891262551 $289 54.91988891262551 $287 $407 forward 7 unknown #
vertex $-1 $187 $408 #
vertex $-1 $301 $409 #
straight-curve $-1 54.91988891262551 0 -14.123185566733248 0 -1 0 I I #
coedge $-1 $281 $283 $188 $293 reversed $181 $-1 #
edge $-1 $296 -28.432234490744165 $299 28.432234490744165 $292 $410 forward 7 unknown #
coedge $-1 $287 $189 $194 $302 forward $279 $-1 #
coedge $-1 $189 $287 $281 $401 reversed $279 $-1 #
vertex $-1 $190 $411 #
straight-curve $-1 0 28.432234490744165 14.123185566733248 -1 0 0 I I #
coedge $-1 $191 $282 $193 $301 reversed $113 $-1 #
vertex $-1 $293 $412 #
straight-curve $-1 0 -28.432234490744165 14.123185566733248 1 0 0 I I #
edge $-1 $196 -14.123185566733248 $290 14.123185566733248 $193 $413 forward 7 unknown #
edge $-1 $197 -14.123185566733248 $289 14.123185566733248 $194 $414 forward 7 unknown #
point $-1 54.91988891262551 -28.432234490744165 14.123185566733248 #
point $-1 54.91988891262551 28.432234490744165 14.123185566733248 #
face $-1 $-1 $314 $28 $-1 $415 reversed single #
loop $-1 $-1 $311 $199 #
plane-surface $-1 0 0 14.123185566733248 0 0 1 1 0 0 forward_v I I I I #
coedge $-1 $416 $417 $206 $317 forward $200 $-1 #
coedge $-1 $202 $321 $418 $419 reversed $121 $-1 #
edge $-1 $420 -7.9576588447686465 $212 -4.3733945991605534 $202 $421 forward 7 unknown #
coedge $-1 $418 $422 $203 $312 forward $306 $-1 #
edge $-1 $315 -28.432234490744165 $420 28.432234490744165 $311 $423 forward 7 unknown #
coedge $-1 $318 $204 $422 $424 reversed $314 $-1 #
loop $-1 $-1 $204 $305 #
vertex $-1 $205 $425 #
straight-curve $-1 -39.111765542081301 -28.432234490744165 6.1655267219645999 0 0 1 I I #
edge $-1 $322 -28.432234490744165 $319 28.432234490744165 $308 $426 forward 7 unknown #
coedge $-1 $207 $313 $416 $427 forward $314 $-1 #
vertex $-1 $317 $428 #
straight-curve $-1 -23.507913613676703 -28.432234490744165 10.538921321125153 1 0 0 I I #
coedge $-1 $309 $209 $417 $429 reversed $121 $-1 #
vertex $-1 $317 $430 #
straight-curve $-1 -23.507913613676703 28.432234490744165 10.538921321125153 -1 0 0 I I #
point $-1 -39.111765542081301 28.432234490744165 10.538921321125153 #
point $-1 -39.111765542081301 -28.432234490744165 10.538921321125153 #
face $-1 $-1 $341 $29 $-1 $431 forward single #
loop $-1 $-1 $432 $215 #
plane-surface $-1 68.265335946678789 -24.664313231372681 0 -1 0 0 0 0 1 forward_v I I I I #
coedge $-1 $227 $226 $433 $434 forward $216 $-1 #
coedge $-1 $435 $218 $227 $344 forward $129 $-1 #
coedge $-1 $218 $435 $219 $333 forward $129 $-1 #
coedge $-1 $220 $219 $432 $436 reversed $81 $-1 #
edge $-1 $437 -6.6727235170266397 $337 6.6727235170266397 $219 $438 forward 7 unknown #
coedge $-1 $439 $224 $220 $335 forward $341 $-1 #
edge $-1 $336 -6.6727235170266397 $440 6.6727235170266397 $220 $441 forward 7 unknown #
vertex $-1 $335 $442 #
vertex $-1 $223 $443 #
straight-curve $-1 54.91988891262551 -28.432234490744165 0 0 0 -1 I I #
straight-curve $-1 54.91988891262551 0 -14.123185566733248 0 1 0 I I #
coedge $-1 $224 $439 $226 $343 forward $341 $-1 #
loop $-1 $-1 $224 $326 #
straight-curve $-1 54.91988891262551 0 14.123185566733248 0 -1 0 I I #
edge $-1 $444 -6.6727235170266397 $228 6.6727235170266397 $226 $445 forward 7 unknown #
edge $-1 $229 -6.6727235170266397 $446 6.6727235170266397 $227 $447 forward 7 unknown #
point $-1 54.91988891262551 -20.896391972001197 14.123185566733248 #
point $-1 54.91988891262551 -20.896391972001197 -14.123185566733248 #
loop $-1 $-1 $239 $231 #
plane-surface $-1 0 -28.432234490744165 0 0 1 0 0 0 1 forward_v I I I I #
coedge $-1 $350 $234 $236 $354 reversed $137 $-1 #
coedge $-1 $234 $349 $448 $449 reversed $137 $-1 #
coedge $-1 $242 $237 $234 $352 forward $232 $-1 #
edge $-1 $355 -40.49766497417631 $450 -31.843577620075685 $351 $451 forward 7 unknown #
coedge $-1 $236 $235 $358 $452 reversed $85 $-1 #
edge $-1 $453 0 $355 15.889583730828509 $349 $454 forward 7 unknown #
vertex $-1 $238 $455 #
straight-curve $-1 16.299644419754429 -19.77814713664354 14.123185566733248 -1 0 0 I I #
coedge $-1 $448 $239 $242 $362 reversed $347 $-1 #
coedge $-1 $239 $448 $353 $452 forward $347 $-1 #
vertex $-1 $240 $456 #
straight-curve $-1 37.244033819128838 -28.432234490744165 30.310044237384314 0 0 1 I I #
straight-curve $-1 37.244033819128838 -28.432234490744165 0.79705922759757186 0 -0.54463902268945019 -0.83867057594974714 I I #
edge $-1 $450 -33.63806856976327 $243 -24.348578610523312 $357 $457 forward 7 unknown #
point $-1 37.244033819128838 -28.432234490744165 14.123185566733248 #
point $-1 37.244033819128838 -19.77814713664354 14.123185566733248 #
edge $-1 $458 1 $458 0 $246 $-1 forward 7 unknown #
vertex $-1 $247 $459 #
ellipse-curve $-1 30.60868384824316 -20.962588480362701 5.4192926451632095 0 -0.83867057594974714 0.54463902268945019 1 0 0 1 I I #
point $-1 31.60868384824316 -24.105190813693852 7.4601223971654091 #
edge $-1 $460 1 $460 0 $250 $-1 forward 7 unknown #
vertex $-1 $251 $461 #
ellipse-curve $-1 34.589893830774571 -20.962588480362701 5.4192926451632095 0 -0.83867057594974714 0.54463902268945019 1 0 0 1 I I #
point $-1 35.589893830774571 -24.105190813693852 7.4601223971654091 #
plane-surface $-1 0 0 14.123185566733248 0 0 1 1 0 0 forward_v I I I I #
coedge $-1 $384 $383 $376 $462 forward $255 $-1 #
coedge $-1 $376 $257 $259 $380 reversed $159 $-1 #
coedge $-1 $257 $375 $374 $462 reversed $159 $-1 #
coedge $-1 $265 $260 $257 $378 forward $266 $-1 #
edge $-1 $381 -7.4381464935418649 $463 -0.35649262495546452 $377 $464 forward 7 unknown #
coedge $-1 $259 $258 $384 $465 reversed $99 $-1 #
edge $-1 $466 -56.864468981488329 $381 -47.481185504985575 $375 $467 forward 7 unknown #
vertex $-1 $261 $468 #
straight-curve $-1 -13.571721159608726 21.350580622157768 14.123185566733248 1 0 0 I I #
coedge $-1 $374 $262 $265 $388 reversed $255 $-1 #
coedge $-1 $262 $374 $379 $465 forward $255 $-1 #
vertex $-1 $263 $469 #
straight-curve $-1 -35.967657493090037 28.432234490744165 64.085389127873981 0 0 1 I I #
straight-curve $-1 -35.967657493090037 -14.483924629491284 45.273646403266454 0 0.75470957328743171 -0.6560590369687036 I I #
edge $-1 $463 18.319227145344868 $267 35.967657493090037 $383 $470 forward 7 unknown #
point $-1 -35.967657493090037 28.432234490744165 14.123185566733248 #
point $-1 -35.967657493090037 21.350580622157764 14.123185566733248 #
edge $-1 $471 1 $471 0 $270 $-1 forward 7 unknown #
vertex $-1 $271 $472 #
ellipse-curve $-1 -30.925248822305704 20.304139937261727 5.7681439742167022 0 0.6560590369687036 0.75470957328743171 2 0 0 1 I I #
point $-1 -28.925248822305704 24.891407556450961 11.045191606133876 #
edge $-1 $473 1 $473 0 $274 $-1 forward 7 unknown #
vertex $-1 $275 $474 #
ellipse-curve $-1 -23.361635816129201 20.304139937261727 5.7681439742167022 0 0.6560590369687036 0.75470957328743171 2 0 0 1 I I #
point $-1 -21.361635816129201 24.891407556450961 11.045191606133876 #
plane-surface $-1 54.91988891262551 0 0 -1 0 0 0 0 1 forward_v I I I I #
coedge $-1 $283 $281 $285 $404 reversed $181 $-1 #
edge $-1 $296 -14.123185566733248 $406 14.123185566733248 $295 $475 forward 7 unknown #
vertex $-1 $404 $476 #
straight-curve $-1 -54.91988891262551 -28.432234490744165 0 0 0 -1 I I #
edge $-1 $402 -28.432234490744165 $406 28.432234490744165 $400 $477 forward 7 unknown #
straight-curve $-1 0 -28.432234490744165 -14.123185566733248 -1 0 0 I I #
vertex $-1 $288 $478 #
straight-curve $-1 0 28.432234490744165 -14.123185566733248 1 0 0 I I #
point $-1 54.91988891262551 28.432234490744165 -14.123185566733248 #
point $-1 54.91988891262551 -28.432234490744165 -14.123185566733248 #
straight-curve $-1 -54.91988891262551 0 14.123185566733248 0 -1 0 I I #
point $-1 -54.91988891262551 28.432234490744165 14.123185566733248 #
point $-1 -54.91988891262551 -28.432234490744165 14.123185566733248 #
straight-curve $-1 54.91988891262551 -28.432234490744165 0 0 0 -1 I I #
straight-curve $-1 54.91988891262551 28.432234490744165 0 0 0 -1 I I #
plane-surface $-1 0 -28.432234490744165 0 0 1 0 0 0 1 forward_v I I I I #
coedge $-1 $479 $308 $318 $427 reversed $200 $-1 #
coedge $-1 $308 $479 $321 $429 forward $200 $-1 #
coedge $-1 $480 $311 $309 $419 forward $306 $-1 #
edge $-1 $420 39.111765542081301 $481 54.91988891262551 $309 $482 forward 7 unknown #
vertex $-1 $419 $483 #
straight-curve $-1 -39.111765542081301 28.432234490744165 6.1655267219645999 0 0 -1 I I #
coedge $-1 $311 $480 $313 $424 forward $306 $-1 #
straight-curve $-1 -39.111765542081301 0 14.123185566733248 0 1 0 I I #
edge $-1 $484 -54.91988891262551 $315 -39.111765542081301 $313 $485 forward 7 unknown #
point $-1 -39.111765542081301 -28.432234490744165 14.123185566733246 #
straight-curve $-1 -54.91988891262551 0 10.538921321125153 0 -1 0 I I #
edge $-1 $484 -14.123185566733248 $319 -10.538921321125153 $416 $486 forward 7 unknown #
point $-1 -54.91988891262551 -28.432234490744165 10.538921321125153 #
edge $-1 $481 -14.123185566733248 $322 -10.538921321125153 $321 $487 forward 7 unknown #
point $-1 -54.91988891262551 28.432234490744165 10.538921321125153 #
plane-surface $-1 0 0 14.123185566733248 0 0 1 1 0 0 forward_v I I I I #
coedge $-1 $488 $489 $332 $436 forward $327 $-1 #
coedge $-1 $489 $488 $329 $434 reversed $327 $-1 #
edge $-1 $444 -14.123185566733248 $446 14.123185566733248 $433 $490 forward 7 unknown #
coedge $-1 $331 $330 $488 $491 forward $129 $-1 #
edge $-1 $440 -14.123185566733248 $437 14.123185566733248 $432 $492 forward 7 unknown #
vertex $-1 $436 $493 #
straight-curve $-1 61.592612429652149 -28.432234490744165 -14.123185566733248 -1 0 0 I I #
coedge $-1 $340 $334 $489 $494 forward $341 $-1 #
vertex $-1 $494 $495 #
straight-curve $-1 61.592612429652149 -28.432234490744165 14.123185566733248 1 0 0 I I #
point $-1 54.91988891262551 -28.432234490744165 14.123185566733248 #
point $-1 54.91988891262551 -28.432234490744165 -14.123185566733248 #
vertex $-1 $494 $496 #
straight-curve $-1 61.592612429652149 -20.896391972001197 14.123185566733248 -1 0 0 I I #
vertex $-1 $491 $497 #
straight-curve $-1 61.592612429652149 -20.896391972001197 -14.123185566733248 1 0 0 I I #
coedge $-1 $358 $357 $350 $449 forward $347 $-1 #
edge $-1 $450 16.186858670651066 $453 29.512985009786743 $448 $498 forward 7 unknown #
vertex $-1 $362 $499 #
straight-curve $-1 27.954543859888879 -60.275812110819849 14.123185566733248 0 -1 0 I I #
edge $-1 $453 11.65489944013445 $359 20.944389399374408 $358 $500 forward 7 unknown #
vertex $-1 $452 $501 #
straight-curve $-1 27.954543859888879 -28.432234490744165 0.79705922759757186 0 0.54463902268945019 0.83867057594974714 I I #
point $-1 27.954543859888879 -19.77814713664354 14.123185566733248 #
point $-1 37.244033819128838 -28.432234490744165 0.79705922759757186 #
straight-curve $-1 61.592612429652149 -28.432234490744165 14.123185566733248 1 0 0 I I #
vertex $-1 $365 $502 #
point $-1 31.60868384824316 -20.962588480362701 5.4192926451632095 #
vertex $-1 $369 $503 #
point $-1 35.589893830774571 -20.962588480362701 5.4192926451632095 #
edge $-1 $463 49.962203561140733 $466 56.118191482339476 $374 $504 forward 7 unknown #
vertex $-1 $388 $505 #
straight-curve $-1 -18.319227145344868 28.788727115699629 14.123185566733248 0 1 0 I I #
edge $-1 $466 4.7475059857361419 $385 22.395936333481309 $384 $506 forward 7 unknown #
vertex $-1 $465 $507 #
straight-curve $-1 -18.319227145344868 -14.483924629491284 45.273646403266454 0 -0.75470957328743171 0.6560590369687036 I I #
point $-1 -18.319227145344868 21.350580622157764 14.123185566733248 #
point $-1 -35.967657493090037 28.432234490744165 7.9671976455345046 #
straight-curve $-1 0 28.432234490744165 14.123185566733248 -1 0 0 I I #
vertex $-1 $391 $508 #
point $-1 -28.925248822305704 20.304139937261727 5.7681439742167022 #
vertex $-1 $395 $509 #
point $-1 -21.361635816129201 20.304139937261727 5.7681439742167022 #
straight-curve $-1 -54.91988891262551 28.432234490744165 0 0 0 -1 I I #
point $-1 -54.91988891262551 -28.432234490744165 -14.123185566733248 #
straight-curve $-1 -54.91988891262551 0 -14.123185566733248 0 1 0 I I #
point $-1 -54.91988891262551 28.432234490744165 -14.123185566733248 #
coedge $-1 $417 $416 $480 $510 reversed $200 $-1 #
coedge $-1 $422 $418 $479 $510 forward $306 $-1 #
vertex $-1 $419 $511 #
straight-curve $-1 0 28.432234490744165 14.123185566733248 -1 0 0 I I #
point $-1 -39.111765542081301 28.432234490744165 14.123185566733246 #
vertex $-1 $510 $512 #
straight-curve $-1 0 -28.432234490744165 14.123185566733248 1 0 0 I I #
straight-curve $-1 -54.91988891262551 -28.432234490744165 0 0 0 -1 I I #
straight-curve $-1 -54.91988891262551 28.432234490744165 0 0 0 -1 I I #
coedge $-1 $433 $432 $435 $491 reversed $327 $-1 #
coedge $-1 $432 $433 $439 $494 reversed $327 $-1 #
straight-curve $-1 68.265335946678789 -20.896391972001197 0 0 0 -1 I I #
edge $-1 $446 -3.7679212593714837 $437 3.7679212593714837 $488 $513 forward 7 unknown #
straight-curve $-1 68.265335946678789 -28.432234490744165 0 0 0 -1 I I #
point $-1 68.265335946678789 -28.432234490744165 -14.123185566733248 #
edge $-1 $440 -3.7679212593714837 $444 3.7679212593714837 $489 $514 forward 7 unknown #
point $-1 68.265335946678789 -28.432234490744165 14.123185566733248 #
point $-1 68.265335946678789 -20.896391972001197 14.123185566733248 #
point $-1 68.265335946678789 -20.896391972001197 -14.123185566733248 #
straight-curve $-1 27.954543859888879 -28.432234490744165 30.310044237384314 0 0 -1 I I #
point $-1 27.954543859888879 -28.432234490744165 14.123185566733248 #
straight-curve $-1 16.299644419754429 -28.432234490744165 0.79705922759756975 1 0 0 I I #
point $-1 27.954543859888879 -28.432234490744165 0.79705922759757186 #
point $-1 30.60868384824316 -20.123917904412952 4.8746536224737591 #
point $-1 34.589893830774571 -20.123917904412952 4.8746536224737591 #
straight-curve $-1 -18.319227145344868 28.432234490744165 64.085389127873981 0 0 -1 I I #
point $-1 -18.319227145344868 28.432234490744165 14.123185566733248 #
straight-curve $-1 -13.571721159608726 28.432234490744165 7.9671976455345117 -1 0 0 I I #
point $-1 -18.319227145344868 28.432234490744165 7.9671976455345046 #
point $-1 -30.925248822305704 18.992021863324322 4.2587248276418386 #
point $-1 -23.361635816129201 18.992021863324322 4.2587248276418386 #
edge $-1 $481 -28.432234490744165 $484 28.432234490744165 $479 $515 forward 7 unknown #
point $-1 -54.91988891262551 28.432234490744165 14.123185566733248 #
point $-1 -54.91988891262551 -28.432234490744165 14.123185566733248 #
straight-curve $-1 68.265335946678789 -24.664313231372681 -14.123185566733248 0 -1 0 I I #
straight-curve $-1 68.265335946678789 -24.664313231372681 14.123185566733248 0 1 0 I I #
straight-curve $-1 -54.91988891262551 0 14.123185566733248 0 -1 0 I I #
End-of-ACIS-data 