500 0 9 0           
7 Unknown 11 ACIS 5.0 NT 24 Thu Mar 25 19:29:47 1999 
-1 9.9999999999999995e-007 1e-010 
body $-1 $9 $-1 $10 #
body $-1 $11 $-1 $12 #
body $-1 $13 $-1 $14 #
body $-1 $15 $-1 $16 #
body $-1 $17 $-1 $18 #
body $-1 $19 $-1 $20 #
body $-1 $21 $-1 $22 #
body $-1 $23 $-1 $24 #
body $-1 $25 $-1 $26 #
lump $-1 $-1 $27 $0 #
transform $-1 1 0 0 0 1 0 0 0 1 77.889339884640037 43.638187859804745 18.550924338302263 1 rotate no_reflect no_shear #
lump $-1 $-1 $28 $1 #
transform $-1 1 0 0 0 1 0 0 0 1 77.889339884640037 43.638187859804745 18.550924338302263 1 rotate no_reflect no_shear #
lump $-1 $-1 $29 $2 #
transform $-1 1 0 0 0 1 0 0 0 1 77.889339884640037 43.638187859804745 18.550924338302263 1 rotate no_reflect no_shear #
lump $-1 $-1 $30 $3 #
transform $-1 1 0 0 0 1 0 0 0 1 77.889339884640037 43.638187859804745 18.550924338302263 1 rotate no_reflect no_shear #
lump $-1 $-1 $31 $4 #
transform $-1 1 0 0 0 1 0 0 0 1 77.889339884640037 43.638187859804745 18.550924338302263 1 rotate no_reflect no_shear #
lump $-1 $-1 $32 $5 #
transform $-1 1 0 0 0 1 0 0 0 1 77.889339884640037 43.638187859804745 18.550924338302263 1 rotate no_reflect no_shear #
lump $-1 $-1 $33 $6 #
transform $-1 1 0 0 0 1 0 0 0 1 77.889339884640037 43.638187859804745 18.550924338302263 1 rotate no_reflect no_shear #
lump $-1 $-1 $34 $7 #
transform $-1 1 0 0 0 1 0 0 0 1 77.889339884640037 43.638187859804745 18.550924338302263 1 rotate no_reflect no_shear #
lump $-1 $-1 $35 $8 #
transform $-1 1 0 0 0 1 0 0 0 1 77.889339884640037 43.638187859804745 18.550924338302263 1 rotate no_reflect no_shear #
shell $-1 $-1 $-1 $36 $-1 $9 #
shell $-1 $-1 $-1 $37 $-1 $11 #
shell $-1 $-1 $-1 $38 $-1 $13 #
shell $-1 $-1 $-1 $39 $-1 $15 #
shell $-1 $-1 $-1 $40 $-1 $17 #
shell $-1 $-1 $-1 $41 $-1 $19 #
shell $-1 $-1 $-1 $42 $-1 $21 #
shell $-1 $-1 $-1 $43 $-1 $23 #
shell $-1 $-1 $-1 $44 $-1 $25 #
face $-1 $45 $46 $27 $-1 $47 forward single #
face $-1 $48 $49 $28 $-1 $50 forward single #
face $-1 $51 $52 $29 $-1 $53 forward single #
face $-1 $54 $55 $30 $-1 $56 reversed single #
face $-1 $57 $58 $31 $-1 $59 forward single #
face $-1 $60 $61 $32 $-1 $62 forward single #
face $-1 $63 $64 $33 $-1 $65 reversed single #
face $-1 $66 $67 $34 $-1 $68 forward single #
face $-1 $69 $70 $35 $-1 $71 forward single #
face $-1 $72 $73 $27 $-1 $74 reversed single #
loop $-1 $-1 $75 $36 #
plane-surface $-1 0 0 18.550924338302263 0 0 1 1 0 0 forward_v I I I I #
face $-1 $76 $77 $28 $-1 $78 reversed single #
loop $-1 $-1 $79 $37 #
plane-surface $-1 0 -33.681170154148433 16.890872006889261 0 0 1 1 0 0 forward_v I I I I #
face $-1 $80 $81 $29 $-1 $82 reversed single #
loop $-1 $-1 $83 $38 #
plane-surface $-1 0 33.681170154148433 16.890872006889261 0 0 1 1 0 0 forward_v I I I I #
face $-1 $84 $85 $30 $-1 $86 reversed single #
loop $-1 $-1 $87 $39 #
plane-surface $-1 -205.49576514136302 6.2356730034646581 93.396866737876891 0 -1 0 0.81915205242281985 0 -0.57357642473473569 forward_v I I I I #
face $-1 $88 $89 $31 $-1 $90 forward single #
loop $-1 $91 $92 $40 #
cone-surface $-1 -71.859074005105725 -0.62519343043967268 10.631810054575185 0.81915205242281985 0 -0.57357642473473569 0.57357642473473569 0 0.81915205242281985 1 I I 0 1 1 forward I I I I #
face $-1 $93 $94 $32 $-1 $95 forward single #
loop $-1 $96 $97 $41 #
cone-surface $-1 -71.859074005105725 3.4913264299029265 10.631810054575185 0.81915205242281985 0 -0.57357642473473569 0.57357642473473569 0 0.81915205242281985 1 I I 0 1 1 forward I I I I #
face $-1 $98 $99 $33 $-1 $100 reversed single #
loop $-1 $-1 $101 $42 #
plane-surface $-1 112.35253161885277 -15.354699759257498 230.47241000726379 0 1 0 0.80901700255871778 0 0.5877852410284794 forward_v I I I I #
face $-1 $102 $103 $34 $-1 $104 forward single #
loop $-1 $105 $106 $43 #
cone-surface $-1 75.079393700736503 -12.481828932377478 15.17074983674471 -0.80901700255871778 0 -0.5877852410284794 0.5877852410284794 0 -0.80901700255871778 1 I I 0 1 1 forward I I I I #
face $-1 $107 $108 $35 $-1 $109 forward single #
loop $-1 $110 $111 $44 #
cone-surface $-1 75.079393700736503 -8.1725226920574556 15.17074983674471 -0.80901700255871778 0 -0.5877852410284794 0.5877852410284794 0 -0.80901700255871778 1 I I 0 1 1 forward I I I I #
face $-1 $112 $113 $27 $-1 $114 reversed single #
loop $-1 $-1 $115 $45 #
plane-surface $-1 0 0 -18.550924338302263 0 0 1 1 0 0 forward_v I I I I #
coedge $-1 $116 $117 $118 $119 forward $46 $-1 #
face $-1 $120 $121 $28 $-1 $122 reversed single #
loop $-1 $-1 $123 $48 #
plane-surface $-1 0 -33.681170154148433 9.8580862066860551 0 0 1 1 0 0 forward_v I I I I #
coedge $-1 $124 $125 $126 $127 reversed $49 $-1 #
face $-1 $128 $129 $29 $-1 $130 reversed single #
loop $-1 $-1 $131 $51 #
plane-surface $-1 0 33.681170154148433 9.8580862066860551 0 0 1 1 0 0 forward_v I I I I #
coedge $-1 $132 $133 $134 $135 reversed $52 $-1 #
face $-1 $136 $137 $30 $-1 $138 reversed single #
loop $-1 $-1 $139 $54 #
plane-surface $-1 -77.889339884640052 1.4330664997316234 4.0458885459159291 -0.81915205242281985 0 0.57357642473473569 0.57357642473473569 0 0.81915205242281985 forward_v I I I I #
coedge $-1 $140 $141 $142 $143 reversed $55 $-1 #
face $-1 $-1 $144 $31 $-1 $145 forward single #
loop $-1 $146 $147 $57 #
cone-surface $-1 -70.497499648003071 -0.62519343043967268 9.6784254546739099 0.81915205242281985 0 -0.57357642473473569 0.28678821236736785 0 0.40957602621140993 1 I I -0.70710678118654746 0.70710678118654746 0.5 forward I I I I #
loop $-1 $-1 $148 $40 #
coedge $-1 $92 $92 $149 $150 reversed $58 $-1 #
face $-1 $-1 $151 $32 $-1 $152 forward single #
loop $-1 $153 $154 $60 #
cone-surface $-1 -70.497499648003071 3.4913264299029265 9.6784254546739099 0.81915205242281985 0 -0.57357642473473569 0.28678821236736785 0 0.40957602621140993 1 I I -0.70710678118654746 0.70710678118654746 0.5 forward I I I I #
loop $-1 $-1 $155 $41 #
coedge $-1 $97 $97 $156 $157 reversed $61 $-1 #
face $-1 $158 $159 $33 $-1 $160 reversed single #
loop $-1 $-1 $161 $63 #
plane-surface $-1 -13.675068950644572 -10.327175812217469 138.90800117197921 0.80901700255871778 0 0.5877852410284794 0.5877852410284794 0 -0.80901700255871778 forward_v I I I I #
coedge $-1 $162 $163 $164 $165 reversed $64 $-1 #
face $-1 $-1 $166 $34 $-1 $167 forward single #
loop $-1 $168 $169 $66 #
cone-surface $-1 73.924877280309033 -12.481828932377478 14.331944582583137 -0.80901700255871778 0 -0.5877852410284794 0.2938926205142397 0 -0.40450850127935889 1 I I -0.70710678118654746 0.70710678118654746 0.5 forward I I I I #
loop $-1 $-1 $170 $43 #
coedge $-1 $106 $106 $171 $172 reversed $67 $-1 #
face $-1 $-1 $173 $35 $-1 $174 forward single #
loop $-1 $175 $176 $69 #
cone-surface $-1 73.924877280309033 -8.1725226920574556 14.331944582583137 -0.80901700255871778 0 -0.5877852410284794 0.2938926205142397 0 -0.40450850127935889 1 I I -0.70710678118654746 0.70710678118654746 0.5 forward I I I I #
loop $-1 $-1 $177 $44 #
coedge $-1 $111 $111 $178 $179 reversed $70 $-1 #
face $-1 $180 $181 $27 $-1 $182 reversed single #
loop $-1 $-1 $183 $72 #
plane-surface $-1 0 -43.638187859804745 0 0 1 0 0 0 1 forward_v I I I I #
coedge $-1 $184 $185 $186 $187 forward $73 $-1 #
coedge $-1 $188 $75 $189 $190 forward $46 $-1 #
coedge $-1 $75 $188 $191 $192 forward $46 $-1 #
coedge $-1 $193 $194 $75 $119 reversed $195 $-1 #
edge $-1 $196 -43.638187859804745 $197 43.638187859804745 $118 $198 forward 7 unknown #
face $-1 $199 $200 $28 $-1 $201 reversed single #
loop $-1 $-1 $202 $76 #
plane-surface $-1 0 -23.724152448492124 13.374479106787657 0 -1 0 0 0 -1 forward_v I I I I #
coedge $-1 $203 $204 $205 $206 reversed $77 $-1 #
coedge $-1 $207 $79 $208 $209 forward $49 $-1 #
coedge $-1 $79 $207 $210 $211 reversed $49 $-1 #
coedge $-1 $212 $213 $79 $127 forward $214 $-1 #
edge $-1 $215 6.8835673714179073 $216 26.797602782730529 $126 $217 forward 7 unknown #
face $-1 $218 $219 $29 $-1 $220 reversed single #
loop $-1 $-1 $221 $80 #
plane-surface $-1 0 23.72415244849212 13.374479106787657 0 1 0 0 0 1 forward_v I I I I #
coedge $-1 $222 $223 $224 $225 reversed $81 $-1 #
coedge $-1 $226 $83 $227 $228 reversed $52 $-1 #
coedge $-1 $83 $226 $229 $230 forward $52 $-1 #
coedge $-1 $231 $232 $83 $135 forward $219 $-1 #
edge $-1 $233 -26.797602782730529 $234 -6.8835673714179038 $134 $235 forward 7 unknown #
face $-1 $236 $237 $30 $-1 $238 reversed single #
loop $-1 $-1 $239 $84 #
plane-surface $-1 -205.49576514136302 -3.3695400040014114 93.396866737876891 0 1 0 -0.81915205242281985 0 0.57357642473473569 forward_v I I I I #
coedge $-1 $240 $241 $242 $243 reversed $85 $-1 #
coedge $-1 $141 $87 $244 $245 reversed $55 $-1 #
coedge $-1 $87 $140 $240 $246 reversed $55 $-1 #
coedge $-1 $242 $247 $87 $143 forward $237 $-1 #
edge $-1 $248 28.147509030636183 $249 42.652544823022495 $142 $250 forward 7 unknown #
loop $-1 $-1 $149 $88 #
plane-surface $-1 -77.889339884640052 1.4330664997316234 4.0458885459159291 -0.81915205242281985 0 0.57357642473473569 0.57357642473473569 0 0.81915205242281985 forward_v I I I I #
loop $-1 $-1 $251 $57 #
coedge $-1 $147 $147 $148 $252 reversed $89 $-1 #
coedge $-1 $148 $148 $147 $252 forward $91 $-1 #
coedge $-1 $149 $149 $92 $150 forward $144 $-1 #
edge $-1 $253 0 $253 6.2831853071796004 $149 $254 forward 7 unknown #
loop $-1 $-1 $156 $93 #
plane-surface $-1 -77.889339884640052 1.4330664997316234 4.0458885459159291 -0.81915205242281985 0 0.57357642473473569 0.57357642473473569 0 0.81915205242281985 forward_v I I I I #
loop $-1 $-1 $255 $60 #
coedge $-1 $154 $154 $155 $256 reversed $94 $-1 #
coedge $-1 $155 $155 $154 $256 forward $96 $-1 #
coedge $-1 $156 $156 $97 $157 forward $151 $-1 #
edge $-1 $257 0 $257 6.2831853071796004 $156 $258 forward 7 unknown #
face $-1 $259 $260 $33 $-1 $261 forward single #
loop $-1 $-1 $262 $98 #
plane-surface $-1 112.35253161885277 -5.2996518651774398 230.47241000726379 0 -1 0 -0.80901700255871778 0 -0.5877852410284794 forward_v I I I I #
coedge $-1 $263 $264 $265 $266 reversed $99 $-1 #
coedge $-1 $163 $101 $267 $268 reversed $64 $-1 #
coedge $-1 $101 $162 $263 $269 reversed $64 $-1 #
coedge $-1 $265 $270 $101 $165 forward $271 $-1 #
edge $-1 $272 96.685280665329628 $273 102.35580440115004 $164 $274 forward 7 unknown #
loop $-1 $-1 $171 $102 #
plane-surface $-1 -13.675068950644572 -10.327175812217469 138.90800117197921 0.80901700255871778 0 0.5877852410284794 0.5877852410284794 0 -0.80901700255871778 forward_v I I I I #
loop $-1 $-1 $275 $66 #
coedge $-1 $169 $169 $170 $276 reversed $103 $-1 #
coedge $-1 $170 $170 $169 $276 forward $105 $-1 #
coedge $-1 $171 $171 $106 $172 forward $166 $-1 #
edge $-1 $277 0 $277 6.2831853071796004 $171 $278 forward 7 unknown #
loop $-1 $-1 $178 $107 #
plane-surface $-1 -13.675068950644572 -10.327175812217469 138.90800117197921 0.80901700255871778 0 0.5877852410284794 0.5877852410284794 0 -0.80901700255871778 forward_v I I I I #
loop $-1 $-1 $279 $69 #
coedge $-1 $176 $176 $177 $280 reversed $108 $-1 #
coedge $-1 $177 $177 $176 $280 forward $110 $-1 #
coedge $-1 $178 $178 $111 $179 forward $173 $-1 #
edge $-1 $281 0 $281 6.2831853071796004 $178 $282 forward 7 unknown #
face $-1 $283 $284 $27 $-1 $285 reversed single #
loop $-1 $-1 $286 $112 #
plane-surface $-1 -77.889339884640037 0 0 1 0 0 0 0 -1 forward_v I I I I #
coedge $-1 $287 $191 $288 $289 forward $113 $-1 #
coedge $-1 $290 $115 $287 $291 forward $73 $-1 #
coedge $-1 $115 $290 $292 $293 forward $73 $-1 #
coedge $-1 $194 $193 $115 $187 reversed $195 $-1 #
edge $-1 $294 -43.638187859804745 $295 43.638187859804745 $186 $296 forward 7 unknown #
coedge $-1 $117 $116 $297 $298 forward $46 $-1 #
coedge $-1 $299 $300 $116 $190 reversed $284 $-1 #
edge $-1 $197 -77.889339884640037 $301 77.889339884640037 $189 $302 forward 7 unknown #
coedge $-1 $183 $303 $117 $192 reversed $113 $-1 #
edge $-1 $304 -77.889339884640037 $196 77.889339884640037 $191 $305 forward 7 unknown #
coedge $-1 $186 $118 $303 $306 forward $195 $-1 #
coedge $-1 $118 $186 $299 $307 reversed $195 $-1 #
loop $-1 $-1 $193 $283 #
vertex $-1 $119 $308 #
vertex $-1 $119 $309 #
straight-curve $-1 77.889339884640037 0 18.550924338302263 0 1 0 I I #
face $-1 $310 $311 $28 $-1 $312 reversed single #
loop $-1 $-1 $313 $120 #
plane-surface $-1 -77.889339884640037 0 0 1 0 0 0 0 -1 forward_v I I I I #
coedge $-1 $314 $208 $213 $315 reversed $121 $-1 #
coedge $-1 $316 $123 $317 $318 reversed $77 $-1 #
coedge $-1 $123 $316 $314 $319 forward $77 $-1 #
coedge $-1 $213 $212 $123 $206 forward $214 $-1 #
edge $-1 $320 -26.797602782730529 $321 -6.8835673714179073 $205 $322 forward 7 unknown #
coedge $-1 $125 $124 $313 $323 reversed $49 $-1 #
coedge $-1 $202 $324 $124 $209 reversed $121 $-1 #
edge $-1 $215 -77.889339884640037 $325 77.889339884640037 $208 $326 forward 7 unknown #
coedge $-1 $327 $328 $125 $211 forward $311 $-1 #
edge $-1 $216 -77.889339884640037 $329 77.889339884640037 $210 $330 forward 7 unknown #
coedge $-1 $205 $126 $328 $331 forward $214 $-1 #
coedge $-1 $126 $205 $202 $315 forward $214 $-1 #
loop $-1 $-1 $126 $310 #
vertex $-1 $127 $332 #
vertex $-1 $331 $333 #
straight-curve $-1 77.889339884640037 -16.840585077074216 16.890872006889261 0 -1 0 I I #
face $-1 $334 $335 $29 $-1 $336 reversed single #
loop $-1 $-1 $134 $128 #
plane-surface $-1 77.889339884640037 0 0 -1 0 0 0 0 1 forward_v I I I I #
coedge $-1 $337 $229 $338 $339 reversed $129 $-1 #
coedge $-1 $340 $131 $337 $341 forward $81 $-1 #
coedge $-1 $131 $340 $342 $343 reversed $81 $-1 #
coedge $-1 $232 $231 $131 $225 forward $219 $-1 #
edge $-1 $344 6.8835673714179038 $345 26.797602782730529 $224 $346 forward 7 unknown #
coedge $-1 $133 $132 $347 $348 reversed $52 $-1 #
coedge $-1 $349 $350 $132 $228 forward $351 $-1 #
edge $-1 $352 -77.889339884640037 $233 77.889339884640037 $227 $353 forward 7 unknown #
coedge $-1 $221 $354 $133 $230 reversed $129 $-1 #
edge $-1 $355 -77.889339884640037 $234 77.889339884640037 $229 $356 forward 7 unknown #
coedge $-1 $224 $134 $354 $357 forward $219 $-1 #
coedge $-1 $134 $224 $349 $358 reversed $219 $-1 #
vertex $-1 $358 $359 #
vertex $-1 $135 $360 #
straight-curve $-1 77.889339884640037 16.840585077074216 16.890872006889261 0 -1 0 I I #
face $-1 $-1 $361 $30 $-1 $362 forward single #
loop $-1 $-1 $142 $136 #
plane-surface $-1 -77.889339884640037 0 0 1 0 0 0 0 -1 forward_v I I I I #
coedge $-1 $363 $364 $365 $366 reversed $137 $-1 #
coedge $-1 $367 $139 $141 $246 forward $85 $-1 #
coedge $-1 $139 $367 $363 $368 forward $85 $-1 #
coedge $-1 $365 $142 $139 $243 forward $237 $-1 #
edge $-1 $249 -5.5191397535988465 $369 4.0860732538672231 $242 $370 forward 7 unknown #
coedge $-1 $371 $372 $140 $245 forward $361 $-1 #
edge $-1 $373 -35.015077783327584 $248 -24.858542686041474 $244 $374 forward 7 unknown #
edge $-1 $249 2.4884734274515653e-014 $373 17.707378928593965 $141 $375 forward 7 unknown #
coedge $-1 $142 $365 $371 $376 reversed $237 $-1 #
vertex $-1 $376 $377 #
vertex $-1 $143 $378 #
straight-curve $-1 -77.889339884640037 6.2356730034646581 46.698433368938446 0 0 -1 I I #
coedge $-1 $251 $251 $-1 $379 reversed $146 $-1 #
edge $-1 $380 0 $380 6.2831853071796004 $147 $381 forward 7 unknown #
vertex $-1 $150 $382 #
ellipse-curve $-1 -72.811072335996982 -0.62519343043967268 11.298406442109103 -0.81915205242281985 0 0.57357642473473569 0.57357642473473569 0 0.81915205242281985 1 I I #
coedge $-1 $255 $255 $-1 $383 reversed $153 $-1 #
edge $-1 $384 0 $384 6.2831853071796004 $154 $385 forward 7 unknown #
vertex $-1 $157 $386 #
ellipse-curve $-1 -72.811072335996982 3.4913264299029265 11.298406442109103 -0.81915205242281985 0 0.57357642473473569 0.57357642473473569 0 0.81915205242281985 1 I I #
face $-1 $-1 $271 $33 $-1 $387 reversed single #
loop $-1 $-1 $388 $158 #
plane-surface $-1 0 0 18.550924338302263 0 0 1 1 0 0 forward_v I I I I #
coedge $-1 $389 $390 $391 $392 reversed $159 $-1 #
coedge $-1 $393 $161 $163 $269 forward $99 $-1 #
coedge $-1 $161 $393 $389 $394 forward $99 $-1 #
coedge $-1 $391 $164 $161 $266 forward $271 $-1 #
edge $-1 $273 -10.191111853148763 $395 -0.13606395906870539 $265 $396 forward 7 unknown #
coedge $-1 $397 $398 $162 $268 forward $260 $-1 #
edge $-1 $399 17.593197545702765 $272 21.713074075213655 $267 $400 forward 7 unknown #
edge $-1 $273 -155.77867976928007 $399 -148.76952703468248 $163 $401 forward 7 unknown #
coedge $-1 $164 $391 $397 $402 reversed $271 $-1 #
loop $-1 $-1 $391 $259 #
vertex $-1 $402 $403 #
vertex $-1 $165 $404 #
straight-curve $-1 77.889339884640037 -15.354699759257498 115.23620500363189 0 0 -1 I I #
coedge $-1 $275 $275 $-1 $405 reversed $168 $-1 #
edge $-1 $406 0 $406 6.2831853071796004 $169 $407 forward 7 unknown #
vertex $-1 $172 $408 #
ellipse-curve $-1 75.829401619884621 -12.481828932377478 15.715662470392044 0.80901700255871778 0 0.5877852410284794 0.5877852410284794 0 -0.80901700255871778 1 I I #
coedge $-1 $279 $279 $-1 $409 reversed $175 $-1 #
edge $-1 $410 0 $410 6.2831853071796004 $176 $411 forward 7 unknown #
vertex $-1 $179 $412 #
ellipse-curve $-1 75.829401619884621 -8.1725226920574556 15.715662470392044 0.80901700255871778 0 0.5877852410284794 0.5877852410284794 0 -0.80901700255871778 1 I I #
face $-1 $-1 $195 $27 $-1 $413 reversed single #
loop $-1 $-1 $299 $180 #
plane-surface $-1 0 43.638187859804745 0 0 -1 0 0 0 -1 forward_v I I I I #
coedge $-1 $414 $297 $300 $415 forward $181 $-1 #
coedge $-1 $303 $183 $184 $291 reversed $113 $-1 #
coedge $-1 $297 $414 $183 $289 reversed $181 $-1 #
edge $-1 $304 -18.550924338302263 $416 18.550924338302263 $288 $417 forward 7 unknown #
coedge $-1 $185 $184 $414 $418 forward $73 $-1 #
edge $-1 $295 -77.889339884640037 $416 77.889339884640037 $287 $419 forward 7 unknown #
coedge $-1 $300 $299 $185 $293 reversed $284 $-1 #
edge $-1 $420 -77.889339884640037 $294 77.889339884640037 $292 $421 forward 7 unknown #
vertex $-1 $187 $422 #
vertex $-1 $306 $423 #
straight-curve $-1 77.889339884640037 0 -18.550924338302263 0 -1 0 I I #
coedge $-1 $286 $288 $188 $298 reversed $181 $-1 #
edge $-1 $301 -43.638187859804745 $304 43.638187859804745 $297 $424 forward 7 unknown #
coedge $-1 $292 $189 $194 $307 forward $284 $-1 #
coedge $-1 $189 $292 $286 $415 reversed $284 $-1 #
vertex $-1 $190 $425 #
straight-curve $-1 0 43.638187859804745 18.550924338302263 -1 0 0 I I #
coedge $-1 $191 $287 $193 $306 reversed $113 $-1 #
vertex $-1 $298 $426 #
straight-curve $-1 0 -43.638187859804745 18.550924338302263 1 0 0 I I #
edge $-1 $196 -18.550924338302263 $295 18.550924338302263 $193 $427 forward 7 unknown #
edge $-1 $197 -18.550924338302263 $294 18.550924338302263 $194 $428 forward 7 unknown #
point $-1 77.889339884640037 -43.638187859804745 18.550924338302263 #
point $-1 77.889339884640037 43.638187859804745 18.550924338302263 #
face $-1 $-1 $214 $28 $-1 $429 reversed single #
loop $-1 $-1 $210 $199 #
plane-surface $-1 0 -43.638187859804745 0 0 1 0 0 0 1 forward_v I I I I #
coedge $-1 $430 $431 $207 $323 forward $200 $-1 #
coedge $-1 $324 $202 $204 $319 reversed $121 $-1 #
edge $-1 $321 3.1708466532922266 $215 10.203632453495432 $213 $432 forward 7 unknown #
coedge $-1 $204 $203 $433 $434 reversed $77 $-1 #
coedge $-1 $328 $327 $203 $318 forward $311 $-1 #
edge $-1 $435 -77.889339884640037 $320 77.889339884640037 $317 $436 forward 7 unknown #
edge $-1 $437 -77.889339884640037 $321 77.889339884640037 $314 $438 forward 7 unknown #
vertex $-1 $318 $439 #
vertex $-1 $206 $440 #
straight-curve $-1 77.889339884640037 -16.840585077074216 9.8580862066860551 0 1 0 I I #
edge $-1 $329 -26.797602782730529 $325 -6.8835673714179073 $313 $441 forward 7 unknown #
coedge $-1 $208 $314 $430 $442 reversed $121 $-1 #
vertex $-1 $323 $443 #
straight-curve $-1 0 -23.724152448492124 16.890872006889261 -1 0 0 I I #
coedge $-1 $317 $210 $431 $444 forward $311 $-1 #
coedge $-1 $210 $317 $212 $331 reversed $311 $-1 #
vertex $-1 $444 $445 #
straight-curve $-1 0 -43.638187859804745 16.890872006889261 -1 0 0 I I #
edge $-1 $216 -16.890872006889261 $320 -9.8580862066860551 $212 $446 forward 7 unknown #
point $-1 77.889339884640037 -23.724152448492124 16.890872006889261 #
point $-1 77.889339884640037 -43.638187859804745 16.890872006889261 #
face $-1 $-1 $351 $29 $-1 $447 reversed single #
loop $-1 $-1 $347 $218 #
plane-surface $-1 -77.889339884640037 0 0 1 0 0 0 0 -1 forward_v I I I I #
coedge $-1 $354 $221 $222 $341 reversed $129 $-1 #
coedge $-1 $347 $448 $221 $339 forward $335 $-1 #
edge $-1 $449 3.1708466532922266 $355 10.203632453495432 $338 $450 forward 7 unknown #
coedge $-1 $223 $222 $448 $451 reversed $81 $-1 #
edge $-1 $344 -77.889339884640037 $449 77.889339884640037 $337 $452 forward 7 unknown #
coedge $-1 $350 $349 $223 $343 forward $351 $-1 #
edge $-1 $345 -77.889339884640037 $453 77.889339884640037 $342 $454 forward 7 unknown #
vertex $-1 $225 $455 #
vertex $-1 $343 $456 #
straight-curve $-1 77.889339884640037 16.840585077074216 9.8580862066860551 0 1 0 I I #
coedge $-1 $457 $338 $226 $348 forward $335 $-1 #
edge $-1 $355 6.8835673714179038 $352 26.797602782730529 $347 $458 forward 7 unknown #
coedge $-1 $342 $227 $232 $358 forward $351 $-1 #
coedge $-1 $227 $342 $457 $459 reversed $351 $-1 #
loop $-1 $-1 $227 $334 #
vertex $-1 $459 $460 #
straight-curve $-1 0 43.638187859804745 16.890872006889261 1 0 0 I I #
coedge $-1 $229 $337 $231 $357 reversed $129 $-1 #
vertex $-1 $348 $461 #
straight-curve $-1 0 23.72415244849212 16.890872006889261 1 0 0 I I #
edge $-1 $234 -10.203632453495432 $344 -3.1708466532922266 $231 $462 forward 7 unknown #
edge $-1 $233 -16.890872006889261 $345 -9.8580862066860551 $232 $463 forward 7 unknown #
point $-1 77.889339884640037 43.638187859804745 16.890872006889261 #
point $-1 77.889339884640037 23.72415244849212 16.890872006889261 #
loop $-1 $-1 $244 $236 #
plane-surface $-1 0 0 18.550924338302263 0 0 1 1 0 0 forward_v I I I I #
coedge $-1 $364 $239 $241 $368 reversed $137 $-1 #
coedge $-1 $239 $363 $464 $465 reversed $137 $-1 #
coedge $-1 $247 $242 $239 $366 forward $237 $-1 #
edge $-1 $369 -42.652544823022495 $466 -28.147509030636183 $365 $467 forward 7 unknown #
coedge $-1 $241 $240 $372 $468 reversed $85 $-1 #
edge $-1 $469 -17.707378928593965 $369 -2.4884734274515653e-014 $363 $470 forward 7 unknown #
vertex $-1 $243 $471 #
straight-curve $-1 -77.889339884640037 0.71653324986581168 4.0458885459159468 0 -1 0 I I #
coedge $-1 $464 $244 $247 $376 forward $361 $-1 #
coedge $-1 $244 $464 $367 $468 forward $361 $-1 #
vertex $-1 $245 $472 #
straight-curve $-1 -102.74788257068151 6.2356730034646581 18.550924338302266 -1 0 0 I I #
straight-curve $-1 -77.889339884640052 6.2356730034646581 4.0458885459159291 0.57357642473473569 0 0.81915205242281985 I I #
edge $-1 $248 -6.2356730034646581 $466 3.3695400040014114 $247 $473 forward 7 unknown #
point $-1 -77.889339884640037 6.2356730034646581 18.550924338302263 #
point $-1 -77.889339884640037 6.2356730034646581 4.0458885459159495 #
edge $-1 $474 1 $474 0 $251 $-1 forward 7 unknown #
vertex $-1 $252 $475 #
ellipse-curve $-1 -70.907075674214482 -0.62519343043967268 9.9652136670412776 -0.81915205242281985 0 0.57357642473473569 0.57357642473473569 0 0.81915205242281985 1 I I #
point $-1 -72.237495911262243 -0.62519343043967268 12.117558494531909 #
edge $-1 $476 1 $476 0 $255 $-1 forward 7 unknown #
vertex $-1 $256 $477 #
ellipse-curve $-1 -70.907075674214482 3.4913264299029265 9.9652136670412776 -0.81915205242281985 0 0.57357642473473569 0.57357642473473569 0 0.81915205242281985 1 I I #
point $-1 -72.237495911262243 3.4913264299029265 12.117558494531909 #
plane-surface $-1 77.889339884640037 0 0 -1 0 0 0 0 1 forward_v I I I I #
coedge $-1 $398 $397 $390 $478 forward $260 $-1 #
coedge $-1 $390 $262 $264 $394 reversed $159 $-1 #
coedge $-1 $262 $389 $388 $478 reversed $159 $-1 #
coedge $-1 $270 $265 $262 $392 forward $271 $-1 #
edge $-1 $395 -102.35580440115004 $479 -96.685280665329628 $391 $480 forward 7 unknown #
coedge $-1 $264 $263 $398 $481 reversed $99 $-1 #
edge $-1 $482 148.76952703468248 $395 155.77867976928007 $389 $483 forward 7 unknown #
vertex $-1 $266 $484 #
straight-curve $-1 77.889339884640037 -5.1635879061087344 12.880400602481863 0 1 0 I I #
coedge $-1 $388 $267 $270 $402 forward $260 $-1 #
coedge $-1 $267 $388 $393 $481 forward $260 $-1 #
vertex $-1 $268 $485 #
straight-curve $-1 56.176265809426383 -15.354699759257498 18.550924338302266 1 0 0 I I #
straight-curve $-1 -13.675068950644572 -15.354699759257498 138.90800117197921 -0.5877852410284794 0 0.80901700255871778 I I #
edge $-1 $272 -15.354699759257498 $479 -5.2996518651774398 $270 $486 forward 7 unknown #
point $-1 77.889339884640037 -15.354699759257498 18.550924338302263 #
point $-1 77.889339884640037 -15.354699759257498 12.880400602481856 #
edge $-1 $487 1 $487 0 $275 $-1 forward 7 unknown #
vertex $-1 $276 $488 #
ellipse-curve $-1 74.329385781588385 -12.481828932377478 14.625837203097378 0.80901700255871778 0 0.5877852410284794 0.5877852410284794 0 -0.80901700255871778 1 I I #
point $-1 76.417186860913091 -12.481828932377478 14.906645467833323 #
edge $-1 $489 1 $489 0 $279 $-1 forward 7 unknown #
vertex $-1 $280 $490 #
ellipse-curve $-1 74.329385781588385 -8.1725226920574556 14.625837203097378 0.80901700255871778 0 0.5877852410284794 0.5877852410284794 0 -0.80901700255871778 1 I I #
point $-1 76.417186860913091 -8.1725226920574556 14.906645467833323 #
plane-surface $-1 77.889339884640037 0 0 -1 0 0 0 0 1 forward_v I I I I #
coedge $-1 $288 $286 $290 $418 reversed $181 $-1 #
edge $-1 $301 -18.550924338302263 $420 18.550924338302263 $300 $491 forward 7 unknown #
vertex $-1 $418 $492 #
straight-curve $-1 -77.889339884640037 -43.638187859804745 0 0 0 -1 I I #
edge $-1 $416 -43.638187859804745 $420 43.638187859804745 $414 $493 forward 7 unknown #
straight-curve $-1 0 -43.638187859804745 -18.550924338302263 -1 0 0 I I #
vertex $-1 $293 $494 #
straight-curve $-1 0 43.638187859804745 -18.550924338302263 1 0 0 I I #
point $-1 77.889339884640037 43.638187859804745 -18.550924338302263 #
point $-1 77.889339884640037 -43.638187859804745 -18.550924338302263 #
straight-curve $-1 -77.889339884640037 0 18.550924338302263 0 -1 0 I I #
point $-1 -77.889339884640037 43.638187859804745 18.550924338302263 #
point $-1 -77.889339884640037 -43.638187859804745 18.550924338302263 #
straight-curve $-1 77.889339884640037 -43.638187859804745 0 0 0 -1 I I #
straight-curve $-1 77.889339884640037 43.638187859804745 0 0 0 -1 I I #
plane-surface $-1 77.889339884640037 0 0 -1 0 0 0 0 1 forward_v I I I I #
coedge $-1 $433 $313 $324 $442 forward $200 $-1 #
coedge $-1 $313 $433 $327 $444 reversed $200 $-1 #
straight-curve $-1 77.889339884640037 -23.724152448492124 6.6872395533938285 0 0 1 I I #
coedge $-1 $431 $430 $316 $434 forward $200 $-1 #
edge $-1 $437 6.8835673714179073 $435 26.797602782730529 $433 $495 forward 7 unknown #
vertex $-1 $318 $496 #
straight-curve $-1 0 -43.638187859804745 9.8580862066860551 1 0 0 I I #
vertex $-1 $434 $497 #
straight-curve $-1 0 -23.724152448492124 9.8580862066860551 1 0 0 I I #
point $-1 77.889339884640037 -43.638187859804745 9.8580862066860551 #
point $-1 77.889339884640037 -23.724152448492124 9.8580862066860551 #
straight-curve $-1 -77.889339884640037 -16.840585077074216 16.890872006889261 0 1 0 I I #
edge $-1 $325 -10.203632453495432 $437 -3.1708466532922266 $430 $498 forward 7 unknown #
point $-1 -77.889339884640037 -23.724152448492124 16.890872006889261 #
edge $-1 $329 -16.890872006889261 $435 -9.8580862066860551 $431 $499 forward 7 unknown #
point $-1 -77.889339884640037 -43.638187859804745 16.890872006889261 #
straight-curve $-1 77.889339884640037 -43.638187859804745 0 0 0 -1 I I #
plane-surface $-1 0 43.638187859804745 0 0 -1 0 0 0 -1 forward_v I I I I #
coedge $-1 $338 $457 $340 $451 forward $335 $-1 #
vertex $-1 $451 $500 #
straight-curve $-1 -77.889339884640037 23.72415244849212 6.6872395533938285 0 0 1 I I #
edge $-1 $453 -26.797602782730529 $449 -6.8835673714179038 $448 $501 forward 7 unknown #
straight-curve $-1 0 23.72415244849212 9.8580862066860551 -1 0 0 I I #
vertex $-1 $343 $502 #
straight-curve $-1 0 43.638187859804745 9.8580862066860551 -1 0 0 I I #
point $-1 77.889339884640037 23.72415244849212 9.8580862066860551 #
point $-1 77.889339884640037 43.638187859804745 9.8580862066860551 #
coedge $-1 $448 $347 $350 $459 forward $335 $-1 #
straight-curve $-1 -77.889339884640037 16.840585077074216 16.890872006889261 0 1 0 I I #
edge $-1 $352 -16.890872006889261 $453 -9.8580862066860551 $350 $503 forward 7 unknown #
point $-1 -77.889339884640037 43.638187859804745 16.890872006889261 #
point $-1 -77.889339884640037 23.72415244849212 16.890872006889261 #
straight-curve $-1 77.889339884640037 23.72415244849212 6.6872395533938285 0 0 -1 I I #
straight-curve $-1 77.889339884640037 43.638187859804745 0 0 0 -1 I I #
coedge $-1 $372 $371 $364 $465 forward $361 $-1 #
edge $-1 $466 24.858542686041474 $469 35.015077783327584 $464 $504 forward 7 unknown #
vertex $-1 $465 $505 #
straight-curve $-1 -77.889339884640037 -3.3695400040014114 46.698433368938446 0 0 1 I I #
edge $-1 $469 -4.0860732538672231 $373 5.5191397535988465 $372 $506 forward 7 unknown #
vertex $-1 $468 $507 #
straight-curve $-1 -77.889339884640052 -3.3695400040014114 4.0458885459159291 -0.57357642473473569 0 -0.81915205242281985 I I #
point $-1 -77.889339884640037 -3.3695400040014114 4.0458885459159495 #
point $-1 -67.732804787353928 6.2356730034646581 18.550924338302263 #
straight-curve $-1 -77.889339884640037 0 18.550924338302263 0 -1 0 I I #
vertex $-1 $379 $508 #
point $-1 -70.333499249479743 -0.62519343043967268 10.784365719464098 #
vertex $-1 $383 $509 #
point $-1 -70.333499249479743 3.4913264299029265 10.784365719464098 #
edge $-1 $479 -21.713074075213655 $482 -17.593197545702765 $388 $510 forward 7 unknown #
vertex $-1 $392 $511 #
straight-curve $-1 77.889339884640037 -5.2996518651774398 115.23620500363189 0 0 1 I I #
edge $-1 $482 0.13606395906870539 $399 10.191111853148763 $398 $512 forward 7 unknown #
vertex $-1 $481 $513 #
straight-curve $-1 -13.675068950644572 -5.2996518651774398 138.90800117197921 0.5877852410284794 0 -0.80901700255871778 I I #
point $-1 77.889339884640037 -5.2996518651774398 12.880400602481856 #
point $-1 73.769463355129147 -15.354699759257498 18.550924338302252 #
straight-curve $-1 77.889339884640037 0 18.550924338302263 0 1 0 I I #
vertex $-1 $405 $514 #
point $-1 74.91717102261687 -12.481828932377478 13.816820200538659 #
vertex $-1 $409 $515 #
point $-1 74.91717102261687 -8.1725226920574556 13.816820200538659 #
straight-curve $-1 -77.889339884640037 43.638187859804745 0 0 0 -1 I I #
point $-1 -77.889339884640037 -43.638187859804745 -18.550924338302263 #
straight-curve $-1 -77.889339884640037 0 -18.550924338302263 0 1 0 I I #
point $-1 -77.889339884640037 43.638187859804745 -18.550924338302263 #
straight-curve $-1 -77.889339884640037 -16.840585077074216 9.8580862066860551 0 -1 0 I I #
point $-1 -77.889339884640037 -43.638187859804745 9.8580862066860551 #
point $-1 -77.889339884640037 -23.724152448492124 9.8580862066860551 #
straight-curve $-1 -77.889339884640037 -23.724152448492124 6.6872395533938285 0 0 -1 I I #
straight-curve $-1 -77.889339884640037 -43.638187859804745 0 0 0 -1 I I #
point $-1 -77.889339884640037 23.72415244849212 9.8580862066860551 #
straight-curve $-1 -77.889339884640037 16.840585077074216 9.8580862066860551 0 -1 0 I I #
point $-1 -77.889339884640037 43.638187859804745 9.8580862066860551 #
straight-curve $-1 -77.889339884640037 43.638187859804745 0 0 0 -1 I I #
straight-curve $-1 -102.74788257068151 -3.3695400040014114 18.550924338302266 1 0 0 I I #
point $-1 -77.889339884640037 -3.3695400040014114 18.550924338302263 #
straight-curve $-1 -67.732804787353942 0.71653324986581168 18.550924338302263 0 1 0 I I #
point $-1 -67.732804787353928 -3.3695400040014114 18.550924338302263 #
point $-1 -70.08792362179166 -0.62519343043967268 9.3916372423065422 #
point $-1 -70.08792362179166 3.4913264299029265 9.3916372423065422 #
straight-curve $-1 56.176265809426383 -5.2996518651774398 18.550924338302266 -1 0 0 I I #
point $-1 77.889339884640037 -5.2996518651774398 18.550924338302263 #
straight-curve $-1 73.769463355129133 -5.1635879061087344 18.550924338302266 0 -1 0 I I #
point $-1 73.769463355129147 -5.2996518651774398 18.550924338302252 #
point $-1 73.520368779029681 -12.481828932377478 14.038051962068897 #
point $-1 73.520368779029681 -8.1725226920574556 14.038051962068897 #
End-of-ACIS-data 