500 0 16 0           
7 Unknown 11 ACIS 5.0 NT 24 Fri Mar 26 16:29:50 1999 
-1 9.9999999999999995e-007 1e-010 
body $-1 $16 $-1 $17 #
body $-1 $18 $-1 $19 #
body $-1 $20 $-1 $21 #
body $-1 $22 $-1 $23 #
body $-1 $24 $-1 $25 #
body $-1 $26 $-1 $27 #
body $-1 $28 $-1 $29 #
body $-1 $30 $-1 $31 #
body $-1 $32 $-1 $33 #
body $-1 $34 $-1 $35 #
body $-1 $36 $-1 $37 #
body $-1 $38 $-1 $39 #
body $-1 $40 $-1 $41 #
body $-1 $42 $-1 $43 #
body $-1 $44 $-1 $45 #
body $-1 $46 $-1 $47 #
lump $-1 $-1 $48 $0 #
transform $-1 1 0 0 0 1 0 0 0 1 64.423352763451035 33.470769832749838 15.296326701085817 1 rotate no_reflect no_shear #
lump $-1 $-1 $49 $1 #
transform $-1 1 0 0 0 1 0 0 0 1 64.423352763451035 33.470769832749838 15.296326701085817 1 rotate no_reflect no_shear #
lump $-1 $-1 $50 $2 #
transform $-1 1 0 0 0 1 0 0 0 1 64.423352763451035 33.470769832749838 15.296326701085817 1 rotate no_reflect no_shear #
lump $-1 $-1 $51 $3 #
transform $-1 1 0 0 0 1 0 0 0 1 64.423352763451035 33.470769832749838 15.296326701085817 1 rotate no_reflect no_shear #
lump $-1 $-1 $52 $4 #
transform $-1 1 0 0 0 1 0 0 0 1 64.423352763451035 33.470769832749838 15.296326701085817 1 rotate no_reflect no_shear #
lump $-1 $-1 $53 $5 #
transform $-1 1 0 0 0 1 0 0 0 1 64.423352763451035 33.470769832749838 15.296326701085817 1 rotate no_reflect no_shear #
lump $-1 $-1 $54 $6 #
transform $-1 1 0 0 0 1 0 0 0 1 64.423352763451035 33.470769832749838 15.296326701085817 1 rotate no_reflect no_shear #
lump $-1 $-1 $55 $7 #
transform $-1 1 0 0 0 1 0 0 0 1 64.423352763451035 33.470769832749838 15.296326701085817 1 rotate no_reflect no_shear #
lump $-1 $-1 $56 $8 #
transform $-1 1 0 0 0 1 0 0 0 1 64.423352763451035 33.470769832749838 15.296326701085817 1 rotate no_reflect no_shear #
lump $-1 $-1 $57 $9 #
transform $-1 1 0 0 0 1 0 0 0 1 64.423352763451035 33.470769832749838 15.296326701085817 1 rotate no_reflect no_shear #
lump $-1 $-1 $58 $10 #
transform $-1 1 0 0 0 1 0 0 0 1 64.423352763451035 33.470769832749838 15.296326701085817 1 rotate no_reflect no_shear #
lump $-1 $-1 $59 $11 #
transform $-1 1 0 0 0 1 0 0 0 1 64.423352763451035 33.470769832749838 15.296326701085817 1 rotate no_reflect no_shear #
lump $-1 $-1 $60 $12 #
transform $-1 1 0 0 0 1 0 0 0 1 64.423352763451035 33.470769832749838 15.296326701085817 1 rotate no_reflect no_shear #
lump $-1 $-1 $61 $13 #
transform $-1 1 0 0 0 1 0 0 0 1 64.423352763451035 33.470769832749838 15.296326701085817 1 rotate no_reflect no_shear #
lump $-1 $-1 $62 $14 #
transform $-1 1 0 0 0 1 0 0 0 1 64.423352763451035 33.470769832749838 15.296326701085817 1 rotate no_reflect no_shear #
lump $-1 $-1 $63 $15 #
transform $-1 1 0 0 0 1 0 0 0 1 64.423352763451035 33.470769832749838 15.296326701085817 1 rotate no_reflect no_shear #
shell $-1 $-1 $-1 $64 $-1 $16 #
shell $-1 $-1 $-1 $65 $-1 $18 #
shell $-1 $-1 $-1 $66 $-1 $20 #
shell $-1 $-1 $-1 $67 $-1 $22 #
shell $-1 $-1 $-1 $68 $-1 $24 #
shell $-1 $-1 $-1 $69 $-1 $26 #
shell $-1 $-1 $-1 $70 $-1 $28 #
shell $-1 $-1 $-1 $71 $-1 $30 #
shell $-1 $-1 $-1 $72 $-1 $32 #
shell $-1 $-1 $-1 $73 $-1 $34 #
shell $-1 $-1 $-1 $74 $-1 $36 #
shell $-1 $-1 $-1 $75 $-1 $38 #
shell $-1 $-1 $-1 $76 $-1 $40 #
shell $-1 $-1 $-1 $77 $-1 $42 #
shell $-1 $-1 $-1 $78 $-1 $44 #
shell $-1 $-1 $-1 $79 $-1 $46 #
face $-1 $80 $81 $48 $-1 $82 forward single #
face $-1 $83 $84 $49 $-1 $85 forward single #
face $-1 $86 $87 $50 $-1 $88 reversed single #
face $-1 $89 $90 $51 $-1 $91 forward single #
face $-1 $92 $93 $52 $-1 $94 forward single #
face $-1 $95 $96 $53 $-1 $97 forward single #
face $-1 $98 $99 $54 $-1 $100 reversed single #
face $-1 $101 $102 $55 $-1 $103 forward single #
face $-1 $104 $105 $56 $-1 $106 forward single #
face $-1 $107 $108 $57 $-1 $109 forward single #
face $-1 $110 $111 $58 $-1 $112 reversed single #
face $-1 $113 $114 $59 $-1 $115 forward single #
face $-1 $116 $117 $60 $-1 $118 forward single #
face $-1 $119 $120 $61 $-1 $121 reversed single #
face $-1 $122 $123 $62 $-1 $124 forward single #
face $-1 $125 $126 $63 $-1 $127 forward single #
face $-1 $128 $129 $48 $-1 $130 reversed single #
loop $-1 $-1 $131 $64 #
plane-surface $-1 0 0 15.296326701085817 0 0 1 1 0 0 forward_v I I I I #
face $-1 $132 $133 $49 $-1 $134 reversed single #
loop $-1 $-1 $135 $65 #
plane-surface $-1 -59.118453899596084 0 14.796326701085816 0 0 1 1 0 0 forward_v I I I I #
face $-1 $136 $137 $50 $-1 $138 reversed single #
loop $-1 $-1 $139 $66 #
plane-surface $-1 -41.855270406494554 -33.470769832749838 9.13471433325698 0 -0.75470958851134928 0.65605901945558964 1 0 0 forward_v I I I I #
face $-1 $140 $141 $51 $-1 $142 forward single #
loop $-1 $143 $144 $67 #
cone-surface $-1 -49.030241184042502 -29.786964226954638 11.34127737497761 0 0.75470958851134928 -0.65605901945558964 1.5 0 0 1 I I 0 1 1.5 forward I I I I #
face $-1 $145 $146 $52 $-1 $147 forward single #
loop $-1 $148 $149 $68 #
cone-surface $-1 -41.855270406494554 -29.786964226954638 11.34127737497761 0 0.75470958851134928 -0.65605901945558964 1.5 0 0 1 I I 0 1 1.5 forward I I I I #
face $-1 $150 $151 $53 $-1 $152 forward single #
loop $-1 $153 $154 $69 #
cone-surface $-1 -34.680299628946599 -29.786964226954638 11.34127737497761 0 0.75470958851134928 -0.65605901945558964 1.5 0 0 1 I I 0 1 1.5 forward I I I I #
face $-1 $155 $156 $54 $-1 $157 reversed single #
loop $-1 $-1 $158 $70 #
plane-surface $-1 5.3048988638549481 -130.7126139420011 93.665757621319457 1 0 0 0 0.75470958851134928 -0.65605901945558964 forward_v I I I I #
face $-1 $159 $160 $55 $-1 $161 forward single #
loop $-1 $162 $163 $71 #
cone-surface $-1 10.088212715553581 -29.786964226954638 11.34127737497761 0 0.75470958851134928 -0.65605901945558964 1.5 0 0 1 I I 0 1 1.5 forward I I I I #
face $-1 $164 $165 $56 $-1 $166 forward single #
loop $-1 $167 $168 $72 #
cone-surface $-1 17.263183493101536 -29.786964226954638 11.34127737497761 0 0.75470958851134928 -0.65605901945558964 1.5 0 0 1 I I 0 1 1.5 forward I I I I #
face $-1 $169 $170 $57 $-1 $171 forward single #
loop $-1 $172 $173 $73 #
cone-surface $-1 24.438154270649491 -29.786964226954638 11.34127737497761 0 0.75470958851134928 -0.65605901945558964 1.5 0 0 1 I I 0 1 1.5 forward I I I I #
face $-1 $174 $175 $58 $-1 $176 reversed single #
loop $-1 $-1 $177 $74 #
plane-surface $-1 -41.66151516548878 89.143882074293757 143.9144540895503 1 0 0 0 -0.7660444514056185 -0.64278759981090561 forward_v I I I I #
face $-1 $178 $179 $59 $-1 $180 forward single #
loop $-1 $181 $182 $75 #
cone-surface $-1 -35.991150008073816 30.561072314219668 12.043538760825358 0 -0.7660444514056185 -0.64278759981090561 1.5 0 0 1 I I 0 1 1.5 forward I I I I #
face $-1 $183 $184 $60 $-1 $185 forward single #
loop $-1 $186 $187 $76 #
cone-surface $-1 -27.485602271951365 30.561072314219668 12.043538760825358 0 -0.7660444514056185 -0.64278759981090561 1.5 0 0 1 I I 0 1 1.5 forward I I I I #
face $-1 $188 $189 $61 $-1 $190 reversed single #
loop $-1 $-1 $191 $77 #
plane-surface $-1 17.456938734107307 89.143882074293757 143.9144540895503 1 0 0 0 -0.7660444514056185 -0.64278759981090561 forward_v I I I I #
face $-1 $192 $193 $62 $-1 $194 forward single #
loop $-1 $195 $196 $78 #
cone-surface $-1 23.12730389152226 30.561072314219668 12.043538760825358 0 -0.7660444514056185 -0.64278759981090561 1.5 0 0 1 I I 0 1 1.5 forward I I I I #
face $-1 $197 $198 $63 $-1 $199 forward single #
loop $-1 $200 $201 $79 #
cone-surface $-1 31.632851627644712 30.561072314219668 12.043538760825358 0 -0.7660444514056185 -0.64278759981090561 1.5 0 0 1 I I 0 1 1.5 forward I I I I #
face $-1 $202 $203 $48 $-1 $204 reversed single #
loop $-1 $-1 $205 $80 #
plane-surface $-1 0 0 -15.296326701085817 0 0 1 1 0 0 forward_v I I I I #
coedge $-1 $206 $207 $208 $209 forward $81 $-1 #
face $-1 $210 $211 $49 $-1 $212 reversed single #
loop $-1 $-1 $213 $83 #
plane-surface $-1 -59.118453899596084 0 10.104868096984974 0 0 1 1 0 0 forward_v I I I I #
coedge $-1 $214 $215 $216 $217 forward $84 $-1 #
face $-1 $218 $219 $50 $-1 $220 reversed single #
loop $-1 $-1 $221 $86 #
plane-surface $-1 -29.896985777247966 -130.7126139420011 93.665757621319457 -1 0 0 0 -0.75470958851134928 0.65605901945558964 forward_v I I I I #
coedge $-1 $222 $223 $224 $225 reversed $87 $-1 #
face $-1 $-1 $226 $51 $-1 $227 forward single #
loop $-1 $228 $229 $89 #
cone-surface $-1 -49.030241184042502 -28.215230318900183 9.9749899681921299 0 0.75470958851134928 -0.65605901945558964 0.75 0 0 1 I I -0.70710678118654668 0.70710678118654835 0.75 forward I I I I #
loop $-1 $-1 $230 $67 #
coedge $-1 $144 $144 $231 $232 reversed $90 $-1 #
face $-1 $-1 $233 $52 $-1 $234 forward single #
loop $-1 $235 $236 $92 #
cone-surface $-1 -41.855270406494554 -28.215230318900183 9.9749899681921299 0 0.75470958851134928 -0.65605901945558964 0.75 0 0 1 I I -0.70710678118654668 0.70710678118654835 0.75 forward I I I I #
loop $-1 $-1 $237 $68 #
coedge $-1 $149 $149 $238 $239 reversed $93 $-1 #
face $-1 $-1 $240 $53 $-1 $241 forward single #
loop $-1 $242 $243 $95 #
cone-surface $-1 -34.680299628946599 -28.215230318900183 9.9749899681921299 0 0.75470958851134928 -0.65605901945558964 0.75 0 0 1 I I -0.70710678118654668 0.70710678118654835 0.75 forward I I I I #
loop $-1 $-1 $244 $69 #
coedge $-1 $154 $154 $245 $246 reversed $96 $-1 #
face $-1 $247 $248 $54 $-1 $249 reversed single #
loop $-1 $-1 $250 $98 #
plane-surface $-1 17.263183493101536 -33.470769832749838 9.13471433325698 0 -0.75470958851134928 0.65605901945558964 1 0 0 forward_v I I I I #
coedge $-1 $251 $252 $253 $254 reversed $99 $-1 #
face $-1 $-1 $255 $55 $-1 $256 forward single #
loop $-1 $257 $258 $101 #
cone-surface $-1 10.088212715553581 -28.215230318900183 9.9749899681921299 0 0.75470958851134928 -0.65605901945558964 0.75 0 0 1 I I -0.70710678118654668 0.70710678118654835 0.75 forward I I I I #
loop $-1 $-1 $259 $71 #
coedge $-1 $163 $163 $260 $261 reversed $102 $-1 #
face $-1 $-1 $262 $56 $-1 $263 forward single #
loop $-1 $264 $265 $104 #
cone-surface $-1 17.263183493101536 -28.215230318900183 9.9749899681921299 0 0.75470958851134928 -0.65605901945558964 0.75 0 0 1 I I -0.70710678118654668 0.70710678118654835 0.75 forward I I I I #
loop $-1 $-1 $266 $72 #
coedge $-1 $168 $168 $267 $268 reversed $105 $-1 #
face $-1 $-1 $269 $57 $-1 $270 forward single #
loop $-1 $271 $272 $107 #
cone-surface $-1 24.438154270649491 -28.215230318900183 9.9749899681921299 0 0.75470958851134928 -0.65605901945558964 0.75 0 0 1 I I -0.70710678118654668 0.70710678118654835 0.75 forward I I I I #
loop $-1 $-1 $273 $73 #
coedge $-1 $173 $173 $274 $275 reversed $108 $-1 #
face $-1 $276 $277 $58 $-1 $278 reversed single #
loop $-1 $-1 $279 $110 #
plane-surface $-1 -31.738376140012591 -9.5584217764832147 61.093389500370378 0 0.7660444514056185 0.64278759981090561 1 0 0 forward_v I I I I #
coedge $-1 $280 $281 $282 $283 reversed $111 $-1 #
face $-1 $-1 $284 $59 $-1 $285 forward single #
loop $-1 $286 $287 $113 #
cone-surface $-1 -35.991150008073816 29.37728851286009 11.050226235717012 0 -0.7660444514056185 -0.64278759981090561 0.75 0 0 1 I I -0.70710678118654757 0.70710678118654757 0.75 forward I I I I #
loop $-1 $-1 $288 $75 #
coedge $-1 $182 $182 $289 $290 reversed $114 $-1 #
face $-1 $-1 $291 $60 $-1 $292 forward single #
loop $-1 $293 $294 $116 #
cone-surface $-1 -27.485602271951365 29.37728851286009 11.050226235717012 0 -0.7660444514056185 -0.64278759981090561 0.75 0 0 1 I I -0.70710678118654757 0.70710678118654757 0.75 forward I I I I #
loop $-1 $-1 $295 $76 #
coedge $-1 $187 $187 $296 $297 reversed $117 $-1 #
face $-1 $298 $299 $61 $-1 $300 reversed single #
loop $-1 $-1 $301 $119 #
plane-surface $-1 27.3800777595835 -9.5584217764832147 61.093389500370378 0 0.7660444514056185 0.64278759981090561 1 0 0 forward_v I I I I #
coedge $-1 $302 $303 $304 $305 reversed $120 $-1 #
face $-1 $-1 $306 $62 $-1 $307 forward single #
loop $-1 $308 $309 $122 #
cone-surface $-1 23.12730389152226 29.37728851286009 11.050226235717012 0 -0.7660444514056185 -0.64278759981090561 0.75 0 0 1 I I -0.70710678118654757 0.70710678118654757 0.75 forward I I I I #
loop $-1 $-1 $310 $78 #
coedge $-1 $196 $196 $311 $312 reversed $123 $-1 #
face $-1 $-1 $313 $63 $-1 $314 forward single #
loop $-1 $315 $316 $125 #
cone-surface $-1 31.632851627644712 29.37728851286009 11.050226235717012 0 -0.7660444514056185 -0.64278759981090561 0.75 0 0 1 I I -0.70710678118654757 0.70710678118654757 0.75 forward I I I I #
loop $-1 $-1 $317 $79 #
coedge $-1 $201 $201 $318 $319 reversed $126 $-1 #
face $-1 $320 $321 $48 $-1 $322 reversed single #
loop $-1 $-1 $323 $128 #
plane-surface $-1 0 -33.470769832749838 0 0 1 0 0 0 1 forward_v I I I I #
coedge $-1 $324 $325 $326 $327 forward $129 $-1 #
coedge $-1 $328 $131 $329 $330 forward $81 $-1 #
coedge $-1 $131 $328 $331 $332 forward $81 $-1 #
coedge $-1 $333 $334 $131 $209 reversed $335 $-1 #
edge $-1 $336 -33.470769832749838 $337 33.470769832749838 $208 $338 forward 7 unknown #
face $-1 $339 $340 $49 $-1 $341 reversed single #
loop $-1 $-1 $342 $132 #
plane-surface $-1 -53.813555035741132 0 12.450597399035395 -1 0 0 0 0 1 forward_v I I I I #
coedge $-1 $343 $344 $345 $346 forward $133 $-1 #
coedge $-1 $347 $135 $348 $349 reversed $84 $-1 #
coedge $-1 $135 $347 $350 $351 reversed $84 $-1 #
coedge $-1 $342 $352 $135 $217 reversed $211 $-1 #
edge $-1 $353 -33.470769832749838 $354 33.470769832749838 $216 $355 forward 7 unknown #
face $-1 $356 $357 $50 $-1 $358 forward single #
loop $-1 $-1 $359 $136 #
plane-surface $-1 0 -33.470769832749838 0 0 1 0 0 0 1 forward_v I I I I #
coedge $-1 $360 $361 $362 $363 reversed $137 $-1 #
coedge $-1 $364 $139 $365 $366 forward $87 $-1 #
coedge $-1 $139 $364 $360 $367 forward $87 $-1 #
coedge $-1 $362 $359 $139 $225 forward $219 $-1 #
edge $-1 $368 -32.885919832493869 $369 -8.9693505740006891 $224 $370 forward 7 unknown #
loop $-1 $-1 $231 $140 #
plane-surface $-1 -41.855270406494554 -33.470769832749838 9.13471433325698 0 -0.75470958851134928 0.65605901945558964 1 0 0 forward_v I I I I #
loop $-1 $-1 $371 $89 #
coedge $-1 $229 $229 $230 $372 reversed $141 $-1 #
coedge $-1 $230 $230 $229 $372 forward $143 $-1 #
coedge $-1 $231 $231 $144 $232 forward $226 $-1 #
edge $-1 $373 -1.127407176945957e-015 $373 6.2831853071795996 $231 $374 forward 7 unknown #
loop $-1 $-1 $238 $145 #
plane-surface $-1 -41.855270406494554 -33.470769832749838 9.13471433325698 0 -0.75470958851134928 0.65605901945558964 1 0 0 forward_v I I I I #
loop $-1 $-1 $375 $92 #
coedge $-1 $236 $236 $237 $376 reversed $146 $-1 #
coedge $-1 $237 $237 $236 $376 forward $148 $-1 #
coedge $-1 $238 $238 $149 $239 forward $233 $-1 #
edge $-1 $377 -1.127407176945957e-015 $377 6.2831853071795996 $238 $378 forward 7 unknown #
loop $-1 $-1 $245 $150 #
plane-surface $-1 -41.855270406494554 -33.470769832749838 9.13471433325698 0 -0.75470958851134928 0.65605901945558964 1 0 0 forward_v I I I I #
loop $-1 $-1 $379 $95 #
coedge $-1 $243 $243 $244 $380 reversed $151 $-1 #
coedge $-1 $244 $244 $243 $380 forward $153 $-1 #
coedge $-1 $245 $245 $154 $246 forward $240 $-1 #
edge $-1 $381 -1.127407176945957e-015 $381 6.2831853071795996 $245 $382 forward 7 unknown #
face $-1 $383 $384 $54 $-1 $385 forward single #
loop $-1 $-1 $386 $155 #
plane-surface $-1 29.221468122348124 -130.7126139420011 93.665757621319457 -1 0 0 0 -0.75470958851134928 0.65605901945558964 forward_v I I I I #
coedge $-1 $387 $388 $389 $390 reversed $156 $-1 #
coedge $-1 $252 $158 $391 $392 reversed $99 $-1 #
coedge $-1 $158 $251 $387 $393 reversed $99 $-1 #
coedge $-1 $389 $394 $158 $254 forward $395 $-1 #
edge $-1 $396 31.536552109573911 $397 37.698164477402749 $253 $398 forward 7 unknown #
loop $-1 $-1 $260 $159 #
plane-surface $-1 17.263183493101536 -33.470769832749838 9.13471433325698 0 -0.75470958851134928 0.65605901945558964 1 0 0 forward_v I I I I #
loop $-1 $-1 $399 $101 #
coedge $-1 $258 $258 $259 $400 reversed $160 $-1 #
coedge $-1 $259 $259 $258 $400 forward $162 $-1 #
coedge $-1 $260 $260 $163 $261 forward $255 $-1 #
edge $-1 $401 -1.127407176945957e-015 $401 6.2831853071795996 $260 $402 forward 7 unknown #
loop $-1 $-1 $267 $164 #
plane-surface $-1 17.263183493101536 -33.470769832749838 9.13471433325698 0 -0.75470958851134928 0.65605901945558964 1 0 0 forward_v I I I I #
loop $-1 $-1 $403 $104 #
coedge $-1 $265 $265 $266 $404 reversed $165 $-1 #
coedge $-1 $266 $266 $265 $404 forward $167 $-1 #
coedge $-1 $267 $267 $168 $268 forward $262 $-1 #
edge $-1 $405 -1.127407176945957e-015 $405 6.2831853071795996 $267 $406 forward 7 unknown #
loop $-1 $-1 $274 $169 #
plane-surface $-1 17.263183493101536 -33.470769832749838 9.13471433325698 0 -0.75470958851134928 0.65605901945558964 1 0 0 forward_v I I I I #
loop $-1 $-1 $407 $107 #
coedge $-1 $272 $272 $273 $408 reversed $170 $-1 #
coedge $-1 $273 $273 $272 $408 forward $172 $-1 #
coedge $-1 $274 $274 $173 $275 forward $269 $-1 #
edge $-1 $409 -1.127407176945957e-015 $409 6.2831853071795996 $274 $410 forward 7 unknown #
face $-1 $411 $412 $58 $-1 $413 reversed single #
loop $-1 $-1 $414 $174 #
plane-surface $-1 -21.815237114536398 89.143882074293757 143.9144540895503 -1 0 0 0 0.7660444514056185 0.64278759981090561 forward_v I I I I #
coedge $-1 $415 $416 $417 $418 reversed $175 $-1 #
coedge $-1 $281 $177 $419 $420 reversed $111 $-1 #
coedge $-1 $177 $280 $415 $421 reversed $111 $-1 #
coedge $-1 $417 $422 $177 $283 forward $423 $-1 #
edge $-1 $424 11.101171204397041 $425 15.702065315846625 $282 $426 forward 7 unknown #
loop $-1 $-1 $289 $178 #
plane-surface $-1 -31.738376140012591 -9.5584217764832147 61.093389500370378 0 0.7660444514056185 0.64278759981090561 1 0 0 forward_v I I I I #
loop $-1 $-1 $427 $113 #
coedge $-1 $287 $287 $288 $428 reversed $179 $-1 #
coedge $-1 $288 $288 $287 $428 forward $181 $-1 #
coedge $-1 $289 $289 $182 $290 forward $284 $-1 #
edge $-1 $429 -9.3856512871913786e-016 $429 6.2831853071795996 $289 $430 forward 7 unknown #
loop $-1 $-1 $296 $183 #
plane-surface $-1 -31.738376140012591 -9.5584217764832147 61.093389500370378 0 0.7660444514056185 0.64278759981090561 1 0 0 forward_v I I I I #
loop $-1 $-1 $431 $116 #
coedge $-1 $294 $294 $295 $432 reversed $184 $-1 #
coedge $-1 $295 $295 $294 $432 forward $186 $-1 #
coedge $-1 $296 $296 $187 $297 forward $291 $-1 #
edge $-1 $433 -9.3856512871913786e-016 $433 6.2831853071795996 $296 $434 forward 7 unknown #
face $-1 $435 $436 $61 $-1 $437 forward single #
loop $-1 $-1 $438 $188 #
plane-surface $-1 37.303216785059689 89.143882074293757 143.9144540895503 -1 0 0 0 0.7660444514056185 0.64278759981090561 forward_v I I I I #
coedge $-1 $439 $440 $441 $442 reversed $189 $-1 #
coedge $-1 $303 $191 $443 $444 reversed $120 $-1 #
coedge $-1 $191 $302 $439 $445 reversed $120 $-1 #
coedge $-1 $441 $446 $191 $305 forward $436 $-1 #
edge $-1 $447 11.101171204397041 $448 15.702065315846625 $304 $449 forward 7 unknown #
loop $-1 $-1 $311 $192 #
plane-surface $-1 27.3800777595835 -9.5584217764832147 61.093389500370378 0 0.7660444514056185 0.64278759981090561 1 0 0 forward_v I I I I #
loop $-1 $-1 $450 $122 #
coedge $-1 $309 $309 $310 $451 reversed $193 $-1 #
coedge $-1 $310 $310 $309 $451 forward $195 $-1 #
coedge $-1 $311 $311 $196 $312 forward $306 $-1 #
edge $-1 $452 -9.3856512871913786e-016 $452 6.2831853071795996 $311 $453 forward 7 unknown #
loop $-1 $-1 $318 $197 #
plane-surface $-1 27.3800777595835 -9.5584217764832147 61.093389500370378 0 0.7660444514056185 0.64278759981090561 1 0 0 forward_v I I I I #
loop $-1 $-1 $454 $125 #
coedge $-1 $316 $316 $317 $455 reversed $198 $-1 #
coedge $-1 $317 $317 $316 $455 forward $200 $-1 #
coedge $-1 $318 $318 $201 $319 forward $313 $-1 #
edge $-1 $456 -9.3856512871913786e-016 $456 6.2831853071795996 $318 $457 forward 7 unknown #
face $-1 $458 $459 $48 $-1 $460 reversed single #
loop $-1 $-1 $461 $202 #
plane-surface $-1 -64.423352763451035 0 0 1 0 0 0 0 -1 forward_v I I I I #
coedge $-1 $462 $331 $463 $464 forward $203 $-1 #
coedge $-1 $465 $205 $462 $466 forward $129 $-1 #
coedge $-1 $205 $465 $467 $468 forward $129 $-1 #
coedge $-1 $334 $333 $205 $327 reversed $335 $-1 #
edge $-1 $469 -33.470769832749838 $470 33.470769832749838 $326 $471 forward 7 unknown #
coedge $-1 $207 $206 $472 $473 forward $81 $-1 #
coedge $-1 $474 $475 $206 $330 reversed $459 $-1 #
edge $-1 $337 -64.423352763451035 $476 64.423352763451035 $329 $477 forward 7 unknown #
coedge $-1 $323 $478 $207 $332 reversed $203 $-1 #
edge $-1 $479 -64.423352763451035 $336 64.423352763451035 $331 $480 forward 7 unknown #
coedge $-1 $326 $208 $478 $481 forward $335 $-1 #
coedge $-1 $208 $326 $474 $482 reversed $335 $-1 #
loop $-1 $-1 $333 $458 #
vertex $-1 $209 $483 #
vertex $-1 $209 $484 #
straight-curve $-1 64.423352763451035 0 15.296326701085817 0 1 0 I I #
face $-1 $485 $486 $49 $-1 $487 reversed single #
loop $-1 $-1 $488 $210 #
plane-surface $-1 0 -33.470769832749838 0 0 1 0 0 0 1 forward_v I I I I #
coedge $-1 $345 $216 $489 $490 reversed $211 $-1 #
coedge $-1 $491 $213 $488 $492 reversed $133 $-1 #
coedge $-1 $213 $491 $493 $494 reversed $133 $-1 #
coedge $-1 $352 $342 $213 $346 reversed $211 $-1 #
edge $-1 $495 -33.470769832749838 $496 33.470769832749838 $345 $497 forward 7 unknown #
coedge $-1 $215 $214 $498 $499 reversed $84 $-1 #
coedge $-1 $500 $501 $214 $349 forward $502 $-1 #
edge $-1 $503 -34.86412581365299 $354 -24.25432808594309 $348 $504 forward 7 unknown #
coedge $-1 $505 $489 $215 $351 forward $340 $-1 #
edge $-1 $353 24.25432808594309 $506 34.86412581365299 $350 $507 forward 7 unknown #
coedge $-1 $216 $345 $500 $508 reversed $211 $-1 #
vertex $-1 $351 $509 #
vertex $-1 $349 $510 #
straight-curve $-1 -53.813555035741132 0 14.796326701085816 0 1 0 I I #
face $-1 $-1 $511 $50 $-1 $512 forward single #
loop $-1 $-1 $365 $218 #
plane-surface $-1 -53.813555035741132 0 12.450597399035395 -1 0 0 0 0 1 forward_v I I I I #
coedge $-1 $224 $513 $514 $515 forward $219 $-1 #
coedge $-1 $361 $221 $223 $367 reversed $137 $-1 #
coedge $-1 $221 $360 $516 $517 reversed $137 $-1 #
coedge $-1 $513 $224 $221 $363 forward $219 $-1 #
edge $-1 $369 -37.698164477402749 $518 -31.536552109573911 $362 $519 forward 7 unknown #
coedge $-1 $223 $222 $520 $521 reversed $87 $-1 #
coedge $-1 $514 $522 $222 $366 reversed $357 $-1 #
edge $-1 $368 0 $523 8.1642163576886659 $365 $524 forward 7 unknown #
edge $-1 $525 -8.1642163576886659 $369 0 $360 $526 forward 7 unknown #
vertex $-1 $225 $527 #
vertex $-1 $225 $528 #
straight-curve $-1 -20.927635203247277 -33.470769832749838 9.1347143332569765 1 0 0 I I #
coedge $-1 $371 $371 $-1 $529 reversed $228 $-1 #
edge $-1 $530 0 $530 6.2831853071796004 $229 $531 forward 7 unknown #
vertex $-1 $232 $532 #
ellipse-curve $-1 -49.030241184042502 -30.792665943625583 12.215520517171399 0 -0.75470958851134928 0.65605901945558964 1.5 0 0 1 I I #
coedge $-1 $375 $375 $-1 $533 reversed $235 $-1 #
edge $-1 $534 0 $534 6.2831853071796004 $236 $535 forward 7 unknown #
vertex $-1 $239 $536 #
ellipse-curve $-1 -41.855270406494554 -30.792665943625583 12.215520517171399 0 -0.75470958851134928 0.65605901945558964 1.5 0 0 1 I I #
coedge $-1 $379 $379 $-1 $537 reversed $242 $-1 #
edge $-1 $538 0 $538 6.2831853071796004 $243 $539 forward 7 unknown #
vertex $-1 $246 $540 #
ellipse-curve $-1 -34.680299628946599 -30.792665943625583 12.215520517171399 0 -0.75470958851134928 0.65605901945558964 1.5 0 0 1 I I #
face $-1 $-1 $395 $54 $-1 $541 reversed single #
loop $-1 $-1 $542 $247 #
plane-surface $-1 0 0 15.296326701085817 0 0 1 1 0 0 forward_v I I I I #
coedge $-1 $543 $544 $545 $546 reversed $248 $-1 #
coedge $-1 $547 $250 $252 $393 forward $156 $-1 #
coedge $-1 $250 $547 $543 $548 forward $156 $-1 #
coedge $-1 $545 $253 $250 $390 forward $395 $-1 #
edge $-1 $397 -3.32669288269582 $549 20.589876375797356 $389 $550 forward 7 unknown #
coedge $-1 $551 $552 $251 $392 forward $384 $-1 #
edge $-1 $553 -37.241744916499222 $396 -31.885537138250712 $391 $554 forward 7 unknown #
edge $-1 $397 0 $553 8.1642163576886659 $252 $555 forward 7 unknown #
coedge $-1 $253 $545 $551 $556 reversed $395 $-1 #
loop $-1 $-1 $545 $383 #
vertex $-1 $556 $557 #
vertex $-1 $254 $558 #
straight-curve $-1 5.3048988638549481 -33.470769832749838 46.832878810659729 0 0 -1 I I #
coedge $-1 $399 $399 $-1 $559 reversed $257 $-1 #
edge $-1 $560 0 $560 6.2831853071796004 $258 $561 forward 7 unknown #
vertex $-1 $261 $562 #
ellipse-curve $-1 10.088212715553581 -30.792665943625583 12.215520517171399 0 -0.75470958851134928 0.65605901945558964 1.5 0 0 1 I I #
coedge $-1 $403 $403 $-1 $563 reversed $264 $-1 #
edge $-1 $564 0 $564 6.2831853071796004 $265 $565 forward 7 unknown #
vertex $-1 $268 $566 #
ellipse-curve $-1 17.263183493101536 -30.792665943625583 12.215520517171399 0 -0.75470958851134928 0.65605901945558964 1.5 0 0 1 I I #
coedge $-1 $407 $407 $-1 $567 reversed $271 $-1 #
edge $-1 $568 0 $568 6.2831853071796004 $272 $569 forward 7 unknown #
vertex $-1 $275 $570 #
ellipse-curve $-1 24.438154270649491 -30.792665943625583 12.215520517171399 0 -0.75470958851134928 0.65605901945558964 1.5 0 0 1 I I #
face $-1 $-1 $423 $58 $-1 $571 forward single #
loop $-1 $-1 $572 $276 #
plane-surface $-1 0 33.470769832749838 0 0 -1 0 0 0 -1 forward_v I I I I #
coedge $-1 $573 $574 $575 $576 reversed $277 $-1 #
coedge $-1 $577 $279 $281 $421 forward $175 $-1 #
coedge $-1 $279 $577 $573 $578 forward $175 $-1 #
coedge $-1 $575 $282 $279 $418 forward $423 $-1 #
edge $-1 $425 -25.792327095482484 $579 -5.9460490445301026 $417 $580 forward 7 unknown #
coedge $-1 $581 $582 $280 $420 forward $412 $-1 #
edge $-1 $583 -62.1440325737099 $424 -56.660900343689335 $419 $584 forward 7 unknown #
edge $-1 $425 59.783818961486283 $583 66.941539665499675 $281 $585 forward 7 unknown #
coedge $-1 $282 $575 $581 $586 forward $423 $-1 #
loop $-1 $-1 $575 $411 #
vertex $-1 $420 $587 #
vertex $-1 $283 $588 #
straight-curve $-1 -41.66151516548878 44.571941037146878 15.296326701085817 0 -1 0 I I #
coedge $-1 $427 $427 $-1 $589 reversed $286 $-1 #
edge $-1 $590 0 $590 6.2831853071796004 $287 $591 forward 7 unknown #
vertex $-1 $290 $592 #
ellipse-curve $-1 -35.991150008073816 31.170322777025039 12.554760586075531 0 0.7660444514056185 0.64278759981090561 1.5 0 0 1 I I #
coedge $-1 $431 $431 $-1 $593 reversed $293 $-1 #
edge $-1 $594 0 $594 6.2831853071796004 $294 $595 forward 7 unknown #
vertex $-1 $297 $596 #
ellipse-curve $-1 -27.485602271951365 31.170322777025039 12.554760586075531 0 0.7660444514056185 0.64278759981090561 1.5 0 0 1 I I #
face $-1 $-1 $597 $61 $-1 $598 reversed single #
loop $-1 $-1 $304 $298 #
plane-surface $-1 0 0 15.296326701085817 0 0 1 1 0 0 forward_v I I I I #
coedge $-1 $599 $600 $601 $602 reversed $299 $-1 #
coedge $-1 $603 $301 $303 $445 forward $189 $-1 #
coedge $-1 $301 $603 $599 $604 forward $189 $-1 #
coedge $-1 $601 $304 $301 $442 forward $436 $-1 #
edge $-1 $448 3.7668998543155574 $605 23.613177905267939 $441 $606 forward 7 unknown #
coedge $-1 $607 $608 $302 $444 forward $597 $-1 #
edge $-1 $609 -62.1440325737099 $447 -56.660900343689335 $443 $610 forward 7 unknown #
edge $-1 $448 59.783818961486283 $609 66.941539665499675 $303 $611 forward 7 unknown #
coedge $-1 $304 $601 $607 $612 forward $436 $-1 #
vertex $-1 $305 $613 #
vertex $-1 $305 $614 #
straight-curve $-1 17.456938734107307 44.571941037146878 15.296326701085817 0 -1 0 I I #
coedge $-1 $450 $450 $-1 $615 reversed $308 $-1 #
edge $-1 $616 0 $616 6.2831853071796004 $309 $617 forward 7 unknown #
vertex $-1 $312 $618 #
ellipse-curve $-1 23.12730389152226 31.170322777025039 12.554760586075531 0 0.7660444514056185 0.64278759981090561 1.5 0 0 1 I I #
coedge $-1 $454 $454 $-1 $619 reversed $315 $-1 #
edge $-1 $620 0 $620 6.2831853071796004 $316 $621 forward 7 unknown #
vertex $-1 $319 $622 #
ellipse-curve $-1 31.632851627644712 31.170322777025039 12.554760586075531 0 0.7660444514056185 0.64278759981090561 1.5 0 0 1 I I #
face $-1 $-1 $335 $48 $-1 $623 reversed single #
loop $-1 $-1 $474 $320 #
plane-surface $-1 0 33.470769832749838 0 0 -1 0 0 0 -1 forward_v I I I I #
coedge $-1 $624 $472 $475 $625 forward $321 $-1 #
coedge $-1 $478 $323 $324 $466 reversed $203 $-1 #
coedge $-1 $472 $624 $323 $464 reversed $321 $-1 #
edge $-1 $479 -15.296326701085817 $626 15.296326701085817 $463 $627 forward 7 unknown #
coedge $-1 $325 $324 $624 $628 forward $129 $-1 #
edge $-1 $470 -64.423352763451035 $626 64.423352763451035 $462 $629 forward 7 unknown #
coedge $-1 $475 $474 $325 $468 reversed $459 $-1 #
edge $-1 $630 -64.423352763451035 $469 64.423352763451035 $467 $631 forward 7 unknown #
vertex $-1 $327 $632 #
vertex $-1 $481 $633 #
straight-curve $-1 64.423352763451035 0 -15.296326701085817 0 -1 0 I I #
coedge $-1 $461 $463 $328 $473 reversed $321 $-1 #
edge $-1 $476 -33.470769832749838 $479 33.470769832749838 $472 $634 forward 7 unknown #
coedge $-1 $467 $329 $334 $482 forward $459 $-1 #
coedge $-1 $329 $467 $461 $625 reversed $459 $-1 #
vertex $-1 $330 $635 #
straight-curve $-1 0 33.470769832749838 15.296326701085817 -1 0 0 I I #
coedge $-1 $331 $462 $333 $481 reversed $203 $-1 #
vertex $-1 $473 $636 #
straight-curve $-1 0 -33.470769832749838 15.296326701085817 1 0 0 I I #
edge $-1 $336 -15.296326701085817 $470 15.296326701085817 $333 $637 forward 7 unknown #
edge $-1 $337 -15.296326701085817 $469 15.296326701085817 $334 $638 forward 7 unknown #
point $-1 64.423352763451035 -33.470769832749838 15.296326701085817 #
point $-1 64.423352763451035 33.470769832749838 15.296326701085817 #
face $-1 $-1 $502 $49 $-1 $639 reversed single #
loop $-1 $-1 $640 $339 #
plane-surface $-1 -64.423352763451035 0 0 1 0 0 0 0 -1 forward_v I I I I #
coedge $-1 $489 $505 $343 $492 forward $340 $-1 #
coedge $-1 $350 $488 $342 $490 forward $340 $-1 #
edge $-1 $496 3.8795693974672769 $353 8.5710280015681182 $489 $641 forward 7 unknown #
coedge $-1 $344 $343 $640 $642 reversed $133 $-1 #
edge $-1 $643 -34.86412581365299 $496 -24.25432808594309 $488 $644 forward 7 unknown #
coedge $-1 $501 $500 $344 $494 forward $502 $-1 #
edge $-1 $495 24.25432808594309 $645 34.86412581365299 $493 $646 forward 7 unknown #
vertex $-1 $494 $647 #
vertex $-1 $492 $648 #
straight-curve $-1 -53.813555035741132 0 10.104868096984974 0 -1 0 I I #
coedge $-1 $649 $650 $347 $499 forward $486 $-1 #
edge $-1 $506 -33.470769832749838 $503 33.470769832749838 $498 $651 forward 7 unknown #
coedge $-1 $493 $348 $352 $508 forward $502 $-1 #
coedge $-1 $348 $493 $649 $652 reversed $502 $-1 #
loop $-1 $-1 $493 $485 #
vertex $-1 $652 $653 #
straight-curve $-1 -29.559226949798042 33.470769832749838 14.796326701085816 1 0 0 I I #
coedge $-1 $488 $350 $650 $654 forward $340 $-1 #
vertex $-1 $654 $655 #
straight-curve $-1 -29.559226949798042 -33.470769832749838 14.796326701085816 -1 0 0 I I #
edge $-1 $354 -8.5710280015681182 $495 -3.8795693974672769 $500 $656 forward 7 unknown #
point $-1 -53.813555035741132 -33.470769832749838 14.796326701085816 #
point $-1 -53.813555035741132 33.470769832749838 14.796326701085816 #
loop $-1 $-1 $657 $356 #
plane-surface $-1 0 0 15.296326701085817 0 0 1 1 0 0 forward_v I I I I #
coedge $-1 $359 $362 $658 $659 reversed $219 $-1 #
coedge $-1 $522 $365 $359 $515 reversed $357 $-1 #
edge $-1 $660 31.536552109573911 $368 37.698164477402749 $359 $661 forward 7 unknown #
coedge $-1 $520 $658 $361 $517 forward $511 $-1 #
edge $-1 $518 31.885537138250712 $525 37.241744916499222 $516 $662 forward 7 unknown #
vertex $-1 $363 $663 #
straight-curve $-1 -29.896985777247966 -33.470769832749838 46.832878810659729 0 0 1 I I #
coedge $-1 $657 $516 $364 $521 forward $511 $-1 #
edge $-1 $525 8.9693505740006891 $523 32.885919832493869 $520 $664 forward 7 unknown #
coedge $-1 $365 $514 $657 $665 reversed $357 $-1 #
vertex $-1 $665 $666 #
straight-curve $-1 -53.813555035741146 -33.470769832749838 9.13471433325698 0 0.65605901945558964 0.75470958851134928 I I #
vertex $-1 $521 $667 #
straight-curve $-1 -29.896985777247966 -33.470769832749838 9.13471433325698 0 -0.65605901945558964 -0.75470958851134928 I I #
point $-1 -53.813555035741146 -33.470769832749838 9.13471433325698 #
point $-1 -29.896985777247966 -33.470769832749838 9.13471433325698 #
edge $-1 $668 1 $668 0 $371 $-1 forward 7 unknown #
vertex $-1 $372 $669 #
ellipse-curve $-1 -49.030241184042502 -28.781262510283696 10.467034232783824 0 -0.75470958851134928 0.65605901945558964 1.5 0 0 1 I I #
point $-1 -47.530241184042502 -30.792665943625579 12.215520517171393 #
edge $-1 $670 1 $670 0 $375 $-1 forward 7 unknown #
vertex $-1 $376 $671 #
ellipse-curve $-1 -41.855270406494554 -28.781262510283696 10.467034232783824 0 -0.75470958851134928 0.65605901945558964 1.5 0 0 1 I I #
point $-1 -40.355270406494554 -30.792665943625579 12.215520517171393 #
edge $-1 $672 1 $672 0 $379 $-1 forward 7 unknown #
vertex $-1 $380 $673 #
ellipse-curve $-1 -34.680299628946599 -28.781262510283696 10.467034232783824 0 -0.75470958851134928 0.65605901945558964 1.5 0 0 1 I I #
point $-1 -33.180299628946599 -30.792665943625579 12.215520517171393 #
plane-surface $-1 0 -33.470769832749838 0 0 1 0 0 0 1 forward_v I I I I #
coedge $-1 $552 $551 $544 $674 forward $384 $-1 #
coedge $-1 $544 $386 $388 $548 reversed $248 $-1 #
coedge $-1 $386 $543 $542 $674 reversed $248 $-1 #
coedge $-1 $394 $389 $386 $546 forward $395 $-1 #
edge $-1 $549 -37.698164477402749 $675 -31.536552109573911 $545 $676 forward 7 unknown #
coedge $-1 $388 $387 $552 $677 reversed $156 $-1 #
edge $-1 $678 -8.1642163576886659 $549 0 $543 $679 forward 7 unknown #
vertex $-1 $390 $680 #
straight-curve $-1 8.6315917465507681 -33.470769832749838 9.1347143332569765 1 0 0 I I #
coedge $-1 $542 $391 $394 $556 forward $384 $-1 #
coedge $-1 $391 $542 $547 $677 forward $384 $-1 #
vertex $-1 $392 $681 #
straight-curve $-1 5.3048988638549481 -65.356306971000549 15.296326701085817 0 -1 0 I I #
straight-curve $-1 5.3048988638549481 -33.470769832749838 9.13471433325698 0 0.65605901945558964 0.75470958851134928 I I #
edge $-1 $396 5.3048988638549481 $675 29.221468122348124 $394 $682 forward 7 unknown #
point $-1 5.3048988638549481 -33.470769832749838 15.296326701085817 #
point $-1 5.3048988638549481 -33.470769832749838 9.13471433325698 #
edge $-1 $683 1 $683 0 $399 $-1 forward 7 unknown #
vertex $-1 $400 $684 #
ellipse-curve $-1 10.088212715553581 -28.781262510283696 10.467034232783824 0 -0.75470958851134928 0.65605901945558964 1.5 0 0 1 I I #
point $-1 11.588212715553581 -30.792665943625579 12.215520517171393 #
edge $-1 $685 1 $685 0 $403 $-1 forward 7 unknown #
vertex $-1 $404 $686 #
ellipse-curve $-1 17.263183493101536 -28.781262510283696 10.467034232783824 0 -0.75470958851134928 0.65605901945558964 1.5 0 0 1 I I #
point $-1 18.763183493101536 -30.792665943625579 12.215520517171393 #
edge $-1 $687 1 $687 0 $407 $-1 forward 7 unknown #
vertex $-1 $408 $688 #
ellipse-curve $-1 24.438154270649491 -28.781262510283696 10.467034232783824 0 -0.75470958851134928 0.65605901945558964 1.5 0 0 1 I I #
point $-1 25.938154270649491 -30.792665943625579 12.215520517171393 #
plane-surface $-1 0 0 15.296326701085817 0 0 1 1 0 0 forward_v I I I I #
coedge $-1 $582 $581 $574 $689 forward $412 $-1 #
coedge $-1 $574 $414 $416 $578 reversed $277 $-1 #
coedge $-1 $414 $573 $572 $689 reversed $277 $-1 #
coedge $-1 $422 $417 $414 $576 forward $423 $-1 #
edge $-1 $579 -15.702065315846625 $690 -11.101171204397041 $575 $691 forward 7 unknown #
coedge $-1 $416 $415 $582 $692 reversed $175 $-1 #
edge $-1 $693 -66.941539665499675 $579 -59.783818961486283 $573 $694 forward 7 unknown #
vertex $-1 $418 $695 #
straight-curve $-1 -15.869188070006295 28.86987572130025 15.296326701085821 1 0 0 I I #
coedge $-1 $572 $419 $422 $586 reversed $412 $-1 #
coedge $-1 $419 $572 $577 $692 forward $412 $-1 #
vertex $-1 $420 $696 #
straight-curve $-1 -41.66151516548878 33.470769832749838 71.957227044775152 0 0 1 I I #
straight-curve $-1 -41.66151516548878 -9.5584217764832147 61.093389500370378 0 0.64278759981090561 -0.7660444514056185 I I #
edge $-1 $690 21.815237114536398 $424 41.66151516548878 $581 $697 forward 7 unknown #
point $-1 -41.66151516548878 33.470769832749838 15.296326701085817 #
point $-1 -41.66151516548878 28.869875721300254 15.296326701085817 #
edge $-1 $698 1 $698 0 $427 $-1 forward 7 unknown #
vertex $-1 $428 $699 #
ellipse-curve $-1 -35.991150008073816 29.951821851414305 11.532316935575192 0 0.7660444514056185 0.64278759981090561 1.5 0 0 1 I I #
point $-1 -34.491150008073816 31.170322777025028 12.554760586075524 #
edge $-1 $700 1 $700 0 $431 $-1 forward 7 unknown #
vertex $-1 $432 $701 #
ellipse-curve $-1 -27.485602271951365 29.951821851414305 11.532316935575192 0 0.7660444514056185 0.64278759981090561 1.5 0 0 1 I I #
point $-1 -25.985602271951365 31.170322777025028 12.554760586075524 #
loop $-1 $-1 $443 $435 #
plane-surface $-1 0 33.470769832749838 0 0 -1 0 0 0 -1 forward_v I I I I #
coedge $-1 $600 $438 $440 $604 reversed $299 $-1 #
coedge $-1 $438 $599 $702 $703 reversed $299 $-1 #
coedge $-1 $446 $441 $438 $602 forward $436 $-1 #
edge $-1 $605 -15.702065315846625 $704 -11.101171204397041 $601 $705 forward 7 unknown #
coedge $-1 $440 $439 $608 $706 reversed $189 $-1 #
edge $-1 $707 -66.941539665499675 $605 -59.783818961486283 $599 $708 forward 7 unknown #
vertex $-1 $442 $709 #
straight-curve $-1 13.69003887979175 28.86987572130025 15.296326701085821 1 0 0 I I #
coedge $-1 $702 $443 $446 $612 reversed $597 $-1 #
coedge $-1 $443 $702 $603 $706 forward $597 $-1 #
vertex $-1 $444 $710 #
straight-curve $-1 17.456938734107307 33.470769832749838 71.957227044775152 0 0 1 I I #
straight-curve $-1 17.456938734107307 -9.5584217764832147 61.093389500370378 0 0.64278759981090561 -0.7660444514056185 I I #
edge $-1 $704 -37.303216785059689 $447 -17.456938734107307 $607 $711 forward 7 unknown #
point $-1 17.456938734107307 33.470769832749838 15.296326701085817 #
point $-1 17.456938734107307 28.869875721300254 15.296326701085817 #
edge $-1 $712 1 $712 0 $450 $-1 forward 7 unknown #
vertex $-1 $451 $713 #
ellipse-curve $-1 23.12730389152226 29.951821851414305 11.532316935575192 0 0.7660444514056185 0.64278759981090561 1.5 0 0 1 I I #
point $-1 24.62730389152226 31.170322777025028 12.554760586075524 #
edge $-1 $714 1 $714 0 $454 $-1 forward 7 unknown #
vertex $-1 $455 $715 #
ellipse-curve $-1 31.632851627644712 29.951821851414305 11.532316935575192 0 0.7660444514056185 0.64278759981090561 1.5 0 0 1 I I #
point $-1 33.132851627644712 31.170322777025028 12.554760586075524 #
plane-surface $-1 64.423352763451035 0 0 -1 0 0 0 0 1 forward_v I I I I #
coedge $-1 $463 $461 $465 $628 reversed $321 $-1 #
edge $-1 $476 -15.296326701085817 $630 15.296326701085817 $475 $716 forward 7 unknown #
vertex $-1 $628 $717 #
straight-curve $-1 -64.423352763451035 -33.470769832749838 0 0 0 -1 I I #
edge $-1 $626 -33.470769832749838 $630 33.470769832749838 $624 $718 forward 7 unknown #
straight-curve $-1 0 -33.470769832749838 -15.296326701085817 -1 0 0 I I #
vertex $-1 $468 $719 #
straight-curve $-1 0 33.470769832749838 -15.296326701085817 1 0 0 I I #
point $-1 64.423352763451035 33.470769832749838 -15.296326701085817 #
point $-1 64.423352763451035 -33.470769832749838 -15.296326701085817 #
straight-curve $-1 -64.423352763451035 0 15.296326701085817 0 -1 0 I I #
point $-1 -64.423352763451035 33.470769832749838 15.296326701085817 #
point $-1 -64.423352763451035 -33.470769832749838 15.296326701085817 #
straight-curve $-1 64.423352763451035 -33.470769832749838 0 0 0 -1 I I #
straight-curve $-1 64.423352763451035 33.470769832749838 0 0 0 -1 I I #
plane-surface $-1 0 33.470769832749838 0 0 -1 0 0 0 -1 forward_v I I I I #
coedge $-1 $650 $649 $491 $642 forward $486 $-1 #
straight-curve $-1 -53.813555035741132 -33.470769832749838 6.2252986995176975 0 0 1 I I #
edge $-1 $645 -33.470769832749838 $643 33.470769832749838 $640 $720 forward 7 unknown #
vertex $-1 $492 $721 #
straight-curve $-1 -29.559226949798042 -33.470769832749838 10.104868096984974 1 0 0 I I #
vertex $-1 $494 $722 #
straight-curve $-1 -29.559226949798042 33.470769832749838 10.104868096984974 -1 0 0 I I #
point $-1 -53.813555035741132 33.470769832749838 10.104868096984974 #
point $-1 -53.813555035741132 -33.470769832749838 10.104868096984974 #
coedge $-1 $640 $498 $501 $652 forward $486 $-1 #
coedge $-1 $498 $640 $505 $654 reversed $486 $-1 #
straight-curve $-1 -64.423352763451035 0 14.796326701085816 0 1 0 I I #
edge $-1 $503 -14.796326701085816 $645 -10.104868096984974 $501 $723 forward 7 unknown #
point $-1 -64.423352763451035 33.470769832749838 14.796326701085816 #
edge $-1 $506 -14.796326701085816 $643 -10.104868096984974 $650 $724 forward 7 unknown #
point $-1 -64.423352763451035 -33.470769832749838 14.796326701085816 #
straight-curve $-1 -53.813555035741132 33.470769832749838 6.2252986995176975 0 0 -1 I I #
coedge $-1 $658 $520 $522 $665 forward $511 $-1 #
coedge $-1 $516 $657 $513 $659 forward $511 $-1 #
edge $-1 $660 -53.813555035741146 $518 -29.896985777247966 $513 $725 forward 7 unknown #
vertex $-1 $659 $726 #
straight-curve $-1 -53.813555035741146 -33.470769832749838 46.832878810659729 0 0 -1 I I #
straight-curve $-1 -29.896985777247966 -65.356306971000549 15.296326701085817 0 1 0 I I #
point $-1 -29.896985777247966 -33.470769832749838 15.296326701085817 #
straight-curve $-1 -20.927635203247277 -28.114562054501327 15.296326701085817 -1 0 0 I I #
edge $-1 $523 -37.241744916499222 $660 -31.885537138250712 $657 $727 forward 7 unknown #
point $-1 -53.813555035741146 -28.114562054501327 15.296326701085817 #
point $-1 -29.896985777247966 -28.114562054501327 15.296326701085817 #
vertex $-1 $529 $728 #
point $-1 -47.530241184042502 -28.781262510283696 10.467034232783824 #
vertex $-1 $533 $729 #
point $-1 -40.355270406494554 -28.781262510283696 10.467034232783824 #
vertex $-1 $537 $730 #
point $-1 -33.180299628946599 -28.781262510283696 10.467034232783824 #
edge $-1 $675 31.885537138250712 $678 37.241744916499222 $542 $731 forward 7 unknown #
vertex $-1 $674 $732 #
straight-curve $-1 29.221468122348124 -33.470769832749838 46.832878810659729 0 0 1 I I #
edge $-1 $678 -20.589876375797356 $553 3.32669288269582 $552 $733 forward 7 unknown #
vertex $-1 $677 $734 #
straight-curve $-1 29.221468122348124 -33.470769832749838 9.13471433325698 0 -0.65605901945558964 -0.75470958851134928 I I #
point $-1 29.221468122348124 -33.470769832749838 9.13471433325698 #
point $-1 5.3048988638549481 -28.114562054501327 15.296326701085817 #
straight-curve $-1 0 -33.470769832749838 15.296326701085817 1 0 0 I I #
vertex $-1 $559 $735 #
point $-1 11.588212715553581 -28.781262510283696 10.467034232783824 #
vertex $-1 $563 $736 #
point $-1 18.763183493101536 -28.781262510283696 10.467034232783824 #
vertex $-1 $567 $737 #
point $-1 25.938154270649491 -28.781262510283696 10.467034232783824 #
edge $-1 $690 56.660900343689335 $693 62.1440325737099 $572 $738 forward 7 unknown #
vertex $-1 $586 $739 #
straight-curve $-1 -21.815237114536398 44.571941037146878 15.296326701085817 0 1 0 I I #
edge $-1 $693 5.9460490445301026 $583 25.792327095482484 $582 $740 forward 7 unknown #
vertex $-1 $692 $741 #
straight-curve $-1 -21.815237114536398 -9.5584217764832147 61.093389500370378 0 -0.64278759981090561 0.7660444514056185 I I #
point $-1 -21.815237114536398 28.869875721300254 15.296326701085817 #
point $-1 -41.66151516548878 33.470769832749838 9.8131944710652519 #
straight-curve $-1 0 33.470769832749838 15.296326701085817 -1 0 0 I I #
vertex $-1 $589 $742 #
point $-1 -34.491150008073816 29.951821851414305 11.532316935575192 #
vertex $-1 $593 $743 #
point $-1 -25.985602271951365 29.951821851414305 11.532316935575192 #
coedge $-1 $608 $607 $600 $703 forward $597 $-1 #
edge $-1 $704 56.660900343689335 $707 62.1440325737099 $702 $744 forward 7 unknown #
vertex $-1 $612 $745 #
straight-curve $-1 37.303216785059689 44.571941037146878 15.296326701085817 0 1 0 I I #
edge $-1 $707 -23.613177905267939 $609 -3.7668998543155574 $608 $746 forward 7 unknown #
vertex $-1 $706 $747 #
straight-curve $-1 37.303216785059689 -9.5584217764832147 61.093389500370378 0 -0.64278759981090561 0.7660444514056185 I I #
point $-1 37.303216785059689 28.869875721300254 15.296326701085817 #
point $-1 17.456938734107307 33.470769832749838 9.8131944710652519 #
straight-curve $-1 0 33.470769832749838 15.296326701085817 -1 0 0 I I #
vertex $-1 $615 $748 #
point $-1 24.62730389152226 29.951821851414305 11.532316935575192 #
vertex $-1 $619 $749 #
point $-1 33.132851627644712 29.951821851414305 11.532316935575192 #
straight-curve $-1 -64.423352763451035 33.470769832749838 0 0 0 -1 I I #
point $-1 -64.423352763451035 -33.470769832749838 -15.296326701085817 #
straight-curve $-1 -64.423352763451035 0 -15.296326701085817 0 1 0 I I #
point $-1 -64.423352763451035 33.470769832749838 -15.296326701085817 #
straight-curve $-1 -64.423352763451035 0 10.104868096984974 0 -1 0 I I #
point $-1 -64.423352763451035 -33.470769832749838 10.104868096984974 #
point $-1 -64.423352763451035 33.470769832749838 10.104868096984974 #
straight-curve $-1 -64.423352763451035 33.470769832749838 0 0 0 -1 I I #
straight-curve $-1 -64.423352763451035 -33.470769832749838 0 0 0 -1 I I #
straight-curve $-1 0 -33.470769832749838 15.296326701085817 1 0 0 I I #
point $-1 -53.813555035741146 -33.470769832749838 15.296326701085817 #
straight-curve $-1 -53.813555035741146 -65.356306971000549 15.296326701085817 0 -1 0 I I #
point $-1 -49.030241184042502 -27.649198127516669 9.4829457036004356 #
point $-1 -41.855270406494554 -27.649198127516669 9.4829457036004356 #
point $-1 -34.680299628946599 -27.649198127516669 9.4829457036004356 #
straight-curve $-1 29.221468122348124 -65.356306971000549 15.296326701085817 0 1 0 I I #
point $-1 29.221468122348124 -33.470769832749838 15.296326701085817 #
straight-curve $-1 8.6315917465507681 -28.114562054501327 15.296326701085817 -1 0 0 I I #
point $-1 29.221468122348124 -28.114562054501327 15.296326701085817 #
point $-1 10.088212715553581 -27.649198127516669 9.4829457036004356 #
point $-1 17.263183493101536 -27.649198127516669 9.4829457036004356 #
point $-1 24.438154270649491 -27.649198127516669 9.4829457036004356 #
straight-curve $-1 -21.815237114536398 33.470769832749838 71.957227044775152 0 0 -1 I I #
point $-1 -21.815237114536398 33.470769832749838 15.296326701085817 #
straight-curve $-1 -15.869188070006295 33.470769832749838 9.8131944710652483 -1 0 0 I I #
point $-1 -21.815237114536398 33.470769832749838 9.8131944710652519 #
point $-1 -35.991150008073816 28.802755174305876 10.568135535858833 #
point $-1 -27.485602271951365 28.802755174305876 10.568135535858833 #
straight-curve $-1 37.303216785059689 33.470769832749838 71.957227044775152 0 0 -1 I I #
point $-1 37.303216785059689 33.470769832749838 15.296326701085817 #
straight-curve $-1 13.69003887979175 33.470769832749838 9.8131944710652483 -1 0 0 I I #
point $-1 37.303216785059689 33.470769832749838 9.8131944710652519 #
point $-1 23.12730389152226 28.802755174305876 10.568135535858833 #
point $-1 31.632851627644712 28.802755174305876 10.568135535858833 #
End-of-ACIS-data 