500 0 5 0           
7 Unknown 11 ACIS 5.0 NT 24 Thu Mar 25 19:38:42 1999 
-1 9.9999999999999995e-007 1e-010 
body $-1 $5 $-1 $6 #
body $-1 $7 $-1 $8 #
body $-1 $9 $-1 $10 #
body $-1 $11 $-1 $12 #
body $-1 $13 $-1 $14 #
lump $-1 $-1 $15 $0 #
transform $-1 1 0 0 0 1 0 0 0 1 48.619647816400644 26.070648398197047 6.6703846850784192 1 rotate no_reflect no_shear #
lump $-1 $-1 $16 $1 #
transform $-1 1 0 0 0 1 0 0 0 1 48.619647816400644 26.070648398197047 6.6703846850784192 1 rotate no_reflect no_shear #
lump $-1 $-1 $17 $2 #
transform $-1 1 0 0 0 1 0 0 0 1 48.619647816400644 26.070648398197047 6.6703846850784192 1 rotate no_reflect no_shear #
lump $-1 $-1 $18 $3 #
transform $-1 1 0 0 0 1 0 0 0 1 48.619647816400644 26.070648398197047 6.6703846850784192 1 rotate no_reflect no_shear #
lump $-1 $-1 $19 $4 #
transform $-1 1 0 0 0 1 0 0 0 1 48.619647816400644 26.070648398197047 6.6703846850784192 1 rotate no_reflect no_shear #
shell $-1 $-1 $-1 $20 $-1 $5 #
shell $-1 $-1 $-1 $21 $-1 $7 #
shell $-1 $-1 $-1 $22 $-1 $9 #
shell $-1 $-1 $-1 $23 $-1 $11 #
shell $-1 $-1 $-1 $24 $-1 $13 #
face $-1 $25 $26 $15 $-1 $27 forward single #
face $-1 $28 $29 $16 $-1 $30 forward single #
face $-1 $31 $32 $17 $-1 $33 reversed single #
face $-1 $34 $35 $18 $-1 $36 forward single #
face $-1 $37 $38 $19 $-1 $39 forward single #
face $-1 $40 $41 $15 $-1 $42 reversed single #
loop $-1 $-1 $43 $20 #
plane-surface $-1 0 0 6.6703846850784192 0 0 1 1 0 0 forward_v I I I I #
face $-1 $44 $45 $16 $-1 $46 forward single #
loop $-1 $-1 $47 $21 #
plane-surface $-1 0 -26.070648398197047 0 0 1 0 0 0 1 forward_v I I I I #
face $-1 $48 $49 $17 $-1 $50 reversed single #
loop $-1 $-1 $51 $22 #
plane-surface $-1 25.772998282166597 85.839451826693107 96.275260939783223 1 0 0 0 -0.87461971476443456 -0.48480960649040278 forward_v I I I I #
face $-1 $52 $53 $18 $-1 $54 forward single #
loop $-1 $55 $56 $23 #
cone-surface $-1 32.300612434804904 24.762664690235081 4.8572426178595007 0 -0.87461971476443456 -0.48480960649040278 0.5 0 0 1 I I 0 1 0.5 forward I I I I #
face $-1 $57 $58 $19 $-1 $59 forward single #
loop $-1 $60 $61 $24 #
cone-surface $-1 42.092033663762351 24.762664690235081 4.8572426178595007 0 -0.87461971476443456 -0.48480960649040278 0.5 0 0 1 I I 0 1 0.5 forward I I I I #
face $-1 $62 $63 $15 $-1 $64 reversed single #
loop $-1 $-1 $65 $25 #
plane-surface $-1 0 0 -6.6703846850784192 0 0 1 1 0 0 forward_v I I I I #
coedge $-1 $66 $67 $68 $69 forward $26 $-1 #
face $-1 $70 $71 $16 $-1 $72 reversed single #
loop $-1 $-1 $73 $28 #
plane-surface $-1 0 0 6.6703846850784192 0 0 1 1 0 0 forward_v I I I I #
coedge $-1 $74 $75 $76 $77 forward $29 $-1 #
face $-1 $78 $79 $17 $-1 $80 reversed single #
loop $-1 $-1 $81 $31 #
plane-surface $-1 37.19632304928362 0.7920468164379173 49.132716288640893 0 0.87461971476443456 0.48480960649040278 1 0 0 forward_v I I I I #
coedge $-1 $82 $83 $84 $85 reversed $32 $-1 #
face $-1 $-1 $86 $18 $-1 $87 forward single #
loop $-1 $88 $89 $34 #
cone-surface $-1 32.300612434804904 24.106699904161754 4.4936354129916989 0 -0.87461971476443456 -0.48480960649040278 0.25 0 0 1 I I -0.70710678118654746 0.70710678118654746 0.25 forward I I I I #
loop $-1 $-1 $90 $23 #
coedge $-1 $56 $56 $91 $92 reversed $35 $-1 #
face $-1 $-1 $93 $19 $-1 $94 forward single #
loop $-1 $95 $96 $37 #
cone-surface $-1 42.092033663762351 24.106699904161754 4.4936354129916989 0 -0.87461971476443456 -0.48480960649040278 0.25 0 0 1 I I -0.70710678118654746 0.70710678118654746 0.25 forward I I I I #
loop $-1 $-1 $97 $24 #
coedge $-1 $61 $61 $98 $99 reversed $38 $-1 #
face $-1 $100 $101 $15 $-1 $102 reversed single #
loop $-1 $-1 $103 $40 #
plane-surface $-1 0 -26.070648398197047 0 0 1 0 0 0 1 forward_v I I I I #
coedge $-1 $104 $105 $106 $107 forward $41 $-1 #
coedge $-1 $108 $43 $109 $110 forward $26 $-1 #
coedge $-1 $43 $108 $111 $112 forward $26 $-1 #
coedge $-1 $113 $114 $43 $69 reversed $115 $-1 #
edge $-1 $116 -26.070648398197047 $117 26.070648398197047 $68 $118 forward 7 unknown #
face $-1 $119 $120 $16 $-1 $121 reversed single #
loop $-1 $-1 $122 $44 #
plane-surface $-1 -48.619647816400644 0 0 1 0 0 0 0 -1 forward_v I I I I #
coedge $-1 $123 $124 $125 $126 forward $45 $-1 #
coedge $-1 $125 $47 $122 $127 reversed $29 $-1 #
coedge $-1 $47 $125 $128 $129 reversed $29 $-1 #
coedge $-1 $130 $131 $47 $77 reversed $120 $-1 #
edge $-1 $132 -48.619647816400644 $133 48.619647816400644 $76 $134 forward 7 unknown #
face $-1 $135 $136 $17 $-1 $137 forward single #
loop $-1 $-1 $138 $48 #
plane-surface $-1 48.619647816400644 0 0 -1 0 0 0 0 1 forward_v I I I I #
coedge $-1 $139 $140 $141 $142 reversed $49 $-1 #
coedge $-1 $83 $51 $143 $144 reversed $32 $-1 #
coedge $-1 $51 $82 $139 $145 reversed $32 $-1 #
coedge $-1 $141 $146 $51 $85 forward $136 $-1 #
edge $-1 $147 16.849077515149506 $148 18.590425216309022 $84 $149 forward 7 unknown #
loop $-1 $-1 $91 $52 #
plane-surface $-1 37.19632304928362 0.7920468164379173 49.132716288640893 0 0.87461971476443456 0.48480960649040278 1 0 0 forward_v I I I I #
loop $-1 $-1 $150 $34 #
coedge $-1 $89 $89 $90 $151 reversed $53 $-1 #
coedge $-1 $90 $90 $89 $151 forward $55 $-1 #
coedge $-1 $91 $91 $56 $92 forward $86 $-1 #
edge $-1 $152 1.350024067169941e-015 $152 6.2831853071796022 $91 $153 forward 7 unknown #
loop $-1 $-1 $98 $57 #
plane-surface $-1 37.19632304928362 0.7920468164379173 49.132716288640893 0 0.87461971476443456 0.48480960649040278 1 0 0 forward_v I I I I #
loop $-1 $-1 $154 $37 #
coedge $-1 $96 $96 $97 $155 reversed $58 $-1 #
coedge $-1 $97 $97 $96 $155 forward $60 $-1 #
coedge $-1 $98 $98 $61 $99 forward $93 $-1 #
edge $-1 $156 1.350024067169941e-015 $156 6.2831853071796022 $98 $157 forward 7 unknown #
face $-1 $158 $159 $15 $-1 $160 reversed single #
loop $-1 $-1 $161 $62 #
plane-surface $-1 -48.619647816400644 0 0 1 0 0 0 0 -1 forward_v I I I I #
coedge $-1 $162 $111 $163 $164 forward $63 $-1 #
coedge $-1 $165 $65 $162 $166 forward $41 $-1 #
coedge $-1 $65 $165 $167 $168 forward $41 $-1 #
coedge $-1 $114 $113 $65 $107 reversed $115 $-1 #
edge $-1 $169 -26.070648398197047 $170 26.070648398197047 $106 $171 forward 7 unknown #
coedge $-1 $67 $66 $172 $173 forward $26 $-1 #
coedge $-1 $174 $175 $66 $110 reversed $159 $-1 #
edge $-1 $117 -48.619647816400644 $176 48.619647816400644 $109 $177 forward 7 unknown #
coedge $-1 $103 $178 $67 $112 reversed $63 $-1 #
edge $-1 $179 -48.619647816400644 $116 48.619647816400644 $111 $180 forward 7 unknown #
coedge $-1 $106 $68 $178 $181 forward $115 $-1 #
coedge $-1 $68 $106 $174 $182 reversed $115 $-1 #
loop $-1 $-1 $113 $158 #
vertex $-1 $69 $183 #
vertex $-1 $69 $184 #
straight-curve $-1 48.619647816400644 0 6.6703846850784192 0 1 0 I I #
face $-1 $185 $186 $16 $-1 $187 reversed single #
loop $-1 $-1 $130 $70 #
plane-surface $-1 0 -29.186371710035154 3.1012698277644777 0 0 1 1 0 0 forward_v I I I I #
coedge $-1 $188 $189 $74 $127 forward $71 $-1 #
coedge $-1 $190 $73 $189 $191 forward $45 $-1 #
coedge $-1 $73 $190 $192 $193 forward $45 $-1 #
coedge $-1 $75 $74 $73 $126 reversed $29 $-1 #
edge $-1 $194 -48.619647816400644 $195 48.619647816400644 $73 $196 forward 7 unknown #
edge $-1 $195 -6.6703846850784192 $133 -3.1012698277644777 $122 $197 forward 7 unknown #
coedge $-1 $192 $198 $75 $129 forward $199 $-1 #
edge $-1 $132 3.1012698277644777 $194 6.6703846850784192 $128 $200 forward 7 unknown #
coedge $-1 $201 $76 $198 $202 forward $120 $-1 #
coedge $-1 $76 $201 $188 $203 forward $120 $-1 #
vertex $-1 $129 $204 #
vertex $-1 $127 $205 #
straight-curve $-1 0 -26.070648398197047 3.1012698277644777 -1 0 0 I I #
face $-1 $-1 $206 $17 $-1 $207 reversed single #
loop $-1 $-1 $141 $78 #
plane-surface $-1 0 0 6.6703846850784192 0 0 1 1 0 0 forward_v I I I I #
coedge $-1 $208 $209 $140 $210 forward $79 $-1 #
coedge $-1 $211 $81 $83 $145 forward $49 $-1 #
coedge $-1 $81 $211 $138 $210 reversed $49 $-1 #
coedge $-1 $212 $84 $81 $142 forward $136 $-1 #
edge $-1 $148 7.1748367575247869 $213 30.021486291758833 $141 $214 forward 7 unknown #
coedge $-1 $215 $216 $82 $144 forward $206 $-1 #
edge $-1 $217 -44.608720312760667 $147 -41.467245784813194 $143 $218 forward 7 unknown #
edge $-1 $148 48.549479147058854 $217 52.141296796394123 $83 $219 forward 7 unknown #
coedge $-1 $84 $212 $215 $220 forward $136 $-1 #
vertex $-1 $144 $221 #
vertex $-1 $85 $222 #
straight-curve $-1 25.772998282166597 42.919725913346554 6.6703846850784174 0 -1 0 I I #
coedge $-1 $150 $150 $-1 $223 reversed $88 $-1 #
edge $-1 $224 0 $224 6.2831853071796004 $89 $225 forward 7 unknown #
vertex $-1 $92 $226 #
ellipse-curve $-1 32.300612434804904 25.199974547617284 5.0996474211046952 0 0.87461971476443456 0.48480960649040278 0.5 0 0 1 I I #
coedge $-1 $154 $154 $-1 $227 reversed $95 $-1 #
edge $-1 $228 0 $228 6.2831853071796004 $96 $229 forward 7 unknown #
vertex $-1 $99 $230 #
ellipse-curve $-1 42.092033663762351 25.199974547617284 5.0996474211046952 0 0.87461971476443456 0.48480960649040278 0.5 0 0 1 I I #
face $-1 $-1 $115 $15 $-1 $231 reversed single #
loop $-1 $-1 $174 $100 #
plane-surface $-1 0 26.070648398197047 0 0 -1 0 0 0 -1 forward_v I I I I #
coedge $-1 $232 $172 $175 $233 forward $101 $-1 #
coedge $-1 $178 $103 $104 $166 reversed $63 $-1 #
coedge $-1 $172 $232 $103 $164 reversed $101 $-1 #
edge $-1 $179 -6.6703846850784192 $234 6.6703846850784192 $163 $235 forward 7 unknown #
coedge $-1 $105 $104 $232 $236 forward $41 $-1 #
edge $-1 $170 -48.619647816400644 $234 48.619647816400644 $162 $237 forward 7 unknown #
coedge $-1 $175 $174 $105 $168 reversed $159 $-1 #
edge $-1 $238 -48.619647816400644 $169 48.619647816400644 $167 $239 forward 7 unknown #
vertex $-1 $107 $240 #
vertex $-1 $181 $241 #
straight-curve $-1 48.619647816400644 0 -6.6703846850784192 0 -1 0 I I #
coedge $-1 $161 $163 $108 $173 reversed $101 $-1 #
edge $-1 $176 -26.070648398197047 $179 26.070648398197047 $172 $242 forward 7 unknown #
coedge $-1 $167 $109 $114 $182 forward $159 $-1 #
coedge $-1 $109 $167 $161 $233 reversed $159 $-1 #
vertex $-1 $110 $243 #
straight-curve $-1 0 26.070648398197047 6.6703846850784192 -1 0 0 I I #
coedge $-1 $111 $162 $113 $181 reversed $63 $-1 #
vertex $-1 $173 $244 #
straight-curve $-1 0 -26.070648398197047 6.6703846850784192 1 0 0 I I #
edge $-1 $116 -6.6703846850784192 $170 6.6703846850784192 $113 $245 forward 7 unknown #
edge $-1 $117 -6.6703846850784192 $169 6.6703846850784192 $114 $246 forward 7 unknown #
point $-1 48.619647816400644 -26.070648398197047 6.6703846850784192 #
point $-1 48.619647816400644 26.070648398197047 6.6703846850784192 #
face $-1 $-1 $199 $16 $-1 $247 reversed single #
loop $-1 $-1 $248 $119 #
plane-surface $-1 0 -32.302095021873264 4.8858272564214484 0 1 0 0 0 1 forward_v I I I I #
coedge $-1 $249 $122 $131 $203 reversed $71 $-1 #
coedge $-1 $122 $249 $123 $191 reversed $71 $-1 #
coedge $-1 $124 $123 $250 $251 forward $45 $-1 #
edge $-1 $195 26.070648398197047 $252 32.302095021873264 $189 $253 forward 7 unknown #
coedge $-1 $254 $128 $124 $193 reversed $199 $-1 #
edge $-1 $255 -32.302095021873264 $194 -26.070648398197047 $192 $256 forward 7 unknown #
vertex $-1 $129 $257 #
vertex $-1 $191 $258 #
straight-curve $-1 0 -26.070648398197047 6.6703846850784192 -1 0 0 I I #
straight-curve $-1 -48.619647816400644 -26.070648398197047 0 0 0 -1 I I #
coedge $-1 $128 $254 $130 $202 reversed $199 $-1 #
loop $-1 $-1 $128 $185 #
straight-curve $-1 48.619647816400644 -26.070648398197047 0 0 0 1 I I #
coedge $-1 $131 $130 $259 $260 forward $120 $-1 #
edge $-1 $132 -3.1157233118381065 $261 3.11572331183811 $198 $262 forward 7 unknown #
edge $-1 $263 -3.11572331183811 $133 3.1157233118381065 $188 $264 forward 7 unknown #
point $-1 48.619647816400644 -26.070648398197047 3.1012698277644777 #
point $-1 -48.619647816400644 -26.070648398197047 3.1012698277644777 #
loop $-1 $-1 $143 $135 #
plane-surface $-1 0 26.070648398197047 0 0 -1 0 0 0 -1 forward_v I I I I #
coedge $-1 $209 $138 $265 $266 reversed $79 $-1 #
coedge $-1 $138 $208 $212 $267 reversed $79 $-1 #
edge $-1 $213 27.25525394677198 $268 30.847071596107249 $138 $269 forward 7 unknown #
coedge $-1 $140 $139 $216 $270 reversed $49 $-1 #
coedge $-1 $146 $141 $209 $267 forward $136 $-1 #
vertex $-1 $267 $271 #
straight-curve $-1 18.59816152464181 24.329300697037539 6.6703846850784174 1 0 0 I I #
coedge $-1 $265 $143 $146 $220 reversed $206 $-1 #
coedge $-1 $143 $265 $211 $270 forward $206 $-1 #
vertex $-1 $144 $272 #
straight-curve $-1 25.772998282166597 26.070648398197047 48.137630469891612 0 0 1 I I #
straight-curve $-1 25.772998282166597 0.7920468164379173 49.132716288640893 0 0.48480960649040278 -0.87461971476443456 I I #
edge $-1 $273 -48.619647816400644 $147 -25.772998282166597 $215 $274 forward 7 unknown #
point $-1 25.772998282166597 26.070648398197047 6.6703846850784192 #
point $-1 25.772998282166597 24.329300697037532 6.6703846850784174 #
edge $-1 $275 1 $275 0 $150 $-1 forward 7 unknown #
vertex $-1 $151 $276 #
ellipse-curve $-1 32.300612434804904 24.325354832852863 4.6148378146142992 0 0.87461971476443456 0.48480960649040278 0.5 0 0 1 I I #
point $-1 32.800612434804904 25.199974547617298 5.0996474211047023 #
edge $-1 $277 1 $277 0 $154 $-1 forward 7 unknown #
vertex $-1 $155 $278 #
ellipse-curve $-1 42.092033663762351 24.325354832852863 4.6148378146142992 0 0.87461971476443456 0.48480960649040278 0.5 0 0 1 I I #
point $-1 42.592033663762351 25.199974547617298 5.0996474211047023 #
plane-surface $-1 48.619647816400644 0 0 -1 0 0 0 0 1 forward_v I I I I #
coedge $-1 $163 $161 $165 $236 reversed $101 $-1 #
edge $-1 $176 -6.6703846850784192 $238 6.6703846850784192 $175 $279 forward 7 unknown #
vertex $-1 $236 $280 #
straight-curve $-1 -48.619647816400644 -26.070648398197047 0 0 0 -1 I I #
edge $-1 $234 -26.070648398197047 $238 26.070648398197047 $232 $281 forward 7 unknown #
straight-curve $-1 0 -26.070648398197047 -6.6703846850784192 -1 0 0 I I #
vertex $-1 $168 $282 #
straight-curve $-1 0 26.070648398197047 -6.6703846850784192 1 0 0 I I #
point $-1 48.619647816400644 26.070648398197047 -6.6703846850784192 #
point $-1 48.619647816400644 -26.070648398197047 -6.6703846850784192 #
straight-curve $-1 -48.619647816400644 0 6.6703846850784192 0 -1 0 I I #
point $-1 -48.619647816400644 26.070648398197047 6.6703846850784192 #
point $-1 -48.619647816400644 -26.070648398197047 6.6703846850784192 #
straight-curve $-1 48.619647816400644 -26.070648398197047 0 0 0 -1 I I #
straight-curve $-1 48.619647816400644 26.070648398197047 0 0 0 -1 I I #
plane-surface $-1 48.619647816400644 0 0 -1 0 0 0 0 1 forward_v I I I I #
coedge $-1 $259 $250 $249 $283 forward $186 $-1 #
coedge $-1 $189 $188 $248 $283 reversed $71 $-1 #
coedge $-1 $248 $284 $190 $251 reversed $186 $-1 #
edge $-1 $252 -48.619647816400644 $255 48.619647816400644 $250 $285 forward 7 unknown #
vertex $-1 $191 $286 #
straight-curve $-1 -48.619647816400644 0 6.6703846850784192 0 -1 0 I I #
coedge $-1 $198 $192 $284 $287 forward $199 $-1 #
vertex $-1 $193 $288 #
straight-curve $-1 48.619647816400644 0 6.6703846850784192 0 1 0 I I #
point $-1 48.619647816400644 -26.070648398197047 6.6703846850784192 #
point $-1 -48.619647816400644 -26.070648398197047 6.6703846850784192 #
coedge $-1 $284 $248 $201 $260 reversed $186 $-1 #
edge $-1 $261 -48.619647816400644 $263 48.619647816400644 $259 $289 forward 7 unknown #
vertex $-1 $287 $290 #
straight-curve $-1 48.619647816400644 -29.186371710035154 3.1012698277644777 0 -1 0 I I #
vertex $-1 $203 $291 #
straight-curve $-1 -48.619647816400644 -29.186371710035154 3.1012698277644777 0 1 0 I I #
coedge $-1 $216 $215 $208 $266 forward $206 $-1 #
edge $-1 $273 -6.6703846850784192 $268 -3.5289101571309445 $208 $292 forward 7 unknown #
edge $-1 $213 24.329300697037532 $273 26.070648398197047 $209 $293 forward 7 unknown #
vertex $-1 $210 $294 #
straight-curve $-1 48.619647816400644 11.115691756307013 30.508367117836357 0 0.48480960649040278 -0.87461971476443456 I I #
edge $-1 $268 -30.021486291758833 $217 -7.1748367575247869 $216 $295 forward 7 unknown #
point $-1 48.619647816400644 24.329300697037532 6.6703846850784174 #
point $-1 25.772998282166597 26.070648398197047 3.5289101571309445 #
vertex $-1 $267 $296 #
straight-curve $-1 0 26.070648398197047 6.6703846850784192 -1 0 0 I I #
vertex $-1 $223 $297 #
point $-1 32.800612434804904 24.325354832852863 4.6148378146142992 #
vertex $-1 $227 $298 #
point $-1 42.592033663762351 24.325354832852863 4.6148378146142992 #
straight-curve $-1 -48.619647816400644 26.070648398197047 0 0 0 -1 I I #
point $-1 -48.619647816400644 -26.070648398197047 -6.6703846850784192 #
straight-curve $-1 -48.619647816400644 0 -6.6703846850784192 0 1 0 I I #
point $-1 -48.619647816400644 26.070648398197047 -6.6703846850784192 #
edge $-1 $252 -1.7845574286569708 $263 1.7845574286569708 $249 $299 forward 7 unknown #
coedge $-1 $250 $259 $254 $287 reversed $186 $-1 #
straight-curve $-1 0 -32.302095021873264 6.6703846850784192 1 0 0 I I #
point $-1 -48.619647816400644 -32.302095021873264 6.6703846850784192 #
edge $-1 $255 -1.7845574286569708 $261 1.7845574286569708 $254 $300 forward 7 unknown #
point $-1 48.619647816400644 -32.302095021873264 6.6703846850784192 #
straight-curve $-1 0 -32.302095021873264 3.1012698277644777 -1 0 0 I I #
point $-1 48.619647816400644 -32.302095021873264 3.1012698277644777 #
point $-1 -48.619647816400644 -32.302095021873264 3.1012698277644777 #
straight-curve $-1 48.619647816400644 26.070648398197047 0 0 0 -1 I I #
straight-curve $-1 48.619647816400644 0 6.6703846850784192 0 1 0 I I #
point $-1 48.619647816400644 26.070648398197047 3.5289101571309445 #
straight-curve $-1 18.59816152464181 26.070648398197047 3.528910157130948 -1 0 0 I I #
point $-1 48.619647816400644 26.070648398197047 6.6703846850784192 #
point $-1 32.300612434804904 23.888044975470645 4.3724330113690986 #
point $-1 42.092033663762351 23.888044975470645 4.3724330113690986 #
straight-curve $-1 -48.619647816400644 -32.302095021873264 4.8858272564214484 0 0 -1 I I #
straight-curve $-1 48.619647816400644 -32.302095021873264 4.8858272564214484 0 0 -1 I I #
End-of-ACIS-data 